	.include "MPlayDef.s"

	.equ	song04_grp, voicegroup000
	.equ	song04_pri, 0
	.equ	song04_rev, 0
	.equ	song04_mvl, 127
	.equ	song04_key, 0
	.equ	song04_tbs, 1
	.equ	song04_exg, 0
	.equ	song04_cmp, 1

	.section .rodata
	.global	song04
	.align	2


@**************** Track 1 (Midi-Chn.0) ****************@

song04_001:
@  #01 @000   ----------------------------------------
 .byte   KEYSH , song04_key+0
 .byte   TEMPO , 132*song04_tbs/2
 .byte   VOICE , 61
 .byte   VOL , 31*song04_mvl/mxv
 .byte   W24
Label_014AA109:
 .byte   N11 ,An2 ,v100
 .byte   N11 ,En3
 .byte   W24
 .byte   Bn2
 .byte   N11 ,Fs3
 .byte   W36
 .byte   N17 ,Gn2
 .byte   N17 ,Dn3
 .byte   W24
@  #01 @001   ----------------------------------------
 .byte   An2
 .byte   N17 ,En3
 .byte   W12
 .byte   PEND 
Label_014AA11D:
 .byte   W12
 .byte   N05 ,Bn2 ,v100
 .byte   N05 ,Fs3
 .byte   W12
 .byte   N44 ,Bn2
 .byte   N44 ,Fs3
 .byte   W72
 .byte   PEND 
@  #01 @002   ----------------------------------------
 .byte   PATT
  .word Label_014AA109
@  #01 @003   ----------------------------------------
Label_014AA12F:
 .byte   W12
 .byte   N05 ,Bn2 ,v100
 .byte   N05 ,Fs3
 .byte   W12
 .byte   N17 ,Bn2
 .byte   N17 ,Fs3
 .byte   W24
 .byte   Bn2
 .byte   N17 ,En3
 .byte   W24
 .byte   An2
 .byte   N17 ,Dn3
 .byte   W24
 .byte   PEND 
@  #01 @004   ----------------------------------------
 .byte   PATT
  .word Label_014AA109
@  #01 @005   ----------------------------------------
 .byte   PATT
  .word Label_014AA11D
@  #01 @006   ----------------------------------------
 .byte   PATT
  .word Label_014AA109
@  #01 @007   ----------------------------------------
Label_014AA153:
 .byte   W12
 .byte   N05 ,Bn2 ,v100
 .byte   N05 ,Fs3
 .byte   W12
 .byte   N17 ,Bn2
 .byte   N17 ,Fs3
 .byte   W24
 .byte   N44 ,Bn2
 .byte   N44 ,En3
 .byte   W48
 .byte   PEND 
@  #01 @008   ----------------------------------------
 .byte   N92 ,Gn2
 .byte   N92 ,Dn3
 .byte   W96
@  #01 @009   ----------------------------------------
 .byte   An2
 .byte   N92 ,En3
 .byte   W96
@  #01 @010   ----------------------------------------
Label_014AA16E:
 .byte   TIE ,Bn2 ,v100
 .byte   TIE ,Fs3
 .byte   W96
 .byte   PEND 
@  #01 @011   ----------------------------------------
 .byte   W92
 .byte   W03
 .byte   EOT
 .byte   Bn2 ,v066
 .byte   W01
@  #01 @012   ----------------------------------------
 .byte   N92 ,Gn2
 .byte   N92 ,Dn3
 .byte   W96
@  #01 @013   ----------------------------------------
 .byte   An2
 .byte   N92 ,En3
 .byte   W96
@  #01 @014   ----------------------------------------
 .byte   PATT
  .word Label_014AA109
@  #01 @015   ----------------------------------------
 .byte   PATT
  .word Label_014AA11D
@  #01 @016   ----------------------------------------
 .byte   PATT
  .word Label_014AA109
@  #01 @017   ----------------------------------------
 .byte   PATT
  .word Label_014AA12F
@  #01 @018   ----------------------------------------
 .byte   PATT
  .word Label_014AA109
@  #01 @019   ----------------------------------------
 .byte   PATT
  .word Label_014AA11D
@  #01 @020   ----------------------------------------
 .byte   PATT
  .word Label_014AA109
@  #01 @021   ----------------------------------------
 .byte   PATT
  .word Label_014AA153
@  #01 @022   ----------------------------------------
 .byte   N92 ,Gn2 ,v100
 .byte   N92 ,Dn3
 .byte   W96
@  #01 @023   ----------------------------------------
 .byte   An2
 .byte   N92 ,En3
 .byte   W96
@  #01 @024   ----------------------------------------
 .byte   PATT
  .word Label_014AA16E
@  #01 @025   ----------------------------------------
 .byte   W92
 .byte   W03
 .byte   EOT
 .byte   Bn2 ,v066
 .byte   W01
@  #01 @026   ----------------------------------------
 .byte   N92 ,Gn2 ,v100
 .byte   N92 ,Dn3
 .byte   W96
@  #01 @027   ----------------------------------------
 .byte   An2
 .byte   N92 ,En3
 .byte   W96
@  #01 @028   ----------------------------------------
Label_014AA1CB:
 .byte   N17 ,Fs2 ,v100
 .byte   N17 ,Bn2
 .byte   W24
 .byte   N03 ,Fs2
 .byte   N03 ,Bn2
 .byte   W08
 .byte   Fs2
 .byte   N03 ,Bn2
 .byte   W08
 .byte   Fs2
 .byte   N03 ,Bn2
 .byte   W08
 .byte   N17 ,Fs2
 .byte   N17 ,Bn2
 .byte   W24
 .byte   N03 ,Fs2
 .byte   N03 ,Bn2
 .byte   W08
 .byte   Fs2
 .byte   N03 ,Bn2
 .byte   W08
 .byte   Fs2
 .byte   N03 ,Bn2
 .byte   W08
 .byte   PEND 
@  #01 @029   ----------------------------------------
Label_014AA1F1:
 .byte   N17 ,Fs2 ,v100
 .byte   N17 ,Bn2
 .byte   W24
 .byte   N03 ,Fs2
 .byte   N03 ,Bn2
 .byte   W08
 .byte   Fs2
 .byte   N03 ,Bn2
 .byte   W08
 .byte   Fs2
 .byte   N03 ,Bn2
 .byte   W08
 .byte   N17 ,Fs2
 .byte   N17 ,Bn2
 .byte   W24
 .byte   Fs2
 .byte   N17 ,Bn2
 .byte   W24
 .byte   PEND 
@  #01 @030   ----------------------------------------
 .byte   PATT
  .word Label_014AA1CB
@  #01 @031   ----------------------------------------
 .byte   PATT
  .word Label_014AA1F1
@  #01 @032   ----------------------------------------
 .byte   PATT
  .word Label_014AA1CB
@  #01 @033   ----------------------------------------
 .byte   PATT
  .word Label_014AA1F1
@  #01 @034   ----------------------------------------
 .byte   PATT
  .word Label_014AA1CB
@  #01 @035   ----------------------------------------
 .byte   PATT
  .word Label_014AA1F1
@  #01 @036   ----------------------------------------
Label_014AA22C:
@  #01 @037   ----------------------------------------
 .byte   PATT
  .word Label_014AA109
@  #01 @038   ----------------------------------------
 .byte   PATT
  .word Label_014AA11D
@  #01 @039   ----------------------------------------
 .byte   PATT
  .word Label_014AA109
@  #01 @040   ----------------------------------------
 .byte   PATT
  .word Label_014AA12F
@  #01 @041   ----------------------------------------
 .byte   PATT
  .word Label_014AA109
@  #01 @042   ----------------------------------------
 .byte   PATT
  .word Label_014AA11D
@  #01 @043   ----------------------------------------
 .byte   PATT
  .word Label_014AA109
@  #01 @044   ----------------------------------------
 .byte   PATT
  .word Label_014AA153
@  #01 @045   ----------------------------------------
 .byte   N92 ,Gn2 ,v100
 .byte   N92 ,Dn3
 .byte   W96
@  #01 @046   ----------------------------------------
 .byte   An2
 .byte   N92 ,En3
 .byte   W96
@  #01 @047   ----------------------------------------
 .byte   PATT
  .word Label_014AA16E
@  #01 @048   ----------------------------------------
 .byte   W92
 .byte   W03
 .byte   EOT
 .byte   Bn2 ,v066
 .byte   W01
@  #01 @049   ----------------------------------------
 .byte   N92 ,Gn2 ,v100
 .byte   N92 ,Dn3
 .byte   W96
@  #01 @050   ----------------------------------------
 .byte   An2
 .byte   N92 ,En3
 .byte   W96
@  #01 @051   ----------------------------------------
 .byte   PATT
  .word Label_014AA109
@  #01 @052   ----------------------------------------
 .byte   PATT
  .word Label_014AA11D
@  #01 @053   ----------------------------------------
 .byte   PATT
  .word Label_014AA109
@  #01 @054   ----------------------------------------
 .byte   PATT
  .word Label_014AA12F
@  #01 @055   ----------------------------------------
 .byte   PATT
  .word Label_014AA109
@  #01 @056   ----------------------------------------
 .byte   PATT
  .word Label_014AA11D
@  #01 @057   ----------------------------------------
 .byte   PATT
  .word Label_014AA109
@  #01 @058   ----------------------------------------
 .byte   PATT
  .word Label_014AA153
@  #01 @059   ----------------------------------------
 .byte   N92 ,Gn2 ,v100
 .byte   N92 ,Dn3
 .byte   W96
@  #01 @060   ----------------------------------------
 .byte   An2
 .byte   N92 ,En3
 .byte   W96
@  #01 @061   ----------------------------------------
 .byte   PATT
  .word Label_014AA16E
@  #01 @062   ----------------------------------------
 .byte   W92
 .byte   W03
 .byte   EOT
 .byte   Bn2 ,v066
 .byte   W01
@  #01 @063   ----------------------------------------
 .byte   N92 ,Gn2 ,v100
 .byte   N92 ,Dn3
 .byte   W96
@  #01 @064   ----------------------------------------
 .byte   An2
 .byte   N92 ,En3
 .byte   W96
@  #01 @065   ----------------------------------------
 .byte   PATT
  .word Label_014AA1CB
@  #01 @066   ----------------------------------------
 .byte   PATT
  .word Label_014AA1F1
@  #01 @067   ----------------------------------------
 .byte   PATT
  .word Label_014AA1CB
@  #01 @068   ----------------------------------------
 .byte   PATT
  .word Label_014AA1F1
@  #01 @069   ----------------------------------------
 .byte   PATT
  .word Label_014AA1CB
@  #01 @070   ----------------------------------------
 .byte   PATT
  .word Label_014AA1F1
@  #01 @071   ----------------------------------------
 .byte   PATT
  .word Label_014AA1CB
@  #01 @072   ----------------------------------------
 .byte   PATT
  .word Label_014AA1F1
@  #01 @073   ----------------------------------------
 .byte   GOTO
  .word Label_014AA22C
@  #01 @074   ----------------------------------------
 .byte   N11 ,An2 ,v100
 .byte   N11 ,En3
 .byte   W24
 .byte   Bn2 ,v096
 .byte   N11 ,Fs3
 .byte   W36
 .byte   N17 ,Gn2 ,v092
 .byte   N17 ,Dn3
 .byte   W24
 .byte   An2 ,v088
 .byte   N17 ,En3
 .byte   W12
@  #01 @075   ----------------------------------------
 .byte   W12
 .byte   N05 ,Bn2 ,v084
 .byte   N05 ,Fs3
 .byte   W12
 .byte   N44 ,Bn2 ,v080
 .byte   N44 ,Fs3
 .byte   W72
@  #01 @076   ----------------------------------------
 .byte   N11 ,An2 ,v068
 .byte   N11 ,En3
 .byte   W24
 .byte   Bn2 ,v064
 .byte   N11 ,Fs3
 .byte   W36
 .byte   N17 ,Gn2 ,v056
 .byte   N17 ,Dn3
 .byte   W24
 .byte   An2 ,v052
 .byte   N17 ,En3
 .byte   W12
@  #01 @077   ----------------------------------------
 .byte   W12
 .byte   N05 ,Bn2 ,v048
 .byte   N05 ,Fs3
 .byte   W12
 .byte   N17 ,Bn2
 .byte   N17 ,Fs3
 .byte   W24
 .byte   Bn2 ,v044
 .byte   N17 ,En3
 .byte   W24
 .byte   An2 ,v040
 .byte   N17 ,Dn3
 .byte   W24
@  #01 @078   ----------------------------------------
 .byte   N11 ,An2 ,v036
 .byte   N11 ,En3
 .byte   W24
 .byte   Bn2 ,v032
 .byte   N11 ,Fs3
 .byte   W36
 .byte   N17 ,Gn2 ,v024
 .byte   N17 ,Dn3
 .byte   W24
 .byte   An2 ,v020
 .byte   N17 ,En3
 .byte   W12
@  #01 @079   ----------------------------------------
 .byte   W12
 .byte   N05 ,Bn2 ,v016
 .byte   N05 ,Fs3
 .byte   W12
 .byte   N44 ,Bn2 ,v012
 .byte   N44 ,Fs3
 .byte   W68
 .byte   W03
 .byte   FINE

@**************** Track 2 (Midi-Chn.1) ****************@

song04_002:
@  #02 @000   ----------------------------------------
 .byte   KEYSH , song04_key+0
 .byte   VOICE , 38
 .byte   VOL , 29*song04_mvl/mxv
 .byte   W24
Label_014AA373:
 .byte   N11 ,Bn1 ,v100
 .byte   W12
 .byte   N05
 .byte   W06
 .byte   N05
 .byte   W06
 .byte   N05
 .byte   W06
 .byte   N05
 .byte   W06
 .byte   N05
 .byte   W12
 .byte   N05
 .byte   W06
 .byte   N05
 .byte   W06
 .byte   N05
 .byte   W12
@  #02 @001   ----------------------------------------
 .byte   N05
 .byte   W06
 .byte   N05
 .byte   W06
 .byte   N05
 .byte   W06
 .byte   N05
 .byte   W06
 .byte   PEND 
@  #02 @002   ----------------------------------------
 .byte   PATT
  .word Label_014AA373
@  #02 @003   ----------------------------------------
 .byte   PATT
  .word Label_014AA373
@  #02 @004   ----------------------------------------
 .byte   PATT
  .word Label_014AA373
@  #02 @005   ----------------------------------------
 .byte   PATT
  .word Label_014AA373
@  #02 @006   ----------------------------------------
 .byte   PATT
  .word Label_014AA373
@  #02 @007   ----------------------------------------
 .byte   PATT
  .word Label_014AA373
@  #02 @008   ----------------------------------------
 .byte   PATT
  .word Label_014AA373
@  #02 @009   ----------------------------------------
Label_014AA3B3:
 .byte   N11 ,Fs1 ,v100
 .byte   W12
 .byte   Gn1
 .byte   W12
 .byte   N05 ,Gn2
 .byte   W06
 .byte   N05
 .byte   W06
 .byte   Gn1
 .byte   W12
 .byte   N11 ,Gn2
 .byte   W12
 .byte   N05 ,Gn1
 .byte   W12
 .byte   N17 ,Gn2
 .byte   W24
 .byte   PEND 
@  #02 @010   ----------------------------------------
Label_014AA3CA:
 .byte   N11 ,Gn1 ,v100
 .byte   W12
 .byte   An1
 .byte   W12
 .byte   N05 ,An2
 .byte   W06
 .byte   N05
 .byte   W06
 .byte   An1
 .byte   W12
 .byte   N11 ,An2
 .byte   W12
 .byte   N05 ,An1
 .byte   W12
 .byte   N17
 .byte   W24
 .byte   PEND 
@  #02 @011   ----------------------------------------
Label_014AA3E0:
 .byte   N11 ,An1 ,v100
 .byte   W12
 .byte   Bn1
 .byte   W12
 .byte   N05
 .byte   W06
 .byte   N05
 .byte   W06
 .byte   N11 ,Bn2
 .byte   W12
 .byte   Bn1
 .byte   W12
 .byte   N11
 .byte   W12
 .byte   N05 ,Bn2
 .byte   W12
 .byte   N11
 .byte   W12
 .byte   PEND 
@  #02 @012   ----------------------------------------
Label_014AA3F7:
 .byte   N11 ,An1 ,v100
 .byte   W12
 .byte   Bn1
 .byte   W12
 .byte   N05 ,Bn2
 .byte   W06
 .byte   N05
 .byte   W06
 .byte   N11 ,Bn1
 .byte   W12
 .byte   N11
 .byte   W12
 .byte   Bn2
 .byte   W12
 .byte   Bn1
 .byte   W12
 .byte   An1
 .byte   W12
 .byte   PEND 
@  #02 @013   ----------------------------------------
 .byte   PATT
  .word Label_014AA3B3
@  #02 @014   ----------------------------------------
 .byte   PATT
  .word Label_014AA3CA
@  #02 @015   ----------------------------------------
 .byte   PATT
  .word Label_014AA373
@  #02 @016   ----------------------------------------
 .byte   PATT
  .word Label_014AA373
@  #02 @017   ----------------------------------------
 .byte   PATT
  .word Label_014AA373
@  #02 @018   ----------------------------------------
 .byte   PATT
  .word Label_014AA373
@  #02 @019   ----------------------------------------
 .byte   PATT
  .word Label_014AA373
@  #02 @020   ----------------------------------------
 .byte   PATT
  .word Label_014AA373
@  #02 @021   ----------------------------------------
 .byte   PATT
  .word Label_014AA373
@  #02 @022   ----------------------------------------
 .byte   PATT
  .word Label_014AA373
@  #02 @023   ----------------------------------------
 .byte   PATT
  .word Label_014AA3B3
@  #02 @024   ----------------------------------------
 .byte   PATT
  .word Label_014AA3CA
@  #02 @025   ----------------------------------------
 .byte   PATT
  .word Label_014AA3E0
@  #02 @026   ----------------------------------------
 .byte   PATT
  .word Label_014AA3F7
@  #02 @027   ----------------------------------------
 .byte   PATT
  .word Label_014AA3B3
@  #02 @028   ----------------------------------------
 .byte   PATT
  .word Label_014AA3CA
@  #02 @029   ----------------------------------------
 .byte   PATT
  .word Label_014AA373
@  #02 @030   ----------------------------------------
 .byte   PATT
  .word Label_014AA373
@  #02 @031   ----------------------------------------
 .byte   PATT
  .word Label_014AA373
@  #02 @032   ----------------------------------------
 .byte   PATT
  .word Label_014AA373
@  #02 @033   ----------------------------------------
 .byte   PATT
  .word Label_014AA373
@  #02 @034   ----------------------------------------
 .byte   PATT
  .word Label_014AA373
@  #02 @035   ----------------------------------------
 .byte   PATT
  .word Label_014AA373
@  #02 @036   ----------------------------------------
 .byte   PATT
  .word Label_014AA373
@  #02 @037   ----------------------------------------
Label_014AA486:
@  #02 @038   ----------------------------------------
 .byte   PATT
  .word Label_014AA373
@  #02 @039   ----------------------------------------
 .byte   PATT
  .word Label_014AA373
@  #02 @040   ----------------------------------------
 .byte   PATT
  .word Label_014AA373
@  #02 @041   ----------------------------------------
 .byte   PATT
  .word Label_014AA373
@  #02 @042   ----------------------------------------
 .byte   PATT
  .word Label_014AA373
@  #02 @043   ----------------------------------------
 .byte   PATT
  .word Label_014AA373
@  #02 @044   ----------------------------------------
 .byte   PATT
  .word Label_014AA373
@  #02 @045   ----------------------------------------
 .byte   PATT
  .word Label_014AA373
@  #02 @046   ----------------------------------------
 .byte   PATT
  .word Label_014AA3B3
@  #02 @047   ----------------------------------------
 .byte   PATT
  .word Label_014AA3CA
@  #02 @048   ----------------------------------------
 .byte   PATT
  .word Label_014AA3E0
@  #02 @049   ----------------------------------------
 .byte   PATT
  .word Label_014AA3F7
@  #02 @050   ----------------------------------------
 .byte   PATT
  .word Label_014AA3B3
@  #02 @051   ----------------------------------------
 .byte   PATT
  .word Label_014AA3CA
@  #02 @052   ----------------------------------------
 .byte   PATT
  .word Label_014AA373
@  #02 @053   ----------------------------------------
 .byte   PATT
  .word Label_014AA373
@  #02 @054   ----------------------------------------
 .byte   PATT
  .word Label_014AA373
@  #02 @055   ----------------------------------------
 .byte   PATT
  .word Label_014AA373
@  #02 @056   ----------------------------------------
 .byte   PATT
  .word Label_014AA373
@  #02 @057   ----------------------------------------
 .byte   PATT
  .word Label_014AA373
@  #02 @058   ----------------------------------------
 .byte   PATT
  .word Label_014AA373
@  #02 @059   ----------------------------------------
 .byte   PATT
  .word Label_014AA373
@  #02 @060   ----------------------------------------
 .byte   PATT
  .word Label_014AA3B3
@  #02 @061   ----------------------------------------
 .byte   PATT
  .word Label_014AA3CA
@  #02 @062   ----------------------------------------
 .byte   PATT
  .word Label_014AA3E0
@  #02 @063   ----------------------------------------
 .byte   PATT
  .word Label_014AA3F7
@  #02 @064   ----------------------------------------
 .byte   PATT
  .word Label_014AA3B3
@  #02 @065   ----------------------------------------
 .byte   PATT
  .word Label_014AA3CA
@  #02 @066   ----------------------------------------
 .byte   PATT
  .word Label_014AA373
@  #02 @067   ----------------------------------------
 .byte   PATT
  .word Label_014AA373
@  #02 @068   ----------------------------------------
 .byte   PATT
  .word Label_014AA373
@  #02 @069   ----------------------------------------
 .byte   PATT
  .word Label_014AA373
@  #02 @070   ----------------------------------------
 .byte   PATT
  .word Label_014AA373
@  #02 @071   ----------------------------------------
 .byte   PATT
  .word Label_014AA373
@  #02 @072   ----------------------------------------
 .byte   PATT
  .word Label_014AA373
@  #02 @073   ----------------------------------------
 .byte   PATT
  .word Label_014AA373
@  #02 @074   ----------------------------------------
 .byte   GOTO
  .word Label_014AA486
@  #02 @075   ----------------------------------------
 .byte   N11 ,Bn1 ,v100
 .byte   W12
 .byte   N05
 .byte   W06
 .byte   N05
 .byte   W06
 .byte   Bn1 ,v096
 .byte   W06
 .byte   N05
 .byte   W06
 .byte   N05
 .byte   W12
 .byte   Bn1 ,v092
 .byte   W06
 .byte   N05
 .byte   W06
 .byte   N05
 .byte   W12
 .byte   Bn1 ,v088
 .byte   W06
 .byte   N05
 .byte   W06
 .byte   N05
 .byte   W06
 .byte   N05
 .byte   W06
@  #02 @076   ----------------------------------------
 .byte   N11 ,Bn1 ,v084
 .byte   W12
 .byte   N05
 .byte   W06
 .byte   N05
 .byte   W06
 .byte   Bn1 ,v080
 .byte   W06
 .byte   N05
 .byte   W06
 .byte   N05
 .byte   W12
 .byte   Bn1 ,v076
 .byte   W06
 .byte   N05
 .byte   W06
 .byte   N05
 .byte   W12
 .byte   Bn1 ,v072
 .byte   W06
 .byte   N05
 .byte   W06
 .byte   N05
 .byte   W06
 .byte   Bn1 ,v068
 .byte   W06
@  #02 @077   ----------------------------------------
 .byte   N11
 .byte   W12
 .byte   N05
 .byte   W06
 .byte   Bn1 ,v064
 .byte   W06
 .byte   N05
 .byte   W06
 .byte   N05
 .byte   W06
 .byte   N05
 .byte   W12
 .byte   Bn1 ,v060
 .byte   W06
 .byte   N05
 .byte   W06
 .byte   Bn1 ,v056
 .byte   W12
 .byte   N05
 .byte   W06
 .byte   N05
 .byte   W06
 .byte   Bn1 ,v052
 .byte   W06
 .byte   N05
 .byte   W06
@  #02 @078   ----------------------------------------
 .byte   N11
 .byte   W12
 .byte   N05 ,Bn1 ,v048
 .byte   W06
 .byte   N05
 .byte   W06
 .byte   N05
 .byte   W06
 .byte   N05
 .byte   W06
 .byte   Bn1 ,v044
 .byte   W12
 .byte   N05
 .byte   W06
 .byte   N05
 .byte   W06
 .byte   Bn1 ,v040
 .byte   W12
 .byte   N05
 .byte   W06
 .byte   Bn1 ,v036
 .byte   W06
 .byte   N05
 .byte   W06
 .byte   N05
 .byte   W06
@  #02 @079   ----------------------------------------
 .byte   N11
 .byte   W12
 .byte   N05 ,Bn1 ,v032
 .byte   W06
 .byte   N05
 .byte   W06
 .byte   N05
 .byte   W06
 .byte   Bn1 ,v028
 .byte   W06
 .byte   N05
 .byte   W12
 .byte   N05
 .byte   W06
 .byte   Bn1 ,v024
 .byte   W06
 .byte   N05
 .byte   W12
 .byte   N05
 .byte   W06
 .byte   Bn1 ,v020
 .byte   W06
 .byte   N05
 .byte   W06
 .byte   N05
 .byte   W06
@  #02 @080   ----------------------------------------
 .byte   N11 ,Bn1 ,v016
 .byte   W12
 .byte   N05
 .byte   W06
 .byte   N05
 .byte   W06
 .byte   Bn1 ,v012
 .byte   W06
 .byte   N05
 .byte   W06
 .byte   N05
 .byte   W12
 .byte   Bn1 ,v008
 .byte   W06
 .byte   N05
 .byte   W06
 .byte   N05
 .byte   W12
 .byte   Bn1 ,v004
 .byte   W06
 .byte   N05
 .byte   W06
 .byte   N05
 .byte   W06
 .byte   N05
 .byte   W05
 .byte   FINE

@**************** Track 3 (Midi-Chn.2) ****************@

song04_003:
@  #03 @000   ----------------------------------------
 .byte   KEYSH , song04_key+0
 .byte   VOICE , 81
 .byte   VOL , 39*song04_mvl/mxv
 .byte   W24
 .byte   W96
@  #03 @001   ----------------------------------------
 .byte   W96
@  #03 @002   ----------------------------------------
 .byte   W96
@  #03 @003   ----------------------------------------
 .byte   W96
@  #03 @004   ----------------------------------------
 .byte   W96
@  #03 @005   ----------------------------------------
 .byte   W96
@  #03 @006   ----------------------------------------
 .byte   W96
@  #03 @007   ----------------------------------------
Label_014AA61A:
 .byte   W48
 .byte   N07 ,Bn2 ,v100
 .byte   W08
 .byte   Cs3
 .byte   W08
 .byte   En3
 .byte   W08
 .byte   Fs3
 .byte   W08
 .byte   Gn3
 .byte   W08
 .byte   An3
 .byte   W08
 .byte   PEND 
@  #03 @008   ----------------------------------------
Label_014AA62A:
 .byte   N68 ,Bn3 ,v100
 .byte   W80
 .byte   W01
 .byte   N02 ,Cs4
 .byte   W03
 .byte   N11 ,Dn4
 .byte   W12
 .byte   PEND 
@  #03 @009   ----------------------------------------
Label_014AA636:
 .byte   N68 ,Cs4 ,v100
 .byte   W84
 .byte   N11 ,An3
 .byte   W12
 .byte   PEND 
@  #03 @010   ----------------------------------------
 .byte   TIE ,Bn3
 .byte   W96
@  #03 @011   ----------------------------------------
 .byte   W44
 .byte   W03
 .byte   EOT
 .byte   W01
 .byte   N07 ,Cs3
 .byte   W08
 .byte   Dn3
 .byte   W08
 .byte   En3
 .byte   W08
 .byte   Fs3
 .byte   W08
 .byte   Gn3
 .byte   W08
 .byte   An3
 .byte   W08
@  #03 @012   ----------------------------------------
Label_014AA652:
 .byte   N68 ,Bn3 ,v100
 .byte   W84
 .byte   N11 ,En4
 .byte   W12
 .byte   PEND 
@  #03 @013   ----------------------------------------
Label_014AA65A:
 .byte   N68 ,Cs4 ,v100
 .byte   W72
 .byte   N23 ,An3
 .byte   W24
 .byte   PEND 
@  #03 @014   ----------------------------------------
 .byte   TIE ,Bn3
 .byte   W96
@  #03 @015   ----------------------------------------
 .byte   W92
 .byte   W03
 .byte   EOT
 .byte   W01
@  #03 @016   ----------------------------------------
 .byte   W96
@  #03 @017   ----------------------------------------
 .byte   W96
@  #03 @018   ----------------------------------------
 .byte   W96
@  #03 @019   ----------------------------------------
 .byte   W96
@  #03 @020   ----------------------------------------
 .byte   W96
@  #03 @021   ----------------------------------------
 .byte   PATT
  .word Label_014AA61A
@  #03 @022   ----------------------------------------
Label_014AA673:
 .byte   N68 ,Bn3 ,v100
 .byte   W84
 .byte   N11 ,Dn4
 .byte   W12
 .byte   PEND 
@  #03 @023   ----------------------------------------
 .byte   PATT
  .word Label_014AA636
@  #03 @024   ----------------------------------------
 .byte   TIE ,Bn3 ,v100
 .byte   W96
@  #03 @025   ----------------------------------------
 .byte   W44
 .byte   W03
 .byte   EOT
 .byte   W01
 .byte   N07 ,Cs3
 .byte   W08
 .byte   Dn3
 .byte   W08
 .byte   En3
 .byte   W08
 .byte   Fs3
 .byte   W08
 .byte   Gn3
 .byte   W08
 .byte   An3
 .byte   W08
@  #03 @026   ----------------------------------------
 .byte   PATT
  .word Label_014AA652
@  #03 @027   ----------------------------------------
 .byte   PATT
  .word Label_014AA65A
@  #03 @028   ----------------------------------------
 .byte   TIE ,Fs4 ,v100
 .byte   W96
@  #03 @029   ----------------------------------------
 .byte   W92
 .byte   W03
 .byte   EOT
 .byte   W01
@  #03 @030   ----------------------------------------
 .byte   W96
@  #03 @031   ----------------------------------------
 .byte   W96
@  #03 @032   ----------------------------------------
 .byte   W96
@  #03 @033   ----------------------------------------
 .byte   W96
@  #03 @034   ----------------------------------------
 .byte   W96
@  #03 @035   ----------------------------------------
Label_014AA6AC:
 .byte   N05 ,Dn5 ,v100
 .byte   W06
 .byte   Cs5
 .byte   W06
 .byte   Bn4
 .byte   W06
 .byte   Fs4
 .byte   W06
 .byte   Dn4
 .byte   W06
 .byte   Cs4
 .byte   W06
 .byte   Bn3
 .byte   W06
 .byte   Fs3
 .byte   W06
 .byte   Dn3
 .byte   W06
 .byte   Cs3
 .byte   W06
 .byte   Bn2
 .byte   W06
 .byte   Fs2
 .byte   W06
 .byte   Dn2
 .byte   W06
 .byte   Cs2
 .byte   W06
 .byte   Bn1
 .byte   W06
 .byte   Fs1
 .byte   W06
 .byte   PEND 
@  #03 @036   ----------------------------------------
Label_014AA6CF:
 .byte   W96
@  #03 @037   ----------------------------------------
 .byte   W96
@  #03 @038   ----------------------------------------
 .byte   W96
@  #03 @039   ----------------------------------------
 .byte   W96
@  #03 @040   ----------------------------------------
 .byte   W96
@  #03 @041   ----------------------------------------
 .byte   W96
@  #03 @042   ----------------------------------------
 .byte   W96
@  #03 @043   ----------------------------------------
 .byte   PATT
  .word Label_014AA61A
@  #03 @044   ----------------------------------------
 .byte   PATT
  .word Label_014AA62A
@  #03 @045   ----------------------------------------
 .byte   PATT
  .word Label_014AA636
@  #03 @046   ----------------------------------------
 .byte   TIE ,Bn3 ,v100
 .byte   W96
@  #03 @047   ----------------------------------------
 .byte   W44
 .byte   W03
 .byte   EOT
 .byte   W01
 .byte   N07 ,Cs3
 .byte   W08
 .byte   Dn3
 .byte   W08
 .byte   En3
 .byte   W08
 .byte   Fs3
 .byte   W08
 .byte   Gn3
 .byte   W08
 .byte   An3
 .byte   W08
@  #03 @048   ----------------------------------------
 .byte   PATT
  .word Label_014AA652
@  #03 @049   ----------------------------------------
 .byte   PATT
  .word Label_014AA65A
@  #03 @050   ----------------------------------------
 .byte   TIE ,Bn3 ,v100
 .byte   W96
@  #03 @051   ----------------------------------------
 .byte   W92
 .byte   W03
 .byte   EOT
 .byte   W01
@  #03 @052   ----------------------------------------
 .byte   W96
@  #03 @053   ----------------------------------------
 .byte   W96
@  #03 @054   ----------------------------------------
 .byte   W96
@  #03 @055   ----------------------------------------
 .byte   W96
@  #03 @056   ----------------------------------------
 .byte   W96
@  #03 @057   ----------------------------------------
 .byte   PATT
  .word Label_014AA61A
@  #03 @058   ----------------------------------------
 .byte   PATT
  .word Label_014AA673
@  #03 @059   ----------------------------------------
 .byte   PATT
  .word Label_014AA636
@  #03 @060   ----------------------------------------
 .byte   TIE ,Bn3 ,v100
 .byte   W96
@  #03 @061   ----------------------------------------
 .byte   W44
 .byte   W03
 .byte   EOT
 .byte   W01
 .byte   N07 ,Cs3
 .byte   W08
 .byte   Dn3
 .byte   W08
 .byte   En3
 .byte   W08
 .byte   Fs3
 .byte   W08
 .byte   Gn3
 .byte   W08
 .byte   An3
 .byte   W08
@  #03 @062   ----------------------------------------
 .byte   PATT
  .word Label_014AA652
@  #03 @063   ----------------------------------------
 .byte   PATT
  .word Label_014AA65A
@  #03 @064   ----------------------------------------
 .byte   TIE ,Fs4 ,v100
 .byte   W96
@  #03 @065   ----------------------------------------
 .byte   W92
 .byte   W03
 .byte   EOT
 .byte   W01
@  #03 @066   ----------------------------------------
 .byte   W96
@  #03 @067   ----------------------------------------
 .byte   W96
@  #03 @068   ----------------------------------------
 .byte   W96
@  #03 @069   ----------------------------------------
 .byte   W96
@  #03 @070   ----------------------------------------
 .byte   W96
@  #03 @071   ----------------------------------------
 .byte   PATT
  .word Label_014AA6AC
@  #03 @072   ----------------------------------------
 .byte   GOTO
  .word Label_014AA6CF
@  #03 @073   ----------------------------------------
 .byte   W96
@  #03 @074   ----------------------------------------
 .byte   W96
@  #03 @075   ----------------------------------------
 .byte   W96
@  #03 @076   ----------------------------------------
 .byte   W96
@  #03 @077   ----------------------------------------
 .byte   W96
@  #03 @078   ----------------------------------------
 .byte   W92
 .byte   W03
 .byte   FINE

@**************** Track 4 (Midi-Chn.3) ****************@

song04_004:
@  #04 @000   ----------------------------------------
 .byte   KEYSH , song04_key+0
 .byte   VOICE , 47
 .byte   VOL , 45*song04_mvl/mxv
 .byte   W12
 .byte   N03 ,Bn1 ,v100
 .byte   W04
 .byte   N03
 .byte   W04
 .byte   N03
 .byte   W04
 .byte   N05
 .byte   W96
@  #04 @001   ----------------------------------------
 .byte   W96
@  #04 @002   ----------------------------------------
 .byte   W96
@  #04 @003   ----------------------------------------
 .byte   W72
 .byte   Bn2
 .byte   W24
@  #04 @004   ----------------------------------------
 .byte   Bn1
 .byte   W96
@  #04 @005   ----------------------------------------
 .byte   W96
@  #04 @006   ----------------------------------------
 .byte   W96
@  #04 @007   ----------------------------------------
 .byte   W96
@  #04 @008   ----------------------------------------
 .byte   Gn1
 .byte   W96
@  #04 @009   ----------------------------------------
 .byte   An1
 .byte   W96
@  #04 @010   ----------------------------------------
 .byte   Bn1
 .byte   W96
@  #04 @011   ----------------------------------------
Label_01618A05:
 .byte   W84
 .byte   N03 ,Gn1 ,v100
 .byte   W04
 .byte   N03
 .byte   W04
 .byte   N03
 .byte   W04
 .byte   PEND 
@  #04 @012   ----------------------------------------
Label_01618A0F:
 .byte   N03 ,Gn1 ,v100
 .byte   W84
 .byte   An1
 .byte   W04
 .byte   N03
 .byte   W04
 .byte   N03
 .byte   W04
 .byte   PEND 
@  #04 @013   ----------------------------------------
Label_01618A1A:
 .byte   N03 ,An1 ,v100
 .byte   W84
 .byte   Bn1
 .byte   W04
 .byte   N03
 .byte   W04
 .byte   N03
 .byte   W04
 .byte   PEND 
@  #04 @014   ----------------------------------------
 .byte   N05
 .byte   W96
@  #04 @015   ----------------------------------------
 .byte   W96
@  #04 @016   ----------------------------------------
 .byte   W96
@  #04 @017   ----------------------------------------
 .byte   W72
 .byte   Bn2
 .byte   W24
@  #04 @018   ----------------------------------------
 .byte   W96
@  #04 @019   ----------------------------------------
 .byte   W96
@  #04 @020   ----------------------------------------
 .byte   W96
@  #04 @021   ----------------------------------------
 .byte   W96
@  #04 @022   ----------------------------------------
 .byte   Gn1
 .byte   W96
@  #04 @023   ----------------------------------------
 .byte   An1
 .byte   W96
@  #04 @024   ----------------------------------------
 .byte   Bn1
 .byte   W96
@  #04 @025   ----------------------------------------
 .byte   PATT
  .word Label_01618A05
@  #04 @026   ----------------------------------------
 .byte   PATT
  .word Label_01618A0F
@  #04 @027   ----------------------------------------
 .byte   PATT
  .word Label_01618A1A
@  #04 @028   ----------------------------------------
 .byte   N03 ,Bn1 ,v100
 .byte   W96
@  #04 @029   ----------------------------------------
Label_01618A49:
 .byte   W84
 .byte   N03 ,Bn1 ,v100
 .byte   W04
 .byte   N03
 .byte   W04
 .byte   N03
 .byte   W04
 .byte   PEND 
@  #04 @030   ----------------------------------------
 .byte   N03
 .byte   W96
@  #04 @031   ----------------------------------------
 .byte   PATT
  .word Label_01618A49
@  #04 @032   ----------------------------------------
 .byte   N03 ,Bn1 ,v100
 .byte   W96
@  #04 @033   ----------------------------------------
 .byte   PATT
  .word Label_01618A49
@  #04 @034   ----------------------------------------
 .byte   N03 ,Bn1 ,v100
 .byte   W96
@  #04 @035   ----------------------------------------
 .byte   PATT
  .word Label_01618A49
@  #04 @036   ----------------------------------------
Label_01618A6C:
 .byte   N05 ,Bn1 ,v100
 .byte   W96
@  #04 @037   ----------------------------------------
 .byte   W96
@  #04 @038   ----------------------------------------
 .byte   W96
@  #04 @039   ----------------------------------------
 .byte   W72
 .byte   Bn2
 .byte   W24
@  #04 @040   ----------------------------------------
 .byte   Bn1
 .byte   W96
@  #04 @041   ----------------------------------------
 .byte   W96
@  #04 @042   ----------------------------------------
 .byte   W96
@  #04 @043   ----------------------------------------
 .byte   W96
@  #04 @044   ----------------------------------------
 .byte   Gn1
 .byte   W96
@  #04 @045   ----------------------------------------
 .byte   An1
 .byte   W96
@  #04 @046   ----------------------------------------
 .byte   Bn1
 .byte   W96
@  #04 @047   ----------------------------------------
 .byte   PATT
  .word Label_01618A05
@  #04 @048   ----------------------------------------
 .byte   PATT
  .word Label_01618A0F
@  #04 @049   ----------------------------------------
 .byte   PATT
  .word Label_01618A1A
@  #04 @050   ----------------------------------------
 .byte   N05 ,Bn1 ,v100
 .byte   W96
@  #04 @051   ----------------------------------------
 .byte   W96
@  #04 @052   ----------------------------------------
 .byte   W96
@  #04 @053   ----------------------------------------
 .byte   W72
 .byte   Bn2
 .byte   W24
@  #04 @054   ----------------------------------------
 .byte   W96
@  #04 @055   ----------------------------------------
 .byte   W96
@  #04 @056   ----------------------------------------
 .byte   W96
@  #04 @057   ----------------------------------------
 .byte   W96
@  #04 @058   ----------------------------------------
 .byte   Gn1
 .byte   W96
@  #04 @059   ----------------------------------------
 .byte   An1
 .byte   W96
@  #04 @060   ----------------------------------------
 .byte   Bn1
 .byte   W96
@  #04 @061   ----------------------------------------
 .byte   PATT
  .word Label_01618A05
@  #04 @062   ----------------------------------------
 .byte   PATT
  .word Label_01618A0F
@  #04 @063   ----------------------------------------
 .byte   PATT
  .word Label_01618A1A
@  #04 @064   ----------------------------------------
 .byte   N03 ,Bn1 ,v100
 .byte   W96
@  #04 @065   ----------------------------------------
 .byte   PATT
  .word Label_01618A49
@  #04 @066   ----------------------------------------
 .byte   N03 ,Bn1 ,v100
 .byte   W96
@  #04 @067   ----------------------------------------
 .byte   PATT
  .word Label_01618A49
@  #04 @068   ----------------------------------------
 .byte   N03 ,Bn1 ,v100
 .byte   W96
@  #04 @069   ----------------------------------------
 .byte   PATT
  .word Label_01618A49
@  #04 @070   ----------------------------------------
 .byte   N03 ,Bn1 ,v100
 .byte   W96
@  #04 @071   ----------------------------------------
 .byte   PATT
  .word Label_01618A49
@  #04 @072   ----------------------------------------
 .byte   GOTO
  .word Label_01618A6C
@  #04 @073   ----------------------------------------
 .byte   N05 ,Bn1 ,v100
 .byte   W96
@  #04 @074   ----------------------------------------
 .byte   W96
@  #04 @075   ----------------------------------------
 .byte   W96
@  #04 @076   ----------------------------------------
 .byte   W72
 .byte   Bn2 ,v040
 .byte   W24
@  #04 @077   ----------------------------------------
 .byte   Bn1 ,v036
 .byte   W96
@  #04 @078   ----------------------------------------
 .byte   W92
 .byte   W03
 .byte   FINE

@**************** Track 5 (Midi-Chn.4) ****************@

song04_005:
@  #05 @000   ----------------------------------------
 .byte   KEYSH , song04_key+0
 .byte   VOICE , 61
 .byte   VOL , 27*song04_mvl/mxv
 .byte   W24
Label_014AA777:
 .byte   N11 ,An1 ,v100
 .byte   N11 ,En2
 .byte   W24
 .byte   Bn1
 .byte   N11 ,Fs2
 .byte   W36
 .byte   N17 ,Gn1
 .byte   N17 ,Dn2
 .byte   W24
@  #05 @001   ----------------------------------------
 .byte   An1
 .byte   N17 ,En2
 .byte   W12
 .byte   PEND 
Label_014AA78B:
 .byte   W12
 .byte   N05 ,Bn1 ,v100
 .byte   N05 ,Fs2
 .byte   W12
 .byte   N44 ,Bn1
 .byte   N44 ,Fs2
 .byte   W72
 .byte   PEND 
@  #05 @002   ----------------------------------------
 .byte   PATT
  .word Label_014AA777
@  #05 @003   ----------------------------------------
Label_014AA79D:
 .byte   W12
 .byte   N05 ,Bn1 ,v100
 .byte   N05 ,Fs2
 .byte   W12
 .byte   N17 ,Bn1
 .byte   N17 ,Fs2
 .byte   W24
 .byte   Bn1
 .byte   N17 ,En2
 .byte   W24
 .byte   An1
 .byte   N17 ,Dn2
 .byte   W24
 .byte   PEND 
@  #05 @004   ----------------------------------------
 .byte   PATT
  .word Label_014AA777
@  #05 @005   ----------------------------------------
 .byte   PATT
  .word Label_014AA78B
@  #05 @006   ----------------------------------------
 .byte   PATT
  .word Label_014AA777
@  #05 @007   ----------------------------------------
Label_014AA7C1:
 .byte   W12
 .byte   N05 ,Bn1 ,v100
 .byte   N05 ,Fs2
 .byte   W12
 .byte   N17 ,Bn1
 .byte   N17 ,Fs2
 .byte   W24
 .byte   N44 ,Bn1
 .byte   N44 ,En2
 .byte   W48
 .byte   PEND 
@  #05 @008   ----------------------------------------
 .byte   N92 ,Gn1
 .byte   N92 ,Dn2
 .byte   W96
@  #05 @009   ----------------------------------------
 .byte   An1
 .byte   N92 ,En2
 .byte   W96
@  #05 @010   ----------------------------------------
Label_014AA7DC:
 .byte   TIE ,Bn1 ,v100
 .byte   TIE ,Fs2
 .byte   W96
 .byte   PEND 
@  #05 @011   ----------------------------------------
 .byte   W92
 .byte   W03
 .byte   EOT
 .byte   Bn1 ,v054
 .byte   W01
@  #05 @012   ----------------------------------------
 .byte   N92 ,Gn1
 .byte   N92 ,Dn2
 .byte   W96
@  #05 @013   ----------------------------------------
 .byte   An1
 .byte   N92 ,En2
 .byte   W96
@  #05 @014   ----------------------------------------
 .byte   PATT
  .word Label_014AA777
@  #05 @015   ----------------------------------------
 .byte   PATT
  .word Label_014AA78B
@  #05 @016   ----------------------------------------
 .byte   PATT
  .word Label_014AA777
@  #05 @017   ----------------------------------------
 .byte   PATT
  .word Label_014AA79D
@  #05 @018   ----------------------------------------
 .byte   PATT
  .word Label_014AA777
@  #05 @019   ----------------------------------------
 .byte   PATT
  .word Label_014AA78B
@  #05 @020   ----------------------------------------
 .byte   PATT
  .word Label_014AA777
@  #05 @021   ----------------------------------------
 .byte   PATT
  .word Label_014AA7C1
@  #05 @022   ----------------------------------------
 .byte   N92 ,Gn1 ,v100
 .byte   N92 ,Dn2
 .byte   W96
@  #05 @023   ----------------------------------------
 .byte   An1
 .byte   N92 ,En2
 .byte   W96
@  #05 @024   ----------------------------------------
 .byte   PATT
  .word Label_014AA7DC
@  #05 @025   ----------------------------------------
 .byte   W92
 .byte   W03
 .byte   EOT
 .byte   Bn1 ,v054
 .byte   W01
@  #05 @026   ----------------------------------------
 .byte   N92 ,Gn1 ,v100
 .byte   N92 ,Dn2
 .byte   W96
@  #05 @027   ----------------------------------------
 .byte   An1
 .byte   N92 ,En2
 .byte   W96
@  #05 @028   ----------------------------------------
Label_014AA839:
 .byte   N17 ,Fs1 ,v100
 .byte   N17 ,Bn1
 .byte   W24
 .byte   N03 ,Fs1
 .byte   N03 ,Bn1
 .byte   W08
 .byte   Fs1
 .byte   N03 ,Bn1
 .byte   W08
 .byte   Fs1
 .byte   N03 ,Bn1
 .byte   W08
 .byte   N17 ,Fs1
 .byte   N17 ,Bn1
 .byte   W24
 .byte   N03 ,Fs1
 .byte   N03 ,Bn1
 .byte   W08
 .byte   Fs1
 .byte   N03 ,Bn1
 .byte   W08
 .byte   Fs1
 .byte   N03 ,Bn1
 .byte   W08
 .byte   PEND 
@  #05 @029   ----------------------------------------
Label_014AA85F:
 .byte   N17 ,Fs1 ,v100
 .byte   N17 ,Bn1
 .byte   W24
 .byte   N03 ,Fs1
 .byte   N03 ,Bn1
 .byte   W08
 .byte   Fs1
 .byte   N03 ,Bn1
 .byte   W08
 .byte   Fs1
 .byte   N03 ,Bn1
 .byte   W08
 .byte   N17 ,Fs1
 .byte   N17 ,Bn1
 .byte   W24
 .byte   Fs1
 .byte   N17 ,Bn1
 .byte   W24
 .byte   PEND 
@  #05 @030   ----------------------------------------
 .byte   PATT
  .word Label_014AA839
@  #05 @031   ----------------------------------------
 .byte   PATT
  .word Label_014AA85F
@  #05 @032   ----------------------------------------
 .byte   PATT
  .word Label_014AA839
@  #05 @033   ----------------------------------------
 .byte   PATT
  .word Label_014AA85F
@  #05 @034   ----------------------------------------
 .byte   PATT
  .word Label_014AA839
@  #05 @035   ----------------------------------------
 .byte   PATT
  .word Label_014AA85F
@  #05 @036   ----------------------------------------
Label_014AA89A:
@  #05 @037   ----------------------------------------
 .byte   PATT
  .word Label_014AA777
@  #05 @038   ----------------------------------------
 .byte   PATT
  .word Label_014AA78B
@  #05 @039   ----------------------------------------
 .byte   PATT
  .word Label_014AA777
@  #05 @040   ----------------------------------------
 .byte   PATT
  .word Label_014AA79D
@  #05 @041   ----------------------------------------
 .byte   PATT
  .word Label_014AA777
@  #05 @042   ----------------------------------------
 .byte   PATT
  .word Label_014AA78B
@  #05 @043   ----------------------------------------
 .byte   PATT
  .word Label_014AA777
@  #05 @044   ----------------------------------------
 .byte   PATT
  .word Label_014AA7C1
@  #05 @045   ----------------------------------------
 .byte   N92 ,Gn1 ,v100
 .byte   N92 ,Dn2
 .byte   W96
@  #05 @046   ----------------------------------------
 .byte   An1
 .byte   N92 ,En2
 .byte   W96
@  #05 @047   ----------------------------------------
 .byte   PATT
  .word Label_014AA7DC
@  #05 @048   ----------------------------------------
 .byte   W92
 .byte   W03
 .byte   EOT
 .byte   Bn1 ,v054
 .byte   W01
@  #05 @049   ----------------------------------------
 .byte   N92 ,Gn1 ,v100
 .byte   N92 ,Dn2
 .byte   W96
@  #05 @050   ----------------------------------------
 .byte   An1
 .byte   N92 ,En2
 .byte   W96
@  #05 @051   ----------------------------------------
 .byte   PATT
  .word Label_014AA777
@  #05 @052   ----------------------------------------
 .byte   PATT
  .word Label_014AA78B
@  #05 @053   ----------------------------------------
 .byte   PATT
  .word Label_014AA777
@  #05 @054   ----------------------------------------
 .byte   PATT
  .word Label_014AA79D
@  #05 @055   ----------------------------------------
 .byte   PATT
  .word Label_014AA777
@  #05 @056   ----------------------------------------
 .byte   PATT
  .word Label_014AA78B
@  #05 @057   ----------------------------------------
 .byte   PATT
  .word Label_014AA777
@  #05 @058   ----------------------------------------
 .byte   PATT
  .word Label_014AA7C1
@  #05 @059   ----------------------------------------
 .byte   N92 ,Gn1 ,v100
 .byte   N92 ,Dn2
 .byte   W96
@  #05 @060   ----------------------------------------
 .byte   An1
 .byte   N92 ,En2
 .byte   W96
@  #05 @061   ----------------------------------------
 .byte   PATT
  .word Label_014AA7DC
@  #05 @062   ----------------------------------------
 .byte   W92
 .byte   W03
 .byte   EOT
 .byte   Bn1 ,v054
 .byte   W01
@  #05 @063   ----------------------------------------
 .byte   N92 ,Gn1 ,v100
 .byte   N92 ,Dn2
 .byte   W96
@  #05 @064   ----------------------------------------
 .byte   An1
 .byte   N92 ,En2
 .byte   W96
@  #05 @065   ----------------------------------------
 .byte   PATT
  .word Label_014AA839
@  #05 @066   ----------------------------------------
 .byte   PATT
  .word Label_014AA85F
@  #05 @067   ----------------------------------------
 .byte   PATT
  .word Label_014AA839
@  #05 @068   ----------------------------------------
 .byte   PATT
  .word Label_014AA85F
@  #05 @069   ----------------------------------------
 .byte   PATT
  .word Label_014AA839
@  #05 @070   ----------------------------------------
 .byte   PATT
  .word Label_014AA85F
@  #05 @071   ----------------------------------------
 .byte   PATT
  .word Label_014AA839
@  #05 @072   ----------------------------------------
 .byte   PATT
  .word Label_014AA85F
@  #05 @073   ----------------------------------------
 .byte   GOTO
  .word Label_014AA89A
@  #05 @074   ----------------------------------------
 .byte   N11 ,An1 ,v100
 .byte   N11 ,En2
 .byte   W24
 .byte   Bn1 ,v096
 .byte   N11 ,Fs2
 .byte   W36
 .byte   N17 ,Gn1 ,v092
 .byte   N17 ,Dn2
 .byte   W24
 .byte   An1 ,v088
 .byte   N17 ,En2
 .byte   W12
@  #05 @075   ----------------------------------------
 .byte   W12
 .byte   N05 ,Bn1 ,v084
 .byte   N05 ,Fs2
 .byte   W12
 .byte   N44 ,Bn1 ,v080
 .byte   N44 ,Fs2
 .byte   W72
@  #05 @076   ----------------------------------------
 .byte   N11 ,An1 ,v068
 .byte   N11 ,En2
 .byte   W24
 .byte   Bn1 ,v064
 .byte   N11 ,Fs2
 .byte   W36
 .byte   N17 ,Gn1 ,v056
 .byte   N17 ,Dn2
 .byte   W24
 .byte   An1 ,v052
 .byte   N17 ,En2
 .byte   W12
@  #05 @077   ----------------------------------------
 .byte   W12
 .byte   N05 ,Bn1 ,v048
 .byte   N05 ,Fs2
 .byte   W12
 .byte   N17 ,Bn1
 .byte   N17 ,Fs2
 .byte   W24
 .byte   Bn1 ,v044
 .byte   N17 ,En2
 .byte   W24
 .byte   An1 ,v040
 .byte   N17 ,Dn2
 .byte   W24
@  #05 @078   ----------------------------------------
 .byte   N11 ,An1 ,v036
 .byte   N11 ,En2
 .byte   W24
 .byte   Bn1 ,v032
 .byte   N11 ,Fs2
 .byte   W36
 .byte   N17 ,Gn1 ,v024
 .byte   N17 ,Dn2
 .byte   W24
 .byte   An1 ,v020
 .byte   N17 ,En2
 .byte   W12
@  #05 @079   ----------------------------------------
 .byte   W12
 .byte   N05 ,Bn1 ,v016
 .byte   N05 ,Fs2
 .byte   W12
 .byte   N44 ,Bn1 ,v012
 .byte   N44 ,Fs2
 .byte   W68
 .byte   W03
 .byte   FINE

@**************** Track 6 (Midi-Chn.5) ****************@

song04_006:
@  #06 @000   ----------------------------------------
 .byte   KEYSH , song04_key+0
 .byte   VOICE , 81
 .byte   VOL , 25*song04_mvl/mxv
 .byte   W24
Label_014AA9E3:
 .byte   N11 ,Bn1 ,v100
 .byte   W12
 .byte   N05
 .byte   W06
 .byte   N05
 .byte   W06
 .byte   N05
 .byte   W06
 .byte   N05
 .byte   W06
 .byte   N05
 .byte   W12
 .byte   N05
 .byte   W06
 .byte   N05
 .byte   W06
 .byte   N05
 .byte   W12
@  #06 @001   ----------------------------------------
 .byte   N05
 .byte   W06
 .byte   N05
 .byte   W06
 .byte   N05
 .byte   W06
 .byte   N05
 .byte   W06
 .byte   PEND 
@  #06 @002   ----------------------------------------
 .byte   PATT
  .word Label_014AA9E3
@  #06 @003   ----------------------------------------
 .byte   PATT
  .word Label_014AA9E3
@  #06 @004   ----------------------------------------
 .byte   PATT
  .word Label_014AA9E3
@  #06 @005   ----------------------------------------
 .byte   PATT
  .word Label_014AA9E3
@  #06 @006   ----------------------------------------
 .byte   PATT
  .word Label_014AA9E3
@  #06 @007   ----------------------------------------
 .byte   PATT
  .word Label_014AA9E3
@  #06 @008   ----------------------------------------
 .byte   PATT
  .word Label_014AA9E3
@  #06 @009   ----------------------------------------
Label_014AAA23:
 .byte   N11 ,Fs1 ,v100
 .byte   W12
 .byte   Gn1
 .byte   W12
 .byte   N05 ,Gn2
 .byte   W06
 .byte   N05
 .byte   W06
 .byte   Gn1
 .byte   W12
 .byte   N11 ,Gn2
 .byte   W12
 .byte   N05 ,Gn1
 .byte   W12
 .byte   N17 ,Gn2
 .byte   W24
 .byte   PEND 
@  #06 @010   ----------------------------------------
Label_014AAA3A:
 .byte   N11 ,Gn1 ,v100
 .byte   W12
 .byte   An1
 .byte   W12
 .byte   N05 ,An2
 .byte   W06
 .byte   N05
 .byte   W06
 .byte   An1
 .byte   W12
 .byte   N11 ,An2
 .byte   W12
 .byte   N05 ,An1
 .byte   W12
 .byte   N17
 .byte   W24
 .byte   PEND 
@  #06 @011   ----------------------------------------
Label_014AAA50:
 .byte   N11 ,An1 ,v100
 .byte   W12
 .byte   Bn1
 .byte   W12
 .byte   N05
 .byte   W06
 .byte   N05
 .byte   W06
 .byte   N11 ,Bn2
 .byte   W12
 .byte   Bn1
 .byte   W12
 .byte   N11
 .byte   W12
 .byte   N05 ,Bn2
 .byte   W12
 .byte   N11
 .byte   W12
 .byte   PEND 
@  #06 @012   ----------------------------------------
Label_014AAA67:
 .byte   N11 ,An1 ,v100
 .byte   W12
 .byte   Bn1
 .byte   W12
 .byte   N05 ,Bn2
 .byte   W06
 .byte   N05
 .byte   W06
 .byte   N11 ,Bn1
 .byte   W12
 .byte   N11
 .byte   W12
 .byte   Bn2
 .byte   W12
 .byte   Bn1
 .byte   W12
 .byte   An1
 .byte   W12
 .byte   PEND 
@  #06 @013   ----------------------------------------
 .byte   PATT
  .word Label_014AAA23
@  #06 @014   ----------------------------------------
 .byte   PATT
  .word Label_014AAA3A
@  #06 @015   ----------------------------------------
 .byte   PATT
  .word Label_014AA9E3
@  #06 @016   ----------------------------------------
 .byte   PATT
  .word Label_014AA9E3
@  #06 @017   ----------------------------------------
 .byte   PATT
  .word Label_014AA9E3
@  #06 @018   ----------------------------------------
 .byte   PATT
  .word Label_014AA9E3
@  #06 @019   ----------------------------------------
 .byte   PATT
  .word Label_014AA9E3
@  #06 @020   ----------------------------------------
 .byte   PATT
  .word Label_014AA9E3
@  #06 @021   ----------------------------------------
 .byte   PATT
  .word Label_014AA9E3
@  #06 @022   ----------------------------------------
 .byte   PATT
  .word Label_014AA9E3
@  #06 @023   ----------------------------------------
 .byte   PATT
  .word Label_014AAA23
@  #06 @024   ----------------------------------------
 .byte   PATT
  .word Label_014AAA3A
@  #06 @025   ----------------------------------------
 .byte   PATT
  .word Label_014AAA50
@  #06 @026   ----------------------------------------
 .byte   PATT
  .word Label_014AAA67
@  #06 @027   ----------------------------------------
 .byte   PATT
  .word Label_014AAA23
@  #06 @028   ----------------------------------------
 .byte   PATT
  .word Label_014AAA3A
@  #06 @029   ----------------------------------------
 .byte   PATT
  .word Label_014AA9E3
@  #06 @030   ----------------------------------------
 .byte   PATT
  .word Label_014AA9E3
@  #06 @031   ----------------------------------------
 .byte   PATT
  .word Label_014AA9E3
@  #06 @032   ----------------------------------------
 .byte   PATT
  .word Label_014AA9E3
@  #06 @033   ----------------------------------------
 .byte   PATT
  .word Label_014AA9E3
@  #06 @034   ----------------------------------------
 .byte   PATT
  .word Label_014AA9E3
@  #06 @035   ----------------------------------------
 .byte   PATT
  .word Label_014AA9E3
@  #06 @036   ----------------------------------------
 .byte   PATT
  .word Label_014AA9E3
@  #06 @037   ----------------------------------------
Label_014AAAF6:
@  #06 @038   ----------------------------------------
 .byte   PATT
  .word Label_014AA9E3
@  #06 @039   ----------------------------------------
 .byte   PATT
  .word Label_014AA9E3
@  #06 @040   ----------------------------------------
 .byte   PATT
  .word Label_014AA9E3
@  #06 @041   ----------------------------------------
 .byte   PATT
  .word Label_014AA9E3
@  #06 @042   ----------------------------------------
 .byte   PATT
  .word Label_014AA9E3
@  #06 @043   ----------------------------------------
 .byte   PATT
  .word Label_014AA9E3
@  #06 @044   ----------------------------------------
 .byte   PATT
  .word Label_014AA9E3
@  #06 @045   ----------------------------------------
 .byte   PATT
  .word Label_014AA9E3
@  #06 @046   ----------------------------------------
 .byte   PATT
  .word Label_014AAA23
@  #06 @047   ----------------------------------------
 .byte   PATT
  .word Label_014AAA3A
@  #06 @048   ----------------------------------------
 .byte   PATT
  .word Label_014AAA50
@  #06 @049   ----------------------------------------
 .byte   PATT
  .word Label_014AAA67
@  #06 @050   ----------------------------------------
 .byte   PATT
  .word Label_014AAA23
@  #06 @051   ----------------------------------------
 .byte   PATT
  .word Label_014AAA3A
@  #06 @052   ----------------------------------------
 .byte   PATT
  .word Label_014AA9E3
@  #06 @053   ----------------------------------------
 .byte   PATT
  .word Label_014AA9E3
@  #06 @054   ----------------------------------------
 .byte   PATT
  .word Label_014AA9E3
@  #06 @055   ----------------------------------------
 .byte   PATT
  .word Label_014AA9E3
@  #06 @056   ----------------------------------------
 .byte   PATT
  .word Label_014AA9E3
@  #06 @057   ----------------------------------------
 .byte   PATT
  .word Label_014AA9E3
@  #06 @058   ----------------------------------------
 .byte   PATT
  .word Label_014AA9E3
@  #06 @059   ----------------------------------------
 .byte   PATT
  .word Label_014AA9E3
@  #06 @060   ----------------------------------------
 .byte   PATT
  .word Label_014AAA23
@  #06 @061   ----------------------------------------
 .byte   PATT
  .word Label_014AAA3A
@  #06 @062   ----------------------------------------
 .byte   PATT
  .word Label_014AAA50
@  #06 @063   ----------------------------------------
 .byte   PATT
  .word Label_014AAA67
@  #06 @064   ----------------------------------------
 .byte   PATT
  .word Label_014AAA23
@  #06 @065   ----------------------------------------
 .byte   PATT
  .word Label_014AAA3A
@  #06 @066   ----------------------------------------
 .byte   PATT
  .word Label_014AA9E3
@  #06 @067   ----------------------------------------
 .byte   PATT
  .word Label_014AA9E3
@  #06 @068   ----------------------------------------
 .byte   PATT
  .word Label_014AA9E3
@  #06 @069   ----------------------------------------
 .byte   PATT
  .word Label_014AA9E3
@  #06 @070   ----------------------------------------
 .byte   PATT
  .word Label_014AA9E3
@  #06 @071   ----------------------------------------
 .byte   PATT
  .word Label_014AA9E3
@  #06 @072   ----------------------------------------
 .byte   PATT
  .word Label_014AA9E3
@  #06 @073   ----------------------------------------
 .byte   PATT
  .word Label_014AA9E3
@  #06 @074   ----------------------------------------
 .byte   GOTO
  .word Label_014AAAF6
@  #06 @075   ----------------------------------------
 .byte   N11 ,Bn1 ,v100
 .byte   W12
 .byte   N05
 .byte   W06
 .byte   N05
 .byte   W06
 .byte   Bn1 ,v096
 .byte   W06
 .byte   N05
 .byte   W06
 .byte   N05
 .byte   W12
 .byte   Bn1 ,v092
 .byte   W06
 .byte   N05
 .byte   W06
 .byte   N05
 .byte   W12
 .byte   Bn1 ,v088
 .byte   W06
 .byte   N05
 .byte   W06
 .byte   N05
 .byte   W06
 .byte   N05
 .byte   W06
@  #06 @076   ----------------------------------------
 .byte   N11 ,Bn1 ,v084
 .byte   W12
 .byte   N05
 .byte   W06
 .byte   N05
 .byte   W06
 .byte   Bn1 ,v080
 .byte   W06
 .byte   N05
 .byte   W06
 .byte   N05
 .byte   W12
 .byte   Bn1 ,v076
 .byte   W06
 .byte   N05
 .byte   W06
 .byte   N05
 .byte   W12
 .byte   Bn1 ,v072
 .byte   W06
 .byte   N05
 .byte   W06
 .byte   N05
 .byte   W06
 .byte   Bn1 ,v068
 .byte   W06
@  #06 @077   ----------------------------------------
 .byte   N11
 .byte   W12
 .byte   N05
 .byte   W06
 .byte   Bn1 ,v064
 .byte   W06
 .byte   N05
 .byte   W06
 .byte   N05
 .byte   W06
 .byte   N05
 .byte   W12
 .byte   Bn1 ,v060
 .byte   W06
 .byte   N05
 .byte   W06
 .byte   Bn1 ,v056
 .byte   W12
 .byte   N05
 .byte   W06
 .byte   N05
 .byte   W06
 .byte   Bn1 ,v052
 .byte   W06
 .byte   N05
 .byte   W06
@  #06 @078   ----------------------------------------
 .byte   N11
 .byte   W12
 .byte   N05 ,Bn1 ,v048
 .byte   W06
 .byte   N05
 .byte   W06
 .byte   N05
 .byte   W06
 .byte   N05
 .byte   W06
 .byte   Bn1 ,v044
 .byte   W12
 .byte   N05
 .byte   W06
 .byte   N05
 .byte   W06
 .byte   Bn1 ,v040
 .byte   W12
 .byte   N05
 .byte   W06
 .byte   Bn1 ,v036
 .byte   W06
 .byte   N05
 .byte   W06
 .byte   N05
 .byte   W06
@  #06 @079   ----------------------------------------
 .byte   N11
 .byte   W12
 .byte   N05 ,Bn1 ,v032
 .byte   W06
 .byte   N05
 .byte   W06
 .byte   N05
 .byte   W06
 .byte   Bn1 ,v028
 .byte   W06
 .byte   N05
 .byte   W12
 .byte   N05
 .byte   W06
 .byte   Bn1 ,v024
 .byte   W06
 .byte   N05
 .byte   W12
 .byte   N05
 .byte   W06
 .byte   Bn1 ,v020
 .byte   W06
 .byte   N05
 .byte   W06
 .byte   N05
 .byte   W06
@  #06 @080   ----------------------------------------
 .byte   N11 ,Bn1 ,v016
 .byte   W12
 .byte   N05
 .byte   W06
 .byte   N05
 .byte   W06
 .byte   Bn1 ,v012
 .byte   W06
 .byte   N05
 .byte   W06
 .byte   N05
 .byte   W12
 .byte   Bn1 ,v008
 .byte   W06
 .byte   N05
 .byte   W06
 .byte   N05
 .byte   W12
 .byte   Bn1 ,v004
 .byte   W06
 .byte   N05
 .byte   W06
 .byte   N05
 .byte   W06
 .byte   N05
 .byte   W05
 .byte   FINE

@**************** Track 7 (Midi-Chn.6) ****************@

song04_007:
@  #07 @000   ----------------------------------------
 .byte   KEYSH , song04_key+0
 .byte   VOICE , 60
 .byte   VOL , 25*song04_mvl/mxv
 .byte   W24
Label_014AAC83:
 .byte   N11 ,An2 ,v100
 .byte   N11 ,En3
 .byte   W24
 .byte   Bn2
 .byte   N11 ,Fs3
 .byte   W36
 .byte   N17 ,Gn2
 .byte   N17 ,Dn3
 .byte   W24
@  #07 @001   ----------------------------------------
 .byte   An2
 .byte   N17 ,En3
 .byte   W12
 .byte   PEND 
Label_014AAC97:
 .byte   W12
 .byte   N05 ,Bn2 ,v100
 .byte   N05 ,Fs3
 .byte   W12
 .byte   N44 ,Bn2
 .byte   N44 ,Fs3
 .byte   W72
 .byte   PEND 
@  #07 @002   ----------------------------------------
 .byte   PATT
  .word Label_014AAC83
@  #07 @003   ----------------------------------------
Label_014AACA9:
 .byte   W12
 .byte   N05 ,Bn2 ,v100
 .byte   N05 ,Fs3
 .byte   W12
 .byte   N17 ,Bn2
 .byte   N17 ,Fs3
 .byte   W24
 .byte   Bn2
 .byte   N17 ,En3
 .byte   W24
 .byte   An2
 .byte   N17 ,Dn3
 .byte   W24
 .byte   PEND 
@  #07 @004   ----------------------------------------
 .byte   PATT
  .word Label_014AAC83
@  #07 @005   ----------------------------------------
 .byte   PATT
  .word Label_014AAC97
@  #07 @006   ----------------------------------------
 .byte   PATT
  .word Label_014AAC83
@  #07 @007   ----------------------------------------
Label_014AACCD:
 .byte   W12
 .byte   N05 ,Bn2 ,v100
 .byte   N05 ,Fs3
 .byte   W12
 .byte   N17 ,Bn2
 .byte   N17 ,Fs3
 .byte   W24
 .byte   N44 ,Bn2
 .byte   N44 ,En3
 .byte   W48
 .byte   PEND 
@  #07 @008   ----------------------------------------
 .byte   N92 ,Gn2
 .byte   N92 ,Dn3
 .byte   W96
@  #07 @009   ----------------------------------------
 .byte   An2
 .byte   N92 ,En3
 .byte   W96
@  #07 @010   ----------------------------------------
Label_014AACE8:
 .byte   TIE ,Bn2 ,v100
 .byte   TIE ,Fs3
 .byte   W96
 .byte   PEND 
@  #07 @011   ----------------------------------------
 .byte   W92
 .byte   W03
 .byte   EOT
 .byte   Bn2 ,v066
 .byte   W01
@  #07 @012   ----------------------------------------
 .byte   N92 ,Gn2
 .byte   N92 ,Dn3
 .byte   W96
@  #07 @013   ----------------------------------------
 .byte   An2
 .byte   N92 ,En3
 .byte   W96
@  #07 @014   ----------------------------------------
 .byte   PATT
  .word Label_014AAC83
@  #07 @015   ----------------------------------------
 .byte   PATT
  .word Label_014AAC97
@  #07 @016   ----------------------------------------
 .byte   PATT
  .word Label_014AAC83
@  #07 @017   ----------------------------------------
 .byte   PATT
  .word Label_014AACA9
@  #07 @018   ----------------------------------------
 .byte   PATT
  .word Label_014AAC83
@  #07 @019   ----------------------------------------
 .byte   PATT
  .word Label_014AAC97
@  #07 @020   ----------------------------------------
 .byte   PATT
  .word Label_014AAC83
@  #07 @021   ----------------------------------------
 .byte   PATT
  .word Label_014AACCD
@  #07 @022   ----------------------------------------
 .byte   N92 ,Gn2 ,v100
 .byte   N92 ,Dn3
 .byte   W96
@  #07 @023   ----------------------------------------
 .byte   An2
 .byte   N92 ,En3
 .byte   W96
@  #07 @024   ----------------------------------------
 .byte   PATT
  .word Label_014AACE8
@  #07 @025   ----------------------------------------
 .byte   W92
 .byte   W03
 .byte   EOT
 .byte   Bn2 ,v066
 .byte   W01
@  #07 @026   ----------------------------------------
 .byte   N92 ,Gn2 ,v100
 .byte   N92 ,Dn3
 .byte   W96
@  #07 @027   ----------------------------------------
 .byte   An2
 .byte   N92 ,En3
 .byte   W96
@  #07 @028   ----------------------------------------
Label_014AAD45:
 .byte   N17 ,Fs2 ,v100
 .byte   N17 ,Bn2
 .byte   W24
 .byte   N03 ,Fs2
 .byte   N03 ,Bn2
 .byte   W08
 .byte   Fs2
 .byte   N03 ,Bn2
 .byte   W08
 .byte   Fs2
 .byte   N03 ,Bn2
 .byte   W08
 .byte   N17 ,Fs2
 .byte   N17 ,Bn2
 .byte   W24
 .byte   N03 ,Fs2
 .byte   N03 ,Bn2
 .byte   W08
 .byte   Fs2
 .byte   N03 ,Bn2
 .byte   W08
 .byte   Fs2
 .byte   N03 ,Bn2
 .byte   W08
 .byte   PEND 
@  #07 @029   ----------------------------------------
Label_014AAD6B:
 .byte   N17 ,Fs2 ,v100
 .byte   N17 ,Bn2
 .byte   W24
 .byte   N03 ,Fs2
 .byte   N03 ,Bn2
 .byte   W08
 .byte   Fs2
 .byte   N03 ,Bn2
 .byte   W08
 .byte   Fs2
 .byte   N03 ,Bn2
 .byte   W08
 .byte   N17 ,Fs2
 .byte   N17 ,Bn2
 .byte   W24
 .byte   Fs2
 .byte   N17 ,Bn2
 .byte   W24
 .byte   PEND 
@  #07 @030   ----------------------------------------
 .byte   PATT
  .word Label_014AAD45
@  #07 @031   ----------------------------------------
 .byte   PATT
  .word Label_014AAD6B
@  #07 @032   ----------------------------------------
 .byte   PATT
  .word Label_014AAD45
@  #07 @033   ----------------------------------------
 .byte   PATT
  .word Label_014AAD6B
@  #07 @034   ----------------------------------------
 .byte   PATT
  .word Label_014AAD45
@  #07 @035   ----------------------------------------
 .byte   PATT
  .word Label_014AAD6B
@  #07 @036   ----------------------------------------
Label_014AADA6:
@  #07 @037   ----------------------------------------
 .byte   PATT
  .word Label_014AAC83
@  #07 @038   ----------------------------------------
 .byte   PATT
  .word Label_014AAC97
@  #07 @039   ----------------------------------------
 .byte   PATT
  .word Label_014AAC83
@  #07 @040   ----------------------------------------
 .byte   PATT
  .word Label_014AACA9
@  #07 @041   ----------------------------------------
 .byte   PATT
  .word Label_014AAC83
@  #07 @042   ----------------------------------------
 .byte   PATT
  .word Label_014AAC97
@  #07 @043   ----------------------------------------
 .byte   PATT
  .word Label_014AAC83
@  #07 @044   ----------------------------------------
 .byte   PATT
  .word Label_014AACCD
@  #07 @045   ----------------------------------------
 .byte   N92 ,Gn2 ,v100
 .byte   N92 ,Dn3
 .byte   W96
@  #07 @046   ----------------------------------------
 .byte   An2
 .byte   N92 ,En3
 .byte   W96
@  #07 @047   ----------------------------------------
 .byte   PATT
  .word Label_014AACE8
@  #07 @048   ----------------------------------------
 .byte   W92
 .byte   W03
 .byte   EOT
 .byte   Bn2 ,v066
 .byte   W01
@  #07 @049   ----------------------------------------
 .byte   N92 ,Gn2 ,v100
 .byte   N92 ,Dn3
 .byte   W96
@  #07 @050   ----------------------------------------
 .byte   An2
 .byte   N92 ,En3
 .byte   W96
@  #07 @051   ----------------------------------------
 .byte   PATT
  .word Label_014AAC83
@  #07 @052   ----------------------------------------
 .byte   PATT
  .word Label_014AAC97
@  #07 @053   ----------------------------------------
 .byte   PATT
  .word Label_014AAC83
@  #07 @054   ----------------------------------------
 .byte   PATT
  .word Label_014AACA9
@  #07 @055   ----------------------------------------
 .byte   PATT
  .word Label_014AAC83
@  #07 @056   ----------------------------------------
 .byte   PATT
  .word Label_014AAC97
@  #07 @057   ----------------------------------------
 .byte   PATT
  .word Label_014AAC83
@  #07 @058   ----------------------------------------
 .byte   PATT
  .word Label_014AACCD
@  #07 @059   ----------------------------------------
 .byte   N92 ,Gn2 ,v100
 .byte   N92 ,Dn3
 .byte   W96
@  #07 @060   ----------------------------------------
 .byte   An2
 .byte   N92 ,En3
 .byte   W96
@  #07 @061   ----------------------------------------
 .byte   PATT
  .word Label_014AACE8
@  #07 @062   ----------------------------------------
 .byte   W92
 .byte   W03
 .byte   EOT
 .byte   Bn2 ,v066
 .byte   W01
@  #07 @063   ----------------------------------------
 .byte   N92 ,Gn2 ,v100
 .byte   N92 ,Dn3
 .byte   W96
@  #07 @064   ----------------------------------------
 .byte   An2
 .byte   N92 ,En3
 .byte   W96
@  #07 @065   ----------------------------------------
 .byte   PATT
  .word Label_014AAD45
@  #07 @066   ----------------------------------------
 .byte   PATT
  .word Label_014AAD6B
@  #07 @067   ----------------------------------------
 .byte   PATT
  .word Label_014AAD45
@  #07 @068   ----------------------------------------
 .byte   PATT
  .word Label_014AAD6B
@  #07 @069   ----------------------------------------
 .byte   PATT
  .word Label_014AAD45
@  #07 @070   ----------------------------------------
 .byte   PATT
  .word Label_014AAD6B
@  #07 @071   ----------------------------------------
 .byte   PATT
  .word Label_014AAD45
@  #07 @072   ----------------------------------------
 .byte   PATT
  .word Label_014AAD6B
@  #07 @073   ----------------------------------------
 .byte   GOTO
  .word Label_014AADA6
@  #07 @074   ----------------------------------------
 .byte   N11 ,An2 ,v100
 .byte   N11 ,En3
 .byte   W24
 .byte   Bn2 ,v096
 .byte   N11 ,Fs3
 .byte   W36
 .byte   N17 ,Gn2 ,v092
 .byte   N17 ,Dn3
 .byte   W24
 .byte   An2 ,v088
 .byte   N17 ,En3
 .byte   W12
@  #07 @075   ----------------------------------------
 .byte   W12
 .byte   N05 ,Bn2 ,v084
 .byte   N05 ,Fs3
 .byte   W12
 .byte   N44 ,Bn2 ,v080
 .byte   N44 ,Fs3
 .byte   W72
@  #07 @076   ----------------------------------------
 .byte   N11 ,An2 ,v068
 .byte   N11 ,En3
 .byte   W24
 .byte   Bn2 ,v064
 .byte   N11 ,Fs3
 .byte   W36
 .byte   N17 ,Gn2 ,v056
 .byte   N17 ,Dn3
 .byte   W24
 .byte   An2 ,v052
 .byte   N17 ,En3
 .byte   W12
@  #07 @077   ----------------------------------------
 .byte   W12
 .byte   N05 ,Bn2 ,v048
 .byte   N05 ,Fs3
 .byte   W12
 .byte   N17 ,Bn2
 .byte   N17 ,Fs3
 .byte   W24
 .byte   Bn2 ,v044
 .byte   N17 ,En3
 .byte   W24
 .byte   An2 ,v040
 .byte   N17 ,Dn3
 .byte   W24
@  #07 @078   ----------------------------------------
 .byte   N11 ,An2 ,v036
 .byte   N11 ,En3
 .byte   W24
 .byte   Bn2 ,v032
 .byte   N11 ,Fs3
 .byte   W36
 .byte   N17 ,Gn2 ,v024
 .byte   N17 ,Dn3
 .byte   W24
 .byte   An2 ,v020
 .byte   N17 ,En3
 .byte   W12
@  #07 @079   ----------------------------------------
 .byte   W12
 .byte   N05 ,Bn2 ,v016
 .byte   N05 ,Fs3
 .byte   W12
 .byte   N44 ,Bn2 ,v012
 .byte   N44 ,Fs3
 .byte   W68
 .byte   W03
 .byte   FINE

@**************** Track 8 (Midi-Chn.7) ****************@

song04_008:
@  #08 @000   ----------------------------------------
 .byte   KEYSH , song04_key+0
 .byte   VOICE , 124
 .byte   VOL , 28*song04_mvl/mxv
 .byte   W24
Label_014AAEEF:
 .byte   N23 ,Cn1 ,v100
 .byte   N05 ,En1
 .byte   W12
 .byte   N05
 .byte   W06
 .byte   N05
 .byte   W06
 .byte   N23 ,Cn1
 .byte   N05 ,En1
 .byte   W12
 .byte   N05
 .byte   W06
 .byte   N05
 .byte   W06
 .byte   N23 ,Cn1
 .byte   N05 ,En1
 .byte   W12
 .byte   N05
 .byte   W12
@  #08 @001   ----------------------------------------
 .byte   N23 ,Cn1
 .byte   W12
 .byte   N05 ,En1
 .byte   W06
 .byte   N05
 .byte   W06
 .byte   PEND 
Label_014AAF12:
 .byte   N23 ,Cn1 ,v100
 .byte   N05 ,En1
 .byte   W12
 .byte   N05
 .byte   W06
 .byte   N05
 .byte   W06
 .byte   N23 ,Cn1
 .byte   N05 ,En1
 .byte   W12
 .byte   N05
 .byte   W12
 .byte   N23 ,Cn1
 .byte   N05 ,En1
 .byte   W24
@  #08 @002   ----------------------------------------
 .byte   N23 ,Cn1
 .byte   W12
 .byte   N05 ,En1
 .byte   W06
 .byte   N05
 .byte   W06
 .byte   PEND 
@  #08 @003   ----------------------------------------
 .byte   PATT
  .word Label_014AAEEF
@  #08 @004   ----------------------------------------
 .byte   PATT
  .word Label_014AAF12
@  #08 @005   ----------------------------------------
 .byte   PATT
  .word Label_014AAEEF
@  #08 @006   ----------------------------------------
 .byte   PATT
  .word Label_014AAF12
@  #08 @007   ----------------------------------------
 .byte   PATT
  .word Label_014AAEEF
@  #08 @008   ----------------------------------------
 .byte   PATT
  .word Label_014AAF12
@  #08 @009   ----------------------------------------
 .byte   PATT
  .word Label_014AAEEF
@  #08 @010   ----------------------------------------
 .byte   PATT
  .word Label_014AAF12
@  #08 @011   ----------------------------------------
 .byte   PATT
  .word Label_014AAEEF
@  #08 @012   ----------------------------------------
 .byte   PATT
  .word Label_014AAF12
@  #08 @013   ----------------------------------------
 .byte   PATT
  .word Label_014AAEEF
@  #08 @014   ----------------------------------------
 .byte   PATT
  .word Label_014AAF12
@  #08 @015   ----------------------------------------
 .byte   PATT
  .word Label_014AAEEF
@  #08 @016   ----------------------------------------
 .byte   PATT
  .word Label_014AAF12
@  #08 @017   ----------------------------------------
 .byte   PATT
  .word Label_014AAEEF
@  #08 @018   ----------------------------------------
 .byte   PATT
  .word Label_014AAF12
@  #08 @019   ----------------------------------------
 .byte   PATT
  .word Label_014AAEEF
@  #08 @020   ----------------------------------------
 .byte   PATT
  .word Label_014AAF12
@  #08 @021   ----------------------------------------
 .byte   PATT
  .word Label_014AAEEF
@  #08 @022   ----------------------------------------
 .byte   PATT
  .word Label_014AAF12
@  #08 @023   ----------------------------------------
 .byte   PATT
  .word Label_014AAEEF
@  #08 @024   ----------------------------------------
 .byte   PATT
  .word Label_014AAF12
@  #08 @025   ----------------------------------------
 .byte   PATT
  .word Label_014AAEEF
@  #08 @026   ----------------------------------------
 .byte   PATT
  .word Label_014AAF12
@  #08 @027   ----------------------------------------
 .byte   PATT
  .word Label_014AAEEF
@  #08 @028   ----------------------------------------
 .byte   PATT
  .word Label_014AAF12
@  #08 @029   ----------------------------------------
 .byte   PATT
  .word Label_014AAEEF
@  #08 @030   ----------------------------------------
 .byte   PATT
  .word Label_014AAF12
@  #08 @031   ----------------------------------------
 .byte   PATT
  .word Label_014AAEEF
@  #08 @032   ----------------------------------------
 .byte   PATT
  .word Label_014AAF12
@  #08 @033   ----------------------------------------
 .byte   PATT
  .word Label_014AAEEF
@  #08 @034   ----------------------------------------
 .byte   PATT
  .word Label_014AAF12
@  #08 @035   ----------------------------------------
 .byte   PATT
  .word Label_014AAEEF
@  #08 @036   ----------------------------------------
 .byte   PATT
  .word Label_014AAF12
@  #08 @037   ----------------------------------------
Label_014AAFDB:
@  #08 @038   ----------------------------------------
 .byte   PATT
  .word Label_014AAEEF
@  #08 @039   ----------------------------------------
 .byte   PATT
  .word Label_014AAF12
@  #08 @040   ----------------------------------------
 .byte   PATT
  .word Label_014AAEEF
@  #08 @041   ----------------------------------------
 .byte   PATT
  .word Label_014AAF12
@  #08 @042   ----------------------------------------
 .byte   PATT
  .word Label_014AAEEF
@  #08 @043   ----------------------------------------
 .byte   PATT
  .word Label_014AAF12
@  #08 @044   ----------------------------------------
 .byte   PATT
  .word Label_014AAEEF
@  #08 @045   ----------------------------------------
 .byte   PATT
  .word Label_014AAF12
@  #08 @046   ----------------------------------------
 .byte   PATT
  .word Label_014AAEEF
@  #08 @047   ----------------------------------------
 .byte   PATT
  .word Label_014AAF12
@  #08 @048   ----------------------------------------
 .byte   PATT
  .word Label_014AAEEF
@  #08 @049   ----------------------------------------
 .byte   PATT
  .word Label_014AAF12
@  #08 @050   ----------------------------------------
 .byte   PATT
  .word Label_014AAEEF
@  #08 @051   ----------------------------------------
 .byte   PATT
  .word Label_014AAF12
@  #08 @052   ----------------------------------------
 .byte   PATT
  .word Label_014AAEEF
@  #08 @053   ----------------------------------------
 .byte   PATT
  .word Label_014AAF12
@  #08 @054   ----------------------------------------
 .byte   PATT
  .word Label_014AAEEF
@  #08 @055   ----------------------------------------
 .byte   PATT
  .word Label_014AAF12
@  #08 @056   ----------------------------------------
 .byte   PATT
  .word Label_014AAEEF
@  #08 @057   ----------------------------------------
 .byte   PATT
  .word Label_014AAF12
@  #08 @058   ----------------------------------------
 .byte   PATT
  .word Label_014AAEEF
@  #08 @059   ----------------------------------------
 .byte   PATT
  .word Label_014AAF12
@  #08 @060   ----------------------------------------
 .byte   PATT
  .word Label_014AAEEF
@  #08 @061   ----------------------------------------
 .byte   PATT
  .word Label_014AAF12
@  #08 @062   ----------------------------------------
 .byte   PATT
  .word Label_014AAEEF
@  #08 @063   ----------------------------------------
 .byte   PATT
  .word Label_014AAF12
@  #08 @064   ----------------------------------------
 .byte   PATT
  .word Label_014AAEEF
@  #08 @065   ----------------------------------------
 .byte   PATT
  .word Label_014AAF12
@  #08 @066   ----------------------------------------
 .byte   PATT
  .word Label_014AAEEF
@  #08 @067   ----------------------------------------
 .byte   PATT
  .word Label_014AAF12
@  #08 @068   ----------------------------------------
 .byte   PATT
  .word Label_014AAEEF
@  #08 @069   ----------------------------------------
 .byte   PATT
  .word Label_014AAF12
@  #08 @070   ----------------------------------------
 .byte   PATT
  .word Label_014AAEEF
@  #08 @071   ----------------------------------------
 .byte   PATT
  .word Label_014AAF12
@  #08 @072   ----------------------------------------
 .byte   PATT
  .word Label_014AAEEF
@  #08 @073   ----------------------------------------
 .byte   PATT
  .word Label_014AAF12
@  #08 @074   ----------------------------------------
 .byte   GOTO
  .word Label_014AAFDB
@  #08 @075   ----------------------------------------
 .byte   N23 ,Cn1 ,v100
 .byte   N05 ,En1
 .byte   W12
 .byte   N05
 .byte   W06
 .byte   N05
 .byte   W06
 .byte   N23 ,Cn1 ,v096
 .byte   N05 ,En1
 .byte   W12
 .byte   N05
 .byte   W06
 .byte   N05
 .byte   W06
 .byte   N23 ,Cn1 ,v092
 .byte   N05 ,En1
 .byte   W12
 .byte   N05
 .byte   W12
 .byte   N23 ,Cn1 ,v088
 .byte   W12
 .byte   N05 ,En1
 .byte   W06
 .byte   N05
 .byte   W06
@  #08 @076   ----------------------------------------
 .byte   N23 ,Cn1 ,v084
 .byte   N05 ,En1
 .byte   W12
 .byte   N05
 .byte   W06
 .byte   N05
 .byte   W06
 .byte   N23 ,Cn1 ,v080
 .byte   N05 ,En1
 .byte   W12
 .byte   N05
 .byte   W12
 .byte   N23 ,Cn1 ,v076
 .byte   N05 ,En1
 .byte   W24
 .byte   N23 ,Cn1 ,v072
 .byte   W12
 .byte   N05 ,En1
 .byte   W06
 .byte   En1 ,v068
 .byte   W06
@  #08 @077   ----------------------------------------
 .byte   N23 ,Cn1
 .byte   N05 ,En1
 .byte   W12
 .byte   N05
 .byte   W06
 .byte   En1 ,v064
 .byte   W06
 .byte   N23 ,Cn1
 .byte   N05 ,En1
 .byte   W12
 .byte   N05
 .byte   W06
 .byte   En1 ,v060
 .byte   W06
 .byte   N23 ,Cn1
 .byte   N05 ,En1
 .byte   W12
 .byte   En1 ,v056
 .byte   W12
 .byte   N23 ,Cn1
 .byte   W12
 .byte   N05 ,En1 ,v052
 .byte   W06
 .byte   N05
 .byte   W06
@  #08 @078   ----------------------------------------
 .byte   N23 ,Cn1
 .byte   N05 ,En1
 .byte   W12
 .byte   En1 ,v048
 .byte   W06
 .byte   N05
 .byte   W06
 .byte   N23 ,Cn1
 .byte   N05 ,En1
 .byte   W12
 .byte   En1 ,v044
 .byte   W12
 .byte   N23 ,Cn1
 .byte   N05 ,En1
 .byte   W24
 .byte   N23 ,Cn1 ,v040
 .byte   W12
 .byte   N05 ,En1 ,v036
 .byte   W06
 .byte   N05
 .byte   W06
@  #08 @079   ----------------------------------------
 .byte   N23 ,Cn1
 .byte   N05 ,En1
 .byte   W12
 .byte   En1 ,v032
 .byte   W06
 .byte   N05
 .byte   W06
 .byte   N23 ,Cn1
 .byte   N05 ,En1
 .byte   W12
 .byte   En1 ,v028
 .byte   W06
 .byte   N05
 .byte   W06
 .byte   N23 ,Cn1
 .byte   N05 ,En1
 .byte   W12
 .byte   En1 ,v024
 .byte   W12
 .byte   N23 ,Cn1
 .byte   W12
 .byte   N05 ,En1 ,v020
 .byte   W06
 .byte   N05
 .byte   W06
@  #08 @080   ----------------------------------------
 .byte   N23 ,Cn1 ,v016
 .byte   N05 ,En1
 .byte   W12
 .byte   N05
 .byte   W06
 .byte   N05
 .byte   W06
 .byte   N23 ,Cn1 ,v012
 .byte   N05 ,En1
 .byte   W12
 .byte   N05
 .byte   W12
 .byte   N23 ,Cn1 ,v008
 .byte   N05 ,En1
 .byte   W24
 .byte   N23 ,Cn1 ,v004
 .byte   W12
 .byte   N05 ,En1
 .byte   W06
 .byte   N05
 .byte   W05
 .byte   FINE

@******************************************************@
	.align	2

song04:
	.byte	8	@ NumTrks
	.byte	0	@ NumBlks
	.byte	song04_pri	@ Priority
	.byte	song04_rev	@ Reverb.
    
	.word	song04_grp
    
	.word	song04_001
	.word	song04_002
	.word	song04_003
	.word	song04_004
	.word	song04_005
	.word	song04_006
	.word	song04_007
	.word	song04_008

	.end
