	.include "MPlayDef.s"

	.equ	AWoman_grp, voicegroup000
	.equ	AWoman_pri, 0
	.equ	AWoman_rev, 0
	.equ	AWoman_mvl, 127
	.equ	AWoman_key, 0
	.equ	AWoman_tbs, 1
	.equ	AWoman_exg, 0
	.equ	AWoman_cmp, 1

	.section .rodata
	.global	AWoman
	.align	2


@**************** Track 1 (Midi-Chn.0) ****************@

AWoman_001:
@  #01 @000   ----------------------------------------
 .byte   KEYSH , AWoman_key+0
Label_0110A606:
 .byte   TEMPO , 70*AWoman_tbs/2
 .byte   VOICE , 1
 .byte   VOL , 27*AWoman_mvl/mxv
 .byte   PAN , c_v+0
 .byte   N32 ,En2 ,v080
 .byte   N32 ,Gn2
 .byte   N32 ,Bn2
 .byte   W36
 .byte   N11 ,En2
 .byte   N11 ,Gn2
 .byte   N11 ,Bn2
 .byte   N11 ,Dn3
 .byte   W12
 .byte   N44 ,Ds2
 .byte   N44 ,Gs2
 .byte   N44 ,Bn2
 .byte   N44 ,Ds3
 .byte   W48
@  #01 @001   ----------------------------------------
Label_0110A628:
 .byte   N32 ,En2 ,v080
 .byte   N32 ,Gn2
 .byte   N32 ,Bn2
 .byte   W36
 .byte   N11 ,En2
 .byte   N11 ,Gn2
 .byte   N11 ,Bn2
 .byte   N11 ,Dn3
 .byte   W12
 .byte   N44 ,Dn2
 .byte   N44 ,Fn2
 .byte   N44 ,An2
 .byte   N44 ,Cn3
 .byte   W48
 .byte   PEND 
@  #01 @002   ----------------------------------------
Label_0110A643:
 .byte   N32 ,En2 ,v080
 .byte   N32 ,Gn2
 .byte   N32 ,Bn2
 .byte   W36
 .byte   N11 ,En2
 .byte   N11 ,Gn2
 .byte   N11 ,Bn2
 .byte   N11 ,Dn3
 .byte   W12
 .byte   N44 ,Ds2
 .byte   N44 ,Gs2
 .byte   N44 ,Bn2
 .byte   N44 ,Ds3
 .byte   W48
 .byte   PEND 
@  #01 @003   ----------------------------------------
 .byte   PATT
  .word Label_0110A628
@  #01 @004   ----------------------------------------
 .byte   PATT
  .word Label_0110A643
@  #01 @005   ----------------------------------------
 .byte   PATT
  .word Label_0110A628
@  #01 @006   ----------------------------------------
 .byte   PATT
  .word Label_0110A643
@  #01 @007   ----------------------------------------
 .byte   PATT
  .word Label_0110A628
@  #01 @008   ----------------------------------------
 .byte   PATT
  .word Label_0110A643
@  #01 @009   ----------------------------------------
 .byte   PATT
  .word Label_0110A628
@  #01 @010   ----------------------------------------
 .byte   PATT
  .word Label_0110A643
@  #01 @011   ----------------------------------------
 .byte   PATT
  .word Label_0110A628
@  #01 @012   ----------------------------------------
Label_0110A68B:
 .byte   N32 ,Fn2 ,v080
 .byte   N32 ,An2
 .byte   N32 ,Cn3
 .byte   N32 ,En3
 .byte   W36
 .byte   N11 ,Fn2
 .byte   N11 ,An2
 .byte   N11 ,Cn3
 .byte   N11 ,En3
 .byte   W12
 .byte   N44 ,En2
 .byte   N44 ,Gn2
 .byte   N44 ,Bn2
 .byte   N44 ,Dn3
 .byte   W48
 .byte   PEND 
@  #01 @013   ----------------------------------------
Label_0110A6A8:
 .byte   N32 ,En2 ,v080
 .byte   N32 ,An2
 .byte   N32 ,Bn2
 .byte   W36
 .byte   N11 ,En2
 .byte   N11 ,An2
 .byte   N11 ,Bn2
 .byte   W12
 .byte   N44 ,En2
 .byte   N44 ,An2
 .byte   N44 ,Cs3
 .byte   W48
 .byte   PEND 
@  #01 @014   ----------------------------------------
 .byte   PATT
  .word Label_0110A643
@  #01 @015   ----------------------------------------
 .byte   PATT
  .word Label_0110A628
@  #01 @016   ----------------------------------------
 .byte   PATT
  .word Label_0110A643
@  #01 @017   ----------------------------------------
 .byte   PATT
  .word Label_0110A628
@  #01 @018   ----------------------------------------
 .byte   PATT
  .word Label_0110A643
@  #01 @019   ----------------------------------------
 .byte   PATT
  .word Label_0110A628
@  #01 @020   ----------------------------------------
 .byte   PATT
  .word Label_0110A643
@  #01 @021   ----------------------------------------
 .byte   PATT
  .word Label_0110A628
@  #01 @022   ----------------------------------------
 .byte   W96
@  #01 @023   ----------------------------------------
 .byte   W96
@  #01 @024   ----------------------------------------
 .byte   W96
@  #01 @025   ----------------------------------------
 .byte   W96
@  #01 @026   ----------------------------------------
 .byte   W96
@  #01 @027   ----------------------------------------
 .byte   W96
@  #01 @028   ----------------------------------------
 .byte   W96
@  #01 @029   ----------------------------------------
 .byte   W96
@  #01 @030   ----------------------------------------
 .byte   GOTO
  .word Label_0110A606
@  #01 @031   ----------------------------------------
 .byte   TEMPO , 70*AWoman_tbs/2
 .byte   N32 ,En2 ,v080
 .byte   N32 ,Gn2
 .byte   N32 ,Bn2
 .byte   W36
 .byte   N11 ,En2
 .byte   N11 ,Gn2
 .byte   N11 ,Bn2
 .byte   N11 ,Dn3
 .byte   W12
 .byte   N44 ,Ds2
 .byte   N44 ,Gs2
 .byte   N44 ,Bn2
 .byte   N44 ,Ds3
 .byte   W48
@  #01 @032   ----------------------------------------
 .byte   PATT
  .word Label_0110A628
@  #01 @033   ----------------------------------------
 .byte   PATT
  .word Label_0110A643
@  #01 @034   ----------------------------------------
 .byte   PATT
  .word Label_0110A628
@  #01 @035   ----------------------------------------
 .byte   PATT
  .word Label_0110A643
@  #01 @036   ----------------------------------------
 .byte   PATT
  .word Label_0110A628
@  #01 @037   ----------------------------------------
 .byte   PATT
  .word Label_0110A643
@  #01 @038   ----------------------------------------
 .byte   PATT
  .word Label_0110A628
@  #01 @039   ----------------------------------------
 .byte   PATT
  .word Label_0110A643
@  #01 @040   ----------------------------------------
 .byte   PATT
  .word Label_0110A628
@  #01 @041   ----------------------------------------
 .byte   PATT
  .word Label_0110A643
@  #01 @042   ----------------------------------------
 .byte   PATT
  .word Label_0110A628
@  #01 @043   ----------------------------------------
 .byte   PATT
  .word Label_0110A68B
@  #01 @044   ----------------------------------------
 .byte   PATT
  .word Label_0110A6A8
@  #01 @045   ----------------------------------------
 .byte   PATT
  .word Label_0110A643
@  #01 @046   ----------------------------------------
 .byte   PATT
  .word Label_0110A628
@  #01 @047   ----------------------------------------
 .byte   PATT
  .word Label_0110A643
@  #01 @048   ----------------------------------------
 .byte   PATT
  .word Label_0110A628
@  #01 @049   ----------------------------------------
 .byte   PATT
  .word Label_0110A643
@  #01 @050   ----------------------------------------
 .byte   PATT
  .word Label_0110A628
@  #01 @051   ----------------------------------------
 .byte   PATT
  .word Label_0110A643
@  #01 @052   ----------------------------------------
 .byte   PATT
  .word Label_0110A628
@  #01 @053   ----------------------------------------
 .byte   W96
@  #01 @054   ----------------------------------------
 .byte   W96
@  #01 @055   ----------------------------------------
 .byte   W96
@  #01 @056   ----------------------------------------
 .byte   W96
@  #01 @057   ----------------------------------------
 .byte   W96
@  #01 @058   ----------------------------------------
 .byte   W96
@  #01 @059   ----------------------------------------
 .byte   W96
@  #01 @060   ----------------------------------------
 .byte   W92
 .byte   W03
 .byte   FINE

@**************** Track 2 (Midi-Chn.1) ****************@

AWoman_002:
@  #02 @000   ----------------------------------------
 .byte   KEYSH , AWoman_key+0
Label_0110A796:
 .byte   VOICE , 1
 .byte   VOL , 23*AWoman_mvl/mxv
 .byte   N32 ,En1 ,v080
 .byte   W36
 .byte   N11
 .byte   W12
 .byte   N44 ,Gs1
 .byte   W48
@  #02 @001   ----------------------------------------
Label_0110A7A3:
 .byte   N32 ,En1 ,v080
 .byte   W36
 .byte   N11
 .byte   W12
 .byte   N44 ,Dn1
 .byte   W48
 .byte   PEND 
@  #02 @002   ----------------------------------------
Label_0110A7AD:
 .byte   N32 ,En1 ,v080
 .byte   W36
 .byte   N11
 .byte   W12
 .byte   N44 ,Gs1
 .byte   W48
 .byte   PEND 
@  #02 @003   ----------------------------------------
 .byte   PATT
  .word Label_0110A7A3
@  #02 @004   ----------------------------------------
 .byte   PATT
  .word Label_0110A7AD
@  #02 @005   ----------------------------------------
 .byte   PATT
  .word Label_0110A7A3
@  #02 @006   ----------------------------------------
 .byte   PATT
  .word Label_0110A7AD
@  #02 @007   ----------------------------------------
 .byte   PATT
  .word Label_0110A7A3
@  #02 @008   ----------------------------------------
 .byte   PATT
  .word Label_0110A7AD
@  #02 @009   ----------------------------------------
 .byte   PATT
  .word Label_0110A7A3
@  #02 @010   ----------------------------------------
 .byte   PATT
  .word Label_0110A7AD
@  #02 @011   ----------------------------------------
 .byte   PATT
  .word Label_0110A7A3
@  #02 @012   ----------------------------------------
Label_0110A7E4:
 .byte   N44 ,Fn1 ,v080
 .byte   W48
 .byte   En1
 .byte   W48
 .byte   PEND 
@  #02 @013   ----------------------------------------
Label_0110A7EB:
 .byte   N32 ,An1 ,v080
 .byte   W36
 .byte   N11
 .byte   W12
 .byte   N44
 .byte   W48
 .byte   PEND 
@  #02 @014   ----------------------------------------
 .byte   PATT
  .word Label_0110A7AD
@  #02 @015   ----------------------------------------
 .byte   PATT
  .word Label_0110A7A3
@  #02 @016   ----------------------------------------
 .byte   PATT
  .word Label_0110A7AD
@  #02 @017   ----------------------------------------
 .byte   PATT
  .word Label_0110A7A3
@  #02 @018   ----------------------------------------
 .byte   PATT
  .word Label_0110A7AD
@  #02 @019   ----------------------------------------
 .byte   PATT
  .word Label_0110A7A3
@  #02 @020   ----------------------------------------
 .byte   PATT
  .word Label_0110A7AD
@  #02 @021   ----------------------------------------
 .byte   PATT
  .word Label_0110A7A3
@  #02 @022   ----------------------------------------
 .byte   W96
@  #02 @023   ----------------------------------------
 .byte   W96
@  #02 @024   ----------------------------------------
 .byte   W96
@  #02 @025   ----------------------------------------
 .byte   W96
@  #02 @026   ----------------------------------------
 .byte   W96
@  #02 @027   ----------------------------------------
 .byte   W96
@  #02 @028   ----------------------------------------
 .byte   W96
@  #02 @029   ----------------------------------------
 .byte   W96
@  #02 @030   ----------------------------------------
 .byte   GOTO
  .word Label_0110A796
@  #02 @031   ----------------------------------------
 .byte   PATT
  .word Label_0110A7AD
@  #02 @032   ----------------------------------------
 .byte   PATT
  .word Label_0110A7A3
@  #02 @033   ----------------------------------------
 .byte   PATT
  .word Label_0110A7AD
@  #02 @034   ----------------------------------------
 .byte   PATT
  .word Label_0110A7A3
@  #02 @035   ----------------------------------------
 .byte   PATT
  .word Label_0110A7AD
@  #02 @036   ----------------------------------------
 .byte   PATT
  .word Label_0110A7A3
@  #02 @037   ----------------------------------------
 .byte   PATT
  .word Label_0110A7AD
@  #02 @038   ----------------------------------------
 .byte   PATT
  .word Label_0110A7A3
@  #02 @039   ----------------------------------------
 .byte   PATT
  .word Label_0110A7AD
@  #02 @040   ----------------------------------------
 .byte   PATT
  .word Label_0110A7A3
@  #02 @041   ----------------------------------------
 .byte   PATT
  .word Label_0110A7AD
@  #02 @042   ----------------------------------------
 .byte   PATT
  .word Label_0110A7A3
@  #02 @043   ----------------------------------------
 .byte   PATT
  .word Label_0110A7E4
@  #02 @044   ----------------------------------------
 .byte   PATT
  .word Label_0110A7EB
@  #02 @045   ----------------------------------------
 .byte   PATT
  .word Label_0110A7AD
@  #02 @046   ----------------------------------------
 .byte   PATT
  .word Label_0110A7A3
@  #02 @047   ----------------------------------------
 .byte   PATT
  .word Label_0110A7AD
@  #02 @048   ----------------------------------------
 .byte   PATT
  .word Label_0110A7A3
@  #02 @049   ----------------------------------------
 .byte   PATT
  .word Label_0110A7AD
@  #02 @050   ----------------------------------------
 .byte   PATT
  .word Label_0110A7A3
@  #02 @051   ----------------------------------------
 .byte   PATT
  .word Label_0110A7AD
@  #02 @052   ----------------------------------------
 .byte   PATT
  .word Label_0110A7A3
@  #02 @053   ----------------------------------------
 .byte   W96
@  #02 @054   ----------------------------------------
 .byte   W96
@  #02 @055   ----------------------------------------
 .byte   W96
@  #02 @056   ----------------------------------------
 .byte   W96
@  #02 @057   ----------------------------------------
 .byte   W96
@  #02 @058   ----------------------------------------
 .byte   W96
@  #02 @059   ----------------------------------------
 .byte   W96
@  #02 @060   ----------------------------------------
 .byte   W92
 .byte   W03
 .byte   FINE

@**************** Track 3 (Midi-Chn.2) ****************@

AWoman_003:
@  #03 @000   ----------------------------------------
 .byte   KEYSH , AWoman_key+0
Label_0110A8B6:
 .byte   VOICE , 107
 .byte   VOL , 54*AWoman_mvl/mxv
 .byte   PAN , c_v+0
 .byte   W96
@  #03 @001   ----------------------------------------
 .byte   W96
@  #03 @002   ----------------------------------------
 .byte   W96
@  #03 @003   ----------------------------------------
 .byte   W96
@  #03 @004   ----------------------------------------
 .byte   W96
@  #03 @005   ----------------------------------------
 .byte   W96
@  #03 @006   ----------------------------------------
 .byte   W96
@  #03 @007   ----------------------------------------
Label_0110A8C3:
 .byte   W78
 .byte   N05 ,Fs3 ,v080
 .byte   W06
 .byte   An3
 .byte   W06
 .byte   Bn3
 .byte   W06
 .byte   PEND 
@  #03 @008   ----------------------------------------
Label_0110A8CD:
 .byte   N05 ,Cs4 ,v080
 .byte   W06
 .byte   Fs3
 .byte   W06
 .byte   N44 ,An3
 .byte   W66
 .byte   N17 ,Fs3
 .byte   W18
 .byte   PEND 
@  #03 @009   ----------------------------------------
Label_0110A8DA:
 .byte   N11 ,An3 ,v080
 .byte   W12
 .byte   N05 ,Bn3
 .byte   W06
 .byte   N44 ,En3
 .byte   W48
 .byte   N11 ,Fs3
 .byte   W12
 .byte   An3
 .byte   W12
 .byte   N05 ,Bn3
 .byte   W06
 .byte   PEND 
@  #03 @010   ----------------------------------------
Label_0110A8ED:
 .byte   N05 ,Cs4 ,v080
 .byte   W06
 .byte   Fs3
 .byte   W06
 .byte   N11 ,An3
 .byte   W60
 .byte   N23 ,Fs3
 .byte   W24
 .byte   PEND 
@  #03 @011   ----------------------------------------
Label_0110A8FA:
 .byte   N11 ,An3 ,v080
 .byte   W12
 .byte   N05 ,Bn3
 .byte   W06
 .byte   N17 ,En3
 .byte   W30
 .byte   N23 ,Fn3
 .byte   W24
 .byte   Gn3
 .byte   W24
 .byte   PEND 
@  #03 @012   ----------------------------------------
Label_0110A90A:
 .byte   N44 ,An3 ,v080
 .byte   W48
 .byte   N23 ,Gn3
 .byte   W32
 .byte   W01
 .byte   N05 ,Fn3
 .byte   W09
 .byte   N52 ,En3
 .byte   W06
 .byte   PEND 
@  #03 @013   ----------------------------------------
 .byte   W96
@  #03 @014   ----------------------------------------
 .byte   W96
@  #03 @015   ----------------------------------------
 .byte   W96
@  #03 @016   ----------------------------------------
 .byte   W96
@  #03 @017   ----------------------------------------
 .byte   W96
@  #03 @018   ----------------------------------------
 .byte   W96
@  #03 @019   ----------------------------------------
 .byte   W96
@  #03 @020   ----------------------------------------
 .byte   W96
@  #03 @021   ----------------------------------------
 .byte   W96
@  #03 @022   ----------------------------------------
 .byte   W96
@  #03 @023   ----------------------------------------
 .byte   W96
@  #03 @024   ----------------------------------------
 .byte   W96
@  #03 @025   ----------------------------------------
 .byte   W96
@  #03 @026   ----------------------------------------
 .byte   W96
@  #03 @027   ----------------------------------------
 .byte   W96
@  #03 @028   ----------------------------------------
 .byte   W96
@  #03 @029   ----------------------------------------
 .byte   W96
@  #03 @030   ----------------------------------------
 .byte   GOTO
  .word Label_0110A8B6
@  #03 @031   ----------------------------------------
 .byte   W96
@  #03 @032   ----------------------------------------
 .byte   W96
@  #03 @033   ----------------------------------------
 .byte   W96
@  #03 @034   ----------------------------------------
 .byte   W96
@  #03 @035   ----------------------------------------
 .byte   W96
@  #03 @036   ----------------------------------------
 .byte   W96
@  #03 @037   ----------------------------------------
 .byte   W96
@  #03 @038   ----------------------------------------
 .byte   PATT
  .word Label_0110A8C3
@  #03 @039   ----------------------------------------
 .byte   PATT
  .word Label_0110A8CD
@  #03 @040   ----------------------------------------
 .byte   PATT
  .word Label_0110A8DA
@  #03 @041   ----------------------------------------
 .byte   PATT
  .word Label_0110A8ED
@  #03 @042   ----------------------------------------
 .byte   PATT
  .word Label_0110A8FA
@  #03 @043   ----------------------------------------
 .byte   PATT
  .word Label_0110A90A
@  #03 @044   ----------------------------------------
 .byte   W96
@  #03 @045   ----------------------------------------
 .byte   W96
@  #03 @046   ----------------------------------------
 .byte   W96
@  #03 @047   ----------------------------------------
 .byte   W96
@  #03 @048   ----------------------------------------
 .byte   W96
@  #03 @049   ----------------------------------------
 .byte   W96
@  #03 @050   ----------------------------------------
 .byte   W96
@  #03 @051   ----------------------------------------
 .byte   W96
@  #03 @052   ----------------------------------------
 .byte   W96
@  #03 @053   ----------------------------------------
 .byte   W96
@  #03 @054   ----------------------------------------
 .byte   W96
@  #03 @055   ----------------------------------------
 .byte   W96
@  #03 @056   ----------------------------------------
 .byte   W96
@  #03 @057   ----------------------------------------
 .byte   W96
@  #03 @058   ----------------------------------------
 .byte   W96
@  #03 @059   ----------------------------------------
 .byte   W96
@  #03 @060   ----------------------------------------
 .byte   W92
 .byte   W03
 .byte   FINE

@**************** Track 4 (Midi-Chn.3) ****************@

AWoman_004:
@  #04 @000   ----------------------------------------
 .byte   KEYSH , AWoman_key+0
Label_0110A97A:
 .byte   VOICE , 28
 .byte   VOL , 90*AWoman_mvl/mxv
 .byte   PAN , c_v+0
 .byte   W96
@  #04 @001   ----------------------------------------
 .byte   W96
@  #04 @002   ----------------------------------------
 .byte   W96
@  #04 @003   ----------------------------------------
 .byte   W96
@  #04 @004   ----------------------------------------
 .byte   W96
@  #04 @005   ----------------------------------------
 .byte   W96
@  #04 @006   ----------------------------------------
 .byte   W96
@  #04 @007   ----------------------------------------
 .byte   W96
@  #04 @008   ----------------------------------------
 .byte   W96
@  #04 @009   ----------------------------------------
 .byte   W96
@  #04 @010   ----------------------------------------
 .byte   W96
@  #04 @011   ----------------------------------------
 .byte   W96
@  #04 @012   ----------------------------------------
 .byte   W96
@  #04 @013   ----------------------------------------
Label_0110A98D:
 .byte   W78
 .byte   N05 ,Fs2 ,v080
 .byte   W06
 .byte   An2
 .byte   W06
 .byte   Bn2
 .byte   W06
 .byte   PEND 
@  #04 @014   ----------------------------------------
Label_0110A997:
 .byte   N05 ,Cs3 ,v080
 .byte   W06
 .byte   Fs2
 .byte   W06
 .byte   N44 ,An2
 .byte   W66
 .byte   N17 ,Fs2
 .byte   W18
 .byte   PEND 
@  #04 @015   ----------------------------------------
Label_0110A9A4:
 .byte   N11 ,An2 ,v080
 .byte   W12
 .byte   N05 ,Bn2
 .byte   W06
 .byte   N44 ,En2
 .byte   W48
 .byte   N11 ,Fs2
 .byte   W12
 .byte   An2
 .byte   W12
 .byte   N05 ,Bn2
 .byte   W06
 .byte   PEND 
@  #04 @016   ----------------------------------------
Label_0110A9B7:
 .byte   N05 ,Cs3 ,v080
 .byte   W06
 .byte   Fs2
 .byte   W06
 .byte   N44 ,An2
 .byte   W60
 .byte   N23 ,Fs2
 .byte   W24
 .byte   PEND 
@  #04 @017   ----------------------------------------
Label_0110A9C4:
 .byte   N11 ,An2 ,v080
 .byte   W12
 .byte   N05 ,Bn2
 .byte   W06
 .byte   N44 ,En2
 .byte   W60
 .byte   N05 ,Fs2
 .byte   W06
 .byte   An2
 .byte   W06
 .byte   Bn2
 .byte   W06
 .byte   PEND 
@  #04 @018   ----------------------------------------
 .byte   PATT
  .word Label_0110A997
@  #04 @019   ----------------------------------------
 .byte   PATT
  .word Label_0110A9A4
@  #04 @020   ----------------------------------------
 .byte   PATT
  .word Label_0110A9B7
@  #04 @021   ----------------------------------------
Label_0110A9E5:
 .byte   N11 ,An2 ,v080
 .byte   W12
 .byte   N05 ,Bn2
 .byte   W06
 .byte   N44 ,En2
 .byte   W78
 .byte   PEND 
@  #04 @022   ----------------------------------------
 .byte   W96
@  #04 @023   ----------------------------------------
 .byte   W96
@  #04 @024   ----------------------------------------
 .byte   W96
@  #04 @025   ----------------------------------------
 .byte   W96
@  #04 @026   ----------------------------------------
 .byte   W96
@  #04 @027   ----------------------------------------
 .byte   W96
@  #04 @028   ----------------------------------------
 .byte   W96
@  #04 @029   ----------------------------------------
 .byte   W96
@  #04 @030   ----------------------------------------
 .byte   GOTO
  .word Label_0110A97A
@  #04 @031   ----------------------------------------
 .byte   W96
@  #04 @032   ----------------------------------------
 .byte   W96
@  #04 @033   ----------------------------------------
 .byte   W96
@  #04 @034   ----------------------------------------
 .byte   W96
@  #04 @035   ----------------------------------------
 .byte   W96
@  #04 @036   ----------------------------------------
 .byte   W96
@  #04 @037   ----------------------------------------
 .byte   W96
@  #04 @038   ----------------------------------------
 .byte   W96
@  #04 @039   ----------------------------------------
 .byte   W96
@  #04 @040   ----------------------------------------
 .byte   W96
@  #04 @041   ----------------------------------------
 .byte   W96
@  #04 @042   ----------------------------------------
 .byte   W96
@  #04 @043   ----------------------------------------
 .byte   W96
@  #04 @044   ----------------------------------------
 .byte   PATT
  .word Label_0110A98D
@  #04 @045   ----------------------------------------
 .byte   PATT
  .word Label_0110A997
@  #04 @046   ----------------------------------------
 .byte   PATT
  .word Label_0110A9A4
@  #04 @047   ----------------------------------------
 .byte   PATT
  .word Label_0110A9B7
@  #04 @048   ----------------------------------------
 .byte   PATT
  .word Label_0110A9C4
@  #04 @049   ----------------------------------------
 .byte   PATT
  .word Label_0110A997
@  #04 @050   ----------------------------------------
 .byte   PATT
  .word Label_0110A9A4
@  #04 @051   ----------------------------------------
 .byte   PATT
  .word Label_0110A9B7
@  #04 @052   ----------------------------------------
 .byte   PATT
  .word Label_0110A9E5
@  #04 @053   ----------------------------------------
 .byte   W96
@  #04 @054   ----------------------------------------
 .byte   W96
@  #04 @055   ----------------------------------------
 .byte   W96
@  #04 @056   ----------------------------------------
 .byte   W96
@  #04 @057   ----------------------------------------
 .byte   W96
@  #04 @058   ----------------------------------------
 .byte   W96
@  #04 @059   ----------------------------------------
 .byte   W96
@  #04 @060   ----------------------------------------
 .byte   W92
 .byte   W03
 .byte   FINE

@**************** Track 5 (Midi-Chn.4) ****************@

AWoman_005:
@  #05 @000   ----------------------------------------
 .byte   KEYSH , AWoman_key+0
Label_0110AA56:
 .byte   VOICE , 18
 .byte   VOL , 18*AWoman_mvl/mxv
 .byte   PAN , c_v+0
 .byte   W96
@  #05 @001   ----------------------------------------
 .byte   W96
@  #05 @002   ----------------------------------------
 .byte   W96
@  #05 @003   ----------------------------------------
 .byte   W96
@  #05 @004   ----------------------------------------
Label_0110AA60:
 .byte   N32 ,Bn2 ,v080
 .byte   N32 ,En3
 .byte   N32 ,Gn3
 .byte   W36
 .byte   N11 ,Bn2
 .byte   N11 ,En3
 .byte   N11 ,Gn3
 .byte   W12
 .byte   N44 ,Bn2
 .byte   N44 ,Ds3
 .byte   N44 ,Gs3
 .byte   W48
 .byte   PEND 
@  #05 @005   ----------------------------------------
Label_0110AA77:
 .byte   N32 ,Bn2 ,v080
 .byte   N32 ,En3
 .byte   N32 ,Gn3
 .byte   W36
 .byte   N11 ,Bn2
 .byte   N11 ,En3
 .byte   N11 ,Gn3
 .byte   W12
 .byte   N44 ,An2
 .byte   N44 ,Dn3
 .byte   N44 ,Fn3
 .byte   W48
 .byte   PEND 
@  #05 @006   ----------------------------------------
 .byte   PATT
  .word Label_0110AA60
@  #05 @007   ----------------------------------------
 .byte   PATT
  .word Label_0110AA77
@  #05 @008   ----------------------------------------
 .byte   PATT
  .word Label_0110AA60
@  #05 @009   ----------------------------------------
 .byte   PATT
  .word Label_0110AA77
@  #05 @010   ----------------------------------------
 .byte   PATT
  .word Label_0110AA60
@  #05 @011   ----------------------------------------
 .byte   PATT
  .word Label_0110AA77
@  #05 @012   ----------------------------------------
Label_0110AAAC:
 .byte   N32 ,An2 ,v080
 .byte   N32 ,Cn3
 .byte   N32 ,En3
 .byte   N32 ,An3
 .byte   W36
 .byte   N11 ,An2
 .byte   N11 ,Cn3
 .byte   N11 ,En3
 .byte   N11 ,An3
 .byte   W12
 .byte   N44 ,Bn2
 .byte   N44 ,Dn3
 .byte   N44 ,Gn3
 .byte   W48
 .byte   PEND 
@  #05 @013   ----------------------------------------
Label_0110AAC7:
 .byte   N32 ,En2 ,v080
 .byte   N32 ,An2
 .byte   N32 ,Dn3
 .byte   N32 ,En3
 .byte   N32 ,An3
 .byte   W36
 .byte   N11 ,En2
 .byte   N11 ,An2
 .byte   N11 ,Dn3
 .byte   N11 ,En3
 .byte   N11 ,An3
 .byte   W12
 .byte   N44 ,En2
 .byte   N44 ,An2
 .byte   N44 ,Cs3
 .byte   N44 ,En3
 .byte   W48
 .byte   PEND 
@  #05 @014   ----------------------------------------
 .byte   W96
@  #05 @015   ----------------------------------------
 .byte   W96
@  #05 @016   ----------------------------------------
 .byte   W96
@  #05 @017   ----------------------------------------
 .byte   W96
@  #05 @018   ----------------------------------------
Label_0110AAEC:
 .byte   N32 ,Bn2 ,v052
 .byte   N32 ,En3
 .byte   N32 ,Gn3
 .byte   W36
 .byte   N11 ,Bn2
 .byte   N11 ,En3
 .byte   N11 ,Gn3
 .byte   W12
 .byte   N44 ,Bn2
 .byte   N44 ,Ds3
 .byte   N44 ,Fs3
 .byte   N44 ,Bn3
 .byte   W48
 .byte   PEND 
@  #05 @019   ----------------------------------------
Label_0110AB05:
 .byte   N32 ,Bn2 ,v052
 .byte   N32 ,En3
 .byte   N32 ,Gn3
 .byte   W36
 .byte   N11 ,Bn2
 .byte   N11 ,En3
 .byte   N11 ,Gn3
 .byte   W12
 .byte   N44 ,An2
 .byte   N44 ,Dn3
 .byte   N44 ,Fn3
 .byte   W48
 .byte   PEND 
@  #05 @020   ----------------------------------------
 .byte   PATT
  .word Label_0110AAEC
@  #05 @021   ----------------------------------------
 .byte   PATT
  .word Label_0110AB05
@  #05 @022   ----------------------------------------
 .byte   W96
@  #05 @023   ----------------------------------------
 .byte   W96
@  #05 @024   ----------------------------------------
 .byte   W96
@  #05 @025   ----------------------------------------
 .byte   W96
@  #05 @026   ----------------------------------------
Label_0110AB2A:
 .byte   N32 ,Bn2 ,v080
 .byte   N32 ,En3
 .byte   N32 ,Gn3
 .byte   W36
 .byte   N11 ,Bn2
 .byte   N11 ,En3
 .byte   N11 ,Gn3
 .byte   W12
 .byte   N44 ,Bn2
 .byte   N44 ,Ds3
 .byte   N44 ,Fs3
 .byte   N44 ,Bn3
 .byte   W48
 .byte   PEND 
@  #05 @027   ----------------------------------------
 .byte   PATT
  .word Label_0110AA77
@  #05 @028   ----------------------------------------
 .byte   PATT
  .word Label_0110AB2A
@  #05 @029   ----------------------------------------
 .byte   PATT
  .word Label_0110AA77
@  #05 @030   ----------------------------------------
 .byte   GOTO
  .word Label_0110AA56
@  #05 @031   ----------------------------------------
 .byte   W96
@  #05 @032   ----------------------------------------
 .byte   W96
@  #05 @033   ----------------------------------------
 .byte   W96
@  #05 @034   ----------------------------------------
 .byte   W96
@  #05 @035   ----------------------------------------
 .byte   PATT
  .word Label_0110AA60
@  #05 @036   ----------------------------------------
 .byte   PATT
  .word Label_0110AA77
@  #05 @037   ----------------------------------------
 .byte   PATT
  .word Label_0110AA60
@  #05 @038   ----------------------------------------
 .byte   PATT
  .word Label_0110AA77
@  #05 @039   ----------------------------------------
 .byte   PATT
  .word Label_0110AA60
@  #05 @040   ----------------------------------------
 .byte   PATT
  .word Label_0110AA77
@  #05 @041   ----------------------------------------
 .byte   PATT
  .word Label_0110AA60
@  #05 @042   ----------------------------------------
 .byte   PATT
  .word Label_0110AA77
@  #05 @043   ----------------------------------------
 .byte   PATT
  .word Label_0110AAAC
@  #05 @044   ----------------------------------------
 .byte   PATT
  .word Label_0110AAC7
@  #05 @045   ----------------------------------------
 .byte   W96
@  #05 @046   ----------------------------------------
 .byte   W96
@  #05 @047   ----------------------------------------
 .byte   W96
@  #05 @048   ----------------------------------------
 .byte   W96
@  #05 @049   ----------------------------------------
 .byte   PATT
  .word Label_0110AAEC
@  #05 @050   ----------------------------------------
 .byte   PATT
  .word Label_0110AB05
@  #05 @051   ----------------------------------------
 .byte   PATT
  .word Label_0110AAEC
@  #05 @052   ----------------------------------------
 .byte   PATT
  .word Label_0110AB05
@  #05 @053   ----------------------------------------
 .byte   W96
@  #05 @054   ----------------------------------------
 .byte   W96
@  #05 @055   ----------------------------------------
 .byte   W96
@  #05 @056   ----------------------------------------
 .byte   W96
@  #05 @057   ----------------------------------------
 .byte   PATT
  .word Label_0110AB2A
@  #05 @058   ----------------------------------------
 .byte   PATT
  .word Label_0110AA77
@  #05 @059   ----------------------------------------
 .byte   PATT
  .word Label_0110AB2A
@  #05 @060   ----------------------------------------
 .byte   N32 ,Bn2 ,v080
 .byte   N32 ,En3
 .byte   N32 ,Gn3
 .byte   W36
 .byte   N11 ,Bn2
 .byte   N11 ,En3
 .byte   N11 ,Gn3
 .byte   W12
 .byte   N44 ,An2
 .byte   N44 ,Dn3
 .byte   N44 ,Fn3
 .byte   W44
 .byte   W03
 .byte   FINE

@**************** Track 6 (Midi-Chn.5) ****************@

AWoman_006:
@  #06 @000   ----------------------------------------
 .byte   KEYSH , AWoman_key+0
Label_0110ABE2:
 .byte   VOICE , 38
 .byte   VOL , 41*AWoman_mvl/mxv
 .byte   PAN , c_v+0
 .byte   N32 ,En0 ,v080
 .byte   W36
 .byte   N11
 .byte   W12
 .byte   N44 ,Gs0
 .byte   W48
@  #06 @001   ----------------------------------------
Label_0110ABF1:
 .byte   N32 ,En0 ,v080
 .byte   W36
 .byte   N11
 .byte   W12
 .byte   N44 ,Dn0
 .byte   W48
 .byte   PEND 
@  #06 @002   ----------------------------------------
Label_0110ABFB:
 .byte   N32 ,En0 ,v080
 .byte   W36
 .byte   N11
 .byte   W12
 .byte   N44 ,Gs0
 .byte   W48
 .byte   PEND 
@  #06 @003   ----------------------------------------
 .byte   PATT
  .word Label_0110ABF1
@  #06 @004   ----------------------------------------
 .byte   PATT
  .word Label_0110ABFB
@  #06 @005   ----------------------------------------
 .byte   PATT
  .word Label_0110ABF1
@  #06 @006   ----------------------------------------
 .byte   PATT
  .word Label_0110ABFB
@  #06 @007   ----------------------------------------
 .byte   PATT
  .word Label_0110ABF1
@  #06 @008   ----------------------------------------
 .byte   PATT
  .word Label_0110ABFB
@  #06 @009   ----------------------------------------
 .byte   PATT
  .word Label_0110ABF1
@  #06 @010   ----------------------------------------
 .byte   PATT
  .word Label_0110ABFB
@  #06 @011   ----------------------------------------
 .byte   PATT
  .word Label_0110ABF1
@  #06 @012   ----------------------------------------
Label_0110AC32:
 .byte   N32 ,Fn0 ,v080
 .byte   W36
 .byte   N11
 .byte   W12
 .byte   N44 ,En0
 .byte   W48
 .byte   PEND 
@  #06 @013   ----------------------------------------
Label_0110AC3C:
 .byte   N32 ,An0 ,v080
 .byte   W36
 .byte   N11
 .byte   W12
 .byte   N44
 .byte   W48
 .byte   PEND 
@  #06 @014   ----------------------------------------
 .byte   PATT
  .word Label_0110ABFB
@  #06 @015   ----------------------------------------
 .byte   PATT
  .word Label_0110ABF1
@  #06 @016   ----------------------------------------
 .byte   PATT
  .word Label_0110ABFB
@  #06 @017   ----------------------------------------
 .byte   PATT
  .word Label_0110ABF1
@  #06 @018   ----------------------------------------
 .byte   PATT
  .word Label_0110ABFB
@  #06 @019   ----------------------------------------
 .byte   PATT
  .word Label_0110ABF1
@  #06 @020   ----------------------------------------
 .byte   PATT
  .word Label_0110ABFB
@  #06 @021   ----------------------------------------
 .byte   PATT
  .word Label_0110ABF1
@  #06 @022   ----------------------------------------
Label_0110AC6D:
 .byte   N32 ,En0 ,v080
 .byte   W36
 .byte   N11
 .byte   W60
 .byte   PEND 
@  #06 @023   ----------------------------------------
 .byte   PATT
  .word Label_0110AC6D
@  #06 @024   ----------------------------------------
 .byte   PATT
  .word Label_0110AC6D
@  #06 @025   ----------------------------------------
 .byte   PATT
  .word Label_0110AC6D
@  #06 @026   ----------------------------------------
 .byte   PATT
  .word Label_0110AC6D
@  #06 @027   ----------------------------------------
 .byte   PATT
  .word Label_0110AC6D
@  #06 @028   ----------------------------------------
 .byte   PATT
  .word Label_0110AC6D
@  #06 @029   ----------------------------------------
 .byte   PATT
  .word Label_0110AC6D
@  #06 @030   ----------------------------------------
 .byte   GOTO
  .word Label_0110ABE2
@  #06 @031   ----------------------------------------
 .byte   PATT
  .word Label_0110ABFB
@  #06 @032   ----------------------------------------
 .byte   PATT
  .word Label_0110ABF1
@  #06 @033   ----------------------------------------
 .byte   PATT
  .word Label_0110ABFB
@  #06 @034   ----------------------------------------
 .byte   PATT
  .word Label_0110ABF1
@  #06 @035   ----------------------------------------
 .byte   PATT
  .word Label_0110ABFB
@  #06 @036   ----------------------------------------
 .byte   PATT
  .word Label_0110ABF1
@  #06 @037   ----------------------------------------
 .byte   PATT
  .word Label_0110ABFB
@  #06 @038   ----------------------------------------
 .byte   PATT
  .word Label_0110ABF1
@  #06 @039   ----------------------------------------
 .byte   PATT
  .word Label_0110ABFB
@  #06 @040   ----------------------------------------
 .byte   PATT
  .word Label_0110ABF1
@  #06 @041   ----------------------------------------
 .byte   PATT
  .word Label_0110ABFB
@  #06 @042   ----------------------------------------
 .byte   PATT
  .word Label_0110ABF1
@  #06 @043   ----------------------------------------
 .byte   PATT
  .word Label_0110AC32
@  #06 @044   ----------------------------------------
 .byte   PATT
  .word Label_0110AC3C
@  #06 @045   ----------------------------------------
 .byte   PATT
  .word Label_0110ABFB
@  #06 @046   ----------------------------------------
 .byte   PATT
  .word Label_0110ABF1
@  #06 @047   ----------------------------------------
 .byte   PATT
  .word Label_0110ABFB
@  #06 @048   ----------------------------------------
 .byte   PATT
  .word Label_0110ABF1
@  #06 @049   ----------------------------------------
 .byte   PATT
  .word Label_0110ABFB
@  #06 @050   ----------------------------------------
 .byte   PATT
  .word Label_0110ABF1
@  #06 @051   ----------------------------------------
 .byte   PATT
  .word Label_0110ABFB
@  #06 @052   ----------------------------------------
 .byte   PATT
  .word Label_0110ABF1
@  #06 @053   ----------------------------------------
 .byte   PATT
  .word Label_0110AC6D
@  #06 @054   ----------------------------------------
 .byte   PATT
  .word Label_0110AC6D
@  #06 @055   ----------------------------------------
 .byte   PATT
  .word Label_0110AC6D
@  #06 @056   ----------------------------------------
 .byte   PATT
  .word Label_0110AC6D
@  #06 @057   ----------------------------------------
 .byte   PATT
  .word Label_0110AC6D
@  #06 @058   ----------------------------------------
 .byte   PATT
  .word Label_0110AC6D
@  #06 @059   ----------------------------------------
 .byte   PATT
  .word Label_0110AC6D
@  #06 @060   ----------------------------------------
 .byte   N32 ,En0 ,v080
 .byte   W36
 .byte   N11
 .byte   W56
 .byte   W03
 .byte   FINE

@**************** Track 7 (Midi-Chn.6) ****************@

AWoman_007:
@  #07 @000   ----------------------------------------
 .byte   KEYSH , AWoman_key+0
Label_0110AD4A:
 .byte   VOICE , 124
 .byte   VOL , 41*AWoman_mvl/mxv
 .byte   PAN , c_v+0
 .byte   N11 ,En3 ,v052
 .byte   W12
 .byte   N05 ,Ds3
 .byte   W06
 .byte   Dn3
 .byte   W06
 .byte   N11 ,En3
 .byte   W12
 .byte   N05 ,Ds3
 .byte   W06
 .byte   Dn3
 .byte   W06
 .byte   N11 ,En3
 .byte   W12
 .byte   N05 ,Ds3
 .byte   W06
 .byte   Dn3
 .byte   W06
 .byte   N11 ,En3
 .byte   W12
 .byte   N05 ,Ds3
 .byte   W06
 .byte   Dn3
 .byte   W06
@  #07 @001   ----------------------------------------
Label_0110AD71:
 .byte   N11 ,En3 ,v052
 .byte   W12
 .byte   N05 ,Ds3
 .byte   W06
 .byte   Dn3
 .byte   W06
 .byte   N11 ,En3
 .byte   W12
 .byte   N05 ,Ds3
 .byte   W06
 .byte   Dn3
 .byte   W06
 .byte   N11 ,En3
 .byte   W12
 .byte   N05 ,Ds3
 .byte   W06
 .byte   Dn3
 .byte   W06
 .byte   N11 ,En3
 .byte   W12
 .byte   N05 ,Ds3
 .byte   W06
 .byte   Dn3
 .byte   W06
 .byte   PEND 
@  #07 @002   ----------------------------------------
 .byte   PATT
  .word Label_0110AD71
@  #07 @003   ----------------------------------------
 .byte   PATT
  .word Label_0110AD71
@  #07 @004   ----------------------------------------
 .byte   PATT
  .word Label_0110AD71
@  #07 @005   ----------------------------------------
 .byte   PATT
  .word Label_0110AD71
@  #07 @006   ----------------------------------------
 .byte   PATT
  .word Label_0110AD71
@  #07 @007   ----------------------------------------
 .byte   PATT
  .word Label_0110AD71
@  #07 @008   ----------------------------------------
 .byte   PATT
  .word Label_0110AD71
@  #07 @009   ----------------------------------------
 .byte   PATT
  .word Label_0110AD71
@  #07 @010   ----------------------------------------
 .byte   PATT
  .word Label_0110AD71
@  #07 @011   ----------------------------------------
 .byte   PATT
  .word Label_0110AD71
@  #07 @012   ----------------------------------------
 .byte   PATT
  .word Label_0110AD71
@  #07 @013   ----------------------------------------
 .byte   PATT
  .word Label_0110AD71
@  #07 @014   ----------------------------------------
 .byte   PATT
  .word Label_0110AD71
@  #07 @015   ----------------------------------------
 .byte   PATT
  .word Label_0110AD71
@  #07 @016   ----------------------------------------
 .byte   PATT
  .word Label_0110AD71
@  #07 @017   ----------------------------------------
 .byte   PATT
  .word Label_0110AD71
@  #07 @018   ----------------------------------------
 .byte   PATT
  .word Label_0110AD71
@  #07 @019   ----------------------------------------
 .byte   PATT
  .word Label_0110AD71
@  #07 @020   ----------------------------------------
 .byte   PATT
  .word Label_0110AD71
@  #07 @021   ----------------------------------------
 .byte   PATT
  .word Label_0110AD71
@  #07 @022   ----------------------------------------
 .byte   PATT
  .word Label_0110AD71
@  #07 @023   ----------------------------------------
 .byte   PATT
  .word Label_0110AD71
@  #07 @024   ----------------------------------------
 .byte   PATT
  .word Label_0110AD71
@  #07 @025   ----------------------------------------
 .byte   PATT
  .word Label_0110AD71
@  #07 @026   ----------------------------------------
 .byte   PATT
  .word Label_0110AD71
@  #07 @027   ----------------------------------------
 .byte   PATT
  .word Label_0110AD71
@  #07 @028   ----------------------------------------
 .byte   PATT
  .word Label_0110AD71
@  #07 @029   ----------------------------------------
 .byte   PATT
  .word Label_0110AD71
@  #07 @030   ----------------------------------------
 .byte   GOTO
  .word Label_0110AD4A
@  #07 @031   ----------------------------------------
 .byte   PATT
  .word Label_0110AD71
@  #07 @032   ----------------------------------------
 .byte   PATT
  .word Label_0110AD71
@  #07 @033   ----------------------------------------
 .byte   PATT
  .word Label_0110AD71
@  #07 @034   ----------------------------------------
 .byte   PATT
  .word Label_0110AD71
@  #07 @035   ----------------------------------------
 .byte   PATT
  .word Label_0110AD71
@  #07 @036   ----------------------------------------
 .byte   PATT
  .word Label_0110AD71
@  #07 @037   ----------------------------------------
 .byte   PATT
  .word Label_0110AD71
@  #07 @038   ----------------------------------------
 .byte   PATT
  .word Label_0110AD71
@  #07 @039   ----------------------------------------
 .byte   PATT
  .word Label_0110AD71
@  #07 @040   ----------------------------------------
 .byte   PATT
  .word Label_0110AD71
@  #07 @041   ----------------------------------------
 .byte   PATT
  .word Label_0110AD71
@  #07 @042   ----------------------------------------
 .byte   PATT
  .word Label_0110AD71
@  #07 @043   ----------------------------------------
 .byte   PATT
  .word Label_0110AD71
@  #07 @044   ----------------------------------------
 .byte   PATT
  .word Label_0110AD71
@  #07 @045   ----------------------------------------
 .byte   PATT
  .word Label_0110AD71
@  #07 @046   ----------------------------------------
 .byte   PATT
  .word Label_0110AD71
@  #07 @047   ----------------------------------------
 .byte   PATT
  .word Label_0110AD71
@  #07 @048   ----------------------------------------
 .byte   PATT
  .word Label_0110AD71
@  #07 @049   ----------------------------------------
 .byte   PATT
  .word Label_0110AD71
@  #07 @050   ----------------------------------------
 .byte   PATT
  .word Label_0110AD71
@  #07 @051   ----------------------------------------
 .byte   PATT
  .word Label_0110AD71
@  #07 @052   ----------------------------------------
 .byte   PATT
  .word Label_0110AD71
@  #07 @053   ----------------------------------------
 .byte   PATT
  .word Label_0110AD71
@  #07 @054   ----------------------------------------
 .byte   PATT
  .word Label_0110AD71
@  #07 @055   ----------------------------------------
 .byte   PATT
  .word Label_0110AD71
@  #07 @056   ----------------------------------------
 .byte   PATT
  .word Label_0110AD71
@  #07 @057   ----------------------------------------
 .byte   PATT
  .word Label_0110AD71
@  #07 @058   ----------------------------------------
 .byte   PATT
  .word Label_0110AD71
@  #07 @059   ----------------------------------------
 .byte   PATT
  .word Label_0110AD71
@  #07 @060   ----------------------------------------
 .byte   N11 ,En3 ,v052
 .byte   W12
 .byte   N05 ,Ds3
 .byte   W06
 .byte   Dn3
 .byte   W06
 .byte   N11 ,En3
 .byte   W12
 .byte   N05 ,Ds3
 .byte   W06
 .byte   Dn3
 .byte   W06
 .byte   N11 ,En3
 .byte   W12
 .byte   N05 ,Ds3
 .byte   W06
 .byte   Dn3
 .byte   W06
 .byte   N11 ,En3
 .byte   W12
 .byte   N05 ,Ds3
 .byte   W06
 .byte   Dn3
 .byte   W05
 .byte   FINE

@**************** Track 8 (Midi-Chn.7) ****************@

AWoman_008:
@  #08 @000   ----------------------------------------
 .byte   KEYSH , AWoman_key+0
Label_0110AEEA:
 .byte   VOICE , 124
 .byte   VOL , 31*AWoman_mvl/mxv
 .byte   PAN , c_v+0
 .byte   N32 ,Cn1 ,v080
 .byte   N11 ,Fs1
 .byte   W12
 .byte   N11
 .byte   W12
 .byte   Dn1
 .byte   N11 ,Fs1
 .byte   W12
 .byte   Cn1
 .byte   N11 ,Fs1
 .byte   W12
 .byte   Cn1
 .byte   N11 ,Fs1
 .byte   W12
 .byte   N11
 .byte   W12
 .byte   Dn1
 .byte   N11 ,Fs1
 .byte   W12
 .byte   N11
 .byte   W12
@  #08 @001   ----------------------------------------
Label_0110AF0C:
 .byte   N32 ,Cn1 ,v080
 .byte   N11 ,Fs1
 .byte   W12
 .byte   N11
 .byte   W12
 .byte   Dn1
 .byte   N11 ,Fs1
 .byte   W12
 .byte   Cn1
 .byte   N11 ,Fs1
 .byte   W12
 .byte   Cn1
 .byte   N11 ,Fs1
 .byte   W12
 .byte   N11
 .byte   W12
 .byte   Dn1
 .byte   N11 ,Fs1
 .byte   W12
 .byte   N11
 .byte   W12
 .byte   PEND 
@  #08 @002   ----------------------------------------
 .byte   PATT
  .word Label_0110AF0C
@  #08 @003   ----------------------------------------
 .byte   PATT
  .word Label_0110AF0C
@  #08 @004   ----------------------------------------
 .byte   PATT
  .word Label_0110AF0C
@  #08 @005   ----------------------------------------
 .byte   PATT
  .word Label_0110AF0C
@  #08 @006   ----------------------------------------
 .byte   PATT
  .word Label_0110AF0C
@  #08 @007   ----------------------------------------
 .byte   PATT
  .word Label_0110AF0C
@  #08 @008   ----------------------------------------
 .byte   PATT
  .word Label_0110AF0C
@  #08 @009   ----------------------------------------
 .byte   PATT
  .word Label_0110AF0C
@  #08 @010   ----------------------------------------
 .byte   PATT
  .word Label_0110AF0C
@  #08 @011   ----------------------------------------
 .byte   PATT
  .word Label_0110AF0C
@  #08 @012   ----------------------------------------
 .byte   PATT
  .word Label_0110AF0C
@  #08 @013   ----------------------------------------
 .byte   PATT
  .word Label_0110AF0C
@  #08 @014   ----------------------------------------
 .byte   PATT
  .word Label_0110AF0C
@  #08 @015   ----------------------------------------
 .byte   PATT
  .word Label_0110AF0C
@  #08 @016   ----------------------------------------
 .byte   PATT
  .word Label_0110AF0C
@  #08 @017   ----------------------------------------
 .byte   PATT
  .word Label_0110AF0C
@  #08 @018   ----------------------------------------
 .byte   PATT
  .word Label_0110AF0C
@  #08 @019   ----------------------------------------
 .byte   PATT
  .word Label_0110AF0C
@  #08 @020   ----------------------------------------
 .byte   PATT
  .word Label_0110AF0C
@  #08 @021   ----------------------------------------
 .byte   PATT
  .word Label_0110AF0C
@  #08 @022   ----------------------------------------
 .byte   PATT
  .word Label_0110AF0C
@  #08 @023   ----------------------------------------
 .byte   PATT
  .word Label_0110AF0C
@  #08 @024   ----------------------------------------
 .byte   PATT
  .word Label_0110AF0C
@  #08 @025   ----------------------------------------
 .byte   PATT
  .word Label_0110AF0C
@  #08 @026   ----------------------------------------
 .byte   PATT
  .word Label_0110AF0C
@  #08 @027   ----------------------------------------
 .byte   PATT
  .word Label_0110AF0C
@  #08 @028   ----------------------------------------
 .byte   PATT
  .word Label_0110AF0C
@  #08 @029   ----------------------------------------
 .byte   PATT
  .word Label_0110AF0C
@  #08 @030   ----------------------------------------
 .byte   GOTO
  .word Label_0110AEEA
@  #08 @031   ----------------------------------------
 .byte   PATT
  .word Label_0110AF0C
@  #08 @032   ----------------------------------------
 .byte   PATT
  .word Label_0110AF0C
@  #08 @033   ----------------------------------------
 .byte   PATT
  .word Label_0110AF0C
@  #08 @034   ----------------------------------------
 .byte   PATT
  .word Label_0110AF0C
@  #08 @035   ----------------------------------------
 .byte   PATT
  .word Label_0110AF0C
@  #08 @036   ----------------------------------------
 .byte   PATT
  .word Label_0110AF0C
@  #08 @037   ----------------------------------------
 .byte   PATT
  .word Label_0110AF0C
@  #08 @038   ----------------------------------------
 .byte   PATT
  .word Label_0110AF0C
@  #08 @039   ----------------------------------------
 .byte   PATT
  .word Label_0110AF0C
@  #08 @040   ----------------------------------------
 .byte   PATT
  .word Label_0110AF0C
@  #08 @041   ----------------------------------------
 .byte   PATT
  .word Label_0110AF0C
@  #08 @042   ----------------------------------------
 .byte   PATT
  .word Label_0110AF0C
@  #08 @043   ----------------------------------------
 .byte   PATT
  .word Label_0110AF0C
@  #08 @044   ----------------------------------------
 .byte   PATT
  .word Label_0110AF0C
@  #08 @045   ----------------------------------------
 .byte   PATT
  .word Label_0110AF0C
@  #08 @046   ----------------------------------------
 .byte   PATT
  .word Label_0110AF0C
@  #08 @047   ----------------------------------------
 .byte   PATT
  .word Label_0110AF0C
@  #08 @048   ----------------------------------------
 .byte   PATT
  .word Label_0110AF0C
@  #08 @049   ----------------------------------------
 .byte   PATT
  .word Label_0110AF0C
@  #08 @050   ----------------------------------------
 .byte   PATT
  .word Label_0110AF0C
@  #08 @051   ----------------------------------------
 .byte   PATT
  .word Label_0110AF0C
@  #08 @052   ----------------------------------------
 .byte   PATT
  .word Label_0110AF0C
@  #08 @053   ----------------------------------------
 .byte   PATT
  .word Label_0110AF0C
@  #08 @054   ----------------------------------------
 .byte   PATT
  .word Label_0110AF0C
@  #08 @055   ----------------------------------------
 .byte   PATT
  .word Label_0110AF0C
@  #08 @056   ----------------------------------------
 .byte   PATT
  .word Label_0110AF0C
@  #08 @057   ----------------------------------------
 .byte   PATT
  .word Label_0110AF0C
@  #08 @058   ----------------------------------------
 .byte   PATT
  .word Label_0110AF0C
@  #08 @059   ----------------------------------------
 .byte   PATT
  .word Label_0110AF0C
@  #08 @060   ----------------------------------------
 .byte   N32 ,Cn1 ,v080
 .byte   N11 ,Fs1
 .byte   W12
 .byte   N11
 .byte   W12
 .byte   Dn1
 .byte   N11 ,Fs1
 .byte   W12
 .byte   Cn1
 .byte   N11 ,Fs1
 .byte   W12
 .byte   Cn1
 .byte   N11 ,Fs1
 .byte   W12
 .byte   N11
 .byte   W12
 .byte   Dn1
 .byte   N11 ,Fs1
 .byte   W12
 .byte   N11
 .byte   W11
 .byte   FINE

@******************************************************@
	.align	2

AWoman:
	.byte	8	@ NumTrks
	.byte	0	@ NumBlks
	.byte	AWoman_pri	@ Priority
	.byte	AWoman_rev	@ Reverb.
    
	.word	AWoman_grp
    
	.word	AWoman_001
	.word	AWoman_002
	.word	AWoman_003
	.word	AWoman_004
	.word	AWoman_005
	.word	AWoman_006
	.word	AWoman_007
	.word	AWoman_008

	.end
