	.include "MPlayDef.s"

	.equ	song04_grp, voicegroup000
	.equ	song04_pri, 0
	.equ	song04_rev, 0
	.equ	song04_mvl, 127
	.equ	song04_key, 0
	.equ	song04_tbs, 1
	.equ	song04_exg, 0
	.equ	song04_cmp, 1

	.section .rodata
	.global	song04
	.align	2


@**************** Track 1 (Midi-Chn.0) ****************@

song04_001:
@  #01 @000   ----------------------------------------
 .byte   KEYSH , song04_key+0
 .byte   TEMPO , 120*song04_tbs/2
 .byte   VOICE , 107
 .byte   VOL , 47*song04_mvl/mxv
 .byte   PAN , c_v+0
 .byte   N05 ,Dn5 ,v108
 .byte   N05 ,Gn5
 .byte   W06
 .byte   Dn5
 .byte   N05 ,Gn5
 .byte   W06
 .byte   N11 ,Dn5
 .byte   N11 ,Gn5
 .byte   W12
 .byte   Bn4
 .byte   N11 ,En5
 .byte   W12
 .byte   Bn4
 .byte   N11 ,En5
 .byte   W12
 .byte   An4
 .byte   N11 ,Dn5
 .byte   W12
 .byte   An4
 .byte   N11 ,Dn5
 .byte   W12
 .byte   N20 ,Bn4
 .byte   N20 ,En5
 .byte   W24
@  #01 @001   ----------------------------------------
 .byte   W96
@  #01 @002   ----------------------------------------
 .byte   W96
@  #01 @003   ----------------------------------------
 .byte   W96
@  #01 @004   ----------------------------------------
Label_F704F9:
 .byte   N05 ,Gn4 ,v108
 .byte   W06
 .byte   An4
 .byte   W06
 .byte   N11 ,Gn4
 .byte   W12
 .byte   N05 ,En4
 .byte   W06
 .byte   Gn4
 .byte   W06
 .byte   N11 ,En4
 .byte   W12
 .byte   N05 ,Dn4
 .byte   W06
 .byte   En4
 .byte   W06
 .byte   N11 ,Dn4
 .byte   W12
 .byte   N05 ,Bn3
 .byte   W06
 .byte   An3
 .byte   W06
 .byte   N11 ,Gn3
 .byte   W12
 .byte   PEND 
@  #01 @005   ----------------------------------------
 .byte   W96
@  #01 @006   ----------------------------------------
 .byte   W96
@  #01 @007   ----------------------------------------
 .byte   W96
@  #01 @008   ----------------------------------------
 .byte   W96
@  #01 @009   ----------------------------------------
 .byte   W96
@  #01 @010   ----------------------------------------
 .byte   W96
@  #01 @011   ----------------------------------------
 .byte   W96
@  #01 @012   ----------------------------------------
 .byte   PATT
  .word Label_F704F9
@  #01 @013   ----------------------------------------
 .byte   W96
@  #01 @014   ----------------------------------------
 .byte   W96
@  #01 @015   ----------------------------------------
 .byte   W96
@  #01 @016   ----------------------------------------
 .byte   W96
@  #01 @017   ----------------------------------------
Label_F7052B:
 .byte   N32 ,An3 ,v108
 .byte   W36
 .byte   N11 ,Bn3
 .byte   W12
 .byte   N20 ,Dn4
 .byte   W24
 .byte   N11
 .byte   W12
 .byte   N05 ,En4
 .byte   W06
 .byte   Dn4
 .byte   W06
 .byte   PEND 
@  #01 @018   ----------------------------------------
Label_F7053D:
 .byte   N20 ,Bn3 ,v108
 .byte   W24
 .byte   N11 ,Dn4
 .byte   W12
 .byte   Bn3
 .byte   W12
 .byte   An3
 .byte   W12
 .byte   N05 ,Bn3
 .byte   W06
 .byte   An3
 .byte   W06
 .byte   N11 ,Gn3
 .byte   W12
 .byte   N05 ,En3
 .byte   W06
 .byte   Dn3
 .byte   W06
 .byte   PEND 
@  #01 @019   ----------------------------------------
Label_F70556:
 .byte   N42 ,Dn4 ,v108
 .byte   W48
 .byte   N32
 .byte   W36
 .byte   N11 ,Bn3
 .byte   W12
 .byte   PEND 
@  #01 @020   ----------------------------------------
 .byte   N90 ,Dn4
 .byte   W96
@  #01 @021   ----------------------------------------
Label_F70563:
 .byte   N32 ,En4 ,v108
 .byte   W36
 .byte   N11 ,Gn4
 .byte   W12
 .byte   N20 ,An4
 .byte   W24
 .byte   Gn4
 .byte   W24
 .byte   PEND 
@  #01 @022   ----------------------------------------
Label_F70570:
 .byte   N32 ,En4 ,v108
 .byte   W36
 .byte   N11 ,Dn4
 .byte   W12
 .byte   N20 ,Bn3
 .byte   W24
 .byte   N11 ,An3
 .byte   W12
 .byte   Gn3
 .byte   W12
 .byte   PEND 
@  #01 @023   ----------------------------------------
Label_F70580:
 .byte   N32 ,An3 ,v108
 .byte   W36
 .byte   N11 ,Bn3
 .byte   W12
 .byte   N20 ,Dn4
 .byte   W24
 .byte   En4
 .byte   W24
 .byte   PEND 
@  #01 @024   ----------------------------------------
 .byte   N66 ,Gn4
 .byte   W96
@  #01 @025   ----------------------------------------
 .byte   W96
@  #01 @026   ----------------------------------------
 .byte   W96
@  #01 @027   ----------------------------------------
 .byte   W96
@  #01 @028   ----------------------------------------
 .byte   GOTO
  .word Label_F704F9
@  #01 @029   ----------------------------------------
 .byte   PATT
  .word Label_F704F9
@  #01 @030   ----------------------------------------
 .byte   W96
@  #01 @031   ----------------------------------------
 .byte   W96
@  #01 @032   ----------------------------------------
 .byte   W96
@  #01 @033   ----------------------------------------
 .byte   W96
@  #01 @034   ----------------------------------------
 .byte   W96
@  #01 @035   ----------------------------------------
 .byte   W96
@  #01 @036   ----------------------------------------
 .byte   W96
@  #01 @037   ----------------------------------------
 .byte   PATT
  .word Label_F704F9
@  #01 @038   ----------------------------------------
 .byte   W96
@  #01 @039   ----------------------------------------
 .byte   W96
@  #01 @040   ----------------------------------------
 .byte   W96
@  #01 @041   ----------------------------------------
 .byte   W96
@  #01 @042   ----------------------------------------
 .byte   PATT
  .word Label_F7052B
@  #01 @043   ----------------------------------------
 .byte   PATT
  .word Label_F7053D
@  #01 @044   ----------------------------------------
 .byte   PATT
  .word Label_F70556
@  #01 @045   ----------------------------------------
 .byte   N90 ,Dn4 ,v108
 .byte   W96
@  #01 @046   ----------------------------------------
 .byte   PATT
  .word Label_F70563
@  #01 @047   ----------------------------------------
 .byte   PATT
  .word Label_F70570
@  #01 @048   ----------------------------------------
 .byte   PATT
  .word Label_F70580
@  #01 @049   ----------------------------------------
 .byte   N66 ,Gn4 ,v108
 .byte   W92
 .byte   W03
 .byte   FINE

@**************** Track 2 (Midi-Chn.1) ****************@

song04_002:
@  #02 @000   ----------------------------------------
 .byte   KEYSH , song04_key+0
 .byte   VOICE , 35
 .byte   VOL , 47*song04_mvl/mxv
 .byte   PAN , c_v+0
 .byte   W96
@  #02 @001   ----------------------------------------
Label_0100485D:
 .byte   N11 ,Gn1 ,v076
 .byte   W12
 .byte   N05 ,Gn2
 .byte   W06
 .byte   Dn2
 .byte   W06
 .byte   N11 ,Gn1
 .byte   W12
 .byte   Gn2
 .byte   W12
 .byte   Gn1
 .byte   W12
 .byte   N05 ,Gn2
 .byte   W06
 .byte   Dn2
 .byte   W06
 .byte   N11 ,Gn1
 .byte   W12
 .byte   Gn2
 .byte   W12
 .byte   PEND 
@  #02 @002   ----------------------------------------
Label_01004878:
 .byte   N11 ,Cn1 ,v076
 .byte   W12
 .byte   N05 ,Cn2
 .byte   W06
 .byte   Gn1
 .byte   W06
 .byte   N11 ,Cn1
 .byte   W12
 .byte   Cn2
 .byte   W12
 .byte   Cn1
 .byte   W12
 .byte   N05 ,Cn2
 .byte   W06
 .byte   Gn1
 .byte   W06
 .byte   N11 ,Cn1
 .byte   W12
 .byte   Cn2
 .byte   W12
 .byte   PEND 
@  #02 @003   ----------------------------------------
 .byte   PATT
  .word Label_0100485D
@  #02 @004   ----------------------------------------
Label_01004898:
@  #02 @005   ----------------------------------------
 .byte   PATT
  .word Label_01004878
@  #02 @006   ----------------------------------------
 .byte   PATT
  .word Label_0100485D
@  #02 @007   ----------------------------------------
 .byte   PATT
  .word Label_01004878
@  #02 @008   ----------------------------------------
Label_010048A7:
 .byte   N11 ,Dn1 ,v076
 .byte   W12
 .byte   N05 ,Dn2
 .byte   W06
 .byte   An1
 .byte   W06
 .byte   N11 ,Dn1
 .byte   W12
 .byte   Dn2
 .byte   W12
 .byte   Dn1
 .byte   W12
 .byte   N05 ,Dn2
 .byte   W06
 .byte   An1
 .byte   W06
 .byte   N11 ,Dn1
 .byte   W12
 .byte   Dn2
 .byte   W12
 .byte   PEND 
@  #02 @009   ----------------------------------------
Label_010048C2:
 .byte   N11 ,En1 ,v076
 .byte   W12
 .byte   N05 ,En2
 .byte   W06
 .byte   Bn1
 .byte   W06
 .byte   N11 ,En1
 .byte   W12
 .byte   En2
 .byte   W12
 .byte   En1
 .byte   W12
 .byte   N05 ,En2
 .byte   W06
 .byte   Bn1
 .byte   W06
 .byte   N11 ,En1
 .byte   W12
 .byte   En2
 .byte   W12
 .byte   PEND 
@  #02 @010   ----------------------------------------
 .byte   PATT
  .word Label_0100485D
@  #02 @011   ----------------------------------------
 .byte   PATT
  .word Label_01004878
@  #02 @012   ----------------------------------------
 .byte   PATT
  .word Label_0100485D
@  #02 @013   ----------------------------------------
 .byte   PATT
  .word Label_01004878
@  #02 @014   ----------------------------------------
 .byte   PATT
  .word Label_0100485D
@  #02 @015   ----------------------------------------
 .byte   PATT
  .word Label_01004878
@  #02 @016   ----------------------------------------
 .byte   PATT
  .word Label_010048A7
@  #02 @017   ----------------------------------------
 .byte   PATT
  .word Label_010048C2
@  #02 @018   ----------------------------------------
 .byte   PATT
  .word Label_010048A7
@  #02 @019   ----------------------------------------
 .byte   PATT
  .word Label_01004878
@  #02 @020   ----------------------------------------
Label_0100490F:
 .byte   N11 ,Bn1 ,v092
 .byte   W12
 .byte   N05 ,Bn2
 .byte   W06
 .byte   Fs2
 .byte   W06
 .byte   N11 ,Bn1
 .byte   W12
 .byte   Bn2
 .byte   W12
 .byte   Bn1
 .byte   W12
 .byte   N05 ,Bn2
 .byte   W06
 .byte   Fs2
 .byte   W06
 .byte   N11 ,Bn1
 .byte   W12
 .byte   Bn2
 .byte   W12
 .byte   PEND 
@  #02 @021   ----------------------------------------
 .byte   PATT
  .word Label_010048A7
@  #02 @022   ----------------------------------------
 .byte   N90 ,En1 ,v076
 .byte   W96
@  #02 @023   ----------------------------------------
 .byte   Cn1
 .byte   W96
@  #02 @024   ----------------------------------------
 .byte   Dn1
 .byte   W96
@  #02 @025   ----------------------------------------
 .byte   En1
 .byte   W96
@  #02 @026   ----------------------------------------
 .byte   PATT
  .word Label_0100485D
@  #02 @027   ----------------------------------------
 .byte   PATT
  .word Label_01004878
@  #02 @028   ----------------------------------------
 .byte   PATT
  .word Label_0100485D
@  #02 @029   ----------------------------------------
 .byte   GOTO
  .word Label_01004898
@  #02 @030   ----------------------------------------
 .byte   PATT
  .word Label_01004878
@  #02 @031   ----------------------------------------
 .byte   PATT
  .word Label_0100485D
@  #02 @032   ----------------------------------------
 .byte   PATT
  .word Label_01004878
@  #02 @033   ----------------------------------------
 .byte   PATT
  .word Label_010048A7
@  #02 @034   ----------------------------------------
 .byte   PATT
  .word Label_010048C2
@  #02 @035   ----------------------------------------
 .byte   PATT
  .word Label_0100485D
@  #02 @036   ----------------------------------------
 .byte   PATT
  .word Label_01004878
@  #02 @037   ----------------------------------------
 .byte   PATT
  .word Label_0100485D
@  #02 @038   ----------------------------------------
 .byte   PATT
  .word Label_01004878
@  #02 @039   ----------------------------------------
 .byte   PATT
  .word Label_0100485D
@  #02 @040   ----------------------------------------
 .byte   PATT
  .word Label_01004878
@  #02 @041   ----------------------------------------
 .byte   PATT
  .word Label_010048A7
@  #02 @042   ----------------------------------------
 .byte   PATT
  .word Label_010048C2
@  #02 @043   ----------------------------------------
 .byte   PATT
  .word Label_010048A7
@  #02 @044   ----------------------------------------
 .byte   PATT
  .word Label_01004878
@  #02 @045   ----------------------------------------
 .byte   PATT
  .word Label_0100490F
@  #02 @046   ----------------------------------------
 .byte   PATT
  .word Label_010048A7
@  #02 @047   ----------------------------------------
 .byte   N90 ,En1 ,v076
 .byte   W96
@  #02 @048   ----------------------------------------
 .byte   Cn1
 .byte   W96
@  #02 @049   ----------------------------------------
 .byte   Dn1
 .byte   W96
@  #02 @050   ----------------------------------------
 .byte   En1
 .byte   W92
 .byte   W03
 .byte   FINE

@**************** Track 3 (Midi-Chn.2) ****************@

song04_003:
@  #03 @000   ----------------------------------------
 .byte   KEYSH , song04_key+0
 .byte   VOICE , 77
 .byte   VOL , 47*song04_mvl/mxv
 .byte   PAN , c_v+0
 .byte   W96
@  #03 @001   ----------------------------------------
Label_010049C9:
 .byte   N32 ,Dn4 ,v108
 .byte   W36
 .byte   N11 ,En4
 .byte   W12
 .byte   N20 ,Gn4
 .byte   W24
 .byte   En4
 .byte   W24
 .byte   PEND 
@  #03 @002   ----------------------------------------
Label_010049D6:
 .byte   N20 ,Dn4 ,v108
 .byte   W24
 .byte   N11 ,En4
 .byte   W12
 .byte   Dn4
 .byte   W12
 .byte   N20 ,Bn3
 .byte   W24
 .byte   N11 ,An3
 .byte   W12
 .byte   Gn3
 .byte   W12
 .byte   PEND 
@  #03 @003   ----------------------------------------
Label_010049E8:
 .byte   N32 ,Dn4 ,v108
 .byte   W36
 .byte   N11 ,En4
 .byte   W12
 .byte   N20 ,Gn4
 .byte   W24
 .byte   N11 ,En4
 .byte   W12
 .byte   Dn4
 .byte   W12
 .byte   PEND 
@  #03 @004   ----------------------------------------
Label_010049F8:
 .byte   N66 ,En4 ,v108
 .byte   W96
@  #03 @005   ----------------------------------------
 .byte   PATT
  .word Label_010049C9
@  #03 @006   ----------------------------------------
 .byte   PATT
  .word Label_010049D6
@  #03 @007   ----------------------------------------
Label_01004A06:
 .byte   N32 ,An3 ,v108
 .byte   W36
 .byte   N11 ,Bn3
 .byte   W12
 .byte   An3
 .byte   W12
 .byte   Gn3
 .byte   W12
 .byte   En3
 .byte   W12
 .byte   Dn3
 .byte   W12
 .byte   PEND 
@  #03 @008   ----------------------------------------
 .byte   N90 ,En3
 .byte   W96
@  #03 @009   ----------------------------------------
 .byte   PATT
  .word Label_010049C9
@  #03 @010   ----------------------------------------
 .byte   PATT
  .word Label_010049D6
@  #03 @011   ----------------------------------------
 .byte   PATT
  .word Label_010049E8
@  #03 @012   ----------------------------------------
 .byte   N66 ,En4 ,v108
 .byte   W96
@  #03 @013   ----------------------------------------
 .byte   PATT
  .word Label_010049C9
@  #03 @014   ----------------------------------------
 .byte   PATT
  .word Label_010049D6
@  #03 @015   ----------------------------------------
 .byte   PATT
  .word Label_01004A06
@  #03 @016   ----------------------------------------
 .byte   N90 ,En3 ,v108
 .byte   W96
@  #03 @017   ----------------------------------------
Label_01004A3F:
 .byte   N32 ,An3 ,v108
 .byte   W36
 .byte   N11 ,Bn3
 .byte   W12
 .byte   N20 ,Dn4
 .byte   W24
 .byte   N11
 .byte   W12
 .byte   N05 ,En4
 .byte   W06
 .byte   Dn4
 .byte   W06
 .byte   PEND 
@  #03 @018   ----------------------------------------
Label_01004A51:
 .byte   N20 ,Bn3 ,v108
 .byte   W24
 .byte   N11 ,Dn4
 .byte   W12
 .byte   Bn3
 .byte   W12
 .byte   An3
 .byte   W12
 .byte   N05 ,Bn3
 .byte   W06
 .byte   An3
 .byte   W06
 .byte   N11 ,Gn3
 .byte   W12
 .byte   N05 ,En3
 .byte   W06
 .byte   Dn3
 .byte   W06
 .byte   PEND 
@  #03 @019   ----------------------------------------
Label_01004A6A:
 .byte   N42 ,Dn4 ,v108
 .byte   W48
 .byte   N32
 .byte   W36
 .byte   N11 ,Bn3
 .byte   W12
 .byte   PEND 
@  #03 @020   ----------------------------------------
 .byte   N90 ,Dn4
 .byte   W96
@  #03 @021   ----------------------------------------
Label_01004A77:
 .byte   N32 ,En4 ,v108
 .byte   W36
 .byte   N11 ,Gn4
 .byte   W12
 .byte   N20 ,An4
 .byte   W24
 .byte   Gn4
 .byte   W24
 .byte   PEND 
@  #03 @022   ----------------------------------------
Label_01004A84:
 .byte   N32 ,En4 ,v108
 .byte   W36
 .byte   N11 ,Dn4
 .byte   W12
 .byte   N20 ,Bn3
 .byte   W24
 .byte   N11 ,An3
 .byte   W12
 .byte   Gn3
 .byte   W12
 .byte   PEND 
@  #03 @023   ----------------------------------------
Label_01004A94:
 .byte   N32 ,An3 ,v108
 .byte   W36
 .byte   N11 ,Bn3
 .byte   W12
 .byte   N20 ,Dn4
 .byte   W24
 .byte   En4
 .byte   W24
 .byte   PEND 
@  #03 @024   ----------------------------------------
 .byte   N66 ,Gn4
 .byte   W96
@  #03 @025   ----------------------------------------
 .byte   PATT
  .word Label_010049C9
@  #03 @026   ----------------------------------------
 .byte   PATT
  .word Label_010049D6
@  #03 @027   ----------------------------------------
 .byte   PATT
  .word Label_010049E8
@  #03 @028   ----------------------------------------
 .byte   GOTO
  .word Label_010049F8
@  #03 @029   ----------------------------------------
 .byte   N66 ,En4 ,v108
 .byte   W96
@  #03 @030   ----------------------------------------
 .byte   PATT
  .word Label_010049C9
@  #03 @031   ----------------------------------------
 .byte   PATT
  .word Label_010049D6
@  #03 @032   ----------------------------------------
 .byte   PATT
  .word Label_01004A06
@  #03 @033   ----------------------------------------
 .byte   N90 ,En3 ,v108
 .byte   W96
@  #03 @034   ----------------------------------------
 .byte   PATT
  .word Label_010049C9
@  #03 @035   ----------------------------------------
 .byte   PATT
  .word Label_010049D6
@  #03 @036   ----------------------------------------
 .byte   PATT
  .word Label_010049E8
@  #03 @037   ----------------------------------------
 .byte   N66 ,En4 ,v108
 .byte   W96
@  #03 @038   ----------------------------------------
 .byte   PATT
  .word Label_010049C9
@  #03 @039   ----------------------------------------
 .byte   PATT
  .word Label_010049D6
@  #03 @040   ----------------------------------------
 .byte   PATT
  .word Label_01004A06
@  #03 @041   ----------------------------------------
 .byte   N90 ,En3 ,v108
 .byte   W96
@  #03 @042   ----------------------------------------
 .byte   PATT
  .word Label_01004A3F
@  #03 @043   ----------------------------------------
 .byte   PATT
  .word Label_01004A51
@  #03 @044   ----------------------------------------
 .byte   PATT
  .word Label_01004A6A
@  #03 @045   ----------------------------------------
 .byte   N90 ,Dn4 ,v108
 .byte   W96
@  #03 @046   ----------------------------------------
 .byte   PATT
  .word Label_01004A77
@  #03 @047   ----------------------------------------
 .byte   PATT
  .word Label_01004A84
@  #03 @048   ----------------------------------------
 .byte   PATT
  .word Label_01004A94
@  #03 @049   ----------------------------------------
 .byte   N66 ,Gn4 ,v108
 .byte   W92
 .byte   W03
 .byte   FINE

@**************** Track 4 (Midi-Chn.3) ****************@

song04_004:
@  #04 @000   ----------------------------------------
 .byte   KEYSH , song04_key+0
 .byte   VOICE , 106
 .byte   VOL , 47*song04_mvl/mxv
 .byte   PAN , c_v+0
 .byte   W96
@  #04 @001   ----------------------------------------
Label_F70065:
 .byte   N32 ,An3 ,v076
 .byte   W36
 .byte   N11 ,Bn3
 .byte   W12
 .byte   N20 ,Dn4
 .byte   W24
 .byte   Bn3
 .byte   W24
 .byte   PEND 
@  #04 @002   ----------------------------------------
Label_F70072:
 .byte   N20 ,An3 ,v076
 .byte   W24
 .byte   N11 ,Bn3
 .byte   W12
 .byte   An3
 .byte   W12
 .byte   N20 ,Gn3
 .byte   W24
 .byte   N11 ,En3
 .byte   W12
 .byte   Dn3
 .byte   W12
 .byte   PEND 
@  #04 @003   ----------------------------------------
Label_F70084:
 .byte   N32 ,An3 ,v076
 .byte   W36
 .byte   N11 ,Bn3
 .byte   W12
 .byte   N20 ,Dn4
 .byte   W24
 .byte   N11 ,Bn3
 .byte   W12
 .byte   An3
 .byte   W12
 .byte   PEND 
@  #04 @004   ----------------------------------------
Label_F70094:
 .byte   N90 ,Bn3 ,v076
 .byte   W96
@  #04 @005   ----------------------------------------
 .byte   PATT
  .word Label_F70065
@  #04 @006   ----------------------------------------
 .byte   PATT
  .word Label_F70072
@  #04 @007   ----------------------------------------
Label_F700A2:
 .byte   N32 ,En3 ,v076
 .byte   W36
 .byte   N11 ,Fs3
 .byte   W12
 .byte   En3
 .byte   W12
 .byte   Dn3
 .byte   W12
 .byte   Bn2
 .byte   W12
 .byte   An2
 .byte   W12
 .byte   PEND 
@  #04 @008   ----------------------------------------
 .byte   N90 ,Bn2
 .byte   W96
@  #04 @009   ----------------------------------------
 .byte   PATT
  .word Label_F70065
@  #04 @010   ----------------------------------------
 .byte   PATT
  .word Label_F70072
@  #04 @011   ----------------------------------------
 .byte   PATT
  .word Label_F70084
@  #04 @012   ----------------------------------------
 .byte   N90 ,Bn3 ,v076
 .byte   W96
@  #04 @013   ----------------------------------------
 .byte   PATT
  .word Label_F70065
@  #04 @014   ----------------------------------------
 .byte   PATT
  .word Label_F70072
@  #04 @015   ----------------------------------------
 .byte   PATT
  .word Label_F700A2
@  #04 @016   ----------------------------------------
 .byte   N90 ,Bn2 ,v076
 .byte   W96
@  #04 @017   ----------------------------------------
 .byte   W96
@  #04 @018   ----------------------------------------
 .byte   W96
@  #04 @019   ----------------------------------------
 .byte   W96
@  #04 @020   ----------------------------------------
 .byte   W96
@  #04 @021   ----------------------------------------
 .byte   W96
@  #04 @022   ----------------------------------------
 .byte   W96
@  #04 @023   ----------------------------------------
 .byte   W96
@  #04 @024   ----------------------------------------
 .byte   W96
@  #04 @025   ----------------------------------------
 .byte   PATT
  .word Label_F70065
@  #04 @026   ----------------------------------------
 .byte   PATT
  .word Label_F70072
@  #04 @027   ----------------------------------------
 .byte   PATT
  .word Label_F70084
@  #04 @028   ----------------------------------------
 .byte   GOTO
  .word Label_F70094
@  #04 @029   ----------------------------------------
 .byte   N90 ,Bn3 ,v076
 .byte   W96
@  #04 @030   ----------------------------------------
 .byte   PATT
  .word Label_F70065
@  #04 @031   ----------------------------------------
 .byte   PATT
  .word Label_F70072
@  #04 @032   ----------------------------------------
 .byte   PATT
  .word Label_F700A2
@  #04 @033   ----------------------------------------
 .byte   N90 ,Bn2 ,v076
 .byte   W96
@  #04 @034   ----------------------------------------
 .byte   PATT
  .word Label_F70065
@  #04 @035   ----------------------------------------
 .byte   PATT
  .word Label_F70072
@  #04 @036   ----------------------------------------
 .byte   PATT
  .word Label_F70084
@  #04 @037   ----------------------------------------
 .byte   N90 ,Bn3 ,v076
 .byte   W96
@  #04 @038   ----------------------------------------
 .byte   PATT
  .word Label_F70065
@  #04 @039   ----------------------------------------
 .byte   PATT
  .word Label_F70072
@  #04 @040   ----------------------------------------
 .byte   PATT
  .word Label_F700A2
@  #04 @041   ----------------------------------------
 .byte   N90 ,Bn2 ,v076
 .byte   W96
@  #04 @042   ----------------------------------------
 .byte   W96
@  #04 @043   ----------------------------------------
 .byte   W96
@  #04 @044   ----------------------------------------
 .byte   W96
@  #04 @045   ----------------------------------------
 .byte   W96
@  #04 @046   ----------------------------------------
 .byte   W96
@  #04 @047   ----------------------------------------
 .byte   W96
@  #04 @048   ----------------------------------------
 .byte   W96
@  #04 @049   ----------------------------------------
 .byte   W92
 .byte   W03
 .byte   FINE

@**************** Track 5 (Midi-Chn.4) ****************@

song04_005:
@  #05 @000   ----------------------------------------
 .byte   KEYSH , song04_key+0
 .byte   VOICE , 2
 .byte   VOL , 47*song04_mvl/mxv
 .byte   PAN , c_v+0
 .byte   W96
@  #05 @001   ----------------------------------------
Label_01004B39:
 .byte   N11 ,Gn1 ,v092
 .byte   W12
 .byte   N05 ,Gn2
 .byte   W06
 .byte   Dn2
 .byte   W06
 .byte   N11 ,Gn1
 .byte   W12
 .byte   Gn2
 .byte   W12
 .byte   Gn1
 .byte   W12
 .byte   N05 ,Gn2
 .byte   W06
 .byte   Dn2
 .byte   W06
 .byte   N11 ,Gn1
 .byte   W12
 .byte   Gn2
 .byte   W12
 .byte   PEND 
@  #05 @002   ----------------------------------------
Label_01004B54:
 .byte   N11 ,Cn1 ,v092
 .byte   W12
 .byte   N05 ,Cn2
 .byte   W06
 .byte   Gn1
 .byte   W06
 .byte   N11 ,Cn1
 .byte   W12
 .byte   Cn2
 .byte   W12
 .byte   Cn1
 .byte   W12
 .byte   N05 ,Cn2
 .byte   W06
 .byte   Gn1
 .byte   W06
 .byte   N11 ,Cn1
 .byte   W12
 .byte   Cn2
 .byte   W12
 .byte   PEND 
@  #05 @003   ----------------------------------------
 .byte   PATT
  .word Label_01004B39
@  #05 @004   ----------------------------------------
Label_01004B74:
@  #05 @005   ----------------------------------------
 .byte   PATT
  .word Label_01004B54
@  #05 @006   ----------------------------------------
 .byte   PATT
  .word Label_01004B39
@  #05 @007   ----------------------------------------
 .byte   PATT
  .word Label_01004B54
@  #05 @008   ----------------------------------------
Label_01004B83:
 .byte   N11 ,Dn1 ,v092
 .byte   W12
 .byte   N05 ,Dn2
 .byte   W06
 .byte   An1
 .byte   W06
 .byte   N11 ,Dn1
 .byte   W12
 .byte   Dn2
 .byte   W12
 .byte   Dn1
 .byte   W12
 .byte   N05 ,Dn2
 .byte   W06
 .byte   An1
 .byte   W06
 .byte   N11 ,Dn1
 .byte   W12
 .byte   Dn2
 .byte   W12
 .byte   PEND 
@  #05 @009   ----------------------------------------
Label_01004B9E:
 .byte   N11 ,En1 ,v092
 .byte   W12
 .byte   N05 ,En2
 .byte   W06
 .byte   Bn1
 .byte   W06
 .byte   N11 ,En1
 .byte   W12
 .byte   En2
 .byte   W12
 .byte   En1
 .byte   W12
 .byte   N05 ,En2
 .byte   W06
 .byte   Bn1
 .byte   W06
 .byte   N11 ,En1
 .byte   W12
 .byte   En2
 .byte   W12
 .byte   PEND 
@  #05 @010   ----------------------------------------
 .byte   PATT
  .word Label_01004B39
@  #05 @011   ----------------------------------------
 .byte   PATT
  .word Label_01004B54
@  #05 @012   ----------------------------------------
 .byte   PATT
  .word Label_01004B39
@  #05 @013   ----------------------------------------
 .byte   PATT
  .word Label_01004B54
@  #05 @014   ----------------------------------------
 .byte   PATT
  .word Label_01004B39
@  #05 @015   ----------------------------------------
 .byte   PATT
  .word Label_01004B54
@  #05 @016   ----------------------------------------
 .byte   PATT
  .word Label_01004B83
@  #05 @017   ----------------------------------------
 .byte   PATT
  .word Label_01004B9E
@  #05 @018   ----------------------------------------
 .byte   PATT
  .word Label_01004B83
@  #05 @019   ----------------------------------------
 .byte   PATT
  .word Label_01004B54
@  #05 @020   ----------------------------------------
Label_01004BEB:
 .byte   N11 ,Bn0 ,v076
 .byte   W12
 .byte   N05 ,Bn1
 .byte   W06
 .byte   Fs1
 .byte   W06
 .byte   N11 ,Bn0
 .byte   W12
 .byte   Bn1
 .byte   W12
 .byte   Bn0
 .byte   W12
 .byte   N05 ,Bn1
 .byte   W06
 .byte   Fs1
 .byte   W06
 .byte   N11 ,Bn0
 .byte   W12
 .byte   Bn1
 .byte   W12
 .byte   PEND 
@  #05 @021   ----------------------------------------
 .byte   PATT
  .word Label_01004B83
@  #05 @022   ----------------------------------------
 .byte   N90 ,En1 ,v092
 .byte   W96
@  #05 @023   ----------------------------------------
 .byte   Cn1
 .byte   W96
@  #05 @024   ----------------------------------------
 .byte   Dn1
 .byte   W96
@  #05 @025   ----------------------------------------
 .byte   En1
 .byte   W96
@  #05 @026   ----------------------------------------
 .byte   PATT
  .word Label_01004B39
@  #05 @027   ----------------------------------------
 .byte   PATT
  .word Label_01004B54
@  #05 @028   ----------------------------------------
 .byte   PATT
  .word Label_01004B39
@  #05 @029   ----------------------------------------
 .byte   GOTO
  .word Label_01004B74
@  #05 @030   ----------------------------------------
 .byte   PATT
  .word Label_01004B54
@  #05 @031   ----------------------------------------
 .byte   PATT
  .word Label_01004B39
@  #05 @032   ----------------------------------------
 .byte   PATT
  .word Label_01004B54
@  #05 @033   ----------------------------------------
 .byte   PATT
  .word Label_01004B83
@  #05 @034   ----------------------------------------
 .byte   PATT
  .word Label_01004B9E
@  #05 @035   ----------------------------------------
 .byte   PATT
  .word Label_01004B39
@  #05 @036   ----------------------------------------
 .byte   PATT
  .word Label_01004B54
@  #05 @037   ----------------------------------------
 .byte   PATT
  .word Label_01004B39
@  #05 @038   ----------------------------------------
 .byte   PATT
  .word Label_01004B54
@  #05 @039   ----------------------------------------
 .byte   PATT
  .word Label_01004B39
@  #05 @040   ----------------------------------------
 .byte   PATT
  .word Label_01004B54
@  #05 @041   ----------------------------------------
 .byte   PATT
  .word Label_01004B83
@  #05 @042   ----------------------------------------
 .byte   PATT
  .word Label_01004B9E
@  #05 @043   ----------------------------------------
 .byte   PATT
  .word Label_01004B83
@  #05 @044   ----------------------------------------
 .byte   PATT
  .word Label_01004B54
@  #05 @045   ----------------------------------------
 .byte   PATT
  .word Label_01004BEB
@  #05 @046   ----------------------------------------
 .byte   PATT
  .word Label_01004B83
@  #05 @047   ----------------------------------------
 .byte   N90 ,En1 ,v092
 .byte   W96
@  #05 @048   ----------------------------------------
 .byte   Cn1
 .byte   W96
@  #05 @049   ----------------------------------------
 .byte   Dn1
 .byte   W96
@  #05 @050   ----------------------------------------
 .byte   En1
 .byte   W92
 .byte   W03
 .byte   FINE

@**************** Track 6 (Midi-Chn.5) ****************@

song04_006:
@  #06 @000   ----------------------------------------
 .byte   KEYSH , song04_key+0
 .byte   VOICE , 1
 .byte   VOL , 47*song04_mvl/mxv
 .byte   PAN , c_v+0
 .byte   W96
@  #06 @001   ----------------------------------------
Label_01004CA5:
 .byte   N32 ,An3 ,v076
 .byte   W36
 .byte   N11 ,Bn3
 .byte   W12
 .byte   N20 ,Dn4
 .byte   W24
 .byte   Bn3
 .byte   W24
 .byte   PEND 
@  #06 @002   ----------------------------------------
Label_01004CB2:
 .byte   N20 ,An3 ,v076
 .byte   W24
 .byte   N11 ,Bn3
 .byte   W12
 .byte   An3
 .byte   W12
 .byte   N20 ,Gn3
 .byte   W24
 .byte   N11 ,En3
 .byte   W12
 .byte   Dn3
 .byte   W12
 .byte   PEND 
@  #06 @003   ----------------------------------------
Label_01004CC4:
 .byte   N32 ,An3 ,v076
 .byte   W36
 .byte   N11 ,Bn3
 .byte   W12
 .byte   N20 ,Dn4
 .byte   W24
 .byte   N11 ,Bn3
 .byte   W12
 .byte   An3
 .byte   W12
 .byte   PEND 
@  #06 @004   ----------------------------------------
Label_01004CD4:
 .byte   N90 ,Bn3 ,v076
 .byte   W96
@  #06 @005   ----------------------------------------
 .byte   PATT
  .word Label_01004CA5
@  #06 @006   ----------------------------------------
 .byte   PATT
  .word Label_01004CB2
@  #06 @007   ----------------------------------------
Label_01004CE2:
 .byte   N32 ,En3 ,v076
 .byte   W36
 .byte   N11 ,Fs3
 .byte   W12
 .byte   En3
 .byte   W12
 .byte   Dn3
 .byte   W12
 .byte   Bn2
 .byte   W12
 .byte   An2
 .byte   W12
 .byte   PEND 
@  #06 @008   ----------------------------------------
 .byte   N90 ,Bn2
 .byte   W96
@  #06 @009   ----------------------------------------
 .byte   PATT
  .word Label_01004CA5
@  #06 @010   ----------------------------------------
 .byte   PATT
  .word Label_01004CB2
@  #06 @011   ----------------------------------------
 .byte   PATT
  .word Label_01004CC4
@  #06 @012   ----------------------------------------
 .byte   N90 ,Bn3 ,v076
 .byte   W96
@  #06 @013   ----------------------------------------
 .byte   PATT
  .word Label_01004CA5
@  #06 @014   ----------------------------------------
 .byte   PATT
  .word Label_01004CB2
@  #06 @015   ----------------------------------------
 .byte   PATT
  .word Label_01004CE2
@  #06 @016   ----------------------------------------
 .byte   N90 ,Bn2 ,v076
 .byte   W96
@  #06 @017   ----------------------------------------
 .byte   W96
@  #06 @018   ----------------------------------------
 .byte   W96
@  #06 @019   ----------------------------------------
 .byte   W96
@  #06 @020   ----------------------------------------
 .byte   W96
@  #06 @021   ----------------------------------------
 .byte   W96
@  #06 @022   ----------------------------------------
 .byte   W96
@  #06 @023   ----------------------------------------
 .byte   W96
@  #06 @024   ----------------------------------------
 .byte   W96
@  #06 @025   ----------------------------------------
 .byte   PATT
  .word Label_01004CA5
@  #06 @026   ----------------------------------------
 .byte   PATT
  .word Label_01004CB2
@  #06 @027   ----------------------------------------
 .byte   PATT
  .word Label_01004CC4
@  #06 @028   ----------------------------------------
 .byte   GOTO
  .word Label_01004CD4
@  #06 @029   ----------------------------------------
 .byte   N90 ,Bn3 ,v076
 .byte   W96
@  #06 @030   ----------------------------------------
 .byte   PATT
  .word Label_01004CA5
@  #06 @031   ----------------------------------------
 .byte   PATT
  .word Label_01004CB2
@  #06 @032   ----------------------------------------
 .byte   PATT
  .word Label_01004CE2
@  #06 @033   ----------------------------------------
 .byte   N90 ,Bn2 ,v076
 .byte   W96
@  #06 @034   ----------------------------------------
 .byte   PATT
  .word Label_01004CA5
@  #06 @035   ----------------------------------------
 .byte   PATT
  .word Label_01004CB2
@  #06 @036   ----------------------------------------
 .byte   PATT
  .word Label_01004CC4
@  #06 @037   ----------------------------------------
 .byte   N90 ,Bn3 ,v076
 .byte   W96
@  #06 @038   ----------------------------------------
 .byte   PATT
  .word Label_01004CA5
@  #06 @039   ----------------------------------------
 .byte   PATT
  .word Label_01004CB2
@  #06 @040   ----------------------------------------
 .byte   PATT
  .word Label_01004CE2
@  #06 @041   ----------------------------------------
 .byte   N90 ,Bn2 ,v076
 .byte   W96
@  #06 @042   ----------------------------------------
 .byte   W96
@  #06 @043   ----------------------------------------
 .byte   W96
@  #06 @044   ----------------------------------------
 .byte   W96
@  #06 @045   ----------------------------------------
 .byte   W96
@  #06 @046   ----------------------------------------
 .byte   W96
@  #06 @047   ----------------------------------------
 .byte   W96
@  #06 @048   ----------------------------------------
 .byte   W96
@  #06 @049   ----------------------------------------
 .byte   W92
 .byte   W03
 .byte   FINE

@**************** Track 7 (Midi-Chn.6) ****************@

song04_007:
@  #07 @000   ----------------------------------------
 .byte   KEYSH , song04_key+0
 .byte   VOICE , 4
 .byte   VOL , 47*song04_mvl/mxv
 .byte   PAN , c_v+0
 .byte   W96
@  #07 @001   ----------------------------------------
Label_01004D99:
 .byte   N32 ,Dn4 ,v108
 .byte   W36
 .byte   N11 ,En4
 .byte   W12
 .byte   N20 ,Gn4
 .byte   W24
 .byte   En4
 .byte   W24
 .byte   PEND 
@  #07 @002   ----------------------------------------
Label_01004DA6:
 .byte   N20 ,Dn4 ,v108
 .byte   W24
 .byte   N11 ,En4
 .byte   W12
 .byte   Dn4
 .byte   W12
 .byte   N20 ,Bn3
 .byte   W24
 .byte   N11 ,An3
 .byte   W12
 .byte   Gn3
 .byte   W12
 .byte   PEND 
@  #07 @003   ----------------------------------------
Label_01004DB8:
 .byte   N32 ,Dn4 ,v108
 .byte   W36
 .byte   N11 ,En4
 .byte   W12
 .byte   N20 ,Gn4
 .byte   W24
 .byte   N11 ,En4
 .byte   W12
 .byte   Dn4
 .byte   W12
 .byte   PEND 
@  #07 @004   ----------------------------------------
Label_01004DC8:
 .byte   N66 ,En4 ,v108
 .byte   W96
@  #07 @005   ----------------------------------------
 .byte   PATT
  .word Label_01004D99
@  #07 @006   ----------------------------------------
 .byte   PATT
  .word Label_01004DA6
@  #07 @007   ----------------------------------------
Label_01004DD6:
 .byte   N32 ,An3 ,v108
 .byte   W36
 .byte   N11 ,Bn3
 .byte   W12
 .byte   An3
 .byte   W12
 .byte   Gn3
 .byte   W12
 .byte   En3
 .byte   W12
 .byte   Dn3
 .byte   W12
 .byte   PEND 
@  #07 @008   ----------------------------------------
 .byte   N90 ,En3
 .byte   W96
@  #07 @009   ----------------------------------------
 .byte   PATT
  .word Label_01004D99
@  #07 @010   ----------------------------------------
 .byte   PATT
  .word Label_01004DA6
@  #07 @011   ----------------------------------------
 .byte   PATT
  .word Label_01004DB8
@  #07 @012   ----------------------------------------
 .byte   N66 ,En4 ,v108
 .byte   W96
@  #07 @013   ----------------------------------------
 .byte   PATT
  .word Label_01004D99
@  #07 @014   ----------------------------------------
 .byte   PATT
  .word Label_01004DA6
@  #07 @015   ----------------------------------------
 .byte   PATT
  .word Label_01004DD6
@  #07 @016   ----------------------------------------
 .byte   N90 ,En3 ,v108
 .byte   W96
@  #07 @017   ----------------------------------------
Label_01004E0F:
 .byte   N32 ,An3 ,v108
 .byte   W36
 .byte   N11 ,Bn3
 .byte   W12
 .byte   N20 ,Dn4
 .byte   W24
 .byte   N11
 .byte   W12
 .byte   N05 ,En4
 .byte   W06
 .byte   Dn4
 .byte   W06
 .byte   PEND 
@  #07 @018   ----------------------------------------
Label_01004E21:
 .byte   N20 ,Bn3 ,v108
 .byte   W24
 .byte   N11 ,Dn4
 .byte   W12
 .byte   Bn3
 .byte   W12
 .byte   An3
 .byte   W12
 .byte   N05 ,Bn3
 .byte   W06
 .byte   An3
 .byte   W06
 .byte   N11 ,Gn3
 .byte   W12
 .byte   N05 ,En3
 .byte   W06
 .byte   Dn3
 .byte   W06
 .byte   PEND 
@  #07 @019   ----------------------------------------
Label_01004E3A:
 .byte   N42 ,Dn4 ,v108
 .byte   W48
 .byte   N32
 .byte   W36
 .byte   N11 ,Bn3
 .byte   W12
 .byte   PEND 
@  #07 @020   ----------------------------------------
 .byte   N90 ,Dn4
 .byte   W96
@  #07 @021   ----------------------------------------
Label_01004E47:
 .byte   N32 ,En4 ,v108
 .byte   W36
 .byte   N11 ,Gn4
 .byte   W12
 .byte   N20 ,An4
 .byte   W24
 .byte   Gn4
 .byte   W24
 .byte   PEND 
@  #07 @022   ----------------------------------------
Label_01004E54:
 .byte   N32 ,En4 ,v108
 .byte   W36
 .byte   N11 ,Dn4
 .byte   W12
 .byte   N20 ,Bn3
 .byte   W24
 .byte   N11 ,An3
 .byte   W12
 .byte   Gn3
 .byte   W12
 .byte   PEND 
@  #07 @023   ----------------------------------------
Label_01004E64:
 .byte   N32 ,An3 ,v108
 .byte   W36
 .byte   N11 ,Bn3
 .byte   W12
 .byte   N20 ,Dn4
 .byte   W24
 .byte   En4
 .byte   W24
 .byte   PEND 
@  #07 @024   ----------------------------------------
 .byte   N66 ,Gn4
 .byte   W96
@  #07 @025   ----------------------------------------
 .byte   PATT
  .word Label_01004D99
@  #07 @026   ----------------------------------------
 .byte   PATT
  .word Label_01004DA6
@  #07 @027   ----------------------------------------
 .byte   PATT
  .word Label_01004DB8
@  #07 @028   ----------------------------------------
 .byte   GOTO
  .word Label_01004DC8
@  #07 @029   ----------------------------------------
 .byte   N66 ,En4 ,v108
 .byte   W96
@  #07 @030   ----------------------------------------
 .byte   PATT
  .word Label_01004D99
@  #07 @031   ----------------------------------------
 .byte   PATT
  .word Label_01004DA6
@  #07 @032   ----------------------------------------
 .byte   PATT
  .word Label_01004DD6
@  #07 @033   ----------------------------------------
 .byte   N90 ,En3 ,v108
 .byte   W96
@  #07 @034   ----------------------------------------
 .byte   PATT
  .word Label_01004D99
@  #07 @035   ----------------------------------------
 .byte   PATT
  .word Label_01004DA6
@  #07 @036   ----------------------------------------
 .byte   PATT
  .word Label_01004DB8
@  #07 @037   ----------------------------------------
 .byte   N66 ,En4 ,v108
 .byte   W96
@  #07 @038   ----------------------------------------
 .byte   PATT
  .word Label_01004D99
@  #07 @039   ----------------------------------------
 .byte   PATT
  .word Label_01004DA6
@  #07 @040   ----------------------------------------
 .byte   PATT
  .word Label_01004DD6
@  #07 @041   ----------------------------------------
 .byte   N90 ,En3 ,v108
 .byte   W96
@  #07 @042   ----------------------------------------
 .byte   PATT
  .word Label_01004E0F
@  #07 @043   ----------------------------------------
 .byte   PATT
  .word Label_01004E21
@  #07 @044   ----------------------------------------
 .byte   PATT
  .word Label_01004E3A
@  #07 @045   ----------------------------------------
 .byte   N90 ,Dn4 ,v108
 .byte   W96
@  #07 @046   ----------------------------------------
 .byte   PATT
  .word Label_01004E47
@  #07 @047   ----------------------------------------
 .byte   PATT
  .word Label_01004E54
@  #07 @048   ----------------------------------------
 .byte   PATT
  .word Label_01004E64
@  #07 @049   ----------------------------------------
 .byte   N66 ,Gn4 ,v108
 .byte   W92
 .byte   W03
 .byte   FINE

@**************** Track 8 (Midi-Chn.7) ****************@

song04_008:
@  #08 @000   ----------------------------------------
 .byte   KEYSH , song04_key+0
 .byte   VOICE , 124
 .byte   VOL , 47*song04_mvl/mxv
 .byte   PAN , c_v+0
 .byte   W96
@  #08 @001   ----------------------------------------
Label_01004F09:
 .byte   N11 ,Cn1 ,v092
 .byte   N11 ,Fs1
 .byte   W12
 .byte   N05
 .byte   W06
 .byte   N05
 .byte   W06
 .byte   N11 ,Dn1
 .byte   N11 ,Fs1
 .byte   W12
 .byte   N05
 .byte   W06
 .byte   N05
 .byte   W06
 .byte   N11 ,Cn1
 .byte   N11 ,Fs1
 .byte   W12
 .byte   N05
 .byte   W06
 .byte   N05
 .byte   W06
 .byte   N11 ,Dn1
 .byte   N11 ,Fs1
 .byte   W12
 .byte   N05
 .byte   W06
 .byte   N05
 .byte   W06
 .byte   PEND 
@  #08 @002   ----------------------------------------
 .byte   PATT
  .word Label_01004F09
@  #08 @003   ----------------------------------------
 .byte   PATT
  .word Label_01004F09
@  #08 @004   ----------------------------------------
Label_01004F39:
@  #08 @005   ----------------------------------------
 .byte   PATT
  .word Label_01004F09
@  #08 @006   ----------------------------------------
 .byte   PATT
  .word Label_01004F09
@  #08 @007   ----------------------------------------
 .byte   PATT
  .word Label_01004F09
@  #08 @008   ----------------------------------------
 .byte   PATT
  .word Label_01004F09
@  #08 @009   ----------------------------------------
 .byte   PATT
  .word Label_01004F09
@  #08 @010   ----------------------------------------
 .byte   PATT
  .word Label_01004F09
@  #08 @011   ----------------------------------------
 .byte   PATT
  .word Label_01004F09
@  #08 @012   ----------------------------------------
 .byte   PATT
  .word Label_01004F09
@  #08 @013   ----------------------------------------
 .byte   PATT
  .word Label_01004F09
@  #08 @014   ----------------------------------------
 .byte   PATT
  .word Label_01004F09
@  #08 @015   ----------------------------------------
 .byte   PATT
  .word Label_01004F09
@  #08 @016   ----------------------------------------
 .byte   PATT
  .word Label_01004F09
@  #08 @017   ----------------------------------------
 .byte   PATT
  .word Label_01004F09
@  #08 @018   ----------------------------------------
 .byte   PATT
  .word Label_01004F09
@  #08 @019   ----------------------------------------
 .byte   PATT
  .word Label_01004F09
@  #08 @020   ----------------------------------------
 .byte   PATT
  .word Label_01004F09
@  #08 @021   ----------------------------------------
 .byte   PATT
  .word Label_01004F09
@  #08 @022   ----------------------------------------
Label_01004F8E:
 .byte   N11 ,Fs1 ,v092
 .byte   W12
 .byte   N05
 .byte   W06
 .byte   N05
 .byte   W06
 .byte   N11
 .byte   W12
 .byte   N05
 .byte   W06
 .byte   N05
 .byte   W06
 .byte   N05
 .byte   W06
 .byte   N05
 .byte   W06
 .byte   N05
 .byte   W06
 .byte   N05
 .byte   W06
 .byte   N05
 .byte   W06
 .byte   N11
 .byte   W12
 .byte   N05
 .byte   W06
 .byte   PEND 
@  #08 @023   ----------------------------------------
 .byte   PATT
  .word Label_01004F8E
@  #08 @024   ----------------------------------------
 .byte   PATT
  .word Label_01004F8E
@  #08 @025   ----------------------------------------
 .byte   N11 ,Fs1 ,v092
 .byte   W12
 .byte   N05
 .byte   W06
 .byte   N05
 .byte   W06
 .byte   N11 ,Dn1
 .byte   N11 ,Fs1
 .byte   W12
 .byte   N05
 .byte   W06
 .byte   N05
 .byte   W06
 .byte   Cn1
 .byte   N05 ,Fs1
 .byte   W06
 .byte   N05
 .byte   W06
 .byte   N05
 .byte   W06
 .byte   N05
 .byte   W06
 .byte   Dn1
 .byte   N05 ,Fs1
 .byte   W06
 .byte   N05
 .byte   W06
 .byte   Dn1
 .byte   W06
 .byte   Fs1
 .byte   W06
@  #08 @026   ----------------------------------------
 .byte   PATT
  .word Label_01004F09
@  #08 @027   ----------------------------------------
 .byte   PATT
  .word Label_01004F09
@  #08 @028   ----------------------------------------
 .byte   PATT
  .word Label_01004F09
@  #08 @029   ----------------------------------------
 .byte   GOTO
  .word Label_01004F39
@  #08 @030   ----------------------------------------
 .byte   PATT
  .word Label_01004F09
@  #08 @031   ----------------------------------------
 .byte   PATT
  .word Label_01004F09
@  #08 @032   ----------------------------------------
 .byte   PATT
  .word Label_01004F09
@  #08 @033   ----------------------------------------
 .byte   PATT
  .word Label_01004F09
@  #08 @034   ----------------------------------------
 .byte   PATT
  .word Label_01004F09
@  #08 @035   ----------------------------------------
 .byte   PATT
  .word Label_01004F09
@  #08 @036   ----------------------------------------
 .byte   PATT
  .word Label_01004F09
@  #08 @037   ----------------------------------------
 .byte   PATT
  .word Label_01004F09
@  #08 @038   ----------------------------------------
 .byte   PATT
  .word Label_01004F09
@  #08 @039   ----------------------------------------
 .byte   PATT
  .word Label_01004F09
@  #08 @040   ----------------------------------------
 .byte   PATT
  .word Label_01004F09
@  #08 @041   ----------------------------------------
 .byte   PATT
  .word Label_01004F09
@  #08 @042   ----------------------------------------
 .byte   PATT
  .word Label_01004F09
@  #08 @043   ----------------------------------------
 .byte   PATT
  .word Label_01004F09
@  #08 @044   ----------------------------------------
 .byte   PATT
  .word Label_01004F09
@  #08 @045   ----------------------------------------
 .byte   PATT
  .word Label_01004F09
@  #08 @046   ----------------------------------------
 .byte   PATT
  .word Label_01004F09
@  #08 @047   ----------------------------------------
 .byte   PATT
  .word Label_01004F8E
@  #08 @048   ----------------------------------------
 .byte   PATT
  .word Label_01004F8E
@  #08 @049   ----------------------------------------
 .byte   PATT
  .word Label_01004F8E
@  #08 @050   ----------------------------------------
 .byte   N11 ,Fs1 ,v092
 .byte   W12
 .byte   N05
 .byte   W06
 .byte   N05
 .byte   W06
 .byte   N11 ,Dn1
 .byte   N11 ,Fs1
 .byte   W12
 .byte   N05
 .byte   W06
 .byte   N05
 .byte   W06
 .byte   Cn1
 .byte   N05 ,Fs1
 .byte   W06
 .byte   N05
 .byte   W06
 .byte   N05
 .byte   W06
 .byte   N05
 .byte   W06
 .byte   Dn1
 .byte   N05 ,Fs1
 .byte   W06
 .byte   N05
 .byte   W06
 .byte   Dn1
 .byte   W06
 .byte   Fs1
 .byte   W05
 .byte   FINE

@******************************************************@
	.align	2

song04:
	.byte	8	@ NumTrks
	.byte	0	@ NumBlks
	.byte	song04_pri	@ Priority
	.byte	song04_rev	@ Reverb.
    
	.word	song04_grp
    
	.word	song04_001
	.word	song04_002
	.word	song04_003
	.word	song04_004
	.word	song04_005
	.word	song04_006
	.word	song04_007
	.word	song04_008

	.end
