	.include "MPlayDef.s"

	.equ	song04_grp, voicegroup000
	.equ	song04_pri, 10
	.equ	song04_rev, 0
	.equ	song04_mvl, 127
	.equ	song04_key, 0
	.equ	song04_tbs, 1
	.equ	song04_exg, 0
	.equ	song04_cmp, 1

	.section .rodata
	.global	song04
	.align	2


@**************** Track 1 (Midi-Chn.0) ****************@

song04_001:
@  #01 @000   ----------------------------------------
Label_01004E08:
 .byte   KEYSH , song04_key+0
 .byte   VOICE , 4
 .byte   VOL , 50*song04_mvl/mxv
 .byte   MODT 1
 .byte   VOL , 60*song04_mvl/mxv
 .byte   PAN , c_v+0
 .byte   W96
@  #01 @001   ----------------------------------------
 .byte   W96
@  #01 @002   ----------------------------------------
 .byte   W96
@  #01 @003   ----------------------------------------
 .byte   W96
@  #01 @004   ----------------------------------------
 .byte   W96
@  #01 @005   ----------------------------------------
 .byte   W96
@  #01 @006   ----------------------------------------
 .byte   W96
@  #01 @007   ----------------------------------------
 .byte   W96
@  #01 @008   ----------------------------------------
 .byte   W96
@  #01 @009   ----------------------------------------
 .byte   W96
@  #01 @010   ----------------------------------------
 .byte   W96
@  #01 @011   ----------------------------------------
 .byte   W96
@  #01 @012   ----------------------------------------
 .byte   W96
@  #01 @013   ----------------------------------------
 .byte   W96
@  #01 @014   ----------------------------------------
 .byte   W96
@  #01 @015   ----------------------------------------
 .byte   W96
@  #01 @016   ----------------------------------------
 .byte   W96
@  #01 @017   ----------------------------------------
 .byte   TIE ,En4 ,v127
 .byte   W96
@  #01 @018   ----------------------------------------
 .byte   W32
 .byte   EOT
 .byte   En4
 .byte   N32 ,Fs4 ,v127
 .byte   W32
 .byte   N32 ,En4 ,v127
 .byte   W32
@  #01 @019   ----------------------------------------
 .byte   N96 ,Ds4 ,v127
 .byte   W96
@  #01 @020   ----------------------------------------
 .byte   N72 ,Bn3 ,v127
 .byte   W72
 .byte   N24 ,Cs4 ,v127
 .byte   W24
@  #01 @021   ----------------------------------------
 .byte   TIE ,Dn4 ,v127
 .byte   W96
@  #01 @022   ----------------------------------------
 .byte   W32
 .byte   EOT
 .byte   Dn4
 .byte   N32 ,En4 ,v127
 .byte   W32
 .byte   N32 ,Dn4 ,v127
 .byte   W32
@  #01 @023   ----------------------------------------
 .byte   N96 ,Cs4 ,v127
 .byte   W96
@  #01 @024   ----------------------------------------
 .byte   N84 ,Fs3 ,v127
 .byte   W96
@  #01 @025   ----------------------------------------
 .byte   TIE ,En4 ,v127
 .byte   W96
@  #01 @026   ----------------------------------------
 .byte   W32
 .byte   EOT
 .byte   En4
 .byte   N32 ,Fs4 ,v127
 .byte   W32
 .byte   N32 ,En4 ,v127
 .byte   W32
@  #01 @027   ----------------------------------------
 .byte   N96 ,Ds4 ,v127
 .byte   W96
@  #01 @028   ----------------------------------------
 .byte   N72 ,Bn3 ,v127
 .byte   W72
 .byte   N24 ,Cs4 ,v127
 .byte   W24
@  #01 @029   ----------------------------------------
 .byte   TIE ,Dn4 ,v127
 .byte   W96
@  #01 @030   ----------------------------------------
 .byte   W32
 .byte   EOT
 .byte   Dn4
 .byte   N32 ,En4 ,v127
 .byte   W32
 .byte   N32 ,Dn4 ,v127
 .byte   W32
@  #01 @031   ----------------------------------------
 .byte   N96 ,Cs4 ,v127
 .byte   W96
@  #01 @032   ----------------------------------------
 .byte   N32 ,An3 ,v127
 .byte   W32
 .byte   N32 ,En4 ,v127
 .byte   W32
 .byte   N32 ,An4 ,v127
 .byte   W32
@  #01 @033   ----------------------------------------
 .byte   TIE ,Gn4 ,v127
 .byte   W96
@  #01 @034   ----------------------------------------
 .byte   W96
@  #01 @035   ----------------------------------------
 .byte   W96
@  #01 @036   ----------------------------------------
 .byte   W96
@  #01 @037   ----------------------------------------
 .byte   W96
@  #01 @038   ----------------------------------------
 .byte   W96
@  #01 @039   ----------------------------------------
 .byte   W96
@  #01 @040   ----------------------------------------
 .byte   W84
 .byte   EOT
 .byte   Gn4
 .byte   W12
@  #01 @041   ----------------------------------------
 .byte   N32 ,Gs3 ,v127
 .byte   W32
 .byte   N32 ,An3 ,v127
 .byte   W32
 .byte   TIE ,En3 ,v127
 .byte   W32
@  #01 @042   ----------------------------------------
 .byte   W96
@  #01 @043   ----------------------------------------
 .byte   EOT
 .byte   En3
 .byte   N32 ,Ds3 ,v127
 .byte   W32
 .byte   N32 ,En3 ,v127
 .byte   W32
 .byte   N32 ,Fs3 ,v127
 .byte   W32
@  #01 @044   ----------------------------------------
 .byte   N32 ,En3 ,v127
 .byte   W32
 .byte   N32 ,Ds3 ,v127
 .byte   W32
 .byte   N32 ,Cn3 ,v127
 .byte   W32
@  #01 @045   ----------------------------------------
 .byte   TIE ,Bn2 ,v127
 .byte   W96
@  #01 @046   ----------------------------------------
 .byte   W48
 .byte   EOT
 .byte   Bn2
 .byte   N24 ,An2 ,v127
 .byte   W24
 .byte   N24 ,Bn2 ,v127
 .byte   W24
@  #01 @047   ----------------------------------------
 .byte   N32 ,Ds3 ,v127
 .byte   W32
 .byte   N32 ,En3 ,v127
 .byte   W32
 .byte   TIE ,Fs3 ,v127
 .byte   W32
@  #01 @048   ----------------------------------------
 .byte   W96
@  #01 @049   ----------------------------------------
 .byte   EOT
 .byte   Fs3
 .byte   N32 ,Gs3 ,v127
 .byte   W32
 .byte   N32 ,An3 ,v127
 .byte   W32
 .byte   TIE ,En3 ,v127
 .byte   W32
@  #01 @050   ----------------------------------------
 .byte   W96
@  #01 @051   ----------------------------------------
 .byte   EOT
 .byte   En3
 .byte   N32 ,Fs3 ,v127
 .byte   W32
 .byte   N32 ,En3 ,v127
 .byte   W32
 .byte   N32 ,Ds3 ,v127
 .byte   W32
@  #01 @052   ----------------------------------------
 .byte   N32 ,Cn3 ,v127
 .byte   W32
 .byte   N32 ,Bn2 ,v127
 .byte   W32
 .byte   N32 ,An2 ,v127
 .byte   W32
@  #01 @053   ----------------------------------------
 .byte   N32 ,Gn2 ,v127
 .byte   W32
 .byte   N32 ,An2 ,v127
 .byte   W32
 .byte   TIE ,Bn2 ,v127
 .byte   W32
@  #01 @054   ----------------------------------------
 .byte   W96
@  #01 @055   ----------------------------------------
 .byte   EOT
 .byte   Bn2
 .byte   N32 ,Ds3 ,v127
 .byte   W32
 .byte   N32 ,En3 ,v127
 .byte   W32
 .byte   N80 ,Fs3 ,v127
 .byte   W32
@  #01 @056   ----------------------------------------
 .byte   W48
 .byte   N12 ,An3 ,v127
 .byte   W12
 .byte   N12 ,Ds4 ,v127
 .byte   W12
 .byte   N12 ,Fs4 ,v127
 .byte   W12
 .byte   N12 ,An4 ,v127
 .byte   W12
@  #01 @057   ----------------------------------------
 .byte   N32 ,Gs4 ,v127
 .byte   W32
 .byte   N32 ,An4 ,v127
 .byte   W32
 .byte   TIE ,En4 ,v127
 .byte   W32
@  #01 @058   ----------------------------------------
 .byte   W96
@  #01 @059   ----------------------------------------
 .byte   EOT
 .byte   En4
 .byte   N32 ,Ds4 ,v127
 .byte   W32
 .byte   N32 ,En4 ,v127
 .byte   W32
 .byte   N32 ,Fs4 ,v127
 .byte   W32
@  #01 @060   ----------------------------------------
 .byte   N32 ,En4 ,v127
 .byte   W32
 .byte   N32 ,Ds4 ,v127
 .byte   W32
 .byte   N32 ,Cn4 ,v127
 .byte   W32
@  #01 @061   ----------------------------------------
 .byte   TIE ,Bn3 ,v127
 .byte   W96
@  #01 @062   ----------------------------------------
 .byte   W48
 .byte   EOT
 .byte   Bn3
 .byte   N24 ,An3 ,v127
 .byte   W24
 .byte   N24 ,Bn3 ,v127
 .byte   W24
@  #01 @063   ----------------------------------------
 .byte   N32 ,Ds4 ,v127
 .byte   W32
 .byte   N32 ,En4 ,v127
 .byte   W32
 .byte   TIE ,Fs4 ,v127
 .byte   W32
@  #01 @064   ----------------------------------------
 .byte   W96
@  #01 @065   ----------------------------------------
 .byte   EOT
 .byte   Fs4
 .byte   N32 ,Gs4 ,v127
 .byte   W32
 .byte   N32 ,An4 ,v127
 .byte   W32
 .byte   TIE ,En4 ,v127
 .byte   W32
@  #01 @066   ----------------------------------------
 .byte   W96
@  #01 @067   ----------------------------------------
 .byte   EOT
 .byte   En4
 .byte   N32 ,Fs4 ,v127
 .byte   W32
 .byte   N32 ,En4 ,v127
 .byte   W32
 .byte   N32 ,Ds4 ,v127
 .byte   W32
@  #01 @068   ----------------------------------------
 .byte   N32 ,Cn4 ,v127
 .byte   W32
 .byte   N32 ,Bn3 ,v127
 .byte   W32
 .byte   N32 ,An3 ,v127
 .byte   W32
@  #01 @069   ----------------------------------------
 .byte   N32 ,Gn3 ,v127
 .byte   W32
 .byte   N32 ,An3 ,v127
 .byte   W32
 .byte   TIE ,Bn3 ,v127
 .byte   W32
@  #01 @070   ----------------------------------------
 .byte   W96
@  #01 @071   ----------------------------------------
 .byte   EOT
 .byte   Bn3
 .byte   N32 ,Ds4 ,v127
 .byte   W32
 .byte   N32 ,En4 ,v127
 .byte   W32
 .byte   TIE ,Fs4 ,v127
 .byte   W32
@  #01 @072   ----------------------------------------
 .byte   W84
 .byte   EOT
 .byte   Fs4
 .byte   W12
@  #01 @073   ----------------------------------------
 .byte   N08 ,En4 ,v127
 .byte   W24
 .byte   N08 ,Dn4 ,v127
 .byte   W24
 .byte   N08 ,En4 ,v127
 .byte   W24
 .byte   N08 ,Dn4 ,v127
 .byte   W24
@  #01 @074   ----------------------------------------
 .byte   N08 ,En4 ,v127
 .byte   W12
 .byte   N08 ,En4 ,v127
 .byte   W24
 .byte   N08 ,Dn4 ,v127
 .byte   W12
 .byte   N08 ,En4 ,v127
 .byte   W24
 .byte   N08 ,Gn4 ,v127
 .byte   W24
@  #01 @075   ----------------------------------------
 .byte   N30 ,Fs4 ,v127 ,gtp1
 .byte   W32
 .byte   N30 ,Gn4 ,v127 ,gtp1
 .byte   W32
 .byte   N30 ,An4 ,v127 ,gtp1
 .byte   W32
@  #01 @076   ----------------------------------------
 .byte   N11 ,Gn4 ,v127
 .byte   W12
 .byte   N11 ,Fs4 ,v127
 .byte   W12
 .byte   N11 ,Dn4 ,v127
 .byte   W12
 .byte   N11 ,Cn4 ,v127
 .byte   W12
 .byte   N11 ,Dn4 ,v127
 .byte   W12
 .byte   N11 ,Cn4 ,v127
 .byte   W12
 .byte   N11 ,Bn3 ,v127
 .byte   W12
 .byte   N11 ,An3 ,v127
 .byte   W12
@  #01 @077   ----------------------------------------
 .byte   N08 ,Bn3 ,v127
 .byte   W24
 .byte   N08 ,An3 ,v127
 .byte   W24
 .byte   N08 ,Bn3 ,v127
 .byte   W24
 .byte   N08 ,An3 ,v127
 .byte   W24
@  #01 @078   ----------------------------------------
 .byte   N08 ,Bn3 ,v127
 .byte   W12
 .byte   N08 ,Bn3 ,v127
 .byte   W24
 .byte   N08 ,Bn3 ,v127
 .byte   W12
 .byte   N08 ,An3 ,v127
 .byte   W24
 .byte   N08 ,Bn3 ,v127
 .byte   W24
@  #01 @079   ----------------------------------------
 .byte   N64 ,Cn4 ,v127
 .byte   W72
 .byte   TIE ,Bn3 ,v127
 .byte   W24
@  #01 @080   ----------------------------------------
 .byte   W88
 .byte   EOT
 .byte   Bn3
 .byte   W08
@  #01 @081   ----------------------------------------
 .byte   N08 ,En4 ,v127
 .byte   W24
 .byte   N08 ,Dn4 ,v127
 .byte   W24
 .byte   N08 ,En4 ,v127
 .byte   W24
 .byte   N08 ,Dn4 ,v127
 .byte   W24
@  #01 @082   ----------------------------------------
 .byte   N08 ,En4 ,v127
 .byte   W12
 .byte   N08 ,En4 ,v127
 .byte   W24
 .byte   N11 ,Dn4 ,v127
 .byte   W12
 .byte   N08 ,En4 ,v127
 .byte   W24
 .byte   N08 ,Dn4 ,v127
 .byte   W24
@  #01 @083   ----------------------------------------
 .byte   N08 ,En4 ,v127
 .byte   W24
 .byte   N08 ,Dn4 ,v127
 .byte   W24
 .byte   N08 ,En4 ,v127
 .byte   W24
 .byte   N08 ,Dn4 ,v127
 .byte   W24
@  #01 @084   ----------------------------------------
 .byte   N08 ,En4 ,v127
 .byte   W12
 .byte   N08 ,En4 ,v127
 .byte   W24
 .byte   N11 ,Dn4 ,v127
 .byte   W12
 .byte   N08 ,En4 ,v127
 .byte   W24
 .byte   N08 ,Gn4 ,v127
 .byte   W24
@  #01 @085   ----------------------------------------
 .byte   N11 ,Fs4 ,v127
 .byte   W12
 .byte   N11 ,Gn4 ,v127
 .byte   W12
 .byte   N11 ,Bn4 ,v127
 .byte   W12
 .byte   N11 ,An4 ,v127
 .byte   W12
 .byte   N11 ,Gn4 ,v127
 .byte   W12
 .byte   N11 ,Fs4 ,v127
 .byte   W12
 .byte   N11 ,En4 ,v127
 .byte   W12
 .byte   N11 ,Ds4 ,v127
 .byte   W12
@  #01 @086   ----------------------------------------
 .byte   N11 ,Bn3 ,v127
 .byte   W12
 .byte   N11 ,Cn4 ,v127
 .byte   W12
 .byte   N11 ,Ds4 ,v127
 .byte   W12
 .byte   N11 ,En4 ,v127
 .byte   W12
 .byte   N11 ,Fs4 ,v127
 .byte   W12
 .byte   N11 ,En4 ,v127
 .byte   W12
 .byte   N11 ,Ds4 ,v127
 .byte   W12
 .byte   N11 ,Cn4 ,v127
 .byte   W12
@  #01 @087   ----------------------------------------
 .byte   N84 ,Bn3 ,v127
 .byte   W96
@  #01 @088   ----------------------------------------
 .byte   N40 ,Cn4 ,v127
 .byte   W48
 .byte   N40 ,Dn4 ,v127
 .byte   W48
@  #01 @089   ----------------------------------------
 .byte   N32 ,Gs4 ,v127
 .byte   W32
 .byte   N32 ,An4 ,v127
 .byte   W32
 .byte   TIE ,En4 ,v127
 .byte   W32
@  #01 @090   ----------------------------------------
 .byte   W96
@  #01 @091   ----------------------------------------
 .byte   EOT
 .byte   En4
 .byte   N32 ,Ds4 ,v127
 .byte   W32
 .byte   N32 ,En4 ,v127
 .byte   W32
 .byte   N32 ,Fs4 ,v127
 .byte   W32
@  #01 @092   ----------------------------------------
 .byte   N32 ,En4 ,v127
 .byte   W32
 .byte   N32 ,Ds4 ,v127
 .byte   W32
 .byte   N32 ,Cn4 ,v127
 .byte   W32
@  #01 @093   ----------------------------------------
 .byte   TIE ,Bn3 ,v127
 .byte   W96
@  #01 @094   ----------------------------------------
 .byte   W48
 .byte   EOT
 .byte   Bn3
 .byte   N24 ,An3 ,v127
 .byte   W24
 .byte   N24 ,Bn3 ,v127
 .byte   W24
@  #01 @095   ----------------------------------------
 .byte   N32 ,Ds4 ,v127
 .byte   W32
 .byte   N32 ,En4 ,v127
 .byte   W32
 .byte   TIE ,Fs4 ,v127
 .byte   W32
@  #01 @096   ----------------------------------------
 .byte   W96
@  #01 @097   ----------------------------------------
 .byte   EOT
 .byte   Fs4
 .byte   N32 ,Gs4 ,v127
 .byte   W32
 .byte   N32 ,An4 ,v127
 .byte   W32
 .byte   TIE ,En4 ,v127
 .byte   W32
@  #01 @098   ----------------------------------------
 .byte   W96
@  #01 @099   ----------------------------------------
 .byte   EOT
 .byte   En4
 .byte   N32 ,Fs4 ,v127
 .byte   W32
 .byte   N32 ,En4 ,v127
 .byte   W32
 .byte   N32 ,Ds4 ,v127
 .byte   W32
@  #01 @100   ----------------------------------------
 .byte   N32 ,Cn4 ,v127
 .byte   W32
 .byte   N32 ,Bn3 ,v127
 .byte   W32
 .byte   N32 ,An3 ,v127
 .byte   W32
@  #01 @101   ----------------------------------------
 .byte   N32 ,Gn3 ,v127
 .byte   W32
 .byte   N32 ,An3 ,v127
 .byte   W32
 .byte   TIE ,Bn3 ,v127
 .byte   W32
@  #01 @102   ----------------------------------------
 .byte   W96
@  #01 @103   ----------------------------------------
 .byte   EOT
 .byte   Bn3
 .byte   N32 ,Ds4 ,v127
 .byte   W32
 .byte   N32 ,En4 ,v127
 .byte   W32
 .byte   TIE ,Fs4 ,v127
 .byte   W32
@  #01 @104   ----------------------------------------
 .byte   W84
 .byte   EOT
 .byte   Fs4
 .byte   W96
@  #01 @105   ----------------------------------------
 .byte   W12
 .byte   W96
@  #01 @106   ----------------------------------------
 .byte   W96
@  #01 @107   ----------------------------------------
 .byte   W96
@  #01 @108   ----------------------------------------
 .byte   W96
@  #01 @109   ----------------------------------------
 .byte   W96
@  #01 @110   ----------------------------------------
 .byte   N96 ,En4 ,v127
 .byte   W96
@  #01 @111   ----------------------------------------
 .byte   N96 ,Ds4 ,v127
 .byte   W96
@  #01 @112   ----------------------------------------
 .byte   N96 ,Cn4 ,v127
 .byte   W96
@  #01 @113   ----------------------------------------
 .byte   N96 ,Bn3 ,v127
 .byte   W96
@  #01 @114   ----------------------------------------
 .byte   N96 ,An3 ,v127
 .byte   W96
@  #01 @115   ----------------------------------------
 .byte   N96 ,Gn3 ,v127
 .byte   W96
@  #01 @116   ----------------------------------------
 .byte   N96 ,An3 ,v127
 .byte   W96
@  #01 @117   ----------------------------------------
 .byte   N96 ,Cn4 ,v127
 .byte   W96
@  #01 @118   ----------------------------------------
 .byte   TIE ,Dn4 ,v127
 .byte   W96
@  #01 @119   ----------------------------------------
 .byte   W84
 .byte   EOT
 .byte   Dn4
 .byte   W12
@  #01 @120   ----------------------------------------
 .byte   N11 ,En3 ,v127
 .byte   W12
 .byte   N11 ,Fs3 ,v127
 .byte   W12
 .byte   N23 ,Gn3 ,v127
 .byte   W48
 .byte   N11 ,An3 ,v127
 .byte   W12
 .byte   N11 ,Bn3 ,v127
 .byte   W12
@  #01 @121   ----------------------------------------
 .byte   N23 ,Cn4 ,v127
 .byte   W48
 .byte   N11 ,Dn4 ,v127
 .byte   W12
 .byte   N11 ,En4 ,v127
 .byte   W12
 .byte   N11 ,Fs4 ,v127
 .byte   W12
 .byte   N11 ,Gn4 ,v127
 .byte   W12
@  #01 @122   ----------------------------------------
 .byte   N32 ,Fs4 ,v127
 .byte   W32
 .byte   N32 ,Bn3 ,v127
 .byte   W32
 .byte   N32 ,Ds4 ,v127
 .byte   W32
@  #01 @123   ----------------------------------------
 .byte   N32 ,An4 ,v127
 .byte   W32
 .byte   N32 ,Gn4 ,v127
 .byte   W32
 .byte   N32 ,Fs4 ,v127
 .byte   W32
@  #01 @124   ----------------------------------------
 .byte   N32 ,En4 ,v127
 .byte   W32
 .byte   N32 ,Dn4 ,v127
 .byte   W32
 .byte   N32 ,Cn4 ,v127
 .byte   W32
@  #01 @125   ----------------------------------------
 .byte   N32 ,Bn3 ,v127
 .byte   W32
 .byte   N32 ,An3 ,v127
 .byte   W32
 .byte   N32 ,Gn3 ,v127
 .byte   W32
@  #01 @126   ----------------------------------------
 .byte   N11 ,Cn4 ,v127
 .byte   W12
 .byte   N11 ,Bn3 ,v127
 .byte   W12
 .byte   N11 ,An3 ,v127
 .byte   W12
 .byte   N11 ,Bn3 ,v127
 .byte   W12
 .byte   N11 ,Ds4 ,v127
 .byte   W12
 .byte   N11 ,Cn4 ,v127
 .byte   W12
 .byte   N11 ,Bn3 ,v127
 .byte   W12
 .byte   N11 ,Ds4 ,v127
 .byte   W12
@  #01 @127   ----------------------------------------
 .byte   N11 ,Fs4 ,v127
 .byte   W12
 .byte   N11 ,En4 ,v127
 .byte   W12
 .byte   N11 ,Ds4 ,v127
 .byte   W12
 .byte   N11 ,Fs4 ,v127
 .byte   W12
 .byte   N11 ,An4 ,v127
 .byte   W12
 .byte   N11 ,Gn4 ,v127
 .byte   W12
 .byte   N11 ,Fs4 ,v127
 .byte   W12
 .byte   N11 ,An4 ,v127
 .byte   W12
@  #01 @128   ----------------------------------------
 .byte   N11 ,En3 ,v127
 .byte   W12
 .byte   N11 ,Fs3 ,v127
 .byte   W12
 .byte   N23 ,Gn3 ,v127
 .byte   W48
 .byte   N11 ,An3 ,v127
 .byte   W12
 .byte   N11 ,Bn3 ,v127
 .byte   W12
@  #01 @129   ----------------------------------------
 .byte   N23 ,Cn4 ,v127
 .byte   W48
 .byte   N11 ,Dn4 ,v127
 .byte   W12
 .byte   N11 ,En4 ,v127
 .byte   W12
 .byte   N11 ,Fs4 ,v127
 .byte   W12
 .byte   N11 ,Gn4 ,v127
 .byte   W12
@  #01 @130   ----------------------------------------
 .byte   N32 ,Fs4 ,v127
 .byte   W32
 .byte   N32 ,Bn3 ,v127
 .byte   W32
 .byte   N32 ,Ds4 ,v127
 .byte   W32
@  #01 @131   ----------------------------------------
 .byte   N32 ,An4 ,v127
 .byte   W32
 .byte   N32 ,Gn4 ,v127
 .byte   W32
 .byte   N32 ,Fs4 ,v127
 .byte   W32
@  #01 @132   ----------------------------------------
 .byte   N32 ,En4 ,v127
 .byte   W32
 .byte   N32 ,Dn4 ,v127
 .byte   W32
 .byte   N32 ,Cn4 ,v127
 .byte   W32
@  #01 @133   ----------------------------------------
 .byte   N32 ,Bn3 ,v127
 .byte   W32
 .byte   N32 ,An3 ,v127
 .byte   W32
 .byte   N32 ,Gn3 ,v127
 .byte   W32
@  #01 @134   ----------------------------------------
 .byte   N11 ,Ds4 ,v127
 .byte   W12
 .byte   N11 ,Cn4 ,v127
 .byte   W12
 .byte   N11 ,An3 ,v127
 .byte   W12
 .byte   N11 ,Fs4 ,v127
 .byte   W12
 .byte   N11 ,En4 ,v127
 .byte   W12
 .byte   N11 ,Dn4 ,v127
 .byte   W12
 .byte   N11 ,Bn3 ,v127
 .byte   W12
 .byte   N11 ,Gn4 ,v127
 .byte   W12
@  #01 @135   ----------------------------------------
 .byte   N11 ,Fs4 ,v127
 .byte   W12
 .byte   N11 ,En4 ,v127
 .byte   W12
 .byte   N11 ,Cn4 ,v127
 .byte   W12
 .byte   N11 ,An4 ,v127
 .byte   W12
 .byte   N11 ,Gn4 ,v127
 .byte   W12
 .byte   N11 ,Fs4 ,v127
 .byte   W12
 .byte   N11 ,Ds4 ,v127
 .byte   W12
 .byte   N11 ,Bn4 ,v127
 .byte   W12
@  #01 @136   ----------------------------------------
 .byte   N08 ,En4 ,v127
 .byte   W24
 .byte   N08 ,Dn4 ,v127
 .byte   W24
 .byte   N08 ,En4 ,v127
 .byte   W24
 .byte   N08 ,Dn4 ,v127
 .byte   W24
@  #01 @137   ----------------------------------------
 .byte   N08 ,En4 ,v127
 .byte   W12
 .byte   N08 ,En4 ,v127
 .byte   W24
 .byte   N08 ,Dn4 ,v127
 .byte   W12
 .byte   N08 ,En4 ,v127
 .byte   W24
 .byte   N08 ,Gn4 ,v127
 .byte   W24
@  #01 @138   ----------------------------------------
 .byte   N30 ,Fs4 ,v127 ,gtp1
 .byte   W32
 .byte   N30 ,Gn4 ,v127 ,gtp1
 .byte   W32
 .byte   N30 ,An4 ,v127 ,gtp1
 .byte   W32
@  #01 @139   ----------------------------------------
 .byte   N11 ,Gn4 ,v127
 .byte   W12
 .byte   N11 ,Fs4 ,v127
 .byte   W12
 .byte   N11 ,Dn4 ,v127
 .byte   W12
 .byte   N11 ,Cn4 ,v127
 .byte   W12
 .byte   N11 ,Dn4 ,v127
 .byte   W12
 .byte   N11 ,Cn4 ,v127
 .byte   W12
 .byte   N11 ,Bn3 ,v127
 .byte   W12
 .byte   N11 ,An3 ,v127
 .byte   W12
@  #01 @140   ----------------------------------------
 .byte   N08 ,Bn3 ,v127
 .byte   W24
 .byte   N08 ,An3 ,v127
 .byte   W24
 .byte   N08 ,Bn3 ,v127
 .byte   W24
 .byte   N08 ,An3 ,v127
 .byte   W24
@  #01 @141   ----------------------------------------
 .byte   N08 ,Bn3 ,v127
 .byte   W12
 .byte   N08 ,Bn3 ,v127
 .byte   W24
 .byte   N08 ,Bn3 ,v127
 .byte   W12
 .byte   N08 ,An3 ,v127
 .byte   W24
 .byte   N08 ,Bn3 ,v127
 .byte   W24
@  #01 @142   ----------------------------------------
 .byte   N64 ,Cn4 ,v127
 .byte   W72
 .byte   TIE ,Bn3 ,v127
 .byte   W24
@  #01 @143   ----------------------------------------
 .byte   W88
 .byte   EOT
 .byte   Bn3
 .byte   W08
@  #01 @144   ----------------------------------------
 .byte   N08 ,En4 ,v127
 .byte   W24
 .byte   N08 ,Dn4 ,v127
 .byte   W24
 .byte   N08 ,En4 ,v127
 .byte   W24
 .byte   N08 ,Dn4 ,v127
 .byte   W24
@  #01 @145   ----------------------------------------
 .byte   N08 ,En4 ,v127
 .byte   W12
 .byte   N08 ,En4 ,v127
 .byte   W24
 .byte   N11 ,Dn4 ,v127
 .byte   W12
 .byte   N08 ,En4 ,v127
 .byte   W24
 .byte   N08 ,Dn4 ,v127
 .byte   W24
@  #01 @146   ----------------------------------------
 .byte   N08 ,En4 ,v127
 .byte   W24
 .byte   N08 ,Dn4 ,v127
 .byte   W24
 .byte   N08 ,En4 ,v127
 .byte   W24
 .byte   N08 ,Dn4 ,v127
 .byte   W24
@  #01 @147   ----------------------------------------
 .byte   N08 ,En4 ,v127
 .byte   W12
 .byte   N08 ,En4 ,v127
 .byte   W24
 .byte   N11 ,Dn4 ,v127
 .byte   W12
 .byte   N08 ,En4 ,v127
 .byte   W24
 .byte   N08 ,Gn4 ,v127
 .byte   W24
@  #01 @148   ----------------------------------------
 .byte   N11 ,Fs4 ,v127
 .byte   W12
 .byte   N11 ,Gn4 ,v127
 .byte   W12
 .byte   N11 ,Bn4 ,v127
 .byte   W12
 .byte   N11 ,An4 ,v127
 .byte   W12
 .byte   N11 ,Gn4 ,v127
 .byte   W12
 .byte   N11 ,Fs4 ,v127
 .byte   W12
 .byte   N11 ,En4 ,v127
 .byte   W12
 .byte   N11 ,Ds4 ,v127
 .byte   W12
@  #01 @149   ----------------------------------------
 .byte   N11 ,Bn3 ,v127
 .byte   W12
 .byte   N11 ,Cn4 ,v127
 .byte   W12
 .byte   N11 ,Ds4 ,v127
 .byte   W12
 .byte   N11 ,En4 ,v127
 .byte   W12
 .byte   N11 ,Fs4 ,v127
 .byte   W12
 .byte   N11 ,En4 ,v127
 .byte   W12
 .byte   N11 ,Ds4 ,v127
 .byte   W12
 .byte   N11 ,Cn4 ,v127
 .byte   W12
@  #01 @150   ----------------------------------------
 .byte   N84 ,Bn3 ,v127
 .byte   W96
@  #01 @151   ----------------------------------------
 .byte   N40 ,Cn4 ,v127
 .byte   W48
 .byte   N40 ,Dn4 ,v127
 .byte   W96
@  #01 @152   ----------------------------------------
 .byte   W48
 .byte   W96
@  #01 @153   ----------------------------------------
 .byte   W96
@  #01 @154   ----------------------------------------
 .byte   W96
@  #01 @155   ----------------------------------------
 .byte   W96
@  #01 @156   ----------------------------------------
 .byte   W96
@  #01 @157   ----------------------------------------
 .byte   N96 ,En3 ,v127
 .byte   W96
@  #01 @158   ----------------------------------------
 .byte   N96 ,Ds3 ,v127
 .byte   W96
@  #01 @159   ----------------------------------------
 .byte   N96 ,Cn3 ,v127
 .byte   W96
@  #01 @160   ----------------------------------------
 .byte   N96 ,Bn2 ,v127
 .byte   W96
@  #01 @161   ----------------------------------------
 .byte   N96 ,An2 ,v127
 .byte   W96
@  #01 @162   ----------------------------------------
 .byte   N96 ,Gn2 ,v127
 .byte   W96
@  #01 @163   ----------------------------------------
 .byte   N96 ,An2 ,v127
 .byte   W96
@  #01 @164   ----------------------------------------
 .byte   N96 ,Cn3 ,v127
 .byte   W96
@  #01 @165   ----------------------------------------
 .byte   TIE ,Dn3 ,v127
 .byte   W96
@  #01 @166   ----------------------------------------
 .byte   W84
 .byte   EOT
 .byte   Dn3
 .byte   W12
@  #01 @167   ----------------------------------------
 .byte   TIE ,En4 ,v127
 .byte   W96
@  #01 @168   ----------------------------------------
 .byte   W32
 .byte   EOT
 .byte   En4
 .byte   N32 ,Fs4 ,v127
 .byte   W32
 .byte   N32 ,En4 ,v127
 .byte   W32
@  #01 @169   ----------------------------------------
 .byte   N96 ,Ds4 ,v127
 .byte   W96
@  #01 @170   ----------------------------------------
 .byte   N72 ,Bn3 ,v127
 .byte   W72
 .byte   N24 ,Cs4 ,v127
 .byte   W24
@  #01 @171   ----------------------------------------
 .byte   TIE ,Dn4 ,v127
 .byte   W96
@  #01 @172   ----------------------------------------
 .byte   W32
 .byte   EOT
 .byte   Dn4
 .byte   N32 ,En4 ,v127
 .byte   W32
 .byte   N32 ,Dn4 ,v127
 .byte   W32
@  #01 @173   ----------------------------------------
 .byte   N96 ,Cs4 ,v127
 .byte   W96
@  #01 @174   ----------------------------------------
 .byte   N84 ,Fs3 ,v127
 .byte   W96
@  #01 @175   ----------------------------------------
 .byte   TIE ,En4 ,v127
 .byte   W96
@  #01 @176   ----------------------------------------
 .byte   W32
 .byte   EOT
 .byte   En4
 .byte   N32 ,Fs4 ,v127
 .byte   W32
 .byte   N32 ,En4 ,v127
 .byte   W32
@  #01 @177   ----------------------------------------
 .byte   N96 ,Ds4 ,v127
 .byte   W96
@  #01 @178   ----------------------------------------
 .byte   N72 ,Bn3 ,v127
 .byte   W72
 .byte   N24 ,Cs4 ,v127
 .byte   W24
@  #01 @179   ----------------------------------------
 .byte   TIE ,Dn4 ,v127
 .byte   W96
@  #01 @180   ----------------------------------------
 .byte   W32
 .byte   EOT
 .byte   Dn4
 .byte   N32 ,En4 ,v127
 .byte   W32
 .byte   N32 ,Dn4 ,v127
 .byte   W32
@  #01 @181   ----------------------------------------
 .byte   N96 ,Cs4 ,v127
 .byte   W96
@  #01 @182   ----------------------------------------
 .byte   N32 ,An3 ,v127
 .byte   W32
 .byte   N32 ,En4 ,v127
 .byte   W32
 .byte   N32 ,An4 ,v127
 .byte   W32
@  #01 @183   ----------------------------------------
 .byte   TIE ,Gn4 ,v127
 .byte   W96
@  #01 @184   ----------------------------------------
 .byte   W96
@  #01 @185   ----------------------------------------
 .byte   W96
@  #01 @186   ----------------------------------------
 .byte   W96
@  #01 @187   ----------------------------------------
 .byte   W96
@  #01 @188   ----------------------------------------
 .byte   W96
@  #01 @189   ----------------------------------------
 .byte   W96
@  #01 @190   ----------------------------------------
 .byte   W84
 .byte   EOT
 .byte   Gn4
 .byte   W96
@  #01 @191   ----------------------------------------
 .byte   W12
 .byte   W96
@  #01 @192   ----------------------------------------
 .byte   W96
@  #01 @193   ----------------------------------------
 .byte   W96
@  #01 @194   ----------------------------------------
 .byte   W96
@  #01 @195   ----------------------------------------
 .byte   W96
@  #01 @196   ----------------------------------------
 .byte   W96
@  #01 @197   ----------------------------------------
 .byte   W96
@  #01 @198   ----------------------------------------
 .byte   W96
@  #01 @199   ----------------------------------------
 .byte   W96
@  #01 @200   ----------------------------------------
 .byte   W96
@  #01 @201   ----------------------------------------
 .byte   W96
@  #01 @202   ----------------------------------------
 .byte   W96
@  #01 @203   ----------------------------------------
 .byte   W96
@  #01 @204   ----------------------------------------
 .byte   W96
@  #01 @205   ----------------------------------------
 .byte   W96
@  #01 @206   ----------------------------------------
 .byte   PAN , c_v+32
 .byte   N23 ,Cs3 ,v092
 .byte   N23 ,En3 ,v092
 .byte   W24
 .byte   N08 ,An2 ,v092
 .byte   N08 ,Cs3 ,v092
 .byte   W12
 .byte   N08 ,An2 ,v092
 .byte   N08 ,Cs3 ,v092
 .byte   W12
 .byte   N23 ,Cs3 ,v092
 .byte   N23 ,En3 ,v092
 .byte   W24
 .byte   N08 ,An2 ,v092
 .byte   N08 ,Cs3 ,v092
 .byte   W12
 .byte   N08 ,An2 ,v092
 .byte   N08 ,Cs3 ,v092
 .byte   W12
@  #01 @207   ----------------------------------------
 .byte   N23 ,Cs3 ,v092
 .byte   N23 ,En3 ,v092
 .byte   W24
 .byte   N08 ,An2 ,v092
 .byte   N08 ,Cs3 ,v092
 .byte   W12
 .byte   N08 ,An2 ,v092
 .byte   N08 ,Cs3 ,v092
 .byte   W12
 .byte   N23 ,Cs3 ,v092
 .byte   N23 ,En3 ,v092
 .byte   W24
 .byte   N08 ,An2 ,v092
 .byte   N08 ,Cs3 ,v092
 .byte   W12
 .byte   N08 ,An2 ,v092
 .byte   N08 ,Cs3 ,v092
 .byte   W12
@  #01 @208   ----------------------------------------
 .byte   N23 ,Ds3 ,v092
 .byte   N23 ,Fs3 ,v092
 .byte   W24
 .byte   N08 ,Bn2 ,v092
 .byte   N08 ,Ds3 ,v092
 .byte   W12
 .byte   N08 ,Bn2 ,v092
 .byte   N08 ,Ds3 ,v092
 .byte   W12
 .byte   N23 ,Ds3 ,v092
 .byte   N23 ,Fs3 ,v092
 .byte   W24
 .byte   N08 ,Bn2 ,v092
 .byte   N08 ,Ds3 ,v092
 .byte   W12
 .byte   N08 ,Bn2 ,v092
 .byte   N08 ,Ds3 ,v092
 .byte   W12
@  #01 @209   ----------------------------------------
 .byte   N23 ,Ds3 ,v092
 .byte   N23 ,Fs3 ,v092
 .byte   W24
 .byte   N08 ,Bn2 ,v092
 .byte   N08 ,Ds3 ,v092
 .byte   W12
 .byte   N08 ,Bn2 ,v092
 .byte   N08 ,Ds3 ,v092
 .byte   W12
 .byte   N23 ,Ds3 ,v092
 .byte   N23 ,Fs3 ,v092
 .byte   W24
 .byte   N08 ,Bn2 ,v092
 .byte   N08 ,Ds3 ,v092
 .byte   W12
 .byte   N08 ,Bn2 ,v092
 .byte   N08 ,Ds3 ,v092
 .byte   W12
@  #01 @210   ----------------------------------------
 .byte   N23 ,En3 ,v092
 .byte   N23 ,Gn3 ,v092
 .byte   W24
 .byte   N08 ,Bn2 ,v092
 .byte   N08 ,En3 ,v092
 .byte   W12
 .byte   N08 ,Bn2 ,v092
 .byte   N08 ,En3 ,v092
 .byte   W12
 .byte   N23 ,En3 ,v092
 .byte   N23 ,Gn3 ,v092
 .byte   W24
 .byte   N08 ,Bn2 ,v092
 .byte   N08 ,En3 ,v092
 .byte   W12
 .byte   N08 ,Bn2 ,v092
 .byte   N08 ,En3 ,v092
 .byte   W12
@  #01 @211   ----------------------------------------
 .byte   N23 ,En3 ,v092
 .byte   N23 ,Gn3 ,v092
 .byte   W24
 .byte   N08 ,Bn2 ,v092
 .byte   N08 ,En3 ,v092
 .byte   W12
 .byte   N08 ,Bn2 ,v092
 .byte   N08 ,En3 ,v092
 .byte   W12
 .byte   N23 ,En3 ,v092
 .byte   N23 ,Gn3 ,v092
 .byte   W24
 .byte   N08 ,Bn2 ,v092
 .byte   N08 ,En3 ,v092
 .byte   W12
 .byte   N08 ,Bn2 ,v092
 .byte   N08 ,En3 ,v092
 .byte   W12
@  #01 @212   ----------------------------------------
 .byte   N23 ,Ds3 ,v092
 .byte   N23 ,Fs3 ,v092
 .byte   W24
 .byte   N08 ,Bn2 ,v092
 .byte   N08 ,Ds3 ,v092
 .byte   W12
 .byte   N08 ,Bn2 ,v092
 .byte   N08 ,Ds3 ,v092
 .byte   W12
 .byte   N23 ,Ds3 ,v092
 .byte   N23 ,Fs3 ,v092
 .byte   W24
 .byte   N08 ,Bn2 ,v092
 .byte   N08 ,Ds3 ,v092
 .byte   W12
 .byte   N08 ,Bn2 ,v092
 .byte   N08 ,Ds3 ,v092
 .byte   W12
@  #01 @213   ----------------------------------------
 .byte   N23 ,Ds3 ,v092
 .byte   N23 ,Fs3 ,v092
 .byte   W24
 .byte   N08 ,Bn2 ,v092
 .byte   N08 ,Ds3 ,v092
 .byte   W12
 .byte   N08 ,Bn2 ,v092
 .byte   N08 ,Ds3 ,v092
 .byte   W12
 .byte   N23 ,Ds3 ,v092
 .byte   N23 ,Fs3 ,v092
 .byte   W24
 .byte   N08 ,Bn2 ,v092
 .byte   N08 ,Ds3 ,v092
 .byte   W12
 .byte   N08 ,Bn2 ,v092
 .byte   N08 ,Ds3 ,v092
 .byte   W12
@  #01 @214   ----------------------------------------
 .byte   N23 ,Cs3 ,v092
 .byte   N23 ,En3 ,v092
 .byte   W24
 .byte   N08 ,An2 ,v092
 .byte   N08 ,Cs3 ,v092
 .byte   W12
 .byte   N08 ,An2 ,v092
 .byte   N08 ,Cs3 ,v092
 .byte   W12
 .byte   N23 ,Cs3 ,v092
 .byte   N23 ,En3 ,v092
 .byte   W24
 .byte   N08 ,An2 ,v092
 .byte   N08 ,Cs3 ,v092
 .byte   W12
 .byte   N08 ,An2 ,v092
 .byte   N08 ,Cs3 ,v092
 .byte   W12
@  #01 @215   ----------------------------------------
 .byte   N23 ,Cs3 ,v092
 .byte   N23 ,En3 ,v092
 .byte   W24
 .byte   N08 ,An2 ,v092
 .byte   N08 ,Cs3 ,v092
 .byte   W12
 .byte   N08 ,An2 ,v092
 .byte   N08 ,Cs3 ,v092
 .byte   W12
 .byte   N23 ,Cs3 ,v092
 .byte   N23 ,En3 ,v092
 .byte   W24
 .byte   N08 ,An2 ,v092
 .byte   N08 ,Cs3 ,v092
 .byte   W12
 .byte   N08 ,An2 ,v092
 .byte   N08 ,Cs3 ,v092
 .byte   W12
@  #01 @216   ----------------------------------------
 .byte   N23 ,Ds3 ,v092
 .byte   N23 ,Fs3 ,v092
 .byte   W24
 .byte   N08 ,Bn2 ,v092
 .byte   N08 ,Ds3 ,v092
 .byte   W12
 .byte   N08 ,Bn2 ,v092
 .byte   N08 ,Ds3 ,v092
 .byte   W12
 .byte   N23 ,Ds3 ,v092
 .byte   N23 ,Fs3 ,v092
 .byte   W24
 .byte   N08 ,Bn2 ,v092
 .byte   N08 ,Ds3 ,v092
 .byte   W12
 .byte   N08 ,Bn2 ,v092
 .byte   N08 ,Ds3 ,v092
 .byte   W12
@  #01 @217   ----------------------------------------
 .byte   N23 ,Ds3 ,v092
 .byte   N23 ,Fs3 ,v092
 .byte   W24
 .byte   N08 ,Bn2 ,v092
 .byte   N08 ,Ds3 ,v092
 .byte   W12
 .byte   N08 ,Bn2 ,v092
 .byte   N08 ,Ds3 ,v092
 .byte   W12
 .byte   N23 ,Ds3 ,v092
 .byte   N23 ,Fs3 ,v092
 .byte   W24
 .byte   N08 ,Bn2 ,v092
 .byte   N08 ,Ds3 ,v092
 .byte   W12
 .byte   N08 ,Bn2 ,v092
 .byte   N08 ,Ds3 ,v092
 .byte   W12
@  #01 @218   ----------------------------------------
 .byte   N23 ,En3 ,v092
 .byte   N23 ,Gn3 ,v092
 .byte   W24
 .byte   N08 ,Bn2 ,v092
 .byte   N08 ,En3 ,v092
 .byte   W12
 .byte   N08 ,Bn2 ,v092
 .byte   N08 ,En3 ,v092
 .byte   W12
 .byte   N23 ,En3 ,v092
 .byte   N23 ,Gn3 ,v092
 .byte   W24
 .byte   N08 ,Bn2 ,v092
 .byte   N08 ,En3 ,v092
 .byte   W12
 .byte   N08 ,Bn2 ,v092
 .byte   N08 ,En3 ,v092
 .byte   W12
@  #01 @219   ----------------------------------------
 .byte   N23 ,En3 ,v092
 .byte   N23 ,Gn3 ,v092
 .byte   W24
 .byte   N08 ,Bn2 ,v092
 .byte   N08 ,En3 ,v092
 .byte   W12
 .byte   N08 ,Bn2 ,v092
 .byte   N08 ,En3 ,v092
 .byte   W12
 .byte   N23 ,En3 ,v092
 .byte   N23 ,Gn3 ,v092
 .byte   W24
 .byte   N08 ,Bn2 ,v092
 .byte   N08 ,En3 ,v092
 .byte   W12
 .byte   N08 ,Bn2 ,v092
 .byte   N08 ,En3 ,v092
 .byte   W12
@  #01 @220   ----------------------------------------
 .byte   N23 ,Ds3 ,v092
 .byte   N23 ,Fs3 ,v092
 .byte   W24
 .byte   N08 ,Bn2 ,v092
 .byte   N08 ,Ds3 ,v092
 .byte   W12
 .byte   N08 ,Bn2 ,v092
 .byte   N08 ,Ds3 ,v092
 .byte   W12
 .byte   N23 ,Ds3 ,v092
 .byte   N23 ,Fs3 ,v092
 .byte   W24
 .byte   N08 ,Bn2 ,v092
 .byte   N08 ,Ds3 ,v092
 .byte   W12
 .byte   N08 ,Bn2 ,v092
 .byte   N08 ,Ds3 ,v092
 .byte   W12
@  #01 @221   ----------------------------------------
 .byte   N23 ,Ds3 ,v092
 .byte   N23 ,Fs3 ,v092
 .byte   W24
 .byte   N08 ,Bn2 ,v092
 .byte   N08 ,Ds3 ,v092
 .byte   W12
 .byte   N08 ,Bn2 ,v092
 .byte   N08 ,Ds3 ,v092
 .byte   W12
 .byte   N23 ,Ds3 ,v092
 .byte   N23 ,Fs3 ,v092
 .byte   W24
 .byte   N08 ,Bn2 ,v092
 .byte   N08 ,Ds3 ,v092
 .byte   W12
 .byte   N08 ,Bn2 ,v092
 .byte   N08 ,Ds3 ,v092
 .byte   W12
@  #01 @222   ----------------------------------------
 .byte   PAN , c_v+0
 .byte   N12 ,Gn4 ,v127
 .byte   W12
 .byte   N12 ,Fs4 ,v127
 .byte   W12
 .byte   N12 ,En4 ,v127
 .byte   W12
 .byte   N12 ,Dn4 ,v127
 .byte   W12
 .byte   N12 ,Cn4 ,v127
 .byte   W12
 .byte   N12 ,Bn3 ,v127
 .byte   W12
 .byte   N12 ,An3 ,v127
 .byte   W12
 .byte   N12 ,Gn3 ,v127
 .byte   W12
@  #01 @223   ----------------------------------------
 .byte   N32 ,En4 ,v127
 .byte   W32
 .byte   N32 ,Fs4 ,v127
 .byte   W32
 .byte   N32 ,Gn4 ,v127
 .byte   W32
@  #01 @224   ----------------------------------------
 .byte   N32 ,Fs4 ,v127
 .byte   W32
 .byte   N32 ,En4 ,v127
 .byte   W32
 .byte   N32 ,Fs4 ,v127
 .byte   W32
@  #01 @225   ----------------------------------------
 .byte   N40 ,Dn4 ,v127
 .byte   W48
 .byte   N11 ,Dn4 ,v127
 .byte   W12
 .byte   N11 ,En4 ,v127
 .byte   W12
 .byte   N11 ,Fs4 ,v127
 .byte   W12
 .byte   N11 ,An4 ,v127
 .byte   W12
@  #01 @226   ----------------------------------------
 .byte   N11 ,Bn4 ,v127
 .byte   W12
 .byte   N11 ,An4 ,v127
 .byte   W12
 .byte   N11 ,Gn4 ,v127
 .byte   W12
 .byte   N11 ,Bn4 ,v127
 .byte   W12
 .byte   N11 ,Cn5 ,v127
 .byte   W12
 .byte   N11 ,Bn4 ,v127
 .byte   W12
 .byte   N11 ,An4 ,v127
 .byte   W12
 .byte   N11 ,Cn5 ,v127
 .byte   W12
@  #01 @227   ----------------------------------------
 .byte   N11 ,Bn4 ,v127
 .byte   W12
 .byte   N11 ,An4 ,v127
 .byte   W12
 .byte   N11 ,Gn4 ,v127
 .byte   W12
 .byte   N11 ,Fs4 ,v127
 .byte   W12
 .byte   N11 ,En4 ,v127
 .byte   W12
 .byte   N11 ,Dn4 ,v127
 .byte   W12
 .byte   N11 ,Cn4 ,v127
 .byte   W12
 .byte   N11 ,Bn3 ,v127
 .byte   W12
@  #01 @228   ----------------------------------------
 .byte   N08 ,Ds4 ,v127
 .byte   W12
 .byte   N08 ,Bn3 ,v127
 .byte   W12
 .byte   N08 ,Bn3 ,v127
 .byte   W12
 .byte   N08 ,Ds4 ,v127
 .byte   W12
 .byte   N08 ,Fs4 ,v127
 .byte   W12
 .byte   N08 ,Ds4 ,v127
 .byte   W12
 .byte   N08 ,Ds4 ,v127
 .byte   W12
 .byte   N08 ,Fs4 ,v127
 .byte   W12
@  #01 @229   ----------------------------------------
 .byte   N08 ,Bn4 ,v127
 .byte   W12
 .byte   N08 ,Fs4 ,v127
 .byte   W12
 .byte   N08 ,Fs4 ,v127
 .byte   W12
 .byte   N08 ,Bn4 ,v127
 .byte   W12
 .byte   N11 ,An4 ,v127
 .byte   W12
 .byte   N11 ,Gn4 ,v127
 .byte   W12
 .byte   N11 ,Fs4 ,v127
 .byte   W12
 .byte   N11 ,Ds4 ,v127
 .byte   W12
@  #01 @230   ----------------------------------------
 .byte   N30 ,En4 ,v127 ,gtp1
 .byte   W32
 .byte   N30 ,Cn4 ,v127 ,gtp1
 .byte   W32
 .byte   N30 ,En4 ,v127 ,gtp1
 .byte   W32
@  #01 @231   ----------------------------------------
 .byte   N30 ,Gn4 ,v127 ,gtp1
 .byte   W32
 .byte   N30 ,Fs4 ,v127 ,gtp1
 .byte   W32
 .byte   N30 ,Gn4 ,v127 ,gtp1
 .byte   W32
@  #01 @232   ----------------------------------------
 .byte   N11 ,Fs4 ,v127
 .byte   W12
 .byte   N11 ,En4 ,v127
 .byte   W12
 .byte   N11 ,Dn4 ,v127
 .byte   W12
 .byte   N11 ,Fs4 ,v127
 .byte   W12
 .byte   N11 ,An4 ,v127
 .byte   W12
 .byte   N11 ,Gn4 ,v127
 .byte   W12
 .byte   N11 ,Fs4 ,v127
 .byte   W12
 .byte   N11 ,En4 ,v127
 .byte   W12
@  #01 @233   ----------------------------------------
 .byte   N11 ,Dn4 ,v127
 .byte   W12
 .byte   N11 ,Cn4 ,v127
 .byte   W12
 .byte   N11 ,Bn3 ,v127
 .byte   W12
 .byte   N11 ,An3 ,v127
 .byte   W12
 .byte   N11 ,Bn3 ,v127
 .byte   W12
 .byte   N11 ,Cn4 ,v127
 .byte   W12
 .byte   N11 ,Dn4 ,v127
 .byte   W12
 .byte   N11 ,Fs4 ,v127
 .byte   W12
@  #01 @234   ----------------------------------------
 .byte   N40 ,Bn4 ,v127
 .byte   W48
 .byte   N11 ,Bn4 ,v127
 .byte   W12
 .byte   N11 ,An4 ,v127
 .byte   W12
 .byte   N11 ,Gn4 ,v127
 .byte   W12
 .byte   N11 ,Bn4 ,v127
 .byte   W12
@  #01 @235   ----------------------------------------
 .byte   N11 ,An4 ,v127
 .byte   W12
 .byte   N11 ,Gn4 ,v127
 .byte   W12
 .byte   N11 ,Fs4 ,v127
 .byte   W12
 .byte   N11 ,En4 ,v127
 .byte   W12
 .byte   N11 ,Ds4 ,v127
 .byte   W12
 .byte   N11 ,Cn4 ,v127
 .byte   W12
 .byte   N11 ,Bn3 ,v127
 .byte   W12
 .byte   N11 ,Ds4 ,v127
 .byte   W12
@  #01 @236   ----------------------------------------
 .byte   N11 ,Fs4 ,v127
 .byte   W12
 .byte   N11 ,En4 ,v127
 .byte   W12
 .byte   N11 ,Ds4 ,v127
 .byte   W12
 .byte   N11 ,En4 ,v127
 .byte   W12
 .byte   N11 ,Fs4 ,v127
 .byte   W12
 .byte   N11 ,Gn4 ,v127
 .byte   W12
 .byte   N11 ,An4 ,v127
 .byte   W12
 .byte   N11 ,Fs4 ,v127
 .byte   W12
@  #01 @237   ----------------------------------------
 .byte   N11 ,En4 ,v127
 .byte   W12
 .byte   N11 ,Ds4 ,v127
 .byte   W12
 .byte   N11 ,Cn4 ,v127
 .byte   W12
 .byte   N11 ,Gn3 ,v127
 .byte   W12
 .byte   N11 ,Fs3 ,v127
 .byte   W12
 .byte   N11 ,Gn3 ,v127
 .byte   W12
 .byte   N11 ,An3 ,v127
 .byte   W12
 .byte   N11 ,Fs3 ,v127
 .byte   W12
@  #01 @238   ----------------------------------------
 .byte   N96 ,En3 ,v127
 .byte   W96
@  #01 @239   ----------------------------------------
 .byte   N96 ,Bn3 ,v127
 .byte   W96
@  #01 @240   ----------------------------------------
 .byte   N96 ,As3 ,v127
 .byte   W96
@  #01 @241   ----------------------------------------
 .byte   N32 ,Cs4 ,v127
 .byte   W32
 .byte   N32 ,Dn4 ,v127
 .byte   W32
 .byte   N32 ,En4 ,v127
 .byte   W32
@  #01 @242   ----------------------------------------
 .byte   N32 ,Gn4 ,v127
 .byte   W32
 .byte   N32 ,Fs4 ,v127
 .byte   W32
 .byte   N32 ,Gn4 ,v127
 .byte   W32
@  #01 @243   ----------------------------------------
 .byte   N32 ,En4 ,v127
 .byte   W32
 .byte   N32 ,Cn4 ,v127
 .byte   W32
 .byte   N32 ,Bn3 ,v127
 .byte   W32
@  #01 @244   ----------------------------------------
 .byte   N32 ,As3 ,v127
 .byte   W32
 .byte   N32 ,Gn3 ,v127
 .byte   W32
 .byte   N32 ,Fs3 ,v127
 .byte   W32
@  #01 @245   ----------------------------------------
 .byte   N96 ,As3 ,v127
 .byte   W96
@  #01 @246   ----------------------------------------
 .byte   N32 ,En4 ,v127
 .byte   W32
 .byte   N32 ,Dn4 ,v127
 .byte   W32
 .byte   N32 ,En4 ,v127
 .byte   W32
@  #01 @247   ----------------------------------------
 .byte   N32 ,Bn3 ,v127
 .byte   W32
 .byte   N32 ,An3 ,v127
 .byte   W32
 .byte   N32 ,Bn3 ,v127
 .byte   W32
@  #01 @248   ----------------------------------------
 .byte   N32 ,Cs4 ,v127
 .byte   W32
 .byte   N32 ,As3 ,v127
 .byte   W32
 .byte   N32 ,Cs4 ,v127
 .byte   W32
@  #01 @249   ----------------------------------------
 .byte   N32 ,En4 ,v127
 .byte   W32
 .byte   N32 ,Fs4 ,v127
 .byte   W32
 .byte   N32 ,Gn4 ,v127
 .byte   W32
@  #01 @250   ----------------------------------------
 .byte   N96 ,Bn4 ,v127
 .byte   W96
@  #01 @251   ----------------------------------------
 .byte   N32 ,Bn4 ,v127
 .byte   W32
 .byte   N32 ,An4 ,v127
 .byte   W32
 .byte   N32 ,Gn4 ,v127
 .byte   W32
@  #01 @252   ----------------------------------------
 .byte   TIE ,En4 ,v127
 .byte   W96
@  #01 @253   ----------------------------------------
 .byte   W36
 .byte   EOT
 .byte   En4
 .byte   W12
 .byte   N11 ,En4 ,v127
 .byte   W12
 .byte   N11 ,Fs4 ,v127
 .byte   W12
 .byte   N11 ,Gn4 ,v127
 .byte   W12
 .byte   N11 ,An4 ,v127
 .byte   W12
@  #01 @254   ----------------------------------------
 .byte   N11 ,Gn4 ,v127
 .byte   W12
 .byte   N11 ,Fs4 ,v127
 .byte   W12
 .byte   N11 ,En4 ,v127
 .byte   W12
 .byte   N11 ,Fs4 ,v127
 .byte   W12
 .byte   N11 ,Gn4 ,v127
 .byte   W12
 .byte   N11 ,Fs4 ,v127
 .byte   W12
 .byte   N11 ,En4 ,v127
 .byte   W12
 .byte   N11 ,Fs4 ,v127
 .byte   W12
@  #01 @255   ----------------------------------------
 .byte   N11 ,Gn4 ,v127
 .byte   W12
 .byte   N11 ,Fs4 ,v127
 .byte   W12
 .byte   N11 ,En4 ,v127
 .byte   W12
 .byte   N11 ,Fs4 ,v127
 .byte   W12
 .byte   N11 ,Gn4 ,v127
 .byte   W12
 .byte   N11 ,Fs4 ,v127
 .byte   W12
 .byte   N11 ,En4 ,v127
 .byte   W12
 .byte   N11 ,Fs4 ,v127
 .byte   W12
@  #01 @256   ----------------------------------------
 .byte   N11 ,As4 ,v127
 .byte   W12
 .byte   N11 ,Gn4 ,v127
 .byte   W12
 .byte   N11 ,Fs4 ,v127
 .byte   W12
 .byte   N11 ,Gn4 ,v127
 .byte   W12
 .byte   N11 ,As4 ,v127
 .byte   W12
 .byte   N11 ,Gn4 ,v127
 .byte   W12
 .byte   N11 ,Fs4 ,v127
 .byte   W12
 .byte   N11 ,Gn4 ,v127
 .byte   W12
@  #01 @257   ----------------------------------------
 .byte   N11 ,As4 ,v127
 .byte   W12
 .byte   N11 ,Gn4 ,v127
 .byte   W12
 .byte   N11 ,Fs4 ,v127
 .byte   W12
 .byte   N11 ,Gn4 ,v127
 .byte   W12
 .byte   N11 ,As4 ,v127
 .byte   W12
 .byte   N11 ,Gn4 ,v127
 .byte   W12
 .byte   N11 ,Fs4 ,v127
 .byte   W12
 .byte   N11 ,Gn4 ,v127
 .byte   W12
@  #01 @258   ----------------------------------------
 .byte   N11 ,Bn4 ,v127
 .byte   W12
 .byte   N11 ,An4 ,v127
 .byte   W12
 .byte   N11 ,Gn4 ,v127
 .byte   W12
 .byte   N11 ,An4 ,v127
 .byte   W12
 .byte   N11 ,Bn4 ,v127
 .byte   W12
 .byte   N11 ,An4 ,v127
 .byte   W12
 .byte   N11 ,Gn4 ,v127
 .byte   W12
 .byte   N11 ,An4 ,v127
 .byte   W12
@  #01 @259   ----------------------------------------
 .byte   N11 ,Bn4 ,v127
 .byte   W12
 .byte   N11 ,An4 ,v127
 .byte   W12
 .byte   N11 ,Gn4 ,v127
 .byte   W12
 .byte   N11 ,An4 ,v127
 .byte   W12
 .byte   N11 ,Bn4 ,v127
 .byte   W12
 .byte   N11 ,An4 ,v127
 .byte   W12
 .byte   N11 ,Gn4 ,v127
 .byte   W12
 .byte   N11 ,An4 ,v127
 .byte   W12
@  #01 @260   ----------------------------------------
 .byte   N11 ,Cs5 ,v127
 .byte   W12
 .byte   N11 ,Bn4 ,v127
 .byte   W12
 .byte   N11 ,As4 ,v127
 .byte   W12
 .byte   N11 ,Bn4 ,v127
 .byte   W12
 .byte   N11 ,Cs5 ,v127
 .byte   W12
 .byte   N11 ,Bn4 ,v127
 .byte   W12
 .byte   N11 ,As4 ,v127
 .byte   W12
 .byte   N11 ,Bn4 ,v127
 .byte   W12
@  #01 @261   ----------------------------------------
 .byte   N11 ,Cs5 ,v127
 .byte   W12
 .byte   N11 ,Bn4 ,v127
 .byte   W12
 .byte   N11 ,As4 ,v127
 .byte   W12
 .byte   N11 ,Bn4 ,v127
 .byte   W12
 .byte   N11 ,Cs5 ,v127
 .byte   W12
 .byte   N11 ,Bn4 ,v127
 .byte   W12
 .byte   N11 ,As4 ,v127
 .byte   W12
 .byte   N11 ,Bn4 ,v127
 .byte   W12
@  #01 @262   ----------------------------------------
 .byte   N32 ,En5 ,v127 ,gtp3
 .byte   W36
 .byte   N11 ,Dn5 ,v127
 .byte   W12
 .byte   N32 ,En5 ,v127 ,gtp3
 .byte   W36
 .byte   N11 ,Dn5 ,v127
 .byte   W12
@  #01 @263   ----------------------------------------
 .byte   N32 ,En5 ,v127 ,gtp3
 .byte   W36
 .byte   N11 ,Dn5 ,v127
 .byte   W12
 .byte   N32 ,En5 ,v127 ,gtp3
 .byte   W36
 .byte   N11 ,Dn5 ,v127
 .byte   W12
@  #01 @264   ----------------------------------------
 .byte   N11 ,Cs5 ,v127
 .byte   W12
 .byte   N11 ,Bn4 ,v127
 .byte   W12
 .byte   N11 ,As4 ,v127
 .byte   W12
 .byte   N11 ,Bn4 ,v127
 .byte   W12
 .byte   N11 ,Cs5 ,v127
 .byte   W12
 .byte   N11 ,Bn4 ,v127
 .byte   W12
 .byte   N11 ,As4 ,v127
 .byte   W12
 .byte   N11 ,Bn4 ,v127
 .byte   W12
@  #01 @265   ----------------------------------------
 .byte   N11 ,Cs5 ,v127
 .byte   W12
 .byte   N11 ,Bn4 ,v127
 .byte   W12
 .byte   N11 ,As4 ,v127
 .byte   W12
 .byte   N11 ,Bn4 ,v127
 .byte   W12
 .byte   N11 ,Cs5 ,v127
 .byte   W12
 .byte   N11 ,Bn4 ,v127
 .byte   W12
 .byte   N11 ,As4 ,v127
 .byte   W12
 .byte   N11 ,Bn4 ,v127
 .byte   W12
@  #01 @266   ----------------------------------------
 .byte   N32 ,En5 ,v127 ,gtp3
 .byte   W36
 .byte   N11 ,Dn5 ,v127
 .byte   W12
 .byte   N32 ,En5 ,v127 ,gtp3
 .byte   W36
 .byte   N11 ,Dn5 ,v127
 .byte   W12
@  #01 @267   ----------------------------------------
 .byte   N32 ,En5 ,v127 ,gtp3
 .byte   W36
 .byte   N11 ,Dn5 ,v127
 .byte   W12
 .byte   N32 ,En5 ,v127 ,gtp3
 .byte   W36
 .byte   N11 ,Dn5 ,v127
 .byte   W12
@  #01 @268   ----------------------------------------
 .byte   N11 ,Cs5 ,v127
 .byte   W12
 .byte   N11 ,Bn4 ,v127
 .byte   W12
 .byte   N11 ,As4 ,v127
 .byte   W12
 .byte   N11 ,Bn4 ,v127
 .byte   W12
 .byte   N11 ,Cs5 ,v127
 .byte   W12
 .byte   N11 ,Bn4 ,v127
 .byte   W12
 .byte   N11 ,As4 ,v127
 .byte   W12
 .byte   N11 ,Bn4 ,v127
 .byte   W12
@  #01 @269   ----------------------------------------
 .byte   N11 ,Cs5 ,v127
 .byte   W12
 .byte   N11 ,Bn4 ,v127
 .byte   W12
 .byte   N11 ,As4 ,v127
 .byte   W12
 .byte   N11 ,Bn4 ,v127
 .byte   W12
 .byte   N15 ,Cs5 ,v127
 .byte   W16
 .byte   N15 ,Dn5 ,v127
 .byte   W16
 .byte   N15 ,En5 ,v127
 .byte   W16
@  #01 @270   ----------------------------------------
 .byte   TIE ,Dn5 ,v127
 .byte   W96
@  #01 @271   ----------------------------------------
 .byte   W96
@  #01 @272   ----------------------------------------
 .byte   EOT
 .byte   Dn5
 .byte   TIE ,Dn5 ,v127
 .byte   W96
@  #01 @273   ----------------------------------------
 .byte   W84
 .byte   EOT
 .byte   Dn5
 .byte   W96
@  #01 @274   ----------------------------------------
 .byte   W12
 .byte   W96
@  #01 @275   ----------------------------------------
 .byte   N32 ,Gs3 ,v127
 .byte   W32
 .byte   N32 ,An3 ,v127
 .byte   W32
 .byte   TIE ,En3 ,v127
 .byte   W32
@  #01 @276   ----------------------------------------
 .byte   W96
@  #01 @277   ----------------------------------------
 .byte   EOT
 .byte   En3
 .byte   N32 ,Ds3 ,v127
 .byte   W32
 .byte   N32 ,En3 ,v127
 .byte   W32
 .byte   N32 ,Fs3 ,v127
 .byte   W32
@  #01 @278   ----------------------------------------
 .byte   N32 ,En3 ,v127
 .byte   W32
 .byte   N32 ,Ds3 ,v127
 .byte   W32
 .byte   N32 ,Cn3 ,v127
 .byte   W32
@  #01 @279   ----------------------------------------
 .byte   TIE ,Bn2 ,v127
 .byte   W96
@  #01 @280   ----------------------------------------
 .byte   W48
 .byte   EOT
 .byte   Bn2
 .byte   N24 ,An2 ,v127
 .byte   W24
 .byte   N24 ,Bn2 ,v127
 .byte   W24
@  #01 @281   ----------------------------------------
 .byte   N32 ,Ds3 ,v127
 .byte   W32
 .byte   N32 ,En3 ,v127
 .byte   W32
 .byte   TIE ,Fs3 ,v127
 .byte   W32
@  #01 @282   ----------------------------------------
 .byte   W96
@  #01 @283   ----------------------------------------
 .byte   EOT
 .byte   Fs3
 .byte   N32 ,Gs3 ,v127
 .byte   W32
 .byte   N32 ,An3 ,v127
 .byte   W32
 .byte   TIE ,En3 ,v127
 .byte   W32
@  #01 @284   ----------------------------------------
 .byte   W96
@  #01 @285   ----------------------------------------
 .byte   EOT
 .byte   En3
 .byte   N32 ,Fs3 ,v127
 .byte   W32
 .byte   N32 ,En3 ,v127
 .byte   W32
 .byte   N32 ,Ds3 ,v127
 .byte   W32
@  #01 @286   ----------------------------------------
 .byte   N32 ,Cn3 ,v127
 .byte   W32
 .byte   N32 ,Bn2 ,v127
 .byte   W32
 .byte   N32 ,An2 ,v127
 .byte   W32
@  #01 @287   ----------------------------------------
 .byte   N32 ,Gn2 ,v127
 .byte   W32
 .byte   N32 ,An2 ,v127
 .byte   W32
 .byte   TIE ,Bn2 ,v127
 .byte   W32
@  #01 @288   ----------------------------------------
 .byte   W96
@  #01 @289   ----------------------------------------
 .byte   EOT
 .byte   Bn2
 .byte   N32 ,Ds3 ,v127
 .byte   W32
 .byte   N32 ,En3 ,v127
 .byte   W32
 .byte   N80 ,Fs3 ,v127
 .byte   W32
@  #01 @290   ----------------------------------------
 .byte   W48
 .byte   N12 ,An3 ,v127
 .byte   W12
 .byte   N12 ,Ds4 ,v127
 .byte   W12
 .byte   N12 ,Fs4 ,v127
 .byte   W12
 .byte   N12 ,An4 ,v127
 .byte   W12
@  #01 @291   ----------------------------------------
 .byte   N32 ,Gs4 ,v127
 .byte   W32
 .byte   N32 ,An4 ,v127
 .byte   W32
 .byte   TIE ,En4 ,v127
 .byte   W32
@  #01 @292   ----------------------------------------
 .byte   W96
@  #01 @293   ----------------------------------------
 .byte   EOT
 .byte   En4
 .byte   N32 ,Ds4 ,v127
 .byte   W32
 .byte   N32 ,En4 ,v127
 .byte   W32
 .byte   N32 ,Fs4 ,v127
 .byte   W32
@  #01 @294   ----------------------------------------
 .byte   N32 ,En4 ,v127
 .byte   W32
 .byte   N32 ,Ds4 ,v127
 .byte   W32
 .byte   N32 ,Cn4 ,v127
 .byte   W32
@  #01 @295   ----------------------------------------
 .byte   TIE ,Bn3 ,v127
 .byte   W96
@  #01 @296   ----------------------------------------
 .byte   W48
 .byte   EOT
 .byte   Bn3
 .byte   N24 ,An3 ,v127
 .byte   W24
 .byte   N24 ,Bn3 ,v127
 .byte   W24
@  #01 @297   ----------------------------------------
 .byte   N32 ,Ds4 ,v127
 .byte   W32
 .byte   N32 ,En4 ,v127
 .byte   W32
 .byte   TIE ,Fs4 ,v127
 .byte   W32
@  #01 @298   ----------------------------------------
 .byte   W96
@  #01 @299   ----------------------------------------
 .byte   EOT
 .byte   Fs4
 .byte   N32 ,Gs4 ,v127
 .byte   W32
 .byte   N32 ,An4 ,v127
 .byte   W32
 .byte   TIE ,En4 ,v127
 .byte   W32
@  #01 @300   ----------------------------------------
 .byte   W96
@  #01 @301   ----------------------------------------
 .byte   EOT
 .byte   En4
 .byte   N32 ,Fs4 ,v127
 .byte   W32
 .byte   N32 ,En4 ,v127
 .byte   W32
 .byte   N32 ,Ds4 ,v127
 .byte   W32
@  #01 @302   ----------------------------------------
 .byte   N32 ,Cn4 ,v127
 .byte   W32
 .byte   N32 ,Bn3 ,v127
 .byte   W32
 .byte   N32 ,An3 ,v127
 .byte   W32
@  #01 @303   ----------------------------------------
 .byte   N32 ,Gn3 ,v127
 .byte   W32
 .byte   N32 ,An3 ,v127
 .byte   W32
 .byte   TIE ,Bn3 ,v127
 .byte   W32
@  #01 @304   ----------------------------------------
 .byte   W96
@  #01 @305   ----------------------------------------
 .byte   EOT
 .byte   Bn3
 .byte   N32 ,Ds4 ,v127
 .byte   W32
 .byte   N32 ,En4 ,v127
 .byte   W32
 .byte   TIE ,Fs4 ,v127
 .byte   W32
@  #01 @306   ----------------------------------------
 .byte   W84
 .byte   EOT
 .byte   Fs4
 .byte   W12
@  #01 @307   ----------------------------------------
 .byte   N08 ,En4 ,v127
 .byte   W24
 .byte   N08 ,Dn4 ,v127
 .byte   W24
 .byte   N08 ,En4 ,v127
 .byte   W24
 .byte   N08 ,Dn4 ,v127
 .byte   W24
@  #01 @308   ----------------------------------------
 .byte   N08 ,En4 ,v127
 .byte   W12
 .byte   N08 ,En4 ,v127
 .byte   W24
 .byte   N08 ,Dn4 ,v127
 .byte   W12
 .byte   N08 ,En4 ,v127
 .byte   W24
 .byte   N08 ,Gn4 ,v127
 .byte   W24
@  #01 @309   ----------------------------------------
 .byte   N30 ,Fs4 ,v127 ,gtp1
 .byte   W32
 .byte   N30 ,Gn4 ,v127 ,gtp1
 .byte   W32
 .byte   N30 ,An4 ,v127 ,gtp1
 .byte   W32
@  #01 @310   ----------------------------------------
 .byte   N11 ,Gn4 ,v127
 .byte   W12
 .byte   N11 ,Fs4 ,v127
 .byte   W12
 .byte   N11 ,Dn4 ,v127
 .byte   W12
 .byte   N11 ,Cn4 ,v127
 .byte   W12
 .byte   N11 ,Dn4 ,v127
 .byte   W12
 .byte   N11 ,Cn4 ,v127
 .byte   W12
 .byte   N11 ,Bn3 ,v127
 .byte   W12
 .byte   N11 ,An3 ,v127
 .byte   W12
@  #01 @311   ----------------------------------------
 .byte   N08 ,Bn3 ,v127
 .byte   W24
 .byte   N08 ,An3 ,v127
 .byte   W24
 .byte   N08 ,Bn3 ,v127
 .byte   W24
 .byte   N08 ,An3 ,v127
 .byte   W24
@  #01 @312   ----------------------------------------
 .byte   N08 ,Bn3 ,v127
 .byte   W12
 .byte   N08 ,Bn3 ,v127
 .byte   W24
 .byte   N08 ,Bn3 ,v127
 .byte   W12
 .byte   N08 ,An3 ,v127
 .byte   W24
 .byte   N08 ,Bn3 ,v127
 .byte   W24
@  #01 @313   ----------------------------------------
 .byte   N64 ,Cn4 ,v127
 .byte   W72
 .byte   TIE ,Bn3 ,v127
 .byte   W24
@  #01 @314   ----------------------------------------
 .byte   W88
 .byte   EOT
 .byte   Bn3
 .byte   W08
@  #01 @315   ----------------------------------------
 .byte   N08 ,En4 ,v127
 .byte   W24
 .byte   N08 ,Dn4 ,v127
 .byte   W24
 .byte   N08 ,En4 ,v127
 .byte   W24
 .byte   N08 ,Dn4 ,v127
 .byte   W24
@  #01 @316   ----------------------------------------
 .byte   N08 ,En4 ,v127
 .byte   W12
 .byte   N08 ,En4 ,v127
 .byte   W24
 .byte   N11 ,Dn4 ,v127
 .byte   W12
 .byte   N08 ,En4 ,v127
 .byte   W24
 .byte   N08 ,Dn4 ,v127
 .byte   W24
@  #01 @317   ----------------------------------------
 .byte   N08 ,En4 ,v127
 .byte   W24
 .byte   N08 ,Dn4 ,v127
 .byte   W24
 .byte   N08 ,En4 ,v127
 .byte   W24
 .byte   N08 ,Dn4 ,v127
 .byte   W24
@  #01 @318   ----------------------------------------
 .byte   N08 ,En4 ,v127
 .byte   W12
 .byte   N08 ,En4 ,v127
 .byte   W24
 .byte   N11 ,Dn4 ,v127
 .byte   W12
 .byte   N08 ,En4 ,v127
 .byte   W24
 .byte   N08 ,Gn4 ,v127
 .byte   W24
@  #01 @319   ----------------------------------------
 .byte   N11 ,Fs4 ,v127
 .byte   W12
 .byte   N11 ,Gn4 ,v127
 .byte   W12
 .byte   N11 ,Bn4 ,v127
 .byte   W12
 .byte   N11 ,An4 ,v127
 .byte   W12
 .byte   N11 ,Gn4 ,v127
 .byte   W12
 .byte   N11 ,Fs4 ,v127
 .byte   W12
 .byte   N11 ,En4 ,v127
 .byte   W12
 .byte   N11 ,Ds4 ,v127
 .byte   W12
@  #01 @320   ----------------------------------------
 .byte   N11 ,Bn3 ,v127
 .byte   W12
 .byte   N11 ,Cn4 ,v127
 .byte   W12
 .byte   N11 ,Ds4 ,v127
 .byte   W12
 .byte   N11 ,En4 ,v127
 .byte   W12
 .byte   N11 ,Fs4 ,v127
 .byte   W12
 .byte   N11 ,En4 ,v127
 .byte   W12
 .byte   N11 ,Ds4 ,v127
 .byte   W12
 .byte   N11 ,Cn4 ,v127
 .byte   W12
@  #01 @321   ----------------------------------------
 .byte   N84 ,Bn3 ,v127
 .byte   W96
@  #01 @322   ----------------------------------------
 .byte   N40 ,Cn4 ,v127
 .byte   W48
 .byte   N40 ,Dn4 ,v127
 .byte   W48
@  #01 @323   ----------------------------------------
 .byte   N11 ,En3 ,v127
 .byte   W12
 .byte   N11 ,Fs3 ,v127
 .byte   W12
 .byte   N23 ,Gn3 ,v127
 .byte   W48
 .byte   N11 ,An3 ,v127
 .byte   W12
 .byte   N11 ,Bn3 ,v127
 .byte   W12
@  #01 @324   ----------------------------------------
 .byte   N23 ,Cn4 ,v127
 .byte   W48
 .byte   N11 ,Dn4 ,v127
 .byte   W12
 .byte   N11 ,En4 ,v127
 .byte   W12
 .byte   N11 ,Fs4 ,v127
 .byte   W12
 .byte   N11 ,Gn4 ,v127
 .byte   W12
@  #01 @325   ----------------------------------------
 .byte   N32 ,Fs4 ,v127
 .byte   W32
 .byte   N32 ,Bn3 ,v127
 .byte   W32
 .byte   N32 ,Ds4 ,v127
 .byte   W32
@  #01 @326   ----------------------------------------
 .byte   N32 ,An4 ,v127
 .byte   W32
 .byte   N32 ,Gn4 ,v127
 .byte   W32
 .byte   N32 ,Fs4 ,v127
 .byte   W32
@  #01 @327   ----------------------------------------
 .byte   N32 ,En4 ,v127
 .byte   W32
 .byte   N32 ,Dn4 ,v127
 .byte   W32
 .byte   N32 ,Cn4 ,v127
 .byte   W32
@  #01 @328   ----------------------------------------
 .byte   N32 ,Bn3 ,v127
 .byte   W32
 .byte   N32 ,An3 ,v127
 .byte   W32
 .byte   N32 ,Gn3 ,v127
 .byte   W32
@  #01 @329   ----------------------------------------
 .byte   N11 ,Cn4 ,v127
 .byte   W12
 .byte   N11 ,Bn3 ,v127
 .byte   W12
 .byte   N11 ,An3 ,v127
 .byte   W12
 .byte   N11 ,Bn3 ,v127
 .byte   W12
 .byte   N11 ,Ds4 ,v127
 .byte   W12
 .byte   N11 ,Cn4 ,v127
 .byte   W12
 .byte   N11 ,Bn3 ,v127
 .byte   W12
 .byte   N11 ,Ds4 ,v127
 .byte   W12
@  #01 @330   ----------------------------------------
 .byte   N11 ,Fs4 ,v127
 .byte   W12
 .byte   N11 ,En4 ,v127
 .byte   W12
 .byte   N11 ,Ds4 ,v127
 .byte   W12
 .byte   N11 ,Fs4 ,v127
 .byte   W12
 .byte   N11 ,An4 ,v127
 .byte   W12
 .byte   N11 ,Gn4 ,v127
 .byte   W12
 .byte   N11 ,Fs4 ,v127
 .byte   W12
 .byte   N11 ,An4 ,v127
 .byte   W12
@  #01 @331   ----------------------------------------
 .byte   N11 ,En3 ,v127
 .byte   W12
 .byte   N11 ,Fs3 ,v127
 .byte   W12
 .byte   N23 ,Gn3 ,v127
 .byte   W48
 .byte   N11 ,An3 ,v127
 .byte   W12
 .byte   N11 ,Bn3 ,v127
 .byte   W12
@  #01 @332   ----------------------------------------
 .byte   N23 ,Cn4 ,v127
 .byte   W48
 .byte   N11 ,Dn4 ,v127
 .byte   W12
 .byte   N11 ,En4 ,v127
 .byte   W12
 .byte   N11 ,Fs4 ,v127
 .byte   W12
 .byte   N11 ,Gn4 ,v127
 .byte   W12
@  #01 @333   ----------------------------------------
 .byte   N32 ,Fs4 ,v127
 .byte   W32
 .byte   N32 ,Bn3 ,v127
 .byte   W32
 .byte   N32 ,Ds4 ,v127
 .byte   W32
@  #01 @334   ----------------------------------------
 .byte   N32 ,An4 ,v127
 .byte   W32
 .byte   N32 ,Gn4 ,v127
 .byte   W32
 .byte   N32 ,Fs4 ,v127
 .byte   W32
@  #01 @335   ----------------------------------------
 .byte   N32 ,En4 ,v127
 .byte   W32
 .byte   N32 ,Dn4 ,v127
 .byte   W32
 .byte   N32 ,Cn4 ,v127
 .byte   W32
@  #01 @336   ----------------------------------------
 .byte   N32 ,Bn3 ,v127
 .byte   W32
 .byte   N32 ,An3 ,v127
 .byte   W32
 .byte   N32 ,Gn3 ,v127
 .byte   W32
@  #01 @337   ----------------------------------------
 .byte   N11 ,Ds4 ,v127
 .byte   W12
 .byte   N11 ,Cn4 ,v127
 .byte   W12
 .byte   N11 ,An3 ,v127
 .byte   W12
 .byte   N11 ,Fs4 ,v127
 .byte   W12
 .byte   N11 ,En4 ,v127
 .byte   W12
 .byte   N11 ,Dn4 ,v127
 .byte   W12
 .byte   N11 ,Bn3 ,v127
 .byte   W12
 .byte   N11 ,Gn4 ,v127
 .byte   W12
@  #01 @338   ----------------------------------------
 .byte   N11 ,Fs4 ,v127
 .byte   W12
 .byte   N11 ,En4 ,v127
 .byte   W12
 .byte   N11 ,Cn4 ,v127
 .byte   W12
 .byte   N11 ,An4 ,v127
 .byte   W12
 .byte   N11 ,Gn4 ,v127
 .byte   W12
 .byte   N11 ,Fs4 ,v127
 .byte   W12
 .byte   N11 ,Ds4 ,v127
 .byte   W12
 .byte   N11 ,Bn4 ,v127
 .byte   W96
@  #01 @339   ----------------------------------------
 .byte   W12
 .byte   N08 ,En4 ,v127
 .byte   W24
 .byte   N08 ,Dn4 ,v127
 .byte   W24
 .byte   N08 ,En4 ,v127
 .byte   W24
 .byte   N08 ,Dn4 ,v127
 .byte   W24
@  #01 @340   ----------------------------------------
 .byte   N08 ,En4 ,v127
 .byte   W12
 .byte   N08 ,En4 ,v127
 .byte   W24
 .byte   N08 ,Dn4 ,v127
 .byte   W12
 .byte   N08 ,En4 ,v127
 .byte   W24
 .byte   N08 ,Gn4 ,v127
 .byte   W24
@  #01 @341   ----------------------------------------
 .byte   N30 ,Fs4 ,v127 ,gtp1
 .byte   W32
 .byte   N30 ,Gn4 ,v127 ,gtp1
 .byte   W32
 .byte   N30 ,An4 ,v127 ,gtp1
 .byte   W32
@  #01 @342   ----------------------------------------
 .byte   N11 ,Gn4 ,v127
 .byte   W12
 .byte   N11 ,Fs4 ,v127
 .byte   W12
 .byte   N11 ,Dn4 ,v127
 .byte   W12
 .byte   N11 ,Cn4 ,v127
 .byte   W12
 .byte   N11 ,Dn4 ,v127
 .byte   W12
 .byte   N11 ,Cn4 ,v127
 .byte   W12
 .byte   N11 ,Bn3 ,v127
 .byte   W12
 .byte   N11 ,An3 ,v127
 .byte   W12
@  #01 @343   ----------------------------------------
 .byte   N08 ,Bn3 ,v127
 .byte   W24
 .byte   N08 ,An3 ,v127
 .byte   W24
 .byte   N08 ,Bn3 ,v127
 .byte   W24
 .byte   N08 ,An3 ,v127
 .byte   W24
@  #01 @344   ----------------------------------------
 .byte   N08 ,Bn3 ,v127
 .byte   W12
 .byte   N08 ,Bn3 ,v127
 .byte   W24
 .byte   N08 ,Bn3 ,v127
 .byte   W12
 .byte   N08 ,An3 ,v127
 .byte   W24
 .byte   N08 ,Bn3 ,v127
 .byte   W24
@  #01 @345   ----------------------------------------
 .byte   N64 ,Cn4 ,v127
 .byte   W72
 .byte   TIE ,Bn3 ,v127
 .byte   W96
@  #01 @346   ----------------------------------------
 .byte   W16
 .byte   EOT
 .byte   Bn3
 .byte   W08
 .byte   N08 ,En4 ,v127
 .byte   W24
 .byte   N08 ,Dn4 ,v127
 .byte   W24
 .byte   N08 ,En4 ,v127
 .byte   W24
@  #01 @347   ----------------------------------------
 .byte   N08 ,Dn4 ,v127
 .byte   W24
 .byte   N08 ,En4 ,v127
 .byte   W12
 .byte   N08 ,En4 ,v127
 .byte   W24
 .byte   N11 ,Dn4 ,v127
 .byte   W12
 .byte   N08 ,En4 ,v127
 .byte   W24
@  #01 @348   ----------------------------------------
 .byte   N08 ,Dn4 ,v127
 .byte   W24
 .byte   N08 ,En4 ,v127
 .byte   W24
 .byte   N08 ,Dn4 ,v127
 .byte   W24
 .byte   N08 ,En4 ,v127
 .byte   W24
@  #01 @349   ----------------------------------------
 .byte   N08 ,Dn4 ,v127
 .byte   W24
 .byte   N08 ,En4 ,v127
 .byte   W12
 .byte   N08 ,En4 ,v127
 .byte   W24
 .byte   N11 ,Dn4 ,v127
 .byte   W12
 .byte   N08 ,En4 ,v127
 .byte   W24
@  #01 @350   ----------------------------------------
 .byte   N08 ,Gn4 ,v127
 .byte   W24
 .byte   N11 ,Fs4 ,v127
 .byte   W12
 .byte   N11 ,Gn4 ,v127
 .byte   W12
 .byte   N11 ,Bn4 ,v127
 .byte   W12
 .byte   N11 ,An4 ,v127
 .byte   W12
 .byte   N11 ,Gn4 ,v127
 .byte   W12
 .byte   N11 ,Fs4 ,v127
 .byte   W12
@  #01 @351   ----------------------------------------
 .byte   N11 ,En4 ,v127
 .byte   W12
 .byte   N11 ,Ds4 ,v127
 .byte   W12
 .byte   N11 ,Bn3 ,v127
 .byte   W12
 .byte   N11 ,Cn4 ,v127
 .byte   W12
 .byte   N11 ,Ds4 ,v127
 .byte   W12
 .byte   N11 ,En4 ,v127
 .byte   W12
 .byte   N11 ,Fs4 ,v127
 .byte   W12
 .byte   N11 ,En4 ,v127
 .byte   W12
@  #01 @352   ----------------------------------------
 .byte   N11 ,Ds4 ,v127
 .byte   W12
 .byte   N11 ,Cn4 ,v127
 .byte   W12
 .byte   N84 ,Bn3 ,v127
 .byte   W96
@  #01 @353   ----------------------------------------
 .byte   N40 ,Cn4 ,v127
 .byte   W48
 .byte   N40 ,Dn4 ,v127
 .byte   W48
@  #01 @354   ----------------------------------------
 .byte   W96
@  #01 @355   ----------------------------------------
 .byte   W96
@  #01 @356   ----------------------------------------
 .byte   W96
@  #01 @357   ----------------------------------------
 .byte   W96
@  #01 @358   ----------------------------------------
 .byte   W96
@  #01 @359   ----------------------------------------
 .byte   W96
@  #01 @360   ----------------------------------------
 .byte   N96 ,En3 ,v127
 .byte   W96
@  #01 @361   ----------------------------------------
 .byte   N96 ,Ds3 ,v127
 .byte   W96
@  #01 @362   ----------------------------------------
 .byte   N96 ,Cn3 ,v127
 .byte   W96
@  #01 @363   ----------------------------------------
 .byte   N96 ,Bn2 ,v127
 .byte   W96
@  #01 @364   ----------------------------------------
 .byte   N96 ,An2 ,v127
 .byte   W96
@  #01 @365   ----------------------------------------
 .byte   N96 ,Gn2 ,v127
 .byte   W96
@  #01 @366   ----------------------------------------
 .byte   N96 ,An2 ,v127
 .byte   W96
@  #01 @367   ----------------------------------------
 .byte   N96 ,Cn3 ,v127
 .byte   W96
@  #01 @368   ----------------------------------------
 .byte   TIE ,Dn3 ,v127
 .byte   W96
@  #01 @369   ----------------------------------------
 .byte   W84
 .byte   EOT
 .byte   Dn3
 .byte   W12
@  #01 @370   ----------------------------------------
 .byte   TIE ,En4 ,v127
 .byte   W96
@  #01 @371   ----------------------------------------
 .byte   W32
 .byte   EOT
 .byte   En4
 .byte   N32 ,Fs4 ,v127
 .byte   W32
 .byte   N32 ,En4 ,v127
 .byte   W32
@  #01 @372   ----------------------------------------
 .byte   N96 ,Ds4 ,v127
 .byte   W96
@  #01 @373   ----------------------------------------
 .byte   N72 ,Bn3 ,v127
 .byte   W72
 .byte   N24 ,Cs4 ,v127
 .byte   W24
@  #01 @374   ----------------------------------------
 .byte   TIE ,Dn4 ,v127
 .byte   W96
@  #01 @375   ----------------------------------------
 .byte   W32
 .byte   EOT
 .byte   Dn4
 .byte   N32 ,En4 ,v127
 .byte   W32
 .byte   N32 ,Dn4 ,v127
 .byte   W32
@  #01 @376   ----------------------------------------
 .byte   N96 ,Cs4 ,v127
 .byte   W96
@  #01 @377   ----------------------------------------
 .byte   N84 ,Fs3 ,v127
 .byte   W96
@  #01 @378   ----------------------------------------
 .byte   TIE ,En4 ,v127
 .byte   W96
@  #01 @379   ----------------------------------------
 .byte   W32
 .byte   EOT
 .byte   En4
 .byte   N32 ,Fs4 ,v127
 .byte   W32
 .byte   N32 ,En4 ,v127
 .byte   W32
@  #01 @380   ----------------------------------------
 .byte   N96 ,Ds4 ,v127
 .byte   W96
@  #01 @381   ----------------------------------------
 .byte   N72 ,Bn3 ,v127
 .byte   W72
 .byte   N24 ,Cs4 ,v127
 .byte   W24
@  #01 @382   ----------------------------------------
 .byte   TIE ,Dn4 ,v127
 .byte   W96
@  #01 @383   ----------------------------------------
 .byte   W32
 .byte   EOT
 .byte   Dn4
 .byte   N32 ,En4 ,v127
 .byte   W32
 .byte   N32 ,Dn4 ,v127
 .byte   W32
@  #01 @384   ----------------------------------------
 .byte   TIE ,Cs4 ,v127
 .byte   W96
@  #01 @385   ----------------------------------------
 .byte   W84
 .byte   EOT
 .byte   Cs4
 .byte   W12
@  #01 @386   ----------------------------------------
 .byte   TIE ,En4 ,v127
 .byte   W96
@  #01 @387   ----------------------------------------
 .byte   W32
 .byte   EOT
 .byte   En4
 .byte   N32 ,Fs4 ,v127
 .byte   W32
 .byte   N32 ,En4 ,v127
 .byte   W32
@  #01 @388   ----------------------------------------
 .byte   N96 ,Ds4 ,v127
 .byte   W96
@  #01 @389   ----------------------------------------
 .byte   N72 ,Bn3 ,v127
 .byte   W72
 .byte   N24 ,Cs4 ,v127
 .byte   W24
@  #01 @390   ----------------------------------------
 .byte   TIE ,Dn4 ,v127
 .byte   W96
@  #01 @391   ----------------------------------------
 .byte   W32
 .byte   EOT
 .byte   Dn4
 .byte   N32 ,En4 ,v127
 .byte   W32
 .byte   N32 ,Dn4 ,v127
 .byte   W32
@  #01 @392   ----------------------------------------
 .byte   N96 ,Cs4 ,v127
 .byte   W96
@  #01 @393   ----------------------------------------
 .byte   N84 ,Fs3 ,v127
 .byte   W96
@  #01 @394   ----------------------------------------
 .byte   TIE ,En4 ,v127
 .byte   W96
@  #01 @395   ----------------------------------------
 .byte   W32
 .byte   EOT
 .byte   En4
 .byte   N32 ,Fs4 ,v127
 .byte   W32
 .byte   N32 ,En4 ,v127
 .byte   W32
@  #01 @396   ----------------------------------------
 .byte   N96 ,Ds4 ,v127
 .byte   W96
@  #01 @397   ----------------------------------------
 .byte   N72 ,Bn3 ,v127
 .byte   W72
 .byte   N24 ,Cs4 ,v127
 .byte   W24
@  #01 @398   ----------------------------------------
 .byte   TIE ,Dn4 ,v127
 .byte   W96
@  #01 @399   ----------------------------------------
 .byte   W32
 .byte   EOT
 .byte   Dn4
 .byte   N32 ,En4 ,v127
 .byte   W32
 .byte   N32 ,Dn4 ,v127
 .byte   W32
@  #01 @400   ----------------------------------------
 .byte   N96 ,Cs4 ,v127
 .byte   W96
@  #01 @401   ----------------------------------------
 .byte   N32 ,An3 ,v127
 .byte   W32
 .byte   N32 ,En4 ,v127
 .byte   W32
 .byte   N32 ,An4 ,v127
 .byte   W32
@  #01 @402   ----------------------------------------
 .byte   TIE ,Gn4 ,v127
 .byte   W96
@  #01 @403   ----------------------------------------
 .byte   W96
@  #01 @404   ----------------------------------------
 .byte   W96
@  #01 @405   ----------------------------------------
 .byte   W96
@  #01 @406   ----------------------------------------
 .byte   W96
@  #01 @407   ----------------------------------------
 .byte   W96
@  #01 @408   ----------------------------------------
 .byte   W96
@  #01 @409   ----------------------------------------
 .byte   W84
 .byte   EOT
 .byte   Gn4
 .byte   W12
@  #01 @410   ----------------------------------------
 .byte   W96
@  #01 @411   ----------------------------------------
 .byte   W96
@  #01 @412   ----------------------------------------
 .byte   W96
@  #01 @413   ----------------------------------------
 .byte   W96
@  #01 @414   ----------------------------------------
 .byte   W72
 .byte   N05 ,An3 ,v127
 .byte   W06
 .byte   N05 ,Bn3 ,v127
 .byte   W06
 .byte   N05 ,Cs4 ,v127
 .byte   W06
 .byte   N05 ,Dn4 ,v127
 .byte   W06
@  #01 @415   ----------------------------------------
 .byte   TIE ,En4 ,v127
 .byte   W96
@  #01 @416   ----------------------------------------
 .byte   W96
@  #01 @417   ----------------------------------------
 .byte   W96
@  #01 @418   ----------------------------------------
 .byte   W96
@  #01 @419   ----------------------------------------
 .byte   W96
@  #01 @420   ----------------------------------------
 .byte   W96
@  #01 @421   ----------------------------------------
 .byte   W96
@  #01 @422   ----------------------------------------
 .byte   W84
 .byte   EOT
 .byte   En4
 .byte   W96
@  #01 @423   ----------------------------------------
 .byte   W12
 .byte   GOTO
  .word Label_01004E08
 .byte   FINE

@**************** Track 2 (Midi-Chn.1) ****************@

song04_002:
@  #02 @000   ----------------------------------------
Label_0100610C:
 .byte   KEYSH , song04_key+0
 .byte   VOICE , 40
 .byte   VOL , 50*song04_mvl/mxv
 .byte   MODT 1
 .byte   VOL , 44*song04_mvl/mxv
 .byte   PAN , c_v-32
 .byte   W96
@  #02 @001   ----------------------------------------
 .byte   TIE ,Gn3 ,v092
 .byte   TIE ,Cn4 ,v092
 .byte   N96 ,En4 ,v092
 .byte   W96
@  #02 @002   ----------------------------------------
 .byte   N32 ,Fs4 ,v092
 .byte   W32
 .byte   N32 ,Gn4 ,v092
 .byte   W32
 .byte   N32 ,Fs4 ,v092
 .byte   W20
 .byte   EOT
 .byte   Gn3
 .byte   EOT
 .byte   Cn4
 .byte   W12
@  #02 @003   ----------------------------------------
 .byte   TIE ,Gn3 ,v092
 .byte   TIE ,Cn4 ,v092
 .byte   N96 ,En4 ,v092
 .byte   W96
@  #02 @004   ----------------------------------------
 .byte   N32 ,Fs4 ,v092
 .byte   W32
 .byte   N32 ,Gn4 ,v092
 .byte   W32
 .byte   N32 ,Fs4 ,v092
 .byte   W20
 .byte   EOT
 .byte   Gn3
 .byte   EOT
 .byte   Cn4
 .byte   W12
@  #02 @005   ----------------------------------------
 .byte   TIE ,Gn3 ,v092
 .byte   TIE ,Cn4 ,v092
 .byte   N96 ,En4 ,v092
 .byte   W96
@  #02 @006   ----------------------------------------
 .byte   N32 ,Fs4 ,v092
 .byte   W32
 .byte   N32 ,Gn4 ,v092
 .byte   W32
 .byte   N32 ,Fs4 ,v092
 .byte   W20
 .byte   EOT
 .byte   Gn3
 .byte   EOT
 .byte   Cn4
 .byte   W12
@  #02 @007   ----------------------------------------
 .byte   TIE ,Bn3 ,v092
 .byte   N96 ,En4 ,v092
 .byte   N96 ,An4 ,v092
 .byte   W96
@  #02 @008   ----------------------------------------
 .byte   N96 ,Ds4 ,v092
 .byte   N96 ,Bn4 ,v092
 .byte   W84
 .byte   EOT
 .byte   Bn3
 .byte   W12
@  #02 @009   ----------------------------------------
 .byte   TIE ,Gn3 ,v092
 .byte   TIE ,Cn4 ,v092
 .byte   N96 ,En4 ,v092
 .byte   N96 ,Cn5 ,v092
 .byte   W96
@  #02 @010   ----------------------------------------
 .byte   N32 ,Fs4 ,v092
 .byte   N96 ,Bn4 ,v092
 .byte   W32
 .byte   N32 ,Gn4 ,v092
 .byte   W32
 .byte   N32 ,Fs4 ,v092
 .byte   W20
 .byte   EOT
 .byte   Gn3
 .byte   EOT
 .byte   Cn4
 .byte   W12
@  #02 @011   ----------------------------------------
 .byte   TIE ,Gn3 ,v092
 .byte   TIE ,Cn4 ,v092
 .byte   N96 ,En4 ,v092
 .byte   N96 ,An4 ,v092
 .byte   W96
@  #02 @012   ----------------------------------------
 .byte   N32 ,Fs4 ,v092
 .byte   N96 ,Bn4 ,v092
 .byte   W32
 .byte   N32 ,Gn4 ,v092
 .byte   W32
 .byte   N32 ,Fs4 ,v092
 .byte   W20
 .byte   EOT
 .byte   Gn3
 .byte   EOT
 .byte   Cn4
 .byte   W12
@  #02 @013   ----------------------------------------
 .byte   TIE ,Gn3 ,v092
 .byte   TIE ,Cn4 ,v092
 .byte   N96 ,En4 ,v092
 .byte   N96 ,Cn5 ,v092
 .byte   W96
@  #02 @014   ----------------------------------------
 .byte   N32 ,Fs4 ,v092
 .byte   N32 ,Cn5 ,v092
 .byte   W32
 .byte   N32 ,Gn4 ,v092
 .byte   N32 ,Dn5 ,v092
 .byte   W32
 .byte   N32 ,Fs4 ,v092
 .byte   N32 ,En5 ,v092
 .byte   W20
 .byte   EOT
 .byte   Gn3
 .byte   EOT
 .byte   Cn4
 .byte   W12
@  #02 @015   ----------------------------------------
 .byte   N96 ,Gn3 ,v092
 .byte   TIE ,Dn4 ,v092
 .byte   TIE ,Fs4 ,v092
 .byte   TIE ,Dn5 ,v092
 .byte   W96
@  #02 @016   ----------------------------------------
 .byte   N96 ,Fs3 ,v092
 .byte   W84
 .byte   EOT
 .byte   Dn4
 .byte   EOT
 .byte   Fs4
 .byte   EOT
 .byte   Dn5
 .byte   W12
@  #02 @017   ----------------------------------------
 .byte   TIE ,An3 ,v092
 .byte   TIE ,Cs4 ,v092
 .byte   TIE ,En4 ,v092
 .byte   TIE ,Fs4 ,v092
 .byte   W96
@  #02 @018   ----------------------------------------
 .byte   W96
@  #02 @019   ----------------------------------------
 .byte   EOT
 .byte   An3
 .byte   EOT
 .byte   Cs4
 .byte   EOT
 .byte   En4
 .byte   EOT
 .byte   Fs4
 .byte   TIE ,Bn3 ,v092
 .byte   TIE ,Ds4 ,v092
 .byte   TIE ,Fs4 ,v092
 .byte   W96
@  #02 @020   ----------------------------------------
 .byte   W96
@  #02 @021   ----------------------------------------
 .byte   EOT
 .byte   Bn3
 .byte   EOT
 .byte   Ds4
 .byte   EOT
 .byte   Fs4
 .byte   TIE ,An3 ,v092
 .byte   TIE ,Dn4 ,v092
 .byte   TIE ,Fs4 ,v092
 .byte   W96
@  #02 @022   ----------------------------------------
 .byte   W96
@  #02 @023   ----------------------------------------
 .byte   EOT
 .byte   An3
 .byte   EOT
 .byte   Dn4
 .byte   EOT
 .byte   Fs4
 .byte   TIE ,An3 ,v092
 .byte   TIE ,Cs4 ,v092
 .byte   TIE ,Fs4 ,v092
 .byte   W96
@  #02 @024   ----------------------------------------
 .byte   W96
@  #02 @025   ----------------------------------------
 .byte   TIE ,En4 ,v092
 .byte   W96
@  #02 @026   ----------------------------------------
 .byte   W96
@  #02 @027   ----------------------------------------
 .byte   EOT
 .byte   An3
 .byte   EOT
 .byte   Cs4
 .byte   EOT
 .byte   En4
 .byte   EOT
 .byte   Fs4
 .byte   TIE ,Bn3 ,v092
 .byte   TIE ,Ds4 ,v092
 .byte   TIE ,Fs4 ,v092
 .byte   W96
@  #02 @028   ----------------------------------------
 .byte   W96
@  #02 @029   ----------------------------------------
 .byte   EOT
 .byte   Bn3
 .byte   EOT
 .byte   Ds4
 .byte   EOT
 .byte   Fs4
 .byte   TIE ,An3 ,v092
 .byte   TIE ,Dn4 ,v092
 .byte   TIE ,Fs4 ,v092
 .byte   W96
@  #02 @030   ----------------------------------------
 .byte   W96
@  #02 @031   ----------------------------------------
 .byte   EOT
 .byte   An3
 .byte   EOT
 .byte   Dn4
 .byte   EOT
 .byte   Fs4
 .byte   N96 ,As3 ,v092
 .byte   N96 ,Cs4 ,v092
 .byte   N96 ,Fs4 ,v092
 .byte   W96
@  #02 @032   ----------------------------------------
 .byte   N96 ,An3 ,v092
 .byte   N96 ,Cs4 ,v092
 .byte   N96 ,En4 ,v092
 .byte   W96
@  #02 @033   ----------------------------------------
 .byte   TIE ,Gn3 ,v092
 .byte   W96
@  #02 @034   ----------------------------------------
 .byte   N96 ,Bn3 ,v092
 .byte   W96
@  #02 @035   ----------------------------------------
 .byte   N96 ,Cs4 ,v092
 .byte   W96
@  #02 @036   ----------------------------------------
 .byte   N96 ,Dn4 ,v092
 .byte   W96
@  #02 @037   ----------------------------------------
 .byte   EOT
 .byte   Gn3
 .byte   TIE ,Gn3 ,v092
 .byte   TIE ,Gn4 ,v092
 .byte   W96
@  #02 @038   ----------------------------------------
 .byte   N96 ,Bn3 ,v092
 .byte   W96
@  #02 @039   ----------------------------------------
 .byte   N96 ,Cs4 ,v092
 .byte   W96
@  #02 @040   ----------------------------------------
 .byte   N96 ,Dn4 ,v092
 .byte   W84
 .byte   EOT
 .byte   Gn4
 .byte   W12
@  #02 @041   ----------------------------------------
 .byte   EOT
 .byte   Gn3
 .byte   N08 ,An3 ,v092
 .byte   N08 ,Cs4 ,v092
 .byte   N08 ,En4 ,v092
 .byte   N08 ,Fs4 ,v092
 .byte   W24
 .byte   N08 ,An3 ,v092
 .byte   N08 ,Cs4 ,v092
 .byte   N08 ,En4 ,v092
 .byte   N08 ,Fs4 ,v092
 .byte   W24
 .byte   N08 ,An3 ,v092
 .byte   N08 ,Cs4 ,v092
 .byte   N08 ,En4 ,v092
 .byte   N08 ,Fs4 ,v092
 .byte   W24
 .byte   N08 ,An3 ,v092
 .byte   N08 ,Cs4 ,v092
 .byte   N08 ,En4 ,v092
 .byte   N08 ,Fs4 ,v092
 .byte   W24
@  #02 @042   ----------------------------------------
 .byte   N08 ,An3 ,v092
 .byte   N08 ,Cs4 ,v092
 .byte   N08 ,En4 ,v092
 .byte   N08 ,Fs4 ,v092
 .byte   W24
 .byte   N08 ,An3 ,v092
 .byte   N08 ,Cs4 ,v092
 .byte   N08 ,En4 ,v092
 .byte   N08 ,Fs4 ,v092
 .byte   W24
 .byte   N08 ,An3 ,v092
 .byte   N08 ,Cs4 ,v092
 .byte   N08 ,En4 ,v092
 .byte   N08 ,Fs4 ,v092
 .byte   W24
 .byte   N08 ,An3 ,v092
 .byte   N08 ,Cs4 ,v092
 .byte   N08 ,En4 ,v092
 .byte   N08 ,Fs4 ,v092
 .byte   W24
@  #02 @043   ----------------------------------------
 .byte   N08 ,Bn3 ,v092
 .byte   N08 ,Ds4 ,v092
 .byte   N08 ,Fs4 ,v092
 .byte   W24
 .byte   N08 ,Bn3 ,v092
 .byte   N08 ,Ds4 ,v092
 .byte   N08 ,Fs4 ,v092
 .byte   W24
 .byte   N08 ,Bn3 ,v092
 .byte   N08 ,Ds4 ,v092
 .byte   N08 ,Fs4 ,v092
 .byte   W24
 .byte   N08 ,Bn3 ,v092
 .byte   N08 ,Ds4 ,v092
 .byte   N08 ,Fs4 ,v092
 .byte   W24
@  #02 @044   ----------------------------------------
 .byte   N08 ,Bn3 ,v092
 .byte   N08 ,Ds4 ,v092
 .byte   N08 ,Fs4 ,v092
 .byte   W24
 .byte   N08 ,Bn3 ,v092
 .byte   N08 ,Ds4 ,v092
 .byte   N08 ,Fs4 ,v092
 .byte   W24
 .byte   N08 ,Bn3 ,v092
 .byte   N08 ,Ds4 ,v092
 .byte   N08 ,Fs4 ,v092
 .byte   W24
 .byte   N08 ,Bn3 ,v092
 .byte   N08 ,Ds4 ,v092
 .byte   N08 ,Fs4 ,v092
 .byte   W24
@  #02 @045   ----------------------------------------
 .byte   N08 ,Bn3 ,v092
 .byte   N08 ,En4 ,v092
 .byte   N08 ,Gn4 ,v092
 .byte   W24
 .byte   N08 ,Bn3 ,v092
 .byte   N08 ,En4 ,v092
 .byte   N08 ,Gn4 ,v092
 .byte   W24
 .byte   N08 ,Bn3 ,v092
 .byte   N08 ,En4 ,v092
 .byte   N08 ,Gn4 ,v092
 .byte   W24
 .byte   N08 ,Bn3 ,v092
 .byte   N08 ,En4 ,v092
 .byte   N08 ,Gn4 ,v092
 .byte   W24
@  #02 @046   ----------------------------------------
 .byte   N08 ,Bn3 ,v092
 .byte   N08 ,En4 ,v092
 .byte   N08 ,Gn4 ,v092
 .byte   W24
 .byte   N08 ,Bn3 ,v092
 .byte   N08 ,En4 ,v092
 .byte   N08 ,Gn4 ,v092
 .byte   W24
 .byte   N08 ,Bn3 ,v092
 .byte   N08 ,En4 ,v092
 .byte   N08 ,Gn4 ,v092
 .byte   W24
 .byte   N08 ,Bn3 ,v092
 .byte   N08 ,En4 ,v092
 .byte   N08 ,Gn4 ,v092
 .byte   W24
@  #02 @047   ----------------------------------------
 .byte   N08 ,Bn3 ,v092
 .byte   N08 ,Ds4 ,v092
 .byte   N08 ,Fs4 ,v092
 .byte   W24
 .byte   N08 ,Bn3 ,v092
 .byte   N08 ,Ds4 ,v092
 .byte   N08 ,Fs4 ,v092
 .byte   W24
 .byte   N08 ,Bn3 ,v092
 .byte   N08 ,Ds4 ,v092
 .byte   N08 ,Fs4 ,v092
 .byte   W24
 .byte   N08 ,Bn3 ,v092
 .byte   N08 ,Ds4 ,v092
 .byte   N08 ,Fs4 ,v092
 .byte   W24
@  #02 @048   ----------------------------------------
 .byte   N08 ,Bn3 ,v092
 .byte   N08 ,Ds4 ,v092
 .byte   N08 ,Fs4 ,v092
 .byte   W24
 .byte   N08 ,Bn3 ,v092
 .byte   N08 ,Ds4 ,v092
 .byte   N08 ,Fs4 ,v092
 .byte   W24
 .byte   N08 ,Bn3 ,v092
 .byte   N08 ,Ds4 ,v092
 .byte   N08 ,Fs4 ,v092
 .byte   W24
 .byte   N08 ,Bn3 ,v092
 .byte   N08 ,Ds4 ,v092
 .byte   N08 ,Fs4 ,v092
 .byte   W24
@  #02 @049   ----------------------------------------
 .byte   N08 ,An3 ,v092
 .byte   N08 ,Cs4 ,v092
 .byte   N08 ,En4 ,v092
 .byte   N08 ,Fs4 ,v092
 .byte   W24
 .byte   N08 ,An3 ,v092
 .byte   N08 ,Cs4 ,v092
 .byte   N08 ,En4 ,v092
 .byte   N08 ,Fs4 ,v092
 .byte   W24
 .byte   N08 ,An3 ,v092
 .byte   N08 ,Cs4 ,v092
 .byte   N08 ,En4 ,v092
 .byte   N08 ,Fs4 ,v092
 .byte   W24
 .byte   N08 ,An3 ,v092
 .byte   N08 ,Cs4 ,v092
 .byte   N08 ,En4 ,v092
 .byte   N08 ,Fs4 ,v092
 .byte   W24
@  #02 @050   ----------------------------------------
 .byte   N08 ,An3 ,v092
 .byte   N08 ,Cs4 ,v092
 .byte   N08 ,En4 ,v092
 .byte   N08 ,Fs4 ,v092
 .byte   W24
 .byte   N08 ,An3 ,v092
 .byte   N08 ,Cs4 ,v092
 .byte   N08 ,En4 ,v092
 .byte   N08 ,Fs4 ,v092
 .byte   W24
 .byte   N08 ,An3 ,v092
 .byte   N08 ,Cs4 ,v092
 .byte   N08 ,En4 ,v092
 .byte   N08 ,Fs4 ,v092
 .byte   W24
 .byte   N08 ,An3 ,v092
 .byte   N08 ,Cs4 ,v092
 .byte   N08 ,En4 ,v092
 .byte   N08 ,Fs4 ,v092
 .byte   W24
@  #02 @051   ----------------------------------------
 .byte   N08 ,Bn3 ,v092
 .byte   N08 ,Ds4 ,v092
 .byte   N08 ,Fs4 ,v092
 .byte   W24
 .byte   N08 ,Bn3 ,v092
 .byte   N08 ,Ds4 ,v092
 .byte   N08 ,Fs4 ,v092
 .byte   W24
 .byte   N08 ,Bn3 ,v092
 .byte   N08 ,Ds4 ,v092
 .byte   N08 ,Fs4 ,v092
 .byte   W24
 .byte   N08 ,Bn3 ,v092
 .byte   N08 ,Ds4 ,v092
 .byte   N08 ,Fs4 ,v092
 .byte   W24
@  #02 @052   ----------------------------------------
 .byte   N08 ,Bn3 ,v092
 .byte   N08 ,Ds4 ,v092
 .byte   N08 ,Fs4 ,v092
 .byte   W24
 .byte   N08 ,Bn3 ,v092
 .byte   N08 ,Ds4 ,v092
 .byte   N08 ,Fs4 ,v092
 .byte   W24
 .byte   N08 ,Bn3 ,v092
 .byte   N08 ,Ds4 ,v092
 .byte   N08 ,Fs4 ,v092
 .byte   W24
 .byte   N08 ,Bn3 ,v092
 .byte   N08 ,Ds4 ,v092
 .byte   N08 ,Fs4 ,v092
 .byte   W24
@  #02 @053   ----------------------------------------
 .byte   N08 ,Bn3 ,v092
 .byte   N08 ,En4 ,v092
 .byte   N08 ,Gn4 ,v092
 .byte   W24
 .byte   N08 ,Bn3 ,v092
 .byte   N08 ,En4 ,v092
 .byte   N08 ,Gn4 ,v092
 .byte   W24
 .byte   N08 ,Bn3 ,v092
 .byte   N08 ,En4 ,v092
 .byte   N08 ,Gn4 ,v092
 .byte   W24
 .byte   N08 ,Bn3 ,v092
 .byte   N08 ,En4 ,v092
 .byte   N08 ,Gn4 ,v092
 .byte   W24
@  #02 @054   ----------------------------------------
 .byte   N08 ,Bn3 ,v092
 .byte   N08 ,En4 ,v092
 .byte   N08 ,Gn4 ,v092
 .byte   W24
 .byte   N08 ,Bn3 ,v092
 .byte   N08 ,En4 ,v092
 .byte   N08 ,Gn4 ,v092
 .byte   W24
 .byte   N08 ,Bn3 ,v092
 .byte   N08 ,En4 ,v092
 .byte   N08 ,Gn4 ,v092
 .byte   W24
 .byte   N08 ,Bn3 ,v092
 .byte   N08 ,En4 ,v092
 .byte   N08 ,Gn4 ,v092
 .byte   W24
@  #02 @055   ----------------------------------------
 .byte   N08 ,Bn3 ,v092
 .byte   N08 ,Ds4 ,v092
 .byte   N08 ,Fs4 ,v092
 .byte   W24
 .byte   N08 ,Bn3 ,v092
 .byte   N08 ,Ds4 ,v092
 .byte   N08 ,Fs4 ,v092
 .byte   W24
 .byte   N08 ,Bn3 ,v092
 .byte   N08 ,Ds4 ,v092
 .byte   N08 ,Fs4 ,v092
 .byte   W24
 .byte   N08 ,Bn3 ,v092
 .byte   N08 ,Ds4 ,v092
 .byte   N08 ,Fs4 ,v092
 .byte   W24
@  #02 @056   ----------------------------------------
 .byte   N08 ,Bn3 ,v092
 .byte   N08 ,Ds4 ,v092
 .byte   N08 ,Fs4 ,v092
 .byte   W24
 .byte   N08 ,Bn3 ,v092
 .byte   N08 ,Ds4 ,v092
 .byte   N08 ,Fs4 ,v092
 .byte   W24
 .byte   N08 ,Bn3 ,v092
 .byte   N08 ,Ds4 ,v092
 .byte   N08 ,Fs4 ,v092
 .byte   W24
 .byte   N08 ,Bn3 ,v092
 .byte   N08 ,Ds4 ,v092
 .byte   N08 ,Fs4 ,v092
 .byte   W24
@  #02 @057   ----------------------------------------
 .byte   TIE ,An3 ,v092
 .byte   TIE ,Cs4 ,v092
 .byte   TIE ,En4 ,v092
 .byte   TIE ,Fs4 ,v092
 .byte   W96
@  #02 @058   ----------------------------------------
 .byte   W96
@  #02 @059   ----------------------------------------
 .byte   EOT
 .byte   An3
 .byte   EOT
 .byte   Cs4
 .byte   EOT
 .byte   En4
 .byte   EOT
 .byte   Fs4
 .byte   TIE ,Bn3 ,v092
 .byte   TIE ,Ds4 ,v092
 .byte   TIE ,Fs4 ,v092
 .byte   W96
@  #02 @060   ----------------------------------------
 .byte   W96
@  #02 @061   ----------------------------------------
 .byte   EOT
 .byte   Bn3
 .byte   EOT
 .byte   Ds4
 .byte   EOT
 .byte   Fs4
 .byte   TIE ,Bn3 ,v092
 .byte   TIE ,En4 ,v092
 .byte   TIE ,Gn4 ,v092
 .byte   W96
@  #02 @062   ----------------------------------------
 .byte   W96
@  #02 @063   ----------------------------------------
 .byte   EOT
 .byte   Bn3
 .byte   EOT
 .byte   En4
 .byte   EOT
 .byte   Gn4
 .byte   TIE ,Bn3 ,v092
 .byte   TIE ,Ds4 ,v092
 .byte   TIE ,Fs4 ,v092
 .byte   W96
@  #02 @064   ----------------------------------------
 .byte   W96
@  #02 @065   ----------------------------------------
 .byte   EOT
 .byte   Bn3
 .byte   EOT
 .byte   Ds4
 .byte   EOT
 .byte   Fs4
 .byte   TIE ,An3 ,v092
 .byte   TIE ,Cs4 ,v092
 .byte   TIE ,En4 ,v092
 .byte   TIE ,Fs4 ,v092
 .byte   W96
@  #02 @066   ----------------------------------------
 .byte   W96
@  #02 @067   ----------------------------------------
 .byte   EOT
 .byte   An3
 .byte   EOT
 .byte   Cs4
 .byte   EOT
 .byte   En4
 .byte   EOT
 .byte   Fs4
 .byte   TIE ,Bn3 ,v092
 .byte   TIE ,Ds4 ,v092
 .byte   TIE ,Fs4 ,v092
 .byte   W96
@  #02 @068   ----------------------------------------
 .byte   W96
@  #02 @069   ----------------------------------------
 .byte   EOT
 .byte   Bn3
 .byte   EOT
 .byte   Ds4
 .byte   EOT
 .byte   Fs4
 .byte   TIE ,Bn3 ,v092
 .byte   TIE ,En4 ,v092
 .byte   TIE ,Gn4 ,v092
 .byte   W96
@  #02 @070   ----------------------------------------
 .byte   W96
@  #02 @071   ----------------------------------------
 .byte   EOT
 .byte   Bn3
 .byte   EOT
 .byte   En4
 .byte   EOT
 .byte   Gn4
 .byte   TIE ,Bn3 ,v092
 .byte   TIE ,Ds4 ,v092
 .byte   TIE ,Fs4 ,v092
 .byte   W96
@  #02 @072   ----------------------------------------
 .byte   W96
@  #02 @073   ----------------------------------------
 .byte   EOT
 .byte   Bn3
 .byte   EOT
 .byte   Ds4
 .byte   EOT
 .byte   Fs4
 .byte   TIE ,Gn3 ,v092
 .byte   TIE ,Cn4 ,v092
 .byte   TIE ,En4 ,v092
 .byte   W96
@  #02 @074   ----------------------------------------
 .byte   W96
@  #02 @075   ----------------------------------------
 .byte   EOT
 .byte   Gn3
 .byte   EOT
 .byte   Cn4
 .byte   EOT
 .byte   En4
 .byte   TIE ,An3 ,v092
 .byte   TIE ,Dn4 ,v092
 .byte   TIE ,Fs4 ,v092
 .byte   W96
@  #02 @076   ----------------------------------------
 .byte   W96
@  #02 @077   ----------------------------------------
 .byte   EOT
 .byte   An3
 .byte   EOT
 .byte   Dn4
 .byte   EOT
 .byte   Fs4
 .byte   TIE ,Bn3 ,v092
 .byte   TIE ,En4 ,v092
 .byte   TIE ,Gn4 ,v092
 .byte   W96
@  #02 @078   ----------------------------------------
 .byte   W96
@  #02 @079   ----------------------------------------
 .byte   EOT
 .byte   En4
 .byte   EOT
 .byte   Gn4
 .byte   TIE ,Ds4 ,v092
 .byte   TIE ,Fs4 ,v092
 .byte   W96
@  #02 @080   ----------------------------------------
 .byte   W84
 .byte   EOT
 .byte   Bn3
 .byte   EOT
 .byte   Ds4
 .byte   EOT
 .byte   Fs4
 .byte   W12
@  #02 @081   ----------------------------------------
 .byte   TIE ,Gn3 ,v092
 .byte   TIE ,Cn4 ,v092
 .byte   TIE ,En4 ,v092
 .byte   W96
@  #02 @082   ----------------------------------------
 .byte   W96
@  #02 @083   ----------------------------------------
 .byte   EOT
 .byte   Gn3
 .byte   EOT
 .byte   Cn4
 .byte   EOT
 .byte   En4
 .byte   TIE ,An3 ,v092
 .byte   TIE ,Dn4 ,v092
 .byte   TIE ,Fs4 ,v092
 .byte   W96
@  #02 @084   ----------------------------------------
 .byte   W96
@  #02 @085   ----------------------------------------
 .byte   EOT
 .byte   An3
 .byte   EOT
 .byte   Dn4
 .byte   EOT
 .byte   Fs4
 .byte   TIE ,Bn3 ,v092
 .byte   TIE ,Ds4 ,v092
 .byte   TIE ,Fs4 ,v092
 .byte   W96
@  #02 @086   ----------------------------------------
 .byte   W96
@  #02 @087   ----------------------------------------
 .byte   W84
 .byte   EOT
 .byte   Bn3
 .byte   EOT
 .byte   Ds4
 .byte   EOT
 .byte   Fs4
 .byte   W12
@  #02 @088   ----------------------------------------
 .byte   N40 ,Gn3 ,v092
 .byte   N40 ,Cn4 ,v092
 .byte   N40 ,En4 ,v092
 .byte   W48
 .byte   N40 ,Fs3 ,v092
 .byte   N40 ,An3 ,v092
 .byte   N40 ,Dn4 ,v092
 .byte   W48
@  #02 @089   ----------------------------------------
 .byte   TIE ,An3 ,v092
 .byte   TIE ,Cs4 ,v092
 .byte   TIE ,En4 ,v092
 .byte   TIE ,Fs4 ,v092
 .byte   W96
@  #02 @090   ----------------------------------------
 .byte   W96
@  #02 @091   ----------------------------------------
 .byte   EOT
 .byte   An3
 .byte   EOT
 .byte   Cs4
 .byte   EOT
 .byte   En4
 .byte   EOT
 .byte   Fs4
 .byte   TIE ,Bn3 ,v092
 .byte   TIE ,Ds4 ,v092
 .byte   TIE ,Fs4 ,v092
 .byte   W96
@  #02 @092   ----------------------------------------
 .byte   W96
@  #02 @093   ----------------------------------------
 .byte   EOT
 .byte   Bn3
 .byte   EOT
 .byte   Ds4
 .byte   EOT
 .byte   Fs4
 .byte   TIE ,Bn3 ,v092
 .byte   TIE ,En4 ,v092
 .byte   TIE ,Gn4 ,v092
 .byte   W96
@  #02 @094   ----------------------------------------
 .byte   W96
@  #02 @095   ----------------------------------------
 .byte   EOT
 .byte   Bn3
 .byte   EOT
 .byte   En4
 .byte   EOT
 .byte   Gn4
 .byte   TIE ,Bn3 ,v092
 .byte   TIE ,Ds4 ,v092
 .byte   TIE ,Fs4 ,v092
 .byte   W96
@  #02 @096   ----------------------------------------
 .byte   W96
@  #02 @097   ----------------------------------------
 .byte   EOT
 .byte   Bn3
 .byte   EOT
 .byte   Ds4
 .byte   EOT
 .byte   Fs4
 .byte   TIE ,An3 ,v092
 .byte   TIE ,Cs4 ,v092
 .byte   TIE ,En4 ,v092
 .byte   TIE ,Fs4 ,v092
 .byte   W96
@  #02 @098   ----------------------------------------
 .byte   W96
@  #02 @099   ----------------------------------------
 .byte   EOT
 .byte   An3
 .byte   EOT
 .byte   Cs4
 .byte   EOT
 .byte   En4
 .byte   EOT
 .byte   Fs4
 .byte   TIE ,Bn3 ,v092
 .byte   TIE ,Ds4 ,v092
 .byte   TIE ,Fs4 ,v092
 .byte   W96
@  #02 @100   ----------------------------------------
 .byte   W96
@  #02 @101   ----------------------------------------
 .byte   EOT
 .byte   Bn3
 .byte   EOT
 .byte   Ds4
 .byte   EOT
 .byte   Fs4
 .byte   TIE ,Bn3 ,v092
 .byte   TIE ,En4 ,v092
 .byte   TIE ,Gn4 ,v092
 .byte   W96
@  #02 @102   ----------------------------------------
 .byte   W96
@  #02 @103   ----------------------------------------
 .byte   EOT
 .byte   Bn3
 .byte   EOT
 .byte   En4
 .byte   EOT
 .byte   Gn4
 .byte   TIE ,Bn3 ,v092
 .byte   TIE ,Ds4 ,v092
 .byte   TIE ,Fs4 ,v092
 .byte   W96
@  #02 @104   ----------------------------------------
 .byte   W96
@  #02 @105   ----------------------------------------
 .byte   EOT
 .byte   Bn3
 .byte   EOT
 .byte   Ds4
 .byte   EOT
 .byte   Fs4
 .byte   TIE ,Gn3 ,v092
 .byte   TIE ,Cn4 ,v092
 .byte   N96 ,En4 ,v092
 .byte   N96 ,Cn5 ,v092
 .byte   W96
@  #02 @106   ----------------------------------------
 .byte   N32 ,Fs4 ,v092
 .byte   N96 ,Bn4 ,v092
 .byte   W32
 .byte   N32 ,Gn4 ,v092
 .byte   W32
 .byte   N32 ,Fs4 ,v092
 .byte   W20
 .byte   EOT
 .byte   Gn3
 .byte   EOT
 .byte   Cn4
 .byte   W12
@  #02 @107   ----------------------------------------
 .byte   TIE ,Gn3 ,v092
 .byte   TIE ,Cn4 ,v092
 .byte   N96 ,En4 ,v092
 .byte   N96 ,An4 ,v092
 .byte   W96
@  #02 @108   ----------------------------------------
 .byte   N32 ,Fs4 ,v092
 .byte   N96 ,Gn4 ,v092
 .byte   W64
 .byte   N32 ,Fs4 ,v092
 .byte   W20
 .byte   EOT
 .byte   Gn3
 .byte   EOT
 .byte   Cn4
 .byte   W12
@  #02 @109   ----------------------------------------
 .byte   TIE ,Gn3 ,v092
 .byte   TIE ,Cn4 ,v092
 .byte   N96 ,En4 ,v092
 .byte   N96 ,Fs4 ,v092
 .byte   W96
@  #02 @110   ----------------------------------------
 .byte   N32 ,Fs4 ,v092
 .byte   N96 ,Bn4 ,v092
 .byte   W32
 .byte   N32 ,Gn4 ,v092
 .byte   W32
 .byte   N32 ,Fs4 ,v092
 .byte   W20
 .byte   EOT
 .byte   Gn3
 .byte   EOT
 .byte   Cn4
 .byte   W12
@  #02 @111   ----------------------------------------
 .byte   TIE ,Bn3 ,v092
 .byte   N96 ,En4 ,v092
 .byte   N96 ,An4 ,v092
 .byte   W96
@  #02 @112   ----------------------------------------
 .byte   N96 ,Ds4 ,v092
 .byte   N96 ,Bn4 ,v092
 .byte   W84
 .byte   EOT
 .byte   Bn3
 .byte   W12
@  #02 @113   ----------------------------------------
 .byte   TIE ,Cn4 ,v092
 .byte   TIE ,En4 ,v092
 .byte   N32 ,Cn5 ,v092
 .byte   W32
 .byte   N32 ,Bn4 ,v092
 .byte   W32
 .byte   N32 ,An4 ,v092
 .byte   W32
@  #02 @114   ----------------------------------------
 .byte   N32 ,Gn4 ,v092
 .byte   W32
 .byte   N32 ,Fs4 ,v092
 .byte   W32
 .byte   N32 ,Gn4 ,v092
 .byte   W32
@  #02 @115   ----------------------------------------
 .byte   EOT
 .byte   Cn4
 .byte   EOT
 .byte   En4
 .byte   N96 ,Cn4 ,v092
 .byte   N96 ,En4 ,v092
 .byte   N96 ,An4 ,v092
 .byte   W96
@  #02 @116   ----------------------------------------
 .byte   N96 ,Gn3 ,v092
 .byte   N96 ,Cn4 ,v092
 .byte   N96 ,En4 ,v092
 .byte   W96
@  #02 @117   ----------------------------------------
 .byte   TIE ,Gn3 ,v092
 .byte   TIE ,Cn4 ,v092
 .byte   N96 ,Dn4 ,v092
 .byte   W96
@  #02 @118   ----------------------------------------
 .byte   N32 ,En4 ,v092
 .byte   W32
 .byte   N32 ,Dn4 ,v092
 .byte   W32
 .byte   N32 ,Fs4 ,v092
 .byte   W20
 .byte   EOT
 .byte   Gn3
 .byte   EOT
 .byte   Cn4
 .byte   W12
@  #02 @119   ----------------------------------------
 .byte   TIE ,An3 ,v092
 .byte   TIE ,Dn4 ,v092
 .byte   N32 ,Fs4 ,v092
 .byte   W32
 .byte   N32 ,En4 ,v092
 .byte   W32
 .byte   N32 ,Fs4 ,v092
 .byte   W32
@  #02 @120   ----------------------------------------
 .byte   N32 ,An4 ,v092
 .byte   W32
 .byte   N32 ,Gn4 ,v092
 .byte   W32
 .byte   N32 ,Fs4 ,v092
 .byte   W20
 .byte   EOT
 .byte   An3
 .byte   EOT
 .byte   Dn4
 .byte   W12
@  #02 @121   ----------------------------------------
 .byte   TIE ,Bn3 ,v092
 .byte   TIE ,En4 ,v092
 .byte   TIE ,Gn4 ,v092
 .byte   W96
@  #02 @122   ----------------------------------------
 .byte   W84
 .byte   EOT
 .byte   En4
 .byte   EOT
 .byte   Gn4
 .byte   W12
@  #02 @123   ----------------------------------------
 .byte   TIE ,Ds4 ,v092
 .byte   TIE ,Fs4 ,v092
 .byte   W96
@  #02 @124   ----------------------------------------
 .byte   W84
 .byte   EOT
 .byte   Bn3
 .byte   EOT
 .byte   Ds4
 .byte   EOT
 .byte   Fs4
 .byte   W12
@  #02 @125   ----------------------------------------
 .byte   TIE ,Gn3 ,v092
 .byte   TIE ,Cn4 ,v092
 .byte   TIE ,En4 ,v092
 .byte   W96
@  #02 @126   ----------------------------------------
 .byte   W84
 .byte   EOT
 .byte   Gn3
 .byte   EOT
 .byte   Cn4
 .byte   EOT
 .byte   En4
 .byte   W12
@  #02 @127   ----------------------------------------
 .byte   TIE ,An3 ,v092
 .byte   TIE ,Cn4 ,v092
 .byte   TIE ,Ds4 ,v092
 .byte   TIE ,Fs4 ,v092
 .byte   W96
@  #02 @128   ----------------------------------------
 .byte   W84
 .byte   EOT
 .byte   An3
 .byte   EOT
 .byte   Cn4
 .byte   EOT
 .byte   Ds4
 .byte   EOT
 .byte   Fs4
 .byte   W12
@  #02 @129   ----------------------------------------
 .byte   TIE ,Bn3 ,v092
 .byte   TIE ,En4 ,v092
 .byte   TIE ,Gn4 ,v092
 .byte   W96
@  #02 @130   ----------------------------------------
 .byte   W84
 .byte   EOT
 .byte   En4
 .byte   EOT
 .byte   Gn4
 .byte   W12
@  #02 @131   ----------------------------------------
 .byte   TIE ,Ds4 ,v092
 .byte   TIE ,Fs4 ,v092
 .byte   W96
@  #02 @132   ----------------------------------------
 .byte   W84
 .byte   EOT
 .byte   Bn3
 .byte   EOT
 .byte   Ds4
 .byte   EOT
 .byte   Fs4
 .byte   W12
@  #02 @133   ----------------------------------------
 .byte   TIE ,Gn3 ,v092
 .byte   TIE ,Cn4 ,v092
 .byte   TIE ,En4 ,v092
 .byte   W96
@  #02 @134   ----------------------------------------
 .byte   W84
 .byte   EOT
 .byte   Gn3
 .byte   EOT
 .byte   Cn4
 .byte   EOT
 .byte   En4
 .byte   W12
@  #02 @135   ----------------------------------------
 .byte   N40 ,An3 ,v092
 .byte   N40 ,Cn4 ,v092
 .byte   N40 ,Ds4 ,v092
 .byte   N40 ,Fs4 ,v092
 .byte   W48
 .byte   N40 ,Bn3 ,v092
 .byte   N40 ,Dn4 ,v092
 .byte   N40 ,En4 ,v092
 .byte   N40 ,Gn4 ,v092
 .byte   W48
@  #02 @136   ----------------------------------------
 .byte   N40 ,Cn4 ,v092
 .byte   N40 ,En4 ,v092
 .byte   N40 ,Fs4 ,v092
 .byte   N40 ,An4 ,v092
 .byte   W48
 .byte   N40 ,Ds4 ,v092
 .byte   N40 ,Fs4 ,v092
 .byte   N40 ,Gn4 ,v092
 .byte   N40 ,Bn4 ,v092
 .byte   W48
@  #02 @137   ----------------------------------------
 .byte   TIE ,Gn3 ,v092
 .byte   TIE ,Cn4 ,v092
 .byte   TIE ,En4 ,v092
 .byte   W96
@  #02 @138   ----------------------------------------
 .byte   W96
@  #02 @139   ----------------------------------------
 .byte   EOT
 .byte   Gn3
 .byte   EOT
 .byte   Cn4
 .byte   EOT
 .byte   En4
 .byte   TIE ,An3 ,v092
 .byte   TIE ,Dn4 ,v092
 .byte   TIE ,Fs4 ,v092
 .byte   W96
@  #02 @140   ----------------------------------------
 .byte   W96
@  #02 @141   ----------------------------------------
 .byte   EOT
 .byte   An3
 .byte   EOT
 .byte   Dn4
 .byte   EOT
 .byte   Fs4
 .byte   TIE ,Bn3 ,v092
 .byte   TIE ,En4 ,v092
 .byte   TIE ,Gn4 ,v092
 .byte   W96
@  #02 @142   ----------------------------------------
 .byte   W96
@  #02 @143   ----------------------------------------
 .byte   EOT
 .byte   En4
 .byte   EOT
 .byte   Gn4
 .byte   TIE ,Ds4 ,v092
 .byte   TIE ,Fs4 ,v092
 .byte   W96
@  #02 @144   ----------------------------------------
 .byte   W84
 .byte   EOT
 .byte   Bn3
 .byte   EOT
 .byte   Ds4
 .byte   EOT
 .byte   Fs4
 .byte   W12
@  #02 @145   ----------------------------------------
 .byte   TIE ,Gn3 ,v092
 .byte   TIE ,Cn4 ,v092
 .byte   TIE ,En4 ,v092
 .byte   W96
@  #02 @146   ----------------------------------------
 .byte   W96
@  #02 @147   ----------------------------------------
 .byte   EOT
 .byte   Gn3
 .byte   EOT
 .byte   Cn4
 .byte   EOT
 .byte   En4
 .byte   TIE ,An3 ,v092
 .byte   TIE ,Dn4 ,v092
 .byte   TIE ,Fs4 ,v092
 .byte   W96
@  #02 @148   ----------------------------------------
 .byte   W96
@  #02 @149   ----------------------------------------
 .byte   EOT
 .byte   An3
 .byte   EOT
 .byte   Dn4
 .byte   EOT
 .byte   Fs4
 .byte   TIE ,Bn3 ,v092
 .byte   TIE ,Ds4 ,v092
 .byte   TIE ,Fs4 ,v092
 .byte   W96
@  #02 @150   ----------------------------------------
 .byte   W96
@  #02 @151   ----------------------------------------
 .byte   W84
 .byte   EOT
 .byte   Bn3
 .byte   EOT
 .byte   Ds4
 .byte   EOT
 .byte   Fs4
 .byte   W12
@  #02 @152   ----------------------------------------
 .byte   N40 ,Gn3 ,v092
 .byte   N40 ,Cn4 ,v092
 .byte   N40 ,En4 ,v092
 .byte   W48
 .byte   N40 ,Fs3 ,v092
 .byte   N40 ,An3 ,v092
 .byte   N40 ,Dn4 ,v092
 .byte   W48
@  #02 @153   ----------------------------------------
 .byte   TIE ,Gn3 ,v092
 .byte   TIE ,Cn4 ,v092
 .byte   N96 ,En4 ,v092
 .byte   N96 ,Cn5 ,v092
 .byte   W96
@  #02 @154   ----------------------------------------
 .byte   N32 ,Fs4 ,v092
 .byte   N96 ,Bn4 ,v092
 .byte   W32
 .byte   N32 ,Gn4 ,v092
 .byte   W32
 .byte   N32 ,Fs4 ,v092
 .byte   W20
 .byte   EOT
 .byte   Gn3
 .byte   EOT
 .byte   Cn4
 .byte   W12
@  #02 @155   ----------------------------------------
 .byte   TIE ,Gn3 ,v092
 .byte   TIE ,Cn4 ,v092
 .byte   N96 ,En4 ,v092
 .byte   N96 ,An4 ,v092
 .byte   W96
@  #02 @156   ----------------------------------------
 .byte   N32 ,Fs4 ,v092
 .byte   N96 ,Gn4 ,v092
 .byte   W64
 .byte   N32 ,Fs4 ,v092
 .byte   W20
 .byte   EOT
 .byte   Gn3
 .byte   EOT
 .byte   Cn4
 .byte   W12
@  #02 @157   ----------------------------------------
 .byte   TIE ,Gn3 ,v092
 .byte   TIE ,Cn4 ,v092
 .byte   N96 ,En4 ,v092
 .byte   N96 ,Fs4 ,v092
 .byte   W96
@  #02 @158   ----------------------------------------
 .byte   N32 ,Fs4 ,v092
 .byte   N96 ,Bn4 ,v092
 .byte   W32
 .byte   N32 ,Gn4 ,v092
 .byte   W32
 .byte   N32 ,Fs4 ,v092
 .byte   W20
 .byte   EOT
 .byte   Gn3
 .byte   EOT
 .byte   Cn4
 .byte   W12
@  #02 @159   ----------------------------------------
 .byte   TIE ,Bn3 ,v092
 .byte   N96 ,En4 ,v092
 .byte   N96 ,An4 ,v092
 .byte   W96
@  #02 @160   ----------------------------------------
 .byte   N96 ,Ds4 ,v092
 .byte   N96 ,Bn4 ,v092
 .byte   W84
 .byte   EOT
 .byte   Bn3
 .byte   W12
@  #02 @161   ----------------------------------------
 .byte   TIE ,Cn4 ,v092
 .byte   TIE ,En4 ,v092
 .byte   N32 ,Cn5 ,v092
 .byte   W32
 .byte   N32 ,Bn4 ,v092
 .byte   W32
 .byte   N32 ,An4 ,v092
 .byte   W32
@  #02 @162   ----------------------------------------
 .byte   N32 ,Gn4 ,v092
 .byte   W32
 .byte   N32 ,Fs4 ,v092
 .byte   W32
 .byte   N32 ,Gn4 ,v092
 .byte   W32
@  #02 @163   ----------------------------------------
 .byte   EOT
 .byte   Cn4
 .byte   EOT
 .byte   En4
 .byte   N96 ,Cn4 ,v092
 .byte   N96 ,En4 ,v092
 .byte   N96 ,An4 ,v092
 .byte   W96
@  #02 @164   ----------------------------------------
 .byte   N96 ,Gn3 ,v092
 .byte   N96 ,Cn4 ,v092
 .byte   N96 ,En4 ,v092
 .byte   W96
@  #02 @165   ----------------------------------------
 .byte   TIE ,Gn3 ,v092
 .byte   TIE ,Cn4 ,v092
 .byte   N96 ,Dn4 ,v092
 .byte   W96
@  #02 @166   ----------------------------------------
 .byte   N32 ,En4 ,v092
 .byte   W32
 .byte   N32 ,Dn4 ,v092
 .byte   W32
 .byte   N32 ,Fs4 ,v092
 .byte   W20
 .byte   EOT
 .byte   Gn3
 .byte   EOT
 .byte   Cn4
 .byte   W12
@  #02 @167   ----------------------------------------
 .byte   TIE ,An3 ,v092
 .byte   TIE ,Dn4 ,v092
 .byte   N32 ,Fs4 ,v092
 .byte   W32
 .byte   N32 ,En4 ,v092
 .byte   W32
 .byte   N32 ,Fs4 ,v092
 .byte   W32
@  #02 @168   ----------------------------------------
 .byte   N32 ,An4 ,v092
 .byte   W32
 .byte   N32 ,Gn4 ,v092
 .byte   W32
 .byte   N32 ,Fs4 ,v092
 .byte   W20
 .byte   EOT
 .byte   An3
 .byte   EOT
 .byte   Dn4
 .byte   W12
@  #02 @169   ----------------------------------------
 .byte   TIE ,An3 ,v092
 .byte   TIE ,Cs4 ,v092
 .byte   TIE ,En4 ,v092
 .byte   TIE ,Fs4 ,v092
 .byte   W96
@  #02 @170   ----------------------------------------
 .byte   W96
@  #02 @171   ----------------------------------------
 .byte   EOT
 .byte   An3
 .byte   EOT
 .byte   Cs4
 .byte   EOT
 .byte   En4
 .byte   EOT
 .byte   Fs4
 .byte   TIE ,Bn3 ,v092
 .byte   TIE ,Ds4 ,v092
 .byte   TIE ,Fs4 ,v092
 .byte   W96
@  #02 @172   ----------------------------------------
 .byte   W96
@  #02 @173   ----------------------------------------
 .byte   EOT
 .byte   Bn3
 .byte   EOT
 .byte   Ds4
 .byte   EOT
 .byte   Fs4
 .byte   TIE ,An3 ,v092
 .byte   TIE ,Dn4 ,v092
 .byte   TIE ,Fs4 ,v092
 .byte   W96
@  #02 @174   ----------------------------------------
 .byte   W96
@  #02 @175   ----------------------------------------
 .byte   EOT
 .byte   An3
 .byte   EOT
 .byte   Dn4
 .byte   EOT
 .byte   Fs4
 .byte   TIE ,An3 ,v092
 .byte   TIE ,Cs4 ,v092
 .byte   TIE ,Fs4 ,v092
 .byte   W96
@  #02 @176   ----------------------------------------
 .byte   W96
@  #02 @177   ----------------------------------------
 .byte   TIE ,En4 ,v092
 .byte   W96
@  #02 @178   ----------------------------------------
 .byte   W96
@  #02 @179   ----------------------------------------
 .byte   EOT
 .byte   An3
 .byte   EOT
 .byte   Cs4
 .byte   EOT
 .byte   En4
 .byte   EOT
 .byte   Fs4
 .byte   TIE ,Bn3 ,v092
 .byte   TIE ,Ds4 ,v092
 .byte   TIE ,Fs4 ,v092
 .byte   W96
@  #02 @180   ----------------------------------------
 .byte   W96
@  #02 @181   ----------------------------------------
 .byte   EOT
 .byte   Bn3
 .byte   EOT
 .byte   Ds4
 .byte   EOT
 .byte   Fs4
 .byte   TIE ,An3 ,v092
 .byte   TIE ,Dn4 ,v092
 .byte   TIE ,Fs4 ,v092
 .byte   W96
@  #02 @182   ----------------------------------------
 .byte   W96
@  #02 @183   ----------------------------------------
 .byte   EOT
 .byte   An3
 .byte   EOT
 .byte   Dn4
 .byte   EOT
 .byte   Fs4
 .byte   N96 ,As3 ,v092
 .byte   N96 ,Cs4 ,v092
 .byte   N96 ,Fs4 ,v092
 .byte   W96
@  #02 @184   ----------------------------------------
 .byte   N96 ,An3 ,v092
 .byte   N96 ,Cs4 ,v092
 .byte   N96 ,En4 ,v092
 .byte   W96
@  #02 @185   ----------------------------------------
 .byte   TIE ,Gn3 ,v092
 .byte   W96
@  #02 @186   ----------------------------------------
 .byte   N96 ,Bn3 ,v092
 .byte   W96
@  #02 @187   ----------------------------------------
 .byte   N96 ,Cs4 ,v092
 .byte   W96
@  #02 @188   ----------------------------------------
 .byte   N96 ,Dn4 ,v092
 .byte   W96
@  #02 @189   ----------------------------------------
 .byte   EOT
 .byte   Gn3
 .byte   TIE ,Gn3 ,v092
 .byte   TIE ,Gn4 ,v092
 .byte   W96
@  #02 @190   ----------------------------------------
 .byte   N96 ,Bn3 ,v092
 .byte   W96
@  #02 @191   ----------------------------------------
 .byte   N96 ,Cs4 ,v092
 .byte   W96
@  #02 @192   ----------------------------------------
 .byte   N96 ,Dn4 ,v092
 .byte   W84
 .byte   EOT
 .byte   Gn4
 .byte   W12
@  #02 @193   ----------------------------------------
 .byte   EOT
 .byte   Gn3
 .byte   N08 ,An3 ,v092
 .byte   N08 ,Cs4 ,v092
 .byte   N08 ,En4 ,v092
 .byte   N08 ,Fs4 ,v092
 .byte   W24
 .byte   N08 ,An3 ,v092
 .byte   N08 ,Cs4 ,v092
 .byte   N08 ,En4 ,v092
 .byte   N08 ,Fs4 ,v092
 .byte   W24
 .byte   N08 ,An3 ,v092
 .byte   N08 ,Cs4 ,v092
 .byte   N08 ,En4 ,v092
 .byte   N08 ,Fs4 ,v092
 .byte   W24
 .byte   N08 ,An3 ,v092
 .byte   N08 ,Cs4 ,v092
 .byte   N08 ,En4 ,v092
 .byte   N08 ,Fs4 ,v092
 .byte   W24
@  #02 @194   ----------------------------------------
 .byte   N08 ,An3 ,v092
 .byte   N08 ,Cs4 ,v092
 .byte   N08 ,En4 ,v092
 .byte   N08 ,Fs4 ,v092
 .byte   W24
 .byte   N08 ,An3 ,v092
 .byte   N08 ,Cs4 ,v092
 .byte   N08 ,En4 ,v092
 .byte   N08 ,Fs4 ,v092
 .byte   W24
 .byte   N08 ,An3 ,v092
 .byte   N08 ,Cs4 ,v092
 .byte   N08 ,En4 ,v092
 .byte   N08 ,Fs4 ,v092
 .byte   W24
 .byte   N08 ,An3 ,v092
 .byte   N08 ,Cs4 ,v092
 .byte   N08 ,En4 ,v092
 .byte   N08 ,Fs4 ,v092
 .byte   W24
@  #02 @195   ----------------------------------------
 .byte   N08 ,Bn3 ,v092
 .byte   N08 ,Ds4 ,v092
 .byte   N08 ,Fs4 ,v092
 .byte   W24
 .byte   N08 ,Bn3 ,v092
 .byte   N08 ,Ds4 ,v092
 .byte   N08 ,Fs4 ,v092
 .byte   W24
 .byte   N08 ,Bn3 ,v092
 .byte   N08 ,Ds4 ,v092
 .byte   N08 ,Fs4 ,v092
 .byte   W24
 .byte   N08 ,Bn3 ,v092
 .byte   N08 ,Ds4 ,v092
 .byte   N08 ,Fs4 ,v092
 .byte   W24
@  #02 @196   ----------------------------------------
 .byte   N08 ,Bn3 ,v092
 .byte   N08 ,Ds4 ,v092
 .byte   N08 ,Fs4 ,v092
 .byte   W24
 .byte   N08 ,Bn3 ,v092
 .byte   N08 ,Ds4 ,v092
 .byte   N08 ,Fs4 ,v092
 .byte   W24
 .byte   N08 ,Bn3 ,v092
 .byte   N08 ,Ds4 ,v092
 .byte   N08 ,Fs4 ,v092
 .byte   W24
 .byte   N08 ,Bn3 ,v092
 .byte   N08 ,Ds4 ,v092
 .byte   N08 ,Fs4 ,v092
 .byte   W24
@  #02 @197   ----------------------------------------
 .byte   N08 ,Bn3 ,v092
 .byte   N08 ,En4 ,v092
 .byte   N08 ,Gn4 ,v092
 .byte   W24
 .byte   N08 ,Bn3 ,v092
 .byte   N08 ,En4 ,v092
 .byte   N08 ,Gn4 ,v092
 .byte   W24
 .byte   N08 ,Bn3 ,v092
 .byte   N08 ,En4 ,v092
 .byte   N08 ,Gn4 ,v092
 .byte   W24
 .byte   N08 ,Bn3 ,v092
 .byte   N08 ,En4 ,v092
 .byte   N08 ,Gn4 ,v092
 .byte   W24
@  #02 @198   ----------------------------------------
 .byte   N08 ,Bn3 ,v092
 .byte   N08 ,En4 ,v092
 .byte   N08 ,Gn4 ,v092
 .byte   W24
 .byte   N08 ,Bn3 ,v092
 .byte   N08 ,En4 ,v092
 .byte   N08 ,Gn4 ,v092
 .byte   W24
 .byte   N08 ,Bn3 ,v092
 .byte   N08 ,En4 ,v092
 .byte   N08 ,Gn4 ,v092
 .byte   W24
 .byte   N08 ,Bn3 ,v092
 .byte   N08 ,En4 ,v092
 .byte   N08 ,Gn4 ,v092
 .byte   W24
@  #02 @199   ----------------------------------------
 .byte   N08 ,Bn3 ,v092
 .byte   N08 ,Ds4 ,v092
 .byte   N08 ,Fs4 ,v092
 .byte   W24
 .byte   N08 ,Bn3 ,v092
 .byte   N08 ,Ds4 ,v092
 .byte   N08 ,Fs4 ,v092
 .byte   W24
 .byte   N08 ,Bn3 ,v092
 .byte   N08 ,Ds4 ,v092
 .byte   N08 ,Fs4 ,v092
 .byte   W24
 .byte   N08 ,Bn3 ,v092
 .byte   N08 ,Ds4 ,v092
 .byte   N08 ,Fs4 ,v092
 .byte   W24
@  #02 @200   ----------------------------------------
 .byte   N08 ,Bn3 ,v092
 .byte   N08 ,Ds4 ,v092
 .byte   N08 ,Fs4 ,v092
 .byte   W24
 .byte   N08 ,Bn3 ,v092
 .byte   N08 ,Ds4 ,v092
 .byte   N08 ,Fs4 ,v092
 .byte   W24
 .byte   N08 ,Bn3 ,v092
 .byte   N08 ,Ds4 ,v092
 .byte   N08 ,Fs4 ,v092
 .byte   W24
 .byte   N08 ,Bn3 ,v092
 .byte   N08 ,Ds4 ,v092
 .byte   N08 ,Fs4 ,v092
 .byte   W24
@  #02 @201   ----------------------------------------
 .byte   N08 ,An3 ,v092
 .byte   N08 ,Cs4 ,v092
 .byte   N08 ,En4 ,v092
 .byte   N08 ,Fs4 ,v092
 .byte   W24
 .byte   N08 ,An3 ,v092
 .byte   N08 ,Cs4 ,v092
 .byte   N08 ,En4 ,v092
 .byte   N08 ,Fs4 ,v092
 .byte   W24
 .byte   N08 ,An3 ,v092
 .byte   N08 ,Cs4 ,v092
 .byte   N08 ,En4 ,v092
 .byte   N08 ,Fs4 ,v092
 .byte   W24
 .byte   N08 ,An3 ,v092
 .byte   N08 ,Cs4 ,v092
 .byte   N08 ,En4 ,v092
 .byte   N08 ,Fs4 ,v092
 .byte   W24
@  #02 @202   ----------------------------------------
 .byte   N08 ,An3 ,v092
 .byte   N08 ,Cs4 ,v092
 .byte   N08 ,En4 ,v092
 .byte   N08 ,Fs4 ,v092
 .byte   W24
 .byte   N08 ,An3 ,v092
 .byte   N08 ,Cs4 ,v092
 .byte   N08 ,En4 ,v092
 .byte   N08 ,Fs4 ,v092
 .byte   W24
 .byte   N08 ,An3 ,v092
 .byte   N08 ,Cs4 ,v092
 .byte   N08 ,En4 ,v092
 .byte   N08 ,Fs4 ,v092
 .byte   W24
 .byte   N08 ,An3 ,v092
 .byte   N08 ,Cs4 ,v092
 .byte   N08 ,En4 ,v092
 .byte   N08 ,Fs4 ,v092
 .byte   W24
@  #02 @203   ----------------------------------------
 .byte   N08 ,Bn3 ,v092
 .byte   N08 ,Ds4 ,v092
 .byte   N08 ,Fs4 ,v092
 .byte   W24
 .byte   N08 ,Bn3 ,v092
 .byte   N08 ,Ds4 ,v092
 .byte   N08 ,Fs4 ,v092
 .byte   W24
 .byte   N08 ,Bn3 ,v092
 .byte   N08 ,Ds4 ,v092
 .byte   N08 ,Fs4 ,v092
 .byte   W24
 .byte   N08 ,Bn3 ,v092
 .byte   N08 ,Ds4 ,v092
 .byte   N08 ,Fs4 ,v092
 .byte   W24
@  #02 @204   ----------------------------------------
 .byte   N08 ,Bn3 ,v092
 .byte   N08 ,Ds4 ,v092
 .byte   N08 ,Fs4 ,v092
 .byte   W24
 .byte   N08 ,Bn3 ,v092
 .byte   N08 ,Ds4 ,v092
 .byte   N08 ,Fs4 ,v092
 .byte   W24
 .byte   N08 ,Bn3 ,v092
 .byte   N08 ,Ds4 ,v092
 .byte   N08 ,Fs4 ,v092
 .byte   W24
 .byte   N08 ,Bn3 ,v092
 .byte   N08 ,Ds4 ,v092
 .byte   N08 ,Fs4 ,v092
 .byte   W24
@  #02 @205   ----------------------------------------
 .byte   N08 ,Bn3 ,v092
 .byte   N08 ,En4 ,v092
 .byte   N08 ,Gn4 ,v092
 .byte   W24
 .byte   N08 ,Bn3 ,v092
 .byte   N08 ,En4 ,v092
 .byte   N08 ,Gn4 ,v092
 .byte   W24
 .byte   N08 ,Bn3 ,v092
 .byte   N08 ,En4 ,v092
 .byte   N08 ,Gn4 ,v092
 .byte   W24
 .byte   N08 ,Bn3 ,v092
 .byte   N08 ,En4 ,v092
 .byte   N08 ,Gn4 ,v092
 .byte   W24
@  #02 @206   ----------------------------------------
 .byte   N08 ,Bn3 ,v092
 .byte   N08 ,En4 ,v092
 .byte   N08 ,Gn4 ,v092
 .byte   W24
 .byte   N08 ,Bn3 ,v092
 .byte   N08 ,En4 ,v092
 .byte   N08 ,Gn4 ,v092
 .byte   W24
 .byte   N08 ,Bn3 ,v092
 .byte   N08 ,En4 ,v092
 .byte   N08 ,Gn4 ,v092
 .byte   W24
 .byte   N08 ,Bn3 ,v092
 .byte   N08 ,En4 ,v092
 .byte   N08 ,Gn4 ,v092
 .byte   W24
@  #02 @207   ----------------------------------------
 .byte   N08 ,Bn3 ,v092
 .byte   N08 ,Ds4 ,v092
 .byte   N08 ,Fs4 ,v092
 .byte   W24
 .byte   N08 ,Bn3 ,v092
 .byte   N08 ,Ds4 ,v092
 .byte   N08 ,Fs4 ,v092
 .byte   W24
 .byte   N08 ,Bn3 ,v092
 .byte   N08 ,Ds4 ,v092
 .byte   N08 ,Fs4 ,v092
 .byte   W24
 .byte   N08 ,Bn3 ,v092
 .byte   N08 ,Ds4 ,v092
 .byte   N08 ,Fs4 ,v092
 .byte   W24
@  #02 @208   ----------------------------------------
 .byte   N08 ,Bn3 ,v092
 .byte   N08 ,Ds4 ,v092
 .byte   N08 ,Fs4 ,v092
 .byte   W24
 .byte   N08 ,Bn3 ,v092
 .byte   N08 ,Ds4 ,v092
 .byte   N08 ,Fs4 ,v092
 .byte   W24
 .byte   N08 ,Bn3 ,v092
 .byte   N08 ,Ds4 ,v092
 .byte   N08 ,Fs4 ,v092
 .byte   W24
 .byte   N08 ,Bn3 ,v092
 .byte   N08 ,Ds4 ,v092
 .byte   N08 ,Fs4 ,v092
 .byte   W24
@  #02 @209   ----------------------------------------
 .byte   TIE ,An3 ,v092
 .byte   TIE ,Cs4 ,v092
 .byte   TIE ,En4 ,v092
 .byte   TIE ,Fs4 ,v092
 .byte   W96
@  #02 @210   ----------------------------------------
 .byte   W96
@  #02 @211   ----------------------------------------
 .byte   EOT
 .byte   An3
 .byte   EOT
 .byte   Cs4
 .byte   EOT
 .byte   En4
 .byte   EOT
 .byte   Fs4
 .byte   TIE ,Bn3 ,v092
 .byte   TIE ,Ds4 ,v092
 .byte   TIE ,Fs4 ,v092
 .byte   W96
@  #02 @212   ----------------------------------------
 .byte   W96
@  #02 @213   ----------------------------------------
 .byte   EOT
 .byte   Bn3
 .byte   EOT
 .byte   Ds4
 .byte   EOT
 .byte   Fs4
 .byte   TIE ,Bn3 ,v092
 .byte   TIE ,En4 ,v092
 .byte   TIE ,Gn4 ,v092
 .byte   W96
@  #02 @214   ----------------------------------------
 .byte   W96
@  #02 @215   ----------------------------------------
 .byte   EOT
 .byte   Bn3
 .byte   EOT
 .byte   En4
 .byte   EOT
 .byte   Gn4
 .byte   TIE ,Bn3 ,v092
 .byte   TIE ,Ds4 ,v092
 .byte   TIE ,Fs4 ,v092
 .byte   W96
@  #02 @216   ----------------------------------------
 .byte   W96
@  #02 @217   ----------------------------------------
 .byte   EOT
 .byte   Bn3
 .byte   EOT
 .byte   Ds4
 .byte   EOT
 .byte   Fs4
 .byte   TIE ,An3 ,v092
 .byte   TIE ,Cs4 ,v092
 .byte   TIE ,En4 ,v092
 .byte   TIE ,Fs4 ,v092
 .byte   W96
@  #02 @218   ----------------------------------------
 .byte   W96
@  #02 @219   ----------------------------------------
 .byte   EOT
 .byte   An3
 .byte   EOT
 .byte   Cs4
 .byte   EOT
 .byte   En4
 .byte   EOT
 .byte   Fs4
 .byte   TIE ,Bn3 ,v092
 .byte   TIE ,Ds4 ,v092
 .byte   TIE ,Fs4 ,v092
 .byte   W96
@  #02 @220   ----------------------------------------
 .byte   W96
@  #02 @221   ----------------------------------------
 .byte   EOT
 .byte   Bn3
 .byte   EOT
 .byte   Ds4
 .byte   EOT
 .byte   Fs4
 .byte   TIE ,Bn3 ,v092
 .byte   TIE ,En4 ,v092
 .byte   TIE ,Gn4 ,v092
 .byte   W96
@  #02 @222   ----------------------------------------
 .byte   W96
@  #02 @223   ----------------------------------------
 .byte   EOT
 .byte   Bn3
 .byte   EOT
 .byte   En4
 .byte   EOT
 .byte   Gn4
 .byte   TIE ,Bn3 ,v092
 .byte   TIE ,Ds4 ,v092
 .byte   TIE ,Fs4 ,v092
 .byte   W96
@  #02 @224   ----------------------------------------
 .byte   W96
@  #02 @225   ----------------------------------------
 .byte   EOT
 .byte   Bn3
 .byte   EOT
 .byte   Ds4
 .byte   EOT
 .byte   Fs4
 .byte   TIE ,Gn3 ,v092
 .byte   TIE ,Cn4 ,v092
 .byte   TIE ,En4 ,v092
 .byte   W96
@  #02 @226   ----------------------------------------
 .byte   W96
@  #02 @227   ----------------------------------------
 .byte   EOT
 .byte   Gn3
 .byte   EOT
 .byte   Cn4
 .byte   EOT
 .byte   En4
 .byte   TIE ,An3 ,v092
 .byte   TIE ,Dn4 ,v092
 .byte   TIE ,Fs4 ,v092
 .byte   W96
@  #02 @228   ----------------------------------------
 .byte   W96
@  #02 @229   ----------------------------------------
 .byte   EOT
 .byte   An3
 .byte   EOT
 .byte   Dn4
 .byte   EOT
 .byte   Fs4
 .byte   TIE ,Bn3 ,v092
 .byte   TIE ,En4 ,v092
 .byte   TIE ,Gn4 ,v092
 .byte   W96
@  #02 @230   ----------------------------------------
 .byte   W96
@  #02 @231   ----------------------------------------
 .byte   EOT
 .byte   En4
 .byte   EOT
 .byte   Gn4
 .byte   TIE ,Ds4 ,v092
 .byte   TIE ,Fs4 ,v092
 .byte   W96
@  #02 @232   ----------------------------------------
 .byte   W84
 .byte   EOT
 .byte   Bn3
 .byte   EOT
 .byte   Ds4
 .byte   EOT
 .byte   Fs4
 .byte   W12
@  #02 @233   ----------------------------------------
 .byte   TIE ,Gn3 ,v092
 .byte   TIE ,Cn4 ,v092
 .byte   TIE ,En4 ,v092
 .byte   W96
@  #02 @234   ----------------------------------------
 .byte   W96
@  #02 @235   ----------------------------------------
 .byte   EOT
 .byte   Gn3
 .byte   EOT
 .byte   Cn4
 .byte   EOT
 .byte   En4
 .byte   TIE ,An3 ,v092
 .byte   TIE ,Dn4 ,v092
 .byte   TIE ,Fs4 ,v092
 .byte   W96
@  #02 @236   ----------------------------------------
 .byte   W96
@  #02 @237   ----------------------------------------
 .byte   EOT
 .byte   An3
 .byte   EOT
 .byte   Dn4
 .byte   EOT
 .byte   Fs4
 .byte   TIE ,Bn3 ,v092
 .byte   TIE ,Ds4 ,v092
 .byte   TIE ,Fs4 ,v092
 .byte   W96
@  #02 @238   ----------------------------------------
 .byte   W96
@  #02 @239   ----------------------------------------
 .byte   W84
 .byte   EOT
 .byte   Bn3
 .byte   EOT
 .byte   Ds4
 .byte   EOT
 .byte   Fs4
 .byte   W12
@  #02 @240   ----------------------------------------
 .byte   N40 ,Gn3 ,v092
 .byte   N40 ,Cn4 ,v092
 .byte   N40 ,En4 ,v092
 .byte   W48
 .byte   N40 ,Fs3 ,v092
 .byte   N40 ,An3 ,v092
 .byte   N40 ,Dn4 ,v092
 .byte   W48
@  #02 @241   ----------------------------------------
 .byte   TIE ,Gn3 ,v092
 .byte   TIE ,Bn3 ,v092
 .byte   TIE ,En4 ,v092
 .byte   W96
@  #02 @242   ----------------------------------------
 .byte   W84
 .byte   EOT
 .byte   Bn3
 .byte   W12
@  #02 @243   ----------------------------------------
 .byte   TIE ,As3 ,v092
 .byte   TIE ,Cs4 ,v092
 .byte   W96
@  #02 @244   ----------------------------------------
 .byte   W84
 .byte   EOT
 .byte   As3
 .byte   EOT
 .byte   Cs4
 .byte   W12
@  #02 @245   ----------------------------------------
 .byte   TIE ,Bn3 ,v092
 .byte   W96
@  #02 @246   ----------------------------------------
 .byte   W84
 .byte   EOT
 .byte   Bn3
 .byte   W12
@  #02 @247   ----------------------------------------
 .byte   TIE ,As3 ,v092
 .byte   TIE ,Cs4 ,v092
 .byte   W96
@  #02 @248   ----------------------------------------
 .byte   W96
@  #02 @249   ----------------------------------------
 .byte   EOT
 .byte   Gn3
 .byte   EOT
 .byte   As3
 .byte   EOT
 .byte   Cs4
 .byte   EOT
 .byte   En4
 .byte   TIE ,Gn3 ,v092
 .byte   TIE ,Bn3 ,v092
 .byte   TIE ,En4 ,v092
 .byte   W96
@  #02 @250   ----------------------------------------
 .byte   W84
 .byte   EOT
 .byte   Bn3
 .byte   W12
@  #02 @251   ----------------------------------------
 .byte   TIE ,As3 ,v092
 .byte   TIE ,Cs4 ,v092
 .byte   W96
@  #02 @252   ----------------------------------------
 .byte   W84
 .byte   EOT
 .byte   As3
 .byte   EOT
 .byte   Cs4
 .byte   W12
@  #02 @253   ----------------------------------------
 .byte   TIE ,Bn3 ,v092
 .byte   W96
@  #02 @254   ----------------------------------------
 .byte   W84
 .byte   EOT
 .byte   Bn3
 .byte   W12
@  #02 @255   ----------------------------------------
 .byte   TIE ,As3 ,v092
 .byte   TIE ,Cs4 ,v092
 .byte   W96
@  #02 @256   ----------------------------------------
 .byte   W84
 .byte   EOT
 .byte   Gn3
 .byte   EOT
 .byte   As3
 .byte   EOT
 .byte   Cs4
 .byte   EOT
 .byte   En4
 .byte   W12
@  #02 @257   ----------------------------------------
 .byte   TIE ,Gn3 ,v092
 .byte   TIE ,Bn3 ,v092
 .byte   TIE ,En4 ,v092
 .byte   W96
@  #02 @258   ----------------------------------------
 .byte   W84
 .byte   EOT
 .byte   Bn3
 .byte   W12
@  #02 @259   ----------------------------------------
 .byte   TIE ,As3 ,v092
 .byte   TIE ,Cs4 ,v092
 .byte   W96
@  #02 @260   ----------------------------------------
 .byte   W84
 .byte   EOT
 .byte   As3
 .byte   EOT
 .byte   Cs4
 .byte   W12
@  #02 @261   ----------------------------------------
 .byte   TIE ,Bn3 ,v092
 .byte   W96
@  #02 @262   ----------------------------------------
 .byte   W84
 .byte   EOT
 .byte   Bn3
 .byte   W12
@  #02 @263   ----------------------------------------
 .byte   TIE ,As3 ,v092
 .byte   TIE ,Cs4 ,v092
 .byte   W96
@  #02 @264   ----------------------------------------
 .byte   W84
 .byte   EOT
 .byte   Gn3
 .byte   EOT
 .byte   As3
 .byte   EOT
 .byte   Cs4
 .byte   EOT
 .byte   En4
 .byte   W12
@  #02 @265   ----------------------------------------
 .byte   TIE ,Gn3 ,v092
 .byte   TIE ,Bn3 ,v092
 .byte   TIE ,En4 ,v092
 .byte   W96
@  #02 @266   ----------------------------------------
 .byte   W84
 .byte   EOT
 .byte   Bn3
 .byte   W12
@  #02 @267   ----------------------------------------
 .byte   TIE ,As3 ,v092
 .byte   TIE ,Cs4 ,v092
 .byte   W96
@  #02 @268   ----------------------------------------
 .byte   W84
 .byte   EOT
 .byte   As3
 .byte   EOT
 .byte   Cs4
 .byte   W12
@  #02 @269   ----------------------------------------
 .byte   TIE ,Bn3 ,v092
 .byte   W96
@  #02 @270   ----------------------------------------
 .byte   W84
 .byte   EOT
 .byte   Bn3
 .byte   W12
@  #02 @271   ----------------------------------------
 .byte   TIE ,As3 ,v092
 .byte   TIE ,Cs4 ,v092
 .byte   W96
@  #02 @272   ----------------------------------------
 .byte   W96
@  #02 @273   ----------------------------------------
 .byte   EOT
 .byte   Gn3
 .byte   EOT
 .byte   As3
 .byte   EOT
 .byte   Cs4
 .byte   EOT
 .byte   En4
 .byte   TIE ,An3 ,v092
 .byte   TIE ,Bn3 ,v092
 .byte   TIE ,Dn4 ,v092
 .byte   TIE ,Gn4 ,v092
 .byte   W96
@  #02 @274   ----------------------------------------
 .byte   W84
 .byte   EOT
 .byte   Bn3
 .byte   EOT
 .byte   Gn4
 .byte   W12
@  #02 @275   ----------------------------------------
 .byte   TIE ,Fs4 ,v092
 .byte   W96
@  #02 @276   ----------------------------------------
 .byte   W84
 .byte   EOT
 .byte   An3
 .byte   EOT
 .byte   Dn4
 .byte   EOT
 .byte   Fs4
 .byte   W96
@  #02 @277   ----------------------------------------
 .byte   W12
 .byte   W96
@  #02 @278   ----------------------------------------
 .byte   N08 ,An3 ,v092
 .byte   N08 ,Cs4 ,v092
 .byte   N08 ,En4 ,v092
 .byte   N08 ,Fs4 ,v092
 .byte   W24
 .byte   N08 ,An3 ,v092
 .byte   N08 ,Cs4 ,v092
 .byte   N08 ,En4 ,v092
 .byte   N08 ,Fs4 ,v092
 .byte   W24
 .byte   N08 ,An3 ,v092
 .byte   N08 ,Cs4 ,v092
 .byte   N08 ,En4 ,v092
 .byte   N08 ,Fs4 ,v092
 .byte   W24
 .byte   N08 ,An3 ,v092
 .byte   N08 ,Cs4 ,v092
 .byte   N08 ,En4 ,v092
 .byte   N08 ,Fs4 ,v092
 .byte   W24
@  #02 @279   ----------------------------------------
 .byte   N08 ,An3 ,v092
 .byte   N08 ,Cs4 ,v092
 .byte   N08 ,En4 ,v092
 .byte   N08 ,Fs4 ,v092
 .byte   W24
 .byte   N08 ,An3 ,v092
 .byte   N08 ,Cs4 ,v092
 .byte   N08 ,En4 ,v092
 .byte   N08 ,Fs4 ,v092
 .byte   W24
 .byte   N08 ,An3 ,v092
 .byte   N08 ,Cs4 ,v092
 .byte   N08 ,En4 ,v092
 .byte   N08 ,Fs4 ,v092
 .byte   W24
 .byte   N08 ,An3 ,v092
 .byte   N08 ,Cs4 ,v092
 .byte   N08 ,En4 ,v092
 .byte   N08 ,Fs4 ,v092
 .byte   W24
@  #02 @280   ----------------------------------------
 .byte   N08 ,Bn3 ,v092
 .byte   N08 ,Ds4 ,v092
 .byte   N08 ,Fs4 ,v092
 .byte   W24
 .byte   N08 ,Bn3 ,v092
 .byte   N08 ,Ds4 ,v092
 .byte   N08 ,Fs4 ,v092
 .byte   W24
 .byte   N08 ,Bn3 ,v092
 .byte   N08 ,Ds4 ,v092
 .byte   N08 ,Fs4 ,v092
 .byte   W24
 .byte   N08 ,Bn3 ,v092
 .byte   N08 ,Ds4 ,v092
 .byte   N08 ,Fs4 ,v092
 .byte   W24
@  #02 @281   ----------------------------------------
 .byte   N08 ,Bn3 ,v092
 .byte   N08 ,Ds4 ,v092
 .byte   N08 ,Fs4 ,v092
 .byte   W24
 .byte   N08 ,Bn3 ,v092
 .byte   N08 ,Ds4 ,v092
 .byte   N08 ,Fs4 ,v092
 .byte   W24
 .byte   N08 ,Bn3 ,v092
 .byte   N08 ,Ds4 ,v092
 .byte   N08 ,Fs4 ,v092
 .byte   W24
 .byte   N08 ,Bn3 ,v092
 .byte   N08 ,Ds4 ,v092
 .byte   N08 ,Fs4 ,v092
 .byte   W24
@  #02 @282   ----------------------------------------
 .byte   N08 ,Bn3 ,v092
 .byte   N08 ,En4 ,v092
 .byte   N08 ,Gn4 ,v092
 .byte   W24
 .byte   N08 ,Bn3 ,v092
 .byte   N08 ,En4 ,v092
 .byte   N08 ,Gn4 ,v092
 .byte   W24
 .byte   N08 ,Bn3 ,v092
 .byte   N08 ,En4 ,v092
 .byte   N08 ,Gn4 ,v092
 .byte   W24
 .byte   N08 ,Bn3 ,v092
 .byte   N08 ,En4 ,v092
 .byte   N08 ,Gn4 ,v092
 .byte   W24
@  #02 @283   ----------------------------------------
 .byte   N08 ,Bn3 ,v092
 .byte   N08 ,En4 ,v092
 .byte   N08 ,Gn4 ,v092
 .byte   W24
 .byte   N08 ,Bn3 ,v092
 .byte   N08 ,En4 ,v092
 .byte   N08 ,Gn4 ,v092
 .byte   W24
 .byte   N08 ,Bn3 ,v092
 .byte   N08 ,En4 ,v092
 .byte   N08 ,Gn4 ,v092
 .byte   W24
 .byte   N08 ,Bn3 ,v092
 .byte   N08 ,En4 ,v092
 .byte   N08 ,Gn4 ,v092
 .byte   W24
@  #02 @284   ----------------------------------------
 .byte   N08 ,Bn3 ,v092
 .byte   N08 ,Ds4 ,v092
 .byte   N08 ,Fs4 ,v092
 .byte   W24
 .byte   N08 ,Bn3 ,v092
 .byte   N08 ,Ds4 ,v092
 .byte   N08 ,Fs4 ,v092
 .byte   W24
 .byte   N08 ,Bn3 ,v092
 .byte   N08 ,Ds4 ,v092
 .byte   N08 ,Fs4 ,v092
 .byte   W24
 .byte   N08 ,Bn3 ,v092
 .byte   N08 ,Ds4 ,v092
 .byte   N08 ,Fs4 ,v092
 .byte   W24
@  #02 @285   ----------------------------------------
 .byte   N08 ,Bn3 ,v092
 .byte   N08 ,Ds4 ,v092
 .byte   N08 ,Fs4 ,v092
 .byte   W24
 .byte   N08 ,Bn3 ,v092
 .byte   N08 ,Ds4 ,v092
 .byte   N08 ,Fs4 ,v092
 .byte   W24
 .byte   N08 ,Bn3 ,v092
 .byte   N08 ,Ds4 ,v092
 .byte   N08 ,Fs4 ,v092
 .byte   W24
 .byte   N08 ,Bn3 ,v092
 .byte   N08 ,Ds4 ,v092
 .byte   N08 ,Fs4 ,v092
 .byte   W24
@  #02 @286   ----------------------------------------
 .byte   N08 ,An3 ,v092
 .byte   N08 ,Cs4 ,v092
 .byte   N08 ,En4 ,v092
 .byte   N08 ,Fs4 ,v092
 .byte   W24
 .byte   N08 ,An3 ,v092
 .byte   N08 ,Cs4 ,v092
 .byte   N08 ,En4 ,v092
 .byte   N08 ,Fs4 ,v092
 .byte   W24
 .byte   N08 ,An3 ,v092
 .byte   N08 ,Cs4 ,v092
 .byte   N08 ,En4 ,v092
 .byte   N08 ,Fs4 ,v092
 .byte   W24
 .byte   N08 ,An3 ,v092
 .byte   N08 ,Cs4 ,v092
 .byte   N08 ,En4 ,v092
 .byte   N08 ,Fs4 ,v092
 .byte   W24
@  #02 @287   ----------------------------------------
 .byte   N08 ,An3 ,v092
 .byte   N08 ,Cs4 ,v092
 .byte   N08 ,En4 ,v092
 .byte   N08 ,Fs4 ,v092
 .byte   W24
 .byte   N08 ,An3 ,v092
 .byte   N08 ,Cs4 ,v092
 .byte   N08 ,En4 ,v092
 .byte   N08 ,Fs4 ,v092
 .byte   W24
 .byte   N08 ,An3 ,v092
 .byte   N08 ,Cs4 ,v092
 .byte   N08 ,En4 ,v092
 .byte   N08 ,Fs4 ,v092
 .byte   W24
 .byte   N08 ,An3 ,v092
 .byte   N08 ,Cs4 ,v092
 .byte   N08 ,En4 ,v092
 .byte   N08 ,Fs4 ,v092
 .byte   W24
@  #02 @288   ----------------------------------------
 .byte   N08 ,Bn3 ,v092
 .byte   N08 ,Ds4 ,v092
 .byte   N08 ,Fs4 ,v092
 .byte   W24
 .byte   N08 ,Bn3 ,v092
 .byte   N08 ,Ds4 ,v092
 .byte   N08 ,Fs4 ,v092
 .byte   W24
 .byte   N08 ,Bn3 ,v092
 .byte   N08 ,Ds4 ,v092
 .byte   N08 ,Fs4 ,v092
 .byte   W24
 .byte   N08 ,Bn3 ,v092
 .byte   N08 ,Ds4 ,v092
 .byte   N08 ,Fs4 ,v092
 .byte   W24
@  #02 @289   ----------------------------------------
 .byte   N08 ,Bn3 ,v092
 .byte   N08 ,Ds4 ,v092
 .byte   N08 ,Fs4 ,v092
 .byte   W24
 .byte   N08 ,Bn3 ,v092
 .byte   N08 ,Ds4 ,v092
 .byte   N08 ,Fs4 ,v092
 .byte   W24
 .byte   N08 ,Bn3 ,v092
 .byte   N08 ,Ds4 ,v092
 .byte   N08 ,Fs4 ,v092
 .byte   W24
 .byte   N08 ,Bn3 ,v092
 .byte   N08 ,Ds4 ,v092
 .byte   N08 ,Fs4 ,v092
 .byte   W24
@  #02 @290   ----------------------------------------
 .byte   N08 ,Bn3 ,v092
 .byte   N08 ,En4 ,v092
 .byte   N08 ,Gn4 ,v092
 .byte   W24
 .byte   N08 ,Bn3 ,v092
 .byte   N08 ,En4 ,v092
 .byte   N08 ,Gn4 ,v092
 .byte   W24
 .byte   N08 ,Bn3 ,v092
 .byte   N08 ,En4 ,v092
 .byte   N08 ,Gn4 ,v092
 .byte   W24
 .byte   N08 ,Bn3 ,v092
 .byte   N08 ,En4 ,v092
 .byte   N08 ,Gn4 ,v092
 .byte   W24
@  #02 @291   ----------------------------------------
 .byte   N08 ,Bn3 ,v092
 .byte   N08 ,En4 ,v092
 .byte   N08 ,Gn4 ,v092
 .byte   W24
 .byte   N08 ,Bn3 ,v092
 .byte   N08 ,En4 ,v092
 .byte   N08 ,Gn4 ,v092
 .byte   W24
 .byte   N08 ,Bn3 ,v092
 .byte   N08 ,En4 ,v092
 .byte   N08 ,Gn4 ,v092
 .byte   W24
 .byte   N08 ,Bn3 ,v092
 .byte   N08 ,En4 ,v092
 .byte   N08 ,Gn4 ,v092
 .byte   W24
@  #02 @292   ----------------------------------------
 .byte   N08 ,Bn3 ,v092
 .byte   N08 ,Ds4 ,v092
 .byte   N08 ,Fs4 ,v092
 .byte   W24
 .byte   N08 ,Bn3 ,v092
 .byte   N08 ,Ds4 ,v092
 .byte   N08 ,Fs4 ,v092
 .byte   W24
 .byte   N08 ,Bn3 ,v092
 .byte   N08 ,Ds4 ,v092
 .byte   N08 ,Fs4 ,v092
 .byte   W24
 .byte   N08 ,Bn3 ,v092
 .byte   N08 ,Ds4 ,v092
 .byte   N08 ,Fs4 ,v092
 .byte   W24
@  #02 @293   ----------------------------------------
 .byte   N08 ,Bn3 ,v092
 .byte   N08 ,Ds4 ,v092
 .byte   N08 ,Fs4 ,v092
 .byte   W24
 .byte   N08 ,Bn3 ,v092
 .byte   N08 ,Ds4 ,v092
 .byte   N08 ,Fs4 ,v092
 .byte   W24
 .byte   N08 ,Bn3 ,v092
 .byte   N08 ,Ds4 ,v092
 .byte   N08 ,Fs4 ,v092
 .byte   W24
 .byte   N08 ,Bn3 ,v092
 .byte   N08 ,Ds4 ,v092
 .byte   N08 ,Fs4 ,v092
 .byte   W24
@  #02 @294   ----------------------------------------
 .byte   TIE ,An3 ,v092
 .byte   TIE ,Cs4 ,v092
 .byte   TIE ,En4 ,v092
 .byte   TIE ,Fs4 ,v092
 .byte   W96
@  #02 @295   ----------------------------------------
 .byte   W96
@  #02 @296   ----------------------------------------
 .byte   EOT
 .byte   An3
 .byte   EOT
 .byte   Cs4
 .byte   EOT
 .byte   En4
 .byte   EOT
 .byte   Fs4
 .byte   TIE ,Bn3 ,v092
 .byte   TIE ,Ds4 ,v092
 .byte   TIE ,Fs4 ,v092
 .byte   W96
@  #02 @297   ----------------------------------------
 .byte   W96
@  #02 @298   ----------------------------------------
 .byte   EOT
 .byte   Bn3
 .byte   EOT
 .byte   Ds4
 .byte   EOT
 .byte   Fs4
 .byte   TIE ,Bn3 ,v092
 .byte   TIE ,En4 ,v092
 .byte   TIE ,Gn4 ,v092
 .byte   W96
@  #02 @299   ----------------------------------------
 .byte   W96
@  #02 @300   ----------------------------------------
 .byte   EOT
 .byte   Bn3
 .byte   EOT
 .byte   En4
 .byte   EOT
 .byte   Gn4
 .byte   TIE ,Bn3 ,v092
 .byte   TIE ,Ds4 ,v092
 .byte   TIE ,Fs4 ,v092
 .byte   W96
@  #02 @301   ----------------------------------------
 .byte   W96
@  #02 @302   ----------------------------------------
 .byte   EOT
 .byte   Bn3
 .byte   EOT
 .byte   Ds4
 .byte   EOT
 .byte   Fs4
 .byte   TIE ,An3 ,v092
 .byte   TIE ,Cs4 ,v092
 .byte   TIE ,En4 ,v092
 .byte   TIE ,Fs4 ,v092
 .byte   W96
@  #02 @303   ----------------------------------------
 .byte   W96
@  #02 @304   ----------------------------------------
 .byte   EOT
 .byte   An3
 .byte   EOT
 .byte   Cs4
 .byte   EOT
 .byte   En4
 .byte   EOT
 .byte   Fs4
 .byte   TIE ,Bn3 ,v092
 .byte   TIE ,Ds4 ,v092
 .byte   TIE ,Fs4 ,v092
 .byte   W96
@  #02 @305   ----------------------------------------
 .byte   W96
@  #02 @306   ----------------------------------------
 .byte   EOT
 .byte   Bn3
 .byte   EOT
 .byte   Ds4
 .byte   EOT
 .byte   Fs4
 .byte   TIE ,Bn3 ,v092
 .byte   TIE ,En4 ,v092
 .byte   TIE ,Gn4 ,v092
 .byte   W96
@  #02 @307   ----------------------------------------
 .byte   W96
@  #02 @308   ----------------------------------------
 .byte   EOT
 .byte   Bn3
 .byte   EOT
 .byte   En4
 .byte   EOT
 .byte   Gn4
 .byte   TIE ,Bn3 ,v092
 .byte   TIE ,Ds4 ,v092
 .byte   TIE ,Fs4 ,v092
 .byte   W96
@  #02 @309   ----------------------------------------
 .byte   W96
@  #02 @310   ----------------------------------------
 .byte   EOT
 .byte   Bn3
 .byte   EOT
 .byte   Ds4
 .byte   EOT
 .byte   Fs4
 .byte   TIE ,Gn3 ,v092
 .byte   TIE ,Cn4 ,v092
 .byte   TIE ,En4 ,v092
 .byte   W96
@  #02 @311   ----------------------------------------
 .byte   W96
@  #02 @312   ----------------------------------------
 .byte   EOT
 .byte   Gn3
 .byte   EOT
 .byte   Cn4
 .byte   EOT
 .byte   En4
 .byte   TIE ,An3 ,v092
 .byte   TIE ,Dn4 ,v092
 .byte   TIE ,Fs4 ,v092
 .byte   W96
@  #02 @313   ----------------------------------------
 .byte   W96
@  #02 @314   ----------------------------------------
 .byte   EOT
 .byte   An3
 .byte   EOT
 .byte   Dn4
 .byte   EOT
 .byte   Fs4
 .byte   TIE ,Bn3 ,v092
 .byte   TIE ,En4 ,v092
 .byte   TIE ,Gn4 ,v092
 .byte   W96
@  #02 @315   ----------------------------------------
 .byte   W96
@  #02 @316   ----------------------------------------
 .byte   EOT
 .byte   En4
 .byte   EOT
 .byte   Gn4
 .byte   TIE ,Ds4 ,v092
 .byte   TIE ,Fs4 ,v092
 .byte   W96
@  #02 @317   ----------------------------------------
 .byte   W84
 .byte   EOT
 .byte   Bn3
 .byte   EOT
 .byte   Ds4
 .byte   EOT
 .byte   Fs4
 .byte   W12
@  #02 @318   ----------------------------------------
 .byte   TIE ,Gn3 ,v092
 .byte   TIE ,Cn4 ,v092
 .byte   TIE ,En4 ,v092
 .byte   W96
@  #02 @319   ----------------------------------------
 .byte   W96
@  #02 @320   ----------------------------------------
 .byte   EOT
 .byte   Gn3
 .byte   EOT
 .byte   Cn4
 .byte   EOT
 .byte   En4
 .byte   TIE ,An3 ,v092
 .byte   TIE ,Dn4 ,v092
 .byte   TIE ,Fs4 ,v092
 .byte   W96
@  #02 @321   ----------------------------------------
 .byte   W96
@  #02 @322   ----------------------------------------
 .byte   EOT
 .byte   An3
 .byte   EOT
 .byte   Dn4
 .byte   EOT
 .byte   Fs4
 .byte   TIE ,Bn3 ,v092
 .byte   TIE ,Ds4 ,v092
 .byte   TIE ,Fs4 ,v092
 .byte   W96
@  #02 @323   ----------------------------------------
 .byte   W96
@  #02 @324   ----------------------------------------
 .byte   W84
 .byte   EOT
 .byte   Bn3
 .byte   EOT
 .byte   Ds4
 .byte   EOT
 .byte   Fs4
 .byte   W12
@  #02 @325   ----------------------------------------
 .byte   N40 ,Gn3 ,v092
 .byte   N40 ,Cn4 ,v092
 .byte   N40 ,En4 ,v092
 .byte   W48
 .byte   N40 ,Fs3 ,v092
 .byte   N40 ,An3 ,v092
 .byte   N40 ,Dn4 ,v092
 .byte   W48
@  #02 @326   ----------------------------------------
 .byte   TIE ,Bn3 ,v092
 .byte   TIE ,En4 ,v092
 .byte   TIE ,Gn4 ,v092
 .byte   W96
@  #02 @327   ----------------------------------------
 .byte   W84
 .byte   EOT
 .byte   En4
 .byte   EOT
 .byte   Gn4
 .byte   W12
@  #02 @328   ----------------------------------------
 .byte   TIE ,Ds4 ,v092
 .byte   TIE ,Fs4 ,v092
 .byte   W96
@  #02 @329   ----------------------------------------
 .byte   W84
 .byte   EOT
 .byte   Bn3
 .byte   EOT
 .byte   Ds4
 .byte   EOT
 .byte   Fs4
 .byte   W12
@  #02 @330   ----------------------------------------
 .byte   TIE ,Gn3 ,v092
 .byte   TIE ,Cn4 ,v092
 .byte   TIE ,En4 ,v092
 .byte   W96
@  #02 @331   ----------------------------------------
 .byte   W84
 .byte   EOT
 .byte   Gn3
 .byte   EOT
 .byte   Cn4
 .byte   EOT
 .byte   En4
 .byte   W12
@  #02 @332   ----------------------------------------
 .byte   TIE ,An3 ,v092
 .byte   TIE ,Cn4 ,v092
 .byte   TIE ,Ds4 ,v092
 .byte   TIE ,Fs4 ,v092
 .byte   W96
@  #02 @333   ----------------------------------------
 .byte   W84
 .byte   EOT
 .byte   An3
 .byte   EOT
 .byte   Cn4
 .byte   EOT
 .byte   Ds4
 .byte   EOT
 .byte   Fs4
 .byte   W12
@  #02 @334   ----------------------------------------
 .byte   TIE ,Bn3 ,v092
 .byte   TIE ,En4 ,v092
 .byte   TIE ,Gn4 ,v092
 .byte   W96
@  #02 @335   ----------------------------------------
 .byte   W84
 .byte   EOT
 .byte   En4
 .byte   EOT
 .byte   Gn4
 .byte   W12
@  #02 @336   ----------------------------------------
 .byte   TIE ,Ds4 ,v092
 .byte   TIE ,Fs4 ,v092
 .byte   W96
@  #02 @337   ----------------------------------------
 .byte   W84
 .byte   EOT
 .byte   Bn3
 .byte   EOT
 .byte   Ds4
 .byte   EOT
 .byte   Fs4
 .byte   W12
@  #02 @338   ----------------------------------------
 .byte   TIE ,Gn3 ,v092
 .byte   TIE ,Cn4 ,v092
 .byte   TIE ,En4 ,v092
 .byte   W96
@  #02 @339   ----------------------------------------
 .byte   W84
 .byte   EOT
 .byte   Gn3
 .byte   EOT
 .byte   Cn4
 .byte   EOT
 .byte   En4
 .byte   W12
@  #02 @340   ----------------------------------------
 .byte   N40 ,An3 ,v092
 .byte   N40 ,Cn4 ,v092
 .byte   N40 ,Ds4 ,v092
 .byte   N40 ,Fs4 ,v092
 .byte   W48
 .byte   N40 ,Bn3 ,v092
 .byte   N40 ,Dn4 ,v092
 .byte   N40 ,En4 ,v092
 .byte   N40 ,Gn4 ,v092
 .byte   W48
@  #02 @341   ----------------------------------------
 .byte   N40 ,Cn4 ,v092
 .byte   N40 ,En4 ,v092
 .byte   N40 ,Fs4 ,v092
 .byte   N40 ,An4 ,v092
 .byte   W48
 .byte   N40 ,Ds4 ,v092
 .byte   N40 ,Fs4 ,v092
 .byte   N40 ,Gn4 ,v092
 .byte   N40 ,Bn4 ,v092
 .byte   W96
@  #02 @342   ----------------------------------------
 .byte   W48
 .byte   TIE ,Gn3 ,v092
 .byte   TIE ,Cn4 ,v092
 .byte   TIE ,En4 ,v092
 .byte   W96
@  #02 @343   ----------------------------------------
 .byte   W96
@  #02 @344   ----------------------------------------
 .byte   EOT
 .byte   Gn3
 .byte   EOT
 .byte   Cn4
 .byte   EOT
 .byte   En4
 .byte   TIE ,An3 ,v092
 .byte   TIE ,Dn4 ,v092
 .byte   TIE ,Fs4 ,v092
 .byte   W96
@  #02 @345   ----------------------------------------
 .byte   W96
@  #02 @346   ----------------------------------------
 .byte   EOT
 .byte   An3
 .byte   EOT
 .byte   Dn4
 .byte   EOT
 .byte   Fs4
 .byte   TIE ,Bn3 ,v092
 .byte   TIE ,En4 ,v092
 .byte   TIE ,Gn4 ,v092
 .byte   W96
@  #02 @347   ----------------------------------------
 .byte   W96
@  #02 @348   ----------------------------------------
 .byte   EOT
 .byte   En4
 .byte   EOT
 .byte   Gn4
 .byte   TIE ,Ds4 ,v092
 .byte   TIE ,Fs4 ,v092
 .byte   W96
@  #02 @349   ----------------------------------------
 .byte   W84
 .byte   EOT
 .byte   Bn3
 .byte   EOT
 .byte   Ds4
 .byte   EOT
 .byte   Fs4
 .byte   W12
@  #02 @350   ----------------------------------------
 .byte   TIE ,Gn3 ,v092
 .byte   TIE ,Cn4 ,v092
 .byte   TIE ,En4 ,v092
 .byte   W96
@  #02 @351   ----------------------------------------
 .byte   W96
@  #02 @352   ----------------------------------------
 .byte   EOT
 .byte   Gn3
 .byte   EOT
 .byte   Cn4
 .byte   EOT
 .byte   En4
 .byte   TIE ,An3 ,v092
 .byte   TIE ,Dn4 ,v092
 .byte   TIE ,Fs4 ,v092
 .byte   W96
@  #02 @353   ----------------------------------------
 .byte   W96
@  #02 @354   ----------------------------------------
 .byte   EOT
 .byte   An3
 .byte   EOT
 .byte   Dn4
 .byte   EOT
 .byte   Fs4
 .byte   TIE ,Bn3 ,v092
 .byte   TIE ,Ds4 ,v092
 .byte   TIE ,Fs4 ,v092
 .byte   W96
@  #02 @355   ----------------------------------------
 .byte   W96
@  #02 @356   ----------------------------------------
 .byte   W84
 .byte   EOT
 .byte   Bn3
 .byte   EOT
 .byte   Ds4
 .byte   EOT
 .byte   Fs4
 .byte   W12
@  #02 @357   ----------------------------------------
 .byte   N40 ,Gn3 ,v092
 .byte   N40 ,Cn4 ,v092
 .byte   N40 ,En4 ,v092
 .byte   W48
 .byte   N40 ,Fs3 ,v092
 .byte   N40 ,An3 ,v092
 .byte   N40 ,Dn4 ,v092
 .byte   W48
@  #02 @358   ----------------------------------------
 .byte   TIE ,Gn3 ,v092
 .byte   TIE ,Cn4 ,v092
 .byte   N96 ,En4 ,v092
 .byte   N96 ,Cn5 ,v092
 .byte   W96
@  #02 @359   ----------------------------------------
 .byte   N32 ,Fs4 ,v092
 .byte   N96 ,Bn4 ,v092
 .byte   W32
 .byte   N32 ,Gn4 ,v092
 .byte   W32
 .byte   N32 ,Fs4 ,v092
 .byte   W20
 .byte   EOT
 .byte   Gn3
 .byte   EOT
 .byte   Cn4
 .byte   W12
@  #02 @360   ----------------------------------------
 .byte   TIE ,Gn3 ,v092
 .byte   TIE ,Cn4 ,v092
 .byte   N96 ,En4 ,v092
 .byte   N96 ,An4 ,v092
 .byte   W96
@  #02 @361   ----------------------------------------
 .byte   N32 ,Fs4 ,v092
 .byte   N96 ,Gn4 ,v092
 .byte   W64
 .byte   N32 ,Fs4 ,v092
 .byte   W20
 .byte   EOT
 .byte   Gn3
 .byte   EOT
 .byte   Cn4
 .byte   W12
@  #02 @362   ----------------------------------------
 .byte   TIE ,Gn3 ,v092
 .byte   TIE ,Cn4 ,v092
 .byte   N96 ,En4 ,v092
 .byte   N96 ,Fs4 ,v092
 .byte   W96
@  #02 @363   ----------------------------------------
 .byte   N32 ,Fs4 ,v092
 .byte   N96 ,Bn4 ,v092
 .byte   W32
 .byte   N32 ,Gn4 ,v092
 .byte   W32
 .byte   N32 ,Fs4 ,v092
 .byte   W20
 .byte   EOT
 .byte   Gn3
 .byte   EOT
 .byte   Cn4
 .byte   W12
@  #02 @364   ----------------------------------------
 .byte   TIE ,Bn3 ,v092
 .byte   N96 ,En4 ,v092
 .byte   N96 ,An4 ,v092
 .byte   W96
@  #02 @365   ----------------------------------------
 .byte   N96 ,Ds4 ,v092
 .byte   N96 ,Bn4 ,v092
 .byte   W84
 .byte   EOT
 .byte   Bn3
 .byte   W12
@  #02 @366   ----------------------------------------
 .byte   TIE ,Cn4 ,v092
 .byte   TIE ,En4 ,v092
 .byte   N32 ,Cn5 ,v092
 .byte   W32
 .byte   N32 ,Bn4 ,v092
 .byte   W32
 .byte   N32 ,An4 ,v092
 .byte   W32
@  #02 @367   ----------------------------------------
 .byte   N32 ,Gn4 ,v092
 .byte   W32
 .byte   N32 ,Fs4 ,v092
 .byte   W32
 .byte   N32 ,Gn4 ,v092
 .byte   W32
@  #02 @368   ----------------------------------------
 .byte   EOT
 .byte   Cn4
 .byte   EOT
 .byte   En4
 .byte   N96 ,Cn4 ,v092
 .byte   N96 ,En4 ,v092
 .byte   N96 ,An4 ,v092
 .byte   W96
@  #02 @369   ----------------------------------------
 .byte   N96 ,Gn3 ,v092
 .byte   N96 ,Cn4 ,v092
 .byte   N96 ,En4 ,v092
 .byte   W96
@  #02 @370   ----------------------------------------
 .byte   TIE ,Gn3 ,v092
 .byte   TIE ,Cn4 ,v092
 .byte   N96 ,Dn4 ,v092
 .byte   W96
@  #02 @371   ----------------------------------------
 .byte   N32 ,En4 ,v092
 .byte   W32
 .byte   N32 ,Dn4 ,v092
 .byte   W32
 .byte   N32 ,Fs4 ,v092
 .byte   W20
 .byte   EOT
 .byte   Gn3
 .byte   EOT
 .byte   Cn4
 .byte   W12
@  #02 @372   ----------------------------------------
 .byte   TIE ,An3 ,v092
 .byte   TIE ,Dn4 ,v092
 .byte   N32 ,Fs4 ,v092
 .byte   W32
 .byte   N32 ,En4 ,v092
 .byte   W32
 .byte   N32 ,Fs4 ,v092
 .byte   W32
@  #02 @373   ----------------------------------------
 .byte   N32 ,An4 ,v092
 .byte   W32
 .byte   N32 ,Gn4 ,v092
 .byte   W32
 .byte   N32 ,Fs4 ,v092
 .byte   W20
 .byte   EOT
 .byte   An3
 .byte   EOT
 .byte   Dn4
 .byte   W12
@  #02 @374   ----------------------------------------
 .byte   TIE ,An3 ,v092
 .byte   TIE ,Cs4 ,v092
 .byte   TIE ,En4 ,v092
 .byte   TIE ,Fs4 ,v092
 .byte   W96
@  #02 @375   ----------------------------------------
 .byte   W96
@  #02 @376   ----------------------------------------
 .byte   EOT
 .byte   An3
 .byte   EOT
 .byte   Cs4
 .byte   EOT
 .byte   En4
 .byte   EOT
 .byte   Fs4
 .byte   TIE ,Bn3 ,v092
 .byte   TIE ,Ds4 ,v092
 .byte   TIE ,Fs4 ,v092
 .byte   W96
@  #02 @377   ----------------------------------------
 .byte   W96
@  #02 @378   ----------------------------------------
 .byte   EOT
 .byte   Bn3
 .byte   EOT
 .byte   Ds4
 .byte   EOT
 .byte   Fs4
 .byte   TIE ,An3 ,v092
 .byte   TIE ,Dn4 ,v092
 .byte   TIE ,Fs4 ,v092
 .byte   W96
@  #02 @379   ----------------------------------------
 .byte   W96
@  #02 @380   ----------------------------------------
 .byte   EOT
 .byte   An3
 .byte   EOT
 .byte   Dn4
 .byte   EOT
 .byte   Fs4
 .byte   TIE ,An3 ,v092
 .byte   TIE ,Cs4 ,v092
 .byte   TIE ,Fs4 ,v092
 .byte   W96
@  #02 @381   ----------------------------------------
 .byte   W96
@  #02 @382   ----------------------------------------
 .byte   TIE ,En4 ,v092
 .byte   W96
@  #02 @383   ----------------------------------------
 .byte   W96
@  #02 @384   ----------------------------------------
 .byte   EOT
 .byte   An3
 .byte   EOT
 .byte   Cs4
 .byte   EOT
 .byte   En4
 .byte   EOT
 .byte   Fs4
 .byte   TIE ,Bn3 ,v092
 .byte   TIE ,Ds4 ,v092
 .byte   TIE ,Fs4 ,v092
 .byte   W96
@  #02 @385   ----------------------------------------
 .byte   W96
@  #02 @386   ----------------------------------------
 .byte   EOT
 .byte   Bn3
 .byte   EOT
 .byte   Ds4
 .byte   EOT
 .byte   Fs4
 .byte   TIE ,An3 ,v092
 .byte   TIE ,Dn4 ,v092
 .byte   TIE ,Fs4 ,v092
 .byte   W96
@  #02 @387   ----------------------------------------
 .byte   W96
@  #02 @388   ----------------------------------------
 .byte   EOT
 .byte   An3
 .byte   EOT
 .byte   Dn4
 .byte   EOT
 .byte   Fs4
 .byte   TIE ,An3 ,v092
 .byte   TIE ,Cs4 ,v092
 .byte   TIE ,Fs4 ,v092
 .byte   W96
@  #02 @389   ----------------------------------------
 .byte   W96
@  #02 @390   ----------------------------------------
 .byte   TIE ,En4 ,v092
 .byte   W96
@  #02 @391   ----------------------------------------
 .byte   W96
@  #02 @392   ----------------------------------------
 .byte   EOT
 .byte   An3
 .byte   EOT
 .byte   Cs4
 .byte   EOT
 .byte   En4
 .byte   EOT
 .byte   Fs4
 .byte   TIE ,Bn3 ,v092
 .byte   TIE ,Ds4 ,v092
 .byte   TIE ,Fs4 ,v092
 .byte   W96
@  #02 @393   ----------------------------------------
 .byte   W96
@  #02 @394   ----------------------------------------
 .byte   EOT
 .byte   Bn3
 .byte   EOT
 .byte   Ds4
 .byte   EOT
 .byte   Fs4
 .byte   TIE ,An3 ,v092
 .byte   TIE ,Dn4 ,v092
 .byte   TIE ,Fs4 ,v092
 .byte   W96
@  #02 @395   ----------------------------------------
 .byte   W96
@  #02 @396   ----------------------------------------
 .byte   EOT
 .byte   An3
 .byte   EOT
 .byte   Dn4
 .byte   EOT
 .byte   Fs4
 .byte   TIE ,An3 ,v092
 .byte   TIE ,Cs4 ,v092
 .byte   TIE ,Fs4 ,v092
 .byte   W96
@  #02 @397   ----------------------------------------
 .byte   W96
@  #02 @398   ----------------------------------------
 .byte   TIE ,En4 ,v092
 .byte   W96
@  #02 @399   ----------------------------------------
 .byte   W96
@  #02 @400   ----------------------------------------
 .byte   EOT
 .byte   An3
 .byte   EOT
 .byte   Cs4
 .byte   EOT
 .byte   En4
 .byte   EOT
 .byte   Fs4
 .byte   TIE ,Bn3 ,v092
 .byte   TIE ,Ds4 ,v092
 .byte   TIE ,Fs4 ,v092
 .byte   W96
@  #02 @401   ----------------------------------------
 .byte   W96
@  #02 @402   ----------------------------------------
 .byte   EOT
 .byte   Bn3
 .byte   EOT
 .byte   Ds4
 .byte   EOT
 .byte   Fs4
 .byte   TIE ,An3 ,v092
 .byte   TIE ,Dn4 ,v092
 .byte   TIE ,Fs4 ,v092
 .byte   W96
@  #02 @403   ----------------------------------------
 .byte   W96
@  #02 @404   ----------------------------------------
 .byte   EOT
 .byte   An3
 .byte   EOT
 .byte   Dn4
 .byte   EOT
 .byte   Fs4
 .byte   N96 ,As3 ,v092
 .byte   N96 ,Cs4 ,v092
 .byte   N96 ,Fs4 ,v092
 .byte   W96
@  #02 @405   ----------------------------------------
 .byte   N96 ,An3 ,v092
 .byte   N96 ,Cs4 ,v092
 .byte   N96 ,En4 ,v092
 .byte   W96
@  #02 @406   ----------------------------------------
 .byte   TIE ,Gn3 ,v092
 .byte   W96
@  #02 @407   ----------------------------------------
 .byte   N96 ,Bn3 ,v092
 .byte   W96
@  #02 @408   ----------------------------------------
 .byte   N96 ,Cs4 ,v092
 .byte   W96
@  #02 @409   ----------------------------------------
 .byte   N96 ,Dn4 ,v092
 .byte   W96
@  #02 @410   ----------------------------------------
 .byte   EOT
 .byte   Gn3
 .byte   TIE ,Gn3 ,v092
 .byte   TIE ,Gn4 ,v092
 .byte   W96
@  #02 @411   ----------------------------------------
 .byte   N96 ,Bn3 ,v092
 .byte   W96
@  #02 @412   ----------------------------------------
 .byte   N96 ,Cs4 ,v092
 .byte   W96
@  #02 @413   ----------------------------------------
 .byte   N84 ,Dn4 ,v092
 .byte   W84
 .byte   EOT
 .byte   Gn3
 .byte   EOT
 .byte   Gn4
 .byte   W12
@  #02 @414   ----------------------------------------
 .byte   W96
@  #02 @415   ----------------------------------------
 .byte   W96
@  #02 @416   ----------------------------------------
 .byte   W96
@  #02 @417   ----------------------------------------
 .byte   W96
@  #02 @418   ----------------------------------------
 .byte   W96
@  #02 @419   ----------------------------------------
 .byte   TIE ,An3 ,v092
 .byte   TIE ,Cs4 ,v092
 .byte   TIE ,En4 ,v092
 .byte   TIE ,Fs4 ,v092
 .byte   W96
@  #02 @420   ----------------------------------------
 .byte   W96
@  #02 @421   ----------------------------------------
 .byte   EOT
 .byte   An3
 .byte   EOT
 .byte   Cs4
 .byte   EOT
 .byte   En4
 .byte   EOT
 .byte   Fs4
 .byte   TIE ,An3 ,v092
 .byte   TIE ,Cs4 ,v092
 .byte   TIE ,En4 ,v092
 .byte   TIE ,Fs4 ,v092
 .byte   W96
@  #02 @422   ----------------------------------------
 .byte   W96
@  #02 @423   ----------------------------------------
 .byte   EOT
 .byte   An3
 .byte   EOT
 .byte   Cs4
 .byte   EOT
 .byte   En4
 .byte   EOT
 .byte   Fs4
 .byte   TIE ,An3 ,v092
 .byte   TIE ,Cs4 ,v092
 .byte   TIE ,En4 ,v092
 .byte   TIE ,Fs4 ,v092
 .byte   W96
@  #02 @424   ----------------------------------------
 .byte   W96
@  #02 @425   ----------------------------------------
 .byte   W96
@  #02 @426   ----------------------------------------
 .byte   W84
 .byte   EOT
 .byte   An3
 .byte   EOT
 .byte   Cs4
 .byte   EOT
 .byte   En4
 .byte   EOT
 .byte   Fs4
 .byte   W96
@  #02 @427   ----------------------------------------
 .byte   W12
 .byte   GOTO
  .word Label_0100610C
 .byte   FINE

@**************** Track 3 (Midi-Chn.2) ****************@

song04_003:
@  #03 @000   ----------------------------------------
Label_010076EC:
 .byte   KEYSH , song04_key+0
 .byte   VOICE , 18
 .byte   VOL , 50*song04_mvl/mxv
 .byte   MODT 1
 .byte   VOL , 44*song04_mvl/mxv
 .byte   PAN , c_v+32
 .byte   W96
@  #03 @001   ----------------------------------------
 .byte   W96
@  #03 @002   ----------------------------------------
 .byte   W96
@  #03 @003   ----------------------------------------
 .byte   W96
@  #03 @004   ----------------------------------------
 .byte   W96
@  #03 @005   ----------------------------------------
 .byte   W96
@  #03 @006   ----------------------------------------
 .byte   W96
@  #03 @007   ----------------------------------------
 .byte   W96
@  #03 @008   ----------------------------------------
 .byte   W72
 .byte   N06 ,Fs5 ,v092
 .byte   W06
 .byte   N06 ,Gn5 ,v092
 .byte   W06
 .byte   N06 ,An5 ,v092
 .byte   W06
 .byte   N06 ,Bn5 ,v092
 .byte   W06
@  #03 @009   ----------------------------------------
 .byte   TIE ,Gn4 ,v092
 .byte   TIE ,Cn5 ,v092
 .byte   N96 ,En5 ,v092
 .byte   N96 ,Cn6 ,v092
 .byte   W96
@  #03 @010   ----------------------------------------
 .byte   N32 ,Fs5 ,v092
 .byte   N96 ,Bn5 ,v092
 .byte   W32
 .byte   N32 ,Gn5 ,v092
 .byte   W32
 .byte   N32 ,Fs5 ,v092
 .byte   W20
 .byte   EOT
 .byte   Gn4
 .byte   EOT
 .byte   Cn5
 .byte   W12
@  #03 @011   ----------------------------------------
 .byte   TIE ,Gn4 ,v092
 .byte   TIE ,Cn5 ,v092
 .byte   N96 ,En5 ,v092
 .byte   N96 ,An5 ,v092
 .byte   W96
@  #03 @012   ----------------------------------------
 .byte   N32 ,Fs5 ,v092
 .byte   N96 ,Bn5 ,v092
 .byte   W32
 .byte   N32 ,Gn5 ,v092
 .byte   W32
 .byte   N32 ,Fs5 ,v092
 .byte   W20
 .byte   EOT
 .byte   Gn4
 .byte   EOT
 .byte   Cn5
 .byte   W12
@  #03 @013   ----------------------------------------
 .byte   TIE ,Gn4 ,v092
 .byte   TIE ,Cn5 ,v092
 .byte   N96 ,En5 ,v092
 .byte   N96 ,Cn6 ,v092
 .byte   W96
@  #03 @014   ----------------------------------------
 .byte   N32 ,Fs5 ,v092
 .byte   N32 ,Cn6 ,v092
 .byte   W32
 .byte   N32 ,Gn5 ,v092
 .byte   N32 ,Dn6 ,v092
 .byte   W32
 .byte   N32 ,Fs5 ,v092
 .byte   N32 ,En6 ,v092
 .byte   W20
 .byte   EOT
 .byte   Gn4
 .byte   EOT
 .byte   Cn5
 .byte   W12
@  #03 @015   ----------------------------------------
 .byte   N96 ,Gn4 ,v092
 .byte   TIE ,Dn5 ,v092
 .byte   TIE ,Fs5 ,v092
 .byte   TIE ,Dn6 ,v092
 .byte   W96
@  #03 @016   ----------------------------------------
 .byte   N96 ,Fs4 ,v092
 .byte   W84
 .byte   EOT
 .byte   Dn5
 .byte   EOT
 .byte   Fs5
 .byte   EOT
 .byte   Dn6
 .byte   W12
@  #03 @017   ----------------------------------------
 .byte   N17 ,An4 ,v092
 .byte   N17 ,Cs5 ,v092
 .byte   N17 ,En5 ,v092
 .byte   N17 ,Fs5 ,v092
 .byte   W24
 .byte   N17 ,An4 ,v092
 .byte   N17 ,Cs5 ,v092
 .byte   N17 ,En5 ,v092
 .byte   N17 ,Fs5 ,v092
 .byte   W24
 .byte   N17 ,An4 ,v092
 .byte   N17 ,Cs5 ,v092
 .byte   N17 ,En5 ,v092
 .byte   N17 ,Fs5 ,v092
 .byte   W24
 .byte   N17 ,An4 ,v092
 .byte   N17 ,Cs5 ,v092
 .byte   N17 ,En5 ,v092
 .byte   N17 ,Fs5 ,v092
 .byte   W24
@  #03 @018   ----------------------------------------
 .byte   N17 ,An4 ,v092
 .byte   N17 ,Cs5 ,v092
 .byte   N17 ,En5 ,v092
 .byte   N17 ,Fs5 ,v092
 .byte   W24
 .byte   N17 ,An4 ,v092
 .byte   N17 ,Cs5 ,v092
 .byte   N17 ,En5 ,v092
 .byte   N17 ,Fs5 ,v092
 .byte   W24
 .byte   N17 ,An4 ,v092
 .byte   N17 ,Cs5 ,v092
 .byte   N17 ,En5 ,v092
 .byte   N17 ,Fs5 ,v092
 .byte   W24
 .byte   N17 ,An4 ,v092
 .byte   N17 ,Cs5 ,v092
 .byte   N17 ,En5 ,v092
 .byte   N17 ,Fs5 ,v092
 .byte   W24
@  #03 @019   ----------------------------------------
 .byte   N17 ,Bn4 ,v092
 .byte   N17 ,Ds5 ,v092
 .byte   N17 ,Fs5 ,v092
 .byte   W24
 .byte   N17 ,Bn4 ,v092
 .byte   N17 ,Ds5 ,v092
 .byte   N17 ,Fs5 ,v092
 .byte   W24
 .byte   N17 ,Bn4 ,v092
 .byte   N17 ,Ds5 ,v092
 .byte   N17 ,Fs5 ,v092
 .byte   W24
 .byte   N17 ,Bn4 ,v092
 .byte   N17 ,Ds5 ,v092
 .byte   N17 ,Fs5 ,v092
 .byte   W24
@  #03 @020   ----------------------------------------
 .byte   N17 ,Bn4 ,v092
 .byte   N17 ,Ds5 ,v092
 .byte   N17 ,Fs5 ,v092
 .byte   W24
 .byte   N17 ,Bn4 ,v092
 .byte   N17 ,Ds5 ,v092
 .byte   N17 ,Fs5 ,v092
 .byte   W24
 .byte   N17 ,Bn4 ,v092
 .byte   N17 ,Ds5 ,v092
 .byte   N17 ,Fs5 ,v092
 .byte   W24
 .byte   N17 ,Bn4 ,v092
 .byte   N17 ,Ds5 ,v092
 .byte   N17 ,Fs5 ,v092
 .byte   W24
@  #03 @021   ----------------------------------------
 .byte   N17 ,An4 ,v092
 .byte   N17 ,Dn5 ,v092
 .byte   N17 ,Fs5 ,v092
 .byte   W24
 .byte   N17 ,An4 ,v092
 .byte   N17 ,Dn5 ,v092
 .byte   N17 ,Fs5 ,v092
 .byte   W24
 .byte   N17 ,An4 ,v092
 .byte   N17 ,Dn5 ,v092
 .byte   N17 ,Fs5 ,v092
 .byte   W24
 .byte   N17 ,An4 ,v092
 .byte   N17 ,Dn5 ,v092
 .byte   N17 ,Fs5 ,v092
 .byte   W24
@  #03 @022   ----------------------------------------
 .byte   N17 ,An4 ,v092
 .byte   N17 ,Dn5 ,v092
 .byte   N17 ,Fs5 ,v092
 .byte   W24
 .byte   N17 ,An4 ,v092
 .byte   N17 ,Dn5 ,v092
 .byte   N17 ,Fs5 ,v092
 .byte   W24
 .byte   N17 ,An4 ,v092
 .byte   N17 ,Dn5 ,v092
 .byte   N17 ,Fs5 ,v092
 .byte   W24
 .byte   N17 ,An4 ,v092
 .byte   N17 ,Dn5 ,v092
 .byte   N17 ,Fs5 ,v092
 .byte   W24
@  #03 @023   ----------------------------------------
 .byte   N17 ,An4 ,v092
 .byte   N17 ,Cs5 ,v092
 .byte   N17 ,Fs5 ,v092
 .byte   W24
 .byte   N17 ,An4 ,v092
 .byte   N17 ,Cs5 ,v092
 .byte   N17 ,Fs5 ,v092
 .byte   W24
 .byte   N17 ,An4 ,v092
 .byte   N17 ,Cs5 ,v092
 .byte   N17 ,Fs5 ,v092
 .byte   W24
 .byte   N17 ,An4 ,v092
 .byte   N17 ,Cs5 ,v092
 .byte   N17 ,Fs5 ,v092
 .byte   W24
@  #03 @024   ----------------------------------------
 .byte   N17 ,An4 ,v092
 .byte   N17 ,Cs5 ,v092
 .byte   N17 ,Fs5 ,v092
 .byte   W24
 .byte   N17 ,An4 ,v092
 .byte   N17 ,Cs5 ,v092
 .byte   N17 ,Fs5 ,v092
 .byte   W24
 .byte   N17 ,An4 ,v092
 .byte   N17 ,Cs5 ,v092
 .byte   N17 ,Fs5 ,v092
 .byte   W24
 .byte   N24 ,Fs4 ,v092
 .byte   W06
 .byte   N18 ,An4 ,v092
 .byte   W06
 .byte   N12 ,Cs5 ,v092
 .byte   W06
 .byte   N06 ,En5 ,v092
 .byte   W06
@  #03 @025   ----------------------------------------
 .byte   TIE ,An4 ,v092
 .byte   TIE ,Cs5 ,v092
 .byte   TIE ,En5 ,v092
 .byte   TIE ,Fs5 ,v092
 .byte   W96
@  #03 @026   ----------------------------------------
 .byte   W96
@  #03 @027   ----------------------------------------
 .byte   EOT
 .byte   An4
 .byte   EOT
 .byte   Cs5
 .byte   EOT
 .byte   En5
 .byte   EOT
 .byte   Fs5
 .byte   TIE ,Bn4 ,v092
 .byte   TIE ,Ds5 ,v092
 .byte   TIE ,Fs5 ,v092
 .byte   W96
@  #03 @028   ----------------------------------------
 .byte   W96
@  #03 @029   ----------------------------------------
 .byte   EOT
 .byte   Bn4
 .byte   EOT
 .byte   Ds5
 .byte   EOT
 .byte   Fs5
 .byte   TIE ,An4 ,v092
 .byte   TIE ,Dn5 ,v092
 .byte   TIE ,Fs5 ,v092
 .byte   W96
@  #03 @030   ----------------------------------------
 .byte   W96
@  #03 @031   ----------------------------------------
 .byte   EOT
 .byte   An4
 .byte   EOT
 .byte   Dn5
 .byte   EOT
 .byte   Fs5
 .byte   N96 ,As4 ,v092
 .byte   N96 ,Cs5 ,v092
 .byte   N96 ,Fs5 ,v092
 .byte   W96
@  #03 @032   ----------------------------------------
 .byte   N96 ,An4 ,v092
 .byte   N96 ,Cs5 ,v092
 .byte   N96 ,En5 ,v092
 .byte   W96
@  #03 @033   ----------------------------------------
 .byte   TIE ,Gn4 ,v092
 .byte   W96
@  #03 @034   ----------------------------------------
 .byte   N96 ,Bn4 ,v092
 .byte   W96
@  #03 @035   ----------------------------------------
 .byte   N96 ,Cs5 ,v092
 .byte   W96
@  #03 @036   ----------------------------------------
 .byte   N96 ,Dn5 ,v092
 .byte   W96
@  #03 @037   ----------------------------------------
 .byte   EOT
 .byte   Gn4
 .byte   TIE ,Gn4 ,v092
 .byte   TIE ,Gn5 ,v092
 .byte   W96
@  #03 @038   ----------------------------------------
 .byte   N96 ,Bn4 ,v092
 .byte   W96
@  #03 @039   ----------------------------------------
 .byte   N96 ,Cs5 ,v092
 .byte   W96
@  #03 @040   ----------------------------------------
 .byte   N84 ,Dn5 ,v092
 .byte   W84
 .byte   EOT
 .byte   Gn4
 .byte   EOT
 .byte   Gn5
 .byte   W96
@  #03 @041   ----------------------------------------
 .byte   W12
 .byte   W96
@  #03 @042   ----------------------------------------
 .byte   W96
@  #03 @043   ----------------------------------------
 .byte   W96
@  #03 @044   ----------------------------------------
 .byte   W96
@  #03 @045   ----------------------------------------
 .byte   W96
@  #03 @046   ----------------------------------------
 .byte   W96
@  #03 @047   ----------------------------------------
 .byte   W96
@  #03 @048   ----------------------------------------
 .byte   W96
@  #03 @049   ----------------------------------------
 .byte   W96
@  #03 @050   ----------------------------------------
 .byte   W96
@  #03 @051   ----------------------------------------
 .byte   W96
@  #03 @052   ----------------------------------------
 .byte   W96
@  #03 @053   ----------------------------------------
 .byte   W96
@  #03 @054   ----------------------------------------
 .byte   W96
@  #03 @055   ----------------------------------------
 .byte   W72
 .byte   N06 ,Fs4 ,v092
 .byte   W06
 .byte   N06 ,Fs4 ,v092
 .byte   N06 ,Bn4 ,v092
 .byte   W06
 .byte   N06 ,Fs4 ,v092
 .byte   N06 ,Bn4 ,v092
 .byte   N06 ,Ds5 ,v092
 .byte   W06
 .byte   N06 ,Fs4 ,v092
 .byte   N06 ,Bn4 ,v092
 .byte   N06 ,Ds5 ,v092
 .byte   N06 ,Fs5 ,v092
 .byte   W06
@  #03 @056   ----------------------------------------
 .byte   TIE ,An4 ,v092
 .byte   TIE ,Cs5 ,v092
 .byte   TIE ,En5 ,v092
 .byte   TIE ,Fs5 ,v092
 .byte   W96
@  #03 @057   ----------------------------------------
 .byte   W96
@  #03 @058   ----------------------------------------
 .byte   EOT
 .byte   An4
 .byte   EOT
 .byte   Cs5
 .byte   EOT
 .byte   En5
 .byte   EOT
 .byte   Fs5
 .byte   TIE ,Bn4 ,v092
 .byte   TIE ,Ds5 ,v092
 .byte   TIE ,Fs5 ,v092
 .byte   W96
@  #03 @059   ----------------------------------------
 .byte   W96
@  #03 @060   ----------------------------------------
 .byte   EOT
 .byte   Bn4
 .byte   EOT
 .byte   Ds5
 .byte   EOT
 .byte   Fs5
 .byte   TIE ,Bn4 ,v092
 .byte   TIE ,En5 ,v092
 .byte   TIE ,Gn5 ,v092
 .byte   W96
@  #03 @061   ----------------------------------------
 .byte   W96
@  #03 @062   ----------------------------------------
 .byte   EOT
 .byte   Bn4
 .byte   EOT
 .byte   En5
 .byte   EOT
 .byte   Gn5
 .byte   TIE ,Bn4 ,v092
 .byte   TIE ,Ds5 ,v092
 .byte   TIE ,Fs5 ,v092
 .byte   W96
@  #03 @063   ----------------------------------------
 .byte   W96
@  #03 @064   ----------------------------------------
 .byte   EOT
 .byte   Bn4
 .byte   EOT
 .byte   Ds5
 .byte   EOT
 .byte   Fs5
 .byte   TIE ,An4 ,v092
 .byte   TIE ,Cs5 ,v092
 .byte   TIE ,En5 ,v092
 .byte   TIE ,Fs5 ,v092
 .byte   W96
@  #03 @065   ----------------------------------------
 .byte   W96
@  #03 @066   ----------------------------------------
 .byte   EOT
 .byte   An4
 .byte   EOT
 .byte   Cs5
 .byte   EOT
 .byte   En5
 .byte   EOT
 .byte   Fs5
 .byte   TIE ,Bn4 ,v092
 .byte   TIE ,Ds5 ,v092
 .byte   TIE ,Fs5 ,v092
 .byte   W96
@  #03 @067   ----------------------------------------
 .byte   W96
@  #03 @068   ----------------------------------------
 .byte   EOT
 .byte   Bn4
 .byte   EOT
 .byte   Ds5
 .byte   EOT
 .byte   Fs5
 .byte   TIE ,Bn4 ,v092
 .byte   TIE ,En5 ,v092
 .byte   TIE ,Gn5 ,v092
 .byte   W96
@  #03 @069   ----------------------------------------
 .byte   W96
@  #03 @070   ----------------------------------------
 .byte   EOT
 .byte   Bn4
 .byte   EOT
 .byte   En5
 .byte   EOT
 .byte   Gn5
 .byte   TIE ,Bn4 ,v092
 .byte   TIE ,Ds5 ,v092
 .byte   TIE ,Fs5 ,v092
 .byte   W96
@  #03 @071   ----------------------------------------
 .byte   W96
@  #03 @072   ----------------------------------------
 .byte   EOT
 .byte   Bn4
 .byte   EOT
 .byte   Ds5
 .byte   EOT
 .byte   Fs5
 .byte   TIE ,Gn4 ,v092
 .byte   TIE ,Cn5 ,v092
 .byte   TIE ,En5 ,v092
 .byte   W96
@  #03 @073   ----------------------------------------
 .byte   W96
@  #03 @074   ----------------------------------------
 .byte   EOT
 .byte   Gn4
 .byte   EOT
 .byte   Cn5
 .byte   EOT
 .byte   En5
 .byte   TIE ,An4 ,v092
 .byte   TIE ,Dn5 ,v092
 .byte   TIE ,Fs5 ,v092
 .byte   W96
@  #03 @075   ----------------------------------------
 .byte   W96
@  #03 @076   ----------------------------------------
 .byte   EOT
 .byte   An4
 .byte   EOT
 .byte   Dn5
 .byte   EOT
 .byte   Fs5
 .byte   TIE ,Bn4 ,v092
 .byte   TIE ,En5 ,v092
 .byte   TIE ,Gn5 ,v092
 .byte   W96
@  #03 @077   ----------------------------------------
 .byte   W96
@  #03 @078   ----------------------------------------
 .byte   EOT
 .byte   En5
 .byte   EOT
 .byte   Gn5
 .byte   TIE ,Ds5 ,v092
 .byte   TIE ,Fs5 ,v092
 .byte   W96
@  #03 @079   ----------------------------------------
 .byte   W84
 .byte   EOT
 .byte   Bn4
 .byte   EOT
 .byte   Ds5
 .byte   EOT
 .byte   Fs5
 .byte   W12
@  #03 @080   ----------------------------------------
 .byte   TIE ,Gn4 ,v092
 .byte   TIE ,Cn5 ,v092
 .byte   TIE ,En5 ,v092
 .byte   W96
@  #03 @081   ----------------------------------------
 .byte   W96
@  #03 @082   ----------------------------------------
 .byte   EOT
 .byte   Gn4
 .byte   EOT
 .byte   Cn5
 .byte   EOT
 .byte   En5
 .byte   TIE ,An4 ,v092
 .byte   TIE ,Dn5 ,v092
 .byte   TIE ,Fs5 ,v092
 .byte   W96
@  #03 @083   ----------------------------------------
 .byte   W96
@  #03 @084   ----------------------------------------
 .byte   EOT
 .byte   An4
 .byte   EOT
 .byte   Dn5
 .byte   EOT
 .byte   Fs5
 .byte   TIE ,Bn4 ,v092
 .byte   TIE ,Ds5 ,v092
 .byte   TIE ,Fs5 ,v092
 .byte   W96
@  #03 @085   ----------------------------------------
 .byte   W96
@  #03 @086   ----------------------------------------
 .byte   W84
 .byte   EOT
 .byte   Bn4
 .byte   EOT
 .byte   Ds5
 .byte   EOT
 .byte   Fs5
 .byte   W12
@  #03 @087   ----------------------------------------
 .byte   N40 ,Gn4 ,v092
 .byte   N40 ,Cn5 ,v092
 .byte   N40 ,En5 ,v092
 .byte   W48
 .byte   N40 ,Fs4 ,v092
 .byte   N40 ,An4 ,v092
 .byte   N40 ,Dn5 ,v092
 .byte   W48
@  #03 @088   ----------------------------------------
 .byte   TIE ,An4 ,v092
 .byte   TIE ,Cs5 ,v092
 .byte   TIE ,En5 ,v092
 .byte   TIE ,Fs5 ,v092
 .byte   W96
@  #03 @089   ----------------------------------------
 .byte   W96
@  #03 @090   ----------------------------------------
 .byte   EOT
 .byte   An4
 .byte   EOT
 .byte   Cs5
 .byte   EOT
 .byte   En5
 .byte   EOT
 .byte   Fs5
 .byte   TIE ,Bn4 ,v092
 .byte   TIE ,Ds5 ,v092
 .byte   TIE ,Fs5 ,v092
 .byte   W96
@  #03 @091   ----------------------------------------
 .byte   W96
@  #03 @092   ----------------------------------------
 .byte   EOT
 .byte   Bn4
 .byte   EOT
 .byte   Ds5
 .byte   EOT
 .byte   Fs5
 .byte   TIE ,Bn4 ,v092
 .byte   TIE ,En5 ,v092
 .byte   TIE ,Gn5 ,v092
 .byte   W96
@  #03 @093   ----------------------------------------
 .byte   W96
@  #03 @094   ----------------------------------------
 .byte   EOT
 .byte   Bn4
 .byte   EOT
 .byte   En5
 .byte   EOT
 .byte   Gn5
 .byte   TIE ,Bn4 ,v092
 .byte   TIE ,Ds5 ,v092
 .byte   TIE ,Fs5 ,v092
 .byte   W96
@  #03 @095   ----------------------------------------
 .byte   W96
@  #03 @096   ----------------------------------------
 .byte   EOT
 .byte   Bn4
 .byte   EOT
 .byte   Ds5
 .byte   EOT
 .byte   Fs5
 .byte   TIE ,An4 ,v092
 .byte   TIE ,Cs5 ,v092
 .byte   TIE ,En5 ,v092
 .byte   TIE ,Fs5 ,v092
 .byte   W96
@  #03 @097   ----------------------------------------
 .byte   W96
@  #03 @098   ----------------------------------------
 .byte   EOT
 .byte   An4
 .byte   EOT
 .byte   Cs5
 .byte   EOT
 .byte   En5
 .byte   EOT
 .byte   Fs5
 .byte   TIE ,Bn4 ,v092
 .byte   TIE ,Ds5 ,v092
 .byte   TIE ,Fs5 ,v092
 .byte   W96
@  #03 @099   ----------------------------------------
 .byte   W96
@  #03 @100   ----------------------------------------
 .byte   EOT
 .byte   Bn4
 .byte   EOT
 .byte   Ds5
 .byte   EOT
 .byte   Fs5
 .byte   TIE ,Bn4 ,v092
 .byte   TIE ,En5 ,v092
 .byte   TIE ,Gn5 ,v092
 .byte   W96
@  #03 @101   ----------------------------------------
 .byte   W96
@  #03 @102   ----------------------------------------
 .byte   EOT
 .byte   Bn4
 .byte   EOT
 .byte   En5
 .byte   EOT
 .byte   Gn5
 .byte   TIE ,Bn4 ,v092
 .byte   TIE ,Ds5 ,v092
 .byte   TIE ,Fs5 ,v092
 .byte   W96
@  #03 @103   ----------------------------------------
 .byte   W96
@  #03 @104   ----------------------------------------
 .byte   EOT
 .byte   Bn4
 .byte   EOT
 .byte   Ds5
 .byte   EOT
 .byte   Fs5
 .byte   TIE ,Gn4 ,v092
 .byte   TIE ,Cn5 ,v092
 .byte   N96 ,En5 ,v092
 .byte   N96 ,Cn6 ,v092
 .byte   W96
@  #03 @105   ----------------------------------------
 .byte   N32 ,Fs5 ,v092
 .byte   N96 ,Bn5 ,v092
 .byte   W32
 .byte   N32 ,Gn5 ,v092
 .byte   W32
 .byte   N32 ,Fs5 ,v092
 .byte   W20
 .byte   EOT
 .byte   Gn4
 .byte   EOT
 .byte   Cn5
 .byte   W12
@  #03 @106   ----------------------------------------
 .byte   TIE ,Gn4 ,v092
 .byte   TIE ,Cn5 ,v092
 .byte   N96 ,En5 ,v092
 .byte   N96 ,An5 ,v092
 .byte   W96
@  #03 @107   ----------------------------------------
 .byte   N32 ,Fs5 ,v092
 .byte   N96 ,Gn5 ,v092
 .byte   W64
 .byte   N32 ,Fs5 ,v092
 .byte   W20
 .byte   EOT
 .byte   Gn4
 .byte   EOT
 .byte   Cn5
 .byte   W12
@  #03 @108   ----------------------------------------
 .byte   TIE ,Gn4 ,v092
 .byte   TIE ,Cn5 ,v092
 .byte   N96 ,En5 ,v092
 .byte   N96 ,Fs5 ,v092
 .byte   W96
@  #03 @109   ----------------------------------------
 .byte   N32 ,Fs5 ,v092
 .byte   N96 ,Bn5 ,v092
 .byte   W32
 .byte   N32 ,Gn5 ,v092
 .byte   W32
 .byte   N32 ,Fs5 ,v092
 .byte   W20
 .byte   EOT
 .byte   Gn4
 .byte   EOT
 .byte   Cn5
 .byte   W12
@  #03 @110   ----------------------------------------
 .byte   TIE ,Bn4 ,v092
 .byte   N96 ,En5 ,v092
 .byte   N96 ,An5 ,v092
 .byte   W96
@  #03 @111   ----------------------------------------
 .byte   N96 ,Ds5 ,v092
 .byte   N96 ,Bn5 ,v092
 .byte   W84
 .byte   EOT
 .byte   Bn4
 .byte   W12
@  #03 @112   ----------------------------------------
 .byte   TIE ,Cn5 ,v092
 .byte   TIE ,En5 ,v092
 .byte   N32 ,Cn6 ,v092
 .byte   W32
 .byte   N32 ,Bn5 ,v092
 .byte   W32
 .byte   N32 ,An5 ,v092
 .byte   W32
@  #03 @113   ----------------------------------------
 .byte   N32 ,Gn5 ,v092
 .byte   W32
 .byte   N32 ,Fs5 ,v092
 .byte   W32
 .byte   N32 ,Gn5 ,v092
 .byte   W32
@  #03 @114   ----------------------------------------
 .byte   EOT
 .byte   Cn5
 .byte   EOT
 .byte   En5
 .byte   N96 ,Cn5 ,v092
 .byte   N96 ,En5 ,v092
 .byte   N96 ,An5 ,v092
 .byte   W96
@  #03 @115   ----------------------------------------
 .byte   N96 ,Gn4 ,v092
 .byte   N96 ,Cn5 ,v092
 .byte   N96 ,En5 ,v092
 .byte   W96
@  #03 @116   ----------------------------------------
 .byte   TIE ,Gn4 ,v092
 .byte   TIE ,Cn5 ,v092
 .byte   N96 ,Dn5 ,v092
 .byte   W96
@  #03 @117   ----------------------------------------
 .byte   N32 ,En5 ,v092
 .byte   W32
 .byte   N32 ,Dn5 ,v092
 .byte   W32
 .byte   N32 ,Fs5 ,v092
 .byte   W20
 .byte   EOT
 .byte   Gn4
 .byte   EOT
 .byte   Cn5
 .byte   W12
@  #03 @118   ----------------------------------------
 .byte   TIE ,An4 ,v092
 .byte   TIE ,Dn5 ,v092
 .byte   N32 ,Fs5 ,v092
 .byte   W32
 .byte   N32 ,En5 ,v092
 .byte   W32
 .byte   N32 ,Fs5 ,v092
 .byte   W32
@  #03 @119   ----------------------------------------
 .byte   N32 ,An5 ,v092
 .byte   W32
 .byte   N32 ,Gn5 ,v092
 .byte   W32
 .byte   N32 ,Fs5 ,v092
 .byte   W20
 .byte   EOT
 .byte   An4
 .byte   EOT
 .byte   Dn5
 .byte   W12
@  #03 @120   ----------------------------------------
 .byte   TIE ,Bn4 ,v092
 .byte   TIE ,En5 ,v092
 .byte   TIE ,Gn5 ,v092
 .byte   W96
@  #03 @121   ----------------------------------------
 .byte   W84
 .byte   EOT
 .byte   En5
 .byte   EOT
 .byte   Gn5
 .byte   W12
@  #03 @122   ----------------------------------------
 .byte   TIE ,Ds5 ,v092
 .byte   TIE ,Fs5 ,v092
 .byte   W96
@  #03 @123   ----------------------------------------
 .byte   W84
 .byte   EOT
 .byte   Bn4
 .byte   EOT
 .byte   Ds5
 .byte   EOT
 .byte   Fs5
 .byte   W12
@  #03 @124   ----------------------------------------
 .byte   TIE ,Gn4 ,v092
 .byte   TIE ,Cn5 ,v092
 .byte   TIE ,En5 ,v092
 .byte   W96
@  #03 @125   ----------------------------------------
 .byte   W84
 .byte   EOT
 .byte   Gn4
 .byte   EOT
 .byte   Cn5
 .byte   EOT
 .byte   En5
 .byte   W12
@  #03 @126   ----------------------------------------
 .byte   TIE ,An4 ,v092
 .byte   TIE ,Cn5 ,v092
 .byte   TIE ,Ds5 ,v092
 .byte   TIE ,Fs5 ,v092
 .byte   W96
@  #03 @127   ----------------------------------------
 .byte   W84
 .byte   EOT
 .byte   An4
 .byte   EOT
 .byte   Cn5
 .byte   EOT
 .byte   Ds5
 .byte   EOT
 .byte   Fs5
 .byte   W12
@  #03 @128   ----------------------------------------
 .byte   TIE ,Bn4 ,v092
 .byte   TIE ,En5 ,v092
 .byte   TIE ,Gn5 ,v092
 .byte   W96
@  #03 @129   ----------------------------------------
 .byte   W84
 .byte   EOT
 .byte   En5
 .byte   EOT
 .byte   Gn5
 .byte   W12
@  #03 @130   ----------------------------------------
 .byte   TIE ,Ds5 ,v092
 .byte   TIE ,Fs5 ,v092
 .byte   W96
@  #03 @131   ----------------------------------------
 .byte   W84
 .byte   EOT
 .byte   Bn4
 .byte   EOT
 .byte   Ds5
 .byte   EOT
 .byte   Fs5
 .byte   W12
@  #03 @132   ----------------------------------------
 .byte   TIE ,Gn4 ,v092
 .byte   TIE ,Cn5 ,v092
 .byte   TIE ,En5 ,v092
 .byte   W96
@  #03 @133   ----------------------------------------
 .byte   W84
 .byte   EOT
 .byte   Gn4
 .byte   EOT
 .byte   Cn5
 .byte   EOT
 .byte   En5
 .byte   W12
@  #03 @134   ----------------------------------------
 .byte   N40 ,An4 ,v092
 .byte   N40 ,Cn5 ,v092
 .byte   N40 ,Ds5 ,v092
 .byte   N40 ,Fs5 ,v092
 .byte   W48
 .byte   N40 ,Bn4 ,v092
 .byte   N40 ,Dn5 ,v092
 .byte   N40 ,En5 ,v092
 .byte   N40 ,Gn5 ,v092
 .byte   W48
@  #03 @135   ----------------------------------------
 .byte   N40 ,Cn5 ,v092
 .byte   N40 ,En5 ,v092
 .byte   N40 ,Fs5 ,v092
 .byte   N40 ,An5 ,v092
 .byte   W48
 .byte   N40 ,Ds5 ,v092
 .byte   N40 ,Fs5 ,v092
 .byte   N40 ,Gn5 ,v092
 .byte   N40 ,Bn5 ,v092
 .byte   W48
@  #03 @136   ----------------------------------------
 .byte   TIE ,Gn4 ,v092
 .byte   TIE ,Cn5 ,v092
 .byte   TIE ,En5 ,v092
 .byte   W96
@  #03 @137   ----------------------------------------
 .byte   W96
@  #03 @138   ----------------------------------------
 .byte   EOT
 .byte   Gn4
 .byte   EOT
 .byte   Cn5
 .byte   EOT
 .byte   En5
 .byte   TIE ,An4 ,v092
 .byte   TIE ,Dn5 ,v092
 .byte   TIE ,Fs5 ,v092
 .byte   W96
@  #03 @139   ----------------------------------------
 .byte   W96
@  #03 @140   ----------------------------------------
 .byte   EOT
 .byte   An4
 .byte   EOT
 .byte   Dn5
 .byte   EOT
 .byte   Fs5
 .byte   TIE ,Bn4 ,v092
 .byte   TIE ,En5 ,v092
 .byte   TIE ,Gn5 ,v092
 .byte   W96
@  #03 @141   ----------------------------------------
 .byte   W96
@  #03 @142   ----------------------------------------
 .byte   EOT
 .byte   En5
 .byte   EOT
 .byte   Gn5
 .byte   TIE ,Ds5 ,v092
 .byte   TIE ,Fs5 ,v092
 .byte   W96
@  #03 @143   ----------------------------------------
 .byte   W84
 .byte   EOT
 .byte   Bn4
 .byte   EOT
 .byte   Ds5
 .byte   EOT
 .byte   Fs5
 .byte   W12
@  #03 @144   ----------------------------------------
 .byte   TIE ,Gn4 ,v092
 .byte   TIE ,Cn5 ,v092
 .byte   TIE ,En5 ,v092
 .byte   W96
@  #03 @145   ----------------------------------------
 .byte   W96
@  #03 @146   ----------------------------------------
 .byte   EOT
 .byte   Gn4
 .byte   EOT
 .byte   Cn5
 .byte   EOT
 .byte   En5
 .byte   TIE ,An4 ,v092
 .byte   TIE ,Dn5 ,v092
 .byte   TIE ,Fs5 ,v092
 .byte   W96
@  #03 @147   ----------------------------------------
 .byte   W96
@  #03 @148   ----------------------------------------
 .byte   EOT
 .byte   An4
 .byte   EOT
 .byte   Dn5
 .byte   EOT
 .byte   Fs5
 .byte   TIE ,Bn4 ,v092
 .byte   TIE ,Ds5 ,v092
 .byte   TIE ,Fs5 ,v092
 .byte   W96
@  #03 @149   ----------------------------------------
 .byte   W96
@  #03 @150   ----------------------------------------
 .byte   W84
 .byte   EOT
 .byte   Bn4
 .byte   EOT
 .byte   Ds5
 .byte   EOT
 .byte   Fs5
 .byte   W12
@  #03 @151   ----------------------------------------
 .byte   N40 ,Gn4 ,v092
 .byte   N40 ,Cn5 ,v092
 .byte   N40 ,En5 ,v092
 .byte   W48
 .byte   N40 ,Fs4 ,v092
 .byte   N40 ,An4 ,v092
 .byte   N40 ,Dn5 ,v092
 .byte   W48
@  #03 @152   ----------------------------------------
 .byte   TIE ,Gn4 ,v092
 .byte   TIE ,Cn5 ,v092
 .byte   N96 ,En5 ,v092
 .byte   N96 ,Cn6 ,v092
 .byte   W96
@  #03 @153   ----------------------------------------
 .byte   N32 ,Fs5 ,v092
 .byte   N96 ,Bn5 ,v092
 .byte   W32
 .byte   N32 ,Gn5 ,v092
 .byte   W32
 .byte   N32 ,Fs5 ,v092
 .byte   W20
 .byte   EOT
 .byte   Gn4
 .byte   EOT
 .byte   Cn5
 .byte   W12
@  #03 @154   ----------------------------------------
 .byte   TIE ,Gn4 ,v092
 .byte   TIE ,Cn5 ,v092
 .byte   N96 ,En5 ,v092
 .byte   N96 ,An5 ,v092
 .byte   W96
@  #03 @155   ----------------------------------------
 .byte   N32 ,Fs5 ,v092
 .byte   N96 ,Gn5 ,v092
 .byte   W64
 .byte   N32 ,Fs5 ,v092
 .byte   W20
 .byte   EOT
 .byte   Gn4
 .byte   EOT
 .byte   Cn5
 .byte   W12
@  #03 @156   ----------------------------------------
 .byte   TIE ,Gn4 ,v092
 .byte   TIE ,Cn5 ,v092
 .byte   N96 ,En5 ,v092
 .byte   N96 ,Fs5 ,v092
 .byte   W96
@  #03 @157   ----------------------------------------
 .byte   N32 ,Fs5 ,v092
 .byte   N96 ,Bn5 ,v092
 .byte   W32
 .byte   N32 ,Gn5 ,v092
 .byte   W32
 .byte   N32 ,Fs5 ,v092
 .byte   W20
 .byte   EOT
 .byte   Gn4
 .byte   EOT
 .byte   Cn5
 .byte   W12
@  #03 @158   ----------------------------------------
 .byte   TIE ,Bn4 ,v092
 .byte   N96 ,En5 ,v092
 .byte   N96 ,An5 ,v092
 .byte   W96
@  #03 @159   ----------------------------------------
 .byte   N96 ,Ds5 ,v092
 .byte   N96 ,Bn5 ,v092
 .byte   W84
 .byte   EOT
 .byte   Bn4
 .byte   W12
@  #03 @160   ----------------------------------------
 .byte   TIE ,Cn5 ,v092
 .byte   TIE ,En5 ,v092
 .byte   N32 ,Cn6 ,v092
 .byte   W32
 .byte   N32 ,Bn5 ,v092
 .byte   W32
 .byte   N32 ,An5 ,v092
 .byte   W32
@  #03 @161   ----------------------------------------
 .byte   N32 ,Gn5 ,v092
 .byte   W32
 .byte   N32 ,Fs5 ,v092
 .byte   W32
 .byte   N32 ,Gn5 ,v092
 .byte   W32
@  #03 @162   ----------------------------------------
 .byte   EOT
 .byte   Cn5
 .byte   EOT
 .byte   En5
 .byte   N96 ,Cn5 ,v092
 .byte   N96 ,En5 ,v092
 .byte   N96 ,An5 ,v092
 .byte   W96
@  #03 @163   ----------------------------------------
 .byte   N96 ,Gn4 ,v092
 .byte   N96 ,Cn5 ,v092
 .byte   N96 ,En5 ,v092
 .byte   W96
@  #03 @164   ----------------------------------------
 .byte   TIE ,Gn4 ,v092
 .byte   TIE ,Cn5 ,v092
 .byte   N96 ,Dn5 ,v092
 .byte   W96
@  #03 @165   ----------------------------------------
 .byte   N32 ,En5 ,v092
 .byte   W32
 .byte   N32 ,Dn5 ,v092
 .byte   W32
 .byte   N32 ,Fs5 ,v092
 .byte   W20
 .byte   EOT
 .byte   Gn4
 .byte   EOT
 .byte   Cn5
 .byte   W12
@  #03 @166   ----------------------------------------
 .byte   TIE ,An4 ,v092
 .byte   TIE ,Dn5 ,v092
 .byte   N32 ,Fs5 ,v092
 .byte   W32
 .byte   N32 ,En5 ,v092
 .byte   W32
 .byte   N32 ,Fs5 ,v092
 .byte   W32
@  #03 @167   ----------------------------------------
 .byte   N32 ,An5 ,v092
 .byte   W32
 .byte   N32 ,Gn5 ,v092
 .byte   W32
 .byte   N32 ,Fs5 ,v092
 .byte   W20
 .byte   EOT
 .byte   An4
 .byte   EOT
 .byte   Dn5
 .byte   W12
@  #03 @168   ----------------------------------------
 .byte   N17 ,An4 ,v092
 .byte   N17 ,Cs5 ,v092
 .byte   N17 ,En5 ,v092
 .byte   N17 ,Fs5 ,v092
 .byte   W24
 .byte   N17 ,An4 ,v092
 .byte   N17 ,Cs5 ,v092
 .byte   N17 ,En5 ,v092
 .byte   N17 ,Fs5 ,v092
 .byte   W24
 .byte   N17 ,An4 ,v092
 .byte   N17 ,Cs5 ,v092
 .byte   N17 ,En5 ,v092
 .byte   N17 ,Fs5 ,v092
 .byte   W24
 .byte   N17 ,An4 ,v092
 .byte   N17 ,Cs5 ,v092
 .byte   N17 ,En5 ,v092
 .byte   N17 ,Fs5 ,v092
 .byte   W24
@  #03 @169   ----------------------------------------
 .byte   N17 ,An4 ,v092
 .byte   N17 ,Cs5 ,v092
 .byte   N17 ,En5 ,v092
 .byte   N17 ,Fs5 ,v092
 .byte   W24
 .byte   N17 ,An4 ,v092
 .byte   N17 ,Cs5 ,v092
 .byte   N17 ,En5 ,v092
 .byte   N17 ,Fs5 ,v092
 .byte   W24
 .byte   N17 ,An4 ,v092
 .byte   N17 ,Cs5 ,v092
 .byte   N17 ,En5 ,v092
 .byte   N17 ,Fs5 ,v092
 .byte   W24
 .byte   N17 ,An4 ,v092
 .byte   N17 ,Cs5 ,v092
 .byte   N17 ,En5 ,v092
 .byte   N17 ,Fs5 ,v092
 .byte   W24
@  #03 @170   ----------------------------------------
 .byte   N17 ,Bn4 ,v092
 .byte   N17 ,Ds5 ,v092
 .byte   N17 ,Fs5 ,v092
 .byte   W24
 .byte   N17 ,Bn4 ,v092
 .byte   N17 ,Ds5 ,v092
 .byte   N17 ,Fs5 ,v092
 .byte   W24
 .byte   N17 ,Bn4 ,v092
 .byte   N17 ,Ds5 ,v092
 .byte   N17 ,Fs5 ,v092
 .byte   W24
 .byte   N17 ,Bn4 ,v092
 .byte   N17 ,Ds5 ,v092
 .byte   N17 ,Fs5 ,v092
 .byte   W24
@  #03 @171   ----------------------------------------
 .byte   N17 ,Bn4 ,v092
 .byte   N17 ,Ds5 ,v092
 .byte   N17 ,Fs5 ,v092
 .byte   W24
 .byte   N17 ,Bn4 ,v092
 .byte   N17 ,Ds5 ,v092
 .byte   N17 ,Fs5 ,v092
 .byte   W24
 .byte   N17 ,Bn4 ,v092
 .byte   N17 ,Ds5 ,v092
 .byte   N17 ,Fs5 ,v092
 .byte   W24
 .byte   N17 ,Bn4 ,v092
 .byte   N17 ,Ds5 ,v092
 .byte   N17 ,Fs5 ,v092
 .byte   W24
@  #03 @172   ----------------------------------------
 .byte   N17 ,An4 ,v092
 .byte   N17 ,Dn5 ,v092
 .byte   N17 ,Fs5 ,v092
 .byte   W24
 .byte   N17 ,An4 ,v092
 .byte   N17 ,Dn5 ,v092
 .byte   N17 ,Fs5 ,v092
 .byte   W24
 .byte   N17 ,An4 ,v092
 .byte   N17 ,Dn5 ,v092
 .byte   N17 ,Fs5 ,v092
 .byte   W24
 .byte   N17 ,An4 ,v092
 .byte   N17 ,Dn5 ,v092
 .byte   N17 ,Fs5 ,v092
 .byte   W24
@  #03 @173   ----------------------------------------
 .byte   N17 ,An4 ,v092
 .byte   N17 ,Dn5 ,v092
 .byte   N17 ,Fs5 ,v092
 .byte   W24
 .byte   N17 ,An4 ,v092
 .byte   N17 ,Dn5 ,v092
 .byte   N17 ,Fs5 ,v092
 .byte   W24
 .byte   N17 ,An4 ,v092
 .byte   N17 ,Dn5 ,v092
 .byte   N17 ,Fs5 ,v092
 .byte   W24
 .byte   N17 ,An4 ,v092
 .byte   N17 ,Dn5 ,v092
 .byte   N17 ,Fs5 ,v092
 .byte   W24
@  #03 @174   ----------------------------------------
 .byte   N17 ,An4 ,v092
 .byte   N17 ,Cs5 ,v092
 .byte   N17 ,Fs5 ,v092
 .byte   W24
 .byte   N17 ,An4 ,v092
 .byte   N17 ,Cs5 ,v092
 .byte   N17 ,Fs5 ,v092
 .byte   W24
 .byte   N17 ,An4 ,v092
 .byte   N17 ,Cs5 ,v092
 .byte   N17 ,Fs5 ,v092
 .byte   W24
 .byte   N17 ,An4 ,v092
 .byte   N17 ,Cs5 ,v092
 .byte   N17 ,Fs5 ,v092
 .byte   W24
@  #03 @175   ----------------------------------------
 .byte   N17 ,An4 ,v092
 .byte   N17 ,Cs5 ,v092
 .byte   N17 ,Fs5 ,v092
 .byte   W24
 .byte   N17 ,An4 ,v092
 .byte   N17 ,Cs5 ,v092
 .byte   N17 ,Fs5 ,v092
 .byte   W24
 .byte   N17 ,An4 ,v092
 .byte   N17 ,Cs5 ,v092
 .byte   N17 ,Fs5 ,v092
 .byte   W24
 .byte   N24 ,Fs4 ,v092
 .byte   W06
 .byte   N18 ,An4 ,v092
 .byte   W06
 .byte   N12 ,Cs5 ,v092
 .byte   W06
 .byte   N06 ,En5 ,v092
 .byte   W06
@  #03 @176   ----------------------------------------
 .byte   TIE ,An4 ,v092
 .byte   TIE ,Cs5 ,v092
 .byte   TIE ,En5 ,v092
 .byte   TIE ,Fs5 ,v092
 .byte   W96
@  #03 @177   ----------------------------------------
 .byte   W96
@  #03 @178   ----------------------------------------
 .byte   EOT
 .byte   An4
 .byte   EOT
 .byte   Cs5
 .byte   EOT
 .byte   En5
 .byte   EOT
 .byte   Fs5
 .byte   TIE ,Bn4 ,v092
 .byte   TIE ,Ds5 ,v092
 .byte   TIE ,Fs5 ,v092
 .byte   W96
@  #03 @179   ----------------------------------------
 .byte   W96
@  #03 @180   ----------------------------------------
 .byte   EOT
 .byte   Bn4
 .byte   EOT
 .byte   Ds5
 .byte   EOT
 .byte   Fs5
 .byte   TIE ,An4 ,v092
 .byte   TIE ,Dn5 ,v092
 .byte   TIE ,Fs5 ,v092
 .byte   W96
@  #03 @181   ----------------------------------------
 .byte   W96
@  #03 @182   ----------------------------------------
 .byte   EOT
 .byte   An4
 .byte   EOT
 .byte   Dn5
 .byte   EOT
 .byte   Fs5
 .byte   N96 ,As4 ,v092
 .byte   N96 ,Cs5 ,v092
 .byte   N96 ,Fs5 ,v092
 .byte   W96
@  #03 @183   ----------------------------------------
 .byte   N96 ,An4 ,v092
 .byte   N96 ,Cs5 ,v092
 .byte   N96 ,En5 ,v092
 .byte   W96
@  #03 @184   ----------------------------------------
 .byte   TIE ,Gn4 ,v092
 .byte   W96
@  #03 @185   ----------------------------------------
 .byte   N96 ,Bn4 ,v092
 .byte   W96
@  #03 @186   ----------------------------------------
 .byte   N96 ,Cs5 ,v092
 .byte   W96
@  #03 @187   ----------------------------------------
 .byte   N96 ,Dn5 ,v092
 .byte   W96
@  #03 @188   ----------------------------------------
 .byte   EOT
 .byte   Gn4
 .byte   TIE ,Gn4 ,v092
 .byte   TIE ,Gn5 ,v092
 .byte   W96
@  #03 @189   ----------------------------------------
 .byte   N96 ,Bn4 ,v092
 .byte   W96
@  #03 @190   ----------------------------------------
 .byte   N96 ,Cs5 ,v092
 .byte   W96
@  #03 @191   ----------------------------------------
 .byte   N64 ,Dn5 ,v092
 .byte   W64
 .byte   EOT
 .byte   Gn4
 .byte   W08
 .byte   PAN , c_v+0
 .byte   N05 ,An4 ,v127
 .byte   W06
 .byte   N05 ,Bn4 ,v127
 .byte   W06
 .byte   EOT
 .byte   Gn5
 .byte   N05 ,Cs5 ,v127
 .byte   W06
 .byte   N05 ,Dn5 ,v127
 .byte   W06
@  #03 @192   ----------------------------------------
 .byte   N08 ,En5 ,v127
 .byte   W24
 .byte   N08 ,Cs5 ,v127
 .byte   W24
 .byte   N08 ,An4 ,v127
 .byte   W24
 .byte   N08 ,En5 ,v127
 .byte   W24
@  #03 @193   ----------------------------------------
 .byte   N30 ,Fs5 ,v127 ,gtp1
 .byte   W32
 .byte   N30 ,Cs5 ,v127 ,gtp1
 .byte   W32
 .byte   N30 ,Fs5 ,v127 ,gtp1
 .byte   W32
@  #03 @194   ----------------------------------------
 .byte   N08 ,Fs5 ,v127
 .byte   W24
 .byte   N08 ,Cs5 ,v127
 .byte   W24
 .byte   N08 ,Ds5 ,v127
 .byte   W12
 .byte   N08 ,Cs5 ,v127
 .byte   W24
 .byte   N52 ,Ds5 ,v127
 .byte   W12
@  #03 @195   ----------------------------------------
 .byte   W48
 .byte   N11 ,Ds5 ,v127
 .byte   W12
 .byte   N11 ,En5 ,v127
 .byte   W12
 .byte   N11 ,Fs5 ,v127
 .byte   W12
 .byte   N11 ,An5 ,v127
 .byte   W12
@  #03 @196   ----------------------------------------
 .byte   N08 ,Gn5 ,v127
 .byte   W24
 .byte   N08 ,Fs5 ,v127
 .byte   W24
 .byte   N08 ,En5 ,v127
 .byte   W24
 .byte   N08 ,Gn5 ,v127
 .byte   W24
@  #03 @197   ----------------------------------------
 .byte   N30 ,Bn5 ,v127 ,gtp1
 .byte   W32
 .byte   N30 ,Cn6 ,v127 ,gtp1
 .byte   W32
 .byte   N30 ,An5 ,v127 ,gtp1
 .byte   W32
@  #03 @198   ----------------------------------------
 .byte   N08 ,Bn5 ,v127
 .byte   W24
 .byte   N08 ,An5 ,v127
 .byte   W24
 .byte   N08 ,Bn5 ,v127
 .byte   W12
 .byte   N08 ,Cn6 ,v127
 .byte   W24
 .byte   N52 ,Bn5 ,v127
 .byte   W12
@  #03 @199   ----------------------------------------
 .byte   W48
 .byte   N11 ,Bn5 ,v127
 .byte   W12
 .byte   N11 ,An5 ,v127
 .byte   W12
 .byte   N11 ,Gn5 ,v127
 .byte   W12
 .byte   N11 ,Fs5 ,v127
 .byte   W12
@  #03 @200   ----------------------------------------
 .byte   N11 ,En5 ,v127
 .byte   W12
 .byte   N11 ,Dn5 ,v127
 .byte   W12
 .byte   N11 ,Cs5 ,v127
 .byte   W12
 .byte   N11 ,En5 ,v127
 .byte   W12
 .byte   N11 ,Fs5 ,v127
 .byte   W12
 .byte   N11 ,En5 ,v127
 .byte   W12
 .byte   N11 ,Dn5 ,v127
 .byte   W12
 .byte   N11 ,Cs5 ,v127
 .byte   W12
@  #03 @201   ----------------------------------------
 .byte   N08 ,An4 ,v127
 .byte   N08 ,Cs5 ,v127
 .byte   N08 ,En5 ,v127
 .byte   N08 ,Fs5 ,v127
 .byte   W12
 .byte   N08 ,An4 ,v127
 .byte   N08 ,Cs5 ,v127
 .byte   N08 ,En5 ,v127
 .byte   N08 ,Fs5 ,v127
 .byte   W24
 .byte   N08 ,An4 ,v127
 .byte   N08 ,Cs5 ,v127
 .byte   N08 ,En5 ,v127
 .byte   N08 ,Fs5 ,v127
 .byte   W12
 .byte   N08 ,An4 ,v127
 .byte   N08 ,Cs5 ,v127
 .byte   N08 ,En5 ,v127
 .byte   N08 ,Fs5 ,v127
 .byte   W12
 .byte   N08 ,An4 ,v127
 .byte   N08 ,Cs5 ,v127
 .byte   N08 ,En5 ,v127
 .byte   N08 ,Fs5 ,v127
 .byte   W24
 .byte   N08 ,An4 ,v127
 .byte   N08 ,Cs5 ,v127
 .byte   N08 ,En5 ,v127
 .byte   N08 ,Fs5 ,v127
 .byte   W12
@  #03 @202   ----------------------------------------
 .byte   N11 ,Fs4 ,v127
 .byte   N11 ,Bn4 ,v127
 .byte   N11 ,Ds5 ,v127
 .byte   W12
 .byte   N23 ,Bn4 ,v127
 .byte   W24
 .byte   N11 ,Fs4 ,v127
 .byte   N11 ,Bn4 ,v127
 .byte   N11 ,Ds5 ,v127
 .byte   W12
 .byte   N23 ,Bn4 ,v127
 .byte   W24
 .byte   N40 ,Fs4 ,v127
 .byte   N40 ,Bn4 ,v127
 .byte   N40 ,Ds5 ,v127
 .byte   W24
@  #03 @203   ----------------------------------------
 .byte   W24
 .byte   N05 ,Bn4 ,v127
 .byte   W06
 .byte   N05 ,Ds5 ,v127
 .byte   W06
 .byte   N05 ,Fs5 ,v127
 .byte   W06
 .byte   N05 ,Ds5 ,v127
 .byte   W06
 .byte   N05 ,Bn4 ,v127
 .byte   W06
 .byte   N05 ,Ds5 ,v127
 .byte   W06
 .byte   N05 ,Fs5 ,v127
 .byte   W06
 .byte   N05 ,Ds5 ,v127
 .byte   W06
 .byte   N05 ,Bn4 ,v127
 .byte   W06
 .byte   N05 ,Ds5 ,v127
 .byte   W06
 .byte   N05 ,Fs5 ,v127
 .byte   W06
 .byte   N05 ,Ds5 ,v127
 .byte   W06
@  #03 @204   ----------------------------------------
 .byte   N15 ,Bn5 ,v127
 .byte   W16
 .byte   N15 ,An5 ,v127
 .byte   W16
 .byte   N15 ,Bn5 ,v127
 .byte   W16
 .byte   N15 ,Cn6 ,v127
 .byte   W16
 .byte   N15 ,An5 ,v127
 .byte   W16
 .byte   N15 ,Cn6 ,v127
 .byte   W16
@  #03 @205   ----------------------------------------
 .byte   N15 ,Bn5 ,v127
 .byte   W16
 .byte   N15 ,An5 ,v127
 .byte   W16
 .byte   N15 ,Gn5 ,v127
 .byte   W16
 .byte   N15 ,En5 ,v127
 .byte   W16
 .byte   N15 ,Fs5 ,v127
 .byte   W16
 .byte   N15 ,En5 ,v127
 .byte   W16
@  #03 @206   ----------------------------------------
 .byte   N30 ,Ds4 ,v127 ,gtp1
 .byte   N30 ,Fs4 ,v127 ,gtp1
 .byte   N30 ,Bn4 ,v127 ,gtp1
 .byte   W32
 .byte   N30 ,Fs4 ,v127 ,gtp1
 .byte   N30 ,Bn4 ,v127 ,gtp1
 .byte   N30 ,Ds5 ,v127 ,gtp1
 .byte   W32
 .byte   N30 ,Bn4 ,v127 ,gtp1
 .byte   N30 ,Ds5 ,v127 ,gtp1
 .byte   N30 ,Fs5 ,v127 ,gtp1
 .byte   W32
@  #03 @207   ----------------------------------------
 .byte   N30 ,Ds5 ,v127 ,gtp1
 .byte   N30 ,Fs5 ,v127 ,gtp1
 .byte   N30 ,Bn5 ,v127 ,gtp1
 .byte   W32
 .byte   N30 ,Fs5 ,v127 ,gtp1
 .byte   N30 ,Bn5 ,v127 ,gtp1
 .byte   N30 ,Ds6 ,v127 ,gtp1
 .byte   W32
 .byte   N30 ,Bn5 ,v127 ,gtp1
 .byte   N30 ,Ds6 ,v127 ,gtp1
 .byte   N30 ,Fs6 ,v127 ,gtp1
 .byte   W32
@  #03 @208   ----------------------------------------
 .byte   N84 ,An4 ,v127
 .byte   N84 ,Cs5 ,v127
 .byte   N84 ,En5 ,v127
 .byte   N84 ,Fs5 ,v127
 .byte   W96
@  #03 @209   ----------------------------------------
 .byte   N11 ,En5 ,v127
 .byte   W12
 .byte   N11 ,Cs5 ,v127
 .byte   W12
 .byte   N11 ,An4 ,v127
 .byte   W12
 .byte   N11 ,En5 ,v127
 .byte   W12
 .byte   N11 ,Fs5 ,v127
 .byte   W12
 .byte   N11 ,En5 ,v127
 .byte   W12
 .byte   N11 ,Fs5 ,v127
 .byte   W12
 .byte   N11 ,An5 ,v127
 .byte   W12
@  #03 @210   ----------------------------------------
 .byte   N84 ,Bn4 ,v127
 .byte   N84 ,Ds5 ,v127
 .byte   N84 ,Fs5 ,v127
 .byte   W96
@  #03 @211   ----------------------------------------
 .byte   N11 ,Fs5 ,v127
 .byte   W12
 .byte   N11 ,Ds5 ,v127
 .byte   W12
 .byte   N11 ,Bn4 ,v127
 .byte   W12
 .byte   N11 ,Ds5 ,v127
 .byte   W12
 .byte   N11 ,Bn5 ,v127
 .byte   W12
 .byte   N11 ,Fs5 ,v127
 .byte   W12
 .byte   N11 ,Ds5 ,v127
 .byte   W12
 .byte   N11 ,Fs5 ,v127
 .byte   W12
@  #03 @212   ----------------------------------------
 .byte   N08 ,Bn4 ,v127
 .byte   N08 ,En5 ,v127
 .byte   N08 ,Gn5 ,v127
 .byte   W12
 .byte   N08 ,Bn4 ,v127
 .byte   N08 ,En5 ,v127
 .byte   N08 ,Gn5 ,v127
 .byte   W24
 .byte   N08 ,Bn4 ,v127
 .byte   N08 ,En5 ,v127
 .byte   N08 ,Gn5 ,v127
 .byte   W12
 .byte   N08 ,Bn4 ,v127
 .byte   N08 ,En5 ,v127
 .byte   N08 ,Gn5 ,v127
 .byte   W12
 .byte   N08 ,Bn4 ,v127
 .byte   N08 ,En5 ,v127
 .byte   N08 ,Gn5 ,v127
 .byte   W24
 .byte   N08 ,Bn4 ,v127
 .byte   N08 ,En5 ,v127
 .byte   N08 ,Gn5 ,v127
 .byte   W12
@  #03 @213   ----------------------------------------
 .byte   N08 ,Bn4 ,v127
 .byte   N08 ,En5 ,v127
 .byte   N08 ,Gn5 ,v127
 .byte   W12
 .byte   N08 ,Bn4 ,v127
 .byte   N08 ,En5 ,v127
 .byte   N08 ,Gn5 ,v127
 .byte   W24
 .byte   N08 ,Bn4 ,v127
 .byte   N08 ,En5 ,v127
 .byte   N08 ,Gn5 ,v127
 .byte   W12
 .byte   N08 ,Bn4 ,v127
 .byte   N08 ,En5 ,v127
 .byte   N08 ,Gn5 ,v127
 .byte   W12
 .byte   N08 ,Bn4 ,v127
 .byte   N08 ,En5 ,v127
 .byte   N08 ,Gn5 ,v127
 .byte   W24
 .byte   N08 ,Bn4 ,v127
 .byte   N08 ,En5 ,v127
 .byte   N08 ,Gn5 ,v127
 .byte   W12
@  #03 @214   ----------------------------------------
 .byte   N07 ,Bn5 ,v127
 .byte   W08
 .byte   N07 ,Fs5 ,v127
 .byte   W08
 .byte   N07 ,Bn5 ,v127
 .byte   W08
 .byte   N07 ,Fs5 ,v127
 .byte   W08
 .byte   N07 ,Ds5 ,v127
 .byte   W08
 .byte   N07 ,Fs5 ,v127
 .byte   W08
 .byte   N07 ,Ds5 ,v127
 .byte   W08
 .byte   N07 ,Bn4 ,v127
 .byte   W08
 .byte   N07 ,Ds5 ,v127
 .byte   W08
 .byte   N07 ,Bn4 ,v127
 .byte   W08
 .byte   N07 ,Fs4 ,v127
 .byte   W08
 .byte   N07 ,Bn4 ,v127
 .byte   W08
@  #03 @215   ----------------------------------------
 .byte   N10 ,Bn4 ,v127
 .byte   N10 ,Ds5 ,v127
 .byte   N10 ,Fs5 ,v127
 .byte   W32
 .byte   N10 ,Bn4 ,v127
 .byte   N10 ,Ds5 ,v127
 .byte   N10 ,Fs5 ,v127
 .byte   W32
 .byte   N10 ,Bn4 ,v127
 .byte   N10 ,Ds5 ,v127
 .byte   N10 ,Fs5 ,v127
 .byte   W32
@  #03 @216   ----------------------------------------
 .byte   N30 ,An5 ,v127 ,gtp1
 .byte   W32
 .byte   N30 ,Gs5 ,v127 ,gtp1
 .byte   W32
 .byte   N30 ,Fs5 ,v127 ,gtp1
 .byte   W32
@  #03 @217   ----------------------------------------
 .byte   N30 ,En5 ,v127 ,gtp1
 .byte   W32
 .byte   N30 ,Dn5 ,v127 ,gtp1
 .byte   W32
 .byte   N30 ,Cs5 ,v127 ,gtp1
 .byte   W32
@  #03 @218   ----------------------------------------
 .byte   N30 ,Ds5 ,v127 ,gtp1
 .byte   W32
 .byte   N30 ,En5 ,v127 ,gtp1
 .byte   W32
 .byte   N30 ,Fs5 ,v127 ,gtp1
 .byte   W32
@  #03 @219   ----------------------------------------
 .byte   N30 ,An5 ,v127 ,gtp1
 .byte   W32
 .byte   N30 ,Gn5 ,v127 ,gtp1
 .byte   W32
 .byte   N30 ,Fs5 ,v127 ,gtp1
 .byte   W32
@  #03 @220   ----------------------------------------
 .byte   N11 ,Gn5 ,v127
 .byte   W12
 .byte   N11 ,Fs5 ,v127
 .byte   W12
 .byte   N11 ,En5 ,v127
 .byte   W12
 .byte   N11 ,Gn5 ,v127
 .byte   W12
 .byte   N11 ,Bn5 ,v127
 .byte   W12
 .byte   N11 ,An5 ,v127
 .byte   W12
 .byte   N11 ,Gn5 ,v127
 .byte   W12
 .byte   N11 ,Bn5 ,v127
 .byte   W12
@  #03 @221   ----------------------------------------
 .byte   N11 ,Cn6 ,v127
 .byte   W12
 .byte   N11 ,Bn5 ,v127
 .byte   W12
 .byte   N11 ,An5 ,v127
 .byte   W12
 .byte   N11 ,Cn6 ,v127
 .byte   W12
 .byte   N11 ,Bn5 ,v127
 .byte   W12
 .byte   N11 ,An5 ,v127
 .byte   W12
 .byte   N11 ,Gn5 ,v127
 .byte   W12
 .byte   N11 ,Fs5 ,v127
 .byte   W12
@  #03 @222   ----------------------------------------
 .byte   TIE ,Bn4 ,v127
 .byte   TIE ,Ds5 ,v127
 .byte   TIE ,Fs5 ,v127
 .byte   W96
@  #03 @223   ----------------------------------------
 .byte   W68
 .byte   W03
 .byte   EOT
 .byte   Bn4
 .byte   EOT
 .byte   Ds5
 .byte   EOT
 .byte   Fs5
 .byte   W01
 .byte   N05 ,Fs4 ,v127
 .byte   N05 ,Bn4 ,v127
 .byte   N05 ,Ds5 ,v127
 .byte   W06
 .byte   N05 ,Ds4 ,v127
 .byte   N05 ,Fs4 ,v127
 .byte   N05 ,Bn4 ,v127
 .byte   W06
 .byte   N05 ,Bn3 ,v127
 .byte   N05 ,Ds4 ,v127
 .byte   N05 ,Fs4 ,v127
 .byte   W06
 .byte   N05 ,Fs3 ,v127
 .byte   N05 ,Bn3 ,v127
 .byte   N05 ,Ds4 ,v127
 .byte   W06
@  #03 @224   ----------------------------------------
 .byte   PAN , c_v+32
 .byte   TIE ,Gn4 ,v092
 .byte   TIE ,Cn5 ,v092
 .byte   TIE ,En5 ,v092
 .byte   W96
@  #03 @225   ----------------------------------------
 .byte   W96
@  #03 @226   ----------------------------------------
 .byte   EOT
 .byte   Gn4
 .byte   EOT
 .byte   Cn5
 .byte   EOT
 .byte   En5
 .byte   TIE ,An4 ,v092
 .byte   TIE ,Dn5 ,v092
 .byte   TIE ,Fs5 ,v092
 .byte   W96
@  #03 @227   ----------------------------------------
 .byte   W96
@  #03 @228   ----------------------------------------
 .byte   EOT
 .byte   An4
 .byte   EOT
 .byte   Dn5
 .byte   EOT
 .byte   Fs5
 .byte   TIE ,Bn4 ,v092
 .byte   TIE ,En5 ,v092
 .byte   TIE ,Gn5 ,v092
 .byte   W96
@  #03 @229   ----------------------------------------
 .byte   W96
@  #03 @230   ----------------------------------------
 .byte   EOT
 .byte   En5
 .byte   EOT
 .byte   Gn5
 .byte   TIE ,Ds5 ,v092
 .byte   TIE ,Fs5 ,v092
 .byte   W96
@  #03 @231   ----------------------------------------
 .byte   W84
 .byte   EOT
 .byte   Bn4
 .byte   EOT
 .byte   Ds5
 .byte   EOT
 .byte   Fs5
 .byte   W12
@  #03 @232   ----------------------------------------
 .byte   TIE ,Gn4 ,v092
 .byte   TIE ,Cn5 ,v092
 .byte   TIE ,En5 ,v092
 .byte   W96
@  #03 @233   ----------------------------------------
 .byte   W96
@  #03 @234   ----------------------------------------
 .byte   EOT
 .byte   Gn4
 .byte   EOT
 .byte   Cn5
 .byte   EOT
 .byte   En5
 .byte   TIE ,An4 ,v092
 .byte   TIE ,Dn5 ,v092
 .byte   TIE ,Fs5 ,v092
 .byte   W96
@  #03 @235   ----------------------------------------
 .byte   W96
@  #03 @236   ----------------------------------------
 .byte   EOT
 .byte   An4
 .byte   EOT
 .byte   Dn5
 .byte   EOT
 .byte   Fs5
 .byte   TIE ,Bn4 ,v092
 .byte   TIE ,Ds5 ,v092
 .byte   TIE ,Fs5 ,v092
 .byte   W96
@  #03 @237   ----------------------------------------
 .byte   W96
@  #03 @238   ----------------------------------------
 .byte   W84
 .byte   EOT
 .byte   Bn4
 .byte   EOT
 .byte   Ds5
 .byte   EOT
 .byte   Fs5
 .byte   W12
@  #03 @239   ----------------------------------------
 .byte   N40 ,Gn4 ,v092
 .byte   N40 ,Cn5 ,v092
 .byte   N40 ,En5 ,v092
 .byte   W48
 .byte   N40 ,Fs4 ,v092
 .byte   N40 ,An4 ,v092
 .byte   N40 ,Dn5 ,v092
 .byte   W48
@  #03 @240   ----------------------------------------
 .byte   TIE ,Gn4 ,v092
 .byte   TIE ,Bn4 ,v092
 .byte   TIE ,En5 ,v092
 .byte   W96
@  #03 @241   ----------------------------------------
 .byte   W84
 .byte   EOT
 .byte   Bn4
 .byte   W12
@  #03 @242   ----------------------------------------
 .byte   TIE ,As4 ,v092
 .byte   TIE ,Cs5 ,v092
 .byte   W96
@  #03 @243   ----------------------------------------
 .byte   W84
 .byte   EOT
 .byte   As4
 .byte   EOT
 .byte   Cs5
 .byte   W12
@  #03 @244   ----------------------------------------
 .byte   TIE ,Bn4 ,v092
 .byte   W96
@  #03 @245   ----------------------------------------
 .byte   W84
 .byte   EOT
 .byte   Bn4
 .byte   W12
@  #03 @246   ----------------------------------------
 .byte   TIE ,As4 ,v092
 .byte   TIE ,Cs5 ,v092
 .byte   W96
@  #03 @247   ----------------------------------------
 .byte   W96
@  #03 @248   ----------------------------------------
 .byte   EOT
 .byte   Gn4
 .byte   EOT
 .byte   As4
 .byte   EOT
 .byte   Cs5
 .byte   EOT
 .byte   En5
 .byte   TIE ,Gn4 ,v092
 .byte   TIE ,Bn4 ,v092
 .byte   TIE ,En5 ,v092
 .byte   W96
@  #03 @249   ----------------------------------------
 .byte   W84
 .byte   EOT
 .byte   Bn4
 .byte   W12
@  #03 @250   ----------------------------------------
 .byte   TIE ,As4 ,v092
 .byte   TIE ,Cs5 ,v092
 .byte   W96
@  #03 @251   ----------------------------------------
 .byte   W84
 .byte   EOT
 .byte   As4
 .byte   EOT
 .byte   Cs5
 .byte   W12
@  #03 @252   ----------------------------------------
 .byte   TIE ,Bn4 ,v092
 .byte   W96
@  #03 @253   ----------------------------------------
 .byte   W84
 .byte   EOT
 .byte   Bn4
 .byte   W12
@  #03 @254   ----------------------------------------
 .byte   TIE ,As4 ,v092
 .byte   TIE ,Cs5 ,v092
 .byte   W96
@  #03 @255   ----------------------------------------
 .byte   W36
 .byte   EOT
 .byte   Gn4
 .byte   EOT
 .byte   As4
 .byte   EOT
 .byte   Cs5
 .byte   EOT
 .byte   En5
 .byte   W12
 .byte   N23 ,Gn4 ,v092
 .byte   N23 ,As4 ,v092
 .byte   N23 ,Cs5 ,v092
 .byte   N23 ,En5 ,v092
 .byte   W24
 .byte   N05 ,Gn4 ,v092
 .byte   W06
 .byte   N05 ,As4 ,v092
 .byte   W06
 .byte   N05 ,Cs5 ,v092
 .byte   W06
 .byte   N05 ,En5 ,v092
 .byte   W06
@  #03 @256   ----------------------------------------
 .byte   N08 ,Gn4 ,v092
 .byte   N08 ,Bn4 ,v092
 .byte   N08 ,En5 ,v092
 .byte   W24
 .byte   N08 ,Gn4 ,v092
 .byte   N08 ,Bn4 ,v092
 .byte   N08 ,En5 ,v092
 .byte   W24
 .byte   N08 ,Gn4 ,v092
 .byte   N08 ,Bn4 ,v092
 .byte   N08 ,En5 ,v092
 .byte   W24
 .byte   N08 ,Gn4 ,v092
 .byte   N08 ,Bn4 ,v092
 .byte   N08 ,En5 ,v092
 .byte   W24
@  #03 @257   ----------------------------------------
 .byte   N08 ,Gn4 ,v092
 .byte   N08 ,Bn4 ,v092
 .byte   N08 ,En5 ,v092
 .byte   W24
 .byte   N08 ,Gn4 ,v092
 .byte   N08 ,Bn4 ,v092
 .byte   N08 ,En5 ,v092
 .byte   W24
 .byte   N08 ,Gn4 ,v092
 .byte   N08 ,Bn4 ,v092
 .byte   N08 ,En5 ,v092
 .byte   W24
 .byte   N08 ,Gn4 ,v092
 .byte   N08 ,Bn4 ,v092
 .byte   N08 ,En5 ,v092
 .byte   W24
@  #03 @258   ----------------------------------------
 .byte   N08 ,Gn4 ,v092
 .byte   N08 ,As4 ,v092
 .byte   N08 ,Cs5 ,v092
 .byte   N08 ,En5 ,v092
 .byte   W24
 .byte   N08 ,Gn4 ,v092
 .byte   N08 ,As4 ,v092
 .byte   N08 ,Cs5 ,v092
 .byte   N08 ,En5 ,v092
 .byte   W24
 .byte   N08 ,Gn4 ,v092
 .byte   N08 ,As4 ,v092
 .byte   N08 ,Cs5 ,v092
 .byte   N08 ,En5 ,v092
 .byte   W24
 .byte   N08 ,Gn4 ,v092
 .byte   N08 ,As4 ,v092
 .byte   N08 ,Cs5 ,v092
 .byte   N08 ,En5 ,v092
 .byte   W24
@  #03 @259   ----------------------------------------
 .byte   N08 ,Gn4 ,v092
 .byte   N08 ,As4 ,v092
 .byte   N08 ,Cs5 ,v092
 .byte   N08 ,En5 ,v092
 .byte   W24
 .byte   N08 ,Gn4 ,v092
 .byte   N08 ,As4 ,v092
 .byte   N08 ,Cs5 ,v092
 .byte   N08 ,En5 ,v092
 .byte   W24
 .byte   N08 ,Gn4 ,v092
 .byte   N08 ,As4 ,v092
 .byte   N08 ,Cs5 ,v092
 .byte   N08 ,En5 ,v092
 .byte   W24
 .byte   N08 ,Gn4 ,v092
 .byte   N08 ,As4 ,v092
 .byte   N08 ,Cs5 ,v092
 .byte   N08 ,En5 ,v092
 .byte   W24
@  #03 @260   ----------------------------------------
 .byte   N08 ,Gn4 ,v092
 .byte   N08 ,Bn4 ,v092
 .byte   N08 ,En5 ,v092
 .byte   W24
 .byte   N08 ,Gn4 ,v092
 .byte   N08 ,Bn4 ,v092
 .byte   N08 ,En5 ,v092
 .byte   W24
 .byte   N08 ,Gn4 ,v092
 .byte   N08 ,Bn4 ,v092
 .byte   N08 ,En5 ,v092
 .byte   W24
 .byte   N08 ,Gn4 ,v092
 .byte   N08 ,Bn4 ,v092
 .byte   N08 ,En5 ,v092
 .byte   W24
@  #03 @261   ----------------------------------------
 .byte   N08 ,Gn4 ,v092
 .byte   N08 ,Bn4 ,v092
 .byte   N08 ,En5 ,v092
 .byte   W24
 .byte   N08 ,Gn4 ,v092
 .byte   N08 ,Bn4 ,v092
 .byte   N08 ,En5 ,v092
 .byte   W24
 .byte   N08 ,Gn4 ,v092
 .byte   N08 ,Bn4 ,v092
 .byte   N08 ,En5 ,v092
 .byte   W24
 .byte   N08 ,Gn4 ,v092
 .byte   N08 ,Bn4 ,v092
 .byte   N08 ,En5 ,v092
 .byte   W24
@  #03 @262   ----------------------------------------
 .byte   N08 ,Gn4 ,v092
 .byte   N08 ,As4 ,v092
 .byte   N08 ,Cs5 ,v092
 .byte   N08 ,En5 ,v092
 .byte   W24
 .byte   N08 ,Gn4 ,v092
 .byte   N08 ,As4 ,v092
 .byte   N08 ,Cs5 ,v092
 .byte   N08 ,En5 ,v092
 .byte   W24
 .byte   N08 ,Gn4 ,v092
 .byte   N08 ,As4 ,v092
 .byte   N08 ,Cs5 ,v092
 .byte   N08 ,En5 ,v092
 .byte   W24
 .byte   N08 ,Gn4 ,v092
 .byte   N08 ,As4 ,v092
 .byte   N08 ,Cs5 ,v092
 .byte   N08 ,En5 ,v092
 .byte   W24
@  #03 @263   ----------------------------------------
 .byte   N08 ,Gn4 ,v092
 .byte   N08 ,As4 ,v092
 .byte   N08 ,Cs5 ,v092
 .byte   N08 ,En5 ,v092
 .byte   W24
 .byte   N08 ,Gn4 ,v092
 .byte   N08 ,As4 ,v092
 .byte   N08 ,Cs5 ,v092
 .byte   N08 ,En5 ,v092
 .byte   W24
 .byte   N08 ,Gn4 ,v092
 .byte   N08 ,As4 ,v092
 .byte   N08 ,Cs5 ,v092
 .byte   N08 ,En5 ,v092
 .byte   W24
 .byte   N08 ,Gn4 ,v092
 .byte   N08 ,As4 ,v092
 .byte   N08 ,Cs5 ,v092
 .byte   N08 ,En5 ,v092
 .byte   W24
@  #03 @264   ----------------------------------------
 .byte   N08 ,Gn4 ,v092
 .byte   N08 ,Bn4 ,v092
 .byte   N08 ,En5 ,v092
 .byte   W24
 .byte   N08 ,Gn4 ,v092
 .byte   N08 ,Bn4 ,v092
 .byte   N08 ,En5 ,v092
 .byte   W24
 .byte   N08 ,Gn4 ,v092
 .byte   N08 ,Bn4 ,v092
 .byte   N08 ,En5 ,v092
 .byte   W24
 .byte   N08 ,Gn4 ,v092
 .byte   N08 ,Bn4 ,v092
 .byte   N08 ,En5 ,v092
 .byte   W24
@  #03 @265   ----------------------------------------
 .byte   N08 ,Gn4 ,v092
 .byte   N08 ,Bn4 ,v092
 .byte   N08 ,En5 ,v092
 .byte   W24
 .byte   N08 ,Gn4 ,v092
 .byte   N08 ,Bn4 ,v092
 .byte   N08 ,En5 ,v092
 .byte   W24
 .byte   N08 ,Gn4 ,v092
 .byte   N08 ,Bn4 ,v092
 .byte   N08 ,En5 ,v092
 .byte   W24
 .byte   N08 ,Gn4 ,v092
 .byte   N08 ,Bn4 ,v092
 .byte   N08 ,En5 ,v092
 .byte   W24
@  #03 @266   ----------------------------------------
 .byte   N08 ,Gn4 ,v092
 .byte   N08 ,As4 ,v092
 .byte   N08 ,Cs5 ,v092
 .byte   N08 ,En5 ,v092
 .byte   W24
 .byte   N08 ,Gn4 ,v092
 .byte   N08 ,As4 ,v092
 .byte   N08 ,Cs5 ,v092
 .byte   N08 ,En5 ,v092
 .byte   W24
 .byte   N08 ,Gn4 ,v092
 .byte   N08 ,As4 ,v092
 .byte   N08 ,Cs5 ,v092
 .byte   N08 ,En5 ,v092
 .byte   W24
 .byte   N08 ,Gn4 ,v092
 .byte   N08 ,As4 ,v092
 .byte   N08 ,Cs5 ,v092
 .byte   N08 ,En5 ,v092
 .byte   W24
@  #03 @267   ----------------------------------------
 .byte   N08 ,Gn4 ,v092
 .byte   N08 ,As4 ,v092
 .byte   N08 ,Cs5 ,v092
 .byte   N08 ,En5 ,v092
 .byte   W24
 .byte   N08 ,Gn4 ,v092
 .byte   N08 ,As4 ,v092
 .byte   N08 ,Cs5 ,v092
 .byte   N08 ,En5 ,v092
 .byte   W24
 .byte   N08 ,Gn4 ,v092
 .byte   N08 ,As4 ,v092
 .byte   N08 ,Cs5 ,v092
 .byte   N08 ,En5 ,v092
 .byte   W24
 .byte   N08 ,Gn4 ,v092
 .byte   N08 ,As4 ,v092
 .byte   N08 ,Cs5 ,v092
 .byte   N08 ,En5 ,v092
 .byte   W24
@  #03 @268   ----------------------------------------
 .byte   N08 ,Gn4 ,v092
 .byte   N08 ,Bn4 ,v092
 .byte   N08 ,En5 ,v092
 .byte   W24
 .byte   N08 ,Gn4 ,v092
 .byte   N08 ,Bn4 ,v092
 .byte   N08 ,En5 ,v092
 .byte   W24
 .byte   N08 ,Gn4 ,v092
 .byte   N08 ,Bn4 ,v092
 .byte   N08 ,En5 ,v092
 .byte   W24
 .byte   N08 ,Gn4 ,v092
 .byte   N08 ,Bn4 ,v092
 .byte   N08 ,En5 ,v092
 .byte   W24
@  #03 @269   ----------------------------------------
 .byte   N08 ,Gn4 ,v092
 .byte   N08 ,Bn4 ,v092
 .byte   N08 ,En5 ,v092
 .byte   W24
 .byte   N08 ,Gn4 ,v092
 .byte   N08 ,Bn4 ,v092
 .byte   N08 ,En5 ,v092
 .byte   W24
 .byte   N08 ,Gn4 ,v092
 .byte   N08 ,Bn4 ,v092
 .byte   N08 ,En5 ,v092
 .byte   W24
 .byte   N08 ,Gn4 ,v092
 .byte   N08 ,Bn4 ,v092
 .byte   N08 ,En5 ,v092
 .byte   W24
@  #03 @270   ----------------------------------------
 .byte   N08 ,Gn4 ,v092
 .byte   N08 ,As4 ,v092
 .byte   N08 ,Cs5 ,v092
 .byte   N08 ,En5 ,v092
 .byte   W24
 .byte   N08 ,Gn4 ,v092
 .byte   N08 ,As4 ,v092
 .byte   N08 ,Cs5 ,v092
 .byte   N08 ,En5 ,v092
 .byte   W24
 .byte   N08 ,Gn4 ,v092
 .byte   N08 ,As4 ,v092
 .byte   N08 ,Cs5 ,v092
 .byte   N08 ,En5 ,v092
 .byte   W24
 .byte   N08 ,Gn4 ,v092
 .byte   N08 ,As4 ,v092
 .byte   N08 ,Cs5 ,v092
 .byte   N08 ,En5 ,v092
 .byte   W24
@  #03 @271   ----------------------------------------
 .byte   N08 ,Gn4 ,v092
 .byte   N08 ,As4 ,v092
 .byte   N08 ,Cs5 ,v092
 .byte   N08 ,En5 ,v092
 .byte   W24
 .byte   N08 ,Gn4 ,v092
 .byte   N08 ,As4 ,v092
 .byte   N08 ,Cs5 ,v092
 .byte   N08 ,En5 ,v092
 .byte   W24
 .byte   N08 ,Gn4 ,v092
 .byte   N08 ,As4 ,v092
 .byte   N08 ,Cs5 ,v092
 .byte   N08 ,En5 ,v092
 .byte   W24
 .byte   N08 ,Gn4 ,v092
 .byte   N08 ,As4 ,v092
 .byte   N08 ,Cs5 ,v092
 .byte   N08 ,En5 ,v092
 .byte   W24
@  #03 @272   ----------------------------------------
 .byte   TIE ,An4 ,v092
 .byte   TIE ,Bn4 ,v092
 .byte   TIE ,Dn5 ,v092
 .byte   TIE ,Gn5 ,v092
 .byte   W96
@  #03 @273   ----------------------------------------
 .byte   W84
 .byte   EOT
 .byte   Bn4
 .byte   EOT
 .byte   Gn5
 .byte   W12
@  #03 @274   ----------------------------------------
 .byte   TIE ,Fs5 ,v092
 .byte   W96
@  #03 @275   ----------------------------------------
 .byte   W84
 .byte   EOT
 .byte   An4
 .byte   EOT
 .byte   Dn5
 .byte   EOT
 .byte   Fs5
 .byte   W96
@  #03 @276   ----------------------------------------
 .byte   W12
 .byte   W96
@  #03 @277   ----------------------------------------
 .byte   W96
@  #03 @278   ----------------------------------------
 .byte   W96
@  #03 @279   ----------------------------------------
 .byte   W96
@  #03 @280   ----------------------------------------
 .byte   W96
@  #03 @281   ----------------------------------------
 .byte   W96
@  #03 @282   ----------------------------------------
 .byte   W96
@  #03 @283   ----------------------------------------
 .byte   W96
@  #03 @284   ----------------------------------------
 .byte   W96
@  #03 @285   ----------------------------------------
 .byte   W96
@  #03 @286   ----------------------------------------
 .byte   W96
@  #03 @287   ----------------------------------------
 .byte   W96
@  #03 @288   ----------------------------------------
 .byte   W96
@  #03 @289   ----------------------------------------
 .byte   W96
@  #03 @290   ----------------------------------------
 .byte   W96
@  #03 @291   ----------------------------------------
 .byte   W96
@  #03 @292   ----------------------------------------
 .byte   W72
 .byte   N06 ,Fs4 ,v092
 .byte   W06
 .byte   N06 ,Fs4 ,v092
 .byte   N06 ,Bn4 ,v092
 .byte   W06
 .byte   N06 ,Fs4 ,v092
 .byte   N06 ,Bn4 ,v092
 .byte   N06 ,Ds5 ,v092
 .byte   W06
 .byte   N06 ,Fs4 ,v092
 .byte   N06 ,Bn4 ,v092
 .byte   N06 ,Ds5 ,v092
 .byte   N06 ,Fs5 ,v092
 .byte   W06
@  #03 @293   ----------------------------------------
 .byte   TIE ,An4 ,v092
 .byte   TIE ,Cs5 ,v092
 .byte   TIE ,En5 ,v092
 .byte   TIE ,Fs5 ,v092
 .byte   W96
@  #03 @294   ----------------------------------------
 .byte   W96
@  #03 @295   ----------------------------------------
 .byte   EOT
 .byte   An4
 .byte   EOT
 .byte   Cs5
 .byte   EOT
 .byte   En5
 .byte   EOT
 .byte   Fs5
 .byte   TIE ,Bn4 ,v092
 .byte   TIE ,Ds5 ,v092
 .byte   TIE ,Fs5 ,v092
 .byte   W96
@  #03 @296   ----------------------------------------
 .byte   W96
@  #03 @297   ----------------------------------------
 .byte   EOT
 .byte   Bn4
 .byte   EOT
 .byte   Ds5
 .byte   EOT
 .byte   Fs5
 .byte   TIE ,Bn4 ,v092
 .byte   TIE ,En5 ,v092
 .byte   TIE ,Gn5 ,v092
 .byte   W96
@  #03 @298   ----------------------------------------
 .byte   W96
@  #03 @299   ----------------------------------------
 .byte   EOT
 .byte   Bn4
 .byte   EOT
 .byte   En5
 .byte   EOT
 .byte   Gn5
 .byte   TIE ,Bn4 ,v092
 .byte   TIE ,Ds5 ,v092
 .byte   TIE ,Fs5 ,v092
 .byte   W96
@  #03 @300   ----------------------------------------
 .byte   W96
@  #03 @301   ----------------------------------------
 .byte   EOT
 .byte   Bn4
 .byte   EOT
 .byte   Ds5
 .byte   EOT
 .byte   Fs5
 .byte   TIE ,An4 ,v092
 .byte   TIE ,Cs5 ,v092
 .byte   TIE ,En5 ,v092
 .byte   TIE ,Fs5 ,v092
 .byte   W96
@  #03 @302   ----------------------------------------
 .byte   W96
@  #03 @303   ----------------------------------------
 .byte   EOT
 .byte   An4
 .byte   EOT
 .byte   Cs5
 .byte   EOT
 .byte   En5
 .byte   EOT
 .byte   Fs5
 .byte   TIE ,Bn4 ,v092
 .byte   TIE ,Ds5 ,v092
 .byte   TIE ,Fs5 ,v092
 .byte   W96
@  #03 @304   ----------------------------------------
 .byte   W96
@  #03 @305   ----------------------------------------
 .byte   EOT
 .byte   Bn4
 .byte   EOT
 .byte   Ds5
 .byte   EOT
 .byte   Fs5
 .byte   TIE ,Bn4 ,v092
 .byte   TIE ,En5 ,v092
 .byte   TIE ,Gn5 ,v092
 .byte   W96
@  #03 @306   ----------------------------------------
 .byte   W96
@  #03 @307   ----------------------------------------
 .byte   EOT
 .byte   Bn4
 .byte   EOT
 .byte   En5
 .byte   EOT
 .byte   Gn5
 .byte   TIE ,Bn4 ,v092
 .byte   TIE ,Ds5 ,v092
 .byte   TIE ,Fs5 ,v092
 .byte   W96
@  #03 @308   ----------------------------------------
 .byte   W96
@  #03 @309   ----------------------------------------
 .byte   EOT
 .byte   Bn4
 .byte   EOT
 .byte   Ds5
 .byte   EOT
 .byte   Fs5
 .byte   TIE ,Gn4 ,v092
 .byte   TIE ,Cn5 ,v092
 .byte   TIE ,En5 ,v092
 .byte   W96
@  #03 @310   ----------------------------------------
 .byte   W96
@  #03 @311   ----------------------------------------
 .byte   EOT
 .byte   Gn4
 .byte   EOT
 .byte   Cn5
 .byte   EOT
 .byte   En5
 .byte   TIE ,An4 ,v092
 .byte   TIE ,Dn5 ,v092
 .byte   TIE ,Fs5 ,v092
 .byte   W96
@  #03 @312   ----------------------------------------
 .byte   W96
@  #03 @313   ----------------------------------------
 .byte   EOT
 .byte   An4
 .byte   EOT
 .byte   Dn5
 .byte   EOT
 .byte   Fs5
 .byte   TIE ,Bn4 ,v092
 .byte   TIE ,En5 ,v092
 .byte   TIE ,Gn5 ,v092
 .byte   W96
@  #03 @314   ----------------------------------------
 .byte   W96
@  #03 @315   ----------------------------------------
 .byte   EOT
 .byte   En5
 .byte   EOT
 .byte   Gn5
 .byte   TIE ,Ds5 ,v092
 .byte   TIE ,Fs5 ,v092
 .byte   W96
@  #03 @316   ----------------------------------------
 .byte   W84
 .byte   EOT
 .byte   Bn4
 .byte   EOT
 .byte   Ds5
 .byte   EOT
 .byte   Fs5
 .byte   W12
@  #03 @317   ----------------------------------------
 .byte   TIE ,Gn4 ,v092
 .byte   TIE ,Cn5 ,v092
 .byte   TIE ,En5 ,v092
 .byte   W96
@  #03 @318   ----------------------------------------
 .byte   W96
@  #03 @319   ----------------------------------------
 .byte   EOT
 .byte   Gn4
 .byte   EOT
 .byte   Cn5
 .byte   EOT
 .byte   En5
 .byte   TIE ,An4 ,v092
 .byte   TIE ,Dn5 ,v092
 .byte   TIE ,Fs5 ,v092
 .byte   W96
@  #03 @320   ----------------------------------------
 .byte   W96
@  #03 @321   ----------------------------------------
 .byte   EOT
 .byte   An4
 .byte   EOT
 .byte   Dn5
 .byte   EOT
 .byte   Fs5
 .byte   TIE ,Bn4 ,v092
 .byte   TIE ,Ds5 ,v092
 .byte   TIE ,Fs5 ,v092
 .byte   W96
@  #03 @322   ----------------------------------------
 .byte   W96
@  #03 @323   ----------------------------------------
 .byte   W84
 .byte   EOT
 .byte   Bn4
 .byte   EOT
 .byte   Ds5
 .byte   EOT
 .byte   Fs5
 .byte   W12
@  #03 @324   ----------------------------------------
 .byte   N40 ,Gn4 ,v092
 .byte   N40 ,Cn5 ,v092
 .byte   N40 ,En5 ,v092
 .byte   W48
 .byte   N40 ,Fs4 ,v092
 .byte   N40 ,An4 ,v092
 .byte   N40 ,Dn5 ,v092
 .byte   W48
@  #03 @325   ----------------------------------------
 .byte   TIE ,Bn4 ,v092
 .byte   TIE ,En5 ,v092
 .byte   TIE ,Gn5 ,v092
 .byte   W96
@  #03 @326   ----------------------------------------
 .byte   W84
 .byte   EOT
 .byte   En5
 .byte   EOT
 .byte   Gn5
 .byte   W12
@  #03 @327   ----------------------------------------
 .byte   TIE ,Ds5 ,v092
 .byte   TIE ,Fs5 ,v092
 .byte   W96
@  #03 @328   ----------------------------------------
 .byte   W84
 .byte   EOT
 .byte   Bn4
 .byte   EOT
 .byte   Ds5
 .byte   EOT
 .byte   Fs5
 .byte   W12
@  #03 @329   ----------------------------------------
 .byte   TIE ,Gn4 ,v092
 .byte   TIE ,Cn5 ,v092
 .byte   TIE ,En5 ,v092
 .byte   W96
@  #03 @330   ----------------------------------------
 .byte   W84
 .byte   EOT
 .byte   Gn4
 .byte   EOT
 .byte   Cn5
 .byte   EOT
 .byte   En5
 .byte   W12
@  #03 @331   ----------------------------------------
 .byte   TIE ,An4 ,v092
 .byte   TIE ,Cn5 ,v092
 .byte   TIE ,Ds5 ,v092
 .byte   TIE ,Fs5 ,v092
 .byte   W96
@  #03 @332   ----------------------------------------
 .byte   W84
 .byte   EOT
 .byte   An4
 .byte   EOT
 .byte   Cn5
 .byte   EOT
 .byte   Ds5
 .byte   EOT
 .byte   Fs5
 .byte   W12
@  #03 @333   ----------------------------------------
 .byte   TIE ,Bn4 ,v092
 .byte   TIE ,En5 ,v092
 .byte   TIE ,Gn5 ,v092
 .byte   W96
@  #03 @334   ----------------------------------------
 .byte   W84
 .byte   EOT
 .byte   En5
 .byte   EOT
 .byte   Gn5
 .byte   W12
@  #03 @335   ----------------------------------------
 .byte   TIE ,Ds5 ,v092
 .byte   TIE ,Fs5 ,v092
 .byte   W96
@  #03 @336   ----------------------------------------
 .byte   W84
 .byte   EOT
 .byte   Bn4
 .byte   EOT
 .byte   Ds5
 .byte   EOT
 .byte   Fs5
 .byte   W12
@  #03 @337   ----------------------------------------
 .byte   TIE ,Gn4 ,v092
 .byte   TIE ,Cn5 ,v092
 .byte   TIE ,En5 ,v092
 .byte   W96
@  #03 @338   ----------------------------------------
 .byte   W84
 .byte   EOT
 .byte   Gn4
 .byte   EOT
 .byte   Cn5
 .byte   EOT
 .byte   En5
 .byte   W12
@  #03 @339   ----------------------------------------
 .byte   N40 ,An4 ,v092
 .byte   N40 ,Cn5 ,v092
 .byte   N40 ,Ds5 ,v092
 .byte   N40 ,Fs5 ,v092
 .byte   W48
 .byte   N40 ,Bn4 ,v092
 .byte   N40 ,Dn5 ,v092
 .byte   N40 ,En5 ,v092
 .byte   N40 ,Gn5 ,v092
 .byte   W48
@  #03 @340   ----------------------------------------
 .byte   N40 ,Cn5 ,v092
 .byte   N40 ,En5 ,v092
 .byte   N40 ,Fs5 ,v092
 .byte   N40 ,An5 ,v092
 .byte   W48
 .byte   N40 ,Ds5 ,v092
 .byte   N40 ,Fs5 ,v092
 .byte   N40 ,Gn5 ,v092
 .byte   N40 ,Bn5 ,v092
 .byte   W96
@  #03 @341   ----------------------------------------
 .byte   W24
 .byte   N05 ,En4 ,v092
 .byte   W06
 .byte   N05 ,Gn4 ,v092
 .byte   W06
 .byte   N05 ,Cn5 ,v092
 .byte   W06
 .byte   N05 ,En5 ,v092
 .byte   W06
 .byte   TIE ,Gn4 ,v092
 .byte   TIE ,Cn5 ,v092
 .byte   TIE ,En5 ,v092
 .byte   W96
@  #03 @342   ----------------------------------------
 .byte   W96
@  #03 @343   ----------------------------------------
 .byte   EOT
 .byte   Gn4
 .byte   EOT
 .byte   Cn5
 .byte   EOT
 .byte   En5
 .byte   TIE ,An4 ,v092
 .byte   TIE ,Dn5 ,v092
 .byte   TIE ,Fs5 ,v092
 .byte   W96
@  #03 @344   ----------------------------------------
 .byte   W96
@  #03 @345   ----------------------------------------
 .byte   EOT
 .byte   An4
 .byte   EOT
 .byte   Dn5
 .byte   EOT
 .byte   Fs5
 .byte   TIE ,Bn4 ,v092
 .byte   TIE ,En5 ,v092
 .byte   TIE ,Gn5 ,v092
 .byte   W96
@  #03 @346   ----------------------------------------
 .byte   W96
@  #03 @347   ----------------------------------------
 .byte   EOT
 .byte   En5
 .byte   EOT
 .byte   Gn5
 .byte   TIE ,Ds5 ,v092
 .byte   TIE ,Fs5 ,v092
 .byte   W96
@  #03 @348   ----------------------------------------
 .byte   W84
 .byte   EOT
 .byte   Bn4
 .byte   EOT
 .byte   Ds5
 .byte   EOT
 .byte   Fs5
 .byte   W12
@  #03 @349   ----------------------------------------
 .byte   TIE ,Gn4 ,v092
 .byte   TIE ,Cn5 ,v092
 .byte   TIE ,En5 ,v092
 .byte   W96
@  #03 @350   ----------------------------------------
 .byte   W96
@  #03 @351   ----------------------------------------
 .byte   EOT
 .byte   Gn4
 .byte   EOT
 .byte   Cn5
 .byte   EOT
 .byte   En5
 .byte   TIE ,An4 ,v092
 .byte   TIE ,Dn5 ,v092
 .byte   TIE ,Fs5 ,v092
 .byte   W96
@  #03 @352   ----------------------------------------
 .byte   W96
@  #03 @353   ----------------------------------------
 .byte   EOT
 .byte   An4
 .byte   EOT
 .byte   Dn5
 .byte   EOT
 .byte   Fs5
 .byte   TIE ,Bn4 ,v092
 .byte   TIE ,Ds5 ,v092
 .byte   TIE ,Fs5 ,v092
 .byte   W96
@  #03 @354   ----------------------------------------
 .byte   W96
@  #03 @355   ----------------------------------------
 .byte   W84
 .byte   EOT
 .byte   Bn4
 .byte   EOT
 .byte   Ds5
 .byte   EOT
 .byte   Fs5
 .byte   W12
@  #03 @356   ----------------------------------------
 .byte   N40 ,Gn4 ,v092
 .byte   N40 ,Cn5 ,v092
 .byte   N40 ,En5 ,v092
 .byte   W48
 .byte   N40 ,Fs4 ,v092
 .byte   N40 ,An4 ,v092
 .byte   N40 ,Dn5 ,v092
 .byte   W48
@  #03 @357   ----------------------------------------
 .byte   TIE ,Gn4 ,v092
 .byte   TIE ,Cn5 ,v092
 .byte   N96 ,En5 ,v092
 .byte   N96 ,Cn6 ,v092
 .byte   W96
@  #03 @358   ----------------------------------------
 .byte   N32 ,Fs5 ,v092
 .byte   N96 ,Bn5 ,v092
 .byte   W32
 .byte   N32 ,Gn5 ,v092
 .byte   W32
 .byte   N32 ,Fs5 ,v092
 .byte   W20
 .byte   EOT
 .byte   Gn4
 .byte   EOT
 .byte   Cn5
 .byte   W12
@  #03 @359   ----------------------------------------
 .byte   TIE ,Gn4 ,v092
 .byte   TIE ,Cn5 ,v092
 .byte   N96 ,En5 ,v092
 .byte   N96 ,An5 ,v092
 .byte   W96
@  #03 @360   ----------------------------------------
 .byte   N32 ,Fs5 ,v092
 .byte   N96 ,Gn5 ,v092
 .byte   W64
 .byte   N32 ,Fs5 ,v092
 .byte   W20
 .byte   EOT
 .byte   Gn4
 .byte   EOT
 .byte   Cn5
 .byte   W12
@  #03 @361   ----------------------------------------
 .byte   TIE ,Gn4 ,v092
 .byte   TIE ,Cn5 ,v092
 .byte   N96 ,En5 ,v092
 .byte   N96 ,Fs5 ,v092
 .byte   W96
@  #03 @362   ----------------------------------------
 .byte   N32 ,Fs5 ,v092
 .byte   N96 ,Bn5 ,v092
 .byte   W32
 .byte   N32 ,Gn5 ,v092
 .byte   W32
 .byte   N32 ,Fs5 ,v092
 .byte   W20
 .byte   EOT
 .byte   Gn4
 .byte   EOT
 .byte   Cn5
 .byte   W12
@  #03 @363   ----------------------------------------
 .byte   TIE ,Bn4 ,v092
 .byte   N96 ,En5 ,v092
 .byte   N96 ,An5 ,v092
 .byte   W96
@  #03 @364   ----------------------------------------
 .byte   N96 ,Ds5 ,v092
 .byte   N96 ,Bn5 ,v092
 .byte   W84
 .byte   EOT
 .byte   Bn4
 .byte   W12
@  #03 @365   ----------------------------------------
 .byte   TIE ,Cn5 ,v092
 .byte   TIE ,En5 ,v092
 .byte   N32 ,Cn6 ,v092
 .byte   W32
 .byte   N32 ,Bn5 ,v092
 .byte   W32
 .byte   N32 ,An5 ,v092
 .byte   W32
@  #03 @366   ----------------------------------------
 .byte   N32 ,Gn5 ,v092
 .byte   W32
 .byte   N32 ,Fs5 ,v092
 .byte   W32
 .byte   N32 ,Gn5 ,v092
 .byte   W32
@  #03 @367   ----------------------------------------
 .byte   EOT
 .byte   Cn5
 .byte   EOT
 .byte   En5
 .byte   N96 ,Cn5 ,v092
 .byte   N96 ,En5 ,v092
 .byte   N96 ,An5 ,v092
 .byte   W96
@  #03 @368   ----------------------------------------
 .byte   N96 ,Gn4 ,v092
 .byte   N96 ,Cn5 ,v092
 .byte   N96 ,En5 ,v092
 .byte   W96
@  #03 @369   ----------------------------------------
 .byte   TIE ,Gn4 ,v092
 .byte   TIE ,Cn5 ,v092
 .byte   N96 ,Dn5 ,v092
 .byte   W96
@  #03 @370   ----------------------------------------
 .byte   N32 ,En5 ,v092
 .byte   W32
 .byte   N32 ,Dn5 ,v092
 .byte   W32
 .byte   N32 ,Fs5 ,v092
 .byte   W20
 .byte   EOT
 .byte   Gn4
 .byte   EOT
 .byte   Cn5
 .byte   W12
@  #03 @371   ----------------------------------------
 .byte   TIE ,An4 ,v092
 .byte   TIE ,Dn5 ,v092
 .byte   N32 ,Fs5 ,v092
 .byte   W32
 .byte   N32 ,En5 ,v092
 .byte   W32
 .byte   N32 ,Fs5 ,v092
 .byte   W32
@  #03 @372   ----------------------------------------
 .byte   N32 ,An5 ,v092
 .byte   W32
 .byte   N32 ,Gn5 ,v092
 .byte   W32
 .byte   N32 ,Fs5 ,v092
 .byte   W20
 .byte   EOT
 .byte   An4
 .byte   EOT
 .byte   Dn5
 .byte   W12
@  #03 @373   ----------------------------------------
 .byte   N17 ,An4 ,v092
 .byte   N17 ,Cs5 ,v092
 .byte   N17 ,En5 ,v092
 .byte   N17 ,Fs5 ,v092
 .byte   W24
 .byte   N17 ,An4 ,v092
 .byte   N17 ,Cs5 ,v092
 .byte   N17 ,En5 ,v092
 .byte   N17 ,Fs5 ,v092
 .byte   W24
 .byte   N17 ,An4 ,v092
 .byte   N17 ,Cs5 ,v092
 .byte   N17 ,En5 ,v092
 .byte   N17 ,Fs5 ,v092
 .byte   W24
 .byte   N17 ,An4 ,v092
 .byte   N17 ,Cs5 ,v092
 .byte   N17 ,En5 ,v092
 .byte   N17 ,Fs5 ,v092
 .byte   W24
@  #03 @374   ----------------------------------------
 .byte   N17 ,An4 ,v092
 .byte   N17 ,Cs5 ,v092
 .byte   N17 ,En5 ,v092
 .byte   N17 ,Fs5 ,v092
 .byte   W24
 .byte   N17 ,An4 ,v092
 .byte   N17 ,Cs5 ,v092
 .byte   N17 ,En5 ,v092
 .byte   N17 ,Fs5 ,v092
 .byte   W24
 .byte   N17 ,An4 ,v092
 .byte   N17 ,Cs5 ,v092
 .byte   N17 ,En5 ,v092
 .byte   N17 ,Fs5 ,v092
 .byte   W24
 .byte   N17 ,An4 ,v092
 .byte   N17 ,Cs5 ,v092
 .byte   N17 ,En5 ,v092
 .byte   N17 ,Fs5 ,v092
 .byte   W24
@  #03 @375   ----------------------------------------
 .byte   N17 ,Bn4 ,v092
 .byte   N17 ,Ds5 ,v092
 .byte   N17 ,Fs5 ,v092
 .byte   W24
 .byte   N17 ,Bn4 ,v092
 .byte   N17 ,Ds5 ,v092
 .byte   N17 ,Fs5 ,v092
 .byte   W24
 .byte   N17 ,Bn4 ,v092
 .byte   N17 ,Ds5 ,v092
 .byte   N17 ,Fs5 ,v092
 .byte   W24
 .byte   N17 ,Bn4 ,v092
 .byte   N17 ,Ds5 ,v092
 .byte   N17 ,Fs5 ,v092
 .byte   W24
@  #03 @376   ----------------------------------------
 .byte   N17 ,Bn4 ,v092
 .byte   N17 ,Ds5 ,v092
 .byte   N17 ,Fs5 ,v092
 .byte   W24
 .byte   N17 ,Bn4 ,v092
 .byte   N17 ,Ds5 ,v092
 .byte   N17 ,Fs5 ,v092
 .byte   W24
 .byte   N17 ,Bn4 ,v092
 .byte   N17 ,Ds5 ,v092
 .byte   N17 ,Fs5 ,v092
 .byte   W24
 .byte   N17 ,Bn4 ,v092
 .byte   N17 ,Ds5 ,v092
 .byte   N17 ,Fs5 ,v092
 .byte   W24
@  #03 @377   ----------------------------------------
 .byte   N17 ,An4 ,v092
 .byte   N17 ,Dn5 ,v092
 .byte   N17 ,Fs5 ,v092
 .byte   W24
 .byte   N17 ,An4 ,v092
 .byte   N17 ,Dn5 ,v092
 .byte   N17 ,Fs5 ,v092
 .byte   W24
 .byte   N17 ,An4 ,v092
 .byte   N17 ,Dn5 ,v092
 .byte   N17 ,Fs5 ,v092
 .byte   W24
 .byte   N17 ,An4 ,v092
 .byte   N17 ,Dn5 ,v092
 .byte   N17 ,Fs5 ,v092
 .byte   W24
@  #03 @378   ----------------------------------------
 .byte   N17 ,An4 ,v092
 .byte   N17 ,Dn5 ,v092
 .byte   N17 ,Fs5 ,v092
 .byte   W24
 .byte   N17 ,An4 ,v092
 .byte   N17 ,Dn5 ,v092
 .byte   N17 ,Fs5 ,v092
 .byte   W24
 .byte   N17 ,An4 ,v092
 .byte   N17 ,Dn5 ,v092
 .byte   N17 ,Fs5 ,v092
 .byte   W24
 .byte   N17 ,An4 ,v092
 .byte   N17 ,Dn5 ,v092
 .byte   N17 ,Fs5 ,v092
 .byte   W24
@  #03 @379   ----------------------------------------
 .byte   N17 ,An4 ,v092
 .byte   N17 ,Cs5 ,v092
 .byte   N17 ,Fs5 ,v092
 .byte   W24
 .byte   N17 ,An4 ,v092
 .byte   N17 ,Cs5 ,v092
 .byte   N17 ,Fs5 ,v092
 .byte   W24
 .byte   N17 ,An4 ,v092
 .byte   N17 ,Cs5 ,v092
 .byte   N17 ,Fs5 ,v092
 .byte   W24
 .byte   N17 ,An4 ,v092
 .byte   N17 ,Cs5 ,v092
 .byte   N17 ,Fs5 ,v092
 .byte   W24
@  #03 @380   ----------------------------------------
 .byte   N17 ,An4 ,v092
 .byte   N17 ,Cs5 ,v092
 .byte   N17 ,Fs5 ,v092
 .byte   W24
 .byte   N17 ,An4 ,v092
 .byte   N17 ,Cs5 ,v092
 .byte   N17 ,Fs5 ,v092
 .byte   W24
 .byte   N17 ,An4 ,v092
 .byte   N17 ,Cs5 ,v092
 .byte   N17 ,Fs5 ,v092
 .byte   W24
 .byte   N17 ,An4 ,v092
 .byte   N17 ,Cs5 ,v092
 .byte   N17 ,Fs5 ,v092
 .byte   W24
@  #03 @381   ----------------------------------------
 .byte   N17 ,An4 ,v092
 .byte   N17 ,Cs5 ,v092
 .byte   N17 ,En5 ,v092
 .byte   N17 ,Fs5 ,v092
 .byte   W24
 .byte   N17 ,An4 ,v092
 .byte   N17 ,Cs5 ,v092
 .byte   N17 ,En5 ,v092
 .byte   N17 ,Fs5 ,v092
 .byte   W24
 .byte   N17 ,An4 ,v092
 .byte   N17 ,Cs5 ,v092
 .byte   N17 ,En5 ,v092
 .byte   N17 ,Fs5 ,v092
 .byte   W24
 .byte   N17 ,An4 ,v092
 .byte   N17 ,Cs5 ,v092
 .byte   N17 ,En5 ,v092
 .byte   N17 ,Fs5 ,v092
 .byte   W24
@  #03 @382   ----------------------------------------
 .byte   N17 ,An4 ,v092
 .byte   N17 ,Cs5 ,v092
 .byte   N17 ,En5 ,v092
 .byte   N17 ,Fs5 ,v092
 .byte   W24
 .byte   N17 ,An4 ,v092
 .byte   N17 ,Cs5 ,v092
 .byte   N17 ,En5 ,v092
 .byte   N17 ,Fs5 ,v092
 .byte   W24
 .byte   N17 ,An4 ,v092
 .byte   N17 ,Cs5 ,v092
 .byte   N17 ,En5 ,v092
 .byte   N17 ,Fs5 ,v092
 .byte   W24
 .byte   N17 ,An4 ,v092
 .byte   N17 ,Cs5 ,v092
 .byte   N17 ,En5 ,v092
 .byte   N17 ,Fs5 ,v092
 .byte   W24
@  #03 @383   ----------------------------------------
 .byte   N17 ,Bn4 ,v092
 .byte   N17 ,Ds5 ,v092
 .byte   N17 ,Fs5 ,v092
 .byte   W24
 .byte   N17 ,Bn4 ,v092
 .byte   N17 ,Ds5 ,v092
 .byte   N17 ,Fs5 ,v092
 .byte   W24
 .byte   N17 ,Bn4 ,v092
 .byte   N17 ,Ds5 ,v092
 .byte   N17 ,Fs5 ,v092
 .byte   W24
 .byte   N17 ,Bn4 ,v092
 .byte   N17 ,Ds5 ,v092
 .byte   N17 ,Fs5 ,v092
 .byte   W24
@  #03 @384   ----------------------------------------
 .byte   N17 ,Bn4 ,v092
 .byte   N17 ,Ds5 ,v092
 .byte   N17 ,Fs5 ,v092
 .byte   W24
 .byte   N17 ,Bn4 ,v092
 .byte   N17 ,Ds5 ,v092
 .byte   N17 ,Fs5 ,v092
 .byte   W24
 .byte   N17 ,Bn4 ,v092
 .byte   N17 ,Ds5 ,v092
 .byte   N17 ,Fs5 ,v092
 .byte   W24
 .byte   N17 ,Bn4 ,v092
 .byte   N17 ,Ds5 ,v092
 .byte   N17 ,Fs5 ,v092
 .byte   W24
@  #03 @385   ----------------------------------------
 .byte   N17 ,An4 ,v092
 .byte   N17 ,Dn5 ,v092
 .byte   N17 ,Fs5 ,v092
 .byte   W24
 .byte   N17 ,An4 ,v092
 .byte   N17 ,Dn5 ,v092
 .byte   N17 ,Fs5 ,v092
 .byte   W24
 .byte   N17 ,An4 ,v092
 .byte   N17 ,Dn5 ,v092
 .byte   N17 ,Fs5 ,v092
 .byte   W24
 .byte   N17 ,An4 ,v092
 .byte   N17 ,Dn5 ,v092
 .byte   N17 ,Fs5 ,v092
 .byte   W24
@  #03 @386   ----------------------------------------
 .byte   N17 ,An4 ,v092
 .byte   N17 ,Dn5 ,v092
 .byte   N17 ,Fs5 ,v092
 .byte   W24
 .byte   N17 ,An4 ,v092
 .byte   N17 ,Dn5 ,v092
 .byte   N17 ,Fs5 ,v092
 .byte   W24
 .byte   N17 ,An4 ,v092
 .byte   N17 ,Dn5 ,v092
 .byte   N17 ,Fs5 ,v092
 .byte   W24
 .byte   N17 ,An4 ,v092
 .byte   N17 ,Dn5 ,v092
 .byte   N17 ,Fs5 ,v092
 .byte   W24
@  #03 @387   ----------------------------------------
 .byte   N17 ,An4 ,v092
 .byte   N17 ,Cs5 ,v092
 .byte   N17 ,Fs5 ,v092
 .byte   W24
 .byte   N17 ,An4 ,v092
 .byte   N17 ,Cs5 ,v092
 .byte   N17 ,Fs5 ,v092
 .byte   W24
 .byte   N17 ,An4 ,v092
 .byte   N17 ,Cs5 ,v092
 .byte   N17 ,Fs5 ,v092
 .byte   W24
 .byte   N17 ,An4 ,v092
 .byte   N17 ,Cs5 ,v092
 .byte   N17 ,Fs5 ,v092
 .byte   W24
@  #03 @388   ----------------------------------------
 .byte   N17 ,An4 ,v092
 .byte   N17 ,Cs5 ,v092
 .byte   N17 ,Fs5 ,v092
 .byte   W24
 .byte   N17 ,An4 ,v092
 .byte   N17 ,Cs5 ,v092
 .byte   N17 ,Fs5 ,v092
 .byte   W24
 .byte   N17 ,An4 ,v092
 .byte   N17 ,Cs5 ,v092
 .byte   N17 ,Fs5 ,v092
 .byte   W24
 .byte   N24 ,Fs4 ,v092
 .byte   W06
 .byte   N18 ,An4 ,v092
 .byte   W06
 .byte   N12 ,Cs5 ,v092
 .byte   W06
 .byte   N06 ,En5 ,v092
 .byte   W06
@  #03 @389   ----------------------------------------
 .byte   TIE ,An4 ,v092
 .byte   TIE ,Cs5 ,v092
 .byte   TIE ,En5 ,v092
 .byte   TIE ,Fs5 ,v092
 .byte   W96
@  #03 @390   ----------------------------------------
 .byte   W96
@  #03 @391   ----------------------------------------
 .byte   EOT
 .byte   An4
 .byte   EOT
 .byte   Cs5
 .byte   EOT
 .byte   En5
 .byte   EOT
 .byte   Fs5
 .byte   TIE ,Bn4 ,v092
 .byte   TIE ,Ds5 ,v092
 .byte   TIE ,Fs5 ,v092
 .byte   W96
@  #03 @392   ----------------------------------------
 .byte   W96
@  #03 @393   ----------------------------------------
 .byte   EOT
 .byte   Bn4
 .byte   EOT
 .byte   Ds5
 .byte   EOT
 .byte   Fs5
 .byte   TIE ,An4 ,v092
 .byte   TIE ,Dn5 ,v092
 .byte   TIE ,Fs5 ,v092
 .byte   W96
@  #03 @394   ----------------------------------------
 .byte   W96
@  #03 @395   ----------------------------------------
 .byte   EOT
 .byte   An4
 .byte   EOT
 .byte   Dn5
 .byte   EOT
 .byte   Fs5
 .byte   TIE ,An4 ,v092
 .byte   TIE ,Cs5 ,v092
 .byte   TIE ,Fs5 ,v092
 .byte   W96
@  #03 @396   ----------------------------------------
 .byte   W96
@  #03 @397   ----------------------------------------
 .byte   TIE ,En5 ,v092
 .byte   W96
@  #03 @398   ----------------------------------------
 .byte   W96
@  #03 @399   ----------------------------------------
 .byte   EOT
 .byte   An4
 .byte   EOT
 .byte   Cs5
 .byte   EOT
 .byte   En5
 .byte   EOT
 .byte   Fs5
 .byte   TIE ,Bn4 ,v092
 .byte   TIE ,Ds5 ,v092
 .byte   TIE ,Fs5 ,v092
 .byte   W96
@  #03 @400   ----------------------------------------
 .byte   W96
@  #03 @401   ----------------------------------------
 .byte   EOT
 .byte   Bn4
 .byte   EOT
 .byte   Ds5
 .byte   EOT
 .byte   Fs5
 .byte   TIE ,An4 ,v092
 .byte   TIE ,Dn5 ,v092
 .byte   TIE ,Fs5 ,v092
 .byte   W96
@  #03 @402   ----------------------------------------
 .byte   W96
@  #03 @403   ----------------------------------------
 .byte   EOT
 .byte   An4
 .byte   EOT
 .byte   Dn5
 .byte   EOT
 .byte   Fs5
 .byte   N96 ,As4 ,v092
 .byte   N96 ,Cs5 ,v092
 .byte   N96 ,Fs5 ,v092
 .byte   W96
@  #03 @404   ----------------------------------------
 .byte   N96 ,An4 ,v092
 .byte   N96 ,Cs5 ,v092
 .byte   N96 ,En5 ,v092
 .byte   W96
@  #03 @405   ----------------------------------------
 .byte   TIE ,Gn4 ,v092
 .byte   W96
@  #03 @406   ----------------------------------------
 .byte   N96 ,Bn4 ,v092
 .byte   W96
@  #03 @407   ----------------------------------------
 .byte   N96 ,Cs5 ,v092
 .byte   W96
@  #03 @408   ----------------------------------------
 .byte   N96 ,Dn5 ,v092
 .byte   W96
@  #03 @409   ----------------------------------------
 .byte   EOT
 .byte   Gn4
 .byte   TIE ,Gn4 ,v092
 .byte   TIE ,Gn5 ,v092
 .byte   W96
@  #03 @410   ----------------------------------------
 .byte   N96 ,Bn4 ,v092
 .byte   W96
@  #03 @411   ----------------------------------------
 .byte   N96 ,Cs5 ,v092
 .byte   W96
@  #03 @412   ----------------------------------------
 .byte   N84 ,Dn5 ,v092
 .byte   W84
 .byte   EOT
 .byte   Gn4
 .byte   EOT
 .byte   Gn5
 .byte   W12
@  #03 @413   ----------------------------------------
 .byte   W96
@  #03 @414   ----------------------------------------
 .byte   W96
@  #03 @415   ----------------------------------------
 .byte   W96
@  #03 @416   ----------------------------------------
 .byte   W96
@  #03 @417   ----------------------------------------
 .byte   W72
 .byte   N05 ,An4 ,v092
 .byte   W06
 .byte   N05 ,Bn4 ,v092
 .byte   W06
 .byte   N05 ,Cs5 ,v092
 .byte   W06
 .byte   N05 ,Dn5 ,v092
 .byte   W06
@  #03 @418   ----------------------------------------
 .byte   TIE ,An4 ,v092
 .byte   TIE ,Cs5 ,v092
 .byte   TIE ,En5 ,v092
 .byte   TIE ,Fs5 ,v092
 .byte   W96
@  #03 @419   ----------------------------------------
 .byte   W96
@  #03 @420   ----------------------------------------
 .byte   EOT
 .byte   An4
 .byte   EOT
 .byte   Cs5
 .byte   EOT
 .byte   En5
 .byte   EOT
 .byte   Fs5
 .byte   TIE ,An4 ,v092
 .byte   TIE ,Cs5 ,v092
 .byte   TIE ,En5 ,v092
 .byte   TIE ,Fs5 ,v092
 .byte   W96
@  #03 @421   ----------------------------------------
 .byte   W96
@  #03 @422   ----------------------------------------
 .byte   EOT
 .byte   An4
 .byte   EOT
 .byte   Cs5
 .byte   EOT
 .byte   En5
 .byte   EOT
 .byte   Fs5
 .byte   TIE ,An4 ,v092
 .byte   TIE ,Cs5 ,v092
 .byte   TIE ,En5 ,v092
 .byte   TIE ,Fs5 ,v092
 .byte   W96
@  #03 @423   ----------------------------------------
 .byte   W96
@  #03 @424   ----------------------------------------
 .byte   W96
@  #03 @425   ----------------------------------------
 .byte   W84
 .byte   EOT
 .byte   An4
 .byte   EOT
 .byte   Cs5
 .byte   EOT
 .byte   En5
 .byte   EOT
 .byte   Fs5
 .byte   W96
@  #03 @426   ----------------------------------------
 .byte   W12
 .byte   GOTO
  .word Label_010076EC
 .byte   FINE

@**************** Track 4 (Midi-Chn.3) ****************@

song04_004:
@  #04 @000   ----------------------------------------
Label_01008F34:
 .byte   KEYSH , song04_key+0
 .byte   VOICE , 124
 .byte   VOL , 50*song04_mvl/mxv
 .byte   MODT 1
 .byte   TEMPO , 260*song04_tbs/2
 .byte   VOICE , 124
 .byte   VOL , 50*song04_mvl/mxv
 .byte   MODT 1
 .byte   VOL , 44*song04_mvl/mxv
 .byte   PAN , c_v+0
 .byte   N05 ,En1 ,v032
 .byte   W06
 .byte   N05 ,En1 ,v036
 .byte   W06
 .byte   N05 ,En1 ,v044
 .byte   W06
 .byte   N05 ,En1 ,v048
 .byte   W06
 .byte   N05 ,En1 ,v056
 .byte   W06
 .byte   N05 ,En1 ,v060
 .byte   W06
 .byte   N05 ,En1 ,v068
 .byte   W06
 .byte   N05 ,En1 ,v072
 .byte   W06
 .byte   N05 ,En1 ,v080
 .byte   W06
 .byte   N05 ,En1 ,v084
 .byte   W06
 .byte   N05 ,En1 ,v092
 .byte   W06
 .byte   N05 ,En1 ,v096
 .byte   W06
 .byte   N05 ,En1 ,v104
 .byte   W06
 .byte   N05 ,En1 ,v108
 .byte   W06
 .byte   N05 ,En1 ,v116
 .byte   W06
 .byte   N05 ,En1 ,v120
 .byte   W06
@  #04 @001   ----------------------------------------
 .byte   N84 ,Cn1 ,v127
 .byte   N84 ,Cn1 ,v127
 .byte   N84 ,An1 ,v127
 .byte   N84 ,Bn1 ,v127
 .byte   N84 ,Cn2 ,v127
 .byte   N84 ,Dn2 ,v127
 .byte   N84 ,An2 ,v127
 .byte   W96
@  #04 @002   ----------------------------------------
 .byte   VOICE , 124
 .byte   VOL , 50*song04_mvl/mxv
 .byte   MODT 1
 .byte   N30 ,En1 ,v127 ,gtp1
 .byte   W32
 .byte   N30 ,En1 ,v127 ,gtp1
 .byte   W32
 .byte   N30 ,En1 ,v127 ,gtp1
 .byte   W32
@  #04 @003   ----------------------------------------
 .byte   N84 ,Cn1 ,v127
 .byte   N84 ,Cn1 ,v127
 .byte   N84 ,An1 ,v127
 .byte   N84 ,Bn1 ,v127
 .byte   N84 ,Cn2 ,v127
 .byte   N84 ,Dn2 ,v127
 .byte   N84 ,An2 ,v127
 .byte   W96
@  #04 @004   ----------------------------------------
 .byte   VOICE , 124
 .byte   VOL , 50*song04_mvl/mxv
 .byte   MODT 1
 .byte   N11 ,En1 ,v127
 .byte   N11 ,Dn2 ,v127
 .byte   W12
 .byte   N11 ,En1 ,v127
 .byte   N11 ,Dn2 ,v127
 .byte   W12
 .byte   N23 ,En1 ,v127
 .byte   N23 ,Cn2 ,v127
 .byte   W24
 .byte   N11 ,En1 ,v127
 .byte   N11 ,Bn1 ,v127
 .byte   W12
 .byte   N11 ,En1 ,v127
 .byte   N11 ,Bn1 ,v127
 .byte   W12
 .byte   N23 ,En1 ,v127
 .byte   N23 ,An1 ,v127
 .byte   W24
@  #04 @005   ----------------------------------------
 .byte   N84 ,Cn1 ,v127
 .byte   N84 ,Cn1 ,v127
 .byte   N84 ,An1 ,v127
 .byte   N84 ,Bn1 ,v127
 .byte   N84 ,Cn2 ,v127
 .byte   N84 ,Dn2 ,v127
 .byte   N84 ,An2 ,v127
 .byte   W96
@  #04 @006   ----------------------------------------
 .byte   VOICE , 124
 .byte   VOL , 50*song04_mvl/mxv
 .byte   MODT 1
 .byte   N30 ,En1 ,v127 ,gtp1
 .byte   W32
 .byte   N30 ,En1 ,v127 ,gtp1
 .byte   W32
 .byte   N30 ,En1 ,v127 ,gtp1
 .byte   W32
@  #04 @007   ----------------------------------------
 .byte   N23 ,En1 ,v127
 .byte   N23 ,An2 ,v127
 .byte   W24
 .byte   N23 ,Cn1 ,v127
 .byte   N23 ,Cn1 ,v127
 .byte   W24
 .byte   N23 ,En1 ,v127
 .byte   N23 ,An2 ,v127
 .byte   W24
 .byte   N23 ,Cn1 ,v127
 .byte   N23 ,Cn1 ,v127
 .byte   W24
@  #04 @008   ----------------------------------------
 .byte   VOICE , 124
 .byte   VOL , 50*song04_mvl/mxv
 .byte   MODT 1
 .byte   N23 ,En1 ,v127
 .byte   N23 ,An2 ,v127
 .byte   W24
 .byte   N23 ,Cn1 ,v127
 .byte   N23 ,Cn1 ,v127
 .byte   W24
 .byte   N11 ,En1 ,v127
 .byte   N11 ,Dn2 ,v127
 .byte   W12
 .byte   N11 ,En1 ,v127
 .byte   N11 ,Cn2 ,v127
 .byte   W12
 .byte   N11 ,En1 ,v127
 .byte   N11 ,Bn1 ,v127
 .byte   W12
 .byte   N11 ,En1 ,v127
 .byte   N11 ,An1 ,v127
 .byte   W12
@  #04 @009   ----------------------------------------
 .byte   N23 ,Cn1 ,v127
 .byte   N23 ,An2 ,v127
 .byte   W24
 .byte   N23 ,Cn1 ,v127
 .byte   W24
 .byte   N11 ,En1 ,v127
 .byte   W12
 .byte   N11 ,En1 ,v127
 .byte   W36
@  #04 @010   ----------------------------------------
 .byte   VOICE , 124
 .byte   VOL , 50*song04_mvl/mxv
 .byte   MODT 1
 .byte   N23 ,Cn1 ,v127
 .byte   N23 ,An2 ,v127
 .byte   W24
 .byte   N23 ,Cn1 ,v127
 .byte   W24
 .byte   N11 ,En1 ,v127
 .byte   W12
 .byte   N11 ,En1 ,v127
 .byte   W36
@  #04 @011   ----------------------------------------
 .byte   N23 ,Cn1 ,v127
 .byte   N23 ,An2 ,v127
 .byte   W24
 .byte   N23 ,Cn1 ,v127
 .byte   W24
 .byte   N11 ,En1 ,v127
 .byte   W12
 .byte   N11 ,En1 ,v127
 .byte   W36
@  #04 @012   ----------------------------------------
 .byte   VOICE , 124
 .byte   VOL , 50*song04_mvl/mxv
 .byte   MODT 1
 .byte   N23 ,Cn1 ,v127
 .byte   N23 ,An2 ,v127
 .byte   W24
 .byte   N23 ,Cn1 ,v127
 .byte   W24
 .byte   N11 ,En1 ,v127
 .byte   W12
 .byte   N11 ,En1 ,v127
 .byte   W36
@  #04 @013   ----------------------------------------
 .byte   N23 ,En1 ,v127
 .byte   N23 ,An2 ,v127
 .byte   W24
 .byte   N23 ,Cn1 ,v127
 .byte   N23 ,Cn1 ,v127
 .byte   W24
 .byte   N23 ,En1 ,v127
 .byte   N23 ,An2 ,v127
 .byte   W24
 .byte   N23 ,Cn1 ,v127
 .byte   N23 ,Cn1 ,v127
 .byte   W24
@  #04 @014   ----------------------------------------
 .byte   VOICE , 124
 .byte   VOL , 50*song04_mvl/mxv
 .byte   MODT 1
 .byte   N23 ,En1 ,v127
 .byte   N23 ,An2 ,v127
 .byte   W24
 .byte   N23 ,Cn1 ,v127
 .byte   N23 ,Cn1 ,v127
 .byte   W24
 .byte   N23 ,En1 ,v127
 .byte   N23 ,An2 ,v127
 .byte   W24
 .byte   N23 ,Cn1 ,v127
 .byte   N23 ,Cn1 ,v127
 .byte   W24
@  #04 @015   ----------------------------------------
 .byte   N23 ,En1 ,v127
 .byte   N23 ,An2 ,v127
 .byte   W24
 .byte   N23 ,Cn1 ,v127
 .byte   N23 ,Cn1 ,v127
 .byte   W24
 .byte   N23 ,Cn1 ,v127
 .byte   N23 ,Cn1 ,v127
 .byte   W24
 .byte   N23 ,En1 ,v127
 .byte   N23 ,An2 ,v127
 .byte   W24
@  #04 @016   ----------------------------------------
 .byte   VOICE , 124
 .byte   VOL , 50*song04_mvl/mxv
 .byte   MODT 1
 .byte   N23 ,Cn1 ,v127
 .byte   N23 ,Cn1 ,v127
 .byte   W24
 .byte   N23 ,Cn1 ,v127
 .byte   N23 ,Cn1 ,v127
 .byte   W24
 .byte   N11 ,En1 ,v127
 .byte   N11 ,An2 ,v127
 .byte   W12
 .byte   N11 ,En1 ,v127
 .byte   W12
 .byte   N11 ,Cn1 ,v127
 .byte   N11 ,Cn1 ,v127
 .byte   N11 ,En1 ,v127
 .byte   W12
 .byte   N11 ,En1 ,v127
 .byte   W12
@  #04 @017   ----------------------------------------
 .byte   N23 ,Cn1 ,v127
 .byte   N23 ,Cn1 ,v127
 .byte   N23 ,As1 ,v127
 .byte   N23 ,An2 ,v127
 .byte   W24
 .byte   N11 ,Fs1 ,v127
 .byte   W12
 .byte   N11 ,Fs1 ,v127
 .byte   W12
 .byte   N23 ,As1 ,v127
 .byte   W24
 .byte   N11 ,Fs1 ,v127
 .byte   W12
 .byte   N11 ,Fs1 ,v127
 .byte   W12
@  #04 @018   ----------------------------------------
 .byte   VOICE , 124
 .byte   VOL , 50*song04_mvl/mxv
 .byte   MODT 1
 .byte   N23 ,As1 ,v127
 .byte   W24
 .byte   N11 ,Fs1 ,v127
 .byte   W12
 .byte   N11 ,Fs1 ,v127
 .byte   W12
 .byte   N23 ,As1 ,v127
 .byte   W24
 .byte   N23 ,Cn1 ,v127
 .byte   N23 ,Cn1 ,v127
 .byte   N11 ,Fs1 ,v127
 .byte   W12
 .byte   N11 ,Fs1 ,v127
 .byte   W12
@  #04 @019   ----------------------------------------
 .byte   N23 ,Cn1 ,v127
 .byte   N23 ,Cn1 ,v127
 .byte   N23 ,As1 ,v127
 .byte   N23 ,An2 ,v127
 .byte   W24
 .byte   N11 ,Fs1 ,v127
 .byte   W12
 .byte   N11 ,Fs1 ,v127
 .byte   W12
 .byte   N23 ,As1 ,v127
 .byte   W24
 .byte   N11 ,Fs1 ,v127
 .byte   W12
 .byte   N11 ,Fs1 ,v127
 .byte   W12
@  #04 @020   ----------------------------------------
 .byte   VOICE , 124
 .byte   VOL , 50*song04_mvl/mxv
 .byte   MODT 1
 .byte   N23 ,As1 ,v127
 .byte   W24
 .byte   N11 ,Fs1 ,v127
 .byte   W12
 .byte   N11 ,Fs1 ,v127
 .byte   W12
 .byte   N23 ,As1 ,v127
 .byte   W24
 .byte   N23 ,Cn1 ,v127
 .byte   N23 ,Cn1 ,v127
 .byte   N11 ,Fs1 ,v127
 .byte   W12
 .byte   N11 ,Fs1 ,v127
 .byte   W12
@  #04 @021   ----------------------------------------
 .byte   N23 ,Cn1 ,v127
 .byte   N23 ,Cn1 ,v127
 .byte   N23 ,As1 ,v127
 .byte   N23 ,An2 ,v127
 .byte   W24
 .byte   N11 ,Fs1 ,v127
 .byte   W12
 .byte   N11 ,Fs1 ,v127
 .byte   W12
 .byte   N23 ,As1 ,v127
 .byte   W24
 .byte   N11 ,Fs1 ,v127
 .byte   W12
 .byte   N11 ,Fs1 ,v127
 .byte   W12
@  #04 @022   ----------------------------------------
 .byte   VOICE , 124
 .byte   VOL , 50*song04_mvl/mxv
 .byte   MODT 1
 .byte   N23 ,As1 ,v127
 .byte   W24
 .byte   N11 ,Fs1 ,v127
 .byte   W12
 .byte   N11 ,Fs1 ,v127
 .byte   W12
 .byte   N23 ,As1 ,v127
 .byte   W24
 .byte   N23 ,Cn1 ,v127
 .byte   N23 ,Cn1 ,v127
 .byte   N11 ,Fs1 ,v127
 .byte   W12
 .byte   N11 ,Fs1 ,v127
 .byte   W12
@  #04 @023   ----------------------------------------
 .byte   N23 ,Cn1 ,v127
 .byte   N23 ,Cn1 ,v127
 .byte   N23 ,As1 ,v127
 .byte   N23 ,An2 ,v127
 .byte   W24
 .byte   N11 ,Fs1 ,v127
 .byte   W12
 .byte   N11 ,Fs1 ,v127
 .byte   W12
 .byte   N23 ,As1 ,v127
 .byte   W24
 .byte   N11 ,Fs1 ,v127
 .byte   W12
 .byte   N11 ,Fs1 ,v127
 .byte   W12
@  #04 @024   ----------------------------------------
 .byte   VOICE , 124
 .byte   VOL , 50*song04_mvl/mxv
 .byte   MODT 1
 .byte   N23 ,As1 ,v127
 .byte   W24
 .byte   N11 ,Fs1 ,v127
 .byte   W12
 .byte   N11 ,Fs1 ,v127
 .byte   W12
 .byte   N11 ,En1 ,v127
 .byte   N11 ,As1 ,v127
 .byte   W12
 .byte   N11 ,En1 ,v127
 .byte   W12
 .byte   N23 ,Cn1 ,v127
 .byte   N23 ,Cn1 ,v127
 .byte   N11 ,En1 ,v127
 .byte   N11 ,Fs1 ,v127
 .byte   W12
 .byte   N11 ,En1 ,v127
 .byte   N11 ,Fs1 ,v127
 .byte   W12
@  #04 @025   ----------------------------------------
 .byte   N23 ,Cn1 ,v127
 .byte   N23 ,Cn1 ,v127
 .byte   N23 ,As1 ,v127
 .byte   N23 ,An2 ,v127
 .byte   W24
 .byte   N11 ,Fs1 ,v127
 .byte   W12
 .byte   N11 ,Fs1 ,v127
 .byte   W12
 .byte   N23 ,As1 ,v127
 .byte   W24
 .byte   N11 ,Fs1 ,v127
 .byte   W12
 .byte   N11 ,Fs1 ,v127
 .byte   W12
@  #04 @026   ----------------------------------------
 .byte   VOICE , 124
 .byte   VOL , 50*song04_mvl/mxv
 .byte   MODT 1
 .byte   N23 ,As1 ,v127
 .byte   W24
 .byte   N11 ,Fs1 ,v127
 .byte   W12
 .byte   N11 ,Fs1 ,v127
 .byte   W12
 .byte   N23 ,Dn1 ,v127
 .byte   N23 ,En1 ,v127
 .byte   N23 ,As1 ,v127
 .byte   N23 ,Bn1 ,v127
 .byte   N23 ,Cn2 ,v127
 .byte   N23 ,Dn2 ,v127
 .byte   W24
 .byte   N23 ,Cn1 ,v127
 .byte   N23 ,Cn1 ,v127
 .byte   N11 ,Fs1 ,v127
 .byte   W12
 .byte   N11 ,Fs1 ,v127
 .byte   W12
@  #04 @027   ----------------------------------------
 .byte   N23 ,Cn1 ,v127
 .byte   N23 ,Cn1 ,v127
 .byte   N23 ,As1 ,v127
 .byte   N23 ,An2 ,v127
 .byte   W24
 .byte   N11 ,Fs1 ,v127
 .byte   W12
 .byte   N11 ,Fs1 ,v127
 .byte   W12
 .byte   N23 ,As1 ,v127
 .byte   W24
 .byte   N11 ,Fs1 ,v127
 .byte   W12
 .byte   N11 ,Fs1 ,v127
 .byte   W12
@  #04 @028   ----------------------------------------
 .byte   VOICE , 124
 .byte   VOL , 50*song04_mvl/mxv
 .byte   MODT 1
 .byte   N23 ,As1 ,v127
 .byte   W24
 .byte   N11 ,Fs1 ,v127
 .byte   W12
 .byte   N11 ,Fs1 ,v127
 .byte   W12
 .byte   N23 ,Dn1 ,v127
 .byte   N23 ,En1 ,v127
 .byte   N23 ,As1 ,v127
 .byte   N23 ,Bn1 ,v127
 .byte   N23 ,Cn2 ,v127
 .byte   N23 ,Dn2 ,v127
 .byte   W24
 .byte   N23 ,Cn1 ,v127
 .byte   N23 ,Cn1 ,v127
 .byte   N11 ,Fs1 ,v127
 .byte   W12
 .byte   N11 ,Fs1 ,v127
 .byte   W12
@  #04 @029   ----------------------------------------
 .byte   N23 ,Cn1 ,v127
 .byte   N23 ,Cn1 ,v127
 .byte   N23 ,As1 ,v127
 .byte   N23 ,An2 ,v127
 .byte   W24
 .byte   N11 ,Fs1 ,v127
 .byte   W12
 .byte   N11 ,Fs1 ,v127
 .byte   W12
 .byte   N23 ,As1 ,v127
 .byte   W24
 .byte   N11 ,Fs1 ,v127
 .byte   W12
 .byte   N11 ,Fs1 ,v127
 .byte   W12
@  #04 @030   ----------------------------------------
 .byte   VOICE , 124
 .byte   VOL , 50*song04_mvl/mxv
 .byte   MODT 1
 .byte   N23 ,As1 ,v127
 .byte   W24
 .byte   N11 ,Fs1 ,v127
 .byte   W12
 .byte   N11 ,Fs1 ,v127
 .byte   W12
 .byte   N23 ,Dn1 ,v127
 .byte   N23 ,En1 ,v127
 .byte   N23 ,As1 ,v127
 .byte   N23 ,Bn1 ,v127
 .byte   N23 ,Cn2 ,v127
 .byte   N23 ,Dn2 ,v127
 .byte   W24
 .byte   N23 ,Cn1 ,v127
 .byte   N23 ,Cn1 ,v127
 .byte   N11 ,Fs1 ,v127
 .byte   W12
 .byte   N11 ,Fs1 ,v127
 .byte   W12
@  #04 @031   ----------------------------------------
 .byte   N23 ,Cn1 ,v127
 .byte   N23 ,Cn1 ,v127
 .byte   N23 ,As1 ,v127
 .byte   N23 ,An2 ,v127
 .byte   W24
 .byte   N11 ,Fs1 ,v127
 .byte   W12
 .byte   N11 ,Fs1 ,v127
 .byte   W12
 .byte   N23 ,As1 ,v127
 .byte   W24
 .byte   N11 ,Fs1 ,v127
 .byte   W12
 .byte   N11 ,Fs1 ,v127
 .byte   W12
@  #04 @032   ----------------------------------------
 .byte   VOICE , 124
 .byte   VOL , 50*song04_mvl/mxv
 .byte   MODT 1
 .byte   N23 ,As1 ,v127
 .byte   W24
 .byte   N11 ,Fs1 ,v127
 .byte   W12
 .byte   N11 ,Fs1 ,v127
 .byte   W12
 .byte   N11 ,Dn1 ,v127
 .byte   N11 ,En1 ,v127
 .byte   N11 ,As1 ,v127
 .byte   N11 ,Bn1 ,v127
 .byte   N11 ,Cn2 ,v127
 .byte   N11 ,Dn2 ,v127
 .byte   W12
 .byte   N11 ,En1 ,v127
 .byte   W12
 .byte   N23 ,Cn1 ,v127
 .byte   N23 ,Cn1 ,v127
 .byte   N11 ,En1 ,v127
 .byte   N11 ,Fs1 ,v127
 .byte   W12
 .byte   N11 ,En1 ,v127
 .byte   N11 ,Fs1 ,v127
 .byte   W12
@  #04 @033   ----------------------------------------
 .byte   N23 ,Cn1 ,v127
 .byte   N23 ,Cn1 ,v127
 .byte   N23 ,Fs1 ,v127
 .byte   N23 ,An2 ,v127
 .byte   W24
 .byte   N23 ,Fs1 ,v127
 .byte   W24
 .byte   N23 ,Gs1 ,v127
 .byte   W24
 .byte   N23 ,Cn1 ,v127
 .byte   N23 ,Cn1 ,v127
 .byte   N23 ,Fs1 ,v127
 .byte   W24
@  #04 @034   ----------------------------------------
 .byte   VOICE , 124
 .byte   VOL , 50*song04_mvl/mxv
 .byte   MODT 1
 .byte   N23 ,Dn1 ,v127
 .byte   N23 ,En1 ,v127
 .byte   N23 ,As1 ,v127
 .byte   W24
 .byte   N23 ,Gs1 ,v127
 .byte   W24
 .byte   N23 ,Cn1 ,v127
 .byte   N23 ,Cn1 ,v127
 .byte   N23 ,Fs1 ,v127
 .byte   W24
 .byte   N23 ,Gs1 ,v127
 .byte   W24
@  #04 @035   ----------------------------------------
 .byte   N23 ,Cn1 ,v127
 .byte   N23 ,Cn1 ,v127
 .byte   N23 ,Fs1 ,v127
 .byte   N23 ,An2 ,v127
 .byte   W24
 .byte   N23 ,Fs1 ,v127
 .byte   W24
 .byte   N23 ,Gs1 ,v127
 .byte   W24
 .byte   N23 ,Cn1 ,v127
 .byte   N23 ,Cn1 ,v127
 .byte   N23 ,Fs1 ,v127
 .byte   W24
@  #04 @036   ----------------------------------------
 .byte   VOICE , 124
 .byte   VOL , 50*song04_mvl/mxv
 .byte   MODT 1
 .byte   N23 ,Dn1 ,v127
 .byte   N23 ,En1 ,v127
 .byte   N23 ,As1 ,v127
 .byte   W24
 .byte   N23 ,Gs1 ,v127
 .byte   W24
 .byte   N23 ,Cn1 ,v127
 .byte   N23 ,Cn1 ,v127
 .byte   N23 ,Fs1 ,v127
 .byte   W24
 .byte   N23 ,Gs1 ,v127
 .byte   W24
@  #04 @037   ----------------------------------------
 .byte   N23 ,Cn1 ,v127
 .byte   N23 ,Cn1 ,v127
 .byte   N23 ,Fs1 ,v127
 .byte   N23 ,An2 ,v127
 .byte   W24
 .byte   N23 ,Fs1 ,v127
 .byte   W24
 .byte   N23 ,Gs1 ,v127
 .byte   W24
 .byte   N23 ,Cn1 ,v127
 .byte   N23 ,Cn1 ,v127
 .byte   N23 ,Fs1 ,v127
 .byte   W24
@  #04 @038   ----------------------------------------
 .byte   VOICE , 124
 .byte   VOL , 50*song04_mvl/mxv
 .byte   MODT 1
 .byte   N23 ,Dn1 ,v127
 .byte   N23 ,En1 ,v127
 .byte   N23 ,As1 ,v127
 .byte   W24
 .byte   N23 ,Gs1 ,v127
 .byte   W24
 .byte   N23 ,Cn1 ,v127
 .byte   N23 ,Cn1 ,v127
 .byte   N23 ,Fs1 ,v127
 .byte   W24
 .byte   N23 ,Gs1 ,v127
 .byte   W24
@  #04 @039   ----------------------------------------
 .byte   N23 ,En1 ,v127
 .byte   N23 ,An2 ,v127
 .byte   W24
 .byte   N23 ,Cn1 ,v127
 .byte   N23 ,Cn1 ,v127
 .byte   W24
 .byte   N23 ,En1 ,v127
 .byte   N23 ,An2 ,v127
 .byte   W24
 .byte   N23 ,Cn1 ,v127
 .byte   N23 ,Cn1 ,v127
 .byte   W24
@  #04 @040   ----------------------------------------
 .byte   VOICE , 124
 .byte   VOL , 50*song04_mvl/mxv
 .byte   MODT 1
 .byte   N23 ,En1 ,v127
 .byte   N23 ,An2 ,v127
 .byte   W24
 .byte   N23 ,Cn1 ,v127
 .byte   N23 ,Cn1 ,v127
 .byte   W24
 .byte   N11 ,En1 ,v127
 .byte   N11 ,Dn2 ,v127
 .byte   W12
 .byte   N11 ,En1 ,v127
 .byte   N11 ,Cn2 ,v127
 .byte   W12
 .byte   N11 ,En1 ,v127
 .byte   N11 ,Bn1 ,v127
 .byte   W12
 .byte   N11 ,En1 ,v127
 .byte   N11 ,An1 ,v127
 .byte   W12
@  #04 @041   ----------------------------------------
 .byte   N23 ,Cn1 ,v127
 .byte   N23 ,Cn1 ,v127
 .byte   N23 ,As1 ,v127
 .byte   N23 ,An2 ,v127
 .byte   W24
 .byte   N11 ,Fs1 ,v127
 .byte   W12
 .byte   N11 ,Fs1 ,v127
 .byte   W12
 .byte   N23 ,Dn1 ,v127
 .byte   N23 ,En1 ,v127
 .byte   N23 ,As1 ,v127
 .byte   W24
 .byte   N11 ,Cn1 ,v127
 .byte   N11 ,Cn1 ,v127
 .byte   N11 ,Fs1 ,v127
 .byte   W12
 .byte   N11 ,Fs1 ,v127
 .byte   W12
@  #04 @042   ----------------------------------------
 .byte   VOICE , 124
 .byte   VOL , 50*song04_mvl/mxv
 .byte   MODT 1
 .byte   N23 ,Cn1 ,v127
 .byte   N23 ,Cn1 ,v127
 .byte   N23 ,As1 ,v127
 .byte   W24
 .byte   N11 ,Fs1 ,v127
 .byte   W12
 .byte   N11 ,Fs1 ,v127
 .byte   W12
 .byte   N23 ,Dn1 ,v127
 .byte   N23 ,En1 ,v127
 .byte   N23 ,As1 ,v127
 .byte   W24
 .byte   N23 ,Cn1 ,v127
 .byte   N23 ,Cn1 ,v127
 .byte   N11 ,Fs1 ,v127
 .byte   W12
 .byte   N11 ,Fs1 ,v127
 .byte   W12
@  #04 @043   ----------------------------------------
 .byte   N23 ,Cn1 ,v127
 .byte   N23 ,Cn1 ,v127
 .byte   N23 ,As1 ,v127
 .byte   W24
 .byte   N11 ,Fs1 ,v127
 .byte   W12
 .byte   N11 ,Fs1 ,v127
 .byte   W12
 .byte   N23 ,Dn1 ,v127
 .byte   N23 ,En1 ,v127
 .byte   N23 ,As1 ,v127
 .byte   W24
 .byte   N11 ,Cn1 ,v127
 .byte   N11 ,Cn1 ,v127
 .byte   N11 ,Fs1 ,v127
 .byte   W12
 .byte   N11 ,Fs1 ,v127
 .byte   W12
@  #04 @044   ----------------------------------------
 .byte   VOICE , 124
 .byte   VOL , 50*song04_mvl/mxv
 .byte   MODT 1
 .byte   N23 ,Cn1 ,v127
 .byte   N23 ,Cn1 ,v127
 .byte   N23 ,As1 ,v127
 .byte   W24
 .byte   N11 ,Fs1 ,v127
 .byte   W12
 .byte   N11 ,Fs1 ,v127
 .byte   W12
 .byte   N23 ,Dn1 ,v127
 .byte   N23 ,En1 ,v127
 .byte   N23 ,As1 ,v127
 .byte   W24
 .byte   N23 ,Cn1 ,v127
 .byte   N23 ,Cn1 ,v127
 .byte   N11 ,Fs1 ,v127
 .byte   W12
 .byte   N11 ,Fs1 ,v127
 .byte   W12
@  #04 @045   ----------------------------------------
 .byte   N23 ,Cn1 ,v127
 .byte   N23 ,Cn1 ,v127
 .byte   N23 ,As1 ,v127
 .byte   W24
 .byte   N11 ,Fs1 ,v127
 .byte   W12
 .byte   N11 ,Fs1 ,v127
 .byte   W12
 .byte   N23 ,Dn1 ,v127
 .byte   N23 ,En1 ,v127
 .byte   N23 ,As1 ,v127
 .byte   W24
 .byte   N11 ,Cn1 ,v127
 .byte   N11 ,Cn1 ,v127
 .byte   N11 ,Fs1 ,v127
 .byte   W12
 .byte   N11 ,Fs1 ,v127
 .byte   W12
@  #04 @046   ----------------------------------------
 .byte   VOICE , 124
 .byte   VOL , 50*song04_mvl/mxv
 .byte   MODT 1
 .byte   N23 ,Cn1 ,v127
 .byte   N23 ,Cn1 ,v127
 .byte   N23 ,As1 ,v127
 .byte   W24
 .byte   N11 ,Fs1 ,v127
 .byte   W12
 .byte   N11 ,Fs1 ,v127
 .byte   W12
 .byte   N23 ,Dn1 ,v127
 .byte   N23 ,En1 ,v127
 .byte   N23 ,As1 ,v127
 .byte   W24
 .byte   N23 ,Cn1 ,v127
 .byte   N23 ,Cn1 ,v127
 .byte   N11 ,Fs1 ,v127
 .byte   W12
 .byte   N11 ,Fs1 ,v127
 .byte   W12
@  #04 @047   ----------------------------------------
 .byte   N23 ,Cn1 ,v127
 .byte   N23 ,Cn1 ,v127
 .byte   N23 ,As1 ,v127
 .byte   W24
 .byte   N11 ,Fs1 ,v127
 .byte   W12
 .byte   N11 ,Fs1 ,v127
 .byte   W12
 .byte   N23 ,Dn1 ,v127
 .byte   N23 ,En1 ,v127
 .byte   N23 ,As1 ,v127
 .byte   W24
 .byte   N11 ,Cn1 ,v127
 .byte   N11 ,Cn1 ,v127
 .byte   N11 ,Fs1 ,v127
 .byte   W12
 .byte   N11 ,Fs1 ,v127
 .byte   W12
@  #04 @048   ----------------------------------------
 .byte   VOICE , 124
 .byte   VOL , 50*song04_mvl/mxv
 .byte   MODT 1
 .byte   N23 ,Cn1 ,v127
 .byte   N23 ,Cn1 ,v127
 .byte   N23 ,As1 ,v127
 .byte   W24
 .byte   N11 ,Fs1 ,v127
 .byte   W12
 .byte   N11 ,Fs1 ,v127
 .byte   W12
 .byte   N23 ,Dn1 ,v127
 .byte   N23 ,En1 ,v127
 .byte   N23 ,As1 ,v127
 .byte   W24
 .byte   N23 ,Cn1 ,v127
 .byte   N23 ,Cn1 ,v127
 .byte   N11 ,Fs1 ,v127
 .byte   W12
 .byte   N11 ,Fs1 ,v127
 .byte   W12
@  #04 @049   ----------------------------------------
 .byte   N23 ,Cn1 ,v127
 .byte   N23 ,Cn1 ,v127
 .byte   N23 ,As1 ,v127
 .byte   W24
 .byte   N11 ,Fs1 ,v127
 .byte   W12
 .byte   N11 ,Fs1 ,v127
 .byte   W12
 .byte   N23 ,Dn1 ,v127
 .byte   N23 ,En1 ,v127
 .byte   N23 ,As1 ,v127
 .byte   W24
 .byte   N11 ,Cn1 ,v127
 .byte   N11 ,Cn1 ,v127
 .byte   N11 ,Fs1 ,v127
 .byte   W12
 .byte   N11 ,Fs1 ,v127
 .byte   W12
@  #04 @050   ----------------------------------------
 .byte   VOICE , 124
 .byte   VOL , 50*song04_mvl/mxv
 .byte   MODT 1
 .byte   N23 ,Cn1 ,v127
 .byte   N23 ,Cn1 ,v127
 .byte   N23 ,As1 ,v127
 .byte   W24
 .byte   N11 ,Fs1 ,v127
 .byte   W12
 .byte   N11 ,Fs1 ,v127
 .byte   W12
 .byte   N23 ,Dn1 ,v127
 .byte   N23 ,En1 ,v127
 .byte   N23 ,As1 ,v127
 .byte   W24
 .byte   N23 ,Cn1 ,v127
 .byte   N23 ,Cn1 ,v127
 .byte   N11 ,Fs1 ,v127
 .byte   W12
 .byte   N11 ,Fs1 ,v127
 .byte   W12
@  #04 @051   ----------------------------------------
 .byte   N23 ,Cn1 ,v127
 .byte   N23 ,Cn1 ,v127
 .byte   N23 ,As1 ,v127
 .byte   W24
 .byte   N11 ,Fs1 ,v127
 .byte   W12
 .byte   N11 ,Fs1 ,v127
 .byte   W12
 .byte   N23 ,Dn1 ,v127
 .byte   N23 ,En1 ,v127
 .byte   N23 ,As1 ,v127
 .byte   W24
 .byte   N11 ,Cn1 ,v127
 .byte   N11 ,Cn1 ,v127
 .byte   N11 ,Fs1 ,v127
 .byte   W12
 .byte   N11 ,Fs1 ,v127
 .byte   W12
@  #04 @052   ----------------------------------------
 .byte   VOICE , 124
 .byte   VOL , 50*song04_mvl/mxv
 .byte   MODT 1
 .byte   N23 ,Cn1 ,v127
 .byte   N23 ,Cn1 ,v127
 .byte   N23 ,As1 ,v127
 .byte   W24
 .byte   N11 ,Fs1 ,v127
 .byte   W12
 .byte   N11 ,Fs1 ,v127
 .byte   W12
 .byte   N23 ,Dn1 ,v127
 .byte   N23 ,En1 ,v127
 .byte   N23 ,As1 ,v127
 .byte   W24
 .byte   N23 ,Cn1 ,v127
 .byte   N23 ,Cn1 ,v127
 .byte   N11 ,Fs1 ,v127
 .byte   W12
 .byte   N11 ,Fs1 ,v127
 .byte   W12
@  #04 @053   ----------------------------------------
 .byte   N23 ,Cn1 ,v127
 .byte   N23 ,Cn1 ,v127
 .byte   N23 ,As1 ,v127
 .byte   W24
 .byte   N11 ,Fs1 ,v127
 .byte   W12
 .byte   N11 ,Fs1 ,v127
 .byte   W12
 .byte   N23 ,Dn1 ,v127
 .byte   N23 ,En1 ,v127
 .byte   N23 ,As1 ,v127
 .byte   W24
 .byte   N11 ,Cn1 ,v127
 .byte   N11 ,Cn1 ,v127
 .byte   N11 ,Fs1 ,v127
 .byte   W12
 .byte   N11 ,Fs1 ,v127
 .byte   W12
@  #04 @054   ----------------------------------------
 .byte   VOICE , 124
 .byte   VOL , 50*song04_mvl/mxv
 .byte   MODT 1
 .byte   N23 ,Cn1 ,v127
 .byte   N23 ,Cn1 ,v127
 .byte   N23 ,As1 ,v127
 .byte   W24
 .byte   N11 ,Fs1 ,v127
 .byte   W12
 .byte   N11 ,Fs1 ,v127
 .byte   W12
 .byte   N23 ,Dn1 ,v127
 .byte   N23 ,En1 ,v127
 .byte   N23 ,As1 ,v127
 .byte   W24
 .byte   N23 ,Cn1 ,v127
 .byte   N23 ,Cn1 ,v127
 .byte   N11 ,Fs1 ,v127
 .byte   W12
 .byte   N11 ,Fs1 ,v127
 .byte   W12
@  #04 @055   ----------------------------------------
 .byte   N23 ,Cn1 ,v127
 .byte   N23 ,Cn1 ,v127
 .byte   N23 ,As1 ,v127
 .byte   W24
 .byte   N11 ,Fs1 ,v127
 .byte   W12
 .byte   N11 ,Fs1 ,v127
 .byte   W12
 .byte   N23 ,Dn1 ,v127
 .byte   N23 ,En1 ,v127
 .byte   N23 ,As1 ,v127
 .byte   W24
 .byte   N11 ,Cn1 ,v127
 .byte   N11 ,Cn1 ,v127
 .byte   N11 ,Fs1 ,v127
 .byte   W12
 .byte   N11 ,Fs1 ,v127
 .byte   W12
@  #04 @056   ----------------------------------------
 .byte   VOICE , 124
 .byte   VOL , 50*song04_mvl/mxv
 .byte   MODT 1
 .byte   N23 ,Cn1 ,v127
 .byte   N23 ,Cn1 ,v127
 .byte   N23 ,As1 ,v127
 .byte   W24
 .byte   N11 ,Fs1 ,v127
 .byte   W12
 .byte   N11 ,Fs1 ,v127
 .byte   W12
 .byte   N11 ,Dn1 ,v127
 .byte   N11 ,En1 ,v127
 .byte   N11 ,As1 ,v127
 .byte   W12
 .byte   N11 ,Dn1 ,v127
 .byte   N11 ,En1 ,v127
 .byte   W12
 .byte   N23 ,Cn1 ,v127
 .byte   N23 ,Cn1 ,v127
 .byte   N11 ,Dn1 ,v127
 .byte   N11 ,En1 ,v127
 .byte   N11 ,Fs1 ,v127
 .byte   W12
 .byte   N11 ,Dn1 ,v127
 .byte   N11 ,En1 ,v127
 .byte   N11 ,Fs1 ,v127
 .byte   W12
@  #04 @057   ----------------------------------------
 .byte   N23 ,Cn1 ,v127
 .byte   N23 ,Cn1 ,v127
 .byte   N23 ,As1 ,v127
 .byte   N23 ,An2 ,v127
 .byte   W24
 .byte   N11 ,Fs1 ,v127
 .byte   W12
 .byte   N11 ,Fs1 ,v127
 .byte   W12
 .byte   N23 ,Dn1 ,v127
 .byte   N23 ,En1 ,v127
 .byte   N23 ,As1 ,v127
 .byte   W24
 .byte   N11 ,Cn1 ,v127
 .byte   N11 ,Cn1 ,v127
 .byte   N11 ,Fs1 ,v127
 .byte   W12
 .byte   N11 ,Fs1 ,v127
 .byte   W12
@  #04 @058   ----------------------------------------
 .byte   VOICE , 124
 .byte   VOL , 50*song04_mvl/mxv
 .byte   MODT 1
 .byte   N23 ,Cn1 ,v127
 .byte   N23 ,Cn1 ,v127
 .byte   N23 ,As1 ,v127
 .byte   W24
 .byte   N11 ,Fs1 ,v127
 .byte   W12
 .byte   N11 ,Fs1 ,v127
 .byte   W12
 .byte   N23 ,Dn1 ,v127
 .byte   N23 ,En1 ,v127
 .byte   N23 ,As1 ,v127
 .byte   W24
 .byte   N23 ,Cn1 ,v127
 .byte   N23 ,Cn1 ,v127
 .byte   N11 ,Fs1 ,v127
 .byte   W12
 .byte   N11 ,Fs1 ,v127
 .byte   W12
@  #04 @059   ----------------------------------------
 .byte   N23 ,Cn1 ,v127
 .byte   N23 ,Cn1 ,v127
 .byte   N23 ,As1 ,v127
 .byte   W24
 .byte   N11 ,Fs1 ,v127
 .byte   W12
 .byte   N11 ,Fs1 ,v127
 .byte   W12
 .byte   N23 ,Dn1 ,v127
 .byte   N23 ,En1 ,v127
 .byte   N23 ,As1 ,v127
 .byte   W24
 .byte   N11 ,Cn1 ,v127
 .byte   N11 ,Cn1 ,v127
 .byte   N11 ,Fs1 ,v127
 .byte   W12
 .byte   N11 ,Fs1 ,v127
 .byte   W12
@  #04 @060   ----------------------------------------
 .byte   VOICE , 124
 .byte   VOL , 50*song04_mvl/mxv
 .byte   MODT 1
 .byte   N23 ,Cn1 ,v127
 .byte   N23 ,Cn1 ,v127
 .byte   N23 ,As1 ,v127
 .byte   W24
 .byte   N11 ,Fs1 ,v127
 .byte   W12
 .byte   N11 ,Fs1 ,v127
 .byte   W12
 .byte   N23 ,Dn1 ,v127
 .byte   N23 ,En1 ,v127
 .byte   N23 ,As1 ,v127
 .byte   W24
 .byte   N23 ,Cn1 ,v127
 .byte   N23 ,Cn1 ,v127
 .byte   N11 ,Fs1 ,v127
 .byte   W12
 .byte   N11 ,Fs1 ,v127
 .byte   W12
@  #04 @061   ----------------------------------------
 .byte   N23 ,Cn1 ,v127
 .byte   N23 ,Cn1 ,v127
 .byte   N23 ,As1 ,v127
 .byte   W24
 .byte   N11 ,Fs1 ,v127
 .byte   W12
 .byte   N11 ,Fs1 ,v127
 .byte   W12
 .byte   N23 ,Dn1 ,v127
 .byte   N23 ,En1 ,v127
 .byte   N23 ,As1 ,v127
 .byte   W24
 .byte   N11 ,Cn1 ,v127
 .byte   N11 ,Cn1 ,v127
 .byte   N11 ,Fs1 ,v127
 .byte   W12
 .byte   N11 ,Fs1 ,v127
 .byte   W12
@  #04 @062   ----------------------------------------
 .byte   VOICE , 124
 .byte   VOL , 50*song04_mvl/mxv
 .byte   MODT 1
 .byte   N23 ,Cn1 ,v127
 .byte   N23 ,Cn1 ,v127
 .byte   N23 ,As1 ,v127
 .byte   W24
 .byte   N11 ,Fs1 ,v127
 .byte   W12
 .byte   N11 ,Fs1 ,v127
 .byte   W12
 .byte   N23 ,Dn1 ,v127
 .byte   N23 ,En1 ,v127
 .byte   N23 ,As1 ,v127
 .byte   W24
 .byte   N23 ,Cn1 ,v127
 .byte   N23 ,Cn1 ,v127
 .byte   N11 ,Fs1 ,v127
 .byte   W12
 .byte   N11 ,Fs1 ,v127
 .byte   W12
@  #04 @063   ----------------------------------------
 .byte   N23 ,Cn1 ,v127
 .byte   N23 ,Cn1 ,v127
 .byte   N23 ,As1 ,v127
 .byte   W24
 .byte   N11 ,Fs1 ,v127
 .byte   W12
 .byte   N11 ,Fs1 ,v127
 .byte   W12
 .byte   N23 ,Dn1 ,v127
 .byte   N23 ,En1 ,v127
 .byte   N23 ,As1 ,v127
 .byte   W24
 .byte   N11 ,Cn1 ,v127
 .byte   N11 ,Cn1 ,v127
 .byte   N11 ,Fs1 ,v127
 .byte   W12
 .byte   N11 ,Fs1 ,v127
 .byte   W12
@  #04 @064   ----------------------------------------
 .byte   VOICE , 124
 .byte   VOL , 50*song04_mvl/mxv
 .byte   MODT 1
 .byte   N23 ,Cn1 ,v127
 .byte   N23 ,Cn1 ,v127
 .byte   N23 ,As1 ,v127
 .byte   W24
 .byte   N11 ,Fs1 ,v127
 .byte   W12
 .byte   N11 ,Fs1 ,v127
 .byte   W12
 .byte   N23 ,Dn1 ,v127
 .byte   N23 ,En1 ,v127
 .byte   N23 ,As1 ,v127
 .byte   W24
 .byte   N23 ,Cn1 ,v127
 .byte   N23 ,Cn1 ,v127
 .byte   N11 ,Fs1 ,v127
 .byte   W12
 .byte   N11 ,Fs1 ,v127
 .byte   W12
@  #04 @065   ----------------------------------------
 .byte   N23 ,Cn1 ,v127
 .byte   N23 ,Cn1 ,v127
 .byte   N23 ,As1 ,v127
 .byte   W24
 .byte   N11 ,Fs1 ,v127
 .byte   W12
 .byte   N11 ,Fs1 ,v127
 .byte   W12
 .byte   N23 ,Dn1 ,v127
 .byte   N23 ,En1 ,v127
 .byte   N23 ,As1 ,v127
 .byte   W24
 .byte   N11 ,Cn1 ,v127
 .byte   N11 ,Cn1 ,v127
 .byte   N11 ,Fs1 ,v127
 .byte   W12
 .byte   N11 ,Fs1 ,v127
 .byte   W12
@  #04 @066   ----------------------------------------
 .byte   VOICE , 124
 .byte   VOL , 50*song04_mvl/mxv
 .byte   MODT 1
 .byte   N23 ,Cn1 ,v127
 .byte   N23 ,Cn1 ,v127
 .byte   N23 ,As1 ,v127
 .byte   W24
 .byte   N11 ,Fs1 ,v127
 .byte   W12
 .byte   N11 ,Fs1 ,v127
 .byte   W12
 .byte   N23 ,Dn1 ,v127
 .byte   N23 ,En1 ,v127
 .byte   N23 ,As1 ,v127
 .byte   W24
 .byte   N23 ,Cn1 ,v127
 .byte   N23 ,Cn1 ,v127
 .byte   N11 ,Fs1 ,v127
 .byte   W12
 .byte   N11 ,Fs1 ,v127
 .byte   W12
@  #04 @067   ----------------------------------------
 .byte   N23 ,Cn1 ,v127
 .byte   N23 ,Cn1 ,v127
 .byte   N23 ,As1 ,v127
 .byte   W24
 .byte   N11 ,Fs1 ,v127
 .byte   W12
 .byte   N11 ,Fs1 ,v127
 .byte   W12
 .byte   N23 ,Dn1 ,v127
 .byte   N23 ,En1 ,v127
 .byte   N23 ,As1 ,v127
 .byte   W24
 .byte   N11 ,Cn1 ,v127
 .byte   N11 ,Cn1 ,v127
 .byte   N11 ,Fs1 ,v127
 .byte   W12
 .byte   N11 ,Fs1 ,v127
 .byte   W12
@  #04 @068   ----------------------------------------
 .byte   VOICE , 124
 .byte   VOL , 50*song04_mvl/mxv
 .byte   MODT 1
 .byte   N23 ,Cn1 ,v127
 .byte   N23 ,Cn1 ,v127
 .byte   N23 ,As1 ,v127
 .byte   W24
 .byte   N11 ,Fs1 ,v127
 .byte   W12
 .byte   N11 ,Fs1 ,v127
 .byte   W12
 .byte   N23 ,Dn1 ,v127
 .byte   N23 ,En1 ,v127
 .byte   N23 ,As1 ,v127
 .byte   W24
 .byte   N23 ,Cn1 ,v127
 .byte   N23 ,Cn1 ,v127
 .byte   N11 ,Fs1 ,v127
 .byte   W12
 .byte   N11 ,Fs1 ,v127
 .byte   W12
@  #04 @069   ----------------------------------------
 .byte   N23 ,Cn1 ,v127
 .byte   N23 ,Cn1 ,v127
 .byte   N23 ,As1 ,v127
 .byte   W24
 .byte   N11 ,Fs1 ,v127
 .byte   W12
 .byte   N11 ,Fs1 ,v127
 .byte   W12
 .byte   N23 ,Dn1 ,v127
 .byte   N23 ,En1 ,v127
 .byte   N23 ,As1 ,v127
 .byte   W24
 .byte   N11 ,Cn1 ,v127
 .byte   N11 ,Cn1 ,v127
 .byte   N11 ,Fs1 ,v127
 .byte   W12
 .byte   N11 ,Fs1 ,v127
 .byte   W12
@  #04 @070   ----------------------------------------
 .byte   VOICE , 124
 .byte   VOL , 50*song04_mvl/mxv
 .byte   MODT 1
 .byte   N23 ,Cn1 ,v127
 .byte   N23 ,Cn1 ,v127
 .byte   N23 ,As1 ,v127
 .byte   W24
 .byte   N11 ,Fs1 ,v127
 .byte   W12
 .byte   N11 ,Fs1 ,v127
 .byte   W12
 .byte   N23 ,Dn1 ,v127
 .byte   N23 ,En1 ,v127
 .byte   N23 ,As1 ,v127
 .byte   W24
 .byte   N23 ,Cn1 ,v127
 .byte   N23 ,Cn1 ,v127
 .byte   N11 ,Fs1 ,v127
 .byte   W12
 .byte   N11 ,Fs1 ,v127
 .byte   W12
@  #04 @071   ----------------------------------------
 .byte   N23 ,Cn1 ,v127
 .byte   N23 ,Cn1 ,v127
 .byte   N23 ,As1 ,v127
 .byte   W24
 .byte   N11 ,Fs1 ,v127
 .byte   W12
 .byte   N11 ,Fs1 ,v127
 .byte   W12
 .byte   N23 ,Dn1 ,v127
 .byte   N23 ,En1 ,v127
 .byte   N23 ,As1 ,v127
 .byte   W24
 .byte   N11 ,Cn1 ,v127
 .byte   N11 ,Cn1 ,v127
 .byte   N11 ,Fs1 ,v127
 .byte   W12
 .byte   N11 ,Fs1 ,v127
 .byte   W12
@  #04 @072   ----------------------------------------
 .byte   VOICE , 124
 .byte   VOL , 50*song04_mvl/mxv
 .byte   MODT 1
 .byte   N23 ,Cn1 ,v127
 .byte   N23 ,Cn1 ,v127
 .byte   N23 ,As1 ,v127
 .byte   W24
 .byte   N11 ,Fs1 ,v127
 .byte   W12
 .byte   N11 ,Fs1 ,v127
 .byte   W12
 .byte   N11 ,Dn1 ,v127
 .byte   N11 ,En1 ,v127
 .byte   N11 ,As1 ,v127
 .byte   W12
 .byte   N11 ,Dn1 ,v127
 .byte   N11 ,En1 ,v127
 .byte   W12
 .byte   N23 ,Cn1 ,v127
 .byte   N23 ,Cn1 ,v127
 .byte   N11 ,Dn1 ,v127
 .byte   N11 ,En1 ,v127
 .byte   N11 ,Fs1 ,v127
 .byte   W12
 .byte   N11 ,Dn1 ,v127
 .byte   N11 ,En1 ,v127
 .byte   N11 ,Fs1 ,v127
 .byte   W12
@  #04 @073   ----------------------------------------
 .byte   N11 ,Cn1 ,v127
 .byte   N11 ,Cn1 ,v127
 .byte   N11 ,Fs1 ,v127
 .byte   N11 ,An2 ,v127
 .byte   W12
 .byte   N11 ,Gs1 ,v127
 .byte   W12
 .byte   N11 ,As1 ,v127
 .byte   W12
 .byte   N11 ,Gs1 ,v127
 .byte   W12
 .byte   N11 ,Dn1 ,v127
 .byte   N11 ,En1 ,v127
 .byte   N11 ,Fs1 ,v127
 .byte   W12
 .byte   N11 ,Gs1 ,v127
 .byte   W12
 .byte   N11 ,Cn1 ,v127
 .byte   N11 ,Cn1 ,v127
 .byte   N11 ,As1 ,v127
 .byte   W12
 .byte   N11 ,Gs1 ,v127
 .byte   W12
@  #04 @074   ----------------------------------------
 .byte   VOICE , 124
 .byte   VOL , 50*song04_mvl/mxv
 .byte   MODT 1
 .byte   N11 ,Cn1 ,v127
 .byte   N11 ,Cn1 ,v127
 .byte   N11 ,Fs1 ,v127
 .byte   W12
 .byte   N11 ,Dn1 ,v127
 .byte   N11 ,En1 ,v127
 .byte   N11 ,Gs1 ,v127
 .byte   W12
 .byte   N11 ,As1 ,v127
 .byte   W12
 .byte   N11 ,Gs1 ,v127
 .byte   W12
 .byte   N11 ,Dn1 ,v127
 .byte   N11 ,En1 ,v127
 .byte   N11 ,Fs1 ,v127
 .byte   W12
 .byte   N11 ,Gs1 ,v127
 .byte   W12
 .byte   N11 ,Cn1 ,v127
 .byte   N11 ,Cn1 ,v127
 .byte   N11 ,As1 ,v127
 .byte   W12
 .byte   N11 ,Gs1 ,v127
 .byte   W12
@  #04 @075   ----------------------------------------
 .byte   N11 ,Cn1 ,v127
 .byte   N11 ,Cn1 ,v127
 .byte   N11 ,Fs1 ,v127
 .byte   W12
 .byte   N11 ,Gs1 ,v127
 .byte   W12
 .byte   N11 ,As1 ,v127
 .byte   W12
 .byte   N11 ,Gs1 ,v127
 .byte   W12
 .byte   N11 ,Dn1 ,v127
 .byte   N11 ,En1 ,v127
 .byte   N11 ,Fs1 ,v127
 .byte   W12
 .byte   N11 ,Gs1 ,v127
 .byte   W12
 .byte   N11 ,Cn1 ,v127
 .byte   N11 ,Cn1 ,v127
 .byte   N11 ,As1 ,v127
 .byte   W12
 .byte   N11 ,Gs1 ,v127
 .byte   W12
@  #04 @076   ----------------------------------------
 .byte   VOICE , 124
 .byte   VOL , 50*song04_mvl/mxv
 .byte   MODT 1
 .byte   N11 ,Cn1 ,v127
 .byte   N11 ,Cn1 ,v127
 .byte   N11 ,Fs1 ,v127
 .byte   W12
 .byte   N11 ,Dn1 ,v127
 .byte   N11 ,En1 ,v127
 .byte   N11 ,Gs1 ,v127
 .byte   W12
 .byte   N11 ,As1 ,v127
 .byte   W12
 .byte   N11 ,Gs1 ,v127
 .byte   W12
 .byte   N11 ,Dn1 ,v127
 .byte   N11 ,En1 ,v127
 .byte   N11 ,Fs1 ,v127
 .byte   W12
 .byte   N11 ,Gs1 ,v127
 .byte   W12
 .byte   N11 ,Cn1 ,v127
 .byte   N11 ,Cn1 ,v127
 .byte   N11 ,As1 ,v127
 .byte   W12
 .byte   N11 ,Gs1 ,v127
 .byte   W12
@  #04 @077   ----------------------------------------
 .byte   N11 ,Cn1 ,v127
 .byte   N11 ,Cn1 ,v127
 .byte   N11 ,Fs1 ,v127
 .byte   W12
 .byte   N11 ,Gs1 ,v127
 .byte   W12
 .byte   N11 ,As1 ,v127
 .byte   W12
 .byte   N11 ,Gs1 ,v127
 .byte   W12
 .byte   N11 ,Dn1 ,v127
 .byte   N11 ,En1 ,v127
 .byte   N11 ,Fs1 ,v127
 .byte   W12
 .byte   N11 ,Gs1 ,v127
 .byte   W12
 .byte   N11 ,Cn1 ,v127
 .byte   N11 ,Cn1 ,v127
 .byte   N11 ,As1 ,v127
 .byte   W12
 .byte   N11 ,Gs1 ,v127
 .byte   W12
@  #04 @078   ----------------------------------------
 .byte   VOICE , 124
 .byte   VOL , 50*song04_mvl/mxv
 .byte   MODT 1
 .byte   N11 ,Cn1 ,v127
 .byte   N11 ,Cn1 ,v127
 .byte   N11 ,Fs1 ,v127
 .byte   W12
 .byte   N11 ,Dn1 ,v127
 .byte   N11 ,En1 ,v127
 .byte   N11 ,Gs1 ,v127
 .byte   W12
 .byte   N11 ,As1 ,v127
 .byte   W12
 .byte   N11 ,Gs1 ,v127
 .byte   W12
 .byte   N11 ,Dn1 ,v127
 .byte   N11 ,En1 ,v127
 .byte   N11 ,Fs1 ,v127
 .byte   W12
 .byte   N11 ,Gs1 ,v127
 .byte   W12
 .byte   N11 ,Cn1 ,v127
 .byte   N11 ,Cn1 ,v127
 .byte   N11 ,As1 ,v127
 .byte   W12
 .byte   N11 ,Gs1 ,v127
 .byte   W12
@  #04 @079   ----------------------------------------
 .byte   N11 ,Cn1 ,v127
 .byte   N11 ,Cn1 ,v127
 .byte   N11 ,Fs1 ,v127
 .byte   W12
 .byte   N11 ,Gs1 ,v127
 .byte   W12
 .byte   N11 ,As1 ,v127
 .byte   W12
 .byte   N11 ,Gs1 ,v127
 .byte   W12
 .byte   N11 ,Dn1 ,v127
 .byte   N11 ,En1 ,v127
 .byte   N11 ,Fs1 ,v127
 .byte   W12
 .byte   N11 ,Gs1 ,v127
 .byte   W12
 .byte   N11 ,Cn1 ,v127
 .byte   N11 ,Cn1 ,v127
 .byte   N11 ,As1 ,v127
 .byte   W12
 .byte   N11 ,Gs1 ,v127
 .byte   W12
@  #04 @080   ----------------------------------------
 .byte   VOICE , 124
 .byte   VOL , 50*song04_mvl/mxv
 .byte   MODT 1
 .byte   N11 ,Cn1 ,v127
 .byte   N11 ,Cn1 ,v127
 .byte   N11 ,Fs1 ,v127
 .byte   W12
 .byte   N11 ,Dn1 ,v127
 .byte   N11 ,En1 ,v127
 .byte   N11 ,Gs1 ,v127
 .byte   W12
 .byte   N11 ,As1 ,v127
 .byte   W12
 .byte   N11 ,Gs1 ,v127
 .byte   W12
 .byte   N11 ,Dn1 ,v127
 .byte   N11 ,En1 ,v127
 .byte   N11 ,Fs1 ,v127
 .byte   W12
 .byte   N11 ,Dn1 ,v127
 .byte   N11 ,En1 ,v127
 .byte   N11 ,Gs1 ,v127
 .byte   W12
 .byte   N11 ,Cn1 ,v127
 .byte   N11 ,Cn1 ,v127
 .byte   N11 ,Dn1 ,v127
 .byte   N11 ,En1 ,v127
 .byte   N11 ,As1 ,v127
 .byte   W12
 .byte   N11 ,Dn1 ,v127
 .byte   N11 ,En1 ,v127
 .byte   N11 ,Gs1 ,v127
 .byte   W12
@  #04 @081   ----------------------------------------
 .byte   N11 ,Cn1 ,v127
 .byte   N11 ,Cn1 ,v127
 .byte   N11 ,Fs1 ,v127
 .byte   N11 ,An2 ,v127
 .byte   W12
 .byte   N11 ,Gs1 ,v127
 .byte   W12
 .byte   N11 ,As1 ,v127
 .byte   W12
 .byte   N11 ,Gs1 ,v127
 .byte   W12
 .byte   N11 ,Dn1 ,v127
 .byte   N11 ,En1 ,v127
 .byte   N11 ,Fs1 ,v127
 .byte   W12
 .byte   N11 ,Gs1 ,v127
 .byte   W12
 .byte   N11 ,Cn1 ,v127
 .byte   N11 ,Cn1 ,v127
 .byte   N11 ,As1 ,v127
 .byte   W12
 .byte   N11 ,Gs1 ,v127
 .byte   W12
@  #04 @082   ----------------------------------------
 .byte   VOICE , 124
 .byte   VOL , 50*song04_mvl/mxv
 .byte   MODT 1
 .byte   N11 ,Cn1 ,v127
 .byte   N11 ,Cn1 ,v127
 .byte   N11 ,Fs1 ,v127
 .byte   W12
 .byte   N11 ,Dn1 ,v127
 .byte   N11 ,En1 ,v127
 .byte   N11 ,Gs1 ,v127
 .byte   W12
 .byte   N11 ,As1 ,v127
 .byte   W12
 .byte   N11 ,Gs1 ,v127
 .byte   W12
 .byte   N11 ,Dn1 ,v127
 .byte   N11 ,En1 ,v127
 .byte   N11 ,Fs1 ,v127
 .byte   W12
 .byte   N11 ,Gs1 ,v127
 .byte   W12
 .byte   N11 ,Cn1 ,v127
 .byte   N11 ,Cn1 ,v127
 .byte   N11 ,As1 ,v127
 .byte   W12
 .byte   N11 ,Gs1 ,v127
 .byte   W12
@  #04 @083   ----------------------------------------
 .byte   N11 ,Cn1 ,v127
 .byte   N11 ,Cn1 ,v127
 .byte   N11 ,Fs1 ,v127
 .byte   W12
 .byte   N11 ,Gs1 ,v127
 .byte   W12
 .byte   N11 ,As1 ,v127
 .byte   W12
 .byte   N11 ,Gs1 ,v127
 .byte   W12
 .byte   N11 ,Dn1 ,v127
 .byte   N11 ,En1 ,v127
 .byte   N11 ,Fs1 ,v127
 .byte   W12
 .byte   N11 ,Gs1 ,v127
 .byte   W12
 .byte   N11 ,Cn1 ,v127
 .byte   N11 ,Cn1 ,v127
 .byte   N11 ,As1 ,v127
 .byte   W12
 .byte   N11 ,Gs1 ,v127
 .byte   W12
@  #04 @084   ----------------------------------------
 .byte   VOICE , 124
 .byte   VOL , 50*song04_mvl/mxv
 .byte   MODT 1
 .byte   N11 ,Cn1 ,v127
 .byte   N11 ,Cn1 ,v127
 .byte   N11 ,Fs1 ,v127
 .byte   W12
 .byte   N11 ,Dn1 ,v127
 .byte   N11 ,En1 ,v127
 .byte   N11 ,Gs1 ,v127
 .byte   W12
 .byte   N11 ,As1 ,v127
 .byte   W12
 .byte   N11 ,Gs1 ,v127
 .byte   W12
 .byte   N11 ,Dn1 ,v127
 .byte   N11 ,En1 ,v127
 .byte   N11 ,Fs1 ,v127
 .byte   W12
 .byte   N11 ,Gs1 ,v127
 .byte   W12
 .byte   N11 ,Cn1 ,v127
 .byte   N11 ,Cn1 ,v127
 .byte   N11 ,As1 ,v127
 .byte   W12
 .byte   N11 ,Gs1 ,v127
 .byte   W12
@  #04 @085   ----------------------------------------
 .byte   N11 ,Cn1 ,v127
 .byte   N11 ,Cn1 ,v127
 .byte   N11 ,Fs1 ,v127
 .byte   W12
 .byte   N11 ,Gs1 ,v127
 .byte   W12
 .byte   N11 ,As1 ,v127
 .byte   W12
 .byte   N11 ,Gs1 ,v127
 .byte   W12
 .byte   N11 ,Dn1 ,v127
 .byte   N11 ,En1 ,v127
 .byte   N11 ,Fs1 ,v127
 .byte   W12
 .byte   N11 ,Gs1 ,v127
 .byte   W12
 .byte   N11 ,Cn1 ,v127
 .byte   N11 ,Cn1 ,v127
 .byte   N11 ,As1 ,v127
 .byte   W12
 .byte   N11 ,Gs1 ,v127
 .byte   W12
@  #04 @086   ----------------------------------------
 .byte   VOICE , 124
 .byte   VOL , 50*song04_mvl/mxv
 .byte   MODT 1
 .byte   N11 ,Cn1 ,v127
 .byte   N11 ,Cn1 ,v127
 .byte   N11 ,Fs1 ,v127
 .byte   W12
 .byte   N11 ,Dn1 ,v127
 .byte   N11 ,En1 ,v127
 .byte   N11 ,Gs1 ,v127
 .byte   W12
 .byte   N11 ,As1 ,v127
 .byte   W12
 .byte   N11 ,Gs1 ,v127
 .byte   W12
 .byte   N11 ,Dn1 ,v127
 .byte   N11 ,En1 ,v127
 .byte   N11 ,Fs1 ,v127
 .byte   W12
 .byte   N11 ,Gs1 ,v127
 .byte   W12
 .byte   N11 ,Cn1 ,v127
 .byte   N11 ,Cn1 ,v127
 .byte   N11 ,As1 ,v127
 .byte   W12
 .byte   N11 ,Gs1 ,v127
 .byte   W12
@  #04 @087   ----------------------------------------
 .byte   N11 ,Cn1 ,v127
 .byte   N11 ,Cn1 ,v127
 .byte   N11 ,Fs1 ,v127
 .byte   W12
 .byte   N11 ,Gs1 ,v127
 .byte   W12
 .byte   N11 ,As1 ,v127
 .byte   W12
 .byte   N11 ,Gs1 ,v127
 .byte   W12
 .byte   N11 ,Dn1 ,v127
 .byte   N11 ,En1 ,v127
 .byte   N11 ,Fs1 ,v127
 .byte   W12
 .byte   N11 ,Gs1 ,v127
 .byte   W12
 .byte   N11 ,Cn1 ,v127
 .byte   N11 ,Cn1 ,v127
 .byte   N11 ,As1 ,v127
 .byte   W12
 .byte   N11 ,Gs1 ,v127
 .byte   W12
@  #04 @088   ----------------------------------------
 .byte   VOICE , 124
 .byte   VOL , 50*song04_mvl/mxv
 .byte   MODT 1
 .byte   N11 ,Cn1 ,v127
 .byte   N11 ,Cn1 ,v127
 .byte   N11 ,Fs1 ,v127
 .byte   W12
 .byte   N11 ,Dn1 ,v127
 .byte   N11 ,En1 ,v127
 .byte   N11 ,Gs1 ,v127
 .byte   W12
 .byte   N11 ,As1 ,v127
 .byte   W12
 .byte   N11 ,Gs1 ,v127
 .byte   W12
 .byte   N11 ,Dn1 ,v127
 .byte   N11 ,En1 ,v127
 .byte   N11 ,Fs1 ,v127
 .byte   W12
 .byte   N11 ,Dn1 ,v127
 .byte   N11 ,En1 ,v127
 .byte   N11 ,Gs1 ,v127
 .byte   W12
 .byte   N11 ,Cn1 ,v127
 .byte   N11 ,Cn1 ,v127
 .byte   N11 ,Dn1 ,v127
 .byte   N11 ,En1 ,v127
 .byte   N11 ,As1 ,v127
 .byte   W12
 .byte   N11 ,Dn1 ,v127
 .byte   N11 ,En1 ,v127
 .byte   N11 ,Gs1 ,v127
 .byte   W12
@  #04 @089   ----------------------------------------
 .byte   N23 ,Cn1 ,v127
 .byte   N23 ,Cn1 ,v127
 .byte   N23 ,As1 ,v127
 .byte   N23 ,An2 ,v127
 .byte   W24
 .byte   N11 ,Fs1 ,v127
 .byte   W12
 .byte   N11 ,Fs1 ,v127
 .byte   W12
 .byte   N23 ,Dn1 ,v127
 .byte   N23 ,En1 ,v127
 .byte   N23 ,As1 ,v127
 .byte   W24
 .byte   N11 ,Cn1 ,v127
 .byte   N11 ,Cn1 ,v127
 .byte   N11 ,Fs1 ,v127
 .byte   W12
 .byte   N11 ,Fs1 ,v127
 .byte   W12
@  #04 @090   ----------------------------------------
 .byte   VOICE , 124
 .byte   VOL , 50*song04_mvl/mxv
 .byte   MODT 1
 .byte   N23 ,Cn1 ,v127
 .byte   N23 ,Cn1 ,v127
 .byte   N23 ,As1 ,v127
 .byte   W24
 .byte   N11 ,Fs1 ,v127
 .byte   W12
 .byte   N11 ,Fs1 ,v127
 .byte   W12
 .byte   N23 ,Dn1 ,v127
 .byte   N23 ,En1 ,v127
 .byte   N23 ,As1 ,v127
 .byte   W24
 .byte   N23 ,Cn1 ,v127
 .byte   N23 ,Cn1 ,v127
 .byte   N11 ,Fs1 ,v127
 .byte   W12
 .byte   N11 ,Fs1 ,v127
 .byte   W12
@  #04 @091   ----------------------------------------
 .byte   N23 ,Cn1 ,v127
 .byte   N23 ,Cn1 ,v127
 .byte   N23 ,As1 ,v127
 .byte   W24
 .byte   N11 ,Fs1 ,v127
 .byte   W12
 .byte   N11 ,Fs1 ,v127
 .byte   W12
 .byte   N23 ,Dn1 ,v127
 .byte   N23 ,En1 ,v127
 .byte   N23 ,As1 ,v127
 .byte   W24
 .byte   N11 ,Cn1 ,v127
 .byte   N11 ,Cn1 ,v127
 .byte   N11 ,Fs1 ,v127
 .byte   W12
 .byte   N11 ,Fs1 ,v127
 .byte   W12
@  #04 @092   ----------------------------------------
 .byte   VOICE , 124
 .byte   VOL , 50*song04_mvl/mxv
 .byte   MODT 1
 .byte   N23 ,Cn1 ,v127
 .byte   N23 ,Cn1 ,v127
 .byte   N23 ,As1 ,v127
 .byte   W24
 .byte   N11 ,Fs1 ,v127
 .byte   W12
 .byte   N11 ,Fs1 ,v127
 .byte   W12
 .byte   N23 ,Dn1 ,v127
 .byte   N23 ,En1 ,v127
 .byte   N23 ,As1 ,v127
 .byte   W24
 .byte   N23 ,Cn1 ,v127
 .byte   N23 ,Cn1 ,v127
 .byte   N11 ,Fs1 ,v127
 .byte   W12
 .byte   N11 ,Fs1 ,v127
 .byte   W12
@  #04 @093   ----------------------------------------
 .byte   N23 ,Cn1 ,v127
 .byte   N23 ,Cn1 ,v127
 .byte   N23 ,As1 ,v127
 .byte   W24
 .byte   N11 ,Fs1 ,v127
 .byte   W12
 .byte   N11 ,Fs1 ,v127
 .byte   W12
 .byte   N23 ,Dn1 ,v127
 .byte   N23 ,En1 ,v127
 .byte   N23 ,As1 ,v127
 .byte   W24
 .byte   N11 ,Cn1 ,v127
 .byte   N11 ,Cn1 ,v127
 .byte   N11 ,Fs1 ,v127
 .byte   W12
 .byte   N11 ,Fs1 ,v127
 .byte   W12
@  #04 @094   ----------------------------------------
 .byte   VOICE , 124
 .byte   VOL , 50*song04_mvl/mxv
 .byte   MODT 1
 .byte   N23 ,Cn1 ,v127
 .byte   N23 ,Cn1 ,v127
 .byte   N23 ,As1 ,v127
 .byte   W24
 .byte   N11 ,Fs1 ,v127
 .byte   W12
 .byte   N11 ,Fs1 ,v127
 .byte   W12
 .byte   N23 ,Dn1 ,v127
 .byte   N23 ,En1 ,v127
 .byte   N23 ,As1 ,v127
 .byte   W24
 .byte   N23 ,Cn1 ,v127
 .byte   N23 ,Cn1 ,v127
 .byte   N11 ,Fs1 ,v127
 .byte   W12
 .byte   N11 ,Fs1 ,v127
 .byte   W12
@  #04 @095   ----------------------------------------
 .byte   N23 ,Cn1 ,v127
 .byte   N23 ,Cn1 ,v127
 .byte   N23 ,As1 ,v127
 .byte   W24
 .byte   N11 ,Fs1 ,v127
 .byte   W12
 .byte   N11 ,Fs1 ,v127
 .byte   W12
 .byte   N23 ,Dn1 ,v127
 .byte   N23 ,En1 ,v127
 .byte   N23 ,As1 ,v127
 .byte   W24
 .byte   N11 ,Cn1 ,v127
 .byte   N11 ,Cn1 ,v127
 .byte   N11 ,Fs1 ,v127
 .byte   W12
 .byte   N11 ,Fs1 ,v127
 .byte   W12
@  #04 @096   ----------------------------------------
 .byte   VOICE , 124
 .byte   VOL , 50*song04_mvl/mxv
 .byte   MODT 1
 .byte   N23 ,Cn1 ,v127
 .byte   N23 ,Cn1 ,v127
 .byte   N23 ,As1 ,v127
 .byte   W24
 .byte   N11 ,Fs1 ,v127
 .byte   W12
 .byte   N11 ,Fs1 ,v127
 .byte   W12
 .byte   N23 ,Dn1 ,v127
 .byte   N23 ,En1 ,v127
 .byte   N23 ,As1 ,v127
 .byte   W24
 .byte   N23 ,Cn1 ,v127
 .byte   N23 ,Cn1 ,v127
 .byte   N11 ,Fs1 ,v127
 .byte   W12
 .byte   N11 ,Fs1 ,v127
 .byte   W12
@  #04 @097   ----------------------------------------
 .byte   N23 ,Cn1 ,v127
 .byte   N23 ,Cn1 ,v127
 .byte   N23 ,As1 ,v127
 .byte   W24
 .byte   N11 ,Fs1 ,v127
 .byte   W12
 .byte   N11 ,Fs1 ,v127
 .byte   W12
 .byte   N23 ,Dn1 ,v127
 .byte   N23 ,En1 ,v127
 .byte   N23 ,As1 ,v127
 .byte   W24
 .byte   N11 ,Cn1 ,v127
 .byte   N11 ,Cn1 ,v127
 .byte   N11 ,Fs1 ,v127
 .byte   W12
 .byte   N11 ,Fs1 ,v127
 .byte   W12
@  #04 @098   ----------------------------------------
 .byte   VOICE , 124
 .byte   VOL , 50*song04_mvl/mxv
 .byte   MODT 1
 .byte   N23 ,Cn1 ,v127
 .byte   N23 ,Cn1 ,v127
 .byte   N23 ,As1 ,v127
 .byte   W24
 .byte   N11 ,Fs1 ,v127
 .byte   W12
 .byte   N11 ,Fs1 ,v127
 .byte   W12
 .byte   N23 ,Dn1 ,v127
 .byte   N23 ,En1 ,v127
 .byte   N23 ,As1 ,v127
 .byte   W24
 .byte   N23 ,Cn1 ,v127
 .byte   N23 ,Cn1 ,v127
 .byte   N11 ,Fs1 ,v127
 .byte   W12
 .byte   N11 ,Fs1 ,v127
 .byte   W12
@  #04 @099   ----------------------------------------
 .byte   N23 ,Cn1 ,v127
 .byte   N23 ,Cn1 ,v127
 .byte   N23 ,As1 ,v127
 .byte   W24
 .byte   N11 ,Fs1 ,v127
 .byte   W12
 .byte   N11 ,Fs1 ,v127
 .byte   W12
 .byte   N23 ,Dn1 ,v127
 .byte   N23 ,En1 ,v127
 .byte   N23 ,As1 ,v127
 .byte   W24
 .byte   N11 ,Cn1 ,v127
 .byte   N11 ,Cn1 ,v127
 .byte   N11 ,Fs1 ,v127
 .byte   W12
 .byte   N11 ,Fs1 ,v127
 .byte   W12
@  #04 @100   ----------------------------------------
 .byte   VOICE , 124
 .byte   VOL , 50*song04_mvl/mxv
 .byte   MODT 1
 .byte   N23 ,Cn1 ,v127
 .byte   N23 ,Cn1 ,v127
 .byte   N23 ,As1 ,v127
 .byte   W24
 .byte   N11 ,Fs1 ,v127
 .byte   W12
 .byte   N11 ,Fs1 ,v127
 .byte   W12
 .byte   N23 ,Dn1 ,v127
 .byte   N23 ,En1 ,v127
 .byte   N23 ,As1 ,v127
 .byte   W24
 .byte   N23 ,Cn1 ,v127
 .byte   N23 ,Cn1 ,v127
 .byte   N11 ,Fs1 ,v127
 .byte   W12
 .byte   N11 ,Fs1 ,v127
 .byte   W12
@  #04 @101   ----------------------------------------
 .byte   N23 ,Cn1 ,v127
 .byte   N23 ,Cn1 ,v127
 .byte   N23 ,As1 ,v127
 .byte   W24
 .byte   N11 ,Fs1 ,v127
 .byte   W12
 .byte   N11 ,Fs1 ,v127
 .byte   W12
 .byte   N23 ,Dn1 ,v127
 .byte   N23 ,En1 ,v127
 .byte   N23 ,As1 ,v127
 .byte   W24
 .byte   N11 ,Cn1 ,v127
 .byte   N11 ,Cn1 ,v127
 .byte   N11 ,Fs1 ,v127
 .byte   W12
 .byte   N11 ,Fs1 ,v127
 .byte   W12
@  #04 @102   ----------------------------------------
 .byte   VOICE , 124
 .byte   VOL , 50*song04_mvl/mxv
 .byte   MODT 1
 .byte   N23 ,Cn1 ,v127
 .byte   N23 ,Cn1 ,v127
 .byte   N23 ,As1 ,v127
 .byte   W24
 .byte   N11 ,Fs1 ,v127
 .byte   W12
 .byte   N11 ,Fs1 ,v127
 .byte   W12
 .byte   N23 ,Dn1 ,v127
 .byte   N23 ,En1 ,v127
 .byte   N23 ,As1 ,v127
 .byte   W24
 .byte   N23 ,Cn1 ,v127
 .byte   N23 ,Cn1 ,v127
 .byte   N11 ,Fs1 ,v127
 .byte   W12
 .byte   N11 ,Fs1 ,v127
 .byte   W12
@  #04 @103   ----------------------------------------
 .byte   N23 ,Cn1 ,v127
 .byte   N23 ,Cn1 ,v127
 .byte   N23 ,As1 ,v127
 .byte   W24
 .byte   N11 ,Fs1 ,v127
 .byte   W12
 .byte   N11 ,Fs1 ,v127
 .byte   W12
 .byte   N23 ,Dn1 ,v127
 .byte   N23 ,En1 ,v127
 .byte   N23 ,As1 ,v127
 .byte   W24
 .byte   N11 ,Cn1 ,v127
 .byte   N11 ,Cn1 ,v127
 .byte   N11 ,Fs1 ,v127
 .byte   W12
 .byte   N11 ,Fs1 ,v127
 .byte   W12
@  #04 @104   ----------------------------------------
 .byte   VOICE , 124
 .byte   VOL , 50*song04_mvl/mxv
 .byte   MODT 1
 .byte   N23 ,Cn1 ,v127
 .byte   N23 ,Cn1 ,v127
 .byte   N23 ,As1 ,v127
 .byte   W24
 .byte   N11 ,Fs1 ,v127
 .byte   W12
 .byte   N11 ,Fs1 ,v127
 .byte   W12
 .byte   N11 ,Dn1 ,v127
 .byte   N11 ,En1 ,v127
 .byte   N11 ,As1 ,v127
 .byte   W12
 .byte   N11 ,Dn1 ,v127
 .byte   N11 ,En1 ,v127
 .byte   W12
 .byte   N23 ,Cn1 ,v127
 .byte   N23 ,Cn1 ,v127
 .byte   N11 ,Dn1 ,v127
 .byte   N11 ,En1 ,v127
 .byte   N11 ,Fs1 ,v127
 .byte   W12
 .byte   N11 ,Dn1 ,v127
 .byte   N11 ,En1 ,v127
 .byte   N11 ,Fs1 ,v127
 .byte   W12
@  #04 @105   ----------------------------------------
 .byte   N11 ,Cn1 ,v127
 .byte   N11 ,Cn1 ,v127
 .byte   N11 ,Fs1 ,v127
 .byte   N11 ,An2 ,v127
 .byte   W12
 .byte   N11 ,Gs1 ,v127
 .byte   W12
 .byte   N11 ,As1 ,v127
 .byte   W12
 .byte   N11 ,Gs1 ,v127
 .byte   W12
 .byte   N11 ,Dn1 ,v127
 .byte   N11 ,En1 ,v127
 .byte   N11 ,Fs1 ,v127
 .byte   W12
 .byte   N11 ,Gs1 ,v127
 .byte   W12
 .byte   N11 ,Cn1 ,v127
 .byte   N11 ,Cn1 ,v127
 .byte   N11 ,As1 ,v127
 .byte   W12
 .byte   N11 ,Gs1 ,v127
 .byte   W12
@  #04 @106   ----------------------------------------
 .byte   VOICE , 124
 .byte   VOL , 50*song04_mvl/mxv
 .byte   MODT 1
 .byte   N11 ,Cn1 ,v127
 .byte   N11 ,Cn1 ,v127
 .byte   N11 ,Fs1 ,v127
 .byte   W12
 .byte   N11 ,Dn1 ,v127
 .byte   N11 ,En1 ,v127
 .byte   N11 ,Gs1 ,v127
 .byte   W12
 .byte   N11 ,As1 ,v127
 .byte   W12
 .byte   N11 ,Gs1 ,v127
 .byte   W12
 .byte   N11 ,Dn1 ,v127
 .byte   N11 ,En1 ,v127
 .byte   N11 ,Fs1 ,v127
 .byte   W12
 .byte   N11 ,Gs1 ,v127
 .byte   W12
 .byte   N11 ,Cn1 ,v127
 .byte   N11 ,Cn1 ,v127
 .byte   N11 ,As1 ,v127
 .byte   W12
 .byte   N11 ,Gs1 ,v127
 .byte   W12
@  #04 @107   ----------------------------------------
 .byte   N11 ,Cn1 ,v127
 .byte   N11 ,Cn1 ,v127
 .byte   N11 ,Fs1 ,v127
 .byte   W12
 .byte   N11 ,Gs1 ,v127
 .byte   W12
 .byte   N11 ,As1 ,v127
 .byte   W12
 .byte   N11 ,Gs1 ,v127
 .byte   W12
 .byte   N11 ,Dn1 ,v127
 .byte   N11 ,En1 ,v127
 .byte   N11 ,Fs1 ,v127
 .byte   W12
 .byte   N11 ,Gs1 ,v127
 .byte   W12
 .byte   N11 ,Cn1 ,v127
 .byte   N11 ,Cn1 ,v127
 .byte   N11 ,As1 ,v127
 .byte   W12
 .byte   N11 ,Gs1 ,v127
 .byte   W12
@  #04 @108   ----------------------------------------
 .byte   VOICE , 124
 .byte   VOL , 50*song04_mvl/mxv
 .byte   MODT 1
 .byte   N11 ,Cn1 ,v127
 .byte   N11 ,Cn1 ,v127
 .byte   N11 ,Fs1 ,v127
 .byte   W12
 .byte   N11 ,Dn1 ,v127
 .byte   N11 ,En1 ,v127
 .byte   N11 ,Gs1 ,v127
 .byte   W12
 .byte   N11 ,As1 ,v127
 .byte   W12
 .byte   N11 ,Gs1 ,v127
 .byte   W12
 .byte   N11 ,Dn1 ,v127
 .byte   N11 ,En1 ,v127
 .byte   N11 ,Fs1 ,v127
 .byte   W12
 .byte   N11 ,Gs1 ,v127
 .byte   W12
 .byte   N11 ,Cn1 ,v127
 .byte   N11 ,Cn1 ,v127
 .byte   N11 ,As1 ,v127
 .byte   W12
 .byte   N11 ,Gs1 ,v127
 .byte   W12
@  #04 @109   ----------------------------------------
 .byte   N11 ,Cn1 ,v127
 .byte   N11 ,Cn1 ,v127
 .byte   N11 ,Fs1 ,v127
 .byte   W12
 .byte   N11 ,Gs1 ,v127
 .byte   W12
 .byte   N11 ,As1 ,v127
 .byte   W12
 .byte   N11 ,Gs1 ,v127
 .byte   W12
 .byte   N11 ,Dn1 ,v127
 .byte   N11 ,En1 ,v127
 .byte   N11 ,Fs1 ,v127
 .byte   W12
 .byte   N11 ,Gs1 ,v127
 .byte   W12
 .byte   N11 ,Cn1 ,v127
 .byte   N11 ,Cn1 ,v127
 .byte   N11 ,As1 ,v127
 .byte   W12
 .byte   N11 ,Gs1 ,v127
 .byte   W12
@  #04 @110   ----------------------------------------
 .byte   VOICE , 124
 .byte   VOL , 50*song04_mvl/mxv
 .byte   MODT 1
 .byte   N11 ,Cn1 ,v127
 .byte   N11 ,Cn1 ,v127
 .byte   N11 ,Fs1 ,v127
 .byte   W12
 .byte   N11 ,Dn1 ,v127
 .byte   N11 ,En1 ,v127
 .byte   N11 ,Gs1 ,v127
 .byte   W12
 .byte   N11 ,As1 ,v127
 .byte   W12
 .byte   N11 ,Gs1 ,v127
 .byte   W12
 .byte   N11 ,Dn1 ,v127
 .byte   N11 ,En1 ,v127
 .byte   N11 ,Fs1 ,v127
 .byte   W12
 .byte   N11 ,Gs1 ,v127
 .byte   W12
 .byte   N11 ,Cn1 ,v127
 .byte   N11 ,Cn1 ,v127
 .byte   N11 ,As1 ,v127
 .byte   W12
 .byte   N11 ,Gs1 ,v127
 .byte   W12
@  #04 @111   ----------------------------------------
 .byte   N11 ,Cn1 ,v127
 .byte   N11 ,Cn1 ,v127
 .byte   N11 ,Fs1 ,v127
 .byte   W12
 .byte   N11 ,Gs1 ,v127
 .byte   W12
 .byte   N11 ,As1 ,v127
 .byte   W12
 .byte   N11 ,Gs1 ,v127
 .byte   W12
 .byte   N11 ,Dn1 ,v127
 .byte   N11 ,En1 ,v127
 .byte   N11 ,Fs1 ,v127
 .byte   W12
 .byte   N11 ,Gs1 ,v127
 .byte   W12
 .byte   N11 ,Cn1 ,v127
 .byte   N11 ,Cn1 ,v127
 .byte   N11 ,As1 ,v127
 .byte   W12
 .byte   N11 ,Gs1 ,v127
 .byte   W12
@  #04 @112   ----------------------------------------
 .byte   VOICE , 124
 .byte   VOL , 50*song04_mvl/mxv
 .byte   MODT 1
 .byte   N11 ,Cn1 ,v127
 .byte   N11 ,Cn1 ,v127
 .byte   N11 ,Fs1 ,v127
 .byte   W12
 .byte   N11 ,Dn1 ,v127
 .byte   N11 ,En1 ,v127
 .byte   N11 ,Gs1 ,v127
 .byte   W12
 .byte   N11 ,As1 ,v127
 .byte   W12
 .byte   N11 ,Gs1 ,v127
 .byte   W12
 .byte   N11 ,Dn1 ,v127
 .byte   N11 ,En1 ,v127
 .byte   N11 ,Fs1 ,v127
 .byte   W12
 .byte   N11 ,Dn1 ,v127
 .byte   N11 ,En1 ,v127
 .byte   N11 ,Gs1 ,v127
 .byte   W12
 .byte   N11 ,Cn1 ,v127
 .byte   N11 ,Cn1 ,v127
 .byte   N11 ,Dn1 ,v127
 .byte   N11 ,En1 ,v127
 .byte   N11 ,As1 ,v127
 .byte   W12
 .byte   N11 ,Dn1 ,v127
 .byte   N11 ,En1 ,v127
 .byte   N11 ,Gs1 ,v127
 .byte   W12
@  #04 @113   ----------------------------------------
 .byte   N11 ,Cn1 ,v127
 .byte   N11 ,Cn1 ,v127
 .byte   N11 ,Fs1 ,v127
 .byte   N11 ,An2 ,v127
 .byte   W12
 .byte   N11 ,Gs1 ,v127
 .byte   W12
 .byte   N11 ,As1 ,v127
 .byte   W12
 .byte   N11 ,Gs1 ,v127
 .byte   W12
 .byte   N11 ,Dn1 ,v127
 .byte   N11 ,En1 ,v127
 .byte   N11 ,Fs1 ,v127
 .byte   W12
 .byte   N11 ,Gs1 ,v127
 .byte   W12
 .byte   N11 ,Cn1 ,v127
 .byte   N11 ,Cn1 ,v127
 .byte   N11 ,As1 ,v127
 .byte   W12
 .byte   N11 ,Gs1 ,v127
 .byte   W12
@  #04 @114   ----------------------------------------
 .byte   VOICE , 124
 .byte   VOL , 50*song04_mvl/mxv
 .byte   MODT 1
 .byte   N11 ,Cn1 ,v127
 .byte   N11 ,Cn1 ,v127
 .byte   N11 ,Fs1 ,v127
 .byte   W12
 .byte   N11 ,Dn1 ,v127
 .byte   N11 ,En1 ,v127
 .byte   N11 ,Gs1 ,v127
 .byte   W12
 .byte   N11 ,As1 ,v127
 .byte   W12
 .byte   N11 ,Gs1 ,v127
 .byte   W12
 .byte   N11 ,Dn1 ,v127
 .byte   N11 ,En1 ,v127
 .byte   N11 ,Fs1 ,v127
 .byte   W12
 .byte   N11 ,Gs1 ,v127
 .byte   W12
 .byte   N11 ,Cn1 ,v127
 .byte   N11 ,Cn1 ,v127
 .byte   N11 ,As1 ,v127
 .byte   W12
 .byte   N11 ,Gs1 ,v127
 .byte   W12
@  #04 @115   ----------------------------------------
 .byte   N11 ,Cn1 ,v127
 .byte   N11 ,Cn1 ,v127
 .byte   N11 ,Fs1 ,v127
 .byte   W12
 .byte   N11 ,Gs1 ,v127
 .byte   W12
 .byte   N11 ,As1 ,v127
 .byte   W12
 .byte   N11 ,Gs1 ,v127
 .byte   W12
 .byte   N11 ,Dn1 ,v127
 .byte   N11 ,En1 ,v127
 .byte   N11 ,Fs1 ,v127
 .byte   W12
 .byte   N11 ,Gs1 ,v127
 .byte   W12
 .byte   N11 ,Cn1 ,v127
 .byte   N11 ,Cn1 ,v127
 .byte   N11 ,As1 ,v127
 .byte   W12
 .byte   N11 ,Gs1 ,v127
 .byte   W12
@  #04 @116   ----------------------------------------
 .byte   VOICE , 124
 .byte   VOL , 50*song04_mvl/mxv
 .byte   MODT 1
 .byte   N11 ,Cn1 ,v127
 .byte   N11 ,Cn1 ,v127
 .byte   N11 ,Fs1 ,v127
 .byte   W12
 .byte   N11 ,Dn1 ,v127
 .byte   N11 ,En1 ,v127
 .byte   N11 ,Gs1 ,v127
 .byte   W12
 .byte   N11 ,As1 ,v127
 .byte   W12
 .byte   N11 ,Gs1 ,v127
 .byte   W12
 .byte   N11 ,Dn1 ,v127
 .byte   N11 ,En1 ,v127
 .byte   N11 ,Fs1 ,v127
 .byte   W12
 .byte   N11 ,Gs1 ,v127
 .byte   W12
 .byte   N11 ,Cn1 ,v127
 .byte   N11 ,Cn1 ,v127
 .byte   N11 ,As1 ,v127
 .byte   W12
 .byte   N11 ,Gs1 ,v127
 .byte   W12
@  #04 @117   ----------------------------------------
 .byte   N11 ,Cn1 ,v127
 .byte   N11 ,Cn1 ,v127
 .byte   N11 ,Fs1 ,v127
 .byte   W12
 .byte   N11 ,Gs1 ,v127
 .byte   W12
 .byte   N11 ,As1 ,v127
 .byte   W12
 .byte   N11 ,Gs1 ,v127
 .byte   W12
 .byte   N11 ,Dn1 ,v127
 .byte   N11 ,En1 ,v127
 .byte   N11 ,Fs1 ,v127
 .byte   W12
 .byte   N11 ,Gs1 ,v127
 .byte   W12
 .byte   N11 ,Cn1 ,v127
 .byte   N11 ,Cn1 ,v127
 .byte   N11 ,As1 ,v127
 .byte   W12
 .byte   N11 ,Gs1 ,v127
 .byte   W12
@  #04 @118   ----------------------------------------
 .byte   VOICE , 124
 .byte   VOL , 50*song04_mvl/mxv
 .byte   MODT 1
 .byte   N11 ,Cn1 ,v127
 .byte   N11 ,Cn1 ,v127
 .byte   N11 ,Fs1 ,v127
 .byte   W12
 .byte   N11 ,Dn1 ,v127
 .byte   N11 ,En1 ,v127
 .byte   N11 ,Gs1 ,v127
 .byte   W12
 .byte   N11 ,As1 ,v127
 .byte   W12
 .byte   N11 ,Gs1 ,v127
 .byte   W12
 .byte   N11 ,Dn1 ,v127
 .byte   N11 ,En1 ,v127
 .byte   N11 ,Fs1 ,v127
 .byte   W12
 .byte   N11 ,Gs1 ,v127
 .byte   W12
 .byte   N11 ,Cn1 ,v127
 .byte   N11 ,Cn1 ,v127
 .byte   N11 ,As1 ,v127
 .byte   W12
 .byte   N11 ,Gs1 ,v127
 .byte   W12
@  #04 @119   ----------------------------------------
 .byte   N11 ,Cn1 ,v127
 .byte   N11 ,Cn1 ,v127
 .byte   N11 ,Fs1 ,v127
 .byte   W12
 .byte   N11 ,Gs1 ,v127
 .byte   W12
 .byte   N11 ,As1 ,v127
 .byte   W12
 .byte   N11 ,Gs1 ,v127
 .byte   W12
 .byte   N11 ,Dn1 ,v127
 .byte   N11 ,En1 ,v127
 .byte   N11 ,Fs1 ,v127
 .byte   W12
 .byte   N11 ,Gs1 ,v127
 .byte   W12
 .byte   N11 ,Cn1 ,v127
 .byte   N11 ,Cn1 ,v127
 .byte   N11 ,As1 ,v127
 .byte   W12
 .byte   N11 ,Gs1 ,v127
 .byte   W12
@  #04 @120   ----------------------------------------
 .byte   VOICE , 124
 .byte   VOL , 50*song04_mvl/mxv
 .byte   MODT 1
 .byte   N11 ,Cn1 ,v127
 .byte   N11 ,Cn1 ,v127
 .byte   N11 ,Fs1 ,v127
 .byte   W12
 .byte   N11 ,Dn1 ,v127
 .byte   N11 ,En1 ,v127
 .byte   N11 ,Gs1 ,v127
 .byte   W12
 .byte   N11 ,As1 ,v127
 .byte   W12
 .byte   N11 ,Gs1 ,v127
 .byte   W12
 .byte   N11 ,Dn1 ,v127
 .byte   N11 ,En1 ,v127
 .byte   N11 ,Fs1 ,v127
 .byte   W12
 .byte   N11 ,Dn1 ,v127
 .byte   N11 ,En1 ,v127
 .byte   N11 ,Gs1 ,v127
 .byte   W12
 .byte   N11 ,Cn1 ,v127
 .byte   N11 ,Cn1 ,v127
 .byte   N11 ,Dn1 ,v127
 .byte   N11 ,En1 ,v127
 .byte   N11 ,As1 ,v127
 .byte   W12
 .byte   N11 ,Dn1 ,v127
 .byte   N11 ,En1 ,v127
 .byte   N11 ,Gs1 ,v127
 .byte   W12
@  #04 @121   ----------------------------------------
 .byte   N23 ,Cn1 ,v127
 .byte   N23 ,Cn1 ,v127
 .byte   N23 ,As1 ,v127
 .byte   N23 ,An2 ,v127
 .byte   W24
 .byte   N11 ,Fs1 ,v127
 .byte   W12
 .byte   N11 ,Fs1 ,v127
 .byte   W12
 .byte   N23 ,Dn1 ,v127
 .byte   N23 ,En1 ,v127
 .byte   N23 ,As1 ,v127
 .byte   W24
 .byte   N11 ,Cn1 ,v127
 .byte   N11 ,Cn1 ,v127
 .byte   N11 ,Fs1 ,v127
 .byte   W12
 .byte   N11 ,Fs1 ,v127
 .byte   W12
@  #04 @122   ----------------------------------------
 .byte   VOICE , 124
 .byte   VOL , 50*song04_mvl/mxv
 .byte   MODT 1
 .byte   N23 ,Cn1 ,v127
 .byte   N23 ,Cn1 ,v127
 .byte   N23 ,As1 ,v127
 .byte   W24
 .byte   N11 ,Fs1 ,v127
 .byte   W12
 .byte   N11 ,Fs1 ,v127
 .byte   W12
 .byte   N23 ,Dn1 ,v127
 .byte   N23 ,En1 ,v127
 .byte   N23 ,As1 ,v127
 .byte   W24
 .byte   N23 ,Cn1 ,v127
 .byte   N23 ,Cn1 ,v127
 .byte   N11 ,Fs1 ,v127
 .byte   W12
 .byte   N11 ,Fs1 ,v127
 .byte   W12
@  #04 @123   ----------------------------------------
 .byte   N23 ,Cn1 ,v127
 .byte   N23 ,Cn1 ,v127
 .byte   N23 ,As1 ,v127
 .byte   W24
 .byte   N11 ,Fs1 ,v127
 .byte   W12
 .byte   N11 ,Fs1 ,v127
 .byte   W12
 .byte   N23 ,Dn1 ,v127
 .byte   N23 ,En1 ,v127
 .byte   N23 ,As1 ,v127
 .byte   W24
 .byte   N11 ,Cn1 ,v127
 .byte   N11 ,Cn1 ,v127
 .byte   N11 ,Fs1 ,v127
 .byte   W12
 .byte   N11 ,Fs1 ,v127
 .byte   W12
@  #04 @124   ----------------------------------------
 .byte   VOICE , 124
 .byte   VOL , 50*song04_mvl/mxv
 .byte   MODT 1
 .byte   N23 ,Cn1 ,v127
 .byte   N23 ,Cn1 ,v127
 .byte   N23 ,As1 ,v127
 .byte   W24
 .byte   N11 ,Fs1 ,v127
 .byte   W12
 .byte   N11 ,Fs1 ,v127
 .byte   W12
 .byte   N23 ,Dn1 ,v127
 .byte   N23 ,En1 ,v127
 .byte   N23 ,As1 ,v127
 .byte   W24
 .byte   N23 ,Cn1 ,v127
 .byte   N23 ,Cn1 ,v127
 .byte   N11 ,Fs1 ,v127
 .byte   W12
 .byte   N11 ,Fs1 ,v127
 .byte   W12
@  #04 @125   ----------------------------------------
 .byte   N23 ,Cn1 ,v127
 .byte   N23 ,Cn1 ,v127
 .byte   N23 ,As1 ,v127
 .byte   W24
 .byte   N11 ,Fs1 ,v127
 .byte   W12
 .byte   N11 ,Fs1 ,v127
 .byte   W12
 .byte   N23 ,Dn1 ,v127
 .byte   N23 ,En1 ,v127
 .byte   N23 ,As1 ,v127
 .byte   W24
 .byte   N11 ,Cn1 ,v127
 .byte   N11 ,Cn1 ,v127
 .byte   N11 ,Fs1 ,v127
 .byte   W12
 .byte   N11 ,Fs1 ,v127
 .byte   W12
@  #04 @126   ----------------------------------------
 .byte   VOICE , 124
 .byte   VOL , 50*song04_mvl/mxv
 .byte   MODT 1
 .byte   N23 ,Cn1 ,v127
 .byte   N23 ,Cn1 ,v127
 .byte   N23 ,As1 ,v127
 .byte   W24
 .byte   N11 ,Fs1 ,v127
 .byte   W12
 .byte   N11 ,Fs1 ,v127
 .byte   W12
 .byte   N23 ,Dn1 ,v127
 .byte   N23 ,En1 ,v127
 .byte   N23 ,As1 ,v127
 .byte   W24
 .byte   N23 ,Cn1 ,v127
 .byte   N23 ,Cn1 ,v127
 .byte   N11 ,Fs1 ,v127
 .byte   W12
 .byte   N11 ,Fs1 ,v127
 .byte   W12
@  #04 @127   ----------------------------------------
 .byte   N23 ,Cn1 ,v127
 .byte   N23 ,Cn1 ,v127
 .byte   N23 ,As1 ,v127
 .byte   W24
 .byte   N11 ,Fs1 ,v127
 .byte   W12
 .byte   N11 ,Fs1 ,v127
 .byte   W12
 .byte   N23 ,Dn1 ,v127
 .byte   N23 ,En1 ,v127
 .byte   N23 ,As1 ,v127
 .byte   W24
 .byte   N11 ,Cn1 ,v127
 .byte   N11 ,Cn1 ,v127
 .byte   N11 ,Fs1 ,v127
 .byte   W12
 .byte   N11 ,Fs1 ,v127
 .byte   W12
@  #04 @128   ----------------------------------------
 .byte   VOICE , 124
 .byte   VOL , 50*song04_mvl/mxv
 .byte   MODT 1
 .byte   N23 ,Cn1 ,v127
 .byte   N23 ,Cn1 ,v127
 .byte   N23 ,As1 ,v127
 .byte   W24
 .byte   N11 ,Fs1 ,v127
 .byte   W12
 .byte   N11 ,Fs1 ,v127
 .byte   W12
 .byte   N23 ,Dn1 ,v127
 .byte   N23 ,En1 ,v127
 .byte   N23 ,As1 ,v127
 .byte   W24
 .byte   N23 ,Cn1 ,v127
 .byte   N23 ,Cn1 ,v127
 .byte   N11 ,Fs1 ,v127
 .byte   W12
 .byte   N11 ,Fs1 ,v127
 .byte   W12
@  #04 @129   ----------------------------------------
 .byte   N23 ,Cn1 ,v127
 .byte   N23 ,Cn1 ,v127
 .byte   N23 ,As1 ,v127
 .byte   W24
 .byte   N11 ,Fs1 ,v127
 .byte   W12
 .byte   N11 ,Fs1 ,v127
 .byte   W12
 .byte   N23 ,Dn1 ,v127
 .byte   N23 ,En1 ,v127
 .byte   N23 ,As1 ,v127
 .byte   W24
 .byte   N11 ,Cn1 ,v127
 .byte   N11 ,Cn1 ,v127
 .byte   N11 ,Fs1 ,v127
 .byte   W12
 .byte   N11 ,Fs1 ,v127
 .byte   W12
@  #04 @130   ----------------------------------------
 .byte   VOICE , 124
 .byte   VOL , 50*song04_mvl/mxv
 .byte   MODT 1
 .byte   N23 ,Cn1 ,v127
 .byte   N23 ,Cn1 ,v127
 .byte   N23 ,As1 ,v127
 .byte   W24
 .byte   N11 ,Fs1 ,v127
 .byte   W12
 .byte   N11 ,Fs1 ,v127
 .byte   W12
 .byte   N23 ,Dn1 ,v127
 .byte   N23 ,En1 ,v127
 .byte   N23 ,As1 ,v127
 .byte   W24
 .byte   N23 ,Cn1 ,v127
 .byte   N23 ,Cn1 ,v127
 .byte   N11 ,Fs1 ,v127
 .byte   W12
 .byte   N11 ,Fs1 ,v127
 .byte   W12
@  #04 @131   ----------------------------------------
 .byte   N23 ,Cn1 ,v127
 .byte   N23 ,Cn1 ,v127
 .byte   N23 ,As1 ,v127
 .byte   W24
 .byte   N11 ,Fs1 ,v127
 .byte   W12
 .byte   N11 ,Fs1 ,v127
 .byte   W12
 .byte   N23 ,Dn1 ,v127
 .byte   N23 ,En1 ,v127
 .byte   N23 ,As1 ,v127
 .byte   W24
 .byte   N11 ,Cn1 ,v127
 .byte   N11 ,Cn1 ,v127
 .byte   N11 ,Fs1 ,v127
 .byte   W12
 .byte   N11 ,Fs1 ,v127
 .byte   W12
@  #04 @132   ----------------------------------------
 .byte   VOICE , 124
 .byte   VOL , 50*song04_mvl/mxv
 .byte   MODT 1
 .byte   N23 ,Cn1 ,v127
 .byte   N23 ,Cn1 ,v127
 .byte   N23 ,As1 ,v127
 .byte   W24
 .byte   N11 ,Fs1 ,v127
 .byte   W12
 .byte   N11 ,Fs1 ,v127
 .byte   W12
 .byte   N23 ,Dn1 ,v127
 .byte   N23 ,En1 ,v127
 .byte   N23 ,As1 ,v127
 .byte   W24
 .byte   N23 ,Cn1 ,v127
 .byte   N23 ,Cn1 ,v127
 .byte   N11 ,Fs1 ,v127
 .byte   W12
 .byte   N11 ,Fs1 ,v127
 .byte   W12
@  #04 @133   ----------------------------------------
 .byte   N23 ,Cn1 ,v127
 .byte   N23 ,Cn1 ,v127
 .byte   N23 ,As1 ,v127
 .byte   W24
 .byte   N11 ,Fs1 ,v127
 .byte   W12
 .byte   N11 ,Fs1 ,v127
 .byte   W12
 .byte   N23 ,Dn1 ,v127
 .byte   N23 ,En1 ,v127
 .byte   N23 ,As1 ,v127
 .byte   W24
 .byte   N11 ,Cn1 ,v127
 .byte   N11 ,Cn1 ,v127
 .byte   N11 ,Fs1 ,v127
 .byte   W12
 .byte   N11 ,Fs1 ,v127
 .byte   W12
@  #04 @134   ----------------------------------------
 .byte   VOICE , 124
 .byte   VOL , 50*song04_mvl/mxv
 .byte   MODT 1
 .byte   N23 ,Cn1 ,v127
 .byte   N23 ,Cn1 ,v127
 .byte   N23 ,As1 ,v127
 .byte   W24
 .byte   N11 ,Fs1 ,v127
 .byte   W12
 .byte   N11 ,Fs1 ,v127
 .byte   W12
 .byte   N23 ,Dn1 ,v127
 .byte   N23 ,En1 ,v127
 .byte   N23 ,As1 ,v127
 .byte   W24
 .byte   N23 ,Cn1 ,v127
 .byte   N23 ,Cn1 ,v127
 .byte   N11 ,Fs1 ,v127
 .byte   W12
 .byte   N11 ,Fs1 ,v127
 .byte   W12
@  #04 @135   ----------------------------------------
 .byte   N23 ,Cn1 ,v127
 .byte   N23 ,Cn1 ,v127
 .byte   N23 ,As1 ,v127
 .byte   W24
 .byte   N11 ,Fs1 ,v127
 .byte   W12
 .byte   N11 ,Fs1 ,v127
 .byte   W12
 .byte   N23 ,Dn1 ,v127
 .byte   N23 ,En1 ,v127
 .byte   N23 ,As1 ,v127
 .byte   W24
 .byte   N11 ,Cn1 ,v127
 .byte   N11 ,Cn1 ,v127
 .byte   N11 ,Fs1 ,v127
 .byte   W12
 .byte   N11 ,Fs1 ,v127
 .byte   W12
@  #04 @136   ----------------------------------------
 .byte   VOICE , 124
 .byte   VOL , 50*song04_mvl/mxv
 .byte   MODT 1
 .byte   N23 ,Cn1 ,v127
 .byte   N23 ,Cn1 ,v127
 .byte   N23 ,As1 ,v127
 .byte   W24
 .byte   N11 ,Fs1 ,v127
 .byte   W12
 .byte   N11 ,Fs1 ,v127
 .byte   W12
 .byte   N11 ,Dn1 ,v127
 .byte   N11 ,En1 ,v127
 .byte   N11 ,As1 ,v127
 .byte   W12
 .byte   N11 ,Dn1 ,v127
 .byte   N11 ,En1 ,v127
 .byte   W12
 .byte   N23 ,Cn1 ,v127
 .byte   N23 ,Cn1 ,v127
 .byte   N11 ,Dn1 ,v127
 .byte   N11 ,En1 ,v127
 .byte   N11 ,Fs1 ,v127
 .byte   W12
 .byte   N11 ,Dn1 ,v127
 .byte   N11 ,En1 ,v127
 .byte   N11 ,Fs1 ,v127
 .byte   W12
@  #04 @137   ----------------------------------------
 .byte   N23 ,Cn1 ,v127
 .byte   N23 ,Cn1 ,v127
 .byte   N23 ,As1 ,v127
 .byte   N23 ,An2 ,v127
 .byte   W24
 .byte   N11 ,Fs1 ,v127
 .byte   W12
 .byte   N11 ,Fs1 ,v127
 .byte   W12
 .byte   N23 ,Dn1 ,v127
 .byte   N23 ,En1 ,v127
 .byte   N23 ,As1 ,v127
 .byte   W24
 .byte   N11 ,Cn1 ,v127
 .byte   N11 ,Cn1 ,v127
 .byte   N11 ,Fs1 ,v127
 .byte   W12
 .byte   N11 ,Fs1 ,v127
 .byte   W12
@  #04 @138   ----------------------------------------
 .byte   VOICE , 124
 .byte   VOL , 50*song04_mvl/mxv
 .byte   MODT 1
 .byte   N23 ,Cn1 ,v127
 .byte   N23 ,Cn1 ,v127
 .byte   N23 ,As1 ,v127
 .byte   W24
 .byte   N11 ,Fs1 ,v127
 .byte   W12
 .byte   N11 ,Fs1 ,v127
 .byte   W12
 .byte   N23 ,Dn1 ,v127
 .byte   N23 ,En1 ,v127
 .byte   N23 ,As1 ,v127
 .byte   W24
 .byte   N23 ,Cn1 ,v127
 .byte   N23 ,Cn1 ,v127
 .byte   N11 ,Fs1 ,v127
 .byte   W12
 .byte   N11 ,Fs1 ,v127
 .byte   W12
@  #04 @139   ----------------------------------------
 .byte   N23 ,Cn1 ,v127
 .byte   N23 ,Cn1 ,v127
 .byte   N23 ,As1 ,v127
 .byte   W24
 .byte   N11 ,Fs1 ,v127
 .byte   W12
 .byte   N11 ,Fs1 ,v127
 .byte   W12
 .byte   N23 ,Dn1 ,v127
 .byte   N23 ,En1 ,v127
 .byte   N23 ,As1 ,v127
 .byte   W24
 .byte   N11 ,Cn1 ,v127
 .byte   N11 ,Cn1 ,v127
 .byte   N11 ,Fs1 ,v127
 .byte   W12
 .byte   N11 ,Fs1 ,v127
 .byte   W12
@  #04 @140   ----------------------------------------
 .byte   VOICE , 124
 .byte   VOL , 50*song04_mvl/mxv
 .byte   MODT 1
 .byte   N23 ,Cn1 ,v127
 .byte   N23 ,Cn1 ,v127
 .byte   N23 ,As1 ,v127
 .byte   W24
 .byte   N11 ,Fs1 ,v127
 .byte   W12
 .byte   N11 ,Fs1 ,v127
 .byte   W12
 .byte   N23 ,Dn1 ,v127
 .byte   N23 ,En1 ,v127
 .byte   N23 ,As1 ,v127
 .byte   W24
 .byte   N23 ,Cn1 ,v127
 .byte   N23 ,Cn1 ,v127
 .byte   N11 ,Fs1 ,v127
 .byte   W12
 .byte   N11 ,Fs1 ,v127
 .byte   W12
@  #04 @141   ----------------------------------------
 .byte   N23 ,Cn1 ,v127
 .byte   N23 ,Cn1 ,v127
 .byte   N23 ,As1 ,v127
 .byte   W24
 .byte   N11 ,Fs1 ,v127
 .byte   W12
 .byte   N11 ,Fs1 ,v127
 .byte   W12
 .byte   N23 ,Dn1 ,v127
 .byte   N23 ,En1 ,v127
 .byte   N23 ,As1 ,v127
 .byte   W24
 .byte   N11 ,Cn1 ,v127
 .byte   N11 ,Cn1 ,v127
 .byte   N11 ,Fs1 ,v127
 .byte   W12
 .byte   N11 ,Fs1 ,v127
 .byte   W12
@  #04 @142   ----------------------------------------
 .byte   VOICE , 124
 .byte   VOL , 50*song04_mvl/mxv
 .byte   MODT 1
 .byte   N23 ,Cn1 ,v127
 .byte   N23 ,Cn1 ,v127
 .byte   N23 ,As1 ,v127
 .byte   W24
 .byte   N11 ,Fs1 ,v127
 .byte   W12
 .byte   N11 ,Fs1 ,v127
 .byte   W12
 .byte   N23 ,Dn1 ,v127
 .byte   N23 ,En1 ,v127
 .byte   N23 ,As1 ,v127
 .byte   W24
 .byte   N23 ,Cn1 ,v127
 .byte   N23 ,Cn1 ,v127
 .byte   N11 ,Fs1 ,v127
 .byte   W12
 .byte   N11 ,Fs1 ,v127
 .byte   W12
@  #04 @143   ----------------------------------------
 .byte   N23 ,Cn1 ,v127
 .byte   N23 ,Cn1 ,v127
 .byte   N23 ,As1 ,v127
 .byte   W24
 .byte   N11 ,Fs1 ,v127
 .byte   W12
 .byte   N11 ,Fs1 ,v127
 .byte   W12
 .byte   N23 ,Dn1 ,v127
 .byte   N23 ,En1 ,v127
 .byte   N23 ,As1 ,v127
 .byte   W24
 .byte   N11 ,Cn1 ,v127
 .byte   N11 ,Cn1 ,v127
 .byte   N11 ,Fs1 ,v127
 .byte   W12
 .byte   N11 ,Fs1 ,v127
 .byte   W12
@  #04 @144   ----------------------------------------
 .byte   VOICE , 124
 .byte   VOL , 50*song04_mvl/mxv
 .byte   MODT 1
 .byte   N23 ,Cn1 ,v127
 .byte   N23 ,Cn1 ,v127
 .byte   N23 ,As1 ,v127
 .byte   W24
 .byte   N11 ,Fs1 ,v127
 .byte   W12
 .byte   N11 ,Fs1 ,v127
 .byte   W12
 .byte   N23 ,Dn1 ,v127
 .byte   N23 ,En1 ,v127
 .byte   N23 ,As1 ,v127
 .byte   W24
 .byte   N23 ,Cn1 ,v127
 .byte   N23 ,Cn1 ,v127
 .byte   N11 ,Fs1 ,v127
 .byte   W12
 .byte   N11 ,Fs1 ,v127
 .byte   W12
@  #04 @145   ----------------------------------------
 .byte   N23 ,Cn1 ,v127
 .byte   N23 ,Cn1 ,v127
 .byte   N23 ,As1 ,v127
 .byte   W24
 .byte   N11 ,Fs1 ,v127
 .byte   W12
 .byte   N11 ,Fs1 ,v127
 .byte   W12
 .byte   N23 ,Dn1 ,v127
 .byte   N23 ,En1 ,v127
 .byte   N23 ,As1 ,v127
 .byte   W24
 .byte   N11 ,Cn1 ,v127
 .byte   N11 ,Cn1 ,v127
 .byte   N11 ,Fs1 ,v127
 .byte   W12
 .byte   N11 ,Fs1 ,v127
 .byte   W12
@  #04 @146   ----------------------------------------
 .byte   VOICE , 124
 .byte   VOL , 50*song04_mvl/mxv
 .byte   MODT 1
 .byte   N23 ,Cn1 ,v127
 .byte   N23 ,Cn1 ,v127
 .byte   N23 ,As1 ,v127
 .byte   W24
 .byte   N11 ,Fs1 ,v127
 .byte   W12
 .byte   N11 ,Fs1 ,v127
 .byte   W12
 .byte   N23 ,Dn1 ,v127
 .byte   N23 ,En1 ,v127
 .byte   N23 ,As1 ,v127
 .byte   W24
 .byte   N23 ,Cn1 ,v127
 .byte   N23 ,Cn1 ,v127
 .byte   N11 ,Fs1 ,v127
 .byte   W12
 .byte   N11 ,Fs1 ,v127
 .byte   W12
@  #04 @147   ----------------------------------------
 .byte   N23 ,Cn1 ,v127
 .byte   N23 ,Cn1 ,v127
 .byte   N23 ,As1 ,v127
 .byte   W24
 .byte   N11 ,Fs1 ,v127
 .byte   W12
 .byte   N11 ,Fs1 ,v127
 .byte   W12
 .byte   N23 ,Dn1 ,v127
 .byte   N23 ,En1 ,v127
 .byte   N23 ,As1 ,v127
 .byte   W24
 .byte   N11 ,Cn1 ,v127
 .byte   N11 ,Cn1 ,v127
 .byte   N11 ,Fs1 ,v127
 .byte   W12
 .byte   N11 ,Fs1 ,v127
 .byte   W12
@  #04 @148   ----------------------------------------
 .byte   VOICE , 124
 .byte   VOL , 50*song04_mvl/mxv
 .byte   MODT 1
 .byte   N23 ,Cn1 ,v127
 .byte   N23 ,Cn1 ,v127
 .byte   N23 ,As1 ,v127
 .byte   W24
 .byte   N11 ,Fs1 ,v127
 .byte   W12
 .byte   N11 ,Fs1 ,v127
 .byte   W12
 .byte   N23 ,Dn1 ,v127
 .byte   N23 ,En1 ,v127
 .byte   N23 ,As1 ,v127
 .byte   W24
 .byte   N23 ,Cn1 ,v127
 .byte   N23 ,Cn1 ,v127
 .byte   N11 ,Fs1 ,v127
 .byte   W12
 .byte   N11 ,Fs1 ,v127
 .byte   W12
@  #04 @149   ----------------------------------------
 .byte   N23 ,Cn1 ,v127
 .byte   N23 ,Cn1 ,v127
 .byte   N23 ,As1 ,v127
 .byte   W24
 .byte   N11 ,Fs1 ,v127
 .byte   W12
 .byte   N11 ,Fs1 ,v127
 .byte   W12
 .byte   N23 ,Dn1 ,v127
 .byte   N23 ,En1 ,v127
 .byte   N23 ,As1 ,v127
 .byte   W24
 .byte   N11 ,Cn1 ,v127
 .byte   N11 ,Cn1 ,v127
 .byte   N11 ,Fs1 ,v127
 .byte   W12
 .byte   N11 ,Fs1 ,v127
 .byte   W12
@  #04 @150   ----------------------------------------
 .byte   VOICE , 124
 .byte   VOL , 50*song04_mvl/mxv
 .byte   MODT 1
 .byte   N23 ,Cn1 ,v127
 .byte   N23 ,Cn1 ,v127
 .byte   N23 ,As1 ,v127
 .byte   W24
 .byte   N11 ,Fs1 ,v127
 .byte   W12
 .byte   N11 ,Fs1 ,v127
 .byte   W12
 .byte   N23 ,Dn1 ,v127
 .byte   N23 ,En1 ,v127
 .byte   N23 ,As1 ,v127
 .byte   W24
 .byte   N23 ,Cn1 ,v127
 .byte   N23 ,Cn1 ,v127
 .byte   N11 ,Fs1 ,v127
 .byte   W12
 .byte   N11 ,Fs1 ,v127
 .byte   W12
@  #04 @151   ----------------------------------------
 .byte   N23 ,Cn1 ,v127
 .byte   N23 ,Cn1 ,v127
 .byte   N23 ,As1 ,v127
 .byte   W24
 .byte   N11 ,Fs1 ,v127
 .byte   W12
 .byte   N11 ,Fs1 ,v127
 .byte   W12
 .byte   N23 ,Dn1 ,v127
 .byte   N23 ,En1 ,v127
 .byte   N23 ,As1 ,v127
 .byte   W24
 .byte   N11 ,Cn1 ,v127
 .byte   N11 ,Cn1 ,v127
 .byte   N11 ,Fs1 ,v127
 .byte   W12
 .byte   N11 ,Fs1 ,v127
 .byte   W12
@  #04 @152   ----------------------------------------
 .byte   VOICE , 124
 .byte   VOL , 50*song04_mvl/mxv
 .byte   MODT 1
 .byte   N23 ,Cn1 ,v127
 .byte   N23 ,Cn1 ,v127
 .byte   N23 ,As1 ,v127
 .byte   W24
 .byte   N11 ,Fs1 ,v127
 .byte   W12
 .byte   N11 ,Fs1 ,v127
 .byte   W12
 .byte   N11 ,Dn1 ,v127
 .byte   N11 ,En1 ,v127
 .byte   N11 ,As1 ,v127
 .byte   W12
 .byte   N11 ,Dn1 ,v127
 .byte   N11 ,En1 ,v127
 .byte   W12
 .byte   N23 ,Cn1 ,v127
 .byte   N23 ,Cn1 ,v127
 .byte   N11 ,Dn1 ,v127
 .byte   N11 ,En1 ,v127
 .byte   N11 ,Fs1 ,v127
 .byte   W12
 .byte   N11 ,Dn1 ,v127
 .byte   N11 ,En1 ,v127
 .byte   N11 ,Fs1 ,v127
 .byte   W12
@  #04 @153   ----------------------------------------
 .byte   N11 ,Cn1 ,v127
 .byte   N11 ,Cn1 ,v127
 .byte   N11 ,Fs1 ,v127
 .byte   N11 ,An2 ,v127
 .byte   W12
 .byte   N11 ,Gs1 ,v127
 .byte   W12
 .byte   N11 ,As1 ,v127
 .byte   W12
 .byte   N11 ,Gs1 ,v127
 .byte   W12
 .byte   N11 ,Dn1 ,v127
 .byte   N11 ,En1 ,v127
 .byte   N11 ,Fs1 ,v127
 .byte   W12
 .byte   N11 ,Gs1 ,v127
 .byte   W12
 .byte   N11 ,Cn1 ,v127
 .byte   N11 ,Cn1 ,v127
 .byte   N11 ,As1 ,v127
 .byte   W12
 .byte   N11 ,Gs1 ,v127
 .byte   W12
@  #04 @154   ----------------------------------------
 .byte   VOICE , 124
 .byte   VOL , 50*song04_mvl/mxv
 .byte   MODT 1
 .byte   N11 ,Cn1 ,v127
 .byte   N11 ,Cn1 ,v127
 .byte   N11 ,Fs1 ,v127
 .byte   W12
 .byte   N11 ,Dn1 ,v127
 .byte   N11 ,En1 ,v127
 .byte   N11 ,Gs1 ,v127
 .byte   W12
 .byte   N11 ,As1 ,v127
 .byte   W12
 .byte   N11 ,Gs1 ,v127
 .byte   W12
 .byte   N11 ,Dn1 ,v127
 .byte   N11 ,En1 ,v127
 .byte   N11 ,Fs1 ,v127
 .byte   W12
 .byte   N11 ,Gs1 ,v127
 .byte   W12
 .byte   N11 ,Cn1 ,v127
 .byte   N11 ,Cn1 ,v127
 .byte   N11 ,As1 ,v127
 .byte   W12
 .byte   N11 ,Gs1 ,v127
 .byte   W12
@  #04 @155   ----------------------------------------
 .byte   N11 ,Cn1 ,v127
 .byte   N11 ,Cn1 ,v127
 .byte   N11 ,Fs1 ,v127
 .byte   W12
 .byte   N11 ,Gs1 ,v127
 .byte   W12
 .byte   N11 ,As1 ,v127
 .byte   W12
 .byte   N11 ,Gs1 ,v127
 .byte   W12
 .byte   N11 ,Dn1 ,v127
 .byte   N11 ,En1 ,v127
 .byte   N11 ,Fs1 ,v127
 .byte   W12
 .byte   N11 ,Gs1 ,v127
 .byte   W12
 .byte   N11 ,Cn1 ,v127
 .byte   N11 ,Cn1 ,v127
 .byte   N11 ,As1 ,v127
 .byte   W12
 .byte   N11 ,Gs1 ,v127
 .byte   W12
@  #04 @156   ----------------------------------------
 .byte   VOICE , 124
 .byte   VOL , 50*song04_mvl/mxv
 .byte   MODT 1
 .byte   N11 ,Cn1 ,v127
 .byte   N11 ,Cn1 ,v127
 .byte   N11 ,Fs1 ,v127
 .byte   W12
 .byte   N11 ,Dn1 ,v127
 .byte   N11 ,En1 ,v127
 .byte   N11 ,Gs1 ,v127
 .byte   W12
 .byte   N11 ,As1 ,v127
 .byte   W12
 .byte   N11 ,Gs1 ,v127
 .byte   W12
 .byte   N11 ,Dn1 ,v127
 .byte   N11 ,En1 ,v127
 .byte   N11 ,Fs1 ,v127
 .byte   W12
 .byte   N11 ,Gs1 ,v127
 .byte   W12
 .byte   N11 ,Cn1 ,v127
 .byte   N11 ,Cn1 ,v127
 .byte   N11 ,As1 ,v127
 .byte   W12
 .byte   N11 ,Gs1 ,v127
 .byte   W12
@  #04 @157   ----------------------------------------
 .byte   N11 ,Cn1 ,v127
 .byte   N11 ,Cn1 ,v127
 .byte   N11 ,Fs1 ,v127
 .byte   W12
 .byte   N11 ,Gs1 ,v127
 .byte   W12
 .byte   N11 ,As1 ,v127
 .byte   W12
 .byte   N11 ,Gs1 ,v127
 .byte   W12
 .byte   N11 ,Dn1 ,v127
 .byte   N11 ,En1 ,v127
 .byte   N11 ,Fs1 ,v127
 .byte   W12
 .byte   N11 ,Gs1 ,v127
 .byte   W12
 .byte   N11 ,Cn1 ,v127
 .byte   N11 ,Cn1 ,v127
 .byte   N11 ,As1 ,v127
 .byte   W12
 .byte   N11 ,Gs1 ,v127
 .byte   W12
@  #04 @158   ----------------------------------------
 .byte   VOICE , 124
 .byte   VOL , 50*song04_mvl/mxv
 .byte   MODT 1
 .byte   N11 ,Cn1 ,v127
 .byte   N11 ,Cn1 ,v127
 .byte   N11 ,Fs1 ,v127
 .byte   W12
 .byte   N11 ,Dn1 ,v127
 .byte   N11 ,En1 ,v127
 .byte   N11 ,Gs1 ,v127
 .byte   W12
 .byte   N11 ,As1 ,v127
 .byte   W12
 .byte   N11 ,Gs1 ,v127
 .byte   W12
 .byte   N11 ,Dn1 ,v127
 .byte   N11 ,En1 ,v127
 .byte   N11 ,Fs1 ,v127
 .byte   W12
 .byte   N11 ,Gs1 ,v127
 .byte   W12
 .byte   N11 ,Cn1 ,v127
 .byte   N11 ,Cn1 ,v127
 .byte   N11 ,As1 ,v127
 .byte   W12
 .byte   N11 ,Gs1 ,v127
 .byte   W12
@  #04 @159   ----------------------------------------
 .byte   N11 ,Cn1 ,v127
 .byte   N11 ,Cn1 ,v127
 .byte   N11 ,Fs1 ,v127
 .byte   W12
 .byte   N11 ,Gs1 ,v127
 .byte   W12
 .byte   N11 ,As1 ,v127
 .byte   W12
 .byte   N11 ,Gs1 ,v127
 .byte   W12
 .byte   N11 ,Dn1 ,v127
 .byte   N11 ,En1 ,v127
 .byte   N11 ,Fs1 ,v127
 .byte   W12
 .byte   N11 ,Gs1 ,v127
 .byte   W12
 .byte   N11 ,Cn1 ,v127
 .byte   N11 ,Cn1 ,v127
 .byte   N11 ,As1 ,v127
 .byte   W12
 .byte   N11 ,Gs1 ,v127
 .byte   W12
@  #04 @160   ----------------------------------------
 .byte   VOICE , 124
 .byte   VOL , 50*song04_mvl/mxv
 .byte   MODT 1
 .byte   N11 ,Cn1 ,v127
 .byte   N11 ,Cn1 ,v127
 .byte   N11 ,Fs1 ,v127
 .byte   W12
 .byte   N11 ,Dn1 ,v127
 .byte   N11 ,En1 ,v127
 .byte   N11 ,Gs1 ,v127
 .byte   W12
 .byte   N11 ,As1 ,v127
 .byte   W12
 .byte   N11 ,Gs1 ,v127
 .byte   W12
 .byte   N11 ,Dn1 ,v127
 .byte   N11 ,En1 ,v127
 .byte   N11 ,Fs1 ,v127
 .byte   W12
 .byte   N11 ,Dn1 ,v127
 .byte   N11 ,En1 ,v127
 .byte   N11 ,Gs1 ,v127
 .byte   W12
 .byte   N11 ,Cn1 ,v127
 .byte   N11 ,Cn1 ,v127
 .byte   N11 ,Dn1 ,v127
 .byte   N11 ,En1 ,v127
 .byte   N11 ,As1 ,v127
 .byte   W12
 .byte   N11 ,Dn1 ,v127
 .byte   N11 ,En1 ,v127
 .byte   N11 ,Gs1 ,v127
 .byte   W12
@  #04 @161   ----------------------------------------
 .byte   N11 ,Cn1 ,v127
 .byte   N11 ,Cn1 ,v127
 .byte   N11 ,Fs1 ,v127
 .byte   N11 ,An2 ,v127
 .byte   W12
 .byte   N11 ,Gs1 ,v127
 .byte   W12
 .byte   N11 ,As1 ,v127
 .byte   W12
 .byte   N11 ,Gs1 ,v127
 .byte   W12
 .byte   N11 ,Dn1 ,v127
 .byte   N11 ,En1 ,v127
 .byte   N11 ,Fs1 ,v127
 .byte   W12
 .byte   N11 ,Gs1 ,v127
 .byte   W12
 .byte   N11 ,Cn1 ,v127
 .byte   N11 ,Cn1 ,v127
 .byte   N11 ,As1 ,v127
 .byte   W12
 .byte   N11 ,Gs1 ,v127
 .byte   W12
@  #04 @162   ----------------------------------------
 .byte   VOICE , 124
 .byte   VOL , 50*song04_mvl/mxv
 .byte   MODT 1
 .byte   N11 ,Cn1 ,v127
 .byte   N11 ,Cn1 ,v127
 .byte   N11 ,Fs1 ,v127
 .byte   W12
 .byte   N11 ,Dn1 ,v127
 .byte   N11 ,En1 ,v127
 .byte   N11 ,Gs1 ,v127
 .byte   W12
 .byte   N11 ,As1 ,v127
 .byte   W12
 .byte   N11 ,Gs1 ,v127
 .byte   W12
 .byte   N11 ,Dn1 ,v127
 .byte   N11 ,En1 ,v127
 .byte   N11 ,Fs1 ,v127
 .byte   W12
 .byte   N11 ,Gs1 ,v127
 .byte   W12
 .byte   N11 ,Cn1 ,v127
 .byte   N11 ,Cn1 ,v127
 .byte   N11 ,As1 ,v127
 .byte   W12
 .byte   N11 ,Gs1 ,v127
 .byte   W12
@  #04 @163   ----------------------------------------
 .byte   N11 ,Cn1 ,v127
 .byte   N11 ,Cn1 ,v127
 .byte   N11 ,Fs1 ,v127
 .byte   W12
 .byte   N11 ,Gs1 ,v127
 .byte   W12
 .byte   N11 ,As1 ,v127
 .byte   W12
 .byte   N11 ,Gs1 ,v127
 .byte   W12
 .byte   N11 ,Dn1 ,v127
 .byte   N11 ,En1 ,v127
 .byte   N11 ,Fs1 ,v127
 .byte   W12
 .byte   N11 ,Gs1 ,v127
 .byte   W12
 .byte   N11 ,Cn1 ,v127
 .byte   N11 ,Cn1 ,v127
 .byte   N11 ,As1 ,v127
 .byte   W12
 .byte   N11 ,Gs1 ,v127
 .byte   W12
@  #04 @164   ----------------------------------------
 .byte   VOICE , 124
 .byte   VOL , 50*song04_mvl/mxv
 .byte   MODT 1
 .byte   N11 ,Cn1 ,v127
 .byte   N11 ,Cn1 ,v127
 .byte   N11 ,Fs1 ,v127
 .byte   W12
 .byte   N11 ,Dn1 ,v127
 .byte   N11 ,En1 ,v127
 .byte   N11 ,Gs1 ,v127
 .byte   W12
 .byte   N11 ,As1 ,v127
 .byte   W12
 .byte   N11 ,Gs1 ,v127
 .byte   W12
 .byte   N11 ,Dn1 ,v127
 .byte   N11 ,En1 ,v127
 .byte   N11 ,Fs1 ,v127
 .byte   W12
 .byte   N11 ,Gs1 ,v127
 .byte   W12
 .byte   N11 ,Cn1 ,v127
 .byte   N11 ,Cn1 ,v127
 .byte   N11 ,As1 ,v127
 .byte   W12
 .byte   N11 ,Gs1 ,v127
 .byte   W12
@  #04 @165   ----------------------------------------
 .byte   N11 ,Cn1 ,v127
 .byte   N11 ,Cn1 ,v127
 .byte   N11 ,Fs1 ,v127
 .byte   W12
 .byte   N11 ,Gs1 ,v127
 .byte   W12
 .byte   N11 ,As1 ,v127
 .byte   W12
 .byte   N11 ,Gs1 ,v127
 .byte   W12
 .byte   N11 ,Dn1 ,v127
 .byte   N11 ,En1 ,v127
 .byte   N11 ,Fs1 ,v127
 .byte   W12
 .byte   N11 ,Gs1 ,v127
 .byte   W12
 .byte   N11 ,Cn1 ,v127
 .byte   N11 ,Cn1 ,v127
 .byte   N11 ,As1 ,v127
 .byte   W12
 .byte   N11 ,Gs1 ,v127
 .byte   W12
@  #04 @166   ----------------------------------------
 .byte   VOICE , 124
 .byte   VOL , 50*song04_mvl/mxv
 .byte   MODT 1
 .byte   N11 ,Cn1 ,v127
 .byte   N11 ,Cn1 ,v127
 .byte   N11 ,Fs1 ,v127
 .byte   W12
 .byte   N11 ,Dn1 ,v127
 .byte   N11 ,En1 ,v127
 .byte   N11 ,Gs1 ,v127
 .byte   W12
 .byte   N11 ,As1 ,v127
 .byte   W12
 .byte   N11 ,Gs1 ,v127
 .byte   W12
 .byte   N11 ,Dn1 ,v127
 .byte   N11 ,En1 ,v127
 .byte   N11 ,Fs1 ,v127
 .byte   W12
 .byte   N11 ,Gs1 ,v127
 .byte   W12
 .byte   N11 ,Cn1 ,v127
 .byte   N11 ,Cn1 ,v127
 .byte   N11 ,As1 ,v127
 .byte   W12
 .byte   N11 ,Gs1 ,v127
 .byte   W12
@  #04 @167   ----------------------------------------
 .byte   N11 ,Cn1 ,v127
 .byte   N11 ,Cn1 ,v127
 .byte   N11 ,Fs1 ,v127
 .byte   W12
 .byte   N11 ,Gs1 ,v127
 .byte   W12
 .byte   N11 ,As1 ,v127
 .byte   W12
 .byte   N11 ,Gs1 ,v127
 .byte   W12
 .byte   N11 ,Dn1 ,v127
 .byte   N11 ,En1 ,v127
 .byte   N11 ,Fs1 ,v127
 .byte   W12
 .byte   N11 ,Gs1 ,v127
 .byte   W12
 .byte   N11 ,Cn1 ,v127
 .byte   N11 ,Cn1 ,v127
 .byte   N11 ,As1 ,v127
 .byte   W12
 .byte   N11 ,Gs1 ,v127
 .byte   W12
@  #04 @168   ----------------------------------------
 .byte   VOICE , 124
 .byte   VOL , 50*song04_mvl/mxv
 .byte   MODT 1
 .byte   N11 ,Cn1 ,v127
 .byte   N11 ,Cn1 ,v127
 .byte   N11 ,Fs1 ,v127
 .byte   W12
 .byte   N11 ,Dn1 ,v127
 .byte   N11 ,En1 ,v127
 .byte   N11 ,Gs1 ,v127
 .byte   W12
 .byte   N11 ,As1 ,v127
 .byte   W12
 .byte   N11 ,Gs1 ,v127
 .byte   W12
 .byte   N11 ,Dn1 ,v127
 .byte   N11 ,En1 ,v127
 .byte   N11 ,Fs1 ,v127
 .byte   W12
 .byte   N11 ,Dn1 ,v127
 .byte   N11 ,En1 ,v127
 .byte   N11 ,Gs1 ,v127
 .byte   W12
 .byte   N11 ,Cn1 ,v127
 .byte   N11 ,Cn1 ,v127
 .byte   N11 ,Dn1 ,v127
 .byte   N11 ,En1 ,v127
 .byte   N11 ,As1 ,v127
 .byte   W12
 .byte   N11 ,Dn1 ,v127
 .byte   N11 ,En1 ,v127
 .byte   N11 ,Gs1 ,v127
 .byte   W12
@  #04 @169   ----------------------------------------
 .byte   N23 ,Cn1 ,v127
 .byte   N23 ,Cn1 ,v127
 .byte   N23 ,As1 ,v127
 .byte   N23 ,An2 ,v127
 .byte   W24
 .byte   N11 ,Fs1 ,v127
 .byte   W12
 .byte   N11 ,Fs1 ,v127
 .byte   W12
 .byte   N23 ,As1 ,v127
 .byte   W24
 .byte   N11 ,Fs1 ,v127
 .byte   W12
 .byte   N11 ,Fs1 ,v127
 .byte   W12
@  #04 @170   ----------------------------------------
 .byte   VOICE , 124
 .byte   VOL , 50*song04_mvl/mxv
 .byte   MODT 1
 .byte   N23 ,As1 ,v127
 .byte   W24
 .byte   N11 ,Fs1 ,v127
 .byte   W12
 .byte   N11 ,Fs1 ,v127
 .byte   W12
 .byte   N23 ,As1 ,v127
 .byte   W24
 .byte   N23 ,Cn1 ,v127
 .byte   N23 ,Cn1 ,v127
 .byte   N11 ,Fs1 ,v127
 .byte   W12
 .byte   N11 ,Fs1 ,v127
 .byte   W12
@  #04 @171   ----------------------------------------
 .byte   N23 ,Cn1 ,v127
 .byte   N23 ,Cn1 ,v127
 .byte   N23 ,As1 ,v127
 .byte   N23 ,An2 ,v127
 .byte   W24
 .byte   N11 ,Fs1 ,v127
 .byte   W12
 .byte   N11 ,Fs1 ,v127
 .byte   W12
 .byte   N23 ,As1 ,v127
 .byte   W24
 .byte   N11 ,Fs1 ,v127
 .byte   W12
 .byte   N11 ,Fs1 ,v127
 .byte   W12
@  #04 @172   ----------------------------------------
 .byte   VOICE , 124
 .byte   VOL , 50*song04_mvl/mxv
 .byte   MODT 1
 .byte   N23 ,As1 ,v127
 .byte   W24
 .byte   N11 ,Fs1 ,v127
 .byte   W12
 .byte   N11 ,Fs1 ,v127
 .byte   W12
 .byte   N23 ,As1 ,v127
 .byte   W24
 .byte   N23 ,Cn1 ,v127
 .byte   N23 ,Cn1 ,v127
 .byte   N11 ,Fs1 ,v127
 .byte   W12
 .byte   N11 ,Fs1 ,v127
 .byte   W12
@  #04 @173   ----------------------------------------
 .byte   N23 ,Cn1 ,v127
 .byte   N23 ,Cn1 ,v127
 .byte   N23 ,As1 ,v127
 .byte   N23 ,An2 ,v127
 .byte   W24
 .byte   N11 ,Fs1 ,v127
 .byte   W12
 .byte   N11 ,Fs1 ,v127
 .byte   W12
 .byte   N23 ,As1 ,v127
 .byte   W24
 .byte   N11 ,Fs1 ,v127
 .byte   W12
 .byte   N11 ,Fs1 ,v127
 .byte   W12
@  #04 @174   ----------------------------------------
 .byte   VOICE , 124
 .byte   VOL , 50*song04_mvl/mxv
 .byte   MODT 1
 .byte   N23 ,As1 ,v127
 .byte   W24
 .byte   N11 ,Fs1 ,v127
 .byte   W12
 .byte   N11 ,Fs1 ,v127
 .byte   W12
 .byte   N23 ,As1 ,v127
 .byte   W24
 .byte   N23 ,Cn1 ,v127
 .byte   N23 ,Cn1 ,v127
 .byte   N11 ,Fs1 ,v127
 .byte   W12
 .byte   N11 ,Fs1 ,v127
 .byte   W12
@  #04 @175   ----------------------------------------
 .byte   N23 ,Cn1 ,v127
 .byte   N23 ,Cn1 ,v127
 .byte   N23 ,As1 ,v127
 .byte   N23 ,An2 ,v127
 .byte   W24
 .byte   N11 ,Fs1 ,v127
 .byte   W12
 .byte   N11 ,Fs1 ,v127
 .byte   W12
 .byte   N23 ,As1 ,v127
 .byte   W24
 .byte   N11 ,Fs1 ,v127
 .byte   W12
 .byte   N11 ,Fs1 ,v127
 .byte   W12
@  #04 @176   ----------------------------------------
 .byte   VOICE , 124
 .byte   VOL , 50*song04_mvl/mxv
 .byte   MODT 1
 .byte   N23 ,As1 ,v127
 .byte   W24
 .byte   N11 ,Fs1 ,v127
 .byte   W12
 .byte   N11 ,Fs1 ,v127
 .byte   W12
 .byte   N11 ,En1 ,v127
 .byte   N11 ,As1 ,v127
 .byte   W12
 .byte   N11 ,En1 ,v127
 .byte   W12
 .byte   N23 ,Cn1 ,v127
 .byte   N23 ,Cn1 ,v127
 .byte   N11 ,En1 ,v127
 .byte   N11 ,Fs1 ,v127
 .byte   W12
 .byte   N11 ,En1 ,v127
 .byte   N11 ,Fs1 ,v127
 .byte   W12
@  #04 @177   ----------------------------------------
 .byte   N23 ,Cn1 ,v127
 .byte   N23 ,Cn1 ,v127
 .byte   N23 ,As1 ,v127
 .byte   N23 ,An2 ,v127
 .byte   W24
 .byte   N11 ,Fs1 ,v127
 .byte   W12
 .byte   N11 ,Fs1 ,v127
 .byte   W12
 .byte   N23 ,As1 ,v127
 .byte   W24
 .byte   N11 ,Fs1 ,v127
 .byte   W12
 .byte   N11 ,Fs1 ,v127
 .byte   W12
@  #04 @178   ----------------------------------------
 .byte   VOICE , 124
 .byte   VOL , 50*song04_mvl/mxv
 .byte   MODT 1
 .byte   N23 ,As1 ,v127
 .byte   W24
 .byte   N11 ,Fs1 ,v127
 .byte   W12
 .byte   N11 ,Fs1 ,v127
 .byte   W12
 .byte   N23 ,Dn1 ,v127
 .byte   N23 ,En1 ,v127
 .byte   N23 ,As1 ,v127
 .byte   N23 ,Bn1 ,v127
 .byte   N23 ,Cn2 ,v127
 .byte   N23 ,Dn2 ,v127
 .byte   W24
 .byte   N23 ,Cn1 ,v127
 .byte   N23 ,Cn1 ,v127
 .byte   N11 ,Fs1 ,v127
 .byte   W12
 .byte   N11 ,Fs1 ,v127
 .byte   W12
@  #04 @179   ----------------------------------------
 .byte   N23 ,Cn1 ,v127
 .byte   N23 ,Cn1 ,v127
 .byte   N23 ,As1 ,v127
 .byte   N23 ,An2 ,v127
 .byte   W24
 .byte   N11 ,Fs1 ,v127
 .byte   W12
 .byte   N11 ,Fs1 ,v127
 .byte   W12
 .byte   N23 ,As1 ,v127
 .byte   W24
 .byte   N11 ,Fs1 ,v127
 .byte   W12
 .byte   N11 ,Fs1 ,v127
 .byte   W12
@  #04 @180   ----------------------------------------
 .byte   VOICE , 124
 .byte   VOL , 50*song04_mvl/mxv
 .byte   MODT 1
 .byte   N23 ,As1 ,v127
 .byte   W24
 .byte   N11 ,Fs1 ,v127
 .byte   W12
 .byte   N11 ,Fs1 ,v127
 .byte   W12
 .byte   N23 ,Dn1 ,v127
 .byte   N23 ,En1 ,v127
 .byte   N23 ,As1 ,v127
 .byte   N23 ,Bn1 ,v127
 .byte   N23 ,Cn2 ,v127
 .byte   N23 ,Dn2 ,v127
 .byte   W24
 .byte   N23 ,Cn1 ,v127
 .byte   N23 ,Cn1 ,v127
 .byte   N11 ,Fs1 ,v127
 .byte   W12
 .byte   N11 ,Fs1 ,v127
 .byte   W12
@  #04 @181   ----------------------------------------
 .byte   N23 ,Cn1 ,v127
 .byte   N23 ,Cn1 ,v127
 .byte   N23 ,As1 ,v127
 .byte   N23 ,An2 ,v127
 .byte   W24
 .byte   N11 ,Fs1 ,v127
 .byte   W12
 .byte   N11 ,Fs1 ,v127
 .byte   W12
 .byte   N23 ,As1 ,v127
 .byte   W24
 .byte   N11 ,Fs1 ,v127
 .byte   W12
 .byte   N11 ,Fs1 ,v127
 .byte   W12
@  #04 @182   ----------------------------------------
 .byte   VOICE , 124
 .byte   VOL , 50*song04_mvl/mxv
 .byte   MODT 1
 .byte   N23 ,As1 ,v127
 .byte   W24
 .byte   N11 ,Fs1 ,v127
 .byte   W12
 .byte   N11 ,Fs1 ,v127
 .byte   W12
 .byte   N23 ,Dn1 ,v127
 .byte   N23 ,En1 ,v127
 .byte   N23 ,As1 ,v127
 .byte   N23 ,Bn1 ,v127
 .byte   N23 ,Cn2 ,v127
 .byte   N23 ,Dn2 ,v127
 .byte   W24
 .byte   N23 ,Cn1 ,v127
 .byte   N23 ,Cn1 ,v127
 .byte   N11 ,Fs1 ,v127
 .byte   W12
 .byte   N11 ,Fs1 ,v127
 .byte   W12
@  #04 @183   ----------------------------------------
 .byte   N23 ,Cn1 ,v127
 .byte   N23 ,Cn1 ,v127
 .byte   N23 ,As1 ,v127
 .byte   N23 ,An2 ,v127
 .byte   W24
 .byte   N11 ,Fs1 ,v127
 .byte   W12
 .byte   N11 ,Fs1 ,v127
 .byte   W12
 .byte   N23 ,As1 ,v127
 .byte   W24
 .byte   N11 ,Fs1 ,v127
 .byte   W12
 .byte   N11 ,Fs1 ,v127
 .byte   W12
@  #04 @184   ----------------------------------------
 .byte   VOICE , 124
 .byte   VOL , 50*song04_mvl/mxv
 .byte   MODT 1
 .byte   N23 ,As1 ,v127
 .byte   W24
 .byte   N11 ,Fs1 ,v127
 .byte   W12
 .byte   N11 ,Fs1 ,v127
 .byte   W12
 .byte   N11 ,Dn1 ,v127
 .byte   N11 ,En1 ,v127
 .byte   N11 ,As1 ,v127
 .byte   N11 ,Bn1 ,v127
 .byte   N11 ,Cn2 ,v127
 .byte   N11 ,Dn2 ,v127
 .byte   W12
 .byte   N11 ,En1 ,v127
 .byte   W12
 .byte   N23 ,Cn1 ,v127
 .byte   N23 ,Cn1 ,v127
 .byte   N11 ,En1 ,v127
 .byte   N11 ,Fs1 ,v127
 .byte   W12
 .byte   N11 ,En1 ,v127
 .byte   N11 ,Fs1 ,v127
 .byte   W12
@  #04 @185   ----------------------------------------
 .byte   N23 ,Cn1 ,v127
 .byte   N23 ,Cn1 ,v127
 .byte   N23 ,Fs1 ,v127
 .byte   N23 ,An2 ,v127
 .byte   W24
 .byte   N23 ,Fs1 ,v127
 .byte   W24
 .byte   N23 ,Gs1 ,v127
 .byte   W24
 .byte   N23 ,Cn1 ,v127
 .byte   N23 ,Cn1 ,v127
 .byte   N23 ,Fs1 ,v127
 .byte   W24
@  #04 @186   ----------------------------------------
 .byte   VOICE , 124
 .byte   VOL , 50*song04_mvl/mxv
 .byte   MODT 1
 .byte   N23 ,Dn1 ,v127
 .byte   N23 ,En1 ,v127
 .byte   N23 ,As1 ,v127
 .byte   W24
 .byte   N23 ,Gs1 ,v127
 .byte   W24
 .byte   N23 ,Cn1 ,v127
 .byte   N23 ,Cn1 ,v127
 .byte   N23 ,Fs1 ,v127
 .byte   W24
 .byte   N23 ,Gs1 ,v127
 .byte   W24
@  #04 @187   ----------------------------------------
 .byte   N23 ,Cn1 ,v127
 .byte   N23 ,Cn1 ,v127
 .byte   N23 ,Fs1 ,v127
 .byte   N23 ,An2 ,v127
 .byte   W24
 .byte   N23 ,Fs1 ,v127
 .byte   W24
 .byte   N23 ,Gs1 ,v127
 .byte   W24
 .byte   N23 ,Cn1 ,v127
 .byte   N23 ,Cn1 ,v127
 .byte   N23 ,Fs1 ,v127
 .byte   W24
@  #04 @188   ----------------------------------------
 .byte   VOICE , 124
 .byte   VOL , 50*song04_mvl/mxv
 .byte   MODT 1
 .byte   N23 ,Dn1 ,v127
 .byte   N23 ,En1 ,v127
 .byte   N23 ,As1 ,v127
 .byte   W24
 .byte   N23 ,Gs1 ,v127
 .byte   W24
 .byte   N23 ,Cn1 ,v127
 .byte   N23 ,Cn1 ,v127
 .byte   N23 ,Fs1 ,v127
 .byte   W24
 .byte   N23 ,Gs1 ,v127
 .byte   W24
@  #04 @189   ----------------------------------------
 .byte   N23 ,Cn1 ,v127
 .byte   N23 ,Cn1 ,v127
 .byte   N23 ,Fs1 ,v127
 .byte   N23 ,An2 ,v127
 .byte   W24
 .byte   N23 ,Fs1 ,v127
 .byte   W24
 .byte   N23 ,Gs1 ,v127
 .byte   W24
 .byte   N23 ,Cn1 ,v127
 .byte   N23 ,Cn1 ,v127
 .byte   N23 ,Fs1 ,v127
 .byte   W24
@  #04 @190   ----------------------------------------
 .byte   VOICE , 124
 .byte   VOL , 50*song04_mvl/mxv
 .byte   MODT 1
 .byte   N23 ,Dn1 ,v127
 .byte   N23 ,En1 ,v127
 .byte   N23 ,As1 ,v127
 .byte   W24
 .byte   N23 ,Gs1 ,v127
 .byte   W24
 .byte   N23 ,Cn1 ,v127
 .byte   N23 ,Cn1 ,v127
 .byte   N23 ,Fs1 ,v127
 .byte   W24
 .byte   N23 ,Gs1 ,v127
 .byte   W24
@  #04 @191   ----------------------------------------
 .byte   N23 ,En1 ,v127
 .byte   N23 ,An2 ,v127
 .byte   W24
 .byte   N23 ,Cn1 ,v127
 .byte   N23 ,Cn1 ,v127
 .byte   W24
 .byte   N23 ,En1 ,v127
 .byte   N23 ,An2 ,v127
 .byte   W24
 .byte   N23 ,Cn1 ,v127
 .byte   N23 ,Cn1 ,v127
 .byte   W24
@  #04 @192   ----------------------------------------
 .byte   VOICE , 124
 .byte   VOL , 50*song04_mvl/mxv
 .byte   MODT 1
 .byte   N23 ,En1 ,v127
 .byte   N23 ,An2 ,v127
 .byte   W24
 .byte   N23 ,Cn1 ,v127
 .byte   N23 ,Cn1 ,v127
 .byte   W24
 .byte   N11 ,En1 ,v127
 .byte   N11 ,Dn2 ,v127
 .byte   W12
 .byte   N11 ,En1 ,v127
 .byte   N11 ,Cn2 ,v127
 .byte   W12
 .byte   N11 ,En1 ,v127
 .byte   N11 ,Bn1 ,v127
 .byte   W12
 .byte   N11 ,En1 ,v127
 .byte   N11 ,An1 ,v127
 .byte   W12
@  #04 @193   ----------------------------------------
 .byte   N23 ,Cn1 ,v127
 .byte   N23 ,Cn1 ,v127
 .byte   N23 ,As1 ,v127
 .byte   N23 ,An2 ,v127
 .byte   W24
 .byte   N11 ,Fs1 ,v127
 .byte   W12
 .byte   N11 ,Fs1 ,v127
 .byte   W12
 .byte   N23 ,Dn1 ,v127
 .byte   N23 ,En1 ,v127
 .byte   N23 ,As1 ,v127
 .byte   W24
 .byte   N11 ,Cn1 ,v127
 .byte   N11 ,Cn1 ,v127
 .byte   N11 ,Fs1 ,v127
 .byte   W12
 .byte   N11 ,Fs1 ,v127
 .byte   W12
@  #04 @194   ----------------------------------------
 .byte   VOICE , 124
 .byte   VOL , 50*song04_mvl/mxv
 .byte   MODT 1
 .byte   N23 ,Cn1 ,v127
 .byte   N23 ,Cn1 ,v127
 .byte   N23 ,As1 ,v127
 .byte   W24
 .byte   N11 ,Fs1 ,v127
 .byte   W12
 .byte   N11 ,Fs1 ,v127
 .byte   W12
 .byte   N23 ,Dn1 ,v127
 .byte   N23 ,En1 ,v127
 .byte   N23 ,As1 ,v127
 .byte   W24
 .byte   N23 ,Cn1 ,v127
 .byte   N23 ,Cn1 ,v127
 .byte   N11 ,Fs1 ,v127
 .byte   W12
 .byte   N11 ,Fs1 ,v127
 .byte   W12
@  #04 @195   ----------------------------------------
 .byte   N23 ,Cn1 ,v127
 .byte   N23 ,Cn1 ,v127
 .byte   N23 ,As1 ,v127
 .byte   W24
 .byte   N11 ,Fs1 ,v127
 .byte   W12
 .byte   N11 ,Fs1 ,v127
 .byte   W12
 .byte   N23 ,Dn1 ,v127
 .byte   N23 ,En1 ,v127
 .byte   N23 ,As1 ,v127
 .byte   W24
 .byte   N11 ,Cn1 ,v127
 .byte   N11 ,Cn1 ,v127
 .byte   N11 ,Fs1 ,v127
 .byte   W12
 .byte   N11 ,Fs1 ,v127
 .byte   W12
@  #04 @196   ----------------------------------------
 .byte   VOICE , 124
 .byte   VOL , 50*song04_mvl/mxv
 .byte   MODT 1
 .byte   N23 ,Cn1 ,v127
 .byte   N23 ,Cn1 ,v127
 .byte   N23 ,As1 ,v127
 .byte   W24
 .byte   N11 ,Fs1 ,v127
 .byte   W12
 .byte   N11 ,Fs1 ,v127
 .byte   W12
 .byte   N23 ,Dn1 ,v127
 .byte   N23 ,En1 ,v127
 .byte   N23 ,As1 ,v127
 .byte   W24
 .byte   N23 ,Cn1 ,v127
 .byte   N23 ,Cn1 ,v127
 .byte   N11 ,Fs1 ,v127
 .byte   W12
 .byte   N11 ,Fs1 ,v127
 .byte   W12
@  #04 @197   ----------------------------------------
 .byte   N23 ,Cn1 ,v127
 .byte   N23 ,Cn1 ,v127
 .byte   N23 ,As1 ,v127
 .byte   W24
 .byte   N11 ,Fs1 ,v127
 .byte   W12
 .byte   N11 ,Fs1 ,v127
 .byte   W12
 .byte   N23 ,Dn1 ,v127
 .byte   N23 ,En1 ,v127
 .byte   N23 ,As1 ,v127
 .byte   W24
 .byte   N11 ,Cn1 ,v127
 .byte   N11 ,Cn1 ,v127
 .byte   N11 ,Fs1 ,v127
 .byte   W12
 .byte   N11 ,Fs1 ,v127
 .byte   W12
@  #04 @198   ----------------------------------------
 .byte   VOICE , 124
 .byte   VOL , 50*song04_mvl/mxv
 .byte   MODT 1
 .byte   N23 ,Cn1 ,v127
 .byte   N23 ,Cn1 ,v127
 .byte   N23 ,As1 ,v127
 .byte   W24
 .byte   N11 ,Fs1 ,v127
 .byte   W12
 .byte   N11 ,Fs1 ,v127
 .byte   W12
 .byte   N23 ,Dn1 ,v127
 .byte   N23 ,En1 ,v127
 .byte   N23 ,As1 ,v127
 .byte   W24
 .byte   N23 ,Cn1 ,v127
 .byte   N23 ,Cn1 ,v127
 .byte   N11 ,Fs1 ,v127
 .byte   W12
 .byte   N11 ,Fs1 ,v127
 .byte   W12
@  #04 @199   ----------------------------------------
 .byte   N23 ,Cn1 ,v127
 .byte   N23 ,Cn1 ,v127
 .byte   N23 ,As1 ,v127
 .byte   W24
 .byte   N11 ,Fs1 ,v127
 .byte   W12
 .byte   N11 ,Fs1 ,v127
 .byte   W12
 .byte   N23 ,Dn1 ,v127
 .byte   N23 ,En1 ,v127
 .byte   N23 ,As1 ,v127
 .byte   W24
 .byte   N11 ,Cn1 ,v127
 .byte   N11 ,Cn1 ,v127
 .byte   N11 ,Fs1 ,v127
 .byte   W12
 .byte   N11 ,Fs1 ,v127
 .byte   W12
@  #04 @200   ----------------------------------------
 .byte   VOICE , 124
 .byte   VOL , 50*song04_mvl/mxv
 .byte   MODT 1
 .byte   N23 ,Cn1 ,v127
 .byte   N23 ,Cn1 ,v127
 .byte   N23 ,As1 ,v127
 .byte   W24
 .byte   N11 ,Fs1 ,v127
 .byte   W12
 .byte   N11 ,Fs1 ,v127
 .byte   W12
 .byte   N23 ,Dn1 ,v127
 .byte   N23 ,En1 ,v127
 .byte   N23 ,As1 ,v127
 .byte   W24
 .byte   N23 ,Cn1 ,v127
 .byte   N23 ,Cn1 ,v127
 .byte   N11 ,Fs1 ,v127
 .byte   W12
 .byte   N11 ,Fs1 ,v127
 .byte   W12
@  #04 @201   ----------------------------------------
 .byte   N23 ,Cn1 ,v127
 .byte   N23 ,Cn1 ,v127
 .byte   N23 ,As1 ,v127
 .byte   W24
 .byte   N11 ,Fs1 ,v127
 .byte   W12
 .byte   N11 ,Fs1 ,v127
 .byte   W12
 .byte   N23 ,Dn1 ,v127
 .byte   N23 ,En1 ,v127
 .byte   N23 ,As1 ,v127
 .byte   W24
 .byte   N11 ,Cn1 ,v127
 .byte   N11 ,Cn1 ,v127
 .byte   N11 ,Fs1 ,v127
 .byte   W12
 .byte   N11 ,Fs1 ,v127
 .byte   W12
@  #04 @202   ----------------------------------------
 .byte   VOICE , 124
 .byte   VOL , 50*song04_mvl/mxv
 .byte   MODT 1
 .byte   N23 ,Cn1 ,v127
 .byte   N23 ,Cn1 ,v127
 .byte   N23 ,As1 ,v127
 .byte   W24
 .byte   N11 ,Fs1 ,v127
 .byte   W12
 .byte   N11 ,Fs1 ,v127
 .byte   W12
 .byte   N23 ,Dn1 ,v127
 .byte   N23 ,En1 ,v127
 .byte   N23 ,As1 ,v127
 .byte   W24
 .byte   N23 ,Cn1 ,v127
 .byte   N23 ,Cn1 ,v127
 .byte   N11 ,Fs1 ,v127
 .byte   W12
 .byte   N11 ,Fs1 ,v127
 .byte   W12
@  #04 @203   ----------------------------------------
 .byte   N23 ,Cn1 ,v127
 .byte   N23 ,Cn1 ,v127
 .byte   N23 ,As1 ,v127
 .byte   W24
 .byte   N11 ,Fs1 ,v127
 .byte   W12
 .byte   N11 ,Fs1 ,v127
 .byte   W12
 .byte   N23 ,Dn1 ,v127
 .byte   N23 ,En1 ,v127
 .byte   N23 ,As1 ,v127
 .byte   W24
 .byte   N11 ,Cn1 ,v127
 .byte   N11 ,Cn1 ,v127
 .byte   N11 ,Fs1 ,v127
 .byte   W12
 .byte   N11 ,Fs1 ,v127
 .byte   W12
@  #04 @204   ----------------------------------------
 .byte   VOICE , 124
 .byte   VOL , 50*song04_mvl/mxv
 .byte   MODT 1
 .byte   N23 ,Cn1 ,v127
 .byte   N23 ,Cn1 ,v127
 .byte   N23 ,As1 ,v127
 .byte   W24
 .byte   N11 ,Fs1 ,v127
 .byte   W12
 .byte   N11 ,Fs1 ,v127
 .byte   W12
 .byte   N23 ,Dn1 ,v127
 .byte   N23 ,En1 ,v127
 .byte   N23 ,As1 ,v127
 .byte   W24
 .byte   N23 ,Cn1 ,v127
 .byte   N23 ,Cn1 ,v127
 .byte   N11 ,Fs1 ,v127
 .byte   W12
 .byte   N11 ,Fs1 ,v127
 .byte   W12
@  #04 @205   ----------------------------------------
 .byte   N23 ,Cn1 ,v127
 .byte   N23 ,Cn1 ,v127
 .byte   N23 ,As1 ,v127
 .byte   W24
 .byte   N11 ,Fs1 ,v127
 .byte   W12
 .byte   N11 ,Fs1 ,v127
 .byte   W12
 .byte   N23 ,Dn1 ,v127
 .byte   N23 ,En1 ,v127
 .byte   N23 ,As1 ,v127
 .byte   W24
 .byte   N11 ,Cn1 ,v127
 .byte   N11 ,Cn1 ,v127
 .byte   N11 ,Fs1 ,v127
 .byte   W12
 .byte   N11 ,Fs1 ,v127
 .byte   W12
@  #04 @206   ----------------------------------------
 .byte   VOICE , 124
 .byte   VOL , 50*song04_mvl/mxv
 .byte   MODT 1
 .byte   N23 ,Cn1 ,v127
 .byte   N23 ,Cn1 ,v127
 .byte   N23 ,As1 ,v127
 .byte   W24
 .byte   N11 ,Fs1 ,v127
 .byte   W12
 .byte   N11 ,Fs1 ,v127
 .byte   W12
 .byte   N23 ,Dn1 ,v127
 .byte   N23 ,En1 ,v127
 .byte   N23 ,As1 ,v127
 .byte   W24
 .byte   N23 ,Cn1 ,v127
 .byte   N23 ,Cn1 ,v127
 .byte   N11 ,Fs1 ,v127
 .byte   W12
 .byte   N11 ,Fs1 ,v127
 .byte   W12
@  #04 @207   ----------------------------------------
 .byte   N23 ,Cn1 ,v127
 .byte   N23 ,Cn1 ,v127
 .byte   N23 ,As1 ,v127
 .byte   W24
 .byte   N11 ,Fs1 ,v127
 .byte   W12
 .byte   N11 ,Fs1 ,v127
 .byte   W12
 .byte   N23 ,Dn1 ,v127
 .byte   N23 ,En1 ,v127
 .byte   N23 ,As1 ,v127
 .byte   W24
 .byte   N11 ,Cn1 ,v127
 .byte   N11 ,Cn1 ,v127
 .byte   N11 ,Fs1 ,v127
 .byte   W12
 .byte   N11 ,Fs1 ,v127
 .byte   W12
@  #04 @208   ----------------------------------------
 .byte   VOICE , 124
 .byte   VOL , 50*song04_mvl/mxv
 .byte   MODT 1
 .byte   N23 ,Cn1 ,v127
 .byte   N23 ,Cn1 ,v127
 .byte   N23 ,As1 ,v127
 .byte   W24
 .byte   N11 ,Fs1 ,v127
 .byte   W12
 .byte   N11 ,Fs1 ,v127
 .byte   W12
 .byte   N11 ,Dn1 ,v127
 .byte   N11 ,En1 ,v127
 .byte   N11 ,As1 ,v127
 .byte   W12
 .byte   N11 ,Dn1 ,v127
 .byte   N11 ,En1 ,v127
 .byte   W12
 .byte   N23 ,Cn1 ,v127
 .byte   N23 ,Cn1 ,v127
 .byte   N11 ,Dn1 ,v127
 .byte   N11 ,En1 ,v127
 .byte   N11 ,Fs1 ,v127
 .byte   W12
 .byte   N11 ,Dn1 ,v127
 .byte   N11 ,En1 ,v127
 .byte   N11 ,Fs1 ,v127
 .byte   W12
@  #04 @209   ----------------------------------------
 .byte   N23 ,Cn1 ,v127
 .byte   N23 ,Cn1 ,v127
 .byte   N23 ,As1 ,v127
 .byte   N23 ,An2 ,v127
 .byte   W24
 .byte   N11 ,Fs1 ,v127
 .byte   W12
 .byte   N11 ,Fs1 ,v127
 .byte   W12
 .byte   N23 ,Dn1 ,v127
 .byte   N23 ,En1 ,v127
 .byte   N23 ,As1 ,v127
 .byte   W24
 .byte   N11 ,Cn1 ,v127
 .byte   N11 ,Cn1 ,v127
 .byte   N11 ,Fs1 ,v127
 .byte   W12
 .byte   N11 ,Fs1 ,v127
 .byte   W12
@  #04 @210   ----------------------------------------
 .byte   VOICE , 124
 .byte   VOL , 50*song04_mvl/mxv
 .byte   MODT 1
 .byte   N23 ,Cn1 ,v127
 .byte   N23 ,Cn1 ,v127
 .byte   N23 ,As1 ,v127
 .byte   W24
 .byte   N11 ,Fs1 ,v127
 .byte   W12
 .byte   N11 ,Fs1 ,v127
 .byte   W12
 .byte   N23 ,Dn1 ,v127
 .byte   N23 ,En1 ,v127
 .byte   N23 ,As1 ,v127
 .byte   W24
 .byte   N23 ,Cn1 ,v127
 .byte   N23 ,Cn1 ,v127
 .byte   N11 ,Fs1 ,v127
 .byte   W12
 .byte   N11 ,Fs1 ,v127
 .byte   W12
@  #04 @211   ----------------------------------------
 .byte   N23 ,Cn1 ,v127
 .byte   N23 ,Cn1 ,v127
 .byte   N23 ,As1 ,v127
 .byte   W24
 .byte   N11 ,Fs1 ,v127
 .byte   W12
 .byte   N11 ,Fs1 ,v127
 .byte   W12
 .byte   N23 ,Dn1 ,v127
 .byte   N23 ,En1 ,v127
 .byte   N23 ,As1 ,v127
 .byte   W24
 .byte   N11 ,Cn1 ,v127
 .byte   N11 ,Cn1 ,v127
 .byte   N11 ,Fs1 ,v127
 .byte   W12
 .byte   N11 ,Fs1 ,v127
 .byte   W12
@  #04 @212   ----------------------------------------
 .byte   VOICE , 124
 .byte   VOL , 50*song04_mvl/mxv
 .byte   MODT 1
 .byte   N23 ,Cn1 ,v127
 .byte   N23 ,Cn1 ,v127
 .byte   N23 ,As1 ,v127
 .byte   W24
 .byte   N11 ,Fs1 ,v127
 .byte   W12
 .byte   N11 ,Fs1 ,v127
 .byte   W12
 .byte   N23 ,Dn1 ,v127
 .byte   N23 ,En1 ,v127
 .byte   N23 ,As1 ,v127
 .byte   W24
 .byte   N23 ,Cn1 ,v127
 .byte   N23 ,Cn1 ,v127
 .byte   N11 ,Fs1 ,v127
 .byte   W12
 .byte   N11 ,Fs1 ,v127
 .byte   W12
@  #04 @213   ----------------------------------------
 .byte   N23 ,Cn1 ,v127
 .byte   N23 ,Cn1 ,v127
 .byte   N23 ,As1 ,v127
 .byte   W24
 .byte   N11 ,Fs1 ,v127
 .byte   W12
 .byte   N11 ,Fs1 ,v127
 .byte   W12
 .byte   N23 ,Dn1 ,v127
 .byte   N23 ,En1 ,v127
 .byte   N23 ,As1 ,v127
 .byte   W24
 .byte   N11 ,Cn1 ,v127
 .byte   N11 ,Cn1 ,v127
 .byte   N11 ,Fs1 ,v127
 .byte   W12
 .byte   N11 ,Fs1 ,v127
 .byte   W12
@  #04 @214   ----------------------------------------
 .byte   VOICE , 124
 .byte   VOL , 50*song04_mvl/mxv
 .byte   MODT 1
 .byte   N23 ,Cn1 ,v127
 .byte   N23 ,Cn1 ,v127
 .byte   N23 ,As1 ,v127
 .byte   W24
 .byte   N11 ,Fs1 ,v127
 .byte   W12
 .byte   N11 ,Fs1 ,v127
 .byte   W12
 .byte   N23 ,Dn1 ,v127
 .byte   N23 ,En1 ,v127
 .byte   N23 ,As1 ,v127
 .byte   W24
 .byte   N23 ,Cn1 ,v127
 .byte   N23 ,Cn1 ,v127
 .byte   N11 ,Fs1 ,v127
 .byte   W12
 .byte   N11 ,Fs1 ,v127
 .byte   W12
@  #04 @215   ----------------------------------------
 .byte   N23 ,Cn1 ,v127
 .byte   N23 ,Cn1 ,v127
 .byte   N23 ,As1 ,v127
 .byte   W24
 .byte   N11 ,Fs1 ,v127
 .byte   W12
 .byte   N11 ,Fs1 ,v127
 .byte   W12
 .byte   N23 ,Dn1 ,v127
 .byte   N23 ,En1 ,v127
 .byte   N23 ,As1 ,v127
 .byte   W24
 .byte   N11 ,Cn1 ,v127
 .byte   N11 ,Cn1 ,v127
 .byte   N11 ,Fs1 ,v127
 .byte   W12
 .byte   N11 ,Fs1 ,v127
 .byte   W12
@  #04 @216   ----------------------------------------
 .byte   VOICE , 124
 .byte   VOL , 50*song04_mvl/mxv
 .byte   MODT 1
 .byte   N23 ,Cn1 ,v127
 .byte   N23 ,Cn1 ,v127
 .byte   N23 ,As1 ,v127
 .byte   W24
 .byte   N11 ,Fs1 ,v127
 .byte   W12
 .byte   N11 ,Fs1 ,v127
 .byte   W12
 .byte   N23 ,Dn1 ,v127
 .byte   N23 ,En1 ,v127
 .byte   N23 ,As1 ,v127
 .byte   W24
 .byte   N23 ,Cn1 ,v127
 .byte   N23 ,Cn1 ,v127
 .byte   N11 ,Fs1 ,v127
 .byte   W12
 .byte   N11 ,Fs1 ,v127
 .byte   W12
@  #04 @217   ----------------------------------------
 .byte   N23 ,Cn1 ,v127
 .byte   N23 ,Cn1 ,v127
 .byte   N23 ,As1 ,v127
 .byte   W24
 .byte   N11 ,Fs1 ,v127
 .byte   W12
 .byte   N11 ,Fs1 ,v127
 .byte   W12
 .byte   N23 ,Dn1 ,v127
 .byte   N23 ,En1 ,v127
 .byte   N23 ,As1 ,v127
 .byte   W24
 .byte   N11 ,Cn1 ,v127
 .byte   N11 ,Cn1 ,v127
 .byte   N11 ,Fs1 ,v127
 .byte   W12
 .byte   N11 ,Fs1 ,v127
 .byte   W12
@  #04 @218   ----------------------------------------
 .byte   VOICE , 124
 .byte   VOL , 50*song04_mvl/mxv
 .byte   MODT 1
 .byte   N23 ,Cn1 ,v127
 .byte   N23 ,Cn1 ,v127
 .byte   N23 ,As1 ,v127
 .byte   W24
 .byte   N11 ,Fs1 ,v127
 .byte   W12
 .byte   N11 ,Fs1 ,v127
 .byte   W12
 .byte   N23 ,Dn1 ,v127
 .byte   N23 ,En1 ,v127
 .byte   N23 ,As1 ,v127
 .byte   W24
 .byte   N23 ,Cn1 ,v127
 .byte   N23 ,Cn1 ,v127
 .byte   N11 ,Fs1 ,v127
 .byte   W12
 .byte   N11 ,Fs1 ,v127
 .byte   W12
@  #04 @219   ----------------------------------------
 .byte   N23 ,Cn1 ,v127
 .byte   N23 ,Cn1 ,v127
 .byte   N23 ,As1 ,v127
 .byte   W24
 .byte   N11 ,Fs1 ,v127
 .byte   W12
 .byte   N11 ,Fs1 ,v127
 .byte   W12
 .byte   N23 ,Dn1 ,v127
 .byte   N23 ,En1 ,v127
 .byte   N23 ,As1 ,v127
 .byte   W24
 .byte   N11 ,Cn1 ,v127
 .byte   N11 ,Cn1 ,v127
 .byte   N11 ,Fs1 ,v127
 .byte   W12
 .byte   N11 ,Fs1 ,v127
 .byte   W12
@  #04 @220   ----------------------------------------
 .byte   VOICE , 124
 .byte   VOL , 50*song04_mvl/mxv
 .byte   MODT 1
 .byte   N23 ,Cn1 ,v127
 .byte   N23 ,Cn1 ,v127
 .byte   N23 ,As1 ,v127
 .byte   W24
 .byte   N11 ,Fs1 ,v127
 .byte   W12
 .byte   N11 ,Fs1 ,v127
 .byte   W12
 .byte   N23 ,Dn1 ,v127
 .byte   N23 ,En1 ,v127
 .byte   N23 ,As1 ,v127
 .byte   W24
 .byte   N23 ,Cn1 ,v127
 .byte   N23 ,Cn1 ,v127
 .byte   N11 ,Fs1 ,v127
 .byte   W12
 .byte   N11 ,Fs1 ,v127
 .byte   W12
@  #04 @221   ----------------------------------------
 .byte   N23 ,Cn1 ,v127
 .byte   N23 ,Cn1 ,v127
 .byte   N23 ,As1 ,v127
 .byte   W24
 .byte   N11 ,Fs1 ,v127
 .byte   W12
 .byte   N11 ,Fs1 ,v127
 .byte   W12
 .byte   N23 ,Dn1 ,v127
 .byte   N23 ,En1 ,v127
 .byte   N23 ,As1 ,v127
 .byte   W24
 .byte   N11 ,Cn1 ,v127
 .byte   N11 ,Cn1 ,v127
 .byte   N11 ,Fs1 ,v127
 .byte   W12
 .byte   N11 ,Fs1 ,v127
 .byte   W12
@  #04 @222   ----------------------------------------
 .byte   VOICE , 124
 .byte   VOL , 50*song04_mvl/mxv
 .byte   MODT 1
 .byte   N23 ,Cn1 ,v127
 .byte   N23 ,Cn1 ,v127
 .byte   N23 ,As1 ,v127
 .byte   W24
 .byte   N11 ,Fs1 ,v127
 .byte   W12
 .byte   N11 ,Fs1 ,v127
 .byte   W12
 .byte   N23 ,Dn1 ,v127
 .byte   N23 ,En1 ,v127
 .byte   N23 ,As1 ,v127
 .byte   W24
 .byte   N23 ,Cn1 ,v127
 .byte   N23 ,Cn1 ,v127
 .byte   N11 ,Fs1 ,v127
 .byte   W12
 .byte   N11 ,Fs1 ,v127
 .byte   W12
@  #04 @223   ----------------------------------------
 .byte   N23 ,Cn1 ,v127
 .byte   N23 ,Cn1 ,v127
 .byte   N23 ,As1 ,v127
 .byte   W24
 .byte   N11 ,Fs1 ,v127
 .byte   W12
 .byte   N11 ,Fs1 ,v127
 .byte   W12
 .byte   N23 ,Dn1 ,v127
 .byte   N23 ,En1 ,v127
 .byte   N23 ,As1 ,v127
 .byte   W24
 .byte   N11 ,Cn1 ,v127
 .byte   N11 ,Cn1 ,v127
 .byte   N11 ,Fs1 ,v127
 .byte   W12
 .byte   N11 ,Fs1 ,v127
 .byte   W12
@  #04 @224   ----------------------------------------
 .byte   VOICE , 124
 .byte   VOL , 50*song04_mvl/mxv
 .byte   MODT 1
 .byte   N23 ,Cn1 ,v127
 .byte   N23 ,Cn1 ,v127
 .byte   N23 ,As1 ,v127
 .byte   W24
 .byte   N11 ,Fs1 ,v127
 .byte   W12
 .byte   N11 ,Fs1 ,v127
 .byte   W12
 .byte   N11 ,Dn1 ,v127
 .byte   N11 ,En1 ,v127
 .byte   N11 ,As1 ,v127
 .byte   W12
 .byte   N11 ,Dn1 ,v127
 .byte   N11 ,En1 ,v127
 .byte   W12
 .byte   N23 ,Cn1 ,v127
 .byte   N23 ,Cn1 ,v127
 .byte   N11 ,Dn1 ,v127
 .byte   N11 ,En1 ,v127
 .byte   N11 ,Fs1 ,v127
 .byte   W12
 .byte   N11 ,Dn1 ,v127
 .byte   N11 ,En1 ,v127
 .byte   N11 ,Fs1 ,v127
 .byte   W12
@  #04 @225   ----------------------------------------
 .byte   N11 ,Cn1 ,v127
 .byte   N11 ,Cn1 ,v127
 .byte   N11 ,Fs1 ,v127
 .byte   N11 ,An2 ,v127
 .byte   W12
 .byte   N11 ,Gs1 ,v127
 .byte   W12
 .byte   N11 ,As1 ,v127
 .byte   W12
 .byte   N11 ,Gs1 ,v127
 .byte   W12
 .byte   N11 ,Dn1 ,v127
 .byte   N11 ,En1 ,v127
 .byte   N11 ,Fs1 ,v127
 .byte   W12
 .byte   N11 ,Gs1 ,v127
 .byte   W12
 .byte   N11 ,Cn1 ,v127
 .byte   N11 ,Cn1 ,v127
 .byte   N11 ,As1 ,v127
 .byte   W12
 .byte   N11 ,Gs1 ,v127
 .byte   W12
@  #04 @226   ----------------------------------------
 .byte   VOICE , 124
 .byte   VOL , 50*song04_mvl/mxv
 .byte   MODT 1
 .byte   N11 ,Cn1 ,v127
 .byte   N11 ,Cn1 ,v127
 .byte   N11 ,Fs1 ,v127
 .byte   W12
 .byte   N11 ,Dn1 ,v127
 .byte   N11 ,En1 ,v127
 .byte   N11 ,Gs1 ,v127
 .byte   W12
 .byte   N11 ,As1 ,v127
 .byte   W12
 .byte   N11 ,Gs1 ,v127
 .byte   W12
 .byte   N11 ,Dn1 ,v127
 .byte   N11 ,En1 ,v127
 .byte   N11 ,Fs1 ,v127
 .byte   W12
 .byte   N11 ,Gs1 ,v127
 .byte   W12
 .byte   N11 ,Cn1 ,v127
 .byte   N11 ,Cn1 ,v127
 .byte   N11 ,As1 ,v127
 .byte   W12
 .byte   N11 ,Gs1 ,v127
 .byte   W12
@  #04 @227   ----------------------------------------
 .byte   N11 ,Cn1 ,v127
 .byte   N11 ,Cn1 ,v127
 .byte   N11 ,Fs1 ,v127
 .byte   W12
 .byte   N11 ,Gs1 ,v127
 .byte   W12
 .byte   N11 ,As1 ,v127
 .byte   W12
 .byte   N11 ,Gs1 ,v127
 .byte   W12
 .byte   N11 ,Dn1 ,v127
 .byte   N11 ,En1 ,v127
 .byte   N11 ,Fs1 ,v127
 .byte   W12
 .byte   N11 ,Gs1 ,v127
 .byte   W12
 .byte   N11 ,Cn1 ,v127
 .byte   N11 ,Cn1 ,v127
 .byte   N11 ,As1 ,v127
 .byte   W12
 .byte   N11 ,Gs1 ,v127
 .byte   W12
@  #04 @228   ----------------------------------------
 .byte   VOICE , 124
 .byte   VOL , 50*song04_mvl/mxv
 .byte   MODT 1
 .byte   N11 ,Cn1 ,v127
 .byte   N11 ,Cn1 ,v127
 .byte   N11 ,Fs1 ,v127
 .byte   W12
 .byte   N11 ,Dn1 ,v127
 .byte   N11 ,En1 ,v127
 .byte   N11 ,Gs1 ,v127
 .byte   W12
 .byte   N11 ,As1 ,v127
 .byte   W12
 .byte   N11 ,Gs1 ,v127
 .byte   W12
 .byte   N11 ,Dn1 ,v127
 .byte   N11 ,En1 ,v127
 .byte   N11 ,Fs1 ,v127
 .byte   W12
 .byte   N11 ,Gs1 ,v127
 .byte   W12
 .byte   N11 ,Cn1 ,v127
 .byte   N11 ,Cn1 ,v127
 .byte   N11 ,As1 ,v127
 .byte   W12
 .byte   N11 ,Gs1 ,v127
 .byte   W12
@  #04 @229   ----------------------------------------
 .byte   N11 ,Cn1 ,v127
 .byte   N11 ,Cn1 ,v127
 .byte   N11 ,Fs1 ,v127
 .byte   W12
 .byte   N11 ,Gs1 ,v127
 .byte   W12
 .byte   N11 ,As1 ,v127
 .byte   W12
 .byte   N11 ,Gs1 ,v127
 .byte   W12
 .byte   N11 ,Dn1 ,v127
 .byte   N11 ,En1 ,v127
 .byte   N11 ,Fs1 ,v127
 .byte   W12
 .byte   N11 ,Gs1 ,v127
 .byte   W12
 .byte   N11 ,Cn1 ,v127
 .byte   N11 ,Cn1 ,v127
 .byte   N11 ,As1 ,v127
 .byte   W12
 .byte   N11 ,Gs1 ,v127
 .byte   W12
@  #04 @230   ----------------------------------------
 .byte   VOICE , 124
 .byte   VOL , 50*song04_mvl/mxv
 .byte   MODT 1
 .byte   N11 ,Cn1 ,v127
 .byte   N11 ,Cn1 ,v127
 .byte   N11 ,Fs1 ,v127
 .byte   W12
 .byte   N11 ,Dn1 ,v127
 .byte   N11 ,En1 ,v127
 .byte   N11 ,Gs1 ,v127
 .byte   W12
 .byte   N11 ,As1 ,v127
 .byte   W12
 .byte   N11 ,Gs1 ,v127
 .byte   W12
 .byte   N11 ,Dn1 ,v127
 .byte   N11 ,En1 ,v127
 .byte   N11 ,Fs1 ,v127
 .byte   W12
 .byte   N11 ,Gs1 ,v127
 .byte   W12
 .byte   N11 ,Cn1 ,v127
 .byte   N11 ,Cn1 ,v127
 .byte   N11 ,As1 ,v127
 .byte   W12
 .byte   N11 ,Gs1 ,v127
 .byte   W12
@  #04 @231   ----------------------------------------
 .byte   N11 ,Cn1 ,v127
 .byte   N11 ,Cn1 ,v127
 .byte   N11 ,Fs1 ,v127
 .byte   W12
 .byte   N11 ,Gs1 ,v127
 .byte   W12
 .byte   N11 ,As1 ,v127
 .byte   W12
 .byte   N11 ,Gs1 ,v127
 .byte   W12
 .byte   N11 ,Dn1 ,v127
 .byte   N11 ,En1 ,v127
 .byte   N11 ,Fs1 ,v127
 .byte   W12
 .byte   N11 ,Gs1 ,v127
 .byte   W12
 .byte   N11 ,Cn1 ,v127
 .byte   N11 ,Cn1 ,v127
 .byte   N11 ,As1 ,v127
 .byte   W12
 .byte   N11 ,Gs1 ,v127
 .byte   W12
@  #04 @232   ----------------------------------------
 .byte   VOICE , 124
 .byte   VOL , 50*song04_mvl/mxv
 .byte   MODT 1
 .byte   N11 ,Cn1 ,v127
 .byte   N11 ,Cn1 ,v127
 .byte   N11 ,Fs1 ,v127
 .byte   W12
 .byte   N11 ,Dn1 ,v127
 .byte   N11 ,En1 ,v127
 .byte   N11 ,Gs1 ,v127
 .byte   W12
 .byte   N11 ,As1 ,v127
 .byte   W12
 .byte   N11 ,Gs1 ,v127
 .byte   W12
 .byte   N11 ,Dn1 ,v127
 .byte   N11 ,En1 ,v127
 .byte   N11 ,Fs1 ,v127
 .byte   W12
 .byte   N11 ,Dn1 ,v127
 .byte   N11 ,En1 ,v127
 .byte   N11 ,Gs1 ,v127
 .byte   W12
 .byte   N11 ,Cn1 ,v127
 .byte   N11 ,Cn1 ,v127
 .byte   N11 ,Dn1 ,v127
 .byte   N11 ,En1 ,v127
 .byte   N11 ,As1 ,v127
 .byte   W12
 .byte   N11 ,Dn1 ,v127
 .byte   N11 ,En1 ,v127
 .byte   N11 ,Gs1 ,v127
 .byte   W12
@  #04 @233   ----------------------------------------
 .byte   N11 ,Cn1 ,v127
 .byte   N11 ,Cn1 ,v127
 .byte   N11 ,Fs1 ,v127
 .byte   N11 ,An2 ,v127
 .byte   W12
 .byte   N11 ,Gs1 ,v127
 .byte   W12
 .byte   N11 ,As1 ,v127
 .byte   W12
 .byte   N11 ,Gs1 ,v127
 .byte   W12
 .byte   N11 ,Dn1 ,v127
 .byte   N11 ,En1 ,v127
 .byte   N11 ,Fs1 ,v127
 .byte   W12
 .byte   N11 ,Gs1 ,v127
 .byte   W12
 .byte   N11 ,Cn1 ,v127
 .byte   N11 ,Cn1 ,v127
 .byte   N11 ,As1 ,v127
 .byte   W12
 .byte   N11 ,Gs1 ,v127
 .byte   W12
@  #04 @234   ----------------------------------------
 .byte   VOICE , 124
 .byte   VOL , 50*song04_mvl/mxv
 .byte   MODT 1
 .byte   N11 ,Cn1 ,v127
 .byte   N11 ,Cn1 ,v127
 .byte   N11 ,Fs1 ,v127
 .byte   W12
 .byte   N11 ,Dn1 ,v127
 .byte   N11 ,En1 ,v127
 .byte   N11 ,Gs1 ,v127
 .byte   W12
 .byte   N11 ,As1 ,v127
 .byte   W12
 .byte   N11 ,Gs1 ,v127
 .byte   W12
 .byte   N11 ,Dn1 ,v127
 .byte   N11 ,En1 ,v127
 .byte   N11 ,Fs1 ,v127
 .byte   W12
 .byte   N11 ,Gs1 ,v127
 .byte   W12
 .byte   N11 ,Cn1 ,v127
 .byte   N11 ,Cn1 ,v127
 .byte   N11 ,As1 ,v127
 .byte   W12
 .byte   N11 ,Gs1 ,v127
 .byte   W12
@  #04 @235   ----------------------------------------
 .byte   N11 ,Cn1 ,v127
 .byte   N11 ,Cn1 ,v127
 .byte   N11 ,Fs1 ,v127
 .byte   W12
 .byte   N11 ,Gs1 ,v127
 .byte   W12
 .byte   N11 ,As1 ,v127
 .byte   W12
 .byte   N11 ,Gs1 ,v127
 .byte   W12
 .byte   N11 ,Dn1 ,v127
 .byte   N11 ,En1 ,v127
 .byte   N11 ,Fs1 ,v127
 .byte   W12
 .byte   N11 ,Gs1 ,v127
 .byte   W12
 .byte   N11 ,Cn1 ,v127
 .byte   N11 ,Cn1 ,v127
 .byte   N11 ,As1 ,v127
 .byte   W12
 .byte   N11 ,Gs1 ,v127
 .byte   W12
@  #04 @236   ----------------------------------------
 .byte   VOICE , 124
 .byte   VOL , 50*song04_mvl/mxv
 .byte   MODT 1
 .byte   N11 ,Cn1 ,v127
 .byte   N11 ,Cn1 ,v127
 .byte   N11 ,Fs1 ,v127
 .byte   W12
 .byte   N11 ,Dn1 ,v127
 .byte   N11 ,En1 ,v127
 .byte   N11 ,Gs1 ,v127
 .byte   W12
 .byte   N11 ,As1 ,v127
 .byte   W12
 .byte   N11 ,Gs1 ,v127
 .byte   W12
 .byte   N11 ,Dn1 ,v127
 .byte   N11 ,En1 ,v127
 .byte   N11 ,Fs1 ,v127
 .byte   W12
 .byte   N11 ,Gs1 ,v127
 .byte   W12
 .byte   N11 ,Cn1 ,v127
 .byte   N11 ,Cn1 ,v127
 .byte   N11 ,As1 ,v127
 .byte   W12
 .byte   N11 ,Gs1 ,v127
 .byte   W12
@  #04 @237   ----------------------------------------
 .byte   N11 ,Cn1 ,v127
 .byte   N11 ,Cn1 ,v127
 .byte   N11 ,Fs1 ,v127
 .byte   W12
 .byte   N11 ,Gs1 ,v127
 .byte   W12
 .byte   N11 ,As1 ,v127
 .byte   W12
 .byte   N11 ,Gs1 ,v127
 .byte   W12
 .byte   N11 ,Dn1 ,v127
 .byte   N11 ,En1 ,v127
 .byte   N11 ,Fs1 ,v127
 .byte   W12
 .byte   N11 ,Gs1 ,v127
 .byte   W12
 .byte   N11 ,Cn1 ,v127
 .byte   N11 ,Cn1 ,v127
 .byte   N11 ,As1 ,v127
 .byte   W12
 .byte   N11 ,Gs1 ,v127
 .byte   W12
@  #04 @238   ----------------------------------------
 .byte   VOICE , 124
 .byte   VOL , 50*song04_mvl/mxv
 .byte   MODT 1
 .byte   N11 ,Cn1 ,v127
 .byte   N11 ,Cn1 ,v127
 .byte   N11 ,Fs1 ,v127
 .byte   W12
 .byte   N11 ,Dn1 ,v127
 .byte   N11 ,En1 ,v127
 .byte   N11 ,Gs1 ,v127
 .byte   W12
 .byte   N11 ,As1 ,v127
 .byte   W12
 .byte   N11 ,Gs1 ,v127
 .byte   W12
 .byte   N11 ,Dn1 ,v127
 .byte   N11 ,En1 ,v127
 .byte   N11 ,Fs1 ,v127
 .byte   W12
 .byte   N11 ,Gs1 ,v127
 .byte   W12
 .byte   N11 ,Cn1 ,v127
 .byte   N11 ,Cn1 ,v127
 .byte   N11 ,As1 ,v127
 .byte   W12
 .byte   N11 ,Gs1 ,v127
 .byte   W12
@  #04 @239   ----------------------------------------
 .byte   N11 ,Cn1 ,v127
 .byte   N11 ,Cn1 ,v127
 .byte   N11 ,Fs1 ,v127
 .byte   W12
 .byte   N11 ,Gs1 ,v127
 .byte   W12
 .byte   N11 ,As1 ,v127
 .byte   W12
 .byte   N11 ,Gs1 ,v127
 .byte   W12
 .byte   N11 ,Dn1 ,v127
 .byte   N11 ,En1 ,v127
 .byte   N11 ,Fs1 ,v127
 .byte   W12
 .byte   N11 ,Gs1 ,v127
 .byte   W12
 .byte   N11 ,Cn1 ,v127
 .byte   N11 ,Cn1 ,v127
 .byte   N11 ,As1 ,v127
 .byte   W12
 .byte   N11 ,Gs1 ,v127
 .byte   W12
@  #04 @240   ----------------------------------------
 .byte   VOICE , 124
 .byte   VOL , 50*song04_mvl/mxv
 .byte   MODT 1
 .byte   N11 ,Cn1 ,v127
 .byte   N11 ,Cn1 ,v127
 .byte   N11 ,Fs1 ,v127
 .byte   W12
 .byte   N11 ,Dn1 ,v127
 .byte   N11 ,En1 ,v127
 .byte   N11 ,Gs1 ,v127
 .byte   W12
 .byte   N11 ,As1 ,v127
 .byte   W12
 .byte   N11 ,Gs1 ,v127
 .byte   W12
 .byte   N11 ,Dn1 ,v127
 .byte   N11 ,En1 ,v127
 .byte   N11 ,Fs1 ,v127
 .byte   W12
 .byte   N11 ,Dn1 ,v127
 .byte   N11 ,En1 ,v127
 .byte   N11 ,Gs1 ,v127
 .byte   W12
 .byte   N11 ,Cn1 ,v127
 .byte   N11 ,Cn1 ,v127
 .byte   N11 ,Dn1 ,v127
 .byte   N11 ,En1 ,v127
 .byte   N11 ,As1 ,v127
 .byte   W12
 .byte   N11 ,Dn1 ,v127
 .byte   N11 ,En1 ,v127
 .byte   N11 ,Gs1 ,v127
 .byte   W12
@  #04 @241   ----------------------------------------
 .byte   N23 ,Cn1 ,v127
 .byte   N23 ,Cn1 ,v127
 .byte   N23 ,Fs1 ,v127
 .byte   N23 ,An2 ,v127
 .byte   W24
 .byte   N23 ,Fs1 ,v127
 .byte   W24
 .byte   N23 ,Gs1 ,v127
 .byte   W24
 .byte   N23 ,Cn1 ,v127
 .byte   N23 ,Cn1 ,v127
 .byte   N23 ,Fs1 ,v127
 .byte   W24
@  #04 @242   ----------------------------------------
 .byte   VOICE , 124
 .byte   VOL , 50*song04_mvl/mxv
 .byte   MODT 1
 .byte   N23 ,Dn1 ,v127
 .byte   N23 ,En1 ,v127
 .byte   N23 ,As1 ,v127
 .byte   W24
 .byte   N23 ,Gs1 ,v127
 .byte   W24
 .byte   N23 ,Cn1 ,v127
 .byte   N23 ,Cn1 ,v127
 .byte   N23 ,Fs1 ,v127
 .byte   W24
 .byte   N23 ,Gs1 ,v127
 .byte   W24
@  #04 @243   ----------------------------------------
 .byte   N23 ,Cn1 ,v127
 .byte   N23 ,Cn1 ,v127
 .byte   N23 ,Fs1 ,v127
 .byte   N23 ,An2 ,v127
 .byte   W24
 .byte   N23 ,Fs1 ,v127
 .byte   W24
 .byte   N23 ,Gs1 ,v127
 .byte   W24
 .byte   N23 ,Cn1 ,v127
 .byte   N23 ,Cn1 ,v127
 .byte   N23 ,Fs1 ,v127
 .byte   W24
@  #04 @244   ----------------------------------------
 .byte   VOICE , 124
 .byte   VOL , 50*song04_mvl/mxv
 .byte   MODT 1
 .byte   N23 ,Dn1 ,v127
 .byte   N23 ,En1 ,v127
 .byte   N23 ,As1 ,v127
 .byte   W24
 .byte   N23 ,Gs1 ,v127
 .byte   W24
 .byte   N23 ,Cn1 ,v127
 .byte   N23 ,Cn1 ,v127
 .byte   N23 ,Fs1 ,v127
 .byte   W24
 .byte   N23 ,Gs1 ,v127
 .byte   W24
@  #04 @245   ----------------------------------------
 .byte   N23 ,Cn1 ,v127
 .byte   N23 ,Cn1 ,v127
 .byte   N23 ,Fs1 ,v127
 .byte   N23 ,An2 ,v127
 .byte   W24
 .byte   N23 ,Fs1 ,v127
 .byte   W24
 .byte   N23 ,Gs1 ,v127
 .byte   W24
 .byte   N23 ,Cn1 ,v127
 .byte   N23 ,Cn1 ,v127
 .byte   N23 ,Fs1 ,v127
 .byte   W24
@  #04 @246   ----------------------------------------
 .byte   VOICE , 124
 .byte   VOL , 50*song04_mvl/mxv
 .byte   MODT 1
 .byte   N23 ,Dn1 ,v127
 .byte   N23 ,En1 ,v127
 .byte   N23 ,As1 ,v127
 .byte   W24
 .byte   N23 ,Gs1 ,v127
 .byte   W24
 .byte   N23 ,Cn1 ,v127
 .byte   N23 ,Cn1 ,v127
 .byte   N23 ,Fs1 ,v127
 .byte   W24
 .byte   N23 ,Gs1 ,v127
 .byte   W24
@  #04 @247   ----------------------------------------
 .byte   N23 ,Cn1 ,v127
 .byte   N23 ,Cn1 ,v127
 .byte   N23 ,Fs1 ,v127
 .byte   N23 ,An2 ,v127
 .byte   W24
 .byte   N23 ,Fs1 ,v127
 .byte   W24
 .byte   N23 ,Gs1 ,v127
 .byte   W24
 .byte   N23 ,Cn1 ,v127
 .byte   N23 ,Cn1 ,v127
 .byte   N23 ,Fs1 ,v127
 .byte   W24
@  #04 @248   ----------------------------------------
 .byte   VOICE , 124
 .byte   VOL , 50*song04_mvl/mxv
 .byte   MODT 1
 .byte   N23 ,Dn1 ,v127
 .byte   N23 ,En1 ,v127
 .byte   N23 ,As1 ,v127
 .byte   W24
 .byte   N23 ,Gs1 ,v127
 .byte   W24
 .byte   N23 ,Cn1 ,v127
 .byte   N23 ,Cn1 ,v127
 .byte   N23 ,Fs1 ,v127
 .byte   W24
 .byte   N23 ,Gs1 ,v127
 .byte   W24
@  #04 @249   ----------------------------------------
 .byte   N23 ,Cn1 ,v127
 .byte   N23 ,Cn1 ,v127
 .byte   N23 ,Fs1 ,v127
 .byte   N23 ,An2 ,v127
 .byte   W24
 .byte   N23 ,Fs1 ,v127
 .byte   W24
 .byte   N23 ,Gs1 ,v127
 .byte   W24
 .byte   N23 ,Cn1 ,v127
 .byte   N23 ,Cn1 ,v127
 .byte   N23 ,Fs1 ,v127
 .byte   W24
@  #04 @250   ----------------------------------------
 .byte   VOICE , 124
 .byte   VOL , 50*song04_mvl/mxv
 .byte   MODT 1
 .byte   N23 ,Dn1 ,v127
 .byte   N23 ,En1 ,v127
 .byte   N23 ,As1 ,v127
 .byte   W24
 .byte   N23 ,Gs1 ,v127
 .byte   W24
 .byte   N23 ,Cn1 ,v127
 .byte   N23 ,Cn1 ,v127
 .byte   N23 ,Fs1 ,v127
 .byte   W24
 .byte   N23 ,Gs1 ,v127
 .byte   W24
@  #04 @251   ----------------------------------------
 .byte   N23 ,Cn1 ,v127
 .byte   N23 ,Cn1 ,v127
 .byte   N23 ,Fs1 ,v127
 .byte   N23 ,An2 ,v127
 .byte   W24
 .byte   N23 ,Fs1 ,v127
 .byte   W24
 .byte   N23 ,Gs1 ,v127
 .byte   W24
 .byte   N23 ,Cn1 ,v127
 .byte   N23 ,Cn1 ,v127
 .byte   N23 ,Fs1 ,v127
 .byte   W24
@  #04 @252   ----------------------------------------
 .byte   VOICE , 124
 .byte   VOL , 50*song04_mvl/mxv
 .byte   MODT 1
 .byte   N23 ,Dn1 ,v127
 .byte   N23 ,En1 ,v127
 .byte   N23 ,As1 ,v127
 .byte   W24
 .byte   N23 ,Gs1 ,v127
 .byte   W24
 .byte   N23 ,Cn1 ,v127
 .byte   N23 ,Cn1 ,v127
 .byte   N23 ,Fs1 ,v127
 .byte   W24
 .byte   N23 ,Gs1 ,v127
 .byte   W24
@  #04 @253   ----------------------------------------
 .byte   N23 ,Cn1 ,v127
 .byte   N23 ,Cn1 ,v127
 .byte   N23 ,Fs1 ,v127
 .byte   N23 ,An2 ,v127
 .byte   W24
 .byte   N23 ,Fs1 ,v127
 .byte   W24
 .byte   N23 ,Gs1 ,v127
 .byte   W24
 .byte   N23 ,Cn1 ,v127
 .byte   N23 ,Cn1 ,v127
 .byte   N23 ,Fs1 ,v127
 .byte   W24
@  #04 @254   ----------------------------------------
 .byte   VOICE , 124
 .byte   VOL , 50*song04_mvl/mxv
 .byte   MODT 1
 .byte   N23 ,Dn1 ,v127
 .byte   N23 ,En1 ,v127
 .byte   N23 ,As1 ,v127
 .byte   W24
 .byte   N23 ,Gs1 ,v127
 .byte   W24
 .byte   N23 ,Cn1 ,v127
 .byte   N23 ,Cn1 ,v127
 .byte   N23 ,Fs1 ,v127
 .byte   W24
 .byte   N23 ,Gs1 ,v127
 .byte   W24
@  #04 @255   ----------------------------------------
 .byte   N23 ,En1 ,v127
 .byte   N23 ,An2 ,v127
 .byte   W24
 .byte   N23 ,Cn1 ,v127
 .byte   N23 ,Cn1 ,v127
 .byte   W24
 .byte   N23 ,En1 ,v127
 .byte   N23 ,An2 ,v127
 .byte   W24
 .byte   N23 ,Cn1 ,v127
 .byte   N23 ,Cn1 ,v127
 .byte   W24
@  #04 @256   ----------------------------------------
 .byte   VOICE , 124
 .byte   VOL , 50*song04_mvl/mxv
 .byte   MODT 1
 .byte   N23 ,En1 ,v127
 .byte   N23 ,An2 ,v127
 .byte   W24
 .byte   N23 ,Cn1 ,v127
 .byte   N23 ,Cn1 ,v127
 .byte   W24
 .byte   N11 ,En1 ,v127
 .byte   N11 ,Dn2 ,v127
 .byte   W12
 .byte   N11 ,En1 ,v127
 .byte   N11 ,Cn2 ,v127
 .byte   W12
 .byte   N11 ,En1 ,v127
 .byte   N11 ,Bn1 ,v127
 .byte   W12
 .byte   N11 ,En1 ,v127
 .byte   N11 ,An1 ,v127
 .byte   W12
@  #04 @257   ----------------------------------------
 .byte   N23 ,Cn1 ,v127
 .byte   N23 ,Cn1 ,v127
 .byte   N23 ,As1 ,v127
 .byte   N23 ,An2 ,v127
 .byte   W24
 .byte   N11 ,Cn1 ,v127
 .byte   N11 ,Cn1 ,v127
 .byte   N11 ,Fs1 ,v127
 .byte   W12
 .byte   N11 ,Fs1 ,v127
 .byte   W12
 .byte   N23 ,Dn1 ,v127
 .byte   N23 ,En1 ,v127
 .byte   N23 ,As1 ,v127
 .byte   N23 ,Bn1 ,v127
 .byte   N23 ,Cn2 ,v127
 .byte   N23 ,Dn2 ,v127
 .byte   W24
 .byte   N11 ,Fs1 ,v127
 .byte   W12
 .byte   N11 ,Fs1 ,v127
 .byte   W12
@  #04 @258   ----------------------------------------
 .byte   VOICE , 124
 .byte   VOL , 50*song04_mvl/mxv
 .byte   MODT 1
 .byte   N23 ,Cn1 ,v127
 .byte   N23 ,Cn1 ,v127
 .byte   N23 ,As1 ,v127
 .byte   W24
 .byte   N11 ,Cn1 ,v127
 .byte   N11 ,Cn1 ,v127
 .byte   N11 ,Fs1 ,v127
 .byte   W12
 .byte   N11 ,Fs1 ,v127
 .byte   W12
 .byte   N11 ,Dn1 ,v127
 .byte   N11 ,En1 ,v127
 .byte   N11 ,As1 ,v127
 .byte   N11 ,Bn1 ,v127
 .byte   N11 ,Cn2 ,v127
 .byte   N11 ,Dn2 ,v127
 .byte   W12
 .byte   N11 ,Cn1 ,v127
 .byte   N11 ,Cn1 ,v127
 .byte   W12
 .byte   N11 ,Fs1 ,v127
 .byte   W12
 .byte   N11 ,Fs1 ,v127
 .byte   W12
@  #04 @259   ----------------------------------------
 .byte   N23 ,Cn1 ,v127
 .byte   N23 ,Cn1 ,v127
 .byte   N23 ,As1 ,v127
 .byte   N23 ,An2 ,v127
 .byte   W24
 .byte   N11 ,Cn1 ,v127
 .byte   N11 ,Cn1 ,v127
 .byte   N11 ,Fs1 ,v127
 .byte   W12
 .byte   N11 ,Fs1 ,v127
 .byte   W12
 .byte   N23 ,Dn1 ,v127
 .byte   N23 ,En1 ,v127
 .byte   N23 ,As1 ,v127
 .byte   N23 ,Bn1 ,v127
 .byte   N23 ,Cn2 ,v127
 .byte   N23 ,Dn2 ,v127
 .byte   W24
 .byte   N11 ,Fs1 ,v127
 .byte   W12
 .byte   N11 ,Fs1 ,v127
 .byte   W12
@  #04 @260   ----------------------------------------
 .byte   VOICE , 124
 .byte   VOL , 50*song04_mvl/mxv
 .byte   MODT 1
 .byte   N23 ,Cn1 ,v127
 .byte   N23 ,Cn1 ,v127
 .byte   N23 ,As1 ,v127
 .byte   W24
 .byte   N11 ,Cn1 ,v127
 .byte   N11 ,Cn1 ,v127
 .byte   N11 ,Fs1 ,v127
 .byte   W12
 .byte   N11 ,Fs1 ,v127
 .byte   W12
 .byte   N11 ,Dn1 ,v127
 .byte   N11 ,En1 ,v127
 .byte   N11 ,As1 ,v127
 .byte   N11 ,Bn1 ,v127
 .byte   N11 ,Cn2 ,v127
 .byte   N11 ,Dn2 ,v127
 .byte   W12
 .byte   N11 ,Cn1 ,v127
 .byte   N11 ,Cn1 ,v127
 .byte   W12
 .byte   N11 ,Fs1 ,v127
 .byte   W12
 .byte   N11 ,Fs1 ,v127
 .byte   W12
@  #04 @261   ----------------------------------------
 .byte   N23 ,Cn1 ,v127
 .byte   N23 ,Cn1 ,v127
 .byte   N23 ,As1 ,v127
 .byte   N23 ,An2 ,v127
 .byte   W24
 .byte   N11 ,Cn1 ,v127
 .byte   N11 ,Cn1 ,v127
 .byte   N11 ,Fs1 ,v127
 .byte   W12
 .byte   N11 ,Fs1 ,v127
 .byte   W12
 .byte   N23 ,Dn1 ,v127
 .byte   N23 ,En1 ,v127
 .byte   N23 ,As1 ,v127
 .byte   N23 ,Bn1 ,v127
 .byte   N23 ,Cn2 ,v127
 .byte   N23 ,Dn2 ,v127
 .byte   W24
 .byte   N11 ,Fs1 ,v127
 .byte   W12
 .byte   N11 ,Fs1 ,v127
 .byte   W12
@  #04 @262   ----------------------------------------
 .byte   VOICE , 124
 .byte   VOL , 50*song04_mvl/mxv
 .byte   MODT 1
 .byte   N23 ,Cn1 ,v127
 .byte   N23 ,Cn1 ,v127
 .byte   N23 ,As1 ,v127
 .byte   W24
 .byte   N11 ,Cn1 ,v127
 .byte   N11 ,Cn1 ,v127
 .byte   N11 ,Fs1 ,v127
 .byte   W12
 .byte   N11 ,Fs1 ,v127
 .byte   W12
 .byte   N11 ,Dn1 ,v127
 .byte   N11 ,En1 ,v127
 .byte   N11 ,As1 ,v127
 .byte   N11 ,Bn1 ,v127
 .byte   N11 ,Cn2 ,v127
 .byte   N11 ,Dn2 ,v127
 .byte   W12
 .byte   N11 ,Cn1 ,v127
 .byte   N11 ,Cn1 ,v127
 .byte   W12
 .byte   N11 ,Fs1 ,v127
 .byte   W12
 .byte   N11 ,Fs1 ,v127
 .byte   W12
@  #04 @263   ----------------------------------------
 .byte   N23 ,Cn1 ,v127
 .byte   N23 ,Cn1 ,v127
 .byte   N23 ,As1 ,v127
 .byte   N23 ,An2 ,v127
 .byte   W24
 .byte   N11 ,Cn1 ,v127
 .byte   N11 ,Cn1 ,v127
 .byte   N11 ,Fs1 ,v127
 .byte   W12
 .byte   N11 ,Fs1 ,v127
 .byte   W12
 .byte   N23 ,Dn1 ,v127
 .byte   N23 ,En1 ,v127
 .byte   N23 ,As1 ,v127
 .byte   N23 ,Bn1 ,v127
 .byte   N23 ,Cn2 ,v127
 .byte   N23 ,Dn2 ,v127
 .byte   W24
 .byte   N11 ,Fs1 ,v127
 .byte   W12
 .byte   N11 ,Fs1 ,v127
 .byte   W12
@  #04 @264   ----------------------------------------
 .byte   VOICE , 124
 .byte   VOL , 50*song04_mvl/mxv
 .byte   MODT 1
 .byte   N23 ,Cn1 ,v127
 .byte   N23 ,Cn1 ,v127
 .byte   N23 ,As1 ,v127
 .byte   W24
 .byte   N11 ,Cn1 ,v127
 .byte   N11 ,Cn1 ,v127
 .byte   N11 ,Fs1 ,v127
 .byte   W12
 .byte   N11 ,Fs1 ,v127
 .byte   W12
 .byte   N11 ,Dn1 ,v127
 .byte   N11 ,En1 ,v127
 .byte   N11 ,As1 ,v127
 .byte   N11 ,Bn1 ,v127
 .byte   N11 ,Cn2 ,v127
 .byte   N11 ,Dn2 ,v127
 .byte   W12
 .byte   N11 ,Cn1 ,v127
 .byte   N11 ,Cn1 ,v127
 .byte   W12
 .byte   N11 ,Fs1 ,v127
 .byte   W12
 .byte   N11 ,Fs1 ,v127
 .byte   W12
@  #04 @265   ----------------------------------------
 .byte   N23 ,Cn1 ,v127
 .byte   N23 ,Cn1 ,v127
 .byte   N23 ,As1 ,v127
 .byte   N23 ,An2 ,v127
 .byte   W24
 .byte   N11 ,Cn1 ,v127
 .byte   N11 ,Cn1 ,v127
 .byte   N11 ,Fs1 ,v127
 .byte   W12
 .byte   N11 ,Fs1 ,v127
 .byte   W12
 .byte   N23 ,Dn1 ,v127
 .byte   N23 ,En1 ,v127
 .byte   N23 ,As1 ,v127
 .byte   N23 ,Bn1 ,v127
 .byte   N23 ,Cn2 ,v127
 .byte   N23 ,Dn2 ,v127
 .byte   W24
 .byte   N11 ,Fs1 ,v127
 .byte   W12
 .byte   N11 ,Fs1 ,v127
 .byte   W12
@  #04 @266   ----------------------------------------
 .byte   VOICE , 124
 .byte   VOL , 50*song04_mvl/mxv
 .byte   MODT 1
 .byte   N23 ,Cn1 ,v127
 .byte   N23 ,Cn1 ,v127
 .byte   N23 ,As1 ,v127
 .byte   W24
 .byte   N11 ,Cn1 ,v127
 .byte   N11 ,Cn1 ,v127
 .byte   N11 ,Fs1 ,v127
 .byte   W12
 .byte   N11 ,Fs1 ,v127
 .byte   W12
 .byte   N11 ,Dn1 ,v127
 .byte   N11 ,En1 ,v127
 .byte   N11 ,As1 ,v127
 .byte   N11 ,Bn1 ,v127
 .byte   N11 ,Cn2 ,v127
 .byte   N11 ,Dn2 ,v127
 .byte   W12
 .byte   N11 ,Cn1 ,v127
 .byte   N11 ,Cn1 ,v127
 .byte   W12
 .byte   N11 ,Fs1 ,v127
 .byte   W12
 .byte   N11 ,Fs1 ,v127
 .byte   W12
@  #04 @267   ----------------------------------------
 .byte   N23 ,Cn1 ,v127
 .byte   N23 ,Cn1 ,v127
 .byte   N23 ,As1 ,v127
 .byte   N23 ,An2 ,v127
 .byte   W24
 .byte   N11 ,Cn1 ,v127
 .byte   N11 ,Cn1 ,v127
 .byte   N11 ,Fs1 ,v127
 .byte   W12
 .byte   N11 ,Fs1 ,v127
 .byte   W12
 .byte   N23 ,Dn1 ,v127
 .byte   N23 ,En1 ,v127
 .byte   N23 ,As1 ,v127
 .byte   N23 ,Bn1 ,v127
 .byte   N23 ,Cn2 ,v127
 .byte   N23 ,Dn2 ,v127
 .byte   W24
 .byte   N11 ,Fs1 ,v127
 .byte   W12
 .byte   N11 ,Fs1 ,v127
 .byte   W12
@  #04 @268   ----------------------------------------
 .byte   VOICE , 124
 .byte   VOL , 50*song04_mvl/mxv
 .byte   MODT 1
 .byte   N23 ,Cn1 ,v127
 .byte   N23 ,Cn1 ,v127
 .byte   N23 ,As1 ,v127
 .byte   W24
 .byte   N11 ,Cn1 ,v127
 .byte   N11 ,Cn1 ,v127
 .byte   N11 ,Fs1 ,v127
 .byte   W12
 .byte   N11 ,Fs1 ,v127
 .byte   W12
 .byte   N11 ,Dn1 ,v127
 .byte   N11 ,En1 ,v127
 .byte   N11 ,As1 ,v127
 .byte   N11 ,Bn1 ,v127
 .byte   N11 ,Cn2 ,v127
 .byte   N11 ,Dn2 ,v127
 .byte   W12
 .byte   N11 ,Cn1 ,v127
 .byte   N11 ,Cn1 ,v127
 .byte   W12
 .byte   N11 ,Fs1 ,v127
 .byte   W12
 .byte   N11 ,Fs1 ,v127
 .byte   W12
@  #04 @269   ----------------------------------------
 .byte   N23 ,Cn1 ,v127
 .byte   N23 ,Cn1 ,v127
 .byte   N23 ,As1 ,v127
 .byte   N23 ,An2 ,v127
 .byte   W24
 .byte   N11 ,Cn1 ,v127
 .byte   N11 ,Cn1 ,v127
 .byte   N11 ,Fs1 ,v127
 .byte   W12
 .byte   N11 ,Fs1 ,v127
 .byte   W12
 .byte   N23 ,Dn1 ,v127
 .byte   N23 ,En1 ,v127
 .byte   N23 ,As1 ,v127
 .byte   N23 ,Bn1 ,v127
 .byte   N23 ,Cn2 ,v127
 .byte   N23 ,Dn2 ,v127
 .byte   W24
 .byte   N11 ,Fs1 ,v127
 .byte   W12
 .byte   N11 ,Fs1 ,v127
 .byte   W12
@  #04 @270   ----------------------------------------
 .byte   VOICE , 124
 .byte   VOL , 50*song04_mvl/mxv
 .byte   MODT 1
 .byte   N23 ,Cn1 ,v127
 .byte   N23 ,Cn1 ,v127
 .byte   N23 ,As1 ,v127
 .byte   W24
 .byte   N11 ,Cn1 ,v127
 .byte   N11 ,Cn1 ,v127
 .byte   N11 ,Fs1 ,v127
 .byte   W12
 .byte   N11 ,Fs1 ,v127
 .byte   W12
 .byte   N11 ,Dn1 ,v127
 .byte   N11 ,En1 ,v127
 .byte   N11 ,As1 ,v127
 .byte   N11 ,Bn1 ,v127
 .byte   N11 ,Cn2 ,v127
 .byte   N11 ,Dn2 ,v127
 .byte   W12
 .byte   N11 ,Cn1 ,v127
 .byte   N11 ,Cn1 ,v127
 .byte   W12
 .byte   N11 ,Fs1 ,v127
 .byte   W12
 .byte   N11 ,Fs1 ,v127
 .byte   W12
@  #04 @271   ----------------------------------------
 .byte   N23 ,Cn1 ,v127
 .byte   N23 ,Cn1 ,v127
 .byte   N23 ,As1 ,v127
 .byte   N23 ,An2 ,v127
 .byte   W24
 .byte   N11 ,Cn1 ,v127
 .byte   N11 ,Cn1 ,v127
 .byte   N11 ,Fs1 ,v127
 .byte   W12
 .byte   N11 ,Fs1 ,v127
 .byte   W12
 .byte   N23 ,Dn1 ,v127
 .byte   N23 ,En1 ,v127
 .byte   N23 ,As1 ,v127
 .byte   N23 ,Bn1 ,v127
 .byte   N23 ,Cn2 ,v127
 .byte   N23 ,Dn2 ,v127
 .byte   W24
 .byte   N11 ,Fs1 ,v127
 .byte   W12
 .byte   N11 ,Fs1 ,v127
 .byte   W12
@  #04 @272   ----------------------------------------
 .byte   VOICE , 124
 .byte   VOL , 50*song04_mvl/mxv
 .byte   MODT 1
 .byte   N23 ,Cn1 ,v127
 .byte   N23 ,Cn1 ,v127
 .byte   N23 ,As1 ,v127
 .byte   W24
 .byte   N11 ,Cn1 ,v127
 .byte   N11 ,Cn1 ,v127
 .byte   N11 ,Fs1 ,v127
 .byte   W12
 .byte   N11 ,Fs1 ,v127
 .byte   W12
 .byte   N11 ,Dn1 ,v127
 .byte   N11 ,En1 ,v127
 .byte   N11 ,As1 ,v127
 .byte   N11 ,Bn1 ,v127
 .byte   N11 ,Cn2 ,v127
 .byte   N11 ,Dn2 ,v127
 .byte   W12
 .byte   N11 ,Cn1 ,v127
 .byte   N11 ,Cn1 ,v127
 .byte   N11 ,Dn1 ,v127
 .byte   N11 ,En1 ,v127
 .byte   W12
 .byte   N11 ,Dn1 ,v127
 .byte   N11 ,En1 ,v127
 .byte   N11 ,Fs1 ,v127
 .byte   W12
 .byte   N11 ,Dn1 ,v127
 .byte   N11 ,En1 ,v127
 .byte   N11 ,Fs1 ,v127
 .byte   W12
@  #04 @273   ----------------------------------------
 .byte   N23 ,Dn1 ,v127
 .byte   N23 ,En1 ,v127
 .byte   N23 ,An2 ,v127
 .byte   W24
 .byte   N23 ,Cn1 ,v127
 .byte   N23 ,Cn1 ,v127
 .byte   W24
 .byte   N23 ,Dn1 ,v127
 .byte   N23 ,En1 ,v127
 .byte   N23 ,An2 ,v127
 .byte   W24
 .byte   N23 ,Cn1 ,v127
 .byte   N23 ,Cn1 ,v127
 .byte   W24
@  #04 @274   ----------------------------------------
 .byte   VOICE , 124
 .byte   VOL , 50*song04_mvl/mxv
 .byte   MODT 1
 .byte   N23 ,Dn1 ,v127
 .byte   N23 ,En1 ,v127
 .byte   N23 ,An2 ,v127
 .byte   W24
 .byte   N23 ,Cn1 ,v127
 .byte   N23 ,Cn1 ,v127
 .byte   W24
 .byte   N23 ,Dn1 ,v127
 .byte   N23 ,En1 ,v127
 .byte   N23 ,An2 ,v127
 .byte   W24
 .byte   N23 ,Cn1 ,v127
 .byte   N23 ,Cn1 ,v127
 .byte   W24
@  #04 @275   ----------------------------------------
 .byte   N23 ,Dn1 ,v127
 .byte   N23 ,En1 ,v127
 .byte   N23 ,An2 ,v127
 .byte   W24
 .byte   N23 ,Cn1 ,v127
 .byte   N23 ,Cn1 ,v127
 .byte   W24
 .byte   N23 ,Dn1 ,v127
 .byte   N23 ,En1 ,v127
 .byte   N23 ,An2 ,v127
 .byte   W24
 .byte   N23 ,Cn1 ,v127
 .byte   N23 ,Cn1 ,v127
 .byte   W24
@  #04 @276   ----------------------------------------
 .byte   VOICE , 124
 .byte   VOL , 50*song04_mvl/mxv
 .byte   MODT 1
 .byte   N23 ,Dn1 ,v127
 .byte   N23 ,En1 ,v127
 .byte   N23 ,An2 ,v127
 .byte   W24
 .byte   N23 ,Cn1 ,v127
 .byte   N23 ,Cn1 ,v127
 .byte   W24
 .byte   N11 ,En1 ,v127
 .byte   N11 ,Dn2 ,v127
 .byte   W12
 .byte   N11 ,En1 ,v127
 .byte   N11 ,Cn2 ,v127
 .byte   W12
 .byte   N11 ,En1 ,v127
 .byte   N11 ,Bn1 ,v127
 .byte   W12
 .byte   N11 ,En1 ,v127
 .byte   N11 ,An1 ,v127
 .byte   W12
@  #04 @277   ----------------------------------------
 .byte   N11 ,Cn1 ,v127
 .byte   N11 ,Dn2 ,v127
 .byte   N11 ,An2 ,v127
 .byte   W12
 .byte   N11 ,Cn2 ,v127
 .byte   W12
 .byte   N11 ,Bn1 ,v127
 .byte   W12
 .byte   N11 ,An1 ,v127
 .byte   W12
 .byte   N11 ,Cn1 ,v127
 .byte   N11 ,Dn2 ,v127
 .byte   N11 ,An2 ,v127
 .byte   W12
 .byte   N11 ,Cn2 ,v127
 .byte   W12
 .byte   N11 ,Bn1 ,v127
 .byte   W12
 .byte   N11 ,An1 ,v127
 .byte   W12
@  #04 @278   ----------------------------------------
 .byte   VOICE , 124
 .byte   VOL , 50*song04_mvl/mxv
 .byte   MODT 1
 .byte   N11 ,Cn1 ,v127
 .byte   N11 ,Dn2 ,v127
 .byte   N11 ,An2 ,v127
 .byte   W12
 .byte   N11 ,Cn2 ,v127
 .byte   W12
 .byte   N11 ,Bn1 ,v127
 .byte   W12
 .byte   N11 ,An1 ,v127
 .byte   W12
 .byte   N23 ,Cn1 ,v127
 .byte   N23 ,En1 ,v127
 .byte   N23 ,An2 ,v127
 .byte   W24
 .byte   N23 ,Cn1 ,v127
 .byte   N23 ,En1 ,v127
 .byte   N23 ,An2 ,v127
 .byte   W24
@  #04 @279   ----------------------------------------
 .byte   N23 ,Cn1 ,v127
 .byte   N23 ,Cn1 ,v127
 .byte   N23 ,As1 ,v127
 .byte   N23 ,An2 ,v127
 .byte   W24
 .byte   N11 ,Fs1 ,v127
 .byte   W12
 .byte   N11 ,Fs1 ,v127
 .byte   W12
 .byte   N23 ,Dn1 ,v127
 .byte   N23 ,En1 ,v127
 .byte   N23 ,As1 ,v127
 .byte   W24
 .byte   N11 ,Cn1 ,v127
 .byte   N11 ,Cn1 ,v127
 .byte   N11 ,Fs1 ,v127
 .byte   W12
 .byte   N11 ,Fs1 ,v127
 .byte   W12
@  #04 @280   ----------------------------------------
 .byte   VOICE , 124
 .byte   VOL , 50*song04_mvl/mxv
 .byte   MODT 1
 .byte   N23 ,Cn1 ,v127
 .byte   N23 ,Cn1 ,v127
 .byte   N23 ,As1 ,v127
 .byte   W24
 .byte   N11 ,Fs1 ,v127
 .byte   W12
 .byte   N11 ,Fs1 ,v127
 .byte   W12
 .byte   N23 ,Dn1 ,v127
 .byte   N23 ,En1 ,v127
 .byte   N23 ,As1 ,v127
 .byte   W24
 .byte   N23 ,Cn1 ,v127
 .byte   N23 ,Cn1 ,v127
 .byte   N11 ,Fs1 ,v127
 .byte   W12
 .byte   N11 ,Fs1 ,v127
 .byte   W12
@  #04 @281   ----------------------------------------
 .byte   N23 ,Cn1 ,v127
 .byte   N23 ,Cn1 ,v127
 .byte   N23 ,As1 ,v127
 .byte   W24
 .byte   N11 ,Fs1 ,v127
 .byte   W12
 .byte   N11 ,Fs1 ,v127
 .byte   W12
 .byte   N23 ,Dn1 ,v127
 .byte   N23 ,En1 ,v127
 .byte   N23 ,As1 ,v127
 .byte   W24
 .byte   N11 ,Cn1 ,v127
 .byte   N11 ,Cn1 ,v127
 .byte   N11 ,Fs1 ,v127
 .byte   W12
 .byte   N11 ,Fs1 ,v127
 .byte   W12
@  #04 @282   ----------------------------------------
 .byte   VOICE , 124
 .byte   VOL , 50*song04_mvl/mxv
 .byte   MODT 1
 .byte   N23 ,Cn1 ,v127
 .byte   N23 ,Cn1 ,v127
 .byte   N23 ,As1 ,v127
 .byte   W24
 .byte   N11 ,Fs1 ,v127
 .byte   W12
 .byte   N11 ,Fs1 ,v127
 .byte   W12
 .byte   N23 ,Dn1 ,v127
 .byte   N23 ,En1 ,v127
 .byte   N23 ,As1 ,v127
 .byte   W24
 .byte   N23 ,Cn1 ,v127
 .byte   N23 ,Cn1 ,v127
 .byte   N11 ,Fs1 ,v127
 .byte   W12
 .byte   N11 ,Fs1 ,v127
 .byte   W12
@  #04 @283   ----------------------------------------
 .byte   N23 ,Cn1 ,v127
 .byte   N23 ,Cn1 ,v127
 .byte   N23 ,As1 ,v127
 .byte   W24
 .byte   N11 ,Fs1 ,v127
 .byte   W12
 .byte   N11 ,Fs1 ,v127
 .byte   W12
 .byte   N23 ,Dn1 ,v127
 .byte   N23 ,En1 ,v127
 .byte   N23 ,As1 ,v127
 .byte   W24
 .byte   N11 ,Cn1 ,v127
 .byte   N11 ,Cn1 ,v127
 .byte   N11 ,Fs1 ,v127
 .byte   W12
 .byte   N11 ,Fs1 ,v127
 .byte   W12
@  #04 @284   ----------------------------------------
 .byte   VOICE , 124
 .byte   VOL , 50*song04_mvl/mxv
 .byte   MODT 1
 .byte   N23 ,Cn1 ,v127
 .byte   N23 ,Cn1 ,v127
 .byte   N23 ,As1 ,v127
 .byte   W24
 .byte   N11 ,Fs1 ,v127
 .byte   W12
 .byte   N11 ,Fs1 ,v127
 .byte   W12
 .byte   N23 ,Dn1 ,v127
 .byte   N23 ,En1 ,v127
 .byte   N23 ,As1 ,v127
 .byte   W24
 .byte   N23 ,Cn1 ,v127
 .byte   N23 ,Cn1 ,v127
 .byte   N11 ,Fs1 ,v127
 .byte   W12
 .byte   N11 ,Fs1 ,v127
 .byte   W12
@  #04 @285   ----------------------------------------
 .byte   N23 ,Cn1 ,v127
 .byte   N23 ,Cn1 ,v127
 .byte   N23 ,As1 ,v127
 .byte   W24
 .byte   N11 ,Fs1 ,v127
 .byte   W12
 .byte   N11 ,Fs1 ,v127
 .byte   W12
 .byte   N23 ,Dn1 ,v127
 .byte   N23 ,En1 ,v127
 .byte   N23 ,As1 ,v127
 .byte   W24
 .byte   N11 ,Cn1 ,v127
 .byte   N11 ,Cn1 ,v127
 .byte   N11 ,Fs1 ,v127
 .byte   W12
 .byte   N11 ,Fs1 ,v127
 .byte   W12
@  #04 @286   ----------------------------------------
 .byte   VOICE , 124
 .byte   VOL , 50*song04_mvl/mxv
 .byte   MODT 1
 .byte   N23 ,Cn1 ,v127
 .byte   N23 ,Cn1 ,v127
 .byte   N23 ,As1 ,v127
 .byte   W24
 .byte   N11 ,Fs1 ,v127
 .byte   W12
 .byte   N11 ,Fs1 ,v127
 .byte   W12
 .byte   N23 ,Dn1 ,v127
 .byte   N23 ,En1 ,v127
 .byte   N23 ,As1 ,v127
 .byte   W24
 .byte   N23 ,Cn1 ,v127
 .byte   N23 ,Cn1 ,v127
 .byte   N11 ,Fs1 ,v127
 .byte   W12
 .byte   N11 ,Fs1 ,v127
 .byte   W12
@  #04 @287   ----------------------------------------
 .byte   N23 ,Cn1 ,v127
 .byte   N23 ,Cn1 ,v127
 .byte   N23 ,As1 ,v127
 .byte   W24
 .byte   N11 ,Fs1 ,v127
 .byte   W12
 .byte   N11 ,Fs1 ,v127
 .byte   W12
 .byte   N23 ,Dn1 ,v127
 .byte   N23 ,En1 ,v127
 .byte   N23 ,As1 ,v127
 .byte   W24
 .byte   N11 ,Cn1 ,v127
 .byte   N11 ,Cn1 ,v127
 .byte   N11 ,Fs1 ,v127
 .byte   W12
 .byte   N11 ,Fs1 ,v127
 .byte   W12
@  #04 @288   ----------------------------------------
 .byte   VOICE , 124
 .byte   VOL , 50*song04_mvl/mxv
 .byte   MODT 1
 .byte   N23 ,Cn1 ,v127
 .byte   N23 ,Cn1 ,v127
 .byte   N23 ,As1 ,v127
 .byte   W24
 .byte   N11 ,Fs1 ,v127
 .byte   W12
 .byte   N11 ,Fs1 ,v127
 .byte   W12
 .byte   N23 ,Dn1 ,v127
 .byte   N23 ,En1 ,v127
 .byte   N23 ,As1 ,v127
 .byte   W24
 .byte   N23 ,Cn1 ,v127
 .byte   N23 ,Cn1 ,v127
 .byte   N11 ,Fs1 ,v127
 .byte   W12
 .byte   N11 ,Fs1 ,v127
 .byte   W12
@  #04 @289   ----------------------------------------
 .byte   N23 ,Cn1 ,v127
 .byte   N23 ,Cn1 ,v127
 .byte   N23 ,As1 ,v127
 .byte   W24
 .byte   N11 ,Fs1 ,v127
 .byte   W12
 .byte   N11 ,Fs1 ,v127
 .byte   W12
 .byte   N23 ,Dn1 ,v127
 .byte   N23 ,En1 ,v127
 .byte   N23 ,As1 ,v127
 .byte   W24
 .byte   N11 ,Cn1 ,v127
 .byte   N11 ,Cn1 ,v127
 .byte   N11 ,Fs1 ,v127
 .byte   W12
 .byte   N11 ,Fs1 ,v127
 .byte   W12
@  #04 @290   ----------------------------------------
 .byte   VOICE , 124
 .byte   VOL , 50*song04_mvl/mxv
 .byte   MODT 1
 .byte   N23 ,Cn1 ,v127
 .byte   N23 ,Cn1 ,v127
 .byte   N23 ,As1 ,v127
 .byte   W24
 .byte   N11 ,Fs1 ,v127
 .byte   W12
 .byte   N11 ,Fs1 ,v127
 .byte   W12
 .byte   N23 ,Dn1 ,v127
 .byte   N23 ,En1 ,v127
 .byte   N23 ,As1 ,v127
 .byte   W24
 .byte   N23 ,Cn1 ,v127
 .byte   N23 ,Cn1 ,v127
 .byte   N11 ,Fs1 ,v127
 .byte   W12
 .byte   N11 ,Fs1 ,v127
 .byte   W12
@  #04 @291   ----------------------------------------
 .byte   N23 ,Cn1 ,v127
 .byte   N23 ,Cn1 ,v127
 .byte   N23 ,As1 ,v127
 .byte   W24
 .byte   N11 ,Fs1 ,v127
 .byte   W12
 .byte   N11 ,Fs1 ,v127
 .byte   W12
 .byte   N23 ,Dn1 ,v127
 .byte   N23 ,En1 ,v127
 .byte   N23 ,As1 ,v127
 .byte   W24
 .byte   N11 ,Cn1 ,v127
 .byte   N11 ,Cn1 ,v127
 .byte   N11 ,Fs1 ,v127
 .byte   W12
 .byte   N11 ,Fs1 ,v127
 .byte   W12
@  #04 @292   ----------------------------------------
 .byte   VOICE , 124
 .byte   VOL , 50*song04_mvl/mxv
 .byte   MODT 1
 .byte   N23 ,Cn1 ,v127
 .byte   N23 ,Cn1 ,v127
 .byte   N23 ,As1 ,v127
 .byte   W24
 .byte   N11 ,Fs1 ,v127
 .byte   W12
 .byte   N11 ,Fs1 ,v127
 .byte   W12
 .byte   N23 ,Dn1 ,v127
 .byte   N23 ,En1 ,v127
 .byte   N23 ,As1 ,v127
 .byte   W24
 .byte   N23 ,Cn1 ,v127
 .byte   N23 ,Cn1 ,v127
 .byte   N11 ,Fs1 ,v127
 .byte   W12
 .byte   N11 ,Fs1 ,v127
 .byte   W12
@  #04 @293   ----------------------------------------
 .byte   N23 ,Cn1 ,v127
 .byte   N23 ,Cn1 ,v127
 .byte   N23 ,As1 ,v127
 .byte   W24
 .byte   N11 ,Fs1 ,v127
 .byte   W12
 .byte   N11 ,Fs1 ,v127
 .byte   W12
 .byte   N23 ,Dn1 ,v127
 .byte   N23 ,En1 ,v127
 .byte   N23 ,As1 ,v127
 .byte   W24
 .byte   N11 ,Cn1 ,v127
 .byte   N11 ,Cn1 ,v127
 .byte   N11 ,Fs1 ,v127
 .byte   W12
 .byte   N11 ,Fs1 ,v127
 .byte   W12
@  #04 @294   ----------------------------------------
 .byte   VOICE , 124
 .byte   VOL , 50*song04_mvl/mxv
 .byte   MODT 1
 .byte   N23 ,Cn1 ,v127
 .byte   N23 ,Cn1 ,v127
 .byte   N23 ,As1 ,v127
 .byte   W24
 .byte   N11 ,Fs1 ,v127
 .byte   W12
 .byte   N11 ,Fs1 ,v127
 .byte   W12
 .byte   N11 ,Dn1 ,v127
 .byte   N11 ,En1 ,v127
 .byte   N11 ,As1 ,v127
 .byte   W12
 .byte   N11 ,Dn1 ,v127
 .byte   N11 ,En1 ,v127
 .byte   W12
 .byte   N23 ,Cn1 ,v127
 .byte   N23 ,Cn1 ,v127
 .byte   N11 ,Dn1 ,v127
 .byte   N11 ,En1 ,v127
 .byte   N11 ,Fs1 ,v127
 .byte   W12
 .byte   N11 ,Dn1 ,v127
 .byte   N11 ,En1 ,v127
 .byte   N11 ,Fs1 ,v127
 .byte   W12
@  #04 @295   ----------------------------------------
 .byte   N23 ,Cn1 ,v127
 .byte   N23 ,Cn1 ,v127
 .byte   N23 ,As1 ,v127
 .byte   N23 ,An2 ,v127
 .byte   W24
 .byte   N11 ,Fs1 ,v127
 .byte   W12
 .byte   N11 ,Fs1 ,v127
 .byte   W12
 .byte   N23 ,Dn1 ,v127
 .byte   N23 ,En1 ,v127
 .byte   N23 ,As1 ,v127
 .byte   W24
 .byte   N11 ,Cn1 ,v127
 .byte   N11 ,Cn1 ,v127
 .byte   N11 ,Fs1 ,v127
 .byte   W12
 .byte   N11 ,Fs1 ,v127
 .byte   W12
@  #04 @296   ----------------------------------------
 .byte   VOICE , 124
 .byte   VOL , 50*song04_mvl/mxv
 .byte   MODT 1
 .byte   N23 ,Cn1 ,v127
 .byte   N23 ,Cn1 ,v127
 .byte   N23 ,As1 ,v127
 .byte   W24
 .byte   N11 ,Fs1 ,v127
 .byte   W12
 .byte   N11 ,Fs1 ,v127
 .byte   W12
 .byte   N23 ,Dn1 ,v127
 .byte   N23 ,En1 ,v127
 .byte   N23 ,As1 ,v127
 .byte   W24
 .byte   N23 ,Cn1 ,v127
 .byte   N23 ,Cn1 ,v127
 .byte   N11 ,Fs1 ,v127
 .byte   W12
 .byte   N11 ,Fs1 ,v127
 .byte   W12
@  #04 @297   ----------------------------------------
 .byte   N23 ,Cn1 ,v127
 .byte   N23 ,Cn1 ,v127
 .byte   N23 ,As1 ,v127
 .byte   W24
 .byte   N11 ,Fs1 ,v127
 .byte   W12
 .byte   N11 ,Fs1 ,v127
 .byte   W12
 .byte   N23 ,Dn1 ,v127
 .byte   N23 ,En1 ,v127
 .byte   N23 ,As1 ,v127
 .byte   W24
 .byte   N11 ,Cn1 ,v127
 .byte   N11 ,Cn1 ,v127
 .byte   N11 ,Fs1 ,v127
 .byte   W12
 .byte   N11 ,Fs1 ,v127
 .byte   W12
@  #04 @298   ----------------------------------------
 .byte   VOICE , 124
 .byte   VOL , 50*song04_mvl/mxv
 .byte   MODT 1
 .byte   N23 ,Cn1 ,v127
 .byte   N23 ,Cn1 ,v127
 .byte   N23 ,As1 ,v127
 .byte   W24
 .byte   N11 ,Fs1 ,v127
 .byte   W12
 .byte   N11 ,Fs1 ,v127
 .byte   W12
 .byte   N23 ,Dn1 ,v127
 .byte   N23 ,En1 ,v127
 .byte   N23 ,As1 ,v127
 .byte   W24
 .byte   N23 ,Cn1 ,v127
 .byte   N23 ,Cn1 ,v127
 .byte   N11 ,Fs1 ,v127
 .byte   W12
 .byte   N11 ,Fs1 ,v127
 .byte   W12
@  #04 @299   ----------------------------------------
 .byte   N23 ,Cn1 ,v127
 .byte   N23 ,Cn1 ,v127
 .byte   N23 ,As1 ,v127
 .byte   W24
 .byte   N11 ,Fs1 ,v127
 .byte   W12
 .byte   N11 ,Fs1 ,v127
 .byte   W12
 .byte   N23 ,Dn1 ,v127
 .byte   N23 ,En1 ,v127
 .byte   N23 ,As1 ,v127
 .byte   W24
 .byte   N11 ,Cn1 ,v127
 .byte   N11 ,Cn1 ,v127
 .byte   N11 ,Fs1 ,v127
 .byte   W12
 .byte   N11 ,Fs1 ,v127
 .byte   W12
@  #04 @300   ----------------------------------------
 .byte   VOICE , 124
 .byte   VOL , 50*song04_mvl/mxv
 .byte   MODT 1
 .byte   N23 ,Cn1 ,v127
 .byte   N23 ,Cn1 ,v127
 .byte   N23 ,As1 ,v127
 .byte   W24
 .byte   N11 ,Fs1 ,v127
 .byte   W12
 .byte   N11 ,Fs1 ,v127
 .byte   W12
 .byte   N23 ,Dn1 ,v127
 .byte   N23 ,En1 ,v127
 .byte   N23 ,As1 ,v127
 .byte   W24
 .byte   N23 ,Cn1 ,v127
 .byte   N23 ,Cn1 ,v127
 .byte   N11 ,Fs1 ,v127
 .byte   W12
 .byte   N11 ,Fs1 ,v127
 .byte   W12
@  #04 @301   ----------------------------------------
 .byte   N23 ,Cn1 ,v127
 .byte   N23 ,Cn1 ,v127
 .byte   N23 ,As1 ,v127
 .byte   W24
 .byte   N11 ,Fs1 ,v127
 .byte   W12
 .byte   N11 ,Fs1 ,v127
 .byte   W12
 .byte   N23 ,Dn1 ,v127
 .byte   N23 ,En1 ,v127
 .byte   N23 ,As1 ,v127
 .byte   W24
 .byte   N11 ,Cn1 ,v127
 .byte   N11 ,Cn1 ,v127
 .byte   N11 ,Fs1 ,v127
 .byte   W12
 .byte   N11 ,Fs1 ,v127
 .byte   W12
@  #04 @302   ----------------------------------------
 .byte   VOICE , 124
 .byte   VOL , 50*song04_mvl/mxv
 .byte   MODT 1
 .byte   N23 ,Cn1 ,v127
 .byte   N23 ,Cn1 ,v127
 .byte   N23 ,As1 ,v127
 .byte   W24
 .byte   N11 ,Fs1 ,v127
 .byte   W12
 .byte   N11 ,Fs1 ,v127
 .byte   W12
 .byte   N23 ,Dn1 ,v127
 .byte   N23 ,En1 ,v127
 .byte   N23 ,As1 ,v127
 .byte   W24
 .byte   N23 ,Cn1 ,v127
 .byte   N23 ,Cn1 ,v127
 .byte   N11 ,Fs1 ,v127
 .byte   W12
 .byte   N11 ,Fs1 ,v127
 .byte   W12
@  #04 @303   ----------------------------------------
 .byte   N23 ,Cn1 ,v127
 .byte   N23 ,Cn1 ,v127
 .byte   N23 ,As1 ,v127
 .byte   W24
 .byte   N11 ,Fs1 ,v127
 .byte   W12
 .byte   N11 ,Fs1 ,v127
 .byte   W12
 .byte   N23 ,Dn1 ,v127
 .byte   N23 ,En1 ,v127
 .byte   N23 ,As1 ,v127
 .byte   W24
 .byte   N11 ,Cn1 ,v127
 .byte   N11 ,Cn1 ,v127
 .byte   N11 ,Fs1 ,v127
 .byte   W12
 .byte   N11 ,Fs1 ,v127
 .byte   W12
@  #04 @304   ----------------------------------------
 .byte   VOICE , 124
 .byte   VOL , 50*song04_mvl/mxv
 .byte   MODT 1
 .byte   N23 ,Cn1 ,v127
 .byte   N23 ,Cn1 ,v127
 .byte   N23 ,As1 ,v127
 .byte   W24
 .byte   N11 ,Fs1 ,v127
 .byte   W12
 .byte   N11 ,Fs1 ,v127
 .byte   W12
 .byte   N23 ,Dn1 ,v127
 .byte   N23 ,En1 ,v127
 .byte   N23 ,As1 ,v127
 .byte   W24
 .byte   N23 ,Cn1 ,v127
 .byte   N23 ,Cn1 ,v127
 .byte   N11 ,Fs1 ,v127
 .byte   W12
 .byte   N11 ,Fs1 ,v127
 .byte   W12
@  #04 @305   ----------------------------------------
 .byte   N23 ,Cn1 ,v127
 .byte   N23 ,Cn1 ,v127
 .byte   N23 ,As1 ,v127
 .byte   W24
 .byte   N11 ,Fs1 ,v127
 .byte   W12
 .byte   N11 ,Fs1 ,v127
 .byte   W12
 .byte   N23 ,Dn1 ,v127
 .byte   N23 ,En1 ,v127
 .byte   N23 ,As1 ,v127
 .byte   W24
 .byte   N11 ,Cn1 ,v127
 .byte   N11 ,Cn1 ,v127
 .byte   N11 ,Fs1 ,v127
 .byte   W12
 .byte   N11 ,Fs1 ,v127
 .byte   W12
@  #04 @306   ----------------------------------------
 .byte   VOICE , 124
 .byte   VOL , 50*song04_mvl/mxv
 .byte   MODT 1
 .byte   N23 ,Cn1 ,v127
 .byte   N23 ,Cn1 ,v127
 .byte   N23 ,As1 ,v127
 .byte   W24
 .byte   N11 ,Fs1 ,v127
 .byte   W12
 .byte   N11 ,Fs1 ,v127
 .byte   W12
 .byte   N23 ,Dn1 ,v127
 .byte   N23 ,En1 ,v127
 .byte   N23 ,As1 ,v127
 .byte   W24
 .byte   N23 ,Cn1 ,v127
 .byte   N23 ,Cn1 ,v127
 .byte   N11 ,Fs1 ,v127
 .byte   W12
 .byte   N11 ,Fs1 ,v127
 .byte   W12
@  #04 @307   ----------------------------------------
 .byte   N23 ,Cn1 ,v127
 .byte   N23 ,Cn1 ,v127
 .byte   N23 ,As1 ,v127
 .byte   W24
 .byte   N11 ,Fs1 ,v127
 .byte   W12
 .byte   N11 ,Fs1 ,v127
 .byte   W12
 .byte   N23 ,Dn1 ,v127
 .byte   N23 ,En1 ,v127
 .byte   N23 ,As1 ,v127
 .byte   W24
 .byte   N11 ,Cn1 ,v127
 .byte   N11 ,Cn1 ,v127
 .byte   N11 ,Fs1 ,v127
 .byte   W12
 .byte   N11 ,Fs1 ,v127
 .byte   W12
@  #04 @308   ----------------------------------------
 .byte   VOICE , 124
 .byte   VOL , 50*song04_mvl/mxv
 .byte   MODT 1
 .byte   N23 ,Cn1 ,v127
 .byte   N23 ,Cn1 ,v127
 .byte   N23 ,As1 ,v127
 .byte   W24
 .byte   N11 ,Fs1 ,v127
 .byte   W12
 .byte   N11 ,Fs1 ,v127
 .byte   W12
 .byte   N23 ,Dn1 ,v127
 .byte   N23 ,En1 ,v127
 .byte   N23 ,As1 ,v127
 .byte   W24
 .byte   N23 ,Cn1 ,v127
 .byte   N23 ,Cn1 ,v127
 .byte   N11 ,Fs1 ,v127
 .byte   W12
 .byte   N11 ,Fs1 ,v127
 .byte   W12
@  #04 @309   ----------------------------------------
 .byte   N23 ,Cn1 ,v127
 .byte   N23 ,Cn1 ,v127
 .byte   N23 ,As1 ,v127
 .byte   W24
 .byte   N11 ,Fs1 ,v127
 .byte   W12
 .byte   N11 ,Fs1 ,v127
 .byte   W12
 .byte   N23 ,Dn1 ,v127
 .byte   N23 ,En1 ,v127
 .byte   N23 ,As1 ,v127
 .byte   W24
 .byte   N11 ,Cn1 ,v127
 .byte   N11 ,Cn1 ,v127
 .byte   N11 ,Fs1 ,v127
 .byte   W12
 .byte   N11 ,Fs1 ,v127
 .byte   W12
@  #04 @310   ----------------------------------------
 .byte   VOICE , 124
 .byte   VOL , 50*song04_mvl/mxv
 .byte   MODT 1
 .byte   N23 ,Cn1 ,v127
 .byte   N23 ,Cn1 ,v127
 .byte   N23 ,As1 ,v127
 .byte   W24
 .byte   N11 ,Fs1 ,v127
 .byte   W12
 .byte   N11 ,Fs1 ,v127
 .byte   W12
 .byte   N11 ,Dn1 ,v127
 .byte   N11 ,En1 ,v127
 .byte   N11 ,As1 ,v127
 .byte   W12
 .byte   N11 ,Dn1 ,v127
 .byte   N11 ,En1 ,v127
 .byte   W12
 .byte   N23 ,Cn1 ,v127
 .byte   N23 ,Cn1 ,v127
 .byte   N11 ,Dn1 ,v127
 .byte   N11 ,En1 ,v127
 .byte   N11 ,Fs1 ,v127
 .byte   W12
 .byte   N11 ,Dn1 ,v127
 .byte   N11 ,En1 ,v127
 .byte   N11 ,Fs1 ,v127
 .byte   W12
@  #04 @311   ----------------------------------------
 .byte   N11 ,Cn1 ,v127
 .byte   N11 ,Cn1 ,v127
 .byte   N11 ,Fs1 ,v127
 .byte   N11 ,An2 ,v127
 .byte   W12
 .byte   N11 ,Gs1 ,v127
 .byte   W12
 .byte   N11 ,As1 ,v127
 .byte   W12
 .byte   N11 ,Gs1 ,v127
 .byte   W12
 .byte   N11 ,Dn1 ,v127
 .byte   N11 ,En1 ,v127
 .byte   N11 ,Fs1 ,v127
 .byte   W12
 .byte   N11 ,Gs1 ,v127
 .byte   W12
 .byte   N11 ,Cn1 ,v127
 .byte   N11 ,Cn1 ,v127
 .byte   N11 ,As1 ,v127
 .byte   W12
 .byte   N11 ,Gs1 ,v127
 .byte   W12
@  #04 @312   ----------------------------------------
 .byte   VOICE , 124
 .byte   VOL , 50*song04_mvl/mxv
 .byte   MODT 1
 .byte   N11 ,Cn1 ,v127
 .byte   N11 ,Cn1 ,v127
 .byte   N11 ,Fs1 ,v127
 .byte   W12
 .byte   N11 ,Dn1 ,v127
 .byte   N11 ,En1 ,v127
 .byte   N11 ,Gs1 ,v127
 .byte   W12
 .byte   N11 ,As1 ,v127
 .byte   W12
 .byte   N11 ,Gs1 ,v127
 .byte   W12
 .byte   N11 ,Dn1 ,v127
 .byte   N11 ,En1 ,v127
 .byte   N11 ,Fs1 ,v127
 .byte   W12
 .byte   N11 ,Gs1 ,v127
 .byte   W12
 .byte   N11 ,Cn1 ,v127
 .byte   N11 ,Cn1 ,v127
 .byte   N11 ,As1 ,v127
 .byte   W12
 .byte   N11 ,Gs1 ,v127
 .byte   W12
@  #04 @313   ----------------------------------------
 .byte   N11 ,Cn1 ,v127
 .byte   N11 ,Cn1 ,v127
 .byte   N11 ,Fs1 ,v127
 .byte   W12
 .byte   N11 ,Gs1 ,v127
 .byte   W12
 .byte   N11 ,As1 ,v127
 .byte   W12
 .byte   N11 ,Gs1 ,v127
 .byte   W12
 .byte   N11 ,Dn1 ,v127
 .byte   N11 ,En1 ,v127
 .byte   N11 ,Fs1 ,v127
 .byte   W12
 .byte   N11 ,Gs1 ,v127
 .byte   W12
 .byte   N11 ,Cn1 ,v127
 .byte   N11 ,Cn1 ,v127
 .byte   N11 ,As1 ,v127
 .byte   W12
 .byte   N11 ,Gs1 ,v127
 .byte   W12
@  #04 @314   ----------------------------------------
 .byte   VOICE , 124
 .byte   VOL , 50*song04_mvl/mxv
 .byte   MODT 1
 .byte   N11 ,Cn1 ,v127
 .byte   N11 ,Cn1 ,v127
 .byte   N11 ,Fs1 ,v127
 .byte   W12
 .byte   N11 ,Dn1 ,v127
 .byte   N11 ,En1 ,v127
 .byte   N11 ,Gs1 ,v127
 .byte   W12
 .byte   N11 ,As1 ,v127
 .byte   W12
 .byte   N11 ,Gs1 ,v127
 .byte   W12
 .byte   N11 ,Dn1 ,v127
 .byte   N11 ,En1 ,v127
 .byte   N11 ,Fs1 ,v127
 .byte   W12
 .byte   N11 ,Gs1 ,v127
 .byte   W12
 .byte   N11 ,Cn1 ,v127
 .byte   N11 ,Cn1 ,v127
 .byte   N11 ,As1 ,v127
 .byte   W12
 .byte   N11 ,Gs1 ,v127
 .byte   W12
@  #04 @315   ----------------------------------------
 .byte   N11 ,Cn1 ,v127
 .byte   N11 ,Cn1 ,v127
 .byte   N11 ,Fs1 ,v127
 .byte   W12
 .byte   N11 ,Gs1 ,v127
 .byte   W12
 .byte   N11 ,As1 ,v127
 .byte   W12
 .byte   N11 ,Gs1 ,v127
 .byte   W12
 .byte   N11 ,Dn1 ,v127
 .byte   N11 ,En1 ,v127
 .byte   N11 ,Fs1 ,v127
 .byte   W12
 .byte   N11 ,Gs1 ,v127
 .byte   W12
 .byte   N11 ,Cn1 ,v127
 .byte   N11 ,Cn1 ,v127
 .byte   N11 ,As1 ,v127
 .byte   W12
 .byte   N11 ,Gs1 ,v127
 .byte   W12
@  #04 @316   ----------------------------------------
 .byte   VOICE , 124
 .byte   VOL , 50*song04_mvl/mxv
 .byte   MODT 1
 .byte   N11 ,Cn1 ,v127
 .byte   N11 ,Cn1 ,v127
 .byte   N11 ,Fs1 ,v127
 .byte   W12
 .byte   N11 ,Dn1 ,v127
 .byte   N11 ,En1 ,v127
 .byte   N11 ,Gs1 ,v127
 .byte   W12
 .byte   N11 ,As1 ,v127
 .byte   W12
 .byte   N11 ,Gs1 ,v127
 .byte   W12
 .byte   N11 ,Dn1 ,v127
 .byte   N11 ,En1 ,v127
 .byte   N11 ,Fs1 ,v127
 .byte   W12
 .byte   N11 ,Gs1 ,v127
 .byte   W12
 .byte   N11 ,Cn1 ,v127
 .byte   N11 ,Cn1 ,v127
 .byte   N11 ,As1 ,v127
 .byte   W12
 .byte   N11 ,Gs1 ,v127
 .byte   W12
@  #04 @317   ----------------------------------------
 .byte   N11 ,Cn1 ,v127
 .byte   N11 ,Cn1 ,v127
 .byte   N11 ,Fs1 ,v127
 .byte   W12
 .byte   N11 ,Gs1 ,v127
 .byte   W12
 .byte   N11 ,As1 ,v127
 .byte   W12
 .byte   N11 ,Gs1 ,v127
 .byte   W12
 .byte   N11 ,Dn1 ,v127
 .byte   N11 ,En1 ,v127
 .byte   N11 ,Fs1 ,v127
 .byte   W12
 .byte   N11 ,Gs1 ,v127
 .byte   W12
 .byte   N11 ,Cn1 ,v127
 .byte   N11 ,Cn1 ,v127
 .byte   N11 ,As1 ,v127
 .byte   W12
 .byte   N11 ,Gs1 ,v127
 .byte   W12
@  #04 @318   ----------------------------------------
 .byte   VOICE , 124
 .byte   VOL , 50*song04_mvl/mxv
 .byte   MODT 1
 .byte   N11 ,Cn1 ,v127
 .byte   N11 ,Cn1 ,v127
 .byte   N11 ,Fs1 ,v127
 .byte   W12
 .byte   N11 ,Dn1 ,v127
 .byte   N11 ,En1 ,v127
 .byte   N11 ,Gs1 ,v127
 .byte   W12
 .byte   N11 ,As1 ,v127
 .byte   W12
 .byte   N11 ,Gs1 ,v127
 .byte   W12
 .byte   N11 ,Dn1 ,v127
 .byte   N11 ,En1 ,v127
 .byte   N11 ,Fs1 ,v127
 .byte   W12
 .byte   N11 ,Dn1 ,v127
 .byte   N11 ,En1 ,v127
 .byte   N11 ,Gs1 ,v127
 .byte   W12
 .byte   N11 ,Cn1 ,v127
 .byte   N11 ,Cn1 ,v127
 .byte   N11 ,Dn1 ,v127
 .byte   N11 ,En1 ,v127
 .byte   N11 ,As1 ,v127
 .byte   W12
 .byte   N11 ,Dn1 ,v127
 .byte   N11 ,En1 ,v127
 .byte   N11 ,Gs1 ,v127
 .byte   W12
@  #04 @319   ----------------------------------------
 .byte   N11 ,Cn1 ,v127
 .byte   N11 ,Cn1 ,v127
 .byte   N11 ,Fs1 ,v127
 .byte   N11 ,An2 ,v127
 .byte   W12
 .byte   N11 ,Gs1 ,v127
 .byte   W12
 .byte   N11 ,As1 ,v127
 .byte   W12
 .byte   N11 ,Gs1 ,v127
 .byte   W12
 .byte   N11 ,Dn1 ,v127
 .byte   N11 ,En1 ,v127
 .byte   N11 ,Fs1 ,v127
 .byte   W12
 .byte   N11 ,Gs1 ,v127
 .byte   W12
 .byte   N11 ,Cn1 ,v127
 .byte   N11 ,Cn1 ,v127
 .byte   N11 ,As1 ,v127
 .byte   W12
 .byte   N11 ,Gs1 ,v127
 .byte   W12
@  #04 @320   ----------------------------------------
 .byte   VOICE , 124
 .byte   VOL , 50*song04_mvl/mxv
 .byte   MODT 1
 .byte   N11 ,Cn1 ,v127
 .byte   N11 ,Cn1 ,v127
 .byte   N11 ,Fs1 ,v127
 .byte   W12
 .byte   N11 ,Dn1 ,v127
 .byte   N11 ,En1 ,v127
 .byte   N11 ,Gs1 ,v127
 .byte   W12
 .byte   N11 ,As1 ,v127
 .byte   W12
 .byte   N11 ,Gs1 ,v127
 .byte   W12
 .byte   N11 ,Dn1 ,v127
 .byte   N11 ,En1 ,v127
 .byte   N11 ,Fs1 ,v127
 .byte   W12
 .byte   N11 ,Gs1 ,v127
 .byte   W12
 .byte   N11 ,Cn1 ,v127
 .byte   N11 ,Cn1 ,v127
 .byte   N11 ,As1 ,v127
 .byte   W12
 .byte   N11 ,Gs1 ,v127
 .byte   W12
@  #04 @321   ----------------------------------------
 .byte   N11 ,Cn1 ,v127
 .byte   N11 ,Cn1 ,v127
 .byte   N11 ,Fs1 ,v127
 .byte   W12
 .byte   N11 ,Gs1 ,v127
 .byte   W12
 .byte   N11 ,As1 ,v127
 .byte   W12
 .byte   N11 ,Gs1 ,v127
 .byte   W12
 .byte   N11 ,Dn1 ,v127
 .byte   N11 ,En1 ,v127
 .byte   N11 ,Fs1 ,v127
 .byte   W12
 .byte   N11 ,Gs1 ,v127
 .byte   W12
 .byte   N11 ,Cn1 ,v127
 .byte   N11 ,Cn1 ,v127
 .byte   N11 ,As1 ,v127
 .byte   W12
 .byte   N11 ,Gs1 ,v127
 .byte   W12
@  #04 @322   ----------------------------------------
 .byte   VOICE , 124
 .byte   VOL , 50*song04_mvl/mxv
 .byte   MODT 1
 .byte   N11 ,Cn1 ,v127
 .byte   N11 ,Cn1 ,v127
 .byte   N11 ,Fs1 ,v127
 .byte   W12
 .byte   N11 ,Dn1 ,v127
 .byte   N11 ,En1 ,v127
 .byte   N11 ,Gs1 ,v127
 .byte   W12
 .byte   N11 ,As1 ,v127
 .byte   W12
 .byte   N11 ,Gs1 ,v127
 .byte   W12
 .byte   N11 ,Dn1 ,v127
 .byte   N11 ,En1 ,v127
 .byte   N11 ,Fs1 ,v127
 .byte   W12
 .byte   N11 ,Gs1 ,v127
 .byte   W12
 .byte   N11 ,Cn1 ,v127
 .byte   N11 ,Cn1 ,v127
 .byte   N11 ,As1 ,v127
 .byte   W12
 .byte   N11 ,Gs1 ,v127
 .byte   W12
@  #04 @323   ----------------------------------------
 .byte   N11 ,Cn1 ,v127
 .byte   N11 ,Cn1 ,v127
 .byte   N11 ,Fs1 ,v127
 .byte   W12
 .byte   N11 ,Gs1 ,v127
 .byte   W12
 .byte   N11 ,As1 ,v127
 .byte   W12
 .byte   N11 ,Gs1 ,v127
 .byte   W12
 .byte   N11 ,Dn1 ,v127
 .byte   N11 ,En1 ,v127
 .byte   N11 ,Fs1 ,v127
 .byte   W12
 .byte   N11 ,Gs1 ,v127
 .byte   W12
 .byte   N11 ,Cn1 ,v127
 .byte   N11 ,Cn1 ,v127
 .byte   N11 ,As1 ,v127
 .byte   W12
 .byte   N11 ,Gs1 ,v127
 .byte   W12
@  #04 @324   ----------------------------------------
 .byte   VOICE , 124
 .byte   VOL , 50*song04_mvl/mxv
 .byte   MODT 1
 .byte   N11 ,Cn1 ,v127
 .byte   N11 ,Cn1 ,v127
 .byte   N11 ,Fs1 ,v127
 .byte   W12
 .byte   N11 ,Dn1 ,v127
 .byte   N11 ,En1 ,v127
 .byte   N11 ,Gs1 ,v127
 .byte   W12
 .byte   N11 ,As1 ,v127
 .byte   W12
 .byte   N11 ,Gs1 ,v127
 .byte   W12
 .byte   N11 ,Dn1 ,v127
 .byte   N11 ,En1 ,v127
 .byte   N11 ,Fs1 ,v127
 .byte   W12
 .byte   N11 ,Gs1 ,v127
 .byte   W12
 .byte   N11 ,Cn1 ,v127
 .byte   N11 ,Cn1 ,v127
 .byte   N11 ,As1 ,v127
 .byte   W12
 .byte   N11 ,Gs1 ,v127
 .byte   W12
@  #04 @325   ----------------------------------------
 .byte   N11 ,Cn1 ,v127
 .byte   N11 ,Cn1 ,v127
 .byte   N11 ,Fs1 ,v127
 .byte   W12
 .byte   N11 ,Gs1 ,v127
 .byte   W12
 .byte   N11 ,As1 ,v127
 .byte   W12
 .byte   N11 ,Gs1 ,v127
 .byte   W12
 .byte   N11 ,Dn1 ,v127
 .byte   N11 ,En1 ,v127
 .byte   N11 ,Fs1 ,v127
 .byte   W12
 .byte   N11 ,Gs1 ,v127
 .byte   W12
 .byte   N11 ,Cn1 ,v127
 .byte   N11 ,Cn1 ,v127
 .byte   N11 ,As1 ,v127
 .byte   W12
 .byte   N11 ,Gs1 ,v127
 .byte   W12
@  #04 @326   ----------------------------------------
 .byte   VOICE , 124
 .byte   VOL , 50*song04_mvl/mxv
 .byte   MODT 1
 .byte   N11 ,Cn1 ,v127
 .byte   N11 ,Cn1 ,v127
 .byte   N11 ,Fs1 ,v127
 .byte   W12
 .byte   N11 ,Dn1 ,v127
 .byte   N11 ,En1 ,v127
 .byte   N11 ,Gs1 ,v127
 .byte   W12
 .byte   N11 ,As1 ,v127
 .byte   W12
 .byte   N11 ,Gs1 ,v127
 .byte   W12
 .byte   N11 ,Dn1 ,v127
 .byte   N11 ,En1 ,v127
 .byte   N11 ,Fs1 ,v127
 .byte   W12
 .byte   N11 ,Dn1 ,v127
 .byte   N11 ,En1 ,v127
 .byte   N11 ,Gs1 ,v127
 .byte   W12
 .byte   N11 ,Cn1 ,v127
 .byte   N11 ,Cn1 ,v127
 .byte   N11 ,Dn1 ,v127
 .byte   N11 ,En1 ,v127
 .byte   N11 ,As1 ,v127
 .byte   W12
 .byte   N11 ,Dn1 ,v127
 .byte   N11 ,En1 ,v127
 .byte   N11 ,Gs1 ,v127
 .byte   W12
@  #04 @327   ----------------------------------------
 .byte   N23 ,Cn1 ,v127
 .byte   N23 ,Cn1 ,v127
 .byte   N23 ,As1 ,v127
 .byte   N23 ,An2 ,v127
 .byte   W24
 .byte   N11 ,Fs1 ,v127
 .byte   W12
 .byte   N11 ,Fs1 ,v127
 .byte   W12
 .byte   N23 ,Dn1 ,v127
 .byte   N23 ,En1 ,v127
 .byte   N23 ,As1 ,v127
 .byte   W24
 .byte   N11 ,Cn1 ,v127
 .byte   N11 ,Cn1 ,v127
 .byte   N11 ,Fs1 ,v127
 .byte   W12
 .byte   N11 ,Fs1 ,v127
 .byte   W12
@  #04 @328   ----------------------------------------
 .byte   VOICE , 124
 .byte   VOL , 50*song04_mvl/mxv
 .byte   MODT 1
 .byte   N23 ,Cn1 ,v127
 .byte   N23 ,Cn1 ,v127
 .byte   N23 ,As1 ,v127
 .byte   W24
 .byte   N11 ,Fs1 ,v127
 .byte   W12
 .byte   N11 ,Fs1 ,v127
 .byte   W12
 .byte   N23 ,Dn1 ,v127
 .byte   N23 ,En1 ,v127
 .byte   N23 ,As1 ,v127
 .byte   W24
 .byte   N23 ,Cn1 ,v127
 .byte   N23 ,Cn1 ,v127
 .byte   N11 ,Fs1 ,v127
 .byte   W12
 .byte   N11 ,Fs1 ,v127
 .byte   W12
@  #04 @329   ----------------------------------------
 .byte   N23 ,Cn1 ,v127
 .byte   N23 ,Cn1 ,v127
 .byte   N23 ,As1 ,v127
 .byte   W24
 .byte   N11 ,Fs1 ,v127
 .byte   W12
 .byte   N11 ,Fs1 ,v127
 .byte   W12
 .byte   N23 ,Dn1 ,v127
 .byte   N23 ,En1 ,v127
 .byte   N23 ,As1 ,v127
 .byte   W24
 .byte   N11 ,Cn1 ,v127
 .byte   N11 ,Cn1 ,v127
 .byte   N11 ,Fs1 ,v127
 .byte   W12
 .byte   N11 ,Fs1 ,v127
 .byte   W12
@  #04 @330   ----------------------------------------
 .byte   VOICE , 124
 .byte   VOL , 50*song04_mvl/mxv
 .byte   MODT 1
 .byte   N23 ,Cn1 ,v127
 .byte   N23 ,Cn1 ,v127
 .byte   N23 ,As1 ,v127
 .byte   W24
 .byte   N11 ,Fs1 ,v127
 .byte   W12
 .byte   N11 ,Fs1 ,v127
 .byte   W12
 .byte   N23 ,Dn1 ,v127
 .byte   N23 ,En1 ,v127
 .byte   N23 ,As1 ,v127
 .byte   W24
 .byte   N23 ,Cn1 ,v127
 .byte   N23 ,Cn1 ,v127
 .byte   N11 ,Fs1 ,v127
 .byte   W12
 .byte   N11 ,Fs1 ,v127
 .byte   W12
@  #04 @331   ----------------------------------------
 .byte   N23 ,Cn1 ,v127
 .byte   N23 ,Cn1 ,v127
 .byte   N23 ,As1 ,v127
 .byte   W24
 .byte   N11 ,Fs1 ,v127
 .byte   W12
 .byte   N11 ,Fs1 ,v127
 .byte   W12
 .byte   N23 ,Dn1 ,v127
 .byte   N23 ,En1 ,v127
 .byte   N23 ,As1 ,v127
 .byte   W24
 .byte   N11 ,Cn1 ,v127
 .byte   N11 ,Cn1 ,v127
 .byte   N11 ,Fs1 ,v127
 .byte   W12
 .byte   N11 ,Fs1 ,v127
 .byte   W12
@  #04 @332   ----------------------------------------
 .byte   VOICE , 124
 .byte   VOL , 50*song04_mvl/mxv
 .byte   MODT 1
 .byte   N23 ,Cn1 ,v127
 .byte   N23 ,Cn1 ,v127
 .byte   N23 ,As1 ,v127
 .byte   W24
 .byte   N11 ,Fs1 ,v127
 .byte   W12
 .byte   N11 ,Fs1 ,v127
 .byte   W12
 .byte   N23 ,Dn1 ,v127
 .byte   N23 ,En1 ,v127
 .byte   N23 ,As1 ,v127
 .byte   W24
 .byte   N23 ,Cn1 ,v127
 .byte   N23 ,Cn1 ,v127
 .byte   N11 ,Fs1 ,v127
 .byte   W12
 .byte   N11 ,Fs1 ,v127
 .byte   W12
@  #04 @333   ----------------------------------------
 .byte   N23 ,Cn1 ,v127
 .byte   N23 ,Cn1 ,v127
 .byte   N23 ,As1 ,v127
 .byte   W24
 .byte   N11 ,Fs1 ,v127
 .byte   W12
 .byte   N11 ,Fs1 ,v127
 .byte   W12
 .byte   N23 ,Dn1 ,v127
 .byte   N23 ,En1 ,v127
 .byte   N23 ,As1 ,v127
 .byte   W24
 .byte   N11 ,Cn1 ,v127
 .byte   N11 ,Cn1 ,v127
 .byte   N11 ,Fs1 ,v127
 .byte   W12
 .byte   N11 ,Fs1 ,v127
 .byte   W12
@  #04 @334   ----------------------------------------
 .byte   VOICE , 124
 .byte   VOL , 50*song04_mvl/mxv
 .byte   MODT 1
 .byte   N23 ,Cn1 ,v127
 .byte   N23 ,Cn1 ,v127
 .byte   N23 ,As1 ,v127
 .byte   W24
 .byte   N11 ,Fs1 ,v127
 .byte   W12
 .byte   N11 ,Fs1 ,v127
 .byte   W12
 .byte   N23 ,Dn1 ,v127
 .byte   N23 ,En1 ,v127
 .byte   N23 ,As1 ,v127
 .byte   W24
 .byte   N23 ,Cn1 ,v127
 .byte   N23 ,Cn1 ,v127
 .byte   N11 ,Fs1 ,v127
 .byte   W12
 .byte   N11 ,Fs1 ,v127
 .byte   W12
@  #04 @335   ----------------------------------------
 .byte   N23 ,Cn1 ,v127
 .byte   N23 ,Cn1 ,v127
 .byte   N23 ,As1 ,v127
 .byte   W24
 .byte   N11 ,Fs1 ,v127
 .byte   W12
 .byte   N11 ,Fs1 ,v127
 .byte   W12
 .byte   N23 ,Dn1 ,v127
 .byte   N23 ,En1 ,v127
 .byte   N23 ,As1 ,v127
 .byte   W24
 .byte   N11 ,Cn1 ,v127
 .byte   N11 ,Cn1 ,v127
 .byte   N11 ,Fs1 ,v127
 .byte   W12
 .byte   N11 ,Fs1 ,v127
 .byte   W12
@  #04 @336   ----------------------------------------
 .byte   VOICE , 124
 .byte   VOL , 50*song04_mvl/mxv
 .byte   MODT 1
 .byte   N23 ,Cn1 ,v127
 .byte   N23 ,Cn1 ,v127
 .byte   N23 ,As1 ,v127
 .byte   W24
 .byte   N11 ,Fs1 ,v127
 .byte   W12
 .byte   N11 ,Fs1 ,v127
 .byte   W12
 .byte   N23 ,Dn1 ,v127
 .byte   N23 ,En1 ,v127
 .byte   N23 ,As1 ,v127
 .byte   W24
 .byte   N23 ,Cn1 ,v127
 .byte   N23 ,Cn1 ,v127
 .byte   N11 ,Fs1 ,v127
 .byte   W12
 .byte   N11 ,Fs1 ,v127
 .byte   W12
@  #04 @337   ----------------------------------------
 .byte   N23 ,Cn1 ,v127
 .byte   N23 ,Cn1 ,v127
 .byte   N23 ,As1 ,v127
 .byte   W24
 .byte   N11 ,Fs1 ,v127
 .byte   W12
 .byte   N11 ,Fs1 ,v127
 .byte   W12
 .byte   N23 ,Dn1 ,v127
 .byte   N23 ,En1 ,v127
 .byte   N23 ,As1 ,v127
 .byte   W24
 .byte   N11 ,Cn1 ,v127
 .byte   N11 ,Cn1 ,v127
 .byte   N11 ,Fs1 ,v127
 .byte   W12
 .byte   N11 ,Fs1 ,v127
 .byte   W12
@  #04 @338   ----------------------------------------
 .byte   VOICE , 124
 .byte   VOL , 50*song04_mvl/mxv
 .byte   MODT 1
 .byte   N23 ,Cn1 ,v127
 .byte   N23 ,Cn1 ,v127
 .byte   N23 ,As1 ,v127
 .byte   W24
 .byte   N11 ,Fs1 ,v127
 .byte   W12
 .byte   N11 ,Fs1 ,v127
 .byte   W12
 .byte   N23 ,Dn1 ,v127
 .byte   N23 ,En1 ,v127
 .byte   N23 ,As1 ,v127
 .byte   W24
 .byte   N23 ,Cn1 ,v127
 .byte   N23 ,Cn1 ,v127
 .byte   N11 ,Fs1 ,v127
 .byte   W12
 .byte   N11 ,Fs1 ,v127
 .byte   W12
@  #04 @339   ----------------------------------------
 .byte   N23 ,Cn1 ,v127
 .byte   N23 ,Cn1 ,v127
 .byte   N23 ,As1 ,v127
 .byte   W24
 .byte   N11 ,Fs1 ,v127
 .byte   W12
 .byte   N11 ,Fs1 ,v127
 .byte   W12
 .byte   N23 ,Dn1 ,v127
 .byte   N23 ,En1 ,v127
 .byte   N23 ,As1 ,v127
 .byte   W24
 .byte   N11 ,Cn1 ,v127
 .byte   N11 ,Cn1 ,v127
 .byte   N11 ,Fs1 ,v127
 .byte   W12
 .byte   N11 ,Fs1 ,v127
 .byte   W12
@  #04 @340   ----------------------------------------
 .byte   VOICE , 124
 .byte   VOL , 50*song04_mvl/mxv
 .byte   MODT 1
 .byte   N23 ,Cn1 ,v127
 .byte   N23 ,Cn1 ,v127
 .byte   N23 ,As1 ,v127
 .byte   W24
 .byte   N11 ,Fs1 ,v127
 .byte   W12
 .byte   N11 ,Fs1 ,v127
 .byte   W12
 .byte   N23 ,Dn1 ,v127
 .byte   N23 ,En1 ,v127
 .byte   N23 ,As1 ,v127
 .byte   W24
 .byte   N23 ,Cn1 ,v127
 .byte   N23 ,Cn1 ,v127
 .byte   N11 ,Fs1 ,v127
 .byte   W12
 .byte   N11 ,Fs1 ,v127
 .byte   W12
@  #04 @341   ----------------------------------------
 .byte   N23 ,Cn1 ,v127
 .byte   N23 ,Cn1 ,v127
 .byte   N23 ,As1 ,v127
 .byte   W24
 .byte   N11 ,Fs1 ,v127
 .byte   W12
 .byte   N11 ,Fs1 ,v127
 .byte   W12
 .byte   N23 ,Dn1 ,v127
 .byte   N23 ,En1 ,v127
 .byte   N23 ,As1 ,v127
 .byte   W24
 .byte   N11 ,Cn1 ,v127
 .byte   N11 ,Cn1 ,v127
 .byte   N11 ,Fs1 ,v127
 .byte   W12
 .byte   N11 ,Fs1 ,v127
 .byte   W12
@  #04 @342   ----------------------------------------
 .byte   VOICE , 124
 .byte   VOL , 50*song04_mvl/mxv
 .byte   MODT 1
 .byte   N23 ,Cn1 ,v127
 .byte   N23 ,Cn1 ,v127
 .byte   N23 ,As1 ,v127
 .byte   W24
 .byte   N11 ,Fs1 ,v127
 .byte   W12
 .byte   N11 ,Fs1 ,v127
 .byte   W12
 .byte   N11 ,Dn1 ,v127
 .byte   N11 ,En1 ,v127
 .byte   N11 ,As1 ,v127
 .byte   W12
 .byte   N11 ,Dn1 ,v127
 .byte   N11 ,En1 ,v127
 .byte   W12
 .byte   N23 ,Cn1 ,v127
 .byte   N23 ,Cn1 ,v127
 .byte   N11 ,Dn1 ,v127
 .byte   N11 ,En1 ,v127
 .byte   N11 ,Fs1 ,v127
 .byte   W12
 .byte   N11 ,Dn1 ,v127
 .byte   N11 ,En1 ,v127
 .byte   N11 ,Fs1 ,v127
 .byte   W12
@  #04 @343   ----------------------------------------
 .byte   N40 ,An1 ,v127
 .byte   N40 ,Bn1 ,v127
 .byte   N40 ,Cn2 ,v127
 .byte   N40 ,Dn2 ,v127
 .byte   N40 ,An2 ,v127
 .byte   W48
 .byte   N11 ,Cn1 ,v127
 .byte   N11 ,Dn2 ,v127
 .byte   N11 ,An2 ,v127
 .byte   W12
 .byte   N11 ,Cn2 ,v127
 .byte   W12
 .byte   N11 ,Bn1 ,v127
 .byte   W12
 .byte   N11 ,An1 ,v127
 .byte   W12
@  #04 @344   ----------------------------------------
 .byte   VOICE , 124
 .byte   VOL , 50*song04_mvl/mxv
 .byte   MODT 1
 .byte   N23 ,Cn1 ,v127
 .byte   N23 ,Cn1 ,v127
 .byte   N23 ,As1 ,v127
 .byte   N23 ,An2 ,v127
 .byte   W24
 .byte   N11 ,Fs1 ,v127
 .byte   W12
 .byte   N11 ,Fs1 ,v127
 .byte   W12
 .byte   N23 ,Dn1 ,v127
 .byte   N23 ,En1 ,v127
 .byte   N23 ,As1 ,v127
 .byte   W24
 .byte   N11 ,Cn1 ,v127
 .byte   N11 ,Cn1 ,v127
 .byte   N11 ,Fs1 ,v127
 .byte   W12
 .byte   N11 ,Fs1 ,v127
 .byte   W12
@  #04 @345   ----------------------------------------
 .byte   N23 ,Cn1 ,v127
 .byte   N23 ,Cn1 ,v127
 .byte   N23 ,As1 ,v127
 .byte   W24
 .byte   N11 ,Fs1 ,v127
 .byte   W12
 .byte   N11 ,Fs1 ,v127
 .byte   W12
 .byte   N23 ,Dn1 ,v127
 .byte   N23 ,En1 ,v127
 .byte   N23 ,As1 ,v127
 .byte   W24
 .byte   N23 ,Cn1 ,v127
 .byte   N23 ,Cn1 ,v127
 .byte   N11 ,Fs1 ,v127
 .byte   W12
 .byte   N11 ,Fs1 ,v127
 .byte   W12
@  #04 @346   ----------------------------------------
 .byte   VOICE , 124
 .byte   VOL , 50*song04_mvl/mxv
 .byte   MODT 1
 .byte   N23 ,Cn1 ,v127
 .byte   N23 ,Cn1 ,v127
 .byte   N23 ,As1 ,v127
 .byte   W24
 .byte   N11 ,Fs1 ,v127
 .byte   W12
 .byte   N11 ,Fs1 ,v127
 .byte   W12
 .byte   N23 ,Dn1 ,v127
 .byte   N23 ,En1 ,v127
 .byte   N23 ,As1 ,v127
 .byte   W24
 .byte   N11 ,Cn1 ,v127
 .byte   N11 ,Cn1 ,v127
 .byte   N11 ,Fs1 ,v127
 .byte   W12
 .byte   N11 ,Fs1 ,v127
 .byte   W12
@  #04 @347   ----------------------------------------
 .byte   N23 ,Cn1 ,v127
 .byte   N23 ,Cn1 ,v127
 .byte   N23 ,As1 ,v127
 .byte   W24
 .byte   N11 ,Fs1 ,v127
 .byte   W12
 .byte   N11 ,Fs1 ,v127
 .byte   W12
 .byte   N23 ,Dn1 ,v127
 .byte   N23 ,En1 ,v127
 .byte   N23 ,As1 ,v127
 .byte   W24
 .byte   N23 ,Cn1 ,v127
 .byte   N23 ,Cn1 ,v127
 .byte   N11 ,Fs1 ,v127
 .byte   W12
 .byte   N11 ,Fs1 ,v127
 .byte   W12
@  #04 @348   ----------------------------------------
 .byte   VOICE , 124
 .byte   VOL , 50*song04_mvl/mxv
 .byte   MODT 1
 .byte   N23 ,Cn1 ,v127
 .byte   N23 ,Cn1 ,v127
 .byte   N23 ,As1 ,v127
 .byte   W24
 .byte   N11 ,Fs1 ,v127
 .byte   W12
 .byte   N11 ,Fs1 ,v127
 .byte   W12
 .byte   N23 ,Dn1 ,v127
 .byte   N23 ,En1 ,v127
 .byte   N23 ,As1 ,v127
 .byte   W24
 .byte   N11 ,Cn1 ,v127
 .byte   N11 ,Cn1 ,v127
 .byte   N11 ,Fs1 ,v127
 .byte   W12
 .byte   N11 ,Fs1 ,v127
 .byte   W12
@  #04 @349   ----------------------------------------
 .byte   N23 ,Cn1 ,v127
 .byte   N23 ,Cn1 ,v127
 .byte   N23 ,As1 ,v127
 .byte   W24
 .byte   N11 ,Fs1 ,v127
 .byte   W12
 .byte   N11 ,Fs1 ,v127
 .byte   W12
 .byte   N23 ,Dn1 ,v127
 .byte   N23 ,En1 ,v127
 .byte   N23 ,As1 ,v127
 .byte   W24
 .byte   N23 ,Cn1 ,v127
 .byte   N23 ,Cn1 ,v127
 .byte   N11 ,Fs1 ,v127
 .byte   W12
 .byte   N11 ,Fs1 ,v127
 .byte   W12
@  #04 @350   ----------------------------------------
 .byte   VOICE , 124
 .byte   VOL , 50*song04_mvl/mxv
 .byte   MODT 1
 .byte   N23 ,Cn1 ,v127
 .byte   N23 ,Cn1 ,v127
 .byte   N23 ,As1 ,v127
 .byte   W24
 .byte   N11 ,Fs1 ,v127
 .byte   W12
 .byte   N11 ,Fs1 ,v127
 .byte   W12
 .byte   N23 ,Dn1 ,v127
 .byte   N23 ,En1 ,v127
 .byte   N23 ,As1 ,v127
 .byte   W24
 .byte   N11 ,Cn1 ,v127
 .byte   N11 ,Cn1 ,v127
 .byte   N11 ,Fs1 ,v127
 .byte   W12
 .byte   N11 ,Fs1 ,v127
 .byte   W12
@  #04 @351   ----------------------------------------
 .byte   N23 ,Cn1 ,v127
 .byte   N23 ,Cn1 ,v127
 .byte   N23 ,As1 ,v127
 .byte   W24
 .byte   N11 ,Fs1 ,v127
 .byte   W12
 .byte   N11 ,Fs1 ,v127
 .byte   W12
 .byte   N23 ,Dn1 ,v127
 .byte   N23 ,En1 ,v127
 .byte   N23 ,As1 ,v127
 .byte   W24
 .byte   N23 ,Cn1 ,v127
 .byte   N23 ,Cn1 ,v127
 .byte   N11 ,Fs1 ,v127
 .byte   W12
 .byte   N11 ,Fs1 ,v127
 .byte   W12
@  #04 @352   ----------------------------------------
 .byte   VOICE , 124
 .byte   VOL , 50*song04_mvl/mxv
 .byte   MODT 1
 .byte   N23 ,Cn1 ,v127
 .byte   N23 ,Cn1 ,v127
 .byte   N23 ,As1 ,v127
 .byte   W24
 .byte   N11 ,Fs1 ,v127
 .byte   W12
 .byte   N11 ,Fs1 ,v127
 .byte   W12
 .byte   N23 ,Dn1 ,v127
 .byte   N23 ,En1 ,v127
 .byte   N23 ,As1 ,v127
 .byte   W24
 .byte   N11 ,Cn1 ,v127
 .byte   N11 ,Cn1 ,v127
 .byte   N11 ,Fs1 ,v127
 .byte   W12
 .byte   N11 ,Fs1 ,v127
 .byte   W12
@  #04 @353   ----------------------------------------
 .byte   N23 ,Cn1 ,v127
 .byte   N23 ,Cn1 ,v127
 .byte   N23 ,As1 ,v127
 .byte   W24
 .byte   N11 ,Fs1 ,v127
 .byte   W12
 .byte   N11 ,Fs1 ,v127
 .byte   W12
 .byte   N23 ,Dn1 ,v127
 .byte   N23 ,En1 ,v127
 .byte   N23 ,As1 ,v127
 .byte   W24
 .byte   N23 ,Cn1 ,v127
 .byte   N23 ,Cn1 ,v127
 .byte   N11 ,Fs1 ,v127
 .byte   W12
 .byte   N11 ,Fs1 ,v127
 .byte   W12
@  #04 @354   ----------------------------------------
 .byte   VOICE , 124
 .byte   VOL , 50*song04_mvl/mxv
 .byte   MODT 1
 .byte   N23 ,Cn1 ,v127
 .byte   N23 ,Cn1 ,v127
 .byte   N23 ,As1 ,v127
 .byte   W24
 .byte   N11 ,Fs1 ,v127
 .byte   W12
 .byte   N11 ,Fs1 ,v127
 .byte   W12
 .byte   N23 ,Dn1 ,v127
 .byte   N23 ,En1 ,v127
 .byte   N23 ,As1 ,v127
 .byte   W24
 .byte   N11 ,Cn1 ,v127
 .byte   N11 ,Cn1 ,v127
 .byte   N11 ,Fs1 ,v127
 .byte   W12
 .byte   N11 ,Fs1 ,v127
 .byte   W12
@  #04 @355   ----------------------------------------
 .byte   N23 ,Cn1 ,v127
 .byte   N23 ,Cn1 ,v127
 .byte   N23 ,As1 ,v127
 .byte   W24
 .byte   N11 ,Fs1 ,v127
 .byte   W12
 .byte   N11 ,Fs1 ,v127
 .byte   W12
 .byte   N23 ,Dn1 ,v127
 .byte   N23 ,En1 ,v127
 .byte   N23 ,As1 ,v127
 .byte   W24
 .byte   N23 ,Cn1 ,v127
 .byte   N23 ,Cn1 ,v127
 .byte   N11 ,Fs1 ,v127
 .byte   W12
 .byte   N11 ,Fs1 ,v127
 .byte   W12
@  #04 @356   ----------------------------------------
 .byte   VOICE , 124
 .byte   VOL , 50*song04_mvl/mxv
 .byte   MODT 1
 .byte   N23 ,Cn1 ,v127
 .byte   N23 ,Cn1 ,v127
 .byte   N23 ,As1 ,v127
 .byte   W24
 .byte   N11 ,Fs1 ,v127
 .byte   W12
 .byte   N11 ,Fs1 ,v127
 .byte   W12
 .byte   N23 ,Dn1 ,v127
 .byte   N23 ,En1 ,v127
 .byte   N23 ,As1 ,v127
 .byte   W24
 .byte   N11 ,Cn1 ,v127
 .byte   N11 ,Cn1 ,v127
 .byte   N11 ,Fs1 ,v127
 .byte   W12
 .byte   N11 ,Fs1 ,v127
 .byte   W12
@  #04 @357   ----------------------------------------
 .byte   N23 ,Cn1 ,v127
 .byte   N23 ,Cn1 ,v127
 .byte   N23 ,As1 ,v127
 .byte   W24
 .byte   N11 ,Fs1 ,v127
 .byte   W12
 .byte   N11 ,Fs1 ,v127
 .byte   W12
 .byte   N23 ,Dn1 ,v127
 .byte   N23 ,En1 ,v127
 .byte   N23 ,As1 ,v127
 .byte   W24
 .byte   N23 ,Cn1 ,v127
 .byte   N23 ,Cn1 ,v127
 .byte   N11 ,Fs1 ,v127
 .byte   W12
 .byte   N11 ,Fs1 ,v127
 .byte   W12
@  #04 @358   ----------------------------------------
 .byte   VOICE , 124
 .byte   VOL , 50*song04_mvl/mxv
 .byte   MODT 1
 .byte   N23 ,Cn1 ,v127
 .byte   N23 ,Cn1 ,v127
 .byte   N23 ,As1 ,v127
 .byte   W24
 .byte   N11 ,Fs1 ,v127
 .byte   W12
 .byte   N11 ,Fs1 ,v127
 .byte   W12
 .byte   N23 ,Dn1 ,v127
 .byte   N23 ,En1 ,v127
 .byte   N23 ,As1 ,v127
 .byte   W24
 .byte   N11 ,Cn1 ,v127
 .byte   N11 ,Cn1 ,v127
 .byte   N11 ,Fs1 ,v127
 .byte   W12
 .byte   N11 ,Fs1 ,v127
 .byte   W12
@  #04 @359   ----------------------------------------
 .byte   N23 ,Cn1 ,v127
 .byte   N23 ,Cn1 ,v127
 .byte   N23 ,As1 ,v127
 .byte   W24
 .byte   N11 ,Fs1 ,v127
 .byte   W12
 .byte   N11 ,Fs1 ,v127
 .byte   W12
 .byte   N11 ,Dn1 ,v127
 .byte   N11 ,En1 ,v127
 .byte   N11 ,As1 ,v127
 .byte   W12
 .byte   N11 ,Dn1 ,v127
 .byte   N11 ,En1 ,v127
 .byte   W12
 .byte   N23 ,Cn1 ,v127
 .byte   N23 ,Cn1 ,v127
 .byte   N11 ,Dn1 ,v127
 .byte   N11 ,En1 ,v127
 .byte   N11 ,Fs1 ,v127
 .byte   W12
 .byte   N11 ,Dn1 ,v127
 .byte   N11 ,En1 ,v127
 .byte   N11 ,Fs1 ,v127
 .byte   W12
@  #04 @360   ----------------------------------------
 .byte   VOICE , 124
 .byte   VOL , 50*song04_mvl/mxv
 .byte   MODT 1
 .byte   N11 ,Cn1 ,v127
 .byte   N11 ,Cn1 ,v127
 .byte   N11 ,Fs1 ,v127
 .byte   N11 ,An2 ,v127
 .byte   W12
 .byte   N11 ,Gs1 ,v127
 .byte   W12
 .byte   N11 ,As1 ,v127
 .byte   W12
 .byte   N11 ,Gs1 ,v127
 .byte   W12
 .byte   N11 ,Dn1 ,v127
 .byte   N11 ,En1 ,v127
 .byte   N11 ,Fs1 ,v127
 .byte   W12
 .byte   N11 ,Gs1 ,v127
 .byte   W12
 .byte   N11 ,Cn1 ,v127
 .byte   N11 ,Cn1 ,v127
 .byte   N11 ,As1 ,v127
 .byte   W12
 .byte   N11 ,Gs1 ,v127
 .byte   W12
@  #04 @361   ----------------------------------------
 .byte   N11 ,Cn1 ,v127
 .byte   N11 ,Cn1 ,v127
 .byte   N11 ,Fs1 ,v127
 .byte   W12
 .byte   N11 ,Dn1 ,v127
 .byte   N11 ,En1 ,v127
 .byte   N11 ,Gs1 ,v127
 .byte   W12
 .byte   N11 ,As1 ,v127
 .byte   W12
 .byte   N11 ,Gs1 ,v127
 .byte   W12
 .byte   N11 ,Dn1 ,v127
 .byte   N11 ,En1 ,v127
 .byte   N11 ,Fs1 ,v127
 .byte   W12
 .byte   N11 ,Gs1 ,v127
 .byte   W12
 .byte   N11 ,Cn1 ,v127
 .byte   N11 ,Cn1 ,v127
 .byte   N11 ,As1 ,v127
 .byte   W12
 .byte   N11 ,Gs1 ,v127
 .byte   W12
@  #04 @362   ----------------------------------------
 .byte   VOICE , 124
 .byte   VOL , 50*song04_mvl/mxv
 .byte   MODT 1
 .byte   N11 ,Cn1 ,v127
 .byte   N11 ,Cn1 ,v127
 .byte   N11 ,Fs1 ,v127
 .byte   W12
 .byte   N11 ,Gs1 ,v127
 .byte   W12
 .byte   N11 ,As1 ,v127
 .byte   W12
 .byte   N11 ,Gs1 ,v127
 .byte   W12
 .byte   N11 ,Dn1 ,v127
 .byte   N11 ,En1 ,v127
 .byte   N11 ,Fs1 ,v127
 .byte   W12
 .byte   N11 ,Gs1 ,v127
 .byte   W12
 .byte   N11 ,Cn1 ,v127
 .byte   N11 ,Cn1 ,v127
 .byte   N11 ,As1 ,v127
 .byte   W12
 .byte   N11 ,Gs1 ,v127
 .byte   W12
@  #04 @363   ----------------------------------------
 .byte   N11 ,Cn1 ,v127
 .byte   N11 ,Cn1 ,v127
 .byte   N11 ,Fs1 ,v127
 .byte   W12
 .byte   N11 ,Dn1 ,v127
 .byte   N11 ,En1 ,v127
 .byte   N11 ,Gs1 ,v127
 .byte   W12
 .byte   N11 ,As1 ,v127
 .byte   W12
 .byte   N11 ,Gs1 ,v127
 .byte   W12
 .byte   N11 ,Dn1 ,v127
 .byte   N11 ,En1 ,v127
 .byte   N11 ,Fs1 ,v127
 .byte   W12
 .byte   N11 ,Gs1 ,v127
 .byte   W12
 .byte   N11 ,Cn1 ,v127
 .byte   N11 ,Cn1 ,v127
 .byte   N11 ,As1 ,v127
 .byte   W12
 .byte   N11 ,Gs1 ,v127
 .byte   W12
@  #04 @364   ----------------------------------------
 .byte   VOICE , 124
 .byte   VOL , 50*song04_mvl/mxv
 .byte   MODT 1
 .byte   N11 ,Cn1 ,v127
 .byte   N11 ,Cn1 ,v127
 .byte   N11 ,Fs1 ,v127
 .byte   W12
 .byte   N11 ,Gs1 ,v127
 .byte   W12
 .byte   N11 ,As1 ,v127
 .byte   W12
 .byte   N11 ,Gs1 ,v127
 .byte   W12
 .byte   N11 ,Dn1 ,v127
 .byte   N11 ,En1 ,v127
 .byte   N11 ,Fs1 ,v127
 .byte   W12
 .byte   N11 ,Gs1 ,v127
 .byte   W12
 .byte   N11 ,Cn1 ,v127
 .byte   N11 ,Cn1 ,v127
 .byte   N11 ,As1 ,v127
 .byte   W12
 .byte   N11 ,Gs1 ,v127
 .byte   W12
@  #04 @365   ----------------------------------------
 .byte   N11 ,Cn1 ,v127
 .byte   N11 ,Cn1 ,v127
 .byte   N11 ,Fs1 ,v127
 .byte   W12
 .byte   N11 ,Dn1 ,v127
 .byte   N11 ,En1 ,v127
 .byte   N11 ,Gs1 ,v127
 .byte   W12
 .byte   N11 ,As1 ,v127
 .byte   W12
 .byte   N11 ,Gs1 ,v127
 .byte   W12
 .byte   N11 ,Dn1 ,v127
 .byte   N11 ,En1 ,v127
 .byte   N11 ,Fs1 ,v127
 .byte   W12
 .byte   N11 ,Gs1 ,v127
 .byte   W12
 .byte   N11 ,Cn1 ,v127
 .byte   N11 ,Cn1 ,v127
 .byte   N11 ,As1 ,v127
 .byte   W12
 .byte   N11 ,Gs1 ,v127
 .byte   W12
@  #04 @366   ----------------------------------------
 .byte   VOICE , 124
 .byte   VOL , 50*song04_mvl/mxv
 .byte   MODT 1
 .byte   N11 ,Cn1 ,v127
 .byte   N11 ,Cn1 ,v127
 .byte   N11 ,Fs1 ,v127
 .byte   W12
 .byte   N11 ,Gs1 ,v127
 .byte   W12
 .byte   N11 ,As1 ,v127
 .byte   W12
 .byte   N11 ,Gs1 ,v127
 .byte   W12
 .byte   N11 ,Dn1 ,v127
 .byte   N11 ,En1 ,v127
 .byte   N11 ,Fs1 ,v127
 .byte   W12
 .byte   N11 ,Gs1 ,v127
 .byte   W12
 .byte   N11 ,Cn1 ,v127
 .byte   N11 ,Cn1 ,v127
 .byte   N11 ,As1 ,v127
 .byte   W12
 .byte   N11 ,Gs1 ,v127
 .byte   W12
@  #04 @367   ----------------------------------------
 .byte   N11 ,Cn1 ,v127
 .byte   N11 ,Cn1 ,v127
 .byte   N11 ,Fs1 ,v127
 .byte   W12
 .byte   N11 ,Dn1 ,v127
 .byte   N11 ,En1 ,v127
 .byte   N11 ,Gs1 ,v127
 .byte   W12
 .byte   N11 ,As1 ,v127
 .byte   W12
 .byte   N11 ,Gs1 ,v127
 .byte   W12
 .byte   N11 ,Dn1 ,v127
 .byte   N11 ,En1 ,v127
 .byte   N11 ,Fs1 ,v127
 .byte   W12
 .byte   N11 ,Dn1 ,v127
 .byte   N11 ,En1 ,v127
 .byte   N11 ,Gs1 ,v127
 .byte   W12
 .byte   N11 ,Cn1 ,v127
 .byte   N11 ,Cn1 ,v127
 .byte   N11 ,Dn1 ,v127
 .byte   N11 ,En1 ,v127
 .byte   N11 ,As1 ,v127
 .byte   W12
 .byte   N11 ,Dn1 ,v127
 .byte   N11 ,En1 ,v127
 .byte   N11 ,Gs1 ,v127
 .byte   W12
@  #04 @368   ----------------------------------------
 .byte   VOICE , 124
 .byte   VOL , 50*song04_mvl/mxv
 .byte   MODT 1
 .byte   N11 ,Cn1 ,v127
 .byte   N11 ,Cn1 ,v127
 .byte   N11 ,Fs1 ,v127
 .byte   N11 ,An2 ,v127
 .byte   W12
 .byte   N11 ,Gs1 ,v127
 .byte   W12
 .byte   N11 ,As1 ,v127
 .byte   W12
 .byte   N11 ,Gs1 ,v127
 .byte   W12
 .byte   N11 ,Dn1 ,v127
 .byte   N11 ,En1 ,v127
 .byte   N11 ,Fs1 ,v127
 .byte   W12
 .byte   N11 ,Gs1 ,v127
 .byte   W12
 .byte   N11 ,Cn1 ,v127
 .byte   N11 ,Cn1 ,v127
 .byte   N11 ,As1 ,v127
 .byte   W12
 .byte   N11 ,Gs1 ,v127
 .byte   W12
@  #04 @369   ----------------------------------------
 .byte   N11 ,Cn1 ,v127
 .byte   N11 ,Cn1 ,v127
 .byte   N11 ,Fs1 ,v127
 .byte   W12
 .byte   N11 ,Dn1 ,v127
 .byte   N11 ,En1 ,v127
 .byte   N11 ,Gs1 ,v127
 .byte   W12
 .byte   N11 ,As1 ,v127
 .byte   W12
 .byte   N11 ,Gs1 ,v127
 .byte   W12
 .byte   N11 ,Dn1 ,v127
 .byte   N11 ,En1 ,v127
 .byte   N11 ,Fs1 ,v127
 .byte   W12
 .byte   N11 ,Gs1 ,v127
 .byte   W12
 .byte   N11 ,Cn1 ,v127
 .byte   N11 ,Cn1 ,v127
 .byte   N11 ,As1 ,v127
 .byte   W12
 .byte   N11 ,Gs1 ,v127
 .byte   W12
@  #04 @370   ----------------------------------------
 .byte   VOICE , 124
 .byte   VOL , 50*song04_mvl/mxv
 .byte   MODT 1
 .byte   N11 ,Cn1 ,v127
 .byte   N11 ,Cn1 ,v127
 .byte   N11 ,Fs1 ,v127
 .byte   W12
 .byte   N11 ,Gs1 ,v127
 .byte   W12
 .byte   N11 ,As1 ,v127
 .byte   W12
 .byte   N11 ,Gs1 ,v127
 .byte   W12
 .byte   N11 ,Dn1 ,v127
 .byte   N11 ,En1 ,v127
 .byte   N11 ,Fs1 ,v127
 .byte   W12
 .byte   N11 ,Gs1 ,v127
 .byte   W12
 .byte   N11 ,Cn1 ,v127
 .byte   N11 ,Cn1 ,v127
 .byte   N11 ,As1 ,v127
 .byte   W12
 .byte   N11 ,Gs1 ,v127
 .byte   W12
@  #04 @371   ----------------------------------------
 .byte   N11 ,Cn1 ,v127
 .byte   N11 ,Cn1 ,v127
 .byte   N11 ,Fs1 ,v127
 .byte   W12
 .byte   N11 ,Dn1 ,v127
 .byte   N11 ,En1 ,v127
 .byte   N11 ,Gs1 ,v127
 .byte   W12
 .byte   N11 ,As1 ,v127
 .byte   W12
 .byte   N11 ,Gs1 ,v127
 .byte   W12
 .byte   N11 ,Dn1 ,v127
 .byte   N11 ,En1 ,v127
 .byte   N11 ,Fs1 ,v127
 .byte   W12
 .byte   N11 ,Gs1 ,v127
 .byte   W12
 .byte   N11 ,Cn1 ,v127
 .byte   N11 ,Cn1 ,v127
 .byte   N11 ,As1 ,v127
 .byte   W12
 .byte   N11 ,Gs1 ,v127
 .byte   W12
@  #04 @372   ----------------------------------------
 .byte   VOICE , 124
 .byte   VOL , 50*song04_mvl/mxv
 .byte   MODT 1
 .byte   N11 ,Cn1 ,v127
 .byte   N11 ,Cn1 ,v127
 .byte   N11 ,Fs1 ,v127
 .byte   W12
 .byte   N11 ,Gs1 ,v127
 .byte   W12
 .byte   N11 ,As1 ,v127
 .byte   W12
 .byte   N11 ,Gs1 ,v127
 .byte   W12
 .byte   N11 ,Dn1 ,v127
 .byte   N11 ,En1 ,v127
 .byte   N11 ,Fs1 ,v127
 .byte   W12
 .byte   N11 ,Gs1 ,v127
 .byte   W12
 .byte   N11 ,Cn1 ,v127
 .byte   N11 ,Cn1 ,v127
 .byte   N11 ,As1 ,v127
 .byte   W12
 .byte   N11 ,Gs1 ,v127
 .byte   W12
@  #04 @373   ----------------------------------------
 .byte   N11 ,Cn1 ,v127
 .byte   N11 ,Cn1 ,v127
 .byte   N11 ,Fs1 ,v127
 .byte   W12
 .byte   N11 ,Dn1 ,v127
 .byte   N11 ,En1 ,v127
 .byte   N11 ,Gs1 ,v127
 .byte   W12
 .byte   N11 ,As1 ,v127
 .byte   W12
 .byte   N11 ,Gs1 ,v127
 .byte   W12
 .byte   N11 ,Dn1 ,v127
 .byte   N11 ,En1 ,v127
 .byte   N11 ,Fs1 ,v127
 .byte   W12
 .byte   N11 ,Gs1 ,v127
 .byte   W12
 .byte   N11 ,Cn1 ,v127
 .byte   N11 ,Cn1 ,v127
 .byte   N11 ,As1 ,v127
 .byte   W12
 .byte   N11 ,Gs1 ,v127
 .byte   W12
@  #04 @374   ----------------------------------------
 .byte   VOICE , 124
 .byte   VOL , 50*song04_mvl/mxv
 .byte   MODT 1
 .byte   N11 ,Cn1 ,v127
 .byte   N11 ,Cn1 ,v127
 .byte   N11 ,Fs1 ,v127
 .byte   W12
 .byte   N11 ,Gs1 ,v127
 .byte   W12
 .byte   N11 ,As1 ,v127
 .byte   W12
 .byte   N11 ,Gs1 ,v127
 .byte   W12
 .byte   N11 ,Dn1 ,v127
 .byte   N11 ,En1 ,v127
 .byte   N11 ,Fs1 ,v127
 .byte   W12
 .byte   N11 ,Gs1 ,v127
 .byte   W12
 .byte   N11 ,Cn1 ,v127
 .byte   N11 ,Cn1 ,v127
 .byte   N11 ,As1 ,v127
 .byte   W12
 .byte   N11 ,Gs1 ,v127
 .byte   W12
@  #04 @375   ----------------------------------------
 .byte   N11 ,Cn1 ,v127
 .byte   N11 ,Cn1 ,v127
 .byte   N11 ,Fs1 ,v127
 .byte   W12
 .byte   N11 ,Dn1 ,v127
 .byte   N11 ,En1 ,v127
 .byte   N11 ,Gs1 ,v127
 .byte   W12
 .byte   N11 ,As1 ,v127
 .byte   W12
 .byte   N11 ,Gs1 ,v127
 .byte   W12
 .byte   N11 ,Dn1 ,v127
 .byte   N11 ,En1 ,v127
 .byte   N11 ,Fs1 ,v127
 .byte   W12
 .byte   N11 ,Dn1 ,v127
 .byte   N11 ,En1 ,v127
 .byte   N11 ,Gs1 ,v127
 .byte   W12
 .byte   N11 ,Cn1 ,v127
 .byte   N11 ,Cn1 ,v127
 .byte   N11 ,Dn1 ,v127
 .byte   N11 ,En1 ,v127
 .byte   N11 ,As1 ,v127
 .byte   W12
 .byte   N11 ,Dn1 ,v127
 .byte   N11 ,En1 ,v127
 .byte   N11 ,Gs1 ,v127
 .byte   W12
@  #04 @376   ----------------------------------------
 .byte   VOICE , 124
 .byte   VOL , 50*song04_mvl/mxv
 .byte   MODT 1
 .byte   N23 ,Cn1 ,v127
 .byte   N23 ,Cn1 ,v127
 .byte   N23 ,As1 ,v127
 .byte   N23 ,An2 ,v127
 .byte   W24
 .byte   N11 ,Fs1 ,v127
 .byte   W12
 .byte   N11 ,Fs1 ,v127
 .byte   W12
 .byte   N23 ,Dn1 ,v127
 .byte   N23 ,En1 ,v127
 .byte   N23 ,As1 ,v127
 .byte   W24
 .byte   N11 ,Cn1 ,v127
 .byte   N11 ,Cn1 ,v127
 .byte   N11 ,Fs1 ,v127
 .byte   W12
 .byte   N11 ,Fs1 ,v127
 .byte   W12
@  #04 @377   ----------------------------------------
 .byte   N23 ,Cn1 ,v127
 .byte   N23 ,Cn1 ,v127
 .byte   N23 ,As1 ,v127
 .byte   W24
 .byte   N11 ,Fs1 ,v127
 .byte   W12
 .byte   N11 ,Fs1 ,v127
 .byte   W12
 .byte   N23 ,Dn1 ,v127
 .byte   N23 ,En1 ,v127
 .byte   N23 ,As1 ,v127
 .byte   W24
 .byte   N23 ,Cn1 ,v127
 .byte   N23 ,Cn1 ,v127
 .byte   N11 ,Fs1 ,v127
 .byte   W12
 .byte   N11 ,Fs1 ,v127
 .byte   W12
@  #04 @378   ----------------------------------------
 .byte   VOICE , 124
 .byte   VOL , 50*song04_mvl/mxv
 .byte   MODT 1
 .byte   N23 ,Cn1 ,v127
 .byte   N23 ,Cn1 ,v127
 .byte   N23 ,As1 ,v127
 .byte   W24
 .byte   N11 ,Fs1 ,v127
 .byte   W12
 .byte   N11 ,Fs1 ,v127
 .byte   W12
 .byte   N23 ,Dn1 ,v127
 .byte   N23 ,En1 ,v127
 .byte   N23 ,As1 ,v127
 .byte   W24
 .byte   N11 ,Cn1 ,v127
 .byte   N11 ,Cn1 ,v127
 .byte   N11 ,Fs1 ,v127
 .byte   W12
 .byte   N11 ,Fs1 ,v127
 .byte   W12
@  #04 @379   ----------------------------------------
 .byte   N23 ,Cn1 ,v127
 .byte   N23 ,Cn1 ,v127
 .byte   N23 ,As1 ,v127
 .byte   W24
 .byte   N11 ,Fs1 ,v127
 .byte   W12
 .byte   N11 ,Fs1 ,v127
 .byte   W12
 .byte   N23 ,Dn1 ,v127
 .byte   N23 ,En1 ,v127
 .byte   N23 ,As1 ,v127
 .byte   W24
 .byte   N23 ,Cn1 ,v127
 .byte   N23 ,Cn1 ,v127
 .byte   N11 ,Fs1 ,v127
 .byte   W12
 .byte   N11 ,Fs1 ,v127
 .byte   W12
@  #04 @380   ----------------------------------------
 .byte   VOICE , 124
 .byte   VOL , 50*song04_mvl/mxv
 .byte   MODT 1
 .byte   N23 ,Cn1 ,v127
 .byte   N23 ,Cn1 ,v127
 .byte   N23 ,As1 ,v127
 .byte   W24
 .byte   N11 ,Fs1 ,v127
 .byte   W12
 .byte   N11 ,Fs1 ,v127
 .byte   W12
 .byte   N23 ,Dn1 ,v127
 .byte   N23 ,En1 ,v127
 .byte   N23 ,As1 ,v127
 .byte   W24
 .byte   N11 ,Cn1 ,v127
 .byte   N11 ,Cn1 ,v127
 .byte   N11 ,Fs1 ,v127
 .byte   W12
 .byte   N11 ,Fs1 ,v127
 .byte   W12
@  #04 @381   ----------------------------------------
 .byte   N23 ,Cn1 ,v127
 .byte   N23 ,Cn1 ,v127
 .byte   N23 ,As1 ,v127
 .byte   W24
 .byte   N11 ,Fs1 ,v127
 .byte   W12
 .byte   N11 ,Fs1 ,v127
 .byte   W12
 .byte   N23 ,Dn1 ,v127
 .byte   N23 ,En1 ,v127
 .byte   N23 ,As1 ,v127
 .byte   W24
 .byte   N23 ,Cn1 ,v127
 .byte   N23 ,Cn1 ,v127
 .byte   N11 ,Fs1 ,v127
 .byte   W12
 .byte   N11 ,Fs1 ,v127
 .byte   W12
@  #04 @382   ----------------------------------------
 .byte   VOICE , 124
 .byte   VOL , 50*song04_mvl/mxv
 .byte   MODT 1
 .byte   N23 ,Cn1 ,v127
 .byte   N23 ,Cn1 ,v127
 .byte   N23 ,As1 ,v127
 .byte   W24
 .byte   N11 ,Fs1 ,v127
 .byte   W12
 .byte   N11 ,Fs1 ,v127
 .byte   W12
 .byte   N23 ,Dn1 ,v127
 .byte   N23 ,En1 ,v127
 .byte   N23 ,As1 ,v127
 .byte   W24
 .byte   N11 ,Cn1 ,v127
 .byte   N11 ,Cn1 ,v127
 .byte   N11 ,Fs1 ,v127
 .byte   W12
 .byte   N11 ,Fs1 ,v127
 .byte   W12
@  #04 @383   ----------------------------------------
 .byte   N23 ,Cn1 ,v127
 .byte   N23 ,Cn1 ,v127
 .byte   N23 ,As1 ,v127
 .byte   W24
 .byte   N11 ,Fs1 ,v127
 .byte   W12
 .byte   N11 ,Fs1 ,v127
 .byte   W12
 .byte   N23 ,Dn1 ,v127
 .byte   N23 ,En1 ,v127
 .byte   N23 ,As1 ,v127
 .byte   W24
 .byte   N23 ,Cn1 ,v127
 .byte   N23 ,Cn1 ,v127
 .byte   N11 ,Fs1 ,v127
 .byte   W12
 .byte   N11 ,Fs1 ,v127
 .byte   W12
@  #04 @384   ----------------------------------------
 .byte   VOICE , 124
 .byte   VOL , 50*song04_mvl/mxv
 .byte   MODT 1
 .byte   N23 ,Cn1 ,v127
 .byte   N23 ,Cn1 ,v127
 .byte   N23 ,As1 ,v127
 .byte   W24
 .byte   N11 ,Fs1 ,v127
 .byte   W12
 .byte   N11 ,Fs1 ,v127
 .byte   W12
 .byte   N23 ,Dn1 ,v127
 .byte   N23 ,En1 ,v127
 .byte   N23 ,As1 ,v127
 .byte   W24
 .byte   N11 ,Cn1 ,v127
 .byte   N11 ,Cn1 ,v127
 .byte   N11 ,Fs1 ,v127
 .byte   W12
 .byte   N11 ,Fs1 ,v127
 .byte   W12
@  #04 @385   ----------------------------------------
 .byte   N23 ,Cn1 ,v127
 .byte   N23 ,Cn1 ,v127
 .byte   N23 ,As1 ,v127
 .byte   W24
 .byte   N11 ,Fs1 ,v127
 .byte   W12
 .byte   N11 ,Fs1 ,v127
 .byte   W12
 .byte   N23 ,Dn1 ,v127
 .byte   N23 ,En1 ,v127
 .byte   N23 ,As1 ,v127
 .byte   W24
 .byte   N23 ,Cn1 ,v127
 .byte   N23 ,Cn1 ,v127
 .byte   N11 ,Fs1 ,v127
 .byte   W12
 .byte   N11 ,Fs1 ,v127
 .byte   W12
@  #04 @386   ----------------------------------------
 .byte   VOICE , 124
 .byte   VOL , 50*song04_mvl/mxv
 .byte   MODT 1
 .byte   N23 ,Cn1 ,v127
 .byte   N23 ,Cn1 ,v127
 .byte   N23 ,As1 ,v127
 .byte   W24
 .byte   N11 ,Fs1 ,v127
 .byte   W12
 .byte   N11 ,Fs1 ,v127
 .byte   W12
 .byte   N23 ,Dn1 ,v127
 .byte   N23 ,En1 ,v127
 .byte   N23 ,As1 ,v127
 .byte   W24
 .byte   N11 ,Cn1 ,v127
 .byte   N11 ,Cn1 ,v127
 .byte   N11 ,Fs1 ,v127
 .byte   W12
 .byte   N11 ,Fs1 ,v127
 .byte   W12
@  #04 @387   ----------------------------------------
 .byte   N23 ,Cn1 ,v127
 .byte   N23 ,Cn1 ,v127
 .byte   N23 ,As1 ,v127
 .byte   W24
 .byte   N11 ,Fs1 ,v127
 .byte   W12
 .byte   N11 ,Fs1 ,v127
 .byte   W12
 .byte   N23 ,Dn1 ,v127
 .byte   N23 ,En1 ,v127
 .byte   N23 ,As1 ,v127
 .byte   W24
 .byte   N23 ,Cn1 ,v127
 .byte   N23 ,Cn1 ,v127
 .byte   N11 ,Fs1 ,v127
 .byte   W12
 .byte   N11 ,Fs1 ,v127
 .byte   W12
@  #04 @388   ----------------------------------------
 .byte   VOICE , 124
 .byte   VOL , 50*song04_mvl/mxv
 .byte   MODT 1
 .byte   N23 ,Cn1 ,v127
 .byte   N23 ,Cn1 ,v127
 .byte   N23 ,As1 ,v127
 .byte   W24
 .byte   N11 ,Fs1 ,v127
 .byte   W12
 .byte   N11 ,Fs1 ,v127
 .byte   W12
 .byte   N23 ,Dn1 ,v127
 .byte   N23 ,En1 ,v127
 .byte   N23 ,As1 ,v127
 .byte   W24
 .byte   N11 ,Cn1 ,v127
 .byte   N11 ,Cn1 ,v127
 .byte   N11 ,Fs1 ,v127
 .byte   W12
 .byte   N11 ,Fs1 ,v127
 .byte   W12
@  #04 @389   ----------------------------------------
 .byte   N23 ,Cn1 ,v127
 .byte   N23 ,Cn1 ,v127
 .byte   N23 ,As1 ,v127
 .byte   W24
 .byte   N11 ,Fs1 ,v127
 .byte   W12
 .byte   N11 ,Fs1 ,v127
 .byte   W12
 .byte   N23 ,Dn1 ,v127
 .byte   N23 ,En1 ,v127
 .byte   N23 ,As1 ,v127
 .byte   W24
 .byte   N23 ,Cn1 ,v127
 .byte   N23 ,Cn1 ,v127
 .byte   N11 ,Fs1 ,v127
 .byte   W12
 .byte   N11 ,Fs1 ,v127
 .byte   W12
@  #04 @390   ----------------------------------------
 .byte   VOICE , 124
 .byte   VOL , 50*song04_mvl/mxv
 .byte   MODT 1
 .byte   N23 ,Cn1 ,v127
 .byte   N23 ,Cn1 ,v127
 .byte   N23 ,As1 ,v127
 .byte   W24
 .byte   N11 ,Fs1 ,v127
 .byte   W12
 .byte   N11 ,Fs1 ,v127
 .byte   W12
 .byte   N23 ,Dn1 ,v127
 .byte   N23 ,En1 ,v127
 .byte   N23 ,As1 ,v127
 .byte   W24
 .byte   N11 ,Cn1 ,v127
 .byte   N11 ,Cn1 ,v127
 .byte   N11 ,Fs1 ,v127
 .byte   W12
 .byte   N11 ,Fs1 ,v127
 .byte   W12
@  #04 @391   ----------------------------------------
 .byte   N23 ,Cn1 ,v127
 .byte   N23 ,Cn1 ,v127
 .byte   N23 ,As1 ,v127
 .byte   W24
 .byte   N11 ,Fs1 ,v127
 .byte   W12
 .byte   N11 ,Fs1 ,v127
 .byte   W12
 .byte   N11 ,Dn1 ,v127
 .byte   N11 ,En1 ,v127
 .byte   N11 ,As1 ,v127
 .byte   W12
 .byte   N11 ,Dn1 ,v127
 .byte   N11 ,En1 ,v127
 .byte   W12
 .byte   N23 ,Cn1 ,v127
 .byte   N23 ,Cn1 ,v127
 .byte   N11 ,Dn1 ,v127
 .byte   N11 ,En1 ,v127
 .byte   N11 ,Fs1 ,v127
 .byte   W12
 .byte   N11 ,Dn1 ,v127
 .byte   N11 ,En1 ,v127
 .byte   N11 ,Fs1 ,v127
 .byte   W12
@  #04 @392   ----------------------------------------
 .byte   VOICE , 124
 .byte   VOL , 50*song04_mvl/mxv
 .byte   MODT 1
 .byte   N23 ,Cn1 ,v127
 .byte   N23 ,Cn1 ,v127
 .byte   N23 ,As1 ,v127
 .byte   N23 ,An2 ,v127
 .byte   W24
 .byte   N11 ,Cn1 ,v127
 .byte   N11 ,Cn1 ,v127
 .byte   N11 ,Fs1 ,v127
 .byte   W12
 .byte   N11 ,Fs1 ,v127
 .byte   W12
 .byte   N23 ,Dn1 ,v127
 .byte   N23 ,En1 ,v127
 .byte   N23 ,As1 ,v127
 .byte   N23 ,Bn1 ,v127
 .byte   N23 ,Cn2 ,v127
 .byte   N23 ,Dn2 ,v127
 .byte   W24
 .byte   N11 ,Fs1 ,v127
 .byte   W12
 .byte   N11 ,Fs1 ,v127
 .byte   W12
@  #04 @393   ----------------------------------------
 .byte   N23 ,Cn1 ,v127
 .byte   N23 ,Cn1 ,v127
 .byte   N23 ,As1 ,v127
 .byte   W24
 .byte   N11 ,Cn1 ,v127
 .byte   N11 ,Cn1 ,v127
 .byte   N11 ,Fs1 ,v127
 .byte   W12
 .byte   N11 ,Fs1 ,v127
 .byte   W12
 .byte   N11 ,Dn1 ,v127
 .byte   N11 ,En1 ,v127
 .byte   N11 ,As1 ,v127
 .byte   N11 ,Bn1 ,v127
 .byte   N11 ,Cn2 ,v127
 .byte   N11 ,Dn2 ,v127
 .byte   W12
 .byte   N11 ,Cn1 ,v127
 .byte   N11 ,Cn1 ,v127
 .byte   W12
 .byte   N11 ,Fs1 ,v127
 .byte   W12
 .byte   N11 ,Fs1 ,v127
 .byte   W12
@  #04 @394   ----------------------------------------
 .byte   VOICE , 124
 .byte   VOL , 50*song04_mvl/mxv
 .byte   MODT 1
 .byte   N23 ,Cn1 ,v127
 .byte   N23 ,Cn1 ,v127
 .byte   N23 ,As1 ,v127
 .byte   N23 ,An2 ,v127
 .byte   W24
 .byte   N11 ,Cn1 ,v127
 .byte   N11 ,Cn1 ,v127
 .byte   N11 ,Fs1 ,v127
 .byte   W12
 .byte   N11 ,Fs1 ,v127
 .byte   W12
 .byte   N23 ,Dn1 ,v127
 .byte   N23 ,En1 ,v127
 .byte   N23 ,As1 ,v127
 .byte   N23 ,Bn1 ,v127
 .byte   N23 ,Cn2 ,v127
 .byte   N23 ,Dn2 ,v127
 .byte   W24
 .byte   N11 ,Fs1 ,v127
 .byte   W12
 .byte   N11 ,Fs1 ,v127
 .byte   W12
@  #04 @395   ----------------------------------------
 .byte   N23 ,Cn1 ,v127
 .byte   N23 ,Cn1 ,v127
 .byte   N23 ,As1 ,v127
 .byte   W24
 .byte   N11 ,Cn1 ,v127
 .byte   N11 ,Cn1 ,v127
 .byte   N11 ,Fs1 ,v127
 .byte   W12
 .byte   N11 ,Fs1 ,v127
 .byte   W12
 .byte   N11 ,Dn1 ,v127
 .byte   N11 ,En1 ,v127
 .byte   N11 ,As1 ,v127
 .byte   N11 ,Bn1 ,v127
 .byte   N11 ,Cn2 ,v127
 .byte   N11 ,Dn2 ,v127
 .byte   W12
 .byte   N11 ,Cn1 ,v127
 .byte   N11 ,Cn1 ,v127
 .byte   W12
 .byte   N11 ,Fs1 ,v127
 .byte   W12
 .byte   N11 ,Fs1 ,v127
 .byte   W12
@  #04 @396   ----------------------------------------
 .byte   VOICE , 124
 .byte   VOL , 50*song04_mvl/mxv
 .byte   MODT 1
 .byte   N23 ,Cn1 ,v127
 .byte   N23 ,Cn1 ,v127
 .byte   N23 ,As1 ,v127
 .byte   N23 ,An2 ,v127
 .byte   W24
 .byte   N11 ,Cn1 ,v127
 .byte   N11 ,Cn1 ,v127
 .byte   N11 ,Fs1 ,v127
 .byte   W12
 .byte   N11 ,Fs1 ,v127
 .byte   W12
 .byte   N23 ,Dn1 ,v127
 .byte   N23 ,En1 ,v127
 .byte   N23 ,As1 ,v127
 .byte   N23 ,Bn1 ,v127
 .byte   N23 ,Cn2 ,v127
 .byte   N23 ,Dn2 ,v127
 .byte   W24
 .byte   N11 ,Fs1 ,v127
 .byte   W12
 .byte   N11 ,Fs1 ,v127
 .byte   W12
@  #04 @397   ----------------------------------------
 .byte   N23 ,Cn1 ,v127
 .byte   N23 ,Cn1 ,v127
 .byte   N23 ,As1 ,v127
 .byte   W24
 .byte   N11 ,Cn1 ,v127
 .byte   N11 ,Cn1 ,v127
 .byte   N11 ,Fs1 ,v127
 .byte   W12
 .byte   N11 ,Fs1 ,v127
 .byte   W12
 .byte   N11 ,Dn1 ,v127
 .byte   N11 ,En1 ,v127
 .byte   N11 ,As1 ,v127
 .byte   N11 ,Bn1 ,v127
 .byte   N11 ,Cn2 ,v127
 .byte   N11 ,Dn2 ,v127
 .byte   W12
 .byte   N11 ,Cn1 ,v127
 .byte   N11 ,Cn1 ,v127
 .byte   W12
 .byte   N11 ,Fs1 ,v127
 .byte   W12
 .byte   N11 ,Fs1 ,v127
 .byte   W12
@  #04 @398   ----------------------------------------
 .byte   VOICE , 124
 .byte   VOL , 50*song04_mvl/mxv
 .byte   MODT 1
 .byte   N23 ,Cn1 ,v127
 .byte   N23 ,Cn1 ,v127
 .byte   N23 ,As1 ,v127
 .byte   N23 ,An2 ,v127
 .byte   W24
 .byte   N11 ,Cn1 ,v127
 .byte   N11 ,Cn1 ,v127
 .byte   N11 ,Fs1 ,v127
 .byte   W12
 .byte   N11 ,Fs1 ,v127
 .byte   W12
 .byte   N23 ,Dn1 ,v127
 .byte   N23 ,En1 ,v127
 .byte   N23 ,As1 ,v127
 .byte   N23 ,Bn1 ,v127
 .byte   N23 ,Cn2 ,v127
 .byte   N23 ,Dn2 ,v127
 .byte   W24
 .byte   N11 ,Fs1 ,v127
 .byte   W12
 .byte   N11 ,Fs1 ,v127
 .byte   W12
@  #04 @399   ----------------------------------------
 .byte   N23 ,Cn1 ,v127
 .byte   N23 ,Cn1 ,v127
 .byte   N23 ,As1 ,v127
 .byte   W24
 .byte   N11 ,Cn1 ,v127
 .byte   N11 ,Cn1 ,v127
 .byte   N11 ,Fs1 ,v127
 .byte   W12
 .byte   N11 ,Fs1 ,v127
 .byte   W12
 .byte   N11 ,Dn1 ,v127
 .byte   N11 ,En1 ,v127
 .byte   N11 ,As1 ,v127
 .byte   N11 ,Bn1 ,v127
 .byte   N11 ,Cn2 ,v127
 .byte   N11 ,Dn2 ,v127
 .byte   W12
 .byte   N11 ,Cn1 ,v127
 .byte   N11 ,Cn1 ,v127
 .byte   W12
 .byte   N11 ,Fs1 ,v127
 .byte   W12
 .byte   N11 ,Fs1 ,v127
 .byte   W12
@  #04 @400   ----------------------------------------
 .byte   VOICE , 124
 .byte   VOL , 50*song04_mvl/mxv
 .byte   MODT 1
 .byte   N23 ,Cn1 ,v127
 .byte   N23 ,Cn1 ,v127
 .byte   N23 ,As1 ,v127
 .byte   N23 ,An2 ,v127
 .byte   W24
 .byte   N11 ,Cn1 ,v127
 .byte   N11 ,Cn1 ,v127
 .byte   N11 ,Fs1 ,v127
 .byte   W12
 .byte   N11 ,Fs1 ,v127
 .byte   W12
 .byte   N23 ,Dn1 ,v127
 .byte   N23 ,En1 ,v127
 .byte   N23 ,As1 ,v127
 .byte   N23 ,Bn1 ,v127
 .byte   N23 ,Cn2 ,v127
 .byte   N23 ,Dn2 ,v127
 .byte   W24
 .byte   N11 ,Fs1 ,v127
 .byte   W12
 .byte   N11 ,Fs1 ,v127
 .byte   W12
@  #04 @401   ----------------------------------------
 .byte   N23 ,Cn1 ,v127
 .byte   N23 ,Cn1 ,v127
 .byte   N23 ,As1 ,v127
 .byte   W24
 .byte   N11 ,Cn1 ,v127
 .byte   N11 ,Cn1 ,v127
 .byte   N11 ,Fs1 ,v127
 .byte   W12
 .byte   N11 ,Fs1 ,v127
 .byte   W12
 .byte   N11 ,Dn1 ,v127
 .byte   N11 ,En1 ,v127
 .byte   N11 ,As1 ,v127
 .byte   N11 ,Bn1 ,v127
 .byte   N11 ,Cn2 ,v127
 .byte   N11 ,Dn2 ,v127
 .byte   W12
 .byte   N11 ,Cn1 ,v127
 .byte   N11 ,Cn1 ,v127
 .byte   W12
 .byte   N11 ,Fs1 ,v127
 .byte   W12
 .byte   N11 ,Fs1 ,v127
 .byte   W12
@  #04 @402   ----------------------------------------
 .byte   VOICE , 124
 .byte   VOL , 50*song04_mvl/mxv
 .byte   MODT 1
 .byte   N23 ,Cn1 ,v127
 .byte   N23 ,Cn1 ,v127
 .byte   N23 ,As1 ,v127
 .byte   N23 ,An2 ,v127
 .byte   W24
 .byte   N11 ,Cn1 ,v127
 .byte   N11 ,Cn1 ,v127
 .byte   N11 ,Fs1 ,v127
 .byte   W12
 .byte   N11 ,Fs1 ,v127
 .byte   W12
 .byte   N23 ,Dn1 ,v127
 .byte   N23 ,En1 ,v127
 .byte   N23 ,As1 ,v127
 .byte   N23 ,Bn1 ,v127
 .byte   N23 ,Cn2 ,v127
 .byte   N23 ,Dn2 ,v127
 .byte   W24
 .byte   N11 ,Fs1 ,v127
 .byte   W12
 .byte   N11 ,Fs1 ,v127
 .byte   W12
@  #04 @403   ----------------------------------------
 .byte   N23 ,Cn1 ,v127
 .byte   N23 ,Cn1 ,v127
 .byte   N23 ,As1 ,v127
 .byte   W24
 .byte   N11 ,Cn1 ,v127
 .byte   N11 ,Cn1 ,v127
 .byte   N11 ,Fs1 ,v127
 .byte   W12
 .byte   N11 ,Fs1 ,v127
 .byte   W12
 .byte   N11 ,Dn1 ,v127
 .byte   N11 ,En1 ,v127
 .byte   N11 ,As1 ,v127
 .byte   N11 ,Bn1 ,v127
 .byte   N11 ,Cn2 ,v127
 .byte   N11 ,Dn2 ,v127
 .byte   W12
 .byte   N11 ,Cn1 ,v127
 .byte   N11 ,Cn1 ,v127
 .byte   W12
 .byte   N11 ,Fs1 ,v127
 .byte   W12
 .byte   N11 ,Fs1 ,v127
 .byte   W12
@  #04 @404   ----------------------------------------
 .byte   VOICE , 124
 .byte   VOL , 50*song04_mvl/mxv
 .byte   MODT 1
 .byte   N23 ,Cn1 ,v127
 .byte   N23 ,Cn1 ,v127
 .byte   N23 ,As1 ,v127
 .byte   N23 ,An2 ,v127
 .byte   W24
 .byte   N11 ,Cn1 ,v127
 .byte   N11 ,Cn1 ,v127
 .byte   N11 ,Fs1 ,v127
 .byte   W12
 .byte   N11 ,Fs1 ,v127
 .byte   W12
 .byte   N23 ,Dn1 ,v127
 .byte   N23 ,En1 ,v127
 .byte   N23 ,As1 ,v127
 .byte   N23 ,Bn1 ,v127
 .byte   N23 ,Cn2 ,v127
 .byte   N23 ,Dn2 ,v127
 .byte   W24
 .byte   N11 ,Fs1 ,v127
 .byte   W12
 .byte   N11 ,Fs1 ,v127
 .byte   W12
@  #04 @405   ----------------------------------------
 .byte   N23 ,Cn1 ,v127
 .byte   N23 ,Cn1 ,v127
 .byte   N23 ,As1 ,v127
 .byte   W24
 .byte   N11 ,Cn1 ,v127
 .byte   N11 ,Cn1 ,v127
 .byte   N11 ,Fs1 ,v127
 .byte   W12
 .byte   N11 ,Fs1 ,v127
 .byte   W12
 .byte   N11 ,Dn1 ,v127
 .byte   N11 ,En1 ,v127
 .byte   N11 ,As1 ,v127
 .byte   N11 ,Bn1 ,v127
 .byte   N11 ,Cn2 ,v127
 .byte   N11 ,Dn2 ,v127
 .byte   W12
 .byte   N11 ,Cn1 ,v127
 .byte   N11 ,Cn1 ,v127
 .byte   W12
 .byte   N11 ,Fs1 ,v127
 .byte   W12
 .byte   N11 ,Fs1 ,v127
 .byte   W12
@  #04 @406   ----------------------------------------
 .byte   VOICE , 124
 .byte   VOL , 50*song04_mvl/mxv
 .byte   MODT 1
 .byte   N23 ,Cn1 ,v127
 .byte   N23 ,Cn1 ,v127
 .byte   N23 ,As1 ,v127
 .byte   N23 ,An2 ,v127
 .byte   W24
 .byte   N11 ,Cn1 ,v127
 .byte   N11 ,Cn1 ,v127
 .byte   N11 ,Fs1 ,v127
 .byte   W12
 .byte   N11 ,Fs1 ,v127
 .byte   W12
 .byte   N23 ,Dn1 ,v127
 .byte   N23 ,En1 ,v127
 .byte   N23 ,As1 ,v127
 .byte   N23 ,Bn1 ,v127
 .byte   N23 ,Cn2 ,v127
 .byte   N23 ,Dn2 ,v127
 .byte   W24
 .byte   N11 ,Fs1 ,v127
 .byte   W12
 .byte   N11 ,Fs1 ,v127
 .byte   W12
@  #04 @407   ----------------------------------------
 .byte   N23 ,Cn1 ,v127
 .byte   N23 ,Cn1 ,v127
 .byte   N23 ,As1 ,v127
 .byte   W24
 .byte   N11 ,Cn1 ,v127
 .byte   N11 ,Cn1 ,v127
 .byte   N11 ,Fs1 ,v127
 .byte   W12
 .byte   N11 ,Fs1 ,v127
 .byte   W12
 .byte   N11 ,Dn1 ,v127
 .byte   N11 ,En1 ,v127
 .byte   N11 ,As1 ,v127
 .byte   N11 ,Bn1 ,v127
 .byte   N11 ,Cn2 ,v127
 .byte   N11 ,Dn2 ,v127
 .byte   W12
 .byte   N11 ,Cn1 ,v127
 .byte   N11 ,Cn1 ,v127
 .byte   N11 ,Dn1 ,v127
 .byte   N11 ,En1 ,v127
 .byte   W12
 .byte   N11 ,Dn1 ,v127
 .byte   N11 ,En1 ,v127
 .byte   N11 ,Fs1 ,v127
 .byte   W12
 .byte   N11 ,Dn1 ,v127
 .byte   N11 ,En1 ,v127
 .byte   N11 ,Fs1 ,v127
 .byte   W12
@  #04 @408   ----------------------------------------
 .byte   VOICE , 124
 .byte   VOL , 50*song04_mvl/mxv
 .byte   MODT 1
 .byte   N23 ,Cn1 ,v127
 .byte   N23 ,Cn1 ,v127
 .byte   N23 ,Fs1 ,v127
 .byte   N23 ,An2 ,v127
 .byte   W24
 .byte   N23 ,Fs1 ,v127
 .byte   W24
 .byte   N23 ,Gs1 ,v127
 .byte   W24
 .byte   N23 ,Cn1 ,v127
 .byte   N23 ,Cn1 ,v127
 .byte   N23 ,Fs1 ,v127
 .byte   W24
@  #04 @409   ----------------------------------------
 .byte   N23 ,Dn1 ,v127
 .byte   N23 ,En1 ,v127
 .byte   N23 ,As1 ,v127
 .byte   W24
 .byte   N23 ,Gs1 ,v127
 .byte   W24
 .byte   N23 ,Cn1 ,v127
 .byte   N23 ,Cn1 ,v127
 .byte   N23 ,Fs1 ,v127
 .byte   W24
 .byte   N23 ,Gs1 ,v127
 .byte   W24
@  #04 @410   ----------------------------------------
 .byte   VOICE , 124
 .byte   VOL , 50*song04_mvl/mxv
 .byte   MODT 1
 .byte   N23 ,Cn1 ,v127
 .byte   N23 ,Cn1 ,v127
 .byte   N23 ,Fs1 ,v127
 .byte   N23 ,An2 ,v127
 .byte   W24
 .byte   N23 ,Fs1 ,v127
 .byte   W24
 .byte   N23 ,Gs1 ,v127
 .byte   W24
 .byte   N23 ,Cn1 ,v127
 .byte   N23 ,Cn1 ,v127
 .byte   N23 ,Fs1 ,v127
 .byte   W24
@  #04 @411   ----------------------------------------
 .byte   N23 ,Dn1 ,v127
 .byte   N23 ,En1 ,v127
 .byte   N23 ,As1 ,v127
 .byte   W24
 .byte   N23 ,Gs1 ,v127
 .byte   W24
 .byte   N23 ,Cn1 ,v127
 .byte   N23 ,Cn1 ,v127
 .byte   N23 ,Fs1 ,v127
 .byte   W24
 .byte   N23 ,Gs1 ,v127
 .byte   W24
@  #04 @412   ----------------------------------------
 .byte   VOICE , 124
 .byte   VOL , 50*song04_mvl/mxv
 .byte   MODT 1
 .byte   N23 ,Cn1 ,v127
 .byte   N23 ,Cn1 ,v127
 .byte   N23 ,Fs1 ,v127
 .byte   N23 ,An2 ,v127
 .byte   W24
 .byte   N23 ,Fs1 ,v127
 .byte   W24
 .byte   N23 ,Gs1 ,v127
 .byte   W24
 .byte   N23 ,Cn1 ,v127
 .byte   N23 ,Cn1 ,v127
 .byte   N23 ,Fs1 ,v127
 .byte   W24
@  #04 @413   ----------------------------------------
 .byte   N23 ,Dn1 ,v127
 .byte   N23 ,En1 ,v127
 .byte   N23 ,As1 ,v127
 .byte   W24
 .byte   N23 ,Gs1 ,v127
 .byte   W24
 .byte   N23 ,Cn1 ,v127
 .byte   N23 ,Cn1 ,v127
 .byte   N23 ,Fs1 ,v127
 .byte   W24
 .byte   N23 ,Gs1 ,v127
 .byte   W24
@  #04 @414   ----------------------------------------
 .byte   VOICE , 124
 .byte   VOL , 50*song04_mvl/mxv
 .byte   MODT 1
 .byte   N23 ,En1 ,v127
 .byte   N23 ,An2 ,v127
 .byte   W24
 .byte   N23 ,Cn1 ,v127
 .byte   N23 ,Cn1 ,v127
 .byte   W24
 .byte   N23 ,En1 ,v127
 .byte   N23 ,An2 ,v127
 .byte   W24
 .byte   N23 ,Cn1 ,v127
 .byte   N23 ,Cn1 ,v127
 .byte   W24
@  #04 @415   ----------------------------------------
 .byte   N23 ,En1 ,v127
 .byte   N23 ,An2 ,v127
 .byte   W24
 .byte   N23 ,Cn1 ,v127
 .byte   N23 ,Cn1 ,v127
 .byte   W24
 .byte   N11 ,En1 ,v127
 .byte   N11 ,Dn2 ,v127
 .byte   W12
 .byte   N11 ,En1 ,v127
 .byte   N11 ,Cn2 ,v127
 .byte   W12
 .byte   N11 ,En1 ,v127
 .byte   N11 ,Bn1 ,v127
 .byte   W12
 .byte   N11 ,En1 ,v127
 .byte   N11 ,An1 ,v127
 .byte   W12
@  #04 @416   ----------------------------------------
 .byte   VOICE , 124
 .byte   VOL , 50*song04_mvl/mxv
 .byte   MODT 1
 .byte   N40 ,An1 ,v127
 .byte   N40 ,Bn1 ,v127
 .byte   N40 ,Cn2 ,v127
 .byte   N40 ,Dn2 ,v127
 .byte   N40 ,An2 ,v127
 .byte   W48
 .byte   N11 ,Cn1 ,v127
 .byte   N11 ,Dn2 ,v127
 .byte   N11 ,An2 ,v127
 .byte   W12
 .byte   N11 ,Cn2 ,v127
 .byte   W12
 .byte   N11 ,Bn1 ,v127
 .byte   W12
 .byte   N11 ,An1 ,v127
 .byte   W12
@  #04 @417   ----------------------------------------
 .byte   N40 ,An1 ,v127
 .byte   N40 ,Bn1 ,v127
 .byte   N40 ,Cn2 ,v127
 .byte   N40 ,Dn2 ,v127
 .byte   N40 ,An2 ,v127
 .byte   W48
 .byte   N11 ,Cn1 ,v127
 .byte   N11 ,Dn2 ,v127
 .byte   N11 ,An2 ,v127
 .byte   W12
 .byte   N11 ,Cn2 ,v127
 .byte   W12
 .byte   N11 ,Bn1 ,v127
 .byte   W12
 .byte   N11 ,An1 ,v127
 .byte   W12
@  #04 @418   ----------------------------------------
 .byte   VOICE , 124
 .byte   VOL , 50*song04_mvl/mxv
 .byte   MODT 1
 .byte   N30 ,Cn1 ,v127 ,gtp1
 .byte   N30 ,Dn2 ,v127 ,gtp1
 .byte   N30 ,An2 ,v127 ,gtp1
 .byte   W32
 .byte   N30 ,Cn1 ,v127 ,gtp1
 .byte   N30 ,Dn2 ,v127 ,gtp1
 .byte   N30 ,An2 ,v127 ,gtp1
 .byte   W32
 .byte   N30 ,Cn1 ,v127 ,gtp1
 .byte   N30 ,Cn2 ,v127 ,gtp1
 .byte   N30 ,An2 ,v127 ,gtp1
 .byte   W32
@  #04 @419   ----------------------------------------
 .byte   N30 ,Cn1 ,v127 ,gtp1
 .byte   N30 ,En1 ,v127 ,gtp1
 .byte   N30 ,Bn1 ,v127 ,gtp1
 .byte   N30 ,An2 ,v127 ,gtp1
 .byte   W32
 .byte   N30 ,Cn1 ,v127 ,gtp1
 .byte   N30 ,En1 ,v127 ,gtp1
 .byte   N30 ,Bn1 ,v127 ,gtp1
 .byte   N30 ,An2 ,v127 ,gtp1
 .byte   W32
 .byte   N30 ,Cn1 ,v127 ,gtp1
 .byte   N30 ,En1 ,v127 ,gtp1
 .byte   N30 ,An1 ,v127 ,gtp1
 .byte   N30 ,An2 ,v127 ,gtp1
 .byte   W32
@  #04 @420   ----------------------------------------
 .byte   VOICE , 124
 .byte   VOL , 50*song04_mvl/mxv
 .byte   MODT 1
 .byte   W96
@  #04 @421   ----------------------------------------
 .byte   TIE ,An1 ,v127
 .byte   TIE ,Bn1 ,v127
 .byte   TIE ,Cn2 ,v127
 .byte   TIE ,Dn2 ,v127
 .byte   TIE ,An2 ,v127
 .byte   W96
@  #04 @422   ----------------------------------------
 .byte   VOICE , 124
 .byte   VOL , 50*song04_mvl/mxv
 .byte   MODT 1
 .byte   W36
 .byte   EOT
 .byte   An1
 .byte   EOT
 .byte   Bn1
 .byte   EOT
 .byte   Cn2
 .byte   EOT
 .byte   Dn2
 .byte   EOT
 .byte   An2
 .byte   W36
 .byte   N07 ,En1 ,v127
 .byte   W08
 .byte   N07 ,En1 ,v127
 .byte   W08
 .byte   N07 ,En1 ,v127
 .byte   W08
@  #04 @423   ----------------------------------------
 .byte   TIE ,An1 ,v127
 .byte   TIE ,Bn1 ,v127
 .byte   TIE ,Cn2 ,v127
 .byte   TIE ,Dn2 ,v127
 .byte   TIE ,An2 ,v127
 .byte   W96
@  #04 @424   ----------------------------------------
 .byte   VOICE , 124
 .byte   VOL , 50*song04_mvl/mxv
 .byte   MODT 1
 .byte   W36
 .byte   EOT
 .byte   An1
 .byte   EOT
 .byte   Bn1
 .byte   EOT
 .byte   Cn2
 .byte   EOT
 .byte   Dn2
 .byte   EOT
 .byte   An2
 .byte   W36
 .byte   N07 ,En1 ,v127
 .byte   W08
 .byte   N07 ,En1 ,v127
 .byte   W08
 .byte   N07 ,En1 ,v127
 .byte   W08
@  #04 @425   ----------------------------------------
 .byte   TIE ,An1 ,v127
 .byte   TIE ,Bn1 ,v127
 .byte   TIE ,Cn2 ,v127
 .byte   TIE ,Dn2 ,v127
 .byte   TIE ,An2 ,v127
 .byte   W96
@  #04 @426   ----------------------------------------
 .byte   VOICE , 124
 .byte   VOL , 50*song04_mvl/mxv
 .byte   MODT 1
 .byte   W84
 .byte   EOT
 .byte   An1
 .byte   EOT
 .byte   Bn1
 .byte   EOT
 .byte   Cn2
 .byte   EOT
 .byte   Dn2
 .byte   EOT
 .byte   An2
 .byte   W96
@  #04 @427   ----------------------------------------
 .byte   W12
 .byte   VOICE , 124
 .byte   VOL , 50*song04_mvl/mxv
 .byte   MODT 1
 .byte   W96
@  #04 @428   ----------------------------------------
 .byte   N05 ,Dn2 ,v127
 .byte   W06
 .byte   N05 ,Cn2 ,v127
 .byte   W06
 .byte   N05 ,Bn1 ,v127
 .byte   W06
 .byte   N05 ,An1 ,v127
 .byte   W06
 .byte   N64 ,Cn1 ,v127
 .byte   N64 ,Cn1 ,v127
 .byte   N64 ,Dn1 ,v127
 .byte   N64 ,En1 ,v127
 .byte   N64 ,An1 ,v127
 .byte   N64 ,Bn1 ,v127
 .byte   N64 ,Cn2 ,v127
 .byte   N64 ,Dn2 ,v127
 .byte   N64 ,An2 ,v127
 .byte   W72
@  #04 @429   ----------------------------------------
 .byte   VOICE , 124
 .byte   VOL , 50*song04_mvl/mxv
 .byte   MODT 1
 .byte   GOTO
  .word Label_01008F34
 .byte   FINE

@**************** Track 5 (Midi-Chn.4) ****************@

song04_005:
@  #05 @000   ----------------------------------------
Label_0100DE78:
 .byte   KEYSH , song04_key+0
 .byte   VOICE , 34
 .byte   VOL , 50*song04_mvl/mxv
 .byte   MODT 1
 .byte   VOL , 44*song04_mvl/mxv
 .byte   PAN , c_v+0
 .byte   W96
@  #05 @001   ----------------------------------------
 .byte   TIE ,Cn2 ,v127
 .byte   W96
@  #05 @002   ----------------------------------------
 .byte   W84
 .byte   EOT
 .byte   Cn2
 .byte   W12
@  #05 @003   ----------------------------------------
 .byte   TIE ,Cn2 ,v127
 .byte   W96
@  #05 @004   ----------------------------------------
 .byte   W84
 .byte   EOT
 .byte   Cn2
 .byte   W12
@  #05 @005   ----------------------------------------
 .byte   TIE ,Cn2 ,v127
 .byte   W96
@  #05 @006   ----------------------------------------
 .byte   W84
 .byte   EOT
 .byte   Cn2
 .byte   W12
@  #05 @007   ----------------------------------------
 .byte   N84 ,An1 ,v127
 .byte   W96
@  #05 @008   ----------------------------------------
 .byte   N84 ,Bn1 ,v127
 .byte   W96
@  #05 @009   ----------------------------------------
 .byte   N40 ,Cn2 ,v127
 .byte   W48
 .byte   N40 ,Cn2 ,v127
 .byte   W48
@  #05 @010   ----------------------------------------
 .byte   N40 ,Cn2 ,v127
 .byte   W48
 .byte   N40 ,Cn2 ,v127
 .byte   W48
@  #05 @011   ----------------------------------------
 .byte   N40 ,Cn2 ,v127
 .byte   W48
 .byte   N40 ,Cn2 ,v127
 .byte   W48
@  #05 @012   ----------------------------------------
 .byte   N40 ,Cn2 ,v127
 .byte   W48
 .byte   N40 ,Cn2 ,v127
 .byte   W48
@  #05 @013   ----------------------------------------
 .byte   N40 ,Cn2 ,v127
 .byte   W48
 .byte   N40 ,Cn2 ,v127
 .byte   W48
@  #05 @014   ----------------------------------------
 .byte   N40 ,Cn2 ,v127
 .byte   W48
 .byte   N40 ,Cn2 ,v127
 .byte   W48
@  #05 @015   ----------------------------------------
 .byte   N40 ,Dn2 ,v127
 .byte   W48
 .byte   N40 ,Dn2 ,v127
 .byte   W48
@  #05 @016   ----------------------------------------
 .byte   N40 ,Dn2 ,v127
 .byte   W48
 .byte   N40 ,Dn2 ,v127
 .byte   W48
@  #05 @017   ----------------------------------------
 .byte   TIE ,Fs1 ,v127
 .byte   W96
@  #05 @018   ----------------------------------------
 .byte   W30
 .byte   W01
 .byte   EOT
 .byte   Fs1
 .byte   W01
 .byte   N30 ,Fs2 ,v127 ,gtp1
 .byte   W32
 .byte   N30 ,Fs1 ,v127 ,gtp1
 .byte   W32
@  #05 @019   ----------------------------------------
 .byte   TIE ,Fs1 ,v127
 .byte   W96
@  #05 @020   ----------------------------------------
 .byte   W30
 .byte   W01
 .byte   EOT
 .byte   Fs1
 .byte   W01
 .byte   N30 ,Fs2 ,v127 ,gtp1
 .byte   W32
 .byte   N30 ,Fs1 ,v127 ,gtp1
 .byte   W32
@  #05 @021   ----------------------------------------
 .byte   TIE ,Fs1 ,v127
 .byte   W96
@  #05 @022   ----------------------------------------
 .byte   W30
 .byte   W01
 .byte   EOT
 .byte   Fs1
 .byte   W01
 .byte   N30 ,Fs2 ,v127 ,gtp1
 .byte   W32
 .byte   N30 ,Fs1 ,v127 ,gtp1
 .byte   W32
@  #05 @023   ----------------------------------------
 .byte   TIE ,Fs1 ,v127
 .byte   W96
@  #05 @024   ----------------------------------------
 .byte   W30
 .byte   W01
 .byte   EOT
 .byte   Fs1
 .byte   W01
 .byte   N30 ,Fs2 ,v127 ,gtp1
 .byte   W32
 .byte   N30 ,Fs1 ,v127 ,gtp1
 .byte   W32
@  #05 @025   ----------------------------------------
 .byte   TIE ,Fs1 ,v127
 .byte   W96
@  #05 @026   ----------------------------------------
 .byte   W30
 .byte   W01
 .byte   EOT
 .byte   Fs1
 .byte   W01
 .byte   N30 ,Fs2 ,v127 ,gtp1
 .byte   W32
 .byte   N30 ,Fs1 ,v127 ,gtp1
 .byte   W32
@  #05 @027   ----------------------------------------
 .byte   TIE ,Fs1 ,v127
 .byte   W96
@  #05 @028   ----------------------------------------
 .byte   W30
 .byte   W01
 .byte   EOT
 .byte   Fs1
 .byte   W01
 .byte   N30 ,Fs2 ,v127 ,gtp1
 .byte   W32
 .byte   N30 ,Fs1 ,v127 ,gtp1
 .byte   W32
@  #05 @029   ----------------------------------------
 .byte   TIE ,Fs1 ,v127
 .byte   W96
@  #05 @030   ----------------------------------------
 .byte   W30
 .byte   W01
 .byte   EOT
 .byte   Fs1
 .byte   W01
 .byte   N30 ,Fs2 ,v127 ,gtp1
 .byte   W32
 .byte   N30 ,Fs1 ,v127 ,gtp1
 .byte   W32
@  #05 @031   ----------------------------------------
 .byte   N84 ,Fs1 ,v127
 .byte   W96
@  #05 @032   ----------------------------------------
 .byte   N30 ,An1 ,v127 ,gtp1
 .byte   W32
 .byte   N30 ,Cs2 ,v127 ,gtp1
 .byte   W32
 .byte   N30 ,En2 ,v127 ,gtp1
 .byte   W32
@  #05 @033   ----------------------------------------
 .byte   N40 ,Gn1 ,v127
 .byte   W48
 .byte   N40 ,Gn1 ,v127
 .byte   W48
@  #05 @034   ----------------------------------------
 .byte   N40 ,Gn1 ,v127
 .byte   W48
 .byte   N40 ,Gn1 ,v127
 .byte   W48
@  #05 @035   ----------------------------------------
 .byte   N40 ,Gn1 ,v127
 .byte   W48
 .byte   N40 ,Gn1 ,v127
 .byte   W48
@  #05 @036   ----------------------------------------
 .byte   N40 ,Gn1 ,v127
 .byte   W48
 .byte   N40 ,Gn1 ,v127
 .byte   W48
@  #05 @037   ----------------------------------------
 .byte   N40 ,Gn1 ,v127
 .byte   W48
 .byte   N40 ,Gn1 ,v127
 .byte   W48
@  #05 @038   ----------------------------------------
 .byte   N40 ,Gn1 ,v127
 .byte   W48
 .byte   N40 ,Gn1 ,v127
 .byte   W48
@  #05 @039   ----------------------------------------
 .byte   N40 ,Gn1 ,v127
 .byte   W48
 .byte   N40 ,Gn1 ,v127
 .byte   W48
@  #05 @040   ----------------------------------------
 .byte   N40 ,Gn1 ,v127
 .byte   W48
 .byte   N40 ,Gn1 ,v127
 .byte   W48
@  #05 @041   ----------------------------------------
 .byte   N30 ,Fs1 ,v127 ,gtp1
 .byte   W32
 .byte   N30 ,Fs1 ,v127 ,gtp1
 .byte   W32
 .byte   N30 ,En1 ,v127 ,gtp1
 .byte   W32
@  #05 @042   ----------------------------------------
 .byte   N30 ,Fs1 ,v127 ,gtp1
 .byte   W32
 .byte   N30 ,Fs1 ,v127 ,gtp1
 .byte   W32
 .byte   N30 ,En1 ,v127 ,gtp1
 .byte   W32
@  #05 @043   ----------------------------------------
 .byte   N30 ,Fs1 ,v127 ,gtp1
 .byte   W32
 .byte   N30 ,Fs1 ,v127 ,gtp1
 .byte   W32
 .byte   N30 ,Ds1 ,v127 ,gtp1
 .byte   W32
@  #05 @044   ----------------------------------------
 .byte   N30 ,Fs1 ,v127 ,gtp1
 .byte   W32
 .byte   N30 ,Fs1 ,v127 ,gtp1
 .byte   W32
 .byte   N30 ,Ds1 ,v127 ,gtp1
 .byte   W32
@  #05 @045   ----------------------------------------
 .byte   N30 ,Gn1 ,v127 ,gtp1
 .byte   W32
 .byte   N30 ,Gn1 ,v127 ,gtp1
 .byte   W32
 .byte   N30 ,En1 ,v127 ,gtp1
 .byte   W32
@  #05 @046   ----------------------------------------
 .byte   N30 ,Gn1 ,v127 ,gtp1
 .byte   W32
 .byte   N30 ,Gn1 ,v127 ,gtp1
 .byte   W32
 .byte   N30 ,En1 ,v127 ,gtp1
 .byte   W32
@  #05 @047   ----------------------------------------
 .byte   N30 ,Bn1 ,v127 ,gtp1
 .byte   W32
 .byte   N30 ,Bn2 ,v127 ,gtp1
 .byte   W32
 .byte   N30 ,Bn1 ,v127 ,gtp1
 .byte   W32
@  #05 @048   ----------------------------------------
 .byte   N30 ,Bn1 ,v127 ,gtp1
 .byte   W32
 .byte   N30 ,Bn2 ,v127 ,gtp1
 .byte   W32
 .byte   N30 ,Bn1 ,v127 ,gtp1
 .byte   W32
@  #05 @049   ----------------------------------------
 .byte   N30 ,Fs1 ,v127 ,gtp1
 .byte   W32
 .byte   N30 ,Fs1 ,v127 ,gtp1
 .byte   W32
 .byte   N30 ,En1 ,v127 ,gtp1
 .byte   W32
@  #05 @050   ----------------------------------------
 .byte   N30 ,Fs1 ,v127 ,gtp1
 .byte   W32
 .byte   N30 ,Fs1 ,v127 ,gtp1
 .byte   W32
 .byte   N30 ,En1 ,v127 ,gtp1
 .byte   W32
@  #05 @051   ----------------------------------------
 .byte   N30 ,Fs1 ,v127 ,gtp1
 .byte   W32
 .byte   N30 ,Fs1 ,v127 ,gtp1
 .byte   W32
 .byte   N30 ,Ds1 ,v127 ,gtp1
 .byte   W32
@  #05 @052   ----------------------------------------
 .byte   N30 ,Fs1 ,v127 ,gtp1
 .byte   W32
 .byte   N30 ,Fs1 ,v127 ,gtp1
 .byte   W32
 .byte   N30 ,Ds1 ,v127 ,gtp1
 .byte   W32
@  #05 @053   ----------------------------------------
 .byte   N30 ,Gn1 ,v127 ,gtp1
 .byte   W32
 .byte   N30 ,Gn1 ,v127 ,gtp1
 .byte   W32
 .byte   N30 ,En1 ,v127 ,gtp1
 .byte   W32
@  #05 @054   ----------------------------------------
 .byte   N30 ,Gn1 ,v127 ,gtp1
 .byte   W32
 .byte   N30 ,Gn1 ,v127 ,gtp1
 .byte   W32
 .byte   N30 ,En1 ,v127 ,gtp1
 .byte   W32
@  #05 @055   ----------------------------------------
 .byte   N30 ,Bn1 ,v127 ,gtp1
 .byte   W32
 .byte   N30 ,Bn2 ,v127 ,gtp1
 .byte   W32
 .byte   N30 ,Bn1 ,v127 ,gtp1
 .byte   W32
@  #05 @056   ----------------------------------------
 .byte   N30 ,Bn1 ,v127 ,gtp1
 .byte   W32
 .byte   N30 ,Bn2 ,v127 ,gtp1
 .byte   W32
 .byte   N30 ,Bn1 ,v127 ,gtp1
 .byte   W32
@  #05 @057   ----------------------------------------
 .byte   N30 ,Fs1 ,v127 ,gtp1
 .byte   W32
 .byte   N30 ,Fs1 ,v127 ,gtp1
 .byte   W32
 .byte   N30 ,En1 ,v127 ,gtp1
 .byte   W32
@  #05 @058   ----------------------------------------
 .byte   N30 ,Fs1 ,v127 ,gtp1
 .byte   W32
 .byte   N30 ,Fs1 ,v127 ,gtp1
 .byte   W32
 .byte   N30 ,En1 ,v127 ,gtp1
 .byte   W32
@  #05 @059   ----------------------------------------
 .byte   N30 ,Fs1 ,v127 ,gtp1
 .byte   W32
 .byte   N30 ,Fs1 ,v127 ,gtp1
 .byte   W32
 .byte   N30 ,Ds1 ,v127 ,gtp1
 .byte   W32
@  #05 @060   ----------------------------------------
 .byte   N30 ,Fs1 ,v127 ,gtp1
 .byte   W32
 .byte   N30 ,Fs1 ,v127 ,gtp1
 .byte   W32
 .byte   N30 ,Ds1 ,v127 ,gtp1
 .byte   W32
@  #05 @061   ----------------------------------------
 .byte   N30 ,Gn1 ,v127 ,gtp1
 .byte   W32
 .byte   N30 ,Gn1 ,v127 ,gtp1
 .byte   W32
 .byte   N30 ,En1 ,v127 ,gtp1
 .byte   W32
@  #05 @062   ----------------------------------------
 .byte   N30 ,Gn1 ,v127 ,gtp1
 .byte   W32
 .byte   N30 ,Gn1 ,v127 ,gtp1
 .byte   W32
 .byte   N30 ,En1 ,v127 ,gtp1
 .byte   W32
@  #05 @063   ----------------------------------------
 .byte   N30 ,Bn1 ,v127 ,gtp1
 .byte   W32
 .byte   N30 ,Bn2 ,v127 ,gtp1
 .byte   W32
 .byte   N30 ,Bn1 ,v127 ,gtp1
 .byte   W32
@  #05 @064   ----------------------------------------
 .byte   N30 ,Bn1 ,v127 ,gtp1
 .byte   W32
 .byte   N30 ,Bn2 ,v127 ,gtp1
 .byte   W32
 .byte   N30 ,Bn1 ,v127 ,gtp1
 .byte   W32
@  #05 @065   ----------------------------------------
 .byte   N30 ,Fs1 ,v127 ,gtp1
 .byte   W32
 .byte   N30 ,Fs1 ,v127 ,gtp1
 .byte   W32
 .byte   N30 ,En1 ,v127 ,gtp1
 .byte   W32
@  #05 @066   ----------------------------------------
 .byte   N30 ,Fs1 ,v127 ,gtp1
 .byte   W32
 .byte   N30 ,Fs1 ,v127 ,gtp1
 .byte   W32
 .byte   N30 ,En1 ,v127 ,gtp1
 .byte   W32
@  #05 @067   ----------------------------------------
 .byte   N30 ,Fs1 ,v127 ,gtp1
 .byte   W32
 .byte   N30 ,Fs1 ,v127 ,gtp1
 .byte   W32
 .byte   N30 ,Ds1 ,v127 ,gtp1
 .byte   W32
@  #05 @068   ----------------------------------------
 .byte   N30 ,Fs1 ,v127 ,gtp1
 .byte   W32
 .byte   N30 ,Fs1 ,v127 ,gtp1
 .byte   W32
 .byte   N30 ,Ds1 ,v127 ,gtp1
 .byte   W32
@  #05 @069   ----------------------------------------
 .byte   N30 ,Gn1 ,v127 ,gtp1
 .byte   W32
 .byte   N30 ,Gn1 ,v127 ,gtp1
 .byte   W32
 .byte   N30 ,En1 ,v127 ,gtp1
 .byte   W32
@  #05 @070   ----------------------------------------
 .byte   N30 ,Gn1 ,v127 ,gtp1
 .byte   W32
 .byte   N30 ,Gn1 ,v127 ,gtp1
 .byte   W32
 .byte   N30 ,En1 ,v127 ,gtp1
 .byte   W32
@  #05 @071   ----------------------------------------
 .byte   N30 ,Bn1 ,v127 ,gtp1
 .byte   W32
 .byte   N30 ,Bn2 ,v127 ,gtp1
 .byte   W32
 .byte   N30 ,Bn1 ,v127 ,gtp1
 .byte   W32
@  #05 @072   ----------------------------------------
 .byte   N30 ,Bn1 ,v127 ,gtp1
 .byte   W32
 .byte   N30 ,Bn2 ,v127 ,gtp1
 .byte   W32
 .byte   N30 ,Bn1 ,v127 ,gtp1
 .byte   W32
@  #05 @073   ----------------------------------------
 .byte   N23 ,Cn1 ,v127
 .byte   W24
 .byte   N23 ,Cn2 ,v127
 .byte   W24
 .byte   N23 ,Cn1 ,v127
 .byte   W24
 .byte   N23 ,Cn2 ,v127
 .byte   W24
@  #05 @074   ----------------------------------------
 .byte   N23 ,Cn1 ,v127
 .byte   W24
 .byte   N23 ,Cn2 ,v127
 .byte   W24
 .byte   N23 ,Cn1 ,v127
 .byte   W24
 .byte   N23 ,Cn2 ,v127
 .byte   W24
@  #05 @075   ----------------------------------------
 .byte   N23 ,Dn1 ,v127
 .byte   W24
 .byte   N23 ,Dn2 ,v127
 .byte   W24
 .byte   N23 ,Dn1 ,v127
 .byte   W24
 .byte   N23 ,Dn2 ,v127
 .byte   W24
@  #05 @076   ----------------------------------------
 .byte   N23 ,Dn1 ,v127
 .byte   W24
 .byte   N23 ,Dn2 ,v127
 .byte   W24
 .byte   N23 ,Dn1 ,v127
 .byte   W24
 .byte   N23 ,Dn2 ,v127
 .byte   W24
@  #05 @077   ----------------------------------------
 .byte   N23 ,En1 ,v127
 .byte   W24
 .byte   N23 ,En2 ,v127
 .byte   W24
 .byte   N23 ,En1 ,v127
 .byte   W24
 .byte   N23 ,En2 ,v127
 .byte   W24
@  #05 @078   ----------------------------------------
 .byte   N23 ,En1 ,v127
 .byte   W24
 .byte   N23 ,En2 ,v127
 .byte   W24
 .byte   N23 ,En1 ,v127
 .byte   W24
 .byte   N23 ,En2 ,v127
 .byte   W24
@  #05 @079   ----------------------------------------
 .byte   N23 ,Bn1 ,v127
 .byte   W24
 .byte   N23 ,Bn2 ,v127
 .byte   W24
 .byte   N23 ,Bn1 ,v127
 .byte   W24
 .byte   N23 ,Bn2 ,v127
 .byte   W24
@  #05 @080   ----------------------------------------
 .byte   N23 ,Bn1 ,v127
 .byte   W24
 .byte   N23 ,Bn2 ,v127
 .byte   W24
 .byte   N23 ,Bn1 ,v127
 .byte   W24
 .byte   N23 ,Bn2 ,v127
 .byte   W24
@  #05 @081   ----------------------------------------
 .byte   N23 ,Cn1 ,v127
 .byte   W24
 .byte   N23 ,Cn2 ,v127
 .byte   W24
 .byte   N23 ,Cn1 ,v127
 .byte   W24
 .byte   N23 ,Cn2 ,v127
 .byte   W24
@  #05 @082   ----------------------------------------
 .byte   N23 ,Cn1 ,v127
 .byte   W24
 .byte   N23 ,Cn2 ,v127
 .byte   W24
 .byte   N23 ,Cn1 ,v127
 .byte   W24
 .byte   N23 ,Cn2 ,v127
 .byte   W24
@  #05 @083   ----------------------------------------
 .byte   N23 ,Dn1 ,v127
 .byte   W24
 .byte   N23 ,Dn2 ,v127
 .byte   W24
 .byte   N23 ,Dn1 ,v127
 .byte   W24
 .byte   N23 ,Dn2 ,v127
 .byte   W24
@  #05 @084   ----------------------------------------
 .byte   N23 ,Dn1 ,v127
 .byte   W24
 .byte   N23 ,Dn2 ,v127
 .byte   W24
 .byte   N23 ,Dn1 ,v127
 .byte   W24
 .byte   N23 ,Dn2 ,v127
 .byte   W24
@  #05 @085   ----------------------------------------
 .byte   N23 ,Bn1 ,v127
 .byte   W24
 .byte   N23 ,Bn2 ,v127
 .byte   W24
 .byte   N23 ,Bn1 ,v127
 .byte   W24
 .byte   N23 ,Bn2 ,v127
 .byte   W24
@  #05 @086   ----------------------------------------
 .byte   N23 ,Bn1 ,v127
 .byte   W24
 .byte   N23 ,Bn2 ,v127
 .byte   W24
 .byte   N23 ,Bn1 ,v127
 .byte   W24
 .byte   N23 ,Bn2 ,v127
 .byte   W24
@  #05 @087   ----------------------------------------
 .byte   N23 ,Bn1 ,v127
 .byte   W24
 .byte   N23 ,Bn2 ,v127
 .byte   W24
 .byte   N23 ,Bn1 ,v127
 .byte   W24
 .byte   N23 ,Bn2 ,v127
 .byte   W24
@  #05 @088   ----------------------------------------
 .byte   N23 ,Cn2 ,v127
 .byte   W24
 .byte   N23 ,En2 ,v127
 .byte   W24
 .byte   N23 ,Dn2 ,v127
 .byte   W24
 .byte   N23 ,Fs2 ,v127
 .byte   W24
@  #05 @089   ----------------------------------------
 .byte   N30 ,Fs1 ,v127 ,gtp1
 .byte   W32
 .byte   N30 ,Fs1 ,v127 ,gtp1
 .byte   W32
 .byte   N30 ,En1 ,v127 ,gtp1
 .byte   W32
@  #05 @090   ----------------------------------------
 .byte   N30 ,Fs1 ,v127 ,gtp1
 .byte   W32
 .byte   N30 ,Fs1 ,v127 ,gtp1
 .byte   W32
 .byte   N30 ,En1 ,v127 ,gtp1
 .byte   W32
@  #05 @091   ----------------------------------------
 .byte   N30 ,Fs1 ,v127 ,gtp1
 .byte   W32
 .byte   N30 ,Fs1 ,v127 ,gtp1
 .byte   W32
 .byte   N30 ,Ds1 ,v127 ,gtp1
 .byte   W32
@  #05 @092   ----------------------------------------
 .byte   N30 ,Fs1 ,v127 ,gtp1
 .byte   W32
 .byte   N30 ,Fs1 ,v127 ,gtp1
 .byte   W32
 .byte   N30 ,Ds1 ,v127 ,gtp1
 .byte   W32
@  #05 @093   ----------------------------------------
 .byte   N30 ,Gn1 ,v127 ,gtp1
 .byte   W32
 .byte   N30 ,Gn1 ,v127 ,gtp1
 .byte   W32
 .byte   N30 ,En1 ,v127 ,gtp1
 .byte   W32
@  #05 @094   ----------------------------------------
 .byte   N30 ,Gn1 ,v127 ,gtp1
 .byte   W32
 .byte   N30 ,Gn1 ,v127 ,gtp1
 .byte   W32
 .byte   N30 ,En1 ,v127 ,gtp1
 .byte   W32
@  #05 @095   ----------------------------------------
 .byte   N30 ,Bn1 ,v127 ,gtp1
 .byte   W32
 .byte   N30 ,Bn2 ,v127 ,gtp1
 .byte   W32
 .byte   N30 ,Bn1 ,v127 ,gtp1
 .byte   W32
@  #05 @096   ----------------------------------------
 .byte   N30 ,Bn1 ,v127 ,gtp1
 .byte   W32
 .byte   N30 ,Bn2 ,v127 ,gtp1
 .byte   W32
 .byte   N30 ,Bn1 ,v127 ,gtp1
 .byte   W32
@  #05 @097   ----------------------------------------
 .byte   N30 ,Fs1 ,v127 ,gtp1
 .byte   W32
 .byte   N30 ,Fs1 ,v127 ,gtp1
 .byte   W32
 .byte   N30 ,En1 ,v127 ,gtp1
 .byte   W32
@  #05 @098   ----------------------------------------
 .byte   N30 ,Fs1 ,v127 ,gtp1
 .byte   W32
 .byte   N30 ,Fs1 ,v127 ,gtp1
 .byte   W32
 .byte   N30 ,En1 ,v127 ,gtp1
 .byte   W32
@  #05 @099   ----------------------------------------
 .byte   N30 ,Fs1 ,v127 ,gtp1
 .byte   W32
 .byte   N30 ,Fs1 ,v127 ,gtp1
 .byte   W32
 .byte   N30 ,Ds1 ,v127 ,gtp1
 .byte   W32
@  #05 @100   ----------------------------------------
 .byte   N30 ,Fs1 ,v127 ,gtp1
 .byte   W32
 .byte   N30 ,Fs1 ,v127 ,gtp1
 .byte   W32
 .byte   N30 ,Ds1 ,v127 ,gtp1
 .byte   W32
@  #05 @101   ----------------------------------------
 .byte   N30 ,Gn1 ,v127 ,gtp1
 .byte   W32
 .byte   N30 ,Gn1 ,v127 ,gtp1
 .byte   W32
 .byte   N30 ,En1 ,v127 ,gtp1
 .byte   W32
@  #05 @102   ----------------------------------------
 .byte   N30 ,Gn1 ,v127 ,gtp1
 .byte   W32
 .byte   N30 ,Gn1 ,v127 ,gtp1
 .byte   W32
 .byte   N30 ,En1 ,v127 ,gtp1
 .byte   W32
@  #05 @103   ----------------------------------------
 .byte   N30 ,Bn1 ,v127 ,gtp1
 .byte   W32
 .byte   N30 ,Bn2 ,v127 ,gtp1
 .byte   W32
 .byte   N30 ,Bn1 ,v127 ,gtp1
 .byte   W32
@  #05 @104   ----------------------------------------
 .byte   N30 ,Bn1 ,v127 ,gtp1
 .byte   W32
 .byte   N30 ,Bn2 ,v127 ,gtp1
 .byte   W32
 .byte   N30 ,Bn1 ,v127 ,gtp1
 .byte   W32
@  #05 @105   ----------------------------------------
 .byte   N23 ,Cn1 ,v127
 .byte   W24
 .byte   N23 ,Cn2 ,v127
 .byte   W24
 .byte   N23 ,Cn1 ,v127
 .byte   W24
 .byte   N23 ,Cn2 ,v127
 .byte   W24
@  #05 @106   ----------------------------------------
 .byte   N23 ,Cn1 ,v127
 .byte   W24
 .byte   N23 ,Cn2 ,v127
 .byte   W24
 .byte   N23 ,Cn1 ,v127
 .byte   W24
 .byte   N23 ,Cn2 ,v127
 .byte   W24
@  #05 @107   ----------------------------------------
 .byte   N23 ,Cn1 ,v127
 .byte   W24
 .byte   N23 ,Cn2 ,v127
 .byte   W24
 .byte   N23 ,Cn1 ,v127
 .byte   W24
 .byte   N23 ,Cn2 ,v127
 .byte   W24
@  #05 @108   ----------------------------------------
 .byte   N23 ,Cn1 ,v127
 .byte   W24
 .byte   N23 ,Cn2 ,v127
 .byte   W24
 .byte   N23 ,Cn1 ,v127
 .byte   W24
 .byte   N23 ,Cn2 ,v127
 .byte   W24
@  #05 @109   ----------------------------------------
 .byte   N23 ,Cn1 ,v127
 .byte   W24
 .byte   N23 ,Cn2 ,v127
 .byte   W24
 .byte   N23 ,Cn1 ,v127
 .byte   W24
 .byte   N23 ,Cn2 ,v127
 .byte   W24
@  #05 @110   ----------------------------------------
 .byte   N23 ,Cn1 ,v127
 .byte   W24
 .byte   N23 ,Cn2 ,v127
 .byte   W24
 .byte   N23 ,Cn1 ,v127
 .byte   W24
 .byte   N23 ,Cn2 ,v127
 .byte   W24
@  #05 @111   ----------------------------------------
 .byte   N23 ,En1 ,v127
 .byte   W24
 .byte   N23 ,En2 ,v127
 .byte   W24
 .byte   N23 ,En1 ,v127
 .byte   W24
 .byte   N23 ,En2 ,v127
 .byte   W24
@  #05 @112   ----------------------------------------
 .byte   N23 ,Ds1 ,v127
 .byte   W24
 .byte   N23 ,Ds2 ,v127
 .byte   W24
 .byte   N23 ,Ds1 ,v127
 .byte   W24
 .byte   N23 ,Ds2 ,v127
 .byte   W24
@  #05 @113   ----------------------------------------
 .byte   N23 ,Cn1 ,v127
 .byte   W24
 .byte   N23 ,Cn2 ,v127
 .byte   W24
 .byte   N23 ,Cn1 ,v127
 .byte   W24
 .byte   N23 ,Cn2 ,v127
 .byte   W24
@  #05 @114   ----------------------------------------
 .byte   N23 ,Cn1 ,v127
 .byte   W24
 .byte   N23 ,Cn2 ,v127
 .byte   W24
 .byte   N23 ,Cn1 ,v127
 .byte   W24
 .byte   N23 ,Cn2 ,v127
 .byte   W24
@  #05 @115   ----------------------------------------
 .byte   N23 ,Cn1 ,v127
 .byte   W24
 .byte   N23 ,Cn2 ,v127
 .byte   W24
 .byte   N23 ,Cn1 ,v127
 .byte   W24
 .byte   N23 ,Cn2 ,v127
 .byte   W24
@  #05 @116   ----------------------------------------
 .byte   N23 ,Cn1 ,v127
 .byte   W24
 .byte   N23 ,Cn2 ,v127
 .byte   W24
 .byte   N23 ,Cn1 ,v127
 .byte   W24
 .byte   N23 ,Cn2 ,v127
 .byte   W24
@  #05 @117   ----------------------------------------
 .byte   N23 ,Cn1 ,v127
 .byte   W24
 .byte   N23 ,Cn2 ,v127
 .byte   W24
 .byte   N23 ,Cn1 ,v127
 .byte   W24
 .byte   N23 ,Cn2 ,v127
 .byte   W24
@  #05 @118   ----------------------------------------
 .byte   N23 ,Cn1 ,v127
 .byte   W24
 .byte   N23 ,Cn2 ,v127
 .byte   W24
 .byte   N23 ,Cn1 ,v127
 .byte   W24
 .byte   N23 ,Cn2 ,v127
 .byte   W24
@  #05 @119   ----------------------------------------
 .byte   N23 ,Dn1 ,v127
 .byte   W24
 .byte   N23 ,Dn2 ,v127
 .byte   W24
 .byte   N23 ,Dn1 ,v127
 .byte   W24
 .byte   N23 ,Dn2 ,v127
 .byte   W24
@  #05 @120   ----------------------------------------
 .byte   N23 ,Dn1 ,v127
 .byte   W24
 .byte   N23 ,Dn2 ,v127
 .byte   W24
 .byte   N23 ,Dn1 ,v127
 .byte   W24
 .byte   N23 ,Dn2 ,v127
 .byte   W24
@  #05 @121   ----------------------------------------
 .byte   N23 ,En1 ,v127
 .byte   W24
 .byte   N23 ,En2 ,v127
 .byte   W24
 .byte   N23 ,En1 ,v127
 .byte   W24
 .byte   N23 ,En2 ,v127
 .byte   W24
@  #05 @122   ----------------------------------------
 .byte   N23 ,En1 ,v127
 .byte   W24
 .byte   N23 ,En2 ,v127
 .byte   W24
 .byte   N23 ,En1 ,v127
 .byte   W24
 .byte   N23 ,En2 ,v127
 .byte   W24
@  #05 @123   ----------------------------------------
 .byte   N23 ,Bn0 ,v127
 .byte   W24
 .byte   N23 ,Bn1 ,v127
 .byte   W24
 .byte   N23 ,Bn0 ,v127
 .byte   W24
 .byte   N23 ,Bn1 ,v127
 .byte   W24
@  #05 @124   ----------------------------------------
 .byte   N23 ,Bn0 ,v127
 .byte   W24
 .byte   N23 ,Bn1 ,v127
 .byte   W24
 .byte   N23 ,Bn0 ,v127
 .byte   W24
 .byte   N23 ,Bn1 ,v127
 .byte   W24
@  #05 @125   ----------------------------------------
 .byte   N23 ,Cn1 ,v127
 .byte   W24
 .byte   N23 ,Cn2 ,v127
 .byte   W24
 .byte   N23 ,Cn1 ,v127
 .byte   W24
 .byte   N23 ,Cn2 ,v127
 .byte   W24
@  #05 @126   ----------------------------------------
 .byte   N23 ,Cn1 ,v127
 .byte   W24
 .byte   N23 ,Cn2 ,v127
 .byte   W24
 .byte   N23 ,Cn1 ,v127
 .byte   W24
 .byte   N23 ,Cn2 ,v127
 .byte   W24
@  #05 @127   ----------------------------------------
 .byte   N23 ,An0 ,v127
 .byte   W24
 .byte   N23 ,Cn2 ,v127
 .byte   W24
 .byte   N23 ,An0 ,v127
 .byte   W24
 .byte   N23 ,Cn2 ,v127
 .byte   W24
@  #05 @128   ----------------------------------------
 .byte   N23 ,An0 ,v127
 .byte   W24
 .byte   N23 ,Cn2 ,v127
 .byte   W24
 .byte   N23 ,An0 ,v127
 .byte   W24
 .byte   N23 ,Cn2 ,v127
 .byte   W24
@  #05 @129   ----------------------------------------
 .byte   N23 ,En1 ,v127
 .byte   W24
 .byte   N23 ,En2 ,v127
 .byte   W24
 .byte   N23 ,En1 ,v127
 .byte   W24
 .byte   N23 ,En2 ,v127
 .byte   W24
@  #05 @130   ----------------------------------------
 .byte   N23 ,En1 ,v127
 .byte   W24
 .byte   N23 ,En2 ,v127
 .byte   W24
 .byte   N23 ,En1 ,v127
 .byte   W24
 .byte   N23 ,En2 ,v127
 .byte   W24
@  #05 @131   ----------------------------------------
 .byte   N23 ,Bn0 ,v127
 .byte   W24
 .byte   N23 ,Bn1 ,v127
 .byte   W24
 .byte   N23 ,Bn0 ,v127
 .byte   W24
 .byte   N23 ,Bn1 ,v127
 .byte   W24
@  #05 @132   ----------------------------------------
 .byte   N23 ,Bn0 ,v127
 .byte   W24
 .byte   N23 ,Bn1 ,v127
 .byte   W24
 .byte   N23 ,Bn0 ,v127
 .byte   W24
 .byte   N23 ,Bn1 ,v127
 .byte   W24
@  #05 @133   ----------------------------------------
 .byte   N23 ,Cn1 ,v127
 .byte   W24
 .byte   N23 ,Cn2 ,v127
 .byte   W24
 .byte   N23 ,Cn1 ,v127
 .byte   W24
 .byte   N23 ,Cn2 ,v127
 .byte   W24
@  #05 @134   ----------------------------------------
 .byte   N23 ,Cn1 ,v127
 .byte   W24
 .byte   N23 ,Cn2 ,v127
 .byte   W24
 .byte   N23 ,Cn1 ,v127
 .byte   W24
 .byte   N23 ,Cn2 ,v127
 .byte   W24
@  #05 @135   ----------------------------------------
 .byte   N11 ,Cn1 ,v127
 .byte   W12
 .byte   N11 ,Cn1 ,v127
 .byte   W12
 .byte   N11 ,Cn2 ,v127
 .byte   W12
 .byte   N11 ,Cn2 ,v127
 .byte   W12
 .byte   N11 ,Dn1 ,v127
 .byte   W12
 .byte   N11 ,Dn1 ,v127
 .byte   W12
 .byte   N11 ,Dn2 ,v127
 .byte   W12
 .byte   N11 ,Dn2 ,v127
 .byte   W12
@  #05 @136   ----------------------------------------
 .byte   N11 ,En1 ,v127
 .byte   W12
 .byte   N11 ,En1 ,v127
 .byte   W12
 .byte   N11 ,En2 ,v127
 .byte   W12
 .byte   N11 ,En2 ,v127
 .byte   W12
 .byte   N11 ,Fs1 ,v127
 .byte   W12
 .byte   N11 ,Fs1 ,v127
 .byte   W12
 .byte   N11 ,Fs2 ,v127
 .byte   W12
 .byte   N11 ,Fs2 ,v127
 .byte   W12
@  #05 @137   ----------------------------------------
 .byte   N23 ,Cn1 ,v127
 .byte   W24
 .byte   N23 ,Cn2 ,v127
 .byte   W24
 .byte   N23 ,Cn1 ,v127
 .byte   W24
 .byte   N23 ,Cn2 ,v127
 .byte   W24
@  #05 @138   ----------------------------------------
 .byte   N23 ,Cn1 ,v127
 .byte   W24
 .byte   N23 ,Cn2 ,v127
 .byte   W24
 .byte   N23 ,Cn1 ,v127
 .byte   W24
 .byte   N23 ,Cn2 ,v127
 .byte   W24
@  #05 @139   ----------------------------------------
 .byte   N23 ,Dn1 ,v127
 .byte   W24
 .byte   N23 ,Dn2 ,v127
 .byte   W24
 .byte   N23 ,Dn1 ,v127
 .byte   W24
 .byte   N23 ,Dn2 ,v127
 .byte   W24
@  #05 @140   ----------------------------------------
 .byte   N23 ,Dn1 ,v127
 .byte   W24
 .byte   N23 ,Dn2 ,v127
 .byte   W24
 .byte   N23 ,Dn1 ,v127
 .byte   W24
 .byte   N23 ,Dn2 ,v127
 .byte   W24
@  #05 @141   ----------------------------------------
 .byte   N23 ,En1 ,v127
 .byte   W24
 .byte   N23 ,En2 ,v127
 .byte   W24
 .byte   N23 ,En1 ,v127
 .byte   W24
 .byte   N23 ,En2 ,v127
 .byte   W24
@  #05 @142   ----------------------------------------
 .byte   N23 ,En1 ,v127
 .byte   W24
 .byte   N23 ,En2 ,v127
 .byte   W24
 .byte   N23 ,En1 ,v127
 .byte   W24
 .byte   N23 ,En2 ,v127
 .byte   W24
@  #05 @143   ----------------------------------------
 .byte   N23 ,Bn1 ,v127
 .byte   W24
 .byte   N23 ,Bn2 ,v127
 .byte   W24
 .byte   N23 ,Bn1 ,v127
 .byte   W24
 .byte   N23 ,Bn2 ,v127
 .byte   W24
@  #05 @144   ----------------------------------------
 .byte   N23 ,Bn1 ,v127
 .byte   W24
 .byte   N23 ,Bn2 ,v127
 .byte   W24
 .byte   N23 ,Bn1 ,v127
 .byte   W24
 .byte   N23 ,Bn2 ,v127
 .byte   W24
@  #05 @145   ----------------------------------------
 .byte   N23 ,Cn1 ,v127
 .byte   W24
 .byte   N23 ,Cn2 ,v127
 .byte   W24
 .byte   N23 ,Cn1 ,v127
 .byte   W24
 .byte   N23 ,Cn2 ,v127
 .byte   W24
@  #05 @146   ----------------------------------------
 .byte   N23 ,Cn1 ,v127
 .byte   W24
 .byte   N23 ,Cn2 ,v127
 .byte   W24
 .byte   N23 ,Cn1 ,v127
 .byte   W24
 .byte   N23 ,Cn2 ,v127
 .byte   W24
@  #05 @147   ----------------------------------------
 .byte   N23 ,Dn1 ,v127
 .byte   W24
 .byte   N23 ,Dn2 ,v127
 .byte   W24
 .byte   N23 ,Dn1 ,v127
 .byte   W24
 .byte   N23 ,Dn2 ,v127
 .byte   W24
@  #05 @148   ----------------------------------------
 .byte   N23 ,Dn1 ,v127
 .byte   W24
 .byte   N23 ,Dn2 ,v127
 .byte   W24
 .byte   N23 ,Dn1 ,v127
 .byte   W24
 .byte   N23 ,Dn2 ,v127
 .byte   W24
@  #05 @149   ----------------------------------------
 .byte   N23 ,Bn1 ,v127
 .byte   W24
 .byte   N23 ,Bn2 ,v127
 .byte   W24
 .byte   N23 ,Bn1 ,v127
 .byte   W24
 .byte   N23 ,Bn2 ,v127
 .byte   W24
@  #05 @150   ----------------------------------------
 .byte   N23 ,Bn1 ,v127
 .byte   W24
 .byte   N23 ,Bn2 ,v127
 .byte   W24
 .byte   N23 ,Bn1 ,v127
 .byte   W24
 .byte   N23 ,Bn2 ,v127
 .byte   W24
@  #05 @151   ----------------------------------------
 .byte   N23 ,Bn1 ,v127
 .byte   W24
 .byte   N23 ,Bn2 ,v127
 .byte   W24
 .byte   N23 ,Bn1 ,v127
 .byte   W24
 .byte   N23 ,Bn2 ,v127
 .byte   W24
@  #05 @152   ----------------------------------------
 .byte   N23 ,Cn2 ,v127
 .byte   W24
 .byte   N23 ,En2 ,v127
 .byte   W24
 .byte   N23 ,Dn2 ,v127
 .byte   W24
 .byte   N23 ,Fs2 ,v127
 .byte   W24
@  #05 @153   ----------------------------------------
 .byte   N23 ,Cn1 ,v127
 .byte   W24
 .byte   N23 ,Cn2 ,v127
 .byte   W24
 .byte   N23 ,Cn1 ,v127
 .byte   W24
 .byte   N23 ,Cn2 ,v127
 .byte   W24
@  #05 @154   ----------------------------------------
 .byte   N23 ,Cn1 ,v127
 .byte   W24
 .byte   N23 ,Cn2 ,v127
 .byte   W24
 .byte   N23 ,Cn1 ,v127
 .byte   W24
 .byte   N23 ,Cn2 ,v127
 .byte   W24
@  #05 @155   ----------------------------------------
 .byte   N23 ,Cn1 ,v127
 .byte   W24
 .byte   N23 ,Cn2 ,v127
 .byte   W24
 .byte   N23 ,Cn1 ,v127
 .byte   W24
 .byte   N23 ,Cn2 ,v127
 .byte   W24
@  #05 @156   ----------------------------------------
 .byte   N23 ,Cn1 ,v127
 .byte   W24
 .byte   N23 ,Cn2 ,v127
 .byte   W24
 .byte   N23 ,Cn1 ,v127
 .byte   W24
 .byte   N23 ,Cn2 ,v127
 .byte   W24
@  #05 @157   ----------------------------------------
 .byte   N23 ,Cn1 ,v127
 .byte   W24
 .byte   N23 ,Cn2 ,v127
 .byte   W24
 .byte   N23 ,Cn1 ,v127
 .byte   W24
 .byte   N23 ,Cn2 ,v127
 .byte   W24
@  #05 @158   ----------------------------------------
 .byte   N23 ,Cn1 ,v127
 .byte   W24
 .byte   N23 ,Cn2 ,v127
 .byte   W24
 .byte   N23 ,Cn1 ,v127
 .byte   W24
 .byte   N23 ,Cn2 ,v127
 .byte   W24
@  #05 @159   ----------------------------------------
 .byte   N23 ,En1 ,v127
 .byte   W24
 .byte   N23 ,En2 ,v127
 .byte   W24
 .byte   N23 ,En1 ,v127
 .byte   W24
 .byte   N23 ,En2 ,v127
 .byte   W24
@  #05 @160   ----------------------------------------
 .byte   N23 ,Ds1 ,v127
 .byte   W24
 .byte   N23 ,Ds2 ,v127
 .byte   W24
 .byte   N23 ,Ds1 ,v127
 .byte   W24
 .byte   N23 ,Ds2 ,v127
 .byte   W24
@  #05 @161   ----------------------------------------
 .byte   N23 ,Cn1 ,v127
 .byte   W24
 .byte   N23 ,Cn2 ,v127
 .byte   W24
 .byte   N23 ,Cn1 ,v127
 .byte   W24
 .byte   N23 ,Cn2 ,v127
 .byte   W24
@  #05 @162   ----------------------------------------
 .byte   N23 ,Cn1 ,v127
 .byte   W24
 .byte   N23 ,Cn2 ,v127
 .byte   W24
 .byte   N23 ,Cn1 ,v127
 .byte   W24
 .byte   N23 ,Cn2 ,v127
 .byte   W24
@  #05 @163   ----------------------------------------
 .byte   N23 ,Cn1 ,v127
 .byte   W24
 .byte   N23 ,Cn2 ,v127
 .byte   W24
 .byte   N23 ,Cn1 ,v127
 .byte   W24
 .byte   N23 ,Cn2 ,v127
 .byte   W24
@  #05 @164   ----------------------------------------
 .byte   N23 ,Cn1 ,v127
 .byte   W24
 .byte   N23 ,Cn2 ,v127
 .byte   W24
 .byte   N23 ,Cn1 ,v127
 .byte   W24
 .byte   N23 ,Cn2 ,v127
 .byte   W24
@  #05 @165   ----------------------------------------
 .byte   N23 ,Cn1 ,v127
 .byte   W24
 .byte   N23 ,Cn2 ,v127
 .byte   W24
 .byte   N23 ,Cn1 ,v127
 .byte   W24
 .byte   N23 ,Cn2 ,v127
 .byte   W24
@  #05 @166   ----------------------------------------
 .byte   N23 ,Cn1 ,v127
 .byte   W24
 .byte   N23 ,Cn2 ,v127
 .byte   W24
 .byte   N23 ,Cn1 ,v127
 .byte   W24
 .byte   N23 ,Cn2 ,v127
 .byte   W24
@  #05 @167   ----------------------------------------
 .byte   N23 ,Dn1 ,v127
 .byte   W24
 .byte   N23 ,Dn2 ,v127
 .byte   W24
 .byte   N23 ,Dn1 ,v127
 .byte   W24
 .byte   N23 ,Dn2 ,v127
 .byte   W24
@  #05 @168   ----------------------------------------
 .byte   N23 ,Dn1 ,v127
 .byte   W24
 .byte   N23 ,Dn2 ,v127
 .byte   W24
 .byte   N23 ,Dn1 ,v127
 .byte   W24
 .byte   N23 ,Dn2 ,v127
 .byte   W24
@  #05 @169   ----------------------------------------
 .byte   TIE ,Fs1 ,v127
 .byte   W96
@  #05 @170   ----------------------------------------
 .byte   W30
 .byte   W01
 .byte   EOT
 .byte   Fs1
 .byte   W01
 .byte   N30 ,Fs2 ,v127 ,gtp1
 .byte   W32
 .byte   N30 ,Fs1 ,v127 ,gtp1
 .byte   W32
@  #05 @171   ----------------------------------------
 .byte   TIE ,Fs1 ,v127
 .byte   W96
@  #05 @172   ----------------------------------------
 .byte   W30
 .byte   W01
 .byte   EOT
 .byte   Fs1
 .byte   W01
 .byte   N30 ,Fs2 ,v127 ,gtp1
 .byte   W32
 .byte   N30 ,Fs1 ,v127 ,gtp1
 .byte   W32
@  #05 @173   ----------------------------------------
 .byte   TIE ,Fs1 ,v127
 .byte   W96
@  #05 @174   ----------------------------------------
 .byte   W30
 .byte   W01
 .byte   EOT
 .byte   Fs1
 .byte   W01
 .byte   N30 ,Fs2 ,v127 ,gtp1
 .byte   W32
 .byte   N30 ,Fs1 ,v127 ,gtp1
 .byte   W32
@  #05 @175   ----------------------------------------
 .byte   TIE ,Fs1 ,v127
 .byte   W96
@  #05 @176   ----------------------------------------
 .byte   W30
 .byte   W01
 .byte   EOT
 .byte   Fs1
 .byte   W01
 .byte   N30 ,Fs2 ,v127 ,gtp1
 .byte   W32
 .byte   N30 ,Fs1 ,v127 ,gtp1
 .byte   W32
@  #05 @177   ----------------------------------------
 .byte   TIE ,Fs1 ,v127
 .byte   W96
@  #05 @178   ----------------------------------------
 .byte   W30
 .byte   W01
 .byte   EOT
 .byte   Fs1
 .byte   W01
 .byte   N30 ,Fs2 ,v127 ,gtp1
 .byte   W32
 .byte   N30 ,Fs1 ,v127 ,gtp1
 .byte   W32
@  #05 @179   ----------------------------------------
 .byte   TIE ,Fs1 ,v127
 .byte   W96
@  #05 @180   ----------------------------------------
 .byte   W30
 .byte   W01
 .byte   EOT
 .byte   Fs1
 .byte   W01
 .byte   N30 ,Fs2 ,v127 ,gtp1
 .byte   W32
 .byte   N30 ,Fs1 ,v127 ,gtp1
 .byte   W32
@  #05 @181   ----------------------------------------
 .byte   TIE ,Fs1 ,v127
 .byte   W96
@  #05 @182   ----------------------------------------
 .byte   W30
 .byte   W01
 .byte   EOT
 .byte   Fs1
 .byte   W01
 .byte   N30 ,Fs2 ,v127 ,gtp1
 .byte   W32
 .byte   N30 ,Fs1 ,v127 ,gtp1
 .byte   W32
@  #05 @183   ----------------------------------------
 .byte   N84 ,Fs1 ,v127
 .byte   W96
@  #05 @184   ----------------------------------------
 .byte   N30 ,An1 ,v127 ,gtp1
 .byte   W32
 .byte   N30 ,Cs2 ,v127 ,gtp1
 .byte   W32
 .byte   N30 ,En2 ,v127 ,gtp1
 .byte   W32
@  #05 @185   ----------------------------------------
 .byte   N40 ,Gn1 ,v127
 .byte   W48
 .byte   N40 ,Gn1 ,v127
 .byte   W48
@  #05 @186   ----------------------------------------
 .byte   N40 ,Gn1 ,v127
 .byte   W48
 .byte   N40 ,Gn1 ,v127
 .byte   W48
@  #05 @187   ----------------------------------------
 .byte   N40 ,Gn1 ,v127
 .byte   W48
 .byte   N40 ,Gn1 ,v127
 .byte   W48
@  #05 @188   ----------------------------------------
 .byte   N40 ,Gn1 ,v127
 .byte   W48
 .byte   N40 ,Gn1 ,v127
 .byte   W48
@  #05 @189   ----------------------------------------
 .byte   N40 ,Gn1 ,v127
 .byte   W48
 .byte   N40 ,Gn1 ,v127
 .byte   W48
@  #05 @190   ----------------------------------------
 .byte   N40 ,Gn1 ,v127
 .byte   W48
 .byte   N40 ,Gn1 ,v127
 .byte   W48
@  #05 @191   ----------------------------------------
 .byte   N40 ,Gn1 ,v127
 .byte   W48
 .byte   N40 ,Gn1 ,v127
 .byte   W48
@  #05 @192   ----------------------------------------
 .byte   N40 ,Gn1 ,v127
 .byte   W48
 .byte   N40 ,Gn1 ,v127
 .byte   W48
@  #05 @193   ----------------------------------------
 .byte   N30 ,Fs1 ,v127 ,gtp1
 .byte   W32
 .byte   N30 ,Fs1 ,v127 ,gtp1
 .byte   W32
 .byte   N30 ,En1 ,v127 ,gtp1
 .byte   W32
@  #05 @194   ----------------------------------------
 .byte   N30 ,Fs1 ,v127 ,gtp1
 .byte   W32
 .byte   N30 ,Fs1 ,v127 ,gtp1
 .byte   W32
 .byte   N30 ,En1 ,v127 ,gtp1
 .byte   W32
@  #05 @195   ----------------------------------------
 .byte   N30 ,Fs1 ,v127 ,gtp1
 .byte   W32
 .byte   N30 ,Fs1 ,v127 ,gtp1
 .byte   W32
 .byte   N30 ,Ds1 ,v127 ,gtp1
 .byte   W32
@  #05 @196   ----------------------------------------
 .byte   N30 ,Fs1 ,v127 ,gtp1
 .byte   W32
 .byte   N30 ,Fs1 ,v127 ,gtp1
 .byte   W32
 .byte   N30 ,Ds1 ,v127 ,gtp1
 .byte   W32
@  #05 @197   ----------------------------------------
 .byte   N30 ,Gn1 ,v127 ,gtp1
 .byte   W32
 .byte   N30 ,Gn1 ,v127 ,gtp1
 .byte   W32
 .byte   N30 ,En1 ,v127 ,gtp1
 .byte   W32
@  #05 @198   ----------------------------------------
 .byte   N30 ,Gn1 ,v127 ,gtp1
 .byte   W32
 .byte   N30 ,Gn1 ,v127 ,gtp1
 .byte   W32
 .byte   N30 ,En1 ,v127 ,gtp1
 .byte   W32
@  #05 @199   ----------------------------------------
 .byte   N30 ,Bn1 ,v127 ,gtp1
 .byte   W32
 .byte   N30 ,Bn2 ,v127 ,gtp1
 .byte   W32
 .byte   N30 ,Bn1 ,v127 ,gtp1
 .byte   W32
@  #05 @200   ----------------------------------------
 .byte   N30 ,Bn1 ,v127 ,gtp1
 .byte   W32
 .byte   N30 ,Bn2 ,v127 ,gtp1
 .byte   W32
 .byte   N30 ,Bn1 ,v127 ,gtp1
 .byte   W32
@  #05 @201   ----------------------------------------
 .byte   N30 ,Fs1 ,v127 ,gtp1
 .byte   W32
 .byte   N30 ,Fs1 ,v127 ,gtp1
 .byte   W32
 .byte   N30 ,En1 ,v127 ,gtp1
 .byte   W32
@  #05 @202   ----------------------------------------
 .byte   N30 ,Fs1 ,v127 ,gtp1
 .byte   W32
 .byte   N30 ,Fs1 ,v127 ,gtp1
 .byte   W32
 .byte   N30 ,En1 ,v127 ,gtp1
 .byte   W32
@  #05 @203   ----------------------------------------
 .byte   N30 ,Fs1 ,v127 ,gtp1
 .byte   W32
 .byte   N30 ,Fs1 ,v127 ,gtp1
 .byte   W32
 .byte   N30 ,Ds1 ,v127 ,gtp1
 .byte   W32
@  #05 @204   ----------------------------------------
 .byte   N30 ,Fs1 ,v127 ,gtp1
 .byte   W32
 .byte   N30 ,Fs1 ,v127 ,gtp1
 .byte   W32
 .byte   N30 ,Ds1 ,v127 ,gtp1
 .byte   W32
@  #05 @205   ----------------------------------------
 .byte   N30 ,Gn1 ,v127 ,gtp1
 .byte   W32
 .byte   N30 ,Gn1 ,v127 ,gtp1
 .byte   W32
 .byte   N30 ,En1 ,v127 ,gtp1
 .byte   W32
@  #05 @206   ----------------------------------------
 .byte   N30 ,Gn1 ,v127 ,gtp1
 .byte   W32
 .byte   N30 ,Gn1 ,v127 ,gtp1
 .byte   W32
 .byte   N30 ,En1 ,v127 ,gtp1
 .byte   W32
@  #05 @207   ----------------------------------------
 .byte   N30 ,Bn1 ,v127 ,gtp1
 .byte   W32
 .byte   N30 ,Bn2 ,v127 ,gtp1
 .byte   W32
 .byte   N30 ,Bn1 ,v127 ,gtp1
 .byte   W32
@  #05 @208   ----------------------------------------
 .byte   N30 ,Bn1 ,v127 ,gtp1
 .byte   W32
 .byte   N30 ,Bn2 ,v127 ,gtp1
 .byte   W32
 .byte   N30 ,Bn1 ,v127 ,gtp1
 .byte   W32
@  #05 @209   ----------------------------------------
 .byte   N30 ,Fs1 ,v127 ,gtp1
 .byte   W32
 .byte   N30 ,Fs1 ,v127 ,gtp1
 .byte   W32
 .byte   N30 ,En1 ,v127 ,gtp1
 .byte   W32
@  #05 @210   ----------------------------------------
 .byte   N30 ,Fs1 ,v127 ,gtp1
 .byte   W32
 .byte   N30 ,Fs1 ,v127 ,gtp1
 .byte   W32
 .byte   N30 ,En1 ,v127 ,gtp1
 .byte   W32
@  #05 @211   ----------------------------------------
 .byte   N30 ,Fs1 ,v127 ,gtp1
 .byte   W32
 .byte   N30 ,Fs1 ,v127 ,gtp1
 .byte   W32
 .byte   N30 ,Ds1 ,v127 ,gtp1
 .byte   W32
@  #05 @212   ----------------------------------------
 .byte   N30 ,Fs1 ,v127 ,gtp1
 .byte   W32
 .byte   N30 ,Fs1 ,v127 ,gtp1
 .byte   W32
 .byte   N30 ,Ds1 ,v127 ,gtp1
 .byte   W32
@  #05 @213   ----------------------------------------
 .byte   N30 ,Gn1 ,v127 ,gtp1
 .byte   W32
 .byte   N30 ,Gn1 ,v127 ,gtp1
 .byte   W32
 .byte   N30 ,En1 ,v127 ,gtp1
 .byte   W32
@  #05 @214   ----------------------------------------
 .byte   N30 ,Gn1 ,v127 ,gtp1
 .byte   W32
 .byte   N30 ,Gn1 ,v127 ,gtp1
 .byte   W32
 .byte   N30 ,En1 ,v127 ,gtp1
 .byte   W32
@  #05 @215   ----------------------------------------
 .byte   N30 ,Bn1 ,v127 ,gtp1
 .byte   W32
 .byte   N30 ,Bn2 ,v127 ,gtp1
 .byte   W32
 .byte   N30 ,Bn1 ,v127 ,gtp1
 .byte   W32
@  #05 @216   ----------------------------------------
 .byte   N30 ,Bn1 ,v127 ,gtp1
 .byte   W32
 .byte   N30 ,Bn2 ,v127 ,gtp1
 .byte   W32
 .byte   N30 ,Bn1 ,v127 ,gtp1
 .byte   W32
@  #05 @217   ----------------------------------------
 .byte   N30 ,Fs1 ,v127 ,gtp1
 .byte   W32
 .byte   N30 ,Fs1 ,v127 ,gtp1
 .byte   W32
 .byte   N30 ,En1 ,v127 ,gtp1
 .byte   W32
@  #05 @218   ----------------------------------------
 .byte   N30 ,Fs1 ,v127 ,gtp1
 .byte   W32
 .byte   N30 ,Fs1 ,v127 ,gtp1
 .byte   W32
 .byte   N30 ,En1 ,v127 ,gtp1
 .byte   W32
@  #05 @219   ----------------------------------------
 .byte   N30 ,Fs1 ,v127 ,gtp1
 .byte   W32
 .byte   N30 ,Fs1 ,v127 ,gtp1
 .byte   W32
 .byte   N30 ,Ds1 ,v127 ,gtp1
 .byte   W32
@  #05 @220   ----------------------------------------
 .byte   N30 ,Fs1 ,v127 ,gtp1
 .byte   W32
 .byte   N30 ,Fs1 ,v127 ,gtp1
 .byte   W32
 .byte   N30 ,Ds1 ,v127 ,gtp1
 .byte   W32
@  #05 @221   ----------------------------------------
 .byte   N30 ,Gn1 ,v127 ,gtp1
 .byte   W32
 .byte   N30 ,Gn1 ,v127 ,gtp1
 .byte   W32
 .byte   N30 ,En1 ,v127 ,gtp1
 .byte   W32
@  #05 @222   ----------------------------------------
 .byte   N30 ,Gn1 ,v127 ,gtp1
 .byte   W32
 .byte   N30 ,Gn1 ,v127 ,gtp1
 .byte   W32
 .byte   N30 ,En1 ,v127 ,gtp1
 .byte   W32
@  #05 @223   ----------------------------------------
 .byte   N30 ,Bn1 ,v127 ,gtp1
 .byte   W32
 .byte   N30 ,Bn2 ,v127 ,gtp1
 .byte   W32
 .byte   N30 ,Bn1 ,v127 ,gtp1
 .byte   W32
@  #05 @224   ----------------------------------------
 .byte   N30 ,Bn1 ,v127 ,gtp1
 .byte   W32
 .byte   N30 ,Bn2 ,v127 ,gtp1
 .byte   W32
 .byte   N30 ,Bn1 ,v127 ,gtp1
 .byte   W32
@  #05 @225   ----------------------------------------
 .byte   N23 ,Cn1 ,v127
 .byte   W24
 .byte   N23 ,Cn2 ,v127
 .byte   W24
 .byte   N23 ,Cn1 ,v127
 .byte   W24
 .byte   N23 ,Cn2 ,v127
 .byte   W24
@  #05 @226   ----------------------------------------
 .byte   N23 ,Cn1 ,v127
 .byte   W24
 .byte   N23 ,Cn2 ,v127
 .byte   W24
 .byte   N23 ,Cn1 ,v127
 .byte   W24
 .byte   N23 ,Cn2 ,v127
 .byte   W24
@  #05 @227   ----------------------------------------
 .byte   N23 ,Dn1 ,v127
 .byte   W24
 .byte   N23 ,Dn2 ,v127
 .byte   W24
 .byte   N23 ,Dn1 ,v127
 .byte   W24
 .byte   N23 ,Dn2 ,v127
 .byte   W24
@  #05 @228   ----------------------------------------
 .byte   N23 ,Dn1 ,v127
 .byte   W24
 .byte   N23 ,Dn2 ,v127
 .byte   W24
 .byte   N23 ,Dn1 ,v127
 .byte   W24
 .byte   N23 ,Dn2 ,v127
 .byte   W24
@  #05 @229   ----------------------------------------
 .byte   N23 ,En1 ,v127
 .byte   W24
 .byte   N23 ,En2 ,v127
 .byte   W24
 .byte   N23 ,En1 ,v127
 .byte   W24
 .byte   N23 ,En2 ,v127
 .byte   W24
@  #05 @230   ----------------------------------------
 .byte   N23 ,En1 ,v127
 .byte   W24
 .byte   N23 ,En2 ,v127
 .byte   W24
 .byte   N23 ,En1 ,v127
 .byte   W24
 .byte   N23 ,En2 ,v127
 .byte   W24
@  #05 @231   ----------------------------------------
 .byte   N23 ,Bn1 ,v127
 .byte   W24
 .byte   N23 ,Bn2 ,v127
 .byte   W24
 .byte   N23 ,Bn1 ,v127
 .byte   W24
 .byte   N23 ,Bn2 ,v127
 .byte   W24
@  #05 @232   ----------------------------------------
 .byte   N23 ,Bn1 ,v127
 .byte   W24
 .byte   N23 ,Bn2 ,v127
 .byte   W24
 .byte   N23 ,Bn1 ,v127
 .byte   W24
 .byte   N23 ,Bn2 ,v127
 .byte   W24
@  #05 @233   ----------------------------------------
 .byte   N23 ,Cn1 ,v127
 .byte   W24
 .byte   N23 ,Cn2 ,v127
 .byte   W24
 .byte   N23 ,Cn1 ,v127
 .byte   W24
 .byte   N23 ,Cn2 ,v127
 .byte   W24
@  #05 @234   ----------------------------------------
 .byte   N23 ,Cn1 ,v127
 .byte   W24
 .byte   N23 ,Cn2 ,v127
 .byte   W24
 .byte   N23 ,Cn1 ,v127
 .byte   W24
 .byte   N23 ,Cn2 ,v127
 .byte   W24
@  #05 @235   ----------------------------------------
 .byte   N23 ,Dn1 ,v127
 .byte   W24
 .byte   N23 ,Dn2 ,v127
 .byte   W24
 .byte   N23 ,Dn1 ,v127
 .byte   W24
 .byte   N23 ,Dn2 ,v127
 .byte   W24
@  #05 @236   ----------------------------------------
 .byte   N23 ,Dn1 ,v127
 .byte   W24
 .byte   N23 ,Dn2 ,v127
 .byte   W24
 .byte   N23 ,Dn1 ,v127
 .byte   W24
 .byte   N23 ,Dn2 ,v127
 .byte   W24
@  #05 @237   ----------------------------------------
 .byte   N23 ,Bn1 ,v127
 .byte   W24
 .byte   N23 ,Bn2 ,v127
 .byte   W24
 .byte   N23 ,Bn1 ,v127
 .byte   W24
 .byte   N23 ,Bn2 ,v127
 .byte   W24
@  #05 @238   ----------------------------------------
 .byte   N23 ,Bn1 ,v127
 .byte   W24
 .byte   N23 ,Bn2 ,v127
 .byte   W24
 .byte   N23 ,Bn1 ,v127
 .byte   W24
 .byte   N23 ,Bn2 ,v127
 .byte   W24
@  #05 @239   ----------------------------------------
 .byte   N23 ,Bn1 ,v127
 .byte   W24
 .byte   N23 ,Bn2 ,v127
 .byte   W24
 .byte   N23 ,Bn1 ,v127
 .byte   W24
 .byte   N23 ,Bn2 ,v127
 .byte   W24
@  #05 @240   ----------------------------------------
 .byte   N23 ,Cn2 ,v127
 .byte   W24
 .byte   N23 ,En2 ,v127
 .byte   W24
 .byte   N23 ,Dn2 ,v127
 .byte   W24
 .byte   N23 ,Fs2 ,v127
 .byte   W24
@  #05 @241   ----------------------------------------
 .byte   N84 ,En1 ,v127
 .byte   W96
@  #05 @242   ----------------------------------------
 .byte   N84 ,Bn1 ,v127
 .byte   W96
@  #05 @243   ----------------------------------------
 .byte   N84 ,As1 ,v127
 .byte   W96
@  #05 @244   ----------------------------------------
 .byte   N84 ,Cs2 ,v127
 .byte   W96
@  #05 @245   ----------------------------------------
 .byte   N84 ,En1 ,v127
 .byte   W96
@  #05 @246   ----------------------------------------
 .byte   N84 ,Bn1 ,v127
 .byte   W96
@  #05 @247   ----------------------------------------
 .byte   N84 ,As1 ,v127
 .byte   W96
@  #05 @248   ----------------------------------------
 .byte   N84 ,Fs1 ,v127
 .byte   W96
@  #05 @249   ----------------------------------------
 .byte   N84 ,En1 ,v127
 .byte   W96
@  #05 @250   ----------------------------------------
 .byte   N84 ,Bn1 ,v127
 .byte   W96
@  #05 @251   ----------------------------------------
 .byte   N84 ,As1 ,v127
 .byte   W96
@  #05 @252   ----------------------------------------
 .byte   N84 ,Cs2 ,v127
 .byte   W96
@  #05 @253   ----------------------------------------
 .byte   N84 ,En1 ,v127
 .byte   W96
@  #05 @254   ----------------------------------------
 .byte   N84 ,Bn1 ,v127
 .byte   W96
@  #05 @255   ----------------------------------------
 .byte   N84 ,As1 ,v127
 .byte   W96
@  #05 @256   ----------------------------------------
 .byte   N84 ,Fs1 ,v127
 .byte   W96
@  #05 @257   ----------------------------------------
 .byte   N30 ,En1 ,v127 ,gtp1
 .byte   W32
 .byte   N30 ,Bn1 ,v127 ,gtp1
 .byte   W32
 .byte   N30 ,Gn1 ,v127 ,gtp1
 .byte   W32
@  #05 @258   ----------------------------------------
 .byte   N30 ,En1 ,v127 ,gtp1
 .byte   W32
 .byte   N30 ,Bn1 ,v127 ,gtp1
 .byte   W32
 .byte   N30 ,Gn1 ,v127 ,gtp1
 .byte   W32
@  #05 @259   ----------------------------------------
 .byte   N30 ,En1 ,v127 ,gtp1
 .byte   W32
 .byte   N30 ,Cs2 ,v127 ,gtp1
 .byte   W32
 .byte   N30 ,As1 ,v127 ,gtp1
 .byte   W32
@  #05 @260   ----------------------------------------
 .byte   N30 ,En1 ,v127 ,gtp1
 .byte   W32
 .byte   N30 ,Cs2 ,v127 ,gtp1
 .byte   W32
 .byte   N30 ,As1 ,v127 ,gtp1
 .byte   W32
@  #05 @261   ----------------------------------------
 .byte   N30 ,En1 ,v127 ,gtp1
 .byte   W32
 .byte   N30 ,Bn1 ,v127 ,gtp1
 .byte   W32
 .byte   N30 ,Gn1 ,v127 ,gtp1
 .byte   W32
@  #05 @262   ----------------------------------------
 .byte   N30 ,En1 ,v127 ,gtp1
 .byte   W32
 .byte   N30 ,Bn1 ,v127 ,gtp1
 .byte   W32
 .byte   N30 ,Gn1 ,v127 ,gtp1
 .byte   W32
@  #05 @263   ----------------------------------------
 .byte   N30 ,En1 ,v127 ,gtp1
 .byte   W32
 .byte   N30 ,Cs2 ,v127 ,gtp1
 .byte   W32
 .byte   N30 ,As1 ,v127 ,gtp1
 .byte   W32
@  #05 @264   ----------------------------------------
 .byte   N30 ,En1 ,v127 ,gtp1
 .byte   W32
 .byte   N30 ,Cs2 ,v127 ,gtp1
 .byte   W32
 .byte   N30 ,As1 ,v127 ,gtp1
 .byte   W32
@  #05 @265   ----------------------------------------
 .byte   N30 ,En1 ,v127 ,gtp1
 .byte   W32
 .byte   N30 ,Bn1 ,v127 ,gtp1
 .byte   W32
 .byte   N30 ,Gn1 ,v127 ,gtp1
 .byte   W32
@  #05 @266   ----------------------------------------
 .byte   N30 ,En1 ,v127 ,gtp1
 .byte   W32
 .byte   N30 ,Bn1 ,v127 ,gtp1
 .byte   W32
 .byte   N30 ,Gn1 ,v127 ,gtp1
 .byte   W32
@  #05 @267   ----------------------------------------
 .byte   N30 ,En1 ,v127 ,gtp1
 .byte   W32
 .byte   N30 ,Cs2 ,v127 ,gtp1
 .byte   W32
 .byte   N30 ,As1 ,v127 ,gtp1
 .byte   W32
@  #05 @268   ----------------------------------------
 .byte   N30 ,En1 ,v127 ,gtp1
 .byte   W32
 .byte   N30 ,Cs2 ,v127 ,gtp1
 .byte   W32
 .byte   N30 ,As1 ,v127 ,gtp1
 .byte   W32
@  #05 @269   ----------------------------------------
 .byte   N30 ,En1 ,v127 ,gtp1
 .byte   W32
 .byte   N30 ,Bn1 ,v127 ,gtp1
 .byte   W32
 .byte   N30 ,Gn1 ,v127 ,gtp1
 .byte   W32
@  #05 @270   ----------------------------------------
 .byte   N30 ,En1 ,v127 ,gtp1
 .byte   W32
 .byte   N30 ,Bn1 ,v127 ,gtp1
 .byte   W32
 .byte   N30 ,Gn1 ,v127 ,gtp1
 .byte   W32
@  #05 @271   ----------------------------------------
 .byte   N30 ,En1 ,v127 ,gtp1
 .byte   W32
 .byte   N30 ,Cs2 ,v127 ,gtp1
 .byte   W32
 .byte   N30 ,As1 ,v127 ,gtp1
 .byte   W32
@  #05 @272   ----------------------------------------
 .byte   N30 ,En1 ,v127 ,gtp1
 .byte   W32
 .byte   N30 ,Cs2 ,v127 ,gtp1
 .byte   W32
 .byte   N30 ,As1 ,v127 ,gtp1
 .byte   W32
@  #05 @273   ----------------------------------------
 .byte   N23 ,Dn2 ,v127
 .byte   W24
 .byte   N23 ,An1 ,v127
 .byte   W24
 .byte   N23 ,Dn2 ,v127
 .byte   W24
 .byte   N23 ,An1 ,v127
 .byte   W24
@  #05 @274   ----------------------------------------
 .byte   N23 ,Dn2 ,v127
 .byte   W24
 .byte   N23 ,An1 ,v127
 .byte   W24
 .byte   N23 ,Dn2 ,v127
 .byte   W24
 .byte   N23 ,An1 ,v127
 .byte   W24
@  #05 @275   ----------------------------------------
 .byte   N23 ,Dn2 ,v127
 .byte   W24
 .byte   N23 ,An1 ,v127
 .byte   W24
 .byte   N23 ,Dn2 ,v127
 .byte   W24
 .byte   N23 ,An1 ,v127
 .byte   W24
@  #05 @276   ----------------------------------------
 .byte   N23 ,Dn2 ,v127
 .byte   W24
 .byte   N23 ,An1 ,v127
 .byte   W24
 .byte   N23 ,Dn2 ,v127
 .byte   W24
 .byte   N23 ,An1 ,v127
 .byte   W96
@  #05 @277   ----------------------------------------
 .byte   W24
 .byte   W96
@  #05 @278   ----------------------------------------
 .byte   N30 ,Fs1 ,v127 ,gtp1
 .byte   W32
 .byte   N30 ,Fs1 ,v127 ,gtp1
 .byte   W32
 .byte   N30 ,En1 ,v127 ,gtp1
 .byte   W32
@  #05 @279   ----------------------------------------
 .byte   N30 ,Fs1 ,v127 ,gtp1
 .byte   W32
 .byte   N30 ,Fs1 ,v127 ,gtp1
 .byte   W32
 .byte   N30 ,En1 ,v127 ,gtp1
 .byte   W32
@  #05 @280   ----------------------------------------
 .byte   N30 ,Fs1 ,v127 ,gtp1
 .byte   W32
 .byte   N30 ,Fs1 ,v127 ,gtp1
 .byte   W32
 .byte   N30 ,Ds1 ,v127 ,gtp1
 .byte   W32
@  #05 @281   ----------------------------------------
 .byte   N30 ,Fs1 ,v127 ,gtp1
 .byte   W32
 .byte   N30 ,Fs1 ,v127 ,gtp1
 .byte   W32
 .byte   N30 ,Ds1 ,v127 ,gtp1
 .byte   W32
@  #05 @282   ----------------------------------------
 .byte   N30 ,Gn1 ,v127 ,gtp1
 .byte   W32
 .byte   N30 ,Gn1 ,v127 ,gtp1
 .byte   W32
 .byte   N30 ,En1 ,v127 ,gtp1
 .byte   W32
@  #05 @283   ----------------------------------------
 .byte   N30 ,Gn1 ,v127 ,gtp1
 .byte   W32
 .byte   N30 ,Gn1 ,v127 ,gtp1
 .byte   W32
 .byte   N30 ,En1 ,v127 ,gtp1
 .byte   W32
@  #05 @284   ----------------------------------------
 .byte   N30 ,Bn1 ,v127 ,gtp1
 .byte   W32
 .byte   N30 ,Bn2 ,v127 ,gtp1
 .byte   W32
 .byte   N30 ,Bn1 ,v127 ,gtp1
 .byte   W32
@  #05 @285   ----------------------------------------
 .byte   N30 ,Bn1 ,v127 ,gtp1
 .byte   W32
 .byte   N30 ,Bn2 ,v127 ,gtp1
 .byte   W32
 .byte   N30 ,Bn1 ,v127 ,gtp1
 .byte   W32
@  #05 @286   ----------------------------------------
 .byte   N30 ,Fs1 ,v127 ,gtp1
 .byte   W32
 .byte   N30 ,Fs1 ,v127 ,gtp1
 .byte   W32
 .byte   N30 ,En1 ,v127 ,gtp1
 .byte   W32
@  #05 @287   ----------------------------------------
 .byte   N30 ,Fs1 ,v127 ,gtp1
 .byte   W32
 .byte   N30 ,Fs1 ,v127 ,gtp1
 .byte   W32
 .byte   N30 ,En1 ,v127 ,gtp1
 .byte   W32
@  #05 @288   ----------------------------------------
 .byte   N30 ,Fs1 ,v127 ,gtp1
 .byte   W32
 .byte   N30 ,Fs1 ,v127 ,gtp1
 .byte   W32
 .byte   N30 ,Ds1 ,v127 ,gtp1
 .byte   W32
@  #05 @289   ----------------------------------------
 .byte   N30 ,Fs1 ,v127 ,gtp1
 .byte   W32
 .byte   N30 ,Fs1 ,v127 ,gtp1
 .byte   W32
 .byte   N30 ,Ds1 ,v127 ,gtp1
 .byte   W32
@  #05 @290   ----------------------------------------
 .byte   N30 ,Gn1 ,v127 ,gtp1
 .byte   W32
 .byte   N30 ,Gn1 ,v127 ,gtp1
 .byte   W32
 .byte   N30 ,En1 ,v127 ,gtp1
 .byte   W32
@  #05 @291   ----------------------------------------
 .byte   N30 ,Gn1 ,v127 ,gtp1
 .byte   W32
 .byte   N30 ,Gn1 ,v127 ,gtp1
 .byte   W32
 .byte   N30 ,En1 ,v127 ,gtp1
 .byte   W32
@  #05 @292   ----------------------------------------
 .byte   N30 ,Bn1 ,v127 ,gtp1
 .byte   W32
 .byte   N30 ,Bn2 ,v127 ,gtp1
 .byte   W32
 .byte   N30 ,Bn1 ,v127 ,gtp1
 .byte   W32
@  #05 @293   ----------------------------------------
 .byte   N30 ,Bn1 ,v127 ,gtp1
 .byte   W32
 .byte   N30 ,Bn2 ,v127 ,gtp1
 .byte   W32
 .byte   N30 ,Bn1 ,v127 ,gtp1
 .byte   W32
@  #05 @294   ----------------------------------------
 .byte   N30 ,Fs1 ,v127 ,gtp1
 .byte   W32
 .byte   N30 ,Fs1 ,v127 ,gtp1
 .byte   W32
 .byte   N30 ,En1 ,v127 ,gtp1
 .byte   W32
@  #05 @295   ----------------------------------------
 .byte   N30 ,Fs1 ,v127 ,gtp1
 .byte   W32
 .byte   N30 ,Fs1 ,v127 ,gtp1
 .byte   W32
 .byte   N30 ,En1 ,v127 ,gtp1
 .byte   W32
@  #05 @296   ----------------------------------------
 .byte   N30 ,Fs1 ,v127 ,gtp1
 .byte   W32
 .byte   N30 ,Fs1 ,v127 ,gtp1
 .byte   W32
 .byte   N30 ,Ds1 ,v127 ,gtp1
 .byte   W32
@  #05 @297   ----------------------------------------
 .byte   N30 ,Fs1 ,v127 ,gtp1
 .byte   W32
 .byte   N30 ,Fs1 ,v127 ,gtp1
 .byte   W32
 .byte   N30 ,Ds1 ,v127 ,gtp1
 .byte   W32
@  #05 @298   ----------------------------------------
 .byte   N30 ,Gn1 ,v127 ,gtp1
 .byte   W32
 .byte   N30 ,Gn1 ,v127 ,gtp1
 .byte   W32
 .byte   N30 ,En1 ,v127 ,gtp1
 .byte   W32
@  #05 @299   ----------------------------------------
 .byte   N30 ,Gn1 ,v127 ,gtp1
 .byte   W32
 .byte   N30 ,Gn1 ,v127 ,gtp1
 .byte   W32
 .byte   N30 ,En1 ,v127 ,gtp1
 .byte   W32
@  #05 @300   ----------------------------------------
 .byte   N30 ,Bn1 ,v127 ,gtp1
 .byte   W32
 .byte   N30 ,Bn2 ,v127 ,gtp1
 .byte   W32
 .byte   N30 ,Bn1 ,v127 ,gtp1
 .byte   W32
@  #05 @301   ----------------------------------------
 .byte   N30 ,Bn1 ,v127 ,gtp1
 .byte   W32
 .byte   N30 ,Bn2 ,v127 ,gtp1
 .byte   W32
 .byte   N30 ,Bn1 ,v127 ,gtp1
 .byte   W32
@  #05 @302   ----------------------------------------
 .byte   N30 ,Fs1 ,v127 ,gtp1
 .byte   W32
 .byte   N30 ,Fs1 ,v127 ,gtp1
 .byte   W32
 .byte   N30 ,En1 ,v127 ,gtp1
 .byte   W32
@  #05 @303   ----------------------------------------
 .byte   N30 ,Fs1 ,v127 ,gtp1
 .byte   W32
 .byte   N30 ,Fs1 ,v127 ,gtp1
 .byte   W32
 .byte   N30 ,En1 ,v127 ,gtp1
 .byte   W32
@  #05 @304   ----------------------------------------
 .byte   N30 ,Fs1 ,v127 ,gtp1
 .byte   W32
 .byte   N30 ,Fs1 ,v127 ,gtp1
 .byte   W32
 .byte   N30 ,Ds1 ,v127 ,gtp1
 .byte   W32
@  #05 @305   ----------------------------------------
 .byte   N30 ,Fs1 ,v127 ,gtp1
 .byte   W32
 .byte   N30 ,Fs1 ,v127 ,gtp1
 .byte   W32
 .byte   N30 ,Ds1 ,v127 ,gtp1
 .byte   W32
@  #05 @306   ----------------------------------------
 .byte   N30 ,Gn1 ,v127 ,gtp1
 .byte   W32
 .byte   N30 ,Gn1 ,v127 ,gtp1
 .byte   W32
 .byte   N30 ,En1 ,v127 ,gtp1
 .byte   W32
@  #05 @307   ----------------------------------------
 .byte   N30 ,Gn1 ,v127 ,gtp1
 .byte   W32
 .byte   N30 ,Gn1 ,v127 ,gtp1
 .byte   W32
 .byte   N30 ,En1 ,v127 ,gtp1
 .byte   W32
@  #05 @308   ----------------------------------------
 .byte   N30 ,Bn1 ,v127 ,gtp1
 .byte   W32
 .byte   N30 ,Bn2 ,v127 ,gtp1
 .byte   W32
 .byte   N30 ,Bn1 ,v127 ,gtp1
 .byte   W32
@  #05 @309   ----------------------------------------
 .byte   N30 ,Bn1 ,v127 ,gtp1
 .byte   W32
 .byte   N30 ,Bn2 ,v127 ,gtp1
 .byte   W32
 .byte   N30 ,Bn1 ,v127 ,gtp1
 .byte   W32
@  #05 @310   ----------------------------------------
 .byte   N23 ,Cn1 ,v127
 .byte   W24
 .byte   N23 ,Cn2 ,v127
 .byte   W24
 .byte   N23 ,Cn1 ,v127
 .byte   W24
 .byte   N23 ,Cn2 ,v127
 .byte   W24
@  #05 @311   ----------------------------------------
 .byte   N23 ,Cn1 ,v127
 .byte   W24
 .byte   N23 ,Cn2 ,v127
 .byte   W24
 .byte   N23 ,Cn1 ,v127
 .byte   W24
 .byte   N23 ,Cn2 ,v127
 .byte   W24
@  #05 @312   ----------------------------------------
 .byte   N23 ,Dn1 ,v127
 .byte   W24
 .byte   N23 ,Dn2 ,v127
 .byte   W24
 .byte   N23 ,Dn1 ,v127
 .byte   W24
 .byte   N23 ,Dn2 ,v127
 .byte   W24
@  #05 @313   ----------------------------------------
 .byte   N23 ,Dn1 ,v127
 .byte   W24
 .byte   N23 ,Dn2 ,v127
 .byte   W24
 .byte   N23 ,Dn1 ,v127
 .byte   W24
 .byte   N23 ,Dn2 ,v127
 .byte   W24
@  #05 @314   ----------------------------------------
 .byte   N23 ,En1 ,v127
 .byte   W24
 .byte   N23 ,En2 ,v127
 .byte   W24
 .byte   N23 ,En1 ,v127
 .byte   W24
 .byte   N23 ,En2 ,v127
 .byte   W24
@  #05 @315   ----------------------------------------
 .byte   N23 ,En1 ,v127
 .byte   W24
 .byte   N23 ,En2 ,v127
 .byte   W24
 .byte   N23 ,En1 ,v127
 .byte   W24
 .byte   N23 ,En2 ,v127
 .byte   W24
@  #05 @316   ----------------------------------------
 .byte   N23 ,Bn1 ,v127
 .byte   W24
 .byte   N23 ,Bn2 ,v127
 .byte   W24
 .byte   N23 ,Bn1 ,v127
 .byte   W24
 .byte   N23 ,Bn2 ,v127
 .byte   W24
@  #05 @317   ----------------------------------------
 .byte   N23 ,Bn1 ,v127
 .byte   W24
 .byte   N23 ,Bn2 ,v127
 .byte   W24
 .byte   N23 ,Bn1 ,v127
 .byte   W24
 .byte   N23 ,Bn2 ,v127
 .byte   W24
@  #05 @318   ----------------------------------------
 .byte   N23 ,Cn1 ,v127
 .byte   W24
 .byte   N23 ,Cn2 ,v127
 .byte   W24
 .byte   N23 ,Cn1 ,v127
 .byte   W24
 .byte   N23 ,Cn2 ,v127
 .byte   W24
@  #05 @319   ----------------------------------------
 .byte   N23 ,Cn1 ,v127
 .byte   W24
 .byte   N23 ,Cn2 ,v127
 .byte   W24
 .byte   N23 ,Cn1 ,v127
 .byte   W24
 .byte   N23 ,Cn2 ,v127
 .byte   W24
@  #05 @320   ----------------------------------------
 .byte   N23 ,Dn1 ,v127
 .byte   W24
 .byte   N23 ,Dn2 ,v127
 .byte   W24
 .byte   N23 ,Dn1 ,v127
 .byte   W24
 .byte   N23 ,Dn2 ,v127
 .byte   W24
@  #05 @321   ----------------------------------------
 .byte   N23 ,Dn1 ,v127
 .byte   W24
 .byte   N23 ,Dn2 ,v127
 .byte   W24
 .byte   N23 ,Dn1 ,v127
 .byte   W24
 .byte   N23 ,Dn2 ,v127
 .byte   W24
@  #05 @322   ----------------------------------------
 .byte   N23 ,Bn1 ,v127
 .byte   W24
 .byte   N23 ,Bn2 ,v127
 .byte   W24
 .byte   N23 ,Bn1 ,v127
 .byte   W24
 .byte   N23 ,Bn2 ,v127
 .byte   W24
@  #05 @323   ----------------------------------------
 .byte   N23 ,Bn1 ,v127
 .byte   W24
 .byte   N23 ,Bn2 ,v127
 .byte   W24
 .byte   N23 ,Bn1 ,v127
 .byte   W24
 .byte   N23 ,Bn2 ,v127
 .byte   W24
@  #05 @324   ----------------------------------------
 .byte   N23 ,Bn1 ,v127
 .byte   W24
 .byte   N23 ,Bn2 ,v127
 .byte   W24
 .byte   N23 ,Bn1 ,v127
 .byte   W24
 .byte   N23 ,Bn2 ,v127
 .byte   W24
@  #05 @325   ----------------------------------------
 .byte   N23 ,Cn2 ,v127
 .byte   W24
 .byte   N23 ,En2 ,v127
 .byte   W24
 .byte   N23 ,Dn2 ,v127
 .byte   W24
 .byte   N23 ,Fs2 ,v127
 .byte   W24
@  #05 @326   ----------------------------------------
 .byte   N23 ,En1 ,v127
 .byte   W24
 .byte   N23 ,En2 ,v127
 .byte   W24
 .byte   N23 ,En1 ,v127
 .byte   W24
 .byte   N23 ,En2 ,v127
 .byte   W24
@  #05 @327   ----------------------------------------
 .byte   N23 ,En1 ,v127
 .byte   W24
 .byte   N23 ,En2 ,v127
 .byte   W24
 .byte   N23 ,En1 ,v127
 .byte   W24
 .byte   N23 ,En2 ,v127
 .byte   W24
@  #05 @328   ----------------------------------------
 .byte   N23 ,Bn0 ,v127
 .byte   W24
 .byte   N23 ,Bn1 ,v127
 .byte   W24
 .byte   N23 ,Bn0 ,v127
 .byte   W24
 .byte   N23 ,Bn1 ,v127
 .byte   W24
@  #05 @329   ----------------------------------------
 .byte   N23 ,Bn0 ,v127
 .byte   W24
 .byte   N23 ,Bn1 ,v127
 .byte   W24
 .byte   N23 ,Bn0 ,v127
 .byte   W24
 .byte   N23 ,Bn1 ,v127
 .byte   W24
@  #05 @330   ----------------------------------------
 .byte   N23 ,Cn1 ,v127
 .byte   W24
 .byte   N23 ,Cn2 ,v127
 .byte   W24
 .byte   N23 ,Cn1 ,v127
 .byte   W24
 .byte   N23 ,Cn2 ,v127
 .byte   W24
@  #05 @331   ----------------------------------------
 .byte   N23 ,Cn1 ,v127
 .byte   W24
 .byte   N23 ,Cn2 ,v127
 .byte   W24
 .byte   N23 ,Cn1 ,v127
 .byte   W24
 .byte   N23 ,Cn2 ,v127
 .byte   W24
@  #05 @332   ----------------------------------------
 .byte   N23 ,An0 ,v127
 .byte   W24
 .byte   N23 ,Cn2 ,v127
 .byte   W24
 .byte   N23 ,An0 ,v127
 .byte   W24
 .byte   N23 ,Cn2 ,v127
 .byte   W24
@  #05 @333   ----------------------------------------
 .byte   N23 ,An0 ,v127
 .byte   W24
 .byte   N23 ,Cn2 ,v127
 .byte   W24
 .byte   N23 ,An0 ,v127
 .byte   W24
 .byte   N23 ,Cn2 ,v127
 .byte   W24
@  #05 @334   ----------------------------------------
 .byte   N23 ,En1 ,v127
 .byte   W24
 .byte   N23 ,En2 ,v127
 .byte   W24
 .byte   N23 ,En1 ,v127
 .byte   W24
 .byte   N23 ,En2 ,v127
 .byte   W24
@  #05 @335   ----------------------------------------
 .byte   N23 ,En1 ,v127
 .byte   W24
 .byte   N23 ,En2 ,v127
 .byte   W24
 .byte   N23 ,En1 ,v127
 .byte   W24
 .byte   N23 ,En2 ,v127
 .byte   W24
@  #05 @336   ----------------------------------------
 .byte   N23 ,Bn0 ,v127
 .byte   W24
 .byte   N23 ,Bn1 ,v127
 .byte   W24
 .byte   N23 ,Bn0 ,v127
 .byte   W24
 .byte   N23 ,Bn1 ,v127
 .byte   W24
@  #05 @337   ----------------------------------------
 .byte   N23 ,Bn0 ,v127
 .byte   W24
 .byte   N23 ,Bn1 ,v127
 .byte   W24
 .byte   N23 ,Bn0 ,v127
 .byte   W24
 .byte   N23 ,Bn1 ,v127
 .byte   W24
@  #05 @338   ----------------------------------------
 .byte   N23 ,Cn1 ,v127
 .byte   W24
 .byte   N23 ,Cn2 ,v127
 .byte   W24
 .byte   N23 ,Cn1 ,v127
 .byte   W24
 .byte   N23 ,Cn2 ,v127
 .byte   W24
@  #05 @339   ----------------------------------------
 .byte   N23 ,Cn1 ,v127
 .byte   W24
 .byte   N23 ,Cn2 ,v127
 .byte   W24
 .byte   N23 ,Cn1 ,v127
 .byte   W24
 .byte   N23 ,Cn2 ,v127
 .byte   W24
@  #05 @340   ----------------------------------------
 .byte   N11 ,Cn1 ,v127
 .byte   W12
 .byte   N11 ,Cn1 ,v127
 .byte   W12
 .byte   N11 ,Cn2 ,v127
 .byte   W12
 .byte   N11 ,Cn2 ,v127
 .byte   W12
 .byte   N11 ,Dn1 ,v127
 .byte   W12
 .byte   N11 ,Dn1 ,v127
 .byte   W12
 .byte   N11 ,Dn2 ,v127
 .byte   W12
 .byte   N11 ,Dn2 ,v127
 .byte   W12
@  #05 @341   ----------------------------------------
 .byte   N11 ,En1 ,v127
 .byte   W12
 .byte   N11 ,En1 ,v127
 .byte   W12
 .byte   N11 ,En2 ,v127
 .byte   W12
 .byte   N11 ,En2 ,v127
 .byte   W12
 .byte   N11 ,Fs1 ,v127
 .byte   W12
 .byte   N11 ,Fs1 ,v127
 .byte   W12
 .byte   N11 ,Fs2 ,v127
 .byte   W12
 .byte   N11 ,Fs2 ,v127
 .byte   W96
@  #05 @342   ----------------------------------------
 .byte   W12
 .byte   N23 ,Cn1 ,v127
 .byte   W24
 .byte   N23 ,Cn2 ,v127
 .byte   W24
 .byte   N23 ,Cn1 ,v127
 .byte   W24
 .byte   N23 ,Cn2 ,v127
 .byte   W24
@  #05 @343   ----------------------------------------
 .byte   N23 ,Cn1 ,v127
 .byte   W24
 .byte   N23 ,Cn2 ,v127
 .byte   W24
 .byte   N23 ,Cn1 ,v127
 .byte   W24
 .byte   N23 ,Cn2 ,v127
 .byte   W24
@  #05 @344   ----------------------------------------
 .byte   N23 ,Dn1 ,v127
 .byte   W24
 .byte   N23 ,Dn2 ,v127
 .byte   W24
 .byte   N23 ,Dn1 ,v127
 .byte   W24
 .byte   N23 ,Dn2 ,v127
 .byte   W24
@  #05 @345   ----------------------------------------
 .byte   N23 ,Dn1 ,v127
 .byte   W24
 .byte   N23 ,Dn2 ,v127
 .byte   W24
 .byte   N23 ,Dn1 ,v127
 .byte   W24
 .byte   N23 ,Dn2 ,v127
 .byte   W24
@  #05 @346   ----------------------------------------
 .byte   N23 ,En1 ,v127
 .byte   W24
 .byte   N23 ,En2 ,v127
 .byte   W24
 .byte   N23 ,En1 ,v127
 .byte   W24
 .byte   N23 ,En2 ,v127
 .byte   W24
@  #05 @347   ----------------------------------------
 .byte   N23 ,En1 ,v127
 .byte   W24
 .byte   N23 ,En2 ,v127
 .byte   W24
 .byte   N23 ,En1 ,v127
 .byte   W24
 .byte   N23 ,En2 ,v127
 .byte   W24
@  #05 @348   ----------------------------------------
 .byte   N23 ,Bn1 ,v127
 .byte   W24
 .byte   N23 ,Bn2 ,v127
 .byte   W24
 .byte   N23 ,Bn1 ,v127
 .byte   W24
 .byte   N23 ,Bn2 ,v127
 .byte   W24
@  #05 @349   ----------------------------------------
 .byte   N23 ,Bn1 ,v127
 .byte   W24
 .byte   N23 ,Bn2 ,v127
 .byte   W24
 .byte   N23 ,Bn1 ,v127
 .byte   W24
 .byte   N23 ,Bn2 ,v127
 .byte   W24
@  #05 @350   ----------------------------------------
 .byte   N23 ,Cn1 ,v127
 .byte   W24
 .byte   N23 ,Cn2 ,v127
 .byte   W24
 .byte   N23 ,Cn1 ,v127
 .byte   W24
 .byte   N23 ,Cn2 ,v127
 .byte   W24
@  #05 @351   ----------------------------------------
 .byte   N23 ,Cn1 ,v127
 .byte   W24
 .byte   N23 ,Cn2 ,v127
 .byte   W24
 .byte   N23 ,Cn1 ,v127
 .byte   W24
 .byte   N23 ,Cn2 ,v127
 .byte   W24
@  #05 @352   ----------------------------------------
 .byte   N23 ,Dn1 ,v127
 .byte   W24
 .byte   N23 ,Dn2 ,v127
 .byte   W24
 .byte   N23 ,Dn1 ,v127
 .byte   W24
 .byte   N23 ,Dn2 ,v127
 .byte   W24
@  #05 @353   ----------------------------------------
 .byte   N23 ,Dn1 ,v127
 .byte   W24
 .byte   N23 ,Dn2 ,v127
 .byte   W24
 .byte   N23 ,Dn1 ,v127
 .byte   W24
 .byte   N23 ,Dn2 ,v127
 .byte   W24
@  #05 @354   ----------------------------------------
 .byte   N23 ,Bn1 ,v127
 .byte   W24
 .byte   N23 ,Bn2 ,v127
 .byte   W24
 .byte   N23 ,Bn1 ,v127
 .byte   W24
 .byte   N23 ,Bn2 ,v127
 .byte   W24
@  #05 @355   ----------------------------------------
 .byte   N23 ,Bn1 ,v127
 .byte   W24
 .byte   N23 ,Bn2 ,v127
 .byte   W24
 .byte   N23 ,Bn1 ,v127
 .byte   W24
 .byte   N23 ,Bn2 ,v127
 .byte   W24
@  #05 @356   ----------------------------------------
 .byte   N23 ,Bn1 ,v127
 .byte   W24
 .byte   N23 ,Bn2 ,v127
 .byte   W24
 .byte   N23 ,Bn1 ,v127
 .byte   W24
 .byte   N23 ,Bn2 ,v127
 .byte   W24
@  #05 @357   ----------------------------------------
 .byte   N23 ,Cn2 ,v127
 .byte   W24
 .byte   N23 ,En2 ,v127
 .byte   W24
 .byte   N23 ,Dn2 ,v127
 .byte   W24
 .byte   N23 ,Fs2 ,v127
 .byte   W24
@  #05 @358   ----------------------------------------
 .byte   N23 ,Cn1 ,v127
 .byte   W24
 .byte   N23 ,Cn2 ,v127
 .byte   W24
 .byte   N23 ,Cn1 ,v127
 .byte   W24
 .byte   N23 ,Cn2 ,v127
 .byte   W24
@  #05 @359   ----------------------------------------
 .byte   N23 ,Cn1 ,v127
 .byte   W24
 .byte   N23 ,Cn2 ,v127
 .byte   W24
 .byte   N23 ,Cn1 ,v127
 .byte   W24
 .byte   N23 ,Cn2 ,v127
 .byte   W24
@  #05 @360   ----------------------------------------
 .byte   N23 ,Cn1 ,v127
 .byte   W24
 .byte   N23 ,Cn2 ,v127
 .byte   W24
 .byte   N23 ,Cn1 ,v127
 .byte   W24
 .byte   N23 ,Cn2 ,v127
 .byte   W24
@  #05 @361   ----------------------------------------
 .byte   N23 ,Cn1 ,v127
 .byte   W24
 .byte   N23 ,Cn2 ,v127
 .byte   W24
 .byte   N23 ,Cn1 ,v127
 .byte   W24
 .byte   N23 ,Cn2 ,v127
 .byte   W24
@  #05 @362   ----------------------------------------
 .byte   N23 ,Cn1 ,v127
 .byte   W24
 .byte   N23 ,Cn2 ,v127
 .byte   W24
 .byte   N23 ,Cn1 ,v127
 .byte   W24
 .byte   N23 ,Cn2 ,v127
 .byte   W24
@  #05 @363   ----------------------------------------
 .byte   N23 ,Cn1 ,v127
 .byte   W24
 .byte   N23 ,Cn2 ,v127
 .byte   W24
 .byte   N23 ,Cn1 ,v127
 .byte   W24
 .byte   N23 ,Cn2 ,v127
 .byte   W24
@  #05 @364   ----------------------------------------
 .byte   N23 ,En1 ,v127
 .byte   W24
 .byte   N23 ,En2 ,v127
 .byte   W24
 .byte   N23 ,En1 ,v127
 .byte   W24
 .byte   N23 ,En2 ,v127
 .byte   W24
@  #05 @365   ----------------------------------------
 .byte   N23 ,Ds1 ,v127
 .byte   W24
 .byte   N23 ,Ds2 ,v127
 .byte   W24
 .byte   N23 ,Ds1 ,v127
 .byte   W24
 .byte   N23 ,Ds2 ,v127
 .byte   W24
@  #05 @366   ----------------------------------------
 .byte   N23 ,Cn1 ,v127
 .byte   W24
 .byte   N23 ,Cn2 ,v127
 .byte   W24
 .byte   N23 ,Cn1 ,v127
 .byte   W24
 .byte   N23 ,Cn2 ,v127
 .byte   W24
@  #05 @367   ----------------------------------------
 .byte   N23 ,Cn1 ,v127
 .byte   W24
 .byte   N23 ,Cn2 ,v127
 .byte   W24
 .byte   N23 ,Cn1 ,v127
 .byte   W24
 .byte   N23 ,Cn2 ,v127
 .byte   W24
@  #05 @368   ----------------------------------------
 .byte   N23 ,Cn1 ,v127
 .byte   W24
 .byte   N23 ,Cn2 ,v127
 .byte   W24
 .byte   N23 ,Cn1 ,v127
 .byte   W24
 .byte   N23 ,Cn2 ,v127
 .byte   W24
@  #05 @369   ----------------------------------------
 .byte   N23 ,Cn1 ,v127
 .byte   W24
 .byte   N23 ,Cn2 ,v127
 .byte   W24
 .byte   N23 ,Cn1 ,v127
 .byte   W24
 .byte   N23 ,Cn2 ,v127
 .byte   W24
@  #05 @370   ----------------------------------------
 .byte   N23 ,Cn1 ,v127
 .byte   W24
 .byte   N23 ,Cn2 ,v127
 .byte   W24
 .byte   N23 ,Cn1 ,v127
 .byte   W24
 .byte   N23 ,Cn2 ,v127
 .byte   W24
@  #05 @371   ----------------------------------------
 .byte   N23 ,Cn1 ,v127
 .byte   W24
 .byte   N23 ,Cn2 ,v127
 .byte   W24
 .byte   N23 ,Cn1 ,v127
 .byte   W24
 .byte   N23 ,Cn2 ,v127
 .byte   W24
@  #05 @372   ----------------------------------------
 .byte   N23 ,Dn1 ,v127
 .byte   W24
 .byte   N23 ,Dn2 ,v127
 .byte   W24
 .byte   N23 ,Dn1 ,v127
 .byte   W24
 .byte   N23 ,Dn2 ,v127
 .byte   W24
@  #05 @373   ----------------------------------------
 .byte   N23 ,Dn1 ,v127
 .byte   W24
 .byte   N23 ,Dn2 ,v127
 .byte   W24
 .byte   N23 ,Dn1 ,v127
 .byte   W24
 .byte   N23 ,Dn2 ,v127
 .byte   W24
@  #05 @374   ----------------------------------------
 .byte   TIE ,Fs1 ,v127
 .byte   W96
@  #05 @375   ----------------------------------------
 .byte   W30
 .byte   W01
 .byte   EOT
 .byte   Fs1
 .byte   W01
 .byte   N30 ,Fs2 ,v127 ,gtp1
 .byte   W32
 .byte   N30 ,Fs1 ,v127 ,gtp1
 .byte   W32
@  #05 @376   ----------------------------------------
 .byte   TIE ,Fs1 ,v127
 .byte   W96
@  #05 @377   ----------------------------------------
 .byte   W30
 .byte   W01
 .byte   EOT
 .byte   Fs1
 .byte   W01
 .byte   N30 ,Fs2 ,v127 ,gtp1
 .byte   W32
 .byte   N30 ,Fs1 ,v127 ,gtp1
 .byte   W32
@  #05 @378   ----------------------------------------
 .byte   TIE ,Fs1 ,v127
 .byte   W96
@  #05 @379   ----------------------------------------
 .byte   W30
 .byte   W01
 .byte   EOT
 .byte   Fs1
 .byte   W01
 .byte   N30 ,Fs2 ,v127 ,gtp1
 .byte   W32
 .byte   N30 ,Fs1 ,v127 ,gtp1
 .byte   W32
@  #05 @380   ----------------------------------------
 .byte   TIE ,Fs1 ,v127
 .byte   W96
@  #05 @381   ----------------------------------------
 .byte   W30
 .byte   W01
 .byte   EOT
 .byte   Fs1
 .byte   W01
 .byte   N30 ,Fs2 ,v127 ,gtp1
 .byte   W32
 .byte   N30 ,Fs1 ,v127 ,gtp1
 .byte   W32
@  #05 @382   ----------------------------------------
 .byte   TIE ,Fs1 ,v127
 .byte   W96
@  #05 @383   ----------------------------------------
 .byte   W30
 .byte   W01
 .byte   EOT
 .byte   Fs1
 .byte   W01
 .byte   N30 ,Fs2 ,v127 ,gtp1
 .byte   W32
 .byte   N30 ,Fs1 ,v127 ,gtp1
 .byte   W32
@  #05 @384   ----------------------------------------
 .byte   TIE ,Fs1 ,v127
 .byte   W96
@  #05 @385   ----------------------------------------
 .byte   W30
 .byte   W01
 .byte   EOT
 .byte   Fs1
 .byte   W01
 .byte   N30 ,Fs2 ,v127 ,gtp1
 .byte   W32
 .byte   N30 ,Fs1 ,v127 ,gtp1
 .byte   W32
@  #05 @386   ----------------------------------------
 .byte   TIE ,Fs1 ,v127
 .byte   W96
@  #05 @387   ----------------------------------------
 .byte   W30
 .byte   W01
 .byte   EOT
 .byte   Fs1
 .byte   W01
 .byte   N30 ,Fs2 ,v127 ,gtp1
 .byte   W32
 .byte   N30 ,Fs1 ,v127 ,gtp1
 .byte   W32
@  #05 @388   ----------------------------------------
 .byte   TIE ,Fs1 ,v127
 .byte   W96
@  #05 @389   ----------------------------------------
 .byte   W30
 .byte   W01
 .byte   EOT
 .byte   Fs1
 .byte   W01
 .byte   N30 ,Fs2 ,v127 ,gtp1
 .byte   W32
 .byte   N30 ,Fs1 ,v127 ,gtp1
 .byte   W32
@  #05 @390   ----------------------------------------
 .byte   TIE ,Fs1 ,v127
 .byte   W96
@  #05 @391   ----------------------------------------
 .byte   W30
 .byte   W01
 .byte   EOT
 .byte   Fs1
 .byte   W01
 .byte   N30 ,Fs2 ,v127 ,gtp1
 .byte   W32
 .byte   N30 ,Fs1 ,v127 ,gtp1
 .byte   W32
@  #05 @392   ----------------------------------------
 .byte   TIE ,Fs1 ,v127
 .byte   W96
@  #05 @393   ----------------------------------------
 .byte   W30
 .byte   W01
 .byte   EOT
 .byte   Fs1
 .byte   W01
 .byte   N30 ,Fs2 ,v127 ,gtp1
 .byte   W32
 .byte   N30 ,Fs1 ,v127 ,gtp1
 .byte   W32
@  #05 @394   ----------------------------------------
 .byte   TIE ,Fs1 ,v127
 .byte   W96
@  #05 @395   ----------------------------------------
 .byte   W30
 .byte   W01
 .byte   EOT
 .byte   Fs1
 .byte   W01
 .byte   N30 ,Fs2 ,v127 ,gtp1
 .byte   W32
 .byte   N30 ,Fs1 ,v127 ,gtp1
 .byte   W32
@  #05 @396   ----------------------------------------
 .byte   TIE ,Fs1 ,v127
 .byte   W96
@  #05 @397   ----------------------------------------
 .byte   W30
 .byte   W01
 .byte   EOT
 .byte   Fs1
 .byte   W01
 .byte   N30 ,Fs2 ,v127 ,gtp1
 .byte   W32
 .byte   N30 ,Fs1 ,v127 ,gtp1
 .byte   W32
@  #05 @398   ----------------------------------------
 .byte   TIE ,Fs1 ,v127
 .byte   W96
@  #05 @399   ----------------------------------------
 .byte   W30
 .byte   W01
 .byte   EOT
 .byte   Fs1
 .byte   W01
 .byte   N30 ,Fs2 ,v127 ,gtp1
 .byte   W32
 .byte   N30 ,Fs1 ,v127 ,gtp1
 .byte   W32
@  #05 @400   ----------------------------------------
 .byte   TIE ,Fs1 ,v127
 .byte   W96
@  #05 @401   ----------------------------------------
 .byte   W30
 .byte   W01
 .byte   EOT
 .byte   Fs1
 .byte   W01
 .byte   N30 ,Fs2 ,v127 ,gtp1
 .byte   W32
 .byte   N30 ,Fs1 ,v127 ,gtp1
 .byte   W32
@  #05 @402   ----------------------------------------
 .byte   TIE ,Fs1 ,v127
 .byte   W96
@  #05 @403   ----------------------------------------
 .byte   W30
 .byte   W01
 .byte   EOT
 .byte   Fs1
 .byte   W01
 .byte   N30 ,Fs2 ,v127 ,gtp1
 .byte   W32
 .byte   N30 ,Fs1 ,v127 ,gtp1
 .byte   W32
@  #05 @404   ----------------------------------------
 .byte   N84 ,Fs1 ,v127
 .byte   W96
@  #05 @405   ----------------------------------------
 .byte   N30 ,An1 ,v127 ,gtp1
 .byte   W32
 .byte   N30 ,Cs2 ,v127 ,gtp1
 .byte   W32
 .byte   N30 ,En2 ,v127 ,gtp1
 .byte   W32
@  #05 @406   ----------------------------------------
 .byte   N40 ,Gn1 ,v127
 .byte   W48
 .byte   N40 ,Gn1 ,v127
 .byte   W48
@  #05 @407   ----------------------------------------
 .byte   N40 ,Gn1 ,v127
 .byte   W48
 .byte   N40 ,Gn1 ,v127
 .byte   W48
@  #05 @408   ----------------------------------------
 .byte   N40 ,Gn1 ,v127
 .byte   W48
 .byte   N40 ,Gn1 ,v127
 .byte   W48
@  #05 @409   ----------------------------------------
 .byte   N40 ,Gn1 ,v127
 .byte   W48
 .byte   N40 ,Gn1 ,v127
 .byte   W48
@  #05 @410   ----------------------------------------
 .byte   N40 ,Gn1 ,v127
 .byte   W48
 .byte   N40 ,Gn1 ,v127
 .byte   W48
@  #05 @411   ----------------------------------------
 .byte   N40 ,Gn1 ,v127
 .byte   W48
 .byte   N40 ,Gn1 ,v127
 .byte   W48
@  #05 @412   ----------------------------------------
 .byte   N40 ,Gn1 ,v127
 .byte   W48
 .byte   N40 ,Gn1 ,v127
 .byte   W48
@  #05 @413   ----------------------------------------
 .byte   N40 ,Gn1 ,v127
 .byte   W48
 .byte   N40 ,Gn1 ,v127
 .byte   W48
@  #05 @414   ----------------------------------------
 .byte   W96
@  #05 @415   ----------------------------------------
 .byte   W96
@  #05 @416   ----------------------------------------
 .byte   W96
@  #05 @417   ----------------------------------------
 .byte   W96
@  #05 @418   ----------------------------------------
 .byte   W96
@  #05 @419   ----------------------------------------
 .byte   TIE ,Fs1 ,v127
 .byte   W96
@  #05 @420   ----------------------------------------
 .byte   W84
 .byte   EOT
 .byte   Fs1
 .byte   W12
@  #05 @421   ----------------------------------------
 .byte   TIE ,Fs1 ,v127
 .byte   W96
@  #05 @422   ----------------------------------------
 .byte   W84
 .byte   EOT
 .byte   Fs1
 .byte   W12
@  #05 @423   ----------------------------------------
 .byte   TIE ,Fs1 ,v127
 .byte   W96
@  #05 @424   ----------------------------------------
 .byte   W96
@  #05 @425   ----------------------------------------
 .byte   W96
@  #05 @426   ----------------------------------------
 .byte   W84
 .byte   EOT
 .byte   Fs1
 .byte   W96
@  #05 @427   ----------------------------------------
 .byte   W12
 .byte   GOTO
  .word Label_0100DE78
 .byte   FINE

@**************** Track 6 (Midi-Chn.5) ****************@

song04_006:
@  #06 @000   ----------------------------------------
Label_0100F480:
 .byte   KEYSH , song04_key+0
 .byte   VOICE , 38
 .byte   VOL , 50*song04_mvl/mxv
 .byte   MODT 1
 .byte   VOL , 44*song04_mvl/mxv
 .byte   PAN , c_v+0
 .byte   W96
@  #06 @001   ----------------------------------------
 .byte   W96
@  #06 @002   ----------------------------------------
 .byte   W96
@  #06 @003   ----------------------------------------
 .byte   W96
@  #06 @004   ----------------------------------------
 .byte   W96
@  #06 @005   ----------------------------------------
 .byte   W96
@  #06 @006   ----------------------------------------
 .byte   W96
@  #06 @007   ----------------------------------------
 .byte   W96
@  #06 @008   ----------------------------------------
 .byte   W96
@  #06 @009   ----------------------------------------
 .byte   W96
@  #06 @010   ----------------------------------------
 .byte   W96
@  #06 @011   ----------------------------------------
 .byte   W96
@  #06 @012   ----------------------------------------
 .byte   W96
@  #06 @013   ----------------------------------------
 .byte   W96
@  #06 @014   ----------------------------------------
 .byte   W96
@  #06 @015   ----------------------------------------
 .byte   W96
@  #06 @016   ----------------------------------------
 .byte   W96
@  #06 @017   ----------------------------------------
 .byte   W96
@  #06 @018   ----------------------------------------
 .byte   W96
@  #06 @019   ----------------------------------------
 .byte   W96
@  #06 @020   ----------------------------------------
 .byte   W96
@  #06 @021   ----------------------------------------
 .byte   W96
@  #06 @022   ----------------------------------------
 .byte   W96
@  #06 @023   ----------------------------------------
 .byte   W96
@  #06 @024   ----------------------------------------
 .byte   W96
@  #06 @025   ----------------------------------------
 .byte   W96
@  #06 @026   ----------------------------------------
 .byte   W96
@  #06 @027   ----------------------------------------
 .byte   W96
@  #06 @028   ----------------------------------------
 .byte   W96
@  #06 @029   ----------------------------------------
 .byte   W96
@  #06 @030   ----------------------------------------
 .byte   W96
@  #06 @031   ----------------------------------------
 .byte   W96
@  #06 @032   ----------------------------------------
 .byte   W96
@  #06 @033   ----------------------------------------
 .byte   W96
@  #06 @034   ----------------------------------------
 .byte   W96
@  #06 @035   ----------------------------------------
 .byte   W96
@  #06 @036   ----------------------------------------
 .byte   W96
@  #06 @037   ----------------------------------------
 .byte   W96
@  #06 @038   ----------------------------------------
 .byte   W96
@  #06 @039   ----------------------------------------
 .byte   W96
@  #06 @040   ----------------------------------------
 .byte   W96
@  #06 @041   ----------------------------------------
 .byte   N11 ,Fs1 ,v108
 .byte   W12
 .byte   N11 ,Fs1 ,v108
 .byte   W12
 .byte   N11 ,Fs2 ,v108
 .byte   W12
 .byte   N11 ,Fs2 ,v108
 .byte   W12
 .byte   N11 ,Fs1 ,v108
 .byte   W12
 .byte   N11 ,Fs1 ,v108
 .byte   W12
 .byte   N11 ,Fs2 ,v108
 .byte   W12
 .byte   N11 ,Fs2 ,v108
 .byte   W12
@  #06 @042   ----------------------------------------
 .byte   N11 ,Fs1 ,v108
 .byte   W12
 .byte   N11 ,Fs1 ,v108
 .byte   W12
 .byte   N11 ,Fs2 ,v108
 .byte   W12
 .byte   N11 ,Fs2 ,v108
 .byte   W12
 .byte   N11 ,Fs1 ,v108
 .byte   W12
 .byte   N11 ,Fs1 ,v108
 .byte   W12
 .byte   N11 ,Fs2 ,v108
 .byte   W12
 .byte   N11 ,Fs2 ,v108
 .byte   W12
@  #06 @043   ----------------------------------------
 .byte   N11 ,Fs1 ,v108
 .byte   W12
 .byte   N11 ,Fs1 ,v108
 .byte   W12
 .byte   N11 ,Fs2 ,v108
 .byte   W12
 .byte   N11 ,Fs2 ,v108
 .byte   W12
 .byte   N11 ,Fs1 ,v108
 .byte   W12
 .byte   N11 ,Fs1 ,v108
 .byte   W12
 .byte   N11 ,Fs2 ,v108
 .byte   W12
 .byte   N11 ,Fs2 ,v108
 .byte   W12
@  #06 @044   ----------------------------------------
 .byte   N11 ,Fs1 ,v108
 .byte   W12
 .byte   N11 ,Fs1 ,v108
 .byte   W12
 .byte   N11 ,Fs2 ,v108
 .byte   W12
 .byte   N11 ,Fs2 ,v108
 .byte   W12
 .byte   N11 ,Fs1 ,v108
 .byte   W12
 .byte   N11 ,Fs1 ,v108
 .byte   W12
 .byte   N11 ,Fs2 ,v108
 .byte   W12
 .byte   N11 ,Fs2 ,v108
 .byte   W12
@  #06 @045   ----------------------------------------
 .byte   N11 ,En1 ,v108
 .byte   W12
 .byte   N11 ,En1 ,v108
 .byte   W12
 .byte   N11 ,En2 ,v108
 .byte   W12
 .byte   N11 ,En2 ,v108
 .byte   W12
 .byte   N11 ,En1 ,v108
 .byte   W12
 .byte   N11 ,En1 ,v108
 .byte   W12
 .byte   N11 ,En2 ,v108
 .byte   W12
 .byte   N11 ,En2 ,v108
 .byte   W12
@  #06 @046   ----------------------------------------
 .byte   N11 ,En1 ,v108
 .byte   W12
 .byte   N11 ,En1 ,v108
 .byte   W12
 .byte   N11 ,En2 ,v108
 .byte   W12
 .byte   N11 ,En2 ,v108
 .byte   W12
 .byte   N11 ,En1 ,v108
 .byte   W12
 .byte   N11 ,En1 ,v108
 .byte   W12
 .byte   N11 ,En2 ,v108
 .byte   W12
 .byte   N11 ,En2 ,v108
 .byte   W12
@  #06 @047   ----------------------------------------
 .byte   N11 ,Bn0 ,v108
 .byte   W12
 .byte   N11 ,Bn0 ,v108
 .byte   W12
 .byte   N11 ,Bn1 ,v108
 .byte   W12
 .byte   N11 ,Bn1 ,v108
 .byte   W12
 .byte   N11 ,Bn0 ,v108
 .byte   W12
 .byte   N11 ,Bn0 ,v108
 .byte   W12
 .byte   N11 ,Bn1 ,v108
 .byte   W12
 .byte   N11 ,Bn1 ,v108
 .byte   W12
@  #06 @048   ----------------------------------------
 .byte   N11 ,Bn0 ,v108
 .byte   W12
 .byte   N11 ,Bn0 ,v108
 .byte   W12
 .byte   N11 ,Bn1 ,v108
 .byte   W12
 .byte   N11 ,Bn1 ,v108
 .byte   W12
 .byte   N11 ,Bn0 ,v108
 .byte   W12
 .byte   N11 ,Bn0 ,v108
 .byte   W12
 .byte   N11 ,Bn1 ,v108
 .byte   W12
 .byte   N11 ,Bn1 ,v108
 .byte   W12
@  #06 @049   ----------------------------------------
 .byte   N11 ,Fs1 ,v108
 .byte   W12
 .byte   N11 ,Fs1 ,v108
 .byte   W12
 .byte   N11 ,Fs2 ,v108
 .byte   W12
 .byte   N11 ,Fs2 ,v108
 .byte   W12
 .byte   N11 ,Fs1 ,v108
 .byte   W12
 .byte   N11 ,Fs1 ,v108
 .byte   W12
 .byte   N11 ,Fs2 ,v108
 .byte   W12
 .byte   N11 ,Fs2 ,v108
 .byte   W12
@  #06 @050   ----------------------------------------
 .byte   N11 ,Fs1 ,v108
 .byte   W12
 .byte   N11 ,Fs1 ,v108
 .byte   W12
 .byte   N11 ,Fs2 ,v108
 .byte   W12
 .byte   N11 ,Fs2 ,v108
 .byte   W12
 .byte   N11 ,Fs1 ,v108
 .byte   W12
 .byte   N11 ,Fs1 ,v108
 .byte   W12
 .byte   N11 ,Fs2 ,v108
 .byte   W12
 .byte   N11 ,Fs2 ,v108
 .byte   W12
@  #06 @051   ----------------------------------------
 .byte   N11 ,Fs1 ,v108
 .byte   W12
 .byte   N11 ,Fs1 ,v108
 .byte   W12
 .byte   N11 ,Fs2 ,v108
 .byte   W12
 .byte   N11 ,Fs2 ,v108
 .byte   W12
 .byte   N11 ,Fs1 ,v108
 .byte   W12
 .byte   N11 ,Fs1 ,v108
 .byte   W12
 .byte   N11 ,Fs2 ,v108
 .byte   W12
 .byte   N11 ,Fs2 ,v108
 .byte   W12
@  #06 @052   ----------------------------------------
 .byte   N11 ,Fs1 ,v108
 .byte   W12
 .byte   N11 ,Fs1 ,v108
 .byte   W12
 .byte   N11 ,Fs2 ,v108
 .byte   W12
 .byte   N11 ,Fs2 ,v108
 .byte   W12
 .byte   N11 ,Fs1 ,v108
 .byte   W12
 .byte   N11 ,Fs1 ,v108
 .byte   W12
 .byte   N11 ,Fs2 ,v108
 .byte   W12
 .byte   N11 ,Fs2 ,v108
 .byte   W12
@  #06 @053   ----------------------------------------
 .byte   N11 ,En1 ,v108
 .byte   W12
 .byte   N11 ,En1 ,v108
 .byte   W12
 .byte   N11 ,En2 ,v108
 .byte   W12
 .byte   N11 ,En2 ,v108
 .byte   W12
 .byte   N11 ,En1 ,v108
 .byte   W12
 .byte   N11 ,En1 ,v108
 .byte   W12
 .byte   N11 ,En2 ,v108
 .byte   W12
 .byte   N11 ,En2 ,v108
 .byte   W12
@  #06 @054   ----------------------------------------
 .byte   N11 ,En1 ,v108
 .byte   W12
 .byte   N11 ,En1 ,v108
 .byte   W12
 .byte   N11 ,En2 ,v108
 .byte   W12
 .byte   N11 ,En2 ,v108
 .byte   W12
 .byte   N11 ,En1 ,v108
 .byte   W12
 .byte   N11 ,En1 ,v108
 .byte   W12
 .byte   N11 ,En2 ,v108
 .byte   W12
 .byte   N11 ,En2 ,v108
 .byte   W12
@  #06 @055   ----------------------------------------
 .byte   N11 ,Bn0 ,v108
 .byte   W12
 .byte   N11 ,Bn0 ,v108
 .byte   W12
 .byte   N11 ,Bn1 ,v108
 .byte   W12
 .byte   N11 ,Bn1 ,v108
 .byte   W12
 .byte   N11 ,Bn0 ,v108
 .byte   W12
 .byte   N11 ,Bn0 ,v108
 .byte   W12
 .byte   N11 ,Bn1 ,v108
 .byte   W12
 .byte   N11 ,Bn1 ,v108
 .byte   W12
@  #06 @056   ----------------------------------------
 .byte   N11 ,Bn0 ,v108
 .byte   W12
 .byte   N11 ,Bn0 ,v108
 .byte   W12
 .byte   N11 ,Bn1 ,v108
 .byte   W12
 .byte   N11 ,Bn1 ,v108
 .byte   W12
 .byte   N11 ,Bn0 ,v108
 .byte   W12
 .byte   N11 ,Bn0 ,v108
 .byte   W12
 .byte   N11 ,Bn1 ,v108
 .byte   W12
 .byte   N11 ,Bn1 ,v108
 .byte   W12
@  #06 @057   ----------------------------------------
 .byte   N11 ,Fs1 ,v108
 .byte   W12
 .byte   N11 ,Fs1 ,v108
 .byte   W12
 .byte   N11 ,Fs2 ,v108
 .byte   W12
 .byte   N11 ,Fs2 ,v108
 .byte   W12
 .byte   N11 ,Fs1 ,v108
 .byte   W12
 .byte   N11 ,Fs1 ,v108
 .byte   W12
 .byte   N11 ,Fs2 ,v108
 .byte   W12
 .byte   N11 ,Fs2 ,v108
 .byte   W12
@  #06 @058   ----------------------------------------
 .byte   N11 ,Fs1 ,v108
 .byte   W12
 .byte   N11 ,Fs1 ,v108
 .byte   W12
 .byte   N11 ,Fs2 ,v108
 .byte   W12
 .byte   N11 ,Fs2 ,v108
 .byte   W12
 .byte   N11 ,Fs1 ,v108
 .byte   W12
 .byte   N11 ,Fs1 ,v108
 .byte   W12
 .byte   N11 ,Fs2 ,v108
 .byte   W12
 .byte   N11 ,Fs2 ,v108
 .byte   W12
@  #06 @059   ----------------------------------------
 .byte   N11 ,Fs1 ,v108
 .byte   W12
 .byte   N11 ,Fs1 ,v108
 .byte   W12
 .byte   N11 ,Fs2 ,v108
 .byte   W12
 .byte   N11 ,Fs2 ,v108
 .byte   W12
 .byte   N11 ,Fs1 ,v108
 .byte   W12
 .byte   N11 ,Fs1 ,v108
 .byte   W12
 .byte   N11 ,Fs2 ,v108
 .byte   W12
 .byte   N11 ,Fs2 ,v108
 .byte   W12
@  #06 @060   ----------------------------------------
 .byte   N11 ,Fs1 ,v108
 .byte   W12
 .byte   N11 ,Fs1 ,v108
 .byte   W12
 .byte   N11 ,Fs2 ,v108
 .byte   W12
 .byte   N11 ,Fs2 ,v108
 .byte   W12
 .byte   N11 ,Fs1 ,v108
 .byte   W12
 .byte   N11 ,Fs1 ,v108
 .byte   W12
 .byte   N11 ,Fs2 ,v108
 .byte   W12
 .byte   N11 ,Fs2 ,v108
 .byte   W12
@  #06 @061   ----------------------------------------
 .byte   N11 ,En1 ,v108
 .byte   W12
 .byte   N11 ,En1 ,v108
 .byte   W12
 .byte   N11 ,En2 ,v108
 .byte   W12
 .byte   N11 ,En2 ,v108
 .byte   W12
 .byte   N11 ,En1 ,v108
 .byte   W12
 .byte   N11 ,En1 ,v108
 .byte   W12
 .byte   N11 ,En2 ,v108
 .byte   W12
 .byte   N11 ,En2 ,v108
 .byte   W12
@  #06 @062   ----------------------------------------
 .byte   N11 ,En1 ,v108
 .byte   W12
 .byte   N11 ,En1 ,v108
 .byte   W12
 .byte   N11 ,En2 ,v108
 .byte   W12
 .byte   N11 ,En2 ,v108
 .byte   W12
 .byte   N11 ,En1 ,v108
 .byte   W12
 .byte   N11 ,En1 ,v108
 .byte   W12
 .byte   N11 ,En2 ,v108
 .byte   W12
 .byte   N11 ,En2 ,v108
 .byte   W12
@  #06 @063   ----------------------------------------
 .byte   N11 ,Bn0 ,v108
 .byte   W12
 .byte   N11 ,Bn0 ,v108
 .byte   W12
 .byte   N11 ,Bn1 ,v108
 .byte   W12
 .byte   N11 ,Bn1 ,v108
 .byte   W12
 .byte   N11 ,Bn0 ,v108
 .byte   W12
 .byte   N11 ,Bn0 ,v108
 .byte   W12
 .byte   N11 ,Bn1 ,v108
 .byte   W12
 .byte   N11 ,Bn1 ,v108
 .byte   W12
@  #06 @064   ----------------------------------------
 .byte   N11 ,Bn0 ,v108
 .byte   W12
 .byte   N11 ,Bn0 ,v108
 .byte   W12
 .byte   N11 ,Bn1 ,v108
 .byte   W12
 .byte   N11 ,Bn1 ,v108
 .byte   W12
 .byte   N11 ,Bn0 ,v108
 .byte   W12
 .byte   N11 ,Bn0 ,v108
 .byte   W12
 .byte   N11 ,Bn1 ,v108
 .byte   W12
 .byte   N11 ,Bn1 ,v108
 .byte   W12
@  #06 @065   ----------------------------------------
 .byte   N11 ,Fs1 ,v108
 .byte   W12
 .byte   N11 ,Fs1 ,v108
 .byte   W12
 .byte   N11 ,Fs2 ,v108
 .byte   W12
 .byte   N11 ,Fs2 ,v108
 .byte   W12
 .byte   N11 ,Fs1 ,v108
 .byte   W12
 .byte   N11 ,Fs1 ,v108
 .byte   W12
 .byte   N11 ,Fs2 ,v108
 .byte   W12
 .byte   N11 ,Fs2 ,v108
 .byte   W12
@  #06 @066   ----------------------------------------
 .byte   N11 ,Fs1 ,v108
 .byte   W12
 .byte   N11 ,Fs1 ,v108
 .byte   W12
 .byte   N11 ,Fs2 ,v108
 .byte   W12
 .byte   N11 ,Fs2 ,v108
 .byte   W12
 .byte   N11 ,Fs1 ,v108
 .byte   W12
 .byte   N11 ,Fs1 ,v108
 .byte   W12
 .byte   N11 ,Fs2 ,v108
 .byte   W12
 .byte   N11 ,Fs2 ,v108
 .byte   W12
@  #06 @067   ----------------------------------------
 .byte   N11 ,Fs1 ,v108
 .byte   W12
 .byte   N11 ,Fs1 ,v108
 .byte   W12
 .byte   N11 ,Fs2 ,v108
 .byte   W12
 .byte   N11 ,Fs2 ,v108
 .byte   W12
 .byte   N11 ,Fs1 ,v108
 .byte   W12
 .byte   N11 ,Fs1 ,v108
 .byte   W12
 .byte   N11 ,Fs2 ,v108
 .byte   W12
 .byte   N11 ,Fs2 ,v108
 .byte   W12
@  #06 @068   ----------------------------------------
 .byte   N11 ,Fs1 ,v108
 .byte   W12
 .byte   N11 ,Fs1 ,v108
 .byte   W12
 .byte   N11 ,Fs2 ,v108
 .byte   W12
 .byte   N11 ,Fs2 ,v108
 .byte   W12
 .byte   N11 ,Fs1 ,v108
 .byte   W12
 .byte   N11 ,Fs1 ,v108
 .byte   W12
 .byte   N11 ,Fs2 ,v108
 .byte   W12
 .byte   N11 ,Fs2 ,v108
 .byte   W12
@  #06 @069   ----------------------------------------
 .byte   N11 ,En1 ,v108
 .byte   W12
 .byte   N11 ,En1 ,v108
 .byte   W12
 .byte   N11 ,En2 ,v108
 .byte   W12
 .byte   N11 ,En2 ,v108
 .byte   W12
 .byte   N11 ,En1 ,v108
 .byte   W12
 .byte   N11 ,En1 ,v108
 .byte   W12
 .byte   N11 ,En2 ,v108
 .byte   W12
 .byte   N11 ,En2 ,v108
 .byte   W12
@  #06 @070   ----------------------------------------
 .byte   N11 ,En1 ,v108
 .byte   W12
 .byte   N11 ,En1 ,v108
 .byte   W12
 .byte   N11 ,En2 ,v108
 .byte   W12
 .byte   N11 ,En2 ,v108
 .byte   W12
 .byte   N11 ,En1 ,v108
 .byte   W12
 .byte   N11 ,En1 ,v108
 .byte   W12
 .byte   N11 ,En2 ,v108
 .byte   W12
 .byte   N11 ,En2 ,v108
 .byte   W12
@  #06 @071   ----------------------------------------
 .byte   N11 ,Bn0 ,v108
 .byte   W12
 .byte   N11 ,Bn0 ,v108
 .byte   W12
 .byte   N11 ,Bn1 ,v108
 .byte   W12
 .byte   N11 ,Bn1 ,v108
 .byte   W12
 .byte   N11 ,Bn0 ,v108
 .byte   W12
 .byte   N11 ,Bn0 ,v108
 .byte   W12
 .byte   N11 ,Bn1 ,v108
 .byte   W12
 .byte   N11 ,Bn1 ,v108
 .byte   W12
@  #06 @072   ----------------------------------------
 .byte   N11 ,Bn0 ,v108
 .byte   W12
 .byte   N11 ,Bn0 ,v108
 .byte   W12
 .byte   N11 ,Bn1 ,v108
 .byte   W12
 .byte   N11 ,Bn1 ,v108
 .byte   W12
 .byte   N11 ,Bn0 ,v108
 .byte   W12
 .byte   N11 ,Bn0 ,v108
 .byte   W12
 .byte   N11 ,Bn1 ,v108
 .byte   W12
 .byte   N11 ,Bn1 ,v108
 .byte   W12
@  #06 @073   ----------------------------------------
 .byte   N23 ,Cn1 ,v108
 .byte   W24
 .byte   N23 ,Cn2 ,v108
 .byte   W24
 .byte   N23 ,Cn1 ,v108
 .byte   W24
 .byte   N23 ,Cn2 ,v108
 .byte   W24
@  #06 @074   ----------------------------------------
 .byte   N23 ,Cn1 ,v108
 .byte   W24
 .byte   N23 ,Cn2 ,v108
 .byte   W24
 .byte   N23 ,Cn1 ,v108
 .byte   W24
 .byte   N23 ,Cn2 ,v108
 .byte   W24
@  #06 @075   ----------------------------------------
 .byte   N23 ,Dn1 ,v108
 .byte   W24
 .byte   N23 ,Dn2 ,v108
 .byte   W24
 .byte   N23 ,Dn1 ,v108
 .byte   W24
 .byte   N23 ,Dn2 ,v108
 .byte   W24
@  #06 @076   ----------------------------------------
 .byte   N23 ,Dn1 ,v108
 .byte   W24
 .byte   N23 ,Dn2 ,v108
 .byte   W24
 .byte   N23 ,Dn1 ,v108
 .byte   W24
 .byte   N23 ,Dn2 ,v108
 .byte   W24
@  #06 @077   ----------------------------------------
 .byte   N23 ,En1 ,v108
 .byte   W24
 .byte   N23 ,En2 ,v108
 .byte   W24
 .byte   N23 ,En1 ,v108
 .byte   W24
 .byte   N23 ,En2 ,v108
 .byte   W24
@  #06 @078   ----------------------------------------
 .byte   N23 ,En1 ,v108
 .byte   W24
 .byte   N23 ,En2 ,v108
 .byte   W24
 .byte   N23 ,En1 ,v108
 .byte   W24
 .byte   N23 ,En2 ,v108
 .byte   W24
@  #06 @079   ----------------------------------------
 .byte   N23 ,Bn1 ,v108
 .byte   W24
 .byte   N23 ,Bn2 ,v108
 .byte   W24
 .byte   N23 ,Bn1 ,v108
 .byte   W24
 .byte   N23 ,Bn2 ,v108
 .byte   W24
@  #06 @080   ----------------------------------------
 .byte   N23 ,Bn1 ,v108
 .byte   W24
 .byte   N23 ,Bn2 ,v108
 .byte   W24
 .byte   N23 ,Bn1 ,v108
 .byte   W24
 .byte   N23 ,Bn2 ,v108
 .byte   W24
@  #06 @081   ----------------------------------------
 .byte   N23 ,Cn1 ,v108
 .byte   W24
 .byte   N23 ,Cn2 ,v108
 .byte   W24
 .byte   N23 ,Cn1 ,v108
 .byte   W24
 .byte   N23 ,Cn2 ,v108
 .byte   W24
@  #06 @082   ----------------------------------------
 .byte   N23 ,Cn1 ,v108
 .byte   W24
 .byte   N23 ,Cn2 ,v108
 .byte   W24
 .byte   N23 ,Cn1 ,v108
 .byte   W24
 .byte   N23 ,Cn2 ,v108
 .byte   W24
@  #06 @083   ----------------------------------------
 .byte   N23 ,Dn1 ,v108
 .byte   W24
 .byte   N23 ,Dn2 ,v108
 .byte   W24
 .byte   N23 ,Dn1 ,v108
 .byte   W24
 .byte   N23 ,Dn2 ,v108
 .byte   W24
@  #06 @084   ----------------------------------------
 .byte   N23 ,Dn1 ,v108
 .byte   W24
 .byte   N23 ,Dn2 ,v108
 .byte   W24
 .byte   N23 ,Dn1 ,v108
 .byte   W24
 .byte   N23 ,Dn2 ,v108
 .byte   W24
@  #06 @085   ----------------------------------------
 .byte   N23 ,Bn1 ,v108
 .byte   W24
 .byte   N23 ,Bn2 ,v108
 .byte   W24
 .byte   N23 ,Bn1 ,v108
 .byte   W24
 .byte   N23 ,Bn2 ,v108
 .byte   W24
@  #06 @086   ----------------------------------------
 .byte   N23 ,Bn1 ,v108
 .byte   W24
 .byte   N23 ,Bn2 ,v108
 .byte   W24
 .byte   N23 ,Bn1 ,v108
 .byte   W24
 .byte   N23 ,Bn2 ,v108
 .byte   W24
@  #06 @087   ----------------------------------------
 .byte   N23 ,Bn1 ,v108
 .byte   W24
 .byte   N23 ,Bn2 ,v108
 .byte   W24
 .byte   N23 ,Bn1 ,v108
 .byte   W24
 .byte   N23 ,Bn2 ,v108
 .byte   W24
@  #06 @088   ----------------------------------------
 .byte   N23 ,Cn2 ,v108
 .byte   W24
 .byte   N23 ,En2 ,v108
 .byte   W24
 .byte   N23 ,Dn2 ,v108
 .byte   W24
 .byte   N23 ,Fs2 ,v108
 .byte   W24
@  #06 @089   ----------------------------------------
 .byte   N11 ,Fs1 ,v108
 .byte   W12
 .byte   N11 ,Fs1 ,v108
 .byte   W12
 .byte   N11 ,Fs2 ,v108
 .byte   W12
 .byte   N11 ,Fs2 ,v108
 .byte   W12
 .byte   N11 ,Fs1 ,v108
 .byte   W12
 .byte   N11 ,Fs1 ,v108
 .byte   W12
 .byte   N11 ,Fs2 ,v108
 .byte   W12
 .byte   N11 ,Fs2 ,v108
 .byte   W12
@  #06 @090   ----------------------------------------
 .byte   N11 ,Fs1 ,v108
 .byte   W12
 .byte   N11 ,Fs1 ,v108
 .byte   W12
 .byte   N11 ,Fs2 ,v108
 .byte   W12
 .byte   N11 ,Fs2 ,v108
 .byte   W12
 .byte   N11 ,Fs1 ,v108
 .byte   W12
 .byte   N11 ,Fs1 ,v108
 .byte   W12
 .byte   N11 ,Fs2 ,v108
 .byte   W12
 .byte   N11 ,Fs2 ,v108
 .byte   W12
@  #06 @091   ----------------------------------------
 .byte   N11 ,Fs1 ,v108
 .byte   W12
 .byte   N11 ,Fs1 ,v108
 .byte   W12
 .byte   N11 ,Fs2 ,v108
 .byte   W12
 .byte   N11 ,Fs2 ,v108
 .byte   W12
 .byte   N11 ,Fs1 ,v108
 .byte   W12
 .byte   N11 ,Fs1 ,v108
 .byte   W12
 .byte   N11 ,Fs2 ,v108
 .byte   W12
 .byte   N11 ,Fs2 ,v108
 .byte   W12
@  #06 @092   ----------------------------------------
 .byte   N11 ,Fs1 ,v108
 .byte   W12
 .byte   N11 ,Fs1 ,v108
 .byte   W12
 .byte   N11 ,Fs2 ,v108
 .byte   W12
 .byte   N11 ,Fs2 ,v108
 .byte   W12
 .byte   N11 ,Fs1 ,v108
 .byte   W12
 .byte   N11 ,Fs1 ,v108
 .byte   W12
 .byte   N11 ,Fs2 ,v108
 .byte   W12
 .byte   N11 ,Fs2 ,v108
 .byte   W12
@  #06 @093   ----------------------------------------
 .byte   N11 ,En1 ,v108
 .byte   W12
 .byte   N11 ,En1 ,v108
 .byte   W12
 .byte   N11 ,En2 ,v108
 .byte   W12
 .byte   N11 ,En2 ,v108
 .byte   W12
 .byte   N11 ,En1 ,v108
 .byte   W12
 .byte   N11 ,En1 ,v108
 .byte   W12
 .byte   N11 ,En2 ,v108
 .byte   W12
 .byte   N11 ,En2 ,v108
 .byte   W12
@  #06 @094   ----------------------------------------
 .byte   N11 ,En1 ,v108
 .byte   W12
 .byte   N11 ,En1 ,v108
 .byte   W12
 .byte   N11 ,En2 ,v108
 .byte   W12
 .byte   N11 ,En2 ,v108
 .byte   W12
 .byte   N11 ,En1 ,v108
 .byte   W12
 .byte   N11 ,En1 ,v108
 .byte   W12
 .byte   N11 ,En2 ,v108
 .byte   W12
 .byte   N11 ,En2 ,v108
 .byte   W12
@  #06 @095   ----------------------------------------
 .byte   N11 ,Bn0 ,v108
 .byte   W12
 .byte   N11 ,Bn0 ,v108
 .byte   W12
 .byte   N11 ,Bn1 ,v108
 .byte   W12
 .byte   N11 ,Bn1 ,v108
 .byte   W12
 .byte   N11 ,Bn0 ,v108
 .byte   W12
 .byte   N11 ,Bn0 ,v108
 .byte   W12
 .byte   N11 ,Bn1 ,v108
 .byte   W12
 .byte   N11 ,Bn1 ,v108
 .byte   W12
@  #06 @096   ----------------------------------------
 .byte   N11 ,Bn0 ,v108
 .byte   W12
 .byte   N11 ,Bn0 ,v108
 .byte   W12
 .byte   N11 ,Bn1 ,v108
 .byte   W12
 .byte   N11 ,Bn1 ,v108
 .byte   W12
 .byte   N11 ,Bn0 ,v108
 .byte   W12
 .byte   N11 ,Bn0 ,v108
 .byte   W12
 .byte   N11 ,Bn1 ,v108
 .byte   W12
 .byte   N11 ,Bn1 ,v108
 .byte   W12
@  #06 @097   ----------------------------------------
 .byte   N11 ,Fs1 ,v108
 .byte   W12
 .byte   N11 ,Fs1 ,v108
 .byte   W12
 .byte   N11 ,Fs2 ,v108
 .byte   W12
 .byte   N11 ,Fs2 ,v108
 .byte   W12
 .byte   N11 ,Fs1 ,v108
 .byte   W12
 .byte   N11 ,Fs1 ,v108
 .byte   W12
 .byte   N11 ,Fs2 ,v108
 .byte   W12
 .byte   N11 ,Fs2 ,v108
 .byte   W12
@  #06 @098   ----------------------------------------
 .byte   N11 ,Fs1 ,v108
 .byte   W12
 .byte   N11 ,Fs1 ,v108
 .byte   W12
 .byte   N11 ,Fs2 ,v108
 .byte   W12
 .byte   N11 ,Fs2 ,v108
 .byte   W12
 .byte   N11 ,Fs1 ,v108
 .byte   W12
 .byte   N11 ,Fs1 ,v108
 .byte   W12
 .byte   N11 ,Fs2 ,v108
 .byte   W12
 .byte   N11 ,Fs2 ,v108
 .byte   W12
@  #06 @099   ----------------------------------------
 .byte   N11 ,Fs1 ,v108
 .byte   W12
 .byte   N11 ,Fs1 ,v108
 .byte   W12
 .byte   N11 ,Fs2 ,v108
 .byte   W12
 .byte   N11 ,Fs2 ,v108
 .byte   W12
 .byte   N11 ,Fs1 ,v108
 .byte   W12
 .byte   N11 ,Fs1 ,v108
 .byte   W12
 .byte   N11 ,Fs2 ,v108
 .byte   W12
 .byte   N11 ,Fs2 ,v108
 .byte   W12
@  #06 @100   ----------------------------------------
 .byte   N11 ,Fs1 ,v108
 .byte   W12
 .byte   N11 ,Fs1 ,v108
 .byte   W12
 .byte   N11 ,Fs2 ,v108
 .byte   W12
 .byte   N11 ,Fs2 ,v108
 .byte   W12
 .byte   N11 ,Fs1 ,v108
 .byte   W12
 .byte   N11 ,Fs1 ,v108
 .byte   W12
 .byte   N11 ,Fs2 ,v108
 .byte   W12
 .byte   N11 ,Fs2 ,v108
 .byte   W12
@  #06 @101   ----------------------------------------
 .byte   N11 ,En1 ,v108
 .byte   W12
 .byte   N11 ,En1 ,v108
 .byte   W12
 .byte   N11 ,En2 ,v108
 .byte   W12
 .byte   N11 ,En2 ,v108
 .byte   W12
 .byte   N11 ,En1 ,v108
 .byte   W12
 .byte   N11 ,En1 ,v108
 .byte   W12
 .byte   N11 ,En2 ,v108
 .byte   W12
 .byte   N11 ,En2 ,v108
 .byte   W12
@  #06 @102   ----------------------------------------
 .byte   N11 ,En1 ,v108
 .byte   W12
 .byte   N11 ,En1 ,v108
 .byte   W12
 .byte   N11 ,En2 ,v108
 .byte   W12
 .byte   N11 ,En2 ,v108
 .byte   W12
 .byte   N11 ,En1 ,v108
 .byte   W12
 .byte   N11 ,En1 ,v108
 .byte   W12
 .byte   N11 ,En2 ,v108
 .byte   W12
 .byte   N11 ,En2 ,v108
 .byte   W12
@  #06 @103   ----------------------------------------
 .byte   N11 ,Bn0 ,v108
 .byte   W12
 .byte   N11 ,Bn0 ,v108
 .byte   W12
 .byte   N11 ,Bn1 ,v108
 .byte   W12
 .byte   N11 ,Bn1 ,v108
 .byte   W12
 .byte   N11 ,Bn0 ,v108
 .byte   W12
 .byte   N11 ,Bn0 ,v108
 .byte   W12
 .byte   N11 ,Bn1 ,v108
 .byte   W12
 .byte   N11 ,Bn1 ,v108
 .byte   W12
@  #06 @104   ----------------------------------------
 .byte   N11 ,Bn0 ,v108
 .byte   W12
 .byte   N11 ,Bn0 ,v108
 .byte   W12
 .byte   N11 ,Bn1 ,v108
 .byte   W12
 .byte   N11 ,Bn1 ,v108
 .byte   W12
 .byte   N11 ,Bn0 ,v108
 .byte   W12
 .byte   N11 ,Bn0 ,v108
 .byte   W12
 .byte   N11 ,Bn1 ,v108
 .byte   W12
 .byte   N11 ,Bn1 ,v108
 .byte   W12
@  #06 @105   ----------------------------------------
 .byte   N23 ,Cn1 ,v108
 .byte   W24
 .byte   N23 ,Cn2 ,v108
 .byte   W24
 .byte   N23 ,Cn1 ,v108
 .byte   W24
 .byte   N23 ,Cn2 ,v108
 .byte   W24
@  #06 @106   ----------------------------------------
 .byte   N23 ,Cn1 ,v108
 .byte   W24
 .byte   N23 ,Cn2 ,v108
 .byte   W24
 .byte   N23 ,Cn1 ,v108
 .byte   W24
 .byte   N23 ,Cn2 ,v108
 .byte   W24
@  #06 @107   ----------------------------------------
 .byte   N23 ,Cn1 ,v108
 .byte   W24
 .byte   N23 ,Cn2 ,v108
 .byte   W24
 .byte   N23 ,Cn1 ,v108
 .byte   W24
 .byte   N23 ,Cn2 ,v108
 .byte   W24
@  #06 @108   ----------------------------------------
 .byte   N23 ,Cn1 ,v108
 .byte   W24
 .byte   N23 ,Cn2 ,v108
 .byte   W24
 .byte   N23 ,Cn1 ,v108
 .byte   W24
 .byte   N23 ,Cn2 ,v108
 .byte   W24
@  #06 @109   ----------------------------------------
 .byte   N23 ,Cn1 ,v108
 .byte   W24
 .byte   N23 ,Cn2 ,v108
 .byte   W24
 .byte   N23 ,Cn1 ,v108
 .byte   W24
 .byte   N23 ,Cn2 ,v108
 .byte   W24
@  #06 @110   ----------------------------------------
 .byte   N23 ,Cn1 ,v108
 .byte   W24
 .byte   N23 ,Cn2 ,v108
 .byte   W24
 .byte   N23 ,Cn1 ,v108
 .byte   W24
 .byte   N23 ,Cn2 ,v108
 .byte   W24
@  #06 @111   ----------------------------------------
 .byte   N23 ,En1 ,v108
 .byte   W24
 .byte   N23 ,En2 ,v108
 .byte   W24
 .byte   N23 ,En1 ,v108
 .byte   W24
 .byte   N23 ,En2 ,v108
 .byte   W24
@  #06 @112   ----------------------------------------
 .byte   N23 ,Ds1 ,v108
 .byte   W24
 .byte   N23 ,Ds2 ,v108
 .byte   W24
 .byte   N23 ,Ds1 ,v108
 .byte   W24
 .byte   N23 ,Ds2 ,v108
 .byte   W24
@  #06 @113   ----------------------------------------
 .byte   N23 ,Cn1 ,v108
 .byte   W24
 .byte   N23 ,Cn2 ,v108
 .byte   W24
 .byte   N23 ,Cn1 ,v108
 .byte   W24
 .byte   N23 ,Cn2 ,v108
 .byte   W24
@  #06 @114   ----------------------------------------
 .byte   N23 ,Cn1 ,v108
 .byte   W24
 .byte   N23 ,Cn2 ,v108
 .byte   W24
 .byte   N23 ,Cn1 ,v108
 .byte   W24
 .byte   N23 ,Cn2 ,v108
 .byte   W24
@  #06 @115   ----------------------------------------
 .byte   N23 ,Cn1 ,v108
 .byte   W24
 .byte   N23 ,Cn2 ,v108
 .byte   W24
 .byte   N23 ,Cn1 ,v108
 .byte   W24
 .byte   N23 ,Cn2 ,v108
 .byte   W24
@  #06 @116   ----------------------------------------
 .byte   N23 ,Cn1 ,v108
 .byte   W24
 .byte   N23 ,Cn2 ,v108
 .byte   W24
 .byte   N23 ,Cn1 ,v108
 .byte   W24
 .byte   N23 ,Cn2 ,v108
 .byte   W24
@  #06 @117   ----------------------------------------
 .byte   N23 ,Cn1 ,v108
 .byte   W24
 .byte   N23 ,Cn2 ,v108
 .byte   W24
 .byte   N23 ,Cn1 ,v108
 .byte   W24
 .byte   N23 ,Cn2 ,v108
 .byte   W24
@  #06 @118   ----------------------------------------
 .byte   N23 ,Cn1 ,v108
 .byte   W24
 .byte   N23 ,Cn2 ,v108
 .byte   W24
 .byte   N23 ,Cn1 ,v108
 .byte   W24
 .byte   N23 ,Cn2 ,v108
 .byte   W24
@  #06 @119   ----------------------------------------
 .byte   N23 ,Dn1 ,v108
 .byte   W24
 .byte   N23 ,Dn2 ,v108
 .byte   W24
 .byte   N23 ,Dn1 ,v108
 .byte   W24
 .byte   N23 ,Dn2 ,v108
 .byte   W24
@  #06 @120   ----------------------------------------
 .byte   N23 ,Dn1 ,v108
 .byte   W24
 .byte   N23 ,Dn2 ,v108
 .byte   W24
 .byte   N23 ,Dn1 ,v108
 .byte   W24
 .byte   N23 ,Dn2 ,v108
 .byte   W24
@  #06 @121   ----------------------------------------
 .byte   N11 ,En1 ,v108
 .byte   W12
 .byte   N11 ,En1 ,v108
 .byte   W12
 .byte   N11 ,En2 ,v108
 .byte   W12
 .byte   N11 ,En2 ,v108
 .byte   W12
 .byte   N11 ,En1 ,v108
 .byte   W12
 .byte   N11 ,En1 ,v108
 .byte   W12
 .byte   N11 ,En2 ,v108
 .byte   W12
 .byte   N11 ,En2 ,v108
 .byte   W12
@  #06 @122   ----------------------------------------
 .byte   N11 ,En1 ,v108
 .byte   W12
 .byte   N11 ,En1 ,v108
 .byte   W12
 .byte   N11 ,En2 ,v108
 .byte   W12
 .byte   N11 ,En2 ,v108
 .byte   W12
 .byte   N11 ,En1 ,v108
 .byte   W12
 .byte   N11 ,En1 ,v108
 .byte   W12
 .byte   N11 ,En2 ,v108
 .byte   W12
 .byte   N11 ,En2 ,v108
 .byte   W12
@  #06 @123   ----------------------------------------
 .byte   N11 ,Bn0 ,v108
 .byte   W12
 .byte   N11 ,Bn0 ,v108
 .byte   W12
 .byte   N11 ,Bn1 ,v108
 .byte   W12
 .byte   N11 ,Bn1 ,v108
 .byte   W12
 .byte   N11 ,Bn0 ,v108
 .byte   W12
 .byte   N11 ,Bn0 ,v108
 .byte   W12
 .byte   N11 ,Bn1 ,v108
 .byte   W12
 .byte   N11 ,Bn1 ,v108
 .byte   W12
@  #06 @124   ----------------------------------------
 .byte   N11 ,Bn0 ,v108
 .byte   W12
 .byte   N11 ,Bn0 ,v108
 .byte   W12
 .byte   N11 ,Bn1 ,v108
 .byte   W12
 .byte   N11 ,Bn1 ,v108
 .byte   W12
 .byte   N11 ,Bn0 ,v108
 .byte   W12
 .byte   N11 ,Bn0 ,v108
 .byte   W12
 .byte   N11 ,Bn1 ,v108
 .byte   W12
 .byte   N11 ,Bn1 ,v108
 .byte   W12
@  #06 @125   ----------------------------------------
 .byte   N11 ,Cn1 ,v108
 .byte   W12
 .byte   N11 ,Cn1 ,v108
 .byte   W12
 .byte   N11 ,Cn2 ,v108
 .byte   W12
 .byte   N11 ,Cn2 ,v108
 .byte   W12
 .byte   N11 ,Cn1 ,v108
 .byte   W12
 .byte   N11 ,Cn1 ,v108
 .byte   W12
 .byte   N11 ,Cn2 ,v108
 .byte   W12
 .byte   N11 ,Cn2 ,v108
 .byte   W12
@  #06 @126   ----------------------------------------
 .byte   N11 ,Cn1 ,v108
 .byte   W12
 .byte   N11 ,Cn1 ,v108
 .byte   W12
 .byte   N11 ,Cn2 ,v108
 .byte   W12
 .byte   N11 ,Cn2 ,v108
 .byte   W12
 .byte   N11 ,Cn1 ,v108
 .byte   W12
 .byte   N11 ,Cn1 ,v108
 .byte   W12
 .byte   N11 ,Cn2 ,v108
 .byte   W12
 .byte   N11 ,Cn2 ,v108
 .byte   W12
@  #06 @127   ----------------------------------------
 .byte   N11 ,Cn1 ,v108
 .byte   W12
 .byte   N11 ,Cn1 ,v108
 .byte   W12
 .byte   N11 ,Cn2 ,v108
 .byte   W12
 .byte   N11 ,Cn2 ,v108
 .byte   W12
 .byte   N11 ,Cn1 ,v108
 .byte   W12
 .byte   N11 ,Cn1 ,v108
 .byte   W12
 .byte   N11 ,Cn2 ,v108
 .byte   W12
 .byte   N11 ,Cn2 ,v108
 .byte   W12
@  #06 @128   ----------------------------------------
 .byte   N11 ,Cn1 ,v108
 .byte   W12
 .byte   N11 ,Cn1 ,v108
 .byte   W12
 .byte   N11 ,Cn2 ,v108
 .byte   W12
 .byte   N11 ,Cn2 ,v108
 .byte   W12
 .byte   N11 ,Cn1 ,v108
 .byte   W12
 .byte   N11 ,Cn1 ,v108
 .byte   W12
 .byte   N11 ,Cn2 ,v108
 .byte   W12
 .byte   N11 ,Cn2 ,v108
 .byte   W12
@  #06 @129   ----------------------------------------
 .byte   N11 ,En1 ,v108
 .byte   W12
 .byte   N11 ,En1 ,v108
 .byte   W12
 .byte   N11 ,En2 ,v108
 .byte   W12
 .byte   N11 ,En2 ,v108
 .byte   W12
 .byte   N11 ,En1 ,v108
 .byte   W12
 .byte   N11 ,En1 ,v108
 .byte   W12
 .byte   N11 ,En2 ,v108
 .byte   W12
 .byte   N11 ,En2 ,v108
 .byte   W12
@  #06 @130   ----------------------------------------
 .byte   N11 ,En1 ,v108
 .byte   W12
 .byte   N11 ,En1 ,v108
 .byte   W12
 .byte   N11 ,En2 ,v108
 .byte   W12
 .byte   N11 ,En2 ,v108
 .byte   W12
 .byte   N11 ,En1 ,v108
 .byte   W12
 .byte   N11 ,En1 ,v108
 .byte   W12
 .byte   N11 ,En2 ,v108
 .byte   W12
 .byte   N11 ,En2 ,v108
 .byte   W12
@  #06 @131   ----------------------------------------
 .byte   N11 ,Bn0 ,v108
 .byte   W12
 .byte   N11 ,Bn0 ,v108
 .byte   W12
 .byte   N11 ,Bn1 ,v108
 .byte   W12
 .byte   N11 ,Bn1 ,v108
 .byte   W12
 .byte   N11 ,Bn0 ,v108
 .byte   W12
 .byte   N11 ,Bn0 ,v108
 .byte   W12
 .byte   N11 ,Bn1 ,v108
 .byte   W12
 .byte   N11 ,Bn1 ,v108
 .byte   W12
@  #06 @132   ----------------------------------------
 .byte   N11 ,Bn0 ,v108
 .byte   W12
 .byte   N11 ,Bn0 ,v108
 .byte   W12
 .byte   N11 ,Bn1 ,v108
 .byte   W12
 .byte   N11 ,Bn1 ,v108
 .byte   W12
 .byte   N11 ,Bn0 ,v108
 .byte   W12
 .byte   N11 ,Bn0 ,v108
 .byte   W12
 .byte   N11 ,Bn1 ,v108
 .byte   W12
 .byte   N11 ,Bn1 ,v108
 .byte   W12
@  #06 @133   ----------------------------------------
 .byte   N11 ,Cn1 ,v108
 .byte   W12
 .byte   N11 ,Cn1 ,v108
 .byte   W12
 .byte   N11 ,Cn2 ,v108
 .byte   W12
 .byte   N11 ,Cn2 ,v108
 .byte   W12
 .byte   N11 ,Cn1 ,v108
 .byte   W12
 .byte   N11 ,Cn1 ,v108
 .byte   W12
 .byte   N11 ,Cn2 ,v108
 .byte   W12
 .byte   N11 ,Cn2 ,v108
 .byte   W12
@  #06 @134   ----------------------------------------
 .byte   N11 ,Cn1 ,v108
 .byte   W12
 .byte   N11 ,Cn1 ,v108
 .byte   W12
 .byte   N11 ,Cn2 ,v108
 .byte   W12
 .byte   N11 ,Cn2 ,v108
 .byte   W12
 .byte   N11 ,Cn1 ,v108
 .byte   W12
 .byte   N11 ,Cn1 ,v108
 .byte   W12
 .byte   N11 ,Cn2 ,v108
 .byte   W12
 .byte   N11 ,Cn2 ,v108
 .byte   W12
@  #06 @135   ----------------------------------------
 .byte   N11 ,Cn1 ,v108
 .byte   W12
 .byte   N11 ,Cn1 ,v108
 .byte   W12
 .byte   N11 ,Cn2 ,v108
 .byte   W12
 .byte   N11 ,Cn2 ,v108
 .byte   W12
 .byte   N11 ,Dn1 ,v108
 .byte   W12
 .byte   N11 ,Dn1 ,v108
 .byte   W12
 .byte   N11 ,Dn2 ,v108
 .byte   W12
 .byte   N11 ,Dn2 ,v108
 .byte   W12
@  #06 @136   ----------------------------------------
 .byte   N11 ,En1 ,v108
 .byte   W12
 .byte   N11 ,En1 ,v108
 .byte   W12
 .byte   N11 ,En2 ,v108
 .byte   W12
 .byte   N11 ,En2 ,v108
 .byte   W12
 .byte   N11 ,Fs1 ,v108
 .byte   W12
 .byte   N11 ,Fs1 ,v108
 .byte   W12
 .byte   N11 ,Fs2 ,v108
 .byte   W12
 .byte   N11 ,Fs2 ,v108
 .byte   W12
@  #06 @137   ----------------------------------------
 .byte   N23 ,Cn1 ,v108
 .byte   W24
 .byte   N23 ,Cn2 ,v108
 .byte   W24
 .byte   N23 ,Cn1 ,v108
 .byte   W24
 .byte   N23 ,Cn2 ,v108
 .byte   W24
@  #06 @138   ----------------------------------------
 .byte   N23 ,Cn1 ,v108
 .byte   W24
 .byte   N23 ,Cn2 ,v108
 .byte   W24
 .byte   N23 ,Cn1 ,v108
 .byte   W24
 .byte   N23 ,Cn2 ,v108
 .byte   W24
@  #06 @139   ----------------------------------------
 .byte   N23 ,Dn1 ,v108
 .byte   W24
 .byte   N23 ,Dn2 ,v108
 .byte   W24
 .byte   N23 ,Dn1 ,v108
 .byte   W24
 .byte   N23 ,Dn2 ,v108
 .byte   W24
@  #06 @140   ----------------------------------------
 .byte   N23 ,Dn1 ,v108
 .byte   W24
 .byte   N23 ,Dn2 ,v108
 .byte   W24
 .byte   N23 ,Dn1 ,v108
 .byte   W24
 .byte   N23 ,Dn2 ,v108
 .byte   W24
@  #06 @141   ----------------------------------------
 .byte   N23 ,En1 ,v108
 .byte   W24
 .byte   N23 ,En2 ,v108
 .byte   W24
 .byte   N23 ,En1 ,v108
 .byte   W24
 .byte   N23 ,En2 ,v108
 .byte   W24
@  #06 @142   ----------------------------------------
 .byte   N23 ,En1 ,v108
 .byte   W24
 .byte   N23 ,En2 ,v108
 .byte   W24
 .byte   N23 ,En1 ,v108
 .byte   W24
 .byte   N23 ,En2 ,v108
 .byte   W24
@  #06 @143   ----------------------------------------
 .byte   N23 ,Bn1 ,v108
 .byte   W24
 .byte   N23 ,Bn2 ,v108
 .byte   W24
 .byte   N23 ,Bn1 ,v108
 .byte   W24
 .byte   N23 ,Bn2 ,v108
 .byte   W24
@  #06 @144   ----------------------------------------
 .byte   N23 ,Bn1 ,v108
 .byte   W24
 .byte   N23 ,Bn2 ,v108
 .byte   W24
 .byte   N23 ,Bn1 ,v108
 .byte   W24
 .byte   N23 ,Bn2 ,v108
 .byte   W24
@  #06 @145   ----------------------------------------
 .byte   N23 ,Cn1 ,v108
 .byte   W24
 .byte   N23 ,Cn2 ,v108
 .byte   W24
 .byte   N23 ,Cn1 ,v108
 .byte   W24
 .byte   N23 ,Cn2 ,v108
 .byte   W24
@  #06 @146   ----------------------------------------
 .byte   N23 ,Cn1 ,v108
 .byte   W24
 .byte   N23 ,Cn2 ,v108
 .byte   W24
 .byte   N23 ,Cn1 ,v108
 .byte   W24
 .byte   N23 ,Cn2 ,v108
 .byte   W24
@  #06 @147   ----------------------------------------
 .byte   N23 ,Dn1 ,v108
 .byte   W24
 .byte   N23 ,Dn2 ,v108
 .byte   W24
 .byte   N23 ,Dn1 ,v108
 .byte   W24
 .byte   N23 ,Dn2 ,v108
 .byte   W24
@  #06 @148   ----------------------------------------
 .byte   N23 ,Dn1 ,v108
 .byte   W24
 .byte   N23 ,Dn2 ,v108
 .byte   W24
 .byte   N23 ,Dn1 ,v108
 .byte   W24
 .byte   N23 ,Dn2 ,v108
 .byte   W24
@  #06 @149   ----------------------------------------
 .byte   N23 ,Bn1 ,v108
 .byte   W24
 .byte   N23 ,Bn2 ,v108
 .byte   W24
 .byte   N23 ,Bn1 ,v108
 .byte   W24
 .byte   N23 ,Bn2 ,v108
 .byte   W24
@  #06 @150   ----------------------------------------
 .byte   N23 ,Bn1 ,v108
 .byte   W24
 .byte   N23 ,Bn2 ,v108
 .byte   W24
 .byte   N23 ,Bn1 ,v108
 .byte   W24
 .byte   N23 ,Bn2 ,v108
 .byte   W24
@  #06 @151   ----------------------------------------
 .byte   N23 ,Bn1 ,v108
 .byte   W24
 .byte   N23 ,Bn2 ,v108
 .byte   W24
 .byte   N23 ,Bn1 ,v108
 .byte   W24
 .byte   N23 ,Bn2 ,v108
 .byte   W24
@  #06 @152   ----------------------------------------
 .byte   N23 ,Cn2 ,v108
 .byte   W24
 .byte   N23 ,En2 ,v108
 .byte   W24
 .byte   N23 ,Dn2 ,v108
 .byte   W24
 .byte   N23 ,Fs2 ,v108
 .byte   W24
@  #06 @153   ----------------------------------------
 .byte   N23 ,Cn1 ,v108
 .byte   W24
 .byte   N23 ,Cn2 ,v108
 .byte   W24
 .byte   N23 ,Cn1 ,v108
 .byte   W24
 .byte   N23 ,Cn2 ,v108
 .byte   W24
@  #06 @154   ----------------------------------------
 .byte   N23 ,Cn1 ,v108
 .byte   W24
 .byte   N23 ,Cn2 ,v108
 .byte   W24
 .byte   N23 ,Cn1 ,v108
 .byte   W24
 .byte   N23 ,Cn2 ,v108
 .byte   W24
@  #06 @155   ----------------------------------------
 .byte   N23 ,Cn1 ,v108
 .byte   W24
 .byte   N23 ,Cn2 ,v108
 .byte   W24
 .byte   N23 ,Cn1 ,v108
 .byte   W24
 .byte   N23 ,Cn2 ,v108
 .byte   W24
@  #06 @156   ----------------------------------------
 .byte   N23 ,Cn1 ,v108
 .byte   W24
 .byte   N23 ,Cn2 ,v108
 .byte   W24
 .byte   N23 ,Cn1 ,v108
 .byte   W24
 .byte   N23 ,Cn2 ,v108
 .byte   W24
@  #06 @157   ----------------------------------------
 .byte   N23 ,Cn1 ,v108
 .byte   W24
 .byte   N23 ,Cn2 ,v108
 .byte   W24
 .byte   N23 ,Cn1 ,v108
 .byte   W24
 .byte   N23 ,Cn2 ,v108
 .byte   W24
@  #06 @158   ----------------------------------------
 .byte   N23 ,Cn1 ,v108
 .byte   W24
 .byte   N23 ,Cn2 ,v108
 .byte   W24
 .byte   N23 ,Cn1 ,v108
 .byte   W24
 .byte   N23 ,Cn2 ,v108
 .byte   W24
@  #06 @159   ----------------------------------------
 .byte   N23 ,En1 ,v108
 .byte   W24
 .byte   N23 ,En2 ,v108
 .byte   W24
 .byte   N23 ,En1 ,v108
 .byte   W24
 .byte   N23 ,En2 ,v108
 .byte   W24
@  #06 @160   ----------------------------------------
 .byte   N23 ,Ds1 ,v108
 .byte   W24
 .byte   N23 ,Ds2 ,v108
 .byte   W24
 .byte   N23 ,Ds1 ,v108
 .byte   W24
 .byte   N23 ,Ds2 ,v108
 .byte   W24
@  #06 @161   ----------------------------------------
 .byte   N23 ,Cn1 ,v108
 .byte   W24
 .byte   N23 ,Cn2 ,v108
 .byte   W24
 .byte   N23 ,Cn1 ,v108
 .byte   W24
 .byte   N23 ,Cn2 ,v108
 .byte   W24
@  #06 @162   ----------------------------------------
 .byte   N23 ,Cn1 ,v108
 .byte   W24
 .byte   N23 ,Cn2 ,v108
 .byte   W24
 .byte   N23 ,Cn1 ,v108
 .byte   W24
 .byte   N23 ,Cn2 ,v108
 .byte   W24
@  #06 @163   ----------------------------------------
 .byte   N23 ,Cn1 ,v108
 .byte   W24
 .byte   N23 ,Cn2 ,v108
 .byte   W24
 .byte   N23 ,Cn1 ,v108
 .byte   W24
 .byte   N23 ,Cn2 ,v108
 .byte   W24
@  #06 @164   ----------------------------------------
 .byte   N23 ,Cn1 ,v108
 .byte   W24
 .byte   N23 ,Cn2 ,v108
 .byte   W24
 .byte   N23 ,Cn1 ,v108
 .byte   W24
 .byte   N23 ,Cn2 ,v108
 .byte   W24
@  #06 @165   ----------------------------------------
 .byte   N23 ,Cn1 ,v108
 .byte   W24
 .byte   N23 ,Cn2 ,v108
 .byte   W24
 .byte   N23 ,Cn1 ,v108
 .byte   W24
 .byte   N23 ,Cn2 ,v108
 .byte   W24
@  #06 @166   ----------------------------------------
 .byte   N23 ,Cn1 ,v108
 .byte   W24
 .byte   N23 ,Cn2 ,v108
 .byte   W24
 .byte   N23 ,Cn1 ,v108
 .byte   W24
 .byte   N23 ,Cn2 ,v108
 .byte   W24
@  #06 @167   ----------------------------------------
 .byte   N23 ,Dn1 ,v108
 .byte   W24
 .byte   N23 ,Dn2 ,v108
 .byte   W24
 .byte   N23 ,Dn1 ,v108
 .byte   W24
 .byte   N23 ,Dn2 ,v108
 .byte   W24
@  #06 @168   ----------------------------------------
 .byte   N23 ,Dn1 ,v108
 .byte   W24
 .byte   N23 ,Dn2 ,v108
 .byte   W24
 .byte   N23 ,Dn1 ,v108
 .byte   W24
 .byte   N23 ,Dn2 ,v108
 .byte   W96
@  #06 @169   ----------------------------------------
 .byte   W24
 .byte   W96
@  #06 @170   ----------------------------------------
 .byte   W96
@  #06 @171   ----------------------------------------
 .byte   W96
@  #06 @172   ----------------------------------------
 .byte   W96
@  #06 @173   ----------------------------------------
 .byte   W96
@  #06 @174   ----------------------------------------
 .byte   W96
@  #06 @175   ----------------------------------------
 .byte   W96
@  #06 @176   ----------------------------------------
 .byte   W96
@  #06 @177   ----------------------------------------
 .byte   W96
@  #06 @178   ----------------------------------------
 .byte   W96
@  #06 @179   ----------------------------------------
 .byte   W96
@  #06 @180   ----------------------------------------
 .byte   W96
@  #06 @181   ----------------------------------------
 .byte   W96
@  #06 @182   ----------------------------------------
 .byte   W96
@  #06 @183   ----------------------------------------
 .byte   W96
@  #06 @184   ----------------------------------------
 .byte   W96
@  #06 @185   ----------------------------------------
 .byte   W96
@  #06 @186   ----------------------------------------
 .byte   W96
@  #06 @187   ----------------------------------------
 .byte   W96
@  #06 @188   ----------------------------------------
 .byte   W96
@  #06 @189   ----------------------------------------
 .byte   W96
@  #06 @190   ----------------------------------------
 .byte   W96
@  #06 @191   ----------------------------------------
 .byte   W96
@  #06 @192   ----------------------------------------
 .byte   W96
@  #06 @193   ----------------------------------------
 .byte   W96
@  #06 @194   ----------------------------------------
 .byte   W96
@  #06 @195   ----------------------------------------
 .byte   W96
@  #06 @196   ----------------------------------------
 .byte   W96
@  #06 @197   ----------------------------------------
 .byte   W96
@  #06 @198   ----------------------------------------
 .byte   W96
@  #06 @199   ----------------------------------------
 .byte   W96
@  #06 @200   ----------------------------------------
 .byte   W96
@  #06 @201   ----------------------------------------
 .byte   W96
@  #06 @202   ----------------------------------------
 .byte   W96
@  #06 @203   ----------------------------------------
 .byte   W96
@  #06 @204   ----------------------------------------
 .byte   W96
@  #06 @205   ----------------------------------------
 .byte   W96
@  #06 @206   ----------------------------------------
 .byte   W96
@  #06 @207   ----------------------------------------
 .byte   W96
@  #06 @208   ----------------------------------------
 .byte   N11 ,Fs1 ,v108
 .byte   W12
 .byte   N11 ,Fs1 ,v108
 .byte   W12
 .byte   N11 ,Fs2 ,v108
 .byte   W12
 .byte   N11 ,Fs2 ,v108
 .byte   W12
 .byte   N11 ,Fs1 ,v108
 .byte   W12
 .byte   N11 ,Fs1 ,v108
 .byte   W12
 .byte   N11 ,Fs2 ,v108
 .byte   W12
 .byte   N11 ,Fs2 ,v108
 .byte   W12
@  #06 @209   ----------------------------------------
 .byte   N11 ,Fs1 ,v108
 .byte   W12
 .byte   N11 ,Fs1 ,v108
 .byte   W12
 .byte   N11 ,Fs2 ,v108
 .byte   W12
 .byte   N11 ,Fs2 ,v108
 .byte   W12
 .byte   N11 ,Fs1 ,v108
 .byte   W12
 .byte   N11 ,Fs1 ,v108
 .byte   W12
 .byte   N11 ,Fs2 ,v108
 .byte   W12
 .byte   N11 ,Fs2 ,v108
 .byte   W12
@  #06 @210   ----------------------------------------
 .byte   N11 ,Fs1 ,v108
 .byte   W12
 .byte   N11 ,Fs1 ,v108
 .byte   W12
 .byte   N11 ,Fs2 ,v108
 .byte   W12
 .byte   N11 ,Fs2 ,v108
 .byte   W12
 .byte   N11 ,Fs1 ,v108
 .byte   W12
 .byte   N11 ,Fs1 ,v108
 .byte   W12
 .byte   N11 ,Fs2 ,v108
 .byte   W12
 .byte   N11 ,Fs2 ,v108
 .byte   W12
@  #06 @211   ----------------------------------------
 .byte   N11 ,Fs1 ,v108
 .byte   W12
 .byte   N11 ,Fs1 ,v108
 .byte   W12
 .byte   N11 ,Fs2 ,v108
 .byte   W12
 .byte   N11 ,Fs2 ,v108
 .byte   W12
 .byte   N11 ,Fs1 ,v108
 .byte   W12
 .byte   N11 ,Fs1 ,v108
 .byte   W12
 .byte   N11 ,Fs2 ,v108
 .byte   W12
 .byte   N11 ,Fs2 ,v108
 .byte   W12
@  #06 @212   ----------------------------------------
 .byte   N11 ,En1 ,v108
 .byte   W12
 .byte   N11 ,En1 ,v108
 .byte   W12
 .byte   N11 ,En2 ,v108
 .byte   W12
 .byte   N11 ,En2 ,v108
 .byte   W12
 .byte   N11 ,En1 ,v108
 .byte   W12
 .byte   N11 ,En1 ,v108
 .byte   W12
 .byte   N11 ,En2 ,v108
 .byte   W12
 .byte   N11 ,En2 ,v108
 .byte   W12
@  #06 @213   ----------------------------------------
 .byte   N11 ,En1 ,v108
 .byte   W12
 .byte   N11 ,En1 ,v108
 .byte   W12
 .byte   N11 ,En2 ,v108
 .byte   W12
 .byte   N11 ,En2 ,v108
 .byte   W12
 .byte   N11 ,En1 ,v108
 .byte   W12
 .byte   N11 ,En1 ,v108
 .byte   W12
 .byte   N11 ,En2 ,v108
 .byte   W12
 .byte   N11 ,En2 ,v108
 .byte   W12
@  #06 @214   ----------------------------------------
 .byte   N11 ,Bn0 ,v108
 .byte   W12
 .byte   N11 ,Bn0 ,v108
 .byte   W12
 .byte   N11 ,Bn1 ,v108
 .byte   W12
 .byte   N11 ,Bn1 ,v108
 .byte   W12
 .byte   N11 ,Bn0 ,v108
 .byte   W12
 .byte   N11 ,Bn0 ,v108
 .byte   W12
 .byte   N11 ,Bn1 ,v108
 .byte   W12
 .byte   N11 ,Bn1 ,v108
 .byte   W12
@  #06 @215   ----------------------------------------
 .byte   N11 ,Bn0 ,v108
 .byte   W12
 .byte   N11 ,Bn0 ,v108
 .byte   W12
 .byte   N11 ,Bn1 ,v108
 .byte   W12
 .byte   N11 ,Bn1 ,v108
 .byte   W12
 .byte   N11 ,Bn0 ,v108
 .byte   W12
 .byte   N11 ,Bn0 ,v108
 .byte   W12
 .byte   N11 ,Bn1 ,v108
 .byte   W12
 .byte   N11 ,Bn1 ,v108
 .byte   W12
@  #06 @216   ----------------------------------------
 .byte   N11 ,Fs1 ,v108
 .byte   W12
 .byte   N11 ,Fs1 ,v108
 .byte   W12
 .byte   N11 ,Fs2 ,v108
 .byte   W12
 .byte   N11 ,Fs2 ,v108
 .byte   W12
 .byte   N11 ,Fs1 ,v108
 .byte   W12
 .byte   N11 ,Fs1 ,v108
 .byte   W12
 .byte   N11 ,Fs2 ,v108
 .byte   W12
 .byte   N11 ,Fs2 ,v108
 .byte   W12
@  #06 @217   ----------------------------------------
 .byte   N11 ,Fs1 ,v108
 .byte   W12
 .byte   N11 ,Fs1 ,v108
 .byte   W12
 .byte   N11 ,Fs2 ,v108
 .byte   W12
 .byte   N11 ,Fs2 ,v108
 .byte   W12
 .byte   N11 ,Fs1 ,v108
 .byte   W12
 .byte   N11 ,Fs1 ,v108
 .byte   W12
 .byte   N11 ,Fs2 ,v108
 .byte   W12
 .byte   N11 ,Fs2 ,v108
 .byte   W12
@  #06 @218   ----------------------------------------
 .byte   N11 ,Fs1 ,v108
 .byte   W12
 .byte   N11 ,Fs1 ,v108
 .byte   W12
 .byte   N11 ,Fs2 ,v108
 .byte   W12
 .byte   N11 ,Fs2 ,v108
 .byte   W12
 .byte   N11 ,Fs1 ,v108
 .byte   W12
 .byte   N11 ,Fs1 ,v108
 .byte   W12
 .byte   N11 ,Fs2 ,v108
 .byte   W12
 .byte   N11 ,Fs2 ,v108
 .byte   W12
@  #06 @219   ----------------------------------------
 .byte   N11 ,Fs1 ,v108
 .byte   W12
 .byte   N11 ,Fs1 ,v108
 .byte   W12
 .byte   N11 ,Fs2 ,v108
 .byte   W12
 .byte   N11 ,Fs2 ,v108
 .byte   W12
 .byte   N11 ,Fs1 ,v108
 .byte   W12
 .byte   N11 ,Fs1 ,v108
 .byte   W12
 .byte   N11 ,Fs2 ,v108
 .byte   W12
 .byte   N11 ,Fs2 ,v108
 .byte   W12
@  #06 @220   ----------------------------------------
 .byte   N11 ,En1 ,v108
 .byte   W12
 .byte   N11 ,En1 ,v108
 .byte   W12
 .byte   N11 ,En2 ,v108
 .byte   W12
 .byte   N11 ,En2 ,v108
 .byte   W12
 .byte   N11 ,En1 ,v108
 .byte   W12
 .byte   N11 ,En1 ,v108
 .byte   W12
 .byte   N11 ,En2 ,v108
 .byte   W12
 .byte   N11 ,En2 ,v108
 .byte   W12
@  #06 @221   ----------------------------------------
 .byte   N11 ,En1 ,v108
 .byte   W12
 .byte   N11 ,En1 ,v108
 .byte   W12
 .byte   N11 ,En2 ,v108
 .byte   W12
 .byte   N11 ,En2 ,v108
 .byte   W12
 .byte   N11 ,En1 ,v108
 .byte   W12
 .byte   N11 ,En1 ,v108
 .byte   W12
 .byte   N11 ,En2 ,v108
 .byte   W12
 .byte   N11 ,En2 ,v108
 .byte   W12
@  #06 @222   ----------------------------------------
 .byte   N11 ,Bn0 ,v108
 .byte   W12
 .byte   N11 ,Bn0 ,v108
 .byte   W12
 .byte   N11 ,Bn1 ,v108
 .byte   W12
 .byte   N11 ,Bn1 ,v108
 .byte   W12
 .byte   N11 ,Bn0 ,v108
 .byte   W12
 .byte   N11 ,Bn0 ,v108
 .byte   W12
 .byte   N11 ,Bn1 ,v108
 .byte   W12
 .byte   N11 ,Bn1 ,v108
 .byte   W12
@  #06 @223   ----------------------------------------
 .byte   N11 ,Bn0 ,v108
 .byte   W12
 .byte   N11 ,Bn0 ,v108
 .byte   W12
 .byte   N11 ,Bn1 ,v108
 .byte   W12
 .byte   N11 ,Bn1 ,v108
 .byte   W12
 .byte   N11 ,Bn0 ,v108
 .byte   W12
 .byte   N11 ,Bn0 ,v108
 .byte   W12
 .byte   N11 ,Bn1 ,v108
 .byte   W12
 .byte   N11 ,Bn1 ,v108
 .byte   W12
@  #06 @224   ----------------------------------------
 .byte   N23 ,Cn1 ,v108
 .byte   W24
 .byte   N23 ,Cn2 ,v108
 .byte   W24
 .byte   N23 ,Cn1 ,v108
 .byte   W24
 .byte   N23 ,Cn2 ,v108
 .byte   W24
@  #06 @225   ----------------------------------------
 .byte   N23 ,Cn1 ,v108
 .byte   W24
 .byte   N23 ,Cn2 ,v108
 .byte   W24
 .byte   N23 ,Cn1 ,v108
 .byte   W24
 .byte   N23 ,Cn2 ,v108
 .byte   W24
@  #06 @226   ----------------------------------------
 .byte   N23 ,Dn1 ,v108
 .byte   W24
 .byte   N23 ,Dn2 ,v108
 .byte   W24
 .byte   N23 ,Dn1 ,v108
 .byte   W24
 .byte   N23 ,Dn2 ,v108
 .byte   W24
@  #06 @227   ----------------------------------------
 .byte   N23 ,Dn1 ,v108
 .byte   W24
 .byte   N23 ,Dn2 ,v108
 .byte   W24
 .byte   N23 ,Dn1 ,v108
 .byte   W24
 .byte   N23 ,Dn2 ,v108
 .byte   W24
@  #06 @228   ----------------------------------------
 .byte   N23 ,En1 ,v108
 .byte   W24
 .byte   N23 ,En2 ,v108
 .byte   W24
 .byte   N23 ,En1 ,v108
 .byte   W24
 .byte   N23 ,En2 ,v108
 .byte   W24
@  #06 @229   ----------------------------------------
 .byte   N23 ,En1 ,v108
 .byte   W24
 .byte   N23 ,En2 ,v108
 .byte   W24
 .byte   N23 ,En1 ,v108
 .byte   W24
 .byte   N23 ,En2 ,v108
 .byte   W24
@  #06 @230   ----------------------------------------
 .byte   N23 ,Bn1 ,v108
 .byte   W24
 .byte   N23 ,Bn2 ,v108
 .byte   W24
 .byte   N23 ,Bn1 ,v108
 .byte   W24
 .byte   N23 ,Bn2 ,v108
 .byte   W24
@  #06 @231   ----------------------------------------
 .byte   N23 ,Bn1 ,v108
 .byte   W24
 .byte   N23 ,Bn2 ,v108
 .byte   W24
 .byte   N23 ,Bn1 ,v108
 .byte   W24
 .byte   N23 ,Bn2 ,v108
 .byte   W24
@  #06 @232   ----------------------------------------
 .byte   N23 ,Cn1 ,v108
 .byte   W24
 .byte   N23 ,Cn2 ,v108
 .byte   W24
 .byte   N23 ,Cn1 ,v108
 .byte   W24
 .byte   N23 ,Cn2 ,v108
 .byte   W24
@  #06 @233   ----------------------------------------
 .byte   N23 ,Cn1 ,v108
 .byte   W24
 .byte   N23 ,Cn2 ,v108
 .byte   W24
 .byte   N23 ,Cn1 ,v108
 .byte   W24
 .byte   N23 ,Cn2 ,v108
 .byte   W24
@  #06 @234   ----------------------------------------
 .byte   N23 ,Dn1 ,v108
 .byte   W24
 .byte   N23 ,Dn2 ,v108
 .byte   W24
 .byte   N23 ,Dn1 ,v108
 .byte   W24
 .byte   N23 ,Dn2 ,v108
 .byte   W24
@  #06 @235   ----------------------------------------
 .byte   N23 ,Dn1 ,v108
 .byte   W24
 .byte   N23 ,Dn2 ,v108
 .byte   W24
 .byte   N23 ,Dn1 ,v108
 .byte   W24
 .byte   N23 ,Dn2 ,v108
 .byte   W24
@  #06 @236   ----------------------------------------
 .byte   N23 ,Bn1 ,v108
 .byte   W24
 .byte   N23 ,Bn2 ,v108
 .byte   W24
 .byte   N23 ,Bn1 ,v108
 .byte   W24
 .byte   N23 ,Bn2 ,v108
 .byte   W24
@  #06 @237   ----------------------------------------
 .byte   N23 ,Bn1 ,v108
 .byte   W24
 .byte   N23 ,Bn2 ,v108
 .byte   W24
 .byte   N23 ,Bn1 ,v108
 .byte   W24
 .byte   N23 ,Bn2 ,v108
 .byte   W24
@  #06 @238   ----------------------------------------
 .byte   N23 ,Bn1 ,v108
 .byte   W24
 .byte   N23 ,Bn2 ,v108
 .byte   W24
 .byte   N23 ,Bn1 ,v108
 .byte   W24
 .byte   N23 ,Bn2 ,v108
 .byte   W24
@  #06 @239   ----------------------------------------
 .byte   N23 ,Cn2 ,v108
 .byte   W24
 .byte   N23 ,En2 ,v108
 .byte   W24
 .byte   N23 ,Dn2 ,v108
 .byte   W24
 .byte   N23 ,Fs2 ,v108
 .byte   W24
@  #06 @240   ----------------------------------------
 .byte   N84 ,En1 ,v108
 .byte   W96
@  #06 @241   ----------------------------------------
 .byte   N84 ,Bn1 ,v108
 .byte   W96
@  #06 @242   ----------------------------------------
 .byte   N84 ,As1 ,v108
 .byte   W96
@  #06 @243   ----------------------------------------
 .byte   N84 ,Cs2 ,v108
 .byte   W96
@  #06 @244   ----------------------------------------
 .byte   N84 ,En1 ,v108
 .byte   W96
@  #06 @245   ----------------------------------------
 .byte   N84 ,Bn1 ,v108
 .byte   W96
@  #06 @246   ----------------------------------------
 .byte   N84 ,As1 ,v108
 .byte   W96
@  #06 @247   ----------------------------------------
 .byte   N84 ,Fs1 ,v108
 .byte   W96
@  #06 @248   ----------------------------------------
 .byte   N84 ,En1 ,v108
 .byte   W96
@  #06 @249   ----------------------------------------
 .byte   N84 ,Bn1 ,v108
 .byte   W96
@  #06 @250   ----------------------------------------
 .byte   N84 ,As1 ,v108
 .byte   W96
@  #06 @251   ----------------------------------------
 .byte   N84 ,Cs2 ,v108
 .byte   W96
@  #06 @252   ----------------------------------------
 .byte   N84 ,En1 ,v108
 .byte   W96
@  #06 @253   ----------------------------------------
 .byte   N84 ,Bn1 ,v108
 .byte   W96
@  #06 @254   ----------------------------------------
 .byte   N84 ,As1 ,v108
 .byte   W96
@  #06 @255   ----------------------------------------
 .byte   N84 ,Fs1 ,v108
 .byte   W96
@  #06 @256   ----------------------------------------
 .byte   N11 ,En1 ,v108
 .byte   W12
 .byte   N11 ,En1 ,v108
 .byte   W12
 .byte   N11 ,Bn1 ,v108
 .byte   W12
 .byte   N11 ,Bn1 ,v108
 .byte   W12
 .byte   N11 ,En1 ,v108
 .byte   W12
 .byte   N11 ,En1 ,v108
 .byte   W12
 .byte   N11 ,Bn1 ,v108
 .byte   W12
 .byte   N11 ,Bn1 ,v108
 .byte   W12
@  #06 @257   ----------------------------------------
 .byte   N11 ,En1 ,v108
 .byte   W12
 .byte   N11 ,En1 ,v108
 .byte   W12
 .byte   N11 ,Bn1 ,v108
 .byte   W12
 .byte   N11 ,Bn1 ,v108
 .byte   W12
 .byte   N11 ,En1 ,v108
 .byte   W12
 .byte   N11 ,En1 ,v108
 .byte   W12
 .byte   N11 ,Bn1 ,v108
 .byte   W12
 .byte   N11 ,Bn1 ,v108
 .byte   W12
@  #06 @258   ----------------------------------------
 .byte   N11 ,As1 ,v108
 .byte   W12
 .byte   N11 ,As1 ,v108
 .byte   W12
 .byte   N11 ,Cs2 ,v108
 .byte   W12
 .byte   N11 ,Cs2 ,v108
 .byte   W12
 .byte   N11 ,As1 ,v108
 .byte   W12
 .byte   N11 ,As1 ,v108
 .byte   W12
 .byte   N11 ,Cs2 ,v108
 .byte   W12
 .byte   N11 ,Cs2 ,v108
 .byte   W12
@  #06 @259   ----------------------------------------
 .byte   N11 ,As1 ,v108
 .byte   W12
 .byte   N11 ,As1 ,v108
 .byte   W12
 .byte   N11 ,Cs2 ,v108
 .byte   W12
 .byte   N11 ,Cs2 ,v108
 .byte   W12
 .byte   N11 ,As1 ,v108
 .byte   W12
 .byte   N11 ,As1 ,v108
 .byte   W12
 .byte   N11 ,Cs2 ,v108
 .byte   W12
 .byte   N11 ,Cs2 ,v108
 .byte   W12
@  #06 @260   ----------------------------------------
 .byte   N11 ,En1 ,v108
 .byte   W12
 .byte   N11 ,En1 ,v108
 .byte   W12
 .byte   N11 ,Bn1 ,v108
 .byte   W12
 .byte   N11 ,Bn1 ,v108
 .byte   W12
 .byte   N11 ,En1 ,v108
 .byte   W12
 .byte   N11 ,En1 ,v108
 .byte   W12
 .byte   N11 ,Bn1 ,v108
 .byte   W12
 .byte   N11 ,Bn1 ,v108
 .byte   W12
@  #06 @261   ----------------------------------------
 .byte   N11 ,En1 ,v108
 .byte   W12
 .byte   N11 ,En1 ,v108
 .byte   W12
 .byte   N11 ,Bn1 ,v108
 .byte   W12
 .byte   N11 ,Bn1 ,v108
 .byte   W12
 .byte   N11 ,En1 ,v108
 .byte   W12
 .byte   N11 ,En1 ,v108
 .byte   W12
 .byte   N11 ,Bn1 ,v108
 .byte   W12
 .byte   N11 ,Bn1 ,v108
 .byte   W12
@  #06 @262   ----------------------------------------
 .byte   N11 ,As1 ,v108
 .byte   W12
 .byte   N11 ,As1 ,v108
 .byte   W12
 .byte   N11 ,Cs2 ,v108
 .byte   W12
 .byte   N11 ,Cs2 ,v108
 .byte   W12
 .byte   N11 ,As1 ,v108
 .byte   W12
 .byte   N11 ,As1 ,v108
 .byte   W12
 .byte   N11 ,Cs2 ,v108
 .byte   W12
 .byte   N11 ,Cs2 ,v108
 .byte   W12
@  #06 @263   ----------------------------------------
 .byte   N11 ,As1 ,v108
 .byte   W12
 .byte   N11 ,As1 ,v108
 .byte   W12
 .byte   N11 ,Cs2 ,v108
 .byte   W12
 .byte   N11 ,Cs2 ,v108
 .byte   W12
 .byte   N11 ,As1 ,v108
 .byte   W12
 .byte   N11 ,As1 ,v108
 .byte   W12
 .byte   N11 ,Cs2 ,v108
 .byte   W12
 .byte   N11 ,Cs2 ,v108
 .byte   W12
@  #06 @264   ----------------------------------------
 .byte   N11 ,En1 ,v108
 .byte   W12
 .byte   N11 ,En1 ,v108
 .byte   W12
 .byte   N11 ,Bn1 ,v108
 .byte   W12
 .byte   N11 ,Bn1 ,v108
 .byte   W12
 .byte   N11 ,En1 ,v108
 .byte   W12
 .byte   N11 ,En1 ,v108
 .byte   W12
 .byte   N11 ,Bn1 ,v108
 .byte   W12
 .byte   N11 ,Bn1 ,v108
 .byte   W12
@  #06 @265   ----------------------------------------
 .byte   N11 ,En1 ,v108
 .byte   W12
 .byte   N11 ,En1 ,v108
 .byte   W12
 .byte   N11 ,Bn1 ,v108
 .byte   W12
 .byte   N11 ,Bn1 ,v108
 .byte   W12
 .byte   N11 ,En1 ,v108
 .byte   W12
 .byte   N11 ,En1 ,v108
 .byte   W12
 .byte   N11 ,Bn1 ,v108
 .byte   W12
 .byte   N11 ,Bn1 ,v108
 .byte   W12
@  #06 @266   ----------------------------------------
 .byte   N11 ,As1 ,v108
 .byte   W12
 .byte   N11 ,As1 ,v108
 .byte   W12
 .byte   N11 ,Cs2 ,v108
 .byte   W12
 .byte   N11 ,Cs2 ,v108
 .byte   W12
 .byte   N11 ,As1 ,v108
 .byte   W12
 .byte   N11 ,As1 ,v108
 .byte   W12
 .byte   N11 ,Cs2 ,v108
 .byte   W12
 .byte   N11 ,Cs2 ,v108
 .byte   W12
@  #06 @267   ----------------------------------------
 .byte   N11 ,As1 ,v108
 .byte   W12
 .byte   N11 ,As1 ,v108
 .byte   W12
 .byte   N11 ,Cs2 ,v108
 .byte   W12
 .byte   N11 ,Cs2 ,v108
 .byte   W12
 .byte   N11 ,As1 ,v108
 .byte   W12
 .byte   N11 ,As1 ,v108
 .byte   W12
 .byte   N11 ,Cs2 ,v108
 .byte   W12
 .byte   N11 ,Cs2 ,v108
 .byte   W12
@  #06 @268   ----------------------------------------
 .byte   N11 ,En1 ,v108
 .byte   W12
 .byte   N11 ,En1 ,v108
 .byte   W12
 .byte   N11 ,Bn1 ,v108
 .byte   W12
 .byte   N11 ,Bn1 ,v108
 .byte   W12
 .byte   N11 ,En1 ,v108
 .byte   W12
 .byte   N11 ,En1 ,v108
 .byte   W12
 .byte   N11 ,Bn1 ,v108
 .byte   W12
 .byte   N11 ,Bn1 ,v108
 .byte   W12
@  #06 @269   ----------------------------------------
 .byte   N11 ,En1 ,v108
 .byte   W12
 .byte   N11 ,En1 ,v108
 .byte   W12
 .byte   N11 ,Bn1 ,v108
 .byte   W12
 .byte   N11 ,Bn1 ,v108
 .byte   W12
 .byte   N11 ,En1 ,v108
 .byte   W12
 .byte   N11 ,En1 ,v108
 .byte   W12
 .byte   N11 ,Bn1 ,v108
 .byte   W12
 .byte   N11 ,Bn1 ,v108
 .byte   W12
@  #06 @270   ----------------------------------------
 .byte   N11 ,As1 ,v108
 .byte   W12
 .byte   N11 ,As1 ,v108
 .byte   W12
 .byte   N11 ,Cs2 ,v108
 .byte   W12
 .byte   N11 ,Cs2 ,v108
 .byte   W12
 .byte   N11 ,As1 ,v108
 .byte   W12
 .byte   N11 ,As1 ,v108
 .byte   W12
 .byte   N11 ,Cs2 ,v108
 .byte   W12
 .byte   N11 ,Cs2 ,v108
 .byte   W12
@  #06 @271   ----------------------------------------
 .byte   N11 ,As1 ,v108
 .byte   W12
 .byte   N11 ,As1 ,v108
 .byte   W12
 .byte   N11 ,Cs2 ,v108
 .byte   W12
 .byte   N11 ,Cs2 ,v108
 .byte   W12
 .byte   N11 ,As1 ,v108
 .byte   W12
 .byte   N11 ,As1 ,v108
 .byte   W12
 .byte   N11 ,Cs2 ,v108
 .byte   W12
 .byte   N11 ,Cs2 ,v108
 .byte   W12
@  #06 @272   ----------------------------------------
 .byte   N23 ,Dn2 ,v108
 .byte   W24
 .byte   N23 ,An1 ,v108
 .byte   W24
 .byte   N23 ,Dn2 ,v108
 .byte   W24
 .byte   N23 ,An1 ,v108
 .byte   W24
@  #06 @273   ----------------------------------------
 .byte   N23 ,Dn2 ,v108
 .byte   W24
 .byte   N23 ,An1 ,v108
 .byte   W24
 .byte   N23 ,Dn2 ,v108
 .byte   W24
 .byte   N23 ,An1 ,v108
 .byte   W24
@  #06 @274   ----------------------------------------
 .byte   N23 ,Dn2 ,v108
 .byte   W24
 .byte   N23 ,An1 ,v108
 .byte   W24
 .byte   N23 ,Dn2 ,v108
 .byte   W24
 .byte   N23 ,An1 ,v108
 .byte   W24
@  #06 @275   ----------------------------------------
 .byte   N23 ,Dn2 ,v108
 .byte   W24
 .byte   N23 ,An1 ,v108
 .byte   W24
 .byte   N23 ,Dn2 ,v108
 .byte   W24
 .byte   N23 ,An1 ,v108
 .byte   W96
@  #06 @276   ----------------------------------------
 .byte   W24
 .byte   W96
@  #06 @277   ----------------------------------------
 .byte   N11 ,Fs1 ,v108
 .byte   W12
 .byte   N11 ,Fs1 ,v108
 .byte   W12
 .byte   N11 ,Fs2 ,v108
 .byte   W12
 .byte   N11 ,Fs2 ,v108
 .byte   W12
 .byte   N11 ,Fs1 ,v108
 .byte   W12
 .byte   N11 ,Fs1 ,v108
 .byte   W12
 .byte   N11 ,Fs2 ,v108
 .byte   W12
 .byte   N11 ,Fs2 ,v108
 .byte   W12
@  #06 @278   ----------------------------------------
 .byte   N11 ,Fs1 ,v108
 .byte   W12
 .byte   N11 ,Fs1 ,v108
 .byte   W12
 .byte   N11 ,Fs2 ,v108
 .byte   W12
 .byte   N11 ,Fs2 ,v108
 .byte   W12
 .byte   N11 ,Fs1 ,v108
 .byte   W12
 .byte   N11 ,Fs1 ,v108
 .byte   W12
 .byte   N11 ,Fs2 ,v108
 .byte   W12
 .byte   N11 ,Fs2 ,v108
 .byte   W12
@  #06 @279   ----------------------------------------
 .byte   N11 ,Fs1 ,v108
 .byte   W12
 .byte   N11 ,Fs1 ,v108
 .byte   W12
 .byte   N11 ,Fs2 ,v108
 .byte   W12
 .byte   N11 ,Fs2 ,v108
 .byte   W12
 .byte   N11 ,Fs1 ,v108
 .byte   W12
 .byte   N11 ,Fs1 ,v108
 .byte   W12
 .byte   N11 ,Fs2 ,v108
 .byte   W12
 .byte   N11 ,Fs2 ,v108
 .byte   W12
@  #06 @280   ----------------------------------------
 .byte   N11 ,Fs1 ,v108
 .byte   W12
 .byte   N11 ,Fs1 ,v108
 .byte   W12
 .byte   N11 ,Fs2 ,v108
 .byte   W12
 .byte   N11 ,Fs2 ,v108
 .byte   W12
 .byte   N11 ,Fs1 ,v108
 .byte   W12
 .byte   N11 ,Fs1 ,v108
 .byte   W12
 .byte   N11 ,Fs2 ,v108
 .byte   W12
 .byte   N11 ,Fs2 ,v108
 .byte   W12
@  #06 @281   ----------------------------------------
 .byte   N11 ,En1 ,v108
 .byte   W12
 .byte   N11 ,En1 ,v108
 .byte   W12
 .byte   N11 ,En2 ,v108
 .byte   W12
 .byte   N11 ,En2 ,v108
 .byte   W12
 .byte   N11 ,En1 ,v108
 .byte   W12
 .byte   N11 ,En1 ,v108
 .byte   W12
 .byte   N11 ,En2 ,v108
 .byte   W12
 .byte   N11 ,En2 ,v108
 .byte   W12
@  #06 @282   ----------------------------------------
 .byte   N11 ,En1 ,v108
 .byte   W12
 .byte   N11 ,En1 ,v108
 .byte   W12
 .byte   N11 ,En2 ,v108
 .byte   W12
 .byte   N11 ,En2 ,v108
 .byte   W12
 .byte   N11 ,En1 ,v108
 .byte   W12
 .byte   N11 ,En1 ,v108
 .byte   W12
 .byte   N11 ,En2 ,v108
 .byte   W12
 .byte   N11 ,En2 ,v108
 .byte   W12
@  #06 @283   ----------------------------------------
 .byte   N11 ,Bn0 ,v108
 .byte   W12
 .byte   N11 ,Bn0 ,v108
 .byte   W12
 .byte   N11 ,Bn1 ,v108
 .byte   W12
 .byte   N11 ,Bn1 ,v108
 .byte   W12
 .byte   N11 ,Bn0 ,v108
 .byte   W12
 .byte   N11 ,Bn0 ,v108
 .byte   W12
 .byte   N11 ,Bn1 ,v108
 .byte   W12
 .byte   N11 ,Bn1 ,v108
 .byte   W12
@  #06 @284   ----------------------------------------
 .byte   N11 ,Bn0 ,v108
 .byte   W12
 .byte   N11 ,Bn0 ,v108
 .byte   W12
 .byte   N11 ,Bn1 ,v108
 .byte   W12
 .byte   N11 ,Bn1 ,v108
 .byte   W12
 .byte   N11 ,Bn0 ,v108
 .byte   W12
 .byte   N11 ,Bn0 ,v108
 .byte   W12
 .byte   N11 ,Bn1 ,v108
 .byte   W12
 .byte   N11 ,Bn1 ,v108
 .byte   W12
@  #06 @285   ----------------------------------------
 .byte   N11 ,Fs1 ,v108
 .byte   W12
 .byte   N11 ,Fs1 ,v108
 .byte   W12
 .byte   N11 ,Fs2 ,v108
 .byte   W12
 .byte   N11 ,Fs2 ,v108
 .byte   W12
 .byte   N11 ,Fs1 ,v108
 .byte   W12
 .byte   N11 ,Fs1 ,v108
 .byte   W12
 .byte   N11 ,Fs2 ,v108
 .byte   W12
 .byte   N11 ,Fs2 ,v108
 .byte   W12
@  #06 @286   ----------------------------------------
 .byte   N11 ,Fs1 ,v108
 .byte   W12
 .byte   N11 ,Fs1 ,v108
 .byte   W12
 .byte   N11 ,Fs2 ,v108
 .byte   W12
 .byte   N11 ,Fs2 ,v108
 .byte   W12
 .byte   N11 ,Fs1 ,v108
 .byte   W12
 .byte   N11 ,Fs1 ,v108
 .byte   W12
 .byte   N11 ,Fs2 ,v108
 .byte   W12
 .byte   N11 ,Fs2 ,v108
 .byte   W12
@  #06 @287   ----------------------------------------
 .byte   N11 ,Fs1 ,v108
 .byte   W12
 .byte   N11 ,Fs1 ,v108
 .byte   W12
 .byte   N11 ,Fs2 ,v108
 .byte   W12
 .byte   N11 ,Fs2 ,v108
 .byte   W12
 .byte   N11 ,Fs1 ,v108
 .byte   W12
 .byte   N11 ,Fs1 ,v108
 .byte   W12
 .byte   N11 ,Fs2 ,v108
 .byte   W12
 .byte   N11 ,Fs2 ,v108
 .byte   W12
@  #06 @288   ----------------------------------------
 .byte   N11 ,Fs1 ,v108
 .byte   W12
 .byte   N11 ,Fs1 ,v108
 .byte   W12
 .byte   N11 ,Fs2 ,v108
 .byte   W12
 .byte   N11 ,Fs2 ,v108
 .byte   W12
 .byte   N11 ,Fs1 ,v108
 .byte   W12
 .byte   N11 ,Fs1 ,v108
 .byte   W12
 .byte   N11 ,Fs2 ,v108
 .byte   W12
 .byte   N11 ,Fs2 ,v108
 .byte   W12
@  #06 @289   ----------------------------------------
 .byte   N11 ,En1 ,v108
 .byte   W12
 .byte   N11 ,En1 ,v108
 .byte   W12
 .byte   N11 ,En2 ,v108
 .byte   W12
 .byte   N11 ,En2 ,v108
 .byte   W12
 .byte   N11 ,En1 ,v108
 .byte   W12
 .byte   N11 ,En1 ,v108
 .byte   W12
 .byte   N11 ,En2 ,v108
 .byte   W12
 .byte   N11 ,En2 ,v108
 .byte   W12
@  #06 @290   ----------------------------------------
 .byte   N11 ,En1 ,v108
 .byte   W12
 .byte   N11 ,En1 ,v108
 .byte   W12
 .byte   N11 ,En2 ,v108
 .byte   W12
 .byte   N11 ,En2 ,v108
 .byte   W12
 .byte   N11 ,En1 ,v108
 .byte   W12
 .byte   N11 ,En1 ,v108
 .byte   W12
 .byte   N11 ,En2 ,v108
 .byte   W12
 .byte   N11 ,En2 ,v108
 .byte   W12
@  #06 @291   ----------------------------------------
 .byte   N11 ,Bn0 ,v108
 .byte   W12
 .byte   N11 ,Bn0 ,v108
 .byte   W12
 .byte   N11 ,Bn1 ,v108
 .byte   W12
 .byte   N11 ,Bn1 ,v108
 .byte   W12
 .byte   N11 ,Bn0 ,v108
 .byte   W12
 .byte   N11 ,Bn0 ,v108
 .byte   W12
 .byte   N11 ,Bn1 ,v108
 .byte   W12
 .byte   N11 ,Bn1 ,v108
 .byte   W12
@  #06 @292   ----------------------------------------
 .byte   N11 ,Bn0 ,v108
 .byte   W12
 .byte   N11 ,Bn0 ,v108
 .byte   W12
 .byte   N11 ,Bn1 ,v108
 .byte   W12
 .byte   N11 ,Bn1 ,v108
 .byte   W12
 .byte   N11 ,Bn0 ,v108
 .byte   W12
 .byte   N11 ,Bn0 ,v108
 .byte   W12
 .byte   N11 ,Bn1 ,v108
 .byte   W12
 .byte   N11 ,Bn1 ,v108
 .byte   W12
@  #06 @293   ----------------------------------------
 .byte   N11 ,Fs1 ,v108
 .byte   W12
 .byte   N11 ,Fs1 ,v108
 .byte   W12
 .byte   N11 ,Fs2 ,v108
 .byte   W12
 .byte   N11 ,Fs2 ,v108
 .byte   W12
 .byte   N11 ,Fs1 ,v108
 .byte   W12
 .byte   N11 ,Fs1 ,v108
 .byte   W12
 .byte   N11 ,Fs2 ,v108
 .byte   W12
 .byte   N11 ,Fs2 ,v108
 .byte   W12
@  #06 @294   ----------------------------------------
 .byte   N11 ,Fs1 ,v108
 .byte   W12
 .byte   N11 ,Fs1 ,v108
 .byte   W12
 .byte   N11 ,Fs2 ,v108
 .byte   W12
 .byte   N11 ,Fs2 ,v108
 .byte   W12
 .byte   N11 ,Fs1 ,v108
 .byte   W12
 .byte   N11 ,Fs1 ,v108
 .byte   W12
 .byte   N11 ,Fs2 ,v108
 .byte   W12
 .byte   N11 ,Fs2 ,v108
 .byte   W12
@  #06 @295   ----------------------------------------
 .byte   N11 ,Fs1 ,v108
 .byte   W12
 .byte   N11 ,Fs1 ,v108
 .byte   W12
 .byte   N11 ,Fs2 ,v108
 .byte   W12
 .byte   N11 ,Fs2 ,v108
 .byte   W12
 .byte   N11 ,Fs1 ,v108
 .byte   W12
 .byte   N11 ,Fs1 ,v108
 .byte   W12
 .byte   N11 ,Fs2 ,v108
 .byte   W12
 .byte   N11 ,Fs2 ,v108
 .byte   W12
@  #06 @296   ----------------------------------------
 .byte   N11 ,Fs1 ,v108
 .byte   W12
 .byte   N11 ,Fs1 ,v108
 .byte   W12
 .byte   N11 ,Fs2 ,v108
 .byte   W12
 .byte   N11 ,Fs2 ,v108
 .byte   W12
 .byte   N11 ,Fs1 ,v108
 .byte   W12
 .byte   N11 ,Fs1 ,v108
 .byte   W12
 .byte   N11 ,Fs2 ,v108
 .byte   W12
 .byte   N11 ,Fs2 ,v108
 .byte   W12
@  #06 @297   ----------------------------------------
 .byte   N11 ,En1 ,v108
 .byte   W12
 .byte   N11 ,En1 ,v108
 .byte   W12
 .byte   N11 ,En2 ,v108
 .byte   W12
 .byte   N11 ,En2 ,v108
 .byte   W12
 .byte   N11 ,En1 ,v108
 .byte   W12
 .byte   N11 ,En1 ,v108
 .byte   W12
 .byte   N11 ,En2 ,v108
 .byte   W12
 .byte   N11 ,En2 ,v108
 .byte   W12
@  #06 @298   ----------------------------------------
 .byte   N11 ,En1 ,v108
 .byte   W12
 .byte   N11 ,En1 ,v108
 .byte   W12
 .byte   N11 ,En2 ,v108
 .byte   W12
 .byte   N11 ,En2 ,v108
 .byte   W12
 .byte   N11 ,En1 ,v108
 .byte   W12
 .byte   N11 ,En1 ,v108
 .byte   W12
 .byte   N11 ,En2 ,v108
 .byte   W12
 .byte   N11 ,En2 ,v108
 .byte   W12
@  #06 @299   ----------------------------------------
 .byte   N11 ,Bn0 ,v108
 .byte   W12
 .byte   N11 ,Bn0 ,v108
 .byte   W12
 .byte   N11 ,Bn1 ,v108
 .byte   W12
 .byte   N11 ,Bn1 ,v108
 .byte   W12
 .byte   N11 ,Bn0 ,v108
 .byte   W12
 .byte   N11 ,Bn0 ,v108
 .byte   W12
 .byte   N11 ,Bn1 ,v108
 .byte   W12
 .byte   N11 ,Bn1 ,v108
 .byte   W12
@  #06 @300   ----------------------------------------
 .byte   N11 ,Bn0 ,v108
 .byte   W12
 .byte   N11 ,Bn0 ,v108
 .byte   W12
 .byte   N11 ,Bn1 ,v108
 .byte   W12
 .byte   N11 ,Bn1 ,v108
 .byte   W12
 .byte   N11 ,Bn0 ,v108
 .byte   W12
 .byte   N11 ,Bn0 ,v108
 .byte   W12
 .byte   N11 ,Bn1 ,v108
 .byte   W12
 .byte   N11 ,Bn1 ,v108
 .byte   W12
@  #06 @301   ----------------------------------------
 .byte   N11 ,Fs1 ,v108
 .byte   W12
 .byte   N11 ,Fs1 ,v108
 .byte   W12
 .byte   N11 ,Fs2 ,v108
 .byte   W12
 .byte   N11 ,Fs2 ,v108
 .byte   W12
 .byte   N11 ,Fs1 ,v108
 .byte   W12
 .byte   N11 ,Fs1 ,v108
 .byte   W12
 .byte   N11 ,Fs2 ,v108
 .byte   W12
 .byte   N11 ,Fs2 ,v108
 .byte   W12
@  #06 @302   ----------------------------------------
 .byte   N11 ,Fs1 ,v108
 .byte   W12
 .byte   N11 ,Fs1 ,v108
 .byte   W12
 .byte   N11 ,Fs2 ,v108
 .byte   W12
 .byte   N11 ,Fs2 ,v108
 .byte   W12
 .byte   N11 ,Fs1 ,v108
 .byte   W12
 .byte   N11 ,Fs1 ,v108
 .byte   W12
 .byte   N11 ,Fs2 ,v108
 .byte   W12
 .byte   N11 ,Fs2 ,v108
 .byte   W12
@  #06 @303   ----------------------------------------
 .byte   N11 ,Fs1 ,v108
 .byte   W12
 .byte   N11 ,Fs1 ,v108
 .byte   W12
 .byte   N11 ,Fs2 ,v108
 .byte   W12
 .byte   N11 ,Fs2 ,v108
 .byte   W12
 .byte   N11 ,Fs1 ,v108
 .byte   W12
 .byte   N11 ,Fs1 ,v108
 .byte   W12
 .byte   N11 ,Fs2 ,v108
 .byte   W12
 .byte   N11 ,Fs2 ,v108
 .byte   W12
@  #06 @304   ----------------------------------------
 .byte   N11 ,Fs1 ,v108
 .byte   W12
 .byte   N11 ,Fs1 ,v108
 .byte   W12
 .byte   N11 ,Fs2 ,v108
 .byte   W12
 .byte   N11 ,Fs2 ,v108
 .byte   W12
 .byte   N11 ,Fs1 ,v108
 .byte   W12
 .byte   N11 ,Fs1 ,v108
 .byte   W12
 .byte   N11 ,Fs2 ,v108
 .byte   W12
 .byte   N11 ,Fs2 ,v108
 .byte   W12
@  #06 @305   ----------------------------------------
 .byte   N11 ,En1 ,v108
 .byte   W12
 .byte   N11 ,En1 ,v108
 .byte   W12
 .byte   N11 ,En2 ,v108
 .byte   W12
 .byte   N11 ,En2 ,v108
 .byte   W12
 .byte   N11 ,En1 ,v108
 .byte   W12
 .byte   N11 ,En1 ,v108
 .byte   W12
 .byte   N11 ,En2 ,v108
 .byte   W12
 .byte   N11 ,En2 ,v108
 .byte   W12
@  #06 @306   ----------------------------------------
 .byte   N11 ,En1 ,v108
 .byte   W12
 .byte   N11 ,En1 ,v108
 .byte   W12
 .byte   N11 ,En2 ,v108
 .byte   W12
 .byte   N11 ,En2 ,v108
 .byte   W12
 .byte   N11 ,En1 ,v108
 .byte   W12
 .byte   N11 ,En1 ,v108
 .byte   W12
 .byte   N11 ,En2 ,v108
 .byte   W12
 .byte   N11 ,En2 ,v108
 .byte   W12
@  #06 @307   ----------------------------------------
 .byte   N11 ,Bn0 ,v108
 .byte   W12
 .byte   N11 ,Bn0 ,v108
 .byte   W12
 .byte   N11 ,Bn1 ,v108
 .byte   W12
 .byte   N11 ,Bn1 ,v108
 .byte   W12
 .byte   N11 ,Bn0 ,v108
 .byte   W12
 .byte   N11 ,Bn0 ,v108
 .byte   W12
 .byte   N11 ,Bn1 ,v108
 .byte   W12
 .byte   N11 ,Bn1 ,v108
 .byte   W12
@  #06 @308   ----------------------------------------
 .byte   N11 ,Bn0 ,v108
 .byte   W12
 .byte   N11 ,Bn0 ,v108
 .byte   W12
 .byte   N11 ,Bn1 ,v108
 .byte   W12
 .byte   N11 ,Bn1 ,v108
 .byte   W12
 .byte   N11 ,Bn0 ,v108
 .byte   W12
 .byte   N11 ,Bn0 ,v108
 .byte   W12
 .byte   N11 ,Bn1 ,v108
 .byte   W12
 .byte   N11 ,Bn1 ,v108
 .byte   W12
@  #06 @309   ----------------------------------------
 .byte   N23 ,Cn1 ,v108
 .byte   W24
 .byte   N23 ,Cn2 ,v108
 .byte   W24
 .byte   N23 ,Cn1 ,v108
 .byte   W24
 .byte   N23 ,Cn2 ,v108
 .byte   W24
@  #06 @310   ----------------------------------------
 .byte   N23 ,Cn1 ,v108
 .byte   W24
 .byte   N23 ,Cn2 ,v108
 .byte   W24
 .byte   N23 ,Cn1 ,v108
 .byte   W24
 .byte   N23 ,Cn2 ,v108
 .byte   W24
@  #06 @311   ----------------------------------------
 .byte   N23 ,Dn1 ,v108
 .byte   W24
 .byte   N23 ,Dn2 ,v108
 .byte   W24
 .byte   N23 ,Dn1 ,v108
 .byte   W24
 .byte   N23 ,Dn2 ,v108
 .byte   W24
@  #06 @312   ----------------------------------------
 .byte   N23 ,Dn1 ,v108
 .byte   W24
 .byte   N23 ,Dn2 ,v108
 .byte   W24
 .byte   N23 ,Dn1 ,v108
 .byte   W24
 .byte   N23 ,Dn2 ,v108
 .byte   W24
@  #06 @313   ----------------------------------------
 .byte   N23 ,En1 ,v108
 .byte   W24
 .byte   N23 ,En2 ,v108
 .byte   W24
 .byte   N23 ,En1 ,v108
 .byte   W24
 .byte   N23 ,En2 ,v108
 .byte   W24
@  #06 @314   ----------------------------------------
 .byte   N23 ,En1 ,v108
 .byte   W24
 .byte   N23 ,En2 ,v108
 .byte   W24
 .byte   N23 ,En1 ,v108
 .byte   W24
 .byte   N23 ,En2 ,v108
 .byte   W24
@  #06 @315   ----------------------------------------
 .byte   N23 ,Bn1 ,v108
 .byte   W24
 .byte   N23 ,Bn2 ,v108
 .byte   W24
 .byte   N23 ,Bn1 ,v108
 .byte   W24
 .byte   N23 ,Bn2 ,v108
 .byte   W24
@  #06 @316   ----------------------------------------
 .byte   N23 ,Bn1 ,v108
 .byte   W24
 .byte   N23 ,Bn2 ,v108
 .byte   W24
 .byte   N23 ,Bn1 ,v108
 .byte   W24
 .byte   N23 ,Bn2 ,v108
 .byte   W24
@  #06 @317   ----------------------------------------
 .byte   N23 ,Cn1 ,v108
 .byte   W24
 .byte   N23 ,Cn2 ,v108
 .byte   W24
 .byte   N23 ,Cn1 ,v108
 .byte   W24
 .byte   N23 ,Cn2 ,v108
 .byte   W24
@  #06 @318   ----------------------------------------
 .byte   N23 ,Cn1 ,v108
 .byte   W24
 .byte   N23 ,Cn2 ,v108
 .byte   W24
 .byte   N23 ,Cn1 ,v108
 .byte   W24
 .byte   N23 ,Cn2 ,v108
 .byte   W24
@  #06 @319   ----------------------------------------
 .byte   N23 ,Dn1 ,v108
 .byte   W24
 .byte   N23 ,Dn2 ,v108
 .byte   W24
 .byte   N23 ,Dn1 ,v108
 .byte   W24
 .byte   N23 ,Dn2 ,v108
 .byte   W24
@  #06 @320   ----------------------------------------
 .byte   N23 ,Dn1 ,v108
 .byte   W24
 .byte   N23 ,Dn2 ,v108
 .byte   W24
 .byte   N23 ,Dn1 ,v108
 .byte   W24
 .byte   N23 ,Dn2 ,v108
 .byte   W24
@  #06 @321   ----------------------------------------
 .byte   N23 ,Bn1 ,v108
 .byte   W24
 .byte   N23 ,Bn2 ,v108
 .byte   W24
 .byte   N23 ,Bn1 ,v108
 .byte   W24
 .byte   N23 ,Bn2 ,v108
 .byte   W24
@  #06 @322   ----------------------------------------
 .byte   N23 ,Bn1 ,v108
 .byte   W24
 .byte   N23 ,Bn2 ,v108
 .byte   W24
 .byte   N23 ,Bn1 ,v108
 .byte   W24
 .byte   N23 ,Bn2 ,v108
 .byte   W24
@  #06 @323   ----------------------------------------
 .byte   N23 ,Bn1 ,v108
 .byte   W24
 .byte   N23 ,Bn2 ,v108
 .byte   W24
 .byte   N23 ,Bn1 ,v108
 .byte   W24
 .byte   N23 ,Bn2 ,v108
 .byte   W24
@  #06 @324   ----------------------------------------
 .byte   N23 ,Cn2 ,v108
 .byte   W24
 .byte   N23 ,En2 ,v108
 .byte   W24
 .byte   N23 ,Dn2 ,v108
 .byte   W24
 .byte   N23 ,Fs2 ,v108
 .byte   W24
@  #06 @325   ----------------------------------------
 .byte   N11 ,En1 ,v108
 .byte   W12
 .byte   N11 ,En1 ,v108
 .byte   W12
 .byte   N11 ,En2 ,v108
 .byte   W12
 .byte   N11 ,En2 ,v108
 .byte   W12
 .byte   N11 ,En1 ,v108
 .byte   W12
 .byte   N11 ,En1 ,v108
 .byte   W12
 .byte   N11 ,En2 ,v108
 .byte   W12
 .byte   N11 ,En2 ,v108
 .byte   W12
@  #06 @326   ----------------------------------------
 .byte   N11 ,En1 ,v108
 .byte   W12
 .byte   N11 ,En1 ,v108
 .byte   W12
 .byte   N11 ,En2 ,v108
 .byte   W12
 .byte   N11 ,En2 ,v108
 .byte   W12
 .byte   N11 ,En1 ,v108
 .byte   W12
 .byte   N11 ,En1 ,v108
 .byte   W12
 .byte   N11 ,En2 ,v108
 .byte   W12
 .byte   N11 ,En2 ,v108
 .byte   W12
@  #06 @327   ----------------------------------------
 .byte   N11 ,Bn0 ,v108
 .byte   W12
 .byte   N11 ,Bn0 ,v108
 .byte   W12
 .byte   N11 ,Bn1 ,v108
 .byte   W12
 .byte   N11 ,Bn1 ,v108
 .byte   W12
 .byte   N11 ,Bn0 ,v108
 .byte   W12
 .byte   N11 ,Bn0 ,v108
 .byte   W12
 .byte   N11 ,Bn1 ,v108
 .byte   W12
 .byte   N11 ,Bn1 ,v108
 .byte   W12
@  #06 @328   ----------------------------------------
 .byte   N11 ,Bn0 ,v108
 .byte   W12
 .byte   N11 ,Bn0 ,v108
 .byte   W12
 .byte   N11 ,Bn1 ,v108
 .byte   W12
 .byte   N11 ,Bn1 ,v108
 .byte   W12
 .byte   N11 ,Bn0 ,v108
 .byte   W12
 .byte   N11 ,Bn0 ,v108
 .byte   W12
 .byte   N11 ,Bn1 ,v108
 .byte   W12
 .byte   N11 ,Bn1 ,v108
 .byte   W12
@  #06 @329   ----------------------------------------
 .byte   N11 ,Cn1 ,v108
 .byte   W12
 .byte   N11 ,Cn1 ,v108
 .byte   W12
 .byte   N11 ,Cn2 ,v108
 .byte   W12
 .byte   N11 ,Cn2 ,v108
 .byte   W12
 .byte   N11 ,Cn1 ,v108
 .byte   W12
 .byte   N11 ,Cn1 ,v108
 .byte   W12
 .byte   N11 ,Cn2 ,v108
 .byte   W12
 .byte   N11 ,Cn2 ,v108
 .byte   W12
@  #06 @330   ----------------------------------------
 .byte   N11 ,Cn1 ,v108
 .byte   W12
 .byte   N11 ,Cn1 ,v108
 .byte   W12
 .byte   N11 ,Cn2 ,v108
 .byte   W12
 .byte   N11 ,Cn2 ,v108
 .byte   W12
 .byte   N11 ,Cn1 ,v108
 .byte   W12
 .byte   N11 ,Cn1 ,v108
 .byte   W12
 .byte   N11 ,Cn2 ,v108
 .byte   W12
 .byte   N11 ,Cn2 ,v108
 .byte   W12
@  #06 @331   ----------------------------------------
 .byte   N11 ,Cn1 ,v108
 .byte   W12
 .byte   N11 ,Cn1 ,v108
 .byte   W12
 .byte   N11 ,Cn2 ,v108
 .byte   W12
 .byte   N11 ,Cn2 ,v108
 .byte   W12
 .byte   N11 ,Cn1 ,v108
 .byte   W12
 .byte   N11 ,Cn1 ,v108
 .byte   W12
 .byte   N11 ,Cn2 ,v108
 .byte   W12
 .byte   N11 ,Cn2 ,v108
 .byte   W12
@  #06 @332   ----------------------------------------
 .byte   N11 ,Cn1 ,v108
 .byte   W12
 .byte   N11 ,Cn1 ,v108
 .byte   W12
 .byte   N11 ,Cn2 ,v108
 .byte   W12
 .byte   N11 ,Cn2 ,v108
 .byte   W12
 .byte   N11 ,Cn1 ,v108
 .byte   W12
 .byte   N11 ,Cn1 ,v108
 .byte   W12
 .byte   N11 ,Cn2 ,v108
 .byte   W12
 .byte   N11 ,Cn2 ,v108
 .byte   W12
@  #06 @333   ----------------------------------------
 .byte   N11 ,En1 ,v108
 .byte   W12
 .byte   N11 ,En1 ,v108
 .byte   W12
 .byte   N11 ,En2 ,v108
 .byte   W12
 .byte   N11 ,En2 ,v108
 .byte   W12
 .byte   N11 ,En1 ,v108
 .byte   W12
 .byte   N11 ,En1 ,v108
 .byte   W12
 .byte   N11 ,En2 ,v108
 .byte   W12
 .byte   N11 ,En2 ,v108
 .byte   W12
@  #06 @334   ----------------------------------------
 .byte   N11 ,En1 ,v108
 .byte   W12
 .byte   N11 ,En1 ,v108
 .byte   W12
 .byte   N11 ,En2 ,v108
 .byte   W12
 .byte   N11 ,En2 ,v108
 .byte   W12
 .byte   N11 ,En1 ,v108
 .byte   W12
 .byte   N11 ,En1 ,v108
 .byte   W12
 .byte   N11 ,En2 ,v108
 .byte   W12
 .byte   N11 ,En2 ,v108
 .byte   W12
@  #06 @335   ----------------------------------------
 .byte   N11 ,Bn0 ,v108
 .byte   W12
 .byte   N11 ,Bn0 ,v108
 .byte   W12
 .byte   N11 ,Bn1 ,v108
 .byte   W12
 .byte   N11 ,Bn1 ,v108
 .byte   W12
 .byte   N11 ,Bn0 ,v108
 .byte   W12
 .byte   N11 ,Bn0 ,v108
 .byte   W12
 .byte   N11 ,Bn1 ,v108
 .byte   W12
 .byte   N11 ,Bn1 ,v108
 .byte   W12
@  #06 @336   ----------------------------------------
 .byte   N11 ,Bn0 ,v108
 .byte   W12
 .byte   N11 ,Bn0 ,v108
 .byte   W12
 .byte   N11 ,Bn1 ,v108
 .byte   W12
 .byte   N11 ,Bn1 ,v108
 .byte   W12
 .byte   N11 ,Bn0 ,v108
 .byte   W12
 .byte   N11 ,Bn0 ,v108
 .byte   W12
 .byte   N11 ,Bn1 ,v108
 .byte   W12
 .byte   N11 ,Bn1 ,v108
 .byte   W12
@  #06 @337   ----------------------------------------
 .byte   N11 ,Cn1 ,v108
 .byte   W12
 .byte   N11 ,Cn1 ,v108
 .byte   W12
 .byte   N11 ,Cn2 ,v108
 .byte   W12
 .byte   N11 ,Cn2 ,v108
 .byte   W12
 .byte   N11 ,Cn1 ,v108
 .byte   W12
 .byte   N11 ,Cn1 ,v108
 .byte   W12
 .byte   N11 ,Cn2 ,v108
 .byte   W12
 .byte   N11 ,Cn2 ,v108
 .byte   W12
@  #06 @338   ----------------------------------------
 .byte   N11 ,Cn1 ,v108
 .byte   W12
 .byte   N11 ,Cn1 ,v108
 .byte   W12
 .byte   N11 ,Cn2 ,v108
 .byte   W12
 .byte   N11 ,Cn2 ,v108
 .byte   W12
 .byte   N11 ,Cn1 ,v108
 .byte   W12
 .byte   N11 ,Cn1 ,v108
 .byte   W12
 .byte   N11 ,Cn2 ,v108
 .byte   W12
 .byte   N11 ,Cn2 ,v108
 .byte   W12
@  #06 @339   ----------------------------------------
 .byte   N11 ,Cn1 ,v108
 .byte   W12
 .byte   N11 ,Cn1 ,v108
 .byte   W12
 .byte   N11 ,Cn2 ,v108
 .byte   W12
 .byte   N11 ,Cn2 ,v108
 .byte   W12
 .byte   N11 ,Dn1 ,v108
 .byte   W12
 .byte   N11 ,Dn1 ,v108
 .byte   W12
 .byte   N11 ,Dn2 ,v108
 .byte   W12
 .byte   N11 ,Dn2 ,v108
 .byte   W12
@  #06 @340   ----------------------------------------
 .byte   N11 ,En1 ,v108
 .byte   W12
 .byte   N11 ,En1 ,v108
 .byte   W12
 .byte   N11 ,En2 ,v108
 .byte   W12
 .byte   N11 ,En2 ,v108
 .byte   W12
 .byte   N11 ,Fs1 ,v108
 .byte   W12
 .byte   N11 ,Fs1 ,v108
 .byte   W12
 .byte   N11 ,Fs2 ,v108
 .byte   W12
 .byte   N11 ,Fs2 ,v108
 .byte   W96
@  #06 @341   ----------------------------------------
 .byte   W12
 .byte   N23 ,Cn1 ,v108
 .byte   W24
 .byte   N23 ,Cn2 ,v108
 .byte   W24
 .byte   N23 ,Cn1 ,v108
 .byte   W24
 .byte   N23 ,Cn2 ,v108
 .byte   W24
@  #06 @342   ----------------------------------------
 .byte   N23 ,Cn1 ,v108
 .byte   W24
 .byte   N23 ,Cn2 ,v108
 .byte   W24
 .byte   N23 ,Cn1 ,v108
 .byte   W24
 .byte   N23 ,Cn2 ,v108
 .byte   W24
@  #06 @343   ----------------------------------------
 .byte   N23 ,Dn1 ,v108
 .byte   W24
 .byte   N23 ,Dn2 ,v108
 .byte   W24
 .byte   N23 ,Dn1 ,v108
 .byte   W24
 .byte   N23 ,Dn2 ,v108
 .byte   W24
@  #06 @344   ----------------------------------------
 .byte   N23 ,Dn1 ,v108
 .byte   W24
 .byte   N23 ,Dn2 ,v108
 .byte   W24
 .byte   N23 ,Dn1 ,v108
 .byte   W24
 .byte   N23 ,Dn2 ,v108
 .byte   W24
@  #06 @345   ----------------------------------------
 .byte   N23 ,En1 ,v108
 .byte   W24
 .byte   N23 ,En2 ,v108
 .byte   W24
 .byte   N23 ,En1 ,v108
 .byte   W24
 .byte   N23 ,En2 ,v108
 .byte   W24
@  #06 @346   ----------------------------------------
 .byte   N23 ,En1 ,v108
 .byte   W24
 .byte   N23 ,En2 ,v108
 .byte   W24
 .byte   N23 ,En1 ,v108
 .byte   W24
 .byte   N23 ,En2 ,v108
 .byte   W24
@  #06 @347   ----------------------------------------
 .byte   N23 ,Bn1 ,v108
 .byte   W24
 .byte   N23 ,Bn2 ,v108
 .byte   W24
 .byte   N23 ,Bn1 ,v108
 .byte   W24
 .byte   N23 ,Bn2 ,v108
 .byte   W24
@  #06 @348   ----------------------------------------
 .byte   N23 ,Bn1 ,v108
 .byte   W24
 .byte   N23 ,Bn2 ,v108
 .byte   W24
 .byte   N23 ,Bn1 ,v108
 .byte   W24
 .byte   N23 ,Bn2 ,v108
 .byte   W24
@  #06 @349   ----------------------------------------
 .byte   N23 ,Cn1 ,v108
 .byte   W24
 .byte   N23 ,Cn2 ,v108
 .byte   W24
 .byte   N23 ,Cn1 ,v108
 .byte   W24
 .byte   N23 ,Cn2 ,v108
 .byte   W24
@  #06 @350   ----------------------------------------
 .byte   N23 ,Cn1 ,v108
 .byte   W24
 .byte   N23 ,Cn2 ,v108
 .byte   W24
 .byte   N23 ,Cn1 ,v108
 .byte   W24
 .byte   N23 ,Cn2 ,v108
 .byte   W24
@  #06 @351   ----------------------------------------
 .byte   N23 ,Dn1 ,v108
 .byte   W24
 .byte   N23 ,Dn2 ,v108
 .byte   W24
 .byte   N23 ,Dn1 ,v108
 .byte   W24
 .byte   N23 ,Dn2 ,v108
 .byte   W24
@  #06 @352   ----------------------------------------
 .byte   N23 ,Dn1 ,v108
 .byte   W24
 .byte   N23 ,Dn2 ,v108
 .byte   W24
 .byte   N23 ,Dn1 ,v108
 .byte   W24
 .byte   N23 ,Dn2 ,v108
 .byte   W24
@  #06 @353   ----------------------------------------
 .byte   N23 ,Bn1 ,v108
 .byte   W24
 .byte   N23 ,Bn2 ,v108
 .byte   W24
 .byte   N23 ,Bn1 ,v108
 .byte   W24
 .byte   N23 ,Bn2 ,v108
 .byte   W24
@  #06 @354   ----------------------------------------
 .byte   N23 ,Bn1 ,v108
 .byte   W24
 .byte   N23 ,Bn2 ,v108
 .byte   W24
 .byte   N23 ,Bn1 ,v108
 .byte   W24
 .byte   N23 ,Bn2 ,v108
 .byte   W24
@  #06 @355   ----------------------------------------
 .byte   N23 ,Bn1 ,v108
 .byte   W24
 .byte   N23 ,Bn2 ,v108
 .byte   W24
 .byte   N23 ,Bn1 ,v108
 .byte   W24
 .byte   N23 ,Bn2 ,v108
 .byte   W24
@  #06 @356   ----------------------------------------
 .byte   N23 ,Cn2 ,v108
 .byte   W24
 .byte   N23 ,En2 ,v108
 .byte   W24
 .byte   N23 ,Dn2 ,v108
 .byte   W24
 .byte   N23 ,Fs2 ,v108
 .byte   W24
@  #06 @357   ----------------------------------------
 .byte   N23 ,Cn1 ,v108
 .byte   W24
 .byte   N23 ,Cn2 ,v108
 .byte   W24
 .byte   N23 ,Cn1 ,v108
 .byte   W24
 .byte   N23 ,Cn2 ,v108
 .byte   W24
@  #06 @358   ----------------------------------------
 .byte   N23 ,Cn1 ,v108
 .byte   W24
 .byte   N23 ,Cn2 ,v108
 .byte   W24
 .byte   N23 ,Cn1 ,v108
 .byte   W24
 .byte   N23 ,Cn2 ,v108
 .byte   W24
@  #06 @359   ----------------------------------------
 .byte   N23 ,Cn1 ,v108
 .byte   W24
 .byte   N23 ,Cn2 ,v108
 .byte   W24
 .byte   N23 ,Cn1 ,v108
 .byte   W24
 .byte   N23 ,Cn2 ,v108
 .byte   W24
@  #06 @360   ----------------------------------------
 .byte   N23 ,Cn1 ,v108
 .byte   W24
 .byte   N23 ,Cn2 ,v108
 .byte   W24
 .byte   N23 ,Cn1 ,v108
 .byte   W24
 .byte   N23 ,Cn2 ,v108
 .byte   W24
@  #06 @361   ----------------------------------------
 .byte   N23 ,Cn1 ,v108
 .byte   W24
 .byte   N23 ,Cn2 ,v108
 .byte   W24
 .byte   N23 ,Cn1 ,v108
 .byte   W24
 .byte   N23 ,Cn2 ,v108
 .byte   W24
@  #06 @362   ----------------------------------------
 .byte   N23 ,Cn1 ,v108
 .byte   W24
 .byte   N23 ,Cn2 ,v108
 .byte   W24
 .byte   N23 ,Cn1 ,v108
 .byte   W24
 .byte   N23 ,Cn2 ,v108
 .byte   W24
@  #06 @363   ----------------------------------------
 .byte   N23 ,En1 ,v108
 .byte   W24
 .byte   N23 ,En2 ,v108
 .byte   W24
 .byte   N23 ,En1 ,v108
 .byte   W24
 .byte   N23 ,En2 ,v108
 .byte   W24
@  #06 @364   ----------------------------------------
 .byte   N23 ,Ds1 ,v108
 .byte   W24
 .byte   N23 ,Ds2 ,v108
 .byte   W24
 .byte   N23 ,Ds1 ,v108
 .byte   W24
 .byte   N23 ,Ds2 ,v108
 .byte   W24
@  #06 @365   ----------------------------------------
 .byte   N23 ,Cn1 ,v108
 .byte   W24
 .byte   N23 ,Cn2 ,v108
 .byte   W24
 .byte   N23 ,Cn1 ,v108
 .byte   W24
 .byte   N23 ,Cn2 ,v108
 .byte   W24
@  #06 @366   ----------------------------------------
 .byte   N23 ,Cn1 ,v108
 .byte   W24
 .byte   N23 ,Cn2 ,v108
 .byte   W24
 .byte   N23 ,Cn1 ,v108
 .byte   W24
 .byte   N23 ,Cn2 ,v108
 .byte   W24
@  #06 @367   ----------------------------------------
 .byte   N23 ,Cn1 ,v108
 .byte   W24
 .byte   N23 ,Cn2 ,v108
 .byte   W24
 .byte   N23 ,Cn1 ,v108
 .byte   W24
 .byte   N23 ,Cn2 ,v108
 .byte   W24
@  #06 @368   ----------------------------------------
 .byte   N23 ,Cn1 ,v108
 .byte   W24
 .byte   N23 ,Cn2 ,v108
 .byte   W24
 .byte   N23 ,Cn1 ,v108
 .byte   W24
 .byte   N23 ,Cn2 ,v108
 .byte   W24
@  #06 @369   ----------------------------------------
 .byte   N23 ,Cn1 ,v108
 .byte   W24
 .byte   N23 ,Cn2 ,v108
 .byte   W24
 .byte   N23 ,Cn1 ,v108
 .byte   W24
 .byte   N23 ,Cn2 ,v108
 .byte   W24
@  #06 @370   ----------------------------------------
 .byte   N23 ,Cn1 ,v108
 .byte   W24
 .byte   N23 ,Cn2 ,v108
 .byte   W24
 .byte   N23 ,Cn1 ,v108
 .byte   W24
 .byte   N23 ,Cn2 ,v108
 .byte   W24
@  #06 @371   ----------------------------------------
 .byte   N23 ,Dn1 ,v108
 .byte   W24
 .byte   N23 ,Dn2 ,v108
 .byte   W24
 .byte   N23 ,Dn1 ,v108
 .byte   W24
 .byte   N23 ,Dn2 ,v108
 .byte   W24
@  #06 @372   ----------------------------------------
 .byte   N23 ,Dn1 ,v108
 .byte   W24
 .byte   N23 ,Dn2 ,v108
 .byte   W24
 .byte   N23 ,Dn1 ,v108
 .byte   W24
 .byte   N23 ,Dn2 ,v108
 .byte   W24
@  #06 @373   ----------------------------------------
 .byte   W96
@  #06 @374   ----------------------------------------
 .byte   W96
@  #06 @375   ----------------------------------------
 .byte   W96
@  #06 @376   ----------------------------------------
 .byte   W96
@  #06 @377   ----------------------------------------
 .byte   W96
@  #06 @378   ----------------------------------------
 .byte   W96
@  #06 @379   ----------------------------------------
 .byte   W96
@  #06 @380   ----------------------------------------
 .byte   W96
@  #06 @381   ----------------------------------------
 .byte   W96
@  #06 @382   ----------------------------------------
 .byte   W96
@  #06 @383   ----------------------------------------
 .byte   W96
@  #06 @384   ----------------------------------------
 .byte   W96
@  #06 @385   ----------------------------------------
 .byte   W96
@  #06 @386   ----------------------------------------
 .byte   W96
@  #06 @387   ----------------------------------------
 .byte   W96
@  #06 @388   ----------------------------------------
 .byte   W96
@  #06 @389   ----------------------------------------
 .byte   N11 ,Fs1 ,v108
 .byte   W12
 .byte   N11 ,Fs1 ,v108
 .byte   W12
 .byte   N11 ,Fs2 ,v108
 .byte   W12
 .byte   N11 ,Fs2 ,v108
 .byte   W12
 .byte   N11 ,Fs1 ,v108
 .byte   W12
 .byte   N11 ,Fs1 ,v108
 .byte   W12
 .byte   N11 ,Fs2 ,v108
 .byte   W12
 .byte   N11 ,Fs2 ,v108
 .byte   W12
@  #06 @390   ----------------------------------------
 .byte   N11 ,Fs1 ,v108
 .byte   W12
 .byte   N11 ,Fs1 ,v108
 .byte   W12
 .byte   N11 ,Fs2 ,v108
 .byte   W12
 .byte   N11 ,Fs2 ,v108
 .byte   W12
 .byte   N11 ,Fs1 ,v108
 .byte   W12
 .byte   N11 ,Fs1 ,v108
 .byte   W12
 .byte   N11 ,Fs2 ,v108
 .byte   W12
 .byte   N11 ,Fs2 ,v108
 .byte   W12
@  #06 @391   ----------------------------------------
 .byte   N11 ,Fs1 ,v108
 .byte   W12
 .byte   N11 ,Fs1 ,v108
 .byte   W12
 .byte   N11 ,Fs2 ,v108
 .byte   W12
 .byte   N11 ,Fs2 ,v108
 .byte   W12
 .byte   N11 ,Fs1 ,v108
 .byte   W12
 .byte   N11 ,Fs1 ,v108
 .byte   W12
 .byte   N11 ,Fs2 ,v108
 .byte   W12
 .byte   N11 ,Fs2 ,v108
 .byte   W12
@  #06 @392   ----------------------------------------
 .byte   N11 ,Fs1 ,v108
 .byte   W12
 .byte   N11 ,Fs1 ,v108
 .byte   W12
 .byte   N11 ,Fs2 ,v108
 .byte   W12
 .byte   N11 ,Fs2 ,v108
 .byte   W12
 .byte   N11 ,Fs1 ,v108
 .byte   W12
 .byte   N11 ,Fs1 ,v108
 .byte   W12
 .byte   N11 ,Fs2 ,v108
 .byte   W12
 .byte   N11 ,Fs2 ,v108
 .byte   W12
@  #06 @393   ----------------------------------------
 .byte   N11 ,Fs1 ,v108
 .byte   W12
 .byte   N11 ,Fs1 ,v108
 .byte   W12
 .byte   N11 ,Fs2 ,v108
 .byte   W12
 .byte   N11 ,Fs2 ,v108
 .byte   W12
 .byte   N11 ,Fs1 ,v108
 .byte   W12
 .byte   N11 ,Fs1 ,v108
 .byte   W12
 .byte   N11 ,Fs2 ,v108
 .byte   W12
 .byte   N11 ,Fs2 ,v108
 .byte   W12
@  #06 @394   ----------------------------------------
 .byte   N11 ,Fs1 ,v108
 .byte   W12
 .byte   N11 ,Fs1 ,v108
 .byte   W12
 .byte   N11 ,Fs2 ,v108
 .byte   W12
 .byte   N11 ,Fs2 ,v108
 .byte   W12
 .byte   N11 ,Fs1 ,v108
 .byte   W12
 .byte   N11 ,Fs1 ,v108
 .byte   W12
 .byte   N11 ,Fs2 ,v108
 .byte   W12
 .byte   N11 ,Fs2 ,v108
 .byte   W12
@  #06 @395   ----------------------------------------
 .byte   N11 ,Fs1 ,v108
 .byte   W12
 .byte   N11 ,Fs1 ,v108
 .byte   W12
 .byte   N11 ,Fs2 ,v108
 .byte   W12
 .byte   N11 ,Fs2 ,v108
 .byte   W12
 .byte   N11 ,Fs1 ,v108
 .byte   W12
 .byte   N11 ,Fs1 ,v108
 .byte   W12
 .byte   N11 ,Fs2 ,v108
 .byte   W12
 .byte   N11 ,Fs2 ,v108
 .byte   W12
@  #06 @396   ----------------------------------------
 .byte   N11 ,Fs1 ,v108
 .byte   W12
 .byte   N11 ,Fs1 ,v108
 .byte   W12
 .byte   N11 ,Fs2 ,v108
 .byte   W12
 .byte   N11 ,Fs2 ,v108
 .byte   W12
 .byte   N11 ,Fs1 ,v108
 .byte   W12
 .byte   N11 ,Fs1 ,v108
 .byte   W12
 .byte   N11 ,Fs2 ,v108
 .byte   W12
 .byte   N11 ,Fs2 ,v108
 .byte   W12
@  #06 @397   ----------------------------------------
 .byte   N11 ,Fs1 ,v108
 .byte   W12
 .byte   N11 ,Fs1 ,v108
 .byte   W12
 .byte   N11 ,Fs2 ,v108
 .byte   W12
 .byte   N11 ,Fs2 ,v108
 .byte   W12
 .byte   N11 ,Fs1 ,v108
 .byte   W12
 .byte   N11 ,Fs1 ,v108
 .byte   W12
 .byte   N11 ,Fs2 ,v108
 .byte   W12
 .byte   N11 ,Fs2 ,v108
 .byte   W12
@  #06 @398   ----------------------------------------
 .byte   N11 ,Fs1 ,v108
 .byte   W12
 .byte   N11 ,Fs1 ,v108
 .byte   W12
 .byte   N11 ,Fs2 ,v108
 .byte   W12
 .byte   N11 ,Fs2 ,v108
 .byte   W12
 .byte   N11 ,Fs1 ,v108
 .byte   W12
 .byte   N11 ,Fs1 ,v108
 .byte   W12
 .byte   N11 ,Fs2 ,v108
 .byte   W12
 .byte   N11 ,Fs2 ,v108
 .byte   W12
@  #06 @399   ----------------------------------------
 .byte   N11 ,Fs1 ,v108
 .byte   W12
 .byte   N11 ,Fs1 ,v108
 .byte   W12
 .byte   N11 ,Fs2 ,v108
 .byte   W12
 .byte   N11 ,Fs2 ,v108
 .byte   W12
 .byte   N11 ,Fs1 ,v108
 .byte   W12
 .byte   N11 ,Fs1 ,v108
 .byte   W12
 .byte   N11 ,Fs2 ,v108
 .byte   W12
 .byte   N11 ,Fs2 ,v108
 .byte   W12
@  #06 @400   ----------------------------------------
 .byte   N11 ,Fs1 ,v108
 .byte   W12
 .byte   N11 ,Fs1 ,v108
 .byte   W12
 .byte   N11 ,Fs2 ,v108
 .byte   W12
 .byte   N11 ,Fs2 ,v108
 .byte   W12
 .byte   N11 ,Fs1 ,v108
 .byte   W12
 .byte   N11 ,Fs1 ,v108
 .byte   W12
 .byte   N11 ,Fs2 ,v108
 .byte   W12
 .byte   N11 ,Fs2 ,v108
 .byte   W12
@  #06 @401   ----------------------------------------
 .byte   N11 ,Fs1 ,v108
 .byte   W12
 .byte   N11 ,Fs1 ,v108
 .byte   W12
 .byte   N11 ,Fs2 ,v108
 .byte   W12
 .byte   N11 ,Fs2 ,v108
 .byte   W12
 .byte   N11 ,Fs1 ,v108
 .byte   W12
 .byte   N11 ,Fs1 ,v108
 .byte   W12
 .byte   N11 ,Fs2 ,v108
 .byte   W12
 .byte   N11 ,Fs2 ,v108
 .byte   W12
@  #06 @402   ----------------------------------------
 .byte   N11 ,Fs1 ,v108
 .byte   W12
 .byte   N11 ,Fs1 ,v108
 .byte   W12
 .byte   N11 ,Fs2 ,v108
 .byte   W12
 .byte   N11 ,Fs2 ,v108
 .byte   W12
 .byte   N11 ,Fs1 ,v108
 .byte   W12
 .byte   N11 ,Fs1 ,v108
 .byte   W12
 .byte   N11 ,Fs2 ,v108
 .byte   W12
 .byte   N11 ,Fs2 ,v108
 .byte   W12
@  #06 @403   ----------------------------------------
 .byte   N11 ,Fs1 ,v108
 .byte   W12
 .byte   N11 ,Fs1 ,v108
 .byte   W12
 .byte   N11 ,Fs2 ,v108
 .byte   W12
 .byte   N11 ,Fs2 ,v108
 .byte   W12
 .byte   N11 ,Fs1 ,v108
 .byte   W12
 .byte   N11 ,Fs1 ,v108
 .byte   W12
 .byte   N11 ,Fs2 ,v108
 .byte   W12
 .byte   N11 ,Fs2 ,v108
 .byte   W12
@  #06 @404   ----------------------------------------
 .byte   N11 ,An1 ,v108
 .byte   W12
 .byte   N11 ,An1 ,v108
 .byte   W12
 .byte   N11 ,An2 ,v108
 .byte   W12
 .byte   N11 ,An2 ,v108
 .byte   W12
 .byte   N11 ,An1 ,v108
 .byte   W12
 .byte   N11 ,An1 ,v108
 .byte   W12
 .byte   N11 ,An2 ,v108
 .byte   W12
 .byte   N11 ,An2 ,v108
 .byte   W12
@  #06 @405   ----------------------------------------
 .byte   N40 ,Gn1 ,v108
 .byte   W48
 .byte   N40 ,Gn1 ,v108
 .byte   W48
@  #06 @406   ----------------------------------------
 .byte   N40 ,Gn1 ,v108
 .byte   W48
 .byte   N40 ,Gn1 ,v108
 .byte   W48
@  #06 @407   ----------------------------------------
 .byte   N40 ,Gn1 ,v108
 .byte   W48
 .byte   N40 ,Gn1 ,v108
 .byte   W48
@  #06 @408   ----------------------------------------
 .byte   N40 ,Gn1 ,v108
 .byte   W48
 .byte   N40 ,Gn1 ,v108
 .byte   W48
@  #06 @409   ----------------------------------------
 .byte   N40 ,Gn1 ,v108
 .byte   W48
 .byte   N40 ,Gn1 ,v108
 .byte   W48
@  #06 @410   ----------------------------------------
 .byte   N40 ,Gn1 ,v108
 .byte   W48
 .byte   N40 ,Gn1 ,v108
 .byte   W48
@  #06 @411   ----------------------------------------
 .byte   N40 ,Gn1 ,v108
 .byte   W48
 .byte   N40 ,Gn1 ,v108
 .byte   W48
@  #06 @412   ----------------------------------------
 .byte   N40 ,Gn1 ,v108
 .byte   W48
 .byte   N40 ,Gn1 ,v108
 .byte   W48
@  #06 @413   ----------------------------------------
 .byte   W96
@  #06 @414   ----------------------------------------
 .byte   W96
@  #06 @415   ----------------------------------------
 .byte   W96
@  #06 @416   ----------------------------------------
 .byte   W96
@  #06 @417   ----------------------------------------
 .byte   W96
@  #06 @418   ----------------------------------------
 .byte   TIE ,Fs1 ,v108
 .byte   W96
@  #06 @419   ----------------------------------------
 .byte   W84
 .byte   EOT
 .byte   Fs1
 .byte   W12
@  #06 @420   ----------------------------------------
 .byte   TIE ,Fs1 ,v108
 .byte   W96
@  #06 @421   ----------------------------------------
 .byte   W84
 .byte   EOT
 .byte   Fs1
 .byte   W12
@  #06 @422   ----------------------------------------
 .byte   TIE ,Fs1 ,v108
 .byte   W96
@  #06 @423   ----------------------------------------
 .byte   W96
@  #06 @424   ----------------------------------------
 .byte   W96
@  #06 @425   ----------------------------------------
 .byte   W84
 .byte   EOT
 .byte   Fs1
 .byte   W96
@  #06 @426   ----------------------------------------
 .byte   W12
 .byte   GOTO
  .word Label_0100F480
 .byte   FINE

@******************************************************@
	.align	2

song04:
	.byte	6	@ NumTrks
	.byte	0	@ NumBlks
	.byte	song04_pri	@ Priority
	.byte	song04_rev	@ Reverb.
    
	.word	song04_grp
    
	.word	song04_001
	.word	song04_002
	.word	song04_003
	.word	song04_004
	.word	song04_005
	.word	song04_006

	.end
