	.include "MPlayDef.s"

	.equ	song04_grp, voicegroup000
	.equ	song04_pri, 0
	.equ	song04_rev, 0
	.equ	song04_mvl, 127
	.equ	song04_key, 0
	.equ	song04_tbs, 1
	.equ	song04_exg, 0
	.equ	song04_cmp, 1

	.section .rodata
	.global	song04
	.align	2


@**************** Track 1 (Midi-Chn.0) ****************@

song04_001:
@  #01 @000   ----------------------------------------
 .byte   VOL , 30*song04_mvl/mxv
 .byte   KEYSH , song04_key+0
Label_01004BD0:
 .byte   TEMPO , 80*song04_tbs/2
 .byte   VOICE , 1
 .byte   MODT 0
 .byte   LFOS 44
 .byte   N96 ,Fn2 ,v060
 .byte   W96
@  #01 @001   ----------------------------------------
 .byte   Cs2
 .byte   W96
@  #01 @002   ----------------------------------------
 .byte   As2
 .byte   W96
@  #01 @003   ----------------------------------------
 .byte   W48
 .byte   N48
 .byte   W48
@  #01 @004   ----------------------------------------
 .byte   N96 ,Fn2
 .byte   W96
@  #01 @005   ----------------------------------------
 .byte   Cs2
 .byte   W96
@  #01 @006   ----------------------------------------
 .byte   As2
 .byte   W96
@  #01 @007   ----------------------------------------
 .byte   N48
 .byte   W96
@  #01 @008   ----------------------------------------
 .byte   N96 ,Fn2
 .byte   W96
@  #01 @009   ----------------------------------------
 .byte   Cs2
 .byte   W96
@  #01 @010   ----------------------------------------
 .byte   As2
 .byte   W96
@  #01 @011   ----------------------------------------
 .byte   W48
 .byte   N48
 .byte   W48
@  #01 @012   ----------------------------------------
 .byte   N96 ,Fn2
 .byte   W96
@  #01 @013   ----------------------------------------
 .byte   Cs2
 .byte   W96
@  #01 @014   ----------------------------------------
 .byte   As2
 .byte   W96
@  #01 @015   ----------------------------------------
 .byte   N48
 .byte   W96
@  #01 @016   ----------------------------------------
 .byte   N96 ,Fn2
 .byte   W96
@  #01 @017   ----------------------------------------
 .byte   Cs2
 .byte   W96
@  #01 @018   ----------------------------------------
 .byte   As2
 .byte   W96
@  #01 @019   ----------------------------------------
 .byte   W48
 .byte   N48
 .byte   W48
@  #01 @020   ----------------------------------------
 .byte   N96 ,Fn2
 .byte   W96
@  #01 @021   ----------------------------------------
 .byte   Cs2
 .byte   W96
@  #01 @022   ----------------------------------------
 .byte   As2
 .byte   W96
@  #01 @023   ----------------------------------------
 .byte   N48
 .byte   W96
@  #01 @024   ----------------------------------------
 .byte   N96 ,Fn2
 .byte   W96
@  #01 @025   ----------------------------------------
 .byte   Cs2
 .byte   W96
@  #01 @026   ----------------------------------------
 .byte   As2
 .byte   W96
@  #01 @027   ----------------------------------------
 .byte   W48
 .byte   N48
 .byte   W48
@  #01 @028   ----------------------------------------
 .byte   N96 ,Fn2
 .byte   W96
@  #01 @029   ----------------------------------------
 .byte   Cs2
 .byte   W96
@  #01 @030   ----------------------------------------
 .byte   As2
 .byte   W96
@  #01 @031   ----------------------------------------
 .byte   N48
 .byte   W96
@  #01 @032   ----------------------------------------
 .byte   N96 ,Fn2
 .byte   W96
@  #01 @033   ----------------------------------------
 .byte   Cs2
 .byte   W96
@  #01 @034   ----------------------------------------
 .byte   As2
 .byte   W96
@  #01 @035   ----------------------------------------
 .byte   W48
 .byte   N48
 .byte   W48
@  #01 @036   ----------------------------------------
 .byte   N96 ,Fn2
 .byte   W96
@  #01 @037   ----------------------------------------
 .byte   Cs2
 .byte   W96
@  #01 @038   ----------------------------------------
 .byte   As2
 .byte   W96
@  #01 @039   ----------------------------------------
 .byte   N48
 .byte   W96
@  #01 @040   ----------------------------------------
 .byte   N96 ,Fn2
 .byte   W96
@  #01 @041   ----------------------------------------
 .byte   Cs2
 .byte   W96
@  #01 @042   ----------------------------------------
 .byte   As2
 .byte   W96
@  #01 @043   ----------------------------------------
 .byte   W48
 .byte   N48
 .byte   W48
@  #01 @044   ----------------------------------------
 .byte   N96 ,Fn2
 .byte   W96
@  #01 @045   ----------------------------------------
 .byte   Cs2
 .byte   W96
@  #01 @046   ----------------------------------------
 .byte   As2
 .byte   W96
@  #01 @047   ----------------------------------------
 .byte   N48
 .byte   W96
@  #01 @048   ----------------------------------------
 .byte   N96 ,Fn2
 .byte   W96
@  #01 @049   ----------------------------------------
 .byte   Cs2
 .byte   W96
@  #01 @050   ----------------------------------------
 .byte   As2
 .byte   W96
@  #01 @051   ----------------------------------------
 .byte   W48
 .byte   N48
 .byte   W48
@  #01 @052   ----------------------------------------
 .byte   N96 ,Fn2
 .byte   W96
@  #01 @053   ----------------------------------------
 .byte   Cs2
 .byte   W96
@  #01 @054   ----------------------------------------
 .byte   As2
 .byte   W96
@  #01 @055   ----------------------------------------
 .byte   N48
 .byte   W96
@  #01 @056   ----------------------------------------
 .byte   N96 ,Cs2
 .byte   W96
@  #01 @057   ----------------------------------------
 .byte   Fn2
 .byte   W96
@  #01 @058   ----------------------------------------
 .byte   As2
 .byte   W96
@  #01 @059   ----------------------------------------
 .byte   W48
 .byte   N48
 .byte   W48
@  #01 @060   ----------------------------------------
 .byte   N96 ,Cs2
 .byte   W96
@  #01 @061   ----------------------------------------
 .byte   Fn2
 .byte   W96
@  #01 @062   ----------------------------------------
 .byte   As2
 .byte   W96
@  #01 @063   ----------------------------------------
 .byte   N48
 .byte   W96
@  #01 @064   ----------------------------------------
 .byte   W96
@  #01 @065   ----------------------------------------
 .byte   TEMPO , 120*song04_tbs/2
 .byte   N18 ,Fn2
 .byte   W18
 .byte   N12 ,Gs2
 .byte   W18
 .byte   N18 ,Fn2
 .byte   W18
 .byte   N12 ,Gs2
 .byte   W18
Label_01004C80:
 .byte   N18 ,Cs2 ,v060
 .byte   W18
 .byte   N12 ,Gs2
 .byte   W18
@  #01 @066   ----------------------------------------
 .byte   N18 ,Cs2
 .byte   W18
 .byte   N12 ,Gs2
 .byte   W18
 .byte   PEND 
Label_01004C8E:
 .byte   N18 ,Ds2 ,v060
 .byte   W18
 .byte   N12 ,Gs2
 .byte   W18
 .byte   N18 ,Ds2
 .byte   W18
 .byte   N12 ,Gs2
 .byte   W18
 .byte   PEND 
@  #01 @067   ----------------------------------------
Label_01004C9C:
 .byte   N18 ,Ds2 ,v060
 .byte   W18
 .byte   N12 ,Gn2
 .byte   W18
 .byte   N18 ,Ds2
 .byte   W18
 .byte   N12 ,Gn2
 .byte   W18
 .byte   PEND 
Label_01004CAA:
 .byte   N18 ,Cn2 ,v060
 .byte   W18
 .byte   N12 ,Gn2
 .byte   W18
@  #01 @068   ----------------------------------------
 .byte   N18 ,Cn2
 .byte   W18
 .byte   N12 ,Gn2
 .byte   W18
 .byte   PEND 
@  #01 @069   ----------------------------------------
 .byte   PATT
  .word Label_01004C80
@  #01 @070   ----------------------------------------
 .byte   PATT
  .word Label_01004C8E
@  #01 @071   ----------------------------------------
 .byte   PATT
  .word Label_01004C9C
@  #01 @072   ----------------------------------------
Label_01004CC7:
 .byte   N18 ,Fn2 ,v060
 .byte   W18
 .byte   N12 ,Gs2
 .byte   W18
 .byte   N18 ,Fn2
 .byte   W18
 .byte   N12 ,Gs2
 .byte   W18
 .byte   PEND 
@  #01 @073   ----------------------------------------
 .byte   PATT
  .word Label_01004C80
@  #01 @074   ----------------------------------------
 .byte   PATT
  .word Label_01004C8E
@  #01 @075   ----------------------------------------
 .byte   PATT
  .word Label_01004C9C
@  #01 @076   ----------------------------------------
 .byte   PATT
  .word Label_01004CAA
@  #01 @077   ----------------------------------------
 .byte   PATT
  .word Label_01004C80
@  #01 @078   ----------------------------------------
 .byte   PATT
  .word Label_01004C8E
@  #01 @079   ----------------------------------------
 .byte   PATT
  .word Label_01004C9C
@  #01 @080   ----------------------------------------
 .byte   PATT
  .word Label_01004CC7
@  #01 @081   ----------------------------------------
 .byte   PATT
  .word Label_01004C80
@  #01 @082   ----------------------------------------
 .byte   PATT
  .word Label_01004C8E
@  #01 @083   ----------------------------------------
 .byte   PATT
  .word Label_01004C9C
@  #01 @084   ----------------------------------------
 .byte   PATT
  .word Label_01004CAA
@  #01 @085   ----------------------------------------
 .byte   PATT
  .word Label_01004C80
@  #01 @086   ----------------------------------------
 .byte   PATT
  .word Label_01004C8E
@  #01 @087   ----------------------------------------
 .byte   PATT
  .word Label_01004C9C
@  #01 @088   ----------------------------------------
 .byte   PATT
  .word Label_01004CC7
@  #01 @089   ----------------------------------------
 .byte   PATT
  .word Label_01004C80
@  #01 @090   ----------------------------------------
 .byte   PATT
  .word Label_01004C8E
@  #01 @091   ----------------------------------------
 .byte   PATT
  .word Label_01004C9C
@  #01 @092   ----------------------------------------
 .byte   PATT
  .word Label_01004CAA
@  #01 @093   ----------------------------------------
 .byte   PATT
  .word Label_01004C80
@  #01 @094   ----------------------------------------
 .byte   PATT
  .word Label_01004C8E
@  #01 @095   ----------------------------------------
 .byte   PATT
  .word Label_01004C9C
@  #01 @096   ----------------------------------------
 .byte   PATT
  .word Label_01004CC7
@  #01 @097   ----------------------------------------
 .byte   PATT
  .word Label_01004C80
@  #01 @098   ----------------------------------------
 .byte   PATT
  .word Label_01004C8E
@  #01 @099   ----------------------------------------
 .byte   PATT
  .word Label_01004C9C
@  #01 @100   ----------------------------------------
 .byte   PATT
  .word Label_01004CAA
@  #01 @101   ----------------------------------------
 .byte   PATT
  .word Label_01004C80
@  #01 @102   ----------------------------------------
 .byte   PATT
  .word Label_01004C8E
@  #01 @103   ----------------------------------------
 .byte   PATT
  .word Label_01004C9C
@  #01 @104   ----------------------------------------
 .byte   PATT
  .word Label_01004CC7
@  #01 @105   ----------------------------------------
 .byte   PATT
  .word Label_01004C80
@  #01 @106   ----------------------------------------
 .byte   PATT
  .word Label_01004C8E
@  #01 @107   ----------------------------------------
 .byte   PATT
  .word Label_01004C9C
@  #01 @108   ----------------------------------------
 .byte   PATT
  .word Label_01004CAA
@  #01 @109   ----------------------------------------
 .byte   PATT
  .word Label_01004C80
@  #01 @110   ----------------------------------------
 .byte   PATT
  .word Label_01004C8E
@  #01 @111   ----------------------------------------
 .byte   PATT
  .word Label_01004C9C
@  #01 @112   ----------------------------------------
 .byte   PATT
  .word Label_01004CC7
@  #01 @113   ----------------------------------------
 .byte   PATT
  .word Label_01004C80
@  #01 @114   ----------------------------------------
 .byte   PATT
  .word Label_01004C8E
@  #01 @115   ----------------------------------------
 .byte   PATT
  .word Label_01004C9C
@  #01 @116   ----------------------------------------
 .byte   PATT
  .word Label_01004CAA
@  #01 @117   ----------------------------------------
 .byte   PATT
  .word Label_01004C80
@  #01 @118   ----------------------------------------
 .byte   PATT
  .word Label_01004C8E
@  #01 @119   ----------------------------------------
 .byte   PATT
  .word Label_01004C9C
@  #01 @120   ----------------------------------------
 .byte   PATT
  .word Label_01004CC7
@  #01 @121   ----------------------------------------
 .byte   PATT
  .word Label_01004C80
@  #01 @122   ----------------------------------------
 .byte   PATT
  .word Label_01004C8E
@  #01 @123   ----------------------------------------
 .byte   PATT
  .word Label_01004C9C
@  #01 @124   ----------------------------------------
 .byte   PATT
  .word Label_01004CAA
@  #01 @125   ----------------------------------------
 .byte   PATT
  .word Label_01004C80
@  #01 @126   ----------------------------------------
 .byte   PATT
  .word Label_01004C8E
@  #01 @127   ----------------------------------------
 .byte   PATT
  .word Label_01004C9C
@  #01 @128   ----------------------------------------
 .byte   N72 ,Gs2 ,v060
 .byte   N72 ,Cs3
 .byte   W72
 .byte   Gs3
 .byte   W72
@  #01 @129   ----------------------------------------
 .byte   Fn3
 .byte   N72 ,Cn4
 .byte   W72
Label_01004DF4:
 .byte   N36 ,As3 ,v060
 .byte   W36
@  #01 @130   ----------------------------------------
 .byte   Cs4
 .byte   W36
 .byte   PEND 
 .byte   N72 ,Gs2
 .byte   N72 ,Cs3
 .byte   W72
@  #01 @131   ----------------------------------------
 .byte   Gs3
 .byte   W72
 .byte   Gn2
 .byte   N72 ,Gn3
 .byte   W72
@  #01 @132   ----------------------------------------
Label_01004E06:
 .byte   N36 ,Cn4 ,v060
 .byte   W36
 .byte   Ds4
 .byte   W36
 .byte   PEND 
 .byte   N72 ,Gs2
 .byte   N72 ,Cs3
 .byte   W72
@  #01 @133   ----------------------------------------
 .byte   Gs3
 .byte   W72
 .byte   Fn3
 .byte   N72 ,Cn4
 .byte   W72
@  #01 @134   ----------------------------------------
 .byte   PATT
  .word Label_01004DF4
@  #01 @135   ----------------------------------------
 .byte   N72 ,Cs2 ,v060
 .byte   N72 ,Cs3
 .byte   W72
 .byte   Gs3
 .byte   W72
@  #01 @136   ----------------------------------------
 .byte   Gn2
 .byte   N72 ,Gn3
 .byte   W72
@  #01 @137   ----------------------------------------
 .byte   PATT
  .word Label_01004E06
@  #01 @138   ----------------------------------------
Label_01004E2E:
 .byte   N36 ,Cs2 ,v060
 .byte   N36 ,Fn2
 .byte   W36
 .byte   N36
 .byte   W36
 .byte   PEND 
Label_01004E37:
 .byte   N36 ,Gs2 ,v060
 .byte   W36
@  #01 @139   ----------------------------------------
 .byte   Gn2
 .byte   W36
 .byte   PEND 
Label_01004E3E:
 .byte   N36 ,Fn2 ,v060
 .byte   N36 ,Gs3
 .byte   W36
 .byte   Gs2
 .byte   W36
 .byte   PEND 
@  #01 @140   ----------------------------------------
Label_01004E47:
 .byte   N36 ,Gs2 ,v060
 .byte   N36 ,Cn3
 .byte   W36
 .byte   Gn2
 .byte   N36 ,Cs3
 .byte   W36
 .byte   PEND 
@  #01 @141   ----------------------------------------
 .byte   PATT
  .word Label_01004E2E
@  #01 @142   ----------------------------------------
 .byte   PATT
  .word Label_01004E37
@  #01 @143   ----------------------------------------
Label_01004E5C:
 .byte   N36 ,Gs2 ,v060
 .byte   N36 ,Gs3
 .byte   W36
 .byte   Gn2
 .byte   W36
 .byte   PEND 
Label_01004E65:
 .byte   N36 ,Cn3 ,v060
 .byte   W36
@  #01 @144   ----------------------------------------
 .byte   Ds3
 .byte   W36
 .byte   PEND 
@  #01 @145   ----------------------------------------
 .byte   PATT
  .word Label_01004E2E
@  #01 @146   ----------------------------------------
 .byte   PATT
  .word Label_01004E37
@  #01 @147   ----------------------------------------
 .byte   PATT
  .word Label_01004E3E
@  #01 @148   ----------------------------------------
 .byte   PATT
  .word Label_01004E47
@  #01 @149   ----------------------------------------
 .byte   PATT
  .word Label_01004E2E
@  #01 @150   ----------------------------------------
 .byte   PATT
  .word Label_01004E37
@  #01 @151   ----------------------------------------
 .byte   PATT
  .word Label_01004E5C
@  #01 @152   ----------------------------------------
 .byte   PATT
  .word Label_01004E65
@  #01 @153   ----------------------------------------
 .byte   PATT
  .word Label_01004E2E
@  #01 @154   ----------------------------------------
 .byte   PATT
  .word Label_01004E37
@  #01 @155   ----------------------------------------
 .byte   PATT
  .word Label_01004E3E
@  #01 @156   ----------------------------------------
 .byte   PATT
  .word Label_01004E47
@  #01 @157   ----------------------------------------
 .byte   PATT
  .word Label_01004E2E
@  #01 @158   ----------------------------------------
 .byte   PATT
  .word Label_01004E37
@  #01 @159   ----------------------------------------
 .byte   PATT
  .word Label_01004E5C
@  #01 @160   ----------------------------------------
 .byte   PATT
  .word Label_01004E65
@  #01 @161   ----------------------------------------
 .byte   PATT
  .word Label_01004E2E
@  #01 @162   ----------------------------------------
 .byte   PATT
  .word Label_01004E37
@  #01 @163   ----------------------------------------
 .byte   PATT
  .word Label_01004E3E
@  #01 @164   ----------------------------------------
 .byte   PATT
  .word Label_01004E47
@  #01 @165   ----------------------------------------
 .byte   PATT
  .word Label_01004E2E
@  #01 @166   ----------------------------------------
 .byte   PATT
  .word Label_01004E37
@  #01 @167   ----------------------------------------
 .byte   PATT
  .word Label_01004E5C
@  #01 @168   ----------------------------------------
 .byte   PATT
  .word Label_01004E65
@  #01 @169   ----------------------------------------
 .byte   PATT
  .word Label_01004E2E
@  #01 @170   ----------------------------------------
 .byte   PATT
  .word Label_01004E37
@  #01 @171   ----------------------------------------
 .byte   PATT
  .word Label_01004E3E
@  #01 @172   ----------------------------------------
 .byte   PATT
  .word Label_01004E47
@  #01 @173   ----------------------------------------
 .byte   PATT
  .word Label_01004E2E
@  #01 @174   ----------------------------------------
 .byte   PATT
  .word Label_01004E37
@  #01 @175   ----------------------------------------
 .byte   PATT
  .word Label_01004E5C
@  #01 @176   ----------------------------------------
 .byte   PATT
  .word Label_01004E65
@  #01 @177   ----------------------------------------
 .byte   PATT
  .word Label_01004E2E
@  #01 @178   ----------------------------------------
 .byte   PATT
  .word Label_01004E37
@  #01 @179   ----------------------------------------
 .byte   PATT
  .word Label_01004E3E
@  #01 @180   ----------------------------------------
 .byte   PATT
  .word Label_01004E47
@  #01 @181   ----------------------------------------
 .byte   PATT
  .word Label_01004E2E
@  #01 @182   ----------------------------------------
 .byte   PATT
  .word Label_01004E37
@  #01 @183   ----------------------------------------
 .byte   PATT
  .word Label_01004E5C
@  #01 @184   ----------------------------------------
 .byte   PATT
  .word Label_01004E65
@  #01 @185   ----------------------------------------
 .byte   N36 ,Cs2 ,v060
 .byte   N36 ,Fn2
 .byte   W36
 .byte   Fn2 ,v052
 .byte   N36 ,Fn4
 .byte   W36
 .byte   Gs2
 .byte   N36 ,Gs4
 .byte   W36
@  #01 @186   ----------------------------------------
 .byte   Gn2 ,v060
 .byte   W36
 .byte   Fn1
 .byte   N36 ,Fn2
 .byte   N36 ,Gs3
 .byte   W36
 .byte   Gs2
 .byte   W36
@  #01 @187   ----------------------------------------
 .byte   Cn3
 .byte   W36
 .byte   Cs3
 .byte   W36
 .byte   Ds1
 .byte   N36 ,Gn2
 .byte   W36
@  #01 @188   ----------------------------------------
 .byte   Gn2 ,v044
 .byte   N36 ,Gn4
 .byte   W36
 .byte   Gs2
 .byte   N36 ,Gs4
 .byte   W36
 .byte   Gn2
 .byte   N36 ,Gn4
 .byte   W36
@  #01 @189   ----------------------------------------
 .byte   Gs2 ,v052
 .byte   N36 ,Gs3
 .byte   W36
 .byte   Gn2 ,v060
 .byte   W36
 .byte   Cn3
 .byte   N36 ,Cn4
 .byte   W36
@  #01 @190   ----------------------------------------
 .byte   Ds3
 .byte   N36 ,Ds4
 .byte   W36
 .byte   GOTO
  .word Label_01004BD0
 .byte   FINE

@**************** Track 2 (Midi-Chn.1) ****************@

song04_002:
@  #02 @000   ----------------------------------------
 .byte   VOL , 30*song04_mvl/mxv
 .byte   KEYSH , song04_key+0
Label_01004F90:
 .byte   VOICE , 1
 .byte   MODT 0
 .byte   LFOS 44
 .byte   N12 ,Fn3 ,v060
 .byte   W12
 .byte   Gs3
 .byte   W12
 .byte   Fn3
 .byte   W12
 .byte   Gs3
 .byte   W12
 .byte   Fn3
 .byte   W12
 .byte   Gs3
 .byte   W12
 .byte   Fn3
 .byte   W12
 .byte   Gs3
 .byte   W12
@  #02 @001   ----------------------------------------
Label_01004FA8:
 .byte   N12 ,Fn3 ,v060
 .byte   W12
 .byte   Gs3
 .byte   W12
 .byte   Fn3
 .byte   W12
 .byte   Gs3
 .byte   W12
 .byte   Fn3
 .byte   W12
 .byte   Gs3
 .byte   W12
 .byte   Fn3
 .byte   W12
 .byte   Gs3
 .byte   W12
 .byte   PEND 
@  #02 @002   ----------------------------------------
Label_01004FBB:
 .byte   N12 ,Fn3 ,v060
 .byte   W12
 .byte   Cn4
 .byte   W12
 .byte   Fn3
 .byte   W12
 .byte   Cn4
 .byte   W12
 .byte   Fn3
 .byte   W12
 .byte   Cn4
 .byte   W12
 .byte   Fn3
 .byte   W12
 .byte   Cn4
 .byte   W12
 .byte   PEND 
@  #02 @003   ----------------------------------------
Label_01004FCE:
 .byte   N12 ,Fn3 ,v060
 .byte   W12
 .byte   As3
 .byte   W12
 .byte   Fn3
 .byte   W12
 .byte   As3
 .byte   W12
 .byte   Fn3
 .byte   W12
 .byte   As3
 .byte   W12
 .byte   Fn3
 .byte   W12
 .byte   As3
 .byte   W12
 .byte   PEND 
@  #02 @004   ----------------------------------------
 .byte   PATT
  .word Label_01004FA8
@  #02 @005   ----------------------------------------
 .byte   PATT
  .word Label_01004FA8
@  #02 @006   ----------------------------------------
 .byte   PATT
  .word Label_01004FBB
@  #02 @007   ----------------------------------------
 .byte   PATT
  .word Label_01004FCE
@  #02 @008   ----------------------------------------
 .byte   PATT
  .word Label_01004FA8
@  #02 @009   ----------------------------------------
 .byte   PATT
  .word Label_01004FA8
@  #02 @010   ----------------------------------------
 .byte   PATT
  .word Label_01004FBB
@  #02 @011   ----------------------------------------
 .byte   PATT
  .word Label_01004FCE
@  #02 @012   ----------------------------------------
 .byte   PATT
  .word Label_01004FA8
@  #02 @013   ----------------------------------------
 .byte   PATT
  .word Label_01004FA8
@  #02 @014   ----------------------------------------
 .byte   PATT
  .word Label_01004FBB
@  #02 @015   ----------------------------------------
 .byte   PATT
  .word Label_01004FCE
@  #02 @016   ----------------------------------------
 .byte   PATT
  .word Label_01004FA8
@  #02 @017   ----------------------------------------
 .byte   PATT
  .word Label_01004FA8
@  #02 @018   ----------------------------------------
 .byte   PATT
  .word Label_01004FBB
@  #02 @019   ----------------------------------------
 .byte   PATT
  .word Label_01004FCE
@  #02 @020   ----------------------------------------
 .byte   PATT
  .word Label_01004FA8
@  #02 @021   ----------------------------------------
 .byte   PATT
  .word Label_01004FA8
@  #02 @022   ----------------------------------------
 .byte   PATT
  .word Label_01004FBB
@  #02 @023   ----------------------------------------
 .byte   PATT
  .word Label_01004FCE
@  #02 @024   ----------------------------------------
 .byte   PATT
  .word Label_01004FA8
@  #02 @025   ----------------------------------------
 .byte   PATT
  .word Label_01004FA8
@  #02 @026   ----------------------------------------
 .byte   PATT
  .word Label_01004FBB
@  #02 @027   ----------------------------------------
 .byte   PATT
  .word Label_01004FCE
@  #02 @028   ----------------------------------------
 .byte   PATT
  .word Label_01004FA8
@  #02 @029   ----------------------------------------
 .byte   PATT
  .word Label_01004FA8
@  #02 @030   ----------------------------------------
 .byte   PATT
  .word Label_01004FBB
@  #02 @031   ----------------------------------------
 .byte   PATT
  .word Label_01004FCE
@  #02 @032   ----------------------------------------
 .byte   PATT
  .word Label_01004FA8
@  #02 @033   ----------------------------------------
 .byte   PATT
  .word Label_01004FA8
@  #02 @034   ----------------------------------------
 .byte   PATT
  .word Label_01004FBB
@  #02 @035   ----------------------------------------
 .byte   PATT
  .word Label_01004FCE
@  #02 @036   ----------------------------------------
 .byte   PATT
  .word Label_01004FA8
@  #02 @037   ----------------------------------------
 .byte   PATT
  .word Label_01004FA8
@  #02 @038   ----------------------------------------
 .byte   PATT
  .word Label_01004FBB
@  #02 @039   ----------------------------------------
 .byte   PATT
  .word Label_01004FCE
@  #02 @040   ----------------------------------------
 .byte   PATT
  .word Label_01004FA8
@  #02 @041   ----------------------------------------
 .byte   PATT
  .word Label_01004FA8
@  #02 @042   ----------------------------------------
 .byte   PATT
  .word Label_01004FBB
@  #02 @043   ----------------------------------------
 .byte   PATT
  .word Label_01004FCE
@  #02 @044   ----------------------------------------
 .byte   PATT
  .word Label_01004FA8
@  #02 @045   ----------------------------------------
 .byte   PATT
  .word Label_01004FA8
@  #02 @046   ----------------------------------------
 .byte   PATT
  .word Label_01004FBB
@  #02 @047   ----------------------------------------
 .byte   PATT
  .word Label_01004FCE
@  #02 @048   ----------------------------------------
 .byte   PATT
  .word Label_01004FA8
@  #02 @049   ----------------------------------------
 .byte   PATT
  .word Label_01004FA8
@  #02 @050   ----------------------------------------
 .byte   PATT
  .word Label_01004FBB
@  #02 @051   ----------------------------------------
 .byte   PATT
  .word Label_01004FCE
@  #02 @052   ----------------------------------------
 .byte   PATT
  .word Label_01004FA8
@  #02 @053   ----------------------------------------
 .byte   PATT
  .word Label_01004FA8
@  #02 @054   ----------------------------------------
 .byte   PATT
  .word Label_01004FBB
@  #02 @055   ----------------------------------------
 .byte   PATT
  .word Label_01004FCE
@  #02 @056   ----------------------------------------
 .byte   PATT
  .word Label_01004FA8
@  #02 @057   ----------------------------------------
 .byte   PATT
  .word Label_01004FA8
@  #02 @058   ----------------------------------------
 .byte   PATT
  .word Label_01004FBB
@  #02 @059   ----------------------------------------
 .byte   PATT
  .word Label_01004FCE
@  #02 @060   ----------------------------------------
 .byte   PATT
  .word Label_01004FA8
@  #02 @061   ----------------------------------------
 .byte   PATT
  .word Label_01004FA8
@  #02 @062   ----------------------------------------
 .byte   PATT
  .word Label_01004FBB
@  #02 @063   ----------------------------------------
 .byte   PATT
  .word Label_01004FCE
@  #02 @064   ----------------------------------------
 .byte   W96
@  #02 @065   ----------------------------------------
Label_0100510E:
 .byte   N12 ,Gs3 ,v060
 .byte   W12
 .byte   Fn3
 .byte   W12
 .byte   Gs3
 .byte   W12
 .byte   Fn3
 .byte   W12
 .byte   Gs3
 .byte   W12
 .byte   Fn3
 .byte   W12
 .byte   PEND 
@  #02 @066   ----------------------------------------
 .byte   PATT
  .word Label_0100510E
@  #02 @067   ----------------------------------------
Label_01005122:
 .byte   N12 ,Gs3 ,v060
 .byte   W12
 .byte   Ds3
 .byte   W12
 .byte   Gs3
 .byte   W12
 .byte   Ds3
 .byte   W12
 .byte   Gs3
 .byte   W12
 .byte   Ds3
 .byte   W12
 .byte   PEND 
Label_01005131:
 .byte   N12 ,Gn3 ,v060
 .byte   W12
 .byte   Ds3
 .byte   W12
@  #02 @068   ----------------------------------------
 .byte   Gn3
 .byte   W12
 .byte   Ds3
 .byte   W12
 .byte   Gn3
 .byte   W12
 .byte   Ds3
 .byte   W12
 .byte   PEND 
@  #02 @069   ----------------------------------------
 .byte   PATT
  .word Label_01005131
@  #02 @070   ----------------------------------------
Label_01005145:
 .byte   N12 ,Gs3 ,v060
 .byte   W12
 .byte   Cs3
 .byte   W12
 .byte   Gs3
 .byte   W12
 .byte   Cs3
 .byte   W12
 .byte   Gs3
 .byte   W12
 .byte   Cs3
 .byte   W12
 .byte   PEND 
@  #02 @071   ----------------------------------------
 .byte   PATT
  .word Label_01005122
@  #02 @072   ----------------------------------------
 .byte   PATT
  .word Label_01005131
@  #02 @073   ----------------------------------------
 .byte   PATT
  .word Label_0100510E
@  #02 @074   ----------------------------------------
 .byte   PATT
  .word Label_0100510E
@  #02 @075   ----------------------------------------
 .byte   PATT
  .word Label_01005122
@  #02 @076   ----------------------------------------
 .byte   PATT
  .word Label_01005131
@  #02 @077   ----------------------------------------
 .byte   PATT
  .word Label_01005131
@  #02 @078   ----------------------------------------
 .byte   PATT
  .word Label_01005145
@  #02 @079   ----------------------------------------
 .byte   PATT
  .word Label_01005122
@  #02 @080   ----------------------------------------
Label_01005181:
 .byte   N12 ,As3 ,v060
 .byte   W12
 .byte   Ds3
 .byte   W12
 .byte   As3
 .byte   W12
 .byte   Ds3
 .byte   W12
 .byte   As3
 .byte   W12
 .byte   Ds3
 .byte   W12
 .byte   PEND 
@  #02 @081   ----------------------------------------
 .byte   PATT
  .word Label_0100510E
@  #02 @082   ----------------------------------------
 .byte   PATT
  .word Label_0100510E
@  #02 @083   ----------------------------------------
 .byte   PATT
  .word Label_01005122
@  #02 @084   ----------------------------------------
 .byte   PATT
  .word Label_01005131
@  #02 @085   ----------------------------------------
 .byte   PATT
  .word Label_01005131
@  #02 @086   ----------------------------------------
 .byte   PATT
  .word Label_01005145
@  #02 @087   ----------------------------------------
 .byte   PATT
  .word Label_01005122
@  #02 @088   ----------------------------------------
 .byte   PATT
  .word Label_01005131
@  #02 @089   ----------------------------------------
 .byte   PATT
  .word Label_0100510E
@  #02 @090   ----------------------------------------
 .byte   PATT
  .word Label_0100510E
@  #02 @091   ----------------------------------------
 .byte   PATT
  .word Label_01005122
@  #02 @092   ----------------------------------------
 .byte   PATT
  .word Label_01005131
@  #02 @093   ----------------------------------------
 .byte   PATT
  .word Label_01005131
@  #02 @094   ----------------------------------------
 .byte   PATT
  .word Label_01005145
@  #02 @095   ----------------------------------------
 .byte   PATT
  .word Label_01005122
@  #02 @096   ----------------------------------------
 .byte   PATT
  .word Label_01005181
@  #02 @097   ----------------------------------------
 .byte   PATT
  .word Label_0100510E
@  #02 @098   ----------------------------------------
 .byte   PATT
  .word Label_0100510E
@  #02 @099   ----------------------------------------
 .byte   PATT
  .word Label_01005122
@  #02 @100   ----------------------------------------
 .byte   PATT
  .word Label_01005131
@  #02 @101   ----------------------------------------
 .byte   PATT
  .word Label_01005131
@  #02 @102   ----------------------------------------
 .byte   PATT
  .word Label_01005145
@  #02 @103   ----------------------------------------
 .byte   PATT
  .word Label_01005122
@  #02 @104   ----------------------------------------
 .byte   PATT
  .word Label_01005131
@  #02 @105   ----------------------------------------
 .byte   PATT
  .word Label_0100510E
@  #02 @106   ----------------------------------------
 .byte   PATT
  .word Label_0100510E
@  #02 @107   ----------------------------------------
 .byte   PATT
  .word Label_01005122
@  #02 @108   ----------------------------------------
 .byte   PATT
  .word Label_01005131
@  #02 @109   ----------------------------------------
 .byte   PATT
  .word Label_01005131
@  #02 @110   ----------------------------------------
 .byte   PATT
  .word Label_01005145
@  #02 @111   ----------------------------------------
 .byte   PATT
  .word Label_01005122
@  #02 @112   ----------------------------------------
 .byte   PATT
  .word Label_01005181
@  #02 @113   ----------------------------------------
 .byte   PATT
  .word Label_0100510E
@  #02 @114   ----------------------------------------
 .byte   PATT
  .word Label_0100510E
@  #02 @115   ----------------------------------------
 .byte   PATT
  .word Label_01005122
@  #02 @116   ----------------------------------------
 .byte   PATT
  .word Label_01005131
@  #02 @117   ----------------------------------------
 .byte   PATT
  .word Label_01005131
@  #02 @118   ----------------------------------------
 .byte   PATT
  .word Label_01005145
@  #02 @119   ----------------------------------------
 .byte   PATT
  .word Label_01005122
@  #02 @120   ----------------------------------------
 .byte   PATT
  .word Label_01005131
@  #02 @121   ----------------------------------------
 .byte   PATT
  .word Label_0100510E
@  #02 @122   ----------------------------------------
 .byte   PATT
  .word Label_0100510E
@  #02 @123   ----------------------------------------
 .byte   PATT
  .word Label_01005122
@  #02 @124   ----------------------------------------
 .byte   PATT
  .word Label_01005131
@  #02 @125   ----------------------------------------
 .byte   PATT
  .word Label_01005131
@  #02 @126   ----------------------------------------
 .byte   PATT
  .word Label_01005145
@  #02 @127   ----------------------------------------
 .byte   PATT
  .word Label_01005122
@  #02 @128   ----------------------------------------
 .byte   PATT
  .word Label_01005181
@  #02 @129   ----------------------------------------
Label_01005280:
 .byte   N09 ,Gs4 ,v060
 .byte   W09
 .byte   Gn4
 .byte   W09
 .byte   Ds4
 .byte   W09
 .byte   Fn4
 .byte   W09
 .byte   Cs4
 .byte   W09
 .byte   Cn4
 .byte   W09
 .byte   Gs4
 .byte   W09
 .byte   Gn4
 .byte   W09
 .byte   PEND 
Label_01005293:
 .byte   N09 ,Ds4 ,v060
 .byte   W09
 .byte   Fn4
 .byte   W09
 .byte   Cs4
 .byte   W09
@  #02 @130   ----------------------------------------
 .byte   Cn4
 .byte   W09
 .byte   Gs4
 .byte   W09
 .byte   Gn4
 .byte   W09
 .byte   Ds4
 .byte   W09
 .byte   Fn4
 .byte   W09
 .byte   PEND 
Label_010052A6:
 .byte   N09 ,Cs4 ,v060
 .byte   W09
 .byte   Cn4
 .byte   W09
 .byte   Gs4
 .byte   W09
 .byte   Gn4
 .byte   W09
 .byte   Ds4
 .byte   W09
 .byte   Fn4
 .byte   W09
@  #02 @131   ----------------------------------------
 .byte   Cs4
 .byte   W09
 .byte   Cn4
 .byte   W09
 .byte   PEND 
@  #02 @132   ----------------------------------------
 .byte   PATT
  .word Label_01005280
@  #02 @133   ----------------------------------------
 .byte   PATT
  .word Label_01005293
@  #02 @134   ----------------------------------------
 .byte   PATT
  .word Label_010052A6
@  #02 @135   ----------------------------------------
 .byte   PATT
  .word Label_01005280
@  #02 @136   ----------------------------------------
 .byte   PATT
  .word Label_01005293
@  #02 @137   ----------------------------------------
 .byte   PATT
  .word Label_010052A6
@  #02 @138   ----------------------------------------
 .byte   PATT
  .word Label_01005280
@  #02 @139   ----------------------------------------
 .byte   PATT
  .word Label_01005293
@  #02 @140   ----------------------------------------
 .byte   PATT
  .word Label_010052A6
@  #02 @141   ----------------------------------------
 .byte   PATT
  .word Label_01005280
@  #02 @142   ----------------------------------------
 .byte   PATT
  .word Label_01005293
@  #02 @143   ----------------------------------------
 .byte   PATT
  .word Label_010052A6
@  #02 @144   ----------------------------------------
 .byte   PATT
  .word Label_01005280
@  #02 @145   ----------------------------------------
 .byte   PATT
  .word Label_01005293
@  #02 @146   ----------------------------------------
 .byte   PATT
  .word Label_010052A6
@  #02 @147   ----------------------------------------
 .byte   PATT
  .word Label_01005280
@  #02 @148   ----------------------------------------
 .byte   PATT
  .word Label_01005293
@  #02 @149   ----------------------------------------
 .byte   PATT
  .word Label_010052A6
@  #02 @150   ----------------------------------------
 .byte   PATT
  .word Label_01005280
@  #02 @151   ----------------------------------------
 .byte   PATT
  .word Label_01005293
@  #02 @152   ----------------------------------------
 .byte   PATT
  .word Label_010052A6
@  #02 @153   ----------------------------------------
 .byte   PATT
  .word Label_01005280
@  #02 @154   ----------------------------------------
 .byte   PATT
  .word Label_01005293
@  #02 @155   ----------------------------------------
 .byte   PATT
  .word Label_010052A6
@  #02 @156   ----------------------------------------
 .byte   PATT
  .word Label_01005280
@  #02 @157   ----------------------------------------
 .byte   PATT
  .word Label_01005293
@  #02 @158   ----------------------------------------
 .byte   PATT
  .word Label_010052A6
@  #02 @159   ----------------------------------------
 .byte   PATT
  .word Label_01005280
@  #02 @160   ----------------------------------------
 .byte   PATT
  .word Label_01005293
@  #02 @161   ----------------------------------------
 .byte   PATT
  .word Label_010052A6
@  #02 @162   ----------------------------------------
 .byte   PATT
  .word Label_01005280
@  #02 @163   ----------------------------------------
 .byte   PATT
  .word Label_01005293
@  #02 @164   ----------------------------------------
 .byte   PATT
  .word Label_010052A6
@  #02 @165   ----------------------------------------
 .byte   PATT
  .word Label_01005280
@  #02 @166   ----------------------------------------
 .byte   PATT
  .word Label_01005293
@  #02 @167   ----------------------------------------
 .byte   PATT
  .word Label_010052A6
@  #02 @168   ----------------------------------------
 .byte   PATT
  .word Label_01005280
@  #02 @169   ----------------------------------------
 .byte   PATT
  .word Label_01005293
@  #02 @170   ----------------------------------------
 .byte   PATT
  .word Label_010052A6
@  #02 @171   ----------------------------------------
 .byte   PATT
  .word Label_01005280
@  #02 @172   ----------------------------------------
 .byte   PATT
  .word Label_01005293
@  #02 @173   ----------------------------------------
 .byte   PATT
  .word Label_010052A6
@  #02 @174   ----------------------------------------
 .byte   PATT
  .word Label_01005280
@  #02 @175   ----------------------------------------
 .byte   PATT
  .word Label_01005293
@  #02 @176   ----------------------------------------
 .byte   PATT
  .word Label_010052A6
@  #02 @177   ----------------------------------------
 .byte   PATT
  .word Label_01005280
@  #02 @178   ----------------------------------------
 .byte   PATT
  .word Label_01005293
@  #02 @179   ----------------------------------------
 .byte   PATT
  .word Label_010052A6
@  #02 @180   ----------------------------------------
 .byte   PATT
  .word Label_01005280
@  #02 @181   ----------------------------------------
 .byte   PATT
  .word Label_01005293
@  #02 @182   ----------------------------------------
 .byte   PATT
  .word Label_010052A6
@  #02 @183   ----------------------------------------
 .byte   PATT
  .word Label_01005280
@  #02 @184   ----------------------------------------
 .byte   PATT
  .word Label_01005293
@  #02 @185   ----------------------------------------
 .byte   PATT
  .word Label_010052A6
@  #02 @186   ----------------------------------------
 .byte   PATT
  .word Label_01005280
@  #02 @187   ----------------------------------------
 .byte   PATT
  .word Label_01005293
@  #02 @188   ----------------------------------------
 .byte   PATT
  .word Label_010052A6
@  #02 @189   ----------------------------------------
 .byte   PATT
  .word Label_01005280
@  #02 @190   ----------------------------------------
 .byte   PATT
  .word Label_01005293
@  #02 @191   ----------------------------------------
 .byte   PATT
  .word Label_010052A6
@  #02 @192   ----------------------------------------
 .byte   PATT
  .word Label_01005280
@  #02 @193   ----------------------------------------
 .byte   N09 ,Gs4 ,v060
 .byte   W72
 .byte   W72
@  #02 @194   ----------------------------------------
 .byte   W72
 .byte   W72
@  #02 @195   ----------------------------------------
 .byte   W72
 .byte   W72
@  #02 @196   ----------------------------------------
 .byte   W72
 .byte   W72
@  #02 @197   ----------------------------------------
 .byte   GOTO
  .word Label_01004F90
 .byte   FINE

@**************** Track 3 (Midi-Chn.2) ****************@

song04_003:
@  #03 @000   ----------------------------------------
 .byte   VOL , 30*song04_mvl/mxv
 .byte   KEYSH , song04_key+0
Label_01005414:
 .byte   VOICE , 104
 .byte   MODT 0
 .byte   LFOS 44
 .byte   W96
@  #03 @001   ----------------------------------------
 .byte   W96
@  #03 @002   ----------------------------------------
 .byte   W96
@  #03 @003   ----------------------------------------
 .byte   W96
@  #03 @004   ----------------------------------------
 .byte   W96
@  #03 @005   ----------------------------------------
 .byte   W96
@  #03 @006   ----------------------------------------
 .byte   W96
@  #03 @007   ----------------------------------------
 .byte   W96
@  #03 @008   ----------------------------------------
Label_01005422:
 .byte   N12 ,As2 ,v060
 .byte   W12
 .byte   N36 ,Cn3
 .byte   W36
 .byte   N12 ,Gn2
 .byte   W12
 .byte   N36 ,Gs2
 .byte   W36
 .byte   PEND 
@  #03 @009   ----------------------------------------
Label_01005430:
 .byte   N12 ,As2 ,v060
 .byte   W12
 .byte   N36 ,Cn3
 .byte   W36
 .byte   N12 ,Gs2
 .byte   W12
 .byte   N36 ,Gn2
 .byte   W36
 .byte   PEND 
@  #03 @010   ----------------------------------------
 .byte   N96 ,As2
 .byte   W96
@  #03 @011   ----------------------------------------
 .byte   W96
@  #03 @012   ----------------------------------------
 .byte   PATT
  .word Label_01005422
@  #03 @013   ----------------------------------------
 .byte   PATT
  .word Label_01005430
@  #03 @014   ----------------------------------------
 .byte   N96 ,Ds2 ,v060
 .byte   W96
@  #03 @015   ----------------------------------------
 .byte   W96
@  #03 @016   ----------------------------------------
 .byte   PATT
  .word Label_01005422
@  #03 @017   ----------------------------------------
 .byte   PATT
  .word Label_01005430
@  #03 @018   ----------------------------------------
 .byte   N96 ,As2 ,v060
 .byte   W96
@  #03 @019   ----------------------------------------
 .byte   W96
@  #03 @020   ----------------------------------------
 .byte   PATT
  .word Label_01005422
@  #03 @021   ----------------------------------------
 .byte   PATT
  .word Label_01005430
@  #03 @022   ----------------------------------------
 .byte   N96 ,Ds2 ,v060
 .byte   W96
@  #03 @023   ----------------------------------------
 .byte   W96
@  #03 @024   ----------------------------------------
 .byte   PATT
  .word Label_01005422
@  #03 @025   ----------------------------------------
 .byte   PATT
  .word Label_01005430
@  #03 @026   ----------------------------------------
 .byte   N96 ,As2 ,v060
 .byte   W96
@  #03 @027   ----------------------------------------
 .byte   W96
@  #03 @028   ----------------------------------------
 .byte   PATT
  .word Label_01005422
@  #03 @029   ----------------------------------------
 .byte   PATT
  .word Label_01005430
@  #03 @030   ----------------------------------------
 .byte   N96 ,Ds2 ,v060
 .byte   W96
@  #03 @031   ----------------------------------------
 .byte   W96
@  #03 @032   ----------------------------------------
 .byte   PATT
  .word Label_01005422
@  #03 @033   ----------------------------------------
 .byte   PATT
  .word Label_01005430
@  #03 @034   ----------------------------------------
 .byte   N96 ,As2 ,v060
 .byte   W96
@  #03 @035   ----------------------------------------
 .byte   W96
@  #03 @036   ----------------------------------------
 .byte   PATT
  .word Label_01005422
@  #03 @037   ----------------------------------------
 .byte   PATT
  .word Label_01005430
@  #03 @038   ----------------------------------------
 .byte   N96 ,Ds2 ,v060
 .byte   W96
@  #03 @039   ----------------------------------------
 .byte   W96
@  #03 @040   ----------------------------------------
 .byte   PATT
  .word Label_01005422
@  #03 @041   ----------------------------------------
 .byte   PATT
  .word Label_01005430
@  #03 @042   ----------------------------------------
 .byte   N96 ,As2 ,v060
 .byte   W96
@  #03 @043   ----------------------------------------
 .byte   W96
@  #03 @044   ----------------------------------------
 .byte   PATT
  .word Label_01005422
@  #03 @045   ----------------------------------------
 .byte   PATT
  .word Label_01005430
@  #03 @046   ----------------------------------------
 .byte   N96 ,Ds2 ,v060
 .byte   W96
@  #03 @047   ----------------------------------------
 .byte   W96
@  #03 @048   ----------------------------------------
 .byte   PATT
  .word Label_01005422
@  #03 @049   ----------------------------------------
 .byte   PATT
  .word Label_01005430
@  #03 @050   ----------------------------------------
 .byte   N96 ,As2 ,v060
 .byte   W96
@  #03 @051   ----------------------------------------
 .byte   W96
@  #03 @052   ----------------------------------------
 .byte   PATT
  .word Label_01005422
@  #03 @053   ----------------------------------------
 .byte   PATT
  .word Label_01005430
@  #03 @054   ----------------------------------------
 .byte   N96 ,Ds2 ,v060
 .byte   W96
@  #03 @055   ----------------------------------------
 .byte   W96
@  #03 @056   ----------------------------------------
 .byte   Gs3
 .byte   W96
@  #03 @057   ----------------------------------------
 .byte   W96
@  #03 @058   ----------------------------------------
 .byte   Gn3
 .byte   W96
@  #03 @059   ----------------------------------------
Label_010054EC:
 .byte   W36
 .byte   N24 ,Gs3 ,v060
 .byte   W36
 .byte   As3
 .byte   W24
 .byte   PEND 
@  #03 @060   ----------------------------------------
 .byte   N96 ,Cn4
 .byte   W96
@  #03 @061   ----------------------------------------
 .byte   Gs3
 .byte   W96
@  #03 @062   ----------------------------------------
 .byte   Gn3
 .byte   W96
@  #03 @063   ----------------------------------------
 .byte   PATT
  .word Label_010054EC
@  #03 @064   ----------------------------------------
 .byte   N96 ,Cn4 ,v060
 .byte   W96
@  #03 @065   ----------------------------------------
 .byte   W72
 .byte   W72
@  #03 @066   ----------------------------------------
 .byte   W72
 .byte   W72
@  #03 @067   ----------------------------------------
 .byte   W72
 .byte   W72
@  #03 @068   ----------------------------------------
 .byte   W72
 .byte   W72
@  #03 @069   ----------------------------------------
 .byte   W72
 .byte   W72
@  #03 @070   ----------------------------------------
 .byte   W72
 .byte   W72
@  #03 @071   ----------------------------------------
 .byte   W72
 .byte   W72
@  #03 @072   ----------------------------------------
 .byte   W72
 .byte   W72
@  #03 @073   ----------------------------------------
 .byte   W72
 .byte   W72
@  #03 @074   ----------------------------------------
 .byte   W72
 .byte   W72
@  #03 @075   ----------------------------------------
 .byte   W72
 .byte   W72
@  #03 @076   ----------------------------------------
 .byte   W72
 .byte   W72
@  #03 @077   ----------------------------------------
 .byte   W72
 .byte   W72
@  #03 @078   ----------------------------------------
 .byte   W72
 .byte   W72
@  #03 @079   ----------------------------------------
 .byte   W72
 .byte   W72
@  #03 @080   ----------------------------------------
 .byte   W72
 .byte   W72
@  #03 @081   ----------------------------------------
 .byte   W72
 .byte   W72
@  #03 @082   ----------------------------------------
 .byte   W72
 .byte   W72
@  #03 @083   ----------------------------------------
 .byte   W72
 .byte   W72
@  #03 @084   ----------------------------------------
 .byte   W72
 .byte   W72
@  #03 @085   ----------------------------------------
 .byte   W72
 .byte   W72
@  #03 @086   ----------------------------------------
 .byte   W72
 .byte   W72
@  #03 @087   ----------------------------------------
 .byte   W72
 .byte   W72
@  #03 @088   ----------------------------------------
 .byte   W72
 .byte   W72
@  #03 @089   ----------------------------------------
 .byte   W72
 .byte   W72
@  #03 @090   ----------------------------------------
 .byte   W72
 .byte   W72
@  #03 @091   ----------------------------------------
 .byte   W72
 .byte   W72
@  #03 @092   ----------------------------------------
 .byte   W72
 .byte   W72
@  #03 @093   ----------------------------------------
 .byte   W72
 .byte   W72
@  #03 @094   ----------------------------------------
 .byte   W72
 .byte   W72
@  #03 @095   ----------------------------------------
 .byte   W72
 .byte   W72
@  #03 @096   ----------------------------------------
 .byte   W72
 .byte   W72
@  #03 @097   ----------------------------------------
 .byte   W72
 .byte   W72
@  #03 @098   ----------------------------------------
 .byte   W72
 .byte   W72
@  #03 @099   ----------------------------------------
 .byte   W72
 .byte   W72
@  #03 @100   ----------------------------------------
 .byte   W72
 .byte   W72
@  #03 @101   ----------------------------------------
 .byte   W72
 .byte   W72
@  #03 @102   ----------------------------------------
 .byte   W72
 .byte   W72
@  #03 @103   ----------------------------------------
 .byte   W72
 .byte   W72
@  #03 @104   ----------------------------------------
 .byte   W72
 .byte   W72
@  #03 @105   ----------------------------------------
 .byte   W72
 .byte   W72
@  #03 @106   ----------------------------------------
 .byte   W72
 .byte   W72
@  #03 @107   ----------------------------------------
 .byte   W72
 .byte   W72
@  #03 @108   ----------------------------------------
 .byte   W72
 .byte   W72
@  #03 @109   ----------------------------------------
 .byte   W72
 .byte   W72
@  #03 @110   ----------------------------------------
 .byte   W72
 .byte   W72
@  #03 @111   ----------------------------------------
 .byte   W72
 .byte   W72
@  #03 @112   ----------------------------------------
 .byte   W72
 .byte   W72
@  #03 @113   ----------------------------------------
 .byte   W72
 .byte   W72
@  #03 @114   ----------------------------------------
 .byte   W72
 .byte   W72
@  #03 @115   ----------------------------------------
 .byte   W72
 .byte   W72
@  #03 @116   ----------------------------------------
 .byte   W72
 .byte   W72
@  #03 @117   ----------------------------------------
 .byte   N72 ,Gs3
 .byte   W72
 .byte   W72
@  #03 @118   ----------------------------------------
 .byte   W72
 .byte   Gn3
 .byte   W72
@  #03 @119   ----------------------------------------
 .byte   Fn3
 .byte   W72
 .byte   W72
@  #03 @120   ----------------------------------------
 .byte   As3
 .byte   W72
 .byte   W72
@  #03 @121   ----------------------------------------
 .byte   Gs3
 .byte   W72
 .byte   W72
@  #03 @122   ----------------------------------------
 .byte   W72
 .byte   Gn3
 .byte   W72
@  #03 @123   ----------------------------------------
 .byte   Gs3
 .byte   W72
 .byte   W72
@  #03 @124   ----------------------------------------
 .byte   As3
 .byte   W72
 .byte   W72
@  #03 @125   ----------------------------------------
 .byte   Cn4
 .byte   W72
 .byte   W72
@  #03 @126   ----------------------------------------
 .byte   Gs3
 .byte   W72
 .byte   Gn3
 .byte   W72
@  #03 @127   ----------------------------------------
 .byte   Cn4
 .byte   W72
 .byte   W72
@  #03 @128   ----------------------------------------
 .byte   As3
 .byte   W72
 .byte   W72
@  #03 @129   ----------------------------------------
 .byte   Gs3
 .byte   W72
 .byte   W72
@  #03 @130   ----------------------------------------
 .byte   W72
 .byte   W72
@  #03 @131   ----------------------------------------
 .byte   W72
 .byte   W72
@  #03 @132   ----------------------------------------
 .byte   W72
 .byte   W72
@  #03 @133   ----------------------------------------
 .byte   GOTO
  .word Label_01005414
 .byte   FINE

@**************** Track 4 (Midi-Chn.3) ****************@

song04_004:
@  #04 @000   ----------------------------------------
 .byte   VOL , 30*song04_mvl/mxv
 .byte   KEYSH , song04_key+0
Label_010055B8:
 .byte   VOICE , 104
 .byte   MODT 0
 .byte   LFOS 44
 .byte   W96
@  #04 @001   ----------------------------------------
 .byte   W96
@  #04 @002   ----------------------------------------
 .byte   W96
@  #04 @003   ----------------------------------------
 .byte   W96
@  #04 @004   ----------------------------------------
 .byte   W96
@  #04 @005   ----------------------------------------
 .byte   W96
@  #04 @006   ----------------------------------------
 .byte   W96
@  #04 @007   ----------------------------------------
 .byte   W96
@  #04 @008   ----------------------------------------
 .byte   W96
@  #04 @009   ----------------------------------------
 .byte   W96
@  #04 @010   ----------------------------------------
 .byte   W96
@  #04 @011   ----------------------------------------
 .byte   W96
@  #04 @012   ----------------------------------------
 .byte   W96
@  #04 @013   ----------------------------------------
 .byte   W96
@  #04 @014   ----------------------------------------
 .byte   W96
@  #04 @015   ----------------------------------------
 .byte   W96
@  #04 @016   ----------------------------------------
 .byte   W96
@  #04 @017   ----------------------------------------
 .byte   W96
@  #04 @018   ----------------------------------------
 .byte   W96
@  #04 @019   ----------------------------------------
 .byte   W96
@  #04 @020   ----------------------------------------
 .byte   W96
@  #04 @021   ----------------------------------------
 .byte   W96
@  #04 @022   ----------------------------------------
 .byte   W96
@  #04 @023   ----------------------------------------
 .byte   W96
@  #04 @024   ----------------------------------------
Label_010055D6:
 .byte   N12 ,As2 ,v060
 .byte   W12
 .byte   N36 ,Cn3
 .byte   W36
 .byte   N12 ,As2
 .byte   W12
 .byte   N36 ,Cn3
 .byte   W36
 .byte   PEND 
@  #04 @025   ----------------------------------------
 .byte   PATT
  .word Label_010055D6
@  #04 @026   ----------------------------------------
 .byte   N96 ,As2 ,v060
 .byte   W96
@  #04 @027   ----------------------------------------
 .byte   W96
@  #04 @028   ----------------------------------------
 .byte   PATT
  .word Label_010055D6
@  #04 @029   ----------------------------------------
 .byte   PATT
  .word Label_010055D6
@  #04 @030   ----------------------------------------
 .byte   N96 ,Ds3 ,v060
 .byte   W96
@  #04 @031   ----------------------------------------
 .byte   W96
@  #04 @032   ----------------------------------------
 .byte   PATT
  .word Label_010055D6
@  #04 @033   ----------------------------------------
 .byte   PATT
  .word Label_010055D6
@  #04 @034   ----------------------------------------
 .byte   N96 ,As2 ,v060
 .byte   W96
@  #04 @035   ----------------------------------------
 .byte   W96
@  #04 @036   ----------------------------------------
 .byte   PATT
  .word Label_010055D6
@  #04 @037   ----------------------------------------
 .byte   PATT
  .word Label_010055D6
@  #04 @038   ----------------------------------------
 .byte   N96 ,Ds3 ,v060
 .byte   W96
@  #04 @039   ----------------------------------------
 .byte   W96
@  #04 @040   ----------------------------------------
 .byte   PATT
  .word Label_010055D6
@  #04 @041   ----------------------------------------
 .byte   PATT
  .word Label_010055D6
@  #04 @042   ----------------------------------------
 .byte   N96 ,As2 ,v060
 .byte   W96
@  #04 @043   ----------------------------------------
 .byte   W96
@  #04 @044   ----------------------------------------
 .byte   PATT
  .word Label_010055D6
@  #04 @045   ----------------------------------------
 .byte   PATT
  .word Label_010055D6
@  #04 @046   ----------------------------------------
 .byte   N96 ,Ds3 ,v060
 .byte   W96
@  #04 @047   ----------------------------------------
 .byte   W96
@  #04 @048   ----------------------------------------
 .byte   PATT
  .word Label_010055D6
@  #04 @049   ----------------------------------------
 .byte   PATT
  .word Label_010055D6
@  #04 @050   ----------------------------------------
 .byte   N96 ,As2 ,v060
 .byte   W96
@  #04 @051   ----------------------------------------
 .byte   W96
@  #04 @052   ----------------------------------------
 .byte   PATT
  .word Label_010055D6
@  #04 @053   ----------------------------------------
 .byte   PATT
  .word Label_010055D6
@  #04 @054   ----------------------------------------
 .byte   N96 ,Ds3 ,v060
 .byte   W96
@  #04 @055   ----------------------------------------
 .byte   W96
@  #04 @056   ----------------------------------------
Label_01005657:
 .byte   N12 ,Cs1 ,v060
 .byte   N12 ,Gs1
 .byte   N12 ,Cs2
 .byte   W12
 .byte   N06 ,Cs1
 .byte   N06 ,Gs1
 .byte   N06 ,Cs2
 .byte   W06
 .byte   N12 ,Cs1
 .byte   N12 ,Gs1
 .byte   N12 ,Cs2
 .byte   W12
 .byte   N06 ,Cs1
 .byte   N06 ,Gs1
 .byte   N06 ,Cs2
 .byte   W06
 .byte   Cs1
 .byte   N06 ,Gs1
 .byte   N06 ,Cs2
 .byte   W06
 .byte   Cs1
 .byte   N06 ,Gs1
 .byte   N06 ,Cs2
 .byte   W06
 .byte   N12 ,Cs1
 .byte   N12 ,Gs1
 .byte   N12 ,Cs2
 .byte   W12
 .byte   N06 ,Cs1
 .byte   N06 ,Gs1
 .byte   N06 ,Cs2
 .byte   W06
 .byte   N12 ,Cs1
 .byte   N12 ,Gs1
 .byte   N12 ,Cs2
 .byte   W12
 .byte   N06 ,Cs1
 .byte   N06 ,Gs1
 .byte   N06 ,Cs2
 .byte   W06
 .byte   Cs1
 .byte   N06 ,Gs1
 .byte   N06 ,Cs2
 .byte   W06
 .byte   Cs1
 .byte   N06 ,Gs1
 .byte   N06 ,Cs2
 .byte   W06
 .byte   PEND 
@  #04 @057   ----------------------------------------
Label_010056A9:
 .byte   N12 ,Fn1 ,v060
 .byte   N12 ,Cn2
 .byte   N12 ,Fn2
 .byte   W12
 .byte   N06 ,Fn1
 .byte   N06 ,Cn2
 .byte   N06 ,Fn2
 .byte   W06
 .byte   N12 ,Fn1
 .byte   N12 ,Cn2
 .byte   N12 ,Fn2
 .byte   W12
 .byte   N06 ,Fn1
 .byte   N06 ,Cn2
 .byte   N06 ,Fn2
 .byte   W06
 .byte   Fn1
 .byte   N06 ,Cn2
 .byte   N06 ,Fn2
 .byte   W06
 .byte   Fn1
 .byte   N06 ,Cn2
 .byte   N06 ,Fn2
 .byte   W06
 .byte   N12 ,Fn1
 .byte   N12 ,Cn2
 .byte   N12 ,Fn2
 .byte   W12
 .byte   N06 ,Fn1
 .byte   N06 ,Cn2
 .byte   N06 ,Fn2
 .byte   W06
 .byte   N12 ,Fn1
 .byte   N12 ,Cn2
 .byte   N12 ,Fn2
 .byte   W12
 .byte   N06 ,Fn1
 .byte   N06 ,Cn2
 .byte   N06 ,Fn2
 .byte   W06
 .byte   Fn1
 .byte   N06 ,Cn2
 .byte   N06 ,Fn2
 .byte   W06
 .byte   Fn1
 .byte   N06 ,Cn2
 .byte   N06 ,Fn2
 .byte   W06
 .byte   PEND 
@  #04 @058   ----------------------------------------
Label_010056FB:
 .byte   N12 ,Ds1 ,v060
 .byte   N12 ,As1
 .byte   N12 ,Ds2
 .byte   W12
 .byte   N06 ,Ds1
 .byte   N06 ,As1
 .byte   N06 ,Ds2
 .byte   W06
 .byte   N12 ,Ds1
 .byte   N12 ,As1
 .byte   N12 ,Ds2
 .byte   W12
 .byte   N06 ,Ds1
 .byte   N06 ,As1
 .byte   N06 ,Ds2
 .byte   W06
 .byte   Ds1
 .byte   N06 ,As1
 .byte   N06 ,Ds2
 .byte   W06
 .byte   Ds1
 .byte   N06 ,As1
 .byte   N06 ,Ds2
 .byte   W06
 .byte   N12 ,Ds1
 .byte   N12 ,As1
 .byte   N12 ,Ds2
 .byte   W12
 .byte   N06 ,Ds1
 .byte   N06 ,As1
 .byte   N06 ,Ds2
 .byte   W06
 .byte   N12 ,Ds1
 .byte   N12 ,As1
 .byte   N12 ,Ds2
 .byte   W12
 .byte   N06 ,Ds1
 .byte   N06 ,As1
 .byte   N06 ,Ds2
 .byte   W06
 .byte   Ds1
 .byte   N06 ,As1
 .byte   N06 ,Ds2
 .byte   W06
 .byte   Ds1
 .byte   N06 ,As1
 .byte   N06 ,Ds2
 .byte   W06
 .byte   PEND 
@  #04 @059   ----------------------------------------
 .byte   PATT
  .word Label_010056FB
@  #04 @060   ----------------------------------------
 .byte   PATT
  .word Label_01005657
@  #04 @061   ----------------------------------------
 .byte   PATT
  .word Label_010056A9
@  #04 @062   ----------------------------------------
 .byte   PATT
  .word Label_010056FB
@  #04 @063   ----------------------------------------
 .byte   PATT
  .word Label_010056FB
@  #04 @064   ----------------------------------------
 .byte   W96
@  #04 @065   ----------------------------------------
 .byte   W72
 .byte   W72
@  #04 @066   ----------------------------------------
 .byte   W72
 .byte   W72
@  #04 @067   ----------------------------------------
 .byte   W72
 .byte   W72
@  #04 @068   ----------------------------------------
 .byte   W72
 .byte   W72
@  #04 @069   ----------------------------------------
 .byte   W72
 .byte   W72
@  #04 @070   ----------------------------------------
 .byte   W72
 .byte   W72
@  #04 @071   ----------------------------------------
 .byte   W72
 .byte   W72
@  #04 @072   ----------------------------------------
 .byte   W72
 .byte   W72
@  #04 @073   ----------------------------------------
 .byte   W72
 .byte   W72
@  #04 @074   ----------------------------------------
 .byte   W72
 .byte   W72
@  #04 @075   ----------------------------------------
 .byte   W72
 .byte   W72
@  #04 @076   ----------------------------------------
 .byte   W72
 .byte   W72
@  #04 @077   ----------------------------------------
 .byte   W72
 .byte   W72
@  #04 @078   ----------------------------------------
 .byte   W72
 .byte   W72
@  #04 @079   ----------------------------------------
 .byte   W72
 .byte   W72
@  #04 @080   ----------------------------------------
 .byte   W72
 .byte   W72
@  #04 @081   ----------------------------------------
 .byte   W72
 .byte   W72
@  #04 @082   ----------------------------------------
 .byte   W72
 .byte   W72
@  #04 @083   ----------------------------------------
 .byte   W72
 .byte   W72
@  #04 @084   ----------------------------------------
 .byte   W72
 .byte   W72
@  #04 @085   ----------------------------------------
 .byte   W72
 .byte   W72
@  #04 @086   ----------------------------------------
 .byte   W72
 .byte   W72
@  #04 @087   ----------------------------------------
 .byte   W72
 .byte   W72
@  #04 @088   ----------------------------------------
 .byte   W72
 .byte   W72
@  #04 @089   ----------------------------------------
 .byte   W72
 .byte   W72
@  #04 @090   ----------------------------------------
 .byte   W72
 .byte   W72
@  #04 @091   ----------------------------------------
 .byte   W72
 .byte   W72
@  #04 @092   ----------------------------------------
 .byte   W72
 .byte   W72
@  #04 @093   ----------------------------------------
 .byte   W72
 .byte   W72
@  #04 @094   ----------------------------------------
 .byte   W72
 .byte   W72
@  #04 @095   ----------------------------------------
 .byte   W72
 .byte   W72
@  #04 @096   ----------------------------------------
 .byte   W72
 .byte   W72
@  #04 @097   ----------------------------------------
 .byte   W72
 .byte   W72
@  #04 @098   ----------------------------------------
 .byte   W72
 .byte   W72
@  #04 @099   ----------------------------------------
 .byte   W72
 .byte   W72
@  #04 @100   ----------------------------------------
 .byte   W72
 .byte   W72
@  #04 @101   ----------------------------------------
 .byte   W72
 .byte   W72
@  #04 @102   ----------------------------------------
 .byte   W72
 .byte   W72
@  #04 @103   ----------------------------------------
 .byte   W72
 .byte   W72
@  #04 @104   ----------------------------------------
 .byte   W72
 .byte   W72
@  #04 @105   ----------------------------------------
 .byte   W72
 .byte   W72
@  #04 @106   ----------------------------------------
 .byte   W72
 .byte   W72
@  #04 @107   ----------------------------------------
 .byte   W72
 .byte   W72
@  #04 @108   ----------------------------------------
 .byte   W72
 .byte   W72
@  #04 @109   ----------------------------------------
 .byte   W72
 .byte   W72
@  #04 @110   ----------------------------------------
 .byte   W72
 .byte   W72
@  #04 @111   ----------------------------------------
 .byte   W72
 .byte   W72
@  #04 @112   ----------------------------------------
 .byte   W72
 .byte   W72
@  #04 @113   ----------------------------------------
 .byte   W72
 .byte   W72
@  #04 @114   ----------------------------------------
 .byte   W72
 .byte   W72
@  #04 @115   ----------------------------------------
 .byte   W72
 .byte   W72
@  #04 @116   ----------------------------------------
 .byte   W72
 .byte   W72
@  #04 @117   ----------------------------------------
 .byte   W72
 .byte   W72
@  #04 @118   ----------------------------------------
 .byte   W72
 .byte   W72
@  #04 @119   ----------------------------------------
 .byte   W72
 .byte   W72
@  #04 @120   ----------------------------------------
 .byte   W72
 .byte   N09 ,Cs1 ,v060
 .byte   N09 ,Gs1
 .byte   N09 ,Cs2
 .byte   W09
 .byte   Cs1
 .byte   N09 ,Gs1
 .byte   N09 ,Cs2
 .byte   W09
 .byte   Cs1 ,v052
 .byte   N09 ,Gs1
 .byte   N09 ,Cs2
 .byte   W09
@  #04 @121   ----------------------------------------
 .byte   Cs1 ,v060
 .byte   N09 ,Gs1
 .byte   N09 ,Cs2
 .byte   W09
 .byte   Cs1
 .byte   N09 ,Gs1
 .byte   N09 ,Cs2
 .byte   W09
 .byte   Cs1 ,v044
 .byte   N09 ,Gs1
 .byte   N09 ,Cs2
 .byte   W09
 .byte   Cs1 ,v060
 .byte   N09 ,Gs1
 .byte   N09 ,Cs2
 .byte   W09
 .byte   Cs1
 .byte   N09 ,Gs1
 .byte   N09 ,Cs2
 .byte   W09
Label_0100580C:
 .byte   N09 ,Cs1 ,v060
 .byte   N09 ,Gs1
 .byte   N09 ,Cs2
 .byte   W09
 .byte   Cs1
 .byte   N09 ,Gs1
 .byte   N09 ,Cs2
 .byte   W09
 .byte   Cs1
 .byte   N09 ,Gs1
 .byte   N09 ,Cs2
 .byte   W09
 .byte   N18 ,Cs1
 .byte   N18 ,Gs1
 .byte   N18 ,Cs2
 .byte   W18
 .byte   N09 ,Cs1
 .byte   N09 ,Gs1
 .byte   N09 ,Cs2
 .byte   W09
@  #04 @122   ----------------------------------------
 .byte   Cs1
 .byte   N09 ,Gs1
 .byte   N09 ,Cs2
 .byte   W09
 .byte   Cs1
 .byte   N09 ,Gs1
 .byte   N09 ,Cs2
 .byte   W09
 .byte   PEND 
Label_0100583B:
 .byte   N09 ,Cs1 ,v060
 .byte   N09 ,Gs1
 .byte   N09 ,Cs2
 .byte   W09
 .byte   Cs1
 .byte   N09 ,Gs1
 .byte   N09 ,Cs2
 .byte   W09
 .byte   Cs1
 .byte   N09 ,Gs1
 .byte   N09 ,Cs2
 .byte   W09
 .byte   Cs1
 .byte   N09 ,Gs1
 .byte   N09 ,Cs2
 .byte   W09
 .byte   Cs1
 .byte   N09 ,Gs1
 .byte   N09 ,Cs2
 .byte   W09
 .byte   Cs1
 .byte   N09 ,Gs1
 .byte   N09 ,Cs2
 .byte   W09
 .byte   Cs1
 .byte   N09 ,Gs1
 .byte   N09 ,Cs2
 .byte   W09
 .byte   Cs1
 .byte   N09 ,Gs1
 .byte   N09 ,Cs2
 .byte   W09
 .byte   PEND 
Label_0100586E:
 .byte   N09 ,Fn1 ,v060
 .byte   N09 ,Cn2
 .byte   N09 ,Fn2
 .byte   W09
@  #04 @123   ----------------------------------------
 .byte   Fn1
 .byte   N09 ,Cn2
 .byte   N09 ,Fn2
 .byte   W09
 .byte   Fn1
 .byte   N09 ,Cn2
 .byte   N09 ,Fn2
 .byte   W09
 .byte   N18 ,Fn1
 .byte   N18 ,Cn2
 .byte   N18 ,Fn2
 .byte   W18
 .byte   N09 ,Fn1
 .byte   N09 ,Cn2
 .byte   N09 ,Fn2
 .byte   W09
 .byte   Fn1
 .byte   N09 ,Cn2
 .byte   N09 ,Fn2
 .byte   W09
 .byte   Fn1
 .byte   N09 ,Cn2
 .byte   N09 ,Fn2
 .byte   W09
 .byte   PEND 
Label_0100589D:
 .byte   N09 ,Fn1 ,v060
 .byte   N09 ,Cn2
 .byte   N09 ,Fn2
 .byte   W09
 .byte   Fn1
 .byte   N09 ,Cn2
 .byte   N09 ,Fn2
 .byte   W09
 .byte   Fn1
 .byte   N09 ,Cn2
 .byte   N09 ,Fn2
 .byte   W09
 .byte   Fn1
 .byte   N09 ,Cn2
 .byte   N09 ,Fn2
 .byte   W09
@  #04 @124   ----------------------------------------
 .byte   Fn1
 .byte   N09 ,Cn2
 .byte   N09 ,Fn2
 .byte   W09
 .byte   Fn1
 .byte   N09 ,Cn2
 .byte   N09 ,Fn2
 .byte   W09
 .byte   Fn1
 .byte   N09 ,Cn2
 .byte   N09 ,Fn2
 .byte   W09
 .byte   Fn1
 .byte   N09 ,Cn2
 .byte   N09 ,Fn2
 .byte   W09
 .byte   PEND 
@  #04 @125   ----------------------------------------
 .byte   PATT
  .word Label_0100580C
@  #04 @126   ----------------------------------------
 .byte   PATT
  .word Label_0100583B
@  #04 @127   ----------------------------------------
Label_010058DA:
 .byte   N09 ,Ds1 ,v060
 .byte   N09 ,As1
 .byte   N09 ,Ds2
 .byte   W09
 .byte   Ds1
 .byte   N09 ,As1
 .byte   N09 ,Ds2
 .byte   W09
 .byte   Ds1
 .byte   N09 ,As1
 .byte   N09 ,Ds2
 .byte   W09
 .byte   N18 ,Ds1
 .byte   N18 ,As1
 .byte   N18 ,Ds2
 .byte   W18
 .byte   N09 ,Ds1
 .byte   N09 ,As1
 .byte   N09 ,Ds2
 .byte   W09
 .byte   Ds1
 .byte   N09 ,As1
 .byte   N09 ,Ds2
 .byte   W09
 .byte   Ds1
 .byte   N09 ,As1
 .byte   N09 ,Ds2
 .byte   W09
 .byte   PEND 
Label_01005909:
 .byte   N09 ,Ds1 ,v060
 .byte   N09 ,As1
 .byte   N09 ,Ds2
 .byte   W09
 .byte   Ds1
 .byte   N09 ,As1
 .byte   N09 ,Ds2
 .byte   W09
 .byte   Ds1
 .byte   N09 ,As1
 .byte   N09 ,Ds2
 .byte   W09
@  #04 @128   ----------------------------------------
 .byte   Ds1
 .byte   N09 ,As1
 .byte   N09 ,Ds2
 .byte   W09
 .byte   Ds1
 .byte   N09 ,As1
 .byte   N09 ,Ds2
 .byte   W09
 .byte   Ds1
 .byte   N09 ,As1
 .byte   N09 ,Ds2
 .byte   W09
 .byte   Ds1
 .byte   N09 ,As1
 .byte   N09 ,Ds2
 .byte   W09
 .byte   Ds1
 .byte   N09 ,As1
 .byte   N09 ,Ds2
 .byte   W09
 .byte   PEND 
@  #04 @129   ----------------------------------------
 .byte   PATT
  .word Label_0100580C
@  #04 @130   ----------------------------------------
 .byte   PATT
  .word Label_0100583B
@  #04 @131   ----------------------------------------
 .byte   PATT
  .word Label_0100586E
@  #04 @132   ----------------------------------------
 .byte   PATT
  .word Label_0100589D
@  #04 @133   ----------------------------------------
 .byte   PATT
  .word Label_0100580C
@  #04 @134   ----------------------------------------
 .byte   PATT
  .word Label_0100583B
@  #04 @135   ----------------------------------------
 .byte   PATT
  .word Label_010058DA
@  #04 @136   ----------------------------------------
 .byte   PATT
  .word Label_01005909
@  #04 @137   ----------------------------------------
 .byte   W72
 .byte   W72
@  #04 @138   ----------------------------------------
 .byte   W72
 .byte   W72
@  #04 @139   ----------------------------------------
 .byte   W72
 .byte   W72
@  #04 @140   ----------------------------------------
 .byte   W72
 .byte   W72
@  #04 @141   ----------------------------------------
 .byte   GOTO
  .word Label_010055B8
 .byte   FINE

@**************** Track 5 (Midi-Chn.4) ****************@

song04_005:
@  #05 @000   ----------------------------------------
 .byte   VOL , 30*song04_mvl/mxv
 .byte   KEYSH , song04_key+0
Label_01005988:
 .byte   VOICE , 94
 .byte   MODT 0
 .byte   LFOS 44
 .byte   W96
@  #05 @001   ----------------------------------------
 .byte   W96
@  #05 @002   ----------------------------------------
 .byte   W96
@  #05 @003   ----------------------------------------
 .byte   W96
@  #05 @004   ----------------------------------------
 .byte   W96
@  #05 @005   ----------------------------------------
 .byte   W96
@  #05 @006   ----------------------------------------
 .byte   W96
@  #05 @007   ----------------------------------------
 .byte   W96
@  #05 @008   ----------------------------------------
 .byte   W96
@  #05 @009   ----------------------------------------
 .byte   W96
@  #05 @010   ----------------------------------------
 .byte   W96
@  #05 @011   ----------------------------------------
 .byte   W96
@  #05 @012   ----------------------------------------
 .byte   W96
@  #05 @013   ----------------------------------------
 .byte   W96
@  #05 @014   ----------------------------------------
 .byte   W96
@  #05 @015   ----------------------------------------
 .byte   W96
@  #05 @016   ----------------------------------------
 .byte   W12
 .byte   N36 ,Gs3 ,v060
 .byte   W84
@  #05 @017   ----------------------------------------
 .byte   W12
 .byte   N36
 .byte   W84
@  #05 @018   ----------------------------------------
 .byte   W12
 .byte   Gn3
 .byte   W84
@  #05 @019   ----------------------------------------
 .byte   W12
 .byte   N36
 .byte   W84
@  #05 @020   ----------------------------------------
 .byte   W12
 .byte   Gs3
 .byte   W84
@  #05 @021   ----------------------------------------
 .byte   W12
 .byte   N36
 .byte   W84
@  #05 @022   ----------------------------------------
 .byte   W12
 .byte   Gn3
 .byte   W84
@  #05 @023   ----------------------------------------
 .byte   W12
 .byte   N36
 .byte   W84
@  #05 @024   ----------------------------------------
 .byte   W12
 .byte   Gs3
 .byte   W84
@  #05 @025   ----------------------------------------
 .byte   W12
 .byte   N36
 .byte   W84
@  #05 @026   ----------------------------------------
 .byte   W12
 .byte   Gn3
 .byte   W84
@  #05 @027   ----------------------------------------
 .byte   W12
 .byte   N36
 .byte   W84
@  #05 @028   ----------------------------------------
 .byte   W12
 .byte   Gs3
 .byte   W84
@  #05 @029   ----------------------------------------
 .byte   W12
 .byte   N36
 .byte   W84
@  #05 @030   ----------------------------------------
 .byte   W12
 .byte   Gn3
 .byte   W84
@  #05 @031   ----------------------------------------
 .byte   W12
 .byte   N36
 .byte   W84
@  #05 @032   ----------------------------------------
 .byte   W12
 .byte   Gs3
 .byte   W84
@  #05 @033   ----------------------------------------
 .byte   W12
 .byte   N36
 .byte   W84
@  #05 @034   ----------------------------------------
 .byte   W12
 .byte   Gn3
 .byte   W84
@  #05 @035   ----------------------------------------
 .byte   W12
 .byte   N36
 .byte   W84
@  #05 @036   ----------------------------------------
 .byte   W12
 .byte   Gs3
 .byte   W84
@  #05 @037   ----------------------------------------
 .byte   W12
 .byte   N36
 .byte   W84
@  #05 @038   ----------------------------------------
 .byte   W12
 .byte   Gn3
 .byte   W84
@  #05 @039   ----------------------------------------
 .byte   W12
 .byte   N36
 .byte   W84
@  #05 @040   ----------------------------------------
 .byte   W12
 .byte   Gs3
 .byte   W84
@  #05 @041   ----------------------------------------
 .byte   W12
 .byte   N36
 .byte   W84
@  #05 @042   ----------------------------------------
 .byte   W12
 .byte   Gn3
 .byte   W84
@  #05 @043   ----------------------------------------
 .byte   W12
 .byte   N36
 .byte   W84
@  #05 @044   ----------------------------------------
 .byte   W12
 .byte   Gs3
 .byte   W84
@  #05 @045   ----------------------------------------
 .byte   W12
 .byte   N36
 .byte   W84
@  #05 @046   ----------------------------------------
 .byte   W12
 .byte   Gn3
 .byte   W84
@  #05 @047   ----------------------------------------
 .byte   W12
 .byte   N36
 .byte   W84
@  #05 @048   ----------------------------------------
 .byte   W12
 .byte   Gs3
 .byte   W84
@  #05 @049   ----------------------------------------
 .byte   W12
 .byte   N36
 .byte   W84
@  #05 @050   ----------------------------------------
 .byte   W12
 .byte   Gn3
 .byte   W84
@  #05 @051   ----------------------------------------
 .byte   W12
 .byte   N36
 .byte   W84
@  #05 @052   ----------------------------------------
 .byte   W12
 .byte   Gs3
 .byte   W84
@  #05 @053   ----------------------------------------
 .byte   W12
 .byte   N36
 .byte   W84
@  #05 @054   ----------------------------------------
 .byte   W12
 .byte   Gn3
 .byte   W84
@  #05 @055   ----------------------------------------
 .byte   W12
 .byte   N36
 .byte   W84
@  #05 @056   ----------------------------------------
 .byte   W12
 .byte   Gs3
 .byte   W84
@  #05 @057   ----------------------------------------
 .byte   W12
 .byte   N36
 .byte   W84
@  #05 @058   ----------------------------------------
 .byte   W12
 .byte   Gn3
 .byte   W84
@  #05 @059   ----------------------------------------
 .byte   W12
 .byte   N36
 .byte   W84
@  #05 @060   ----------------------------------------
 .byte   W12
 .byte   Gs3
 .byte   W84
@  #05 @061   ----------------------------------------
 .byte   W12
 .byte   N36
 .byte   W84
@  #05 @062   ----------------------------------------
 .byte   W12
 .byte   Gn3
 .byte   W84
@  #05 @063   ----------------------------------------
 .byte   W12
 .byte   N36
 .byte   W84
@  #05 @064   ----------------------------------------
 .byte   W96
@  #05 @065   ----------------------------------------
 .byte   W72
 .byte   W72
@  #05 @066   ----------------------------------------
 .byte   W72
 .byte   W72
@  #05 @067   ----------------------------------------
 .byte   W72
 .byte   W72
@  #05 @068   ----------------------------------------
 .byte   W72
 .byte   W72
@  #05 @069   ----------------------------------------
 .byte   W72
 .byte   W72
@  #05 @070   ----------------------------------------
 .byte   W72
 .byte   W72
@  #05 @071   ----------------------------------------
 .byte   W72
 .byte   W72
@  #05 @072   ----------------------------------------
 .byte   W72
 .byte   W72
@  #05 @073   ----------------------------------------
 .byte   W72
 .byte   W72
@  #05 @074   ----------------------------------------
 .byte   W72
 .byte   W72
@  #05 @075   ----------------------------------------
 .byte   W72
 .byte   W72
@  #05 @076   ----------------------------------------
 .byte   W72
 .byte   W72
@  #05 @077   ----------------------------------------
 .byte   W72
 .byte   W72
@  #05 @078   ----------------------------------------
 .byte   W72
 .byte   W72
@  #05 @079   ----------------------------------------
 .byte   W72
 .byte   W72
@  #05 @080   ----------------------------------------
 .byte   W72
 .byte   W72
@  #05 @081   ----------------------------------------
 .byte   W72
 .byte   W72
@  #05 @082   ----------------------------------------
 .byte   W72
 .byte   W72
@  #05 @083   ----------------------------------------
 .byte   W72
 .byte   W72
@  #05 @084   ----------------------------------------
 .byte   W72
 .byte   W72
@  #05 @085   ----------------------------------------
 .byte   W72
 .byte   W72
@  #05 @086   ----------------------------------------
 .byte   W72
 .byte   W72
@  #05 @087   ----------------------------------------
 .byte   W72
 .byte   W72
@  #05 @088   ----------------------------------------
 .byte   W72
 .byte   W72
@  #05 @089   ----------------------------------------
 .byte   W72
 .byte   W72
@  #05 @090   ----------------------------------------
 .byte   W72
 .byte   W72
@  #05 @091   ----------------------------------------
 .byte   W72
 .byte   W72
@  #05 @092   ----------------------------------------
 .byte   W72
 .byte   W72
@  #05 @093   ----------------------------------------
 .byte   W72
 .byte   W72
@  #05 @094   ----------------------------------------
 .byte   W72
 .byte   W72
@  #05 @095   ----------------------------------------
 .byte   W72
 .byte   W72
@  #05 @096   ----------------------------------------
 .byte   W72
 .byte   N72 ,Gn2
 .byte   W72
@  #05 @097   ----------------------------------------
 .byte   W72
 .byte   W72
@  #05 @098   ----------------------------------------
 .byte   W72
 .byte   W72
@  #05 @099   ----------------------------------------
 .byte   W72
 .byte   W72
@  #05 @100   ----------------------------------------
 .byte   W72
 .byte   W72
@  #05 @101   ----------------------------------------
 .byte   W72
 .byte   W72
@  #05 @102   ----------------------------------------
 .byte   W72
 .byte   W72
@  #05 @103   ----------------------------------------
 .byte   W72
 .byte   W72
@  #05 @104   ----------------------------------------
 .byte   W72
 .byte   W72
@  #05 @105   ----------------------------------------
 .byte   Gs2
 .byte   W72
 .byte   W72
@  #05 @106   ----------------------------------------
 .byte   W72
 .byte   Gn2
 .byte   W72
@  #05 @107   ----------------------------------------
 .byte   Fn2
 .byte   W72
 .byte   W72
@  #05 @108   ----------------------------------------
 .byte   As2
 .byte   W72
 .byte   W72
@  #05 @109   ----------------------------------------
 .byte   Gs2
 .byte   W72
 .byte   W72
@  #05 @110   ----------------------------------------
 .byte   W72
 .byte   Gn2
 .byte   W72
@  #05 @111   ----------------------------------------
 .byte   Fn2
 .byte   W72
 .byte   W72
@  #05 @112   ----------------------------------------
 .byte   Gn2
 .byte   W72
 .byte   W72
@  #05 @113   ----------------------------------------
 .byte   Gs2
 .byte   N72 ,Gs3
 .byte   W72
 .byte   W72
@  #05 @114   ----------------------------------------
 .byte   W72
 .byte   Gn2
 .byte   N72 ,Gn3
 .byte   W72
@  #05 @115   ----------------------------------------
 .byte   Gs2
 .byte   N72 ,Gs3
 .byte   W72
 .byte   W72
@  #05 @116   ----------------------------------------
 .byte   As2
 .byte   N72 ,As3
 .byte   W72
 .byte   W72
@  #05 @117   ----------------------------------------
 .byte   Gs2
 .byte   N72 ,Gs3
 .byte   W72
 .byte   W72
@  #05 @118   ----------------------------------------
 .byte   W72
 .byte   Gn2
 .byte   N72 ,Gn3
 .byte   W72
@  #05 @119   ----------------------------------------
 .byte   Gs2
 .byte   N72 ,Gs3
 .byte   W72
 .byte   W72
@  #05 @120   ----------------------------------------
 .byte   As2
 .byte   N72 ,As3
 .byte   W72
 .byte   W72
@  #05 @121   ----------------------------------------
 .byte   Gs2
 .byte   N72 ,Gs3
 .byte   W72
 .byte   W72
@  #05 @122   ----------------------------------------
 .byte   W72
 .byte   Gn2
 .byte   N72 ,Gn3
 .byte   W72
@  #05 @123   ----------------------------------------
 .byte   Gs2
 .byte   N72 ,Gs3
 .byte   W72
 .byte   W72
@  #05 @124   ----------------------------------------
 .byte   Gn2
 .byte   N72 ,Gn3
 .byte   W72
 .byte   As2
 .byte   N72 ,As3
 .byte   W72
@  #05 @125   ----------------------------------------
 .byte   Cn3
 .byte   N72 ,Cn4
 .byte   W72
 .byte   W72
@  #05 @126   ----------------------------------------
 .byte   Gs2
 .byte   N72 ,Gs3
 .byte   W72
 .byte   Gn2
 .byte   N72 ,Gn3
 .byte   W72
@  #05 @127   ----------------------------------------
 .byte   Cn3
 .byte   N72 ,Cn4
 .byte   W72
 .byte   W72
@  #05 @128   ----------------------------------------
 .byte   As2
 .byte   N72 ,As3
 .byte   W72
 .byte   W72
@  #05 @129   ----------------------------------------
 .byte   W72
 .byte   W72
@  #05 @130   ----------------------------------------
 .byte   W72
 .byte   W72
@  #05 @131   ----------------------------------------
 .byte   W72
 .byte   W72
@  #05 @132   ----------------------------------------
 .byte   W72
 .byte   W72
@  #05 @133   ----------------------------------------
 .byte   GOTO
  .word Label_01005988
 .byte   FINE

@**************** Track 6 (Midi-Chn.5) ****************@

song04_006:
@  #06 @000   ----------------------------------------
 .byte   VOL , 30*song04_mvl/mxv
 .byte   KEYSH , song04_key+0
Label_F85274:
 .byte   VOICE , 4
 .byte   MODT 0
 .byte   LFOS 44
 .byte   W96
@  #06 @001   ----------------------------------------
 .byte   W96
@  #06 @002   ----------------------------------------
 .byte   W96
@  #06 @003   ----------------------------------------
 .byte   W96
@  #06 @004   ----------------------------------------
 .byte   W96
@  #06 @005   ----------------------------------------
 .byte   W96
@  #06 @006   ----------------------------------------
 .byte   W96
@  #06 @007   ----------------------------------------
 .byte   W96
@  #06 @008   ----------------------------------------
 .byte   W96
@  #06 @009   ----------------------------------------
 .byte   W96
@  #06 @010   ----------------------------------------
 .byte   W96
@  #06 @011   ----------------------------------------
 .byte   W96
@  #06 @012   ----------------------------------------
 .byte   W96
@  #06 @013   ----------------------------------------
 .byte   W96
@  #06 @014   ----------------------------------------
 .byte   W96
@  #06 @015   ----------------------------------------
 .byte   W96
@  #06 @016   ----------------------------------------
 .byte   W96
@  #06 @017   ----------------------------------------
 .byte   W96
@  #06 @018   ----------------------------------------
 .byte   W96
@  #06 @019   ----------------------------------------
 .byte   W96
@  #06 @020   ----------------------------------------
 .byte   W96
@  #06 @021   ----------------------------------------
 .byte   W96
@  #06 @022   ----------------------------------------
 .byte   W96
@  #06 @023   ----------------------------------------
 .byte   W96
@  #06 @024   ----------------------------------------
 .byte   W96
@  #06 @025   ----------------------------------------
 .byte   W96
@  #06 @026   ----------------------------------------
 .byte   W96
@  #06 @027   ----------------------------------------
 .byte   W96
@  #06 @028   ----------------------------------------
 .byte   W96
@  #06 @029   ----------------------------------------
 .byte   W96
@  #06 @030   ----------------------------------------
 .byte   W96
@  #06 @031   ----------------------------------------
 .byte   W96
@  #06 @032   ----------------------------------------
 .byte   W96
@  #06 @033   ----------------------------------------
 .byte   W96
@  #06 @034   ----------------------------------------
 .byte   W96
@  #06 @035   ----------------------------------------
 .byte   W96
@  #06 @036   ----------------------------------------
 .byte   W96
@  #06 @037   ----------------------------------------
 .byte   W96
@  #06 @038   ----------------------------------------
 .byte   W96
@  #06 @039   ----------------------------------------
 .byte   W96
@  #06 @040   ----------------------------------------
 .byte   N96 ,Fn0 ,v060
 .byte   W96
@  #06 @041   ----------------------------------------
 .byte   Cs1
 .byte   W96
@  #06 @042   ----------------------------------------
 .byte   Ds0
 .byte   W96
@  #06 @043   ----------------------------------------
 .byte   W96
@  #06 @044   ----------------------------------------
 .byte   Fn0
 .byte   W96
@  #06 @045   ----------------------------------------
 .byte   Cs1
 .byte   W96
@  #06 @046   ----------------------------------------
 .byte   Ds1
 .byte   W96
@  #06 @047   ----------------------------------------
 .byte   W96
@  #06 @048   ----------------------------------------
 .byte   Fn0
 .byte   W96
@  #06 @049   ----------------------------------------
 .byte   Cs1
 .byte   W96
@  #06 @050   ----------------------------------------
 .byte   Ds0
 .byte   W96
@  #06 @051   ----------------------------------------
 .byte   W96
@  #06 @052   ----------------------------------------
 .byte   Fn0
 .byte   W96
@  #06 @053   ----------------------------------------
 .byte   Cs1
 .byte   W96
@  #06 @054   ----------------------------------------
 .byte   Ds1
 .byte   W96
@  #06 @055   ----------------------------------------
 .byte   W96
@  #06 @056   ----------------------------------------
 .byte   Cs0
 .byte   N96 ,Cs1
 .byte   W96
@  #06 @057   ----------------------------------------
 .byte   Fn0
 .byte   N96 ,Fn1
 .byte   W96
@  #06 @058   ----------------------------------------
 .byte   Ds0
 .byte   N96 ,Ds1
 .byte   W96
@  #06 @059   ----------------------------------------
 .byte   W96
@  #06 @060   ----------------------------------------
 .byte   Cs0
 .byte   N96 ,Cs1
 .byte   W96
@  #06 @061   ----------------------------------------
 .byte   Fn0
 .byte   N96 ,Fn1
 .byte   W96
@  #06 @062   ----------------------------------------
 .byte   Ds0
 .byte   N96 ,Ds1
 .byte   W96
@  #06 @063   ----------------------------------------
 .byte   W96
@  #06 @064   ----------------------------------------
 .byte   W96
@  #06 @065   ----------------------------------------
 .byte   W72
 .byte   W72
@  #06 @066   ----------------------------------------
 .byte   W72
 .byte   W72
@  #06 @067   ----------------------------------------
 .byte   W72
 .byte   W72
@  #06 @068   ----------------------------------------
 .byte   W72
 .byte   W72
@  #06 @069   ----------------------------------------
 .byte   W72
 .byte   W72
@  #06 @070   ----------------------------------------
 .byte   W72
 .byte   W72
@  #06 @071   ----------------------------------------
 .byte   W72
 .byte   W72
@  #06 @072   ----------------------------------------
 .byte   W72
 .byte   W72
@  #06 @073   ----------------------------------------
 .byte   W72
 .byte   W72
@  #06 @074   ----------------------------------------
 .byte   W72
 .byte   W72
@  #06 @075   ----------------------------------------
 .byte   W72
 .byte   W72
@  #06 @076   ----------------------------------------
 .byte   W72
 .byte   W72
@  #06 @077   ----------------------------------------
 .byte   W72
 .byte   W72
@  #06 @078   ----------------------------------------
 .byte   W72
 .byte   W72
@  #06 @079   ----------------------------------------
 .byte   W72
 .byte   W72
@  #06 @080   ----------------------------------------
 .byte   W72
 .byte   W72
@  #06 @081   ----------------------------------------
 .byte   W72
 .byte   W72
@  #06 @082   ----------------------------------------
 .byte   W72
 .byte   W72
@  #06 @083   ----------------------------------------
 .byte   W72
 .byte   W72
@  #06 @084   ----------------------------------------
 .byte   W72
 .byte   W72
@  #06 @085   ----------------------------------------
 .byte   W72
 .byte   W72
@  #06 @086   ----------------------------------------
 .byte   W72
 .byte   W72
@  #06 @087   ----------------------------------------
 .byte   W72
 .byte   W72
@  #06 @088   ----------------------------------------
 .byte   W72
 .byte   W72
@  #06 @089   ----------------------------------------
 .byte   W72
 .byte   W72
@  #06 @090   ----------------------------------------
 .byte   W72
 .byte   W72
@  #06 @091   ----------------------------------------
 .byte   W72
 .byte   W72
@  #06 @092   ----------------------------------------
 .byte   W72
 .byte   W72
@  #06 @093   ----------------------------------------
 .byte   W72
 .byte   W72
@  #06 @094   ----------------------------------------
 .byte   W72
 .byte   W72
@  #06 @095   ----------------------------------------
 .byte   W72
 .byte   W72
@  #06 @096   ----------------------------------------
 .byte   W72
 .byte   W72
@  #06 @097   ----------------------------------------
 .byte   W72
 .byte   W72
@  #06 @098   ----------------------------------------
 .byte   W72
 .byte   W72
@  #06 @099   ----------------------------------------
 .byte   W72
 .byte   W72
@  #06 @100   ----------------------------------------
 .byte   W72
 .byte   W72
@  #06 @101   ----------------------------------------
 .byte   W72
 .byte   W72
@  #06 @102   ----------------------------------------
 .byte   W72
 .byte   W72
@  #06 @103   ----------------------------------------
 .byte   W72
 .byte   W72
@  #06 @104   ----------------------------------------
 .byte   W72
 .byte   W72
@  #06 @105   ----------------------------------------
 .byte   N72 ,Cs1
 .byte   W72
 .byte   W72
@  #06 @106   ----------------------------------------
 .byte   Fn0
 .byte   W72
 .byte   W72
@  #06 @107   ----------------------------------------
 .byte   Cs1
 .byte   W72
 .byte   W72
@  #06 @108   ----------------------------------------
 .byte   Ds0
 .byte   W72
 .byte   W72
@  #06 @109   ----------------------------------------
 .byte   W72
 .byte   W72
@  #06 @110   ----------------------------------------
 .byte   Fn0
 .byte   W72
 .byte   W72
@  #06 @111   ----------------------------------------
 .byte   Cs1
 .byte   W72
 .byte   W72
@  #06 @112   ----------------------------------------
 .byte   Ds0
 .byte   W72
 .byte   W72
@  #06 @113   ----------------------------------------
 .byte   Cs1
 .byte   W72
 .byte   W72
@  #06 @114   ----------------------------------------
 .byte   Fn0
 .byte   W72
 .byte   W72
@  #06 @115   ----------------------------------------
 .byte   Cs1
 .byte   W72
 .byte   W72
@  #06 @116   ----------------------------------------
 .byte   Ds0
 .byte   W72
 .byte   W72
@  #06 @117   ----------------------------------------
 .byte   Cs1
 .byte   W72
 .byte   W72
@  #06 @118   ----------------------------------------
 .byte   Fn0
 .byte   W72
 .byte   W72
@  #06 @119   ----------------------------------------
 .byte   Cs1
 .byte   W72
 .byte   W72
@  #06 @120   ----------------------------------------
 .byte   Ds0
 .byte   W72
 .byte   W72
@  #06 @121   ----------------------------------------
 .byte   Cs1
 .byte   W72
 .byte   W72
@  #06 @122   ----------------------------------------
 .byte   Fn0
 .byte   W72
 .byte   W72
@  #06 @123   ----------------------------------------
 .byte   Cs1
 .byte   W72
 .byte   W72
@  #06 @124   ----------------------------------------
 .byte   Ds0
 .byte   W72
 .byte   W72
@  #06 @125   ----------------------------------------
 .byte   Cs1
 .byte   W72
 .byte   W72
@  #06 @126   ----------------------------------------
 .byte   Fn0
 .byte   W72
 .byte   W72
@  #06 @127   ----------------------------------------
 .byte   Cs1
 .byte   W72
 .byte   W72
@  #06 @128   ----------------------------------------
 .byte   Ds0
 .byte   W72
 .byte   W72
@  #06 @129   ----------------------------------------
 .byte   W72
 .byte   W72
@  #06 @130   ----------------------------------------
 .byte   W72
 .byte   W72
@  #06 @131   ----------------------------------------
 .byte   W72
 .byte   W72
@  #06 @132   ----------------------------------------
 .byte   W72
 .byte   W72
@  #06 @133   ----------------------------------------
 .byte   GOTO
  .word Label_F85274
 .byte   FINE

@**************** Track 7 (Midi-Chn.6) ****************@

song04_007:
@  #07 @000   ----------------------------------------
 .byte   VOL , 30*song04_mvl/mxv
 .byte   KEYSH , song04_key+0
Label_01005B18:
 .byte   VOICE , 124
 .byte   MODT 0
 .byte   LFOS 44
 .byte   W96
@  #07 @001   ----------------------------------------
 .byte   W96
@  #07 @002   ----------------------------------------
 .byte   W96
@  #07 @003   ----------------------------------------
 .byte   W96
@  #07 @004   ----------------------------------------
 .byte   W96
@  #07 @005   ----------------------------------------
 .byte   W96
@  #07 @006   ----------------------------------------
 .byte   W96
@  #07 @007   ----------------------------------------
 .byte   W96
@  #07 @008   ----------------------------------------
 .byte   W96
@  #07 @009   ----------------------------------------
 .byte   W96
@  #07 @010   ----------------------------------------
 .byte   W96
@  #07 @011   ----------------------------------------
 .byte   W96
@  #07 @012   ----------------------------------------
 .byte   W96
@  #07 @013   ----------------------------------------
 .byte   W96
@  #07 @014   ----------------------------------------
 .byte   W96
@  #07 @015   ----------------------------------------
 .byte   W96
@  #07 @016   ----------------------------------------
 .byte   W96
@  #07 @017   ----------------------------------------
 .byte   W96
@  #07 @018   ----------------------------------------
 .byte   W96
@  #07 @019   ----------------------------------------
 .byte   W96
@  #07 @020   ----------------------------------------
 .byte   W96
@  #07 @021   ----------------------------------------
 .byte   W96
@  #07 @022   ----------------------------------------
 .byte   W96
@  #07 @023   ----------------------------------------
 .byte   W96
@  #07 @024   ----------------------------------------
Label_01005B36:
 .byte   N12 ,Dn1 ,v060
 .byte   N12 ,Fn1
 .byte   W12
 .byte   N06 ,Cn1
 .byte   W06
 .byte   N12 ,Dn1
 .byte   N12 ,Fn1
 .byte   W12
 .byte   N06 ,Cn1
 .byte   W06
 .byte   N12 ,Dn1
 .byte   N12 ,Fn1
 .byte   W12
 .byte   N06 ,Cn1
 .byte   W06
 .byte   N12 ,Dn1
 .byte   N12 ,Fn1
 .byte   W12
 .byte   N06 ,Cn1
 .byte   W18
 .byte   N12
 .byte   N12 ,Dn1
 .byte   N12 ,Ds1
 .byte   W12
 .byte   PEND 
@  #07 @025   ----------------------------------------
 .byte   PATT
  .word Label_01005B36
@  #07 @026   ----------------------------------------
 .byte   PATT
  .word Label_01005B36
@  #07 @027   ----------------------------------------
 .byte   PATT
  .word Label_01005B36
@  #07 @028   ----------------------------------------
 .byte   PATT
  .word Label_01005B36
@  #07 @029   ----------------------------------------
 .byte   PATT
  .word Label_01005B36
@  #07 @030   ----------------------------------------
 .byte   PATT
  .word Label_01005B36
@  #07 @031   ----------------------------------------
 .byte   PATT
  .word Label_01005B36
@  #07 @032   ----------------------------------------
Label_01005B81:
 .byte   N06 ,Cn1 ,v060
 .byte   N06 ,Cs2
 .byte   W12
 .byte   Dn1
 .byte   N06 ,Fs1
 .byte   W06
 .byte   Cn1
 .byte   W06
 .byte   Fs1
 .byte   W06
 .byte   Dn1
 .byte   W06
 .byte   Cn1
 .byte   N06 ,Fs1
 .byte   W06
 .byte   Cn1
 .byte   W06
 .byte   Dn1
 .byte   N06 ,Fs1
 .byte   W06
 .byte   Cn1
 .byte   W06
 .byte   N06
 .byte   N06 ,Fs1
 .byte   W06
 .byte   Dn1
 .byte   W06
 .byte   Fs1
 .byte   W06
 .byte   Cn1
 .byte   W06
 .byte   Dn1
 .byte   N06 ,Fs1
 .byte   W12
 .byte   PEND 
@  #07 @033   ----------------------------------------
Label_01005BAC:
 .byte   N06 ,Cn1 ,v060
 .byte   N06 ,Cs2
 .byte   W12
 .byte   Dn1
 .byte   N06 ,Fs1
 .byte   W06
 .byte   Cn1
 .byte   W06
 .byte   Fs1
 .byte   W06
 .byte   Dn1
 .byte   W06
 .byte   Cn1
 .byte   N06 ,Fs1
 .byte   W06
 .byte   Cn1
 .byte   W06
 .byte   Dn1
 .byte   N06 ,Fs1
 .byte   W06
 .byte   Cn1
 .byte   W06
 .byte   Fs1
 .byte   W06
 .byte   Dn1
 .byte   W06
 .byte   Fs1
 .byte   W06
 .byte   Cn1
 .byte   W06
 .byte   N03 ,Dn1
 .byte   N03 ,Fs1
 .byte   W03
 .byte   Dn1
 .byte   W03
 .byte   An1
 .byte   W06
 .byte   PEND 
@  #07 @034   ----------------------------------------
Label_01005BDA:
 .byte   N06 ,Cn1 ,v060
 .byte   N06 ,Cs2
 .byte   W12
 .byte   Dn1
 .byte   N06 ,Fs1
 .byte   W06
 .byte   Cn1
 .byte   W06
 .byte   Fs1
 .byte   W06
 .byte   Dn1
 .byte   W06
 .byte   Cn1
 .byte   N06 ,Fs1
 .byte   W06
 .byte   Cn1
 .byte   W06
 .byte   Dn1
 .byte   N06 ,Fs1
 .byte   W06
 .byte   Cn1
 .byte   W06
 .byte   N06
 .byte   N06 ,Fs1
 .byte   W06
 .byte   Dn1
 .byte   W06
 .byte   Fs1
 .byte   W06
 .byte   Cn1
 .byte   W06
 .byte   Dn1
 .byte   N06 ,Fs1
 .byte   W06
 .byte   N03 ,Dn1
 .byte   W03
 .byte   N03
 .byte   W03
 .byte   PEND 
@  #07 @035   ----------------------------------------
Label_01005C0A:
 .byte   N06 ,Cn1 ,v060
 .byte   N06 ,Cs2
 .byte   W12
 .byte   Dn1
 .byte   N06 ,Fs1
 .byte   W06
 .byte   Cn1
 .byte   W06
 .byte   Fs1
 .byte   W06
 .byte   Dn1
 .byte   W06
 .byte   Cn1
 .byte   N06 ,Fs1
 .byte   W06
 .byte   Cn1
 .byte   W06
 .byte   Dn1
 .byte   N06 ,Fs1
 .byte   W06
 .byte   Cn1
 .byte   W06
 .byte   N06
 .byte   N06 ,Fs1
 .byte   W06
 .byte   N03 ,Dn1
 .byte   W03
 .byte   N03
 .byte   W03
 .byte   N06
 .byte   N06 ,Fs1
 .byte   W06
 .byte   Cn1
 .byte   W06
 .byte   N03 ,Dn1
 .byte   N03 ,Fs1
 .byte   W03
 .byte   Dn1
 .byte   W03
 .byte   Cn1
 .byte   W03
 .byte   Dn1
 .byte   W03
 .byte   PEND 
@  #07 @036   ----------------------------------------
 .byte   PATT
  .word Label_01005B81
@  #07 @037   ----------------------------------------
 .byte   PATT
  .word Label_01005BAC
@  #07 @038   ----------------------------------------
 .byte   PATT
  .word Label_01005BDA
@  #07 @039   ----------------------------------------
 .byte   PATT
  .word Label_01005C0A
@  #07 @040   ----------------------------------------
 .byte   PATT
  .word Label_01005B81
@  #07 @041   ----------------------------------------
 .byte   PATT
  .word Label_01005BAC
@  #07 @042   ----------------------------------------
 .byte   PATT
  .word Label_01005BDA
@  #07 @043   ----------------------------------------
 .byte   PATT
  .word Label_01005C0A
@  #07 @044   ----------------------------------------
 .byte   PATT
  .word Label_01005B81
@  #07 @045   ----------------------------------------
 .byte   PATT
  .word Label_01005BAC
@  #07 @046   ----------------------------------------
 .byte   PATT
  .word Label_01005BDA
@  #07 @047   ----------------------------------------
 .byte   PATT
  .word Label_01005C0A
@  #07 @048   ----------------------------------------
Label_01005C7D:
 .byte   N06 ,Cn1 ,v060
 .byte   N06 ,Cs2
 .byte   W09
 .byte   N03 ,Cn1
 .byte   W03
 .byte   Dn1
 .byte   N03 ,Fs1
 .byte   W03
 .byte   Dn1
 .byte   W03
 .byte   N06 ,Cn1
 .byte   W06
 .byte   N03 ,Fs1
 .byte   W06
 .byte   Dn1
 .byte   W03
 .byte   N03
 .byte   W03
 .byte   N06 ,Cn1
 .byte   N06 ,Fs1
 .byte   W06
 .byte   Cn1
 .byte   W06
 .byte   N03 ,Dn1
 .byte   N03 ,Fs1
 .byte   W03
 .byte   Dn1
 .byte   W03
 .byte   N06 ,Cn1
 .byte   W06
 .byte   N06
 .byte   N06 ,Fs1
 .byte   W06
 .byte   Dn1
 .byte   W06
 .byte   N06
 .byte   N06 ,Fs1
 .byte   W06
 .byte   Cn1
 .byte   W06
 .byte   N03 ,Dn1
 .byte   N03 ,En2
 .byte   W03
 .byte   Dn1
 .byte   W03
 .byte   N03
 .byte   W03
 .byte   N03
 .byte   W03
 .byte   PEND 
@  #07 @049   ----------------------------------------
 .byte   PATT
  .word Label_01005C7D
@  #07 @050   ----------------------------------------
 .byte   PATT
  .word Label_01005C7D
@  #07 @051   ----------------------------------------
 .byte   PATT
  .word Label_01005C7D
@  #07 @052   ----------------------------------------
 .byte   PATT
  .word Label_01005C7D
@  #07 @053   ----------------------------------------
 .byte   PATT
  .word Label_01005C7D
@  #07 @054   ----------------------------------------
 .byte   PATT
  .word Label_01005C7D
@  #07 @055   ----------------------------------------
 .byte   PATT
  .word Label_01005C7D
@  #07 @056   ----------------------------------------
 .byte   PATT
  .word Label_01005C7D
@  #07 @057   ----------------------------------------
 .byte   PATT
  .word Label_01005C7D
@  #07 @058   ----------------------------------------
 .byte   PATT
  .word Label_01005C7D
@  #07 @059   ----------------------------------------
 .byte   PATT
  .word Label_01005C7D
@  #07 @060   ----------------------------------------
 .byte   PATT
  .word Label_01005C7D
@  #07 @061   ----------------------------------------
 .byte   PATT
  .word Label_01005C7D
@  #07 @062   ----------------------------------------
 .byte   PATT
  .word Label_01005C7D
@  #07 @063   ----------------------------------------
 .byte   PATT
  .word Label_01005C7D
@  #07 @064   ----------------------------------------
 .byte   W96
@  #07 @065   ----------------------------------------
 .byte   W72
 .byte   W72
@  #07 @066   ----------------------------------------
 .byte   W72
 .byte   W72
@  #07 @067   ----------------------------------------
 .byte   W72
 .byte   W72
@  #07 @068   ----------------------------------------
 .byte   W72
 .byte   W72
@  #07 @069   ----------------------------------------
 .byte   W72
 .byte   W72
@  #07 @070   ----------------------------------------
 .byte   W72
 .byte   W72
@  #07 @071   ----------------------------------------
 .byte   W72
 .byte   W72
@  #07 @072   ----------------------------------------
 .byte   W72
 .byte   W72
@  #07 @073   ----------------------------------------
 .byte   W72
 .byte   W72
@  #07 @074   ----------------------------------------
 .byte   W72
 .byte   W72
@  #07 @075   ----------------------------------------
 .byte   W72
 .byte   W72
@  #07 @076   ----------------------------------------
 .byte   W72
 .byte   W72
@  #07 @077   ----------------------------------------
 .byte   W72
 .byte   W72
@  #07 @078   ----------------------------------------
 .byte   W72
 .byte   W72
@  #07 @079   ----------------------------------------
 .byte   W72
 .byte   W72
@  #07 @080   ----------------------------------------
 .byte   W72
 .byte   W72
@  #07 @081   ----------------------------------------
 .byte   W72
 .byte   W72
@  #07 @082   ----------------------------------------
 .byte   W72
 .byte   W72
@  #07 @083   ----------------------------------------
 .byte   W72
 .byte   W72
@  #07 @084   ----------------------------------------
 .byte   W72
 .byte   W72
@  #07 @085   ----------------------------------------
 .byte   W72
 .byte   W72
@  #07 @086   ----------------------------------------
 .byte   W72
 .byte   W72
@  #07 @087   ----------------------------------------
 .byte   W72
 .byte   W72
@  #07 @088   ----------------------------------------
 .byte   W72
 .byte   W72
@  #07 @089   ----------------------------------------
Label_01005D3B:
 .byte   N12 ,Fn1 ,v060
 .byte   N12 ,Gn1
 .byte   W12
 .byte   Fs1
 .byte   W15
 .byte   N09 ,Dn1
 .byte   N09 ,Ds1
 .byte   W09
 .byte   Dn1
 .byte   N09 ,Ds1
 .byte   W24
 .byte   W03
 .byte   N06 ,Fs1
 .byte   W06
 .byte   N03
 .byte   W03
 .byte   PEND 
Label_01005D53:
 .byte   N12 ,Fn1 ,v060
 .byte   N12 ,Fs1
 .byte   N12 ,Gn1
 .byte   W12
 .byte   N03 ,Fs1
 .byte   W03
 .byte   N06 ,Fn1
 .byte   N06 ,Gn1
 .byte   W09
@  #07 @090   ----------------------------------------
 .byte   N03 ,Fs1
 .byte   W03
 .byte   N09 ,Fn1
 .byte   N09 ,Gn1
 .byte   W09
 .byte   N18 ,Dn1
 .byte   N18 ,Ds1
 .byte   W18
 .byte   N09 ,Fs1
 .byte   W09
 .byte   N09
 .byte   W09
 .byte   PEND 
@  #07 @091   ----------------------------------------
 .byte   PATT
  .word Label_01005D3B
@  #07 @092   ----------------------------------------
 .byte   PATT
  .word Label_01005D53
@  #07 @093   ----------------------------------------
 .byte   PATT
  .word Label_01005D3B
@  #07 @094   ----------------------------------------
 .byte   PATT
  .word Label_01005D53
@  #07 @095   ----------------------------------------
 .byte   N09 ,Fn1 ,v060
 .byte   N09 ,Fs1
 .byte   N09 ,Gn1
 .byte   W09
 .byte   Fs1
 .byte   W09
 .byte   N09
 .byte   W09
 .byte   Dn1
 .byte   N09 ,Ds1
 .byte   W09
 .byte   Dn1
 .byte   N09 ,Ds1
 .byte   W09
 .byte   N12 ,Fs1
 .byte   W18
 .byte   N06
 .byte   W06
 .byte   N03
 .byte   W03
@  #07 @096   ----------------------------------------
 .byte   PATT
  .word Label_01005D53
@  #07 @097   ----------------------------------------
 .byte   PATT
  .word Label_01005D3B
@  #07 @098   ----------------------------------------
 .byte   PATT
  .word Label_01005D53
@  #07 @099   ----------------------------------------
 .byte   PATT
  .word Label_01005D3B
@  #07 @100   ----------------------------------------
 .byte   PATT
  .word Label_01005D53
@  #07 @101   ----------------------------------------
 .byte   PATT
  .word Label_01005D3B
@  #07 @102   ----------------------------------------
 .byte   PATT
  .word Label_01005D53
@  #07 @103   ----------------------------------------
 .byte   PATT
  .word Label_01005D3B
@  #07 @104   ----------------------------------------
 .byte   PATT
  .word Label_01005D53
@  #07 @105   ----------------------------------------
 .byte   W72
 .byte   W72
@  #07 @106   ----------------------------------------
 .byte   W72
 .byte   W72
@  #07 @107   ----------------------------------------
 .byte   W72
 .byte   W72
@  #07 @108   ----------------------------------------
 .byte   W72
 .byte   W72
@  #07 @109   ----------------------------------------
 .byte   W72
 .byte   W72
@  #07 @110   ----------------------------------------
 .byte   W72
 .byte   W72
@  #07 @111   ----------------------------------------
 .byte   W72
 .byte   W72
@  #07 @112   ----------------------------------------
 .byte   W72
 .byte   W72
@  #07 @113   ----------------------------------------
 .byte   W72
 .byte   W72
@  #07 @114   ----------------------------------------
 .byte   W72
 .byte   W72
@  #07 @115   ----------------------------------------
 .byte   W72
 .byte   W72
@  #07 @116   ----------------------------------------
 .byte   W72
 .byte   W72
@  #07 @117   ----------------------------------------
 .byte   W72
 .byte   W72
@  #07 @118   ----------------------------------------
 .byte   W72
 .byte   W72
@  #07 @119   ----------------------------------------
 .byte   W72
 .byte   W72
@  #07 @120   ----------------------------------------
 .byte   W72
 .byte   W72
@  #07 @121   ----------------------------------------
Label_01005DF2:
 .byte   N09 ,Cn1 ,v060
 .byte   N09 ,As1
 .byte   W09
 .byte   Cn1
 .byte   W09
 .byte   Dn1
 .byte   N09 ,As1
 .byte   W09
 .byte   Cn1
 .byte   W09
 .byte   As1
 .byte   W09
 .byte   Cn1
 .byte   W09
 .byte   Dn1
 .byte   N09 ,As1
 .byte   W18
 .byte   PEND 
Label_01005E09:
 .byte   N09 ,As1 ,v060
 .byte   W09
 .byte   Cn1
 .byte   W09
 .byte   Dn1
 .byte   N09 ,As1
 .byte   W18
@  #07 @122   ----------------------------------------
 .byte   Cn1
 .byte   N09 ,As1
 .byte   W09
 .byte   Cn1
 .byte   W09
 .byte   Dn1
 .byte   N09 ,As1
 .byte   W09
 .byte   Cn1
 .byte   W09
 .byte   PEND 
@  #07 @123   ----------------------------------------
 .byte   PATT
  .word Label_01005DF2
@  #07 @124   ----------------------------------------
Label_01005E25:
 .byte   N09 ,As1 ,v060
 .byte   W18
 .byte   Dn1
 .byte   N09 ,As1
 .byte   W09
 .byte   Cn1
 .byte   W09
 .byte   As1
 .byte   W09
 .byte   Cn1
 .byte   W09
 .byte   Dn1
 .byte   N09 ,As1
 .byte   W09
 .byte   Cn1
 .byte   W09
 .byte   PEND 
@  #07 @125   ----------------------------------------
 .byte   PATT
  .word Label_01005DF2
@  #07 @126   ----------------------------------------
 .byte   PATT
  .word Label_01005E09
@  #07 @127   ----------------------------------------
 .byte   PATT
  .word Label_01005DF2
@  #07 @128   ----------------------------------------
 .byte   PATT
  .word Label_01005E25
@  #07 @129   ----------------------------------------
 .byte   PATT
  .word Label_01005DF2
@  #07 @130   ----------------------------------------
 .byte   PATT
  .word Label_01005E09
@  #07 @131   ----------------------------------------
 .byte   PATT
  .word Label_01005DF2
@  #07 @132   ----------------------------------------
 .byte   PATT
  .word Label_01005E25
@  #07 @133   ----------------------------------------
 .byte   PATT
  .word Label_01005DF2
@  #07 @134   ----------------------------------------
 .byte   PATT
  .word Label_01005E09
@  #07 @135   ----------------------------------------
 .byte   PATT
  .word Label_01005DF2
@  #07 @136   ----------------------------------------
 .byte   N09 ,Cn1 ,v060
 .byte   N09 ,Fn1
 .byte   N09 ,Gn1
 .byte   W09
 .byte   Fn1
 .byte   N09 ,Gn1
 .byte   W09
 .byte   Fn1
 .byte   N09 ,Gn1
 .byte   W09
 .byte   Dn1
 .byte   N09 ,Fn1
 .byte   N09 ,Gn1
 .byte   W09
 .byte   Fn1
 .byte   N09 ,Gn1
 .byte   W09
 .byte   Fn1
 .byte   N09 ,Gn1
 .byte   W09
 .byte   Cn1
 .byte   N09 ,Dn1
 .byte   N09 ,Fn1
 .byte   N09 ,Gn1
 .byte   W09
 .byte   Cn1
 .byte   N09 ,Dn1
 .byte   N09 ,Fn1
 .byte   N09 ,Gn1
 .byte   W09
@  #07 @137   ----------------------------------------
 .byte   PATT
  .word Label_01005DF2
@  #07 @138   ----------------------------------------
 .byte   PATT
  .word Label_01005E09
@  #07 @139   ----------------------------------------
 .byte   PATT
  .word Label_01005DF2
@  #07 @140   ----------------------------------------
 .byte   PATT
  .word Label_01005E25
@  #07 @141   ----------------------------------------
 .byte   PATT
  .word Label_01005DF2
@  #07 @142   ----------------------------------------
 .byte   PATT
  .word Label_01005E09
@  #07 @143   ----------------------------------------
 .byte   PATT
  .word Label_01005DF2
@  #07 @144   ----------------------------------------
 .byte   N06 ,Dn1 ,v060
 .byte   W06
 .byte   N06
 .byte   W06
 .byte   N06
 .byte   W06
 .byte   Bn1
 .byte   W06
 .byte   N06
 .byte   W06
 .byte   N06
 .byte   W06
 .byte   Dn1
 .byte   W06
 .byte   N06
 .byte   W06
 .byte   N06
 .byte   W06
 .byte   An1
 .byte   W06
 .byte   N06
 .byte   W06
 .byte   N06
 .byte   W06
@  #07 @145   ----------------------------------------
 .byte   PATT
  .word Label_01005DF2
@  #07 @146   ----------------------------------------
 .byte   PATT
  .word Label_01005E09
@  #07 @147   ----------------------------------------
 .byte   PATT
  .word Label_01005DF2
@  #07 @148   ----------------------------------------
 .byte   PATT
  .word Label_01005E25
@  #07 @149   ----------------------------------------
 .byte   PATT
  .word Label_01005DF2
@  #07 @150   ----------------------------------------
 .byte   PATT
  .word Label_01005E09
@  #07 @151   ----------------------------------------
 .byte   PATT
  .word Label_01005DF2
@  #07 @152   ----------------------------------------
 .byte   N09 ,Dn1 ,v060
 .byte   N09 ,Gn1
 .byte   W09
 .byte   Cn1
 .byte   N09 ,Fn1
 .byte   W09
 .byte   Cn1
 .byte   N09 ,Gn1
 .byte   W09
 .byte   Cn1
 .byte   N09 ,Fn1
 .byte   W09
 .byte   Dn1
 .byte   N09 ,Gn1
 .byte   W09
 .byte   Cn1
 .byte   N09 ,Fn1
 .byte   W09
 .byte   Cn1
 .byte   N09 ,Gn1
 .byte   W09
 .byte   Cn1
 .byte   N09 ,Fn1
 .byte   W09
 .byte   W72
@  #07 @153   ----------------------------------------
 .byte   W72
 .byte   W72
@  #07 @154   ----------------------------------------
 .byte   W72
 .byte   W72
@  #07 @155   ----------------------------------------
 .byte   W72
 .byte   W72
@  #07 @156   ----------------------------------------
 .byte   W72
 .byte   GOTO
  .word Label_01005B18
 .byte   FINE

@**************** Track 8 (Midi-Chn.7) ****************@

song04_008:
@  #08 @000   ----------------------------------------
 .byte   VOL , 30*song04_mvl/mxv
 .byte   KEYSH , song04_key+0
Label_01005F48:
 .byte   VOICE , 18
 .byte   MODT 0
 .byte   LFOS 44
 .byte   W96
@  #08 @001   ----------------------------------------
 .byte   W96
@  #08 @002   ----------------------------------------
 .byte   W96
@  #08 @003   ----------------------------------------
 .byte   W96
@  #08 @004   ----------------------------------------
 .byte   W96
@  #08 @005   ----------------------------------------
 .byte   W96
@  #08 @006   ----------------------------------------
 .byte   W96
@  #08 @007   ----------------------------------------
 .byte   W96
@  #08 @008   ----------------------------------------
 .byte   W96
@  #08 @009   ----------------------------------------
 .byte   W96
@  #08 @010   ----------------------------------------
 .byte   W96
@  #08 @011   ----------------------------------------
 .byte   W96
@  #08 @012   ----------------------------------------
 .byte   W96
@  #08 @013   ----------------------------------------
 .byte   W96
@  #08 @014   ----------------------------------------
 .byte   W96
@  #08 @015   ----------------------------------------
 .byte   W96
@  #08 @016   ----------------------------------------
 .byte   W96
@  #08 @017   ----------------------------------------
 .byte   W96
@  #08 @018   ----------------------------------------
 .byte   W96
@  #08 @019   ----------------------------------------
 .byte   W96
@  #08 @020   ----------------------------------------
 .byte   W96
@  #08 @021   ----------------------------------------
 .byte   W96
@  #08 @022   ----------------------------------------
 .byte   W96
@  #08 @023   ----------------------------------------
 .byte   W96
@  #08 @024   ----------------------------------------
 .byte   W96
@  #08 @025   ----------------------------------------
 .byte   W96
@  #08 @026   ----------------------------------------
 .byte   W96
@  #08 @027   ----------------------------------------
 .byte   W96
@  #08 @028   ----------------------------------------
 .byte   W96
@  #08 @029   ----------------------------------------
 .byte   W96
@  #08 @030   ----------------------------------------
 .byte   W96
@  #08 @031   ----------------------------------------
 .byte   W96
@  #08 @032   ----------------------------------------
 .byte   W96
@  #08 @033   ----------------------------------------
 .byte   W96
@  #08 @034   ----------------------------------------
 .byte   W96
@  #08 @035   ----------------------------------------
 .byte   W96
@  #08 @036   ----------------------------------------
 .byte   W96
@  #08 @037   ----------------------------------------
 .byte   W96
@  #08 @038   ----------------------------------------
 .byte   W96
@  #08 @039   ----------------------------------------
 .byte   W96
@  #08 @040   ----------------------------------------
 .byte   W96
@  #08 @041   ----------------------------------------
 .byte   W96
@  #08 @042   ----------------------------------------
 .byte   W96
@  #08 @043   ----------------------------------------
 .byte   W96
@  #08 @044   ----------------------------------------
 .byte   W96
@  #08 @045   ----------------------------------------
 .byte   W96
@  #08 @046   ----------------------------------------
 .byte   W96
@  #08 @047   ----------------------------------------
 .byte   W96
@  #08 @048   ----------------------------------------
Label_01005F7E:
 .byte   W12
 .byte   N12 ,As3 ,v060
 .byte   W12
 .byte   N06 ,Ds4
 .byte   W06
 .byte   As3
 .byte   W06
 .byte   Gs3
 .byte   W06
 .byte   As3
 .byte   W18
 .byte   N12
 .byte   W12
 .byte   N06 ,Ds4
 .byte   W06
 .byte   As3
 .byte   W06
 .byte   Gs3
 .byte   W06
 .byte   As3
 .byte   W06
 .byte   PEND 
@  #08 @049   ----------------------------------------
Label_01005F98:
 .byte   W12
 .byte   N12 ,Gs3 ,v060
 .byte   W12
 .byte   N06 ,Ds4
 .byte   W06
 .byte   As3
 .byte   W06
 .byte   Gs3
 .byte   W06
 .byte   As3
 .byte   W18
 .byte   N12 ,Gs3
 .byte   W12
 .byte   N06 ,Ds4
 .byte   W06
 .byte   As3
 .byte   W06
 .byte   Gs3
 .byte   W06
 .byte   As3
 .byte   W06
 .byte   PEND 
@  #08 @050   ----------------------------------------
Label_01005FB3:
 .byte   W12
 .byte   N12 ,Gn3 ,v060
 .byte   W12
 .byte   N06 ,Ds4
 .byte   W06
 .byte   Gs3
 .byte   W06
 .byte   Gn3
 .byte   W06
 .byte   Gs3
 .byte   W18
 .byte   N12 ,Gn3
 .byte   W12
 .byte   N06 ,Ds4
 .byte   W06
 .byte   Gs3
 .byte   W06
 .byte   Gn3
 .byte   W06
 .byte   Gs3
 .byte   W06
 .byte   PEND 
@  #08 @051   ----------------------------------------
 .byte   PATT
  .word Label_01005FB3
@  #08 @052   ----------------------------------------
 .byte   PATT
  .word Label_01005F7E
@  #08 @053   ----------------------------------------
 .byte   PATT
  .word Label_01005F98
@  #08 @054   ----------------------------------------
 .byte   PATT
  .word Label_01005FB3
@  #08 @055   ----------------------------------------
 .byte   PATT
  .word Label_01005FB3
@  #08 @056   ----------------------------------------
 .byte   PATT
  .word Label_01005F7E
@  #08 @057   ----------------------------------------
 .byte   PATT
  .word Label_01005F98
@  #08 @058   ----------------------------------------
 .byte   PATT
  .word Label_01005FB3
@  #08 @059   ----------------------------------------
 .byte   PATT
  .word Label_01005FB3
@  #08 @060   ----------------------------------------
 .byte   PATT
  .word Label_01005F7E
@  #08 @061   ----------------------------------------
 .byte   PATT
  .word Label_01005F98
@  #08 @062   ----------------------------------------
 .byte   PATT
  .word Label_01005FB3
@  #08 @063   ----------------------------------------
 .byte   W12
 .byte   N12 ,Gn3 ,v060
 .byte   W12
 .byte   N06 ,Ds4
 .byte   W06
 .byte   Gs3
 .byte   W06
 .byte   Gn3
 .byte   W06
 .byte   Gs3
 .byte   W18
 .byte   N12 ,Gn3
 .byte   W12
 .byte   N06 ,Ds4
 .byte   W06
 .byte   Gs3
 .byte   W06
 .byte   Gn3
 .byte   W12
@  #08 @064   ----------------------------------------
 .byte   W96
@  #08 @065   ----------------------------------------
 .byte   W72
 .byte   W72
@  #08 @066   ----------------------------------------
 .byte   W72
 .byte   W72
@  #08 @067   ----------------------------------------
 .byte   W72
 .byte   W72
@  #08 @068   ----------------------------------------
 .byte   W72
 .byte   W72
@  #08 @069   ----------------------------------------
 .byte   W72
 .byte   W72
@  #08 @070   ----------------------------------------
 .byte   W72
 .byte   W72
@  #08 @071   ----------------------------------------
 .byte   W72
 .byte   W72
@  #08 @072   ----------------------------------------
 .byte   W72
 .byte   W72
@  #08 @073   ----------------------------------------
 .byte   W72
 .byte   W72
@  #08 @074   ----------------------------------------
 .byte   W72
 .byte   W72
@  #08 @075   ----------------------------------------
 .byte   W72
 .byte   W72
@  #08 @076   ----------------------------------------
 .byte   W72
 .byte   W72
@  #08 @077   ----------------------------------------
 .byte   W72
 .byte   W72
@  #08 @078   ----------------------------------------
 .byte   W72
 .byte   W72
@  #08 @079   ----------------------------------------
 .byte   W72
 .byte   W72
@  #08 @080   ----------------------------------------
 .byte   W72
 .byte   W72
@  #08 @081   ----------------------------------------
Label_01006043:
 .byte   N09 ,Gs4 ,v060
 .byte   W09
 .byte   Gn4
 .byte   W09
 .byte   Ds4
 .byte   W09
 .byte   Fn4
 .byte   W09
 .byte   Cs4
 .byte   W09
 .byte   Cn4
 .byte   W09
 .byte   Gs4
 .byte   W09
 .byte   Gn4
 .byte   W09
 .byte   PEND 
Label_01006056:
 .byte   N09 ,Ds4 ,v060
 .byte   W09
 .byte   Fn4
 .byte   W09
 .byte   Cs4
 .byte   W09
@  #08 @082   ----------------------------------------
 .byte   Cn4
 .byte   W09
 .byte   Gs4
 .byte   W09
 .byte   Gn4
 .byte   W09
 .byte   Ds4
 .byte   W09
 .byte   Fn4
 .byte   W09
 .byte   PEND 
Label_01006069:
 .byte   N09 ,Cs4 ,v060
 .byte   W09
 .byte   Cn4
 .byte   W09
 .byte   Gs4
 .byte   W09
 .byte   Gn4
 .byte   W09
 .byte   Ds4
 .byte   W09
 .byte   Fn4
 .byte   W09
@  #08 @083   ----------------------------------------
 .byte   Cs4
 .byte   W09
 .byte   Cn4
 .byte   W09
 .byte   PEND 
@  #08 @084   ----------------------------------------
 .byte   PATT
  .word Label_01006043
@  #08 @085   ----------------------------------------
 .byte   PATT
  .word Label_01006056
@  #08 @086   ----------------------------------------
 .byte   PATT
  .word Label_01006069
@  #08 @087   ----------------------------------------
 .byte   PATT
  .word Label_01006043
@  #08 @088   ----------------------------------------
Label_01006090:
 .byte   N09 ,Ds4 ,v060
 .byte   W09
 .byte   Fn4
 .byte   W09
 .byte   Cs4
 .byte   W09
 .byte   Cn4
 .byte   W09
 .byte   Gs4
 .byte   W09
 .byte   Gn4
 .byte   W09
 .byte   As4
 .byte   W09
 .byte   Gn4
 .byte   W09
 .byte   PEND 
@  #08 @089   ----------------------------------------
 .byte   PATT
  .word Label_01006043
@  #08 @090   ----------------------------------------
 .byte   PATT
  .word Label_01006056
@  #08 @091   ----------------------------------------
 .byte   PATT
  .word Label_01006069
@  #08 @092   ----------------------------------------
 .byte   PATT
  .word Label_01006043
@  #08 @093   ----------------------------------------
 .byte   PATT
  .word Label_01006056
@  #08 @094   ----------------------------------------
 .byte   PATT
  .word Label_01006069
@  #08 @095   ----------------------------------------
 .byte   PATT
  .word Label_01006043
@  #08 @096   ----------------------------------------
 .byte   PATT
  .word Label_01006090
@  #08 @097   ----------------------------------------
 .byte   PATT
  .word Label_01006043
@  #08 @098   ----------------------------------------
 .byte   PATT
  .word Label_01006056
@  #08 @099   ----------------------------------------
 .byte   PATT
  .word Label_01006069
@  #08 @100   ----------------------------------------
 .byte   PATT
  .word Label_01006043
@  #08 @101   ----------------------------------------
 .byte   PATT
  .word Label_01006056
@  #08 @102   ----------------------------------------
 .byte   PATT
  .word Label_01006069
@  #08 @103   ----------------------------------------
 .byte   PATT
  .word Label_01006043
@  #08 @104   ----------------------------------------
 .byte   PATT
  .word Label_01006090
@  #08 @105   ----------------------------------------
 .byte   PATT
  .word Label_01006043
@  #08 @106   ----------------------------------------
 .byte   PATT
  .word Label_01006056
@  #08 @107   ----------------------------------------
 .byte   PATT
  .word Label_01006069
@  #08 @108   ----------------------------------------
 .byte   PATT
  .word Label_01006043
@  #08 @109   ----------------------------------------
 .byte   PATT
  .word Label_01006056
@  #08 @110   ----------------------------------------
 .byte   PATT
  .word Label_01006069
@  #08 @111   ----------------------------------------
 .byte   PATT
  .word Label_01006043
@  #08 @112   ----------------------------------------
 .byte   PATT
  .word Label_01006090
@  #08 @113   ----------------------------------------
 .byte   W72
 .byte   W72
@  #08 @114   ----------------------------------------
 .byte   W72
 .byte   W72
@  #08 @115   ----------------------------------------
 .byte   W72
 .byte   W72
@  #08 @116   ----------------------------------------
 .byte   W72
 .byte   W72
@  #08 @117   ----------------------------------------
 .byte   W72
 .byte   W72
@  #08 @118   ----------------------------------------
 .byte   W72
 .byte   W72
@  #08 @119   ----------------------------------------
 .byte   W72
 .byte   W72
@  #08 @120   ----------------------------------------
 .byte   W72
 .byte   W72
@  #08 @121   ----------------------------------------
 .byte   W72
 .byte   W72
@  #08 @122   ----------------------------------------
 .byte   W72
 .byte   W72
@  #08 @123   ----------------------------------------
 .byte   W72
 .byte   W72
@  #08 @124   ----------------------------------------
 .byte   W72
 .byte   W72
@  #08 @125   ----------------------------------------
 .byte   W72
 .byte   W72
@  #08 @126   ----------------------------------------
 .byte   W72
 .byte   W72
@  #08 @127   ----------------------------------------
 .byte   W72
 .byte   W72
@  #08 @128   ----------------------------------------
 .byte   W72
 .byte   W72
@  #08 @129   ----------------------------------------
 .byte   W72
 .byte   W72
@  #08 @130   ----------------------------------------
 .byte   W72
 .byte   W72
@  #08 @131   ----------------------------------------
 .byte   W72
 .byte   W72
@  #08 @132   ----------------------------------------
 .byte   W72
 .byte   W72
@  #08 @133   ----------------------------------------
 .byte   W72
 .byte   W72
@  #08 @134   ----------------------------------------
 .byte   W72
 .byte   W72
@  #08 @135   ----------------------------------------
 .byte   W72
 .byte   W72
@  #08 @136   ----------------------------------------
 .byte   W72
 .byte   W72
@  #08 @137   ----------------------------------------
 .byte   W72
 .byte   W72
@  #08 @138   ----------------------------------------
 .byte   W72
 .byte   W72
@  #08 @139   ----------------------------------------
 .byte   W72
 .byte   W72
@  #08 @140   ----------------------------------------
 .byte   W72
 .byte   W72
@  #08 @141   ----------------------------------------
 .byte   W72
 .byte   W72
@  #08 @142   ----------------------------------------
 .byte   W72
 .byte   W72
@  #08 @143   ----------------------------------------
 .byte   W72
 .byte   W72
@  #08 @144   ----------------------------------------
 .byte   W72
 .byte   W72
@  #08 @145   ----------------------------------------
 .byte   W72
 .byte   W72
@  #08 @146   ----------------------------------------
 .byte   W72
 .byte   W72
@  #08 @147   ----------------------------------------
 .byte   W72
 .byte   W72
@  #08 @148   ----------------------------------------
 .byte   W72
 .byte   W72
@  #08 @149   ----------------------------------------
 .byte   GOTO
  .word Label_01005F48
 .byte   FINE

@**************** Track 9 (Midi-Chn.8) ****************@

song04_009:
@  #09 @000   ----------------------------------------
 .byte   VOL , 48*song04_mvl/mxv
 .byte   KEYSH , song04_key+0
Label_01006180:
 .byte   VOICE , 52
 .byte   MODT 0
 .byte   LFOS 44
 .byte   W96
@  #09 @001   ----------------------------------------
 .byte   W96
@  #09 @002   ----------------------------------------
 .byte   W96
@  #09 @003   ----------------------------------------
 .byte   W96
@  #09 @004   ----------------------------------------
 .byte   W96
@  #09 @005   ----------------------------------------
 .byte   W96
@  #09 @006   ----------------------------------------
 .byte   W96
@  #09 @007   ----------------------------------------
 .byte   W96
@  #09 @008   ----------------------------------------
 .byte   W96
@  #09 @009   ----------------------------------------
 .byte   W96
@  #09 @010   ----------------------------------------
 .byte   W96
@  #09 @011   ----------------------------------------
 .byte   W96
@  #09 @012   ----------------------------------------
 .byte   W96
@  #09 @013   ----------------------------------------
 .byte   W96
@  #09 @014   ----------------------------------------
 .byte   W96
@  #09 @015   ----------------------------------------
 .byte   W96
@  #09 @016   ----------------------------------------
 .byte   W96
@  #09 @017   ----------------------------------------
 .byte   W96
@  #09 @018   ----------------------------------------
 .byte   W96
@  #09 @019   ----------------------------------------
 .byte   W96
@  #09 @020   ----------------------------------------
 .byte   W96
@  #09 @021   ----------------------------------------
 .byte   W96
@  #09 @022   ----------------------------------------
 .byte   W96
@  #09 @023   ----------------------------------------
 .byte   W96
@  #09 @024   ----------------------------------------
 .byte   W96
@  #09 @025   ----------------------------------------
 .byte   W96
@  #09 @026   ----------------------------------------
 .byte   W96
@  #09 @027   ----------------------------------------
 .byte   W96
@  #09 @028   ----------------------------------------
 .byte   W96
@  #09 @029   ----------------------------------------
 .byte   W96
@  #09 @030   ----------------------------------------
 .byte   W96
@  #09 @031   ----------------------------------------
 .byte   W96
@  #09 @032   ----------------------------------------
 .byte   W96
@  #09 @033   ----------------------------------------
 .byte   W96
@  #09 @034   ----------------------------------------
 .byte   W96
@  #09 @035   ----------------------------------------
 .byte   W96
@  #09 @036   ----------------------------------------
 .byte   W96
@  #09 @037   ----------------------------------------
 .byte   W96
@  #09 @038   ----------------------------------------
 .byte   W96
@  #09 @039   ----------------------------------------
 .byte   W96
@  #09 @040   ----------------------------------------
 .byte   W96
@  #09 @041   ----------------------------------------
 .byte   W96
@  #09 @042   ----------------------------------------
 .byte   W96
@  #09 @043   ----------------------------------------
 .byte   W96
@  #09 @044   ----------------------------------------
 .byte   W96
@  #09 @045   ----------------------------------------
 .byte   W96
@  #09 @046   ----------------------------------------
 .byte   W96
@  #09 @047   ----------------------------------------
 .byte   W96
@  #09 @048   ----------------------------------------
 .byte   W96
@  #09 @049   ----------------------------------------
 .byte   W96
@  #09 @050   ----------------------------------------
 .byte   W96
@  #09 @051   ----------------------------------------
 .byte   W96
@  #09 @052   ----------------------------------------
 .byte   W96
@  #09 @053   ----------------------------------------
 .byte   W96
@  #09 @054   ----------------------------------------
 .byte   W96
@  #09 @055   ----------------------------------------
 .byte   W96
@  #09 @056   ----------------------------------------
 .byte   W96
@  #09 @057   ----------------------------------------
 .byte   W96
@  #09 @058   ----------------------------------------
 .byte   W96
@  #09 @059   ----------------------------------------
 .byte   W96
@  #09 @060   ----------------------------------------
 .byte   W96
@  #09 @061   ----------------------------------------
 .byte   W96
@  #09 @062   ----------------------------------------
 .byte   W96
@  #09 @063   ----------------------------------------
 .byte   W96
@  #09 @064   ----------------------------------------
 .byte   W96
@  #09 @065   ----------------------------------------
 .byte   W72
 .byte   W72
@  #09 @066   ----------------------------------------
 .byte   W72
 .byte   W72
@  #09 @067   ----------------------------------------
 .byte   W72
 .byte   W72
@  #09 @068   ----------------------------------------
 .byte   W72
 .byte   W72
@  #09 @069   ----------------------------------------
 .byte   W72
 .byte   W72
@  #09 @070   ----------------------------------------
 .byte   W72
 .byte   W72
@  #09 @071   ----------------------------------------
 .byte   W72
 .byte   W72
@  #09 @072   ----------------------------------------
 .byte   W72
 .byte   W72
@  #09 @073   ----------------------------------------
 .byte   N72 ,Gs2 ,v060
 .byte   W72
 .byte   Ds3
 .byte   W72
@  #09 @074   ----------------------------------------
 .byte   Cn3
 .byte   W72
 .byte   As2
 .byte   W72
@  #09 @075   ----------------------------------------
 .byte   Gn2
 .byte   W72
 .byte   Gs2
 .byte   W72
@  #09 @076   ----------------------------------------
 .byte   Cn3
 .byte   W72
 .byte   As2
 .byte   W72
@  #09 @077   ----------------------------------------
 .byte   Gs2
 .byte   W72
 .byte   Ds3
 .byte   W72
@  #09 @078   ----------------------------------------
 .byte   Cn3
 .byte   W72
 .byte   As2
 .byte   W72
@  #09 @079   ----------------------------------------
 .byte   Gn2
 .byte   W72
 .byte   Gs2
 .byte   W72
@  #09 @080   ----------------------------------------
 .byte   Ds3
 .byte   W72
 .byte   W72
@  #09 @081   ----------------------------------------
 .byte   Gs2
 .byte   N72 ,Gs3
 .byte   W72
 .byte   Ds3
 .byte   N72 ,Ds4
 .byte   W72
@  #09 @082   ----------------------------------------
 .byte   Cn3
 .byte   N72 ,Cn4
 .byte   W72
 .byte   As2
 .byte   N72 ,As3
 .byte   W72
@  #09 @083   ----------------------------------------
 .byte   Gn2
 .byte   N72 ,Gn3
 .byte   W72
 .byte   Gs2
 .byte   N72 ,Gs3
 .byte   W72
@  #09 @084   ----------------------------------------
 .byte   Cn3
 .byte   N72 ,Cn4
 .byte   W72
 .byte   As2
 .byte   N72 ,As3
 .byte   W72
@  #09 @085   ----------------------------------------
 .byte   Gs2
 .byte   N72 ,Gs3
 .byte   W72
 .byte   Ds3
 .byte   N72 ,Ds4
 .byte   W72
@  #09 @086   ----------------------------------------
 .byte   Cn3
 .byte   N72 ,Cn4
 .byte   W72
 .byte   As2
 .byte   N72 ,As3
 .byte   W72
@  #09 @087   ----------------------------------------
 .byte   Gn2
 .byte   N72 ,Gn3
 .byte   W72
 .byte   Gs2
 .byte   N72 ,Gs3
 .byte   W72
@  #09 @088   ----------------------------------------
 .byte   Ds3
 .byte   N72 ,Ds4
 .byte   W72
 .byte   W72
@  #09 @089   ----------------------------------------
 .byte   Gs2
 .byte   N72 ,Gs3
 .byte   W72
 .byte   Ds3
 .byte   N72 ,Ds4
 .byte   W72
@  #09 @090   ----------------------------------------
 .byte   Cn3
 .byte   N72 ,Cn4
 .byte   W72
 .byte   As2
 .byte   N72 ,As3
 .byte   W72
@  #09 @091   ----------------------------------------
 .byte   Gn2
 .byte   N72 ,Gn3
 .byte   W72
 .byte   Gs2
 .byte   N72 ,Gs3
 .byte   W72
@  #09 @092   ----------------------------------------
 .byte   Cn3
 .byte   N72 ,Cn4
 .byte   W72
 .byte   As2
 .byte   N72 ,As3
 .byte   W72
@  #09 @093   ----------------------------------------
 .byte   Gs2
 .byte   N72 ,Gs3
 .byte   W72
 .byte   Ds3
 .byte   N72 ,Ds4
 .byte   W72
@  #09 @094   ----------------------------------------
 .byte   Cn3
 .byte   N72 ,Cn4
 .byte   W72
 .byte   As2
 .byte   N72 ,As3
 .byte   W72
@  #09 @095   ----------------------------------------
 .byte   Gn2
 .byte   N72 ,Gn3
 .byte   W72
 .byte   Gs2
 .byte   N72 ,Gs3
 .byte   W72
@  #09 @096   ----------------------------------------
 .byte   Ds3
 .byte   N72 ,Ds4
 .byte   W72
 .byte   W72
@  #09 @097   ----------------------------------------
 .byte   W72
 .byte   W72
@  #09 @098   ----------------------------------------
 .byte   W72
 .byte   W72
@  #09 @099   ----------------------------------------
 .byte   W72
 .byte   W72
@  #09 @100   ----------------------------------------
 .byte   W72
 .byte   W72
@  #09 @101   ----------------------------------------
 .byte   W72
 .byte   W72
@  #09 @102   ----------------------------------------
 .byte   W72
 .byte   W72
@  #09 @103   ----------------------------------------
 .byte   W72
 .byte   W72
@  #09 @104   ----------------------------------------
 .byte   W72
 .byte   W72
@  #09 @105   ----------------------------------------
 .byte   W72
 .byte   W72
@  #09 @106   ----------------------------------------
 .byte   W72
 .byte   W72
@  #09 @107   ----------------------------------------
 .byte   W72
 .byte   W72
@  #09 @108   ----------------------------------------
 .byte   W72
 .byte   W72
@  #09 @109   ----------------------------------------
 .byte   W72
 .byte   W72
@  #09 @110   ----------------------------------------
 .byte   W72
 .byte   W72
@  #09 @111   ----------------------------------------
 .byte   W72
 .byte   W72
@  #09 @112   ----------------------------------------
 .byte   W72
 .byte   W72
@  #09 @113   ----------------------------------------
 .byte   W72
 .byte   W72
@  #09 @114   ----------------------------------------
 .byte   W72
 .byte   W72
@  #09 @115   ----------------------------------------
 .byte   W72
 .byte   W72
@  #09 @116   ----------------------------------------
 .byte   W72
 .byte   W72
@  #09 @117   ----------------------------------------
 .byte   W72
 .byte   W72
@  #09 @118   ----------------------------------------
 .byte   W72
 .byte   W72
@  #09 @119   ----------------------------------------
 .byte   W72
 .byte   W72
@  #09 @120   ----------------------------------------
 .byte   W72
 .byte   W72
@  #09 @121   ----------------------------------------
 .byte   W72
 .byte   W72
@  #09 @122   ----------------------------------------
 .byte   W72
 .byte   W72
@  #09 @123   ----------------------------------------
 .byte   W72
 .byte   W72
@  #09 @124   ----------------------------------------
 .byte   W72
 .byte   W72
@  #09 @125   ----------------------------------------
 .byte   W72
 .byte   W72
@  #09 @126   ----------------------------------------
 .byte   W72
 .byte   W72
@  #09 @127   ----------------------------------------
 .byte   W72
 .byte   W72
@  #09 @128   ----------------------------------------
 .byte   W72
 .byte   W72
@  #09 @129   ----------------------------------------
 .byte   W72
 .byte   W72
@  #09 @130   ----------------------------------------
 .byte   W72
 .byte   W72
@  #09 @131   ----------------------------------------
 .byte   W72
 .byte   W72
@  #09 @132   ----------------------------------------
 .byte   W72
 .byte   W72
@  #09 @133   ----------------------------------------
 .byte   GOTO
  .word Label_01006180
 .byte   FINE

@**************** Track 10 (Midi-Chn.9) ****************@

song04_010:
@  #10 @000   ----------------------------------------
 .byte   VOL , 30*song04_mvl/mxv
 .byte   KEYSH , song04_key+0
Label_010062D8:
 .byte   VOICE , 38
 .byte   MODT 0
 .byte   LFOS 44
 .byte   W96
@  #10 @001   ----------------------------------------
 .byte   W96
@  #10 @002   ----------------------------------------
 .byte   W96
@  #10 @003   ----------------------------------------
 .byte   W96
@  #10 @004   ----------------------------------------
 .byte   W96
@  #10 @005   ----------------------------------------
 .byte   W96
@  #10 @006   ----------------------------------------
 .byte   W96
@  #10 @007   ----------------------------------------
 .byte   W96
@  #10 @008   ----------------------------------------
 .byte   W96
@  #10 @009   ----------------------------------------
 .byte   W96
@  #10 @010   ----------------------------------------
 .byte   W96
@  #10 @011   ----------------------------------------
 .byte   W96
@  #10 @012   ----------------------------------------
 .byte   W96
@  #10 @013   ----------------------------------------
 .byte   W96
@  #10 @014   ----------------------------------------
 .byte   W96
@  #10 @015   ----------------------------------------
 .byte   W96
@  #10 @016   ----------------------------------------
 .byte   W96
@  #10 @017   ----------------------------------------
 .byte   W96
@  #10 @018   ----------------------------------------
 .byte   W96
@  #10 @019   ----------------------------------------
 .byte   W96
@  #10 @020   ----------------------------------------
 .byte   W96
@  #10 @021   ----------------------------------------
 .byte   W96
@  #10 @022   ----------------------------------------
 .byte   W96
@  #10 @023   ----------------------------------------
 .byte   W96
@  #10 @024   ----------------------------------------
 .byte   W96
@  #10 @025   ----------------------------------------
 .byte   W96
@  #10 @026   ----------------------------------------
 .byte   W96
@  #10 @027   ----------------------------------------
 .byte   W96
@  #10 @028   ----------------------------------------
 .byte   W96
@  #10 @029   ----------------------------------------
 .byte   W96
@  #10 @030   ----------------------------------------
 .byte   W96
@  #10 @031   ----------------------------------------
 .byte   W96
@  #10 @032   ----------------------------------------
 .byte   W96
@  #10 @033   ----------------------------------------
 .byte   W96
@  #10 @034   ----------------------------------------
 .byte   W96
@  #10 @035   ----------------------------------------
 .byte   W96
@  #10 @036   ----------------------------------------
 .byte   W96
@  #10 @037   ----------------------------------------
 .byte   W96
@  #10 @038   ----------------------------------------
 .byte   W96
@  #10 @039   ----------------------------------------
 .byte   W96
@  #10 @040   ----------------------------------------
 .byte   W96
@  #10 @041   ----------------------------------------
 .byte   W96
@  #10 @042   ----------------------------------------
 .byte   W96
@  #10 @043   ----------------------------------------
 .byte   W96
@  #10 @044   ----------------------------------------
 .byte   W96
@  #10 @045   ----------------------------------------
 .byte   W96
@  #10 @046   ----------------------------------------
 .byte   W96
@  #10 @047   ----------------------------------------
 .byte   W96
@  #10 @048   ----------------------------------------
 .byte   W96
@  #10 @049   ----------------------------------------
 .byte   W96
@  #10 @050   ----------------------------------------
 .byte   W96
@  #10 @051   ----------------------------------------
 .byte   W96
@  #10 @052   ----------------------------------------
 .byte   W96
@  #10 @053   ----------------------------------------
 .byte   W96
@  #10 @054   ----------------------------------------
 .byte   W96
@  #10 @055   ----------------------------------------
 .byte   W96
@  #10 @056   ----------------------------------------
Label_01006316:
 .byte   N18 ,Cs0 ,v060
 .byte   W18
 .byte   N48
 .byte   W78
 .byte   PEND 
@  #10 @057   ----------------------------------------
Label_0100631D:
 .byte   N18 ,Fn0 ,v060
 .byte   W18
 .byte   N48
 .byte   W78
 .byte   PEND 
@  #10 @058   ----------------------------------------
Label_01006324:
 .byte   N18 ,Ds0 ,v060
 .byte   W18
 .byte   N48
 .byte   W78
 .byte   PEND 
@  #10 @059   ----------------------------------------
 .byte   W96
@  #10 @060   ----------------------------------------
 .byte   PATT
  .word Label_01006316
@  #10 @061   ----------------------------------------
 .byte   PATT
  .word Label_0100631D
@  #10 @062   ----------------------------------------
 .byte   PATT
  .word Label_01006324
@  #10 @063   ----------------------------------------
 .byte   W96
@  #10 @064   ----------------------------------------
 .byte   W96
@  #10 @065   ----------------------------------------
 .byte   W72
 .byte   W72
@  #10 @066   ----------------------------------------
 .byte   W72
 .byte   W72
@  #10 @067   ----------------------------------------
 .byte   W72
 .byte   W72
@  #10 @068   ----------------------------------------
 .byte   W72
 .byte   W72
@  #10 @069   ----------------------------------------
 .byte   W72
 .byte   W72
@  #10 @070   ----------------------------------------
 .byte   W72
 .byte   W72
@  #10 @071   ----------------------------------------
 .byte   W72
 .byte   W72
@  #10 @072   ----------------------------------------
 .byte   W72
 .byte   W72
@  #10 @073   ----------------------------------------
 .byte   W72
 .byte   W72
@  #10 @074   ----------------------------------------
 .byte   W72
 .byte   W72
@  #10 @075   ----------------------------------------
 .byte   W72
 .byte   W72
@  #10 @076   ----------------------------------------
 .byte   W72
 .byte   W72
@  #10 @077   ----------------------------------------
 .byte   W72
 .byte   W72
@  #10 @078   ----------------------------------------
 .byte   W72
 .byte   W72
@  #10 @079   ----------------------------------------
 .byte   W72
 .byte   W72
@  #10 @080   ----------------------------------------
 .byte   W72
 .byte   W72
@  #10 @081   ----------------------------------------
 .byte   W72
 .byte   W72
@  #10 @082   ----------------------------------------
 .byte   W72
 .byte   W72
@  #10 @083   ----------------------------------------
 .byte   W72
 .byte   W72
@  #10 @084   ----------------------------------------
 .byte   W72
 .byte   W72
@  #10 @085   ----------------------------------------
 .byte   W72
 .byte   W72
@  #10 @086   ----------------------------------------
 .byte   W72
 .byte   W72
@  #10 @087   ----------------------------------------
 .byte   W72
 .byte   W72
@  #10 @088   ----------------------------------------
 .byte   W72
 .byte   W72
@  #10 @089   ----------------------------------------
 .byte   W72
 .byte   W72
@  #10 @090   ----------------------------------------
 .byte   W72
 .byte   W72
@  #10 @091   ----------------------------------------
 .byte   W72
 .byte   W72
@  #10 @092   ----------------------------------------
 .byte   W72
 .byte   W72
@  #10 @093   ----------------------------------------
 .byte   W72
 .byte   W72
@  #10 @094   ----------------------------------------
 .byte   W72
 .byte   W72
@  #10 @095   ----------------------------------------
 .byte   W72
 .byte   W72
@  #10 @096   ----------------------------------------
 .byte   W72
 .byte   W72
@  #10 @097   ----------------------------------------
 .byte   W72
 .byte   W72
@  #10 @098   ----------------------------------------
 .byte   W72
 .byte   W72
@  #10 @099   ----------------------------------------
 .byte   W72
 .byte   W72
@  #10 @100   ----------------------------------------
 .byte   W72
 .byte   W72
@  #10 @101   ----------------------------------------
Label_01006385:
 .byte   N18 ,Cs0 ,v060
 .byte   W24
 .byte   W03
 .byte   N24
 .byte   W44
 .byte   W01
 .byte   PEND 
Label_0100638E:
 .byte   W09
 .byte   N12 ,Cs0 ,v060
 .byte   W24
@  #10 @102   ----------------------------------------
 .byte   W03
 .byte   N09
 .byte   W09
 .byte   N18 ,Cn0
 .byte   W24
 .byte   W03
 .byte   PEND 
Label_0100639B:
 .byte   N18 ,Fn0 ,v060
 .byte   W24
 .byte   W03
 .byte   N24
 .byte   W44
@  #10 @103   ----------------------------------------
 .byte   W01
 .byte   PEND 
Label_010063A4:
 .byte   W09
 .byte   N12 ,Fn0 ,v060
 .byte   W24
 .byte   W03
 .byte   N09
 .byte   W09
 .byte   N18 ,Gs0
 .byte   W24
 .byte   W03
 .byte   PEND 
@  #10 @104   ----------------------------------------
 .byte   PATT
  .word Label_01006385
@  #10 @105   ----------------------------------------
Label_010063B6:
 .byte   W09
 .byte   N12 ,Cs0 ,v060
 .byte   W24
 .byte   W03
 .byte   N09 ,Gs0
 .byte   W09
 .byte   N18 ,Gn0
 .byte   W24
 .byte   W03
 .byte   PEND 
Label_010063C4:
 .byte   N18 ,Ds0 ,v060
 .byte   W24
@  #10 @106   ----------------------------------------
 .byte   W03
 .byte   N24
 .byte   W44
 .byte   W01
 .byte   PEND 
Label_010063CD:
 .byte   W09
 .byte   N12 ,Ds0 ,v060
 .byte   W24
 .byte   W03
 .byte   N09 ,Gn0
 .byte   W09
 .byte   Gs0
 .byte   W09
@  #10 @107   ----------------------------------------
 .byte   N18 ,Gn0
 .byte   W18
 .byte   PEND 
@  #10 @108   ----------------------------------------
 .byte   PATT
  .word Label_01006385
@  #10 @109   ----------------------------------------
 .byte   PATT
  .word Label_0100638E
@  #10 @110   ----------------------------------------
 .byte   PATT
  .word Label_0100639B
@  #10 @111   ----------------------------------------
 .byte   PATT
  .word Label_010063A4
@  #10 @112   ----------------------------------------
 .byte   PATT
  .word Label_01006385
@  #10 @113   ----------------------------------------
 .byte   PATT
  .word Label_010063B6
@  #10 @114   ----------------------------------------
 .byte   PATT
  .word Label_010063C4
@  #10 @115   ----------------------------------------
 .byte   PATT
  .word Label_010063CD
@  #10 @116   ----------------------------------------
 .byte   PATT
  .word Label_01006385
@  #10 @117   ----------------------------------------
 .byte   PATT
  .word Label_0100638E
@  #10 @118   ----------------------------------------
 .byte   PATT
  .word Label_0100639B
@  #10 @119   ----------------------------------------
 .byte   PATT
  .word Label_010063A4
@  #10 @120   ----------------------------------------
 .byte   PATT
  .word Label_01006385
@  #10 @121   ----------------------------------------
 .byte   PATT
  .word Label_010063B6
@  #10 @122   ----------------------------------------
 .byte   PATT
  .word Label_010063C4
@  #10 @123   ----------------------------------------
 .byte   PATT
  .word Label_010063CD
@  #10 @124   ----------------------------------------
 .byte   PATT
  .word Label_01006385
@  #10 @125   ----------------------------------------
 .byte   PATT
  .word Label_0100638E
@  #10 @126   ----------------------------------------
 .byte   PATT
  .word Label_0100639B
@  #10 @127   ----------------------------------------
 .byte   PATT
  .word Label_010063A4
@  #10 @128   ----------------------------------------
 .byte   PATT
  .word Label_01006385
@  #10 @129   ----------------------------------------
 .byte   PATT
  .word Label_010063B6
@  #10 @130   ----------------------------------------
 .byte   PATT
  .word Label_010063C4
@  #10 @131   ----------------------------------------
 .byte   PATT
  .word Label_010063CD
@  #10 @132   ----------------------------------------
 .byte   PATT
  .word Label_01006385
@  #10 @133   ----------------------------------------
 .byte   PATT
  .word Label_0100638E
@  #10 @134   ----------------------------------------
 .byte   PATT
  .word Label_0100639B
@  #10 @135   ----------------------------------------
 .byte   PATT
  .word Label_010063A4
@  #10 @136   ----------------------------------------
 .byte   PATT
  .word Label_01006385
@  #10 @137   ----------------------------------------
 .byte   PATT
  .word Label_010063B6
@  #10 @138   ----------------------------------------
 .byte   PATT
  .word Label_010063C4
@  #10 @139   ----------------------------------------
 .byte   PATT
  .word Label_010063CD
@  #10 @140   ----------------------------------------
 .byte   PATT
  .word Label_01006385
@  #10 @141   ----------------------------------------
 .byte   PATT
  .word Label_0100638E
@  #10 @142   ----------------------------------------
 .byte   PATT
  .word Label_0100639B
@  #10 @143   ----------------------------------------
 .byte   PATT
  .word Label_010063A4
@  #10 @144   ----------------------------------------
 .byte   PATT
  .word Label_01006385
@  #10 @145   ----------------------------------------
 .byte   PATT
  .word Label_010063B6
@  #10 @146   ----------------------------------------
 .byte   PATT
  .word Label_010063C4
@  #10 @147   ----------------------------------------
 .byte   PATT
  .word Label_010063CD
@  #10 @148   ----------------------------------------
 .byte   PATT
  .word Label_01006385
@  #10 @149   ----------------------------------------
 .byte   PATT
  .word Label_0100638E
@  #10 @150   ----------------------------------------
 .byte   PATT
  .word Label_0100639B
@  #10 @151   ----------------------------------------
 .byte   PATT
  .word Label_010063A4
@  #10 @152   ----------------------------------------
 .byte   PATT
  .word Label_01006385
@  #10 @153   ----------------------------------------
 .byte   PATT
  .word Label_010063B6
@  #10 @154   ----------------------------------------
 .byte   PATT
  .word Label_010063C4
@  #10 @155   ----------------------------------------
 .byte   PATT
  .word Label_010063CD
@  #10 @156   ----------------------------------------
 .byte   W72
 .byte   W72
@  #10 @157   ----------------------------------------
 .byte   W72
 .byte   W72
@  #10 @158   ----------------------------------------
 .byte   W72
 .byte   W72
@  #10 @159   ----------------------------------------
 .byte   W72
 .byte   W72
@  #10 @160   ----------------------------------------
 .byte   GOTO
  .word Label_010062D8
 .byte   FINE

@******************************************************@
	.align	2

song04:
	.byte	10	@ NumTrks
	.byte	0	@ NumBlks
	.byte	song04_pri	@ Priority
	.byte	song04_rev	@ Reverb.
    
	.word	song04_grp
    
	.word	song04_001
	.word	song04_002
	.word	song04_003
	.word	song04_004
	.word	song04_005
	.word	song04_006
	.word	song04_007
	.word	song04_008
	.word	song04_009
	.word	song04_010

	.end
