	.include "MPlayDef.s"

	.equ	song04_grp, voicegroup000
	.equ	song04_pri, 0
	.equ	song04_rev, 0
	.equ	song04_mvl, 127
	.equ	song04_key, 0
	.equ	song04_tbs, 1
	.equ	song04_exg, 0
	.equ	song04_cmp, 1

	.section .rodata
	.global	song04
	.align	2


@**************** Track 1 (Midi-Chn.0) ****************@

song04_001:
@  #01 @000   ----------------------------------------
 .byte   KEYSH , song04_key+0
Label_F7B592:
 .byte   TEMPO , 150*song04_tbs/2
 .byte   VOICE , 74
 .byte   VOL , 45*song04_mvl/mxv
 .byte   W96
@  #01 @001   ----------------------------------------
 .byte   W96
@  #01 @002   ----------------------------------------
Label_F7B59A:
 .byte   N48 ,Ds3 ,v096
 .byte   W48
 .byte   N16 ,Gn3
 .byte   W16
 .byte   As3
 .byte   W16
 .byte   Ds4
 .byte   W16
 .byte   PEND 
@  #01 @003   ----------------------------------------
 .byte   N96
 .byte   W96
@  #01 @004   ----------------------------------------
 .byte   W96
@  #01 @005   ----------------------------------------
 .byte   W96
@  #01 @006   ----------------------------------------
 .byte   PATT
  .word Label_F7B59A
@  #01 @007   ----------------------------------------
 .byte   N96 ,Ds4 ,v096
 .byte   W96
@  #01 @008   ----------------------------------------
 .byte   W96
@  #01 @009   ----------------------------------------
 .byte   W96
@  #01 @010   ----------------------------------------
 .byte   W96
@  #01 @011   ----------------------------------------
 .byte   W96
@  #01 @012   ----------------------------------------
 .byte   W96
@  #01 @013   ----------------------------------------
 .byte   W96
@  #01 @014   ----------------------------------------
 .byte   W24
 .byte   N36 ,As3
 .byte   W48
 .byte   N24 ,Ds4
 .byte   W24
@  #01 @015   ----------------------------------------
 .byte   As3
 .byte   W24
 .byte   An3
 .byte   W24
 .byte   N48 ,As3
 .byte   W48
@  #01 @016   ----------------------------------------
 .byte   W96
@  #01 @017   ----------------------------------------
 .byte   W96
@  #01 @018   ----------------------------------------
 .byte   W96
@  #01 @019   ----------------------------------------
 .byte   W96
@  #01 @020   ----------------------------------------
 .byte   N18 ,Gs3
 .byte   W18
 .byte   N06
 .byte   W06
 .byte   N48 ,Gn4
 .byte   W48
 .byte   N18 ,Gs3
 .byte   W18
 .byte   N06
 .byte   W06
@  #01 @021   ----------------------------------------
 .byte   N48 ,Gs4
 .byte   W48
 .byte   N24 ,Gn4
 .byte   W24
 .byte   Gs4
 .byte   W24
@  #01 @022   ----------------------------------------
 .byte   W96
@  #01 @023   ----------------------------------------
 .byte   W96
@  #01 @024   ----------------------------------------
 .byte   W96
@  #01 @025   ----------------------------------------
 .byte   W96
@  #01 @026   ----------------------------------------
 .byte   W96
@  #01 @027   ----------------------------------------
 .byte   W96
@  #01 @028   ----------------------------------------
Label_F7B5E6:
 .byte   N12 ,Ds4 ,v096
 .byte   W12
 .byte   N12
 .byte   W12
 .byte   N12
 .byte   W12
 .byte   N12
 .byte   W12
 .byte   N12
 .byte   W12
 .byte   N12
 .byte   W12
 .byte   N24 ,Dn4
 .byte   W24
 .byte   PEND 
@  #01 @029   ----------------------------------------
Label_F7B5F8:
 .byte   N12 ,Cs4 ,v096
 .byte   W12
 .byte   N12
 .byte   W12
 .byte   N12
 .byte   W12
 .byte   N12
 .byte   W12
 .byte   N12
 .byte   W12
 .byte   N12
 .byte   W12
 .byte   N24 ,Dn4
 .byte   W24
 .byte   PEND 
@  #01 @030   ----------------------------------------
 .byte   W96
@  #01 @031   ----------------------------------------
 .byte   W96
@  #01 @032   ----------------------------------------
 .byte   PATT
  .word Label_F7B5E6
@  #01 @033   ----------------------------------------
 .byte   PATT
  .word Label_F7B5F8
@  #01 @034   ----------------------------------------
 .byte   W96
@  #01 @035   ----------------------------------------
 .byte   W96
@  #01 @036   ----------------------------------------
 .byte   W96
@  #01 @037   ----------------------------------------
 .byte   W96
@  #01 @038   ----------------------------------------
 .byte   W96
@  #01 @039   ----------------------------------------
 .byte   W96
@  #01 @040   ----------------------------------------
 .byte   N08 ,Cs4 ,v096
 .byte   W08
 .byte   Cn4
 .byte   W08
 .byte   Bn3
 .byte   W08
 .byte   As3
 .byte   W08
 .byte   An3
 .byte   W08
 .byte   Gs3
 .byte   W08
 .byte   Gn3
 .byte   W08
 .byte   Fs3
 .byte   W08
 .byte   Fn3
 .byte   W08
 .byte   En3
 .byte   W08
 .byte   Ds3
 .byte   W08
 .byte   Dn3
 .byte   W08
@  #01 @041   ----------------------------------------
 .byte   N48 ,Cs3
 .byte   W48
 .byte   TIE ,Ds3
 .byte   W48
@  #01 @042   ----------------------------------------
 .byte   W96
@  #01 @043   ----------------------------------------
 .byte   EOT
 .byte   W96
@  #01 @044   ----------------------------------------
 .byte   N96 ,Cn4
 .byte   W96
@  #01 @045   ----------------------------------------
 .byte   W48
 .byte   GOTO
  .word Label_F7B592
 .byte   FINE

@**************** Track 2 (Midi-Chn.1) ****************@

song04_002:
@  #02 @000   ----------------------------------------
 .byte   KEYSH , song04_key+0
Label_F7B9FE:
 .byte   VOICE , 56
 .byte   VOL , 35*song04_mvl/mxv
 .byte   W96
@  #02 @001   ----------------------------------------
 .byte   W96
@  #02 @002   ----------------------------------------
 .byte   W96
@  #02 @003   ----------------------------------------
 .byte   W96
@  #02 @004   ----------------------------------------
 .byte   W96
@  #02 @005   ----------------------------------------
 .byte   W96
@  #02 @006   ----------------------------------------
 .byte   W96
@  #02 @007   ----------------------------------------
 .byte   W96
@  #02 @008   ----------------------------------------
 .byte   W96
@  #02 @009   ----------------------------------------
 .byte   W96
@  #02 @010   ----------------------------------------
 .byte   N48 ,Fn4 ,v096
 .byte   W48
 .byte   N24 ,Gn4
 .byte   W24
 .byte   Fn4
 .byte   W24
@  #02 @011   ----------------------------------------
 .byte   N48 ,Gs4
 .byte   W48
 .byte   N12 ,Gn4
 .byte   W12
 .byte   N12
 .byte   W12
 .byte   N24 ,Fn4
 .byte   W24
@  #02 @012   ----------------------------------------
 .byte   W96
@  #02 @013   ----------------------------------------
 .byte   W96
@  #02 @014   ----------------------------------------
 .byte   N96 ,Ds3
 .byte   W96
@  #02 @015   ----------------------------------------
 .byte   W96
@  #02 @016   ----------------------------------------
 .byte   W96
@  #02 @017   ----------------------------------------
 .byte   W96
@  #02 @018   ----------------------------------------
 .byte   W96
@  #02 @019   ----------------------------------------
 .byte   W96
@  #02 @020   ----------------------------------------
 .byte   W96
@  #02 @021   ----------------------------------------
 .byte   W96
@  #02 @022   ----------------------------------------
 .byte   N18 ,Gs3
 .byte   W18
 .byte   N06 ,Cn4
 .byte   W06
 .byte   N18 ,Gs3
 .byte   W18
 .byte   N06 ,Cn4
 .byte   W06
 .byte   N18 ,Gs3
 .byte   W18
 .byte   N06 ,Cn4
 .byte   W06
 .byte   N18 ,Gs3
 .byte   W18
 .byte   N06 ,Cn4
 .byte   W06
@  #02 @023   ----------------------------------------
 .byte   N18 ,Gs3
 .byte   W18
 .byte   N06 ,Cs4
 .byte   W06
 .byte   N18 ,Gs3
 .byte   W18
 .byte   N06 ,Cs4
 .byte   W06
 .byte   N18 ,Gs3
 .byte   W18
 .byte   N06 ,Cs4
 .byte   W06
 .byte   N18 ,Gs3
 .byte   W18
 .byte   N06 ,Cs4
 .byte   W06
@  #02 @024   ----------------------------------------
 .byte   W96
@  #02 @025   ----------------------------------------
 .byte   W96
@  #02 @026   ----------------------------------------
 .byte   W96
@  #02 @027   ----------------------------------------
 .byte   W96
@  #02 @028   ----------------------------------------
 .byte   W96
@  #02 @029   ----------------------------------------
 .byte   W96
@  #02 @030   ----------------------------------------
 .byte   W96
@  #02 @031   ----------------------------------------
 .byte   W96
@  #02 @032   ----------------------------------------
 .byte   W96
@  #02 @033   ----------------------------------------
 .byte   W96
@  #02 @034   ----------------------------------------
 .byte   W96
@  #02 @035   ----------------------------------------
 .byte   W96
@  #02 @036   ----------------------------------------
 .byte   N12 ,Ds4
 .byte   W12
 .byte   N12
 .byte   W12
 .byte   N12
 .byte   W12
 .byte   N12
 .byte   W12
 .byte   N12
 .byte   W12
 .byte   N12
 .byte   W12
 .byte   N12
 .byte   W12
 .byte   N12
 .byte   W12
@  #02 @037   ----------------------------------------
 .byte   N12
 .byte   W12
 .byte   N12
 .byte   W12
 .byte   Gs3
 .byte   W12
 .byte   Gn3
 .byte   W12
 .byte   Fn3
 .byte   W12
 .byte   Cs3
 .byte   W12
 .byte   N24 ,Ds3
 .byte   W24
@  #02 @038   ----------------------------------------
 .byte   W96
@  #02 @039   ----------------------------------------
 .byte   W96
@  #02 @040   ----------------------------------------
 .byte   N08 ,Fn3
 .byte   W08
 .byte   Fs3
 .byte   W08
 .byte   Gn3
 .byte   W08
 .byte   Gs3
 .byte   W08
 .byte   An3
 .byte   W08
 .byte   As3
 .byte   W08
 .byte   Bn3
 .byte   W08
 .byte   Cn4
 .byte   W08
 .byte   Cs4
 .byte   W08
 .byte   Dn4
 .byte   W08
 .byte   Ds4
 .byte   W08
 .byte   En4
 .byte   W08
@  #02 @041   ----------------------------------------
 .byte   N48 ,Fn4
 .byte   W48
 .byte   TIE ,Ds4
 .byte   W48
@  #02 @042   ----------------------------------------
 .byte   W96
@  #02 @043   ----------------------------------------
 .byte   EOT
 .byte   W96
@  #02 @044   ----------------------------------------
 .byte   N96 ,Gs4
 .byte   W96
@  #02 @045   ----------------------------------------
 .byte   W48
 .byte   GOTO
  .word Label_F7B9FE
 .byte   FINE

@**************** Track 3 (Midi-Chn.2) ****************@

song04_003:
@  #03 @000   ----------------------------------------
 .byte   KEYSH , song04_key+0
Label_01004A3E:
 .byte   VOICE , 24
 .byte   VOL , 30*song04_mvl/mxv
 .byte   W96
@  #03 @001   ----------------------------------------
 .byte   W96
@  #03 @002   ----------------------------------------
Label_01004A44:
 .byte   N24 ,Ds3 ,v096
 .byte   W24
 .byte   N06 ,Cs3
 .byte   W06
 .byte   N18 ,Ds3
 .byte   W18
 .byte   N48
 .byte   W48
 .byte   PEND 
@  #03 @003   ----------------------------------------
Label_01004A51:
 .byte   N18 ,Ds3 ,v096
 .byte   W18
 .byte   N06 ,Cn3
 .byte   W06
 .byte   N24 ,Fn3
 .byte   W24
 .byte   N12 ,Ds3
 .byte   W24
 .byte   N24
 .byte   W24
 .byte   PEND 
@  #03 @004   ----------------------------------------
 .byte   W96
@  #03 @005   ----------------------------------------
 .byte   W96
@  #03 @006   ----------------------------------------
 .byte   PATT
  .word Label_01004A44
@  #03 @007   ----------------------------------------
 .byte   PATT
  .word Label_01004A51
@  #03 @008   ----------------------------------------
 .byte   W96
@  #03 @009   ----------------------------------------
 .byte   W96
@  #03 @010   ----------------------------------------
 .byte   W96
@  #03 @011   ----------------------------------------
 .byte   W96
@  #03 @012   ----------------------------------------
 .byte   W96
@  #03 @013   ----------------------------------------
 .byte   W96
@  #03 @014   ----------------------------------------
 .byte   N36 ,Ds3 ,v096
 .byte   W36
 .byte   N12 ,Cs3
 .byte   W12
 .byte   N36 ,Cn3
 .byte   W36
 .byte   N12 ,Cs3
 .byte   W12
@  #03 @015   ----------------------------------------
 .byte   N48 ,Ds3
 .byte   W96
@  #03 @016   ----------------------------------------
 .byte   N24 ,Gs1
 .byte   N24 ,Gs2
 .byte   W24
 .byte   Fn1
 .byte   N24 ,Cn3
 .byte   W24
 .byte   Ds1
 .byte   N24 ,Cs3
 .byte   W24
 .byte   Cs1
 .byte   N24 ,Ds3
 .byte   W24
@  #03 @017   ----------------------------------------
 .byte   N72 ,Cn1
 .byte   N72 ,Gn3
 .byte   W72
 .byte   N24 ,Gs1
 .byte   N24 ,Gs3
 .byte   W24
@  #03 @018   ----------------------------------------
 .byte   W96
@  #03 @019   ----------------------------------------
 .byte   W96
@  #03 @020   ----------------------------------------
 .byte   W96
@  #03 @021   ----------------------------------------
 .byte   W96
@  #03 @022   ----------------------------------------
 .byte   W96
@  #03 @023   ----------------------------------------
 .byte   W96
@  #03 @024   ----------------------------------------
 .byte   W96
@  #03 @025   ----------------------------------------
 .byte   W96
@  #03 @026   ----------------------------------------
 .byte   W96
@  #03 @027   ----------------------------------------
 .byte   W96
@  #03 @028   ----------------------------------------
Label_01004AA8:
 .byte   N24 ,Gs2 ,v096
 .byte   W24
 .byte   Cn3
 .byte   W24
 .byte   N48 ,Ds3
 .byte   W48
 .byte   PEND 
@  #03 @029   ----------------------------------------
Label_01004AB2:
 .byte   N24 ,Gn2 ,v096
 .byte   W24
 .byte   As2
 .byte   W24
 .byte   N48 ,Ds3
 .byte   W48
 .byte   PEND 
@  #03 @030   ----------------------------------------
 .byte   W96
@  #03 @031   ----------------------------------------
 .byte   W96
@  #03 @032   ----------------------------------------
 .byte   PATT
  .word Label_01004AA8
@  #03 @033   ----------------------------------------
 .byte   PATT
  .word Label_01004AB2
@  #03 @034   ----------------------------------------
 .byte   W96
@  #03 @035   ----------------------------------------
 .byte   W96
@  #03 @036   ----------------------------------------
 .byte   N36 ,Ds2 ,v096
 .byte   W36
 .byte   N12 ,Gs2
 .byte   W12
 .byte   N36 ,Cn3
 .byte   W36
 .byte   N12 ,Ds3
 .byte   W12
@  #03 @037   ----------------------------------------
 .byte   N36 ,Gs3
 .byte   W36
 .byte   N12 ,Gn3
 .byte   W12
 .byte   N36 ,As2
 .byte   W36
 .byte   N12 ,Cn3
 .byte   W12
@  #03 @038   ----------------------------------------
 .byte   W96
@  #03 @039   ----------------------------------------
 .byte   W96
@  #03 @040   ----------------------------------------
 .byte   N96 ,Ds2
 .byte   W96
@  #03 @041   ----------------------------------------
 .byte   N24 ,Ds4
 .byte   W24
 .byte   Gs2
 .byte   W24
 .byte   Gn2
 .byte   W24
 .byte   Fn2
 .byte   W24
@  #03 @042   ----------------------------------------
 .byte   N96 ,Ds2
 .byte   N96 ,Gn2
 .byte   N96 ,Gs2
 .byte   N96 ,As2
 .byte   N96 ,Ds3
 .byte   W96
@  #03 @043   ----------------------------------------
 .byte   W96
@  #03 @044   ----------------------------------------
 .byte   Gs1
 .byte   N96 ,Cn2
 .byte   N96 ,Ds2
 .byte   N96 ,Gs2
 .byte   N96 ,Ds3
 .byte   N96 ,Gs3
 .byte   W96
@  #03 @045   ----------------------------------------
 .byte   W48
 .byte   GOTO
  .word Label_01004A3E
 .byte   FINE

@**************** Track 4 (Midi-Chn.3) ****************@

song04_004:
@  #04 @000   ----------------------------------------
 .byte   KEYSH , song04_key+0
Label_01004B26:
 .byte   VOICE , 52
 .byte   VOL , 43*song04_mvl/mxv
 .byte   N24 ,Ds2 ,v096
 .byte   W36
 .byte   N48
 .byte   W60
@  #04 @001   ----------------------------------------
Label_01004B30:
 .byte   N24 ,Cs2 ,v096
 .byte   W36
 .byte   N48
 .byte   W60
 .byte   PEND 
@  #04 @002   ----------------------------------------
Label_01004B37:
 .byte   N24 ,Ds2 ,v096
 .byte   W36
 .byte   N48
 .byte   W60
 .byte   PEND 
@  #04 @003   ----------------------------------------
 .byte   PATT
  .word Label_01004B30
@  #04 @004   ----------------------------------------
 .byte   PATT
  .word Label_01004B37
@  #04 @005   ----------------------------------------
 .byte   PATT
  .word Label_01004B30
@  #04 @006   ----------------------------------------
 .byte   PATT
  .word Label_01004B37
@  #04 @007   ----------------------------------------
 .byte   PATT
  .word Label_01004B30
@  #04 @008   ----------------------------------------
Label_01004B57:
 .byte   N24 ,Fn2 ,v096
 .byte   W36
 .byte   N48
 .byte   W60
 .byte   PEND 
@  #04 @009   ----------------------------------------
 .byte   PATT
  .word Label_01004B37
@  #04 @010   ----------------------------------------
 .byte   PATT
  .word Label_01004B57
@  #04 @011   ----------------------------------------
 .byte   PATT
  .word Label_01004B37
@  #04 @012   ----------------------------------------
 .byte   PATT
  .word Label_01004B37
@  #04 @013   ----------------------------------------
 .byte   PATT
  .word Label_01004B30
@  #04 @014   ----------------------------------------
 .byte   PATT
  .word Label_01004B37
@  #04 @015   ----------------------------------------
 .byte   PATT
  .word Label_01004B30
@  #04 @016   ----------------------------------------
 .byte   W96
@  #04 @017   ----------------------------------------
 .byte   W96
@  #04 @018   ----------------------------------------
 .byte   W96
@  #04 @019   ----------------------------------------
 .byte   W96
@  #04 @020   ----------------------------------------
 .byte   W96
@  #04 @021   ----------------------------------------
 .byte   W96
@  #04 @022   ----------------------------------------
 .byte   W96
@  #04 @023   ----------------------------------------
 .byte   W96
@  #04 @024   ----------------------------------------
 .byte   W96
@  #04 @025   ----------------------------------------
 .byte   W96
@  #04 @026   ----------------------------------------
 .byte   PATT
  .word Label_01004B37
@  #04 @027   ----------------------------------------
 .byte   PATT
  .word Label_01004B30
@  #04 @028   ----------------------------------------
 .byte   PATT
  .word Label_01004B37
@  #04 @029   ----------------------------------------
 .byte   PATT
  .word Label_01004B30
@  #04 @030   ----------------------------------------
 .byte   PATT
  .word Label_01004B37
@  #04 @031   ----------------------------------------
 .byte   PATT
  .word Label_01004B30
@  #04 @032   ----------------------------------------
 .byte   PATT
  .word Label_01004B37
@  #04 @033   ----------------------------------------
 .byte   PATT
  .word Label_01004B30
@  #04 @034   ----------------------------------------
 .byte   PATT
  .word Label_01004B57
@  #04 @035   ----------------------------------------
 .byte   PATT
  .word Label_01004B37
@  #04 @036   ----------------------------------------
 .byte   PATT
  .word Label_01004B57
@  #04 @037   ----------------------------------------
 .byte   PATT
  .word Label_01004B37
@  #04 @038   ----------------------------------------
 .byte   PATT
  .word Label_01004B37
@  #04 @039   ----------------------------------------
 .byte   N24 ,Cs2 ,v096
 .byte   W36
 .byte   N60
 .byte   W60
@  #04 @040   ----------------------------------------
 .byte   N24 ,Ds2
 .byte   W24
 .byte   N12 ,Cs2
 .byte   W12
 .byte   Cn2
 .byte   W12
 .byte   As1
 .byte   W12
 .byte   Gs1
 .byte   W12
 .byte   Gn1
 .byte   W12
 .byte   Fn1
 .byte   W12
@  #04 @041   ----------------------------------------
 .byte   TIE ,Ds1
 .byte   W96
@  #04 @042   ----------------------------------------
 .byte   W96
@  #04 @043   ----------------------------------------
 .byte   EOT
 .byte   W96
@  #04 @044   ----------------------------------------
 .byte   N96 ,Gs1
 .byte   W96
@  #04 @045   ----------------------------------------
 .byte   W48
 .byte   GOTO
  .word Label_01004B26
 .byte   FINE

@**************** Track 5 (Midi-Chn.4) ****************@

song04_005:
@  #05 @000   ----------------------------------------
 .byte   KEYSH , song04_key+0
Label_01004C06:
 .byte   VOICE , 34
 .byte   VOL , 41*song04_mvl/mxv
 .byte   N24 ,Ds1 ,v096
 .byte   W96
@  #05 @001   ----------------------------------------
 .byte   Cs1
 .byte   W96
@  #05 @002   ----------------------------------------
Label_01004C10:
 .byte   N72 ,Ds1 ,v096
 .byte   W72
 .byte   N24 ,Dn1
 .byte   W24
 .byte   PEND 
@  #05 @003   ----------------------------------------
Label_01004C18:
 .byte   N72 ,Cs1 ,v096
 .byte   W72
 .byte   N24 ,Dn1
 .byte   W24
 .byte   PEND 
@  #05 @004   ----------------------------------------
 .byte   Ds1
 .byte   W96
@  #05 @005   ----------------------------------------
 .byte   Cs1
 .byte   W96
@  #05 @006   ----------------------------------------
 .byte   PATT
  .word Label_01004C10
@  #05 @007   ----------------------------------------
 .byte   PATT
  .word Label_01004C18
@  #05 @008   ----------------------------------------
 .byte   N24 ,Fn1 ,v096
 .byte   W96
@  #05 @009   ----------------------------------------
 .byte   Ds1
 .byte   W96
@  #05 @010   ----------------------------------------
Label_01004C34:
 .byte   N72 ,Fn1 ,v096
 .byte   W72
 .byte   N24 ,En1
 .byte   W24
 .byte   PEND 
@  #05 @011   ----------------------------------------
Label_01004C3C:
 .byte   N72 ,Ds1 ,v096
 .byte   W72
 .byte   N24 ,En1
 .byte   W24
 .byte   PEND 
@  #05 @012   ----------------------------------------
 .byte   Ds1
 .byte   W96
@  #05 @013   ----------------------------------------
 .byte   Cs1
 .byte   W96
@  #05 @014   ----------------------------------------
 .byte   PATT
  .word Label_01004C10
@  #05 @015   ----------------------------------------
 .byte   N72 ,Cs1 ,v096
 .byte   W72
 .byte   N24 ,Ds1
 .byte   W24
@  #05 @016   ----------------------------------------
 .byte   N96 ,Gs0
 .byte   W96
@  #05 @017   ----------------------------------------
 .byte   W96
@  #05 @018   ----------------------------------------
 .byte   N24 ,Gn1
 .byte   W24
 .byte   N12 ,Gs1
 .byte   W12
 .byte   Gn1
 .byte   W12
 .byte   Gs1
 .byte   W12
 .byte   Gn1
 .byte   W12
 .byte   Gs1
 .byte   W12
 .byte   Gn1
 .byte   W12
@  #05 @019   ----------------------------------------
 .byte   Gs1
 .byte   N12 ,Ds2
 .byte   W12
 .byte   Gs1
 .byte   N12 ,Ds2
 .byte   W12
 .byte   N48 ,Gn1
 .byte   N48 ,Cs2
 .byte   W48
 .byte   N24 ,Gs1
 .byte   N24 ,Ds2
 .byte   W24
@  #05 @020   ----------------------------------------
 .byte   W96
@  #05 @021   ----------------------------------------
 .byte   W96
@  #05 @022   ----------------------------------------
 .byte   W96
@  #05 @023   ----------------------------------------
 .byte   W96
@  #05 @024   ----------------------------------------
 .byte   W96
@  #05 @025   ----------------------------------------
 .byte   W96
@  #05 @026   ----------------------------------------
 .byte   Ds1
 .byte   W96
@  #05 @027   ----------------------------------------
 .byte   Cs1
 .byte   W96
@  #05 @028   ----------------------------------------
 .byte   PATT
  .word Label_01004C10
@  #05 @029   ----------------------------------------
 .byte   PATT
  .word Label_01004C18
@  #05 @030   ----------------------------------------
 .byte   N24 ,Ds1 ,v096
 .byte   W96
@  #05 @031   ----------------------------------------
 .byte   Cs1
 .byte   W96
@  #05 @032   ----------------------------------------
 .byte   PATT
  .word Label_01004C10
@  #05 @033   ----------------------------------------
 .byte   PATT
  .word Label_01004C18
@  #05 @034   ----------------------------------------
 .byte   N24 ,Fn1 ,v096
 .byte   W96
@  #05 @035   ----------------------------------------
 .byte   Ds1
 .byte   W96
@  #05 @036   ----------------------------------------
 .byte   PATT
  .word Label_01004C34
@  #05 @037   ----------------------------------------
 .byte   PATT
  .word Label_01004C3C
@  #05 @038   ----------------------------------------
 .byte   N24 ,Ds1 ,v096
 .byte   W96
@  #05 @039   ----------------------------------------
 .byte   N24
 .byte   W96
@  #05 @040   ----------------------------------------
Label_01004CB4:
 .byte   N24 ,Ds1 ,v096
 .byte   W24
 .byte   Cs1
 .byte   W24
 .byte   Fn1
 .byte   W24
 .byte   Ds1
 .byte   W24
 .byte   PEND 
@  #05 @041   ----------------------------------------
 .byte   PATT
  .word Label_01004CB4
@  #05 @042   ----------------------------------------
 .byte   N96 ,Ds1 ,v096
 .byte   W96
@  #05 @043   ----------------------------------------
 .byte   W96
@  #05 @044   ----------------------------------------
 .byte   N08 ,Gs0
 .byte   W08
 .byte   An0
 .byte   W08
 .byte   As0
 .byte   W08
 .byte   Bn0
 .byte   W08
 .byte   Cn1
 .byte   W08
 .byte   Cs1
 .byte   W08
 .byte   Dn1
 .byte   W08
 .byte   Ds1
 .byte   W08
 .byte   En1
 .byte   W08
 .byte   Fn1
 .byte   W08
 .byte   Fs1
 .byte   W08
 .byte   Gn1
 .byte   W08
@  #05 @045   ----------------------------------------
 .byte   N24 ,Gs1
 .byte   W48
 .byte   GOTO
  .word Label_01004C06
 .byte   FINE

@**************** Track 6 (Midi-Chn.5) ****************@

song04_006:
@  #06 @000   ----------------------------------------
 .byte   KEYSH , song04_key+0
Label_F7B856:
 .byte   VOICE , 18
 .byte   VOL , 46*song04_mvl/mxv
 .byte   W96
@  #06 @001   ----------------------------------------
 .byte   W96
@  #06 @002   ----------------------------------------
 .byte   W96
@  #06 @003   ----------------------------------------
 .byte   W96
@  #06 @004   ----------------------------------------
 .byte   W96
@  #06 @005   ----------------------------------------
 .byte   W96
@  #06 @006   ----------------------------------------
 .byte   W96
@  #06 @007   ----------------------------------------
 .byte   W96
@  #06 @008   ----------------------------------------
 .byte   W96
@  #06 @009   ----------------------------------------
 .byte   W96
@  #06 @010   ----------------------------------------
 .byte   W96
@  #06 @011   ----------------------------------------
 .byte   W96
@  #06 @012   ----------------------------------------
 .byte   W96
@  #06 @013   ----------------------------------------
 .byte   W96
@  #06 @014   ----------------------------------------
 .byte   W96
@  #06 @015   ----------------------------------------
 .byte   W96
@  #06 @016   ----------------------------------------
 .byte   W96
@  #06 @017   ----------------------------------------
 .byte   W96
@  #06 @018   ----------------------------------------
 .byte   W96
@  #06 @019   ----------------------------------------
 .byte   W96
@  #06 @020   ----------------------------------------
 .byte   W96
@  #06 @021   ----------------------------------------
 .byte   W96
@  #06 @022   ----------------------------------------
 .byte   W96
@  #06 @023   ----------------------------------------
 .byte   W96
@  #06 @024   ----------------------------------------
 .byte   N24 ,Bn4 ,v096
 .byte   W24
 .byte   N24
 .byte   W24
 .byte   N24
 .byte   W24
 .byte   As4
 .byte   W24
@  #06 @025   ----------------------------------------
 .byte   N12 ,Gs4
 .byte   W12
 .byte   Fs4
 .byte   W12
 .byte   Gs4
 .byte   W12
 .byte   Fs4
 .byte   W12
 .byte   Gs4
 .byte   W12
 .byte   Fs4
 .byte   W12
 .byte   Bn4
 .byte   W12
 .byte   Fs4
 .byte   W12
@  #06 @026   ----------------------------------------
 .byte   Ds4
 .byte   W96
@  #06 @027   ----------------------------------------
 .byte   W96
@  #06 @028   ----------------------------------------
 .byte   W96
@  #06 @029   ----------------------------------------
 .byte   W96
@  #06 @030   ----------------------------------------
 .byte   N12
 .byte   W96
@  #06 @031   ----------------------------------------
 .byte   W96
@  #06 @032   ----------------------------------------
 .byte   W96
@  #06 @033   ----------------------------------------
 .byte   W96
@  #06 @034   ----------------------------------------
 .byte   W96
@  #06 @035   ----------------------------------------
 .byte   W96
@  #06 @036   ----------------------------------------
 .byte   W96
@  #06 @037   ----------------------------------------
 .byte   W96
@  #06 @038   ----------------------------------------
 .byte   W96
@  #06 @039   ----------------------------------------
 .byte   W96
@  #06 @040   ----------------------------------------
 .byte   W96
@  #06 @041   ----------------------------------------
 .byte   W96
@  #06 @042   ----------------------------------------
 .byte   W96
@  #06 @043   ----------------------------------------
 .byte   W96
@  #06 @044   ----------------------------------------
 .byte   W96
@  #06 @045   ----------------------------------------
 .byte   W48
 .byte   GOTO
  .word Label_F7B856
 .byte   FINE

@**************** Track 7 (Midi-Chn.6) ****************@

song04_007:
@  #07 @000   ----------------------------------------
 .byte   KEYSH , song04_key+0
Label_01004D02:
 .byte   VOICE , 4
 .byte   VOL , 32*song04_mvl/mxv
 .byte   W96
@  #07 @001   ----------------------------------------
 .byte   W96
@  #07 @002   ----------------------------------------
Label_01004D08:
 .byte   N24 ,Ds2 ,v096
 .byte   N24 ,Gn2
 .byte   N24 ,As2
 .byte   N24 ,Cs3
 .byte   N24 ,Ds3
 .byte   W36
 .byte   N48 ,Ds2
 .byte   N48 ,Gn2
 .byte   N48 ,As2
 .byte   N48 ,Cs3
 .byte   N48 ,Ds3
 .byte   W60
 .byte   PEND 
@  #07 @003   ----------------------------------------
Label_01004D20:
 .byte   N24 ,Cs2 ,v096
 .byte   N24 ,Fn2
 .byte   N24 ,Gs2
 .byte   N24 ,Cn3
 .byte   N24 ,Cs3
 .byte   W36
 .byte   N48 ,Cs2
 .byte   N48 ,Fn2
 .byte   N48 ,Gs2
 .byte   N48 ,Cn3
 .byte   N48 ,Cs3
 .byte   W60
 .byte   PEND 
@  #07 @004   ----------------------------------------
 .byte   W96
@  #07 @005   ----------------------------------------
 .byte   W96
@  #07 @006   ----------------------------------------
 .byte   PATT
  .word Label_01004D08
@  #07 @007   ----------------------------------------
 .byte   PATT
  .word Label_01004D20
@  #07 @008   ----------------------------------------
 .byte   W96
@  #07 @009   ----------------------------------------
 .byte   W96
@  #07 @010   ----------------------------------------
 .byte   N24 ,Fn2 ,v096
 .byte   N24 ,Gs2
 .byte   N24 ,Cn3
 .byte   N24 ,Ds3
 .byte   N24 ,Fn3
 .byte   W36
 .byte   N48 ,Fn2
 .byte   N48 ,Gs2
 .byte   N48 ,Cn3
 .byte   N48 ,Ds3
 .byte   N48 ,Fn3
 .byte   W60
@  #07 @011   ----------------------------------------
 .byte   PATT
  .word Label_01004D08
@  #07 @012   ----------------------------------------
 .byte   W96
@  #07 @013   ----------------------------------------
 .byte   W96
@  #07 @014   ----------------------------------------
 .byte   PATT
  .word Label_01004D08
@  #07 @015   ----------------------------------------
 .byte   PATT
  .word Label_01004D20
@  #07 @016   ----------------------------------------
 .byte   W96
@  #07 @017   ----------------------------------------
 .byte   W96
@  #07 @018   ----------------------------------------
 .byte   W96
@  #07 @019   ----------------------------------------
 .byte   W96
@  #07 @020   ----------------------------------------
 .byte   W96
@  #07 @021   ----------------------------------------
 .byte   W96
@  #07 @022   ----------------------------------------
 .byte   W96
@  #07 @023   ----------------------------------------
 .byte   W96
@  #07 @024   ----------------------------------------
 .byte   N72 ,Gs2 ,v096
 .byte   N72 ,Cn3
 .byte   N72 ,Ds3
 .byte   N72 ,Fs3
 .byte   W72
 .byte   N24 ,Gs2
 .byte   N24 ,Cn3
 .byte   N24 ,Ds3
 .byte   N24 ,Fs3
 .byte   W24
@  #07 @025   ----------------------------------------
 .byte   W96
@  #07 @026   ----------------------------------------
 .byte   W96
@  #07 @027   ----------------------------------------
 .byte   W96
@  #07 @028   ----------------------------------------
 .byte   W96
@  #07 @029   ----------------------------------------
 .byte   W96
@  #07 @030   ----------------------------------------
 .byte   W96
@  #07 @031   ----------------------------------------
 .byte   W96
@  #07 @032   ----------------------------------------
 .byte   W96
@  #07 @033   ----------------------------------------
 .byte   W96
@  #07 @034   ----------------------------------------
 .byte   W96
@  #07 @035   ----------------------------------------
 .byte   W96
@  #07 @036   ----------------------------------------
 .byte   W96
@  #07 @037   ----------------------------------------
 .byte   W96
@  #07 @038   ----------------------------------------
 .byte   W96
@  #07 @039   ----------------------------------------
 .byte   W96
@  #07 @040   ----------------------------------------
 .byte   W96
@  #07 @041   ----------------------------------------
 .byte   W96
@  #07 @042   ----------------------------------------
 .byte   W96
@  #07 @043   ----------------------------------------
 .byte   W96
@  #07 @044   ----------------------------------------
 .byte   W96
@  #07 @045   ----------------------------------------
 .byte   W48
 .byte   GOTO
  .word Label_01004D02
 .byte   FINE

@**************** Track 8 (Midi-Chn.7) ****************@

song04_008:
@  #08 @000   ----------------------------------------
 .byte   KEYSH , song04_key+0
Label_01004DBA:
 .byte   VOICE , 124
 .byte   VOL , 29*song04_mvl/mxv
 .byte   N24 ,Fs1 ,v096
 .byte   W72
 .byte   N12 ,Dn1
 .byte   W12
 .byte   Bn1
 .byte   W12
@  #08 @001   ----------------------------------------
Label_01004DC7:
 .byte   N24 ,Fs1 ,v096
 .byte   W72
 .byte   N12 ,Dn1
 .byte   W12
 .byte   Bn1
 .byte   W12
 .byte   PEND 
@  #08 @002   ----------------------------------------
Label_01004DD1:
 .byte   N48 ,Cn1 ,v096
 .byte   N48 ,Ds2
 .byte   W48
 .byte   N24
 .byte   W24
 .byte   N24
 .byte   W24
 .byte   PEND 
@  #08 @003   ----------------------------------------
Label_01004DDC:
 .byte   N48 ,Dn1 ,v096
 .byte   N48 ,Ds2
 .byte   W48
 .byte   N24
 .byte   W24
 .byte   N24
 .byte   W24
 .byte   PEND 
@  #08 @004   ----------------------------------------
 .byte   PATT
  .word Label_01004DC7
@  #08 @005   ----------------------------------------
 .byte   PATT
  .word Label_01004DC7
@  #08 @006   ----------------------------------------
 .byte   PATT
  .word Label_01004DD1
@  #08 @007   ----------------------------------------
 .byte   PATT
  .word Label_01004DDC
@  #08 @008   ----------------------------------------
 .byte   PATT
  .word Label_01004DC7
@  #08 @009   ----------------------------------------
 .byte   PATT
  .word Label_01004DC7
@  #08 @010   ----------------------------------------
 .byte   PATT
  .word Label_01004DD1
@  #08 @011   ----------------------------------------
 .byte   PATT
  .word Label_01004DDC
@  #08 @012   ----------------------------------------
 .byte   PATT
  .word Label_01004DC7
@  #08 @013   ----------------------------------------
 .byte   PATT
  .word Label_01004DC7
@  #08 @014   ----------------------------------------
 .byte   PATT
  .word Label_01004DD1
@  #08 @015   ----------------------------------------
 .byte   PATT
  .word Label_01004DDC
@  #08 @016   ----------------------------------------
Label_01004E23:
 .byte   N12 ,Cn1 ,v096
 .byte   N12 ,Ds2
 .byte   W12
 .byte   N12
 .byte   W12
 .byte   N12
 .byte   W12
 .byte   N12
 .byte   W12
 .byte   Dn1
 .byte   N12 ,Ds2
 .byte   W12
 .byte   N12
 .byte   W12
 .byte   N12
 .byte   W12
 .byte   N12
 .byte   W12
 .byte   PEND 
@  #08 @017   ----------------------------------------
Label_01004E3A:
 .byte   N24 ,Cn1 ,v096
 .byte   N24 ,Dn1
 .byte   N24 ,Cs2
 .byte   W72
 .byte   Cn1
 .byte   N24 ,Dn1
 .byte   N24 ,Cs2
 .byte   W24
 .byte   PEND 
@  #08 @018   ----------------------------------------
 .byte   PATT
  .word Label_01004E23
@  #08 @019   ----------------------------------------
 .byte   PATT
  .word Label_01004E3A
@  #08 @020   ----------------------------------------
 .byte   PATT
  .word Label_01004E23
@  #08 @021   ----------------------------------------
 .byte   PATT
  .word Label_01004E3A
@  #08 @022   ----------------------------------------
Label_01004E5D:
 .byte   N18 ,Cn1 ,v096
 .byte   N18 ,Ds2
 .byte   W18
 .byte   N06
 .byte   W06
 .byte   N18
 .byte   W18
 .byte   N06
 .byte   W06
 .byte   N18 ,Dn1
 .byte   N18 ,Ds2
 .byte   W18
 .byte   N06
 .byte   W06
 .byte   N18
 .byte   W18
 .byte   N06
 .byte   W06
 .byte   PEND 
@  #08 @023   ----------------------------------------
 .byte   PATT
  .word Label_01004E5D
@  #08 @024   ----------------------------------------
 .byte   N24 ,Cn1 ,v096
 .byte   N24 ,Dn1
 .byte   N24 ,Cs2
 .byte   W72
 .byte   N12 ,Dn1
 .byte   W12
 .byte   Bn1
 .byte   W12
@  #08 @025   ----------------------------------------
 .byte   W96
@  #08 @026   ----------------------------------------
 .byte   PATT
  .word Label_01004DC7
@  #08 @027   ----------------------------------------
 .byte   PATT
  .word Label_01004DC7
@  #08 @028   ----------------------------------------
 .byte   PATT
  .word Label_01004DD1
@  #08 @029   ----------------------------------------
 .byte   PATT
  .word Label_01004DDC
@  #08 @030   ----------------------------------------
 .byte   PATT
  .word Label_01004DC7
@  #08 @031   ----------------------------------------
 .byte   PATT
  .word Label_01004DC7
@  #08 @032   ----------------------------------------
 .byte   PATT
  .word Label_01004DD1
@  #08 @033   ----------------------------------------
 .byte   PATT
  .word Label_01004DDC
@  #08 @034   ----------------------------------------
 .byte   PATT
  .word Label_01004DC7
@  #08 @035   ----------------------------------------
 .byte   PATT
  .word Label_01004DC7
@  #08 @036   ----------------------------------------
 .byte   PATT
  .word Label_01004DD1
@  #08 @037   ----------------------------------------
 .byte   PATT
  .word Label_01004DDC
@  #08 @038   ----------------------------------------
 .byte   PATT
  .word Label_01004DC7
@  #08 @039   ----------------------------------------
 .byte   N24 ,Fs1 ,v096
 .byte   W96
@  #08 @040   ----------------------------------------
Label_01004ECD:
 .byte   N16 ,Cs2 ,v096
 .byte   W16
 .byte   N16
 .byte   W16
 .byte   N16
 .byte   W16
 .byte   N16
 .byte   W16
 .byte   N16
 .byte   W16
 .byte   N16
 .byte   W16
 .byte   PEND 
@  #08 @041   ----------------------------------------
 .byte   PATT
  .word Label_01004ECD
@  #08 @042   ----------------------------------------
 .byte   N12 ,Cn1 ,v096
 .byte   W12
 .byte   N12
 .byte   W12
 .byte   Fn1
 .byte   W12
 .byte   Gn1
 .byte   W12
 .byte   An1
 .byte   W12
 .byte   Dn1
 .byte   W12
 .byte   Bn1
 .byte   W12
 .byte   Cn2
 .byte   W12
@  #08 @043   ----------------------------------------
 .byte   Dn1
 .byte   W12
 .byte   N06 ,An1
 .byte   W06
 .byte   Gn1
 .byte   W06
 .byte   N24 ,Cn1
 .byte   W24
 .byte   N48
 .byte   N48 ,Dn1
 .byte   W48
@  #08 @044   ----------------------------------------
 .byte   N96 ,Cn1
 .byte   N96 ,Dn1
 .byte   N96 ,Cs2
 .byte   W96
@  #08 @045   ----------------------------------------
 .byte   W48
 .byte   GOTO
  .word Label_01004DBA
 .byte   FINE

@******************************************************@
	.align	2

song04:
	.byte	8	@ NumTrks
	.byte	0	@ NumBlks
	.byte	song04_pri	@ Priority
	.byte	song04_rev	@ Reverb.
    
	.word	song04_grp
    
	.word	song04_001
	.word	song04_002
	.word	song04_003
	.word	song04_004
	.word	song04_005
	.word	song04_006
	.word	song04_007
	.word	song04_008

	.end
