	.include "MPlayDef.s"

	.equ	ZanzaTheDivine_grp, voicegroup000
	.equ	ZanzaTheDivine_pri, 0
	.equ	ZanzaTheDivine_rev, 0
	.equ	ZanzaTheDivine_mvl, 127
	.equ	ZanzaTheDivine_key, 0
	.equ	ZanzaTheDivine_tbs, 1
	.equ	ZanzaTheDivine_exg, 0
	.equ	ZanzaTheDivine_cmp, 1

	.section .rodata
	.global	ZanzaTheDivine
	.align	2


@**************** Track 1 (Midi-Chn.0) ****************@

ZanzaTheDivine_001:
@  #01 @000   ----------------------------------------
 .byte   KEYSH , ZanzaTheDivine_key+0
 .byte   TEMPO , 70*ZanzaTheDivine_tbs/2
 .byte   VOICE , 48
 .byte   VOL , 27*ZanzaTheDivine_mvl/mxv
 .byte   PAN , c_v+0
 .byte   VOL , 27*ZanzaTheDivine_mvl/mxv
 .byte   PAN , c_v+0
 .byte   W96
@  #01 @001   ----------------------------------------
 .byte   W96
@  #01 @002   ----------------------------------------
 .byte   W96
@  #01 @003   ----------------------------------------
 .byte   W96
@  #01 @004   ----------------------------------------
 .byte   W96
@  #01 @005   ----------------------------------------
 .byte   W96
@  #01 @006   ----------------------------------------
 .byte   W96
@  #01 @007   ----------------------------------------
Label_01542AA5:
 .byte   W96
@  #01 @008   ----------------------------------------
 .byte   TEMPO , 100*ZanzaTheDivine_tbs/2
 .byte   W96
@  #01 @009   ----------------------------------------
 .byte   W96
@  #01 @010   ----------------------------------------
 .byte   W96
@  #01 @011   ----------------------------------------
 .byte   W96
@  #01 @012   ----------------------------------------
 .byte   W96
@  #01 @013   ----------------------------------------
 .byte   W96
@  #01 @014   ----------------------------------------
 .byte   W96
@  #01 @015   ----------------------------------------
 .byte   W96
@  #01 @016   ----------------------------------------
 .byte   W96
@  #01 @017   ----------------------------------------
 .byte   W96
@  #01 @018   ----------------------------------------
 .byte   W96
@  #01 @019   ----------------------------------------
 .byte   W96
@  #01 @020   ----------------------------------------
 .byte   W96
@  #01 @021   ----------------------------------------
 .byte   W96
@  #01 @022   ----------------------------------------
 .byte   W96
@  #01 @023   ----------------------------------------
 .byte   W96
@  #01 @024   ----------------------------------------
 .byte   W96
@  #01 @025   ----------------------------------------
 .byte   W96
@  #01 @026   ----------------------------------------
 .byte   N23 ,En3 ,v112
 .byte   W24
 .byte   Bn3
 .byte   W24
 .byte   An3
 .byte   W24
 .byte   N11 ,Dn4
 .byte   W12
 .byte   En4
 .byte   W12
@  #01 @027   ----------------------------------------
 .byte   N23 ,Bn3
 .byte   W24
 .byte   Gn4
 .byte   W24
 .byte   Fn4
 .byte   W24
 .byte   Dn4
 .byte   W24
@  #01 @028   ----------------------------------------
 .byte   N11 ,En4
 .byte   W12
 .byte   N05 ,Bn3
 .byte   W06
 .byte   N17 ,An3
 .byte   W18
 .byte   N11 ,Bn3
 .byte   W12
 .byte   N17 ,Gn3
 .byte   W18
 .byte   An3
 .byte   W18
 .byte   N11 ,Bn3
 .byte   W12
@  #01 @029   ----------------------------------------
 .byte   N44 ,Gn3
 .byte   W48
 .byte   N17 ,Gn4
 .byte   W18
 .byte   Fn4
 .byte   W18
 .byte   N11 ,Dn4
 .byte   W12
@  #01 @030   ----------------------------------------
 .byte   N17 ,En4
 .byte   W18
 .byte   Dn5
 .byte   W18
 .byte   N11 ,En5
 .byte   W12
 .byte   N23 ,Bn4
 .byte   W24
 .byte   N11 ,An4
 .byte   W12
 .byte   Bn4
 .byte   W12
@  #01 @031   ----------------------------------------
 .byte   N17 ,Gn4
 .byte   W18
 .byte   An4
 .byte   W18
 .byte   N11 ,Bn4
 .byte   W12
 .byte   N23 ,Gn5
 .byte   W24
 .byte   N11 ,Fn5
 .byte   W12
 .byte   Dn5
 .byte   W12
@  #01 @032   ----------------------------------------
 .byte   N44 ,En5
 .byte   W48
 .byte   N17 ,Dn5
 .byte   W18
 .byte   En5
 .byte   W18
 .byte   N11 ,Fn5
 .byte   W12
@  #01 @033   ----------------------------------------
 .byte   N92 ,En5
 .byte   W96
@  #01 @034   ----------------------------------------
 .byte   W96
@  #01 @035   ----------------------------------------
 .byte   W96
@  #01 @036   ----------------------------------------
 .byte   W96
@  #01 @037   ----------------------------------------
 .byte   W96
@  #01 @038   ----------------------------------------
 .byte   W96
@  #01 @039   ----------------------------------------
 .byte   W96
@  #01 @040   ----------------------------------------
 .byte   W96
@  #01 @041   ----------------------------------------
 .byte   W96
@  #01 @042   ----------------------------------------
 .byte   W96
@  #01 @043   ----------------------------------------
 .byte   W96
@  #01 @044   ----------------------------------------
 .byte   W96
@  #01 @045   ----------------------------------------
 .byte   W96
@  #01 @046   ----------------------------------------
 .byte   W96
@  #01 @047   ----------------------------------------
 .byte   W96
@  #01 @048   ----------------------------------------
 .byte   W96
@  #01 @049   ----------------------------------------
 .byte   W96
@  #01 @050   ----------------------------------------
 .byte   W96
@  #01 @051   ----------------------------------------
 .byte   W96
@  #01 @052   ----------------------------------------
 .byte   W96
@  #01 @053   ----------------------------------------
 .byte   W96
@  #01 @054   ----------------------------------------
 .byte   W96
@  #01 @055   ----------------------------------------
 .byte   W96
@  #01 @056   ----------------------------------------
 .byte   W96
@  #01 @057   ----------------------------------------
 .byte   GOTO
  .word Label_01542AA5
@  #01 @058   ----------------------------------------
 .byte   W92
 .byte   W03
 .byte   FINE

@**************** Track 2 (Midi-Chn.1) ****************@

ZanzaTheDivine_002:
@  #02 @000   ----------------------------------------
 .byte   KEYSH , ZanzaTheDivine_key+0
 .byte   VOICE , 48
 .byte   VOL , 27*ZanzaTheDivine_mvl/mxv
 .byte   PAN , c_v+0
 .byte   VOL , 27*ZanzaTheDivine_mvl/mxv
 .byte   PAN , c_v+0
 .byte   W96
@  #02 @001   ----------------------------------------
 .byte   W96
@  #02 @002   ----------------------------------------
 .byte   W96
@  #02 @003   ----------------------------------------
 .byte   W96
@  #02 @004   ----------------------------------------
 .byte   W96
@  #02 @005   ----------------------------------------
 .byte   W96
@  #02 @006   ----------------------------------------
 .byte   W96
@  #02 @007   ----------------------------------------
Label_015427DF:
 .byte   W96
@  #02 @008   ----------------------------------------
 .byte   W96
@  #02 @009   ----------------------------------------
 .byte   W96
@  #02 @010   ----------------------------------------
 .byte   W96
@  #02 @011   ----------------------------------------
 .byte   W96
@  #02 @012   ----------------------------------------
 .byte   W96
@  #02 @013   ----------------------------------------
 .byte   W96
@  #02 @014   ----------------------------------------
 .byte   W96
@  #02 @015   ----------------------------------------
 .byte   W96
@  #02 @016   ----------------------------------------
 .byte   W96
@  #02 @017   ----------------------------------------
 .byte   W96
@  #02 @018   ----------------------------------------
 .byte   W96
@  #02 @019   ----------------------------------------
 .byte   W96
@  #02 @020   ----------------------------------------
 .byte   W96
@  #02 @021   ----------------------------------------
 .byte   W96
@  #02 @022   ----------------------------------------
 .byte   W96
@  #02 @023   ----------------------------------------
 .byte   W96
@  #02 @024   ----------------------------------------
 .byte   W96
@  #02 @025   ----------------------------------------
 .byte   W96
@  #02 @026   ----------------------------------------
Label_015427F2:
 .byte   N23 ,Bn3 ,v112
 .byte   W24
 .byte   N23
 .byte   W24
 .byte   An3
 .byte   W24
 .byte   N23
 .byte   W24
 .byte   PEND 
@  #02 @027   ----------------------------------------
Label_015427FD:
 .byte   N23 ,Gn4 ,v112
 .byte   W24
 .byte   N23
 .byte   W24
 .byte   Fn4
 .byte   W24
 .byte   N23
 .byte   W24
 .byte   PEND 
@  #02 @028   ----------------------------------------
Label_01542808:
 .byte   N23 ,Bn3 ,v112
 .byte   W24
 .byte   N23
 .byte   W24
 .byte   Cn4
 .byte   W24
 .byte   N23
 .byte   W24
 .byte   PEND 
@  #02 @029   ----------------------------------------
 .byte   PATT
  .word Label_015427F2
@  #02 @030   ----------------------------------------
 .byte   PATT
  .word Label_015427F2
@  #02 @031   ----------------------------------------
 .byte   PATT
  .word Label_015427FD
@  #02 @032   ----------------------------------------
 .byte   PATT
  .word Label_01542808
@  #02 @033   ----------------------------------------
 .byte   PATT
  .word Label_015427F2
@  #02 @034   ----------------------------------------
Label_0154282C:
 .byte   N11 ,En4 ,v080
 .byte   W12
 .byte   N05 ,Dn4
 .byte   W06
 .byte   En4
 .byte   W06
 .byte   Fn4
 .byte   W06
 .byte   Gn4
 .byte   W06
 .byte   Fn4
 .byte   W06
 .byte   Dn4
 .byte   W06
 .byte   N11 ,En4
 .byte   W12
 .byte   N05 ,Dn4
 .byte   W06
 .byte   En4
 .byte   W06
 .byte   Fn4
 .byte   W06
 .byte   Gn4
 .byte   W06
 .byte   Fn4
 .byte   W06
 .byte   Dn4
 .byte   W06
 .byte   PEND 
@  #02 @035   ----------------------------------------
Label_0154284E:
 .byte   N05 ,En4 ,v080
 .byte   W06
 .byte   Dn4
 .byte   W06
 .byte   En4
 .byte   W06
 .byte   Fn4
 .byte   W06
 .byte   Gn4
 .byte   W06
 .byte   An4
 .byte   W06
 .byte   Bn4
 .byte   W06
 .byte   An4
 .byte   W06
 .byte   Gn4
 .byte   W06
 .byte   An4
 .byte   W06
 .byte   Gn4
 .byte   W06
 .byte   Fn4
 .byte   W06
 .byte   En4
 .byte   W06
 .byte   Dn4
 .byte   W06
 .byte   Cn4
 .byte   W06
 .byte   Dn4
 .byte   W06
 .byte   PEND 
@  #02 @036   ----------------------------------------
 .byte   PATT
  .word Label_0154282C
@  #02 @037   ----------------------------------------
 .byte   PATT
  .word Label_0154284E
@  #02 @038   ----------------------------------------
 .byte   PATT
  .word Label_0154282C
@  #02 @039   ----------------------------------------
 .byte   PATT
  .word Label_0154284E
@  #02 @040   ----------------------------------------
 .byte   PATT
  .word Label_0154282C
@  #02 @041   ----------------------------------------
 .byte   N05 ,En4 ,v080
 .byte   W06
 .byte   Dn4
 .byte   W06
 .byte   En4
 .byte   W06
 .byte   Fn4
 .byte   W06
 .byte   Gn4
 .byte   W06
 .byte   An4
 .byte   W06
 .byte   Bn4
 .byte   W06
 .byte   An4
 .byte   W06
 .byte   N44 ,Dn4
 .byte   W48
@  #02 @042   ----------------------------------------
 .byte   W96
@  #02 @043   ----------------------------------------
 .byte   W96
@  #02 @044   ----------------------------------------
 .byte   W96
@  #02 @045   ----------------------------------------
 .byte   W96
@  #02 @046   ----------------------------------------
 .byte   W96
@  #02 @047   ----------------------------------------
 .byte   W96
@  #02 @048   ----------------------------------------
 .byte   W96
@  #02 @049   ----------------------------------------
 .byte   W96
@  #02 @050   ----------------------------------------
 .byte   W96
@  #02 @051   ----------------------------------------
 .byte   W96
@  #02 @052   ----------------------------------------
 .byte   W96
@  #02 @053   ----------------------------------------
 .byte   W96
@  #02 @054   ----------------------------------------
 .byte   W96
@  #02 @055   ----------------------------------------
 .byte   W96
@  #02 @056   ----------------------------------------
 .byte   W96
@  #02 @057   ----------------------------------------
 .byte   GOTO
  .word Label_015427DF
@  #02 @058   ----------------------------------------
 .byte   W92
 .byte   W03
 .byte   FINE

@**************** Track 3 (Midi-Chn.2) ****************@

ZanzaTheDivine_003:
@  #03 @000   ----------------------------------------
 .byte   KEYSH , ZanzaTheDivine_key+0
 .byte   VOICE , 52
 .byte   VOL , 39*ZanzaTheDivine_mvl/mxv
 .byte   PAN , c_v+0
 .byte   N44 ,Bn3 ,v080
 .byte   W48
 .byte   N23 ,An3
 .byte   W24
 .byte   Bn3
 .byte   W24
@  #03 @001   ----------------------------------------
 .byte   Gn3
 .byte   W24
 .byte   An3
 .byte   W24
 .byte   N44 ,Bn3
 .byte   W48
@  #03 @002   ----------------------------------------
 .byte   Dn4
 .byte   W48
 .byte   Bn3
 .byte   W48
@  #03 @003   ----------------------------------------
 .byte   N23 ,Gn3
 .byte   W24
 .byte   An3
 .byte   W24
 .byte   Bn3
 .byte   W48
@  #03 @004   ----------------------------------------
 .byte   N44
 .byte   W48
 .byte   N23 ,An3
 .byte   W24
 .byte   Bn3
 .byte   W24
@  #03 @005   ----------------------------------------
 .byte   Dn4
 .byte   W24
 .byte   En4
 .byte   W24
 .byte   N44 ,Bn3
 .byte   W48
@  #03 @006   ----------------------------------------
 .byte   Gn3
 .byte   W48
 .byte   Fn3
 .byte   W48
@  #03 @007   ----------------------------------------
Label_013FCD79:
 .byte   N92 ,En3 ,v080
 .byte   W96
@  #03 @008   ----------------------------------------
 .byte   W96
@  #03 @009   ----------------------------------------
 .byte   W96
@  #03 @010   ----------------------------------------
 .byte   W96
@  #03 @011   ----------------------------------------
 .byte   W96
@  #03 @012   ----------------------------------------
 .byte   W96
@  #03 @013   ----------------------------------------
 .byte   W96
@  #03 @014   ----------------------------------------
 .byte   W96
@  #03 @015   ----------------------------------------
 .byte   W96
@  #03 @016   ----------------------------------------
Label_013FCD85:
 .byte   N23 ,En3 ,v112
 .byte   W24
 .byte   Bn3
 .byte   W24
 .byte   An3
 .byte   W24
 .byte   N11 ,Gn3
 .byte   W12
 .byte   Fn3
 .byte   W12
 .byte   PEND 
@  #03 @017   ----------------------------------------
 .byte   N23 ,En3
 .byte   W24
 .byte   N11 ,Dn3
 .byte   W12
 .byte   En3
 .byte   W12
 .byte   N23 ,Fn3
 .byte   W24
 .byte   N11 ,Gn3
 .byte   W12
 .byte   Fn3
 .byte   W12
@  #03 @018   ----------------------------------------
 .byte   PATT
  .word Label_013FCD85
@  #03 @019   ----------------------------------------
 .byte   N44 ,En3 ,v112
 .byte   W48
 .byte   N44
 .byte   W48
@  #03 @020   ----------------------------------------
 .byte   N23
 .byte   W24
 .byte   Bn3
 .byte   W24
 .byte   An3
 .byte   W24
 .byte   N11 ,Dn4
 .byte   W12
 .byte   En4
 .byte   W12
@  #03 @021   ----------------------------------------
 .byte   N23 ,Bn3
 .byte   W24
 .byte   N11 ,An3
 .byte   W12
 .byte   Bn3
 .byte   W12
 .byte   N23 ,Gn3
 .byte   W24
 .byte   N11 ,Fn3
 .byte   W12
 .byte   Dn3
 .byte   W12
@  #03 @022   ----------------------------------------
 .byte   PATT
  .word Label_013FCD85
@  #03 @023   ----------------------------------------
 .byte   N44 ,En3 ,v112
 .byte   W48
 .byte   N44
 .byte   W48
@  #03 @024   ----------------------------------------
 .byte   W96
@  #03 @025   ----------------------------------------
 .byte   W96
@  #03 @026   ----------------------------------------
Label_013FCDD6:
 .byte   N11 ,En4 ,v080
 .byte   W24
 .byte   N11
 .byte   W24
 .byte   Fn4
 .byte   W24
 .byte   N11
 .byte   W24
 .byte   PEND 
@  #03 @027   ----------------------------------------
 .byte   Gn4
 .byte   W24
 .byte   N11
 .byte   W24
 .byte   Fn4
 .byte   W24
 .byte   Dn4
 .byte   W24
@  #03 @028   ----------------------------------------
 .byte   PATT
  .word Label_013FCDD6
@  #03 @029   ----------------------------------------
 .byte   N11 ,En4 ,v080
 .byte   W24
 .byte   N11
 .byte   W24
 .byte   Dn4
 .byte   W24
 .byte   N11
 .byte   W24
@  #03 @030   ----------------------------------------
Label_013FCDF8:
 .byte   N11 ,En4 ,v064
 .byte   W24
 .byte   N11
 .byte   W24
 .byte   Fn4
 .byte   W24
 .byte   N11
 .byte   W24
 .byte   PEND 
@  #03 @031   ----------------------------------------
 .byte   Gn4
 .byte   W24
 .byte   N11
 .byte   W24
 .byte   Fn4
 .byte   W24
 .byte   Dn4
 .byte   W24
@  #03 @032   ----------------------------------------
 .byte   En4
 .byte   W24
 .byte   N11
 .byte   W24
 .byte   Dn4
 .byte   W24
 .byte   N11
 .byte   W24
@  #03 @033   ----------------------------------------
 .byte   PATT
  .word Label_013FCDF8
@  #03 @034   ----------------------------------------
 .byte   N23 ,En3 ,v096
 .byte   W24
 .byte   Bn4
 .byte   W24
 .byte   An4
 .byte   W24
 .byte   N11 ,Gn4
 .byte   W12
 .byte   Fn4
 .byte   W12
@  #03 @035   ----------------------------------------
 .byte   N23 ,En4
 .byte   W24
 .byte   N11 ,Dn4
 .byte   W12
 .byte   En4
 .byte   W12
 .byte   N23 ,Fn4
 .byte   W24
 .byte   N11 ,Gn4
 .byte   W12
 .byte   Fn4
 .byte   W12
@  #03 @036   ----------------------------------------
Label_013FCE35:
 .byte   N23 ,En4 ,v096
 .byte   W24
 .byte   Bn4
 .byte   W24
 .byte   An4
 .byte   W24
 .byte   N11 ,Gn4
 .byte   W12
 .byte   Fn4
 .byte   W12
 .byte   PEND 
@  #03 @037   ----------------------------------------
Label_013FCE43:
 .byte   N44 ,En4 ,v096
 .byte   W48
 .byte   Dn4
 .byte   W48
 .byte   PEND 
@  #03 @038   ----------------------------------------
 .byte   N23 ,En4
 .byte   W24
 .byte   Bn4
 .byte   W24
 .byte   An4
 .byte   W24
 .byte   N11 ,Dn5
 .byte   W12
 .byte   En5
 .byte   W12
@  #03 @039   ----------------------------------------
 .byte   N23 ,Bn4
 .byte   W24
 .byte   N11 ,An4
 .byte   W12
 .byte   Bn4
 .byte   W12
 .byte   N23 ,Gn4
 .byte   W24
 .byte   N11 ,Fn4
 .byte   W12
 .byte   Dn4
 .byte   W12
@  #03 @040   ----------------------------------------
 .byte   PATT
  .word Label_013FCE35
@  #03 @041   ----------------------------------------
 .byte   PATT
  .word Label_013FCE43
@  #03 @042   ----------------------------------------
 .byte   W24
 .byte   N23 ,En4 ,v096
 .byte   W24
 .byte   N44 ,Dn4
 .byte   W48
@  #03 @043   ----------------------------------------
Label_013FCE78:
 .byte   N23 ,Gn3 ,v096
 .byte   W24
 .byte   An3
 .byte   W24
 .byte   N44 ,Bn3
 .byte   W48
 .byte   PEND 
@  #03 @044   ----------------------------------------
Label_013FCE82:
 .byte   N44 ,Cn4 ,v096
 .byte   W48
 .byte   An3
 .byte   W48
 .byte   PEND 
@  #03 @045   ----------------------------------------
 .byte   N92 ,Bn3
 .byte   W96
@  #03 @046   ----------------------------------------
Label_013FCE8C:
 .byte   N44 ,An4 ,v096
 .byte   W48
 .byte   Cn5
 .byte   W48
 .byte   PEND 
@  #03 @047   ----------------------------------------
Label_013FCE93:
 .byte   N44 ,Bn4 ,v096
 .byte   W48
 .byte   En4
 .byte   W48
 .byte   PEND 
@  #03 @048   ----------------------------------------
Label_013FCE9A:
 .byte   N44 ,Gn4 ,v096
 .byte   W48
 .byte   Fn4
 .byte   W48
 .byte   PEND 
@  #03 @049   ----------------------------------------
 .byte   N92 ,En4
 .byte   W96
@  #03 @050   ----------------------------------------
 .byte   PATT
  .word Label_013FCE43
@  #03 @051   ----------------------------------------
 .byte   PATT
  .word Label_013FCE78
@  #03 @052   ----------------------------------------
 .byte   PATT
  .word Label_013FCE82
@  #03 @053   ----------------------------------------
 .byte   N92 ,Bn3 ,v096
 .byte   W96
@  #03 @054   ----------------------------------------
 .byte   PATT
  .word Label_013FCE8C
@  #03 @055   ----------------------------------------
 .byte   PATT
  .word Label_013FCE93
@  #03 @056   ----------------------------------------
 .byte   PATT
  .word Label_013FCE9A
@  #03 @057   ----------------------------------------
 .byte   GOTO
  .word Label_013FCD79
@  #03 @058   ----------------------------------------
 .byte   N92 ,En4 ,v096
 .byte   W92
 .byte   W03
 .byte   FINE

@**************** Track 4 (Midi-Chn.3) ****************@

ZanzaTheDivine_004:
@  #04 @000   ----------------------------------------
 .byte   KEYSH , ZanzaTheDivine_key+0
 .byte   VOICE , 52
 .byte   VOL , 39*ZanzaTheDivine_mvl/mxv
 .byte   PAN , c_v+0
 .byte   W96
@  #04 @001   ----------------------------------------
 .byte   W96
@  #04 @002   ----------------------------------------
 .byte   W96
@  #04 @003   ----------------------------------------
 .byte   W96
@  #04 @004   ----------------------------------------
 .byte   N44 ,En3 ,v064
 .byte   W48
 .byte   N23 ,Dn3
 .byte   W24
 .byte   En3
 .byte   W24
@  #04 @005   ----------------------------------------
 .byte   Gn3
 .byte   W24
 .byte   An3
 .byte   W24
 .byte   N44 ,En3
 .byte   W48
@  #04 @006   ----------------------------------------
 .byte   Dn3
 .byte   W48
 .byte   Bn2
 .byte   W48
@  #04 @007   ----------------------------------------
Label_013FCF04:
 .byte   N92 ,Gn2 ,v064
 .byte   W96
@  #04 @008   ----------------------------------------
 .byte   W96
@  #04 @009   ----------------------------------------
 .byte   W96
@  #04 @010   ----------------------------------------
 .byte   W96
@  #04 @011   ----------------------------------------
 .byte   W96
@  #04 @012   ----------------------------------------
 .byte   W96
@  #04 @013   ----------------------------------------
 .byte   W96
@  #04 @014   ----------------------------------------
 .byte   W96
@  #04 @015   ----------------------------------------
 .byte   W96
@  #04 @016   ----------------------------------------
Label_013FCF10:
 .byte   N23 ,Bn2 ,v112
 .byte   W24
 .byte   En3
 .byte   W24
 .byte   N44 ,Cn3
 .byte   W48
 .byte   PEND 
@  #04 @017   ----------------------------------------
 .byte   N23 ,Bn2
 .byte   W24
 .byte   N11 ,An2
 .byte   W12
 .byte   Bn2
 .byte   W12
 .byte   N23 ,Cn3
 .byte   W24
 .byte   N11 ,Dn3
 .byte   W12
 .byte   Cn3
 .byte   W12
@  #04 @018   ----------------------------------------
 .byte   PATT
  .word Label_013FCF10
@  #04 @019   ----------------------------------------
Label_013FCF2F:
 .byte   N44 ,Gn2 ,v112
 .byte   W48
 .byte   Fs2
 .byte   W48
 .byte   PEND 
@  #04 @020   ----------------------------------------
 .byte   PATT
  .word Label_013FCF10
@  #04 @021   ----------------------------------------
 .byte   N23 ,En3 ,v112
 .byte   W24
 .byte   N11 ,Dn3
 .byte   W12
 .byte   En3
 .byte   W12
 .byte   N23 ,Cn3
 .byte   W24
 .byte   N11
 .byte   W12
 .byte   An2
 .byte   W12
@  #04 @022   ----------------------------------------
 .byte   PATT
  .word Label_013FCF10
@  #04 @023   ----------------------------------------
 .byte   PATT
  .word Label_013FCF2F
@  #04 @024   ----------------------------------------
 .byte   W96
@  #04 @025   ----------------------------------------
 .byte   W96
@  #04 @026   ----------------------------------------
Label_013FCF57:
 .byte   N11 ,En3 ,v080
 .byte   W24
 .byte   N11
 .byte   W24
 .byte   Fn3
 .byte   W24
 .byte   N11
 .byte   W24
 .byte   PEND 
@  #04 @027   ----------------------------------------
Label_013FCF62:
 .byte   N11 ,Gn3 ,v080
 .byte   W24
 .byte   N11
 .byte   W24
 .byte   Fn3
 .byte   W24
 .byte   Dn3
 .byte   W24
 .byte   PEND 
@  #04 @028   ----------------------------------------
 .byte   PATT
  .word Label_013FCF57
@  #04 @029   ----------------------------------------
Label_013FCF72:
 .byte   N11 ,En3 ,v080
 .byte   W24
 .byte   N11
 .byte   W24
 .byte   Dn3
 .byte   W24
 .byte   N11
 .byte   W24
 .byte   PEND 
@  #04 @030   ----------------------------------------
 .byte   PATT
  .word Label_013FCF57
@  #04 @031   ----------------------------------------
 .byte   PATT
  .word Label_013FCF62
@  #04 @032   ----------------------------------------
 .byte   PATT
  .word Label_013FCF72
@  #04 @033   ----------------------------------------
 .byte   PATT
  .word Label_013FCF57
@  #04 @034   ----------------------------------------
Label_013FCF91:
 .byte   N23 ,En3 ,v096
 .byte   W24
 .byte   Bn3
 .byte   W24
 .byte   An3
 .byte   W24
 .byte   N11 ,Gn3
 .byte   W12
 .byte   Fn3
 .byte   W12
 .byte   PEND 
@  #04 @035   ----------------------------------------
 .byte   N23 ,En3
 .byte   W24
 .byte   N11 ,Dn3
 .byte   W12
 .byte   En3
 .byte   W12
 .byte   N23 ,Fn3
 .byte   W24
 .byte   N11 ,Gn3
 .byte   W12
 .byte   Fn3
 .byte   W12
@  #04 @036   ----------------------------------------
 .byte   PATT
  .word Label_013FCF91
@  #04 @037   ----------------------------------------
 .byte   N44 ,En3 ,v096
 .byte   W48
 .byte   Dn3
 .byte   W48
@  #04 @038   ----------------------------------------
 .byte   N23 ,En3
 .byte   W24
 .byte   Bn3
 .byte   W24
 .byte   An3
 .byte   W24
 .byte   N11 ,Dn4
 .byte   W12
 .byte   En4
 .byte   W12
@  #04 @039   ----------------------------------------
 .byte   N23 ,Bn3
 .byte   W24
 .byte   N11 ,An3
 .byte   W12
 .byte   Bn3
 .byte   W12
 .byte   N23 ,Gn3
 .byte   W24
 .byte   N11 ,Fn3
 .byte   W12
 .byte   Dn3
 .byte   W12
@  #04 @040   ----------------------------------------
 .byte   PATT
  .word Label_013FCF91
@  #04 @041   ----------------------------------------
 .byte   N44 ,En3 ,v096
 .byte   W48
 .byte   Dn3
 .byte   W48
@  #04 @042   ----------------------------------------
 .byte   W96
@  #04 @043   ----------------------------------------
Label_013FCFE2:
 .byte   N23 ,Bn2 ,v096
 .byte   W24
 .byte   An2
 .byte   W24
 .byte   N44 ,Bn2
 .byte   W48
 .byte   PEND 
@  #04 @044   ----------------------------------------
Label_013FCFEC:
 .byte   N44 ,Cn3 ,v096
 .byte   W48
 .byte   An2
 .byte   W48
 .byte   PEND 
@  #04 @045   ----------------------------------------
 .byte   N92 ,Bn2
 .byte   W96
@  #04 @046   ----------------------------------------
Label_013FCFF6:
 .byte   N44 ,An3 ,v096
 .byte   W48
 .byte   Cn4
 .byte   W48
 .byte   PEND 
@  #04 @047   ----------------------------------------
Label_013FCFFD:
 .byte   N44 ,Bn3 ,v096
 .byte   W48
 .byte   En3
 .byte   W48
 .byte   PEND 
@  #04 @048   ----------------------------------------
Label_013FD004:
 .byte   N44 ,Gn3 ,v096
 .byte   W48
 .byte   Fn3
 .byte   W48
 .byte   PEND 
@  #04 @049   ----------------------------------------
 .byte   N92 ,En3
 .byte   W96
@  #04 @050   ----------------------------------------
 .byte   N44
 .byte   W48
 .byte   Dn3
 .byte   W48
@  #04 @051   ----------------------------------------
 .byte   PATT
  .word Label_013FCFE2
@  #04 @052   ----------------------------------------
 .byte   PATT
  .word Label_013FCFEC
@  #04 @053   ----------------------------------------
 .byte   N92 ,Bn2 ,v096
 .byte   W96
@  #04 @054   ----------------------------------------
 .byte   PATT
  .word Label_013FCFF6
@  #04 @055   ----------------------------------------
 .byte   PATT
  .word Label_013FCFFD
@  #04 @056   ----------------------------------------
 .byte   PATT
  .word Label_013FD004
@  #04 @057   ----------------------------------------
 .byte   GOTO
  .word Label_013FCF04
@  #04 @058   ----------------------------------------
 .byte   N92 ,En3 ,v096
 .byte   W92
 .byte   W03
 .byte   FINE

@**************** Track 5 (Midi-Chn.4) ****************@

ZanzaTheDivine_005:
@  #05 @000   ----------------------------------------
 .byte   KEYSH , ZanzaTheDivine_key+0
 .byte   VOICE , 30
 .byte   VOL , 39*ZanzaTheDivine_mvl/mxv
 .byte   PAN , c_v+0
 .byte   W96
@  #05 @001   ----------------------------------------
 .byte   W96
@  #05 @002   ----------------------------------------
 .byte   W96
@  #05 @003   ----------------------------------------
 .byte   W96
@  #05 @004   ----------------------------------------
 .byte   W96
@  #05 @005   ----------------------------------------
 .byte   W96
@  #05 @006   ----------------------------------------
 .byte   W96
@  #05 @007   ----------------------------------------
Label_01542C47:
 .byte   W72
 .byte   N23 ,En2 ,v080
 .byte   W24
@  #05 @008   ----------------------------------------
Label_01542C4C:
 .byte   N08 ,En2 ,v096
 .byte   W18
 .byte   N08
 .byte   W18
 .byte   N11
 .byte   W24
 .byte   N17 ,Fn2
 .byte   W18
 .byte   N17
 .byte   W18
 .byte   PEND 
@  #05 @009   ----------------------------------------
Label_01542C5A:
 .byte   N08 ,En2 ,v096
 .byte   W18
 .byte   N08
 .byte   W18
 .byte   N11
 .byte   W24
 .byte   N17 ,Dn3
 .byte   W18
 .byte   N17
 .byte   W18
 .byte   PEND 
@  #05 @010   ----------------------------------------
 .byte   PATT
  .word Label_01542C4C
@  #05 @011   ----------------------------------------
 .byte   N08 ,En2 ,v112
 .byte   W18
 .byte   N08
 .byte   W18
 .byte   N11
 .byte   W24
 .byte   N17 ,Dn3
 .byte   W18
 .byte   N17
 .byte   W18
@  #05 @012   ----------------------------------------
 .byte   PATT
  .word Label_01542C4C
@  #05 @013   ----------------------------------------
 .byte   PATT
  .word Label_01542C5A
@  #05 @014   ----------------------------------------
 .byte   PATT
  .word Label_01542C4C
@  #05 @015   ----------------------------------------
 .byte   PATT
  .word Label_01542C5A
@  #05 @016   ----------------------------------------
 .byte   PATT
  .word Label_01542C4C
@  #05 @017   ----------------------------------------
 .byte   PATT
  .word Label_01542C5A
@  #05 @018   ----------------------------------------
 .byte   PATT
  .word Label_01542C4C
@  #05 @019   ----------------------------------------
 .byte   PATT
  .word Label_01542C5A
@  #05 @020   ----------------------------------------
 .byte   PATT
  .word Label_01542C4C
@  #05 @021   ----------------------------------------
 .byte   PATT
  .word Label_01542C5A
@  #05 @022   ----------------------------------------
 .byte   PATT
  .word Label_01542C4C
@  #05 @023   ----------------------------------------
 .byte   PATT
  .word Label_01542C5A
@  #05 @024   ----------------------------------------
 .byte   TIE ,En2 ,v096
 .byte   W96
@  #05 @025   ----------------------------------------
 .byte   W44
 .byte   W03
 .byte   EOT
 .byte   W48
 .byte   W01
@  #05 @026   ----------------------------------------
 .byte   PATT
  .word Label_01542C4C
@  #05 @027   ----------------------------------------
 .byte   PATT
  .word Label_01542C5A
@  #05 @028   ----------------------------------------
 .byte   PATT
  .word Label_01542C4C
@  #05 @029   ----------------------------------------
 .byte   PATT
  .word Label_01542C5A
@  #05 @030   ----------------------------------------
 .byte   PATT
  .word Label_01542C4C
@  #05 @031   ----------------------------------------
 .byte   PATT
  .word Label_01542C5A
@  #05 @032   ----------------------------------------
 .byte   PATT
  .word Label_01542C4C
@  #05 @033   ----------------------------------------
 .byte   N08 ,En2 ,v096
 .byte   W18
 .byte   N08
 .byte   W18
 .byte   N11
 .byte   W24
 .byte   N17
 .byte   W18
 .byte   N17
 .byte   W18
@  #05 @034   ----------------------------------------
 .byte   PATT
  .word Label_01542C4C
@  #05 @035   ----------------------------------------
 .byte   PATT
  .word Label_01542C5A
@  #05 @036   ----------------------------------------
 .byte   PATT
  .word Label_01542C4C
@  #05 @037   ----------------------------------------
 .byte   PATT
  .word Label_01542C5A
@  #05 @038   ----------------------------------------
 .byte   PATT
  .word Label_01542C4C
@  #05 @039   ----------------------------------------
 .byte   PATT
  .word Label_01542C5A
@  #05 @040   ----------------------------------------
 .byte   PATT
  .word Label_01542C4C
@  #05 @041   ----------------------------------------
 .byte   PATT
  .word Label_01542C5A
@  #05 @042   ----------------------------------------
 .byte   W96
@  #05 @043   ----------------------------------------
 .byte   W96
@  #05 @044   ----------------------------------------
 .byte   W96
@  #05 @045   ----------------------------------------
 .byte   W96
@  #05 @046   ----------------------------------------
 .byte   W96
@  #05 @047   ----------------------------------------
 .byte   W96
@  #05 @048   ----------------------------------------
 .byte   W96
@  #05 @049   ----------------------------------------
 .byte   W96
@  #05 @050   ----------------------------------------
 .byte   W96
@  #05 @051   ----------------------------------------
 .byte   W96
@  #05 @052   ----------------------------------------
 .byte   W96
@  #05 @053   ----------------------------------------
 .byte   W96
@  #05 @054   ----------------------------------------
 .byte   W96
@  #05 @055   ----------------------------------------
 .byte   W96
@  #05 @056   ----------------------------------------
 .byte   W96
@  #05 @057   ----------------------------------------
 .byte   GOTO
  .word Label_01542C47
@  #05 @058   ----------------------------------------
 .byte   W92
 .byte   W03
 .byte   FINE

@**************** Track 6 (Midi-Chn.5) ****************@

ZanzaTheDivine_006:
@  #06 @000   ----------------------------------------
 .byte   KEYSH , ZanzaTheDivine_key+0
 .byte   VOICE , 30
 .byte   VOL , 39*ZanzaTheDivine_mvl/mxv
 .byte   PAN , c_v+0
 .byte   W96
@  #06 @001   ----------------------------------------
 .byte   W96
@  #06 @002   ----------------------------------------
 .byte   W96
@  #06 @003   ----------------------------------------
 .byte   W96
@  #06 @004   ----------------------------------------
 .byte   W96
@  #06 @005   ----------------------------------------
 .byte   W96
@  #06 @006   ----------------------------------------
 .byte   W96
@  #06 @007   ----------------------------------------
Label_013FD05B:
 .byte   W72
 .byte   N23 ,En1 ,v080
 .byte   W24
@  #06 @008   ----------------------------------------
Label_013FD060:
 .byte   N08 ,En1 ,v096
 .byte   W18
 .byte   N08
 .byte   W18
 .byte   N11
 .byte   W24
 .byte   N17 ,Fn1
 .byte   W18
 .byte   N17
 .byte   W18
 .byte   PEND 
@  #06 @009   ----------------------------------------
Label_013FD06E:
 .byte   N08 ,En1 ,v096
 .byte   W18
 .byte   N08
 .byte   W18
 .byte   N11
 .byte   W24
 .byte   N17 ,Dn2
 .byte   W18
 .byte   N17
 .byte   W18
 .byte   PEND 
@  #06 @010   ----------------------------------------
 .byte   PATT
  .word Label_013FD060
@  #06 @011   ----------------------------------------
 .byte   N08 ,En1 ,v112
 .byte   W18
 .byte   N08
 .byte   W18
 .byte   N11
 .byte   W24
 .byte   N17 ,Dn2
 .byte   W18
 .byte   N17
 .byte   W18
@  #06 @012   ----------------------------------------
 .byte   PATT
  .word Label_013FD060
@  #06 @013   ----------------------------------------
 .byte   PATT
  .word Label_013FD06E
@  #06 @014   ----------------------------------------
 .byte   PATT
  .word Label_013FD060
@  #06 @015   ----------------------------------------
 .byte   PATT
  .word Label_013FD06E
@  #06 @016   ----------------------------------------
 .byte   PATT
  .word Label_013FD060
@  #06 @017   ----------------------------------------
 .byte   PATT
  .word Label_013FD06E
@  #06 @018   ----------------------------------------
 .byte   PATT
  .word Label_013FD060
@  #06 @019   ----------------------------------------
 .byte   PATT
  .word Label_013FD06E
@  #06 @020   ----------------------------------------
 .byte   PATT
  .word Label_013FD060
@  #06 @021   ----------------------------------------
 .byte   PATT
  .word Label_013FD06E
@  #06 @022   ----------------------------------------
 .byte   PATT
  .word Label_013FD060
@  #06 @023   ----------------------------------------
 .byte   PATT
  .word Label_013FD06E
@  #06 @024   ----------------------------------------
 .byte   TIE ,En1 ,v096
 .byte   W96
@  #06 @025   ----------------------------------------
 .byte   W44
 .byte   W03
 .byte   EOT
 .byte   W48
 .byte   W01
@  #06 @026   ----------------------------------------
 .byte   PATT
  .word Label_013FD060
@  #06 @027   ----------------------------------------
 .byte   PATT
  .word Label_013FD06E
@  #06 @028   ----------------------------------------
 .byte   PATT
  .word Label_013FD060
@  #06 @029   ----------------------------------------
 .byte   PATT
  .word Label_013FD06E
@  #06 @030   ----------------------------------------
 .byte   PATT
  .word Label_013FD060
@  #06 @031   ----------------------------------------
 .byte   PATT
  .word Label_013FD06E
@  #06 @032   ----------------------------------------
 .byte   PATT
  .word Label_013FD060
@  #06 @033   ----------------------------------------
 .byte   N08 ,En1 ,v096
 .byte   W18
 .byte   N08
 .byte   W18
 .byte   N11
 .byte   W24
 .byte   N17
 .byte   W18
 .byte   N17
 .byte   W18
@  #06 @034   ----------------------------------------
 .byte   PATT
  .word Label_013FD060
@  #06 @035   ----------------------------------------
 .byte   PATT
  .word Label_013FD06E
@  #06 @036   ----------------------------------------
 .byte   PATT
  .word Label_013FD060
@  #06 @037   ----------------------------------------
 .byte   PATT
  .word Label_013FD06E
@  #06 @038   ----------------------------------------
 .byte   PATT
  .word Label_013FD060
@  #06 @039   ----------------------------------------
 .byte   PATT
  .word Label_013FD06E
@  #06 @040   ----------------------------------------
 .byte   PATT
  .word Label_013FD060
@  #06 @041   ----------------------------------------
 .byte   PATT
  .word Label_013FD06E
@  #06 @042   ----------------------------------------
 .byte   W96
@  #06 @043   ----------------------------------------
 .byte   W96
@  #06 @044   ----------------------------------------
 .byte   W96
@  #06 @045   ----------------------------------------
 .byte   W96
@  #06 @046   ----------------------------------------
 .byte   W96
@  #06 @047   ----------------------------------------
 .byte   W96
@  #06 @048   ----------------------------------------
 .byte   W96
@  #06 @049   ----------------------------------------
 .byte   W96
@  #06 @050   ----------------------------------------
 .byte   W96
@  #06 @051   ----------------------------------------
 .byte   W96
@  #06 @052   ----------------------------------------
 .byte   W96
@  #06 @053   ----------------------------------------
 .byte   W96
@  #06 @054   ----------------------------------------
 .byte   W96
@  #06 @055   ----------------------------------------
 .byte   W96
@  #06 @056   ----------------------------------------
 .byte   W96
@  #06 @057   ----------------------------------------
 .byte   GOTO
  .word Label_013FD05B
@  #06 @058   ----------------------------------------
 .byte   W92
 .byte   W03
 .byte   FINE

@**************** Track 7 (Midi-Chn.6) ****************@

ZanzaTheDivine_007:
@  #07 @000   ----------------------------------------
 .byte   KEYSH , ZanzaTheDivine_key+0
 .byte   VOICE , 38
 .byte   VOL , 39*ZanzaTheDivine_mvl/mxv
 .byte   PAN , c_v+0
 .byte   W96
@  #07 @001   ----------------------------------------
 .byte   W96
@  #07 @002   ----------------------------------------
 .byte   W96
@  #07 @003   ----------------------------------------
 .byte   W96
@  #07 @004   ----------------------------------------
 .byte   W96
@  #07 @005   ----------------------------------------
 .byte   W96
@  #07 @006   ----------------------------------------
 .byte   W96
@  #07 @007   ----------------------------------------
Label_013FD163:
 .byte   W72
 .byte   N23 ,En0 ,v080
 .byte   W24
@  #07 @008   ----------------------------------------
Label_013FD168:
 .byte   N08 ,En0 ,v080
 .byte   W18
 .byte   N08
 .byte   W18
 .byte   N23
 .byte   W24
 .byte   N17 ,Fn0
 .byte   W18
 .byte   N17
 .byte   W18
 .byte   PEND 
@  #07 @009   ----------------------------------------
Label_013FD176:
 .byte   N08 ,En0 ,v080
 .byte   W18
 .byte   N08
 .byte   W18
 .byte   N23
 .byte   W24
 .byte   N17 ,Dn1
 .byte   W18
 .byte   N17
 .byte   W18
 .byte   PEND 
@  #07 @010   ----------------------------------------
 .byte   PATT
  .word Label_013FD168
@  #07 @011   ----------------------------------------
 .byte   N08 ,En0 ,v112
 .byte   W18
 .byte   N08
 .byte   W18
 .byte   N23
 .byte   W24
 .byte   N17 ,Dn1
 .byte   W18
 .byte   N17
 .byte   W18
@  #07 @012   ----------------------------------------
 .byte   PATT
  .word Label_013FD168
@  #07 @013   ----------------------------------------
 .byte   PATT
  .word Label_013FD176
@  #07 @014   ----------------------------------------
 .byte   PATT
  .word Label_013FD168
@  #07 @015   ----------------------------------------
 .byte   PATT
  .word Label_013FD176
@  #07 @016   ----------------------------------------
 .byte   PATT
  .word Label_013FD168
@  #07 @017   ----------------------------------------
 .byte   PATT
  .word Label_013FD176
@  #07 @018   ----------------------------------------
 .byte   PATT
  .word Label_013FD168
@  #07 @019   ----------------------------------------
 .byte   PATT
  .word Label_013FD176
@  #07 @020   ----------------------------------------
 .byte   PATT
  .word Label_013FD168
@  #07 @021   ----------------------------------------
 .byte   PATT
  .word Label_013FD176
@  #07 @022   ----------------------------------------
 .byte   PATT
  .word Label_013FD168
@  #07 @023   ----------------------------------------
 .byte   PATT
  .word Label_013FD176
@  #07 @024   ----------------------------------------
 .byte   TIE ,En0 ,v052
 .byte   W96
@  #07 @025   ----------------------------------------
 .byte   W44
 .byte   W03
 .byte   EOT
 .byte   W48
 .byte   W01
@  #07 @026   ----------------------------------------
 .byte   PATT
  .word Label_013FD168
@  #07 @027   ----------------------------------------
 .byte   PATT
  .word Label_013FD176
@  #07 @028   ----------------------------------------
 .byte   PATT
  .word Label_013FD168
@  #07 @029   ----------------------------------------
 .byte   PATT
  .word Label_013FD176
@  #07 @030   ----------------------------------------
 .byte   PATT
  .word Label_013FD168
@  #07 @031   ----------------------------------------
Label_013FD1F4:
 .byte   N08 ,En0 ,v052
 .byte   W18
 .byte   N08
 .byte   W18
 .byte   N23
 .byte   W24
 .byte   N17 ,Dn1
 .byte   W18
 .byte   N17
 .byte   W18
 .byte   PEND 
@  #07 @032   ----------------------------------------
Label_013FD202:
 .byte   N08 ,En0 ,v052
 .byte   W18
 .byte   N08
 .byte   W18
 .byte   N23
 .byte   W24
 .byte   N17 ,Fn0
 .byte   W18
 .byte   N17
 .byte   W18
 .byte   PEND 
@  #07 @033   ----------------------------------------
 .byte   N08 ,En0
 .byte   W18
 .byte   N08
 .byte   W18
 .byte   N23
 .byte   W24
 .byte   N17
 .byte   W18
 .byte   N17
 .byte   W18
@  #07 @034   ----------------------------------------
 .byte   PATT
  .word Label_013FD202
@  #07 @035   ----------------------------------------
 .byte   PATT
  .word Label_013FD1F4
@  #07 @036   ----------------------------------------
 .byte   PATT
  .word Label_013FD202
@  #07 @037   ----------------------------------------
 .byte   PATT
  .word Label_013FD1F4
@  #07 @038   ----------------------------------------
 .byte   PATT
  .word Label_013FD202
@  #07 @039   ----------------------------------------
 .byte   PATT
  .word Label_013FD1F4
@  #07 @040   ----------------------------------------
 .byte   PATT
  .word Label_013FD202
@  #07 @041   ----------------------------------------
 .byte   PATT
  .word Label_013FD1F4
@  #07 @042   ----------------------------------------
 .byte   W96
@  #07 @043   ----------------------------------------
 .byte   W96
@  #07 @044   ----------------------------------------
 .byte   W96
@  #07 @045   ----------------------------------------
 .byte   W96
@  #07 @046   ----------------------------------------
 .byte   W96
@  #07 @047   ----------------------------------------
 .byte   W96
@  #07 @048   ----------------------------------------
 .byte   W96
@  #07 @049   ----------------------------------------
 .byte   W96
@  #07 @050   ----------------------------------------
 .byte   W96
@  #07 @051   ----------------------------------------
 .byte   W96
@  #07 @052   ----------------------------------------
 .byte   W96
@  #07 @053   ----------------------------------------
 .byte   W96
@  #07 @054   ----------------------------------------
 .byte   W96
@  #07 @055   ----------------------------------------
 .byte   W96
@  #07 @056   ----------------------------------------
 .byte   W96
@  #07 @057   ----------------------------------------
 .byte   GOTO
  .word Label_013FD163
@  #07 @058   ----------------------------------------
 .byte   W92
 .byte   W03
 .byte   FINE

@**************** Track 8 (Midi-Chn.7) ****************@

ZanzaTheDivine_008:
@  #08 @000   ----------------------------------------
 .byte   KEYSH , ZanzaTheDivine_key+0
 .byte   VOICE , 47
 .byte   VOL , 39*ZanzaTheDivine_mvl/mxv
 .byte   PAN , c_v+0
 .byte   W96
@  #08 @001   ----------------------------------------
Label_013FD275:
 .byte   W72
 .byte   N04 ,En1 ,v096
 .byte   N04 ,An1
 .byte   W04
 .byte   En1
 .byte   N04 ,An1
 .byte   W05
 .byte   En1
 .byte   N04 ,An1
 .byte   W05
 .byte   En1
 .byte   N04 ,An1
 .byte   W05
 .byte   En1
 .byte   N04 ,An1
 .byte   W05
 .byte   PEND 
@  #08 @002   ----------------------------------------
 .byte   N23 ,En1
 .byte   N23 ,An1
 .byte   W96
@  #08 @003   ----------------------------------------
 .byte   W96
@  #08 @004   ----------------------------------------
 .byte   En1
 .byte   N23 ,An1
 .byte   W96
@  #08 @005   ----------------------------------------
 .byte   PATT
  .word Label_013FD275
@  #08 @006   ----------------------------------------
 .byte   N23 ,En1 ,v096
 .byte   N23 ,An1
 .byte   W96
@  #08 @007   ----------------------------------------
Label_013FD2A2:
 .byte   W96
@  #08 @008   ----------------------------------------
 .byte   W96
@  #08 @009   ----------------------------------------
 .byte   W96
@  #08 @010   ----------------------------------------
 .byte   W96
@  #08 @011   ----------------------------------------
 .byte   W60
 .byte   N17 ,En1 ,v096
 .byte   N17 ,Bn1
 .byte   W18
 .byte   En1
 .byte   N17 ,Bn1
 .byte   W18
@  #08 @012   ----------------------------------------
 .byte   W96
@  #08 @013   ----------------------------------------
 .byte   W96
@  #08 @014   ----------------------------------------
 .byte   W96
@  #08 @015   ----------------------------------------
 .byte   W96
@  #08 @016   ----------------------------------------
 .byte   W96
@  #08 @017   ----------------------------------------
 .byte   W96
@  #08 @018   ----------------------------------------
 .byte   W96
@  #08 @019   ----------------------------------------
 .byte   W96
@  #08 @020   ----------------------------------------
 .byte   W96
@  #08 @021   ----------------------------------------
 .byte   W96
@  #08 @022   ----------------------------------------
 .byte   W96
@  #08 @023   ----------------------------------------
 .byte   W96
@  #08 @024   ----------------------------------------
 .byte   W96
@  #08 @025   ----------------------------------------
 .byte   W96
@  #08 @026   ----------------------------------------
 .byte   W96
@  #08 @027   ----------------------------------------
 .byte   W96
@  #08 @028   ----------------------------------------
 .byte   W96
@  #08 @029   ----------------------------------------
 .byte   W96
@  #08 @030   ----------------------------------------
 .byte   W96
@  #08 @031   ----------------------------------------
 .byte   W96
@  #08 @032   ----------------------------------------
 .byte   W96
@  #08 @033   ----------------------------------------
 .byte   W96
@  #08 @034   ----------------------------------------
 .byte   W96
@  #08 @035   ----------------------------------------
 .byte   W96
@  #08 @036   ----------------------------------------
 .byte   W96
@  #08 @037   ----------------------------------------
 .byte   W96
@  #08 @038   ----------------------------------------
 .byte   W96
@  #08 @039   ----------------------------------------
 .byte   W96
@  #08 @040   ----------------------------------------
 .byte   W96
@  #08 @041   ----------------------------------------
 .byte   W96
@  #08 @042   ----------------------------------------
 .byte   W96
@  #08 @043   ----------------------------------------
 .byte   W96
@  #08 @044   ----------------------------------------
 .byte   W96
@  #08 @045   ----------------------------------------
 .byte   W96
@  #08 @046   ----------------------------------------
 .byte   W96
@  #08 @047   ----------------------------------------
 .byte   W96
@  #08 @048   ----------------------------------------
 .byte   W96
@  #08 @049   ----------------------------------------
 .byte   W96
@  #08 @050   ----------------------------------------
 .byte   W96
@  #08 @051   ----------------------------------------
 .byte   W96
@  #08 @052   ----------------------------------------
 .byte   W96
@  #08 @053   ----------------------------------------
 .byte   W96
@  #08 @054   ----------------------------------------
 .byte   W96
@  #08 @055   ----------------------------------------
 .byte   W96
@  #08 @056   ----------------------------------------
 .byte   W96
@  #08 @057   ----------------------------------------
 .byte   GOTO
  .word Label_013FD2A2
@  #08 @058   ----------------------------------------
 .byte   W92
 .byte   W03
 .byte   FINE

@**************** Track 9 (Midi-Chn.8) ****************@

ZanzaTheDivine_009:
@  #09 @000   ----------------------------------------
 .byte   KEYSH , ZanzaTheDivine_key+0
 .byte   VOICE , 18
 .byte   VOL , 39*ZanzaTheDivine_mvl/mxv
 .byte   PAN , c_v+0
 .byte   W96
@  #09 @001   ----------------------------------------
 .byte   W96
@  #09 @002   ----------------------------------------
 .byte   W96
@  #09 @003   ----------------------------------------
 .byte   W96
@  #09 @004   ----------------------------------------
 .byte   W96
@  #09 @005   ----------------------------------------
 .byte   W96
@  #09 @006   ----------------------------------------
 .byte   W96
@  #09 @007   ----------------------------------------
Label_013FD307:
 .byte   W68
 .byte   W01
 .byte   N02 ,En3 ,v080
 .byte   W03
 .byte   N23 ,En1
 .byte   N23 ,Bn1
 .byte   N23 ,En2
 .byte   N23 ,En3
 .byte   N23 ,Bn3
 .byte   N23 ,En4
 .byte   W24
@  #09 @008   ----------------------------------------
 .byte   W96
@  #09 @009   ----------------------------------------
 .byte   W96
@  #09 @010   ----------------------------------------
 .byte   W96
@  #09 @011   ----------------------------------------
 .byte   W60
 .byte   N07 ,An1
 .byte   N01 ,Dn2
 .byte   N07 ,An3
 .byte   N01 ,Dn4
 .byte   W01
 .byte   Cs2
 .byte   N01 ,Cs4
 .byte   W01
 .byte   Cn2
 .byte   N01 ,Cn4
 .byte   W02
 .byte   Bn1
 .byte   N01 ,Bn3
 .byte   W01
 .byte   As1
 .byte   N01 ,As3
 .byte   W02
 .byte   An1
 .byte   N01 ,An3
 .byte   W02
 .byte   Gs1
 .byte   N01 ,Gs3
 .byte   W01
 .byte   Gn1
 .byte   N01 ,Gn3
 .byte   W01
 .byte   Fs1
 .byte   N01 ,Fs3
 .byte   W02
 .byte   Fn1
 .byte   N01 ,Fn3
 .byte   W01
 .byte   En1
 .byte   N01 ,En3
 .byte   W02
 .byte   Ds1
 .byte   N01 ,Ds3
 .byte   W02
 .byte   N17 ,An0
 .byte   N17 ,Dn1
 .byte   N17 ,An2
 .byte   N17 ,Dn3
 .byte   W18
@  #09 @012   ----------------------------------------
 .byte   N92 ,En1 ,v096
 .byte   N92 ,Bn1
 .byte   N92 ,En2
 .byte   W12
 .byte   N05 ,Bn3
 .byte   N05 ,Bn4
 .byte   W06
 .byte   An3
 .byte   N05 ,An4
 .byte   W06
 .byte   Bn3
 .byte   N05 ,Bn4
 .byte   W18
 .byte   Bn3
 .byte   N05 ,Bn4
 .byte   W06
 .byte   An3
 .byte   N05 ,An4
 .byte   W06
 .byte   Bn3
 .byte   N05 ,Bn4
 .byte   W06
 .byte   An3
 .byte   N05 ,An4
 .byte   W06
 .byte   Bn3
 .byte   N05 ,Bn4
 .byte   W06
 .byte   N11 ,An3
 .byte   N11 ,An4
 .byte   W12
 .byte   Gn3
 .byte   N11 ,Gn4
 .byte   W12
@  #09 @013   ----------------------------------------
 .byte   TIE ,En1
 .byte   TIE ,Bn1
 .byte   TIE ,En2
 .byte   N05 ,En3
 .byte   N05 ,En4
 .byte   W06
 .byte   Dn3
 .byte   N05 ,Dn4
 .byte   W06
 .byte   En3
 .byte   N05 ,En4
 .byte   W06
 .byte   Gn3
 .byte   N05 ,Gn4
 .byte   W12
 .byte   En3
 .byte   N05 ,En4
 .byte   W06
 .byte   Dn3
 .byte   N05 ,Dn4
 .byte   W06
 .byte   En3
 .byte   N05 ,En4
 .byte   W06
 .byte   Gn3
 .byte   N05 ,Gn4
 .byte   W06
 .byte   An3
 .byte   N05 ,An4
 .byte   W06
 .byte   Cn4
 .byte   N05 ,Cn5
 .byte   W06
 .byte   Dn4
 .byte   N05 ,Dn5
 .byte   W06
 .byte   En4
 .byte   N05 ,En5
 .byte   W06
 .byte   Dn4
 .byte   N05 ,Dn5
 .byte   W06
 .byte   En4
 .byte   N05 ,En5
 .byte   W06
 .byte   Gn4
 .byte   N05 ,Gn5
 .byte   W06
@  #09 @014   ----------------------------------------
 .byte   Gn4
 .byte   N05 ,Gn5
 .byte   W06
 .byte   N11 ,An4
 .byte   N11 ,An5
 .byte   W18
 .byte   N05 ,An4
 .byte   N05 ,An5
 .byte   W06
 .byte   Gn4
 .byte   N05 ,Gn5
 .byte   W06
 .byte   En4
 .byte   N05 ,En5
 .byte   W06
 .byte   N11 ,Dn4
 .byte   N11 ,Dn5
 .byte   W12
 .byte   N05 ,En4
 .byte   N05 ,En5
 .byte   W06
 .byte   Dn4
 .byte   N05 ,Dn5
 .byte   W06
 .byte   Bn3
 .byte   N05 ,Bn4
 .byte   W06
 .byte   N11 ,An3
 .byte   N11 ,An4
 .byte   W12
 .byte   Gn3
 .byte   N11 ,Gn4
 .byte   W11
 .byte   EOT
 .byte   En1 ,v047
 .byte   En2
 .byte   W01
@  #09 @015   ----------------------------------------
 .byte   N92 ,En1
 .byte   N92 ,Bn1
 .byte   N92 ,En2
 .byte   N05 ,En3
 .byte   N05 ,En4
 .byte   W06
 .byte   Dn3
 .byte   N05 ,Dn4
 .byte   W06
 .byte   En3
 .byte   N05 ,En4
 .byte   W06
 .byte   Gn3
 .byte   N05 ,Gn4
 .byte   W12
 .byte   En3
 .byte   N05 ,En4
 .byte   W06
 .byte   Dn3
 .byte   N05 ,Dn4
 .byte   W06
 .byte   En3
 .byte   N05 ,En4
 .byte   W06
 .byte   Gn3
 .byte   N05 ,Gn4
 .byte   W06
 .byte   N11 ,An3
 .byte   N11 ,An4
 .byte   W12
 .byte   Cn4
 .byte   N11 ,Cn5
 .byte   W12
 .byte   N05 ,Dn4
 .byte   N05 ,Dn5
 .byte   W06
 .byte   En4
 .byte   N05 ,En5
 .byte   W06
 .byte   Gn4
 .byte   N05 ,Gn5
 .byte   W06
@  #09 @016   ----------------------------------------
Label_013FD444:
 .byte   W12
 .byte   N05 ,Bn4 ,v080
 .byte   W06
 .byte   An4
 .byte   W06
 .byte   Bn4
 .byte   W18
 .byte   N05
 .byte   W06
 .byte   An4
 .byte   W06
 .byte   Bn4
 .byte   W06
 .byte   An4
 .byte   W06
 .byte   Bn4
 .byte   W06
 .byte   N11 ,An4
 .byte   W12
 .byte   Gn4
 .byte   W12
 .byte   PEND 
@  #09 @017   ----------------------------------------
 .byte   N92 ,En1
 .byte   N92 ,Bn1
 .byte   N92 ,En2
 .byte   N05 ,En4
 .byte   W06
 .byte   Dn4
 .byte   W06
 .byte   En4
 .byte   W06
 .byte   Gn4
 .byte   W12
 .byte   En4
 .byte   W06
 .byte   Dn4
 .byte   W06
 .byte   En4
 .byte   W06
 .byte   Gn4
 .byte   W06
 .byte   N11 ,An4
 .byte   W12
 .byte   Cn5
 .byte   W12
 .byte   N05 ,Dn5
 .byte   W06
 .byte   En5
 .byte   W06
 .byte   Gn5
 .byte   W06
@  #09 @018   ----------------------------------------
 .byte   N05
 .byte   W06
 .byte   N11 ,An5
 .byte   W18
 .byte   N05 ,An5 ,v052
 .byte   W06
 .byte   Gn5
 .byte   W06
 .byte   En5
 .byte   W06
 .byte   N11 ,Dn5
 .byte   W12
 .byte   N05 ,En5
 .byte   W06
 .byte   Dn5
 .byte   W06
 .byte   Bn4
 .byte   W06
 .byte   N11 ,An4
 .byte   W12
 .byte   Gn4
 .byte   W12
@  #09 @019   ----------------------------------------
 .byte   W06
 .byte   N05 ,An4 ,v080
 .byte   W06
 .byte   N05
 .byte   W06
 .byte   N05
 .byte   W06
 .byte   N05
 .byte   W06
 .byte   Gn4
 .byte   W06
 .byte   En4
 .byte   W06
 .byte   N11 ,Dn4
 .byte   W12
 .byte   N05 ,En4
 .byte   W06
 .byte   Dn4
 .byte   W06
 .byte   Bn3
 .byte   W06
 .byte   N11 ,An3
 .byte   W12
 .byte   Gn3
 .byte   W12
@  #09 @020   ----------------------------------------
 .byte   PATT
  .word Label_013FD444
@  #09 @021   ----------------------------------------
 .byte   N05 ,En4 ,v080
 .byte   W06
 .byte   Dn4
 .byte   W06
 .byte   En4
 .byte   W06
 .byte   Gn4
 .byte   W12
 .byte   En4
 .byte   W06
 .byte   Dn4
 .byte   W06
 .byte   En4
 .byte   W06
 .byte   Gn4
 .byte   W06
 .byte   N11 ,An4
 .byte   W12
 .byte   Cn5
 .byte   W12
 .byte   N05 ,Dn5
 .byte   W06
 .byte   En5
 .byte   W06
 .byte   Gn5
 .byte   W06
@  #09 @022   ----------------------------------------
 .byte   W06
 .byte   Bn3
 .byte   N05 ,Bn4
 .byte   W06
 .byte   Bn3
 .byte   N05 ,Bn4
 .byte   W06
 .byte   Bn3
 .byte   N05 ,Bn4
 .byte   W06
 .byte   Bn3
 .byte   N05 ,Bn4
 .byte   W06
 .byte   Dn4
 .byte   N05 ,Dn5
 .byte   W06
 .byte   En4
 .byte   N05 ,En5
 .byte   W06
 .byte   Dn4
 .byte   N05 ,Dn5
 .byte   W06
 .byte   Bn3
 .byte   N05 ,Bn4
 .byte   W06
 .byte   An3
 .byte   N05 ,An4
 .byte   W06
 .byte   Gn3
 .byte   N05 ,Gn4
 .byte   W06
 .byte   Fn3
 .byte   N05 ,Fn4
 .byte   W06
 .byte   En3
 .byte   N05 ,En4
 .byte   W06
 .byte   Bn3
 .byte   N05 ,Bn4
 .byte   W06
 .byte   An3
 .byte   N05 ,An4
 .byte   W06
 .byte   Bn3
 .byte   N05 ,Bn4
 .byte   W06
@  #09 @023   ----------------------------------------
 .byte   Dn3
 .byte   N05 ,Dn4
 .byte   W06
 .byte   En3
 .byte   N05 ,En4
 .byte   W06
 .byte   Dn3
 .byte   N05 ,Dn4
 .byte   W06
 .byte   En3
 .byte   N05 ,En4
 .byte   W06
 .byte   Dn3
 .byte   N05 ,Dn4
 .byte   W06
 .byte   Bn2
 .byte   N05 ,Bn3
 .byte   W06
 .byte   An2
 .byte   N05 ,An3
 .byte   W06
 .byte   Bn2
 .byte   N05 ,Bn3
 .byte   W06
 .byte   En3
 .byte   N05 ,En4
 .byte   W06
 .byte   Gn2
 .byte   N05 ,Gn3
 .byte   W06
 .byte   An2
 .byte   N05 ,An3
 .byte   W06
 .byte   Bn2
 .byte   N05 ,Bn3
 .byte   W06
 .byte   Dn3
 .byte   N05 ,Dn4
 .byte   W06
 .byte   En3
 .byte   N05 ,En4
 .byte   W06
 .byte   Gn3
 .byte   N05 ,Gn4
 .byte   W06
 .byte   An3
 .byte   N05 ,An4
 .byte   W06
@  #09 @024   ----------------------------------------
 .byte   W12
 .byte   En3 ,v096
 .byte   N05 ,En4
 .byte   W06
 .byte   Dn3
 .byte   N05 ,Dn4
 .byte   W06
 .byte   En3
 .byte   N05 ,En4
 .byte   W06
 .byte   Gn3
 .byte   N05 ,Gn4
 .byte   W12
 .byte   En3
 .byte   N05 ,En4
 .byte   W06
 .byte   Dn3
 .byte   N05 ,Dn4
 .byte   W06
 .byte   En3
 .byte   N05 ,En4
 .byte   W06
 .byte   Dn3
 .byte   N05 ,Dn4
 .byte   W06
 .byte   Bn2
 .byte   N05 ,Bn3
 .byte   W06
 .byte   N11 ,An2
 .byte   N11 ,An3
 .byte   W12
 .byte   N05 ,Gn2
 .byte   N05 ,Gn3
 .byte   W06
 .byte   En2
 .byte   N05 ,En3
 .byte   W06
@  #09 @025   ----------------------------------------
 .byte   Dn2
 .byte   N05 ,Dn3
 .byte   W06
 .byte   N11 ,En2
 .byte   N11 ,En3
 .byte   W12
 .byte   N05 ,Bn2
 .byte   N05 ,Bn3
 .byte   W06
 .byte   An2
 .byte   N05 ,An3
 .byte   W06
 .byte   Bn2
 .byte   N05 ,Bn3
 .byte   W06
 .byte   Gn2
 .byte   N05 ,Gn3
 .byte   W06
 .byte   En2
 .byte   N05 ,En3
 .byte   W06
 .byte   Fs3
 .byte   W06
 .byte   En3
 .byte   W06
 .byte   Dn3
 .byte   W06
 .byte   En3
 .byte   W06
 .byte   Gn3
 .byte   N01 ,Ds5
 .byte   N01 ,En5
 .byte   W01
 .byte   Dn5
 .byte   W01
 .byte   Cn5
 .byte   N01 ,Cs5
 .byte   W01
 .byte   Bn4
 .byte   W01
 .byte   An4
 .byte   N01 ,As4
 .byte   W01
 .byte   Gs4
 .byte   W01
 .byte   N05 ,En3
 .byte   N01 ,Fs4
 .byte   N01 ,Gn4
 .byte   W01
 .byte   Fn4
 .byte   W01
 .byte   En4
 .byte   W01
 .byte   Dn4
 .byte   N01 ,Ds4
 .byte   W01
 .byte   Cs4
 .byte   W01
 .byte   Cn4
 .byte   W01
 .byte   N05 ,Dn3
 .byte   N11 ,Bn3
 .byte   W06
 .byte   N05 ,En3
 .byte   W06
@  #09 @026   ----------------------------------------
 .byte   W96
@  #09 @027   ----------------------------------------
 .byte   W96
@  #09 @028   ----------------------------------------
 .byte   W96
@  #09 @029   ----------------------------------------
 .byte   W96
@  #09 @030   ----------------------------------------
 .byte   W96
@  #09 @031   ----------------------------------------
 .byte   W96
@  #09 @032   ----------------------------------------
 .byte   W96
@  #09 @033   ----------------------------------------
 .byte   W96
@  #09 @034   ----------------------------------------
 .byte   W96
@  #09 @035   ----------------------------------------
 .byte   W96
@  #09 @036   ----------------------------------------
 .byte   W96
@  #09 @037   ----------------------------------------
 .byte   W96
@  #09 @038   ----------------------------------------
 .byte   W96
@  #09 @039   ----------------------------------------
 .byte   W96
@  #09 @040   ----------------------------------------
 .byte   W96
@  #09 @041   ----------------------------------------
 .byte   W96
@  #09 @042   ----------------------------------------
 .byte   W96
@  #09 @043   ----------------------------------------
 .byte   W96
@  #09 @044   ----------------------------------------
 .byte   W96
@  #09 @045   ----------------------------------------
 .byte   W96
@  #09 @046   ----------------------------------------
 .byte   W96
@  #09 @047   ----------------------------------------
 .byte   W96
@  #09 @048   ----------------------------------------
 .byte   W96
@  #09 @049   ----------------------------------------
 .byte   W96
@  #09 @050   ----------------------------------------
 .byte   W96
@  #09 @051   ----------------------------------------
 .byte   W96
@  #09 @052   ----------------------------------------
 .byte   W96
@  #09 @053   ----------------------------------------
 .byte   W96
@  #09 @054   ----------------------------------------
 .byte   W96
@  #09 @055   ----------------------------------------
 .byte   W96
@  #09 @056   ----------------------------------------
 .byte   W96
@  #09 @057   ----------------------------------------
 .byte   GOTO
  .word Label_013FD307
@  #09 @058   ----------------------------------------
 .byte   W92
 .byte   W03
 .byte   FINE

@**************** Track 10 (Midi-Chn.9) ****************@

ZanzaTheDivine_010:
@  #10 @000   ----------------------------------------
 .byte   KEYSH , ZanzaTheDivine_key+0
 .byte   VOICE , 83
 .byte   VOL , 39*ZanzaTheDivine_mvl/mxv
 .byte   PAN , c_v+0
 .byte   TIE ,En1 ,v052
 .byte   TIE ,En2
 .byte   W96
@  #10 @001   ----------------------------------------
 .byte   W92
 .byte   W03
 .byte   EOT
 .byte   En1 ,v052
 .byte   W01
@  #10 @002   ----------------------------------------
 .byte   TIE ,En1
 .byte   TIE ,En2
 .byte   W96
@  #10 @003   ----------------------------------------
 .byte   W92
 .byte   W03
 .byte   EOT
 .byte   En1 ,v052
 .byte   W01
@  #10 @004   ----------------------------------------
 .byte   TIE ,En1
 .byte   TIE ,En2
 .byte   N92 ,En3
 .byte   N92 ,Bn3
 .byte   W96
@  #10 @005   ----------------------------------------
 .byte   Gn3
 .byte   N92 ,Dn4
 .byte   W92
 .byte   W03
 .byte   EOT
 .byte   En1 ,v052
 .byte   W01
@  #10 @006   ----------------------------------------
 .byte   TIE ,En1
 .byte   TIE ,En2
 .byte   N92 ,Cn3
 .byte   N92 ,Gn3
 .byte   W96
@  #10 @007   ----------------------------------------
Label_013FD656:
 .byte   W68
 .byte   W01
 .byte   N02 ,En3 ,v052
 .byte   W03
 .byte   N23
 .byte   N23 ,Bn3
 .byte   N23 ,En4
 .byte   W23
 .byte   EOT
 .byte   En1 ,v052
 .byte   W01
@  #10 @008   ----------------------------------------
 .byte   W96
@  #10 @009   ----------------------------------------
 .byte   W96
@  #10 @010   ----------------------------------------
 .byte   W96
@  #10 @011   ----------------------------------------
 .byte   W60
 .byte   N07 ,An1
 .byte   N01 ,Dn2
 .byte   N07 ,An3
 .byte   N01 ,Dn4
 .byte   W01
 .byte   Cs2
 .byte   N01 ,Cs4
 .byte   W01
 .byte   Cn2
 .byte   N01 ,Cn4
 .byte   W02
 .byte   Bn1
 .byte   N01 ,Bn3
 .byte   W01
 .byte   As1
 .byte   N01 ,As3
 .byte   W02
 .byte   An1
 .byte   N01 ,An3
 .byte   W02
 .byte   Gs1
 .byte   N01 ,Gs3
 .byte   W01
 .byte   Gn1
 .byte   N01 ,Gn3
 .byte   W01
 .byte   Fs1
 .byte   N01 ,Fs3
 .byte   W02
 .byte   Fn1
 .byte   N01 ,Fn3
 .byte   W01
 .byte   En1
 .byte   N01 ,En3
 .byte   W02
 .byte   Ds1
 .byte   N01 ,Ds3
 .byte   W02
 .byte   N17 ,An0
 .byte   N17 ,Dn1
 .byte   N17 ,An2
 .byte   N17 ,Dn3
 .byte   W18
@  #10 @012   ----------------------------------------
 .byte   W96
@  #10 @013   ----------------------------------------
 .byte   W96
@  #10 @014   ----------------------------------------
 .byte   W96
@  #10 @015   ----------------------------------------
 .byte   W96
@  #10 @016   ----------------------------------------
 .byte   W96
@  #10 @017   ----------------------------------------
 .byte   W96
@  #10 @018   ----------------------------------------
 .byte   W96
@  #10 @019   ----------------------------------------
 .byte   W96
@  #10 @020   ----------------------------------------
 .byte   W96
@  #10 @021   ----------------------------------------
 .byte   W96
@  #10 @022   ----------------------------------------
 .byte   W96
@  #10 @023   ----------------------------------------
 .byte   W96
@  #10 @024   ----------------------------------------
 .byte   W96
@  #10 @025   ----------------------------------------
 .byte   W96
@  #10 @026   ----------------------------------------
 .byte   W96
@  #10 @027   ----------------------------------------
 .byte   W96
@  #10 @028   ----------------------------------------
 .byte   W96
@  #10 @029   ----------------------------------------
 .byte   W96
@  #10 @030   ----------------------------------------
 .byte   W96
@  #10 @031   ----------------------------------------
 .byte   W96
@  #10 @032   ----------------------------------------
 .byte   W96
@  #10 @033   ----------------------------------------
 .byte   W96
@  #10 @034   ----------------------------------------
 .byte   W96
@  #10 @035   ----------------------------------------
 .byte   W96
@  #10 @036   ----------------------------------------
 .byte   W96
@  #10 @037   ----------------------------------------
 .byte   W96
@  #10 @038   ----------------------------------------
 .byte   W96
@  #10 @039   ----------------------------------------
 .byte   W96
@  #10 @040   ----------------------------------------
 .byte   W96
@  #10 @041   ----------------------------------------
 .byte   W96
@  #10 @042   ----------------------------------------
Label_013FD6C6:
 .byte   TIE ,En0 ,v080
 .byte   TIE ,En1
 .byte   W96
 .byte   PEND 
@  #10 @043   ----------------------------------------
Label_013FD6CD:
 .byte   N11 ,En3 ,v080
 .byte   N11 ,Gn3
 .byte   W12
 .byte   En3
 .byte   W12
 .byte   N11
 .byte   N11 ,An3
 .byte   W12
 .byte   En3
 .byte   W12
 .byte   N44
 .byte   N44 ,Bn3
 .byte   W48
 .byte   PEND 
@  #10 @044   ----------------------------------------
Label_013FD6E0:
 .byte   N23 ,Cn3 ,v080
 .byte   N23 ,Cn4
 .byte   W24
 .byte   An2
 .byte   N23 ,An3
 .byte   W24
 .byte   Fn3
 .byte   N23 ,Fn4
 .byte   W24
 .byte   N11 ,En3
 .byte   W12
 .byte   Dn3
 .byte   W12
 .byte   PEND 
@  #10 @045   ----------------------------------------
Label_013FD6F4:
 .byte   N11 ,Bn2 ,v080
 .byte   N11 ,Bn3
 .byte   W12
 .byte   Cn3
 .byte   N11 ,Cn4
 .byte   W12
 .byte   Bn2
 .byte   N11 ,Bn3
 .byte   W12
 .byte   An2
 .byte   N11 ,An3
 .byte   W12
 .byte   N44 ,Bn2
 .byte   N44 ,Bn3
 .byte   W48
 .byte   PEND 
@  #10 @046   ----------------------------------------
Label_013FD70C:
 .byte   N23 ,An2 ,v080
 .byte   N23 ,An3
 .byte   W24
 .byte   Cn3
 .byte   N23 ,Cn4
 .byte   W24
 .byte   N44 ,Fn3
 .byte   N44 ,Fn4
 .byte   W48
 .byte   PEND 
@  #10 @047   ----------------------------------------
Label_013FD71C:
 .byte   N11 ,En3 ,v080
 .byte   N11 ,En4
 .byte   W12
 .byte   Dn3
 .byte   N11 ,Dn4
 .byte   W12
 .byte   En3
 .byte   N11 ,En4
 .byte   W12
 .byte   Fn3
 .byte   N11 ,Fn4
 .byte   W12
 .byte   En3
 .byte   N11 ,En4
 .byte   W12
 .byte   Dn3
 .byte   N11 ,Dn4
 .byte   W12
 .byte   Cn3
 .byte   N11 ,Cn4
 .byte   W12
 .byte   Bn2
 .byte   N11 ,Bn3
 .byte   W12
 .byte   PEND 
@  #10 @048   ----------------------------------------
Label_013FD73F:
 .byte   N23 ,An2 ,v080
 .byte   N23 ,An3
 .byte   W24
 .byte   N11 ,Gn2
 .byte   N11 ,Gn3
 .byte   W12
 .byte   An2
 .byte   N11 ,An3
 .byte   W12
 .byte   N23 ,Gn2
 .byte   N23 ,Gn3
 .byte   W24
 .byte   N11 ,An2
 .byte   N11 ,An3
 .byte   W12
 .byte   Fn2
 .byte   N11 ,Fn3
 .byte   W11
 .byte   PEND 
 .byte   EOT
 .byte   En0 ,v040
 .byte   W01
@  #10 @049   ----------------------------------------
 .byte   N92 ,En2
 .byte   N92 ,Bn2
 .byte   N92 ,En3
 .byte   W96
@  #10 @050   ----------------------------------------
 .byte   PATT
  .word Label_013FD6C6
@  #10 @051   ----------------------------------------
 .byte   PATT
  .word Label_013FD6CD
@  #10 @052   ----------------------------------------
 .byte   PATT
  .word Label_013FD6E0
@  #10 @053   ----------------------------------------
 .byte   PATT
  .word Label_013FD6F4
@  #10 @054   ----------------------------------------
 .byte   PATT
  .word Label_013FD70C
@  #10 @055   ----------------------------------------
 .byte   PATT
  .word Label_013FD71C
@  #10 @056   ----------------------------------------
 .byte   PATT
  .word Label_013FD73F
@  #10 @057   ----------------------------------------
 .byte   EOT
 .byte   En0 ,v040
 .byte   W01
 .byte   GOTO
  .word Label_013FD656
@  #10 @058   ----------------------------------------
 .byte   N92 ,En2 ,v080
 .byte   N92 ,Bn2
 .byte   N92 ,En3
 .byte   W92
 .byte   W03
 .byte   FINE

@**************** Track 11 (Midi-Chn.10) ****************@

ZanzaTheDivine_011:
@  #11 @000   ----------------------------------------
 .byte   KEYSH , ZanzaTheDivine_key+0
 .byte   VOICE , 124
 .byte   VOL , 54*ZanzaTheDivine_mvl/mxv
 .byte   PAN , c_v+0
 .byte   N23 ,Fs1 ,v080
 .byte   W96
@  #11 @001   ----------------------------------------
 .byte   W96
@  #11 @002   ----------------------------------------
Label_013FD7BD:
 .byte   N23 ,Cs1 ,v080
 .byte   N23 ,En1
 .byte   N23 ,Fn1
 .byte   N23 ,Gn1
 .byte   W96
 .byte   PEND 
@  #11 @003   ----------------------------------------
 .byte   W96
@  #11 @004   ----------------------------------------
 .byte   PATT
  .word Label_013FD7BD
@  #11 @005   ----------------------------------------
 .byte   W96
@  #11 @006   ----------------------------------------
 .byte   PATT
  .word Label_013FD7BD
@  #11 @007   ----------------------------------------
Label_013FD7D4:
 .byte   W72
 .byte   N11 ,Fn1 ,v080
 .byte   N11 ,An1
 .byte   W12
 .byte   Gn1
 .byte   N11 ,Bn1
 .byte   W12
@  #11 @008   ----------------------------------------
Label_013FD7DF:
 .byte   N17 ,Cn1 ,v096
 .byte   W18
 .byte   N17
 .byte   W18
 .byte   N11
 .byte   W18
 .byte   N05 ,Bn1
 .byte   N05 ,Cn2
 .byte   W06
 .byte   N17 ,Cn1
 .byte   N05 ,Fs1
 .byte   W06
 .byte   N05
 .byte   W06
 .byte   N05
 .byte   W06
 .byte   N17 ,Cn1
 .byte   N05 ,Fs1
 .byte   W06
 .byte   N05
 .byte   W06
 .byte   N05
 .byte   W06
 .byte   PEND 
@  #11 @009   ----------------------------------------
 .byte   PATT
  .word Label_013FD7DF
@  #11 @010   ----------------------------------------
 .byte   PATT
  .word Label_013FD7DF
@  #11 @011   ----------------------------------------
 .byte   N11 ,Dn1 ,v112
 .byte   N11 ,Fn1
 .byte   N11 ,Fn2
 .byte   W12
 .byte   N05 ,Cn1
 .byte   W06
 .byte   N05
 .byte   W06
 .byte   N11 ,Dn1
 .byte   N11 ,Fn1
 .byte   N11 ,Fn2
 .byte   W12
 .byte   N05 ,Cn1
 .byte   W06
 .byte   N05
 .byte   W06
 .byte   Dn1
 .byte   W06
 .byte   Fn1
 .byte   W06
 .byte   En1
 .byte   W06
 .byte   Fn1
 .byte   W06
 .byte   N11 ,En1
 .byte   W12
 .byte   N11
 .byte   W12
@  #11 @012   ----------------------------------------
Label_013FD82F:
 .byte   N17 ,Cn1 ,v096
 .byte   N17 ,Fs1
 .byte   N17 ,An1
 .byte   N17 ,Bn1
 .byte   W18
 .byte   N05 ,Fn1
 .byte   N05 ,Fs1
 .byte   W06
 .byte   N11 ,Cn1
 .byte   N11 ,Fs1
 .byte   N11 ,Bn1
 .byte   N11 ,Dn2
 .byte   W12
 .byte   N23 ,An1
 .byte   W30
 .byte   N05 ,Fn1
 .byte   N05 ,Fs1
 .byte   W06
 .byte   N11
 .byte   N11 ,Bn1
 .byte   N11 ,Dn2
 .byte   W12
 .byte   An1
 .byte   W12
 .byte   PEND 
@  #11 @013   ----------------------------------------
 .byte   PATT
  .word Label_013FD82F
@  #11 @014   ----------------------------------------
 .byte   PATT
  .word Label_013FD82F
@  #11 @015   ----------------------------------------
 .byte   N11 ,Dn1 ,v096
 .byte   N11 ,Fn1
 .byte   N11 ,Fn2
 .byte   W12
 .byte   N05 ,Cn1
 .byte   W06
 .byte   N05
 .byte   W06
 .byte   N11 ,Dn1
 .byte   N11 ,Fn1
 .byte   N11 ,Fn2
 .byte   W12
 .byte   N05 ,Cn1
 .byte   W06
 .byte   N05
 .byte   W06
 .byte   Dn1
 .byte   W06
 .byte   Fn1
 .byte   W06
 .byte   En1
 .byte   W06
 .byte   Fn1
 .byte   W06
 .byte   N11 ,En1
 .byte   W12
 .byte   N11
 .byte   W12
@  #11 @016   ----------------------------------------
 .byte   N17 ,Fs1
 .byte   N17 ,An1
 .byte   N17 ,Bn1
 .byte   W18
 .byte   N05 ,Fn1
 .byte   N05 ,Fs1
 .byte   W06
 .byte   N11
 .byte   N11 ,Bn1
 .byte   N11 ,Dn2
 .byte   W12
 .byte   N23 ,An1
 .byte   W30
 .byte   N05 ,Fn1
 .byte   N05 ,Fs1
 .byte   W06
 .byte   N11
 .byte   N11 ,Bn1
 .byte   N11 ,Dn2
 .byte   W12
 .byte   An1
 .byte   W12
@  #11 @017   ----------------------------------------
 .byte   PATT
  .word Label_013FD82F
@  #11 @018   ----------------------------------------
 .byte   PATT
  .word Label_013FD82F
@  #11 @019   ----------------------------------------
 .byte   PATT
  .word Label_013FD82F
@  #11 @020   ----------------------------------------
 .byte   PATT
  .word Label_013FD82F
@  #11 @021   ----------------------------------------
 .byte   PATT
  .word Label_013FD82F
@  #11 @022   ----------------------------------------
 .byte   PATT
  .word Label_013FD82F
@  #11 @023   ----------------------------------------
 .byte   PATT
  .word Label_013FD82F
@  #11 @024   ----------------------------------------
 .byte   TIE ,Cn1 ,v096
 .byte   TIE ,Fs1
 .byte   TIE ,An1
 .byte   TIE ,Bn1
 .byte   W96
@  #11 @025   ----------------------------------------
 .byte   W23
 .byte   EOT
 .byte   Cn1 ,v042
 .byte   An1 ,v047
 .byte   W01
 .byte   N11 ,En1
 .byte   N11 ,Bn1
 .byte   W12
 .byte   En1
 .byte   N11 ,An1
 .byte   W12
 .byte   N17 ,Dn1
 .byte   N17 ,Cn2
 .byte   W18
 .byte   Fn1
 .byte   N17 ,Bn1
 .byte   W18
 .byte   N05 ,An1
 .byte   W06
 .byte   Fn1
 .byte   W06
@  #11 @026   ----------------------------------------
 .byte   PATT
  .word Label_013FD82F
@  #11 @027   ----------------------------------------
 .byte   PATT
  .word Label_013FD82F
@  #11 @028   ----------------------------------------
 .byte   PATT
  .word Label_013FD82F
@  #11 @029   ----------------------------------------
 .byte   PATT
  .word Label_013FD82F
@  #11 @030   ----------------------------------------
 .byte   PATT
  .word Label_013FD82F
@  #11 @031   ----------------------------------------
 .byte   PATT
  .word Label_013FD82F
@  #11 @032   ----------------------------------------
 .byte   PATT
  .word Label_013FD82F
@  #11 @033   ----------------------------------------
 .byte   PATT
  .word Label_013FD82F
@  #11 @034   ----------------------------------------
 .byte   PATT
  .word Label_013FD82F
@  #11 @035   ----------------------------------------
 .byte   PATT
  .word Label_013FD82F
@  #11 @036   ----------------------------------------
 .byte   PATT
  .word Label_013FD82F
@  #11 @037   ----------------------------------------
 .byte   PATT
  .word Label_013FD82F
@  #11 @038   ----------------------------------------
 .byte   PATT
  .word Label_013FD82F
@  #11 @039   ----------------------------------------
 .byte   PATT
  .word Label_013FD82F
@  #11 @040   ----------------------------------------
 .byte   PATT
  .word Label_013FD82F
@  #11 @041   ----------------------------------------
 .byte   PATT
  .word Label_013FD82F
@  #11 @042   ----------------------------------------
 .byte   N92 ,Cn1 ,v096
 .byte   N92 ,An1
 .byte   N92 ,Bn1
 .byte   N92 ,Cs2
 .byte   W96
@  #11 @043   ----------------------------------------
 .byte   W96
@  #11 @044   ----------------------------------------
 .byte   W96
@  #11 @045   ----------------------------------------
 .byte   W96
@  #11 @046   ----------------------------------------
 .byte   W96
@  #11 @047   ----------------------------------------
 .byte   W96
@  #11 @048   ----------------------------------------
 .byte   W96
@  #11 @049   ----------------------------------------
 .byte   W36
 .byte   N11 ,En1
 .byte   N11 ,Dn2
 .byte   W12
 .byte   En1
 .byte   N11 ,Cn2
 .byte   W12
 .byte   En1
 .byte   N11 ,Bn1
 .byte   W12
 .byte   N23 ,Fn1
 .byte   N23 ,An1
 .byte   W24
@  #11 @050   ----------------------------------------
Label_013FD968:
 .byte   N23 ,Cn1 ,v096
 .byte   N23 ,Fs1
 .byte   W24
 .byte   N11 ,Cn1
 .byte   N23 ,Fs1
 .byte   W12
 .byte   N11 ,Cn1
 .byte   W12
 .byte   Dn1
 .byte   N11 ,Fs1
 .byte   W12
 .byte   Dn1
 .byte   N11 ,Fs1
 .byte   W12
 .byte   N11
 .byte   W24
 .byte   PEND 
@  #11 @051   ----------------------------------------
 .byte   PATT
  .word Label_013FD968
@  #11 @052   ----------------------------------------
 .byte   PATT
  .word Label_013FD968
@  #11 @053   ----------------------------------------
 .byte   PATT
  .word Label_013FD968
@  #11 @054   ----------------------------------------
 .byte   PATT
  .word Label_013FD968
@  #11 @055   ----------------------------------------
 .byte   PATT
  .word Label_013FD968
@  #11 @056   ----------------------------------------
 .byte   PATT
  .word Label_013FD968
@  #11 @057   ----------------------------------------
 .byte   GOTO
  .word Label_013FD7D4
@  #11 @058   ----------------------------------------
 .byte   N92 ,Cn1 ,v096
 .byte   N92 ,Dn1
 .byte   N92 ,Fn1
 .byte   N92 ,Cs2
 .byte   W92
 .byte   W03
 .byte   FINE

@******************************************************@
	.align	2

ZanzaTheDivine:
	.byte	11	@ NumTrks
	.byte	0	@ NumBlks
	.byte	ZanzaTheDivine_pri	@ Priority
	.byte	ZanzaTheDivine_rev	@ Reverb.
    
	.word	ZanzaTheDivine_grp
    
	.word	ZanzaTheDivine_001
	.word	ZanzaTheDivine_002
	.word	ZanzaTheDivine_003
	.word	ZanzaTheDivine_004
	.word	ZanzaTheDivine_005
	.word	ZanzaTheDivine_006
	.word	ZanzaTheDivine_007
	.word	ZanzaTheDivine_008
	.word	ZanzaTheDivine_009
	.word	ZanzaTheDivine_010
	.word	ZanzaTheDivine_011

	.end
