//Event file generated from Sappy .s format.
	#include "MPlayDef.event"

	#define	Ambience_grp  voicegroup000
	#define	Ambience_pri  0
	#define	Ambience_rev  0
	#define	Ambience_mvl  127
	#define	Ambience_key  0
	#define	Ambience_tbs  1
	#define	Ambience_exg  0
	#define	Ambience_cmp  1

	// .rodata
	//	Ambience
	ALIGN 4


//**************** Track 1 (Midi-Chn.0) ****************//

Ambience_001:
//  #01 //000   ----------------------------------------
 BYTE   KEYSH   Ambience_key+0
 BYTE   TEMPO   150*Ambience_tbs/2
 BYTE   VOICE   73
 BYTE   MODT 0
 BYTE   LFOS 44
 BYTE   VOL   25*Ambience_mvl/mxv
 BYTE   PAN   c_v+40
 BYTE   N12  Dn4  v036
 BYTE   W12
 BYTE   Ds4
 BYTE   W12
 BYTE   As3
 BYTE   W12
 BYTE   Gn3
 BYTE   W12
 BYTE   Dn4
 BYTE   W12
 BYTE   Ds4
 BYTE   W12
 BYTE   As3
 BYTE   W12
 BYTE   Gn3
 BYTE   W12
//  #01 //001   ----------------------------------------
Label_01008040:
 BYTE   N12  Dn4  v076
 BYTE   W12
 BYTE   Ds4
 BYTE   W12
 BYTE   As3
 BYTE   W12
 BYTE   Gn3
 BYTE   W12
 BYTE   Dn4
 BYTE   W12
 BYTE   Ds4
 BYTE   W12
 BYTE   As3
 BYTE   W12
 BYTE   Gn3
 BYTE   W12
 BYTE   PEND 
//  #01 //002   ----------------------------------------
Label_01008053:
 BYTE   TEMPO   152*Ambience_tbs/2
 BYTE   N12  Dn4  v127
 BYTE   W12
 BYTE   Ds4
 BYTE   W12
 BYTE   As3
 BYTE   W12
 BYTE   Gn3
 BYTE   W12
 BYTE   Dn4
 BYTE   W12
 BYTE   Ds4
 BYTE   W12
 BYTE   As3
 BYTE   W12
 BYTE   Gn3
 BYTE   W12
 BYTE   PEND 
//  #01 //003   ----------------------------------------
Label_01008068:
 BYTE   N12  Dn4  v076
 BYTE   W12
 BYTE   Ds4
 BYTE   W12
 BYTE   As3
 BYTE   W12
 BYTE   Gn3
 BYTE   W12
 BYTE   Dn4  v036
 BYTE   W12
 BYTE   Ds4
 BYTE   W12
 BYTE   As3
 BYTE   W12
 BYTE   Gn3
 BYTE   W12
 BYTE   PEND 
//  #01 //004   ----------------------------------------
Label_0100807C:
 BYTE   TEMPO   146*Ambience_tbs/2
 BYTE   N12  Cn4  v076
 BYTE   W12
 BYTE   As3
 BYTE   W12
 BYTE   Ds3
 BYTE   W12
 BYTE   Fn3
 BYTE   W12
 BYTE   TEMPO   148*Ambience_tbs/2
 BYTE   Gs3
 BYTE   W12
 BYTE   Gn3
 BYTE   W12
 BYTE   Ds3
 BYTE   W12
 BYTE   Cn3
 BYTE   W12
 BYTE   PEND 
//  #01 //005   ----------------------------------------
Label_01008093:
 BYTE   TEMPO   150*Ambience_tbs/2
 BYTE   N12  Cn4  v127
 BYTE   W12
 BYTE   As3
 BYTE   W12
 BYTE   Ds3
 BYTE   W12
 BYTE   Fn3
 BYTE   W12
 BYTE   Gs3
 BYTE   W12
 BYTE   Gn3
 BYTE   W12
 BYTE   Ds3
 BYTE   W12
 BYTE   Cn3
 BYTE   W12
 BYTE   PEND 
//  #01 //006   ----------------------------------------
Label_010080A8:
 BYTE   N12  Cn4  v127
 BYTE   W12
 BYTE   As3
 BYTE   W12
 BYTE   Ds3
 BYTE   W12
 BYTE   Fn3
 BYTE   W12
 BYTE   Gs3
 BYTE   W12
 BYTE   Gn3
 BYTE   W12
 BYTE   Ds3
 BYTE   W12
 BYTE   Cn3
 BYTE   W12
 BYTE   PEND 
//  #01 //007   ----------------------------------------
Label_010080BB:
 BYTE   N12  Cn4  v076
 BYTE   W12
 BYTE   As3
 BYTE   W12
 BYTE   Ds3
 BYTE   W12
 BYTE   Fn3
 BYTE   W12
 BYTE   Gs3
 BYTE   W12
 BYTE   Gn3
 BYTE   W12
 BYTE   Ds3
 BYTE   W12
 BYTE   Cn3
 BYTE   W12
 BYTE   PEND 
//  #01 //008   ----------------------------------------
 BYTE   W96
//  #01 //009   ----------------------------------------
 BYTE   W96
//  #01 //010   ----------------------------------------
 BYTE   W96
//  #01 //011   ----------------------------------------
 BYTE   W96
//  #01 //012   ----------------------------------------
 BYTE   Dn4  v036
 BYTE   W12
 BYTE   Ds4
 BYTE   W12
 BYTE   As3
 BYTE   W12
 BYTE   Gn3
 BYTE   W12
 BYTE   Dn4
 BYTE   W12
 BYTE   Ds4
 BYTE   W12
 BYTE   As3
 BYTE   W12
 BYTE   Gn3
 BYTE   W12
//  #01 //013   ----------------------------------------
 BYTE   PATT
  POIN2 Label_01008040
//  #01 //014   ----------------------------------------
 BYTE   PATT
  POIN2 Label_01008053
//  #01 //015   ----------------------------------------
 BYTE   PATT
  POIN2 Label_01008068
//  #01 //016   ----------------------------------------
 BYTE   PATT
  POIN2 Label_0100807C
//  #01 //017   ----------------------------------------
 BYTE   PATT
  POIN2 Label_01008093
//  #01 //018   ----------------------------------------
 BYTE   PATT
  POIN2 Label_010080A8
//  #01 //019   ----------------------------------------
 BYTE   PATT
  POIN2 Label_010080BB
//  #01 //020   ----------------------------------------
 BYTE   N12  Gs3  v036
 BYTE   W12
 BYTE   Gn3
 BYTE   W12
 BYTE   Cn3
 BYTE   W12
 BYTE   Ds3
 BYTE   W12
 BYTE   Gs3  v076
 BYTE   W12
 BYTE   Gn3
 BYTE   W12
 BYTE   As3
 BYTE   W12
 BYTE   Fn3
 BYTE   W12
//  #01 //021   ----------------------------------------
Label_01008119:
 BYTE   N12  Gs3  v127
 BYTE   W12
 BYTE   Gn3
 BYTE   W12
 BYTE   Cn3
 BYTE   W12
 BYTE   Ds3
 BYTE   W12
 BYTE   Gs3
 BYTE   W12
 BYTE   Gn3
 BYTE   W12
 BYTE   As3
 BYTE   W12
 BYTE   Fn3
 BYTE   W12
 BYTE   PEND 
//  #01 //022   ----------------------------------------
 BYTE   PATT
  POIN2 Label_01008119
//  #01 //023   ----------------------------------------
 BYTE   N12  Gs3  v076
 BYTE   W12
 BYTE   Gn3
 BYTE   W12
 BYTE   Cn3
 BYTE   W12
 BYTE   Ds3
 BYTE   W12
 BYTE   Gs3  v036
 BYTE   W12
 BYTE   Gn3
 BYTE   W12
 BYTE   As3
 BYTE   W12
 BYTE   Fn3
 BYTE   W12
//  #01 //024   ----------------------------------------
Label_01008144:
 BYTE   N12  Ds4  v076
 BYTE   W12
 BYTE   Dn4
 BYTE   W12
 BYTE   Gn3
 BYTE   W12
 BYTE   As3
 BYTE   W12
 BYTE   Cn4
 BYTE   W12
 BYTE   As3
 BYTE   W12
 BYTE   Dn3
 BYTE   W12
 BYTE   Fn3
 BYTE   W12
 BYTE   PEND 
//  #01 //025   ----------------------------------------
Label_01008157:
 BYTE   N12  Ds4  v127
 BYTE   W12
 BYTE   Dn4
 BYTE   W12
 BYTE   Gn3
 BYTE   W12
 BYTE   As3
 BYTE   W12
 BYTE   Cn4
 BYTE   W12
 BYTE   As3
 BYTE   W12
 BYTE   Dn3
 BYTE   W12
 BYTE   Fn3
 BYTE   W12
 BYTE   PEND 
//  #01 //026   ----------------------------------------
 BYTE   PATT
  POIN2 Label_01008157
//  #01 //027   ----------------------------------------
 BYTE   PATT
  POIN2 Label_01008144
//  #01 //028   ----------------------------------------
Label_01008174:
 BYTE   W96
//  #01 //029   ----------------------------------------
 BYTE   W96
//  #01 //030   ----------------------------------------
 BYTE   W96
//  #01 //031   ----------------------------------------
 BYTE   W96
//  #01 //032   ----------------------------------------
 BYTE   W96
//  #01 //033   ----------------------------------------
 BYTE   W96
//  #01 //034   ----------------------------------------
 BYTE   W96
//  #01 //035   ----------------------------------------
 BYTE   W96
//  #01 //036   ----------------------------------------
 BYTE   W96
//  #01 //037   ----------------------------------------
 BYTE   W96
//  #01 //038   ----------------------------------------
 BYTE   W96
//  #01 //039   ----------------------------------------
 BYTE   W48
 BYTE   VOICE   73
 BYTE   W48
//  #01 //040   ----------------------------------------
Label_01008183:
 BYTE   N06  Dn5  v127
 BYTE   W12
 BYTE   Ds5
 BYTE   W12
 BYTE   As4
 BYTE   W12
 BYTE   Dn5
 BYTE   W12
 BYTE   Ds5
 BYTE   W12
 BYTE   As4  v076
 BYTE   W12
 BYTE   Dn5
 BYTE   W12
 BYTE   Ds5
 BYTE   W12
 BYTE   PEND 
//  #01 //041   ----------------------------------------
Label_01008197:
 BYTE   N06  As4  v056
 BYTE   W12
 BYTE   Dn5
 BYTE   W12
 BYTE   Ds5
 BYTE   W12
 BYTE   As4
 BYTE   W60
 BYTE   PEND 
//  #01 //042   ----------------------------------------
 BYTE   W96
//  #01 //043   ----------------------------------------
 BYTE   W96
//  #01 //044   ----------------------------------------
 BYTE   W96
//  #01 //045   ----------------------------------------
 BYTE   W96
//  #01 //046   ----------------------------------------
 BYTE   W96
//  #01 //047   ----------------------------------------
 BYTE   W96
//  #01 //048   ----------------------------------------
 BYTE   W96
//  #01 //049   ----------------------------------------
 BYTE   W96
//  #01 //050   ----------------------------------------
 BYTE   W96
//  #01 //051   ----------------------------------------
 BYTE   W96
//  #01 //052   ----------------------------------------
Label_010081AC:
 BYTE   VOICE   73
 BYTE   W48
 BYTE   N24  Dn4  v127
 BYTE   W24
 BYTE   N11  Cn4
 BYTE   W12
 BYTE   TIE  Gn3
 BYTE   W12
 BYTE   PEND 
//  #01 //053   ----------------------------------------
 BYTE   W96
//  #01 //054   ----------------------------------------
 BYTE   W24
 BYTE   EOT
 BYTE   N11  Dn4
 BYTE   W12
 BYTE   N12  Cn4
 BYTE   W12
 BYTE   N24  Dn4
 BYTE   W24
 BYTE   N11  Ds4
 BYTE   W12
 BYTE   N36  Fn4
 BYTE   W12
//  #01 //055   ----------------------------------------
Label_010081CC:
 BYTE   W24
 BYTE   N11  Ds4  v127
 BYTE   W12
 BYTE   N36  Dn4
 BYTE   W36
 BYTE   N72  As3
 BYTE   W24
 BYTE   PEND 
//  #01 //056   ----------------------------------------
Label_010081D8:
 BYTE   W48
 BYTE   N32  As3  v127
 BYTE   W12
 BYTE   BEND   c_v+12
 BYTE   W03
 BYTE   BEND   c_v+25
 BYTE   W03
 BYTE   BEND   c_v+38
 BYTE   W03
 BYTE   BEND   c_v+51
 BYTE   W03
 BYTE   BEND   c_v+63
 BYTE   W12
 BYTE   BEND   c_v+0
 BYTE   TIE  Ds3
 BYTE   W12
 BYTE   PEND 
//  #01 //057   ----------------------------------------
 BYTE   W96
//  #01 //058   ----------------------------------------
 BYTE   W48
 BYTE   EOT
 BYTE   N32  As3
 BYTE   W12
 BYTE   BEND   c_v+12
 BYTE   W03
 BYTE   BEND   c_v+25
 BYTE   W03
 BYTE   BEND   c_v+38
 BYTE   W03
 BYTE   BEND   c_v+51
 BYTE   W03
 BYTE   BEND   c_v+63
 BYTE   W12
 BYTE   BEND   c_v+0
 BYTE   TIE  Ds3
 BYTE   W12
//  #01 //059   ----------------------------------------
 BYTE   W96
//  #01 //060   ----------------------------------------
 BYTE   W24
 BYTE   EOT
 BYTE   W24
 BYTE   N24  Dn4
 BYTE   W24
 BYTE   N11  Cn4
 BYTE   W12
 BYTE   TIE  Gn3
 BYTE   W12
//  #01 //061   ----------------------------------------
 BYTE   W96
//  #01 //062   ----------------------------------------
 BYTE   W23
 BYTE   EOT
 BYTE   W01
 BYTE   N11  Dn4
 BYTE   W12
 BYTE   N12  Cn4
 BYTE   W12
 BYTE   N24  Dn4
 BYTE   W24
 BYTE   N11  Ds4
 BYTE   W12
 BYTE   N36  Fn4
 BYTE   W12
//  #01 //063   ----------------------------------------
Label_01008222:
 BYTE   W24
 BYTE   N11  Gn4  v127
 BYTE   W12
 BYTE   N60  As4
 BYTE   W36
 BYTE   BEND   c_v+12
 BYTE   W03
 BYTE   BEND   c_v+25
 BYTE   W03
 BYTE   BEND   c_v+38
 BYTE   W03
 BYTE   BEND   c_v+51
 BYTE   W03
 BYTE   BEND   c_v+63
 BYTE   W12
 BYTE   PEND 
//  #01 //064   ----------------------------------------
Label_01008236:
 BYTE   BEND   c_v+0
 BYTE   N48  Ds4  v127
 BYTE   W48
 BYTE   N32  As3
 BYTE   W12
 BYTE   BEND   c_v+12
 BYTE   W03
 BYTE   BEND   c_v+25
 BYTE   W03
 BYTE   BEND   c_v+38
 BYTE   W03
 BYTE   BEND   c_v+51
 BYTE   W03
 BYTE   BEND   c_v+63
 BYTE   W12
 BYTE   BEND   c_v+0
 BYTE   N60  Ds3
 BYTE   W12
 BYTE   PEND 
//  #01 //065   ----------------------------------------
Label_0100824F:
 BYTE   W48
 BYTE   N32  As4  v127
 BYTE   W12
 BYTE   BEND   c_v+12
 BYTE   W03
 BYTE   BEND   c_v+25
 BYTE   W03
 BYTE   BEND   c_v+38
 BYTE   W03
 BYTE   BEND   c_v+51
 BYTE   W03
 BYTE   BEND   c_v+63
 BYTE   W12
 BYTE   BEND   c_v+0
 BYTE   N60  Ds4
 BYTE   W12
 BYTE   PEND 
//  #01 //066   ----------------------------------------
 BYTE   PATT
  POIN2 Label_010081D8
//  #01 //067   ----------------------------------------
 BYTE   W96
//  #01 //068   ----------------------------------------
 BYTE   W01
 BYTE   EOT
 BYTE   Ds3
 BYTE   W05
 BYTE   VOICE   73
 BYTE   W18
 BYTE   N12  Gs4  v127
 BYTE   W12
 BYTE   N11  Gn4
 BYTE   W12
 BYTE   N24  Gs4
 BYTE   W24
 BYTE   N11  Gn4
 BYTE   W12
 BYTE   N24  Gs4
 BYTE   W12
//  #01 //069   ----------------------------------------
Label_01008281:
 BYTE   W12
 BYTE   N24  Gn4  v127
 BYTE   W24
 BYTE   N60  Cn4
 BYTE   W60
 BYTE   PEND 
//  #01 //070   ----------------------------------------
Label_0100828A:
 BYTE   W24
 BYTE   N12  Gs4  v127
 BYTE   W12
 BYTE   N11  Gn4
 BYTE   W12
 BYTE   N24  Gs4
 BYTE   W24
 BYTE   N11  Gn4
 BYTE   W12
 BYTE   N36  As4
 BYTE   W12
 BYTE   PEND 
//  #01 //071   ----------------------------------------
Label_0100829C:
 BYTE   W24
 BYTE   N11  Gs4  v127
 BYTE   W12
 BYTE   N36  Gn4
 BYTE   W36
 BYTE   TIE  Fn4
 BYTE   W24
 BYTE   PEND 
//  #01 //072   ----------------------------------------
Label_010082A8:
 BYTE   W24
 BYTE   VOL   18*Ambience_mvl/mxv
 BYTE   W06
 BYTE   VOL   37*Ambience_mvl/mxv
 BYTE   W06
 BYTE   VOL   32*Ambience_mvl/mxv
 BYTE   W06
 BYTE   VOL   27*Ambience_mvl/mxv
 BYTE   W06
 BYTE   VOL   22*Ambience_mvl/mxv
 BYTE   W06
 BYTE   VOL   17*Ambience_mvl/mxv
 BYTE   W06
 BYTE   VOL   13*Ambience_mvl/mxv
 BYTE   W06
 BYTE   VOL   10*Ambience_mvl/mxv
 BYTE   W06
 BYTE   VOL   6*Ambience_mvl/mxv
 BYTE   W06
 BYTE   VOL   3*Ambience_mvl/mxv
 BYTE   W06
 BYTE   VOL   1*Ambience_mvl/mxv
 BYTE   W06
 BYTE   VOL   0*Ambience_mvl/mxv
 BYTE   W06
 BYTE   PEND 
//  #01 //073   ----------------------------------------
 BYTE   EOT
 BYTE   Fn4
 BYTE   VOL   25*Ambience_mvl/mxv
 BYTE   W96
//  #01 //074   ----------------------------------------
 BYTE   W96
//  #01 //075   ----------------------------------------
 BYTE   W96
//  #01 //076   ----------------------------------------
 BYTE   W96
//  #01 //077   ----------------------------------------
 BYTE   W96
//  #01 //078   ----------------------------------------
 BYTE   W96
//  #01 //079   ----------------------------------------
 BYTE   W96
//  #01 //080   ----------------------------------------
 BYTE   W96
//  #01 //081   ----------------------------------------
 BYTE   W96
//  #01 //082   ----------------------------------------
 BYTE   W96
//  #01 //083   ----------------------------------------
 BYTE   W96
//  #01 //084   ----------------------------------------
 BYTE   W96
//  #01 //085   ----------------------------------------
 BYTE   W96
//  #01 //086   ----------------------------------------
 BYTE   W96
//  #01 //087   ----------------------------------------
 BYTE   W48
 BYTE   VOICE   73
 BYTE   W48
//  #01 //088   ----------------------------------------
 BYTE   PATT
  POIN2 Label_01008183
//  #01 //089   ----------------------------------------
 BYTE   PATT
  POIN2 Label_01008197
//  #01 //090   ----------------------------------------
 BYTE   W96
//  #01 //091   ----------------------------------------
 BYTE   W96
//  #01 //092   ----------------------------------------
 BYTE   W96
//  #01 //093   ----------------------------------------
 BYTE   W96
//  #01 //094   ----------------------------------------
 BYTE   W96
//  #01 //095   ----------------------------------------
 BYTE   W96
//  #01 //096   ----------------------------------------
 BYTE   W96
//  #01 //097   ----------------------------------------
 BYTE   W96
//  #01 //098   ----------------------------------------
 BYTE   W96
//  #01 //099   ----------------------------------------
 BYTE   W96
//  #01 //100   ----------------------------------------
 BYTE   PATT
  POIN2 Label_010081AC
//  #01 //101   ----------------------------------------
 BYTE   W96
//  #01 //102   ----------------------------------------
 BYTE   W24
 BYTE   EOT
 BYTE   Gn3
 BYTE   N11  Dn4  v127
 BYTE   W12
 BYTE   N12  Cn4
 BYTE   W12
 BYTE   N24  Dn4
 BYTE   W24
 BYTE   N11  Ds4
 BYTE   W12
 BYTE   N36  Fn4
 BYTE   W12
//  #01 //103   ----------------------------------------
 BYTE   PATT
  POIN2 Label_010081CC
//  #01 //104   ----------------------------------------
 BYTE   PATT
  POIN2 Label_010081D8
//  #01 //105   ----------------------------------------
 BYTE   W96
//  #01 //106   ----------------------------------------
 BYTE   W48
 BYTE   EOT
 BYTE   Ds3
 BYTE   N32  As3  v127
 BYTE   W12
 BYTE   BEND   c_v+12
 BYTE   W03
 BYTE   BEND   c_v+25
 BYTE   W03
 BYTE   BEND   c_v+38
 BYTE   W03
 BYTE   BEND   c_v+51
 BYTE   W03
 BYTE   BEND   c_v+63
 BYTE   W12
 BYTE   BEND   c_v+0
 BYTE   TIE  Ds3
 BYTE   W12
//  #01 //107   ----------------------------------------
 BYTE   W96
//  #01 //108   ----------------------------------------
 BYTE   W24
 BYTE   EOT
 BYTE   W24
 BYTE   N24  Dn4
 BYTE   W24
 BYTE   N11  Cn4
 BYTE   W12
 BYTE   TIE  Gn3
 BYTE   W12
//  #01 //109   ----------------------------------------
 BYTE   W96
//  #01 //110   ----------------------------------------
 BYTE   W23
 BYTE   EOT
 BYTE   W01
 BYTE   N11  Dn4
 BYTE   W12
 BYTE   N12  Cn4
 BYTE   W12
 BYTE   N24  Dn4
 BYTE   W24
 BYTE   N11  Ds4
 BYTE   W12
 BYTE   N36  Fn4
 BYTE   W12
//  #01 //111   ----------------------------------------
 BYTE   PATT
  POIN2 Label_01008222
//  #01 //112   ----------------------------------------
 BYTE   PATT
  POIN2 Label_01008236
//  #01 //113   ----------------------------------------
 BYTE   PATT
  POIN2 Label_0100824F
//  #01 //114   ----------------------------------------
 BYTE   PATT
  POIN2 Label_010081D8
//  #01 //115   ----------------------------------------
 BYTE   W96
//  #01 //116   ----------------------------------------
 BYTE   W01
 BYTE   EOT
 BYTE   Ds3
 BYTE   W05
 BYTE   VOICE   73
 BYTE   W18
 BYTE   N12  Gs4  v127
 BYTE   W12
 BYTE   N11  Gn4
 BYTE   W12
 BYTE   N24  Gs4
 BYTE   W24
 BYTE   N11  Gn4
 BYTE   W12
 BYTE   N24  Gs4
 BYTE   W12
//  #01 //117   ----------------------------------------
 BYTE   PATT
  POIN2 Label_01008281
//  #01 //118   ----------------------------------------
 BYTE   PATT
  POIN2 Label_0100828A
//  #01 //119   ----------------------------------------
 BYTE   PATT
  POIN2 Label_0100829C
//  #01 //120   ----------------------------------------
 BYTE   PATT
  POIN2 Label_010082A8
//  #01 //121   ----------------------------------------
 BYTE   EOT
 BYTE   Fn4
 BYTE   VOL   25*Ambience_mvl/mxv
 BYTE   W96
//  #01 //122   ----------------------------------------
 BYTE   W96
//  #01 //123   ----------------------------------------
 BYTE   W96
//  #01 //124   ----------------------------------------
 BYTE   GoTo
  POIN2 Label_01008174
 BYTE   FINE

//**************** Track 2 (Midi-Chn.1) ****************//

Ambience_002:
//  #02 //000   ----------------------------------------
 BYTE   KEYSH   Ambience_key+0
 BYTE   VOICE   40
 BYTE   VOL   9*Ambience_mvl/mxv
 BYTE   MODT 0
 BYTE   LFOS 44
 BYTE   VOL   9*Ambience_mvl/mxv
 BYTE   PAN   c_v+0
 BYTE   TIE  Cn2  v127
 BYTE   W06
 BYTE   VOL   9*Ambience_mvl/mxv
 BYTE   W06
 BYTE   VOL   6*Ambience_mvl/mxv
 BYTE   W06
 BYTE   VOL   10*Ambience_mvl/mxv
 BYTE   W06
 BYTE   VOL   15*Ambience_mvl/mxv
 BYTE   W06
 BYTE   VOL   21*Ambience_mvl/mxv
 BYTE   W06
 BYTE   VOL   27*Ambience_mvl/mxv
 BYTE   W06
 BYTE   VOL   34*Ambience_mvl/mxv
 BYTE   W12
 BYTE   VOL   41*Ambience_mvl/mxv
 BYTE   W06
 BYTE   VOL   50*Ambience_mvl/mxv
 BYTE   W36
//  #02 //001   ----------------------------------------
 BYTE   W96
//  #02 //002   ----------------------------------------
Label_0100782A:
 BYTE   W24
 BYTE   VOL   44*Ambience_mvl/mxv
 BYTE   W06
 BYTE   VOL   44*Ambience_mvl/mxv
 BYTE   W06
 BYTE   VOL   41*Ambience_mvl/mxv
 BYTE   W06
 BYTE   VOL   39*Ambience_mvl/mxv
 BYTE   W06
 BYTE   VOL   37*Ambience_mvl/mxv
 BYTE   W06
 BYTE   VOL   34*Ambience_mvl/mxv
 BYTE   W06
 BYTE   VOL   32*Ambience_mvl/mxv
 BYTE   W06
 BYTE   VOL   29*Ambience_mvl/mxv
 BYTE   W06
 BYTE   VOL   27*Ambience_mvl/mxv
 BYTE   W06
 BYTE   VOL   25*Ambience_mvl/mxv
 BYTE   W06
 BYTE   VOL   23*Ambience_mvl/mxv
 BYTE   W06
 BYTE   VOL   21*Ambience_mvl/mxv
 BYTE   W06
 BYTE   PEND 
//  #02 //003   ----------------------------------------
Label_01007845:
 BYTE   VOL   15*Ambience_mvl/mxv
 BYTE   W06
 BYTE   VOL   17*Ambience_mvl/mxv
 BYTE   W06
 BYTE   VOL   13*Ambience_mvl/mxv
 BYTE   W06
 BYTE   VOL   11*Ambience_mvl/mxv
 BYTE   W06
 BYTE   VOL   10*Ambience_mvl/mxv
 BYTE   W06
 BYTE   VOL   9*Ambience_mvl/mxv
 BYTE   W06
 BYTE   VOL   7*Ambience_mvl/mxv
 BYTE   W06
 BYTE   VOL   6*Ambience_mvl/mxv
 BYTE   W06
 BYTE   VOL   5*Ambience_mvl/mxv
 BYTE   W06
 BYTE   VOL   2*Ambience_mvl/mxv
 BYTE   W06
 BYTE   VOL   3*Ambience_mvl/mxv
 BYTE   W06
 BYTE   VOL   1*Ambience_mvl/mxv
 BYTE   W06
 BYTE   VOL   1*Ambience_mvl/mxv
 BYTE   W06
 BYTE   VOL   0*Ambience_mvl/mxv
 BYTE   W06
 BYTE   VOL   0*Ambience_mvl/mxv
 BYTE   W06
 BYTE   VOL   0*Ambience_mvl/mxv
 BYTE   W06
 BYTE   PEND 
//  #02 //004   ----------------------------------------
 BYTE   EOT
 BYTE   Cn2
Label_01007869:
 BYTE   VOL   9*Ambience_mvl/mxv
 BYTE   TIE  Gs1  v127
 BYTE   W06
 BYTE   VOL   9*Ambience_mvl/mxv
 BYTE   W06
 BYTE   VOL   6*Ambience_mvl/mxv
 BYTE   W06
 BYTE   VOL   10*Ambience_mvl/mxv
 BYTE   W06
 BYTE   VOL   15*Ambience_mvl/mxv
 BYTE   W06
 BYTE   VOL   21*Ambience_mvl/mxv
 BYTE   W06
 BYTE   VOL   27*Ambience_mvl/mxv
 BYTE   W06
 BYTE   VOL   34*Ambience_mvl/mxv
 BYTE   W12
 BYTE   VOL   41*Ambience_mvl/mxv
 BYTE   W06
 BYTE   VOL   50*Ambience_mvl/mxv
 BYTE   W36
 BYTE   PEND 
//  #02 //005   ----------------------------------------
 BYTE   W96
//  #02 //006   ----------------------------------------
 BYTE   PATT
  POIN2 Label_0100782A
//  #02 //007   ----------------------------------------
 BYTE   PATT
  POIN2 Label_01007845
//  #02 //008   ----------------------------------------
 BYTE   EOT
 BYTE   Gs1
 BYTE   W96
//  #02 //009   ----------------------------------------
 BYTE   W96
//  #02 //010   ----------------------------------------
 BYTE   W96
//  #02 //011   ----------------------------------------
 BYTE   W96
//  #02 //012   ----------------------------------------
 BYTE   VOL   9*Ambience_mvl/mxv
 BYTE   TIE  Cn2  v127
 BYTE   W06
 BYTE   VOL   9*Ambience_mvl/mxv
 BYTE   W06
 BYTE   VOL   6*Ambience_mvl/mxv
 BYTE   W06
 BYTE   VOL   10*Ambience_mvl/mxv
 BYTE   W06
 BYTE   VOL   15*Ambience_mvl/mxv
 BYTE   W06
 BYTE   VOL   21*Ambience_mvl/mxv
 BYTE   W06
 BYTE   VOL   27*Ambience_mvl/mxv
 BYTE   W06
 BYTE   VOL   34*Ambience_mvl/mxv
 BYTE   W12
 BYTE   VOL   41*Ambience_mvl/mxv
 BYTE   W06
 BYTE   VOL   50*Ambience_mvl/mxv
 BYTE   W36
//  #02 //013   ----------------------------------------
 BYTE   W96
//  #02 //014   ----------------------------------------
 BYTE   PATT
  POIN2 Label_0100782A
//  #02 //015   ----------------------------------------
 BYTE   PATT
  POIN2 Label_01007845
//  #02 //016   ----------------------------------------
 BYTE   EOT
 BYTE   Cn2
//  #02 //017   ----------------------------------------
 BYTE   PATT
  POIN2 Label_01007869
//  #02 //018   ----------------------------------------
 BYTE   W96
//  #02 //019   ----------------------------------------
 BYTE   PATT
  POIN2 Label_0100782A
//  #02 //020   ----------------------------------------
 BYTE   PATT
  POIN2 Label_01007845
//  #02 //021   ----------------------------------------
 BYTE   EOT
 BYTE   Gs1
 BYTE   VOL   9*Ambience_mvl/mxv
 BYTE   TIE  Fn1  v127
 BYTE   W06
 BYTE   VOL   9*Ambience_mvl/mxv
 BYTE   W06
 BYTE   VOL   6*Ambience_mvl/mxv
 BYTE   W06
 BYTE   VOL   10*Ambience_mvl/mxv
 BYTE   W06
 BYTE   VOL   15*Ambience_mvl/mxv
 BYTE   W06
 BYTE   VOL   21*Ambience_mvl/mxv
 BYTE   W06
 BYTE   VOL   27*Ambience_mvl/mxv
 BYTE   W06
 BYTE   VOL   34*Ambience_mvl/mxv
 BYTE   W12
 BYTE   VOL   41*Ambience_mvl/mxv
 BYTE   W06
 BYTE   VOL   50*Ambience_mvl/mxv
 BYTE   W36
//  #02 //022   ----------------------------------------
 BYTE   W96
//  #02 //023   ----------------------------------------
 BYTE   PATT
  POIN2 Label_0100782A
//  #02 //024   ----------------------------------------
 BYTE   PATT
  POIN2 Label_01007845
//  #02 //025   ----------------------------------------
 BYTE   EOT
 BYTE   Fn1
 BYTE   VOL   9*Ambience_mvl/mxv
 BYTE   TIE  Dn2  v127
 BYTE   W06
 BYTE   VOL   9*Ambience_mvl/mxv
 BYTE   W06
 BYTE   VOL   6*Ambience_mvl/mxv
 BYTE   W06
 BYTE   VOL   10*Ambience_mvl/mxv
 BYTE   W06
 BYTE   VOL   15*Ambience_mvl/mxv
 BYTE   W06
 BYTE   VOL   21*Ambience_mvl/mxv
 BYTE   W06
 BYTE   VOL   27*Ambience_mvl/mxv
 BYTE   W06
 BYTE   VOL   34*Ambience_mvl/mxv
 BYTE   W12
 BYTE   VOL   41*Ambience_mvl/mxv
 BYTE   W06
 BYTE   VOL   50*Ambience_mvl/mxv
 BYTE   W36
//  #02 //026   ----------------------------------------
 BYTE   W96
//  #02 //027   ----------------------------------------
 BYTE   PATT
  POIN2 Label_0100782A
//  #02 //028   ----------------------------------------
 BYTE   PATT
  POIN2 Label_01007845
//  #02 //029   ----------------------------------------
 BYTE   EOT
 BYTE   Dn2
Label_01007918:
 BYTE   W96
//  #02 //030   ----------------------------------------
 BYTE   W96
//  #02 //031   ----------------------------------------
 BYTE   W96
//  #02 //032   ----------------------------------------
 BYTE   W96
//  #02 //033   ----------------------------------------
 BYTE   W96
//  #02 //034   ----------------------------------------
 BYTE   W96
//  #02 //035   ----------------------------------------
 BYTE   W96
//  #02 //036   ----------------------------------------
 BYTE   W96
//  #02 //037   ----------------------------------------
 BYTE   W96
//  #02 //038   ----------------------------------------
 BYTE   W96
//  #02 //039   ----------------------------------------
 BYTE   W96
//  #02 //040   ----------------------------------------
 BYTE   W96
//  #02 //041   ----------------------------------------
 BYTE   W96
//  #02 //042   ----------------------------------------
 BYTE   W96
//  #02 //043   ----------------------------------------
 BYTE   W96
//  #02 //044   ----------------------------------------
 BYTE   W96
//  #02 //045   ----------------------------------------
 BYTE   W96
//  #02 //046   ----------------------------------------
 BYTE   W96
//  #02 //047   ----------------------------------------
 BYTE   W96
//  #02 //048   ----------------------------------------
 BYTE   W96
//  #02 //049   ----------------------------------------
 BYTE   W96
//  #02 //050   ----------------------------------------
 BYTE   W96
//  #02 //051   ----------------------------------------
 BYTE   W96
//  #02 //052   ----------------------------------------
 BYTE   W96
//  #02 //053   ----------------------------------------
 BYTE   W96
//  #02 //054   ----------------------------------------
 BYTE   W96
//  #02 //055   ----------------------------------------
 BYTE   W96
//  #02 //056   ----------------------------------------
 BYTE   W96
//  #02 //057   ----------------------------------------
 BYTE   W96
//  #02 //058   ----------------------------------------
 BYTE   W96
//  #02 //059   ----------------------------------------
 BYTE   W96
//  #02 //060   ----------------------------------------
 BYTE   W96
//  #02 //061   ----------------------------------------
 BYTE   W96
//  #02 //062   ----------------------------------------
 BYTE   W96
//  #02 //063   ----------------------------------------
 BYTE   W96
//  #02 //064   ----------------------------------------
 BYTE   W96
//  #02 //065   ----------------------------------------
 BYTE   W96
//  #02 //066   ----------------------------------------
 BYTE   W96
//  #02 //067   ----------------------------------------
 BYTE   W96
//  #02 //068   ----------------------------------------
 BYTE   W96
//  #02 //069   ----------------------------------------
 BYTE   W96
//  #02 //070   ----------------------------------------
 BYTE   W96
//  #02 //071   ----------------------------------------
 BYTE   W96
//  #02 //072   ----------------------------------------
 BYTE   W96
//  #02 //073   ----------------------------------------
 BYTE   W96
//  #02 //074   ----------------------------------------
 BYTE   W96
//  #02 //075   ----------------------------------------
 BYTE   W96
//  #02 //076   ----------------------------------------
 BYTE   W96
//  #02 //077   ----------------------------------------
 BYTE   W96
//  #02 //078   ----------------------------------------
 BYTE   W96
//  #02 //079   ----------------------------------------
 BYTE   W96
//  #02 //080   ----------------------------------------
 BYTE   W96
//  #02 //081   ----------------------------------------
 BYTE   W96
//  #02 //082   ----------------------------------------
 BYTE   W96
//  #02 //083   ----------------------------------------
 BYTE   W96
//  #02 //084   ----------------------------------------
 BYTE   W96
//  #02 //085   ----------------------------------------
 BYTE   W96
//  #02 //086   ----------------------------------------
 BYTE   W96
//  #02 //087   ----------------------------------------
 BYTE   W96
//  #02 //088   ----------------------------------------
 BYTE   W96
//  #02 //089   ----------------------------------------
 BYTE   W96
//  #02 //090   ----------------------------------------
 BYTE   W96
//  #02 //091   ----------------------------------------
 BYTE   W96
//  #02 //092   ----------------------------------------
 BYTE   W96
//  #02 //093   ----------------------------------------
 BYTE   W96
//  #02 //094   ----------------------------------------
 BYTE   W96
//  #02 //095   ----------------------------------------
 BYTE   W96
//  #02 //096   ----------------------------------------
 BYTE   W96
//  #02 //097   ----------------------------------------
 BYTE   W96
//  #02 //098   ----------------------------------------
 BYTE   W96
//  #02 //099   ----------------------------------------
 BYTE   W96
//  #02 //100   ----------------------------------------
 BYTE   W96
//  #02 //101   ----------------------------------------
 BYTE   W96
//  #02 //102   ----------------------------------------
 BYTE   W96
//  #02 //103   ----------------------------------------
 BYTE   W96
//  #02 //104   ----------------------------------------
 BYTE   W96
//  #02 //105   ----------------------------------------
 BYTE   W96
//  #02 //106   ----------------------------------------
 BYTE   W96
//  #02 //107   ----------------------------------------
 BYTE   W96
//  #02 //108   ----------------------------------------
 BYTE   W96
//  #02 //109   ----------------------------------------
 BYTE   W96
//  #02 //110   ----------------------------------------
 BYTE   W96
//  #02 //111   ----------------------------------------
 BYTE   W96
//  #02 //112   ----------------------------------------
 BYTE   W96
//  #02 //113   ----------------------------------------
 BYTE   W96
//  #02 //114   ----------------------------------------
 BYTE   W96
//  #02 //115   ----------------------------------------
 BYTE   W96
//  #02 //116   ----------------------------------------
 BYTE   W96
//  #02 //117   ----------------------------------------
 BYTE   W96
//  #02 //118   ----------------------------------------
 BYTE   W96
//  #02 //119   ----------------------------------------
 BYTE   W96
//  #02 //120   ----------------------------------------
 BYTE   W96
//  #02 //121   ----------------------------------------
 BYTE   W96
//  #02 //122   ----------------------------------------
 BYTE   W96
//  #02 //123   ----------------------------------------
 BYTE   W96
//  #02 //124   ----------------------------------------
 BYTE   W96
//  #02 //125   ----------------------------------------
 BYTE   GoTo
  POIN2 Label_01007918
 BYTE   FINE

//**************** Track 3 (Midi-Chn.2) ****************//

Ambience_003:
//  #03 //000   ----------------------------------------
 BYTE   KEYSH   Ambience_key+0
 BYTE   VOICE   40
 BYTE   VOL   0*Ambience_mvl/mxv
 BYTE   MODT 0
 BYTE   LFOS 44
 BYTE   VOL   8*Ambience_mvl/mxv
 BYTE   PAN   c_v+0
 BYTE   TIE  Dn5  v032
 BYTE   W06
 BYTE   VOL   0*Ambience_mvl/mxv
 BYTE   W06
 BYTE   VOL   6*Ambience_mvl/mxv
 BYTE   W06
 BYTE   VOL   10*Ambience_mvl/mxv
 BYTE   W06
 BYTE   VOL   15*Ambience_mvl/mxv
 BYTE   W06
 BYTE   VOL   21*Ambience_mvl/mxv
 BYTE   W06
 BYTE   VOL   27*Ambience_mvl/mxv
 BYTE   W06
 BYTE   VOL   34*Ambience_mvl/mxv
 BYTE   W12
 BYTE   VOL   41*Ambience_mvl/mxv
 BYTE   W06
 BYTE   VOL   50*Ambience_mvl/mxv
 BYTE   W36
//  #03 //001   ----------------------------------------
 BYTE   W96
//  #03 //002   ----------------------------------------
 BYTE   W96
//  #03 //003   ----------------------------------------
 BYTE   W96
//  #03 //004   ----------------------------------------
 BYTE   W96
//  #03 //005   ----------------------------------------
 BYTE   W96
//  #03 //006   ----------------------------------------
 BYTE   W96
//  #03 //007   ----------------------------------------
 BYTE   W96
//  #03 //008   ----------------------------------------
 BYTE   W96
//  #03 //009   ----------------------------------------
 BYTE   W96
//  #03 //010   ----------------------------------------
 BYTE   W96
//  #03 //011   ----------------------------------------
 BYTE   W88
 BYTE   W01
 BYTE   EOT
 BYTE   W07
//  #03 //012   ----------------------------------------
 BYTE   VOL   0*Ambience_mvl/mxv
 BYTE   TIE
 BYTE   W06
 BYTE   VOL   0*Ambience_mvl/mxv
 BYTE   W06
 BYTE   VOL   6*Ambience_mvl/mxv
 BYTE   W06
 BYTE   VOL   10*Ambience_mvl/mxv
 BYTE   W06
 BYTE   VOL   15*Ambience_mvl/mxv
 BYTE   W06
 BYTE   VOL   21*Ambience_mvl/mxv
 BYTE   W06
 BYTE   VOL   27*Ambience_mvl/mxv
 BYTE   W06
 BYTE   VOL   34*Ambience_mvl/mxv
 BYTE   W12
 BYTE   VOL   41*Ambience_mvl/mxv
 BYTE   W06
 BYTE   VOL   50*Ambience_mvl/mxv
 BYTE   W36
//  #03 //013   ----------------------------------------
 BYTE   W96
//  #03 //014   ----------------------------------------
 BYTE   W96
//  #03 //015   ----------------------------------------
 BYTE   W96
//  #03 //016   ----------------------------------------
 BYTE   W96
//  #03 //017   ----------------------------------------
 BYTE   W96
//  #03 //018   ----------------------------------------
 BYTE   W96
//  #03 //019   ----------------------------------------
 BYTE   W88
 BYTE   W01
 BYTE   EOT
 BYTE   W07
//  #03 //020   ----------------------------------------
 BYTE   VOL   0*Ambience_mvl/mxv
 BYTE   TIE  As4
 BYTE   W06
 BYTE   VOL   0*Ambience_mvl/mxv
 BYTE   W06
 BYTE   VOL   6*Ambience_mvl/mxv
 BYTE   W06
 BYTE   VOL   10*Ambience_mvl/mxv
 BYTE   W06
 BYTE   VOL   15*Ambience_mvl/mxv
 BYTE   W06
 BYTE   VOL   21*Ambience_mvl/mxv
 BYTE   W06
 BYTE   VOL   27*Ambience_mvl/mxv
 BYTE   W06
 BYTE   VOL   34*Ambience_mvl/mxv
 BYTE   W12
 BYTE   VOL   41*Ambience_mvl/mxv
 BYTE   W06
 BYTE   VOL   50*Ambience_mvl/mxv
 BYTE   W36
//  #03 //021   ----------------------------------------
 BYTE   W96
//  #03 //022   ----------------------------------------
 BYTE   W96
//  #03 //023   ----------------------------------------
 BYTE   W96
//  #03 //024   ----------------------------------------
 BYTE   W96
//  #03 //025   ----------------------------------------
 BYTE   W96
//  #03 //026   ----------------------------------------
 BYTE   W96
//  #03 //027   ----------------------------------------
 BYTE   W96
//  #03 //028   ----------------------------------------
 BYTE   EOT
Label_01007A00:
 BYTE   VOL   31*Ambience_mvl/mxv
 BYTE   W96
//  #03 //029   ----------------------------------------
 BYTE   W96
//  #03 //030   ----------------------------------------
 BYTE   W96
//  #03 //031   ----------------------------------------
 BYTE   W96
//  #03 //032   ----------------------------------------
Label_01007A06:
 BYTE   VOL   0*Ambience_mvl/mxv
 BYTE   TIE  Gn4  v056
 BYTE   W06
 BYTE   VOL   0*Ambience_mvl/mxv
 BYTE   W06
 BYTE   VOL   6*Ambience_mvl/mxv
 BYTE   W06
 BYTE   VOL   10*Ambience_mvl/mxv
 BYTE   W06
 BYTE   VOL   15*Ambience_mvl/mxv
 BYTE   W06
 BYTE   VOL   21*Ambience_mvl/mxv
 BYTE   W06
 BYTE   VOL   27*Ambience_mvl/mxv
 BYTE   W06
 BYTE   VOL   34*Ambience_mvl/mxv
 BYTE   W12
 BYTE   VOL   41*Ambience_mvl/mxv
 BYTE   W06
 BYTE   VOL   50*Ambience_mvl/mxv
 BYTE   W36
 BYTE   PEND 
//  #03 //033   ----------------------------------------
 BYTE   W96
//  #03 //034   ----------------------------------------
 BYTE   W96
//  #03 //035   ----------------------------------------
 BYTE   W96
//  #03 //036   ----------------------------------------
 BYTE   EOT
 BYTE   W96
//  #03 //037   ----------------------------------------
 BYTE   W96
//  #03 //038   ----------------------------------------
 BYTE   W96
//  #03 //039   ----------------------------------------
 BYTE   W96
//  #03 //040   ----------------------------------------
Label_01007A28:
 BYTE   VOL   0*Ambience_mvl/mxv
 BYTE   TIE  Dn5  v088
 BYTE   W06
 BYTE   VOL   0*Ambience_mvl/mxv
 BYTE   W06
 BYTE   VOL   6*Ambience_mvl/mxv
 BYTE   W06
 BYTE   VOL   10*Ambience_mvl/mxv
 BYTE   W06
 BYTE   VOL   15*Ambience_mvl/mxv
 BYTE   W06
 BYTE   VOL   21*Ambience_mvl/mxv
 BYTE   W06
 BYTE   VOL   27*Ambience_mvl/mxv
 BYTE   W06
 BYTE   VOL   34*Ambience_mvl/mxv
 BYTE   W12
 BYTE   VOL   41*Ambience_mvl/mxv
 BYTE   W06
 BYTE   VOL   50*Ambience_mvl/mxv
 BYTE   W36
 BYTE   PEND 
//  #03 //041   ----------------------------------------
Label_01007A42:
 BYTE   W72
 BYTE   BEND   c_v-4
 BYTE   W06
 BYTE   BEND   c_v-8
 BYTE   W06
 BYTE   BEND   c_v-12
 BYTE   W06
 BYTE   BEND   c_v-16
 BYTE   W06
 BYTE   PEND 
//  #03 //042   ----------------------------------------
Label_01007A4D:
 BYTE   BEND   c_v-19
 BYTE   W06
 BYTE   BEND   c_v-23
 BYTE   W06
 BYTE   BEND   c_v-27
 BYTE   W06
 BYTE   BEND   c_v-31
 BYTE   W06
 BYTE   BEND   c_v-34
 BYTE   W06
 BYTE   BEND   c_v-38
 BYTE   W06
 BYTE   BEND   c_v-42
 BYTE   W06
 BYTE   BEND   c_v-46
 BYTE   W06
 BYTE   BEND   c_v-49
 BYTE   W06
 BYTE   BEND   c_v-53
 BYTE   W06
 BYTE   BEND   c_v-57
 BYTE   W06
 BYTE   BEND   c_v-61
 BYTE   W06
 BYTE   BEND   c_v-64
 BYTE   W24
 BYTE   PEND 
//  #03 //043   ----------------------------------------
Label_01007A69:
 BYTE   W24
 BYTE   VOL   27*Ambience_mvl/mxv
 BYTE   W06
 BYTE   VOL   41*Ambience_mvl/mxv
 BYTE   W06
 BYTE   VOL   38*Ambience_mvl/mxv
 BYTE   W06
 BYTE   VOL   34*Ambience_mvl/mxv
 BYTE   W06
 BYTE   VOL   30*Ambience_mvl/mxv
 BYTE   W06
 BYTE   VOL   27*Ambience_mvl/mxv
 BYTE   W06
 BYTE   VOL   24*Ambience_mvl/mxv
 BYTE   W06
 BYTE   VOL   21*Ambience_mvl/mxv
 BYTE   W12
 BYTE   VOL   18*Ambience_mvl/mxv
 BYTE   W06
 BYTE   VOL   15*Ambience_mvl/mxv
 BYTE   W06
 BYTE   VOL   12*Ambience_mvl/mxv
 BYTE   W06
 BYTE   PEND 
//  #03 //044   ----------------------------------------
Label_01007A82:
 BYTE   VOL   0*Ambience_mvl/mxv
 BYTE   W06
 BYTE   VOL   8*Ambience_mvl/mxv
 BYTE   W06
 BYTE   VOL   6*Ambience_mvl/mxv
 BYTE   W06
 BYTE   VOL   5*Ambience_mvl/mxv
 BYTE   W06
 BYTE   VOL   3*Ambience_mvl/mxv
 BYTE   W06
 BYTE   VOL   1*Ambience_mvl/mxv
 BYTE   W06
 BYTE   VOL   0*Ambience_mvl/mxv
 BYTE   W06
 BYTE   VOL   0*Ambience_mvl/mxv
 BYTE   W06
 BYTE   PEND 
 BYTE   EOT
 BYTE   Dn5
 BYTE   W48
//  #03 //045   ----------------------------------------
 BYTE   BEND   c_v+0
 BYTE   W96
//  #03 //046   ----------------------------------------
 BYTE   W96
//  #03 //047   ----------------------------------------
 BYTE   W96
//  #03 //048   ----------------------------------------
 BYTE   W96
//  #03 //049   ----------------------------------------
 BYTE   W96
//  #03 //050   ----------------------------------------
 BYTE   W96
//  #03 //051   ----------------------------------------
 BYTE   W96
//  #03 //052   ----------------------------------------
 BYTE   W96
//  #03 //053   ----------------------------------------
 BYTE   W96
//  #03 //054   ----------------------------------------
 BYTE   W96
//  #03 //055   ----------------------------------------
 BYTE   W96
//  #03 //056   ----------------------------------------
 BYTE   W96
//  #03 //057   ----------------------------------------
 BYTE   W96
//  #03 //058   ----------------------------------------
 BYTE   W96
//  #03 //059   ----------------------------------------
 BYTE   W96
//  #03 //060   ----------------------------------------
 BYTE   W96
//  #03 //061   ----------------------------------------
 BYTE   W96
//  #03 //062   ----------------------------------------
 BYTE   W96
//  #03 //063   ----------------------------------------
 BYTE   W96
//  #03 //064   ----------------------------------------
 BYTE   W96
//  #03 //065   ----------------------------------------
 BYTE   W96
//  #03 //066   ----------------------------------------
 BYTE   W96
//  #03 //067   ----------------------------------------
 BYTE   W96
//  #03 //068   ----------------------------------------
 BYTE   W96
//  #03 //069   ----------------------------------------
 BYTE   W96
//  #03 //070   ----------------------------------------
 BYTE   W96
//  #03 //071   ----------------------------------------
 BYTE   W96
//  #03 //072   ----------------------------------------
 BYTE   W96
//  #03 //073   ----------------------------------------
 BYTE   W96
//  #03 //074   ----------------------------------------
 BYTE   W96
//  #03 //075   ----------------------------------------
 BYTE   W96
//  #03 //076   ----------------------------------------
 BYTE   W96
//  #03 //077   ----------------------------------------
 BYTE   W96
//  #03 //078   ----------------------------------------
 BYTE   W96
//  #03 //079   ----------------------------------------
 BYTE   W96
//  #03 //080   ----------------------------------------
 BYTE   PATT
  POIN2 Label_01007A06
//  #03 //081   ----------------------------------------
 BYTE   W96
//  #03 //082   ----------------------------------------
 BYTE   W96
//  #03 //083   ----------------------------------------
 BYTE   W96
//  #03 //084   ----------------------------------------
 BYTE   EOT
 BYTE   Gn4
 BYTE   W96
//  #03 //085   ----------------------------------------
 BYTE   W96
//  #03 //086   ----------------------------------------
 BYTE   W96
//  #03 //087   ----------------------------------------
 BYTE   W96
//  #03 //088   ----------------------------------------
 BYTE   PATT
  POIN2 Label_01007A28
//  #03 //089   ----------------------------------------
 BYTE   PATT
  POIN2 Label_01007A42
//  #03 //090   ----------------------------------------
 BYTE   PATT
  POIN2 Label_01007A4D
//  #03 //091   ----------------------------------------
 BYTE   PATT
  POIN2 Label_01007A69
//  #03 //092   ----------------------------------------
 BYTE   PATT
  POIN2 Label_01007A82
//  #03 //093   ----------------------------------------
 BYTE   EOT
 BYTE   Dn5
 BYTE   W48
 BYTE   BEND   c_v+0
 BYTE   W96
//  #03 //094   ----------------------------------------
 BYTE   W96
//  #03 //095   ----------------------------------------
 BYTE   W96
//  #03 //096   ----------------------------------------
 BYTE   W96
//  #03 //097   ----------------------------------------
 BYTE   W96
//  #03 //098   ----------------------------------------
 BYTE   W96
//  #03 //099   ----------------------------------------
 BYTE   W96
//  #03 //100   ----------------------------------------
 BYTE   W96
//  #03 //101   ----------------------------------------
 BYTE   W96
//  #03 //102   ----------------------------------------
 BYTE   W96
//  #03 //103   ----------------------------------------
 BYTE   W96
//  #03 //104   ----------------------------------------
 BYTE   W96
//  #03 //105   ----------------------------------------
 BYTE   W96
//  #03 //106   ----------------------------------------
 BYTE   W96
//  #03 //107   ----------------------------------------
 BYTE   W96
//  #03 //108   ----------------------------------------
 BYTE   W96
//  #03 //109   ----------------------------------------
 BYTE   W96
//  #03 //110   ----------------------------------------
 BYTE   W96
//  #03 //111   ----------------------------------------
 BYTE   W96
//  #03 //112   ----------------------------------------
 BYTE   W96
//  #03 //113   ----------------------------------------
 BYTE   W96
//  #03 //114   ----------------------------------------
 BYTE   W96
//  #03 //115   ----------------------------------------
 BYTE   W96
//  #03 //116   ----------------------------------------
 BYTE   W96
//  #03 //117   ----------------------------------------
 BYTE   W96
//  #03 //118   ----------------------------------------
 BYTE   W96
//  #03 //119   ----------------------------------------
 BYTE   W96
//  #03 //120   ----------------------------------------
 BYTE   W96
//  #03 //121   ----------------------------------------
 BYTE   W96
//  #03 //122   ----------------------------------------
 BYTE   W96
//  #03 //123   ----------------------------------------
 BYTE   W96
//  #03 //124   ----------------------------------------
 BYTE   GoTo
  POIN2 Label_01007A00
//  #03 //125   ----------------------------------------
 BYTE   VOL   31*Ambience_mvl/mxv
 BYTE   FINE

//**************** Track 4 (Midi-Chn.3) ****************//

Ambience_004:
//  #04 //000   ----------------------------------------
 BYTE   KEYSH   Ambience_key+0
 BYTE   VOICE   73
 BYTE   MODT 0
 BYTE   LFOS 44
 BYTE   VOL   21*Ambience_mvl/mxv
 BYTE   PAN   c_v-40
 BYTE   W06
 BYTE   N12  Dn4  v036
 BYTE   W12
 BYTE   Ds4
 BYTE   W12
 BYTE   As3
 BYTE   W12
 BYTE   Gn3
 BYTE   W12
 BYTE   Dn4
 BYTE   W12
 BYTE   Ds4
 BYTE   W12
 BYTE   As3
 BYTE   W12
 BYTE   Gn3
 BYTE   W06
//  #04 //001   ----------------------------------------
Label_01007B43:
 BYTE   W06
 BYTE   N12  Dn4  v076
 BYTE   W12
 BYTE   Ds4
 BYTE   W12
 BYTE   As3
 BYTE   W12
 BYTE   Gn3
 BYTE   W12
 BYTE   Dn4
 BYTE   W12
 BYTE   Ds4
 BYTE   W12
 BYTE   As3
 BYTE   W12
 BYTE   Gn3
 BYTE   W06
 BYTE   PEND 
//  #04 //002   ----------------------------------------
Label_01007B57:
 BYTE   W06
 BYTE   N12  Dn4  v127
 BYTE   W12
 BYTE   Ds4
 BYTE   W12
 BYTE   As3
 BYTE   W12
 BYTE   Gn3
 BYTE   W12
 BYTE   Dn4
 BYTE   W12
 BYTE   Ds4
 BYTE   W12
 BYTE   As3
 BYTE   W12
 BYTE   Gn3
 BYTE   W06
 BYTE   PEND 
//  #04 //003   ----------------------------------------
Label_01007B6B:
 BYTE   W06
 BYTE   N12  Dn4  v076
 BYTE   W12
 BYTE   Ds4
 BYTE   W12
 BYTE   As3
 BYTE   W12
 BYTE   Gn3
 BYTE   W12
 BYTE   Dn4  v036
 BYTE   W12
 BYTE   Ds4
 BYTE   W12
 BYTE   As3
 BYTE   W12
 BYTE   Gn3
 BYTE   W06
 BYTE   PEND 
//  #04 //004   ----------------------------------------
Label_01007B80:
 BYTE   W06
 BYTE   N12  Cn4  v076
 BYTE   W12
 BYTE   As3
 BYTE   W12
 BYTE   Ds3
 BYTE   W12
 BYTE   Fn3
 BYTE   W12
 BYTE   Gs3
 BYTE   W12
 BYTE   Gn3
 BYTE   W12
 BYTE   Ds3
 BYTE   W12
 BYTE   Cn3
 BYTE   W06
 BYTE   PEND 
//  #04 //005   ----------------------------------------
Label_01007B94:
 BYTE   W06
 BYTE   N12  Cn4  v127
 BYTE   W12
 BYTE   As3
 BYTE   W12
 BYTE   Ds3
 BYTE   W12
 BYTE   Fn3
 BYTE   W12
 BYTE   Gs3
 BYTE   W12
 BYTE   Gn3
 BYTE   W12
 BYTE   Ds3
 BYTE   W12
 BYTE   Cn3
 BYTE   W06
 BYTE   PEND 
//  #04 //006   ----------------------------------------
 BYTE   PATT
  POIN2 Label_01007B94
//  #04 //007   ----------------------------------------
 BYTE   PATT
  POIN2 Label_01007B80
//  #04 //008   ----------------------------------------
 BYTE   W96
//  #04 //009   ----------------------------------------
 BYTE   W96
//  #04 //010   ----------------------------------------
 BYTE   W96
//  #04 //011   ----------------------------------------
 BYTE   W96
//  #04 //012   ----------------------------------------
 BYTE   W06
 BYTE   N12  Dn4  v036
 BYTE   W12
 BYTE   Ds4
 BYTE   W12
 BYTE   As3
 BYTE   W12
 BYTE   Gn3
 BYTE   W12
 BYTE   Dn4
 BYTE   W12
 BYTE   Ds4
 BYTE   W12
 BYTE   As3
 BYTE   W12
 BYTE   Gn3
 BYTE   W06
//  #04 //013   ----------------------------------------
 BYTE   PATT
  POIN2 Label_01007B43
//  #04 //014   ----------------------------------------
 BYTE   PATT
  POIN2 Label_01007B57
//  #04 //015   ----------------------------------------
 BYTE   PATT
  POIN2 Label_01007B6B
//  #04 //016   ----------------------------------------
 BYTE   PATT
  POIN2 Label_01007B80
//  #04 //017   ----------------------------------------
 BYTE   PATT
  POIN2 Label_01007B94
//  #04 //018   ----------------------------------------
 BYTE   PATT
  POIN2 Label_01007B94
//  #04 //019   ----------------------------------------
 BYTE   PATT
  POIN2 Label_01007B80
//  #04 //020   ----------------------------------------
 BYTE   W06
 BYTE   N12  Gs3  v036
 BYTE   W12
 BYTE   Gn3
 BYTE   W12
 BYTE   Cn3
 BYTE   W12
 BYTE   Ds3
 BYTE   W12
 BYTE   Gs3  v076
 BYTE   W12
 BYTE   Gn3
 BYTE   W12
 BYTE   As3
 BYTE   W12
 BYTE   Fn3
 BYTE   W06
//  #04 //021   ----------------------------------------
Label_01007C00:
 BYTE   W06
 BYTE   N12  Gs3  v127
 BYTE   W12
 BYTE   Gn3
 BYTE   W12
 BYTE   Cn3
 BYTE   W12
 BYTE   Ds3
 BYTE   W12
 BYTE   Gs3
 BYTE   W12
 BYTE   Gn3
 BYTE   W12
 BYTE   As3
 BYTE   W12
 BYTE   Fn3
 BYTE   W06
 BYTE   PEND 
//  #04 //022   ----------------------------------------
 BYTE   PATT
  POIN2 Label_01007C00
//  #04 //023   ----------------------------------------
 BYTE   W06
 BYTE   N12  Gs3  v076
 BYTE   W12
 BYTE   Gn3
 BYTE   W12
 BYTE   Cn3
 BYTE   W12
 BYTE   Ds3
 BYTE   W12
 BYTE   Gs3  v036
 BYTE   W12
 BYTE   Gn3
 BYTE   W12
 BYTE   As3
 BYTE   W12
 BYTE   Fn3
 BYTE   W06
//  #04 //024   ----------------------------------------
Label_01007C2D:
 BYTE   W06
 BYTE   N12  Ds4  v076
 BYTE   W12
 BYTE   Dn4
 BYTE   W12
 BYTE   Gn3
 BYTE   W12
 BYTE   As3
 BYTE   W12
 BYTE   Cn4
 BYTE   W12
 BYTE   As3
 BYTE   W12
 BYTE   Dn3
 BYTE   W12
 BYTE   Fn3
 BYTE   W06
 BYTE   PEND 
//  #04 //025   ----------------------------------------
Label_01007C41:
 BYTE   W06
 BYTE   N12  Ds4  v127
 BYTE   W12
 BYTE   Dn4
 BYTE   W12
 BYTE   Gn3
 BYTE   W12
 BYTE   As3
 BYTE   W12
 BYTE   Cn4
 BYTE   W12
 BYTE   As3
 BYTE   W12
 BYTE   Dn3
 BYTE   W12
 BYTE   Fn3
 BYTE   W06
 BYTE   PEND 
//  #04 //026   ----------------------------------------
 BYTE   PATT
  POIN2 Label_01007C41
//  #04 //027   ----------------------------------------
 BYTE   PATT
  POIN2 Label_01007C2D
//  #04 //028   ----------------------------------------
Label_01007C5F:
 BYTE   VOL   21*Ambience_mvl/mxv
 BYTE   W96
//  #04 //029   ----------------------------------------
 BYTE   W96
//  #04 //030   ----------------------------------------
 BYTE   W96
//  #04 //031   ----------------------------------------
 BYTE   W96
//  #04 //032   ----------------------------------------
 BYTE   W96
//  #04 //033   ----------------------------------------
 BYTE   W96
//  #04 //034   ----------------------------------------
 BYTE   W96
//  #04 //035   ----------------------------------------
 BYTE   W96
//  #04 //036   ----------------------------------------
 BYTE   W96
//  #04 //037   ----------------------------------------
 BYTE   W96
//  #04 //038   ----------------------------------------
 BYTE   W96
//  #04 //039   ----------------------------------------
 BYTE   W48
 BYTE   VOICE   73
 BYTE   W48
//  #04 //040   ----------------------------------------
Label_01007C70:
 BYTE   W06
 BYTE   N06  Dn5  v127
 BYTE   W12
 BYTE   Ds5
 BYTE   W12
 BYTE   As4
 BYTE   W12
 BYTE   Dn5
 BYTE   W12
 BYTE   Ds5
 BYTE   W12
 BYTE   As4  v076
 BYTE   W12
 BYTE   Dn5
 BYTE   W12
 BYTE   Ds5
 BYTE   W06
 BYTE   PEND 
//  #04 //041   ----------------------------------------
Label_01007C85:
 BYTE   W06
 BYTE   N06  As4  v056
 BYTE   W12
 BYTE   Dn5
 BYTE   W12
 BYTE   Ds5
 BYTE   W12
 BYTE   As4
 BYTE   W54
 BYTE   PEND 
//  #04 //042   ----------------------------------------
 BYTE   W96
//  #04 //043   ----------------------------------------
 BYTE   W96
//  #04 //044   ----------------------------------------
 BYTE   W96
//  #04 //045   ----------------------------------------
 BYTE   W96
//  #04 //046   ----------------------------------------
 BYTE   W96
//  #04 //047   ----------------------------------------
 BYTE   W96
//  #04 //048   ----------------------------------------
 BYTE   W96
//  #04 //049   ----------------------------------------
 BYTE   W96
//  #04 //050   ----------------------------------------
 BYTE   W96
//  #04 //051   ----------------------------------------
 BYTE   W96
//  #04 //052   ----------------------------------------
Label_01007C9B:
 BYTE   W12
 BYTE   VOICE   73
 BYTE   W48
 BYTE   N24  Dn4  v127
 BYTE   W24
 BYTE   N11  Cn4
 BYTE   W12
 BYTE   PEND 
//  #04 //053   ----------------------------------------
 BYTE   TIE  Gn3
 BYTE   W96
//  #04 //054   ----------------------------------------
 BYTE   W36
 BYTE   EOT
 BYTE   N11  Dn4
 BYTE   W12
 BYTE   N12  Cn4
 BYTE   W12
 BYTE   N24  Dn4
 BYTE   W24
 BYTE   N11  Ds4
 BYTE   W12
//  #04 //055   ----------------------------------------
Label_01007CB8:
 BYTE   N36  Fn4  v127
 BYTE   W36
 BYTE   N11  Ds4
 BYTE   W12
 BYTE   N36  Dn4
 BYTE   W36
 BYTE   N72  As3
 BYTE   W12
 BYTE   PEND 
//  #04 //056   ----------------------------------------
Label_01007CC6:
 BYTE   W60
 BYTE   N32  As3  v127
 BYTE   W12
 BYTE   BEND   c_v+12
 BYTE   W03
 BYTE   BEND   c_v+25
 BYTE   W03
 BYTE   BEND   c_v+38
 BYTE   W03
 BYTE   BEND   c_v+51
 BYTE   W03
 BYTE   BEND   c_v+63
 BYTE   W12
 BYTE   PEND 
//  #04 //057   ----------------------------------------
Label_01007CD7:
 BYTE   BEND   c_v+0
 BYTE   TIE  Ds3  v127
 BYTE   W96
 BYTE   PEND 
//  #04 //058   ----------------------------------------
 BYTE   W60
 BYTE   EOT
 BYTE   N32  As3
 BYTE   W12
 BYTE   BEND   c_v+12
 BYTE   W03
 BYTE   BEND   c_v+25
 BYTE   W03
 BYTE   BEND   c_v+38
 BYTE   W03
 BYTE   BEND   c_v+51
 BYTE   W03
 BYTE   BEND   c_v+63
 BYTE   W12
//  #04 //059   ----------------------------------------
 BYTE   PATT
  POIN2 Label_01007CD7
//  #04 //060   ----------------------------------------
 BYTE   W36
 BYTE   EOT
 BYTE   Ds3
 BYTE   W24
 BYTE   N24  Dn4  v127
 BYTE   W24
 BYTE   N11  Cn4
 BYTE   W12
//  #04 //061   ----------------------------------------
 BYTE   TIE  Gn3
 BYTE   W96
//  #04 //062   ----------------------------------------
 BYTE   W32
 BYTE   W03
 BYTE   EOT
 BYTE   W01
 BYTE   N11  Dn4
 BYTE   W12
 BYTE   N12  Cn4
 BYTE   W12
 BYTE   N24  Dn4
 BYTE   W24
 BYTE   N11  Ds4
 BYTE   W12
//  #04 //063   ----------------------------------------
Label_01007D11:
 BYTE   N36  Fn4  v127
 BYTE   W36
 BYTE   N11  Gn4
 BYTE   W12
 BYTE   N60  As4
 BYTE   W36
 BYTE   BEND   c_v+12
 BYTE   W03
 BYTE   BEND   c_v+25
 BYTE   W03
 BYTE   BEND   c_v+38
 BYTE   W03
 BYTE   BEND   c_v+51
 BYTE   W03
 BYTE   PEND 
//  #04 //064   ----------------------------------------
Label_01007D25:
 BYTE   BEND   c_v+63
 BYTE   W12
 BYTE   BEND   c_v+0
 BYTE   N48  Ds4  v127
 BYTE   W48
 BYTE   N32  As3
 BYTE   W12
 BYTE   BEND   c_v+12
 BYTE   W03
 BYTE   BEND   c_v+25
 BYTE   W03
 BYTE   BEND   c_v+38
 BYTE   W03
 BYTE   BEND   c_v+51
 BYTE   W03
 BYTE   BEND   c_v+63
 BYTE   W12
 BYTE   PEND 
//  #04 //065   ----------------------------------------
Label_01007D3C:
 BYTE   BEND   c_v+0
 BYTE   N60  Ds3  v127
 BYTE   W60
 BYTE   N32  As4
 BYTE   W12
 BYTE   BEND   c_v+12
 BYTE   W03
 BYTE   BEND   c_v+25
 BYTE   W03
 BYTE   BEND   c_v+38
 BYTE   W03
 BYTE   BEND   c_v+51
 BYTE   W03
 BYTE   BEND   c_v+63
 BYTE   W12
 BYTE   PEND 
//  #04 //066   ----------------------------------------
Label_01007D51:
 BYTE   BEND   c_v+0
 BYTE   N60  Ds4  v127
 BYTE   W60
 BYTE   N32  As3
 BYTE   W12
 BYTE   BEND   c_v+12
 BYTE   W03
 BYTE   BEND   c_v+25
 BYTE   W03
 BYTE   BEND   c_v+38
 BYTE   W03
 BYTE   BEND   c_v+51
 BYTE   W03
 BYTE   BEND   c_v+63
 BYTE   W12
 BYTE   PEND 
//  #04 //067   ----------------------------------------
 BYTE   PATT
  POIN2 Label_01007CD7
//  #04 //068   ----------------------------------------
 BYTE   W13
 BYTE   EOT
 BYTE   Ds3
 BYTE   W05
 BYTE   VOICE   73
 BYTE   W18
 BYTE   N12  Gs4  v127
 BYTE   W12
 BYTE   N11  Gn4
 BYTE   W12
 BYTE   N24  Gs4
 BYTE   W24
 BYTE   N11  Gn4
 BYTE   W12
//  #04 //069   ----------------------------------------
Label_01007D7F:
 BYTE   N24  Gs4  v127
 BYTE   W24
 BYTE   Gn4
 BYTE   W24
 BYTE   N60  Cn4
 BYTE   W48
 BYTE   PEND 
//  #04 //070   ----------------------------------------
Label_01007D89:
 BYTE   W36
 BYTE   N12  Gs4  v127
 BYTE   W12
 BYTE   N11  Gn4
 BYTE   W12
 BYTE   N24  Gs4
 BYTE   W24
 BYTE   N11  Gn4
 BYTE   W12
 BYTE   PEND 
//  #04 //071   ----------------------------------------
Label_01007D98:
 BYTE   N36  As4  v127
 BYTE   W36
 BYTE   N11  Gs4
 BYTE   W12
 BYTE   N36  Gn4
 BYTE   W36
 BYTE   TIE  Fn4
 BYTE   W12
 BYTE   PEND 
//  #04 //072   ----------------------------------------
Label_01007DA6:
 BYTE   W36
 BYTE   VOL   37*Ambience_mvl/mxv
 BYTE   W06
 BYTE   VOL   37*Ambience_mvl/mxv
 BYTE   W06
 BYTE   VOL   32*Ambience_mvl/mxv
 BYTE   W06
 BYTE   VOL   27*Ambience_mvl/mxv
 BYTE   W06
 BYTE   VOL   22*Ambience_mvl/mxv
 BYTE   W06
 BYTE   VOL   17*Ambience_mvl/mxv
 BYTE   W06
 BYTE   VOL   13*Ambience_mvl/mxv
 BYTE   W06
 BYTE   VOL   10*Ambience_mvl/mxv
 BYTE   W06
 BYTE   VOL   6*Ambience_mvl/mxv
 BYTE   W06
 BYTE   VOL   3*Ambience_mvl/mxv
 BYTE   W06
 BYTE   PEND 
//  #04 //073   ----------------------------------------
 BYTE   CsM2
 BYTE   W06
 BYTE   CnM2
 BYTE   W06
 BYTE   EOT
 BYTE   Fn4
 BYTE   VOL   44*Ambience_mvl/mxv
 BYTE   W84
//  #04 //074   ----------------------------------------
 BYTE   W96
//  #04 //075   ----------------------------------------
 BYTE   W96
//  #04 //076   ----------------------------------------
 BYTE   W96
//  #04 //077   ----------------------------------------
 BYTE   W96
//  #04 //078   ----------------------------------------
 BYTE   W96
//  #04 //079   ----------------------------------------
 BYTE   W96
//  #04 //080   ----------------------------------------
 BYTE   W96
//  #04 //081   ----------------------------------------
 BYTE   W96
//  #04 //082   ----------------------------------------
 BYTE   W96
//  #04 //083   ----------------------------------------
 BYTE   W96
//  #04 //084   ----------------------------------------
 BYTE   W96
//  #04 //085   ----------------------------------------
 BYTE   W96
//  #04 //086   ----------------------------------------
 BYTE   W96
//  #04 //087   ----------------------------------------
 BYTE   W48
 BYTE   VOICE   73
 BYTE   W48
//  #04 //088   ----------------------------------------
 BYTE   PATT
  POIN2 Label_01007C70
//  #04 //089   ----------------------------------------
 BYTE   PATT
  POIN2 Label_01007C85
//  #04 //090   ----------------------------------------
 BYTE   W96
//  #04 //091   ----------------------------------------
 BYTE   W96
//  #04 //092   ----------------------------------------
 BYTE   W96
//  #04 //093   ----------------------------------------
 BYTE   W96
//  #04 //094   ----------------------------------------
 BYTE   W96
//  #04 //095   ----------------------------------------
 BYTE   W96
//  #04 //096   ----------------------------------------
 BYTE   W96
//  #04 //097   ----------------------------------------
 BYTE   W96
//  #04 //098   ----------------------------------------
 BYTE   W96
//  #04 //099   ----------------------------------------
 BYTE   W96
//  #04 //100   ----------------------------------------
 BYTE   PATT
  POIN2 Label_01007C9B
//  #04 //101   ----------------------------------------
 BYTE   TIE  Gn3  v127
 BYTE   W96
//  #04 //102   ----------------------------------------
 BYTE   W36
 BYTE   EOT
 BYTE   N11  Dn4
 BYTE   W12
 BYTE   N12  Cn4
 BYTE   W12
 BYTE   N24  Dn4
 BYTE   W24
 BYTE   N11  Ds4
 BYTE   W12
//  #04 //103   ----------------------------------------
 BYTE   PATT
  POIN2 Label_01007CB8
//  #04 //104   ----------------------------------------
 BYTE   PATT
  POIN2 Label_01007CC6
//  #04 //105   ----------------------------------------
 BYTE   PATT
  POIN2 Label_01007CD7
//  #04 //106   ----------------------------------------
 BYTE   W60
 BYTE   EOT
 BYTE   Ds3
 BYTE   N32  As3  v127
 BYTE   W12
 BYTE   BEND   c_v+12
 BYTE   W03
 BYTE   BEND   c_v+25
 BYTE   W03
 BYTE   BEND   c_v+38
 BYTE   W03
 BYTE   BEND   c_v+51
 BYTE   W03
 BYTE   BEND   c_v+63
 BYTE   W12
//  #04 //107   ----------------------------------------
 BYTE   PATT
  POIN2 Label_01007CD7
//  #04 //108   ----------------------------------------
 BYTE   W36
 BYTE   EOT
 BYTE   Ds3
 BYTE   W24
 BYTE   N24  Dn4  v127
 BYTE   W24
 BYTE   N11  Cn4
 BYTE   W12
//  #04 //109   ----------------------------------------
 BYTE   TIE  Gn3
 BYTE   W96
//  #04 //110   ----------------------------------------
 BYTE   W32
 BYTE   W03
 BYTE   EOT
 BYTE   W01
 BYTE   N11  Dn4
 BYTE   W12
 BYTE   N12  Cn4
 BYTE   W12
 BYTE   N24  Dn4
 BYTE   W24
 BYTE   N11  Ds4
 BYTE   W12
//  #04 //111   ----------------------------------------
 BYTE   PATT
  POIN2 Label_01007D11
//  #04 //112   ----------------------------------------
 BYTE   PATT
  POIN2 Label_01007D25
//  #04 //113   ----------------------------------------
 BYTE   PATT
  POIN2 Label_01007D3C
//  #04 //114   ----------------------------------------
 BYTE   PATT
  POIN2 Label_01007D51
//  #04 //115   ----------------------------------------
 BYTE   PATT
  POIN2 Label_01007CD7
//  #04 //116   ----------------------------------------
 BYTE   W13
 BYTE   EOT
 BYTE   Ds3
 BYTE   W05
 BYTE   VOICE   73
 BYTE   W18
 BYTE   N12  Gs4  v127
 BYTE   W12
 BYTE   N11  Gn4
 BYTE   W12
 BYTE   N24  Gs4
 BYTE   W24
 BYTE   N11  Gn4
 BYTE   W12
//  #04 //117   ----------------------------------------
 BYTE   PATT
  POIN2 Label_01007D7F
//  #04 //118   ----------------------------------------
 BYTE   PATT
  POIN2 Label_01007D89
//  #04 //119   ----------------------------------------
 BYTE   PATT
  POIN2 Label_01007D98
//  #04 //120   ----------------------------------------
 BYTE   PATT
  POIN2 Label_01007DA6
//  #04 //121   ----------------------------------------
 BYTE   VOL   8*Ambience_mvl/mxv
 BYTE   W06
 BYTE   VOL   0*Ambience_mvl/mxv
 BYTE   W06
 BYTE   EOT
 BYTE   Fn4
 BYTE   VOL   44*Ambience_mvl/mxv
 BYTE   W84
//  #04 //122   ----------------------------------------
 BYTE   W96
//  #04 //123   ----------------------------------------
 BYTE   W96
//  #04 //124   ----------------------------------------
 BYTE   GoTo
  POIN2 Label_01007C5F
//  #04 //125   ----------------------------------------
 BYTE   VOL   21*Ambience_mvl/mxv
 BYTE   FINE

//**************** Track 5 (Midi-Chn.4) ****************//

Ambience_005:
//  #05 //000   ----------------------------------------
 BYTE   KEYSH   Ambience_key+0
 BYTE   VOICE   40
 BYTE   VOL   0*Ambience_mvl/mxv
 BYTE   MODT 0
 BYTE   LFOS 44
 BYTE   VOL   12*Ambience_mvl/mxv
 BYTE   PAN   c_v+40
 BYTE   TIE  Gn4  v032
 BYTE   W06
 BYTE   VOL   0*Ambience_mvl/mxv
 BYTE   W06
 BYTE   VOL   6*Ambience_mvl/mxv
 BYTE   W06
 BYTE   VOL   10*Ambience_mvl/mxv
 BYTE   W06
 BYTE   VOL   15*Ambience_mvl/mxv
 BYTE   W06
 BYTE   VOL   21*Ambience_mvl/mxv
 BYTE   W06
 BYTE   VOL   27*Ambience_mvl/mxv
 BYTE   W06
 BYTE   VOL   34*Ambience_mvl/mxv
 BYTE   W12
 BYTE   VOL   41*Ambience_mvl/mxv
 BYTE   W06
 BYTE   VOL   50*Ambience_mvl/mxv
 BYTE   W36
//  #05 //001   ----------------------------------------
 BYTE   W96
//  #05 //002   ----------------------------------------
 BYTE   W96
//  #05 //003   ----------------------------------------
 BYTE   W96
//  #05 //004   ----------------------------------------
 BYTE   W96
//  #05 //005   ----------------------------------------
 BYTE   W96
//  #05 //006   ----------------------------------------
 BYTE   W96
//  #05 //007   ----------------------------------------
 BYTE   W96
//  #05 //008   ----------------------------------------
 BYTE   W96
//  #05 //009   ----------------------------------------
 BYTE   W96
//  #05 //010   ----------------------------------------
 BYTE   W96
//  #05 //011   ----------------------------------------
 BYTE   W88
 BYTE   W01
 BYTE   EOT
 BYTE   W07
//  #05 //012   ----------------------------------------
 BYTE   VOL   0*Ambience_mvl/mxv
 BYTE   TIE
 BYTE   W06
 BYTE   VOL   0*Ambience_mvl/mxv
 BYTE   W06
 BYTE   VOL   6*Ambience_mvl/mxv
 BYTE   W06
 BYTE   VOL   10*Ambience_mvl/mxv
 BYTE   W06
 BYTE   VOL   15*Ambience_mvl/mxv
 BYTE   W06
 BYTE   VOL   21*Ambience_mvl/mxv
 BYTE   W06
 BYTE   VOL   27*Ambience_mvl/mxv
 BYTE   W06
 BYTE   VOL   34*Ambience_mvl/mxv
 BYTE   W12
 BYTE   VOL   41*Ambience_mvl/mxv
 BYTE   W06
 BYTE   VOL   50*Ambience_mvl/mxv
 BYTE   W36
//  #05 //013   ----------------------------------------
 BYTE   W96
//  #05 //014   ----------------------------------------
 BYTE   W96
//  #05 //015   ----------------------------------------
 BYTE   W96
//  #05 //016   ----------------------------------------
 BYTE   W96
//  #05 //017   ----------------------------------------
 BYTE   W96
//  #05 //018   ----------------------------------------
 BYTE   W96
//  #05 //019   ----------------------------------------
 BYTE   W88
 BYTE   W01
 BYTE   EOT
 BYTE   W07
//  #05 //020   ----------------------------------------
 BYTE   VOL   0*Ambience_mvl/mxv
 BYTE   TIE  Ds4
 BYTE   W06
 BYTE   VOL   0*Ambience_mvl/mxv
 BYTE   W06
 BYTE   VOL   6*Ambience_mvl/mxv
 BYTE   W06
 BYTE   VOL   10*Ambience_mvl/mxv
 BYTE   W06
 BYTE   VOL   15*Ambience_mvl/mxv
 BYTE   W06
 BYTE   VOL   21*Ambience_mvl/mxv
 BYTE   W06
 BYTE   VOL   27*Ambience_mvl/mxv
 BYTE   W06
 BYTE   VOL   34*Ambience_mvl/mxv
 BYTE   W12
 BYTE   VOL   41*Ambience_mvl/mxv
 BYTE   W06
 BYTE   VOL   50*Ambience_mvl/mxv
 BYTE   W36
//  #05 //021   ----------------------------------------
 BYTE   W96
//  #05 //022   ----------------------------------------
 BYTE   W96
//  #05 //023   ----------------------------------------
 BYTE   W88
 BYTE   W01
 BYTE   EOT
 BYTE   W07
//  #05 //024   ----------------------------------------
 BYTE   VOL   0*Ambience_mvl/mxv
 BYTE   TIE  Fn4
 BYTE   W06
 BYTE   VOL   0*Ambience_mvl/mxv
 BYTE   W06
 BYTE   VOL   6*Ambience_mvl/mxv
 BYTE   W06
 BYTE   VOL   10*Ambience_mvl/mxv
 BYTE   W06
 BYTE   VOL   15*Ambience_mvl/mxv
 BYTE   W06
 BYTE   VOL   21*Ambience_mvl/mxv
 BYTE   W06
 BYTE   VOL   27*Ambience_mvl/mxv
 BYTE   W06
 BYTE   VOL   34*Ambience_mvl/mxv
 BYTE   W12
 BYTE   VOL   41*Ambience_mvl/mxv
 BYTE   W06
 BYTE   VOL   50*Ambience_mvl/mxv
 BYTE   W36
//  #05 //025   ----------------------------------------
 BYTE   W96
//  #05 //026   ----------------------------------------
 BYTE   W96
//  #05 //027   ----------------------------------------
 BYTE   W96
//  #05 //028   ----------------------------------------
 BYTE   EOT
Label_01008746:
 BYTE   VOL   0*Ambience_mvl/mxv
 BYTE   TIE  Dn5  v088
 BYTE   W06
 BYTE   VOL   0*Ambience_mvl/mxv
 BYTE   W06
 BYTE   VOL   6*Ambience_mvl/mxv
 BYTE   W06
 BYTE   VOL   10*Ambience_mvl/mxv
 BYTE   W06
 BYTE   VOL   15*Ambience_mvl/mxv
 BYTE   W06
 BYTE   VOL   21*Ambience_mvl/mxv
 BYTE   W06
 BYTE   VOL   27*Ambience_mvl/mxv
 BYTE   W06
 BYTE   VOL   34*Ambience_mvl/mxv
 BYTE   W12
 BYTE   VOL   41*Ambience_mvl/mxv
 BYTE   W06
 BYTE   VOL   50*Ambience_mvl/mxv
 BYTE   W36
 BYTE   PEND 
//  #05 //029   ----------------------------------------
 BYTE   W96
//  #05 //030   ----------------------------------------
 BYTE   W96
//  #05 //031   ----------------------------------------
 BYTE   W96
//  #05 //032   ----------------------------------------
 BYTE   EOT
Label_01008764:
 BYTE   VOL   0*Ambience_mvl/mxv
 BYTE   TIE  As4  v088
 BYTE   W06
 BYTE   VOL   0*Ambience_mvl/mxv
 BYTE   W06
 BYTE   VOL   6*Ambience_mvl/mxv
 BYTE   W06
 BYTE   VOL   10*Ambience_mvl/mxv
 BYTE   W06
 BYTE   VOL   15*Ambience_mvl/mxv
 BYTE   W06
 BYTE   VOL   21*Ambience_mvl/mxv
 BYTE   W06
 BYTE   VOL   27*Ambience_mvl/mxv
 BYTE   W06
 BYTE   VOL   34*Ambience_mvl/mxv
 BYTE   W12
 BYTE   VOL   41*Ambience_mvl/mxv
 BYTE   W06
 BYTE   VOL   50*Ambience_mvl/mxv
 BYTE   W36
 BYTE   PEND 
//  #05 //033   ----------------------------------------
 BYTE   W96
//  #05 //034   ----------------------------------------
 BYTE   W96
//  #05 //035   ----------------------------------------
 BYTE   W96
//  #05 //036   ----------------------------------------
 BYTE   EOT
//  #05 //037   ----------------------------------------
 BYTE   PATT
  POIN2 Label_01008746
//  #05 //038   ----------------------------------------
 BYTE   W96
//  #05 //039   ----------------------------------------
 BYTE   W96
//  #05 //040   ----------------------------------------
 BYTE   W96
//  #05 //041   ----------------------------------------
 BYTE   EOT
 BYTE   Dn5
//  #05 //042   ----------------------------------------
 BYTE   PATT
  POIN2 Label_01008764
//  #05 //043   ----------------------------------------
 BYTE   W96
//  #05 //044   ----------------------------------------
 BYTE   W96
//  #05 //045   ----------------------------------------
 BYTE   W96
//  #05 //046   ----------------------------------------
 BYTE   EOT
 BYTE   As4
//  #05 //047   ----------------------------------------
 BYTE   PATT
  POIN2 Label_01008764
//  #05 //048   ----------------------------------------
 BYTE   W96
//  #05 //049   ----------------------------------------
 BYTE   W96
//  #05 //050   ----------------------------------------
 BYTE   W96
//  #05 //051   ----------------------------------------
 BYTE   W96
//  #05 //052   ----------------------------------------
 BYTE   W96
//  #05 //053   ----------------------------------------
 BYTE   W96
//  #05 //054   ----------------------------------------
 BYTE   W96
//  #05 //055   ----------------------------------------
 BYTE   EOT
 BYTE   As4
//  #05 //056   ----------------------------------------
 BYTE   PATT
  POIN2 Label_01008746
//  #05 //057   ----------------------------------------
 BYTE   W96
//  #05 //058   ----------------------------------------
 BYTE   W96
//  #05 //059   ----------------------------------------
 BYTE   W96
//  #05 //060   ----------------------------------------
 BYTE   EOT
 BYTE   Dn5
//  #05 //061   ----------------------------------------
 BYTE   PATT
  POIN2 Label_01008764
//  #05 //062   ----------------------------------------
 BYTE   W96
//  #05 //063   ----------------------------------------
 BYTE   W96
//  #05 //064   ----------------------------------------
 BYTE   W96
//  #05 //065   ----------------------------------------
 BYTE   EOT
 BYTE   As4
//  #05 //066   ----------------------------------------
 BYTE   PATT
  POIN2 Label_01008746
//  #05 //067   ----------------------------------------
 BYTE   W96
//  #05 //068   ----------------------------------------
 BYTE   W96
//  #05 //069   ----------------------------------------
 BYTE   W96
//  #05 //070   ----------------------------------------
 BYTE   EOT
 BYTE   Dn5
//  #05 //071   ----------------------------------------
 BYTE   PATT
  POIN2 Label_01008764
//  #05 //072   ----------------------------------------
 BYTE   W96
//  #05 //073   ----------------------------------------
 BYTE   W96
//  #05 //074   ----------------------------------------
 BYTE   W96
//  #05 //075   ----------------------------------------
 BYTE   EOT
 BYTE   As4
//  #05 //076   ----------------------------------------
 BYTE   PATT
  POIN2 Label_01008764
//  #05 //077   ----------------------------------------
 BYTE   W96
//  #05 //078   ----------------------------------------
 BYTE   W96
//  #05 //079   ----------------------------------------
 BYTE   W96
//  #05 //080   ----------------------------------------
 BYTE   W96
//  #05 //081   ----------------------------------------
 BYTE   W96
//  #05 //082   ----------------------------------------
 BYTE   W96
//  #05 //083   ----------------------------------------
 BYTE   W96
//  #05 //084   ----------------------------------------
 BYTE   EOT
 BYTE   As4
//  #05 //085   ----------------------------------------
 BYTE   PATT
  POIN2 Label_01008746
//  #05 //086   ----------------------------------------
 BYTE   W96
//  #05 //087   ----------------------------------------
 BYTE   W96
//  #05 //088   ----------------------------------------
 BYTE   W96
//  #05 //089   ----------------------------------------
 BYTE   EOT
 BYTE   Dn5
//  #05 //090   ----------------------------------------
 BYTE   PATT
  POIN2 Label_01008764
//  #05 //091   ----------------------------------------
 BYTE   W96
//  #05 //092   ----------------------------------------
 BYTE   W96
//  #05 //093   ----------------------------------------
 BYTE   W96
//  #05 //094   ----------------------------------------
 BYTE   EOT
 BYTE   As4
//  #05 //095   ----------------------------------------
 BYTE   PATT
  POIN2 Label_01008746
//  #05 //096   ----------------------------------------
 BYTE   W96
//  #05 //097   ----------------------------------------
 BYTE   W96
//  #05 //098   ----------------------------------------
 BYTE   W96
//  #05 //099   ----------------------------------------
 BYTE   EOT
 BYTE   Dn5
//  #05 //100   ----------------------------------------
 BYTE   PATT
  POIN2 Label_01008764
//  #05 //101   ----------------------------------------
 BYTE   W96
//  #05 //102   ----------------------------------------
 BYTE   W96
//  #05 //103   ----------------------------------------
 BYTE   W96
//  #05 //104   ----------------------------------------
 BYTE   EOT
 BYTE   As4
//  #05 //105   ----------------------------------------
 BYTE   PATT
  POIN2 Label_01008764
//  #05 //106   ----------------------------------------
 BYTE   W96
//  #05 //107   ----------------------------------------
 BYTE   W96
//  #05 //108   ----------------------------------------
 BYTE   W96
//  #05 //109   ----------------------------------------
 BYTE   W96
//  #05 //110   ----------------------------------------
 BYTE   W96
//  #05 //111   ----------------------------------------
 BYTE   W96
//  #05 //112   ----------------------------------------
 BYTE   W96
//  #05 //113   ----------------------------------------
 BYTE   EOT
 BYTE   As4
//  #05 //114   ----------------------------------------
 BYTE   PATT
  POIN2 Label_01008746
//  #05 //115   ----------------------------------------
 BYTE   W96
//  #05 //116   ----------------------------------------
 BYTE   W96
//  #05 //117   ----------------------------------------
 BYTE   W96
//  #05 //118   ----------------------------------------
 BYTE   EOT
 BYTE   Dn5
//  #05 //119   ----------------------------------------
 BYTE   PATT
  POIN2 Label_01008764
//  #05 //120   ----------------------------------------
 BYTE   W96
//  #05 //121   ----------------------------------------
 BYTE   W96
//  #05 //122   ----------------------------------------
 BYTE   W96
//  #05 //123   ----------------------------------------
 BYTE   EOT
 BYTE   As4
//  #05 //124   ----------------------------------------
 BYTE   PATT
  POIN2 Label_01008746
//  #05 //125   ----------------------------------------
 BYTE   W96
//  #05 //126   ----------------------------------------
 BYTE   W96
//  #05 //127   ----------------------------------------
 BYTE   W96
//  #05 //128   ----------------------------------------
 BYTE   EOT
 BYTE   Dn5
//  #05 //129   ----------------------------------------
 BYTE   PATT
  POIN2 Label_01008764
//  #05 //130   ----------------------------------------
 BYTE   W96
//  #05 //131   ----------------------------------------
 BYTE   W96
//  #05 //132   ----------------------------------------
 BYTE   W96
//  #05 //133   ----------------------------------------
 BYTE   EOT
 BYTE   As4
//  #05 //134   ----------------------------------------
 BYTE   PATT
  POIN2 Label_01008764
//  #05 //135   ----------------------------------------
 BYTE   W96
//  #05 //136   ----------------------------------------
 BYTE   W96
//  #05 //137   ----------------------------------------
 BYTE   W96
//  #05 //138   ----------------------------------------
 BYTE   W96
//  #05 //139   ----------------------------------------
 BYTE   W96
//  #05 //140   ----------------------------------------
 BYTE   W96
//  #05 //141   ----------------------------------------
 BYTE   W96
//  #05 //142   ----------------------------------------
 BYTE   EOT
 BYTE   As4
 BYTE   GoTo
  POIN2 Label_01008746
//  #05 //143   ----------------------------------------
 BYTE   VOL   0*Ambience_mvl/mxv
 BYTE   FINE

//**************** Track 6 (Midi-Chn.5) ****************//

Ambience_006:
//  #06 //000   ----------------------------------------
 BYTE   KEYSH   Ambience_key+0
 BYTE   VOICE   40
 BYTE   VOL   0*Ambience_mvl/mxv
 BYTE   MODT 0
 BYTE   LFOS 44
 BYTE   VOL   12*Ambience_mvl/mxv
 BYTE   PAN   c_v-40
 BYTE   TIE  Ds4  v032
 BYTE   W06
 BYTE   VOL   0*Ambience_mvl/mxv
 BYTE   W06
 BYTE   VOL   6*Ambience_mvl/mxv
 BYTE   W06
 BYTE   VOL   10*Ambience_mvl/mxv
 BYTE   W06
 BYTE   VOL   15*Ambience_mvl/mxv
 BYTE   W06
 BYTE   VOL   21*Ambience_mvl/mxv
 BYTE   W06
 BYTE   VOL   27*Ambience_mvl/mxv
 BYTE   W06
 BYTE   VOL   34*Ambience_mvl/mxv
 BYTE   W12
 BYTE   VOL   41*Ambience_mvl/mxv
 BYTE   W06
 BYTE   VOL   50*Ambience_mvl/mxv
 BYTE   W36
//  #06 //001   ----------------------------------------
 BYTE   W96
//  #06 //002   ----------------------------------------
 BYTE   W96
//  #06 //003   ----------------------------------------
 BYTE   W96
//  #06 //004   ----------------------------------------
 BYTE   W96
//  #06 //005   ----------------------------------------
 BYTE   W96
//  #06 //006   ----------------------------------------
 BYTE   W96
//  #06 //007   ----------------------------------------
 BYTE   W96
//  #06 //008   ----------------------------------------
 BYTE   W96
//  #06 //009   ----------------------------------------
 BYTE   W96
//  #06 //010   ----------------------------------------
 BYTE   W96
//  #06 //011   ----------------------------------------
 BYTE   W88
 BYTE   W01
 BYTE   EOT
 BYTE   W07
//  #06 //012   ----------------------------------------
 BYTE   VOL   0*Ambience_mvl/mxv
 BYTE   TIE
 BYTE   W06
 BYTE   VOL   0*Ambience_mvl/mxv
 BYTE   W06
 BYTE   VOL   6*Ambience_mvl/mxv
 BYTE   W06
 BYTE   VOL   10*Ambience_mvl/mxv
 BYTE   W06
 BYTE   VOL   15*Ambience_mvl/mxv
 BYTE   W06
 BYTE   VOL   21*Ambience_mvl/mxv
 BYTE   W06
 BYTE   VOL   27*Ambience_mvl/mxv
 BYTE   W06
 BYTE   VOL   34*Ambience_mvl/mxv
 BYTE   W12
 BYTE   VOL   41*Ambience_mvl/mxv
 BYTE   W06
 BYTE   VOL   50*Ambience_mvl/mxv
 BYTE   W36
//  #06 //013   ----------------------------------------
 BYTE   W96
//  #06 //014   ----------------------------------------
 BYTE   W96
//  #06 //015   ----------------------------------------
 BYTE   W96
//  #06 //016   ----------------------------------------
 BYTE   W96
//  #06 //017   ----------------------------------------
 BYTE   W96
//  #06 //018   ----------------------------------------
 BYTE   W96
//  #06 //019   ----------------------------------------
 BYTE   W88
 BYTE   W01
 BYTE   EOT
 BYTE   W07
//  #06 //020   ----------------------------------------
 BYTE   VOL   0*Ambience_mvl/mxv
 BYTE   TIE  Cn4
 BYTE   W06
 BYTE   VOL   0*Ambience_mvl/mxv
 BYTE   W06
 BYTE   VOL   6*Ambience_mvl/mxv
 BYTE   W06
 BYTE   VOL   10*Ambience_mvl/mxv
 BYTE   W06
 BYTE   VOL   15*Ambience_mvl/mxv
 BYTE   W06
 BYTE   VOL   21*Ambience_mvl/mxv
 BYTE   W06
 BYTE   VOL   27*Ambience_mvl/mxv
 BYTE   W06
 BYTE   VOL   34*Ambience_mvl/mxv
 BYTE   W12
 BYTE   VOL   41*Ambience_mvl/mxv
 BYTE   W06
 BYTE   VOL   50*Ambience_mvl/mxv
 BYTE   W36
//  #06 //021   ----------------------------------------
 BYTE   W96
//  #06 //022   ----------------------------------------
 BYTE   W96
//  #06 //023   ----------------------------------------
 BYTE   W96
//  #06 //024   ----------------------------------------
 BYTE   W96
//  #06 //025   ----------------------------------------
 BYTE   W96
//  #06 //026   ----------------------------------------
 BYTE   W96
//  #06 //027   ----------------------------------------
 BYTE   W96
//  #06 //028   ----------------------------------------
 BYTE   EOT
Label_0100891C:
 BYTE   VOL   0*Ambience_mvl/mxv
 BYTE   TIE  Gn3  v056
 BYTE   W06
 BYTE   VOL   0*Ambience_mvl/mxv
 BYTE   W06
 BYTE   VOL   6*Ambience_mvl/mxv
 BYTE   W06
 BYTE   VOL   10*Ambience_mvl/mxv
 BYTE   W06
 BYTE   VOL   15*Ambience_mvl/mxv
 BYTE   W06
 BYTE   VOL   21*Ambience_mvl/mxv
 BYTE   W06
 BYTE   VOL   27*Ambience_mvl/mxv
 BYTE   W06
 BYTE   VOL   34*Ambience_mvl/mxv
 BYTE   W12
 BYTE   VOL   41*Ambience_mvl/mxv
 BYTE   W06
 BYTE   VOL   50*Ambience_mvl/mxv
 BYTE   W36
 BYTE   PEND 
//  #06 //029   ----------------------------------------
 BYTE   W96
//  #06 //030   ----------------------------------------
 BYTE   W96
//  #06 //031   ----------------------------------------
 BYTE   W96
//  #06 //032   ----------------------------------------
 BYTE   EOT
Label_0100893A:
 BYTE   VOL   0*Ambience_mvl/mxv
 BYTE   TIE  Ds3  v056
 BYTE   W06
 BYTE   VOL   0*Ambience_mvl/mxv
 BYTE   W06
 BYTE   VOL   6*Ambience_mvl/mxv
 BYTE   W06
 BYTE   VOL   10*Ambience_mvl/mxv
 BYTE   W06
 BYTE   VOL   15*Ambience_mvl/mxv
 BYTE   W06
 BYTE   VOL   21*Ambience_mvl/mxv
 BYTE   W06
 BYTE   VOL   27*Ambience_mvl/mxv
 BYTE   W06
 BYTE   VOL   34*Ambience_mvl/mxv
 BYTE   W12
 BYTE   VOL   41*Ambience_mvl/mxv
 BYTE   W06
 BYTE   VOL   50*Ambience_mvl/mxv
 BYTE   W36
 BYTE   PEND 
//  #06 //033   ----------------------------------------
 BYTE   W96
//  #06 //034   ----------------------------------------
 BYTE   W96
//  #06 //035   ----------------------------------------
 BYTE   W96
//  #06 //036   ----------------------------------------
 BYTE   EOT
//  #06 //037   ----------------------------------------
 BYTE   PATT
  POIN2 Label_0100891C
//  #06 //038   ----------------------------------------
 BYTE   W96
//  #06 //039   ----------------------------------------
 BYTE   W96
//  #06 //040   ----------------------------------------
 BYTE   W96
//  #06 //041   ----------------------------------------
 BYTE   EOT
 BYTE   Gn3
//  #06 //042   ----------------------------------------
 BYTE   PATT
  POIN2 Label_0100893A
//  #06 //043   ----------------------------------------
 BYTE   W96
//  #06 //044   ----------------------------------------
 BYTE   W96
//  #06 //045   ----------------------------------------
 BYTE   W96
//  #06 //046   ----------------------------------------
 BYTE   EOT
 BYTE   Ds3
//  #06 //047   ----------------------------------------
 BYTE   PATT
  POIN2 Label_0100893A
//  #06 //048   ----------------------------------------
 BYTE   W96
//  #06 //049   ----------------------------------------
 BYTE   W96
//  #06 //050   ----------------------------------------
 BYTE   W96
//  #06 //051   ----------------------------------------
 BYTE   EOT
 BYTE   Ds3
Label_01008976:
 BYTE   VOL   0*Ambience_mvl/mxv
 BYTE   TIE  Fn3  v056
 BYTE   W06
 BYTE   VOL   0*Ambience_mvl/mxv
 BYTE   W06
 BYTE   VOL   6*Ambience_mvl/mxv
 BYTE   W06
 BYTE   VOL   10*Ambience_mvl/mxv
 BYTE   W06
 BYTE   VOL   15*Ambience_mvl/mxv
 BYTE   W06
 BYTE   VOL   21*Ambience_mvl/mxv
 BYTE   W06
 BYTE   VOL   27*Ambience_mvl/mxv
 BYTE   W06
 BYTE   VOL   34*Ambience_mvl/mxv
 BYTE   W12
 BYTE   VOL   41*Ambience_mvl/mxv
 BYTE   W06
 BYTE   VOL   50*Ambience_mvl/mxv
 BYTE   W36
 BYTE   PEND 
//  #06 //052   ----------------------------------------
 BYTE   W96
//  #06 //053   ----------------------------------------
 BYTE   W96
//  #06 //054   ----------------------------------------
 BYTE   W96
//  #06 //055   ----------------------------------------
 BYTE   EOT
//  #06 //056   ----------------------------------------
 BYTE   PATT
  POIN2 Label_0100891C
//  #06 //057   ----------------------------------------
 BYTE   W96
//  #06 //058   ----------------------------------------
 BYTE   W96
//  #06 //059   ----------------------------------------
 BYTE   W96
//  #06 //060   ----------------------------------------
 BYTE   EOT
 BYTE   Gn3
//  #06 //061   ----------------------------------------
 BYTE   PATT
  POIN2 Label_0100893A
//  #06 //062   ----------------------------------------
 BYTE   W96
//  #06 //063   ----------------------------------------
 BYTE   W96
//  #06 //064   ----------------------------------------
 BYTE   W96
//  #06 //065   ----------------------------------------
 BYTE   EOT
 BYTE   Ds3
//  #06 //066   ----------------------------------------
 BYTE   PATT
  POIN2 Label_0100891C
//  #06 //067   ----------------------------------------
 BYTE   W96
//  #06 //068   ----------------------------------------
 BYTE   W96
//  #06 //069   ----------------------------------------
 BYTE   W96
//  #06 //070   ----------------------------------------
 BYTE   EOT
 BYTE   Gn3
//  #06 //071   ----------------------------------------
 BYTE   PATT
  POIN2 Label_0100893A
//  #06 //072   ----------------------------------------
 BYTE   W96
//  #06 //073   ----------------------------------------
 BYTE   W96
//  #06 //074   ----------------------------------------
 BYTE   W96
//  #06 //075   ----------------------------------------
 BYTE   EOT
 BYTE   Ds3
//  #06 //076   ----------------------------------------
 BYTE   PATT
  POIN2 Label_0100893A
//  #06 //077   ----------------------------------------
 BYTE   W96
//  #06 //078   ----------------------------------------
 BYTE   W96
//  #06 //079   ----------------------------------------
 BYTE   W96
//  #06 //080   ----------------------------------------
 BYTE   EOT
 BYTE   Ds3
//  #06 //081   ----------------------------------------
 BYTE   PATT
  POIN2 Label_01008976
//  #06 //082   ----------------------------------------
 BYTE   W96
//  #06 //083   ----------------------------------------
 BYTE   W96
//  #06 //084   ----------------------------------------
 BYTE   W96
//  #06 //085   ----------------------------------------
 BYTE   EOT
 BYTE   Fn3
//  #06 //086   ----------------------------------------
 BYTE   PATT
  POIN2 Label_0100891C
//  #06 //087   ----------------------------------------
 BYTE   W96
//  #06 //088   ----------------------------------------
 BYTE   W96
//  #06 //089   ----------------------------------------
 BYTE   W96
//  #06 //090   ----------------------------------------
 BYTE   EOT
 BYTE   Gn3
//  #06 //091   ----------------------------------------
 BYTE   PATT
  POIN2 Label_0100893A
//  #06 //092   ----------------------------------------
 BYTE   W96
//  #06 //093   ----------------------------------------
 BYTE   W96
//  #06 //094   ----------------------------------------
 BYTE   W96
//  #06 //095   ----------------------------------------
 BYTE   EOT
 BYTE   Ds3
//  #06 //096   ----------------------------------------
 BYTE   PATT
  POIN2 Label_0100891C
//  #06 //097   ----------------------------------------
 BYTE   W96
//  #06 //098   ----------------------------------------
 BYTE   W96
//  #06 //099   ----------------------------------------
 BYTE   W96
//  #06 //100   ----------------------------------------
 BYTE   EOT
 BYTE   Gn3
//  #06 //101   ----------------------------------------
 BYTE   PATT
  POIN2 Label_0100893A
//  #06 //102   ----------------------------------------
 BYTE   W96
//  #06 //103   ----------------------------------------
 BYTE   W96
//  #06 //104   ----------------------------------------
 BYTE   W96
//  #06 //105   ----------------------------------------
 BYTE   EOT
 BYTE   Ds3
//  #06 //106   ----------------------------------------
 BYTE   PATT
  POIN2 Label_0100893A
//  #06 //107   ----------------------------------------
 BYTE   W96
//  #06 //108   ----------------------------------------
 BYTE   W96
//  #06 //109   ----------------------------------------
 BYTE   W96
//  #06 //110   ----------------------------------------
 BYTE   EOT
 BYTE   Ds3
//  #06 //111   ----------------------------------------
 BYTE   PATT
  POIN2 Label_01008976
//  #06 //112   ----------------------------------------
 BYTE   W96
//  #06 //113   ----------------------------------------
 BYTE   W96
//  #06 //114   ----------------------------------------
 BYTE   W96
//  #06 //115   ----------------------------------------
 BYTE   EOT
 BYTE   Fn3
//  #06 //116   ----------------------------------------
 BYTE   PATT
  POIN2 Label_0100891C
//  #06 //117   ----------------------------------------
 BYTE   W96
//  #06 //118   ----------------------------------------
 BYTE   W96
//  #06 //119   ----------------------------------------
 BYTE   W96
//  #06 //120   ----------------------------------------
 BYTE   EOT
 BYTE   Gn3
//  #06 //121   ----------------------------------------
 BYTE   PATT
  POIN2 Label_0100893A
//  #06 //122   ----------------------------------------
 BYTE   W96
//  #06 //123   ----------------------------------------
 BYTE   W96
//  #06 //124   ----------------------------------------
 BYTE   W96
//  #06 //125   ----------------------------------------
 BYTE   EOT
 BYTE   Ds3
//  #06 //126   ----------------------------------------
 BYTE   PATT
  POIN2 Label_0100891C
//  #06 //127   ----------------------------------------
 BYTE   W96
//  #06 //128   ----------------------------------------
 BYTE   W96
//  #06 //129   ----------------------------------------
 BYTE   W96
//  #06 //130   ----------------------------------------
 BYTE   EOT
 BYTE   Gn3
//  #06 //131   ----------------------------------------
 BYTE   PATT
  POIN2 Label_0100893A
//  #06 //132   ----------------------------------------
 BYTE   W96
//  #06 //133   ----------------------------------------
 BYTE   W96
//  #06 //134   ----------------------------------------
 BYTE   W96
//  #06 //135   ----------------------------------------
 BYTE   EOT
 BYTE   Ds3
//  #06 //136   ----------------------------------------
 BYTE   PATT
  POIN2 Label_0100893A
//  #06 //137   ----------------------------------------
 BYTE   W96
//  #06 //138   ----------------------------------------
 BYTE   W96
//  #06 //139   ----------------------------------------
 BYTE   W96
//  #06 //140   ----------------------------------------
 BYTE   EOT
 BYTE   Ds3
//  #06 //141   ----------------------------------------
 BYTE   PATT
  POIN2 Label_01008976
//  #06 //142   ----------------------------------------
 BYTE   W96
//  #06 //143   ----------------------------------------
 BYTE   W96
//  #06 //144   ----------------------------------------
 BYTE   W96
//  #06 //145   ----------------------------------------
 BYTE   EOT
 BYTE   Fn3
 BYTE   GoTo
  POIN2 Label_0100891C
//  #06 //146   ----------------------------------------
 BYTE   VOL   0*Ambience_mvl/mxv
 BYTE   FINE

//**************** Track 7 (Midi-Chn.6) ****************//

Ambience_007:
//  #07 //000   ----------------------------------------
 BYTE   KEYSH   Ambience_key+0
 BYTE   VOICE   40
 BYTE   VOL   0*Ambience_mvl/mxv
 BYTE   MODT 0
 BYTE   LFOS 44
 BYTE   VOL   12*Ambience_mvl/mxv
 BYTE   PAN   c_v+40
 BYTE   BENDR  12
 BYTE   BEND   c_v+0
 BYTE   TIE  Ds5  v016
 BYTE   W06
 BYTE   VOL   0*Ambience_mvl/mxv
 BYTE   W06
 BYTE   VOL   6*Ambience_mvl/mxv
 BYTE   W06
 BYTE   VOL   10*Ambience_mvl/mxv
 BYTE   W06
 BYTE   VOL   15*Ambience_mvl/mxv
 BYTE   W06
 BYTE   VOL   21*Ambience_mvl/mxv
 BYTE   W06
 BYTE   VOL   27*Ambience_mvl/mxv
 BYTE   W06
 BYTE   VOL   34*Ambience_mvl/mxv
 BYTE   W06
 BYTE   BEND   c_v+0
 BYTE   W06
 BYTE   VOL   3*Ambience_mvl/mxv
 BYTE   BEND   c_v+0
 BYTE   W06
 BYTE   VOL   12*Ambience_mvl/mxv
 BYTE   BEND   c_v+1
 BYTE   W06
 BYTE   BEND   c_v+1
 BYTE   W06
 BYTE   BEND   c_v+1
 BYTE   W06
 BYTE   BEND   c_v+2
 BYTE   W06
 BYTE   BEND   c_v+2
 BYTE   W06
 BYTE   BEND   c_v+2
 BYTE   W06
//  #07 //001   ----------------------------------------
 BYTE   BEND   c_v+3
 BYTE   W06
 BYTE   BEND   c_v+3
 BYTE   W06
 BYTE   BEND   c_v+3
 BYTE   W06
 BYTE   BEND   c_v+4
 BYTE   W06
 BYTE   BEND   c_v+4
 BYTE   W06
 BYTE   BEND   c_v+4
 BYTE   W06
 BYTE   BEND   c_v+5
 BYTE   W06
 BYTE   BEND   c_v+5
 BYTE   W06
 BYTE   BEND   c_v+5
 BYTE   W06
 BYTE   BEND   c_v+6
 BYTE   W06
 BYTE   BEND   c_v+6
 BYTE   W06
 BYTE   BEND   c_v+6
 BYTE   W06
 BYTE   BEND   c_v+7
 BYTE   W06
 BYTE   BEND   c_v+7
 BYTE   W06
 BYTE   BEND   c_v+8
 BYTE   W06
 BYTE   BEND   c_v+8
 BYTE   W06
//  #07 //002   ----------------------------------------
 BYTE   BEND   c_v+8
 BYTE   W06
 BYTE   BEND   c_v+9
 BYTE   W06
 BYTE   BEND   c_v+9
 BYTE   W06
 BYTE   BEND   c_v+9
 BYTE   W06
 BYTE   BEND   c_v+10
 BYTE   W06
 BYTE   BEND   c_v+10
 BYTE   W06
 BYTE   BEND   c_v+10
 BYTE   W06
 BYTE   BEND   c_v+11
 BYTE   W06
 BYTE   BEND   c_v+11
 BYTE   W06
 BYTE   BEND   c_v+11
 BYTE   W06
 BYTE   BEND   c_v+12
 BYTE   W06
 BYTE   BEND   c_v+12
 BYTE   W06
 BYTE   BEND   c_v+12
 BYTE   W06
 BYTE   BEND   c_v+13
 BYTE   W06
 BYTE   BEND   c_v+13
 BYTE   W06
 BYTE   BEND   c_v+13
 BYTE   W06
//  #07 //003   ----------------------------------------
 BYTE   BEND   c_v+14
 BYTE   W06
 BYTE   BEND   c_v+14
 BYTE   W06
 BYTE   BEND   c_v+14
 BYTE   W06
 BYTE   BEND   c_v+15
 BYTE   W06
 BYTE   BEND   c_v+15
 BYTE   W06
 BYTE   BEND   c_v+16
 BYTE   W06
 BYTE   BEND   c_v+16
 BYTE   W06
 BYTE   BEND   c_v+16
 BYTE   W06
 BYTE   BEND   c_v+17
 BYTE   W06
 BYTE   BEND   c_v+17
 BYTE   W06
 BYTE   BEND   c_v+17
 BYTE   W06
 BYTE   BEND   c_v+18
 BYTE   W06
 BYTE   BEND   c_v+18
 BYTE   W06
 BYTE   BEND   c_v+18
 BYTE   W06
 BYTE   BEND   c_v+19
 BYTE   W06
 BYTE   BEND   c_v+19
 BYTE   W06
//  #07 //004   ----------------------------------------
 BYTE   BEND   c_v+19
 BYTE   W06
 BYTE   BEND   c_v+20
 BYTE   W06
 BYTE   BEND   c_v+20
 BYTE   W06
 BYTE   BEND   c_v+20
 BYTE   W06
 BYTE   BEND   c_v+21
 BYTE   W06
 BYTE   BEND   c_v+21
 BYTE   W06
 BYTE   BEND   c_v+21
 BYTE   W06
 BYTE   BEND   c_v+22
 BYTE   W06
 BYTE   BEND   c_v+22
 BYTE   W06
 BYTE   BEND   c_v+22
 BYTE   W06
 BYTE   BEND   c_v+23
 BYTE   W06
 BYTE   BEND   c_v+23
 BYTE   W06
 BYTE   BEND   c_v+24
 BYTE   W06
 BYTE   BEND   c_v+24
 BYTE   W06
 BYTE   BEND   c_v+24
 BYTE   W06
 BYTE   BEND   c_v+25
 BYTE   W06
//  #07 //005   ----------------------------------------
 BYTE   BEND   c_v+25
 BYTE   W06
 BYTE   BEND   c_v+25
 BYTE   W06
 BYTE   BEND   c_v+26
 BYTE   W06
 BYTE   BEND   c_v+26
 BYTE   W06
 BYTE   BEND   c_v+26
 BYTE   W06
 BYTE   BEND   c_v+27
 BYTE   W06
 BYTE   BEND   c_v+27
 BYTE   W06
 BYTE   BEND   c_v+27
 BYTE   W06
 BYTE   BEND   c_v+28
 BYTE   W06
 BYTE   BEND   c_v+28
 BYTE   W06
 BYTE   BEND   c_v+28
 BYTE   W06
 BYTE   BEND   c_v+29
 BYTE   W06
 BYTE   BEND   c_v+29
 BYTE   W06
 BYTE   BEND   c_v+29
 BYTE   W06
 BYTE   BEND   c_v+30
 BYTE   W06
 BYTE   BEND   c_v+30
 BYTE   W06
//  #07 //006   ----------------------------------------
 BYTE   BEND   c_v+30
 BYTE   W06
 BYTE   BEND   c_v+31
 BYTE   W06
 BYTE   BEND   c_v+31
 BYTE   W06
 BYTE   BEND   c_v+31
 BYTE   W06
 BYTE   BEND   c_v+32
 BYTE   W06
 BYTE   BEND   c_v+32
 BYTE   W06
 BYTE   BEND   c_v+33
 BYTE   W06
 BYTE   BEND   c_v+33
 BYTE   W06
 BYTE   BEND   c_v+33
 BYTE   W06
 BYTE   BEND   c_v+34
 BYTE   W06
 BYTE   BEND   c_v+34
 BYTE   W06
 BYTE   BEND   c_v+34
 BYTE   W06
 BYTE   BEND   c_v+35
 BYTE   W06
 BYTE   BEND   c_v+35
 BYTE   W06
 BYTE   BEND   c_v+35
 BYTE   W06
 BYTE   BEND   c_v+36
 BYTE   W06
//  #07 //007   ----------------------------------------
 BYTE   BEND   c_v+36
 BYTE   W06
 BYTE   BEND   c_v+36
 BYTE   W06
 BYTE   BEND   c_v+37
 BYTE   W06
 BYTE   BEND   c_v+37
 BYTE   W06
 BYTE   BEND   c_v+37
 BYTE   W06
 BYTE   BEND   c_v+38
 BYTE   W06
 BYTE   BEND   c_v+38
 BYTE   W06
 BYTE   BEND   c_v+38
 BYTE   W06
 BYTE   BEND   c_v+39
 BYTE   W06
 BYTE   BEND   c_v+39
 BYTE   W06
 BYTE   BEND   c_v+39
 BYTE   W06
 BYTE   BEND   c_v+40
 BYTE   W06
 BYTE   BEND   c_v+40
 BYTE   W06
 BYTE   BEND   c_v+41
 BYTE   W06
 BYTE   BEND   c_v+41
 BYTE   W06
 BYTE   BEND   c_v+41
 BYTE   W06
//  #07 //008   ----------------------------------------
 BYTE   BEND   c_v+42
 BYTE   W06
 BYTE   BEND   c_v+42
 BYTE   W06
 BYTE   BEND   c_v+42
 BYTE   W06
 BYTE   BEND   c_v+43
 BYTE   W06
 BYTE   BEND   c_v+43
 BYTE   W06
 BYTE   BEND   c_v+43
 BYTE   W06
 BYTE   BEND   c_v+44
 BYTE   W06
 BYTE   BEND   c_v+44
 BYTE   W06
 BYTE   BEND   c_v+44
 BYTE   W06
 BYTE   BEND   c_v+45
 BYTE   W06
 BYTE   BEND   c_v+45
 BYTE   W06
 BYTE   BEND   c_v+45
 BYTE   W06
 BYTE   BEND   c_v+46
 BYTE   W06
 BYTE   BEND   c_v+46
 BYTE   W06
 BYTE   BEND   c_v+46
 BYTE   W06
 BYTE   BEND   c_v+47
 BYTE   W06
//  #07 //009   ----------------------------------------
 BYTE   BEND   c_v+47
 BYTE   W06
 BYTE   BEND   c_v+47
 BYTE   W06
 BYTE   BEND   c_v+48
 BYTE   W06
 BYTE   BEND   c_v+48
 BYTE   W06
 BYTE   BEND   c_v+49
 BYTE   W06
 BYTE   BEND   c_v+49
 BYTE   W06
 BYTE   BEND   c_v+49
 BYTE   W06
 BYTE   BEND   c_v+50
 BYTE   W06
 BYTE   BEND   c_v+50
 BYTE   W06
 BYTE   BEND   c_v+50
 BYTE   W06
 BYTE   BEND   c_v+51
 BYTE   W06
 BYTE   BEND   c_v+51
 BYTE   W06
 BYTE   BEND   c_v+51
 BYTE   W06
 BYTE   BEND   c_v+52
 BYTE   W06
 BYTE   BEND   c_v+52
 BYTE   W06
 BYTE   BEND   c_v+52
 BYTE   W06
//  #07 //010   ----------------------------------------
 BYTE   BEND   c_v+53
 BYTE   W06
 BYTE   BEND   c_v+53
 BYTE   W06
 BYTE   BEND   c_v+53
 BYTE   W06
 BYTE   BEND   c_v+54
 BYTE   W06
 BYTE   BEND   c_v+54
 BYTE   W06
 BYTE   BEND   c_v+54
 BYTE   W06
 BYTE   BEND   c_v+55
 BYTE   W06
 BYTE   BEND   c_v+55
 BYTE   W06
 BYTE   BEND   c_v+55
 BYTE   W06
 BYTE   BEND   c_v+56
 BYTE   W06
 BYTE   BEND   c_v+56
 BYTE   W06
 BYTE   BEND   c_v+57
 BYTE   W06
 BYTE   BEND   c_v+57
 BYTE   W06
 BYTE   BEND   c_v+57
 BYTE   W06
 BYTE   BEND   c_v+58
 BYTE   W06
 BYTE   BEND   c_v+58
 BYTE   W06
//  #07 //011   ----------------------------------------
 BYTE   BEND   c_v+58
 BYTE   W06
 BYTE   BEND   c_v+59
 BYTE   W06
 BYTE   BEND   c_v+59
 BYTE   W06
 BYTE   BEND   c_v+59
 BYTE   W06
 BYTE   BEND   c_v+60
 BYTE   W06
 BYTE   BEND   c_v+60
 BYTE   W06
 BYTE   BEND   c_v+60
 BYTE   W06
 BYTE   BEND   c_v+61
 BYTE   W06
 BYTE   BEND   c_v+61
 BYTE   W06
 BYTE   BEND   c_v+61
 BYTE   W06
 BYTE   BEND   c_v+62
 BYTE   W06
 BYTE   BEND   c_v+62
 BYTE   W06
 BYTE   BEND   c_v+62
 BYTE   W06
 BYTE   BEND   c_v+63
 BYTE   W06
 BYTE   BEND   c_v+63
 BYTE   W05
 BYTE   EOT
 BYTE   W01
 BYTE   BEND   c_v+63
 BYTE   W03
 BYTE   VOL   0*Ambience_mvl/mxv
 BYTE   BEND   c_v+0
 BYTE   W03
//  #07 //012   ----------------------------------------
 BYTE   VOL   0*Ambience_mvl/mxv
 BYTE   TIE  En5
 BYTE   W06
 BYTE   VOL   0*Ambience_mvl/mxv
 BYTE   BEND   c_v+0
 BYTE   W06
 BYTE   VOL   0*Ambience_mvl/mxv
 BYTE   BEND   c_v+0
 BYTE   W06
 BYTE   VOL   0*Ambience_mvl/mxv
 BYTE   BEND   c_v+0
 BYTE   W06
 BYTE   VOL   0*Ambience_mvl/mxv
 BYTE   BEND   c_v+1
 BYTE   W06
 BYTE   VOL   0*Ambience_mvl/mxv
 BYTE   BEND   c_v+1
 BYTE   W06
 BYTE   VOL   0*Ambience_mvl/mxv
 BYTE   BEND   c_v+1
 BYTE   W06
 BYTE   VOL   0*Ambience_mvl/mxv
 BYTE   BEND   c_v+1
 BYTE   W06
 BYTE   BEND   c_v+2
 BYTE   W06
 BYTE   VOL   3*Ambience_mvl/mxv
 BYTE   BEND   c_v+2
 BYTE   W06
 BYTE   VOL   12*Ambience_mvl/mxv
 BYTE   BEND   c_v+2
 BYTE   W06
 BYTE   BEND   c_v+2
 BYTE   W06
 BYTE   BEND   c_v+3
 BYTE   W06
 BYTE   BEND   c_v+3
 BYTE   W06
 BYTE   BEND   c_v+3
 BYTE   W06
 BYTE   BEND   c_v+3
 BYTE   W06
//  #07 //013   ----------------------------------------
 BYTE   BEND   c_v+4
 BYTE   W06
 BYTE   BEND   c_v+4
 BYTE   W06
 BYTE   BEND   c_v+4
 BYTE   W06
 BYTE   BEND   c_v+5
 BYTE   W06
 BYTE   BEND   c_v+5
 BYTE   W06
 BYTE   BEND   c_v+5
 BYTE   W06
 BYTE   BEND   c_v+5
 BYTE   W06
 BYTE   BEND   c_v+6
 BYTE   W06
 BYTE   BEND   c_v+6
 BYTE   W06
 BYTE   BEND   c_v+6
 BYTE   W06
 BYTE   BEND   c_v+6
 BYTE   W06
 BYTE   BEND   c_v+7
 BYTE   W06
 BYTE   BEND   c_v+7
 BYTE   W06
 BYTE   BEND   c_v+7
 BYTE   W06
 BYTE   BEND   c_v+7
 BYTE   W06
 BYTE   BEND   c_v+8
 BYTE   W06
//  #07 //014   ----------------------------------------
 BYTE   BEND   c_v+8
 BYTE   W06
 BYTE   BEND   c_v+8
 BYTE   W06
 BYTE   BEND   c_v+9
 BYTE   W06
 BYTE   BEND   c_v+9
 BYTE   W06
 BYTE   BEND   c_v+9
 BYTE   W06
 BYTE   BEND   c_v+9
 BYTE   W06
 BYTE   BEND   c_v+10
 BYTE   W06
 BYTE   BEND   c_v+10
 BYTE   W06
 BYTE   BEND   c_v+10
 BYTE   W06
 BYTE   BEND   c_v+10
 BYTE   W06
 BYTE   BEND   c_v+11
 BYTE   W06
 BYTE   BEND   c_v+11
 BYTE   W06
 BYTE   BEND   c_v+11
 BYTE   W06
 BYTE   BEND   c_v+11
 BYTE   W06
 BYTE   BEND   c_v+12
 BYTE   W06
 BYTE   BEND   c_v+12
 BYTE   W06
//  #07 //015   ----------------------------------------
 BYTE   BEND   c_v+12
 BYTE   W06
 BYTE   BEND   c_v+13
 BYTE   W06
 BYTE   BEND   c_v+13
 BYTE   W06
 BYTE   BEND   c_v+13
 BYTE   W06
 BYTE   BEND   c_v+13
 BYTE   W06
 BYTE   BEND   c_v+14
 BYTE   W06
 BYTE   BEND   c_v+14
 BYTE   W06
 BYTE   BEND   c_v+14
 BYTE   W06
 BYTE   BEND   c_v+14
 BYTE   W06
 BYTE   BEND   c_v+15
 BYTE   W06
 BYTE   BEND   c_v+15
 BYTE   W06
 BYTE   BEND   c_v+15
 BYTE   W06
 BYTE   BEND   c_v+15
 BYTE   W06
 BYTE   BEND   c_v+16
 BYTE   W06
 BYTE   BEND   c_v+16
 BYTE   W06
 BYTE   BEND   c_v+16
 BYTE   W06
//  #07 //016   ----------------------------------------
 BYTE   BEND   c_v+16
 BYTE   W06
 BYTE   BEND   c_v+17
 BYTE   W06
 BYTE   BEND   c_v+17
 BYTE   W06
 BYTE   BEND   c_v+17
 BYTE   W06
 BYTE   BEND   c_v+18
 BYTE   W06
 BYTE   BEND   c_v+18
 BYTE   W06
 BYTE   BEND   c_v+18
 BYTE   W06
 BYTE   BEND   c_v+18
 BYTE   W06
 BYTE   BEND   c_v+19
 BYTE   W06
 BYTE   BEND   c_v+19
 BYTE   W06
 BYTE   BEND   c_v+19
 BYTE   W06
 BYTE   BEND   c_v+19
 BYTE   W06
 BYTE   BEND   c_v+20
 BYTE   W06
 BYTE   BEND   c_v+20
 BYTE   W06
 BYTE   BEND   c_v+20
 BYTE   W06
 BYTE   BEND   c_v+20
 BYTE   W06
//  #07 //017   ----------------------------------------
 BYTE   BEND   c_v+21
 BYTE   W06
 BYTE   BEND   c_v+21
 BYTE   W06
 BYTE   BEND   c_v+21
 BYTE   W06
 BYTE   BEND   c_v+22
 BYTE   W06
 BYTE   BEND   c_v+22
 BYTE   W06
 BYTE   BEND   c_v+22
 BYTE   W06
 BYTE   BEND   c_v+22
 BYTE   W06
 BYTE   BEND   c_v+23
 BYTE   W06
 BYTE   BEND   c_v+23
 BYTE   W06
 BYTE   BEND   c_v+23
 BYTE   W06
 BYTE   BEND   c_v+23
 BYTE   W06
 BYTE   BEND   c_v+24
 BYTE   W06
 BYTE   BEND   c_v+24
 BYTE   W06
 BYTE   BEND   c_v+24
 BYTE   W06
 BYTE   BEND   c_v+24
 BYTE   W06
 BYTE   BEND   c_v+25
 BYTE   W06
//  #07 //018   ----------------------------------------
 BYTE   BEND   c_v+25
 BYTE   W06
 BYTE   BEND   c_v+25
 BYTE   W06
 BYTE   BEND   c_v+26
 BYTE   W06
 BYTE   BEND   c_v+26
 BYTE   W06
 BYTE   BEND   c_v+26
 BYTE   W06
 BYTE   BEND   c_v+26
 BYTE   W06
 BYTE   BEND   c_v+27
 BYTE   W06
 BYTE   BEND   c_v+27
 BYTE   W06
 BYTE   BEND   c_v+27
 BYTE   W06
 BYTE   BEND   c_v+27
 BYTE   W06
 BYTE   BEND   c_v+28
 BYTE   W06
 BYTE   BEND   c_v+28
 BYTE   W06
 BYTE   BEND   c_v+28
 BYTE   W06
 BYTE   BEND   c_v+28
 BYTE   W06
 BYTE   BEND   c_v+29
 BYTE   W06
 BYTE   BEND   c_v+29
 BYTE   W06
//  #07 //019   ----------------------------------------
 BYTE   BEND   c_v+29
 BYTE   W06
 BYTE   BEND   c_v+30
 BYTE   W06
 BYTE   BEND   c_v+30
 BYTE   W06
 BYTE   BEND   c_v+30
 BYTE   W06
 BYTE   BEND   c_v+30
 BYTE   W06
 BYTE   BEND   c_v+31
 BYTE   W06
 BYTE   BEND   c_v+31
 BYTE   W06
 BYTE   BEND   c_v+31
 BYTE   W06
 BYTE   BEND   c_v+31
 BYTE   W06
 BYTE   BEND   c_v+32
 BYTE   W06
 BYTE   BEND   c_v+32
 BYTE   W06
 BYTE   BEND   c_v+32
 BYTE   W06
 BYTE   BEND   c_v+32
 BYTE   W06
 BYTE   BEND   c_v+33
 BYTE   W06
 BYTE   BEND   c_v+33
 BYTE   W06
 BYTE   BEND   c_v+33
 BYTE   W06
//  #07 //020   ----------------------------------------
 BYTE   BEND   c_v+33
 BYTE   W06
 BYTE   BEND   c_v+34
 BYTE   W06
 BYTE   BEND   c_v+34
 BYTE   W06
 BYTE   BEND   c_v+34
 BYTE   W06
 BYTE   BEND   c_v+35
 BYTE   W06
 BYTE   BEND   c_v+35
 BYTE   W06
 BYTE   BEND   c_v+35
 BYTE   W06
 BYTE   BEND   c_v+35
 BYTE   W06
 BYTE   BEND   c_v+36
 BYTE   W06
 BYTE   BEND   c_v+36
 BYTE   W06
 BYTE   BEND   c_v+36
 BYTE   W06
 BYTE   BEND   c_v+36
 BYTE   W06
 BYTE   BEND   c_v+37
 BYTE   W06
 BYTE   BEND   c_v+37
 BYTE   W06
 BYTE   BEND   c_v+37
 BYTE   W06
 BYTE   BEND   c_v+37
 BYTE   W06
//  #07 //021   ----------------------------------------
 BYTE   BEND   c_v+38
 BYTE   W06
 BYTE   BEND   c_v+38
 BYTE   W06
 BYTE   BEND   c_v+38
 BYTE   W06
 BYTE   BEND   c_v+39
 BYTE   W06
 BYTE   BEND   c_v+39
 BYTE   W06
 BYTE   BEND   c_v+39
 BYTE   W06
 BYTE   BEND   c_v+39
 BYTE   W06
 BYTE   BEND   c_v+40
 BYTE   W06
 BYTE   BEND   c_v+40
 BYTE   W06
 BYTE   BEND   c_v+40
 BYTE   W06
 BYTE   BEND   c_v+40
 BYTE   W06
 BYTE   BEND   c_v+41
 BYTE   W06
 BYTE   BEND   c_v+41
 BYTE   W06
 BYTE   BEND   c_v+41
 BYTE   W06
 BYTE   BEND   c_v+41
 BYTE   W06
 BYTE   BEND   c_v+42
 BYTE   W06
//  #07 //022   ----------------------------------------
 BYTE   BEND   c_v+42
 BYTE   W06
 BYTE   BEND   c_v+42
 BYTE   W06
 BYTE   BEND   c_v+43
 BYTE   W06
 BYTE   BEND   c_v+43
 BYTE   W06
 BYTE   BEND   c_v+43
 BYTE   W06
 BYTE   BEND   c_v+43
 BYTE   W06
 BYTE   BEND   c_v+44
 BYTE   W06
 BYTE   BEND   c_v+44
 BYTE   W06
 BYTE   BEND   c_v+44
 BYTE   W06
 BYTE   BEND   c_v+44
 BYTE   W06
 BYTE   BEND   c_v+45
 BYTE   W06
 BYTE   BEND   c_v+45
 BYTE   W06
 BYTE   BEND   c_v+45
 BYTE   W06
 BYTE   BEND   c_v+45
 BYTE   W06
 BYTE   BEND   c_v+46
 BYTE   W06
 BYTE   BEND   c_v+46
 BYTE   W06
//  #07 //023   ----------------------------------------
 BYTE   BEND   c_v+46
 BYTE   W06
 BYTE   BEND   c_v+47
 BYTE   W06
 BYTE   BEND   c_v+47
 BYTE   W06
 BYTE   BEND   c_v+47
 BYTE   W06
 BYTE   BEND   c_v+47
 BYTE   W06
 BYTE   BEND   c_v+48
 BYTE   W06
 BYTE   BEND   c_v+48
 BYTE   W06
 BYTE   BEND   c_v+48
 BYTE   W06
 BYTE   BEND   c_v+48
 BYTE   W06
 BYTE   BEND   c_v+49
 BYTE   W06
 BYTE   BEND   c_v+49
 BYTE   W06
 BYTE   BEND   c_v+49
 BYTE   W06
 BYTE   BEND   c_v+49
 BYTE   W06
 BYTE   BEND   c_v+50
 BYTE   W06
 BYTE   BEND   c_v+50
 BYTE   W06
 BYTE   BEND   c_v+50
 BYTE   W06
//  #07 //024   ----------------------------------------
 BYTE   BEND   c_v+50
 BYTE   W06
 BYTE   BEND   c_v+51
 BYTE   W06
 BYTE   BEND   c_v+51
 BYTE   W06
 BYTE   BEND   c_v+51
 BYTE   W06
 BYTE   BEND   c_v+52
 BYTE   W06
 BYTE   BEND   c_v+52
 BYTE   W06
 BYTE   BEND   c_v+52
 BYTE   W06
 BYTE   BEND   c_v+52
 BYTE   W06
 BYTE   BEND   c_v+53
 BYTE   W06
 BYTE   BEND   c_v+53
 BYTE   W06
 BYTE   BEND   c_v+53
 BYTE   W06
 BYTE   BEND   c_v+53
 BYTE   W06
 BYTE   BEND   c_v+54
 BYTE   W06
 BYTE   BEND   c_v+54
 BYTE   W06
 BYTE   BEND   c_v+54
 BYTE   W06
 BYTE   BEND   c_v+54
 BYTE   W06
//  #07 //025   ----------------------------------------
 BYTE   BEND   c_v+55
 BYTE   W06
 BYTE   BEND   c_v+55
 BYTE   W06
 BYTE   BEND   c_v+55
 BYTE   W06
 BYTE   BEND   c_v+56
 BYTE   W78
//  #07 //026   ----------------------------------------
 BYTE   BEND   c_v+56
 BYTE   W06
 BYTE   BEND   c_v+56
 BYTE   W06
 BYTE   BEND   c_v+56
 BYTE   W06
 BYTE   BEND   c_v+57
 BYTE   W06
 BYTE   BEND   c_v+57
 BYTE   W06
 BYTE   BEND   c_v+57
 BYTE   W06
 BYTE   BEND   c_v+57
 BYTE   W06
 BYTE   BEND   c_v+58
 BYTE   W06
 BYTE   BEND   c_v+58
 BYTE   W06
 BYTE   BEND   c_v+58
 BYTE   W06
 BYTE   BEND   c_v+58
 BYTE   W06
 BYTE   BEND   c_v+59
 BYTE   W12
 BYTE   BEND   c_v+59
 BYTE   W06
 BYTE   BEND   c_v+59
 BYTE   W06
 BYTE   BEND   c_v+60
 BYTE   W06
//  #07 //027   ----------------------------------------
 BYTE   BEND   c_v+60
 BYTE   W06
 BYTE   BEND   c_v+60
 BYTE   W06
 BYTE   BEND   c_v+60
 BYTE   W06
 BYTE   BEND   c_v+61
 BYTE   W06
 BYTE   BEND   c_v+61
 BYTE   W06
 BYTE   BEND   c_v+61
 BYTE   W06
 BYTE   BEND   c_v+61
 BYTE   W06
 BYTE   BEND   c_v+62
 BYTE   W12
 BYTE   BEND   c_v+62
 BYTE   W06
 BYTE   BEND   c_v+62
 BYTE   W06
 BYTE   BEND   c_v+62
 BYTE   W06
 BYTE   BEND   c_v+63
 BYTE   W06
 BYTE   BEND   c_v+63
 BYTE   W06
 BYTE   BEND   c_v+63
 BYTE   W05
 BYTE   EOT
 BYTE   W01
 BYTE   BEND   c_v+63
 BYTE   W03
 BYTE   BEND   c_v+0
 BYTE   W03
//  #07 //028   ----------------------------------------
Label_0100926B:
 BYTE   W96
//  #07 //029   ----------------------------------------
 BYTE   W96
//  #07 //030   ----------------------------------------
 BYTE   W96
//  #07 //031   ----------------------------------------
 BYTE   W96
//  #07 //032   ----------------------------------------
 BYTE   W96
//  #07 //033   ----------------------------------------
 BYTE   W96
//  #07 //034   ----------------------------------------
 BYTE   W96
//  #07 //035   ----------------------------------------
 BYTE   W96
//  #07 //036   ----------------------------------------
 BYTE   W96
//  #07 //037   ----------------------------------------
 BYTE   W96
//  #07 //038   ----------------------------------------
 BYTE   W96
//  #07 //039   ----------------------------------------
 BYTE   W96
//  #07 //040   ----------------------------------------
 BYTE   W96
//  #07 //041   ----------------------------------------
 BYTE   W96
//  #07 //042   ----------------------------------------
 BYTE   W96
//  #07 //043   ----------------------------------------
 BYTE   W96
//  #07 //044   ----------------------------------------
 BYTE   W96
//  #07 //045   ----------------------------------------
 BYTE   W96
//  #07 //046   ----------------------------------------
 BYTE   W96
//  #07 //047   ----------------------------------------
 BYTE   W96
//  #07 //048   ----------------------------------------
 BYTE   W96
//  #07 //049   ----------------------------------------
 BYTE   W96
//  #07 //050   ----------------------------------------
 BYTE   W96
//  #07 //051   ----------------------------------------
 BYTE   W96
//  #07 //052   ----------------------------------------
 BYTE   W96
//  #07 //053   ----------------------------------------
 BYTE   W96
//  #07 //054   ----------------------------------------
 BYTE   W96
//  #07 //055   ----------------------------------------
 BYTE   W96
//  #07 //056   ----------------------------------------
 BYTE   W96
//  #07 //057   ----------------------------------------
 BYTE   W96
//  #07 //058   ----------------------------------------
 BYTE   W96
//  #07 //059   ----------------------------------------
 BYTE   W96
//  #07 //060   ----------------------------------------
 BYTE   W96
//  #07 //061   ----------------------------------------
 BYTE   W96
//  #07 //062   ----------------------------------------
 BYTE   W96
//  #07 //063   ----------------------------------------
 BYTE   W96
//  #07 //064   ----------------------------------------
 BYTE   W96
//  #07 //065   ----------------------------------------
 BYTE   W96
//  #07 //066   ----------------------------------------
 BYTE   W96
//  #07 //067   ----------------------------------------
 BYTE   W96
//  #07 //068   ----------------------------------------
 BYTE   W96
//  #07 //069   ----------------------------------------
 BYTE   W96
//  #07 //070   ----------------------------------------
 BYTE   W96
//  #07 //071   ----------------------------------------
 BYTE   W96
//  #07 //072   ----------------------------------------
 BYTE   W96
//  #07 //073   ----------------------------------------
 BYTE   W96
//  #07 //074   ----------------------------------------
 BYTE   W96
//  #07 //075   ----------------------------------------
 BYTE   W96
//  #07 //076   ----------------------------------------
 BYTE   W96
//  #07 //077   ----------------------------------------
 BYTE   W96
//  #07 //078   ----------------------------------------
 BYTE   W96
//  #07 //079   ----------------------------------------
 BYTE   W96
//  #07 //080   ----------------------------------------
 BYTE   W96
//  #07 //081   ----------------------------------------
 BYTE   W96
//  #07 //082   ----------------------------------------
 BYTE   W96
//  #07 //083   ----------------------------------------
 BYTE   W96
//  #07 //084   ----------------------------------------
 BYTE   W96
//  #07 //085   ----------------------------------------
 BYTE   W96
//  #07 //086   ----------------------------------------
 BYTE   W96
//  #07 //087   ----------------------------------------
 BYTE   W96
//  #07 //088   ----------------------------------------
 BYTE   W96
//  #07 //089   ----------------------------------------
 BYTE   W96
//  #07 //090   ----------------------------------------
 BYTE   W96
//  #07 //091   ----------------------------------------
 BYTE   W96
//  #07 //092   ----------------------------------------
 BYTE   W96
//  #07 //093   ----------------------------------------
 BYTE   W96
//  #07 //094   ----------------------------------------
 BYTE   W96
//  #07 //095   ----------------------------------------
 BYTE   W96
//  #07 //096   ----------------------------------------
 BYTE   W96
//  #07 //097   ----------------------------------------
 BYTE   W96
//  #07 //098   ----------------------------------------
 BYTE   W96
//  #07 //099   ----------------------------------------
 BYTE   W96
//  #07 //100   ----------------------------------------
 BYTE   W96
//  #07 //101   ----------------------------------------
 BYTE   W96
//  #07 //102   ----------------------------------------
 BYTE   W96
//  #07 //103   ----------------------------------------
 BYTE   W96
//  #07 //104   ----------------------------------------
 BYTE   W96
//  #07 //105   ----------------------------------------
 BYTE   W96
//  #07 //106   ----------------------------------------
 BYTE   W96
//  #07 //107   ----------------------------------------
 BYTE   W96
//  #07 //108   ----------------------------------------
 BYTE   W96
//  #07 //109   ----------------------------------------
 BYTE   W96
//  #07 //110   ----------------------------------------
 BYTE   W96
//  #07 //111   ----------------------------------------
 BYTE   W96
//  #07 //112   ----------------------------------------
 BYTE   W96
//  #07 //113   ----------------------------------------
 BYTE   W96
//  #07 //114   ----------------------------------------
 BYTE   W96
//  #07 //115   ----------------------------------------
 BYTE   W96
//  #07 //116   ----------------------------------------
 BYTE   W96
//  #07 //117   ----------------------------------------
 BYTE   W96
//  #07 //118   ----------------------------------------
 BYTE   W96
//  #07 //119   ----------------------------------------
 BYTE   W96
//  #07 //120   ----------------------------------------
 BYTE   W96
//  #07 //121   ----------------------------------------
 BYTE   W96
//  #07 //122   ----------------------------------------
 BYTE   W96
//  #07 //123   ----------------------------------------
 BYTE   W96
//  #07 //124   ----------------------------------------
 BYTE   GoTo
  POIN2 Label_0100926B
 BYTE   FINE

//**************** Track 8 (Midi-Chn.7) ****************//

Ambience_008:
//  #08 //000   ----------------------------------------
 BYTE   KEYSH   Ambience_key+0
 BYTE   VOICE   40
 BYTE   VOL   0*Ambience_mvl/mxv
 BYTE   MODT 0
 BYTE   LFOS 44
 BYTE   VOL   12*Ambience_mvl/mxv
 BYTE   PAN   c_v-40
 BYTE   BENDR  12
 BYTE   BEND   c_v+0
 BYTE   TIE  Cs5  v016
 BYTE   W06
 BYTE   VOL   0*Ambience_mvl/mxv
 BYTE   W06
 BYTE   VOL   6*Ambience_mvl/mxv
 BYTE   W06
 BYTE   VOL   10*Ambience_mvl/mxv
 BYTE   W06
 BYTE   VOL   15*Ambience_mvl/mxv
 BYTE   W06
 BYTE   VOL   21*Ambience_mvl/mxv
 BYTE   W06
 BYTE   VOL   27*Ambience_mvl/mxv
 BYTE   W06
 BYTE   VOL   34*Ambience_mvl/mxv
 BYTE   W06
 BYTE   BEND   c_v+0
 BYTE   W06
 BYTE   VOL   3*Ambience_mvl/mxv
 BYTE   BEND   c_v+0
 BYTE   W06
 BYTE   VOL   12*Ambience_mvl/mxv
 BYTE   BEND   c_v+1
 BYTE   W06
 BYTE   BEND   c_v+1
 BYTE   W06
 BYTE   BEND   c_v+1
 BYTE   W06
 BYTE   BEND   c_v+2
 BYTE   W06
 BYTE   BEND   c_v+2
 BYTE   W06
 BYTE   BEND   c_v+2
 BYTE   W06
//  #08 //001   ----------------------------------------
 BYTE   BEND   c_v+3
 BYTE   W06
 BYTE   BEND   c_v+3
 BYTE   W06
 BYTE   BEND   c_v+3
 BYTE   W06
 BYTE   BEND   c_v+4
 BYTE   W06
 BYTE   BEND   c_v+4
 BYTE   W06
 BYTE   BEND   c_v+4
 BYTE   W06
 BYTE   BEND   c_v+5
 BYTE   W06
 BYTE   BEND   c_v+5
 BYTE   W06
 BYTE   BEND   c_v+5
 BYTE   W06
 BYTE   BEND   c_v+6
 BYTE   W06
 BYTE   BEND   c_v+6
 BYTE   W06
 BYTE   BEND   c_v+6
 BYTE   W06
 BYTE   BEND   c_v+7
 BYTE   W06
 BYTE   BEND   c_v+7
 BYTE   W06
 BYTE   BEND   c_v+8
 BYTE   W06
 BYTE   BEND   c_v+8
 BYTE   W06
//  #08 //002   ----------------------------------------
 BYTE   BEND   c_v+8
 BYTE   W06
 BYTE   BEND   c_v+9
 BYTE   W06
 BYTE   BEND   c_v+9
 BYTE   W06
 BYTE   BEND   c_v+9
 BYTE   W06
 BYTE   BEND   c_v+10
 BYTE   W06
 BYTE   BEND   c_v+10
 BYTE   W06
 BYTE   BEND   c_v+10
 BYTE   W06
 BYTE   BEND   c_v+11
 BYTE   W06
 BYTE   BEND   c_v+11
 BYTE   W06
 BYTE   BEND   c_v+11
 BYTE   W06
 BYTE   BEND   c_v+12
 BYTE   W06
 BYTE   BEND   c_v+12
 BYTE   W06
 BYTE   BEND   c_v+12
 BYTE   W06
 BYTE   BEND   c_v+13
 BYTE   W06
 BYTE   BEND   c_v+13
 BYTE   W06
 BYTE   BEND   c_v+13
 BYTE   W06
//  #08 //003   ----------------------------------------
 BYTE   BEND   c_v+14
 BYTE   W06
 BYTE   BEND   c_v+14
 BYTE   W06
 BYTE   BEND   c_v+14
 BYTE   W06
 BYTE   BEND   c_v+15
 BYTE   W06
 BYTE   BEND   c_v+15
 BYTE   W06
 BYTE   BEND   c_v+16
 BYTE   W06
 BYTE   BEND   c_v+16
 BYTE   W06
 BYTE   BEND   c_v+16
 BYTE   W06
 BYTE   BEND   c_v+17
 BYTE   W06
 BYTE   BEND   c_v+17
 BYTE   W06
 BYTE   BEND   c_v+17
 BYTE   W06
 BYTE   BEND   c_v+18
 BYTE   W06
 BYTE   BEND   c_v+18
 BYTE   W06
 BYTE   BEND   c_v+18
 BYTE   W06
 BYTE   BEND   c_v+19
 BYTE   W06
 BYTE   BEND   c_v+19
 BYTE   W06
//  #08 //004   ----------------------------------------
 BYTE   BEND   c_v+19
 BYTE   W06
 BYTE   BEND   c_v+20
 BYTE   W06
 BYTE   BEND   c_v+20
 BYTE   W06
 BYTE   BEND   c_v+20
 BYTE   W06
 BYTE   BEND   c_v+21
 BYTE   W06
 BYTE   BEND   c_v+21
 BYTE   W06
 BYTE   BEND   c_v+21
 BYTE   W06
 BYTE   BEND   c_v+22
 BYTE   W06
 BYTE   BEND   c_v+22
 BYTE   W06
 BYTE   BEND   c_v+22
 BYTE   W06
 BYTE   BEND   c_v+23
 BYTE   W06
 BYTE   BEND   c_v+23
 BYTE   W06
 BYTE   BEND   c_v+24
 BYTE   W06
 BYTE   BEND   c_v+24
 BYTE   W06
 BYTE   BEND   c_v+24
 BYTE   W06
 BYTE   BEND   c_v+25
 BYTE   W06
//  #08 //005   ----------------------------------------
 BYTE   BEND   c_v+25
 BYTE   W06
 BYTE   BEND   c_v+25
 BYTE   W06
 BYTE   BEND   c_v+26
 BYTE   W06
 BYTE   BEND   c_v+26
 BYTE   W06
 BYTE   BEND   c_v+26
 BYTE   W06
 BYTE   BEND   c_v+27
 BYTE   W06
 BYTE   BEND   c_v+27
 BYTE   W06
 BYTE   BEND   c_v+27
 BYTE   W06
 BYTE   BEND   c_v+28
 BYTE   W06
 BYTE   BEND   c_v+28
 BYTE   W06
 BYTE   BEND   c_v+28
 BYTE   W06
 BYTE   BEND   c_v+29
 BYTE   W06
 BYTE   BEND   c_v+29
 BYTE   W06
 BYTE   BEND   c_v+29
 BYTE   W06
 BYTE   BEND   c_v+30
 BYTE   W06
 BYTE   BEND   c_v+30
 BYTE   W06
//  #08 //006   ----------------------------------------
 BYTE   BEND   c_v+30
 BYTE   W06
 BYTE   BEND   c_v+31
 BYTE   W06
 BYTE   BEND   c_v+31
 BYTE   W06
 BYTE   BEND   c_v+31
 BYTE   W06
 BYTE   BEND   c_v+32
 BYTE   W06
 BYTE   BEND   c_v+32
 BYTE   W06
 BYTE   BEND   c_v+33
 BYTE   W06
 BYTE   BEND   c_v+33
 BYTE   W06
 BYTE   BEND   c_v+33
 BYTE   W06
 BYTE   BEND   c_v+34
 BYTE   W06
 BYTE   BEND   c_v+34
 BYTE   W06
 BYTE   BEND   c_v+34
 BYTE   W06
 BYTE   BEND   c_v+35
 BYTE   W06
 BYTE   BEND   c_v+35
 BYTE   W06
 BYTE   BEND   c_v+35
 BYTE   W06
 BYTE   BEND   c_v+36
 BYTE   W06
//  #08 //007   ----------------------------------------
 BYTE   BEND   c_v+36
 BYTE   W06
 BYTE   BEND   c_v+36
 BYTE   W06
 BYTE   BEND   c_v+37
 BYTE   W06
 BYTE   BEND   c_v+37
 BYTE   W06
 BYTE   BEND   c_v+37
 BYTE   W06
 BYTE   BEND   c_v+38
 BYTE   W06
 BYTE   BEND   c_v+38
 BYTE   W06
 BYTE   BEND   c_v+38
 BYTE   W06
 BYTE   BEND   c_v+39
 BYTE   W06
 BYTE   BEND   c_v+39
 BYTE   W06
 BYTE   BEND   c_v+39
 BYTE   W06
 BYTE   BEND   c_v+40
 BYTE   W06
 BYTE   BEND   c_v+40
 BYTE   W06
 BYTE   BEND   c_v+41
 BYTE   W06
 BYTE   BEND   c_v+41
 BYTE   W06
 BYTE   BEND   c_v+41
 BYTE   W06
//  #08 //008   ----------------------------------------
 BYTE   BEND   c_v+42
 BYTE   W06
 BYTE   BEND   c_v+42
 BYTE   W06
 BYTE   BEND   c_v+42
 BYTE   W06
 BYTE   BEND   c_v+43
 BYTE   W06
 BYTE   BEND   c_v+43
 BYTE   W06
 BYTE   BEND   c_v+43
 BYTE   W06
 BYTE   BEND   c_v+44
 BYTE   W06
 BYTE   BEND   c_v+44
 BYTE   W06
 BYTE   BEND   c_v+44
 BYTE   W06
 BYTE   BEND   c_v+45
 BYTE   W06
 BYTE   BEND   c_v+45
 BYTE   W06
 BYTE   BEND   c_v+45
 BYTE   W06
 BYTE   BEND   c_v+46
 BYTE   W06
 BYTE   BEND   c_v+46
 BYTE   W06
 BYTE   BEND   c_v+46
 BYTE   W06
 BYTE   BEND   c_v+47
 BYTE   W06
//  #08 //009   ----------------------------------------
 BYTE   BEND   c_v+47
 BYTE   W06
 BYTE   BEND   c_v+47
 BYTE   W06
 BYTE   BEND   c_v+48
 BYTE   W06
 BYTE   BEND   c_v+48
 BYTE   W06
 BYTE   BEND   c_v+49
 BYTE   W06
 BYTE   BEND   c_v+49
 BYTE   W06
 BYTE   BEND   c_v+49
 BYTE   W06
 BYTE   BEND   c_v+50
 BYTE   W06
 BYTE   BEND   c_v+50
 BYTE   W06
 BYTE   BEND   c_v+50
 BYTE   W06
 BYTE   BEND   c_v+51
 BYTE   W06
 BYTE   BEND   c_v+51
 BYTE   W06
 BYTE   BEND   c_v+51
 BYTE   W06
 BYTE   BEND   c_v+52
 BYTE   W06
 BYTE   BEND   c_v+52
 BYTE   W06
 BYTE   BEND   c_v+52
 BYTE   W06
//  #08 //010   ----------------------------------------
 BYTE   BEND   c_v+53
 BYTE   W06
 BYTE   BEND   c_v+53
 BYTE   W06
 BYTE   BEND   c_v+53
 BYTE   W06
 BYTE   BEND   c_v+54
 BYTE   W06
 BYTE   BEND   c_v+54
 BYTE   W06
 BYTE   BEND   c_v+54
 BYTE   W06
 BYTE   BEND   c_v+55
 BYTE   W06
 BYTE   BEND   c_v+55
 BYTE   W06
 BYTE   BEND   c_v+55
 BYTE   W06
 BYTE   BEND   c_v+56
 BYTE   W06
 BYTE   BEND   c_v+56
 BYTE   W06
 BYTE   BEND   c_v+57
 BYTE   W06
 BYTE   BEND   c_v+57
 BYTE   W06
 BYTE   BEND   c_v+57
 BYTE   W06
 BYTE   BEND   c_v+58
 BYTE   W06
 BYTE   BEND   c_v+58
 BYTE   W06
//  #08 //011   ----------------------------------------
 BYTE   BEND   c_v+58
 BYTE   W06
 BYTE   BEND   c_v+59
 BYTE   W06
 BYTE   BEND   c_v+59
 BYTE   W06
 BYTE   BEND   c_v+59
 BYTE   W06
 BYTE   BEND   c_v+60
 BYTE   W06
 BYTE   BEND   c_v+60
 BYTE   W06
 BYTE   BEND   c_v+60
 BYTE   W06
 BYTE   BEND   c_v+61
 BYTE   W06
 BYTE   BEND   c_v+61
 BYTE   W06
 BYTE   BEND   c_v+61
 BYTE   W06
 BYTE   BEND   c_v+62
 BYTE   W06
 BYTE   BEND   c_v+62
 BYTE   W06
 BYTE   BEND   c_v+62
 BYTE   W06
 BYTE   BEND   c_v+63
 BYTE   W06
 BYTE   BEND   c_v+63
 BYTE   W05
 BYTE   EOT
 BYTE   W01
 BYTE   BEND   c_v+63
 BYTE   W03
 BYTE   VOL   0*Ambience_mvl/mxv
 BYTE   BEND   c_v+0
 BYTE   W03
//  #08 //012   ----------------------------------------
 BYTE   VOL   0*Ambience_mvl/mxv
 BYTE   TIE  Ds5
 BYTE   W06
 BYTE   VOL   0*Ambience_mvl/mxv
 BYTE   BEND   c_v+0
 BYTE   W06
 BYTE   VOL   0*Ambience_mvl/mxv
 BYTE   BEND   c_v+0
 BYTE   W06
 BYTE   VOL   0*Ambience_mvl/mxv
 BYTE   BEND   c_v+0
 BYTE   W06
 BYTE   VOL   0*Ambience_mvl/mxv
 BYTE   BEND   c_v+1
 BYTE   W06
 BYTE   VOL   0*Ambience_mvl/mxv
 BYTE   BEND   c_v+1
 BYTE   W06
 BYTE   VOL   0*Ambience_mvl/mxv
 BYTE   BEND   c_v+1
 BYTE   W06
 BYTE   VOL   0*Ambience_mvl/mxv
 BYTE   BEND   c_v+1
 BYTE   W06
 BYTE   BEND   c_v+2
 BYTE   W06
 BYTE   VOL   3*Ambience_mvl/mxv
 BYTE   BEND   c_v+2
 BYTE   W06
 BYTE   VOL   12*Ambience_mvl/mxv
 BYTE   BEND   c_v+2
 BYTE   W06
 BYTE   BEND   c_v+2
 BYTE   W06
 BYTE   BEND   c_v+3
 BYTE   W06
 BYTE   BEND   c_v+3
 BYTE   W06
 BYTE   BEND   c_v+3
 BYTE   W06
 BYTE   BEND   c_v+3
 BYTE   W06
//  #08 //013   ----------------------------------------
 BYTE   BEND   c_v+4
 BYTE   W06
 BYTE   BEND   c_v+4
 BYTE   W06
 BYTE   BEND   c_v+4
 BYTE   W06
 BYTE   BEND   c_v+5
 BYTE   W06
 BYTE   BEND   c_v+5
 BYTE   W06
 BYTE   BEND   c_v+5
 BYTE   W06
 BYTE   BEND   c_v+5
 BYTE   W06
 BYTE   BEND   c_v+6
 BYTE   W06
 BYTE   BEND   c_v+6
 BYTE   W06
 BYTE   BEND   c_v+6
 BYTE   W06
 BYTE   BEND   c_v+6
 BYTE   W06
 BYTE   BEND   c_v+7
 BYTE   W06
 BYTE   BEND   c_v+7
 BYTE   W06
 BYTE   BEND   c_v+7
 BYTE   W06
 BYTE   BEND   c_v+7
 BYTE   W06
 BYTE   BEND   c_v+8
 BYTE   W06
//  #08 //014   ----------------------------------------
 BYTE   BEND   c_v+8
 BYTE   W06
 BYTE   BEND   c_v+8
 BYTE   W06
 BYTE   BEND   c_v+9
 BYTE   W06
 BYTE   BEND   c_v+9
 BYTE   W06
 BYTE   BEND   c_v+9
 BYTE   W06
 BYTE   BEND   c_v+9
 BYTE   W06
 BYTE   BEND   c_v+10
 BYTE   W06
 BYTE   BEND   c_v+10
 BYTE   W06
 BYTE   BEND   c_v+10
 BYTE   W06
 BYTE   BEND   c_v+10
 BYTE   W06
 BYTE   BEND   c_v+11
 BYTE   W06
 BYTE   BEND   c_v+11
 BYTE   W06
 BYTE   BEND   c_v+11
 BYTE   W06
 BYTE   BEND   c_v+11
 BYTE   W06
 BYTE   BEND   c_v+12
 BYTE   W06
 BYTE   BEND   c_v+12
 BYTE   W06
//  #08 //015   ----------------------------------------
 BYTE   BEND   c_v+12
 BYTE   W06
 BYTE   BEND   c_v+13
 BYTE   W06
 BYTE   BEND   c_v+13
 BYTE   W06
 BYTE   BEND   c_v+13
 BYTE   W06
 BYTE   BEND   c_v+13
 BYTE   W06
 BYTE   BEND   c_v+14
 BYTE   W06
 BYTE   BEND   c_v+14
 BYTE   W06
 BYTE   BEND   c_v+14
 BYTE   W06
 BYTE   BEND   c_v+14
 BYTE   W06
 BYTE   BEND   c_v+15
 BYTE   W06
 BYTE   BEND   c_v+15
 BYTE   W06
 BYTE   BEND   c_v+15
 BYTE   W06
 BYTE   BEND   c_v+15
 BYTE   W06
 BYTE   BEND   c_v+16
 BYTE   W06
 BYTE   BEND   c_v+16
 BYTE   W06
 BYTE   BEND   c_v+16
 BYTE   W06
//  #08 //016   ----------------------------------------
 BYTE   BEND   c_v+16
 BYTE   W06
 BYTE   BEND   c_v+17
 BYTE   W06
 BYTE   BEND   c_v+17
 BYTE   W06
 BYTE   BEND   c_v+17
 BYTE   W06
 BYTE   BEND   c_v+18
 BYTE   W06
 BYTE   BEND   c_v+18
 BYTE   W06
 BYTE   BEND   c_v+18
 BYTE   W06
 BYTE   BEND   c_v+18
 BYTE   W06
 BYTE   BEND   c_v+19
 BYTE   W06
 BYTE   BEND   c_v+19
 BYTE   W06
 BYTE   BEND   c_v+19
 BYTE   W06
 BYTE   BEND   c_v+19
 BYTE   W06
 BYTE   BEND   c_v+20
 BYTE   W06
 BYTE   BEND   c_v+20
 BYTE   W06
 BYTE   BEND   c_v+20
 BYTE   W06
 BYTE   BEND   c_v+20
 BYTE   W06
//  #08 //017   ----------------------------------------
 BYTE   BEND   c_v+21
 BYTE   W06
 BYTE   BEND   c_v+21
 BYTE   W06
 BYTE   BEND   c_v+21
 BYTE   W06
 BYTE   BEND   c_v+22
 BYTE   W06
 BYTE   BEND   c_v+22
 BYTE   W06
 BYTE   BEND   c_v+22
 BYTE   W06
 BYTE   BEND   c_v+22
 BYTE   W06
 BYTE   BEND   c_v+23
 BYTE   W06
 BYTE   BEND   c_v+23
 BYTE   W06
 BYTE   BEND   c_v+23
 BYTE   W06
 BYTE   BEND   c_v+23
 BYTE   W06
 BYTE   BEND   c_v+24
 BYTE   W06
 BYTE   BEND   c_v+24
 BYTE   W06
 BYTE   BEND   c_v+24
 BYTE   W06
 BYTE   BEND   c_v+24
 BYTE   W06
 BYTE   BEND   c_v+25
 BYTE   W06
//  #08 //018   ----------------------------------------
 BYTE   BEND   c_v+25
 BYTE   W06
 BYTE   BEND   c_v+25
 BYTE   W06
 BYTE   BEND   c_v+26
 BYTE   W06
 BYTE   BEND   c_v+26
 BYTE   W06
 BYTE   BEND   c_v+26
 BYTE   W06
 BYTE   BEND   c_v+26
 BYTE   W06
 BYTE   BEND   c_v+27
 BYTE   W06
 BYTE   BEND   c_v+27
 BYTE   W06
 BYTE   BEND   c_v+27
 BYTE   W06
 BYTE   BEND   c_v+27
 BYTE   W06
 BYTE   BEND   c_v+28
 BYTE   W06
 BYTE   BEND   c_v+28
 BYTE   W06
 BYTE   BEND   c_v+28
 BYTE   W06
 BYTE   BEND   c_v+28
 BYTE   W06
 BYTE   BEND   c_v+29
 BYTE   W06
 BYTE   BEND   c_v+29
 BYTE   W06
//  #08 //019   ----------------------------------------
 BYTE   BEND   c_v+29
 BYTE   W06
 BYTE   BEND   c_v+30
 BYTE   W06
 BYTE   BEND   c_v+30
 BYTE   W06
 BYTE   BEND   c_v+30
 BYTE   W06
 BYTE   BEND   c_v+30
 BYTE   W06
 BYTE   BEND   c_v+31
 BYTE   W06
 BYTE   BEND   c_v+31
 BYTE   W06
 BYTE   BEND   c_v+31
 BYTE   W06
 BYTE   BEND   c_v+31
 BYTE   W06
 BYTE   BEND   c_v+32
 BYTE   W06
 BYTE   BEND   c_v+32
 BYTE   W06
 BYTE   BEND   c_v+32
 BYTE   W06
 BYTE   BEND   c_v+32
 BYTE   W06
 BYTE   BEND   c_v+33
 BYTE   W06
 BYTE   BEND   c_v+33
 BYTE   W06
 BYTE   BEND   c_v+33
 BYTE   W06
//  #08 //020   ----------------------------------------
 BYTE   BEND   c_v+33
 BYTE   W06
 BYTE   BEND   c_v+34
 BYTE   W06
 BYTE   BEND   c_v+34
 BYTE   W06
 BYTE   BEND   c_v+34
 BYTE   W06
 BYTE   BEND   c_v+35
 BYTE   W06
 BYTE   BEND   c_v+35
 BYTE   W06
 BYTE   BEND   c_v+35
 BYTE   W06
 BYTE   BEND   c_v+35
 BYTE   W06
 BYTE   BEND   c_v+36
 BYTE   W06
 BYTE   BEND   c_v+36
 BYTE   W06
 BYTE   BEND   c_v+36
 BYTE   W06
 BYTE   BEND   c_v+36
 BYTE   W06
 BYTE   BEND   c_v+37
 BYTE   W06
 BYTE   BEND   c_v+37
 BYTE   W06
 BYTE   BEND   c_v+37
 BYTE   W06
 BYTE   BEND   c_v+37
 BYTE   W06
//  #08 //021   ----------------------------------------
 BYTE   BEND   c_v+38
 BYTE   W06
 BYTE   BEND   c_v+38
 BYTE   W06
 BYTE   BEND   c_v+38
 BYTE   W06
 BYTE   BEND   c_v+39
 BYTE   W06
 BYTE   BEND   c_v+39
 BYTE   W06
 BYTE   BEND   c_v+39
 BYTE   W06
 BYTE   BEND   c_v+39
 BYTE   W06
 BYTE   BEND   c_v+40
 BYTE   W06
 BYTE   BEND   c_v+40
 BYTE   W06
 BYTE   BEND   c_v+40
 BYTE   W06
 BYTE   BEND   c_v+40
 BYTE   W06
 BYTE   BEND   c_v+41
 BYTE   W06
 BYTE   BEND   c_v+41
 BYTE   W06
 BYTE   BEND   c_v+41
 BYTE   W06
 BYTE   BEND   c_v+41
 BYTE   W06
 BYTE   BEND   c_v+42
 BYTE   W06
//  #08 //022   ----------------------------------------
 BYTE   BEND   c_v+42
 BYTE   W06
 BYTE   BEND   c_v+42
 BYTE   W06
 BYTE   BEND   c_v+43
 BYTE   W06
 BYTE   BEND   c_v+43
 BYTE   W06
 BYTE   BEND   c_v+43
 BYTE   W06
 BYTE   BEND   c_v+43
 BYTE   W06
 BYTE   BEND   c_v+44
 BYTE   W06
 BYTE   BEND   c_v+44
 BYTE   W06
 BYTE   BEND   c_v+44
 BYTE   W06
 BYTE   BEND   c_v+44
 BYTE   W06
 BYTE   BEND   c_v+45
 BYTE   W06
 BYTE   BEND   c_v+45
 BYTE   W06
 BYTE   BEND   c_v+45
 BYTE   W06
 BYTE   BEND   c_v+45
 BYTE   W06
 BYTE   BEND   c_v+46
 BYTE   W06
 BYTE   BEND   c_v+46
 BYTE   W06
//  #08 //023   ----------------------------------------
 BYTE   BEND   c_v+46
 BYTE   W06
 BYTE   BEND   c_v+47
 BYTE   W06
 BYTE   BEND   c_v+47
 BYTE   W06
 BYTE   BEND   c_v+47
 BYTE   W06
 BYTE   BEND   c_v+47
 BYTE   W06
 BYTE   BEND   c_v+48
 BYTE   W06
 BYTE   BEND   c_v+48
 BYTE   W06
 BYTE   BEND   c_v+48
 BYTE   W06
 BYTE   BEND   c_v+48
 BYTE   W06
 BYTE   BEND   c_v+49
 BYTE   W06
 BYTE   BEND   c_v+49
 BYTE   W06
 BYTE   BEND   c_v+49
 BYTE   W06
 BYTE   BEND   c_v+49
 BYTE   W06
 BYTE   BEND   c_v+50
 BYTE   W06
 BYTE   BEND   c_v+50
 BYTE   W06
 BYTE   BEND   c_v+50
 BYTE   W06
//  #08 //024   ----------------------------------------
 BYTE   BEND   c_v+50
 BYTE   W06
 BYTE   BEND   c_v+51
 BYTE   W06
 BYTE   BEND   c_v+51
 BYTE   W06
 BYTE   BEND   c_v+51
 BYTE   W06
 BYTE   BEND   c_v+52
 BYTE   W06
 BYTE   BEND   c_v+52
 BYTE   W06
 BYTE   BEND   c_v+52
 BYTE   W06
 BYTE   BEND   c_v+52
 BYTE   W06
 BYTE   BEND   c_v+53
 BYTE   W06
 BYTE   BEND   c_v+53
 BYTE   W06
 BYTE   BEND   c_v+53
 BYTE   W06
 BYTE   BEND   c_v+53
 BYTE   W06
 BYTE   BEND   c_v+54
 BYTE   W06
 BYTE   BEND   c_v+54
 BYTE   W06
 BYTE   BEND   c_v+54
 BYTE   W06
 BYTE   BEND   c_v+54
 BYTE   W06
//  #08 //025   ----------------------------------------
 BYTE   BEND   c_v+55
 BYTE   W06
 BYTE   BEND   c_v+55
 BYTE   W06
 BYTE   BEND   c_v+55
 BYTE   W06
 BYTE   BEND   c_v+56
 BYTE   W78
//  #08 //026   ----------------------------------------
 BYTE   BEND   c_v+56
 BYTE   W06
 BYTE   BEND   c_v+56
 BYTE   W06
 BYTE   BEND   c_v+56
 BYTE   W06
 BYTE   BEND   c_v+57
 BYTE   W06
 BYTE   BEND   c_v+57
 BYTE   W06
 BYTE   BEND   c_v+57
 BYTE   W06
 BYTE   BEND   c_v+57
 BYTE   W06
 BYTE   BEND   c_v+58
 BYTE   W06
 BYTE   BEND   c_v+58
 BYTE   W06
 BYTE   BEND   c_v+58
 BYTE   W06
 BYTE   BEND   c_v+58
 BYTE   W06
 BYTE   BEND   c_v+59
 BYTE   W12
 BYTE   BEND   c_v+59
 BYTE   W06
 BYTE   BEND   c_v+59
 BYTE   W06
 BYTE   BEND   c_v+60
 BYTE   W06
//  #08 //027   ----------------------------------------
 BYTE   BEND   c_v+60
 BYTE   W06
 BYTE   BEND   c_v+60
 BYTE   W06
 BYTE   BEND   c_v+60
 BYTE   W06
 BYTE   BEND   c_v+61
 BYTE   W06
 BYTE   BEND   c_v+61
 BYTE   W06
 BYTE   BEND   c_v+61
 BYTE   W06
 BYTE   BEND   c_v+61
 BYTE   W06
 BYTE   BEND   c_v+62
 BYTE   W12
 BYTE   BEND   c_v+62
 BYTE   W06
 BYTE   BEND   c_v+62
 BYTE   W06
 BYTE   BEND   c_v+62
 BYTE   W06
 BYTE   BEND   c_v+63
 BYTE   W06
 BYTE   BEND   c_v+63
 BYTE   W06
 BYTE   BEND   c_v+63
 BYTE   W05
 BYTE   EOT
 BYTE   W01
 BYTE   BEND   c_v+63
 BYTE   W03
 BYTE   BEND   c_v+0
 BYTE   W03
//  #08 //028   ----------------------------------------
Label_0100968F:
 BYTE   W96
//  #08 //029   ----------------------------------------
 BYTE   W96
//  #08 //030   ----------------------------------------
 BYTE   W96
//  #08 //031   ----------------------------------------
 BYTE   W96
//  #08 //032   ----------------------------------------
 BYTE   W96
//  #08 //033   ----------------------------------------
 BYTE   W96
//  #08 //034   ----------------------------------------
 BYTE   W96
//  #08 //035   ----------------------------------------
 BYTE   W96
//  #08 //036   ----------------------------------------
 BYTE   W96
//  #08 //037   ----------------------------------------
 BYTE   W96
//  #08 //038   ----------------------------------------
 BYTE   W96
//  #08 //039   ----------------------------------------
 BYTE   W96
//  #08 //040   ----------------------------------------
 BYTE   W96
//  #08 //041   ----------------------------------------
 BYTE   W96
//  #08 //042   ----------------------------------------
 BYTE   W96
//  #08 //043   ----------------------------------------
 BYTE   W96
//  #08 //044   ----------------------------------------
 BYTE   W96
//  #08 //045   ----------------------------------------
 BYTE   W96
//  #08 //046   ----------------------------------------
 BYTE   W96
//  #08 //047   ----------------------------------------
 BYTE   W96
//  #08 //048   ----------------------------------------
 BYTE   W96
//  #08 //049   ----------------------------------------
 BYTE   W96
//  #08 //050   ----------------------------------------
 BYTE   W96
//  #08 //051   ----------------------------------------
 BYTE   W96
//  #08 //052   ----------------------------------------
 BYTE   W96
//  #08 //053   ----------------------------------------
 BYTE   W96
//  #08 //054   ----------------------------------------
 BYTE   W96
//  #08 //055   ----------------------------------------
 BYTE   W96
//  #08 //056   ----------------------------------------
 BYTE   W96
//  #08 //057   ----------------------------------------
 BYTE   W96
//  #08 //058   ----------------------------------------
 BYTE   W96
//  #08 //059   ----------------------------------------
 BYTE   W96
//  #08 //060   ----------------------------------------
 BYTE   W96
//  #08 //061   ----------------------------------------
 BYTE   W96
//  #08 //062   ----------------------------------------
 BYTE   W96
//  #08 //063   ----------------------------------------
 BYTE   W96
//  #08 //064   ----------------------------------------
 BYTE   W96
//  #08 //065   ----------------------------------------
 BYTE   W96
//  #08 //066   ----------------------------------------
 BYTE   W96
//  #08 //067   ----------------------------------------
 BYTE   W96
//  #08 //068   ----------------------------------------
 BYTE   W96
//  #08 //069   ----------------------------------------
 BYTE   W96
//  #08 //070   ----------------------------------------
 BYTE   W96
//  #08 //071   ----------------------------------------
 BYTE   W96
//  #08 //072   ----------------------------------------
 BYTE   W96
//  #08 //073   ----------------------------------------
 BYTE   W96
//  #08 //074   ----------------------------------------
 BYTE   W96
//  #08 //075   ----------------------------------------
 BYTE   W96
//  #08 //076   ----------------------------------------
 BYTE   W96
//  #08 //077   ----------------------------------------
 BYTE   W96
//  #08 //078   ----------------------------------------
 BYTE   W96
//  #08 //079   ----------------------------------------
 BYTE   W96
//  #08 //080   ----------------------------------------
 BYTE   W96
//  #08 //081   ----------------------------------------
 BYTE   W96
//  #08 //082   ----------------------------------------
 BYTE   W96
//  #08 //083   ----------------------------------------
 BYTE   W96
//  #08 //084   ----------------------------------------
 BYTE   W96
//  #08 //085   ----------------------------------------
 BYTE   W96
//  #08 //086   ----------------------------------------
 BYTE   W96
//  #08 //087   ----------------------------------------
 BYTE   W96
//  #08 //088   ----------------------------------------
 BYTE   W96
//  #08 //089   ----------------------------------------
 BYTE   W96
//  #08 //090   ----------------------------------------
 BYTE   W96
//  #08 //091   ----------------------------------------
 BYTE   W96
//  #08 //092   ----------------------------------------
 BYTE   W96
//  #08 //093   ----------------------------------------
 BYTE   W96
//  #08 //094   ----------------------------------------
 BYTE   W96
//  #08 //095   ----------------------------------------
 BYTE   W96
//  #08 //096   ----------------------------------------
 BYTE   W96
//  #08 //097   ----------------------------------------
 BYTE   W96
//  #08 //098   ----------------------------------------
 BYTE   W96
//  #08 //099   ----------------------------------------
 BYTE   W96
//  #08 //100   ----------------------------------------
 BYTE   W96
//  #08 //101   ----------------------------------------
 BYTE   W96
//  #08 //102   ----------------------------------------
 BYTE   W96
//  #08 //103   ----------------------------------------
 BYTE   W96
//  #08 //104   ----------------------------------------
 BYTE   W96
//  #08 //105   ----------------------------------------
 BYTE   W96
//  #08 //106   ----------------------------------------
 BYTE   W96
//  #08 //107   ----------------------------------------
 BYTE   W96
//  #08 //108   ----------------------------------------
 BYTE   W96
//  #08 //109   ----------------------------------------
 BYTE   W96
//  #08 //110   ----------------------------------------
 BYTE   W96
//  #08 //111   ----------------------------------------
 BYTE   W96
//  #08 //112   ----------------------------------------
 BYTE   W96
//  #08 //113   ----------------------------------------
 BYTE   W96
//  #08 //114   ----------------------------------------
 BYTE   W96
//  #08 //115   ----------------------------------------
 BYTE   W96
//  #08 //116   ----------------------------------------
 BYTE   W96
//  #08 //117   ----------------------------------------
 BYTE   W96
//  #08 //118   ----------------------------------------
 BYTE   W96
//  #08 //119   ----------------------------------------
 BYTE   W96
//  #08 //120   ----------------------------------------
 BYTE   W96
//  #08 //121   ----------------------------------------
 BYTE   W96
//  #08 //122   ----------------------------------------
 BYTE   W96
//  #08 //123   ----------------------------------------
 BYTE   W96
//  #08 //124   ----------------------------------------
 BYTE   GoTo
  POIN2 Label_0100968F
 BYTE   FINE

//**************** Track 9 (Midi-Chn.8) ****************//

Ambience_009:
//  #09 //000   ----------------------------------------
 BYTE   KEYSH   Ambience_key+0
 BYTE   VOICE   1
 BYTE   MODT 0
 BYTE   LFOS 44
 BYTE   VOL   20*Ambience_mvl/mxv
 BYTE   PAN   c_v+0
 BYTE   W96
//  #09 //001   ----------------------------------------
 BYTE   W96
//  #09 //002   ----------------------------------------
 BYTE   W96
//  #09 //003   ----------------------------------------
 BYTE   W96
//  #09 //004   ----------------------------------------
 BYTE   W96
//  #09 //005   ----------------------------------------
 BYTE   W96
//  #09 //006   ----------------------------------------
 BYTE   W96
//  #09 //007   ----------------------------------------
 BYTE   W96
//  #09 //008   ----------------------------------------
 BYTE   W96
//  #09 //009   ----------------------------------------
 BYTE   W96
//  #09 //010   ----------------------------------------
 BYTE   W96
//  #09 //011   ----------------------------------------
 BYTE   W96
//  #09 //012   ----------------------------------------
 BYTE   W96
//  #09 //013   ----------------------------------------
 BYTE   W96
//  #09 //014   ----------------------------------------
 BYTE   W96
//  #09 //015   ----------------------------------------
 BYTE   W96
//  #09 //016   ----------------------------------------
 BYTE   W96
//  #09 //017   ----------------------------------------
 BYTE   W96
//  #09 //018   ----------------------------------------
 BYTE   W96
//  #09 //019   ----------------------------------------
 BYTE   W96
//  #09 //020   ----------------------------------------
 BYTE   W96
//  #09 //021   ----------------------------------------
 BYTE   W96
//  #09 //022   ----------------------------------------
 BYTE   W96
//  #09 //023   ----------------------------------------
 BYTE   W96
//  #09 //024   ----------------------------------------
 BYTE   W96
//  #09 //025   ----------------------------------------
 BYTE   W96
//  #09 //026   ----------------------------------------
 BYTE   W96
//  #09 //027   ----------------------------------------
 BYTE   W96
//  #09 //028   ----------------------------------------
Label_0100846C:
 BYTE   N12  Cn3  v127
 BYTE   W12
 BYTE   N01
 BYTE   W12
 BYTE   N01
 BYTE   W12
 BYTE   N12  Cn2
 BYTE   W12
 BYTE   Cn1
 BYTE   N01  Cn2
 BYTE   N12  Cn3
 BYTE   W12
 BYTE   Cn1
 BYTE   N01  Cn2
 BYTE   W36
 BYTE   PEND 
//  #09 //029   ----------------------------------------
Label_01008482:
 BYTE   N12  Cn3  v127
 BYTE   W12
 BYTE   N12
 BYTE   W12
 BYTE   N12
 BYTE   W12
 BYTE   Cn2
 BYTE   W12
 BYTE   Cn1
 BYTE   N12  Cn2
 BYTE   N12  Cn3
 BYTE   W12
 BYTE   Cn1
 BYTE   N12  Cn2
 BYTE   W36
 BYTE   PEND 
//  #09 //030   ----------------------------------------
 BYTE   PATT
  POIN2 Label_01008482
//  #09 //031   ----------------------------------------
 BYTE   PATT
  POIN2 Label_01008482
//  #09 //032   ----------------------------------------
Label_010084A1:
 BYTE   N12  Gs3  v127
 BYTE   W12
 BYTE   N12
 BYTE   W12
 BYTE   N12
 BYTE   W12
 BYTE   Gs2
 BYTE   W12
 BYTE   Gs1
 BYTE   N12  Gs2
 BYTE   N12  Gs3
 BYTE   W12
 BYTE   Gs1
 BYTE   N12  Gs2
 BYTE   W36
 BYTE   PEND 
//  #09 //033   ----------------------------------------
 BYTE   PATT
  POIN2 Label_010084A1
//  #09 //034   ----------------------------------------
 BYTE   PATT
  POIN2 Label_010084A1
//  #09 //035   ----------------------------------------
 BYTE   PATT
  POIN2 Label_010084A1
//  #09 //036   ----------------------------------------
 BYTE   PATT
  POIN2 Label_0100846C
//  #09 //037   ----------------------------------------
 BYTE   PATT
  POIN2 Label_01008482
//  #09 //038   ----------------------------------------
 BYTE   PATT
  POIN2 Label_01008482
//  #09 //039   ----------------------------------------
 BYTE   PATT
  POIN2 Label_01008482
//  #09 //040   ----------------------------------------
 BYTE   PATT
  POIN2 Label_010084A1
//  #09 //041   ----------------------------------------
 BYTE   PATT
  POIN2 Label_010084A1
//  #09 //042   ----------------------------------------
 BYTE   PATT
  POIN2 Label_010084A1
//  #09 //043   ----------------------------------------
 BYTE   PATT
  POIN2 Label_010084A1
//  #09 //044   ----------------------------------------
Label_010084ED:
 BYTE   N12  Fn3  v127
 BYTE   W12
 BYTE   N01
 BYTE   W12
 BYTE   N01
 BYTE   W12
 BYTE   N12  Fn2
 BYTE   W12
 BYTE   Fn1
 BYTE   N01  Fn2
 BYTE   N12  Fn3
 BYTE   W12
 BYTE   Fn1
 BYTE   N01  Fn2
 BYTE   W36
 BYTE   PEND 
//  #09 //045   ----------------------------------------
 BYTE   PATT
  POIN2 Label_010084ED
//  #09 //046   ----------------------------------------
 BYTE   PATT
  POIN2 Label_010084ED
//  #09 //047   ----------------------------------------
 BYTE   PATT
  POIN2 Label_010084ED
//  #09 //048   ----------------------------------------
Label_01008512:
 BYTE   N12  Dn3  v127
 BYTE   W12
 BYTE   N01
 BYTE   W12
 BYTE   N01
 BYTE   W12
 BYTE   N12  Dn2
 BYTE   W12
 BYTE   Dn1
 BYTE   N01  Dn2
 BYTE   N12  Dn3
 BYTE   W12
 BYTE   Dn1
 BYTE   N01  Dn2
 BYTE   W36
 BYTE   PEND 
//  #09 //049   ----------------------------------------
 BYTE   PATT
  POIN2 Label_01008512
//  #09 //050   ----------------------------------------
 BYTE   PATT
  POIN2 Label_01008512
//  #09 //051   ----------------------------------------
 BYTE   PATT
  POIN2 Label_01008512
//  #09 //052   ----------------------------------------
 BYTE   PATT
  POIN2 Label_0100846C
//  #09 //053   ----------------------------------------
 BYTE   PATT
  POIN2 Label_01008482
//  #09 //054   ----------------------------------------
 BYTE   PATT
  POIN2 Label_01008482
//  #09 //055   ----------------------------------------
 BYTE   PATT
  POIN2 Label_01008482
//  #09 //056   ----------------------------------------
 BYTE   PATT
  POIN2 Label_010084A1
//  #09 //057   ----------------------------------------
 BYTE   PATT
  POIN2 Label_010084A1
//  #09 //058   ----------------------------------------
 BYTE   PATT
  POIN2 Label_010084A1
//  #09 //059   ----------------------------------------
 BYTE   PATT
  POIN2 Label_010084A1
//  #09 //060   ----------------------------------------
 BYTE   PATT
  POIN2 Label_0100846C
//  #09 //061   ----------------------------------------
 BYTE   PATT
  POIN2 Label_01008482
//  #09 //062   ----------------------------------------
 BYTE   PATT
  POIN2 Label_01008482
//  #09 //063   ----------------------------------------
 BYTE   PATT
  POIN2 Label_01008482
//  #09 //064   ----------------------------------------
 BYTE   PATT
  POIN2 Label_010084A1
//  #09 //065   ----------------------------------------
 BYTE   PATT
  POIN2 Label_010084A1
//  #09 //066   ----------------------------------------
 BYTE   PATT
  POIN2 Label_010084A1
//  #09 //067   ----------------------------------------
 BYTE   PATT
  POIN2 Label_010084A1
//  #09 //068   ----------------------------------------
 BYTE   PATT
  POIN2 Label_010084ED
//  #09 //069   ----------------------------------------
 BYTE   PATT
  POIN2 Label_010084ED
//  #09 //070   ----------------------------------------
 BYTE   PATT
  POIN2 Label_010084ED
//  #09 //071   ----------------------------------------
 BYTE   PATT
  POIN2 Label_010084ED
//  #09 //072   ----------------------------------------
 BYTE   PATT
  POIN2 Label_01008512
//  #09 //073   ----------------------------------------
 BYTE   PATT
  POIN2 Label_01008512
//  #09 //074   ----------------------------------------
 BYTE   PATT
  POIN2 Label_01008512
//  #09 //075   ----------------------------------------
 BYTE   PATT
  POIN2 Label_01008512
//  #09 //076   ----------------------------------------
 BYTE   PATT
  POIN2 Label_0100846C
//  #09 //077   ----------------------------------------
 BYTE   PATT
  POIN2 Label_01008482
//  #09 //078   ----------------------------------------
 BYTE   PATT
  POIN2 Label_01008482
//  #09 //079   ----------------------------------------
 BYTE   PATT
  POIN2 Label_01008482
//  #09 //080   ----------------------------------------
 BYTE   PATT
  POIN2 Label_010084A1
//  #09 //081   ----------------------------------------
 BYTE   PATT
  POIN2 Label_010084A1
//  #09 //082   ----------------------------------------
 BYTE   PATT
  POIN2 Label_010084A1
//  #09 //083   ----------------------------------------
 BYTE   PATT
  POIN2 Label_010084A1
//  #09 //084   ----------------------------------------
 BYTE   PATT
  POIN2 Label_0100846C
//  #09 //085   ----------------------------------------
 BYTE   PATT
  POIN2 Label_01008482
//  #09 //086   ----------------------------------------
 BYTE   PATT
  POIN2 Label_01008482
//  #09 //087   ----------------------------------------
 BYTE   PATT
  POIN2 Label_01008482
//  #09 //088   ----------------------------------------
 BYTE   PATT
  POIN2 Label_010084A1
//  #09 //089   ----------------------------------------
 BYTE   PATT
  POIN2 Label_010084A1
//  #09 //090   ----------------------------------------
 BYTE   PATT
  POIN2 Label_010084A1
//  #09 //091   ----------------------------------------
 BYTE   PATT
  POIN2 Label_010084A1
//  #09 //092   ----------------------------------------
 BYTE   PATT
  POIN2 Label_010084ED
//  #09 //093   ----------------------------------------
 BYTE   PATT
  POIN2 Label_010084ED
//  #09 //094   ----------------------------------------
 BYTE   PATT
  POIN2 Label_010084ED
//  #09 //095   ----------------------------------------
 BYTE   PATT
  POIN2 Label_010084ED
//  #09 //096   ----------------------------------------
 BYTE   PATT
  POIN2 Label_01008512
//  #09 //097   ----------------------------------------
 BYTE   PATT
  POIN2 Label_01008512
//  #09 //098   ----------------------------------------
 BYTE   PATT
  POIN2 Label_01008512
//  #09 //099   ----------------------------------------
 BYTE   PATT
  POIN2 Label_01008512
//  #09 //100   ----------------------------------------
 BYTE   PATT
  POIN2 Label_0100846C
//  #09 //101   ----------------------------------------
 BYTE   PATT
  POIN2 Label_01008482
//  #09 //102   ----------------------------------------
 BYTE   PATT
  POIN2 Label_01008482
//  #09 //103   ----------------------------------------
 BYTE   PATT
  POIN2 Label_01008482
//  #09 //104   ----------------------------------------
 BYTE   PATT
  POIN2 Label_010084A1
//  #09 //105   ----------------------------------------
 BYTE   PATT
  POIN2 Label_010084A1
//  #09 //106   ----------------------------------------
 BYTE   PATT
  POIN2 Label_010084A1
//  #09 //107   ----------------------------------------
 BYTE   PATT
  POIN2 Label_010084A1
//  #09 //108   ----------------------------------------
 BYTE   PATT
  POIN2 Label_0100846C
//  #09 //109   ----------------------------------------
 BYTE   PATT
  POIN2 Label_01008482
//  #09 //110   ----------------------------------------
 BYTE   PATT
  POIN2 Label_01008482
//  #09 //111   ----------------------------------------
 BYTE   PATT
  POIN2 Label_01008482
//  #09 //112   ----------------------------------------
 BYTE   PATT
  POIN2 Label_010084A1
//  #09 //113   ----------------------------------------
 BYTE   PATT
  POIN2 Label_010084A1
//  #09 //114   ----------------------------------------
 BYTE   PATT
  POIN2 Label_010084A1
//  #09 //115   ----------------------------------------
 BYTE   PATT
  POIN2 Label_010084A1
//  #09 //116   ----------------------------------------
 BYTE   PATT
  POIN2 Label_010084ED
//  #09 //117   ----------------------------------------
 BYTE   PATT
  POIN2 Label_010084ED
//  #09 //118   ----------------------------------------
 BYTE   PATT
  POIN2 Label_010084ED
//  #09 //119   ----------------------------------------
 BYTE   PATT
  POIN2 Label_010084ED
//  #09 //120   ----------------------------------------
 BYTE   PATT
  POIN2 Label_01008512
//  #09 //121   ----------------------------------------
 BYTE   PATT
  POIN2 Label_01008512
//  #09 //122   ----------------------------------------
 BYTE   PATT
  POIN2 Label_01008512
//  #09 //123   ----------------------------------------
 BYTE   PATT
  POIN2 Label_01008512
//  #09 //124   ----------------------------------------
 BYTE   GoTo
  POIN2 Label_0100846C
 BYTE   FINE

//**************** Track 10 (Midi-Chn.9) ****************//

Ambience_010:
//  #10 //000   ----------------------------------------
 BYTE   KEYSH   Ambience_key+0
 BYTE   VOICE   124
 BYTE   MODT 0
 BYTE   LFOS 44
 BYTE   VOL   21*Ambience_mvl/mxv
 BYTE   PAN   c_v+0
 BYTE   W96
//  #10 //001   ----------------------------------------
 BYTE   W96
//  #10 //002   ----------------------------------------
 BYTE   W96
//  #10 //003   ----------------------------------------
 BYTE   W96
//  #10 //004   ----------------------------------------
 BYTE   W96
//  #10 //005   ----------------------------------------
 BYTE   W96
//  #10 //006   ----------------------------------------
 BYTE   W96
//  #10 //007   ----------------------------------------
 BYTE   W96
//  #10 //008   ----------------------------------------
 BYTE   W96
//  #10 //009   ----------------------------------------
 BYTE   W96
//  #10 //010   ----------------------------------------
 BYTE   W96
//  #10 //011   ----------------------------------------
 BYTE   W96
//  #10 //012   ----------------------------------------
 BYTE   W96
//  #10 //013   ----------------------------------------
 BYTE   W96
//  #10 //014   ----------------------------------------
 BYTE   W96
//  #10 //015   ----------------------------------------
 BYTE   W96
//  #10 //016   ----------------------------------------
 BYTE   W96
//  #10 //017   ----------------------------------------
 BYTE   W96
//  #10 //018   ----------------------------------------
 BYTE   W96
//  #10 //019   ----------------------------------------
 BYTE   W96
//  #10 //020   ----------------------------------------
 BYTE   W96
//  #10 //021   ----------------------------------------
 BYTE   W96
//  #10 //022   ----------------------------------------
 BYTE   W96
//  #10 //023   ----------------------------------------
 BYTE   W96
//  #10 //024   ----------------------------------------
 BYTE   W96
//  #10 //025   ----------------------------------------
 BYTE   W96
//  #10 //026   ----------------------------------------
 BYTE   W96
//  #10 //027   ----------------------------------------
 BYTE   W96
//  #10 //028   ----------------------------------------
Label_010074C0:
 BYTE   N12  Fs2  v127
 BYTE   W12
 BYTE   Fs2  v056
 BYTE   W12
 BYTE   N12
 BYTE   W12
 BYTE   Fs2  v032
 BYTE   W12
 BYTE   En2  v024
 BYTE   W48
 BYTE   PEND 
//  #10 //029   ----------------------------------------
 BYTE   W96
//  #10 //030   ----------------------------------------
 BYTE   PATT
  POIN2 Label_010074C0
//  #10 //031   ----------------------------------------
 BYTE   W96
//  #10 //032   ----------------------------------------
 BYTE   PATT
  POIN2 Label_010074C0
//  #10 //033   ----------------------------------------
 BYTE   W96
//  #10 //034   ----------------------------------------
 BYTE   PATT
  POIN2 Label_010074C0
//  #10 //035   ----------------------------------------
 BYTE   W96
//  #10 //036   ----------------------------------------
 BYTE   PATT
  POIN2 Label_010074C0
//  #10 //037   ----------------------------------------
 BYTE   W96
//  #10 //038   ----------------------------------------
 BYTE   PATT
  POIN2 Label_010074C0
//  #10 //039   ----------------------------------------
 BYTE   W96
//  #10 //040   ----------------------------------------
 BYTE   PATT
  POIN2 Label_010074C0
//  #10 //041   ----------------------------------------
 BYTE   W96
//  #10 //042   ----------------------------------------
 BYTE   PATT
  POIN2 Label_010074C0
//  #10 //043   ----------------------------------------
 BYTE   W96
//  #10 //044   ----------------------------------------
 BYTE   PATT
  POIN2 Label_010074C0
//  #10 //045   ----------------------------------------
 BYTE   W96
//  #10 //046   ----------------------------------------
 BYTE   PATT
  POIN2 Label_010074C0
//  #10 //047   ----------------------------------------
 BYTE   W96
//  #10 //048   ----------------------------------------
 BYTE   PATT
  POIN2 Label_010074C0
//  #10 //049   ----------------------------------------
 BYTE   W96
//  #10 //050   ----------------------------------------
 BYTE   PATT
  POIN2 Label_010074C0
//  #10 //051   ----------------------------------------
 BYTE   W96
//  #10 //052   ----------------------------------------
Label_01007513:
 BYTE   N12  Cn1  v127
 BYTE   W12
 BYTE   Cn1  v056
 BYTE   W12
 BYTE   N12
 BYTE   W12
 BYTE   Cn1  v032
 BYTE   W12
 BYTE   Fs2  v127
 BYTE   W12
 BYTE   Fs2  v056
 BYTE   W12
 BYTE   N12
 BYTE   W12
 BYTE   Fs2  v032
 BYTE   W12
 BYTE   PEND 
//  #10 //053   ----------------------------------------
Label_0100752B:
 BYTE   N12  Ds4  v127
 BYTE   W12
 BYTE   Ds4  v056
 BYTE   W12
 BYTE   N12
 BYTE   W12
 BYTE   Ds4  v032
 BYTE   W12
 BYTE   Fs2  v127
 BYTE   W12
 BYTE   Fs2  v056
 BYTE   W12
 BYTE   N12
 BYTE   W12
 BYTE   Fs2  v032
 BYTE   W12
 BYTE   PEND 
//  #10 //054   ----------------------------------------
 BYTE   PATT
  POIN2 Label_01007513
//  #10 //055   ----------------------------------------
 BYTE   PATT
  POIN2 Label_0100752B
//  #10 //056   ----------------------------------------
 BYTE   PATT
  POIN2 Label_01007513
//  #10 //057   ----------------------------------------
 BYTE   PATT
  POIN2 Label_0100752B
//  #10 //058   ----------------------------------------
 BYTE   PATT
  POIN2 Label_01007513
//  #10 //059   ----------------------------------------
 BYTE   PATT
  POIN2 Label_0100752B
//  #10 //060   ----------------------------------------
 BYTE   PATT
  POIN2 Label_01007513
//  #10 //061   ----------------------------------------
 BYTE   PATT
  POIN2 Label_0100752B
//  #10 //062   ----------------------------------------
 BYTE   PATT
  POIN2 Label_01007513
//  #10 //063   ----------------------------------------
 BYTE   PATT
  POIN2 Label_0100752B
//  #10 //064   ----------------------------------------
 BYTE   PATT
  POIN2 Label_01007513
//  #10 //065   ----------------------------------------
 BYTE   PATT
  POIN2 Label_0100752B
//  #10 //066   ----------------------------------------
 BYTE   PATT
  POIN2 Label_01007513
//  #10 //067   ----------------------------------------
 BYTE   PATT
  POIN2 Label_0100752B
//  #10 //068   ----------------------------------------
 BYTE   PATT
  POIN2 Label_01007513
//  #10 //069   ----------------------------------------
 BYTE   PATT
  POIN2 Label_0100752B
//  #10 //070   ----------------------------------------
 BYTE   PATT
  POIN2 Label_01007513
//  #10 //071   ----------------------------------------
 BYTE   PATT
  POIN2 Label_0100752B
//  #10 //072   ----------------------------------------
 BYTE   PATT
  POIN2 Label_01007513
//  #10 //073   ----------------------------------------
 BYTE   PATT
  POIN2 Label_0100752B
//  #10 //074   ----------------------------------------
 BYTE   PATT
  POIN2 Label_01007513
//  #10 //075   ----------------------------------------
 BYTE   PATT
  POIN2 Label_0100752B
//  #10 //076   ----------------------------------------
 BYTE   PATT
  POIN2 Label_010074C0
//  #10 //077   ----------------------------------------
 BYTE   W96
//  #10 //078   ----------------------------------------
 BYTE   PATT
  POIN2 Label_010074C0
//  #10 //079   ----------------------------------------
 BYTE   W96
//  #10 //080   ----------------------------------------
 BYTE   PATT
  POIN2 Label_010074C0
//  #10 //081   ----------------------------------------
 BYTE   W96
//  #10 //082   ----------------------------------------
 BYTE   PATT
  POIN2 Label_010074C0
//  #10 //083   ----------------------------------------
 BYTE   W96
//  #10 //084   ----------------------------------------
 BYTE   PATT
  POIN2 Label_010074C0
//  #10 //085   ----------------------------------------
 BYTE   W96
//  #10 //086   ----------------------------------------
 BYTE   PATT
  POIN2 Label_010074C0
//  #10 //087   ----------------------------------------
 BYTE   W96
//  #10 //088   ----------------------------------------
 BYTE   PATT
  POIN2 Label_010074C0
//  #10 //089   ----------------------------------------
 BYTE   W96
//  #10 //090   ----------------------------------------
 BYTE   PATT
  POIN2 Label_010074C0
//  #10 //091   ----------------------------------------
 BYTE   W96
//  #10 //092   ----------------------------------------
 BYTE   PATT
  POIN2 Label_010074C0
//  #10 //093   ----------------------------------------
 BYTE   W96
//  #10 //094   ----------------------------------------
 BYTE   PATT
  POIN2 Label_010074C0
//  #10 //095   ----------------------------------------
 BYTE   W96
//  #10 //096   ----------------------------------------
 BYTE   PATT
  POIN2 Label_010074C0
//  #10 //097   ----------------------------------------
 BYTE   W96
//  #10 //098   ----------------------------------------
 BYTE   PATT
  POIN2 Label_010074C0
//  #10 //099   ----------------------------------------
 BYTE   W96
//  #10 //100   ----------------------------------------
 BYTE   PATT
  POIN2 Label_01007513
//  #10 //101   ----------------------------------------
 BYTE   PATT
  POIN2 Label_0100752B
//  #10 //102   ----------------------------------------
 BYTE   PATT
  POIN2 Label_01007513
//  #10 //103   ----------------------------------------
 BYTE   PATT
  POIN2 Label_0100752B
//  #10 //104   ----------------------------------------
 BYTE   PATT
  POIN2 Label_01007513
//  #10 //105   ----------------------------------------
 BYTE   PATT
  POIN2 Label_0100752B
//  #10 //106   ----------------------------------------
 BYTE   PATT
  POIN2 Label_01007513
//  #10 //107   ----------------------------------------
 BYTE   PATT
  POIN2 Label_0100752B
//  #10 //108   ----------------------------------------
 BYTE   PATT
  POIN2 Label_01007513
//  #10 //109   ----------------------------------------
 BYTE   PATT
  POIN2 Label_0100752B
//  #10 //110   ----------------------------------------
 BYTE   PATT
  POIN2 Label_01007513
//  #10 //111   ----------------------------------------
 BYTE   PATT
  POIN2 Label_0100752B
//  #10 //112   ----------------------------------------
 BYTE   PATT
  POIN2 Label_01007513
//  #10 //113   ----------------------------------------
 BYTE   PATT
  POIN2 Label_0100752B
//  #10 //114   ----------------------------------------
 BYTE   PATT
  POIN2 Label_01007513
//  #10 //115   ----------------------------------------
 BYTE   PATT
  POIN2 Label_0100752B
//  #10 //116   ----------------------------------------
 BYTE   PATT
  POIN2 Label_01007513
//  #10 //117   ----------------------------------------
 BYTE   PATT
  POIN2 Label_0100752B
//  #10 //118   ----------------------------------------
 BYTE   PATT
  POIN2 Label_01007513
//  #10 //119   ----------------------------------------
 BYTE   PATT
  POIN2 Label_0100752B
//  #10 //120   ----------------------------------------
 BYTE   PATT
  POIN2 Label_01007513
//  #10 //121   ----------------------------------------
 BYTE   PATT
  POIN2 Label_0100752B
//  #10 //122   ----------------------------------------
 BYTE   PATT
  POIN2 Label_01007513
//  #10 //123   ----------------------------------------
 BYTE   PATT
  POIN2 Label_0100752B
//  #10 //124   ----------------------------------------
 BYTE   GoTo
  POIN2 Label_010074C0
 BYTE   FINE

//**************** Track 11 (Midi-Chn.10) ****************//

Ambience_011:
//  #11 //000   ----------------------------------------
 BYTE   KEYSH   Ambience_key+0
 BYTE   VOICE   11
 BYTE   MODT 0
 BYTE   LFOS 44
 BYTE   VOL   26*Ambience_mvl/mxv
 BYTE   PAN   c_v+0
 BYTE   W96
//  #11 //001   ----------------------------------------
 BYTE   W96
//  #11 //002   ----------------------------------------
 BYTE   W96
//  #11 //003   ----------------------------------------
 BYTE   W96
//  #11 //004   ----------------------------------------
 BYTE   W96
//  #11 //005   ----------------------------------------
 BYTE   W96
//  #11 //006   ----------------------------------------
 BYTE   W96
//  #11 //007   ----------------------------------------
 BYTE   W96
//  #11 //008   ----------------------------------------
 BYTE   W96
//  #11 //009   ----------------------------------------
 BYTE   W96
//  #11 //010   ----------------------------------------
 BYTE   W96
//  #11 //011   ----------------------------------------
 BYTE   W96
//  #11 //012   ----------------------------------------
 BYTE   W96
//  #11 //013   ----------------------------------------
 BYTE   W96
//  #11 //014   ----------------------------------------
 BYTE   W96
//  #11 //015   ----------------------------------------
 BYTE   W96
//  #11 //016   ----------------------------------------
 BYTE   W96
//  #11 //017   ----------------------------------------
 BYTE   W96
//  #11 //018   ----------------------------------------
 BYTE   W96
//  #11 //019   ----------------------------------------
 BYTE   W96
//  #11 //020   ----------------------------------------
 BYTE   W96
//  #11 //021   ----------------------------------------
 BYTE   W96
//  #11 //022   ----------------------------------------
 BYTE   W96
//  #11 //023   ----------------------------------------
 BYTE   W96
//  #11 //024   ----------------------------------------
 BYTE   W96
//  #11 //025   ----------------------------------------
 BYTE   W96
//  #11 //026   ----------------------------------------
 BYTE   W96
//  #11 //027   ----------------------------------------
 BYTE   W96
//  #11 //028   ----------------------------------------
Label_01007154:
 BYTE   W72
 BYTE   N12  Cn2  v127
 BYTE   W12
 BYTE   Cn3
 BYTE   W12
 BYTE   PEND 
//  #11 //029   ----------------------------------------
 BYTE   PATT
  POIN2 Label_01007154
//  #11 //030   ----------------------------------------
 BYTE   PATT
  POIN2 Label_01007154
//  #11 //031   ----------------------------------------
 BYTE   PATT
  POIN2 Label_01007154
//  #11 //032   ----------------------------------------
Label_0100716B:
 BYTE   W72
 BYTE   N12  Gs1  v127
 BYTE   N12  Gs2
 BYTE   W12
 BYTE   N12
 BYTE   N12  Gs3
 BYTE   W12
 BYTE   PEND 
//  #11 //033   ----------------------------------------
 BYTE   PATT
  POIN2 Label_0100716B
//  #11 //034   ----------------------------------------
 BYTE   PATT
  POIN2 Label_0100716B
//  #11 //035   ----------------------------------------
 BYTE   PATT
  POIN2 Label_0100716B
//  #11 //036   ----------------------------------------
 BYTE   PATT
  POIN2 Label_01007154
//  #11 //037   ----------------------------------------
 BYTE   PATT
  POIN2 Label_01007154
//  #11 //038   ----------------------------------------
 BYTE   PATT
  POIN2 Label_01007154
//  #11 //039   ----------------------------------------
 BYTE   PATT
  POIN2 Label_01007154
//  #11 //040   ----------------------------------------
 BYTE   PATT
  POIN2 Label_0100716B
//  #11 //041   ----------------------------------------
 BYTE   PATT
  POIN2 Label_0100716B
//  #11 //042   ----------------------------------------
 BYTE   PATT
  POIN2 Label_0100716B
//  #11 //043   ----------------------------------------
 BYTE   PATT
  POIN2 Label_0100716B
//  #11 //044   ----------------------------------------
Label_010071AE:
 BYTE   W72
 BYTE   N12  Fn1  v127
 BYTE   N12  Fn2
 BYTE   W12
 BYTE   N12
 BYTE   N12  Fn3
 BYTE   W12
 BYTE   PEND 
//  #11 //045   ----------------------------------------
 BYTE   PATT
  POIN2 Label_010071AE
//  #11 //046   ----------------------------------------
 BYTE   PATT
  POIN2 Label_010071AE
//  #11 //047   ----------------------------------------
 BYTE   PATT
  POIN2 Label_010071AE
//  #11 //048   ----------------------------------------
Label_010071C9:
 BYTE   W72
 BYTE   N12  Dn2  v127
 BYTE   W12
 BYTE   Dn3
 BYTE   W12
 BYTE   PEND 
//  #11 //049   ----------------------------------------
 BYTE   PATT
  POIN2 Label_010071C9
//  #11 //050   ----------------------------------------
 BYTE   PATT
  POIN2 Label_010071C9
//  #11 //051   ----------------------------------------
 BYTE   PATT
  POIN2 Label_010071C9
//  #11 //052   ----------------------------------------
 BYTE   PATT
  POIN2 Label_01007154
//  #11 //053   ----------------------------------------
 BYTE   PATT
  POIN2 Label_01007154
//  #11 //054   ----------------------------------------
 BYTE   PATT
  POIN2 Label_01007154
//  #11 //055   ----------------------------------------
 BYTE   PATT
  POIN2 Label_01007154
//  #11 //056   ----------------------------------------
 BYTE   PATT
  POIN2 Label_0100716B
//  #11 //057   ----------------------------------------
 BYTE   PATT
  POIN2 Label_0100716B
//  #11 //058   ----------------------------------------
 BYTE   PATT
  POIN2 Label_0100716B
//  #11 //059   ----------------------------------------
 BYTE   PATT
  POIN2 Label_0100716B
//  #11 //060   ----------------------------------------
 BYTE   PATT
  POIN2 Label_01007154
//  #11 //061   ----------------------------------------
 BYTE   PATT
  POIN2 Label_01007154
//  #11 //062   ----------------------------------------
 BYTE   PATT
  POIN2 Label_01007154
//  #11 //063   ----------------------------------------
 BYTE   PATT
  POIN2 Label_01007154
//  #11 //064   ----------------------------------------
 BYTE   PATT
  POIN2 Label_0100716B
//  #11 //065   ----------------------------------------
 BYTE   PATT
  POIN2 Label_0100716B
//  #11 //066   ----------------------------------------
 BYTE   PATT
  POIN2 Label_0100716B
//  #11 //067   ----------------------------------------
 BYTE   PATT
  POIN2 Label_0100716B
//  #11 //068   ----------------------------------------
 BYTE   PATT
  POIN2 Label_010071AE
//  #11 //069   ----------------------------------------
 BYTE   PATT
  POIN2 Label_010071AE
//  #11 //070   ----------------------------------------
 BYTE   PATT
  POIN2 Label_010071AE
//  #11 //071   ----------------------------------------
 BYTE   PATT
  POIN2 Label_010071AE
//  #11 //072   ----------------------------------------
 BYTE   PATT
  POIN2 Label_010071C9
//  #11 //073   ----------------------------------------
 BYTE   PATT
  POIN2 Label_010071C9
//  #11 //074   ----------------------------------------
 BYTE   PATT
  POIN2 Label_010071C9
//  #11 //075   ----------------------------------------
 BYTE   PATT
  POIN2 Label_010071C9
//  #11 //076   ----------------------------------------
 BYTE   PATT
  POIN2 Label_01007154
//  #11 //077   ----------------------------------------
 BYTE   PATT
  POIN2 Label_01007154
//  #11 //078   ----------------------------------------
 BYTE   PATT
  POIN2 Label_01007154
//  #11 //079   ----------------------------------------
 BYTE   PATT
  POIN2 Label_01007154
//  #11 //080   ----------------------------------------
 BYTE   PATT
  POIN2 Label_0100716B
//  #11 //081   ----------------------------------------
 BYTE   PATT
  POIN2 Label_0100716B
//  #11 //082   ----------------------------------------
 BYTE   PATT
  POIN2 Label_0100716B
//  #11 //083   ----------------------------------------
 BYTE   PATT
  POIN2 Label_0100716B
//  #11 //084   ----------------------------------------
 BYTE   PATT
  POIN2 Label_01007154
//  #11 //085   ----------------------------------------
 BYTE   PATT
  POIN2 Label_01007154
//  #11 //086   ----------------------------------------
 BYTE   PATT
  POIN2 Label_01007154
//  #11 //087   ----------------------------------------
 BYTE   PATT
  POIN2 Label_01007154
//  #11 //088   ----------------------------------------
 BYTE   PATT
  POIN2 Label_0100716B
//  #11 //089   ----------------------------------------
 BYTE   PATT
  POIN2 Label_0100716B
//  #11 //090   ----------------------------------------
 BYTE   PATT
  POIN2 Label_0100716B
//  #11 //091   ----------------------------------------
 BYTE   PATT
  POIN2 Label_0100716B
//  #11 //092   ----------------------------------------
 BYTE   PATT
  POIN2 Label_010071AE
//  #11 //093   ----------------------------------------
 BYTE   PATT
  POIN2 Label_010071AE
//  #11 //094   ----------------------------------------
 BYTE   PATT
  POIN2 Label_010071AE
//  #11 //095   ----------------------------------------
 BYTE   PATT
  POIN2 Label_010071AE
//  #11 //096   ----------------------------------------
 BYTE   PATT
  POIN2 Label_010071C9
//  #11 //097   ----------------------------------------
 BYTE   PATT
  POIN2 Label_010071C9
//  #11 //098   ----------------------------------------
 BYTE   PATT
  POIN2 Label_010071C9
//  #11 //099   ----------------------------------------
 BYTE   PATT
  POIN2 Label_010071C9
//  #11 //100   ----------------------------------------
 BYTE   PATT
  POIN2 Label_01007154
//  #11 //101   ----------------------------------------
 BYTE   PATT
  POIN2 Label_01007154
//  #11 //102   ----------------------------------------
 BYTE   PATT
  POIN2 Label_01007154
//  #11 //103   ----------------------------------------
 BYTE   PATT
  POIN2 Label_01007154
//  #11 //104   ----------------------------------------
 BYTE   PATT
  POIN2 Label_0100716B
//  #11 //105   ----------------------------------------
 BYTE   PATT
  POIN2 Label_0100716B
//  #11 //106   ----------------------------------------
 BYTE   PATT
  POIN2 Label_0100716B
//  #11 //107   ----------------------------------------
 BYTE   PATT
  POIN2 Label_0100716B
//  #11 //108   ----------------------------------------
 BYTE   PATT
  POIN2 Label_01007154
//  #11 //109   ----------------------------------------
 BYTE   PATT
  POIN2 Label_01007154
//  #11 //110   ----------------------------------------
 BYTE   PATT
  POIN2 Label_01007154
//  #11 //111   ----------------------------------------
 BYTE   PATT
  POIN2 Label_01007154
//  #11 //112   ----------------------------------------
 BYTE   PATT
  POIN2 Label_0100716B
//  #11 //113   ----------------------------------------
 BYTE   PATT
  POIN2 Label_0100716B
//  #11 //114   ----------------------------------------
 BYTE   PATT
  POIN2 Label_0100716B
//  #11 //115   ----------------------------------------
 BYTE   PATT
  POIN2 Label_0100716B
//  #11 //116   ----------------------------------------
 BYTE   PATT
  POIN2 Label_010071AE
//  #11 //117   ----------------------------------------
 BYTE   PATT
  POIN2 Label_010071AE
//  #11 //118   ----------------------------------------
 BYTE   PATT
  POIN2 Label_010071AE
//  #11 //119   ----------------------------------------
 BYTE   PATT
  POIN2 Label_010071AE
//  #11 //120   ----------------------------------------
 BYTE   PATT
  POIN2 Label_010071C9
//  #11 //121   ----------------------------------------
 BYTE   PATT
  POIN2 Label_010071C9
//  #11 //122   ----------------------------------------
 BYTE   PATT
  POIN2 Label_010071C9
//  #11 //123   ----------------------------------------
 BYTE   PATT
  POIN2 Label_010071C9
//  #11 //124   ----------------------------------------
 BYTE   GoTo
  POIN2 Label_01007154
 BYTE   FINE

//**************** Track 12 (Midi-Chn.11) ****************//

Ambience_012:
//  #12 //000   ----------------------------------------
 BYTE   KEYSH   Ambience_key+0
 BYTE   VOICE   40
 BYTE   MODT 0
 BYTE   LFOS 44
 BYTE   VOL   15*Ambience_mvl/mxv
 BYTE   PAN   c_v+0
 BYTE   W96
//  #12 //001   ----------------------------------------
 BYTE   W96
//  #12 //002   ----------------------------------------
 BYTE   W96
//  #12 //003   ----------------------------------------
 BYTE   W96
//  #12 //004   ----------------------------------------
 BYTE   W96
//  #12 //005   ----------------------------------------
 BYTE   W96
//  #12 //006   ----------------------------------------
 BYTE   W96
//  #12 //007   ----------------------------------------
 BYTE   W96
//  #12 //008   ----------------------------------------
 BYTE   W96
//  #12 //009   ----------------------------------------
 BYTE   W96
//  #12 //010   ----------------------------------------
 BYTE   W96
//  #12 //011   ----------------------------------------
 BYTE   W96
//  #12 //012   ----------------------------------------
 BYTE   W96
//  #12 //013   ----------------------------------------
 BYTE   W96
//  #12 //014   ----------------------------------------
 BYTE   W96
//  #12 //015   ----------------------------------------
 BYTE   W96
//  #12 //016   ----------------------------------------
 BYTE   W96
//  #12 //017   ----------------------------------------
 BYTE   W96
//  #12 //018   ----------------------------------------
 BYTE   W96
//  #12 //019   ----------------------------------------
 BYTE   W96
//  #12 //020   ----------------------------------------
 BYTE   W96
//  #12 //021   ----------------------------------------
 BYTE   W96
//  #12 //022   ----------------------------------------
 BYTE   W96
//  #12 //023   ----------------------------------------
 BYTE   W96
//  #12 //024   ----------------------------------------
 BYTE   W96
//  #12 //025   ----------------------------------------
 BYTE   W96
//  #12 //026   ----------------------------------------
 BYTE   W96
//  #12 //027   ----------------------------------------
 BYTE   W96
//  #12 //028   ----------------------------------------
Label_01008B08:
 BYTE   VOL   0*Ambience_mvl/mxv
 BYTE   TIE  Ds3  v056
 BYTE   W06
 BYTE   VOL   0*Ambience_mvl/mxv
 BYTE   W06
 BYTE   VOL   6*Ambience_mvl/mxv
 BYTE   W06
 BYTE   VOL   10*Ambience_mvl/mxv
 BYTE   W06
 BYTE   VOL   15*Ambience_mvl/mxv
 BYTE   W06
 BYTE   VOL   21*Ambience_mvl/mxv
 BYTE   W06
 BYTE   VOL   27*Ambience_mvl/mxv
 BYTE   W06
 BYTE   VOL   34*Ambience_mvl/mxv
 BYTE   W12
 BYTE   VOL   41*Ambience_mvl/mxv
 BYTE   W06
 BYTE   VOL   50*Ambience_mvl/mxv
 BYTE   W36
 BYTE   PEND 
//  #12 //029   ----------------------------------------
 BYTE   W96
//  #12 //030   ----------------------------------------
 BYTE   W96
//  #12 //031   ----------------------------------------
 BYTE   W96
//  #12 //032   ----------------------------------------
 BYTE   EOT
Label_01008B26:
 BYTE   VOL   0*Ambience_mvl/mxv
 BYTE   TIE  Cn3  v056
 BYTE   W06
 BYTE   VOL   0*Ambience_mvl/mxv
 BYTE   W06
 BYTE   VOL   6*Ambience_mvl/mxv
 BYTE   W06
 BYTE   VOL   10*Ambience_mvl/mxv
 BYTE   W06
 BYTE   VOL   15*Ambience_mvl/mxv
 BYTE   W06
 BYTE   VOL   21*Ambience_mvl/mxv
 BYTE   W06
 BYTE   VOL   27*Ambience_mvl/mxv
 BYTE   W06
 BYTE   VOL   34*Ambience_mvl/mxv
 BYTE   W12
 BYTE   VOL   41*Ambience_mvl/mxv
 BYTE   W06
 BYTE   VOL   50*Ambience_mvl/mxv
 BYTE   W36
 BYTE   PEND 
//  #12 //033   ----------------------------------------
 BYTE   W96
//  #12 //034   ----------------------------------------
 BYTE   W96
//  #12 //035   ----------------------------------------
 BYTE   W96
//  #12 //036   ----------------------------------------
 BYTE   EOT
//  #12 //037   ----------------------------------------
 BYTE   PATT
  POIN2 Label_01008B08
//  #12 //038   ----------------------------------------
 BYTE   W96
//  #12 //039   ----------------------------------------
 BYTE   W96
//  #12 //040   ----------------------------------------
 BYTE   W96
//  #12 //041   ----------------------------------------
 BYTE   EOT
 BYTE   Ds3
//  #12 //042   ----------------------------------------
 BYTE   PATT
  POIN2 Label_01008B26
//  #12 //043   ----------------------------------------
 BYTE   W96
//  #12 //044   ----------------------------------------
 BYTE   W96
//  #12 //045   ----------------------------------------
 BYTE   W96
//  #12 //046   ----------------------------------------
 BYTE   EOT
 BYTE   Cn3
//  #12 //047   ----------------------------------------
 BYTE   PATT
  POIN2 Label_01008B26
//  #12 //048   ----------------------------------------
 BYTE   W96
//  #12 //049   ----------------------------------------
 BYTE   W96
//  #12 //050   ----------------------------------------
 BYTE   W96
//  #12 //051   ----------------------------------------
 BYTE   W96
//  #12 //052   ----------------------------------------
 BYTE   W96
//  #12 //053   ----------------------------------------
 BYTE   W96
//  #12 //054   ----------------------------------------
 BYTE   W96
//  #12 //055   ----------------------------------------
 BYTE   EOT
 BYTE   Cn3
//  #12 //056   ----------------------------------------
 BYTE   PATT
  POIN2 Label_01008B08
//  #12 //057   ----------------------------------------
 BYTE   W96
//  #12 //058   ----------------------------------------
 BYTE   W96
//  #12 //059   ----------------------------------------
 BYTE   W96
//  #12 //060   ----------------------------------------
 BYTE   EOT
 BYTE   Ds3
//  #12 //061   ----------------------------------------
 BYTE   PATT
  POIN2 Label_01008B26
//  #12 //062   ----------------------------------------
 BYTE   W96
//  #12 //063   ----------------------------------------
 BYTE   W96
//  #12 //064   ----------------------------------------
 BYTE   W96
//  #12 //065   ----------------------------------------
 BYTE   EOT
 BYTE   Cn3
//  #12 //066   ----------------------------------------
 BYTE   PATT
  POIN2 Label_01008B08
//  #12 //067   ----------------------------------------
 BYTE   W96
//  #12 //068   ----------------------------------------
 BYTE   W96
//  #12 //069   ----------------------------------------
 BYTE   W96
//  #12 //070   ----------------------------------------
 BYTE   EOT
 BYTE   Ds3
//  #12 //071   ----------------------------------------
 BYTE   PATT
  POIN2 Label_01008B26
//  #12 //072   ----------------------------------------
 BYTE   W96
//  #12 //073   ----------------------------------------
 BYTE   W96
//  #12 //074   ----------------------------------------
 BYTE   W96
//  #12 //075   ----------------------------------------
 BYTE   EOT
 BYTE   Cn3
//  #12 //076   ----------------------------------------
 BYTE   PATT
  POIN2 Label_01008B26
//  #12 //077   ----------------------------------------
 BYTE   W96
//  #12 //078   ----------------------------------------
 BYTE   W96
//  #12 //079   ----------------------------------------
 BYTE   W96
//  #12 //080   ----------------------------------------
 BYTE   W96
//  #12 //081   ----------------------------------------
 BYTE   W96
//  #12 //082   ----------------------------------------
 BYTE   W96
//  #12 //083   ----------------------------------------
 BYTE   W96
//  #12 //084   ----------------------------------------
 BYTE   EOT
 BYTE   Cn3
//  #12 //085   ----------------------------------------
 BYTE   PATT
  POIN2 Label_01008B08
//  #12 //086   ----------------------------------------
 BYTE   W96
//  #12 //087   ----------------------------------------
 BYTE   W96
//  #12 //088   ----------------------------------------
 BYTE   W96
//  #12 //089   ----------------------------------------
 BYTE   EOT
 BYTE   Ds3
//  #12 //090   ----------------------------------------
 BYTE   PATT
  POIN2 Label_01008B26
//  #12 //091   ----------------------------------------
 BYTE   W96
//  #12 //092   ----------------------------------------
 BYTE   W96
//  #12 //093   ----------------------------------------
 BYTE   W96
//  #12 //094   ----------------------------------------
 BYTE   EOT
 BYTE   Cn3
//  #12 //095   ----------------------------------------
 BYTE   PATT
  POIN2 Label_01008B08
//  #12 //096   ----------------------------------------
 BYTE   W96
//  #12 //097   ----------------------------------------
 BYTE   W96
//  #12 //098   ----------------------------------------
 BYTE   W96
//  #12 //099   ----------------------------------------
 BYTE   EOT
 BYTE   Ds3
//  #12 //100   ----------------------------------------
 BYTE   PATT
  POIN2 Label_01008B26
//  #12 //101   ----------------------------------------
 BYTE   W96
//  #12 //102   ----------------------------------------
 BYTE   W96
//  #12 //103   ----------------------------------------
 BYTE   W96
//  #12 //104   ----------------------------------------
 BYTE   EOT
 BYTE   Cn3
//  #12 //105   ----------------------------------------
 BYTE   PATT
  POIN2 Label_01008B26
//  #12 //106   ----------------------------------------
 BYTE   W96
//  #12 //107   ----------------------------------------
 BYTE   W96
//  #12 //108   ----------------------------------------
 BYTE   W96
//  #12 //109   ----------------------------------------
 BYTE   W96
//  #12 //110   ----------------------------------------
 BYTE   W96
//  #12 //111   ----------------------------------------
 BYTE   W96
//  #12 //112   ----------------------------------------
 BYTE   W96
//  #12 //113   ----------------------------------------
 BYTE   EOT
 BYTE   Cn3
//  #12 //114   ----------------------------------------
 BYTE   PATT
  POIN2 Label_01008B08
//  #12 //115   ----------------------------------------
 BYTE   W96
//  #12 //116   ----------------------------------------
 BYTE   W96
//  #12 //117   ----------------------------------------
 BYTE   W96
//  #12 //118   ----------------------------------------
 BYTE   EOT
 BYTE   Ds3
//  #12 //119   ----------------------------------------
 BYTE   PATT
  POIN2 Label_01008B26
//  #12 //120   ----------------------------------------
 BYTE   W96
//  #12 //121   ----------------------------------------
 BYTE   W96
//  #12 //122   ----------------------------------------
 BYTE   W96
//  #12 //123   ----------------------------------------
 BYTE   EOT
 BYTE   Cn3
//  #12 //124   ----------------------------------------
 BYTE   PATT
  POIN2 Label_01008B08
//  #12 //125   ----------------------------------------
 BYTE   W96
//  #12 //126   ----------------------------------------
 BYTE   W96
//  #12 //127   ----------------------------------------
 BYTE   W96
//  #12 //128   ----------------------------------------
 BYTE   EOT
 BYTE   Ds3
//  #12 //129   ----------------------------------------
 BYTE   PATT
  POIN2 Label_01008B26
//  #12 //130   ----------------------------------------
 BYTE   W96
//  #12 //131   ----------------------------------------
 BYTE   W96
//  #12 //132   ----------------------------------------
 BYTE   W96
//  #12 //133   ----------------------------------------
 BYTE   EOT
 BYTE   Cn3
//  #12 //134   ----------------------------------------
 BYTE   PATT
  POIN2 Label_01008B26
//  #12 //135   ----------------------------------------
 BYTE   W96
//  #12 //136   ----------------------------------------
 BYTE   W96
//  #12 //137   ----------------------------------------
 BYTE   W96
//  #12 //138   ----------------------------------------
 BYTE   W96
//  #12 //139   ----------------------------------------
 BYTE   W96
//  #12 //140   ----------------------------------------
 BYTE   W96
//  #12 //141   ----------------------------------------
 BYTE   W96
//  #12 //142   ----------------------------------------
 BYTE   EOT
 BYTE   Cn3
 BYTE   GoTo
  POIN2 Label_01008B08
//  #12 //143   ----------------------------------------
 BYTE   VOL   0*Ambience_mvl/mxv
 BYTE   FINE

//**************** Track 13 (Midi-Chn.12) ****************//

Ambience_013:
//  #13 //000   ----------------------------------------
 BYTE   KEYSH   Ambience_key+0
 BYTE   VOICE   46
 BYTE   MODT 0
 BYTE   LFOS 44
 BYTE   VOL   6*Ambience_mvl/mxv
 BYTE   PAN   c_v+0
 BYTE   W96
//  #13 //001   ----------------------------------------
 BYTE   W96
//  #13 //002   ----------------------------------------
 BYTE   W96
//  #13 //003   ----------------------------------------
 BYTE   W96
//  #13 //004   ----------------------------------------
 BYTE   W96
//  #13 //005   ----------------------------------------
 BYTE   W96
//  #13 //006   ----------------------------------------
 BYTE   W96
//  #13 //007   ----------------------------------------
 BYTE   W96
//  #13 //008   ----------------------------------------
 BYTE   W96
//  #13 //009   ----------------------------------------
 BYTE   W96
//  #13 //010   ----------------------------------------
 BYTE   W96
//  #13 //011   ----------------------------------------
 BYTE   W96
//  #13 //012   ----------------------------------------
 BYTE   W96
//  #13 //013   ----------------------------------------
 BYTE   W96
//  #13 //014   ----------------------------------------
 BYTE   W96
//  #13 //015   ----------------------------------------
 BYTE   W96
//  #13 //016   ----------------------------------------
 BYTE   W96
//  #13 //017   ----------------------------------------
 BYTE   W96
//  #13 //018   ----------------------------------------
 BYTE   W96
//  #13 //019   ----------------------------------------
 BYTE   W96
//  #13 //020   ----------------------------------------
 BYTE   W96
//  #13 //021   ----------------------------------------
 BYTE   W96
//  #13 //022   ----------------------------------------
 BYTE   W96
//  #13 //023   ----------------------------------------
 BYTE   W96
//  #13 //024   ----------------------------------------
 BYTE   W96
//  #13 //025   ----------------------------------------
 BYTE   W96
//  #13 //026   ----------------------------------------
 BYTE   W96
//  #13 //027   ----------------------------------------
 BYTE   W96
//  #13 //028   ----------------------------------------
Label_010065A8:
 BYTE   W96
//  #13 //029   ----------------------------------------
 BYTE   W96
//  #13 //030   ----------------------------------------
 BYTE   W96
//  #13 //031   ----------------------------------------
 BYTE   W96
//  #13 //032   ----------------------------------------
 BYTE   W96
//  #13 //033   ----------------------------------------
 BYTE   W96
//  #13 //034   ----------------------------------------
 BYTE   W96
//  #13 //035   ----------------------------------------
 BYTE   W96
//  #13 //036   ----------------------------------------
 BYTE   W96
//  #13 //037   ----------------------------------------
 BYTE   W96
//  #13 //038   ----------------------------------------
 BYTE   W96
//  #13 //039   ----------------------------------------
 BYTE   W96
//  #13 //040   ----------------------------------------
 BYTE   W96
//  #13 //041   ----------------------------------------
 BYTE   W96
//  #13 //042   ----------------------------------------
 BYTE   W96
//  #13 //043   ----------------------------------------
 BYTE   W96
//  #13 //044   ----------------------------------------
 BYTE   W96
//  #13 //045   ----------------------------------------
 BYTE   W96
//  #13 //046   ----------------------------------------
 BYTE   W96
//  #13 //047   ----------------------------------------
 BYTE   W96
//  #13 //048   ----------------------------------------
 BYTE   W96
//  #13 //049   ----------------------------------------
 BYTE   W96
//  #13 //050   ----------------------------------------
Label_010065BE:
 BYTE   W48
 BYTE   N04  Fn2  v012
 BYTE   W04
 BYTE   Gn2  v032
 BYTE   W05
 BYTE   Gs2  v056
 BYTE   W04
 BYTE   An2  v088
 BYTE   W05
 BYTE   As2  v127
 BYTE   W04
 BYTE   Cn3
 BYTE   W05
 BYTE   Dn3
 BYTE   W04
 BYTE   Fn3
 BYTE   W05
 BYTE   En3
 BYTE   W04
 BYTE   Fs3
 BYTE   W05
 BYTE   Gn3
 BYTE   W03
 BYTE   PEND 
//  #13 //051   ----------------------------------------
Label_010065DC:
 BYTE   W01
 BYTE   N04  Gs3  v127
 BYTE   W05
 BYTE   An3
 BYTE   W04
 BYTE   Bn3
 BYTE   W05
 BYTE   Cs4
 BYTE   W04
 BYTE   En4
 BYTE   W05
 BYTE   Ds4
 BYTE   W04
 BYTE   Fn4
 BYTE   W05
 BYTE   Fs4
 BYTE   W04
 BYTE   Gn4
 BYTE   W05
 BYTE   Gs4
 BYTE   W04
 BYTE   As4
 BYTE   W05
 BYTE   Cn5
 BYTE   W04
 BYTE   Ds5
 BYTE   W05
 BYTE   Dn5
 BYTE   W04
 BYTE   En5
 BYTE   W05
 BYTE   Fn5
 BYTE   W04
 BYTE   Fs5
 BYTE   W05
 BYTE   Gn5
 BYTE   W04
 BYTE   An5
 BYTE   W05
 BYTE   Bn5
 BYTE   W04
 BYTE   Cn6
 BYTE   W05
 BYTE   PEND 
//  #13 //052   ----------------------------------------
Label_0100660A:
 BYTE   N04  Bn5  v127
 BYTE   W04
 BYTE   An5  v088
 BYTE   W05
 BYTE   Gn5  v056
 BYTE   W04
 BYTE   Fs5  v032
 BYTE   W05
 BYTE   Gn5  v012
 BYTE   W04
 BYTE   Fs5
 BYTE   W05
 BYTE   Fn5
 BYTE   W04
 BYTE   En5
 BYTE   W64
 BYTE   W01
 BYTE   PEND 
//  #13 //053   ----------------------------------------
 BYTE   W96
//  #13 //054   ----------------------------------------
 BYTE   W96
//  #13 //055   ----------------------------------------
 BYTE   W96
//  #13 //056   ----------------------------------------
 BYTE   W96
//  #13 //057   ----------------------------------------
 BYTE   W96
//  #13 //058   ----------------------------------------
 BYTE   W96
//  #13 //059   ----------------------------------------
 BYTE   W96
//  #13 //060   ----------------------------------------
 BYTE   W96
//  #13 //061   ----------------------------------------
 BYTE   W96
//  #13 //062   ----------------------------------------
 BYTE   W96
//  #13 //063   ----------------------------------------
 BYTE   W96
//  #13 //064   ----------------------------------------
 BYTE   W96
//  #13 //065   ----------------------------------------
 BYTE   W96
//  #13 //066   ----------------------------------------
 BYTE   W96
//  #13 //067   ----------------------------------------
 BYTE   W96
//  #13 //068   ----------------------------------------
 BYTE   W96
//  #13 //069   ----------------------------------------
 BYTE   W96
//  #13 //070   ----------------------------------------
 BYTE   W96
//  #13 //071   ----------------------------------------
 BYTE   W96
//  #13 //072   ----------------------------------------
 BYTE   W96
//  #13 //073   ----------------------------------------
 BYTE   W96
//  #13 //074   ----------------------------------------
 BYTE   W96
//  #13 //075   ----------------------------------------
 BYTE   W96
//  #13 //076   ----------------------------------------
 BYTE   W96
//  #13 //077   ----------------------------------------
 BYTE   W96
//  #13 //078   ----------------------------------------
 BYTE   W96
//  #13 //079   ----------------------------------------
 BYTE   W96
//  #13 //080   ----------------------------------------
 BYTE   W96
//  #13 //081   ----------------------------------------
 BYTE   W96
//  #13 //082   ----------------------------------------
 BYTE   W96
//  #13 //083   ----------------------------------------
 BYTE   W96
//  #13 //084   ----------------------------------------
 BYTE   W96
//  #13 //085   ----------------------------------------
 BYTE   W96
//  #13 //086   ----------------------------------------
 BYTE   W96
//  #13 //087   ----------------------------------------
 BYTE   W96
//  #13 //088   ----------------------------------------
 BYTE   W96
//  #13 //089   ----------------------------------------
 BYTE   W96
//  #13 //090   ----------------------------------------
 BYTE   W96
//  #13 //091   ----------------------------------------
 BYTE   W96
//  #13 //092   ----------------------------------------
 BYTE   W96
//  #13 //093   ----------------------------------------
 BYTE   W96
//  #13 //094   ----------------------------------------
 BYTE   W96
//  #13 //095   ----------------------------------------
 BYTE   W96
//  #13 //096   ----------------------------------------
 BYTE   W96
//  #13 //097   ----------------------------------------
 BYTE   W96
//  #13 //098   ----------------------------------------
 BYTE   PATT
  POIN2 Label_010065BE
//  #13 //099   ----------------------------------------
 BYTE   PATT
  POIN2 Label_010065DC
//  #13 //100   ----------------------------------------
 BYTE   PATT
  POIN2 Label_0100660A
//  #13 //101   ----------------------------------------
 BYTE   W96
//  #13 //102   ----------------------------------------
 BYTE   W96
//  #13 //103   ----------------------------------------
 BYTE   W96
//  #13 //104   ----------------------------------------
 BYTE   W96
//  #13 //105   ----------------------------------------
 BYTE   W96
//  #13 //106   ----------------------------------------
 BYTE   W96
//  #13 //107   ----------------------------------------
 BYTE   W96
//  #13 //108   ----------------------------------------
 BYTE   W96
//  #13 //109   ----------------------------------------
 BYTE   W96
//  #13 //110   ----------------------------------------
 BYTE   W96
//  #13 //111   ----------------------------------------
 BYTE   W96
//  #13 //112   ----------------------------------------
 BYTE   W96
//  #13 //113   ----------------------------------------
 BYTE   W96
//  #13 //114   ----------------------------------------
 BYTE   W96
//  #13 //115   ----------------------------------------
 BYTE   W96
//  #13 //116   ----------------------------------------
 BYTE   W96
//  #13 //117   ----------------------------------------
 BYTE   W96
//  #13 //118   ----------------------------------------
 BYTE   W96
//  #13 //119   ----------------------------------------
 BYTE   W96
//  #13 //120   ----------------------------------------
 BYTE   W96
//  #13 //121   ----------------------------------------
 BYTE   W96
//  #13 //122   ----------------------------------------
 BYTE   W96
//  #13 //123   ----------------------------------------
 BYTE   W96
//  #13 //124   ----------------------------------------
 BYTE   GoTo
  POIN2 Label_010065A8
 BYTE   FINE

//**************** Track 14 (Midi-Chn.13) ****************//

Ambience_014:
//  #14 //000   ----------------------------------------
 BYTE   KEYSH   Ambience_key+0
 BYTE   VOICE   40
 BYTE   MODT 0
 BYTE   LFOS 44
 BYTE   VOL   12*Ambience_mvl/mxv
 BYTE   PAN   c_v+0
 BYTE   W96
//  #14 //001   ----------------------------------------
 BYTE   W96
//  #14 //002   ----------------------------------------
 BYTE   W96
//  #14 //003   ----------------------------------------
 BYTE   W96
//  #14 //004   ----------------------------------------
 BYTE   W96
//  #14 //005   ----------------------------------------
 BYTE   W96
//  #14 //006   ----------------------------------------
 BYTE   W96
//  #14 //007   ----------------------------------------
 BYTE   W96
//  #14 //008   ----------------------------------------
 BYTE   W96
//  #14 //009   ----------------------------------------
 BYTE   W96
//  #14 //010   ----------------------------------------
 BYTE   W96
//  #14 //011   ----------------------------------------
 BYTE   W96
//  #14 //012   ----------------------------------------
 BYTE   W96
//  #14 //013   ----------------------------------------
 BYTE   W96
//  #14 //014   ----------------------------------------
 BYTE   W96
//  #14 //015   ----------------------------------------
 BYTE   W96
//  #14 //016   ----------------------------------------
 BYTE   W96
//  #14 //017   ----------------------------------------
 BYTE   W96
//  #14 //018   ----------------------------------------
 BYTE   W96
//  #14 //019   ----------------------------------------
 BYTE   W96
//  #14 //020   ----------------------------------------
 BYTE   W96
//  #14 //021   ----------------------------------------
 BYTE   W96
//  #14 //022   ----------------------------------------
 BYTE   W96
//  #14 //023   ----------------------------------------
 BYTE   W96
//  #14 //024   ----------------------------------------
 BYTE   W96
//  #14 //025   ----------------------------------------
 BYTE   W96
//  #14 //026   ----------------------------------------
 BYTE   W96
//  #14 //027   ----------------------------------------
 BYTE   W96
//  #14 //028   ----------------------------------------
Label_01008C4C:
 BYTE   VOL   12*Ambience_mvl/mxv
 BYTE   W96
//  #14 //029   ----------------------------------------
 BYTE   W96
//  #14 //030   ----------------------------------------
 BYTE   W96
//  #14 //031   ----------------------------------------
 BYTE   W96
//  #14 //032   ----------------------------------------
Label_01008C52:
 BYTE   VOL   0*Ambience_mvl/mxv
 BYTE   TIE  Gn4  v056
 BYTE   W06
 BYTE   VOL   0*Ambience_mvl/mxv
 BYTE   W06
 BYTE   VOL   6*Ambience_mvl/mxv
 BYTE   W06
 BYTE   VOL   10*Ambience_mvl/mxv
 BYTE   W06
 BYTE   VOL   15*Ambience_mvl/mxv
 BYTE   W06
 BYTE   VOL   21*Ambience_mvl/mxv
 BYTE   W06
 BYTE   VOL   27*Ambience_mvl/mxv
 BYTE   W06
 BYTE   VOL   34*Ambience_mvl/mxv
 BYTE   W12
 BYTE   VOL   41*Ambience_mvl/mxv
 BYTE   W06
 BYTE   VOL   50*Ambience_mvl/mxv
 BYTE   W36
 BYTE   PEND 
//  #14 //033   ----------------------------------------
 BYTE   W96
//  #14 //034   ----------------------------------------
 BYTE   W96
//  #14 //035   ----------------------------------------
 BYTE   W96
//  #14 //036   ----------------------------------------
 BYTE   EOT
 BYTE   W96
//  #14 //037   ----------------------------------------
 BYTE   W96
//  #14 //038   ----------------------------------------
 BYTE   W96
//  #14 //039   ----------------------------------------
 BYTE   W96
//  #14 //040   ----------------------------------------
Label_01008C74:
 BYTE   VOL   0*Ambience_mvl/mxv
 BYTE   TIE  Dn5  v088
 BYTE   W06
 BYTE   VOL   0*Ambience_mvl/mxv
 BYTE   W06
 BYTE   VOL   6*Ambience_mvl/mxv
 BYTE   W06
 BYTE   VOL   10*Ambience_mvl/mxv
 BYTE   W06
 BYTE   VOL   15*Ambience_mvl/mxv
 BYTE   W06
 BYTE   VOL   21*Ambience_mvl/mxv
 BYTE   W06
 BYTE   VOL   27*Ambience_mvl/mxv
 BYTE   W06
 BYTE   VOL   34*Ambience_mvl/mxv
 BYTE   W12
 BYTE   VOL   41*Ambience_mvl/mxv
 BYTE   W06
 BYTE   VOL   50*Ambience_mvl/mxv
 BYTE   W36
 BYTE   PEND 
//  #14 //041   ----------------------------------------
Label_01008C8E:
 BYTE   W72
 BYTE   BEND   c_v-4
 BYTE   W06
 BYTE   BEND   c_v-8
 BYTE   W06
 BYTE   BEND   c_v-12
 BYTE   W06
 BYTE   BEND   c_v-16
 BYTE   W06
 BYTE   PEND 
//  #14 //042   ----------------------------------------
Label_01008C99:
 BYTE   BEND   c_v-19
 BYTE   W06
 BYTE   BEND   c_v-23
 BYTE   W06
 BYTE   BEND   c_v-27
 BYTE   W06
 BYTE   BEND   c_v-31
 BYTE   W06
 BYTE   BEND   c_v-34
 BYTE   W06
 BYTE   BEND   c_v-38
 BYTE   W06
 BYTE   BEND   c_v-42
 BYTE   W06
 BYTE   BEND   c_v-46
 BYTE   W06
 BYTE   BEND   c_v-49
 BYTE   W06
 BYTE   BEND   c_v-53
 BYTE   W06
 BYTE   BEND   c_v-57
 BYTE   W06
 BYTE   BEND   c_v-61
 BYTE   W06
 BYTE   BEND   c_v-64
 BYTE   W24
 BYTE   PEND 
//  #14 //043   ----------------------------------------
Label_01008CB5:
 BYTE   W24
 BYTE   VOL   8*Ambience_mvl/mxv
 BYTE   W06
 BYTE   VOL   41*Ambience_mvl/mxv
 BYTE   W06
 BYTE   VOL   38*Ambience_mvl/mxv
 BYTE   W06
 BYTE   VOL   34*Ambience_mvl/mxv
 BYTE   W06
 BYTE   VOL   30*Ambience_mvl/mxv
 BYTE   W06
 BYTE   VOL   27*Ambience_mvl/mxv
 BYTE   W06
 BYTE   VOL   24*Ambience_mvl/mxv
 BYTE   W06
 BYTE   VOL   21*Ambience_mvl/mxv
 BYTE   W12
 BYTE   VOL   18*Ambience_mvl/mxv
 BYTE   W06
 BYTE   VOL   15*Ambience_mvl/mxv
 BYTE   W06
 BYTE   VOL   12*Ambience_mvl/mxv
 BYTE   W06
 BYTE   PEND 
//  #14 //044   ----------------------------------------
Label_01008CCE:
 BYTE   VOL   0*Ambience_mvl/mxv
 BYTE   W06
 BYTE   VOL   8*Ambience_mvl/mxv
 BYTE   W06
 BYTE   VOL   6*Ambience_mvl/mxv
 BYTE   W06
 BYTE   VOL   5*Ambience_mvl/mxv
 BYTE   W06
 BYTE   VOL   3*Ambience_mvl/mxv
 BYTE   W06
 BYTE   VOL   1*Ambience_mvl/mxv
 BYTE   W06
 BYTE   VOL   0*Ambience_mvl/mxv
 BYTE   W06
 BYTE   VOL   0*Ambience_mvl/mxv
 BYTE   W06
 BYTE   PEND 
 BYTE   EOT
 BYTE   Dn5
 BYTE   W48
//  #14 //045   ----------------------------------------
 BYTE   BEND   c_v+0
 BYTE   W96
//  #14 //046   ----------------------------------------
 BYTE   W96
//  #14 //047   ----------------------------------------
 BYTE   W96
//  #14 //048   ----------------------------------------
 BYTE   W96
//  #14 //049   ----------------------------------------
 BYTE   W96
//  #14 //050   ----------------------------------------
 BYTE   W96
//  #14 //051   ----------------------------------------
 BYTE   W96
//  #14 //052   ----------------------------------------
 BYTE   W96
//  #14 //053   ----------------------------------------
 BYTE   W96
//  #14 //054   ----------------------------------------
 BYTE   W96
//  #14 //055   ----------------------------------------
 BYTE   W96
//  #14 //056   ----------------------------------------
 BYTE   W96
//  #14 //057   ----------------------------------------
 BYTE   W96
//  #14 //058   ----------------------------------------
 BYTE   W96
//  #14 //059   ----------------------------------------
 BYTE   W96
//  #14 //060   ----------------------------------------
 BYTE   W96
//  #14 //061   ----------------------------------------
 BYTE   W96
//  #14 //062   ----------------------------------------
 BYTE   W96
//  #14 //063   ----------------------------------------
 BYTE   W96
//  #14 //064   ----------------------------------------
 BYTE   W96
//  #14 //065   ----------------------------------------
 BYTE   W96
//  #14 //066   ----------------------------------------
 BYTE   W96
//  #14 //067   ----------------------------------------
 BYTE   W96
//  #14 //068   ----------------------------------------
 BYTE   W96
//  #14 //069   ----------------------------------------
 BYTE   W96
//  #14 //070   ----------------------------------------
 BYTE   W96
//  #14 //071   ----------------------------------------
 BYTE   W96
//  #14 //072   ----------------------------------------
 BYTE   W96
//  #14 //073   ----------------------------------------
 BYTE   W96
//  #14 //074   ----------------------------------------
 BYTE   W96
//  #14 //075   ----------------------------------------
 BYTE   W96
//  #14 //076   ----------------------------------------
 BYTE   W96
//  #14 //077   ----------------------------------------
 BYTE   W96
//  #14 //078   ----------------------------------------
 BYTE   W96
//  #14 //079   ----------------------------------------
 BYTE   W96
//  #14 //080   ----------------------------------------
 BYTE   PATT
  POIN2 Label_01008C52
//  #14 //081   ----------------------------------------
 BYTE   W96
//  #14 //082   ----------------------------------------
 BYTE   W96
//  #14 //083   ----------------------------------------
 BYTE   W96
//  #14 //084   ----------------------------------------
 BYTE   EOT
 BYTE   Gn4
 BYTE   W96
//  #14 //085   ----------------------------------------
 BYTE   W96
//  #14 //086   ----------------------------------------
 BYTE   W96
//  #14 //087   ----------------------------------------
 BYTE   W96
//  #14 //088   ----------------------------------------
 BYTE   PATT
  POIN2 Label_01008C74
//  #14 //089   ----------------------------------------
 BYTE   PATT
  POIN2 Label_01008C8E
//  #14 //090   ----------------------------------------
 BYTE   PATT
  POIN2 Label_01008C99
//  #14 //091   ----------------------------------------
 BYTE   PATT
  POIN2 Label_01008CB5
//  #14 //092   ----------------------------------------
 BYTE   PATT
  POIN2 Label_01008CCE
//  #14 //093   ----------------------------------------
 BYTE   EOT
 BYTE   Dn5
 BYTE   W48
 BYTE   BEND   c_v+0
 BYTE   W96
//  #14 //094   ----------------------------------------
 BYTE   W96
//  #14 //095   ----------------------------------------
 BYTE   W96
//  #14 //096   ----------------------------------------
 BYTE   W96
//  #14 //097   ----------------------------------------
 BYTE   W96
//  #14 //098   ----------------------------------------
 BYTE   W96
//  #14 //099   ----------------------------------------
 BYTE   W96
//  #14 //100   ----------------------------------------
 BYTE   W96
//  #14 //101   ----------------------------------------
 BYTE   W96
//  #14 //102   ----------------------------------------
 BYTE   W96
//  #14 //103   ----------------------------------------
 BYTE   W96
//  #14 //104   ----------------------------------------
 BYTE   W96
//  #14 //105   ----------------------------------------
 BYTE   W96
//  #14 //106   ----------------------------------------
 BYTE   W96
//  #14 //107   ----------------------------------------
 BYTE   W96
//  #14 //108   ----------------------------------------
 BYTE   W96
//  #14 //109   ----------------------------------------
 BYTE   W96
//  #14 //110   ----------------------------------------
 BYTE   W96
//  #14 //111   ----------------------------------------
 BYTE   W96
//  #14 //112   ----------------------------------------
 BYTE   W96
//  #14 //113   ----------------------------------------
 BYTE   W96
//  #14 //114   ----------------------------------------
 BYTE   W96
//  #14 //115   ----------------------------------------
 BYTE   W96
//  #14 //116   ----------------------------------------
 BYTE   W96
//  #14 //117   ----------------------------------------
 BYTE   W96
//  #14 //118   ----------------------------------------
 BYTE   W96
//  #14 //119   ----------------------------------------
 BYTE   W96
//  #14 //120   ----------------------------------------
 BYTE   W96
//  #14 //121   ----------------------------------------
 BYTE   W96
//  #14 //122   ----------------------------------------
 BYTE   W96
//  #14 //123   ----------------------------------------
 BYTE   W96
//  #14 //124   ----------------------------------------
 BYTE   GoTo
  POIN2 Label_01008C4C
//  #14 //125   ----------------------------------------
 BYTE   VOL   12*Ambience_mvl/mxv
 BYTE   FINE

//**************** Track 15 (Midi-Chn.14) ****************//

Ambience_015:
//  #15 //000   ----------------------------------------
 BYTE   KEYSH   Ambience_key+0
 BYTE   VOICE   18
 BYTE   MODT 0
 BYTE   LFOS 44
 BYTE   VOL   25*Ambience_mvl/mxv
 BYTE   PAN   c_v+0
 BYTE   W96
//  #15 //001   ----------------------------------------
 BYTE   W96
//  #15 //002   ----------------------------------------
 BYTE   W96
//  #15 //003   ----------------------------------------
 BYTE   W96
//  #15 //004   ----------------------------------------
 BYTE   W96
//  #15 //005   ----------------------------------------
 BYTE   W96
//  #15 //006   ----------------------------------------
 BYTE   W96
//  #15 //007   ----------------------------------------
 BYTE   W96
//  #15 //008   ----------------------------------------
 BYTE   W96
//  #15 //009   ----------------------------------------
 BYTE   W96
//  #15 //010   ----------------------------------------
 BYTE   W96
//  #15 //011   ----------------------------------------
 BYTE   W96
//  #15 //012   ----------------------------------------
 BYTE   W96
//  #15 //013   ----------------------------------------
 BYTE   W96
//  #15 //014   ----------------------------------------
 BYTE   W96
//  #15 //015   ----------------------------------------
 BYTE   W96
//  #15 //016   ----------------------------------------
 BYTE   W96
//  #15 //017   ----------------------------------------
 BYTE   W96
//  #15 //018   ----------------------------------------
 BYTE   W96
//  #15 //019   ----------------------------------------
 BYTE   W96
//  #15 //020   ----------------------------------------
 BYTE   W96
//  #15 //021   ----------------------------------------
 BYTE   W96
//  #15 //022   ----------------------------------------
 BYTE   W96
//  #15 //023   ----------------------------------------
 BYTE   W96
//  #15 //024   ----------------------------------------
 BYTE   W96
//  #15 //025   ----------------------------------------
 BYTE   W96
//  #15 //026   ----------------------------------------
 BYTE   W96
//  #15 //027   ----------------------------------------
 BYTE   W96
//  #15 //028   ----------------------------------------
Label_01008D94:
 BYTE   W96
//  #15 //029   ----------------------------------------
 BYTE   W96
//  #15 //030   ----------------------------------------
 BYTE   W96
//  #15 //031   ----------------------------------------
 BYTE   W96
//  #15 //032   ----------------------------------------
 BYTE   W96
//  #15 //033   ----------------------------------------
 BYTE   W96
//  #15 //034   ----------------------------------------
 BYTE   W96
//  #15 //035   ----------------------------------------
 BYTE   W96
//  #15 //036   ----------------------------------------
Label_01008D9C:
 BYTE   W72
 BYTE   N12  Dn5  v127
 BYTE   W12
 BYTE   Ds5
 BYTE   W12
 BYTE   PEND 
//  #15 //037   ----------------------------------------
Label_01008DA4:
 BYTE   N12  As5  v127
 BYTE   W12
 BYTE   Dn5  v088
 BYTE   W12
 BYTE   Ds5
 BYTE   W12
 BYTE   As5
 BYTE   W12
 BYTE   Dn5  v052
 BYTE   W12
 BYTE   Ds5  v044
 BYTE   W12
 BYTE   As5  v040
 BYTE   W12
 BYTE   Dn5  v016
 BYTE   W12
 BYTE   PEND 
//  #15 //038   ----------------------------------------
Label_01008DBC:
 BYTE   N12  Ds5  v012
 BYTE   W72
 BYTE   Dn5  v127
 BYTE   W12
 BYTE   Ds5
 BYTE   W12
 BYTE   PEND 
//  #15 //039   ----------------------------------------
 BYTE   PATT
  POIN2 Label_01008DA4
//  #15 //040   ----------------------------------------
 BYTE   N12  Ds5  v012
 BYTE   W96
//  #15 //041   ----------------------------------------
 BYTE   W96
//  #15 //042   ----------------------------------------
 BYTE   W96
//  #15 //043   ----------------------------------------
 BYTE   W96
//  #15 //044   ----------------------------------------
Label_01008DD2:
 BYTE   N12  Gs5  v127
 BYTE   W12
 BYTE   Gn5
 BYTE   W12
 BYTE   As5
 BYTE   W12
 BYTE   Fn5
 BYTE   W12
 BYTE   Gs5
 BYTE   W12
 BYTE   Gn5
 BYTE   W12
 BYTE   Cn5
 BYTE   W12
 BYTE   Ds5
 BYTE   W12
 BYTE   PEND 
//  #15 //045   ----------------------------------------
Label_01008DE5:
 BYTE   N12  Gs5  v068
 BYTE   W12
 BYTE   Gn5
 BYTE   W12
 BYTE   As5
 BYTE   W12
 BYTE   Fn5
 BYTE   W12
 BYTE   Gs5
 BYTE   W12
 BYTE   Gn5
 BYTE   W12
 BYTE   Cn5
 BYTE   W12
 BYTE   Ds5
 BYTE   W12
 BYTE   PEND 
//  #15 //046   ----------------------------------------
Label_01008DF8:
 BYTE   N12  Gs5  v024
 BYTE   W12
 BYTE   Gn5
 BYTE   W12
 BYTE   As5
 BYTE   W12
 BYTE   Fn5
 BYTE   W12
 BYTE   Gs5
 BYTE   W12
 BYTE   Gn5
 BYTE   W12
 BYTE   Cn5
 BYTE   W12
 BYTE   Ds5
 BYTE   W12
 BYTE   PEND 
//  #15 //047   ----------------------------------------
Label_01008E0B:
 BYTE   N12  Gs5  v004
 BYTE   W12
 BYTE   Gn5
 BYTE   W12
 BYTE   As5
 BYTE   W12
 BYTE   Fn5
 BYTE   W12
 BYTE   Gs5
 BYTE   W12
 BYTE   Gn5
 BYTE   W12
 BYTE   Cn5
 BYTE   W12
 BYTE   Ds5
 BYTE   W12
 BYTE   PEND 
//  #15 //048   ----------------------------------------
 BYTE   W96
//  #15 //049   ----------------------------------------
 BYTE   W96
//  #15 //050   ----------------------------------------
 BYTE   W96
//  #15 //051   ----------------------------------------
 BYTE   W96
//  #15 //052   ----------------------------------------
 BYTE   W96
//  #15 //053   ----------------------------------------
 BYTE   W96
//  #15 //054   ----------------------------------------
 BYTE   W96
//  #15 //055   ----------------------------------------
 BYTE   W96
//  #15 //056   ----------------------------------------
 BYTE   W96
//  #15 //057   ----------------------------------------
 BYTE   W96
//  #15 //058   ----------------------------------------
 BYTE   W96
//  #15 //059   ----------------------------------------
 BYTE   W96
//  #15 //060   ----------------------------------------
 BYTE   W96
//  #15 //061   ----------------------------------------
 BYTE   W96
//  #15 //062   ----------------------------------------
 BYTE   W96
//  #15 //063   ----------------------------------------
 BYTE   W96
//  #15 //064   ----------------------------------------
 BYTE   W96
//  #15 //065   ----------------------------------------
 BYTE   W96
//  #15 //066   ----------------------------------------
 BYTE   W96
//  #15 //067   ----------------------------------------
 BYTE   W96
//  #15 //068   ----------------------------------------
 BYTE   W96
//  #15 //069   ----------------------------------------
 BYTE   W96
//  #15 //070   ----------------------------------------
 BYTE   W96
//  #15 //071   ----------------------------------------
 BYTE   W96
//  #15 //072   ----------------------------------------
Label_01008E36:
 BYTE   N12  As6  v127
 BYTE   W12
 BYTE   As5
 BYTE   W12
 BYTE   As6  v040
 BYTE   W12
 BYTE   As5
 BYTE   W60
 BYTE   PEND 
//  #15 //073   ----------------------------------------
 BYTE   W96
//  #15 //074   ----------------------------------------
 BYTE   PATT
  POIN2 Label_01008E36
//  #15 //075   ----------------------------------------
 BYTE   W96
//  #15 //076   ----------------------------------------
 BYTE   W96
//  #15 //077   ----------------------------------------
 BYTE   W96
//  #15 //078   ----------------------------------------
 BYTE   W96
//  #15 //079   ----------------------------------------
 BYTE   W96
//  #15 //080   ----------------------------------------
 BYTE   W96
//  #15 //081   ----------------------------------------
 BYTE   W96
//  #15 //082   ----------------------------------------
 BYTE   W96
//  #15 //083   ----------------------------------------
 BYTE   W96
//  #15 //084   ----------------------------------------
 BYTE   PATT
  POIN2 Label_01008D9C
//  #15 //085   ----------------------------------------
 BYTE   PATT
  POIN2 Label_01008DA4
//  #15 //086   ----------------------------------------
 BYTE   PATT
  POIN2 Label_01008DBC
//  #15 //087   ----------------------------------------
 BYTE   PATT
  POIN2 Label_01008DA4
//  #15 //088   ----------------------------------------
 BYTE   N12  Ds5  v012
 BYTE   W96
//  #15 //089   ----------------------------------------
 BYTE   W96
//  #15 //090   ----------------------------------------
 BYTE   W96
//  #15 //091   ----------------------------------------
 BYTE   W96
//  #15 //092   ----------------------------------------
 BYTE   PATT
  POIN2 Label_01008DD2
//  #15 //093   ----------------------------------------
 BYTE   PATT
  POIN2 Label_01008DE5
//  #15 //094   ----------------------------------------
 BYTE   PATT
  POIN2 Label_01008DF8
//  #15 //095   ----------------------------------------
 BYTE   PATT
  POIN2 Label_01008E0B
//  #15 //096   ----------------------------------------
 BYTE   W96
//  #15 //097   ----------------------------------------
 BYTE   W96
//  #15 //098   ----------------------------------------
 BYTE   W96
//  #15 //099   ----------------------------------------
 BYTE   W96
//  #15 //100   ----------------------------------------
 BYTE   W96
//  #15 //101   ----------------------------------------
 BYTE   W96
//  #15 //102   ----------------------------------------
 BYTE   W96
//  #15 //103   ----------------------------------------
 BYTE   W96
//  #15 //104   ----------------------------------------
 BYTE   W96
//  #15 //105   ----------------------------------------
 BYTE   W96
//  #15 //106   ----------------------------------------
 BYTE   W96
//  #15 //107   ----------------------------------------
 BYTE   W96
//  #15 //108   ----------------------------------------
 BYTE   W96
//  #15 //109   ----------------------------------------
 BYTE   W96
//  #15 //110   ----------------------------------------
 BYTE   W96
//  #15 //111   ----------------------------------------
 BYTE   W96
//  #15 //112   ----------------------------------------
 BYTE   W96
//  #15 //113   ----------------------------------------
 BYTE   W96
//  #15 //114   ----------------------------------------
 BYTE   W96
//  #15 //115   ----------------------------------------
 BYTE   W96
//  #15 //116   ----------------------------------------
 BYTE   W96
//  #15 //117   ----------------------------------------
 BYTE   W96
//  #15 //118   ----------------------------------------
 BYTE   W96
//  #15 //119   ----------------------------------------
 BYTE   W96
//  #15 //120   ----------------------------------------
 BYTE   PATT
  POIN2 Label_01008E36
//  #15 //121   ----------------------------------------
 BYTE   W96
//  #15 //122   ----------------------------------------
 BYTE   PATT
  POIN2 Label_01008E36
//  #15 //123   ----------------------------------------
 BYTE   W96
//  #15 //124   ----------------------------------------
 BYTE   GoTo
  POIN2 Label_01008D94
 BYTE   FINE

//******************************************************//
	ALIGN 4

Ambience:
	BYTE	15	// NumTrks
	BYTE	0	// NumBlks
	BYTE	Ambience_pri	// Priority
	BYTE	Ambience_rev	// Reverb.
    
	POIN2	Ambience_grp
    
	POIN2	Ambience_001
	POIN2	Ambience_002
	POIN2	Ambience_003
	POIN2	Ambience_004
	POIN2	Ambience_005
	POIN2	Ambience_006
	POIN2	Ambience_007
	POIN2	Ambience_008
	POIN2	Ambience_009
	POIN2	Ambience_010
	POIN2	Ambience_011
	POIN2	Ambience_012
	POIN2	Ambience_013
	POIN2	Ambience_014
	POIN2	Ambience_015

	
