//Event file generated from Sappy .s format.
	#include "MPlayDef.event"

	#define	Ameno_grp  voicegroup000
	#define	Ameno_pri  0
	#define	Ameno_rev  0
	#define	Ameno_mvl  127
	#define	Ameno_key  0
	#define	Ameno_tbs  1
	#define	Ameno_exg  0
	#define	Ameno_cmp  1

	// .rodata
	//	Ameno
	ALIGN 4


//**************** Track 1 (Midi-Chn.0) ****************//

Ameno_001:
// 000   ----------------------------------------
 BYTE   KEYSH   Ameno_key+0
 BYTE   TEMPO   102*Ameno_tbs/2
 BYTE   VOICE   40
 BYTE   VOL   31*Ameno_mvl/mxv
 BYTE   TIE  Gs0  v100
 BYTE   TIE  Gs1
 BYTE   W48
 BYTE   W48
// 001   ----------------------------------------
 BYTE   W48
 BYTE   W48
// 002   ----------------------------------------
 BYTE   W48
 BYTE   W48
// 003   ----------------------------------------
 BYTE   EOT
 BYTE   Gs0  v044
Label_0_0134AC36:
 BYTE   TIE  En0  v100
 BYTE   TIE  En1
 BYTE   W48
 BYTE   PEND 
 BYTE   W48
// 004   ----------------------------------------
 BYTE   W48
 BYTE   W48
// 005   ----------------------------------------
 BYTE   EOT
 BYTE   En0  v040
 BYTE   N96  Fs0
 BYTE   N96  Fs1
 BYTE   W48
 BYTE   W48
// 006   ----------------------------------------
 BYTE   Ds0
 BYTE   N96  Ds1
 BYTE   W48
 BYTE   W48
// 007   ----------------------------------------
Label_0_0134AC4E:
 BYTE   TIE  Gs0  v100
 BYTE   TIE  Gs1
 BYTE   W48
 BYTE   PEND 
 BYTE   W48
// 008   ----------------------------------------
 BYTE   W48
 BYTE   W48
// 009   ----------------------------------------
 BYTE   EOT
 BYTE   Gs0  v044
// 010   ----------------------------------------
 BYTE   PATT
  POIN2 Label_0_0134AC4E
// 011   ----------------------------------------
 BYTE   W48
 BYTE   W48
// 012   ----------------------------------------
 BYTE   W48
 BYTE   EOT
 BYTE   Gs0  v044
// 013   ----------------------------------------
 BYTE   PATT
  POIN2 Label_0_0134AC36
// 014   ----------------------------------------
 BYTE   W48
 BYTE   W48
// 015   ----------------------------------------
 BYTE   W48
 BYTE   EOT
 BYTE   En0  v040
 BYTE   N96  Fs0  v100
 BYTE   N96  Fs1
 BYTE   W48
// 016   ----------------------------------------
 BYTE   W48
 BYTE   Ds0
 BYTE   N96  Ds1
 BYTE   W48
// 017   ----------------------------------------
 BYTE   W48
// 018   ----------------------------------------
 BYTE   PATT
  POIN2 Label_0_0134AC4E
// 019   ----------------------------------------
 BYTE   W48
 BYTE   W48
// 020   ----------------------------------------
 BYTE   EOT
 BYTE   Gs0  v044
// 021   ----------------------------------------
 BYTE   PATT
  POIN2 Label_0_0134AC4E
// 022   ----------------------------------------
 BYTE   W48
 BYTE   W48
// 023   ----------------------------------------
 BYTE   W48
 BYTE   W48
// 024   ----------------------------------------
 BYTE   W48
 BYTE   W48
// 025   ----------------------------------------
 BYTE   W48
 BYTE   EOT
 BYTE   Gs0  v044
 BYTE   N96  Cs1  v100
 BYTE   N96  Cs2
 BYTE   W48
// 026   ----------------------------------------
 BYTE   W48
 BYTE   Cn1
 BYTE   N96  Cn2
 BYTE   W48
// 027   ----------------------------------------
 BYTE   W48
 BYTE   N48  Bn0
 BYTE   N48  Bn1
 BYTE   W48
// 028   ----------------------------------------
 BYTE   An0
 BYTE   N48  An1
 BYTE   W48
 BYTE   N96  Gs0
 BYTE   N96  Gs1
 BYTE   W48
// 029   ----------------------------------------
 BYTE   W48
 BYTE   N48  An0
 BYTE   N48  An1
 BYTE   W48
// 030   ----------------------------------------
 BYTE   An0
 BYTE   N48  An1
 BYTE   W48
 BYTE   N96  En1
 BYTE   N96  En2
 BYTE   W48
// 031   ----------------------------------------
 BYTE   W48
 BYTE   Cs1
 BYTE   N96  Cs2
 BYTE   W48
// 032   ----------------------------------------
 BYTE   W48
 BYTE   Cn1
 BYTE   N96  Cn2
 BYTE   W48
// 033   ----------------------------------------
 BYTE   W48
 BYTE   N48  Bn0
 BYTE   N48  Bn1
 BYTE   W48
// 034   ----------------------------------------
 BYTE   An0
 BYTE   N48  An1
 BYTE   W48
 BYTE   N96  Gs0
 BYTE   N96  Gs1
 BYTE   W48
// 035   ----------------------------------------
 BYTE   W48
 BYTE   N48  An0
 BYTE   N48  An1
 BYTE   W48
// 036   ----------------------------------------
 BYTE   An0
 BYTE   N48  An1
 BYTE   W48
 BYTE   N96  En1
 BYTE   N96  En2
 BYTE   W48
// 037   ----------------------------------------
 BYTE   W48
// 038   ----------------------------------------
 BYTE   PATT
  POIN2 Label_0_0134AC4E
// 039   ----------------------------------------
 BYTE   W48
 BYTE   W48
// 040   ----------------------------------------
 BYTE   W48
 BYTE   EOT
 BYTE   Gs0  v044
// 041   ----------------------------------------
 BYTE   PATT
  POIN2 Label_0_0134AC36
// 042   ----------------------------------------
 BYTE   W48
 BYTE   W48
// 043   ----------------------------------------
 BYTE   W48
 BYTE   EOT
 BYTE   En0  v040
 BYTE   N96  Gs1  v048
 BYTE   W48
// 044   ----------------------------------------
 BYTE   W48
// 045   ----------------------------------------
 BYTE   PATT
  POIN2 Label_0_0134AC4E
// 046   ----------------------------------------
 BYTE   W48
 BYTE   W48
// 047   ----------------------------------------
 BYTE   W48
 BYTE   EOT
 BYTE   Gs0  v044
// 048   ----------------------------------------
 BYTE   PATT
  POIN2 Label_0_0134AC36
// 049   ----------------------------------------
 BYTE   W48
 BYTE   W48
// 050   ----------------------------------------
 BYTE   W48
 BYTE   EOT
 BYTE   En0  v040
 BYTE   N96  Fs0  v100
 BYTE   N96  Fs1
 BYTE   W48
// 051   ----------------------------------------
 BYTE   W48
 BYTE   Ds0
 BYTE   N96  Ds1
 BYTE   W48
// 052   ----------------------------------------
 BYTE   W48
// 053   ----------------------------------------
 BYTE   PATT
  POIN2 Label_0_0134AC4E
// 054   ----------------------------------------
 BYTE   W48
 BYTE   W48
// 055   ----------------------------------------
 BYTE   EOT
 BYTE   Gs0  v044
// 056   ----------------------------------------
 BYTE   PATT
  POIN2 Label_0_0134AC4E
// 057   ----------------------------------------
 BYTE   W48
 BYTE   W48
// 058   ----------------------------------------
 BYTE   W48
 BYTE   W48
// 059   ----------------------------------------
 BYTE   W48
 BYTE   W48
// 060   ----------------------------------------
 BYTE   W48
 BYTE   EOT
 BYTE   Gs0  v044
 BYTE   N96  Cs1  v100
 BYTE   N96  Cs2
 BYTE   W48
// 061   ----------------------------------------
 BYTE   W48
 BYTE   Cn1
 BYTE   N96  Cn2
 BYTE   W48
// 062   ----------------------------------------
 BYTE   W48
 BYTE   N48  Bn0
 BYTE   N48  Bn1
 BYTE   W48
// 063   ----------------------------------------
 BYTE   An0
 BYTE   N48  An1
 BYTE   W48
 BYTE   N96  Gs0
 BYTE   N96  Gs1
 BYTE   W48
// 064   ----------------------------------------
 BYTE   W48
 BYTE   N48  An0
 BYTE   N48  An1
 BYTE   W48
// 065   ----------------------------------------
 BYTE   An0
 BYTE   N48  An1
 BYTE   W48
 BYTE   N96  En1
 BYTE   N96  En2
 BYTE   W48
// 066   ----------------------------------------
 BYTE   W48
 BYTE   Cs1
 BYTE   N96  Cs2
 BYTE   W48
// 067   ----------------------------------------
 BYTE   W48
 BYTE   Cn1
 BYTE   N96  Cn2
 BYTE   W48
// 068   ----------------------------------------
 BYTE   W48
 BYTE   N48  Bn0
 BYTE   N48  Bn1
 BYTE   W48
// 069   ----------------------------------------
 BYTE   An0
 BYTE   N48  An1
 BYTE   W48
 BYTE   N96  Gs0
 BYTE   N96  Gs1
 BYTE   W48
// 070   ----------------------------------------
 BYTE   W48
 BYTE   N48  An0
 BYTE   N48  An1
 BYTE   W48
// 071   ----------------------------------------
 BYTE   An0
 BYTE   N48  An1
 BYTE   W48
 BYTE   N96  En1
 BYTE   N96  En2
 BYTE   W48
// 072   ----------------------------------------
 BYTE   W48
 BYTE   Cs1
 BYTE   N96  Cs2
 BYTE   W48
// 073   ----------------------------------------
 BYTE   W48
 BYTE   Cn1
 BYTE   N96  Cn2
 BYTE   W48
// 074   ----------------------------------------
 BYTE   W48
 BYTE   N48  Bn0
 BYTE   N48  Bn1
 BYTE   W48
// 075   ----------------------------------------
 BYTE   An0
 BYTE   N48  An1
 BYTE   W48
 BYTE   N96  Gs0
 BYTE   N96  Gs1
 BYTE   W48
// 076   ----------------------------------------
 BYTE   W48
 BYTE   N48  An0
 BYTE   N48  An1
 BYTE   W48
// 077   ----------------------------------------
 BYTE   An0
 BYTE   N48  An1
 BYTE   W48
 BYTE   N96  En1
 BYTE   N96  En2
 BYTE   W48
// 078   ----------------------------------------
 BYTE   W48
 BYTE   Cs1
 BYTE   N96  Cs2
 BYTE   W48
// 079   ----------------------------------------
 BYTE   W48
 BYTE   Cn1
 BYTE   N96  Cn2
 BYTE   W48
// 080   ----------------------------------------
 BYTE   W48
 BYTE   N48  Bn0
 BYTE   N48  Bn1
 BYTE   W48
// 081   ----------------------------------------
 BYTE   An0
 BYTE   N48  An1
 BYTE   W48
 BYTE   N96  Gs0
 BYTE   N96  Gs1
 BYTE   W48
// 082   ----------------------------------------
 BYTE   W48
 BYTE   N48  An0
 BYTE   N48  An1
 BYTE   W48
// 083   ----------------------------------------
 BYTE   An0
 BYTE   N48  An1
 BYTE   W48
 BYTE   N96  En1
 BYTE   N96  En2
 BYTE   W48
// 084   ----------------------------------------
 BYTE   W48
 BYTE   TIE  Gs0  v072
 BYTE   TIE  Gs1
 BYTE   W48
// 085   ----------------------------------------
 BYTE   W48
 BYTE   W48
// 086   ----------------------------------------
 BYTE   W48
 BYTE   W48
// 087   ----------------------------------------
 BYTE   W48
 BYTE   W48
// 088   ----------------------------------------
 BYTE   W48
 BYTE   W48
// 089   ----------------------------------------
 BYTE   W48
 BYTE   W48
// 090   ----------------------------------------
 BYTE   W48
 BYTE   W48
// 091   ----------------------------------------
 BYTE   EOT
 BYTE   Gs0  v044
 BYTE   N48  An0
 BYTE   N48  An1
 BYTE   W48
 BYTE   TIE  En0
 BYTE   TIE  En1
 BYTE   W48
// 092   ----------------------------------------
 BYTE   W48
 BYTE   W48
// 093   ----------------------------------------
 BYTE   W48
 BYTE   W48
// 094   ----------------------------------------
 BYTE   W48
 BYTE   EOT
 BYTE   En0  v040
 BYTE   N96  Cs1  v100
 BYTE   N96  Cs2
 BYTE   W48
// 095   ----------------------------------------
 BYTE   W48
 BYTE   Cn1
 BYTE   N96  Cn2
 BYTE   W48
// 096   ----------------------------------------
 BYTE   W48
 BYTE   N48  Bn0
 BYTE   N48  Bn1
 BYTE   W48
// 097   ----------------------------------------
 BYTE   An0
 BYTE   N48  An1
 BYTE   W48
 BYTE   N96  Gs0
 BYTE   N96  Gs1
 BYTE   W48
// 098   ----------------------------------------
 BYTE   W48
 BYTE   N48  An0
 BYTE   N48  An1
 BYTE   W48
// 099   ----------------------------------------
 BYTE   An0
 BYTE   N48  An1
 BYTE   W48
 BYTE   N96  En1
 BYTE   N96  En2
 BYTE   W48
// 100   ----------------------------------------
 BYTE   W48
Label_0_0134AE31:
 BYTE   N96  Cs1  v100
 BYTE   N96  Cs2
 BYTE   W48
// 101   ----------------------------------------
 BYTE   W48
 BYTE   Cn1
 BYTE   N96  Cn2
 BYTE   W48
// 102   ----------------------------------------
 BYTE   W48
 BYTE   N48  Bn0
 BYTE   N48  Bn1
 BYTE   W48
// 103   ----------------------------------------
 BYTE   An0
 BYTE   N48  An1
 BYTE   W48
 BYTE   N96  Gs0
 BYTE   N96  Gs1
 BYTE   W48
// 104   ----------------------------------------
 BYTE   W48
 BYTE   N48  An0
 BYTE   N48  An1
 BYTE   W48
// 105   ----------------------------------------
 BYTE   An0
 BYTE   N48  An1
 BYTE   W48
 BYTE   N96  En1
 BYTE   N96  En2
 BYTE   W48
// 106   ----------------------------------------
 BYTE   W48
 BYTE   Cs1
 BYTE   N96  Cs2
 BYTE   W48
// 107   ----------------------------------------
 BYTE   W48
 BYTE   Cn1
 BYTE   N96  Cn2
 BYTE   W48
// 108   ----------------------------------------
 BYTE   W48
 BYTE   N48  Bn0
 BYTE   N48  Bn1
 BYTE   W48
// 109   ----------------------------------------
 BYTE   An0
 BYTE   N48  An1
 BYTE   W48
 BYTE   N96  Gs0
 BYTE   N96  Gs1
 BYTE   W48
// 110   ----------------------------------------
 BYTE   W48
 BYTE   N48  An0
 BYTE   N48  An1
 BYTE   W48
// 111   ----------------------------------------
 BYTE   An0
 BYTE   N48  An1
 BYTE   W48
 BYTE   N96  En1
 BYTE   N96  En2
 BYTE   W48
// 112   ----------------------------------------
 BYTE   W48
 BYTE   GoTo
  POIN2 Label_0_0134AE31
 BYTE   FINE

//**************** Track 2 (Midi-Chn.1) ****************//

Ameno_002:
// 000   ----------------------------------------
 BYTE   VOL   70*Ameno_mvl/mxv
 BYTE   KEYSH   Ameno_key+0
 BYTE   VOICE   52
 BYTE   PAN   c_v+31
 BYTE   W48
 BYTE   W48
// 001   ----------------------------------------
Label_1_01ACC32A:
 BYTE   N12  Fs2  v100
 BYTE   N12  As2  v127
 BYTE   W12
 BYTE   Gs2  v100
 BYTE   N12  Bn2  v127
 BYTE   W12
 BYTE   N24  Gs2  v100
 BYTE   N24  Bn2  v127
 BYTE   W24
 BYTE   PEND 
 BYTE   W48
// 002   ----------------------------------------
Label_1_01ACC340:
 BYTE   N12  Fs2  v100
 BYTE   N12  As2  v127
 BYTE   W12
 BYTE   Gs2  v100
 BYTE   N12  Bn2  v127
 BYTE   W12
 BYTE   Gs2  v100
 BYTE   N12  Bn2  v127
 BYTE   W12
 BYTE   Gs2  v100
 BYTE   N12  Bn2  v127
 BYTE   W12
 BYTE   PEND 
// 003   ----------------------------------------
 BYTE   PATT
  POIN2 Label_1_01ACC340
// 004   ----------------------------------------
 BYTE   PATT
  POIN2 Label_1_01ACC32A
// 005   ----------------------------------------
 BYTE   W48
Label_1_01ACC365:
 BYTE   N12  As2  v100
 BYTE   N12  Cs3  v127
 BYTE   W12
 BYTE   Gs2  v100
 BYTE   N12  Bn2  v127
 BYTE   W12
 BYTE   N24  Gs2  v100
 BYTE   N24  Bn2  v127
 BYTE   W24
 BYTE   PEND 
// 006   ----------------------------------------
 BYTE   PATT
  POIN2 Label_1_01ACC365
// 007   ----------------------------------------
Label_1_01ACC37F:
 BYTE   N12  Gs2  v100
 BYTE   N12  Bn2  v127
 BYTE   W12
 BYTE   Fs2  v100
 BYTE   N12  As2  v127
 BYTE   W12
 BYTE   N24  Fs2  v100
 BYTE   N24  As2  v127
 BYTE   W24
 BYTE   PEND 
 BYTE   W48
// 008   ----------------------------------------
 BYTE   PATT
  POIN2 Label_1_01ACC37F
// 009   ----------------------------------------
Label_1_01ACC39A:
 BYTE   N24  Fs2  v100
 BYTE   N24  As2  v127
 BYTE   W48
 BYTE   PEND 
// 010   ----------------------------------------
 BYTE   PATT
  POIN2 Label_1_01ACC32A
// 011   ----------------------------------------
 BYTE   W48
 BYTE   W48
// 012   ----------------------------------------
 BYTE   W48
Label_1_01ACC3AA:
 BYTE   N12  Fs2  v100
 BYTE   N12  As2
 BYTE   N12  Cs3  v127
 BYTE   W12
 BYTE   Gs2  v100
 BYTE   N12  Bn2
 BYTE   N12  Ds3  v127
 BYTE   W12
 BYTE   N24  Gs2  v100
 BYTE   N24  Bn2
 BYTE   N24  Ds3  v127
 BYTE   W24
 BYTE   PEND 
// 013   ----------------------------------------
 BYTE   W48
Label_1_01ACC3C6:
 BYTE   N12  Fs2  v100
 BYTE   N12  As2
 BYTE   N12  Cs3  v127
 BYTE   W12
 BYTE   Gs2  v100
 BYTE   N12  Bn2
 BYTE   N12  Ds3  v127
 BYTE   W12
 BYTE   Gs2  v100
 BYTE   N12  Bn2
 BYTE   N12  Ds3  v127
 BYTE   W12
 BYTE   Gs2  v100
 BYTE   N12  Bn2
 BYTE   N12  Ds3  v127
 BYTE   W12
 BYTE   PEND 
// 014   ----------------------------------------
 BYTE   PATT
  POIN2 Label_1_01ACC3C6
// 015   ----------------------------------------
 BYTE   PATT
  POIN2 Label_1_01ACC3AA
// 016   ----------------------------------------
 BYTE   W48
// 017   ----------------------------------------
 BYTE   PATT
  POIN2 Label_1_01ACC365
// 018   ----------------------------------------
 BYTE   PATT
  POIN2 Label_1_01ACC365
// 019   ----------------------------------------
 BYTE   PATT
  POIN2 Label_1_01ACC37F
// 020   ----------------------------------------
 BYTE   W48
// 021   ----------------------------------------
 BYTE   PATT
  POIN2 Label_1_01ACC37F
// 022   ----------------------------------------
 BYTE   PATT
  POIN2 Label_1_01ACC39A
// 023   ----------------------------------------
 BYTE   PATT
  POIN2 Label_1_01ACC32A
// 024   ----------------------------------------
 BYTE   W48
 BYTE   W48
// 025   ----------------------------------------
Label_1_01ACC414:
 BYTE   N12  Cs3  v127
 BYTE   W12
 BYTE   Ds3
 BYTE   W12
 BYTE   N12
 BYTE   W12
 BYTE   N12
 BYTE   W12
 BYTE   PEND 
// 026   ----------------------------------------
 BYTE   PATT
  POIN2 Label_1_01ACC414
// 027   ----------------------------------------
Label_1_01ACC424:
 BYTE   N12  Ds3  v127
 BYTE   W12
 BYTE   En3
 BYTE   W12
 BYTE   N12
 BYTE   W12
 BYTE   N12
 BYTE   W12
 BYTE   PEND 
Label_1_01ACC42F:
 BYTE   W12
 BYTE   N12  Gs3  v127
 BYTE   W12
 BYTE   Ds3
 BYTE   W12
 BYTE   En3
 BYTE   W12
 BYTE   PEND 
// 028   ----------------------------------------
 BYTE   PATT
  POIN2 Label_1_01ACC414
// 029   ----------------------------------------
 BYTE   PATT
  POIN2 Label_1_01ACC414
// 030   ----------------------------------------
 BYTE   PATT
  POIN2 Label_1_01ACC424
// 031   ----------------------------------------
Label_1_01ACC448:
 BYTE   W12
 BYTE   N12  Gs2  v127
 BYTE   W12
 BYTE   Ds2
 BYTE   W12
 BYTE   En2
 BYTE   W12
 BYTE   PEND 
 BYTE   W48
// 032   ----------------------------------------
 BYTE   PATT
  POIN2 Label_1_01ACC448
// 033   ----------------------------------------
Label_1_01ACC458:
 BYTE   N24  Gs2  v127
 BYTE   W24
 BYTE   N24
 BYTE   W24
 BYTE   PEND 
 BYTE   W48
// 034   ----------------------------------------
Label_1_01ACC460:
 BYTE   W12
 BYTE   N12  Fs2  v127
 BYTE   W12
 BYTE   N12
 BYTE   W12
 BYTE   N12
 BYTE   W12
 BYTE   PEND 
Label_1_01ACC46A:
 BYTE   N24  En2  v127
 BYTE   W24
 BYTE   Gs2
 BYTE   W24
 BYTE   PEND 
// 035   ----------------------------------------
 BYTE   N24
 BYTE   W48
 BYTE   W48
// 036   ----------------------------------------
 BYTE   PATT
  POIN2 Label_1_01ACC460
// 037   ----------------------------------------
Label_1_01ACC479:
 BYTE   N24  En2  v127
 BYTE   W24
 BYTE   Bn2
 BYTE   W24
 BYTE   PEND 
 BYTE   N24
 BYTE   W48
// 038   ----------------------------------------
 BYTE   PATT
  POIN2 Label_1_01ACC448
// 039   ----------------------------------------
 BYTE   N24  Gs2  v127
 BYTE   W48
// 040   ----------------------------------------
 BYTE   PATT
  POIN2 Label_1_01ACC448
// 041   ----------------------------------------
 BYTE   PATT
  POIN2 Label_1_01ACC458
// 042   ----------------------------------------
 BYTE   W48
// 043   ----------------------------------------
 BYTE   PATT
  POIN2 Label_1_01ACC460
// 044   ----------------------------------------
 BYTE   PATT
  POIN2 Label_1_01ACC46A
// 045   ----------------------------------------
 BYTE   N24  Gs2  v127
 BYTE   W48
 BYTE   W48
// 046   ----------------------------------------
 BYTE   PATT
  POIN2 Label_1_01ACC460
// 047   ----------------------------------------
 BYTE   PATT
  POIN2 Label_1_01ACC479
// 048   ----------------------------------------
 BYTE   N24  Bn2  v127
 BYTE   W48
Label_1_01ACC4B3:
 BYTE   N12  An2  v127
 BYTE   W12
 BYTE   Gs2
 BYTE   W12
 BYTE   Fs2
 BYTE   W12
 BYTE   En2
 BYTE   W12
 BYTE   PEND 
// 049   ----------------------------------------
 BYTE   W48
 BYTE   W48
// 050   ----------------------------------------
 BYTE   W48
 BYTE   W48
// 051   ----------------------------------------
 BYTE   W48
 BYTE   W48
// 052   ----------------------------------------
 BYTE   W48
 BYTE   W48
// 053   ----------------------------------------
 BYTE   W48
 BYTE   W48
// 054   ----------------------------------------
 BYTE   PATT
  POIN2 Label_1_01ACC3AA
// 055   ----------------------------------------
 BYTE   W48
// 056   ----------------------------------------
 BYTE   PATT
  POIN2 Label_1_01ACC3C6
// 057   ----------------------------------------
 BYTE   PATT
  POIN2 Label_1_01ACC3C6
// 058   ----------------------------------------
 BYTE   PATT
  POIN2 Label_1_01ACC3AA
// 059   ----------------------------------------
 BYTE   W48
// 060   ----------------------------------------
 BYTE   PATT
  POIN2 Label_1_01ACC365
// 061   ----------------------------------------
 BYTE   PATT
  POIN2 Label_1_01ACC365
// 062   ----------------------------------------
 BYTE   PATT
  POIN2 Label_1_01ACC37F
// 063   ----------------------------------------
 BYTE   W48
// 064   ----------------------------------------
 BYTE   PATT
  POIN2 Label_1_01ACC37F
// 065   ----------------------------------------
 BYTE   PATT
  POIN2 Label_1_01ACC39A
// 066   ----------------------------------------
 BYTE   PATT
  POIN2 Label_1_01ACC32A
// 067   ----------------------------------------
 BYTE   W48
 BYTE   W48
// 068   ----------------------------------------
 BYTE   PATT
  POIN2 Label_1_01ACC414
// 069   ----------------------------------------
 BYTE   PATT
  POIN2 Label_1_01ACC414
// 070   ----------------------------------------
 BYTE   PATT
  POIN2 Label_1_01ACC424
// 071   ----------------------------------------
 BYTE   PATT
  POIN2 Label_1_01ACC42F
// 072   ----------------------------------------
 BYTE   PATT
  POIN2 Label_1_01ACC414
// 073   ----------------------------------------
 BYTE   PATT
  POIN2 Label_1_01ACC414
// 074   ----------------------------------------
 BYTE   PATT
  POIN2 Label_1_01ACC424
// 075   ----------------------------------------
 BYTE   PATT
  POIN2 Label_1_01ACC448
// 076   ----------------------------------------
 BYTE   W48
// 077   ----------------------------------------
 BYTE   PATT
  POIN2 Label_1_01ACC448
// 078   ----------------------------------------
 BYTE   PATT
  POIN2 Label_1_01ACC458
// 079   ----------------------------------------
 BYTE   W48
// 080   ----------------------------------------
 BYTE   PATT
  POIN2 Label_1_01ACC460
// 081   ----------------------------------------
 BYTE   PATT
  POIN2 Label_1_01ACC46A
// 082   ----------------------------------------
 BYTE   N24  Gs2  v127
 BYTE   W48
 BYTE   W48
// 083   ----------------------------------------
 BYTE   PATT
  POIN2 Label_1_01ACC460
// 084   ----------------------------------------
 BYTE   PATT
  POIN2 Label_1_01ACC479
// 085   ----------------------------------------
 BYTE   N24  Bn2  v127
 BYTE   W48
// 086   ----------------------------------------
 BYTE   PATT
  POIN2 Label_1_01ACC448
// 087   ----------------------------------------
 BYTE   N24  Gs2  v127
 BYTE   W48
// 088   ----------------------------------------
 BYTE   PATT
  POIN2 Label_1_01ACC448
// 089   ----------------------------------------
 BYTE   PATT
  POIN2 Label_1_01ACC458
// 090   ----------------------------------------
 BYTE   W48
// 091   ----------------------------------------
 BYTE   PATT
  POIN2 Label_1_01ACC460
// 092   ----------------------------------------
 BYTE   PATT
  POIN2 Label_1_01ACC46A
// 093   ----------------------------------------
 BYTE   N24  Gs2  v127
 BYTE   W48
 BYTE   W48
// 094   ----------------------------------------
 BYTE   PATT
  POIN2 Label_1_01ACC460
// 095   ----------------------------------------
 BYTE   PATT
  POIN2 Label_1_01ACC479
// 096   ----------------------------------------
 BYTE   N24  Bn2  v127
 BYTE   W48
// 097   ----------------------------------------
 BYTE   PATT
  POIN2 Label_1_01ACC4B3
// 098   ----------------------------------------
 BYTE   W48
 BYTE   W48
// 099   ----------------------------------------
 BYTE   W48
 BYTE   W48
// 100   ----------------------------------------
 BYTE   W48
 BYTE   W48
// 101   ----------------------------------------
 BYTE   W48
 BYTE   W48
// 102   ----------------------------------------
 BYTE   W48
 BYTE   W48
// 103   ----------------------------------------
 BYTE   W48
 BYTE   W48
// 104   ----------------------------------------
 BYTE   W48
 BYTE   W48
// 105   ----------------------------------------
 BYTE   W48
 BYTE   W48
// 106   ----------------------------------------
 BYTE   PATT
  POIN2 Label_1_01ACC460
// 107   ----------------------------------------
 BYTE   PATT
  POIN2 Label_1_01ACC46A
// 108   ----------------------------------------
 BYTE   N24  Gs2  v127
 BYTE   W48
 BYTE   W48
// 109   ----------------------------------------
 BYTE   PATT
  POIN2 Label_1_01ACC460
// 110   ----------------------------------------
 BYTE   PATT
  POIN2 Label_1_01ACC479
// 111   ----------------------------------------
 BYTE   N24  Bn2  v127
 BYTE   W48
// 112   ----------------------------------------
 BYTE   PATT
  POIN2 Label_1_01ACC4B3
// 113   ----------------------------------------
 BYTE   N12  An2  v100
 BYTE   W12
 BYTE   Gs2
 BYTE   W12
 BYTE   Fs2
 BYTE   W12
 BYTE   En2
 BYTE   W12
 BYTE   An2  v080
 BYTE   W12
 BYTE   Gs2
 BYTE   W12
 BYTE   Fs2
 BYTE   W12
 BYTE   En2
 BYTE   W12
// 114   ----------------------------------------
 BYTE   An2  v072
 BYTE   W12
 BYTE   Gs2
 BYTE   W12
 BYTE   Fs2
 BYTE   W12
 BYTE   En2
 BYTE   W12
 BYTE   An2  v060
 BYTE   W12
 BYTE   Gs2
 BYTE   W12
 BYTE   Fs2
 BYTE   W12
 BYTE   En2
 BYTE   W12
// 115   ----------------------------------------
 BYTE   An2  v040
 BYTE   W12
 BYTE   Gs2
 BYTE   W12
 BYTE   Fs2
 BYTE   W12
 BYTE   En2
 BYTE   W12
 BYTE   An2  v020
 BYTE   W12
 BYTE   Gs2
 BYTE   W12
 BYTE   Fs2
 BYTE   W12
 BYTE   En2
 BYTE   W12
// 116   ----------------------------------------
 BYTE   W48
// 117   ----------------------------------------
 BYTE   PATT
  POIN2 Label_1_01ACC448
// 118   ----------------------------------------
 BYTE   W48
// 119   ----------------------------------------
 BYTE   PATT
  POIN2 Label_1_01ACC448
// 120   ----------------------------------------
 BYTE   PATT
  POIN2 Label_1_01ACC458
// 121   ----------------------------------------
 BYTE   W48
// 122   ----------------------------------------
 BYTE   PATT
  POIN2 Label_1_01ACC460
// 123   ----------------------------------------
 BYTE   PATT
  POIN2 Label_1_01ACC46A
// 124   ----------------------------------------
 BYTE   N24  Gs2  v127
 BYTE   W48
 BYTE   W48
// 125   ----------------------------------------
 BYTE   PATT
  POIN2 Label_1_01ACC460
// 126   ----------------------------------------
 BYTE   PATT
  POIN2 Label_1_01ACC479
// 127   ----------------------------------------
 BYTE   N24  Bn2  v127
 BYTE   W48
// 128   ----------------------------------------
 BYTE   PATT
  POIN2 Label_1_01ACC448
// 129   ----------------------------------------
 BYTE   N24  Gs2  v127
 BYTE   W48
// 130   ----------------------------------------
 BYTE   PATT
  POIN2 Label_1_01ACC448
// 131   ----------------------------------------
 BYTE   PATT
  POIN2 Label_1_01ACC458
// 132   ----------------------------------------
 BYTE   W48
// 133   ----------------------------------------
 BYTE   PATT
  POIN2 Label_1_01ACC460
// 134   ----------------------------------------
 BYTE   PATT
  POIN2 Label_1_01ACC46A
// 135   ----------------------------------------
 BYTE   N24  Gs2  v127
 BYTE   W48
 BYTE   W48
// 136   ----------------------------------------
 BYTE   PATT
  POIN2 Label_1_01ACC460
// 137   ----------------------------------------
 BYTE   PATT
  POIN2 Label_1_01ACC479
// 138   ----------------------------------------
 BYTE   N24  Bn2  v127
 BYTE   W48
// 139   ----------------------------------------
 BYTE   PATT
  POIN2 Label_1_01ACC4B3
// 140   ----------------------------------------
Label_1_01ACC654:
 BYTE   N24  Gs2  v127
 BYTE   W48
// 141   ----------------------------------------
 BYTE   PATT
  POIN2 Label_1_01ACC448
// 142   ----------------------------------------
 BYTE   PATT
  POIN2 Label_1_01ACC458
// 143   ----------------------------------------
 BYTE   W48
// 144   ----------------------------------------
 BYTE   PATT
  POIN2 Label_1_01ACC460
// 145   ----------------------------------------
 BYTE   PATT
  POIN2 Label_1_01ACC46A
// 146   ----------------------------------------
 BYTE   N24  Gs2  v127
 BYTE   W48
 BYTE   W48
// 147   ----------------------------------------
 BYTE   PATT
  POIN2 Label_1_01ACC460
// 148   ----------------------------------------
 BYTE   PATT
  POIN2 Label_1_01ACC479
// 149   ----------------------------------------
 BYTE   N24  Bn2  v127
 BYTE   W48
// 150   ----------------------------------------
 BYTE   PATT
  POIN2 Label_1_01ACC448
// 151   ----------------------------------------
 BYTE   N24  Gs2  v127
 BYTE   W48
// 152   ----------------------------------------
 BYTE   PATT
  POIN2 Label_1_01ACC448
// 153   ----------------------------------------
 BYTE   PATT
  POIN2 Label_1_01ACC458
// 154   ----------------------------------------
 BYTE   W48
// 155   ----------------------------------------
 BYTE   PATT
  POIN2 Label_1_01ACC460
// 156   ----------------------------------------
 BYTE   PATT
  POIN2 Label_1_01ACC46A
// 157   ----------------------------------------
 BYTE   N24  Gs2  v127
 BYTE   W48
 BYTE   W48
// 158   ----------------------------------------
 BYTE   PATT
  POIN2 Label_1_01ACC460
// 159   ----------------------------------------
 BYTE   PATT
  POIN2 Label_1_01ACC479
// 160   ----------------------------------------
 BYTE   N24  Bn2  v127
 BYTE   W48
// 161   ----------------------------------------
 BYTE   PATT
  POIN2 Label_1_01ACC4B3
// 162   ----------------------------------------
 BYTE   GoTo
  POIN2 Label_1_01ACC654
 BYTE   FINE

//**************** Track 3 (Midi-Chn.2) ****************//

Ameno_003:
// 000   ----------------------------------------
 BYTE   KEYSH   Ameno_key+0
 BYTE   VOICE   52
 BYTE   VOL   38*Ameno_mvl/mxv
 BYTE   PAN   c_v-32
 BYTE   W48
 BYTE   W48
// 001   ----------------------------------------
 BYTE   W48
 BYTE   W48
// 002   ----------------------------------------
 BYTE   W48
 BYTE   W48
// 003   ----------------------------------------
 BYTE   W48
 BYTE   W48
// 004   ----------------------------------------
 BYTE   W48
 BYTE   W48
// 005   ----------------------------------------
 BYTE   W48
 BYTE   W48
// 006   ----------------------------------------
 BYTE   W48
 BYTE   W48
// 007   ----------------------------------------
 BYTE   W48
 BYTE   W48
// 008   ----------------------------------------
 BYTE   W48
 BYTE   W48
// 009   ----------------------------------------
Label_2_01ACC6D6:
 BYTE   N12  Fs3  v100
 BYTE   N12  As3
 BYTE   N12  Cs4  v127
 BYTE   W12
 BYTE   Gs3  v100
 BYTE   N12  Bn3
 BYTE   N12  Ds4  v127
 BYTE   W12
 BYTE   N24  Gs3  v100
 BYTE   N24  Bn3
 BYTE   N24  Ds4  v127
 BYTE   W24
 BYTE   PEND 
 BYTE   W48
// 010   ----------------------------------------
Label_2_01ACC6F2:
 BYTE   N12  Fs3  v100
 BYTE   N12  As3
 BYTE   N12  Cs4  v127
 BYTE   W12
 BYTE   Gs3  v100
 BYTE   N12  Bn3
 BYTE   N12  Ds4  v127
 BYTE   W12
 BYTE   Gs3  v100
 BYTE   N12  Bn3
 BYTE   N12  Ds4  v127
 BYTE   W12
 BYTE   Gs3  v100
 BYTE   N12  Bn3
 BYTE   N12  Ds4  v127
 BYTE   W12
 BYTE   PEND 
// 011   ----------------------------------------
 BYTE   PATT
  POIN2 Label_2_01ACC6F2
// 012   ----------------------------------------
 BYTE   PATT
  POIN2 Label_2_01ACC6D6
// 013   ----------------------------------------
 BYTE   W48
Label_2_01ACC71F:
 BYTE   N12  As3  v100
 BYTE   N12  Cs4  v127
 BYTE   W12
 BYTE   Gs3  v100
 BYTE   N12  Bn3  v127
 BYTE   W12
 BYTE   N24  Gs3  v100
 BYTE   N24  Bn3  v127
 BYTE   W24
 BYTE   PEND 
// 014   ----------------------------------------
 BYTE   PATT
  POIN2 Label_2_01ACC71F
// 015   ----------------------------------------
Label_2_01ACC739:
 BYTE   N12  Gs3  v100
 BYTE   N12  Bn3  v127
 BYTE   W12
 BYTE   Fs3  v100
 BYTE   N12  As3  v127
 BYTE   W12
 BYTE   N24  Fs3  v100
 BYTE   N24  As3  v127
 BYTE   W24
 BYTE   PEND 
 BYTE   W48
// 016   ----------------------------------------
 BYTE   PATT
  POIN2 Label_2_01ACC739
// 017   ----------------------------------------
Label_2_01ACC754:
 BYTE   N24  Fs3  v100
 BYTE   N24  As3  v127
 BYTE   W48
 BYTE   PEND 
Label_2_01ACC75C:
 BYTE   N12  Fs3  v100
 BYTE   N12  As3  v127
 BYTE   W12
 BYTE   Gs3  v100
 BYTE   N12  Bn3  v127
 BYTE   W12
 BYTE   N24  Gs3  v100
 BYTE   N24  Bn3  v127
 BYTE   W24
 BYTE   PEND 
// 018   ----------------------------------------
 BYTE   W48
 BYTE   W48
// 019   ----------------------------------------
 BYTE   W48
 BYTE   W48
// 020   ----------------------------------------
 BYTE   W48
 BYTE   W48
// 021   ----------------------------------------
 BYTE   W48
 BYTE   W48
// 022   ----------------------------------------
 BYTE   W48
Label_2_01ACC77A:
 BYTE   W12
 BYTE   N12  Gs3  v127
 BYTE   W12
 BYTE   Ds3
 BYTE   W12
 BYTE   En3
 BYTE   W12
 BYTE   PEND 
// 023   ----------------------------------------
 BYTE   W48
// 024   ----------------------------------------
 BYTE   PATT
  POIN2 Label_2_01ACC77A
// 025   ----------------------------------------
Label_2_01ACC78A:
 BYTE   N24  Gs3  v127
 BYTE   W24
 BYTE   N24
 BYTE   W24
 BYTE   PEND 
 BYTE   W48
// 026   ----------------------------------------
Label_2_01ACC792:
 BYTE   W12
 BYTE   N12  Fs3  v127
 BYTE   W12
 BYTE   N12
 BYTE   W12
 BYTE   N12
 BYTE   W12
 BYTE   PEND 
 BYTE   N24  En3
 BYTE   W24
 BYTE   Gs3
 BYTE   W24
// 027   ----------------------------------------
 BYTE   N24
 BYTE   W48
 BYTE   W48
// 028   ----------------------------------------
 BYTE   PATT
  POIN2 Label_2_01ACC792
// 029   ----------------------------------------
 BYTE   N24  En3  v127
 BYTE   W24
 BYTE   Bn3
 BYTE   W24
 BYTE   N24
 BYTE   W48
// 030   ----------------------------------------
 BYTE   PATT
  POIN2 Label_2_01ACC77A
// 031   ----------------------------------------
 BYTE   N24  Gs3  v127
 BYTE   W48
// 032   ----------------------------------------
 BYTE   PATT
  POIN2 Label_2_01ACC77A
// 033   ----------------------------------------
 BYTE   PATT
  POIN2 Label_2_01ACC78A
// 034   ----------------------------------------
 BYTE   W48
// 035   ----------------------------------------
 BYTE   PATT
  POIN2 Label_2_01ACC792
// 036   ----------------------------------------
 BYTE   N24  En3  v127
 BYTE   W24
 BYTE   Gs3
 BYTE   W24
 BYTE   N24
 BYTE   W48
// 037   ----------------------------------------
 BYTE   W48
// 038   ----------------------------------------
 BYTE   PATT
  POIN2 Label_2_01ACC792
// 039   ----------------------------------------
 BYTE   N24  En3  v127
 BYTE   W24
 BYTE   Bn3
 BYTE   W24
 BYTE   N24
 BYTE   W48
// 040   ----------------------------------------
Label_2_01ACC7E0:
 BYTE   N12  An3  v127
 BYTE   W12
 BYTE   Gs3
 BYTE   W12
 BYTE   Fs3
 BYTE   W12
 BYTE   En3
 BYTE   W12
 BYTE   PEND 
 BYTE   W48
// 041   ----------------------------------------
 BYTE   W48
 BYTE   W48
// 042   ----------------------------------------
 BYTE   W48
 BYTE   W48
// 043   ----------------------------------------
 BYTE   W48
 BYTE   W48
// 044   ----------------------------------------
 BYTE   W48
 BYTE   W48
// 045   ----------------------------------------
 BYTE   W48
// 046   ----------------------------------------
 BYTE   PATT
  POIN2 Label_2_01ACC6D6
// 047   ----------------------------------------
 BYTE   W48
// 048   ----------------------------------------
 BYTE   PATT
  POIN2 Label_2_01ACC6F2
// 049   ----------------------------------------
 BYTE   PATT
  POIN2 Label_2_01ACC6F2
// 050   ----------------------------------------
 BYTE   PATT
  POIN2 Label_2_01ACC6D6
// 051   ----------------------------------------
 BYTE   W48
// 052   ----------------------------------------
 BYTE   PATT
  POIN2 Label_2_01ACC71F
// 053   ----------------------------------------
 BYTE   PATT
  POIN2 Label_2_01ACC71F
// 054   ----------------------------------------
 BYTE   PATT
  POIN2 Label_2_01ACC739
// 055   ----------------------------------------
 BYTE   W48
// 056   ----------------------------------------
 BYTE   PATT
  POIN2 Label_2_01ACC739
// 057   ----------------------------------------
 BYTE   PATT
  POIN2 Label_2_01ACC754
// 058   ----------------------------------------
 BYTE   PATT
  POIN2 Label_2_01ACC75C
// 059   ----------------------------------------
 BYTE   W48
 BYTE   W48
// 060   ----------------------------------------
 BYTE   W48
 BYTE   W48
// 061   ----------------------------------------
 BYTE   W48
 BYTE   W48
// 062   ----------------------------------------
 BYTE   W48
 BYTE   W48
// 063   ----------------------------------------
 BYTE   W48
// 064   ----------------------------------------
 BYTE   PATT
  POIN2 Label_2_01ACC77A
// 065   ----------------------------------------
 BYTE   W48
// 066   ----------------------------------------
 BYTE   PATT
  POIN2 Label_2_01ACC77A
// 067   ----------------------------------------
 BYTE   PATT
  POIN2 Label_2_01ACC78A
// 068   ----------------------------------------
 BYTE   W48
// 069   ----------------------------------------
 BYTE   PATT
  POIN2 Label_2_01ACC792
// 070   ----------------------------------------
 BYTE   N24  En3  v127
 BYTE   W24
 BYTE   Gs3
 BYTE   W24
 BYTE   N24
 BYTE   W48
// 071   ----------------------------------------
 BYTE   W48
// 072   ----------------------------------------
 BYTE   PATT
  POIN2 Label_2_01ACC792
// 073   ----------------------------------------
 BYTE   N24  En3  v127
 BYTE   W24
 BYTE   Bn3
 BYTE   W24
 BYTE   N24
 BYTE   W48
// 074   ----------------------------------------
 BYTE   PATT
  POIN2 Label_2_01ACC77A
// 075   ----------------------------------------
 BYTE   N24  Gs3  v127
 BYTE   W48
// 076   ----------------------------------------
 BYTE   PATT
  POIN2 Label_2_01ACC77A
// 077   ----------------------------------------
 BYTE   PATT
  POIN2 Label_2_01ACC78A
// 078   ----------------------------------------
 BYTE   W48
// 079   ----------------------------------------
 BYTE   PATT
  POIN2 Label_2_01ACC792
// 080   ----------------------------------------
 BYTE   N24  En3  v127
 BYTE   W24
 BYTE   Gs3
 BYTE   W24
 BYTE   N24
 BYTE   W48
// 081   ----------------------------------------
 BYTE   W48
// 082   ----------------------------------------
 BYTE   PATT
  POIN2 Label_2_01ACC792
// 083   ----------------------------------------
 BYTE   N24  En3  v127
 BYTE   W24
 BYTE   Bn3
 BYTE   W24
 BYTE   N24
 BYTE   W48
// 084   ----------------------------------------
 BYTE   PATT
  POIN2 Label_2_01ACC7E0
// 085   ----------------------------------------
 BYTE   W48
 BYTE   W48
// 086   ----------------------------------------
 BYTE   W48
 BYTE   W48
// 087   ----------------------------------------
 BYTE   W48
 BYTE   W48
// 088   ----------------------------------------
 BYTE   W48
 BYTE   W48
// 089   ----------------------------------------
 BYTE   W48
 BYTE   W48
// 090   ----------------------------------------
 BYTE   W48
 BYTE   W48
// 091   ----------------------------------------
 BYTE   W48
 BYTE   W48
// 092   ----------------------------------------
 BYTE   W48
 BYTE   W48
// 093   ----------------------------------------
 BYTE   PATT
  POIN2 Label_2_01ACC792
// 094   ----------------------------------------
 BYTE   N24  En3  v127
 BYTE   W24
 BYTE   Gs3
 BYTE   W24
 BYTE   N24
 BYTE   W48
// 095   ----------------------------------------
 BYTE   W48
// 096   ----------------------------------------
 BYTE   PATT
  POIN2 Label_2_01ACC792
// 097   ----------------------------------------
 BYTE   N24  En3  v127
 BYTE   W24
 BYTE   Bn3
 BYTE   W24
 BYTE   N24
 BYTE   W48
// 098   ----------------------------------------
 BYTE   PATT
  POIN2 Label_2_01ACC7E0
// 099   ----------------------------------------
 BYTE   N12  An3  v100
 BYTE   W12
 BYTE   Gs3
 BYTE   W12
 BYTE   Fs3
 BYTE   W12
 BYTE   En3
 BYTE   W12
 BYTE   An3  v080
 BYTE   W12
 BYTE   Gs3
 BYTE   W12
 BYTE   Fs3
 BYTE   W12
 BYTE   En3
 BYTE   W12
// 100   ----------------------------------------
 BYTE   An3  v072
 BYTE   W12
 BYTE   Gs3
 BYTE   W12
 BYTE   Fs3
 BYTE   W12
 BYTE   En3
 BYTE   W12
 BYTE   An3  v060
 BYTE   W12
 BYTE   Gs3
 BYTE   W12
 BYTE   Fs3
 BYTE   W12
 BYTE   En3
 BYTE   W12
// 101   ----------------------------------------
 BYTE   An3  v040
 BYTE   W12
 BYTE   Gs3
 BYTE   W12
 BYTE   Fs3
 BYTE   W12
 BYTE   En3
 BYTE   W12
 BYTE   An3  v020
 BYTE   W12
 BYTE   Gs3
 BYTE   W12
 BYTE   Fs3
 BYTE   W12
 BYTE   En3
 BYTE   W12
// 102   ----------------------------------------
 BYTE   W48
// 103   ----------------------------------------
 BYTE   PATT
  POIN2 Label_2_01ACC77A
// 104   ----------------------------------------
 BYTE   W48
// 105   ----------------------------------------
 BYTE   PATT
  POIN2 Label_2_01ACC77A
// 106   ----------------------------------------
 BYTE   PATT
  POIN2 Label_2_01ACC78A
// 107   ----------------------------------------
 BYTE   W48
// 108   ----------------------------------------
 BYTE   PATT
  POIN2 Label_2_01ACC792
// 109   ----------------------------------------
 BYTE   N24  En3  v127
 BYTE   W24
 BYTE   Gs3
 BYTE   W24
 BYTE   N24
 BYTE   W48
// 110   ----------------------------------------
 BYTE   W48
// 111   ----------------------------------------
 BYTE   PATT
  POIN2 Label_2_01ACC792
// 112   ----------------------------------------
 BYTE   N24  En3  v127
 BYTE   W24
 BYTE   Bn3
 BYTE   W24
 BYTE   N24
 BYTE   W48
// 113   ----------------------------------------
 BYTE   PATT
  POIN2 Label_2_01ACC77A
// 114   ----------------------------------------
 BYTE   N24  Gs3  v127
 BYTE   W48
// 115   ----------------------------------------
 BYTE   PATT
  POIN2 Label_2_01ACC77A
// 116   ----------------------------------------
 BYTE   PATT
  POIN2 Label_2_01ACC78A
// 117   ----------------------------------------
 BYTE   W48
// 118   ----------------------------------------
 BYTE   PATT
  POIN2 Label_2_01ACC792
// 119   ----------------------------------------
 BYTE   N24  En3  v127
 BYTE   W24
 BYTE   Gs3
 BYTE   W24
 BYTE   N24
 BYTE   W48
// 120   ----------------------------------------
 BYTE   W48
// 121   ----------------------------------------
 BYTE   PATT
  POIN2 Label_2_01ACC792
// 122   ----------------------------------------
 BYTE   N24  En3  v127
 BYTE   W24
 BYTE   Bn3
 BYTE   W24
 BYTE   N24
 BYTE   W48
// 123   ----------------------------------------
 BYTE   PATT
  POIN2 Label_2_01ACC7E0
// 124   ----------------------------------------
Label_2_01ACC95B:
 BYTE   N24  Gs3  v127
 BYTE   W48
// 125   ----------------------------------------
 BYTE   PATT
  POIN2 Label_2_01ACC77A
// 126   ----------------------------------------
 BYTE   PATT
  POIN2 Label_2_01ACC78A
// 127   ----------------------------------------
 BYTE   W48
// 128   ----------------------------------------
 BYTE   PATT
  POIN2 Label_2_01ACC792
// 129   ----------------------------------------
 BYTE   N24  En3  v127
 BYTE   W24
 BYTE   Gs3
 BYTE   W24
 BYTE   N24
 BYTE   W48
// 130   ----------------------------------------
 BYTE   W48
// 131   ----------------------------------------
 BYTE   PATT
  POIN2 Label_2_01ACC792
// 132   ----------------------------------------
 BYTE   N24  En3  v127
 BYTE   W24
 BYTE   Bn3
 BYTE   W24
 BYTE   N24
 BYTE   W48
// 133   ----------------------------------------
 BYTE   PATT
  POIN2 Label_2_01ACC77A
// 134   ----------------------------------------
 BYTE   N24  Gs3  v127
 BYTE   W48
// 135   ----------------------------------------
 BYTE   PATT
  POIN2 Label_2_01ACC77A
// 136   ----------------------------------------
 BYTE   PATT
  POIN2 Label_2_01ACC78A
// 137   ----------------------------------------
 BYTE   W48
// 138   ----------------------------------------
 BYTE   PATT
  POIN2 Label_2_01ACC792
// 139   ----------------------------------------
 BYTE   N24  En3  v127
 BYTE   W24
 BYTE   Gs3
 BYTE   W24
 BYTE   N24
 BYTE   W48
// 140   ----------------------------------------
 BYTE   W48
// 141   ----------------------------------------
 BYTE   PATT
  POIN2 Label_2_01ACC792
// 142   ----------------------------------------
 BYTE   N24  En3  v127
 BYTE   W24
 BYTE   Bn3
 BYTE   W24
 BYTE   N24
 BYTE   W48
// 143   ----------------------------------------
 BYTE   PATT
  POIN2 Label_2_01ACC7E0
// 144   ----------------------------------------
 BYTE   GoTo
  POIN2 Label_2_01ACC95B
 BYTE   FINE

//**************** Track 4 (Midi-Chn.3) ****************//

Ameno_004:
// 000   ----------------------------------------
 BYTE   KEYSH   Ameno_key+0
 BYTE   VOICE   40
 BYTE   VOL   28*Ameno_mvl/mxv
 BYTE   PAN   c_v+19
 BYTE   W48
 BYTE   W48
// 001   ----------------------------------------
 BYTE   W48
 BYTE   W48
// 002   ----------------------------------------
 BYTE   W48
 BYTE   W48
// 003   ----------------------------------------
 BYTE   W48
 BYTE   W48
// 004   ----------------------------------------
 BYTE   W48
 BYTE   W48
// 005   ----------------------------------------
 BYTE   W48
 BYTE   W48
// 006   ----------------------------------------
 BYTE   W48
 BYTE   W48
// 007   ----------------------------------------
 BYTE   W48
 BYTE   W48
// 008   ----------------------------------------
 BYTE   W48
 BYTE   W48
// 009   ----------------------------------------
 BYTE   W48
 BYTE   W48
// 010   ----------------------------------------
 BYTE   W48
 BYTE   W48
// 011   ----------------------------------------
 BYTE   W48
 BYTE   W48
// 012   ----------------------------------------
 BYTE   W48
 BYTE   W48
// 013   ----------------------------------------
 BYTE   W48
 BYTE   W48
// 014   ----------------------------------------
 BYTE   W48
 BYTE   W48
// 015   ----------------------------------------
 BYTE   W48
 BYTE   W48
// 016   ----------------------------------------
 BYTE   W48
 BYTE   W48
// 017   ----------------------------------------
 BYTE   W48
 BYTE   W48
// 018   ----------------------------------------
 BYTE   W48
 BYTE   W48
// 019   ----------------------------------------
 BYTE   W48
 BYTE   W48
// 020   ----------------------------------------
 BYTE   W48
Label_3_01ACC9F1:
 BYTE   N06  Gs2  v127
 BYTE   N06  Cs3
 BYTE   N06  En3
 BYTE   W24
 BYTE   Gs2
 BYTE   N06  Cs3
 BYTE   N06  En3
 BYTE   W24
 BYTE   PEND 
// 021   ----------------------------------------
 BYTE   PATT
  POIN2 Label_3_01ACC9F1
// 022   ----------------------------------------
Label_3_01ACCA05:
 BYTE   N06  Gs2  v127
 BYTE   N06  Cn3
 BYTE   N06  Ds3
 BYTE   W24
 BYTE   Gs2
 BYTE   N06  Cn3
 BYTE   N06  Ds3
 BYTE   W24
 BYTE   PEND 
// 023   ----------------------------------------
 BYTE   PATT
  POIN2 Label_3_01ACCA05
// 024   ----------------------------------------
Label_3_01ACCA19:
 BYTE   N06  Fs2  v127
 BYTE   N06  Bn2
 BYTE   N06  Ds3
 BYTE   W24
 BYTE   Fs2
 BYTE   N06  Bn2
 BYTE   N06  Ds3
 BYTE   W24
 BYTE   PEND 
Label_3_01ACCA28:
 BYTE   N06  An2  v127
 BYTE   N06  Cs3
 BYTE   N06  En3
 BYTE   W24
 BYTE   An2
 BYTE   N06  Cs3
 BYTE   N06  En3
 BYTE   W24
 BYTE   PEND 
// 025   ----------------------------------------
Label_3_01ACCA37:
 BYTE   N06  Gs2  v127
 BYTE   N06  Bn2
 BYTE   N06  En3
 BYTE   W24
 BYTE   Gs2
 BYTE   N06  Bn2
 BYTE   N06  En3
 BYTE   W24
 BYTE   PEND 
// 026   ----------------------------------------
 BYTE   PATT
  POIN2 Label_3_01ACCA37
// 027   ----------------------------------------
 BYTE   PATT
  POIN2 Label_3_01ACCA28
// 028   ----------------------------------------
 BYTE   PATT
  POIN2 Label_3_01ACCA28
// 029   ----------------------------------------
Label_3_01ACCA55:
 BYTE   N06  Bn2  v127
 BYTE   N06  En3
 BYTE   N06  Gs3
 BYTE   W24
 BYTE   Bn2
 BYTE   N06  En3
 BYTE   N06  Gs3
 BYTE   W24
 BYTE   PEND 
Label_3_01ACCA64:
 BYTE   N06  Bn2  v127
 BYTE   N06  En3
 BYTE   N06  Gs3
 BYTE   W24
 BYTE   En2
 BYTE   N06  Gs2
 BYTE   N06  Bn2
 BYTE   W24
 BYTE   PEND 
// 030   ----------------------------------------
 BYTE   PATT
  POIN2 Label_3_01ACC9F1
// 031   ----------------------------------------
 BYTE   PATT
  POIN2 Label_3_01ACC9F1
// 032   ----------------------------------------
 BYTE   PATT
  POIN2 Label_3_01ACCA05
// 033   ----------------------------------------
 BYTE   PATT
  POIN2 Label_3_01ACCA05
// 034   ----------------------------------------
 BYTE   PATT
  POIN2 Label_3_01ACCA19
// 035   ----------------------------------------
 BYTE   PATT
  POIN2 Label_3_01ACCA28
// 036   ----------------------------------------
 BYTE   PATT
  POIN2 Label_3_01ACCA37
// 037   ----------------------------------------
 BYTE   PATT
  POIN2 Label_3_01ACCA37
// 038   ----------------------------------------
 BYTE   PATT
  POIN2 Label_3_01ACCA28
// 039   ----------------------------------------
 BYTE   PATT
  POIN2 Label_3_01ACCA28
// 040   ----------------------------------------
 BYTE   PATT
  POIN2 Label_3_01ACCA55
// 041   ----------------------------------------
 BYTE   PATT
  POIN2 Label_3_01ACCA37
// 042   ----------------------------------------
 BYTE   W48
 BYTE   W48
// 043   ----------------------------------------
 BYTE   W48
 BYTE   W48
// 044   ----------------------------------------
 BYTE   W48
 BYTE   W48
// 045   ----------------------------------------
 BYTE   W48
 BYTE   W48
// 046   ----------------------------------------
 BYTE   W48
 BYTE   W48
// 047   ----------------------------------------
 BYTE   W48
 BYTE   W48
// 048   ----------------------------------------
 BYTE   W48
 BYTE   W48
// 049   ----------------------------------------
 BYTE   W48
 BYTE   W48
// 050   ----------------------------------------
 BYTE   W48
 BYTE   W48
// 051   ----------------------------------------
 BYTE   W48
 BYTE   W48
// 052   ----------------------------------------
 BYTE   W48
 BYTE   W48
// 053   ----------------------------------------
 BYTE   W48
 BYTE   W48
// 054   ----------------------------------------
 BYTE   W48
 BYTE   W48
// 055   ----------------------------------------
 BYTE   W48
 BYTE   W48
// 056   ----------------------------------------
 BYTE   W48
 BYTE   W48
// 057   ----------------------------------------
 BYTE   W48
 BYTE   W48
// 058   ----------------------------------------
 BYTE   W48
// 059   ----------------------------------------
 BYTE   PATT
  POIN2 Label_3_01ACC9F1
// 060   ----------------------------------------
 BYTE   PATT
  POIN2 Label_3_01ACC9F1
// 061   ----------------------------------------
 BYTE   PATT
  POIN2 Label_3_01ACCA05
// 062   ----------------------------------------
 BYTE   PATT
  POIN2 Label_3_01ACCA05
// 063   ----------------------------------------
 BYTE   PATT
  POIN2 Label_3_01ACCA19
// 064   ----------------------------------------
 BYTE   PATT
  POIN2 Label_3_01ACCA28
// 065   ----------------------------------------
 BYTE   PATT
  POIN2 Label_3_01ACCA37
// 066   ----------------------------------------
 BYTE   PATT
  POIN2 Label_3_01ACCA37
// 067   ----------------------------------------
 BYTE   PATT
  POIN2 Label_3_01ACCA28
// 068   ----------------------------------------
 BYTE   PATT
  POIN2 Label_3_01ACCA28
// 069   ----------------------------------------
 BYTE   PATT
  POIN2 Label_3_01ACCA55
// 070   ----------------------------------------
 BYTE   PATT
  POIN2 Label_3_01ACCA64
// 071   ----------------------------------------
 BYTE   PATT
  POIN2 Label_3_01ACC9F1
// 072   ----------------------------------------
 BYTE   PATT
  POIN2 Label_3_01ACC9F1
// 073   ----------------------------------------
 BYTE   PATT
  POIN2 Label_3_01ACCA05
// 074   ----------------------------------------
 BYTE   PATT
  POIN2 Label_3_01ACCA05
// 075   ----------------------------------------
 BYTE   PATT
  POIN2 Label_3_01ACCA19
// 076   ----------------------------------------
 BYTE   PATT
  POIN2 Label_3_01ACCA28
// 077   ----------------------------------------
 BYTE   PATT
  POIN2 Label_3_01ACCA37
// 078   ----------------------------------------
 BYTE   PATT
  POIN2 Label_3_01ACCA37
// 079   ----------------------------------------
 BYTE   PATT
  POIN2 Label_3_01ACCA28
// 080   ----------------------------------------
 BYTE   PATT
  POIN2 Label_3_01ACCA28
// 081   ----------------------------------------
 BYTE   PATT
  POIN2 Label_3_01ACCA55
// 082   ----------------------------------------
 BYTE   PATT
  POIN2 Label_3_01ACCA37
// 083   ----------------------------------------
 BYTE   PATT
  POIN2 Label_3_01ACC9F1
// 084   ----------------------------------------
 BYTE   PATT
  POIN2 Label_3_01ACC9F1
// 085   ----------------------------------------
 BYTE   PATT
  POIN2 Label_3_01ACCA05
// 086   ----------------------------------------
 BYTE   PATT
  POIN2 Label_3_01ACCA05
// 087   ----------------------------------------
 BYTE   PATT
  POIN2 Label_3_01ACCA19
// 088   ----------------------------------------
 BYTE   PATT
  POIN2 Label_3_01ACCA28
// 089   ----------------------------------------
 BYTE   PATT
  POIN2 Label_3_01ACCA37
// 090   ----------------------------------------
 BYTE   PATT
  POIN2 Label_3_01ACCA37
// 091   ----------------------------------------
 BYTE   PATT
  POIN2 Label_3_01ACCA28
// 092   ----------------------------------------
 BYTE   PATT
  POIN2 Label_3_01ACCA28
// 093   ----------------------------------------
 BYTE   PATT
  POIN2 Label_3_01ACCA55
// 094   ----------------------------------------
 BYTE   PATT
  POIN2 Label_3_01ACCA64
// 095   ----------------------------------------
 BYTE   PATT
  POIN2 Label_3_01ACC9F1
// 096   ----------------------------------------
 BYTE   PATT
  POIN2 Label_3_01ACC9F1
// 097   ----------------------------------------
 BYTE   PATT
  POIN2 Label_3_01ACCA05
// 098   ----------------------------------------
 BYTE   PATT
  POIN2 Label_3_01ACCA05
// 099   ----------------------------------------
 BYTE   PATT
  POIN2 Label_3_01ACCA19
// 100   ----------------------------------------
 BYTE   PATT
  POIN2 Label_3_01ACCA28
// 101   ----------------------------------------
 BYTE   PATT
  POIN2 Label_3_01ACCA37
// 102   ----------------------------------------
 BYTE   PATT
  POIN2 Label_3_01ACCA37
// 103   ----------------------------------------
 BYTE   PATT
  POIN2 Label_3_01ACCA28
// 104   ----------------------------------------
 BYTE   PATT
  POIN2 Label_3_01ACCA28
// 105   ----------------------------------------
 BYTE   PATT
  POIN2 Label_3_01ACCA55
// 106   ----------------------------------------
 BYTE   PATT
  POIN2 Label_3_01ACCA37
// 107   ----------------------------------------
Label_3_01ACCBC0:
 BYTE   N06  Cs3  v100
 BYTE   N06  En3
 BYTE   W24
 BYTE   Cs3
 BYTE   N06  En3
 BYTE   W24
 BYTE   PEND 
// 108   ----------------------------------------
 BYTE   PATT
  POIN2 Label_3_01ACCBC0
// 109   ----------------------------------------
Label_3_01ACCBD0:
 BYTE   N06  Cn3  v112
 BYTE   N06  Fs3
 BYTE   W24
 BYTE   Cn3
 BYTE   N06  Fs3
 BYTE   W24
 BYTE   PEND 
// 110   ----------------------------------------
 BYTE   PATT
  POIN2 Label_3_01ACCBD0
// 111   ----------------------------------------
Label_3_01ACCBE0:
 BYTE   N06  Fs3  v127
 BYTE   N06  Cn4
 BYTE   W24
 BYTE   Fs3
 BYTE   N06  Cn4
 BYTE   W24
 BYTE   PEND 
// 112   ----------------------------------------
 BYTE   PATT
  POIN2 Label_3_01ACCBE0
// 113   ----------------------------------------
Label_3_01ACCBF0:
 BYTE   N06  Gs3  v127
 BYTE   N06  Cn4
 BYTE   W24
 BYTE   Gs3
 BYTE   N06  Cn4
 BYTE   W24
 BYTE   PEND 
// 114   ----------------------------------------
 BYTE   PATT
  POIN2 Label_3_01ACCBF0
// 115   ----------------------------------------
 BYTE   PATT
  POIN2 Label_3_01ACC9F1
// 116   ----------------------------------------
 BYTE   PATT
  POIN2 Label_3_01ACC9F1
// 117   ----------------------------------------
 BYTE   PATT
  POIN2 Label_3_01ACCA05
// 118   ----------------------------------------
 BYTE   PATT
  POIN2 Label_3_01ACCA05
// 119   ----------------------------------------
 BYTE   PATT
  POIN2 Label_3_01ACCA19
// 120   ----------------------------------------
 BYTE   PATT
  POIN2 Label_3_01ACCA28
// 121   ----------------------------------------
 BYTE   PATT
  POIN2 Label_3_01ACCA37
// 122   ----------------------------------------
 BYTE   PATT
  POIN2 Label_3_01ACCA37
// 123   ----------------------------------------
 BYTE   PATT
  POIN2 Label_3_01ACCA28
// 124   ----------------------------------------
 BYTE   PATT
  POIN2 Label_3_01ACCA28
// 125   ----------------------------------------
 BYTE   PATT
  POIN2 Label_3_01ACCA55
// 126   ----------------------------------------
 BYTE   PATT
  POIN2 Label_3_01ACCA64
// 127   ----------------------------------------
 BYTE   PATT
  POIN2 Label_3_01ACC9F1
// 128   ----------------------------------------
 BYTE   PATT
  POIN2 Label_3_01ACC9F1
// 129   ----------------------------------------
 BYTE   PATT
  POIN2 Label_3_01ACCA05
// 130   ----------------------------------------
 BYTE   PATT
  POIN2 Label_3_01ACCA05
// 131   ----------------------------------------
 BYTE   PATT
  POIN2 Label_3_01ACCA19
// 132   ----------------------------------------
 BYTE   PATT
  POIN2 Label_3_01ACCA28
// 133   ----------------------------------------
 BYTE   PATT
  POIN2 Label_3_01ACCA37
// 134   ----------------------------------------
 BYTE   PATT
  POIN2 Label_3_01ACCA37
// 135   ----------------------------------------
 BYTE   PATT
  POIN2 Label_3_01ACCA28
// 136   ----------------------------------------
 BYTE   PATT
  POIN2 Label_3_01ACCA28
// 137   ----------------------------------------
 BYTE   PATT
  POIN2 Label_3_01ACCA55
// 138   ----------------------------------------
 BYTE   PATT
  POIN2 Label_3_01ACCA37
// 139   ----------------------------------------
Label_3_01ACCC78:
// 140   ----------------------------------------
 BYTE   PATT
  POIN2 Label_3_01ACC9F1
// 141   ----------------------------------------
 BYTE   PATT
  POIN2 Label_3_01ACC9F1
// 142   ----------------------------------------
 BYTE   PATT
  POIN2 Label_3_01ACCA05
// 143   ----------------------------------------
 BYTE   PATT
  POIN2 Label_3_01ACCA05
// 144   ----------------------------------------
 BYTE   PATT
  POIN2 Label_3_01ACCA19
// 145   ----------------------------------------
 BYTE   PATT
  POIN2 Label_3_01ACCA28
// 146   ----------------------------------------
 BYTE   PATT
  POIN2 Label_3_01ACCA37
// 147   ----------------------------------------
 BYTE   PATT
  POIN2 Label_3_01ACCA37
// 148   ----------------------------------------
 BYTE   PATT
  POIN2 Label_3_01ACCA28
// 149   ----------------------------------------
 BYTE   PATT
  POIN2 Label_3_01ACCA28
// 150   ----------------------------------------
 BYTE   PATT
  POIN2 Label_3_01ACCA55
// 151   ----------------------------------------
 BYTE   PATT
  POIN2 Label_3_01ACCA64
// 152   ----------------------------------------
 BYTE   PATT
  POIN2 Label_3_01ACC9F1
// 153   ----------------------------------------
 BYTE   PATT
  POIN2 Label_3_01ACC9F1
// 154   ----------------------------------------
 BYTE   PATT
  POIN2 Label_3_01ACCA05
// 155   ----------------------------------------
 BYTE   PATT
  POIN2 Label_3_01ACCA05
// 156   ----------------------------------------
 BYTE   PATT
  POIN2 Label_3_01ACCA19
// 157   ----------------------------------------
 BYTE   PATT
  POIN2 Label_3_01ACCA28
// 158   ----------------------------------------
 BYTE   PATT
  POIN2 Label_3_01ACCA37
// 159   ----------------------------------------
 BYTE   PATT
  POIN2 Label_3_01ACCA37
// 160   ----------------------------------------
 BYTE   PATT
  POIN2 Label_3_01ACCA28
// 161   ----------------------------------------
 BYTE   PATT
  POIN2 Label_3_01ACCA28
// 162   ----------------------------------------
 BYTE   PATT
  POIN2 Label_3_01ACCA55
// 163   ----------------------------------------
 BYTE   PATT
  POIN2 Label_3_01ACCA64
// 164   ----------------------------------------
 BYTE   GoTo
  POIN2 Label_3_01ACCC78
 BYTE   FINE

//**************** Track 5 (Midi-Chn.4) ****************//

Ameno_005:
// 000   ----------------------------------------
 BYTE   KEYSH   Ameno_key+0
 BYTE   VOICE   54
 BYTE   VOL   45*Ameno_mvl/mxv
 BYTE   PAN   c_v-19
 BYTE   W48
 BYTE   W48
// 001   ----------------------------------------
 BYTE   W48
 BYTE   W48
// 002   ----------------------------------------
 BYTE   W48
 BYTE   W48
// 003   ----------------------------------------
 BYTE   W48
 BYTE   W48
// 004   ----------------------------------------
 BYTE   W48
 BYTE   W48
// 005   ----------------------------------------
 BYTE   W48
 BYTE   W48
// 006   ----------------------------------------
 BYTE   W48
 BYTE   W48
// 007   ----------------------------------------
 BYTE   W48
 BYTE   W48
// 008   ----------------------------------------
 BYTE   W48
 BYTE   W48
// 009   ----------------------------------------
 BYTE   W48
 BYTE   W48
// 010   ----------------------------------------
 BYTE   W48
 BYTE   W48
// 011   ----------------------------------------
 BYTE   W48
 BYTE   W48
// 012   ----------------------------------------
 BYTE   W48
 BYTE   W48
// 013   ----------------------------------------
 BYTE   W48
 BYTE   W48
// 014   ----------------------------------------
 BYTE   W48
 BYTE   W48
// 015   ----------------------------------------
 BYTE   W48
 BYTE   W48
// 016   ----------------------------------------
 BYTE   W48
 BYTE   W48
// 017   ----------------------------------------
 BYTE   W48
 BYTE   W48
// 018   ----------------------------------------
 BYTE   W48
 BYTE   W48
// 019   ----------------------------------------
 BYTE   W48
 BYTE   W48
// 020   ----------------------------------------
 BYTE   W48
 BYTE   W48
// 021   ----------------------------------------
 BYTE   W48
 BYTE   W48
// 022   ----------------------------------------
 BYTE   W48
 BYTE   W48
// 023   ----------------------------------------
 BYTE   W48
 BYTE   W48
// 024   ----------------------------------------
 BYTE   W48
 BYTE   W48
// 025   ----------------------------------------
 BYTE   W48
 BYTE   W48
// 026   ----------------------------------------
 BYTE   W48
 BYTE   W48
// 027   ----------------------------------------
 BYTE   W48
 BYTE   W48
// 028   ----------------------------------------
 BYTE   W48
 BYTE   W48
// 029   ----------------------------------------
 BYTE   W48
 BYTE   W48
// 030   ----------------------------------------
 BYTE   W48
 BYTE   W48
// 031   ----------------------------------------
 BYTE   W48
 BYTE   W48
// 032   ----------------------------------------
 BYTE   W48
 BYTE   W48
// 033   ----------------------------------------
 BYTE   W48
 BYTE   W48
// 034   ----------------------------------------
 BYTE   W48
 BYTE   W48
// 035   ----------------------------------------
 BYTE   W48
 BYTE   W48
// 036   ----------------------------------------
 BYTE   W48
 BYTE   W48
// 037   ----------------------------------------
 BYTE   W48
 BYTE   W48
// 038   ----------------------------------------
 BYTE   W48
 BYTE   W48
// 039   ----------------------------------------
 BYTE   W48
 BYTE   W48
// 040   ----------------------------------------
 BYTE   W48
 BYTE   W48
// 041   ----------------------------------------
 BYTE   W48
 BYTE   W48
// 042   ----------------------------------------
 BYTE   W48
 BYTE   W48
// 043   ----------------------------------------
 BYTE   W48
 BYTE   W48
// 044   ----------------------------------------
 BYTE   W48
 BYTE   W48
// 045   ----------------------------------------
 BYTE   W48
 BYTE   W48
// 046   ----------------------------------------
 BYTE   W48
 BYTE   W48
// 047   ----------------------------------------
 BYTE   W48
 BYTE   W48
// 048   ----------------------------------------
 BYTE   W48
 BYTE   W48
// 049   ----------------------------------------
 BYTE   W48
 BYTE   W48
// 050   ----------------------------------------
 BYTE   W48
 BYTE   W48
// 051   ----------------------------------------
 BYTE   W48
 BYTE   W48
// 052   ----------------------------------------
 BYTE   W48
 BYTE   W48
// 053   ----------------------------------------
 BYTE   W48
 BYTE   W48
// 054   ----------------------------------------
 BYTE   W48
 BYTE   W48
// 055   ----------------------------------------
Label_4_0134AACA:
 BYTE   N96  Gs2  v068
 BYTE   N96  Cs3
 BYTE   N96  En3
 BYTE   W48
 BYTE   PEND 
 BYTE   W48
// 056   ----------------------------------------
Label_4_0134AAD4:
 BYTE   N96  Gs2  v076
 BYTE   N96  Cn3
 BYTE   N96  Ds3
 BYTE   W48
 BYTE   PEND 
 BYTE   W48
// 057   ----------------------------------------
Label_4_0134AADE:
 BYTE   N48  Fs2  v092
 BYTE   N48  Bn2
 BYTE   N48  Ds3
 BYTE   W48
 BYTE   PEND 
Label_4_0134AAE7:
 BYTE   N48  An2  v092
 BYTE   N48  Cs3
 BYTE   N48  En3
 BYTE   W48
 BYTE   PEND 
// 058   ----------------------------------------
Label_4_0134AAF0:
 BYTE   N96  Gs2  v092
 BYTE   N96  Bn2
 BYTE   N96  En3
 BYTE   W48
 BYTE   PEND 
 BYTE   W48
// 059   ----------------------------------------
Label_4_0134AAFA:
 BYTE   N96  An2  v092
 BYTE   N96  Cs3
 BYTE   N96  En3
 BYTE   W48
 BYTE   PEND 
 BYTE   W48
// 060   ----------------------------------------
Label_4_0134AB04:
 BYTE   N96  Bn2  v100
 BYTE   N96  En3
 BYTE   N96  Gs3
 BYTE   W48
 BYTE   PEND 
 BYTE   W48
// 061   ----------------------------------------
 BYTE   W48
 BYTE   W48
// 062   ----------------------------------------
 BYTE   W48
 BYTE   W48
// 063   ----------------------------------------
 BYTE   W48
 BYTE   W48
// 064   ----------------------------------------
 BYTE   W48
 BYTE   W48
// 065   ----------------------------------------
 BYTE   W48
 BYTE   W48
// 066   ----------------------------------------
 BYTE   W48
 BYTE   W48
// 067   ----------------------------------------
 BYTE   PATT
  POIN2 Label_4_0134AACA
// 068   ----------------------------------------
 BYTE   W48
// 069   ----------------------------------------
 BYTE   PATT
  POIN2 Label_4_0134AAD4
// 070   ----------------------------------------
 BYTE   W48
// 071   ----------------------------------------
 BYTE   PATT
  POIN2 Label_4_0134AADE
// 072   ----------------------------------------
 BYTE   PATT
  POIN2 Label_4_0134AAE7
// 073   ----------------------------------------
 BYTE   PATT
  POIN2 Label_4_0134AAF0
// 074   ----------------------------------------
 BYTE   W48
// 075   ----------------------------------------
 BYTE   PATT
  POIN2 Label_4_0134AAFA
// 076   ----------------------------------------
 BYTE   W48
// 077   ----------------------------------------
 BYTE   PATT
  POIN2 Label_4_0134AB04
// 078   ----------------------------------------
 BYTE   W48
 BYTE   W48
// 079   ----------------------------------------
 BYTE   W48
 BYTE   W48
// 080   ----------------------------------------
 BYTE   W48
 BYTE   W48
// 081   ----------------------------------------
 BYTE   W48
 BYTE   W48
// 082   ----------------------------------------
 BYTE   W48
 BYTE   W48
// 083   ----------------------------------------
 BYTE   W48
 BYTE   W48
// 084   ----------------------------------------
 BYTE   W48
 BYTE   W48
// 085   ----------------------------------------
 BYTE   W48
 BYTE   W48
// 086   ----------------------------------------
 BYTE   W48
 BYTE   W48
// 087   ----------------------------------------
 BYTE   W48
 BYTE   W48
// 088   ----------------------------------------
 BYTE   W48
// 089   ----------------------------------------
 BYTE   PATT
  POIN2 Label_4_0134AACA
// 090   ----------------------------------------
 BYTE   W48
// 091   ----------------------------------------
 BYTE   PATT
  POIN2 Label_4_0134AAD4
// 092   ----------------------------------------
 BYTE   W48
// 093   ----------------------------------------
 BYTE   PATT
  POIN2 Label_4_0134AADE
// 094   ----------------------------------------
 BYTE   PATT
  POIN2 Label_4_0134AAE7
// 095   ----------------------------------------
 BYTE   PATT
  POIN2 Label_4_0134AAF0
// 096   ----------------------------------------
 BYTE   W48
// 097   ----------------------------------------
 BYTE   PATT
  POIN2 Label_4_0134AAFA
// 098   ----------------------------------------
 BYTE   W48
// 099   ----------------------------------------
 BYTE   PATT
  POIN2 Label_4_0134AB04
// 100   ----------------------------------------
 BYTE   W48
Label_4_0134AB7E:
 BYTE   N96  Gs2  v092
 BYTE   N96  Cs3
 BYTE   N96  En3
 BYTE   W48
 BYTE   PEND 
// 101   ----------------------------------------
 BYTE   W48
Label_4_0134AB88:
 BYTE   N96  Gs2  v092
 BYTE   N96  Cn3
 BYTE   N96  Ds3
 BYTE   W48
 BYTE   PEND 
// 102   ----------------------------------------
 BYTE   W48
// 103   ----------------------------------------
 BYTE   PATT
  POIN2 Label_4_0134AADE
// 104   ----------------------------------------
 BYTE   PATT
  POIN2 Label_4_0134AAE7
// 105   ----------------------------------------
 BYTE   PATT
  POIN2 Label_4_0134AAF0
// 106   ----------------------------------------
 BYTE   W48
// 107   ----------------------------------------
 BYTE   PATT
  POIN2 Label_4_0134AAFA
// 108   ----------------------------------------
 BYTE   W48
// 109   ----------------------------------------
 BYTE   PATT
  POIN2 Label_4_0134AB04
// 110   ----------------------------------------
 BYTE   W48
// 111   ----------------------------------------
 BYTE   PATT
  POIN2 Label_4_0134AB7E
// 112   ----------------------------------------
 BYTE   W48
// 113   ----------------------------------------
 BYTE   PATT
  POIN2 Label_4_0134AB88
// 114   ----------------------------------------
 BYTE   W48
// 115   ----------------------------------------
 BYTE   PATT
  POIN2 Label_4_0134AADE
// 116   ----------------------------------------
 BYTE   PATT
  POIN2 Label_4_0134AAE7
// 117   ----------------------------------------
 BYTE   PATT
  POIN2 Label_4_0134AAF0
// 118   ----------------------------------------
 BYTE   W48
// 119   ----------------------------------------
 BYTE   PATT
  POIN2 Label_4_0134AAFA
// 120   ----------------------------------------
 BYTE   W48
// 121   ----------------------------------------
 BYTE   PATT
  POIN2 Label_4_0134AB04
// 122   ----------------------------------------
 BYTE   W48
 BYTE   GoTo
  POIN2 Label_4_0134AB7E
 BYTE   FINE

//**************** Track 6 (Midi-Chn.5) ****************//

Ameno_006:
// 000   ----------------------------------------
 BYTE   VOL   70*Ameno_mvl/mxv
 BYTE   KEYSH   Ameno_key+0
 BYTE   VOICE   57
 BYTE   W48
 BYTE   W48
// 001   ----------------------------------------
 BYTE   W48
 BYTE   W48
// 002   ----------------------------------------
 BYTE   W48
 BYTE   W48
// 003   ----------------------------------------
 BYTE   W48
 BYTE   W48
// 004   ----------------------------------------
 BYTE   W48
 BYTE   W48
// 005   ----------------------------------------
 BYTE   W48
 BYTE   W48
// 006   ----------------------------------------
 BYTE   W48
 BYTE   W48
// 007   ----------------------------------------
 BYTE   W48
 BYTE   W48
// 008   ----------------------------------------
 BYTE   W48
 BYTE   W48
// 009   ----------------------------------------
 BYTE   W48
 BYTE   W48
// 010   ----------------------------------------
 BYTE   W48
 BYTE   W48
// 011   ----------------------------------------
 BYTE   W48
 BYTE   W48
// 012   ----------------------------------------
 BYTE   W48
 BYTE   W48
// 013   ----------------------------------------
 BYTE   W48
 BYTE   W48
// 014   ----------------------------------------
 BYTE   W48
 BYTE   W48
// 015   ----------------------------------------
 BYTE   W48
 BYTE   W48
// 016   ----------------------------------------
 BYTE   W48
 BYTE   W48
// 017   ----------------------------------------
 BYTE   W48
 BYTE   W48
// 018   ----------------------------------------
 BYTE   W48
 BYTE   W48
// 019   ----------------------------------------
 BYTE   W48
 BYTE   W48
// 020   ----------------------------------------
 BYTE   W48
 BYTE   W48
// 021   ----------------------------------------
 BYTE   W48
 BYTE   W48
// 022   ----------------------------------------
 BYTE   W48
 BYTE   W48
// 023   ----------------------------------------
 BYTE   W48
 BYTE   W48
// 024   ----------------------------------------
 BYTE   W48
 BYTE   W48
// 025   ----------------------------------------
 BYTE   W48
 BYTE   W48
// 026   ----------------------------------------
 BYTE   W48
 BYTE   W48
// 027   ----------------------------------------
 BYTE   W48
 BYTE   W48
// 028   ----------------------------------------
 BYTE   W48
 BYTE   W48
// 029   ----------------------------------------
 BYTE   W48
 BYTE   W48
// 030   ----------------------------------------
 BYTE   W48
 BYTE   W48
// 031   ----------------------------------------
 BYTE   W48
 BYTE   W48
// 032   ----------------------------------------
 BYTE   W48
 BYTE   N24  Gs2  v100
 BYTE   W24
 BYTE   N72  Bn3
 BYTE   W24
// 033   ----------------------------------------
 BYTE   W48
 BYTE   N84  As3
 BYTE   W48
// 034   ----------------------------------------
 BYTE   W36
 BYTE   N03  Bn2
 BYTE   W03
 BYTE   Cs3
 BYTE   W04
 BYTE   N04  An2
 BYTE   W05
 BYTE   N24  Bn2
 BYTE   W24
 BYTE   N72  Bn3
 BYTE   W24
// 035   ----------------------------------------
 BYTE   W48
 BYTE   N24  As3
 BYTE   W24
 BYTE   N60  Gs3
 BYTE   W24
// 036   ----------------------------------------
 BYTE   W36
 BYTE   N12  Cs4
 BYTE   W12
 BYTE   N96  Ds4
 BYTE   W48
// 037   ----------------------------------------
 BYTE   W48
 BYTE   W48
// 038   ----------------------------------------
 BYTE   W48
 BYTE   W48
// 039   ----------------------------------------
 BYTE   W48
 BYTE   W48
// 040   ----------------------------------------
 BYTE   W48
 BYTE   W48
// 041   ----------------------------------------
 BYTE   W48
 BYTE   W48
// 042   ----------------------------------------
 BYTE   W48
 BYTE   W48
// 043   ----------------------------------------
 BYTE   W48
 BYTE   W48
// 044   ----------------------------------------
 BYTE   W48
 BYTE   W48
// 045   ----------------------------------------
 BYTE   W48
 BYTE   W48
// 046   ----------------------------------------
 BYTE   W48
 BYTE   W48
// 047   ----------------------------------------
 BYTE   W48
 BYTE   W48
// 048   ----------------------------------------
 BYTE   W48
 BYTE   W48
// 049   ----------------------------------------
 BYTE   W48
 BYTE   W48
// 050   ----------------------------------------
 BYTE   W48
 BYTE   W48
// 051   ----------------------------------------
 BYTE   W48
 BYTE   W48
// 052   ----------------------------------------
 BYTE   W48
 BYTE   W48
// 053   ----------------------------------------
 BYTE   W48
 BYTE   W48
// 054   ----------------------------------------
 BYTE   W48
 BYTE   W48
// 055   ----------------------------------------
 BYTE   W48
 BYTE   W48
// 056   ----------------------------------------
 BYTE   W48
 BYTE   W48
// 057   ----------------------------------------
 BYTE   W48
 BYTE   W48
// 058   ----------------------------------------
 BYTE   W48
 BYTE   W48
// 059   ----------------------------------------
 BYTE   W48
 BYTE   W48
// 060   ----------------------------------------
 BYTE   W48
 BYTE   W48
// 061   ----------------------------------------
 BYTE   N60  Cs3
 BYTE   W48
 BYTE   W12
 BYTE   N18  En3
 BYTE   W18
 BYTE   An3
 BYTE   W18
// 062   ----------------------------------------
 BYTE   N36  Gs3
 BYTE   W36
 BYTE   N06  Fs3
 BYTE   W06
 BYTE   En3
 BYTE   W06
 BYTE   N42  Ds3
 BYTE   W42
 BYTE   N06  En3
 BYTE   W06
// 063   ----------------------------------------
 BYTE   N36  Fs3
 BYTE   W36
 BYTE   N12  Gs3
 BYTE   W12
 BYTE   N24  An3
 BYTE   W24
 BYTE   Bn3
 BYTE   W24
// 064   ----------------------------------------
 BYTE   N48
 BYTE   W48
 BYTE   W12
 BYTE   N18  Ds3
 BYTE   W18
 BYTE   En3
 BYTE   W18
// 065   ----------------------------------------
 BYTE   N60  Cs4
 BYTE   W48
 BYTE   W12
 BYTE   N18  Ds4
 BYTE   W18
 BYTE   En4
 BYTE   W18
// 066   ----------------------------------------
 BYTE   N36
 BYTE   W36
 BYTE   N06  Ds4
 BYTE   W06
 BYTE   Bn3
 BYTE   W06
 BYTE   Gs4
 BYTE   W06
 BYTE   An4
 BYTE   W06
 BYTE   Gs4
 BYTE   W06
 BYTE   En4
 BYTE   W06
 BYTE   Bn3
 BYTE   W06
 BYTE   Gs3
 BYTE   W06
 BYTE   En3
 BYTE   W06
 BYTE   Bn2
 BYTE   W06
// 067   ----------------------------------------
 BYTE   Cs3
 BYTE   W06
 BYTE   Ds3
 BYTE   W06
 BYTE   Fs3
 BYTE   W06
 BYTE   Gs3
 BYTE   W06
 BYTE   N36  Cs4
 BYTE   W24
 BYTE   W12
 BYTE   N30  Fs4
 BYTE   W30
 BYTE   N06  En4
 BYTE   W06
// 068   ----------------------------------------
 BYTE   N24  Ds4
 BYTE   W24
 BYTE   N03
 BYTE   W03
 BYTE   Fn4
 BYTE   W04
 BYTE   N04  Gn4
 BYTE   W05
 BYTE   N03  An4
 BYTE   W03
 BYTE   As4
 BYTE   W04
 BYTE   N04  Bn4
 BYTE   W05
 BYTE   N36  Cn5
 BYTE   W36
 BYTE   Ds5
 BYTE   W12
// 069   ----------------------------------------
 BYTE   W24
 BYTE   N03  Cs5
 BYTE   W03
 BYTE   An4
 BYTE   W04
 BYTE   N04  Bn4
 BYTE   W05
 BYTE   N12  Cs5
 BYTE   W12
 BYTE   N07  An4
 BYTE   W07
 BYTE   N08  Bn4
 BYTE   W08
 BYTE   Cs5
 BYTE   W09
 BYTE   N07  Cs3
 BYTE   W07
 BYTE   N08
 BYTE   W08
 BYTE   Ds3
 BYTE   W09
// 070   ----------------------------------------
 BYTE   N72  En3
 BYTE   W48
 BYTE   W24
 BYTE   N06  Bn2
 BYTE   W06
 BYTE   En3
 BYTE   W06
 BYTE   Gs3
 BYTE   W06
 BYTE   Bn3
 BYTE   W06
// 071   ----------------------------------------
 BYTE   N12
 BYTE   W12
 BYTE   N48  Cs4
 BYTE   W36
 BYTE   W12
 BYTE   N18  En4
 BYTE   W18
 BYTE   Ds4
 BYTE   W18
// 072   ----------------------------------------
 BYTE   N06
 BYTE   W06
 BYTE   N42  Bn3
 BYTE   W42
 BYTE   N18  Bn4
 BYTE   W18
 BYTE   An4
 BYTE   W18
 BYTE   N12  Gs4
 BYTE   W12
// 073   ----------------------------------------
 BYTE   N96
 BYTE   W48
 BYTE   W48
// 074   ----------------------------------------
 BYTE   W48
 BYTE   W48
// 075   ----------------------------------------
 BYTE   W48
 BYTE   W48
// 076   ----------------------------------------
 BYTE   W48
 BYTE   W48
// 077   ----------------------------------------
 BYTE   W48
 BYTE   W48
// 078   ----------------------------------------
 BYTE   W48
 BYTE   W48
// 079   ----------------------------------------
 BYTE   W48
 BYTE   W48
// 080   ----------------------------------------
 BYTE   W48
 BYTE   W48
// 081   ----------------------------------------
 BYTE   W48
 BYTE   W48
// 082   ----------------------------------------
 BYTE   W48
 BYTE   W48
// 083   ----------------------------------------
 BYTE   W48
 BYTE   W48
// 084   ----------------------------------------
 BYTE   W48
 BYTE   W48
// 085   ----------------------------------------
 BYTE   W48
 BYTE   W48
// 086   ----------------------------------------
 BYTE   W48
 BYTE   W48
// 087   ----------------------------------------
 BYTE   W48
 BYTE   W48
// 088   ----------------------------------------
 BYTE   W48
 BYTE   W48
// 089   ----------------------------------------
Label_5_0134B0A3:
 BYTE   W48
 BYTE   W48
// 090   ----------------------------------------
 BYTE   W48
 BYTE   W48
// 091   ----------------------------------------
 BYTE   W48
 BYTE   W48
// 092   ----------------------------------------
 BYTE   W48
 BYTE   W48
// 093   ----------------------------------------
 BYTE   W48
 BYTE   W48
// 094   ----------------------------------------
 BYTE   W48
 BYTE   W48
// 095   ----------------------------------------
 BYTE   W48
 BYTE   W48
// 096   ----------------------------------------
 BYTE   W48
 BYTE   W48
// 097   ----------------------------------------
 BYTE   W48
 BYTE   W48
// 098   ----------------------------------------
 BYTE   W48
 BYTE   W48
// 099   ----------------------------------------
 BYTE   W48
 BYTE   W48
// 100   ----------------------------------------
 BYTE   W48
 BYTE   W48
// 101   ----------------------------------------
 BYTE   GoTo
  POIN2 Label_5_0134B0A3
 BYTE   FINE

//**************** Track 7 (Midi-Chn.6) ****************//

Ameno_007:
// 000   ----------------------------------------
 BYTE   VOL   70*Ameno_mvl/mxv
 BYTE   KEYSH   Ameno_key+0
 BYTE   VOICE   127
 BYTE   W48
 BYTE   W48
// 001   ----------------------------------------
 BYTE   W48
 BYTE   W48
// 002   ----------------------------------------
 BYTE   W48
 BYTE   W48
// 003   ----------------------------------------
 BYTE   W48
 BYTE   W48
// 004   ----------------------------------------
 BYTE   W48
 BYTE   W48
// 005   ----------------------------------------
 BYTE   W48
 BYTE   W48
// 006   ----------------------------------------
 BYTE   W48
 BYTE   W48
// 007   ----------------------------------------
 BYTE   W48
 BYTE   W48
// 008   ----------------------------------------
 BYTE   W48
 BYTE   W48
// 009   ----------------------------------------
 BYTE   W48
 BYTE   W48
// 010   ----------------------------------------
 BYTE   W48
 BYTE   W48
// 011   ----------------------------------------
 BYTE   W48
 BYTE   W48
// 012   ----------------------------------------
 BYTE   W48
 BYTE   W48
// 013   ----------------------------------------
 BYTE   W48
 BYTE   W48
// 014   ----------------------------------------
 BYTE   W48
 BYTE   W48
// 015   ----------------------------------------
 BYTE   W48
Label_6_01ACCD1D:
 BYTE   N06  Fs2  v052
 BYTE   W06
 BYTE   Fs2  v032
 BYTE   W06
 BYTE   N06
 BYTE   W06
 BYTE   N06
 BYTE   W06
 BYTE   Fs2  v052
 BYTE   W06
 BYTE   Fs2  v032
 BYTE   W06
 BYTE   N06
 BYTE   W06
 BYTE   N06
 BYTE   W06
 BYTE   PEND 
// 016   ----------------------------------------
Label_6_01ACCD33:
 BYTE   N06  Fs2  v052
 BYTE   W06
 BYTE   Fs2  v032
 BYTE   W06
 BYTE   N06
 BYTE   W03
 BYTE   N03  Cn1  v060
 BYTE   W03
 BYTE   Cn1  v064
 BYTE   N06  Fs2  v032
 BYTE   W03
 BYTE   N03  Cn1  v084
 BYTE   W03
 BYTE   N12  Cn1  v108
 BYTE   N06  Fs2  v052
 BYTE   W06
 BYTE   Fs2  v032
 BYTE   W06
 BYTE   N06
 BYTE   W06
 BYTE   N06
 BYTE   W06
 BYTE   PEND 
Label_6_01ACCD59:
 BYTE   N06  Fs2  v052
 BYTE   W06
 BYTE   Fs2  v032
 BYTE   W06
 BYTE   N06
 BYTE   W06
 BYTE   N06
 BYTE   W06
 BYTE   N24  Cn1  v060
 BYTE   N06  Fs2  v052
 BYTE   W06
 BYTE   Fs2  v032
 BYTE   W06
 BYTE   N06
 BYTE   W06
 BYTE   N06
 BYTE   W06
 BYTE   PEND 
// 017   ----------------------------------------
 BYTE   PATT
  POIN2 Label_6_01ACCD1D
// 018   ----------------------------------------
 BYTE   PATT
  POIN2 Label_6_01ACCD59
// 019   ----------------------------------------
 BYTE   PATT
  POIN2 Label_6_01ACCD1D
// 020   ----------------------------------------
 BYTE   PATT
  POIN2 Label_6_01ACCD59
// 021   ----------------------------------------
 BYTE   PATT
  POIN2 Label_6_01ACCD1D
// 022   ----------------------------------------
 BYTE   N06  Fs2  v052
 BYTE   W06
 BYTE   Fs2  v032
 BYTE   W06
 BYTE   N06
 BYTE   W06
 BYTE   N06
 BYTE   W06
 BYTE   N24  Cn1  v060
 BYTE   N72  En2  v096
 BYTE   N06  Fs2  v052
 BYTE   W06
 BYTE   Fs2  v032
 BYTE   W06
 BYTE   N06
 BYTE   W06
 BYTE   N06
 BYTE   W06
// 023   ----------------------------------------
 BYTE   PATT
  POIN2 Label_6_01ACCD1D
// 024   ----------------------------------------
 BYTE   PATT
  POIN2 Label_6_01ACCD1D
// 025   ----------------------------------------
 BYTE   PATT
  POIN2 Label_6_01ACCD1D
// 026   ----------------------------------------
 BYTE   PATT
  POIN2 Label_6_01ACCD1D
// 027   ----------------------------------------
 BYTE   PATT
  POIN2 Label_6_01ACCD1D
// 028   ----------------------------------------
 BYTE   PATT
  POIN2 Label_6_01ACCD1D
// 029   ----------------------------------------
 BYTE   PATT
  POIN2 Label_6_01ACCD1D
// 030   ----------------------------------------
 BYTE   PATT
  POIN2 Label_6_01ACCD1D
// 031   ----------------------------------------
 BYTE   PATT
  POIN2 Label_6_01ACCD1D
// 032   ----------------------------------------
 BYTE   PATT
  POIN2 Label_6_01ACCD1D
// 033   ----------------------------------------
 BYTE   PATT
  POIN2 Label_6_01ACCD1D
// 034   ----------------------------------------
 BYTE   PATT
  POIN2 Label_6_01ACCD1D
// 035   ----------------------------------------
 BYTE   N48  En2  v084
 BYTE   N06  Fs2  v052
 BYTE   W06
 BYTE   Fs2  v032
 BYTE   W06
 BYTE   N06
 BYTE   W06
 BYTE   N06
 BYTE   W06
 BYTE   Fs2  v052
 BYTE   W06
 BYTE   Fs2  v032
 BYTE   W06
 BYTE   N06
 BYTE   W06
 BYTE   N06
 BYTE   W06
// 036   ----------------------------------------
 BYTE   PATT
  POIN2 Label_6_01ACCD1D
// 037   ----------------------------------------
 BYTE   PATT
  POIN2 Label_6_01ACCD1D
// 038   ----------------------------------------
 BYTE   PATT
  POIN2 Label_6_01ACCD1D
// 039   ----------------------------------------
 BYTE   PATT
  POIN2 Label_6_01ACCD1D
// 040   ----------------------------------------
 BYTE   PATT
  POIN2 Label_6_01ACCD1D
// 041   ----------------------------------------
 BYTE   PATT
  POIN2 Label_6_01ACCD1D
// 042   ----------------------------------------
 BYTE   PATT
  POIN2 Label_6_01ACCD1D
// 043   ----------------------------------------
 BYTE   PATT
  POIN2 Label_6_01ACCD1D
// 044   ----------------------------------------
 BYTE   PATT
  POIN2 Label_6_01ACCD1D
// 045   ----------------------------------------
 BYTE   PATT
  POIN2 Label_6_01ACCD1D
// 046   ----------------------------------------
 BYTE   PATT
  POIN2 Label_6_01ACCD1D
// 047   ----------------------------------------
 BYTE   PATT
  POIN2 Label_6_01ACCD1D
// 048   ----------------------------------------
 BYTE   PATT
  POIN2 Label_6_01ACCD1D
// 049   ----------------------------------------
Label_6_01ACCE3D:
 BYTE   N06  Dn2  v104
 BYTE   N06  Fs2  v052
 BYTE   W06
 BYTE   Dn2  v104
 BYTE   N06  Fs2  v032
 BYTE   W06
 BYTE   N06
 BYTE   W06
 BYTE   Bn1  v104
 BYTE   N06  Fs2  v032
 BYTE   W06
 BYTE   Gn1  v104
 BYTE   N06  Fs2  v052
 BYTE   W06
 BYTE   Fs2  v032
 BYTE   W06
 BYTE   Gn1  v104
 BYTE   N06  Fs2  v032
 BYTE   W06
 BYTE   N06
 BYTE   W06
 BYTE   PEND 
// 050   ----------------------------------------
 BYTE   PATT
  POIN2 Label_6_01ACCD1D
// 051   ----------------------------------------
Label_6_01ACCE69:
 BYTE   N12  Cn1  v084
 BYTE   N06  Fs2  v052
 BYTE   W06
 BYTE   Fs2  v032
 BYTE   W06
 BYTE   N12  Cn1  v064
 BYTE   N06  Fs2  v032
 BYTE   W06
 BYTE   N06
 BYTE   W06
 BYTE   Fs2  v052
 BYTE   W06
 BYTE   Fs2  v032
 BYTE   W06
 BYTE   N06
 BYTE   W06
 BYTE   N06
 BYTE   W06
 BYTE   PEND 
// 052   ----------------------------------------
 BYTE   PATT
  POIN2 Label_6_01ACCD1D
// 053   ----------------------------------------
 BYTE   PATT
  POIN2 Label_6_01ACCE3D
// 054   ----------------------------------------
 BYTE   PATT
  POIN2 Label_6_01ACCE3D
// 055   ----------------------------------------
 BYTE   PATT
  POIN2 Label_6_01ACCE69
// 056   ----------------------------------------
 BYTE   W48
 BYTE   W48
// 057   ----------------------------------------
 BYTE   PATT
  POIN2 Label_6_01ACCD1D
// 058   ----------------------------------------
 BYTE   PATT
  POIN2 Label_6_01ACCD1D
// 059   ----------------------------------------
 BYTE   PATT
  POIN2 Label_6_01ACCD1D
// 060   ----------------------------------------
 BYTE   PATT
  POIN2 Label_6_01ACCD1D
// 061   ----------------------------------------
 BYTE   PATT
  POIN2 Label_6_01ACCD1D
// 062   ----------------------------------------
 BYTE   PATT
  POIN2 Label_6_01ACCE69
// 063   ----------------------------------------
 BYTE   PATT
  POIN2 Label_6_01ACCD1D
// 064   ----------------------------------------
 BYTE   PATT
  POIN2 Label_6_01ACCD1D
// 065   ----------------------------------------
 BYTE   PATT
  POIN2 Label_6_01ACCD1D
// 066   ----------------------------------------
 BYTE   PATT
  POIN2 Label_6_01ACCE69
// 067   ----------------------------------------
 BYTE   PATT
  POIN2 Label_6_01ACCD1D
// 068   ----------------------------------------
 BYTE   PATT
  POIN2 Label_6_01ACCE69
// 069   ----------------------------------------
 BYTE   PATT
  POIN2 Label_6_01ACCD1D
// 070   ----------------------------------------
 BYTE   PATT
  POIN2 Label_6_01ACCD1D
// 071   ----------------------------------------
 BYTE   PATT
  POIN2 Label_6_01ACCD33
// 072   ----------------------------------------
 BYTE   PATT
  POIN2 Label_6_01ACCD1D
// 073   ----------------------------------------
 BYTE   PATT
  POIN2 Label_6_01ACCD1D
// 074   ----------------------------------------
 BYTE   PATT
  POIN2 Label_6_01ACCD1D
// 075   ----------------------------------------
 BYTE   PATT
  POIN2 Label_6_01ACCD1D
// 076   ----------------------------------------
 BYTE   PATT
  POIN2 Label_6_01ACCD1D
// 077   ----------------------------------------
 BYTE   PATT
  POIN2 Label_6_01ACCD1D
// 078   ----------------------------------------
Label_6_01ACCF06:
 BYTE   N06  Fs2  v052
 BYTE   W06
 BYTE   Fs2  v032
 BYTE   W06
 BYTE   N06
 BYTE   W06
 BYTE   N06
 BYTE   W06
 BYTE   N72  En2  v096
 BYTE   N06  Fs2  v052
 BYTE   W06
 BYTE   Fs2  v032
 BYTE   W06
 BYTE   N06
 BYTE   W06
 BYTE   N06
 BYTE   W06
 BYTE   PEND 
// 079   ----------------------------------------
 BYTE   PATT
  POIN2 Label_6_01ACCD1D
// 080   ----------------------------------------
Label_6_01ACCF25:
 BYTE   N06  Dn2  v104
 BYTE   N06  Fs2  v052
 BYTE   N06  Cn5  v104
 BYTE   W06
 BYTE   An1
 BYTE   N06  Fs2  v032
 BYTE   W06
 BYTE   N06
 BYTE   W06
 BYTE   N06
 BYTE   N06  Cn5  v104
 BYTE   W06
 BYTE   Fs2  v052
 BYTE   N24  Dn5  v104
 BYTE   W06
 BYTE   N06  Fs2  v032
 BYTE   W06
 BYTE   N06
 BYTE   N06  Cn5  v104
 BYTE   W06
 BYTE   Fs2  v032
 BYTE   W06
 BYTE   PEND 
Label_6_01ACCF4E:
 BYTE   N06  Fs2  v052
 BYTE   W06
 BYTE   Fs2  v032
 BYTE   W06
 BYTE   N06
 BYTE   W06
 BYTE   N06
 BYTE   W06
 BYTE   Fs2  v052
 BYTE   N24  Dn5  v104
 BYTE   W06
 BYTE   N06  Fs2  v032
 BYTE   W06
 BYTE   N06
 BYTE   W06
 BYTE   N06
 BYTE   W06
 BYTE   PEND 
// 081   ----------------------------------------
 BYTE   PATT
  POIN2 Label_6_01ACCF25
// 082   ----------------------------------------
 BYTE   PATT
  POIN2 Label_6_01ACCF4E
// 083   ----------------------------------------
Label_6_01ACCF72:
 BYTE   N06  Dn2  v104
 BYTE   N06  Fs2  v052
 BYTE   N06  Cn5  v104
 BYTE   W06
 BYTE   An1
 BYTE   N06  Fs2  v032
 BYTE   W06
 BYTE   N06
 BYTE   W06
 BYTE   N06
 BYTE   N06  Cn5  v104
 BYTE   W06
 BYTE   Fs2  v052
 BYTE   N24  Dn5  v104
 BYTE   W06
 BYTE   N06  Fs2  v032
 BYTE   W06
 BYTE   Dn2  v104
 BYTE   N06  Fs2  v032
 BYTE   N06  Cn5  v104
 BYTE   W06
 BYTE   Fs2  v032
 BYTE   W06
 BYTE   PEND 
Label_6_01ACCF9F:
 BYTE   N06  An1  v104
 BYTE   N06  Fs2  v052
 BYTE   W06
 BYTE   Fs2  v032
 BYTE   W06
 BYTE   N06
 BYTE   W06
 BYTE   N06
 BYTE   W06
 BYTE   Fs2  v052
 BYTE   N24  Dn5  v104
 BYTE   W06
 BYTE   N06  Fs2  v032
 BYTE   W06
 BYTE   N06
 BYTE   W06
 BYTE   N06
 BYTE   W06
 BYTE   PEND 
// 084   ----------------------------------------
 BYTE   PATT
  POIN2 Label_6_01ACCF25
// 085   ----------------------------------------
 BYTE   PATT
  POIN2 Label_6_01ACCF4E
// 086   ----------------------------------------
 BYTE   PATT
  POIN2 Label_6_01ACCF72
// 087   ----------------------------------------
 BYTE   PATT
  POIN2 Label_6_01ACCF9F
// 088   ----------------------------------------
 BYTE   PATT
  POIN2 Label_6_01ACCF25
// 089   ----------------------------------------
 BYTE   PATT
  POIN2 Label_6_01ACCF4E
// 090   ----------------------------------------
 BYTE   PATT
  POIN2 Label_6_01ACCF25
// 091   ----------------------------------------
 BYTE   PATT
  POIN2 Label_6_01ACCF4E
// 092   ----------------------------------------
 BYTE   PATT
  POIN2 Label_6_01ACCF25
// 093   ----------------------------------------
 BYTE   PATT
  POIN2 Label_6_01ACCF4E
// 094   ----------------------------------------
 BYTE   PATT
  POIN2 Label_6_01ACCF72
// 095   ----------------------------------------
 BYTE   PATT
  POIN2 Label_6_01ACCF9F
// 096   ----------------------------------------
 BYTE   PATT
  POIN2 Label_6_01ACCF25
// 097   ----------------------------------------
 BYTE   PATT
  POIN2 Label_6_01ACCF4E
// 098   ----------------------------------------
 BYTE   PATT
  POIN2 Label_6_01ACCF72
// 099   ----------------------------------------
 BYTE   PATT
  POIN2 Label_6_01ACCF9F
// 100   ----------------------------------------
 BYTE   PATT
  POIN2 Label_6_01ACCF25
// 101   ----------------------------------------
 BYTE   PATT
  POIN2 Label_6_01ACCF4E
// 102   ----------------------------------------
 BYTE   PATT
  POIN2 Label_6_01ACCF25
// 103   ----------------------------------------
 BYTE   PATT
  POIN2 Label_6_01ACCF4E
// 104   ----------------------------------------
 BYTE   PATT
  POIN2 Label_6_01ACCF25
// 105   ----------------------------------------
 BYTE   PATT
  POIN2 Label_6_01ACCF4E
// 106   ----------------------------------------
 BYTE   PATT
  POIN2 Label_6_01ACCF72
// 107   ----------------------------------------
 BYTE   PATT
  POIN2 Label_6_01ACCF9F
// 108   ----------------------------------------
 BYTE   PATT
  POIN2 Label_6_01ACCF25
// 109   ----------------------------------------
 BYTE   PATT
  POIN2 Label_6_01ACCF4E
// 110   ----------------------------------------
 BYTE   PATT
  POIN2 Label_6_01ACCF72
// 111   ----------------------------------------
 BYTE   PATT
  POIN2 Label_6_01ACCF9F
// 112   ----------------------------------------
 BYTE   PATT
  POIN2 Label_6_01ACCF25
// 113   ----------------------------------------
 BYTE   PATT
  POIN2 Label_6_01ACCF4E
// 114   ----------------------------------------
 BYTE   PATT
  POIN2 Label_6_01ACCF25
// 115   ----------------------------------------
 BYTE   PATT
  POIN2 Label_6_01ACCF4E
// 116   ----------------------------------------
 BYTE   PATT
  POIN2 Label_6_01ACCF25
// 117   ----------------------------------------
 BYTE   PATT
  POIN2 Label_6_01ACCF4E
// 118   ----------------------------------------
 BYTE   PATT
  POIN2 Label_6_01ACCF72
// 119   ----------------------------------------
 BYTE   PATT
  POIN2 Label_6_01ACCF9F
// 120   ----------------------------------------
 BYTE   PATT
  POIN2 Label_6_01ACCF25
// 121   ----------------------------------------
 BYTE   PATT
  POIN2 Label_6_01ACCF4E
// 122   ----------------------------------------
 BYTE   PATT
  POIN2 Label_6_01ACCF72
// 123   ----------------------------------------
 BYTE   PATT
  POIN2 Label_6_01ACCF9F
// 124   ----------------------------------------
 BYTE   PATT
  POIN2 Label_6_01ACCF25
// 125   ----------------------------------------
 BYTE   N06  Fs2  v052
 BYTE   W06
 BYTE   Fs2  v032
 BYTE   W06
 BYTE   N06
 BYTE   W06
 BYTE   N06
 BYTE   W06
 BYTE   Fs2  v052
 BYTE   N24  Dn5  v104
 BYTE   W06
 BYTE   N06  Fs2  v032
 BYTE   W06
 BYTE   N06
 BYTE   W06
 BYTE   N06
 BYTE   N06  Cn5  v104
 BYTE   W06
Label_6_01ACD0A5:
 BYTE   N06  Fs2  v052
 BYTE   N06  Cn5  v104
 BYTE   W06
 BYTE   Fs2  v032
 BYTE   W06
 BYTE   N06
 BYTE   W06
 BYTE   N06
 BYTE   W06
 BYTE   Fs2  v052
 BYTE   W06
 BYTE   Fs2  v032
 BYTE   W06
 BYTE   N06
 BYTE   W06
 BYTE   N06
 BYTE   W06
 BYTE   PEND 
// 126   ----------------------------------------
Label_6_01ACD0BE:
 BYTE   N06  Fs2  v052
 BYTE   W06
 BYTE   Fs2  v032
 BYTE   W06
 BYTE   N06
 BYTE   W06
 BYTE   N06
 BYTE   W06
 BYTE   Fs2  v052
 BYTE   W06
 BYTE   Fs2  v032
 BYTE   W06
 BYTE   N06
 BYTE   W06
 BYTE   N06
 BYTE   N06  Cn5  v104
 BYTE   W06
 BYTE   PEND 
// 127   ----------------------------------------
 BYTE   PATT
  POIN2 Label_6_01ACD0A5
// 128   ----------------------------------------
 BYTE   PATT
  POIN2 Label_6_01ACD0BE
// 129   ----------------------------------------
 BYTE   PATT
  POIN2 Label_6_01ACD0A5
// 130   ----------------------------------------
 BYTE   PATT
  POIN2 Label_6_01ACD0BE
// 131   ----------------------------------------
 BYTE   N06  Fs2  v052
 BYTE   N06  Cn5  v104
 BYTE   W06
 BYTE   Fs2  v032
 BYTE   W06
 BYTE   N06
 BYTE   W06
 BYTE   N06
 BYTE   W06
 BYTE   Fs2  v052
 BYTE   W06
 BYTE   Dn2  v104
 BYTE   N06  Fs2  v032
 BYTE   W06
 BYTE   N06
 BYTE   W06
 BYTE   N06
 BYTE   W06
 BYTE   An1  v104
 BYTE   N06  Fs2  v052
 BYTE   W06
 BYTE   Fs2  v032
 BYTE   W06
 BYTE   N06
 BYTE   W06
 BYTE   Gn1  v104
 BYTE   N06  Fs2  v032
 BYTE   W06
 BYTE   Fs2  v052
 BYTE   W06
 BYTE   Fs2  v032
 BYTE   W06
 BYTE   N06
 BYTE   W06
 BYTE   N06
 BYTE   W06
// 132   ----------------------------------------
 BYTE   PATT
  POIN2 Label_6_01ACCD1D
// 133   ----------------------------------------
 BYTE   PATT
  POIN2 Label_6_01ACCD1D
// 134   ----------------------------------------
 BYTE   PATT
  POIN2 Label_6_01ACCD1D
// 135   ----------------------------------------
 BYTE   PATT
  POIN2 Label_6_01ACCD1D
// 136   ----------------------------------------
 BYTE   PATT
  POIN2 Label_6_01ACCD1D
// 137   ----------------------------------------
 BYTE   PATT
  POIN2 Label_6_01ACCD1D
// 138   ----------------------------------------
 BYTE   PATT
  POIN2 Label_6_01ACCD1D
// 139   ----------------------------------------
 BYTE   PATT
  POIN2 Label_6_01ACCD1D
// 140   ----------------------------------------
 BYTE   PATT
  POIN2 Label_6_01ACCD1D
// 141   ----------------------------------------
 BYTE   PATT
  POIN2 Label_6_01ACCD1D
// 142   ----------------------------------------
 BYTE   PATT
  POIN2 Label_6_01ACCF06
// 143   ----------------------------------------
 BYTE   PATT
  POIN2 Label_6_01ACCD1D
// 144   ----------------------------------------
 BYTE   PATT
  POIN2 Label_6_01ACCF25
// 145   ----------------------------------------
 BYTE   PATT
  POIN2 Label_6_01ACCF4E
// 146   ----------------------------------------
 BYTE   PATT
  POIN2 Label_6_01ACCF25
// 147   ----------------------------------------
 BYTE   PATT
  POIN2 Label_6_01ACCF4E
// 148   ----------------------------------------
 BYTE   PATT
  POIN2 Label_6_01ACCF72
// 149   ----------------------------------------
 BYTE   PATT
  POIN2 Label_6_01ACCF9F
// 150   ----------------------------------------
 BYTE   PATT
  POIN2 Label_6_01ACCF25
// 151   ----------------------------------------
 BYTE   PATT
  POIN2 Label_6_01ACCF4E
// 152   ----------------------------------------
 BYTE   PATT
  POIN2 Label_6_01ACCF72
// 153   ----------------------------------------
 BYTE   PATT
  POIN2 Label_6_01ACCF9F
// 154   ----------------------------------------
 BYTE   PATT
  POIN2 Label_6_01ACCF25
// 155   ----------------------------------------
 BYTE   PATT
  POIN2 Label_6_01ACCF4E
// 156   ----------------------------------------
Label_6_01ACD199:
// 157   ----------------------------------------
 BYTE   PATT
  POIN2 Label_6_01ACCF25
// 158   ----------------------------------------
 BYTE   PATT
  POIN2 Label_6_01ACCF4E
// 159   ----------------------------------------
 BYTE   PATT
  POIN2 Label_6_01ACCF25
// 160   ----------------------------------------
 BYTE   PATT
  POIN2 Label_6_01ACCF4E
// 161   ----------------------------------------
 BYTE   PATT
  POIN2 Label_6_01ACCF72
// 162   ----------------------------------------
 BYTE   PATT
  POIN2 Label_6_01ACCF9F
// 163   ----------------------------------------
 BYTE   PATT
  POIN2 Label_6_01ACCF25
// 164   ----------------------------------------
 BYTE   PATT
  POIN2 Label_6_01ACCF4E
// 165   ----------------------------------------
 BYTE   PATT
  POIN2 Label_6_01ACCF72
// 166   ----------------------------------------
 BYTE   PATT
  POIN2 Label_6_01ACCF9F
// 167   ----------------------------------------
 BYTE   PATT
  POIN2 Label_6_01ACCF25
// 168   ----------------------------------------
 BYTE   PATT
  POIN2 Label_6_01ACCF4E
// 169   ----------------------------------------
 BYTE   PATT
  POIN2 Label_6_01ACCF25
// 170   ----------------------------------------
 BYTE   PATT
  POIN2 Label_6_01ACCF4E
// 171   ----------------------------------------
 BYTE   PATT
  POIN2 Label_6_01ACCF25
// 172   ----------------------------------------
 BYTE   PATT
  POIN2 Label_6_01ACCF4E
// 173   ----------------------------------------
 BYTE   PATT
  POIN2 Label_6_01ACCF72
// 174   ----------------------------------------
 BYTE   PATT
  POIN2 Label_6_01ACCF9F
// 175   ----------------------------------------
 BYTE   PATT
  POIN2 Label_6_01ACCF25
// 176   ----------------------------------------
 BYTE   PATT
  POIN2 Label_6_01ACCF4E
// 177   ----------------------------------------
 BYTE   PATT
  POIN2 Label_6_01ACCF72
// 178   ----------------------------------------
 BYTE   PATT
  POIN2 Label_6_01ACCF9F
// 179   ----------------------------------------
 BYTE   PATT
  POIN2 Label_6_01ACCF25
// 180   ----------------------------------------
 BYTE   PATT
  POIN2 Label_6_01ACCF4E
// 181   ----------------------------------------
 BYTE   GoTo
  POIN2 Label_6_01ACD199
 BYTE   FINE

//**************** Track 8 (Midi-Chn.7) ****************//

Ameno_008:
// 000   ----------------------------------------
 BYTE   VOL   70*Ameno_mvl/mxv
 BYTE   KEYSH   Ameno_key+0
 BYTE   VOICE   111
 BYTE   W48
 BYTE   W48
// 001   ----------------------------------------
 BYTE   W48
 BYTE   W48
// 002   ----------------------------------------
 BYTE   W48
 BYTE   W48
// 003   ----------------------------------------
 BYTE   W48
 BYTE   W48
// 004   ----------------------------------------
 BYTE   W48
 BYTE   W48
// 005   ----------------------------------------
 BYTE   W48
 BYTE   W48
// 006   ----------------------------------------
 BYTE   W48
 BYTE   W48
// 007   ----------------------------------------
 BYTE   W48
 BYTE   W48
// 008   ----------------------------------------
 BYTE   W48
 BYTE   W48
// 009   ----------------------------------------
 BYTE   W48
 BYTE   W48
// 010   ----------------------------------------
 BYTE   W48
 BYTE   W48
// 011   ----------------------------------------
 BYTE   W48
 BYTE   W48
// 012   ----------------------------------------
 BYTE   W48
 BYTE   W48
// 013   ----------------------------------------
 BYTE   W48
 BYTE   W48
// 014   ----------------------------------------
 BYTE   W48
 BYTE   W48
// 015   ----------------------------------------
 BYTE   W48
 BYTE   W48
// 016   ----------------------------------------
 BYTE   W48
 BYTE   W48
// 017   ----------------------------------------
 BYTE   W48
 BYTE   W48
// 018   ----------------------------------------
 BYTE   W48
 BYTE   W48
// 019   ----------------------------------------
 BYTE   W48
 BYTE   W48
// 020   ----------------------------------------
 BYTE   W48
 BYTE   W48
// 021   ----------------------------------------
 BYTE   W48
 BYTE   W48
// 022   ----------------------------------------
 BYTE   W48
 BYTE   W48
// 023   ----------------------------------------
 BYTE   W48
 BYTE   W48
// 024   ----------------------------------------
 BYTE   W48
 BYTE   W48
// 025   ----------------------------------------
 BYTE   W48
 BYTE   W48
// 026   ----------------------------------------
 BYTE   W48
 BYTE   W48
// 027   ----------------------------------------
 BYTE   W48
 BYTE   W48
// 028   ----------------------------------------
 BYTE   W48
 BYTE   W48
// 029   ----------------------------------------
 BYTE   W48
 BYTE   W48
// 030   ----------------------------------------
 BYTE   W48
 BYTE   W48
// 031   ----------------------------------------
 BYTE   W48
 BYTE   W48
// 032   ----------------------------------------
 BYTE   W48
 BYTE   W48
// 033   ----------------------------------------
 BYTE   W48
 BYTE   W48
// 034   ----------------------------------------
 BYTE   W48
 BYTE   W48
// 035   ----------------------------------------
 BYTE   W48
 BYTE   W48
// 036   ----------------------------------------
 BYTE   W48
 BYTE   N96  Dn2  v064
 BYTE   W48
// 037   ----------------------------------------
 BYTE   W48
 BYTE   W48
// 038   ----------------------------------------
 BYTE   W48
 BYTE   W48
// 039   ----------------------------------------
 BYTE   W48
 BYTE   W48
// 040   ----------------------------------------
 BYTE   W48
 BYTE   W48
// 041   ----------------------------------------
 BYTE   W48
 BYTE   W48
// 042   ----------------------------------------
 BYTE   W48
 BYTE   W48
// 043   ----------------------------------------
 BYTE   W48
 BYTE   W48
// 044   ----------------------------------------
 BYTE   W48
 BYTE   W48
// 045   ----------------------------------------
 BYTE   W48
 BYTE   W48
// 046   ----------------------------------------
 BYTE   W48
 BYTE   W48
// 047   ----------------------------------------
 BYTE   W48
 BYTE   W48
// 048   ----------------------------------------
 BYTE   W48
 BYTE   W48
// 049   ----------------------------------------
 BYTE   W48
 BYTE   W48
// 050   ----------------------------------------
 BYTE   W48
 BYTE   W48
// 051   ----------------------------------------
 BYTE   W48
 BYTE   W48
// 052   ----------------------------------------
 BYTE   W48
 BYTE   W48
// 053   ----------------------------------------
 BYTE   W48
 BYTE   W48
// 054   ----------------------------------------
 BYTE   W48
 BYTE   W48
// 055   ----------------------------------------
 BYTE   W48
 BYTE   W48
// 056   ----------------------------------------
 BYTE   W48
 BYTE   W48
// 057   ----------------------------------------
 BYTE   W48
 BYTE   W48
// 058   ----------------------------------------
 BYTE   W48
 BYTE   W48
// 059   ----------------------------------------
 BYTE   W48
 BYTE   W48
// 060   ----------------------------------------
 BYTE   W48
 BYTE   W48
// 061   ----------------------------------------
 BYTE   W48
 BYTE   W48
// 062   ----------------------------------------
 BYTE   W48
 BYTE   W48
// 063   ----------------------------------------
 BYTE   W48
 BYTE   W48
// 064   ----------------------------------------
 BYTE   W48
 BYTE   W48
// 065   ----------------------------------------
 BYTE   W48
 BYTE   W48
// 066   ----------------------------------------
 BYTE   W48
 BYTE   W48
// 067   ----------------------------------------
 BYTE   W48
 BYTE   W48
// 068   ----------------------------------------
 BYTE   W48
 BYTE   W48
// 069   ----------------------------------------
 BYTE   W48
 BYTE   W48
// 070   ----------------------------------------
 BYTE   W48
 BYTE   W48
// 071   ----------------------------------------
 BYTE   W48
 BYTE   W48
// 072   ----------------------------------------
 BYTE   W48
 BYTE   W48
// 073   ----------------------------------------
 BYTE   W48
 BYTE   W48
// 074   ----------------------------------------
 BYTE   W48
 BYTE   W48
// 075   ----------------------------------------
 BYTE   W48
 BYTE   W48
// 076   ----------------------------------------
 BYTE   W48
 BYTE   W48
// 077   ----------------------------------------
 BYTE   N96
 BYTE   W48
 BYTE   W48
// 078   ----------------------------------------
 BYTE   W48
 BYTE   W48
// 079   ----------------------------------------
 BYTE   W48
 BYTE   W48
// 080   ----------------------------------------
 BYTE   W48
 BYTE   W48
// 081   ----------------------------------------
 BYTE   W48
 BYTE   W48
// 082   ----------------------------------------
 BYTE   W48
 BYTE   W48
// 083   ----------------------------------------
 BYTE   W48
 BYTE   W48
// 084   ----------------------------------------
 BYTE   W48
 BYTE   W48
// 085   ----------------------------------------
 BYTE   W48
 BYTE   W48
// 086   ----------------------------------------
 BYTE   W48
 BYTE   W48
// 087   ----------------------------------------
 BYTE   W48
 BYTE   W48
// 088   ----------------------------------------
 BYTE   W48
 BYTE   W48
// 089   ----------------------------------------
Label_7_0134A954:
 BYTE   W48
 BYTE   W48
// 090   ----------------------------------------
 BYTE   W48
 BYTE   W48
// 091   ----------------------------------------
 BYTE   W48
 BYTE   W48
// 092   ----------------------------------------
 BYTE   W48
 BYTE   W48
// 093   ----------------------------------------
 BYTE   W48
 BYTE   W48
// 094   ----------------------------------------
 BYTE   W48
 BYTE   W48
// 095   ----------------------------------------
 BYTE   W48
 BYTE   W48
// 096   ----------------------------------------
 BYTE   W48
 BYTE   W48
// 097   ----------------------------------------
 BYTE   W48
 BYTE   W48
// 098   ----------------------------------------
 BYTE   W48
 BYTE   W48
// 099   ----------------------------------------
 BYTE   W48
 BYTE   W48
// 100   ----------------------------------------
 BYTE   W48
 BYTE   W48
// 101   ----------------------------------------
 BYTE   GoTo
  POIN2 Label_7_0134A954
 BYTE   FINE

//******************************************************//
	ALIGN 4

Ameno:
	BYTE	8	// NumTrks
	BYTE	0	// NumBlks
	BYTE	Ameno_pri	// Priority
	BYTE	Ameno_rev	// Reverb.
    
	POIN2	Ameno_grp
    
	POIN2	Ameno_001
	POIN2	Ameno_002
	POIN2	Ameno_003
	POIN2	Ameno_004
	POIN2	Ameno_005
	POIN2	Ameno_006
	POIN2	Ameno_007
	POIN2	Ameno_008

	
