//Event file generated from Sappy .s format.
	#include "MPlayDef.event"

	#define	AstroMan_grp  voicegroup000
	#define	AstroMan_pri  0
	#define	AstroMan_rev  0
	#define	AstroMan_mvl  127
	#define	AstroMan_key  0
	#define	AstroMan_tbs  1
	#define	AstroMan_exg  0
	#define	AstroMan_cmp  1

	// .rodata
	//	AstroMan
	ALIGN 4


//**************** Track 1 (Midi-Chn.0) ****************//

AstroMan_001:
//  #01 //000   ----------------------------------------
 BYTE   KEYSH   AstroMan_key+0
 BYTE   TEMPO   140*AstroMan_tbs/2
 BYTE   VOICE   80
 BYTE   VOL   20*AstroMan_mvl/mxv
 BYTE   PAN   c_v-44
 BYTE   W12
 BYTE   N06  Gs3  v127
 BYTE   W12
 BYTE   As3
 BYTE   W12
 BYTE   Ds4
 BYTE   W12
 BYTE   As3
 BYTE   W12
 BYTE   Gs3
 BYTE   W12
 BYTE   As3
 BYTE   W12
 BYTE   Ds4
 BYTE   W12
//  #01 //001   ----------------------------------------
Label_0100A67F:
 BYTE   W36
 BYTE   N06  Gs3  v127
 BYTE   W12
 BYTE   As3
 BYTE   W12
 BYTE   Ds4
 BYTE   W12
 BYTE   As3
 BYTE   W12
 BYTE   Gs3
 BYTE   W12
 BYTE   PEND 
//  #01 //002   ----------------------------------------
Label_0100A68D:
 BYTE   N06  As3  v127
 BYTE   W12
 BYTE   Ds4
 BYTE   W12
 BYTE   As3
 BYTE   W12
 BYTE   Gs3
 BYTE   W12
 BYTE   As3
 BYTE   W12
 BYTE   Ds4
 BYTE   W36
 BYTE   PEND 
//  #01 //003   ----------------------------------------
 BYTE   PATT
  POIN2 Label_0100A67F
//  #01 //004   ----------------------------------------
Label_0100A6A1:
 BYTE   W12
 BYTE   N06  Gs3  v127
 BYTE   W12
 BYTE   As3
 BYTE   W12
 BYTE   Ds4
 BYTE   W12
 BYTE   As3
 BYTE   W12
 BYTE   Gs3
 BYTE   W12
 BYTE   As3
 BYTE   W12
 BYTE   Ds4
 BYTE   W12
 BYTE   PEND 
//  #01 //005   ----------------------------------------
 BYTE   PATT
  POIN2 Label_0100A67F
//  #01 //006   ----------------------------------------
 BYTE   PATT
  POIN2 Label_0100A68D
//  #01 //007   ----------------------------------------
 BYTE   PATT
  POIN2 Label_0100A67F
//  #01 //008   ----------------------------------------
 BYTE   PATT
  POIN2 Label_0100A6A1
//  #01 //009   ----------------------------------------
 BYTE   PATT
  POIN2 Label_0100A67F
//  #01 //010   ----------------------------------------
 BYTE   PATT
  POIN2 Label_0100A68D
//  #01 //011   ----------------------------------------
 BYTE   PATT
  POIN2 Label_0100A67F
//  #01 //012   ----------------------------------------
 BYTE   PATT
  POIN2 Label_0100A6A1
//  #01 //013   ----------------------------------------
 BYTE   PATT
  POIN2 Label_0100A67F
//  #01 //014   ----------------------------------------
 BYTE   PATT
  POIN2 Label_0100A68D
//  #01 //015   ----------------------------------------
 BYTE   PATT
  POIN2 Label_0100A67F
//  #01 //016   ----------------------------------------
Label_0100A6EA:
 BYTE   W12
 BYTE   N06  Bn3  v127
 BYTE   W12
 BYTE   Cs4
 BYTE   W12
 BYTE   Fn4
 BYTE   W12
 BYTE   Cs4
 BYTE   W12
 BYTE   Bn3
 BYTE   W12
 BYTE   Cs4
 BYTE   W12
 BYTE   Fn4
 BYTE   W12
 BYTE   PEND 
//  #01 //017   ----------------------------------------
Label_0100A6FC:
 BYTE   W36
 BYTE   N06  Bn3  v127
 BYTE   W12
 BYTE   Cs4
 BYTE   W12
 BYTE   Fn4
 BYTE   W12
 BYTE   Cs4
 BYTE   W12
 BYTE   Bn3
 BYTE   W12
 BYTE   PEND 
//  #01 //018   ----------------------------------------
Label_0100A70A:
 BYTE   N06  Cs4  v127
 BYTE   W12
 BYTE   Fn4
 BYTE   W12
 BYTE   Cs4
 BYTE   W12
 BYTE   Bn3
 BYTE   W12
 BYTE   Cs4
 BYTE   W12
 BYTE   Fn4
 BYTE   W36
 BYTE   PEND 
//  #01 //019   ----------------------------------------
 BYTE   PATT
  POIN2 Label_0100A6FC
//  #01 //020   ----------------------------------------
 BYTE   PATT
  POIN2 Label_0100A6EA
//  #01 //021   ----------------------------------------
 BYTE   PATT
  POIN2 Label_0100A6FC
//  #01 //022   ----------------------------------------
 BYTE   PATT
  POIN2 Label_0100A70A
//  #01 //023   ----------------------------------------
 BYTE   PATT
  POIN2 Label_0100A6FC
//  #01 //024   ----------------------------------------
Label_0100A732:
 BYTE   W12
 BYTE   N06  As3  v127
 BYTE   W12
 BYTE   Cn4
 BYTE   W12
 BYTE   Fn4
 BYTE   W12
 BYTE   Cn4
 BYTE   W12
 BYTE   As3
 BYTE   W12
 BYTE   Cn4
 BYTE   W12
 BYTE   Fn4
 BYTE   W12
 BYTE   PEND 
//  #01 //025   ----------------------------------------
Label_0100A744:
 BYTE   W36
 BYTE   N06  As3  v127
 BYTE   W12
 BYTE   Cn4
 BYTE   W12
 BYTE   Fn4
 BYTE   W12
 BYTE   Cn4
 BYTE   W12
 BYTE   As3
 BYTE   W12
 BYTE   PEND 
//  #01 //026   ----------------------------------------
Label_0100A752:
 BYTE   N06  Cn4  v127
 BYTE   W12
 BYTE   Fn4
 BYTE   W12
 BYTE   Cn4
 BYTE   W12
 BYTE   As3
 BYTE   W12
 BYTE   Cn4
 BYTE   W12
 BYTE   Fn4
 BYTE   W36
 BYTE   PEND 
//  #01 //027   ----------------------------------------
 BYTE   PATT
  POIN2 Label_0100A744
//  #01 //028   ----------------------------------------
Label_0100A766:
 BYTE   W12
 BYTE   N06  Cs4  v127
 BYTE   W12
 BYTE   Ds4
 BYTE   W12
 BYTE   Gs4
 BYTE   W12
 BYTE   Ds4
 BYTE   W12
 BYTE   Cs4
 BYTE   W12
 BYTE   Ds4
 BYTE   W12
 BYTE   Gs4
 BYTE   W12
 BYTE   PEND 
//  #01 //029   ----------------------------------------
Label_0100A778:
 BYTE   W36
 BYTE   N06  Cs4  v127
 BYTE   W12
 BYTE   Ds4
 BYTE   W12
 BYTE   Gs4
 BYTE   W12
 BYTE   Ds4
 BYTE   W12
 BYTE   Cs4
 BYTE   W12
 BYTE   PEND 
//  #01 //030   ----------------------------------------
Label_0100A786:
 BYTE   N06  Ds4  v127
 BYTE   W12
 BYTE   Gs4
 BYTE   W12
 BYTE   Ds4
 BYTE   W12
 BYTE   Cs4
 BYTE   W12
 BYTE   Ds4
 BYTE   W12
 BYTE   Gs4
 BYTE   W36
 BYTE   PEND 
//  #01 //031   ----------------------------------------
 BYTE   PATT
  POIN2 Label_0100A778
//  #01 //032   ----------------------------------------
 BYTE   PATT
  POIN2 Label_0100A766
//  #01 //033   ----------------------------------------
 BYTE   PATT
  POIN2 Label_0100A778
//  #01 //034   ----------------------------------------
 BYTE   PATT
  POIN2 Label_0100A786
//  #01 //035   ----------------------------------------
 BYTE   PATT
  POIN2 Label_0100A778
//  #01 //036   ----------------------------------------
Label_0100A7AE:
 BYTE   W12
 BYTE   N06  Ds4  v127
 BYTE   W12
 BYTE   Fn4
 BYTE   W12
 BYTE   An4
 BYTE   W12
 BYTE   Fn4
 BYTE   W12
 BYTE   Ds4
 BYTE   W12
 BYTE   Fn4
 BYTE   W12
 BYTE   An4
 BYTE   W12
 BYTE   PEND 
//  #01 //037   ----------------------------------------
Label_0100A7C0:
 BYTE   W36
 BYTE   N06  Ds4  v127
 BYTE   W12
 BYTE   Fn4
 BYTE   W12
 BYTE   An4
 BYTE   W12
 BYTE   Fn4
 BYTE   W12
 BYTE   Ds4
 BYTE   W12
 BYTE   PEND 
//  #01 //038   ----------------------------------------
Label_0100A7CE:
 BYTE   N06  Fn4  v127
 BYTE   W12
 BYTE   As4
 BYTE   W12
 BYTE   Fn4
 BYTE   W12
 BYTE   Ds4
 BYTE   W12
 BYTE   Fn4
 BYTE   W12
 BYTE   As4
 BYTE   W36
 BYTE   PEND 
//  #01 //039   ----------------------------------------
Label_0100A7DD:
 BYTE   W36
 BYTE   N06  Ds4  v127
 BYTE   W12
 BYTE   Fn4
 BYTE   W12
 BYTE   As4
 BYTE   W12
 BYTE   Fn4
 BYTE   W12
 BYTE   Ds4
 BYTE   W12
 BYTE   PEND 
//  #01 //040   ----------------------------------------
 BYTE   PATT
  POIN2 Label_0100A6A1
//  #01 //041   ----------------------------------------
 BYTE   PATT
  POIN2 Label_0100A67F
//  #01 //042   ----------------------------------------
 BYTE   PATT
  POIN2 Label_0100A68D
//  #01 //043   ----------------------------------------
 BYTE   PATT
  POIN2 Label_0100A67F
//  #01 //044   ----------------------------------------
 BYTE   PATT
  POIN2 Label_0100A6A1
//  #01 //045   ----------------------------------------
 BYTE   PATT
  POIN2 Label_0100A67F
//  #01 //046   ----------------------------------------
 BYTE   PATT
  POIN2 Label_0100A68D
//  #01 //047   ----------------------------------------
 BYTE   PATT
  POIN2 Label_0100A67F
//  #01 //048   ----------------------------------------
 BYTE   PATT
  POIN2 Label_0100A6A1
//  #01 //049   ----------------------------------------
 BYTE   PATT
  POIN2 Label_0100A67F
//  #01 //050   ----------------------------------------
 BYTE   PATT
  POIN2 Label_0100A68D
//  #01 //051   ----------------------------------------
 BYTE   PATT
  POIN2 Label_0100A67F
//  #01 //052   ----------------------------------------
 BYTE   PATT
  POIN2 Label_0100A6A1
//  #01 //053   ----------------------------------------
 BYTE   PATT
  POIN2 Label_0100A67F
//  #01 //054   ----------------------------------------
 BYTE   PATT
  POIN2 Label_0100A68D
//  #01 //055   ----------------------------------------
 BYTE   PATT
  POIN2 Label_0100A67F
//  #01 //056   ----------------------------------------
 BYTE   GoTo
  POIN2 Label_0100A6EA
//  #01 //057   ----------------------------------------
 BYTE   PATT
  POIN2 Label_0100A6EA
//  #01 //058   ----------------------------------------
 BYTE   PATT
  POIN2 Label_0100A6FC
//  #01 //059   ----------------------------------------
 BYTE   PATT
  POIN2 Label_0100A70A
//  #01 //060   ----------------------------------------
 BYTE   PATT
  POIN2 Label_0100A6FC
//  #01 //061   ----------------------------------------
 BYTE   PATT
  POIN2 Label_0100A6EA
//  #01 //062   ----------------------------------------
 BYTE   PATT
  POIN2 Label_0100A6FC
//  #01 //063   ----------------------------------------
 BYTE   PATT
  POIN2 Label_0100A70A
//  #01 //064   ----------------------------------------
 BYTE   PATT
  POIN2 Label_0100A6FC
//  #01 //065   ----------------------------------------
 BYTE   PATT
  POIN2 Label_0100A732
//  #01 //066   ----------------------------------------
 BYTE   PATT
  POIN2 Label_0100A744
//  #01 //067   ----------------------------------------
 BYTE   PATT
  POIN2 Label_0100A752
//  #01 //068   ----------------------------------------
 BYTE   PATT
  POIN2 Label_0100A744
//  #01 //069   ----------------------------------------
 BYTE   PATT
  POIN2 Label_0100A766
//  #01 //070   ----------------------------------------
 BYTE   PATT
  POIN2 Label_0100A778
//  #01 //071   ----------------------------------------
 BYTE   PATT
  POIN2 Label_0100A786
//  #01 //072   ----------------------------------------
 BYTE   PATT
  POIN2 Label_0100A778
//  #01 //073   ----------------------------------------
 BYTE   PATT
  POIN2 Label_0100A766
//  #01 //074   ----------------------------------------
 BYTE   PATT
  POIN2 Label_0100A778
//  #01 //075   ----------------------------------------
 BYTE   PATT
  POIN2 Label_0100A786
//  #01 //076   ----------------------------------------
 BYTE   PATT
  POIN2 Label_0100A778
//  #01 //077   ----------------------------------------
 BYTE   PATT
  POIN2 Label_0100A7AE
//  #01 //078   ----------------------------------------
 BYTE   PATT
  POIN2 Label_0100A7C0
//  #01 //079   ----------------------------------------
 BYTE   PATT
  POIN2 Label_0100A7CE
//  #01 //080   ----------------------------------------
 BYTE   PATT
  POIN2 Label_0100A7DD
//  #01 //081   ----------------------------------------
 BYTE   PATT
  POIN2 Label_0100A6A1
//  #01 //082   ----------------------------------------
 BYTE   PATT
  POIN2 Label_0100A67F
//  #01 //083   ----------------------------------------
 BYTE   PATT
  POIN2 Label_0100A68D
//  #01 //084   ----------------------------------------
 BYTE   PATT
  POIN2 Label_0100A67F
//  #01 //085   ----------------------------------------
 BYTE   PATT
  POIN2 Label_0100A6A1
//  #01 //086   ----------------------------------------
 BYTE   PATT
  POIN2 Label_0100A67F
//  #01 //087   ----------------------------------------
 BYTE   PATT
  POIN2 Label_0100A68D
//  #01 //088   ----------------------------------------
 BYTE   PATT
  POIN2 Label_0100A67F
//  #01 //089   ----------------------------------------
 BYTE   PATT
  POIN2 Label_0100A6A1
//  #01 //090   ----------------------------------------
 BYTE   PATT
  POIN2 Label_0100A67F
//  #01 //091   ----------------------------------------
 BYTE   PATT
  POIN2 Label_0100A68D
//  #01 //092   ----------------------------------------
 BYTE   PATT
  POIN2 Label_0100A67F
//  #01 //093   ----------------------------------------
 BYTE   PATT
  POIN2 Label_0100A6A1
//  #01 //094   ----------------------------------------
 BYTE   PATT
  POIN2 Label_0100A67F
//  #01 //095   ----------------------------------------
 BYTE   PATT
  POIN2 Label_0100A68D
//  #01 //096   ----------------------------------------
 BYTE   PATT
  POIN2 Label_0100A67F
//  #01 //097   ----------------------------------------
 BYTE   PATT
  POIN2 Label_0100A6EA
//  #01 //098   ----------------------------------------
 BYTE   PATT
  POIN2 Label_0100A6FC
//  #01 //099   ----------------------------------------
 BYTE   PATT
  POIN2 Label_0100A70A
//  #01 //100   ----------------------------------------
 BYTE   PATT
  POIN2 Label_0100A6FC
//  #01 //101   ----------------------------------------
 BYTE   PATT
  POIN2 Label_0100A6EA
//  #01 //102   ----------------------------------------
 BYTE   PATT
  POIN2 Label_0100A6FC
//  #01 //103   ----------------------------------------
 BYTE   PATT
  POIN2 Label_0100A70A
//  #01 //104   ----------------------------------------
 BYTE   PATT
  POIN2 Label_0100A6FC
//  #01 //105   ----------------------------------------
 BYTE   PATT
  POIN2 Label_0100A732
//  #01 //106   ----------------------------------------
 BYTE   PATT
  POIN2 Label_0100A744
//  #01 //107   ----------------------------------------
 BYTE   PATT
  POIN2 Label_0100A752
//  #01 //108   ----------------------------------------
 BYTE   PATT
  POIN2 Label_0100A744
//  #01 //109   ----------------------------------------
 BYTE   PATT
  POIN2 Label_0100A766
//  #01 //110   ----------------------------------------
 BYTE   PATT
  POIN2 Label_0100A778
//  #01 //111   ----------------------------------------
 BYTE   PATT
  POIN2 Label_0100A786
//  #01 //112   ----------------------------------------
 BYTE   PATT
  POIN2 Label_0100A778
//  #01 //113   ----------------------------------------
 BYTE   PATT
  POIN2 Label_0100A766
//  #01 //114   ----------------------------------------
 BYTE   PATT
  POIN2 Label_0100A778
//  #01 //115   ----------------------------------------
 BYTE   PATT
  POIN2 Label_0100A786
//  #01 //116   ----------------------------------------
 BYTE   PATT
  POIN2 Label_0100A778
//  #01 //117   ----------------------------------------
 BYTE   PATT
  POIN2 Label_0100A7AE
//  #01 //118   ----------------------------------------
 BYTE   PATT
  POIN2 Label_0100A7C0
//  #01 //119   ----------------------------------------
 BYTE   PATT
  POIN2 Label_0100A7CE
//  #01 //120   ----------------------------------------
 BYTE   PATT
  POIN2 Label_0100A7DD
//  #01 //121   ----------------------------------------
 BYTE   W06
 BYTE   FINE

//**************** Track 2 (Midi-Chn.1) ****************//

AstroMan_002:
//  #02 //000   ----------------------------------------
 BYTE   KEYSH   AstroMan_key+0
 BYTE   VOICE   80
 BYTE   VOL   12*AstroMan_mvl/mxv
 BYTE   PAN   c_v+11
 BYTE   W24
 BYTE   N06  Gs3  v127
 BYTE   W12
 BYTE   As3
 BYTE   W12
 BYTE   Ds4
 BYTE   W12
 BYTE   As3
 BYTE   W12
 BYTE   Gs3
 BYTE   W12
 BYTE   As3
 BYTE   W12
//  #02 //001   ----------------------------------------
Label_0100A99B:
 BYTE   N06  Ds4  v127
 BYTE   W48
 BYTE   Gs3
 BYTE   W12
 BYTE   As3
 BYTE   W12
 BYTE   Ds4
 BYTE   W12
 BYTE   As3
 BYTE   W12
 BYTE   PEND 
//  #02 //002   ----------------------------------------
Label_0100A9A8:
 BYTE   N06  Gs3  v127
 BYTE   W12
 BYTE   As3
 BYTE   W12
 BYTE   Ds4
 BYTE   W12
 BYTE   As3
 BYTE   W12
 BYTE   Gs3
 BYTE   W12
 BYTE   As3
 BYTE   W12
 BYTE   Ds4
 BYTE   W24
 BYTE   PEND 
//  #02 //003   ----------------------------------------
Label_0100A9B9:
 BYTE   W48
 BYTE   N06  Gs3  v127
 BYTE   W12
 BYTE   As3
 BYTE   W12
 BYTE   Ds4
 BYTE   W12
 BYTE   As3
 BYTE   W12
 BYTE   PEND 
//  #02 //004   ----------------------------------------
Label_0100A9C5:
 BYTE   N06  Gs3  v127
 BYTE   W24
 BYTE   N06
 BYTE   W12
 BYTE   As3
 BYTE   W12
 BYTE   Ds4
 BYTE   W12
 BYTE   As3
 BYTE   W12
 BYTE   Gs3
 BYTE   W12
 BYTE   As3
 BYTE   W12
 BYTE   PEND 
//  #02 //005   ----------------------------------------
 BYTE   PATT
  POIN2 Label_0100A99B
//  #02 //006   ----------------------------------------
 BYTE   PATT
  POIN2 Label_0100A9A8
//  #02 //007   ----------------------------------------
 BYTE   PATT
  POIN2 Label_0100A9B9
//  #02 //008   ----------------------------------------
 BYTE   PATT
  POIN2 Label_0100A9C5
//  #02 //009   ----------------------------------------
 BYTE   PATT
  POIN2 Label_0100A99B
//  #02 //010   ----------------------------------------
 BYTE   PATT
  POIN2 Label_0100A9A8
//  #02 //011   ----------------------------------------
 BYTE   PATT
  POIN2 Label_0100A9B9
//  #02 //012   ----------------------------------------
 BYTE   PATT
  POIN2 Label_0100A9C5
//  #02 //013   ----------------------------------------
 BYTE   PATT
  POIN2 Label_0100A99B
//  #02 //014   ----------------------------------------
 BYTE   PATT
  POIN2 Label_0100A9A8
//  #02 //015   ----------------------------------------
 BYTE   PATT
  POIN2 Label_0100A9B9
//  #02 //016   ----------------------------------------
Label_0100AA0D:
 BYTE   N06  Gs3  v127
 BYTE   W24
 BYTE   Bn3
 BYTE   W12
 BYTE   Cs4
 BYTE   W12
 BYTE   Fn4
 BYTE   W12
 BYTE   Cs4
 BYTE   W12
 BYTE   Bn3
 BYTE   W12
 BYTE   Cs4
 BYTE   W12
 BYTE   PEND 
//  #02 //017   ----------------------------------------
Label_0100AA1E:
 BYTE   N06  Fn4  v127
 BYTE   W48
 BYTE   Bn3
 BYTE   W12
 BYTE   Cs4
 BYTE   W12
 BYTE   Fn4
 BYTE   W12
 BYTE   Cs4
 BYTE   W12
 BYTE   PEND 
//  #02 //018   ----------------------------------------
Label_0100AA2B:
 BYTE   N06  Bn3  v127
 BYTE   W12
 BYTE   Cs4
 BYTE   W12
 BYTE   Fn4
 BYTE   W12
 BYTE   Cs4
 BYTE   W12
 BYTE   Bn3
 BYTE   W12
 BYTE   Cs4
 BYTE   W12
 BYTE   Fn4
 BYTE   W24
 BYTE   PEND 
//  #02 //019   ----------------------------------------
Label_0100AA3C:
 BYTE   W48
 BYTE   N06  Bn3  v127
 BYTE   W12
 BYTE   Cs4
 BYTE   W12
 BYTE   Fn4
 BYTE   W12
 BYTE   Cs4
 BYTE   W12
 BYTE   PEND 
//  #02 //020   ----------------------------------------
Label_0100AA48:
 BYTE   N06  Bn3  v127
 BYTE   W24
 BYTE   N06
 BYTE   W12
 BYTE   Cs4
 BYTE   W12
 BYTE   Fn4
 BYTE   W12
 BYTE   Cs4
 BYTE   W12
 BYTE   Bn3
 BYTE   W12
 BYTE   Cs4
 BYTE   W12
 BYTE   PEND 
//  #02 //021   ----------------------------------------
 BYTE   PATT
  POIN2 Label_0100AA1E
//  #02 //022   ----------------------------------------
 BYTE   PATT
  POIN2 Label_0100AA2B
//  #02 //023   ----------------------------------------
 BYTE   PATT
  POIN2 Label_0100AA3C
//  #02 //024   ----------------------------------------
Label_0100AA68:
 BYTE   N06  Bn3  v127
 BYTE   W24
 BYTE   As3
 BYTE   W12
 BYTE   Cn4
 BYTE   W12
 BYTE   Fn4
 BYTE   W12
 BYTE   Cn4
 BYTE   W12
 BYTE   As3
 BYTE   W12
 BYTE   Cn4
 BYTE   W12
 BYTE   PEND 
//  #02 //025   ----------------------------------------
Label_0100AA79:
 BYTE   N06  Fn4  v127
 BYTE   W48
 BYTE   As3
 BYTE   W12
 BYTE   Cn4
 BYTE   W12
 BYTE   Fn4
 BYTE   W12
 BYTE   Cn4
 BYTE   W12
 BYTE   PEND 
//  #02 //026   ----------------------------------------
Label_0100AA86:
 BYTE   N06  As3  v127
 BYTE   W12
 BYTE   Cn4
 BYTE   W12
 BYTE   Fn4
 BYTE   W12
 BYTE   Cn4
 BYTE   W12
 BYTE   As3
 BYTE   W12
 BYTE   Cn4
 BYTE   W12
 BYTE   Fn4
 BYTE   W24
 BYTE   PEND 
//  #02 //027   ----------------------------------------
Label_0100AA97:
 BYTE   W48
 BYTE   N06  As3  v127
 BYTE   W12
 BYTE   Cn4
 BYTE   W12
 BYTE   Fn4
 BYTE   W12
 BYTE   Cn4
 BYTE   W12
 BYTE   PEND 
//  #02 //028   ----------------------------------------
Label_0100AAA3:
 BYTE   N06  As3  v127
 BYTE   W24
 BYTE   Cs4
 BYTE   W12
 BYTE   Ds4
 BYTE   W12
 BYTE   Gs4
 BYTE   W12
 BYTE   Ds4
 BYTE   W12
 BYTE   Cs4
 BYTE   W12
 BYTE   Ds4
 BYTE   W12
 BYTE   PEND 
//  #02 //029   ----------------------------------------
Label_0100AAB4:
 BYTE   N06  Gs4  v127
 BYTE   W48
 BYTE   Cs4
 BYTE   W12
 BYTE   Ds4
 BYTE   W12
 BYTE   Gs4
 BYTE   W12
 BYTE   Ds4
 BYTE   W12
 BYTE   PEND 
//  #02 //030   ----------------------------------------
Label_0100AAC1:
 BYTE   N06  Cs4  v127
 BYTE   W12
 BYTE   Ds4
 BYTE   W12
 BYTE   Gs4
 BYTE   W12
 BYTE   Ds4
 BYTE   W12
 BYTE   Cs4
 BYTE   W12
 BYTE   Ds4
 BYTE   W12
 BYTE   Gs4
 BYTE   W24
 BYTE   PEND 
//  #02 //031   ----------------------------------------
Label_0100AAD2:
 BYTE   W48
 BYTE   N06  Cs4  v127
 BYTE   W12
 BYTE   Ds4
 BYTE   W12
 BYTE   Gs4
 BYTE   W12
 BYTE   Ds4
 BYTE   W12
 BYTE   PEND 
//  #02 //032   ----------------------------------------
Label_0100AADE:
 BYTE   N06  Cs4  v127
 BYTE   W24
 BYTE   N06
 BYTE   W12
 BYTE   Ds4
 BYTE   W12
 BYTE   Gs4
 BYTE   W12
 BYTE   Ds4
 BYTE   W12
 BYTE   Cs4
 BYTE   W12
 BYTE   Ds4
 BYTE   W12
 BYTE   PEND 
//  #02 //033   ----------------------------------------
 BYTE   PATT
  POIN2 Label_0100AAB4
//  #02 //034   ----------------------------------------
 BYTE   PATT
  POIN2 Label_0100AAC1
//  #02 //035   ----------------------------------------
 BYTE   PATT
  POIN2 Label_0100AAD2
//  #02 //036   ----------------------------------------
Label_0100AAFE:
 BYTE   N06  Cs4  v127
 BYTE   W24
 BYTE   Ds4
 BYTE   W12
 BYTE   Fn4
 BYTE   W12
 BYTE   An4
 BYTE   W12
 BYTE   Fn4
 BYTE   W12
 BYTE   Ds4
 BYTE   W12
 BYTE   Fn4
 BYTE   W12
 BYTE   PEND 
//  #02 //037   ----------------------------------------
Label_0100AB0F:
 BYTE   N06  An4  v127
 BYTE   W48
 BYTE   Ds4
 BYTE   W12
 BYTE   Fn4
 BYTE   W12
 BYTE   An4
 BYTE   W12
 BYTE   Fn4
 BYTE   W12
 BYTE   PEND 
//  #02 //038   ----------------------------------------
Label_0100AB1C:
 BYTE   N06  Ds4  v127
 BYTE   W12
 BYTE   Fn4
 BYTE   W12
 BYTE   As4
 BYTE   W12
 BYTE   Fn4
 BYTE   W12
 BYTE   Ds4
 BYTE   W12
 BYTE   Fn4
 BYTE   W12
 BYTE   As4
 BYTE   W24
 BYTE   PEND 
//  #02 //039   ----------------------------------------
Label_0100AB2D:
 BYTE   W48
 BYTE   N06  Ds4  v127
 BYTE   W12
 BYTE   Fn4
 BYTE   W12
 BYTE   As4
 BYTE   W12
 BYTE   Fn4
 BYTE   W12
 BYTE   PEND 
//  #02 //040   ----------------------------------------
Label_0100AB39:
 BYTE   N06  Ds4  v127
 BYTE   W24
 BYTE   Gs3
 BYTE   W12
 BYTE   As3
 BYTE   W12
 BYTE   Ds4
 BYTE   W12
 BYTE   As3
 BYTE   W12
 BYTE   Gs3
 BYTE   W12
 BYTE   As3
 BYTE   W12
 BYTE   PEND 
//  #02 //041   ----------------------------------------
 BYTE   PATT
  POIN2 Label_0100A99B
//  #02 //042   ----------------------------------------
 BYTE   PATT
  POIN2 Label_0100A9A8
//  #02 //043   ----------------------------------------
 BYTE   PATT
  POIN2 Label_0100A9B9
//  #02 //044   ----------------------------------------
 BYTE   PATT
  POIN2 Label_0100A9C5
//  #02 //045   ----------------------------------------
 BYTE   PATT
  POIN2 Label_0100A99B
//  #02 //046   ----------------------------------------
 BYTE   PATT
  POIN2 Label_0100A9A8
//  #02 //047   ----------------------------------------
 BYTE   PATT
  POIN2 Label_0100A9B9
//  #02 //048   ----------------------------------------
 BYTE   PATT
  POIN2 Label_0100A9C5
//  #02 //049   ----------------------------------------
 BYTE   PATT
  POIN2 Label_0100A99B
//  #02 //050   ----------------------------------------
 BYTE   PATT
  POIN2 Label_0100A9A8
//  #02 //051   ----------------------------------------
 BYTE   PATT
  POIN2 Label_0100A9B9
//  #02 //052   ----------------------------------------
 BYTE   PATT
  POIN2 Label_0100A9C5
//  #02 //053   ----------------------------------------
 BYTE   PATT
  POIN2 Label_0100A99B
//  #02 //054   ----------------------------------------
 BYTE   PATT
  POIN2 Label_0100A9A8
//  #02 //055   ----------------------------------------
 BYTE   PATT
  POIN2 Label_0100A9B9
//  #02 //056   ----------------------------------------
 BYTE   GoTo
  POIN2 Label_0100AA0D
//  #02 //057   ----------------------------------------
 BYTE   PATT
  POIN2 Label_0100AA0D
//  #02 //058   ----------------------------------------
 BYTE   PATT
  POIN2 Label_0100AA1E
//  #02 //059   ----------------------------------------
 BYTE   PATT
  POIN2 Label_0100AA2B
//  #02 //060   ----------------------------------------
 BYTE   PATT
  POIN2 Label_0100AA3C
//  #02 //061   ----------------------------------------
 BYTE   PATT
  POIN2 Label_0100AA48
//  #02 //062   ----------------------------------------
 BYTE   PATT
  POIN2 Label_0100AA1E
//  #02 //063   ----------------------------------------
 BYTE   PATT
  POIN2 Label_0100AA2B
//  #02 //064   ----------------------------------------
 BYTE   PATT
  POIN2 Label_0100AA3C
//  #02 //065   ----------------------------------------
 BYTE   PATT
  POIN2 Label_0100AA68
//  #02 //066   ----------------------------------------
 BYTE   PATT
  POIN2 Label_0100AA79
//  #02 //067   ----------------------------------------
 BYTE   PATT
  POIN2 Label_0100AA86
//  #02 //068   ----------------------------------------
 BYTE   PATT
  POIN2 Label_0100AA97
//  #02 //069   ----------------------------------------
 BYTE   PATT
  POIN2 Label_0100AAA3
//  #02 //070   ----------------------------------------
 BYTE   PATT
  POIN2 Label_0100AAB4
//  #02 //071   ----------------------------------------
 BYTE   PATT
  POIN2 Label_0100AAC1
//  #02 //072   ----------------------------------------
 BYTE   PATT
  POIN2 Label_0100AAD2
//  #02 //073   ----------------------------------------
 BYTE   PATT
  POIN2 Label_0100AADE
//  #02 //074   ----------------------------------------
 BYTE   PATT
  POIN2 Label_0100AAB4
//  #02 //075   ----------------------------------------
 BYTE   PATT
  POIN2 Label_0100AAC1
//  #02 //076   ----------------------------------------
 BYTE   PATT
  POIN2 Label_0100AAD2
//  #02 //077   ----------------------------------------
 BYTE   PATT
  POIN2 Label_0100AAFE
//  #02 //078   ----------------------------------------
 BYTE   PATT
  POIN2 Label_0100AB0F
//  #02 //079   ----------------------------------------
 BYTE   PATT
  POIN2 Label_0100AB1C
//  #02 //080   ----------------------------------------
 BYTE   PATT
  POIN2 Label_0100AB2D
//  #02 //081   ----------------------------------------
 BYTE   PATT
  POIN2 Label_0100AB39
//  #02 //082   ----------------------------------------
 BYTE   PATT
  POIN2 Label_0100A99B
//  #02 //083   ----------------------------------------
 BYTE   PATT
  POIN2 Label_0100A9A8
//  #02 //084   ----------------------------------------
 BYTE   PATT
  POIN2 Label_0100A9B9
//  #02 //085   ----------------------------------------
 BYTE   PATT
  POIN2 Label_0100A9C5
//  #02 //086   ----------------------------------------
 BYTE   PATT
  POIN2 Label_0100A99B
//  #02 //087   ----------------------------------------
 BYTE   PATT
  POIN2 Label_0100A9A8
//  #02 //088   ----------------------------------------
 BYTE   PATT
  POIN2 Label_0100A9B9
//  #02 //089   ----------------------------------------
 BYTE   PATT
  POIN2 Label_0100A9C5
//  #02 //090   ----------------------------------------
 BYTE   PATT
  POIN2 Label_0100A99B
//  #02 //091   ----------------------------------------
 BYTE   PATT
  POIN2 Label_0100A9A8
//  #02 //092   ----------------------------------------
 BYTE   PATT
  POIN2 Label_0100A9B9
//  #02 //093   ----------------------------------------
 BYTE   PATT
  POIN2 Label_0100A9C5
//  #02 //094   ----------------------------------------
 BYTE   PATT
  POIN2 Label_0100A99B
//  #02 //095   ----------------------------------------
 BYTE   PATT
  POIN2 Label_0100A9A8
//  #02 //096   ----------------------------------------
 BYTE   PATT
  POIN2 Label_0100A9B9
//  #02 //097   ----------------------------------------
 BYTE   PATT
  POIN2 Label_0100AA0D
//  #02 //098   ----------------------------------------
 BYTE   PATT
  POIN2 Label_0100AA1E
//  #02 //099   ----------------------------------------
 BYTE   PATT
  POIN2 Label_0100AA2B
//  #02 //100   ----------------------------------------
 BYTE   PATT
  POIN2 Label_0100AA3C
//  #02 //101   ----------------------------------------
 BYTE   PATT
  POIN2 Label_0100AA48
//  #02 //102   ----------------------------------------
 BYTE   PATT
  POIN2 Label_0100AA1E
//  #02 //103   ----------------------------------------
 BYTE   PATT
  POIN2 Label_0100AA2B
//  #02 //104   ----------------------------------------
 BYTE   PATT
  POIN2 Label_0100AA3C
//  #02 //105   ----------------------------------------
 BYTE   PATT
  POIN2 Label_0100AA68
//  #02 //106   ----------------------------------------
 BYTE   PATT
  POIN2 Label_0100AA79
//  #02 //107   ----------------------------------------
 BYTE   PATT
  POIN2 Label_0100AA86
//  #02 //108   ----------------------------------------
 BYTE   PATT
  POIN2 Label_0100AA97
//  #02 //109   ----------------------------------------
 BYTE   PATT
  POIN2 Label_0100AAA3
//  #02 //110   ----------------------------------------
 BYTE   PATT
  POIN2 Label_0100AAB4
//  #02 //111   ----------------------------------------
 BYTE   PATT
  POIN2 Label_0100AAC1
//  #02 //112   ----------------------------------------
 BYTE   PATT
  POIN2 Label_0100AAD2
//  #02 //113   ----------------------------------------
 BYTE   PATT
  POIN2 Label_0100AADE
//  #02 //114   ----------------------------------------
 BYTE   PATT
  POIN2 Label_0100AAB4
//  #02 //115   ----------------------------------------
 BYTE   PATT
  POIN2 Label_0100AAC1
//  #02 //116   ----------------------------------------
 BYTE   PATT
  POIN2 Label_0100AAD2
//  #02 //117   ----------------------------------------
 BYTE   PATT
  POIN2 Label_0100AAFE
//  #02 //118   ----------------------------------------
 BYTE   PATT
  POIN2 Label_0100AB0F
//  #02 //119   ----------------------------------------
 BYTE   PATT
  POIN2 Label_0100AB1C
//  #02 //120   ----------------------------------------
 BYTE   PATT
  POIN2 Label_0100AB2D
//  #02 //121   ----------------------------------------
 BYTE   N06  Ds4  v127
 BYTE   W06
 BYTE   FINE

//**************** Track 3 (Midi-Chn.2) ****************//

AstroMan_003:
//  #03 //000   ----------------------------------------
 BYTE   KEYSH   AstroMan_key+0
 BYTE   VOICE   94
 BYTE   VOL   20*AstroMan_mvl/mxv
 BYTE   PAN   c_v+0
 BYTE   N84  Gs2  v127
 BYTE   N84  Cs3
 BYTE   N84  Fs3
 BYTE   N84  Gs3  v092
 BYTE   N84  Cs4
 BYTE   W84
 BYTE   N96  Gn2  v127
 BYTE   N96  Cn3
 BYTE   N96  Fn3
 BYTE   N96  Gn3  v092
 BYTE   N96  Cn4
 BYTE   W12
//  #03 //001   ----------------------------------------
Label_0100AFB2:
 BYTE   W84
 BYTE   N96  Ds2  v127
 BYTE   N96  Gs2
 BYTE   N96  Cs3
 BYTE   N96  Ds3  v092
 BYTE   N96  Gs3
 BYTE   W12
 BYTE   PEND 
//  #03 //002   ----------------------------------------
Label_0100AFC1:
 BYTE   W84
 BYTE   N96  Fn2  v127
 BYTE   N96  As2
 BYTE   N96  Ds3
 BYTE   N96  Fn3  v092
 BYTE   N96  As3
 BYTE   W12
 BYTE   PEND 
//  #03 //003   ----------------------------------------
Label_0100AFD0:
 BYTE   W84
 BYTE   N96  Gs2  v127
 BYTE   N96  Cs3
 BYTE   N96  Fs3
 BYTE   N96  Gs3  v092
 BYTE   N96  Cs4
 BYTE   W12
 BYTE   PEND 
//  #03 //004   ----------------------------------------
Label_0100AFDF:
 BYTE   W84
 BYTE   N96  As2  v127
 BYTE   N96  Ds3
 BYTE   N96  Gs3
 BYTE   N96  As3  v092
 BYTE   N96  Ds4
 BYTE   W12
 BYTE   PEND 
//  #03 //005   ----------------------------------------
Label_0100AFEE:
 BYTE   W84
 BYTE   N96  Fs2  v127
 BYTE   N96  Cn3
 BYTE   N96  Fn3
 BYTE   N96  As3  v092
 BYTE   N96  Cn4
 BYTE   W12
 BYTE   PEND 
//  #03 //006   ----------------------------------------
Label_0100AFFD:
 BYTE   W84
 BYTE   TIE  Fn2  v127
 BYTE   TIE  Cn3
 BYTE   TIE  Fn3
 BYTE   TIE  As3  v092
 BYTE   TIE  Cn4
 BYTE   W12
 BYTE   PEND 
//  #03 //007   ----------------------------------------
 BYTE   W96
//  #03 //008   ----------------------------------------
 BYTE   EOT
 BYTE   Fn2  v060
 BYTE   Fn3  v070
 BYTE   Cn4
Label_0100B013:
 BYTE   N84  Gs2  v127
 BYTE   N84  Cs3
 BYTE   N84  Fs3
 BYTE   N84  Gs3  v092
 BYTE   N84  Cs4
 BYTE   W84
 BYTE   N96  Gn2  v127
 BYTE   N96  Cn3
 BYTE   N96  Fn3
 BYTE   N96  Gn3  v092
 BYTE   N96  Cn4
 BYTE   W12
 BYTE   PEND 
//  #03 //009   ----------------------------------------
 BYTE   PATT
  POIN2 Label_0100AFB2
//  #03 //010   ----------------------------------------
 BYTE   PATT
  POIN2 Label_0100AFC1
//  #03 //011   ----------------------------------------
 BYTE   PATT
  POIN2 Label_0100AFD0
//  #03 //012   ----------------------------------------
 BYTE   PATT
  POIN2 Label_0100AFDF
//  #03 //013   ----------------------------------------
 BYTE   PATT
  POIN2 Label_0100AFEE
//  #03 //014   ----------------------------------------
 BYTE   PATT
  POIN2 Label_0100AFFD
//  #03 //015   ----------------------------------------
 BYTE   W96
//  #03 //016   ----------------------------------------
 BYTE   EOT
 BYTE   Fn2  v060
 BYTE   Fn3  v070
 BYTE   Cn4
Label_0100B053:
 BYTE   TIE  Ds2  v127
 BYTE   TIE  An2
 BYTE   TIE  Ds3
 BYTE   TIE  Gs3
 BYTE   TIE  An3  v092
 BYTE   W96
 BYTE   PEND 
//  #03 //017   ----------------------------------------
 BYTE   W96
//  #03 //018   ----------------------------------------
 BYTE   EOT
 BYTE   Ds2  v057
 BYTE   Ds3  v068
 BYTE   An3
//  #03 //019   ----------------------------------------
 BYTE   PATT
  POIN2 Label_0100B053
//  #03 //020   ----------------------------------------
 BYTE   W96
//  #03 //021   ----------------------------------------
 BYTE   EOT
 BYTE   Ds2  v057
 BYTE   Ds3  v068
 BYTE   An3
//  #03 //022   ----------------------------------------
 BYTE   PATT
  POIN2 Label_0100B053
//  #03 //023   ----------------------------------------
 BYTE   W96
//  #03 //024   ----------------------------------------
 BYTE   EOT
 BYTE   Ds2  v057
 BYTE   Ds3  v068
 BYTE   An3
//  #03 //025   ----------------------------------------
 BYTE   PATT
  POIN2 Label_0100B053
//  #03 //026   ----------------------------------------
 BYTE   W96
//  #03 //027   ----------------------------------------
 BYTE   EOT
 BYTE   Ds2  v057
 BYTE   Ds3  v068
 BYTE   An3
Label_0100B08C:
 BYTE   TIE  Cn2  v127
 BYTE   TIE  Fs2
 BYTE   TIE  Cn3
 BYTE   TIE  Fn3
 BYTE   TIE  Fs3  v092
 BYTE   W96
 BYTE   PEND 
//  #03 //028   ----------------------------------------
 BYTE   W96
//  #03 //029   ----------------------------------------
 BYTE   EOT
 BYTE   Cn2  v054
 BYTE   Cn3  v065
 BYTE   Fs3
//  #03 //030   ----------------------------------------
 BYTE   PATT
  POIN2 Label_0100B08C
//  #03 //031   ----------------------------------------
 BYTE   W96
//  #03 //032   ----------------------------------------
 BYTE   EOT
 BYTE   Cn2  v054
 BYTE   Cn3  v065
 BYTE   Fs3
//  #03 //033   ----------------------------------------
 BYTE   PATT
  POIN2 Label_0100B053
//  #03 //034   ----------------------------------------
 BYTE   W96
//  #03 //035   ----------------------------------------
 BYTE   EOT
 BYTE   Ds2  v057
 BYTE   Ds3  v068
 BYTE   An3
//  #03 //036   ----------------------------------------
 BYTE   PATT
  POIN2 Label_0100B053
//  #03 //037   ----------------------------------------
 BYTE   W96
//  #03 //038   ----------------------------------------
 BYTE   EOT
 BYTE   Ds2  v057
 BYTE   Ds3  v068
 BYTE   An3
//  #03 //039   ----------------------------------------
 BYTE   PATT
  POIN2 Label_0100B053
//  #03 //040   ----------------------------------------
 BYTE   W96
//  #03 //041   ----------------------------------------
 BYTE   EOT
 BYTE   Ds2  v057
 BYTE   Ds3  v068
 BYTE   An3
//  #03 //042   ----------------------------------------
 BYTE   PATT
  POIN2 Label_0100B053
//  #03 //043   ----------------------------------------
 BYTE   W96
//  #03 //044   ----------------------------------------
 BYTE   EOT
 BYTE   Ds2  v057
 BYTE   Ds3  v068
 BYTE   An3
//  #03 //045   ----------------------------------------
 BYTE   PATT
  POIN2 Label_0100B08C
//  #03 //046   ----------------------------------------
 BYTE   W96
//  #03 //047   ----------------------------------------
 BYTE   EOT
 BYTE   Cn2  v054
 BYTE   Cn3  v065
 BYTE   Fs3
Label_0100B0E9:
 BYTE   TIE  Bn1  v127
 BYTE   TIE  Fn2
 BYTE   TIE  As2
 BYTE   TIE  Bn2
 BYTE   TIE  Fn3
 BYTE   TIE  As3  v092
 BYTE   W96
 BYTE   PEND 
//  #03 //048   ----------------------------------------
 BYTE   W96
//  #03 //049   ----------------------------------------
 BYTE   EOT
 BYTE   Bn1  v053
 BYTE   As2  v059
 BYTE   Fn3  v070
//  #03 //050   ----------------------------------------
 BYTE   PATT
  POIN2 Label_0100B013
//  #03 //051   ----------------------------------------
 BYTE   PATT
  POIN2 Label_0100AFB2
//  #03 //052   ----------------------------------------
 BYTE   PATT
  POIN2 Label_0100AFC1
//  #03 //053   ----------------------------------------
 BYTE   PATT
  POIN2 Label_0100AFD0
//  #03 //054   ----------------------------------------
 BYTE   PATT
  POIN2 Label_0100AFDF
//  #03 //055   ----------------------------------------
 BYTE   PATT
  POIN2 Label_0100AFEE
//  #03 //056   ----------------------------------------
 BYTE   PATT
  POIN2 Label_0100AFFD
//  #03 //057   ----------------------------------------
 BYTE   W96
//  #03 //058   ----------------------------------------
 BYTE   EOT
 BYTE   Fn2  v060
 BYTE   Fn3  v070
 BYTE   Cn4
//  #03 //059   ----------------------------------------
 BYTE   PATT
  POIN2 Label_0100B013
//  #03 //060   ----------------------------------------
 BYTE   PATT
  POIN2 Label_0100AFB2
//  #03 //061   ----------------------------------------
 BYTE   PATT
  POIN2 Label_0100AFC1
//  #03 //062   ----------------------------------------
 BYTE   PATT
  POIN2 Label_0100AFD0
//  #03 //063   ----------------------------------------
 BYTE   PATT
  POIN2 Label_0100AFDF
//  #03 //064   ----------------------------------------
 BYTE   PATT
  POIN2 Label_0100AFEE
//  #03 //065   ----------------------------------------
 BYTE   PATT
  POIN2 Label_0100AFFD
//  #03 //066   ----------------------------------------
 BYTE   W96
//  #03 //067   ----------------------------------------
 BYTE   EOT
 BYTE   Fn2  v060
 BYTE   Fn3  v070
 BYTE   Cn4
 BYTE   GoTo
  POIN2 Label_0100B053
//  #03 //068   ----------------------------------------
 BYTE   PATT
  POIN2 Label_0100B053
//  #03 //069   ----------------------------------------
 BYTE   W96
//  #03 //070   ----------------------------------------
 BYTE   EOT
 BYTE   Ds2  v057
 BYTE   Ds3  v068
 BYTE   An3
//  #03 //071   ----------------------------------------
 BYTE   PATT
  POIN2 Label_0100B053
//  #03 //072   ----------------------------------------
 BYTE   W96
//  #03 //073   ----------------------------------------
 BYTE   EOT
 BYTE   Ds2  v057
 BYTE   Ds3  v068
 BYTE   An3
//  #03 //074   ----------------------------------------
 BYTE   PATT
  POIN2 Label_0100B053
//  #03 //075   ----------------------------------------
 BYTE   W96
//  #03 //076   ----------------------------------------
 BYTE   EOT
 BYTE   Ds2  v057
 BYTE   Ds3  v068
 BYTE   An3
//  #03 //077   ----------------------------------------
 BYTE   PATT
  POIN2 Label_0100B053
//  #03 //078   ----------------------------------------
 BYTE   W96
//  #03 //079   ----------------------------------------
 BYTE   EOT
 BYTE   Ds2  v057
 BYTE   Ds3  v068
 BYTE   An3
//  #03 //080   ----------------------------------------
 BYTE   PATT
  POIN2 Label_0100B08C
//  #03 //081   ----------------------------------------
 BYTE   W96
//  #03 //082   ----------------------------------------
 BYTE   EOT
 BYTE   Cn2  v054
 BYTE   Cn3  v065
 BYTE   Fs3
//  #03 //083   ----------------------------------------
 BYTE   PATT
  POIN2 Label_0100B08C
//  #03 //084   ----------------------------------------
 BYTE   W96
//  #03 //085   ----------------------------------------
 BYTE   EOT
 BYTE   Cn2  v054
 BYTE   Cn3  v065
 BYTE   Fs3
//  #03 //086   ----------------------------------------
 BYTE   PATT
  POIN2 Label_0100B053
//  #03 //087   ----------------------------------------
 BYTE   W96
//  #03 //088   ----------------------------------------
 BYTE   EOT
 BYTE   Ds2  v057
 BYTE   Ds3  v068
 BYTE   An3
//  #03 //089   ----------------------------------------
 BYTE   PATT
  POIN2 Label_0100B053
//  #03 //090   ----------------------------------------
 BYTE   W96
//  #03 //091   ----------------------------------------
 BYTE   EOT
 BYTE   Ds2  v057
 BYTE   Ds3  v068
 BYTE   An3
//  #03 //092   ----------------------------------------
 BYTE   PATT
  POIN2 Label_0100B053
//  #03 //093   ----------------------------------------
 BYTE   W96
//  #03 //094   ----------------------------------------
 BYTE   EOT
 BYTE   Ds2  v057
 BYTE   Ds3  v068
 BYTE   An3
//  #03 //095   ----------------------------------------
 BYTE   PATT
  POIN2 Label_0100B053
//  #03 //096   ----------------------------------------
 BYTE   W96
//  #03 //097   ----------------------------------------
 BYTE   EOT
 BYTE   Ds2  v057
 BYTE   Ds3  v068
 BYTE   An3
//  #03 //098   ----------------------------------------
 BYTE   PATT
  POIN2 Label_0100B08C
//  #03 //099   ----------------------------------------
 BYTE   W96
//  #03 //100   ----------------------------------------
 BYTE   EOT
 BYTE   Cn2  v054
 BYTE   Cn3  v065
 BYTE   Fs3
//  #03 //101   ----------------------------------------
 BYTE   PATT
  POIN2 Label_0100B0E9
//  #03 //102   ----------------------------------------
 BYTE   W96
//  #03 //103   ----------------------------------------
 BYTE   EOT
 BYTE   Bn1  v053
 BYTE   As2  v059
 BYTE   Fn3  v070
//  #03 //104   ----------------------------------------
 BYTE   PATT
  POIN2 Label_0100B013
//  #03 //105   ----------------------------------------
 BYTE   PATT
  POIN2 Label_0100AFB2
//  #03 //106   ----------------------------------------
 BYTE   PATT
  POIN2 Label_0100AFC1
//  #03 //107   ----------------------------------------
 BYTE   PATT
  POIN2 Label_0100AFD0
//  #03 //108   ----------------------------------------
 BYTE   PATT
  POIN2 Label_0100AFDF
//  #03 //109   ----------------------------------------
 BYTE   PATT
  POIN2 Label_0100AFEE
//  #03 //110   ----------------------------------------
 BYTE   PATT
  POIN2 Label_0100AFFD
//  #03 //111   ----------------------------------------
 BYTE   W96
//  #03 //112   ----------------------------------------
 BYTE   EOT
 BYTE   Fn2  v060
 BYTE   Fn3  v070
 BYTE   Cn4
//  #03 //113   ----------------------------------------
 BYTE   PATT
  POIN2 Label_0100B013
//  #03 //114   ----------------------------------------
 BYTE   PATT
  POIN2 Label_0100AFB2
//  #03 //115   ----------------------------------------
 BYTE   PATT
  POIN2 Label_0100AFC1
//  #03 //116   ----------------------------------------
 BYTE   PATT
  POIN2 Label_0100AFD0
//  #03 //117   ----------------------------------------
 BYTE   PATT
  POIN2 Label_0100AFDF
//  #03 //118   ----------------------------------------
 BYTE   PATT
  POIN2 Label_0100AFEE
//  #03 //119   ----------------------------------------
 BYTE   PATT
  POIN2 Label_0100AFFD
//  #03 //120   ----------------------------------------
 BYTE   W96
//  #03 //121   ----------------------------------------
 BYTE   EOT
 BYTE   Fn2  v060
 BYTE   Fn3  v070
 BYTE   Cn4
//  #03 //122   ----------------------------------------
 BYTE   PATT
  POIN2 Label_0100B053
//  #03 //123   ----------------------------------------
 BYTE   W96
//  #03 //124   ----------------------------------------
 BYTE   EOT
 BYTE   Ds2  v057
 BYTE   Ds3  v068
 BYTE   An3
//  #03 //125   ----------------------------------------
 BYTE   PATT
  POIN2 Label_0100B053
//  #03 //126   ----------------------------------------
 BYTE   W96
//  #03 //127   ----------------------------------------
 BYTE   EOT
 BYTE   Ds2  v057
 BYTE   Ds3  v068
 BYTE   An3
//  #03 //128   ----------------------------------------
 BYTE   PATT
  POIN2 Label_0100B053
//  #03 //129   ----------------------------------------
 BYTE   W96
//  #03 //130   ----------------------------------------
 BYTE   EOT
 BYTE   Ds2  v057
 BYTE   Ds3  v068
 BYTE   An3
//  #03 //131   ----------------------------------------
 BYTE   PATT
  POIN2 Label_0100B053
//  #03 //132   ----------------------------------------
 BYTE   W96
//  #03 //133   ----------------------------------------
 BYTE   EOT
 BYTE   Ds2  v057
 BYTE   Ds3  v068
 BYTE   An3
//  #03 //134   ----------------------------------------
 BYTE   PATT
  POIN2 Label_0100B08C
//  #03 //135   ----------------------------------------
 BYTE   W96
//  #03 //136   ----------------------------------------
 BYTE   EOT
 BYTE   Cn2  v054
 BYTE   Cn3  v065
 BYTE   Fs3
//  #03 //137   ----------------------------------------
 BYTE   PATT
  POIN2 Label_0100B08C
//  #03 //138   ----------------------------------------
 BYTE   W96
//  #03 //139   ----------------------------------------
 BYTE   EOT
 BYTE   Cn2  v054
 BYTE   Cn3  v065
 BYTE   Fs3
//  #03 //140   ----------------------------------------
 BYTE   PATT
  POIN2 Label_0100B053
//  #03 //141   ----------------------------------------
 BYTE   W96
//  #03 //142   ----------------------------------------
 BYTE   EOT
 BYTE   Ds2  v057
 BYTE   Ds3  v068
 BYTE   An3
//  #03 //143   ----------------------------------------
 BYTE   PATT
  POIN2 Label_0100B053
//  #03 //144   ----------------------------------------
 BYTE   W96
//  #03 //145   ----------------------------------------
 BYTE   EOT
 BYTE   Ds2  v057
 BYTE   Ds3  v068
 BYTE   An3
//  #03 //146   ----------------------------------------
 BYTE   PATT
  POIN2 Label_0100B053
//  #03 //147   ----------------------------------------
 BYTE   W96
//  #03 //148   ----------------------------------------
 BYTE   EOT
 BYTE   Ds2  v057
 BYTE   Ds3  v068
 BYTE   An3
//  #03 //149   ----------------------------------------
 BYTE   PATT
  POIN2 Label_0100B053
//  #03 //150   ----------------------------------------
 BYTE   W96
//  #03 //151   ----------------------------------------
 BYTE   EOT
 BYTE   Ds2  v057
 BYTE   Ds3  v068
 BYTE   An3
//  #03 //152   ----------------------------------------
 BYTE   PATT
  POIN2 Label_0100B08C
//  #03 //153   ----------------------------------------
 BYTE   W96
//  #03 //154   ----------------------------------------
 BYTE   EOT
 BYTE   Cn2  v054
 BYTE   Cn3  v065
 BYTE   Fs3
//  #03 //155   ----------------------------------------
 BYTE   PATT
  POIN2 Label_0100B0E9
//  #03 //156   ----------------------------------------
 BYTE   W96
//  #03 //157   ----------------------------------------
 BYTE   EOT
 BYTE   Bn1  v053
 BYTE   As2  v059
 BYTE   Fn3  v070
 BYTE   W06
 BYTE   FINE

//**************** Track 4 (Midi-Chn.3) ****************//

AstroMan_004:
//  #04 //000   ----------------------------------------
 BYTE   KEYSH   AstroMan_key+0
 BYTE   VOICE   63
 BYTE   VOL   35*AstroMan_mvl/mxv
 BYTE   PAN   c_v-9
 BYTE   N12  Ds0  v127
 BYTE   W12
 BYTE   Ds1
 BYTE   W36
 BYTE   Cn1
 BYTE   W12
 BYTE   Cn2
 BYTE   W12
 BYTE   Cs1
 BYTE   W12
 BYTE   Cs2
 BYTE   W12
//  #04 //001   ----------------------------------------
Label_0100B2FA:
 BYTE   W48
 BYTE   N12  Gs0  v127
 BYTE   W12
 BYTE   Gs1
 BYTE   W12
 BYTE   Fs0
 BYTE   W12
 BYTE   Fs1
 BYTE   W12
 BYTE   PEND 
//  #04 //002   ----------------------------------------
Label_0100B306:
 BYTE   N12  Ds0  v127
 BYTE   W12
 BYTE   Ds1
 BYTE   W36
 BYTE   Cn1
 BYTE   W12
 BYTE   Cn2
 BYTE   W12
 BYTE   Cs1
 BYTE   W12
 BYTE   Cs2
 BYTE   W12
 BYTE   PEND 
//  #04 //003   ----------------------------------------
Label_0100B315:
 BYTE   W48
 BYTE   N12  Gs0  v127
 BYTE   W12
 BYTE   Gs1
 BYTE   W12
 BYTE   As0
 BYTE   W12
 BYTE   As1
 BYTE   W12
 BYTE   PEND 
//  #04 //004   ----------------------------------------
 BYTE   PATT
  POIN2 Label_0100B306
//  #04 //005   ----------------------------------------
 BYTE   PATT
  POIN2 Label_0100B2FA
//  #04 //006   ----------------------------------------
 BYTE   PATT
  POIN2 Label_0100B306
//  #04 //007   ----------------------------------------
 BYTE   PATT
  POIN2 Label_0100B315
//  #04 //008   ----------------------------------------
 BYTE   PATT
  POIN2 Label_0100B306
//  #04 //009   ----------------------------------------
 BYTE   PATT
  POIN2 Label_0100B2FA
//  #04 //010   ----------------------------------------
 BYTE   PATT
  POIN2 Label_0100B306
//  #04 //011   ----------------------------------------
 BYTE   PATT
  POIN2 Label_0100B315
//  #04 //012   ----------------------------------------
 BYTE   PATT
  POIN2 Label_0100B306
//  #04 //013   ----------------------------------------
 BYTE   PATT
  POIN2 Label_0100B2FA
//  #04 //014   ----------------------------------------
 BYTE   PATT
  POIN2 Label_0100B306
//  #04 //015   ----------------------------------------
 BYTE   PATT
  POIN2 Label_0100B315
//  #04 //016   ----------------------------------------
Label_0100B35D:
 BYTE   N12  Bn0  v127
 BYTE   W12
 BYTE   Bn1
 BYTE   W36
 BYTE   An0
 BYTE   W12
 BYTE   An1
 BYTE   W12
 BYTE   Bn0
 BYTE   W12
 BYTE   Bn1
 BYTE   W12
 BYTE   PEND 
//  #04 //017   ----------------------------------------
Label_0100B36C:
 BYTE   W48
 BYTE   N12  Fs0  v127
 BYTE   W12
 BYTE   Fs1
 BYTE   W12
 BYTE   An0
 BYTE   W12
 BYTE   An1
 BYTE   W12
 BYTE   PEND 
//  #04 //018   ----------------------------------------
 BYTE   PATT
  POIN2 Label_0100B35D
//  #04 //019   ----------------------------------------
 BYTE   PATT
  POIN2 Label_0100B36C
//  #04 //020   ----------------------------------------
 BYTE   PATT
  POIN2 Label_0100B35D
//  #04 //021   ----------------------------------------
 BYTE   PATT
  POIN2 Label_0100B36C
//  #04 //022   ----------------------------------------
 BYTE   PATT
  POIN2 Label_0100B35D
//  #04 //023   ----------------------------------------
 BYTE   PATT
  POIN2 Label_0100B36C
//  #04 //024   ----------------------------------------
Label_0100B396:
 BYTE   N12  Dn0  v127
 BYTE   W12
 BYTE   Dn1
 BYTE   W36
 BYTE   Cn0
 BYTE   W12
 BYTE   Cn1
 BYTE   W12
 BYTE   Dn0
 BYTE   W12
 BYTE   Dn1
 BYTE   W12
 BYTE   PEND 
//  #04 //025   ----------------------------------------
Label_0100B3A5:
 BYTE   W48
 BYTE   N12  As0  v127
 BYTE   W12
 BYTE   As1
 BYTE   W12
 BYTE   Cn1
 BYTE   W12
 BYTE   Cn2
 BYTE   W12
 BYTE   PEND 
//  #04 //026   ----------------------------------------
 BYTE   PATT
  POIN2 Label_0100B396
//  #04 //027   ----------------------------------------
 BYTE   PATT
  POIN2 Label_0100B3A5
//  #04 //028   ----------------------------------------
 BYTE   PATT
  POIN2 Label_0100B35D
//  #04 //029   ----------------------------------------
 BYTE   PATT
  POIN2 Label_0100B36C
//  #04 //030   ----------------------------------------
 BYTE   PATT
  POIN2 Label_0100B35D
//  #04 //031   ----------------------------------------
 BYTE   PATT
  POIN2 Label_0100B36C
//  #04 //032   ----------------------------------------
 BYTE   PATT
  POIN2 Label_0100B35D
//  #04 //033   ----------------------------------------
 BYTE   PATT
  POIN2 Label_0100B36C
//  #04 //034   ----------------------------------------
 BYTE   PATT
  POIN2 Label_0100B35D
//  #04 //035   ----------------------------------------
 BYTE   PATT
  POIN2 Label_0100B36C
//  #04 //036   ----------------------------------------
 BYTE   PATT
  POIN2 Label_0100B396
//  #04 //037   ----------------------------------------
 BYTE   PATT
  POIN2 Label_0100B3A5
//  #04 //038   ----------------------------------------
Label_0100B3ED:
 BYTE   N12  Cs0  v127
 BYTE   W12
 BYTE   Cs1
 BYTE   W36
 BYTE   Bn0
 BYTE   W12
 BYTE   Bn1
 BYTE   W12
 BYTE   Cs1
 BYTE   W12
 BYTE   Cs2
 BYTE   W12
 BYTE   PEND 
//  #04 //039   ----------------------------------------
Label_0100B3FC:
 BYTE   W48
 BYTE   N12  Bn0  v127
 BYTE   W12
 BYTE   Bn1
 BYTE   W12
 BYTE   Cs1
 BYTE   W12
 BYTE   Cs2
 BYTE   W12
 BYTE   PEND 
//  #04 //040   ----------------------------------------
 BYTE   PATT
  POIN2 Label_0100B306
//  #04 //041   ----------------------------------------
 BYTE   PATT
  POIN2 Label_0100B2FA
//  #04 //042   ----------------------------------------
 BYTE   PATT
  POIN2 Label_0100B306
//  #04 //043   ----------------------------------------
 BYTE   PATT
  POIN2 Label_0100B315
//  #04 //044   ----------------------------------------
 BYTE   PATT
  POIN2 Label_0100B306
//  #04 //045   ----------------------------------------
 BYTE   PATT
  POIN2 Label_0100B2FA
//  #04 //046   ----------------------------------------
 BYTE   PATT
  POIN2 Label_0100B306
//  #04 //047   ----------------------------------------
 BYTE   PATT
  POIN2 Label_0100B315
//  #04 //048   ----------------------------------------
 BYTE   PATT
  POIN2 Label_0100B306
//  #04 //049   ----------------------------------------
 BYTE   PATT
  POIN2 Label_0100B2FA
//  #04 //050   ----------------------------------------
 BYTE   PATT
  POIN2 Label_0100B306
//  #04 //051   ----------------------------------------
 BYTE   PATT
  POIN2 Label_0100B315
//  #04 //052   ----------------------------------------
 BYTE   PATT
  POIN2 Label_0100B306
//  #04 //053   ----------------------------------------
 BYTE   PATT
  POIN2 Label_0100B2FA
//  #04 //054   ----------------------------------------
 BYTE   PATT
  POIN2 Label_0100B306
//  #04 //055   ----------------------------------------
 BYTE   PATT
  POIN2 Label_0100B315
//  #04 //056   ----------------------------------------
 BYTE   GoTo
  POIN2 Label_0100B35D
//  #04 //057   ----------------------------------------
 BYTE   PATT
  POIN2 Label_0100B35D
//  #04 //058   ----------------------------------------
 BYTE   PATT
  POIN2 Label_0100B36C
//  #04 //059   ----------------------------------------
 BYTE   PATT
  POIN2 Label_0100B35D
//  #04 //060   ----------------------------------------
 BYTE   PATT
  POIN2 Label_0100B36C
//  #04 //061   ----------------------------------------
 BYTE   PATT
  POIN2 Label_0100B35D
//  #04 //062   ----------------------------------------
 BYTE   PATT
  POIN2 Label_0100B36C
//  #04 //063   ----------------------------------------
 BYTE   PATT
  POIN2 Label_0100B35D
//  #04 //064   ----------------------------------------
 BYTE   PATT
  POIN2 Label_0100B36C
//  #04 //065   ----------------------------------------
 BYTE   PATT
  POIN2 Label_0100B396
//  #04 //066   ----------------------------------------
 BYTE   PATT
  POIN2 Label_0100B3A5
//  #04 //067   ----------------------------------------
 BYTE   PATT
  POIN2 Label_0100B396
//  #04 //068   ----------------------------------------
 BYTE   PATT
  POIN2 Label_0100B3A5
//  #04 //069   ----------------------------------------
 BYTE   PATT
  POIN2 Label_0100B35D
//  #04 //070   ----------------------------------------
 BYTE   PATT
  POIN2 Label_0100B36C
//  #04 //071   ----------------------------------------
 BYTE   PATT
  POIN2 Label_0100B35D
//  #04 //072   ----------------------------------------
 BYTE   PATT
  POIN2 Label_0100B36C
//  #04 //073   ----------------------------------------
 BYTE   PATT
  POIN2 Label_0100B35D
//  #04 //074   ----------------------------------------
 BYTE   PATT
  POIN2 Label_0100B36C
//  #04 //075   ----------------------------------------
 BYTE   PATT
  POIN2 Label_0100B35D
//  #04 //076   ----------------------------------------
 BYTE   PATT
  POIN2 Label_0100B36C
//  #04 //077   ----------------------------------------
 BYTE   PATT
  POIN2 Label_0100B396
//  #04 //078   ----------------------------------------
 BYTE   PATT
  POIN2 Label_0100B3A5
//  #04 //079   ----------------------------------------
 BYTE   PATT
  POIN2 Label_0100B3ED
//  #04 //080   ----------------------------------------
 BYTE   PATT
  POIN2 Label_0100B3FC
//  #04 //081   ----------------------------------------
 BYTE   PATT
  POIN2 Label_0100B306
//  #04 //082   ----------------------------------------
 BYTE   PATT
  POIN2 Label_0100B2FA
//  #04 //083   ----------------------------------------
 BYTE   PATT
  POIN2 Label_0100B306
//  #04 //084   ----------------------------------------
 BYTE   PATT
  POIN2 Label_0100B315
//  #04 //085   ----------------------------------------
 BYTE   PATT
  POIN2 Label_0100B306
//  #04 //086   ----------------------------------------
 BYTE   PATT
  POIN2 Label_0100B2FA
//  #04 //087   ----------------------------------------
 BYTE   PATT
  POIN2 Label_0100B306
//  #04 //088   ----------------------------------------
 BYTE   PATT
  POIN2 Label_0100B315
//  #04 //089   ----------------------------------------
 BYTE   PATT
  POIN2 Label_0100B306
//  #04 //090   ----------------------------------------
 BYTE   PATT
  POIN2 Label_0100B2FA
//  #04 //091   ----------------------------------------
 BYTE   PATT
  POIN2 Label_0100B306
//  #04 //092   ----------------------------------------
 BYTE   PATT
  POIN2 Label_0100B315
//  #04 //093   ----------------------------------------
 BYTE   PATT
  POIN2 Label_0100B306
//  #04 //094   ----------------------------------------
 BYTE   PATT
  POIN2 Label_0100B2FA
//  #04 //095   ----------------------------------------
 BYTE   PATT
  POIN2 Label_0100B306
//  #04 //096   ----------------------------------------
 BYTE   PATT
  POIN2 Label_0100B315
//  #04 //097   ----------------------------------------
 BYTE   PATT
  POIN2 Label_0100B35D
//  #04 //098   ----------------------------------------
 BYTE   PATT
  POIN2 Label_0100B36C
//  #04 //099   ----------------------------------------
 BYTE   PATT
  POIN2 Label_0100B35D
//  #04 //100   ----------------------------------------
 BYTE   PATT
  POIN2 Label_0100B36C
//  #04 //101   ----------------------------------------
 BYTE   PATT
  POIN2 Label_0100B35D
//  #04 //102   ----------------------------------------
 BYTE   PATT
  POIN2 Label_0100B36C
//  #04 //103   ----------------------------------------
 BYTE   PATT
  POIN2 Label_0100B35D
//  #04 //104   ----------------------------------------
 BYTE   PATT
  POIN2 Label_0100B36C
//  #04 //105   ----------------------------------------
 BYTE   PATT
  POIN2 Label_0100B396
//  #04 //106   ----------------------------------------
 BYTE   PATT
  POIN2 Label_0100B3A5
//  #04 //107   ----------------------------------------
 BYTE   PATT
  POIN2 Label_0100B396
//  #04 //108   ----------------------------------------
 BYTE   PATT
  POIN2 Label_0100B3A5
//  #04 //109   ----------------------------------------
 BYTE   PATT
  POIN2 Label_0100B35D
//  #04 //110   ----------------------------------------
 BYTE   PATT
  POIN2 Label_0100B36C
//  #04 //111   ----------------------------------------
 BYTE   PATT
  POIN2 Label_0100B35D
//  #04 //112   ----------------------------------------
 BYTE   PATT
  POIN2 Label_0100B36C
//  #04 //113   ----------------------------------------
 BYTE   PATT
  POIN2 Label_0100B35D
//  #04 //114   ----------------------------------------
 BYTE   PATT
  POIN2 Label_0100B36C
//  #04 //115   ----------------------------------------
 BYTE   PATT
  POIN2 Label_0100B35D
//  #04 //116   ----------------------------------------
 BYTE   PATT
  POIN2 Label_0100B36C
//  #04 //117   ----------------------------------------
 BYTE   PATT
  POIN2 Label_0100B396
//  #04 //118   ----------------------------------------
 BYTE   PATT
  POIN2 Label_0100B3A5
//  #04 //119   ----------------------------------------
 BYTE   PATT
  POIN2 Label_0100B3ED
//  #04 //120   ----------------------------------------
 BYTE   PATT
  POIN2 Label_0100B3FC
//  #04 //121   ----------------------------------------
 BYTE   W06
 BYTE   FINE

//**************** Track 5 (Midi-Chn.4) ****************//

AstroMan_005:
//  #05 //000   ----------------------------------------
 BYTE   KEYSH   AstroMan_key+0
 BYTE   VOICE   39
 BYTE   VOL   30*AstroMan_mvl/mxv
 BYTE   PAN   c_v+11
 BYTE   N12  Ds0  v127
 BYTE   W12
 BYTE   Ds1
 BYTE   W36
 BYTE   Cn1
 BYTE   W12
 BYTE   Cn2
 BYTE   W12
 BYTE   Cs1
 BYTE   W12
 BYTE   Cs2
 BYTE   W12
//  #05 //001   ----------------------------------------
Label_0100B5C6:
 BYTE   W48
 BYTE   N12  Gs0  v127
 BYTE   W12
 BYTE   Gs1
 BYTE   W12
 BYTE   Fs0
 BYTE   W12
 BYTE   Fs1
 BYTE   W12
 BYTE   PEND 
//  #05 //002   ----------------------------------------
Label_0100B5D2:
 BYTE   N12  Ds0  v127
 BYTE   W12
 BYTE   Ds1
 BYTE   W36
 BYTE   Cn1
 BYTE   W12
 BYTE   Cn2
 BYTE   W12
 BYTE   Cs1
 BYTE   W12
 BYTE   Cs2
 BYTE   W12
 BYTE   PEND 
//  #05 //003   ----------------------------------------
Label_0100B5E1:
 BYTE   W48
 BYTE   N12  Gs0  v127
 BYTE   W12
 BYTE   Gs1
 BYTE   W12
 BYTE   As0
 BYTE   W12
 BYTE   As1
 BYTE   W12
 BYTE   PEND 
//  #05 //004   ----------------------------------------
 BYTE   PATT
  POIN2 Label_0100B5D2
//  #05 //005   ----------------------------------------
 BYTE   PATT
  POIN2 Label_0100B5C6
//  #05 //006   ----------------------------------------
 BYTE   PATT
  POIN2 Label_0100B5D2
//  #05 //007   ----------------------------------------
 BYTE   PATT
  POIN2 Label_0100B5E1
//  #05 //008   ----------------------------------------
 BYTE   PATT
  POIN2 Label_0100B5D2
//  #05 //009   ----------------------------------------
 BYTE   PATT
  POIN2 Label_0100B5C6
//  #05 //010   ----------------------------------------
 BYTE   PATT
  POIN2 Label_0100B5D2
//  #05 //011   ----------------------------------------
 BYTE   PATT
  POIN2 Label_0100B5E1
//  #05 //012   ----------------------------------------
 BYTE   PATT
  POIN2 Label_0100B5D2
//  #05 //013   ----------------------------------------
 BYTE   PATT
  POIN2 Label_0100B5C6
//  #05 //014   ----------------------------------------
 BYTE   PATT
  POIN2 Label_0100B5D2
//  #05 //015   ----------------------------------------
 BYTE   PATT
  POIN2 Label_0100B5E1
//  #05 //016   ----------------------------------------
Label_0100B629:
 BYTE   N12  Bn0  v127
 BYTE   W12
 BYTE   Bn1
 BYTE   W36
 BYTE   An0
 BYTE   W12
 BYTE   An1
 BYTE   W12
 BYTE   Bn0
 BYTE   W12
 BYTE   Bn1
 BYTE   W12
 BYTE   PEND 
//  #05 //017   ----------------------------------------
Label_0100B638:
 BYTE   W48
 BYTE   N12  Fs0  v127
 BYTE   W12
 BYTE   Fs1
 BYTE   W12
 BYTE   An0
 BYTE   W12
 BYTE   An1
 BYTE   W12
 BYTE   PEND 
//  #05 //018   ----------------------------------------
 BYTE   PATT
  POIN2 Label_0100B629
//  #05 //019   ----------------------------------------
 BYTE   PATT
  POIN2 Label_0100B638
//  #05 //020   ----------------------------------------
 BYTE   PATT
  POIN2 Label_0100B629
//  #05 //021   ----------------------------------------
 BYTE   PATT
  POIN2 Label_0100B638
//  #05 //022   ----------------------------------------
 BYTE   PATT
  POIN2 Label_0100B629
//  #05 //023   ----------------------------------------
 BYTE   PATT
  POIN2 Label_0100B638
//  #05 //024   ----------------------------------------
Label_0100B662:
 BYTE   N12  Dn0  v127
 BYTE   W12
 BYTE   Dn1
 BYTE   W36
 BYTE   Cn0
 BYTE   W12
 BYTE   Cn1
 BYTE   W12
 BYTE   Dn0
 BYTE   W12
 BYTE   Dn1
 BYTE   W12
 BYTE   PEND 
//  #05 //025   ----------------------------------------
Label_0100B671:
 BYTE   W48
 BYTE   N12  As0  v127
 BYTE   W12
 BYTE   As1
 BYTE   W12
 BYTE   Cn1
 BYTE   W12
 BYTE   Cn2
 BYTE   W12
 BYTE   PEND 
//  #05 //026   ----------------------------------------
 BYTE   PATT
  POIN2 Label_0100B662
//  #05 //027   ----------------------------------------
 BYTE   PATT
  POIN2 Label_0100B671
//  #05 //028   ----------------------------------------
 BYTE   PATT
  POIN2 Label_0100B629
//  #05 //029   ----------------------------------------
 BYTE   PATT
  POIN2 Label_0100B638
//  #05 //030   ----------------------------------------
 BYTE   PATT
  POIN2 Label_0100B629
//  #05 //031   ----------------------------------------
 BYTE   PATT
  POIN2 Label_0100B638
//  #05 //032   ----------------------------------------
 BYTE   PATT
  POIN2 Label_0100B629
//  #05 //033   ----------------------------------------
 BYTE   PATT
  POIN2 Label_0100B638
//  #05 //034   ----------------------------------------
 BYTE   PATT
  POIN2 Label_0100B629
//  #05 //035   ----------------------------------------
 BYTE   PATT
  POIN2 Label_0100B638
//  #05 //036   ----------------------------------------
 BYTE   PATT
  POIN2 Label_0100B662
//  #05 //037   ----------------------------------------
 BYTE   PATT
  POIN2 Label_0100B671
//  #05 //038   ----------------------------------------
Label_0100B6B9:
 BYTE   N12  Cs0  v127
 BYTE   W12
 BYTE   Cs1
 BYTE   W36
 BYTE   Bn0
 BYTE   W12
 BYTE   Bn1
 BYTE   W12
 BYTE   Cs1
 BYTE   W12
 BYTE   Cs2
 BYTE   W12
 BYTE   PEND 
//  #05 //039   ----------------------------------------
Label_0100B6C8:
 BYTE   W48
 BYTE   N12  Bn0  v127
 BYTE   W12
 BYTE   Bn1
 BYTE   W12
 BYTE   Cs1
 BYTE   W12
 BYTE   Cs2
 BYTE   W12
 BYTE   PEND 
//  #05 //040   ----------------------------------------
 BYTE   PATT
  POIN2 Label_0100B5D2
//  #05 //041   ----------------------------------------
 BYTE   PATT
  POIN2 Label_0100B5C6
//  #05 //042   ----------------------------------------
 BYTE   PATT
  POIN2 Label_0100B5D2
//  #05 //043   ----------------------------------------
 BYTE   PATT
  POIN2 Label_0100B5E1
//  #05 //044   ----------------------------------------
 BYTE   PATT
  POIN2 Label_0100B5D2
//  #05 //045   ----------------------------------------
 BYTE   PATT
  POIN2 Label_0100B5C6
//  #05 //046   ----------------------------------------
 BYTE   PATT
  POIN2 Label_0100B5D2
//  #05 //047   ----------------------------------------
 BYTE   PATT
  POIN2 Label_0100B5E1
//  #05 //048   ----------------------------------------
 BYTE   PATT
  POIN2 Label_0100B5D2
//  #05 //049   ----------------------------------------
 BYTE   PATT
  POIN2 Label_0100B5C6
//  #05 //050   ----------------------------------------
 BYTE   PATT
  POIN2 Label_0100B5D2
//  #05 //051   ----------------------------------------
 BYTE   PATT
  POIN2 Label_0100B5E1
//  #05 //052   ----------------------------------------
 BYTE   PATT
  POIN2 Label_0100B5D2
//  #05 //053   ----------------------------------------
 BYTE   PATT
  POIN2 Label_0100B5C6
//  #05 //054   ----------------------------------------
 BYTE   PATT
  POIN2 Label_0100B5D2
//  #05 //055   ----------------------------------------
 BYTE   PATT
  POIN2 Label_0100B5E1
//  #05 //056   ----------------------------------------
 BYTE   GoTo
  POIN2 Label_0100B629
//  #05 //057   ----------------------------------------
 BYTE   PATT
  POIN2 Label_0100B629
//  #05 //058   ----------------------------------------
 BYTE   PATT
  POIN2 Label_0100B638
//  #05 //059   ----------------------------------------
 BYTE   PATT
  POIN2 Label_0100B629
//  #05 //060   ----------------------------------------
 BYTE   PATT
  POIN2 Label_0100B638
//  #05 //061   ----------------------------------------
 BYTE   PATT
  POIN2 Label_0100B629
//  #05 //062   ----------------------------------------
 BYTE   PATT
  POIN2 Label_0100B638
//  #05 //063   ----------------------------------------
 BYTE   PATT
  POIN2 Label_0100B629
//  #05 //064   ----------------------------------------
 BYTE   PATT
  POIN2 Label_0100B638
//  #05 //065   ----------------------------------------
 BYTE   PATT
  POIN2 Label_0100B662
//  #05 //066   ----------------------------------------
 BYTE   PATT
  POIN2 Label_0100B671
//  #05 //067   ----------------------------------------
 BYTE   PATT
  POIN2 Label_0100B662
//  #05 //068   ----------------------------------------
 BYTE   PATT
  POIN2 Label_0100B671
//  #05 //069   ----------------------------------------
 BYTE   PATT
  POIN2 Label_0100B629
//  #05 //070   ----------------------------------------
 BYTE   PATT
  POIN2 Label_0100B638
//  #05 //071   ----------------------------------------
 BYTE   PATT
  POIN2 Label_0100B629
//  #05 //072   ----------------------------------------
 BYTE   PATT
  POIN2 Label_0100B638
//  #05 //073   ----------------------------------------
 BYTE   PATT
  POIN2 Label_0100B629
//  #05 //074   ----------------------------------------
 BYTE   PATT
  POIN2 Label_0100B638
//  #05 //075   ----------------------------------------
 BYTE   PATT
  POIN2 Label_0100B629
//  #05 //076   ----------------------------------------
 BYTE   PATT
  POIN2 Label_0100B638
//  #05 //077   ----------------------------------------
 BYTE   PATT
  POIN2 Label_0100B662
//  #05 //078   ----------------------------------------
 BYTE   PATT
  POIN2 Label_0100B671
//  #05 //079   ----------------------------------------
 BYTE   PATT
  POIN2 Label_0100B6B9
//  #05 //080   ----------------------------------------
 BYTE   PATT
  POIN2 Label_0100B6C8
//  #05 //081   ----------------------------------------
 BYTE   PATT
  POIN2 Label_0100B5D2
//  #05 //082   ----------------------------------------
 BYTE   PATT
  POIN2 Label_0100B5C6
//  #05 //083   ----------------------------------------
 BYTE   PATT
  POIN2 Label_0100B5D2
//  #05 //084   ----------------------------------------
 BYTE   PATT
  POIN2 Label_0100B5E1
//  #05 //085   ----------------------------------------
 BYTE   PATT
  POIN2 Label_0100B5D2
//  #05 //086   ----------------------------------------
 BYTE   PATT
  POIN2 Label_0100B5C6
//  #05 //087   ----------------------------------------
 BYTE   PATT
  POIN2 Label_0100B5D2
//  #05 //088   ----------------------------------------
 BYTE   PATT
  POIN2 Label_0100B5E1
//  #05 //089   ----------------------------------------
 BYTE   PATT
  POIN2 Label_0100B5D2
//  #05 //090   ----------------------------------------
 BYTE   PATT
  POIN2 Label_0100B5C6
//  #05 //091   ----------------------------------------
 BYTE   PATT
  POIN2 Label_0100B5D2
//  #05 //092   ----------------------------------------
 BYTE   PATT
  POIN2 Label_0100B5E1
//  #05 //093   ----------------------------------------
 BYTE   PATT
  POIN2 Label_0100B5D2
//  #05 //094   ----------------------------------------
 BYTE   PATT
  POIN2 Label_0100B5C6
//  #05 //095   ----------------------------------------
 BYTE   PATT
  POIN2 Label_0100B5D2
//  #05 //096   ----------------------------------------
 BYTE   PATT
  POIN2 Label_0100B5E1
//  #05 //097   ----------------------------------------
 BYTE   PATT
  POIN2 Label_0100B629
//  #05 //098   ----------------------------------------
 BYTE   PATT
  POIN2 Label_0100B638
//  #05 //099   ----------------------------------------
 BYTE   PATT
  POIN2 Label_0100B629
//  #05 //100   ----------------------------------------
 BYTE   PATT
  POIN2 Label_0100B638
//  #05 //101   ----------------------------------------
 BYTE   PATT
  POIN2 Label_0100B629
//  #05 //102   ----------------------------------------
 BYTE   PATT
  POIN2 Label_0100B638
//  #05 //103   ----------------------------------------
 BYTE   PATT
  POIN2 Label_0100B629
//  #05 //104   ----------------------------------------
 BYTE   PATT
  POIN2 Label_0100B638
//  #05 //105   ----------------------------------------
 BYTE   PATT
  POIN2 Label_0100B662
//  #05 //106   ----------------------------------------
 BYTE   PATT
  POIN2 Label_0100B671
//  #05 //107   ----------------------------------------
 BYTE   PATT
  POIN2 Label_0100B662
//  #05 //108   ----------------------------------------
 BYTE   PATT
  POIN2 Label_0100B671
//  #05 //109   ----------------------------------------
 BYTE   PATT
  POIN2 Label_0100B629
//  #05 //110   ----------------------------------------
 BYTE   PATT
  POIN2 Label_0100B638
//  #05 //111   ----------------------------------------
 BYTE   PATT
  POIN2 Label_0100B629
//  #05 //112   ----------------------------------------
 BYTE   PATT
  POIN2 Label_0100B638
//  #05 //113   ----------------------------------------
 BYTE   PATT
  POIN2 Label_0100B629
//  #05 //114   ----------------------------------------
 BYTE   PATT
  POIN2 Label_0100B638
//  #05 //115   ----------------------------------------
 BYTE   PATT
  POIN2 Label_0100B629
//  #05 //116   ----------------------------------------
 BYTE   PATT
  POIN2 Label_0100B638
//  #05 //117   ----------------------------------------
 BYTE   PATT
  POIN2 Label_0100B662
//  #05 //118   ----------------------------------------
 BYTE   PATT
  POIN2 Label_0100B671
//  #05 //119   ----------------------------------------
 BYTE   PATT
  POIN2 Label_0100B6B9
//  #05 //120   ----------------------------------------
 BYTE   PATT
  POIN2 Label_0100B6C8
//  #05 //121   ----------------------------------------
 BYTE   W06
 BYTE   FINE

//**************** Track 6 (Midi-Chn.5) ****************//

AstroMan_006:
//  #06 //000   ----------------------------------------
 BYTE   KEYSH   AstroMan_key+0
 BYTE   VOICE   33
 BYTE   VOL   24*AstroMan_mvl/mxv
 BYTE   PAN   c_v+31
 BYTE   N04  Ds2  v127
 BYTE   W12
 BYTE   Gs2
 BYTE   W12
 BYTE   As2
 BYTE   W12
 BYTE   Cs2
 BYTE   W12
 BYTE   Cs3
 BYTE   W12
 BYTE   Ds2
 BYTE   W12
 BYTE   Gs2
 BYTE   W12
 BYTE   As2
 BYTE   W12
//  #06 //001   ----------------------------------------
Label_0100A0B6:
 BYTE   N04  Cs2  v127
 BYTE   W12
 BYTE   Ds2
 BYTE   W12
 BYTE   As2
 BYTE   W12
 BYTE   Cs2
 BYTE   W12
 BYTE   Gs2
 BYTE   W12
 BYTE   Ds2
 BYTE   W12
 BYTE   Cs3
 BYTE   W12
 BYTE   Fs2
 BYTE   W12
 BYTE   PEND 
//  #06 //002   ----------------------------------------
Label_0100A0C9:
 BYTE   N04  Gs2  v127
 BYTE   W12
 BYTE   Ds2
 BYTE   W12
 BYTE   As2
 BYTE   W12
 BYTE   Cs2
 BYTE   W12
 BYTE   Cs3
 BYTE   W12
 BYTE   Fs2
 BYTE   W12
 BYTE   Ds3
 BYTE   W12
 BYTE   Gs2
 BYTE   W12
 BYTE   PEND 
//  #06 //003   ----------------------------------------
Label_0100A0DC:
 BYTE   N04  As2  v127
 BYTE   W12
 BYTE   Ds2
 BYTE   W12
 BYTE   Gs2
 BYTE   W12
 BYTE   Cs2
 BYTE   W12
 BYTE   As2
 BYTE   W12
 BYTE   Ds2
 BYTE   W12
 BYTE   Gs2
 BYTE   W12
 BYTE   Cs2
 BYTE   W12
 BYTE   PEND 
//  #06 //004   ----------------------------------------
Label_0100A0EF:
 BYTE   N04  Ds2  v127
 BYTE   W12
 BYTE   Gs2
 BYTE   W12
 BYTE   As2
 BYTE   W12
 BYTE   Cs2
 BYTE   W12
 BYTE   Cs3
 BYTE   W12
 BYTE   Ds2
 BYTE   W12
 BYTE   Gs2
 BYTE   W12
 BYTE   As2
 BYTE   W12
 BYTE   PEND 
//  #06 //005   ----------------------------------------
 BYTE   PATT
  POIN2 Label_0100A0B6
//  #06 //006   ----------------------------------------
 BYTE   PATT
  POIN2 Label_0100A0C9
//  #06 //007   ----------------------------------------
 BYTE   PATT
  POIN2 Label_0100A0DC
//  #06 //008   ----------------------------------------
 BYTE   PATT
  POIN2 Label_0100A0EF
//  #06 //009   ----------------------------------------
 BYTE   PATT
  POIN2 Label_0100A0B6
//  #06 //010   ----------------------------------------
 BYTE   PATT
  POIN2 Label_0100A0C9
//  #06 //011   ----------------------------------------
 BYTE   PATT
  POIN2 Label_0100A0DC
//  #06 //012   ----------------------------------------
 BYTE   PATT
  POIN2 Label_0100A0EF
//  #06 //013   ----------------------------------------
 BYTE   PATT
  POIN2 Label_0100A0B6
//  #06 //014   ----------------------------------------
 BYTE   PATT
  POIN2 Label_0100A0C9
//  #06 //015   ----------------------------------------
 BYTE   PATT
  POIN2 Label_0100A0DC
//  #06 //016   ----------------------------------------
Label_0100A139:
 BYTE   W96
//  #06 //017   ----------------------------------------
 BYTE   W96
//  #06 //018   ----------------------------------------
 BYTE   W96
//  #06 //019   ----------------------------------------
 BYTE   W96
//  #06 //020   ----------------------------------------
 BYTE   W96
//  #06 //021   ----------------------------------------
 BYTE   W96
//  #06 //022   ----------------------------------------
 BYTE   W96
//  #06 //023   ----------------------------------------
 BYTE   W96
//  #06 //024   ----------------------------------------
 BYTE   W96
//  #06 //025   ----------------------------------------
 BYTE   W96
//  #06 //026   ----------------------------------------
 BYTE   W96
//  #06 //027   ----------------------------------------
 BYTE   W96
//  #06 //028   ----------------------------------------
 BYTE   W96
//  #06 //029   ----------------------------------------
 BYTE   W96
//  #06 //030   ----------------------------------------
 BYTE   W96
//  #06 //031   ----------------------------------------
 BYTE   W96
//  #06 //032   ----------------------------------------
 BYTE   W96
//  #06 //033   ----------------------------------------
 BYTE   W96
//  #06 //034   ----------------------------------------
 BYTE   W96
//  #06 //035   ----------------------------------------
 BYTE   W96
//  #06 //036   ----------------------------------------
 BYTE   W96
//  #06 //037   ----------------------------------------
 BYTE   W96
//  #06 //038   ----------------------------------------
 BYTE   W96
//  #06 //039   ----------------------------------------
 BYTE   W96
//  #06 //040   ----------------------------------------
 BYTE   PATT
  POIN2 Label_0100A0EF
//  #06 //041   ----------------------------------------
 BYTE   PATT
  POIN2 Label_0100A0B6
//  #06 //042   ----------------------------------------
 BYTE   PATT
  POIN2 Label_0100A0C9
//  #06 //043   ----------------------------------------
 BYTE   PATT
  POIN2 Label_0100A0DC
//  #06 //044   ----------------------------------------
 BYTE   PATT
  POIN2 Label_0100A0EF
//  #06 //045   ----------------------------------------
 BYTE   PATT
  POIN2 Label_0100A0B6
//  #06 //046   ----------------------------------------
 BYTE   PATT
  POIN2 Label_0100A0C9
//  #06 //047   ----------------------------------------
 BYTE   PATT
  POIN2 Label_0100A0DC
//  #06 //048   ----------------------------------------
 BYTE   PATT
  POIN2 Label_0100A0EF
//  #06 //049   ----------------------------------------
 BYTE   PATT
  POIN2 Label_0100A0B6
//  #06 //050   ----------------------------------------
 BYTE   PATT
  POIN2 Label_0100A0C9
//  #06 //051   ----------------------------------------
 BYTE   PATT
  POIN2 Label_0100A0DC
//  #06 //052   ----------------------------------------
 BYTE   PATT
  POIN2 Label_0100A0EF
//  #06 //053   ----------------------------------------
 BYTE   PATT
  POIN2 Label_0100A0B6
//  #06 //054   ----------------------------------------
 BYTE   PATT
  POIN2 Label_0100A0C9
//  #06 //055   ----------------------------------------
 BYTE   PATT
  POIN2 Label_0100A0DC
//  #06 //056   ----------------------------------------
 BYTE   GoTo
  POIN2 Label_0100A139
//  #06 //057   ----------------------------------------
 BYTE   W96
//  #06 //058   ----------------------------------------
 BYTE   W96
//  #06 //059   ----------------------------------------
 BYTE   W96
//  #06 //060   ----------------------------------------
 BYTE   W96
//  #06 //061   ----------------------------------------
 BYTE   W96
//  #06 //062   ----------------------------------------
 BYTE   W96
//  #06 //063   ----------------------------------------
 BYTE   W96
//  #06 //064   ----------------------------------------
 BYTE   W96
//  #06 //065   ----------------------------------------
 BYTE   W96
//  #06 //066   ----------------------------------------
 BYTE   W96
//  #06 //067   ----------------------------------------
 BYTE   W96
//  #06 //068   ----------------------------------------
 BYTE   W96
//  #06 //069   ----------------------------------------
 BYTE   W96
//  #06 //070   ----------------------------------------
 BYTE   W96
//  #06 //071   ----------------------------------------
 BYTE   W96
//  #06 //072   ----------------------------------------
 BYTE   W96
//  #06 //073   ----------------------------------------
 BYTE   W96
//  #06 //074   ----------------------------------------
 BYTE   W96
//  #06 //075   ----------------------------------------
 BYTE   W96
//  #06 //076   ----------------------------------------
 BYTE   W96
//  #06 //077   ----------------------------------------
 BYTE   W96
//  #06 //078   ----------------------------------------
 BYTE   W96
//  #06 //079   ----------------------------------------
 BYTE   W96
//  #06 //080   ----------------------------------------
 BYTE   W96
//  #06 //081   ----------------------------------------
 BYTE   PATT
  POIN2 Label_0100A0EF
//  #06 //082   ----------------------------------------
 BYTE   PATT
  POIN2 Label_0100A0B6
//  #06 //083   ----------------------------------------
 BYTE   PATT
  POIN2 Label_0100A0C9
//  #06 //084   ----------------------------------------
 BYTE   PATT
  POIN2 Label_0100A0DC
//  #06 //085   ----------------------------------------
 BYTE   PATT
  POIN2 Label_0100A0EF
//  #06 //086   ----------------------------------------
 BYTE   PATT
  POIN2 Label_0100A0B6
//  #06 //087   ----------------------------------------
 BYTE   PATT
  POIN2 Label_0100A0C9
//  #06 //088   ----------------------------------------
 BYTE   PATT
  POIN2 Label_0100A0DC
//  #06 //089   ----------------------------------------
 BYTE   PATT
  POIN2 Label_0100A0EF
//  #06 //090   ----------------------------------------
 BYTE   PATT
  POIN2 Label_0100A0B6
//  #06 //091   ----------------------------------------
 BYTE   PATT
  POIN2 Label_0100A0C9
//  #06 //092   ----------------------------------------
 BYTE   PATT
  POIN2 Label_0100A0DC
//  #06 //093   ----------------------------------------
 BYTE   PATT
  POIN2 Label_0100A0EF
//  #06 //094   ----------------------------------------
 BYTE   PATT
  POIN2 Label_0100A0B6
//  #06 //095   ----------------------------------------
 BYTE   PATT
  POIN2 Label_0100A0C9
//  #06 //096   ----------------------------------------
 BYTE   PATT
  POIN2 Label_0100A0DC
//  #06 //097   ----------------------------------------
 BYTE   W96
//  #06 //098   ----------------------------------------
 BYTE   W96
//  #06 //099   ----------------------------------------
 BYTE   W96
//  #06 //100   ----------------------------------------
 BYTE   W96
//  #06 //101   ----------------------------------------
 BYTE   W96
//  #06 //102   ----------------------------------------
 BYTE   W96
//  #06 //103   ----------------------------------------
 BYTE   W96
//  #06 //104   ----------------------------------------
 BYTE   W96
//  #06 //105   ----------------------------------------
 BYTE   W96
//  #06 //106   ----------------------------------------
 BYTE   W96
//  #06 //107   ----------------------------------------
 BYTE   W96
//  #06 //108   ----------------------------------------
 BYTE   W96
//  #06 //109   ----------------------------------------
 BYTE   W96
//  #06 //110   ----------------------------------------
 BYTE   W96
//  #06 //111   ----------------------------------------
 BYTE   W96
//  #06 //112   ----------------------------------------
 BYTE   W96
//  #06 //113   ----------------------------------------
 BYTE   W96
//  #06 //114   ----------------------------------------
 BYTE   W96
//  #06 //115   ----------------------------------------
 BYTE   W96
//  #06 //116   ----------------------------------------
 BYTE   W96
//  #06 //117   ----------------------------------------
 BYTE   W96
//  #06 //118   ----------------------------------------
 BYTE   W96
//  #06 //119   ----------------------------------------
 BYTE   W96
//  #06 //120   ----------------------------------------
 BYTE   W96
//  #06 //121   ----------------------------------------
 BYTE   W06
 BYTE   FINE

//**************** Track 7 (Midi-Chn.6) ****************//

AstroMan_007:
//  #07 //000   ----------------------------------------
 BYTE   KEYSH   AstroMan_key+0
 BYTE   VOICE   4
 BYTE   VOL   28*AstroMan_mvl/mxv
 BYTE   PAN   c_v+0
 BYTE   W96
//  #07 //001   ----------------------------------------
 BYTE   W96
//  #07 //002   ----------------------------------------
 BYTE   W96
//  #07 //003   ----------------------------------------
 BYTE   W96
//  #07 //004   ----------------------------------------
 BYTE   W96
//  #07 //005   ----------------------------------------
 BYTE   W96
//  #07 //006   ----------------------------------------
 BYTE   W96
//  #07 //007   ----------------------------------------
 BYTE   W96
//  #07 //008   ----------------------------------------
 BYTE   W96
//  #07 //009   ----------------------------------------
 BYTE   W96
//  #07 //010   ----------------------------------------
 BYTE   W96
//  #07 //011   ----------------------------------------
 BYTE   W96
//  #07 //012   ----------------------------------------
 BYTE   W96
//  #07 //013   ----------------------------------------
 BYTE   W96
//  #07 //014   ----------------------------------------
 BYTE   W96
//  #07 //015   ----------------------------------------
 BYTE   W96
//  #07 //016   ----------------------------------------
Label_0100A3FC:
 BYTE   N72  Fn3  v127
 BYTE   N72  Cs4
 BYTE   W72
 BYTE   N24  Fs3
 BYTE   N24  Ds4
 BYTE   W24
 BYTE   PEND 
//  #07 //017   ----------------------------------------
Label_0100A408:
 BYTE   TIE  Gs3  v127
 BYTE   TIE  Fn4
 BYTE   W96
 BYTE   PEND 
//  #07 //018   ----------------------------------------
 BYTE   W72
 BYTE   EOT
 BYTE   Gs3  v077
 BYTE   N24  An3
 BYTE   N24  Fs4
 BYTE   W24
//  #07 //019   ----------------------------------------
Label_0100A418:
 BYTE   N24  Bn3  v127
 BYTE   N24  Gs4
 BYTE   W24
 BYTE   Gs3
 BYTE   N24  Fn4
 BYTE   W24
 BYTE   Fn3
 BYTE   N24  Cs4
 BYTE   W24
 BYTE   Ds3
 BYTE   N24  An3
 BYTE   W24
 BYTE   PEND 
//  #07 //020   ----------------------------------------
Label_0100A42B:
 BYTE   N40  Cs3  v127
 BYTE   N40  Gs3
 BYTE   W40
 BYTE   N08  Bn2
 BYTE   N08  Fs3
 BYTE   W08
 BYTE   TIE  Cs3
 BYTE   TIE  Gs3
 BYTE   W48
 BYTE   PEND 
//  #07 //021   ----------------------------------------
 BYTE   W96
//  #07 //022   ----------------------------------------
 BYTE   W96
//  #07 //023   ----------------------------------------
 BYTE   EOT
 BYTE   Cs3  v068
Label_0100A441:
 BYTE   N48  Fs3  v127
 BYTE   N48  Cs4
 BYTE   W48
 BYTE   Gs3
 BYTE   N48  Ds4
 BYTE   W48
 BYTE   PEND 
//  #07 //024   ----------------------------------------
Label_0100A44C:
 BYTE   TIE  Fn3  v127
 BYTE   N40  Cn4
 BYTE   W40
 BYTE   N08  As3
 BYTE   W08
 BYTE   TIE  Cn4
 BYTE   W48
 BYTE   PEND 
//  #07 //025   ----------------------------------------
 BYTE   W96
//  #07 //026   ----------------------------------------
 BYTE   W96
//  #07 //027   ----------------------------------------
 BYTE   W96
//  #07 //028   ----------------------------------------
 BYTE   EOT
 BYTE   Fn3  v072
Label_0100A45F:
 BYTE   N72  As3  v127
 BYTE   N72  Cs4
 BYTE   N72  Fn4
 BYTE   W72
 BYTE   N24  Bn3
 BYTE   N24  Ds4
 BYTE   N24  Fs4
 BYTE   W24
 BYTE   PEND 
//  #07 //029   ----------------------------------------
Label_0100A46F:
 BYTE   TIE  Cs4  v127
 BYTE   TIE  Fn4
 BYTE   TIE  Gs4
 BYTE   W96
 BYTE   PEND 
//  #07 //030   ----------------------------------------
 BYTE   W72
 BYTE   EOT
 BYTE   Cs4  v077
 BYTE   Gs4
 BYTE   N24  Ds4
 BYTE   N24  Fs4
 BYTE   N24  An4
 BYTE   W24
//  #07 //031   ----------------------------------------
Label_0100A484:
 BYTE   N24  Fn4  v127
 BYTE   N24  Gs4
 BYTE   N24  Bn4
 BYTE   W24
 BYTE   Cs4
 BYTE   N24  Fn4
 BYTE   N24  Gs4
 BYTE   W24
 BYTE   As3
 BYTE   N24  Cs4
 BYTE   N24  Fn4
 BYTE   W24
 BYTE   Fs3
 BYTE   N24  An3
 BYTE   N24  Ds4
 BYTE   W24
 BYTE   PEND 
//  #07 //032   ----------------------------------------
Label_0100A49F:
 BYTE   N40  Fn3  v127
 BYTE   N40  Gs3
 BYTE   N40  Cs4
 BYTE   W40
 BYTE   N08  Ds3
 BYTE   N08  Fs3
 BYTE   N08  Bn3
 BYTE   W08
 BYTE   TIE  Fn3
 BYTE   TIE  Gs3
 BYTE   TIE  Cs4
 BYTE   W48
 BYTE   PEND 
//  #07 //033   ----------------------------------------
 BYTE   W96
//  #07 //034   ----------------------------------------
 BYTE   W96
//  #07 //035   ----------------------------------------
 BYTE   EOT
 BYTE   Fn3  v068
 BYTE   Cs4
Label_0100A4BC:
 BYTE   N48  Ds3  v127
 BYTE   N48  Fs3
 BYTE   N48  Cs4
 BYTE   W48
 BYTE   Fn3
 BYTE   N48  Gs3
 BYTE   N48  Ds4
 BYTE   W48
 BYTE   PEND 
//  #07 //036   ----------------------------------------
Label_0100A4CB:
 BYTE   N40  Fn3  v127
 BYTE   N40  An3
 BYTE   N40  Cn4
 BYTE   W40
 BYTE   N08  Ds3
 BYTE   N08  Fs3
 BYTE   N08  As3
 BYTE   W08
 BYTE   N88  Fn3
 BYTE   N88  An3
 BYTE   N88  Cn4
 BYTE   W48
 BYTE   PEND 
//  #07 //037   ----------------------------------------
Label_0100A4E2:
 BYTE   W40
 BYTE   N08  Ds3  v127
 BYTE   N08  Fs3
 BYTE   N08  As3
 BYTE   W08
 BYTE   N16  Fn3
 BYTE   N48  An3
 BYTE   N16  Cn4
 BYTE   W16
 BYTE   N08  Fn4
 BYTE   W08
 BYTE   N16  Fn3
 BYTE   N16  Cn4
 BYTE   W16
 BYTE   N08  Ds3
 BYTE   W08
 BYTE   PEND 
//  #07 //038   ----------------------------------------
Label_0100A4FE:
 BYTE   N96  Fn3  v127
 BYTE   N96  As3
 BYTE   N96  Cs4
 BYTE   W96
 BYTE   PEND 
//  #07 //039   ----------------------------------------
Label_0100A507:
 BYTE   N96  Fs3  v127
 BYTE   N96  As3
 BYTE   N96  Ds4
 BYTE   W96
 BYTE   PEND 
//  #07 //040   ----------------------------------------
 BYTE   W96
//  #07 //041   ----------------------------------------
 BYTE   W96
//  #07 //042   ----------------------------------------
 BYTE   W96
//  #07 //043   ----------------------------------------
 BYTE   W96
//  #07 //044   ----------------------------------------
 BYTE   W96
//  #07 //045   ----------------------------------------
 BYTE   W96
//  #07 //046   ----------------------------------------
 BYTE   W96
//  #07 //047   ----------------------------------------
 BYTE   W96
//  #07 //048   ----------------------------------------
 BYTE   W96
//  #07 //049   ----------------------------------------
 BYTE   W96
//  #07 //050   ----------------------------------------
 BYTE   W96
//  #07 //051   ----------------------------------------
 BYTE   W96
//  #07 //052   ----------------------------------------
 BYTE   W96
//  #07 //053   ----------------------------------------
 BYTE   W96
//  #07 //054   ----------------------------------------
 BYTE   W96
//  #07 //055   ----------------------------------------
 BYTE   W96
//  #07 //056   ----------------------------------------
 BYTE   GoTo
  POIN2 Label_0100A3FC
//  #07 //057   ----------------------------------------
 BYTE   PATT
  POIN2 Label_0100A3FC
//  #07 //058   ----------------------------------------
 BYTE   PATT
  POIN2 Label_0100A408
//  #07 //059   ----------------------------------------
 BYTE   W72
 BYTE   EOT
 BYTE   Gs3  v077
 BYTE   N24  An3  v127
 BYTE   N24  Fs4
 BYTE   W24
//  #07 //060   ----------------------------------------
 BYTE   PATT
  POIN2 Label_0100A418
//  #07 //061   ----------------------------------------
 BYTE   PATT
  POIN2 Label_0100A42B
//  #07 //062   ----------------------------------------
 BYTE   W96
//  #07 //063   ----------------------------------------
 BYTE   W96
//  #07 //064   ----------------------------------------
 BYTE   EOT
 BYTE   Cs3  v068
//  #07 //065   ----------------------------------------
 BYTE   PATT
  POIN2 Label_0100A441
//  #07 //066   ----------------------------------------
 BYTE   PATT
  POIN2 Label_0100A44C
//  #07 //067   ----------------------------------------
 BYTE   W96
//  #07 //068   ----------------------------------------
 BYTE   W96
//  #07 //069   ----------------------------------------
 BYTE   W96
//  #07 //070   ----------------------------------------
 BYTE   EOT
 BYTE   Fn3  v072
//  #07 //071   ----------------------------------------
 BYTE   PATT
  POIN2 Label_0100A45F
//  #07 //072   ----------------------------------------
 BYTE   PATT
  POIN2 Label_0100A46F
//  #07 //073   ----------------------------------------
 BYTE   W72
 BYTE   EOT
 BYTE   Cs4  v077
 BYTE   Gs4
 BYTE   N24  Ds4  v127
 BYTE   N24  Fs4
 BYTE   N24  An4
 BYTE   W24
//  #07 //074   ----------------------------------------
 BYTE   PATT
  POIN2 Label_0100A484
//  #07 //075   ----------------------------------------
 BYTE   PATT
  POIN2 Label_0100A49F
//  #07 //076   ----------------------------------------
 BYTE   W96
//  #07 //077   ----------------------------------------
 BYTE   W96
//  #07 //078   ----------------------------------------
 BYTE   EOT
 BYTE   Fn3  v068
 BYTE   Cs4
//  #07 //079   ----------------------------------------
 BYTE   PATT
  POIN2 Label_0100A4BC
//  #07 //080   ----------------------------------------
 BYTE   PATT
  POIN2 Label_0100A4CB
//  #07 //081   ----------------------------------------
 BYTE   PATT
  POIN2 Label_0100A4E2
//  #07 //082   ----------------------------------------
 BYTE   PATT
  POIN2 Label_0100A4FE
//  #07 //083   ----------------------------------------
 BYTE   PATT
  POIN2 Label_0100A507
//  #07 //084   ----------------------------------------
 BYTE   W96
//  #07 //085   ----------------------------------------
 BYTE   W96
//  #07 //086   ----------------------------------------
 BYTE   W96
//  #07 //087   ----------------------------------------
 BYTE   W96
//  #07 //088   ----------------------------------------
 BYTE   W96
//  #07 //089   ----------------------------------------
 BYTE   W96
//  #07 //090   ----------------------------------------
 BYTE   W96
//  #07 //091   ----------------------------------------
 BYTE   W96
//  #07 //092   ----------------------------------------
 BYTE   W96
//  #07 //093   ----------------------------------------
 BYTE   W96
//  #07 //094   ----------------------------------------
 BYTE   W96
//  #07 //095   ----------------------------------------
 BYTE   W96
//  #07 //096   ----------------------------------------
 BYTE   W96
//  #07 //097   ----------------------------------------
 BYTE   W96
//  #07 //098   ----------------------------------------
 BYTE   W96
//  #07 //099   ----------------------------------------
 BYTE   W96
//  #07 //100   ----------------------------------------
 BYTE   PATT
  POIN2 Label_0100A3FC
//  #07 //101   ----------------------------------------
 BYTE   PATT
  POIN2 Label_0100A408
//  #07 //102   ----------------------------------------
 BYTE   W72
 BYTE   EOT
 BYTE   Gs3  v077
 BYTE   N24  An3  v127
 BYTE   N24  Fs4
 BYTE   W24
//  #07 //103   ----------------------------------------
 BYTE   PATT
  POIN2 Label_0100A418
//  #07 //104   ----------------------------------------
 BYTE   PATT
  POIN2 Label_0100A42B
//  #07 //105   ----------------------------------------
 BYTE   W96
//  #07 //106   ----------------------------------------
 BYTE   W96
//  #07 //107   ----------------------------------------
 BYTE   EOT
 BYTE   Cs3  v068
//  #07 //108   ----------------------------------------
 BYTE   PATT
  POIN2 Label_0100A441
//  #07 //109   ----------------------------------------
 BYTE   PATT
  POIN2 Label_0100A44C
//  #07 //110   ----------------------------------------
 BYTE   W96
//  #07 //111   ----------------------------------------
 BYTE   W96
//  #07 //112   ----------------------------------------
 BYTE   W96
//  #07 //113   ----------------------------------------
 BYTE   EOT
 BYTE   Fn3  v072
//  #07 //114   ----------------------------------------
 BYTE   PATT
  POIN2 Label_0100A45F
//  #07 //115   ----------------------------------------
 BYTE   PATT
  POIN2 Label_0100A46F
//  #07 //116   ----------------------------------------
 BYTE   W72
 BYTE   EOT
 BYTE   Cs4  v077
 BYTE   Gs4
 BYTE   N24  Ds4  v127
 BYTE   N24  Fs4
 BYTE   N24  An4
 BYTE   W24
//  #07 //117   ----------------------------------------
 BYTE   PATT
  POIN2 Label_0100A484
//  #07 //118   ----------------------------------------
 BYTE   PATT
  POIN2 Label_0100A49F
//  #07 //119   ----------------------------------------
 BYTE   W96
//  #07 //120   ----------------------------------------
 BYTE   W96
//  #07 //121   ----------------------------------------
 BYTE   EOT
 BYTE   Fn3  v068
 BYTE   Cs4
//  #07 //122   ----------------------------------------
 BYTE   PATT
  POIN2 Label_0100A4BC
//  #07 //123   ----------------------------------------
 BYTE   PATT
  POIN2 Label_0100A4CB
//  #07 //124   ----------------------------------------
 BYTE   PATT
  POIN2 Label_0100A4E2
//  #07 //125   ----------------------------------------
 BYTE   PATT
  POIN2 Label_0100A4FE
//  #07 //126   ----------------------------------------
 BYTE   PATT
  POIN2 Label_0100A507
//  #07 //127   ----------------------------------------
 BYTE   W06
 BYTE   FINE

//**************** Track 8 (Midi-Chn.7) ****************//

AstroMan_008:
//  #08 //000   ----------------------------------------
 BYTE   KEYSH   AstroMan_key+0
 BYTE   VOICE   85
 BYTE   VOL   14*AstroMan_mvl/mxv
 BYTE   PAN   c_v+46
 BYTE   W96
//  #08 //001   ----------------------------------------
 BYTE   W96
//  #08 //002   ----------------------------------------
 BYTE   W96
//  #08 //003   ----------------------------------------
 BYTE   W96
//  #08 //004   ----------------------------------------
 BYTE   W96
//  #08 //005   ----------------------------------------
 BYTE   W96
//  #08 //006   ----------------------------------------
 BYTE   W96
//  #08 //007   ----------------------------------------
 BYTE   W96
//  #08 //008   ----------------------------------------
 BYTE   W96
//  #08 //009   ----------------------------------------
 BYTE   W96
//  #08 //010   ----------------------------------------
 BYTE   W96
//  #08 //011   ----------------------------------------
 BYTE   W96
//  #08 //012   ----------------------------------------
 BYTE   W96
//  #08 //013   ----------------------------------------
 BYTE   W96
//  #08 //014   ----------------------------------------
 BYTE   W96
//  #08 //015   ----------------------------------------
 BYTE   W96
//  #08 //016   ----------------------------------------
Label_0100ACF8:
 BYTE   W96
//  #08 //017   ----------------------------------------
 BYTE   W96
//  #08 //018   ----------------------------------------
 BYTE   W96
//  #08 //019   ----------------------------------------
 BYTE   W96
//  #08 //020   ----------------------------------------
 BYTE   W96
//  #08 //021   ----------------------------------------
Label_0100ACFD:
 BYTE   N40  Gs3  v127
 BYTE   W40
 BYTE   N08  Fs3
 BYTE   W08
 BYTE   N12  Gs3
 BYTE   W16
 BYTE   N08  Cs4
 BYTE   W08
 BYTE   N12  Gs3
 BYTE   W16
 BYTE   N08  Fs3
 BYTE   W08
 BYTE   PEND 
//  #08 //022   ----------------------------------------
 BYTE   N96  Gs3
 BYTE   W96
//  #08 //023   ----------------------------------------
Label_0100AD14:
 BYTE   N48  Fs3  v127
 BYTE   W48
 BYTE   Gs3
 BYTE   W48
 BYTE   PEND 
//  #08 //024   ----------------------------------------
Label_0100AD1B:
 BYTE   N40  Fn3  v127
 BYTE   W40
 BYTE   N08  Ds3
 BYTE   W08
 BYTE   N88  Fn3
 BYTE   W48
 BYTE   PEND 
//  #08 //025   ----------------------------------------
Label_0100AD26:
 BYTE   W40
 BYTE   N08  Ds3  v127
 BYTE   W08
 BYTE   N12  Fn3
 BYTE   W16
 BYTE   N08  As3
 BYTE   W08
 BYTE   N12  Fn3
 BYTE   W16
 BYTE   N08  Ds3
 BYTE   W08
 BYTE   PEND 
//  #08 //026   ----------------------------------------
 BYTE   N96  Fn3
 BYTE   W96
//  #08 //027   ----------------------------------------
Label_0100AD3B:
 BYTE   N48  Fn3  v127
 BYTE   W48
 BYTE   Gs3
 BYTE   W48
 BYTE   PEND 
//  #08 //028   ----------------------------------------
Label_0100AD42:
 BYTE   N72  As3  v127
 BYTE   W72
 BYTE   N24  Bn3
 BYTE   W24
 BYTE   PEND 
//  #08 //029   ----------------------------------------
 BYTE   TIE  Cs4
 BYTE   W96
//  #08 //030   ----------------------------------------
 BYTE   W72
 BYTE   EOT
 BYTE   N24  Ds4
 BYTE   W24
//  #08 //031   ----------------------------------------
Label_0100AD52:
 BYTE   N24  Fn4  v127
 BYTE   W24
 BYTE   Cs4
 BYTE   W24
 BYTE   As3
 BYTE   W24
 BYTE   An3
 BYTE   W24
 BYTE   PEND 
//  #08 //032   ----------------------------------------
Label_0100AD5D:
 BYTE   N40  Gs3  v127
 BYTE   W40
 BYTE   N08  Fs3
 BYTE   W08
 BYTE   N48  Gs3
 BYTE   W48
 BYTE   PEND 
//  #08 //033   ----------------------------------------
Label_0100AD68:
 BYTE   N40  Gs3  v127
 BYTE   W40
 BYTE   N08  Fs3
 BYTE   W08
 BYTE   N16  Gs3
 BYTE   W16
 BYTE   N08  Cs4
 BYTE   W08
 BYTE   N16  Gs3
 BYTE   W16
 BYTE   N08  Fs3
 BYTE   W08
 BYTE   PEND 
//  #08 //034   ----------------------------------------
 BYTE   N96  Gs3
 BYTE   W96
//  #08 //035   ----------------------------------------
 BYTE   PATT
  POIN2 Label_0100AD14
//  #08 //036   ----------------------------------------
Label_0100AD84:
 BYTE   N40  Fn3  v127
 BYTE   W40
 BYTE   N08  Ds3
 BYTE   W08
 BYTE   N48  Fn3
 BYTE   W48
 BYTE   PEND 
//  #08 //037   ----------------------------------------
Label_0100AD8F:
 BYTE   N40  Fn3  v127
 BYTE   W40
 BYTE   N08  Ds3
 BYTE   W08
 BYTE   N12  Fn3
 BYTE   W16
 BYTE   N08  As3
 BYTE   W08
 BYTE   N12  Fn3
 BYTE   W16
 BYTE   N08  Ds3
 BYTE   W08
 BYTE   PEND 
//  #08 //038   ----------------------------------------
 BYTE   N96  Fn3
 BYTE   W96
//  #08 //039   ----------------------------------------
 BYTE   PATT
  POIN2 Label_0100AD14
//  #08 //040   ----------------------------------------
 BYTE   W96
//  #08 //041   ----------------------------------------
 BYTE   W96
//  #08 //042   ----------------------------------------
 BYTE   W96
//  #08 //043   ----------------------------------------
 BYTE   W96
//  #08 //044   ----------------------------------------
 BYTE   W96
//  #08 //045   ----------------------------------------
 BYTE   W96
//  #08 //046   ----------------------------------------
 BYTE   W96
//  #08 //047   ----------------------------------------
 BYTE   W96
//  #08 //048   ----------------------------------------
 BYTE   W96
//  #08 //049   ----------------------------------------
 BYTE   W96
//  #08 //050   ----------------------------------------
 BYTE   W96
//  #08 //051   ----------------------------------------
 BYTE   W96
//  #08 //052   ----------------------------------------
 BYTE   W96
//  #08 //053   ----------------------------------------
 BYTE   W96
//  #08 //054   ----------------------------------------
 BYTE   W96
//  #08 //055   ----------------------------------------
 BYTE   W96
//  #08 //056   ----------------------------------------
 BYTE   GoTo
  POIN2 Label_0100ACF8
//  #08 //057   ----------------------------------------
 BYTE   W96
//  #08 //058   ----------------------------------------
 BYTE   W96
//  #08 //059   ----------------------------------------
 BYTE   W96
//  #08 //060   ----------------------------------------
 BYTE   W96
//  #08 //061   ----------------------------------------
 BYTE   W96
//  #08 //062   ----------------------------------------
 BYTE   PATT
  POIN2 Label_0100ACFD
//  #08 //063   ----------------------------------------
 BYTE   N96  Gs3  v127
 BYTE   W96
//  #08 //064   ----------------------------------------
 BYTE   PATT
  POIN2 Label_0100AD14
//  #08 //065   ----------------------------------------
 BYTE   PATT
  POIN2 Label_0100AD1B
//  #08 //066   ----------------------------------------
 BYTE   PATT
  POIN2 Label_0100AD26
//  #08 //067   ----------------------------------------
 BYTE   N96  Fn3  v127
 BYTE   W96
//  #08 //068   ----------------------------------------
 BYTE   PATT
  POIN2 Label_0100AD3B
//  #08 //069   ----------------------------------------
 BYTE   PATT
  POIN2 Label_0100AD42
//  #08 //070   ----------------------------------------
 BYTE   TIE  Cs4  v127
 BYTE   W96
//  #08 //071   ----------------------------------------
 BYTE   W72
 BYTE   EOT
 BYTE   N24  Ds4
 BYTE   W24
//  #08 //072   ----------------------------------------
 BYTE   PATT
  POIN2 Label_0100AD52
//  #08 //073   ----------------------------------------
 BYTE   PATT
  POIN2 Label_0100AD5D
//  #08 //074   ----------------------------------------
 BYTE   PATT
  POIN2 Label_0100AD68
//  #08 //075   ----------------------------------------
 BYTE   N96  Gs3  v127
 BYTE   W96
//  #08 //076   ----------------------------------------
 BYTE   PATT
  POIN2 Label_0100AD14
//  #08 //077   ----------------------------------------
 BYTE   PATT
  POIN2 Label_0100AD84
//  #08 //078   ----------------------------------------
 BYTE   PATT
  POIN2 Label_0100AD8F
//  #08 //079   ----------------------------------------
 BYTE   N96  Fn3  v127
 BYTE   W96
//  #08 //080   ----------------------------------------
 BYTE   PATT
  POIN2 Label_0100AD14
//  #08 //081   ----------------------------------------
 BYTE   W96
//  #08 //082   ----------------------------------------
 BYTE   W96
//  #08 //083   ----------------------------------------
 BYTE   W96
//  #08 //084   ----------------------------------------
 BYTE   W96
//  #08 //085   ----------------------------------------
 BYTE   W96
//  #08 //086   ----------------------------------------
 BYTE   W96
//  #08 //087   ----------------------------------------
 BYTE   W96
//  #08 //088   ----------------------------------------
 BYTE   W96
//  #08 //089   ----------------------------------------
 BYTE   W96
//  #08 //090   ----------------------------------------
 BYTE   W96
//  #08 //091   ----------------------------------------
 BYTE   W96
//  #08 //092   ----------------------------------------
 BYTE   W96
//  #08 //093   ----------------------------------------
 BYTE   W96
//  #08 //094   ----------------------------------------
 BYTE   W96
//  #08 //095   ----------------------------------------
 BYTE   W96
//  #08 //096   ----------------------------------------
 BYTE   W96
//  #08 //097   ----------------------------------------
 BYTE   W96
//  #08 //098   ----------------------------------------
 BYTE   W96
//  #08 //099   ----------------------------------------
 BYTE   W96
//  #08 //100   ----------------------------------------
 BYTE   W96
//  #08 //101   ----------------------------------------
 BYTE   W96
//  #08 //102   ----------------------------------------
 BYTE   PATT
  POIN2 Label_0100ACFD
//  #08 //103   ----------------------------------------
 BYTE   N96  Gs3  v127
 BYTE   W96
//  #08 //104   ----------------------------------------
 BYTE   PATT
  POIN2 Label_0100AD14
//  #08 //105   ----------------------------------------
 BYTE   PATT
  POIN2 Label_0100AD1B
//  #08 //106   ----------------------------------------
 BYTE   PATT
  POIN2 Label_0100AD26
//  #08 //107   ----------------------------------------
 BYTE   N96  Fn3  v127
 BYTE   W96
//  #08 //108   ----------------------------------------
 BYTE   PATT
  POIN2 Label_0100AD3B
//  #08 //109   ----------------------------------------
 BYTE   PATT
  POIN2 Label_0100AD42
//  #08 //110   ----------------------------------------
 BYTE   TIE  Cs4  v127
 BYTE   W96
//  #08 //111   ----------------------------------------
 BYTE   W72
 BYTE   EOT
 BYTE   N24  Ds4
 BYTE   W24
//  #08 //112   ----------------------------------------
 BYTE   PATT
  POIN2 Label_0100AD52
//  #08 //113   ----------------------------------------
 BYTE   PATT
  POIN2 Label_0100AD5D
//  #08 //114   ----------------------------------------
 BYTE   PATT
  POIN2 Label_0100AD68
//  #08 //115   ----------------------------------------
 BYTE   N96  Gs3  v127
 BYTE   W96
//  #08 //116   ----------------------------------------
 BYTE   PATT
  POIN2 Label_0100AD14
//  #08 //117   ----------------------------------------
 BYTE   PATT
  POIN2 Label_0100AD84
//  #08 //118   ----------------------------------------
 BYTE   PATT
  POIN2 Label_0100AD8F
//  #08 //119   ----------------------------------------
 BYTE   N96  Fn3  v127
 BYTE   W96
//  #08 //120   ----------------------------------------
 BYTE   PATT
  POIN2 Label_0100AD14
//  #08 //121   ----------------------------------------
 BYTE   W06
 BYTE   FINE

//**************** Track 9 (Midi-Chn.8) ****************//

AstroMan_009:
//  #09 //000   ----------------------------------------
 BYTE   KEYSH   AstroMan_key+0
 BYTE   VOICE   85
 BYTE   VOL   14*AstroMan_mvl/mxv
 BYTE   PAN   c_v-44
 BYTE   W96
//  #09 //001   ----------------------------------------
 BYTE   W96
//  #09 //002   ----------------------------------------
 BYTE   W96
//  #09 //003   ----------------------------------------
 BYTE   W96
//  #09 //004   ----------------------------------------
 BYTE   W96
//  #09 //005   ----------------------------------------
 BYTE   W96
//  #09 //006   ----------------------------------------
 BYTE   W96
//  #09 //007   ----------------------------------------
 BYTE   W96
//  #09 //008   ----------------------------------------
 BYTE   W96
//  #09 //009   ----------------------------------------
 BYTE   W96
//  #09 //010   ----------------------------------------
 BYTE   W96
//  #09 //011   ----------------------------------------
 BYTE   W96
//  #09 //012   ----------------------------------------
 BYTE   W96
//  #09 //013   ----------------------------------------
 BYTE   W96
//  #09 //014   ----------------------------------------
 BYTE   W96
//  #09 //015   ----------------------------------------
 BYTE   W96
//  #09 //016   ----------------------------------------
Label_0100B894:
 BYTE   W96
//  #09 //017   ----------------------------------------
 BYTE   W96
//  #09 //018   ----------------------------------------
 BYTE   W96
//  #09 //019   ----------------------------------------
 BYTE   W96
//  #09 //020   ----------------------------------------
 BYTE   W96
//  #09 //021   ----------------------------------------
Label_0100B899:
 BYTE   W02
 BYTE   N40  Gs3  v127
 BYTE   W40
 BYTE   N08  Fs3
 BYTE   W08
 BYTE   N12  Gs3
 BYTE   W16
 BYTE   N08  Cs4
 BYTE   W08
 BYTE   N12  Gs3
 BYTE   W16
 BYTE   N08  Fs3
 BYTE   W06
 BYTE   PEND 
//  #09 //022   ----------------------------------------
Label_0100B8AE:
 BYTE   W02
 BYTE   N96  Gs3  v127
 BYTE   W92
 BYTE   W02
 BYTE   PEND 
//  #09 //023   ----------------------------------------
Label_0100B8B5:
 BYTE   W02
 BYTE   N48  Fs3  v127
 BYTE   W48
 BYTE   Gs3
 BYTE   W44
 BYTE   W02
 BYTE   PEND 
//  #09 //024   ----------------------------------------
Label_0100B8BE:
 BYTE   W02
 BYTE   N40  Fn3  v127
 BYTE   W40
 BYTE   N08  Ds3
 BYTE   W08
 BYTE   N88  Fn3
 BYTE   W44
 BYTE   W02
 BYTE   PEND 
//  #09 //025   ----------------------------------------
Label_0100B8CB:
 BYTE   W42
 BYTE   N08  Ds3  v127
 BYTE   W08
 BYTE   N12  Fn3
 BYTE   W16
 BYTE   N08  As3
 BYTE   W08
 BYTE   N12  Fn3
 BYTE   W16
 BYTE   N08  Ds3
 BYTE   W06
 BYTE   PEND 
//  #09 //026   ----------------------------------------
Label_0100B8DD:
 BYTE   W02
 BYTE   N96  Fn3  v127
 BYTE   W92
 BYTE   W02
 BYTE   PEND 
//  #09 //027   ----------------------------------------
Label_0100B8E4:
 BYTE   W02
 BYTE   N48  Fn3  v127
 BYTE   W48
 BYTE   Gs3
 BYTE   W44
 BYTE   W02
 BYTE   PEND 
//  #09 //028   ----------------------------------------
Label_0100B8ED:
 BYTE   W02
 BYTE   N72  As3  v127
 BYTE   W72
 BYTE   N24  Bn3
 BYTE   W22
 BYTE   PEND 
//  #09 //029   ----------------------------------------
Label_0100B8F6:
 BYTE   W02
 BYTE   TIE  Cs4  v127
 BYTE   W92
 BYTE   W02
 BYTE   PEND 
//  #09 //030   ----------------------------------------
 BYTE   W72
 BYTE   W02
 BYTE   EOT
 BYTE   N24  Ds4
 BYTE   W22
//  #09 //031   ----------------------------------------
Label_0100B903:
 BYTE   W02
 BYTE   N24  Fn4  v127
 BYTE   W24
 BYTE   Cs4
 BYTE   W24
 BYTE   As3
 BYTE   W24
 BYTE   An3
 BYTE   W22
 BYTE   PEND 
//  #09 //032   ----------------------------------------
Label_0100B90F:
 BYTE   W02
 BYTE   N40  Gs3  v127
 BYTE   W40
 BYTE   N08  Fs3
 BYTE   W08
 BYTE   N48  Gs3
 BYTE   W44
 BYTE   W02
 BYTE   PEND 
//  #09 //033   ----------------------------------------
Label_0100B91C:
 BYTE   W02
 BYTE   N40  Gs3  v127
 BYTE   W40
 BYTE   N08  Fs3
 BYTE   W08
 BYTE   N16  Gs3
 BYTE   W16
 BYTE   N08  Cs4
 BYTE   W08
 BYTE   N16  Gs3
 BYTE   W16
 BYTE   N08  Fs3
 BYTE   W06
 BYTE   PEND 
//  #09 //034   ----------------------------------------
 BYTE   PATT
  POIN2 Label_0100B8AE
//  #09 //035   ----------------------------------------
 BYTE   PATT
  POIN2 Label_0100B8B5
//  #09 //036   ----------------------------------------
Label_0100B93B:
 BYTE   W02
 BYTE   N40  Fn3  v127
 BYTE   W40
 BYTE   N08  Ds3
 BYTE   W08
 BYTE   N48  Fn3
 BYTE   W44
 BYTE   W02
 BYTE   PEND 
//  #09 //037   ----------------------------------------
Label_0100B948:
 BYTE   W02
 BYTE   N40  Fn3  v127
 BYTE   W40
 BYTE   N08  Ds3
 BYTE   W08
 BYTE   N12  Fn3
 BYTE   W16
 BYTE   N08  As3
 BYTE   W08
 BYTE   N12  Fn3
 BYTE   W16
 BYTE   N08  Ds3
 BYTE   W06
 BYTE   PEND 
//  #09 //038   ----------------------------------------
 BYTE   PATT
  POIN2 Label_0100B8DD
//  #09 //039   ----------------------------------------
 BYTE   PATT
  POIN2 Label_0100B8B5
//  #09 //040   ----------------------------------------
 BYTE   W96
//  #09 //041   ----------------------------------------
 BYTE   W96
//  #09 //042   ----------------------------------------
 BYTE   W96
//  #09 //043   ----------------------------------------
 BYTE   W96
//  #09 //044   ----------------------------------------
 BYTE   W96
//  #09 //045   ----------------------------------------
 BYTE   W96
//  #09 //046   ----------------------------------------
 BYTE   W96
//  #09 //047   ----------------------------------------
 BYTE   W96
//  #09 //048   ----------------------------------------
 BYTE   W96
//  #09 //049   ----------------------------------------
 BYTE   W96
//  #09 //050   ----------------------------------------
 BYTE   W96
//  #09 //051   ----------------------------------------
 BYTE   W96
//  #09 //052   ----------------------------------------
 BYTE   W96
//  #09 //053   ----------------------------------------
 BYTE   W96
//  #09 //054   ----------------------------------------
 BYTE   W96
//  #09 //055   ----------------------------------------
 BYTE   W96
//  #09 //056   ----------------------------------------
 BYTE   GoTo
  POIN2 Label_0100B894
//  #09 //057   ----------------------------------------
 BYTE   W96
//  #09 //058   ----------------------------------------
 BYTE   W96
//  #09 //059   ----------------------------------------
 BYTE   W96
//  #09 //060   ----------------------------------------
 BYTE   W96
//  #09 //061   ----------------------------------------
 BYTE   W96
//  #09 //062   ----------------------------------------
 BYTE   PATT
  POIN2 Label_0100B899
//  #09 //063   ----------------------------------------
 BYTE   PATT
  POIN2 Label_0100B8AE
//  #09 //064   ----------------------------------------
 BYTE   PATT
  POIN2 Label_0100B8B5
//  #09 //065   ----------------------------------------
 BYTE   PATT
  POIN2 Label_0100B8BE
//  #09 //066   ----------------------------------------
 BYTE   PATT
  POIN2 Label_0100B8CB
//  #09 //067   ----------------------------------------
 BYTE   PATT
  POIN2 Label_0100B8DD
//  #09 //068   ----------------------------------------
 BYTE   PATT
  POIN2 Label_0100B8E4
//  #09 //069   ----------------------------------------
 BYTE   PATT
  POIN2 Label_0100B8ED
//  #09 //070   ----------------------------------------
 BYTE   PATT
  POIN2 Label_0100B8F6
//  #09 //071   ----------------------------------------
 BYTE   W72
 BYTE   W02
 BYTE   EOT
 BYTE   Cs4
 BYTE   N24  Ds4  v127
 BYTE   W22
//  #09 //072   ----------------------------------------
 BYTE   PATT
  POIN2 Label_0100B903
//  #09 //073   ----------------------------------------
 BYTE   PATT
  POIN2 Label_0100B90F
//  #09 //074   ----------------------------------------
 BYTE   PATT
  POIN2 Label_0100B91C
//  #09 //075   ----------------------------------------
 BYTE   PATT
  POIN2 Label_0100B8AE
//  #09 //076   ----------------------------------------
 BYTE   PATT
  POIN2 Label_0100B8B5
//  #09 //077   ----------------------------------------
 BYTE   PATT
  POIN2 Label_0100B93B
//  #09 //078   ----------------------------------------
 BYTE   PATT
  POIN2 Label_0100B948
//  #09 //079   ----------------------------------------
 BYTE   PATT
  POIN2 Label_0100B8DD
//  #09 //080   ----------------------------------------
 BYTE   PATT
  POIN2 Label_0100B8B5
//  #09 //081   ----------------------------------------
 BYTE   W96
//  #09 //082   ----------------------------------------
 BYTE   W96
//  #09 //083   ----------------------------------------
 BYTE   W96
//  #09 //084   ----------------------------------------
 BYTE   W96
//  #09 //085   ----------------------------------------
 BYTE   W96
//  #09 //086   ----------------------------------------
 BYTE   W96
//  #09 //087   ----------------------------------------
 BYTE   W96
//  #09 //088   ----------------------------------------
 BYTE   W96
//  #09 //089   ----------------------------------------
 BYTE   W96
//  #09 //090   ----------------------------------------
 BYTE   W96
//  #09 //091   ----------------------------------------
 BYTE   W96
//  #09 //092   ----------------------------------------
 BYTE   W96
//  #09 //093   ----------------------------------------
 BYTE   W96
//  #09 //094   ----------------------------------------
 BYTE   W96
//  #09 //095   ----------------------------------------
 BYTE   W96
//  #09 //096   ----------------------------------------
 BYTE   W96
//  #09 //097   ----------------------------------------
 BYTE   W96
//  #09 //098   ----------------------------------------
 BYTE   W96
//  #09 //099   ----------------------------------------
 BYTE   W96
//  #09 //100   ----------------------------------------
 BYTE   W96
//  #09 //101   ----------------------------------------
 BYTE   W96
//  #09 //102   ----------------------------------------
 BYTE   PATT
  POIN2 Label_0100B899
//  #09 //103   ----------------------------------------
 BYTE   PATT
  POIN2 Label_0100B8AE
//  #09 //104   ----------------------------------------
 BYTE   PATT
  POIN2 Label_0100B8B5
//  #09 //105   ----------------------------------------
 BYTE   PATT
  POIN2 Label_0100B8BE
//  #09 //106   ----------------------------------------
 BYTE   PATT
  POIN2 Label_0100B8CB
//  #09 //107   ----------------------------------------
 BYTE   PATT
  POIN2 Label_0100B8DD
//  #09 //108   ----------------------------------------
 BYTE   PATT
  POIN2 Label_0100B8E4
//  #09 //109   ----------------------------------------
 BYTE   PATT
  POIN2 Label_0100B8ED
//  #09 //110   ----------------------------------------
 BYTE   PATT
  POIN2 Label_0100B8F6
//  #09 //111   ----------------------------------------
 BYTE   W72
 BYTE   W02
 BYTE   EOT
 BYTE   Cs4
 BYTE   N24  Ds4  v127
 BYTE   W22
//  #09 //112   ----------------------------------------
 BYTE   PATT
  POIN2 Label_0100B903
//  #09 //113   ----------------------------------------
 BYTE   PATT
  POIN2 Label_0100B90F
//  #09 //114   ----------------------------------------
 BYTE   PATT
  POIN2 Label_0100B91C
//  #09 //115   ----------------------------------------
 BYTE   PATT
  POIN2 Label_0100B8AE
//  #09 //116   ----------------------------------------
 BYTE   PATT
  POIN2 Label_0100B8B5
//  #09 //117   ----------------------------------------
 BYTE   PATT
  POIN2 Label_0100B93B
//  #09 //118   ----------------------------------------
 BYTE   PATT
  POIN2 Label_0100B948
//  #09 //119   ----------------------------------------
 BYTE   PATT
  POIN2 Label_0100B8DD
//  #09 //120   ----------------------------------------
 BYTE   PATT
  POIN2 Label_0100B8B5
//  #09 //121   ----------------------------------------
 BYTE   W06
 BYTE   FINE

//**************** Track 10 (Midi-Chn.9) ****************//

AstroMan_010:
//  #10 //000   ----------------------------------------
 BYTE   KEYSH   AstroMan_key+0
 BYTE   VOICE   127
 BYTE   VOL   35*AstroMan_mvl/mxv
 BYTE   PAN   c_v+0
 BYTE   N06  Cn1  v127
 BYTE   N06  Cn1
 BYTE   N06  Fs1  v092
 BYTE   N06  Cs2  v127
 BYTE   W12
 BYTE   Fs1
 BYTE   W12
 BYTE   Fs1  v092
 BYTE   W12
 BYTE   Cn1  v127
 BYTE   N06  Fs1
 BYTE   W12
 BYTE   Fs1  v092
 BYTE   W12
 BYTE   Cn1  v127
 BYTE   N06  Fs1
 BYTE   W12
 BYTE   Fs1  v092
 BYTE   W12
 BYTE   Cn1  v127
 BYTE   N06  Cn1
 BYTE   N06  Fs1
 BYTE   W12
//  #10 //001   ----------------------------------------
Label_0100BAA0:
 BYTE   N06  Fs1  v092
 BYTE   W12
 BYTE   Fs1  v127
 BYTE   W12
 BYTE   Cn1
 BYTE   N06  Fs1  v092
 BYTE   W12
 BYTE   Fs1  v127
 BYTE   W12
 BYTE   Cn1
 BYTE   N06  Fs1  v092
 BYTE   W12
 BYTE   Fs1  v127
 BYTE   W12
 BYTE   Cn1
 BYTE   N06  Fs1  v092
 BYTE   W06
 BYTE   Gs1  v127
 BYTE   W06
 BYTE   Cn1
 BYTE   N06  Cn1
 BYTE   N06  Fs1
 BYTE   N06  Gn2
 BYTE   W12
 BYTE   PEND 
//  #10 //002   ----------------------------------------
Label_0100BAC8:
 BYTE   N06  Fs1  v092
 BYTE   W12
 BYTE   Cn1  v127
 BYTE   N06  Fs1
 BYTE   W12
 BYTE   Fs1  v092
 BYTE   W12
 BYTE   Cn1  v127
 BYTE   N06  Fs1
 BYTE   W12
 BYTE   Cn1
 BYTE   N06  Fs1  v092
 BYTE   W12
 BYTE   Fs1  v127
 BYTE   W12
 BYTE   Cn1
 BYTE   N06  Fs1  v092
 BYTE   W12
 BYTE   Cn1  v127
 BYTE   N06  Cn1
 BYTE   N06  Fs1
 BYTE   W12
 BYTE   PEND 
//  #10 //003   ----------------------------------------
Label_0100BAEE:
 BYTE   N06  Fs1  v092
 BYTE   W12
 BYTE   Cn1  v127
 BYTE   N06  Fs1
 BYTE   W12
 BYTE   Cn1
 BYTE   N06  Fs1  v092
 BYTE   W06
 BYTE   Cn1  v127
 BYTE   W06
 BYTE   Fs1
 BYTE   W12
 BYTE   Cn1
 BYTE   N06  Gs1
 BYTE   W06
 BYTE   Cn1
 BYTE   N06  Fs1
 BYTE   W06
 BYTE   Cn1
 BYTE   N06  As1
 BYTE   W06
 BYTE   Fs1  v092
 BYTE   W06
 BYTE   Cn1  v127
 BYTE   N06  Cn1
 BYTE   N06  As1
 BYTE   N06  An2
 BYTE   W06
 BYTE   Cn1
 BYTE   N06  Fs1  v092
 BYTE   W06
 BYTE   Cn1  v127
 BYTE   N06  Cn1
 BYTE   N06  As1
 BYTE   N06  Cs2
 BYTE   W12
 BYTE   PEND 
//  #10 //004   ----------------------------------------
Label_0100BB28:
 BYTE   N06  Cn1  v127
 BYTE   N06  Fs1  v092
 BYTE   W12
 BYTE   Fs1  v127
 BYTE   W12
 BYTE   Fs1  v092
 BYTE   W12
 BYTE   Cn1  v127
 BYTE   N06  Fs1
 BYTE   W12
 BYTE   Fs1  v092
 BYTE   W12
 BYTE   Cn1  v127
 BYTE   N06  Fs1
 BYTE   W12
 BYTE   Fs1  v092
 BYTE   W12
 BYTE   Cn1  v127
 BYTE   N06  Cn1
 BYTE   N06  Fs1
 BYTE   W12
 BYTE   PEND 
//  #10 //005   ----------------------------------------
 BYTE   PATT
  POIN2 Label_0100BAA0
//  #10 //006   ----------------------------------------
 BYTE   PATT
  POIN2 Label_0100BAC8
//  #10 //007   ----------------------------------------
Label_0100BB57:
 BYTE   N06  Fs1  v092
 BYTE   W12
 BYTE   Cn1  v127
 BYTE   N06  Fs1
 BYTE   W12
 BYTE   Cn1
 BYTE   N03  En1  v052
 BYTE   N06  Fs1  v092
 BYTE   W03
 BYTE   N03  En1  v064
 BYTE   W03
 BYTE   N06  Cn1  v127
 BYTE   N03  En1  v072
 BYTE   W03
 BYTE   En1  v084
 BYTE   W03
 BYTE   En1  v096
 BYTE   N06  Fs1  v127
 BYTE   W03
 BYTE   N03  En1  v108
 BYTE   W03
 BYTE   En1  v116
 BYTE   W03
 BYTE   En1  v127
 BYTE   W03
 BYTE   N06  Cn1
 BYTE   N06  Dn1
 BYTE   N06  En1
 BYTE   N06  Gs1
 BYTE   N06  An2
 BYTE   W06
 BYTE   Cn1
 BYTE   N06  Fs1
 BYTE   W06
 BYTE   Cn1
 BYTE   N06  Cn1
 BYTE   N06  As1
 BYTE   W06
 BYTE   Fs1  v092
 BYTE   W06
 BYTE   Cn1  v127
 BYTE   N06  As1
 BYTE   W06
 BYTE   Cn1
 BYTE   N06  Fs1  v092
 BYTE   W06
 BYTE   Cn1  v127
 BYTE   N06  Cn1
 BYTE   N06  As1
 BYTE   W12
 BYTE   PEND 
//  #10 //008   ----------------------------------------
Label_0100BBB0:
 BYTE   N06  Cn1  v127
 BYTE   N06  Cn1
 BYTE   N06  Fs1  v092
 BYTE   N06  Cs2  v127
 BYTE   W12
 BYTE   Fs1
 BYTE   W12
 BYTE   Fs1  v092
 BYTE   W12
 BYTE   Cn1  v127
 BYTE   N06  Fs1
 BYTE   W12
 BYTE   Dn1
 BYTE   N06  En1
 BYTE   N06  Fs1  v092
 BYTE   W12
 BYTE   Cn1  v127
 BYTE   N06  Fs1
 BYTE   W12
 BYTE   Fs1  v092
 BYTE   W12
 BYTE   Cn1  v127
 BYTE   N06  Cn1
 BYTE   N06  Fs1
 BYTE   W12
 BYTE   PEND 
//  #10 //009   ----------------------------------------
Label_0100BBDD:
 BYTE   N06  Fs1  v092
 BYTE   W12
 BYTE   Fs1  v127
 BYTE   W12
 BYTE   Cn1
 BYTE   N06  Fs1  v092
 BYTE   W12
 BYTE   Fs1  v127
 BYTE   W12
 BYTE   Cn1
 BYTE   N06  Dn1
 BYTE   N06  En1
 BYTE   N06  Fs1  v092
 BYTE   W12
 BYTE   En1
 BYTE   N06  Fs1  v127
 BYTE   W12
 BYTE   Cn1
 BYTE   N06  Fs1  v092
 BYTE   W06
 BYTE   Gs1  v127
 BYTE   W06
 BYTE   Cn1
 BYTE   N06  Cn1
 BYTE   N06  Fs1
 BYTE   N06  Gn2
 BYTE   W12
 BYTE   PEND 
//  #10 //010   ----------------------------------------
Label_0100BC0B:
 BYTE   N06  Fs1  v092
 BYTE   W12
 BYTE   Cn1  v127
 BYTE   N06  Fs1
 BYTE   W12
 BYTE   Fs1  v092
 BYTE   W12
 BYTE   Cn1  v127
 BYTE   N06  Fs1
 BYTE   N06  An1
 BYTE   W12
 BYTE   Cn1
 BYTE   N06  Fs1  v092
 BYTE   N06  An1  v127
 BYTE   W12
 BYTE   Fs1
 BYTE   W12
 BYTE   Cn1
 BYTE   N06  Dn1
 BYTE   N06  En1
 BYTE   N06  Fs1  v092
 BYTE   W12
 BYTE   Cn1  v127
 BYTE   N06  Cn1
 BYTE   N06  Fs1
 BYTE   W12
 BYTE   PEND 
//  #10 //011   ----------------------------------------
Label_0100BC39:
 BYTE   N06  Fs1  v092
 BYTE   W12
 BYTE   Cn1  v127
 BYTE   N06  Fs1
 BYTE   W12
 BYTE   Cn1
 BYTE   N06  Fs1  v092
 BYTE   W06
 BYTE   Cn1  v127
 BYTE   W06
 BYTE   Fs1
 BYTE   W12
 BYTE   Cn1
 BYTE   N06  Dn1
 BYTE   N06  En1
 BYTE   N06  Gs1
 BYTE   W06
 BYTE   Cn1
 BYTE   N06  Fs1
 BYTE   W06
 BYTE   Cn1
 BYTE   N06  Dn1
 BYTE   N06  En1
 BYTE   N06  As1
 BYTE   W06
 BYTE   Fs1  v092
 BYTE   W06
 BYTE   Cn1  v127
 BYTE   N06  Cn1
 BYTE   N06  As1
 BYTE   N06  An2
 BYTE   W06
 BYTE   Cn1
 BYTE   N06  Fs1  v092
 BYTE   W06
 BYTE   Cn1  v127
 BYTE   N06  Cn1
 BYTE   N06  As1
 BYTE   N06  Cs2
 BYTE   W12
 BYTE   PEND 
//  #10 //012   ----------------------------------------
Label_0100BC7B:
 BYTE   N06  Cn1  v127
 BYTE   N06  Fs1  v092
 BYTE   W12
 BYTE   Fs1  v127
 BYTE   W12
 BYTE   Fs1  v092
 BYTE   W12
 BYTE   Cn1  v127
 BYTE   N06  Fs1
 BYTE   W12
 BYTE   Dn1
 BYTE   N06  En1
 BYTE   N06  Fs1  v092
 BYTE   W12
 BYTE   Cn1  v127
 BYTE   N06  Fs1
 BYTE   W12
 BYTE   Fs1  v092
 BYTE   W12
 BYTE   Cn1  v127
 BYTE   N06  Cn1
 BYTE   N06  Fs1
 BYTE   W12
 BYTE   PEND 
//  #10 //013   ----------------------------------------
 BYTE   PATT
  POIN2 Label_0100BBDD
//  #10 //014   ----------------------------------------
Label_0100BCA9:
 BYTE   N06  Fs1  v092
 BYTE   W12
 BYTE   Cn1  v127
 BYTE   N06  Fs1
 BYTE   W12
 BYTE   Fs1  v092
 BYTE   W12
 BYTE   Cn1  v127
 BYTE   N06  Fs1
 BYTE   W12
 BYTE   Cn1
 BYTE   N06  Fs1  v092
 BYTE   N06  An1  v127
 BYTE   W12
 BYTE   N03  En1  v052
 BYTE   N06  Fs1  v127
 BYTE   N06  An1
 BYTE   W03
 BYTE   N03  En1  v076
 BYTE   W03
 BYTE   En1  v104
 BYTE   W03
 BYTE   En1  v127
 BYTE   W03
 BYTE   N06  Cn1
 BYTE   N06  Dn1
 BYTE   N06  En1
 BYTE   N06  Fs1  v092
 BYTE   W06
 BYTE   Dn1  v127
 BYTE   N06  En1
 BYTE   W06
 BYTE   Cn1
 BYTE   N06  Cn1
 BYTE   N06  Fs1
 BYTE   W12
 BYTE   PEND 
//  #10 //015   ----------------------------------------
Label_0100BCEB:
 BYTE   N06  Fs1  v092
 BYTE   W12
 BYTE   Cn1  v127
 BYTE   N06  Dn1
 BYTE   N06  En1
 BYTE   N06  Fs1
 BYTE   W12
 BYTE   Cn1
 BYTE   N03  En1  v052
 BYTE   N06  Fs1  v092
 BYTE   W03
 BYTE   N03  En1  v064
 BYTE   W03
 BYTE   N06  Cn1  v127
 BYTE   N03  En1  v072
 BYTE   W03
 BYTE   En1  v084
 BYTE   W03
 BYTE   En1  v096
 BYTE   N06  Fs1  v127
 BYTE   W03
 BYTE   N03  En1  v108
 BYTE   W03
 BYTE   En1  v116
 BYTE   W03
 BYTE   En1  v127
 BYTE   W03
 BYTE   N06  Cn1
 BYTE   N06  Dn1
 BYTE   N06  En1
 BYTE   N06  Gs1
 BYTE   N06  An2
 BYTE   W06
 BYTE   Cn1
 BYTE   N06  Fs1
 BYTE   W06
 BYTE   Cn1
 BYTE   N06  Cn1
 BYTE   N06  Dn1
 BYTE   N06  En1
 BYTE   N06  As1
 BYTE   W06
 BYTE   Dn1
 BYTE   N06  En1
 BYTE   N06  Fs1  v092
 BYTE   W06
 BYTE   Cn1  v127
 BYTE   N06  As1
 BYTE   N06  Cs2
 BYTE   W06
 BYTE   Cn1
 BYTE   N06  Fs1  v092
 BYTE   W06
 BYTE   Cn1  v127
 BYTE   N06  Cn1
 BYTE   N06  As1
 BYTE   W12
 BYTE   PEND 
//  #10 //016   ----------------------------------------
Label_0100BD52:
 BYTE   N06  Cn1  v127
 BYTE   N06  Cn1
 BYTE   N06  Fs1  v092
 BYTE   N06  Cs2  v127
 BYTE   W12
 BYTE   Fs1
 BYTE   W12
 BYTE   Dn1
 BYTE   N06  En1
 BYTE   N06  Fs1  v092
 BYTE   W12
 BYTE   Cn1  v127
 BYTE   N06  Fs1
 BYTE   W12
 BYTE   Fs1  v092
 BYTE   W12
 BYTE   Cn1  v127
 BYTE   N06  Fs1
 BYTE   W12
 BYTE   Dn1
 BYTE   N06  En1
 BYTE   N06  Fs1  v092
 BYTE   W12
 BYTE   Cn1  v127
 BYTE   N06  Cn1
 BYTE   N06  Fs1
 BYTE   W12
 BYTE   PEND 
//  #10 //017   ----------------------------------------
Label_0100BD83:
 BYTE   N06  Fs1  v092
 BYTE   W12
 BYTE   Fs1  v127
 BYTE   W12
 BYTE   Cn1
 BYTE   N06  Dn1
 BYTE   N06  En1
 BYTE   N06  Fs1  v092
 BYTE   W12
 BYTE   Fs1  v127
 BYTE   W12
 BYTE   Cn1
 BYTE   N06  Fs1  v092
 BYTE   W12
 BYTE   En1
 BYTE   N06  Fs1  v127
 BYTE   W12
 BYTE   Cn1
 BYTE   N06  Dn1
 BYTE   N06  En1
 BYTE   N06  Fs1  v092
 BYTE   W06
 BYTE   Gs1  v127
 BYTE   W06
 BYTE   Cn1
 BYTE   N06  Cn1
 BYTE   N06  Fs1
 BYTE   N06  Gn2
 BYTE   W12
 BYTE   PEND 
//  #10 //018   ----------------------------------------
Label_0100BDB5:
 BYTE   N06  Fs1  v092
 BYTE   W12
 BYTE   Cn1  v127
 BYTE   N06  Fs1
 BYTE   W12
 BYTE   Dn1
 BYTE   N06  En1
 BYTE   N06  Fs1  v092
 BYTE   W12
 BYTE   Cn1  v127
 BYTE   N06  Fs1
 BYTE   N06  An1
 BYTE   W12
 BYTE   Cn1
 BYTE   N06  Fs1  v092
 BYTE   N06  An1  v127
 BYTE   W12
 BYTE   Fs1
 BYTE   W12
 BYTE   Cn1
 BYTE   N06  Dn1
 BYTE   N06  En1
 BYTE   N06  Fs1  v092
 BYTE   W06
 BYTE   En1  v127
 BYTE   W06
 BYTE   Cn1
 BYTE   N06  Cn1
 BYTE   N06  Fn1
 BYTE   N06  Fs1
 BYTE   N06  Gn1
 BYTE   W12
 BYTE   PEND 
//  #10 //019   ----------------------------------------
Label_0100BDED:
 BYTE   N06  Fs1  v092
 BYTE   W12
 BYTE   Cn1  v127
 BYTE   N06  Fs1
 BYTE   W12
 BYTE   Cn1
 BYTE   N06  Dn1
 BYTE   N06  En1
 BYTE   N06  Fs1  v092
 BYTE   W06
 BYTE   Cn1  v127
 BYTE   W06
 BYTE   Fs1
 BYTE   W12
 BYTE   Cn1
 BYTE   N06  Gs1
 BYTE   W06
 BYTE   Cn1
 BYTE   N06  Fs1
 BYTE   W06
 BYTE   Cn1
 BYTE   N06  Dn1
 BYTE   N06  En1
 BYTE   N06  As1
 BYTE   W06
 BYTE   Fs1  v092
 BYTE   W06
 BYTE   Cn1  v127
 BYTE   N06  Cn1
 BYTE   N06  As1
 BYTE   N06  An2
 BYTE   W06
 BYTE   Cn1
 BYTE   N06  Fs1  v092
 BYTE   W06
 BYTE   Cn1  v127
 BYTE   N06  Cn1
 BYTE   N06  As1
 BYTE   N06  Cs2
 BYTE   W12
 BYTE   PEND 
//  #10 //020   ----------------------------------------
Label_0100BE2F:
 BYTE   N06  Cn1  v127
 BYTE   N06  Fs1  v092
 BYTE   W12
 BYTE   Fs1  v127
 BYTE   W12
 BYTE   Dn1
 BYTE   N06  En1
 BYTE   N06  Fs1  v092
 BYTE   W12
 BYTE   Cn1  v127
 BYTE   N06  Fs1
 BYTE   W12
 BYTE   Fs1  v092
 BYTE   W12
 BYTE   Cn1  v127
 BYTE   N06  Fs1
 BYTE   W12
 BYTE   Dn1
 BYTE   N06  En1
 BYTE   N06  Fs1  v092
 BYTE   W12
 BYTE   Cn1  v127
 BYTE   N06  Cn1
 BYTE   N06  Fs1
 BYTE   W12
 BYTE   PEND 
//  #10 //021   ----------------------------------------
 BYTE   PATT
  POIN2 Label_0100BD83
//  #10 //022   ----------------------------------------
Label_0100BE61:
 BYTE   N06  Fs1  v092
 BYTE   W12
 BYTE   Cn1  v127
 BYTE   N06  Fs1
 BYTE   W12
 BYTE   Dn1
 BYTE   N06  En1
 BYTE   N06  Fs1  v092
 BYTE   W12
 BYTE   Cn1  v127
 BYTE   N06  Fs1
 BYTE   W12
 BYTE   Cn1
 BYTE   N06  Fs1  v092
 BYTE   N06  An1  v127
 BYTE   W12
 BYTE   N03  En1  v052
 BYTE   N06  Fs1  v127
 BYTE   N06  An1
 BYTE   W03
 BYTE   N03  En1  v076
 BYTE   W03
 BYTE   En1  v104
 BYTE   W03
 BYTE   En1  v127
 BYTE   W03
 BYTE   N06  Cn1
 BYTE   N06  Dn1
 BYTE   N06  En1
 BYTE   N06  Fs1  v092
 BYTE   W12
 BYTE   Cn1  v127
 BYTE   N06  Cn1
 BYTE   N06  Dn1
 BYTE   N06  En1
 BYTE   N06  Fs1
 BYTE   W12
 BYTE   PEND 
//  #10 //023   ----------------------------------------
Label_0100BEA7:
 BYTE   N06  Fs1  v092
 BYTE   W12
 BYTE   Cn1  v127
 BYTE   N06  Fs1
 BYTE   W12
 BYTE   Cn1
 BYTE   N06  Dn1
 BYTE   N06  En1
 BYTE   N06  Fs1  v092
 BYTE   W06
 BYTE   Cn1  v127
 BYTE   W06
 BYTE   N03  En1  v052
 BYTE   N06  Fs1  v127
 BYTE   W03
 BYTE   N03  En1  v064
 BYTE   W03
 BYTE   En1  v072
 BYTE   W03
 BYTE   En1  v084
 BYTE   W03
 BYTE   N06  Cn1  v127
 BYTE   N03  En1  v096
 BYTE   N06  Gs1  v127
 BYTE   W03
 BYTE   N03  En1  v108
 BYTE   W03
 BYTE   N06  Cn1  v127
 BYTE   N03  En1  v116
 BYTE   N06  Fs1  v127
 BYTE   W03
 BYTE   N03  En1
 BYTE   W03
 BYTE   N06  Cn1
 BYTE   N06  Cn1
 BYTE   N06  Dn1
 BYTE   N06  En1
 BYTE   N06  As1
 BYTE   W06
 BYTE   Fs1  v092
 BYTE   W06
 BYTE   Cn1  v127
 BYTE   N06  Dn1
 BYTE   N06  En1
 BYTE   N06  As1
 BYTE   N06  An2
 BYTE   W06
 BYTE   Cn1
 BYTE   N06  Dn1
 BYTE   N06  En1
 BYTE   N06  Fs1  v092
 BYTE   W06
 BYTE   Cn1  v127
 BYTE   N06  Cn1
 BYTE   N06  As1
 BYTE   W12
 BYTE   PEND 
//  #10 //024   ----------------------------------------
Label_0100BF12:
 BYTE   N06  Cn1  v127
 BYTE   N06  Fs1  v092
 BYTE   N06  Cs2  v127
 BYTE   W12
 BYTE   Fs1
 BYTE   W12
 BYTE   Fs1  v092
 BYTE   W12
 BYTE   Cn1  v127
 BYTE   N06  Fs1
 BYTE   W12
 BYTE   Fs1  v092
 BYTE   W12
 BYTE   Cn1  v127
 BYTE   N06  Fs1
 BYTE   W12
 BYTE   Fs1  v092
 BYTE   W12
 BYTE   Cn1  v127
 BYTE   N06  Cn1
 BYTE   N06  Fs1
 BYTE   W12
 BYTE   PEND 
//  #10 //025   ----------------------------------------
 BYTE   PATT
  POIN2 Label_0100BD83
//  #10 //026   ----------------------------------------
Label_0100BF3E:
 BYTE   N06  Fs1  v092
 BYTE   W12
 BYTE   Cn1  v127
 BYTE   N06  Fs1
 BYTE   W12
 BYTE   Fs1  v092
 BYTE   W12
 BYTE   Cn1  v127
 BYTE   N06  Fs1
 BYTE   W12
 BYTE   Cn1
 BYTE   N06  Fs1  v092
 BYTE   N06  An1  v127
 BYTE   W12
 BYTE   Fs1
 BYTE   N06  An1
 BYTE   W12
 BYTE   Cn1
 BYTE   N06  Fs1  v092
 BYTE   W12
 BYTE   Cn1  v127
 BYTE   N06  Cn1
 BYTE   N06  Fs1
 BYTE   W12
 BYTE   PEND 
//  #10 //027   ----------------------------------------
Label_0100BF68:
 BYTE   N06  Fs1  v092
 BYTE   W12
 BYTE   Cn1  v127
 BYTE   N06  Fs1
 BYTE   W12
 BYTE   Cn1
 BYTE   N06  Dn1
 BYTE   N06  En1
 BYTE   N06  Fs1  v092
 BYTE   W06
 BYTE   Cn1  v127
 BYTE   W06
 BYTE   N03  En1  v052
 BYTE   N06  Fs1  v127
 BYTE   W03
 BYTE   N03  En1  v064
 BYTE   W03
 BYTE   En1  v072
 BYTE   W03
 BYTE   En1  v084
 BYTE   W03
 BYTE   N06  Cn1  v127
 BYTE   N03  En1  v096
 BYTE   N06  Gs1  v127
 BYTE   N06  An2
 BYTE   W03
 BYTE   N03  En1  v108
 BYTE   W03
 BYTE   N06  Cn1  v127
 BYTE   N03  En1  v116
 BYTE   N06  Fs1  v127
 BYTE   W03
 BYTE   N03  En1
 BYTE   W03
 BYTE   N06  Cn1
 BYTE   N06  Cn1
 BYTE   N06  Dn1
 BYTE   N06  En1
 BYTE   N06  As1
 BYTE   W06
 BYTE   Fs1  v092
 BYTE   W06
 BYTE   Cn1  v127
 BYTE   N06  Dn1
 BYTE   N06  En1
 BYTE   N06  As1
 BYTE   N06  Cs2
 BYTE   W06
 BYTE   Cn1
 BYTE   N06  Dn1
 BYTE   N06  En1
 BYTE   N06  Fs1  v092
 BYTE   W06
 BYTE   Cn1  v127
 BYTE   N06  Cn1
 BYTE   N06  As1
 BYTE   W12
 BYTE   PEND 
//  #10 //028   ----------------------------------------
 BYTE   PATT
  POIN2 Label_0100BBB0
//  #10 //029   ----------------------------------------
 BYTE   PATT
  POIN2 Label_0100BBDD
//  #10 //030   ----------------------------------------
 BYTE   PATT
  POIN2 Label_0100BC0B
//  #10 //031   ----------------------------------------
 BYTE   PATT
  POIN2 Label_0100BC39
//  #10 //032   ----------------------------------------
 BYTE   PATT
  POIN2 Label_0100BC7B
//  #10 //033   ----------------------------------------
 BYTE   PATT
  POIN2 Label_0100BBDD
//  #10 //034   ----------------------------------------
 BYTE   PATT
  POIN2 Label_0100BCA9
//  #10 //035   ----------------------------------------
Label_0100BFF8:
 BYTE   N06  Fs1  v092
 BYTE   W12
 BYTE   Cn1  v127
 BYTE   N06  Dn1
 BYTE   N06  En1
 BYTE   N06  Fs1
 BYTE   W12
 BYTE   Cn1
 BYTE   N03  En1  v052
 BYTE   N06  Fs1  v092
 BYTE   W03
 BYTE   N03  En1  v064
 BYTE   W03
 BYTE   N06  Cn1  v127
 BYTE   N03  En1  v072
 BYTE   W03
 BYTE   En1  v084
 BYTE   W03
 BYTE   En1  v096
 BYTE   N06  Fs1  v127
 BYTE   W03
 BYTE   N03  En1  v108
 BYTE   W03
 BYTE   En1  v116
 BYTE   W03
 BYTE   En1  v127
 BYTE   W03
 BYTE   N06  Cn1
 BYTE   N06  Dn1
 BYTE   N06  En1
 BYTE   N06  Gs1
 BYTE   W06
 BYTE   Cn1
 BYTE   N06  Fs1
 BYTE   W06
 BYTE   Cn1
 BYTE   N06  Cn1
 BYTE   N06  Dn1
 BYTE   N06  En1
 BYTE   N06  As1
 BYTE   W06
 BYTE   Dn1
 BYTE   N06  En1
 BYTE   N06  Fs1  v092
 BYTE   W06
 BYTE   Cn1  v127
 BYTE   N06  As1
 BYTE   N06  An2
 BYTE   W06
 BYTE   Cn1
 BYTE   N06  Fs1  v092
 BYTE   W06
 BYTE   Cn1  v127
 BYTE   N06  Cn1
 BYTE   N06  As1
 BYTE   W12
 BYTE   PEND 
//  #10 //036   ----------------------------------------
Label_0100C05D:
 BYTE   N06  Cn1  v127
 BYTE   N06  Fs1  v092
 BYTE   N06  Cs2  v127
 BYTE   W12
 BYTE   Fs1
 BYTE   W12
 BYTE   Fs1  v092
 BYTE   W12
 BYTE   Cn1  v127
 BYTE   N06  Fs1
 BYTE   W12
 BYTE   Dn1
 BYTE   N06  En1
 BYTE   N06  Fs1  v092
 BYTE   W12
 BYTE   Cn1  v127
 BYTE   N06  Fs1
 BYTE   W12
 BYTE   Fs1  v092
 BYTE   W12
 BYTE   Cn1  v127
 BYTE   N06  Cn1
 BYTE   N06  Fs1
 BYTE   W12
 BYTE   PEND 
//  #10 //037   ----------------------------------------
 BYTE   PATT
  POIN2 Label_0100BBDD
//  #10 //038   ----------------------------------------
 BYTE   PATT
  POIN2 Label_0100BCA9
//  #10 //039   ----------------------------------------
 BYTE   PATT
  POIN2 Label_0100BCEB
//  #10 //040   ----------------------------------------
Label_0100C097:
 BYTE   N06  Cn1  v127
 BYTE   N06  Cn1
 BYTE   N06  Fs1  v092
 BYTE   N06  Cs2  v127
 BYTE   W12
 BYTE   Fs1
 BYTE   W12
 BYTE   Fs1  v092
 BYTE   W12
 BYTE   Cn1  v127
 BYTE   N06  Fs1
 BYTE   W12
 BYTE   Fs1  v092
 BYTE   W12
 BYTE   Cn1  v127
 BYTE   N06  Fs1
 BYTE   W12
 BYTE   Fs1  v092
 BYTE   W12
 BYTE   Cn1  v127
 BYTE   N06  Cn1
 BYTE   N06  Fs1
 BYTE   W12
 BYTE   PEND 
//  #10 //041   ----------------------------------------
 BYTE   PATT
  POIN2 Label_0100BAA0
//  #10 //042   ----------------------------------------
 BYTE   PATT
  POIN2 Label_0100BAC8
//  #10 //043   ----------------------------------------
 BYTE   PATT
  POIN2 Label_0100BAEE
//  #10 //044   ----------------------------------------
 BYTE   PATT
  POIN2 Label_0100BB28
//  #10 //045   ----------------------------------------
 BYTE   PATT
  POIN2 Label_0100BAA0
//  #10 //046   ----------------------------------------
 BYTE   PATT
  POIN2 Label_0100BAC8
//  #10 //047   ----------------------------------------
 BYTE   PATT
  POIN2 Label_0100BB57
//  #10 //048   ----------------------------------------
 BYTE   PATT
  POIN2 Label_0100BBB0
//  #10 //049   ----------------------------------------
 BYTE   PATT
  POIN2 Label_0100BBDD
//  #10 //050   ----------------------------------------
 BYTE   PATT
  POIN2 Label_0100BC0B
//  #10 //051   ----------------------------------------
 BYTE   PATT
  POIN2 Label_0100BC39
//  #10 //052   ----------------------------------------
 BYTE   PATT
  POIN2 Label_0100BC7B
//  #10 //053   ----------------------------------------
 BYTE   PATT
  POIN2 Label_0100BBDD
//  #10 //054   ----------------------------------------
 BYTE   PATT
  POIN2 Label_0100BCA9
//  #10 //055   ----------------------------------------
 BYTE   PATT
  POIN2 Label_0100BCEB
//  #10 //056   ----------------------------------------
 BYTE   GoTo
  POIN2 Label_0100BD52
//  #10 //057   ----------------------------------------
 BYTE   PATT
  POIN2 Label_0100BD52
//  #10 //058   ----------------------------------------
 BYTE   PATT
  POIN2 Label_0100BD83
//  #10 //059   ----------------------------------------
 BYTE   PATT
  POIN2 Label_0100BDB5
//  #10 //060   ----------------------------------------
 BYTE   PATT
  POIN2 Label_0100BDED
//  #10 //061   ----------------------------------------
 BYTE   PATT
  POIN2 Label_0100BE2F
//  #10 //062   ----------------------------------------
 BYTE   PATT
  POIN2 Label_0100BD83
//  #10 //063   ----------------------------------------
 BYTE   PATT
  POIN2 Label_0100BE61
//  #10 //064   ----------------------------------------
 BYTE   PATT
  POIN2 Label_0100BEA7
//  #10 //065   ----------------------------------------
 BYTE   PATT
  POIN2 Label_0100BF12
//  #10 //066   ----------------------------------------
 BYTE   PATT
  POIN2 Label_0100BD83
//  #10 //067   ----------------------------------------
 BYTE   PATT
  POIN2 Label_0100BF3E
//  #10 //068   ----------------------------------------
 BYTE   PATT
  POIN2 Label_0100BF68
//  #10 //069   ----------------------------------------
 BYTE   PATT
  POIN2 Label_0100BBB0
//  #10 //070   ----------------------------------------
 BYTE   PATT
  POIN2 Label_0100BBDD
//  #10 //071   ----------------------------------------
 BYTE   PATT
  POIN2 Label_0100BC0B
//  #10 //072   ----------------------------------------
 BYTE   PATT
  POIN2 Label_0100BC39
//  #10 //073   ----------------------------------------
 BYTE   PATT
  POIN2 Label_0100BC7B
//  #10 //074   ----------------------------------------
 BYTE   PATT
  POIN2 Label_0100BBDD
//  #10 //075   ----------------------------------------
 BYTE   PATT
  POIN2 Label_0100BCA9
//  #10 //076   ----------------------------------------
 BYTE   PATT
  POIN2 Label_0100BFF8
//  #10 //077   ----------------------------------------
 BYTE   PATT
  POIN2 Label_0100C05D
//  #10 //078   ----------------------------------------
 BYTE   PATT
  POIN2 Label_0100BBDD
//  #10 //079   ----------------------------------------
 BYTE   PATT
  POIN2 Label_0100BCA9
//  #10 //080   ----------------------------------------
 BYTE   PATT
  POIN2 Label_0100BCEB
//  #10 //081   ----------------------------------------
 BYTE   PATT
  POIN2 Label_0100C097
//  #10 //082   ----------------------------------------
 BYTE   PATT
  POIN2 Label_0100BAA0
//  #10 //083   ----------------------------------------
 BYTE   PATT
  POIN2 Label_0100BAC8
//  #10 //084   ----------------------------------------
 BYTE   PATT
  POIN2 Label_0100BAEE
//  #10 //085   ----------------------------------------
 BYTE   PATT
  POIN2 Label_0100BB28
//  #10 //086   ----------------------------------------
 BYTE   PATT
  POIN2 Label_0100BAA0
//  #10 //087   ----------------------------------------
 BYTE   PATT
  POIN2 Label_0100BAC8
//  #10 //088   ----------------------------------------
 BYTE   PATT
  POIN2 Label_0100BB57
//  #10 //089   ----------------------------------------
 BYTE   PATT
  POIN2 Label_0100BBB0
//  #10 //090   ----------------------------------------
 BYTE   PATT
  POIN2 Label_0100BBDD
//  #10 //091   ----------------------------------------
 BYTE   PATT
  POIN2 Label_0100BC0B
//  #10 //092   ----------------------------------------
 BYTE   PATT
  POIN2 Label_0100BC39
//  #10 //093   ----------------------------------------
 BYTE   PATT
  POIN2 Label_0100BC7B
//  #10 //094   ----------------------------------------
 BYTE   PATT
  POIN2 Label_0100BBDD
//  #10 //095   ----------------------------------------
 BYTE   PATT
  POIN2 Label_0100BCA9
//  #10 //096   ----------------------------------------
 BYTE   PATT
  POIN2 Label_0100BCEB
//  #10 //097   ----------------------------------------
 BYTE   PATT
  POIN2 Label_0100BD52
//  #10 //098   ----------------------------------------
 BYTE   PATT
  POIN2 Label_0100BD83
//  #10 //099   ----------------------------------------
 BYTE   PATT
  POIN2 Label_0100BDB5
//  #10 //100   ----------------------------------------
 BYTE   PATT
  POIN2 Label_0100BDED
//  #10 //101   ----------------------------------------
 BYTE   PATT
  POIN2 Label_0100BE2F
//  #10 //102   ----------------------------------------
 BYTE   PATT
  POIN2 Label_0100BD83
//  #10 //103   ----------------------------------------
 BYTE   PATT
  POIN2 Label_0100BE61
//  #10 //104   ----------------------------------------
 BYTE   PATT
  POIN2 Label_0100BEA7
//  #10 //105   ----------------------------------------
 BYTE   PATT
  POIN2 Label_0100BF12
//  #10 //106   ----------------------------------------
 BYTE   PATT
  POIN2 Label_0100BD83
//  #10 //107   ----------------------------------------
 BYTE   PATT
  POIN2 Label_0100BF3E
//  #10 //108   ----------------------------------------
 BYTE   PATT
  POIN2 Label_0100BF68
//  #10 //109   ----------------------------------------
 BYTE   PATT
  POIN2 Label_0100BBB0
//  #10 //110   ----------------------------------------
 BYTE   PATT
  POIN2 Label_0100BBDD
//  #10 //111   ----------------------------------------
 BYTE   PATT
  POIN2 Label_0100BC0B
//  #10 //112   ----------------------------------------
 BYTE   PATT
  POIN2 Label_0100BC39
//  #10 //113   ----------------------------------------
 BYTE   PATT
  POIN2 Label_0100BC7B
//  #10 //114   ----------------------------------------
 BYTE   PATT
  POIN2 Label_0100BBDD
//  #10 //115   ----------------------------------------
 BYTE   PATT
  POIN2 Label_0100BCA9
//  #10 //116   ----------------------------------------
 BYTE   PATT
  POIN2 Label_0100BFF8
//  #10 //117   ----------------------------------------
 BYTE   PATT
  POIN2 Label_0100C05D
//  #10 //118   ----------------------------------------
 BYTE   PATT
  POIN2 Label_0100BBDD
//  #10 //119   ----------------------------------------
 BYTE   PATT
  POIN2 Label_0100BCA9
//  #10 //120   ----------------------------------------
 BYTE   PATT
  POIN2 Label_0100BCEB
//  #10 //121   ----------------------------------------
 BYTE   W06
 BYTE   FINE

//******************************************************//
	ALIGN 4

AstroMan:
	BYTE	10	// NumTrks
	BYTE	0	// NumBlks
	BYTE	AstroMan_pri	// Priority
	BYTE	AstroMan_rev	// Reverb.
    
	POIN2	AstroMan_grp
    
	POIN2	AstroMan_001
	POIN2	AstroMan_002
	POIN2	AstroMan_003
	POIN2	AstroMan_004
	POIN2	AstroMan_005
	POIN2	AstroMan_006
	POIN2	AstroMan_007
	POIN2	AstroMan_008
	POIN2	AstroMan_009
	POIN2	AstroMan_010

	
