//Event file generated from Sappy .s format.
	#include "MPlayDef.event"

	#define	AWoman_grp  voicegroup000
	#define	AWoman_pri  0
	#define	AWoman_rev  0
	#define	AWoman_mvl  127
	#define	AWoman_key  0
	#define	AWoman_tbs  1
	#define	AWoman_exg  0
	#define	AWoman_cmp  1

	// .rodata
	//	AWoman
	ALIGN 4


//**************** Track 1 (Midi-Chn.0) ****************//

AWoman_001:
//  #01 //000   ----------------------------------------
 BYTE   KEYSH   AWoman_key+0
Label_0110A606:
 BYTE   TEMPO   70*AWoman_tbs/2
 BYTE   VOICE   1
 BYTE   VOL   27*AWoman_mvl/mxv
 BYTE   PAN   c_v+0
 BYTE   N32  En2  v080
 BYTE   N32  Gn2
 BYTE   N32  Bn2
 BYTE   W36
 BYTE   N11  En2
 BYTE   N11  Gn2
 BYTE   N11  Bn2
 BYTE   N11  Dn3
 BYTE   W12
 BYTE   N44  Ds2
 BYTE   N44  Gs2
 BYTE   N44  Bn2
 BYTE   N44  Ds3
 BYTE   W48
//  #01 //001   ----------------------------------------
Label_0110A628:
 BYTE   N32  En2  v080
 BYTE   N32  Gn2
 BYTE   N32  Bn2
 BYTE   W36
 BYTE   N11  En2
 BYTE   N11  Gn2
 BYTE   N11  Bn2
 BYTE   N11  Dn3
 BYTE   W12
 BYTE   N44  Dn2
 BYTE   N44  Fn2
 BYTE   N44  An2
 BYTE   N44  Cn3
 BYTE   W48
 BYTE   PEND 
//  #01 //002   ----------------------------------------
Label_0110A643:
 BYTE   N32  En2  v080
 BYTE   N32  Gn2
 BYTE   N32  Bn2
 BYTE   W36
 BYTE   N11  En2
 BYTE   N11  Gn2
 BYTE   N11  Bn2
 BYTE   N11  Dn3
 BYTE   W12
 BYTE   N44  Ds2
 BYTE   N44  Gs2
 BYTE   N44  Bn2
 BYTE   N44  Ds3
 BYTE   W48
 BYTE   PEND 
//  #01 //003   ----------------------------------------
 BYTE   PATT
  POIN2 Label_0110A628
//  #01 //004   ----------------------------------------
 BYTE   PATT
  POIN2 Label_0110A643
//  #01 //005   ----------------------------------------
 BYTE   PATT
  POIN2 Label_0110A628
//  #01 //006   ----------------------------------------
 BYTE   PATT
  POIN2 Label_0110A643
//  #01 //007   ----------------------------------------
 BYTE   PATT
  POIN2 Label_0110A628
//  #01 //008   ----------------------------------------
 BYTE   PATT
  POIN2 Label_0110A643
//  #01 //009   ----------------------------------------
 BYTE   PATT
  POIN2 Label_0110A628
//  #01 //010   ----------------------------------------
 BYTE   PATT
  POIN2 Label_0110A643
//  #01 //011   ----------------------------------------
 BYTE   PATT
  POIN2 Label_0110A628
//  #01 //012   ----------------------------------------
Label_0110A68B:
 BYTE   N32  Fn2  v080
 BYTE   N32  An2
 BYTE   N32  Cn3
 BYTE   N32  En3
 BYTE   W36
 BYTE   N11  Fn2
 BYTE   N11  An2
 BYTE   N11  Cn3
 BYTE   N11  En3
 BYTE   W12
 BYTE   N44  En2
 BYTE   N44  Gn2
 BYTE   N44  Bn2
 BYTE   N44  Dn3
 BYTE   W48
 BYTE   PEND 
//  #01 //013   ----------------------------------------
Label_0110A6A8:
 BYTE   N32  En2  v080
 BYTE   N32  An2
 BYTE   N32  Bn2
 BYTE   W36
 BYTE   N11  En2
 BYTE   N11  An2
 BYTE   N11  Bn2
 BYTE   W12
 BYTE   N44  En2
 BYTE   N44  An2
 BYTE   N44  Cs3
 BYTE   W48
 BYTE   PEND 
//  #01 //014   ----------------------------------------
 BYTE   PATT
  POIN2 Label_0110A643
//  #01 //015   ----------------------------------------
 BYTE   PATT
  POIN2 Label_0110A628
//  #01 //016   ----------------------------------------
 BYTE   PATT
  POIN2 Label_0110A643
//  #01 //017   ----------------------------------------
 BYTE   PATT
  POIN2 Label_0110A628
//  #01 //018   ----------------------------------------
 BYTE   PATT
  POIN2 Label_0110A643
//  #01 //019   ----------------------------------------
 BYTE   PATT
  POIN2 Label_0110A628
//  #01 //020   ----------------------------------------
 BYTE   PATT
  POIN2 Label_0110A643
//  #01 //021   ----------------------------------------
 BYTE   PATT
  POIN2 Label_0110A628
//  #01 //022   ----------------------------------------
 BYTE   W96
//  #01 //023   ----------------------------------------
 BYTE   W96
//  #01 //024   ----------------------------------------
 BYTE   W96
//  #01 //025   ----------------------------------------
 BYTE   W96
//  #01 //026   ----------------------------------------
 BYTE   W96
//  #01 //027   ----------------------------------------
 BYTE   W96
//  #01 //028   ----------------------------------------
 BYTE   W96
//  #01 //029   ----------------------------------------
 BYTE   W96
//  #01 //030   ----------------------------------------
 BYTE   GoTo
  POIN2 Label_0110A606
//  #01 //031   ----------------------------------------
 BYTE   TEMPO   70*AWoman_tbs/2
 BYTE   N32  En2  v080
 BYTE   N32  Gn2
 BYTE   N32  Bn2
 BYTE   W36
 BYTE   N11  En2
 BYTE   N11  Gn2
 BYTE   N11  Bn2
 BYTE   N11  Dn3
 BYTE   W12
 BYTE   N44  Ds2
 BYTE   N44  Gs2
 BYTE   N44  Bn2
 BYTE   N44  Ds3
 BYTE   W48
//  #01 //032   ----------------------------------------
 BYTE   PATT
  POIN2 Label_0110A628
//  #01 //033   ----------------------------------------
 BYTE   PATT
  POIN2 Label_0110A643
//  #01 //034   ----------------------------------------
 BYTE   PATT
  POIN2 Label_0110A628
//  #01 //035   ----------------------------------------
 BYTE   PATT
  POIN2 Label_0110A643
//  #01 //036   ----------------------------------------
 BYTE   PATT
  POIN2 Label_0110A628
//  #01 //037   ----------------------------------------
 BYTE   PATT
  POIN2 Label_0110A643
//  #01 //038   ----------------------------------------
 BYTE   PATT
  POIN2 Label_0110A628
//  #01 //039   ----------------------------------------
 BYTE   PATT
  POIN2 Label_0110A643
//  #01 //040   ----------------------------------------
 BYTE   PATT
  POIN2 Label_0110A628
//  #01 //041   ----------------------------------------
 BYTE   PATT
  POIN2 Label_0110A643
//  #01 //042   ----------------------------------------
 BYTE   PATT
  POIN2 Label_0110A628
//  #01 //043   ----------------------------------------
 BYTE   PATT
  POIN2 Label_0110A68B
//  #01 //044   ----------------------------------------
 BYTE   PATT
  POIN2 Label_0110A6A8
//  #01 //045   ----------------------------------------
 BYTE   PATT
  POIN2 Label_0110A643
//  #01 //046   ----------------------------------------
 BYTE   PATT
  POIN2 Label_0110A628
//  #01 //047   ----------------------------------------
 BYTE   PATT
  POIN2 Label_0110A643
//  #01 //048   ----------------------------------------
 BYTE   PATT
  POIN2 Label_0110A628
//  #01 //049   ----------------------------------------
 BYTE   PATT
  POIN2 Label_0110A643
//  #01 //050   ----------------------------------------
 BYTE   PATT
  POIN2 Label_0110A628
//  #01 //051   ----------------------------------------
 BYTE   PATT
  POIN2 Label_0110A643
//  #01 //052   ----------------------------------------
 BYTE   PATT
  POIN2 Label_0110A628
//  #01 //053   ----------------------------------------
 BYTE   W96
//  #01 //054   ----------------------------------------
 BYTE   W96
//  #01 //055   ----------------------------------------
 BYTE   W96
//  #01 //056   ----------------------------------------
 BYTE   W96
//  #01 //057   ----------------------------------------
 BYTE   W96
//  #01 //058   ----------------------------------------
 BYTE   W96
//  #01 //059   ----------------------------------------
 BYTE   W96
//  #01 //060   ----------------------------------------
 BYTE   W92
 BYTE   W03
 BYTE   FINE

//**************** Track 2 (Midi-Chn.1) ****************//

AWoman_002:
//  #02 //000   ----------------------------------------
 BYTE   KEYSH   AWoman_key+0
Label_0110A796:
 BYTE   VOICE   1
 BYTE   VOL   23*AWoman_mvl/mxv
 BYTE   N32  En1  v080
 BYTE   W36
 BYTE   N11
 BYTE   W12
 BYTE   N44  Gs1
 BYTE   W48
//  #02 //001   ----------------------------------------
Label_0110A7A3:
 BYTE   N32  En1  v080
 BYTE   W36
 BYTE   N11
 BYTE   W12
 BYTE   N44  Dn1
 BYTE   W48
 BYTE   PEND 
//  #02 //002   ----------------------------------------
Label_0110A7AD:
 BYTE   N32  En1  v080
 BYTE   W36
 BYTE   N11
 BYTE   W12
 BYTE   N44  Gs1
 BYTE   W48
 BYTE   PEND 
//  #02 //003   ----------------------------------------
 BYTE   PATT
  POIN2 Label_0110A7A3
//  #02 //004   ----------------------------------------
 BYTE   PATT
  POIN2 Label_0110A7AD
//  #02 //005   ----------------------------------------
 BYTE   PATT
  POIN2 Label_0110A7A3
//  #02 //006   ----------------------------------------
 BYTE   PATT
  POIN2 Label_0110A7AD
//  #02 //007   ----------------------------------------
 BYTE   PATT
  POIN2 Label_0110A7A3
//  #02 //008   ----------------------------------------
 BYTE   PATT
  POIN2 Label_0110A7AD
//  #02 //009   ----------------------------------------
 BYTE   PATT
  POIN2 Label_0110A7A3
//  #02 //010   ----------------------------------------
 BYTE   PATT
  POIN2 Label_0110A7AD
//  #02 //011   ----------------------------------------
 BYTE   PATT
  POIN2 Label_0110A7A3
//  #02 //012   ----------------------------------------
Label_0110A7E4:
 BYTE   N44  Fn1  v080
 BYTE   W48
 BYTE   En1
 BYTE   W48
 BYTE   PEND 
//  #02 //013   ----------------------------------------
Label_0110A7EB:
 BYTE   N32  An1  v080
 BYTE   W36
 BYTE   N11
 BYTE   W12
 BYTE   N44
 BYTE   W48
 BYTE   PEND 
//  #02 //014   ----------------------------------------
 BYTE   PATT
  POIN2 Label_0110A7AD
//  #02 //015   ----------------------------------------
 BYTE   PATT
  POIN2 Label_0110A7A3
//  #02 //016   ----------------------------------------
 BYTE   PATT
  POIN2 Label_0110A7AD
//  #02 //017   ----------------------------------------
 BYTE   PATT
  POIN2 Label_0110A7A3
//  #02 //018   ----------------------------------------
 BYTE   PATT
  POIN2 Label_0110A7AD
//  #02 //019   ----------------------------------------
 BYTE   PATT
  POIN2 Label_0110A7A3
//  #02 //020   ----------------------------------------
 BYTE   PATT
  POIN2 Label_0110A7AD
//  #02 //021   ----------------------------------------
 BYTE   PATT
  POIN2 Label_0110A7A3
//  #02 //022   ----------------------------------------
 BYTE   W96
//  #02 //023   ----------------------------------------
 BYTE   W96
//  #02 //024   ----------------------------------------
 BYTE   W96
//  #02 //025   ----------------------------------------
 BYTE   W96
//  #02 //026   ----------------------------------------
 BYTE   W96
//  #02 //027   ----------------------------------------
 BYTE   W96
//  #02 //028   ----------------------------------------
 BYTE   W96
//  #02 //029   ----------------------------------------
 BYTE   W96
//  #02 //030   ----------------------------------------
 BYTE   GoTo
  POIN2 Label_0110A796
//  #02 //031   ----------------------------------------
 BYTE   PATT
  POIN2 Label_0110A7AD
//  #02 //032   ----------------------------------------
 BYTE   PATT
  POIN2 Label_0110A7A3
//  #02 //033   ----------------------------------------
 BYTE   PATT
  POIN2 Label_0110A7AD
//  #02 //034   ----------------------------------------
 BYTE   PATT
  POIN2 Label_0110A7A3
//  #02 //035   ----------------------------------------
 BYTE   PATT
  POIN2 Label_0110A7AD
//  #02 //036   ----------------------------------------
 BYTE   PATT
  POIN2 Label_0110A7A3
//  #02 //037   ----------------------------------------
 BYTE   PATT
  POIN2 Label_0110A7AD
//  #02 //038   ----------------------------------------
 BYTE   PATT
  POIN2 Label_0110A7A3
//  #02 //039   ----------------------------------------
 BYTE   PATT
  POIN2 Label_0110A7AD
//  #02 //040   ----------------------------------------
 BYTE   PATT
  POIN2 Label_0110A7A3
//  #02 //041   ----------------------------------------
 BYTE   PATT
  POIN2 Label_0110A7AD
//  #02 //042   ----------------------------------------
 BYTE   PATT
  POIN2 Label_0110A7A3
//  #02 //043   ----------------------------------------
 BYTE   PATT
  POIN2 Label_0110A7E4
//  #02 //044   ----------------------------------------
 BYTE   PATT
  POIN2 Label_0110A7EB
//  #02 //045   ----------------------------------------
 BYTE   PATT
  POIN2 Label_0110A7AD
//  #02 //046   ----------------------------------------
 BYTE   PATT
  POIN2 Label_0110A7A3
//  #02 //047   ----------------------------------------
 BYTE   PATT
  POIN2 Label_0110A7AD
//  #02 //048   ----------------------------------------
 BYTE   PATT
  POIN2 Label_0110A7A3
//  #02 //049   ----------------------------------------
 BYTE   PATT
  POIN2 Label_0110A7AD
//  #02 //050   ----------------------------------------
 BYTE   PATT
  POIN2 Label_0110A7A3
//  #02 //051   ----------------------------------------
 BYTE   PATT
  POIN2 Label_0110A7AD
//  #02 //052   ----------------------------------------
 BYTE   PATT
  POIN2 Label_0110A7A3
//  #02 //053   ----------------------------------------
 BYTE   W96
//  #02 //054   ----------------------------------------
 BYTE   W96
//  #02 //055   ----------------------------------------
 BYTE   W96
//  #02 //056   ----------------------------------------
 BYTE   W96
//  #02 //057   ----------------------------------------
 BYTE   W96
//  #02 //058   ----------------------------------------
 BYTE   W96
//  #02 //059   ----------------------------------------
 BYTE   W96
//  #02 //060   ----------------------------------------
 BYTE   W92
 BYTE   W03
 BYTE   FINE

//**************** Track 3 (Midi-Chn.2) ****************//

AWoman_003:
//  #03 //000   ----------------------------------------
 BYTE   KEYSH   AWoman_key+0
Label_0110A8B6:
 BYTE   VOICE   107
 BYTE   VOL   54*AWoman_mvl/mxv
 BYTE   PAN   c_v+0
 BYTE   W96
//  #03 //001   ----------------------------------------
 BYTE   W96
//  #03 //002   ----------------------------------------
 BYTE   W96
//  #03 //003   ----------------------------------------
 BYTE   W96
//  #03 //004   ----------------------------------------
 BYTE   W96
//  #03 //005   ----------------------------------------
 BYTE   W96
//  #03 //006   ----------------------------------------
 BYTE   W96
//  #03 //007   ----------------------------------------
Label_0110A8C3:
 BYTE   W78
 BYTE   N05  Fs3  v080
 BYTE   W06
 BYTE   An3
 BYTE   W06
 BYTE   Bn3
 BYTE   W06
 BYTE   PEND 
//  #03 //008   ----------------------------------------
Label_0110A8CD:
 BYTE   N05  Cs4  v080
 BYTE   W06
 BYTE   Fs3
 BYTE   W06
 BYTE   N44  An3
 BYTE   W66
 BYTE   N17  Fs3
 BYTE   W18
 BYTE   PEND 
//  #03 //009   ----------------------------------------
Label_0110A8DA:
 BYTE   N11  An3  v080
 BYTE   W12
 BYTE   N05  Bn3
 BYTE   W06
 BYTE   N44  En3
 BYTE   W48
 BYTE   N11  Fs3
 BYTE   W12
 BYTE   An3
 BYTE   W12
 BYTE   N05  Bn3
 BYTE   W06
 BYTE   PEND 
//  #03 //010   ----------------------------------------
Label_0110A8ED:
 BYTE   N05  Cs4  v080
 BYTE   W06
 BYTE   Fs3
 BYTE   W06
 BYTE   N11  An3
 BYTE   W60
 BYTE   N23  Fs3
 BYTE   W24
 BYTE   PEND 
//  #03 //011   ----------------------------------------
Label_0110A8FA:
 BYTE   N11  An3  v080
 BYTE   W12
 BYTE   N05  Bn3
 BYTE   W06
 BYTE   N17  En3
 BYTE   W30
 BYTE   N23  Fn3
 BYTE   W24
 BYTE   Gn3
 BYTE   W24
 BYTE   PEND 
//  #03 //012   ----------------------------------------
Label_0110A90A:
 BYTE   N44  An3  v080
 BYTE   W48
 BYTE   N23  Gn3
 BYTE   W32
 BYTE   W01
 BYTE   N05  Fn3
 BYTE   W09
 BYTE   N52  En3
 BYTE   W06
 BYTE   PEND 
//  #03 //013   ----------------------------------------
 BYTE   W96
//  #03 //014   ----------------------------------------
 BYTE   W96
//  #03 //015   ----------------------------------------
 BYTE   W96
//  #03 //016   ----------------------------------------
 BYTE   W96
//  #03 //017   ----------------------------------------
 BYTE   W96
//  #03 //018   ----------------------------------------
 BYTE   W96
//  #03 //019   ----------------------------------------
 BYTE   W96
//  #03 //020   ----------------------------------------
 BYTE   W96
//  #03 //021   ----------------------------------------
 BYTE   W96
//  #03 //022   ----------------------------------------
 BYTE   W96
//  #03 //023   ----------------------------------------
 BYTE   W96
//  #03 //024   ----------------------------------------
 BYTE   W96
//  #03 //025   ----------------------------------------
 BYTE   W96
//  #03 //026   ----------------------------------------
 BYTE   W96
//  #03 //027   ----------------------------------------
 BYTE   W96
//  #03 //028   ----------------------------------------
 BYTE   W96
//  #03 //029   ----------------------------------------
 BYTE   W96
//  #03 //030   ----------------------------------------
 BYTE   GoTo
  POIN2 Label_0110A8B6
//  #03 //031   ----------------------------------------
 BYTE   W96
//  #03 //032   ----------------------------------------
 BYTE   W96
//  #03 //033   ----------------------------------------
 BYTE   W96
//  #03 //034   ----------------------------------------
 BYTE   W96
//  #03 //035   ----------------------------------------
 BYTE   W96
//  #03 //036   ----------------------------------------
 BYTE   W96
//  #03 //037   ----------------------------------------
 BYTE   W96
//  #03 //038   ----------------------------------------
 BYTE   PATT
  POIN2 Label_0110A8C3
//  #03 //039   ----------------------------------------
 BYTE   PATT
  POIN2 Label_0110A8CD
//  #03 //040   ----------------------------------------
 BYTE   PATT
  POIN2 Label_0110A8DA
//  #03 //041   ----------------------------------------
 BYTE   PATT
  POIN2 Label_0110A8ED
//  #03 //042   ----------------------------------------
 BYTE   PATT
  POIN2 Label_0110A8FA
//  #03 //043   ----------------------------------------
 BYTE   PATT
  POIN2 Label_0110A90A
//  #03 //044   ----------------------------------------
 BYTE   W96
//  #03 //045   ----------------------------------------
 BYTE   W96
//  #03 //046   ----------------------------------------
 BYTE   W96
//  #03 //047   ----------------------------------------
 BYTE   W96
//  #03 //048   ----------------------------------------
 BYTE   W96
//  #03 //049   ----------------------------------------
 BYTE   W96
//  #03 //050   ----------------------------------------
 BYTE   W96
//  #03 //051   ----------------------------------------
 BYTE   W96
//  #03 //052   ----------------------------------------
 BYTE   W96
//  #03 //053   ----------------------------------------
 BYTE   W96
//  #03 //054   ----------------------------------------
 BYTE   W96
//  #03 //055   ----------------------------------------
 BYTE   W96
//  #03 //056   ----------------------------------------
 BYTE   W96
//  #03 //057   ----------------------------------------
 BYTE   W96
//  #03 //058   ----------------------------------------
 BYTE   W96
//  #03 //059   ----------------------------------------
 BYTE   W96
//  #03 //060   ----------------------------------------
 BYTE   W92
 BYTE   W03
 BYTE   FINE

//**************** Track 4 (Midi-Chn.3) ****************//

AWoman_004:
//  #04 //000   ----------------------------------------
 BYTE   KEYSH   AWoman_key+0
Label_0110A97A:
 BYTE   VOICE   28
 BYTE   VOL   90*AWoman_mvl/mxv
 BYTE   PAN   c_v+0
 BYTE   W96
//  #04 //001   ----------------------------------------
 BYTE   W96
//  #04 //002   ----------------------------------------
 BYTE   W96
//  #04 //003   ----------------------------------------
 BYTE   W96
//  #04 //004   ----------------------------------------
 BYTE   W96
//  #04 //005   ----------------------------------------
 BYTE   W96
//  #04 //006   ----------------------------------------
 BYTE   W96
//  #04 //007   ----------------------------------------
 BYTE   W96
//  #04 //008   ----------------------------------------
 BYTE   W96
//  #04 //009   ----------------------------------------
 BYTE   W96
//  #04 //010   ----------------------------------------
 BYTE   W96
//  #04 //011   ----------------------------------------
 BYTE   W96
//  #04 //012   ----------------------------------------
 BYTE   W96
//  #04 //013   ----------------------------------------
Label_0110A98D:
 BYTE   W78
 BYTE   N05  Fs2  v080
 BYTE   W06
 BYTE   An2
 BYTE   W06
 BYTE   Bn2
 BYTE   W06
 BYTE   PEND 
//  #04 //014   ----------------------------------------
Label_0110A997:
 BYTE   N05  Cs3  v080
 BYTE   W06
 BYTE   Fs2
 BYTE   W06
 BYTE   N44  An2
 BYTE   W66
 BYTE   N17  Fs2
 BYTE   W18
 BYTE   PEND 
//  #04 //015   ----------------------------------------
Label_0110A9A4:
 BYTE   N11  An2  v080
 BYTE   W12
 BYTE   N05  Bn2
 BYTE   W06
 BYTE   N44  En2
 BYTE   W48
 BYTE   N11  Fs2
 BYTE   W12
 BYTE   An2
 BYTE   W12
 BYTE   N05  Bn2
 BYTE   W06
 BYTE   PEND 
//  #04 //016   ----------------------------------------
Label_0110A9B7:
 BYTE   N05  Cs3  v080
 BYTE   W06
 BYTE   Fs2
 BYTE   W06
 BYTE   N44  An2
 BYTE   W60
 BYTE   N23  Fs2
 BYTE   W24
 BYTE   PEND 
//  #04 //017   ----------------------------------------
Label_0110A9C4:
 BYTE   N11  An2  v080
 BYTE   W12
 BYTE   N05  Bn2
 BYTE   W06
 BYTE   N44  En2
 BYTE   W60
 BYTE   N05  Fs2
 BYTE   W06
 BYTE   An2
 BYTE   W06
 BYTE   Bn2
 BYTE   W06
 BYTE   PEND 
//  #04 //018   ----------------------------------------
 BYTE   PATT
  POIN2 Label_0110A997
//  #04 //019   ----------------------------------------
 BYTE   PATT
  POIN2 Label_0110A9A4
//  #04 //020   ----------------------------------------
 BYTE   PATT
  POIN2 Label_0110A9B7
//  #04 //021   ----------------------------------------
Label_0110A9E5:
 BYTE   N11  An2  v080
 BYTE   W12
 BYTE   N05  Bn2
 BYTE   W06
 BYTE   N44  En2
 BYTE   W78
 BYTE   PEND 
//  #04 //022   ----------------------------------------
 BYTE   W96
//  #04 //023   ----------------------------------------
 BYTE   W96
//  #04 //024   ----------------------------------------
 BYTE   W96
//  #04 //025   ----------------------------------------
 BYTE   W96
//  #04 //026   ----------------------------------------
 BYTE   W96
//  #04 //027   ----------------------------------------
 BYTE   W96
//  #04 //028   ----------------------------------------
 BYTE   W96
//  #04 //029   ----------------------------------------
 BYTE   W96
//  #04 //030   ----------------------------------------
 BYTE   GoTo
  POIN2 Label_0110A97A
//  #04 //031   ----------------------------------------
 BYTE   W96
//  #04 //032   ----------------------------------------
 BYTE   W96
//  #04 //033   ----------------------------------------
 BYTE   W96
//  #04 //034   ----------------------------------------
 BYTE   W96
//  #04 //035   ----------------------------------------
 BYTE   W96
//  #04 //036   ----------------------------------------
 BYTE   W96
//  #04 //037   ----------------------------------------
 BYTE   W96
//  #04 //038   ----------------------------------------
 BYTE   W96
//  #04 //039   ----------------------------------------
 BYTE   W96
//  #04 //040   ----------------------------------------
 BYTE   W96
//  #04 //041   ----------------------------------------
 BYTE   W96
//  #04 //042   ----------------------------------------
 BYTE   W96
//  #04 //043   ----------------------------------------
 BYTE   W96
//  #04 //044   ----------------------------------------
 BYTE   PATT
  POIN2 Label_0110A98D
//  #04 //045   ----------------------------------------
 BYTE   PATT
  POIN2 Label_0110A997
//  #04 //046   ----------------------------------------
 BYTE   PATT
  POIN2 Label_0110A9A4
//  #04 //047   ----------------------------------------
 BYTE   PATT
  POIN2 Label_0110A9B7
//  #04 //048   ----------------------------------------
 BYTE   PATT
  POIN2 Label_0110A9C4
//  #04 //049   ----------------------------------------
 BYTE   PATT
  POIN2 Label_0110A997
//  #04 //050   ----------------------------------------
 BYTE   PATT
  POIN2 Label_0110A9A4
//  #04 //051   ----------------------------------------
 BYTE   PATT
  POIN2 Label_0110A9B7
//  #04 //052   ----------------------------------------
 BYTE   PATT
  POIN2 Label_0110A9E5
//  #04 //053   ----------------------------------------
 BYTE   W96
//  #04 //054   ----------------------------------------
 BYTE   W96
//  #04 //055   ----------------------------------------
 BYTE   W96
//  #04 //056   ----------------------------------------
 BYTE   W96
//  #04 //057   ----------------------------------------
 BYTE   W96
//  #04 //058   ----------------------------------------
 BYTE   W96
//  #04 //059   ----------------------------------------
 BYTE   W96
//  #04 //060   ----------------------------------------
 BYTE   W92
 BYTE   W03
 BYTE   FINE

//**************** Track 5 (Midi-Chn.4) ****************//

AWoman_005:
//  #05 //000   ----------------------------------------
 BYTE   KEYSH   AWoman_key+0
Label_0110AA56:
 BYTE   VOICE   18
 BYTE   VOL   18*AWoman_mvl/mxv
 BYTE   PAN   c_v+0
 BYTE   W96
//  #05 //001   ----------------------------------------
 BYTE   W96
//  #05 //002   ----------------------------------------
 BYTE   W96
//  #05 //003   ----------------------------------------
 BYTE   W96
//  #05 //004   ----------------------------------------
Label_0110AA60:
 BYTE   N32  Bn2  v080
 BYTE   N32  En3
 BYTE   N32  Gn3
 BYTE   W36
 BYTE   N11  Bn2
 BYTE   N11  En3
 BYTE   N11  Gn3
 BYTE   W12
 BYTE   N44  Bn2
 BYTE   N44  Ds3
 BYTE   N44  Gs3
 BYTE   W48
 BYTE   PEND 
//  #05 //005   ----------------------------------------
Label_0110AA77:
 BYTE   N32  Bn2  v080
 BYTE   N32  En3
 BYTE   N32  Gn3
 BYTE   W36
 BYTE   N11  Bn2
 BYTE   N11  En3
 BYTE   N11  Gn3
 BYTE   W12
 BYTE   N44  An2
 BYTE   N44  Dn3
 BYTE   N44  Fn3
 BYTE   W48
 BYTE   PEND 
//  #05 //006   ----------------------------------------
 BYTE   PATT
  POIN2 Label_0110AA60
//  #05 //007   ----------------------------------------
 BYTE   PATT
  POIN2 Label_0110AA77
//  #05 //008   ----------------------------------------
 BYTE   PATT
  POIN2 Label_0110AA60
//  #05 //009   ----------------------------------------
 BYTE   PATT
  POIN2 Label_0110AA77
//  #05 //010   ----------------------------------------
 BYTE   PATT
  POIN2 Label_0110AA60
//  #05 //011   ----------------------------------------
 BYTE   PATT
  POIN2 Label_0110AA77
//  #05 //012   ----------------------------------------
Label_0110AAAC:
 BYTE   N32  An2  v080
 BYTE   N32  Cn3
 BYTE   N32  En3
 BYTE   N32  An3
 BYTE   W36
 BYTE   N11  An2
 BYTE   N11  Cn3
 BYTE   N11  En3
 BYTE   N11  An3
 BYTE   W12
 BYTE   N44  Bn2
 BYTE   N44  Dn3
 BYTE   N44  Gn3
 BYTE   W48
 BYTE   PEND 
//  #05 //013   ----------------------------------------
Label_0110AAC7:
 BYTE   N32  En2  v080
 BYTE   N32  An2
 BYTE   N32  Dn3
 BYTE   N32  En3
 BYTE   N32  An3
 BYTE   W36
 BYTE   N11  En2
 BYTE   N11  An2
 BYTE   N11  Dn3
 BYTE   N11  En3
 BYTE   N11  An3
 BYTE   W12
 BYTE   N44  En2
 BYTE   N44  An2
 BYTE   N44  Cs3
 BYTE   N44  En3
 BYTE   W48
 BYTE   PEND 
//  #05 //014   ----------------------------------------
 BYTE   W96
//  #05 //015   ----------------------------------------
 BYTE   W96
//  #05 //016   ----------------------------------------
 BYTE   W96
//  #05 //017   ----------------------------------------
 BYTE   W96
//  #05 //018   ----------------------------------------
Label_0110AAEC:
 BYTE   N32  Bn2  v052
 BYTE   N32  En3
 BYTE   N32  Gn3
 BYTE   W36
 BYTE   N11  Bn2
 BYTE   N11  En3
 BYTE   N11  Gn3
 BYTE   W12
 BYTE   N44  Bn2
 BYTE   N44  Ds3
 BYTE   N44  Fs3
 BYTE   N44  Bn3
 BYTE   W48
 BYTE   PEND 
//  #05 //019   ----------------------------------------
Label_0110AB05:
 BYTE   N32  Bn2  v052
 BYTE   N32  En3
 BYTE   N32  Gn3
 BYTE   W36
 BYTE   N11  Bn2
 BYTE   N11  En3
 BYTE   N11  Gn3
 BYTE   W12
 BYTE   N44  An2
 BYTE   N44  Dn3
 BYTE   N44  Fn3
 BYTE   W48
 BYTE   PEND 
//  #05 //020   ----------------------------------------
 BYTE   PATT
  POIN2 Label_0110AAEC
//  #05 //021   ----------------------------------------
 BYTE   PATT
  POIN2 Label_0110AB05
//  #05 //022   ----------------------------------------
 BYTE   W96
//  #05 //023   ----------------------------------------
 BYTE   W96
//  #05 //024   ----------------------------------------
 BYTE   W96
//  #05 //025   ----------------------------------------
 BYTE   W96
//  #05 //026   ----------------------------------------
Label_0110AB2A:
 BYTE   N32  Bn2  v080
 BYTE   N32  En3
 BYTE   N32  Gn3
 BYTE   W36
 BYTE   N11  Bn2
 BYTE   N11  En3
 BYTE   N11  Gn3
 BYTE   W12
 BYTE   N44  Bn2
 BYTE   N44  Ds3
 BYTE   N44  Fs3
 BYTE   N44  Bn3
 BYTE   W48
 BYTE   PEND 
//  #05 //027   ----------------------------------------
 BYTE   PATT
  POIN2 Label_0110AA77
//  #05 //028   ----------------------------------------
 BYTE   PATT
  POIN2 Label_0110AB2A
//  #05 //029   ----------------------------------------
 BYTE   PATT
  POIN2 Label_0110AA77
//  #05 //030   ----------------------------------------
 BYTE   GoTo
  POIN2 Label_0110AA56
//  #05 //031   ----------------------------------------
 BYTE   W96
//  #05 //032   ----------------------------------------
 BYTE   W96
//  #05 //033   ----------------------------------------
 BYTE   W96
//  #05 //034   ----------------------------------------
 BYTE   W96
//  #05 //035   ----------------------------------------
 BYTE   PATT
  POIN2 Label_0110AA60
//  #05 //036   ----------------------------------------
 BYTE   PATT
  POIN2 Label_0110AA77
//  #05 //037   ----------------------------------------
 BYTE   PATT
  POIN2 Label_0110AA60
//  #05 //038   ----------------------------------------
 BYTE   PATT
  POIN2 Label_0110AA77
//  #05 //039   ----------------------------------------
 BYTE   PATT
  POIN2 Label_0110AA60
//  #05 //040   ----------------------------------------
 BYTE   PATT
  POIN2 Label_0110AA77
//  #05 //041   ----------------------------------------
 BYTE   PATT
  POIN2 Label_0110AA60
//  #05 //042   ----------------------------------------
 BYTE   PATT
  POIN2 Label_0110AA77
//  #05 //043   ----------------------------------------
 BYTE   PATT
  POIN2 Label_0110AAAC
//  #05 //044   ----------------------------------------
 BYTE   PATT
  POIN2 Label_0110AAC7
//  #05 //045   ----------------------------------------
 BYTE   W96
//  #05 //046   ----------------------------------------
 BYTE   W96
//  #05 //047   ----------------------------------------
 BYTE   W96
//  #05 //048   ----------------------------------------
 BYTE   W96
//  #05 //049   ----------------------------------------
 BYTE   PATT
  POIN2 Label_0110AAEC
//  #05 //050   ----------------------------------------
 BYTE   PATT
  POIN2 Label_0110AB05
//  #05 //051   ----------------------------------------
 BYTE   PATT
  POIN2 Label_0110AAEC
//  #05 //052   ----------------------------------------
 BYTE   PATT
  POIN2 Label_0110AB05
//  #05 //053   ----------------------------------------
 BYTE   W96
//  #05 //054   ----------------------------------------
 BYTE   W96
//  #05 //055   ----------------------------------------
 BYTE   W96
//  #05 //056   ----------------------------------------
 BYTE   W96
//  #05 //057   ----------------------------------------
 BYTE   PATT
  POIN2 Label_0110AB2A
//  #05 //058   ----------------------------------------
 BYTE   PATT
  POIN2 Label_0110AA77
//  #05 //059   ----------------------------------------
 BYTE   PATT
  POIN2 Label_0110AB2A
//  #05 //060   ----------------------------------------
 BYTE   N32  Bn2  v080
 BYTE   N32  En3
 BYTE   N32  Gn3
 BYTE   W36
 BYTE   N11  Bn2
 BYTE   N11  En3
 BYTE   N11  Gn3
 BYTE   W12
 BYTE   N44  An2
 BYTE   N44  Dn3
 BYTE   N44  Fn3
 BYTE   W44
 BYTE   W03
 BYTE   FINE

//**************** Track 6 (Midi-Chn.5) ****************//

AWoman_006:
//  #06 //000   ----------------------------------------
 BYTE   KEYSH   AWoman_key+0
Label_0110ABE2:
 BYTE   VOICE   38
 BYTE   VOL   41*AWoman_mvl/mxv
 BYTE   PAN   c_v+0
 BYTE   N32  En0  v080
 BYTE   W36
 BYTE   N11
 BYTE   W12
 BYTE   N44  Gs0
 BYTE   W48
//  #06 //001   ----------------------------------------
Label_0110ABF1:
 BYTE   N32  En0  v080
 BYTE   W36
 BYTE   N11
 BYTE   W12
 BYTE   N44  Dn0
 BYTE   W48
 BYTE   PEND 
//  #06 //002   ----------------------------------------
Label_0110ABFB:
 BYTE   N32  En0  v080
 BYTE   W36
 BYTE   N11
 BYTE   W12
 BYTE   N44  Gs0
 BYTE   W48
 BYTE   PEND 
//  #06 //003   ----------------------------------------
 BYTE   PATT
  POIN2 Label_0110ABF1
//  #06 //004   ----------------------------------------
 BYTE   PATT
  POIN2 Label_0110ABFB
//  #06 //005   ----------------------------------------
 BYTE   PATT
  POIN2 Label_0110ABF1
//  #06 //006   ----------------------------------------
 BYTE   PATT
  POIN2 Label_0110ABFB
//  #06 //007   ----------------------------------------
 BYTE   PATT
  POIN2 Label_0110ABF1
//  #06 //008   ----------------------------------------
 BYTE   PATT
  POIN2 Label_0110ABFB
//  #06 //009   ----------------------------------------
 BYTE   PATT
  POIN2 Label_0110ABF1
//  #06 //010   ----------------------------------------
 BYTE   PATT
  POIN2 Label_0110ABFB
//  #06 //011   ----------------------------------------
 BYTE   PATT
  POIN2 Label_0110ABF1
//  #06 //012   ----------------------------------------
Label_0110AC32:
 BYTE   N32  Fn0  v080
 BYTE   W36
 BYTE   N11
 BYTE   W12
 BYTE   N44  En0
 BYTE   W48
 BYTE   PEND 
//  #06 //013   ----------------------------------------
Label_0110AC3C:
 BYTE   N32  An0  v080
 BYTE   W36
 BYTE   N11
 BYTE   W12
 BYTE   N44
 BYTE   W48
 BYTE   PEND 
//  #06 //014   ----------------------------------------
 BYTE   PATT
  POIN2 Label_0110ABFB
//  #06 //015   ----------------------------------------
 BYTE   PATT
  POIN2 Label_0110ABF1
//  #06 //016   ----------------------------------------
 BYTE   PATT
  POIN2 Label_0110ABFB
//  #06 //017   ----------------------------------------
 BYTE   PATT
  POIN2 Label_0110ABF1
//  #06 //018   ----------------------------------------
 BYTE   PATT
  POIN2 Label_0110ABFB
//  #06 //019   ----------------------------------------
 BYTE   PATT
  POIN2 Label_0110ABF1
//  #06 //020   ----------------------------------------
 BYTE   PATT
  POIN2 Label_0110ABFB
//  #06 //021   ----------------------------------------
 BYTE   PATT
  POIN2 Label_0110ABF1
//  #06 //022   ----------------------------------------
Label_0110AC6D:
 BYTE   N32  En0  v080
 BYTE   W36
 BYTE   N11
 BYTE   W60
 BYTE   PEND 
//  #06 //023   ----------------------------------------
 BYTE   PATT
  POIN2 Label_0110AC6D
//  #06 //024   ----------------------------------------
 BYTE   PATT
  POIN2 Label_0110AC6D
//  #06 //025   ----------------------------------------
 BYTE   PATT
  POIN2 Label_0110AC6D
//  #06 //026   ----------------------------------------
 BYTE   PATT
  POIN2 Label_0110AC6D
//  #06 //027   ----------------------------------------
 BYTE   PATT
  POIN2 Label_0110AC6D
//  #06 //028   ----------------------------------------
 BYTE   PATT
  POIN2 Label_0110AC6D
//  #06 //029   ----------------------------------------
 BYTE   PATT
  POIN2 Label_0110AC6D
//  #06 //030   ----------------------------------------
 BYTE   GoTo
  POIN2 Label_0110ABE2
//  #06 //031   ----------------------------------------
 BYTE   PATT
  POIN2 Label_0110ABFB
//  #06 //032   ----------------------------------------
 BYTE   PATT
  POIN2 Label_0110ABF1
//  #06 //033   ----------------------------------------
 BYTE   PATT
  POIN2 Label_0110ABFB
//  #06 //034   ----------------------------------------
 BYTE   PATT
  POIN2 Label_0110ABF1
//  #06 //035   ----------------------------------------
 BYTE   PATT
  POIN2 Label_0110ABFB
//  #06 //036   ----------------------------------------
 BYTE   PATT
  POIN2 Label_0110ABF1
//  #06 //037   ----------------------------------------
 BYTE   PATT
  POIN2 Label_0110ABFB
//  #06 //038   ----------------------------------------
 BYTE   PATT
  POIN2 Label_0110ABF1
//  #06 //039   ----------------------------------------
 BYTE   PATT
  POIN2 Label_0110ABFB
//  #06 //040   ----------------------------------------
 BYTE   PATT
  POIN2 Label_0110ABF1
//  #06 //041   ----------------------------------------
 BYTE   PATT
  POIN2 Label_0110ABFB
//  #06 //042   ----------------------------------------
 BYTE   PATT
  POIN2 Label_0110ABF1
//  #06 //043   ----------------------------------------
 BYTE   PATT
  POIN2 Label_0110AC32
//  #06 //044   ----------------------------------------
 BYTE   PATT
  POIN2 Label_0110AC3C
//  #06 //045   ----------------------------------------
 BYTE   PATT
  POIN2 Label_0110ABFB
//  #06 //046   ----------------------------------------
 BYTE   PATT
  POIN2 Label_0110ABF1
//  #06 //047   ----------------------------------------
 BYTE   PATT
  POIN2 Label_0110ABFB
//  #06 //048   ----------------------------------------
 BYTE   PATT
  POIN2 Label_0110ABF1
//  #06 //049   ----------------------------------------
 BYTE   PATT
  POIN2 Label_0110ABFB
//  #06 //050   ----------------------------------------
 BYTE   PATT
  POIN2 Label_0110ABF1
//  #06 //051   ----------------------------------------
 BYTE   PATT
  POIN2 Label_0110ABFB
//  #06 //052   ----------------------------------------
 BYTE   PATT
  POIN2 Label_0110ABF1
//  #06 //053   ----------------------------------------
 BYTE   PATT
  POIN2 Label_0110AC6D
//  #06 //054   ----------------------------------------
 BYTE   PATT
  POIN2 Label_0110AC6D
//  #06 //055   ----------------------------------------
 BYTE   PATT
  POIN2 Label_0110AC6D
//  #06 //056   ----------------------------------------
 BYTE   PATT
  POIN2 Label_0110AC6D
//  #06 //057   ----------------------------------------
 BYTE   PATT
  POIN2 Label_0110AC6D
//  #06 //058   ----------------------------------------
 BYTE   PATT
  POIN2 Label_0110AC6D
//  #06 //059   ----------------------------------------
 BYTE   PATT
  POIN2 Label_0110AC6D
//  #06 //060   ----------------------------------------
 BYTE   N32  En0  v080
 BYTE   W36
 BYTE   N11
 BYTE   W56
 BYTE   W03
 BYTE   FINE

//**************** Track 7 (Midi-Chn.6) ****************//

AWoman_007:
//  #07 //000   ----------------------------------------
 BYTE   KEYSH   AWoman_key+0
Label_0110AD4A:
 BYTE   VOICE   124
 BYTE   VOL   41*AWoman_mvl/mxv
 BYTE   PAN   c_v+0
 BYTE   N11  En3  v052
 BYTE   W12
 BYTE   N05  Ds3
 BYTE   W06
 BYTE   Dn3
 BYTE   W06
 BYTE   N11  En3
 BYTE   W12
 BYTE   N05  Ds3
 BYTE   W06
 BYTE   Dn3
 BYTE   W06
 BYTE   N11  En3
 BYTE   W12
 BYTE   N05  Ds3
 BYTE   W06
 BYTE   Dn3
 BYTE   W06
 BYTE   N11  En3
 BYTE   W12
 BYTE   N05  Ds3
 BYTE   W06
 BYTE   Dn3
 BYTE   W06
//  #07 //001   ----------------------------------------
Label_0110AD71:
 BYTE   N11  En3  v052
 BYTE   W12
 BYTE   N05  Ds3
 BYTE   W06
 BYTE   Dn3
 BYTE   W06
 BYTE   N11  En3
 BYTE   W12
 BYTE   N05  Ds3
 BYTE   W06
 BYTE   Dn3
 BYTE   W06
 BYTE   N11  En3
 BYTE   W12
 BYTE   N05  Ds3
 BYTE   W06
 BYTE   Dn3
 BYTE   W06
 BYTE   N11  En3
 BYTE   W12
 BYTE   N05  Ds3
 BYTE   W06
 BYTE   Dn3
 BYTE   W06
 BYTE   PEND 
//  #07 //002   ----------------------------------------
 BYTE   PATT
  POIN2 Label_0110AD71
//  #07 //003   ----------------------------------------
 BYTE   PATT
  POIN2 Label_0110AD71
//  #07 //004   ----------------------------------------
 BYTE   PATT
  POIN2 Label_0110AD71
//  #07 //005   ----------------------------------------
 BYTE   PATT
  POIN2 Label_0110AD71
//  #07 //006   ----------------------------------------
 BYTE   PATT
  POIN2 Label_0110AD71
//  #07 //007   ----------------------------------------
 BYTE   PATT
  POIN2 Label_0110AD71
//  #07 //008   ----------------------------------------
 BYTE   PATT
  POIN2 Label_0110AD71
//  #07 //009   ----------------------------------------
 BYTE   PATT
  POIN2 Label_0110AD71
//  #07 //010   ----------------------------------------
 BYTE   PATT
  POIN2 Label_0110AD71
//  #07 //011   ----------------------------------------
 BYTE   PATT
  POIN2 Label_0110AD71
//  #07 //012   ----------------------------------------
 BYTE   PATT
  POIN2 Label_0110AD71
//  #07 //013   ----------------------------------------
 BYTE   PATT
  POIN2 Label_0110AD71
//  #07 //014   ----------------------------------------
 BYTE   PATT
  POIN2 Label_0110AD71
//  #07 //015   ----------------------------------------
 BYTE   PATT
  POIN2 Label_0110AD71
//  #07 //016   ----------------------------------------
 BYTE   PATT
  POIN2 Label_0110AD71
//  #07 //017   ----------------------------------------
 BYTE   PATT
  POIN2 Label_0110AD71
//  #07 //018   ----------------------------------------
 BYTE   PATT
  POIN2 Label_0110AD71
//  #07 //019   ----------------------------------------
 BYTE   PATT
  POIN2 Label_0110AD71
//  #07 //020   ----------------------------------------
 BYTE   PATT
  POIN2 Label_0110AD71
//  #07 //021   ----------------------------------------
 BYTE   PATT
  POIN2 Label_0110AD71
//  #07 //022   ----------------------------------------
 BYTE   PATT
  POIN2 Label_0110AD71
//  #07 //023   ----------------------------------------
 BYTE   PATT
  POIN2 Label_0110AD71
//  #07 //024   ----------------------------------------
 BYTE   PATT
  POIN2 Label_0110AD71
//  #07 //025   ----------------------------------------
 BYTE   PATT
  POIN2 Label_0110AD71
//  #07 //026   ----------------------------------------
 BYTE   PATT
  POIN2 Label_0110AD71
//  #07 //027   ----------------------------------------
 BYTE   PATT
  POIN2 Label_0110AD71
//  #07 //028   ----------------------------------------
 BYTE   PATT
  POIN2 Label_0110AD71
//  #07 //029   ----------------------------------------
 BYTE   PATT
  POIN2 Label_0110AD71
//  #07 //030   ----------------------------------------
 BYTE   GoTo
  POIN2 Label_0110AD4A
//  #07 //031   ----------------------------------------
 BYTE   PATT
  POIN2 Label_0110AD71
//  #07 //032   ----------------------------------------
 BYTE   PATT
  POIN2 Label_0110AD71
//  #07 //033   ----------------------------------------
 BYTE   PATT
  POIN2 Label_0110AD71
//  #07 //034   ----------------------------------------
 BYTE   PATT
  POIN2 Label_0110AD71
//  #07 //035   ----------------------------------------
 BYTE   PATT
  POIN2 Label_0110AD71
//  #07 //036   ----------------------------------------
 BYTE   PATT
  POIN2 Label_0110AD71
//  #07 //037   ----------------------------------------
 BYTE   PATT
  POIN2 Label_0110AD71
//  #07 //038   ----------------------------------------
 BYTE   PATT
  POIN2 Label_0110AD71
//  #07 //039   ----------------------------------------
 BYTE   PATT
  POIN2 Label_0110AD71
//  #07 //040   ----------------------------------------
 BYTE   PATT
  POIN2 Label_0110AD71
//  #07 //041   ----------------------------------------
 BYTE   PATT
  POIN2 Label_0110AD71
//  #07 //042   ----------------------------------------
 BYTE   PATT
  POIN2 Label_0110AD71
//  #07 //043   ----------------------------------------
 BYTE   PATT
  POIN2 Label_0110AD71
//  #07 //044   ----------------------------------------
 BYTE   PATT
  POIN2 Label_0110AD71
//  #07 //045   ----------------------------------------
 BYTE   PATT
  POIN2 Label_0110AD71
//  #07 //046   ----------------------------------------
 BYTE   PATT
  POIN2 Label_0110AD71
//  #07 //047   ----------------------------------------
 BYTE   PATT
  POIN2 Label_0110AD71
//  #07 //048   ----------------------------------------
 BYTE   PATT
  POIN2 Label_0110AD71
//  #07 //049   ----------------------------------------
 BYTE   PATT
  POIN2 Label_0110AD71
//  #07 //050   ----------------------------------------
 BYTE   PATT
  POIN2 Label_0110AD71
//  #07 //051   ----------------------------------------
 BYTE   PATT
  POIN2 Label_0110AD71
//  #07 //052   ----------------------------------------
 BYTE   PATT
  POIN2 Label_0110AD71
//  #07 //053   ----------------------------------------
 BYTE   PATT
  POIN2 Label_0110AD71
//  #07 //054   ----------------------------------------
 BYTE   PATT
  POIN2 Label_0110AD71
//  #07 //055   ----------------------------------------
 BYTE   PATT
  POIN2 Label_0110AD71
//  #07 //056   ----------------------------------------
 BYTE   PATT
  POIN2 Label_0110AD71
//  #07 //057   ----------------------------------------
 BYTE   PATT
  POIN2 Label_0110AD71
//  #07 //058   ----------------------------------------
 BYTE   PATT
  POIN2 Label_0110AD71
//  #07 //059   ----------------------------------------
 BYTE   PATT
  POIN2 Label_0110AD71
//  #07 //060   ----------------------------------------
 BYTE   N11  En3  v052
 BYTE   W12
 BYTE   N05  Ds3
 BYTE   W06
 BYTE   Dn3
 BYTE   W06
 BYTE   N11  En3
 BYTE   W12
 BYTE   N05  Ds3
 BYTE   W06
 BYTE   Dn3
 BYTE   W06
 BYTE   N11  En3
 BYTE   W12
 BYTE   N05  Ds3
 BYTE   W06
 BYTE   Dn3
 BYTE   W06
 BYTE   N11  En3
 BYTE   W12
 BYTE   N05  Ds3
 BYTE   W06
 BYTE   Dn3
 BYTE   W05
 BYTE   FINE

//**************** Track 8 (Midi-Chn.7) ****************//

AWoman_008:
//  #08 //000   ----------------------------------------
 BYTE   KEYSH   AWoman_key+0
Label_0110AEEA:
 BYTE   VOICE   124
 BYTE   VOL   31*AWoman_mvl/mxv
 BYTE   PAN   c_v+0
 BYTE   N32  Cn1  v080
 BYTE   N11  Fs1
 BYTE   W12
 BYTE   N11
 BYTE   W12
 BYTE   Dn1
 BYTE   N11  Fs1
 BYTE   W12
 BYTE   Cn1
 BYTE   N11  Fs1
 BYTE   W12
 BYTE   Cn1
 BYTE   N11  Fs1
 BYTE   W12
 BYTE   N11
 BYTE   W12
 BYTE   Dn1
 BYTE   N11  Fs1
 BYTE   W12
 BYTE   N11
 BYTE   W12
//  #08 //001   ----------------------------------------
Label_0110AF0C:
 BYTE   N32  Cn1  v080
 BYTE   N11  Fs1
 BYTE   W12
 BYTE   N11
 BYTE   W12
 BYTE   Dn1
 BYTE   N11  Fs1
 BYTE   W12
 BYTE   Cn1
 BYTE   N11  Fs1
 BYTE   W12
 BYTE   Cn1
 BYTE   N11  Fs1
 BYTE   W12
 BYTE   N11
 BYTE   W12
 BYTE   Dn1
 BYTE   N11  Fs1
 BYTE   W12
 BYTE   N11
 BYTE   W12
 BYTE   PEND 
//  #08 //002   ----------------------------------------
 BYTE   PATT
  POIN2 Label_0110AF0C
//  #08 //003   ----------------------------------------
 BYTE   PATT
  POIN2 Label_0110AF0C
//  #08 //004   ----------------------------------------
 BYTE   PATT
  POIN2 Label_0110AF0C
//  #08 //005   ----------------------------------------
 BYTE   PATT
  POIN2 Label_0110AF0C
//  #08 //006   ----------------------------------------
 BYTE   PATT
  POIN2 Label_0110AF0C
//  #08 //007   ----------------------------------------
 BYTE   PATT
  POIN2 Label_0110AF0C
//  #08 //008   ----------------------------------------
 BYTE   PATT
  POIN2 Label_0110AF0C
//  #08 //009   ----------------------------------------
 BYTE   PATT
  POIN2 Label_0110AF0C
//  #08 //010   ----------------------------------------
 BYTE   PATT
  POIN2 Label_0110AF0C
//  #08 //011   ----------------------------------------
 BYTE   PATT
  POIN2 Label_0110AF0C
//  #08 //012   ----------------------------------------
 BYTE   PATT
  POIN2 Label_0110AF0C
//  #08 //013   ----------------------------------------
 BYTE   PATT
  POIN2 Label_0110AF0C
//  #08 //014   ----------------------------------------
 BYTE   PATT
  POIN2 Label_0110AF0C
//  #08 //015   ----------------------------------------
 BYTE   PATT
  POIN2 Label_0110AF0C
//  #08 //016   ----------------------------------------
 BYTE   PATT
  POIN2 Label_0110AF0C
//  #08 //017   ----------------------------------------
 BYTE   PATT
  POIN2 Label_0110AF0C
//  #08 //018   ----------------------------------------
 BYTE   PATT
  POIN2 Label_0110AF0C
//  #08 //019   ----------------------------------------
 BYTE   PATT
  POIN2 Label_0110AF0C
//  #08 //020   ----------------------------------------
 BYTE   PATT
  POIN2 Label_0110AF0C
//  #08 //021   ----------------------------------------
 BYTE   PATT
  POIN2 Label_0110AF0C
//  #08 //022   ----------------------------------------
 BYTE   PATT
  POIN2 Label_0110AF0C
//  #08 //023   ----------------------------------------
 BYTE   PATT
  POIN2 Label_0110AF0C
//  #08 //024   ----------------------------------------
 BYTE   PATT
  POIN2 Label_0110AF0C
//  #08 //025   ----------------------------------------
 BYTE   PATT
  POIN2 Label_0110AF0C
//  #08 //026   ----------------------------------------
 BYTE   PATT
  POIN2 Label_0110AF0C
//  #08 //027   ----------------------------------------
 BYTE   PATT
  POIN2 Label_0110AF0C
//  #08 //028   ----------------------------------------
 BYTE   PATT
  POIN2 Label_0110AF0C
//  #08 //029   ----------------------------------------
 BYTE   PATT
  POIN2 Label_0110AF0C
//  #08 //030   ----------------------------------------
 BYTE   GoTo
  POIN2 Label_0110AEEA
//  #08 //031   ----------------------------------------
 BYTE   PATT
  POIN2 Label_0110AF0C
//  #08 //032   ----------------------------------------
 BYTE   PATT
  POIN2 Label_0110AF0C
//  #08 //033   ----------------------------------------
 BYTE   PATT
  POIN2 Label_0110AF0C
//  #08 //034   ----------------------------------------
 BYTE   PATT
  POIN2 Label_0110AF0C
//  #08 //035   ----------------------------------------
 BYTE   PATT
  POIN2 Label_0110AF0C
//  #08 //036   ----------------------------------------
 BYTE   PATT
  POIN2 Label_0110AF0C
//  #08 //037   ----------------------------------------
 BYTE   PATT
  POIN2 Label_0110AF0C
//  #08 //038   ----------------------------------------
 BYTE   PATT
  POIN2 Label_0110AF0C
//  #08 //039   ----------------------------------------
 BYTE   PATT
  POIN2 Label_0110AF0C
//  #08 //040   ----------------------------------------
 BYTE   PATT
  POIN2 Label_0110AF0C
//  #08 //041   ----------------------------------------
 BYTE   PATT
  POIN2 Label_0110AF0C
//  #08 //042   ----------------------------------------
 BYTE   PATT
  POIN2 Label_0110AF0C
//  #08 //043   ----------------------------------------
 BYTE   PATT
  POIN2 Label_0110AF0C
//  #08 //044   ----------------------------------------
 BYTE   PATT
  POIN2 Label_0110AF0C
//  #08 //045   ----------------------------------------
 BYTE   PATT
  POIN2 Label_0110AF0C
//  #08 //046   ----------------------------------------
 BYTE   PATT
  POIN2 Label_0110AF0C
//  #08 //047   ----------------------------------------
 BYTE   PATT
  POIN2 Label_0110AF0C
//  #08 //048   ----------------------------------------
 BYTE   PATT
  POIN2 Label_0110AF0C
//  #08 //049   ----------------------------------------
 BYTE   PATT
  POIN2 Label_0110AF0C
//  #08 //050   ----------------------------------------
 BYTE   PATT
  POIN2 Label_0110AF0C
//  #08 //051   ----------------------------------------
 BYTE   PATT
  POIN2 Label_0110AF0C
//  #08 //052   ----------------------------------------
 BYTE   PATT
  POIN2 Label_0110AF0C
//  #08 //053   ----------------------------------------
 BYTE   PATT
  POIN2 Label_0110AF0C
//  #08 //054   ----------------------------------------
 BYTE   PATT
  POIN2 Label_0110AF0C
//  #08 //055   ----------------------------------------
 BYTE   PATT
  POIN2 Label_0110AF0C
//  #08 //056   ----------------------------------------
 BYTE   PATT
  POIN2 Label_0110AF0C
//  #08 //057   ----------------------------------------
 BYTE   PATT
  POIN2 Label_0110AF0C
//  #08 //058   ----------------------------------------
 BYTE   PATT
  POIN2 Label_0110AF0C
//  #08 //059   ----------------------------------------
 BYTE   PATT
  POIN2 Label_0110AF0C
//  #08 //060   ----------------------------------------
 BYTE   N32  Cn1  v080
 BYTE   N11  Fs1
 BYTE   W12
 BYTE   N11
 BYTE   W12
 BYTE   Dn1
 BYTE   N11  Fs1
 BYTE   W12
 BYTE   Cn1
 BYTE   N11  Fs1
 BYTE   W12
 BYTE   Cn1
 BYTE   N11  Fs1
 BYTE   W12
 BYTE   N11
 BYTE   W12
 BYTE   Dn1
 BYTE   N11  Fs1
 BYTE   W12
 BYTE   N11
 BYTE   W11
 BYTE   FINE

//******************************************************//
	ALIGN 4

AWoman:
	BYTE	8	// NumTrks
	BYTE	0	// NumBlks
	BYTE	AWoman_pri	// Priority
	BYTE	AWoman_rev	// Reverb.
    
	POIN2	AWoman_grp
    
	POIN2	AWoman_001
	POIN2	AWoman_002
	POIN2	AWoman_003
	POIN2	AWoman_004
	POIN2	AWoman_005
	POIN2	AWoman_006
	POIN2	AWoman_007
	POIN2	AWoman_008

	
