//Event file generated from Sappy .s format.
	#include "MPlayDef.event"

	#define	BattleA3_grp  voicegroup000
	#define	BattleA3_pri  0
	#define	BattleA3_rev  0
	#define	BattleA3_mvl  127
	#define	BattleA3_key  0
	#define	BattleA3_tbs  1
	#define	BattleA3_exg  0
	#define	BattleA3_cmp  1

	// .rodata
	//	BattleA3
	ALIGN 4


//**************** Track 1 (Midi-Chn.0) ****************//

BattleA3_001:
//  #01 //000   ----------------------------------------
 BYTE   KEYSH   BattleA3_key+0
Label_0100A30A:
 BYTE   TEMPO   240*BattleA3_tbs/2
 BYTE   VOICE   34
 BYTE   VOL   33*BattleA3_mvl/mxv
 BYTE   N10  En0  v096
 BYTE   W12
 BYTE   N10
 BYTE   W12
 BYTE   N10
 BYTE   W12
 BYTE   N10
 BYTE   W12
 BYTE   N10
 BYTE   W12
 BYTE   N10
 BYTE   W12
 BYTE   N10
 BYTE   W12
 BYTE   N10
 BYTE   W12
//  #01 //001   ----------------------------------------
Label_0100A322:
 BYTE   N10  En0  v096
 BYTE   W12
 BYTE   N10
 BYTE   W12
 BYTE   N10
 BYTE   W12
 BYTE   N10
 BYTE   W12
 BYTE   N10
 BYTE   W12
 BYTE   N10
 BYTE   W12
 BYTE   N10
 BYTE   W12
 BYTE   N10
 BYTE   W12
 BYTE   PEND 
//  #01 //002   ----------------------------------------
 BYTE   PATT
  POIN2 Label_0100A322
//  #01 //003   ----------------------------------------
 BYTE   PATT
  POIN2 Label_0100A322
//  #01 //004   ----------------------------------------
 BYTE   PATT
  POIN2 Label_0100A322
//  #01 //005   ----------------------------------------
 BYTE   PATT
  POIN2 Label_0100A322
//  #01 //006   ----------------------------------------
 BYTE   PATT
  POIN2 Label_0100A322
//  #01 //007   ----------------------------------------
Label_0100A34E:
 BYTE   N10  En0  v096
 BYTE   W12
 BYTE   Bn0
 BYTE   W12
 BYTE   An0
 BYTE   W12
 BYTE   En0
 BYTE   W12
 BYTE   An0
 BYTE   W12
 BYTE   Gn0
 BYTE   W12
 BYTE   Fs0
 BYTE   W12
 BYTE   Dn0
 BYTE   W12
 BYTE   PEND 
//  #01 //008   ----------------------------------------
 BYTE   PATT
  POIN2 Label_0100A322
//  #01 //009   ----------------------------------------
 BYTE   PATT
  POIN2 Label_0100A322
//  #01 //010   ----------------------------------------
 BYTE   PATT
  POIN2 Label_0100A322
//  #01 //011   ----------------------------------------
 BYTE   PATT
  POIN2 Label_0100A322
//  #01 //012   ----------------------------------------
 BYTE   PATT
  POIN2 Label_0100A322
//  #01 //013   ----------------------------------------
 BYTE   PATT
  POIN2 Label_0100A322
//  #01 //014   ----------------------------------------
 BYTE   PATT
  POIN2 Label_0100A322
//  #01 //015   ----------------------------------------
 BYTE   PATT
  POIN2 Label_0100A34E
//  #01 //016   ----------------------------------------
Label_0100A389:
 BYTE   N24  Bn0  v096
 BYTE   W36
 BYTE   N12  Cn1
 BYTE   W12
 BYTE   N12
 BYTE   W24
 BYTE   Bn0
 BYTE   W12
 BYTE   N12
 BYTE   W12
 BYTE   PEND 
//  #01 //017   ----------------------------------------
Label_0100A397:
 BYTE   W12
 BYTE   N12  Cn1  v096
 BYTE   W12
 BYTE   N12
 BYTE   W24
 BYTE   N24  An0
 BYTE   W24
 BYTE   Cn1
 BYTE   W24
 BYTE   PEND 
//  #01 //018   ----------------------------------------
 BYTE   PATT
  POIN2 Label_0100A389
//  #01 //019   ----------------------------------------
Label_0100A3A9:
 BYTE   W12
 BYTE   N12  Cn1  v096
 BYTE   W12
 BYTE   N12
 BYTE   W24
 BYTE   N24  An0
 BYTE   W24
 BYTE   N12
 BYTE   W12
 BYTE   N12
 BYTE   W12
 BYTE   PEND 
//  #01 //020   ----------------------------------------
 BYTE   PATT
  POIN2 Label_0100A389
//  #01 //021   ----------------------------------------
 BYTE   PATT
  POIN2 Label_0100A397
//  #01 //022   ----------------------------------------
Label_0100A3C2:
 BYTE   N24  Bn0  v096
 BYTE   W36
 BYTE   N12
 BYTE   W12
 BYTE   N12
 BYTE   W24
 BYTE   N12
 BYTE   W12
 BYTE   N12
 BYTE   W12
 BYTE   PEND 
//  #01 //023   ----------------------------------------
Label_0100A3CF:
 BYTE   N12  Dn1  v096
 BYTE   W12
 BYTE   N12
 BYTE   W12
 BYTE   N12
 BYTE   W12
 BYTE   N12
 BYTE   W12
 BYTE   Bn0
 BYTE   W12
 BYTE   N12
 BYTE   W12
 BYTE   N12
 BYTE   W12
 BYTE   N12
 BYTE   W12
 BYTE   PEND 
//  #01 //024   ----------------------------------------
 BYTE   PATT
  POIN2 Label_0100A322
//  #01 //025   ----------------------------------------
 BYTE   PATT
  POIN2 Label_0100A322
//  #01 //026   ----------------------------------------
 BYTE   PATT
  POIN2 Label_0100A322
//  #01 //027   ----------------------------------------
 BYTE   PATT
  POIN2 Label_0100A322
//  #01 //028   ----------------------------------------
 BYTE   PATT
  POIN2 Label_0100A322
//  #01 //029   ----------------------------------------
 BYTE   PATT
  POIN2 Label_0100A322
//  #01 //030   ----------------------------------------
 BYTE   PATT
  POIN2 Label_0100A322
//  #01 //031   ----------------------------------------
 BYTE   PATT
  POIN2 Label_0100A34E
//  #01 //032   ----------------------------------------
 BYTE   PATT
  POIN2 Label_0100A322
//  #01 //033   ----------------------------------------
 BYTE   PATT
  POIN2 Label_0100A322
//  #01 //034   ----------------------------------------
 BYTE   PATT
  POIN2 Label_0100A322
//  #01 //035   ----------------------------------------
 BYTE   PATT
  POIN2 Label_0100A322
//  #01 //036   ----------------------------------------
 BYTE   PATT
  POIN2 Label_0100A322
//  #01 //037   ----------------------------------------
 BYTE   PATT
  POIN2 Label_0100A322
//  #01 //038   ----------------------------------------
 BYTE   PATT
  POIN2 Label_0100A322
//  #01 //039   ----------------------------------------
 BYTE   PATT
  POIN2 Label_0100A34E
//  #01 //040   ----------------------------------------
 BYTE   PATT
  POIN2 Label_0100A389
//  #01 //041   ----------------------------------------
 BYTE   PATT
  POIN2 Label_0100A397
//  #01 //042   ----------------------------------------
 BYTE   PATT
  POIN2 Label_0100A389
//  #01 //043   ----------------------------------------
 BYTE   PATT
  POIN2 Label_0100A3A9
//  #01 //044   ----------------------------------------
 BYTE   PATT
  POIN2 Label_0100A389
//  #01 //045   ----------------------------------------
 BYTE   PATT
  POIN2 Label_0100A397
//  #01 //046   ----------------------------------------
 BYTE   PATT
  POIN2 Label_0100A389
//  #01 //047   ----------------------------------------
 BYTE   PATT
  POIN2 Label_0100A3A9
//  #01 //048   ----------------------------------------
 BYTE   PATT
  POIN2 Label_0100A389
//  #01 //049   ----------------------------------------
 BYTE   PATT
  POIN2 Label_0100A397
//  #01 //050   ----------------------------------------
 BYTE   PATT
  POIN2 Label_0100A389
//  #01 //051   ----------------------------------------
 BYTE   PATT
  POIN2 Label_0100A3A9
//  #01 //052   ----------------------------------------
 BYTE   PATT
  POIN2 Label_0100A389
//  #01 //053   ----------------------------------------
 BYTE   PATT
  POIN2 Label_0100A397
//  #01 //054   ----------------------------------------
 BYTE   PATT
  POIN2 Label_0100A3C2
//  #01 //055   ----------------------------------------
 BYTE   PATT
  POIN2 Label_0100A3CF
//  #01 //056   ----------------------------------------
 BYTE   PATT
  POIN2 Label_0100A322
//  #01 //057   ----------------------------------------
 BYTE   PATT
  POIN2 Label_0100A322
//  #01 //058   ----------------------------------------
 BYTE   PATT
  POIN2 Label_0100A322
//  #01 //059   ----------------------------------------
 BYTE   PATT
  POIN2 Label_0100A322
//  #01 //060   ----------------------------------------
 BYTE   PATT
  POIN2 Label_0100A322
//  #01 //061   ----------------------------------------
 BYTE   PATT
  POIN2 Label_0100A322
//  #01 //062   ----------------------------------------
 BYTE   PATT
  POIN2 Label_0100A322
//  #01 //063   ----------------------------------------
 BYTE   PATT
  POIN2 Label_0100A322
//  #01 //064   ----------------------------------------
Label_0100A4AA:
 BYTE   N10  Fs0  v096
 BYTE   W12
 BYTE   N10
 BYTE   W12
 BYTE   N10
 BYTE   W12
 BYTE   N10
 BYTE   W12
 BYTE   N10
 BYTE   W12
 BYTE   N10
 BYTE   W12
 BYTE   N10
 BYTE   W12
 BYTE   N10
 BYTE   W12
 BYTE   PEND 
//  #01 //065   ----------------------------------------
 BYTE   PATT
  POIN2 Label_0100A4AA
//  #01 //066   ----------------------------------------
 BYTE   PATT
  POIN2 Label_0100A4AA
//  #01 //067   ----------------------------------------
 BYTE   PATT
  POIN2 Label_0100A4AA
//  #01 //068   ----------------------------------------
 BYTE   PATT
  POIN2 Label_0100A4AA
//  #01 //069   ----------------------------------------
 BYTE   PATT
  POIN2 Label_0100A4AA
//  #01 //070   ----------------------------------------
 BYTE   PATT
  POIN2 Label_0100A4AA
//  #01 //071   ----------------------------------------
 BYTE   PATT
  POIN2 Label_0100A4AA
//  #01 //072   ----------------------------------------
 BYTE   PATT
  POIN2 Label_0100A322
//  #01 //073   ----------------------------------------
 BYTE   PATT
  POIN2 Label_0100A322
//  #01 //074   ----------------------------------------
 BYTE   PATT
  POIN2 Label_0100A322
//  #01 //075   ----------------------------------------
 BYTE   PATT
  POIN2 Label_0100A322
//  #01 //076   ----------------------------------------
 BYTE   PATT
  POIN2 Label_0100A322
//  #01 //077   ----------------------------------------
 BYTE   PATT
  POIN2 Label_0100A322
//  #01 //078   ----------------------------------------
 BYTE   PATT
  POIN2 Label_0100A322
//  #01 //079   ----------------------------------------
 BYTE   PATT
  POIN2 Label_0100A322
//  #01 //080   ----------------------------------------
 BYTE   PATT
  POIN2 Label_0100A4AA
//  #01 //081   ----------------------------------------
 BYTE   PATT
  POIN2 Label_0100A4AA
//  #01 //082   ----------------------------------------
 BYTE   PATT
  POIN2 Label_0100A4AA
//  #01 //083   ----------------------------------------
 BYTE   PATT
  POIN2 Label_0100A4AA
//  #01 //084   ----------------------------------------
 BYTE   PATT
  POIN2 Label_0100A4AA
//  #01 //085   ----------------------------------------
 BYTE   PATT
  POIN2 Label_0100A4AA
//  #01 //086   ----------------------------------------
 BYTE   PATT
  POIN2 Label_0100A4AA
//  #01 //087   ----------------------------------------
 BYTE   PATT
  POIN2 Label_0100A4AA
//  #01 //088   ----------------------------------------
Label_0100A530:
 BYTE   N10  En0  v096
 BYTE   W12
 BYTE   N10
 BYTE   W12
 BYTE   N10
 BYTE   W12
 BYTE   N10
 BYTE   W12
 BYTE   N10
 BYTE   W12
 BYTE   N10
 BYTE   W12
 BYTE   N10
 BYTE   W12
 BYTE   N24  Gn0
 BYTE   W12
 BYTE   PEND 
//  #01 //089   ----------------------------------------
Label_0100A544:
 BYTE   W12
 BYTE   N10  En0  v096
 BYTE   W12
 BYTE   N10
 BYTE   W12
 BYTE   N10
 BYTE   W12
 BYTE   N10
 BYTE   W12
 BYTE   N10
 BYTE   W12
 BYTE   N10
 BYTE   W12
 BYTE   N24  An0
 BYTE   W12
 BYTE   PEND 
//  #01 //090   ----------------------------------------
Label_0100A557:
 BYTE   W12
 BYTE   N10  En0  v096
 BYTE   W12
 BYTE   N10
 BYTE   W12
 BYTE   N10
 BYTE   W12
 BYTE   N10
 BYTE   W12
 BYTE   N10
 BYTE   W12
 BYTE   N10
 BYTE   W12
 BYTE   N24  As0
 BYTE   W12
 BYTE   PEND 
//  #01 //091   ----------------------------------------
Label_0100A56A:
 BYTE   W12
 BYTE   N10  En0  v096
 BYTE   W12
 BYTE   An0
 BYTE   W12
 BYTE   En0
 BYTE   W12
 BYTE   Gn0
 BYTE   W12
 BYTE   En0
 BYTE   W12
 BYTE   N10
 BYTE   W12
 BYTE   N10
 BYTE   W12
 BYTE   PEND 
//  #01 //092   ----------------------------------------
 BYTE   PATT
  POIN2 Label_0100A530
//  #01 //093   ----------------------------------------
 BYTE   PATT
  POIN2 Label_0100A544
//  #01 //094   ----------------------------------------
 BYTE   PATT
  POIN2 Label_0100A557
//  #01 //095   ----------------------------------------
 BYTE   PATT
  POIN2 Label_0100A56A
//  #01 //096   ----------------------------------------
 BYTE   PATT
  POIN2 Label_0100A530
//  #01 //097   ----------------------------------------
 BYTE   PATT
  POIN2 Label_0100A544
//  #01 //098   ----------------------------------------
 BYTE   PATT
  POIN2 Label_0100A557
//  #01 //099   ----------------------------------------
 BYTE   PATT
  POIN2 Label_0100A56A
//  #01 //100   ----------------------------------------
 BYTE   PATT
  POIN2 Label_0100A530
//  #01 //101   ----------------------------------------
 BYTE   PATT
  POIN2 Label_0100A544
//  #01 //102   ----------------------------------------
 BYTE   PATT
  POIN2 Label_0100A557
//  #01 //103   ----------------------------------------
 BYTE   PATT
  POIN2 Label_0100A56A
//  #01 //104   ----------------------------------------
 BYTE   GoTo
  POIN2 Label_0100A30A
 BYTE   FINE

//**************** Track 2 (Midi-Chn.1) ****************//

BattleA3_002:
//  #02 //000   ----------------------------------------
 BYTE   KEYSH   BattleA3_key+0
Label_010048A6:
 BYTE   VOICE   83
 BYTE   VOL   30*BattleA3_mvl/mxv
 BYTE   N10  En1  v052
 BYTE   W12
 BYTE   N10
 BYTE   W12
 BYTE   N10
 BYTE   W12
 BYTE   N10
 BYTE   W12
 BYTE   N10
 BYTE   W12
 BYTE   N10
 BYTE   W12
 BYTE   N10
 BYTE   W12
 BYTE   N10
 BYTE   W12
//  #02 //001   ----------------------------------------
Label_010048BC:
 BYTE   N10  En1  v052
 BYTE   W12
 BYTE   N10
 BYTE   W12
 BYTE   N10
 BYTE   W12
 BYTE   N10
 BYTE   W12
 BYTE   N10
 BYTE   W12
 BYTE   N10
 BYTE   W12
 BYTE   N10
 BYTE   W12
 BYTE   N10
 BYTE   W12
 BYTE   PEND 
//  #02 //002   ----------------------------------------
 BYTE   PATT
  POIN2 Label_010048BC
//  #02 //003   ----------------------------------------
 BYTE   PATT
  POIN2 Label_010048BC
//  #02 //004   ----------------------------------------
 BYTE   PATT
  POIN2 Label_010048BC
//  #02 //005   ----------------------------------------
 BYTE   PATT
  POIN2 Label_010048BC
//  #02 //006   ----------------------------------------
 BYTE   PATT
  POIN2 Label_010048BC
//  #02 //007   ----------------------------------------
Label_010048E8:
 BYTE   N10  En1  v052
 BYTE   W12
 BYTE   Bn1
 BYTE   W12
 BYTE   An1
 BYTE   W12
 BYTE   En1
 BYTE   W12
 BYTE   An1
 BYTE   W12
 BYTE   Gn1
 BYTE   W12
 BYTE   Fs1
 BYTE   W12
 BYTE   Dn1
 BYTE   W12
 BYTE   PEND 
//  #02 //008   ----------------------------------------
 BYTE   PATT
  POIN2 Label_010048BC
//  #02 //009   ----------------------------------------
 BYTE   PATT
  POIN2 Label_010048BC
//  #02 //010   ----------------------------------------
 BYTE   PATT
  POIN2 Label_010048BC
//  #02 //011   ----------------------------------------
 BYTE   PATT
  POIN2 Label_010048BC
//  #02 //012   ----------------------------------------
 BYTE   PATT
  POIN2 Label_010048BC
//  #02 //013   ----------------------------------------
 BYTE   PATT
  POIN2 Label_010048BC
//  #02 //014   ----------------------------------------
 BYTE   PATT
  POIN2 Label_010048BC
//  #02 //015   ----------------------------------------
 BYTE   PATT
  POIN2 Label_010048E8
//  #02 //016   ----------------------------------------
Label_01004923:
 BYTE   N24  Bn0  v052
 BYTE   W36
 BYTE   N12  Cn1
 BYTE   W12
 BYTE   N12
 BYTE   W24
 BYTE   Bn0
 BYTE   W12
 BYTE   N12
 BYTE   W12
 BYTE   PEND 
//  #02 //017   ----------------------------------------
Label_01004931:
 BYTE   W12
 BYTE   N12  Cn1  v052
 BYTE   W12
 BYTE   N12
 BYTE   W24
 BYTE   N24  An0
 BYTE   W24
 BYTE   Cn1
 BYTE   W24
 BYTE   PEND 
//  #02 //018   ----------------------------------------
 BYTE   PATT
  POIN2 Label_01004923
//  #02 //019   ----------------------------------------
Label_01004943:
 BYTE   W12
 BYTE   N12  Cn1  v052
 BYTE   W12
 BYTE   N12
 BYTE   W24
 BYTE   N24  An0
 BYTE   W24
 BYTE   N12
 BYTE   W12
 BYTE   N12
 BYTE   W12
 BYTE   PEND 
//  #02 //020   ----------------------------------------
 BYTE   PATT
  POIN2 Label_01004923
//  #02 //021   ----------------------------------------
 BYTE   PATT
  POIN2 Label_01004931
//  #02 //022   ----------------------------------------
Label_0100495C:
 BYTE   N24  Bn0  v052
 BYTE   W36
 BYTE   N12
 BYTE   W12
 BYTE   N12
 BYTE   W24
 BYTE   N12
 BYTE   W12
 BYTE   N12
 BYTE   W12
 BYTE   PEND 
//  #02 //023   ----------------------------------------
Label_01004969:
 BYTE   N12  Dn1  v052
 BYTE   W12
 BYTE   N12
 BYTE   W12
 BYTE   N12
 BYTE   W12
 BYTE   N12
 BYTE   W12
 BYTE   Bn0
 BYTE   W12
 BYTE   N12
 BYTE   W12
 BYTE   N12
 BYTE   W12
 BYTE   N12
 BYTE   W12
 BYTE   PEND 
//  #02 //024   ----------------------------------------
 BYTE   PATT
  POIN2 Label_010048BC
//  #02 //025   ----------------------------------------
 BYTE   PATT
  POIN2 Label_010048BC
//  #02 //026   ----------------------------------------
 BYTE   PATT
  POIN2 Label_010048BC
//  #02 //027   ----------------------------------------
 BYTE   PATT
  POIN2 Label_010048BC
//  #02 //028   ----------------------------------------
 BYTE   PATT
  POIN2 Label_010048BC
//  #02 //029   ----------------------------------------
 BYTE   PATT
  POIN2 Label_010048BC
//  #02 //030   ----------------------------------------
 BYTE   PATT
  POIN2 Label_010048BC
//  #02 //031   ----------------------------------------
 BYTE   PATT
  POIN2 Label_010048E8
//  #02 //032   ----------------------------------------
 BYTE   PATT
  POIN2 Label_010048BC
//  #02 //033   ----------------------------------------
 BYTE   PATT
  POIN2 Label_010048BC
//  #02 //034   ----------------------------------------
 BYTE   PATT
  POIN2 Label_010048BC
//  #02 //035   ----------------------------------------
 BYTE   PATT
  POIN2 Label_010048BC
//  #02 //036   ----------------------------------------
 BYTE   PATT
  POIN2 Label_010048BC
//  #02 //037   ----------------------------------------
 BYTE   PATT
  POIN2 Label_010048BC
//  #02 //038   ----------------------------------------
 BYTE   PATT
  POIN2 Label_010048BC
//  #02 //039   ----------------------------------------
 BYTE   PATT
  POIN2 Label_010048E8
//  #02 //040   ----------------------------------------
 BYTE   PATT
  POIN2 Label_01004923
//  #02 //041   ----------------------------------------
 BYTE   PATT
  POIN2 Label_01004931
//  #02 //042   ----------------------------------------
 BYTE   PATT
  POIN2 Label_01004923
//  #02 //043   ----------------------------------------
 BYTE   PATT
  POIN2 Label_01004943
//  #02 //044   ----------------------------------------
 BYTE   PATT
  POIN2 Label_01004923
//  #02 //045   ----------------------------------------
 BYTE   PATT
  POIN2 Label_01004931
//  #02 //046   ----------------------------------------
 BYTE   PATT
  POIN2 Label_01004923
//  #02 //047   ----------------------------------------
 BYTE   PATT
  POIN2 Label_01004943
//  #02 //048   ----------------------------------------
 BYTE   PATT
  POIN2 Label_01004923
//  #02 //049   ----------------------------------------
 BYTE   PATT
  POIN2 Label_01004931
//  #02 //050   ----------------------------------------
 BYTE   PATT
  POIN2 Label_01004923
//  #02 //051   ----------------------------------------
 BYTE   PATT
  POIN2 Label_01004943
//  #02 //052   ----------------------------------------
 BYTE   PATT
  POIN2 Label_01004923
//  #02 //053   ----------------------------------------
 BYTE   PATT
  POIN2 Label_01004931
//  #02 //054   ----------------------------------------
 BYTE   PATT
  POIN2 Label_0100495C
//  #02 //055   ----------------------------------------
 BYTE   PATT
  POIN2 Label_01004969
//  #02 //056   ----------------------------------------
Label_01004A1C:
 BYTE   N10  En1  v072
 BYTE   W12
 BYTE   N10
 BYTE   W12
 BYTE   N10
 BYTE   W12
 BYTE   N10
 BYTE   W12
 BYTE   N10
 BYTE   W12
 BYTE   N10
 BYTE   W12
 BYTE   N10
 BYTE   W12
 BYTE   N10
 BYTE   W12
 BYTE   PEND 
//  #02 //057   ----------------------------------------
 BYTE   PATT
  POIN2 Label_01004A1C
//  #02 //058   ----------------------------------------
 BYTE   PATT
  POIN2 Label_01004A1C
//  #02 //059   ----------------------------------------
 BYTE   PATT
  POIN2 Label_01004A1C
//  #02 //060   ----------------------------------------
 BYTE   PATT
  POIN2 Label_01004A1C
//  #02 //061   ----------------------------------------
 BYTE   PATT
  POIN2 Label_01004A1C
//  #02 //062   ----------------------------------------
 BYTE   PATT
  POIN2 Label_01004A1C
//  #02 //063   ----------------------------------------
 BYTE   PATT
  POIN2 Label_01004A1C
//  #02 //064   ----------------------------------------
Label_01004A52:
 BYTE   N10  Fs1  v072
 BYTE   W12
 BYTE   N10
 BYTE   W12
 BYTE   N10
 BYTE   W12
 BYTE   N10
 BYTE   W12
 BYTE   N10
 BYTE   W12
 BYTE   N10
 BYTE   W12
 BYTE   N10
 BYTE   W12
 BYTE   N10
 BYTE   W12
 BYTE   PEND 
//  #02 //065   ----------------------------------------
 BYTE   PATT
  POIN2 Label_01004A52
//  #02 //066   ----------------------------------------
 BYTE   PATT
  POIN2 Label_01004A52
//  #02 //067   ----------------------------------------
 BYTE   PATT
  POIN2 Label_01004A52
//  #02 //068   ----------------------------------------
 BYTE   PATT
  POIN2 Label_01004A52
//  #02 //069   ----------------------------------------
 BYTE   PATT
  POIN2 Label_01004A52
//  #02 //070   ----------------------------------------
 BYTE   PATT
  POIN2 Label_01004A52
//  #02 //071   ----------------------------------------
 BYTE   PATT
  POIN2 Label_01004A52
//  #02 //072   ----------------------------------------
 BYTE   PATT
  POIN2 Label_01004A1C
//  #02 //073   ----------------------------------------
 BYTE   PATT
  POIN2 Label_01004A1C
//  #02 //074   ----------------------------------------
 BYTE   PATT
  POIN2 Label_01004A1C
//  #02 //075   ----------------------------------------
 BYTE   PATT
  POIN2 Label_01004A1C
//  #02 //076   ----------------------------------------
 BYTE   PATT
  POIN2 Label_01004A1C
//  #02 //077   ----------------------------------------
 BYTE   PATT
  POIN2 Label_01004A1C
//  #02 //078   ----------------------------------------
 BYTE   PATT
  POIN2 Label_01004A1C
//  #02 //079   ----------------------------------------
 BYTE   PATT
  POIN2 Label_01004A1C
//  #02 //080   ----------------------------------------
 BYTE   PATT
  POIN2 Label_01004A52
//  #02 //081   ----------------------------------------
 BYTE   PATT
  POIN2 Label_01004A52
//  #02 //082   ----------------------------------------
 BYTE   PATT
  POIN2 Label_01004A52
//  #02 //083   ----------------------------------------
 BYTE   PATT
  POIN2 Label_01004A52
//  #02 //084   ----------------------------------------
 BYTE   PATT
  POIN2 Label_01004A52
//  #02 //085   ----------------------------------------
 BYTE   PATT
  POIN2 Label_01004A52
//  #02 //086   ----------------------------------------
 BYTE   PATT
  POIN2 Label_01004A52
//  #02 //087   ----------------------------------------
 BYTE   PATT
  POIN2 Label_01004A52
//  #02 //088   ----------------------------------------
Label_01004AD8:
 BYTE   N10  En1  v052
 BYTE   W12
 BYTE   N10
 BYTE   W12
 BYTE   N10
 BYTE   W12
 BYTE   N10
 BYTE   W12
 BYTE   N10
 BYTE   W12
 BYTE   N10
 BYTE   W12
 BYTE   N10
 BYTE   W12
 BYTE   N24  Gn1
 BYTE   W12
 BYTE   PEND 
//  #02 //089   ----------------------------------------
Label_01004AEC:
 BYTE   W12
 BYTE   N10  En1  v052
 BYTE   W12
 BYTE   N10
 BYTE   W12
 BYTE   N10
 BYTE   W12
 BYTE   N10
 BYTE   W12
 BYTE   N10
 BYTE   W12
 BYTE   N10
 BYTE   W12
 BYTE   N24  An1
 BYTE   W12
 BYTE   PEND 
//  #02 //090   ----------------------------------------
Label_01004AFF:
 BYTE   W12
 BYTE   N10  En1  v052
 BYTE   W12
 BYTE   N10
 BYTE   W12
 BYTE   N10
 BYTE   W12
 BYTE   N10
 BYTE   W12
 BYTE   N10
 BYTE   W12
 BYTE   N10
 BYTE   W12
 BYTE   N24  As1
 BYTE   W12
 BYTE   PEND 
//  #02 //091   ----------------------------------------
Label_01004B12:
 BYTE   W12
 BYTE   N10  En1  v052
 BYTE   W12
 BYTE   An1
 BYTE   W12
 BYTE   En1
 BYTE   W12
 BYTE   Gn1
 BYTE   W12
 BYTE   En1
 BYTE   W12
 BYTE   N10
 BYTE   W12
 BYTE   N10
 BYTE   W12
 BYTE   PEND 
//  #02 //092   ----------------------------------------
 BYTE   PATT
  POIN2 Label_01004AD8
//  #02 //093   ----------------------------------------
 BYTE   PATT
  POIN2 Label_01004AEC
//  #02 //094   ----------------------------------------
 BYTE   PATT
  POIN2 Label_01004AFF
//  #02 //095   ----------------------------------------
 BYTE   PATT
  POIN2 Label_01004B12
//  #02 //096   ----------------------------------------
 BYTE   PATT
  POIN2 Label_01004AD8
//  #02 //097   ----------------------------------------
 BYTE   PATT
  POIN2 Label_01004AEC
//  #02 //098   ----------------------------------------
 BYTE   PATT
  POIN2 Label_01004AFF
//  #02 //099   ----------------------------------------
 BYTE   PATT
  POIN2 Label_01004B12
//  #02 //100   ----------------------------------------
 BYTE   PATT
  POIN2 Label_01004AD8
//  #02 //101   ----------------------------------------
 BYTE   PATT
  POIN2 Label_01004AEC
//  #02 //102   ----------------------------------------
 BYTE   PATT
  POIN2 Label_01004AFF
//  #02 //103   ----------------------------------------
 BYTE   PATT
  POIN2 Label_01004B12
//  #02 //104   ----------------------------------------
 BYTE   GoTo
  POIN2 Label_010048A6
 BYTE   FINE

//**************** Track 3 (Midi-Chn.2) ****************//

BattleA3_003:
//  #03 //000   ----------------------------------------
 BYTE   KEYSH   BattleA3_key+0
Label_01009DDA:
 BYTE   VOICE   30
 BYTE   VOL   34*BattleA3_mvl/mxv
 BYTE   PAN   c_v-23
 BYTE   VOL   34*BattleA3_mvl/mxv
 BYTE   PAN   c_v-23
 BYTE   N12  En1  v096
 BYTE   W12
 BYTE   Dn2
 BYTE   W12
 BYTE   En2
 BYTE   W12
 BYTE   En1
 BYTE   W12
 BYTE   Dn2
 BYTE   W12
 BYTE   En2
 BYTE   W12
 BYTE   En1
 BYTE   W12
 BYTE   Dn2
 BYTE   W12
//  #03 //001   ----------------------------------------
Label_01009DF6:
 BYTE   N12  En2  v096
 BYTE   W12
 BYTE   En1
 BYTE   W12
 BYTE   Dn2
 BYTE   W12
 BYTE   En2
 BYTE   W12
 BYTE   En1
 BYTE   W12
 BYTE   Dn2
 BYTE   W12
 BYTE   En2
 BYTE   W12
 BYTE   En1
 BYTE   W12
 BYTE   PEND 
//  #03 //002   ----------------------------------------
Label_01009E09:
 BYTE   N12  En1  v096
 BYTE   W12
 BYTE   Dn2
 BYTE   W12
 BYTE   En2
 BYTE   W12
 BYTE   En1
 BYTE   W12
 BYTE   Dn2
 BYTE   W12
 BYTE   En2
 BYTE   W12
 BYTE   En1
 BYTE   W12
 BYTE   Dn2
 BYTE   W12
 BYTE   PEND 
//  #03 //003   ----------------------------------------
 BYTE   PATT
  POIN2 Label_01009DF6
//  #03 //004   ----------------------------------------
 BYTE   PATT
  POIN2 Label_01009E09
//  #03 //005   ----------------------------------------
 BYTE   PATT
  POIN2 Label_01009DF6
//  #03 //006   ----------------------------------------
 BYTE   PATT
  POIN2 Label_01009E09
//  #03 //007   ----------------------------------------
 BYTE   PATT
  POIN2 Label_01009DF6
//  #03 //008   ----------------------------------------
 BYTE   PATT
  POIN2 Label_01009E09
//  #03 //009   ----------------------------------------
 BYTE   PATT
  POIN2 Label_01009DF6
//  #03 //010   ----------------------------------------
 BYTE   PATT
  POIN2 Label_01009E09
//  #03 //011   ----------------------------------------
 BYTE   PATT
  POIN2 Label_01009DF6
//  #03 //012   ----------------------------------------
 BYTE   PATT
  POIN2 Label_01009E09
//  #03 //013   ----------------------------------------
 BYTE   PATT
  POIN2 Label_01009DF6
//  #03 //014   ----------------------------------------
 BYTE   PATT
  POIN2 Label_01009E09
//  #03 //015   ----------------------------------------
 BYTE   PATT
  POIN2 Label_01009DF6
//  #03 //016   ----------------------------------------
Label_01009E5D:
 BYTE   VOL   30*BattleA3_mvl/mxv
 BYTE   N24  Bn1  v096
 BYTE   N24  Fs2
 BYTE   W36
 BYTE   N12  Cn2
 BYTE   N12  Gn2
 BYTE   W12
 BYTE   Cn2
 BYTE   N12  Gn2
 BYTE   W24
 BYTE   Bn1
 BYTE   N12  Fs2
 BYTE   W12
 BYTE   Bn1
 BYTE   N12  Fs2
 BYTE   W12
 BYTE   PEND 
//  #03 //017   ----------------------------------------
Label_01009E77:
 BYTE   W12
 BYTE   N12  Cn2  v096
 BYTE   N12  Gn2
 BYTE   W12
 BYTE   Cn2
 BYTE   N12  Gn2
 BYTE   W24
 BYTE   N24  An1
 BYTE   N24  En2
 BYTE   W24
 BYTE   Cn2
 BYTE   N24  Gn2
 BYTE   W24
 BYTE   PEND 
//  #03 //018   ----------------------------------------
Label_01009E8C:
 BYTE   N24  Bn1  v096
 BYTE   N24  Fs2
 BYTE   W36
 BYTE   N12  Cn2
 BYTE   N12  Gn2
 BYTE   W12
 BYTE   Cn2
 BYTE   N12  Gn2
 BYTE   W24
 BYTE   Bn1
 BYTE   N12  Fs2
 BYTE   W12
 BYTE   Bn1
 BYTE   N12  Fs2
 BYTE   W12
 BYTE   PEND 
//  #03 //019   ----------------------------------------
Label_01009EA4:
 BYTE   W12
 BYTE   N12  Cn2  v096
 BYTE   N12  Gn2
 BYTE   W12
 BYTE   Cn2
 BYTE   N12  Gn2
 BYTE   W24
 BYTE   N24  An1
 BYTE   N24  En2
 BYTE   W24
 BYTE   N12  An1
 BYTE   N12  En2
 BYTE   W12
 BYTE   An1
 BYTE   N12  En2
 BYTE   W12
 BYTE   PEND 
//  #03 //020   ----------------------------------------
 BYTE   PATT
  POIN2 Label_01009E8C
//  #03 //021   ----------------------------------------
 BYTE   PATT
  POIN2 Label_01009E77
//  #03 //022   ----------------------------------------
Label_01009EC8:
 BYTE   N24  Bn1  v096
 BYTE   N24  Fs2
 BYTE   W36
 BYTE   N12  Bn1
 BYTE   N12  Fs2
 BYTE   W12
 BYTE   Bn1
 BYTE   N12  Fs2
 BYTE   W24
 BYTE   Bn1
 BYTE   N12  Fs2
 BYTE   W12
 BYTE   Bn1
 BYTE   N12  Fs2
 BYTE   W12
 BYTE   PEND 
//  #03 //023   ----------------------------------------
Label_01009EE0:
 BYTE   N12  Dn2  v096
 BYTE   N12  An2
 BYTE   W12
 BYTE   Dn2
 BYTE   N12  An2
 BYTE   W12
 BYTE   Dn2
 BYTE   N12  An2
 BYTE   W12
 BYTE   Dn2
 BYTE   N12  An2
 BYTE   W12
 BYTE   Ds2
 BYTE   N12  As2
 BYTE   W12
 BYTE   Ds2
 BYTE   N12  As2
 BYTE   W12
 BYTE   Ds2
 BYTE   N12  As2
 BYTE   W12
 BYTE   Ds2
 BYTE   N12  As2
 BYTE   W12
 BYTE   PEND 
//  #03 //024   ----------------------------------------
 BYTE   VOL   34*BattleA3_mvl/mxv
 BYTE   PAN   c_v-23
 BYTE   VOL   34*BattleA3_mvl/mxv
 BYTE   PAN   c_v-23
 BYTE   N12  En1
 BYTE   W12
 BYTE   Dn2
 BYTE   W12
 BYTE   En2
 BYTE   W12
 BYTE   En1
 BYTE   W12
 BYTE   Dn2
 BYTE   W12
 BYTE   En2
 BYTE   W12
 BYTE   En1
 BYTE   W12
 BYTE   Dn2
 BYTE   W12
//  #03 //025   ----------------------------------------
 BYTE   PATT
  POIN2 Label_01009DF6
//  #03 //026   ----------------------------------------
 BYTE   PATT
  POIN2 Label_01009E09
//  #03 //027   ----------------------------------------
 BYTE   PATT
  POIN2 Label_01009DF6
//  #03 //028   ----------------------------------------
 BYTE   PATT
  POIN2 Label_01009E09
//  #03 //029   ----------------------------------------
 BYTE   PATT
  POIN2 Label_01009DF6
//  #03 //030   ----------------------------------------
 BYTE   PATT
  POIN2 Label_01009E09
//  #03 //031   ----------------------------------------
 BYTE   PATT
  POIN2 Label_01009DF6
//  #03 //032   ----------------------------------------
 BYTE   PATT
  POIN2 Label_01009E09
//  #03 //033   ----------------------------------------
 BYTE   PATT
  POIN2 Label_01009DF6
//  #03 //034   ----------------------------------------
 BYTE   PATT
  POIN2 Label_01009E09
//  #03 //035   ----------------------------------------
 BYTE   PATT
  POIN2 Label_01009DF6
//  #03 //036   ----------------------------------------
 BYTE   PATT
  POIN2 Label_01009E09
//  #03 //037   ----------------------------------------
 BYTE   PATT
  POIN2 Label_01009DF6
//  #03 //038   ----------------------------------------
 BYTE   PATT
  POIN2 Label_01009E09
//  #03 //039   ----------------------------------------
 BYTE   PATT
  POIN2 Label_01009DF6
//  #03 //040   ----------------------------------------
 BYTE   PATT
  POIN2 Label_01009E5D
//  #03 //041   ----------------------------------------
 BYTE   PATT
  POIN2 Label_01009E77
//  #03 //042   ----------------------------------------
 BYTE   PATT
  POIN2 Label_01009E8C
//  #03 //043   ----------------------------------------
 BYTE   PATT
  POIN2 Label_01009EA4
//  #03 //044   ----------------------------------------
 BYTE   PATT
  POIN2 Label_01009E5D
//  #03 //045   ----------------------------------------
 BYTE   PATT
  POIN2 Label_01009E77
//  #03 //046   ----------------------------------------
 BYTE   PATT
  POIN2 Label_01009E8C
//  #03 //047   ----------------------------------------
 BYTE   PATT
  POIN2 Label_01009EA4
//  #03 //048   ----------------------------------------
 BYTE   PATT
  POIN2 Label_01009E5D
//  #03 //049   ----------------------------------------
 BYTE   PATT
  POIN2 Label_01009E77
//  #03 //050   ----------------------------------------
 BYTE   PATT
  POIN2 Label_01009E8C
//  #03 //051   ----------------------------------------
 BYTE   PATT
  POIN2 Label_01009EA4
//  #03 //052   ----------------------------------------
 BYTE   PATT
  POIN2 Label_01009E5D
//  #03 //053   ----------------------------------------
 BYTE   PATT
  POIN2 Label_01009E77
//  #03 //054   ----------------------------------------
 BYTE   PATT
  POIN2 Label_01009EC8
//  #03 //055   ----------------------------------------
 BYTE   PATT
  POIN2 Label_01009EE0
//  #03 //056   ----------------------------------------
 BYTE   VOL   26*BattleA3_mvl/mxv
 BYTE   N12  En2  v076
 BYTE   W12
 BYTE   N12
 BYTE   W12
 BYTE   En2  v080
 BYTE   N12  Bn2
 BYTE   W12
 BYTE   En2  v056
 BYTE   W12
 BYTE   En2  v076
 BYTE   W12
 BYTE   En2  v080
 BYTE   N12  Bn2
 BYTE   W12
 BYTE   En2  v076
 BYTE   W12
 BYTE   N12
 BYTE   W12
//  #03 //057   ----------------------------------------
Label_01009FD4:
 BYTE   N12  En2  v080
 BYTE   N12  Bn2
 BYTE   W12
 BYTE   En2  v056
 BYTE   W12
 BYTE   En2  v076
 BYTE   W12
 BYTE   En2  v080
 BYTE   N12  Bn2
 BYTE   W12
 BYTE   En2  v076
 BYTE   W12
 BYTE   N12
 BYTE   W12
 BYTE   En2  v080
 BYTE   N12  Bn2
 BYTE   W12
 BYTE   En2  v060
 BYTE   W12
 BYTE   PEND 
//  #03 //058   ----------------------------------------
Label_01009FF3:
 BYTE   N12  En2  v076
 BYTE   W12
 BYTE   N12
 BYTE   W12
 BYTE   En2  v080
 BYTE   N12  Bn2
 BYTE   W12
 BYTE   En2  v056
 BYTE   W12
 BYTE   En2  v076
 BYTE   W12
 BYTE   En2  v080
 BYTE   N12  Bn2
 BYTE   W12
 BYTE   En2  v076
 BYTE   W12
 BYTE   N12
 BYTE   W12
 BYTE   PEND 
//  #03 //059   ----------------------------------------
 BYTE   PATT
  POIN2 Label_01009FD4
//  #03 //060   ----------------------------------------
 BYTE   PATT
  POIN2 Label_01009FF3
//  #03 //061   ----------------------------------------
 BYTE   PATT
  POIN2 Label_01009FD4
//  #03 //062   ----------------------------------------
 BYTE   PATT
  POIN2 Label_01009FF3
//  #03 //063   ----------------------------------------
 BYTE   PATT
  POIN2 Label_01009FD4
//  #03 //064   ----------------------------------------
Label_0100A028:
 BYTE   N12  Fs2  v076
 BYTE   W12
 BYTE   N12
 BYTE   W12
 BYTE   Fs2  v080
 BYTE   N12  Cs3
 BYTE   W12
 BYTE   Fs2  v056
 BYTE   W12
 BYTE   Fs2  v076
 BYTE   W12
 BYTE   Fs2  v080
 BYTE   N12  Cs3
 BYTE   W12
 BYTE   Fs2  v076
 BYTE   W12
 BYTE   N12
 BYTE   W12
 BYTE   PEND 
//  #03 //065   ----------------------------------------
Label_0100A044:
 BYTE   N12  Fs2  v080
 BYTE   N12  Cs3
 BYTE   W12
 BYTE   Fs2  v056
 BYTE   W12
 BYTE   Fs2  v076
 BYTE   W12
 BYTE   Fs2  v080
 BYTE   N12  Cs3
 BYTE   W12
 BYTE   Fs2  v076
 BYTE   W12
 BYTE   N12
 BYTE   W12
 BYTE   Fs2  v080
 BYTE   N12  Cs3
 BYTE   W12
 BYTE   Fs2  v060
 BYTE   W12
 BYTE   PEND 
//  #03 //066   ----------------------------------------
 BYTE   PATT
  POIN2 Label_0100A028
//  #03 //067   ----------------------------------------
 BYTE   PATT
  POIN2 Label_0100A044
//  #03 //068   ----------------------------------------
 BYTE   PATT
  POIN2 Label_0100A028
//  #03 //069   ----------------------------------------
 BYTE   PATT
  POIN2 Label_0100A044
//  #03 //070   ----------------------------------------
 BYTE   PATT
  POIN2 Label_0100A028
//  #03 //071   ----------------------------------------
 BYTE   PATT
  POIN2 Label_0100A044
//  #03 //072   ----------------------------------------
 BYTE   PATT
  POIN2 Label_01009FF3
//  #03 //073   ----------------------------------------
 BYTE   PATT
  POIN2 Label_01009FD4
//  #03 //074   ----------------------------------------
 BYTE   PATT
  POIN2 Label_01009FF3
//  #03 //075   ----------------------------------------
 BYTE   PATT
  POIN2 Label_01009FD4
//  #03 //076   ----------------------------------------
 BYTE   PATT
  POIN2 Label_01009FF3
//  #03 //077   ----------------------------------------
 BYTE   PATT
  POIN2 Label_01009FD4
//  #03 //078   ----------------------------------------
 BYTE   PATT
  POIN2 Label_01009FF3
//  #03 //079   ----------------------------------------
 BYTE   PATT
  POIN2 Label_01009FD4
//  #03 //080   ----------------------------------------
 BYTE   PATT
  POIN2 Label_0100A028
//  #03 //081   ----------------------------------------
 BYTE   PATT
  POIN2 Label_0100A044
//  #03 //082   ----------------------------------------
 BYTE   PATT
  POIN2 Label_0100A028
//  #03 //083   ----------------------------------------
 BYTE   PATT
  POIN2 Label_0100A044
//  #03 //084   ----------------------------------------
 BYTE   PATT
  POIN2 Label_0100A028
//  #03 //085   ----------------------------------------
 BYTE   PATT
  POIN2 Label_0100A044
//  #03 //086   ----------------------------------------
 BYTE   PATT
  POIN2 Label_0100A028
//  #03 //087   ----------------------------------------
 BYTE   PATT
  POIN2 Label_0100A044
//  #03 //088   ----------------------------------------
 BYTE   VOL   39*BattleA3_mvl/mxv
 BYTE   PAN   c_v+0
 BYTE   VOL   39*BattleA3_mvl/mxv
 BYTE   PAN   c_v+0
 BYTE   N10  En1  v096
 BYTE   W12
 BYTE   N10
 BYTE   W12
 BYTE   N10
 BYTE   W12
 BYTE   N10
 BYTE   W12
 BYTE   N10
 BYTE   W12
 BYTE   N10
 BYTE   W12
 BYTE   N10
 BYTE   W12
 BYTE   N24  Gn1
 BYTE   W12
//  #03 //089   ----------------------------------------
Label_0100A0EC:
 BYTE   W12
 BYTE   N10  En1  v096
 BYTE   W12
 BYTE   N10
 BYTE   W12
 BYTE   N10
 BYTE   W12
 BYTE   N10
 BYTE   W12
 BYTE   N10
 BYTE   W12
 BYTE   N10
 BYTE   W12
 BYTE   N24  An1
 BYTE   W12
 BYTE   PEND 
//  #03 //090   ----------------------------------------
Label_0100A0FF:
 BYTE   W12
 BYTE   N10  En1  v096
 BYTE   W12
 BYTE   N10
 BYTE   W12
 BYTE   N10
 BYTE   W12
 BYTE   N10
 BYTE   W12
 BYTE   N10
 BYTE   W12
 BYTE   N10
 BYTE   W12
 BYTE   N24  As1
 BYTE   W12
 BYTE   PEND 
//  #03 //091   ----------------------------------------
Label_0100A112:
 BYTE   W12
 BYTE   N10  En1  v096
 BYTE   W12
 BYTE   An1
 BYTE   W12
 BYTE   En1
 BYTE   W12
 BYTE   Gn1
 BYTE   W12
 BYTE   En1
 BYTE   W12
 BYTE   N10
 BYTE   W12
 BYTE   N10
 BYTE   W12
 BYTE   PEND 
//  #03 //092   ----------------------------------------
Label_0100A124:
 BYTE   N10  En1  v096
 BYTE   W12
 BYTE   N10
 BYTE   W12
 BYTE   N10
 BYTE   W12
 BYTE   N10
 BYTE   W12
 BYTE   N10
 BYTE   W12
 BYTE   N10
 BYTE   W12
 BYTE   N10
 BYTE   W12
 BYTE   N24  Gn1
 BYTE   W12
 BYTE   PEND 
//  #03 //093   ----------------------------------------
 BYTE   PATT
  POIN2 Label_0100A0EC
//  #03 //094   ----------------------------------------
 BYTE   PATT
  POIN2 Label_0100A0FF
//  #03 //095   ----------------------------------------
 BYTE   PATT
  POIN2 Label_0100A112
//  #03 //096   ----------------------------------------
 BYTE   PATT
  POIN2 Label_0100A124
//  #03 //097   ----------------------------------------
 BYTE   PATT
  POIN2 Label_0100A0EC
//  #03 //098   ----------------------------------------
 BYTE   PATT
  POIN2 Label_0100A0FF
//  #03 //099   ----------------------------------------
 BYTE   PATT
  POIN2 Label_0100A112
//  #03 //100   ----------------------------------------
 BYTE   PATT
  POIN2 Label_0100A124
//  #03 //101   ----------------------------------------
 BYTE   PATT
  POIN2 Label_0100A0EC
//  #03 //102   ----------------------------------------
 BYTE   PATT
  POIN2 Label_0100A0FF
//  #03 //103   ----------------------------------------
 BYTE   PATT
  POIN2 Label_0100A112
//  #03 //104   ----------------------------------------
 BYTE   GoTo
  POIN2 Label_01009DDA
 BYTE   FINE

//**************** Track 4 (Midi-Chn.3) ****************//

BattleA3_004:
//  #04 //000   ----------------------------------------
 BYTE   KEYSH   BattleA3_key+0
Label_0100A6D2:
 BYTE   VOICE   30
 BYTE   VOL   33*BattleA3_mvl/mxv
 BYTE   PAN   c_v+34
 BYTE   N11  En1  v068
 BYTE   W11
 BYTE   N12  Dn2
 BYTE   W13
 BYTE   En2  v072
 BYTE   W11
 BYTE   En1  v076
 BYTE   W13
 BYTE   Dn2  v060
 BYTE   W12
 BYTE   En2  v064
 BYTE   W12
 BYTE   En1
 BYTE   W12
 BYTE   Dn2  v080
 BYTE   W12
//  #04 //001   ----------------------------------------
Label_0100A6F0:
 BYTE   N12  En2  v080
 BYTE   W11
 BYTE   En1  v072
 BYTE   W12
 BYTE   Dn2  v076
 BYTE   W13
 BYTE   En2  v072
 BYTE   W11
 BYTE   En1  v068
 BYTE   W12
 BYTE   Dn2
 BYTE   W12
 BYTE   En2  v076
 BYTE   W13
 BYTE   En1  v072
 BYTE   W12
 BYTE   PEND 
//  #04 //002   ----------------------------------------
Label_0100A709:
 BYTE   N12  En1  v072
 BYTE   W12
 BYTE   Dn2  v068
 BYTE   W12
 BYTE   En2
 BYTE   W12
 BYTE   En1  v072
 BYTE   W12
 BYTE   Dn2  v068
 BYTE   W12
 BYTE   En2  v076
 BYTE   W12
 BYTE   En1  v072
 BYTE   W11
 BYTE   Dn2  v068
 BYTE   W13
 BYTE   PEND 
//  #04 //003   ----------------------------------------
Label_0100A722:
 BYTE   N12  En2  v068
 BYTE   W12
 BYTE   En1  v072
 BYTE   W12
 BYTE   Dn2  v068
 BYTE   W12
 BYTE   En2  v080
 BYTE   W12
 BYTE   En1  v084
 BYTE   W11
 BYTE   Dn2  v064
 BYTE   W13
 BYTE   En2  v076
 BYTE   W12
 BYTE   N11  En1  v072
 BYTE   W12
 BYTE   PEND 
//  #04 //004   ----------------------------------------
Label_0100A73D:
 BYTE   N11  En1  v068
 BYTE   W11
 BYTE   N12  Dn2  v064
 BYTE   W13
 BYTE   En2  v080
 BYTE   W11
 BYTE   En1  v056
 BYTE   W12
 BYTE   Dn2  v072
 BYTE   W13
 BYTE   En2  v080
 BYTE   W12
 BYTE   En1  v060
 BYTE   W12
 BYTE   Dn2  v068
 BYTE   W12
 BYTE   PEND 
//  #04 //005   ----------------------------------------
Label_0100A758:
 BYTE   N12  En2  v064
 BYTE   W11
 BYTE   En1  v076
 BYTE   W13
 BYTE   Dn2  v072
 BYTE   W12
 BYTE   En2  v068
 BYTE   W12
 BYTE   En1  v072
 BYTE   W12
 BYTE   Dn2  v076
 BYTE   W11
 BYTE   En2  v064
 BYTE   W12
 BYTE   En1  v076
 BYTE   W13
 BYTE   PEND 
//  #04 //006   ----------------------------------------
Label_0100A772:
 BYTE   N12  En1  v068
 BYTE   W11
 BYTE   Dn2  v072
 BYTE   W13
 BYTE   En2  v068
 BYTE   W11
 BYTE   En1  v064
 BYTE   W13
 BYTE   Dn2  v072
 BYTE   W11
 BYTE   En2  v064
 BYTE   W12
 BYTE   En1  v072
 BYTE   W13
 BYTE   Dn2  v080
 BYTE   W11
 BYTE   En2  v072
 BYTE   W01
 BYTE   PEND 
//  #04 //007   ----------------------------------------
Label_0100A78F:
 BYTE   W12
 BYTE   N12  En1  v064
 BYTE   W12
 BYTE   Dn2
 BYTE   W11
 BYTE   En2  v068
 BYTE   W12
 BYTE   En1
 BYTE   W13
 BYTE   Dn2
 BYTE   W12
 BYTE   En2
 BYTE   W11
 BYTE   En1  v076
 BYTE   W13
 BYTE   PEND 
//  #04 //008   ----------------------------------------
Label_0100A7A3:
 BYTE   PAN   c_v+27
 BYTE   N11  En1  v064
 BYTE   W11
 BYTE   N12  An2  v072
 BYTE   W13
 BYTE   Bn2
 BYTE   W11
 BYTE   En1  v076
 BYTE   W12
 BYTE   An2  v064
 BYTE   W13
 BYTE   Bn2  v068
 BYTE   W12
 BYTE   En1  v064
 BYTE   W11
 BYTE   An2  v080
 BYTE   W13
 BYTE   PEND 
//  #04 //009   ----------------------------------------
Label_0100A7BF:
 BYTE   N12  Bn2  v076
 BYTE   W11
 BYTE   En1  v072
 BYTE   W12
 BYTE   An2  v076
 BYTE   W13
 BYTE   Bn2  v072
 BYTE   W11
 BYTE   En1
 BYTE   W12
 BYTE   An2  v064
 BYTE   W13
 BYTE   Bn2  v072
 BYTE   W12
 BYTE   En1
 BYTE   W12
 BYTE   PEND 
//  #04 //010   ----------------------------------------
Label_0100A7D7:
 BYTE   N12  En1  v072
 BYTE   W12
 BYTE   An2
 BYTE   W12
 BYTE   Bn2  v068
 BYTE   W12
 BYTE   En1  v072
 BYTE   W12
 BYTE   An2
 BYTE   W11
 BYTE   Bn2  v076
 BYTE   W13
 BYTE   En1  v072
 BYTE   W11
 BYTE   An2  v068
 BYTE   W13
 BYTE   PEND 
//  #04 //011   ----------------------------------------
Label_0100A7EF:
 BYTE   N12  Bn2  v072
 BYTE   W12
 BYTE   En1
 BYTE   W11
 BYTE   An2  v068
 BYTE   W12
 BYTE   Bn2  v072
 BYTE   W13
 BYTE   En1  v076
 BYTE   W12
 BYTE   An2  v064
 BYTE   W12
 BYTE   Bn2  v076
 BYTE   W11
 BYTE   N11  En1
 BYTE   W12
 BYTE   N12  En1  v068
 BYTE   W01
 BYTE   PEND 
//  #04 //012   ----------------------------------------
Label_0100A80C:
 BYTE   W11
 BYTE   N12  An2  v068
 BYTE   W12
 BYTE   Bn2  v080
 BYTE   W12
 BYTE   En1  v060
 BYTE   W12
 BYTE   An2  v076
 BYTE   W13
 BYTE   Bn2
 BYTE   W12
 BYTE   En1  v064
 BYTE   W12
 BYTE   An2  v068
 BYTE   W12
 BYTE   PEND 
//  #04 //013   ----------------------------------------
Label_0100A823:
 BYTE   N12  Bn2  v060
 BYTE   W11
 BYTE   En1  v076
 BYTE   W13
 BYTE   An2  v072
 BYTE   W12
 BYTE   Bn2  v064
 BYTE   W12
 BYTE   En1  v068
 BYTE   W12
 BYTE   An2  v072
 BYTE   W11
 BYTE   Bn2  v064
 BYTE   W12
 BYTE   En1  v076
 BYTE   W13
 BYTE   PEND 
//  #04 //014   ----------------------------------------
Label_0100A83D:
 BYTE   N12  En1  v068
 BYTE   W11
 BYTE   An2  v072
 BYTE   W12
 BYTE   Bn2
 BYTE   W12
 BYTE   En1
 BYTE   W12
 BYTE   An2  v076
 BYTE   W12
 BYTE   Bn2  v068
 BYTE   W12
 BYTE   En1  v072
 BYTE   W12
 BYTE   An2  v076
 BYTE   W13
 BYTE   PEND 
//  #04 //015   ----------------------------------------
Label_0100A855:
 BYTE   N12  Bn2  v072
 BYTE   W12
 BYTE   En1  v064
 BYTE   W11
 BYTE   An2
 BYTE   W12
 BYTE   Bn2  v072
 BYTE   W12
 BYTE   En1  v064
 BYTE   W13
 BYTE   An2
 BYTE   W11
 BYTE   Bn2  v072
 BYTE   W12
 BYTE   En1  v076
 BYTE   W13
 BYTE   PEND 
//  #04 //016   ----------------------------------------
Label_0100A86D:
 BYTE   VOL   27*BattleA3_mvl/mxv
 BYTE   N24  Bn1  v092
 BYTE   N24  Fs2  v100
 BYTE   W36
 BYTE   N11  Cn2  v096
 BYTE   N11  Gn2  v100
 BYTE   W11
 BYTE   N12  Cn2  v096
 BYTE   N12  Gn2  v100
 BYTE   W24
 BYTE   N11  Fs2
 BYTE   W01
 BYTE   Bn1  v096
 BYTE   W11
 BYTE   N12  Fs2
 BYTE   W01
 BYTE   Bn1  v092
 BYTE   W12
 BYTE   PEND 
//  #04 //017   ----------------------------------------
Label_0100A891:
 BYTE   W11
 BYTE   N12  Cn2  v096
 BYTE   W01
 BYTE   N11  Gn2
 BYTE   W12
 BYTE   N12  Cn2
 BYTE   N12  Gn2  v104
 BYTE   W23
 BYTE   N24  En2  v100
 BYTE   W01
 BYTE   An1  v092
 BYTE   W23
 BYTE   Gn2  v096
 BYTE   W01
 BYTE   Cn2  v100
 BYTE   W24
 BYTE   PEND 
//  #04 //018   ----------------------------------------
Label_0100A8AD:
 BYTE   N24  Bn1  v096
 BYTE   N24  Fs2  v100
 BYTE   W32
 BYTE   W03
 BYTE   N12  Cn2
 BYTE   N12  Gn2
 BYTE   W12
 BYTE   Gn2  v096
 BYTE   W01
 BYTE   Cn2
 BYTE   W23
 BYTE   N11  Fs2
 BYTE   W01
 BYTE   N12  Bn1  v092
 BYTE   W11
 BYTE   Fs2  v100
 BYTE   W01
 BYTE   Bn1
 BYTE   W12
 BYTE   PEND 
//  #04 //019   ----------------------------------------
 BYTE   W11
 BYTE   Cn2  v088
 BYTE   N12  Gn2  v100
 BYTE   W12
 BYTE   N12
 BYTE   W01
 BYTE   Cn2  v096
 BYTE   W23
 BYTE   N24  En2
 BYTE   W01
 BYTE   N23  An1  v092
 BYTE   W23
 BYTE   N12  An1  v096
 BYTE   N12  En2  v100
 BYTE   W13
 BYTE   An1  v108
 BYTE   N12  En2  v100
 BYTE   W11
 BYTE   N24  Bn1  v096
 BYTE   W01
//  #04 //020   ----------------------------------------
 BYTE   Fs2
 BYTE   W32
 BYTE   W03
 BYTE   N11  Cn2
 BYTE   W01
 BYTE   N12  Gn2
 BYTE   W12
 BYTE   Cn2
 BYTE   N12  Gn2  v088
 BYTE   W23
 BYTE   Bn1  v096
 BYTE   W01
 BYTE   N11  Fs2  v092
 BYTE   W11
 BYTE   N12  Bn1  v096
 BYTE   N12  Fs2  v100
 BYTE   W13
//  #04 //021   ----------------------------------------
Label_0100A90C:
 BYTE   W11
 BYTE   N11  Gn2  v096
 BYTE   W01
 BYTE   Cn2  v100
 BYTE   W11
 BYTE   N12
 BYTE   N12  Gn2  v088
 BYTE   W24
 BYTE   N24  An1  v104
 BYTE   W01
 BYTE   En2  v108
 BYTE   W23
 BYTE   Cn2  v100
 BYTE   W01
 BYTE   Gn2
 BYTE   W24
 BYTE   PEND 
//  #04 //022   ----------------------------------------
Label_0100A926:
 BYTE   N24  Bn1  v100
 BYTE   N24  Fs2  v104
 BYTE   W32
 BYTE   W03
 BYTE   N11  Fs2  v092
 BYTE   W01
 BYTE   Bn1  v104
 BYTE   W11
 BYTE   N12  Fs2  v096
 BYTE   W01
 BYTE   Bn1
 BYTE   W24
 BYTE   N11
 BYTE   N11  Fs2
 BYTE   W11
 BYTE   N12
 BYTE   W01
 BYTE   Bn1  v100
 BYTE   W11
 BYTE   An2  v096
 BYTE   W01
 BYTE   PEND 
//  #04 //023   ----------------------------------------
Label_0100A948:
 BYTE   N12  Dn2  v096
 BYTE   W12
 BYTE   N11
 BYTE   N11  An2
 BYTE   W11
 BYTE   N12
 BYTE   W01
 BYTE   N11  Dn2  v100
 BYTE   W11
 BYTE   N12  Dn2  v108
 BYTE   N12  An2  v100
 BYTE   W13
 BYTE   N11  Ds2  v104
 BYTE   N11  As2  v096
 BYTE   W11
 BYTE   N12  Ds2  v108
 BYTE   N11  As2  v100
 BYTE   W12
 BYTE   N12  As2  v092
 BYTE   W01
 BYTE   N11  Ds2  v096
 BYTE   W11
 BYTE   N12
 BYTE   W01
 BYTE   As2  v104
 BYTE   W12
 BYTE   PEND 
//  #04 //024   ----------------------------------------
 BYTE   VOL   33*BattleA3_mvl/mxv
 BYTE   PAN   c_v+34
 BYTE   N11  En1  v068
 BYTE   W11
 BYTE   N12  Dn2
 BYTE   W13
 BYTE   En2  v072
 BYTE   W11
 BYTE   En1  v076
 BYTE   W13
 BYTE   Dn2  v060
 BYTE   W12
 BYTE   En2  v064
 BYTE   W12
 BYTE   En1
 BYTE   W12
 BYTE   Dn2  v080
 BYTE   W12
//  #04 //025   ----------------------------------------
 BYTE   PATT
  POIN2 Label_0100A6F0
//  #04 //026   ----------------------------------------
 BYTE   PATT
  POIN2 Label_0100A709
//  #04 //027   ----------------------------------------
 BYTE   PATT
  POIN2 Label_0100A722
//  #04 //028   ----------------------------------------
 BYTE   PATT
  POIN2 Label_0100A73D
//  #04 //029   ----------------------------------------
 BYTE   PATT
  POIN2 Label_0100A758
//  #04 //030   ----------------------------------------
 BYTE   PATT
  POIN2 Label_0100A772
//  #04 //031   ----------------------------------------
 BYTE   PATT
  POIN2 Label_0100A78F
//  #04 //032   ----------------------------------------
 BYTE   PATT
  POIN2 Label_0100A7A3
//  #04 //033   ----------------------------------------
 BYTE   PATT
  POIN2 Label_0100A7BF
//  #04 //034   ----------------------------------------
 BYTE   PATT
  POIN2 Label_0100A7D7
//  #04 //035   ----------------------------------------
 BYTE   PATT
  POIN2 Label_0100A7EF
//  #04 //036   ----------------------------------------
 BYTE   PATT
  POIN2 Label_0100A80C
//  #04 //037   ----------------------------------------
 BYTE   PATT
  POIN2 Label_0100A823
//  #04 //038   ----------------------------------------
 BYTE   PATT
  POIN2 Label_0100A83D
//  #04 //039   ----------------------------------------
 BYTE   PATT
  POIN2 Label_0100A855
//  #04 //040   ----------------------------------------
 BYTE   PATT
  POIN2 Label_0100A86D
//  #04 //041   ----------------------------------------
 BYTE   PATT
  POIN2 Label_0100A891
//  #04 //042   ----------------------------------------
 BYTE   PATT
  POIN2 Label_0100A8AD
//  #04 //043   ----------------------------------------
Label_0100A9EF:
 BYTE   W11
 BYTE   N12  Cn2  v088
 BYTE   N12  Gn2  v100
 BYTE   W12
 BYTE   N12
 BYTE   W01
 BYTE   Cn2  v096
 BYTE   W23
 BYTE   N24  En2
 BYTE   W01
 BYTE   N23  An1  v092
 BYTE   W23
 BYTE   N12  An1  v096
 BYTE   N12  En2  v100
 BYTE   W13
 BYTE   N11  An1  v108
 BYTE   N11  En2  v100
 BYTE   W11
 BYTE   N01  Bn1  v096
 BYTE   W01
 BYTE   PEND 
//  #04 //044   ----------------------------------------
 BYTE   PATT
  POIN2 Label_0100A86D
//  #04 //045   ----------------------------------------
 BYTE   PATT
  POIN2 Label_0100A891
//  #04 //046   ----------------------------------------
 BYTE   PATT
  POIN2 Label_0100A8AD
//  #04 //047   ----------------------------------------
 BYTE   PATT
  POIN2 Label_0100A9EF
//  #04 //048   ----------------------------------------
 BYTE   PATT
  POIN2 Label_0100A86D
//  #04 //049   ----------------------------------------
 BYTE   PATT
  POIN2 Label_0100A891
//  #04 //050   ----------------------------------------
 BYTE   PATT
  POIN2 Label_0100A8AD
//  #04 //051   ----------------------------------------
 BYTE   PATT
  POIN2 Label_0100A9EF
//  #04 //052   ----------------------------------------
 BYTE   VOL   27*BattleA3_mvl/mxv
 BYTE   N01  An1  v108
 BYTE   N23  Bn1  v096
 BYTE   N01  En2  v100
 BYTE   N24  Fs2  v096
 BYTE   W32
 BYTE   W03
 BYTE   N11  Cn2
 BYTE   W01
 BYTE   N12  Gn2
 BYTE   W12
 BYTE   Cn2
 BYTE   N12  Gn2  v088
 BYTE   W23
 BYTE   Bn1  v096
 BYTE   W01
 BYTE   N11  Fs2  v092
 BYTE   W11
 BYTE   N12  Bn1  v096
 BYTE   N12  Fs2  v100
 BYTE   W13
//  #04 //053   ----------------------------------------
 BYTE   PATT
  POIN2 Label_0100A90C
//  #04 //054   ----------------------------------------
 BYTE   PATT
  POIN2 Label_0100A926
//  #04 //055   ----------------------------------------
 BYTE   PATT
  POIN2 Label_0100A948
//  #04 //056   ----------------------------------------
 BYTE   VOL   26*BattleA3_mvl/mxv
 BYTE   N11  En2  v100
 BYTE   W11
 BYTE   N12
 BYTE   W12
 BYTE   N11  En2  v092
 BYTE   N12  Bn2  v104
 BYTE   W12
 BYTE   En2  v076
 BYTE   W12
 BYTE   N11  En2  v096
 BYTE   W12
 BYTE   N12
 BYTE   N12  Bn2  v092
 BYTE   W13
 BYTE   N11  En2
 BYTE   W12
 BYTE   N11
 BYTE   W11
 BYTE   N12  En2  v100
 BYTE   W01
//  #04 //057   ----------------------------------------
 BYTE   Bn2
 BYTE   W12
 BYTE   N11  En2  v072
 BYTE   W12
 BYTE   En2  v100
 BYTE   W11
 BYTE   N12  En2  v104
 BYTE   N12  Bn2  v096
 BYTE   W12
 BYTE   N11  En2  v092
 BYTE   W12
 BYTE   N12  En2  v088
 BYTE   W13
 BYTE   N11  En2  v100
 BYTE   N12  Bn2
 BYTE   W12
 BYTE   N11  En2  v076
 BYTE   W11
 BYTE   N12  En2  v100
 BYTE   W01
//  #04 //058   ----------------------------------------
 BYTE   W12
 BYTE   N11  En2  v088
 BYTE   W11
 BYTE   En2  v092
 BYTE   N12  Bn2  v096
 BYTE   W12
 BYTE   N11  En2  v072
 BYTE   W12
 BYTE   N12  En2  v096
 BYTE   W12
 BYTE   N12
 BYTE   W01
 BYTE   Bn2  v104
 BYTE   W12
 BYTE   N11  En2  v088
 BYTE   W11
 BYTE   En2  v096
 BYTE   W12
 BYTE   En2  v100
 BYTE   N12  Bn2  v096
 BYTE   W01
//  #04 //059   ----------------------------------------
 BYTE   W11
 BYTE   En2  v076
 BYTE   W13
 BYTE   N11  En2  v096
 BYTE   W11
 BYTE   N12  En2  v100
 BYTE   W01
 BYTE   Bn2  v088
 BYTE   W11
 BYTE   En2  v096
 BYTE   W13
 BYTE   N11  En2  v092
 BYTE   W11
 BYTE   N12  En2  v100
 BYTE   N12  Bn2
 BYTE   W13
 BYTE   N11  En2  v068
 BYTE   W12
//  #04 //060   ----------------------------------------
 BYTE   En2  v100
 BYTE   W11
 BYTE   N12  En2  v096
 BYTE   W12
 BYTE   Bn2  v104
 BYTE   W01
 BYTE   En2  v096
 BYTE   W12
 BYTE   N11  En2  v072
 BYTE   W11
 BYTE   En2  v092
 BYTE   W12
 BYTE   En2  v088
 BYTE   N12  Bn2
 BYTE   W12
 BYTE   En2  v096
 BYTE   W13
 BYTE   N11  En2  v092
 BYTE   W11
 BYTE   N12  En2  v096
 BYTE   N12  Bn2  v100
 BYTE   W01
//  #04 //061   ----------------------------------------
 BYTE   W12
 BYTE   En2  v064
 BYTE   W12
 BYTE   N11  En2  v096
 BYTE   W11
 BYTE   N12  En2  v100
 BYTE   W01
 BYTE   Bn2  v096
 BYTE   W12
 BYTE   N11  En2
 BYTE   W11
 BYTE   N12  En2  v092
 BYTE   W12
 BYTE   En2  v096
 BYTE   W01
 BYTE   Bn2  v100
 BYTE   W12
 BYTE   N11  En2  v080
 BYTE   W12
//  #04 //062   ----------------------------------------
 BYTE   En2  v088
 BYTE   W12
 BYTE   N11
 BYTE   W11
 BYTE   N12  Bn2  v092
 BYTE   W01
 BYTE   N11  En2  v100
 BYTE   W11
 BYTE   En2  v076
 BYTE   W13
 BYTE   En2  v088
 BYTE   W12
 BYTE   En2  v092
 BYTE   N12  Bn2  v100
 BYTE   W11
 BYTE   En2  v092
 BYTE   W13
 BYTE   En2  v096
 BYTE   W12
//  #04 //063   ----------------------------------------
 BYTE   N11
 BYTE   N12  Bn2  v100
 BYTE   W11
 BYTE   En2  v080
 BYTE   W13
 BYTE   N11  En2  v092
 BYTE   W11
 BYTE   En2  v100
 BYTE   W01
 BYTE   N12  Bn2  v096
 BYTE   W11
 BYTE   En2  v092
 BYTE   W13
 BYTE   N11
 BYTE   W11
 BYTE   En2  v096
 BYTE   W01
 BYTE   N12  Bn2  v100
 BYTE   W11
 BYTE   En2  v080
 BYTE   W12
 BYTE   N11  Fs2  v092
 BYTE   W01
//  #04 //064   ----------------------------------------
 BYTE   W11
 BYTE   Fs2  v104
 BYTE   W13
 BYTE   Fs2  v092
 BYTE   N12  Cs3  v096
 BYTE   W12
 BYTE   Fs2  v076
 BYTE   W12
 BYTE   N11  Fs2  v092
 BYTE   W11
 BYTE   Fs2  v096
 BYTE   N12  Cs3
 BYTE   W13
 BYTE   Fs2  v100
 BYTE   W12
 BYTE   N11  Fs2  v088
 BYTE   W11
 BYTE   N12  Fs2  v096
 BYTE   N12  Cs3  v100
 BYTE   W01
//  #04 //065   ----------------------------------------
 BYTE   W12
 BYTE   N11  Fs2  v076
 BYTE   W11
 BYTE   N12  Fs2  v096
 BYTE   W13
 BYTE   N11
 BYTE   N12  Cs3  v108
 BYTE   W11
 BYTE   N11  Fs2  v096
 BYTE   W12
 BYTE   Fs2  v100
 BYTE   W12
 BYTE   N12  Fs2  v096
 BYTE   W01
 BYTE   Cs3
 BYTE   W11
 BYTE   Fs2  v072
 BYTE   W13
//  #04 //066   ----------------------------------------
 BYTE   N11  Fs2  v096
 BYTE   W12
 BYTE   N12  Fs2  v108
 BYTE   W11
 BYTE   Cs3  v100
 BYTE   W01
 BYTE   N11  Fs2  v108
 BYTE   W11
 BYTE   N12  Fs2  v080
 BYTE   W13
 BYTE   N11  Fs2  v096
 BYTE   W12
 BYTE   Fs2  v100
 BYTE   N12  Cs3  v096
 BYTE   W12
 BYTE   N11  Fs2  v100
 BYTE   W11
 BYTE   Fs2  v088
 BYTE   W12
 BYTE   N12  Cs3  v096
 BYTE   W01
//  #04 //067   ----------------------------------------
 BYTE   N11  Fs2  v104
 BYTE   W12
 BYTE   Fs2  v072
 BYTE   W11
 BYTE   Fs2  v084
 BYTE   W12
 BYTE   Fs2  v096
 BYTE   W01
 BYTE   N12  Cs3  v100
 BYTE   W11
 BYTE   Fs2  v096
 BYTE   W13
 BYTE   N11
 BYTE   W12
 BYTE   Fs2  v112
 BYTE   N12  Cs3  v100
 BYTE   W12
 BYTE   N11  Fs2  v076
 BYTE   W11
 BYTE   Fs2  v100
 BYTE   W01
//  #04 //068   ----------------------------------------
 BYTE   W11
 BYTE   Fs2  v096
 BYTE   W12
 BYTE   N12
 BYTE   N12  Cs3  v092
 BYTE   W12
 BYTE   Fs2  v076
 BYTE   W13
 BYTE   Fs2  v092
 BYTE   W12
 BYTE   N11  Fs2  v104
 BYTE   N12  Cs3  v096
 BYTE   W12
 BYTE   N11  Fs2
 BYTE   W11
 BYTE   N12  Fs2  v092
 BYTE   W12
 BYTE   N12
 BYTE   W01
//  #04 //069   ----------------------------------------
 BYTE   Cs3  v096
 BYTE   W12
 BYTE   N11  Fs2  v076
 BYTE   W11
 BYTE   N12  Fs2  v096
 BYTE   W13
 BYTE   N11
 BYTE   N12  Cs3  v092
 BYTE   W11
 BYTE   Fs2  v096
 BYTE   W12
 BYTE   Fs2  v092
 BYTE   W13
 BYTE   N11  Fs2  v096
 BYTE   N12  Cs3  v092
 BYTE   W12
 BYTE   N11  Fs2  v084
 BYTE   W12
//  #04 //070   ----------------------------------------
 BYTE   Fs2  v092
 BYTE   W12
 BYTE   Fs2  v088
 BYTE   W11
 BYTE   N12  Cs3  v096
 BYTE   W01
 BYTE   Fs2  v104
 BYTE   W12
 BYTE   N11  Fs2  v076
 BYTE   W11
 BYTE   Fs2  v100
 BYTE   W12
 BYTE   Fs2  v096
 BYTE   N12  Cs3  v100
 BYTE   W12
 BYTE   Fs2
 BYTE   W13
 BYTE   N11  Fs2  v096
 BYTE   W11
 BYTE   Fs2  v100
 BYTE   N12  Cs3  v096
 BYTE   W01
//  #04 //071   ----------------------------------------
 BYTE   W11
 BYTE   Fs2  v076
 BYTE   W12
 BYTE   N11  Fs2  v092
 BYTE   W12
 BYTE   Fs2  v100
 BYTE   W01
 BYTE   N12  Cs3  v092
 BYTE   W11
 BYTE   N11  Fs2
 BYTE   W12
 BYTE   N11
 BYTE   W12
 BYTE   Fs2  v088
 BYTE   N12  Cs3
 BYTE   W12
 BYTE   Fs2  v076
 BYTE   W12
 BYTE   En2  v096
 BYTE   W01
//  #04 //072   ----------------------------------------
 BYTE   W12
 BYTE   N11
 BYTE   W11
 BYTE   En2  v104
 BYTE   N12  Bn2  v100
 BYTE   W12
 BYTE   En2  v080
 BYTE   W13
 BYTE   N11  En2  v084
 BYTE   W11
 BYTE   En2  v096
 BYTE   N12  Bn2  v104
 BYTE   W13
 BYTE   En2  v092
 BYTE   W12
 BYTE   N11  En2  v088
 BYTE   W11
 BYTE   N12  Bn2  v104
 BYTE   W01
//  #04 //073   ----------------------------------------
 BYTE   N11  En2  v100
 BYTE   W11
 BYTE   N12  En2  v072
 BYTE   W12
 BYTE   N11  En2  v100
 BYTE   W13
 BYTE   N12  En2  v096
 BYTE   N12  Bn2
 BYTE   W12
 BYTE   N11  En2  v092
 BYTE   W12
 BYTE   N11
 BYTE   W11
 BYTE   En2  v100
 BYTE   W01
 BYTE   N12  Bn2  v092
 BYTE   W11
 BYTE   En2  v076
 BYTE   W13
//  #04 //074   ----------------------------------------
 BYTE   N11  En2  v092
 BYTE   W12
 BYTE   N11
 BYTE   W12
 BYTE   En2  v104
 BYTE   N12  Bn2  v100
 BYTE   W11
 BYTE   En2  v076
 BYTE   W13
 BYTE   N11  En2  v092
 BYTE   W11
 BYTE   En2  v100
 BYTE   N12  Bn2
 BYTE   W12
 BYTE   N11  En2
 BYTE   W12
 BYTE   N12
 BYTE   W12
 BYTE   Bn2  v092
 BYTE   W01
//  #04 //075   ----------------------------------------
 BYTE   N11  En2  v096
 BYTE   W12
 BYTE   N12  En2  v072
 BYTE   W12
 BYTE   N11  En2  v100
 BYTE   W11
 BYTE   En2  v096
 BYTE   W01
 BYTE   N12  Bn2
 BYTE   W11
 BYTE   N11  En2  v100
 BYTE   W12
 BYTE   N12  En2  v092
 BYTE   W13
 BYTE   N11  En2  v096
 BYTE   N12  Bn2  v100
 BYTE   W11
 BYTE   N11  En2  v072
 BYTE   W12
 BYTE   N12  En2  v088
 BYTE   W01
//  #04 //076   ----------------------------------------
 BYTE   W11
 BYTE   En2  v092
 BYTE   W12
 BYTE   Bn2  v096
 BYTE   W01
 BYTE   N11  En2  v104
 BYTE   W11
 BYTE   En2  v072
 BYTE   W13
 BYTE   En2  v096
 BYTE   W11
 BYTE   N12  En2  v100
 BYTE   W01
 BYTE   Bn2  v096
 BYTE   W11
 BYTE   N11  En2  v088
 BYTE   W12
 BYTE   N12  En2  v104
 BYTE   W13
//  #04 //077   ----------------------------------------
 BYTE   N11  En2  v100
 BYTE   N12  Bn2  v096
 BYTE   W11
 BYTE   En2  v072
 BYTE   W13
 BYTE   N11  En2  v096
 BYTE   W11
 BYTE   N12  En2  v092
 BYTE   W01
 BYTE   Bn2  v100
 BYTE   W12
 BYTE   N11  En2  v092
 BYTE   W12
 BYTE   En2  v100
 BYTE   W11
 BYTE   En2  v092
 BYTE   W01
 BYTE   N12  Bn2  v104
 BYTE   W11
 BYTE   En2  v076
 BYTE   W13
//  #04 //078   ----------------------------------------
 BYTE   N11  En2  v092
 BYTE   W12
 BYTE   En2  v096
 BYTE   W12
 BYTE   N12  En2  v100
 BYTE   N12  Bn2  v092
 BYTE   W12
 BYTE   N11  En2  v072
 BYTE   W12
 BYTE   En2  v092
 BYTE   W11
 BYTE   N12  En2  v096
 BYTE   W01
 BYTE   Bn2  v100
 BYTE   W12
 BYTE   N11  En2  v096
 BYTE   W11
 BYTE   En2  v088
 BYTE   W12
 BYTE   N12  En2  v104
 BYTE   W01
//  #04 //079   ----------------------------------------
 BYTE   Bn2  v096
 BYTE   W12
 BYTE   N11  En2  v072
 BYTE   W11
 BYTE   N12  En2  v096
 BYTE   W12
 BYTE   Bn2
 BYTE   W01
 BYTE   N11  En2  v108
 BYTE   W12
 BYTE   En2  v092
 BYTE   W12
 BYTE   N12
 BYTE   W12
 BYTE   N11  En2  v096
 BYTE   N12  Bn2
 BYTE   W11
 BYTE   En2  v080
 BYTE   W13
//  #04 //080   ----------------------------------------
 BYTE   N11  Fs2  v100
 BYTE   W11
 BYTE   N12  Fs2  v092
 BYTE   W13
 BYTE   N11
 BYTE   N12  Cs3  v088
 BYTE   W11
 BYTE   Fs2  v072
 BYTE   W12
 BYTE   Fs2  v096
 BYTE   W12
 BYTE   Fs2  v100
 BYTE   N12  Cs3  v092
 BYTE   W13
 BYTE   N11  Fs2  v096
 BYTE   W12
 BYTE   Fs2  v100
 BYTE   W11
 BYTE   N12  Fs2  v104
 BYTE   N12  Cs3  v096
 BYTE   W01
//  #04 //081   ----------------------------------------
 BYTE   W12
 BYTE   N11  Fs2  v072
 BYTE   W11
 BYTE   N12  Fs2  v096
 BYTE   W12
 BYTE   N12
 BYTE   N12  Cs3  v104
 BYTE   W13
 BYTE   N11  Fs2  v096
 BYTE   W11
 BYTE   N12  Fs2  v100
 BYTE   W13
 BYTE   N11
 BYTE   N12  Cs3  v096
 BYTE   W12
 BYTE   N11  Fs2  v080
 BYTE   W12
//  #04 //082   ----------------------------------------
 BYTE   Fs2  v100
 BYTE   W11
 BYTE   N12  Fs2  v092
 BYTE   W12
 BYTE   Cs3  v088
 BYTE   W01
 BYTE   Fs2  v096
 BYTE   W12
 BYTE   N11  Fs2  v076
 BYTE   W11
 BYTE   N12  Fs2  v096
 BYTE   W13
 BYTE   N11  Fs2  v100
 BYTE   N12  Cs3  v096
 BYTE   W11
 BYTE   Fs2  v100
 BYTE   W12
 BYTE   N11  Fs2  v096
 BYTE   W12
 BYTE   N12
 BYTE   W01
//  #04 //083   ----------------------------------------
 BYTE   Cs3  v100
 BYTE   W12
 BYTE   N11  Fs2  v076
 BYTE   W12
 BYTE   N12  Fs2  v096
 BYTE   W12
 BYTE   N11  Fs2  v104
 BYTE   N12  Cs3  v092
 BYTE   W11
 BYTE   N11  Fs2  v096
 BYTE   W12
 BYTE   N12
 BYTE   W12
 BYTE   Cs3  v100
 BYTE   W01
 BYTE   N11  Fs2  v096
 BYTE   W12
 BYTE   N12  Fs2  v080
 BYTE   W12
//  #04 //084   ----------------------------------------
 BYTE   N11  Fs2  v096
 BYTE   W11
 BYTE   N12
 BYTE   W12
 BYTE   N11
 BYTE   N12  Cs3  v100
 BYTE   W12
 BYTE   N11  Fs2  v076
 BYTE   W12
 BYTE   Fs2  v100
 BYTE   W12
 BYTE   N12  Fs2  v096
 BYTE   W01
 BYTE   Cs3  v092
 BYTE   W11
 BYTE   N11  Fs2
 BYTE   W12
 BYTE   N12
 BYTE   W12
 BYTE   N11  Fs2  v104
 BYTE   N12  Cs3
 BYTE   W01
//  #04 //085   ----------------------------------------
 BYTE   W11
 BYTE   Fs2  v076
 BYTE   W12
 BYTE   Fs2  v096
 BYTE   W12
 BYTE   Cs3  v100
 BYTE   W01
 BYTE   N11  Fs2  v088
 BYTE   W11
 BYTE   N12  Fs2  v100
 BYTE   W12
 BYTE   N11  Fs2  v096
 BYTE   W12
 BYTE   N12  Fs2  v092
 BYTE   W01
 BYTE   Cs3  v096
 BYTE   W12
 BYTE   Fs2  v076
 BYTE   W12
//  #04 //086   ----------------------------------------
 BYTE   N11  Fs2  v096
 BYTE   W11
 BYTE   N12
 BYTE   W13
 BYTE   N11
 BYTE   N12  Cs3  v088
 BYTE   W11
 BYTE   Fs2  v076
 BYTE   W13
 BYTE   N11  Fs2  v096
 BYTE   W11
 BYTE   N12  Cs3  v100
 BYTE   W01
 BYTE   Fs2  v096
 BYTE   W12
 BYTE   N11
 BYTE   W12
 BYTE   Fs2  v088
 BYTE   W12
//  #04 //087   ----------------------------------------
 BYTE   N12  Fs2  v092
 BYTE   N12  Cs3  v096
 BYTE   W12
 BYTE   N11  Fs2  v068
 BYTE   W12
 BYTE   Fs2  v092
 BYTE   W11
 BYTE   Fs2  v100
 BYTE   W01
 BYTE   N12  Cs3  v096
 BYTE   W11
 BYTE   Fs2  v100
 BYTE   W13
 BYTE   N11  Fs2  v096
 BYTE   W11
 BYTE   N12  Fs2  v100
 BYTE   W01
 BYTE   Cs3
 BYTE   W12
 BYTE   Fs2  v076
 BYTE   W12
//  #04 //088   ----------------------------------------
 BYTE   W96
//  #04 //089   ----------------------------------------
 BYTE   W96
//  #04 //090   ----------------------------------------
 BYTE   W96
//  #04 //091   ----------------------------------------
 BYTE   W96
//  #04 //092   ----------------------------------------
 BYTE   W96
//  #04 //093   ----------------------------------------
 BYTE   W96
//  #04 //094   ----------------------------------------
 BYTE   W96
//  #04 //095   ----------------------------------------
 BYTE   W96
//  #04 //096   ----------------------------------------
 BYTE   W96
//  #04 //097   ----------------------------------------
 BYTE   W96
//  #04 //098   ----------------------------------------
 BYTE   W96
//  #04 //099   ----------------------------------------
 BYTE   W96
//  #04 //100   ----------------------------------------
 BYTE   W96
//  #04 //101   ----------------------------------------
 BYTE   W96
//  #04 //102   ----------------------------------------
 BYTE   W96
//  #04 //103   ----------------------------------------
 BYTE   W96
//  #04 //104   ----------------------------------------
 BYTE   GoTo
  POIN2 Label_0100A6D2
 BYTE   FINE

//**************** Track 5 (Midi-Chn.4) ****************//

BattleA3_005:
//  #05 //000   ----------------------------------------
 BYTE   KEYSH   BattleA3_key+0
Label_0100843E:
 BYTE   VOICE   104
 BYTE   PAN   c_v+10
 BYTE   VOL   38*BattleA3_mvl/mxv
 BYTE   PAN   c_v+10
 BYTE   TIE  Bn3  v096
 BYTE   TIE  En4
 BYTE   W96
//  #05 //001   ----------------------------------------
 BYTE   W96
//  #05 //002   ----------------------------------------
 BYTE   EOT
 BYTE   Bn3  v076
Label_01008450:
 BYTE   TIE  An3  v096
 BYTE   TIE  Dn4
 BYTE   W96
 BYTE   PEND 
//  #05 //003   ----------------------------------------
 BYTE   W96
//  #05 //004   ----------------------------------------
 BYTE   EOT
 BYTE   An3  v074
Label_0100845B:
 BYTE   TIE  An3  v096
 BYTE   TIE  Cs4
 BYTE   W96
 BYTE   PEND 
//  #05 //005   ----------------------------------------
 BYTE   W96
//  #05 //006   ----------------------------------------
 BYTE   EOT
 BYTE   An3  v073
Label_01008466:
 BYTE   TIE  Gn3  v096
 BYTE   TIE  Cn4
 BYTE   W96
 BYTE   PEND 
//  #05 //007   ----------------------------------------
 BYTE   W96
//  #05 //008   ----------------------------------------
 BYTE   EOT
 BYTE   Gn3  v072
Label_01008471:
 BYTE   TIE  Bn3  v096
 BYTE   TIE  En4
 BYTE   W96
 BYTE   PEND 
//  #05 //009   ----------------------------------------
 BYTE   W96
//  #05 //010   ----------------------------------------
 BYTE   EOT
 BYTE   Bn3  v076
//  #05 //011   ----------------------------------------
 BYTE   PATT
  POIN2 Label_01008450
//  #05 //012   ----------------------------------------
 BYTE   W96
//  #05 //013   ----------------------------------------
 BYTE   EOT
 BYTE   An3  v074
//  #05 //014   ----------------------------------------
 BYTE   PATT
  POIN2 Label_0100845B
//  #05 //015   ----------------------------------------
 BYTE   W96
//  #05 //016   ----------------------------------------
 BYTE   EOT
 BYTE   An3  v073
//  #05 //017   ----------------------------------------
 BYTE   PATT
  POIN2 Label_01008466
//  #05 //018   ----------------------------------------
 BYTE   W96
//  #05 //019   ----------------------------------------
 BYTE   EOT
 BYTE   Gn3  v072
 BYTE   W96
//  #05 //020   ----------------------------------------
 BYTE   W96
//  #05 //021   ----------------------------------------
 BYTE   W96
//  #05 //022   ----------------------------------------
 BYTE   W96
//  #05 //023   ----------------------------------------
 BYTE   W96
//  #05 //024   ----------------------------------------
 BYTE   W96
//  #05 //025   ----------------------------------------
 BYTE   W96
//  #05 //026   ----------------------------------------
 BYTE   W96
//  #05 //027   ----------------------------------------
 BYTE   VOL   32*BattleA3_mvl/mxv
 BYTE   TIE  Bn3  v096
 BYTE   TIE  En4
 BYTE   W96
//  #05 //028   ----------------------------------------
 BYTE   W96
//  #05 //029   ----------------------------------------
 BYTE   EOT
 BYTE   Bn3  v076
//  #05 //030   ----------------------------------------
 BYTE   PATT
  POIN2 Label_01008450
//  #05 //031   ----------------------------------------
 BYTE   W96
//  #05 //032   ----------------------------------------
 BYTE   EOT
 BYTE   An3  v074
//  #05 //033   ----------------------------------------
 BYTE   PATT
  POIN2 Label_0100845B
//  #05 //034   ----------------------------------------
 BYTE   W96
//  #05 //035   ----------------------------------------
 BYTE   EOT
 BYTE   An3  v073
//  #05 //036   ----------------------------------------
 BYTE   PATT
  POIN2 Label_01008466
//  #05 //037   ----------------------------------------
 BYTE   W96
//  #05 //038   ----------------------------------------
 BYTE   EOT
 BYTE   Gn3  v072
//  #05 //039   ----------------------------------------
 BYTE   PATT
  POIN2 Label_01008471
//  #05 //040   ----------------------------------------
 BYTE   W96
//  #05 //041   ----------------------------------------
 BYTE   EOT
 BYTE   Bn3  v076
//  #05 //042   ----------------------------------------
 BYTE   PATT
  POIN2 Label_01008450
//  #05 //043   ----------------------------------------
 BYTE   W96
//  #05 //044   ----------------------------------------
 BYTE   EOT
 BYTE   An3  v074
//  #05 //045   ----------------------------------------
 BYTE   PATT
  POIN2 Label_0100845B
//  #05 //046   ----------------------------------------
 BYTE   W96
//  #05 //047   ----------------------------------------
 BYTE   EOT
 BYTE   An3  v073
//  #05 //048   ----------------------------------------
 BYTE   PATT
  POIN2 Label_01008466
//  #05 //049   ----------------------------------------
 BYTE   W96
//  #05 //050   ----------------------------------------
 BYTE   EOT
 BYTE   Gn3  v072
 BYTE   W96
//  #05 //051   ----------------------------------------
 BYTE   W96
//  #05 //052   ----------------------------------------
 BYTE   W96
//  #05 //053   ----------------------------------------
 BYTE   W96
//  #05 //054   ----------------------------------------
 BYTE   W96
//  #05 //055   ----------------------------------------
 BYTE   W96
//  #05 //056   ----------------------------------------
 BYTE   W96
//  #05 //057   ----------------------------------------
 BYTE   W96
//  #05 //058   ----------------------------------------
 BYTE   W96
//  #05 //059   ----------------------------------------
 BYTE   W96
//  #05 //060   ----------------------------------------
 BYTE   W96
//  #05 //061   ----------------------------------------
 BYTE   W96
//  #05 //062   ----------------------------------------
 BYTE   W96
//  #05 //063   ----------------------------------------
 BYTE   W96
//  #05 //064   ----------------------------------------
 BYTE   W96
//  #05 //065   ----------------------------------------
 BYTE   W96
//  #05 //066   ----------------------------------------
 BYTE   W96
//  #05 //067   ----------------------------------------
 BYTE   W96
//  #05 //068   ----------------------------------------
 BYTE   W96
//  #05 //069   ----------------------------------------
 BYTE   W96
//  #05 //070   ----------------------------------------
 BYTE   W96
//  #05 //071   ----------------------------------------
 BYTE   W96
//  #05 //072   ----------------------------------------
 BYTE   W96
//  #05 //073   ----------------------------------------
 BYTE   W96
//  #05 //074   ----------------------------------------
 BYTE   W96
//  #05 //075   ----------------------------------------
 BYTE   W96
//  #05 //076   ----------------------------------------
 BYTE   W96
//  #05 //077   ----------------------------------------
 BYTE   W96
//  #05 //078   ----------------------------------------
 BYTE   W96
//  #05 //079   ----------------------------------------
 BYTE   W96
//  #05 //080   ----------------------------------------
 BYTE   W96
//  #05 //081   ----------------------------------------
 BYTE   W96
//  #05 //082   ----------------------------------------
 BYTE   W96
//  #05 //083   ----------------------------------------
 BYTE   W96
//  #05 //084   ----------------------------------------
 BYTE   W96
//  #05 //085   ----------------------------------------
 BYTE   W96
//  #05 //086   ----------------------------------------
 BYTE   W96
//  #05 //087   ----------------------------------------
 BYTE   W96
//  #05 //088   ----------------------------------------
 BYTE   W96
//  #05 //089   ----------------------------------------
 BYTE   W96
//  #05 //090   ----------------------------------------
 BYTE   W96
//  #05 //091   ----------------------------------------
 BYTE   W96
//  #05 //092   ----------------------------------------
 BYTE   W96
//  #05 //093   ----------------------------------------
 BYTE   W96
//  #05 //094   ----------------------------------------
 BYTE   W96
//  #05 //095   ----------------------------------------
 BYTE   W96
//  #05 //096   ----------------------------------------
 BYTE   W96
//  #05 //097   ----------------------------------------
 BYTE   W96
//  #05 //098   ----------------------------------------
 BYTE   VOL   27*BattleA3_mvl/mxv
 BYTE   TIE  Bn3  v088
 BYTE   TIE  En4
 BYTE   W96
//  #05 //099   ----------------------------------------
 BYTE   W96
//  #05 //100   ----------------------------------------
 BYTE   W96
//  #05 //101   ----------------------------------------
 BYTE   W96
//  #05 //102   ----------------------------------------
 BYTE   EOT
 BYTE   Bn3  v076
 BYTE   VOL   1*BattleA3_mvl/mxv
 BYTE   TIE  Dn4
 BYTE   TIE  Fs4
 BYTE   W01
 BYTE   VOL   3*BattleA3_mvl/mxv
 BYTE   W01
 BYTE   VOL   4*BattleA3_mvl/mxv
 BYTE   W01
 BYTE   VOL   5*BattleA3_mvl/mxv
 BYTE   W01
 BYTE   VOL   6*BattleA3_mvl/mxv
 BYTE   W01
 BYTE   VOL   7*BattleA3_mvl/mxv
 BYTE   W01
 BYTE   VOL   8*BattleA3_mvl/mxv
 BYTE   W01
 BYTE   VOL   10*BattleA3_mvl/mxv
 BYTE   W01
 BYTE   VOL   11*BattleA3_mvl/mxv
 BYTE   W01
 BYTE   VOL   12*BattleA3_mvl/mxv
 BYTE   W01
 BYTE   VOL   13*BattleA3_mvl/mxv
 BYTE   W01
 BYTE   VOL   14*BattleA3_mvl/mxv
 BYTE   W01
 BYTE   VOL   15*BattleA3_mvl/mxv
 BYTE   W01
 BYTE   VOL   17*BattleA3_mvl/mxv
 BYTE   W01
 BYTE   VOL   18*BattleA3_mvl/mxv
 BYTE   W01
 BYTE   VOL   19*BattleA3_mvl/mxv
 BYTE   W01
 BYTE   VOL   20*BattleA3_mvl/mxv
 BYTE   W01
 BYTE   VOL   21*BattleA3_mvl/mxv
 BYTE   W01
 BYTE   VOL   22*BattleA3_mvl/mxv
 BYTE   W01
 BYTE   VOL   24*BattleA3_mvl/mxv
 BYTE   W01
 BYTE   VOL   25*BattleA3_mvl/mxv
 BYTE   W01
 BYTE   VOL   25*BattleA3_mvl/mxv
 BYTE   W01
 BYTE   VOL   27*BattleA3_mvl/mxv
 BYTE   W72
 BYTE   W02
//  #05 //103   ----------------------------------------
 BYTE   W96
//  #05 //104   ----------------------------------------
 BYTE   W96
//  #05 //105   ----------------------------------------
 BYTE   W96
//  #05 //106   ----------------------------------------
 BYTE   EOT
 BYTE   Dn4  v078
 BYTE   VOL   1*BattleA3_mvl/mxv
 BYTE   TIE  En4
 BYTE   TIE  Gn4
 BYTE   W01
 BYTE   VOL   3*BattleA3_mvl/mxv
 BYTE   W01
 BYTE   VOL   4*BattleA3_mvl/mxv
 BYTE   W01
 BYTE   VOL   5*BattleA3_mvl/mxv
 BYTE   W01
 BYTE   VOL   6*BattleA3_mvl/mxv
 BYTE   W01
 BYTE   VOL   7*BattleA3_mvl/mxv
 BYTE   W01
 BYTE   VOL   8*BattleA3_mvl/mxv
 BYTE   W01
 BYTE   VOL   10*BattleA3_mvl/mxv
 BYTE   W01
 BYTE   VOL   11*BattleA3_mvl/mxv
 BYTE   W01
 BYTE   VOL   12*BattleA3_mvl/mxv
 BYTE   W01
 BYTE   VOL   13*BattleA3_mvl/mxv
 BYTE   W01
 BYTE   VOL   14*BattleA3_mvl/mxv
 BYTE   W01
 BYTE   VOL   15*BattleA3_mvl/mxv
 BYTE   W01
 BYTE   VOL   17*BattleA3_mvl/mxv
 BYTE   W01
 BYTE   VOL   18*BattleA3_mvl/mxv
 BYTE   W01
 BYTE   VOL   19*BattleA3_mvl/mxv
 BYTE   W01
 BYTE   VOL   20*BattleA3_mvl/mxv
 BYTE   W01
 BYTE   VOL   21*BattleA3_mvl/mxv
 BYTE   W01
 BYTE   VOL   22*BattleA3_mvl/mxv
 BYTE   W01
 BYTE   VOL   24*BattleA3_mvl/mxv
 BYTE   W01
 BYTE   VOL   25*BattleA3_mvl/mxv
 BYTE   W01
 BYTE   VOL   25*BattleA3_mvl/mxv
 BYTE   W01
 BYTE   VOL   27*BattleA3_mvl/mxv
 BYTE   W72
 BYTE   W02
//  #05 //107   ----------------------------------------
 BYTE   W96
//  #05 //108   ----------------------------------------
 BYTE   W96
//  #05 //109   ----------------------------------------
 BYTE   W96
//  #05 //110   ----------------------------------------
 BYTE   EOT
 BYTE   En4  v079
 BYTE   VOL   1*BattleA3_mvl/mxv
 BYTE   TIE  Dn4
 BYTE   TIE  Fs4
 BYTE   TIE  An4
 BYTE   W01
 BYTE   VOL   3*BattleA3_mvl/mxv
 BYTE   W01
 BYTE   VOL   4*BattleA3_mvl/mxv
 BYTE   W01
 BYTE   VOL   5*BattleA3_mvl/mxv
 BYTE   W01
 BYTE   VOL   6*BattleA3_mvl/mxv
 BYTE   W01
 BYTE   VOL   7*BattleA3_mvl/mxv
 BYTE   W01
 BYTE   VOL   8*BattleA3_mvl/mxv
 BYTE   W01
 BYTE   VOL   10*BattleA3_mvl/mxv
 BYTE   W01
 BYTE   VOL   11*BattleA3_mvl/mxv
 BYTE   W01
 BYTE   VOL   12*BattleA3_mvl/mxv
 BYTE   W01
 BYTE   VOL   13*BattleA3_mvl/mxv
 BYTE   W01
 BYTE   VOL   14*BattleA3_mvl/mxv
 BYTE   W01
 BYTE   VOL   15*BattleA3_mvl/mxv
 BYTE   W01
 BYTE   VOL   17*BattleA3_mvl/mxv
 BYTE   W01
 BYTE   VOL   18*BattleA3_mvl/mxv
 BYTE   W01
 BYTE   VOL   19*BattleA3_mvl/mxv
 BYTE   W01
 BYTE   VOL   20*BattleA3_mvl/mxv
 BYTE   W01
 BYTE   VOL   21*BattleA3_mvl/mxv
 BYTE   W01
 BYTE   VOL   22*BattleA3_mvl/mxv
 BYTE   W01
 BYTE   VOL   24*BattleA3_mvl/mxv
 BYTE   W01
 BYTE   VOL   25*BattleA3_mvl/mxv
 BYTE   W01
 BYTE   VOL   25*BattleA3_mvl/mxv
 BYTE   W01
 BYTE   VOL   27*BattleA3_mvl/mxv
 BYTE   W72
 BYTE   W02
//  #05 //111   ----------------------------------------
 BYTE   W96
//  #05 //112   ----------------------------------------
 BYTE   W96
//  #05 //113   ----------------------------------------
 BYTE   W96
//  #05 //114   ----------------------------------------
 BYTE   EOT
 BYTE   Dn4  v078
 BYTE   An4
 BYTE   GoTo
  POIN2 Label_0100843E
 BYTE   FINE

//**************** Track 6 (Midi-Chn.5) ****************//

BattleA3_006:
//  #06 //000   ----------------------------------------
 BYTE   KEYSH   BattleA3_key+0
Label_010073D2:
 BYTE   VOICE   82
 BYTE   W96
//  #06 //001   ----------------------------------------
 BYTE   W96
//  #06 //002   ----------------------------------------
 BYTE   W96
//  #06 //003   ----------------------------------------
 BYTE   W96
//  #06 //004   ----------------------------------------
 BYTE   W96
//  #06 //005   ----------------------------------------
 BYTE   W96
//  #06 //006   ----------------------------------------
 BYTE   W96
//  #06 //007   ----------------------------------------
 BYTE   W96
//  #06 //008   ----------------------------------------
 BYTE   W96
//  #06 //009   ----------------------------------------
 BYTE   W96
//  #06 //010   ----------------------------------------
 BYTE   W96
//  #06 //011   ----------------------------------------
 BYTE   W96
//  #06 //012   ----------------------------------------
 BYTE   W96
//  #06 //013   ----------------------------------------
 BYTE   W96
//  #06 //014   ----------------------------------------
 BYTE   W96
//  #06 //015   ----------------------------------------
 BYTE   W96
//  #06 //016   ----------------------------------------
Label_010073E4:
 BYTE   VOL   28*BattleA3_mvl/mxv
 BYTE   N12  Bn4  v096
 BYTE   W12
 BYTE   An4
 BYTE   W12
 BYTE   Gn4
 BYTE   W12
 BYTE   Fs4
 BYTE   W12
 BYTE   En4
 BYTE   W12
 BYTE   Dn4
 BYTE   W12
 BYTE   N24  Cn4
 BYTE   W24
 BYTE   PEND 
//  #06 //017   ----------------------------------------
Label_010073F8:
 BYTE   N12  Bn4  v096
 BYTE   W12
 BYTE   An4
 BYTE   W12
 BYTE   Gn4
 BYTE   W12
 BYTE   Fs4
 BYTE   W12
 BYTE   En4
 BYTE   W12
 BYTE   Dn4
 BYTE   W12
 BYTE   Cn4
 BYTE   W12
 BYTE   Bn3
 BYTE   W12
 BYTE   PEND 
//  #06 //018   ----------------------------------------
 BYTE   PATT
  POIN2 Label_010073F8
//  #06 //019   ----------------------------------------
Label_01007410:
 BYTE   N12  An3  v096
 BYTE   W12
 BYTE   Bn3
 BYTE   W12
 BYTE   Cn4
 BYTE   W12
 BYTE   Dn4
 BYTE   W12
 BYTE   En4
 BYTE   W12
 BYTE   Fs4
 BYTE   W12
 BYTE   Gn4
 BYTE   W12
 BYTE   An4
 BYTE   W12
 BYTE   PEND 
//  #06 //020   ----------------------------------------
Label_01007423:
 BYTE   N12  Bn4  v096
 BYTE   W12
 BYTE   An4
 BYTE   W12
 BYTE   Gn4
 BYTE   W12
 BYTE   Fs4
 BYTE   W12
 BYTE   En4
 BYTE   W12
 BYTE   Dn4
 BYTE   W12
 BYTE   N24  Cn4
 BYTE   W24
 BYTE   PEND 
//  #06 //021   ----------------------------------------
 BYTE   PATT
  POIN2 Label_010073F8
//  #06 //022   ----------------------------------------
 BYTE   PATT
  POIN2 Label_010073F8
//  #06 //023   ----------------------------------------
Label_0100743F:
 BYTE   N12  Dn4  v096
 BYTE   W12
 BYTE   En4
 BYTE   W12
 BYTE   Fs4
 BYTE   W12
 BYTE   Gn4
 BYTE   W12
 BYTE   An4
 BYTE   W12
 BYTE   Bn4
 BYTE   W12
 BYTE   Cn5
 BYTE   W12
 BYTE   Dn5
 BYTE   W12
 BYTE   PEND 
//  #06 //024   ----------------------------------------
 BYTE   W96
//  #06 //025   ----------------------------------------
 BYTE   W96
//  #06 //026   ----------------------------------------
 BYTE   W96
//  #06 //027   ----------------------------------------
 BYTE   W96
//  #06 //028   ----------------------------------------
 BYTE   W96
//  #06 //029   ----------------------------------------
 BYTE   W96
//  #06 //030   ----------------------------------------
 BYTE   W96
//  #06 //031   ----------------------------------------
 BYTE   W96
//  #06 //032   ----------------------------------------
 BYTE   W96
//  #06 //033   ----------------------------------------
 BYTE   W96
//  #06 //034   ----------------------------------------
 BYTE   W96
//  #06 //035   ----------------------------------------
 BYTE   W96
//  #06 //036   ----------------------------------------
 BYTE   W96
//  #06 //037   ----------------------------------------
 BYTE   W96
//  #06 //038   ----------------------------------------
 BYTE   W96
//  #06 //039   ----------------------------------------
 BYTE   W96
//  #06 //040   ----------------------------------------
 BYTE   PATT
  POIN2 Label_010073E4
//  #06 //041   ----------------------------------------
 BYTE   PATT
  POIN2 Label_010073F8
//  #06 //042   ----------------------------------------
 BYTE   PATT
  POIN2 Label_010073F8
//  #06 //043   ----------------------------------------
 BYTE   PATT
  POIN2 Label_01007410
//  #06 //044   ----------------------------------------
 BYTE   PATT
  POIN2 Label_01007423
//  #06 //045   ----------------------------------------
 BYTE   PATT
  POIN2 Label_010073F8
//  #06 //046   ----------------------------------------
 BYTE   PATT
  POIN2 Label_010073F8
//  #06 //047   ----------------------------------------
 BYTE   PATT
  POIN2 Label_0100743F
//  #06 //048   ----------------------------------------
 BYTE   PATT
  POIN2 Label_010073E4
//  #06 //049   ----------------------------------------
 BYTE   PATT
  POIN2 Label_010073F8
//  #06 //050   ----------------------------------------
 BYTE   PATT
  POIN2 Label_010073F8
//  #06 //051   ----------------------------------------
 BYTE   PATT
  POIN2 Label_01007410
//  #06 //052   ----------------------------------------
 BYTE   PATT
  POIN2 Label_01007423
//  #06 //053   ----------------------------------------
 BYTE   PATT
  POIN2 Label_010073F8
//  #06 //054   ----------------------------------------
 BYTE   PATT
  POIN2 Label_010073F8
//  #06 //055   ----------------------------------------
 BYTE   PATT
  POIN2 Label_0100743F
//  #06 //056   ----------------------------------------
 BYTE   W96
//  #06 //057   ----------------------------------------
 BYTE   W96
//  #06 //058   ----------------------------------------
 BYTE   W96
//  #06 //059   ----------------------------------------
 BYTE   W96
//  #06 //060   ----------------------------------------
 BYTE   W96
//  #06 //061   ----------------------------------------
 BYTE   W96
//  #06 //062   ----------------------------------------
 BYTE   W96
//  #06 //063   ----------------------------------------
 BYTE   W96
//  #06 //064   ----------------------------------------
 BYTE   W96
//  #06 //065   ----------------------------------------
 BYTE   W96
//  #06 //066   ----------------------------------------
 BYTE   W96
//  #06 //067   ----------------------------------------
 BYTE   W96
//  #06 //068   ----------------------------------------
 BYTE   W96
//  #06 //069   ----------------------------------------
 BYTE   W96
//  #06 //070   ----------------------------------------
 BYTE   W96
//  #06 //071   ----------------------------------------
 BYTE   W96
//  #06 //072   ----------------------------------------
 BYTE   W96
//  #06 //073   ----------------------------------------
 BYTE   W96
//  #06 //074   ----------------------------------------
 BYTE   W96
//  #06 //075   ----------------------------------------
 BYTE   W96
//  #06 //076   ----------------------------------------
 BYTE   W96
//  #06 //077   ----------------------------------------
 BYTE   W96
//  #06 //078   ----------------------------------------
 BYTE   W96
//  #06 //079   ----------------------------------------
 BYTE   W96
//  #06 //080   ----------------------------------------
 BYTE   W96
//  #06 //081   ----------------------------------------
 BYTE   W96
//  #06 //082   ----------------------------------------
 BYTE   W96
//  #06 //083   ----------------------------------------
 BYTE   W96
//  #06 //084   ----------------------------------------
 BYTE   W96
//  #06 //085   ----------------------------------------
 BYTE   W96
//  #06 //086   ----------------------------------------
 BYTE   W96
//  #06 //087   ----------------------------------------
 BYTE   W96
//  #06 //088   ----------------------------------------
 BYTE   W96
//  #06 //089   ----------------------------------------
 BYTE   W96
//  #06 //090   ----------------------------------------
 BYTE   W96
//  #06 //091   ----------------------------------------
 BYTE   W96
//  #06 //092   ----------------------------------------
 BYTE   W96
//  #06 //093   ----------------------------------------
 BYTE   W96
//  #06 //094   ----------------------------------------
 BYTE   W96
//  #06 //095   ----------------------------------------
 BYTE   W96
//  #06 //096   ----------------------------------------
 BYTE   W96
//  #06 //097   ----------------------------------------
 BYTE   W96
//  #06 //098   ----------------------------------------
 BYTE   W96
//  #06 //099   ----------------------------------------
 BYTE   W96
//  #06 //100   ----------------------------------------
 BYTE   W96
//  #06 //101   ----------------------------------------
 BYTE   W96
//  #06 //102   ----------------------------------------
 BYTE   W96
//  #06 //103   ----------------------------------------
 BYTE   W96
//  #06 //104   ----------------------------------------
 BYTE   GoTo
  POIN2 Label_010073D2
 BYTE   FINE

//**************** Track 7 (Midi-Chn.6) ****************//

BattleA3_007:
//  #07 //000   ----------------------------------------
 BYTE   KEYSH   BattleA3_key+0
Label_01004B6A:
 BYTE   VOICE   82
 BYTE   W96
//  #07 //001   ----------------------------------------
 BYTE   W96
//  #07 //002   ----------------------------------------
 BYTE   W96
//  #07 //003   ----------------------------------------
 BYTE   W96
//  #07 //004   ----------------------------------------
 BYTE   W96
//  #07 //005   ----------------------------------------
 BYTE   W96
//  #07 //006   ----------------------------------------
 BYTE   W96
//  #07 //007   ----------------------------------------
 BYTE   W96
//  #07 //008   ----------------------------------------
 BYTE   W96
//  #07 //009   ----------------------------------------
 BYTE   W96
//  #07 //010   ----------------------------------------
 BYTE   W96
//  #07 //011   ----------------------------------------
 BYTE   W96
//  #07 //012   ----------------------------------------
 BYTE   W96
//  #07 //013   ----------------------------------------
 BYTE   W96
//  #07 //014   ----------------------------------------
 BYTE   W96
//  #07 //015   ----------------------------------------
 BYTE   W96
//  #07 //016   ----------------------------------------
 BYTE   VOL   38*BattleA3_mvl/mxv
 BYTE   N12  Bn3  v076
 BYTE   W12
 BYTE   An3
 BYTE   W12
 BYTE   Gn3
 BYTE   W12
 BYTE   Fs3
 BYTE   W12
 BYTE   En3
 BYTE   W12
 BYTE   Dn3
 BYTE   W12
 BYTE   N24  Cn3
 BYTE   W24
//  #07 //017   ----------------------------------------
Label_01004B8F:
 BYTE   N12  Bn3  v076
 BYTE   W12
 BYTE   An3
 BYTE   W12
 BYTE   Gn3
 BYTE   W12
 BYTE   Fs3
 BYTE   W12
 BYTE   En3
 BYTE   W12
 BYTE   Dn3
 BYTE   W12
 BYTE   Cn3
 BYTE   W12
 BYTE   Bn2
 BYTE   W12
 BYTE   PEND 
//  #07 //018   ----------------------------------------
 BYTE   PATT
  POIN2 Label_01004B8F
//  #07 //019   ----------------------------------------
Label_01004BA7:
 BYTE   N12  An2  v076
 BYTE   W12
 BYTE   Bn2
 BYTE   W12
 BYTE   Cn3
 BYTE   W12
 BYTE   Dn3
 BYTE   W12
 BYTE   En3
 BYTE   W12
 BYTE   Fs3
 BYTE   W12
 BYTE   Gn3
 BYTE   W12
 BYTE   An3
 BYTE   W12
 BYTE   PEND 
//  #07 //020   ----------------------------------------
Label_01004BBA:
 BYTE   N12  Bn3  v076
 BYTE   W12
 BYTE   An3
 BYTE   W12
 BYTE   Gn3
 BYTE   W12
 BYTE   Fs3
 BYTE   W12
 BYTE   En3
 BYTE   W12
 BYTE   Dn3
 BYTE   W12
 BYTE   N24  Cn3
 BYTE   W24
 BYTE   PEND 
//  #07 //021   ----------------------------------------
 BYTE   PATT
  POIN2 Label_01004B8F
//  #07 //022   ----------------------------------------
 BYTE   PATT
  POIN2 Label_01004B8F
//  #07 //023   ----------------------------------------
Label_01004BD6:
 BYTE   N12  Dn3  v076
 BYTE   W12
 BYTE   En3
 BYTE   W12
 BYTE   Fs3
 BYTE   W12
 BYTE   Gn3
 BYTE   W12
 BYTE   An3
 BYTE   W12
 BYTE   Bn3
 BYTE   W12
 BYTE   Cn4
 BYTE   W12
 BYTE   Dn4
 BYTE   W12
 BYTE   PEND 
//  #07 //024   ----------------------------------------
 BYTE   W96
//  #07 //025   ----------------------------------------
 BYTE   W96
//  #07 //026   ----------------------------------------
 BYTE   W96
//  #07 //027   ----------------------------------------
 BYTE   W96
//  #07 //028   ----------------------------------------
 BYTE   W96
//  #07 //029   ----------------------------------------
 BYTE   W96
//  #07 //030   ----------------------------------------
 BYTE   W96
//  #07 //031   ----------------------------------------
 BYTE   W96
//  #07 //032   ----------------------------------------
 BYTE   W96
//  #07 //033   ----------------------------------------
 BYTE   W96
//  #07 //034   ----------------------------------------
 BYTE   W96
//  #07 //035   ----------------------------------------
 BYTE   W96
//  #07 //036   ----------------------------------------
 BYTE   W96
//  #07 //037   ----------------------------------------
 BYTE   W96
//  #07 //038   ----------------------------------------
 BYTE   W96
//  #07 //039   ----------------------------------------
 BYTE   W96
//  #07 //040   ----------------------------------------
 BYTE   VOL   30*BattleA3_mvl/mxv
 BYTE   N12  Bn3
 BYTE   W12
 BYTE   An3
 BYTE   W12
 BYTE   Gn3
 BYTE   W12
 BYTE   Fs3
 BYTE   W12
 BYTE   En3
 BYTE   W12
 BYTE   Dn3
 BYTE   W12
 BYTE   N24  Cn3
 BYTE   W24
//  #07 //041   ----------------------------------------
 BYTE   PATT
  POIN2 Label_01004B8F
//  #07 //042   ----------------------------------------
 BYTE   PATT
  POIN2 Label_01004B8F
//  #07 //043   ----------------------------------------
 BYTE   PATT
  POIN2 Label_01004BA7
//  #07 //044   ----------------------------------------
 BYTE   PATT
  POIN2 Label_01004BBA
//  #07 //045   ----------------------------------------
 BYTE   PATT
  POIN2 Label_01004B8F
//  #07 //046   ----------------------------------------
 BYTE   PATT
  POIN2 Label_01004B8F
//  #07 //047   ----------------------------------------
 BYTE   PATT
  POIN2 Label_01004BD6
//  #07 //048   ----------------------------------------
 BYTE   VOL   30*BattleA3_mvl/mxv
 BYTE   N12  Bn3  v076
 BYTE   N12  Fs4  v088
 BYTE   W12
 BYTE   An3  v076
 BYTE   N12  En4  v088
 BYTE   W12
 BYTE   Gn3  v076
 BYTE   N12  Dn4  v088
 BYTE   W12
 BYTE   Fs3  v076
 BYTE   N12  Cs4  v088
 BYTE   W12
 BYTE   En3  v076
 BYTE   N12  Bn3  v088
 BYTE   W12
 BYTE   Dn3  v076
 BYTE   N12  An3  v088
 BYTE   W12
 BYTE   N24  Cn3  v076
 BYTE   N24  Gn3  v088
 BYTE   W24
//  #07 //049   ----------------------------------------
Label_01004C5C:
 BYTE   N12  Bn3  v076
 BYTE   N12  Fs4  v088
 BYTE   W12
 BYTE   An3  v076
 BYTE   N12  En4  v088
 BYTE   W12
 BYTE   Gn3  v076
 BYTE   N12  Dn4  v088
 BYTE   W12
 BYTE   Fs3  v076
 BYTE   N12  Cs4  v088
 BYTE   W12
 BYTE   En3  v076
 BYTE   N12  Bn3  v088
 BYTE   W12
 BYTE   Dn3  v076
 BYTE   N12  An3  v088
 BYTE   W12
 BYTE   Cn3  v076
 BYTE   N12  Gn3  v088
 BYTE   W12
 BYTE   Bn2  v076
 BYTE   N12  Fs3  v088
 BYTE   W12
 BYTE   PEND 
//  #07 //050   ----------------------------------------
 BYTE   PATT
  POIN2 Label_01004C5C
//  #07 //051   ----------------------------------------
 BYTE   N12  An2  v076
 BYTE   N12  En3  v088
 BYTE   W12
 BYTE   Bn2  v076
 BYTE   N12  Fs3  v088
 BYTE   W12
 BYTE   Cn3  v076
 BYTE   N12  Gn3  v088
 BYTE   W12
 BYTE   Dn3  v076
 BYTE   N12  An3  v088
 BYTE   W12
 BYTE   En3  v076
 BYTE   N12  Bn3  v088
 BYTE   W12
 BYTE   Fs3  v076
 BYTE   N12  Cs4  v088
 BYTE   W12
 BYTE   Gn3  v076
 BYTE   N12  Dn4  v088
 BYTE   W12
 BYTE   An3  v076
 BYTE   N12  En4  v088
 BYTE   W12
//  #07 //052   ----------------------------------------
 BYTE   Bn3  v076
 BYTE   N12  Fs4  v088
 BYTE   W12
 BYTE   An3  v076
 BYTE   N12  En4  v088
 BYTE   W12
 BYTE   Gn3  v076
 BYTE   N12  Dn4  v088
 BYTE   W12
 BYTE   Fs3  v076
 BYTE   N12  Cs4  v088
 BYTE   W12
 BYTE   En3  v076
 BYTE   N12  Bn3  v088
 BYTE   W12
 BYTE   Dn3  v076
 BYTE   N12  An3  v088
 BYTE   W12
 BYTE   N24  Cn3  v076
 BYTE   N24  Gn3  v088
 BYTE   W24
//  #07 //053   ----------------------------------------
 BYTE   PATT
  POIN2 Label_01004C5C
//  #07 //054   ----------------------------------------
 BYTE   PATT
  POIN2 Label_01004C5C
//  #07 //055   ----------------------------------------
 BYTE   N12  Dn3  v076
 BYTE   N12  An3  v088
 BYTE   W12
 BYTE   En3  v076
 BYTE   N12  Bn3  v088
 BYTE   W12
 BYTE   Fs3  v076
 BYTE   N12  Cs4  v088
 BYTE   W12
 BYTE   Gn3  v076
 BYTE   N12  Dn4  v088
 BYTE   W12
 BYTE   An3  v076
 BYTE   N12  En4  v088
 BYTE   W12
 BYTE   Bn3  v076
 BYTE   N12  Fs4  v088
 BYTE   W12
 BYTE   Cn4  v076
 BYTE   N12  Gn4  v088
 BYTE   W12
 BYTE   Dn4  v076
 BYTE   N12  An4  v088
 BYTE   W12
//  #07 //056   ----------------------------------------
 BYTE   W96
//  #07 //057   ----------------------------------------
 BYTE   W96
//  #07 //058   ----------------------------------------
 BYTE   W96
//  #07 //059   ----------------------------------------
 BYTE   W96
//  #07 //060   ----------------------------------------
 BYTE   W96
//  #07 //061   ----------------------------------------
 BYTE   W96
//  #07 //062   ----------------------------------------
 BYTE   W96
//  #07 //063   ----------------------------------------
 BYTE   W96
//  #07 //064   ----------------------------------------
 BYTE   W96
//  #07 //065   ----------------------------------------
 BYTE   W96
//  #07 //066   ----------------------------------------
 BYTE   W96
//  #07 //067   ----------------------------------------
 BYTE   W96
//  #07 //068   ----------------------------------------
 BYTE   W96
//  #07 //069   ----------------------------------------
 BYTE   W96
//  #07 //070   ----------------------------------------
 BYTE   W96
//  #07 //071   ----------------------------------------
 BYTE   W96
//  #07 //072   ----------------------------------------
 BYTE   W96
//  #07 //073   ----------------------------------------
 BYTE   W96
//  #07 //074   ----------------------------------------
 BYTE   W96
//  #07 //075   ----------------------------------------
 BYTE   W96
//  #07 //076   ----------------------------------------
 BYTE   W96
//  #07 //077   ----------------------------------------
 BYTE   W96
//  #07 //078   ----------------------------------------
 BYTE   W96
//  #07 //079   ----------------------------------------
 BYTE   W96
//  #07 //080   ----------------------------------------
 BYTE   W96
//  #07 //081   ----------------------------------------
 BYTE   W96
//  #07 //082   ----------------------------------------
 BYTE   W96
//  #07 //083   ----------------------------------------
 BYTE   W96
//  #07 //084   ----------------------------------------
 BYTE   W96
//  #07 //085   ----------------------------------------
 BYTE   W96
//  #07 //086   ----------------------------------------
 BYTE   W96
//  #07 //087   ----------------------------------------
 BYTE   W96
//  #07 //088   ----------------------------------------
 BYTE   W96
//  #07 //089   ----------------------------------------
 BYTE   W96
//  #07 //090   ----------------------------------------
 BYTE   W96
//  #07 //091   ----------------------------------------
 BYTE   W96
//  #07 //092   ----------------------------------------
 BYTE   W96
//  #07 //093   ----------------------------------------
 BYTE   W96
//  #07 //094   ----------------------------------------
 BYTE   W96
//  #07 //095   ----------------------------------------
 BYTE   W96
//  #07 //096   ----------------------------------------
 BYTE   W96
//  #07 //097   ----------------------------------------
 BYTE   W96
//  #07 //098   ----------------------------------------
 BYTE   W96
//  #07 //099   ----------------------------------------
 BYTE   W96
//  #07 //100   ----------------------------------------
 BYTE   W96
//  #07 //101   ----------------------------------------
 BYTE   W96
//  #07 //102   ----------------------------------------
 BYTE   W96
//  #07 //103   ----------------------------------------
 BYTE   W96
//  #07 //104   ----------------------------------------
 BYTE   GoTo
  POIN2 Label_01004B6A
 BYTE   FINE

//**************** Track 8 (Midi-Chn.7) ****************//

BattleA3_008:
//  #08 //000   ----------------------------------------
 BYTE   VOL   50*BattleA3_mvl/mxv
 BYTE   KEYSH   BattleA3_key+0
Label_01007144:
 BYTE   VOICE   50
 BYTE   W96
//  #08 //001   ----------------------------------------
 BYTE   W96
//  #08 //002   ----------------------------------------
 BYTE   W96
//  #08 //003   ----------------------------------------
 BYTE   W96
//  #08 //004   ----------------------------------------
 BYTE   W96
//  #08 //005   ----------------------------------------
 BYTE   W96
//  #08 //006   ----------------------------------------
 BYTE   W96
//  #08 //007   ----------------------------------------
 BYTE   W96
//  #08 //008   ----------------------------------------
 BYTE   W96
//  #08 //009   ----------------------------------------
 BYTE   W96
//  #08 //010   ----------------------------------------
 BYTE   W96
//  #08 //011   ----------------------------------------
 BYTE   W96
//  #08 //012   ----------------------------------------
 BYTE   W96
//  #08 //013   ----------------------------------------
 BYTE   W96
//  #08 //014   ----------------------------------------
 BYTE   W96
//  #08 //015   ----------------------------------------
 BYTE   W96
//  #08 //016   ----------------------------------------
Label_01007156:
 BYTE   PAN   c_v-12
 BYTE   N96  Bn2  v076
 BYTE   W96
 BYTE   PEND 
//  #08 //017   ----------------------------------------
 BYTE   Bn3
 BYTE   W96
//  #08 //018   ----------------------------------------
 BYTE   TIE  Bn2
 BYTE   W96
//  #08 //019   ----------------------------------------
 BYTE   W96
//  #08 //020   ----------------------------------------
 BYTE   EOT
 BYTE   N96
 BYTE   W96
//  #08 //021   ----------------------------------------
 BYTE   Bn3
 BYTE   W96
//  #08 //022   ----------------------------------------
 BYTE   TIE  Bn2
 BYTE   W96
//  #08 //023   ----------------------------------------
 BYTE   W96
//  #08 //024   ----------------------------------------
 BYTE   EOT
 BYTE   W96
//  #08 //025   ----------------------------------------
 BYTE   W96
//  #08 //026   ----------------------------------------
 BYTE   W96
//  #08 //027   ----------------------------------------
 BYTE   W96
//  #08 //028   ----------------------------------------
 BYTE   W96
//  #08 //029   ----------------------------------------
 BYTE   W96
//  #08 //030   ----------------------------------------
 BYTE   W96
//  #08 //031   ----------------------------------------
 BYTE   W96
//  #08 //032   ----------------------------------------
 BYTE   W96
//  #08 //033   ----------------------------------------
 BYTE   W96
//  #08 //034   ----------------------------------------
 BYTE   W96
//  #08 //035   ----------------------------------------
 BYTE   W96
//  #08 //036   ----------------------------------------
 BYTE   W96
//  #08 //037   ----------------------------------------
 BYTE   W96
//  #08 //038   ----------------------------------------
 BYTE   W96
//  #08 //039   ----------------------------------------
 BYTE   W96
//  #08 //040   ----------------------------------------
 BYTE   PATT
  POIN2 Label_01007156
//  #08 //041   ----------------------------------------
 BYTE   N96  Bn3  v076
 BYTE   W96
//  #08 //042   ----------------------------------------
 BYTE   TIE  Bn2
 BYTE   W96
//  #08 //043   ----------------------------------------
 BYTE   W96
//  #08 //044   ----------------------------------------
 BYTE   EOT
 BYTE   N96
 BYTE   W96
//  #08 //045   ----------------------------------------
 BYTE   Bn3
 BYTE   W96
//  #08 //046   ----------------------------------------
 BYTE   TIE  Bn2
 BYTE   W96
//  #08 //047   ----------------------------------------
 BYTE   W96
//  #08 //048   ----------------------------------------
 BYTE   EOT
//  #08 //049   ----------------------------------------
 BYTE   PATT
  POIN2 Label_01007156
//  #08 //050   ----------------------------------------
 BYTE   N96  Bn3  v076
 BYTE   W96
//  #08 //051   ----------------------------------------
 BYTE   TIE  Bn2
 BYTE   W96
//  #08 //052   ----------------------------------------
 BYTE   W96
//  #08 //053   ----------------------------------------
 BYTE   EOT
 BYTE   N96
 BYTE   W96
//  #08 //054   ----------------------------------------
 BYTE   Bn3
 BYTE   W96
//  #08 //055   ----------------------------------------
 BYTE   TIE  Bn2
 BYTE   W96
//  #08 //056   ----------------------------------------
 BYTE   W96
//  #08 //057   ----------------------------------------
 BYTE   EOT
 BYTE   W96
//  #08 //058   ----------------------------------------
 BYTE   W96
//  #08 //059   ----------------------------------------
 BYTE   W96
//  #08 //060   ----------------------------------------
 BYTE   W96
//  #08 //061   ----------------------------------------
 BYTE   W96
//  #08 //062   ----------------------------------------
 BYTE   W96
//  #08 //063   ----------------------------------------
 BYTE   W96
//  #08 //064   ----------------------------------------
 BYTE   W96
//  #08 //065   ----------------------------------------
 BYTE   W96
//  #08 //066   ----------------------------------------
 BYTE   W96
//  #08 //067   ----------------------------------------
 BYTE   W96
//  #08 //068   ----------------------------------------
 BYTE   W96
//  #08 //069   ----------------------------------------
 BYTE   W96
//  #08 //070   ----------------------------------------
 BYTE   W96
//  #08 //071   ----------------------------------------
 BYTE   W96
//  #08 //072   ----------------------------------------
 BYTE   W96
//  #08 //073   ----------------------------------------
 BYTE   W96
//  #08 //074   ----------------------------------------
 BYTE   W96
//  #08 //075   ----------------------------------------
 BYTE   W96
//  #08 //076   ----------------------------------------
 BYTE   W96
//  #08 //077   ----------------------------------------
 BYTE   W96
//  #08 //078   ----------------------------------------
 BYTE   W96
//  #08 //079   ----------------------------------------
 BYTE   W96
//  #08 //080   ----------------------------------------
 BYTE   W96
//  #08 //081   ----------------------------------------
 BYTE   W96
//  #08 //082   ----------------------------------------
 BYTE   W96
//  #08 //083   ----------------------------------------
 BYTE   W96
//  #08 //084   ----------------------------------------
 BYTE   W96
//  #08 //085   ----------------------------------------
 BYTE   W96
//  #08 //086   ----------------------------------------
 BYTE   W96
//  #08 //087   ----------------------------------------
 BYTE   W96
//  #08 //088   ----------------------------------------
 BYTE   W96
//  #08 //089   ----------------------------------------
 BYTE   W96
//  #08 //090   ----------------------------------------
 BYTE   W96
//  #08 //091   ----------------------------------------
 BYTE   W96
//  #08 //092   ----------------------------------------
 BYTE   W96
//  #08 //093   ----------------------------------------
 BYTE   W96
//  #08 //094   ----------------------------------------
 BYTE   W96
//  #08 //095   ----------------------------------------
 BYTE   W96
//  #08 //096   ----------------------------------------
 BYTE   W96
//  #08 //097   ----------------------------------------
 BYTE   W96
//  #08 //098   ----------------------------------------
 BYTE   W96
//  #08 //099   ----------------------------------------
 BYTE   W96
//  #08 //100   ----------------------------------------
 BYTE   W96
//  #08 //101   ----------------------------------------
 BYTE   W96
//  #08 //102   ----------------------------------------
 BYTE   W96
//  #08 //103   ----------------------------------------
 BYTE   W96
//  #08 //104   ----------------------------------------
 BYTE   W96
//  #08 //105   ----------------------------------------
 BYTE   GoTo
  POIN2 Label_01007144
 BYTE   FINE

//**************** Track 9 (Midi-Chn.8) ****************//

BattleA3_009:
//  #09 //000   ----------------------------------------
 BYTE   KEYSH   BattleA3_key+0
Label_0100AEFA:
 BYTE   VOICE   30
 BYTE   W96
//  #09 //001   ----------------------------------------
 BYTE   W96
//  #09 //002   ----------------------------------------
 BYTE   W96
//  #09 //003   ----------------------------------------
 BYTE   W96
//  #09 //004   ----------------------------------------
 BYTE   W96
//  #09 //005   ----------------------------------------
 BYTE   W96
//  #09 //006   ----------------------------------------
 BYTE   W96
//  #09 //007   ----------------------------------------
 BYTE   W96
//  #09 //008   ----------------------------------------
 BYTE   W96
//  #09 //009   ----------------------------------------
 BYTE   W96
//  #09 //010   ----------------------------------------
 BYTE   W96
//  #09 //011   ----------------------------------------
 BYTE   W96
//  #09 //012   ----------------------------------------
 BYTE   W96
//  #09 //013   ----------------------------------------
 BYTE   W96
//  #09 //014   ----------------------------------------
 BYTE   W96
//  #09 //015   ----------------------------------------
 BYTE   W96
//  #09 //016   ----------------------------------------
 BYTE   W96
//  #09 //017   ----------------------------------------
 BYTE   W96
//  #09 //018   ----------------------------------------
 BYTE   W96
//  #09 //019   ----------------------------------------
 BYTE   W96
//  #09 //020   ----------------------------------------
 BYTE   W96
//  #09 //021   ----------------------------------------
 BYTE   W96
//  #09 //022   ----------------------------------------
 BYTE   W96
//  #09 //023   ----------------------------------------
 BYTE   W96
//  #09 //024   ----------------------------------------
 BYTE   VOL   36*BattleA3_mvl/mxv
 BYTE   PAN   c_v-6
 BYTE   VOL   36*BattleA3_mvl/mxv
 BYTE   PAN   c_v-6
 BYTE   BEND   c_v-62
 BYTE   TIE  Bn4  v100
 BYTE   W01
 BYTE   BEND   c_v-60
 BYTE   W01
 BYTE   BEND   c_v-58
 BYTE   W01
 BYTE   BEND   c_v-54
 BYTE   W01
 BYTE   BEND   c_v-52
 BYTE   W01
 BYTE   BEND   c_v-50
 BYTE   W01
 BYTE   BEND   c_v-45
 BYTE   W01
 BYTE   BEND   c_v-43
 BYTE   W01
 BYTE   BEND   c_v-41
 BYTE   W01
 BYTE   BEND   c_v-37
 BYTE   W01
 BYTE   BEND   c_v-35
 BYTE   W01
 BYTE   BEND   c_v-32
 BYTE   W01
 BYTE   BEND   c_v-28
 BYTE   W01
 BYTE   BEND   c_v-26
 BYTE   W01
 BYTE   BEND   c_v-24
 BYTE   W01
 BYTE   BEND   c_v-20
 BYTE   W01
 BYTE   BEND   c_v-18
 BYTE   W01
 BYTE   BEND   c_v-15
 BYTE   W01
 BYTE   BEND   c_v-11
 BYTE   W01
 BYTE   BEND   c_v-9
 BYTE   W01
 BYTE   BEND   c_v-7
 BYTE   W01
 BYTE   BEND   c_v-3
 BYTE   W01
 BYTE   BEND   c_v+0
 BYTE   W30
 BYTE   BEND   c_v+0
 BYTE   W01
 BYTE   BEND   c_v-1
 BYTE   W01
 BYTE   BEND   c_v-1
 BYTE   W01
 BYTE   BEND   c_v-2
 BYTE   W01
 BYTE   BEND   c_v-2
 BYTE   W01
 BYTE   BEND   c_v-3
 BYTE   W01
 BYTE   BEND   c_v-3
 BYTE   W01
 BYTE   BEND   c_v-3
 BYTE   W01
 BYTE   BEND   c_v-4
 BYTE   W01
 BYTE   BEND   c_v-4
 BYTE   W01
 BYTE   BEND   c_v-5
 BYTE   W01
 BYTE   BEND   c_v-5
 BYTE   W01
 BYTE   BEND   c_v-6
 BYTE   W01
 BYTE   BEND   c_v-6
 BYTE   W01
 BYTE   BEND   c_v-7
 BYTE   W01
 BYTE   BEND   c_v-7
 BYTE   W01
 BYTE   BEND   c_v-7
 BYTE   W01
 BYTE   BEND   c_v-7
 BYTE   W01
 BYTE   BEND   c_v-7
 BYTE   W01
 BYTE   BEND   c_v-7
 BYTE   W01
 BYTE   BEND   c_v-6
 BYTE   W01
 BYTE   BEND   c_v-6
 BYTE   W01
 BYTE   BEND   c_v-5
 BYTE   W01
 BYTE   BEND   c_v-5
 BYTE   W01
 BYTE   BEND   c_v-4
 BYTE   W01
 BYTE   BEND   c_v-4
 BYTE   W01
 BYTE   BEND   c_v-3
 BYTE   W01
 BYTE   BEND   c_v-3
 BYTE   W01
 BYTE   BEND   c_v-3
 BYTE   W01
 BYTE   BEND   c_v-2
 BYTE   W01
 BYTE   BEND   c_v-2
 BYTE   W01
 BYTE   BEND   c_v-1
 BYTE   W01
 BYTE   BEND   c_v-1
 BYTE   W01
 BYTE   BEND   c_v+0
 BYTE   W11
//  #09 //025   ----------------------------------------
Label_0100AF93:
 BYTE   W24
 BYTE   W01
 BYTE   BEND   c_v+0
 BYTE   W01
 BYTE   BEND   c_v-1
 BYTE   W01
 BYTE   BEND   c_v-2
 BYTE   W01
 BYTE   BEND   c_v-2
 BYTE   W01
 BYTE   BEND   c_v-3
 BYTE   W01
 BYTE   BEND   c_v-3
 BYTE   W01
 BYTE   BEND   c_v-4
 BYTE   W01
 BYTE   BEND   c_v-4
 BYTE   W01
 BYTE   BEND   c_v-5
 BYTE   W01
 BYTE   BEND   c_v-5
 BYTE   W01
 BYTE   BEND   c_v-6
 BYTE   W01
 BYTE   BEND   c_v-6
 BYTE   W01
 BYTE   BEND   c_v-7
 BYTE   W01
 BYTE   BEND   c_v-7
 BYTE   W01
 BYTE   BEND   c_v-7
 BYTE   W01
 BYTE   BEND   c_v-7
 BYTE   W01
 BYTE   BEND   c_v-6
 BYTE   W01
 BYTE   BEND   c_v-5
 BYTE   W01
 BYTE   BEND   c_v-5
 BYTE   W01
 BYTE   BEND   c_v-4
 BYTE   W01
 BYTE   BEND   c_v-4
 BYTE   W01
 BYTE   BEND   c_v-3
 BYTE   W01
 BYTE   BEND   c_v-3
 BYTE   W01
 BYTE   BEND   c_v-2
 BYTE   W01
 BYTE   BEND   c_v-1
 BYTE   W01
 BYTE   BEND   c_v-1
 BYTE   W01
 BYTE   BEND   c_v+0
 BYTE   W10
 BYTE   BEND   c_v+0
 BYTE   W01
 BYTE   BEND   c_v+0
 BYTE   W01
 BYTE   BEND   c_v+1
 BYTE   W01
 BYTE   BEND   c_v+1
 BYTE   W01
 BYTE   BEND   c_v+2
 BYTE   W01
 BYTE   BEND   c_v+2
 BYTE   W01
 BYTE   BEND   c_v+3
 BYTE   W01
 BYTE   BEND   c_v+3
 BYTE   W01
 BYTE   BEND   c_v+4
 BYTE   W01
 BYTE   BEND   c_v+4
 BYTE   W01
 BYTE   BEND   c_v+5
 BYTE   W01
 BYTE   BEND   c_v+5
 BYTE   W01
 BYTE   BEND   c_v+4
 BYTE   W01
 BYTE   BEND   c_v+4
 BYTE   W01
 BYTE   BEND   c_v+3
 BYTE   W01
 BYTE   BEND   c_v+2
 BYTE   W01
 BYTE   BEND   c_v+2
 BYTE   W01
 BYTE   BEND   c_v+1
 BYTE   W01
 BYTE   BEND   c_v+0
 BYTE   W01
 BYTE   BEND   c_v+0
 BYTE   W10
 BYTE   BEND   c_v-5
 BYTE   W01
 BYTE   BEND   c_v-10
 BYTE   W01
 BYTE   BEND   c_v-15
 BYTE   W01
 BYTE   BEND   c_v-25
 BYTE   W01
 BYTE   BEND   c_v-29
 BYTE   W01
 BYTE   BEND   c_v-38
 BYTE   W01
 BYTE   PEND 
//  #09 //026   ----------------------------------------
 BYTE   EOT
 BYTE   Bn4
Label_0100B003:
 BYTE   BEND   c_v+0
 BYTE   TIE  An4  v100
 BYTE   W22
 BYTE   BEND   c_v+0
 BYTE   W30
 BYTE   BEND   c_v+0
 BYTE   W01
 BYTE   BEND   c_v-1
 BYTE   W01
 BYTE   BEND   c_v-1
 BYTE   W01
 BYTE   BEND   c_v-2
 BYTE   W01
 BYTE   BEND   c_v-2
 BYTE   W01
 BYTE   BEND   c_v-3
 BYTE   W01
 BYTE   BEND   c_v-3
 BYTE   W01
 BYTE   BEND   c_v-3
 BYTE   W01
 BYTE   BEND   c_v-4
 BYTE   W01
 BYTE   BEND   c_v-4
 BYTE   W01
 BYTE   BEND   c_v-5
 BYTE   W01
 BYTE   BEND   c_v-5
 BYTE   W01
 BYTE   BEND   c_v-6
 BYTE   W01
 BYTE   BEND   c_v-6
 BYTE   W01
 BYTE   BEND   c_v-7
 BYTE   W01
 BYTE   BEND   c_v-7
 BYTE   W01
 BYTE   BEND   c_v-7
 BYTE   W01
 BYTE   BEND   c_v-7
 BYTE   W01
 BYTE   BEND   c_v-7
 BYTE   W01
 BYTE   BEND   c_v-7
 BYTE   W01
 BYTE   BEND   c_v-6
 BYTE   W01
 BYTE   BEND   c_v-6
 BYTE   W01
 BYTE   BEND   c_v-5
 BYTE   W01
 BYTE   BEND   c_v-5
 BYTE   W01
 BYTE   BEND   c_v-4
 BYTE   W01
 BYTE   BEND   c_v-4
 BYTE   W01
 BYTE   BEND   c_v-3
 BYTE   W01
 BYTE   BEND   c_v-3
 BYTE   W01
 BYTE   BEND   c_v-3
 BYTE   W01
 BYTE   BEND   c_v-2
 BYTE   W01
 BYTE   BEND   c_v-2
 BYTE   W01
 BYTE   BEND   c_v-1
 BYTE   W01
 BYTE   BEND   c_v-1
 BYTE   W01
 BYTE   BEND   c_v+0
 BYTE   W11
 BYTE   PEND 
//  #09 //027   ----------------------------------------
 BYTE   PATT
  POIN2 Label_0100AF93
//  #09 //028   ----------------------------------------
 BYTE   EOT
 BYTE   An4
Label_0100B058:
 BYTE   BEND   c_v+0
 BYTE   TIE  Gn4  v100
 BYTE   W22
 BYTE   BEND   c_v+0
 BYTE   W30
 BYTE   BEND   c_v+0
 BYTE   W01
 BYTE   BEND   c_v-1
 BYTE   W01
 BYTE   BEND   c_v-1
 BYTE   W01
 BYTE   BEND   c_v-2
 BYTE   W01
 BYTE   BEND   c_v-2
 BYTE   W01
 BYTE   BEND   c_v-3
 BYTE   W01
 BYTE   BEND   c_v-3
 BYTE   W01
 BYTE   BEND   c_v-3
 BYTE   W01
 BYTE   BEND   c_v-4
 BYTE   W01
 BYTE   BEND   c_v-4
 BYTE   W01
 BYTE   BEND   c_v-5
 BYTE   W01
 BYTE   BEND   c_v-5
 BYTE   W01
 BYTE   BEND   c_v-6
 BYTE   W01
 BYTE   BEND   c_v-6
 BYTE   W01
 BYTE   BEND   c_v-7
 BYTE   W01
 BYTE   BEND   c_v-7
 BYTE   W01
 BYTE   BEND   c_v-7
 BYTE   W01
 BYTE   BEND   c_v-7
 BYTE   W01
 BYTE   BEND   c_v-7
 BYTE   W01
 BYTE   BEND   c_v-7
 BYTE   W01
 BYTE   BEND   c_v-6
 BYTE   W01
 BYTE   BEND   c_v-6
 BYTE   W01
 BYTE   BEND   c_v-5
 BYTE   W01
 BYTE   BEND   c_v-5
 BYTE   W01
 BYTE   BEND   c_v-4
 BYTE   W01
 BYTE   BEND   c_v-4
 BYTE   W01
 BYTE   BEND   c_v-3
 BYTE   W01
 BYTE   BEND   c_v-3
 BYTE   W01
 BYTE   BEND   c_v-3
 BYTE   W01
 BYTE   BEND   c_v-2
 BYTE   W01
 BYTE   BEND   c_v-2
 BYTE   W01
 BYTE   BEND   c_v-1
 BYTE   W01
 BYTE   BEND   c_v-1
 BYTE   W01
 BYTE   BEND   c_v+0
 BYTE   W11
 BYTE   PEND 
//  #09 //029   ----------------------------------------
Label_0100B0A6:
 BYTE   W24
 BYTE   W01
 BYTE   BEND   c_v+0
 BYTE   W01
 BYTE   BEND   c_v-1
 BYTE   W01
 BYTE   BEND   c_v-2
 BYTE   W01
 BYTE   BEND   c_v-2
 BYTE   W01
 BYTE   BEND   c_v-3
 BYTE   W01
 BYTE   BEND   c_v-3
 BYTE   W01
 BYTE   BEND   c_v-4
 BYTE   W01
 BYTE   BEND   c_v-4
 BYTE   W01
 BYTE   BEND   c_v-5
 BYTE   W01
 BYTE   BEND   c_v-5
 BYTE   W01
 BYTE   BEND   c_v-6
 BYTE   W01
 BYTE   BEND   c_v-6
 BYTE   W01
 BYTE   BEND   c_v-7
 BYTE   W01
 BYTE   BEND   c_v-7
 BYTE   W01
 BYTE   BEND   c_v-7
 BYTE   W01
 BYTE   BEND   c_v-7
 BYTE   W01
 BYTE   BEND   c_v-6
 BYTE   W01
 BYTE   BEND   c_v-5
 BYTE   W01
 BYTE   BEND   c_v-5
 BYTE   W01
 BYTE   BEND   c_v-4
 BYTE   W01
 BYTE   BEND   c_v-4
 BYTE   W01
 BYTE   BEND   c_v-3
 BYTE   W01
 BYTE   BEND   c_v-3
 BYTE   W01
 BYTE   BEND   c_v-2
 BYTE   W01
 BYTE   BEND   c_v-1
 BYTE   W01
 BYTE   BEND   c_v-1
 BYTE   W01
 BYTE   BEND   c_v+0
 BYTE   W10
 BYTE   BEND   c_v+0
 BYTE   W01
 BYTE   BEND   c_v+0
 BYTE   W01
 BYTE   BEND   c_v+1
 BYTE   W01
 BYTE   BEND   c_v+1
 BYTE   W01
 BYTE   BEND   c_v+2
 BYTE   W01
 BYTE   BEND   c_v+2
 BYTE   W01
 BYTE   BEND   c_v+3
 BYTE   W01
 BYTE   BEND   c_v+3
 BYTE   W01
 BYTE   BEND   c_v+4
 BYTE   W01
 BYTE   BEND   c_v+4
 BYTE   W01
 BYTE   BEND   c_v+5
 BYTE   W01
 BYTE   BEND   c_v+5
 BYTE   W01
 BYTE   BEND   c_v+4
 BYTE   W01
 BYTE   BEND   c_v+4
 BYTE   W01
 BYTE   BEND   c_v+3
 BYTE   W01
 BYTE   BEND   c_v+2
 BYTE   W01
 BYTE   BEND   c_v+2
 BYTE   W01
 BYTE   BEND   c_v+1
 BYTE   W01
 BYTE   BEND   c_v+0
 BYTE   W01
 BYTE   BEND   c_v+0
 BYTE   W10
 BYTE   BEND   c_v+0
 BYTE   W05
 BYTE   BEND   c_v+0
 BYTE   W01
 BYTE   PEND 
//  #09 //030   ----------------------------------------
 BYTE   EOT
 BYTE   Gn4
//  #09 //031   ----------------------------------------
 BYTE   PATT
  POIN2 Label_0100B058
//  #09 //032   ----------------------------------------
 BYTE   PATT
  POIN2 Label_0100AF93
//  #09 //033   ----------------------------------------
 BYTE   EOT
 BYTE   Gn4
 BYTE   BEND   c_v-62
 BYTE   TIE  Bn4  v100
 BYTE   W01
 BYTE   BEND   c_v-60
 BYTE   W01
 BYTE   BEND   c_v-58
 BYTE   W01
 BYTE   BEND   c_v-54
 BYTE   W01
 BYTE   BEND   c_v-52
 BYTE   W01
 BYTE   BEND   c_v-50
 BYTE   W01
 BYTE   BEND   c_v-45
 BYTE   W01
 BYTE   BEND   c_v-43
 BYTE   W01
 BYTE   BEND   c_v-41
 BYTE   W01
 BYTE   BEND   c_v-37
 BYTE   W01
 BYTE   BEND   c_v-35
 BYTE   W01
 BYTE   BEND   c_v-32
 BYTE   W01
 BYTE   BEND   c_v-28
 BYTE   W01
 BYTE   BEND   c_v-26
 BYTE   W01
 BYTE   BEND   c_v-24
 BYTE   W01
 BYTE   BEND   c_v-20
 BYTE   W01
 BYTE   BEND   c_v-18
 BYTE   W01
 BYTE   BEND   c_v-15
 BYTE   W01
 BYTE   BEND   c_v-11
 BYTE   W01
 BYTE   BEND   c_v-9
 BYTE   W01
 BYTE   BEND   c_v-7
 BYTE   W01
 BYTE   BEND   c_v-3
 BYTE   W01
 BYTE   BEND   c_v+0
 BYTE   W30
 BYTE   BEND   c_v+0
 BYTE   W01
 BYTE   BEND   c_v-1
 BYTE   W01
 BYTE   BEND   c_v-1
 BYTE   W01
 BYTE   BEND   c_v-2
 BYTE   W01
 BYTE   BEND   c_v-2
 BYTE   W01
 BYTE   BEND   c_v-3
 BYTE   W01
 BYTE   BEND   c_v-3
 BYTE   W01
 BYTE   BEND   c_v-3
 BYTE   W01
 BYTE   BEND   c_v-4
 BYTE   W01
 BYTE   BEND   c_v-4
 BYTE   W01
 BYTE   BEND   c_v-5
 BYTE   W01
 BYTE   BEND   c_v-5
 BYTE   W01
 BYTE   BEND   c_v-6
 BYTE   W01
 BYTE   BEND   c_v-6
 BYTE   W01
 BYTE   BEND   c_v-7
 BYTE   W01
 BYTE   BEND   c_v-7
 BYTE   W01
 BYTE   BEND   c_v-7
 BYTE   W01
 BYTE   BEND   c_v-7
 BYTE   W01
 BYTE   BEND   c_v-7
 BYTE   W01
 BYTE   BEND   c_v-7
 BYTE   W01
 BYTE   BEND   c_v-6
 BYTE   W01
 BYTE   BEND   c_v-6
 BYTE   W01
 BYTE   BEND   c_v-5
 BYTE   W01
 BYTE   BEND   c_v-5
 BYTE   W01
 BYTE   BEND   c_v-4
 BYTE   W01
 BYTE   BEND   c_v-4
 BYTE   W01
 BYTE   BEND   c_v-3
 BYTE   W01
 BYTE   BEND   c_v-3
 BYTE   W01
 BYTE   BEND   c_v-3
 BYTE   W01
 BYTE   BEND   c_v-2
 BYTE   W01
 BYTE   BEND   c_v-2
 BYTE   W01
 BYTE   BEND   c_v-1
 BYTE   W01
 BYTE   BEND   c_v-1
 BYTE   W01
 BYTE   BEND   c_v+0
 BYTE   W11
//  #09 //034   ----------------------------------------
 BYTE   PATT
  POIN2 Label_0100AF93
//  #09 //035   ----------------------------------------
 BYTE   EOT
 BYTE   Bn4
//  #09 //036   ----------------------------------------
 BYTE   PATT
  POIN2 Label_0100B003
//  #09 //037   ----------------------------------------
 BYTE   PATT
  POIN2 Label_0100AF93
//  #09 //038   ----------------------------------------
 BYTE   EOT
 BYTE   An4
//  #09 //039   ----------------------------------------
 BYTE   PATT
  POIN2 Label_0100B058
//  #09 //040   ----------------------------------------
 BYTE   PATT
  POIN2 Label_0100B0A6
//  #09 //041   ----------------------------------------
 BYTE   EOT
 BYTE   Gn4
//  #09 //042   ----------------------------------------
 BYTE   PATT
  POIN2 Label_0100B058
//  #09 //043   ----------------------------------------
 BYTE   W24
 BYTE   W01
 BYTE   BEND   c_v+0
 BYTE   W01
 BYTE   BEND   c_v-1
 BYTE   W01
 BYTE   BEND   c_v-2
 BYTE   W01
 BYTE   BEND   c_v-2
 BYTE   W01
 BYTE   BEND   c_v-3
 BYTE   W01
 BYTE   BEND   c_v-3
 BYTE   W01
 BYTE   BEND   c_v-4
 BYTE   W01
 BYTE   BEND   c_v-4
 BYTE   W01
 BYTE   BEND   c_v-5
 BYTE   W01
 BYTE   BEND   c_v-5
 BYTE   W01
 BYTE   BEND   c_v-6
 BYTE   W01
 BYTE   BEND   c_v-6
 BYTE   W01
 BYTE   BEND   c_v-7
 BYTE   W01
 BYTE   BEND   c_v-7
 BYTE   W01
 BYTE   BEND   c_v-7
 BYTE   W01
 BYTE   BEND   c_v-7
 BYTE   W01
 BYTE   BEND   c_v-6
 BYTE   W01
 BYTE   BEND   c_v-5
 BYTE   W01
 BYTE   BEND   c_v-5
 BYTE   W01
 BYTE   BEND   c_v-4
 BYTE   W01
 BYTE   BEND   c_v-4
 BYTE   W01
 BYTE   BEND   c_v-3
 BYTE   W01
 BYTE   BEND   c_v-3
 BYTE   W01
 BYTE   BEND   c_v-2
 BYTE   W01
 BYTE   BEND   c_v-1
 BYTE   W01
 BYTE   BEND   c_v-1
 BYTE   W01
 BYTE   BEND   c_v+0
 BYTE   W10
 BYTE   BEND   c_v+0
 BYTE   W01
 BYTE   BEND   c_v+0
 BYTE   W01
 BYTE   BEND   c_v+1
 BYTE   W01
 BYTE   BEND   c_v+1
 BYTE   W01
 BYTE   BEND   c_v+2
 BYTE   W01
 BYTE   BEND   c_v+2
 BYTE   W01
 BYTE   BEND   c_v+3
 BYTE   W01
 BYTE   BEND   c_v+3
 BYTE   W01
 BYTE   BEND   c_v+4
 BYTE   W01
 BYTE   BEND   c_v+4
 BYTE   W01
 BYTE   BEND   c_v+5
 BYTE   W01
 BYTE   BEND   c_v+5
 BYTE   W01
 BYTE   BEND   c_v+4
 BYTE   W01
 BYTE   BEND   c_v+4
 BYTE   W01
 BYTE   BEND   c_v+3
 BYTE   W01
 BYTE   BEND   c_v+2
 BYTE   W01
 BYTE   BEND   c_v+2
 BYTE   W01
 BYTE   BEND   c_v+1
 BYTE   W01
 BYTE   BEND   c_v+0
 BYTE   W01
 BYTE   BEND   c_v+0
 BYTE   W01
 BYTE   BEND   c_v-3
 BYTE   W01
 BYTE   BEND   c_v-7
 BYTE   W01
 BYTE   BEND   c_v-9
 BYTE   W01
 BYTE   BEND   c_v-11
 BYTE   W01
 BYTE   BEND   c_v-15
 BYTE   W01
 BYTE   BEND   c_v-18
 BYTE   W01
 BYTE   BEND   c_v-26
 BYTE   W01
 BYTE   BEND   c_v-30
 BYTE   W01
 BYTE   BEND   c_v-34
 BYTE   W01
 BYTE   BEND   c_v-42
 BYTE   W01
 BYTE   BEND   c_v-46
 BYTE   W01
 BYTE   BEND   c_v-49
 BYTE   W01
 BYTE   BEND   c_v-57
 BYTE   W01
 BYTE   BEND   c_v-61
 BYTE   W02
//  #09 //044   ----------------------------------------
 BYTE   EOT
 BYTE   Gn4
 BYTE   W96
//  #09 //045   ----------------------------------------
 BYTE   W96
//  #09 //046   ----------------------------------------
 BYTE   W96
//  #09 //047   ----------------------------------------
 BYTE   W96
//  #09 //048   ----------------------------------------
 BYTE   W96
//  #09 //049   ----------------------------------------
 BYTE   W96
//  #09 //050   ----------------------------------------
 BYTE   W96
//  #09 //051   ----------------------------------------
 BYTE   W96
//  #09 //052   ----------------------------------------
 BYTE   W96
//  #09 //053   ----------------------------------------
 BYTE   W96
//  #09 //054   ----------------------------------------
 BYTE   W96
//  #09 //055   ----------------------------------------
 BYTE   W96
//  #09 //056   ----------------------------------------
 BYTE   W96
//  #09 //057   ----------------------------------------
 BYTE   W96
//  #09 //058   ----------------------------------------
 BYTE   W96
//  #09 //059   ----------------------------------------
 BYTE   W96
//  #09 //060   ----------------------------------------
 BYTE   W96
//  #09 //061   ----------------------------------------
 BYTE   W96
//  #09 //062   ----------------------------------------
 BYTE   W96
//  #09 //063   ----------------------------------------
 BYTE   W96
//  #09 //064   ----------------------------------------
 BYTE   W96
//  #09 //065   ----------------------------------------
 BYTE   W96
//  #09 //066   ----------------------------------------
 BYTE   W96
//  #09 //067   ----------------------------------------
 BYTE   W96
//  #09 //068   ----------------------------------------
 BYTE   W96
//  #09 //069   ----------------------------------------
 BYTE   W96
//  #09 //070   ----------------------------------------
 BYTE   W96
//  #09 //071   ----------------------------------------
 BYTE   W96
//  #09 //072   ----------------------------------------
 BYTE   W96
//  #09 //073   ----------------------------------------
 BYTE   W96
//  #09 //074   ----------------------------------------
 BYTE   W96
//  #09 //075   ----------------------------------------
 BYTE   W96
//  #09 //076   ----------------------------------------
 BYTE   VOL   38*BattleA3_mvl/mxv
 BYTE   BEND   c_v-60
 BYTE   N96  Bn4  v084
 BYTE   W01
 BYTE   BEND   c_v-56
 BYTE   W01
 BYTE   BEND   c_v-52
 BYTE   W01
 BYTE   BEND   c_v-44
 BYTE   W01
 BYTE   BEND   c_v-40
 BYTE   W01
 BYTE   BEND   c_v-36
 BYTE   W01
 BYTE   BEND   c_v-28
 BYTE   W01
 BYTE   BEND   c_v-24
 BYTE   W01
 BYTE   BEND   c_v-20
 BYTE   W01
 BYTE   BEND   c_v-12
 BYTE   W01
 BYTE   BEND   c_v-8
 BYTE   W01
 BYTE   BEND   c_v-4
 BYTE   W01
 BYTE   BEND   c_v+0
 BYTE   W78
 BYTE   BEND   c_v-8
 BYTE   W01
 BYTE   BEND   c_v-15
 BYTE   W01
 BYTE   BEND   c_v-22
 BYTE   W01
 BYTE   BEND   c_v-36
 BYTE   W01
 BYTE   BEND   c_v-44
 BYTE   W01
 BYTE   BEND   c_v-53
 BYTE   W01
//  #09 //077   ----------------------------------------
 BYTE   BEND   c_v-47
 BYTE   N36
 BYTE   W01
 BYTE   BEND   c_v-35
 BYTE   W01
 BYTE   BEND   c_v-29
 BYTE   W01
 BYTE   BEND   c_v-23
 BYTE   W01
 BYTE   BEND   c_v-11
 BYTE   W01
 BYTE   BEND   c_v-5
 BYTE   W01
 BYTE   BEND   c_v+0
 BYTE   W30
 BYTE   BEND   c_v-56
 BYTE   N36
 BYTE   W01
 BYTE   BEND   c_v-48
 BYTE   W01
 BYTE   BEND   c_v-40
 BYTE   W01
 BYTE   BEND   c_v-24
 BYTE   W01
 BYTE   BEND   c_v-16
 BYTE   W01
 BYTE   BEND   c_v-8
 BYTE   W01
 BYTE   BEND   c_v+0
 BYTE   W30
 BYTE   BEND   c_v-48
 BYTE   N24
 BYTE   W01
 BYTE   BEND   c_v-32
 BYTE   W01
 BYTE   BEND   c_v-16
 BYTE   W01
 BYTE   BEND   c_v+0
 BYTE   W21
//  #09 //078   ----------------------------------------
 BYTE   TIE  An4
 BYTE   W12
 BYTE   BEND   c_v+1
 BYTE   W01
 BYTE   BEND   c_v+2
 BYTE   W01
 BYTE   BEND   c_v+3
 BYTE   W01
 BYTE   BEND   c_v+5
 BYTE   W01
 BYTE   BEND   c_v+6
 BYTE   W01
 BYTE   BEND   c_v+7
 BYTE   W01
 BYTE   BEND   c_v+9
 BYTE   W01
 BYTE   BEND   c_v+10
 BYTE   W01
 BYTE   BEND   c_v+11
 BYTE   W01
 BYTE   BEND   c_v+13
 BYTE   W01
 BYTE   BEND   c_v+14
 BYTE   W01
 BYTE   BEND   c_v+15
 BYTE   W01
 BYTE   BEND   c_v+17
 BYTE   W01
 BYTE   BEND   c_v+18
 BYTE   W01
 BYTE   BEND   c_v+16
 BYTE   W01
 BYTE   BEND   c_v+13
 BYTE   W01
 BYTE   BEND   c_v+12
 BYTE   W01
 BYTE   BEND   c_v+10
 BYTE   W01
 BYTE   BEND   c_v+7
 BYTE   W01
 BYTE   BEND   c_v+6
 BYTE   W01
 BYTE   BEND   c_v+4
 BYTE   W01
 BYTE   BEND   c_v+1
 BYTE   W01
 BYTE   BEND   c_v+0
 BYTE   W14
 BYTE   BEND   c_v-2
 BYTE   W01
 BYTE   BEND   c_v-4
 BYTE   W01
 BYTE   BEND   c_v-6
 BYTE   W01
 BYTE   BEND   c_v-9
 BYTE   W01
 BYTE   BEND   c_v-11
 BYTE   W01
 BYTE   BEND   c_v-12
 BYTE   W01
 BYTE   BEND   c_v-16
 BYTE   W01
 BYTE   BEND   c_v-17
 BYTE   W01
 BYTE   BEND   c_v-16
 BYTE   W01
 BYTE   BEND   c_v-13
 BYTE   W01
 BYTE   BEND   c_v-12
 BYTE   W01
 BYTE   BEND   c_v-10
 BYTE   W01
 BYTE   BEND   c_v-8
 BYTE   W01
 BYTE   BEND   c_v-6
 BYTE   W01
 BYTE   BEND   c_v-5
 BYTE   W01
 BYTE   BEND   c_v-2
 BYTE   W01
 BYTE   BEND   c_v+0
 BYTE   W11
 BYTE   BEND   c_v+0
 BYTE   W01
 BYTE   BEND   c_v+1
 BYTE   W01
 BYTE   BEND   c_v+2
 BYTE   W01
 BYTE   BEND   c_v+3
 BYTE   W01
 BYTE   BEND   c_v+4
 BYTE   W01
 BYTE   BEND   c_v+4
 BYTE   W01
 BYTE   BEND   c_v+6
 BYTE   W01
 BYTE   BEND   c_v+7
 BYTE   W01
 BYTE   BEND   c_v+7
 BYTE   W01
 BYTE   BEND   c_v+9
 BYTE   W01
 BYTE   BEND   c_v+9
 BYTE   W01
 BYTE   BEND   c_v+10
 BYTE   W01
 BYTE   BEND   c_v+11
 BYTE   W01
 BYTE   BEND   c_v+12
 BYTE   W01
 BYTE   BEND   c_v+11
 BYTE   W01
 BYTE   BEND   c_v+8
 BYTE   W01
 BYTE   BEND   c_v+7
 BYTE   W01
 BYTE   BEND   c_v+6
 BYTE   W01
 BYTE   BEND   c_v+3
 BYTE   W01
 BYTE   BEND   c_v+2
 BYTE   W01
 BYTE   BEND   c_v+1
 BYTE   W01
//  #09 //079   ----------------------------------------
 BYTE   BEND   c_v+0
 BYTE   W01
 BYTE   BEND   c_v+0
 BYTE   W01
 BYTE   BEND   c_v+1
 BYTE   W01
 BYTE   BEND   c_v+1
 BYTE   W01
 BYTE   BEND   c_v+2
 BYTE   W01
 BYTE   BEND   c_v+2
 BYTE   W01
 BYTE   BEND   c_v+3
 BYTE   W01
 BYTE   BEND   c_v+3
 BYTE   W01
 BYTE   BEND   c_v+3
 BYTE   W01
 BYTE   BEND   c_v+4
 BYTE   W01
 BYTE   BEND   c_v+4
 BYTE   W01
 BYTE   BEND   c_v+5
 BYTE   W01
 BYTE   BEND   c_v+3
 BYTE   W01
 BYTE   BEND   c_v+1
 BYTE   W01
 BYTE   BEND   c_v+0
 BYTE   W01
 BYTE   BEND   c_v-4
 BYTE   W01
 BYTE   BEND   c_v-6
 BYTE   W01
 BYTE   BEND   c_v-8
 BYTE   W01
 BYTE   BEND   c_v-12
 BYTE   W01
 BYTE   BEND   c_v-14
 BYTE   W01
 BYTE   BEND   c_v-15
 BYTE   W01
 BYTE   BEND   c_v-16
 BYTE   W01
 BYTE   BEND   c_v-14
 BYTE   W01
 BYTE   BEND   c_v-12
 BYTE   W01
 BYTE   BEND   c_v-9
 BYTE   W01
 BYTE   BEND   c_v-7
 BYTE   W01
 BYTE   BEND   c_v-6
 BYTE   W01
 BYTE   BEND   c_v-2
 BYTE   W01
 BYTE   BEND   c_v-1
 BYTE   W01
 BYTE   BEND   c_v+1
 BYTE   W01
 BYTE   BEND   c_v+4
 BYTE   W01
 BYTE   BEND   c_v+6
 BYTE   W01
 BYTE   BEND   c_v+8
 BYTE   W01
 BYTE   BEND   c_v+7
 BYTE   W01
 BYTE   BEND   c_v+4
 BYTE   W01
 BYTE   BEND   c_v+2
 BYTE   W01
 BYTE   BEND   c_v-3
 BYTE   W01
 BYTE   BEND   c_v-5
 BYTE   W01
 BYTE   BEND   c_v-8
 BYTE   W01
 BYTE   BEND   c_v-10
 BYTE   W01
 BYTE   BEND   c_v-9
 BYTE   W01
 BYTE   BEND   c_v-8
 BYTE   W01
 BYTE   BEND   c_v-7
 BYTE   W01
 BYTE   BEND   c_v-7
 BYTE   W01
 BYTE   BEND   c_v-6
 BYTE   W01
 BYTE   BEND   c_v-5
 BYTE   W01
 BYTE   BEND   c_v-4
 BYTE   W01
 BYTE   BEND   c_v-4
 BYTE   W01
 BYTE   BEND   c_v-2
 BYTE   W01
 BYTE   BEND   c_v-2
 BYTE   W01
 BYTE   BEND   c_v-1
 BYTE   W01
 BYTE   BEND   c_v+0
 BYTE   W09
 BYTE   BEND   c_v-5
 BYTE   W01
 BYTE   BEND   c_v-9
 BYTE   W01
 BYTE   BEND   c_v-14
 BYTE   W01
 BYTE   BEND   c_v-22
 BYTE   W01
 BYTE   BEND   c_v-27
 BYTE   W01
 BYTE   BEND   c_v-31
 BYTE   W01
 BYTE   BEND   c_v-40
 BYTE   W01
 BYTE   BEND   c_v-44
 BYTE   W01
 BYTE   BEND   c_v-48
 BYTE   W01
 BYTE   BEND   c_v-57
 BYTE   W01
 BYTE   BEND   c_v+0
 BYTE   W02
 BYTE   EOT
 BYTE   N12  Bn3
 BYTE   W12
 BYTE   N24  Fs4
 BYTE   W12
//  #09 //080   ----------------------------------------
 BYTE   W12
 BYTE   N12  Gn4
 BYTE   W12
 BYTE   Bn3
 BYTE   W12
 BYTE   Fs4
 BYTE   W12
 BYTE   Dn4
 BYTE   W12
 BYTE   En4
 BYTE   W12
 BYTE   Bn3
 BYTE   W12
 BYTE   Dn4
 BYTE   W12
//  #09 //081   ----------------------------------------
 BYTE   An3
 BYTE   W12
 BYTE   Bn3
 BYTE   W12
 BYTE   Gn3
 BYTE   W12
 BYTE   An3
 BYTE   W12
 BYTE   Fs3
 BYTE   W12
 BYTE   Gn3
 BYTE   W12
 BYTE   En3
 BYTE   W12
 BYTE   Fs3
 BYTE   W12
//  #09 //082   ----------------------------------------
 BYTE   Dn3
 BYTE   W12
 BYTE   En3
 BYTE   W12
 BYTE   Bn2
 BYTE   W12
 BYTE   Dn3
 BYTE   W12
 BYTE   An2
 BYTE   W12
 BYTE   Bn2
 BYTE   W12
 BYTE   Gn2
 BYTE   W12
 BYTE   An2
 BYTE   W12
//  #09 //083   ----------------------------------------
 BYTE   En2
 BYTE   W12
 BYTE   Fs2
 BYTE   W12
 BYTE   Gn2
 BYTE   W12
 BYTE   An2
 BYTE   W12
 BYTE   Bn2
 BYTE   W12
 BYTE   Cn3
 BYTE   W12
 BYTE   Dn3
 BYTE   W12
 BYTE   En3
 BYTE   W12
//  #09 //084   ----------------------------------------
 BYTE   TIE  Fs3
 BYTE   W36
 BYTE   W01
 BYTE   BEND   c_v+0
 BYTE   W01
 BYTE   BEND   c_v-1
 BYTE   W01
 BYTE   BEND   c_v-2
 BYTE   W01
 BYTE   BEND   c_v-3
 BYTE   W01
 BYTE   BEND   c_v-4
 BYTE   W01
 BYTE   BEND   c_v-5
 BYTE   W01
 BYTE   BEND   c_v-5
 BYTE   W01
 BYTE   BEND   c_v-6
 BYTE   W01
 BYTE   BEND   c_v-7
 BYTE   W01
 BYTE   BEND   c_v-8
 BYTE   W01
 BYTE   BEND   c_v-8
 BYTE   W01
 BYTE   BEND   c_v-8
 BYTE   W01
 BYTE   BEND   c_v-7
 BYTE   W01
 BYTE   BEND   c_v-6
 BYTE   W01
 BYTE   BEND   c_v-3
 BYTE   W01
 BYTE   BEND   c_v-2
 BYTE   W01
 BYTE   BEND   c_v-1
 BYTE   W01
 BYTE   BEND   c_v+1
 BYTE   W01
 BYTE   VOL   38*BattleA3_mvl/mxv
 BYTE   BEND   c_v+2
 BYTE   W01
 BYTE   BEND   c_v+3
 BYTE   W01
 BYTE   BEND   c_v+5
 BYTE   W01
 BYTE   BEND   c_v+7
 BYTE   W01
 BYTE   BEND   c_v+5
 BYTE   W01
 BYTE   BEND   c_v+2
 BYTE   W01
 BYTE   BEND   c_v+0
 BYTE   W01
 BYTE   BEND   c_v-2
 BYTE   W01
 BYTE   BEND   c_v-5
 BYTE   W01
 BYTE   BEND   c_v-7
 BYTE   W01
 BYTE   BEND   c_v-8
 BYTE   W01
 BYTE   BEND   c_v-12
 BYTE   W01
 BYTE   BEND   c_v-13
 BYTE   W01
 BYTE   BEND   c_v-11
 BYTE   W01
 BYTE   BEND   c_v-8
 BYTE   W01
 BYTE   BEND   c_v-6
 BYTE   W01
 BYTE   BEND   c_v-4
 BYTE   W01
 BYTE   BEND   c_v+0
 BYTE   W01
 BYTE   BEND   c_v+2
 BYTE   W01
 BYTE   BEND   c_v+4
 BYTE   W01
 BYTE   BEND   c_v+7
 BYTE   W01
 BYTE   BEND   c_v+9
 BYTE   W01
 BYTE   BEND   c_v+7
 BYTE   W01
 BYTE   BEND   c_v+1
 BYTE   W01
 BYTE   BEND   c_v-2
 BYTE   W01
 BYTE   BEND   c_v-5
 BYTE   W01
 BYTE   BEND   c_v-7
 BYTE   W01
 BYTE   BEND   c_v-6
 BYTE   W01
 BYTE   BEND   c_v-5
 BYTE   W01
 BYTE   BEND   c_v-4
 BYTE   W01
 BYTE   BEND   c_v-3
 BYTE   W01
 BYTE   BEND   c_v-3
 BYTE   W01
 BYTE   BEND   c_v-1
 BYTE   W01
 BYTE   BEND   c_v+0
 BYTE   W01
 BYTE   BEND   c_v-1
 BYTE   W01
 BYTE   BEND   c_v-2
 BYTE   W01
 BYTE   BEND   c_v-3
 BYTE   W01
 BYTE   BEND   c_v-4
 BYTE   W01
 BYTE   VOL   38*BattleA3_mvl/mxv
 BYTE   BEND   c_v-5
 BYTE   W01
 BYTE   BEND   c_v-5
 BYTE   W01
 BYTE   BEND   c_v-6
 BYTE   W01
//  #09 //085   ----------------------------------------
Label_0100B46F:
 BYTE   BEND   c_v-7
 BYTE   W01
 BYTE   BEND   c_v-8
 BYTE   W01
 BYTE   BEND   c_v-9
 BYTE   W01
 BYTE   BEND   c_v-10
 BYTE   W01
 BYTE   BEND   c_v-10
 BYTE   W01
 BYTE   BEND   c_v-11
 BYTE   W01
 BYTE   BEND   c_v-11
 BYTE   W01
 BYTE   BEND   c_v-10
 BYTE   W01
 BYTE   BEND   c_v-10
 BYTE   W01
 BYTE   BEND   c_v-8
 BYTE   W01
 BYTE   BEND   c_v-8
 BYTE   W01
 BYTE   BEND   c_v-7
 BYTE   W01
 BYTE   BEND   c_v-5
 BYTE   W01
 BYTE   BEND   c_v-5
 BYTE   W01
 BYTE   BEND   c_v-4
 BYTE   W01
 BYTE   BEND   c_v-3
 BYTE   W01
 BYTE   BEND   c_v-2
 BYTE   W01
 BYTE   BEND   c_v-1
 BYTE   W01
 BYTE   BEND   c_v+0
 BYTE   W13
 BYTE   BEND   c_v+0
 BYTE   W01
 BYTE   BEND   c_v+1
 BYTE   W01
 BYTE   BEND   c_v+4
 BYTE   W01
 BYTE   BEND   c_v+6
 BYTE   W01
 BYTE   BEND   c_v+7
 BYTE   W01
 BYTE   BEND   c_v+11
 BYTE   W01
 BYTE   BEND   c_v+12
 BYTE   W01
 BYTE   BEND   c_v+11
 BYTE   W01
 BYTE   BEND   c_v+7
 BYTE   W01
 BYTE   BEND   c_v+6
 BYTE   W01
 BYTE   BEND   c_v+4
 BYTE   W01
 BYTE   BEND   c_v+1
 BYTE   W01
 BYTE   BEND   c_v+0
 BYTE   W11
 BYTE   BEND   c_v+0
 BYTE   W06
 BYTE   BEND   c_v+0
 BYTE   W12
 BYTE   PEND 
 BYTE   EOT
 BYTE   Fs3
 BYTE   N12  Fn3  v084
 BYTE   W12
 BYTE   N24  Fs3
 BYTE   W12
//  #09 //086   ----------------------------------------
 BYTE   W12
 BYTE   TIE  An3
 BYTE   W36
 BYTE   W01
 BYTE   BEND   c_v+0
 BYTE   W01
 BYTE   BEND   c_v-1
 BYTE   W01
 BYTE   BEND   c_v-2
 BYTE   W01
 BYTE   BEND   c_v-3
 BYTE   W01
 BYTE   BEND   c_v-4
 BYTE   W01
 BYTE   BEND   c_v-5
 BYTE   W01
 BYTE   BEND   c_v-5
 BYTE   W01
 BYTE   BEND   c_v-6
 BYTE   W01
 BYTE   BEND   c_v-7
 BYTE   W01
 BYTE   BEND   c_v-8
 BYTE   W01
 BYTE   BEND   c_v-8
 BYTE   W01
 BYTE   BEND   c_v-8
 BYTE   W01
 BYTE   BEND   c_v-7
 BYTE   W01
 BYTE   BEND   c_v-6
 BYTE   W01
 BYTE   BEND   c_v-3
 BYTE   W01
 BYTE   BEND   c_v-2
 BYTE   W01
 BYTE   BEND   c_v-1
 BYTE   W01
 BYTE   BEND   c_v+1
 BYTE   W01
 BYTE   VOL   38*BattleA3_mvl/mxv
 BYTE   BEND   c_v+2
 BYTE   W01
 BYTE   BEND   c_v+3
 BYTE   W01
 BYTE   BEND   c_v+5
 BYTE   W01
 BYTE   BEND   c_v+7
 BYTE   W01
 BYTE   BEND   c_v+5
 BYTE   W01
 BYTE   BEND   c_v+2
 BYTE   W01
 BYTE   BEND   c_v+0
 BYTE   W01
 BYTE   BEND   c_v-2
 BYTE   W01
 BYTE   BEND   c_v-5
 BYTE   W01
 BYTE   BEND   c_v-7
 BYTE   W01
 BYTE   BEND   c_v-8
 BYTE   W01
 BYTE   BEND   c_v-12
 BYTE   W01
 BYTE   BEND   c_v-13
 BYTE   W01
 BYTE   BEND   c_v-11
 BYTE   W01
 BYTE   BEND   c_v-8
 BYTE   W01
 BYTE   BEND   c_v-6
 BYTE   W01
 BYTE   BEND   c_v-4
 BYTE   W01
 BYTE   BEND   c_v+0
 BYTE   W01
 BYTE   BEND   c_v+2
 BYTE   W01
 BYTE   BEND   c_v+4
 BYTE   W01
 BYTE   BEND   c_v+7
 BYTE   W01
 BYTE   BEND   c_v+9
 BYTE   W01
 BYTE   BEND   c_v+7
 BYTE   W01
 BYTE   BEND   c_v+1
 BYTE   W01
 BYTE   BEND   c_v-2
 BYTE   W01
 BYTE   BEND   c_v-5
 BYTE   W01
 BYTE   BEND   c_v-7
 BYTE   W01
 BYTE   BEND   c_v-6
 BYTE   W01
 BYTE   BEND   c_v-5
 BYTE   W01
//  #09 //087   ----------------------------------------
Label_0100B525:
 BYTE   BEND   c_v-4
 BYTE   W01
 BYTE   BEND   c_v-3
 BYTE   W01
 BYTE   BEND   c_v-3
 BYTE   W01
 BYTE   BEND   c_v-1
 BYTE   W01
 BYTE   BEND   c_v+0
 BYTE   W01
 BYTE   BEND   c_v-1
 BYTE   W01
 BYTE   BEND   c_v-2
 BYTE   W01
 BYTE   BEND   c_v-3
 BYTE   W01
 BYTE   BEND   c_v-4
 BYTE   W01
 BYTE   VOL   38*BattleA3_mvl/mxv
 BYTE   BEND   c_v-5
 BYTE   W01
 BYTE   BEND   c_v-5
 BYTE   W01
 BYTE   BEND   c_v-6
 BYTE   W01
 BYTE   BEND   c_v-7
 BYTE   W01
 BYTE   BEND   c_v-8
 BYTE   W01
 BYTE   BEND   c_v-9
 BYTE   W01
 BYTE   BEND   c_v-10
 BYTE   W01
 BYTE   BEND   c_v-10
 BYTE   W01
 BYTE   BEND   c_v-11
 BYTE   W01
 BYTE   BEND   c_v-11
 BYTE   W01
 BYTE   BEND   c_v-10
 BYTE   W01
 BYTE   BEND   c_v-10
 BYTE   W01
 BYTE   BEND   c_v-8
 BYTE   W01
 BYTE   BEND   c_v-8
 BYTE   W01
 BYTE   BEND   c_v-7
 BYTE   W01
 BYTE   BEND   c_v-5
 BYTE   W01
 BYTE   BEND   c_v-5
 BYTE   W01
 BYTE   BEND   c_v-4
 BYTE   W01
 BYTE   BEND   c_v-3
 BYTE   W01
 BYTE   BEND   c_v-2
 BYTE   W01
 BYTE   BEND   c_v-1
 BYTE   W01
 BYTE   BEND   c_v+0
 BYTE   W13
 BYTE   BEND   c_v+0
 BYTE   W01
 BYTE   BEND   c_v+1
 BYTE   W01
 BYTE   BEND   c_v+4
 BYTE   W01
 BYTE   BEND   c_v+6
 BYTE   W01
 BYTE   BEND   c_v+7
 BYTE   W01
 BYTE   BEND   c_v+11
 BYTE   W01
 BYTE   BEND   c_v+12
 BYTE   W01
 BYTE   BEND   c_v+11
 BYTE   W01
 BYTE   BEND   c_v+7
 BYTE   W01
 BYTE   BEND   c_v+6
 BYTE   W01
 BYTE   BEND   c_v+4
 BYTE   W01
 BYTE   BEND   c_v+1
 BYTE   W01
 BYTE   BEND   c_v+0
 BYTE   W11
 BYTE   BEND   c_v+0
 BYTE   W06
 BYTE   PEND 
 BYTE   EOT
 BYTE   An3
 BYTE   BEND   c_v+0
 BYTE   N12  Bn3  v084
 BYTE   W12
 BYTE   N24  Cs4
 BYTE   W12
//  #09 //088   ----------------------------------------
 BYTE   W12
 BYTE   TIE  Fs4
 BYTE   W36
 BYTE   W01
 BYTE   BEND   c_v+0
 BYTE   W01
 BYTE   BEND   c_v-1
 BYTE   W01
 BYTE   BEND   c_v-2
 BYTE   W01
 BYTE   BEND   c_v-3
 BYTE   W01
 BYTE   BEND   c_v-4
 BYTE   W01
 BYTE   BEND   c_v-5
 BYTE   W01
 BYTE   BEND   c_v-5
 BYTE   W01
 BYTE   BEND   c_v-6
 BYTE   W01
 BYTE   BEND   c_v-7
 BYTE   W01
 BYTE   BEND   c_v-8
 BYTE   W01
 BYTE   BEND   c_v-8
 BYTE   W01
 BYTE   BEND   c_v-8
 BYTE   W01
 BYTE   BEND   c_v-7
 BYTE   W01
 BYTE   BEND   c_v-6
 BYTE   W01
 BYTE   BEND   c_v-3
 BYTE   W01
 BYTE   BEND   c_v-2
 BYTE   W01
 BYTE   BEND   c_v-1
 BYTE   W01
 BYTE   BEND   c_v+1
 BYTE   W01
 BYTE   VOL   38*BattleA3_mvl/mxv
 BYTE   BEND   c_v+2
 BYTE   W01
 BYTE   BEND   c_v+3
 BYTE   W01
 BYTE   BEND   c_v+5
 BYTE   W01
 BYTE   BEND   c_v+7
 BYTE   W01
 BYTE   BEND   c_v+5
 BYTE   W01
 BYTE   BEND   c_v+2
 BYTE   W01
 BYTE   BEND   c_v+0
 BYTE   W01
 BYTE   BEND   c_v-2
 BYTE   W01
 BYTE   BEND   c_v-5
 BYTE   W01
 BYTE   BEND   c_v-7
 BYTE   W01
 BYTE   BEND   c_v-8
 BYTE   W01
 BYTE   BEND   c_v-12
 BYTE   W01
 BYTE   BEND   c_v-13
 BYTE   W01
 BYTE   BEND   c_v-11
 BYTE   W01
 BYTE   BEND   c_v-8
 BYTE   W01
 BYTE   BEND   c_v-6
 BYTE   W01
 BYTE   BEND   c_v-4
 BYTE   W01
 BYTE   BEND   c_v+0
 BYTE   W01
 BYTE   BEND   c_v+2
 BYTE   W01
 BYTE   BEND   c_v+4
 BYTE   W01
 BYTE   BEND   c_v+7
 BYTE   W01
 BYTE   BEND   c_v+9
 BYTE   W01
 BYTE   BEND   c_v+7
 BYTE   W01
 BYTE   BEND   c_v+1
 BYTE   W01
 BYTE   BEND   c_v-2
 BYTE   W01
 BYTE   BEND   c_v-5
 BYTE   W01
 BYTE   BEND   c_v-7
 BYTE   W01
 BYTE   BEND   c_v-6
 BYTE   W01
 BYTE   BEND   c_v-5
 BYTE   W01
//  #09 //089   ----------------------------------------
 BYTE   PATT
  POIN2 Label_0100B525
//  #09 //090   ----------------------------------------
 BYTE   EOT
 BYTE   Fs4
 BYTE   BEND   c_v+0
 BYTE   N12  En4  v084
 BYTE   W12
 BYTE   Fs4
 BYTE   W12
 BYTE   TIE  Cs5
 BYTE   W36
 BYTE   W01
 BYTE   BEND   c_v+0
 BYTE   W01
 BYTE   BEND   c_v-1
 BYTE   W01
 BYTE   BEND   c_v-2
 BYTE   W01
 BYTE   BEND   c_v-3
 BYTE   W01
 BYTE   BEND   c_v-4
 BYTE   W01
 BYTE   BEND   c_v-5
 BYTE   W01
 BYTE   BEND   c_v-5
 BYTE   W01
 BYTE   BEND   c_v-6
 BYTE   W01
 BYTE   BEND   c_v-7
 BYTE   W01
 BYTE   BEND   c_v-8
 BYTE   W01
 BYTE   BEND   c_v-8
 BYTE   W01
 BYTE   BEND   c_v-8
 BYTE   W01
 BYTE   BEND   c_v-7
 BYTE   W01
 BYTE   BEND   c_v-6
 BYTE   W01
 BYTE   BEND   c_v-3
 BYTE   W01
 BYTE   BEND   c_v-2
 BYTE   W01
 BYTE   BEND   c_v-1
 BYTE   W01
 BYTE   BEND   c_v+1
 BYTE   W01
 BYTE   VOL   38*BattleA3_mvl/mxv
 BYTE   BEND   c_v+2
 BYTE   W01
 BYTE   BEND   c_v+3
 BYTE   W01
 BYTE   BEND   c_v+5
 BYTE   W01
 BYTE   BEND   c_v+7
 BYTE   W01
 BYTE   BEND   c_v+5
 BYTE   W01
 BYTE   BEND   c_v+2
 BYTE   W01
 BYTE   BEND   c_v+0
 BYTE   W01
 BYTE   BEND   c_v-2
 BYTE   W01
 BYTE   BEND   c_v-5
 BYTE   W01
 BYTE   BEND   c_v-7
 BYTE   W01
 BYTE   BEND   c_v-8
 BYTE   W01
 BYTE   BEND   c_v-12
 BYTE   W01
 BYTE   BEND   c_v-13
 BYTE   W01
 BYTE   BEND   c_v-11
 BYTE   W01
 BYTE   BEND   c_v-8
 BYTE   W01
 BYTE   BEND   c_v-6
 BYTE   W01
 BYTE   BEND   c_v-4
 BYTE   W01
//  #09 //091   ----------------------------------------
 BYTE   BEND   c_v+0
 BYTE   W01
 BYTE   BEND   c_v+2
 BYTE   W01
 BYTE   BEND   c_v+4
 BYTE   W01
 BYTE   BEND   c_v+7
 BYTE   W01
 BYTE   BEND   c_v+9
 BYTE   W01
 BYTE   BEND   c_v+7
 BYTE   W01
 BYTE   BEND   c_v+1
 BYTE   W01
 BYTE   BEND   c_v-2
 BYTE   W01
 BYTE   BEND   c_v-5
 BYTE   W01
 BYTE   BEND   c_v-7
 BYTE   W01
 BYTE   BEND   c_v-6
 BYTE   W01
 BYTE   BEND   c_v-5
 BYTE   W01
 BYTE   BEND   c_v-4
 BYTE   W01
 BYTE   BEND   c_v-3
 BYTE   W01
 BYTE   BEND   c_v-3
 BYTE   W01
 BYTE   BEND   c_v-1
 BYTE   W01
 BYTE   BEND   c_v+0
 BYTE   W01
 BYTE   BEND   c_v-1
 BYTE   W01
 BYTE   BEND   c_v-2
 BYTE   W01
 BYTE   BEND   c_v-3
 BYTE   W01
 BYTE   BEND   c_v-4
 BYTE   W01
 BYTE   VOL   38*BattleA3_mvl/mxv
 BYTE   BEND   c_v-5
 BYTE   W01
 BYTE   BEND   c_v-5
 BYTE   W01
 BYTE   BEND   c_v-6
 BYTE   W01
//  #09 //092   ----------------------------------------
 BYTE   PATT
  POIN2 Label_0100B46F
//  #09 //093   ----------------------------------------
 BYTE   EOT
 BYTE   Cs5
 BYTE   W24
 BYTE   W96
//  #09 //094   ----------------------------------------
 BYTE   W96
//  #09 //095   ----------------------------------------
 BYTE   W96
//  #09 //096   ----------------------------------------
 BYTE   W96
//  #09 //097   ----------------------------------------
 BYTE   W96
//  #09 //098   ----------------------------------------
 BYTE   W96
//  #09 //099   ----------------------------------------
 BYTE   W96
//  #09 //100   ----------------------------------------
 BYTE   W96
//  #09 //101   ----------------------------------------
 BYTE   W96
//  #09 //102   ----------------------------------------
 BYTE   W96
//  #09 //103   ----------------------------------------
 BYTE   W96
//  #09 //104   ----------------------------------------
 BYTE   W96
//  #09 //105   ----------------------------------------
 BYTE   W96
//  #09 //106   ----------------------------------------
 BYTE   W96
//  #09 //107   ----------------------------------------
 BYTE   W96
//  #09 //108   ----------------------------------------
 BYTE   W96
//  #09 //109   ----------------------------------------
 BYTE   GoTo
  POIN2 Label_0100AEFA
 BYTE   FINE

//**************** Track 10 (Midi-Chn.9) ****************//

BattleA3_010:
//  #10 //000   ----------------------------------------
 BYTE   KEYSH   BattleA3_key+0
Label_01004DC2:
 BYTE   VOICE   89
 BYTE   W96
//  #10 //001   ----------------------------------------
 BYTE   W96
//  #10 //002   ----------------------------------------
 BYTE   W96
//  #10 //003   ----------------------------------------
 BYTE   W96
//  #10 //004   ----------------------------------------
 BYTE   W96
//  #10 //005   ----------------------------------------
 BYTE   W96
//  #10 //006   ----------------------------------------
 BYTE   W96
//  #10 //007   ----------------------------------------
 BYTE   W96
//  #10 //008   ----------------------------------------
 BYTE   W96
//  #10 //009   ----------------------------------------
 BYTE   W96
//  #10 //010   ----------------------------------------
 BYTE   W96
//  #10 //011   ----------------------------------------
 BYTE   W96
//  #10 //012   ----------------------------------------
 BYTE   W96
//  #10 //013   ----------------------------------------
 BYTE   W96
//  #10 //014   ----------------------------------------
 BYTE   W96
//  #10 //015   ----------------------------------------
 BYTE   W96
//  #10 //016   ----------------------------------------
 BYTE   W96
//  #10 //017   ----------------------------------------
 BYTE   W96
//  #10 //018   ----------------------------------------
 BYTE   W96
//  #10 //019   ----------------------------------------
 BYTE   W96
//  #10 //020   ----------------------------------------
 BYTE   W96
//  #10 //021   ----------------------------------------
 BYTE   W96
//  #10 //022   ----------------------------------------
 BYTE   W96
//  #10 //023   ----------------------------------------
 BYTE   W96
//  #10 //024   ----------------------------------------
 BYTE   W96
//  #10 //025   ----------------------------------------
 BYTE   W96
//  #10 //026   ----------------------------------------
 BYTE   W96
//  #10 //027   ----------------------------------------
 BYTE   W96
//  #10 //028   ----------------------------------------
 BYTE   W96
//  #10 //029   ----------------------------------------
 BYTE   W96
//  #10 //030   ----------------------------------------
 BYTE   W96
//  #10 //031   ----------------------------------------
 BYTE   W96
//  #10 //032   ----------------------------------------
 BYTE   W96
//  #10 //033   ----------------------------------------
 BYTE   W96
//  #10 //034   ----------------------------------------
 BYTE   W96
//  #10 //035   ----------------------------------------
 BYTE   W96
//  #10 //036   ----------------------------------------
 BYTE   W96
//  #10 //037   ----------------------------------------
 BYTE   W96
//  #10 //038   ----------------------------------------
 BYTE   W96
//  #10 //039   ----------------------------------------
 BYTE   W96
//  #10 //040   ----------------------------------------
 BYTE   W96
//  #10 //041   ----------------------------------------
 BYTE   W96
//  #10 //042   ----------------------------------------
 BYTE   W96
//  #10 //043   ----------------------------------------
 BYTE   W96
//  #10 //044   ----------------------------------------
 BYTE   W96
//  #10 //045   ----------------------------------------
 BYTE   W96
//  #10 //046   ----------------------------------------
 BYTE   W96
//  #10 //047   ----------------------------------------
 BYTE   W96
//  #10 //048   ----------------------------------------
 BYTE   W96
//  #10 //049   ----------------------------------------
 BYTE   W96
//  #10 //050   ----------------------------------------
 BYTE   W96
//  #10 //051   ----------------------------------------
 BYTE   W96
//  #10 //052   ----------------------------------------
 BYTE   W96
//  #10 //053   ----------------------------------------
 BYTE   W96
//  #10 //054   ----------------------------------------
 BYTE   W96
//  #10 //055   ----------------------------------------
 BYTE   W96
//  #10 //056   ----------------------------------------
 BYTE   VOL   16*BattleA3_mvl/mxv
 BYTE   TIE  Bn3  v096
 BYTE   TIE  En4
 BYTE   W01
 BYTE   VOL   16*BattleA3_mvl/mxv
 BYTE   W02
 BYTE   VOL   17*BattleA3_mvl/mxv
 BYTE   W03
 BYTE   VOL   17*BattleA3_mvl/mxv
 BYTE   W02
 BYTE   VOL   18*BattleA3_mvl/mxv
 BYTE   W02
 BYTE   VOL   18*BattleA3_mvl/mxv
 BYTE   W02
 BYTE   VOL   18*BattleA3_mvl/mxv
 BYTE   W03
 BYTE   VOL   19*BattleA3_mvl/mxv
 BYTE   W02
 BYTE   VOL   19*BattleA3_mvl/mxv
 BYTE   W02
 BYTE   VOL   20*BattleA3_mvl/mxv
 BYTE   W02
 BYTE   VOL   20*BattleA3_mvl/mxv
 BYTE   W03
 BYTE   VOL   20*BattleA3_mvl/mxv
 BYTE   W03
 BYTE   VOL   21*BattleA3_mvl/mxv
 BYTE   W02
 BYTE   VOL   21*BattleA3_mvl/mxv
 BYTE   W02
 BYTE   VOL   22*BattleA3_mvl/mxv
 BYTE   W02
 BYTE   VOL   22*BattleA3_mvl/mxv
 BYTE   W03
 BYTE   VOL   22*BattleA3_mvl/mxv
 BYTE   W02
 BYTE   VOL   23*BattleA3_mvl/mxv
 BYTE   W02
 BYTE   VOL   23*BattleA3_mvl/mxv
 BYTE   W02
 BYTE   VOL   24*BattleA3_mvl/mxv
 BYTE   W03
 BYTE   VOL   24*BattleA3_mvl/mxv
 BYTE   W02
 BYTE   VOL   24*BattleA3_mvl/mxv
 BYTE   W01
 BYTE   VOL   24*BattleA3_mvl/mxv
 BYTE   W42
 BYTE   VOL   24*BattleA3_mvl/mxv
 BYTE   W06
//  #10 //057   ----------------------------------------
 BYTE   W76
 BYTE   VOL   24*BattleA3_mvl/mxv
 BYTE   W20
//  #10 //058   ----------------------------------------
 BYTE   EOT
 BYTE   Bn3  v076
Label_01004E39:
 BYTE   TIE  Bn3  v096
 BYTE   TIE  En4
 BYTE   TIE  Gn4
 BYTE   W21
 BYTE   VOL   24*BattleA3_mvl/mxv
 BYTE   W42
 BYTE   VOL   24*BattleA3_mvl/mxv
 BYTE   W32
 BYTE   W01
 BYTE   PEND 
//  #10 //059   ----------------------------------------
Label_01004E48:
 BYTE   W52
 BYTE   W01
 BYTE   VOL   24*BattleA3_mvl/mxv
 BYTE   W42
 BYTE   W01
 BYTE   PEND 
//  #10 //060   ----------------------------------------
 BYTE   EOT
 BYTE   Bn3  v076
 BYTE   Gn4
Label_01004E53:
 BYTE   VOL   4*BattleA3_mvl/mxv
 BYTE   TIE  Bn3  v096
 BYTE   TIE  En4
 BYTE   TIE  Fs4
 BYTE   W01
 BYTE   VOL   5*BattleA3_mvl/mxv
 BYTE   W01
 BYTE   VOL   6*BattleA3_mvl/mxv
 BYTE   W01
 BYTE   VOL   7*BattleA3_mvl/mxv
 BYTE   W01
 BYTE   VOL   8*BattleA3_mvl/mxv
 BYTE   W01
 BYTE   VOL   9*BattleA3_mvl/mxv
 BYTE   W01
 BYTE   VOL   9*BattleA3_mvl/mxv
 BYTE   W01
 BYTE   VOL   11*BattleA3_mvl/mxv
 BYTE   W01
 BYTE   VOL   11*BattleA3_mvl/mxv
 BYTE   W01
 BYTE   VOL   12*BattleA3_mvl/mxv
 BYTE   W01
 BYTE   VOL   13*BattleA3_mvl/mxv
 BYTE   W01
 BYTE   VOL   13*BattleA3_mvl/mxv
 BYTE   W01
 BYTE   VOL   14*BattleA3_mvl/mxv
 BYTE   W01
 BYTE   VOL   15*BattleA3_mvl/mxv
 BYTE   W01
 BYTE   VOL   16*BattleA3_mvl/mxv
 BYTE   W01
 BYTE   VOL   16*BattleA3_mvl/mxv
 BYTE   W01
 BYTE   VOL   18*BattleA3_mvl/mxv
 BYTE   W01
 BYTE   VOL   18*BattleA3_mvl/mxv
 BYTE   W01
 BYTE   VOL   19*BattleA3_mvl/mxv
 BYTE   W01
 BYTE   VOL   20*BattleA3_mvl/mxv
 BYTE   W01
 BYTE   VOL   21*BattleA3_mvl/mxv
 BYTE   W01
 BYTE   VOL   21*BattleA3_mvl/mxv
 BYTE   W01
 BYTE   VOL   23*BattleA3_mvl/mxv
 BYTE   W01
 BYTE   VOL   23*BattleA3_mvl/mxv
 BYTE   W01
 BYTE   VOL   24*BattleA3_mvl/mxv
 BYTE   W42
 BYTE   VOL   24*BattleA3_mvl/mxv
 BYTE   W30
 BYTE   PEND 
//  #10 //061   ----------------------------------------
 BYTE   W54
 BYTE   Cn0
 BYTE   W40
 BYTE   EOT
 BYTE   TIE
 BYTE   W02
//  #10 //062   ----------------------------------------
 BYTE   EOT
 BYTE   Bn3
Label_01004E99:
 BYTE   VOL   4*BattleA3_mvl/mxv
 BYTE   TIE  Dn4  v096
 BYTE   TIE  An4
 BYTE   W01
 BYTE   PEND 
 BYTE   EOT
 BYTE   En4
 BYTE   VOL   5*BattleA3_mvl/mxv
 BYTE   W01
 BYTE   VOL   6*BattleA3_mvl/mxv
 BYTE   W01
 BYTE   VOL   7*BattleA3_mvl/mxv
 BYTE   W01
 BYTE   VOL   8*BattleA3_mvl/mxv
 BYTE   W01
 BYTE   VOL   9*BattleA3_mvl/mxv
 BYTE   W01
 BYTE   VOL   9*BattleA3_mvl/mxv
 BYTE   W01
 BYTE   VOL   11*BattleA3_mvl/mxv
 BYTE   W01
 BYTE   VOL   11*BattleA3_mvl/mxv
 BYTE   W01
 BYTE   VOL   12*BattleA3_mvl/mxv
 BYTE   W01
 BYTE   VOL   13*BattleA3_mvl/mxv
 BYTE   W01
 BYTE   VOL   13*BattleA3_mvl/mxv
 BYTE   W01
 BYTE   VOL   14*BattleA3_mvl/mxv
 BYTE   W01
 BYTE   VOL   15*BattleA3_mvl/mxv
 BYTE   W01
 BYTE   VOL   16*BattleA3_mvl/mxv
 BYTE   W01
 BYTE   VOL   16*BattleA3_mvl/mxv
 BYTE   W01
 BYTE   VOL   18*BattleA3_mvl/mxv
 BYTE   W01
 BYTE   VOL   18*BattleA3_mvl/mxv
 BYTE   W01
 BYTE   VOL   19*BattleA3_mvl/mxv
 BYTE   W01
 BYTE   VOL   20*BattleA3_mvl/mxv
 BYTE   W01
 BYTE   VOL   21*BattleA3_mvl/mxv
 BYTE   W01
 BYTE   VOL   21*BattleA3_mvl/mxv
 BYTE   W01
 BYTE   VOL   23*BattleA3_mvl/mxv
 BYTE   W01
 BYTE   VOL   23*BattleA3_mvl/mxv
 BYTE   W01
 BYTE   VOL   24*BattleA3_mvl/mxv
 BYTE   W72
//  #10 //063   ----------------------------------------
 BYTE   W92
 BYTE   W03
 BYTE   EOT
 BYTE   Fs4
 BYTE   W01
//  #10 //064   ----------------------------------------
 BYTE   Dn4  v081
Label_01004EDC:
 BYTE   TIE  Cs4  v096
 BYTE   TIE  Fs4
 BYTE   W96
 BYTE   PEND 
//  #10 //065   ----------------------------------------
 BYTE   W96
//  #10 //066   ----------------------------------------
 BYTE   EOT
 BYTE   Cs4  v078
 BYTE   TIE  Cs4
 BYTE   W01
 BYTE   Fs4
 BYTE   W92
 BYTE   W03
//  #10 //067   ----------------------------------------
 BYTE   W92
 BYTE   W03
 BYTE   EOT
 BYTE   W01
//  #10 //068   ----------------------------------------
 BYTE   EOT
 BYTE   Cs4
 BYTE   TIE  Cn4
 BYTE   TIE  Fs4
 BYTE   W96
//  #10 //069   ----------------------------------------
 BYTE   W96
//  #10 //070   ----------------------------------------
 BYTE   W48
 BYTE   EOT
 BYTE   Cn4  v078
 BYTE   TIE  Cs4
 BYTE   TIE  Fs4
 BYTE   W48
//  #10 //071   ----------------------------------------
 BYTE   W96
//  #10 //072   ----------------------------------------
 BYTE   EOT
 BYTE   Cs4  v078
 BYTE   VOL   0*BattleA3_mvl/mxv
 BYTE   TIE  Bn3
 BYTE   TIE  En4
 BYTE   W01
 BYTE   VOL   0*BattleA3_mvl/mxv
 BYTE   W01
 BYTE   VOL   1*BattleA3_mvl/mxv
 BYTE   W01
 BYTE   VOL   1*BattleA3_mvl/mxv
 BYTE   W01
 BYTE   VOL   2*BattleA3_mvl/mxv
 BYTE   W01
 BYTE   VOL   2*BattleA3_mvl/mxv
 BYTE   W01
 BYTE   VOL   3*BattleA3_mvl/mxv
 BYTE   W01
 BYTE   VOL   3*BattleA3_mvl/mxv
 BYTE   W01
 BYTE   VOL   4*BattleA3_mvl/mxv
 BYTE   W01
 BYTE   VOL   5*BattleA3_mvl/mxv
 BYTE   W01
 BYTE   VOL   5*BattleA3_mvl/mxv
 BYTE   W01
 BYTE   VOL   5*BattleA3_mvl/mxv
 BYTE   W01
 BYTE   VOL   6*BattleA3_mvl/mxv
 BYTE   W01
 BYTE   VOL   7*BattleA3_mvl/mxv
 BYTE   W01
 BYTE   VOL   7*BattleA3_mvl/mxv
 BYTE   W01
 BYTE   VOL   8*BattleA3_mvl/mxv
 BYTE   W01
 BYTE   VOL   8*BattleA3_mvl/mxv
 BYTE   W01
 BYTE   VOL   9*BattleA3_mvl/mxv
 BYTE   W01
 BYTE   VOL   9*BattleA3_mvl/mxv
 BYTE   W01
 BYTE   VOL   10*BattleA3_mvl/mxv
 BYTE   W01
 BYTE   VOL   10*BattleA3_mvl/mxv
 BYTE   W01
 BYTE   VOL   11*BattleA3_mvl/mxv
 BYTE   W01
 BYTE   VOL   11*BattleA3_mvl/mxv
 BYTE   W01
 BYTE   VOL   12*BattleA3_mvl/mxv
 BYTE   W01
 BYTE   VOL   12*BattleA3_mvl/mxv
 BYTE   W01
 BYTE   VOL   12*BattleA3_mvl/mxv
 BYTE   W01
 BYTE   VOL   13*BattleA3_mvl/mxv
 BYTE   W01
 BYTE   VOL   14*BattleA3_mvl/mxv
 BYTE   W01
 BYTE   VOL   14*BattleA3_mvl/mxv
 BYTE   W01
 BYTE   VOL   14*BattleA3_mvl/mxv
 BYTE   W01
 BYTE   VOL   15*BattleA3_mvl/mxv
 BYTE   W01
 BYTE   VOL   16*BattleA3_mvl/mxv
 BYTE   W01
 BYTE   VOL   16*BattleA3_mvl/mxv
 BYTE   W01
 BYTE   VOL   17*BattleA3_mvl/mxv
 BYTE   W01
 BYTE   VOL   17*BattleA3_mvl/mxv
 BYTE   W01
 BYTE   VOL   18*BattleA3_mvl/mxv
 BYTE   W01
 BYTE   VOL   18*BattleA3_mvl/mxv
 BYTE   W01
 BYTE   VOL   19*BattleA3_mvl/mxv
 BYTE   W01
 BYTE   VOL   19*BattleA3_mvl/mxv
 BYTE   W01
 BYTE   VOL   20*BattleA3_mvl/mxv
 BYTE   W01
 BYTE   VOL   20*BattleA3_mvl/mxv
 BYTE   W01
 BYTE   VOL   21*BattleA3_mvl/mxv
 BYTE   W01
 BYTE   VOL   22*BattleA3_mvl/mxv
 BYTE   W01
 BYTE   VOL   22*BattleA3_mvl/mxv
 BYTE   W01
 BYTE   VOL   22*BattleA3_mvl/mxv
 BYTE   W01
 BYTE   VOL   23*BattleA3_mvl/mxv
 BYTE   W01
 BYTE   VOL   24*BattleA3_mvl/mxv
 BYTE   W01
 BYTE   VOL   24*BattleA3_mvl/mxv
 BYTE   W01
 BYTE   VOL   24*BattleA3_mvl/mxv
 BYTE   W42
 BYTE   VOL   24*BattleA3_mvl/mxv
 BYTE   W06
//  #10 //073   ----------------------------------------
 BYTE   W76
 BYTE   VOL   24*BattleA3_mvl/mxv
 BYTE   W20
//  #10 //074   ----------------------------------------
 BYTE   EOT
 BYTE   Bn3  v076
//  #10 //075   ----------------------------------------
 BYTE   PATT
  POIN2 Label_01004E39
//  #10 //076   ----------------------------------------
 BYTE   PATT
  POIN2 Label_01004E48
//  #10 //077   ----------------------------------------
 BYTE   EOT
 BYTE   Bn3  v076
 BYTE   Gn4
//  #10 //078   ----------------------------------------
 BYTE   PATT
  POIN2 Label_01004E53
//  #10 //079   ----------------------------------------
 BYTE   W54
 BYTE   VOL   24*BattleA3_mvl/mxv
 BYTE   W40
 BYTE   EOT
 BYTE   Fs4
 BYTE   TIE  Fs4  v096
 BYTE   W02
//  #10 //080   ----------------------------------------
 BYTE   EOT
 BYTE   Bn3
//  #10 //081   ----------------------------------------
 BYTE   PATT
  POIN2 Label_01004E99
//  #10 //082   ----------------------------------------
 BYTE   EOT
 BYTE   En4
 BYTE   VOL   5*BattleA3_mvl/mxv
 BYTE   W01
 BYTE   VOL   6*BattleA3_mvl/mxv
 BYTE   W01
 BYTE   VOL   7*BattleA3_mvl/mxv
 BYTE   W01
 BYTE   VOL   8*BattleA3_mvl/mxv
 BYTE   W01
 BYTE   VOL   9*BattleA3_mvl/mxv
 BYTE   W01
 BYTE   VOL   9*BattleA3_mvl/mxv
 BYTE   W01
 BYTE   VOL   11*BattleA3_mvl/mxv
 BYTE   W01
 BYTE   VOL   11*BattleA3_mvl/mxv
 BYTE   W01
 BYTE   VOL   12*BattleA3_mvl/mxv
 BYTE   W01
 BYTE   VOL   13*BattleA3_mvl/mxv
 BYTE   W01
 BYTE   VOL   13*BattleA3_mvl/mxv
 BYTE   W01
 BYTE   VOL   14*BattleA3_mvl/mxv
 BYTE   W01
 BYTE   VOL   15*BattleA3_mvl/mxv
 BYTE   W01
 BYTE   VOL   16*BattleA3_mvl/mxv
 BYTE   W01
 BYTE   VOL   16*BattleA3_mvl/mxv
 BYTE   W01
 BYTE   VOL   18*BattleA3_mvl/mxv
 BYTE   W01
 BYTE   VOL   18*BattleA3_mvl/mxv
 BYTE   W01
 BYTE   VOL   19*BattleA3_mvl/mxv
 BYTE   W01
 BYTE   VOL   20*BattleA3_mvl/mxv
 BYTE   W01
 BYTE   VOL   21*BattleA3_mvl/mxv
 BYTE   W01
 BYTE   VOL   21*BattleA3_mvl/mxv
 BYTE   W01
 BYTE   VOL   23*BattleA3_mvl/mxv
 BYTE   W01
 BYTE   VOL   23*BattleA3_mvl/mxv
 BYTE   W01
 BYTE   VOL   24*BattleA3_mvl/mxv
 BYTE   W72
 BYTE   W92
//  #10 //083   ----------------------------------------
 BYTE   W03
 BYTE   EOT
 BYTE   Fs4
 BYTE   W01
 BYTE   Dn4  v081
//  #10 //084   ----------------------------------------
 BYTE   PATT
  POIN2 Label_01004EDC
//  #10 //085   ----------------------------------------
 BYTE   W92
 BYTE   W02
 BYTE   TIE  An4  v096
 BYTE   W02
//  #10 //086   ----------------------------------------
 BYTE   EOT
 BYTE   Cs4  v078
 BYTE   TIE
 BYTE   W96
//  #10 //087   ----------------------------------------
 BYTE   W92
 BYTE   EOT
 BYTE   An4
 BYTE   W02
 BYTE   Fs4
 BYTE   W02
//  #10 //088   ----------------------------------------
 BYTE   TIE
 BYTE   TIE  Gs4
 BYTE   W96
//  #10 //089   ----------------------------------------
 BYTE   W96
//  #10 //090   ----------------------------------------
 BYTE   W48
 BYTE   EOT
 BYTE   Fs4  v080
 BYTE   TIE  Fs4
 BYTE   TIE  Bn4
 BYTE   W48
//  #10 //091   ----------------------------------------
 BYTE   W96
//  #10 //092   ----------------------------------------
 BYTE   EOT
 BYTE   Fs4  v083
 BYTE   W96
//  #10 //093   ----------------------------------------
 BYTE   W96
//  #10 //094   ----------------------------------------
 BYTE   W96
//  #10 //095   ----------------------------------------
 BYTE   W96
//  #10 //096   ----------------------------------------
 BYTE   W96
//  #10 //097   ----------------------------------------
 BYTE   W96
//  #10 //098   ----------------------------------------
 BYTE   W96
//  #10 //099   ----------------------------------------
 BYTE   W96
//  #10 //100   ----------------------------------------
 BYTE   W96
//  #10 //101   ----------------------------------------
 BYTE   W96
//  #10 //102   ----------------------------------------
 BYTE   W96
//  #10 //103   ----------------------------------------
 BYTE   W96
//  #10 //104   ----------------------------------------
 BYTE   W96
//  #10 //105   ----------------------------------------
 BYTE   W96
//  #10 //106   ----------------------------------------
 BYTE   W96
//  #10 //107   ----------------------------------------
 BYTE   W96
//  #10 //108   ----------------------------------------
 BYTE   GoTo
  POIN2 Label_01004DC2
 BYTE   FINE

//**************** Track 11 (Midi-Chn.10) ****************//

BattleA3_011:
//  #11 //000   ----------------------------------------
 BYTE   KEYSH   BattleA3_key+0
Label_0100B6BA:
 BYTE   VOICE   124
 BYTE   VOL   39*BattleA3_mvl/mxv
 BYTE   N12  Cn1  v104
 BYTE   N10  Cs2  v080
 BYTE   W24
 BYTE   N12  En1  v104
 BYTE   N12  Fs1  v068
 BYTE   W24
 BYTE   Cn1  v104
 BYTE   N12  Fs1  v068
 BYTE   W12
 BYTE   Cn1  v104
 BYTE   W12
 BYTE   En1
 BYTE   N12  Fs1  v068
 BYTE   W24
//  #11 //001   ----------------------------------------
Label_0100B6DA:
 BYTE   N12  Cn1  v104
 BYTE   N12  Fs1  v068
 BYTE   W24
 BYTE   En1  v104
 BYTE   N12  Fs1  v068
 BYTE   W12
 BYTE   Cn1  v104
 BYTE   W12
 BYTE   Fs1  v068
 BYTE   W12
 BYTE   Cn1  v104
 BYTE   W12
 BYTE   En1
 BYTE   N12  As1  v076
 BYTE   W24
 BYTE   PEND 
//  #11 //002   ----------------------------------------
Label_0100B6F6:
 BYTE   N12  Cn1  v104
 BYTE   N10  Fs1  v068
 BYTE   W24
 BYTE   N12  En1  v104
 BYTE   N12  Fs1  v068
 BYTE   W24
 BYTE   Cn1  v104
 BYTE   N12  Fs1  v068
 BYTE   W12
 BYTE   Cn1  v104
 BYTE   W12
 BYTE   En1
 BYTE   N12  Fs1  v068
 BYTE   W24
 BYTE   PEND 
//  #11 //003   ----------------------------------------
Label_0100B713:
 BYTE   N12  Cn1  v104
 BYTE   N12  Fs1  v068
 BYTE   W12
 BYTE   Cn1  v104
 BYTE   W12
 BYTE   En1
 BYTE   N12  Fs1  v068
 BYTE   W12
 BYTE   Cn1  v104
 BYTE   W12
 BYTE   Fs1  v068
 BYTE   W12
 BYTE   Cn1  v104
 BYTE   W12
 BYTE   En1
 BYTE   N12  As1  v076
 BYTE   W24
 BYTE   PEND 
//  #11 //004   ----------------------------------------
 BYTE   PATT
  POIN2 Label_0100B6F6
//  #11 //005   ----------------------------------------
 BYTE   PATT
  POIN2 Label_0100B6DA
//  #11 //006   ----------------------------------------
 BYTE   PATT
  POIN2 Label_0100B6F6
//  #11 //007   ----------------------------------------
Label_0100B740:
 BYTE   N12  Cn1  v104
 BYTE   N12  Fs1  v068
 BYTE   W12
 BYTE   En1  v104
 BYTE   W12
 BYTE   As1  v076
 BYTE   W12
 BYTE   Cn1  v104
 BYTE   W12
 BYTE   En1
 BYTE   N12  Fs1  v068
 BYTE   W24
 BYTE   Cn1  v104
 BYTE   N12  En2  v064
 BYTE   W12
 BYTE   En1  v104
 BYTE   W12
 BYTE   PEND 
//  #11 //008   ----------------------------------------
Label_0100B75F:
 BYTE   N12  Cn1  v104
 BYTE   N12  En2  v064
 BYTE   W24
 BYTE   En1  v104
 BYTE   N12  Fs1  v068
 BYTE   W24
 BYTE   Cn1  v104
 BYTE   N12  Fs1  v068
 BYTE   W12
 BYTE   Cn1  v104
 BYTE   W12
 BYTE   En1
 BYTE   N12  Fs1  v068
 BYTE   W24
 BYTE   PEND 
//  #11 //009   ----------------------------------------
 BYTE   PATT
  POIN2 Label_0100B6DA
//  #11 //010   ----------------------------------------
 BYTE   PATT
  POIN2 Label_0100B6F6
//  #11 //011   ----------------------------------------
 BYTE   PATT
  POIN2 Label_0100B713
//  #11 //012   ----------------------------------------
 BYTE   PATT
  POIN2 Label_0100B6F6
//  #11 //013   ----------------------------------------
 BYTE   PATT
  POIN2 Label_0100B6DA
//  #11 //014   ----------------------------------------
 BYTE   PATT
  POIN2 Label_0100B6F6
//  #11 //015   ----------------------------------------
Label_0100B799:
 BYTE   N12  Cn1  v104
 BYTE   N12  Fs1  v068
 BYTE   W12
 BYTE   En1  v104
 BYTE   W24
 BYTE   Cn1
 BYTE   W12
 BYTE   An1  v096
 BYTE   W12
 BYTE   Gn1
 BYTE   W12
 BYTE   Fn1
 BYTE   W12
 BYTE   N12
 BYTE   W12
 BYTE   PEND 
//  #11 //016   ----------------------------------------
Label_0100B7AF:
 BYTE   N12  Cn1  v104
 BYTE   N24  Cs2  v080
 BYTE   W36
 BYTE   N12  En1  v104
 BYTE   W12
 BYTE   N12
 BYTE   N22  As1  v084
 BYTE   W12
 BYTE   N12  Gn1  v096
 BYTE   W12
 BYTE   Fn1
 BYTE   W12
 BYTE   En1  v104
 BYTE   W12
 BYTE   PEND 
//  #11 //017   ----------------------------------------
Label_0100B7C9:
 BYTE   N12  Cn1  v104
 BYTE   N22  As1  v084
 BYTE   N72  Cn4  v076
 BYTE   W12
 BYTE   N12  En1  v104
 BYTE   N12  Fn1  v096
 BYTE   W12
 BYTE   Cn1  v104
 BYTE   W24
 BYTE   N12
 BYTE   N24  As1  v084
 BYTE   W24
 BYTE   N12  En1  v104
 BYTE   N24  Cn4  v084
 BYTE   W12
 BYTE   N12  Fn1  v096
 BYTE   W12
 BYTE   PEND 
//  #11 //018   ----------------------------------------
Label_0100B7EE:
 BYTE   N12  Cn1  v104
 BYTE   N12  Fn1  v096
 BYTE   N24  Cs2  v080
 BYTE   W36
 BYTE   N12  Cn1  v104
 BYTE   W12
 BYTE   En1
 BYTE   N22  As1  v084
 BYTE   W12
 BYTE   N09  Gn1  v088
 BYTE   W12
 BYTE   N12  Cn1  v104
 BYTE   N10  Fn1  v088
 BYTE   W12
 BYTE   N12  En1  v104
 BYTE   W12
 BYTE   PEND 
//  #11 //019   ----------------------------------------
Label_0100B811:
 BYTE   N12  Gn1  v096
 BYTE   N22  As1  v084
 BYTE   W12
 BYTE   N12  Fn1  v096
 BYTE   W12
 BYTE   Fn1  v088
 BYTE   W12
 BYTE   N12
 BYTE   W12
 BYTE   En1  v104
 BYTE   N24  As1  v084
 BYTE   W12
 BYTE   N12  En1  v104
 BYTE   W12
 BYTE   N12
 BYTE   W12
 BYTE   N12
 BYTE   W12
 BYTE   PEND 
//  #11 //020   ----------------------------------------
Label_0100B830:
 BYTE   N13  Cn1  v104
 BYTE   N10  Fn1  v088
 BYTE   N24  Cs2  v080
 BYTE   W36
 BYTE   N12  En1  v104
 BYTE   W12
 BYTE   En1  v096
 BYTE   N22  As1  v084
 BYTE   W12
 BYTE   N10  Cn1  v104
 BYTE   N13  Gn1  v088
 BYTE   W12
 BYTE   N12  En1  v104
 BYTE   N12  Fn1  v088
 BYTE   W12
 BYTE   En1  v104
 BYTE   W12
 BYTE   PEND 
//  #11 //021   ----------------------------------------
Label_0100B856:
 BYTE   N12  Cn1  v104
 BYTE   N22  As1  v084
 BYTE   N72  Cn4  v076
 BYTE   W12
 BYTE   N12  En1  v104
 BYTE   N12  Fn1  v096
 BYTE   W36
 BYTE   Cn1  v104
 BYTE   N12  Fn1  v088
 BYTE   N24  As1  v084
 BYTE   W24
 BYTE   N10  En1  v104
 BYTE   N24  Cn4  v084
 BYTE   W24
 BYTE   PEND 
//  #11 //022   ----------------------------------------
Label_0100B878:
 BYTE   N12  Cn1  v104
 BYTE   N12  Fn1  v096
 BYTE   N24  Cs2  v080
 BYTE   W24
 BYTE   N12  Cn1  v104
 BYTE   N22  As1  v084
 BYTE   W12
 BYTE   N12  Fn1  v088
 BYTE   W12
 BYTE   En1  v104
 BYTE   W12
 BYTE   An1  v096
 BYTE   N12  As1  v084
 BYTE   W12
 BYTE   N13  Cn1  v104
 BYTE   N10  Gn1  v096
 BYTE   W12
 BYTE   N09  En1  v104
 BYTE   N12  Fn1  v096
 BYTE   N12  As1  v084
 BYTE   W12
 BYTE   PEND 
//  #11 //023   ----------------------------------------
Label_0100B8A8:
 BYTE   N18  Cn1  v104
 BYTE   W12
 BYTE   N12  En1
 BYTE   W12
 BYTE   N12
 BYTE   W12
 BYTE   N10
 BYTE   W12
 BYTE   N12
 BYTE   W12
 BYTE   N12
 BYTE   W12
 BYTE   N12
 BYTE   W12
 BYTE   N12
 BYTE   W12
 BYTE   PEND 
//  #11 //024   ----------------------------------------
Label_0100B8BC:
 BYTE   N12  Cn1  v104
 BYTE   N10  Cs2  v080
 BYTE   W24
 BYTE   N12  En1  v104
 BYTE   N12  Fs1  v068
 BYTE   W24
 BYTE   Cn1  v104
 BYTE   N12  Fs1  v068
 BYTE   W12
 BYTE   Cn1  v104
 BYTE   W12
 BYTE   En1
 BYTE   N12  Fs1  v068
 BYTE   W24
 BYTE   PEND 
//  #11 //025   ----------------------------------------
 BYTE   PATT
  POIN2 Label_0100B6DA
//  #11 //026   ----------------------------------------
 BYTE   PATT
  POIN2 Label_0100B6F6
//  #11 //027   ----------------------------------------
 BYTE   PATT
  POIN2 Label_0100B713
//  #11 //028   ----------------------------------------
 BYTE   PATT
  POIN2 Label_0100B6F6
//  #11 //029   ----------------------------------------
 BYTE   PATT
  POIN2 Label_0100B6DA
//  #11 //030   ----------------------------------------
 BYTE   PATT
  POIN2 Label_0100B6F6
//  #11 //031   ----------------------------------------
 BYTE   PATT
  POIN2 Label_0100B740
//  #11 //032   ----------------------------------------
 BYTE   PATT
  POIN2 Label_0100B75F
//  #11 //033   ----------------------------------------
 BYTE   PATT
  POIN2 Label_0100B6DA
//  #11 //034   ----------------------------------------
 BYTE   PATT
  POIN2 Label_0100B6F6
//  #11 //035   ----------------------------------------
 BYTE   PATT
  POIN2 Label_0100B713
//  #11 //036   ----------------------------------------
 BYTE   PATT
  POIN2 Label_0100B6F6
//  #11 //037   ----------------------------------------
 BYTE   PATT
  POIN2 Label_0100B6DA
//  #11 //038   ----------------------------------------
 BYTE   PATT
  POIN2 Label_0100B6F6
//  #11 //039   ----------------------------------------
 BYTE   PATT
  POIN2 Label_0100B799
//  #11 //040   ----------------------------------------
 BYTE   PATT
  POIN2 Label_0100B7AF
//  #11 //041   ----------------------------------------
 BYTE   PATT
  POIN2 Label_0100B7C9
//  #11 //042   ----------------------------------------
 BYTE   PATT
  POIN2 Label_0100B7EE
//  #11 //043   ----------------------------------------
 BYTE   PATT
  POIN2 Label_0100B811
//  #11 //044   ----------------------------------------
 BYTE   PATT
  POIN2 Label_0100B830
//  #11 //045   ----------------------------------------
 BYTE   PATT
  POIN2 Label_0100B856
//  #11 //046   ----------------------------------------
 BYTE   PATT
  POIN2 Label_0100B878
//  #11 //047   ----------------------------------------
 BYTE   PATT
  POIN2 Label_0100B8A8
//  #11 //048   ----------------------------------------
 BYTE   PATT
  POIN2 Label_0100B7AF
//  #11 //049   ----------------------------------------
 BYTE   PATT
  POIN2 Label_0100B7C9
//  #11 //050   ----------------------------------------
 BYTE   PATT
  POIN2 Label_0100B7EE
//  #11 //051   ----------------------------------------
 BYTE   PATT
  POIN2 Label_0100B811
//  #11 //052   ----------------------------------------
 BYTE   PATT
  POIN2 Label_0100B830
//  #11 //053   ----------------------------------------
 BYTE   PATT
  POIN2 Label_0100B856
//  #11 //054   ----------------------------------------
 BYTE   PATT
  POIN2 Label_0100B878
//  #11 //055   ----------------------------------------
 BYTE   PATT
  POIN2 Label_0100B8A8
//  #11 //056   ----------------------------------------
 BYTE   PATT
  POIN2 Label_0100B8BC
//  #11 //057   ----------------------------------------
 BYTE   PATT
  POIN2 Label_0100B6DA
//  #11 //058   ----------------------------------------
 BYTE   PATT
  POIN2 Label_0100B6F6
//  #11 //059   ----------------------------------------
 BYTE   PATT
  POIN2 Label_0100B713
//  #11 //060   ----------------------------------------
 BYTE   PATT
  POIN2 Label_0100B6F6
//  #11 //061   ----------------------------------------
 BYTE   PATT
  POIN2 Label_0100B6DA
//  #11 //062   ----------------------------------------
Label_0100B992:
 BYTE   N12  Cn1  v104
 BYTE   N10  Fs1  v068
 BYTE   W24
 BYTE   N12  En1  v104
 BYTE   N12  Fs1  v068
 BYTE   W24
 BYTE   Cn1  v104
 BYTE   N12  Fs1  v068
 BYTE   W12
 BYTE   Cn1  v104
 BYTE   W12
 BYTE   En1
 BYTE   N12  As1  v076
 BYTE   W24
 BYTE   PEND 
//  #11 //063   ----------------------------------------
Label_0100B9AF:
 BYTE   N12  Cn1  v104
 BYTE   N12  Fs1  v068
 BYTE   W12
 BYTE   Cn1  v104
 BYTE   W12
 BYTE   En1
 BYTE   N12  As1  v076
 BYTE   W24
 BYTE   Cn1  v104
 BYTE   N12  Fs1  v068
 BYTE   W12
 BYTE   Cn1  v104
 BYTE   W12
 BYTE   En1
 BYTE   N12  As1  v076
 BYTE   W24
 BYTE   PEND 
//  #11 //064   ----------------------------------------
 BYTE   Cn1  v104
 BYTE   N12  Fs1  v052
 BYTE   W24
 BYTE   En1  v104
 BYTE   N12  Fs1  v068
 BYTE   W24
 BYTE   Cn1  v104
 BYTE   N12  Fs1  v068
 BYTE   W12
 BYTE   Cn1  v104
 BYTE   W12
 BYTE   En1
 BYTE   N12  Fs1  v068
 BYTE   W24
//  #11 //065   ----------------------------------------
 BYTE   PATT
  POIN2 Label_0100B6DA
//  #11 //066   ----------------------------------------
 BYTE   PATT
  POIN2 Label_0100B6F6
//  #11 //067   ----------------------------------------
 BYTE   PATT
  POIN2 Label_0100B713
//  #11 //068   ----------------------------------------
 BYTE   PATT
  POIN2 Label_0100B6F6
//  #11 //069   ----------------------------------------
 BYTE   PATT
  POIN2 Label_0100B6DA
//  #11 //070   ----------------------------------------
 BYTE   PATT
  POIN2 Label_0100B992
//  #11 //071   ----------------------------------------
Label_0100BA05:
 BYTE   N12  Cn1  v104
 BYTE   N12  Fs1  v068
 BYTE   W12
 BYTE   En1  v104
 BYTE   W12
 BYTE   N10  As1  v076
 BYTE   W12
 BYTE   N12  Cn1  v104
 BYTE   W12
 BYTE   N13  En1
 BYTE   N13  Fs1  v068
 BYTE   W24
 BYTE   N12  Cn1  v104
 BYTE   N12  As1  v076
 BYTE   W12
 BYTE   En1  v104
 BYTE   W12
 BYTE   PEND 
//  #11 //072   ----------------------------------------
 BYTE   PATT
  POIN2 Label_0100B8BC
//  #11 //073   ----------------------------------------
 BYTE   PATT
  POIN2 Label_0100B6DA
//  #11 //074   ----------------------------------------
 BYTE   PATT
  POIN2 Label_0100B6F6
//  #11 //075   ----------------------------------------
 BYTE   PATT
  POIN2 Label_0100B713
//  #11 //076   ----------------------------------------
 BYTE   PATT
  POIN2 Label_0100B6F6
//  #11 //077   ----------------------------------------
 BYTE   PATT
  POIN2 Label_0100B6DA
//  #11 //078   ----------------------------------------
 BYTE   PATT
  POIN2 Label_0100B992
//  #11 //079   ----------------------------------------
 BYTE   PATT
  POIN2 Label_0100B9AF
//  #11 //080   ----------------------------------------
 BYTE   N12  Cn1  v104
 BYTE   N12  Fs1  v052
 BYTE   W24
 BYTE   En1  v104
 BYTE   N12  Fs1  v068
 BYTE   W24
 BYTE   Cn1  v104
 BYTE   N12  Fs1  v068
 BYTE   W12
 BYTE   Cn1  v104
 BYTE   W12
 BYTE   En1
 BYTE   N12  Fs1  v068
 BYTE   W12
 BYTE   Cn1  v088
 BYTE   W12
//  #11 //081   ----------------------------------------
 BYTE   PATT
  POIN2 Label_0100B6DA
//  #11 //082   ----------------------------------------
 BYTE   N12  Cn1  v104
 BYTE   N10  Fs1  v068
 BYTE   W24
 BYTE   N12  En1  v104
 BYTE   N12  Fs1  v068
 BYTE   W12
 BYTE   N10  Cn1  v088
 BYTE   W12
 BYTE   N12  Cn1  v104
 BYTE   N12  Fs1  v068
 BYTE   W12
 BYTE   Cn1  v104
 BYTE   W12
 BYTE   En1
 BYTE   N12  Fs1  v068
 BYTE   W24
//  #11 //083   ----------------------------------------
 BYTE   PATT
  POIN2 Label_0100B713
//  #11 //084   ----------------------------------------
 BYTE   PATT
  POIN2 Label_0100B6F6
//  #11 //085   ----------------------------------------
 BYTE   PATT
  POIN2 Label_0100B6DA
//  #11 //086   ----------------------------------------
 BYTE   N12  Cn1  v104
 BYTE   N10  Fs1  v068
 BYTE   W24
 BYTE   Cn1  v088
 BYTE   N12  En1  v104
 BYTE   N12  Fs1  v068
 BYTE   W24
 BYTE   Cn1  v104
 BYTE   N12  Fs1  v068
 BYTE   W12
 BYTE   Cn1  v104
 BYTE   W12
 BYTE   En1
 BYTE   N12  As1  v076
 BYTE   W24
//  #11 //087   ----------------------------------------
 BYTE   PATT
  POIN2 Label_0100BA05
//  #11 //088   ----------------------------------------
Label_0100BAC6:
 BYTE   N12  Cn1  v104
 BYTE   N10  As1  v092
 BYTE   W24
 BYTE   N12  En1  v104
 BYTE   N12  Fs1  v068
 BYTE   W24
 BYTE   Cn1  v104
 BYTE   N12  Fs1  v068
 BYTE   W24
 BYTE   En1  v104
 BYTE   N12  Fs1  v068
 BYTE   W12
 BYTE   Cn1  v104
 BYTE   N12  As1  v092
 BYTE   W12
 BYTE   PEND 
//  #11 //089   ----------------------------------------
Label_0100BAE7:
 BYTE   W24
 BYTE   N12  En1  v104
 BYTE   N12  Fs1  v068
 BYTE   W24
 BYTE   Cn1  v104
 BYTE   N12  Fs1  v068
 BYTE   W24
 BYTE   En1  v104
 BYTE   N12  Fs1  v068
 BYTE   W12
 BYTE   Cn1  v104
 BYTE   N12  As1  v076
 BYTE   W12
 BYTE   PEND 
//  #11 //090   ----------------------------------------
Label_0100BB02:
 BYTE   W24
 BYTE   N12  En1  v104
 BYTE   N12  Fs1  v068
 BYTE   W24
 BYTE   Cn1  v104
 BYTE   N12  Fs1  v068
 BYTE   W24
 BYTE   En1  v104
 BYTE   N12  Fs1  v068
 BYTE   W12
 BYTE   Cn1  v104
 BYTE   N10  As1  v076
 BYTE   W12
 BYTE   PEND 
//  #11 //091   ----------------------------------------
 BYTE   W24
 BYTE   N12  En1  v104
 BYTE   N12  Fs1  v068
 BYTE   W24
 BYTE   En1  v104
 BYTE   N12  As1  v076
 BYTE   W12
 BYTE   En1  v104
 BYTE   W12
 BYTE   Fs1  v068
 BYTE   W12
 BYTE   Cn1  v104
 BYTE   W12
//  #11 //092   ----------------------------------------
 BYTE   PATT
  POIN2 Label_0100BAC6
//  #11 //093   ----------------------------------------
 BYTE   PATT
  POIN2 Label_0100BAE7
//  #11 //094   ----------------------------------------
 BYTE   PATT
  POIN2 Label_0100BB02
//  #11 //095   ----------------------------------------
 BYTE   W24
 BYTE   N12  En1  v104
 BYTE   N12  Fs1  v068
 BYTE   W24
 BYTE   Cn1  v104
 BYTE   N12  As1  v076
 BYTE   W12
 BYTE   En1  v104
 BYTE   W12
 BYTE   N10
 BYTE   W12
 BYTE   N12  Cn1
 BYTE   N09  En1
 BYTE   W12
//  #11 //096   ----------------------------------------
Label_0100BB5B:
 BYTE   N12  Cn1  v104
 BYTE   N10  Cs2  v060
 BYTE   W12
 BYTE   N12  Cn1  v104
 BYTE   W12
 BYTE   En1
 BYTE   N12  As1  v076
 BYTE   W24
 BYTE   Cn1  v104
 BYTE   N12  As1  v076
 BYTE   W12
 BYTE   Cn1  v104
 BYTE   W12
 BYTE   En1
 BYTE   N12  As1  v076
 BYTE   W12
 BYTE   Cn1  v104
 BYTE   N12  As1  v092
 BYTE   W12
 BYTE   PEND 
//  #11 //097   ----------------------------------------
Label_0100BB80:
 BYTE   W12
 BYTE   N12  Cn1  v104
 BYTE   W12
 BYTE   En1
 BYTE   N12  As1  v076
 BYTE   W24
 BYTE   Cn1  v104
 BYTE   N12  As1  v076
 BYTE   W12
 BYTE   Cn1  v104
 BYTE   W12
 BYTE   En1
 BYTE   N12  As1  v076
 BYTE   W12
 BYTE   Cn1  v104
 BYTE   N12  As1  v092
 BYTE   W12
 BYTE   PEND 
//  #11 //098   ----------------------------------------
 BYTE   PATT
  POIN2 Label_0100BB80
//  #11 //099   ----------------------------------------
 BYTE   W12
 BYTE   N12  Cn1  v104
 BYTE   W12
 BYTE   En1
 BYTE   N12  As1  v076
 BYTE   W24
 BYTE   En1  v104
 BYTE   N12  As1  v076
 BYTE   W12
 BYTE   En1  v104
 BYTE   N12  As1  v076
 BYTE   W24
 BYTE   Cn1  v104
 BYTE   W12
//  #11 //100   ----------------------------------------
 BYTE   PATT
  POIN2 Label_0100BB5B
//  #11 //101   ----------------------------------------
 BYTE   PATT
  POIN2 Label_0100BB80
//  #11 //102   ----------------------------------------
 BYTE   PATT
  POIN2 Label_0100BB80
//  #11 //103   ----------------------------------------
 BYTE   W12
 BYTE   N12  Cn1  v104
 BYTE   W12
 BYTE   En1
 BYTE   N12  As1  v076
 BYTE   W24
 BYTE   En1  v104
 BYTE   N12  As1  v076
 BYTE   W12
 BYTE   En1  v104
 BYTE   N12  As1  v076
 BYTE   W12
 BYTE   En1  v104
 BYTE   W12
 BYTE   N12
 BYTE   W12
//  #11 //104   ----------------------------------------
 BYTE   GoTo
  POIN2 Label_0100B6BA
 BYTE   FINE

//******************************************************//
	ALIGN 4

BattleA3:
	BYTE	11	// NumTrks
	BYTE	0	// NumBlks
	BYTE	BattleA3_pri	// Priority
	BYTE	BattleA3_rev	// Reverb.
    
	POIN2	BattleA3_grp
    
	POIN2	BattleA3_001
	POIN2	BattleA3_002
	POIN2	BattleA3_003
	POIN2	BattleA3_004
	POIN2	BattleA3_005
	POIN2	BattleA3_006
	POIN2	BattleA3_007
	POIN2	BattleA3_008
	POIN2	BattleA3_009
	POIN2	BattleA3_010
	POIN2	BattleA3_011

	
