//Event file generated from Sappy .s format.
	#include "MPlayDef.event"

	#define	BattleForStormHill_grp  voicegroup000
	#define	BattleForStormHill_pri  0
	#define	BattleForStormHill_rev  0
	#define	BattleForStormHill_mvl  127
	#define	BattleForStormHill_key  0
	#define	BattleForStormHill_tbs  1
	#define	BattleForStormHill_exg  0
	#define	BattleForStormHill_cmp  1

	// .rodata
	//	BattleForStormHill
	ALIGN 4


//**************** Track 1 (Midi-Chn.0) ****************//

BattleForStormHill_001:
//  #01 //000   ----------------------------------------
 BYTE   KEYSH   BattleForStormHill_key+0
 BYTE   TEMPO   180*BattleForStormHill_tbs/2
 BYTE   VOICE   42
 BYTE   VOL   29*BattleForStormHill_mvl/mxv
 BYTE   PAN   c_v-4
 BYTE   N06  An1  v127
 BYTE   W18
 BYTE   N06
 BYTE   W06
 BYTE   N06
 BYTE   W12
 BYTE   N06
 BYTE   W12
 BYTE   N06
 BYTE   W12
 BYTE   N06
 BYTE   W12
 BYTE   N06
 BYTE   W12
 BYTE   N06
 BYTE   W06
 BYTE   N06
 BYTE   W06
//  #01 //001   ----------------------------------------
 BYTE   N06
 BYTE   W12
 BYTE   N06
 BYTE   W12
 BYTE   N06
 BYTE   W12
 BYTE   N06
 BYTE   W12
 BYTE   TEMPO   180*BattleForStormHill_tbs/2
 BYTE   N06
 BYTE   W12
 BYTE   N06
 BYTE   W12
 BYTE   N06
 BYTE   W12
 BYTE   N06
 BYTE   W12
//  #01 //002   ----------------------------------------
 BYTE   N06
 BYTE   W12
 BYTE   N06
 BYTE   W12
 BYTE   N06
 BYTE   W18
 BYTE   N06
 BYTE   W06
 BYTE   N06
 BYTE   W12
 BYTE   N06
 BYTE   W12
 BYTE   N06
 BYTE   W12
 BYTE   N06
 BYTE   W12
//  #01 //003   ----------------------------------------
Label_01005234:
 BYTE   N12  Dn1  v127
 BYTE   W36
 BYTE   N12
 BYTE   W36
 BYTE   N12
 BYTE   W36
//  #01 //004   ----------------------------------------
 BYTE   N12
 BYTE   W36
 BYTE   PEND 
//  #01 //005   ----------------------------------------
 BYTE   PATT
  POIN2 Label_01005234
//  #01 //006   ----------------------------------------
Label_01005244:
 BYTE   N12  Ds1  v127
 BYTE   W36
 BYTE   N12
 BYTE   W36
 BYTE   N12
 BYTE   W36
//  #01 //007   ----------------------------------------
 BYTE   N12
 BYTE   W36
 BYTE   PEND 
Label_0100524F:
 BYTE   N12  Dn1  v127
 BYTE   W36
 BYTE   N12
 BYTE   W36
//  #01 //008   ----------------------------------------
 BYTE   N12
 BYTE   W36
 BYTE   An0
 BYTE   W12
 BYTE   As0
 BYTE   W12
 BYTE   Cn1
 BYTE   W12
 BYTE   PEND 
//  #01 //009   ----------------------------------------
 BYTE   PATT
  POIN2 Label_01005234
//  #01 //010   ----------------------------------------
 BYTE   PATT
  POIN2 Label_01005234
//  #01 //011   ----------------------------------------
Label_01005268:
 BYTE   N12  Ds1  v127
 BYTE   W36
 BYTE   N12
 BYTE   W36
 BYTE   Fn1
 BYTE   W36
//  #01 //012   ----------------------------------------
 BYTE   N12
 BYTE   W36
 BYTE   PEND 
Label_01005273:
 BYTE   N12  Ds1  v127
 BYTE   W36
 BYTE   N12
 BYTE   W36
//  #01 //013   ----------------------------------------
 BYTE   N12
 BYTE   W36
 BYTE   N12
 BYTE   W12
 BYTE   As0
 BYTE   W12
 BYTE   Cn1
 BYTE   W12
 BYTE   PEND 
Label_01005282:
 BYTE   N12  Dn1  v127
 BYTE   W36
//  #01 //014   ----------------------------------------
 BYTE   An0
 BYTE   W36
 BYTE   Dn1
 BYTE   W36
 BYTE   An0
 BYTE   W36
 BYTE   PEND 
//  #01 //015   ----------------------------------------
 BYTE   PATT
  POIN2 Label_01005282
//  #01 //016   ----------------------------------------
Label_01005292:
 BYTE   N12  Ds1  v127
 BYTE   W36
 BYTE   As0
 BYTE   W36
 BYTE   Ds1
 BYTE   W36
//  #01 //017   ----------------------------------------
 BYTE   As0
 BYTE   W36
 BYTE   PEND 
Label_0100529D:
 BYTE   N12  Dn1  v127
 BYTE   W36
 BYTE   An0
 BYTE   W36
//  #01 //018   ----------------------------------------
 BYTE   Dn1
 BYTE   W36
 BYTE   An0
 BYTE   W12
 BYTE   As0
 BYTE   W12
 BYTE   Cn1
 BYTE   W12
 BYTE   PEND 
//  #01 //019   ----------------------------------------
 BYTE   PATT
  POIN2 Label_01005282
//  #01 //020   ----------------------------------------
 BYTE   PATT
  POIN2 Label_01005282
//  #01 //021   ----------------------------------------
Label_010052B6:
 BYTE   N12  Ds1  v127
 BYTE   W36
 BYTE   As0
 BYTE   W36
 BYTE   Fn1
 BYTE   W36
//  #01 //022   ----------------------------------------
 BYTE   Cn1
 BYTE   W36
 BYTE   PEND 
Label_010052C1:
 BYTE   N12  Gn1  v127
 BYTE   W36
 BYTE   Dn1
 BYTE   W36
//  #01 //023   ----------------------------------------
 BYTE   Gn1
 BYTE   W36
 BYTE   N12
 BYTE   W12
 BYTE   Fn1
 BYTE   W12
 BYTE   Dn1
 BYTE   W12
 BYTE   PEND 
Label_010052D0:
 BYTE   TIE  Cn2  v100
 BYTE   W96
//  #01 //024   ----------------------------------------
 BYTE   W12
 BYTE   PEND 
 BYTE   EOT
 BYTE   N36  As1
 BYTE   W36
Label_010052DA:
 BYTE   N72  An1  v100
 BYTE   W72
//  #01 //025   ----------------------------------------
 BYTE   Fn1
 BYTE   W72
 BYTE   PEND 
Label_010052E1:
 BYTE   TIE  As1  v100
 BYTE   W96
//  #01 //026   ----------------------------------------
 BYTE   W12
 BYTE   PEND 
 BYTE   EOT
 BYTE   N36  An1
 BYTE   W36
Label_010052EB:
 BYTE   N72  Gn1  v100
 BYTE   W72
//  #01 //027   ----------------------------------------
 BYTE   N36  Dn1
 BYTE   W36
 BYTE   Gn1
 BYTE   W36
 BYTE   PEND 
Label_010052F5:
 BYTE   TIE  Gs1  v100
 BYTE   W96
//  #01 //028   ----------------------------------------
 BYTE   W48
 BYTE   PEND 
 BYTE   EOT
Label_010052FC:
 BYTE   TIE  An1  v100
 BYTE   W96
//  #01 //029   ----------------------------------------
 BYTE   W48
 BYTE   PEND 
 BYTE   EOT
Label_01005303:
 BYTE   TIE  Dn2  v100
 BYTE   W96
//  #01 //030   ----------------------------------------
 BYTE   W48
 BYTE   PEND 
 BYTE   EOT
Label_0100530A:
 BYTE   TIE  Dn1  v100
 BYTE   W96
//  #01 //031   ----------------------------------------
 BYTE   W48
 BYTE   PEND 
 BYTE   EOT
//  #01 //032   ----------------------------------------
 BYTE   PATT
  POIN2 Label_01005234
//  #01 //033   ----------------------------------------
 BYTE   PATT
  POIN2 Label_01005234
//  #01 //034   ----------------------------------------
Label_0100531B:
 BYTE   N12  Gn1  v127
 BYTE   W36
 BYTE   N12
 BYTE   W36
 BYTE   N12
 BYTE   W36
//  #01 //035   ----------------------------------------
 BYTE   N12
 BYTE   W36
 BYTE   PEND 
//  #01 //036   ----------------------------------------
 BYTE   PATT
  POIN2 Label_0100531B
//  #01 //037   ----------------------------------------
 BYTE   PATT
  POIN2 Label_0100531B
//  #01 //038   ----------------------------------------
Label_01005330:
 BYTE   N12  Gn1  v127
 BYTE   W36
 BYTE   N12
 BYTE   W36
 BYTE   Dn1
 BYTE   W12
 BYTE   Gn1
 BYTE   W12
//  #01 //039   ----------------------------------------
 BYTE   An1
 BYTE   W12
 BYTE   As1
 BYTE   W12
 BYTE   An1
 BYTE   W12
 BYTE   Dn1
 BYTE   W12
 BYTE   PEND 
//  #01 //040   ----------------------------------------
 BYTE   PATT
  POIN2 Label_0100531B
//  #01 //041   ----------------------------------------
 BYTE   PATT
  POIN2 Label_0100531B
//  #01 //042   ----------------------------------------
 BYTE   PATT
  POIN2 Label_0100531B
//  #01 //043   ----------------------------------------
 BYTE   PATT
  POIN2 Label_01005330
//  #01 //044   ----------------------------------------
 BYTE   PATT
  POIN2 Label_0100531B
//  #01 //045   ----------------------------------------
 BYTE   PATT
  POIN2 Label_0100531B
//  #01 //046   ----------------------------------------
 BYTE   PATT
  POIN2 Label_0100531B
//  #01 //047   ----------------------------------------
 BYTE   PATT
  POIN2 Label_01005330
//  #01 //048   ----------------------------------------
 BYTE   PATT
  POIN2 Label_0100531B
//  #01 //049   ----------------------------------------
 BYTE   PATT
  POIN2 Label_0100531B
//  #01 //050   ----------------------------------------
Label_01005375:
 BYTE   N12  Gn1  v127
 BYTE   W36
 BYTE   N12
 BYTE   W36
 BYTE   N12
 BYTE   W36
//  #01 //051   ----------------------------------------
 BYTE   Dn1
 BYTE   W12
 BYTE   N12
 BYTE   W12
 BYTE   N12
 BYTE   W12
 BYTE   PEND 
Label_01005384:
 BYTE   N12  Gn1  v127
 BYTE   W36
 BYTE   Dn1
 BYTE   W36
//  #01 //052   ----------------------------------------
 BYTE   Gn1
 BYTE   W36
 BYTE   Dn1
 BYTE   W36
 BYTE   PEND 
Label_0100538F:
 BYTE   N12  Ds2  v127
 BYTE   W36
//  #01 //053   ----------------------------------------
 BYTE   N12
 BYTE   W36
 BYTE   Dn2
 BYTE   W36
 BYTE   N12
 BYTE   W36
 BYTE   PEND 
//  #01 //054   ----------------------------------------
Label_0100539A:
 BYTE   N06  Gn1  v127
 BYTE   W18
 BYTE   N06
 BYTE   W06
 BYTE   N06
 BYTE   W12
 BYTE   N06
 BYTE   W12
 BYTE   N06
 BYTE   W12
 BYTE   N06
 BYTE   W12
 BYTE   N06
 BYTE   W12
 BYTE   N06
 BYTE   W06
 BYTE   N06
 BYTE   W06
//  #01 //055   ----------------------------------------
 BYTE   N06
 BYTE   W12
 BYTE   N06
 BYTE   W12
 BYTE   N06
 BYTE   W12
 BYTE   N06
 BYTE   W12
 BYTE   PEND 
 BYTE   N06
 BYTE   W12
 BYTE   N06
 BYTE   W12
 BYTE   N06
 BYTE   W12
 BYTE   N06
 BYTE   W12
//  #01 //056   ----------------------------------------
 BYTE   N06
 BYTE   W12
 BYTE   N06
 BYTE   W12
 BYTE   N06
 BYTE   W18
 BYTE   N06
 BYTE   W06
 BYTE   N06
 BYTE   W12
 BYTE   N06
 BYTE   W12
 BYTE   An1
 BYTE   W12
 BYTE   As1
 BYTE   W12
//  #01 //057   ----------------------------------------
 BYTE   An1
 BYTE   W18
 BYTE   N06
 BYTE   W06
 BYTE   N06
 BYTE   W12
 BYTE   N06
 BYTE   W12
 BYTE   N06
 BYTE   W12
 BYTE   N06
 BYTE   W12
 BYTE   N06
 BYTE   W12
 BYTE   N06
 BYTE   W06
 BYTE   N06
 BYTE   W06
//  #01 //058   ----------------------------------------
 BYTE   N06
 BYTE   W12
 BYTE   N06
 BYTE   W12
 BYTE   N06
 BYTE   W12
 BYTE   N06
 BYTE   W12
 BYTE   N06
 BYTE   W12
 BYTE   N06
 BYTE   W12
 BYTE   N06
 BYTE   W12
 BYTE   N06
 BYTE   W12
//  #01 //059   ----------------------------------------
 BYTE   N06
 BYTE   W12
 BYTE   N06
 BYTE   W12
 BYTE   N06
 BYTE   W18
 BYTE   N06
 BYTE   W06
 BYTE   N06
 BYTE   W12
 BYTE   N06
 BYTE   W12
 BYTE   N06
 BYTE   W12
 BYTE   N06
 BYTE   W12
//  #01 //060   ----------------------------------------
 BYTE   GoTo
  POIN2 Label_01005234
//  #01 //061   ----------------------------------------
 BYTE   PATT
  POIN2 Label_01005234
//  #01 //062   ----------------------------------------
 BYTE   PATT
  POIN2 Label_01005234
//  #01 //063   ----------------------------------------
 BYTE   PATT
  POIN2 Label_01005244
//  #01 //064   ----------------------------------------
 BYTE   PATT
  POIN2 Label_0100524F
//  #01 //065   ----------------------------------------
 BYTE   PATT
  POIN2 Label_01005234
//  #01 //066   ----------------------------------------
 BYTE   PATT
  POIN2 Label_01005234
//  #01 //067   ----------------------------------------
 BYTE   PATT
  POIN2 Label_01005268
//  #01 //068   ----------------------------------------
 BYTE   PATT
  POIN2 Label_01005273
//  #01 //069   ----------------------------------------
 BYTE   PATT
  POIN2 Label_01005282
//  #01 //070   ----------------------------------------
 BYTE   PATT
  POIN2 Label_01005282
//  #01 //071   ----------------------------------------
 BYTE   PATT
  POIN2 Label_01005292
//  #01 //072   ----------------------------------------
 BYTE   PATT
  POIN2 Label_0100529D
//  #01 //073   ----------------------------------------
 BYTE   PATT
  POIN2 Label_01005282
//  #01 //074   ----------------------------------------
 BYTE   PATT
  POIN2 Label_01005282
//  #01 //075   ----------------------------------------
 BYTE   PATT
  POIN2 Label_010052B6
//  #01 //076   ----------------------------------------
 BYTE   PATT
  POIN2 Label_010052C1
//  #01 //077   ----------------------------------------
 BYTE   PATT
  POIN2 Label_010052D0
//  #01 //078   ----------------------------------------
 BYTE   EOT
 BYTE   Cn2
 BYTE   N36  As1  v100
 BYTE   W36
//  #01 //079   ----------------------------------------
 BYTE   PATT
  POIN2 Label_010052DA
//  #01 //080   ----------------------------------------
 BYTE   PATT
  POIN2 Label_010052E1
//  #01 //081   ----------------------------------------
 BYTE   EOT
 BYTE   As1
 BYTE   N36  An1  v100
 BYTE   W36
//  #01 //082   ----------------------------------------
 BYTE   PATT
  POIN2 Label_010052EB
//  #01 //083   ----------------------------------------
 BYTE   PATT
  POIN2 Label_010052F5
//  #01 //084   ----------------------------------------
 BYTE   EOT
 BYTE   Gs1
//  #01 //085   ----------------------------------------
 BYTE   PATT
  POIN2 Label_010052FC
//  #01 //086   ----------------------------------------
 BYTE   EOT
 BYTE   An1
//  #01 //087   ----------------------------------------
 BYTE   PATT
  POIN2 Label_01005303
//  #01 //088   ----------------------------------------
 BYTE   EOT
 BYTE   Dn2
//  #01 //089   ----------------------------------------
 BYTE   PATT
  POIN2 Label_0100530A
//  #01 //090   ----------------------------------------
 BYTE   EOT
 BYTE   Dn1
//  #01 //091   ----------------------------------------
 BYTE   PATT
  POIN2 Label_01005234
//  #01 //092   ----------------------------------------
 BYTE   PATT
  POIN2 Label_01005234
//  #01 //093   ----------------------------------------
 BYTE   PATT
  POIN2 Label_0100531B
//  #01 //094   ----------------------------------------
 BYTE   PATT
  POIN2 Label_0100531B
//  #01 //095   ----------------------------------------
 BYTE   PATT
  POIN2 Label_0100531B
//  #01 //096   ----------------------------------------
 BYTE   PATT
  POIN2 Label_01005330
//  #01 //097   ----------------------------------------
 BYTE   PATT
  POIN2 Label_0100531B
//  #01 //098   ----------------------------------------
 BYTE   PATT
  POIN2 Label_0100531B
//  #01 //099   ----------------------------------------
 BYTE   PATT
  POIN2 Label_0100531B
//  #01 //100   ----------------------------------------
 BYTE   PATT
  POIN2 Label_01005330
//  #01 //101   ----------------------------------------
 BYTE   PATT
  POIN2 Label_0100531B
//  #01 //102   ----------------------------------------
 BYTE   PATT
  POIN2 Label_0100531B
//  #01 //103   ----------------------------------------
 BYTE   PATT
  POIN2 Label_0100531B
//  #01 //104   ----------------------------------------
 BYTE   PATT
  POIN2 Label_01005330
//  #01 //105   ----------------------------------------
 BYTE   PATT
  POIN2 Label_0100531B
//  #01 //106   ----------------------------------------
 BYTE   PATT
  POIN2 Label_0100531B
//  #01 //107   ----------------------------------------
 BYTE   PATT
  POIN2 Label_01005375
//  #01 //108   ----------------------------------------
 BYTE   PATT
  POIN2 Label_01005384
//  #01 //109   ----------------------------------------
 BYTE   PATT
  POIN2 Label_0100538F
//  #01 //110   ----------------------------------------
 BYTE   PATT
  POIN2 Label_0100539A
//  #01 //111   ----------------------------------------
 BYTE   N06  Gn1  v127
 BYTE   W12
 BYTE   N06
 BYTE   W12
 BYTE   N06
 BYTE   W12
 BYTE   N06
 BYTE   W12
 BYTE   N06
 BYTE   W12
 BYTE   N06
 BYTE   W12
 BYTE   N06
 BYTE   W18
 BYTE   N06
 BYTE   W06
//  #01 //112   ----------------------------------------
 BYTE   N06
 BYTE   W12
 BYTE   N06
 BYTE   W12
 BYTE   An1
 BYTE   W12
 BYTE   As1
 BYTE   W06
 BYTE   FINE

//**************** Track 2 (Midi-Chn.1) ****************//

BattleForStormHill_002:
//  #02 //000   ----------------------------------------
 BYTE   KEYSH   BattleForStormHill_key+0
 BYTE   VOICE   49
 BYTE   VOL   29*BattleForStormHill_mvl/mxv
 BYTE   PAN   c_v+8
 BYTE   VOL   29*BattleForStormHill_mvl/mxv
 BYTE   N06  An2  v100
 BYTE   N06  Cs3
 BYTE   N06  En3  v127
 BYTE   W18
 BYTE   An2  v100
 BYTE   N06  Cs3
 BYTE   N06  En3  v127
 BYTE   W06
 BYTE   An2  v100
 BYTE   N06  Cs3
 BYTE   N06  En3  v127
 BYTE   W12
 BYTE   An2  v100
 BYTE   N06  Cs3
 BYTE   N06  En3  v127
 BYTE   W12
 BYTE   An2  v100
 BYTE   N06  Cs3
 BYTE   N06  En3  v127
 BYTE   W12
 BYTE   An2  v100
 BYTE   N06  Cs3
 BYTE   N06  En3  v127
 BYTE   W12
 BYTE   As2  v100
 BYTE   N06  Dn3
 BYTE   N06  Fn3  v127
 BYTE   W12
 BYTE   As2  v100
 BYTE   N06  Dn3
 BYTE   N06  Fn3  v127
 BYTE   W06
 BYTE   As2  v100
 BYTE   N06  Dn3
 BYTE   N06  Fn3  v127
 BYTE   W06
//  #02 //001   ----------------------------------------
 BYTE   As2  v100
 BYTE   N06  Dn3
 BYTE   N06  Fn3  v127
 BYTE   W12
 BYTE   As2  v100
 BYTE   N06  Dn3
 BYTE   N06  Fn3  v127
 BYTE   W12
 BYTE   As2  v100
 BYTE   N06  Dn3
 BYTE   N06  Fn3  v127
 BYTE   W12
 BYTE   As2  v100
 BYTE   N06  Dn3
 BYTE   N06  Fn3  v127
 BYTE   W12
Label_01005597:
 BYTE   N06  Cn3  v100
 BYTE   N06  En3
 BYTE   N06  Gn3  v127
 BYTE   W12
 BYTE   Cn3  v100
 BYTE   N06  En3
 BYTE   N06  Gn3  v127
 BYTE   W12
 BYTE   Cn3  v100
 BYTE   N06  En3
 BYTE   N06  Gn3  v127
 BYTE   W12
 BYTE   Cn3  v100
 BYTE   N06  En3
 BYTE   N06  Gn3  v127
 BYTE   W12
//  #02 //002   ----------------------------------------
 BYTE   Cn3  v100
 BYTE   N06  En3
 BYTE   N06  Gn3  v127
 BYTE   W12
 BYTE   Cn3  v100
 BYTE   N06  En3
 BYTE   N06  Gn3  v127
 BYTE   W12
 BYTE   Cs3  v100
 BYTE   N06  En3
 BYTE   N06  An3  v127
 BYTE   W18
 BYTE   Cs3  v100
 BYTE   N06  En3
 BYTE   N06  An3  v127
 BYTE   W06
 BYTE   Cs3  v100
 BYTE   N06  En3
 BYTE   N06  An3  v127
 BYTE   W12
 BYTE   Cs3  v100
 BYTE   N06  En3
 BYTE   N06  An3  v127
 BYTE   W12
 BYTE   Cs3  v100
 BYTE   N06  En3
 BYTE   N06  An3  v127
 BYTE   W12
 BYTE   Cs3  v100
 BYTE   N06  En3
 BYTE   N06  An3  v127
 BYTE   W12
 BYTE   PEND 
//  #02 //003   ----------------------------------------
Label_010055F9:
 BYTE   W96
//  #02 //004   ----------------------------------------
 BYTE   W48
 BYTE   W96
//  #02 //005   ----------------------------------------
 BYTE   W48
 BYTE   W96
//  #02 //006   ----------------------------------------
 BYTE   W48
 BYTE   W96
//  #02 //007   ----------------------------------------
 BYTE   W48
 BYTE   W96
//  #02 //008   ----------------------------------------
 BYTE   W48
 BYTE   W96
//  #02 //009   ----------------------------------------
 BYTE   W48
 BYTE   W96
//  #02 //010   ----------------------------------------
 BYTE   W48
 BYTE   W96
//  #02 //011   ----------------------------------------
 BYTE   W48
Label_01005609:
 BYTE   N36  An2  v127
 BYTE   N36  Dn3
 BYTE   W36
 BYTE   As2
 BYTE   N36  Ds3
 BYTE   W36
//  #02 //012   ----------------------------------------
 BYTE   N60  Cn3
 BYTE   N60  Fn3
 BYTE   W60
 BYTE   N12  As2
 BYTE   N12  Ds3
 BYTE   W12
 BYTE   PEND 
Label_0100561E:
 BYTE   N24  An2  v127
 BYTE   N24  Dn3
 BYTE   W24
//  #02 //013   ----------------------------------------
 BYTE   N12
 BYTE   N12  An3
 BYTE   W12
 BYTE   N96
 BYTE   N96  Dn4
 BYTE   W96
//  #02 //014   ----------------------------------------
 BYTE   W12
 BYTE   PEND 
Label_0100562E:
 BYTE   N36  Gn2  v127
 BYTE   N36  Dn3
 BYTE   W36
 BYTE   As2
 BYTE   N36  Ds3
 BYTE   W36
 BYTE   N60  Cn3
 BYTE   N60  Fn3
 BYTE   W60
//  #02 //015   ----------------------------------------
 BYTE   N12  Dn3
 BYTE   N12  Gn3
 BYTE   W12
 BYTE   PEND 
Label_01005643:
 BYTE   N24  Dn3  v127
 BYTE   N24  An3
 BYTE   W24
 BYTE   N12  An2
 BYTE   N12  Dn3
 BYTE   W12
 BYTE   N96
 BYTE   N96  An3
 BYTE   W96
//  #02 //016   ----------------------------------------
 BYTE   W12
 BYTE   PEND 
//  #02 //017   ----------------------------------------
 BYTE   PATT
  POIN2 Label_01005609
//  #02 //018   ----------------------------------------
 BYTE   PATT
  POIN2 Label_0100561E
//  #02 //019   ----------------------------------------
Label_0100565E:
 BYTE   N36  Gn2  v127
 BYTE   N36  Dn3
 BYTE   W36
 BYTE   N36
 BYTE   N36  Gn3
 BYTE   W36
 BYTE   N60  Cn3
 BYTE   N60  Fn3
 BYTE   W60
//  #02 //020   ----------------------------------------
 BYTE   N12
 BYTE   N12  An3
 BYTE   W12
 BYTE   PEND 
Label_01005672:
 BYTE   N24  Dn3  v127
 BYTE   N24  Gn3
 BYTE   W24
 BYTE   N12
 BYTE   N12  As3
 BYTE   W12
 BYTE   N96  Dn3
 BYTE   N96  Gn3
 BYTE   W96
//  #02 //021   ----------------------------------------
 BYTE   W12
 BYTE   PEND 
 BYTE   W96
//  #02 //022   ----------------------------------------
 BYTE   W48
 BYTE   W96
//  #02 //023   ----------------------------------------
 BYTE   W48
 BYTE   W96
//  #02 //024   ----------------------------------------
 BYTE   W48
 BYTE   W96
//  #02 //025   ----------------------------------------
 BYTE   W48
 BYTE   W96
//  #02 //026   ----------------------------------------
 BYTE   W48
 BYTE   W96
//  #02 //027   ----------------------------------------
 BYTE   W48
 BYTE   W96
//  #02 //028   ----------------------------------------
 BYTE   W48
 BYTE   W96
//  #02 //029   ----------------------------------------
 BYTE   W48
 BYTE   W96
//  #02 //030   ----------------------------------------
 BYTE   W48
Label_01005695:
 BYTE   W36
 BYTE   N06  Dn4  v100
 BYTE   W06
 BYTE   Cn4
 BYTE   W06
//  #02 //031   ----------------------------------------
 BYTE   An3
 BYTE   W06
 BYTE   Cn4
 BYTE   W06
 BYTE   Dn4
 BYTE   W06
 BYTE   Cn4
 BYTE   W06
 BYTE   Fs4
 BYTE   W06
 BYTE   Dn4
 BYTE   W06
 BYTE   Cn4
 BYTE   W06
 BYTE   Dn4
 BYTE   W06
 BYTE   Fs4
 BYTE   W06
 BYTE   Dn4
 BYTE   W06
 BYTE   An4
 BYTE   W06
 BYTE   Dn4
 BYTE   W06
 BYTE   Cn4
 BYTE   W06
 BYTE   Dn4
 BYTE   W06
 BYTE   Fs4
 BYTE   W06
 BYTE   An4
 BYTE   W06
 BYTE   PEND 
//  #02 //032   ----------------------------------------
Label_010056BD:
 BYTE   N36  Gn3  v127
 BYTE   N36  Gn4
 BYTE   W36
 BYTE   An3
 BYTE   N36  An4
 BYTE   W36
 BYTE   N60  As3
 BYTE   N60  As4
 BYTE   W60
//  #02 //033   ----------------------------------------
 BYTE   N12  Dn3
 BYTE   N12  Dn4
 BYTE   W12
 BYTE   PEND 
Label_010056D2:
 BYTE   N36  Ds3  v127
 BYTE   N36  Ds4
 BYTE   W36
 BYTE   N96  Cn4
 BYTE   N96  Cn5
 BYTE   W96
//  #02 //034   ----------------------------------------
 BYTE   W12
 BYTE   PEND 
Label_010056DF:
 BYTE   N36  Fn3  v127
 BYTE   N36  Fn4
 BYTE   W36
 BYTE   Gn3
 BYTE   N36  Gn4
 BYTE   W36
 BYTE   N60  An3
 BYTE   N60  An4
 BYTE   W60
//  #02 //035   ----------------------------------------
 BYTE   N12  Cn3
 BYTE   N12  Cn4
 BYTE   W12
 BYTE   PEND 
Label_010056F4:
 BYTE   N36  Dn3  v127
 BYTE   N36  Dn4
 BYTE   W36
 BYTE   N96  As3
 BYTE   N96  As4
 BYTE   W96
//  #02 //036   ----------------------------------------
 BYTE   W12
 BYTE   PEND 
Label_01005701:
 BYTE   N36  Gn3  v127
 BYTE   N36  Gn4
 BYTE   W36
 BYTE   An3
 BYTE   N36  An4
 BYTE   W36
 BYTE   N60  As3
 BYTE   N60  As4
 BYTE   W60
//  #02 //037   ----------------------------------------
 BYTE   N12  Dn4
 BYTE   N12  Dn5
 BYTE   W12
 BYTE   PEND 
Label_01005716:
 BYTE   N24  Ds4  v127
 BYTE   N24  Ds5
 BYTE   W24
 BYTE   N12  Dn4
 BYTE   N12  Dn5
 BYTE   W12
 BYTE   N96  Cn4
 BYTE   N96  Cn5
 BYTE   W96
//  #02 //038   ----------------------------------------
 BYTE   W12
 BYTE   PEND 
Label_01005728:
 BYTE   N36  An3  v127
 BYTE   N36  An4
 BYTE   W36
 BYTE   As3
 BYTE   N36  As4
 BYTE   W36
 BYTE   N60  Cn4
 BYTE   N60  Cn5
 BYTE   W60
//  #02 //039   ----------------------------------------
 BYTE   N12  Fn3
 BYTE   N12  Fn4
 BYTE   W12
 BYTE   PEND 
Label_0100573D:
 BYTE   TIE  Gn3  v127
 BYTE   TIE  Gn4
 BYTE   W96
//  #02 //040   ----------------------------------------
 BYTE   W12
 BYTE   PEND 
 BYTE   EOT
 BYTE   Gn3  v079
 BYTE   W36
//  #02 //041   ----------------------------------------
 BYTE   PATT
  POIN2 Label_010056BD
//  #02 //042   ----------------------------------------
 BYTE   PATT
  POIN2 Label_010056D2
//  #02 //043   ----------------------------------------
 BYTE   PATT
  POIN2 Label_010056DF
//  #02 //044   ----------------------------------------
 BYTE   PATT
  POIN2 Label_010056F4
//  #02 //045   ----------------------------------------
 BYTE   PATT
  POIN2 Label_01005701
//  #02 //046   ----------------------------------------
 BYTE   PATT
  POIN2 Label_01005716
//  #02 //047   ----------------------------------------
Label_01005767:
 BYTE   N36  An3  v127
 BYTE   N36  An4
 BYTE   W36
 BYTE   As3
 BYTE   N36  As4
 BYTE   W36
 BYTE   N60  Cn4
 BYTE   N60  Cn5
 BYTE   W60
//  #02 //048   ----------------------------------------
 BYTE   N12  Fn4
 BYTE   N12  Fn5
 BYTE   W12
 BYTE   PEND 
Label_0100577C:
 BYTE   TIE  Gn4  v127
 BYTE   TIE  Gn5
 BYTE   W96
//  #02 //049   ----------------------------------------
 BYTE   W12
 BYTE   PEND 
 BYTE   EOT
 BYTE   Gn4  v091
 BYTE   W12
 BYTE   N12  Gn3
 BYTE   N12  Gn4
 BYTE   W12
 BYTE   An3
 BYTE   N12  An4
 BYTE   W12
Label_01005791:
 BYTE   N96  As3  v127
 BYTE   N96  As4
 BYTE   W96
//  #02 //050   ----------------------------------------
 BYTE   W12
 BYTE   N24  An3
 BYTE   N24  An4
 BYTE   W36
 BYTE   PEND 
Label_0100579E:
 BYTE   TIE  Gn3  v127
 BYTE   TIE  Gn4
 BYTE   W72
//  #02 //051   ----------------------------------------
 BYTE   VOL   29*BattleForStormHill_mvl/mxv
 BYTE   W01
 BYTE   VOL   28*BattleForStormHill_mvl/mxv
 BYTE   W01
 BYTE   VOL   28*BattleForStormHill_mvl/mxv
 BYTE   W01
 BYTE   VOL   27*BattleForStormHill_mvl/mxv
 BYTE   W01
 BYTE   VOL   27*BattleForStormHill_mvl/mxv
 BYTE   W01
 BYTE   VOL   26*BattleForStormHill_mvl/mxv
 BYTE   W01
 BYTE   VOL   26*BattleForStormHill_mvl/mxv
 BYTE   W01
 BYTE   VOL   25*BattleForStormHill_mvl/mxv
 BYTE   W02
 BYTE   VOL   25*BattleForStormHill_mvl/mxv
 BYTE   W01
 BYTE   VOL   25*BattleForStormHill_mvl/mxv
 BYTE   W01
 BYTE   VOL   24*BattleForStormHill_mvl/mxv
 BYTE   W01
 BYTE   VOL   24*BattleForStormHill_mvl/mxv
 BYTE   W01
 BYTE   VOL   23*BattleForStormHill_mvl/mxv
 BYTE   W01
 BYTE   VOL   23*BattleForStormHill_mvl/mxv
 BYTE   W01
 BYTE   VOL   22*BattleForStormHill_mvl/mxv
 BYTE   W02
 BYTE   VOL   22*BattleForStormHill_mvl/mxv
 BYTE   W01
 BYTE   VOL   21*BattleForStormHill_mvl/mxv
 BYTE   W01
 BYTE   VOL   21*BattleForStormHill_mvl/mxv
 BYTE   W01
 BYTE   VOL   21*BattleForStormHill_mvl/mxv
 BYTE   W01
 BYTE   VOL   20*BattleForStormHill_mvl/mxv
 BYTE   W01
 BYTE   VOL   20*BattleForStormHill_mvl/mxv
 BYTE   W01
 BYTE   VOL   19*BattleForStormHill_mvl/mxv
 BYTE   W01
 BYTE   VOL   19*BattleForStormHill_mvl/mxv
 BYTE   W02
 BYTE   VOL   18*BattleForStormHill_mvl/mxv
 BYTE   W01
 BYTE   VOL   18*BattleForStormHill_mvl/mxv
 BYTE   W01
 BYTE   VOL   17*BattleForStormHill_mvl/mxv
 BYTE   W01
 BYTE   VOL   17*BattleForStormHill_mvl/mxv
 BYTE   W01
 BYTE   VOL   17*BattleForStormHill_mvl/mxv
 BYTE   W01
 BYTE   VOL   16*BattleForStormHill_mvl/mxv
 BYTE   W01
 BYTE   VOL   16*BattleForStormHill_mvl/mxv
 BYTE   W02
 BYTE   VOL   15*BattleForStormHill_mvl/mxv
 BYTE   W01
 BYTE   VOL   15*BattleForStormHill_mvl/mxv
 BYTE   W01
 BYTE   VOL   14*BattleForStormHill_mvl/mxv
 BYTE   W01
 BYTE   VOL   14*BattleForStormHill_mvl/mxv
 BYTE   W01
 BYTE   VOL   14*BattleForStormHill_mvl/mxv
 BYTE   W01
 BYTE   VOL   13*BattleForStormHill_mvl/mxv
 BYTE   W01
 BYTE   VOL   13*BattleForStormHill_mvl/mxv
 BYTE   W01
 BYTE   VOL   12*BattleForStormHill_mvl/mxv
 BYTE   W02
 BYTE   VOL   12*BattleForStormHill_mvl/mxv
 BYTE   W01
 BYTE   VOL   11*BattleForStormHill_mvl/mxv
 BYTE   W01
 BYTE   VOL   11*BattleForStormHill_mvl/mxv
 BYTE   W01
 BYTE   VOL   10*BattleForStormHill_mvl/mxv
 BYTE   W01
 BYTE   VOL   10*BattleForStormHill_mvl/mxv
 BYTE   W01
 BYTE   VOL   10*BattleForStormHill_mvl/mxv
 BYTE   W01
 BYTE   VOL   9*BattleForStormHill_mvl/mxv
 BYTE   W02
 BYTE   VOL   9*BattleForStormHill_mvl/mxv
 BYTE   W01
 BYTE   VOL   8*BattleForStormHill_mvl/mxv
 BYTE   W01
 BYTE   VOL   8*BattleForStormHill_mvl/mxv
 BYTE   W01
 BYTE   VOL   7*BattleForStormHill_mvl/mxv
 BYTE   W01
 BYTE   VOL   7*BattleForStormHill_mvl/mxv
 BYTE   W01
 BYTE   VOL   6*BattleForStormHill_mvl/mxv
 BYTE   W01
 BYTE   VOL   6*BattleForStormHill_mvl/mxv
 BYTE   W01
 BYTE   VOL   6*BattleForStormHill_mvl/mxv
 BYTE   W02
 BYTE   VOL   5*BattleForStormHill_mvl/mxv
 BYTE   W01
 BYTE   VOL   5*BattleForStormHill_mvl/mxv
 BYTE   W01
 BYTE   VOL   4*BattleForStormHill_mvl/mxv
 BYTE   W01
 BYTE   VOL   4*BattleForStormHill_mvl/mxv
 BYTE   W01
 BYTE   VOL   4*BattleForStormHill_mvl/mxv
 BYTE   W01
 BYTE   VOL   4*BattleForStormHill_mvl/mxv
 BYTE   W01
 BYTE   VOL   4*BattleForStormHill_mvl/mxv
 BYTE   W02
 BYTE   VOL   4*BattleForStormHill_mvl/mxv
 BYTE   W01
 BYTE   VOL   4*BattleForStormHill_mvl/mxv
 BYTE   W01
 BYTE   VOL   4*BattleForStormHill_mvl/mxv
 BYTE   W01
 BYTE   VOL   4*BattleForStormHill_mvl/mxv
 BYTE   W01
 BYTE   PEND 
Label_01005826:
 BYTE   VOL   4*BattleForStormHill_mvl/mxv
 BYTE   W01
 BYTE   VOL   4*BattleForStormHill_mvl/mxv
 BYTE   W01
 BYTE   VOL   4*BattleForStormHill_mvl/mxv
 BYTE   W01
 BYTE   VOL   4*BattleForStormHill_mvl/mxv
 BYTE   W02
 BYTE   VOL   4*BattleForStormHill_mvl/mxv
 BYTE   W01
 BYTE   VOL   4*BattleForStormHill_mvl/mxv
 BYTE   W01
 BYTE   VOL   4*BattleForStormHill_mvl/mxv
 BYTE   W01
 BYTE   VOL   4*BattleForStormHill_mvl/mxv
 BYTE   W01
 BYTE   VOL   4*BattleForStormHill_mvl/mxv
 BYTE   W01
 BYTE   VOL   4*BattleForStormHill_mvl/mxv
 BYTE   W01
 BYTE   VOL   4*BattleForStormHill_mvl/mxv
 BYTE   W02
 BYTE   VOL   4*BattleForStormHill_mvl/mxv
 BYTE   W01
 BYTE   VOL   4*BattleForStormHill_mvl/mxv
 BYTE   W01
 BYTE   VOL   4*BattleForStormHill_mvl/mxv
 BYTE   W01
 BYTE   VOL   4*BattleForStormHill_mvl/mxv
 BYTE   W01
 BYTE   VOL   4*BattleForStormHill_mvl/mxv
 BYTE   W01
 BYTE   VOL   4*BattleForStormHill_mvl/mxv
 BYTE   W01
 BYTE   VOL   4*BattleForStormHill_mvl/mxv
 BYTE   W01
 BYTE   VOL   4*BattleForStormHill_mvl/mxv
 BYTE   W02
 BYTE   VOL   4*BattleForStormHill_mvl/mxv
 BYTE   W01
 BYTE   VOL   4*BattleForStormHill_mvl/mxv
 BYTE   W01
//  #02 //052   ----------------------------------------
 BYTE   VOL   4*BattleForStormHill_mvl/mxv
 BYTE   W01
 BYTE   VOL   4*BattleForStormHill_mvl/mxv
 BYTE   W01
 BYTE   VOL   4*BattleForStormHill_mvl/mxv
 BYTE   W01
 BYTE   VOL   4*BattleForStormHill_mvl/mxv
 BYTE   W01
 BYTE   VOL   4*BattleForStormHill_mvl/mxv
 BYTE   W02
 BYTE   VOL   4*BattleForStormHill_mvl/mxv
 BYTE   W01
 BYTE   VOL   4*BattleForStormHill_mvl/mxv
 BYTE   W01
 BYTE   VOL   4*BattleForStormHill_mvl/mxv
 BYTE   W01
 BYTE   VOL   4*BattleForStormHill_mvl/mxv
 BYTE   W01
 BYTE   VOL   4*BattleForStormHill_mvl/mxv
 BYTE   W01
 BYTE   VOL   4*BattleForStormHill_mvl/mxv
 BYTE   W01
 BYTE   VOL   4*BattleForStormHill_mvl/mxv
 BYTE   W01
 BYTE   VOL   4*BattleForStormHill_mvl/mxv
 BYTE   W02
 BYTE   VOL   4*BattleForStormHill_mvl/mxv
 BYTE   W01
 BYTE   VOL   4*BattleForStormHill_mvl/mxv
 BYTE   W01
 BYTE   VOL   4*BattleForStormHill_mvl/mxv
 BYTE   W01
 BYTE   VOL   4*BattleForStormHill_mvl/mxv
 BYTE   W01
 BYTE   VOL   4*BattleForStormHill_mvl/mxv
 BYTE   W01
 BYTE   VOL   4*BattleForStormHill_mvl/mxv
 BYTE   W01
 BYTE   VOL   4*BattleForStormHill_mvl/mxv
 BYTE   W02
 BYTE   VOL   4*BattleForStormHill_mvl/mxv
 BYTE   W01
 BYTE   VOL   4*BattleForStormHill_mvl/mxv
 BYTE   W01
 BYTE   VOL   4*BattleForStormHill_mvl/mxv
 BYTE   W01
 BYTE   VOL   4*BattleForStormHill_mvl/mxv
 BYTE   W01
 BYTE   VOL   4*BattleForStormHill_mvl/mxv
 BYTE   W01
 BYTE   VOL   4*BattleForStormHill_mvl/mxv
 BYTE   W01
 BYTE   VOL   4*BattleForStormHill_mvl/mxv
 BYTE   W01
 BYTE   VOL   4*BattleForStormHill_mvl/mxv
 BYTE   W02
 BYTE   VOL   4*BattleForStormHill_mvl/mxv
 BYTE   W01
 BYTE   VOL   4*BattleForStormHill_mvl/mxv
 BYTE   W01
 BYTE   VOL   4*BattleForStormHill_mvl/mxv
 BYTE   W01
 BYTE   VOL   4*BattleForStormHill_mvl/mxv
 BYTE   W01
 BYTE   VOL   4*BattleForStormHill_mvl/mxv
 BYTE   W01
 BYTE   VOL   4*BattleForStormHill_mvl/mxv
 BYTE   W01
 BYTE   VOL   4*BattleForStormHill_mvl/mxv
 BYTE   W02
 BYTE   VOL   4*BattleForStormHill_mvl/mxv
 BYTE   W01
 BYTE   VOL   4*BattleForStormHill_mvl/mxv
 BYTE   W01
 BYTE   VOL   4*BattleForStormHill_mvl/mxv
 BYTE   W01
 BYTE   VOL   4*BattleForStormHill_mvl/mxv
 BYTE   W01
 BYTE   VOL   4*BattleForStormHill_mvl/mxv
 BYTE   W01
 BYTE   VOL   4*BattleForStormHill_mvl/mxv
 BYTE   W01
 BYTE   VOL   4*BattleForStormHill_mvl/mxv
 BYTE   W02
 BYTE   PEND 
 BYTE   EOT
 BYTE   Gn3  v079
 BYTE   VOL   4*BattleForStormHill_mvl/mxv
 BYTE   W72
//  #02 //053   ----------------------------------------
 BYTE   VOL   29*BattleForStormHill_mvl/mxv
 BYTE   N06  An2  v100
 BYTE   N06  Cs3
 BYTE   N06  En3  v127
 BYTE   W18
 BYTE   An2  v100
 BYTE   N06  Cs3
 BYTE   N06  En3  v127
 BYTE   W06
 BYTE   An2  v100
 BYTE   N06  Cs3
 BYTE   N06  En3  v127
 BYTE   W12
 BYTE   An2  v100
 BYTE   N06  Cs3
 BYTE   N06  En3  v127
 BYTE   W12
 BYTE   An2  v100
 BYTE   N06  Cs3
 BYTE   N06  En3  v127
 BYTE   W12
 BYTE   An2  v100
 BYTE   N06  Cs3
 BYTE   N06  En3  v127
 BYTE   W12
 BYTE   As2  v100
 BYTE   N06  Dn3
 BYTE   N06  Fn3  v127
 BYTE   W12
 BYTE   As2  v100
 BYTE   N06  Dn3
 BYTE   N06  Fn3  v127
 BYTE   W06
 BYTE   As2  v100
 BYTE   N06  Dn3
 BYTE   N06  Fn3  v127
 BYTE   W06
//  #02 //054   ----------------------------------------
 BYTE   As2  v100
 BYTE   N06  Dn3
 BYTE   N06  Fn3  v127
 BYTE   W12
 BYTE   As2  v100
 BYTE   N06  Dn3
 BYTE   N06  Fn3  v127
 BYTE   W12
 BYTE   As2  v100
 BYTE   N06  Dn3
 BYTE   N06  Fn3  v127
 BYTE   W12
 BYTE   As2  v100
 BYTE   N06  Dn3
 BYTE   N06  Fn3  v127
 BYTE   W12
//  #02 //055   ----------------------------------------
 BYTE   PATT
  POIN2 Label_01005597
//  #02 //056   ----------------------------------------
 BYTE   GoTo
  POIN2 Label_010055F9
//  #02 //057   ----------------------------------------
 BYTE   W96
//  #02 //058   ----------------------------------------
 BYTE   W48
 BYTE   W96
//  #02 //059   ----------------------------------------
 BYTE   W48
 BYTE   W96
//  #02 //060   ----------------------------------------
 BYTE   W48
 BYTE   W96
//  #02 //061   ----------------------------------------
 BYTE   W48
 BYTE   W96
//  #02 //062   ----------------------------------------
 BYTE   W48
 BYTE   W96
//  #02 //063   ----------------------------------------
 BYTE   W48
 BYTE   W96
//  #02 //064   ----------------------------------------
 BYTE   W48
 BYTE   W96
//  #02 //065   ----------------------------------------
 BYTE   W48
//  #02 //066   ----------------------------------------
 BYTE   PATT
  POIN2 Label_01005609
//  #02 //067   ----------------------------------------
 BYTE   PATT
  POIN2 Label_0100561E
//  #02 //068   ----------------------------------------
 BYTE   PATT
  POIN2 Label_0100562E
//  #02 //069   ----------------------------------------
 BYTE   PATT
  POIN2 Label_01005643
//  #02 //070   ----------------------------------------
 BYTE   PATT
  POIN2 Label_01005609
//  #02 //071   ----------------------------------------
 BYTE   PATT
  POIN2 Label_0100561E
//  #02 //072   ----------------------------------------
 BYTE   PATT
  POIN2 Label_0100565E
//  #02 //073   ----------------------------------------
 BYTE   PATT
  POIN2 Label_01005672
//  #02 //074   ----------------------------------------
 BYTE   W96
//  #02 //075   ----------------------------------------
 BYTE   W48
 BYTE   W96
//  #02 //076   ----------------------------------------
 BYTE   W48
 BYTE   W96
//  #02 //077   ----------------------------------------
 BYTE   W48
 BYTE   W96
//  #02 //078   ----------------------------------------
 BYTE   W48
 BYTE   W96
//  #02 //079   ----------------------------------------
 BYTE   W48
 BYTE   W96
//  #02 //080   ----------------------------------------
 BYTE   W48
 BYTE   W96
//  #02 //081   ----------------------------------------
 BYTE   W48
 BYTE   W96
//  #02 //082   ----------------------------------------
 BYTE   W48
 BYTE   W96
//  #02 //083   ----------------------------------------
 BYTE   W48
//  #02 //084   ----------------------------------------
 BYTE   PATT
  POIN2 Label_01005695
//  #02 //085   ----------------------------------------
 BYTE   PATT
  POIN2 Label_010056BD
//  #02 //086   ----------------------------------------
 BYTE   PATT
  POIN2 Label_010056D2
//  #02 //087   ----------------------------------------
 BYTE   PATT
  POIN2 Label_010056DF
//  #02 //088   ----------------------------------------
 BYTE   PATT
  POIN2 Label_010056F4
//  #02 //089   ----------------------------------------
 BYTE   PATT
  POIN2 Label_01005701
//  #02 //090   ----------------------------------------
 BYTE   PATT
  POIN2 Label_01005716
//  #02 //091   ----------------------------------------
 BYTE   PATT
  POIN2 Label_01005728
//  #02 //092   ----------------------------------------
 BYTE   PATT
  POIN2 Label_0100573D
//  #02 //093   ----------------------------------------
 BYTE   EOT
 BYTE   Gn3  v079
 BYTE   W36
//  #02 //094   ----------------------------------------
 BYTE   PATT
  POIN2 Label_010056BD
//  #02 //095   ----------------------------------------
 BYTE   PATT
  POIN2 Label_010056D2
//  #02 //096   ----------------------------------------
 BYTE   PATT
  POIN2 Label_010056DF
//  #02 //097   ----------------------------------------
 BYTE   PATT
  POIN2 Label_010056F4
//  #02 //098   ----------------------------------------
 BYTE   PATT
  POIN2 Label_01005701
//  #02 //099   ----------------------------------------
 BYTE   PATT
  POIN2 Label_01005716
//  #02 //100   ----------------------------------------
 BYTE   PATT
  POIN2 Label_01005767
//  #02 //101   ----------------------------------------
 BYTE   PATT
  POIN2 Label_0100577C
//  #02 //102   ----------------------------------------
 BYTE   EOT
 BYTE   Gn4  v091
 BYTE   W12
 BYTE   N12  Gn3  v127
 BYTE   N12  Gn4
 BYTE   W12
 BYTE   An3
 BYTE   N12  An4
 BYTE   W12
//  #02 //103   ----------------------------------------
 BYTE   PATT
  POIN2 Label_01005791
//  #02 //104   ----------------------------------------
 BYTE   PATT
  POIN2 Label_0100579E
//  #02 //105   ----------------------------------------
 BYTE   PATT
  POIN2 Label_01005826
//  #02 //106   ----------------------------------------
 BYTE   EOT
 BYTE   Gn3  v079
 BYTE   VOL   4*BattleForStormHill_mvl/mxv
 BYTE   W66
 BYTE   FINE

//**************** Track 3 (Midi-Chn.2) ****************//

BattleForStormHill_003:
//  #03 //000   ----------------------------------------
 BYTE   KEYSH   BattleForStormHill_key+0
 BYTE   VOICE   47
 BYTE   VOL   23*BattleForStormHill_mvl/mxv
 BYTE   PAN   c_v-24
 BYTE   N60  An1  v127
 BYTE   W72
 BYTE   N60
 BYTE   W72
//  #03 //001   ----------------------------------------
Label_01005A0A:
 BYTE   N60  An1  v127
 BYTE   W72
 BYTE   N24
 BYTE   W24
//  #03 //002   ----------------------------------------
 BYTE   N12
 BYTE   W12
 BYTE   En2
 BYTE   W12
 BYTE   N12
 BYTE   W12
 BYTE   An1
 BYTE   W12
 BYTE   PEND 
Label_01005A19:
 BYTE   W96
//  #03 //003   ----------------------------------------
 BYTE   W48
 BYTE   W96
//  #03 //004   ----------------------------------------
 BYTE   W48
 BYTE   W96
//  #03 //005   ----------------------------------------
 BYTE   W48
 BYTE   W96
//  #03 //006   ----------------------------------------
 BYTE   W48
 BYTE   W96
//  #03 //007   ----------------------------------------
 BYTE   W48
 BYTE   W96
//  #03 //008   ----------------------------------------
 BYTE   W48
 BYTE   W96
//  #03 //009   ----------------------------------------
 BYTE   W48
 BYTE   W96
//  #03 //010   ----------------------------------------
 BYTE   W48
Label_01005A29:
 BYTE   N24  Dn2  v127
 BYTE   W36
 BYTE   An1
 BYTE   W36
//  #03 //011   ----------------------------------------
 BYTE   Dn2
 BYTE   W36
 BYTE   An1
 BYTE   W36
 BYTE   PEND 
//  #03 //012   ----------------------------------------
 BYTE   PATT
  POIN2 Label_01005A29
//  #03 //013   ----------------------------------------
Label_01005A39:
 BYTE   N24  Ds2  v127
 BYTE   W36
 BYTE   As1
 BYTE   W36
 BYTE   Ds2
 BYTE   W36
//  #03 //014   ----------------------------------------
 BYTE   As1
 BYTE   W36
 BYTE   PEND 
//  #03 //015   ----------------------------------------
 BYTE   PATT
  POIN2 Label_01005A29
//  #03 //016   ----------------------------------------
 BYTE   PATT
  POIN2 Label_01005A29
//  #03 //017   ----------------------------------------
 BYTE   PATT
  POIN2 Label_01005A29
//  #03 //018   ----------------------------------------
Label_01005A53:
 BYTE   N24  Ds2  v127
 BYTE   W36
 BYTE   As1
 BYTE   W36
 BYTE   Fn2
 BYTE   W36
//  #03 //019   ----------------------------------------
 BYTE   Cn2
 BYTE   W36
 BYTE   PEND 
Label_01005A5E:
 BYTE   N24  Gn2  v127
 BYTE   W36
 BYTE   Dn2
 BYTE   W36
//  #03 //020   ----------------------------------------
 BYTE   Gn2
 BYTE   W72
 BYTE   PEND 
 BYTE   W96
//  #03 //021   ----------------------------------------
 BYTE   W48
 BYTE   W96
//  #03 //022   ----------------------------------------
 BYTE   W48
 BYTE   W96
//  #03 //023   ----------------------------------------
 BYTE   W48
 BYTE   W96
//  #03 //024   ----------------------------------------
 BYTE   W48
 BYTE   W96
//  #03 //025   ----------------------------------------
 BYTE   W48
 BYTE   W96
//  #03 //026   ----------------------------------------
 BYTE   W48
 BYTE   W96
//  #03 //027   ----------------------------------------
 BYTE   W48
 BYTE   W96
//  #03 //028   ----------------------------------------
 BYTE   W48
 BYTE   W96
//  #03 //029   ----------------------------------------
 BYTE   W48
Label_01005A79:
 BYTE   N04  Dn1  v068
 BYTE   W04
 BYTE   N04
 BYTE   W04
 BYTE   Dn1  v072
 BYTE   W04
 BYTE   N04
 BYTE   W04
 BYTE   N04
 BYTE   W04
 BYTE   Dn1  v076
 BYTE   W04
 BYTE   N04
 BYTE   W04
 BYTE   Dn1  v080
 BYTE   W04
 BYTE   N04
 BYTE   W04
 BYTE   Dn1  v084
 BYTE   W04
 BYTE   N04
 BYTE   W04
 BYTE   N04
 BYTE   W04
//  #03 //030   ----------------------------------------
 BYTE   Dn1  v088
 BYTE   W04
 BYTE   N04
 BYTE   W04
 BYTE   Dn1  v092
 BYTE   W04
 BYTE   N04
 BYTE   W04
 BYTE   Dn1  v096
 BYTE   W04
 BYTE   N04
 BYTE   W04
 BYTE   N04
 BYTE   W04
 BYTE   Dn1  v100
 BYTE   W04
 BYTE   N04
 BYTE   W04
 BYTE   Dn1  v104
 BYTE   W04
 BYTE   N04
 BYTE   W04
 BYTE   N04
 BYTE   W04
 BYTE   Dn1  v108
 BYTE   W04
 BYTE   N04
 BYTE   W04
 BYTE   Dn1  v112
 BYTE   W04
 BYTE   N04
 BYTE   W04
 BYTE   Dn1  v116
 BYTE   W04
 BYTE   N04
 BYTE   W04
 BYTE   N04
 BYTE   W04
 BYTE   Dn1  v120
 BYTE   W04
 BYTE   N04
 BYTE   W04
 BYTE   Dn1  v124
 BYTE   W04
 BYTE   N04
 BYTE   W04
 BYTE   Dn1  v127
 BYTE   W04
 BYTE   PEND 
//  #03 //031   ----------------------------------------
Label_01005AD3:
 BYTE   N72  Gn1  v127
 BYTE   W72
 BYTE   N72
 BYTE   W72
 BYTE   PEND 
//  #03 //032   ----------------------------------------
 BYTE   PATT
  POIN2 Label_01005AD3
//  #03 //033   ----------------------------------------
 BYTE   PATT
  POIN2 Label_01005AD3
//  #03 //034   ----------------------------------------
 BYTE   PATT
  POIN2 Label_01005AD3
//  #03 //035   ----------------------------------------
 BYTE   PATT
  POIN2 Label_01005AD3
//  #03 //036   ----------------------------------------
 BYTE   PATT
  POIN2 Label_01005AD3
//  #03 //037   ----------------------------------------
 BYTE   PATT
  POIN2 Label_01005AD3
//  #03 //038   ----------------------------------------
 BYTE   PATT
  POIN2 Label_01005AD3
//  #03 //039   ----------------------------------------
 BYTE   PATT
  POIN2 Label_01005AD3
//  #03 //040   ----------------------------------------
 BYTE   PATT
  POIN2 Label_01005AD3
//  #03 //041   ----------------------------------------
 BYTE   PATT
  POIN2 Label_01005AD3
//  #03 //042   ----------------------------------------
 BYTE   PATT
  POIN2 Label_01005AD3
//  #03 //043   ----------------------------------------
 BYTE   PATT
  POIN2 Label_01005AD3
//  #03 //044   ----------------------------------------
 BYTE   PATT
  POIN2 Label_01005AD3
//  #03 //045   ----------------------------------------
Label_01005B1B:
 BYTE   N72  Gn1  v127
 BYTE   W72
 BYTE   N36
 BYTE   W36
//  #03 //046   ----------------------------------------
 BYTE   N12  Dn1
 BYTE   W12
 BYTE   N12
 BYTE   W12
 BYTE   N12
 BYTE   W12
 BYTE   PEND 
Label_01005B29:
 BYTE   N36  Gn1  v127
 BYTE   W36
 BYTE   Dn1
 BYTE   W36
//  #03 //047   ----------------------------------------
 BYTE   Gn1
 BYTE   W36
 BYTE   Dn1
 BYTE   W36
 BYTE   PEND 
Label_01005B34:
 BYTE   N72  Ds1  v127
 BYTE   W72
//  #03 //048   ----------------------------------------
 BYTE   Dn1
 BYTE   W72
 BYTE   PEND 
Label_01005B3B:
 BYTE   N72  Gn1  v127
 BYTE   W96
//  #03 //049   ----------------------------------------
 BYTE   W48
 BYTE   PEND 
 BYTE   W96
//  #03 //050   ----------------------------------------
 BYTE   W48
 BYTE   N60  An1
 BYTE   W72
//  #03 //051   ----------------------------------------
 BYTE   N60
 BYTE   W72
//  #03 //052   ----------------------------------------
 BYTE   PATT
  POIN2 Label_01005A0A
//  #03 //053   ----------------------------------------
 BYTE   GoTo
  POIN2 Label_01005A19
//  #03 //054   ----------------------------------------
 BYTE   W96
//  #03 //055   ----------------------------------------
 BYTE   W48
 BYTE   W96
//  #03 //056   ----------------------------------------
 BYTE   W48
 BYTE   W96
//  #03 //057   ----------------------------------------
 BYTE   W48
 BYTE   W96
//  #03 //058   ----------------------------------------
 BYTE   W48
 BYTE   W96
//  #03 //059   ----------------------------------------
 BYTE   W48
 BYTE   W96
//  #03 //060   ----------------------------------------
 BYTE   W48
 BYTE   W96
//  #03 //061   ----------------------------------------
 BYTE   W48
 BYTE   W96
//  #03 //062   ----------------------------------------
 BYTE   W48
//  #03 //063   ----------------------------------------
 BYTE   PATT
  POIN2 Label_01005A29
//  #03 //064   ----------------------------------------
 BYTE   PATT
  POIN2 Label_01005A29
//  #03 //065   ----------------------------------------
 BYTE   PATT
  POIN2 Label_01005A39
//  #03 //066   ----------------------------------------
 BYTE   PATT
  POIN2 Label_01005A29
//  #03 //067   ----------------------------------------
 BYTE   PATT
  POIN2 Label_01005A29
//  #03 //068   ----------------------------------------
 BYTE   PATT
  POIN2 Label_01005A29
//  #03 //069   ----------------------------------------
 BYTE   PATT
  POIN2 Label_01005A53
//  #03 //070   ----------------------------------------
 BYTE   PATT
  POIN2 Label_01005A5E
//  #03 //071   ----------------------------------------
 BYTE   W96
//  #03 //072   ----------------------------------------
 BYTE   W48
 BYTE   W96
//  #03 //073   ----------------------------------------
 BYTE   W48
 BYTE   W96
//  #03 //074   ----------------------------------------
 BYTE   W48
 BYTE   W96
//  #03 //075   ----------------------------------------
 BYTE   W48
 BYTE   W96
//  #03 //076   ----------------------------------------
 BYTE   W48
 BYTE   W96
//  #03 //077   ----------------------------------------
 BYTE   W48
 BYTE   W96
//  #03 //078   ----------------------------------------
 BYTE   W48
 BYTE   W96
//  #03 //079   ----------------------------------------
 BYTE   W48
 BYTE   W96
//  #03 //080   ----------------------------------------
 BYTE   W48
//  #03 //081   ----------------------------------------
 BYTE   PATT
  POIN2 Label_01005A79
//  #03 //082   ----------------------------------------
 BYTE   PATT
  POIN2 Label_01005AD3
//  #03 //083   ----------------------------------------
 BYTE   PATT
  POIN2 Label_01005AD3
//  #03 //084   ----------------------------------------
 BYTE   PATT
  POIN2 Label_01005AD3
//  #03 //085   ----------------------------------------
 BYTE   PATT
  POIN2 Label_01005AD3
//  #03 //086   ----------------------------------------
 BYTE   PATT
  POIN2 Label_01005AD3
//  #03 //087   ----------------------------------------
 BYTE   PATT
  POIN2 Label_01005AD3
//  #03 //088   ----------------------------------------
 BYTE   PATT
  POIN2 Label_01005AD3
//  #03 //089   ----------------------------------------
 BYTE   PATT
  POIN2 Label_01005AD3
//  #03 //090   ----------------------------------------
 BYTE   PATT
  POIN2 Label_01005AD3
//  #03 //091   ----------------------------------------
 BYTE   PATT
  POIN2 Label_01005AD3
//  #03 //092   ----------------------------------------
 BYTE   PATT
  POIN2 Label_01005AD3
//  #03 //093   ----------------------------------------
 BYTE   PATT
  POIN2 Label_01005AD3
//  #03 //094   ----------------------------------------
 BYTE   PATT
  POIN2 Label_01005AD3
//  #03 //095   ----------------------------------------
 BYTE   PATT
  POIN2 Label_01005AD3
//  #03 //096   ----------------------------------------
 BYTE   PATT
  POIN2 Label_01005B1B
//  #03 //097   ----------------------------------------
 BYTE   PATT
  POIN2 Label_01005B29
//  #03 //098   ----------------------------------------
 BYTE   PATT
  POIN2 Label_01005B34
//  #03 //099   ----------------------------------------
 BYTE   PATT
  POIN2 Label_01005B3B
//  #03 //100   ----------------------------------------
 BYTE   W96
//  #03 //101   ----------------------------------------
 BYTE   W42
 BYTE   FINE

//**************** Track 4 (Midi-Chn.3) ****************//

BattleForStormHill_004:
//  #04 //000   ----------------------------------------
 BYTE   KEYSH   BattleForStormHill_key+0
 BYTE   VOICE   46
 BYTE   VOL   23*BattleForStormHill_mvl/mxv
 BYTE   PAN   c_v+24
 BYTE   W96
//  #04 //001   ----------------------------------------
 BYTE   W48
Label_01005C1A:
 BYTE   W96
//  #04 //002   ----------------------------------------
 BYTE   W12
 BYTE   N03  An1  v100
 BYTE   W03
 BYTE   Cs2
 BYTE   W03
 BYTE   Dn2
 BYTE   W03
 BYTE   En2
 BYTE   W03
 BYTE   Gn2
 BYTE   W03
 BYTE   An2
 BYTE   W03
 BYTE   Cs3
 BYTE   W03
 BYTE   Dn3
 BYTE   W03
 BYTE   En3
 BYTE   W03
 BYTE   Gn3
 BYTE   W03
 BYTE   An3
 BYTE   W03
 BYTE   Cs4
 BYTE   W03
 BYTE   PEND 
Label_01005C37:
 BYTE   N03  Dn4  v100
 BYTE   W96
//  #04 //003   ----------------------------------------
 BYTE   W48
 BYTE   PEND 
 BYTE   W96
//  #04 //004   ----------------------------------------
 BYTE   W48
 BYTE   W96
//  #04 //005   ----------------------------------------
 BYTE   W48
 BYTE   W96
//  #04 //006   ----------------------------------------
 BYTE   W48
 BYTE   W96
//  #04 //007   ----------------------------------------
 BYTE   W48
 BYTE   W96
//  #04 //008   ----------------------------------------
 BYTE   W48
 BYTE   W96
//  #04 //009   ----------------------------------------
 BYTE   W48
Label_01005C49:
 BYTE   W48
//  #04 //010   ----------------------------------------
 BYTE   N12  Gn4  v020
 BYTE   W12
 BYTE   An4  v056
 BYTE   W12
 BYTE   Dn5  v100
 BYTE   W12
 BYTE   Gn4
 BYTE   W12
 BYTE   Dn4
 BYTE   W12
 BYTE   Gn4
 BYTE   W12
 BYTE   Dn4
 BYTE   W12
 BYTE   Gn3
 BYTE   W12
 BYTE   PEND 
//  #04 //011   ----------------------------------------
Label_01005C5F:
 BYTE   N12  Dn4  v100
 BYTE   W12
 BYTE   An3
 BYTE   W12
 BYTE   Dn3
 BYTE   W12
 BYTE   Dn4
 BYTE   W12
 BYTE   An3
 BYTE   W12
 BYTE   Dn3
 BYTE   W12
 BYTE   Dn4
 BYTE   W12
 BYTE   An3
 BYTE   W12
//  #04 //012   ----------------------------------------
 BYTE   Dn3
 BYTE   W12
 BYTE   An4
 BYTE   W12
 BYTE   Dn4
 BYTE   W12
 BYTE   An3
 BYTE   W12
 BYTE   PEND 
//  #04 //013   ----------------------------------------
 BYTE   PATT
  POIN2 Label_01005C5F
//  #04 //014   ----------------------------------------
Label_01005C7F:
 BYTE   N12  Dn4  v100
 BYTE   W12
 BYTE   Gn3
 BYTE   W12
 BYTE   Dn3
 BYTE   W12
 BYTE   Dn4
 BYTE   W12
 BYTE   Gn3
 BYTE   W12
 BYTE   Dn3
 BYTE   W12
 BYTE   Dn4
 BYTE   W12
 BYTE   Gn3
 BYTE   W12
//  #04 //015   ----------------------------------------
 BYTE   Dn3
 BYTE   W12
 BYTE   Gn4
 BYTE   W12
 BYTE   Dn4
 BYTE   W12
 BYTE   Gn3
 BYTE   W12
 BYTE   PEND 
Label_01005C9A:
 BYTE   N12  Dn4  v100
 BYTE   W12
 BYTE   An3
 BYTE   W12
 BYTE   Dn3
 BYTE   W12
 BYTE   Dn4
 BYTE   W12
//  #04 //016   ----------------------------------------
 BYTE   Fn4
 BYTE   W12
 BYTE   An4
 BYTE   W12
 BYTE   Dn5
 BYTE   W12
 BYTE   Dn4
 BYTE   W12
 BYTE   Fn4
 BYTE   W12
 BYTE   An4
 BYTE   W12
 BYTE   Dn4
 BYTE   W12
 BYTE   An3
 BYTE   W12
 BYTE   PEND 
//  #04 //017   ----------------------------------------
 BYTE   PATT
  POIN2 Label_01005C5F
//  #04 //018   ----------------------------------------
 BYTE   PATT
  POIN2 Label_01005C5F
//  #04 //019   ----------------------------------------
Label_01005CBF:
 BYTE   N12  Dn4  v100
 BYTE   W12
 BYTE   Gn3
 BYTE   W12
 BYTE   Dn3
 BYTE   W12
 BYTE   Dn4
 BYTE   W12
 BYTE   Gn3
 BYTE   W12
 BYTE   Dn3
 BYTE   W12
 BYTE   Fn4
 BYTE   W12
 BYTE   Cn4
 BYTE   W12
//  #04 //020   ----------------------------------------
 BYTE   An3
 BYTE   W12
 BYTE   An4
 BYTE   W12
 BYTE   Fn4
 BYTE   W12
 BYTE   Cn4
 BYTE   W12
 BYTE   PEND 
Label_01005CDA:
 BYTE   N12  Dn4  v100
 BYTE   W12
 BYTE   Gn3
 BYTE   W12
 BYTE   Dn3
 BYTE   W12
 BYTE   Dn4
 BYTE   W12
//  #04 //021   ----------------------------------------
 BYTE   Gn3
 BYTE   W12
 BYTE   Dn3
 BYTE   W12
 BYTE   Dn4
 BYTE   W12
 BYTE   Gn3
 BYTE   W12
 BYTE   Dn3
 BYTE   W12
 BYTE   Dn4
 BYTE   W12
 BYTE   Gn3
 BYTE   W12
 BYTE   Dn3
 BYTE   W12
 BYTE   PEND 
//  #04 //022   ----------------------------------------
Label_01005CF5:
 BYTE   N12  Ds3  v100
 BYTE   W12
 BYTE   Cn3
 BYTE   W12
 BYTE   Gn3
 BYTE   W12
 BYTE   Cn4
 BYTE   W12
 BYTE   Gn4
 BYTE   W12
 BYTE   Cn5
 BYTE   W12
 BYTE   Ds5
 BYTE   W12
 BYTE   As4
 BYTE   W12
//  #04 //023   ----------------------------------------
 BYTE   Gn4
 BYTE   W12
 BYTE   Dn5
 BYTE   W12
 BYTE   Gn4
 BYTE   W12
 BYTE   Ds4
 BYTE   W12
 BYTE   PEND 
Label_01005D10:
 BYTE   N12  Cn5  v100
 BYTE   W12
 BYTE   An4
 BYTE   W12
 BYTE   Fn4
 BYTE   W12
 BYTE   An4
 BYTE   W12
//  #04 //024   ----------------------------------------
 BYTE   Fn4
 BYTE   W12
 BYTE   Cn4
 BYTE   W12
 BYTE   Fn4
 BYTE   W12
 BYTE   Cn4
 BYTE   W12
 BYTE   An3
 BYTE   W12
 BYTE   Cn4
 BYTE   W12
 BYTE   An3
 BYTE   W12
 BYTE   Fn3
 BYTE   W12
 BYTE   PEND 
//  #04 //025   ----------------------------------------
Label_01005D2B:
 BYTE   N12  Dn3  v100
 BYTE   W12
 BYTE   As2
 BYTE   W12
 BYTE   Fn3
 BYTE   W12
 BYTE   As3
 BYTE   W12
 BYTE   Fn4
 BYTE   W12
 BYTE   As4
 BYTE   W12
 BYTE   Dn5
 BYTE   W12
 BYTE   As4
 BYTE   W12
//  #04 //026   ----------------------------------------
 BYTE   Fn4
 BYTE   W12
 BYTE   Cn5
 BYTE   W12
 BYTE   Fn4
 BYTE   W12
 BYTE   Dn4
 BYTE   W12
 BYTE   PEND 
Label_01005D46:
 BYTE   N12  As4  v100
 BYTE   W12
 BYTE   Gn4
 BYTE   W12
 BYTE   Dn4
 BYTE   W12
 BYTE   Gn4
 BYTE   W12
//  #04 //027   ----------------------------------------
 BYTE   Dn4
 BYTE   W12
 BYTE   As3
 BYTE   W12
 BYTE   Dn4
 BYTE   W12
 BYTE   As3
 BYTE   W12
 BYTE   Gn3
 BYTE   W12
 BYTE   As3
 BYTE   W12
 BYTE   Gn3
 BYTE   W12
 BYTE   Dn3
 BYTE   W12
 BYTE   PEND 
//  #04 //028   ----------------------------------------
Label_01005D61:
 BYTE   N12  Gs3  v100
 BYTE   W12
 BYTE   Ds3
 BYTE   W12
 BYTE   Cn3
 BYTE   W12
 BYTE   Gs3
 BYTE   W12
 BYTE   Ds4
 BYTE   W12
 BYTE   Gs4
 BYTE   W12
 BYTE   Cn5
 BYTE   W12
 BYTE   Gs4
 BYTE   W12
//  #04 //029   ----------------------------------------
 BYTE   Ds4
 BYTE   W12
 BYTE   Gs4
 BYTE   W12
 BYTE   Ds4
 BYTE   W12
 BYTE   Cn4
 BYTE   W12
 BYTE   PEND 
Label_01005D7C:
 BYTE   N12  Cn5  v100
 BYTE   W12
 BYTE   An4
 BYTE   W12
 BYTE   Ds4
 BYTE   W12
 BYTE   An4
 BYTE   W12
//  #04 //030   ----------------------------------------
 BYTE   Ds4
 BYTE   W12
 BYTE   Cn4
 BYTE   W12
 BYTE   Ds4
 BYTE   W12
 BYTE   Cn4
 BYTE   W12
 BYTE   An3
 BYTE   W12
 BYTE   Cn4
 BYTE   W12
 BYTE   An3
 BYTE   W12
 BYTE   Ds3
 BYTE   W12
 BYTE   PEND 
//  #04 //031   ----------------------------------------
Label_01005D97:
 BYTE   N12  Dn3  v100
 BYTE   W12
 BYTE   An2
 BYTE   W12
 BYTE   Dn3
 BYTE   W12
 BYTE   Gn3
 BYTE   W12
 BYTE   Dn3
 BYTE   W12
 BYTE   An3
 BYTE   W12
 BYTE   Dn4
 BYTE   W12
 BYTE   An3
 BYTE   W12
//  #04 //032   ----------------------------------------
 BYTE   Dn4
 BYTE   W12
 BYTE   Gn4
 BYTE   W12
 BYTE   Dn4
 BYTE   W12
 BYTE   An4
 BYTE   W12
 BYTE   PEND 
Label_01005DB2:
 BYTE   N12  Dn5  v100
 BYTE   W12
 BYTE   An4
 BYTE   W12
 BYTE   Dn4
 BYTE   W12
 BYTE   An4
 BYTE   W12
//  #04 //033   ----------------------------------------
 BYTE   Dn4
 BYTE   W12
 BYTE   An3
 BYTE   W12
 BYTE   Gn4
 BYTE   W12
 BYTE   Dn4
 BYTE   W12
 BYTE   Gn3
 BYTE   W12
 BYTE   Dn4
 BYTE   W12
 BYTE   An3
 BYTE   W12
 BYTE   Dn3
 BYTE   W12
 BYTE   PEND 
//  #04 //034   ----------------------------------------
Label_01005DCD:
 BYTE   N12  Ds3  v100
 BYTE   W12
 BYTE   As2
 BYTE   W12
 BYTE   Ds3
 BYTE   W12
 BYTE   Gn3
 BYTE   W12
 BYTE   Ds3
 BYTE   W12
 BYTE   As3
 BYTE   W12
 BYTE   Fn4
 BYTE   W12
 BYTE   Cn4
 BYTE   W12
//  #04 //035   ----------------------------------------
 BYTE   Fn4
 BYTE   W12
 BYTE   An4
 BYTE   W12
 BYTE   Fn4
 BYTE   W12
 BYTE   Cn5
 BYTE   W12
 BYTE   PEND 
Label_01005DE8:
 BYTE   N12  Dn5  v100
 BYTE   W12
 BYTE   An4
 BYTE   W12
 BYTE   Dn4
 BYTE   W12
 BYTE   An4
 BYTE   W12
//  #04 //036   ----------------------------------------
 BYTE   Dn4
 BYTE   W12
 BYTE   An3
 BYTE   W12
 BYTE   Dn4
 BYTE   W12
 BYTE   An3
 BYTE   W12
 BYTE   Dn3
 BYTE   W12
 BYTE   An3
 BYTE   W12
 BYTE   Dn3
 BYTE   W12
 BYTE   An2
 BYTE   W12
 BYTE   PEND 
//  #04 //037   ----------------------------------------
 BYTE   W96
//  #04 //038   ----------------------------------------
 BYTE   W48
 BYTE   W96
//  #04 //039   ----------------------------------------
 BYTE   W48
 BYTE   W96
//  #04 //040   ----------------------------------------
 BYTE   W48
 BYTE   W96
//  #04 //041   ----------------------------------------
 BYTE   W48
 BYTE   W96
//  #04 //042   ----------------------------------------
 BYTE   W48
 BYTE   W96
//  #04 //043   ----------------------------------------
 BYTE   W48
 BYTE   W96
//  #04 //044   ----------------------------------------
 BYTE   W48
Label_01005E11:
 BYTE   W96
//  #04 //045   ----------------------------------------
 BYTE   W12
 BYTE   N04  Gn3  v100
 BYTE   W04
 BYTE   An3
 BYTE   W04
 BYTE   As3
 BYTE   W04
 BYTE   Dn4
 BYTE   W04
 BYTE   Gn4
 BYTE   W04
 BYTE   An4
 BYTE   W04
 BYTE   As4
 BYTE   W04
 BYTE   Dn5
 BYTE   W04
 BYTE   Gn5
 BYTE   W04
 BYTE   PEND 
Label_01005E28:
 BYTE   N04  As5  v100
 BYTE   W04
 BYTE   An5
 BYTE   W04
 BYTE   Gn5
 BYTE   W04
 BYTE   Dn5
 BYTE   W04
 BYTE   Gn5
 BYTE   W04
 BYTE   Dn5
 BYTE   W04
 BYTE   As4
 BYTE   W04
 BYTE   An4
 BYTE   W04
 BYTE   Gn4
 BYTE   W04
 BYTE   Dn5
 BYTE   W04
 BYTE   As4
 BYTE   W04
 BYTE   An4
 BYTE   W04
//  #04 //046   ----------------------------------------
 BYTE   Gn4
 BYTE   W04
 BYTE   As4
 BYTE   W04
 BYTE   Gn4
 BYTE   W04
 BYTE   Dn4
 BYTE   W04
 BYTE   As3
 BYTE   W04
 BYTE   Gn3
 BYTE   W04
 BYTE   Gn4
 BYTE   W04
 BYTE   Dn4
 BYTE   W04
 BYTE   As3
 BYTE   W04
 BYTE   An3
 BYTE   W04
 BYTE   Gn3
 BYTE   W04
 BYTE   As3
 BYTE   W04
 BYTE   An3
 BYTE   W04
 BYTE   Gn3
 BYTE   W04
 BYTE   Dn3
 BYTE   W04
 BYTE   As3
 BYTE   W04
 BYTE   An3
 BYTE   W04
 BYTE   Gn3
 BYTE   W04
 BYTE   Dn3
 BYTE   W04
 BYTE   Gn3
 BYTE   W04
 BYTE   Dn3
 BYTE   W04
 BYTE   As2
 BYTE   W04
 BYTE   An2
 BYTE   W04
 BYTE   Gn2
 BYTE   W04
 BYTE   PEND 
//  #04 //047   ----------------------------------------
Label_01005E73:
 BYTE   N04  Ds2  v100
 BYTE   W04
 BYTE   Gn2
 BYTE   W04
 BYTE   As2
 BYTE   W04
 BYTE   Cn3
 BYTE   W04
 BYTE   Ds3
 BYTE   W04
 BYTE   Gn2
 BYTE   W04
 BYTE   As2
 BYTE   W04
 BYTE   Cn3
 BYTE   W04
 BYTE   Ds3
 BYTE   W04
 BYTE   As2
 BYTE   W04
 BYTE   Cn3
 BYTE   W04
 BYTE   Ds3
 BYTE   W04
 BYTE   Gn3
 BYTE   W04
 BYTE   As3
 BYTE   W04
 BYTE   Ds3
 BYTE   W04
 BYTE   Gn3
 BYTE   W04
 BYTE   As3
 BYTE   W04
 BYTE   Ds4
 BYTE   W04
 BYTE   Gn3
 BYTE   W04
 BYTE   As3
 BYTE   W04
 BYTE   Cn4
 BYTE   W04
 BYTE   Ds4
 BYTE   W04
 BYTE   Gn4
 BYTE   W04
 BYTE   As3
 BYTE   W04
//  #04 //048   ----------------------------------------
 BYTE   Cn4
 BYTE   W04
 BYTE   Ds4
 BYTE   W04
 BYTE   Gn4
 BYTE   W04
 BYTE   Ds4
 BYTE   W04
 BYTE   Gn4
 BYTE   W04
 BYTE   As4
 BYTE   W04
 BYTE   Cn5
 BYTE   W04
 BYTE   Ds5
 BYTE   W04
 BYTE   Gn4
 BYTE   W04
 BYTE   As4
 BYTE   W04
 BYTE   Ds5
 BYTE   W04
 BYTE   Gn5
 BYTE   W04
 BYTE   PEND 
Label_01005EBE:
 BYTE   N04  An5  v100
 BYTE   W04
 BYTE   Gn5
 BYTE   W04
 BYTE   Fn5
 BYTE   W04
 BYTE   Cn5
 BYTE   W04
 BYTE   Fn5
 BYTE   W04
 BYTE   Cn5
 BYTE   W04
 BYTE   An4
 BYTE   W04
 BYTE   Gn4
 BYTE   W04
 BYTE   Fn4
 BYTE   W04
 BYTE   Cn5
 BYTE   W04
 BYTE   An4
 BYTE   W04
 BYTE   Gn4
 BYTE   W04
//  #04 //049   ----------------------------------------
 BYTE   Fn4
 BYTE   W04
 BYTE   An4
 BYTE   W04
 BYTE   Gn4
 BYTE   W04
 BYTE   Fn4
 BYTE   W04
 BYTE   Cn4
 BYTE   W04
 BYTE   An3
 BYTE   W04
 BYTE   Fn4
 BYTE   W04
 BYTE   Cn4
 BYTE   W04
 BYTE   An3
 BYTE   W04
 BYTE   Gn3
 BYTE   W04
 BYTE   Fn3
 BYTE   W04
 BYTE   Cn4
 BYTE   W04
 BYTE   An3
 BYTE   W04
 BYTE   Gn3
 BYTE   W04
 BYTE   Fn3
 BYTE   W04
 BYTE   An3
 BYTE   W04
 BYTE   Gn3
 BYTE   W04
 BYTE   Fn3
 BYTE   W04
 BYTE   Cn3
 BYTE   W04
 BYTE   Fn3
 BYTE   W04
 BYTE   Cn3
 BYTE   W04
 BYTE   An2
 BYTE   W04
 BYTE   Gn2
 BYTE   W04
 BYTE   Fn2
 BYTE   W04
 BYTE   PEND 
//  #04 //050   ----------------------------------------
Label_01005F09:
 BYTE   N04  Gn2  v100
 BYTE   W04
 BYTE   An2
 BYTE   W04
 BYTE   As2
 BYTE   W04
 BYTE   Dn3
 BYTE   W04
 BYTE   Gn3
 BYTE   W04
 BYTE   As2
 BYTE   W04
 BYTE   Dn3
 BYTE   W04
 BYTE   Gn3
 BYTE   W04
 BYTE   As3
 BYTE   W04
 BYTE   Dn3
 BYTE   W04
 BYTE   Gn3
 BYTE   W04
 BYTE   An3
 BYTE   W04
 BYTE   As3
 BYTE   W04
 BYTE   Dn4
 BYTE   W04
 BYTE   Gn3
 BYTE   W04
 BYTE   An3
 BYTE   W04
 BYTE   As3
 BYTE   W04
 BYTE   Dn4
 BYTE   W04
 BYTE   As3
 BYTE   W04
 BYTE   Dn4
 BYTE   W04
 BYTE   Gn4
 BYTE   W04
 BYTE   As4
 BYTE   W04
 BYTE   Dn4
 BYTE   W04
 BYTE   Gn4
 BYTE   W04
//  #04 //051   ----------------------------------------
 BYTE   An4
 BYTE   W04
 BYTE   As4
 BYTE   W04
 BYTE   Dn5
 BYTE   W04
 BYTE   Gn4
 BYTE   W04
 BYTE   An4
 BYTE   W04
 BYTE   As4
 BYTE   W04
 BYTE   Dn5
 BYTE   W04
 BYTE   Gn4
 BYTE   W04
 BYTE   An4
 BYTE   W04
 BYTE   As4
 BYTE   W04
 BYTE   Dn5
 BYTE   W04
 BYTE   Gn5
 BYTE   W04
 BYTE   PEND 
//  #04 //052   ----------------------------------------
 BYTE   PATT
  POIN2 Label_01005E28
//  #04 //053   ----------------------------------------
 BYTE   PATT
  POIN2 Label_01005E73
//  #04 //054   ----------------------------------------
 BYTE   PATT
  POIN2 Label_01005EBE
//  #04 //055   ----------------------------------------
 BYTE   PATT
  POIN2 Label_01005F09
//  #04 //056   ----------------------------------------
Label_01005F68:
 BYTE   N04  As5  v100
 BYTE   W04
 BYTE   An5
 BYTE   W04
 BYTE   Gn5  v096
 BYTE   W04
 BYTE   Dn5  v092
 BYTE   W04
 BYTE   Gn5
 BYTE   W04
 BYTE   Dn5  v088
 BYTE   W04
 BYTE   As4  v084
 BYTE   W04
 BYTE   An4
 BYTE   W04
 BYTE   Gn4  v080
 BYTE   W04
 BYTE   Dn5  v076
 BYTE   W04
 BYTE   As4
 BYTE   W04
 BYTE   An4  v072
 BYTE   W04
 BYTE   Gn4  v068
 BYTE   W04
 BYTE   As4  v064
 BYTE   W04
 BYTE   Gn4
 BYTE   W04
 BYTE   Dn4  v060
 BYTE   W04
 BYTE   As3  v056
 BYTE   W04
 BYTE   Gn3
 BYTE   W04
 BYTE   Gn4  v052
 BYTE   W04
 BYTE   Dn4  v048
 BYTE   W04
 BYTE   As3
 BYTE   W04
 BYTE   An3  v044
 BYTE   W04
 BYTE   Gn3  v040
 BYTE   W04
 BYTE   As3
 BYTE   W04
//  #04 //057   ----------------------------------------
 BYTE   An3  v036
 BYTE   W04
 BYTE   Gn3  v032
 BYTE   W04
 BYTE   Dn3
 BYTE   W04
 BYTE   As3  v028
 BYTE   W04
 BYTE   An3  v024
 BYTE   W04
 BYTE   Gn3
 BYTE   W04
 BYTE   Dn3  v020
 BYTE   W04
 BYTE   Gn3  v016
 BYTE   W04
 BYTE   Dn3
 BYTE   W04
 BYTE   As2  v012
 BYTE   W04
 BYTE   An2  v008
 BYTE   W04
 BYTE   Gn2  v004
 BYTE   W04
 BYTE   PEND 
 BYTE   W96
//  #04 //058   ----------------------------------------
 BYTE   W48
 BYTE   W96
//  #04 //059   ----------------------------------------
 BYTE   W48
 BYTE   W96
//  #04 //060   ----------------------------------------
 BYTE   W48
//  #04 //061   ----------------------------------------
 BYTE   PATT
  POIN2 Label_01005C1A
//  #04 //062   ----------------------------------------
 BYTE   GoTo
  POIN2 Label_01005C37
//  #04 //063   ----------------------------------------
 BYTE   PATT
  POIN2 Label_01005C37
//  #04 //064   ----------------------------------------
 BYTE   W96
//  #04 //065   ----------------------------------------
 BYTE   W48
 BYTE   W96
//  #04 //066   ----------------------------------------
 BYTE   W48
 BYTE   W96
//  #04 //067   ----------------------------------------
 BYTE   W48
 BYTE   W96
//  #04 //068   ----------------------------------------
 BYTE   W48
 BYTE   W96
//  #04 //069   ----------------------------------------
 BYTE   W48
 BYTE   W96
//  #04 //070   ----------------------------------------
 BYTE   W48
//  #04 //071   ----------------------------------------
 BYTE   PATT
  POIN2 Label_01005C49
//  #04 //072   ----------------------------------------
 BYTE   PATT
  POIN2 Label_01005C5F
//  #04 //073   ----------------------------------------
 BYTE   PATT
  POIN2 Label_01005C5F
//  #04 //074   ----------------------------------------
 BYTE   PATT
  POIN2 Label_01005C7F
//  #04 //075   ----------------------------------------
 BYTE   PATT
  POIN2 Label_01005C9A
//  #04 //076   ----------------------------------------
 BYTE   PATT
  POIN2 Label_01005C5F
//  #04 //077   ----------------------------------------
 BYTE   PATT
  POIN2 Label_01005C5F
//  #04 //078   ----------------------------------------
 BYTE   PATT
  POIN2 Label_01005CBF
//  #04 //079   ----------------------------------------
 BYTE   PATT
  POIN2 Label_01005CDA
//  #04 //080   ----------------------------------------
 BYTE   PATT
  POIN2 Label_01005CF5
//  #04 //081   ----------------------------------------
 BYTE   PATT
  POIN2 Label_01005D10
//  #04 //082   ----------------------------------------
 BYTE   PATT
  POIN2 Label_01005D2B
//  #04 //083   ----------------------------------------
 BYTE   PATT
  POIN2 Label_01005D46
//  #04 //084   ----------------------------------------
 BYTE   PATT
  POIN2 Label_01005D61
//  #04 //085   ----------------------------------------
 BYTE   PATT
  POIN2 Label_01005D7C
//  #04 //086   ----------------------------------------
 BYTE   PATT
  POIN2 Label_01005D97
//  #04 //087   ----------------------------------------
 BYTE   PATT
  POIN2 Label_01005DB2
//  #04 //088   ----------------------------------------
 BYTE   PATT
  POIN2 Label_01005DCD
//  #04 //089   ----------------------------------------
 BYTE   PATT
  POIN2 Label_01005DE8
//  #04 //090   ----------------------------------------
 BYTE   W96
//  #04 //091   ----------------------------------------
 BYTE   W48
 BYTE   W96
//  #04 //092   ----------------------------------------
 BYTE   W48
 BYTE   W96
//  #04 //093   ----------------------------------------
 BYTE   W48
 BYTE   W96
//  #04 //094   ----------------------------------------
 BYTE   W48
 BYTE   W96
//  #04 //095   ----------------------------------------
 BYTE   W48
 BYTE   W96
//  #04 //096   ----------------------------------------
 BYTE   W48
 BYTE   W96
//  #04 //097   ----------------------------------------
 BYTE   W48
//  #04 //098   ----------------------------------------
 BYTE   PATT
  POIN2 Label_01005E11
//  #04 //099   ----------------------------------------
 BYTE   PATT
  POIN2 Label_01005E28
//  #04 //100   ----------------------------------------
 BYTE   PATT
  POIN2 Label_01005E73
//  #04 //101   ----------------------------------------
 BYTE   PATT
  POIN2 Label_01005EBE
//  #04 //102   ----------------------------------------
 BYTE   PATT
  POIN2 Label_01005F09
//  #04 //103   ----------------------------------------
 BYTE   PATT
  POIN2 Label_01005E28
//  #04 //104   ----------------------------------------
 BYTE   PATT
  POIN2 Label_01005E73
//  #04 //105   ----------------------------------------
 BYTE   PATT
  POIN2 Label_01005EBE
//  #04 //106   ----------------------------------------
 BYTE   PATT
  POIN2 Label_01005F09
//  #04 //107   ----------------------------------------
 BYTE   PATT
  POIN2 Label_01005F68
//  #04 //108   ----------------------------------------
 BYTE   W96
//  #04 //109   ----------------------------------------
 BYTE   W48
 BYTE   W96
//  #04 //110   ----------------------------------------
 BYTE   W42
 BYTE   FINE

//**************** Track 5 (Midi-Chn.4) ****************//

BattleForStormHill_005:
//  #05 //000   ----------------------------------------
 BYTE   KEYSH   BattleForStormHill_key+0
 BYTE   VOICE   61
 BYTE   VOL   29*BattleForStormHill_mvl/mxv
 BYTE   PAN   c_v-12
 BYTE   W96
//  #05 //001   ----------------------------------------
 BYTE   W48
 BYTE   W96
//  #05 //002   ----------------------------------------
 BYTE   W48
Label_010060AC:
 BYTE   VOL   29*BattleForStormHill_mvl/mxv
 BYTE   N36  An2  v100
 BYTE   N36  Dn3
 BYTE   W36
 BYTE   As2
 BYTE   N36  Ds3
 BYTE   W36
//  #05 //003   ----------------------------------------
 BYTE   N60  Cn3
 BYTE   N60  Fn3
 BYTE   W60
 BYTE   N12  As2
 BYTE   N12  Ds3
 BYTE   W12
 BYTE   PEND 
Label_010060C3:
 BYTE   N24  An2  v100
 BYTE   N24  Dn3
 BYTE   W24
//  #05 //004   ----------------------------------------
 BYTE   N12
 BYTE   N12  An3
 BYTE   W12
 BYTE   N96
 BYTE   N96  Dn4
 BYTE   W96
//  #05 //005   ----------------------------------------
 BYTE   W12
 BYTE   PEND 
Label_010060D3:
 BYTE   N36  Gn2  v100
 BYTE   N36  Dn3
 BYTE   W36
 BYTE   As2
 BYTE   N36  Ds3
 BYTE   W36
 BYTE   N60  Cn3
 BYTE   N60  Fn3
 BYTE   W60
//  #05 //006   ----------------------------------------
 BYTE   N12  Dn3
 BYTE   N12  Gn3
 BYTE   W12
 BYTE   PEND 
Label_010060E8:
 BYTE   N24  Dn3  v100
 BYTE   N24  An3
 BYTE   W24
 BYTE   N12  An2
 BYTE   N12  Dn3
 BYTE   W12
 BYTE   N96
 BYTE   N96  An3
 BYTE   W96
//  #05 //007   ----------------------------------------
 BYTE   W12
 BYTE   PEND 
Label_010060F9:
 BYTE   N36  An2  v100
 BYTE   N36  Dn3
 BYTE   W36
 BYTE   As2
 BYTE   N36  Ds3
 BYTE   W36
 BYTE   N60  Cn3
 BYTE   N60  Fn3
 BYTE   W60
//  #05 //008   ----------------------------------------
 BYTE   N12  As2
 BYTE   N12  Ds3
 BYTE   W12
 BYTE   PEND 
//  #05 //009   ----------------------------------------
 BYTE   PATT
  POIN2 Label_010060C3
//  #05 //010   ----------------------------------------
Label_01006113:
 BYTE   N36  Gn2  v100
 BYTE   N36  Dn3
 BYTE   W36
 BYTE   N36
 BYTE   N36  Gn3
 BYTE   W36
 BYTE   N60  Cn3
 BYTE   N60  Fn3
 BYTE   W60
//  #05 //011   ----------------------------------------
 BYTE   N12
 BYTE   N12  An3
 BYTE   W12
 BYTE   PEND 
Label_01006127:
 BYTE   N24  Dn3  v100
 BYTE   N24  Gn3
 BYTE   W24
 BYTE   N12
 BYTE   N12  As3
 BYTE   W12
 BYTE   N96  Dn3
 BYTE   N96  Gn3
 BYTE   W96
//  #05 //012   ----------------------------------------
 BYTE   W12
 BYTE   PEND 
 BYTE   W96
//  #05 //013   ----------------------------------------
 BYTE   W48
 BYTE   W96
//  #05 //014   ----------------------------------------
 BYTE   W48
 BYTE   W96
//  #05 //015   ----------------------------------------
 BYTE   W48
 BYTE   W96
//  #05 //016   ----------------------------------------
 BYTE   W48
 BYTE   W96
//  #05 //017   ----------------------------------------
 BYTE   W48
 BYTE   W96
//  #05 //018   ----------------------------------------
 BYTE   W48
 BYTE   W96
//  #05 //019   ----------------------------------------
 BYTE   W48
Label_01006146:
 BYTE   W84
//  #05 //020   ----------------------------------------
 BYTE   N12  Gn2  v100
 BYTE   W12
 BYTE   An2
 BYTE   W12
 BYTE   As2
 BYTE   W12
 BYTE   Cn3
 BYTE   W12
 BYTE   Dn3
 BYTE   W12
 BYTE   PEND 
Label_01006154:
 BYTE   TIE  Ds3  v100
 BYTE   W96
//  #05 //021   ----------------------------------------
 BYTE   W12
 BYTE   PEND 
 BYTE   EOT
 BYTE   N36  Dn3
 BYTE   W36
Label_0100615E:
 BYTE   N72  Cn3  v100
 BYTE   W72
//  #05 //022   ----------------------------------------
 BYTE   N48  An2
 BYTE   W48
 BYTE   N12  As2
 BYTE   W12
 BYTE   Cn3
 BYTE   W12
 BYTE   PEND 
Label_0100616B:
 BYTE   TIE  Dn3  v100
 BYTE   W96
//  #05 //023   ----------------------------------------
 BYTE   W12
 BYTE   PEND 
 BYTE   EOT
 BYTE   N12  Cn3
 BYTE   W12
 BYTE   Dn3
 BYTE   W12
 BYTE   Cn3
 BYTE   W12
Label_01006179:
 BYTE   N72  As2  v100
 BYTE   W72
//  #05 //024   ----------------------------------------
 BYTE   N24  Gn2
 BYTE   W24
 BYTE   N12  An2
 BYTE   W12
 BYTE   As2
 BYTE   W12
 BYTE   Cn3
 BYTE   W12
 BYTE   Dn3
 BYTE   W12
 BYTE   PEND 
Label_0100618A:
 BYTE   TIE  Ds3  v100
 BYTE   W96
//  #05 //025   ----------------------------------------
 BYTE   W48
 BYTE   PEND 
 BYTE   EOT
Label_01006191:
 BYTE   N72  Cn3  v100
 BYTE   W72
//  #05 //026   ----------------------------------------
 BYTE   N12
 BYTE   W24
 BYTE   Dn3
 BYTE   W24
 BYTE   Ds3
 BYTE   W24
 BYTE   PEND 
Label_0100619C:
 BYTE   W72
//  #05 //027   ----------------------------------------
 BYTE   N12  Gn3  v100
 BYTE   W24
 BYTE   An3
 BYTE   W24
 BYTE   As3
 BYTE   W24
 BYTE   PEND 
Label_010061A6:
 BYTE   TIE  An3  v100
 BYTE   W96
//  #05 //028   ----------------------------------------
 BYTE   W48
 BYTE   PEND 
 BYTE   EOT
Label_010061AD:
 BYTE   N12  As2  v100
 BYTE   N12  Ds3
 BYTE   W36
 BYTE   As2
 BYTE   N12  Ds3
 BYTE   W36
//  #05 //029   ----------------------------------------
 BYTE   Cn3
 BYTE   N12  Fn3
 BYTE   W36
 BYTE   Cn3
 BYTE   N12  Fn3
 BYTE   W36
 BYTE   PEND 
Label_010061C0:
 BYTE   N18  Dn3  v127
 BYTE   W18
 BYTE   N06  Fs3
 BYTE   W06
//  #05 //030   ----------------------------------------
 BYTE   An3
 BYTE   W06
 BYTE   Cn4
 BYTE   W06
 BYTE   N24  Ds4
 BYTE   W36
 BYTE   N18  Dn3
 BYTE   W18
 BYTE   N06  Fs3
 BYTE   W06
 BYTE   An3
 BYTE   W06
 BYTE   Cn4
 BYTE   W06
 BYTE   N24  Dn4
 BYTE   W36
 BYTE   PEND 
//  #05 //031   ----------------------------------------
Label_010061DC:
 BYTE   N12  Dn3  v100
 BYTE   N12  Gn3
 BYTE   W24
 BYTE   Dn3
 BYTE   N12  Gn3
 BYTE   W24
 BYTE   Dn3
 BYTE   N12  Gn3
 BYTE   W12
 BYTE   Dn3
 BYTE   N12  Gn3
 BYTE   W12
 BYTE   Dn3
 BYTE   N12  Gn3
 BYTE   W24
//  #05 //032   ----------------------------------------
 BYTE   Dn3
 BYTE   N12  Gn3
 BYTE   W24
 BYTE   Dn3
 BYTE   N12  Gn3
 BYTE   W12
 BYTE   Dn3
 BYTE   N12  Gn3
 BYTE   W12
 BYTE   PEND 
Label_010061FF:
 BYTE   N12  Ds3  v100
 BYTE   N12  Gn3
 BYTE   W24
 BYTE   Ds3
 BYTE   N12  Gn3
 BYTE   W24
//  #05 //033   ----------------------------------------
 BYTE   Ds3
 BYTE   N12  Gn3
 BYTE   W12
 BYTE   Ds3
 BYTE   N12  Gn3
 BYTE   W12
 BYTE   Ds3
 BYTE   N12  Gn3
 BYTE   W12
 BYTE   Ds3
 BYTE   N12  Gn3
 BYTE   W12
 BYTE   Ds3
 BYTE   N12  Gn3
 BYTE   W12
 BYTE   N12
 BYTE   N12  As3
 BYTE   W12
 BYTE   Gn3
 BYTE   N12  As3
 BYTE   W12
 BYTE   Gn3
 BYTE   N12  As3
 BYTE   W12
 BYTE   PEND 
//  #05 //034   ----------------------------------------
Label_0100622A:
 BYTE   N12  Fn3  v100
 BYTE   N12  An3
 BYTE   W24
 BYTE   Fn3
 BYTE   N12  An3
 BYTE   W24
 BYTE   Fn3
 BYTE   N12  An3
 BYTE   W12
 BYTE   Fn3
 BYTE   N12  An3
 BYTE   W12
 BYTE   Cn3
 BYTE   N12  Fn3
 BYTE   W24
//  #05 //035   ----------------------------------------
 BYTE   Cn3
 BYTE   N12  Fn3
 BYTE   W24
 BYTE   Cn3
 BYTE   N12  Fn3
 BYTE   W12
 BYTE   Cn3
 BYTE   N12  Fn3
 BYTE   W12
 BYTE   PEND 
Label_0100624D:
 BYTE   N12  Dn3  v100
 BYTE   N12  Gn3
 BYTE   W24
 BYTE   Dn3
 BYTE   N12  Gn3
 BYTE   W24
//  #05 //036   ----------------------------------------
 BYTE   Dn3
 BYTE   N12  Gn3
 BYTE   W12
 BYTE   Dn3
 BYTE   N12  Gn3
 BYTE   W12
 BYTE   N12
 BYTE   N12  As3
 BYTE   W12
 BYTE   Gn3
 BYTE   N12  As3
 BYTE   W12
 BYTE   Gn3
 BYTE   N12  As3
 BYTE   W12
 BYTE   Gn3
 BYTE   N12  As3
 BYTE   W12
 BYTE   Gn3
 BYTE   N12  As3
 BYTE   W12
 BYTE   Gn3
 BYTE   N12  As3
 BYTE   W12
 BYTE   PEND 
//  #05 //037   ----------------------------------------
 BYTE   PATT
  POIN2 Label_010061DC
//  #05 //038   ----------------------------------------
 BYTE   PATT
  POIN2 Label_010061FF
//  #05 //039   ----------------------------------------
Label_01006282:
 BYTE   N12  Cn3  v100
 BYTE   N12  Fn3
 BYTE   W24
 BYTE   Cn3
 BYTE   N12  Fn3
 BYTE   W24
 BYTE   Cn3
 BYTE   N12  Fn3
 BYTE   W12
 BYTE   Cn3
 BYTE   N12  Fn3
 BYTE   W12
 BYTE   N12
 BYTE   N12  An3
 BYTE   W24
//  #05 //040   ----------------------------------------
 BYTE   Fn3
 BYTE   N12  An3
 BYTE   W24
 BYTE   Fn3
 BYTE   N12  An3
 BYTE   W12
 BYTE   Fn3
 BYTE   N12  An3
 BYTE   W12
 BYTE   PEND 
Label_010062A5:
 BYTE   N12  Dn3  v100
 BYTE   N12  Gn3
 BYTE   W24
 BYTE   Dn3
 BYTE   N12  Gn3
 BYTE   W24
//  #05 //041   ----------------------------------------
 BYTE   Dn3
 BYTE   N12  Gn3
 BYTE   W12
 BYTE   Dn3
 BYTE   N12  Gn3
 BYTE   W12
 BYTE   Dn3
 BYTE   N12  Gn3
 BYTE   W12
 BYTE   Dn3
 BYTE   N12  Gn3
 BYTE   W12
 BYTE   Dn3
 BYTE   N12  Gn3
 BYTE   W12
 BYTE   Dn3
 BYTE   N12  Gn3
 BYTE   W12
 BYTE   Dn3
 BYTE   N12  Gn3
 BYTE   W12
 BYTE   Dn3
 BYTE   N12  Gn3
 BYTE   W12
 BYTE   PEND 
//  #05 //042   ----------------------------------------
 BYTE   PATT
  POIN2 Label_010061DC
//  #05 //043   ----------------------------------------
 BYTE   PATT
  POIN2 Label_010061FF
//  #05 //044   ----------------------------------------
 BYTE   PATT
  POIN2 Label_0100622A
//  #05 //045   ----------------------------------------
 BYTE   PATT
  POIN2 Label_0100624D
//  #05 //046   ----------------------------------------
 BYTE   PATT
  POIN2 Label_010061DC
//  #05 //047   ----------------------------------------
 BYTE   PATT
  POIN2 Label_010061FF
//  #05 //048   ----------------------------------------
 BYTE   PATT
  POIN2 Label_01006282
//  #05 //049   ----------------------------------------
Label_010062F3:
 BYTE   N12  Dn3  v100
 BYTE   N12  Gn3
 BYTE   W24
 BYTE   Dn3
 BYTE   N12  Gn3
 BYTE   W24
 BYTE   Dn3
 BYTE   N12  Gn3
 BYTE   W12
 BYTE   Dn3
 BYTE   N12  Gn3
 BYTE   W12
 BYTE   Dn3
 BYTE   N12  Gn3
 BYTE   W12
 BYTE   Dn3
 BYTE   N12  Gn3
 BYTE   W12
//  #05 //050   ----------------------------------------
 BYTE   Dn3
 BYTE   N12  Gn3
 BYTE   W12
 BYTE   Dn3
 BYTE   N12  Gn3
 BYTE   W12
 BYTE   As2  v127
 BYTE   N12  Dn3  v100
 BYTE   N12  Gn3
 BYTE   W12
 BYTE   Cn3  v127
 BYTE   N12  Dn3  v100
 BYTE   N12  Gn3
 BYTE   W12
 BYTE   PEND 
Label_01006326:
 BYTE   N96  Dn3  v127
 BYTE   W96
//  #05 //051   ----------------------------------------
 BYTE   W12
 BYTE   N24  Cn3
 BYTE   W36
 BYTE   PEND 
Label_0100632F:
 BYTE   VOL   29*BattleForStormHill_mvl/mxv
 BYTE   TIE  As2  v127
 BYTE   W01
 BYTE   VOL   28*BattleForStormHill_mvl/mxv
 BYTE   W01
 BYTE   VOL   28*BattleForStormHill_mvl/mxv
 BYTE   W01
 BYTE   VOL   27*BattleForStormHill_mvl/mxv
 BYTE   W01
 BYTE   VOL   27*BattleForStormHill_mvl/mxv
 BYTE   W01
 BYTE   VOL   26*BattleForStormHill_mvl/mxv
 BYTE   W01
 BYTE   VOL   26*BattleForStormHill_mvl/mxv
 BYTE   W01
 BYTE   VOL   25*BattleForStormHill_mvl/mxv
 BYTE   W02
 BYTE   VOL   25*BattleForStormHill_mvl/mxv
 BYTE   W01
 BYTE   VOL   25*BattleForStormHill_mvl/mxv
 BYTE   W01
 BYTE   VOL   24*BattleForStormHill_mvl/mxv
 BYTE   W01
 BYTE   VOL   24*BattleForStormHill_mvl/mxv
 BYTE   W01
 BYTE   VOL   23*BattleForStormHill_mvl/mxv
 BYTE   W01
 BYTE   VOL   23*BattleForStormHill_mvl/mxv
 BYTE   W01
 BYTE   VOL   22*BattleForStormHill_mvl/mxv
 BYTE   W02
 BYTE   VOL   22*BattleForStormHill_mvl/mxv
 BYTE   W01
 BYTE   VOL   21*BattleForStormHill_mvl/mxv
 BYTE   W01
 BYTE   VOL   21*BattleForStormHill_mvl/mxv
 BYTE   W01
 BYTE   VOL   21*BattleForStormHill_mvl/mxv
 BYTE   W01
 BYTE   VOL   20*BattleForStormHill_mvl/mxv
 BYTE   W01
 BYTE   VOL   20*BattleForStormHill_mvl/mxv
 BYTE   W01
 BYTE   VOL   19*BattleForStormHill_mvl/mxv
 BYTE   W01
 BYTE   VOL   19*BattleForStormHill_mvl/mxv
 BYTE   W02
 BYTE   VOL   18*BattleForStormHill_mvl/mxv
 BYTE   W01
 BYTE   VOL   18*BattleForStormHill_mvl/mxv
 BYTE   W01
 BYTE   VOL   17*BattleForStormHill_mvl/mxv
 BYTE   W01
 BYTE   VOL   17*BattleForStormHill_mvl/mxv
 BYTE   W01
 BYTE   VOL   17*BattleForStormHill_mvl/mxv
 BYTE   W01
 BYTE   VOL   16*BattleForStormHill_mvl/mxv
 BYTE   W01
 BYTE   VOL   16*BattleForStormHill_mvl/mxv
 BYTE   W02
 BYTE   VOL   15*BattleForStormHill_mvl/mxv
 BYTE   W01
 BYTE   VOL   15*BattleForStormHill_mvl/mxv
 BYTE   W01
 BYTE   VOL   14*BattleForStormHill_mvl/mxv
 BYTE   W01
 BYTE   VOL   14*BattleForStormHill_mvl/mxv
 BYTE   W01
 BYTE   VOL   14*BattleForStormHill_mvl/mxv
 BYTE   W01
 BYTE   VOL   13*BattleForStormHill_mvl/mxv
 BYTE   W01
 BYTE   VOL   13*BattleForStormHill_mvl/mxv
 BYTE   W01
 BYTE   VOL   12*BattleForStormHill_mvl/mxv
 BYTE   W02
 BYTE   VOL   12*BattleForStormHill_mvl/mxv
 BYTE   W01
 BYTE   VOL   11*BattleForStormHill_mvl/mxv
 BYTE   W01
 BYTE   VOL   11*BattleForStormHill_mvl/mxv
 BYTE   W01
 BYTE   VOL   10*BattleForStormHill_mvl/mxv
 BYTE   W01
 BYTE   VOL   10*BattleForStormHill_mvl/mxv
 BYTE   W01
//  #05 //052   ----------------------------------------
 BYTE   VOL   10*BattleForStormHill_mvl/mxv
 BYTE   W01
 BYTE   VOL   9*BattleForStormHill_mvl/mxv
 BYTE   W02
 BYTE   VOL   9*BattleForStormHill_mvl/mxv
 BYTE   W01
 BYTE   VOL   8*BattleForStormHill_mvl/mxv
 BYTE   W01
 BYTE   VOL   8*BattleForStormHill_mvl/mxv
 BYTE   W01
 BYTE   VOL   7*BattleForStormHill_mvl/mxv
 BYTE   W01
 BYTE   VOL   7*BattleForStormHill_mvl/mxv
 BYTE   W01
 BYTE   VOL   6*BattleForStormHill_mvl/mxv
 BYTE   W01
 BYTE   VOL   6*BattleForStormHill_mvl/mxv
 BYTE   W01
 BYTE   VOL   6*BattleForStormHill_mvl/mxv
 BYTE   W02
 BYTE   VOL   5*BattleForStormHill_mvl/mxv
 BYTE   W01
 BYTE   VOL   5*BattleForStormHill_mvl/mxv
 BYTE   W01
 BYTE   VOL   4*BattleForStormHill_mvl/mxv
 BYTE   W01
 BYTE   VOL   4*BattleForStormHill_mvl/mxv
 BYTE   W01
 BYTE   VOL   4*BattleForStormHill_mvl/mxv
 BYTE   W01
 BYTE   VOL   4*BattleForStormHill_mvl/mxv
 BYTE   W01
 BYTE   VOL   4*BattleForStormHill_mvl/mxv
 BYTE   W02
 BYTE   VOL   4*BattleForStormHill_mvl/mxv
 BYTE   W01
 BYTE   VOL   4*BattleForStormHill_mvl/mxv
 BYTE   W01
 BYTE   VOL   4*BattleForStormHill_mvl/mxv
 BYTE   W01
 BYTE   VOL   4*BattleForStormHill_mvl/mxv
 BYTE   W01
 BYTE   VOL   4*BattleForStormHill_mvl/mxv
 BYTE   W01
 BYTE   VOL   4*BattleForStormHill_mvl/mxv
 BYTE   W01
 BYTE   VOL   4*BattleForStormHill_mvl/mxv
 BYTE   W01
 BYTE   VOL   4*BattleForStormHill_mvl/mxv
 BYTE   W02
 BYTE   VOL   4*BattleForStormHill_mvl/mxv
 BYTE   W01
 BYTE   VOL   4*BattleForStormHill_mvl/mxv
 BYTE   W01
 BYTE   VOL   4*BattleForStormHill_mvl/mxv
 BYTE   W01
 BYTE   VOL   4*BattleForStormHill_mvl/mxv
 BYTE   W01
 BYTE   VOL   4*BattleForStormHill_mvl/mxv
 BYTE   W01
 BYTE   VOL   4*BattleForStormHill_mvl/mxv
 BYTE   W01
 BYTE   VOL   4*BattleForStormHill_mvl/mxv
 BYTE   W02
 BYTE   VOL   4*BattleForStormHill_mvl/mxv
 BYTE   W01
 BYTE   VOL   4*BattleForStormHill_mvl/mxv
 BYTE   W01
 BYTE   VOL   4*BattleForStormHill_mvl/mxv
 BYTE   W01
 BYTE   VOL   4*BattleForStormHill_mvl/mxv
 BYTE   W01
 BYTE   VOL   4*BattleForStormHill_mvl/mxv
 BYTE   W01
 BYTE   VOL   4*BattleForStormHill_mvl/mxv
 BYTE   W01
 BYTE   VOL   4*BattleForStormHill_mvl/mxv
 BYTE   W01
 BYTE   VOL   4*BattleForStormHill_mvl/mxv
 BYTE   W02
 BYTE   VOL   4*BattleForStormHill_mvl/mxv
 BYTE   W01
 BYTE   VOL   4*BattleForStormHill_mvl/mxv
 BYTE   W01
 BYTE   VOL   4*BattleForStormHill_mvl/mxv
 BYTE   W01
 BYTE   VOL   4*BattleForStormHill_mvl/mxv
 BYTE   W01
 BYTE   VOL   4*BattleForStormHill_mvl/mxv
 BYTE   W01
 BYTE   VOL   4*BattleForStormHill_mvl/mxv
 BYTE   W01
 BYTE   VOL   4*BattleForStormHill_mvl/mxv
 BYTE   W02
 BYTE   VOL   4*BattleForStormHill_mvl/mxv
 BYTE   W01
 BYTE   VOL   4*BattleForStormHill_mvl/mxv
 BYTE   W01
 BYTE   VOL   4*BattleForStormHill_mvl/mxv
 BYTE   W01
 BYTE   VOL   4*BattleForStormHill_mvl/mxv
 BYTE   W01
 BYTE   VOL   4*BattleForStormHill_mvl/mxv
 BYTE   W01
 BYTE   VOL   4*BattleForStormHill_mvl/mxv
 BYTE   W01
 BYTE   VOL   4*BattleForStormHill_mvl/mxv
 BYTE   W01
 BYTE   VOL   4*BattleForStormHill_mvl/mxv
 BYTE   W02
 BYTE   VOL   4*BattleForStormHill_mvl/mxv
 BYTE   W01
 BYTE   VOL   4*BattleForStormHill_mvl/mxv
 BYTE   W01
 BYTE   VOL   4*BattleForStormHill_mvl/mxv
 BYTE   W01
 BYTE   VOL   4*BattleForStormHill_mvl/mxv
 BYTE   W01
 BYTE   VOL   4*BattleForStormHill_mvl/mxv
 BYTE   W01
 BYTE   VOL   4*BattleForStormHill_mvl/mxv
 BYTE   W01
 BYTE   VOL   4*BattleForStormHill_mvl/mxv
 BYTE   W02
 BYTE   VOL   4*BattleForStormHill_mvl/mxv
 BYTE   W01
 BYTE   VOL   4*BattleForStormHill_mvl/mxv
 BYTE   W01
 BYTE   VOL   4*BattleForStormHill_mvl/mxv
 BYTE   W01
 BYTE   VOL   4*BattleForStormHill_mvl/mxv
 BYTE   W01
 BYTE   VOL   4*BattleForStormHill_mvl/mxv
 BYTE   W01
 BYTE   VOL   4*BattleForStormHill_mvl/mxv
 BYTE   W01
 BYTE   VOL   4*BattleForStormHill_mvl/mxv
 BYTE   W01
 BYTE   VOL   4*BattleForStormHill_mvl/mxv
 BYTE   W02
 BYTE   VOL   4*BattleForStormHill_mvl/mxv
 BYTE   W01
 BYTE   VOL   4*BattleForStormHill_mvl/mxv
 BYTE   W01
 BYTE   VOL   4*BattleForStormHill_mvl/mxv
 BYTE   W01
 BYTE   VOL   4*BattleForStormHill_mvl/mxv
 BYTE   W01
 BYTE   VOL   4*BattleForStormHill_mvl/mxv
 BYTE   W01
 BYTE   VOL   4*BattleForStormHill_mvl/mxv
 BYTE   W01
 BYTE   VOL   4*BattleForStormHill_mvl/mxv
 BYTE   W02
 BYTE   VOL   4*BattleForStormHill_mvl/mxv
 BYTE   W01
 BYTE   VOL   4*BattleForStormHill_mvl/mxv
 BYTE   W01
 BYTE   VOL   4*BattleForStormHill_mvl/mxv
 BYTE   W01
 BYTE   VOL   4*BattleForStormHill_mvl/mxv
 BYTE   W01
 BYTE   VOL   4*BattleForStormHill_mvl/mxv
 BYTE   W01
 BYTE   VOL   4*BattleForStormHill_mvl/mxv
 BYTE   W01
 BYTE   VOL   4*BattleForStormHill_mvl/mxv
 BYTE   W02
 BYTE   PEND 
//  #05 //053   ----------------------------------------
 BYTE   EOT
 BYTE   VOL   4*BattleForStormHill_mvl/mxv
 BYTE   W96
//  #05 //054   ----------------------------------------
 BYTE   W48
 BYTE   W96
//  #05 //055   ----------------------------------------
 BYTE   W48
 BYTE   W96
//  #05 //056   ----------------------------------------
 BYTE   W48
 BYTE   GoTo
  POIN2 Label_010060AC
//  #05 //057   ----------------------------------------
 BYTE   PATT
  POIN2 Label_010060AC
//  #05 //058   ----------------------------------------
 BYTE   PATT
  POIN2 Label_010060C3
//  #05 //059   ----------------------------------------
 BYTE   PATT
  POIN2 Label_010060D3
//  #05 //060   ----------------------------------------
 BYTE   PATT
  POIN2 Label_010060E8
//  #05 //061   ----------------------------------------
 BYTE   PATT
  POIN2 Label_010060F9
//  #05 //062   ----------------------------------------
 BYTE   PATT
  POIN2 Label_010060C3
//  #05 //063   ----------------------------------------
 BYTE   PATT
  POIN2 Label_01006113
//  #05 //064   ----------------------------------------
 BYTE   PATT
  POIN2 Label_01006127
//  #05 //065   ----------------------------------------
 BYTE   W96
//  #05 //066   ----------------------------------------
 BYTE   W48
 BYTE   W96
//  #05 //067   ----------------------------------------
 BYTE   W48
 BYTE   W96
//  #05 //068   ----------------------------------------
 BYTE   W48
 BYTE   W96
//  #05 //069   ----------------------------------------
 BYTE   W48
 BYTE   W96
//  #05 //070   ----------------------------------------
 BYTE   W48
 BYTE   W96
//  #05 //071   ----------------------------------------
 BYTE   W48
 BYTE   W96
//  #05 //072   ----------------------------------------
 BYTE   W48
//  #05 //073   ----------------------------------------
 BYTE   PATT
  POIN2 Label_01006146
//  #05 //074   ----------------------------------------
 BYTE   PATT
  POIN2 Label_01006154
//  #05 //075   ----------------------------------------
 BYTE   EOT
 BYTE   Ds3
 BYTE   N36  Dn3  v100
 BYTE   W36
//  #05 //076   ----------------------------------------
 BYTE   PATT
  POIN2 Label_0100615E
//  #05 //077   ----------------------------------------
 BYTE   PATT
  POIN2 Label_0100616B
//  #05 //078   ----------------------------------------
 BYTE   EOT
 BYTE   Dn3
 BYTE   N12  Cn3  v100
 BYTE   W12
 BYTE   Dn3
 BYTE   W12
 BYTE   Cn3
 BYTE   W12
//  #05 //079   ----------------------------------------
 BYTE   PATT
  POIN2 Label_01006179
//  #05 //080   ----------------------------------------
 BYTE   PATT
  POIN2 Label_0100618A
//  #05 //081   ----------------------------------------
 BYTE   EOT
 BYTE   Ds3
//  #05 //082   ----------------------------------------
 BYTE   PATT
  POIN2 Label_01006191
//  #05 //083   ----------------------------------------
 BYTE   PATT
  POIN2 Label_0100619C
//  #05 //084   ----------------------------------------
 BYTE   PATT
  POIN2 Label_010061A6
//  #05 //085   ----------------------------------------
 BYTE   EOT
 BYTE   An3
//  #05 //086   ----------------------------------------
 BYTE   PATT
  POIN2 Label_010061AD
//  #05 //087   ----------------------------------------
 BYTE   PATT
  POIN2 Label_010061C0
//  #05 //088   ----------------------------------------
 BYTE   PATT
  POIN2 Label_010061DC
//  #05 //089   ----------------------------------------
 BYTE   PATT
  POIN2 Label_010061FF
//  #05 //090   ----------------------------------------
 BYTE   PATT
  POIN2 Label_0100622A
//  #05 //091   ----------------------------------------
 BYTE   PATT
  POIN2 Label_0100624D
//  #05 //092   ----------------------------------------
 BYTE   PATT
  POIN2 Label_010061DC
//  #05 //093   ----------------------------------------
 BYTE   PATT
  POIN2 Label_010061FF
//  #05 //094   ----------------------------------------
 BYTE   PATT
  POIN2 Label_01006282
//  #05 //095   ----------------------------------------
 BYTE   PATT
  POIN2 Label_010062A5
//  #05 //096   ----------------------------------------
 BYTE   PATT
  POIN2 Label_010061DC
//  #05 //097   ----------------------------------------
 BYTE   PATT
  POIN2 Label_010061FF
//  #05 //098   ----------------------------------------
 BYTE   PATT
  POIN2 Label_0100622A
//  #05 //099   ----------------------------------------
 BYTE   PATT
  POIN2 Label_0100624D
//  #05 //100   ----------------------------------------
 BYTE   PATT
  POIN2 Label_010061DC
//  #05 //101   ----------------------------------------
 BYTE   PATT
  POIN2 Label_010061FF
//  #05 //102   ----------------------------------------
 BYTE   PATT
  POIN2 Label_01006282
//  #05 //103   ----------------------------------------
 BYTE   PATT
  POIN2 Label_010062F3
//  #05 //104   ----------------------------------------
 BYTE   PATT
  POIN2 Label_01006326
//  #05 //105   ----------------------------------------
 BYTE   PATT
  POIN2 Label_0100632F
//  #05 //106   ----------------------------------------
 BYTE   EOT
 BYTE   As2
 BYTE   VOL   4*BattleForStormHill_mvl/mxv
 BYTE   W96
//  #05 //107   ----------------------------------------
 BYTE   W42
 BYTE   FINE

//**************** Track 6 (Midi-Chn.5) ****************//

BattleForStormHill_006:
//  #06 //000   ----------------------------------------
 BYTE   KEYSH   BattleForStormHill_key+0
 BYTE   VOICE   46
 BYTE   VOL   23*BattleForStormHill_mvl/mxv
 BYTE   PAN   c_v-20
 BYTE   N06  An2  v100
 BYTE   N06  Cs3
 BYTE   N06  En3  v127
 BYTE   W18
 BYTE   An2  v100
 BYTE   N06  Cs3
 BYTE   N06  En3  v127
 BYTE   W06
 BYTE   An2  v100
 BYTE   N06  Cs3
 BYTE   N06  En3  v127
 BYTE   W12
 BYTE   An2  v100
 BYTE   N06  Cs3
 BYTE   N06  En3  v127
 BYTE   W12
 BYTE   An2  v100
 BYTE   N06  Cs3
 BYTE   N06  En3  v127
 BYTE   W12
 BYTE   An2  v100
 BYTE   N06  Cs3
 BYTE   N06  En3  v127
 BYTE   W12
 BYTE   As2  v100
 BYTE   N06  Dn3
 BYTE   N06  Fn3  v127
 BYTE   W12
 BYTE   As2  v100
 BYTE   N06  Dn3
 BYTE   N06  Fn3  v127
 BYTE   W06
 BYTE   As2  v100
 BYTE   N06  Dn3
 BYTE   N06  Fn3  v127
 BYTE   W06
//  #06 //001   ----------------------------------------
 BYTE   As2  v100
 BYTE   N06  Dn3
 BYTE   N06  Fn3  v127
 BYTE   W12
 BYTE   As2  v100
 BYTE   N06  Dn3
 BYTE   N06  Fn3  v127
 BYTE   W12
 BYTE   As2  v100
 BYTE   N06  Dn3
 BYTE   N06  Fn3  v127
 BYTE   W12
 BYTE   As2  v100
 BYTE   N06  Dn3
 BYTE   N06  Fn3  v127
 BYTE   W12
Label_010065A5:
 BYTE   N06  Cn3  v100
 BYTE   N06  En3
 BYTE   N06  Gn3  v127
 BYTE   W12
 BYTE   Cn3  v100
 BYTE   N06  En3
 BYTE   N06  Gn3  v127
 BYTE   W12
 BYTE   Cn3  v100
 BYTE   N06  En3
 BYTE   N06  Gn3  v127
 BYTE   W12
 BYTE   Cn3  v100
 BYTE   N06  En3
 BYTE   N06  Gn3  v127
 BYTE   W12
//  #06 //002   ----------------------------------------
 BYTE   Cn3  v100
 BYTE   N06  En3
 BYTE   N06  Gn3  v127
 BYTE   W12
 BYTE   Cn3  v100
 BYTE   N06  En3
 BYTE   N06  Gn3  v127
 BYTE   W12
 BYTE   Cs3  v100
 BYTE   N06  En3
 BYTE   N06  An3  v127
 BYTE   W18
 BYTE   Cs3  v100
 BYTE   N06  En3
 BYTE   N06  An3  v127
 BYTE   W06
 BYTE   Cs3  v100
 BYTE   N06  En3
 BYTE   N06  An3  v127
 BYTE   W12
 BYTE   Cs3  v100
 BYTE   N06  En3
 BYTE   N06  An3  v127
 BYTE   W12
 BYTE   Cs3  v100
 BYTE   N06  En3
 BYTE   N06  An3  v127
 BYTE   W12
 BYTE   Cs3  v100
 BYTE   N06  En3
 BYTE   N06  An3  v127
 BYTE   W12
 BYTE   PEND 
//  #06 //003   ----------------------------------------
Label_01006607:
 BYTE   N12  Dn4  v100
 BYTE   W12
 BYTE   An3
 BYTE   W12
 BYTE   Dn3
 BYTE   W12
 BYTE   Dn4
 BYTE   W12
 BYTE   An3
 BYTE   W12
 BYTE   Dn3
 BYTE   W12
 BYTE   Dn4
 BYTE   W12
 BYTE   An3
 BYTE   W12
//  #06 //004   ----------------------------------------
 BYTE   Dn3
 BYTE   W12
 BYTE   An4
 BYTE   W12
 BYTE   Dn4
 BYTE   W12
 BYTE   An3
 BYTE   W12
 BYTE   PEND 
//  #06 //005   ----------------------------------------
 BYTE   PATT
  POIN2 Label_01006607
//  #06 //006   ----------------------------------------
Label_01006627:
 BYTE   N12  Dn4  v100
 BYTE   W12
 BYTE   Gn3
 BYTE   W12
 BYTE   Dn3
 BYTE   W12
 BYTE   Dn4
 BYTE   W12
 BYTE   Gn3
 BYTE   W12
 BYTE   Dn3
 BYTE   W12
 BYTE   Dn4
 BYTE   W12
 BYTE   Gn3
 BYTE   W12
//  #06 //007   ----------------------------------------
 BYTE   Dn3
 BYTE   W12
 BYTE   Gn4
 BYTE   W12
 BYTE   Dn4
 BYTE   W12
 BYTE   Gn3
 BYTE   W12
 BYTE   PEND 
Label_01006642:
 BYTE   N12  Dn4  v100
 BYTE   W12
 BYTE   An3
 BYTE   W12
 BYTE   Dn3
 BYTE   W12
 BYTE   Dn4
 BYTE   W12
//  #06 //008   ----------------------------------------
 BYTE   Fn4
 BYTE   W12
 BYTE   An4
 BYTE   W12
 BYTE   Dn5
 BYTE   W12
 BYTE   Dn4
 BYTE   W12
 BYTE   Fn4
 BYTE   W12
 BYTE   An4
 BYTE   W12
 BYTE   Dn4
 BYTE   W12
 BYTE   An3
 BYTE   W12
 BYTE   PEND 
//  #06 //009   ----------------------------------------
 BYTE   PATT
  POIN2 Label_01006607
//  #06 //010   ----------------------------------------
 BYTE   PATT
  POIN2 Label_01006607
//  #06 //011   ----------------------------------------
Label_01006667:
 BYTE   N12  Dn4  v100
 BYTE   W12
 BYTE   Gn3
 BYTE   W12
 BYTE   Dn3
 BYTE   W12
 BYTE   Dn4
 BYTE   W12
 BYTE   Gn3
 BYTE   W12
 BYTE   Dn3
 BYTE   W12
 BYTE   Fn4
 BYTE   W12
 BYTE   Cn4
 BYTE   W12
//  #06 //012   ----------------------------------------
 BYTE   An3
 BYTE   W12
 BYTE   An4
 BYTE   W12
 BYTE   Fn4
 BYTE   W12
 BYTE   Cn4
 BYTE   W12
 BYTE   PEND 
Label_01006682:
 BYTE   N12  Dn4  v100
 BYTE   W12
 BYTE   Gn3
 BYTE   W12
 BYTE   Dn3
 BYTE   W12
 BYTE   Dn4
 BYTE   W12
//  #06 //013   ----------------------------------------
 BYTE   Gn4
 BYTE   W12
 BYTE   An4
 BYTE   W12
 BYTE   Dn5
 BYTE   W12
 BYTE   Gn4
 BYTE   W12
 BYTE   Dn4
 BYTE   W12
 BYTE   Gn4
 BYTE   W12
 BYTE   Dn4
 BYTE   W12
 BYTE   Gn3
 BYTE   W12
 BYTE   PEND 
//  #06 //014   ----------------------------------------
 BYTE   PATT
  POIN2 Label_01006607
//  #06 //015   ----------------------------------------
 BYTE   PATT
  POIN2 Label_01006607
//  #06 //016   ----------------------------------------
 BYTE   PATT
  POIN2 Label_01006627
//  #06 //017   ----------------------------------------
 BYTE   PATT
  POIN2 Label_01006642
//  #06 //018   ----------------------------------------
 BYTE   PATT
  POIN2 Label_01006607
//  #06 //019   ----------------------------------------
 BYTE   PATT
  POIN2 Label_01006607
//  #06 //020   ----------------------------------------
 BYTE   PATT
  POIN2 Label_01006667
//  #06 //021   ----------------------------------------
Label_010066C0:
 BYTE   N12  Dn4  v100
 BYTE   W12
 BYTE   Gn3
 BYTE   W12
 BYTE   Dn3
 BYTE   W12
 BYTE   Dn4
 BYTE   W12
 BYTE   Gn3
 BYTE   W12
 BYTE   Dn3
 BYTE   W12
 BYTE   Dn4
 BYTE   W12
 BYTE   Gn3
 BYTE   W12
//  #06 //022   ----------------------------------------
 BYTE   Dn3
 BYTE   W12
 BYTE   Dn4
 BYTE   W12
 BYTE   Gn3
 BYTE   W12
 BYTE   Dn3
 BYTE   W12
 BYTE   PEND 
Label_010066DB:
 BYTE   N06  Ds3  v100
 BYTE   N06  As3
 BYTE   W12
 BYTE   Ds3
 BYTE   N06  Gn3
 BYTE   W12
 BYTE   Ds3
 BYTE   N06  Gn3
 BYTE   W12
 BYTE   Ds3
 BYTE   N06  As3
 BYTE   W12
//  #06 //023   ----------------------------------------
 BYTE   Ds3
 BYTE   N06  Gn3
 BYTE   W12
 BYTE   Ds3
 BYTE   N06  Gn3
 BYTE   W12
 BYTE   Ds3
 BYTE   N06  As3
 BYTE   W12
 BYTE   Ds3
 BYTE   N06  Gn3
 BYTE   W12
 BYTE   Ds3
 BYTE   N06  Gn3
 BYTE   W12
 BYTE   Ds3
 BYTE   N06  As3
 BYTE   W12
 BYTE   Ds3
 BYTE   N06  Gn3
 BYTE   W12
 BYTE   Ds3
 BYTE   N06  Gn3
 BYTE   W12
 BYTE   PEND 
//  #06 //024   ----------------------------------------
Label_0100670E:
 BYTE   N06  Fn3  v100
 BYTE   N06  Cn4
 BYTE   W18
 BYTE   Fn3
 BYTE   N06  An3
 BYTE   W06
 BYTE   Fn3
 BYTE   N06  An3
 BYTE   W12
 BYTE   Fn3
 BYTE   N06  Cn4
 BYTE   W12
 BYTE   Fn3
 BYTE   N06  An3
 BYTE   W12
 BYTE   Fn3
 BYTE   N06  An3
 BYTE   W12
 BYTE   Fn3
 BYTE   N06  Cn4
 BYTE   W12
 BYTE   Fn3
 BYTE   N06  An3
 BYTE   W12
//  #06 //025   ----------------------------------------
 BYTE   Fn3
 BYTE   N06  An3
 BYTE   W12
 BYTE   Fn3
 BYTE   N06  Cn4
 BYTE   W12
 BYTE   Fn3
 BYTE   N06  An3
 BYTE   W12
 BYTE   Fn3
 BYTE   N06  An3
 BYTE   W12
 BYTE   PEND 
Label_01006741:
 BYTE   N06  Dn3  v100
 BYTE   N06  As3
 BYTE   W12
 BYTE   Dn3
 BYTE   N06  Fn3
 BYTE   W12
 BYTE   Dn3
 BYTE   N06  Fn3
 BYTE   W12
 BYTE   Dn3
 BYTE   N06  As3
 BYTE   W12
//  #06 //026   ----------------------------------------
 BYTE   Dn3
 BYTE   N06  Fn3
 BYTE   W12
 BYTE   Dn3
 BYTE   N06  Fn3
 BYTE   W12
 BYTE   Dn3
 BYTE   N06  As3
 BYTE   W12
 BYTE   Dn3
 BYTE   N06  Fn3
 BYTE   W12
 BYTE   Dn3
 BYTE   N06  Fn3
 BYTE   W12
 BYTE   Dn3
 BYTE   N06  As3
 BYTE   W12
 BYTE   Dn3
 BYTE   N06  Fn3
 BYTE   W12
 BYTE   Dn3
 BYTE   N06  Fn3
 BYTE   W12
 BYTE   PEND 
//  #06 //027   ----------------------------------------
Label_01006774:
 BYTE   N06  Dn3  v100
 BYTE   N06  As3
 BYTE   W18
 BYTE   Dn3
 BYTE   N06  Gn3
 BYTE   W06
 BYTE   Dn3
 BYTE   N06  Gn3
 BYTE   W12
 BYTE   Dn3
 BYTE   N06  As3
 BYTE   W12
 BYTE   Dn3
 BYTE   N06  Gn3
 BYTE   W12
 BYTE   Dn3
 BYTE   N06  Gn3
 BYTE   W12
 BYTE   N06
 BYTE   N06  Dn4
 BYTE   W12
 BYTE   Gn3
 BYTE   N06  As3
 BYTE   W12
//  #06 //028   ----------------------------------------
 BYTE   Gn3
 BYTE   N06  As3
 BYTE   W12
 BYTE   Gn3
 BYTE   N06  Dn4
 BYTE   W12
 BYTE   Gn3
 BYTE   N06  As3
 BYTE   W12
 BYTE   Gn3
 BYTE   N06  As3
 BYTE   W12
 BYTE   PEND 
Label_010067A7:
 BYTE   N06  Gs3  v100
 BYTE   N06  Ds4
 BYTE   W12
 BYTE   Gs3
 BYTE   N06  Cn4
 BYTE   W12
 BYTE   Gs3
 BYTE   N06  Cn4
 BYTE   W12
 BYTE   Gs3
 BYTE   N06  Ds4
 BYTE   W12
//  #06 //029   ----------------------------------------
 BYTE   Gs3
 BYTE   N06  Cn4
 BYTE   W12
 BYTE   Gs3
 BYTE   N06  Cn4
 BYTE   W12
 BYTE   Gs3
 BYTE   N06  Ds4
 BYTE   W12
 BYTE   Gs3
 BYTE   N06  Cn4
 BYTE   W12
 BYTE   Gs3
 BYTE   N06  Cn4
 BYTE   W12
 BYTE   Gs3
 BYTE   N06  Ds4
 BYTE   W12
 BYTE   Gs3
 BYTE   N06  Cn4
 BYTE   W12
 BYTE   Gs3
 BYTE   N06  Cn4
 BYTE   W12
 BYTE   PEND 
//  #06 //030   ----------------------------------------
Label_010067DA:
 BYTE   N06  An3  v100
 BYTE   N06  Ds4
 BYTE   W18
 BYTE   An3
 BYTE   N06  Cn4
 BYTE   W06
 BYTE   An3
 BYTE   N06  Cn4
 BYTE   W12
 BYTE   An3
 BYTE   N06  Ds4
 BYTE   W12
 BYTE   An3
 BYTE   N06  Cn4
 BYTE   W12
 BYTE   An3
 BYTE   N06  Cn4
 BYTE   W12
 BYTE   An3
 BYTE   N06  Ds4
 BYTE   W12
 BYTE   An3
 BYTE   N06  Cn4
 BYTE   W12
//  #06 //031   ----------------------------------------
 BYTE   An3
 BYTE   N06  Cn4
 BYTE   W12
 BYTE   An3
 BYTE   N06  Ds4
 BYTE   W12
 BYTE   An3
 BYTE   N06  Cn4
 BYTE   W12
 BYTE   An3
 BYTE   N06  Cn4
 BYTE   W12
 BYTE   PEND 
Label_0100680D:
 BYTE   N06  Gn3  v100
 BYTE   N06  Dn4
 BYTE   W18
 BYTE   Gn3
 BYTE   N06  An3
 BYTE   W06
 BYTE   Gn3
 BYTE   N06  An3
 BYTE   W12
 BYTE   Gn3
 BYTE   N06  Dn4
 BYTE   W12
//  #06 //032   ----------------------------------------
 BYTE   Gn3
 BYTE   N06  An3
 BYTE   W12
 BYTE   Gn3
 BYTE   N06  An3
 BYTE   W12
 BYTE   Gn3
 BYTE   N06  Dn4
 BYTE   W12
 BYTE   Gn3
 BYTE   N06  An3
 BYTE   W12
 BYTE   Gn3
 BYTE   N06  An3
 BYTE   W12
 BYTE   Gn3
 BYTE   N06  Dn4
 BYTE   W12
 BYTE   Gn3
 BYTE   N06  An3
 BYTE   W12
 BYTE   Gn3
 BYTE   N06  An3
 BYTE   W12
 BYTE   PEND 
//  #06 //033   ----------------------------------------
Label_01006840:
 BYTE   N06  Gn3  v100
 BYTE   N06  Dn4
 BYTE   W12
 BYTE   Gn3
 BYTE   N06  An3
 BYTE   W12
 BYTE   Gn3
 BYTE   N06  An3
 BYTE   W12
 BYTE   Gn3
 BYTE   N06  Dn4
 BYTE   W12
 BYTE   Gn3
 BYTE   N06  An3
 BYTE   W12
 BYTE   Gn3
 BYTE   N06  An3
 BYTE   W12
 BYTE   Gn3
 BYTE   N06  Dn4
 BYTE   W12
 BYTE   Gn3
 BYTE   N06  An3
 BYTE   W12
//  #06 //034   ----------------------------------------
 BYTE   Gn3
 BYTE   N06  An3
 BYTE   W12
 BYTE   Gn3
 BYTE   N06  Dn4
 BYTE   W12
 BYTE   Gn3
 BYTE   N06  An3
 BYTE   W12
 BYTE   Gn3
 BYTE   N06  An3
 BYTE   W12
 BYTE   PEND 
Label_01006873:
 BYTE   N06  Ds3  v100
 BYTE   N06  As3
 BYTE   W18
 BYTE   Ds3
 BYTE   N06  Gn3
 BYTE   W06
 BYTE   Ds3
 BYTE   N06  Gn3
 BYTE   W12
 BYTE   Ds3
 BYTE   N06  As3
 BYTE   W12
//  #06 //035   ----------------------------------------
 BYTE   Ds3
 BYTE   N06  Gn3
 BYTE   W12
 BYTE   Ds3
 BYTE   N06  Gn3
 BYTE   W12
 BYTE   Fn3
 BYTE   N06  Cn4
 BYTE   W12
 BYTE   Fn3
 BYTE   N06  An3
 BYTE   W12
 BYTE   Fn3
 BYTE   N06  An3
 BYTE   W12
 BYTE   Fn3
 BYTE   N06  Cn4
 BYTE   W12
 BYTE   Fn3
 BYTE   N06  An3
 BYTE   W12
 BYTE   Fn3
 BYTE   N06  An3
 BYTE   W12
 BYTE   PEND 
//  #06 //036   ----------------------------------------
Label_010068A6:
 BYTE   N06  Fs3  v100
 BYTE   N06  Dn4
 BYTE   W12
 BYTE   Fs3
 BYTE   N06  An3
 BYTE   W12
 BYTE   Fs3
 BYTE   N06  An3
 BYTE   W12
 BYTE   Fs3
 BYTE   N06  Dn4
 BYTE   W12
 BYTE   Fs3
 BYTE   N06  An3
 BYTE   W12
 BYTE   Fs3
 BYTE   N06  An3
 BYTE   W12
 BYTE   Fs3
 BYTE   N06  Dn4
 BYTE   W12
 BYTE   Fs3
 BYTE   N06  An3
 BYTE   W12
//  #06 //037   ----------------------------------------
 BYTE   Fs3
 BYTE   N06  An3
 BYTE   W12
 BYTE   Fs3
 BYTE   N06  Dn4
 BYTE   W12
 BYTE   Fs3
 BYTE   N06  An3
 BYTE   W12
 BYTE   Fs3
 BYTE   N06  An3
 BYTE   W12
 BYTE   PEND 
Label_010068D9:
 BYTE   N06  Dn3  v100
 BYTE   N06  As3
 BYTE   W12
 BYTE   Dn3
 BYTE   N06  Gn3
 BYTE   W12
 BYTE   Dn3
 BYTE   N06  Gn3
 BYTE   W12
 BYTE   Dn3
 BYTE   N06  As3
 BYTE   W12
//  #06 //038   ----------------------------------------
 BYTE   Dn3
 BYTE   N06  Gn3
 BYTE   W12
 BYTE   Dn3
 BYTE   N06  Gn3
 BYTE   W12
 BYTE   Dn3
 BYTE   N06  As3
 BYTE   W12
 BYTE   Dn3
 BYTE   N06  Gn3
 BYTE   W12
 BYTE   Dn3
 BYTE   N06  Gn3
 BYTE   W12
 BYTE   Dn3
 BYTE   N06  As3
 BYTE   W12
 BYTE   Dn3
 BYTE   N06  Gn3
 BYTE   W12
 BYTE   Dn3
 BYTE   N06  Gn3
 BYTE   W12
 BYTE   PEND 
//  #06 //039   ----------------------------------------
Label_0100690C:
 BYTE   N06  Ds3  v100
 BYTE   N06  Cn4
 BYTE   W18
 BYTE   Ds3
 BYTE   N06  Gn3
 BYTE   W06
 BYTE   Ds3
 BYTE   N06  Gn3
 BYTE   W12
 BYTE   Ds3
 BYTE   N06  Cn4
 BYTE   W12
 BYTE   Ds3
 BYTE   N06  Gn3
 BYTE   W12
 BYTE   Ds3
 BYTE   N06  Gn3
 BYTE   W12
 BYTE   Ds3
 BYTE   N06  Cn4
 BYTE   W12
 BYTE   Ds3
 BYTE   N06  Gn3
 BYTE   W12
//  #06 //040   ----------------------------------------
 BYTE   Ds3
 BYTE   N06  Gn3
 BYTE   W12
 BYTE   Ds3
 BYTE   N06  Cn4
 BYTE   W12
 BYTE   Ds3
 BYTE   N06  Gn3
 BYTE   W12
 BYTE   Ds3
 BYTE   N06  Gn3
 BYTE   W12
 BYTE   PEND 
Label_0100693F:
 BYTE   N06  Cn3  v100
 BYTE   N06  An3
 BYTE   W12
 BYTE   Cn3
 BYTE   N06  Fn3
 BYTE   W12
 BYTE   Cn3
 BYTE   N06  Fn3
 BYTE   W12
 BYTE   Cn3
 BYTE   N06  An3
 BYTE   W12
//  #06 //041   ----------------------------------------
 BYTE   Cn3
 BYTE   N06  Fn3
 BYTE   W12
 BYTE   Cn3
 BYTE   N06  Fn3
 BYTE   W12
 BYTE   Cn3
 BYTE   N06  An3
 BYTE   W12
 BYTE   Cn3
 BYTE   N06  Fn3
 BYTE   W12
 BYTE   Cn3
 BYTE   N06  Fn3
 BYTE   W12
 BYTE   Cn3
 BYTE   N06  An3
 BYTE   W12
 BYTE   Cn3
 BYTE   N06  Fn3
 BYTE   W12
 BYTE   Cn3
 BYTE   N06  Fn3
 BYTE   W12
 BYTE   PEND 
//  #06 //042   ----------------------------------------
Label_01006972:
 BYTE   N06  Cn3  v100
 BYTE   N06  As3
 BYTE   W18
 BYTE   Dn3
 BYTE   N06  Gn3
 BYTE   W06
 BYTE   Dn3
 BYTE   N06  Gn3
 BYTE   W12
 BYTE   Dn3
 BYTE   N06  As3
 BYTE   W12
 BYTE   Dn3
 BYTE   N06  Gn3
 BYTE   W12
 BYTE   Dn3
 BYTE   N06  Gn3
 BYTE   W12
 BYTE   Dn3
 BYTE   N06  As3
 BYTE   W12
 BYTE   Dn3
 BYTE   N06  Gn3
 BYTE   W12
//  #06 //043   ----------------------------------------
 BYTE   Dn3
 BYTE   N06  Gn3
 BYTE   W12
 BYTE   Dn3
 BYTE   N06  As3
 BYTE   W12
 BYTE   Dn3
 BYTE   N06  Gn3
 BYTE   W12
 BYTE   Dn3
 BYTE   N06  Gn3
 BYTE   W12
 BYTE   PEND 
//  #06 //044   ----------------------------------------
 BYTE   PATT
  POIN2 Label_010068D9
//  #06 //045   ----------------------------------------
 BYTE   PATT
  POIN2 Label_0100690C
//  #06 //046   ----------------------------------------
 BYTE   PATT
  POIN2 Label_0100693F
//  #06 //047   ----------------------------------------
 BYTE   PATT
  POIN2 Label_01006972
//  #06 //048   ----------------------------------------
 BYTE   PATT
  POIN2 Label_010068D9
//  #06 //049   ----------------------------------------
 BYTE   PATT
  POIN2 Label_0100690C
//  #06 //050   ----------------------------------------
 BYTE   PATT
  POIN2 Label_0100693F
//  #06 //051   ----------------------------------------
 BYTE   PATT
  POIN2 Label_01006972
//  #06 //052   ----------------------------------------
 BYTE   PATT
  POIN2 Label_010068D9
//  #06 //053   ----------------------------------------
 BYTE   PATT
  POIN2 Label_0100690C
//  #06 //054   ----------------------------------------
 BYTE   PATT
  POIN2 Label_0100693F
//  #06 //055   ----------------------------------------
 BYTE   PATT
  POIN2 Label_01006972
//  #06 //056   ----------------------------------------
 BYTE   W96
//  #06 //057   ----------------------------------------
 BYTE   W48
Label_010069E3:
 BYTE   N06  Gn2  v100
 BYTE   N06  As2
 BYTE   N06  Dn3  v127
 BYTE   W18
 BYTE   Gn2  v100
 BYTE   N06  As2
 BYTE   N06  Dn3  v127
 BYTE   W06
 BYTE   Gn2  v100
 BYTE   N06  As2
 BYTE   N06  Dn3  v127
 BYTE   W12
 BYTE   Gn2  v100
 BYTE   N06  As2
 BYTE   N06  Dn3  v127
 BYTE   W12
//  #06 //058   ----------------------------------------
 BYTE   Gn2  v100
 BYTE   N06  As2
 BYTE   N06  Dn3  v127
 BYTE   W12
 BYTE   Gn2  v100
 BYTE   N06  As2
 BYTE   N06  Dn3  v127
 BYTE   W12
 BYTE   Gn2  v100
 BYTE   N06  Bn2
 BYTE   N06  Ds3  v127
 BYTE   W12
 BYTE   Gn2  v100
 BYTE   N06  Bn2
 BYTE   N06  Ds3  v127
 BYTE   W06
 BYTE   Gn2  v100
 BYTE   N06  Bn2
 BYTE   N06  Ds3  v127
 BYTE   W06
 BYTE   Gn2  v100
 BYTE   N06  Bn2
 BYTE   N06  Ds3  v127
 BYTE   W12
 BYTE   Gn2  v100
 BYTE   N06  Bn2
 BYTE   N06  Ds3  v127
 BYTE   W12
 BYTE   Gn2  v100
 BYTE   N06  Bn2
 BYTE   N06  Ds3  v127
 BYTE   W12
 BYTE   Gn2  v100
 BYTE   N06  Bn2
 BYTE   N06  Ds3  v127
 BYTE   W12
 BYTE   PEND 
//  #06 //059   ----------------------------------------
 BYTE   Gn2  v100
 BYTE   N06  Cn3
 BYTE   N06  En3  v127
 BYTE   W12
 BYTE   Gn2  v100
 BYTE   N06  Cn3
 BYTE   N06  En3  v127
 BYTE   W12
 BYTE   Gn2  v100
 BYTE   N06  Cn3
 BYTE   N06  En3  v127
 BYTE   W12
 BYTE   Gn2  v100
 BYTE   N06  Cn3
 BYTE   N06  En3  v127
 BYTE   W12
 BYTE   Gn2  v100
 BYTE   N06  Cn3
 BYTE   N06  En3  v127
 BYTE   W12
 BYTE   Gn2  v100
 BYTE   N06  Cn3
 BYTE   N06  En3  v127
 BYTE   W12
 BYTE   Gs2  v100
 BYTE   N06  Cs3
 BYTE   N06  Fn3  v127
 BYTE   W18
 BYTE   Gs2  v100
 BYTE   N06  Cs3
 BYTE   N06  Fn3  v127
 BYTE   W06
//  #06 //060   ----------------------------------------
 BYTE   Gs2  v100
 BYTE   N06  Cs3
 BYTE   N06  Fn3  v127
 BYTE   W12
 BYTE   Gs2  v100
 BYTE   N06  Cs3
 BYTE   N06  Fn3  v127
 BYTE   W12
 BYTE   Gs2  v100
 BYTE   N06  Cs3
 BYTE   N06  Fn3  v127
 BYTE   W12
 BYTE   Gs2  v100
 BYTE   N06  Cs3
 BYTE   N06  Fn3  v127
 BYTE   W12
 BYTE   An2  v100
 BYTE   N06  Cs3
 BYTE   N06  En3  v127
 BYTE   W18
 BYTE   An2  v100
 BYTE   N06  Cs3
 BYTE   N06  En3  v127
 BYTE   W06
 BYTE   An2  v100
 BYTE   N06  Cs3
 BYTE   N06  En3  v127
 BYTE   W12
 BYTE   An2  v100
 BYTE   N06  Cs3
 BYTE   N06  En3  v127
 BYTE   W12
//  #06 //061   ----------------------------------------
 BYTE   An2  v100
 BYTE   N06  Cs3
 BYTE   N06  En3  v127
 BYTE   W12
 BYTE   An2  v100
 BYTE   N06  Cs3
 BYTE   N06  En3  v127
 BYTE   W12
 BYTE   As2  v100
 BYTE   N06  Dn3
 BYTE   N06  Fn3  v127
 BYTE   W12
 BYTE   As2  v100
 BYTE   N06  Dn3
 BYTE   N06  Fn3  v127
 BYTE   W06
 BYTE   As2  v100
 BYTE   N06  Dn3
 BYTE   N06  Fn3  v127
 BYTE   W06
 BYTE   As2  v100
 BYTE   N06  Dn3
 BYTE   N06  Fn3  v127
 BYTE   W12
 BYTE   As2  v100
 BYTE   N06  Dn3
 BYTE   N06  Fn3  v127
 BYTE   W12
 BYTE   As2  v100
 BYTE   N06  Dn3
 BYTE   N06  Fn3  v127
 BYTE   W12
 BYTE   As2  v100
 BYTE   N06  Dn3
 BYTE   N06  Fn3  v127
 BYTE   W12
//  #06 //062   ----------------------------------------
 BYTE   PATT
  POIN2 Label_010065A5
//  #06 //063   ----------------------------------------
 BYTE   GoTo
  POIN2 Label_01006607
//  #06 //064   ----------------------------------------
 BYTE   PATT
  POIN2 Label_01006607
//  #06 //065   ----------------------------------------
 BYTE   PATT
  POIN2 Label_01006607
//  #06 //066   ----------------------------------------
 BYTE   PATT
  POIN2 Label_01006627
//  #06 //067   ----------------------------------------
 BYTE   PATT
  POIN2 Label_01006642
//  #06 //068   ----------------------------------------
 BYTE   PATT
  POIN2 Label_01006607
//  #06 //069   ----------------------------------------
 BYTE   PATT
  POIN2 Label_01006607
//  #06 //070   ----------------------------------------
 BYTE   PATT
  POIN2 Label_01006667
//  #06 //071   ----------------------------------------
 BYTE   PATT
  POIN2 Label_01006682
//  #06 //072   ----------------------------------------
 BYTE   PATT
  POIN2 Label_01006607
//  #06 //073   ----------------------------------------
 BYTE   PATT
  POIN2 Label_01006607
//  #06 //074   ----------------------------------------
 BYTE   PATT
  POIN2 Label_01006627
//  #06 //075   ----------------------------------------
 BYTE   PATT
  POIN2 Label_01006642
//  #06 //076   ----------------------------------------
 BYTE   PATT
  POIN2 Label_01006607
//  #06 //077   ----------------------------------------
 BYTE   PATT
  POIN2 Label_01006607
//  #06 //078   ----------------------------------------
 BYTE   PATT
  POIN2 Label_01006667
//  #06 //079   ----------------------------------------
 BYTE   PATT
  POIN2 Label_010066C0
//  #06 //080   ----------------------------------------
 BYTE   PATT
  POIN2 Label_010066DB
//  #06 //081   ----------------------------------------
 BYTE   PATT
  POIN2 Label_0100670E
//  #06 //082   ----------------------------------------
 BYTE   PATT
  POIN2 Label_01006741
//  #06 //083   ----------------------------------------
 BYTE   PATT
  POIN2 Label_01006774
//  #06 //084   ----------------------------------------
 BYTE   PATT
  POIN2 Label_010067A7
//  #06 //085   ----------------------------------------
 BYTE   PATT
  POIN2 Label_010067DA
//  #06 //086   ----------------------------------------
 BYTE   PATT
  POIN2 Label_0100680D
//  #06 //087   ----------------------------------------
 BYTE   PATT
  POIN2 Label_01006840
//  #06 //088   ----------------------------------------
 BYTE   PATT
  POIN2 Label_01006873
//  #06 //089   ----------------------------------------
 BYTE   PATT
  POIN2 Label_010068A6
//  #06 //090   ----------------------------------------
 BYTE   PATT
  POIN2 Label_010068D9
//  #06 //091   ----------------------------------------
 BYTE   PATT
  POIN2 Label_0100690C
//  #06 //092   ----------------------------------------
 BYTE   PATT
  POIN2 Label_0100693F
//  #06 //093   ----------------------------------------
 BYTE   PATT
  POIN2 Label_01006972
//  #06 //094   ----------------------------------------
 BYTE   PATT
  POIN2 Label_010068D9
//  #06 //095   ----------------------------------------
 BYTE   PATT
  POIN2 Label_0100690C
//  #06 //096   ----------------------------------------
 BYTE   PATT
  POIN2 Label_0100693F
//  #06 //097   ----------------------------------------
 BYTE   PATT
  POIN2 Label_01006972
//  #06 //098   ----------------------------------------
 BYTE   PATT
  POIN2 Label_010068D9
//  #06 //099   ----------------------------------------
 BYTE   PATT
  POIN2 Label_0100690C
//  #06 //100   ----------------------------------------
 BYTE   PATT
  POIN2 Label_0100693F
//  #06 //101   ----------------------------------------
 BYTE   PATT
  POIN2 Label_01006972
//  #06 //102   ----------------------------------------
 BYTE   PATT
  POIN2 Label_010068D9
//  #06 //103   ----------------------------------------
 BYTE   PATT
  POIN2 Label_0100690C
//  #06 //104   ----------------------------------------
 BYTE   PATT
  POIN2 Label_0100693F
//  #06 //105   ----------------------------------------
 BYTE   PATT
  POIN2 Label_01006972
//  #06 //106   ----------------------------------------
 BYTE   W96
//  #06 //107   ----------------------------------------
 BYTE   W48
//  #06 //108   ----------------------------------------
 BYTE   PATT
  POIN2 Label_010069E3
//  #06 //109   ----------------------------------------
 BYTE   N06  Gn2  v100
 BYTE   N06  Cn3
 BYTE   N06  En3  v127
 BYTE   W12
 BYTE   Gn2  v100
 BYTE   N06  Cn3
 BYTE   N06  En3  v127
 BYTE   W12
 BYTE   Gn2  v100
 BYTE   N06  Cn3
 BYTE   N06  En3  v127
 BYTE   W12
 BYTE   Gn2  v100
 BYTE   N06  Cn3
 BYTE   N06  En3  v127
 BYTE   W12
 BYTE   Gn2  v100
 BYTE   N06  Cn3
 BYTE   N06  En3  v127
 BYTE   W12
 BYTE   Gn2  v100
 BYTE   N06  Cn3
 BYTE   N06  En3  v127
 BYTE   W12
 BYTE   Gs2  v100
 BYTE   N06  Cs3
 BYTE   N06  Fn3  v127
 BYTE   W18
 BYTE   Gs2  v100
 BYTE   N06  Cs3
 BYTE   N06  Fn3  v127
 BYTE   W06
//  #06 //110   ----------------------------------------
 BYTE   Gs2  v100
 BYTE   N06  Cs3
 BYTE   N06  Fn3  v127
 BYTE   W12
 BYTE   Gs2  v100
 BYTE   N06  Cs3
 BYTE   N06  Fn3  v127
 BYTE   W12
 BYTE   Gs2  v100
 BYTE   N06  Cs3
 BYTE   N06  Fn3  v127
 BYTE   W12
 BYTE   Gs2  v100
 BYTE   N06  Cs3
 BYTE   N06  Fn3  v127
 BYTE   W06
 BYTE   FINE

//**************** Track 7 (Midi-Chn.6) ****************//

BattleForStormHill_007:
//  #07 //000   ----------------------------------------
 BYTE   KEYSH   BattleForStormHill_key+0
 BYTE   VOICE   61
 BYTE   VOL   23*BattleForStormHill_mvl/mxv
 BYTE   PAN   c_v+4
 BYTE   W96
//  #07 //001   ----------------------------------------
 BYTE   W48
 BYTE   W96
//  #07 //002   ----------------------------------------
 BYTE   W48
Label_01006C78:
 BYTE   W96
//  #07 //003   ----------------------------------------
 BYTE   W48
 BYTE   W96
//  #07 //004   ----------------------------------------
 BYTE   W48
 BYTE   W96
//  #07 //005   ----------------------------------------
 BYTE   W48
 BYTE   W96
//  #07 //006   ----------------------------------------
 BYTE   W48
 BYTE   W96
//  #07 //007   ----------------------------------------
 BYTE   W48
 BYTE   W96
//  #07 //008   ----------------------------------------
 BYTE   W48
 BYTE   W96
//  #07 //009   ----------------------------------------
 BYTE   W48
 BYTE   W96
//  #07 //010   ----------------------------------------
 BYTE   W48
 BYTE   W96
//  #07 //011   ----------------------------------------
 BYTE   W48
Label_01006C8A:
 BYTE   W48
//  #07 //012   ----------------------------------------
 BYTE   N06  An2  v100
 BYTE   N06  Dn3
 BYTE   W12
 BYTE   An2
 BYTE   N06  Dn3
 BYTE   W12
 BYTE   N12
 BYTE   N12  Fn3
 BYTE   W12
 BYTE   N06  Fn2
 BYTE   N06  An2
 BYTE   W06
 BYTE   N06
 BYTE   N06  Dn3
 BYTE   W06
 BYTE   N06
 BYTE   N06  Fn3
 BYTE   W12
 BYTE   N12
 BYTE   N12  An3
 BYTE   W12
 BYTE   Dn3
 BYTE   N12  Fn3
 BYTE   W12
 BYTE   N06  An2
 BYTE   N06  Dn3
 BYTE   W12
 BYTE   PEND 
//  #07 //013   ----------------------------------------
Label_01006CB4:
 BYTE   N72  Ds3  v100
 BYTE   N72  Gn3
 BYTE   W72
 BYTE   N60
 BYTE   N60  As3
 BYTE   W60
//  #07 //014   ----------------------------------------
 BYTE   N12  Ds3
 BYTE   N12  Gn3
 BYTE   W12
 BYTE   PEND 
Label_01006CC4:
 BYTE   N12  Fn3  v100
 BYTE   N12  An3
 BYTE   W36
 BYTE   N06  An2
 BYTE   N06  Dn3
 BYTE   W12
 BYTE   N06
 BYTE   N06  Fn3
 BYTE   W12
 BYTE   N06
 BYTE   N06  An3
 BYTE   W12
 BYTE   N06
 BYTE   N06  Dn4
 BYTE   W12
//  #07 //015   ----------------------------------------
 BYTE   N06
 BYTE   W12
 BYTE   Fn4
 BYTE   W12
 BYTE   An4
 BYTE   W12
 BYTE   Fn4
 BYTE   W12
 BYTE   Gn4
 BYTE   W12
 BYTE   PEND 
Label_01006CE6:
 BYTE   N48  An4  v100
 BYTE   W60
//  #07 //016   ----------------------------------------
 BYTE   N12  As4
 BYTE   W12
 BYTE   N48  Cn5
 BYTE   W60
 BYTE   N12  As4
 BYTE   W12
 BYTE   PEND 
Label_01006CF4:
 BYTE   N06  An4  v100
 BYTE   W12
//  #07 //017   ----------------------------------------
 BYTE   Fn4
 BYTE   W12
 BYTE   An4
 BYTE   W12
 BYTE   N24  Dn5
 BYTE   W24
 BYTE   N06  Gn4
 BYTE   N06  Cn5
 BYTE   W12
 BYTE   Fn4
 BYTE   N06  An4
 BYTE   W12
 BYTE   N06
 BYTE   N06  Dn5
 BYTE   W06
 BYTE   Gn4
 BYTE   N06  Cn5
 BYTE   W06
 BYTE   Fn4
 BYTE   N06  An4
 BYTE   W12
//  #07 //018   ----------------------------------------
 BYTE   Dn4
 BYTE   N06  Fn4
 BYTE   W12
 BYTE   N06
 BYTE   N06  An4
 BYTE   W06
 BYTE   Dn4
 BYTE   N06  Fn4
 BYTE   W06
 BYTE   An3
 BYTE   N06  Dn4
 BYTE   W12
 BYTE   PEND 
Label_01006D25:
 BYTE   N36  Ds3  v100
 BYTE   N36  Gn3
 BYTE   W36
 BYTE   N36
 BYTE   N36  As3
 BYTE   W36
//  #07 //019   ----------------------------------------
 BYTE   N60  Fn3
 BYTE   N60  An3
 BYTE   W60
 BYTE   N06
 BYTE   N06  Cn4
 BYTE   W12
 BYTE   PEND 
Label_01006D39:
 BYTE   N06  Gn3  v100
 BYTE   N06  As3
 BYTE   W12
 BYTE   An3
 BYTE   N06  Cn4
 BYTE   W12
//  #07 //020   ----------------------------------------
 BYTE   As3
 BYTE   N12  Dn4
 BYTE   W12
 BYTE   N24
 BYTE   N24  Gn4
 BYTE   W24
 BYTE   N06  As3
 BYTE   N06  Dn4
 BYTE   W06
 BYTE   Gn3
 BYTE   N06  As3
 BYTE   W06
 BYTE   N12
 BYTE   N12  Dn4
 BYTE   W12
 BYTE   N12
 BYTE   N12  Gn4
 BYTE   W12
 BYTE   Gn3
 BYTE   N12  As3
 BYTE   W12
 BYTE   Gn3
 BYTE   N12  Dn4
 BYTE   W36
 BYTE   PEND 
//  #07 //021   ----------------------------------------
 BYTE   W96
//  #07 //022   ----------------------------------------
 BYTE   W48
 BYTE   W96
//  #07 //023   ----------------------------------------
 BYTE   W48
 BYTE   W96
//  #07 //024   ----------------------------------------
 BYTE   W48
 BYTE   W96
//  #07 //025   ----------------------------------------
 BYTE   W48
 BYTE   W96
//  #07 //026   ----------------------------------------
 BYTE   W48
 BYTE   W96
//  #07 //027   ----------------------------------------
 BYTE   W48
 BYTE   W96
//  #07 //028   ----------------------------------------
 BYTE   W48
Label_01006D73:
 BYTE   W72
//  #07 //029   ----------------------------------------
 BYTE   N24  Dn2  v127
 BYTE   W24
 BYTE   Gn2
 BYTE   W24
 BYTE   An2
 BYTE   W24
 BYTE   PEND 
Label_01006D7D:
 BYTE   N36  As2  v127
 BYTE   W36
//  #07 //030   ----------------------------------------
 BYTE   Gn2
 BYTE   W36
 BYTE   Fn2
 BYTE   W36
 BYTE   N12  Cn2
 BYTE   W12
 BYTE   Fn2
 BYTE   W12
//  #07 //031   ----------------------------------------
 BYTE   Gn2
 BYTE   W12
 BYTE   PEND 
Label_01006D8D:
 BYTE   N36  An2  v127
 BYTE   W36
 BYTE   Dn3
 BYTE   W36
 BYTE   Fs3
 BYTE   W36
//  #07 //032   ----------------------------------------
 BYTE   An3
 BYTE   W36
 BYTE   PEND 
 BYTE   W96
//  #07 //033   ----------------------------------------
 BYTE   W48
 BYTE   W96
//  #07 //034   ----------------------------------------
 BYTE   W48
 BYTE   W96
//  #07 //035   ----------------------------------------
 BYTE   W48
 BYTE   W96
//  #07 //036   ----------------------------------------
 BYTE   W48
 BYTE   W96
//  #07 //037   ----------------------------------------
 BYTE   W48
 BYTE   W96
//  #07 //038   ----------------------------------------
 BYTE   W48
 BYTE   W96
//  #07 //039   ----------------------------------------
 BYTE   W48
 BYTE   W96
//  #07 //040   ----------------------------------------
 BYTE   W48
 BYTE   W96
//  #07 //041   ----------------------------------------
 BYTE   W48
 BYTE   W96
//  #07 //042   ----------------------------------------
 BYTE   W48
 BYTE   W96
//  #07 //043   ----------------------------------------
 BYTE   W48
 BYTE   W96
//  #07 //044   ----------------------------------------
 BYTE   W48
 BYTE   W96
//  #07 //045   ----------------------------------------
 BYTE   W48
 BYTE   W96
//  #07 //046   ----------------------------------------
 BYTE   W48
 BYTE   W96
//  #07 //047   ----------------------------------------
 BYTE   W48
 BYTE   W96
//  #07 //048   ----------------------------------------
 BYTE   W48
 BYTE   W96
//  #07 //049   ----------------------------------------
 BYTE   W48
 BYTE   W96
//  #07 //050   ----------------------------------------
 BYTE   W48
 BYTE   W96
//  #07 //051   ----------------------------------------
 BYTE   W48
 BYTE   W96
//  #07 //052   ----------------------------------------
 BYTE   W48
 BYTE   W96
//  #07 //053   ----------------------------------------
 BYTE   W48
 BYTE   GoTo
  POIN2 Label_01006C78
//  #07 //054   ----------------------------------------
 BYTE   W96
//  #07 //055   ----------------------------------------
 BYTE   W48
 BYTE   W96
//  #07 //056   ----------------------------------------
 BYTE   W48
 BYTE   W96
//  #07 //057   ----------------------------------------
 BYTE   W48
 BYTE   W96
//  #07 //058   ----------------------------------------
 BYTE   W48
 BYTE   W96
//  #07 //059   ----------------------------------------
 BYTE   W48
 BYTE   W96
//  #07 //060   ----------------------------------------
 BYTE   W48
 BYTE   W96
//  #07 //061   ----------------------------------------
 BYTE   W48
 BYTE   W96
//  #07 //062   ----------------------------------------
 BYTE   W48
 BYTE   W96
//  #07 //063   ----------------------------------------
 BYTE   W48
//  #07 //064   ----------------------------------------
 BYTE   PATT
  POIN2 Label_01006C8A
//  #07 //065   ----------------------------------------
 BYTE   PATT
  POIN2 Label_01006CB4
//  #07 //066   ----------------------------------------
 BYTE   PATT
  POIN2 Label_01006CC4
//  #07 //067   ----------------------------------------
 BYTE   PATT
  POIN2 Label_01006CE6
//  #07 //068   ----------------------------------------
 BYTE   PATT
  POIN2 Label_01006CF4
//  #07 //069   ----------------------------------------
 BYTE   PATT
  POIN2 Label_01006D25
//  #07 //070   ----------------------------------------
 BYTE   PATT
  POIN2 Label_01006D39
//  #07 //071   ----------------------------------------
 BYTE   W96
//  #07 //072   ----------------------------------------
 BYTE   W48
 BYTE   W96
//  #07 //073   ----------------------------------------
 BYTE   W48
 BYTE   W96
//  #07 //074   ----------------------------------------
 BYTE   W48
 BYTE   W96
//  #07 //075   ----------------------------------------
 BYTE   W48
 BYTE   W96
//  #07 //076   ----------------------------------------
 BYTE   W48
 BYTE   W96
//  #07 //077   ----------------------------------------
 BYTE   W48
 BYTE   W96
//  #07 //078   ----------------------------------------
 BYTE   W48
//  #07 //079   ----------------------------------------
 BYTE   PATT
  POIN2 Label_01006D73
//  #07 //080   ----------------------------------------
 BYTE   PATT
  POIN2 Label_01006D7D
//  #07 //081   ----------------------------------------
 BYTE   PATT
  POIN2 Label_01006D8D
//  #07 //082   ----------------------------------------
 BYTE   W96
//  #07 //083   ----------------------------------------
 BYTE   W48
 BYTE   W96
//  #07 //084   ----------------------------------------
 BYTE   W48
 BYTE   W96
//  #07 //085   ----------------------------------------
 BYTE   W48
 BYTE   W96
//  #07 //086   ----------------------------------------
 BYTE   W48
 BYTE   W96
//  #07 //087   ----------------------------------------
 BYTE   W48
 BYTE   W96
//  #07 //088   ----------------------------------------
 BYTE   W48
 BYTE   W96
//  #07 //089   ----------------------------------------
 BYTE   W48
 BYTE   W96
//  #07 //090   ----------------------------------------
 BYTE   W48
 BYTE   W96
//  #07 //091   ----------------------------------------
 BYTE   W48
 BYTE   W96
//  #07 //092   ----------------------------------------
 BYTE   W48
 BYTE   W96
//  #07 //093   ----------------------------------------
 BYTE   W48
 BYTE   W96
//  #07 //094   ----------------------------------------
 BYTE   W48
 BYTE   W96
//  #07 //095   ----------------------------------------
 BYTE   W48
 BYTE   W96
//  #07 //096   ----------------------------------------
 BYTE   W48
 BYTE   W96
//  #07 //097   ----------------------------------------
 BYTE   W48
 BYTE   W96
//  #07 //098   ----------------------------------------
 BYTE   W48
 BYTE   W96
//  #07 //099   ----------------------------------------
 BYTE   W48
 BYTE   W96
//  #07 //100   ----------------------------------------
 BYTE   W48
 BYTE   W96
//  #07 //101   ----------------------------------------
 BYTE   W42
 BYTE   FINE

//**************** Track 8 (Midi-Chn.7) ****************//

BattleForStormHill_008:
//  #08 //000   ----------------------------------------
 BYTE   KEYSH   BattleForStormHill_key+0
 BYTE   VOICE   73
 BYTE   VOL   29*BattleForStormHill_mvl/mxv
 BYTE   PAN   c_v-16
 BYTE   W96
//  #08 //001   ----------------------------------------
 BYTE   W48
 BYTE   W96
//  #08 //002   ----------------------------------------
 BYTE   W48
Label_01006E5C:
 BYTE   W96
//  #08 //003   ----------------------------------------
 BYTE   W48
 BYTE   W96
//  #08 //004   ----------------------------------------
 BYTE   W48
 BYTE   W96
//  #08 //005   ----------------------------------------
 BYTE   W48
 BYTE   W96
//  #08 //006   ----------------------------------------
 BYTE   W48
 BYTE   W96
//  #08 //007   ----------------------------------------
 BYTE   W48
 BYTE   W96
//  #08 //008   ----------------------------------------
 BYTE   W48
 BYTE   W96
//  #08 //009   ----------------------------------------
 BYTE   W48
 BYTE   W96
//  #08 //010   ----------------------------------------
 BYTE   W48
 BYTE   W96
//  #08 //011   ----------------------------------------
 BYTE   W48
 BYTE   W96
//  #08 //012   ----------------------------------------
 BYTE   W48
 BYTE   W96
//  #08 //013   ----------------------------------------
 BYTE   W48
 BYTE   W96
//  #08 //014   ----------------------------------------
 BYTE   W48
 BYTE   W96
//  #08 //015   ----------------------------------------
 BYTE   W48
 BYTE   W96
//  #08 //016   ----------------------------------------
 BYTE   W48
 BYTE   W96
//  #08 //017   ----------------------------------------
 BYTE   W48
Label_01006E7A:
 BYTE   W72
//  #08 //018   ----------------------------------------
 BYTE   VOL   29*BattleForStormHill_mvl/mxv
 BYTE   N12  Dn4  v127
 BYTE   W12
 BYTE   Gn4
 BYTE   W12
 BYTE   An4
 BYTE   W12
 BYTE   As4
 BYTE   W12
 BYTE   Cn5
 BYTE   W12
 BYTE   Dn5
 BYTE   W12
 BYTE   PEND 
Label_01006E8C:
 BYTE   N84  Ds5  v127
 BYTE   W84
//  #08 //019   ----------------------------------------
 BYTE   N12  Dn5
 BYTE   W12
 BYTE   Cn5
 BYTE   W12
 BYTE   As4
 BYTE   W12
 BYTE   An4
 BYTE   W12
 BYTE   Gn4
 BYTE   W12
 BYTE   PEND 
Label_01006E9C:
 BYTE   N72  Fn4  v127
 BYTE   W84
//  #08 //020   ----------------------------------------
 BYTE   N12
 BYTE   W12
 BYTE   Gn4
 BYTE   W12
 BYTE   An4
 BYTE   W12
 BYTE   As4
 BYTE   W12
 BYTE   Cn5
 BYTE   W12
 BYTE   PEND 
Label_01006EAB:
 BYTE   TIE  Dn5  v127
 BYTE   W96
//  #08 //021   ----------------------------------------
 BYTE   W12
 BYTE   PEND 
 BYTE   EOT
 BYTE   N12  Cn5
 BYTE   W12
 BYTE   Dn5
 BYTE   W12
 BYTE   Cn5
 BYTE   W12
Label_01006EB9:
 BYTE   N72  As4  v127
 BYTE   W72
//  #08 //022   ----------------------------------------
 BYTE   N12  Dn4
 BYTE   W36
 BYTE   N36  Dn5
 BYTE   W36
 BYTE   PEND 
Label_01006EC4:
 BYTE   N84  Cn5  v127
 BYTE   W84
//  #08 //023   ----------------------------------------
 BYTE   N12  Dn5
 BYTE   W12
 BYTE   Ds5
 BYTE   W12
 BYTE   Fn5
 BYTE   W12
 BYTE   Ds5
 BYTE   W12
 BYTE   Dn5
 BYTE   W12
 BYTE   PEND 
Label_01006ED4:
 BYTE   N72  Cn5  v127
 BYTE   W72
//  #08 //024   ----------------------------------------
 BYTE   N12  Ds5
 BYTE   W24
 BYTE   Dn5
 BYTE   W24
 BYTE   Cn5
 BYTE   W24
 BYTE   PEND 
Label_01006EE0:
 BYTE   TIE  Dn5  v127
 BYTE   W96
//  #08 //025   ----------------------------------------
 BYTE   W48
 BYTE   PEND 
Label_01006EE6:
 BYTE   VOL   29*BattleForStormHill_mvl/mxv
 BYTE   W01
 BYTE   VOL   28*BattleForStormHill_mvl/mxv
 BYTE   W01
 BYTE   VOL   28*BattleForStormHill_mvl/mxv
 BYTE   W01
 BYTE   VOL   27*BattleForStormHill_mvl/mxv
 BYTE   W01
 BYTE   VOL   27*BattleForStormHill_mvl/mxv
 BYTE   W01
 BYTE   VOL   26*BattleForStormHill_mvl/mxv
 BYTE   W01
 BYTE   VOL   26*BattleForStormHill_mvl/mxv
 BYTE   W01
 BYTE   VOL   25*BattleForStormHill_mvl/mxv
 BYTE   W02
 BYTE   VOL   25*BattleForStormHill_mvl/mxv
 BYTE   W01
 BYTE   VOL   25*BattleForStormHill_mvl/mxv
 BYTE   W01
 BYTE   VOL   24*BattleForStormHill_mvl/mxv
 BYTE   W01
 BYTE   VOL   24*BattleForStormHill_mvl/mxv
 BYTE   W01
 BYTE   VOL   23*BattleForStormHill_mvl/mxv
 BYTE   W01
 BYTE   VOL   23*BattleForStormHill_mvl/mxv
 BYTE   W01
 BYTE   VOL   22*BattleForStormHill_mvl/mxv
 BYTE   W02
 BYTE   VOL   22*BattleForStormHill_mvl/mxv
 BYTE   W01
 BYTE   VOL   21*BattleForStormHill_mvl/mxv
 BYTE   W01
 BYTE   VOL   21*BattleForStormHill_mvl/mxv
 BYTE   W01
 BYTE   VOL   21*BattleForStormHill_mvl/mxv
 BYTE   W01
 BYTE   VOL   20*BattleForStormHill_mvl/mxv
 BYTE   W01
 BYTE   VOL   20*BattleForStormHill_mvl/mxv
 BYTE   W01
 BYTE   VOL   19*BattleForStormHill_mvl/mxv
 BYTE   W01
 BYTE   VOL   19*BattleForStormHill_mvl/mxv
 BYTE   W02
 BYTE   VOL   18*BattleForStormHill_mvl/mxv
 BYTE   W01
 BYTE   VOL   18*BattleForStormHill_mvl/mxv
 BYTE   W01
 BYTE   VOL   17*BattleForStormHill_mvl/mxv
 BYTE   W01
 BYTE   VOL   17*BattleForStormHill_mvl/mxv
 BYTE   W01
 BYTE   VOL   17*BattleForStormHill_mvl/mxv
 BYTE   W01
 BYTE   VOL   16*BattleForStormHill_mvl/mxv
 BYTE   W01
 BYTE   VOL   16*BattleForStormHill_mvl/mxv
 BYTE   W02
 BYTE   VOL   15*BattleForStormHill_mvl/mxv
 BYTE   W01
 BYTE   VOL   15*BattleForStormHill_mvl/mxv
 BYTE   W01
 BYTE   VOL   14*BattleForStormHill_mvl/mxv
 BYTE   W01
 BYTE   VOL   14*BattleForStormHill_mvl/mxv
 BYTE   W01
 BYTE   VOL   14*BattleForStormHill_mvl/mxv
 BYTE   W01
 BYTE   VOL   13*BattleForStormHill_mvl/mxv
 BYTE   W01
 BYTE   VOL   13*BattleForStormHill_mvl/mxv
 BYTE   W01
 BYTE   VOL   12*BattleForStormHill_mvl/mxv
 BYTE   W02
 BYTE   VOL   12*BattleForStormHill_mvl/mxv
 BYTE   W01
 BYTE   VOL   11*BattleForStormHill_mvl/mxv
 BYTE   W01
 BYTE   VOL   11*BattleForStormHill_mvl/mxv
 BYTE   W01
 BYTE   VOL   10*BattleForStormHill_mvl/mxv
 BYTE   W01
 BYTE   VOL   10*BattleForStormHill_mvl/mxv
 BYTE   W01
//  #08 //026   ----------------------------------------
 BYTE   VOL   10*BattleForStormHill_mvl/mxv
 BYTE   W01
 BYTE   VOL   9*BattleForStormHill_mvl/mxv
 BYTE   W02
 BYTE   VOL   9*BattleForStormHill_mvl/mxv
 BYTE   W01
 BYTE   VOL   8*BattleForStormHill_mvl/mxv
 BYTE   W01
 BYTE   VOL   8*BattleForStormHill_mvl/mxv
 BYTE   W01
 BYTE   VOL   7*BattleForStormHill_mvl/mxv
 BYTE   W01
 BYTE   VOL   7*BattleForStormHill_mvl/mxv
 BYTE   W01
 BYTE   VOL   6*BattleForStormHill_mvl/mxv
 BYTE   W01
 BYTE   VOL   6*BattleForStormHill_mvl/mxv
 BYTE   W01
 BYTE   VOL   6*BattleForStormHill_mvl/mxv
 BYTE   W02
 BYTE   VOL   5*BattleForStormHill_mvl/mxv
 BYTE   W01
 BYTE   VOL   5*BattleForStormHill_mvl/mxv
 BYTE   W01
 BYTE   VOL   4*BattleForStormHill_mvl/mxv
 BYTE   W01
 BYTE   VOL   4*BattleForStormHill_mvl/mxv
 BYTE   W01
 BYTE   VOL   4*BattleForStormHill_mvl/mxv
 BYTE   W01
 BYTE   VOL   4*BattleForStormHill_mvl/mxv
 BYTE   W01
 BYTE   VOL   4*BattleForStormHill_mvl/mxv
 BYTE   W02
 BYTE   VOL   4*BattleForStormHill_mvl/mxv
 BYTE   W01
 BYTE   VOL   4*BattleForStormHill_mvl/mxv
 BYTE   W01
 BYTE   VOL   4*BattleForStormHill_mvl/mxv
 BYTE   W01
 BYTE   VOL   4*BattleForStormHill_mvl/mxv
 BYTE   W01
 BYTE   VOL   4*BattleForStormHill_mvl/mxv
 BYTE   W01
 BYTE   VOL   4*BattleForStormHill_mvl/mxv
 BYTE   W01
 BYTE   VOL   4*BattleForStormHill_mvl/mxv
 BYTE   W01
 BYTE   VOL   4*BattleForStormHill_mvl/mxv
 BYTE   W02
 BYTE   VOL   4*BattleForStormHill_mvl/mxv
 BYTE   W01
 BYTE   VOL   4*BattleForStormHill_mvl/mxv
 BYTE   W01
 BYTE   VOL   4*BattleForStormHill_mvl/mxv
 BYTE   W01
 BYTE   VOL   4*BattleForStormHill_mvl/mxv
 BYTE   W01
 BYTE   VOL   4*BattleForStormHill_mvl/mxv
 BYTE   W01
 BYTE   VOL   4*BattleForStormHill_mvl/mxv
 BYTE   W01
 BYTE   VOL   4*BattleForStormHill_mvl/mxv
 BYTE   W02
 BYTE   VOL   4*BattleForStormHill_mvl/mxv
 BYTE   W01
 BYTE   VOL   4*BattleForStormHill_mvl/mxv
 BYTE   W01
 BYTE   VOL   4*BattleForStormHill_mvl/mxv
 BYTE   W01
 BYTE   VOL   4*BattleForStormHill_mvl/mxv
 BYTE   W01
 BYTE   VOL   4*BattleForStormHill_mvl/mxv
 BYTE   W01
 BYTE   VOL   4*BattleForStormHill_mvl/mxv
 BYTE   W01
 BYTE   VOL   4*BattleForStormHill_mvl/mxv
 BYTE   W01
 BYTE   VOL   4*BattleForStormHill_mvl/mxv
 BYTE   W02
 BYTE   VOL   4*BattleForStormHill_mvl/mxv
 BYTE   W01
 BYTE   VOL   4*BattleForStormHill_mvl/mxv
 BYTE   W01
 BYTE   VOL   4*BattleForStormHill_mvl/mxv
 BYTE   W01
 BYTE   VOL   4*BattleForStormHill_mvl/mxv
 BYTE   W01
 BYTE   VOL   4*BattleForStormHill_mvl/mxv
 BYTE   W01
 BYTE   VOL   4*BattleForStormHill_mvl/mxv
 BYTE   W01
 BYTE   VOL   4*BattleForStormHill_mvl/mxv
 BYTE   W02
 BYTE   VOL   4*BattleForStormHill_mvl/mxv
 BYTE   W01
 BYTE   VOL   4*BattleForStormHill_mvl/mxv
 BYTE   W01
 BYTE   VOL   4*BattleForStormHill_mvl/mxv
 BYTE   W01
 BYTE   VOL   4*BattleForStormHill_mvl/mxv
 BYTE   W01
 BYTE   VOL   4*BattleForStormHill_mvl/mxv
 BYTE   W01
 BYTE   VOL   4*BattleForStormHill_mvl/mxv
 BYTE   W01
 BYTE   VOL   4*BattleForStormHill_mvl/mxv
 BYTE   W01
 BYTE   VOL   4*BattleForStormHill_mvl/mxv
 BYTE   W02
 BYTE   VOL   4*BattleForStormHill_mvl/mxv
 BYTE   W01
 BYTE   VOL   4*BattleForStormHill_mvl/mxv
 BYTE   W01
 BYTE   VOL   4*BattleForStormHill_mvl/mxv
 BYTE   W01
 BYTE   VOL   4*BattleForStormHill_mvl/mxv
 BYTE   W01
 BYTE   VOL   4*BattleForStormHill_mvl/mxv
 BYTE   W01
 BYTE   VOL   4*BattleForStormHill_mvl/mxv
 BYTE   W01
 BYTE   VOL   4*BattleForStormHill_mvl/mxv
 BYTE   W02
 BYTE   VOL   4*BattleForStormHill_mvl/mxv
 BYTE   W01
 BYTE   VOL   4*BattleForStormHill_mvl/mxv
 BYTE   W01
 BYTE   VOL   4*BattleForStormHill_mvl/mxv
 BYTE   W01
 BYTE   VOL   4*BattleForStormHill_mvl/mxv
 BYTE   W01
 BYTE   VOL   4*BattleForStormHill_mvl/mxv
 BYTE   W01
 BYTE   VOL   4*BattleForStormHill_mvl/mxv
 BYTE   W01
 BYTE   VOL   4*BattleForStormHill_mvl/mxv
 BYTE   W01
 BYTE   VOL   4*BattleForStormHill_mvl/mxv
 BYTE   W02
 BYTE   VOL   4*BattleForStormHill_mvl/mxv
 BYTE   W01
 BYTE   VOL   4*BattleForStormHill_mvl/mxv
 BYTE   W01
 BYTE   VOL   4*BattleForStormHill_mvl/mxv
 BYTE   W01
 BYTE   VOL   4*BattleForStormHill_mvl/mxv
 BYTE   W01
 BYTE   VOL   4*BattleForStormHill_mvl/mxv
 BYTE   W01
 BYTE   VOL   4*BattleForStormHill_mvl/mxv
 BYTE   W01
 BYTE   VOL   4*BattleForStormHill_mvl/mxv
 BYTE   W02
 BYTE   VOL   4*BattleForStormHill_mvl/mxv
 BYTE   W01
 BYTE   VOL   4*BattleForStormHill_mvl/mxv
 BYTE   W01
 BYTE   VOL   4*BattleForStormHill_mvl/mxv
 BYTE   W01
 BYTE   VOL   4*BattleForStormHill_mvl/mxv
 BYTE   W01
 BYTE   VOL   4*BattleForStormHill_mvl/mxv
 BYTE   W01
 BYTE   VOL   4*BattleForStormHill_mvl/mxv
 BYTE   W01
 BYTE   VOL   4*BattleForStormHill_mvl/mxv
 BYTE   W02
 BYTE   PEND 
//  #08 //027   ----------------------------------------
 BYTE   EOT
 BYTE   Dn5
Label_01006FE8:
 BYTE   VOL   4*BattleForStormHill_mvl/mxv
 BYTE   W96
//  #08 //028   ----------------------------------------
 BYTE   W48
 BYTE   PEND 
 BYTE   W96
//  #08 //029   ----------------------------------------
 BYTE   W48
 BYTE   W96
//  #08 //030   ----------------------------------------
 BYTE   W48
 BYTE   W96
//  #08 //031   ----------------------------------------
 BYTE   W48
 BYTE   W96
//  #08 //032   ----------------------------------------
 BYTE   W48
 BYTE   W96
//  #08 //033   ----------------------------------------
 BYTE   W48
 BYTE   W96
//  #08 //034   ----------------------------------------
 BYTE   W48
 BYTE   W96
//  #08 //035   ----------------------------------------
 BYTE   W48
 BYTE   W96
//  #08 //036   ----------------------------------------
 BYTE   W48
 BYTE   W96
//  #08 //037   ----------------------------------------
 BYTE   W48
 BYTE   W96
//  #08 //038   ----------------------------------------
 BYTE   W48
 BYTE   W96
//  #08 //039   ----------------------------------------
 BYTE   W48
 BYTE   W96
//  #08 //040   ----------------------------------------
 BYTE   W48
 BYTE   W96
//  #08 //041   ----------------------------------------
 BYTE   W48
 BYTE   W96
//  #08 //042   ----------------------------------------
 BYTE   W48
 BYTE   W96
//  #08 //043   ----------------------------------------
 BYTE   W48
 BYTE   W96
//  #08 //044   ----------------------------------------
 BYTE   W48
 BYTE   W96
//  #08 //045   ----------------------------------------
 BYTE   W48
 BYTE   W96
//  #08 //046   ----------------------------------------
 BYTE   W48
 BYTE   W96
//  #08 //047   ----------------------------------------
 BYTE   W48
 BYTE   W96
//  #08 //048   ----------------------------------------
 BYTE   W48
 BYTE   W96
//  #08 //049   ----------------------------------------
 BYTE   W48
 BYTE   W96
//  #08 //050   ----------------------------------------
 BYTE   W48
 BYTE   GoTo
  POIN2 Label_01006E5C
//  #08 //051   ----------------------------------------
 BYTE   W96
//  #08 //052   ----------------------------------------
 BYTE   W48
 BYTE   W96
//  #08 //053   ----------------------------------------
 BYTE   W48
 BYTE   W96
//  #08 //054   ----------------------------------------
 BYTE   W48
 BYTE   W96
//  #08 //055   ----------------------------------------
 BYTE   W48
 BYTE   W96
//  #08 //056   ----------------------------------------
 BYTE   W48
 BYTE   W96
//  #08 //057   ----------------------------------------
 BYTE   W48
 BYTE   W96
//  #08 //058   ----------------------------------------
 BYTE   W48
 BYTE   W96
//  #08 //059   ----------------------------------------
 BYTE   W48
 BYTE   W96
//  #08 //060   ----------------------------------------
 BYTE   W48
 BYTE   W96
//  #08 //061   ----------------------------------------
 BYTE   W48
 BYTE   W96
//  #08 //062   ----------------------------------------
 BYTE   W48
 BYTE   W96
//  #08 //063   ----------------------------------------
 BYTE   W48
 BYTE   W96
//  #08 //064   ----------------------------------------
 BYTE   W48
 BYTE   W96
//  #08 //065   ----------------------------------------
 BYTE   W48
 BYTE   W96
//  #08 //066   ----------------------------------------
 BYTE   W48
//  #08 //067   ----------------------------------------
 BYTE   PATT
  POIN2 Label_01006E7A
//  #08 //068   ----------------------------------------
 BYTE   PATT
  POIN2 Label_01006E8C
//  #08 //069   ----------------------------------------
 BYTE   PATT
  POIN2 Label_01006E9C
//  #08 //070   ----------------------------------------
 BYTE   PATT
  POIN2 Label_01006EAB
//  #08 //071   ----------------------------------------
 BYTE   EOT
 BYTE   Dn5
 BYTE   N12  Cn5  v127
 BYTE   W12
 BYTE   Dn5
 BYTE   W12
 BYTE   Cn5
 BYTE   W12
//  #08 //072   ----------------------------------------
 BYTE   PATT
  POIN2 Label_01006EB9
//  #08 //073   ----------------------------------------
 BYTE   PATT
  POIN2 Label_01006EC4
//  #08 //074   ----------------------------------------
 BYTE   PATT
  POIN2 Label_01006ED4
//  #08 //075   ----------------------------------------
 BYTE   PATT
  POIN2 Label_01006EE0
//  #08 //076   ----------------------------------------
 BYTE   PATT
  POIN2 Label_01006EE6
//  #08 //077   ----------------------------------------
 BYTE   EOT
 BYTE   Dn5
//  #08 //078   ----------------------------------------
 BYTE   PATT
  POIN2 Label_01006FE8
//  #08 //079   ----------------------------------------
 BYTE   W96
//  #08 //080   ----------------------------------------
 BYTE   W48
 BYTE   W96
//  #08 //081   ----------------------------------------
 BYTE   W48
 BYTE   W96
//  #08 //082   ----------------------------------------
 BYTE   W48
 BYTE   W96
//  #08 //083   ----------------------------------------
 BYTE   W48
 BYTE   W96
//  #08 //084   ----------------------------------------
 BYTE   W48
 BYTE   W96
//  #08 //085   ----------------------------------------
 BYTE   W48
 BYTE   W96
//  #08 //086   ----------------------------------------
 BYTE   W48
 BYTE   W96
//  #08 //087   ----------------------------------------
 BYTE   W48
 BYTE   W96
//  #08 //088   ----------------------------------------
 BYTE   W48
 BYTE   W96
//  #08 //089   ----------------------------------------
 BYTE   W48
 BYTE   W96
//  #08 //090   ----------------------------------------
 BYTE   W48
 BYTE   W96
//  #08 //091   ----------------------------------------
 BYTE   W48
 BYTE   W96
//  #08 //092   ----------------------------------------
 BYTE   W48
 BYTE   W96
//  #08 //093   ----------------------------------------
 BYTE   W48
 BYTE   W96
//  #08 //094   ----------------------------------------
 BYTE   W48
 BYTE   W96
//  #08 //095   ----------------------------------------
 BYTE   W48
 BYTE   W96
//  #08 //096   ----------------------------------------
 BYTE   W48
 BYTE   W96
//  #08 //097   ----------------------------------------
 BYTE   W48
 BYTE   W96
//  #08 //098   ----------------------------------------
 BYTE   W48
 BYTE   W96
//  #08 //099   ----------------------------------------
 BYTE   W42
 BYTE   FINE

//**************** Track 9 (Midi-Chn.8) ****************//

BattleForStormHill_009:
//  #09 //000   ----------------------------------------
 BYTE   KEYSH   BattleForStormHill_key+0
 BYTE   VOICE   40
 BYTE   VOL   23*BattleForStormHill_mvl/mxv
 BYTE   PAN   c_v+20
 BYTE   N06  An2  v100
 BYTE   N06  Cs3
 BYTE   N06  En3  v127
 BYTE   W18
 BYTE   An2  v100
 BYTE   N06  Cs3
 BYTE   N06  En3  v127
 BYTE   W06
 BYTE   An2  v100
 BYTE   N06  Cs3
 BYTE   N06  En3  v127
 BYTE   W12
 BYTE   An2  v100
 BYTE   N06  Cs3
 BYTE   N06  En3  v127
 BYTE   W12
 BYTE   An2  v100
 BYTE   N06  Cs3
 BYTE   N06  En3  v127
 BYTE   W12
 BYTE   An2  v100
 BYTE   N06  Cs3
 BYTE   N06  En3  v127
 BYTE   W12
 BYTE   As2  v100
 BYTE   N06  Dn3
 BYTE   N06  Fn3  v127
 BYTE   W12
 BYTE   As2  v100
 BYTE   N06  Dn3
 BYTE   N06  Fn3  v127
 BYTE   W06
 BYTE   As2  v100
 BYTE   N06  Dn3
 BYTE   N06  Fn3  v127
 BYTE   W06
//  #09 //001   ----------------------------------------
 BYTE   As2  v100
 BYTE   N06  Dn3
 BYTE   N06  Fn3  v127
 BYTE   W12
 BYTE   As2  v100
 BYTE   N06  Dn3
 BYTE   N06  Fn3  v127
 BYTE   W12
 BYTE   As2  v100
 BYTE   N06  Dn3
 BYTE   N06  Fn3  v127
 BYTE   W12
 BYTE   As2  v100
 BYTE   N06  Dn3
 BYTE   N06  Fn3  v127
 BYTE   W12
Label_01007125:
 BYTE   N06  Cn3  v100
 BYTE   N06  En3
 BYTE   N06  Gn3  v127
 BYTE   W12
 BYTE   Cn3  v100
 BYTE   N06  En3
 BYTE   N06  Gn3  v127
 BYTE   W12
 BYTE   Cn3  v100
 BYTE   N06  En3
 BYTE   N06  Gn3  v127
 BYTE   W12
 BYTE   Cn3  v100
 BYTE   N06  En3
 BYTE   N06  Gn3  v127
 BYTE   W12
//  #09 //002   ----------------------------------------
 BYTE   Cn3  v100
 BYTE   N06  En3
 BYTE   N06  Gn3  v127
 BYTE   W12
 BYTE   Cn3  v100
 BYTE   N06  En3
 BYTE   N06  Gn3  v127
 BYTE   W12
 BYTE   Cs3  v100
 BYTE   N06  En3
 BYTE   N06  An3  v127
 BYTE   W18
 BYTE   Cs3  v100
 BYTE   N06  En3
 BYTE   N06  An3  v127
 BYTE   W06
 BYTE   Cs3  v100
 BYTE   N06  En3
 BYTE   N06  An3  v127
 BYTE   W12
 BYTE   Cs3  v100
 BYTE   N06  En3
 BYTE   N06  An3  v127
 BYTE   W12
 BYTE   Cs3  v100
 BYTE   N06  En3
 BYTE   N06  An3  v127
 BYTE   W12
 BYTE   Cs3  v100
 BYTE   N06  En3
 BYTE   N06  An3  v127
 BYTE   W12
 BYTE   PEND 
//  #09 //003   ----------------------------------------
Label_01007187:
 BYTE   N12  Dn4  v100
 BYTE   W12
 BYTE   An3
 BYTE   W12
 BYTE   Dn3
 BYTE   W12
 BYTE   Dn4
 BYTE   W12
 BYTE   An3
 BYTE   W12
 BYTE   Dn3
 BYTE   W12
 BYTE   Dn4
 BYTE   W12
 BYTE   An3
 BYTE   W12
//  #09 //004   ----------------------------------------
 BYTE   Dn3
 BYTE   W12
 BYTE   An4
 BYTE   W12
 BYTE   Dn4
 BYTE   W12
 BYTE   An3
 BYTE   W12
 BYTE   PEND 
//  #09 //005   ----------------------------------------
 BYTE   PATT
  POIN2 Label_01007187
//  #09 //006   ----------------------------------------
Label_010071A7:
 BYTE   N12  Dn4  v100
 BYTE   W12
 BYTE   Gn3
 BYTE   W12
 BYTE   Dn3
 BYTE   W12
 BYTE   Dn4
 BYTE   W12
 BYTE   Gn3
 BYTE   W12
 BYTE   Dn3
 BYTE   W12
 BYTE   Dn4
 BYTE   W12
 BYTE   Gn3
 BYTE   W12
//  #09 //007   ----------------------------------------
 BYTE   Dn3
 BYTE   W12
 BYTE   Gn4
 BYTE   W12
 BYTE   Dn4
 BYTE   W12
 BYTE   Gn3
 BYTE   W12
 BYTE   PEND 
Label_010071C2:
 BYTE   N12  Dn4  v100
 BYTE   W12
 BYTE   An3
 BYTE   W12
 BYTE   Dn3
 BYTE   W12
 BYTE   Dn4
 BYTE   W12
//  #09 //008   ----------------------------------------
 BYTE   Fn4
 BYTE   W12
 BYTE   An4
 BYTE   W12
 BYTE   Dn5
 BYTE   W12
 BYTE   Dn4
 BYTE   W12
 BYTE   Fn4
 BYTE   W12
 BYTE   An4
 BYTE   W12
 BYTE   Dn4
 BYTE   W12
 BYTE   An3
 BYTE   W12
 BYTE   PEND 
//  #09 //009   ----------------------------------------
 BYTE   PATT
  POIN2 Label_01007187
//  #09 //010   ----------------------------------------
 BYTE   PATT
  POIN2 Label_01007187
//  #09 //011   ----------------------------------------
Label_010071E7:
 BYTE   N12  Dn4  v100
 BYTE   W12
 BYTE   Gn3
 BYTE   W12
 BYTE   Dn3
 BYTE   W12
 BYTE   Dn4
 BYTE   W12
 BYTE   Gn3
 BYTE   W12
 BYTE   Dn3
 BYTE   W12
 BYTE   Fn4
 BYTE   W12
 BYTE   Cn4
 BYTE   W12
//  #09 //012   ----------------------------------------
 BYTE   An3
 BYTE   W12
 BYTE   An4
 BYTE   W12
 BYTE   Fn4
 BYTE   W12
 BYTE   Cn4
 BYTE   W12
 BYTE   PEND 
Label_01007202:
 BYTE   N12  Dn4  v100
 BYTE   W12
 BYTE   Gn3
 BYTE   W12
 BYTE   Dn3
 BYTE   W12
 BYTE   Dn4
 BYTE   W12
//  #09 //013   ----------------------------------------
 BYTE   Gn4
 BYTE   W12
 BYTE   An4
 BYTE   W12
 BYTE   Dn5
 BYTE   W12
 BYTE   Gn4
 BYTE   W12
 BYTE   Dn4
 BYTE   W12
 BYTE   Gn4
 BYTE   W12
 BYTE   Dn4
 BYTE   W12
 BYTE   Gn3
 BYTE   W12
 BYTE   PEND 
//  #09 //014   ----------------------------------------
 BYTE   PATT
  POIN2 Label_01007187
//  #09 //015   ----------------------------------------
 BYTE   PATT
  POIN2 Label_01007187
//  #09 //016   ----------------------------------------
 BYTE   PATT
  POIN2 Label_010071A7
//  #09 //017   ----------------------------------------
 BYTE   PATT
  POIN2 Label_010071C2
//  #09 //018   ----------------------------------------
 BYTE   PATT
  POIN2 Label_01007187
//  #09 //019   ----------------------------------------
 BYTE   PATT
  POIN2 Label_01007187
//  #09 //020   ----------------------------------------
 BYTE   PATT
  POIN2 Label_010071E7
//  #09 //021   ----------------------------------------
Label_01007240:
 BYTE   N12  Dn4  v100
 BYTE   W12
 BYTE   Gn3
 BYTE   W12
 BYTE   Dn3
 BYTE   W12
 BYTE   Dn4
 BYTE   W12
 BYTE   Gn3
 BYTE   W12
 BYTE   Dn3
 BYTE   W12
 BYTE   Dn4
 BYTE   W12
 BYTE   Gn3
 BYTE   W12
//  #09 //022   ----------------------------------------
 BYTE   Dn3
 BYTE   W12
 BYTE   Dn4
 BYTE   W12
 BYTE   Gn3
 BYTE   W12
 BYTE   Dn3
 BYTE   W12
 BYTE   PEND 
Label_0100725B:
 BYTE   N06  Ds3  v100
 BYTE   N06  As3
 BYTE   W12
 BYTE   Ds3
 BYTE   N06  Gn3
 BYTE   W12
 BYTE   Ds3
 BYTE   N06  Gn3
 BYTE   W12
 BYTE   Ds3
 BYTE   N06  As3
 BYTE   W12
//  #09 //023   ----------------------------------------
 BYTE   Ds3
 BYTE   N06  Gn3
 BYTE   W12
 BYTE   Ds3
 BYTE   N06  Gn3
 BYTE   W12
 BYTE   Ds3
 BYTE   N06  As3
 BYTE   W12
 BYTE   Ds3
 BYTE   N06  Gn3
 BYTE   W12
 BYTE   Ds3
 BYTE   N06  Gn3
 BYTE   W12
 BYTE   Ds3
 BYTE   N06  As3
 BYTE   W12
 BYTE   Ds3
 BYTE   N06  Gn3
 BYTE   W12
 BYTE   Ds3
 BYTE   N06  Gn3
 BYTE   W12
 BYTE   PEND 
//  #09 //024   ----------------------------------------
Label_0100728E:
 BYTE   N06  Fn3  v100
 BYTE   N06  Cn4
 BYTE   W18
 BYTE   Fn3
 BYTE   N06  An3
 BYTE   W06
 BYTE   Fn3
 BYTE   N06  An3
 BYTE   W12
 BYTE   Fn3
 BYTE   N06  Cn4
 BYTE   W12
 BYTE   Fn3
 BYTE   N06  An3
 BYTE   W12
 BYTE   Fn3
 BYTE   N06  An3
 BYTE   W12
 BYTE   Fn3
 BYTE   N06  Cn4
 BYTE   W12
 BYTE   Fn3
 BYTE   N06  An3
 BYTE   W12
//  #09 //025   ----------------------------------------
 BYTE   Fn3
 BYTE   N06  An3
 BYTE   W12
 BYTE   Fn3
 BYTE   N06  Cn4
 BYTE   W12
 BYTE   Fn3
 BYTE   N06  An3
 BYTE   W12
 BYTE   Fn3
 BYTE   N06  An3
 BYTE   W12
 BYTE   PEND 
Label_010072C1:
 BYTE   N06  Dn3  v100
 BYTE   N06  As3
 BYTE   W12
 BYTE   Dn3
 BYTE   N06  Fn3
 BYTE   W12
 BYTE   Dn3
 BYTE   N06  Fn3
 BYTE   W12
 BYTE   Dn3
 BYTE   N06  As3
 BYTE   W12
//  #09 //026   ----------------------------------------
 BYTE   Dn3
 BYTE   N06  Fn3
 BYTE   W12
 BYTE   Dn3
 BYTE   N06  Fn3
 BYTE   W12
 BYTE   Dn3
 BYTE   N06  As3
 BYTE   W12
 BYTE   Dn3
 BYTE   N06  Fn3
 BYTE   W12
 BYTE   Dn3
 BYTE   N06  Fn3
 BYTE   W12
 BYTE   Dn3
 BYTE   N06  As3
 BYTE   W12
 BYTE   Dn3
 BYTE   N06  Fn3
 BYTE   W12
 BYTE   Dn3
 BYTE   N06  Fn3
 BYTE   W12
 BYTE   PEND 
//  #09 //027   ----------------------------------------
Label_010072F4:
 BYTE   N06  Dn3  v100
 BYTE   N06  As3
 BYTE   W18
 BYTE   Dn3
 BYTE   N06  Gn3
 BYTE   W06
 BYTE   Dn3
 BYTE   N06  Gn3
 BYTE   W12
 BYTE   Dn3
 BYTE   N06  As3
 BYTE   W12
 BYTE   Dn3
 BYTE   N06  Gn3
 BYTE   W12
 BYTE   Dn3
 BYTE   N06  Gn3
 BYTE   W12
 BYTE   N06
 BYTE   N06  Dn4
 BYTE   W12
 BYTE   Gn3
 BYTE   N06  As3
 BYTE   W12
//  #09 //028   ----------------------------------------
 BYTE   Gn3
 BYTE   N06  As3
 BYTE   W12
 BYTE   Gn3
 BYTE   N06  Dn4
 BYTE   W12
 BYTE   Gn3
 BYTE   N06  As3
 BYTE   W12
 BYTE   Gn3
 BYTE   N06  As3
 BYTE   W12
 BYTE   PEND 
Label_01007327:
 BYTE   N06  Gs3  v100
 BYTE   N06  Ds4
 BYTE   W12
 BYTE   Gs3
 BYTE   N06  Cn4
 BYTE   W12
 BYTE   Gs3
 BYTE   N06  Cn4
 BYTE   W12
 BYTE   Gs3
 BYTE   N06  Ds4
 BYTE   W12
//  #09 //029   ----------------------------------------
 BYTE   Gs3
 BYTE   N06  Cn4
 BYTE   W12
 BYTE   Gs3
 BYTE   N06  Cn4
 BYTE   W12
 BYTE   Gs3
 BYTE   N06  Ds4
 BYTE   W12
 BYTE   Gs3
 BYTE   N06  Cn4
 BYTE   W12
 BYTE   Gs3
 BYTE   N06  Cn4
 BYTE   W12
 BYTE   Gs3
 BYTE   N06  Ds4
 BYTE   W12
 BYTE   Gs3
 BYTE   N06  Cn4
 BYTE   W12
 BYTE   Gs3
 BYTE   N06  Cn4
 BYTE   W12
 BYTE   PEND 
//  #09 //030   ----------------------------------------
Label_0100735A:
 BYTE   N06  An3  v100
 BYTE   N06  Ds4
 BYTE   W18
 BYTE   An3
 BYTE   N06  Cn4
 BYTE   W06
 BYTE   An3
 BYTE   N06  Cn4
 BYTE   W12
 BYTE   An3
 BYTE   N06  Ds4
 BYTE   W12
 BYTE   An3
 BYTE   N06  Cn4
 BYTE   W12
 BYTE   An3
 BYTE   N06  Cn4
 BYTE   W12
 BYTE   An3
 BYTE   N06  Ds4
 BYTE   W12
 BYTE   An3
 BYTE   N06  Cn4
 BYTE   W12
//  #09 //031   ----------------------------------------
 BYTE   An3
 BYTE   N06  Cn4
 BYTE   W12
 BYTE   An3
 BYTE   N06  Ds4
 BYTE   W12
 BYTE   An3
 BYTE   N06  Cn4
 BYTE   W12
 BYTE   An3
 BYTE   N06  Cn4
 BYTE   W12
 BYTE   PEND 
Label_0100738D:
 BYTE   N06  Gn3  v100
 BYTE   N06  Dn4
 BYTE   W18
 BYTE   Gn3
 BYTE   N06  An3
 BYTE   W06
 BYTE   Gn3
 BYTE   N06  An3
 BYTE   W12
 BYTE   Gn3
 BYTE   N06  Dn4
 BYTE   W12
//  #09 //032   ----------------------------------------
 BYTE   Gn3
 BYTE   N06  An3
 BYTE   W12
 BYTE   Gn3
 BYTE   N06  An3
 BYTE   W12
 BYTE   Gn3
 BYTE   N06  Dn4
 BYTE   W12
 BYTE   Gn3
 BYTE   N06  An3
 BYTE   W12
 BYTE   Gn3
 BYTE   N06  An3
 BYTE   W12
 BYTE   Gn3
 BYTE   N06  Dn4
 BYTE   W12
 BYTE   Gn3
 BYTE   N06  An3
 BYTE   W12
 BYTE   Gn3
 BYTE   N06  An3
 BYTE   W12
 BYTE   PEND 
//  #09 //033   ----------------------------------------
Label_010073C0:
 BYTE   N06  Gn3  v100
 BYTE   N06  Dn4
 BYTE   W12
 BYTE   Gn3
 BYTE   N06  An3
 BYTE   W12
 BYTE   Gn3
 BYTE   N06  An3
 BYTE   W12
 BYTE   Gn3
 BYTE   N06  Dn4
 BYTE   W12
 BYTE   Gn3
 BYTE   N06  An3
 BYTE   W12
 BYTE   Gn3
 BYTE   N06  An3
 BYTE   W12
 BYTE   Gn3
 BYTE   N06  Dn4
 BYTE   W12
 BYTE   Gn3
 BYTE   N06  An3
 BYTE   W12
//  #09 //034   ----------------------------------------
 BYTE   Gn3
 BYTE   N06  An3
 BYTE   W12
 BYTE   Gn3
 BYTE   N06  Dn4
 BYTE   W12
 BYTE   Gn3
 BYTE   N06  An3
 BYTE   W12
 BYTE   Gn3
 BYTE   N06  An3
 BYTE   W12
 BYTE   PEND 
Label_010073F3:
 BYTE   N06  Ds3  v100
 BYTE   N06  As3
 BYTE   W18
 BYTE   Ds3
 BYTE   N06  Gn3
 BYTE   W06
 BYTE   Ds3
 BYTE   N06  Gn3
 BYTE   W12
 BYTE   Ds3
 BYTE   N06  As3
 BYTE   W12
//  #09 //035   ----------------------------------------
 BYTE   Ds3
 BYTE   N06  Gn3
 BYTE   W12
 BYTE   Ds3
 BYTE   N06  Gn3
 BYTE   W12
 BYTE   Fn3
 BYTE   N06  Cn4
 BYTE   W12
 BYTE   Fn3
 BYTE   N06  An3
 BYTE   W12
 BYTE   Fn3
 BYTE   N06  An3
 BYTE   W12
 BYTE   Fn3
 BYTE   N06  Cn4
 BYTE   W12
 BYTE   Fn3
 BYTE   N06  An3
 BYTE   W12
 BYTE   Fn3
 BYTE   N06  An3
 BYTE   W12
 BYTE   PEND 
//  #09 //036   ----------------------------------------
Label_01007426:
 BYTE   N06  Fs3  v100
 BYTE   N06  Dn4
 BYTE   W12
 BYTE   Fs3
 BYTE   N06  An3
 BYTE   W12
 BYTE   Fs3
 BYTE   N06  An3
 BYTE   W12
 BYTE   Fs3
 BYTE   N06  Dn4
 BYTE   W12
 BYTE   Fs3
 BYTE   N06  An3
 BYTE   W12
 BYTE   Fs3
 BYTE   N06  An3
 BYTE   W12
 BYTE   Fs3
 BYTE   N06  Dn4
 BYTE   W12
 BYTE   Fs3
 BYTE   N06  An3
 BYTE   W12
//  #09 //037   ----------------------------------------
 BYTE   Fs3
 BYTE   N06  An3
 BYTE   W12
 BYTE   Fs3
 BYTE   N06  Dn4
 BYTE   W12
 BYTE   Fs3
 BYTE   N06  An3
 BYTE   W12
 BYTE   Fs3
 BYTE   N06  An3
 BYTE   W12
 BYTE   PEND 
Label_01007459:
 BYTE   N06  Dn3  v100
 BYTE   N06  As3
 BYTE   W12
 BYTE   Dn3
 BYTE   N06  Gn3
 BYTE   W12
 BYTE   Dn3
 BYTE   N06  Gn3
 BYTE   W12
 BYTE   Dn3
 BYTE   N06  As3
 BYTE   W12
//  #09 //038   ----------------------------------------
 BYTE   Dn3
 BYTE   N06  Gn3
 BYTE   W12
 BYTE   Dn3
 BYTE   N06  Gn3
 BYTE   W12
 BYTE   Dn3
 BYTE   N06  As3
 BYTE   W12
 BYTE   Dn3
 BYTE   N06  Gn3
 BYTE   W12
 BYTE   Dn3
 BYTE   N06  Gn3
 BYTE   W12
 BYTE   Dn3
 BYTE   N06  As3
 BYTE   W12
 BYTE   Dn3
 BYTE   N06  Gn3
 BYTE   W12
 BYTE   Dn3
 BYTE   N06  Gn3
 BYTE   W12
 BYTE   PEND 
//  #09 //039   ----------------------------------------
Label_0100748C:
 BYTE   N06  Ds3  v100
 BYTE   N06  Cn4
 BYTE   W18
 BYTE   Ds3
 BYTE   N06  Gn3
 BYTE   W06
 BYTE   Ds3
 BYTE   N06  Gn3
 BYTE   W12
 BYTE   Ds3
 BYTE   N06  Cn4
 BYTE   W12
 BYTE   Ds3
 BYTE   N06  Gn3
 BYTE   W12
 BYTE   Ds3
 BYTE   N06  Gn3
 BYTE   W12
 BYTE   Ds3
 BYTE   N06  Cn4
 BYTE   W12
 BYTE   Ds3
 BYTE   N06  Gn3
 BYTE   W12
//  #09 //040   ----------------------------------------
 BYTE   Ds3
 BYTE   N06  Gn3
 BYTE   W12
 BYTE   Ds3
 BYTE   N06  Cn4
 BYTE   W12
 BYTE   Ds3
 BYTE   N06  Gn3
 BYTE   W12
 BYTE   Ds3
 BYTE   N06  Gn3
 BYTE   W12
 BYTE   PEND 
Label_010074BF:
 BYTE   N06  Cn3  v100
 BYTE   N06  An3
 BYTE   W12
 BYTE   Cn3
 BYTE   N06  Fn3
 BYTE   W12
 BYTE   Cn3
 BYTE   N06  Fn3
 BYTE   W12
 BYTE   Cn3
 BYTE   N06  An3
 BYTE   W12
//  #09 //041   ----------------------------------------
 BYTE   Cn3
 BYTE   N06  Fn3
 BYTE   W12
 BYTE   Cn3
 BYTE   N06  Fn3
 BYTE   W12
 BYTE   Cn3
 BYTE   N06  An3
 BYTE   W12
 BYTE   Cn3
 BYTE   N06  Fn3
 BYTE   W12
 BYTE   Cn3
 BYTE   N06  Fn3
 BYTE   W12
 BYTE   Cn3
 BYTE   N06  An3
 BYTE   W12
 BYTE   Cn3
 BYTE   N06  Fn3
 BYTE   W12
 BYTE   Cn3
 BYTE   N06  Fn3
 BYTE   W12
 BYTE   PEND 
//  #09 //042   ----------------------------------------
Label_010074F2:
 BYTE   N06  Cn3  v100
 BYTE   N06  As3
 BYTE   W18
 BYTE   Dn3
 BYTE   N06  Gn3
 BYTE   W06
 BYTE   Dn3
 BYTE   N06  Gn3
 BYTE   W12
 BYTE   Dn3
 BYTE   N06  As3
 BYTE   W12
 BYTE   Dn3
 BYTE   N06  Gn3
 BYTE   W12
 BYTE   Dn3
 BYTE   N06  Gn3
 BYTE   W12
 BYTE   Dn3
 BYTE   N06  As3
 BYTE   W12
 BYTE   Dn3
 BYTE   N06  Gn3
 BYTE   W12
//  #09 //043   ----------------------------------------
 BYTE   Dn3
 BYTE   N06  Gn3
 BYTE   W12
 BYTE   Dn3
 BYTE   N06  As3
 BYTE   W12
 BYTE   Dn3
 BYTE   N06  Gn3
 BYTE   W12
 BYTE   Dn3
 BYTE   N06  Gn3
 BYTE   W12
 BYTE   PEND 
//  #09 //044   ----------------------------------------
 BYTE   PATT
  POIN2 Label_01007459
//  #09 //045   ----------------------------------------
 BYTE   PATT
  POIN2 Label_0100748C
//  #09 //046   ----------------------------------------
 BYTE   PATT
  POIN2 Label_010074BF
//  #09 //047   ----------------------------------------
 BYTE   PATT
  POIN2 Label_010074F2
//  #09 //048   ----------------------------------------
 BYTE   PATT
  POIN2 Label_01007459
//  #09 //049   ----------------------------------------
 BYTE   PATT
  POIN2 Label_0100748C
//  #09 //050   ----------------------------------------
 BYTE   PATT
  POIN2 Label_010074BF
//  #09 //051   ----------------------------------------
 BYTE   PATT
  POIN2 Label_010074F2
//  #09 //052   ----------------------------------------
 BYTE   PATT
  POIN2 Label_01007459
//  #09 //053   ----------------------------------------
 BYTE   PATT
  POIN2 Label_0100748C
//  #09 //054   ----------------------------------------
 BYTE   PATT
  POIN2 Label_010074BF
//  #09 //055   ----------------------------------------
 BYTE   PATT
  POIN2 Label_010074F2
//  #09 //056   ----------------------------------------
 BYTE   W96
//  #09 //057   ----------------------------------------
 BYTE   W48
Label_01007563:
 BYTE   N06  Gn2  v100
 BYTE   N06  As2
 BYTE   N06  Dn3  v127
 BYTE   W18
 BYTE   Gn2  v100
 BYTE   N06  As2
 BYTE   N06  Dn3  v127
 BYTE   W06
 BYTE   Gn2  v100
 BYTE   N06  As2
 BYTE   N06  Dn3  v127
 BYTE   W12
 BYTE   Gn2  v100
 BYTE   N06  As2
 BYTE   N06  Dn3  v127
 BYTE   W12
//  #09 //058   ----------------------------------------
 BYTE   Gn2  v100
 BYTE   N06  As2
 BYTE   N06  Dn3  v127
 BYTE   W12
 BYTE   Gn2  v100
 BYTE   N06  As2
 BYTE   N06  Dn3  v127
 BYTE   W12
 BYTE   Gn2  v100
 BYTE   N06  Bn2
 BYTE   N06  Ds3  v127
 BYTE   W12
 BYTE   Gn2  v100
 BYTE   N06  Bn2
 BYTE   N06  Ds3  v127
 BYTE   W06
 BYTE   Gn2  v100
 BYTE   N06  Bn2
 BYTE   N06  Ds3  v127
 BYTE   W06
 BYTE   Gn2  v100
 BYTE   N06  Bn2
 BYTE   N06  Ds3  v127
 BYTE   W12
 BYTE   Gn2  v100
 BYTE   N06  Bn2
 BYTE   N06  Ds3  v127
 BYTE   W12
 BYTE   Gn2  v100
 BYTE   N06  Bn2
 BYTE   N06  Ds3  v127
 BYTE   W12
 BYTE   Gn2  v100
 BYTE   N06  Bn2
 BYTE   N06  Ds3  v127
 BYTE   W12
 BYTE   PEND 
//  #09 //059   ----------------------------------------
 BYTE   Gn2  v100
 BYTE   N06  Cn3
 BYTE   N06  En3  v127
 BYTE   W12
 BYTE   Gn2  v100
 BYTE   N06  Cn3
 BYTE   N06  En3  v127
 BYTE   W12
 BYTE   Gn2  v100
 BYTE   N06  Cn3
 BYTE   N06  En3  v127
 BYTE   W12
 BYTE   Gn2  v100
 BYTE   N06  Cn3
 BYTE   N06  En3  v127
 BYTE   W12
 BYTE   Gn2  v100
 BYTE   N06  Cn3
 BYTE   N06  En3  v127
 BYTE   W12
 BYTE   Gn2  v100
 BYTE   N06  Cn3
 BYTE   N06  En3  v127
 BYTE   W12
 BYTE   Gs2  v100
 BYTE   N06  Cs3
 BYTE   N06  Fn3  v127
 BYTE   W18
 BYTE   Gs2  v100
 BYTE   N06  Cs3
 BYTE   N06  Fn3  v127
 BYTE   W06
//  #09 //060   ----------------------------------------
 BYTE   Gs2  v100
 BYTE   N06  Cs3
 BYTE   N06  Fn3  v127
 BYTE   W12
 BYTE   Gs2  v100
 BYTE   N06  Cs3
 BYTE   N06  Fn3  v127
 BYTE   W12
 BYTE   Gs2  v100
 BYTE   N06  Cs3
 BYTE   N06  Fn3  v127
 BYTE   W12
 BYTE   Gs2  v100
 BYTE   N06  Cs3
 BYTE   N06  Fn3  v127
 BYTE   W12
 BYTE   An2  v100
 BYTE   N06  Cs3
 BYTE   N06  En3  v127
 BYTE   W18
 BYTE   An2  v100
 BYTE   N06  Cs3
 BYTE   N06  En3  v127
 BYTE   W06
 BYTE   An2  v100
 BYTE   N06  Cs3
 BYTE   N06  En3  v127
 BYTE   W12
 BYTE   An2  v100
 BYTE   N06  Cs3
 BYTE   N06  En3  v127
 BYTE   W12
//  #09 //061   ----------------------------------------
 BYTE   An2  v100
 BYTE   N06  Cs3
 BYTE   N06  En3  v127
 BYTE   W12
 BYTE   An2  v100
 BYTE   N06  Cs3
 BYTE   N06  En3  v127
 BYTE   W12
 BYTE   As2  v100
 BYTE   N06  Dn3
 BYTE   N06  Fn3  v127
 BYTE   W12
 BYTE   As2  v100
 BYTE   N06  Dn3
 BYTE   N06  Fn3  v127
 BYTE   W06
 BYTE   As2  v100
 BYTE   N06  Dn3
 BYTE   N06  Fn3  v127
 BYTE   W06
 BYTE   As2  v100
 BYTE   N06  Dn3
 BYTE   N06  Fn3  v127
 BYTE   W12
 BYTE   As2  v100
 BYTE   N06  Dn3
 BYTE   N06  Fn3  v127
 BYTE   W12
 BYTE   As2  v100
 BYTE   N06  Dn3
 BYTE   N06  Fn3  v127
 BYTE   W12
 BYTE   As2  v100
 BYTE   N06  Dn3
 BYTE   N06  Fn3  v127
 BYTE   W12
//  #09 //062   ----------------------------------------
 BYTE   PATT
  POIN2 Label_01007125
//  #09 //063   ----------------------------------------
 BYTE   GoTo
  POIN2 Label_01007187
//  #09 //064   ----------------------------------------
 BYTE   PATT
  POIN2 Label_01007187
//  #09 //065   ----------------------------------------
 BYTE   PATT
  POIN2 Label_01007187
//  #09 //066   ----------------------------------------
 BYTE   PATT
  POIN2 Label_010071A7
//  #09 //067   ----------------------------------------
 BYTE   PATT
  POIN2 Label_010071C2
//  #09 //068   ----------------------------------------
 BYTE   PATT
  POIN2 Label_01007187
//  #09 //069   ----------------------------------------
 BYTE   PATT
  POIN2 Label_01007187
//  #09 //070   ----------------------------------------
 BYTE   PATT
  POIN2 Label_010071E7
//  #09 //071   ----------------------------------------
 BYTE   PATT
  POIN2 Label_01007202
//  #09 //072   ----------------------------------------
 BYTE   PATT
  POIN2 Label_01007187
//  #09 //073   ----------------------------------------
 BYTE   PATT
  POIN2 Label_01007187
//  #09 //074   ----------------------------------------
 BYTE   PATT
  POIN2 Label_010071A7
//  #09 //075   ----------------------------------------
 BYTE   PATT
  POIN2 Label_010071C2
//  #09 //076   ----------------------------------------
 BYTE   PATT
  POIN2 Label_01007187
//  #09 //077   ----------------------------------------
 BYTE   PATT
  POIN2 Label_01007187
//  #09 //078   ----------------------------------------
 BYTE   PATT
  POIN2 Label_010071E7
//  #09 //079   ----------------------------------------
 BYTE   PATT
  POIN2 Label_01007240
//  #09 //080   ----------------------------------------
 BYTE   PATT
  POIN2 Label_0100725B
//  #09 //081   ----------------------------------------
 BYTE   PATT
  POIN2 Label_0100728E
//  #09 //082   ----------------------------------------
 BYTE   PATT
  POIN2 Label_010072C1
//  #09 //083   ----------------------------------------
 BYTE   PATT
  POIN2 Label_010072F4
//  #09 //084   ----------------------------------------
 BYTE   PATT
  POIN2 Label_01007327
//  #09 //085   ----------------------------------------
 BYTE   PATT
  POIN2 Label_0100735A
//  #09 //086   ----------------------------------------
 BYTE   PATT
  POIN2 Label_0100738D
//  #09 //087   ----------------------------------------
 BYTE   PATT
  POIN2 Label_010073C0
//  #09 //088   ----------------------------------------
 BYTE   PATT
  POIN2 Label_010073F3
//  #09 //089   ----------------------------------------
 BYTE   PATT
  POIN2 Label_01007426
//  #09 //090   ----------------------------------------
 BYTE   PATT
  POIN2 Label_01007459
//  #09 //091   ----------------------------------------
 BYTE   PATT
  POIN2 Label_0100748C
//  #09 //092   ----------------------------------------
 BYTE   PATT
  POIN2 Label_010074BF
//  #09 //093   ----------------------------------------
 BYTE   PATT
  POIN2 Label_010074F2
//  #09 //094   ----------------------------------------
 BYTE   PATT
  POIN2 Label_01007459
//  #09 //095   ----------------------------------------
 BYTE   PATT
  POIN2 Label_0100748C
//  #09 //096   ----------------------------------------
 BYTE   PATT
  POIN2 Label_010074BF
//  #09 //097   ----------------------------------------
 BYTE   PATT
  POIN2 Label_010074F2
//  #09 //098   ----------------------------------------
 BYTE   PATT
  POIN2 Label_01007459
//  #09 //099   ----------------------------------------
 BYTE   PATT
  POIN2 Label_0100748C
//  #09 //100   ----------------------------------------
 BYTE   PATT
  POIN2 Label_010074BF
//  #09 //101   ----------------------------------------
 BYTE   PATT
  POIN2 Label_010074F2
//  #09 //102   ----------------------------------------
 BYTE   PATT
  POIN2 Label_01007459
//  #09 //103   ----------------------------------------
 BYTE   PATT
  POIN2 Label_0100748C
//  #09 //104   ----------------------------------------
 BYTE   PATT
  POIN2 Label_010074BF
//  #09 //105   ----------------------------------------
 BYTE   PATT
  POIN2 Label_010074F2
//  #09 //106   ----------------------------------------
 BYTE   W96
//  #09 //107   ----------------------------------------
 BYTE   W48
//  #09 //108   ----------------------------------------
 BYTE   PATT
  POIN2 Label_01007563
//  #09 //109   ----------------------------------------
 BYTE   N06  Gn2  v100
 BYTE   N06  Cn3
 BYTE   N06  En3  v127
 BYTE   W12
 BYTE   Gn2  v100
 BYTE   N06  Cn3
 BYTE   N06  En3  v127
 BYTE   W12
 BYTE   Gn2  v100
 BYTE   N06  Cn3
 BYTE   N06  En3  v127
 BYTE   W12
 BYTE   Gn2  v100
 BYTE   N06  Cn3
 BYTE   N06  En3  v127
 BYTE   W12
 BYTE   Gn2  v100
 BYTE   N06  Cn3
 BYTE   N06  En3  v127
 BYTE   W12
 BYTE   Gn2  v100
 BYTE   N06  Cn3
 BYTE   N06  En3  v127
 BYTE   W12
 BYTE   Gs2  v100
 BYTE   N06  Cs3
 BYTE   N06  Fn3  v127
 BYTE   W18
 BYTE   Gs2  v100
 BYTE   N06  Cs3
 BYTE   N06  Fn3  v127
 BYTE   W06
//  #09 //110   ----------------------------------------
 BYTE   Gs2  v100
 BYTE   N06  Cs3
 BYTE   N06  Fn3  v127
 BYTE   W12
 BYTE   Gs2  v100
 BYTE   N06  Cs3
 BYTE   N06  Fn3  v127
 BYTE   W12
 BYTE   Gs2  v100
 BYTE   N06  Cs3
 BYTE   N06  Fn3  v127
 BYTE   W12
 BYTE   Gs2  v100
 BYTE   N06  Cs3
 BYTE   N06  Fn3  v127
 BYTE   W06
 BYTE   FINE

//**************** Track 10 (Midi-Chn.9) ****************//

BattleForStormHill_010:
//  #10 //000   ----------------------------------------
 BYTE   KEYSH   BattleForStormHill_key+0
 BYTE   VOICE   116
 BYTE   VOL   29*BattleForStormHill_mvl/mxv
 BYTE   PAN   c_v-1
 BYTE   W96
//  #10 //001   ----------------------------------------
 BYTE   W48
 BYTE   W96
//  #10 //002   ----------------------------------------
 BYTE   W48
Label_019662F4:
 BYTE   W96
//  #10 //003   ----------------------------------------
 BYTE   W48
 BYTE   W96
//  #10 //004   ----------------------------------------
 BYTE   W48
 BYTE   W96
//  #10 //005   ----------------------------------------
 BYTE   W48
 BYTE   W96
//  #10 //006   ----------------------------------------
 BYTE   W48
 BYTE   W96
//  #10 //007   ----------------------------------------
 BYTE   W48
 BYTE   W96
//  #10 //008   ----------------------------------------
 BYTE   W48
 BYTE   W96
//  #10 //009   ----------------------------------------
 BYTE   W48
 BYTE   W96
//  #10 //010   ----------------------------------------
 BYTE   W48
 BYTE   W96
//  #10 //011   ----------------------------------------
 BYTE   W48
 BYTE   W96
//  #10 //012   ----------------------------------------
 BYTE   W48
 BYTE   W96
//  #10 //013   ----------------------------------------
 BYTE   W48
 BYTE   W96
//  #10 //014   ----------------------------------------
 BYTE   W48
 BYTE   W96
//  #10 //015   ----------------------------------------
 BYTE   W48
 BYTE   W96
//  #10 //016   ----------------------------------------
 BYTE   W48
 BYTE   W96
//  #10 //017   ----------------------------------------
 BYTE   W48
 BYTE   W96
//  #10 //018   ----------------------------------------
 BYTE   W48
 BYTE   W96
//  #10 //019   ----------------------------------------
 BYTE   W48
 BYTE   W96
//  #10 //020   ----------------------------------------
 BYTE   W48
 BYTE   W96
//  #10 //021   ----------------------------------------
 BYTE   W48
 BYTE   W96
//  #10 //022   ----------------------------------------
 BYTE   W48
 BYTE   W96
//  #10 //023   ----------------------------------------
 BYTE   W48
 BYTE   W96
//  #10 //024   ----------------------------------------
 BYTE   W48
 BYTE   W96
//  #10 //025   ----------------------------------------
 BYTE   W48
 BYTE   W96
//  #10 //026   ----------------------------------------
 BYTE   W48
 BYTE   W96
//  #10 //027   ----------------------------------------
 BYTE   W48
 BYTE   W96
//  #10 //028   ----------------------------------------
 BYTE   W48
 BYTE   W96
//  #10 //029   ----------------------------------------
 BYTE   W48
 BYTE   W96
//  #10 //030   ----------------------------------------
 BYTE   W48
 BYTE   W96
//  #10 //031   ----------------------------------------
 BYTE   W48
 BYTE   W96
//  #10 //032   ----------------------------------------
 BYTE   W48
 BYTE   W96
//  #10 //033   ----------------------------------------
 BYTE   W48
 BYTE   W96
//  #10 //034   ----------------------------------------
 BYTE   W48
 BYTE   W96
//  #10 //035   ----------------------------------------
 BYTE   W48
 BYTE   W96
//  #10 //036   ----------------------------------------
 BYTE   W48
Label_01966338:
 BYTE   W36
 BYTE   N03  Gs2  v116
 BYTE   N03  Ds3
 BYTE   W72
//  #10 //037   ----------------------------------------
 BYTE   Gs2
 BYTE   N03  Ds3
 BYTE   W36
 BYTE   PEND 
//  #10 //038   ----------------------------------------
 BYTE   PATT
  POIN2 Label_01966338
//  #10 //039   ----------------------------------------
 BYTE   PATT
  POIN2 Label_01966338
//  #10 //040   ----------------------------------------
 BYTE   PATT
  POIN2 Label_01966338
//  #10 //041   ----------------------------------------
 BYTE   PATT
  POIN2 Label_01966338
//  #10 //042   ----------------------------------------
 BYTE   PATT
  POIN2 Label_01966338
//  #10 //043   ----------------------------------------
 BYTE   PATT
  POIN2 Label_01966338
//  #10 //044   ----------------------------------------
 BYTE   PATT
  POIN2 Label_01966338
//  #10 //045   ----------------------------------------
 BYTE   W96
//  #10 //046   ----------------------------------------
 BYTE   W48
 BYTE   W96
//  #10 //047   ----------------------------------------
 BYTE   W48
 BYTE   W96
//  #10 //048   ----------------------------------------
 BYTE   W48
 BYTE   W96
//  #10 //049   ----------------------------------------
 BYTE   W48
 BYTE   W96
//  #10 //050   ----------------------------------------
 BYTE   W48
 BYTE   GoTo
  POIN2 Label_019662F4
//  #10 //051   ----------------------------------------
 BYTE   W96
//  #10 //052   ----------------------------------------
 BYTE   W48
 BYTE   W96
//  #10 //053   ----------------------------------------
 BYTE   W48
 BYTE   W96
//  #10 //054   ----------------------------------------
 BYTE   W48
 BYTE   W96
//  #10 //055   ----------------------------------------
 BYTE   W48
 BYTE   W96
//  #10 //056   ----------------------------------------
 BYTE   W48
 BYTE   W96
//  #10 //057   ----------------------------------------
 BYTE   W48
 BYTE   W96
//  #10 //058   ----------------------------------------
 BYTE   W48
 BYTE   W96
//  #10 //059   ----------------------------------------
 BYTE   W48
 BYTE   W96
//  #10 //060   ----------------------------------------
 BYTE   W48
 BYTE   W96
//  #10 //061   ----------------------------------------
 BYTE   W48
 BYTE   W96
//  #10 //062   ----------------------------------------
 BYTE   W48
 BYTE   W96
//  #10 //063   ----------------------------------------
 BYTE   W48
 BYTE   W96
//  #10 //064   ----------------------------------------
 BYTE   W48
 BYTE   W96
//  #10 //065   ----------------------------------------
 BYTE   W48
 BYTE   W96
//  #10 //066   ----------------------------------------
 BYTE   W48
 BYTE   W96
//  #10 //067   ----------------------------------------
 BYTE   W48
 BYTE   W96
//  #10 //068   ----------------------------------------
 BYTE   W48
 BYTE   W96
//  #10 //069   ----------------------------------------
 BYTE   W48
 BYTE   W96
//  #10 //070   ----------------------------------------
 BYTE   W48
 BYTE   W96
//  #10 //071   ----------------------------------------
 BYTE   W48
 BYTE   W96
//  #10 //072   ----------------------------------------
 BYTE   W48
 BYTE   W96
//  #10 //073   ----------------------------------------
 BYTE   W48
 BYTE   W96
//  #10 //074   ----------------------------------------
 BYTE   W48
 BYTE   W96
//  #10 //075   ----------------------------------------
 BYTE   W48
 BYTE   W96
//  #10 //076   ----------------------------------------
 BYTE   W48
 BYTE   W96
//  #10 //077   ----------------------------------------
 BYTE   W48
 BYTE   W96
//  #10 //078   ----------------------------------------
 BYTE   W48
 BYTE   W96
//  #10 //079   ----------------------------------------
 BYTE   W48
 BYTE   W96
//  #10 //080   ----------------------------------------
 BYTE   W48
 BYTE   W96
//  #10 //081   ----------------------------------------
 BYTE   W48
 BYTE   W96
//  #10 //082   ----------------------------------------
 BYTE   W48
 BYTE   W96
//  #10 //083   ----------------------------------------
 BYTE   W48
 BYTE   W96
//  #10 //084   ----------------------------------------
 BYTE   W48
 BYTE   W96
//  #10 //085   ----------------------------------------
 BYTE   W48
//  #10 //086   ----------------------------------------
 BYTE   PATT
  POIN2 Label_01966338
//  #10 //087   ----------------------------------------
 BYTE   PATT
  POIN2 Label_01966338
//  #10 //088   ----------------------------------------
 BYTE   PATT
  POIN2 Label_01966338
//  #10 //089   ----------------------------------------
 BYTE   PATT
  POIN2 Label_01966338
//  #10 //090   ----------------------------------------
 BYTE   PATT
  POIN2 Label_01966338
//  #10 //091   ----------------------------------------
 BYTE   PATT
  POIN2 Label_01966338
//  #10 //092   ----------------------------------------
 BYTE   PATT
  POIN2 Label_01966338
//  #10 //093   ----------------------------------------
 BYTE   PATT
  POIN2 Label_01966338
//  #10 //094   ----------------------------------------
 BYTE   W96
//  #10 //095   ----------------------------------------
 BYTE   W48
 BYTE   W96
//  #10 //096   ----------------------------------------
 BYTE   W48
 BYTE   W96
//  #10 //097   ----------------------------------------
 BYTE   W42
 BYTE   FINE

//**************** Track 11 (Midi-Chn.10) ****************//

BattleForStormHill_011:
//  #11 //000   ----------------------------------------
 BYTE   KEYSH   BattleForStormHill_key+0
 BYTE   VOICE   124
 BYTE   VOL   40*BattleForStormHill_mvl/mxv
 BYTE   PAN   c_v+0
 BYTE   N03  Cn1  v100
 BYTE   N03  En1
 BYTE   W24
 BYTE   N03
 BYTE   W12
 BYTE   N03
 BYTE   W12
 BYTE   N03
 BYTE   W12
 BYTE   N03
 BYTE   W12
 BYTE   Cn1
 BYTE   N03  En1
 BYTE   W12
 BYTE   N03
 BYTE   W06
 BYTE   N03
 BYTE   W06
//  #11 //001   ----------------------------------------
 BYTE   N03
 BYTE   W12
 BYTE   N03
 BYTE   W12
 BYTE   N03
 BYTE   W12
 BYTE   N03
 BYTE   W12
Label_01007812:
 BYTE   N03  Cn1  v100
 BYTE   N03  En1
 BYTE   W24
 BYTE   N03
 BYTE   W12
 BYTE   N03
 BYTE   W12
//  #11 //002   ----------------------------------------
 BYTE   N03
 BYTE   W12
 BYTE   N03
 BYTE   W12
 BYTE   Cn1
 BYTE   N03  En1
 BYTE   W12
 BYTE   N03
 BYTE   W06
 BYTE   N03
 BYTE   W06
 BYTE   Cn1
 BYTE   N03  En1
 BYTE   W12
 BYTE   Cn1
 BYTE   N03  En1
 BYTE   N03  Gn2  v004
 BYTE   N03  An2
 BYTE   W03
 BYTE   Gn2  v016
 BYTE   N03  An2
 BYTE   W03
 BYTE   Gn2  v024
 BYTE   N03  An2
 BYTE   W03
 BYTE   Gn2  v036
 BYTE   N03  An2
 BYTE   W03
 BYTE   Cn1  v100
 BYTE   N03  En1
 BYTE   N03  Gn2  v044
 BYTE   N03  An2
 BYTE   W03
 BYTE   Gn2  v056
 BYTE   N03  An2
 BYTE   W03
 BYTE   Gn2  v068
 BYTE   N03  An2
 BYTE   W03
 BYTE   Gn2  v076
 BYTE   N03  An2
 BYTE   W03
 BYTE   Cn1  v100
 BYTE   N03  En1
 BYTE   N03  Gn2  v088
 BYTE   N03  An2
 BYTE   W03
 BYTE   Gn2  v096
 BYTE   N03  An2
 BYTE   W03
 BYTE   Gn2  v108
 BYTE   N03  An2
 BYTE   W03
 BYTE   Gn2  v116
 BYTE   N03  An2
 BYTE   W03
 BYTE   PEND 
//  #11 //003   ----------------------------------------
Label_01007877:
 BYTE   N03  En1  v100
 BYTE   N03  Gn2  v127
 BYTE   N03  An2
 BYTE   W12
 BYTE   En1  v100
 BYTE   W12
 BYTE   N03
 BYTE   W12
 BYTE   N03
 BYTE   W24
 BYTE   N03
 BYTE   W12
 BYTE   N03
 BYTE   W12
 BYTE   N03
 BYTE   W12
//  #11 //004   ----------------------------------------
 BYTE   N03
 BYTE   W12
 BYTE   N03
 BYTE   W24
 BYTE   N03
 BYTE   W12
 BYTE   PEND 
Label_01007894:
 BYTE   N03  En1  v100
 BYTE   W12
 BYTE   N03
 BYTE   W12
 BYTE   N03
 BYTE   W12
 BYTE   N03
 BYTE   W24
//  #11 //005   ----------------------------------------
 BYTE   N03
 BYTE   W12
 BYTE   N03
 BYTE   W12
 BYTE   N03
 BYTE   W06
 BYTE   N03
 BYTE   W06
 BYTE   N03
 BYTE   W12
 BYTE   N03
 BYTE   W12
 BYTE   N03
 BYTE   W12
 BYTE   N03
 BYTE   W12
 BYTE   PEND 
Label_010078AF:
 BYTE   N03  En1  v100
 BYTE   W12
//  #11 //006   ----------------------------------------
 BYTE   N03
 BYTE   W12
 BYTE   N03
 BYTE   W12
 BYTE   N03
 BYTE   W24
 BYTE   N03
 BYTE   W12
 BYTE   N03
 BYTE   W12
 BYTE   N03
 BYTE   W12
 BYTE   N03
 BYTE   W12
//  #11 //007   ----------------------------------------
 BYTE   N03
 BYTE   W24
 BYTE   N03
 BYTE   W12
 BYTE   PEND 
//  #11 //008   ----------------------------------------
 BYTE   PATT
  POIN2 Label_01007894
//  #11 //009   ----------------------------------------
 BYTE   PATT
  POIN2 Label_010078AF
//  #11 //010   ----------------------------------------
 BYTE   PATT
  POIN2 Label_01007894
//  #11 //011   ----------------------------------------
 BYTE   PATT
  POIN2 Label_010078AF
//  #11 //012   ----------------------------------------
Label_010078DA:
 BYTE   N03  En1  v100
 BYTE   W12
 BYTE   N03
 BYTE   W12
 BYTE   N03
 BYTE   W12
 BYTE   N03
 BYTE   W24
 BYTE   N03
 BYTE   W12
 BYTE   N03
 BYTE   W12
 BYTE   N03
 BYTE   W06
 BYTE   N03
 BYTE   W06
//  #11 //013   ----------------------------------------
 BYTE   N03
 BYTE   W12
 BYTE   N03
 BYTE   W12
 BYTE   N03
 BYTE   W06
 BYTE   N03
 BYTE   W06
 BYTE   N03
 BYTE   W12
 BYTE   PEND 
Label_010078F7:
 BYTE   N03  Cn1  v100
 BYTE   N03  En1
 BYTE   N03  An2
 BYTE   W12
 BYTE   En1
 BYTE   W12
 BYTE   N03
 BYTE   W12
 BYTE   Cn1
 BYTE   N03  En1
 BYTE   W24
//  #11 //014   ----------------------------------------
 BYTE   N03
 BYTE   W12
 BYTE   Cn1
 BYTE   N03  En1
 BYTE   W12
 BYTE   N03
 BYTE   W12
 BYTE   N03
 BYTE   W12
 BYTE   Cn1
 BYTE   N03  En1
 BYTE   W24
 BYTE   N03
 BYTE   W12
 BYTE   PEND 
Label_01007918:
 BYTE   N03  Cn1  v100
 BYTE   N03  En1
 BYTE   W12
//  #11 //015   ----------------------------------------
 BYTE   N03
 BYTE   W12
 BYTE   N03
 BYTE   W12
 BYTE   Cn1
 BYTE   N03  En1
 BYTE   W24
 BYTE   N03
 BYTE   W12
 BYTE   Cn1
 BYTE   N03  En1
 BYTE   W12
 BYTE   N03
 BYTE   W06
 BYTE   N03
 BYTE   W06
 BYTE   N03
 BYTE   W12
//  #11 //016   ----------------------------------------
 BYTE   Cn1
 BYTE   N03  En1
 BYTE   W12
 BYTE   N03
 BYTE   W12
 BYTE   N03
 BYTE   W12
 BYTE   PEND 
Label_0100793B:
 BYTE   N03  Cn1  v100
 BYTE   N03  En1
 BYTE   W12
 BYTE   N03
 BYTE   W12
 BYTE   N03
 BYTE   W12
 BYTE   Cn1
 BYTE   N03  En1
 BYTE   W24
//  #11 //017   ----------------------------------------
 BYTE   N03
 BYTE   W12
 BYTE   Cn1
 BYTE   N03  En1
 BYTE   W12
 BYTE   N03
 BYTE   W12
 BYTE   N03
 BYTE   W12
 BYTE   Cn1
 BYTE   N03  En1
 BYTE   W24
 BYTE   N03
 BYTE   W12
 BYTE   PEND 
//  #11 //018   ----------------------------------------
 BYTE   PATT
  POIN2 Label_01007918
//  #11 //019   ----------------------------------------
 BYTE   PATT
  POIN2 Label_0100793B
//  #11 //020   ----------------------------------------
 BYTE   PATT
  POIN2 Label_01007918
//  #11 //021   ----------------------------------------
 BYTE   PATT
  POIN2 Label_0100793B
//  #11 //022   ----------------------------------------
Label_0100796E:
 BYTE   N03  Cn1  v100
 BYTE   N03  En1
 BYTE   W12
 BYTE   N03
 BYTE   W12
 BYTE   N03
 BYTE   W12
 BYTE   Cn1
 BYTE   N03  En1
 BYTE   W24
 BYTE   N03
 BYTE   W12
 BYTE   Cn1
 BYTE   N03  En1
 BYTE   W12
 BYTE   N03
 BYTE   W06
 BYTE   N03
 BYTE   W06
//  #11 //023   ----------------------------------------
 BYTE   N03
 BYTE   W12
 BYTE   N03
 BYTE   N03  Gn2  v004
 BYTE   N03  An2
 BYTE   W03
 BYTE   Gn2  v016
 BYTE   N03  An2
 BYTE   W03
 BYTE   Gn2  v024
 BYTE   N03  An2
 BYTE   W03
 BYTE   Gn2  v036
 BYTE   N03  An2
 BYTE   W03
 BYTE   En1  v100
 BYTE   N03  Gn2  v044
 BYTE   N03  An2
 BYTE   W03
 BYTE   Gn2  v056
 BYTE   N03  An2
 BYTE   W03
 BYTE   En1  v100
 BYTE   N03  Gn2  v068
 BYTE   N03  An2
 BYTE   W03
 BYTE   Gn2  v076
 BYTE   N03  An2
 BYTE   W03
 BYTE   En1  v100
 BYTE   N03  Gn2  v088
 BYTE   N03  An2
 BYTE   W03
 BYTE   Gn2  v096
 BYTE   N03  An2
 BYTE   W03
 BYTE   Gn2  v108
 BYTE   N03  An2
 BYTE   W03
 BYTE   Gn2  v116
 BYTE   N03  An2
 BYTE   W03
 BYTE   PEND 
Label_010079D0:
 BYTE   N03  Gn2  v127
 BYTE   N03  An2
 BYTE   W96
//  #11 //024   ----------------------------------------
 BYTE   W48
 BYTE   PEND 
 BYTE   W96
//  #11 //025   ----------------------------------------
 BYTE   W48
 BYTE   W96
//  #11 //026   ----------------------------------------
 BYTE   W48
 BYTE   W96
//  #11 //027   ----------------------------------------
 BYTE   W48
 BYTE   W96
//  #11 //028   ----------------------------------------
 BYTE   W48
 BYTE   W96
//  #11 //029   ----------------------------------------
 BYTE   W48
 BYTE   W96
//  #11 //030   ----------------------------------------
 BYTE   W48
Label_010079E4:
 BYTE   W96
//  #11 //031   ----------------------------------------
 BYTE   N03  En1  v100
 BYTE   W06
 BYTE   N03
 BYTE   W06
 BYTE   N03
 BYTE   W36
 BYTE   PEND 
Label_010079EE:
 BYTE   N03  En1  v100
 BYTE   W24
 BYTE   N03
 BYTE   W12
 BYTE   N03
 BYTE   W12
//  #11 //032   ----------------------------------------
 BYTE   N03
 BYTE   W12
 BYTE   N03
 BYTE   W12
 BYTE   N03
 BYTE   W18
 BYTE   N03
 BYTE   W06
 BYTE   N03
 BYTE   W12
 BYTE   N03
 BYTE   W12
 BYTE   N03
 BYTE   W12
 BYTE   N03
 BYTE   W12
 BYTE   PEND 
//  #11 //033   ----------------------------------------
 BYTE   PATT
  POIN2 Label_010078AF
//  #11 //034   ----------------------------------------
Label_01007A0C:
 BYTE   N03  Cn1  v100
 BYTE   N03  En1
 BYTE   N03  An2
 BYTE   W24
 BYTE   En1
 BYTE   W12
 BYTE   N03
 BYTE   W12
 BYTE   N03
 BYTE   W12
 BYTE   N03
 BYTE   W12
 BYTE   Cn1
 BYTE   N03  En1
 BYTE   W18
 BYTE   N03
 BYTE   W06
//  #11 //035   ----------------------------------------
 BYTE   N03
 BYTE   W12
 BYTE   N03
 BYTE   W12
 BYTE   N03
 BYTE   W12
 BYTE   N03
 BYTE   W12
 BYTE   PEND 
Label_01007A2B:
 BYTE   N03  Cn1  v100
 BYTE   N03  En1
 BYTE   W12
 BYTE   N03
 BYTE   W12
 BYTE   N03
 BYTE   W12
 BYTE   N03
 BYTE   W24
//  #11 //036   ----------------------------------------
 BYTE   N03
 BYTE   W12
 BYTE   Cn1
 BYTE   N03  En1
 BYTE   W12
 BYTE   N03
 BYTE   W12
 BYTE   N03
 BYTE   W12
 BYTE   N03
 BYTE   W12
 BYTE   N03
 BYTE   W06
 BYTE   N03
 BYTE   W06
 BYTE   N03
 BYTE   W06
 BYTE   N03
 BYTE   W06
 BYTE   PEND 
Label_01007A4C:
 BYTE   N03  Cn1  v100
 BYTE   N03  En1
 BYTE   W24
//  #11 //037   ----------------------------------------
 BYTE   N03
 BYTE   W12
 BYTE   N03
 BYTE   W12
 BYTE   N03
 BYTE   W12
 BYTE   N03
 BYTE   W12
 BYTE   Cn1
 BYTE   N03  En1
 BYTE   W18
 BYTE   N03
 BYTE   W06
 BYTE   N03
 BYTE   W12
 BYTE   N03
 BYTE   W12
//  #11 //038   ----------------------------------------
 BYTE   N03
 BYTE   W12
 BYTE   N03
 BYTE   W12
 BYTE   PEND 
Label_01007A69:
 BYTE   N03  Cn1  v100
 BYTE   N03  En1
 BYTE   W12
 BYTE   N03
 BYTE   W12
 BYTE   N03
 BYTE   W12
 BYTE   N03
 BYTE   W24
 BYTE   N03
 BYTE   W12
//  #11 //039   ----------------------------------------
 BYTE   Cn1
 BYTE   N03  En1
 BYTE   W12
 BYTE   N03
 BYTE   W12
 BYTE   N03
 BYTE   W12
 BYTE   N03
 BYTE   W04
 BYTE   N03
 BYTE   W04
 BYTE   N03
 BYTE   W04
 BYTE   N03
 BYTE   W04
 BYTE   N03
 BYTE   W04
 BYTE   N03
 BYTE   W04
 BYTE   N03
 BYTE   W04
 BYTE   N03
 BYTE   W04
 BYTE   N03
 BYTE   W04
 BYTE   PEND 
//  #11 //040   ----------------------------------------
 BYTE   PATT
  POIN2 Label_01007A0C
//  #11 //041   ----------------------------------------
 BYTE   PATT
  POIN2 Label_01007A2B
//  #11 //042   ----------------------------------------
 BYTE   PATT
  POIN2 Label_01007A4C
//  #11 //043   ----------------------------------------
Label_01007AA1:
 BYTE   N03  Cn1  v100
 BYTE   N03  En1
 BYTE   W12
 BYTE   N03
 BYTE   W12
 BYTE   N03
 BYTE   W12
 BYTE   N03
 BYTE   W24
 BYTE   N03
 BYTE   W12
 BYTE   Cn1
 BYTE   N03  En1
 BYTE   W12
 BYTE   N03
 BYTE   W12
//  #11 //044   ----------------------------------------
 BYTE   N03
 BYTE   W12
 BYTE   N03
 BYTE   N03  Gn2  v004
 BYTE   N03  An2
 BYTE   W03
 BYTE   Gn2  v016
 BYTE   N03  An2
 BYTE   W01
 BYTE   En1  v100
 BYTE   W02
 BYTE   Gn2  v024
 BYTE   N03  An2
 BYTE   W02
 BYTE   En1  v100
 BYTE   W01
 BYTE   Gn2  v036
 BYTE   N03  An2
 BYTE   W03
 BYTE   En1  v100
 BYTE   N03  Gn2  v044
 BYTE   N03  An2
 BYTE   W03
 BYTE   Gn2  v056
 BYTE   N03  An2
 BYTE   W01
 BYTE   En1  v100
 BYTE   W02
 BYTE   Gn2  v068
 BYTE   N03  An2
 BYTE   W02
 BYTE   En1  v100
 BYTE   W01
 BYTE   Gn2  v076
 BYTE   N03  An2
 BYTE   W03
 BYTE   En1  v100
 BYTE   N03  Gn2  v088
 BYTE   N03  An2
 BYTE   W03
 BYTE   Gn2  v096
 BYTE   N03  An2
 BYTE   W01
 BYTE   En1  v100
 BYTE   W02
 BYTE   Gn2  v108
 BYTE   N03  An2
 BYTE   W02
 BYTE   En1  v100
 BYTE   W01
 BYTE   Gn2  v116
 BYTE   N03  An2
 BYTE   W03
 BYTE   PEND 
Label_01007B0E:
 BYTE   N03  Cn1  v100
 BYTE   N03  En1
 BYTE   N03  Gn2  v127
 BYTE   N03  An2
 BYTE   W24
 BYTE   En1  v100
 BYTE   W12
 BYTE   N03
 BYTE   W12
//  #11 //045   ----------------------------------------
 BYTE   N03
 BYTE   W12
 BYTE   N03
 BYTE   W12
 BYTE   Cn1
 BYTE   N03  En1
 BYTE   W18
 BYTE   N03
 BYTE   W06
 BYTE   N03
 BYTE   W12
 BYTE   N03
 BYTE   W12
 BYTE   N03
 BYTE   W12
 BYTE   N03
 BYTE   W12
 BYTE   PEND 
//  #11 //046   ----------------------------------------
 BYTE   PATT
  POIN2 Label_01007A2B
//  #11 //047   ----------------------------------------
 BYTE   PATT
  POIN2 Label_01007A4C
//  #11 //048   ----------------------------------------
 BYTE   PATT
  POIN2 Label_01007A69
//  #11 //049   ----------------------------------------
 BYTE   PATT
  POIN2 Label_01007A0C
//  #11 //050   ----------------------------------------
 BYTE   PATT
  POIN2 Label_01007A2B
//  #11 //051   ----------------------------------------
 BYTE   PATT
  POIN2 Label_01007A4C
//  #11 //052   ----------------------------------------
 BYTE   PATT
  POIN2 Label_01007AA1
//  #11 //053   ----------------------------------------
Label_01007B54:
 BYTE   N03  En1  v100
 BYTE   N03  Gn2  v127
 BYTE   N03  An2
 BYTE   W24
 BYTE   En1  v100
 BYTE   W12
 BYTE   N03
 BYTE   W24
 BYTE   N03
 BYTE   W12
 BYTE   N03
 BYTE   W36
//  #11 //054   ----------------------------------------
 BYTE   N03
 BYTE   W36
 BYTE   PEND 
Label_01007B69:
 BYTE   N03  Cn1  v100
 BYTE   N03  En1
 BYTE   W24
 BYTE   N03
 BYTE   W12
 BYTE   N03
 BYTE   W12
 BYTE   N03
 BYTE   W12
//  #11 //055   ----------------------------------------
 BYTE   N03
 BYTE   W12
 BYTE   Cn1
 BYTE   N03  En1
 BYTE   W12
 BYTE   N03
 BYTE   W06
 BYTE   N03
 BYTE   W06
 BYTE   N03
 BYTE   W12
 BYTE   N03
 BYTE   W12
 BYTE   N03
 BYTE   W12
 BYTE   N03
 BYTE   W12
 BYTE   PEND 
//  #11 //056   ----------------------------------------
 BYTE   PATT
  POIN2 Label_01007B69
//  #11 //057   ----------------------------------------
 BYTE   PATT
  POIN2 Label_01007B69
//  #11 //058   ----------------------------------------
 BYTE   PATT
  POIN2 Label_01007812
//  #11 //059   ----------------------------------------
 BYTE   GoTo
  POIN2 Label_01007877
//  #11 //060   ----------------------------------------
 BYTE   PATT
  POIN2 Label_01007877
//  #11 //061   ----------------------------------------
 BYTE   PATT
  POIN2 Label_01007894
//  #11 //062   ----------------------------------------
 BYTE   PATT
  POIN2 Label_010078AF
//  #11 //063   ----------------------------------------
 BYTE   PATT
  POIN2 Label_01007894
//  #11 //064   ----------------------------------------
 BYTE   PATT
  POIN2 Label_010078AF
//  #11 //065   ----------------------------------------
 BYTE   PATT
  POIN2 Label_01007894
//  #11 //066   ----------------------------------------
 BYTE   PATT
  POIN2 Label_010078AF
//  #11 //067   ----------------------------------------
 BYTE   PATT
  POIN2 Label_010078DA
//  #11 //068   ----------------------------------------
 BYTE   PATT
  POIN2 Label_010078F7
//  #11 //069   ----------------------------------------
 BYTE   PATT
  POIN2 Label_01007918
//  #11 //070   ----------------------------------------
 BYTE   PATT
  POIN2 Label_0100793B
//  #11 //071   ----------------------------------------
 BYTE   PATT
  POIN2 Label_01007918
//  #11 //072   ----------------------------------------
 BYTE   PATT
  POIN2 Label_0100793B
//  #11 //073   ----------------------------------------
 BYTE   PATT
  POIN2 Label_01007918
//  #11 //074   ----------------------------------------
 BYTE   PATT
  POIN2 Label_0100793B
//  #11 //075   ----------------------------------------
 BYTE   PATT
  POIN2 Label_0100796E
//  #11 //076   ----------------------------------------
 BYTE   PATT
  POIN2 Label_010079D0
//  #11 //077   ----------------------------------------
 BYTE   W96
//  #11 //078   ----------------------------------------
 BYTE   W48
 BYTE   W96
//  #11 //079   ----------------------------------------
 BYTE   W48
 BYTE   W96
//  #11 //080   ----------------------------------------
 BYTE   W48
 BYTE   W96
//  #11 //081   ----------------------------------------
 BYTE   W48
 BYTE   W96
//  #11 //082   ----------------------------------------
 BYTE   W48
 BYTE   W96
//  #11 //083   ----------------------------------------
 BYTE   W48
//  #11 //084   ----------------------------------------
 BYTE   PATT
  POIN2 Label_010079E4
//  #11 //085   ----------------------------------------
 BYTE   PATT
  POIN2 Label_010079EE
//  #11 //086   ----------------------------------------
 BYTE   PATT
  POIN2 Label_010078AF
//  #11 //087   ----------------------------------------
 BYTE   PATT
  POIN2 Label_01007A0C
//  #11 //088   ----------------------------------------
 BYTE   PATT
  POIN2 Label_01007A2B
//  #11 //089   ----------------------------------------
 BYTE   PATT
  POIN2 Label_01007A4C
//  #11 //090   ----------------------------------------
 BYTE   PATT
  POIN2 Label_01007A69
//  #11 //091   ----------------------------------------
 BYTE   PATT
  POIN2 Label_01007A0C
//  #11 //092   ----------------------------------------
 BYTE   PATT
  POIN2 Label_01007A2B
//  #11 //093   ----------------------------------------
 BYTE   PATT
  POIN2 Label_01007A4C
//  #11 //094   ----------------------------------------
 BYTE   PATT
  POIN2 Label_01007AA1
//  #11 //095   ----------------------------------------
 BYTE   PATT
  POIN2 Label_01007B0E
//  #11 //096   ----------------------------------------
 BYTE   PATT
  POIN2 Label_01007A2B
//  #11 //097   ----------------------------------------
 BYTE   PATT
  POIN2 Label_01007A4C
//  #11 //098   ----------------------------------------
 BYTE   PATT
  POIN2 Label_01007A69
//  #11 //099   ----------------------------------------
 BYTE   PATT
  POIN2 Label_01007A0C
//  #11 //100   ----------------------------------------
 BYTE   PATT
  POIN2 Label_01007A2B
//  #11 //101   ----------------------------------------
 BYTE   PATT
  POIN2 Label_01007A4C
//  #11 //102   ----------------------------------------
 BYTE   PATT
  POIN2 Label_01007AA1
//  #11 //103   ----------------------------------------
 BYTE   PATT
  POIN2 Label_01007B54
//  #11 //104   ----------------------------------------
 BYTE   PATT
  POIN2 Label_01007B69
//  #11 //105   ----------------------------------------
 BYTE   N03  Cn1  v100
 BYTE   N03  En1
 BYTE   W24
 BYTE   N03
 BYTE   W12
 BYTE   N03
 BYTE   W12
 BYTE   N03
 BYTE   W12
 BYTE   N03
 BYTE   W12
 BYTE   Cn1
 BYTE   N03  En1
 BYTE   W12
 BYTE   N03
 BYTE   W06
 BYTE   N03
 BYTE   W06
//  #11 //106   ----------------------------------------
 BYTE   N03
 BYTE   W12
 BYTE   N03
 BYTE   W12
 BYTE   N03
 BYTE   W12
 BYTE   N03
 BYTE   W06
 BYTE   FINE

//******************************************************//
	ALIGN 4

BattleForStormHill:
	BYTE	11	// NumTrks
	BYTE	0	// NumBlks
	BYTE	BattleForStormHill_pri	// Priority
	BYTE	BattleForStormHill_rev	// Reverb.
    
	POIN2	BattleForStormHill_grp
    
	POIN2	BattleForStormHill_001
	POIN2	BattleForStormHill_002
	POIN2	BattleForStormHill_003
	POIN2	BattleForStormHill_004
	POIN2	BattleForStormHill_005
	POIN2	BattleForStormHill_006
	POIN2	BattleForStormHill_007
	POIN2	BattleForStormHill_008
	POIN2	BattleForStormHill_009
	POIN2	BattleForStormHill_010
	POIN2	BattleForStormHill_011

	
