//Event file generated from Sappy .s format.
	#include "MPlayDef.event"

	#define	BattleA1_grp  voicegroup000
	#define	BattleA1_pri  0
	#define	BattleA1_rev  0
	#define	BattleA1_mvl  127
	#define	BattleA1_key  0
	#define	BattleA1_tbs  1
	#define	BattleA1_exg  0
	#define	BattleA1_cmp  1

	// .rodata
	//	BattleA1
	ALIGN 4


//**************** Track 1 (Midi-Chn.0) ****************//

BattleA1_001:
//  #01 //000   ----------------------------------------
 BYTE   VOL   50*BattleA1_mvl/mxv
 BYTE   KEYSH   BattleA1_key+0
Label_01009344:
 BYTE   TEMPO   106*BattleA1_tbs/2
 BYTE   VOICE   38
 BYTE   N06  En0  v096
 BYTE   W06
 BYTE   N06
 BYTE   W06
 BYTE   N06
 BYTE   W06
 BYTE   N06
 BYTE   W06
 BYTE   N06
 BYTE   W06
 BYTE   N06
 BYTE   W06
 BYTE   N06
 BYTE   W06
 BYTE   N06
 BYTE   W06
 BYTE   N06
 BYTE   W06
 BYTE   N06
 BYTE   W06
 BYTE   N06
 BYTE   W06
 BYTE   N06
 BYTE   W06
 BYTE   N06
 BYTE   W06
 BYTE   N06
 BYTE   W06
 BYTE   N06
 BYTE   W06
 BYTE   N06
 BYTE   W06
//  #01 //001   ----------------------------------------
Label_0100936A:
 BYTE   N06  En0  v096
 BYTE   W06
 BYTE   N06
 BYTE   W06
 BYTE   N06
 BYTE   W06
 BYTE   N06
 BYTE   W06
 BYTE   N06
 BYTE   W06
 BYTE   N06
 BYTE   W06
 BYTE   N06
 BYTE   W06
 BYTE   N06
 BYTE   W06
 BYTE   Gn0
 BYTE   W06
 BYTE   N06
 BYTE   W06
 BYTE   N06
 BYTE   W06
 BYTE   N12  An0
 BYTE   W12
 BYTE   Gn0
 BYTE   W12
 BYTE   N06  An0
 BYTE   W06
 BYTE   PEND 
//  #01 //002   ----------------------------------------
Label_0100938B:
 BYTE   N06  En0  v096
 BYTE   W06
 BYTE   N06
 BYTE   W06
 BYTE   N06
 BYTE   W06
 BYTE   N06
 BYTE   W06
 BYTE   N06
 BYTE   W06
 BYTE   N06
 BYTE   W06
 BYTE   N06
 BYTE   W06
 BYTE   N06
 BYTE   W06
 BYTE   N06
 BYTE   W06
 BYTE   N06
 BYTE   W06
 BYTE   N06
 BYTE   W06
 BYTE   N06
 BYTE   W06
 BYTE   N06
 BYTE   W06
 BYTE   N06
 BYTE   W06
 BYTE   N06
 BYTE   W06
 BYTE   N06
 BYTE   W06
 BYTE   PEND 
//  #01 //003   ----------------------------------------
Label_010093AE:
 BYTE   N06  En0  v096
 BYTE   W06
 BYTE   N06
 BYTE   W06
 BYTE   N06
 BYTE   W06
 BYTE   N06
 BYTE   W06
 BYTE   N06
 BYTE   W06
 BYTE   N06
 BYTE   W06
 BYTE   N06
 BYTE   W06
 BYTE   N06
 BYTE   W06
 BYTE   Gn0
 BYTE   W06
 BYTE   N06
 BYTE   W06
 BYTE   N06
 BYTE   W06
 BYTE   N12  An0
 BYTE   W12
 BYTE   N18  Gn0
 BYTE   W18
 BYTE   PEND 
//  #01 //004   ----------------------------------------
 BYTE   PATT
  POIN2 Label_0100938B
//  #01 //005   ----------------------------------------
 BYTE   PATT
  POIN2 Label_0100936A
//  #01 //006   ----------------------------------------
 BYTE   PATT
  POIN2 Label_0100938B
//  #01 //007   ----------------------------------------
 BYTE   PATT
  POIN2 Label_010093AE
//  #01 //008   ----------------------------------------
Label_010093E1:
 BYTE   N06  En0  v096
 BYTE   W06
 BYTE   N10
 BYTE   W12
 BYTE   N12  Bn0
 BYTE   W12
 BYTE   N06  Cn1
 BYTE   W06
 BYTE   Dn1
 BYTE   W06
 BYTE   En1
 BYTE   W06
 BYTE   En0
 BYTE   W06
 BYTE   N10
 BYTE   W12
 BYTE   N12  Bn0
 BYTE   W12
 BYTE   N06  Cn1
 BYTE   W06
 BYTE   Dn1
 BYTE   W06
 BYTE   En1
 BYTE   W06
 BYTE   PEND 
//  #01 //009   ----------------------------------------
Label_01009400:
 BYTE   N06  En0  v096
 BYTE   W06
 BYTE   N10
 BYTE   W12
 BYTE   N12  Bn0
 BYTE   W12
 BYTE   N06  Cn1
 BYTE   W06
 BYTE   Dn1
 BYTE   W06
 BYTE   En1
 BYTE   W06
 BYTE   En0
 BYTE   W06
 BYTE   N12
 BYTE   W12
 BYTE   Gn0
 BYTE   W12
 BYTE   N06  En0
 BYTE   W06
 BYTE   Dn0
 BYTE   W06
 BYTE   N06
 BYTE   W06
 BYTE   PEND 
//  #01 //010   ----------------------------------------
 BYTE   En0
 BYTE   W06
 BYTE   N12
 BYTE   W12
 BYTE   Bn0
 BYTE   W12
 BYTE   N06  Cn1
 BYTE   W06
 BYTE   Dn1
 BYTE   W06
 BYTE   En1
 BYTE   W06
 BYTE   En0
 BYTE   W06
 BYTE   N12
 BYTE   W12
 BYTE   Bn0
 BYTE   W12
 BYTE   N06  Cn1
 BYTE   W06
 BYTE   Dn1
 BYTE   W06
 BYTE   En1
 BYTE   W06
//  #01 //011   ----------------------------------------
 BYTE   En0
 BYTE   W06
 BYTE   N12
 BYTE   W12
 BYTE   Bn0
 BYTE   W12
 BYTE   N06  Cn1
 BYTE   W06
 BYTE   Dn1
 BYTE   W06
 BYTE   En1
 BYTE   W06
 BYTE   En0
 BYTE   W06
 BYTE   N12
 BYTE   W12
 BYTE   N06  En1
 BYTE   W06
 BYTE   Fn1
 BYTE   W06
 BYTE   N12  Dn1
 BYTE   W12
 BYTE   N06  En1
 BYTE   W06
//  #01 //012   ----------------------------------------
 BYTE   PATT
  POIN2 Label_010093E1
//  #01 //013   ----------------------------------------
 BYTE   PATT
  POIN2 Label_01009400
//  #01 //014   ----------------------------------------
 BYTE   PATT
  POIN2 Label_010093E1
//  #01 //015   ----------------------------------------
 BYTE   N06  En0  v096
 BYTE   W06
 BYTE   N10
 BYTE   W12
 BYTE   N12  Bn0
 BYTE   W12
 BYTE   N06  Cn1
 BYTE   W06
 BYTE   Dn1
 BYTE   W06
 BYTE   En1
 BYTE   W06
 BYTE   N12  En0
 BYTE   W12
 BYTE   N06  Dn1
 BYTE   W06
 BYTE   N12  Fn1
 BYTE   W12
 BYTE   N18  Dn1
 BYTE   W18
//  #01 //016   ----------------------------------------
 BYTE   W06
 BYTE   N06  En0
 BYTE   W06
 BYTE   En1
 BYTE   W06
 BYTE   En0
 BYTE   W06
 BYTE   N06
 BYTE   W06
 BYTE   En1
 BYTE   W06
 BYTE   En0
 BYTE   W06
 BYTE   En1
 BYTE   W12
 BYTE   En0
 BYTE   W06
 BYTE   En1
 BYTE   W06
 BYTE   En0
 BYTE   W06
 BYTE   En1
 BYTE   W06
 BYTE   En0
 BYTE   W06
 BYTE   N03
 BYTE   W06
 BYTE   N06  En1
 BYTE   W06
//  #01 //017   ----------------------------------------
Label_0100949E:
 BYTE   N06  En0  v096
 BYTE   W06
 BYTE   N06
 BYTE   W06
 BYTE   En1
 BYTE   W06
 BYTE   En0
 BYTE   W06
 BYTE   N06
 BYTE   W06
 BYTE   En1
 BYTE   W06
 BYTE   En0
 BYTE   W06
 BYTE   En1
 BYTE   W12
 BYTE   En0
 BYTE   W06
 BYTE   En1
 BYTE   W06
 BYTE   En0
 BYTE   W06
 BYTE   En1
 BYTE   W06
 BYTE   En0
 BYTE   W12
 BYTE   En1
 BYTE   W06
 BYTE   PEND 
//  #01 //018   ----------------------------------------
Label_010094BD:
 BYTE   N06  En0  v096
 BYTE   W06
 BYTE   N06
 BYTE   W06
 BYTE   En1
 BYTE   W06
 BYTE   En0
 BYTE   W06
 BYTE   N06
 BYTE   W06
 BYTE   En1
 BYTE   W06
 BYTE   En0
 BYTE   W06
 BYTE   En1
 BYTE   W12
 BYTE   En0
 BYTE   W06
 BYTE   En1
 BYTE   W06
 BYTE   En0
 BYTE   W06
 BYTE   En1
 BYTE   W06
 BYTE   En0
 BYTE   W06
 BYTE   N03
 BYTE   W06
 BYTE   N06  En1
 BYTE   W06
 BYTE   PEND 
//  #01 //019   ----------------------------------------
 BYTE   En0
 BYTE   W06
 BYTE   N06
 BYTE   W06
 BYTE   En1
 BYTE   W06
 BYTE   En0
 BYTE   W06
 BYTE   N06
 BYTE   W06
 BYTE   En1
 BYTE   W06
 BYTE   En0
 BYTE   W06
 BYTE   Dn1
 BYTE   W12
 BYTE   En0
 BYTE   W06
 BYTE   En1
 BYTE   W06
 BYTE   En0
 BYTE   W06
 BYTE   Fn1
 BYTE   W06
 BYTE   En0
 BYTE   W06
 BYTE   N06
 BYTE   W06
 BYTE   En1
 BYTE   W06
//  #01 //020   ----------------------------------------
 BYTE   PATT
  POIN2 Label_010094BD
//  #01 //021   ----------------------------------------
 BYTE   PATT
  POIN2 Label_0100949E
//  #01 //022   ----------------------------------------
 BYTE   PATT
  POIN2 Label_010094BD
//  #01 //023   ----------------------------------------
 BYTE   N06  En0  v096
 BYTE   W06
 BYTE   N06
 BYTE   W06
 BYTE   En1
 BYTE   W06
 BYTE   En0
 BYTE   W06
 BYTE   N06
 BYTE   W06
 BYTE   En1
 BYTE   W06
 BYTE   En0
 BYTE   W06
 BYTE   Dn1
 BYTE   W12
 BYTE   En0
 BYTE   W06
 BYTE   En1
 BYTE   W06
 BYTE   En0
 BYTE   W06
 BYTE   Fn0
 BYTE   W06
 BYTE   Dn0
 BYTE   W06
 BYTE   N06
 BYTE   W06
 BYTE   En0
 BYTE   W06
//  #01 //024   ----------------------------------------
 BYTE   GoTo
  POIN2 Label_01009344
 BYTE   FINE

//**************** Track 2 (Midi-Chn.1) ****************//

BattleA1_002:
//  #02 //000   ----------------------------------------
 BYTE   KEYSH   BattleA1_key+0
Label_0100843E:
 BYTE   VOICE   30
 BYTE   VOL   30*BattleA1_mvl/mxv
 BYTE   PAN   c_v+47
 BYTE   N05  En1  v096
 BYTE   W06
 BYTE   N05
 BYTE   W06
 BYTE   N05
 BYTE   W06
 BYTE   N05
 BYTE   W06
 BYTE   N05
 BYTE   W06
 BYTE   N05
 BYTE   W06
 BYTE   N05
 BYTE   W06
 BYTE   N05
 BYTE   W06
 BYTE   Bn1
 BYTE   W06
 BYTE   N05
 BYTE   W06
 BYTE   N05
 BYTE   W06
 BYTE   N05
 BYTE   W06
 BYTE   N05
 BYTE   W06
 BYTE   N05
 BYTE   W06
 BYTE   N05
 BYTE   W06
 BYTE   N05
 BYTE   W06
//  #02 //001   ----------------------------------------
Label_01008466:
 BYTE   N05  En1  v096
 BYTE   W06
 BYTE   N05
 BYTE   W06
 BYTE   N05
 BYTE   W06
 BYTE   N05
 BYTE   W06
 BYTE   N05
 BYTE   W06
 BYTE   N05
 BYTE   W06
 BYTE   N05
 BYTE   W06
 BYTE   N05
 BYTE   W06
 BYTE   Gn1
 BYTE   W06
 BYTE   N05
 BYTE   W06
 BYTE   N05
 BYTE   W06
 BYTE   N12  An1
 BYTE   W12
 BYTE   Gn1
 BYTE   W12
 BYTE   N06  An1
 BYTE   W06
 BYTE   PEND 
//  #02 //002   ----------------------------------------
Label_01008487:
 BYTE   N05  En1  v096
 BYTE   W06
 BYTE   N05
 BYTE   W06
 BYTE   N05
 BYTE   W06
 BYTE   N05
 BYTE   W06
 BYTE   N05
 BYTE   W06
 BYTE   N05
 BYTE   W06
 BYTE   N05
 BYTE   W06
 BYTE   N05
 BYTE   W06
 BYTE   Bn1
 BYTE   W06
 BYTE   N05
 BYTE   W06
 BYTE   N05
 BYTE   W06
 BYTE   N05
 BYTE   W06
 BYTE   N05
 BYTE   W06
 BYTE   N05
 BYTE   W06
 BYTE   N05
 BYTE   W06
 BYTE   N05
 BYTE   W06
 BYTE   PEND 
//  #02 //003   ----------------------------------------
Label_010084AA:
 BYTE   N05  En1  v096
 BYTE   W06
 BYTE   N05
 BYTE   W06
 BYTE   N05
 BYTE   W06
 BYTE   N05
 BYTE   W06
 BYTE   N05
 BYTE   W06
 BYTE   N05
 BYTE   W06
 BYTE   N05
 BYTE   W06
 BYTE   N05
 BYTE   W06
 BYTE   Gn1
 BYTE   W06
 BYTE   N05
 BYTE   W06
 BYTE   N05
 BYTE   W06
 BYTE   N12  An1
 BYTE   W12
 BYTE   N18  Gn1
 BYTE   W18
 BYTE   PEND 
//  #02 //004   ----------------------------------------
 BYTE   PATT
  POIN2 Label_01008487
//  #02 //005   ----------------------------------------
 BYTE   PATT
  POIN2 Label_01008466
//  #02 //006   ----------------------------------------
 BYTE   PATT
  POIN2 Label_01008487
//  #02 //007   ----------------------------------------
 BYTE   PATT
  POIN2 Label_010084AA
//  #02 //008   ----------------------------------------
 BYTE   VOL   29*BattleA1_mvl/mxv
 BYTE   N05  En1  v092
 BYTE   W06
 BYTE   En1  v096
 BYTE   W06
 BYTE   N05
 BYTE   W05
 BYTE   En1  v100
 BYTE   W06
 BYTE   En1  v096
 BYTE   W07
 BYTE   N05
 BYTE   W06
 BYTE   N05
 BYTE   W06
 BYTE   En1  v100
 BYTE   W06
 BYTE   En1  v096
 BYTE   W06
 BYTE   N05
 BYTE   W05
 BYTE   En1  v100
 BYTE   W06
 BYTE   N05
 BYTE   W07
 BYTE   En1  v096
 BYTE   W06
 BYTE   En1  v100
 BYTE   W06
 BYTE   En1  v096
 BYTE   W06
 BYTE   N05
 BYTE   W05
 BYTE   En1  v100
 BYTE   W01
//  #02 //009   ----------------------------------------
 BYTE   W05
 BYTE   N04
 BYTE   W06
 BYTE   N05
 BYTE   W07
 BYTE   En1  v096
 BYTE   W05
 BYTE   N05
 BYTE   W07
 BYTE   N05
 BYTE   W06
 BYTE   N05
 BYTE   W06
 BYTE   En1  v100
 BYTE   W06
 BYTE   En1  v096
 BYTE   W06
 BYTE   N05
 BYTE   W06
 BYTE   N05
 BYTE   W06
 BYTE   En1  v100
 BYTE   W05
 BYTE   En1  v096
 BYTE   W07
 BYTE   N05
 BYTE   W05
 BYTE   En1  v100
 BYTE   W07
 BYTE   En1  v092
 BYTE   W06
//  #02 //010   ----------------------------------------
 BYTE   En1  v096
 BYTE   W05
 BYTE   En1  v100
 BYTE   W06
 BYTE   En1  v096
 BYTE   W08
 BYTE   N05
 BYTE   W05
 BYTE   N03  En1  v092
 BYTE   W06
 BYTE   N05  En1  v096
 BYTE   W06
 BYTE   En1  v092
 BYTE   W06
 BYTE   En1  v096
 BYTE   W05
 BYTE   N05
 BYTE   W06
 BYTE   N05
 BYTE   W07
 BYTE   En1  v100
 BYTE   W05
 BYTE   En1  v096
 BYTE   W06
 BYTE   N05
 BYTE   W06
 BYTE   En1  v100
 BYTE   W07
 BYTE   En1  v096
 BYTE   W06
 BYTE   N05
 BYTE   W06
//  #02 //011   ----------------------------------------
 BYTE   N04
 BYTE   W06
 BYTE   N05  En1  v092
 BYTE   W06
 BYTE   En1  v096
 BYTE   W06
 BYTE   N05
 BYTE   W05
 BYTE   En1  v100
 BYTE   W06
 BYTE   N05
 BYTE   W07
 BYTE   En1  v096
 BYTE   W06
 BYTE   N05
 BYTE   W06
 BYTE   N05
 BYTE   W06
 BYTE   En1  v100
 BYTE   W05
 BYTE   En1  v096
 BYTE   W06
 BYTE   N05
 BYTE   W06
 BYTE   En1  v100
 BYTE   W06
 BYTE   N05
 BYTE   W07
 BYTE   En1  v096
 BYTE   W06
 BYTE   N05
 BYTE   W06
//  #02 //012   ----------------------------------------
 BYTE   N05
 BYTE   W06
 BYTE   N05
 BYTE   W05
 BYTE   N04
 BYTE   W07
 BYTE   N05
 BYTE   W05
 BYTE   N04
 BYTE   W07
 BYTE   N05
 BYTE   W06
 BYTE   N05
 BYTE   W06
 BYTE   N05
 BYTE   W05
 BYTE   En1  v100
 BYTE   W06
 BYTE   En1  v104
 BYTE   W07
 BYTE   En1  v096
 BYTE   W05
 BYTE   En1  v100
 BYTE   W06
 BYTE   En1  v096
 BYTE   W07
 BYTE   En1  v100
 BYTE   W06
 BYTE   N04  En1  v096
 BYTE   W05
 BYTE   N05
 BYTE   W07
//  #02 //013   ----------------------------------------
 BYTE   W01
 BYTE   En1  v100
 BYTE   W05
 BYTE   En1  v092
 BYTE   W06
 BYTE   N04  En1  v096
 BYTE   W05
 BYTE   N05
 BYTE   W06
 BYTE   En1  v100
 BYTE   W07
 BYTE   En1  v092
 BYTE   W05
 BYTE   En1  v096
 BYTE   W07
 BYTE   En1  v092
 BYTE   W05
 BYTE   N04  En1  v100
 BYTE   W07
 BYTE   N05  En1  v096
 BYTE   W06
 BYTE   En1  v092
 BYTE   W05
 BYTE   En1  v100
 BYTE   W06
 BYTE   N05
 BYTE   W06
 BYTE   En1  v096
 BYTE   W06
 BYTE   N05
 BYTE   W06
 BYTE   N05
 BYTE   W06
 BYTE   En1  v104
 BYTE   W01
//  #02 //014   ----------------------------------------
 BYTE   W06
 BYTE   N05
 BYTE   W05
 BYTE   En1  v092
 BYTE   W07
 BYTE   En1  v100
 BYTE   W05
 BYTE   En1  v096
 BYTE   W07
 BYTE   En1  v100
 BYTE   W06
 BYTE   N05
 BYTE   W06
 BYTE   N05
 BYTE   W06
 BYTE   N04  En1  v104
 BYTE   W05
 BYTE   N05  En1  v096
 BYTE   W07
 BYTE   En1  v100
 BYTE   W06
 BYTE   En1  v096
 BYTE   W06
 BYTE   N05
 BYTE   W06
 BYTE   En1  v100
 BYTE   W05
 BYTE   En1  v092
 BYTE   W07
 BYTE   En1  v096
 BYTE   W05
 BYTE   En1  v100
 BYTE   W01
//  #02 //015   ----------------------------------------
 BYTE   W06
 BYTE   En1  v096
 BYTE   W06
 BYTE   N05
 BYTE   W06
 BYTE   En1  v100
 BYTE   W06
 BYTE   N05
 BYTE   W06
 BYTE   En1  v096
 BYTE   W05
 BYTE   N04
 BYTE   W07
 BYTE   N05  En1  v092
 BYTE   W05
 BYTE   En1  v096
 BYTE   W06
 BYTE   En1  v100
 BYTE   W07
 BYTE   N05
 BYTE   W05
 BYTE   N04  En1  v096
 BYTE   W06
 BYTE   N05  En1  v100
 BYTE   W07
 BYTE   En1  v096
 BYTE   W05
 BYTE   N05
 BYTE   W06
 BYTE   En1  v100
 BYTE   W07
//  #02 //016   ----------------------------------------
 BYTE   VOL   22*BattleA1_mvl/mxv
 BYTE   N11  En1  v096
 BYTE   W11
 BYTE   N05
 BYTE   W07
 BYTE   En1  v104
 BYTE   W05
 BYTE   En1  v096
 BYTE   W06
 BYTE   N05
 BYTE   W07
 BYTE   N05
 BYTE   W05
 BYTE   En1  v100
 BYTE   W07
 BYTE   En1  v096
 BYTE   W05
 BYTE   N05
 BYTE   W13
 BYTE   N05
 BYTE   W05
 BYTE   En1  v100
 BYTE   W06
 BYTE   En1  v104
 BYTE   W12
 BYTE   En1  v096
 BYTE   W07
//  #02 //017   ----------------------------------------
 BYTE   N11
 BYTE   W11
 BYTE   N05
 BYTE   W06
 BYTE   En1  v092
 BYTE   W07
 BYTE   En1  v096
 BYTE   W05
 BYTE   N05
 BYTE   W06
 BYTE   N05
 BYTE   W06
 BYTE   N05
 BYTE   W07
 BYTE   En1  v100
 BYTE   W06
 BYTE   En1  v104
 BYTE   W11
 BYTE   En1  v100
 BYTE   W06
 BYTE   En1  v096
 BYTE   W05
 BYTE   N05
 BYTE   W15
 BYTE   N04  En1  v100
 BYTE   W04
 BYTE   N11
 BYTE   W01
//  #02 //018   ----------------------------------------
 BYTE   W11
 BYTE   N05  En1  v096
 BYTE   W07
 BYTE   En1  v092
 BYTE   W06
 BYTE   N04  En1  v096
 BYTE   W04
 BYTE   N05  En1  v100
 BYTE   W07
 BYTE   En1  v096
 BYTE   W07
 BYTE   N05
 BYTE   W06
 BYTE   N05
 BYTE   W06
 BYTE   En1  v100
 BYTE   W11
 BYTE   En1  v096
 BYTE   W06
 BYTE   N05
 BYTE   W06
 BYTE   N05
 BYTE   W12
 BYTE   En1  v100
 BYTE   W07
//  #02 //019   ----------------------------------------
 BYTE   N11  En1  v092
 BYTE   W12
 BYTE   N05
 BYTE   W05
 BYTE   En1  v096
 BYTE   W06
 BYTE   En1  v100
 BYTE   W07
 BYTE   En1  v096
 BYTE   W05
 BYTE   N05
 BYTE   W07
 BYTE   N04  En1  v092
 BYTE   W04
 BYTE   N05  En1  v096
 BYTE   W08
 BYTE   En1  v092
 BYTE   W11
 BYTE   En1  v096
 BYTE   W07
 BYTE   N05
 BYTE   W06
 BYTE   N05
 BYTE   W12
 BYTE   N05
 BYTE   W05
 BYTE   N01  En1  v104
 BYTE   W01
//  #02 //020   ----------------------------------------
 BYTE   VOL   28*BattleA1_mvl/mxv
 BYTE   PAN   c_v+47
 BYTE   VOL   28*BattleA1_mvl/mxv
 BYTE   PAN   c_v+47
 BYTE   N06
 BYTE   W06
 BYTE   En1  v096
 BYTE   W06
 BYTE   N06
 BYTE   W06
 BYTE   N06
 BYTE   W06
 BYTE   En1  v104
 BYTE   W06
 BYTE   En1  v096
 BYTE   W06
 BYTE   N06
 BYTE   W06
 BYTE   N06
 BYTE   W06
 BYTE   En1  v104
 BYTE   W06
 BYTE   En1  v096
 BYTE   W06
 BYTE   N06
 BYTE   W06
 BYTE   N06
 BYTE   W06
 BYTE   En1  v104
 BYTE   W06
 BYTE   En1  v096
 BYTE   W06
 BYTE   N06
 BYTE   W06
 BYTE   N06
 BYTE   W06
//  #02 //021   ----------------------------------------
Label_01008704:
 BYTE   N06  En1  v104
 BYTE   W06
 BYTE   En1  v096
 BYTE   W06
 BYTE   N06
 BYTE   W06
 BYTE   N06
 BYTE   W06
 BYTE   En1  v104
 BYTE   W06
 BYTE   En1  v096
 BYTE   W06
 BYTE   N06
 BYTE   W06
 BYTE   N06
 BYTE   W06
 BYTE   En1  v104
 BYTE   W06
 BYTE   En1  v096
 BYTE   W06
 BYTE   N06
 BYTE   W06
 BYTE   N06
 BYTE   W06
 BYTE   En1  v104
 BYTE   W06
 BYTE   En1  v096
 BYTE   W06
 BYTE   N06
 BYTE   W06
 BYTE   N06
 BYTE   W06
 BYTE   PEND 
//  #02 //022   ----------------------------------------
 BYTE   PATT
  POIN2 Label_01008704
//  #02 //023   ----------------------------------------
 BYTE   N06  En1  v104
 BYTE   W06
 BYTE   En1  v096
 BYTE   W06
 BYTE   N06
 BYTE   W06
 BYTE   N06
 BYTE   W06
 BYTE   En1  v104
 BYTE   W06
 BYTE   En1  v096
 BYTE   W06
 BYTE   N06
 BYTE   W06
 BYTE   N06
 BYTE   W06
 BYTE   En1  v104
 BYTE   W06
 BYTE   En1  v096
 BYTE   W06
 BYTE   N06
 BYTE   W06
 BYTE   N06
 BYTE   W06
 BYTE   Fn1
 BYTE   W05
 BYTE   N12  Dn1
 BYTE   W12
 BYTE   N05  En1  v100
 BYTE   W07
//  #02 //024   ----------------------------------------
 BYTE   GoTo
  POIN2 Label_0100843E
 BYTE   FINE

//**************** Track 3 (Midi-Chn.2) ****************//

BattleA1_003:
//  #03 //000   ----------------------------------------
 BYTE   KEYSH   BattleA1_key+0
Label_010072CA:
 BYTE   VOICE   30
 BYTE   VOL   24*BattleA1_mvl/mxv
 BYTE   PAN   c_v-51
 BYTE   N05  En1  v100
 BYTE   W06
 BYTE   N04  En1  v092
 BYTE   W06
 BYTE   N05  En1  v104
 BYTE   W05
 BYTE   En1  v096
 BYTE   W06
 BYTE   N05
 BYTE   W07
 BYTE   N05
 BYTE   W06
 BYTE   En1  v100
 BYTE   W06
 BYTE   En1  v096
 BYTE   W06
 BYTE   Bn1
 BYTE   W06
 BYTE   N05
 BYTE   W06
 BYTE   Bn1  v100
 BYTE   W06
 BYTE   N05
 BYTE   W07
 BYTE   N05
 BYTE   W05
 BYTE   N04  Bn1  v092
 BYTE   W05
 BYTE   N05  Bn1  v100
 BYTE   W06
 BYTE   Bn1  v096
 BYTE   W07
//  #03 //001   ----------------------------------------
 BYTE   En1
 BYTE   W05
 BYTE   N04
 BYTE   W07
 BYTE   N05  En1  v100
 BYTE   W05
 BYTE   N05
 BYTE   W06
 BYTE   En1  v096
 BYTE   W06
 BYTE   N05
 BYTE   W06
 BYTE   N05
 BYTE   W06
 BYTE   En1  v100
 BYTE   W06
 BYTE   Gn1  v096
 BYTE   W06
 BYTE   N05
 BYTE   W06
 BYTE   N05
 BYTE   W06
 BYTE   N12  An1
 BYTE   W12
 BYTE   Gn1  v100
 BYTE   W13
 BYTE   N06  An1  v096
 BYTE   W06
//  #03 //002   ----------------------------------------
 BYTE   N05  En1  v100
 BYTE   W06
 BYTE   En1  v096
 BYTE   W05
 BYTE   N04  En1  v092
 BYTE   W07
 BYTE   N05  En1  v100
 BYTE   W06
 BYTE   N05
 BYTE   W05
 BYTE   N05
 BYTE   W07
 BYTE   N05
 BYTE   W06
 BYTE   N05
 BYTE   W05
 BYTE   Bn1  v096
 BYTE   W06
 BYTE   N05
 BYTE   W06
 BYTE   Bn1  v100
 BYTE   W06
 BYTE   N05
 BYTE   W07
 BYTE   Bn1  v096
 BYTE   W05
 BYTE   N05
 BYTE   W06
 BYTE   Bn1  v100
 BYTE   W06
 BYTE   Bn1  v092
 BYTE   W07
//  #03 //003   ----------------------------------------
 BYTE   En1  v096
 BYTE   W06
 BYTE   N05
 BYTE   W05
 BYTE   N04  En1  v100
 BYTE   W06
 BYTE   N05  En1  v096
 BYTE   W07
 BYTE   En1  v092
 BYTE   W06
 BYTE   En1  v096
 BYTE   W06
 BYTE   En1  v100
 BYTE   W05
 BYTE   En1  v104
 BYTE   W06
 BYTE   Gn1  v096
 BYTE   W07
 BYTE   Gn1  v100
 BYTE   W06
 BYTE   Gn1  v096
 BYTE   W06
 BYTE   N12  An1
 BYTE   W12
 BYTE   N18  Gn1
 BYTE   W18
//  #03 //004   ----------------------------------------
 BYTE   N05  En1  v100
 BYTE   W06
 BYTE   En1  v096
 BYTE   W05
 BYTE   N04  En1  v104
 BYTE   W07
 BYTE   N05  En1  v092
 BYTE   W05
 BYTE   En1  v100
 BYTE   W07
 BYTE   En1  v096
 BYTE   W06
 BYTE   En1  v100
 BYTE   W06
 BYTE   En1  v104
 BYTE   W06
 BYTE   Bn1  v096
 BYTE   W06
 BYTE   N05
 BYTE   W06
 BYTE   Bn1  v100
 BYTE   W06
 BYTE   N05
 BYTE   W05
 BYTE   N05
 BYTE   W07
 BYTE   Bn1  v096
 BYTE   W05
 BYTE   Bn1  v100
 BYTE   W07
 BYTE   Bn1  v096
 BYTE   W05
 BYTE   En1  v092
 BYTE   W01
//  #03 //005   ----------------------------------------
 BYTE   W06
 BYTE   En1  v096
 BYTE   W05
 BYTE   En1  v100
 BYTE   W06
 BYTE   En1  v096
 BYTE   W07
 BYTE   En1  v100
 BYTE   W06
 BYTE   N04  En1  v096
 BYTE   W06
 BYTE   N05  En1  v100
 BYTE   W06
 BYTE   N04  En1  v096
 BYTE   W06
 BYTE   N05  Gn1  v100
 BYTE   W06
 BYTE   Gn1  v096
 BYTE   W06
 BYTE   N05
 BYTE   W05
 BYTE   N12  An1  v100
 BYTE   W13
 BYTE   Gn1  v096
 BYTE   W12
 BYTE   N06  An1
 BYTE   W05
 BYTE   N05  En1  v100
 BYTE   W01
//  #03 //006   ----------------------------------------
 BYTE   W05
 BYTE   En1  v096
 BYTE   W07
 BYTE   N05
 BYTE   W06
 BYTE   N04
 BYTE   W06
 BYTE   N05
 BYTE   W05
 BYTE   N04
 BYTE   W07
 BYTE   N05
 BYTE   W05
 BYTE   N05
 BYTE   W07
 BYTE   Bn1  v100
 BYTE   W06
 BYTE   Bn1  v096
 BYTE   W05
 BYTE   Bn1  v100
 BYTE   W06
 BYTE   N05
 BYTE   W07
 BYTE   Bn1  v096
 BYTE   W05
 BYTE   Bn1  v100
 BYTE   W07
 BYTE   Bn1  v096
 BYTE   W06
 BYTE   N05
 BYTE   W05
 BYTE   En1
 BYTE   W01
//  #03 //007   ----------------------------------------
 BYTE   W06
 BYTE   En1  v100
 BYTE   W05
 BYTE   N05
 BYTE   W06
 BYTE   N05
 BYTE   W06
 BYTE   En1  v096
 BYTE   W06
 BYTE   En1  v092
 BYTE   W06
 BYTE   En1  v100
 BYTE   W07
 BYTE   En1  v096
 BYTE   W05
 BYTE   Gn1  v092
 BYTE   W06
 BYTE   Gn1  v096
 BYTE   W06
 BYTE   N05
 BYTE   W07
 BYTE   N12  An1  v100
 BYTE   W11
 BYTE   N18  Gn1  v096
 BYTE   W19
//  #03 //008   ----------------------------------------
 BYTE   VOL   21*BattleA1_mvl/mxv
 BYTE   N18  En1
 BYTE   W18
 BYTE   En2
 BYTE   W18
 BYTE   N06  Dn2
 BYTE   W06
 BYTE   En2
 BYTE   W06
 BYTE   N12  En1
 BYTE   W12
 BYTE   N06
 BYTE   W06
 BYTE   N18  En2
 BYTE   W18
 BYTE   N12  Dn2
 BYTE   W12
//  #03 //009   ----------------------------------------
Label_0100743E:
 BYTE   N18  En1  v096
 BYTE   W18
 BYTE   En2
 BYTE   W18
 BYTE   N06  Dn2
 BYTE   W06
 BYTE   En2
 BYTE   W06
 BYTE   N12  En1
 BYTE   W12
 BYTE   N06
 BYTE   W06
 BYTE   N18  En2
 BYTE   W18
 BYTE   N12  Dn2
 BYTE   W12
 BYTE   PEND 
//  #03 //010   ----------------------------------------
 BYTE   PATT
  POIN2 Label_0100743E
//  #03 //011   ----------------------------------------
 BYTE   PATT
  POIN2 Label_0100743E
//  #03 //012   ----------------------------------------
 BYTE   N18  En1  v096
 BYTE   W18
 BYTE   En2
 BYTE   W10
 BYTE   VOL   28*BattleA1_mvl/mxv
 BYTE   W08
 BYTE   N06  Dn2
 BYTE   W06
 BYTE   En2
 BYTE   W06
 BYTE   N12  En1
 BYTE   W12
 BYTE   N06
 BYTE   W06
 BYTE   N09  Dn2
 BYTE   W12
 BYTE   Cn2
 BYTE   W12
 BYTE   N22  Bn1
 BYTE   W06
//  #03 //013   ----------------------------------------
 BYTE   W18
 BYTE   N18  En2
 BYTE   W18
 BYTE   N06  Dn2
 BYTE   W06
 BYTE   En2
 BYTE   W06
 BYTE   N12  En1
 BYTE   W12
 BYTE   N06
 BYTE   W06
 BYTE   N18  En2
 BYTE   W18
 BYTE   N12  Dn2
 BYTE   W12
//  #03 //014   ----------------------------------------
 BYTE   N18  En1
 BYTE   W18
 BYTE   En2
 BYTE   W18
 BYTE   N06  Dn2
 BYTE   W06
 BYTE   En2
 BYTE   W06
 BYTE   N12  En1
 BYTE   W12
 BYTE   N06
 BYTE   W06
 BYTE   N09  Dn2
 BYTE   W12
 BYTE   Cn2
 BYTE   W12
 BYTE   N22  Bn1
 BYTE   W06
//  #03 //015   ----------------------------------------
 BYTE   W18
 BYTE   N18  En2
 BYTE   W18
 BYTE   N06  Dn2
 BYTE   W06
 BYTE   En2
 BYTE   W06
 BYTE   N12  En1
 BYTE   W12
 BYTE   N06
 BYTE   W06
 BYTE   N18  En2
 BYTE   W16
 BYTE   VOL   22*BattleA1_mvl/mxv
 BYTE   W02
 BYTE   N12  Dn2
 BYTE   W06
 BYTE   VOL   7*BattleA1_mvl/mxv
 BYTE   W06
//  #03 //016   ----------------------------------------
 BYTE   N11  En1
 BYTE   W11
 BYTE   N04  En1  v100
 BYTE   W06
 BYTE   N05  En1  v108
 BYTE   W06
 BYTE   En1  v096
 BYTE   W06
 BYTE   En1  v092
 BYTE   W07
 BYTE   N05
 BYTE   W06
 BYTE   En1  v100
 BYTE   W06
 BYTE   En1  v096
 BYTE   W06
 BYTE   N04
 BYTE   W12
 BYTE   N05  En1  v104
 BYTE   W05
 BYTE   En1  v100
 BYTE   W07
 BYTE   En1  v104
 BYTE   W11
 BYTE   En1  v100
 BYTE   W06
 BYTE   N11  En1  v096
 BYTE   W01
//  #03 //017   ----------------------------------------
 BYTE   W11
 BYTE   N05  En1  v100
 BYTE   W07
 BYTE   En1  v092
 BYTE   W06
 BYTE   En1  v096
 BYTE   W06
 BYTE   N04  En1  v092
 BYTE   W05
 BYTE   N05  En1  v096
 BYTE   W07
 BYTE   En1  v100
 BYTE   W05
 BYTE   N05
 BYTE   W06
 BYTE   En1  v104
 BYTE   W12
 BYTE   En1  v100
 BYTE   W06
 BYTE   En1  v096
 BYTE   W05
 BYTE   N05
 BYTE   W15
 BYTE   N04  En1  v104
 BYTE   W05
//  #03 //018   ----------------------------------------
 BYTE   N11
 BYTE   W12
 BYTE   N05  En1  v092
 BYTE   W06
 BYTE   En1  v088
 BYTE   W06
 BYTE   N04  En1  v096
 BYTE   W05
 BYTE   N05
 BYTE   W06
 BYTE   N05
 BYTE   W07
 BYTE   En1  v100
 BYTE   W05
 BYTE   En1  v092
 BYTE   W07
 BYTE   En1  v096
 BYTE   W10
 BYTE   N05
 BYTE   W07
 BYTE   N05
 BYTE   W06
 BYTE   En1  v100
 BYTE   W12
 BYTE   En1  v092
 BYTE   W07
//  #03 //019   ----------------------------------------
 BYTE   N11  En1  v084
 BYTE   W12
 BYTE   N05  En1  v096
 BYTE   W05
 BYTE   N05
 BYTE   W06
 BYTE   En1  v100
 BYTE   W07
 BYTE   N05
 BYTE   W05
 BYTE   N05
 BYTE   W07
 BYTE   N04  En1  v092
 BYTE   W05
 BYTE   N05  En1  v096
 BYTE   W06
 BYTE   En1  v092
 BYTE   W13
 BYTE   N05
 BYTE   W06
 BYTE   En1  v096
 BYTE   W06
 BYTE   En1  v100
 BYTE   W12
 BYTE   N05
 BYTE   W05
 BYTE   N01  En1  v104
 BYTE   W01
//  #03 //020   ----------------------------------------
 BYTE   W96
//  #03 //021   ----------------------------------------
 BYTE   W96
//  #03 //022   ----------------------------------------
 BYTE   W96
//  #03 //023   ----------------------------------------
 BYTE   W96
//  #03 //024   ----------------------------------------
 BYTE   GoTo
  POIN2 Label_010072CA
 BYTE   FINE

//**************** Track 4 (Midi-Chn.3) ****************//

BattleA1_004:
//  #04 //000   ----------------------------------------
 BYTE   KEYSH   BattleA1_key+0
Label_010088FE:
 BYTE   VOICE   13
 BYTE   VOL   41*BattleA1_mvl/mxv
 BYTE   PAN   c_v-30
 BYTE   VOL   41*BattleA1_mvl/mxv
 BYTE   PAN   c_v-30
 BYTE   N48  En1  v096
 BYTE   W96
//  #04 //001   ----------------------------------------
 BYTE   N48
 BYTE   W96
//  #04 //002   ----------------------------------------
 BYTE   N48
 BYTE   W96
//  #04 //003   ----------------------------------------
 BYTE   N48
 BYTE   W96
//  #04 //004   ----------------------------------------
 BYTE   N48
 BYTE   W96
//  #04 //005   ----------------------------------------
 BYTE   N48
 BYTE   W96
//  #04 //006   ----------------------------------------
 BYTE   N48
 BYTE   W96
//  #04 //007   ----------------------------------------
 BYTE   N48
 BYTE   W96
//  #04 //008   ----------------------------------------
Label_0100891A:
 BYTE   N18  En1  v096
 BYTE   W18
 BYTE   En2
 BYTE   W18
 BYTE   N06  Dn2
 BYTE   W06
 BYTE   En2
 BYTE   W06
 BYTE   N12  En1
 BYTE   W12
 BYTE   N06
 BYTE   W06
 BYTE   N18  En2
 BYTE   W18
 BYTE   N12  Dn2
 BYTE   W12
 BYTE   PEND 
//  #04 //009   ----------------------------------------
 BYTE   PATT
  POIN2 Label_0100891A
//  #04 //010   ----------------------------------------
 BYTE   PATT
  POIN2 Label_0100891A
//  #04 //011   ----------------------------------------
 BYTE   PATT
  POIN2 Label_0100891A
//  #04 //012   ----------------------------------------
 BYTE   PATT
  POIN2 Label_0100891A
//  #04 //013   ----------------------------------------
 BYTE   PATT
  POIN2 Label_0100891A
//  #04 //014   ----------------------------------------
 BYTE   PATT
  POIN2 Label_0100891A
//  #04 //015   ----------------------------------------
 BYTE   PATT
  POIN2 Label_0100891A
//  #04 //016   ----------------------------------------
Label_01008954:
 BYTE   N48  En1  v096
 BYTE   W84
 BYTE   N48
 BYTE   W12
 BYTE   PEND 
//  #04 //017   ----------------------------------------
 BYTE   W96
//  #04 //018   ----------------------------------------
 BYTE   PATT
  POIN2 Label_01008954
//  #04 //019   ----------------------------------------
 BYTE   W96
//  #04 //020   ----------------------------------------
 BYTE   W96
//  #04 //021   ----------------------------------------
 BYTE   W96
//  #04 //022   ----------------------------------------
 BYTE   W96
//  #04 //023   ----------------------------------------
 BYTE   W96
//  #04 //024   ----------------------------------------
 BYTE   GoTo
  POIN2 Label_010088FE
 BYTE   FINE

//**************** Track 5 (Midi-Chn.4) ****************//

BattleA1_005:
//  #05 //000   ----------------------------------------
 BYTE   KEYSH   BattleA1_key+0
Label_01007142:
 BYTE   VOICE   104
 BYTE   VOL   36*BattleA1_mvl/mxv
 BYTE   N96  En3  v096
 BYTE   N96  Bn3
 BYTE   W84
 BYTE   W01
 BYTE   BEND   c_v+0
 BYTE   W03
 BYTE   BEND   c_v+0
 BYTE   W01
 BYTE   BEND   c_v+22
 BYTE   W01
 BYTE   BEND   c_v+33
 BYTE   W01
 BYTE   BEND   c_v+22
 BYTE   W01
 BYTE   BEND   c_v+11
 BYTE   W01
 BYTE   BEND   c_v+0
 BYTE   W02
 BYTE   BEND   c_v+0
 BYTE   W01
//  #05 //001   ----------------------------------------
Label_0100715E:
 BYTE   N66  Dn3  v096
 BYTE   N66  An3
 BYTE   W66
 BYTE   N18  Dn3
 BYTE   N18  Gn3
 BYTE   W18
 BYTE   N12  Dn3
 BYTE   N12  Fs3
 BYTE   W12
 BYTE   PEND 
//  #05 //002   ----------------------------------------
Label_0100716F:
 BYTE   TIE  An2  v096
 BYTE   TIE  Dn3
 BYTE   W80
 BYTE   W02
 BYTE   BEND   c_v+0
 BYTE   W01
 BYTE   BEND   c_v+2
 BYTE   W01
 BYTE   BEND   c_v+4
 BYTE   W01
 BYTE   BEND   c_v+9
 BYTE   W01
 BYTE   BEND   c_v+12
 BYTE   W01
 BYTE   BEND   c_v+14
 BYTE   W01
 BYTE   BEND   c_v+19
 BYTE   W01
 BYTE   BEND   c_v+22
 BYTE   W01
 BYTE   BEND   c_v+24
 BYTE   W01
 BYTE   BEND   c_v+29
 BYTE   W01
 BYTE   BEND   c_v+32
 BYTE   W01
 BYTE   BEND   c_v+34
 BYTE   W01
 BYTE   BEND   c_v+39
 BYTE   W01
 BYTE   BEND   c_v+41
 BYTE   W01
 BYTE   PEND 
//  #05 //003   ----------------------------------------
Label_01007194:
 BYTE   BEND   c_v+44
 BYTE   W01
 BYTE   BEND   c_v+49
 BYTE   W01
 BYTE   BEND   c_v+51
 BYTE   W01
 BYTE   BEND   c_v+54
 BYTE   W01
 BYTE   BEND   c_v+59
 BYTE   W01
 BYTE   BEND   c_v+61
 BYTE   W01
 BYTE   BEND   c_v+63
 BYTE   W78
 BYTE   BEND   c_v+60
 BYTE   W01
 BYTE   BEND   c_v+56
 BYTE   W01
 BYTE   BEND   c_v+52
 BYTE   W01
 BYTE   BEND   c_v+44
 BYTE   W01
 BYTE   BEND   c_v+40
 BYTE   W01
 BYTE   BEND   c_v+36
 BYTE   W01
 BYTE   BEND   c_v+28
 BYTE   W01
 BYTE   BEND   c_v+24
 BYTE   W01
 BYTE   BEND   c_v+20
 BYTE   W01
 BYTE   BEND   c_v+12
 BYTE   W01
 BYTE   BEND   c_v+8
 BYTE   W01
 BYTE   BEND   c_v+2
 BYTE   W01
 BYTE   PEND 
//  #05 //004   ----------------------------------------
 BYTE   EOT
 BYTE   An2  v062
 BYTE   N96  En3  v096
 BYTE   N96  Bn3
 BYTE   W84
 BYTE   W01
 BYTE   BEND   c_v+0
 BYTE   W03
 BYTE   BEND   c_v+0
 BYTE   W01
 BYTE   BEND   c_v+22
 BYTE   W01
 BYTE   BEND   c_v+33
 BYTE   W01
 BYTE   BEND   c_v+22
 BYTE   W01
 BYTE   BEND   c_v+11
 BYTE   W01
 BYTE   BEND   c_v+0
 BYTE   W02
 BYTE   BEND   c_v+0
 BYTE   W01
//  #05 //005   ----------------------------------------
 BYTE   PATT
  POIN2 Label_0100715E
//  #05 //006   ----------------------------------------
 BYTE   PATT
  POIN2 Label_0100716F
//  #05 //007   ----------------------------------------
 BYTE   PATT
  POIN2 Label_01007194
//  #05 //008   ----------------------------------------
 BYTE   EOT
 BYTE   An2  v062
 BYTE   W96
//  #05 //009   ----------------------------------------
 BYTE   W96
//  #05 //010   ----------------------------------------
 BYTE   W96
//  #05 //011   ----------------------------------------
 BYTE   W96
//  #05 //012   ----------------------------------------
 BYTE   W96
//  #05 //013   ----------------------------------------
 BYTE   W96
//  #05 //014   ----------------------------------------
 BYTE   W96
//  #05 //015   ----------------------------------------
 BYTE   W96
//  #05 //016   ----------------------------------------
 BYTE   W96
//  #05 //017   ----------------------------------------
 BYTE   W96
//  #05 //018   ----------------------------------------
 BYTE   W96
//  #05 //019   ----------------------------------------
 BYTE   W96
//  #05 //020   ----------------------------------------
 BYTE   W96
//  #05 //021   ----------------------------------------
 BYTE   W96
//  #05 //022   ----------------------------------------
 BYTE   W96
//  #05 //023   ----------------------------------------
 BYTE   W96
//  #05 //024   ----------------------------------------
 BYTE   GoTo
  POIN2 Label_01007142
 BYTE   FINE

//**************** Track 6 (Midi-Chn.5) ****************//

BattleA1_006:
//  #06 //000   ----------------------------------------
 BYTE   VOL   50*BattleA1_mvl/mxv
 BYTE   KEYSH   BattleA1_key+0
Label_010076C0:
 BYTE   VOICE   52
 BYTE   W96
//  #06 //001   ----------------------------------------
 BYTE   W96
//  #06 //002   ----------------------------------------
 BYTE   W96
//  #06 //003   ----------------------------------------
 BYTE   W96
//  #06 //004   ----------------------------------------
 BYTE   W96
//  #06 //005   ----------------------------------------
 BYTE   W96
//  #06 //006   ----------------------------------------
 BYTE   W96
//  #06 //007   ----------------------------------------
 BYTE   W96
//  #06 //008   ----------------------------------------
Label_010076CA:
 BYTE   N48  En3  v096
 BYTE   N48  Bn3
 BYTE   W48
 BYTE   Dn3
 BYTE   N48  An3
 BYTE   W48
 BYTE   PEND 
//  #06 //009   ----------------------------------------
Label_010076D5:
 BYTE   N48  Bn2  v096
 BYTE   N48  Fs3
 BYTE   W48
 BYTE   As2
 BYTE   N48  Gn3
 BYTE   W48
 BYTE   PEND 
//  #06 //010   ----------------------------------------
 BYTE   PATT
  POIN2 Label_010076CA
//  #06 //011   ----------------------------------------
 BYTE   PATT
  POIN2 Label_010076D5
//  #06 //012   ----------------------------------------
 BYTE   PATT
  POIN2 Label_010076CA
//  #06 //013   ----------------------------------------
 BYTE   PATT
  POIN2 Label_010076D5
//  #06 //014   ----------------------------------------
 BYTE   PATT
  POIN2 Label_010076CA
//  #06 //015   ----------------------------------------
 BYTE   PATT
  POIN2 Label_010076D5
//  #06 //016   ----------------------------------------
 BYTE   W96
//  #06 //017   ----------------------------------------
 BYTE   W96
//  #06 //018   ----------------------------------------
 BYTE   W96
//  #06 //019   ----------------------------------------
 BYTE   W96
//  #06 //020   ----------------------------------------
 BYTE   W96
//  #06 //021   ----------------------------------------
 BYTE   W96
//  #06 //022   ----------------------------------------
 BYTE   W96
//  #06 //023   ----------------------------------------
 BYTE   W96
//  #06 //024   ----------------------------------------
 BYTE   GoTo
  POIN2 Label_010076C0
 BYTE   FINE

//**************** Track 7 (Midi-Chn.6) ****************//

BattleA1_007:
//  #07 //000   ----------------------------------------
 BYTE   VOL   50*BattleA1_mvl/mxv
 BYTE   KEYSH   BattleA1_key+0
Label_01009DDC:
 BYTE   VOICE   124
 BYTE   N06  Cn1  v096
 BYTE   N06  As1  v076
 BYTE   W12
 BYTE   En1  v096
 BYTE   N06  As1  v076
 BYTE   W12
 BYTE   N06
 BYTE   W06
 BYTE   Cn1  v096
 BYTE   W06
 BYTE   En1
 BYTE   N06  As1  v076
 BYTE   W12
 BYTE   Cn1  v096
 BYTE   N06  As1  v076
 BYTE   W12
 BYTE   En1  v096
 BYTE   N06  As1  v076
 BYTE   W06
 BYTE   As1  v052
 BYTE   W06
 BYTE   As1  v076
 BYTE   W06
 BYTE   Cn1  v096
 BYTE   N06  As1  v056
 BYTE   W06
 BYTE   En1  v096
 BYTE   N06  As1  v076
 BYTE   W06
 BYTE   As1  v052
 BYTE   W06
//  #07 //001   ----------------------------------------
Label_01009E16:
 BYTE   N06  Cn1  v096
 BYTE   N06  As1  v076
 BYTE   W06
 BYTE   As1  v056
 BYTE   W06
 BYTE   En1  v096
 BYTE   N06  As1  v076
 BYTE   W06
 BYTE   As1  v048
 BYTE   W06
 BYTE   As1  v076
 BYTE   W06
 BYTE   Cn1  v096
 BYTE   N06  As1  v060
 BYTE   W06
 BYTE   En1  v096
 BYTE   N06  As1  v076
 BYTE   W06
 BYTE   As1  v048
 BYTE   W06
 BYTE   Cn1  v096
 BYTE   N06  As1  v076
 BYTE   W06
 BYTE   As1  v056
 BYTE   W06
 BYTE   En1  v096
 BYTE   N06  As1  v076
 BYTE   W06
 BYTE   As1  v048
 BYTE   W06
 BYTE   As1  v076
 BYTE   W06
 BYTE   Cn1  v096
 BYTE   N06  As1  v060
 BYTE   W06
 BYTE   En1  v096
 BYTE   N06  As1  v076
 BYTE   W06
 BYTE   As1  v048
 BYTE   W06
 BYTE   PEND 
//  #07 //002   ----------------------------------------
Label_01009E60:
 BYTE   N06  Cn1  v096
 BYTE   N06  As1  v076
 BYTE   W12
 BYTE   En1  v096
 BYTE   N06  As1  v076
 BYTE   W12
 BYTE   N06
 BYTE   W06
 BYTE   Cn1  v096
 BYTE   W06
 BYTE   En1
 BYTE   N06  As1  v076
 BYTE   W12
 BYTE   Cn1  v096
 BYTE   N06  As1  v076
 BYTE   W12
 BYTE   En1  v096
 BYTE   N06  As1  v076
 BYTE   W06
 BYTE   N06
 BYTE   W06
 BYTE   N06
 BYTE   W06
 BYTE   Cn1  v096
 BYTE   N06  As1  v056
 BYTE   W06
 BYTE   En1  v096
 BYTE   N06  As1  v076
 BYTE   W06
 BYTE   As1  v048
 BYTE   W06
 BYTE   PEND 
//  #07 //003   ----------------------------------------
 BYTE   Cn1  v096
 BYTE   N06  As1  v076
 BYTE   W06
 BYTE   As1  v060
 BYTE   W06
 BYTE   En1  v096
 BYTE   N06  As1  v076
 BYTE   W06
 BYTE   As1  v048
 BYTE   W06
 BYTE   As1  v076
 BYTE   W06
 BYTE   Cn1  v096
 BYTE   N06  As1  v060
 BYTE   W06
 BYTE   En1  v096
 BYTE   N06  As1  v076
 BYTE   W06
 BYTE   As1  v048
 BYTE   W06
 BYTE   Cn1  v096
 BYTE   N06  As1  v076
 BYTE   W06
 BYTE   As1  v056
 BYTE   W06
 BYTE   En1  v096
 BYTE   N06  As1  v076
 BYTE   W06
 BYTE   As1  v048
 BYTE   W06
 BYTE   As1  v076
 BYTE   W06
 BYTE   Cn1  v096
 BYTE   N06  As1  v060
 BYTE   W06
 BYTE   En1  v096
 BYTE   N06  As1  v076
 BYTE   W06
 BYTE   As1  v048
 BYTE   W06
//  #07 //004   ----------------------------------------
 BYTE   Cn1  v096
 BYTE   N06  As1  v076
 BYTE   W12
 BYTE   En1  v096
 BYTE   N06  As1  v076
 BYTE   W12
 BYTE   N06
 BYTE   W06
 BYTE   Cn1  v096
 BYTE   W06
 BYTE   En1
 BYTE   N06  As1  v076
 BYTE   W12
 BYTE   Cn1  v096
 BYTE   N06  As1  v076
 BYTE   W12
 BYTE   En1  v096
 BYTE   N06  As1  v076
 BYTE   W06
 BYTE   As1  v052
 BYTE   W06
 BYTE   As1  v076
 BYTE   W06
 BYTE   Cn1  v096
 BYTE   N06  As1  v056
 BYTE   W06
 BYTE   En1  v096
 BYTE   N06  As1  v076
 BYTE   W06
 BYTE   As1  v052
 BYTE   W06
//  #07 //005   ----------------------------------------
 BYTE   PATT
  POIN2 Label_01009E16
//  #07 //006   ----------------------------------------
 BYTE   PATT
  POIN2 Label_01009E60
//  #07 //007   ----------------------------------------
 BYTE   N06  Cn1  v096
 BYTE   N06  As1  v076
 BYTE   W06
 BYTE   As1  v060
 BYTE   W06
 BYTE   En1  v096
 BYTE   N06  As1  v076
 BYTE   W06
 BYTE   As1  v048
 BYTE   W06
 BYTE   As1  v076
 BYTE   W06
 BYTE   Cn1  v096
 BYTE   N06  As1  v060
 BYTE   W06
 BYTE   En1  v096
 BYTE   N06  As1  v076
 BYTE   W06
 BYTE   As1  v048
 BYTE   W06
 BYTE   Cn1  v096
 BYTE   N06  As1  v076
 BYTE   W06
 BYTE   As1  v056
 BYTE   W06
 BYTE   En1  v096
 BYTE   N06  As1  v076
 BYTE   W06
 BYTE   Cn1  v096
 BYTE   N06  As1  v048
 BYTE   W06
 BYTE   Cn1  v096
 BYTE   N06  As1  v076
 BYTE   W06
 BYTE   En1  v096
 BYTE   N06  As1  v060
 BYTE   N06  Cs2  v088
 BYTE   W06
 BYTE   Cn1  v096
 BYTE   N06  As1  v076
 BYTE   W06
 BYTE   En1  v096
 BYTE   N06  As1  v048
 BYTE   W06
//  #07 //008   ----------------------------------------
 BYTE   Cn1  v096
 BYTE   N06  As1  v076
 BYTE   W12
 BYTE   En1  v096
 BYTE   N06  As1  v076
 BYTE   W06
 BYTE   Cn1  v096
 BYTE   W06
 BYTE   As1  v076
 BYTE   W06
 BYTE   Cn1  v096
 BYTE   W06
 BYTE   En1
 BYTE   N06  As1  v076
 BYTE   W12
 BYTE   Cn1  v096
 BYTE   N06  As1  v076
 BYTE   W12
 BYTE   En1  v096
 BYTE   N06  As1  v076
 BYTE   W06
 BYTE   Cn1  v096
 BYTE   N06  As1  v052
 BYTE   W06
 BYTE   As1  v076
 BYTE   W06
 BYTE   Cn1  v096
 BYTE   N06  As1  v056
 BYTE   W06
 BYTE   En1  v096
 BYTE   N06  As1  v076
 BYTE   W06
 BYTE   As1  v052
 BYTE   W06
//  #07 //009   ----------------------------------------
 BYTE   Cn1  v096
 BYTE   N06  As1  v076
 BYTE   W06
 BYTE   As1  v056
 BYTE   W06
 BYTE   En1  v096
 BYTE   N06  As1  v076
 BYTE   W06
 BYTE   Cn1  v096
 BYTE   N06  As1  v048
 BYTE   W06
 BYTE   As1  v076
 BYTE   W06
 BYTE   Cn1  v096
 BYTE   N06  As1  v060
 BYTE   W06
 BYTE   En1  v096
 BYTE   N06  As1  v076
 BYTE   W06
 BYTE   As1  v048
 BYTE   W06
 BYTE   Cn1  v096
 BYTE   N06  As1  v076
 BYTE   W06
 BYTE   As1  v056
 BYTE   W06
 BYTE   En1  v096
 BYTE   N06  As1  v076
 BYTE   W06
 BYTE   Cn1  v096
 BYTE   N06  As1  v048
 BYTE   W06
 BYTE   As1  v076
 BYTE   W06
 BYTE   Cn1  v096
 BYTE   N06  As1  v060
 BYTE   W06
 BYTE   En1  v096
 BYTE   N06  As1  v076
 BYTE   W06
 BYTE   As1  v048
 BYTE   W06
//  #07 //010   ----------------------------------------
Label_0100A001:
 BYTE   N06  Cn1  v096
 BYTE   N06  As1  v076
 BYTE   W12
 BYTE   En1  v096
 BYTE   N06  As1  v076
 BYTE   W06
 BYTE   Cn1  v096
 BYTE   W06
 BYTE   As1  v076
 BYTE   W06
 BYTE   Cn1  v096
 BYTE   W06
 BYTE   En1
 BYTE   N06  As1  v076
 BYTE   W12
 BYTE   Cn1  v096
 BYTE   N06  As1  v076
 BYTE   W12
 BYTE   En1  v096
 BYTE   N06  As1  v076
 BYTE   W06
 BYTE   Cn1  v096
 BYTE   N06  As1  v076
 BYTE   W06
 BYTE   N06
 BYTE   W06
 BYTE   Cn1  v096
 BYTE   N06  As1  v056
 BYTE   W06
 BYTE   En1  v096
 BYTE   N06  As1  v076
 BYTE   W06
 BYTE   As1  v048
 BYTE   W06
 BYTE   PEND 
//  #07 //011   ----------------------------------------
 BYTE   Cn1  v096
 BYTE   N06  As1  v076
 BYTE   W06
 BYTE   As1  v060
 BYTE   W06
 BYTE   En1  v096
 BYTE   N06  As1  v076
 BYTE   W06
 BYTE   Cn1  v096
 BYTE   N06  As1  v048
 BYTE   W06
 BYTE   As1  v076
 BYTE   W06
 BYTE   Cn1  v096
 BYTE   N06  As1  v060
 BYTE   W06
 BYTE   En1  v096
 BYTE   N06  As1  v076
 BYTE   W06
 BYTE   As1  v048
 BYTE   W06
 BYTE   Cn1  v096
 BYTE   N06  As1  v076
 BYTE   W06
 BYTE   As1  v056
 BYTE   W06
 BYTE   En1  v096
 BYTE   N06  As1  v076
 BYTE   W06
 BYTE   Cn1  v096
 BYTE   N06  As1  v048
 BYTE   W06
 BYTE   As1  v076
 BYTE   W06
 BYTE   Cn1  v096
 BYTE   N06  As1  v060
 BYTE   W06
 BYTE   Cn1  v096
 BYTE   N06  As1  v076
 BYTE   N06  Fn2  v096
 BYTE   W06
 BYTE   En1
 BYTE   N06  As1  v048
 BYTE   W01
 BYTE   Cs2  v088
 BYTE   W05
//  #07 //012   ----------------------------------------
 BYTE   PATT
  POIN2 Label_0100A001
//  #07 //013   ----------------------------------------
 BYTE   N06  Cn1  v096
 BYTE   N06  As1  v076
 BYTE   W06
 BYTE   As1  v060
 BYTE   W06
 BYTE   En1  v096
 BYTE   N06  As1  v076
 BYTE   W06
 BYTE   Cn1  v096
 BYTE   N06  As1  v048
 BYTE   W06
 BYTE   As1  v076
 BYTE   W06
 BYTE   Cn1  v096
 BYTE   N06  As1  v060
 BYTE   W06
 BYTE   En1  v096
 BYTE   N06  As1  v076
 BYTE   W06
 BYTE   As1  v048
 BYTE   W06
 BYTE   Cn1  v096
 BYTE   N06  As1  v076
 BYTE   W06
 BYTE   As1  v056
 BYTE   W06
 BYTE   En1  v096
 BYTE   N06  As1  v076
 BYTE   W06
 BYTE   Cn1  v096
 BYTE   N06  As1  v048
 BYTE   W06
 BYTE   As1  v076
 BYTE   W06
 BYTE   Cn1  v096
 BYTE   N06  As1  v060
 BYTE   W06
 BYTE   En1  v096
 BYTE   N06  As1  v076
 BYTE   W06
 BYTE   As1  v048
 BYTE   W06
//  #07 //014   ----------------------------------------
 BYTE   PATT
  POIN2 Label_0100A001
//  #07 //015   ----------------------------------------
 BYTE   N06  Cn1  v096
 BYTE   N06  As1  v076
 BYTE   W06
 BYTE   As1  v060
 BYTE   W06
 BYTE   En1  v096
 BYTE   N06  As1  v076
 BYTE   W06
 BYTE   Cn1  v096
 BYTE   N06  As1  v048
 BYTE   W06
 BYTE   As1  v076
 BYTE   W06
 BYTE   Cn1  v096
 BYTE   N06  As1  v060
 BYTE   W06
 BYTE   En1  v096
 BYTE   N06  As1  v076
 BYTE   W06
 BYTE   As1  v048
 BYTE   W06
 BYTE   Cn1  v096
 BYTE   N06  As1  v076
 BYTE   W06
 BYTE   As1  v056
 BYTE   W06
 BYTE   En1  v096
 BYTE   N06  As1  v076
 BYTE   W06
 BYTE   Cn1  v096
 BYTE   N06  As1  v048
 BYTE   W06
 BYTE   As1  v076
 BYTE   W06
 BYTE   En1  v096
 BYTE   N06  As1  v060
 BYTE   N06  Fn2  v096
 BYTE   W06
 BYTE   Cn1
 BYTE   N06  As1  v076
 BYTE   W06
 BYTE   En1  v096
 BYTE   N06  As1  v048
 BYTE   W06
//  #07 //016   ----------------------------------------
Label_0100A143:
 BYTE   N06  Cn1  v096
 BYTE   N10  Cs2  v088
 BYTE   W06
 BYTE   N06  Cn1  v096
 BYTE   W06
 BYTE   En1
 BYTE   W06
 BYTE   Cn1
 BYTE   W12
 BYTE   N06
 BYTE   W06
 BYTE   En1
 BYTE   W06
 BYTE   Cn1
 BYTE   W06
 BYTE   N06
 BYTE   W06
 BYTE   N06
 BYTE   W06
 BYTE   En1
 BYTE   W06
 BYTE   Cn1
 BYTE   W12
 BYTE   N06
 BYTE   W06
 BYTE   En1
 BYTE   N06  Cs2  v088
 BYTE   W06
 BYTE   Cn1  v096
 BYTE   W06
 BYTE   PEND 
//  #07 //017   ----------------------------------------
 BYTE   N06
 BYTE   W06
 BYTE   N06
 BYTE   W06
 BYTE   En1
 BYTE   W06
 BYTE   Cn1
 BYTE   W12
 BYTE   N06
 BYTE   W06
 BYTE   En1
 BYTE   W06
 BYTE   Cn1
 BYTE   W06
 BYTE   N06
 BYTE   N04  As1  v076
 BYTE   W06
 BYTE   N06  Cn1  v096
 BYTE   W06
 BYTE   En1
 BYTE   W06
 BYTE   Cn1
 BYTE   W12
 BYTE   N06
 BYTE   W06
 BYTE   En1
 BYTE   N06  Cs2  v088
 BYTE   W12
//  #07 //018   ----------------------------------------
 BYTE   PATT
  POIN2 Label_0100A143
//  #07 //019   ----------------------------------------
 BYTE   W48
 BYTE   N06  As1  v076
 BYTE   W12
 BYTE   N06
 BYTE   W06
 BYTE   N03  Cn1  v096
 BYTE   W03
 BYTE   N03
 BYTE   W03
 BYTE   En1
 BYTE   W03
 BYTE   N03
 BYTE   W03
 BYTE   N06
 BYTE   W06
 BYTE   N04
 BYTE   W06
 BYTE   N06
 BYTE   W06
//  #07 //020   ----------------------------------------
 BYTE   Cn1
 BYTE   N06  As1  v076
 BYTE   N04  Cs2  v088
 BYTE   W06
 BYTE   As1  v056
 BYTE   W06
 BYTE   N06  En1  v096
 BYTE   N06  As1  v076
 BYTE   W06
 BYTE   As1  v052
 BYTE   W06
 BYTE   Cn1  v096
 BYTE   N06  As1  v076
 BYTE   W06
 BYTE   Cn1  v096
 BYTE   N06  As1  v052
 BYTE   W06
 BYTE   En1  v096
 BYTE   N06  As1  v076
 BYTE   W06
 BYTE   As1  v052
 BYTE   W06
 BYTE   N07  Cn1  v096
 BYTE   N06  As1  v076
 BYTE   W06
 BYTE   N04  As1  v056
 BYTE   W06
 BYTE   N06  En1  v096
 BYTE   N06  As1  v076
 BYTE   W06
 BYTE   As1  v052
 BYTE   W06
 BYTE   As1  v076
 BYTE   W06
 BYTE   Cn1  v096
 BYTE   N06  As1  v052
 BYTE   W06
 BYTE   En1  v096
 BYTE   N06  As1  v076
 BYTE   W06
 BYTE   Cn1  v096
 BYTE   N06  As1  v052
 BYTE   W06
//  #07 //021   ----------------------------------------
 BYTE   Cn1  v096
 BYTE   N06  As1  v076
 BYTE   W06
 BYTE   N04  As1  v056
 BYTE   W06
 BYTE   N06  En1  v096
 BYTE   N06  As1  v076
 BYTE   W06
 BYTE   As1  v052
 BYTE   W06
 BYTE   Cn1  v096
 BYTE   N06  As1  v076
 BYTE   W06
 BYTE   Cn1  v096
 BYTE   N06  As1  v052
 BYTE   W06
 BYTE   En1  v096
 BYTE   N06  As1  v076
 BYTE   W06
 BYTE   As1  v052
 BYTE   W06
 BYTE   N07  Cn1  v096
 BYTE   N06  As1  v076
 BYTE   W06
 BYTE   N04  As1  v056
 BYTE   W06
 BYTE   N06  En1  v096
 BYTE   N06  As1  v076
 BYTE   W06
 BYTE   As1  v052
 BYTE   W06
 BYTE   As1  v076
 BYTE   W06
 BYTE   Cn1  v096
 BYTE   N06  As1  v052
 BYTE   W06
 BYTE   En1  v096
 BYTE   N06  As1  v076
 BYTE   W06
 BYTE   As1  v052
 BYTE   W06
//  #07 //022   ----------------------------------------
 BYTE   Cn1  v096
 BYTE   N06  As1  v076
 BYTE   W06
 BYTE   N04  As1  v056
 BYTE   W06
 BYTE   N06  En1  v096
 BYTE   N06  As1  v076
 BYTE   W06
 BYTE   As1  v052
 BYTE   W06
 BYTE   Cn1  v096
 BYTE   N06  As1  v076
 BYTE   W06
 BYTE   Cn1  v096
 BYTE   N06  As1  v052
 BYTE   W06
 BYTE   En1  v096
 BYTE   N06  As1  v076
 BYTE   W06
 BYTE   As1  v052
 BYTE   W06
 BYTE   N07  Cn1  v096
 BYTE   N06  As1  v076
 BYTE   W06
 BYTE   N04  As1  v056
 BYTE   W06
 BYTE   N06  En1  v096
 BYTE   N06  As1  v076
 BYTE   W06
 BYTE   Cn1  v096
 BYTE   N06  As1  v052
 BYTE   W06
 BYTE   As1  v076
 BYTE   W06
 BYTE   Cn1  v096
 BYTE   N06  As1  v052
 BYTE   W06
 BYTE   En1  v096
 BYTE   N06  As1  v076
 BYTE   W06
 BYTE   As1  v052
 BYTE   W06
//  #07 //023   ----------------------------------------
 BYTE   Cn1  v096
 BYTE   N06  As1  v076
 BYTE   W06
 BYTE   N04  As1  v056
 BYTE   W06
 BYTE   N06  En1  v096
 BYTE   N06  As1  v076
 BYTE   W06
 BYTE   As1  v052
 BYTE   W03
 BYTE   N03  Cn1  v096
 BYTE   W03
 BYTE   N06
 BYTE   N06  As1  v076
 BYTE   W06
 BYTE   En1  v096
 BYTE   N06  As1  v052
 BYTE   N06  Cs2  v076
 BYTE   W06
 BYTE   As1
 BYTE   W06
 BYTE   Cn1  v096
 BYTE   N06  As1  v052
 BYTE   N06  Ds2  v096
 BYTE   W12
 BYTE   Cn1  v092
 BYTE   W06
 BYTE   En1  v096
 BYTE   W06
 BYTE   N03  Cn1  v092
 BYTE   W03
 BYTE   N03
 BYTE   W03
 BYTE   En1  v096
 BYTE   W03
 BYTE   N03
 BYTE   W03
 BYTE   Cn1
 BYTE   W03
 BYTE   N03
 BYTE   W03
 BYTE   En1
 BYTE   W03
 BYTE   N03
 BYTE   W03
 BYTE   N06  Cn1
 BYTE   W06
//  #07 //024   ----------------------------------------
 BYTE   GoTo
  POIN2 Label_01009DDC
 BYTE   FINE

//******************************************************//
	ALIGN 4

BattleA1:
	BYTE	7	// NumTrks
	BYTE	0	// NumBlks
	BYTE	BattleA1_pri	// Priority
	BYTE	BattleA1_rev	// Reverb.
    
	POIN2	BattleA1_grp
    
	POIN2	BattleA1_001
	POIN2	BattleA1_002
	POIN2	BattleA1_003
	POIN2	BattleA1_004
	POIN2	BattleA1_005
	POIN2	BattleA1_006
	POIN2	BattleA1_007

	
