	.include "MPlayDef.s"

	.equ	song04_grp, voicegroup000
	.equ	song04_pri, 0
	.equ	song04_rev, 0
	.equ	song04_mvl, 127
	.equ	song04_key, 0
	.equ	song04_tbs, 1
	.equ	song04_exg, 0
	.equ	song04_cmp, 1

	.section .rodata
	.global	song04
	.align	2


@**************** Track 1 (Midi-Chn.0) ****************@

song04_001:
@  #01 @000   ----------------------------------------
 .byte   KEYSH , song04_key+0
 .byte   TEMPO , 150*song04_tbs/2
 .byte   VOICE , 41
 .byte   VOL , 35*song04_mvl/mxv
 .byte   PAN , c_v+0
 .byte   BEND , c_v+0
 .byte   N12 ,Bn1 ,v112
 .byte   N12 ,Bn2
 .byte   W12
 .byte   Bn1
 .byte   N12 ,Bn2
 .byte   W84
@  #01 @001   ----------------------------------------
 .byte   W96
@  #01 @002   ----------------------------------------
 .byte   W96
@  #01 @003   ----------------------------------------
 .byte   W96
@  #01 @004   ----------------------------------------
Label_01009F69:
 .byte   N12 ,Bn1 ,v112
 .byte   N12 ,Bn2
 .byte   W12
 .byte   Bn1
 .byte   N12 ,Bn2
 .byte   W84
 .byte   PEND 
@  #01 @005   ----------------------------------------
 .byte   W96
@  #01 @006   ----------------------------------------
Label_01009F75:
 .byte   W48
 .byte   VOL , 0*song04_mvl/mxv
 .byte   TIE ,Fn4 ,v112
 .byte   TIE ,Fs4
 .byte   W06
 .byte   VOL , 0*song04_mvl/mxv
 .byte   W06
 .byte   VOL , 6*song04_mvl/mxv
 .byte   W06
 .byte   VOL , 13*song04_mvl/mxv
 .byte   W06
 .byte   VOL , 20*song04_mvl/mxv
 .byte   W06
 .byte   VOL , 28*song04_mvl/mxv
 .byte   W06
 .byte   VOL , 35*song04_mvl/mxv
 .byte   W12
 .byte   PEND 
@  #01 @007   ----------------------------------------
 .byte   W96
@  #01 @008   ----------------------------------------
 .byte   EOT
 .byte   Fn4 ,v078
Label_01009F90:
 .byte   N12 ,Bn1 ,v112
 .byte   N12 ,Bn2
 .byte   N12 ,Bn3
 .byte   N12 ,Bn4
 .byte   W12
 .byte   Bn1
 .byte   N12 ,Bn2
 .byte   N12 ,Bn3
 .byte   N12 ,Bn4
 .byte   W84
 .byte   PEND 
@  #01 @009   ----------------------------------------
 .byte   W96
@  #01 @010   ----------------------------------------
 .byte   W96
@  #01 @011   ----------------------------------------
 .byte   W96
@  #01 @012   ----------------------------------------
Label_01009FA6:
 .byte   N12 ,Bn1 ,v112
 .byte   N12 ,Bn2
 .byte   N12 ,Bn3
 .byte   N12 ,Bn4
 .byte   W12
 .byte   Bn1
 .byte   N12 ,Bn2
 .byte   N12 ,Bn3
 .byte   N12 ,Bn4
 .byte   W12
 .byte   Bn1
 .byte   N12 ,Bn2
 .byte   N12 ,Bn3
 .byte   N12 ,Bn4
 .byte   W72
 .byte   PEND 
@  #01 @013   ----------------------------------------
 .byte   W96
@  #01 @014   ----------------------------------------
 .byte   W96
@  #01 @015   ----------------------------------------
 .byte   W96
@  #01 @016   ----------------------------------------
 .byte   W96
@  #01 @017   ----------------------------------------
 .byte   W96
@  #01 @018   ----------------------------------------
 .byte   W96
@  #01 @019   ----------------------------------------
 .byte   W96
@  #01 @020   ----------------------------------------
 .byte   W96
@  #01 @021   ----------------------------------------
 .byte   W96
@  #01 @022   ----------------------------------------
 .byte   W96
@  #01 @023   ----------------------------------------
 .byte   W96
@  #01 @024   ----------------------------------------
 .byte   PATT
  .word Label_01009F90
@  #01 @025   ----------------------------------------
 .byte   W96
@  #01 @026   ----------------------------------------
 .byte   W96
@  #01 @027   ----------------------------------------
 .byte   W96
@  #01 @028   ----------------------------------------
 .byte   PATT
  .word Label_01009F90
@  #01 @029   ----------------------------------------
 .byte   W96
@  #01 @030   ----------------------------------------
 .byte   W96
@  #01 @031   ----------------------------------------
 .byte   W96
@  #01 @032   ----------------------------------------
 .byte   W96
@  #01 @033   ----------------------------------------
 .byte   W96
@  #01 @034   ----------------------------------------
 .byte   W96
@  #01 @035   ----------------------------------------
 .byte   W96
@  #01 @036   ----------------------------------------
 .byte   W96
@  #01 @037   ----------------------------------------
 .byte   W96
@  #01 @038   ----------------------------------------
Label_01009FE2:
 .byte   W48
 .byte   VOL , 0*song04_mvl/mxv
 .byte   TIE ,Gn3 ,v096
 .byte   TIE ,Gs3
 .byte   TIE ,Gs4
 .byte   W06
 .byte   VOL , 0*song04_mvl/mxv
 .byte   W06
 .byte   VOL , 6*song04_mvl/mxv
 .byte   W06
 .byte   VOL , 13*song04_mvl/mxv
 .byte   W06
 .byte   VOL , 20*song04_mvl/mxv
 .byte   W06
 .byte   VOL , 28*song04_mvl/mxv
 .byte   W06
 .byte   VOL , 35*song04_mvl/mxv
 .byte   W12
 .byte   PEND 
@  #01 @039   ----------------------------------------
 .byte   W96
@  #01 @040   ----------------------------------------
 .byte   EOT
 .byte   Gn3 ,v068
 .byte   Gs4
 .byte   W96
@  #01 @041   ----------------------------------------
 .byte   W96
@  #01 @042   ----------------------------------------
 .byte   W96
@  #01 @043   ----------------------------------------
Label_0100A003:
 .byte   W48
 .byte   VOL , 0*song04_mvl/mxv
 .byte   N48 ,Bn4 ,v127
 .byte   W06
 .byte   VOL , 0*song04_mvl/mxv
 .byte   W06
 .byte   VOL , 6*song04_mvl/mxv
 .byte   W06
 .byte   VOL , 13*song04_mvl/mxv
 .byte   W06
 .byte   VOL , 20*song04_mvl/mxv
 .byte   W06
 .byte   VOL , 28*song04_mvl/mxv
 .byte   W06
 .byte   VOL , 35*song04_mvl/mxv
 .byte   W12
 .byte   PEND 
@  #01 @044   ----------------------------------------
 .byte   TIE
 .byte   W96
@  #01 @045   ----------------------------------------
 .byte   W96
@  #01 @046   ----------------------------------------
 .byte   EOT
 .byte   TIE
 .byte   W96
@  #01 @047   ----------------------------------------
 .byte   W96
@  #01 @048   ----------------------------------------
 .byte   EOT
 .byte   N96 ,Bn1 ,v064
 .byte   W96
@  #01 @049   ----------------------------------------
 .byte   An1
 .byte   W96
@  #01 @050   ----------------------------------------
 .byte   TIE ,Gn1
 .byte   W96
@  #01 @051   ----------------------------------------
 .byte   W96
@  #01 @052   ----------------------------------------
 .byte   EOT
 .byte   N96 ,Bn1
 .byte   W96
@  #01 @053   ----------------------------------------
 .byte   An1
 .byte   W96
@  #01 @054   ----------------------------------------
 .byte   TIE ,Gn1
 .byte   W96
@  #01 @055   ----------------------------------------
 .byte   W96
@  #01 @056   ----------------------------------------
 .byte   EOT
 .byte   N96 ,Bn1
 .byte   W96
@  #01 @057   ----------------------------------------
 .byte   An1
 .byte   W96
@  #01 @058   ----------------------------------------
 .byte   Gn1
 .byte   W96
@  #01 @059   ----------------------------------------
Label_0100A03C:
 .byte   VOL , 0*song04_mvl/mxv
 .byte   N96 ,Gn1 ,v064
 .byte   N96 ,Gn2
 .byte   N96 ,Bn2
 .byte   N96 ,Dn4
 .byte   N96 ,Fs4
 .byte   W06
 .byte   VOL , 0*song04_mvl/mxv
 .byte   W06
 .byte   VOL , 0*song04_mvl/mxv
 .byte   W06
 .byte   VOL , 0*song04_mvl/mxv
 .byte   W06
 .byte   VOL , 4*song04_mvl/mxv
 .byte   W06
 .byte   VOL , 8*song04_mvl/mxv
 .byte   W06
 .byte   VOL , 12*song04_mvl/mxv
 .byte   W06
 .byte   VOL , 16*song04_mvl/mxv
 .byte   W06
 .byte   VOL , 20*song04_mvl/mxv
 .byte   W06
 .byte   VOL , 23*song04_mvl/mxv
 .byte   W06
 .byte   VOL , 27*song04_mvl/mxv
 .byte   W06
 .byte   VOL , 31*song04_mvl/mxv
 .byte   W06
 .byte   VOL , 35*song04_mvl/mxv
 .byte   W24
 .byte   PEND 
@  #01 @060   ----------------------------------------
 .byte   W96
@  #01 @061   ----------------------------------------
 .byte   W96
@  #01 @062   ----------------------------------------
 .byte   W96
@  #01 @063   ----------------------------------------
 .byte   W96
@  #01 @064   ----------------------------------------
 .byte   W96
@  #01 @065   ----------------------------------------
 .byte   W96
@  #01 @066   ----------------------------------------
 .byte   W96
@  #01 @067   ----------------------------------------
 .byte   W96
@  #01 @068   ----------------------------------------
 .byte   W96
@  #01 @069   ----------------------------------------
 .byte   W96
@  #01 @070   ----------------------------------------
 .byte   W96
@  #01 @071   ----------------------------------------
Label_0100A06F:
 .byte   N48 ,Fs1 ,v096
 .byte   N48 ,Fs2
 .byte   W48
 .byte   As1
 .byte   N48 ,As2
 .byte   W48
 .byte   PEND 
@  #01 @072   ----------------------------------------
Label_0100A07A:
 .byte   N48 ,Bn1 ,v096
 .byte   N48 ,Bn2
 .byte   W48
 .byte   Dn2
 .byte   N48 ,Dn3
 .byte   W48
 .byte   PEND 
@  #01 @073   ----------------------------------------
Label_0100A085:
 .byte   N48 ,En2 ,v096
 .byte   N48 ,En3
 .byte   W48
 .byte   Bn1
 .byte   N48 ,Bn2
 .byte   W48
 .byte   PEND 
@  #01 @074   ----------------------------------------
Label_0100A090:
 .byte   N48 ,An1 ,v096
 .byte   N48 ,An2
 .byte   W48
 .byte   N24
 .byte   N24 ,An3
 .byte   W24
 .byte   Gn2
 .byte   N24 ,Gn3
 .byte   W24
 .byte   PEND 
@  #01 @075   ----------------------------------------
Label_0100A09F:
 .byte   N48 ,Fs2 ,v096
 .byte   N48 ,Fs3
 .byte   W48
 .byte   N24 ,Dn3
 .byte   N24 ,Dn4
 .byte   W24
 .byte   Cs3
 .byte   N24 ,Cs4
 .byte   W24
 .byte   PEND 
@  #01 @076   ----------------------------------------
Label_0100A0AF:
 .byte   N72 ,Bn2 ,v096
 .byte   N72 ,Bn3
 .byte   W72
 .byte   N12 ,Cs3
 .byte   N12 ,Cs4
 .byte   W12
 .byte   Dn3
 .byte   N12 ,Dn4
 .byte   W12
 .byte   PEND 
@  #01 @077   ----------------------------------------
Label_0100A0BF:
 .byte   N60 ,Dn3 ,v096
 .byte   N60 ,Dn4
 .byte   W60
 .byte   N12 ,Bn2
 .byte   N12 ,Bn3
 .byte   W12
 .byte   Cs3
 .byte   N12 ,Cs4
 .byte   W12
 .byte   Dn3
 .byte   N12 ,Dn4
 .byte   W12
 .byte   PEND 
@  #01 @078   ----------------------------------------
Label_0100A0D3:
 .byte   N84 ,Fs3 ,v096
 .byte   N84 ,Fs4
 .byte   W84
 .byte   N06 ,En3
 .byte   N06 ,En4
 .byte   W06
 .byte   Dn3
 .byte   N06 ,Dn4
 .byte   W06
 .byte   PEND 
@  #01 @079   ----------------------------------------
Label_0100A0E3:
 .byte   N48 ,En3 ,v096
 .byte   N48 ,En4
 .byte   W48
 .byte   N24 ,Gn3
 .byte   N24 ,Gn4
 .byte   W24
 .byte   Fs3
 .byte   N24 ,Fs4
 .byte   W24
 .byte   PEND 
@  #01 @080   ----------------------------------------
Label_0100A0F3:
 .byte   N84 ,Dn4 ,v096
 .byte   N84 ,Dn5
 .byte   W84
 .byte   N12 ,Fs3
 .byte   N12 ,Fs4
 .byte   W12
 .byte   PEND 
@  #01 @081   ----------------------------------------
Label_0100A0FF:
 .byte   N24 ,Gn3 ,v096
 .byte   N24 ,Gn4
 .byte   W36
 .byte   N12 ,Fs4
 .byte   N12 ,Fs5
 .byte   W12
 .byte   En4
 .byte   N12 ,En5
 .byte   W12
 .byte   Dn4
 .byte   N12 ,Dn5
 .byte   W12
 .byte   Cs4
 .byte   N12 ,Cs5
 .byte   W12
 .byte   Dn4
 .byte   N12 ,Dn5
 .byte   W12
 .byte   PEND 
@  #01 @082   ----------------------------------------
Label_0100A11B:
 .byte   N84 ,Cs4 ,v096
 .byte   N84 ,Cs5
 .byte   W84
 .byte   N12 ,An4
 .byte   N12 ,An5
 .byte   W12
 .byte   PEND 
@  #01 @083   ----------------------------------------
Label_0100A127:
 .byte   N12 ,Gn4 ,v096
 .byte   N12 ,Gn5
 .byte   W12
 .byte   Fs4
 .byte   N12 ,Fs5
 .byte   W12
 .byte   En4
 .byte   N12 ,En5
 .byte   W12
 .byte   Dn4
 .byte   N12 ,Dn5
 .byte   W12
 .byte   Cs4
 .byte   N12 ,Cs5
 .byte   W12
 .byte   Dn4
 .byte   N12 ,Dn5
 .byte   W12
 .byte   En4
 .byte   N12 ,En5
 .byte   W12
 .byte   Fs4
 .byte   N12 ,Fs5
 .byte   W12
 .byte   PEND 
@  #01 @084   ----------------------------------------
Label_0100A14A:
 .byte   N72 ,Bn3 ,v096
 .byte   N72 ,Bn4
 .byte   W72
 .byte   N12 ,Cs4
 .byte   N12 ,Cs5
 .byte   W12
 .byte   Dn4
 .byte   N12 ,Dn5
 .byte   W12
 .byte   PEND 
@  #01 @085   ----------------------------------------
Label_0100A15A:
 .byte   N60 ,Dn4 ,v096
 .byte   N60 ,Dn5
 .byte   W60
 .byte   N12 ,Bn3
 .byte   N12 ,Bn4
 .byte   W12
 .byte   Cs4
 .byte   N12 ,Cs5
 .byte   W12
 .byte   Dn4
 .byte   N12 ,Dn5
 .byte   W12
 .byte   PEND 
@  #01 @086   ----------------------------------------
Label_0100A16E:
 .byte   N12 ,Dn4 ,v096
 .byte   N12 ,Dn5
 .byte   W12
 .byte   Cs4
 .byte   N12 ,Cs5
 .byte   W12
 .byte   N72 ,Cs4
 .byte   N72 ,Cs5
 .byte   W72
 .byte   PEND 
@  #01 @087   ----------------------------------------
Label_0100A17E:
 .byte   N12 ,Bn3 ,v096
 .byte   N12 ,Bn4
 .byte   W12
 .byte   As3
 .byte   N12 ,As4
 .byte   W12
 .byte   N72 ,As3
 .byte   N72 ,As4
 .byte   W72
 .byte   PEND 
@  #01 @088   ----------------------------------------
Label_0100A18E:
 .byte   W96
@  #01 @089   ----------------------------------------
 .byte   W96
@  #01 @090   ----------------------------------------
 .byte   W96
@  #01 @091   ----------------------------------------
 .byte   W96
@  #01 @092   ----------------------------------------
 .byte   W96
@  #01 @093   ----------------------------------------
 .byte   W96
@  #01 @094   ----------------------------------------
 .byte   W96
@  #01 @095   ----------------------------------------
 .byte   W96
@  #01 @096   ----------------------------------------
 .byte   W96
@  #01 @097   ----------------------------------------
 .byte   W96
@  #01 @098   ----------------------------------------
 .byte   W96
@  #01 @099   ----------------------------------------
 .byte   W96
@  #01 @100   ----------------------------------------
 .byte   W96
@  #01 @101   ----------------------------------------
 .byte   W96
@  #01 @102   ----------------------------------------
 .byte   W96
@  #01 @103   ----------------------------------------
 .byte   W96
@  #01 @104   ----------------------------------------
 .byte   PATT
  .word Label_01009F69
@  #01 @105   ----------------------------------------
 .byte   W96
@  #01 @106   ----------------------------------------
 .byte   W96
@  #01 @107   ----------------------------------------
 .byte   W96
@  #01 @108   ----------------------------------------
 .byte   PATT
  .word Label_01009F69
@  #01 @109   ----------------------------------------
 .byte   W96
@  #01 @110   ----------------------------------------
 .byte   PATT
  .word Label_01009F75
@  #01 @111   ----------------------------------------
 .byte   W96
@  #01 @112   ----------------------------------------
 .byte   EOT
 .byte   Fn4 ,v078
@  #01 @113   ----------------------------------------
 .byte   PATT
  .word Label_01009F90
@  #01 @114   ----------------------------------------
 .byte   W96
@  #01 @115   ----------------------------------------
 .byte   W96
@  #01 @116   ----------------------------------------
 .byte   W96
@  #01 @117   ----------------------------------------
 .byte   PATT
  .word Label_01009FA6
@  #01 @118   ----------------------------------------
 .byte   W96
@  #01 @119   ----------------------------------------
 .byte   W96
@  #01 @120   ----------------------------------------
 .byte   W96
@  #01 @121   ----------------------------------------
 .byte   W96
@  #01 @122   ----------------------------------------
 .byte   W96
@  #01 @123   ----------------------------------------
 .byte   W96
@  #01 @124   ----------------------------------------
 .byte   W96
@  #01 @125   ----------------------------------------
 .byte   W96
@  #01 @126   ----------------------------------------
 .byte   W96
@  #01 @127   ----------------------------------------
 .byte   W96
@  #01 @128   ----------------------------------------
 .byte   W96
@  #01 @129   ----------------------------------------
 .byte   PATT
  .word Label_01009F90
@  #01 @130   ----------------------------------------
 .byte   W96
@  #01 @131   ----------------------------------------
 .byte   W96
@  #01 @132   ----------------------------------------
 .byte   W96
@  #01 @133   ----------------------------------------
 .byte   PATT
  .word Label_01009F90
@  #01 @134   ----------------------------------------
 .byte   W96
@  #01 @135   ----------------------------------------
 .byte   W96
@  #01 @136   ----------------------------------------
 .byte   W96
@  #01 @137   ----------------------------------------
 .byte   W96
@  #01 @138   ----------------------------------------
 .byte   W96
@  #01 @139   ----------------------------------------
 .byte   W96
@  #01 @140   ----------------------------------------
 .byte   W96
@  #01 @141   ----------------------------------------
 .byte   W96
@  #01 @142   ----------------------------------------
 .byte   W96
@  #01 @143   ----------------------------------------
 .byte   PATT
  .word Label_01009FE2
@  #01 @144   ----------------------------------------
 .byte   W96
@  #01 @145   ----------------------------------------
 .byte   EOT
 .byte   Gn3 ,v068
 .byte   Gs4
 .byte   W96
@  #01 @146   ----------------------------------------
 .byte   W96
@  #01 @147   ----------------------------------------
 .byte   W96
@  #01 @148   ----------------------------------------
 .byte   PATT
  .word Label_0100A003
@  #01 @149   ----------------------------------------
 .byte   TIE ,Bn4 ,v127
 .byte   W96
@  #01 @150   ----------------------------------------
 .byte   W96
@  #01 @151   ----------------------------------------
 .byte   EOT
 .byte   TIE
 .byte   W96
@  #01 @152   ----------------------------------------
 .byte   W96
@  #01 @153   ----------------------------------------
 .byte   EOT
 .byte   N96 ,Bn1 ,v064
 .byte   W96
@  #01 @154   ----------------------------------------
 .byte   An1
 .byte   W96
@  #01 @155   ----------------------------------------
 .byte   TIE ,Gn1
 .byte   W96
@  #01 @156   ----------------------------------------
 .byte   W96
@  #01 @157   ----------------------------------------
 .byte   EOT
 .byte   N96 ,Bn1
 .byte   W96
@  #01 @158   ----------------------------------------
 .byte   An1
 .byte   W96
@  #01 @159   ----------------------------------------
 .byte   TIE ,Gn1
 .byte   W96
@  #01 @160   ----------------------------------------
 .byte   W96
@  #01 @161   ----------------------------------------
 .byte   EOT
 .byte   N96 ,Bn1
 .byte   W96
@  #01 @162   ----------------------------------------
 .byte   An1
 .byte   W96
@  #01 @163   ----------------------------------------
 .byte   Gn1
 .byte   W96
@  #01 @164   ----------------------------------------
 .byte   PATT
  .word Label_0100A03C
@  #01 @165   ----------------------------------------
 .byte   W96
@  #01 @166   ----------------------------------------
 .byte   W96
@  #01 @167   ----------------------------------------
 .byte   W96
@  #01 @168   ----------------------------------------
 .byte   W96
@  #01 @169   ----------------------------------------
 .byte   W96
@  #01 @170   ----------------------------------------
 .byte   W96
@  #01 @171   ----------------------------------------
 .byte   W96
@  #01 @172   ----------------------------------------
 .byte   W96
@  #01 @173   ----------------------------------------
 .byte   W96
@  #01 @174   ----------------------------------------
 .byte   W96
@  #01 @175   ----------------------------------------
 .byte   W96
@  #01 @176   ----------------------------------------
 .byte   PATT
  .word Label_0100A06F
@  #01 @177   ----------------------------------------
 .byte   PATT
  .word Label_0100A07A
@  #01 @178   ----------------------------------------
 .byte   PATT
  .word Label_0100A085
@  #01 @179   ----------------------------------------
 .byte   PATT
  .word Label_0100A090
@  #01 @180   ----------------------------------------
 .byte   PATT
  .word Label_0100A09F
@  #01 @181   ----------------------------------------
 .byte   PATT
  .word Label_0100A0AF
@  #01 @182   ----------------------------------------
 .byte   PATT
  .word Label_0100A0BF
@  #01 @183   ----------------------------------------
 .byte   PATT
  .word Label_0100A0D3
@  #01 @184   ----------------------------------------
 .byte   PATT
  .word Label_0100A0E3
@  #01 @185   ----------------------------------------
 .byte   PATT
  .word Label_0100A0F3
@  #01 @186   ----------------------------------------
 .byte   PATT
  .word Label_0100A0FF
@  #01 @187   ----------------------------------------
 .byte   PATT
  .word Label_0100A11B
@  #01 @188   ----------------------------------------
 .byte   PATT
  .word Label_0100A127
@  #01 @189   ----------------------------------------
 .byte   PATT
  .word Label_0100A14A
@  #01 @190   ----------------------------------------
 .byte   PATT
  .word Label_0100A15A
@  #01 @191   ----------------------------------------
 .byte   PATT
  .word Label_0100A16E
@  #01 @192   ----------------------------------------
 .byte   PATT
  .word Label_0100A17E
@  #01 @193   ----------------------------------------
 .byte   GOTO
  .word Label_0100A18E
@  #01 @194   ----------------------------------------
 .byte   W96
@  #01 @195   ----------------------------------------
 .byte   W96
@  #01 @196   ----------------------------------------
 .byte   W96
@  #01 @197   ----------------------------------------
 .byte   W96
@  #01 @198   ----------------------------------------
 .byte   W96
@  #01 @199   ----------------------------------------
 .byte   W96
@  #01 @200   ----------------------------------------
 .byte   W96
@  #01 @201   ----------------------------------------
 .byte   W96
@  #01 @202   ----------------------------------------
 .byte   W96
@  #01 @203   ----------------------------------------
 .byte   W96
@  #01 @204   ----------------------------------------
 .byte   W96
@  #01 @205   ----------------------------------------
 .byte   W96
@  #01 @206   ----------------------------------------
 .byte   W96
@  #01 @207   ----------------------------------------
 .byte   W96
@  #01 @208   ----------------------------------------
 .byte   W96
@  #01 @209   ----------------------------------------
 .byte   W96
 .byte   FINE

@**************** Track 2 (Midi-Chn.1) ****************@

song04_002:
@  #02 @000   ----------------------------------------
 .byte   KEYSH , song04_key+0
 .byte   VOICE , 30
 .byte   VOL , 50*song04_mvl/mxv
 .byte   PAN , c_v+0
 .byte   BEND , c_v+0
 .byte   N12 ,Bn1 ,v096
 .byte   N12 ,Fs2
 .byte   N12 ,Bn2
 .byte   W12
 .byte   Bn1
 .byte   N12 ,Fs2
 .byte   N12 ,Bn2
 .byte   W12
 .byte   N24 ,Fs1
 .byte   N24 ,Cs2
 .byte   N24 ,Fs2
 .byte   W24
 .byte   N09 ,Fn1 ,v076
 .byte   N09 ,Cn2
 .byte   W12
 .byte   N24 ,Fn1 ,v096
 .byte   N24 ,Cn2
 .byte   N24 ,Fn2
 .byte   W24
 .byte   N09 ,En1 ,v076
 .byte   N09 ,Bn1
 .byte   W12
@  #02 @001   ----------------------------------------
Label_0100A2DB:
 .byte   N48 ,En1 ,v096
 .byte   N48 ,Bn1
 .byte   N48 ,En2
 .byte   W48
 .byte   N24
 .byte   N24 ,Bn2
 .byte   N24 ,En3
 .byte   W24
 .byte   Dn2
 .byte   N24 ,An2
 .byte   N24 ,Dn3
 .byte   W24
 .byte   PEND 
@  #02 @002   ----------------------------------------
Label_0100A2F0:
 .byte   N24 ,Dn2 ,v096
 .byte   N24 ,An2
 .byte   N24 ,Dn3
 .byte   W24
 .byte   N09 ,Cn2 ,v076
 .byte   N09 ,Gn2
 .byte   W12
 .byte   TIE ,Cn2 ,v096
 .byte   TIE ,Gn2
 .byte   TIE ,Cn3
 .byte   W60
 .byte   PEND 
@  #02 @003   ----------------------------------------
 .byte   W96
@  #02 @004   ----------------------------------------
 .byte   EOT
 .byte   Cn2 ,v055
 .byte   Cn3
Label_0100A30C:
 .byte   N12 ,Bn1 ,v096
 .byte   N12 ,Fs2
 .byte   N12 ,Bn2
 .byte   W12
 .byte   Bn1
 .byte   N12 ,Fs2
 .byte   N12 ,Bn2
 .byte   W12
 .byte   N24 ,Fs1
 .byte   N24 ,Cs2
 .byte   N24 ,Fs2
 .byte   W24
 .byte   N09 ,Fn1 ,v076
 .byte   N09 ,Cn2
 .byte   W12
 .byte   N24 ,Fn1 ,v096
 .byte   N24 ,Cn2
 .byte   N24 ,Fn2
 .byte   W24
 .byte   N09 ,En1 ,v076
 .byte   N09 ,Bn1
 .byte   W12
 .byte   PEND 
@  #02 @005   ----------------------------------------
 .byte   PATT
  .word Label_0100A2DB
@  #02 @006   ----------------------------------------
Label_0100A33B:
 .byte   TIE ,Fn2 ,v096
 .byte   TIE ,Cn3
 .byte   TIE ,Fn3
 .byte   W96
 .byte   PEND 
@  #02 @007   ----------------------------------------
 .byte   W96
@  #02 @008   ----------------------------------------
 .byte   EOT
 .byte   Fn2 ,v060
 .byte   Fn3
@  #02 @009   ----------------------------------------
 .byte   PATT
  .word Label_0100A30C
@  #02 @010   ----------------------------------------
 .byte   PATT
  .word Label_0100A2DB
@  #02 @011   ----------------------------------------
 .byte   PATT
  .word Label_0100A2F0
@  #02 @012   ----------------------------------------
 .byte   W96
@  #02 @013   ----------------------------------------
 .byte   EOT
 .byte   Cn2 ,v055
 .byte   Cn3
@  #02 @014   ----------------------------------------
 .byte   PATT
  .word Label_0100A30C
@  #02 @015   ----------------------------------------
 .byte   PATT
  .word Label_0100A2DB
@  #02 @016   ----------------------------------------
Label_0100A367:
 .byte   N24 ,Fn2 ,v096
 .byte   N24 ,Cn3
 .byte   N24 ,Fn3
 .byte   W48
 .byte   Fn2 ,v064
 .byte   N24 ,Cn3
 .byte   N24 ,Fn3
 .byte   W48
 .byte   PEND 
@  #02 @017   ----------------------------------------
Label_0100A377:
 .byte   N24 ,Fn2 ,v048
 .byte   N24 ,Cn3
 .byte   N24 ,Fn3
 .byte   W48
 .byte   Fn2 ,v032
 .byte   N24 ,Cn3
 .byte   N24 ,Fn3
 .byte   W48
 .byte   PEND 
@  #02 @018   ----------------------------------------
Label_0100A387:
 .byte   W24
 .byte   N12 ,Dn2 ,v096
 .byte   N12 ,An2
 .byte   N12 ,Dn3
 .byte   W12
 .byte   N09 ,Dn2 ,v076
 .byte   N09 ,An2
 .byte   W12
 .byte   N12 ,Dn2 ,v096
 .byte   N12 ,An2
 .byte   N12 ,Dn3
 .byte   W12
 .byte   N09 ,Dn2 ,v076
 .byte   N09 ,An2
 .byte   W12
 .byte   N12 ,Dn2 ,v096
 .byte   N12 ,An2
 .byte   N12 ,Dn3
 .byte   W12
 .byte   N09 ,Dn2 ,v076
 .byte   N09 ,An2
 .byte   W12
 .byte   PEND 
@  #02 @019   ----------------------------------------
Label_0100A3B3:
 .byte   N24 ,Dn2 ,v096
 .byte   N24 ,An2
 .byte   N24 ,Dn3
 .byte   W36
 .byte   N36 ,Bn1
 .byte   N36 ,Fs2
 .byte   N36 ,Bn2
 .byte   W36
 .byte   N12 ,Bn1
 .byte   N12 ,Fs2
 .byte   N12 ,Bn2
 .byte   W24
 .byte   PEND 
@  #02 @020   ----------------------------------------
 .byte   PATT
  .word Label_0100A387
@  #02 @021   ----------------------------------------
Label_0100A3CF:
 .byte   N24 ,Dn2 ,v096
 .byte   N24 ,An2
 .byte   N24 ,Dn3
 .byte   W36
 .byte   N36 ,Bn1
 .byte   N36 ,Fs2
 .byte   N36 ,Bn2
 .byte   W48
 .byte   N12 ,Bn1 ,v076
 .byte   N12 ,Fs2
 .byte   N12 ,Bn2
 .byte   W12
 .byte   PEND 
@  #02 @022   ----------------------------------------
 .byte   PATT
  .word Label_0100A387
@  #02 @023   ----------------------------------------
 .byte   PATT
  .word Label_0100A3B3
@  #02 @024   ----------------------------------------
 .byte   PATT
  .word Label_0100A387
@  #02 @025   ----------------------------------------
 .byte   PATT
  .word Label_0100A3CF
@  #02 @026   ----------------------------------------
 .byte   PATT
  .word Label_0100A387
@  #02 @027   ----------------------------------------
 .byte   PATT
  .word Label_0100A3B3
@  #02 @028   ----------------------------------------
 .byte   PATT
  .word Label_0100A387
@  #02 @029   ----------------------------------------
 .byte   PATT
  .word Label_0100A3CF
@  #02 @030   ----------------------------------------
 .byte   PATT
  .word Label_0100A387
@  #02 @031   ----------------------------------------
 .byte   PATT
  .word Label_0100A3B3
@  #02 @032   ----------------------------------------
Label_0100A419:
 .byte   W24
 .byte   N12 ,Dn2 ,v096
 .byte   N12 ,An2
 .byte   N12 ,Dn3
 .byte   W12
 .byte   N09 ,Dn2 ,v076
 .byte   N09 ,An2
 .byte   W12
 .byte   Dn2
 .byte   N09 ,An2
 .byte   W12
 .byte   N12 ,Dn2 ,v096
 .byte   N12 ,An2
 .byte   N12 ,Dn3
 .byte   W12
 .byte   N09 ,Dn2 ,v076
 .byte   N09 ,An2
 .byte   W12
 .byte   Dn2
 .byte   N09 ,An2
 .byte   W12
 .byte   PEND 
@  #02 @033   ----------------------------------------
Label_0100A43F:
 .byte   N12 ,Dn2 ,v096
 .byte   N12 ,An2
 .byte   N12 ,Dn3
 .byte   W12
 .byte   N09 ,Dn2 ,v076
 .byte   N09 ,An2
 .byte   W12
 .byte   Dn2
 .byte   N09 ,An2
 .byte   W12
 .byte   N12 ,Dn2 ,v096
 .byte   N12 ,An2
 .byte   N12 ,Dn3
 .byte   W12
 .byte   N09 ,Dn2 ,v076
 .byte   N09 ,An2
 .byte   W12
 .byte   Dn2
 .byte   N09 ,An2
 .byte   W12
 .byte   N12 ,Dn2 ,v096
 .byte   N12 ,An2
 .byte   N12 ,Dn3
 .byte   W12
 .byte   N09 ,Dn2 ,v076
 .byte   N09 ,An2
 .byte   W12
 .byte   PEND 
@  #02 @034   ----------------------------------------
 .byte   W96
@  #02 @035   ----------------------------------------
 .byte   W96
@  #02 @036   ----------------------------------------
 .byte   W96
@  #02 @037   ----------------------------------------
 .byte   W96
@  #02 @038   ----------------------------------------
 .byte   W96
@  #02 @039   ----------------------------------------
 .byte   W96
@  #02 @040   ----------------------------------------
 .byte   W96
@  #02 @041   ----------------------------------------
 .byte   W96
@  #02 @042   ----------------------------------------
 .byte   W96
@  #02 @043   ----------------------------------------
 .byte   W96
@  #02 @044   ----------------------------------------
 .byte   W96
@  #02 @045   ----------------------------------------
 .byte   W96
@  #02 @046   ----------------------------------------
 .byte   W96
@  #02 @047   ----------------------------------------
 .byte   W96
@  #02 @048   ----------------------------------------
 .byte   W96
@  #02 @049   ----------------------------------------
 .byte   W96
@  #02 @050   ----------------------------------------
 .byte   W96
@  #02 @051   ----------------------------------------
 .byte   W96
@  #02 @052   ----------------------------------------
 .byte   W96
@  #02 @053   ----------------------------------------
 .byte   W96
@  #02 @054   ----------------------------------------
 .byte   W96
@  #02 @055   ----------------------------------------
 .byte   W96
@  #02 @056   ----------------------------------------
 .byte   W96
@  #02 @057   ----------------------------------------
 .byte   W96
@  #02 @058   ----------------------------------------
 .byte   W96
@  #02 @059   ----------------------------------------
 .byte   W96
@  #02 @060   ----------------------------------------
 .byte   W96
@  #02 @061   ----------------------------------------
 .byte   W96
@  #02 @062   ----------------------------------------
 .byte   W96
@  #02 @063   ----------------------------------------
 .byte   W96
@  #02 @064   ----------------------------------------
 .byte   W96
@  #02 @065   ----------------------------------------
 .byte   W96
@  #02 @066   ----------------------------------------
 .byte   W96
@  #02 @067   ----------------------------------------
 .byte   W96
@  #02 @068   ----------------------------------------
 .byte   W96
@  #02 @069   ----------------------------------------
 .byte   W96
@  #02 @070   ----------------------------------------
 .byte   W96
@  #02 @071   ----------------------------------------
 .byte   W96
@  #02 @072   ----------------------------------------
 .byte   W96
@  #02 @073   ----------------------------------------
 .byte   W96
@  #02 @074   ----------------------------------------
 .byte   W96
@  #02 @075   ----------------------------------------
 .byte   W96
@  #02 @076   ----------------------------------------
 .byte   W96
@  #02 @077   ----------------------------------------
 .byte   W96
@  #02 @078   ----------------------------------------
 .byte   W96
@  #02 @079   ----------------------------------------
 .byte   W96
@  #02 @080   ----------------------------------------
 .byte   W96
@  #02 @081   ----------------------------------------
 .byte   W96
@  #02 @082   ----------------------------------------
 .byte   W96
@  #02 @083   ----------------------------------------
 .byte   W96
@  #02 @084   ----------------------------------------
 .byte   W96
@  #02 @085   ----------------------------------------
 .byte   W96
@  #02 @086   ----------------------------------------
 .byte   W96
@  #02 @087   ----------------------------------------
 .byte   W96
@  #02 @088   ----------------------------------------
 .byte   W96
@  #02 @089   ----------------------------------------
 .byte   W96
@  #02 @090   ----------------------------------------
Label_0100A4AA:
 .byte   N12 ,Bn1 ,v096
 .byte   N12 ,Fs2
 .byte   N12 ,Bn2
 .byte   W12
 .byte   N09 ,Bn1 ,v076
 .byte   N09 ,Fs2
 .byte   W12
 .byte   Bn1
 .byte   N09 ,Fs2
 .byte   W12
 .byte   N12 ,Bn1 ,v096
 .byte   N12 ,Fs2
 .byte   N12 ,Bn2
 .byte   W12
 .byte   N09 ,Bn1 ,v076
 .byte   N09 ,Fs2
 .byte   W12
 .byte   Bn1
 .byte   N09 ,Fs2
 .byte   W12
 .byte   N12 ,Cn2 ,v096
 .byte   N12 ,Gn2
 .byte   N12 ,Cn3
 .byte   W24
 .byte   PEND 
@  #02 @091   ----------------------------------------
Label_0100A4D7:
 .byte   W12
 .byte   N12 ,Bn1 ,v096
 .byte   N12 ,Fs2
 .byte   N12 ,Bn2
 .byte   W12
 .byte   N09 ,Bn1 ,v076
 .byte   N09 ,Fs2
 .byte   W12
 .byte   Bn1
 .byte   N09 ,Fs2
 .byte   W12
 .byte   N12 ,Bn1 ,v096
 .byte   N12 ,Fs2
 .byte   N12 ,Bn2
 .byte   W12
 .byte   N09 ,Bn1 ,v076
 .byte   N09 ,Fs2
 .byte   W12
 .byte   N12 ,Cn2 ,v096
 .byte   N12 ,Gn2
 .byte   N12 ,Cn3
 .byte   W24
 .byte   PEND 
@  #02 @092   ----------------------------------------
 .byte   PATT
  .word Label_0100A4AA
@  #02 @093   ----------------------------------------
Label_0100A506:
 .byte   W12
 .byte   N12 ,An1 ,v096
 .byte   N12 ,En2
 .byte   N12 ,An2
 .byte   W12
 .byte   N09 ,An1 ,v076
 .byte   N09 ,En2
 .byte   W12
 .byte   An1
 .byte   N09 ,En2
 .byte   W12
 .byte   N12 ,An1 ,v096
 .byte   N12 ,En2
 .byte   N12 ,An2
 .byte   W12
 .byte   N09 ,An1 ,v076
 .byte   N09 ,En2
 .byte   W12
 .byte   N24 ,As1 ,v096
 .byte   N24 ,Fn2
 .byte   N24 ,As2
 .byte   W24
 .byte   PEND 
@  #02 @094   ----------------------------------------
 .byte   PATT
  .word Label_0100A4AA
@  #02 @095   ----------------------------------------
 .byte   PATT
  .word Label_0100A4D7
@  #02 @096   ----------------------------------------
 .byte   PATT
  .word Label_0100A4AA
@  #02 @097   ----------------------------------------
 .byte   PATT
  .word Label_0100A506
@  #02 @098   ----------------------------------------
 .byte   PATT
  .word Label_0100A4AA
@  #02 @099   ----------------------------------------
 .byte   PATT
  .word Label_0100A4D7
@  #02 @100   ----------------------------------------
 .byte   PATT
  .word Label_0100A4AA
@  #02 @101   ----------------------------------------
 .byte   PATT
  .word Label_0100A506
@  #02 @102   ----------------------------------------
 .byte   PATT
  .word Label_0100A4AA
@  #02 @103   ----------------------------------------
 .byte   PATT
  .word Label_0100A4D7
@  #02 @104   ----------------------------------------
 .byte   PATT
  .word Label_0100A4AA
@  #02 @105   ----------------------------------------
 .byte   PATT
  .word Label_0100A506
@  #02 @106   ----------------------------------------
 .byte   PATT
  .word Label_0100A30C
@  #02 @107   ----------------------------------------
 .byte   PATT
  .word Label_0100A2DB
@  #02 @108   ----------------------------------------
 .byte   PATT
  .word Label_0100A2F0
@  #02 @109   ----------------------------------------
 .byte   W96
@  #02 @110   ----------------------------------------
 .byte   EOT
 .byte   Cn2 ,v055
 .byte   Cn3
@  #02 @111   ----------------------------------------
 .byte   PATT
  .word Label_0100A30C
@  #02 @112   ----------------------------------------
 .byte   PATT
  .word Label_0100A2DB
@  #02 @113   ----------------------------------------
 .byte   PATT
  .word Label_0100A33B
@  #02 @114   ----------------------------------------
 .byte   W96
@  #02 @115   ----------------------------------------
 .byte   EOT
 .byte   Fn2 ,v060
 .byte   Fn3
@  #02 @116   ----------------------------------------
 .byte   PATT
  .word Label_0100A30C
@  #02 @117   ----------------------------------------
 .byte   PATT
  .word Label_0100A2DB
@  #02 @118   ----------------------------------------
 .byte   PATT
  .word Label_0100A2F0
@  #02 @119   ----------------------------------------
 .byte   W96
@  #02 @120   ----------------------------------------
 .byte   EOT
 .byte   Cn2 ,v055
 .byte   Cn3
@  #02 @121   ----------------------------------------
 .byte   PATT
  .word Label_0100A30C
@  #02 @122   ----------------------------------------
 .byte   PATT
  .word Label_0100A2DB
@  #02 @123   ----------------------------------------
 .byte   PATT
  .word Label_0100A367
@  #02 @124   ----------------------------------------
 .byte   PATT
  .word Label_0100A377
@  #02 @125   ----------------------------------------
 .byte   PATT
  .word Label_0100A387
@  #02 @126   ----------------------------------------
 .byte   PATT
  .word Label_0100A3B3
@  #02 @127   ----------------------------------------
 .byte   PATT
  .word Label_0100A387
@  #02 @128   ----------------------------------------
 .byte   PATT
  .word Label_0100A3CF
@  #02 @129   ----------------------------------------
 .byte   PATT
  .word Label_0100A387
@  #02 @130   ----------------------------------------
 .byte   PATT
  .word Label_0100A3B3
@  #02 @131   ----------------------------------------
 .byte   PATT
  .word Label_0100A387
@  #02 @132   ----------------------------------------
 .byte   PATT
  .word Label_0100A3CF
@  #02 @133   ----------------------------------------
 .byte   PATT
  .word Label_0100A387
@  #02 @134   ----------------------------------------
 .byte   PATT
  .word Label_0100A3B3
@  #02 @135   ----------------------------------------
 .byte   PATT
  .word Label_0100A387
@  #02 @136   ----------------------------------------
 .byte   PATT
  .word Label_0100A3CF
@  #02 @137   ----------------------------------------
 .byte   PATT
  .word Label_0100A387
@  #02 @138   ----------------------------------------
 .byte   PATT
  .word Label_0100A3B3
@  #02 @139   ----------------------------------------
 .byte   PATT
  .word Label_0100A419
@  #02 @140   ----------------------------------------
 .byte   PATT
  .word Label_0100A43F
@  #02 @141   ----------------------------------------
 .byte   W96
@  #02 @142   ----------------------------------------
 .byte   W96
@  #02 @143   ----------------------------------------
 .byte   W96
@  #02 @144   ----------------------------------------
 .byte   W96
@  #02 @145   ----------------------------------------
 .byte   W96
@  #02 @146   ----------------------------------------
 .byte   W96
@  #02 @147   ----------------------------------------
 .byte   W96
@  #02 @148   ----------------------------------------
 .byte   W96
@  #02 @149   ----------------------------------------
 .byte   W96
@  #02 @150   ----------------------------------------
 .byte   W96
@  #02 @151   ----------------------------------------
 .byte   W96
@  #02 @152   ----------------------------------------
 .byte   W96
@  #02 @153   ----------------------------------------
 .byte   W96
@  #02 @154   ----------------------------------------
 .byte   W96
@  #02 @155   ----------------------------------------
 .byte   W96
@  #02 @156   ----------------------------------------
 .byte   W96
@  #02 @157   ----------------------------------------
 .byte   W96
@  #02 @158   ----------------------------------------
 .byte   W96
@  #02 @159   ----------------------------------------
 .byte   W96
@  #02 @160   ----------------------------------------
 .byte   W96
@  #02 @161   ----------------------------------------
 .byte   W96
@  #02 @162   ----------------------------------------
 .byte   W96
@  #02 @163   ----------------------------------------
 .byte   W96
@  #02 @164   ----------------------------------------
 .byte   W96
@  #02 @165   ----------------------------------------
 .byte   W96
@  #02 @166   ----------------------------------------
 .byte   W96
@  #02 @167   ----------------------------------------
 .byte   W96
@  #02 @168   ----------------------------------------
 .byte   W96
@  #02 @169   ----------------------------------------
 .byte   W96
@  #02 @170   ----------------------------------------
 .byte   W96
@  #02 @171   ----------------------------------------
 .byte   W96
@  #02 @172   ----------------------------------------
 .byte   W96
@  #02 @173   ----------------------------------------
 .byte   W96
@  #02 @174   ----------------------------------------
 .byte   W96
@  #02 @175   ----------------------------------------
 .byte   W96
@  #02 @176   ----------------------------------------
 .byte   W96
@  #02 @177   ----------------------------------------
 .byte   W96
@  #02 @178   ----------------------------------------
 .byte   W96
@  #02 @179   ----------------------------------------
 .byte   W96
@  #02 @180   ----------------------------------------
 .byte   W96
@  #02 @181   ----------------------------------------
 .byte   W96
@  #02 @182   ----------------------------------------
 .byte   W96
@  #02 @183   ----------------------------------------
 .byte   W96
@  #02 @184   ----------------------------------------
 .byte   W96
@  #02 @185   ----------------------------------------
 .byte   W96
@  #02 @186   ----------------------------------------
 .byte   W96
@  #02 @187   ----------------------------------------
 .byte   W96
@  #02 @188   ----------------------------------------
 .byte   W96
@  #02 @189   ----------------------------------------
 .byte   W96
@  #02 @190   ----------------------------------------
 .byte   W96
@  #02 @191   ----------------------------------------
 .byte   W96
@  #02 @192   ----------------------------------------
 .byte   W96
@  #02 @193   ----------------------------------------
 .byte   W96
@  #02 @194   ----------------------------------------
 .byte   W96
@  #02 @195   ----------------------------------------
 .byte   W96
@  #02 @196   ----------------------------------------
 .byte   W96
@  #02 @197   ----------------------------------------
 .byte   GOTO
  .word Label_0100A4AA
@  #02 @198   ----------------------------------------
 .byte   PATT
  .word Label_0100A4AA
@  #02 @199   ----------------------------------------
 .byte   PATT
  .word Label_0100A4D7
@  #02 @200   ----------------------------------------
 .byte   PATT
  .word Label_0100A4AA
@  #02 @201   ----------------------------------------
 .byte   PATT
  .word Label_0100A506
@  #02 @202   ----------------------------------------
 .byte   PATT
  .word Label_0100A4AA
@  #02 @203   ----------------------------------------
 .byte   PATT
  .word Label_0100A4D7
@  #02 @204   ----------------------------------------
 .byte   PATT
  .word Label_0100A4AA
@  #02 @205   ----------------------------------------
 .byte   PATT
  .word Label_0100A506
@  #02 @206   ----------------------------------------
 .byte   PATT
  .word Label_0100A4AA
@  #02 @207   ----------------------------------------
 .byte   PATT
  .word Label_0100A4D7
@  #02 @208   ----------------------------------------
 .byte   PATT
  .word Label_0100A4AA
@  #02 @209   ----------------------------------------
 .byte   PATT
  .word Label_0100A506
@  #02 @210   ----------------------------------------
 .byte   PATT
  .word Label_0100A4AA
@  #02 @211   ----------------------------------------
 .byte   PATT
  .word Label_0100A4D7
@  #02 @212   ----------------------------------------
 .byte   PATT
  .word Label_0100A4AA
@  #02 @213   ----------------------------------------
 .byte   PATT
  .word Label_0100A506
 .byte   FINE

@**************** Track 3 (Midi-Chn.2) ****************@

song04_003:
@  #03 @000   ----------------------------------------
 .byte   KEYSH , song04_key+0
 .byte   VOICE , 30
 .byte   VOL , 50*song04_mvl/mxv
 .byte   PAN , c_v+0
 .byte   BEND , c_v+0
 .byte   W96
@  #03 @001   ----------------------------------------
 .byte   W96
@  #03 @002   ----------------------------------------
 .byte   W96
@  #03 @003   ----------------------------------------
 .byte   W96
@  #03 @004   ----------------------------------------
 .byte   W96
@  #03 @005   ----------------------------------------
 .byte   W96
@  #03 @006   ----------------------------------------
 .byte   W96
@  #03 @007   ----------------------------------------
 .byte   W96
@  #03 @008   ----------------------------------------
 .byte   W96
@  #03 @009   ----------------------------------------
 .byte   W96
@  #03 @010   ----------------------------------------
 .byte   W96
@  #03 @011   ----------------------------------------
 .byte   W96
@  #03 @012   ----------------------------------------
 .byte   W96
@  #03 @013   ----------------------------------------
 .byte   W96
@  #03 @014   ----------------------------------------
 .byte   W96
@  #03 @015   ----------------------------------------
 .byte   W96
@  #03 @016   ----------------------------------------
 .byte   W96
@  #03 @017   ----------------------------------------
 .byte   W96
@  #03 @018   ----------------------------------------
 .byte   W96
@  #03 @019   ----------------------------------------
Label_0100624D:
 .byte   W72
 .byte   N12 ,An1 ,v096
 .byte   N12 ,En2
 .byte   N12 ,An2
 .byte   W10
 .byte   BEND , c_v+5
 .byte   W02
 .byte   BEND , c_v+0
 .byte   W12
 .byte   PEND 
@  #03 @020   ----------------------------------------
 .byte   W96
@  #03 @021   ----------------------------------------
 .byte   W96
@  #03 @022   ----------------------------------------
 .byte   W96
@  #03 @023   ----------------------------------------
 .byte   PATT
  .word Label_0100624D
@  #03 @024   ----------------------------------------
 .byte   W96
@  #03 @025   ----------------------------------------
 .byte   W96
@  #03 @026   ----------------------------------------
 .byte   W96
@  #03 @027   ----------------------------------------
 .byte   PATT
  .word Label_0100624D
@  #03 @028   ----------------------------------------
 .byte   W96
@  #03 @029   ----------------------------------------
 .byte   W96
@  #03 @030   ----------------------------------------
 .byte   W96
@  #03 @031   ----------------------------------------
 .byte   W96
@  #03 @032   ----------------------------------------
 .byte   W96
@  #03 @033   ----------------------------------------
 .byte   W96
@  #03 @034   ----------------------------------------
 .byte   W96
@  #03 @035   ----------------------------------------
 .byte   W96
@  #03 @036   ----------------------------------------
 .byte   W96
@  #03 @037   ----------------------------------------
 .byte   W96
@  #03 @038   ----------------------------------------
 .byte   W96
@  #03 @039   ----------------------------------------
 .byte   W96
@  #03 @040   ----------------------------------------
 .byte   W96
@  #03 @041   ----------------------------------------
 .byte   W96
@  #03 @042   ----------------------------------------
 .byte   W96
@  #03 @043   ----------------------------------------
 .byte   W96
@  #03 @044   ----------------------------------------
 .byte   W96
@  #03 @045   ----------------------------------------
 .byte   W96
@  #03 @046   ----------------------------------------
 .byte   W96
@  #03 @047   ----------------------------------------
 .byte   W96
@  #03 @048   ----------------------------------------
 .byte   W96
@  #03 @049   ----------------------------------------
 .byte   W96
@  #03 @050   ----------------------------------------
 .byte   W96
@  #03 @051   ----------------------------------------
 .byte   W96
@  #03 @052   ----------------------------------------
 .byte   W96
@  #03 @053   ----------------------------------------
 .byte   W96
@  #03 @054   ----------------------------------------
 .byte   W96
@  #03 @055   ----------------------------------------
 .byte   W96
@  #03 @056   ----------------------------------------
 .byte   W96
@  #03 @057   ----------------------------------------
 .byte   W96
@  #03 @058   ----------------------------------------
 .byte   W96
@  #03 @059   ----------------------------------------
 .byte   W96
@  #03 @060   ----------------------------------------
 .byte   W96
@  #03 @061   ----------------------------------------
 .byte   W96
@  #03 @062   ----------------------------------------
 .byte   W96
@  #03 @063   ----------------------------------------
 .byte   W96
@  #03 @064   ----------------------------------------
 .byte   W96
@  #03 @065   ----------------------------------------
 .byte   W96
@  #03 @066   ----------------------------------------
 .byte   W96
@  #03 @067   ----------------------------------------
 .byte   W96
@  #03 @068   ----------------------------------------
 .byte   W96
@  #03 @069   ----------------------------------------
 .byte   W96
@  #03 @070   ----------------------------------------
 .byte   W96
@  #03 @071   ----------------------------------------
 .byte   W96
@  #03 @072   ----------------------------------------
 .byte   W96
@  #03 @073   ----------------------------------------
 .byte   W96
@  #03 @074   ----------------------------------------
 .byte   W96
@  #03 @075   ----------------------------------------
 .byte   W96
@  #03 @076   ----------------------------------------
 .byte   W96
@  #03 @077   ----------------------------------------
 .byte   W96
@  #03 @078   ----------------------------------------
 .byte   W96
@  #03 @079   ----------------------------------------
 .byte   W96
@  #03 @080   ----------------------------------------
 .byte   W96
@  #03 @081   ----------------------------------------
 .byte   W96
@  #03 @082   ----------------------------------------
 .byte   W96
@  #03 @083   ----------------------------------------
 .byte   W96
@  #03 @084   ----------------------------------------
 .byte   W96
@  #03 @085   ----------------------------------------
 .byte   W96
@  #03 @086   ----------------------------------------
 .byte   W96
@  #03 @087   ----------------------------------------
 .byte   W96
@  #03 @088   ----------------------------------------
Label_010062A8:
 .byte   W96
@  #03 @089   ----------------------------------------
 .byte   W96
@  #03 @090   ----------------------------------------
 .byte   W96
@  #03 @091   ----------------------------------------
 .byte   W96
@  #03 @092   ----------------------------------------
 .byte   W96
@  #03 @093   ----------------------------------------
 .byte   W96
@  #03 @094   ----------------------------------------
 .byte   W96
@  #03 @095   ----------------------------------------
 .byte   W96
@  #03 @096   ----------------------------------------
 .byte   W96
@  #03 @097   ----------------------------------------
 .byte   W96
@  #03 @098   ----------------------------------------
 .byte   W96
@  #03 @099   ----------------------------------------
 .byte   W96
@  #03 @100   ----------------------------------------
 .byte   W96
@  #03 @101   ----------------------------------------
 .byte   W96
@  #03 @102   ----------------------------------------
 .byte   W96
@  #03 @103   ----------------------------------------
 .byte   W96
@  #03 @104   ----------------------------------------
 .byte   W96
@  #03 @105   ----------------------------------------
 .byte   W96
@  #03 @106   ----------------------------------------
 .byte   W96
@  #03 @107   ----------------------------------------
 .byte   W96
@  #03 @108   ----------------------------------------
 .byte   W96
@  #03 @109   ----------------------------------------
 .byte   W96
@  #03 @110   ----------------------------------------
 .byte   W96
@  #03 @111   ----------------------------------------
 .byte   W96
@  #03 @112   ----------------------------------------
 .byte   W96
@  #03 @113   ----------------------------------------
 .byte   W96
@  #03 @114   ----------------------------------------
 .byte   W96
@  #03 @115   ----------------------------------------
 .byte   W96
@  #03 @116   ----------------------------------------
 .byte   W96
@  #03 @117   ----------------------------------------
 .byte   W96
@  #03 @118   ----------------------------------------
 .byte   W96
@  #03 @119   ----------------------------------------
 .byte   W96
@  #03 @120   ----------------------------------------
 .byte   W96
@  #03 @121   ----------------------------------------
 .byte   W96
@  #03 @122   ----------------------------------------
 .byte   W96
@  #03 @123   ----------------------------------------
 .byte   PATT
  .word Label_0100624D
@  #03 @124   ----------------------------------------
 .byte   W96
@  #03 @125   ----------------------------------------
 .byte   W96
@  #03 @126   ----------------------------------------
 .byte   W96
@  #03 @127   ----------------------------------------
 .byte   PATT
  .word Label_0100624D
@  #03 @128   ----------------------------------------
 .byte   W96
@  #03 @129   ----------------------------------------
 .byte   W96
@  #03 @130   ----------------------------------------
 .byte   W96
@  #03 @131   ----------------------------------------
 .byte   PATT
  .word Label_0100624D
@  #03 @132   ----------------------------------------
 .byte   W96
@  #03 @133   ----------------------------------------
 .byte   W96
@  #03 @134   ----------------------------------------
 .byte   W96
@  #03 @135   ----------------------------------------
 .byte   W96
@  #03 @136   ----------------------------------------
 .byte   W96
@  #03 @137   ----------------------------------------
 .byte   W96
@  #03 @138   ----------------------------------------
 .byte   W96
@  #03 @139   ----------------------------------------
 .byte   W96
@  #03 @140   ----------------------------------------
 .byte   W96
@  #03 @141   ----------------------------------------
 .byte   W96
@  #03 @142   ----------------------------------------
 .byte   W96
@  #03 @143   ----------------------------------------
 .byte   W96
@  #03 @144   ----------------------------------------
 .byte   W96
@  #03 @145   ----------------------------------------
 .byte   W96
@  #03 @146   ----------------------------------------
 .byte   W96
@  #03 @147   ----------------------------------------
 .byte   W96
@  #03 @148   ----------------------------------------
 .byte   W96
@  #03 @149   ----------------------------------------
 .byte   W96
@  #03 @150   ----------------------------------------
 .byte   W96
@  #03 @151   ----------------------------------------
 .byte   W96
@  #03 @152   ----------------------------------------
 .byte   W96
@  #03 @153   ----------------------------------------
 .byte   W96
@  #03 @154   ----------------------------------------
 .byte   W96
@  #03 @155   ----------------------------------------
 .byte   W96
@  #03 @156   ----------------------------------------
 .byte   W96
@  #03 @157   ----------------------------------------
 .byte   W96
@  #03 @158   ----------------------------------------
 .byte   W96
@  #03 @159   ----------------------------------------
 .byte   W96
@  #03 @160   ----------------------------------------
 .byte   W96
@  #03 @161   ----------------------------------------
 .byte   W96
@  #03 @162   ----------------------------------------
 .byte   W96
@  #03 @163   ----------------------------------------
 .byte   W96
@  #03 @164   ----------------------------------------
 .byte   W96
@  #03 @165   ----------------------------------------
 .byte   W96
@  #03 @166   ----------------------------------------
 .byte   W96
@  #03 @167   ----------------------------------------
 .byte   W96
@  #03 @168   ----------------------------------------
 .byte   W96
@  #03 @169   ----------------------------------------
 .byte   W96
@  #03 @170   ----------------------------------------
 .byte   W96
@  #03 @171   ----------------------------------------
 .byte   W96
@  #03 @172   ----------------------------------------
 .byte   W96
@  #03 @173   ----------------------------------------
 .byte   W96
@  #03 @174   ----------------------------------------
 .byte   W96
@  #03 @175   ----------------------------------------
 .byte   W96
@  #03 @176   ----------------------------------------
 .byte   W96
@  #03 @177   ----------------------------------------
 .byte   W96
@  #03 @178   ----------------------------------------
 .byte   W96
@  #03 @179   ----------------------------------------
 .byte   W96
@  #03 @180   ----------------------------------------
 .byte   W96
@  #03 @181   ----------------------------------------
 .byte   W96
@  #03 @182   ----------------------------------------
 .byte   W96
@  #03 @183   ----------------------------------------
 .byte   W96
@  #03 @184   ----------------------------------------
 .byte   W96
@  #03 @185   ----------------------------------------
 .byte   W96
@  #03 @186   ----------------------------------------
 .byte   W96
@  #03 @187   ----------------------------------------
 .byte   W96
@  #03 @188   ----------------------------------------
 .byte   W96
@  #03 @189   ----------------------------------------
 .byte   W96
@  #03 @190   ----------------------------------------
 .byte   W96
@  #03 @191   ----------------------------------------
 .byte   W96
@  #03 @192   ----------------------------------------
 .byte   GOTO
  .word Label_010062A8
@  #03 @193   ----------------------------------------
 .byte   W96
@  #03 @194   ----------------------------------------
 .byte   W96
@  #03 @195   ----------------------------------------
 .byte   W96
@  #03 @196   ----------------------------------------
 .byte   W96
@  #03 @197   ----------------------------------------
 .byte   W96
@  #03 @198   ----------------------------------------
 .byte   W96
@  #03 @199   ----------------------------------------
 .byte   W96
@  #03 @200   ----------------------------------------
 .byte   W96
@  #03 @201   ----------------------------------------
 .byte   W96
@  #03 @202   ----------------------------------------
 .byte   W96
@  #03 @203   ----------------------------------------
 .byte   W96
@  #03 @204   ----------------------------------------
 .byte   W96
@  #03 @205   ----------------------------------------
 .byte   W96
@  #03 @206   ----------------------------------------
 .byte   W96
@  #03 @207   ----------------------------------------
 .byte   W96
@  #03 @208   ----------------------------------------
 .byte   W96
 .byte   FINE

@**************** Track 4 (Midi-Chn.3) ****************@

song04_004:
@  #04 @000   ----------------------------------------
 .byte   KEYSH , song04_key+0
 .byte   VOICE , 34
 .byte   VOL , 50*song04_mvl/mxv
 .byte   PAN , c_v+0
 .byte   BEND , c_v+0
 .byte   W96
@  #04 @001   ----------------------------------------
 .byte   W96
@  #04 @002   ----------------------------------------
 .byte   W96
@  #04 @003   ----------------------------------------
 .byte   W96
@  #04 @004   ----------------------------------------
 .byte   W96
@  #04 @005   ----------------------------------------
 .byte   W96
@  #04 @006   ----------------------------------------
 .byte   W96
@  #04 @007   ----------------------------------------
 .byte   W96
@  #04 @008   ----------------------------------------
Label_0100A6BE:
 .byte   N12 ,Bn0 ,v096
 .byte   W12
 .byte   N12
 .byte   W12
 .byte   N24 ,Fs0
 .byte   W24
 .byte   N12 ,Fn0
 .byte   W12
 .byte   N24
 .byte   W24
 .byte   N12 ,En0
 .byte   W12
 .byte   PEND 
@  #04 @009   ----------------------------------------
Label_0100A6D0:
 .byte   N48 ,En0 ,v096
 .byte   W48
 .byte   N24 ,En1
 .byte   W24
 .byte   Dn1
 .byte   W24
 .byte   PEND 
@  #04 @010   ----------------------------------------
Label_0100A6DA:
 .byte   N24 ,Dn1 ,v096
 .byte   W24
 .byte   N12 ,Cn1
 .byte   W12
 .byte   TIE
 .byte   W60
 .byte   PEND 
@  #04 @011   ----------------------------------------
 .byte   W96
@  #04 @012   ----------------------------------------
 .byte   EOT
@  #04 @013   ----------------------------------------
 .byte   PATT
  .word Label_0100A6BE
@  #04 @014   ----------------------------------------
 .byte   PATT
  .word Label_0100A6D0
@  #04 @015   ----------------------------------------
 .byte   N24 ,Fn1 ,v096
 .byte   W96
@  #04 @016   ----------------------------------------
 .byte   W96
@  #04 @017   ----------------------------------------
Label_0100A6F5:
 .byte   N12 ,Bn0 ,v096
 .byte   W12
 .byte   N12
 .byte   W12
 .byte   N12
 .byte   W12
 .byte   N12
 .byte   W12
 .byte   N12
 .byte   W12
 .byte   N12
 .byte   W12
 .byte   N12
 .byte   W12
 .byte   N12
 .byte   W12
 .byte   PEND 
@  #04 @018   ----------------------------------------
 .byte   PATT
  .word Label_0100A6F5
@  #04 @019   ----------------------------------------
 .byte   PATT
  .word Label_0100A6F5
@  #04 @020   ----------------------------------------
 .byte   PATT
  .word Label_0100A6F5
@  #04 @021   ----------------------------------------
 .byte   PATT
  .word Label_0100A6F5
@  #04 @022   ----------------------------------------
 .byte   PATT
  .word Label_0100A6F5
@  #04 @023   ----------------------------------------
 .byte   PATT
  .word Label_0100A6F5
@  #04 @024   ----------------------------------------
 .byte   PATT
  .word Label_0100A6F5
@  #04 @025   ----------------------------------------
 .byte   PATT
  .word Label_0100A6F5
@  #04 @026   ----------------------------------------
 .byte   PATT
  .word Label_0100A6F5
@  #04 @027   ----------------------------------------
 .byte   PATT
  .word Label_0100A6F5
@  #04 @028   ----------------------------------------
 .byte   PATT
  .word Label_0100A6F5
@  #04 @029   ----------------------------------------
 .byte   PATT
  .word Label_0100A6F5
@  #04 @030   ----------------------------------------
 .byte   PATT
  .word Label_0100A6F5
@  #04 @031   ----------------------------------------
 .byte   PATT
  .word Label_0100A6F5
@  #04 @032   ----------------------------------------
 .byte   PATT
  .word Label_0100A6F5
@  #04 @033   ----------------------------------------
 .byte   PATT
  .word Label_0100A6F5
@  #04 @034   ----------------------------------------
Label_0100A758:
 .byte   N12 ,An0 ,v096
 .byte   W12
 .byte   N12
 .byte   W12
 .byte   N12
 .byte   W12
 .byte   N12
 .byte   W12
 .byte   N12
 .byte   W12
 .byte   N12
 .byte   W12
 .byte   N12
 .byte   W12
 .byte   N12
 .byte   W12
 .byte   PEND 
@  #04 @035   ----------------------------------------
Label_0100A76B:
 .byte   N12 ,Gn0 ,v096
 .byte   W12
 .byte   N12
 .byte   W12
 .byte   N12
 .byte   W12
 .byte   N12
 .byte   W12
 .byte   N12
 .byte   W12
 .byte   N12
 .byte   W12
 .byte   N12
 .byte   W12
 .byte   N12
 .byte   W12
 .byte   PEND 
@  #04 @036   ----------------------------------------
Label_0100A77E:
 .byte   N12 ,Gn0 ,v096
 .byte   W12
 .byte   N12
 .byte   W12
 .byte   N12
 .byte   W12
 .byte   N12
 .byte   W12
 .byte   N12
 .byte   W12
 .byte   N12
 .byte   W12
 .byte   Fs0
 .byte   W12
 .byte   N12
 .byte   W12
 .byte   PEND 
@  #04 @037   ----------------------------------------
Label_0100A791:
 .byte   N12 ,En0 ,v096
 .byte   W12
 .byte   N12
 .byte   W12
 .byte   N12
 .byte   W12
 .byte   N12
 .byte   W12
 .byte   N12
 .byte   W12
 .byte   N12
 .byte   W12
 .byte   N12
 .byte   W12
 .byte   N12
 .byte   W12
 .byte   PEND 
@  #04 @038   ----------------------------------------
Label_0100A7A4:
 .byte   N12 ,Fs0 ,v096
 .byte   W12
 .byte   N12
 .byte   W12
 .byte   N12
 .byte   W12
 .byte   N12
 .byte   W12
 .byte   N12
 .byte   W12
 .byte   N12
 .byte   W12
 .byte   N12
 .byte   W12
 .byte   N12
 .byte   W12
 .byte   PEND 
@  #04 @039   ----------------------------------------
Label_0100A7B7:
 .byte   N12 ,Gs0 ,v096
 .byte   W12
 .byte   N12
 .byte   W12
 .byte   N12
 .byte   W12
 .byte   N12
 .byte   W12
 .byte   N12
 .byte   W12
 .byte   N12
 .byte   W12
 .byte   N12
 .byte   W12
 .byte   N12
 .byte   W12
 .byte   PEND 
@  #04 @040   ----------------------------------------
 .byte   PATT
  .word Label_0100A7B7
@  #04 @041   ----------------------------------------
 .byte   PATT
  .word Label_0100A76B
@  #04 @042   ----------------------------------------
 .byte   PATT
  .word Label_0100A7A4
@  #04 @043   ----------------------------------------
 .byte   PATT
  .word Label_0100A791
@  #04 @044   ----------------------------------------
 .byte   PATT
  .word Label_0100A7A4
@  #04 @045   ----------------------------------------
 .byte   PATT
  .word Label_0100A6F5
@  #04 @046   ----------------------------------------
 .byte   PATT
  .word Label_0100A6F5
@  #04 @047   ----------------------------------------
 .byte   PATT
  .word Label_0100A6F5
@  #04 @048   ----------------------------------------
 .byte   PATT
  .word Label_0100A6F5
@  #04 @049   ----------------------------------------
 .byte   W96
@  #04 @050   ----------------------------------------
 .byte   W96
@  #04 @051   ----------------------------------------
 .byte   W96
@  #04 @052   ----------------------------------------
 .byte   W96
@  #04 @053   ----------------------------------------
 .byte   W96
@  #04 @054   ----------------------------------------
 .byte   W96
@  #04 @055   ----------------------------------------
 .byte   W96
@  #04 @056   ----------------------------------------
 .byte   W96
@  #04 @057   ----------------------------------------
 .byte   W96
@  #04 @058   ----------------------------------------
 .byte   W96
@  #04 @059   ----------------------------------------
 .byte   W96
@  #04 @060   ----------------------------------------
 .byte   W96
@  #04 @061   ----------------------------------------
 .byte   W96
@  #04 @062   ----------------------------------------
 .byte   W96
@  #04 @063   ----------------------------------------
 .byte   W96
@  #04 @064   ----------------------------------------
 .byte   W96
@  #04 @065   ----------------------------------------
Label_0100A807:
 .byte   N12 ,Bn0 ,v096
 .byte   W12
 .byte   N12
 .byte   W12
 .byte   N12
 .byte   W12
 .byte   N12
 .byte   W12
 .byte   N12
 .byte   W12
 .byte   N12
 .byte   W12
 .byte   N12
 .byte   W12
 .byte   En0
 .byte   W12
 .byte   PEND 
@  #04 @066   ----------------------------------------
Label_0100A81A:
 .byte   N12 ,En0 ,v096
 .byte   W12
 .byte   N12
 .byte   W12
 .byte   N12
 .byte   W12
 .byte   N12
 .byte   W12
 .byte   N12
 .byte   W12
 .byte   N12
 .byte   W12
 .byte   N12
 .byte   W12
 .byte   An0
 .byte   W12
 .byte   PEND 
@  #04 @067   ----------------------------------------
Label_0100A82D:
 .byte   N12 ,An0 ,v096
 .byte   W12
 .byte   N12
 .byte   W12
 .byte   N12
 .byte   W12
 .byte   N12
 .byte   W12
 .byte   N12
 .byte   W12
 .byte   N12
 .byte   W12
 .byte   N12
 .byte   W12
 .byte   Dn1
 .byte   W12
 .byte   PEND 
@  #04 @068   ----------------------------------------
Label_0100A840:
 .byte   N12 ,Dn1 ,v096
 .byte   W12
 .byte   N12
 .byte   W12
 .byte   N12
 .byte   W12
 .byte   N12
 .byte   W12
 .byte   N12
 .byte   W12
 .byte   N12
 .byte   W12
 .byte   N12
 .byte   W12
 .byte   Cs1
 .byte   W12
 .byte   PEND 
@  #04 @069   ----------------------------------------
 .byte   PATT
  .word Label_0100A76B
@  #04 @070   ----------------------------------------
 .byte   PATT
  .word Label_0100A7B7
@  #04 @071   ----------------------------------------
Label_0100A85D:
 .byte   N12 ,An0 ,v096
 .byte   W12
 .byte   N12
 .byte   W12
 .byte   N12
 .byte   W12
 .byte   N12
 .byte   W12
 .byte   N12
 .byte   W12
 .byte   N12
 .byte   W12
 .byte   Gn0
 .byte   W12
 .byte   N12
 .byte   W12
 .byte   PEND 
@  #04 @072   ----------------------------------------
Label_0100A870:
 .byte   N12 ,Fs0 ,v096
 .byte   W12
 .byte   N12
 .byte   W12
 .byte   N12
 .byte   W12
 .byte   N12
 .byte   W12
 .byte   As0
 .byte   W12
 .byte   N12
 .byte   W12
 .byte   As1
 .byte   W12
 .byte   N12
 .byte   W12
 .byte   PEND 
@  #04 @073   ----------------------------------------
 .byte   PATT
  .word Label_0100A807
@  #04 @074   ----------------------------------------
 .byte   PATT
  .word Label_0100A81A
@  #04 @075   ----------------------------------------
 .byte   PATT
  .word Label_0100A82D
@  #04 @076   ----------------------------------------
 .byte   PATT
  .word Label_0100A840
@  #04 @077   ----------------------------------------
 .byte   PATT
  .word Label_0100A76B
@  #04 @078   ----------------------------------------
 .byte   PATT
  .word Label_0100A7B7
@  #04 @079   ----------------------------------------
 .byte   PATT
  .word Label_0100A85D
@  #04 @080   ----------------------------------------
Label_0100A8A6:
 .byte   N12 ,Fs0 ,v096
 .byte   W12
 .byte   N12
 .byte   W12
 .byte   N12
 .byte   W12
 .byte   As0
 .byte   W12
 .byte   N12
 .byte   W12
 .byte   N12
 .byte   W12
 .byte   As1
 .byte   W12
 .byte   N12
 .byte   W12
 .byte   PEND 
@  #04 @081   ----------------------------------------
 .byte   PATT
  .word Label_0100A807
@  #04 @082   ----------------------------------------
 .byte   PATT
  .word Label_0100A81A
@  #04 @083   ----------------------------------------
 .byte   PATT
  .word Label_0100A82D
@  #04 @084   ----------------------------------------
 .byte   PATT
  .word Label_0100A840
@  #04 @085   ----------------------------------------
 .byte   PATT
  .word Label_0100A76B
@  #04 @086   ----------------------------------------
 .byte   PATT
  .word Label_0100A7B7
@  #04 @087   ----------------------------------------
 .byte   PATT
  .word Label_0100A85D
@  #04 @088   ----------------------------------------
Label_0100A8DC:
 .byte   N12 ,As0 ,v096
 .byte   W12
 .byte   N12
 .byte   W12
 .byte   N12
 .byte   W12
 .byte   N12
 .byte   W12
 .byte   N12
 .byte   W12
 .byte   N12
 .byte   W12
 .byte   N12
 .byte   W12
 .byte   N12
 .byte   W12
 .byte   PEND 
@  #04 @089   ----------------------------------------
Label_0100A8EF:
 .byte   N12 ,Bn0 ,v096
 .byte   W12
 .byte   N12
 .byte   W12
 .byte   N12
 .byte   W12
 .byte   N12
 .byte   W12
 .byte   N12
 .byte   W12
 .byte   N12
 .byte   W12
 .byte   Cn1
 .byte   W24
 .byte   PEND 
@  #04 @090   ----------------------------------------
Label_0100A900:
 .byte   W12
 .byte   N12 ,Bn0 ,v096
 .byte   W12
 .byte   N12
 .byte   W12
 .byte   N12
 .byte   W12
 .byte   N12
 .byte   W12
 .byte   N12
 .byte   W12
 .byte   Cn1
 .byte   W24
 .byte   PEND 
@  #04 @091   ----------------------------------------
 .byte   PATT
  .word Label_0100A8EF
@  #04 @092   ----------------------------------------
Label_0100A915:
 .byte   W12
 .byte   N12 ,An0 ,v096
 .byte   W12
 .byte   N12
 .byte   W12
 .byte   N12
 .byte   W12
 .byte   N12
 .byte   W12
 .byte   N12
 .byte   W12
 .byte   N24 ,As0
 .byte   W24
 .byte   PEND 
@  #04 @093   ----------------------------------------
 .byte   PATT
  .word Label_0100A8EF
@  #04 @094   ----------------------------------------
 .byte   PATT
  .word Label_0100A900
@  #04 @095   ----------------------------------------
 .byte   PATT
  .word Label_0100A8EF
@  #04 @096   ----------------------------------------
 .byte   PATT
  .word Label_0100A915
@  #04 @097   ----------------------------------------
 .byte   PATT
  .word Label_0100A8EF
@  #04 @098   ----------------------------------------
 .byte   PATT
  .word Label_0100A900
@  #04 @099   ----------------------------------------
 .byte   PATT
  .word Label_0100A8EF
@  #04 @100   ----------------------------------------
 .byte   PATT
  .word Label_0100A915
@  #04 @101   ----------------------------------------
 .byte   PATT
  .word Label_0100A8EF
@  #04 @102   ----------------------------------------
 .byte   PATT
  .word Label_0100A900
@  #04 @103   ----------------------------------------
 .byte   PATT
  .word Label_0100A8EF
@  #04 @104   ----------------------------------------
 .byte   W96
@  #04 @105   ----------------------------------------
 .byte   W96
@  #04 @106   ----------------------------------------
 .byte   W96
@  #04 @107   ----------------------------------------
 .byte   W96
@  #04 @108   ----------------------------------------
 .byte   W96
@  #04 @109   ----------------------------------------
 .byte   W96
@  #04 @110   ----------------------------------------
 .byte   W96
@  #04 @111   ----------------------------------------
 .byte   W96
@  #04 @112   ----------------------------------------
 .byte   W96
@  #04 @113   ----------------------------------------
 .byte   PATT
  .word Label_0100A6BE
@  #04 @114   ----------------------------------------
 .byte   PATT
  .word Label_0100A6D0
@  #04 @115   ----------------------------------------
 .byte   PATT
  .word Label_0100A6DA
@  #04 @116   ----------------------------------------
 .byte   W96
@  #04 @117   ----------------------------------------
 .byte   EOT
 .byte   Cn1
@  #04 @118   ----------------------------------------
 .byte   PATT
  .word Label_0100A6BE
@  #04 @119   ----------------------------------------
 .byte   PATT
  .word Label_0100A6D0
@  #04 @120   ----------------------------------------
 .byte   N24 ,Fn1 ,v096
 .byte   W96
@  #04 @121   ----------------------------------------
 .byte   W96
@  #04 @122   ----------------------------------------
 .byte   PATT
  .word Label_0100A6F5
@  #04 @123   ----------------------------------------
 .byte   PATT
  .word Label_0100A6F5
@  #04 @124   ----------------------------------------
 .byte   PATT
  .word Label_0100A6F5
@  #04 @125   ----------------------------------------
 .byte   PATT
  .word Label_0100A6F5
@  #04 @126   ----------------------------------------
 .byte   PATT
  .word Label_0100A6F5
@  #04 @127   ----------------------------------------
 .byte   PATT
  .word Label_0100A6F5
@  #04 @128   ----------------------------------------
 .byte   PATT
  .word Label_0100A6F5
@  #04 @129   ----------------------------------------
 .byte   PATT
  .word Label_0100A6F5
@  #04 @130   ----------------------------------------
 .byte   PATT
  .word Label_0100A6F5
@  #04 @131   ----------------------------------------
 .byte   PATT
  .word Label_0100A6F5
@  #04 @132   ----------------------------------------
 .byte   PATT
  .word Label_0100A6F5
@  #04 @133   ----------------------------------------
 .byte   PATT
  .word Label_0100A6F5
@  #04 @134   ----------------------------------------
 .byte   PATT
  .word Label_0100A6F5
@  #04 @135   ----------------------------------------
 .byte   PATT
  .word Label_0100A6F5
@  #04 @136   ----------------------------------------
 .byte   PATT
  .word Label_0100A6F5
@  #04 @137   ----------------------------------------
 .byte   PATT
  .word Label_0100A6F5
@  #04 @138   ----------------------------------------
 .byte   PATT
  .word Label_0100A6F5
@  #04 @139   ----------------------------------------
 .byte   PATT
  .word Label_0100A758
@  #04 @140   ----------------------------------------
 .byte   PATT
  .word Label_0100A76B
@  #04 @141   ----------------------------------------
 .byte   PATT
  .word Label_0100A77E
@  #04 @142   ----------------------------------------
 .byte   PATT
  .word Label_0100A791
@  #04 @143   ----------------------------------------
 .byte   PATT
  .word Label_0100A7A4
@  #04 @144   ----------------------------------------
 .byte   PATT
  .word Label_0100A7B7
@  #04 @145   ----------------------------------------
 .byte   PATT
  .word Label_0100A7B7
@  #04 @146   ----------------------------------------
 .byte   PATT
  .word Label_0100A76B
@  #04 @147   ----------------------------------------
 .byte   PATT
  .word Label_0100A7A4
@  #04 @148   ----------------------------------------
 .byte   PATT
  .word Label_0100A791
@  #04 @149   ----------------------------------------
 .byte   PATT
  .word Label_0100A7A4
@  #04 @150   ----------------------------------------
 .byte   PATT
  .word Label_0100A6F5
@  #04 @151   ----------------------------------------
 .byte   PATT
  .word Label_0100A6F5
@  #04 @152   ----------------------------------------
 .byte   PATT
  .word Label_0100A6F5
@  #04 @153   ----------------------------------------
 .byte   PATT
  .word Label_0100A6F5
@  #04 @154   ----------------------------------------
 .byte   W96
@  #04 @155   ----------------------------------------
 .byte   W96
@  #04 @156   ----------------------------------------
 .byte   W96
@  #04 @157   ----------------------------------------
 .byte   W96
@  #04 @158   ----------------------------------------
 .byte   W96
@  #04 @159   ----------------------------------------
 .byte   W96
@  #04 @160   ----------------------------------------
 .byte   W96
@  #04 @161   ----------------------------------------
 .byte   W96
@  #04 @162   ----------------------------------------
 .byte   W96
@  #04 @163   ----------------------------------------
 .byte   W96
@  #04 @164   ----------------------------------------
 .byte   W96
@  #04 @165   ----------------------------------------
 .byte   W96
@  #04 @166   ----------------------------------------
 .byte   W96
@  #04 @167   ----------------------------------------
 .byte   W96
@  #04 @168   ----------------------------------------
 .byte   W96
@  #04 @169   ----------------------------------------
 .byte   W96
@  #04 @170   ----------------------------------------
 .byte   PATT
  .word Label_0100A807
@  #04 @171   ----------------------------------------
 .byte   PATT
  .word Label_0100A81A
@  #04 @172   ----------------------------------------
 .byte   PATT
  .word Label_0100A82D
@  #04 @173   ----------------------------------------
 .byte   PATT
  .word Label_0100A840
@  #04 @174   ----------------------------------------
 .byte   PATT
  .word Label_0100A76B
@  #04 @175   ----------------------------------------
 .byte   PATT
  .word Label_0100A7B7
@  #04 @176   ----------------------------------------
 .byte   PATT
  .word Label_0100A85D
@  #04 @177   ----------------------------------------
 .byte   PATT
  .word Label_0100A870
@  #04 @178   ----------------------------------------
 .byte   PATT
  .word Label_0100A807
@  #04 @179   ----------------------------------------
 .byte   PATT
  .word Label_0100A81A
@  #04 @180   ----------------------------------------
 .byte   PATT
  .word Label_0100A82D
@  #04 @181   ----------------------------------------
 .byte   PATT
  .word Label_0100A840
@  #04 @182   ----------------------------------------
 .byte   PATT
  .word Label_0100A76B
@  #04 @183   ----------------------------------------
 .byte   PATT
  .word Label_0100A7B7
@  #04 @184   ----------------------------------------
 .byte   PATT
  .word Label_0100A85D
@  #04 @185   ----------------------------------------
 .byte   PATT
  .word Label_0100A8A6
@  #04 @186   ----------------------------------------
 .byte   PATT
  .word Label_0100A807
@  #04 @187   ----------------------------------------
 .byte   PATT
  .word Label_0100A81A
@  #04 @188   ----------------------------------------
 .byte   PATT
  .word Label_0100A82D
@  #04 @189   ----------------------------------------
 .byte   PATT
  .word Label_0100A840
@  #04 @190   ----------------------------------------
 .byte   PATT
  .word Label_0100A76B
@  #04 @191   ----------------------------------------
 .byte   PATT
  .word Label_0100A7B7
@  #04 @192   ----------------------------------------
 .byte   PATT
  .word Label_0100A85D
@  #04 @193   ----------------------------------------
 .byte   PATT
  .word Label_0100A8DC
@  #04 @194   ----------------------------------------
 .byte   GOTO
  .word Label_0100A8EF
@  #04 @195   ----------------------------------------
 .byte   PATT
  .word Label_0100A8EF
@  #04 @196   ----------------------------------------
 .byte   PATT
  .word Label_0100A900
@  #04 @197   ----------------------------------------
 .byte   PATT
  .word Label_0100A8EF
@  #04 @198   ----------------------------------------
 .byte   PATT
  .word Label_0100A915
@  #04 @199   ----------------------------------------
 .byte   PATT
  .word Label_0100A8EF
@  #04 @200   ----------------------------------------
 .byte   PATT
  .word Label_0100A900
@  #04 @201   ----------------------------------------
 .byte   PATT
  .word Label_0100A8EF
@  #04 @202   ----------------------------------------
 .byte   PATT
  .word Label_0100A915
@  #04 @203   ----------------------------------------
 .byte   PATT
  .word Label_0100A8EF
@  #04 @204   ----------------------------------------
 .byte   PATT
  .word Label_0100A900
@  #04 @205   ----------------------------------------
 .byte   PATT
  .word Label_0100A8EF
@  #04 @206   ----------------------------------------
 .byte   PATT
  .word Label_0100A915
@  #04 @207   ----------------------------------------
 .byte   PATT
  .word Label_0100A8EF
@  #04 @208   ----------------------------------------
 .byte   PATT
  .word Label_0100A900
@  #04 @209   ----------------------------------------
 .byte   PATT
  .word Label_0100A8EF
@  #04 @210   ----------------------------------------
 .byte   W96
 .byte   FINE

@**************** Track 5 (Midi-Chn.4) ****************@

song04_005:
@  #05 @000   ----------------------------------------
 .byte   KEYSH , song04_key+0
 .byte   VOICE , 30
 .byte   VOL , 50*song04_mvl/mxv
 .byte   PAN , c_v+0
 .byte   BEND , c_v+0
 .byte   W96
@  #05 @001   ----------------------------------------
 .byte   W96
@  #05 @002   ----------------------------------------
 .byte   W96
@  #05 @003   ----------------------------------------
 .byte   W96
@  #05 @004   ----------------------------------------
 .byte   W96
@  #05 @005   ----------------------------------------
 .byte   W96
@  #05 @006   ----------------------------------------
 .byte   W96
@  #05 @007   ----------------------------------------
 .byte   W96
@  #05 @008   ----------------------------------------
 .byte   W96
@  #05 @009   ----------------------------------------
 .byte   W96
@  #05 @010   ----------------------------------------
 .byte   W96
@  #05 @011   ----------------------------------------
 .byte   W96
@  #05 @012   ----------------------------------------
 .byte   W96
@  #05 @013   ----------------------------------------
 .byte   W96
@  #05 @014   ----------------------------------------
 .byte   W96
@  #05 @015   ----------------------------------------
 .byte   W96
@  #05 @016   ----------------------------------------
Label_0100AB2E:
 .byte   N09 ,Bn1 ,v076
 .byte   N09 ,Fs2
 .byte   W12
 .byte   Bn1
 .byte   N09 ,Fs2
 .byte   W12
 .byte   Bn1
 .byte   N09 ,Fs2
 .byte   W12
 .byte   Bn1
 .byte   N09 ,Fs2
 .byte   W12
 .byte   Bn1
 .byte   N09 ,Fs2
 .byte   W12
 .byte   Bn1
 .byte   N09 ,Fs2
 .byte   W12
 .byte   Bn1
 .byte   N09 ,Fs2
 .byte   W12
 .byte   Bn1
 .byte   N09 ,Fs2
 .byte   W12
 .byte   PEND 
@  #05 @017   ----------------------------------------
 .byte   PATT
  .word Label_0100AB2E
@  #05 @018   ----------------------------------------
 .byte   PATT
  .word Label_0100AB2E
@  #05 @019   ----------------------------------------
 .byte   PATT
  .word Label_0100AB2E
@  #05 @020   ----------------------------------------
 .byte   PATT
  .word Label_0100AB2E
@  #05 @021   ----------------------------------------
 .byte   PATT
  .word Label_0100AB2E
@  #05 @022   ----------------------------------------
 .byte   PATT
  .word Label_0100AB2E
@  #05 @023   ----------------------------------------
 .byte   PATT
  .word Label_0100AB2E
@  #05 @024   ----------------------------------------
 .byte   PATT
  .word Label_0100AB2E
@  #05 @025   ----------------------------------------
 .byte   PATT
  .word Label_0100AB2E
@  #05 @026   ----------------------------------------
 .byte   PATT
  .word Label_0100AB2E
@  #05 @027   ----------------------------------------
 .byte   PATT
  .word Label_0100AB2E
@  #05 @028   ----------------------------------------
 .byte   PATT
  .word Label_0100AB2E
@  #05 @029   ----------------------------------------
 .byte   PATT
  .word Label_0100AB2E
@  #05 @030   ----------------------------------------
 .byte   PATT
  .word Label_0100AB2E
@  #05 @031   ----------------------------------------
 .byte   PATT
  .word Label_0100AB2E
@  #05 @032   ----------------------------------------
Label_0100AB9C:
 .byte   N09 ,Bn1 ,v076
 .byte   N09 ,Fs2
 .byte   W12
 .byte   Bn1
 .byte   N09 ,Fs2
 .byte   W12
 .byte   N12 ,Bn1 ,v096
 .byte   N12 ,Fs2
 .byte   N12 ,Bn2
 .byte   W12
 .byte   N09 ,Bn1 ,v076
 .byte   N09 ,Fs2
 .byte   W12
 .byte   Bn1
 .byte   N09 ,Fs2
 .byte   W12
 .byte   N12 ,Bn1 ,v096
 .byte   N12 ,Fs2
 .byte   N12 ,Bn2
 .byte   W12
 .byte   N09 ,Bn1 ,v076
 .byte   N09 ,Fs2
 .byte   W12
 .byte   Bn1
 .byte   N09 ,Fs2
 .byte   W12
 .byte   PEND 
@  #05 @033   ----------------------------------------
Label_0100ABCB:
 .byte   N09 ,An1 ,v076
 .byte   N09 ,En2
 .byte   W12
 .byte   An1
 .byte   N09 ,En2
 .byte   W12
 .byte   N12 ,An1 ,v096
 .byte   N12 ,En2
 .byte   N12 ,An2
 .byte   W12
 .byte   N09 ,An1 ,v076
 .byte   N09 ,En2
 .byte   W12
 .byte   An1
 .byte   N09 ,En2
 .byte   W12
 .byte   N12 ,An1 ,v096
 .byte   N12 ,En2
 .byte   N12 ,An2
 .byte   W12
 .byte   N09 ,An1 ,v076
 .byte   N09 ,En2
 .byte   W12
 .byte   An1
 .byte   N09 ,En2
 .byte   W12
 .byte   PEND 
@  #05 @034   ----------------------------------------
Label_0100ABFA:
 .byte   N09 ,Gn1 ,v076
 .byte   N09 ,Dn2
 .byte   W12
 .byte   Gn1
 .byte   N09 ,Dn2
 .byte   W12
 .byte   N12 ,Gn1 ,v096
 .byte   N12 ,Dn2
 .byte   N12 ,Gn2
 .byte   W12
 .byte   N09 ,Gn1 ,v076
 .byte   N09 ,Dn2
 .byte   W12
 .byte   Gn1
 .byte   N09 ,Dn2
 .byte   W12
 .byte   N12 ,Gn1 ,v096
 .byte   N12 ,Dn2
 .byte   N12 ,Gn2
 .byte   W12
 .byte   N09 ,Gn1 ,v076
 .byte   N09 ,Dn2
 .byte   W12
 .byte   Gn1
 .byte   N09 ,Dn2
 .byte   W12
 .byte   PEND 
@  #05 @035   ----------------------------------------
Label_0100AC29:
 .byte   N09 ,Gn1 ,v076
 .byte   N09 ,Dn2
 .byte   W12
 .byte   N24 ,Gn1 ,v096
 .byte   N24 ,Dn2
 .byte   N24 ,Gn2
 .byte   W24
 .byte   N09 ,Gn1 ,v076
 .byte   N09 ,Dn2
 .byte   W12
 .byte   N12 ,Gn1 ,v096
 .byte   N12 ,Dn2
 .byte   N12 ,Gn2
 .byte   W12
 .byte   Gn1
 .byte   N12 ,Dn2
 .byte   W12
 .byte   Fs1
 .byte   N12 ,Cs2
 .byte   N12 ,Fs2
 .byte   W12
 .byte   Fs1
 .byte   N12 ,Cs2
 .byte   W12
 .byte   PEND 
@  #05 @036   ----------------------------------------
Label_0100AC54:
 .byte   N09 ,En1 ,v076
 .byte   N09 ,Bn1
 .byte   W12
 .byte   En1
 .byte   N09 ,Bn1
 .byte   W12
 .byte   N12 ,En1 ,v096
 .byte   N12 ,Bn1
 .byte   N12 ,En2
 .byte   W12
 .byte   N09 ,En1 ,v076
 .byte   N09 ,Bn1
 .byte   W12
 .byte   En1
 .byte   N09 ,Bn1
 .byte   W12
 .byte   N12 ,En1 ,v096
 .byte   N12 ,Bn1
 .byte   N12 ,En2
 .byte   W12
 .byte   N09 ,En1 ,v076
 .byte   N09 ,Bn1
 .byte   W12
 .byte   En1
 .byte   N09 ,Bn1
 .byte   W12
 .byte   PEND 
@  #05 @037   ----------------------------------------
Label_0100AC83:
 .byte   N09 ,Fs1 ,v076
 .byte   N09 ,Cs2
 .byte   W12
 .byte   Fs1
 .byte   N09 ,Cs2
 .byte   W12
 .byte   N12 ,Fs1 ,v096
 .byte   N12 ,Cs2
 .byte   N12 ,Fs2
 .byte   W12
 .byte   N09 ,Fs1 ,v076
 .byte   N09 ,Cs2
 .byte   W12
 .byte   Fs1
 .byte   N09 ,Cs2
 .byte   W12
 .byte   N12 ,Fs1 ,v096
 .byte   N12 ,Cs2
 .byte   N12 ,Fs2
 .byte   W12
 .byte   N09 ,Fs1 ,v076
 .byte   N09 ,Cs2
 .byte   W12
 .byte   N12 ,Fs1 ,v096
 .byte   N12 ,Cs2
 .byte   W12
 .byte   PEND 
@  #05 @038   ----------------------------------------
Label_0100ACB4:
 .byte   N09 ,Gs1 ,v076
 .byte   N09 ,Ds2
 .byte   W12
 .byte   Gs1
 .byte   N09 ,Ds2
 .byte   W12
 .byte   N12 ,Gs1 ,v096
 .byte   N12 ,Ds2
 .byte   N12 ,Gs2
 .byte   W12
 .byte   N09 ,Gs1 ,v076
 .byte   N09 ,Ds2
 .byte   W12
 .byte   Gs1
 .byte   N09 ,Ds2
 .byte   W12
 .byte   N12 ,Gs1 ,v096
 .byte   N12 ,Ds2
 .byte   N12 ,Gs2
 .byte   W12
 .byte   N09 ,Gs1 ,v076
 .byte   N09 ,Ds2
 .byte   W12
 .byte   Gs1
 .byte   N09 ,Ds2
 .byte   W12
 .byte   PEND 
@  #05 @039   ----------------------------------------
Label_0100ACE3:
 .byte   N09 ,Gs1 ,v076
 .byte   N09 ,Ds2
 .byte   W12
 .byte   N12 ,Gs1 ,v096
 .byte   N12 ,Ds2
 .byte   N24 ,Gs2
 .byte   W12
 .byte   N12 ,Gs1
 .byte   N12 ,Ds2
 .byte   W12
 .byte   N09 ,Gs1 ,v076
 .byte   N09 ,Ds2
 .byte   W12
 .byte   N12 ,Gs1 ,v096
 .byte   N12 ,Ds2
 .byte   N12 ,Gs2
 .byte   W12
 .byte   N09 ,Gs1 ,v076
 .byte   N09 ,Ds2
 .byte   W12
 .byte   N12 ,Gs1 ,v096
 .byte   N12 ,Ds2
 .byte   N12 ,Gs2
 .byte   W12
 .byte   N09 ,Gs1 ,v076
 .byte   N09 ,Ds2
 .byte   W12
 .byte   PEND 
@  #05 @040   ----------------------------------------
Label_0100AD19:
 .byte   N09 ,Gn1 ,v076
 .byte   N09 ,Dn2
 .byte   W12
 .byte   Gn1
 .byte   N09 ,Dn2
 .byte   W12
 .byte   N12 ,Gn1 ,v096
 .byte   N12 ,Dn2
 .byte   N12 ,Gn2
 .byte   W12
 .byte   N09 ,Gn1 ,v076
 .byte   N09 ,Dn2
 .byte   W12
 .byte   Gn1
 .byte   N09 ,Dn2
 .byte   W12
 .byte   N12 ,Gn1 ,v096
 .byte   N12 ,Dn2
 .byte   N12 ,Gn2
 .byte   W12
 .byte   N09 ,Gn1 ,v076
 .byte   N09 ,Dn2
 .byte   W12
 .byte   N12 ,Gn1 ,v096
 .byte   N12 ,Dn2
 .byte   W12
 .byte   PEND 
@  #05 @041   ----------------------------------------
 .byte   PATT
  .word Label_0100AC83
@  #05 @042   ----------------------------------------
 .byte   PATT
  .word Label_0100AC54
@  #05 @043   ----------------------------------------
 .byte   PATT
  .word Label_0100AC83
@  #05 @044   ----------------------------------------
Label_0100AD59:
 .byte   N09 ,Bn1 ,v076
 .byte   N09 ,Fs2
 .byte   W12
 .byte   Bn1
 .byte   N09 ,Fs2
 .byte   W12
 .byte   N24 ,Bn1 ,v096
 .byte   N24 ,Fs2
 .byte   N24 ,Bn2
 .byte   W24
 .byte   N04 ,Bn1 ,v076
 .byte   N04 ,Fs2
 .byte   W06
 .byte   Bn1
 .byte   N04 ,Fs2
 .byte   W06
 .byte   N12 ,Bn1 ,v096
 .byte   N12 ,Fs2
 .byte   N12 ,Bn2
 .byte   W12
 .byte   Bn1
 .byte   N12 ,Fs2
 .byte   W12
 .byte   N09 ,Bn1 ,v076
 .byte   N09 ,Fs2
 .byte   W12
 .byte   PEND 
@  #05 @045   ----------------------------------------
Label_0100AD88:
 .byte   N09 ,Bn1 ,v076
 .byte   N09 ,Fs2
 .byte   W12
 .byte   N12 ,Bn1 ,v096
 .byte   N12 ,Fs2
 .byte   N24 ,Bn2
 .byte   W12
 .byte   N12 ,Bn1
 .byte   N12 ,Fs2
 .byte   W12
 .byte   N09 ,Bn1 ,v076
 .byte   N09 ,Fs2
 .byte   W12
 .byte   N12 ,Bn1 ,v096
 .byte   N12 ,Fs2
 .byte   N12 ,Bn2
 .byte   W12
 .byte   N09 ,Bn1 ,v076
 .byte   N09 ,Fs2
 .byte   W12
 .byte   N12 ,Bn1 ,v096
 .byte   N12 ,Fs2
 .byte   N12 ,Bn2
 .byte   W12
 .byte   N09 ,Bn1 ,v076
 .byte   N09 ,Fs2
 .byte   W12
 .byte   PEND 
@  #05 @046   ----------------------------------------
 .byte   PATT
  .word Label_0100AD59
@  #05 @047   ----------------------------------------
 .byte   PATT
  .word Label_0100AD88
@  #05 @048   ----------------------------------------
 .byte   W96
@  #05 @049   ----------------------------------------
 .byte   W96
@  #05 @050   ----------------------------------------
 .byte   W96
@  #05 @051   ----------------------------------------
 .byte   W96
@  #05 @052   ----------------------------------------
 .byte   W96
@  #05 @053   ----------------------------------------
 .byte   W96
@  #05 @054   ----------------------------------------
 .byte   W96
@  #05 @055   ----------------------------------------
 .byte   W96
@  #05 @056   ----------------------------------------
 .byte   W96
@  #05 @057   ----------------------------------------
 .byte   W96
@  #05 @058   ----------------------------------------
 .byte   W96
@  #05 @059   ----------------------------------------
 .byte   W96
@  #05 @060   ----------------------------------------
 .byte   W96
@  #05 @061   ----------------------------------------
 .byte   W96
@  #05 @062   ----------------------------------------
 .byte   W96
@  #05 @063   ----------------------------------------
 .byte   W96
@  #05 @064   ----------------------------------------
Label_0100ADD8:
 .byte   N09 ,Bn1 ,v076
 .byte   N09 ,Fs2
 .byte   W12
 .byte   Bn1
 .byte   N09 ,Fs2
 .byte   W12
 .byte   N24 ,Bn1 ,v096
 .byte   N24 ,Fs2
 .byte   N24 ,Bn2
 .byte   W24
 .byte   N09 ,Bn1 ,v076
 .byte   N09 ,Fs2
 .byte   W12
 .byte   N24 ,Bn1 ,v096
 .byte   N24 ,Fs2
 .byte   N24 ,Bn2
 .byte   W24
 .byte   N12 ,En1
 .byte   N12 ,Bn1
 .byte   W12
 .byte   PEND 
@  #05 @065   ----------------------------------------
Label_0100ADFE:
 .byte   N09 ,En1 ,v076
 .byte   N09 ,Bn1
 .byte   W12
 .byte   En1
 .byte   N09 ,Bn1
 .byte   W12
 .byte   N24 ,En1 ,v096
 .byte   N24 ,Bn1
 .byte   N24 ,En2
 .byte   W24
 .byte   N09 ,En1 ,v076
 .byte   N09 ,Bn1
 .byte   W12
 .byte   N24 ,En1 ,v096
 .byte   N24 ,Bn1
 .byte   N24 ,En2
 .byte   W24
 .byte   N12 ,An1
 .byte   N12 ,En2
 .byte   W12
 .byte   PEND 
@  #05 @066   ----------------------------------------
Label_0100AE24:
 .byte   N09 ,An1 ,v076
 .byte   N09 ,En2
 .byte   W12
 .byte   An1
 .byte   N09 ,En2
 .byte   W12
 .byte   N24 ,An1 ,v096
 .byte   N24 ,En2
 .byte   N24 ,An2
 .byte   W24
 .byte   N09 ,An1 ,v076
 .byte   N09 ,En2
 .byte   W12
 .byte   N24 ,An1 ,v096
 .byte   N24 ,En2
 .byte   N24 ,An2
 .byte   W24
 .byte   N12 ,Dn2
 .byte   N12 ,An2
 .byte   N12 ,Dn3
 .byte   W12
 .byte   PEND 
@  #05 @067   ----------------------------------------
Label_0100AE4C:
 .byte   N12 ,Dn2 ,v096
 .byte   N12 ,An2
 .byte   W12
 .byte   N09 ,Dn2 ,v076
 .byte   N09 ,An2
 .byte   W12
 .byte   N24 ,Dn2 ,v096
 .byte   N24 ,An2
 .byte   N24 ,Dn3
 .byte   W24
 .byte   N09 ,Dn2 ,v076
 .byte   N09 ,An2
 .byte   W12
 .byte   N24 ,Dn2 ,v096
 .byte   N24 ,An2
 .byte   N24 ,Dn3
 .byte   W24
 .byte   N12 ,Cs2
 .byte   N12 ,Gs2
 .byte   W12
 .byte   PEND 
@  #05 @068   ----------------------------------------
Label_0100AE74:
 .byte   N09 ,Gn1 ,v076
 .byte   N09 ,Dn2
 .byte   W12
 .byte   Gn1
 .byte   N09 ,Dn2
 .byte   W12
 .byte   N24 ,Gn1 ,v096
 .byte   N24 ,Dn2
 .byte   N24 ,Gn2
 .byte   W24
 .byte   N09 ,Gn1 ,v076
 .byte   N09 ,Dn2
 .byte   W12
 .byte   N24 ,Gn1 ,v096
 .byte   N24 ,Dn2
 .byte   N24 ,Gn2
 .byte   W24
 .byte   N12 ,Gn1
 .byte   N12 ,Dn2
 .byte   W12
 .byte   PEND 
@  #05 @069   ----------------------------------------
Label_0100AE9A:
 .byte   N09 ,Gs1 ,v076
 .byte   N09 ,Ds2
 .byte   W12
 .byte   Gs1
 .byte   N09 ,Ds2
 .byte   W12
 .byte   N24 ,Gs1 ,v096
 .byte   N24 ,Ds2
 .byte   N24 ,Gs2
 .byte   W24
 .byte   N09 ,Gs1 ,v076
 .byte   N09 ,Ds2
 .byte   W12
 .byte   N24 ,Gs1 ,v096
 .byte   N24 ,Ds2
 .byte   N24 ,Gs2
 .byte   W24
 .byte   N12 ,Gs1
 .byte   N12 ,Ds2
 .byte   W12
 .byte   PEND 
@  #05 @070   ----------------------------------------
Label_0100AEC0:
 .byte   N09 ,An1 ,v076
 .byte   N09 ,En2
 .byte   W12
 .byte   An1
 .byte   N09 ,En2
 .byte   W12
 .byte   N12 ,An1 ,v096
 .byte   N12 ,En2
 .byte   N12 ,An2
 .byte   W12
 .byte   N09 ,An1 ,v076
 .byte   N09 ,En2
 .byte   W12
 .byte   An1
 .byte   N09 ,En2
 .byte   W12
 .byte   N12 ,An1 ,v096
 .byte   N12 ,En2
 .byte   N12 ,An2
 .byte   W12
 .byte   N24 ,Gn1
 .byte   N24 ,Dn2
 .byte   N24 ,Gn2
 .byte   W24
 .byte   PEND 
@  #05 @071   ----------------------------------------
Label_0100AEEC:
 .byte   N09 ,Fs1 ,v076
 .byte   N09 ,Cs2
 .byte   W12
 .byte   Fs1
 .byte   N09 ,Cs2
 .byte   W12
 .byte   N12 ,Fs1 ,v096
 .byte   N12 ,Cs2
 .byte   N12 ,Fs2
 .byte   W12
 .byte   N09 ,Fs1 ,v076
 .byte   N09 ,Cs2
 .byte   W12
 .byte   Fs1
 .byte   N09 ,Cs2
 .byte   W12
 .byte   N12 ,Fs1 ,v096
 .byte   N12 ,Cs2
 .byte   N12 ,Fs2
 .byte   W12
 .byte   Fs1
 .byte   N12 ,Cs2
 .byte   W12
 .byte   N09 ,Fs1 ,v076
 .byte   N09 ,Cs2
 .byte   W12
 .byte   PEND 
@  #05 @072   ----------------------------------------
 .byte   PATT
  .word Label_0100ADD8
@  #05 @073   ----------------------------------------
 .byte   PATT
  .word Label_0100ADFE
@  #05 @074   ----------------------------------------
 .byte   PATT
  .word Label_0100AE24
@  #05 @075   ----------------------------------------
 .byte   PATT
  .word Label_0100AE4C
@  #05 @076   ----------------------------------------
 .byte   PATT
  .word Label_0100AE74
@  #05 @077   ----------------------------------------
 .byte   PATT
  .word Label_0100AE9A
@  #05 @078   ----------------------------------------
 .byte   PATT
  .word Label_0100AEC0
@  #05 @079   ----------------------------------------
 .byte   PATT
  .word Label_0100AEEC
@  #05 @080   ----------------------------------------
 .byte   PATT
  .word Label_0100ADD8
@  #05 @081   ----------------------------------------
 .byte   PATT
  .word Label_0100ADFE
@  #05 @082   ----------------------------------------
 .byte   PATT
  .word Label_0100AE24
@  #05 @083   ----------------------------------------
 .byte   PATT
  .word Label_0100AE4C
@  #05 @084   ----------------------------------------
 .byte   PATT
  .word Label_0100AE74
@  #05 @085   ----------------------------------------
 .byte   PATT
  .word Label_0100AE9A
@  #05 @086   ----------------------------------------
Label_0100AF61:
 .byte   N09 ,An1 ,v076
 .byte   N09 ,En2
 .byte   W12
 .byte   An1
 .byte   N09 ,En2
 .byte   W12
 .byte   N12 ,An1 ,v096
 .byte   N12 ,En2
 .byte   N12 ,An2
 .byte   W12
 .byte   N09 ,An1 ,v076
 .byte   N09 ,En2
 .byte   W12
 .byte   An1
 .byte   N09 ,En2
 .byte   W12
 .byte   N12 ,An1 ,v096
 .byte   N12 ,En2
 .byte   N12 ,An2
 .byte   W12
 .byte   N24 ,An1
 .byte   N24 ,En2
 .byte   N24 ,An2
 .byte   W24
 .byte   PEND 
@  #05 @087   ----------------------------------------
Label_0100AF8D:
 .byte   N09 ,As1 ,v076
 .byte   N09 ,Fn2
 .byte   W12
 .byte   As1
 .byte   N09 ,Fn2
 .byte   W12
 .byte   N12 ,As1 ,v096
 .byte   N12 ,Fn2
 .byte   N12 ,As2
 .byte   W12
 .byte   N09 ,As1 ,v076
 .byte   N09 ,Fn2
 .byte   W12
 .byte   As1
 .byte   N09 ,Fn2
 .byte   W12
 .byte   N12 ,As1 ,v096
 .byte   N12 ,Fn2
 .byte   N12 ,As2
 .byte   W12
 .byte   As1
 .byte   N12 ,Fn2
 .byte   W12
 .byte   N09 ,As1 ,v076
 .byte   N09 ,Fn2
 .byte   W12
 .byte   PEND 
@  #05 @088   ----------------------------------------
Label_0100AFBC:
 .byte   TIE ,Bn1 ,v096
 .byte   TIE ,Fs2
 .byte   TIE ,Bn2
 .byte   W96
 .byte   PEND 
@  #05 @089   ----------------------------------------
 .byte   W96
@  #05 @090   ----------------------------------------
 .byte   W96
@  #05 @091   ----------------------------------------
 .byte   W96
@  #05 @092   ----------------------------------------
 .byte   EOT
 .byte   Bn1 ,v054
 .byte   Bn2
@  #05 @093   ----------------------------------------
 .byte   PATT
  .word Label_0100AFBC
@  #05 @094   ----------------------------------------
 .byte   W96
@  #05 @095   ----------------------------------------
 .byte   W96
@  #05 @096   ----------------------------------------
 .byte   W96
@  #05 @097   ----------------------------------------
 .byte   EOT
 .byte   Bn1 ,v054
 .byte   Bn2
@  #05 @098   ----------------------------------------
 .byte   PATT
  .word Label_0100AFBC
@  #05 @099   ----------------------------------------
 .byte   W96
@  #05 @100   ----------------------------------------
 .byte   W96
@  #05 @101   ----------------------------------------
 .byte   W96
@  #05 @102   ----------------------------------------
 .byte   EOT
 .byte   Bn1 ,v054
 .byte   Bn2
@  #05 @103   ----------------------------------------
 .byte   PATT
  .word Label_0100AFBC
@  #05 @104   ----------------------------------------
 .byte   W96
@  #05 @105   ----------------------------------------
 .byte   W96
@  #05 @106   ----------------------------------------
 .byte   EOT
 .byte   Bn1 ,v054
 .byte   Bn2
 .byte   W96
@  #05 @107   ----------------------------------------
 .byte   W96
@  #05 @108   ----------------------------------------
 .byte   W96
@  #05 @109   ----------------------------------------
 .byte   W96
@  #05 @110   ----------------------------------------
 .byte   W96
@  #05 @111   ----------------------------------------
 .byte   W96
@  #05 @112   ----------------------------------------
 .byte   W96
@  #05 @113   ----------------------------------------
 .byte   W96
@  #05 @114   ----------------------------------------
 .byte   W96
@  #05 @115   ----------------------------------------
 .byte   W96
@  #05 @116   ----------------------------------------
 .byte   W96
@  #05 @117   ----------------------------------------
 .byte   W96
@  #05 @118   ----------------------------------------
 .byte   W96
@  #05 @119   ----------------------------------------
 .byte   W96
@  #05 @120   ----------------------------------------
 .byte   W96
@  #05 @121   ----------------------------------------
 .byte   W96
@  #05 @122   ----------------------------------------
 .byte   W96
@  #05 @123   ----------------------------------------
 .byte   PATT
  .word Label_0100AB2E
@  #05 @124   ----------------------------------------
 .byte   PATT
  .word Label_0100AB2E
@  #05 @125   ----------------------------------------
 .byte   PATT
  .word Label_0100AB2E
@  #05 @126   ----------------------------------------
 .byte   PATT
  .word Label_0100AB2E
@  #05 @127   ----------------------------------------
 .byte   PATT
  .word Label_0100AB2E
@  #05 @128   ----------------------------------------
 .byte   PATT
  .word Label_0100AB2E
@  #05 @129   ----------------------------------------
 .byte   PATT
  .word Label_0100AB2E
@  #05 @130   ----------------------------------------
 .byte   PATT
  .word Label_0100AB2E
@  #05 @131   ----------------------------------------
 .byte   PATT
  .word Label_0100AB2E
@  #05 @132   ----------------------------------------
 .byte   PATT
  .word Label_0100AB2E
@  #05 @133   ----------------------------------------
 .byte   PATT
  .word Label_0100AB2E
@  #05 @134   ----------------------------------------
 .byte   PATT
  .word Label_0100AB2E
@  #05 @135   ----------------------------------------
 .byte   PATT
  .word Label_0100AB2E
@  #05 @136   ----------------------------------------
 .byte   PATT
  .word Label_0100AB2E
@  #05 @137   ----------------------------------------
 .byte   PATT
  .word Label_0100AB2E
@  #05 @138   ----------------------------------------
 .byte   PATT
  .word Label_0100AB2E
@  #05 @139   ----------------------------------------
 .byte   PATT
  .word Label_0100AB9C
@  #05 @140   ----------------------------------------
 .byte   PATT
  .word Label_0100ABCB
@  #05 @141   ----------------------------------------
 .byte   PATT
  .word Label_0100ABFA
@  #05 @142   ----------------------------------------
 .byte   PATT
  .word Label_0100AC29
@  #05 @143   ----------------------------------------
 .byte   PATT
  .word Label_0100AC54
@  #05 @144   ----------------------------------------
 .byte   PATT
  .word Label_0100AC83
@  #05 @145   ----------------------------------------
 .byte   PATT
  .word Label_0100ACB4
@  #05 @146   ----------------------------------------
 .byte   PATT
  .word Label_0100ACE3
@  #05 @147   ----------------------------------------
 .byte   PATT
  .word Label_0100AD19
@  #05 @148   ----------------------------------------
 .byte   PATT
  .word Label_0100AC83
@  #05 @149   ----------------------------------------
 .byte   PATT
  .word Label_0100AC54
@  #05 @150   ----------------------------------------
 .byte   PATT
  .word Label_0100AC83
@  #05 @151   ----------------------------------------
 .byte   PATT
  .word Label_0100AD59
@  #05 @152   ----------------------------------------
 .byte   PATT
  .word Label_0100AD88
@  #05 @153   ----------------------------------------
 .byte   PATT
  .word Label_0100AD59
@  #05 @154   ----------------------------------------
 .byte   PATT
  .word Label_0100AD88
@  #05 @155   ----------------------------------------
 .byte   W96
@  #05 @156   ----------------------------------------
 .byte   W96
@  #05 @157   ----------------------------------------
 .byte   W96
@  #05 @158   ----------------------------------------
 .byte   W96
@  #05 @159   ----------------------------------------
 .byte   W96
@  #05 @160   ----------------------------------------
 .byte   W96
@  #05 @161   ----------------------------------------
 .byte   W96
@  #05 @162   ----------------------------------------
 .byte   W96
@  #05 @163   ----------------------------------------
 .byte   W96
@  #05 @164   ----------------------------------------
 .byte   W96
@  #05 @165   ----------------------------------------
 .byte   W96
@  #05 @166   ----------------------------------------
 .byte   W96
@  #05 @167   ----------------------------------------
 .byte   W96
@  #05 @168   ----------------------------------------
 .byte   W96
@  #05 @169   ----------------------------------------
 .byte   W96
@  #05 @170   ----------------------------------------
 .byte   W96
@  #05 @171   ----------------------------------------
 .byte   PATT
  .word Label_0100ADD8
@  #05 @172   ----------------------------------------
 .byte   PATT
  .word Label_0100ADFE
@  #05 @173   ----------------------------------------
 .byte   PATT
  .word Label_0100AE24
@  #05 @174   ----------------------------------------
 .byte   PATT
  .word Label_0100AE4C
@  #05 @175   ----------------------------------------
 .byte   PATT
  .word Label_0100AE74
@  #05 @176   ----------------------------------------
 .byte   PATT
  .word Label_0100AE9A
@  #05 @177   ----------------------------------------
 .byte   PATT
  .word Label_0100AEC0
@  #05 @178   ----------------------------------------
 .byte   PATT
  .word Label_0100AEEC
@  #05 @179   ----------------------------------------
 .byte   PATT
  .word Label_0100ADD8
@  #05 @180   ----------------------------------------
 .byte   PATT
  .word Label_0100ADFE
@  #05 @181   ----------------------------------------
 .byte   PATT
  .word Label_0100AE24
@  #05 @182   ----------------------------------------
 .byte   PATT
  .word Label_0100AE4C
@  #05 @183   ----------------------------------------
 .byte   PATT
  .word Label_0100AE74
@  #05 @184   ----------------------------------------
 .byte   PATT
  .word Label_0100AE9A
@  #05 @185   ----------------------------------------
 .byte   PATT
  .word Label_0100AEC0
@  #05 @186   ----------------------------------------
 .byte   PATT
  .word Label_0100AEEC
@  #05 @187   ----------------------------------------
 .byte   PATT
  .word Label_0100ADD8
@  #05 @188   ----------------------------------------
 .byte   PATT
  .word Label_0100ADFE
@  #05 @189   ----------------------------------------
 .byte   PATT
  .word Label_0100AE24
@  #05 @190   ----------------------------------------
 .byte   PATT
  .word Label_0100AE4C
@  #05 @191   ----------------------------------------
 .byte   PATT
  .word Label_0100AE74
@  #05 @192   ----------------------------------------
 .byte   PATT
  .word Label_0100AE9A
@  #05 @193   ----------------------------------------
 .byte   PATT
  .word Label_0100AF61
@  #05 @194   ----------------------------------------
 .byte   PATT
  .word Label_0100AF8D
@  #05 @195   ----------------------------------------
 .byte   GOTO
  .word Label_0100AFBC
@  #05 @196   ----------------------------------------
 .byte   PATT
  .word Label_0100AFBC
@  #05 @197   ----------------------------------------
 .byte   W96
@  #05 @198   ----------------------------------------
 .byte   W96
@  #05 @199   ----------------------------------------
 .byte   W96
@  #05 @200   ----------------------------------------
 .byte   EOT
 .byte   Bn1 ,v054
 .byte   Bn2
@  #05 @201   ----------------------------------------
 .byte   PATT
  .word Label_0100AFBC
@  #05 @202   ----------------------------------------
 .byte   W96
@  #05 @203   ----------------------------------------
 .byte   W96
@  #05 @204   ----------------------------------------
 .byte   W96
@  #05 @205   ----------------------------------------
 .byte   EOT
 .byte   Bn1 ,v054
 .byte   Bn2
@  #05 @206   ----------------------------------------
 .byte   PATT
  .word Label_0100AFBC
@  #05 @207   ----------------------------------------
 .byte   W96
@  #05 @208   ----------------------------------------
 .byte   W96
@  #05 @209   ----------------------------------------
 .byte   W96
@  #05 @210   ----------------------------------------
 .byte   EOT
 .byte   Bn1 ,v054
 .byte   Bn2
@  #05 @211   ----------------------------------------
 .byte   PATT
  .word Label_0100AFBC
@  #05 @212   ----------------------------------------
 .byte   W96
@  #05 @213   ----------------------------------------
 .byte   W96
@  #05 @214   ----------------------------------------
 .byte   EOT
 .byte   Bn1 ,v054
 .byte   Bn2
 .byte   W96
 .byte   FINE

@**************** Track 6 (Midi-Chn.5) ****************@

song04_006:
@  #06 @000   ----------------------------------------
 .byte   KEYSH , song04_key+0
 .byte   VOICE , 4
 .byte   VOL , 50*song04_mvl/mxv
 .byte   PAN , c_v+0
 .byte   BEND , c_v+0
 .byte   W96
@  #06 @001   ----------------------------------------
 .byte   W96
@  #06 @002   ----------------------------------------
 .byte   W96
@  #06 @003   ----------------------------------------
 .byte   W96
@  #06 @004   ----------------------------------------
 .byte   W96
@  #06 @005   ----------------------------------------
 .byte   W96
@  #06 @006   ----------------------------------------
 .byte   W96
@  #06 @007   ----------------------------------------
 .byte   W96
@  #06 @008   ----------------------------------------
 .byte   W96
@  #06 @009   ----------------------------------------
 .byte   W96
@  #06 @010   ----------------------------------------
 .byte   W96
@  #06 @011   ----------------------------------------
 .byte   W96
@  #06 @012   ----------------------------------------
 .byte   W96
@  #06 @013   ----------------------------------------
 .byte   W96
@  #06 @014   ----------------------------------------
 .byte   W96
@  #06 @015   ----------------------------------------
 .byte   W96
@  #06 @016   ----------------------------------------
 .byte   W96
@  #06 @017   ----------------------------------------
 .byte   W96
@  #06 @018   ----------------------------------------
 .byte   W96
@  #06 @019   ----------------------------------------
 .byte   W96
@  #06 @020   ----------------------------------------
 .byte   W96
@  #06 @021   ----------------------------------------
 .byte   W96
@  #06 @022   ----------------------------------------
 .byte   W96
@  #06 @023   ----------------------------------------
 .byte   W96
@  #06 @024   ----------------------------------------
 .byte   W96
@  #06 @025   ----------------------------------------
 .byte   W96
@  #06 @026   ----------------------------------------
 .byte   W96
@  #06 @027   ----------------------------------------
 .byte   W96
@  #06 @028   ----------------------------------------
 .byte   W96
@  #06 @029   ----------------------------------------
 .byte   W96
@  #06 @030   ----------------------------------------
 .byte   W96
@  #06 @031   ----------------------------------------
 .byte   W96
@  #06 @032   ----------------------------------------
Label_0100B19A:
 .byte   N96 ,Bn1 ,v127
 .byte   N96 ,Bn2
 .byte   W48
 .byte   N48 ,Bn3
 .byte   N48 ,Dn4
 .byte   N48 ,Dn5
 .byte   W48
 .byte   PEND 
@  #06 @033   ----------------------------------------
Label_0100B1A8:
 .byte   N96 ,An1 ,v127
 .byte   N96 ,An2
 .byte   N48 ,An3
 .byte   N48 ,Cs4
 .byte   N48 ,Cs5
 .byte   W48
 .byte   Bn3
 .byte   N48 ,Dn4
 .byte   N48 ,Dn5
 .byte   W48
 .byte   PEND 
@  #06 @034   ----------------------------------------
Label_0100B1BB:
 .byte   TIE ,Gn1 ,v127
 .byte   TIE ,Gn2
 .byte   TIE ,Gn3
 .byte   TIE ,Bn3
 .byte   TIE ,Bn4
 .byte   W96
 .byte   PEND 
@  #06 @035   ----------------------------------------
 .byte   W48
 .byte   EOT
 .byte   Gn1 ,v055
 .byte   N24 ,Gn1
 .byte   N24 ,Gn2
 .byte   W24
 .byte   Fs1
 .byte   N24 ,Fs2
 .byte   W24
@  #06 @036   ----------------------------------------
 .byte   EOT
 .byte   Gn3 ,v071
 .byte   Bn4
Label_0100B1D9:
 .byte   N96 ,En1 ,v127
 .byte   N96 ,En2
 .byte   W48
 .byte   N48 ,Bn3
 .byte   N48 ,Dn4
 .byte   N48 ,Dn5
 .byte   W48
 .byte   PEND 
@  #06 @037   ----------------------------------------
Label_0100B1E7:
 .byte   N96 ,Fs1 ,v127
 .byte   N96 ,Fs2
 .byte   N48 ,An3
 .byte   N48 ,Cs4
 .byte   N48 ,Cs5
 .byte   W48
 .byte   Dn4
 .byte   N48 ,Fs4
 .byte   N48 ,Fs5
 .byte   W48
 .byte   PEND 
@  #06 @038   ----------------------------------------
Label_0100B1FA:
 .byte   TIE ,Gs1 ,v127
 .byte   TIE ,Gs2
 .byte   TIE ,Gn3
 .byte   TIE ,Bn3
 .byte   TIE ,Bn4
 .byte   W96
 .byte   PEND 
@  #06 @039   ----------------------------------------
 .byte   W96
@  #06 @040   ----------------------------------------
 .byte   EOT
 .byte   Gs1 ,v056
 .byte   Gn3 ,v071
 .byte   Bn4
Label_0100B20E:
 .byte   N96 ,Gn1 ,v127
 .byte   N96 ,Gn2
 .byte   W48
 .byte   N48 ,Dn4
 .byte   N48 ,Fs4
 .byte   N48 ,Fs5
 .byte   W48
 .byte   PEND 
@  #06 @041   ----------------------------------------
Label_0100B21C:
 .byte   N96 ,Fs1 ,v127
 .byte   N96 ,Fs2
 .byte   N24 ,Cs4
 .byte   N24 ,En4
 .byte   N24 ,En5
 .byte   W24
 .byte   Dn4
 .byte   N24 ,Dn5
 .byte   W24
 .byte   N48 ,Cs4
 .byte   N48 ,Cs5
 .byte   W48
 .byte   PEND 
@  #06 @042   ----------------------------------------
Label_0100B232:
 .byte   N96 ,En1 ,v127
 .byte   N96 ,En2
 .byte   W48
 .byte   N48 ,Cs4
 .byte   N48 ,En4
 .byte   N48 ,En5
 .byte   W48
 .byte   PEND 
@  #06 @043   ----------------------------------------
Label_0100B240:
 .byte   N96 ,Fs1 ,v127
 .byte   N96 ,Fs2
 .byte   N24 ,Bn3
 .byte   N24 ,Dn4
 .byte   N24 ,Dn5
 .byte   W24
 .byte   Cs4
 .byte   N24 ,Cs5
 .byte   W24
 .byte   Bn3
 .byte   N24 ,Bn4
 .byte   W24
 .byte   Cs4
 .byte   N24 ,Cs5
 .byte   W24
 .byte   PEND 
@  #06 @044   ----------------------------------------
Label_0100B259:
 .byte   TIE ,Bn0 ,v127
 .byte   TIE ,Bn1
 .byte   N96 ,Fs3
 .byte   TIE ,Cs4
 .byte   TIE ,Fs4
 .byte   TIE ,Cs5
 .byte   W96
 .byte   PEND 
@  #06 @045   ----------------------------------------
 .byte   W96
@  #06 @046   ----------------------------------------
 .byte   EOT
 .byte   Bn0 ,v047
 .byte   Cs4 ,v078
 .byte   Cs5
Label_0100B26F:
 .byte   TIE ,Bn0 ,v127
 .byte   TIE ,Bn1
 .byte   N96 ,Dn3
 .byte   TIE ,Fs3
 .byte   TIE ,Bn3
 .byte   TIE ,Bn4
 .byte   W96
 .byte   PEND 
@  #06 @047   ----------------------------------------
 .byte   W96
@  #06 @048   ----------------------------------------
 .byte   EOT
 .byte   Bn0 ,v066
 .byte   Bn3 ,v083
Label_0100B284:
 .byte   N96 ,Bn2 ,v127
 .byte   W48
 .byte   N48 ,Bn3
 .byte   N48 ,Dn4
 .byte   W48
 .byte   PEND 
@  #06 @049   ----------------------------------------
 .byte   EOT
 .byte   Bn1
Label_0100B290:
 .byte   N48 ,An3 ,v127
 .byte   N48 ,Cs4
 .byte   W48
 .byte   Bn3
 .byte   N48 ,Dn4
 .byte   W48
 .byte   PEND 
@  #06 @050   ----------------------------------------
Label_0100B29B:
 .byte   TIE ,Gn3 ,v127
 .byte   TIE ,Bn3
 .byte   W96
 .byte   PEND 
@  #06 @051   ----------------------------------------
 .byte   W96
@  #06 @052   ----------------------------------------
 .byte   EOT
 .byte   Gn3 ,v071
Label_0100B2A6:
 .byte   W48
 .byte   N48 ,Bn3 ,v127
 .byte   N48 ,Dn4
 .byte   W48
 .byte   PEND 
@  #06 @053   ----------------------------------------
Label_0100B2AE:
 .byte   N48 ,An3 ,v127
 .byte   N48 ,Cs4
 .byte   W48
 .byte   Dn4
 .byte   N48 ,Fs4
 .byte   W48
 .byte   PEND 
@  #06 @054   ----------------------------------------
 .byte   PATT
  .word Label_0100B29B
@  #06 @055   ----------------------------------------
 .byte   W96
@  #06 @056   ----------------------------------------
 .byte   EOT
 .byte   Gn3 ,v071
@  #06 @057   ----------------------------------------
 .byte   PATT
  .word Label_0100B284
@  #06 @058   ----------------------------------------
 .byte   PATT
  .word Label_0100B290
@  #06 @059   ----------------------------------------
 .byte   PATT
  .word Label_0100B29B
@  #06 @060   ----------------------------------------
 .byte   W96
@  #06 @061   ----------------------------------------
 .byte   EOT
 .byte   Gn3 ,v071
Label_0100B2D5:
 .byte   N96 ,En1 ,v127
 .byte   N96 ,Gn2
 .byte   N96 ,Bn2
 .byte   N96 ,Dn3
 .byte   W96
 .byte   PEND 
@  #06 @062   ----------------------------------------
Label_0100B2E0:
 .byte   N96 ,Fs1 ,v127
 .byte   N96 ,Fs2
 .byte   N96 ,An2
 .byte   N96 ,Cs3
 .byte   W96
 .byte   PEND 
@  #06 @063   ----------------------------------------
Label_0100B2EB:
 .byte   N12 ,An1 ,v127
 .byte   N12 ,En2
 .byte   N12 ,Fs2
 .byte   N12 ,An2
 .byte   N12 ,Cs3
 .byte   W96
 .byte   PEND 
@  #06 @064   ----------------------------------------
 .byte   W96
@  #06 @065   ----------------------------------------
Label_0100B2F9:
 .byte   N96 ,Bn1 ,v096
 .byte   N96 ,Fs2
 .byte   N96 ,Dn3
 .byte   N96 ,Fs3
 .byte   N96 ,Bn3
 .byte   N96 ,Dn4
 .byte   W96
 .byte   PEND 
@  #06 @066   ----------------------------------------
Label_0100B308:
 .byte   N96 ,En1 ,v096
 .byte   N96 ,Bn1
 .byte   N96 ,En2
 .byte   N96 ,Gn2
 .byte   N96 ,Bn2
 .byte   N96 ,Dn3
 .byte   W96
 .byte   PEND 
@  #06 @067   ----------------------------------------
Label_0100B317:
 .byte   N96 ,An1 ,v096
 .byte   N96 ,En2
 .byte   N96 ,An2
 .byte   N96 ,Cs3
 .byte   N96 ,En3
 .byte   N96 ,An3
 .byte   W48
 .byte   N48 ,Cs4
 .byte   W48
 .byte   PEND 
@  #06 @068   ----------------------------------------
Label_0100B329:
 .byte   N96 ,Dn1 ,v096
 .byte   N96 ,An1
 .byte   N96 ,Dn2
 .byte   N96 ,Fs2
 .byte   N96 ,An2
 .byte   N96 ,Dn3
 .byte   W96
 .byte   PEND 
@  #06 @069   ----------------------------------------
Label_0100B338:
 .byte   N96 ,Gn1 ,v096
 .byte   N96 ,Dn2
 .byte   N96 ,Gn2
 .byte   N96 ,Bn2
 .byte   N96 ,Dn3
 .byte   N96 ,Fs3
 .byte   W96
 .byte   PEND 
@  #06 @070   ----------------------------------------
Label_0100B347:
 .byte   N96 ,Gs1 ,v096
 .byte   N96 ,Ds2
 .byte   N96 ,Gs2
 .byte   N96 ,Bn2
 .byte   N96 ,Ds3
 .byte   N96 ,Fs3
 .byte   W96
 .byte   PEND 
@  #06 @071   ----------------------------------------
Label_0100B356:
 .byte   N72 ,An1 ,v096
 .byte   N72 ,En2
 .byte   N72 ,An2
 .byte   N72 ,Cs3
 .byte   N72 ,En3
 .byte   W48
 .byte   N24 ,An3
 .byte   W24
 .byte   Gn1
 .byte   N24 ,Dn2
 .byte   N24 ,Gn2
 .byte   N24 ,Bn2
 .byte   N24 ,Dn3
 .byte   N24 ,Gn3
 .byte   W24
 .byte   PEND 
@  #06 @072   ----------------------------------------
Label_0100B372:
 .byte   N96 ,Fs1 ,v096
 .byte   N96 ,Cs2
 .byte   N96 ,Fs2
 .byte   N96 ,As2
 .byte   N96 ,Cs3
 .byte   N96 ,Fs3
 .byte   W96
 .byte   PEND 
@  #06 @073   ----------------------------------------
 .byte   PATT
  .word Label_0100B2F9
@  #06 @074   ----------------------------------------
 .byte   PATT
  .word Label_0100B308
@  #06 @075   ----------------------------------------
 .byte   PATT
  .word Label_0100B317
@  #06 @076   ----------------------------------------
 .byte   PATT
  .word Label_0100B329
@  #06 @077   ----------------------------------------
 .byte   PATT
  .word Label_0100B338
@  #06 @078   ----------------------------------------
 .byte   PATT
  .word Label_0100B347
@  #06 @079   ----------------------------------------
 .byte   PATT
  .word Label_0100B356
@  #06 @080   ----------------------------------------
 .byte   PATT
  .word Label_0100B372
@  #06 @081   ----------------------------------------
 .byte   PATT
  .word Label_0100B2F9
@  #06 @082   ----------------------------------------
 .byte   PATT
  .word Label_0100B308
@  #06 @083   ----------------------------------------
 .byte   PATT
  .word Label_0100B317
@  #06 @084   ----------------------------------------
 .byte   PATT
  .word Label_0100B329
@  #06 @085   ----------------------------------------
 .byte   PATT
  .word Label_0100B338
@  #06 @086   ----------------------------------------
 .byte   PATT
  .word Label_0100B347
@  #06 @087   ----------------------------------------
Label_0100B3C7:
 .byte   N48 ,An1 ,v096
 .byte   N48 ,En2
 .byte   N48 ,An2
 .byte   N48 ,Cs3
 .byte   N48 ,En3
 .byte   N48 ,An3
 .byte   W48
 .byte   An1
 .byte   N48 ,En2
 .byte   N48 ,An2
 .byte   N48 ,Cs3
 .byte   N48 ,En3
 .byte   N48 ,An3
 .byte   W48
 .byte   PEND 
@  #06 @088   ----------------------------------------
 .byte   N96 ,As1
 .byte   N96 ,Fn2
 .byte   N96 ,As2
 .byte   N96 ,Dn3
 .byte   N96 ,Fn3
 .byte   N96 ,An3
 .byte   W96
@  #06 @089   ----------------------------------------
Label_0100B3EF:
 .byte   W96
@  #06 @090   ----------------------------------------
 .byte   W96
@  #06 @091   ----------------------------------------
 .byte   W96
@  #06 @092   ----------------------------------------
 .byte   W96
@  #06 @093   ----------------------------------------
 .byte   W96
@  #06 @094   ----------------------------------------
 .byte   W96
@  #06 @095   ----------------------------------------
 .byte   W96
@  #06 @096   ----------------------------------------
 .byte   W96
@  #06 @097   ----------------------------------------
 .byte   W96
@  #06 @098   ----------------------------------------
 .byte   W96
@  #06 @099   ----------------------------------------
 .byte   W96
@  #06 @100   ----------------------------------------
 .byte   W96
@  #06 @101   ----------------------------------------
 .byte   W96
@  #06 @102   ----------------------------------------
 .byte   W96
@  #06 @103   ----------------------------------------
 .byte   W96
@  #06 @104   ----------------------------------------
 .byte   W96
@  #06 @105   ----------------------------------------
 .byte   W96
@  #06 @106   ----------------------------------------
 .byte   W96
@  #06 @107   ----------------------------------------
 .byte   W96
@  #06 @108   ----------------------------------------
 .byte   W96
@  #06 @109   ----------------------------------------
 .byte   W96
@  #06 @110   ----------------------------------------
 .byte   W96
@  #06 @111   ----------------------------------------
 .byte   W96
@  #06 @112   ----------------------------------------
 .byte   W96
@  #06 @113   ----------------------------------------
 .byte   W96
@  #06 @114   ----------------------------------------
 .byte   W96
@  #06 @115   ----------------------------------------
 .byte   W96
@  #06 @116   ----------------------------------------
 .byte   W96
@  #06 @117   ----------------------------------------
 .byte   W96
@  #06 @118   ----------------------------------------
 .byte   W96
@  #06 @119   ----------------------------------------
 .byte   W96
@  #06 @120   ----------------------------------------
 .byte   W96
@  #06 @121   ----------------------------------------
 .byte   W96
@  #06 @122   ----------------------------------------
 .byte   W96
@  #06 @123   ----------------------------------------
 .byte   W96
@  #06 @124   ----------------------------------------
 .byte   W96
@  #06 @125   ----------------------------------------
 .byte   W96
@  #06 @126   ----------------------------------------
 .byte   W96
@  #06 @127   ----------------------------------------
 .byte   W96
@  #06 @128   ----------------------------------------
 .byte   W96
@  #06 @129   ----------------------------------------
 .byte   W96
@  #06 @130   ----------------------------------------
 .byte   W96
@  #06 @131   ----------------------------------------
 .byte   W96
@  #06 @132   ----------------------------------------
 .byte   W96
@  #06 @133   ----------------------------------------
 .byte   W96
@  #06 @134   ----------------------------------------
 .byte   W96
@  #06 @135   ----------------------------------------
 .byte   W96
@  #06 @136   ----------------------------------------
 .byte   W96
@  #06 @137   ----------------------------------------
 .byte   PATT
  .word Label_0100B19A
@  #06 @138   ----------------------------------------
 .byte   PATT
  .word Label_0100B1A8
@  #06 @139   ----------------------------------------
 .byte   PATT
  .word Label_0100B1BB
@  #06 @140   ----------------------------------------
 .byte   W48
 .byte   EOT
 .byte   Gn1 ,v055
 .byte   N24 ,Gn1 ,v127
 .byte   N24 ,Gn2
 .byte   W24
 .byte   Fs1
 .byte   N24 ,Fs2
 .byte   W24
@  #06 @141   ----------------------------------------
 .byte   EOT
 .byte   Gn3 ,v071
 .byte   Bn4
@  #06 @142   ----------------------------------------
 .byte   PATT
  .word Label_0100B1D9
@  #06 @143   ----------------------------------------
 .byte   PATT
  .word Label_0100B1E7
@  #06 @144   ----------------------------------------
 .byte   PATT
  .word Label_0100B1FA
@  #06 @145   ----------------------------------------
 .byte   W96
@  #06 @146   ----------------------------------------
 .byte   EOT
 .byte   Gs1 ,v056
 .byte   Gn3 ,v071
 .byte   Bn4
@  #06 @147   ----------------------------------------
 .byte   PATT
  .word Label_0100B20E
@  #06 @148   ----------------------------------------
 .byte   PATT
  .word Label_0100B21C
@  #06 @149   ----------------------------------------
 .byte   PATT
  .word Label_0100B232
@  #06 @150   ----------------------------------------
 .byte   PATT
  .word Label_0100B240
@  #06 @151   ----------------------------------------
 .byte   PATT
  .word Label_0100B259
@  #06 @152   ----------------------------------------
 .byte   W96
@  #06 @153   ----------------------------------------
 .byte   EOT
 .byte   Bn0 ,v047
 .byte   Cs4 ,v078
 .byte   Cs5
@  #06 @154   ----------------------------------------
 .byte   PATT
  .word Label_0100B26F
@  #06 @155   ----------------------------------------
 .byte   W96
@  #06 @156   ----------------------------------------
 .byte   EOT
 .byte   Bn0 ,v066
 .byte   Bn3 ,v083
@  #06 @157   ----------------------------------------
 .byte   PATT
  .word Label_0100B284
@  #06 @158   ----------------------------------------
 .byte   EOT
 .byte   Bn1
@  #06 @159   ----------------------------------------
 .byte   PATT
  .word Label_0100B290
@  #06 @160   ----------------------------------------
 .byte   PATT
  .word Label_0100B29B
@  #06 @161   ----------------------------------------
 .byte   W96
@  #06 @162   ----------------------------------------
 .byte   EOT
 .byte   Gn3 ,v071
@  #06 @163   ----------------------------------------
 .byte   PATT
  .word Label_0100B2A6
@  #06 @164   ----------------------------------------
 .byte   PATT
  .word Label_0100B2AE
@  #06 @165   ----------------------------------------
 .byte   PATT
  .word Label_0100B29B
@  #06 @166   ----------------------------------------
 .byte   W96
@  #06 @167   ----------------------------------------
 .byte   EOT
 .byte   Gn3 ,v071
@  #06 @168   ----------------------------------------
 .byte   PATT
  .word Label_0100B284
@  #06 @169   ----------------------------------------
 .byte   PATT
  .word Label_0100B290
@  #06 @170   ----------------------------------------
 .byte   PATT
  .word Label_0100B29B
@  #06 @171   ----------------------------------------
 .byte   W96
@  #06 @172   ----------------------------------------
 .byte   EOT
 .byte   Gn3 ,v071
@  #06 @173   ----------------------------------------
 .byte   PATT
  .word Label_0100B2D5
@  #06 @174   ----------------------------------------
 .byte   PATT
  .word Label_0100B2E0
@  #06 @175   ----------------------------------------
 .byte   PATT
  .word Label_0100B2EB
@  #06 @176   ----------------------------------------
 .byte   W96
@  #06 @177   ----------------------------------------
 .byte   PATT
  .word Label_0100B2F9
@  #06 @178   ----------------------------------------
 .byte   PATT
  .word Label_0100B308
@  #06 @179   ----------------------------------------
 .byte   PATT
  .word Label_0100B317
@  #06 @180   ----------------------------------------
 .byte   PATT
  .word Label_0100B329
@  #06 @181   ----------------------------------------
 .byte   PATT
  .word Label_0100B338
@  #06 @182   ----------------------------------------
 .byte   PATT
  .word Label_0100B347
@  #06 @183   ----------------------------------------
 .byte   PATT
  .word Label_0100B356
@  #06 @184   ----------------------------------------
 .byte   PATT
  .word Label_0100B372
@  #06 @185   ----------------------------------------
 .byte   PATT
  .word Label_0100B2F9
@  #06 @186   ----------------------------------------
 .byte   PATT
  .word Label_0100B308
@  #06 @187   ----------------------------------------
 .byte   PATT
  .word Label_0100B317
@  #06 @188   ----------------------------------------
 .byte   PATT
  .word Label_0100B329
@  #06 @189   ----------------------------------------
 .byte   PATT
  .word Label_0100B338
@  #06 @190   ----------------------------------------
 .byte   PATT
  .word Label_0100B347
@  #06 @191   ----------------------------------------
 .byte   PATT
  .word Label_0100B356
@  #06 @192   ----------------------------------------
 .byte   PATT
  .word Label_0100B372
@  #06 @193   ----------------------------------------
 .byte   PATT
  .word Label_0100B2F9
@  #06 @194   ----------------------------------------
 .byte   PATT
  .word Label_0100B308
@  #06 @195   ----------------------------------------
 .byte   PATT
  .word Label_0100B317
@  #06 @196   ----------------------------------------
 .byte   PATT
  .word Label_0100B329
@  #06 @197   ----------------------------------------
 .byte   PATT
  .word Label_0100B338
@  #06 @198   ----------------------------------------
 .byte   PATT
  .word Label_0100B347
@  #06 @199   ----------------------------------------
 .byte   PATT
  .word Label_0100B3C7
@  #06 @200   ----------------------------------------
 .byte   N96 ,As1 ,v096
 .byte   N96 ,Fn2
 .byte   N96 ,As2
 .byte   N96 ,Dn3
 .byte   N96 ,Fn3
 .byte   N96 ,As3
 .byte   W96
@  #06 @201   ----------------------------------------
 .byte   GOTO
  .word Label_0100B3EF
@  #06 @202   ----------------------------------------
 .byte   W96
@  #06 @203   ----------------------------------------
 .byte   W96
@  #06 @204   ----------------------------------------
 .byte   W96
@  #06 @205   ----------------------------------------
 .byte   W96
@  #06 @206   ----------------------------------------
 .byte   W96
@  #06 @207   ----------------------------------------
 .byte   W96
@  #06 @208   ----------------------------------------
 .byte   W96
@  #06 @209   ----------------------------------------
 .byte   W96
@  #06 @210   ----------------------------------------
 .byte   W96
@  #06 @211   ----------------------------------------
 .byte   W96
@  #06 @212   ----------------------------------------
 .byte   W96
@  #06 @213   ----------------------------------------
 .byte   W96
@  #06 @214   ----------------------------------------
 .byte   W96
@  #06 @215   ----------------------------------------
 .byte   W96
@  #06 @216   ----------------------------------------
 .byte   W96
@  #06 @217   ----------------------------------------
 .byte   W96
 .byte   FINE

@**************** Track 7 (Midi-Chn.6) ****************@

song04_007:
@  #07 @000   ----------------------------------------
 .byte   KEYSH , song04_key+0
 .byte   VOICE , 124
 .byte   VOL , 50*song04_mvl/mxv
 .byte   PAN , c_v+0
 .byte   VOL , 50*song04_mvl/mxv
 .byte   PAN , c_v+0
 .byte   BEND , c_v+0
 .byte   N12 ,Cn1 ,v096
 .byte   N12 ,An2
 .byte   W12
 .byte   Cn1
 .byte   W12
 .byte   N24 ,As1
 .byte   W24
 .byte   En1
 .byte   N24 ,As1
 .byte   W24
 .byte   N24
 .byte   W24
@  #07 @001   ----------------------------------------
Label_0100B593:
 .byte   N12 ,Cn1 ,v096
 .byte   N12 ,As1
 .byte   W12
 .byte   Cn1
 .byte   W12
 .byte   N24 ,As1
 .byte   W24
 .byte   En1
 .byte   N24 ,As1
 .byte   W24
 .byte   N12
 .byte   W12
 .byte   Cn1
 .byte   W12
 .byte   PEND 
@  #07 @002   ----------------------------------------
 .byte   PATT
  .word Label_0100B593
@  #07 @003   ----------------------------------------
 .byte   PATT
  .word Label_0100B593
@  #07 @004   ----------------------------------------
Label_0100B5B1:
 .byte   N12 ,Cn1 ,v096
 .byte   N12 ,As1
 .byte   W12
 .byte   Cn1
 .byte   W12
 .byte   N24 ,As1
 .byte   W24
 .byte   En1
 .byte   N24 ,As1
 .byte   W24
 .byte   N24
 .byte   W24
 .byte   PEND 
@  #07 @005   ----------------------------------------
 .byte   PATT
  .word Label_0100B593
@  #07 @006   ----------------------------------------
 .byte   PATT
  .word Label_0100B593
@  #07 @007   ----------------------------------------
 .byte   PATT
  .word Label_0100B593
@  #07 @008   ----------------------------------------
Label_0100B5D2:
 .byte   N12 ,Cn1 ,v096
 .byte   N12 ,As1
 .byte   N12 ,An2
 .byte   W12
 .byte   Cn1
 .byte   N12 ,Gs1 ,v080
 .byte   W12
 .byte   As1 ,v096
 .byte   W12
 .byte   N06 ,Fs1 ,v080
 .byte   W06
 .byte   N06
 .byte   W06
 .byte   N12 ,En1 ,v096
 .byte   N12 ,As1
 .byte   W12
 .byte   Gs1 ,v080
 .byte   W12
 .byte   As1 ,v096
 .byte   W12
 .byte   N06 ,Fs1 ,v080
 .byte   W06
 .byte   N06
 .byte   W06
 .byte   PEND 
@  #07 @009   ----------------------------------------
Label_0100B5FB:
 .byte   N12 ,Cn1 ,v096
 .byte   N12 ,As1
 .byte   W12
 .byte   Cn1
 .byte   N12 ,Fs1 ,v080
 .byte   W12
 .byte   As1 ,v096
 .byte   W12
 .byte   N06 ,Fs1 ,v080
 .byte   W06
 .byte   N06
 .byte   W06
 .byte   N12 ,En1 ,v096
 .byte   N12 ,As1
 .byte   W12
 .byte   Fs1 ,v080
 .byte   W12
 .byte   As1 ,v096
 .byte   W12
 .byte   N06 ,Cn1
 .byte   N06 ,Fs1 ,v080
 .byte   W06
 .byte   N06
 .byte   W06
 .byte   PEND 
@  #07 @010   ----------------------------------------
 .byte   PATT
  .word Label_0100B5FB
@  #07 @011   ----------------------------------------
 .byte   PATT
  .word Label_0100B5FB
@  #07 @012   ----------------------------------------
Label_0100B62E:
 .byte   N12 ,Cn1 ,v096
 .byte   N12 ,As1
 .byte   N12 ,An2
 .byte   W12
 .byte   Cn1
 .byte   N12 ,Gs1 ,v080
 .byte   W12
 .byte   As1 ,v096
 .byte   W12
 .byte   N06 ,Cn1
 .byte   N06 ,Fs1 ,v080
 .byte   W06
 .byte   Cn1 ,v096
 .byte   N06 ,Fs1 ,v080
 .byte   W06
 .byte   N12 ,Cn1 ,v096
 .byte   N12 ,En1
 .byte   N12 ,As1
 .byte   W12
 .byte   Cn1
 .byte   N12 ,En1
 .byte   N12 ,Gs1 ,v080
 .byte   W12
 .byte   Cn1 ,v096
 .byte   N12 ,As1
 .byte   W12
 .byte   N06 ,En1
 .byte   N06 ,Fs1 ,v080
 .byte   W06
 .byte   N06
 .byte   W06
 .byte   PEND 
@  #07 @013   ----------------------------------------
Label_0100B667:
 .byte   N12 ,Cn1 ,v096
 .byte   N12 ,As1
 .byte   W12
 .byte   Cn1
 .byte   N12 ,En1
 .byte   N12 ,Fs1 ,v080
 .byte   W12
 .byte   As1 ,v096
 .byte   W12
 .byte   N06 ,Cn1
 .byte   N06 ,Fs1 ,v080
 .byte   W06
 .byte   Cn1 ,v096
 .byte   N06 ,Fs1 ,v080
 .byte   W06
 .byte   N12 ,En1 ,v096
 .byte   N12 ,As1
 .byte   W12
 .byte   N06 ,Fs1 ,v080
 .byte   W06
 .byte   En1 ,v096
 .byte   W06
 .byte   N12 ,Cn1
 .byte   N12 ,As1
 .byte   W12
 .byte   N06 ,En1
 .byte   N06 ,Fs1 ,v080
 .byte   W06
 .byte   En1 ,v096
 .byte   N06 ,Fs1 ,v080
 .byte   W06
 .byte   PEND 
@  #07 @014   ----------------------------------------
Label_0100B6A2:
 .byte   N96 ,Cn1 ,v096
 .byte   N96 ,En1
 .byte   N96 ,Fs1
 .byte   W96
 .byte   PEND 
@  #07 @015   ----------------------------------------
 .byte   W72
 .byte   N24 ,Cn1
 .byte   W24
@  #07 @016   ----------------------------------------
Label_0100B6AF:
 .byte   N12 ,Cn1 ,v096
 .byte   N12 ,An2
 .byte   W12
 .byte   As1
 .byte   W12
 .byte   Cn1
 .byte   N12 ,En1
 .byte   N12 ,Fs1
 .byte   W12
 .byte   As1
 .byte   W12
 .byte   Cn1
 .byte   N12 ,Fs1
 .byte   W12
 .byte   As1
 .byte   W12
 .byte   Cn1
 .byte   N12 ,En1
 .byte   N12 ,Fs1
 .byte   W12
 .byte   As1
 .byte   W12
 .byte   PEND 
@  #07 @017   ----------------------------------------
Label_0100B6CE:
 .byte   N12 ,Cn1 ,v096
 .byte   N12 ,Fs1
 .byte   W12
 .byte   As1
 .byte   W12
 .byte   Cn1
 .byte   N12 ,En1
 .byte   N12 ,Fs1
 .byte   W12
 .byte   As1
 .byte   W12
 .byte   Cn1
 .byte   N12 ,Fs1
 .byte   W12
 .byte   As1
 .byte   W12
 .byte   Cn1
 .byte   N12 ,En1
 .byte   N12 ,Fs1
 .byte   W12
 .byte   As1
 .byte   W12
 .byte   PEND 
@  #07 @018   ----------------------------------------
 .byte   PATT
  .word Label_0100B6CE
@  #07 @019   ----------------------------------------
 .byte   PATT
  .word Label_0100B6CE
@  #07 @020   ----------------------------------------
 .byte   PATT
  .word Label_0100B6AF
@  #07 @021   ----------------------------------------
 .byte   PATT
  .word Label_0100B6CE
@  #07 @022   ----------------------------------------
 .byte   PATT
  .word Label_0100B6CE
@  #07 @023   ----------------------------------------
 .byte   PATT
  .word Label_0100B6CE
@  #07 @024   ----------------------------------------
 .byte   PATT
  .word Label_0100B6AF
@  #07 @025   ----------------------------------------
 .byte   PATT
  .word Label_0100B6CE
@  #07 @026   ----------------------------------------
 .byte   PATT
  .word Label_0100B6CE
@  #07 @027   ----------------------------------------
 .byte   PATT
  .word Label_0100B6CE
@  #07 @028   ----------------------------------------
 .byte   PATT
  .word Label_0100B6AF
@  #07 @029   ----------------------------------------
 .byte   PATT
  .word Label_0100B6CE
@  #07 @030   ----------------------------------------
 .byte   PATT
  .word Label_0100B6CE
@  #07 @031   ----------------------------------------
 .byte   PATT
  .word Label_0100B6CE
@  #07 @032   ----------------------------------------
 .byte   PATT
  .word Label_0100B6AF
@  #07 @033   ----------------------------------------
 .byte   PATT
  .word Label_0100B6CE
@  #07 @034   ----------------------------------------
 .byte   PATT
  .word Label_0100B6CE
@  #07 @035   ----------------------------------------
 .byte   PATT
  .word Label_0100B6CE
@  #07 @036   ----------------------------------------
 .byte   PATT
  .word Label_0100B6AF
@  #07 @037   ----------------------------------------
 .byte   PATT
  .word Label_0100B6CE
@  #07 @038   ----------------------------------------
 .byte   PATT
  .word Label_0100B6CE
@  #07 @039   ----------------------------------------
 .byte   PATT
  .word Label_0100B6CE
@  #07 @040   ----------------------------------------
 .byte   PATT
  .word Label_0100B6AF
@  #07 @041   ----------------------------------------
 .byte   PATT
  .word Label_0100B6CE
@  #07 @042   ----------------------------------------
 .byte   PATT
  .word Label_0100B6CE
@  #07 @043   ----------------------------------------
 .byte   PATT
  .word Label_0100B6CE
@  #07 @044   ----------------------------------------
 .byte   PATT
  .word Label_0100B6AF
@  #07 @045   ----------------------------------------
 .byte   PATT
  .word Label_0100B6CE
@  #07 @046   ----------------------------------------
 .byte   PATT
  .word Label_0100B6CE
@  #07 @047   ----------------------------------------
 .byte   PATT
  .word Label_0100B6CE
@  #07 @048   ----------------------------------------
Label_0100B783:
 .byte   N12 ,Cn1 ,v096
 .byte   N12 ,Fs1
 .byte   N12 ,An2
 .byte   N06 ,An3
 .byte   W06
 .byte   An3 ,v064
 .byte   W06
 .byte   N12 ,Cn1 ,v080
 .byte   N12 ,Fs1 ,v096
 .byte   N06 ,An3 ,v064
 .byte   W06
 .byte   N06
 .byte   W06
 .byte   N12 ,Cn1 ,v080
 .byte   N12 ,Fs1 ,v096
 .byte   N06 ,An3
 .byte   W06
 .byte   An3 ,v064
 .byte   W06
 .byte   N12 ,Fs1 ,v096
 .byte   N06 ,An3 ,v064
 .byte   W06
 .byte   N06
 .byte   W06
 .byte   En0 ,v127
 .byte   N12 ,En1 ,v096
 .byte   N12 ,Fs1
 .byte   N06 ,An3
 .byte   W06
 .byte   An3 ,v064
 .byte   W06
 .byte   N12 ,Fs1 ,v096
 .byte   N06 ,An3 ,v064
 .byte   W06
 .byte   N06
 .byte   W06
 .byte   N12 ,Fs1 ,v096
 .byte   N06 ,An3
 .byte   W06
 .byte   An3 ,v064
 .byte   W06
 .byte   N12 ,Cn1 ,v096
 .byte   N12 ,Fs1
 .byte   N06 ,An3 ,v064
 .byte   W06
 .byte   N06
 .byte   W06
 .byte   PEND 
@  #07 @049   ----------------------------------------
Label_0100B7DC:
 .byte   N12 ,Fs1 ,v096
 .byte   N06 ,An3
 .byte   W06
 .byte   An3 ,v064
 .byte   W06
 .byte   N12 ,Cn1 ,v080
 .byte   N12 ,Fs1 ,v096
 .byte   N06 ,An3 ,v064
 .byte   W06
 .byte   N06
 .byte   W06
 .byte   N12 ,Fs1 ,v096
 .byte   N06 ,An3
 .byte   W06
 .byte   An3 ,v064
 .byte   W06
 .byte   N12 ,Fs1 ,v096
 .byte   N06 ,An3 ,v064
 .byte   W06
 .byte   N06
 .byte   W06
 .byte   En0 ,v127
 .byte   N12 ,En1 ,v096
 .byte   N12 ,Fs1
 .byte   N06 ,An3
 .byte   W06
 .byte   An3 ,v064
 .byte   W06
 .byte   N12 ,Fs1 ,v096
 .byte   N06 ,An3 ,v064
 .byte   W06
 .byte   N06
 .byte   W06
 .byte   N12 ,Fs1 ,v096
 .byte   N06 ,An3
 .byte   W06
 .byte   An3 ,v064
 .byte   W06
 .byte   N12 ,Cn1
 .byte   N12 ,Fs1 ,v096
 .byte   N06 ,An3 ,v064
 .byte   W06
 .byte   N06
 .byte   W06
 .byte   PEND 
@  #07 @050   ----------------------------------------
Label_0100B82E:
 .byte   N12 ,Cn1 ,v096
 .byte   N12 ,Fs1
 .byte   N06 ,An3
 .byte   W06
 .byte   An3 ,v064
 .byte   W06
 .byte   N12 ,Cn1 ,v080
 .byte   N12 ,Fs1 ,v096
 .byte   N06 ,An3 ,v064
 .byte   W06
 .byte   N06
 .byte   W06
 .byte   N12 ,Cn1 ,v080
 .byte   N12 ,Fs1 ,v096
 .byte   N06 ,An3
 .byte   W06
 .byte   An3 ,v064
 .byte   W06
 .byte   N12 ,Fs1 ,v096
 .byte   N06 ,An3 ,v064
 .byte   W06
 .byte   N06
 .byte   W06
 .byte   En0 ,v127
 .byte   N12 ,En1 ,v096
 .byte   N12 ,Fs1
 .byte   N06 ,An3
 .byte   W06
 .byte   An3 ,v064
 .byte   W06
 .byte   N12 ,Fs1 ,v096
 .byte   N06 ,An3 ,v064
 .byte   W06
 .byte   N06
 .byte   W06
 .byte   N12 ,Fs1 ,v096
 .byte   N06 ,An3
 .byte   W06
 .byte   An3 ,v064
 .byte   W06
 .byte   N12 ,Cn1 ,v096
 .byte   N12 ,Fs1
 .byte   N06 ,An3 ,v064
 .byte   W06
 .byte   N06
 .byte   W06
 .byte   PEND 
@  #07 @051   ----------------------------------------
 .byte   PATT
  .word Label_0100B7DC
@  #07 @052   ----------------------------------------
 .byte   PATT
  .word Label_0100B783
@  #07 @053   ----------------------------------------
 .byte   PATT
  .word Label_0100B7DC
@  #07 @054   ----------------------------------------
 .byte   PATT
  .word Label_0100B82E
@  #07 @055   ----------------------------------------
 .byte   PATT
  .word Label_0100B7DC
@  #07 @056   ----------------------------------------
 .byte   PATT
  .word Label_0100B783
@  #07 @057   ----------------------------------------
 .byte   PATT
  .word Label_0100B7DC
@  #07 @058   ----------------------------------------
 .byte   PATT
  .word Label_0100B82E
@  #07 @059   ----------------------------------------
 .byte   PATT
  .word Label_0100B7DC
@  #07 @060   ----------------------------------------
Label_0100B8B2:
 .byte   N12 ,Cn1 ,v096
 .byte   N12 ,Fs1
 .byte   W12
 .byte   Cn1 ,v080
 .byte   N12 ,Fs1 ,v096
 .byte   W12
 .byte   Cn1 ,v080
 .byte   N12 ,Fs1 ,v096
 .byte   W12
 .byte   N12
 .byte   W12
 .byte   En1
 .byte   N12 ,Fs1
 .byte   W12
 .byte   N12
 .byte   W12
 .byte   N12
 .byte   W12
 .byte   Cn1
 .byte   N12 ,Fs1
 .byte   W12
 .byte   PEND 
@  #07 @061   ----------------------------------------
Label_0100B8D3:
 .byte   N12 ,Fs1 ,v096
 .byte   W12
 .byte   Cn1 ,v080
 .byte   N12 ,Fs1 ,v096
 .byte   W12
 .byte   N12
 .byte   W12
 .byte   N12
 .byte   W12
 .byte   En1
 .byte   N12 ,Fs1
 .byte   W12
 .byte   N12
 .byte   W12
 .byte   N12
 .byte   W12
 .byte   Cn1 ,v064
 .byte   N12 ,Fs1 ,v096
 .byte   W12
 .byte   PEND 
@  #07 @062   ----------------------------------------
 .byte   PATT
  .word Label_0100B8B2
@  #07 @063   ----------------------------------------
Label_0100B8F5:
 .byte   N12 ,Fs1 ,v096
 .byte   W12
 .byte   Cn1 ,v080
 .byte   N12 ,Fs1 ,v096
 .byte   W12
 .byte   N12
 .byte   W12
 .byte   N12
 .byte   W12
 .byte   En1
 .byte   N12 ,Fs1
 .byte   W12
 .byte   VOL , 0*song04_mvl/mxv
 .byte   W36
 .byte   PEND 
@  #07 @064   ----------------------------------------
Label_0100B90B:
 .byte   VOL , 50*song04_mvl/mxv
 .byte   N12 ,Cn1 ,v096
 .byte   N12 ,Fs1
 .byte   N12 ,An2
 .byte   N06 ,An3
 .byte   W06
 .byte   An3 ,v064
 .byte   W06
 .byte   N12 ,Cn1 ,v096
 .byte   N12 ,Fs1
 .byte   N06 ,An3 ,v064
 .byte   W06
 .byte   N06
 .byte   W06
 .byte   N12 ,Cn1 ,v096
 .byte   N12 ,As1
 .byte   N06 ,An3
 .byte   W06
 .byte   An3 ,v064
 .byte   W06
 .byte   N12 ,Fs1 ,v096
 .byte   N06 ,An3 ,v064
 .byte   W06
 .byte   N06
 .byte   W06
 .byte   N12 ,Dn1 ,v096
 .byte   N12 ,Fs1
 .byte   N06 ,An3
 .byte   W06
 .byte   An3 ,v064
 .byte   W06
 .byte   N12 ,Fs1 ,v096
 .byte   N06 ,An3 ,v064
 .byte   W06
 .byte   N06
 .byte   W06
 .byte   N12 ,As1 ,v096
 .byte   N06 ,An3
 .byte   W06
 .byte   An3 ,v064
 .byte   W06
 .byte   N12 ,Cn1 ,v096
 .byte   N12 ,Fs1
 .byte   N06 ,An3 ,v064
 .byte   W06
 .byte   N06
 .byte   W06
 .byte   PEND 
@  #07 @065   ----------------------------------------
Label_0100B962:
 .byte   N12 ,Fs1 ,v096
 .byte   N06 ,An3
 .byte   W06
 .byte   An3 ,v064
 .byte   W06
 .byte   N12 ,Cn1 ,v096
 .byte   N12 ,Fs1
 .byte   N06 ,An3 ,v064
 .byte   W06
 .byte   N06
 .byte   W06
 .byte   N12 ,As1 ,v096
 .byte   N06 ,An3
 .byte   W06
 .byte   An3 ,v064
 .byte   W06
 .byte   N12 ,Fs1 ,v096
 .byte   N06 ,An3 ,v064
 .byte   W06
 .byte   N06
 .byte   W06
 .byte   N12 ,Dn1 ,v096
 .byte   N12 ,Fs1
 .byte   N06 ,An3
 .byte   W06
 .byte   An3 ,v064
 .byte   W06
 .byte   N12 ,Fs1 ,v096
 .byte   N06 ,An3 ,v064
 .byte   W06
 .byte   N06
 .byte   W06
 .byte   N12 ,As1 ,v096
 .byte   N06 ,An3
 .byte   W06
 .byte   An3 ,v064
 .byte   W06
 .byte   N12 ,Cn1 ,v096
 .byte   N12 ,Fs1
 .byte   N06 ,An3 ,v064
 .byte   W06
 .byte   N06
 .byte   W06
 .byte   PEND 
@  #07 @066   ----------------------------------------
Label_0100B9B1:
 .byte   N12 ,Cn1 ,v096
 .byte   N12 ,Fs1
 .byte   N06 ,An3
 .byte   W06
 .byte   An3 ,v064
 .byte   W06
 .byte   N12 ,Cn1 ,v096
 .byte   N12 ,Fs1
 .byte   N06 ,An3 ,v064
 .byte   W06
 .byte   N06
 .byte   W06
 .byte   N12 ,Cn1 ,v096
 .byte   N12 ,As1
 .byte   N06 ,An3
 .byte   W06
 .byte   An3 ,v064
 .byte   W06
 .byte   N12 ,Fs1 ,v096
 .byte   N06 ,An3 ,v064
 .byte   W06
 .byte   N06
 .byte   W06
 .byte   N12 ,Dn1 ,v096
 .byte   N12 ,Fs1
 .byte   N06 ,An3
 .byte   W06
 .byte   An3 ,v064
 .byte   W06
 .byte   N12 ,Fs1 ,v096
 .byte   N06 ,An3 ,v064
 .byte   W06
 .byte   N06
 .byte   W06
 .byte   N12 ,As1 ,v096
 .byte   N06 ,An3
 .byte   W06
 .byte   An3 ,v064
 .byte   W06
 .byte   N12 ,Cn1 ,v096
 .byte   N12 ,Fs1
 .byte   N06 ,An3 ,v064
 .byte   W06
 .byte   N06
 .byte   W06
 .byte   PEND 
@  #07 @067   ----------------------------------------
 .byte   PATT
  .word Label_0100B962
@  #07 @068   ----------------------------------------
Label_0100BA09:
 .byte   VOL , 50*song04_mvl/mxv
 .byte   N12 ,Cn1 ,v096
 .byte   N12 ,Fs1
 .byte   N06 ,An3
 .byte   W06
 .byte   An3 ,v064
 .byte   W06
 .byte   N12 ,Cn1 ,v096
 .byte   N12 ,Fs1
 .byte   N06 ,An3 ,v064
 .byte   W06
 .byte   N06
 .byte   W06
 .byte   N12 ,Cn1 ,v096
 .byte   N12 ,As1
 .byte   N06 ,An3
 .byte   W06
 .byte   An3 ,v064
 .byte   W06
 .byte   N12 ,Fs1 ,v096
 .byte   N06 ,An3 ,v064
 .byte   W06
 .byte   N06
 .byte   W06
 .byte   N12 ,Dn1 ,v096
 .byte   N12 ,Fs1
 .byte   N06 ,An3
 .byte   W06
 .byte   An3 ,v064
 .byte   W06
 .byte   N12 ,Fs1 ,v096
 .byte   N06 ,An3 ,v064
 .byte   W06
 .byte   N06
 .byte   W06
 .byte   N12 ,As1 ,v096
 .byte   N06 ,An3
 .byte   W06
 .byte   An3 ,v064
 .byte   W06
 .byte   N12 ,Cn1 ,v096
 .byte   N12 ,Fs1
 .byte   N06 ,An3 ,v064
 .byte   W06
 .byte   N06
 .byte   W06
 .byte   PEND 
@  #07 @069   ----------------------------------------
 .byte   PATT
  .word Label_0100B962
@  #07 @070   ----------------------------------------
 .byte   PATT
  .word Label_0100B9B1
@  #07 @071   ----------------------------------------
 .byte   PATT
  .word Label_0100B962
@  #07 @072   ----------------------------------------
 .byte   PATT
  .word Label_0100B90B
@  #07 @073   ----------------------------------------
 .byte   PATT
  .word Label_0100B962
@  #07 @074   ----------------------------------------
 .byte   PATT
  .word Label_0100B9B1
@  #07 @075   ----------------------------------------
 .byte   PATT
  .word Label_0100B962
@  #07 @076   ----------------------------------------
 .byte   PATT
  .word Label_0100BA09
@  #07 @077   ----------------------------------------
 .byte   PATT
  .word Label_0100B962
@  #07 @078   ----------------------------------------
 .byte   PATT
  .word Label_0100B9B1
@  #07 @079   ----------------------------------------
 .byte   PATT
  .word Label_0100B962
@  #07 @080   ----------------------------------------
Label_0100BA95:
 .byte   VOL , 50*song04_mvl/mxv
 .byte   N12 ,Cn1 ,v096
 .byte   N12 ,Fs1
 .byte   N12 ,An2
 .byte   N06 ,An3
 .byte   W06
 .byte   An3 ,v064
 .byte   W06
 .byte   N12 ,Cn1 ,v096
 .byte   N12 ,Fs1
 .byte   N06 ,An3 ,v064
 .byte   W06
 .byte   N06
 .byte   W06
 .byte   N12 ,Cn1 ,v096
 .byte   N12 ,As1
 .byte   N06 ,An3
 .byte   W06
 .byte   An3 ,v064
 .byte   W06
 .byte   Cn1 ,v096
 .byte   N06 ,Fs1
 .byte   N06 ,An3 ,v064
 .byte   W06
 .byte   Cn1 ,v096
 .byte   N06 ,An3 ,v064
 .byte   W06
 .byte   N12 ,Dn1 ,v096
 .byte   N12 ,Fs1
 .byte   N06 ,An3
 .byte   W06
 .byte   An3 ,v064
 .byte   W06
 .byte   N12 ,Fs1 ,v096
 .byte   N06 ,An3 ,v064
 .byte   W06
 .byte   N06
 .byte   W06
 .byte   N12 ,Cn1 ,v096
 .byte   N12 ,As1
 .byte   N06 ,An3
 .byte   W06
 .byte   An3 ,v064
 .byte   W06
 .byte   Dn1 ,v096
 .byte   N06 ,Fs1
 .byte   N06 ,An3 ,v064
 .byte   W06
 .byte   Dn1 ,v096
 .byte   N06 ,An3 ,v064
 .byte   W06
 .byte   PEND 
@  #07 @081   ----------------------------------------
Label_0100BAF6:
 .byte   N12 ,Fs1 ,v096
 .byte   N06 ,An3
 .byte   W06
 .byte   An3 ,v064
 .byte   W06
 .byte   N12 ,Cn1 ,v096
 .byte   N12 ,Fs1
 .byte   N06 ,An3 ,v064
 .byte   W06
 .byte   N06
 .byte   W06
 .byte   N12 ,As1 ,v096
 .byte   N06 ,An3
 .byte   W06
 .byte   An3 ,v064
 .byte   W06
 .byte   Fs1 ,v096
 .byte   N06 ,An3 ,v064
 .byte   W06
 .byte   Cn1 ,v096
 .byte   N06 ,An3 ,v064
 .byte   W06
 .byte   N12 ,Dn1 ,v096
 .byte   N12 ,Fs1
 .byte   N06 ,An3
 .byte   W06
 .byte   An3 ,v064
 .byte   W06
 .byte   N12 ,Cn1 ,v096
 .byte   N12 ,Fs1
 .byte   N06 ,An3 ,v064
 .byte   W06
 .byte   N06
 .byte   W06
 .byte   N12 ,As1 ,v096
 .byte   N06 ,An3
 .byte   W06
 .byte   An3 ,v064
 .byte   W06
 .byte   N12 ,Cn1 ,v096
 .byte   N12 ,Dn1
 .byte   N12 ,Fs1
 .byte   N06 ,An3 ,v064
 .byte   W06
 .byte   N06
 .byte   W06
 .byte   PEND 
@  #07 @082   ----------------------------------------
Label_0100BB4C:
 .byte   N12 ,Cn1 ,v096
 .byte   N12 ,Fs1
 .byte   N06 ,An3
 .byte   W06
 .byte   An3 ,v064
 .byte   W06
 .byte   N12 ,Cn1 ,v096
 .byte   N12 ,Fs1
 .byte   N06 ,An3 ,v064
 .byte   W06
 .byte   N06
 .byte   W06
 .byte   N12 ,As1 ,v096
 .byte   N06 ,An3
 .byte   W06
 .byte   An3 ,v064
 .byte   W06
 .byte   Cn1 ,v096
 .byte   N06 ,Fs1
 .byte   N06 ,An3 ,v064
 .byte   W06
 .byte   Cn1 ,v096
 .byte   N06 ,An3 ,v064
 .byte   W06
 .byte   N12 ,Dn1 ,v096
 .byte   N12 ,Fs1
 .byte   N06 ,An3
 .byte   W06
 .byte   An3 ,v064
 .byte   W06
 .byte   N12 ,Fs1 ,v096
 .byte   N06 ,An3 ,v064
 .byte   W06
 .byte   N06
 .byte   W06
 .byte   N12 ,Cn1 ,v096
 .byte   N12 ,As1
 .byte   N06 ,An3
 .byte   W06
 .byte   An3 ,v064
 .byte   W06
 .byte   Dn1 ,v096
 .byte   N06 ,Fs1
 .byte   N06 ,An3 ,v064
 .byte   W06
 .byte   Dn1 ,v096
 .byte   N06 ,An3 ,v064
 .byte   W06
 .byte   PEND 
@  #07 @083   ----------------------------------------
Label_0100BBA7:
 .byte   N12 ,Fs1 ,v096
 .byte   N06 ,An3
 .byte   W06
 .byte   An3 ,v064
 .byte   W06
 .byte   N12 ,Cn1 ,v096
 .byte   N12 ,Fs1
 .byte   N06 ,An3 ,v064
 .byte   W06
 .byte   N06
 .byte   W06
 .byte   N12 ,As1 ,v096
 .byte   N06 ,An3
 .byte   W06
 .byte   An3 ,v064
 .byte   W06
 .byte   Fs1 ,v096
 .byte   N06 ,An3 ,v064
 .byte   W06
 .byte   Cn1 ,v096
 .byte   N06 ,An3 ,v064
 .byte   W06
 .byte   N12 ,Dn1 ,v096
 .byte   N12 ,Fs1
 .byte   N06 ,An3
 .byte   W06
 .byte   An3 ,v064
 .byte   W06
 .byte   N12 ,Cn1 ,v096
 .byte   N12 ,Fs1
 .byte   N06 ,An3 ,v064
 .byte   W06
 .byte   N06
 .byte   W06
 .byte   N12 ,As1 ,v096
 .byte   N06 ,An3
 .byte   W06
 .byte   An3 ,v064
 .byte   W06
 .byte   Cn1 ,v096
 .byte   N06 ,Dn1
 .byte   N06 ,Fs1
 .byte   N06 ,An3 ,v064
 .byte   W06
 .byte   Cn1 ,v096
 .byte   N06 ,An3 ,v064
 .byte   W06
 .byte   PEND 
@  #07 @084   ----------------------------------------
Label_0100BC00:
 .byte   VOL , 50*song04_mvl/mxv
 .byte   N12 ,Cn1 ,v096
 .byte   N12 ,Fs1
 .byte   N06 ,An3
 .byte   W06
 .byte   An3 ,v064
 .byte   W06
 .byte   N12 ,Cn1 ,v096
 .byte   N12 ,Fs1
 .byte   N06 ,An3 ,v064
 .byte   W06
 .byte   N06
 .byte   W06
 .byte   N12 ,Cn1 ,v096
 .byte   N12 ,As1
 .byte   N06 ,An3
 .byte   W06
 .byte   An3 ,v064
 .byte   W06
 .byte   Cn1 ,v096
 .byte   N06 ,Fs1
 .byte   N06 ,An3 ,v064
 .byte   W06
 .byte   Cn1 ,v096
 .byte   N06 ,An3 ,v064
 .byte   W06
 .byte   N12 ,Dn1 ,v096
 .byte   N12 ,Fs1
 .byte   N06 ,An3
 .byte   W06
 .byte   An3 ,v064
 .byte   W06
 .byte   N12 ,Fs1 ,v096
 .byte   N06 ,An3 ,v064
 .byte   W06
 .byte   N06
 .byte   W06
 .byte   N12 ,Cn1 ,v096
 .byte   N12 ,As1
 .byte   N06 ,An3
 .byte   W06
 .byte   An3 ,v064
 .byte   W06
 .byte   Dn1 ,v096
 .byte   N06 ,Fs1
 .byte   N06 ,An3 ,v064
 .byte   W06
 .byte   Dn1 ,v096
 .byte   N06 ,An3 ,v064
 .byte   W06
 .byte   PEND 
@  #07 @085   ----------------------------------------
 .byte   PATT
  .word Label_0100BAF6
@  #07 @086   ----------------------------------------
 .byte   PATT
  .word Label_0100BB4C
@  #07 @087   ----------------------------------------
 .byte   PATT
  .word Label_0100BBA7
@  #07 @088   ----------------------------------------
Label_0100BC6E:
 .byte   N12 ,Cn1 ,v096
 .byte   N12 ,An2
 .byte   W12
 .byte   Cn1
 .byte   W12
 .byte   N24 ,As1
 .byte   W24
 .byte   En1
 .byte   N24 ,As1
 .byte   W24
 .byte   N24
 .byte   W24
 .byte   PEND 
@  #07 @089   ----------------------------------------
Label_0100BC80:
 .byte   N12 ,Cn1 ,v096
 .byte   N12 ,As1
 .byte   W12
 .byte   Cn1
 .byte   W12
 .byte   N24 ,As1
 .byte   W24
 .byte   En1
 .byte   N24 ,As1
 .byte   W24
 .byte   N12
 .byte   W12
 .byte   Cn1 ,v080
 .byte   W12
 .byte   PEND 
@  #07 @090   ----------------------------------------
 .byte   PATT
  .word Label_0100BC80
@  #07 @091   ----------------------------------------
 .byte   PATT
  .word Label_0100BC80
@  #07 @092   ----------------------------------------
 .byte   PATT
  .word Label_0100BC6E
@  #07 @093   ----------------------------------------
 .byte   PATT
  .word Label_0100BC80
@  #07 @094   ----------------------------------------
 .byte   PATT
  .word Label_0100BC80
@  #07 @095   ----------------------------------------
 .byte   PATT
  .word Label_0100BC80
@  #07 @096   ----------------------------------------
 .byte   PATT
  .word Label_0100BC6E
@  #07 @097   ----------------------------------------
 .byte   PATT
  .word Label_0100BC80
@  #07 @098   ----------------------------------------
 .byte   PATT
  .word Label_0100BC80
@  #07 @099   ----------------------------------------
 .byte   PATT
  .word Label_0100BC80
@  #07 @100   ----------------------------------------
 .byte   PATT
  .word Label_0100BC6E
@  #07 @101   ----------------------------------------
 .byte   PATT
  .word Label_0100BC80
@  #07 @102   ----------------------------------------
 .byte   PATT
  .word Label_0100BC80
@  #07 @103   ----------------------------------------
Label_0100BCD6:
 .byte   N48 ,Cn1 ,v096
 .byte   N48 ,As1
 .byte   W48
 .byte   En1
 .byte   W48
 .byte   PEND 
@  #07 @104   ----------------------------------------
 .byte   PATT
  .word Label_0100BC6E
@  #07 @105   ----------------------------------------
 .byte   PATT
  .word Label_0100B593
@  #07 @106   ----------------------------------------
 .byte   PATT
  .word Label_0100B593
@  #07 @107   ----------------------------------------
 .byte   PATT
  .word Label_0100B593
@  #07 @108   ----------------------------------------
 .byte   PATT
  .word Label_0100B5B1
@  #07 @109   ----------------------------------------
 .byte   PATT
  .word Label_0100B593
@  #07 @110   ----------------------------------------
 .byte   PATT
  .word Label_0100B593
@  #07 @111   ----------------------------------------
 .byte   PATT
  .word Label_0100B593
@  #07 @112   ----------------------------------------
 .byte   PATT
  .word Label_0100B5D2
@  #07 @113   ----------------------------------------
 .byte   PATT
  .word Label_0100B5FB
@  #07 @114   ----------------------------------------
 .byte   PATT
  .word Label_0100B5FB
@  #07 @115   ----------------------------------------
 .byte   PATT
  .word Label_0100B5FB
@  #07 @116   ----------------------------------------
 .byte   PATT
  .word Label_0100B62E
@  #07 @117   ----------------------------------------
 .byte   PATT
  .word Label_0100B667
@  #07 @118   ----------------------------------------
 .byte   PATT
  .word Label_0100B6A2
@  #07 @119   ----------------------------------------
 .byte   W72
 .byte   N24 ,Cn1 ,v096
 .byte   W24
@  #07 @120   ----------------------------------------
 .byte   PATT
  .word Label_0100B6AF
@  #07 @121   ----------------------------------------
 .byte   PATT
  .word Label_0100B6CE
@  #07 @122   ----------------------------------------
 .byte   PATT
  .word Label_0100B6CE
@  #07 @123   ----------------------------------------
 .byte   PATT
  .word Label_0100B6CE
@  #07 @124   ----------------------------------------
 .byte   PATT
  .word Label_0100B6AF
@  #07 @125   ----------------------------------------
 .byte   PATT
  .word Label_0100B6CE
@  #07 @126   ----------------------------------------
 .byte   PATT
  .word Label_0100B6CE
@  #07 @127   ----------------------------------------
 .byte   PATT
  .word Label_0100B6CE
@  #07 @128   ----------------------------------------
 .byte   PATT
  .word Label_0100B6AF
@  #07 @129   ----------------------------------------
 .byte   PATT
  .word Label_0100B6CE
@  #07 @130   ----------------------------------------
 .byte   PATT
  .word Label_0100B6CE
@  #07 @131   ----------------------------------------
 .byte   PATT
  .word Label_0100B6CE
@  #07 @132   ----------------------------------------
 .byte   PATT
  .word Label_0100B6AF
@  #07 @133   ----------------------------------------
 .byte   PATT
  .word Label_0100B6CE
@  #07 @134   ----------------------------------------
 .byte   PATT
  .word Label_0100B6CE
@  #07 @135   ----------------------------------------
 .byte   PATT
  .word Label_0100B6CE
@  #07 @136   ----------------------------------------
 .byte   PATT
  .word Label_0100B6AF
@  #07 @137   ----------------------------------------
 .byte   PATT
  .word Label_0100B6CE
@  #07 @138   ----------------------------------------
 .byte   PATT
  .word Label_0100B6CE
@  #07 @139   ----------------------------------------
 .byte   PATT
  .word Label_0100B6CE
@  #07 @140   ----------------------------------------
 .byte   PATT
  .word Label_0100B6AF
@  #07 @141   ----------------------------------------
 .byte   PATT
  .word Label_0100B6CE
@  #07 @142   ----------------------------------------
 .byte   PATT
  .word Label_0100B6CE
@  #07 @143   ----------------------------------------
 .byte   PATT
  .word Label_0100B6CE
@  #07 @144   ----------------------------------------
 .byte   PATT
  .word Label_0100B6AF
@  #07 @145   ----------------------------------------
 .byte   PATT
  .word Label_0100B6CE
@  #07 @146   ----------------------------------------
 .byte   PATT
  .word Label_0100B6CE
@  #07 @147   ----------------------------------------
 .byte   PATT
  .word Label_0100B6CE
@  #07 @148   ----------------------------------------
 .byte   PATT
  .word Label_0100B6AF
@  #07 @149   ----------------------------------------
 .byte   PATT
  .word Label_0100B6CE
@  #07 @150   ----------------------------------------
 .byte   PATT
  .word Label_0100B6CE
@  #07 @151   ----------------------------------------
 .byte   PATT
  .word Label_0100B6CE
@  #07 @152   ----------------------------------------
 .byte   PATT
  .word Label_0100B783
@  #07 @153   ----------------------------------------
 .byte   PATT
  .word Label_0100B7DC
@  #07 @154   ----------------------------------------
 .byte   PATT
  .word Label_0100B82E
@  #07 @155   ----------------------------------------
 .byte   PATT
  .word Label_0100B7DC
@  #07 @156   ----------------------------------------
 .byte   PATT
  .word Label_0100B783
@  #07 @157   ----------------------------------------
 .byte   PATT
  .word Label_0100B7DC
@  #07 @158   ----------------------------------------
 .byte   PATT
  .word Label_0100B82E
@  #07 @159   ----------------------------------------
 .byte   PATT
  .word Label_0100B7DC
@  #07 @160   ----------------------------------------
 .byte   PATT
  .word Label_0100B783
@  #07 @161   ----------------------------------------
 .byte   PATT
  .word Label_0100B7DC
@  #07 @162   ----------------------------------------
 .byte   PATT
  .word Label_0100B82E
@  #07 @163   ----------------------------------------
 .byte   PATT
  .word Label_0100B7DC
@  #07 @164   ----------------------------------------
 .byte   PATT
  .word Label_0100B8B2
@  #07 @165   ----------------------------------------
 .byte   PATT
  .word Label_0100B8D3
@  #07 @166   ----------------------------------------
 .byte   PATT
  .word Label_0100B8B2
@  #07 @167   ----------------------------------------
 .byte   PATT
  .word Label_0100B8F5
@  #07 @168   ----------------------------------------
 .byte   PATT
  .word Label_0100B90B
@  #07 @169   ----------------------------------------
 .byte   PATT
  .word Label_0100B962
@  #07 @170   ----------------------------------------
 .byte   PATT
  .word Label_0100B9B1
@  #07 @171   ----------------------------------------
 .byte   PATT
  .word Label_0100B962
@  #07 @172   ----------------------------------------
 .byte   PATT
  .word Label_0100BA09
@  #07 @173   ----------------------------------------
 .byte   PATT
  .word Label_0100B962
@  #07 @174   ----------------------------------------
 .byte   PATT
  .word Label_0100B9B1
@  #07 @175   ----------------------------------------
 .byte   PATT
  .word Label_0100B962
@  #07 @176   ----------------------------------------
 .byte   PATT
  .word Label_0100B90B
@  #07 @177   ----------------------------------------
 .byte   PATT
  .word Label_0100B962
@  #07 @178   ----------------------------------------
 .byte   PATT
  .word Label_0100B9B1
@  #07 @179   ----------------------------------------
 .byte   PATT
  .word Label_0100B962
@  #07 @180   ----------------------------------------
 .byte   PATT
  .word Label_0100BA09
@  #07 @181   ----------------------------------------
 .byte   PATT
  .word Label_0100B962
@  #07 @182   ----------------------------------------
 .byte   PATT
  .word Label_0100B9B1
@  #07 @183   ----------------------------------------
 .byte   PATT
  .word Label_0100B962
@  #07 @184   ----------------------------------------
 .byte   PATT
  .word Label_0100BA95
@  #07 @185   ----------------------------------------
 .byte   PATT
  .word Label_0100BAF6
@  #07 @186   ----------------------------------------
 .byte   PATT
  .word Label_0100BB4C
@  #07 @187   ----------------------------------------
 .byte   PATT
  .word Label_0100BBA7
@  #07 @188   ----------------------------------------
 .byte   PATT
  .word Label_0100BC00
@  #07 @189   ----------------------------------------
 .byte   PATT
  .word Label_0100BAF6
@  #07 @190   ----------------------------------------
 .byte   PATT
  .word Label_0100BB4C
@  #07 @191   ----------------------------------------
 .byte   PATT
  .word Label_0100BBA7
@  #07 @192   ----------------------------------------
 .byte   GOTO
  .word Label_0100BC6E
@  #07 @193   ----------------------------------------
 .byte   PATT
  .word Label_0100BC6E
@  #07 @194   ----------------------------------------
 .byte   PATT
  .word Label_0100BC80
@  #07 @195   ----------------------------------------
 .byte   PATT
  .word Label_0100BC80
@  #07 @196   ----------------------------------------
 .byte   PATT
  .word Label_0100BC80
@  #07 @197   ----------------------------------------
 .byte   PATT
  .word Label_0100BC6E
@  #07 @198   ----------------------------------------
 .byte   PATT
  .word Label_0100BC80
@  #07 @199   ----------------------------------------
 .byte   PATT
  .word Label_0100BC80
@  #07 @200   ----------------------------------------
 .byte   PATT
  .word Label_0100BC80
@  #07 @201   ----------------------------------------
 .byte   PATT
  .word Label_0100BC6E
@  #07 @202   ----------------------------------------
 .byte   PATT
  .word Label_0100BC80
@  #07 @203   ----------------------------------------
 .byte   PATT
  .word Label_0100BC80
@  #07 @204   ----------------------------------------
 .byte   PATT
  .word Label_0100BC80
@  #07 @205   ----------------------------------------
 .byte   PATT
  .word Label_0100BC6E
@  #07 @206   ----------------------------------------
 .byte   PATT
  .word Label_0100BC80
@  #07 @207   ----------------------------------------
 .byte   PATT
  .word Label_0100BC80
@  #07 @208   ----------------------------------------
 .byte   PATT
  .word Label_0100BCD6
 .byte   FINE

@**************** Track 8 (Midi-Chn.7) ****************@

song04_008:
@  #08 @000   ----------------------------------------
 .byte   KEYSH , song04_key+0
 .byte   VOICE , 60
 .byte   VOL , 44*song04_mvl/mxv
 .byte   PAN , c_v+0
 .byte   BEND , c_v+0
 .byte   W96
@  #08 @001   ----------------------------------------
 .byte   W96
@  #08 @002   ----------------------------------------
 .byte   W96
@  #08 @003   ----------------------------------------
 .byte   W96
@  #08 @004   ----------------------------------------
 .byte   W96
@  #08 @005   ----------------------------------------
 .byte   W96
@  #08 @006   ----------------------------------------
 .byte   W96
@  #08 @007   ----------------------------------------
 .byte   W96
@  #08 @008   ----------------------------------------
 .byte   W96
@  #08 @009   ----------------------------------------
 .byte   W96
@  #08 @010   ----------------------------------------
 .byte   W96
@  #08 @011   ----------------------------------------
 .byte   W96
@  #08 @012   ----------------------------------------
 .byte   W96
@  #08 @013   ----------------------------------------
 .byte   W96
@  #08 @014   ----------------------------------------
 .byte   W96
@  #08 @015   ----------------------------------------
 .byte   W96
@  #08 @016   ----------------------------------------
 .byte   W96
@  #08 @017   ----------------------------------------
 .byte   W96
@  #08 @018   ----------------------------------------
 .byte   W96
@  #08 @019   ----------------------------------------
 .byte   W96
@  #08 @020   ----------------------------------------
 .byte   W96
@  #08 @021   ----------------------------------------
 .byte   W96
@  #08 @022   ----------------------------------------
 .byte   W96
@  #08 @023   ----------------------------------------
 .byte   W96
@  #08 @024   ----------------------------------------
 .byte   W96
@  #08 @025   ----------------------------------------
 .byte   W96
@  #08 @026   ----------------------------------------
 .byte   W96
@  #08 @027   ----------------------------------------
 .byte   W96
@  #08 @028   ----------------------------------------
 .byte   W96
@  #08 @029   ----------------------------------------
 .byte   W96
@  #08 @030   ----------------------------------------
 .byte   W96
@  #08 @031   ----------------------------------------
 .byte   W96
@  #08 @032   ----------------------------------------
 .byte   W96
@  #08 @033   ----------------------------------------
 .byte   W96
@  #08 @034   ----------------------------------------
 .byte   W96
@  #08 @035   ----------------------------------------
 .byte   W96
@  #08 @036   ----------------------------------------
 .byte   W96
@  #08 @037   ----------------------------------------
 .byte   W96
@  #08 @038   ----------------------------------------
 .byte   W96
@  #08 @039   ----------------------------------------
 .byte   W96
@  #08 @040   ----------------------------------------
 .byte   W96
@  #08 @041   ----------------------------------------
 .byte   W96
@  #08 @042   ----------------------------------------
 .byte   W96
@  #08 @043   ----------------------------------------
 .byte   W96
@  #08 @044   ----------------------------------------
 .byte   TIE ,En2 ,v127
 .byte   W96
@  #08 @045   ----------------------------------------
 .byte   W96
@  #08 @046   ----------------------------------------
 .byte   EOT
Label_0100BF3C:
 .byte   TIE ,Dn2 ,v127
 .byte   W48
 .byte   Dn3 ,v096
 .byte   TIE ,Fs3
 .byte   W48
 .byte   PEND 
@  #08 @047   ----------------------------------------
 .byte   W96
@  #08 @048   ----------------------------------------
 .byte   EOT
 .byte   Dn2 ,v062
 .byte   Fs3
 .byte   W96
@  #08 @049   ----------------------------------------
 .byte   W96
@  #08 @050   ----------------------------------------
 .byte   W96
@  #08 @051   ----------------------------------------
 .byte   W96
@  #08 @052   ----------------------------------------
 .byte   W96
@  #08 @053   ----------------------------------------
 .byte   W96
@  #08 @054   ----------------------------------------
 .byte   W96
@  #08 @055   ----------------------------------------
 .byte   W96
@  #08 @056   ----------------------------------------
 .byte   W96
@  #08 @057   ----------------------------------------
 .byte   W96
@  #08 @058   ----------------------------------------
 .byte   W96
@  #08 @059   ----------------------------------------
 .byte   W96
@  #08 @060   ----------------------------------------
 .byte   W96
@  #08 @061   ----------------------------------------
 .byte   W96
@  #08 @062   ----------------------------------------
 .byte   W96
@  #08 @063   ----------------------------------------
 .byte   W96
@  #08 @064   ----------------------------------------
 .byte   W96
@  #08 @065   ----------------------------------------
 .byte   W96
@  #08 @066   ----------------------------------------
 .byte   W96
@  #08 @067   ----------------------------------------
 .byte   W96
@  #08 @068   ----------------------------------------
 .byte   W96
@  #08 @069   ----------------------------------------
 .byte   W96
@  #08 @070   ----------------------------------------
 .byte   W96
@  #08 @071   ----------------------------------------
Label_0100BF62:
 .byte   N48 ,Fs1 ,v096
 .byte   N48 ,Fs2
 .byte   W48
 .byte   As1
 .byte   N48 ,As2
 .byte   W48
 .byte   PEND 
@  #08 @072   ----------------------------------------
Label_0100BF6D:
 .byte   N48 ,Bn1 ,v096
 .byte   N48 ,Bn2
 .byte   W48
 .byte   Dn2
 .byte   N48 ,Dn3
 .byte   W48
 .byte   PEND 
@  #08 @073   ----------------------------------------
Label_0100BF78:
 .byte   N48 ,En2 ,v096
 .byte   N48 ,En3
 .byte   W48
 .byte   Bn1
 .byte   N48 ,Bn2
 .byte   W48
 .byte   PEND 
@  #08 @074   ----------------------------------------
Label_0100BF83:
 .byte   N48 ,An1 ,v096
 .byte   N48 ,An2
 .byte   W48
 .byte   N24
 .byte   N24 ,An3
 .byte   W24
 .byte   Gn2
 .byte   N24 ,Gn3
 .byte   W24
 .byte   PEND 
@  #08 @075   ----------------------------------------
Label_0100BF92:
 .byte   N48 ,Fs2 ,v096
 .byte   N48 ,Fs3
 .byte   W48
 .byte   N24 ,Dn3
 .byte   N24 ,Dn4
 .byte   W24
 .byte   Cs3
 .byte   N24 ,Cs4
 .byte   W24
 .byte   PEND 
@  #08 @076   ----------------------------------------
Label_0100BFA2:
 .byte   N72 ,Bn2 ,v096
 .byte   W72
 .byte   N12 ,Cs3
 .byte   W12
 .byte   Dn3
 .byte   W12
 .byte   PEND 
@  #08 @077   ----------------------------------------
Label_0100BFAC:
 .byte   N60 ,Dn3 ,v096
 .byte   W60
 .byte   N12 ,Bn2
 .byte   W12
 .byte   Cs3
 .byte   W12
 .byte   Dn3
 .byte   W12
 .byte   PEND 
@  #08 @078   ----------------------------------------
Label_0100BFB8:
 .byte   N12 ,Dn3 ,v096
 .byte   W12
 .byte   Cs3
 .byte   W12
 .byte   N72
 .byte   W72
 .byte   PEND 
@  #08 @079   ----------------------------------------
Label_0100BFC1:
 .byte   N12 ,Bn2 ,v096
 .byte   W12
 .byte   As2
 .byte   W12
 .byte   N72
 .byte   W72
 .byte   PEND 
@  #08 @080   ----------------------------------------
 .byte   PATT
  .word Label_0100BF6D
@  #08 @081   ----------------------------------------
 .byte   PATT
  .word Label_0100BF78
@  #08 @082   ----------------------------------------
 .byte   PATT
  .word Label_0100BF83
@  #08 @083   ----------------------------------------
 .byte   PATT
  .word Label_0100BF92
@  #08 @084   ----------------------------------------
 .byte   PATT
  .word Label_0100BFA2
@  #08 @085   ----------------------------------------
 .byte   PATT
  .word Label_0100BFAC
@  #08 @086   ----------------------------------------
 .byte   PATT
  .word Label_0100BFB8
@  #08 @087   ----------------------------------------
 .byte   PATT
  .word Label_0100BFC1
@  #08 @088   ----------------------------------------
Label_0100BFF2:
 .byte   W96
@  #08 @089   ----------------------------------------
 .byte   W96
@  #08 @090   ----------------------------------------
 .byte   W96
@  #08 @091   ----------------------------------------
 .byte   W96
@  #08 @092   ----------------------------------------
 .byte   W96
@  #08 @093   ----------------------------------------
 .byte   W96
@  #08 @094   ----------------------------------------
 .byte   W96
@  #08 @095   ----------------------------------------
 .byte   W96
@  #08 @096   ----------------------------------------
 .byte   W96
@  #08 @097   ----------------------------------------
 .byte   W96
@  #08 @098   ----------------------------------------
 .byte   W96
@  #08 @099   ----------------------------------------
 .byte   W96
@  #08 @100   ----------------------------------------
 .byte   W96
@  #08 @101   ----------------------------------------
 .byte   W96
@  #08 @102   ----------------------------------------
 .byte   W96
@  #08 @103   ----------------------------------------
 .byte   W96
@  #08 @104   ----------------------------------------
 .byte   W96
@  #08 @105   ----------------------------------------
 .byte   W96
@  #08 @106   ----------------------------------------
 .byte   W96
@  #08 @107   ----------------------------------------
 .byte   W96
@  #08 @108   ----------------------------------------
 .byte   W96
@  #08 @109   ----------------------------------------
 .byte   W96
@  #08 @110   ----------------------------------------
 .byte   W96
@  #08 @111   ----------------------------------------
 .byte   W96
@  #08 @112   ----------------------------------------
 .byte   W96
@  #08 @113   ----------------------------------------
 .byte   W96
@  #08 @114   ----------------------------------------
 .byte   W96
@  #08 @115   ----------------------------------------
 .byte   W96
@  #08 @116   ----------------------------------------
 .byte   W96
@  #08 @117   ----------------------------------------
 .byte   W96
@  #08 @118   ----------------------------------------
 .byte   W96
@  #08 @119   ----------------------------------------
 .byte   W96
@  #08 @120   ----------------------------------------
 .byte   W96
@  #08 @121   ----------------------------------------
 .byte   W96
@  #08 @122   ----------------------------------------
 .byte   W96
@  #08 @123   ----------------------------------------
 .byte   W96
@  #08 @124   ----------------------------------------
 .byte   W96
@  #08 @125   ----------------------------------------
 .byte   W96
@  #08 @126   ----------------------------------------
 .byte   W96
@  #08 @127   ----------------------------------------
 .byte   W96
@  #08 @128   ----------------------------------------
 .byte   W96
@  #08 @129   ----------------------------------------
 .byte   W96
@  #08 @130   ----------------------------------------
 .byte   W96
@  #08 @131   ----------------------------------------
 .byte   W96
@  #08 @132   ----------------------------------------
 .byte   W96
@  #08 @133   ----------------------------------------
 .byte   W96
@  #08 @134   ----------------------------------------
 .byte   W96
@  #08 @135   ----------------------------------------
 .byte   W96
@  #08 @136   ----------------------------------------
 .byte   W96
@  #08 @137   ----------------------------------------
 .byte   W96
@  #08 @138   ----------------------------------------
 .byte   W96
@  #08 @139   ----------------------------------------
 .byte   W96
@  #08 @140   ----------------------------------------
 .byte   W96
@  #08 @141   ----------------------------------------
 .byte   W96
@  #08 @142   ----------------------------------------
 .byte   W96
@  #08 @143   ----------------------------------------
 .byte   W96
@  #08 @144   ----------------------------------------
 .byte   W96
@  #08 @145   ----------------------------------------
 .byte   W96
@  #08 @146   ----------------------------------------
 .byte   W96
@  #08 @147   ----------------------------------------
 .byte   W96
@  #08 @148   ----------------------------------------
 .byte   TIE ,En2 ,v127
 .byte   W96
@  #08 @149   ----------------------------------------
 .byte   W96
@  #08 @150   ----------------------------------------
 .byte   EOT
@  #08 @151   ----------------------------------------
 .byte   PATT
  .word Label_0100BF3C
@  #08 @152   ----------------------------------------
 .byte   W96
@  #08 @153   ----------------------------------------
 .byte   EOT
 .byte   Dn2 ,v062
 .byte   Fs3
 .byte   W96
@  #08 @154   ----------------------------------------
 .byte   W96
@  #08 @155   ----------------------------------------
 .byte   W96
@  #08 @156   ----------------------------------------
 .byte   W96
@  #08 @157   ----------------------------------------
 .byte   W96
@  #08 @158   ----------------------------------------
 .byte   W96
@  #08 @159   ----------------------------------------
 .byte   W96
@  #08 @160   ----------------------------------------
 .byte   W96
@  #08 @161   ----------------------------------------
 .byte   W96
@  #08 @162   ----------------------------------------
 .byte   W96
@  #08 @163   ----------------------------------------
 .byte   W96
@  #08 @164   ----------------------------------------
 .byte   W96
@  #08 @165   ----------------------------------------
 .byte   W96
@  #08 @166   ----------------------------------------
 .byte   W96
@  #08 @167   ----------------------------------------
 .byte   W96
@  #08 @168   ----------------------------------------
 .byte   W96
@  #08 @169   ----------------------------------------
 .byte   W96
@  #08 @170   ----------------------------------------
 .byte   W96
@  #08 @171   ----------------------------------------
 .byte   W96
@  #08 @172   ----------------------------------------
 .byte   W96
@  #08 @173   ----------------------------------------
 .byte   W96
@  #08 @174   ----------------------------------------
 .byte   W96
@  #08 @175   ----------------------------------------
 .byte   W96
@  #08 @176   ----------------------------------------
 .byte   PATT
  .word Label_0100BF62
@  #08 @177   ----------------------------------------
 .byte   PATT
  .word Label_0100BF6D
@  #08 @178   ----------------------------------------
 .byte   PATT
  .word Label_0100BF78
@  #08 @179   ----------------------------------------
 .byte   PATT
  .word Label_0100BF83
@  #08 @180   ----------------------------------------
 .byte   PATT
  .word Label_0100BF92
@  #08 @181   ----------------------------------------
 .byte   PATT
  .word Label_0100BFA2
@  #08 @182   ----------------------------------------
 .byte   PATT
  .word Label_0100BFAC
@  #08 @183   ----------------------------------------
 .byte   PATT
  .word Label_0100BFB8
@  #08 @184   ----------------------------------------
 .byte   PATT
  .word Label_0100BFC1
@  #08 @185   ----------------------------------------
 .byte   PATT
  .word Label_0100BF6D
@  #08 @186   ----------------------------------------
 .byte   PATT
  .word Label_0100BF78
@  #08 @187   ----------------------------------------
 .byte   PATT
  .word Label_0100BF83
@  #08 @188   ----------------------------------------
 .byte   PATT
  .word Label_0100BF92
@  #08 @189   ----------------------------------------
 .byte   PATT
  .word Label_0100BFA2
@  #08 @190   ----------------------------------------
 .byte   PATT
  .word Label_0100BFAC
@  #08 @191   ----------------------------------------
 .byte   PATT
  .word Label_0100BFB8
@  #08 @192   ----------------------------------------
 .byte   PATT
  .word Label_0100BFC1
@  #08 @193   ----------------------------------------
 .byte   GOTO
  .word Label_0100BFF2
@  #08 @194   ----------------------------------------
 .byte   W96
@  #08 @195   ----------------------------------------
 .byte   W96
@  #08 @196   ----------------------------------------
 .byte   W96
@  #08 @197   ----------------------------------------
 .byte   W96
@  #08 @198   ----------------------------------------
 .byte   W96
@  #08 @199   ----------------------------------------
 .byte   W96
@  #08 @200   ----------------------------------------
 .byte   W96
@  #08 @201   ----------------------------------------
 .byte   W96
@  #08 @202   ----------------------------------------
 .byte   W96
@  #08 @203   ----------------------------------------
 .byte   W96
@  #08 @204   ----------------------------------------
 .byte   W96
@  #08 @205   ----------------------------------------
 .byte   W96
@  #08 @206   ----------------------------------------
 .byte   W96
@  #08 @207   ----------------------------------------
 .byte   W96
@  #08 @208   ----------------------------------------
 .byte   W96
@  #08 @209   ----------------------------------------
 .byte   W96
 .byte   FINE

@**************** Track 9 (Midi-Chn.8) ****************@

song04_009:
@  #09 @000   ----------------------------------------
 .byte   KEYSH , song04_key+0
 .byte   VOICE , 28
 .byte   VOL , 34*song04_mvl/mxv
 .byte   PAN , c_v+0
 .byte   BEND , c_v+0
 .byte   W96
@  #09 @001   ----------------------------------------
 .byte   W96
@  #09 @002   ----------------------------------------
 .byte   W96
@  #09 @003   ----------------------------------------
 .byte   W96
@  #09 @004   ----------------------------------------
 .byte   W96
@  #09 @005   ----------------------------------------
 .byte   W96
@  #09 @006   ----------------------------------------
 .byte   W96
@  #09 @007   ----------------------------------------
 .byte   W96
@  #09 @008   ----------------------------------------
 .byte   W96
@  #09 @009   ----------------------------------------
 .byte   W96
@  #09 @010   ----------------------------------------
 .byte   W96
@  #09 @011   ----------------------------------------
 .byte   W96
@  #09 @012   ----------------------------------------
 .byte   W96
@  #09 @013   ----------------------------------------
 .byte   W96
@  #09 @014   ----------------------------------------
 .byte   W96
@  #09 @015   ----------------------------------------
 .byte   W96
@  #09 @016   ----------------------------------------
 .byte   W96
@  #09 @017   ----------------------------------------
 .byte   W96
@  #09 @018   ----------------------------------------
 .byte   W96
@  #09 @019   ----------------------------------------
 .byte   W96
@  #09 @020   ----------------------------------------
 .byte   W96
@  #09 @021   ----------------------------------------
 .byte   W96
@  #09 @022   ----------------------------------------
 .byte   W96
@  #09 @023   ----------------------------------------
 .byte   W96
@  #09 @024   ----------------------------------------
 .byte   W96
@  #09 @025   ----------------------------------------
 .byte   W96
@  #09 @026   ----------------------------------------
 .byte   W96
@  #09 @027   ----------------------------------------
 .byte   W96
@  #09 @028   ----------------------------------------
 .byte   W96
@  #09 @029   ----------------------------------------
 .byte   W96
@  #09 @030   ----------------------------------------
 .byte   W96
@  #09 @031   ----------------------------------------
 .byte   W96
@  #09 @032   ----------------------------------------
 .byte   W96
@  #09 @033   ----------------------------------------
 .byte   W96
@  #09 @034   ----------------------------------------
 .byte   W96
@  #09 @035   ----------------------------------------
 .byte   W96
@  #09 @036   ----------------------------------------
 .byte   W96
@  #09 @037   ----------------------------------------
 .byte   W96
@  #09 @038   ----------------------------------------
 .byte   W96
@  #09 @039   ----------------------------------------
 .byte   W96
@  #09 @040   ----------------------------------------
 .byte   W96
@  #09 @041   ----------------------------------------
 .byte   W96
@  #09 @042   ----------------------------------------
 .byte   W96
@  #09 @043   ----------------------------------------
 .byte   W96
@  #09 @044   ----------------------------------------
 .byte   W96
@  #09 @045   ----------------------------------------
 .byte   W96
@  #09 @046   ----------------------------------------
 .byte   W96
@  #09 @047   ----------------------------------------
 .byte   W96
@  #09 @048   ----------------------------------------
Label_0100C10A:
 .byte   N96 ,Bn2 ,v096
 .byte   W24
 .byte   Dn3
 .byte   W24
 .byte   N60 ,Fs3
 .byte   W48
 .byte   PEND 
@  #09 @049   ----------------------------------------
Label_0100C114:
 .byte   N96 ,An2 ,v096
 .byte   W12
 .byte   N24 ,Fs3
 .byte   W12
 .byte   N96 ,Bn3
 .byte   W12
 .byte   N48 ,Fs3
 .byte   W12
 .byte   N96 ,Dn4
 .byte   W24
 .byte   N60 ,Dn3
 .byte   W12
 .byte   N24 ,Fs3
 .byte   W12
 .byte   PEND 
@  #09 @050   ----------------------------------------
Label_0100C12B:
 .byte   N96 ,Gn2 ,v096
 .byte   W12
 .byte   N60 ,Gn3
 .byte   W12
 .byte   N24 ,Bn3
 .byte   W12
 .byte   N96 ,Dn3
 .byte   W12
 .byte   N72 ,Bn3
 .byte   W24
 .byte   N36 ,Gn3
 .byte   W24
 .byte   PEND 
@  #09 @051   ----------------------------------------
Label_0100C13F:
 .byte   N96 ,Gn2 ,v096
 .byte   W12
 .byte   N60 ,Gn3
 .byte   W12
 .byte   N96 ,Bn3
 .byte   W12
 .byte   Dn3
 .byte   W12
 .byte   Dn4
 .byte   W24
 .byte   N48 ,Gn3
 .byte   W24
 .byte   PEND 
@  #09 @052   ----------------------------------------
Label_0100C151:
 .byte   N96 ,Bn2 ,v096
 .byte   W24
 .byte   N84 ,Fs3
 .byte   W12
 .byte   N48 ,Dn3
 .byte   W12
 .byte   N96 ,Dn4
 .byte   W12
 .byte   N60 ,Bn3
 .byte   W24
 .byte   N84 ,Dn3
 .byte   W12
 .byte   PEND 
@  #09 @053   ----------------------------------------
Label_0100C165:
 .byte   N96 ,An2 ,v096
 .byte   W12
 .byte   N24 ,Fs3
 .byte   W12
 .byte   Bn3
 .byte   W12
 .byte   N72 ,Fs3
 .byte   W12
 .byte   Bn3
 .byte   W24
 .byte   N60 ,Dn3
 .byte   W24
 .byte   PEND 
@  #09 @054   ----------------------------------------
 .byte   PATT
  .word Label_0100C12B
@  #09 @055   ----------------------------------------
 .byte   PATT
  .word Label_0100C13F
@  #09 @056   ----------------------------------------
 .byte   PATT
  .word Label_0100C151
@  #09 @057   ----------------------------------------
 .byte   PATT
  .word Label_0100C165
@  #09 @058   ----------------------------------------
 .byte   PATT
  .word Label_0100C12B
@  #09 @059   ----------------------------------------
Label_0100C190:
 .byte   N96 ,Gn2 ,v096
 .byte   W12
 .byte   N60 ,Gn3
 .byte   W12
 .byte   N96 ,Bn3
 .byte   W12
 .byte   TIE ,Dn3
 .byte   W12
 .byte   N96 ,Dn4
 .byte   W24
 .byte   Gn3
 .byte   W24
 .byte   PEND 
@  #09 @060   ----------------------------------------
 .byte   W48
 .byte   EOT
 .byte   Dn3
 .byte   W48
@  #09 @061   ----------------------------------------
 .byte   W96
@  #09 @062   ----------------------------------------
 .byte   W96
@  #09 @063   ----------------------------------------
 .byte   W96
@  #09 @064   ----------------------------------------
 .byte   W96
@  #09 @065   ----------------------------------------
 .byte   W96
@  #09 @066   ----------------------------------------
 .byte   W96
@  #09 @067   ----------------------------------------
 .byte   W96
@  #09 @068   ----------------------------------------
 .byte   W96
@  #09 @069   ----------------------------------------
 .byte   W96
@  #09 @070   ----------------------------------------
 .byte   W96
@  #09 @071   ----------------------------------------
 .byte   W96
@  #09 @072   ----------------------------------------
 .byte   W96
@  #09 @073   ----------------------------------------
 .byte   W96
@  #09 @074   ----------------------------------------
 .byte   W96
@  #09 @075   ----------------------------------------
 .byte   W96
@  #09 @076   ----------------------------------------
 .byte   W96
@  #09 @077   ----------------------------------------
 .byte   W96
@  #09 @078   ----------------------------------------
 .byte   W96
@  #09 @079   ----------------------------------------
 .byte   W96
@  #09 @080   ----------------------------------------
 .byte   W96
@  #09 @081   ----------------------------------------
 .byte   W96
@  #09 @082   ----------------------------------------
 .byte   W96
@  #09 @083   ----------------------------------------
 .byte   W96
@  #09 @084   ----------------------------------------
 .byte   W96
@  #09 @085   ----------------------------------------
 .byte   W96
@  #09 @086   ----------------------------------------
 .byte   W96
@  #09 @087   ----------------------------------------
 .byte   W96
@  #09 @088   ----------------------------------------
Label_0100C1C2:
 .byte   W96
@  #09 @089   ----------------------------------------
 .byte   W96
@  #09 @090   ----------------------------------------
 .byte   W96
@  #09 @091   ----------------------------------------
 .byte   W96
@  #09 @092   ----------------------------------------
 .byte   W96
@  #09 @093   ----------------------------------------
 .byte   W96
@  #09 @094   ----------------------------------------
 .byte   W96
@  #09 @095   ----------------------------------------
 .byte   W96
@  #09 @096   ----------------------------------------
 .byte   W96
@  #09 @097   ----------------------------------------
 .byte   W96
@  #09 @098   ----------------------------------------
 .byte   W96
@  #09 @099   ----------------------------------------
 .byte   W96
@  #09 @100   ----------------------------------------
 .byte   W96
@  #09 @101   ----------------------------------------
 .byte   W96
@  #09 @102   ----------------------------------------
 .byte   W96
@  #09 @103   ----------------------------------------
 .byte   W96
@  #09 @104   ----------------------------------------
 .byte   W96
@  #09 @105   ----------------------------------------
 .byte   W96
@  #09 @106   ----------------------------------------
 .byte   W96
@  #09 @107   ----------------------------------------
 .byte   W96
@  #09 @108   ----------------------------------------
 .byte   W96
@  #09 @109   ----------------------------------------
 .byte   W96
@  #09 @110   ----------------------------------------
 .byte   W96
@  #09 @111   ----------------------------------------
 .byte   W96
@  #09 @112   ----------------------------------------
 .byte   W96
@  #09 @113   ----------------------------------------
 .byte   W96
@  #09 @114   ----------------------------------------
 .byte   W96
@  #09 @115   ----------------------------------------
 .byte   W96
@  #09 @116   ----------------------------------------
 .byte   W96
@  #09 @117   ----------------------------------------
 .byte   W96
@  #09 @118   ----------------------------------------
 .byte   W96
@  #09 @119   ----------------------------------------
 .byte   W96
@  #09 @120   ----------------------------------------
 .byte   W96
@  #09 @121   ----------------------------------------
 .byte   W96
@  #09 @122   ----------------------------------------
 .byte   W96
@  #09 @123   ----------------------------------------
 .byte   W96
@  #09 @124   ----------------------------------------
 .byte   W96
@  #09 @125   ----------------------------------------
 .byte   W96
@  #09 @126   ----------------------------------------
 .byte   W96
@  #09 @127   ----------------------------------------
 .byte   W96
@  #09 @128   ----------------------------------------
 .byte   W96
@  #09 @129   ----------------------------------------
 .byte   W96
@  #09 @130   ----------------------------------------
 .byte   W96
@  #09 @131   ----------------------------------------
 .byte   W96
@  #09 @132   ----------------------------------------
 .byte   W96
@  #09 @133   ----------------------------------------
 .byte   W96
@  #09 @134   ----------------------------------------
 .byte   W96
@  #09 @135   ----------------------------------------
 .byte   W96
@  #09 @136   ----------------------------------------
 .byte   W96
@  #09 @137   ----------------------------------------
 .byte   W96
@  #09 @138   ----------------------------------------
 .byte   W96
@  #09 @139   ----------------------------------------
 .byte   W96
@  #09 @140   ----------------------------------------
 .byte   W96
@  #09 @141   ----------------------------------------
 .byte   W96
@  #09 @142   ----------------------------------------
 .byte   W96
@  #09 @143   ----------------------------------------
 .byte   W96
@  #09 @144   ----------------------------------------
 .byte   W96
@  #09 @145   ----------------------------------------
 .byte   W96
@  #09 @146   ----------------------------------------
 .byte   W96
@  #09 @147   ----------------------------------------
 .byte   W96
@  #09 @148   ----------------------------------------
 .byte   W96
@  #09 @149   ----------------------------------------
 .byte   W96
@  #09 @150   ----------------------------------------
 .byte   W96
@  #09 @151   ----------------------------------------
 .byte   W96
@  #09 @152   ----------------------------------------
 .byte   PATT
  .word Label_0100C10A
@  #09 @153   ----------------------------------------
 .byte   PATT
  .word Label_0100C114
@  #09 @154   ----------------------------------------
 .byte   PATT
  .word Label_0100C12B
@  #09 @155   ----------------------------------------
 .byte   PATT
  .word Label_0100C13F
@  #09 @156   ----------------------------------------
 .byte   PATT
  .word Label_0100C151
@  #09 @157   ----------------------------------------
 .byte   PATT
  .word Label_0100C165
@  #09 @158   ----------------------------------------
 .byte   PATT
  .word Label_0100C12B
@  #09 @159   ----------------------------------------
 .byte   PATT
  .word Label_0100C13F
@  #09 @160   ----------------------------------------
 .byte   PATT
  .word Label_0100C151
@  #09 @161   ----------------------------------------
 .byte   PATT
  .word Label_0100C165
@  #09 @162   ----------------------------------------
 .byte   PATT
  .word Label_0100C12B
@  #09 @163   ----------------------------------------
 .byte   PATT
  .word Label_0100C190
@  #09 @164   ----------------------------------------
 .byte   W48
 .byte   EOT
 .byte   Dn3
 .byte   W48
@  #09 @165   ----------------------------------------
 .byte   W96
@  #09 @166   ----------------------------------------
 .byte   W96
@  #09 @167   ----------------------------------------
 .byte   W96
@  #09 @168   ----------------------------------------
 .byte   W96
@  #09 @169   ----------------------------------------
 .byte   W96
@  #09 @170   ----------------------------------------
 .byte   W96
@  #09 @171   ----------------------------------------
 .byte   W96
@  #09 @172   ----------------------------------------
 .byte   W96
@  #09 @173   ----------------------------------------
 .byte   W96
@  #09 @174   ----------------------------------------
 .byte   W96
@  #09 @175   ----------------------------------------
 .byte   W96
@  #09 @176   ----------------------------------------
 .byte   W96
@  #09 @177   ----------------------------------------
 .byte   W96
@  #09 @178   ----------------------------------------
 .byte   W96
@  #09 @179   ----------------------------------------
 .byte   W96
@  #09 @180   ----------------------------------------
 .byte   W96
@  #09 @181   ----------------------------------------
 .byte   W96
@  #09 @182   ----------------------------------------
 .byte   W96
@  #09 @183   ----------------------------------------
 .byte   W96
@  #09 @184   ----------------------------------------
 .byte   W96
@  #09 @185   ----------------------------------------
 .byte   W96
@  #09 @186   ----------------------------------------
 .byte   W96
@  #09 @187   ----------------------------------------
 .byte   W96
@  #09 @188   ----------------------------------------
 .byte   W96
@  #09 @189   ----------------------------------------
 .byte   W96
@  #09 @190   ----------------------------------------
 .byte   W96
@  #09 @191   ----------------------------------------
 .byte   W96
@  #09 @192   ----------------------------------------
 .byte   GOTO
  .word Label_0100C1C2
@  #09 @193   ----------------------------------------
 .byte   W96
@  #09 @194   ----------------------------------------
 .byte   W96
@  #09 @195   ----------------------------------------
 .byte   W96
@  #09 @196   ----------------------------------------
 .byte   W96
@  #09 @197   ----------------------------------------
 .byte   W96
@  #09 @198   ----------------------------------------
 .byte   W96
@  #09 @199   ----------------------------------------
 .byte   W96
@  #09 @200   ----------------------------------------
 .byte   W96
@  #09 @201   ----------------------------------------
 .byte   W96
@  #09 @202   ----------------------------------------
 .byte   W96
@  #09 @203   ----------------------------------------
 .byte   W96
@  #09 @204   ----------------------------------------
 .byte   W96
@  #09 @205   ----------------------------------------
 .byte   W96
@  #09 @206   ----------------------------------------
 .byte   W96
@  #09 @207   ----------------------------------------
 .byte   W96
@  #09 @208   ----------------------------------------
 .byte   W96
 .byte   FINE

@**************** Track 10 (Midi-Chn.9) ****************@

song04_010:
@  #10 @000   ----------------------------------------
 .byte   KEYSH , song04_key+0
 .byte   VOICE , 52
 .byte   VOL , 50*song04_mvl/mxv
 .byte   PAN , c_v+0
 .byte   BEND , c_v+0
 .byte   W96
@  #10 @001   ----------------------------------------
 .byte   W96
@  #10 @002   ----------------------------------------
 .byte   W96
@  #10 @003   ----------------------------------------
 .byte   W96
@  #10 @004   ----------------------------------------
 .byte   W96
@  #10 @005   ----------------------------------------
 .byte   W96
@  #10 @006   ----------------------------------------
 .byte   W96
@  #10 @007   ----------------------------------------
 .byte   W96
@  #10 @008   ----------------------------------------
 .byte   W96
@  #10 @009   ----------------------------------------
 .byte   W96
@  #10 @010   ----------------------------------------
 .byte   W96
@  #10 @011   ----------------------------------------
 .byte   W96
@  #10 @012   ----------------------------------------
 .byte   W96
@  #10 @013   ----------------------------------------
 .byte   W96
@  #10 @014   ----------------------------------------
 .byte   W96
@  #10 @015   ----------------------------------------
 .byte   W96
@  #10 @016   ----------------------------------------
 .byte   W96
@  #10 @017   ----------------------------------------
 .byte   W96
@  #10 @018   ----------------------------------------
 .byte   W96
@  #10 @019   ----------------------------------------
 .byte   W96
@  #10 @020   ----------------------------------------
 .byte   W96
@  #10 @021   ----------------------------------------
 .byte   W96
@  #10 @022   ----------------------------------------
 .byte   W96
@  #10 @023   ----------------------------------------
 .byte   W96
@  #10 @024   ----------------------------------------
 .byte   W96
@  #10 @025   ----------------------------------------
 .byte   W96
@  #10 @026   ----------------------------------------
 .byte   W96
@  #10 @027   ----------------------------------------
 .byte   W96
@  #10 @028   ----------------------------------------
 .byte   W96
@  #10 @029   ----------------------------------------
 .byte   W96
@  #10 @030   ----------------------------------------
 .byte   W96
@  #10 @031   ----------------------------------------
 .byte   W96
@  #10 @032   ----------------------------------------
 .byte   W96
@  #10 @033   ----------------------------------------
 .byte   W96
@  #10 @034   ----------------------------------------
 .byte   W96
@  #10 @035   ----------------------------------------
 .byte   W96
@  #10 @036   ----------------------------------------
 .byte   W96
@  #10 @037   ----------------------------------------
 .byte   W96
@  #10 @038   ----------------------------------------
 .byte   W96
@  #10 @039   ----------------------------------------
 .byte   W96
@  #10 @040   ----------------------------------------
 .byte   W96
@  #10 @041   ----------------------------------------
 .byte   W96
@  #10 @042   ----------------------------------------
 .byte   W96
@  #10 @043   ----------------------------------------
 .byte   W96
@  #10 @044   ----------------------------------------
 .byte   W96
@  #10 @045   ----------------------------------------
 .byte   W96
@  #10 @046   ----------------------------------------
 .byte   W96
@  #10 @047   ----------------------------------------
 .byte   W96
@  #10 @048   ----------------------------------------
 .byte   W96
@  #10 @049   ----------------------------------------
 .byte   W96
@  #10 @050   ----------------------------------------
 .byte   W96
@  #10 @051   ----------------------------------------
 .byte   W96
@  #10 @052   ----------------------------------------
 .byte   W96
@  #10 @053   ----------------------------------------
 .byte   W96
@  #10 @054   ----------------------------------------
 .byte   W96
@  #10 @055   ----------------------------------------
 .byte   W96
@  #10 @056   ----------------------------------------
 .byte   W96
@  #10 @057   ----------------------------------------
 .byte   W96
@  #10 @058   ----------------------------------------
 .byte   W96
@  #10 @059   ----------------------------------------
 .byte   W96
@  #10 @060   ----------------------------------------
 .byte   W96
@  #10 @061   ----------------------------------------
 .byte   W96
@  #10 @062   ----------------------------------------
 .byte   W96
@  #10 @063   ----------------------------------------
 .byte   W96
@  #10 @064   ----------------------------------------
Label_0100C2CE:
 .byte   N84 ,Dn4 ,v112
 .byte   W84
 .byte   N12 ,Fs3
 .byte   W12
 .byte   PEND 
@  #10 @065   ----------------------------------------
Label_0100C2D6:
 .byte   N24 ,Gn3 ,v112
 .byte   W36
 .byte   N12 ,Fs4
 .byte   W12
 .byte   En4
 .byte   W12
 .byte   Dn4
 .byte   W12
 .byte   Cs4
 .byte   W12
 .byte   Dn4
 .byte   W12
 .byte   PEND 
@  #10 @066   ----------------------------------------
Label_0100C2E6:
 .byte   N84 ,Cs4 ,v112
 .byte   W84
 .byte   N12 ,En3
 .byte   W12
 .byte   PEND 
@  #10 @067   ----------------------------------------
Label_0100C2EE:
 .byte   N24 ,Fs3 ,v112
 .byte   W36
 .byte   N12 ,En4
 .byte   W12
 .byte   Dn4
 .byte   W12
 .byte   Cs4
 .byte   W12
 .byte   Bn3
 .byte   W12
 .byte   Cs4
 .byte   W12
 .byte   PEND 
@  #10 @068   ----------------------------------------
Label_0100C2FE:
 .byte   N72 ,Bn3 ,v112
 .byte   W72
 .byte   N12 ,Cs4
 .byte   W12
 .byte   Dn4
 .byte   W12
 .byte   PEND 
@  #10 @069   ----------------------------------------
Label_0100C308:
 .byte   N60 ,Dn4 ,v112
 .byte   W60
 .byte   N12 ,Bn3
 .byte   W12
 .byte   Cs4
 .byte   W12
 .byte   Dn4
 .byte   W12
 .byte   PEND 
@  #10 @070   ----------------------------------------
Label_0100C314:
 .byte   N12 ,Dn4 ,v112
 .byte   W12
 .byte   Cs4
 .byte   W12
 .byte   N72
 .byte   W72
 .byte   PEND 
@  #10 @071   ----------------------------------------
Label_0100C31D:
 .byte   N12 ,Bn3 ,v112
 .byte   W12
 .byte   As3
 .byte   W12
 .byte   N72
 .byte   W72
 .byte   PEND 
@  #10 @072   ----------------------------------------
 .byte   PATT
  .word Label_0100C2CE
@  #10 @073   ----------------------------------------
 .byte   PATT
  .word Label_0100C2D6
@  #10 @074   ----------------------------------------
Label_0100C330:
 .byte   N84 ,Cs4 ,v112
 .byte   W84
 .byte   N12 ,An4
 .byte   W12
 .byte   PEND 
@  #10 @075   ----------------------------------------
Label_0100C338:
 .byte   N12 ,Gn4 ,v112
 .byte   W12
 .byte   Fs4
 .byte   W12
 .byte   En4
 .byte   W12
 .byte   Dn4
 .byte   W12
 .byte   Cs4
 .byte   W12
 .byte   Dn4
 .byte   W12
 .byte   En4
 .byte   W12
 .byte   Fs4
 .byte   W12
 .byte   PEND 
@  #10 @076   ----------------------------------------
 .byte   PATT
  .word Label_0100C2FE
@  #10 @077   ----------------------------------------
 .byte   PATT
  .word Label_0100C308
@  #10 @078   ----------------------------------------
 .byte   PATT
  .word Label_0100C314
@  #10 @079   ----------------------------------------
 .byte   PATT
  .word Label_0100C31D
@  #10 @080   ----------------------------------------
 .byte   PATT
  .word Label_0100C2CE
@  #10 @081   ----------------------------------------
 .byte   PATT
  .word Label_0100C2D6
@  #10 @082   ----------------------------------------
 .byte   PATT
  .word Label_0100C330
@  #10 @083   ----------------------------------------
 .byte   PATT
  .word Label_0100C338
@  #10 @084   ----------------------------------------
 .byte   PATT
  .word Label_0100C2FE
@  #10 @085   ----------------------------------------
 .byte   PATT
  .word Label_0100C308
@  #10 @086   ----------------------------------------
 .byte   PATT
  .word Label_0100C314
@  #10 @087   ----------------------------------------
 .byte   PATT
  .word Label_0100C31D
@  #10 @088   ----------------------------------------
Label_0100C387:
 .byte   TIE ,Bn3 ,v096
 .byte   W96
@  #10 @089   ----------------------------------------
 .byte   W96
@  #10 @090   ----------------------------------------
 .byte   W48
 .byte   EOT
 .byte   W48
@  #10 @091   ----------------------------------------
 .byte   W96
@  #10 @092   ----------------------------------------
 .byte   W96
@  #10 @093   ----------------------------------------
 .byte   W96
@  #10 @094   ----------------------------------------
 .byte   W96
@  #10 @095   ----------------------------------------
 .byte   W96
@  #10 @096   ----------------------------------------
 .byte   W96
@  #10 @097   ----------------------------------------
 .byte   W96
@  #10 @098   ----------------------------------------
 .byte   W96
@  #10 @099   ----------------------------------------
 .byte   W96
@  #10 @100   ----------------------------------------
 .byte   W96
@  #10 @101   ----------------------------------------
 .byte   W96
@  #10 @102   ----------------------------------------
 .byte   W96
@  #10 @103   ----------------------------------------
 .byte   W96
@  #10 @104   ----------------------------------------
 .byte   W96
@  #10 @105   ----------------------------------------
 .byte   W96
@  #10 @106   ----------------------------------------
 .byte   W96
@  #10 @107   ----------------------------------------
 .byte   W96
@  #10 @108   ----------------------------------------
 .byte   W96
@  #10 @109   ----------------------------------------
 .byte   W96
@  #10 @110   ----------------------------------------
 .byte   W96
@  #10 @111   ----------------------------------------
 .byte   W96
@  #10 @112   ----------------------------------------
 .byte   W96
@  #10 @113   ----------------------------------------
 .byte   W96
@  #10 @114   ----------------------------------------
 .byte   W96
@  #10 @115   ----------------------------------------
 .byte   W96
@  #10 @116   ----------------------------------------
 .byte   W96
@  #10 @117   ----------------------------------------
 .byte   W96
@  #10 @118   ----------------------------------------
 .byte   W96
@  #10 @119   ----------------------------------------
 .byte   W96
@  #10 @120   ----------------------------------------
 .byte   W96
@  #10 @121   ----------------------------------------
 .byte   W96
@  #10 @122   ----------------------------------------
 .byte   W96
@  #10 @123   ----------------------------------------
 .byte   W96
@  #10 @124   ----------------------------------------
 .byte   W96
@  #10 @125   ----------------------------------------
 .byte   W96
@  #10 @126   ----------------------------------------
 .byte   W96
@  #10 @127   ----------------------------------------
 .byte   W96
@  #10 @128   ----------------------------------------
 .byte   W96
@  #10 @129   ----------------------------------------
 .byte   W96
@  #10 @130   ----------------------------------------
 .byte   W96
@  #10 @131   ----------------------------------------
 .byte   W96
@  #10 @132   ----------------------------------------
 .byte   W96
@  #10 @133   ----------------------------------------
 .byte   W96
@  #10 @134   ----------------------------------------
 .byte   W96
@  #10 @135   ----------------------------------------
 .byte   W96
@  #10 @136   ----------------------------------------
 .byte   W96
@  #10 @137   ----------------------------------------
 .byte   W96
@  #10 @138   ----------------------------------------
 .byte   W96
@  #10 @139   ----------------------------------------
 .byte   W96
@  #10 @140   ----------------------------------------
 .byte   W96
@  #10 @141   ----------------------------------------
 .byte   W96
@  #10 @142   ----------------------------------------
 .byte   W96
@  #10 @143   ----------------------------------------
 .byte   W96
@  #10 @144   ----------------------------------------
 .byte   W96
@  #10 @145   ----------------------------------------
 .byte   W96
@  #10 @146   ----------------------------------------
 .byte   W96
@  #10 @147   ----------------------------------------
 .byte   W96
@  #10 @148   ----------------------------------------
 .byte   W96
@  #10 @149   ----------------------------------------
 .byte   W96
@  #10 @150   ----------------------------------------
 .byte   W96
@  #10 @151   ----------------------------------------
 .byte   W96
@  #10 @152   ----------------------------------------
 .byte   W96
@  #10 @153   ----------------------------------------
 .byte   W96
@  #10 @154   ----------------------------------------
 .byte   W96
@  #10 @155   ----------------------------------------
 .byte   W96
@  #10 @156   ----------------------------------------
 .byte   W96
@  #10 @157   ----------------------------------------
 .byte   W96
@  #10 @158   ----------------------------------------
 .byte   W96
@  #10 @159   ----------------------------------------
 .byte   W96
@  #10 @160   ----------------------------------------
 .byte   W96
@  #10 @161   ----------------------------------------
 .byte   W96
@  #10 @162   ----------------------------------------
 .byte   W96
@  #10 @163   ----------------------------------------
 .byte   W96
@  #10 @164   ----------------------------------------
 .byte   W96
@  #10 @165   ----------------------------------------
 .byte   W96
@  #10 @166   ----------------------------------------
 .byte   W96
@  #10 @167   ----------------------------------------
 .byte   W96
@  #10 @168   ----------------------------------------
 .byte   PATT
  .word Label_0100C2CE
@  #10 @169   ----------------------------------------
 .byte   PATT
  .word Label_0100C2D6
@  #10 @170   ----------------------------------------
 .byte   PATT
  .word Label_0100C2E6
@  #10 @171   ----------------------------------------
 .byte   PATT
  .word Label_0100C2EE
@  #10 @172   ----------------------------------------
 .byte   PATT
  .word Label_0100C2FE
@  #10 @173   ----------------------------------------
 .byte   PATT
  .word Label_0100C308
@  #10 @174   ----------------------------------------
 .byte   PATT
  .word Label_0100C314
@  #10 @175   ----------------------------------------
 .byte   PATT
  .word Label_0100C31D
@  #10 @176   ----------------------------------------
 .byte   PATT
  .word Label_0100C2CE
@  #10 @177   ----------------------------------------
 .byte   PATT
  .word Label_0100C2D6
@  #10 @178   ----------------------------------------
 .byte   PATT
  .word Label_0100C330
@  #10 @179   ----------------------------------------
 .byte   PATT
  .word Label_0100C338
@  #10 @180   ----------------------------------------
 .byte   PATT
  .word Label_0100C2FE
@  #10 @181   ----------------------------------------
 .byte   PATT
  .word Label_0100C308
@  #10 @182   ----------------------------------------
 .byte   PATT
  .word Label_0100C314
@  #10 @183   ----------------------------------------
 .byte   PATT
  .word Label_0100C31D
@  #10 @184   ----------------------------------------
 .byte   PATT
  .word Label_0100C2CE
@  #10 @185   ----------------------------------------
 .byte   PATT
  .word Label_0100C2D6
@  #10 @186   ----------------------------------------
 .byte   PATT
  .word Label_0100C330
@  #10 @187   ----------------------------------------
 .byte   PATT
  .word Label_0100C338
@  #10 @188   ----------------------------------------
 .byte   PATT
  .word Label_0100C2FE
@  #10 @189   ----------------------------------------
 .byte   PATT
  .word Label_0100C308
@  #10 @190   ----------------------------------------
 .byte   PATT
  .word Label_0100C314
@  #10 @191   ----------------------------------------
 .byte   PATT
  .word Label_0100C31D
@  #10 @192   ----------------------------------------
 .byte   GOTO
  .word Label_0100C387
@  #10 @193   ----------------------------------------
 .byte   TIE ,Bn3 ,v096
 .byte   W96
@  #10 @194   ----------------------------------------
 .byte   W96
@  #10 @195   ----------------------------------------
 .byte   W48
 .byte   EOT
 .byte   W48
@  #10 @196   ----------------------------------------
 .byte   W96
@  #10 @197   ----------------------------------------
 .byte   W96
@  #10 @198   ----------------------------------------
 .byte   W96
@  #10 @199   ----------------------------------------
 .byte   W96
@  #10 @200   ----------------------------------------
 .byte   W96
@  #10 @201   ----------------------------------------
 .byte   W96
@  #10 @202   ----------------------------------------
 .byte   W96
@  #10 @203   ----------------------------------------
 .byte   W96
@  #10 @204   ----------------------------------------
 .byte   W96
@  #10 @205   ----------------------------------------
 .byte   W96
@  #10 @206   ----------------------------------------
 .byte   W96
@  #10 @207   ----------------------------------------
 .byte   W96
@  #10 @208   ----------------------------------------
 .byte   W96
 .byte   FINE

@******************************************************@
	.align	2

song04:
	.byte	10	@ NumTrks
	.byte	0	@ NumBlks
	.byte	song04_pri	@ Priority
	.byte	song04_rev	@ Reverb.
    
	.word	song04_grp
    
	.word	song04_001
	.word	song04_002
	.word	song04_003
	.word	song04_004
	.word	song04_005
	.word	song04_006
	.word	song04_007
	.word	song04_008
	.word	song04_009
	.word	song04_010

	.end
