	.include "MPlayDef.s"

	.equ	song04_grp, voicegroup000
	.equ	song04_pri, 0
	.equ	song04_rev, 0
	.equ	song04_mvl, 127
	.equ	song04_key, 0
	.equ	song04_tbs, 1
	.equ	song04_exg, 0
	.equ	song04_cmp, 1

	.section .rodata
	.global	song04
	.align	2


@**************** Track 1 (Midi-Chn.0) ****************@

song04_001:
@  #01 @000   ----------------------------------------
 .byte   KEYSH , song04_key+0
Label_014C8B5E:
 .byte   TEMPO , 90*song04_tbs/2
 .byte   VOICE , 19
 .byte   VOL , 15*song04_mvl/mxv
 .byte   TIE ,Cn2 ,v096
 .byte   TIE ,Cn3
 .byte   TIE ,Ds3
 .byte   TIE ,Gn3
 .byte   W96
@  #01 @001   ----------------------------------------
 .byte   W96
@  #01 @002   ----------------------------------------
 .byte   EOT
 .byte   Cn2 ,v060
 .byte   Ds3 ,v067
Label_014C8B74:
 .byte   TIE ,Cn2 ,v096
 .byte   TIE ,Cn3
 .byte   TIE ,Ds3
 .byte   TIE ,Gn3
 .byte   W96
 .byte   PEND 
@  #01 @003   ----------------------------------------
 .byte   W96
@  #01 @004   ----------------------------------------
 .byte   EOT
 .byte   Cn2 ,v060
 .byte   Ds3 ,v067
Label_014C8B85:
 .byte   TIE ,As1 ,v096
 .byte   TIE ,As2
 .byte   TIE ,Fn3
 .byte   W96
 .byte   PEND 
@  #01 @005   ----------------------------------------
 .byte   W96
@  #01 @006   ----------------------------------------
 .byte   EOT
 .byte   As1 ,v058
 .byte   Fn3
@  #01 @007   ----------------------------------------
 .byte   PATT
  .word Label_014C8B74
@  #01 @008   ----------------------------------------
 .byte   W96
@  #01 @009   ----------------------------------------
 .byte   EOT
 .byte   Cn2 ,v060
 .byte   Ds3 ,v067
@  #01 @010   ----------------------------------------
 .byte   PATT
  .word Label_014C8B74
@  #01 @011   ----------------------------------------
 .byte   W96
@  #01 @012   ----------------------------------------
 .byte   EOT
 .byte   Cn2 ,v060
 .byte   Ds3 ,v067
@  #01 @013   ----------------------------------------
 .byte   PATT
  .word Label_014C8B74
@  #01 @014   ----------------------------------------
 .byte   W96
@  #01 @015   ----------------------------------------
 .byte   EOT
 .byte   Cn2 ,v060
 .byte   Ds3 ,v067
@  #01 @016   ----------------------------------------
 .byte   PATT
  .word Label_014C8B85
@  #01 @017   ----------------------------------------
 .byte   W96
@  #01 @018   ----------------------------------------
 .byte   EOT
 .byte   As1 ,v058
 .byte   Fn3
@  #01 @019   ----------------------------------------
 .byte   PATT
  .word Label_014C8B74
@  #01 @020   ----------------------------------------
 .byte   W96
@  #01 @021   ----------------------------------------
 .byte   EOT
 .byte   Cn2 ,v060
 .byte   Ds3 ,v067
 .byte   W96
@  #01 @022   ----------------------------------------
 .byte   W96
@  #01 @023   ----------------------------------------
 .byte   W96
@  #01 @024   ----------------------------------------
 .byte   W96
@  #01 @025   ----------------------------------------
 .byte   W96
@  #01 @026   ----------------------------------------
 .byte   W96
@  #01 @027   ----------------------------------------
 .byte   W96
@  #01 @028   ----------------------------------------
 .byte   W96
@  #01 @029   ----------------------------------------
 .byte   PATT
  .word Label_014C8B74
@  #01 @030   ----------------------------------------
 .byte   W96
@  #01 @031   ----------------------------------------
 .byte   EOT
 .byte   Cn2 ,v060
 .byte   Ds3 ,v067
@  #01 @032   ----------------------------------------
 .byte   PATT
  .word Label_014C8B74
@  #01 @033   ----------------------------------------
 .byte   W96
@  #01 @034   ----------------------------------------
 .byte   EOT
 .byte   Cn2 ,v060
 .byte   Ds3 ,v067
@  #01 @035   ----------------------------------------
 .byte   PATT
  .word Label_014C8B74
@  #01 @036   ----------------------------------------
 .byte   W96
@  #01 @037   ----------------------------------------
 .byte   EOT
 .byte   Cn2 ,v060
 .byte   Ds3 ,v067
@  #01 @038   ----------------------------------------
 .byte   PATT
  .word Label_014C8B74
@  #01 @039   ----------------------------------------
 .byte   W96
@  #01 @040   ----------------------------------------
 .byte   EOT
 .byte   Cn2 ,v060
 .byte   Ds3 ,v067
 .byte   W96
@  #01 @041   ----------------------------------------
 .byte   TEMPO , 90*song04_tbs/2
 .byte   VOL , 15*song04_mvl/mxv
 .byte   N78 ,Cn2 ,v127
 .byte   N78 ,Fn2 ,v100
 .byte   N78 ,As2
 .byte   N78 ,Cn3
 .byte   N78 ,Ds3 ,v124
 .byte   N78 ,Fn3 ,v100
 .byte   W96
@  #01 @042   ----------------------------------------
 .byte   N15 ,Cs2 ,v127
 .byte   N15 ,Fs2 ,v100
 .byte   N15 ,Bn2
 .byte   N15 ,Cs3
 .byte   N15 ,En3 ,v124
 .byte   N15 ,Fs3 ,v100
 .byte   W24
 .byte   N78 ,Cn2 ,v127
 .byte   N78 ,Fn2 ,v100
 .byte   N78 ,As2
 .byte   N78 ,Cn3
 .byte   N78 ,Ds3 ,v124
 .byte   N78 ,Fn3 ,v100
 .byte   W72
@  #01 @043   ----------------------------------------
 .byte   W48
 .byte   Cn2 ,v127
 .byte   N78 ,Fn2 ,v100
 .byte   N78 ,As2
 .byte   N78 ,Cn3
 .byte   N78 ,Ds3 ,v124
 .byte   N78 ,Fn3 ,v100
 .byte   W48
@  #01 @044   ----------------------------------------
 .byte   W48
 .byte   N15 ,Cs2 ,v127
 .byte   N15 ,Fs2 ,v100
 .byte   N15 ,Bn2
 .byte   N15 ,Cs3
 .byte   N15 ,En3 ,v124
 .byte   N15 ,Fs3 ,v100
 .byte   W24
 .byte   N78 ,Cn2 ,v127
 .byte   N78 ,Fn2 ,v100
 .byte   N78 ,As2
 .byte   N78 ,Cn3
 .byte   N78 ,Ds3 ,v124
 .byte   N78 ,Fn3 ,v100
 .byte   W24
@  #01 @045   ----------------------------------------
 .byte   W96
@  #01 @046   ----------------------------------------
 .byte   TEMPO , 90*song04_tbs/2
 .byte   TIE ,Cn2 ,v096
 .byte   TIE ,Cn3
 .byte   TIE ,Ds3
 .byte   TIE ,Gn3
 .byte   W04
 .byte   GOTO
  .word Label_014C8B5E
@  #01 @047   ----------------------------------------
 .byte   W92
 .byte   W96
@  #01 @048   ----------------------------------------
 .byte   EOT
 .byte   Cn2 ,v060
 .byte   Ds3 ,v067
@  #01 @049   ----------------------------------------
 .byte   PATT
  .word Label_014C8B74
@  #01 @050   ----------------------------------------
 .byte   W96
@  #01 @051   ----------------------------------------
 .byte   EOT
 .byte   Cn2 ,v060
 .byte   Ds3 ,v067
@  #01 @052   ----------------------------------------
 .byte   PATT
  .word Label_014C8B85
@  #01 @053   ----------------------------------------
 .byte   W96
@  #01 @054   ----------------------------------------
 .byte   EOT
 .byte   As1 ,v058
 .byte   Fn3
@  #01 @055   ----------------------------------------
 .byte   PATT
  .word Label_014C8B74
@  #01 @056   ----------------------------------------
 .byte   W96
@  #01 @057   ----------------------------------------
 .byte   EOT
 .byte   Cn2 ,v060
 .byte   Ds3 ,v067
@  #01 @058   ----------------------------------------
 .byte   PATT
  .word Label_014C8B74
@  #01 @059   ----------------------------------------
 .byte   W96
@  #01 @060   ----------------------------------------
 .byte   EOT
 .byte   Cn2 ,v060
 .byte   Ds3 ,v067
@  #01 @061   ----------------------------------------
 .byte   PATT
  .word Label_014C8B74
@  #01 @062   ----------------------------------------
 .byte   W96
@  #01 @063   ----------------------------------------
 .byte   EOT
 .byte   Cn2 ,v060
 .byte   Ds3 ,v067
@  #01 @064   ----------------------------------------
 .byte   PATT
  .word Label_014C8B85
@  #01 @065   ----------------------------------------
 .byte   W96
@  #01 @066   ----------------------------------------
 .byte   EOT
 .byte   As1 ,v058
 .byte   Fn3
@  #01 @067   ----------------------------------------
 .byte   PATT
  .word Label_014C8B74
@  #01 @068   ----------------------------------------
 .byte   W96
@  #01 @069   ----------------------------------------
 .byte   EOT
 .byte   Cn2 ,v060
 .byte   Ds3 ,v067
 .byte   W96
@  #01 @070   ----------------------------------------
 .byte   W96
@  #01 @071   ----------------------------------------
 .byte   W96
@  #01 @072   ----------------------------------------
 .byte   W96
@  #01 @073   ----------------------------------------
 .byte   W96
@  #01 @074   ----------------------------------------
 .byte   W96
@  #01 @075   ----------------------------------------
 .byte   W96
@  #01 @076   ----------------------------------------
 .byte   W96
@  #01 @077   ----------------------------------------
 .byte   PATT
  .word Label_014C8B74
@  #01 @078   ----------------------------------------
 .byte   W96
@  #01 @079   ----------------------------------------
 .byte   EOT
 .byte   Cn2 ,v060
 .byte   Ds3 ,v067
@  #01 @080   ----------------------------------------
 .byte   PATT
  .word Label_014C8B74
@  #01 @081   ----------------------------------------
 .byte   W96
@  #01 @082   ----------------------------------------
 .byte   EOT
 .byte   Cn2 ,v060
 .byte   Ds3 ,v067
@  #01 @083   ----------------------------------------
 .byte   PATT
  .word Label_014C8B74
@  #01 @084   ----------------------------------------
 .byte   W96
@  #01 @085   ----------------------------------------
 .byte   EOT
 .byte   Cn2 ,v060
 .byte   Ds3 ,v067
@  #01 @086   ----------------------------------------
 .byte   PATT
  .word Label_014C8B74
@  #01 @087   ----------------------------------------
 .byte   W96
@  #01 @088   ----------------------------------------
 .byte   EOT
 .byte   Cn2 ,v060
 .byte   Ds3 ,v067
 .byte   W96
@  #01 @089   ----------------------------------------
 .byte   TEMPO , 90*song04_tbs/2
 .byte   VOL , 15*song04_mvl/mxv
 .byte   FINE

@**************** Track 2 (Midi-Chn.1) ****************@

song04_002:
@  #02 @000   ----------------------------------------
 .byte   KEYSH , song04_key+0
Label_014C8E8E:
 .byte   VOICE , 19
 .byte   PAN , c_v+24
 .byte   VOL , 16*song04_mvl/mxv
 .byte   N10 ,Fn3 ,v072
 .byte   N10 ,Cn4 ,v096
 .byte   W12
 .byte   Ds3 ,v072
 .byte   N10 ,As3 ,v096
 .byte   W12
 .byte   Fn3 ,v072
 .byte   N10 ,Cn4 ,v096
 .byte   W12
 .byte   Ds3 ,v072
 .byte   N10 ,As3 ,v096
 .byte   W12
 .byte   Fn3 ,v072
 .byte   N10 ,Cn4 ,v096
 .byte   W12
 .byte   Ds3 ,v072
 .byte   N10 ,As3 ,v096
 .byte   W12
 .byte   Fn3 ,v072
 .byte   N10 ,Cn4 ,v096
 .byte   W12
 .byte   Ds3 ,v072
 .byte   N10 ,As3 ,v096
 .byte   W12
@  #02 @001   ----------------------------------------
Label_014C8EC5:
 .byte   N10 ,Fn3 ,v072
 .byte   N10 ,Cn4 ,v096
 .byte   W12
 .byte   Ds3 ,v072
 .byte   N10 ,As3 ,v096
 .byte   W12
 .byte   Fn3 ,v072
 .byte   N10 ,Cn4 ,v096
 .byte   W12
 .byte   Ds3 ,v072
 .byte   N10 ,As3 ,v096
 .byte   W12
 .byte   Fn3 ,v072
 .byte   N10 ,Cn4 ,v096
 .byte   W12
 .byte   Ds3 ,v072
 .byte   N10 ,As3 ,v096
 .byte   W12
 .byte   Fn3 ,v072
 .byte   N10 ,Cn4 ,v096
 .byte   W12
 .byte   Ds3 ,v072
 .byte   N10 ,As3 ,v096
 .byte   W12
 .byte   PEND 
@  #02 @002   ----------------------------------------
 .byte   PATT
  .word Label_014C8EC5
@  #02 @003   ----------------------------------------
 .byte   PATT
  .word Label_014C8EC5
@  #02 @004   ----------------------------------------
Label_014C8F01:
 .byte   N10 ,As3 ,v096
 .byte   N10 ,Ds4
 .byte   W12
 .byte   Gs3
 .byte   N10 ,Cs4
 .byte   W12
 .byte   As3
 .byte   N10 ,Ds4
 .byte   W12
 .byte   Gs3
 .byte   N10 ,Cs4
 .byte   W12
 .byte   As3
 .byte   N10 ,Ds4
 .byte   W12
 .byte   Gs3
 .byte   N10 ,Cs4
 .byte   W12
 .byte   As3
 .byte   N10 ,Ds4
 .byte   W12
 .byte   Gs3
 .byte   N10 ,Cs4
 .byte   W12
 .byte   PEND 
@  #02 @005   ----------------------------------------
 .byte   PATT
  .word Label_014C8F01
@  #02 @006   ----------------------------------------
 .byte   PATT
  .word Label_014C8EC5
@  #02 @007   ----------------------------------------
 .byte   PATT
  .word Label_014C8EC5
@  #02 @008   ----------------------------------------
 .byte   PATT
  .word Label_014C8EC5
@  #02 @009   ----------------------------------------
 .byte   PATT
  .word Label_014C8EC5
@  #02 @010   ----------------------------------------
 .byte   PATT
  .word Label_014C8EC5
@  #02 @011   ----------------------------------------
 .byte   PATT
  .word Label_014C8EC5
@  #02 @012   ----------------------------------------
 .byte   PATT
  .word Label_014C8F01
@  #02 @013   ----------------------------------------
 .byte   PATT
  .word Label_014C8F01
@  #02 @014   ----------------------------------------
 .byte   PATT
  .word Label_014C8EC5
@  #02 @015   ----------------------------------------
 .byte   PATT
  .word Label_014C8EC5
@  #02 @016   ----------------------------------------
 .byte   W96
@  #02 @017   ----------------------------------------
 .byte   W96
@  #02 @018   ----------------------------------------
 .byte   W96
@  #02 @019   ----------------------------------------
 .byte   W96
@  #02 @020   ----------------------------------------
 .byte   W96
@  #02 @021   ----------------------------------------
 .byte   W96
@  #02 @022   ----------------------------------------
 .byte   W96
@  #02 @023   ----------------------------------------
 .byte   W96
@  #02 @024   ----------------------------------------
 .byte   PATT
  .word Label_014C8EC5
@  #02 @025   ----------------------------------------
 .byte   PATT
  .word Label_014C8EC5
@  #02 @026   ----------------------------------------
 .byte   PATT
  .word Label_014C8EC5
@  #02 @027   ----------------------------------------
 .byte   PATT
  .word Label_014C8EC5
@  #02 @028   ----------------------------------------
 .byte   PATT
  .word Label_014C8EC5
@  #02 @029   ----------------------------------------
 .byte   PATT
  .word Label_014C8EC5
@  #02 @030   ----------------------------------------
 .byte   PATT
  .word Label_014C8EC5
@  #02 @031   ----------------------------------------
 .byte   PATT
  .word Label_014C8EC5
@  #02 @032   ----------------------------------------
 .byte   W96
@  #02 @033   ----------------------------------------
 .byte   W96
@  #02 @034   ----------------------------------------
 .byte   W96
@  #02 @035   ----------------------------------------
 .byte   W96
@  #02 @036   ----------------------------------------
 .byte   W96
@  #02 @037   ----------------------------------------
 .byte   W96
@  #02 @038   ----------------------------------------
 .byte   VOL , 16*song04_mvl/mxv
 .byte   N10 ,Fn3 ,v072
 .byte   N10 ,Cn4 ,v096
 .byte   W04
 .byte   GOTO
  .word Label_014C8E8E
@  #02 @039   ----------------------------------------
 .byte   W08
 .byte   N10 ,Ds3 ,v072
 .byte   N10 ,As3 ,v096
 .byte   W12
 .byte   Fn3 ,v072
 .byte   N10 ,Cn4 ,v096
 .byte   W12
 .byte   Ds3 ,v072
 .byte   N10 ,As3 ,v096
 .byte   W12
 .byte   Fn3 ,v072
 .byte   N10 ,Cn4 ,v096
 .byte   W12
 .byte   Ds3 ,v072
 .byte   N10 ,As3 ,v096
 .byte   W12
 .byte   Fn3 ,v072
 .byte   N10 ,Cn4 ,v096
 .byte   W12
 .byte   Ds3 ,v072
 .byte   N10 ,As3 ,v096
 .byte   W12
@  #02 @040   ----------------------------------------
 .byte   PATT
  .word Label_014C8EC5
@  #02 @041   ----------------------------------------
 .byte   PATT
  .word Label_014C8EC5
@  #02 @042   ----------------------------------------
 .byte   PATT
  .word Label_014C8EC5
@  #02 @043   ----------------------------------------
 .byte   PATT
  .word Label_014C8F01
@  #02 @044   ----------------------------------------
 .byte   PATT
  .word Label_014C8F01
@  #02 @045   ----------------------------------------
 .byte   PATT
  .word Label_014C8EC5
@  #02 @046   ----------------------------------------
 .byte   PATT
  .word Label_014C8EC5
@  #02 @047   ----------------------------------------
 .byte   PATT
  .word Label_014C8EC5
@  #02 @048   ----------------------------------------
 .byte   PATT
  .word Label_014C8EC5
@  #02 @049   ----------------------------------------
 .byte   PATT
  .word Label_014C8EC5
@  #02 @050   ----------------------------------------
 .byte   PATT
  .word Label_014C8EC5
@  #02 @051   ----------------------------------------
 .byte   PATT
  .word Label_014C8F01
@  #02 @052   ----------------------------------------
 .byte   PATT
  .word Label_014C8F01
@  #02 @053   ----------------------------------------
 .byte   PATT
  .word Label_014C8EC5
@  #02 @054   ----------------------------------------
 .byte   PATT
  .word Label_014C8EC5
@  #02 @055   ----------------------------------------
 .byte   W96
@  #02 @056   ----------------------------------------
 .byte   W96
@  #02 @057   ----------------------------------------
 .byte   W96
@  #02 @058   ----------------------------------------
 .byte   W96
@  #02 @059   ----------------------------------------
 .byte   W96
@  #02 @060   ----------------------------------------
 .byte   W96
@  #02 @061   ----------------------------------------
 .byte   W96
@  #02 @062   ----------------------------------------
 .byte   W96
@  #02 @063   ----------------------------------------
 .byte   PATT
  .word Label_014C8EC5
@  #02 @064   ----------------------------------------
 .byte   PATT
  .word Label_014C8EC5
@  #02 @065   ----------------------------------------
 .byte   PATT
  .word Label_014C8EC5
@  #02 @066   ----------------------------------------
 .byte   PATT
  .word Label_014C8EC5
@  #02 @067   ----------------------------------------
 .byte   PATT
  .word Label_014C8EC5
@  #02 @068   ----------------------------------------
 .byte   PATT
  .word Label_014C8EC5
@  #02 @069   ----------------------------------------
 .byte   PATT
  .word Label_014C8EC5
@  #02 @070   ----------------------------------------
 .byte   PATT
  .word Label_014C8EC5
@  #02 @071   ----------------------------------------
 .byte   W96
 .byte   FINE

@**************** Track 3 (Midi-Chn.2) ****************@

song04_003:
@  #03 @000   ----------------------------------------
 .byte   KEYSH , song04_key+0
Label_014CA716:
 .byte   VOICE , 52
 .byte   VOL , 32*song04_mvl/mxv
 .byte   PAN , c_v-18
 .byte   N24 ,Ds3 ,v096
 .byte   N24 ,Gn3
 .byte   W96
@  #03 @001   ----------------------------------------
 .byte   W96
@  #03 @002   ----------------------------------------
 .byte   Ds3
 .byte   N24 ,Gn3
 .byte   W96
@  #03 @003   ----------------------------------------
 .byte   W96
@  #03 @004   ----------------------------------------
 .byte   As2
 .byte   N24 ,Fn3
 .byte   W96
@  #03 @005   ----------------------------------------
 .byte   W96
@  #03 @006   ----------------------------------------
 .byte   Ds3
 .byte   N24 ,Gn3
 .byte   W96
@  #03 @007   ----------------------------------------
 .byte   W96
@  #03 @008   ----------------------------------------
Label_014CA732:
 .byte   PAN , c_v-24
 .byte   N24 ,Ds3 ,v096
 .byte   N24 ,Gn3
 .byte   W36
 .byte   W01
 .byte   PAN , c_v-24
 .byte   W01
 .byte   PAN , c_v-13
 .byte   W01
 .byte   PAN , c_v+8
 .byte   W01
 .byte   PAN , c_v+19
 .byte   W01
 .byte   PAN , c_v+30
 .byte   W01
 .byte   PAN , c_v+39
 .byte   W06
 .byte   N24 ,Fn4 ,v108
 .byte   W40
 .byte   PAN , c_v+39
 .byte   W01
 .byte   PAN , c_v+23
 .byte   W01
 .byte   PAN , c_v-8
 .byte   W01
 .byte   PAN , c_v-24
 .byte   W05
 .byte   PEND 
@  #03 @009   ----------------------------------------
Label_014CA756:
 .byte   PAN , c_v-24
 .byte   N24 ,Ds3 ,v096
 .byte   N24 ,Gn3
 .byte   W36
 .byte   W01
 .byte   PAN , c_v-24
 .byte   W01
 .byte   PAN , c_v-13
 .byte   W01
 .byte   PAN , c_v+9
 .byte   W01
 .byte   PAN , c_v+20
 .byte   W01
 .byte   PAN , c_v+31
 .byte   W01
 .byte   PAN , c_v+40
 .byte   W06
 .byte   N24 ,Fn4 ,v108
 .byte   W40
 .byte   PAN , c_v+40
 .byte   W01
 .byte   PAN , c_v+24
 .byte   W01
 .byte   PAN , c_v-8
 .byte   W01
 .byte   PAN , c_v-24
 .byte   W05
 .byte   PEND 
@  #03 @010   ----------------------------------------
 .byte   PATT
  .word Label_014CA732
@  #03 @011   ----------------------------------------
Label_014CA77F:
 .byte   PAN , c_v-24
 .byte   N24 ,Ds3 ,v096
 .byte   N24 ,Gn3
 .byte   W36
 .byte   W01
 .byte   PAN , c_v-24
 .byte   W01
 .byte   PAN , c_v-14
 .byte   W01
 .byte   PAN , c_v+7
 .byte   W01
 .byte   PAN , c_v+17
 .byte   W01
 .byte   PAN , c_v+27
 .byte   W01
 .byte   PAN , c_v+36
 .byte   W06
 .byte   N24 ,Fn4 ,v108
 .byte   W40
 .byte   PAN , c_v+36
 .byte   W01
 .byte   PAN , c_v+21
 .byte   W01
 .byte   PAN , c_v-9
 .byte   W01
 .byte   PAN , c_v-24
 .byte   W05
 .byte   PEND 
@  #03 @012   ----------------------------------------
Label_014CA7A3:
 .byte   PAN , c_v-24
 .byte   N24 ,Cs3 ,v096
 .byte   N24 ,Gs3
 .byte   W36
 .byte   W01
 .byte   PAN , c_v-24
 .byte   W01
 .byte   PAN , c_v-14
 .byte   W01
 .byte   PAN , c_v+7
 .byte   W01
 .byte   PAN , c_v+17
 .byte   W01
 .byte   PAN , c_v+27
 .byte   W01
 .byte   PAN , c_v+36
 .byte   W06
 .byte   N24 ,Fn4 ,v108
 .byte   W40
 .byte   PAN , c_v+36
 .byte   W01
 .byte   PAN , c_v+21
 .byte   W01
 .byte   PAN , c_v-9
 .byte   W01
 .byte   PAN , c_v-24
 .byte   W05
 .byte   PEND 
@  #03 @013   ----------------------------------------
Label_014CA7C7:
 .byte   PAN , c_v-24
 .byte   N24 ,Cs3 ,v096
 .byte   N24 ,Gs3
 .byte   W36
 .byte   W01
 .byte   PAN , c_v-24
 .byte   W01
 .byte   PAN , c_v-14
 .byte   W01
 .byte   PAN , c_v+7
 .byte   W01
 .byte   PAN , c_v+18
 .byte   W01
 .byte   PAN , c_v+28
 .byte   W01
 .byte   PAN , c_v+37
 .byte   W06
 .byte   N24 ,Fn4 ,v108
 .byte   W40
 .byte   PAN , c_v+37
 .byte   W01
 .byte   PAN , c_v+22
 .byte   W01
 .byte   PAN , c_v-9
 .byte   W01
 .byte   PAN , c_v-24
 .byte   W05
 .byte   PEND 
@  #03 @014   ----------------------------------------
Label_014CA7EB:
 .byte   PAN , c_v-24
 .byte   N24 ,Ds3 ,v096
 .byte   N24 ,Gn3
 .byte   W36
 .byte   W01
 .byte   PAN , c_v-24
 .byte   W01
 .byte   PAN , c_v-14
 .byte   W01
 .byte   PAN , c_v+6
 .byte   W01
 .byte   PAN , c_v+16
 .byte   W01
 .byte   PAN , c_v+26
 .byte   W01
 .byte   PAN , c_v+34
 .byte   W06
 .byte   N24 ,Fn4 ,v108
 .byte   W40
 .byte   PAN , c_v+34
 .byte   W01
 .byte   PAN , c_v+20
 .byte   W01
 .byte   PAN , c_v-9
 .byte   W01
 .byte   PAN , c_v-24
 .byte   W05
 .byte   PEND 
@  #03 @015   ----------------------------------------
 .byte   PATT
  .word Label_014CA7EB
@  #03 @016   ----------------------------------------
 .byte   W96
@  #03 @017   ----------------------------------------
 .byte   W96
@  #03 @018   ----------------------------------------
 .byte   W96
@  #03 @019   ----------------------------------------
 .byte   W96
@  #03 @020   ----------------------------------------
 .byte   W96
@  #03 @021   ----------------------------------------
 .byte   W96
@  #03 @022   ----------------------------------------
 .byte   W96
@  #03 @023   ----------------------------------------
 .byte   W96
@  #03 @024   ----------------------------------------
Label_014CA81C:
 .byte   PAN , c_v-18
 .byte   N24 ,Ds3 ,v096
 .byte   N24 ,Gn3
 .byte   W96
 .byte   PEND 
@  #03 @025   ----------------------------------------
 .byte   W96
@  #03 @026   ----------------------------------------
 .byte   Ds3
 .byte   N24 ,Gn3
 .byte   W96
@  #03 @027   ----------------------------------------
 .byte   W96
@  #03 @028   ----------------------------------------
 .byte   PATT
  .word Label_014CA732
@  #03 @029   ----------------------------------------
 .byte   PATT
  .word Label_014CA756
@  #03 @030   ----------------------------------------
 .byte   PATT
  .word Label_014CA732
@  #03 @031   ----------------------------------------
 .byte   PATT
  .word Label_014CA77F
@  #03 @032   ----------------------------------------
Label_014CA83F:
 .byte   N28 ,Cn2 ,v096
 .byte   N30 ,Cn4
 .byte   W36
 .byte   W01
 .byte   PAN , c_v-24
 .byte   W01
 .byte   PAN , c_v-13
 .byte   W01
 .byte   PAN , c_v+8
 .byte   W01
 .byte   PAN , c_v+19
 .byte   W01
 .byte   PAN , c_v+30
 .byte   W01
 .byte   PAN , c_v+39
 .byte   W06
 .byte   N24 ,Fn4 ,v104
 .byte   W40
 .byte   PAN , c_v+39
 .byte   W01
 .byte   PAN , c_v+23
 .byte   W01
 .byte   PAN , c_v-8
 .byte   W01
 .byte   PAN , c_v-24
 .byte   W05
 .byte   PEND 
@  #03 @033   ----------------------------------------
 .byte   W96
@  #03 @034   ----------------------------------------
 .byte   W96
@  #03 @035   ----------------------------------------
 .byte   W96
@  #03 @036   ----------------------------------------
 .byte   W96
@  #03 @037   ----------------------------------------
 .byte   W96
@  #03 @038   ----------------------------------------
 .byte   As1
 .byte   N24 ,Ds3 ,v096
 .byte   N24 ,Gn3
 .byte   W04
 .byte   GOTO
  .word Label_014CA716
@  #03 @039   ----------------------------------------
 .byte   W92
 .byte   W96
@  #03 @040   ----------------------------------------
 .byte   N24 ,Ds3 ,v096
 .byte   N24 ,Gn3
 .byte   W96
@  #03 @041   ----------------------------------------
 .byte   W96
@  #03 @042   ----------------------------------------
 .byte   As2
 .byte   N24 ,Fn3
 .byte   W96
@  #03 @043   ----------------------------------------
 .byte   W96
@  #03 @044   ----------------------------------------
 .byte   Ds3
 .byte   N24 ,Gn3
 .byte   W96
@  #03 @045   ----------------------------------------
 .byte   W96
@  #03 @046   ----------------------------------------
 .byte   PATT
  .word Label_014CA732
@  #03 @047   ----------------------------------------
 .byte   PATT
  .word Label_014CA756
@  #03 @048   ----------------------------------------
 .byte   PATT
  .word Label_014CA732
@  #03 @049   ----------------------------------------
 .byte   PATT
  .word Label_014CA77F
@  #03 @050   ----------------------------------------
 .byte   PATT
  .word Label_014CA7A3
@  #03 @051   ----------------------------------------
 .byte   PATT
  .word Label_014CA7C7
@  #03 @052   ----------------------------------------
 .byte   PATT
  .word Label_014CA7EB
@  #03 @053   ----------------------------------------
 .byte   PATT
  .word Label_014CA7EB
@  #03 @054   ----------------------------------------
 .byte   W96
@  #03 @055   ----------------------------------------
 .byte   W96
@  #03 @056   ----------------------------------------
 .byte   W96
@  #03 @057   ----------------------------------------
 .byte   W96
@  #03 @058   ----------------------------------------
 .byte   W96
@  #03 @059   ----------------------------------------
 .byte   W96
@  #03 @060   ----------------------------------------
 .byte   W96
@  #03 @061   ----------------------------------------
 .byte   W96
@  #03 @062   ----------------------------------------
 .byte   PATT
  .word Label_014CA81C
@  #03 @063   ----------------------------------------
 .byte   W96
@  #03 @064   ----------------------------------------
 .byte   N24 ,Ds3 ,v096
 .byte   N24 ,Gn3
 .byte   W96
@  #03 @065   ----------------------------------------
 .byte   W96
@  #03 @066   ----------------------------------------
 .byte   PATT
  .word Label_014CA732
@  #03 @067   ----------------------------------------
 .byte   PATT
  .word Label_014CA756
@  #03 @068   ----------------------------------------
 .byte   PATT
  .word Label_014CA732
@  #03 @069   ----------------------------------------
 .byte   PATT
  .word Label_014CA77F
@  #03 @070   ----------------------------------------
 .byte   PATT
  .word Label_014CA83F
 .byte   FINE

@**************** Track 4 (Midi-Chn.3) ****************@

song04_004:
@  #04 @000   ----------------------------------------
 .byte   KEYSH , song04_key+0
Label_014C85E2:
 .byte   VOICE , 48
 .byte   VOL , 17*song04_mvl/mxv
 .byte   TIE ,Cn1 ,v096
 .byte   W96
@  #04 @001   ----------------------------------------
 .byte   W96
@  #04 @002   ----------------------------------------
 .byte   EOT
 .byte   TIE
 .byte   W96
@  #04 @003   ----------------------------------------
 .byte   W96
@  #04 @004   ----------------------------------------
 .byte   EOT
 .byte   TIE ,As0
 .byte   W96
@  #04 @005   ----------------------------------------
 .byte   W96
@  #04 @006   ----------------------------------------
 .byte   EOT
 .byte   TIE ,Cn1
 .byte   W96
@  #04 @007   ----------------------------------------
 .byte   W96
@  #04 @008   ----------------------------------------
 .byte   EOT
 .byte   TIE
 .byte   W96
@  #04 @009   ----------------------------------------
 .byte   W96
@  #04 @010   ----------------------------------------
 .byte   EOT
 .byte   TIE
 .byte   W96
@  #04 @011   ----------------------------------------
 .byte   W96
@  #04 @012   ----------------------------------------
 .byte   EOT
 .byte   TIE ,As0
 .byte   W96
@  #04 @013   ----------------------------------------
 .byte   W96
@  #04 @014   ----------------------------------------
 .byte   EOT
 .byte   TIE ,Cn1
 .byte   W96
@  #04 @015   ----------------------------------------
 .byte   W96
@  #04 @016   ----------------------------------------
 .byte   EOT
Label_014C860C:
 .byte   VOL , 13*song04_mvl/mxv
 .byte   TIE ,Cn2 ,v096
 .byte   W96
 .byte   PEND 
@  #04 @017   ----------------------------------------
 .byte   W96
@  #04 @018   ----------------------------------------
 .byte   W96
@  #04 @019   ----------------------------------------
 .byte   W96
@  #04 @020   ----------------------------------------
 .byte   W96
@  #04 @021   ----------------------------------------
 .byte   W96
@  #04 @022   ----------------------------------------
 .byte   W96
@  #04 @023   ----------------------------------------
 .byte   W96
@  #04 @024   ----------------------------------------
 .byte   EOT
 .byte   W96
@  #04 @025   ----------------------------------------
 .byte   W96
@  #04 @026   ----------------------------------------
 .byte   W96
@  #04 @027   ----------------------------------------
 .byte   W96
@  #04 @028   ----------------------------------------
 .byte   W96
@  #04 @029   ----------------------------------------
 .byte   W96
@  #04 @030   ----------------------------------------
 .byte   W96
@  #04 @031   ----------------------------------------
 .byte   W96
@  #04 @032   ----------------------------------------
 .byte   W96
@  #04 @033   ----------------------------------------
 .byte   W96
@  #04 @034   ----------------------------------------
 .byte   W96
@  #04 @035   ----------------------------------------
 .byte   W96
@  #04 @036   ----------------------------------------
 .byte   W96
@  #04 @037   ----------------------------------------
 .byte   W96
@  #04 @038   ----------------------------------------
 .byte   VOL , 17*song04_mvl/mxv
 .byte   TIE ,Cn1
 .byte   W04
 .byte   GOTO
  .word Label_014C85E2
@  #04 @039   ----------------------------------------
 .byte   W92
 .byte   W96
@  #04 @040   ----------------------------------------
 .byte   EOT
 .byte   Cn1
 .byte   TIE ,Cn1 ,v096
 .byte   W96
@  #04 @041   ----------------------------------------
 .byte   W96
@  #04 @042   ----------------------------------------
 .byte   EOT
 .byte   TIE ,As0
 .byte   W96
@  #04 @043   ----------------------------------------
 .byte   W96
@  #04 @044   ----------------------------------------
 .byte   EOT
 .byte   TIE ,Cn1
 .byte   W96
@  #04 @045   ----------------------------------------
 .byte   W96
@  #04 @046   ----------------------------------------
 .byte   EOT
 .byte   TIE
 .byte   W96
@  #04 @047   ----------------------------------------
 .byte   W96
@  #04 @048   ----------------------------------------
 .byte   EOT
 .byte   TIE
 .byte   W96
@  #04 @049   ----------------------------------------
 .byte   W96
@  #04 @050   ----------------------------------------
 .byte   EOT
 .byte   TIE ,As0
 .byte   W96
@  #04 @051   ----------------------------------------
 .byte   W96
@  #04 @052   ----------------------------------------
 .byte   EOT
 .byte   TIE ,Cn1
 .byte   W96
@  #04 @053   ----------------------------------------
 .byte   W96
@  #04 @054   ----------------------------------------
 .byte   EOT
@  #04 @055   ----------------------------------------
 .byte   PATT
  .word Label_014C860C
@  #04 @056   ----------------------------------------
 .byte   W96
@  #04 @057   ----------------------------------------
 .byte   W96
@  #04 @058   ----------------------------------------
 .byte   W96
@  #04 @059   ----------------------------------------
 .byte   W96
@  #04 @060   ----------------------------------------
 .byte   W96
@  #04 @061   ----------------------------------------
 .byte   W96
@  #04 @062   ----------------------------------------
 .byte   W96
@  #04 @063   ----------------------------------------
 .byte   EOT
 .byte   Cn2
 .byte   W96
@  #04 @064   ----------------------------------------
 .byte   W96
@  #04 @065   ----------------------------------------
 .byte   W96
@  #04 @066   ----------------------------------------
 .byte   W96
@  #04 @067   ----------------------------------------
 .byte   W96
@  #04 @068   ----------------------------------------
 .byte   W96
@  #04 @069   ----------------------------------------
 .byte   W96
@  #04 @070   ----------------------------------------
 .byte   W96
@  #04 @071   ----------------------------------------
 .byte   W96
 .byte   FINE

@**************** Track 5 (Midi-Chn.4) ****************@

song04_005:
@  #05 @000   ----------------------------------------
 .byte   KEYSH , song04_key+0
Label_014C824E:
 .byte   VOICE , 50
 .byte   W96
@  #05 @001   ----------------------------------------
 .byte   W96
@  #05 @002   ----------------------------------------
 .byte   W96
@  #05 @003   ----------------------------------------
 .byte   W96
@  #05 @004   ----------------------------------------
 .byte   W96
@  #05 @005   ----------------------------------------
 .byte   W96
@  #05 @006   ----------------------------------------
 .byte   W96
@  #05 @007   ----------------------------------------
 .byte   W96
@  #05 @008   ----------------------------------------
 .byte   W96
@  #05 @009   ----------------------------------------
 .byte   W96
@  #05 @010   ----------------------------------------
 .byte   W96
@  #05 @011   ----------------------------------------
 .byte   W96
@  #05 @012   ----------------------------------------
 .byte   W96
@  #05 @013   ----------------------------------------
 .byte   W96
@  #05 @014   ----------------------------------------
 .byte   W96
@  #05 @015   ----------------------------------------
 .byte   W96
@  #05 @016   ----------------------------------------
Label_014C8260:
 .byte   PAN , c_v+31
 .byte   VOL , 18*song04_mvl/mxv
 .byte   PAN , c_v+31
 .byte   N48 ,As3 ,v096
 .byte   W44
 .byte   W01
 .byte   VOL , 18*song04_mvl/mxv
 .byte   W02
 .byte   VOL , 18*song04_mvl/mxv
 .byte   W01
 .byte   VOL , 1*song04_mvl/mxv
 .byte   N48 ,Gs3
 .byte   W01
 .byte   VOL , 3*song04_mvl/mxv
 .byte   W01
 .byte   VOL , 6*song04_mvl/mxv
 .byte   W01
 .byte   VOL , 10*song04_mvl/mxv
 .byte   W01
 .byte   VOL , 12*song04_mvl/mxv
 .byte   W01
 .byte   VOL , 14*song04_mvl/mxv
 .byte   W01
 .byte   VOL , 18*song04_mvl/mxv
 .byte   W42
 .byte   PEND 
@  #05 @017   ----------------------------------------
Label_014C8282:
 .byte   BEND , c_v+6
 .byte   N30 ,Gs3 ,v096
 .byte   W01
 .byte   BEND , c_v+12
 .byte   W01
 .byte   BEND , c_v+18
 .byte   W01
 .byte   BEND , c_v+30
 .byte   W01
 .byte   BEND , c_v+25
 .byte   W01
 .byte   BEND , c_v+20
 .byte   W01
 .byte   BEND , c_v+10
 .byte   W01
 .byte   BEND , c_v+5
 .byte   W01
 .byte   BEND , c_v+0
 .byte   W07
 .byte   BEND , c_v+0
 .byte   W15
 .byte   N18
 .byte   W18
 .byte   N24 ,Gn3
 .byte   W24
 .byte   N18 ,Fn3
 .byte   W18
 .byte   N06 ,Ds3
 .byte   W06
 .byte   PEND 
@  #05 @018   ----------------------------------------
Label_014C82A7:
 .byte   VOL , 18*song04_mvl/mxv
 .byte   N48 ,As3 ,v096
 .byte   W44
 .byte   W01
 .byte   VOL , 18*song04_mvl/mxv
 .byte   W02
 .byte   VOL , 18*song04_mvl/mxv
 .byte   W01
 .byte   VOL , 1*song04_mvl/mxv
 .byte   N24 ,Gs3
 .byte   W01
 .byte   VOL , 3*song04_mvl/mxv
 .byte   W01
 .byte   VOL , 6*song04_mvl/mxv
 .byte   W01
 .byte   VOL , 10*song04_mvl/mxv
 .byte   W01
 .byte   VOL , 12*song04_mvl/mxv
 .byte   W01
 .byte   VOL , 14*song04_mvl/mxv
 .byte   W01
 .byte   VOL , 18*song04_mvl/mxv
 .byte   W18
 .byte   N18 ,Fn3
 .byte   W18
 .byte   N06 ,Ds3
 .byte   W06
 .byte   PEND 
@  #05 @019   ----------------------------------------
Label_014C82CB:
 .byte   VOL , 18*song04_mvl/mxv
 .byte   N12 ,As3 ,v104
 .byte   W12
 .byte   N24 ,Gs3
 .byte   W24
 .byte   N12 ,Gn3
 .byte   W12
 .byte   N24 ,Fn3
 .byte   W24
 .byte   Gn3
 .byte   W24
 .byte   PEND 
@  #05 @020   ----------------------------------------
Label_014C82DD:
 .byte   PAN , c_v+31
 .byte   VOL , 18*song04_mvl/mxv
 .byte   PAN , c_v+31
 .byte   VOL , 18*song04_mvl/mxv
 .byte   N48 ,As3 ,v096
 .byte   W44
 .byte   W01
 .byte   VOL , 18*song04_mvl/mxv
 .byte   W02
 .byte   VOL , 18*song04_mvl/mxv
 .byte   W01
 .byte   VOL , 1*song04_mvl/mxv
 .byte   N48 ,Gs3
 .byte   W01
 .byte   VOL , 3*song04_mvl/mxv
 .byte   W01
 .byte   VOL , 6*song04_mvl/mxv
 .byte   W01
 .byte   VOL , 10*song04_mvl/mxv
 .byte   W01
 .byte   VOL , 12*song04_mvl/mxv
 .byte   W01
 .byte   VOL , 14*song04_mvl/mxv
 .byte   W01
 .byte   VOL , 18*song04_mvl/mxv
 .byte   W42
 .byte   PEND 
@  #05 @021   ----------------------------------------
 .byte   PATT
  .word Label_014C8282
@  #05 @022   ----------------------------------------
 .byte   PATT
  .word Label_014C82A7
@  #05 @023   ----------------------------------------
 .byte   PATT
  .word Label_014C82CB
@  #05 @024   ----------------------------------------
 .byte   W96
@  #05 @025   ----------------------------------------
 .byte   W96
@  #05 @026   ----------------------------------------
 .byte   W96
@  #05 @027   ----------------------------------------
 .byte   W96
@  #05 @028   ----------------------------------------
 .byte   W96
@  #05 @029   ----------------------------------------
 .byte   W96
@  #05 @030   ----------------------------------------
 .byte   W96
@  #05 @031   ----------------------------------------
 .byte   W96
@  #05 @032   ----------------------------------------
 .byte   W96
@  #05 @033   ----------------------------------------
 .byte   W96
@  #05 @034   ----------------------------------------
 .byte   W96
@  #05 @035   ----------------------------------------
 .byte   W96
@  #05 @036   ----------------------------------------
 .byte   W96
@  #05 @037   ----------------------------------------
 .byte   W96
@  #05 @038   ----------------------------------------
 .byte   W04
 .byte   GOTO
  .word Label_014C824E
@  #05 @039   ----------------------------------------
 .byte   W92
 .byte   W96
@  #05 @040   ----------------------------------------
 .byte   W96
@  #05 @041   ----------------------------------------
 .byte   W96
@  #05 @042   ----------------------------------------
 .byte   W96
@  #05 @043   ----------------------------------------
 .byte   W96
@  #05 @044   ----------------------------------------
 .byte   W96
@  #05 @045   ----------------------------------------
 .byte   W96
@  #05 @046   ----------------------------------------
 .byte   W96
@  #05 @047   ----------------------------------------
 .byte   W96
@  #05 @048   ----------------------------------------
 .byte   W96
@  #05 @049   ----------------------------------------
 .byte   W96
@  #05 @050   ----------------------------------------
 .byte   W96
@  #05 @051   ----------------------------------------
 .byte   W96
@  #05 @052   ----------------------------------------
 .byte   W96
@  #05 @053   ----------------------------------------
 .byte   W96
@  #05 @054   ----------------------------------------
 .byte   PATT
  .word Label_014C8260
@  #05 @055   ----------------------------------------
 .byte   PATT
  .word Label_014C8282
@  #05 @056   ----------------------------------------
 .byte   PATT
  .word Label_014C82A7
@  #05 @057   ----------------------------------------
 .byte   PATT
  .word Label_014C82CB
@  #05 @058   ----------------------------------------
 .byte   PATT
  .word Label_014C82DD
@  #05 @059   ----------------------------------------
 .byte   PATT
  .word Label_014C8282
@  #05 @060   ----------------------------------------
 .byte   PATT
  .word Label_014C82A7
@  #05 @061   ----------------------------------------
 .byte   PATT
  .word Label_014C82CB
@  #05 @062   ----------------------------------------
 .byte   W96
@  #05 @063   ----------------------------------------
 .byte   W96
@  #05 @064   ----------------------------------------
 .byte   W96
@  #05 @065   ----------------------------------------
 .byte   W96
@  #05 @066   ----------------------------------------
 .byte   W96
@  #05 @067   ----------------------------------------
 .byte   W96
@  #05 @068   ----------------------------------------
 .byte   W96
@  #05 @069   ----------------------------------------
 .byte   W96
@  #05 @070   ----------------------------------------
 .byte   W96
 .byte   FINE

@**************** Track 6 (Midi-Chn.5) ****************@

song04_006:
@  #06 @000   ----------------------------------------
 .byte   KEYSH , song04_key+0
Label_014C91CA:
 .byte   VOICE , 48
 .byte   VOL , 32*song04_mvl/mxv
 .byte   W96
@  #06 @001   ----------------------------------------
 .byte   W96
@  #06 @002   ----------------------------------------
 .byte   W96
@  #06 @003   ----------------------------------------
 .byte   W96
@  #06 @004   ----------------------------------------
 .byte   W96
@  #06 @005   ----------------------------------------
 .byte   W96
@  #06 @006   ----------------------------------------
 .byte   W96
@  #06 @007   ----------------------------------------
 .byte   W96
@  #06 @008   ----------------------------------------
 .byte   W96
@  #06 @009   ----------------------------------------
 .byte   W96
@  #06 @010   ----------------------------------------
 .byte   W96
@  #06 @011   ----------------------------------------
 .byte   W96
@  #06 @012   ----------------------------------------
 .byte   W96
@  #06 @013   ----------------------------------------
 .byte   W96
@  #06 @014   ----------------------------------------
 .byte   W96
@  #06 @015   ----------------------------------------
 .byte   W96
@  #06 @016   ----------------------------------------
Label_014C91DE:
 .byte   PAN , c_v-18
 .byte   N03 ,As2 ,v108
 .byte   N03 ,Cn3 ,v080
 .byte   N03 ,Fn3 ,v076
 .byte   W12
 .byte   N02 ,As2 ,v108
 .byte   N02 ,Cn3 ,v080
 .byte   N02 ,Fn3 ,v076
 .byte   W03
 .byte   As2 ,v108
 .byte   N02 ,Cn3 ,v080
 .byte   N02 ,Fn3 ,v076
 .byte   W03
 .byte   As2 ,v108
 .byte   N02 ,Cn3 ,v080
 .byte   N02 ,Fn3 ,v076
 .byte   W03
 .byte   As2 ,v108
 .byte   N02 ,Cn3 ,v080
 .byte   N02 ,Fn3 ,v076
 .byte   W03
 .byte   As2 ,v108
 .byte   N02 ,Cn3 ,v080
 .byte   N02 ,Fn3 ,v076
 .byte   W06
 .byte   N03 ,As2 ,v108
 .byte   N03 ,Cn3 ,v080
 .byte   N03 ,Fn3 ,v076
 .byte   W18
 .byte   As2 ,v108
 .byte   N03 ,Cn3 ,v080
 .byte   N03 ,Fn3 ,v076
 .byte   W12
 .byte   N02 ,As2 ,v108
 .byte   N02 ,Cn3 ,v080
 .byte   N02 ,Fn3 ,v076
 .byte   W03
 .byte   As2 ,v108
 .byte   N02 ,Cn3 ,v080
 .byte   N02 ,Fn3 ,v076
 .byte   W03
 .byte   As2 ,v108
 .byte   N02 ,Cn3 ,v080
 .byte   N02 ,Fn3 ,v076
 .byte   W03
 .byte   As2 ,v108
 .byte   N02 ,Cn3 ,v080
 .byte   N02 ,Fn3 ,v076
 .byte   W03
 .byte   As2 ,v108
 .byte   N02 ,Cn3 ,v080
 .byte   N02 ,Fn3 ,v076
 .byte   W06
 .byte   N03 ,As2 ,v108
 .byte   N03 ,Cn3 ,v080
 .byte   N03 ,Fn3 ,v076
 .byte   W18
 .byte   PEND 
@  #06 @017   ----------------------------------------
Label_014C9264:
 .byte   N03 ,As2 ,v108
 .byte   N03 ,Cn3 ,v080
 .byte   N03 ,Fn3 ,v076
 .byte   W12
 .byte   N02 ,As2 ,v108
 .byte   N02 ,Cn3 ,v080
 .byte   N02 ,Fn3 ,v076
 .byte   W03
 .byte   As2 ,v108
 .byte   N02 ,Cn3 ,v080
 .byte   N02 ,Fn3 ,v076
 .byte   W03
 .byte   As2 ,v108
 .byte   N02 ,Cn3 ,v080
 .byte   N02 ,Fn3 ,v076
 .byte   W03
 .byte   As2 ,v108
 .byte   N02 ,Cn3 ,v080
 .byte   N02 ,Fn3 ,v076
 .byte   W03
 .byte   As2 ,v108
 .byte   N02 ,Cn3 ,v080
 .byte   N02 ,Fn3 ,v076
 .byte   W06
 .byte   N03 ,As2 ,v108
 .byte   N03 ,Cn3 ,v080
 .byte   N03 ,Fn3 ,v076
 .byte   W18
 .byte   As2 ,v108
 .byte   N03 ,Cn3 ,v080
 .byte   N03 ,Fn3 ,v076
 .byte   W12
 .byte   N02 ,As2 ,v108
 .byte   N02 ,Cn3 ,v080
 .byte   N02 ,Fn3 ,v076
 .byte   W03
 .byte   As2 ,v108
 .byte   N02 ,Cn3 ,v080
 .byte   N02 ,Fn3 ,v076
 .byte   W03
 .byte   As2 ,v108
 .byte   N02 ,Cn3 ,v080
 .byte   N02 ,Fn3 ,v076
 .byte   W03
 .byte   As2 ,v108
 .byte   N02 ,Cn3 ,v080
 .byte   N02 ,Fn3 ,v076
 .byte   W03
 .byte   As2 ,v108
 .byte   N02 ,Cn3 ,v080
 .byte   N02 ,Fn3 ,v076
 .byte   W06
 .byte   N03 ,As2 ,v108
 .byte   N03 ,Cn3 ,v080
 .byte   N03 ,Fn3 ,v076
 .byte   W18
 .byte   PEND 
@  #06 @018   ----------------------------------------
 .byte   PATT
  .word Label_014C9264
@  #06 @019   ----------------------------------------
 .byte   PATT
  .word Label_014C9264
@  #06 @020   ----------------------------------------
 .byte   PATT
  .word Label_014C9264
@  #06 @021   ----------------------------------------
 .byte   PATT
  .word Label_014C9264
@  #06 @022   ----------------------------------------
 .byte   PATT
  .word Label_014C9264
@  #06 @023   ----------------------------------------
 .byte   PATT
  .word Label_014C9264
@  #06 @024   ----------------------------------------
 .byte   PATT
  .word Label_014C91DE
@  #06 @025   ----------------------------------------
 .byte   PATT
  .word Label_014C9264
@  #06 @026   ----------------------------------------
 .byte   PATT
  .word Label_014C9264
@  #06 @027   ----------------------------------------
 .byte   PATT
  .word Label_014C9264
@  #06 @028   ----------------------------------------
 .byte   W96
@  #06 @029   ----------------------------------------
 .byte   W96
@  #06 @030   ----------------------------------------
 .byte   W96
@  #06 @031   ----------------------------------------
 .byte   W96
@  #06 @032   ----------------------------------------
 .byte   W96
@  #06 @033   ----------------------------------------
 .byte   W96
@  #06 @034   ----------------------------------------
 .byte   W96
@  #06 @035   ----------------------------------------
 .byte   W96
@  #06 @036   ----------------------------------------
 .byte   W96
@  #06 @037   ----------------------------------------
 .byte   W96
@  #06 @038   ----------------------------------------
 .byte   W04
 .byte   GOTO
  .word Label_014C91CA
@  #06 @039   ----------------------------------------
 .byte   W92
 .byte   W96
@  #06 @040   ----------------------------------------
 .byte   W96
@  #06 @041   ----------------------------------------
 .byte   W96
@  #06 @042   ----------------------------------------
 .byte   W96
@  #06 @043   ----------------------------------------
 .byte   W96
@  #06 @044   ----------------------------------------
 .byte   W96
@  #06 @045   ----------------------------------------
 .byte   W96
@  #06 @046   ----------------------------------------
 .byte   W96
@  #06 @047   ----------------------------------------
 .byte   W96
@  #06 @048   ----------------------------------------
 .byte   W96
@  #06 @049   ----------------------------------------
 .byte   W96
@  #06 @050   ----------------------------------------
 .byte   W96
@  #06 @051   ----------------------------------------
 .byte   W96
@  #06 @052   ----------------------------------------
 .byte   W96
@  #06 @053   ----------------------------------------
 .byte   W96
@  #06 @054   ----------------------------------------
 .byte   PATT
  .word Label_014C91DE
@  #06 @055   ----------------------------------------
 .byte   PATT
  .word Label_014C9264
@  #06 @056   ----------------------------------------
 .byte   PATT
  .word Label_014C9264
@  #06 @057   ----------------------------------------
 .byte   PATT
  .word Label_014C9264
@  #06 @058   ----------------------------------------
 .byte   PATT
  .word Label_014C9264
@  #06 @059   ----------------------------------------
 .byte   PATT
  .word Label_014C9264
@  #06 @060   ----------------------------------------
 .byte   PATT
  .word Label_014C9264
@  #06 @061   ----------------------------------------
 .byte   PATT
  .word Label_014C9264
@  #06 @062   ----------------------------------------
 .byte   PATT
  .word Label_014C91DE
@  #06 @063   ----------------------------------------
 .byte   PATT
  .word Label_014C9264
@  #06 @064   ----------------------------------------
 .byte   PATT
  .word Label_014C9264
@  #06 @065   ----------------------------------------
 .byte   PATT
  .word Label_014C9264
@  #06 @066   ----------------------------------------
 .byte   W96
@  #06 @067   ----------------------------------------
 .byte   W96
@  #06 @068   ----------------------------------------
 .byte   W96
@  #06 @069   ----------------------------------------
 .byte   W96
@  #06 @070   ----------------------------------------
 .byte   W96
 .byte   FINE

@**************** Track 7 (Midi-Chn.6) ****************@

song04_007:
@  #07 @000   ----------------------------------------
 .byte   KEYSH , song04_key+0
Label_014C7C62:
 .byte   VOICE , 124
 .byte   VOL , 32*song04_mvl/mxv
 .byte   N06 ,En1 ,v096
 .byte   N06 ,Gn1 ,v100
 .byte   N05 ,En2 ,v096
 .byte   W12
 .byte   N01 ,En1 ,v080
 .byte   W03
 .byte   En1 ,v096
 .byte   W03
 .byte   En1 ,v068
 .byte   W03
 .byte   En1 ,v088
 .byte   W03
 .byte   N03 ,En1 ,v096
 .byte   N05 ,Ds2 ,v088
 .byte   W06
 .byte   N03 ,En1 ,v096
 .byte   W06
 .byte   N06 ,Ds2 ,v088
 .byte   W12
 .byte   En1 ,v096
 .byte   N06 ,Gn1 ,v100
 .byte   N06 ,Ds2 ,v088
 .byte   W12
 .byte   N01 ,En1 ,v080
 .byte   W03
 .byte   En1 ,v096
 .byte   W03
 .byte   En1 ,v068
 .byte   W03
 .byte   En1 ,v088
 .byte   W03
 .byte   N03 ,En1 ,v096
 .byte   N05 ,Ds2 ,v088
 .byte   W06
 .byte   N03 ,En1 ,v096
 .byte   W06
 .byte   N06 ,Ds2 ,v088
 .byte   W12
@  #07 @001   ----------------------------------------
Label_014C7CB1:
 .byte   N06 ,En1 ,v096
 .byte   N06 ,Gn1 ,v100
 .byte   N06 ,Ds2 ,v088
 .byte   W12
 .byte   N01 ,En1 ,v080
 .byte   W03
 .byte   En1 ,v096
 .byte   W03
 .byte   En1 ,v068
 .byte   W03
 .byte   En1 ,v088
 .byte   W03
 .byte   N03 ,En1 ,v096
 .byte   N05 ,Ds2 ,v088
 .byte   W06
 .byte   N03 ,En1 ,v096
 .byte   W06
 .byte   N06 ,Ds2 ,v088
 .byte   W12
 .byte   En1 ,v096
 .byte   N06 ,Gn1 ,v100
 .byte   N06 ,Ds2 ,v088
 .byte   W12
 .byte   N01 ,En1 ,v080
 .byte   W03
 .byte   En1 ,v096
 .byte   W03
 .byte   En1 ,v068
 .byte   W03
 .byte   En1 ,v088
 .byte   W03
 .byte   N03 ,En1 ,v096
 .byte   N05 ,Ds2 ,v088
 .byte   W06
 .byte   N03 ,En1 ,v096
 .byte   W06
 .byte   N06 ,Ds2 ,v088
 .byte   W12
 .byte   PEND 
@  #07 @002   ----------------------------------------
 .byte   PATT
  .word Label_014C7CB1
@  #07 @003   ----------------------------------------
 .byte   PATT
  .word Label_014C7CB1
@  #07 @004   ----------------------------------------
Label_014C7D07:
 .byte   N06 ,En1 ,v096
 .byte   N06 ,Gn1 ,v100
 .byte   N05 ,Ds2 ,v088
 .byte   W12
 .byte   N01 ,En1 ,v080
 .byte   W03
 .byte   En1 ,v096
 .byte   W03
 .byte   En1 ,v068
 .byte   W03
 .byte   En1 ,v088
 .byte   W03
 .byte   N03 ,En1 ,v096
 .byte   N05 ,Ds2 ,v088
 .byte   W06
 .byte   N03 ,En1 ,v096
 .byte   W06
 .byte   N06 ,Ds2 ,v088
 .byte   W12
 .byte   En1 ,v096
 .byte   N06 ,Gn1 ,v100
 .byte   N06 ,Ds2 ,v088
 .byte   W12
 .byte   N01 ,En1 ,v080
 .byte   W03
 .byte   En1 ,v096
 .byte   W03
 .byte   En1 ,v068
 .byte   W03
 .byte   En1 ,v088
 .byte   W03
 .byte   N03 ,En1 ,v096
 .byte   N05 ,Ds2 ,v088
 .byte   W06
 .byte   N03 ,En1 ,v096
 .byte   W06
 .byte   N06 ,Ds2 ,v088
 .byte   W12
 .byte   PEND 
@  #07 @005   ----------------------------------------
 .byte   PATT
  .word Label_014C7CB1
@  #07 @006   ----------------------------------------
 .byte   PATT
  .word Label_014C7CB1
@  #07 @007   ----------------------------------------
 .byte   PATT
  .word Label_014C7CB1
@  #07 @008   ----------------------------------------
Label_014C7D62:
 .byte   N06 ,En1 ,v096
 .byte   N06 ,Gn1 ,v100
 .byte   N05 ,Ds2 ,v088
 .byte   W12
 .byte   N01 ,En1 ,v080
 .byte   W03
 .byte   En1 ,v096
 .byte   W03
 .byte   En1 ,v068
 .byte   W03
 .byte   En1 ,v088
 .byte   W03
 .byte   N03 ,En1 ,v096
 .byte   N05 ,Ds2 ,v088
 .byte   W06
 .byte   N03 ,En1 ,v096
 .byte   W06
 .byte   N06 ,Ds2 ,v088
 .byte   W12
 .byte   En1 ,v096
 .byte   N06 ,Gn1 ,v100
 .byte   N06 ,Cs2 ,v096
 .byte   N06 ,Ds2 ,v088
 .byte   W12
 .byte   N01 ,En1 ,v080
 .byte   W03
 .byte   En1 ,v096
 .byte   W03
 .byte   En1 ,v068
 .byte   W03
 .byte   En1 ,v088
 .byte   W03
 .byte   N03 ,En1 ,v096
 .byte   N05 ,Ds2 ,v088
 .byte   W06
 .byte   N03 ,En1 ,v096
 .byte   W06
 .byte   N06 ,Ds2 ,v088
 .byte   W12
 .byte   PEND 
@  #07 @009   ----------------------------------------
Label_014C7DB1:
 .byte   N06 ,En1 ,v096
 .byte   N06 ,Gn1 ,v100
 .byte   N06 ,Ds2 ,v088
 .byte   W12
 .byte   N01 ,En1 ,v080
 .byte   W03
 .byte   En1 ,v096
 .byte   W03
 .byte   En1 ,v068
 .byte   W03
 .byte   En1 ,v088
 .byte   W03
 .byte   N03 ,En1 ,v096
 .byte   N05 ,Ds2 ,v088
 .byte   W06
 .byte   N03 ,En1 ,v096
 .byte   W06
 .byte   N06 ,Ds2 ,v088
 .byte   W12
 .byte   En1 ,v096
 .byte   N06 ,Gn1 ,v100
 .byte   N06 ,Cs2 ,v096
 .byte   N06 ,Ds2 ,v088
 .byte   W12
 .byte   N01 ,En1 ,v080
 .byte   W03
 .byte   En1 ,v096
 .byte   W03
 .byte   En1 ,v068
 .byte   W03
 .byte   En1 ,v088
 .byte   W03
 .byte   N03 ,En1 ,v096
 .byte   N05 ,Ds2 ,v088
 .byte   W06
 .byte   N03 ,En1 ,v096
 .byte   W06
 .byte   N06 ,Ds2 ,v088
 .byte   W12
 .byte   PEND 
@  #07 @010   ----------------------------------------
 .byte   PATT
  .word Label_014C7DB1
@  #07 @011   ----------------------------------------
 .byte   PATT
  .word Label_014C7DB1
@  #07 @012   ----------------------------------------
 .byte   PATT
  .word Label_014C7D62
@  #07 @013   ----------------------------------------
 .byte   PATT
  .word Label_014C7DB1
@  #07 @014   ----------------------------------------
 .byte   PATT
  .word Label_014C7DB1
@  #07 @015   ----------------------------------------
 .byte   PATT
  .word Label_014C7DB1
@  #07 @016   ----------------------------------------
Label_014C7E1E:
 .byte   N06 ,Gn1 ,v100
 .byte   N05 ,Ds2 ,v088
 .byte   W24
 .byte   N05
 .byte   W12
 .byte   N06
 .byte   W12
 .byte   Gn1 ,v100
 .byte   N06 ,Ds2 ,v088
 .byte   W24
 .byte   N05
 .byte   W12
 .byte   N06
 .byte   W12
 .byte   PEND 
@  #07 @017   ----------------------------------------
Label_014C7E34:
 .byte   N06 ,Gn1 ,v100
 .byte   N06 ,Ds2 ,v088
 .byte   W24
 .byte   N05
 .byte   W12
 .byte   N06
 .byte   W12
 .byte   Gn1 ,v100
 .byte   N06 ,Ds2 ,v088
 .byte   W24
 .byte   N05
 .byte   W12
 .byte   N06
 .byte   W12
 .byte   PEND 
@  #07 @018   ----------------------------------------
 .byte   PATT
  .word Label_014C7E34
@  #07 @019   ----------------------------------------
 .byte   PATT
  .word Label_014C7E34
@  #07 @020   ----------------------------------------
 .byte   PATT
  .word Label_014C7E1E
@  #07 @021   ----------------------------------------
 .byte   PATT
  .word Label_014C7E34
@  #07 @022   ----------------------------------------
 .byte   PATT
  .word Label_014C7E34
@  #07 @023   ----------------------------------------
 .byte   N06 ,Gn1 ,v100
 .byte   N06 ,Ds2 ,v088
 .byte   W24
 .byte   N05
 .byte   W12
 .byte   N06
 .byte   W12
 .byte   N06
 .byte   W09
 .byte   N02 ,En1 ,v060
 .byte   W03
 .byte   N03 ,En1 ,v096
 .byte   W06
 .byte   En1 ,v084
 .byte   W06
 .byte   En1 ,v096
 .byte   N05 ,Ds2 ,v088
 .byte   W12
 .byte   N03 ,En1 ,v096
 .byte   N06 ,Ds2 ,v088
 .byte   W12
@  #07 @024   ----------------------------------------
Label_014C7E88:
 .byte   N04 ,Fn1 ,v096
 .byte   N15 ,Cs2
 .byte   W96
 .byte   PEND 
@  #07 @025   ----------------------------------------
 .byte   N04 ,Fn1
 .byte   W96
@  #07 @026   ----------------------------------------
 .byte   N04
 .byte   W96
@  #07 @027   ----------------------------------------
 .byte   N04
 .byte   W96
@  #07 @028   ----------------------------------------
Label_014C7E96:
 .byte   N06 ,Gn1 ,v100
 .byte   W48
 .byte   Cs2 ,v096
 .byte   W48
 .byte   PEND 
@  #07 @029   ----------------------------------------
 .byte   PATT
  .word Label_014C7E96
@  #07 @030   ----------------------------------------
 .byte   PATT
  .word Label_014C7E96
@  #07 @031   ----------------------------------------
 .byte   PATT
  .word Label_014C7E96
@  #07 @032   ----------------------------------------
 .byte   W96
@  #07 @033   ----------------------------------------
 .byte   N06 ,Cn1 ,v096
 .byte   N14 ,Cs2
 .byte   W24
 .byte   N06 ,Cn1 ,v068
 .byte   W24
 .byte   Cn1 ,v052
 .byte   W24
 .byte   Cn1 ,v044
 .byte   W24
@  #07 @034   ----------------------------------------
 .byte   W24
 .byte   Cn1 ,v096
 .byte   W24
 .byte   Cn1 ,v068
 .byte   W24
 .byte   Cn1 ,v052
 .byte   W24
@  #07 @035   ----------------------------------------
 .byte   Cn1 ,v044
 .byte   W48
 .byte   Cn1 ,v096
 .byte   W24
 .byte   Cn1 ,v068
 .byte   W24
@  #07 @036   ----------------------------------------
 .byte   Cn1 ,v052
 .byte   W24
 .byte   Cn1 ,v044
 .byte   W48
 .byte   Cn1 ,v096
 .byte   W24
@  #07 @037   ----------------------------------------
 .byte   Cn1 ,v068
 .byte   W24
 .byte   Cn1 ,v052
 .byte   W24
 .byte   Cn1 ,v044
 .byte   W48
@  #07 @038   ----------------------------------------
 .byte   En1 ,v096
 .byte   N06 ,Gn1 ,v100
 .byte   N05 ,En2 ,v096
 .byte   W04
 .byte   GOTO
  .word Label_014C7C62
@  #07 @039   ----------------------------------------
 .byte   W08
 .byte   N01 ,En1 ,v080
 .byte   W03
 .byte   En1 ,v096
 .byte   W03
 .byte   En1 ,v068
 .byte   W03
 .byte   En1 ,v088
 .byte   W03
 .byte   N03 ,En1 ,v096
 .byte   N05 ,Ds2 ,v088
 .byte   W06
 .byte   N03 ,En1 ,v096
 .byte   W06
 .byte   N06 ,Ds2 ,v088
 .byte   W12
 .byte   En1 ,v096
 .byte   N06 ,Gn1 ,v100
 .byte   N06 ,Ds2 ,v088
 .byte   W12
 .byte   N01 ,En1 ,v080
 .byte   W03
 .byte   En1 ,v096
 .byte   W03
 .byte   En1 ,v068
 .byte   W03
 .byte   En1 ,v088
 .byte   W03
 .byte   N03 ,En1 ,v096
 .byte   N05 ,Ds2 ,v088
 .byte   W06
 .byte   N03 ,En1 ,v096
 .byte   W06
 .byte   N06 ,Ds2 ,v088
 .byte   W12
@  #07 @040   ----------------------------------------
 .byte   PATT
  .word Label_014C7CB1
@  #07 @041   ----------------------------------------
 .byte   PATT
  .word Label_014C7CB1
@  #07 @042   ----------------------------------------
 .byte   PATT
  .word Label_014C7CB1
@  #07 @043   ----------------------------------------
 .byte   PATT
  .word Label_014C7D07
@  #07 @044   ----------------------------------------
 .byte   PATT
  .word Label_014C7CB1
@  #07 @045   ----------------------------------------
 .byte   PATT
  .word Label_014C7CB1
@  #07 @046   ----------------------------------------
 .byte   PATT
  .word Label_014C7CB1
@  #07 @047   ----------------------------------------
 .byte   PATT
  .word Label_014C7D62
@  #07 @048   ----------------------------------------
 .byte   PATT
  .word Label_014C7DB1
@  #07 @049   ----------------------------------------
 .byte   PATT
  .word Label_014C7DB1
@  #07 @050   ----------------------------------------
 .byte   PATT
  .word Label_014C7DB1
@  #07 @051   ----------------------------------------
 .byte   PATT
  .word Label_014C7D62
@  #07 @052   ----------------------------------------
 .byte   PATT
  .word Label_014C7DB1
@  #07 @053   ----------------------------------------
 .byte   PATT
  .word Label_014C7DB1
@  #07 @054   ----------------------------------------
 .byte   PATT
  .word Label_014C7DB1
@  #07 @055   ----------------------------------------
 .byte   PATT
  .word Label_014C7E1E
@  #07 @056   ----------------------------------------
 .byte   PATT
  .word Label_014C7E34
@  #07 @057   ----------------------------------------
 .byte   PATT
  .word Label_014C7E34
@  #07 @058   ----------------------------------------
 .byte   PATT
  .word Label_014C7E34
@  #07 @059   ----------------------------------------
 .byte   PATT
  .word Label_014C7E1E
@  #07 @060   ----------------------------------------
 .byte   PATT
  .word Label_014C7E34
@  #07 @061   ----------------------------------------
 .byte   PATT
  .word Label_014C7E34
@  #07 @062   ----------------------------------------
 .byte   N06 ,Gn1 ,v100
 .byte   N06 ,Ds2 ,v088
 .byte   W24
 .byte   N05
 .byte   W12
 .byte   N06
 .byte   W12
 .byte   N06
 .byte   W09
 .byte   N02 ,En1 ,v060
 .byte   W03
 .byte   N03 ,En1 ,v096
 .byte   W06
 .byte   En1 ,v072
 .byte   W06
 .byte   En1 ,v096
 .byte   N05 ,Ds2 ,v088
 .byte   W12
 .byte   N03 ,En1 ,v096
 .byte   N06 ,Ds2 ,v088
 .byte   W12
@  #07 @063   ----------------------------------------
 .byte   PATT
  .word Label_014C7E88
@  #07 @064   ----------------------------------------
 .byte   N04 ,Fn1 ,v096
 .byte   W96
@  #07 @065   ----------------------------------------
 .byte   N04
 .byte   W96
@  #07 @066   ----------------------------------------
 .byte   N04
 .byte   W96
@  #07 @067   ----------------------------------------
 .byte   PATT
  .word Label_014C7E96
@  #07 @068   ----------------------------------------
 .byte   PATT
  .word Label_014C7E96
@  #07 @069   ----------------------------------------
 .byte   PATT
  .word Label_014C7E96
@  #07 @070   ----------------------------------------
 .byte   PATT
  .word Label_014C7E96
@  #07 @071   ----------------------------------------
 .byte   W96
 .byte   FINE

@******************************************************@
	.align	2

song04:
	.byte	7	@ NumTrks
	.byte	0	@ NumBlks
	.byte	song04_pri	@ Priority
	.byte	song04_rev	@ Reverb.
    
	.word	song04_grp
    
	.word	song04_001
	.word	song04_002
	.word	song04_003
	.word	song04_004
	.word	song04_005
	.word	song04_006
	.word	song04_007

	.end
