//Event file generated from Sappy .s format.
	#include "MPlayDef.event"

	#define	BlackMarket_grp  voicegroup000
	#define	BlackMarket_pri  0
	#define	BlackMarket_rev  0
	#define	BlackMarket_mvl  127
	#define	BlackMarket_key  0
	#define	BlackMarket_tbs  1
	#define	BlackMarket_exg  0
	#define	BlackMarket_cmp  1

	// .rodata
	//	BlackMarket
	ALIGN 4


//**************** Track 1 (Midi-Chn.0) ****************//

BlackMarket_001:
//  #01 //000   ----------------------------------------
 BYTE   KEYSH   BlackMarket_key+0
 BYTE   TEMPO   86*BlackMarket_tbs/2
 BYTE   VOICE   52
 BYTE   W96
//  #01 //001   ----------------------------------------
 BYTE   W96
//  #01 //002   ----------------------------------------
Label_01005840:
 BYTE   VOL   36*BlackMarket_mvl/mxv
 BYTE   N12  As2  v064
 BYTE   N12  As3  v096
 BYTE   W12
 BYTE   N03  Cn3  v064
 BYTE   N03  Cn4  v096
 BYTE   W06
 BYTE   N54  Cn3  v064
 BYTE   N54  Cn4  v096
 BYTE   W64
 BYTE   BEND   c_v+0
 BYTE   W01
 BYTE   BEND   c_v-18
 BYTE   W01
 BYTE   BEND   c_v-18
 BYTE   N24  Dn3  v064
 BYTE   N24  Dn4  v096
 BYTE   W01
 BYTE   BEND   c_v+1
 BYTE   W01
 BYTE   BEND   c_v+19
 BYTE   W01
 BYTE   BEND   c_v+31
 BYTE   W01
 BYTE   BEND   c_v+25
 BYTE   W01
 BYTE   BEND   c_v+19
 BYTE   W01
 BYTE   BEND   c_v+6
 BYTE   W01
 BYTE   BEND   c_v+0
 BYTE   W01
 BYTE   BEND   c_v-6
 BYTE   W01
 BYTE   BEND   c_v-9
 BYTE   W01
 BYTE   BEND   c_v-6
 BYTE   W01
 BYTE   BEND   c_v-3
 BYTE   W01
 BYTE   PEND 
//  #01 //003   ----------------------------------------
Label_0100587C:
 BYTE   BEND   c_v+0
 BYTE   W12
 BYTE   N18  As2  v064
 BYTE   N18  As3  v096
 BYTE   W18
 BYTE   N06  Cn3  v064
 BYTE   N06  Cn4  v096
 BYTE   W06
 BYTE   N24  Cn3  v064
 BYTE   N24  Cn4  v096
 BYTE   W36
 BYTE   Gn2  v064
 BYTE   N24  Gn3  v096
 BYTE   W24
 BYTE   PEND 
//  #01 //004   ----------------------------------------
Label_0100589B:
 BYTE   W12
 BYTE   N18  As2  v064
 BYTE   N18  As3  v096
 BYTE   W18
 BYTE   N12  Cn3  v064
 BYTE   N12  Cn4  v096
 BYTE   W12
 BYTE   N36  Cn3  v064
 BYTE   N36  Cn4  v096
 BYTE   W40
 BYTE   BEND   c_v+0
 BYTE   W01
 BYTE   BEND   c_v-18
 BYTE   W01
 BYTE   BEND   c_v-18
 BYTE   N24  Dn3  v064
 BYTE   N24  Dn4  v096
 BYTE   W01
 BYTE   BEND   c_v+1
 BYTE   W01
 BYTE   BEND   c_v+19
 BYTE   W01
 BYTE   BEND   c_v+31
 BYTE   W01
 BYTE   BEND   c_v+25
 BYTE   W01
 BYTE   BEND   c_v+19
 BYTE   W01
 BYTE   BEND   c_v+6
 BYTE   W01
 BYTE   BEND   c_v+0
 BYTE   W01
 BYTE   BEND   c_v-6
 BYTE   W01
 BYTE   BEND   c_v-9
 BYTE   W01
 BYTE   BEND   c_v-6
 BYTE   W01
 BYTE   BEND   c_v-3
 BYTE   W01
 BYTE   PEND 
//  #01 //005   ----------------------------------------
Label_010058D6:
 BYTE   BEND   c_v+0
 BYTE   W06
 BYTE   BEND   c_v+11
 BYTE   W01
 BYTE   BEND   c_v+23
 BYTE   W01
 BYTE   BEND   c_v+17
 BYTE   W01
 BYTE   BEND   c_v+5
 BYTE   W01
 BYTE   BEND   c_v+0
 BYTE   W02
 BYTE   BEND   c_v+0
 BYTE   N18  As2  v064
 BYTE   N18  As3  v096
 BYTE   W01
 BYTE   BEND   c_v+0
 BYTE   W02
 BYTE   BEND   c_v+0
 BYTE   W15
 BYTE   N18  Cn3  v064
 BYTE   N18  Cn4  v096
 BYTE   W18
 BYTE   N36  Gn2  v068
 BYTE   N36  Gn3  v096
 BYTE   W48
 BYTE   PEND 
//  #01 //006   ----------------------------------------
 BYTE   PATT
  POIN2 Label_01005840
//  #01 //007   ----------------------------------------
 BYTE   PATT
  POIN2 Label_0100587C
//  #01 //008   ----------------------------------------
 BYTE   PATT
  POIN2 Label_0100589B
//  #01 //009   ----------------------------------------
 BYTE   PATT
  POIN2 Label_010058D6
//  #01 //010   ----------------------------------------
Label_01005913:
 BYTE   W96
//  #01 //011   ----------------------------------------
 BYTE   W96
//  #01 //012   ----------------------------------------
 BYTE   W96
//  #01 //013   ----------------------------------------
 BYTE   W96
//  #01 //014   ----------------------------------------
 BYTE   W96
//  #01 //015   ----------------------------------------
 BYTE   W96
//  #01 //016   ----------------------------------------
 BYTE   W96
//  #01 //017   ----------------------------------------
 BYTE   W96
//  #01 //018   ----------------------------------------
 BYTE   PATT
  POIN2 Label_01005840
//  #01 //019   ----------------------------------------
 BYTE   PATT
  POIN2 Label_0100587C
//  #01 //020   ----------------------------------------
 BYTE   PATT
  POIN2 Label_0100589B
//  #01 //021   ----------------------------------------
 BYTE   PATT
  POIN2 Label_010058D6
//  #01 //022   ----------------------------------------
 BYTE   PATT
  POIN2 Label_01005840
//  #01 //023   ----------------------------------------
 BYTE   PATT
  POIN2 Label_0100587C
//  #01 //024   ----------------------------------------
 BYTE   PATT
  POIN2 Label_0100589B
//  #01 //025   ----------------------------------------
 BYTE   PATT
  POIN2 Label_010058D6
//  #01 //026   ----------------------------------------
 BYTE   GoTo
  POIN2 Label_01005913
//  #01 //027   ----------------------------------------
 BYTE   W96
//  #01 //028   ----------------------------------------
 BYTE   W96
//  #01 //029   ----------------------------------------
 BYTE   W96
//  #01 //030   ----------------------------------------
 BYTE   W96
 BYTE   FINE

//**************** Track 2 (Midi-Chn.1) ****************//

BlackMarket_002:
//  #02 //000   ----------------------------------------
 BYTE   KEYSH   BlackMarket_key+0
 BYTE   VOICE   38
 BYTE   VOL   41*BlackMarket_mvl/mxv
 BYTE   N06  Gn0  v096
 BYTE   W06
 BYTE   As0
 BYTE   W06
 BYTE   An0
 BYTE   W06
 BYTE   N04  Gn0
 BYTE   W06
 BYTE   N06
 BYTE   W12
 BYTE   Fn0
 BYTE   W12
 BYTE   Gn0
 BYTE   W12
 BYTE   Fn0
 BYTE   W06
 BYTE   Gn0
 BYTE   W30
//  #02 //001   ----------------------------------------
 BYTE   N06
 BYTE   W06
 BYTE   As0
 BYTE   W06
 BYTE   An0
 BYTE   W06
 BYTE   N04  Gn0
 BYTE   W06
 BYTE   N06
 BYTE   W12
 BYTE   Fn0
 BYTE   W21
 BYTE   VOL   41*BlackMarket_mvl/mxv
 BYTE   W01
 BYTE   VOL   40*BlackMarket_mvl/mxv
 BYTE   W02
 BYTE   VOL   40*BlackMarket_mvl/mxv
 BYTE   W03
 BYTE   VOL   40*BlackMarket_mvl/mxv
 BYTE   W03
 BYTE   VOL   39*BlackMarket_mvl/mxv
 BYTE   W02
 BYTE   VOL   39*BlackMarket_mvl/mxv
 BYTE   W02
 BYTE   VOL   38*BlackMarket_mvl/mxv
 BYTE   W03
 BYTE   VOL   38*BlackMarket_mvl/mxv
 BYTE   W02
 BYTE   VOL   38*BlackMarket_mvl/mxv
 BYTE   W03
 BYTE   VOL   37*BlackMarket_mvl/mxv
 BYTE   W02
 BYTE   VOL   37*BlackMarket_mvl/mxv
 BYTE   W03
 BYTE   VOL   37*BlackMarket_mvl/mxv
 BYTE   W02
 BYTE   VOL   36*BlackMarket_mvl/mxv
 BYTE   W02
 BYTE   VOL   36*BlackMarket_mvl/mxv
 BYTE   W03
 BYTE   VOL   35*BlackMarket_mvl/mxv
 BYTE   W03
 BYTE   VOL   35*BlackMarket_mvl/mxv
 BYTE   W02
 BYTE   VOL   35*BlackMarket_mvl/mxv
 BYTE   W01
//  #02 //002   ----------------------------------------
 BYTE   VOL   35*BlackMarket_mvl/mxv
 BYTE   N06  Gn0
 BYTE   W06
 BYTE   As0
 BYTE   W06
 BYTE   An0
 BYTE   W06
 BYTE   N04  Gn0
 BYTE   W06
 BYTE   N06
 BYTE   W12
 BYTE   Fn0
 BYTE   W12
 BYTE   Gn0
 BYTE   W12
 BYTE   Fn0
 BYTE   W06
 BYTE   Gn0
 BYTE   W30
//  #02 //003   ----------------------------------------
Label_01005240:
 BYTE   N06  Gn0  v096
 BYTE   W06
 BYTE   As0
 BYTE   W06
 BYTE   An0
 BYTE   W06
 BYTE   N04  Gn0
 BYTE   W06
 BYTE   N06
 BYTE   W12
 BYTE   Fn0
 BYTE   W12
 BYTE   Gn0
 BYTE   W12
 BYTE   Fn0
 BYTE   W06
 BYTE   Gn0
 BYTE   W12
 BYTE   N03
 BYTE   W18
 BYTE   PEND 
//  #02 //004   ----------------------------------------
Label_01005258:
 BYTE   N06  Gn0  v096
 BYTE   W06
 BYTE   As0
 BYTE   W06
 BYTE   An0
 BYTE   W06
 BYTE   N04  Gn0
 BYTE   W06
 BYTE   N06
 BYTE   W12
 BYTE   Fn0
 BYTE   W12
 BYTE   Gn0
 BYTE   W12
 BYTE   Fn0
 BYTE   W06
 BYTE   Gn0
 BYTE   W30
 BYTE   PEND 
//  #02 //005   ----------------------------------------
Label_0100526E:
 BYTE   N06  Gn0  v096
 BYTE   W06
 BYTE   As0
 BYTE   W06
 BYTE   An0
 BYTE   W06
 BYTE   N04  Gn0
 BYTE   W06
 BYTE   N06
 BYTE   W12
 BYTE   Fn0
 BYTE   W60
 BYTE   PEND 
//  #02 //006   ----------------------------------------
 BYTE   PATT
  POIN2 Label_01005258
//  #02 //007   ----------------------------------------
 BYTE   PATT
  POIN2 Label_01005240
//  #02 //008   ----------------------------------------
 BYTE   PATT
  POIN2 Label_01005258
//  #02 //009   ----------------------------------------
Label_0100528D:
 BYTE   N06  Gn0  v096
 BYTE   W06
 BYTE   As0
 BYTE   W06
 BYTE   An0
 BYTE   W06
 BYTE   N04  Gn0
 BYTE   W06
 BYTE   N06
 BYTE   W12
 BYTE   Fn0
 BYTE   W54
 BYTE   Gn0
 BYTE   W06
 BYTE   PEND 
//  #02 //010   ----------------------------------------
Label_0100529F:
//  #02 //011   ----------------------------------------
 BYTE   PATT
  POIN2 Label_01005258
//  #02 //012   ----------------------------------------
 BYTE   PATT
  POIN2 Label_01005240
//  #02 //013   ----------------------------------------
 BYTE   PATT
  POIN2 Label_01005258
//  #02 //014   ----------------------------------------
 BYTE   PATT
  POIN2 Label_0100526E
//  #02 //015   ----------------------------------------
 BYTE   PATT
  POIN2 Label_01005258
//  #02 //016   ----------------------------------------
 BYTE   PATT
  POIN2 Label_01005240
//  #02 //017   ----------------------------------------
 BYTE   PATT
  POIN2 Label_01005258
//  #02 //018   ----------------------------------------
 BYTE   PATT
  POIN2 Label_0100528D
//  #02 //019   ----------------------------------------
Label_010052C7:
 BYTE   W06
 BYTE   N06  As0  v096
 BYTE   W06
 BYTE   An0
 BYTE   W06
 BYTE   N04  Gn0
 BYTE   W06
 BYTE   N06
 BYTE   W06
 BYTE   N06
 BYTE   W06
 BYTE   Fn0
 BYTE   W06
 BYTE   N06
 BYTE   W06
 BYTE   Gn0
 BYTE   W06
 BYTE   N06
 BYTE   W06
 BYTE   Fn0
 BYTE   W06
 BYTE   Gn0
 BYTE   W30
 BYTE   PEND 
//  #02 //020   ----------------------------------------
Label_010052E2:
 BYTE   N06  Gn0  v096
 BYTE   W06
 BYTE   As0
 BYTE   W06
 BYTE   An0
 BYTE   W06
 BYTE   N04  Gn0
 BYTE   W06
 BYTE   N06
 BYTE   W06
 BYTE   N06
 BYTE   W06
 BYTE   Fn0
 BYTE   W06
 BYTE   N06
 BYTE   W06
 BYTE   Gn0
 BYTE   W06
 BYTE   N06
 BYTE   W06
 BYTE   Fn0
 BYTE   W06
 BYTE   Gn0
 BYTE   W12
 BYTE   N03
 BYTE   W18
 BYTE   PEND 
//  #02 //021   ----------------------------------------
 BYTE   PATT
  POIN2 Label_010052C7
//  #02 //022   ----------------------------------------
 BYTE   PATT
  POIN2 Label_0100528D
//  #02 //023   ----------------------------------------
 BYTE   PATT
  POIN2 Label_010052C7
//  #02 //024   ----------------------------------------
 BYTE   PATT
  POIN2 Label_010052E2
//  #02 //025   ----------------------------------------
 BYTE   PATT
  POIN2 Label_010052C7
//  #02 //026   ----------------------------------------
 BYTE   PATT
  POIN2 Label_0100528D
//  #02 //027   ----------------------------------------
 BYTE   GoTo
  POIN2 Label_0100529F
//  #02 //028   ----------------------------------------
 BYTE   PATT
  POIN2 Label_01005258
//  #02 //029   ----------------------------------------
 BYTE   PATT
  POIN2 Label_01005240
//  #02 //030   ----------------------------------------
 BYTE   PATT
  POIN2 Label_01005258
//  #02 //031   ----------------------------------------
 BYTE   N06  Gn0  v096
 BYTE   W06
 BYTE   As0
 BYTE   W06
 BYTE   An0
 BYTE   W06
 BYTE   N04  Gn0
 BYTE   W06
 BYTE   N06
 BYTE   W12
 BYTE   Fn0
 BYTE   W42
 BYTE   N18  Gs0
 BYTE   W18
 BYTE   FINE

//**************** Track 3 (Midi-Chn.2) ****************//

BlackMarket_003:
//  #03 //000   ----------------------------------------
 BYTE   KEYSH   BlackMarket_key+0
 BYTE   VOICE   4
 BYTE   VOL   25*BlackMarket_mvl/mxv
 BYTE   PAN   c_v-16
 BYTE   W96
//  #03 //001   ----------------------------------------
Label_01007B3D:
 BYTE   W78
 BYTE   N18  As2  v096
 BYTE   N18  Ds3
 BYTE   W18
 BYTE   PEND 
//  #03 //002   ----------------------------------------
 BYTE   N96  Gn2
 BYTE   N96  Dn3
 BYTE   W96
//  #03 //003   ----------------------------------------
 BYTE   As2
 BYTE   N96  En3
 BYTE   W96
//  #03 //004   ----------------------------------------
 BYTE   Gn2
 BYTE   N96  Dn3
 BYTE   W96
//  #03 //005   ----------------------------------------
Label_01007B52:
 BYTE   N66  As2  v096
 BYTE   N66  En3
 BYTE   W78
 BYTE   N18  As2
 BYTE   N18  Ds3
 BYTE   W18
 BYTE   PEND 
//  #03 //006   ----------------------------------------
 BYTE   N96  Gn2
 BYTE   N96  Dn3
 BYTE   W96
//  #03 //007   ----------------------------------------
 BYTE   As2
 BYTE   N96  En3
 BYTE   W96
//  #03 //008   ----------------------------------------
 BYTE   Gn2
 BYTE   N96  Dn3
 BYTE   W96
//  #03 //009   ----------------------------------------
 BYTE   PATT
  POIN2 Label_01007B52
//  #03 //010   ----------------------------------------
Label_01007B70:
 BYTE   N96  Gn2  v096
 BYTE   N96  Dn3
 BYTE   W96
//  #03 //011   ----------------------------------------
 BYTE   As2
 BYTE   N96  En3
 BYTE   W96
//  #03 //012   ----------------------------------------
 BYTE   Gn2
 BYTE   N96  Dn3
 BYTE   W96
//  #03 //013   ----------------------------------------
 BYTE   PATT
  POIN2 Label_01007B52
//  #03 //014   ----------------------------------------
 BYTE   N96  Gn2  v096
 BYTE   N96  Dn3
 BYTE   W96
//  #03 //015   ----------------------------------------
 BYTE   As2
 BYTE   N96  En3
 BYTE   W96
//  #03 //016   ----------------------------------------
 BYTE   Gn2
 BYTE   N96  Dn3
 BYTE   W96
//  #03 //017   ----------------------------------------
 BYTE   PATT
  POIN2 Label_01007B52
//  #03 //018   ----------------------------------------
 BYTE   N96  Gn2  v096
 BYTE   N96  Dn3
 BYTE   W96
//  #03 //019   ----------------------------------------
 BYTE   As2
 BYTE   N96  En3
 BYTE   W96
//  #03 //020   ----------------------------------------
 BYTE   Gn2
 BYTE   N96  Dn3
 BYTE   W96
//  #03 //021   ----------------------------------------
 BYTE   PATT
  POIN2 Label_01007B52
//  #03 //022   ----------------------------------------
 BYTE   N96  Gn2  v096
 BYTE   N96  Dn3
 BYTE   W96
//  #03 //023   ----------------------------------------
 BYTE   As2
 BYTE   N96  En3
 BYTE   W96
//  #03 //024   ----------------------------------------
 BYTE   Gn2
 BYTE   N96  Dn3
 BYTE   W96
//  #03 //025   ----------------------------------------
 BYTE   PATT
  POIN2 Label_01007B52
//  #03 //026   ----------------------------------------
 BYTE   GoTo
  POIN2 Label_01007B70
//  #03 //027   ----------------------------------------
 BYTE   TIE  Gn2  v096
 BYTE   TIE  Dn3  v100
 BYTE   W96
//  #03 //028   ----------------------------------------
 BYTE   W06
 BYTE   VOL   25*BlackMarket_mvl/mxv
 BYTE   W01
 BYTE   VOL   24*BlackMarket_mvl/mxv
 BYTE   W02
 BYTE   VOL   24*BlackMarket_mvl/mxv
 BYTE   W03
 BYTE   VOL   24*BlackMarket_mvl/mxv
 BYTE   W02
 BYTE   VOL   23*BlackMarket_mvl/mxv
 BYTE   W02
 BYTE   VOL   23*BlackMarket_mvl/mxv
 BYTE   W02
 BYTE   VOL   22*BlackMarket_mvl/mxv
 BYTE   W02
 BYTE   VOL   22*BlackMarket_mvl/mxv
 BYTE   W02
 BYTE   VOL   22*BlackMarket_mvl/mxv
 BYTE   W02
 BYTE   VOL   21*BlackMarket_mvl/mxv
 BYTE   W03
 BYTE   VOL   21*BlackMarket_mvl/mxv
 BYTE   W02
 BYTE   VOL   20*BlackMarket_mvl/mxv
 BYTE   W02
 BYTE   VOL   20*BlackMarket_mvl/mxv
 BYTE   W02
 BYTE   VOL   20*BlackMarket_mvl/mxv
 BYTE   W03
 BYTE   VOL   19*BlackMarket_mvl/mxv
 BYTE   W02
 BYTE   VOL   19*BlackMarket_mvl/mxv
 BYTE   W02
 BYTE   VOL   18*BlackMarket_mvl/mxv
 BYTE   W02
 BYTE   VOL   18*BlackMarket_mvl/mxv
 BYTE   W02
 BYTE   VOL   18*BlackMarket_mvl/mxv
 BYTE   W02
 BYTE   VOL   17*BlackMarket_mvl/mxv
 BYTE   W02
 BYTE   VOL   17*BlackMarket_mvl/mxv
 BYTE   W03
 BYTE   VOL   16*BlackMarket_mvl/mxv
 BYTE   W02
 BYTE   VOL   16*BlackMarket_mvl/mxv
 BYTE   W02
 BYTE   VOL   16*BlackMarket_mvl/mxv
 BYTE   W02
 BYTE   VOL   15*BlackMarket_mvl/mxv
 BYTE   W03
 BYTE   VOL   15*BlackMarket_mvl/mxv
 BYTE   W02
 BYTE   VOL   14*BlackMarket_mvl/mxv
 BYTE   W02
 BYTE   VOL   14*BlackMarket_mvl/mxv
 BYTE   W02
 BYTE   VOL   14*BlackMarket_mvl/mxv
 BYTE   W02
 BYTE   VOL   13*BlackMarket_mvl/mxv
 BYTE   W02
 BYTE   VOL   13*BlackMarket_mvl/mxv
 BYTE   W02
 BYTE   VOL   12*BlackMarket_mvl/mxv
 BYTE   W03
 BYTE   VOL   12*BlackMarket_mvl/mxv
 BYTE   W02
 BYTE   VOL   12*BlackMarket_mvl/mxv
 BYTE   W02
 BYTE   VOL   11*BlackMarket_mvl/mxv
 BYTE   W02
 BYTE   VOL   11*BlackMarket_mvl/mxv
 BYTE   W03
 BYTE   VOL   11*BlackMarket_mvl/mxv
 BYTE   W02
 BYTE   VOL   10*BlackMarket_mvl/mxv
 BYTE   W01
 BYTE   VOL   10*BlackMarket_mvl/mxv
 BYTE   W03
 BYTE   VOL   9*BlackMarket_mvl/mxv
 BYTE   W02
 BYTE   VOL   9*BlackMarket_mvl/mxv
 BYTE   W02
 BYTE   VOL   9*BlackMarket_mvl/mxv
 BYTE   W02
//  #03 //029   ----------------------------------------
 BYTE   VOL   8*BlackMarket_mvl/mxv
 BYTE   W03
 BYTE   VOL   8*BlackMarket_mvl/mxv
 BYTE   W02
 BYTE   VOL   7*BlackMarket_mvl/mxv
 BYTE   W02
 BYTE   VOL   7*BlackMarket_mvl/mxv
 BYTE   W02
 BYTE   VOL   7*BlackMarket_mvl/mxv
 BYTE   W03
 BYTE   VOL   6*BlackMarket_mvl/mxv
 BYTE   W02
 BYTE   VOL   6*BlackMarket_mvl/mxv
 BYTE   W01
 BYTE   VOL   5*BlackMarket_mvl/mxv
 BYTE   W03
 BYTE   VOL   5*BlackMarket_mvl/mxv
 BYTE   W02
 BYTE   VOL   5*BlackMarket_mvl/mxv
 BYTE   W02
 BYTE   VOL   4*BlackMarket_mvl/mxv
 BYTE   W02
 BYTE   VOL   4*BlackMarket_mvl/mxv
 BYTE   W03
 BYTE   VOL   3*BlackMarket_mvl/mxv
 BYTE   W02
 BYTE   VOL   3*BlackMarket_mvl/mxv
 BYTE   W02
 BYTE   VOL   3*BlackMarket_mvl/mxv
 BYTE   W02
 BYTE   VOL   2*BlackMarket_mvl/mxv
 BYTE   W03
 BYTE   VOL   2*BlackMarket_mvl/mxv
 BYTE   W02
 BYTE   VOL   1*BlackMarket_mvl/mxv
 BYTE   W01
 BYTE   VOL   1*BlackMarket_mvl/mxv
 BYTE   W03
 BYTE   VOL   1*BlackMarket_mvl/mxv
 BYTE   W02
 BYTE   VOL   0*BlackMarket_mvl/mxv
 BYTE   W02
 BYTE   VOL   0*BlackMarket_mvl/mxv
 BYTE   W02
 BYTE   EOT
 BYTE   Gn2  v062
 BYTE   VOL   0*BlackMarket_mvl/mxv
 BYTE   W01
 BYTE   VOL   0*BlackMarket_mvl/mxv
 BYTE   W36
 BYTE   VOL   26*BlackMarket_mvl/mxv
 BYTE   W11
//  #03 //030   ----------------------------------------
 BYTE   PATT
  POIN2 Label_01007B3D
 BYTE   FINE

//**************** Track 4 (Midi-Chn.3) ****************//

BlackMarket_004:
//  #04 //000   ----------------------------------------
 BYTE   KEYSH   BlackMarket_key+0
 BYTE   VOICE   30
 BYTE   W96
//  #04 //001   ----------------------------------------
 BYTE   W96
//  #04 //002   ----------------------------------------
 BYTE   W96
//  #04 //003   ----------------------------------------
 BYTE   W96
//  #04 //004   ----------------------------------------
 BYTE   W96
//  #04 //005   ----------------------------------------
 BYTE   W96
//  #04 //006   ----------------------------------------
 BYTE   W96
//  #04 //007   ----------------------------------------
 BYTE   W96
//  #04 //008   ----------------------------------------
 BYTE   W96
//  #04 //009   ----------------------------------------
 BYTE   W96
//  #04 //010   ----------------------------------------
Label_010075EE:
 BYTE   VOL   42*BlackMarket_mvl/mxv
 BYTE   W36
 BYTE   N06  Gn2  v096
 BYTE   N06  As2
 BYTE   W13
 BYTE   N03  As2  v060
 BYTE   W05
 BYTE   N06  Fn2  v096
 BYTE   N06  An2
 BYTE   W13
 BYTE   N03  An2  v060
 BYTE   W05
 BYTE   N06  En2  v096
 BYTE   N06  Gn2
 BYTE   W13
 BYTE   N03  Gn2  v060
 BYTE   W05
 BYTE   N06  Dn2  v096
 BYTE   N06  Fn2
 BYTE   W06
//  #04 //011   ----------------------------------------
Label_01007615:
 BYTE   W07
 BYTE   N03  Fn2  v060
 BYTE   W05
 BYTE   N06  Gn1  v096
 BYTE   N06  En2
 BYTE   W84
 BYTE   PEND 
//  #04 //012   ----------------------------------------
Label_01007621:
 BYTE   W36
 BYTE   N06  Gn2  v096
 BYTE   N06  As2
 BYTE   W13
 BYTE   N03  As2  v060
 BYTE   W05
 BYTE   N06  Fn2  v096
 BYTE   N06  An2
 BYTE   W13
 BYTE   N03  An2  v060
 BYTE   W05
 BYTE   N06  En2  v096
 BYTE   N06  Gn2
 BYTE   W13
 BYTE   N03  Gn2  v060
 BYTE   W05
 BYTE   N06  Dn2  v096
 BYTE   N06  Fn2
 BYTE   W06
 BYTE   PEND 
//  #04 //013   ----------------------------------------
 BYTE   PATT
  POIN2 Label_01007615
//  #04 //014   ----------------------------------------
 BYTE   PATT
  POIN2 Label_01007621
//  #04 //015   ----------------------------------------
 BYTE   W07
 BYTE   N03  Fn2  v060
 BYTE   W05
 BYTE   N06  Gn1  v096
 BYTE   N06  En2
 BYTE   W48
 BYTE   N03  As2  v076
 BYTE   W06
 BYTE   Fn3
 BYTE   W06
 BYTE   N03
 BYTE   W06
 BYTE   As2
 BYTE   W06
 BYTE   Fn3
 BYTE   W06
 BYTE   N03
 BYTE   W06
//  #04 //016   ----------------------------------------
 BYTE   W06
 BYTE   N06  Fn3  v088
 BYTE   W06
 BYTE   An3
 BYTE   W06
 BYTE   Fn3
 BYTE   W06
 BYTE   As3
 BYTE   W18
 BYTE   Fn2
 BYTE   W06
 BYTE   As3
 BYTE   W06
 BYTE   Fn4
 BYTE   W06
 BYTE   As3
 BYTE   W06
 BYTE   An3
 BYTE   W12
 BYTE   As3
 BYTE   W06
 BYTE   An3
 BYTE   W06
 BYTE   Fn3
 BYTE   W06
//  #04 //017   ----------------------------------------
 BYTE   W06
 BYTE   N03  Gn2  v056
 BYTE   W06
 BYTE   N06  As2
 BYTE   W06
 BYTE   An2
 BYTE   W78
//  #04 //018   ----------------------------------------
 BYTE   W96
//  #04 //019   ----------------------------------------
 BYTE   W96
//  #04 //020   ----------------------------------------
 BYTE   W96
//  #04 //021   ----------------------------------------
 BYTE   W96
//  #04 //022   ----------------------------------------
 BYTE   W96
//  #04 //023   ----------------------------------------
 BYTE   W96
//  #04 //024   ----------------------------------------
 BYTE   W96
//  #04 //025   ----------------------------------------
 BYTE   W96
//  #04 //026   ----------------------------------------
 BYTE   GoTo
  POIN2 Label_010075EE
//  #04 //027   ----------------------------------------
 BYTE   W96
//  #04 //028   ----------------------------------------
 BYTE   W96
//  #04 //029   ----------------------------------------
 BYTE   W96
//  #04 //030   ----------------------------------------
 BYTE   W96
 BYTE   FINE

//**************** Track 5 (Midi-Chn.4) ****************//

BlackMarket_005:
//  #05 //000   ----------------------------------------
 BYTE   KEYSH   BlackMarket_key+0
 BYTE   VOICE   30
 BYTE   W96
//  #05 //001   ----------------------------------------
 BYTE   W96
//  #05 //002   ----------------------------------------
 BYTE   W96
//  #05 //003   ----------------------------------------
 BYTE   W96
//  #05 //004   ----------------------------------------
 BYTE   W96
//  #05 //005   ----------------------------------------
 BYTE   W96
//  #05 //006   ----------------------------------------
 BYTE   W96
//  #05 //007   ----------------------------------------
 BYTE   W96
//  #05 //008   ----------------------------------------
 BYTE   W96
//  #05 //009   ----------------------------------------
 BYTE   W96
//  #05 //010   ----------------------------------------
Label_01007C6A:
 BYTE   W96
//  #05 //011   ----------------------------------------
 BYTE   W96
//  #05 //012   ----------------------------------------
 BYTE   W96
//  #05 //013   ----------------------------------------
 BYTE   W24
 BYTE   VOL   25*BlackMarket_mvl/mxv
 BYTE   PAN   c_v-45
 BYTE   VOL   25*BlackMarket_mvl/mxv
 BYTE   PAN   c_v-45
 BYTE   W11
 BYTE   N06  Fn2  v084
 BYTE   W01
 BYTE   As2
 BYTE   W06
 BYTE   Dn2
 BYTE   N06  Gn2
 BYTE   W10
 BYTE   PAN   c_v-45
 BYTE   W01
 BYTE   PAN   c_v+0
 BYTE   W01
 BYTE   PAN   c_v+44
 BYTE   W06
 BYTE   N06  Fn2
 BYTE   N06  As2
 BYTE   W06
 BYTE   Dn2
 BYTE   N06  Gn2
 BYTE   W30
//  #05 //014   ----------------------------------------
 BYTE   W96
//  #05 //015   ----------------------------------------
 BYTE   W96
//  #05 //016   ----------------------------------------
 BYTE   W96
//  #05 //017   ----------------------------------------
 BYTE   W24
 BYTE   PAN   c_v-45
 BYTE   W11
 BYTE   N06  Fn2
 BYTE   W01
 BYTE   As2
 BYTE   W06
 BYTE   Dn2
 BYTE   N06  Gn2
 BYTE   W10
 BYTE   PAN   c_v-45
 BYTE   W01
 BYTE   PAN   c_v+0
 BYTE   W01
 BYTE   PAN   c_v+44
 BYTE   W06
 BYTE   N06  Fn2
 BYTE   N06  As2
 BYTE   W06
 BYTE   Dn2
 BYTE   N06  Gn2
 BYTE   W30
//  #05 //018   ----------------------------------------
 BYTE   W96
//  #05 //019   ----------------------------------------
 BYTE   W96
//  #05 //020   ----------------------------------------
 BYTE   W96
//  #05 //021   ----------------------------------------
 BYTE   W96
//  #05 //022   ----------------------------------------
 BYTE   W96
//  #05 //023   ----------------------------------------
 BYTE   W96
//  #05 //024   ----------------------------------------
 BYTE   W96
//  #05 //025   ----------------------------------------
 BYTE   W96
//  #05 //026   ----------------------------------------
 BYTE   GoTo
  POIN2 Label_01007C6A
//  #05 //027   ----------------------------------------
 BYTE   W96
//  #05 //028   ----------------------------------------
 BYTE   W96
//  #05 //029   ----------------------------------------
 BYTE   W96
//  #05 //030   ----------------------------------------
 BYTE   VOL   22*BlackMarket_mvl/mxv
 BYTE   PAN   c_v+44
 BYTE   W24
 BYTE   PAN   c_v-45
 BYTE   W11
 BYTE   N06  Fn2  v088
 BYTE   W01
 BYTE   As2
 BYTE   W06
 BYTE   Dn2
 BYTE   N06  Gn2
 BYTE   W10
 BYTE   PAN   c_v-45
 BYTE   W01
 BYTE   PAN   c_v+0
 BYTE   W01
 BYTE   PAN   c_v+44
 BYTE   W06
 BYTE   N06  Fn2
 BYTE   N06  As2
 BYTE   W06
 BYTE   Dn2
 BYTE   N06  Gn2
 BYTE   W04
 BYTE   PAN   c_v+44
 BYTE   W01
 BYTE   PAN   c_v+44
 BYTE   W01
 BYTE   PAN   c_v-41
 BYTE   N06  Fn2  v060
 BYTE   N06  As2
 BYTE   W06
 BYTE   Dn2
 BYTE   N06  Gn2
 BYTE   W18
 BYTE   FINE

//**************** Track 6 (Midi-Chn.5) ****************//

BlackMarket_006:
//  #06 //000   ----------------------------------------
 BYTE   VOL   50*BlackMarket_mvl/mxv
 BYTE   KEYSH   BlackMarket_key+0
 BYTE   VOICE   124
 BYTE   N06  Cn1  v096
 BYTE   W24
 BYTE   Dn1
 BYTE   W12
 BYTE   Fs1  v076
 BYTE   W12
 BYTE   Cn1  v096
 BYTE   W24
 BYTE   Dn1
 BYTE   W06
 BYTE   Fs1  v076
 BYTE   W18
//  #06 //001   ----------------------------------------
 BYTE   Cn1  v096
 BYTE   W24
 BYTE   Dn1
 BYTE   W12
 BYTE   Fs1  v076
 BYTE   N06  An1  v096
 BYTE   W06
 BYTE   N06
 BYTE   W06
 BYTE   Cn1
 BYTE   W06
 BYTE   Gn1
 BYTE   W06
 BYTE   N06
 BYTE   W12
 BYTE   Dn1
 BYTE   N06  Fn1
 BYTE   W06
 BYTE   N06
 BYTE   N06  Fs1  v076
 BYTE   W06
 BYTE   Ds1  v092
 BYTE   N06  Fn1  v068
 BYTE   W12
//  #06 //002   ----------------------------------------
Label_0100806D:
 BYTE   N12  Cn1  v096
 BYTE   N06  Gs1  v052
 BYTE   N06  Ds2  v064
 BYTE   W12
 BYTE   Gs1  v080
 BYTE   N06  Fn4  v048
 BYTE   W06
 BYTE   N03  Gs1  v044
 BYTE   N06  Fn4  v048
 BYTE   W06
 BYTE   N12  Dn1  v096
 BYTE   N06  Gs1  v076
 BYTE   W12
 BYTE   Gs1  v080
 BYTE   W12
 BYTE   N12  Cn1  v096
 BYTE   N06  Gs1  v076
 BYTE   W12
 BYTE   Gs1  v048
 BYTE   N06  Fn4
 BYTE   W06
 BYTE   N06
 BYTE   W06
 BYTE   N12  Dn1  v096
 BYTE   N06  Gs1  v072
 BYTE   W12
 BYTE   Gs1  v092
 BYTE   W12
 BYTE   PEND 
//  #06 //003   ----------------------------------------
Label_010080A7:
 BYTE   N12  Cn1  v096
 BYTE   N06  Gs1  v052
 BYTE   W12
 BYTE   Gs1  v080
 BYTE   N06  Fn4  v048
 BYTE   W06
 BYTE   N03  Gs1  v044
 BYTE   N06  Fn4  v048
 BYTE   W06
 BYTE   N12  Dn1  v096
 BYTE   N06  Gs1  v076
 BYTE   W12
 BYTE   Gs1  v072
 BYTE   W12
 BYTE   N12  Cn1  v096
 BYTE   N06  Gs1  v076
 BYTE   W12
 BYTE   Gs1  v060
 BYTE   N06  Fn4  v048
 BYTE   W06
 BYTE   N06
 BYTE   W06
 BYTE   N12  Dn1  v096
 BYTE   N06  Gs1  v072
 BYTE   W06
 BYTE   Gs1  v040
 BYTE   W06
 BYTE   Gs1  v068
 BYTE   W12
 BYTE   PEND 
//  #06 //004   ----------------------------------------
Label_010080E2:
 BYTE   N12  Cn1  v096
 BYTE   N06  Gs1  v052
 BYTE   W12
 BYTE   Gs1  v080
 BYTE   N06  Fn4  v048
 BYTE   W06
 BYTE   N03  Gs1  v044
 BYTE   N06  Fn4  v048
 BYTE   W06
 BYTE   N12  Dn1  v096
 BYTE   N06  Gs1  v076
 BYTE   W12
 BYTE   N06
 BYTE   W12
 BYTE   N12  Cn1  v096
 BYTE   N06  Gs1  v076
 BYTE   W12
 BYTE   Gs1  v048
 BYTE   N06  Fn4
 BYTE   W06
 BYTE   N06
 BYTE   W06
 BYTE   N12  Dn1  v096
 BYTE   N06  Gs1  v072
 BYTE   W12
 BYTE   Gs1  v076
 BYTE   W12
 BYTE   PEND 
//  #06 //005   ----------------------------------------
Label_01008118:
 BYTE   N12  Cn1  v096
 BYTE   N06  Gs1  v052
 BYTE   W12
 BYTE   Gs1  v080
 BYTE   N06  Fn4  v048
 BYTE   W06
 BYTE   N03  Gs1  v044
 BYTE   N06  Fn4  v048
 BYTE   W06
 BYTE   N12  Dn1  v096
 BYTE   N06  Gs1  v076
 BYTE   W12
 BYTE   Gs1  v048
 BYTE   W12
 BYTE   N12  Cn1  v096
 BYTE   N06  Gs1  v076
 BYTE   W12
 BYTE   Gs1  v048
 BYTE   N06  Fn4
 BYTE   W06
 BYTE   Gs1  v044
 BYTE   N06  Fn4  v048
 BYTE   W06
 BYTE   N12  Dn1  v096
 BYTE   N06  Gs1  v072
 BYTE   W06
 BYTE   Gs1  v032
 BYTE   W06
 BYTE   Gs1  v068
 BYTE   W12
 BYTE   PEND 
//  #06 //006   ----------------------------------------
Label_01008156:
 BYTE   N12  Cn1  v096
 BYTE   N06  Gs1  v052
 BYTE   W12
 BYTE   Gs1  v080
 BYTE   N06  Fn4  v048
 BYTE   W06
 BYTE   N03  Gs1  v044
 BYTE   N06  Fn4  v048
 BYTE   W06
 BYTE   N12  Dn1  v096
 BYTE   N06  Gs1  v076
 BYTE   W12
 BYTE   Gs1  v080
 BYTE   W12
 BYTE   N12  Cn1  v096
 BYTE   N06  Gs1  v076
 BYTE   W12
 BYTE   Gs1  v048
 BYTE   N06  Fn4
 BYTE   W06
 BYTE   N06
 BYTE   W06
 BYTE   N12  Dn1  v096
 BYTE   N06  Gs1  v072
 BYTE   W12
 BYTE   Gs1  v092
 BYTE   W12
 BYTE   PEND 
//  #06 //007   ----------------------------------------
 BYTE   PATT
  POIN2 Label_010080A7
//  #06 //008   ----------------------------------------
 BYTE   PATT
  POIN2 Label_010080E2
//  #06 //009   ----------------------------------------
Label_01008197:
 BYTE   N12  Cn1  v096
 BYTE   N06  Gs1  v052
 BYTE   W12
 BYTE   Gs1  v080
 BYTE   N06  Fn4  v048
 BYTE   W06
 BYTE   N03  Gs1  v044
 BYTE   N06  Fn4  v048
 BYTE   W06
 BYTE   N12  Dn1  v096
 BYTE   N06  Gs1  v076
 BYTE   W12
 BYTE   Gs1  v048
 BYTE   N06  Bn1  v100
 BYTE   W06
 BYTE   N06
 BYTE   W06
 BYTE   N12  Cn1  v096
 BYTE   N06  Gs1  v076
 BYTE   W06
 BYTE   An1  v100
 BYTE   W06
 BYTE   Gs1  v048
 BYTE   N06  An1  v100
 BYTE   N06  Fn4  v048
 BYTE   W06
 BYTE   Gs1  v044
 BYTE   N06  Fn4  v048
 BYTE   W06
 BYTE   N12  Dn1  v096
 BYTE   N06  Fn1  v100
 BYTE   N06  Gs1  v072
 BYTE   W06
 BYTE   Fn1  v100
 BYTE   N06  Gs1  v032
 BYTE   W06
 BYTE   Fn1  v084
 BYTE   N06  Gs1  v068
 BYTE   W12
 BYTE   PEND 
//  #06 //010   ----------------------------------------
Label_010081EA:
//  #06 //011   ----------------------------------------
 BYTE   PATT
  POIN2 Label_0100806D
//  #06 //012   ----------------------------------------
 BYTE   PATT
  POIN2 Label_010080A7
//  #06 //013   ----------------------------------------
 BYTE   PATT
  POIN2 Label_010080E2
//  #06 //014   ----------------------------------------
 BYTE   PATT
  POIN2 Label_01008118
//  #06 //015   ----------------------------------------
 BYTE   PATT
  POIN2 Label_01008156
//  #06 //016   ----------------------------------------
 BYTE   PATT
  POIN2 Label_010080A7
//  #06 //017   ----------------------------------------
 BYTE   PATT
  POIN2 Label_010080E2
//  #06 //018   ----------------------------------------
 BYTE   PATT
  POIN2 Label_01008197
//  #06 //019   ----------------------------------------
 BYTE   PATT
  POIN2 Label_0100806D
//  #06 //020   ----------------------------------------
 BYTE   PATT
  POIN2 Label_010080A7
//  #06 //021   ----------------------------------------
 BYTE   PATT
  POIN2 Label_010080E2
//  #06 //022   ----------------------------------------
 BYTE   PATT
  POIN2 Label_01008118
//  #06 //023   ----------------------------------------
 BYTE   PATT
  POIN2 Label_01008156
//  #06 //024   ----------------------------------------
 BYTE   PATT
  POIN2 Label_010080A7
//  #06 //025   ----------------------------------------
 BYTE   PATT
  POIN2 Label_010080E2
//  #06 //026   ----------------------------------------
 BYTE   PATT
  POIN2 Label_01008197
//  #06 //027   ----------------------------------------
 BYTE   GoTo
  POIN2 Label_010081EA
//  #06 //028   ----------------------------------------
 BYTE   PATT
  POIN2 Label_01008156
//  #06 //029   ----------------------------------------
 BYTE   PATT
  POIN2 Label_010080A7
//  #06 //030   ----------------------------------------
 BYTE   PATT
  POIN2 Label_010080E2
//  #06 //031   ----------------------------------------
 BYTE   N12  Cn1  v096
 BYTE   N06  Gs1  v052
 BYTE   N03  Fn4  v048
 BYTE   W24
 BYTE   N12  Dn1  v096
 BYTE   W12
 BYTE   N06  Gs1  v068
 BYTE   W12
 BYTE   N12  Cn1  v096
 BYTE   W30
 BYTE   N09  An1
 BYTE   N06  Cs2
 BYTE   W06
 BYTE   Ds1
 BYTE   W12
 BYTE   FINE

//******************************************************//
	ALIGN 4

BlackMarket:
	BYTE	6	// NumTrks
	BYTE	0	// NumBlks
	BYTE	BlackMarket_pri	// Priority
	BYTE	BlackMarket_rev	// Reverb.
    
	POIN2	BlackMarket_grp
    
	POIN2	BlackMarket_001
	POIN2	BlackMarket_002
	POIN2	BlackMarket_003
	POIN2	BlackMarket_004
	POIN2	BlackMarket_005
	POIN2	BlackMarket_006

	
