//Event file generated from Sappy .s format.
	#include "MPlayDef.event"

	#define	BloodstainedLineage_grp  voicegroup000
	#define	BloodstainedLineage_pri  0
	#define	BloodstainedLineage_rev  0
	#define	BloodstainedLineage_mvl  127
	#define	BloodstainedLineage_key  0
	#define	BloodstainedLineage_tbs  1
	#define	BloodstainedLineage_exg  0
	#define	BloodstainedLineage_cmp  1

	// .rodata
	//	BloodstainedLineage
	ALIGN 4


//**************** Track 1 (Midi-Chn.0) ****************//

BloodstainedLineage_001:
//  #01 //000   ----------------------------------------
 BYTE   KEYSH   BloodstainedLineage_key+0
 BYTE   TEMPO   158*BloodstainedLineage_tbs/2
 BYTE   VOICE   110
 BYTE   PAN   c_v+16
 BYTE   VOL   30*BloodstainedLineage_mvl/mxv
 BYTE   N68  En2  v092
 BYTE   N68  En3
 BYTE   W72
 BYTE   N11  Ds2
 BYTE   N11  Ds3
 BYTE   W12
 BYTE   En2
 BYTE   N11  En3
 BYTE   W12
//  #01 //001   ----------------------------------------
 BYTE   N44  Gn2
 BYTE   N44  Gn3
 BYTE   W48
 BYTE   Fs2
 BYTE   N44  An2
 BYTE   N44  Fs3
 BYTE   W48
//  #01 //002   ----------------------------------------
 BYTE   N92  Cn2
 BYTE   N92  Ds2
 BYTE   N92  Ds3
 BYTE   W96
//  #01 //003   ----------------------------------------
 BYTE   N44  Bn1
 BYTE   N44  En2
 BYTE   N44  En3
 BYTE   W48
 BYTE   Ds2
 BYTE   N44  Fs2
 BYTE   N44  Fs3
 BYTE   W48
//  #01 //004   ----------------------------------------
 BYTE   N92  En2
 BYTE   N92  Gn2
 BYTE   N92  Gn3
 BYTE   W96
//  #01 //005   ----------------------------------------
 BYTE   N44  Ds2
 BYTE   N44  An2
 BYTE   N44  An3
 BYTE   W48
 BYTE   En2
 BYTE   N44  Bn2
 BYTE   N44  Bn3
 BYTE   W48
//  #01 //006   ----------------------------------------
 BYTE   TIE  Gn2
 BYTE   TIE  Cn3
 BYTE   TIE  Cn4
 BYTE   W96
//  #01 //007   ----------------------------------------
 BYTE   W92
 BYTE   W03
 BYTE   EOT
 BYTE   Gn2  v060
 BYTE   Cn4
 BYTE   W01
//  #01 //008   ----------------------------------------
 BYTE   TIE  Fs2
 BYTE   TIE  Bn2
 BYTE   TIE  Bn3
 BYTE   W96
//  #01 //009   ----------------------------------------
 BYTE   W92
 BYTE   W03
 BYTE   EOT
 BYTE   Fs2  v059
 BYTE   Bn3
 BYTE   W01
//  #01 //010   ----------------------------------------
 BYTE   TEMPO   320*BloodstainedLineage_tbs/2
 BYTE   TIE  Bn2
 BYTE   TIE  En3
 BYTE   W96
//  #01 //011   ----------------------------------------
 BYTE   W92
 BYTE   W03
 BYTE   EOT
 BYTE   Bn2  v064
 BYTE   W01
//  #01 //012   ----------------------------------------
 BYTE   TIE  Gn3
 BYTE   TIE  Cn4
 BYTE   W96
//  #01 //013   ----------------------------------------
 BYTE   W92
 BYTE   W03
 BYTE   EOT
 BYTE   Gn3  v072
 BYTE   W01
//  #01 //014   ----------------------------------------
Label_010054E4:
 BYTE   TIE  Bn2  v092
 BYTE   TIE  En3
 BYTE   W96
 BYTE   PEND 
//  #01 //015   ----------------------------------------
 BYTE   N92  En4
 BYTE   W92
 BYTE   W03
 BYTE   EOT
 BYTE   Bn2  v064
 BYTE   W01
//  #01 //016   ----------------------------------------
 BYTE   N68
 BYTE   N68  Gn3
 BYTE   W72
 BYTE   Dn3
 BYTE   N68  Fs3
 BYTE   W24
//  #01 //017   ----------------------------------------
 BYTE   W48
 BYTE   N44  Cn3
 BYTE   N44  Fn3
 BYTE   W48
//  #01 //018   ----------------------------------------
 BYTE   PATT
  POIN2 Label_010054E4
//  #01 //019   ----------------------------------------
 BYTE   N44  Bn4  v092
 BYTE   W48
 BYTE   Gn4
 BYTE   W44
 BYTE   W03
 BYTE   EOT
 BYTE   Bn2  v064
 BYTE   W01
//  #01 //020   ----------------------------------------
 BYTE   N92  Cn3
 BYTE   N92  Fn3
 BYTE   W96
//  #01 //021   ----------------------------------------
 BYTE   Dn3
 BYTE   N92  Gn3
 BYTE   W96
//  #01 //022   ----------------------------------------
Label_0100551A:
 BYTE   W96
//  #01 //023   ----------------------------------------
 BYTE   W96
//  #01 //024   ----------------------------------------
 BYTE   W96
//  #01 //025   ----------------------------------------
 BYTE   W96
//  #01 //026   ----------------------------------------
 BYTE   W96
//  #01 //027   ----------------------------------------
 BYTE   W96
//  #01 //028   ----------------------------------------
 BYTE   W96
//  #01 //029   ----------------------------------------
 BYTE   W96
//  #01 //030   ----------------------------------------
 BYTE   PATT
  POIN2 Label_010054E4
//  #01 //031   ----------------------------------------
 BYTE   W92
 BYTE   W03
 BYTE   EOT
 BYTE   Bn2  v064
 BYTE   W01
//  #01 //032   ----------------------------------------
Label_0100552D:
 BYTE   TIE  En3  v092
 BYTE   TIE  Bn3
 BYTE   W96
 BYTE   PEND 
//  #01 //033   ----------------------------------------
 BYTE   W92
 BYTE   W03
 BYTE   EOT
 BYTE   En3  v071
 BYTE   W01
//  #01 //034   ----------------------------------------
Label_0100553A:
 BYTE   TIE  Gn3  v092
 BYTE   TIE  Cs4
 BYTE   W96
 BYTE   PEND 
//  #01 //035   ----------------------------------------
 BYTE   W92
 BYTE   W03
 BYTE   EOT
 BYTE   Gn3  v073
 BYTE   W01
//  #01 //036   ----------------------------------------
Label_01005547:
 BYTE   TIE  An3  v092
 BYTE   TIE  Dn4
 BYTE   W96
 BYTE   PEND 
//  #01 //037   ----------------------------------------
 BYTE   W68
 BYTE   W03
 BYTE   EOT
 BYTE   W24
 BYTE   EOT
 BYTE   An3
 BYTE   W01
//  #01 //038   ----------------------------------------
 BYTE   PATT
  POIN2 Label_01005547
//  #01 //039   ----------------------------------------
 BYTE   W92
 BYTE   W03
 BYTE   EOT
 BYTE   An3  v074
 BYTE   W01
//  #01 //040   ----------------------------------------
 BYTE   PATT
  POIN2 Label_0100553A
//  #01 //041   ----------------------------------------
 BYTE   W92
 BYTE   W03
 BYTE   EOT
 BYTE   Gn3  v073
 BYTE   W01
//  #01 //042   ----------------------------------------
 BYTE   PATT
  POIN2 Label_01005547
//  #01 //043   ----------------------------------------
 BYTE   W92
 BYTE   W03
 BYTE   EOT
 BYTE   An3  v074
 BYTE   W01
//  #01 //044   ----------------------------------------
 BYTE   PATT
  POIN2 Label_0100552D
//  #01 //045   ----------------------------------------
 BYTE   W92
 BYTE   W03
 BYTE   EOT
 BYTE   En3  v071
 BYTE   W01
//  #01 //046   ----------------------------------------
 BYTE   W96
//  #01 //047   ----------------------------------------
 BYTE   W96
//  #01 //048   ----------------------------------------
 BYTE   W96
//  #01 //049   ----------------------------------------
 BYTE   W96
//  #01 //050   ----------------------------------------
 BYTE   W96
//  #01 //051   ----------------------------------------
 BYTE   W96
//  #01 //052   ----------------------------------------
Label_01005587:
 BYTE   TIE  Gn2  v092
 BYTE   TIE  Bn2
 BYTE   W96
 BYTE   PEND 
//  #01 //053   ----------------------------------------
 BYTE   W92
 BYTE   W03
 BYTE   EOT
 BYTE   Gn2  v059
 BYTE   W01
//  #01 //054   ----------------------------------------
Label_01005594:
 BYTE   TIE  An2  v092
 BYTE   TIE  Cn3
 BYTE   W96
 BYTE   PEND 
//  #01 //055   ----------------------------------------
 BYTE   W92
 BYTE   W03
 BYTE   EOT
 BYTE   An2  v060
 BYTE   W01
//  #01 //056   ----------------------------------------
Label_010055A1:
 BYTE   TIE  An2  v092
 BYTE   TIE  Cs3
 BYTE   W96
 BYTE   PEND 
//  #01 //057   ----------------------------------------
 BYTE   W92
 BYTE   W03
 BYTE   EOT
 BYTE   An2  v061
 BYTE   W01
//  #01 //058   ----------------------------------------
 BYTE   PATT
  POIN2 Label_01005594
//  #01 //059   ----------------------------------------
 BYTE   W92
 BYTE   W03
 BYTE   EOT
 BYTE   An2  v060
 BYTE   W01
//  #01 //060   ----------------------------------------
 BYTE   PATT
  POIN2 Label_01005587
//  #01 //061   ----------------------------------------
 BYTE   W92
 BYTE   W03
 BYTE   EOT
 BYTE   Gn2  v059
 BYTE   W01
//  #01 //062   ----------------------------------------
 BYTE   PATT
  POIN2 Label_01005594
//  #01 //063   ----------------------------------------
 BYTE   W92
 BYTE   W03
 BYTE   EOT
 BYTE   An2  v060
 BYTE   W01
//  #01 //064   ----------------------------------------
 BYTE   PATT
  POIN2 Label_010055A1
//  #01 //065   ----------------------------------------
 BYTE   W92
 BYTE   W03
 BYTE   EOT
 BYTE   An2  v061
 BYTE   W01
//  #01 //066   ----------------------------------------
 BYTE   PATT
  POIN2 Label_01005594
//  #01 //067   ----------------------------------------
 BYTE   W92
 BYTE   W03
 BYTE   EOT
 BYTE   An2  v060
 BYTE   W01
//  #01 //068   ----------------------------------------
Label_010055E5:
 BYTE   N11  En3  v092
 BYTE   N11  Gn3
 BYTE   N11  Bn3
 BYTE   W72
 BYTE   En3
 BYTE   N11  Gn3
 BYTE   N11  Bn3
 BYTE   W24
 BYTE   PEND 
//  #01 //069   ----------------------------------------
Label_010055F4:
 BYTE   W24
 BYTE   N44  En3  v092
 BYTE   N44  Gn3
 BYTE   N44  Bn3
 BYTE   W72
 BYTE   PEND 
//  #01 //070   ----------------------------------------
Label_010055FE:
 BYTE   TIE  Dn3  v092
 BYTE   TIE  Fn3
 BYTE   TIE  An3
 BYTE   W96
 BYTE   PEND 
//  #01 //071   ----------------------------------------
 BYTE   W92
 BYTE   W03
 BYTE   EOT
 BYTE   Dn3  v065
 BYTE   An3
 BYTE   W01
//  #01 //072   ----------------------------------------
Label_0100560E:
 BYTE   TIE  Bn2  v092
 BYTE   TIE  Ds3
 BYTE   TIE  Fs3
 BYTE   W96
 BYTE   PEND 
//  #01 //073   ----------------------------------------
 BYTE   W92
 BYTE   W03
 BYTE   EOT
 BYTE   Bn2  v063
 BYTE   Fs3
 BYTE   W01
//  #01 //074   ----------------------------------------
Label_0100561E:
 BYTE   TIE  An2  v092
 BYTE   TIE  Cn3
 BYTE   TIE  En3
 BYTE   W96
 BYTE   PEND 
//  #01 //075   ----------------------------------------
 BYTE   W92
 BYTE   W03
 BYTE   EOT
 BYTE   An2  v060
 BYTE   En3
 BYTE   W01
//  #01 //076   ----------------------------------------
 BYTE   PATT
  POIN2 Label_010055E5
//  #01 //077   ----------------------------------------
 BYTE   PATT
  POIN2 Label_010055F4
//  #01 //078   ----------------------------------------
 BYTE   PATT
  POIN2 Label_010055FE
//  #01 //079   ----------------------------------------
 BYTE   W92
 BYTE   W03
 BYTE   EOT
 BYTE   Dn3  v065
 BYTE   An3
 BYTE   W01
//  #01 //080   ----------------------------------------
 BYTE   PATT
  POIN2 Label_0100560E
//  #01 //081   ----------------------------------------
 BYTE   W92
 BYTE   W03
 BYTE   EOT
 BYTE   Bn2  v063
 BYTE   Fs3
 BYTE   W01
//  #01 //082   ----------------------------------------
 BYTE   PATT
  POIN2 Label_0100561E
//  #01 //083   ----------------------------------------
 BYTE   W92
 BYTE   W03
 BYTE   EOT
 BYTE   An2  v060
 BYTE   En3
 BYTE   W01
//  #01 //084   ----------------------------------------
 BYTE   PATT
  POIN2 Label_01005587
//  #01 //085   ----------------------------------------
 BYTE   W92
 BYTE   W03
 BYTE   EOT
 BYTE   Gn2  v059
 BYTE   W01
//  #01 //086   ----------------------------------------
 BYTE   PATT
  POIN2 Label_01005594
//  #01 //087   ----------------------------------------
 BYTE   W92
 BYTE   W03
 BYTE   EOT
 BYTE   An2  v060
 BYTE   W01
//  #01 //088   ----------------------------------------
 BYTE   PATT
  POIN2 Label_010055A1
//  #01 //089   ----------------------------------------
 BYTE   W92
 BYTE   W03
 BYTE   EOT
 BYTE   An2  v061
 BYTE   W01
//  #01 //090   ----------------------------------------
 BYTE   PATT
  POIN2 Label_01005594
//  #01 //091   ----------------------------------------
 BYTE   W92
 BYTE   W03
 BYTE   EOT
 BYTE   An2  v060
 BYTE   W01
//  #01 //092   ----------------------------------------
 BYTE   PATT
  POIN2 Label_01005587
//  #01 //093   ----------------------------------------
 BYTE   W92
 BYTE   W03
 BYTE   EOT
 BYTE   Gn2  v059
 BYTE   W01
//  #01 //094   ----------------------------------------
 BYTE   PATT
  POIN2 Label_01005594
//  #01 //095   ----------------------------------------
 BYTE   W92
 BYTE   W03
 BYTE   EOT
 BYTE   An2  v060
 BYTE   W01
//  #01 //096   ----------------------------------------
 BYTE   PATT
  POIN2 Label_010055A1
//  #01 //097   ----------------------------------------
 BYTE   W92
 BYTE   W03
 BYTE   EOT
 BYTE   An2  v061
 BYTE   W01
//  #01 //098   ----------------------------------------
 BYTE   PATT
  POIN2 Label_01005594
//  #01 //099   ----------------------------------------
 BYTE   W92
 BYTE   W03
 BYTE   EOT
 BYTE   An2  v060
 BYTE   W01
//  #01 //100   ----------------------------------------
 BYTE   PATT
  POIN2 Label_010055E5
//  #01 //101   ----------------------------------------
 BYTE   PATT
  POIN2 Label_010055F4
//  #01 //102   ----------------------------------------
 BYTE   PATT
  POIN2 Label_010055FE
//  #01 //103   ----------------------------------------
 BYTE   W92
 BYTE   W03
 BYTE   EOT
 BYTE   Dn3  v065
 BYTE   An3
 BYTE   W01
//  #01 //104   ----------------------------------------
 BYTE   PATT
  POIN2 Label_0100560E
//  #01 //105   ----------------------------------------
 BYTE   W92
 BYTE   W03
 BYTE   EOT
 BYTE   Bn2  v063
 BYTE   Fs3
 BYTE   W01
//  #01 //106   ----------------------------------------
 BYTE   PATT
  POIN2 Label_0100561E
//  #01 //107   ----------------------------------------
 BYTE   W92
 BYTE   W03
 BYTE   EOT
 BYTE   An2  v060
 BYTE   En3
 BYTE   W01
//  #01 //108   ----------------------------------------
 BYTE   PATT
  POIN2 Label_010055E5
//  #01 //109   ----------------------------------------
 BYTE   PATT
  POIN2 Label_010055F4
//  #01 //110   ----------------------------------------
 BYTE   PATT
  POIN2 Label_010055FE
//  #01 //111   ----------------------------------------
 BYTE   W92
 BYTE   W03
 BYTE   EOT
 BYTE   Dn3  v065
 BYTE   An3
 BYTE   W01
//  #01 //112   ----------------------------------------
 BYTE   PATT
  POIN2 Label_0100560E
//  #01 //113   ----------------------------------------
 BYTE   W92
 BYTE   W03
 BYTE   EOT
 BYTE   Bn2  v063
 BYTE   Fs3
 BYTE   W01
//  #01 //114   ----------------------------------------
 BYTE   PATT
  POIN2 Label_0100561E
//  #01 //115   ----------------------------------------
 BYTE   W92
 BYTE   W03
 BYTE   EOT
 BYTE   An2  v060
 BYTE   En3
 BYTE   W01
//  #01 //116   ----------------------------------------
 BYTE   W96
//  #01 //117   ----------------------------------------
 BYTE   W96
//  #01 //118   ----------------------------------------
 BYTE   W96
//  #01 //119   ----------------------------------------
 BYTE   W96
//  #01 //120   ----------------------------------------
 BYTE   W96
//  #01 //121   ----------------------------------------
 BYTE   W96
//  #01 //122   ----------------------------------------
 BYTE   W96
//  #01 //123   ----------------------------------------
 BYTE   W96
//  #01 //124   ----------------------------------------
 BYTE   W96
//  #01 //125   ----------------------------------------
 BYTE   W96
//  #01 //126   ----------------------------------------
 BYTE   W96
//  #01 //127   ----------------------------------------
 BYTE   W96
//  #01 //128   ----------------------------------------
 BYTE   W96
//  #01 //129   ----------------------------------------
 BYTE   W96
//  #01 //130   ----------------------------------------
 BYTE   W96
//  #01 //131   ----------------------------------------
 BYTE   W96
//  #01 //132   ----------------------------------------
 BYTE   W96
//  #01 //133   ----------------------------------------
 BYTE   W96
//  #01 //134   ----------------------------------------
 BYTE   W96
//  #01 //135   ----------------------------------------
 BYTE   W96
//  #01 //136   ----------------------------------------
 BYTE   W96
//  #01 //137   ----------------------------------------
 BYTE   W96
//  #01 //138   ----------------------------------------
 BYTE   W96
//  #01 //139   ----------------------------------------
Label_01005727:
 BYTE   N11  Bn3  v092
 BYTE   N11  Bn4
 BYTE   W12
 BYTE   An3
 BYTE   N11  An4
 BYTE   W12
 BYTE   Gn3
 BYTE   N11  Gn4
 BYTE   W12
 BYTE   Fn3
 BYTE   N11  Fn4
 BYTE   W12
 BYTE   En3
 BYTE   N11  En4
 BYTE   W12
 BYTE   Ds3
 BYTE   N11  Ds4
 BYTE   W12
 BYTE   Cn3
 BYTE   N11  Cn4
 BYTE   W12
 BYTE   Bn2
 BYTE   N11  Bn3
 BYTE   W12
 BYTE   PEND 
//  #01 //140   ----------------------------------------
Label_0100574A:
 BYTE   N68  En3  v092
 BYTE   N68  An3
 BYTE   W72
 BYTE   TIE  Gn3
 BYTE   TIE  Bn3
 BYTE   W24
 BYTE   PEND 
//  #01 //141   ----------------------------------------
 BYTE   W92
 BYTE   W03
 BYTE   EOT
 BYTE   Gn3  v071
 BYTE   W01
//  #01 //142   ----------------------------------------
 BYTE   N92  Gn3
 BYTE   N92  Bn3
 BYTE   W96
//  #01 //143   ----------------------------------------
Label_01005761:
 BYTE   N32  Bn3  v092
 BYTE   N32  Dn4
 BYTE   W36
 BYTE   An3
 BYTE   N32  Cn4
 BYTE   W36
 BYTE   N23  Gn3
 BYTE   N23  Bn3
 BYTE   W24
 BYTE   PEND 
//  #01 //144   ----------------------------------------
 BYTE   N92  En3
 BYTE   N92  An3
 BYTE   W96
//  #01 //145   ----------------------------------------
 BYTE   Ds3
 BYTE   N92  Gn3
 BYTE   W96
//  #01 //146   ----------------------------------------
Label_0100577A:
 BYTE   TIE  Gn3  v092
 BYTE   TIE  Bn3
 BYTE   W96
 BYTE   PEND 
//  #01 //147   ----------------------------------------
 BYTE   W92
 BYTE   W03
 BYTE   EOT
 BYTE   Gn3  v071
 BYTE   W01
//  #01 //148   ----------------------------------------
Label_01005787:
 BYTE   N11  An2  v092
 BYTE   W12
 BYTE   Bn2
 BYTE   W12
 BYTE   Fs3
 BYTE   W12
 BYTE   Cn3
 BYTE   W12
 BYTE   An2
 BYTE   W12
 BYTE   Bn2
 BYTE   W12
 BYTE   Cn3
 BYTE   W12
 BYTE   Bn2
 BYTE   W12
 BYTE   PEND 
//  #01 //149   ----------------------------------------
Label_0100579A:
 BYTE   N11  Fs3  v092
 BYTE   W12
 BYTE   Bn2
 BYTE   W12
 BYTE   An2
 BYTE   W12
 BYTE   Cn3
 BYTE   W12
 BYTE   An2
 BYTE   W12
 BYTE   Bn2
 BYTE   W12
 BYTE   Cn3
 BYTE   W12
 BYTE   Bn2
 BYTE   W12
 BYTE   PEND 
//  #01 //150   ----------------------------------------
Label_010057AD:
 BYTE   N11  An2  v092
 BYTE   W12
 BYTE   Bn2
 BYTE   W12
 BYTE   Fs3
 BYTE   W12
 BYTE   Bn2
 BYTE   W12
 BYTE   An2
 BYTE   W12
 BYTE   Bn2
 BYTE   W12
 BYTE   Cn3
 BYTE   W12
 BYTE   Bn2
 BYTE   W12
 BYTE   PEND 
//  #01 //151   ----------------------------------------
 BYTE   PATT
  POIN2 Label_0100579A
//  #01 //152   ----------------------------------------
 BYTE   W96
//  #01 //153   ----------------------------------------
 BYTE   W96
//  #01 //154   ----------------------------------------
Label_010057C7:
 BYTE   N11  Bn3  v092
 BYTE   W12
 BYTE   En3
 BYTE   W12
 BYTE   An3
 BYTE   W12
 BYTE   En3
 BYTE   W12
 BYTE   N11
 BYTE   W12
 BYTE   N11
 BYTE   W12
 BYTE   Cn4
 BYTE   W12
 BYTE   En3
 BYTE   W12
 BYTE   PEND 
//  #01 //155   ----------------------------------------
Label_010057DA:
 BYTE   N11  Fs3  v092
 BYTE   W12
 BYTE   Bn3
 BYTE   W12
 BYTE   Fs3
 BYTE   W12
 BYTE   N11
 BYTE   W12
 BYTE   Cn4
 BYTE   W12
 BYTE   Bn3
 BYTE   W12
 BYTE   An3
 BYTE   W12
 BYTE   Fs3
 BYTE   W12
 BYTE   PEND 
//  #01 //156   ----------------------------------------
 BYTE   PATT
  POIN2 Label_0100574A
//  #01 //157   ----------------------------------------
 BYTE   W92
 BYTE   W03
 BYTE   EOT
 BYTE   Gn3  v071
 BYTE   W01
//  #01 //158   ----------------------------------------
 BYTE   N92  Gn3  v092
 BYTE   N92  Bn3
 BYTE   W96
//  #01 //159   ----------------------------------------
 BYTE   PATT
  POIN2 Label_01005761
//  #01 //160   ----------------------------------------
 BYTE   N92  En3  v092
 BYTE   N92  An3
 BYTE   W96
//  #01 //161   ----------------------------------------
 BYTE   Ds3
 BYTE   N92  Gn3
 BYTE   W96
//  #01 //162   ----------------------------------------
 BYTE   PATT
  POIN2 Label_0100577A
//  #01 //163   ----------------------------------------
 BYTE   W92
 BYTE   W03
 BYTE   EOT
 BYTE   Gn3  v071
 BYTE   W01
//  #01 //164   ----------------------------------------
 BYTE   N92  An3  v092
 BYTE   N92  Cn4
 BYTE   W96
//  #01 //165   ----------------------------------------
 BYTE   Gn3
 BYTE   N92  Bn3
 BYTE   W96
//  #01 //166   ----------------------------------------
 BYTE   En3
 BYTE   N92  An3
 BYTE   W96
//  #01 //167   ----------------------------------------
 BYTE   Gn3
 BYTE   N92  Bn3
 BYTE   W96
//  #01 //168   ----------------------------------------
 BYTE   Dn3
 BYTE   N92  Fs3
 BYTE   W96
//  #01 //169   ----------------------------------------
 BYTE   N92
 BYTE   N92  An3
 BYTE   W96
//  #01 //170   ----------------------------------------
 BYTE   En3
 BYTE   N92  Gn3
 BYTE   W96
//  #01 //171   ----------------------------------------
 BYTE   Bn3
 BYTE   N92  En4
 BYTE   W96
//  #01 //172   ----------------------------------------
 BYTE   PATT
  POIN2 Label_010054E4
//  #01 //173   ----------------------------------------
 BYTE   W92
 BYTE   W03
 BYTE   EOT
 BYTE   Bn2  v064
 BYTE   W01
//  #01 //174   ----------------------------------------
 BYTE   PATT
  POIN2 Label_0100552D
//  #01 //175   ----------------------------------------
 BYTE   W92
 BYTE   W03
 BYTE   EOT
 BYTE   En3  v071
 BYTE   W01
//  #01 //176   ----------------------------------------
 BYTE   PATT
  POIN2 Label_0100553A
//  #01 //177   ----------------------------------------
 BYTE   W92
 BYTE   W03
 BYTE   EOT
 BYTE   Gn3  v073
 BYTE   W01
//  #01 //178   ----------------------------------------
 BYTE   PATT
  POIN2 Label_01005547
//  #01 //179   ----------------------------------------
 BYTE   W68
 BYTE   W03
 BYTE   EOT
 BYTE   Dn4
 BYTE   W24
 BYTE   An3
 BYTE   W01
//  #01 //180   ----------------------------------------
 BYTE   PATT
  POIN2 Label_01005547
//  #01 //181   ----------------------------------------
 BYTE   W92
 BYTE   W03
 BYTE   EOT
 BYTE   An3  v074
 BYTE   W01
//  #01 //182   ----------------------------------------
 BYTE   PATT
  POIN2 Label_0100553A
//  #01 //183   ----------------------------------------
 BYTE   W92
 BYTE   W03
 BYTE   EOT
 BYTE   Gn3  v073
 BYTE   W01
//  #01 //184   ----------------------------------------
 BYTE   PATT
  POIN2 Label_01005547
//  #01 //185   ----------------------------------------
 BYTE   W92
 BYTE   W03
 BYTE   EOT
 BYTE   An3  v074
 BYTE   W01
//  #01 //186   ----------------------------------------
 BYTE   PATT
  POIN2 Label_0100552D
//  #01 //187   ----------------------------------------
 BYTE   W92
 BYTE   W03
 BYTE   EOT
 BYTE   En3  v071
 BYTE   W01
//  #01 //188   ----------------------------------------
 BYTE   W96
//  #01 //189   ----------------------------------------
 BYTE   W96
//  #01 //190   ----------------------------------------
 BYTE   W96
//  #01 //191   ----------------------------------------
 BYTE   W96
//  #01 //192   ----------------------------------------
 BYTE   W96
//  #01 //193   ----------------------------------------
 BYTE   W96
//  #01 //194   ----------------------------------------
 BYTE   PATT
  POIN2 Label_01005587
//  #01 //195   ----------------------------------------
 BYTE   W92
 BYTE   W03
 BYTE   EOT
 BYTE   Gn2  v059
 BYTE   W01
//  #01 //196   ----------------------------------------
 BYTE   PATT
  POIN2 Label_01005594
//  #01 //197   ----------------------------------------
 BYTE   W92
 BYTE   W03
 BYTE   EOT
 BYTE   An2  v060
 BYTE   W01
//  #01 //198   ----------------------------------------
 BYTE   PATT
  POIN2 Label_010055A1
//  #01 //199   ----------------------------------------
 BYTE   W92
 BYTE   W03
 BYTE   EOT
 BYTE   An2  v061
 BYTE   W01
//  #01 //200   ----------------------------------------
 BYTE   PATT
  POIN2 Label_01005594
//  #01 //201   ----------------------------------------
 BYTE   W92
 BYTE   W03
 BYTE   EOT
 BYTE   An2  v060
 BYTE   W01
//  #01 //202   ----------------------------------------
 BYTE   PATT
  POIN2 Label_01005587
//  #01 //203   ----------------------------------------
 BYTE   W92
 BYTE   W03
 BYTE   EOT
 BYTE   Gn2  v059
 BYTE   W01
//  #01 //204   ----------------------------------------
 BYTE   PATT
  POIN2 Label_01005594
//  #01 //205   ----------------------------------------
 BYTE   W92
 BYTE   W03
 BYTE   EOT
 BYTE   An2  v060
 BYTE   W01
//  #01 //206   ----------------------------------------
 BYTE   PATT
  POIN2 Label_010055A1
//  #01 //207   ----------------------------------------
 BYTE   W92
 BYTE   W03
 BYTE   EOT
 BYTE   An2  v061
 BYTE   W01
//  #01 //208   ----------------------------------------
 BYTE   PATT
  POIN2 Label_01005594
//  #01 //209   ----------------------------------------
 BYTE   W92
 BYTE   W03
 BYTE   EOT
 BYTE   An2  v060
 BYTE   W01
//  #01 //210   ----------------------------------------
 BYTE   PATT
  POIN2 Label_010055E5
//  #01 //211   ----------------------------------------
 BYTE   PATT
  POIN2 Label_010055F4
//  #01 //212   ----------------------------------------
 BYTE   PATT
  POIN2 Label_010055FE
//  #01 //213   ----------------------------------------
 BYTE   W92
 BYTE   W03
 BYTE   EOT
 BYTE   Dn3  v065
 BYTE   An3
 BYTE   W01
//  #01 //214   ----------------------------------------
 BYTE   PATT
  POIN2 Label_0100560E
//  #01 //215   ----------------------------------------
 BYTE   W92
 BYTE   W03
 BYTE   EOT
 BYTE   Bn2  v063
 BYTE   Fs3
 BYTE   W01
//  #01 //216   ----------------------------------------
 BYTE   PATT
  POIN2 Label_0100561E
//  #01 //217   ----------------------------------------
 BYTE   W92
 BYTE   W03
 BYTE   EOT
 BYTE   An2  v060
 BYTE   En3
 BYTE   W01
//  #01 //218   ----------------------------------------
 BYTE   PATT
  POIN2 Label_010055E5
//  #01 //219   ----------------------------------------
 BYTE   PATT
  POIN2 Label_010055F4
//  #01 //220   ----------------------------------------
 BYTE   PATT
  POIN2 Label_010055FE
//  #01 //221   ----------------------------------------
 BYTE   W92
 BYTE   W03
 BYTE   EOT
 BYTE   Dn3  v065
 BYTE   An3
 BYTE   W01
//  #01 //222   ----------------------------------------
 BYTE   PATT
  POIN2 Label_0100560E
//  #01 //223   ----------------------------------------
 BYTE   W92
 BYTE   W03
 BYTE   EOT
 BYTE   Bn2  v063
 BYTE   Fs3
 BYTE   W01
//  #01 //224   ----------------------------------------
 BYTE   PATT
  POIN2 Label_0100561E
//  #01 //225   ----------------------------------------
 BYTE   W92
 BYTE   W03
 BYTE   EOT
 BYTE   An2  v060
 BYTE   En3
 BYTE   W01
//  #01 //226   ----------------------------------------
 BYTE   PATT
  POIN2 Label_01005587
//  #01 //227   ----------------------------------------
 BYTE   W92
 BYTE   W03
 BYTE   EOT
 BYTE   Gn2  v059
 BYTE   W01
//  #01 //228   ----------------------------------------
 BYTE   PATT
  POIN2 Label_01005594
//  #01 //229   ----------------------------------------
 BYTE   W92
 BYTE   W03
 BYTE   EOT
 BYTE   An2  v060
 BYTE   W01
//  #01 //230   ----------------------------------------
 BYTE   PATT
  POIN2 Label_010055A1
//  #01 //231   ----------------------------------------
 BYTE   W92
 BYTE   W03
 BYTE   EOT
 BYTE   An2  v061
 BYTE   W01
//  #01 //232   ----------------------------------------
 BYTE   PATT
  POIN2 Label_01005594
//  #01 //233   ----------------------------------------
 BYTE   W92
 BYTE   W03
 BYTE   EOT
 BYTE   An2  v060
 BYTE   W01
//  #01 //234   ----------------------------------------
 BYTE   PATT
  POIN2 Label_01005587
//  #01 //235   ----------------------------------------
 BYTE   W92
 BYTE   W03
 BYTE   EOT
 BYTE   Gn2  v059
 BYTE   W01
//  #01 //236   ----------------------------------------
 BYTE   PATT
  POIN2 Label_01005594
//  #01 //237   ----------------------------------------
 BYTE   W92
 BYTE   W03
 BYTE   EOT
 BYTE   An2  v060
 BYTE   W01
//  #01 //238   ----------------------------------------
 BYTE   PATT
  POIN2 Label_010055A1
//  #01 //239   ----------------------------------------
 BYTE   W92
 BYTE   W03
 BYTE   EOT
 BYTE   An2  v061
 BYTE   W01
//  #01 //240   ----------------------------------------
 BYTE   PATT
  POIN2 Label_01005594
//  #01 //241   ----------------------------------------
 BYTE   W92
 BYTE   W03
 BYTE   EOT
 BYTE   An2  v060
 BYTE   W01
//  #01 //242   ----------------------------------------
 BYTE   PATT
  POIN2 Label_010055E5
//  #01 //243   ----------------------------------------
 BYTE   PATT
  POIN2 Label_010055F4
//  #01 //244   ----------------------------------------
 BYTE   PATT
  POIN2 Label_010055FE
//  #01 //245   ----------------------------------------
 BYTE   W92
 BYTE   W03
 BYTE   EOT
 BYTE   Dn3  v065
 BYTE   An3
 BYTE   W01
//  #01 //246   ----------------------------------------
 BYTE   PATT
  POIN2 Label_0100560E
//  #01 //247   ----------------------------------------
 BYTE   W92
 BYTE   W03
 BYTE   EOT
 BYTE   Bn2  v063
 BYTE   Fs3
 BYTE   W01
//  #01 //248   ----------------------------------------
 BYTE   PATT
  POIN2 Label_0100561E
//  #01 //249   ----------------------------------------
 BYTE   W92
 BYTE   W03
 BYTE   EOT
 BYTE   An2  v060
 BYTE   En3
 BYTE   W01
//  #01 //250   ----------------------------------------
 BYTE   PATT
  POIN2 Label_010055E5
//  #01 //251   ----------------------------------------
 BYTE   PATT
  POIN2 Label_010055F4
//  #01 //252   ----------------------------------------
 BYTE   PATT
  POIN2 Label_010055FE
//  #01 //253   ----------------------------------------
 BYTE   W92
 BYTE   W03
 BYTE   EOT
 BYTE   Dn3  v065
 BYTE   An3
 BYTE   W01
//  #01 //254   ----------------------------------------
 BYTE   PATT
  POIN2 Label_0100560E
//  #01 //255   ----------------------------------------
 BYTE   W92
 BYTE   W03
 BYTE   EOT
 BYTE   Bn2  v063
 BYTE   Fs3
 BYTE   W01
//  #01 //256   ----------------------------------------
 BYTE   PATT
  POIN2 Label_0100561E
//  #01 //257   ----------------------------------------
 BYTE   W92
 BYTE   W03
 BYTE   EOT
 BYTE   An2  v060
 BYTE   En3
 BYTE   W01
//  #01 //258   ----------------------------------------
 BYTE   W96
//  #01 //259   ----------------------------------------
 BYTE   W96
//  #01 //260   ----------------------------------------
 BYTE   W96
//  #01 //261   ----------------------------------------
 BYTE   W96
//  #01 //262   ----------------------------------------
 BYTE   W96
//  #01 //263   ----------------------------------------
 BYTE   W96
//  #01 //264   ----------------------------------------
 BYTE   W96
//  #01 //265   ----------------------------------------
 BYTE   W96
//  #01 //266   ----------------------------------------
 BYTE   W96
//  #01 //267   ----------------------------------------
 BYTE   W96
//  #01 //268   ----------------------------------------
 BYTE   W96
//  #01 //269   ----------------------------------------
 BYTE   W96
//  #01 //270   ----------------------------------------
 BYTE   W96
//  #01 //271   ----------------------------------------
 BYTE   W96
//  #01 //272   ----------------------------------------
 BYTE   W96
//  #01 //273   ----------------------------------------
 BYTE   W96
//  #01 //274   ----------------------------------------
 BYTE   W96
//  #01 //275   ----------------------------------------
 BYTE   W96
//  #01 //276   ----------------------------------------
 BYTE   W96
//  #01 //277   ----------------------------------------
 BYTE   W96
//  #01 //278   ----------------------------------------
 BYTE   W96
//  #01 //279   ----------------------------------------
 BYTE   W96
//  #01 //280   ----------------------------------------
 BYTE   W96
//  #01 //281   ----------------------------------------
 BYTE   PATT
  POIN2 Label_01005727
//  #01 //282   ----------------------------------------
 BYTE   PATT
  POIN2 Label_0100574A
//  #01 //283   ----------------------------------------
 BYTE   W92
 BYTE   W03
 BYTE   EOT
 BYTE   Gn3  v071
 BYTE   W01
//  #01 //284   ----------------------------------------
 BYTE   N92  Gn3  v092
 BYTE   N92  Bn3
 BYTE   W96
//  #01 //285   ----------------------------------------
 BYTE   PATT
  POIN2 Label_01005761
//  #01 //286   ----------------------------------------
 BYTE   N92  En3  v092
 BYTE   N92  An3
 BYTE   W96
//  #01 //287   ----------------------------------------
 BYTE   Ds3
 BYTE   N92  Gn3
 BYTE   W96
//  #01 //288   ----------------------------------------
 BYTE   PATT
  POIN2 Label_0100577A
//  #01 //289   ----------------------------------------
 BYTE   W92
 BYTE   W03
 BYTE   EOT
 BYTE   Gn3  v071
 BYTE   W01
//  #01 //290   ----------------------------------------
 BYTE   PATT
  POIN2 Label_01005787
//  #01 //291   ----------------------------------------
 BYTE   PATT
  POIN2 Label_0100579A
//  #01 //292   ----------------------------------------
 BYTE   PATT
  POIN2 Label_010057AD
//  #01 //293   ----------------------------------------
 BYTE   PATT
  POIN2 Label_0100579A
//  #01 //294   ----------------------------------------
 BYTE   W96
//  #01 //295   ----------------------------------------
 BYTE   W96
//  #01 //296   ----------------------------------------
 BYTE   PATT
  POIN2 Label_010057C7
//  #01 //297   ----------------------------------------
 BYTE   PATT
  POIN2 Label_010057DA
//  #01 //298   ----------------------------------------
 BYTE   PATT
  POIN2 Label_0100574A
//  #01 //299   ----------------------------------------
 BYTE   W92
 BYTE   W03
 BYTE   EOT
 BYTE   Gn3  v071
 BYTE   W01
//  #01 //300   ----------------------------------------
 BYTE   N92  Gn3  v092
 BYTE   N92  Bn3
 BYTE   W96
//  #01 //301   ----------------------------------------
 BYTE   PATT
  POIN2 Label_01005761
//  #01 //302   ----------------------------------------
 BYTE   N92  En3  v092
 BYTE   N92  An3
 BYTE   W96
//  #01 //303   ----------------------------------------
 BYTE   Ds3
 BYTE   N92  Gn3
 BYTE   W96
//  #01 //304   ----------------------------------------
 BYTE   PATT
  POIN2 Label_0100577A
//  #01 //305   ----------------------------------------
 BYTE   W92
 BYTE   W03
 BYTE   EOT
 BYTE   Gn3  v071
 BYTE   W01
//  #01 //306   ----------------------------------------
 BYTE   N92  An3  v092
 BYTE   N92  Cn4
 BYTE   W96
//  #01 //307   ----------------------------------------
 BYTE   Gn3
 BYTE   N92  Bn3
 BYTE   W96
//  #01 //308   ----------------------------------------
 BYTE   En3
 BYTE   N92  An3
 BYTE   W96
//  #01 //309   ----------------------------------------
 BYTE   Gn3
 BYTE   N92  Bn3
 BYTE   W96
//  #01 //310   ----------------------------------------
 BYTE   Dn3
 BYTE   N92  Fs3
 BYTE   W96
//  #01 //311   ----------------------------------------
 BYTE   N92
 BYTE   N92  An3
 BYTE   W96
//  #01 //312   ----------------------------------------
 BYTE   En3
 BYTE   N92  Gn3
 BYTE   W96
//  #01 //313   ----------------------------------------
 BYTE   Bn3
 BYTE   N92  En4
 BYTE   W96
//  #01 //314   ----------------------------------------
 BYTE   N68  En3
 BYTE   N68  An3
 BYTE   N68  An4
 BYTE   W72
 BYTE   TIE  Gn3
 BYTE   TIE  Bn3
 BYTE   TIE  Bn4
 BYTE   W24
//  #01 //315   ----------------------------------------
 BYTE   W92
 BYTE   W03
 BYTE   EOT
 BYTE   Gn3  v071
 BYTE   Bn4
 BYTE   W01
//  #01 //316   ----------------------------------------
Label_01005ACA:
 BYTE   N92  Gn3  v092
 BYTE   N92  Bn3
 BYTE   N92  Bn4
 BYTE   W96
 BYTE   PEND 
//  #01 //317   ----------------------------------------
 BYTE   N32  Bn3
 BYTE   N32  Dn4
 BYTE   N32  Dn5
 BYTE   W36
 BYTE   An3
 BYTE   N32  Cn4
 BYTE   N32  Cn5
 BYTE   W36
 BYTE   N23  Gn3
 BYTE   N23  Bn3
 BYTE   N23  Bn4
 BYTE   W24
//  #01 //318   ----------------------------------------
 BYTE   N92  En3
 BYTE   N92  An3
 BYTE   N92  An4
 BYTE   W96
//  #01 //319   ----------------------------------------
 BYTE   Ds3
 BYTE   N92  Gn3
 BYTE   N92  Gn4
 BYTE   W96
//  #01 //320   ----------------------------------------
 BYTE   TIE  Gn3
 BYTE   TIE  Bn3
 BYTE   TIE  Bn4
 BYTE   W96
//  #01 //321   ----------------------------------------
 BYTE   W92
 BYTE   W03
 BYTE   EOT
 BYTE   Gn3  v071
 BYTE   Bn4
 BYTE   W01
//  #01 //322   ----------------------------------------
 BYTE   N92  An3
 BYTE   N92  Cn4
 BYTE   N92  Cn5
 BYTE   W96
//  #01 //323   ----------------------------------------
 BYTE   PATT
  POIN2 Label_01005ACA
//  #01 //324   ----------------------------------------
 BYTE   N92  En3  v092
 BYTE   N92  An3
 BYTE   N92  An4
 BYTE   W96
//  #01 //325   ----------------------------------------
 BYTE   PATT
  POIN2 Label_01005ACA
//  #01 //326   ----------------------------------------
 BYTE   N92  Dn3  v092
 BYTE   N92  Fs3
 BYTE   N92  Fs4
 BYTE   W96
//  #01 //327   ----------------------------------------
 BYTE   Fs3
 BYTE   N92  An3
 BYTE   N92  An4
 BYTE   W96
//  #01 //328   ----------------------------------------
 BYTE   En3
 BYTE   N92  Gn3
 BYTE   N92  Gn4
 BYTE   W96
//  #01 //329   ----------------------------------------
 BYTE   Bn3
 BYTE   N92  En4
 BYTE   N92  En5
 BYTE   W96
//  #01 //330   ----------------------------------------
 BYTE   GoTo
  POIN2 Label_0100551A
//  #01 //331   ----------------------------------------
 BYTE   PATT
  POIN2 Label_010054E4
//  #01 //332   ----------------------------------------
 BYTE   W92
 BYTE   W03
 BYTE   EOT
 BYTE   Bn2  v064
 BYTE   W01
//  #01 //333   ----------------------------------------
 BYTE   PATT
  POIN2 Label_0100552D
//  #01 //334   ----------------------------------------
 BYTE   W92
 BYTE   W03
 BYTE   EOT
 BYTE   En3  v071
 BYTE   W01
//  #01 //335   ----------------------------------------
 BYTE   PATT
  POIN2 Label_0100553A
//  #01 //336   ----------------------------------------
 BYTE   W92
 BYTE   W03
 BYTE   EOT
 BYTE   Gn3  v073
 BYTE   W01
//  #01 //337   ----------------------------------------
 BYTE   PATT
  POIN2 Label_01005547
//  #01 //338   ----------------------------------------
 BYTE   W68
 BYTE   W03
 BYTE   EOT
 BYTE   Dn4
 BYTE   W24
 BYTE   An3
 BYTE   W01
//  #01 //339   ----------------------------------------
 BYTE   PATT
  POIN2 Label_01005547
//  #01 //340   ----------------------------------------
 BYTE   W92
 BYTE   W03
 BYTE   EOT
 BYTE   An3  v074
 BYTE   W01
//  #01 //341   ----------------------------------------
 BYTE   PATT
  POIN2 Label_0100553A
//  #01 //342   ----------------------------------------
 BYTE   W92
 BYTE   W03
 BYTE   EOT
 BYTE   Gn3  v073
 BYTE   W01
//  #01 //343   ----------------------------------------
 BYTE   PATT
  POIN2 Label_01005547
//  #01 //344   ----------------------------------------
 BYTE   W92
 BYTE   W03
 BYTE   EOT
 BYTE   An3  v074
 BYTE   W01
//  #01 //345   ----------------------------------------
 BYTE   PATT
  POIN2 Label_0100552D
//  #01 //346   ----------------------------------------
 BYTE   W92
 BYTE   W03
 BYTE   EOT
 BYTE   En3  v071
 BYTE   W01
//  #01 //347   ----------------------------------------
 BYTE   W96
//  #01 //348   ----------------------------------------
 BYTE   W96
 BYTE   FINE

//**************** Track 2 (Midi-Chn.1) ****************//

BloodstainedLineage_002:
//  #02 //000   ----------------------------------------
 BYTE   KEYSH   BloodstainedLineage_key+0
 BYTE   VOICE   110
 BYTE   PAN   c_v-24
 BYTE   VOL   30*BloodstainedLineage_mvl/mxv
 BYTE   W96
//  #02 //001   ----------------------------------------
 BYTE   W96
//  #02 //002   ----------------------------------------
 BYTE   W96
//  #02 //003   ----------------------------------------
 BYTE   W96
//  #02 //004   ----------------------------------------
 BYTE   W96
//  #02 //005   ----------------------------------------
 BYTE   W96
//  #02 //006   ----------------------------------------
 BYTE   W96
//  #02 //007   ----------------------------------------
 BYTE   W96
//  #02 //008   ----------------------------------------
 BYTE   W96
//  #02 //009   ----------------------------------------
 BYTE   W96
//  #02 //010   ----------------------------------------
 BYTE   W96
//  #02 //011   ----------------------------------------
 BYTE   W96
//  #02 //012   ----------------------------------------
 BYTE   W96
//  #02 //013   ----------------------------------------
 BYTE   W96
//  #02 //014   ----------------------------------------
 BYTE   W96
//  #02 //015   ----------------------------------------
 BYTE   W96
//  #02 //016   ----------------------------------------
 BYTE   W96
//  #02 //017   ----------------------------------------
 BYTE   W96
//  #02 //018   ----------------------------------------
 BYTE   W96
//  #02 //019   ----------------------------------------
 BYTE   W96
//  #02 //020   ----------------------------------------
 BYTE   W96
//  #02 //021   ----------------------------------------
 BYTE   W96
//  #02 //022   ----------------------------------------
Label_01005BC6:
 BYTE   W96
//  #02 //023   ----------------------------------------
 BYTE   W96
//  #02 //024   ----------------------------------------
 BYTE   W96
//  #02 //025   ----------------------------------------
 BYTE   W96
//  #02 //026   ----------------------------------------
 BYTE   W96
//  #02 //027   ----------------------------------------
 BYTE   W96
//  #02 //028   ----------------------------------------
 BYTE   W96
//  #02 //029   ----------------------------------------
 BYTE   W96
//  #02 //030   ----------------------------------------
 BYTE   W96
//  #02 //031   ----------------------------------------
 BYTE   W96
//  #02 //032   ----------------------------------------
 BYTE   W96
//  #02 //033   ----------------------------------------
 BYTE   W96
//  #02 //034   ----------------------------------------
 BYTE   W96
//  #02 //035   ----------------------------------------
 BYTE   W96
//  #02 //036   ----------------------------------------
 BYTE   W96
//  #02 //037   ----------------------------------------
 BYTE   W96
//  #02 //038   ----------------------------------------
 BYTE   W96
//  #02 //039   ----------------------------------------
 BYTE   W96
//  #02 //040   ----------------------------------------
 BYTE   W96
//  #02 //041   ----------------------------------------
 BYTE   W96
//  #02 //042   ----------------------------------------
 BYTE   W96
//  #02 //043   ----------------------------------------
 BYTE   W96
//  #02 //044   ----------------------------------------
 BYTE   W96
//  #02 //045   ----------------------------------------
 BYTE   W96
//  #02 //046   ----------------------------------------
 BYTE   W96
//  #02 //047   ----------------------------------------
 BYTE   W96
//  #02 //048   ----------------------------------------
 BYTE   W96
//  #02 //049   ----------------------------------------
 BYTE   W96
//  #02 //050   ----------------------------------------
 BYTE   W96
//  #02 //051   ----------------------------------------
 BYTE   W96
//  #02 //052   ----------------------------------------
Label_01005BE4:
 BYTE   W48
 BYTE   N23  Fn3  v092
 BYTE   W24
 BYTE   N44  En3
 BYTE   W24
 BYTE   PEND 
//  #02 //053   ----------------------------------------
Label_01005BED:
 BYTE   W24
 BYTE   N23  Dn3  v092
 BYTE   W24
 BYTE   En3
 BYTE   W24
 BYTE   Fs3
 BYTE   W24
 BYTE   PEND 
//  #02 //054   ----------------------------------------
Label_01005BF7:
 BYTE   N68  An3  v092
 BYTE   W72
 BYTE   Fn3
 BYTE   W24
 BYTE   PEND 
//  #02 //055   ----------------------------------------
 BYTE   W48
 BYTE   N44  Gn3
 BYTE   W48
//  #02 //056   ----------------------------------------
 BYTE   N92  Bn3
 BYTE   W96
//  #02 //057   ----------------------------------------
Label_01005C05:
 BYTE   N32  An3  v092
 BYTE   W36
 BYTE   En3
 BYTE   W36
 BYTE   N23  Fs3
 BYTE   W24
 BYTE   PEND 
//  #02 //058   ----------------------------------------
 BYTE   N92  Fn3
 BYTE   W96
//  #02 //059   ----------------------------------------
 BYTE   Dn3
 BYTE   W96
//  #02 //060   ----------------------------------------
 BYTE   N68  En3
 BYTE   W72
 BYTE   Bn3
 BYTE   W24
//  #02 //061   ----------------------------------------
 BYTE   W48
 BYTE   N44  En3
 BYTE   W48
//  #02 //062   ----------------------------------------
Label_01005C1D:
 BYTE   N68  Fn3  v092
 BYTE   W72
 BYTE   Cn4
 BYTE   W24
 BYTE   PEND 
//  #02 //063   ----------------------------------------
 BYTE   W48
 BYTE   N44  Fn3
 BYTE   W48
//  #02 //064   ----------------------------------------
Label_01005C28:
 BYTE   N68  Fs3  v092
 BYTE   W72
 BYTE   Cs4
 BYTE   W24
 BYTE   PEND 
//  #02 //065   ----------------------------------------
 BYTE   W48
 BYTE   N44  Fs3
 BYTE   W48
//  #02 //066   ----------------------------------------
Label_01005C33:
 BYTE   N68  Gn3  v092
 BYTE   W72
 BYTE   Cn4
 BYTE   W24
 BYTE   PEND 
//  #02 //067   ----------------------------------------
 BYTE   W48
 BYTE   N44  Gn3
 BYTE   W48
//  #02 //068   ----------------------------------------
 BYTE   W96
//  #02 //069   ----------------------------------------
 BYTE   W24
 BYTE   En4
 BYTE   W72
//  #02 //070   ----------------------------------------
 BYTE   W96
//  #02 //071   ----------------------------------------
 BYTE   W48
 BYTE   N44
 BYTE   W48
//  #02 //072   ----------------------------------------
Label_01005C46:
 BYTE   N68  Ds4  v092
 BYTE   W72
 BYTE   Bn3
 BYTE   W24
 BYTE   PEND 
//  #02 //073   ----------------------------------------
 BYTE   W48
 BYTE   N44  An3
 BYTE   W48
//  #02 //074   ----------------------------------------
 BYTE   TIE
 BYTE   W96
//  #02 //075   ----------------------------------------
 BYTE   W92
 BYTE   W03
 BYTE   EOT
 BYTE   W01
//  #02 //076   ----------------------------------------
 BYTE   W96
//  #02 //077   ----------------------------------------
 BYTE   W24
 BYTE   N44  En4
 BYTE   W72
//  #02 //078   ----------------------------------------
 BYTE   W96
//  #02 //079   ----------------------------------------
 BYTE   W48
 BYTE   N44
 BYTE   W48
//  #02 //080   ----------------------------------------
 BYTE   PATT
  POIN2 Label_01005C46
//  #02 //081   ----------------------------------------
 BYTE   W48
 BYTE   N44  An3  v092
 BYTE   W48
//  #02 //082   ----------------------------------------
 BYTE   TIE
 BYTE   W96
//  #02 //083   ----------------------------------------
 BYTE   W92
 BYTE   W03
 BYTE   EOT
 BYTE   W01
//  #02 //084   ----------------------------------------
 BYTE   PATT
  POIN2 Label_01005BE4
//  #02 //085   ----------------------------------------
 BYTE   PATT
  POIN2 Label_01005BED
//  #02 //086   ----------------------------------------
 BYTE   PATT
  POIN2 Label_01005BF7
//  #02 //087   ----------------------------------------
 BYTE   W48
 BYTE   N44  Gn3  v092
 BYTE   W48
//  #02 //088   ----------------------------------------
 BYTE   N92  Bn3
 BYTE   W96
//  #02 //089   ----------------------------------------
 BYTE   PATT
  POIN2 Label_01005C05
//  #02 //090   ----------------------------------------
 BYTE   N92  Fn3  v092
 BYTE   W96
//  #02 //091   ----------------------------------------
 BYTE   Dn3
 BYTE   W96
//  #02 //092   ----------------------------------------
 BYTE   N68  En3
 BYTE   W72
 BYTE   Bn3
 BYTE   W24
//  #02 //093   ----------------------------------------
 BYTE   W48
 BYTE   N44  En3
 BYTE   W48
//  #02 //094   ----------------------------------------
 BYTE   PATT
  POIN2 Label_01005C1D
//  #02 //095   ----------------------------------------
 BYTE   W48
 BYTE   N44  Fn3  v092
 BYTE   W48
//  #02 //096   ----------------------------------------
 BYTE   PATT
  POIN2 Label_01005C28
//  #02 //097   ----------------------------------------
 BYTE   W48
 BYTE   N44  Fs3  v092
 BYTE   W48
//  #02 //098   ----------------------------------------
 BYTE   PATT
  POIN2 Label_01005C33
//  #02 //099   ----------------------------------------
 BYTE   W48
 BYTE   N44  Gn3  v092
 BYTE   W48
//  #02 //100   ----------------------------------------
 BYTE   W96
//  #02 //101   ----------------------------------------
 BYTE   W24
 BYTE   En4
 BYTE   W72
//  #02 //102   ----------------------------------------
 BYTE   W96
//  #02 //103   ----------------------------------------
 BYTE   W48
 BYTE   N44
 BYTE   W48
//  #02 //104   ----------------------------------------
 BYTE   PATT
  POIN2 Label_01005C46
//  #02 //105   ----------------------------------------
 BYTE   W48
 BYTE   N44  An3  v092
 BYTE   W48
//  #02 //106   ----------------------------------------
 BYTE   TIE
 BYTE   W96
//  #02 //107   ----------------------------------------
 BYTE   W92
 BYTE   W03
 BYTE   EOT
 BYTE   W01
//  #02 //108   ----------------------------------------
 BYTE   W96
//  #02 //109   ----------------------------------------
 BYTE   W24
 BYTE   N44  En4
 BYTE   W72
//  #02 //110   ----------------------------------------
 BYTE   W96
//  #02 //111   ----------------------------------------
 BYTE   W48
 BYTE   N44
 BYTE   W48
//  #02 //112   ----------------------------------------
 BYTE   PATT
  POIN2 Label_01005C46
//  #02 //113   ----------------------------------------
 BYTE   W48
 BYTE   N44  An3  v092
 BYTE   W48
//  #02 //114   ----------------------------------------
 BYTE   TIE
 BYTE   W96
//  #02 //115   ----------------------------------------
 BYTE   W92
 BYTE   W03
 BYTE   EOT
 BYTE   W01
//  #02 //116   ----------------------------------------
 BYTE   W96
//  #02 //117   ----------------------------------------
 BYTE   W96
//  #02 //118   ----------------------------------------
 BYTE   W96
//  #02 //119   ----------------------------------------
 BYTE   W96
//  #02 //120   ----------------------------------------
 BYTE   W96
//  #02 //121   ----------------------------------------
 BYTE   W96
//  #02 //122   ----------------------------------------
 BYTE   W96
//  #02 //123   ----------------------------------------
 BYTE   W96
//  #02 //124   ----------------------------------------
 BYTE   W96
//  #02 //125   ----------------------------------------
 BYTE   W96
//  #02 //126   ----------------------------------------
 BYTE   W96
//  #02 //127   ----------------------------------------
 BYTE   W96
//  #02 //128   ----------------------------------------
 BYTE   W96
//  #02 //129   ----------------------------------------
 BYTE   W96
//  #02 //130   ----------------------------------------
 BYTE   W96
//  #02 //131   ----------------------------------------
 BYTE   W96
//  #02 //132   ----------------------------------------
 BYTE   W96
//  #02 //133   ----------------------------------------
 BYTE   W96
//  #02 //134   ----------------------------------------
 BYTE   W96
//  #02 //135   ----------------------------------------
 BYTE   W96
//  #02 //136   ----------------------------------------
 BYTE   W96
//  #02 //137   ----------------------------------------
 BYTE   W96
//  #02 //138   ----------------------------------------
 BYTE   W96
//  #02 //139   ----------------------------------------
 BYTE   W96
//  #02 //140   ----------------------------------------
Label_01005D02:
 BYTE   N68  An2  v092
 BYTE   N68  Cn3
 BYTE   W72
 BYTE   TIE  Bn2
 BYTE   TIE  En3
 BYTE   W24
 BYTE   PEND 
//  #02 //141   ----------------------------------------
 BYTE   W92
 BYTE   W03
 BYTE   EOT
 BYTE   Bn2  v064
 BYTE   W01
//  #02 //142   ----------------------------------------
 BYTE   N92  Bn2
 BYTE   N92  Dn3
 BYTE   W96
//  #02 //143   ----------------------------------------
Label_01005D19:
 BYTE   N32  Dn3  v092
 BYTE   N32  Gn3
 BYTE   W36
 BYTE   Cn3
 BYTE   N32  En3
 BYTE   W36
 BYTE   N23  Bn2
 BYTE   N23  Dn3
 BYTE   W24
 BYTE   PEND 
//  #02 //144   ----------------------------------------
 BYTE   N92  An2
 BYTE   N92  Cn3
 BYTE   W96
//  #02 //145   ----------------------------------------
 BYTE   Gn2
 BYTE   N92  As2
 BYTE   W96
//  #02 //146   ----------------------------------------
Label_01005D32:
 BYTE   TIE  Bn2  v092
 BYTE   TIE  En3
 BYTE   W96
 BYTE   PEND 
//  #02 //147   ----------------------------------------
 BYTE   W92
 BYTE   W03
 BYTE   EOT
 BYTE   Bn2  v064
 BYTE   W01
//  #02 //148   ----------------------------------------
 BYTE   TIE  Bn2
 BYTE   W96
//  #02 //149   ----------------------------------------
 BYTE   W92
 BYTE   W03
 BYTE   EOT
 BYTE   W01
//  #02 //150   ----------------------------------------
Label_01005D46:
 BYTE   TIE  Bn2  v092
 BYTE   TIE  Fs3
 BYTE   W96
 BYTE   PEND 
//  #02 //151   ----------------------------------------
 BYTE   W92
 BYTE   W03
 BYTE   EOT
 BYTE   Bn2  v066
 BYTE   W01
//  #02 //152   ----------------------------------------
 BYTE   N92  Cn3
 BYTE   N92  Gn3
 BYTE   W96
//  #02 //153   ----------------------------------------
 BYTE   Ds3
 BYTE   N92  As3
 BYTE   W96
//  #02 //154   ----------------------------------------
 BYTE   En3
 BYTE   N92  Bn3
 BYTE   W96
//  #02 //155   ----------------------------------------
 BYTE   Fs3
 BYTE   N92  Bn3
 BYTE   W96
//  #02 //156   ----------------------------------------
 BYTE   PATT
  POIN2 Label_01005D02
//  #02 //157   ----------------------------------------
 BYTE   W92
 BYTE   W03
 BYTE   EOT
 BYTE   Bn2  v064
 BYTE   W01
//  #02 //158   ----------------------------------------
 BYTE   N92  Bn2  v092
 BYTE   N92  Dn3
 BYTE   W96
//  #02 //159   ----------------------------------------
 BYTE   PATT
  POIN2 Label_01005D19
//  #02 //160   ----------------------------------------
 BYTE   N92  An2  v092
 BYTE   N92  Cn3
 BYTE   W96
//  #02 //161   ----------------------------------------
 BYTE   Gn2
 BYTE   N92  As2
 BYTE   W96
//  #02 //162   ----------------------------------------
 BYTE   PATT
  POIN2 Label_01005D32
//  #02 //163   ----------------------------------------
 BYTE   W92
 BYTE   W03
 BYTE   EOT
 BYTE   Bn2  v064
 BYTE   W01
//  #02 //164   ----------------------------------------
 BYTE   N92  Cn3  v092
 BYTE   N92  En3
 BYTE   W96
//  #02 //165   ----------------------------------------
 BYTE   Bn2
 BYTE   N92  Dn3
 BYTE   W96
//  #02 //166   ----------------------------------------
 BYTE   An2
 BYTE   N92  Cn3
 BYTE   W96
//  #02 //167   ----------------------------------------
 BYTE   Bn2
 BYTE   N92  En3
 BYTE   W96
//  #02 //168   ----------------------------------------
 BYTE   Fs2
 BYTE   N92  An2
 BYTE   W96
//  #02 //169   ----------------------------------------
 BYTE   N92
 BYTE   N92  Ds3
 BYTE   W96
//  #02 //170   ----------------------------------------
 BYTE   Gn2
 BYTE   N92  Bn2
 BYTE   W96
//  #02 //171   ----------------------------------------
 BYTE   En3
 BYTE   N92  Gn3
 BYTE   W96
//  #02 //172   ----------------------------------------
 BYTE   W96
//  #02 //173   ----------------------------------------
 BYTE   W96
//  #02 //174   ----------------------------------------
 BYTE   W96
//  #02 //175   ----------------------------------------
 BYTE   W96
//  #02 //176   ----------------------------------------
 BYTE   W96
//  #02 //177   ----------------------------------------
 BYTE   W96
//  #02 //178   ----------------------------------------
 BYTE   W96
//  #02 //179   ----------------------------------------
 BYTE   W96
//  #02 //180   ----------------------------------------
 BYTE   W96
//  #02 //181   ----------------------------------------
 BYTE   W96
//  #02 //182   ----------------------------------------
 BYTE   W96
//  #02 //183   ----------------------------------------
 BYTE   W96
//  #02 //184   ----------------------------------------
 BYTE   W96
//  #02 //185   ----------------------------------------
 BYTE   W96
//  #02 //186   ----------------------------------------
 BYTE   W96
//  #02 //187   ----------------------------------------
 BYTE   W96
//  #02 //188   ----------------------------------------
 BYTE   W96
//  #02 //189   ----------------------------------------
 BYTE   W96
//  #02 //190   ----------------------------------------
 BYTE   W96
//  #02 //191   ----------------------------------------
 BYTE   W96
//  #02 //192   ----------------------------------------
 BYTE   W96
//  #02 //193   ----------------------------------------
 BYTE   W96
//  #02 //194   ----------------------------------------
 BYTE   PATT
  POIN2 Label_01005BE4
//  #02 //195   ----------------------------------------
 BYTE   PATT
  POIN2 Label_01005BED
//  #02 //196   ----------------------------------------
 BYTE   PATT
  POIN2 Label_01005BF7
//  #02 //197   ----------------------------------------
 BYTE   W48
 BYTE   N44  Gn3  v092
 BYTE   W48
//  #02 //198   ----------------------------------------
 BYTE   N92  Bn3
 BYTE   W96
//  #02 //199   ----------------------------------------
 BYTE   PATT
  POIN2 Label_01005C05
//  #02 //200   ----------------------------------------
 BYTE   N92  Fn3  v092
 BYTE   W96
//  #02 //201   ----------------------------------------
 BYTE   Dn3
 BYTE   W96
//  #02 //202   ----------------------------------------
 BYTE   N68  En3
 BYTE   W72
 BYTE   Bn3
 BYTE   W24
//  #02 //203   ----------------------------------------
 BYTE   W48
 BYTE   N44  En3
 BYTE   W48
//  #02 //204   ----------------------------------------
 BYTE   PATT
  POIN2 Label_01005C1D
//  #02 //205   ----------------------------------------
 BYTE   W48
 BYTE   N44  Fn3  v092
 BYTE   W48
//  #02 //206   ----------------------------------------
 BYTE   PATT
  POIN2 Label_01005C28
//  #02 //207   ----------------------------------------
 BYTE   W48
 BYTE   N44  Fs3  v092
 BYTE   W48
//  #02 //208   ----------------------------------------
 BYTE   PATT
  POIN2 Label_01005C33
//  #02 //209   ----------------------------------------
 BYTE   W48
 BYTE   N44  Gn3  v092
 BYTE   W48
//  #02 //210   ----------------------------------------
 BYTE   W96
//  #02 //211   ----------------------------------------
 BYTE   W24
 BYTE   En4
 BYTE   W72
//  #02 //212   ----------------------------------------
 BYTE   W96
//  #02 //213   ----------------------------------------
 BYTE   W48
 BYTE   N44
 BYTE   W48
//  #02 //214   ----------------------------------------
 BYTE   PATT
  POIN2 Label_01005C46
//  #02 //215   ----------------------------------------
 BYTE   W48
 BYTE   N44  An3  v092
 BYTE   W48
//  #02 //216   ----------------------------------------
 BYTE   TIE
 BYTE   W96
//  #02 //217   ----------------------------------------
 BYTE   W92
 BYTE   W03
 BYTE   EOT
 BYTE   W01
//  #02 //218   ----------------------------------------
 BYTE   W96
//  #02 //219   ----------------------------------------
 BYTE   W24
 BYTE   N44  En4
 BYTE   W72
//  #02 //220   ----------------------------------------
 BYTE   W96
//  #02 //221   ----------------------------------------
 BYTE   W48
 BYTE   N44
 BYTE   W48
//  #02 //222   ----------------------------------------
 BYTE   PATT
  POIN2 Label_01005C46
//  #02 //223   ----------------------------------------
 BYTE   W48
 BYTE   N44  An3  v092
 BYTE   W48
//  #02 //224   ----------------------------------------
 BYTE   TIE
 BYTE   W96
//  #02 //225   ----------------------------------------
 BYTE   W92
 BYTE   W03
 BYTE   EOT
 BYTE   W01
//  #02 //226   ----------------------------------------
 BYTE   PATT
  POIN2 Label_01005BE4
//  #02 //227   ----------------------------------------
 BYTE   PATT
  POIN2 Label_01005BED
//  #02 //228   ----------------------------------------
 BYTE   PATT
  POIN2 Label_01005BF7
//  #02 //229   ----------------------------------------
 BYTE   W48
 BYTE   N44  Gn3  v092
 BYTE   W48
//  #02 //230   ----------------------------------------
 BYTE   N92  Bn3
 BYTE   W96
//  #02 //231   ----------------------------------------
 BYTE   PATT
  POIN2 Label_01005C05
//  #02 //232   ----------------------------------------
 BYTE   N92  Fn3  v092
 BYTE   W96
//  #02 //233   ----------------------------------------
 BYTE   Dn3
 BYTE   W96
//  #02 //234   ----------------------------------------
 BYTE   N68  En3
 BYTE   W72
 BYTE   Bn3
 BYTE   W24
//  #02 //235   ----------------------------------------
 BYTE   W48
 BYTE   N44  En3
 BYTE   W48
//  #02 //236   ----------------------------------------
 BYTE   PATT
  POIN2 Label_01005C1D
//  #02 //237   ----------------------------------------
 BYTE   W48
 BYTE   N44  Fn3  v092
 BYTE   W48
//  #02 //238   ----------------------------------------
 BYTE   PATT
  POIN2 Label_01005C28
//  #02 //239   ----------------------------------------
 BYTE   W48
 BYTE   N44  Fs3  v092
 BYTE   W48
//  #02 //240   ----------------------------------------
 BYTE   PATT
  POIN2 Label_01005C33
//  #02 //241   ----------------------------------------
 BYTE   W48
 BYTE   N44  Gn3  v092
 BYTE   W48
//  #02 //242   ----------------------------------------
 BYTE   W96
//  #02 //243   ----------------------------------------
 BYTE   W24
 BYTE   En4
 BYTE   W72
//  #02 //244   ----------------------------------------
 BYTE   W96
//  #02 //245   ----------------------------------------
 BYTE   W48
 BYTE   N44
 BYTE   W48
//  #02 //246   ----------------------------------------
 BYTE   PATT
  POIN2 Label_01005C46
//  #02 //247   ----------------------------------------
 BYTE   W48
 BYTE   N44  An3  v092
 BYTE   W48
//  #02 //248   ----------------------------------------
 BYTE   TIE
 BYTE   W96
//  #02 //249   ----------------------------------------
 BYTE   W92
 BYTE   W03
 BYTE   EOT
 BYTE   W01
//  #02 //250   ----------------------------------------
 BYTE   W96
//  #02 //251   ----------------------------------------
 BYTE   W24
 BYTE   N44  En4
 BYTE   W72
//  #02 //252   ----------------------------------------
 BYTE   W96
//  #02 //253   ----------------------------------------
 BYTE   W48
 BYTE   N44
 BYTE   W48
//  #02 //254   ----------------------------------------
 BYTE   PATT
  POIN2 Label_01005C46
//  #02 //255   ----------------------------------------
 BYTE   W48
 BYTE   N44  An3  v092
 BYTE   W48
//  #02 //256   ----------------------------------------
 BYTE   TIE
 BYTE   W96
//  #02 //257   ----------------------------------------
 BYTE   W92
 BYTE   W03
 BYTE   EOT
 BYTE   W01
//  #02 //258   ----------------------------------------
 BYTE   W96
//  #02 //259   ----------------------------------------
 BYTE   W96
//  #02 //260   ----------------------------------------
 BYTE   W96
//  #02 //261   ----------------------------------------
 BYTE   W96
//  #02 //262   ----------------------------------------
 BYTE   W96
//  #02 //263   ----------------------------------------
 BYTE   W96
//  #02 //264   ----------------------------------------
 BYTE   W96
//  #02 //265   ----------------------------------------
 BYTE   W96
//  #02 //266   ----------------------------------------
 BYTE   W96
//  #02 //267   ----------------------------------------
 BYTE   W96
//  #02 //268   ----------------------------------------
 BYTE   W96
//  #02 //269   ----------------------------------------
 BYTE   W96
//  #02 //270   ----------------------------------------
 BYTE   W96
//  #02 //271   ----------------------------------------
 BYTE   W96
//  #02 //272   ----------------------------------------
 BYTE   W96
//  #02 //273   ----------------------------------------
 BYTE   W96
//  #02 //274   ----------------------------------------
 BYTE   W96
//  #02 //275   ----------------------------------------
 BYTE   W96
//  #02 //276   ----------------------------------------
 BYTE   W96
//  #02 //277   ----------------------------------------
 BYTE   W96
//  #02 //278   ----------------------------------------
 BYTE   W96
//  #02 //279   ----------------------------------------
 BYTE   W96
//  #02 //280   ----------------------------------------
 BYTE   W96
//  #02 //281   ----------------------------------------
 BYTE   W96
//  #02 //282   ----------------------------------------
 BYTE   PATT
  POIN2 Label_01005D02
//  #02 //283   ----------------------------------------
 BYTE   W92
 BYTE   W03
 BYTE   EOT
 BYTE   Bn2  v064
 BYTE   W01
//  #02 //284   ----------------------------------------
 BYTE   N92  Bn2  v092
 BYTE   N92  Dn3
 BYTE   W96
//  #02 //285   ----------------------------------------
 BYTE   PATT
  POIN2 Label_01005D19
//  #02 //286   ----------------------------------------
 BYTE   N92  An2  v092
 BYTE   N92  Cn3
 BYTE   W96
//  #02 //287   ----------------------------------------
 BYTE   Gn2
 BYTE   N92  As2
 BYTE   W96
//  #02 //288   ----------------------------------------
 BYTE   PATT
  POIN2 Label_01005D32
//  #02 //289   ----------------------------------------
 BYTE   W92
 BYTE   W03
 BYTE   EOT
 BYTE   Bn2  v064
 BYTE   W01
//  #02 //290   ----------------------------------------
 BYTE   TIE  Bn2  v092
 BYTE   W96
//  #02 //291   ----------------------------------------
 BYTE   W92
 BYTE   W03
 BYTE   EOT
 BYTE   W01
//  #02 //292   ----------------------------------------
 BYTE   PATT
  POIN2 Label_01005D46
//  #02 //293   ----------------------------------------
 BYTE   W92
 BYTE   W03
 BYTE   EOT
 BYTE   Bn2  v066
 BYTE   W01
//  #02 //294   ----------------------------------------
 BYTE   N92  Cn3  v092
 BYTE   N92  Gn3
 BYTE   W96
//  #02 //295   ----------------------------------------
 BYTE   Ds3
 BYTE   N92  As3
 BYTE   W96
//  #02 //296   ----------------------------------------
 BYTE   En3
 BYTE   N92  Bn3
 BYTE   W96
//  #02 //297   ----------------------------------------
 BYTE   Fs3
 BYTE   N92  Bn3
 BYTE   W96
//  #02 //298   ----------------------------------------
 BYTE   PATT
  POIN2 Label_01005D02
//  #02 //299   ----------------------------------------
 BYTE   W92
 BYTE   W03
 BYTE   EOT
 BYTE   Bn2  v064
 BYTE   W01
//  #02 //300   ----------------------------------------
 BYTE   N92  Bn2  v092
 BYTE   N92  Dn3
 BYTE   W96
//  #02 //301   ----------------------------------------
 BYTE   PATT
  POIN2 Label_01005D19
//  #02 //302   ----------------------------------------
 BYTE   N92  An2  v092
 BYTE   N92  Cn3
 BYTE   W96
//  #02 //303   ----------------------------------------
 BYTE   Gn2
 BYTE   N92  As2
 BYTE   W96
//  #02 //304   ----------------------------------------
 BYTE   PATT
  POIN2 Label_01005D32
//  #02 //305   ----------------------------------------
 BYTE   W92
 BYTE   W03
 BYTE   EOT
 BYTE   Bn2  v064
 BYTE   W01
//  #02 //306   ----------------------------------------
 BYTE   N92  Cn3  v092
 BYTE   N92  En3
 BYTE   W96
//  #02 //307   ----------------------------------------
 BYTE   Bn2
 BYTE   N92  Dn3
 BYTE   W96
//  #02 //308   ----------------------------------------
 BYTE   An2
 BYTE   N92  Cn3
 BYTE   W96
//  #02 //309   ----------------------------------------
 BYTE   Bn2
 BYTE   N92  En3
 BYTE   W96
//  #02 //310   ----------------------------------------
 BYTE   Fs2
 BYTE   N92  An2
 BYTE   W96
//  #02 //311   ----------------------------------------
 BYTE   N92
 BYTE   N92  Ds3
 BYTE   W96
//  #02 //312   ----------------------------------------
 BYTE   Gn2
 BYTE   N92  Bn2
 BYTE   W96
//  #02 //313   ----------------------------------------
 BYTE   En3
 BYTE   N92  Gn3
 BYTE   W96
//  #02 //314   ----------------------------------------
 BYTE   PATT
  POIN2 Label_01005D02
//  #02 //315   ----------------------------------------
 BYTE   W92
 BYTE   W03
 BYTE   EOT
 BYTE   Bn2  v064
 BYTE   W01
//  #02 //316   ----------------------------------------
 BYTE   N92  Bn2  v092
 BYTE   N92  Dn3
 BYTE   W96
//  #02 //317   ----------------------------------------
 BYTE   PATT
  POIN2 Label_01005D19
//  #02 //318   ----------------------------------------
 BYTE   N92  An2  v092
 BYTE   N92  Cn3
 BYTE   W96
//  #02 //319   ----------------------------------------
 BYTE   Gn2
 BYTE   N92  As2
 BYTE   W96
//  #02 //320   ----------------------------------------
 BYTE   PATT
  POIN2 Label_01005D32
//  #02 //321   ----------------------------------------
 BYTE   W92
 BYTE   W03
 BYTE   EOT
 BYTE   Bn2  v064
 BYTE   W01
//  #02 //322   ----------------------------------------
 BYTE   N92  Cn3  v092
 BYTE   N92  En3
 BYTE   W96
//  #02 //323   ----------------------------------------
 BYTE   Bn2
 BYTE   N92  Dn3
 BYTE   W96
//  #02 //324   ----------------------------------------
 BYTE   An2
 BYTE   N92  Cn3
 BYTE   W96
//  #02 //325   ----------------------------------------
 BYTE   Bn2
 BYTE   N92  En3
 BYTE   W96
//  #02 //326   ----------------------------------------
 BYTE   Fs2
 BYTE   N92  An2
 BYTE   W96
//  #02 //327   ----------------------------------------
 BYTE   N92
 BYTE   N92  Ds3
 BYTE   W96
//  #02 //328   ----------------------------------------
 BYTE   Gn2
 BYTE   N92  Bn2
 BYTE   W96
//  #02 //329   ----------------------------------------
 BYTE   En3
 BYTE   N92  Gn3
 BYTE   W96
//  #02 //330   ----------------------------------------
 BYTE   GoTo
  POIN2 Label_01005BC6
//  #02 //331   ----------------------------------------
 BYTE   W96
//  #02 //332   ----------------------------------------
 BYTE   W96
//  #02 //333   ----------------------------------------
 BYTE   W96
//  #02 //334   ----------------------------------------
 BYTE   W96
//  #02 //335   ----------------------------------------
 BYTE   W96
//  #02 //336   ----------------------------------------
 BYTE   W96
//  #02 //337   ----------------------------------------
 BYTE   W96
//  #02 //338   ----------------------------------------
 BYTE   W96
//  #02 //339   ----------------------------------------
 BYTE   W96
//  #02 //340   ----------------------------------------
 BYTE   W96
//  #02 //341   ----------------------------------------
 BYTE   W96
//  #02 //342   ----------------------------------------
 BYTE   W96
//  #02 //343   ----------------------------------------
 BYTE   W96
//  #02 //344   ----------------------------------------
 BYTE   W96
//  #02 //345   ----------------------------------------
 BYTE   W96
//  #02 //346   ----------------------------------------
 BYTE   W96
//  #02 //347   ----------------------------------------
 BYTE   W96
//  #02 //348   ----------------------------------------
 BYTE   W96
 BYTE   FINE

//**************** Track 3 (Midi-Chn.2) ****************//

BloodstainedLineage_003:
//  #03 //000   ----------------------------------------
 BYTE   KEYSH   BloodstainedLineage_key+0
 BYTE   VOICE   10
 BYTE   PAN   c_v-14
 BYTE   VOL   20*BloodstainedLineage_mvl/mxv
 BYTE   N11  En5  v092
 BYTE   W12
 BYTE   Bn5
 BYTE   W12
 BYTE   En6
 BYTE   W12
 BYTE   As5
 BYTE   W12
 BYTE   An5
 BYTE   W12
 BYTE   Gn5
 BYTE   W12
 BYTE   En5
 BYTE   W12
 BYTE   An5
 BYTE   W12
//  #03 //001   ----------------------------------------
Label_010051F6:
 BYTE   N11  En6  v092
 BYTE   W24
 BYTE   Gn6
 BYTE   W24
 BYTE   Dn6
 BYTE   W24
 BYTE   Cs6
 BYTE   W24
 BYTE   PEND 
//  #03 //002   ----------------------------------------
Label_01005201:
 BYTE   N07  Ds6  v092
 BYTE   W12
 BYTE   N05  Bn5
 BYTE   W06
 BYTE   Ds6
 BYTE   W06
 BYTE   N11  Fs6
 BYTE   W12
 BYTE   Ds6
 BYTE   W12
 BYTE   Dn6
 BYTE   W12
 BYTE   Bn5
 BYTE   W12
 BYTE   An5
 BYTE   W12
 BYTE   Fs5
 BYTE   W12
 BYTE   PEND 
//  #03 //003   ----------------------------------------
Label_01005218:
 BYTE   N11  Bn5  v092
 BYTE   W24
 BYTE   En5
 BYTE   W24
 BYTE   Gn5
 BYTE   W24
 BYTE   Fs5
 BYTE   W24
 BYTE   PEND 
//  #03 //004   ----------------------------------------
Label_01005223:
 BYTE   N11  En5  v092
 BYTE   W12
 BYTE   Bn5
 BYTE   W12
 BYTE   En6
 BYTE   W12
 BYTE   As5
 BYTE   W12
 BYTE   An5
 BYTE   W12
 BYTE   Gn5
 BYTE   W12
 BYTE   En5
 BYTE   W12
 BYTE   An5
 BYTE   W12
 BYTE   PEND 
//  #03 //005   ----------------------------------------
 BYTE   PATT
  POIN2 Label_010051F6
//  #03 //006   ----------------------------------------
 BYTE   PATT
  POIN2 Label_01005201
//  #03 //007   ----------------------------------------
 BYTE   PATT
  POIN2 Label_01005218
//  #03 //008   ----------------------------------------
 BYTE   PATT
  POIN2 Label_01005223
//  #03 //009   ----------------------------------------
 BYTE   PATT
  POIN2 Label_010051F6
//  #03 //010   ----------------------------------------
 BYTE   W96
//  #03 //011   ----------------------------------------
 BYTE   W96
//  #03 //012   ----------------------------------------
 BYTE   W96
//  #03 //013   ----------------------------------------
 BYTE   W96
//  #03 //014   ----------------------------------------
 BYTE   W96
//  #03 //015   ----------------------------------------
 BYTE   W96
//  #03 //016   ----------------------------------------
 BYTE   W96
//  #03 //017   ----------------------------------------
 BYTE   W96
//  #03 //018   ----------------------------------------
 BYTE   W96
//  #03 //019   ----------------------------------------
 BYTE   W96
//  #03 //020   ----------------------------------------
 BYTE   W96
//  #03 //021   ----------------------------------------
 BYTE   W96
//  #03 //022   ----------------------------------------
Label_0100525B:
 BYTE   W96
//  #03 //023   ----------------------------------------
 BYTE   W96
//  #03 //024   ----------------------------------------
 BYTE   W96
//  #03 //025   ----------------------------------------
 BYTE   W96
//  #03 //026   ----------------------------------------
 BYTE   W96
//  #03 //027   ----------------------------------------
 BYTE   W96
//  #03 //028   ----------------------------------------
 BYTE   W96
//  #03 //029   ----------------------------------------
 BYTE   W96
//  #03 //030   ----------------------------------------
 BYTE   W96
//  #03 //031   ----------------------------------------
 BYTE   W96
//  #03 //032   ----------------------------------------
 BYTE   W96
//  #03 //033   ----------------------------------------
 BYTE   W96
//  #03 //034   ----------------------------------------
 BYTE   W96
//  #03 //035   ----------------------------------------
 BYTE   W96
//  #03 //036   ----------------------------------------
 BYTE   W96
//  #03 //037   ----------------------------------------
 BYTE   W96
//  #03 //038   ----------------------------------------
 BYTE   W96
//  #03 //039   ----------------------------------------
 BYTE   W96
//  #03 //040   ----------------------------------------
 BYTE   W96
//  #03 //041   ----------------------------------------
 BYTE   W96
//  #03 //042   ----------------------------------------
 BYTE   W96
//  #03 //043   ----------------------------------------
 BYTE   W96
//  #03 //044   ----------------------------------------
 BYTE   W96
//  #03 //045   ----------------------------------------
 BYTE   W96
//  #03 //046   ----------------------------------------
 BYTE   W96
//  #03 //047   ----------------------------------------
 BYTE   W96
//  #03 //048   ----------------------------------------
 BYTE   W96
//  #03 //049   ----------------------------------------
 BYTE   W96
//  #03 //050   ----------------------------------------
 BYTE   W96
//  #03 //051   ----------------------------------------
 BYTE   W96
//  #03 //052   ----------------------------------------
 BYTE   W96
//  #03 //053   ----------------------------------------
 BYTE   W96
//  #03 //054   ----------------------------------------
 BYTE   W96
//  #03 //055   ----------------------------------------
 BYTE   W96
//  #03 //056   ----------------------------------------
 BYTE   W96
//  #03 //057   ----------------------------------------
 BYTE   W96
//  #03 //058   ----------------------------------------
 BYTE   W96
//  #03 //059   ----------------------------------------
 BYTE   W96
//  #03 //060   ----------------------------------------
 BYTE   W96
//  #03 //061   ----------------------------------------
 BYTE   W96
//  #03 //062   ----------------------------------------
 BYTE   W96
//  #03 //063   ----------------------------------------
 BYTE   W96
//  #03 //064   ----------------------------------------
 BYTE   W96
//  #03 //065   ----------------------------------------
 BYTE   W96
//  #03 //066   ----------------------------------------
 BYTE   W96
//  #03 //067   ----------------------------------------
 BYTE   W96
//  #03 //068   ----------------------------------------
 BYTE   W96
//  #03 //069   ----------------------------------------
 BYTE   W96
//  #03 //070   ----------------------------------------
 BYTE   W96
//  #03 //071   ----------------------------------------
 BYTE   W96
//  #03 //072   ----------------------------------------
 BYTE   W96
//  #03 //073   ----------------------------------------
 BYTE   W96
//  #03 //074   ----------------------------------------
 BYTE   W96
//  #03 //075   ----------------------------------------
 BYTE   W96
//  #03 //076   ----------------------------------------
 BYTE   W96
//  #03 //077   ----------------------------------------
 BYTE   W96
//  #03 //078   ----------------------------------------
 BYTE   W96
//  #03 //079   ----------------------------------------
 BYTE   W96
//  #03 //080   ----------------------------------------
 BYTE   W96
//  #03 //081   ----------------------------------------
 BYTE   W96
//  #03 //082   ----------------------------------------
 BYTE   W96
//  #03 //083   ----------------------------------------
 BYTE   W96
//  #03 //084   ----------------------------------------
 BYTE   W96
//  #03 //085   ----------------------------------------
 BYTE   W96
//  #03 //086   ----------------------------------------
 BYTE   W96
//  #03 //087   ----------------------------------------
 BYTE   W96
//  #03 //088   ----------------------------------------
 BYTE   W96
//  #03 //089   ----------------------------------------
 BYTE   W96
//  #03 //090   ----------------------------------------
 BYTE   W96
//  #03 //091   ----------------------------------------
 BYTE   W96
//  #03 //092   ----------------------------------------
 BYTE   W96
//  #03 //093   ----------------------------------------
 BYTE   W96
//  #03 //094   ----------------------------------------
 BYTE   W96
//  #03 //095   ----------------------------------------
 BYTE   W96
//  #03 //096   ----------------------------------------
 BYTE   W96
//  #03 //097   ----------------------------------------
 BYTE   W96
//  #03 //098   ----------------------------------------
 BYTE   W96
//  #03 //099   ----------------------------------------
 BYTE   W96
//  #03 //100   ----------------------------------------
 BYTE   W96
//  #03 //101   ----------------------------------------
 BYTE   W96
//  #03 //102   ----------------------------------------
 BYTE   W96
//  #03 //103   ----------------------------------------
 BYTE   W96
//  #03 //104   ----------------------------------------
 BYTE   W96
//  #03 //105   ----------------------------------------
 BYTE   W96
//  #03 //106   ----------------------------------------
 BYTE   W96
//  #03 //107   ----------------------------------------
 BYTE   W96
//  #03 //108   ----------------------------------------
 BYTE   W96
//  #03 //109   ----------------------------------------
 BYTE   W96
//  #03 //110   ----------------------------------------
 BYTE   W96
//  #03 //111   ----------------------------------------
 BYTE   W96
//  #03 //112   ----------------------------------------
 BYTE   W96
//  #03 //113   ----------------------------------------
 BYTE   W96
//  #03 //114   ----------------------------------------
 BYTE   W96
//  #03 //115   ----------------------------------------
 BYTE   W96
//  #03 //116   ----------------------------------------
 BYTE   W96
//  #03 //117   ----------------------------------------
 BYTE   W96
//  #03 //118   ----------------------------------------
 BYTE   W96
//  #03 //119   ----------------------------------------
 BYTE   W96
//  #03 //120   ----------------------------------------
 BYTE   W96
//  #03 //121   ----------------------------------------
 BYTE   W96
//  #03 //122   ----------------------------------------
 BYTE   W96
//  #03 //123   ----------------------------------------
 BYTE   W96
//  #03 //124   ----------------------------------------
 BYTE   W96
//  #03 //125   ----------------------------------------
 BYTE   W96
//  #03 //126   ----------------------------------------
 BYTE   W96
//  #03 //127   ----------------------------------------
 BYTE   W96
//  #03 //128   ----------------------------------------
 BYTE   W96
//  #03 //129   ----------------------------------------
 BYTE   W96
//  #03 //130   ----------------------------------------
 BYTE   W96
//  #03 //131   ----------------------------------------
 BYTE   W96
//  #03 //132   ----------------------------------------
 BYTE   W96
//  #03 //133   ----------------------------------------
 BYTE   W96
//  #03 //134   ----------------------------------------
 BYTE   W96
//  #03 //135   ----------------------------------------
 BYTE   W96
//  #03 //136   ----------------------------------------
 BYTE   W96
//  #03 //137   ----------------------------------------
 BYTE   W96
//  #03 //138   ----------------------------------------
 BYTE   W96
//  #03 //139   ----------------------------------------
 BYTE   W96
//  #03 //140   ----------------------------------------
 BYTE   W96
//  #03 //141   ----------------------------------------
 BYTE   W96
//  #03 //142   ----------------------------------------
 BYTE   W96
//  #03 //143   ----------------------------------------
 BYTE   W96
//  #03 //144   ----------------------------------------
 BYTE   W96
//  #03 //145   ----------------------------------------
 BYTE   W96
//  #03 //146   ----------------------------------------
 BYTE   W96
//  #03 //147   ----------------------------------------
 BYTE   W96
//  #03 //148   ----------------------------------------
 BYTE   W96
//  #03 //149   ----------------------------------------
 BYTE   W96
//  #03 //150   ----------------------------------------
 BYTE   W96
//  #03 //151   ----------------------------------------
 BYTE   W96
//  #03 //152   ----------------------------------------
 BYTE   W96
//  #03 //153   ----------------------------------------
 BYTE   W96
//  #03 //154   ----------------------------------------
 BYTE   W96
//  #03 //155   ----------------------------------------
 BYTE   W96
//  #03 //156   ----------------------------------------
 BYTE   W96
//  #03 //157   ----------------------------------------
 BYTE   W96
//  #03 //158   ----------------------------------------
 BYTE   W96
//  #03 //159   ----------------------------------------
 BYTE   W96
//  #03 //160   ----------------------------------------
 BYTE   W96
//  #03 //161   ----------------------------------------
 BYTE   W96
//  #03 //162   ----------------------------------------
 BYTE   W96
//  #03 //163   ----------------------------------------
 BYTE   W96
//  #03 //164   ----------------------------------------
 BYTE   W96
//  #03 //165   ----------------------------------------
 BYTE   W96
//  #03 //166   ----------------------------------------
 BYTE   W96
//  #03 //167   ----------------------------------------
 BYTE   W96
//  #03 //168   ----------------------------------------
 BYTE   W96
//  #03 //169   ----------------------------------------
 BYTE   W96
//  #03 //170   ----------------------------------------
 BYTE   W96
//  #03 //171   ----------------------------------------
 BYTE   W96
//  #03 //172   ----------------------------------------
 BYTE   W96
//  #03 //173   ----------------------------------------
 BYTE   W96
//  #03 //174   ----------------------------------------
 BYTE   W96
//  #03 //175   ----------------------------------------
 BYTE   W96
//  #03 //176   ----------------------------------------
 BYTE   W96
//  #03 //177   ----------------------------------------
 BYTE   W96
//  #03 //178   ----------------------------------------
 BYTE   W96
//  #03 //179   ----------------------------------------
 BYTE   W96
//  #03 //180   ----------------------------------------
 BYTE   W96
//  #03 //181   ----------------------------------------
 BYTE   W96
//  #03 //182   ----------------------------------------
 BYTE   W96
//  #03 //183   ----------------------------------------
 BYTE   W96
//  #03 //184   ----------------------------------------
 BYTE   W96
//  #03 //185   ----------------------------------------
 BYTE   W96
//  #03 //186   ----------------------------------------
 BYTE   W96
//  #03 //187   ----------------------------------------
 BYTE   W96
//  #03 //188   ----------------------------------------
 BYTE   W96
//  #03 //189   ----------------------------------------
 BYTE   W96
//  #03 //190   ----------------------------------------
 BYTE   W96
//  #03 //191   ----------------------------------------
 BYTE   W96
//  #03 //192   ----------------------------------------
 BYTE   W96
//  #03 //193   ----------------------------------------
 BYTE   W96
//  #03 //194   ----------------------------------------
 BYTE   W96
//  #03 //195   ----------------------------------------
 BYTE   W96
//  #03 //196   ----------------------------------------
 BYTE   W96
//  #03 //197   ----------------------------------------
 BYTE   W96
//  #03 //198   ----------------------------------------
 BYTE   W96
//  #03 //199   ----------------------------------------
 BYTE   W96
//  #03 //200   ----------------------------------------
 BYTE   W96
//  #03 //201   ----------------------------------------
 BYTE   W96
//  #03 //202   ----------------------------------------
 BYTE   W96
//  #03 //203   ----------------------------------------
 BYTE   W96
//  #03 //204   ----------------------------------------
 BYTE   W96
//  #03 //205   ----------------------------------------
 BYTE   W96
//  #03 //206   ----------------------------------------
 BYTE   W96
//  #03 //207   ----------------------------------------
 BYTE   W96
//  #03 //208   ----------------------------------------
 BYTE   W96
//  #03 //209   ----------------------------------------
 BYTE   W96
//  #03 //210   ----------------------------------------
 BYTE   W96
//  #03 //211   ----------------------------------------
 BYTE   W96
//  #03 //212   ----------------------------------------
 BYTE   W96
//  #03 //213   ----------------------------------------
 BYTE   W96
//  #03 //214   ----------------------------------------
 BYTE   W96
//  #03 //215   ----------------------------------------
 BYTE   W96
//  #03 //216   ----------------------------------------
 BYTE   W96
//  #03 //217   ----------------------------------------
 BYTE   W96
//  #03 //218   ----------------------------------------
 BYTE   W96
//  #03 //219   ----------------------------------------
 BYTE   W96
//  #03 //220   ----------------------------------------
 BYTE   W96
//  #03 //221   ----------------------------------------
 BYTE   W96
//  #03 //222   ----------------------------------------
 BYTE   W96
//  #03 //223   ----------------------------------------
 BYTE   W96
//  #03 //224   ----------------------------------------
 BYTE   W96
//  #03 //225   ----------------------------------------
 BYTE   W96
//  #03 //226   ----------------------------------------
 BYTE   W96
//  #03 //227   ----------------------------------------
 BYTE   W96
//  #03 //228   ----------------------------------------
 BYTE   W96
//  #03 //229   ----------------------------------------
 BYTE   W96
//  #03 //230   ----------------------------------------
 BYTE   W96
//  #03 //231   ----------------------------------------
 BYTE   W96
//  #03 //232   ----------------------------------------
 BYTE   W96
//  #03 //233   ----------------------------------------
 BYTE   W96
//  #03 //234   ----------------------------------------
 BYTE   W96
//  #03 //235   ----------------------------------------
 BYTE   W96
//  #03 //236   ----------------------------------------
 BYTE   W96
//  #03 //237   ----------------------------------------
 BYTE   W96
//  #03 //238   ----------------------------------------
 BYTE   W96
//  #03 //239   ----------------------------------------
 BYTE   W96
//  #03 //240   ----------------------------------------
 BYTE   W96
//  #03 //241   ----------------------------------------
 BYTE   W96
//  #03 //242   ----------------------------------------
 BYTE   W96
//  #03 //243   ----------------------------------------
 BYTE   W96
//  #03 //244   ----------------------------------------
 BYTE   W96
//  #03 //245   ----------------------------------------
 BYTE   W96
//  #03 //246   ----------------------------------------
 BYTE   W96
//  #03 //247   ----------------------------------------
 BYTE   W96
//  #03 //248   ----------------------------------------
 BYTE   W96
//  #03 //249   ----------------------------------------
 BYTE   W96
//  #03 //250   ----------------------------------------
 BYTE   W96
//  #03 //251   ----------------------------------------
 BYTE   W96
//  #03 //252   ----------------------------------------
 BYTE   W96
//  #03 //253   ----------------------------------------
 BYTE   W96
//  #03 //254   ----------------------------------------
 BYTE   W96
//  #03 //255   ----------------------------------------
 BYTE   W96
//  #03 //256   ----------------------------------------
 BYTE   W96
//  #03 //257   ----------------------------------------
 BYTE   W96
//  #03 //258   ----------------------------------------
 BYTE   W96
//  #03 //259   ----------------------------------------
 BYTE   W96
//  #03 //260   ----------------------------------------
 BYTE   W96
//  #03 //261   ----------------------------------------
 BYTE   W96
//  #03 //262   ----------------------------------------
 BYTE   W96
//  #03 //263   ----------------------------------------
 BYTE   W96
//  #03 //264   ----------------------------------------
 BYTE   W96
//  #03 //265   ----------------------------------------
 BYTE   W96
//  #03 //266   ----------------------------------------
 BYTE   W96
//  #03 //267   ----------------------------------------
 BYTE   W96
//  #03 //268   ----------------------------------------
 BYTE   W96
//  #03 //269   ----------------------------------------
 BYTE   W96
//  #03 //270   ----------------------------------------
 BYTE   W96
//  #03 //271   ----------------------------------------
 BYTE   W96
//  #03 //272   ----------------------------------------
 BYTE   W96
//  #03 //273   ----------------------------------------
 BYTE   W96
//  #03 //274   ----------------------------------------
 BYTE   W96
//  #03 //275   ----------------------------------------
 BYTE   W96
//  #03 //276   ----------------------------------------
 BYTE   W96
//  #03 //277   ----------------------------------------
 BYTE   W96
//  #03 //278   ----------------------------------------
 BYTE   W96
//  #03 //279   ----------------------------------------
 BYTE   W96
//  #03 //280   ----------------------------------------
 BYTE   W96
//  #03 //281   ----------------------------------------
 BYTE   W96
//  #03 //282   ----------------------------------------
 BYTE   W96
//  #03 //283   ----------------------------------------
 BYTE   W96
//  #03 //284   ----------------------------------------
 BYTE   W96
//  #03 //285   ----------------------------------------
 BYTE   W96
//  #03 //286   ----------------------------------------
 BYTE   W96
//  #03 //287   ----------------------------------------
 BYTE   W96
//  #03 //288   ----------------------------------------
 BYTE   W96
//  #03 //289   ----------------------------------------
 BYTE   W96
//  #03 //290   ----------------------------------------
 BYTE   W96
//  #03 //291   ----------------------------------------
 BYTE   W96
//  #03 //292   ----------------------------------------
 BYTE   W96
//  #03 //293   ----------------------------------------
 BYTE   W96
//  #03 //294   ----------------------------------------
 BYTE   W96
//  #03 //295   ----------------------------------------
 BYTE   W96
//  #03 //296   ----------------------------------------
 BYTE   W96
//  #03 //297   ----------------------------------------
 BYTE   W96
//  #03 //298   ----------------------------------------
 BYTE   W96
//  #03 //299   ----------------------------------------
 BYTE   W96
//  #03 //300   ----------------------------------------
 BYTE   W96
//  #03 //301   ----------------------------------------
 BYTE   W96
//  #03 //302   ----------------------------------------
 BYTE   W96
//  #03 //303   ----------------------------------------
 BYTE   W96
//  #03 //304   ----------------------------------------
 BYTE   W96
//  #03 //305   ----------------------------------------
 BYTE   W96
//  #03 //306   ----------------------------------------
 BYTE   W96
//  #03 //307   ----------------------------------------
 BYTE   W96
//  #03 //308   ----------------------------------------
 BYTE   W96
//  #03 //309   ----------------------------------------
 BYTE   W96
//  #03 //310   ----------------------------------------
 BYTE   W96
//  #03 //311   ----------------------------------------
 BYTE   W96
//  #03 //312   ----------------------------------------
 BYTE   W96
//  #03 //313   ----------------------------------------
 BYTE   W96
//  #03 //314   ----------------------------------------
 BYTE   W96
//  #03 //315   ----------------------------------------
 BYTE   W96
//  #03 //316   ----------------------------------------
 BYTE   W96
//  #03 //317   ----------------------------------------
 BYTE   W96
//  #03 //318   ----------------------------------------
 BYTE   W96
//  #03 //319   ----------------------------------------
 BYTE   W96
//  #03 //320   ----------------------------------------
 BYTE   W96
//  #03 //321   ----------------------------------------
 BYTE   W96
//  #03 //322   ----------------------------------------
 BYTE   W96
//  #03 //323   ----------------------------------------
 BYTE   W96
//  #03 //324   ----------------------------------------
 BYTE   W96
//  #03 //325   ----------------------------------------
 BYTE   W96
//  #03 //326   ----------------------------------------
 BYTE   W96
//  #03 //327   ----------------------------------------
 BYTE   W96
//  #03 //328   ----------------------------------------
 BYTE   W96
//  #03 //329   ----------------------------------------
 BYTE   W96
//  #03 //330   ----------------------------------------
 BYTE   GoTo
  POIN2 Label_0100525B
//  #03 //331   ----------------------------------------
 BYTE   W96
//  #03 //332   ----------------------------------------
 BYTE   W96
//  #03 //333   ----------------------------------------
 BYTE   W96
//  #03 //334   ----------------------------------------
 BYTE   W96
//  #03 //335   ----------------------------------------
 BYTE   W96
//  #03 //336   ----------------------------------------
 BYTE   W96
//  #03 //337   ----------------------------------------
 BYTE   W96
//  #03 //338   ----------------------------------------
 BYTE   W96
//  #03 //339   ----------------------------------------
 BYTE   W96
//  #03 //340   ----------------------------------------
 BYTE   W96
//  #03 //341   ----------------------------------------
 BYTE   W96
//  #03 //342   ----------------------------------------
 BYTE   W96
//  #03 //343   ----------------------------------------
 BYTE   W96
//  #03 //344   ----------------------------------------
 BYTE   W96
//  #03 //345   ----------------------------------------
 BYTE   W96
//  #03 //346   ----------------------------------------
 BYTE   W96
//  #03 //347   ----------------------------------------
 BYTE   W96
//  #03 //348   ----------------------------------------
 BYTE   W96
 BYTE   FINE

//**************** Track 4 (Midi-Chn.3) ****************//

BloodstainedLineage_004:
//  #04 //000   ----------------------------------------
 BYTE   KEYSH   BloodstainedLineage_key+0
 BYTE   VOICE   47
 BYTE   PAN   c_v+0
 BYTE   VOL   40*BloodstainedLineage_mvl/mxv
 BYTE   N23  En1  v092
 BYTE   W24
 BYTE   N68  Bn1
 BYTE   W72
//  #04 //001   ----------------------------------------
Label_01005FF7:
 BYTE   N23  En1  v092
 BYTE   W24
 BYTE   Bn1
 BYTE   W24
 BYTE   N11  En2
 BYTE   W12
 BYTE   N11
 BYTE   W12
 BYTE   N23  Bn1
 BYTE   W24
 BYTE   PEND 
//  #04 //002   ----------------------------------------
Label_01006006:
 BYTE   N23  En1  v092
 BYTE   W24
 BYTE   N68  Bn1
 BYTE   W72
 BYTE   PEND 
//  #04 //003   ----------------------------------------
 BYTE   PATT
  POIN2 Label_01005FF7
//  #04 //004   ----------------------------------------
 BYTE   PATT
  POIN2 Label_01006006
//  #04 //005   ----------------------------------------
 BYTE   PATT
  POIN2 Label_01005FF7
//  #04 //006   ----------------------------------------
 BYTE   PATT
  POIN2 Label_01006006
//  #04 //007   ----------------------------------------
 BYTE   PATT
  POIN2 Label_01005FF7
//  #04 //008   ----------------------------------------
 BYTE   W96
//  #04 //009   ----------------------------------------
 BYTE   W96
//  #04 //010   ----------------------------------------
 BYTE   W96
//  #04 //011   ----------------------------------------
 BYTE   W96
//  #04 //012   ----------------------------------------
 BYTE   W96
//  #04 //013   ----------------------------------------
 BYTE   W96
//  #04 //014   ----------------------------------------
 BYTE   W96
//  #04 //015   ----------------------------------------
 BYTE   W96
//  #04 //016   ----------------------------------------
 BYTE   W96
//  #04 //017   ----------------------------------------
 BYTE   W96
//  #04 //018   ----------------------------------------
 BYTE   W96
//  #04 //019   ----------------------------------------
 BYTE   W96
//  #04 //020   ----------------------------------------
 BYTE   W96
//  #04 //021   ----------------------------------------
 BYTE   W96
//  #04 //022   ----------------------------------------
Label_01006035:
 BYTE   W96
//  #04 //023   ----------------------------------------
 BYTE   W96
//  #04 //024   ----------------------------------------
 BYTE   W96
//  #04 //025   ----------------------------------------
 BYTE   W96
//  #04 //026   ----------------------------------------
 BYTE   W96
//  #04 //027   ----------------------------------------
 BYTE   W96
//  #04 //028   ----------------------------------------
 BYTE   W96
//  #04 //029   ----------------------------------------
 BYTE   W96
//  #04 //030   ----------------------------------------
 BYTE   W96
//  #04 //031   ----------------------------------------
 BYTE   W96
//  #04 //032   ----------------------------------------
 BYTE   W96
//  #04 //033   ----------------------------------------
 BYTE   W96
//  #04 //034   ----------------------------------------
 BYTE   W96
//  #04 //035   ----------------------------------------
 BYTE   W96
//  #04 //036   ----------------------------------------
 BYTE   W96
//  #04 //037   ----------------------------------------
 BYTE   W96
//  #04 //038   ----------------------------------------
 BYTE   W96
//  #04 //039   ----------------------------------------
 BYTE   W96
//  #04 //040   ----------------------------------------
 BYTE   W96
//  #04 //041   ----------------------------------------
 BYTE   W96
//  #04 //042   ----------------------------------------
 BYTE   W96
//  #04 //043   ----------------------------------------
 BYTE   W96
//  #04 //044   ----------------------------------------
 BYTE   W96
//  #04 //045   ----------------------------------------
 BYTE   W96
//  #04 //046   ----------------------------------------
 BYTE   W96
//  #04 //047   ----------------------------------------
 BYTE   W96
//  #04 //048   ----------------------------------------
 BYTE   W96
//  #04 //049   ----------------------------------------
 BYTE   W96
//  #04 //050   ----------------------------------------
 BYTE   W96
//  #04 //051   ----------------------------------------
 BYTE   W96
//  #04 //052   ----------------------------------------
 BYTE   W96
//  #04 //053   ----------------------------------------
 BYTE   W96
//  #04 //054   ----------------------------------------
 BYTE   W96
//  #04 //055   ----------------------------------------
 BYTE   W96
//  #04 //056   ----------------------------------------
 BYTE   W96
//  #04 //057   ----------------------------------------
 BYTE   W96
//  #04 //058   ----------------------------------------
 BYTE   W96
//  #04 //059   ----------------------------------------
 BYTE   W96
//  #04 //060   ----------------------------------------
 BYTE   W96
//  #04 //061   ----------------------------------------
 BYTE   W96
//  #04 //062   ----------------------------------------
 BYTE   W96
//  #04 //063   ----------------------------------------
 BYTE   W96
//  #04 //064   ----------------------------------------
 BYTE   W96
//  #04 //065   ----------------------------------------
 BYTE   W96
//  #04 //066   ----------------------------------------
 BYTE   W96
//  #04 //067   ----------------------------------------
 BYTE   W96
//  #04 //068   ----------------------------------------
 BYTE   W96
//  #04 //069   ----------------------------------------
 BYTE   W96
//  #04 //070   ----------------------------------------
 BYTE   W96
//  #04 //071   ----------------------------------------
 BYTE   W96
//  #04 //072   ----------------------------------------
 BYTE   W96
//  #04 //073   ----------------------------------------
 BYTE   W96
//  #04 //074   ----------------------------------------
 BYTE   W96
//  #04 //075   ----------------------------------------
 BYTE   W96
//  #04 //076   ----------------------------------------
 BYTE   W96
//  #04 //077   ----------------------------------------
 BYTE   W96
//  #04 //078   ----------------------------------------
 BYTE   W96
//  #04 //079   ----------------------------------------
 BYTE   W96
//  #04 //080   ----------------------------------------
 BYTE   W96
//  #04 //081   ----------------------------------------
 BYTE   W96
//  #04 //082   ----------------------------------------
 BYTE   W96
//  #04 //083   ----------------------------------------
 BYTE   W96
//  #04 //084   ----------------------------------------
 BYTE   W96
//  #04 //085   ----------------------------------------
 BYTE   W96
//  #04 //086   ----------------------------------------
 BYTE   W96
//  #04 //087   ----------------------------------------
 BYTE   W96
//  #04 //088   ----------------------------------------
 BYTE   W96
//  #04 //089   ----------------------------------------
 BYTE   W96
//  #04 //090   ----------------------------------------
 BYTE   W96
//  #04 //091   ----------------------------------------
 BYTE   W96
//  #04 //092   ----------------------------------------
 BYTE   W96
//  #04 //093   ----------------------------------------
 BYTE   W96
//  #04 //094   ----------------------------------------
 BYTE   W96
//  #04 //095   ----------------------------------------
 BYTE   W96
//  #04 //096   ----------------------------------------
 BYTE   W96
//  #04 //097   ----------------------------------------
 BYTE   W96
//  #04 //098   ----------------------------------------
 BYTE   W96
//  #04 //099   ----------------------------------------
 BYTE   W96
//  #04 //100   ----------------------------------------
 BYTE   W96
//  #04 //101   ----------------------------------------
 BYTE   W96
//  #04 //102   ----------------------------------------
 BYTE   W96
//  #04 //103   ----------------------------------------
 BYTE   W96
//  #04 //104   ----------------------------------------
 BYTE   W96
//  #04 //105   ----------------------------------------
 BYTE   W96
//  #04 //106   ----------------------------------------
 BYTE   W96
//  #04 //107   ----------------------------------------
 BYTE   W96
//  #04 //108   ----------------------------------------
 BYTE   W96
//  #04 //109   ----------------------------------------
 BYTE   W96
//  #04 //110   ----------------------------------------
 BYTE   W96
//  #04 //111   ----------------------------------------
 BYTE   W96
//  #04 //112   ----------------------------------------
 BYTE   W96
//  #04 //113   ----------------------------------------
 BYTE   W96
//  #04 //114   ----------------------------------------
 BYTE   W96
//  #04 //115   ----------------------------------------
 BYTE   W96
//  #04 //116   ----------------------------------------
 BYTE   W96
//  #04 //117   ----------------------------------------
 BYTE   W96
//  #04 //118   ----------------------------------------
 BYTE   W96
//  #04 //119   ----------------------------------------
 BYTE   W96
//  #04 //120   ----------------------------------------
 BYTE   W96
//  #04 //121   ----------------------------------------
 BYTE   W96
//  #04 //122   ----------------------------------------
 BYTE   W96
//  #04 //123   ----------------------------------------
 BYTE   W96
//  #04 //124   ----------------------------------------
 BYTE   W96
//  #04 //125   ----------------------------------------
 BYTE   W96
//  #04 //126   ----------------------------------------
 BYTE   W96
//  #04 //127   ----------------------------------------
 BYTE   W96
//  #04 //128   ----------------------------------------
 BYTE   W96
//  #04 //129   ----------------------------------------
 BYTE   W96
//  #04 //130   ----------------------------------------
 BYTE   W96
//  #04 //131   ----------------------------------------
 BYTE   W96
//  #04 //132   ----------------------------------------
 BYTE   W96
//  #04 //133   ----------------------------------------
 BYTE   W96
//  #04 //134   ----------------------------------------
 BYTE   W96
//  #04 //135   ----------------------------------------
 BYTE   W96
//  #04 //136   ----------------------------------------
 BYTE   W96
//  #04 //137   ----------------------------------------
 BYTE   W96
//  #04 //138   ----------------------------------------
 BYTE   W96
//  #04 //139   ----------------------------------------
 BYTE   W96
//  #04 //140   ----------------------------------------
 BYTE   W96
//  #04 //141   ----------------------------------------
 BYTE   W96
//  #04 //142   ----------------------------------------
 BYTE   W96
//  #04 //143   ----------------------------------------
 BYTE   W96
//  #04 //144   ----------------------------------------
 BYTE   W96
//  #04 //145   ----------------------------------------
 BYTE   W96
//  #04 //146   ----------------------------------------
 BYTE   W96
//  #04 //147   ----------------------------------------
 BYTE   W96
//  #04 //148   ----------------------------------------
 BYTE   W96
//  #04 //149   ----------------------------------------
 BYTE   W96
//  #04 //150   ----------------------------------------
 BYTE   W96
//  #04 //151   ----------------------------------------
 BYTE   W96
//  #04 //152   ----------------------------------------
 BYTE   W96
//  #04 //153   ----------------------------------------
 BYTE   W96
//  #04 //154   ----------------------------------------
 BYTE   W96
//  #04 //155   ----------------------------------------
 BYTE   W96
//  #04 //156   ----------------------------------------
 BYTE   W96
//  #04 //157   ----------------------------------------
 BYTE   W96
//  #04 //158   ----------------------------------------
 BYTE   W96
//  #04 //159   ----------------------------------------
 BYTE   W96
//  #04 //160   ----------------------------------------
 BYTE   W96
//  #04 //161   ----------------------------------------
 BYTE   W96
//  #04 //162   ----------------------------------------
 BYTE   W96
//  #04 //163   ----------------------------------------
 BYTE   W96
//  #04 //164   ----------------------------------------
 BYTE   W96
//  #04 //165   ----------------------------------------
 BYTE   W96
//  #04 //166   ----------------------------------------
 BYTE   W96
//  #04 //167   ----------------------------------------
 BYTE   W96
//  #04 //168   ----------------------------------------
 BYTE   W96
//  #04 //169   ----------------------------------------
 BYTE   W96
//  #04 //170   ----------------------------------------
 BYTE   W96
//  #04 //171   ----------------------------------------
 BYTE   W96
//  #04 //172   ----------------------------------------
 BYTE   W96
//  #04 //173   ----------------------------------------
 BYTE   W96
//  #04 //174   ----------------------------------------
 BYTE   W96
//  #04 //175   ----------------------------------------
 BYTE   W96
//  #04 //176   ----------------------------------------
 BYTE   W96
//  #04 //177   ----------------------------------------
 BYTE   W96
//  #04 //178   ----------------------------------------
 BYTE   W96
//  #04 //179   ----------------------------------------
 BYTE   W96
//  #04 //180   ----------------------------------------
 BYTE   W96
//  #04 //181   ----------------------------------------
 BYTE   W96
//  #04 //182   ----------------------------------------
 BYTE   W96
//  #04 //183   ----------------------------------------
 BYTE   W96
//  #04 //184   ----------------------------------------
 BYTE   W96
//  #04 //185   ----------------------------------------
 BYTE   W96
//  #04 //186   ----------------------------------------
 BYTE   W96
//  #04 //187   ----------------------------------------
 BYTE   W96
//  #04 //188   ----------------------------------------
 BYTE   W96
//  #04 //189   ----------------------------------------
 BYTE   W96
//  #04 //190   ----------------------------------------
 BYTE   W96
//  #04 //191   ----------------------------------------
 BYTE   W96
//  #04 //192   ----------------------------------------
 BYTE   W96
//  #04 //193   ----------------------------------------
 BYTE   W96
//  #04 //194   ----------------------------------------
 BYTE   W96
//  #04 //195   ----------------------------------------
 BYTE   W96
//  #04 //196   ----------------------------------------
 BYTE   W96
//  #04 //197   ----------------------------------------
 BYTE   W96
//  #04 //198   ----------------------------------------
 BYTE   W96
//  #04 //199   ----------------------------------------
 BYTE   W96
//  #04 //200   ----------------------------------------
 BYTE   W96
//  #04 //201   ----------------------------------------
 BYTE   W96
//  #04 //202   ----------------------------------------
 BYTE   W96
//  #04 //203   ----------------------------------------
 BYTE   W96
//  #04 //204   ----------------------------------------
 BYTE   W96
//  #04 //205   ----------------------------------------
 BYTE   W96
//  #04 //206   ----------------------------------------
 BYTE   W96
//  #04 //207   ----------------------------------------
 BYTE   W96
//  #04 //208   ----------------------------------------
 BYTE   W96
//  #04 //209   ----------------------------------------
 BYTE   W96
//  #04 //210   ----------------------------------------
 BYTE   W96
//  #04 //211   ----------------------------------------
 BYTE   W96
//  #04 //212   ----------------------------------------
 BYTE   W96
//  #04 //213   ----------------------------------------
 BYTE   W96
//  #04 //214   ----------------------------------------
 BYTE   W96
//  #04 //215   ----------------------------------------
 BYTE   W96
//  #04 //216   ----------------------------------------
 BYTE   W96
//  #04 //217   ----------------------------------------
 BYTE   W96
//  #04 //218   ----------------------------------------
 BYTE   W96
//  #04 //219   ----------------------------------------
 BYTE   W96
//  #04 //220   ----------------------------------------
 BYTE   W96
//  #04 //221   ----------------------------------------
 BYTE   W96
//  #04 //222   ----------------------------------------
 BYTE   W96
//  #04 //223   ----------------------------------------
 BYTE   W96
//  #04 //224   ----------------------------------------
 BYTE   W96
//  #04 //225   ----------------------------------------
 BYTE   W96
//  #04 //226   ----------------------------------------
 BYTE   W96
//  #04 //227   ----------------------------------------
 BYTE   W96
//  #04 //228   ----------------------------------------
 BYTE   W96
//  #04 //229   ----------------------------------------
 BYTE   W96
//  #04 //230   ----------------------------------------
 BYTE   W96
//  #04 //231   ----------------------------------------
 BYTE   W96
//  #04 //232   ----------------------------------------
 BYTE   W96
//  #04 //233   ----------------------------------------
 BYTE   W96
//  #04 //234   ----------------------------------------
 BYTE   W96
//  #04 //235   ----------------------------------------
 BYTE   W96
//  #04 //236   ----------------------------------------
 BYTE   W96
//  #04 //237   ----------------------------------------
 BYTE   W96
//  #04 //238   ----------------------------------------
 BYTE   W96
//  #04 //239   ----------------------------------------
 BYTE   W96
//  #04 //240   ----------------------------------------
 BYTE   W96
//  #04 //241   ----------------------------------------
 BYTE   W96
//  #04 //242   ----------------------------------------
 BYTE   W96
//  #04 //243   ----------------------------------------
 BYTE   W96
//  #04 //244   ----------------------------------------
 BYTE   W96
//  #04 //245   ----------------------------------------
 BYTE   W96
//  #04 //246   ----------------------------------------
 BYTE   W96
//  #04 //247   ----------------------------------------
 BYTE   W96
//  #04 //248   ----------------------------------------
 BYTE   W96
//  #04 //249   ----------------------------------------
 BYTE   W96
//  #04 //250   ----------------------------------------
 BYTE   W96
//  #04 //251   ----------------------------------------
 BYTE   W96
//  #04 //252   ----------------------------------------
 BYTE   W96
//  #04 //253   ----------------------------------------
 BYTE   W96
//  #04 //254   ----------------------------------------
 BYTE   W96
//  #04 //255   ----------------------------------------
 BYTE   W96
//  #04 //256   ----------------------------------------
 BYTE   W96
//  #04 //257   ----------------------------------------
 BYTE   W96
//  #04 //258   ----------------------------------------
 BYTE   W96
//  #04 //259   ----------------------------------------
 BYTE   W96
//  #04 //260   ----------------------------------------
 BYTE   W96
//  #04 //261   ----------------------------------------
 BYTE   W96
//  #04 //262   ----------------------------------------
 BYTE   W96
//  #04 //263   ----------------------------------------
 BYTE   W96
//  #04 //264   ----------------------------------------
 BYTE   W96
//  #04 //265   ----------------------------------------
 BYTE   W96
//  #04 //266   ----------------------------------------
 BYTE   W96
//  #04 //267   ----------------------------------------
 BYTE   W96
//  #04 //268   ----------------------------------------
 BYTE   W96
//  #04 //269   ----------------------------------------
 BYTE   W96
//  #04 //270   ----------------------------------------
 BYTE   W96
//  #04 //271   ----------------------------------------
 BYTE   W96
//  #04 //272   ----------------------------------------
 BYTE   W96
//  #04 //273   ----------------------------------------
 BYTE   W96
//  #04 //274   ----------------------------------------
 BYTE   W96
//  #04 //275   ----------------------------------------
 BYTE   W96
//  #04 //276   ----------------------------------------
 BYTE   W96
//  #04 //277   ----------------------------------------
 BYTE   W96
//  #04 //278   ----------------------------------------
 BYTE   W96
//  #04 //279   ----------------------------------------
 BYTE   W96
//  #04 //280   ----------------------------------------
 BYTE   W96
//  #04 //281   ----------------------------------------
 BYTE   W96
//  #04 //282   ----------------------------------------
 BYTE   W96
//  #04 //283   ----------------------------------------
 BYTE   W96
//  #04 //284   ----------------------------------------
 BYTE   W96
//  #04 //285   ----------------------------------------
 BYTE   W96
//  #04 //286   ----------------------------------------
 BYTE   W96
//  #04 //287   ----------------------------------------
 BYTE   W96
//  #04 //288   ----------------------------------------
 BYTE   W96
//  #04 //289   ----------------------------------------
 BYTE   W96
//  #04 //290   ----------------------------------------
 BYTE   W96
//  #04 //291   ----------------------------------------
 BYTE   W96
//  #04 //292   ----------------------------------------
 BYTE   W96
//  #04 //293   ----------------------------------------
 BYTE   W96
//  #04 //294   ----------------------------------------
 BYTE   W96
//  #04 //295   ----------------------------------------
 BYTE   W96
//  #04 //296   ----------------------------------------
 BYTE   W96
//  #04 //297   ----------------------------------------
 BYTE   W96
//  #04 //298   ----------------------------------------
 BYTE   W96
//  #04 //299   ----------------------------------------
 BYTE   W96
//  #04 //300   ----------------------------------------
 BYTE   W96
//  #04 //301   ----------------------------------------
 BYTE   W96
//  #04 //302   ----------------------------------------
 BYTE   W96
//  #04 //303   ----------------------------------------
 BYTE   W96
//  #04 //304   ----------------------------------------
 BYTE   W96
//  #04 //305   ----------------------------------------
 BYTE   W96
//  #04 //306   ----------------------------------------
 BYTE   W96
//  #04 //307   ----------------------------------------
 BYTE   W96
//  #04 //308   ----------------------------------------
 BYTE   W96
//  #04 //309   ----------------------------------------
 BYTE   W96
//  #04 //310   ----------------------------------------
 BYTE   W96
//  #04 //311   ----------------------------------------
 BYTE   W96
//  #04 //312   ----------------------------------------
 BYTE   W96
//  #04 //313   ----------------------------------------
 BYTE   W96
//  #04 //314   ----------------------------------------
 BYTE   W96
//  #04 //315   ----------------------------------------
 BYTE   W96
//  #04 //316   ----------------------------------------
 BYTE   W96
//  #04 //317   ----------------------------------------
 BYTE   W96
//  #04 //318   ----------------------------------------
 BYTE   W96
//  #04 //319   ----------------------------------------
 BYTE   W96
//  #04 //320   ----------------------------------------
 BYTE   W96
//  #04 //321   ----------------------------------------
 BYTE   W96
//  #04 //322   ----------------------------------------
 BYTE   W96
//  #04 //323   ----------------------------------------
 BYTE   W96
//  #04 //324   ----------------------------------------
 BYTE   W96
//  #04 //325   ----------------------------------------
 BYTE   W96
//  #04 //326   ----------------------------------------
 BYTE   W96
//  #04 //327   ----------------------------------------
 BYTE   W96
//  #04 //328   ----------------------------------------
 BYTE   W96
//  #04 //329   ----------------------------------------
 BYTE   W96
//  #04 //330   ----------------------------------------
 BYTE   GoTo
  POIN2 Label_01006035
//  #04 //331   ----------------------------------------
 BYTE   W96
//  #04 //332   ----------------------------------------
 BYTE   W96
//  #04 //333   ----------------------------------------
 BYTE   W96
//  #04 //334   ----------------------------------------
 BYTE   W96
//  #04 //335   ----------------------------------------
 BYTE   W96
//  #04 //336   ----------------------------------------
 BYTE   W96
//  #04 //337   ----------------------------------------
 BYTE   W96
//  #04 //338   ----------------------------------------
 BYTE   W96
//  #04 //339   ----------------------------------------
 BYTE   W96
//  #04 //340   ----------------------------------------
 BYTE   W96
//  #04 //341   ----------------------------------------
 BYTE   W96
//  #04 //342   ----------------------------------------
 BYTE   W96
//  #04 //343   ----------------------------------------
 BYTE   W96
//  #04 //344   ----------------------------------------
 BYTE   W96
//  #04 //345   ----------------------------------------
 BYTE   W96
//  #04 //346   ----------------------------------------
 BYTE   W96
//  #04 //347   ----------------------------------------
 BYTE   W96
//  #04 //348   ----------------------------------------
 BYTE   W96
 BYTE   FINE

//**************** Track 5 (Midi-Chn.4) ****************//

BloodstainedLineage_005:
//  #05 //000   ----------------------------------------
 BYTE   KEYSH   BloodstainedLineage_key+0
 BYTE   VOICE   124
 BYTE   VOL   21*BloodstainedLineage_mvl/mxv
 BYTE   N05  Ds2  v092
 BYTE   W06
 BYTE   N05
 BYTE   W06
 BYTE   N05
 BYTE   W06
 BYTE   N05
 BYTE   W06
 BYTE   N05
 BYTE   W06
 BYTE   N05
 BYTE   W06
 BYTE   N05
 BYTE   W06
 BYTE   N05
 BYTE   W06
 BYTE   N05
 BYTE   W06
 BYTE   N05
 BYTE   W06
 BYTE   N05
 BYTE   W06
 BYTE   N05
 BYTE   W06
 BYTE   N05
 BYTE   W06
 BYTE   N05
 BYTE   W06
 BYTE   N05
 BYTE   W06
 BYTE   N05
 BYTE   W06
//  #05 //001   ----------------------------------------
Label_010061BC:
 BYTE   N05  Ds2  v092
 BYTE   W06
 BYTE   N05
 BYTE   W06
 BYTE   N05
 BYTE   W06
 BYTE   N05
 BYTE   W06
 BYTE   N05
 BYTE   W06
 BYTE   N05
 BYTE   W06
 BYTE   N05
 BYTE   W06
 BYTE   N05
 BYTE   W06
 BYTE   N05
 BYTE   W06
 BYTE   N05
 BYTE   W06
 BYTE   N05
 BYTE   W06
 BYTE   N05
 BYTE   W06
 BYTE   N05
 BYTE   W06
 BYTE   N05
 BYTE   W06
 BYTE   N05
 BYTE   W06
 BYTE   N05
 BYTE   W06
 BYTE   PEND 
//  #05 //002   ----------------------------------------
 BYTE   PATT
  POIN2 Label_010061BC
//  #05 //003   ----------------------------------------
 BYTE   PATT
  POIN2 Label_010061BC
//  #05 //004   ----------------------------------------
 BYTE   PATT
  POIN2 Label_010061BC
//  #05 //005   ----------------------------------------
 BYTE   PATT
  POIN2 Label_010061BC
//  #05 //006   ----------------------------------------
 BYTE   PATT
  POIN2 Label_010061BC
//  #05 //007   ----------------------------------------
 BYTE   PATT
  POIN2 Label_010061BC
//  #05 //008   ----------------------------------------
 BYTE   W96
//  #05 //009   ----------------------------------------
 BYTE   W96
//  #05 //010   ----------------------------------------
 BYTE   VOL   35*BloodstainedLineage_mvl/mxv
 BYTE   N11  Cn1  v092
 BYTE   N11  Cs2
 BYTE   N11  Gn2
 BYTE   W96
//  #05 //011   ----------------------------------------
 BYTE   W72
 BYTE   As1
 BYTE   W24
//  #05 //012   ----------------------------------------
Label_0100620C:
 BYTE   N11  Cn1  v092
 BYTE   N11  Gn2
 BYTE   N11  An2
 BYTE   W48
 BYTE   Dn1
 BYTE   W12
 BYTE   N11
 BYTE   W12
 BYTE   Cn1
 BYTE   W12
 BYTE   N11
 BYTE   W12
 BYTE   PEND 
//  #05 //013   ----------------------------------------
 BYTE   Dn1
 BYTE   W12
 BYTE   N11
 BYTE   W12
 BYTE   Cn1
 BYTE   W12
 BYTE   N11
 BYTE   W12
 BYTE   Dn1
 BYTE   W12
 BYTE   N11
 BYTE   W12
 BYTE   Cn1
 BYTE   N11  Dn1
 BYTE   W12
 BYTE   Cn1
 BYTE   N11  Dn1
 BYTE   W12
//  #05 //014   ----------------------------------------
Label_01006231:
 BYTE   N11  Cn1  v092
 BYTE   N11  Cs2
 BYTE   N11  Gn2
 BYTE   W96
 BYTE   PEND 
//  #05 //015   ----------------------------------------
 BYTE   W72
 BYTE   As1
 BYTE   W24
//  #05 //016   ----------------------------------------
 BYTE   Cn1
 BYTE   N11  Gn2
 BYTE   N11  An2
 BYTE   W48
 BYTE   Dn1
 BYTE   W12
 BYTE   N11
 BYTE   W12
 BYTE   N11
 BYTE   W12
 BYTE   N11
 BYTE   W12
//  #05 //017   ----------------------------------------
 BYTE   Cn1
 BYTE   N11  Dn1
 BYTE   W12
 BYTE   Cn1
 BYTE   N11  Dn1
 BYTE   W12
 BYTE   Cn1
 BYTE   N11  Dn1
 BYTE   W12
 BYTE   Cn1
 BYTE   N11  Dn1
 BYTE   W12
 BYTE   Cn1
 BYTE   N11  Dn1
 BYTE   W12
 BYTE   Cn1
 BYTE   N11  Dn1
 BYTE   W12
 BYTE   Cn1
 BYTE   N11  Dn1
 BYTE   W12
 BYTE   Cn1
 BYTE   N11  Dn1
 BYTE   W12
//  #05 //018   ----------------------------------------
 BYTE   PATT
  POIN2 Label_01006231
//  #05 //019   ----------------------------------------
 BYTE   W72
 BYTE   N11  As1  v092
 BYTE   W24
//  #05 //020   ----------------------------------------
 BYTE   PATT
  POIN2 Label_0100620C
//  #05 //021   ----------------------------------------
 BYTE   N11  Dn1  v092
 BYTE   W12
 BYTE   N11
 BYTE   W12
 BYTE   Cn1
 BYTE   W12
 BYTE   N11
 BYTE   W12
 BYTE   Dn1
 BYTE   N11  Bn1
 BYTE   W12
 BYTE   Dn1
 BYTE   N11  An1
 BYTE   W12
 BYTE   Cn1
 BYTE   N11  Dn1
 BYTE   N11  Gn1
 BYTE   W12
 BYTE   Cn1
 BYTE   N11  Dn1
 BYTE   N11  Fn1
 BYTE   W12
//  #05 //022   ----------------------------------------
Label_01006298:
 BYTE   N11  Cn1  v092
 BYTE   N11  As1
 BYTE   W96
//  #05 //023   ----------------------------------------
 BYTE   N11
 BYTE   W96
//  #05 //024   ----------------------------------------
Label_010062A0:
 BYTE   N11  As1  v092
 BYTE   W48
 BYTE   N11
 BYTE   W12
 BYTE   Gs1
 BYTE   W12
 BYTE   Fs1
 BYTE   W12
 BYTE   Gs1
 BYTE   W12
 BYTE   PEND 
//  #05 //025   ----------------------------------------
 BYTE   Cn1
 BYTE   N11  Fn1
 BYTE   N11  As1
 BYTE   W36
 BYTE   Cn1
 BYTE   N11  Fn1
 BYTE   N11  As1
 BYTE   W12
 BYTE   Cn1
 BYTE   N11  Fn1
 BYTE   N11  As1
 BYTE   W24
 BYTE   Cn1
 BYTE   N11  Fn1
 BYTE   N11  As1
 BYTE   W24
//  #05 //026   ----------------------------------------
 BYTE   Cn1
 BYTE   N11  Fn1
 BYTE   N11  As1
 BYTE   W96
//  #05 //027   ----------------------------------------
 BYTE   N11
 BYTE   W96
//  #05 //028   ----------------------------------------
 BYTE   PATT
  POIN2 Label_010062A0
//  #05 //029   ----------------------------------------
 BYTE   N11  As1  v092
 BYTE   W72
 BYTE   Cn1
 BYTE   N11  Dn1
 BYTE   W12
 BYTE   Cn1
 BYTE   N11  Dn1
 BYTE   W12
//  #05 //030   ----------------------------------------
Label_010062DE:
 BYTE   N11  Cn1  v092
 BYTE   N11  Cs2
 BYTE   N11  Gn2
 BYTE   W12
 BYTE   Cn1
 BYTE   W12
 BYTE   Dn1
 BYTE   N11  As1  v076
 BYTE   W12
 BYTE   Cn1  v092
 BYTE   W12
 BYTE   N11
 BYTE   N11  As1
 BYTE   W12
 BYTE   Cn1
 BYTE   W12
 BYTE   Dn1
 BYTE   N11  As1  v076
 BYTE   W12
 BYTE   Cn1  v092
 BYTE   W12
 BYTE   PEND 
//  #05 //031   ----------------------------------------
Label_010062FF:
 BYTE   N11  Cn1  v092
 BYTE   N11  As1
 BYTE   W12
 BYTE   Cn1
 BYTE   W12
 BYTE   Dn1
 BYTE   N11  As1  v076
 BYTE   W12
 BYTE   Cn1  v092
 BYTE   W12
 BYTE   N11
 BYTE   N11  As1
 BYTE   W12
 BYTE   Cn1
 BYTE   N11  Bn1
 BYTE   W12
 BYTE   Dn1
 BYTE   N11  An1
 BYTE   N11  As1  v076
 BYTE   W12
 BYTE   Cn1  v092
 BYTE   W12
 BYTE   PEND 
//  #05 //032   ----------------------------------------
Label_01006322:
 BYTE   N11  Cn1  v092
 BYTE   N11  Fn1
 BYTE   N11  As1
 BYTE   W12
 BYTE   Cn1
 BYTE   W12
 BYTE   Dn1
 BYTE   N11  As1  v076
 BYTE   W12
 BYTE   Cn1  v092
 BYTE   W12
 BYTE   N11
 BYTE   N11  As1
 BYTE   W12
 BYTE   Cn1
 BYTE   W12
 BYTE   Dn1
 BYTE   N11  As1  v076
 BYTE   W12
 BYTE   Cn1  v092
 BYTE   W12
 BYTE   PEND 
//  #05 //033   ----------------------------------------
 BYTE   PATT
  POIN2 Label_010062FF
//  #05 //034   ----------------------------------------
Label_01006348:
 BYTE   N11  Cn1  v092
 BYTE   N11  Fn1
 BYTE   N11  Cs2
 BYTE   N11  Gn2
 BYTE   W12
 BYTE   Cn1
 BYTE   W12
 BYTE   Dn1
 BYTE   N11  As1  v076
 BYTE   W12
 BYTE   Cn1  v092
 BYTE   W12
 BYTE   N11
 BYTE   N11  As1
 BYTE   W12
 BYTE   Cn1
 BYTE   W12
 BYTE   Dn1
 BYTE   N11  As1  v076
 BYTE   W12
 BYTE   Cn1  v092
 BYTE   W12
 BYTE   PEND 
//  #05 //035   ----------------------------------------
 BYTE   PATT
  POIN2 Label_010062FF
//  #05 //036   ----------------------------------------
 BYTE   PATT
  POIN2 Label_01006322
//  #05 //037   ----------------------------------------
Label_01006375:
 BYTE   N11  Cn1  v092
 BYTE   N11  As1
 BYTE   W12
 BYTE   Cn1
 BYTE   W12
 BYTE   Dn1
 BYTE   N11  As1  v076
 BYTE   W12
 BYTE   Cn1  v092
 BYTE   W12
 BYTE   N11
 BYTE   N11  As1
 BYTE   W12
 BYTE   Cn1
 BYTE   N11  Bn1
 BYTE   W12
 BYTE   Cn1
 BYTE   N11  An1
 BYTE   N11  As1  v076
 BYTE   W12
 BYTE   Cn1  v092
 BYTE   W12
 BYTE   PEND 
//  #05 //038   ----------------------------------------
 BYTE   PATT
  POIN2 Label_010062DE
//  #05 //039   ----------------------------------------
 BYTE   PATT
  POIN2 Label_010062FF
//  #05 //040   ----------------------------------------
 BYTE   PATT
  POIN2 Label_01006322
//  #05 //041   ----------------------------------------
 BYTE   PATT
  POIN2 Label_010062FF
//  #05 //042   ----------------------------------------
 BYTE   PATT
  POIN2 Label_01006348
//  #05 //043   ----------------------------------------
 BYTE   PATT
  POIN2 Label_010062FF
//  #05 //044   ----------------------------------------
 BYTE   PATT
  POIN2 Label_01006322
//  #05 //045   ----------------------------------------
 BYTE   PATT
  POIN2 Label_01006375
//  #05 //046   ----------------------------------------
Label_010063C0:
 BYTE   N11  Cn1  v092
 BYTE   N11  Dn1
 BYTE   N11  An2
 BYTE   W24
 BYTE   Cn1
 BYTE   W12
 BYTE   N11
 BYTE   N11  Dn1
 BYTE   N11  Cs2
 BYTE   W12
 BYTE   Cn1
 BYTE   W12
 BYTE   N11
 BYTE   N11  Dn1
 BYTE   N11  Gn2
 BYTE   W24
 BYTE   Cn1
 BYTE   W12
 BYTE   PEND 
//  #05 //047   ----------------------------------------
 BYTE   PATT
  POIN2 Label_010063C0
//  #05 //048   ----------------------------------------
 BYTE   N11  Cn1  v092
 BYTE   N11  Gn2
 BYTE   W96
//  #05 //049   ----------------------------------------
 BYTE   W96
//  #05 //050   ----------------------------------------
Label_010063E7:
 BYTE   N11  Cn1  v092
 BYTE   N11  Dn1
 BYTE   N11  An1
 BYTE   N11  Cs2
 BYTE   W12
 BYTE   Cn1
 BYTE   N05  Gn1
 BYTE   W12
 BYTE   N11  Cn1
 BYTE   N05  Fn1
 BYTE   W12
 BYTE   N11  Cn1
 BYTE   N11  Dn1
 BYTE   N05  Fn1
 BYTE   N11  Gn2
 BYTE   W12
 BYTE   Cn1
 BYTE   N05  An1
 BYTE   W12
 BYTE   N11  Cn1
 BYTE   N05  Gn1
 BYTE   W12
 BYTE   N11  Cn1
 BYTE   N11  Dn1
 BYTE   N05  Fn1
 BYTE   N11  An2
 BYTE   W12
 BYTE   Cn1
 BYTE   N05  Fn1
 BYTE   W12
 BYTE   PEND 
//  #05 //051   ----------------------------------------
Label_0100641A:
 BYTE   N11  Cn1  v092
 BYTE   N11  Dn1
 BYTE   N05  An1
 BYTE   N11  Cs2
 BYTE   W12
 BYTE   N05  Gn1
 BYTE   W12
 BYTE   Fn1
 BYTE   W12
 BYTE   N11  Cn1
 BYTE   N11  Dn1
 BYTE   N05  Fn1
 BYTE   N11  Gn2
 BYTE   W12
 BYTE   N05  Fn1
 BYTE   W12
 BYTE   N05
 BYTE   W12
 BYTE   N11  Cn1
 BYTE   N11  Dn1
 BYTE   N11  An2
 BYTE   W12
 BYTE   Cn1
 BYTE   W12
 BYTE   PEND 
//  #05 //052   ----------------------------------------
Label_01006441:
 BYTE   N11  Cn1  v092
 BYTE   N11  Cs2
 BYTE   N11  Gn2
 BYTE   W24
 BYTE   Dn1
 BYTE   N11  Ds2  v076
 BYTE   W24
 BYTE   Cn1  v092
 BYTE   N11  Ds2
 BYTE   N11  Bn2
 BYTE   W24
 BYTE   Dn1
 BYTE   N11  Ds2  v076
 BYTE   W24
 BYTE   PEND 
//  #05 //053   ----------------------------------------
Label_0100645B:
 BYTE   N11  Cn1  v092
 BYTE   N11  Ds2
 BYTE   N11  Bn2
 BYTE   W24
 BYTE   Dn1
 BYTE   N11  Ds2  v076
 BYTE   W24
 BYTE   Cn1  v092
 BYTE   N11  Ds2
 BYTE   N11  Bn2
 BYTE   W24
 BYTE   Dn1
 BYTE   N11  Ds2  v076
 BYTE   W12
 BYTE   Cn1  v092
 BYTE   W12
 BYTE   PEND 
//  #05 //054   ----------------------------------------
Label_01006478:
 BYTE   N11  Cn1  v092
 BYTE   N11  Ds2
 BYTE   N11  Bn2
 BYTE   W24
 BYTE   Dn1
 BYTE   N11  Ds2  v076
 BYTE   W24
 BYTE   Cn1  v092
 BYTE   N11  Ds2
 BYTE   N11  Bn2
 BYTE   W24
 BYTE   Dn1
 BYTE   N11  Ds2  v076
 BYTE   W24
 BYTE   PEND 
//  #05 //055   ----------------------------------------
 BYTE   PATT
  POIN2 Label_0100645B
//  #05 //056   ----------------------------------------
Label_01006497:
 BYTE   N11  Cn1  v092
 BYTE   N11  Gn2
 BYTE   N11  An2
 BYTE   W24
 BYTE   Dn1
 BYTE   N11  Ds2  v076
 BYTE   W24
 BYTE   Cn1  v092
 BYTE   N11  Ds2
 BYTE   N11  Bn2
 BYTE   W24
 BYTE   Dn1
 BYTE   N11  Ds2  v076
 BYTE   W24
 BYTE   PEND 
//  #05 //057   ----------------------------------------
 BYTE   PATT
  POIN2 Label_0100645B
//  #05 //058   ----------------------------------------
 BYTE   PATT
  POIN2 Label_01006478
//  #05 //059   ----------------------------------------
Label_010064BB:
 BYTE   N11  Cn1  v092
 BYTE   N11  Dn1
 BYTE   N11  Cs2
 BYTE   W12
 BYTE   Cn1
 BYTE   W12
 BYTE   N11
 BYTE   W12
 BYTE   N11
 BYTE   N11  Dn1
 BYTE   N11  Gn2
 BYTE   W12
 BYTE   Cn1
 BYTE   W12
 BYTE   N11
 BYTE   W12
 BYTE   N11
 BYTE   N11  Dn1
 BYTE   N11  An2
 BYTE   W12
 BYTE   Cn1
 BYTE   N11  Dn1
 BYTE   W12
 BYTE   PEND 
//  #05 //060   ----------------------------------------
 BYTE   PATT
  POIN2 Label_01006441
//  #05 //061   ----------------------------------------
 BYTE   PATT
  POIN2 Label_0100645B
//  #05 //062   ----------------------------------------
 BYTE   PATT
  POIN2 Label_01006478
//  #05 //063   ----------------------------------------
 BYTE   PATT
  POIN2 Label_0100645B
//  #05 //064   ----------------------------------------
 BYTE   PATT
  POIN2 Label_01006497
//  #05 //065   ----------------------------------------
 BYTE   PATT
  POIN2 Label_0100645B
//  #05 //066   ----------------------------------------
 BYTE   PATT
  POIN2 Label_01006478
//  #05 //067   ----------------------------------------
 BYTE   PATT
  POIN2 Label_010064BB
//  #05 //068   ----------------------------------------
Label_01006504:
 BYTE   N11  Cn1  v092
 BYTE   N11  Dn1
 BYTE   N11  An1
 BYTE   N11  Cs2
 BYTE   W24
 BYTE   Cn1
 BYTE   N11  An1
 BYTE   W12
 BYTE   Cn1
 BYTE   N11  Bn1
 BYTE   W24
 BYTE   Cn1
 BYTE   N11  An1
 BYTE   W12
 BYTE   Cn1
 BYTE   N11  Gn1
 BYTE   W12
 BYTE   Cn1
 BYTE   N11  Fn1
 BYTE   W12
 BYTE   PEND 
//  #05 //069   ----------------------------------------
Label_01006523:
 BYTE   N11  Cn1  v092
 BYTE   N11  Dn1
 BYTE   N11  An1
 BYTE   N11  An2
 BYTE   W24
 BYTE   Cn1
 BYTE   N11  An1
 BYTE   W12
 BYTE   Cn1
 BYTE   N11  Bn1
 BYTE   W24
 BYTE   Cn1
 BYTE   N11  An1
 BYTE   W12
 BYTE   Cn1
 BYTE   N11  Gn1
 BYTE   W12
 BYTE   Cn1
 BYTE   N11  Fn1
 BYTE   W12
 BYTE   PEND 
//  #05 //070   ----------------------------------------
 BYTE   PATT
  POIN2 Label_01006504
//  #05 //071   ----------------------------------------
 BYTE   PATT
  POIN2 Label_01006523
//  #05 //072   ----------------------------------------
 BYTE   PATT
  POIN2 Label_01006504
//  #05 //073   ----------------------------------------
 BYTE   PATT
  POIN2 Label_01006523
//  #05 //074   ----------------------------------------
 BYTE   PATT
  POIN2 Label_01006504
//  #05 //075   ----------------------------------------
Label_0100655B:
 BYTE   N11  Cn1  v092
 BYTE   N11  Dn1
 BYTE   N11  An1
 BYTE   N11  Cs2
 BYTE   W24
 BYTE   Cn1
 BYTE   N11  An1
 BYTE   W12
 BYTE   Cn1
 BYTE   N11  Dn1
 BYTE   N11  An2
 BYTE   W12
 BYTE   Cn2
 BYTE   W12
 BYTE   Cn1
 BYTE   N11  Bn1
 BYTE   W12
 BYTE   Cn1
 BYTE   N11  Dn1
 BYTE   N11  An1
 BYTE   W12
 BYTE   Cn1
 BYTE   N11  Dn1
 BYTE   W12
 BYTE   PEND 
//  #05 //076   ----------------------------------------
 BYTE   PATT
  POIN2 Label_01006504
//  #05 //077   ----------------------------------------
 BYTE   PATT
  POIN2 Label_01006523
//  #05 //078   ----------------------------------------
 BYTE   PATT
  POIN2 Label_01006504
//  #05 //079   ----------------------------------------
 BYTE   PATT
  POIN2 Label_01006523
//  #05 //080   ----------------------------------------
 BYTE   PATT
  POIN2 Label_01006504
//  #05 //081   ----------------------------------------
 BYTE   PATT
  POIN2 Label_01006523
//  #05 //082   ----------------------------------------
 BYTE   PATT
  POIN2 Label_01006504
//  #05 //083   ----------------------------------------
Label_010065A3:
 BYTE   N11  Cn1  v092
 BYTE   N11  Dn1
 BYTE   N11  Cs2
 BYTE   W12
 BYTE   Cn1
 BYTE   W12
 BYTE   N11
 BYTE   W12
 BYTE   N11
 BYTE   N11  Dn1
 BYTE   N11  An2
 BYTE   W12
 BYTE   Cn1
 BYTE   W12
 BYTE   N11
 BYTE   W12
 BYTE   N11
 BYTE   N11  Dn1
 BYTE   W12
 BYTE   Cn1
 BYTE   N11  Dn1
 BYTE   W12
 BYTE   PEND 
//  #05 //084   ----------------------------------------
 BYTE   PATT
  POIN2 Label_01006441
//  #05 //085   ----------------------------------------
 BYTE   PATT
  POIN2 Label_0100645B
//  #05 //086   ----------------------------------------
 BYTE   PATT
  POIN2 Label_01006478
//  #05 //087   ----------------------------------------
 BYTE   PATT
  POIN2 Label_0100645B
//  #05 //088   ----------------------------------------
 BYTE   PATT
  POIN2 Label_01006497
//  #05 //089   ----------------------------------------
 BYTE   PATT
  POIN2 Label_0100645B
//  #05 //090   ----------------------------------------
 BYTE   PATT
  POIN2 Label_01006478
//  #05 //091   ----------------------------------------
 BYTE   PATT
  POIN2 Label_010064BB
//  #05 //092   ----------------------------------------
 BYTE   PATT
  POIN2 Label_01006441
//  #05 //093   ----------------------------------------
 BYTE   PATT
  POIN2 Label_0100645B
//  #05 //094   ----------------------------------------
 BYTE   PATT
  POIN2 Label_01006478
//  #05 //095   ----------------------------------------
 BYTE   PATT
  POIN2 Label_0100645B
//  #05 //096   ----------------------------------------
 BYTE   PATT
  POIN2 Label_01006497
//  #05 //097   ----------------------------------------
 BYTE   PATT
  POIN2 Label_0100645B
//  #05 //098   ----------------------------------------
 BYTE   PATT
  POIN2 Label_01006478
//  #05 //099   ----------------------------------------
 BYTE   PATT
  POIN2 Label_010064BB
//  #05 //100   ----------------------------------------
 BYTE   PATT
  POIN2 Label_01006504
//  #05 //101   ----------------------------------------
 BYTE   PATT
  POIN2 Label_01006523
//  #05 //102   ----------------------------------------
 BYTE   PATT
  POIN2 Label_01006504
//  #05 //103   ----------------------------------------
 BYTE   PATT
  POIN2 Label_01006523
//  #05 //104   ----------------------------------------
 BYTE   PATT
  POIN2 Label_01006504
//  #05 //105   ----------------------------------------
 BYTE   PATT
  POIN2 Label_01006523
//  #05 //106   ----------------------------------------
 BYTE   PATT
  POIN2 Label_01006504
//  #05 //107   ----------------------------------------
 BYTE   PATT
  POIN2 Label_0100655B
//  #05 //108   ----------------------------------------
 BYTE   PATT
  POIN2 Label_01006504
//  #05 //109   ----------------------------------------
 BYTE   PATT
  POIN2 Label_01006523
//  #05 //110   ----------------------------------------
 BYTE   PATT
  POIN2 Label_01006504
//  #05 //111   ----------------------------------------
 BYTE   PATT
  POIN2 Label_01006523
//  #05 //112   ----------------------------------------
 BYTE   PATT
  POIN2 Label_01006504
//  #05 //113   ----------------------------------------
 BYTE   PATT
  POIN2 Label_01006523
//  #05 //114   ----------------------------------------
 BYTE   PATT
  POIN2 Label_01006504
//  #05 //115   ----------------------------------------
 BYTE   PATT
  POIN2 Label_010065A3
//  #05 //116   ----------------------------------------
 BYTE   N11  Cn1  v092
 BYTE   N11  Fs1
 BYTE   W96
//  #05 //117   ----------------------------------------
 BYTE   Cn1
 BYTE   W96
//  #05 //118   ----------------------------------------
 BYTE   N11
 BYTE   W96
//  #05 //119   ----------------------------------------
Label_0100666C:
 BYTE   N11  Cn1  v092
 BYTE   W72
 BYTE   N05  Ds2
 BYTE   W12
 BYTE   N05
 BYTE   W12
 BYTE   PEND 
//  #05 //120   ----------------------------------------
 BYTE   N11  Cn1
 BYTE   N11  Ds2
 BYTE   W96
//  #05 //121   ----------------------------------------
 BYTE   Cn1
 BYTE   W96
//  #05 //122   ----------------------------------------
 BYTE   N11
 BYTE   W96
//  #05 //123   ----------------------------------------
Label_0100667F:
 BYTE   N11  Cn1  v092
 BYTE   W24
 BYTE   N11
 BYTE   W24
 BYTE   Dn1
 BYTE   N11  As1
 BYTE   W12
 BYTE   Cn1
 BYTE   W12
 BYTE   N11
 BYTE   W12
 BYTE   N11
 BYTE   W12
 BYTE   PEND 
//  #05 //124   ----------------------------------------
Label_01006690:
 BYTE   N11  Dn1  v092
 BYTE   N11  As1
 BYTE   N11  Gn2
 BYTE   N11  An2
 BYTE   W12
 BYTE   Cn1
 BYTE   W12
 BYTE   N11
 BYTE   W12
 BYTE   N11
 BYTE   W12
 BYTE   Dn1
 BYTE   N11  As1
 BYTE   W12
 BYTE   Cn1
 BYTE   W12
 BYTE   N11
 BYTE   W12
 BYTE   N11
 BYTE   W12
 BYTE   PEND 
//  #05 //125   ----------------------------------------
Label_010066AB:
 BYTE   N11  Dn1  v092
 BYTE   N11  As1
 BYTE   W12
 BYTE   Cn1
 BYTE   W12
 BYTE   N11
 BYTE   W12
 BYTE   N11
 BYTE   W12
 BYTE   Dn1
 BYTE   N11  As1
 BYTE   W12
 BYTE   Cn1
 BYTE   W12
 BYTE   N11
 BYTE   W12
 BYTE   N11
 BYTE   W12
 BYTE   PEND 
//  #05 //126   ----------------------------------------
 BYTE   PATT
  POIN2 Label_010066AB
//  #05 //127   ----------------------------------------
Label_010066C7:
 BYTE   N11  Dn1  v092
 BYTE   N11  As1
 BYTE   W12
 BYTE   Cn1
 BYTE   W12
 BYTE   N11
 BYTE   W12
 BYTE   Dn1
 BYTE   N11  As1
 BYTE   W12
 BYTE   Cn1
 BYTE   W12
 BYTE   Dn1
 BYTE   N11  As1
 BYTE   W12
 BYTE   Cn1
 BYTE   W12
 BYTE   N11
 BYTE   W12
 BYTE   PEND 
//  #05 //128   ----------------------------------------
 BYTE   PATT
  POIN2 Label_010066AB
//  #05 //129   ----------------------------------------
 BYTE   PATT
  POIN2 Label_010066AB
//  #05 //130   ----------------------------------------
 BYTE   PATT
  POIN2 Label_010066AB
//  #05 //131   ----------------------------------------
 BYTE   PATT
  POIN2 Label_010066C7
//  #05 //132   ----------------------------------------
 BYTE   PATT
  POIN2 Label_010063C0
//  #05 //133   ----------------------------------------
 BYTE   PATT
  POIN2 Label_010063C0
//  #05 //134   ----------------------------------------
 BYTE   N11  Cn1  v092
 BYTE   N11  Gn2
 BYTE   W96
//  #05 //135   ----------------------------------------
 BYTE   W96
//  #05 //136   ----------------------------------------
 BYTE   PATT
  POIN2 Label_010063C0
//  #05 //137   ----------------------------------------
 BYTE   PATT
  POIN2 Label_010063C0
//  #05 //138   ----------------------------------------
Label_0100670F:
 BYTE   N11  Dn1  v092
 BYTE   N11  Gn2
 BYTE   W12
 BYTE   Dn1
 BYTE   W12
 BYTE   Cn1
 BYTE   W12
 BYTE   Dn1
 BYTE   W12
 BYTE   N11
 BYTE   W12
 BYTE   N11
 BYTE   W12
 BYTE   Cn1
 BYTE   W12
 BYTE   Dn1
 BYTE   W12
 BYTE   PEND 
//  #05 //139   ----------------------------------------
Label_01006724:
 BYTE   N11  Cn1  v092
 BYTE   N11  Dn1
 BYTE   N11  Gn2
 BYTE   W24
 BYTE   Cn1
 BYTE   W12
 BYTE   N11
 BYTE   N11  Dn1
 BYTE   N11  As1
 BYTE   W12
 BYTE   Cn1
 BYTE   W12
 BYTE   N11
 BYTE   N11  Dn1
 BYTE   N11  As1
 BYTE   W24
 BYTE   Cn1
 BYTE   N11  Dn1
 BYTE   W12
 BYTE   PEND 
//  #05 //140   ----------------------------------------
Label_01006741:
 BYTE   N11  Cn1  v092
 BYTE   N11  Dn1
 BYTE   N11  As1
 BYTE   W96
 BYTE   PEND 
//  #05 //141   ----------------------------------------
 BYTE   W96
//  #05 //142   ----------------------------------------
 BYTE   W96
//  #05 //143   ----------------------------------------
 BYTE   W96
//  #05 //144   ----------------------------------------
 BYTE   W96
//  #05 //145   ----------------------------------------
 BYTE   W96
//  #05 //146   ----------------------------------------
 BYTE   Cn1
 BYTE   N11  As1
 BYTE   W96
//  #05 //147   ----------------------------------------
 BYTE   W96
//  #05 //148   ----------------------------------------
 BYTE   W96
//  #05 //149   ----------------------------------------
 BYTE   W96
//  #05 //150   ----------------------------------------
 BYTE   W96
//  #05 //151   ----------------------------------------
 BYTE   W96
//  #05 //152   ----------------------------------------
Label_01006758:
 BYTE   N11  Cn1  v092
 BYTE   N11  As1
 BYTE   W48
 BYTE   As1  v076
 BYTE   W48
 BYTE   PEND 
//  #05 //153   ----------------------------------------
Label_01006762:
 BYTE   N11  As1  v092
 BYTE   W48
 BYTE   As1  v076
 BYTE   W48
 BYTE   PEND 
//  #05 //154   ----------------------------------------
Label_0100676A:
 BYTE   N11  Cn1  v092
 BYTE   N11  As1
 BYTE   W24
 BYTE   As1  v076
 BYTE   W24
 BYTE   Cn1  v092
 BYTE   N11  As1
 BYTE   W24
 BYTE   As1  v076
 BYTE   W24
 BYTE   PEND 
//  #05 //155   ----------------------------------------
Label_0100677C:
 BYTE   N11  Cn1  v092
 BYTE   N11  As1
 BYTE   W24
 BYTE   As1  v076
 BYTE   W24
 BYTE   Cn1  v092
 BYTE   N11  As1
 BYTE   W12
 BYTE   Cn1
 BYTE   W12
 BYTE   Dn1
 BYTE   W12
 BYTE   Cn1
 BYTE   W12
 BYTE   PEND 
//  #05 //156   ----------------------------------------
 BYTE   PATT
  POIN2 Label_010062DE
//  #05 //157   ----------------------------------------
Label_01006796:
 BYTE   N11  Cn1  v092
 BYTE   N11  As1
 BYTE   W12
 BYTE   Cn1
 BYTE   W12
 BYTE   Dn1
 BYTE   N11  As1  v076
 BYTE   W12
 BYTE   Cn1  v092
 BYTE   W12
 BYTE   N11
 BYTE   N11  As1
 BYTE   W12
 BYTE   Cn1
 BYTE   W12
 BYTE   Dn1
 BYTE   N11  As1  v076
 BYTE   W12
 BYTE   Cn1  v092
 BYTE   W12
 BYTE   PEND 
//  #05 //158   ----------------------------------------
 BYTE   PATT
  POIN2 Label_01006796
//  #05 //159   ----------------------------------------
 BYTE   PATT
  POIN2 Label_01006796
//  #05 //160   ----------------------------------------
 BYTE   PATT
  POIN2 Label_01006796
//  #05 //161   ----------------------------------------
 BYTE   PATT
  POIN2 Label_01006796
//  #05 //162   ----------------------------------------
 BYTE   PATT
  POIN2 Label_01006796
//  #05 //163   ----------------------------------------
 BYTE   PATT
  POIN2 Label_01006796
//  #05 //164   ----------------------------------------
Label_010067D3:
 BYTE   N11  Cn1  v092
 BYTE   N11  Cs2
 BYTE   W12
 BYTE   Cn1
 BYTE   W12
 BYTE   Dn1
 BYTE   N11  As1  v076
 BYTE   W12
 BYTE   Cn1  v092
 BYTE   W12
 BYTE   N11
 BYTE   N11  As1
 BYTE   W12
 BYTE   Cn1
 BYTE   W12
 BYTE   Dn1
 BYTE   N11  As1  v076
 BYTE   W12
 BYTE   Cn1  v092
 BYTE   W12
 BYTE   PEND 
//  #05 //165   ----------------------------------------
 BYTE   PATT
  POIN2 Label_01006796
//  #05 //166   ----------------------------------------
 BYTE   PATT
  POIN2 Label_01006796
//  #05 //167   ----------------------------------------
 BYTE   PATT
  POIN2 Label_01006796
//  #05 //168   ----------------------------------------
Label_01006801:
 BYTE   N11  Cn1  v092
 BYTE   N11  Gn2
 BYTE   W12
 BYTE   Cn1
 BYTE   W12
 BYTE   Dn1
 BYTE   N11  As1  v076
 BYTE   W12
 BYTE   Cn1  v092
 BYTE   W12
 BYTE   N11
 BYTE   N11  As1
 BYTE   W12
 BYTE   Cn1
 BYTE   W12
 BYTE   Dn1
 BYTE   N11  As1  v076
 BYTE   W12
 BYTE   Cn1  v092
 BYTE   W12
 BYTE   PEND 
//  #05 //169   ----------------------------------------
 BYTE   PATT
  POIN2 Label_01006796
//  #05 //170   ----------------------------------------
Label_01006825:
 BYTE   N11  Cn1  v092
 BYTE   N11  An2
 BYTE   W12
 BYTE   Cn1
 BYTE   W12
 BYTE   Dn1
 BYTE   N11  As1  v076
 BYTE   W12
 BYTE   Cn1  v092
 BYTE   W12
 BYTE   N11
 BYTE   N11  As1
 BYTE   W12
 BYTE   Cn1
 BYTE   W12
 BYTE   Dn1
 BYTE   N11  As1  v076
 BYTE   W12
 BYTE   Cn1  v092
 BYTE   W12
 BYTE   PEND 
//  #05 //171   ----------------------------------------
 BYTE   PATT
  POIN2 Label_01006796
//  #05 //172   ----------------------------------------
 BYTE   PATT
  POIN2 Label_010062DE
//  #05 //173   ----------------------------------------
 BYTE   PATT
  POIN2 Label_010062FF
//  #05 //174   ----------------------------------------
 BYTE   PATT
  POIN2 Label_01006322
//  #05 //175   ----------------------------------------
 BYTE   PATT
  POIN2 Label_010062FF
//  #05 //176   ----------------------------------------
 BYTE   PATT
  POIN2 Label_01006348
//  #05 //177   ----------------------------------------
 BYTE   PATT
  POIN2 Label_010062FF
//  #05 //178   ----------------------------------------
 BYTE   PATT
  POIN2 Label_01006322
//  #05 //179   ----------------------------------------
 BYTE   PATT
  POIN2 Label_01006375
//  #05 //180   ----------------------------------------
 BYTE   PATT
  POIN2 Label_010062DE
//  #05 //181   ----------------------------------------
 BYTE   PATT
  POIN2 Label_010062FF
//  #05 //182   ----------------------------------------
 BYTE   PATT
  POIN2 Label_01006322
//  #05 //183   ----------------------------------------
 BYTE   PATT
  POIN2 Label_010062FF
//  #05 //184   ----------------------------------------
 BYTE   PATT
  POIN2 Label_01006348
//  #05 //185   ----------------------------------------
 BYTE   PATT
  POIN2 Label_010062FF
//  #05 //186   ----------------------------------------
 BYTE   PATT
  POIN2 Label_01006322
//  #05 //187   ----------------------------------------
 BYTE   PATT
  POIN2 Label_01006375
//  #05 //188   ----------------------------------------
 BYTE   PATT
  POIN2 Label_010063C0
//  #05 //189   ----------------------------------------
 BYTE   PATT
  POIN2 Label_010063C0
//  #05 //190   ----------------------------------------
 BYTE   N11  Cn1  v092
 BYTE   N11  Gn2
 BYTE   W96
//  #05 //191   ----------------------------------------
 BYTE   W96
//  #05 //192   ----------------------------------------
 BYTE   PATT
  POIN2 Label_010063E7
//  #05 //193   ----------------------------------------
 BYTE   PATT
  POIN2 Label_0100641A
//  #05 //194   ----------------------------------------
 BYTE   PATT
  POIN2 Label_01006441
//  #05 //195   ----------------------------------------
 BYTE   PATT
  POIN2 Label_0100645B
//  #05 //196   ----------------------------------------
 BYTE   PATT
  POIN2 Label_01006478
//  #05 //197   ----------------------------------------
 BYTE   PATT
  POIN2 Label_0100645B
//  #05 //198   ----------------------------------------
 BYTE   PATT
  POIN2 Label_01006497
//  #05 //199   ----------------------------------------
 BYTE   PATT
  POIN2 Label_0100645B
//  #05 //200   ----------------------------------------
 BYTE   PATT
  POIN2 Label_01006478
//  #05 //201   ----------------------------------------
 BYTE   PATT
  POIN2 Label_010064BB
//  #05 //202   ----------------------------------------
 BYTE   PATT
  POIN2 Label_01006441
//  #05 //203   ----------------------------------------
 BYTE   PATT
  POIN2 Label_0100645B
//  #05 //204   ----------------------------------------
 BYTE   PATT
  POIN2 Label_01006478
//  #05 //205   ----------------------------------------
 BYTE   PATT
  POIN2 Label_0100645B
//  #05 //206   ----------------------------------------
 BYTE   PATT
  POIN2 Label_01006497
//  #05 //207   ----------------------------------------
 BYTE   PATT
  POIN2 Label_0100645B
//  #05 //208   ----------------------------------------
 BYTE   PATT
  POIN2 Label_01006478
//  #05 //209   ----------------------------------------
 BYTE   PATT
  POIN2 Label_010064BB
//  #05 //210   ----------------------------------------
 BYTE   PATT
  POIN2 Label_01006504
//  #05 //211   ----------------------------------------
 BYTE   PATT
  POIN2 Label_01006523
//  #05 //212   ----------------------------------------
 BYTE   PATT
  POIN2 Label_01006504
//  #05 //213   ----------------------------------------
 BYTE   PATT
  POIN2 Label_01006523
//  #05 //214   ----------------------------------------
 BYTE   PATT
  POIN2 Label_01006504
//  #05 //215   ----------------------------------------
 BYTE   PATT
  POIN2 Label_01006523
//  #05 //216   ----------------------------------------
 BYTE   PATT
  POIN2 Label_01006504
//  #05 //217   ----------------------------------------
 BYTE   PATT
  POIN2 Label_0100655B
//  #05 //218   ----------------------------------------
 BYTE   PATT
  POIN2 Label_01006504
//  #05 //219   ----------------------------------------
 BYTE   PATT
  POIN2 Label_01006523
//  #05 //220   ----------------------------------------
 BYTE   PATT
  POIN2 Label_01006504
//  #05 //221   ----------------------------------------
 BYTE   PATT
  POIN2 Label_01006523
//  #05 //222   ----------------------------------------
 BYTE   PATT
  POIN2 Label_01006504
//  #05 //223   ----------------------------------------
 BYTE   PATT
  POIN2 Label_01006523
//  #05 //224   ----------------------------------------
 BYTE   PATT
  POIN2 Label_01006504
//  #05 //225   ----------------------------------------
 BYTE   PATT
  POIN2 Label_010065A3
//  #05 //226   ----------------------------------------
 BYTE   PATT
  POIN2 Label_01006441
//  #05 //227   ----------------------------------------
 BYTE   PATT
  POIN2 Label_0100645B
//  #05 //228   ----------------------------------------
 BYTE   PATT
  POIN2 Label_01006478
//  #05 //229   ----------------------------------------
 BYTE   PATT
  POIN2 Label_0100645B
//  #05 //230   ----------------------------------------
 BYTE   PATT
  POIN2 Label_01006497
//  #05 //231   ----------------------------------------
 BYTE   PATT
  POIN2 Label_0100645B
//  #05 //232   ----------------------------------------
 BYTE   PATT
  POIN2 Label_01006478
//  #05 //233   ----------------------------------------
 BYTE   PATT
  POIN2 Label_010064BB
//  #05 //234   ----------------------------------------
 BYTE   PATT
  POIN2 Label_01006441
//  #05 //235   ----------------------------------------
 BYTE   PATT
  POIN2 Label_0100645B
//  #05 //236   ----------------------------------------
 BYTE   PATT
  POIN2 Label_01006478
//  #05 //237   ----------------------------------------
 BYTE   PATT
  POIN2 Label_0100645B
//  #05 //238   ----------------------------------------
 BYTE   PATT
  POIN2 Label_01006497
//  #05 //239   ----------------------------------------
 BYTE   PATT
  POIN2 Label_0100645B
//  #05 //240   ----------------------------------------
 BYTE   PATT
  POIN2 Label_01006478
//  #05 //241   ----------------------------------------
 BYTE   PATT
  POIN2 Label_010064BB
//  #05 //242   ----------------------------------------
 BYTE   PATT
  POIN2 Label_01006504
//  #05 //243   ----------------------------------------
 BYTE   PATT
  POIN2 Label_01006523
//  #05 //244   ----------------------------------------
 BYTE   PATT
  POIN2 Label_01006504
//  #05 //245   ----------------------------------------
 BYTE   PATT
  POIN2 Label_01006523
//  #05 //246   ----------------------------------------
 BYTE   PATT
  POIN2 Label_01006504
//  #05 //247   ----------------------------------------
 BYTE   PATT
  POIN2 Label_01006523
//  #05 //248   ----------------------------------------
 BYTE   PATT
  POIN2 Label_01006504
//  #05 //249   ----------------------------------------
 BYTE   PATT
  POIN2 Label_0100655B
//  #05 //250   ----------------------------------------
 BYTE   PATT
  POIN2 Label_01006504
//  #05 //251   ----------------------------------------
 BYTE   PATT
  POIN2 Label_01006523
//  #05 //252   ----------------------------------------
 BYTE   PATT
  POIN2 Label_01006504
//  #05 //253   ----------------------------------------
 BYTE   PATT
  POIN2 Label_01006523
//  #05 //254   ----------------------------------------
 BYTE   PATT
  POIN2 Label_01006504
//  #05 //255   ----------------------------------------
 BYTE   PATT
  POIN2 Label_01006523
//  #05 //256   ----------------------------------------
 BYTE   PATT
  POIN2 Label_01006504
//  #05 //257   ----------------------------------------
 BYTE   PATT
  POIN2 Label_010065A3
//  #05 //258   ----------------------------------------
 BYTE   N11  Cn1  v092
 BYTE   N11  Fs1
 BYTE   W96
//  #05 //259   ----------------------------------------
 BYTE   Cn1
 BYTE   W96
//  #05 //260   ----------------------------------------
 BYTE   N11
 BYTE   W96
//  #05 //261   ----------------------------------------
 BYTE   PATT
  POIN2 Label_0100666C
//  #05 //262   ----------------------------------------
 BYTE   N11  Cn1  v092
 BYTE   N11  Ds2
 BYTE   W96
//  #05 //263   ----------------------------------------
 BYTE   Cn1
 BYTE   W96
//  #05 //264   ----------------------------------------
 BYTE   N11
 BYTE   W96
//  #05 //265   ----------------------------------------
 BYTE   PATT
  POIN2 Label_0100667F
//  #05 //266   ----------------------------------------
 BYTE   PATT
  POIN2 Label_01006690
//  #05 //267   ----------------------------------------
 BYTE   PATT
  POIN2 Label_010066AB
//  #05 //268   ----------------------------------------
 BYTE   PATT
  POIN2 Label_010066AB
//  #05 //269   ----------------------------------------
 BYTE   PATT
  POIN2 Label_010066C7
//  #05 //270   ----------------------------------------
 BYTE   PATT
  POIN2 Label_010066AB
//  #05 //271   ----------------------------------------
 BYTE   PATT
  POIN2 Label_010066AB
//  #05 //272   ----------------------------------------
 BYTE   PATT
  POIN2 Label_010066AB
//  #05 //273   ----------------------------------------
 BYTE   PATT
  POIN2 Label_010066C7
//  #05 //274   ----------------------------------------
 BYTE   PATT
  POIN2 Label_010063C0
//  #05 //275   ----------------------------------------
 BYTE   PATT
  POIN2 Label_010063C0
//  #05 //276   ----------------------------------------
 BYTE   N11  Cn1  v092
 BYTE   N11  Gn2
 BYTE   W96
//  #05 //277   ----------------------------------------
 BYTE   W96
//  #05 //278   ----------------------------------------
 BYTE   PATT
  POIN2 Label_010063C0
//  #05 //279   ----------------------------------------
 BYTE   PATT
  POIN2 Label_010063C0
//  #05 //280   ----------------------------------------
 BYTE   PATT
  POIN2 Label_0100670F
//  #05 //281   ----------------------------------------
 BYTE   PATT
  POIN2 Label_01006724
//  #05 //282   ----------------------------------------
 BYTE   PATT
  POIN2 Label_01006741
//  #05 //283   ----------------------------------------
 BYTE   W96
//  #05 //284   ----------------------------------------
 BYTE   W96
//  #05 //285   ----------------------------------------
 BYTE   W96
//  #05 //286   ----------------------------------------
 BYTE   W96
//  #05 //287   ----------------------------------------
 BYTE   W96
//  #05 //288   ----------------------------------------
 BYTE   N11  Cn1  v092
 BYTE   N11  As1
 BYTE   W96
//  #05 //289   ----------------------------------------
 BYTE   W96
//  #05 //290   ----------------------------------------
 BYTE   W96
//  #05 //291   ----------------------------------------
 BYTE   W96
//  #05 //292   ----------------------------------------
 BYTE   W96
//  #05 //293   ----------------------------------------
 BYTE   W96
//  #05 //294   ----------------------------------------
 BYTE   PATT
  POIN2 Label_01006758
//  #05 //295   ----------------------------------------
 BYTE   PATT
  POIN2 Label_01006762
//  #05 //296   ----------------------------------------
 BYTE   PATT
  POIN2 Label_0100676A
//  #05 //297   ----------------------------------------
 BYTE   PATT
  POIN2 Label_0100677C
//  #05 //298   ----------------------------------------
 BYTE   PATT
  POIN2 Label_010062DE
//  #05 //299   ----------------------------------------
 BYTE   PATT
  POIN2 Label_01006796
//  #05 //300   ----------------------------------------
 BYTE   PATT
  POIN2 Label_01006796
//  #05 //301   ----------------------------------------
 BYTE   PATT
  POIN2 Label_01006796
//  #05 //302   ----------------------------------------
 BYTE   PATT
  POIN2 Label_01006796
//  #05 //303   ----------------------------------------
 BYTE   PATT
  POIN2 Label_01006796
//  #05 //304   ----------------------------------------
 BYTE   PATT
  POIN2 Label_01006796
//  #05 //305   ----------------------------------------
 BYTE   PATT
  POIN2 Label_01006796
//  #05 //306   ----------------------------------------
 BYTE   PATT
  POIN2 Label_010067D3
//  #05 //307   ----------------------------------------
 BYTE   PATT
  POIN2 Label_01006796
//  #05 //308   ----------------------------------------
 BYTE   PATT
  POIN2 Label_01006796
//  #05 //309   ----------------------------------------
 BYTE   PATT
  POIN2 Label_01006796
//  #05 //310   ----------------------------------------
 BYTE   PATT
  POIN2 Label_01006801
//  #05 //311   ----------------------------------------
 BYTE   PATT
  POIN2 Label_01006796
//  #05 //312   ----------------------------------------
 BYTE   PATT
  POIN2 Label_01006825
//  #05 //313   ----------------------------------------
 BYTE   PATT
  POIN2 Label_01006796
//  #05 //314   ----------------------------------------
 BYTE   PATT
  POIN2 Label_010062DE
//  #05 //315   ----------------------------------------
 BYTE   PATT
  POIN2 Label_01006796
//  #05 //316   ----------------------------------------
 BYTE   PATT
  POIN2 Label_01006796
//  #05 //317   ----------------------------------------
 BYTE   PATT
  POIN2 Label_01006796
//  #05 //318   ----------------------------------------
 BYTE   PATT
  POIN2 Label_01006796
//  #05 //319   ----------------------------------------
 BYTE   PATT
  POIN2 Label_01006796
//  #05 //320   ----------------------------------------
 BYTE   PATT
  POIN2 Label_01006796
//  #05 //321   ----------------------------------------
 BYTE   PATT
  POIN2 Label_01006796
//  #05 //322   ----------------------------------------
 BYTE   PATT
  POIN2 Label_010067D3
//  #05 //323   ----------------------------------------
 BYTE   PATT
  POIN2 Label_01006796
//  #05 //324   ----------------------------------------
 BYTE   PATT
  POIN2 Label_01006796
//  #05 //325   ----------------------------------------
 BYTE   PATT
  POIN2 Label_01006796
//  #05 //326   ----------------------------------------
 BYTE   PATT
  POIN2 Label_01006801
//  #05 //327   ----------------------------------------
 BYTE   PATT
  POIN2 Label_01006796
//  #05 //328   ----------------------------------------
 BYTE   PATT
  POIN2 Label_01006825
//  #05 //329   ----------------------------------------
 BYTE   PATT
  POIN2 Label_01006796
//  #05 //330   ----------------------------------------
 BYTE   GoTo
  POIN2 Label_01006298
//  #05 //331   ----------------------------------------
Label_01006B2D:
 BYTE   N11  Cn1  v092
 BYTE   W24
 BYTE   Dn1
 BYTE   N11  As1
 BYTE   W24
 BYTE   Cn1
 BYTE   W24
 BYTE   Dn1
 BYTE   N11  As1
 BYTE   W24
 BYTE   PEND 
//  #05 //332   ----------------------------------------
Label_01006B3C:
 BYTE   N11  Cn1  v092
 BYTE   W24
 BYTE   Dn1
 BYTE   N11  As1
 BYTE   W24
 BYTE   Cn1
 BYTE   W24
 BYTE   Dn1
 BYTE   N11  As1
 BYTE   W12
 BYTE   Cn1
 BYTE   W12
 BYTE   PEND 
//  #05 //333   ----------------------------------------
 BYTE   PATT
  POIN2 Label_01006B2D
//  #05 //334   ----------------------------------------
 BYTE   PATT
  POIN2 Label_01006B3C
//  #05 //335   ----------------------------------------
 BYTE   PATT
  POIN2 Label_01006B2D
//  #05 //336   ----------------------------------------
 BYTE   PATT
  POIN2 Label_01006B3C
//  #05 //337   ----------------------------------------
 BYTE   PATT
  POIN2 Label_01006B2D
//  #05 //338   ----------------------------------------
 BYTE   PATT
  POIN2 Label_01006B3C
//  #05 //339   ----------------------------------------
 BYTE   PATT
  POIN2 Label_01006B2D
//  #05 //340   ----------------------------------------
 BYTE   PATT
  POIN2 Label_01006B3C
//  #05 //341   ----------------------------------------
 BYTE   PATT
  POIN2 Label_01006B2D
//  #05 //342   ----------------------------------------
 BYTE   PATT
  POIN2 Label_01006B3C
//  #05 //343   ----------------------------------------
 BYTE   PATT
  POIN2 Label_01006B2D
//  #05 //344   ----------------------------------------
 BYTE   PATT
  POIN2 Label_01006B3C
//  #05 //345   ----------------------------------------
 BYTE   W01
 BYTE   N11  Cn1  v092
 BYTE   W24
 BYTE   Dn1
 BYTE   N11  As1
 BYTE   W24
 BYTE   Cn1
 BYTE   W24
 BYTE   Dn1
 BYTE   N11  As1
 BYTE   W23
//  #05 //346   ----------------------------------------
 BYTE   W01
 BYTE   Cn1
 BYTE   W24
 BYTE   Dn1
 BYTE   N11  As1
 BYTE   W24
 BYTE   Cn1
 BYTE   W24
 BYTE   Dn1
 BYTE   N11  As1
 BYTE   W12
 BYTE   Cn1
 BYTE   W11
//  #05 //347   ----------------------------------------
 BYTE   PATT
  POIN2 Label_010063C0
//  #05 //348   ----------------------------------------
 BYTE   PATT
  POIN2 Label_010063C0
 BYTE   FINE

//**************** Track 6 (Midi-Chn.5) ****************//

BloodstainedLineage_006:
//  #06 //000   ----------------------------------------
 BYTE   KEYSH   BloodstainedLineage_key+0
 BYTE   VOICE   36
 BYTE   PAN   c_v+0
 BYTE   VOL   50*BloodstainedLineage_mvl/mxv
 BYTE   W96
//  #06 //001   ----------------------------------------
 BYTE   W96
//  #06 //002   ----------------------------------------
 BYTE   W96
//  #06 //003   ----------------------------------------
 BYTE   W96
//  #06 //004   ----------------------------------------
 BYTE   W96
//  #06 //005   ----------------------------------------
 BYTE   W96
//  #06 //006   ----------------------------------------
 BYTE   W96
//  #06 //007   ----------------------------------------
 BYTE   W96
//  #06 //008   ----------------------------------------
 BYTE   W96
//  #06 //009   ----------------------------------------
 BYTE   W96
//  #06 //010   ----------------------------------------
 BYTE   N23  En1  v092
 BYTE   W96
//  #06 //011   ----------------------------------------
 BYTE   W96
//  #06 //012   ----------------------------------------
 BYTE   TIE  Fn0
 BYTE   W96
//  #06 //013   ----------------------------------------
 BYTE   W92
 BYTE   W03
 BYTE   EOT
 BYTE   W01
//  #06 //014   ----------------------------------------
 BYTE   N23  En1
 BYTE   W96
//  #06 //015   ----------------------------------------
 BYTE   W96
//  #06 //016   ----------------------------------------
 BYTE   TIE  Cn1
 BYTE   W96
//  #06 //017   ----------------------------------------
 BYTE   W92
 BYTE   W03
 BYTE   EOT
 BYTE   W01
//  #06 //018   ----------------------------------------
 BYTE   N23  En1
 BYTE   W96
//  #06 //019   ----------------------------------------
 BYTE   W96
//  #06 //020   ----------------------------------------
 BYTE   TIE  Fn0
 BYTE   W96
//  #06 //021   ----------------------------------------
 BYTE   W92
 BYTE   W03
 BYTE   EOT
 BYTE   W01
//  #06 //022   ----------------------------------------
Label_01006BF8:
 BYTE   W96
//  #06 //023   ----------------------------------------
 BYTE   W96
//  #06 //024   ----------------------------------------
 BYTE   W96
//  #06 //025   ----------------------------------------
 BYTE   N23  En0  v092
 BYTE   W24
 BYTE   N11  Fn0
 BYTE   W12
 BYTE   N11
 BYTE   W12
 BYTE   Gn0
 BYTE   W12
 BYTE   N11
 BYTE   W12
 BYTE   An0
 BYTE   W12
 BYTE   N11
 BYTE   W12
//  #06 //026   ----------------------------------------
 BYTE   N23  Bn0
 BYTE   W96
//  #06 //027   ----------------------------------------
 BYTE   W96
//  #06 //028   ----------------------------------------
 BYTE   W96
//  #06 //029   ----------------------------------------
 BYTE   N11  En0
 BYTE   W24
 BYTE   Fn0
 BYTE   W12
 BYTE   N11
 BYTE   W12
 BYTE   Gn0
 BYTE   W12
 BYTE   N11
 BYTE   W12
 BYTE   An0
 BYTE   W12
 BYTE   N11
 BYTE   W12
//  #06 //030   ----------------------------------------
Label_01006C20:
 BYTE   N05  En0  v092
 BYTE   W12
 BYTE   N05
 BYTE   W12
 BYTE   N05
 BYTE   W12
 BYTE   N05
 BYTE   W12
 BYTE   N05
 BYTE   W12
 BYTE   N05
 BYTE   W12
 BYTE   N05
 BYTE   W12
 BYTE   N05
 BYTE   W12
 BYTE   PEND 
//  #06 //031   ----------------------------------------
 BYTE   PATT
  POIN2 Label_01006C20
//  #06 //032   ----------------------------------------
 BYTE   PATT
  POIN2 Label_01006C20
//  #06 //033   ----------------------------------------
 BYTE   PATT
  POIN2 Label_01006C20
//  #06 //034   ----------------------------------------
 BYTE   PATT
  POIN2 Label_01006C20
//  #06 //035   ----------------------------------------
 BYTE   PATT
  POIN2 Label_01006C20
//  #06 //036   ----------------------------------------
 BYTE   PATT
  POIN2 Label_01006C20
//  #06 //037   ----------------------------------------
Label_01006C51:
 BYTE   N05  En0  v092
 BYTE   W12
 BYTE   N05
 BYTE   W12
 BYTE   Fn0
 BYTE   W12
 BYTE   N05
 BYTE   W12
 BYTE   Gn0
 BYTE   W12
 BYTE   N05
 BYTE   W12
 BYTE   En0
 BYTE   W12
 BYTE   N05
 BYTE   W12
 BYTE   PEND 
//  #06 //038   ----------------------------------------
 BYTE   PATT
  POIN2 Label_01006C20
//  #06 //039   ----------------------------------------
 BYTE   PATT
  POIN2 Label_01006C20
//  #06 //040   ----------------------------------------
 BYTE   PATT
  POIN2 Label_01006C20
//  #06 //041   ----------------------------------------
 BYTE   PATT
  POIN2 Label_01006C20
//  #06 //042   ----------------------------------------
 BYTE   PATT
  POIN2 Label_01006C20
//  #06 //043   ----------------------------------------
 BYTE   PATT
  POIN2 Label_01006C20
//  #06 //044   ----------------------------------------
 BYTE   PATT
  POIN2 Label_01006C20
//  #06 //045   ----------------------------------------
Label_01006C87:
 BYTE   N05  En0  v092
 BYTE   W12
 BYTE   N05
 BYTE   W12
 BYTE   Fn0
 BYTE   W12
 BYTE   N05
 BYTE   W12
 BYTE   Gn0
 BYTE   W12
 BYTE   N05
 BYTE   W12
 BYTE   An0
 BYTE   W12
 BYTE   N05
 BYTE   W12
 BYTE   PEND 
//  #06 //046   ----------------------------------------
Label_01006C9A:
 BYTE   N23  En0  v092
 BYTE   W24
 BYTE   N11
 BYTE   W12
 BYTE   N23
 BYTE   W24
 BYTE   N23
 BYTE   W24
 BYTE   N11
 BYTE   W12
 BYTE   PEND 
//  #06 //047   ----------------------------------------
 BYTE   PATT
  POIN2 Label_01006C9A
//  #06 //048   ----------------------------------------
 BYTE   W96
//  #06 //049   ----------------------------------------
 BYTE   W96
//  #06 //050   ----------------------------------------
Label_01006CAE:
 BYTE   N32  En1  v092
 BYTE   W36
 BYTE   As0
 BYTE   W36
 BYTE   N23  En0
 BYTE   W24
 BYTE   PEND 
//  #06 //051   ----------------------------------------
Label_01006CB8:
 BYTE   N32  Bn0  v092
 BYTE   W36
 BYTE   As0
 BYTE   W36
 BYTE   N23  An0
 BYTE   W24
 BYTE   PEND 
//  #06 //052   ----------------------------------------
Label_01006CC2:
 BYTE   N23  En0  v092
 BYTE   W24
 BYTE   N23
 BYTE   W24
 BYTE   N23
 BYTE   W24
 BYTE   N23
 BYTE   W24
 BYTE   PEND 
//  #06 //053   ----------------------------------------
 BYTE   PATT
  POIN2 Label_01006CC2
//  #06 //054   ----------------------------------------
Label_01006CD2:
 BYTE   N23  Fn0  v092
 BYTE   W24
 BYTE   N23
 BYTE   W24
 BYTE   N23
 BYTE   W24
 BYTE   N23
 BYTE   W24
 BYTE   PEND 
//  #06 //055   ----------------------------------------
 BYTE   PATT
  POIN2 Label_01006CD2
//  #06 //056   ----------------------------------------
Label_01006CE2:
 BYTE   N23  Fs0  v092
 BYTE   W24
 BYTE   N23
 BYTE   W24
 BYTE   N23
 BYTE   W24
 BYTE   N23
 BYTE   W24
 BYTE   PEND 
//  #06 //057   ----------------------------------------
 BYTE   PATT
  POIN2 Label_01006CE2
//  #06 //058   ----------------------------------------
 BYTE   PATT
  POIN2 Label_01006CD2
//  #06 //059   ----------------------------------------
Label_01006CF7:
 BYTE   N32  Dn0  v092
 BYTE   W36
 BYTE   N32
 BYTE   W36
 BYTE   N23
 BYTE   W24
 BYTE   PEND 
//  #06 //060   ----------------------------------------
 BYTE   PATT
  POIN2 Label_01006CC2
//  #06 //061   ----------------------------------------
 BYTE   PATT
  POIN2 Label_01006CC2
//  #06 //062   ----------------------------------------
 BYTE   PATT
  POIN2 Label_01006CD2
//  #06 //063   ----------------------------------------
 BYTE   PATT
  POIN2 Label_01006CD2
//  #06 //064   ----------------------------------------
 BYTE   PATT
  POIN2 Label_01006CE2
//  #06 //065   ----------------------------------------
 BYTE   PATT
  POIN2 Label_01006CE2
//  #06 //066   ----------------------------------------
 BYTE   PATT
  POIN2 Label_01006CD2
//  #06 //067   ----------------------------------------
 BYTE   PATT
  POIN2 Label_01006CD2
//  #06 //068   ----------------------------------------
 BYTE   TIE  An1  v092
 BYTE   W96
//  #06 //069   ----------------------------------------
 BYTE   W92
 BYTE   W03
 BYTE   EOT
 BYTE   W01
//  #06 //070   ----------------------------------------
 BYTE   TIE  Gn1
 BYTE   W96
//  #06 //071   ----------------------------------------
 BYTE   W92
 BYTE   W03
 BYTE   EOT
 BYTE   W01
//  #06 //072   ----------------------------------------
 BYTE   TIE  Fs1
 BYTE   W96
//  #06 //073   ----------------------------------------
 BYTE   W92
 BYTE   W03
 BYTE   EOT
 BYTE   W01
//  #06 //074   ----------------------------------------
 BYTE   N92  Fn1
 BYTE   W96
//  #06 //075   ----------------------------------------
Label_01006D41:
 BYTE   N32  Bn0  v092
 BYTE   W36
 BYTE   Gn0
 BYTE   W36
 BYTE   N23  Fn0
 BYTE   W24
 BYTE   PEND 
//  #06 //076   ----------------------------------------
 BYTE   TIE  An1
 BYTE   W96
//  #06 //077   ----------------------------------------
 BYTE   W92
 BYTE   W03
 BYTE   EOT
 BYTE   W01
//  #06 //078   ----------------------------------------
 BYTE   TIE  Gn1
 BYTE   W96
//  #06 //079   ----------------------------------------
 BYTE   W92
 BYTE   W03
 BYTE   EOT
 BYTE   W01
//  #06 //080   ----------------------------------------
 BYTE   TIE  Fs1
 BYTE   W96
//  #06 //081   ----------------------------------------
 BYTE   W92
 BYTE   W03
 BYTE   EOT
 BYTE   W01
//  #06 //082   ----------------------------------------
 BYTE   TIE  Fn1
 BYTE   W96
//  #06 //083   ----------------------------------------
 BYTE   W92
 BYTE   W03
 BYTE   EOT
 BYTE   W01
//  #06 //084   ----------------------------------------
 BYTE   PATT
  POIN2 Label_01006CC2
//  #06 //085   ----------------------------------------
 BYTE   PATT
  POIN2 Label_01006CC2
//  #06 //086   ----------------------------------------
 BYTE   PATT
  POIN2 Label_01006CD2
//  #06 //087   ----------------------------------------
 BYTE   PATT
  POIN2 Label_01006CD2
//  #06 //088   ----------------------------------------
 BYTE   PATT
  POIN2 Label_01006CE2
//  #06 //089   ----------------------------------------
 BYTE   PATT
  POIN2 Label_01006CE2
//  #06 //090   ----------------------------------------
 BYTE   PATT
  POIN2 Label_01006CD2
//  #06 //091   ----------------------------------------
 BYTE   PATT
  POIN2 Label_01006CF7
//  #06 //092   ----------------------------------------
 BYTE   PATT
  POIN2 Label_01006CC2
//  #06 //093   ----------------------------------------
 BYTE   PATT
  POIN2 Label_01006CC2
//  #06 //094   ----------------------------------------
 BYTE   PATT
  POIN2 Label_01006CD2
//  #06 //095   ----------------------------------------
 BYTE   PATT
  POIN2 Label_01006CD2
//  #06 //096   ----------------------------------------
 BYTE   PATT
  POIN2 Label_01006CE2
//  #06 //097   ----------------------------------------
 BYTE   PATT
  POIN2 Label_01006CE2
//  #06 //098   ----------------------------------------
 BYTE   PATT
  POIN2 Label_01006CD2
//  #06 //099   ----------------------------------------
 BYTE   PATT
  POIN2 Label_01006CD2
//  #06 //100   ----------------------------------------
 BYTE   TIE  An1  v092
 BYTE   W96
//  #06 //101   ----------------------------------------
 BYTE   W92
 BYTE   W03
 BYTE   EOT
 BYTE   W01
//  #06 //102   ----------------------------------------
 BYTE   TIE  Gn1
 BYTE   W96
//  #06 //103   ----------------------------------------
 BYTE   W92
 BYTE   W03
 BYTE   EOT
 BYTE   W01
//  #06 //104   ----------------------------------------
 BYTE   TIE  Fs1
 BYTE   W96
//  #06 //105   ----------------------------------------
 BYTE   W92
 BYTE   W03
 BYTE   EOT
 BYTE   W01
//  #06 //106   ----------------------------------------
 BYTE   N92  Fn1
 BYTE   W96
//  #06 //107   ----------------------------------------
 BYTE   PATT
  POIN2 Label_01006D41
//  #06 //108   ----------------------------------------
 BYTE   TIE  An1  v092
 BYTE   W96
//  #06 //109   ----------------------------------------
 BYTE   W92
 BYTE   W03
 BYTE   EOT
 BYTE   W01
//  #06 //110   ----------------------------------------
 BYTE   TIE  Gn1
 BYTE   W96
//  #06 //111   ----------------------------------------
 BYTE   W92
 BYTE   W03
 BYTE   EOT
 BYTE   W01
//  #06 //112   ----------------------------------------
 BYTE   TIE  Fs1
 BYTE   W96
//  #06 //113   ----------------------------------------
 BYTE   W92
 BYTE   W03
 BYTE   EOT
 BYTE   W01
//  #06 //114   ----------------------------------------
 BYTE   TIE  Fn1
 BYTE   W96
//  #06 //115   ----------------------------------------
 BYTE   W92
 BYTE   W03
 BYTE   EOT
 BYTE   W01
//  #06 //116   ----------------------------------------
 BYTE   TIE  En0
 BYTE   W96
//  #06 //117   ----------------------------------------
 BYTE   W92
 BYTE   W03
 BYTE   EOT
 BYTE   W01
//  #06 //118   ----------------------------------------
 BYTE   TIE  Fn0
 BYTE   W96
//  #06 //119   ----------------------------------------
 BYTE   W92
 BYTE   W03
 BYTE   EOT
 BYTE   W01
//  #06 //120   ----------------------------------------
 BYTE   TIE  Gn0
 BYTE   W96
//  #06 //121   ----------------------------------------
 BYTE   W92
 BYTE   W03
 BYTE   EOT
 BYTE   W01
//  #06 //122   ----------------------------------------
 BYTE   TIE  Fn0
 BYTE   W96
//  #06 //123   ----------------------------------------
 BYTE   W92
 BYTE   W03
 BYTE   EOT
 BYTE   W01
//  #06 //124   ----------------------------------------
 BYTE   PATT
  POIN2 Label_01006CC2
//  #06 //125   ----------------------------------------
 BYTE   PATT
  POIN2 Label_01006CC2
//  #06 //126   ----------------------------------------
 BYTE   PATT
  POIN2 Label_01006CD2
//  #06 //127   ----------------------------------------
 BYTE   PATT
  POIN2 Label_01006CD2
//  #06 //128   ----------------------------------------
Label_01006E22:
 BYTE   N23  Gn0  v092
 BYTE   W24
 BYTE   N23
 BYTE   W24
 BYTE   N23
 BYTE   W24
 BYTE   N23
 BYTE   W24
 BYTE   PEND 
//  #06 //129   ----------------------------------------
 BYTE   PATT
  POIN2 Label_01006E22
//  #06 //130   ----------------------------------------
 BYTE   PATT
  POIN2 Label_01006CD2
//  #06 //131   ----------------------------------------
 BYTE   PATT
  POIN2 Label_01006CD2
//  #06 //132   ----------------------------------------
 BYTE   PATT
  POIN2 Label_01006C9A
//  #06 //133   ----------------------------------------
 BYTE   PATT
  POIN2 Label_01006C9A
//  #06 //134   ----------------------------------------
 BYTE   W96
//  #06 //135   ----------------------------------------
 BYTE   W96
//  #06 //136   ----------------------------------------
 BYTE   PATT
  POIN2 Label_01006C9A
//  #06 //137   ----------------------------------------
 BYTE   PATT
  POIN2 Label_01006C9A
//  #06 //138   ----------------------------------------
 BYTE   W96
//  #06 //139   ----------------------------------------
 BYTE   W96
//  #06 //140   ----------------------------------------
 BYTE   N92  En1  v092
 BYTE   W96
//  #06 //141   ----------------------------------------
 BYTE   Cn1
 BYTE   W96
//  #06 //142   ----------------------------------------
 BYTE   Dn1
 BYTE   W96
//  #06 //143   ----------------------------------------
 BYTE   Gn0
 BYTE   W96
//  #06 //144   ----------------------------------------
 BYTE   Cn1
 BYTE   W96
//  #06 //145   ----------------------------------------
 BYTE   Ds1
 BYTE   W96
//  #06 //146   ----------------------------------------
 BYTE   TIE  En1
 BYTE   W96
//  #06 //147   ----------------------------------------
 BYTE   W92
 BYTE   W03
 BYTE   EOT
 BYTE   W01
//  #06 //148   ----------------------------------------
Label_01006E69:
 BYTE   N11  Bn0  v092
 BYTE   W12
 BYTE   N11
 BYTE   W12
 BYTE   N11
 BYTE   W12
 BYTE   N11
 BYTE   W12
 BYTE   N11
 BYTE   W12
 BYTE   N11
 BYTE   W12
 BYTE   N11
 BYTE   W12
 BYTE   N11
 BYTE   W12
 BYTE   PEND 
//  #06 //149   ----------------------------------------
 BYTE   PATT
  POIN2 Label_01006E69
//  #06 //150   ----------------------------------------
 BYTE   PATT
  POIN2 Label_01006E69
//  #06 //151   ----------------------------------------
 BYTE   PATT
  POIN2 Label_01006E69
//  #06 //152   ----------------------------------------
Label_01006E8B:
 BYTE   N11  Cn1  v092
 BYTE   W12
 BYTE   N11
 BYTE   W12
 BYTE   N11
 BYTE   W12
 BYTE   N11
 BYTE   W12
 BYTE   N11
 BYTE   W12
 BYTE   N11
 BYTE   W12
 BYTE   N11
 BYTE   W12
 BYTE   N11
 BYTE   W12
 BYTE   PEND 
//  #06 //153   ----------------------------------------
Label_01006E9E:
 BYTE   N11  Ds1  v092
 BYTE   W12
 BYTE   N11
 BYTE   W12
 BYTE   N11
 BYTE   W12
 BYTE   N11
 BYTE   W12
 BYTE   N11
 BYTE   W12
 BYTE   N11
 BYTE   W12
 BYTE   N11
 BYTE   W12
 BYTE   N11
 BYTE   W12
 BYTE   PEND 
//  #06 //154   ----------------------------------------
Label_01006EB1:
 BYTE   N11  En1  v092
 BYTE   W12
 BYTE   N11
 BYTE   W12
 BYTE   N11
 BYTE   W12
 BYTE   N11
 BYTE   W12
 BYTE   N11
 BYTE   W12
 BYTE   N11
 BYTE   W12
 BYTE   N11
 BYTE   W12
 BYTE   N11
 BYTE   W12
 BYTE   PEND 
//  #06 //155   ----------------------------------------
Label_01006EC4:
 BYTE   N11  Fs1  v092
 BYTE   W12
 BYTE   N11
 BYTE   W12
 BYTE   N11
 BYTE   W12
 BYTE   N11
 BYTE   W12
 BYTE   N11
 BYTE   W12
 BYTE   N11
 BYTE   W12
 BYTE   N11
 BYTE   W12
 BYTE   N11
 BYTE   W12
 BYTE   PEND 
//  #06 //156   ----------------------------------------
 BYTE   PATT
  POIN2 Label_01006EB1
//  #06 //157   ----------------------------------------
 BYTE   PATT
  POIN2 Label_01006E8B
//  #06 //158   ----------------------------------------
Label_01006EE1:
 BYTE   N11  Dn1  v092
 BYTE   W12
 BYTE   N11
 BYTE   W12
 BYTE   N11
 BYTE   W12
 BYTE   N11
 BYTE   W12
 BYTE   N11
 BYTE   W12
 BYTE   N11
 BYTE   W12
 BYTE   N11
 BYTE   W12
 BYTE   N11
 BYTE   W12
 BYTE   PEND 
//  #06 //159   ----------------------------------------
Label_01006EF4:
 BYTE   N11  Gn0  v092
 BYTE   W12
 BYTE   N11
 BYTE   W12
 BYTE   N11
 BYTE   W12
 BYTE   N11
 BYTE   W12
 BYTE   N11
 BYTE   W12
 BYTE   N11
 BYTE   W12
 BYTE   N11
 BYTE   W12
 BYTE   N11
 BYTE   W12
 BYTE   PEND 
//  #06 //160   ----------------------------------------
 BYTE   PATT
  POIN2 Label_01006E8B
//  #06 //161   ----------------------------------------
 BYTE   PATT
  POIN2 Label_01006E9E
//  #06 //162   ----------------------------------------
 BYTE   PATT
  POIN2 Label_01006EB1
//  #06 //163   ----------------------------------------
 BYTE   PATT
  POIN2 Label_01006EB1
//  #06 //164   ----------------------------------------
 BYTE   PATT
  POIN2 Label_01006E69
//  #06 //165   ----------------------------------------
 BYTE   PATT
  POIN2 Label_01006E69
//  #06 //166   ----------------------------------------
 BYTE   PATT
  POIN2 Label_01006E69
//  #06 //167   ----------------------------------------
 BYTE   PATT
  POIN2 Label_01006E8B
//  #06 //168   ----------------------------------------
 BYTE   PATT
  POIN2 Label_01006EE1
//  #06 //169   ----------------------------------------
 BYTE   PATT
  POIN2 Label_01006E9E
//  #06 //170   ----------------------------------------
 BYTE   PATT
  POIN2 Label_01006EB1
//  #06 //171   ----------------------------------------
 BYTE   PATT
  POIN2 Label_01006EB1
//  #06 //172   ----------------------------------------
 BYTE   PATT
  POIN2 Label_01006C20
//  #06 //173   ----------------------------------------
 BYTE   PATT
  POIN2 Label_01006C20
//  #06 //174   ----------------------------------------
 BYTE   PATT
  POIN2 Label_01006C20
//  #06 //175   ----------------------------------------
 BYTE   PATT
  POIN2 Label_01006C20
//  #06 //176   ----------------------------------------
 BYTE   PATT
  POIN2 Label_01006C20
//  #06 //177   ----------------------------------------
 BYTE   PATT
  POIN2 Label_01006C20
//  #06 //178   ----------------------------------------
 BYTE   PATT
  POIN2 Label_01006C20
//  #06 //179   ----------------------------------------
 BYTE   PATT
  POIN2 Label_01006C51
//  #06 //180   ----------------------------------------
 BYTE   PATT
  POIN2 Label_01006C20
//  #06 //181   ----------------------------------------
 BYTE   PATT
  POIN2 Label_01006C20
//  #06 //182   ----------------------------------------
 BYTE   PATT
  POIN2 Label_01006C20
//  #06 //183   ----------------------------------------
 BYTE   PATT
  POIN2 Label_01006C20
//  #06 //184   ----------------------------------------
 BYTE   PATT
  POIN2 Label_01006C20
//  #06 //185   ----------------------------------------
 BYTE   PATT
  POIN2 Label_01006C20
//  #06 //186   ----------------------------------------
 BYTE   PATT
  POIN2 Label_01006C20
//  #06 //187   ----------------------------------------
 BYTE   PATT
  POIN2 Label_01006C87
//  #06 //188   ----------------------------------------
 BYTE   PATT
  POIN2 Label_01006C9A
//  #06 //189   ----------------------------------------
 BYTE   PATT
  POIN2 Label_01006C9A
//  #06 //190   ----------------------------------------
 BYTE   W96
//  #06 //191   ----------------------------------------
 BYTE   W96
//  #06 //192   ----------------------------------------
 BYTE   PATT
  POIN2 Label_01006CAE
//  #06 //193   ----------------------------------------
 BYTE   PATT
  POIN2 Label_01006CB8
//  #06 //194   ----------------------------------------
 BYTE   PATT
  POIN2 Label_01006CC2
//  #06 //195   ----------------------------------------
 BYTE   PATT
  POIN2 Label_01006CC2
//  #06 //196   ----------------------------------------
 BYTE   PATT
  POIN2 Label_01006CD2
//  #06 //197   ----------------------------------------
 BYTE   PATT
  POIN2 Label_01006CD2
//  #06 //198   ----------------------------------------
 BYTE   PATT
  POIN2 Label_01006CE2
//  #06 //199   ----------------------------------------
 BYTE   PATT
  POIN2 Label_01006CE2
//  #06 //200   ----------------------------------------
 BYTE   PATT
  POIN2 Label_01006CD2
//  #06 //201   ----------------------------------------
 BYTE   PATT
  POIN2 Label_01006CF7
//  #06 //202   ----------------------------------------
 BYTE   PATT
  POIN2 Label_01006CC2
//  #06 //203   ----------------------------------------
 BYTE   PATT
  POIN2 Label_01006CC2
//  #06 //204   ----------------------------------------
 BYTE   PATT
  POIN2 Label_01006CD2
//  #06 //205   ----------------------------------------
 BYTE   PATT
  POIN2 Label_01006CD2
//  #06 //206   ----------------------------------------
 BYTE   PATT
  POIN2 Label_01006CE2
//  #06 //207   ----------------------------------------
 BYTE   PATT
  POIN2 Label_01006CE2
//  #06 //208   ----------------------------------------
 BYTE   PATT
  POIN2 Label_01006CD2
//  #06 //209   ----------------------------------------
 BYTE   PATT
  POIN2 Label_01006CD2
//  #06 //210   ----------------------------------------
 BYTE   TIE  An1  v092
 BYTE   W96
//  #06 //211   ----------------------------------------
 BYTE   W92
 BYTE   W03
 BYTE   EOT
 BYTE   W01
//  #06 //212   ----------------------------------------
 BYTE   TIE  Gn1
 BYTE   W96
//  #06 //213   ----------------------------------------
 BYTE   W92
 BYTE   W03
 BYTE   EOT
 BYTE   W01
//  #06 //214   ----------------------------------------
 BYTE   TIE  Fs1
 BYTE   W96
//  #06 //215   ----------------------------------------
 BYTE   W92
 BYTE   W03
 BYTE   EOT
 BYTE   W01
//  #06 //216   ----------------------------------------
 BYTE   N92  Fn1
 BYTE   W96
//  #06 //217   ----------------------------------------
 BYTE   PATT
  POIN2 Label_01006D41
//  #06 //218   ----------------------------------------
 BYTE   TIE  An1  v092
 BYTE   W96
//  #06 //219   ----------------------------------------
 BYTE   W92
 BYTE   W03
 BYTE   EOT
 BYTE   W01
//  #06 //220   ----------------------------------------
 BYTE   TIE  Gn1
 BYTE   W96
//  #06 //221   ----------------------------------------
 BYTE   W92
 BYTE   W03
 BYTE   EOT
 BYTE   W01
//  #06 //222   ----------------------------------------
 BYTE   TIE  Fs1
 BYTE   W96
//  #06 //223   ----------------------------------------
 BYTE   W92
 BYTE   W03
 BYTE   EOT
 BYTE   W01
//  #06 //224   ----------------------------------------
 BYTE   TIE  Fn1
 BYTE   W96
//  #06 //225   ----------------------------------------
 BYTE   W92
 BYTE   W03
 BYTE   EOT
 BYTE   W01
//  #06 //226   ----------------------------------------
 BYTE   PATT
  POIN2 Label_01006CC2
//  #06 //227   ----------------------------------------
 BYTE   PATT
  POIN2 Label_01006CC2
//  #06 //228   ----------------------------------------
 BYTE   PATT
  POIN2 Label_01006CD2
//  #06 //229   ----------------------------------------
 BYTE   PATT
  POIN2 Label_01006CD2
//  #06 //230   ----------------------------------------
 BYTE   PATT
  POIN2 Label_01006CE2
//  #06 //231   ----------------------------------------
 BYTE   PATT
  POIN2 Label_01006CE2
//  #06 //232   ----------------------------------------
 BYTE   PATT
  POIN2 Label_01006CD2
//  #06 //233   ----------------------------------------
 BYTE   PATT
  POIN2 Label_01006CF7
//  #06 //234   ----------------------------------------
 BYTE   PATT
  POIN2 Label_01006CC2
//  #06 //235   ----------------------------------------
 BYTE   PATT
  POIN2 Label_01006CC2
//  #06 //236   ----------------------------------------
 BYTE   PATT
  POIN2 Label_01006CD2
//  #06 //237   ----------------------------------------
 BYTE   PATT
  POIN2 Label_01006CD2
//  #06 //238   ----------------------------------------
 BYTE   PATT
  POIN2 Label_01006CE2
//  #06 //239   ----------------------------------------
 BYTE   PATT
  POIN2 Label_01006CE2
//  #06 //240   ----------------------------------------
 BYTE   PATT
  POIN2 Label_01006CD2
//  #06 //241   ----------------------------------------
 BYTE   PATT
  POIN2 Label_01006CD2
//  #06 //242   ----------------------------------------
 BYTE   TIE  An1  v092
 BYTE   W96
//  #06 //243   ----------------------------------------
 BYTE   W92
 BYTE   W03
 BYTE   EOT
 BYTE   W01
//  #06 //244   ----------------------------------------
 BYTE   TIE  Gn1
 BYTE   W96
//  #06 //245   ----------------------------------------
 BYTE   W92
 BYTE   W03
 BYTE   EOT
 BYTE   W01
//  #06 //246   ----------------------------------------
 BYTE   TIE  Fs1
 BYTE   W96
//  #06 //247   ----------------------------------------
 BYTE   W92
 BYTE   W03
 BYTE   EOT
 BYTE   W01
//  #06 //248   ----------------------------------------
 BYTE   N92  Fn1
 BYTE   W96
//  #06 //249   ----------------------------------------
 BYTE   PATT
  POIN2 Label_01006D41
//  #06 //250   ----------------------------------------
 BYTE   TIE  An1  v092
 BYTE   W96
//  #06 //251   ----------------------------------------
 BYTE   W92
 BYTE   W03
 BYTE   EOT
 BYTE   W01
//  #06 //252   ----------------------------------------
 BYTE   TIE  Gn1
 BYTE   W96
//  #06 //253   ----------------------------------------
 BYTE   W92
 BYTE   W03
 BYTE   EOT
 BYTE   W01
//  #06 //254   ----------------------------------------
 BYTE   TIE  Fs1
 BYTE   W96
//  #06 //255   ----------------------------------------
 BYTE   W92
 BYTE   W03
 BYTE   EOT
 BYTE   W01
//  #06 //256   ----------------------------------------
 BYTE   TIE  Fn1
 BYTE   W96
//  #06 //257   ----------------------------------------
 BYTE   W92
 BYTE   W03
 BYTE   EOT
 BYTE   W01
//  #06 //258   ----------------------------------------
 BYTE   TIE  En0
 BYTE   W96
//  #06 //259   ----------------------------------------
 BYTE   W92
 BYTE   W03
 BYTE   EOT
 BYTE   W01
//  #06 //260   ----------------------------------------
 BYTE   TIE  Fn0
 BYTE   W96
//  #06 //261   ----------------------------------------
 BYTE   W92
 BYTE   W03
 BYTE   EOT
 BYTE   W01
//  #06 //262   ----------------------------------------
 BYTE   TIE  Gn0
 BYTE   W96
//  #06 //263   ----------------------------------------
 BYTE   W92
 BYTE   W03
 BYTE   EOT
 BYTE   W01
//  #06 //264   ----------------------------------------
 BYTE   TIE  Fn0
 BYTE   W96
//  #06 //265   ----------------------------------------
 BYTE   W92
 BYTE   W03
 BYTE   EOT
 BYTE   W01
//  #06 //266   ----------------------------------------
 BYTE   PATT
  POIN2 Label_01006CC2
//  #06 //267   ----------------------------------------
 BYTE   PATT
  POIN2 Label_01006CC2
//  #06 //268   ----------------------------------------
 BYTE   PATT
  POIN2 Label_01006CD2
//  #06 //269   ----------------------------------------
 BYTE   PATT
  POIN2 Label_01006CD2
//  #06 //270   ----------------------------------------
 BYTE   PATT
  POIN2 Label_01006E22
//  #06 //271   ----------------------------------------
 BYTE   PATT
  POIN2 Label_01006E22
//  #06 //272   ----------------------------------------
 BYTE   PATT
  POIN2 Label_01006CD2
//  #06 //273   ----------------------------------------
 BYTE   PATT
  POIN2 Label_01006CD2
//  #06 //274   ----------------------------------------
 BYTE   PATT
  POIN2 Label_01006C9A
//  #06 //275   ----------------------------------------
 BYTE   PATT
  POIN2 Label_01006C9A
//  #06 //276   ----------------------------------------
 BYTE   W96
//  #06 //277   ----------------------------------------
 BYTE   W96
//  #06 //278   ----------------------------------------
 BYTE   PATT
  POIN2 Label_01006C9A
//  #06 //279   ----------------------------------------
 BYTE   PATT
  POIN2 Label_01006C9A
//  #06 //280   ----------------------------------------
 BYTE   W96
//  #06 //281   ----------------------------------------
 BYTE   W96
//  #06 //282   ----------------------------------------
 BYTE   N92  En1  v092
 BYTE   W96
//  #06 //283   ----------------------------------------
 BYTE   Cn1
 BYTE   W96
//  #06 //284   ----------------------------------------
 BYTE   Dn1
 BYTE   W96
//  #06 //285   ----------------------------------------
 BYTE   Gn0
 BYTE   W96
//  #06 //286   ----------------------------------------
 BYTE   Cn1
 BYTE   W96
//  #06 //287   ----------------------------------------
 BYTE   Ds1
 BYTE   W96
//  #06 //288   ----------------------------------------
 BYTE   TIE  En1
 BYTE   W96
//  #06 //289   ----------------------------------------
 BYTE   W92
 BYTE   W03
 BYTE   EOT
 BYTE   W01
//  #06 //290   ----------------------------------------
 BYTE   PATT
  POIN2 Label_01006E69
//  #06 //291   ----------------------------------------
 BYTE   PATT
  POIN2 Label_01006E69
//  #06 //292   ----------------------------------------
 BYTE   PATT
  POIN2 Label_01006E69
//  #06 //293   ----------------------------------------
 BYTE   PATT
  POIN2 Label_01006E69
//  #06 //294   ----------------------------------------
 BYTE   PATT
  POIN2 Label_01006E8B
//  #06 //295   ----------------------------------------
 BYTE   PATT
  POIN2 Label_01006E9E
//  #06 //296   ----------------------------------------
 BYTE   PATT
  POIN2 Label_01006EB1
//  #06 //297   ----------------------------------------
 BYTE   PATT
  POIN2 Label_01006EC4
//  #06 //298   ----------------------------------------
 BYTE   PATT
  POIN2 Label_01006EB1
//  #06 //299   ----------------------------------------
 BYTE   PATT
  POIN2 Label_01006E8B
//  #06 //300   ----------------------------------------
 BYTE   PATT
  POIN2 Label_01006EE1
//  #06 //301   ----------------------------------------
 BYTE   PATT
  POIN2 Label_01006EF4
//  #06 //302   ----------------------------------------
 BYTE   PATT
  POIN2 Label_01006E8B
//  #06 //303   ----------------------------------------
 BYTE   PATT
  POIN2 Label_01006E9E
//  #06 //304   ----------------------------------------
 BYTE   PATT
  POIN2 Label_01006EB1
//  #06 //305   ----------------------------------------
 BYTE   PATT
  POIN2 Label_01006EB1
//  #06 //306   ----------------------------------------
 BYTE   PATT
  POIN2 Label_01006E69
//  #06 //307   ----------------------------------------
 BYTE   PATT
  POIN2 Label_01006E69
//  #06 //308   ----------------------------------------
 BYTE   PATT
  POIN2 Label_01006E69
//  #06 //309   ----------------------------------------
 BYTE   PATT
  POIN2 Label_01006E8B
//  #06 //310   ----------------------------------------
 BYTE   PATT
  POIN2 Label_01006EE1
//  #06 //311   ----------------------------------------
 BYTE   PATT
  POIN2 Label_01006E9E
//  #06 //312   ----------------------------------------
 BYTE   PATT
  POIN2 Label_01006EB1
//  #06 //313   ----------------------------------------
 BYTE   PATT
  POIN2 Label_01006EB1
//  #06 //314   ----------------------------------------
 BYTE   PATT
  POIN2 Label_01006EB1
//  #06 //315   ----------------------------------------
 BYTE   PATT
  POIN2 Label_01006E8B
//  #06 //316   ----------------------------------------
 BYTE   PATT
  POIN2 Label_01006EE1
//  #06 //317   ----------------------------------------
 BYTE   PATT
  POIN2 Label_01006EF4
//  #06 //318   ----------------------------------------
 BYTE   PATT
  POIN2 Label_01006E8B
//  #06 //319   ----------------------------------------
 BYTE   PATT
  POIN2 Label_01006E9E
//  #06 //320   ----------------------------------------
 BYTE   PATT
  POIN2 Label_01006EB1
//  #06 //321   ----------------------------------------
 BYTE   PATT
  POIN2 Label_01006EB1
//  #06 //322   ----------------------------------------
 BYTE   PATT
  POIN2 Label_01006E69
//  #06 //323   ----------------------------------------
 BYTE   PATT
  POIN2 Label_01006E69
//  #06 //324   ----------------------------------------
 BYTE   PATT
  POIN2 Label_01006E69
//  #06 //325   ----------------------------------------
 BYTE   PATT
  POIN2 Label_01006E8B
//  #06 //326   ----------------------------------------
 BYTE   PATT
  POIN2 Label_01006EE1
//  #06 //327   ----------------------------------------
 BYTE   PATT
  POIN2 Label_01006E9E
//  #06 //328   ----------------------------------------
 BYTE   PATT
  POIN2 Label_01006EB1
//  #06 //329   ----------------------------------------
 BYTE   PATT
  POIN2 Label_01006EB1
//  #06 //330   ----------------------------------------
 BYTE   GoTo
  POIN2 Label_01006BF8
//  #06 //331   ----------------------------------------
 BYTE   PATT
  POIN2 Label_01006C20
//  #06 //332   ----------------------------------------
 BYTE   PATT
  POIN2 Label_01006C20
//  #06 //333   ----------------------------------------
 BYTE   PATT
  POIN2 Label_01006C20
//  #06 //334   ----------------------------------------
 BYTE   PATT
  POIN2 Label_01006C20
//  #06 //335   ----------------------------------------
 BYTE   PATT
  POIN2 Label_01006C20
//  #06 //336   ----------------------------------------
 BYTE   PATT
  POIN2 Label_01006C20
//  #06 //337   ----------------------------------------
 BYTE   PATT
  POIN2 Label_01006C20
//  #06 //338   ----------------------------------------
 BYTE   PATT
  POIN2 Label_01006C51
//  #06 //339   ----------------------------------------
 BYTE   PATT
  POIN2 Label_01006C20
//  #06 //340   ----------------------------------------
 BYTE   PATT
  POIN2 Label_01006C20
//  #06 //341   ----------------------------------------
 BYTE   PATT
  POIN2 Label_01006C20
//  #06 //342   ----------------------------------------
 BYTE   PATT
  POIN2 Label_01006C20
//  #06 //343   ----------------------------------------
 BYTE   PATT
  POIN2 Label_01006C20
//  #06 //344   ----------------------------------------
 BYTE   PATT
  POIN2 Label_01006C20
//  #06 //345   ----------------------------------------
 BYTE   PATT
  POIN2 Label_01006C20
//  #06 //346   ----------------------------------------
 BYTE   PATT
  POIN2 Label_01006C87
//  #06 //347   ----------------------------------------
 BYTE   PATT
  POIN2 Label_01006C9A
//  #06 //348   ----------------------------------------
 BYTE   PATT
  POIN2 Label_01006C9A
 BYTE   FINE

//**************** Track 7 (Midi-Chn.6) ****************//

BloodstainedLineage_007:
//  #07 //000   ----------------------------------------
 BYTE   KEYSH   BloodstainedLineage_key+0
 BYTE   VOICE   30
 BYTE   PAN   c_v-24
 BYTE   VOL   60*BloodstainedLineage_mvl/mxv
 BYTE   W96
//  #07 //001   ----------------------------------------
 BYTE   W96
//  #07 //002   ----------------------------------------
 BYTE   W96
//  #07 //003   ----------------------------------------
 BYTE   W96
//  #07 //004   ----------------------------------------
 BYTE   W96
//  #07 //005   ----------------------------------------
 BYTE   W96
//  #07 //006   ----------------------------------------
 BYTE   W96
//  #07 //007   ----------------------------------------
 BYTE   W96
//  #07 //008   ----------------------------------------
 BYTE   W96
//  #07 //009   ----------------------------------------
 BYTE   W96
//  #07 //010   ----------------------------------------
Label_0100727A:
 BYTE   N11  En2  v092
 BYTE   W12
 BYTE   Bn2
 BYTE   W12
 BYTE   En2
 BYTE   W12
 BYTE   Bn2
 BYTE   W12
 BYTE   N11
 BYTE   W12
 BYTE   En2
 BYTE   W12
 BYTE   N44  An2
 BYTE   W24
 BYTE   PEND 
//  #07 //011   ----------------------------------------
Label_0100728C:
 BYTE   W24
 BYTE   N11  An2  v092
 BYTE   W12
 BYTE   N11
 BYTE   W12
 BYTE   N11
 BYTE   W12
 BYTE   N11
 BYTE   W12
 BYTE   N11
 BYTE   W12
 BYTE   N11
 BYTE   W12
 BYTE   PEND 
//  #07 //012   ----------------------------------------
Label_0100729C:
 BYTE   TIE  Fn2  v092
 BYTE   TIE  Cn3
 BYTE   W96
 BYTE   PEND 
//  #07 //013   ----------------------------------------
 BYTE   W92
 BYTE   W03
 BYTE   EOT
 BYTE   Fn2  v060
 BYTE   W01
//  #07 //014   ----------------------------------------
 BYTE   PATT
  POIN2 Label_0100727A
//  #07 //015   ----------------------------------------
 BYTE   PATT
  POIN2 Label_0100728C
//  #07 //016   ----------------------------------------
 BYTE   TIE  Fn2  v092
 BYTE   W96
//  #07 //017   ----------------------------------------
 BYTE   W92
 BYTE   W03
 BYTE   EOT
 BYTE   W01
//  #07 //018   ----------------------------------------
 BYTE   PATT
  POIN2 Label_0100727A
//  #07 //019   ----------------------------------------
 BYTE   PATT
  POIN2 Label_0100728C
//  #07 //020   ----------------------------------------
 BYTE   PATT
  POIN2 Label_0100729C
//  #07 //021   ----------------------------------------
 BYTE   W92
 BYTE   W03
 BYTE   EOT
 BYTE   Fn2  v060
 BYTE   W01
//  #07 //022   ----------------------------------------
Label_010072D0:
 BYTE   N23  En2  v092
 BYTE   W24
 BYTE   N11  En1
 BYTE   W12
 BYTE   N11
 BYTE   W12
 BYTE   Gn1
 BYTE   W12
 BYTE   An1
 BYTE   W12
 BYTE   Gn1
 BYTE   W12
 BYTE   An1
 BYTE   W12
 BYTE   PEND 
//  #07 //023   ----------------------------------------
Label_010072E2:
 BYTE   N23  Dn2  v092
 BYTE   W24
 BYTE   N11  En1
 BYTE   W12
 BYTE   N11
 BYTE   W12
 BYTE   N23  Dn2
 BYTE   W24
 BYTE   N11
 BYTE   W12
 BYTE   N11
 BYTE   W12
 BYTE   PEND 
//  #07 //024   ----------------------------------------
Label_010072F3:
 BYTE   N23  En2  v092
 BYTE   W24
 BYTE   N11  En1
 BYTE   W12
 BYTE   Gn1
 BYTE   W12
 BYTE   N23  An1
 BYTE   W24
 BYTE   N11
 BYTE   W12
 BYTE   N11
 BYTE   W12
 BYTE   PEND 
//  #07 //025   ----------------------------------------
Label_01007304:
 BYTE   N23  Gn1  v092
 BYTE   W24
 BYTE   N11
 BYTE   W12
 BYTE   An1
 BYTE   W12
 BYTE   N23  Dn2
 BYTE   W24
 BYTE   N23
 BYTE   W24
 BYTE   PEND 
//  #07 //026   ----------------------------------------
 BYTE   PATT
  POIN2 Label_010072D0
//  #07 //027   ----------------------------------------
 BYTE   PATT
  POIN2 Label_010072E2
//  #07 //028   ----------------------------------------
 BYTE   PATT
  POIN2 Label_010072F3
//  #07 //029   ----------------------------------------
Label_01007321:
 BYTE   N23  Gn2  v092
 BYTE   W24
 BYTE   N11  Gn1
 BYTE   W12
 BYTE   An1
 BYTE   W12
 BYTE   N23  Dn2
 BYTE   W24
 BYTE   N23
 BYTE   W24
 BYTE   PEND 
//  #07 //030   ----------------------------------------
 BYTE   PATT
  POIN2 Label_010072D0
//  #07 //031   ----------------------------------------
 BYTE   PATT
  POIN2 Label_010072E2
//  #07 //032   ----------------------------------------
 BYTE   PATT
  POIN2 Label_010072F3
//  #07 //033   ----------------------------------------
 BYTE   PATT
  POIN2 Label_01007304
//  #07 //034   ----------------------------------------
 BYTE   PATT
  POIN2 Label_010072D0
//  #07 //035   ----------------------------------------
 BYTE   PATT
  POIN2 Label_010072E2
//  #07 //036   ----------------------------------------
 BYTE   PATT
  POIN2 Label_010072F3
//  #07 //037   ----------------------------------------
 BYTE   PATT
  POIN2 Label_01007321
//  #07 //038   ----------------------------------------
 BYTE   PATT
  POIN2 Label_010072D0
//  #07 //039   ----------------------------------------
 BYTE   PATT
  POIN2 Label_010072E2
//  #07 //040   ----------------------------------------
 BYTE   PATT
  POIN2 Label_010072F3
//  #07 //041   ----------------------------------------
 BYTE   PATT
  POIN2 Label_01007304
//  #07 //042   ----------------------------------------
 BYTE   PATT
  POIN2 Label_010072D0
//  #07 //043   ----------------------------------------
 BYTE   PATT
  POIN2 Label_010072E2
//  #07 //044   ----------------------------------------
 BYTE   PATT
  POIN2 Label_010072F3
//  #07 //045   ----------------------------------------
 BYTE   PATT
  POIN2 Label_01007321
//  #07 //046   ----------------------------------------
 BYTE   W96
//  #07 //047   ----------------------------------------
 BYTE   W96
//  #07 //048   ----------------------------------------
 BYTE   W96
//  #07 //049   ----------------------------------------
 BYTE   W96
//  #07 //050   ----------------------------------------
 BYTE   W96
//  #07 //051   ----------------------------------------
 BYTE   W96
//  #07 //052   ----------------------------------------
 BYTE   W96
//  #07 //053   ----------------------------------------
 BYTE   W96
//  #07 //054   ----------------------------------------
 BYTE   W96
//  #07 //055   ----------------------------------------
 BYTE   W96
//  #07 //056   ----------------------------------------
 BYTE   W96
//  #07 //057   ----------------------------------------
 BYTE   W96
//  #07 //058   ----------------------------------------
 BYTE   W96
//  #07 //059   ----------------------------------------
 BYTE   W96
//  #07 //060   ----------------------------------------
 BYTE   W96
//  #07 //061   ----------------------------------------
 BYTE   W96
//  #07 //062   ----------------------------------------
 BYTE   W96
//  #07 //063   ----------------------------------------
 BYTE   W96
//  #07 //064   ----------------------------------------
 BYTE   W96
//  #07 //065   ----------------------------------------
 BYTE   W96
//  #07 //066   ----------------------------------------
 BYTE   W96
//  #07 //067   ----------------------------------------
 BYTE   W96
//  #07 //068   ----------------------------------------
 BYTE   W96
//  #07 //069   ----------------------------------------
 BYTE   W96
//  #07 //070   ----------------------------------------
 BYTE   W96
//  #07 //071   ----------------------------------------
 BYTE   W96
//  #07 //072   ----------------------------------------
 BYTE   W96
//  #07 //073   ----------------------------------------
 BYTE   W96
//  #07 //074   ----------------------------------------
 BYTE   W96
//  #07 //075   ----------------------------------------
 BYTE   W96
//  #07 //076   ----------------------------------------
 BYTE   W96
//  #07 //077   ----------------------------------------
 BYTE   W96
//  #07 //078   ----------------------------------------
 BYTE   W96
//  #07 //079   ----------------------------------------
 BYTE   W96
//  #07 //080   ----------------------------------------
 BYTE   W96
//  #07 //081   ----------------------------------------
 BYTE   W96
//  #07 //082   ----------------------------------------
 BYTE   W96
//  #07 //083   ----------------------------------------
 BYTE   W96
//  #07 //084   ----------------------------------------
 BYTE   W96
//  #07 //085   ----------------------------------------
 BYTE   W96
//  #07 //086   ----------------------------------------
 BYTE   W96
//  #07 //087   ----------------------------------------
 BYTE   W96
//  #07 //088   ----------------------------------------
 BYTE   W96
//  #07 //089   ----------------------------------------
 BYTE   W96
//  #07 //090   ----------------------------------------
 BYTE   W96
//  #07 //091   ----------------------------------------
 BYTE   W96
//  #07 //092   ----------------------------------------
 BYTE   W96
//  #07 //093   ----------------------------------------
 BYTE   W96
//  #07 //094   ----------------------------------------
 BYTE   W96
//  #07 //095   ----------------------------------------
 BYTE   W96
//  #07 //096   ----------------------------------------
 BYTE   W96
//  #07 //097   ----------------------------------------
 BYTE   W96
//  #07 //098   ----------------------------------------
 BYTE   W96
//  #07 //099   ----------------------------------------
 BYTE   W96
//  #07 //100   ----------------------------------------
 BYTE   W96
//  #07 //101   ----------------------------------------
 BYTE   W96
//  #07 //102   ----------------------------------------
 BYTE   W96
//  #07 //103   ----------------------------------------
 BYTE   W96
//  #07 //104   ----------------------------------------
 BYTE   W96
//  #07 //105   ----------------------------------------
 BYTE   W96
//  #07 //106   ----------------------------------------
 BYTE   W96
//  #07 //107   ----------------------------------------
 BYTE   W96
//  #07 //108   ----------------------------------------
 BYTE   W96
//  #07 //109   ----------------------------------------
 BYTE   W96
//  #07 //110   ----------------------------------------
 BYTE   W96
//  #07 //111   ----------------------------------------
 BYTE   W96
//  #07 //112   ----------------------------------------
 BYTE   W96
//  #07 //113   ----------------------------------------
 BYTE   W96
//  #07 //114   ----------------------------------------
 BYTE   W96
//  #07 //115   ----------------------------------------
 BYTE   W96
//  #07 //116   ----------------------------------------
 BYTE   W96
//  #07 //117   ----------------------------------------
 BYTE   W96
//  #07 //118   ----------------------------------------
 BYTE   W96
//  #07 //119   ----------------------------------------
 BYTE   W96
//  #07 //120   ----------------------------------------
 BYTE   W96
//  #07 //121   ----------------------------------------
 BYTE   W96
//  #07 //122   ----------------------------------------
 BYTE   W96
//  #07 //123   ----------------------------------------
 BYTE   W96
//  #07 //124   ----------------------------------------
 BYTE   W96
//  #07 //125   ----------------------------------------
 BYTE   W96
//  #07 //126   ----------------------------------------
 BYTE   W96
//  #07 //127   ----------------------------------------
 BYTE   W96
//  #07 //128   ----------------------------------------
 BYTE   W96
//  #07 //129   ----------------------------------------
 BYTE   W96
//  #07 //130   ----------------------------------------
 BYTE   W96
//  #07 //131   ----------------------------------------
 BYTE   W96
//  #07 //132   ----------------------------------------
 BYTE   W96
//  #07 //133   ----------------------------------------
 BYTE   W96
//  #07 //134   ----------------------------------------
 BYTE   W96
//  #07 //135   ----------------------------------------
 BYTE   W96
//  #07 //136   ----------------------------------------
 BYTE   W96
//  #07 //137   ----------------------------------------
 BYTE   W96
//  #07 //138   ----------------------------------------
 BYTE   W96
//  #07 //139   ----------------------------------------
 BYTE   W96
//  #07 //140   ----------------------------------------
 BYTE   W96
//  #07 //141   ----------------------------------------
 BYTE   W96
//  #07 //142   ----------------------------------------
 BYTE   W96
//  #07 //143   ----------------------------------------
 BYTE   W96
//  #07 //144   ----------------------------------------
 BYTE   W96
//  #07 //145   ----------------------------------------
 BYTE   W96
//  #07 //146   ----------------------------------------
 BYTE   W96
//  #07 //147   ----------------------------------------
 BYTE   W96
//  #07 //148   ----------------------------------------
 BYTE   W96
//  #07 //149   ----------------------------------------
 BYTE   W96
//  #07 //150   ----------------------------------------
 BYTE   W96
//  #07 //151   ----------------------------------------
 BYTE   W96
//  #07 //152   ----------------------------------------
 BYTE   W96
//  #07 //153   ----------------------------------------
 BYTE   W96
//  #07 //154   ----------------------------------------
 BYTE   W96
//  #07 //155   ----------------------------------------
 BYTE   W96
//  #07 //156   ----------------------------------------
 BYTE   W96
//  #07 //157   ----------------------------------------
 BYTE   W96
//  #07 //158   ----------------------------------------
 BYTE   W96
//  #07 //159   ----------------------------------------
 BYTE   W96
//  #07 //160   ----------------------------------------
 BYTE   W96
//  #07 //161   ----------------------------------------
 BYTE   W96
//  #07 //162   ----------------------------------------
 BYTE   W96
//  #07 //163   ----------------------------------------
 BYTE   W96
//  #07 //164   ----------------------------------------
 BYTE   W96
//  #07 //165   ----------------------------------------
 BYTE   W96
//  #07 //166   ----------------------------------------
 BYTE   W96
//  #07 //167   ----------------------------------------
 BYTE   W96
//  #07 //168   ----------------------------------------
 BYTE   W96
//  #07 //169   ----------------------------------------
 BYTE   W96
//  #07 //170   ----------------------------------------
 BYTE   W96
//  #07 //171   ----------------------------------------
 BYTE   W96
//  #07 //172   ----------------------------------------
 BYTE   PATT
  POIN2 Label_010072D0
//  #07 //173   ----------------------------------------
 BYTE   PATT
  POIN2 Label_010072E2
//  #07 //174   ----------------------------------------
 BYTE   PATT
  POIN2 Label_010072F3
//  #07 //175   ----------------------------------------
 BYTE   PATT
  POIN2 Label_01007304
//  #07 //176   ----------------------------------------
 BYTE   PATT
  POIN2 Label_010072D0
//  #07 //177   ----------------------------------------
 BYTE   PATT
  POIN2 Label_010072E2
//  #07 //178   ----------------------------------------
 BYTE   PATT
  POIN2 Label_010072F3
//  #07 //179   ----------------------------------------
 BYTE   PATT
  POIN2 Label_01007321
//  #07 //180   ----------------------------------------
 BYTE   PATT
  POIN2 Label_010072D0
//  #07 //181   ----------------------------------------
 BYTE   PATT
  POIN2 Label_010072E2
//  #07 //182   ----------------------------------------
 BYTE   PATT
  POIN2 Label_010072F3
//  #07 //183   ----------------------------------------
 BYTE   PATT
  POIN2 Label_01007304
//  #07 //184   ----------------------------------------
 BYTE   PATT
  POIN2 Label_010072D0
//  #07 //185   ----------------------------------------
 BYTE   PATT
  POIN2 Label_010072E2
//  #07 //186   ----------------------------------------
 BYTE   PATT
  POIN2 Label_010072F3
//  #07 //187   ----------------------------------------
 BYTE   PATT
  POIN2 Label_01007321
//  #07 //188   ----------------------------------------
 BYTE   W96
//  #07 //189   ----------------------------------------
 BYTE   W96
//  #07 //190   ----------------------------------------
 BYTE   W96
//  #07 //191   ----------------------------------------
 BYTE   W96
//  #07 //192   ----------------------------------------
 BYTE   W96
//  #07 //193   ----------------------------------------
 BYTE   W96
//  #07 //194   ----------------------------------------
 BYTE   W96
//  #07 //195   ----------------------------------------
 BYTE   W96
//  #07 //196   ----------------------------------------
 BYTE   W96
//  #07 //197   ----------------------------------------
 BYTE   W96
//  #07 //198   ----------------------------------------
 BYTE   W96
//  #07 //199   ----------------------------------------
 BYTE   W96
//  #07 //200   ----------------------------------------
 BYTE   W96
//  #07 //201   ----------------------------------------
 BYTE   W96
//  #07 //202   ----------------------------------------
 BYTE   W96
//  #07 //203   ----------------------------------------
 BYTE   W96
//  #07 //204   ----------------------------------------
 BYTE   W96
//  #07 //205   ----------------------------------------
 BYTE   W96
//  #07 //206   ----------------------------------------
 BYTE   W96
//  #07 //207   ----------------------------------------
 BYTE   W96
//  #07 //208   ----------------------------------------
 BYTE   W96
//  #07 //209   ----------------------------------------
 BYTE   W96
//  #07 //210   ----------------------------------------
 BYTE   W96
//  #07 //211   ----------------------------------------
 BYTE   W96
//  #07 //212   ----------------------------------------
 BYTE   W96
//  #07 //213   ----------------------------------------
 BYTE   W96
//  #07 //214   ----------------------------------------
 BYTE   W96
//  #07 //215   ----------------------------------------
 BYTE   W96
//  #07 //216   ----------------------------------------
 BYTE   W96
//  #07 //217   ----------------------------------------
 BYTE   W96
//  #07 //218   ----------------------------------------
 BYTE   W96
//  #07 //219   ----------------------------------------
 BYTE   W96
//  #07 //220   ----------------------------------------
 BYTE   W96
//  #07 //221   ----------------------------------------
 BYTE   W96
//  #07 //222   ----------------------------------------
 BYTE   W96
//  #07 //223   ----------------------------------------
 BYTE   W96
//  #07 //224   ----------------------------------------
 BYTE   W96
//  #07 //225   ----------------------------------------
 BYTE   W96
//  #07 //226   ----------------------------------------
 BYTE   W96
//  #07 //227   ----------------------------------------
 BYTE   W96
//  #07 //228   ----------------------------------------
 BYTE   W96
//  #07 //229   ----------------------------------------
 BYTE   W96
//  #07 //230   ----------------------------------------
 BYTE   W96
//  #07 //231   ----------------------------------------
 BYTE   W96
//  #07 //232   ----------------------------------------
 BYTE   W96
//  #07 //233   ----------------------------------------
 BYTE   W96
//  #07 //234   ----------------------------------------
 BYTE   W96
//  #07 //235   ----------------------------------------
 BYTE   W96
//  #07 //236   ----------------------------------------
 BYTE   W96
//  #07 //237   ----------------------------------------
 BYTE   W96
//  #07 //238   ----------------------------------------
 BYTE   W96
//  #07 //239   ----------------------------------------
 BYTE   W96
//  #07 //240   ----------------------------------------
 BYTE   W96
//  #07 //241   ----------------------------------------
 BYTE   W96
//  #07 //242   ----------------------------------------
 BYTE   W96
//  #07 //243   ----------------------------------------
 BYTE   W96
//  #07 //244   ----------------------------------------
 BYTE   W96
//  #07 //245   ----------------------------------------
 BYTE   W96
//  #07 //246   ----------------------------------------
 BYTE   W96
//  #07 //247   ----------------------------------------
 BYTE   W96
//  #07 //248   ----------------------------------------
 BYTE   W96
//  #07 //249   ----------------------------------------
 BYTE   W96
//  #07 //250   ----------------------------------------
 BYTE   W96
//  #07 //251   ----------------------------------------
 BYTE   W96
//  #07 //252   ----------------------------------------
 BYTE   W96
//  #07 //253   ----------------------------------------
 BYTE   W96
//  #07 //254   ----------------------------------------
 BYTE   W96
//  #07 //255   ----------------------------------------
 BYTE   W96
//  #07 //256   ----------------------------------------
 BYTE   W96
//  #07 //257   ----------------------------------------
 BYTE   W96
//  #07 //258   ----------------------------------------
 BYTE   W96
//  #07 //259   ----------------------------------------
 BYTE   W96
//  #07 //260   ----------------------------------------
 BYTE   W96
//  #07 //261   ----------------------------------------
 BYTE   W96
//  #07 //262   ----------------------------------------
 BYTE   W96
//  #07 //263   ----------------------------------------
 BYTE   W96
//  #07 //264   ----------------------------------------
 BYTE   W96
//  #07 //265   ----------------------------------------
 BYTE   W96
//  #07 //266   ----------------------------------------
 BYTE   W96
//  #07 //267   ----------------------------------------
 BYTE   W96
//  #07 //268   ----------------------------------------
 BYTE   W96
//  #07 //269   ----------------------------------------
 BYTE   W96
//  #07 //270   ----------------------------------------
 BYTE   W96
//  #07 //271   ----------------------------------------
 BYTE   W96
//  #07 //272   ----------------------------------------
 BYTE   W96
//  #07 //273   ----------------------------------------
 BYTE   W96
//  #07 //274   ----------------------------------------
 BYTE   W96
//  #07 //275   ----------------------------------------
 BYTE   W96
//  #07 //276   ----------------------------------------
 BYTE   W96
//  #07 //277   ----------------------------------------
 BYTE   W96
//  #07 //278   ----------------------------------------
 BYTE   W96
//  #07 //279   ----------------------------------------
 BYTE   W96
//  #07 //280   ----------------------------------------
 BYTE   W96
//  #07 //281   ----------------------------------------
 BYTE   W96
//  #07 //282   ----------------------------------------
 BYTE   W96
//  #07 //283   ----------------------------------------
 BYTE   W96
//  #07 //284   ----------------------------------------
 BYTE   W96
//  #07 //285   ----------------------------------------
 BYTE   W96
//  #07 //286   ----------------------------------------
 BYTE   W96
//  #07 //287   ----------------------------------------
 BYTE   W96
//  #07 //288   ----------------------------------------
 BYTE   W96
//  #07 //289   ----------------------------------------
 BYTE   W96
//  #07 //290   ----------------------------------------
 BYTE   W96
//  #07 //291   ----------------------------------------
 BYTE   W96
//  #07 //292   ----------------------------------------
 BYTE   W96
//  #07 //293   ----------------------------------------
 BYTE   W96
//  #07 //294   ----------------------------------------
 BYTE   W96
//  #07 //295   ----------------------------------------
 BYTE   W96
//  #07 //296   ----------------------------------------
 BYTE   W96
//  #07 //297   ----------------------------------------
 BYTE   W96
//  #07 //298   ----------------------------------------
 BYTE   W96
//  #07 //299   ----------------------------------------
 BYTE   W96
//  #07 //300   ----------------------------------------
 BYTE   W96
//  #07 //301   ----------------------------------------
 BYTE   W96
//  #07 //302   ----------------------------------------
 BYTE   W96
//  #07 //303   ----------------------------------------
 BYTE   W96
//  #07 //304   ----------------------------------------
 BYTE   W96
//  #07 //305   ----------------------------------------
 BYTE   W96
//  #07 //306   ----------------------------------------
 BYTE   W96
//  #07 //307   ----------------------------------------
 BYTE   W96
//  #07 //308   ----------------------------------------
 BYTE   W96
//  #07 //309   ----------------------------------------
 BYTE   W96
//  #07 //310   ----------------------------------------
 BYTE   W96
//  #07 //311   ----------------------------------------
 BYTE   W96
//  #07 //312   ----------------------------------------
 BYTE   W96
//  #07 //313   ----------------------------------------
 BYTE   W96
//  #07 //314   ----------------------------------------
 BYTE   W96
//  #07 //315   ----------------------------------------
 BYTE   W96
//  #07 //316   ----------------------------------------
 BYTE   W96
//  #07 //317   ----------------------------------------
 BYTE   W96
//  #07 //318   ----------------------------------------
 BYTE   W96
//  #07 //319   ----------------------------------------
 BYTE   W96
//  #07 //320   ----------------------------------------
 BYTE   W96
//  #07 //321   ----------------------------------------
 BYTE   W96
//  #07 //322   ----------------------------------------
 BYTE   W96
//  #07 //323   ----------------------------------------
 BYTE   W96
//  #07 //324   ----------------------------------------
 BYTE   W96
//  #07 //325   ----------------------------------------
 BYTE   W96
//  #07 //326   ----------------------------------------
 BYTE   W96
//  #07 //327   ----------------------------------------
 BYTE   W96
//  #07 //328   ----------------------------------------
 BYTE   W96
//  #07 //329   ----------------------------------------
 BYTE   W96
//  #07 //330   ----------------------------------------
 BYTE   GoTo
  POIN2 Label_010072D0
//  #07 //331   ----------------------------------------
 BYTE   PATT
  POIN2 Label_010072D0
//  #07 //332   ----------------------------------------
 BYTE   PATT
  POIN2 Label_010072E2
//  #07 //333   ----------------------------------------
 BYTE   PATT
  POIN2 Label_010072F3
//  #07 //334   ----------------------------------------
 BYTE   PATT
  POIN2 Label_01007304
//  #07 //335   ----------------------------------------
 BYTE   PATT
  POIN2 Label_010072D0
//  #07 //336   ----------------------------------------
 BYTE   PATT
  POIN2 Label_010072E2
//  #07 //337   ----------------------------------------
 BYTE   PATT
  POIN2 Label_010072F3
//  #07 //338   ----------------------------------------
 BYTE   PATT
  POIN2 Label_01007321
//  #07 //339   ----------------------------------------
 BYTE   PATT
  POIN2 Label_010072D0
//  #07 //340   ----------------------------------------
 BYTE   PATT
  POIN2 Label_010072E2
//  #07 //341   ----------------------------------------
 BYTE   PATT
  POIN2 Label_010072F3
//  #07 //342   ----------------------------------------
 BYTE   PATT
  POIN2 Label_01007304
//  #07 //343   ----------------------------------------
 BYTE   PATT
  POIN2 Label_010072D0
//  #07 //344   ----------------------------------------
 BYTE   PATT
  POIN2 Label_010072E2
//  #07 //345   ----------------------------------------
 BYTE   PATT
  POIN2 Label_010072F3
//  #07 //346   ----------------------------------------
 BYTE   PATT
  POIN2 Label_01007321
//  #07 //347   ----------------------------------------
 BYTE   W96
//  #07 //348   ----------------------------------------
 BYTE   W96
 BYTE   FINE

//**************** Track 8 (Midi-Chn.7) ****************//

BloodstainedLineage_008:
//  #08 //000   ----------------------------------------
 BYTE   KEYSH   BloodstainedLineage_key+0
 BYTE   VOICE   30
 BYTE   PAN   c_v+16
 BYTE   VOL   50*BloodstainedLineage_mvl/mxv
 BYTE   W96
//  #08 //001   ----------------------------------------
 BYTE   W96
//  #08 //002   ----------------------------------------
 BYTE   W96
//  #08 //003   ----------------------------------------
 BYTE   W96
//  #08 //004   ----------------------------------------
 BYTE   W96
//  #08 //005   ----------------------------------------
 BYTE   W96
//  #08 //006   ----------------------------------------
 BYTE   W96
//  #08 //007   ----------------------------------------
 BYTE   W96
//  #08 //008   ----------------------------------------
 BYTE   W96
//  #08 //009   ----------------------------------------
 BYTE   W96
//  #08 //010   ----------------------------------------
 BYTE   W96
//  #08 //011   ----------------------------------------
 BYTE   W96
//  #08 //012   ----------------------------------------
 BYTE   W96
//  #08 //013   ----------------------------------------
 BYTE   W96
//  #08 //014   ----------------------------------------
 BYTE   W96
//  #08 //015   ----------------------------------------
 BYTE   W96
//  #08 //016   ----------------------------------------
 BYTE   W96
//  #08 //017   ----------------------------------------
 BYTE   W96
//  #08 //018   ----------------------------------------
 BYTE   W96
//  #08 //019   ----------------------------------------
 BYTE   W96
//  #08 //020   ----------------------------------------
 BYTE   W96
//  #08 //021   ----------------------------------------
 BYTE   W96
//  #08 //022   ----------------------------------------
Label_01007562:
 BYTE   W96
//  #08 //023   ----------------------------------------
 BYTE   W96
//  #08 //024   ----------------------------------------
 BYTE   W96
//  #08 //025   ----------------------------------------
 BYTE   W96
//  #08 //026   ----------------------------------------
 BYTE   W96
//  #08 //027   ----------------------------------------
 BYTE   W96
//  #08 //028   ----------------------------------------
 BYTE   W96
//  #08 //029   ----------------------------------------
 BYTE   W96
//  #08 //030   ----------------------------------------
Label_0100756A:
 BYTE   N23  En3  v092
 BYTE   W24
 BYTE   N11  En2
 BYTE   W12
 BYTE   N11
 BYTE   W12
 BYTE   Gn2
 BYTE   W12
 BYTE   An2
 BYTE   W12
 BYTE   Gn2
 BYTE   W12
 BYTE   An2
 BYTE   W12
 BYTE   PEND 
//  #08 //031   ----------------------------------------
Label_0100757C:
 BYTE   N23  Dn3  v092
 BYTE   W24
 BYTE   N11  En2
 BYTE   W12
 BYTE   N11
 BYTE   W12
 BYTE   N23  Dn3
 BYTE   W24
 BYTE   N11
 BYTE   W12
 BYTE   N11
 BYTE   W12
 BYTE   PEND 
//  #08 //032   ----------------------------------------
Label_0100758D:
 BYTE   N23  En3  v092
 BYTE   W24
 BYTE   N11  En2
 BYTE   W12
 BYTE   Gn2
 BYTE   W12
 BYTE   N23  An2
 BYTE   W24
 BYTE   N11
 BYTE   W12
 BYTE   N11
 BYTE   W12
 BYTE   PEND 
//  #08 //033   ----------------------------------------
Label_0100759E:
 BYTE   N23  Gn2  v092
 BYTE   W24
 BYTE   N11
 BYTE   W12
 BYTE   An2
 BYTE   W12
 BYTE   N23  Dn3
 BYTE   W24
 BYTE   N23
 BYTE   W24
 BYTE   PEND 
//  #08 //034   ----------------------------------------
 BYTE   PATT
  POIN2 Label_0100756A
//  #08 //035   ----------------------------------------
 BYTE   PATT
  POIN2 Label_0100757C
//  #08 //036   ----------------------------------------
 BYTE   PATT
  POIN2 Label_0100758D
//  #08 //037   ----------------------------------------
Label_010075BB:
 BYTE   N23  Gn3  v092
 BYTE   W24
 BYTE   N11  Gn2
 BYTE   W12
 BYTE   An2
 BYTE   W12
 BYTE   N23  Dn3
 BYTE   W24
 BYTE   N23
 BYTE   W24
 BYTE   PEND 
//  #08 //038   ----------------------------------------
 BYTE   PATT
  POIN2 Label_0100756A
//  #08 //039   ----------------------------------------
 BYTE   PATT
  POIN2 Label_0100757C
//  #08 //040   ----------------------------------------
 BYTE   PATT
  POIN2 Label_0100758D
//  #08 //041   ----------------------------------------
 BYTE   PATT
  POIN2 Label_0100759E
//  #08 //042   ----------------------------------------
 BYTE   PATT
  POIN2 Label_0100756A
//  #08 //043   ----------------------------------------
 BYTE   PATT
  POIN2 Label_0100757C
//  #08 //044   ----------------------------------------
 BYTE   PATT
  POIN2 Label_0100758D
//  #08 //045   ----------------------------------------
 BYTE   PATT
  POIN2 Label_010075BB
//  #08 //046   ----------------------------------------
Label_010075F2:
 BYTE   PAN   c_v-24
 BYTE   N23  En2  v092
 BYTE   N23  Bn2
 BYTE   W24
 BYTE   N11  En1
 BYTE   N11  Bn1
 BYTE   W12
 BYTE   N23  En2
 BYTE   N23  Bn2
 BYTE   W24
 BYTE   En2
 BYTE   N23  Bn2
 BYTE   W24
 BYTE   N11  En1
 BYTE   N11  Bn1
 BYTE   W12
 BYTE   PEND 
//  #08 //047   ----------------------------------------
Label_0100760E:
 BYTE   N23  En2  v092
 BYTE   N23  Bn2
 BYTE   W24
 BYTE   N11  En1
 BYTE   N11  Bn1
 BYTE   W12
 BYTE   N23  En2
 BYTE   N23  Bn2
 BYTE   W24
 BYTE   En2
 BYTE   N23  Bn2
 BYTE   W24
 BYTE   N11  En1
 BYTE   N11  Bn1
 BYTE   W12
 BYTE   PEND 
//  #08 //048   ----------------------------------------
Label_01007628:
 BYTE   PAN   c_v+16
 BYTE   N23  Dn2  v092
 BYTE   N23  Dn3
 BYTE   W24
 BYTE   N11  Dn1
 BYTE   W12
 BYTE   N23  Dn2
 BYTE   N23  Dn3
 BYTE   W24
 BYTE   Dn2
 BYTE   N23  Dn3
 BYTE   W24
 BYTE   N11  Dn1
 BYTE   W12
 BYTE   PEND 
//  #08 //049   ----------------------------------------
Label_01007640:
 BYTE   N23  Dn2  v092
 BYTE   N23  Dn3
 BYTE   W24
 BYTE   N11  Dn1
 BYTE   W12
 BYTE   N23  Dn2
 BYTE   N23  Dn3
 BYTE   W24
 BYTE   Dn2
 BYTE   N23  Dn3
 BYTE   W24
 BYTE   N11  Dn1
 BYTE   W12
 BYTE   PEND 
//  #08 //050   ----------------------------------------
Label_01007656:
 BYTE   PAN   c_v-19
 BYTE   N32  En2  v092
 BYTE   W36
 BYTE   As1
 BYTE   W36
 BYTE   N23  En1
 BYTE   W24
 BYTE   PEND 
//  #08 //051   ----------------------------------------
Label_01007662:
 BYTE   N32  Bn1  v092
 BYTE   W36
 BYTE   As1
 BYTE   W36
 BYTE   N23  An1
 BYTE   W24
 BYTE   PEND 
//  #08 //052   ----------------------------------------
Label_0100766C:
 BYTE   VOL   44*BloodstainedLineage_mvl/mxv
 BYTE   N23  En2  v092
 BYTE   N23  En3
 BYTE   W24
 BYTE   En2
 BYTE   W24
 BYTE   N23
 BYTE   W24
 BYTE   En1
 BYTE   W24
 BYTE   PEND 
//  #08 //053   ----------------------------------------
Label_0100767B:
 BYTE   N23  En2  v092
 BYTE   W24
 BYTE   En1
 BYTE   W24
 BYTE   Dn2
 BYTE   W24
 BYTE   En2
 BYTE   W24
 BYTE   PEND 
//  #08 //054   ----------------------------------------
Label_01007686:
 BYTE   N23  Fn2  v092
 BYTE   W24
 BYTE   N23
 BYTE   W24
 BYTE   N23
 BYTE   W24
 BYTE   Fn1
 BYTE   W24
 BYTE   PEND 
//  #08 //055   ----------------------------------------
Label_01007691:
 BYTE   N23  Fn2  v092
 BYTE   W24
 BYTE   Fn1
 BYTE   W24
 BYTE   Dn2
 BYTE   W24
 BYTE   Fn2
 BYTE   W24
 BYTE   PEND 
//  #08 //056   ----------------------------------------
Label_0100769C:
 BYTE   N23  Fs2  v092
 BYTE   W24
 BYTE   N23
 BYTE   W24
 BYTE   N23
 BYTE   W24
 BYTE   Fs1
 BYTE   W24
 BYTE   PEND 
//  #08 //057   ----------------------------------------
Label_010076A7:
 BYTE   N23  Fs2  v092
 BYTE   W24
 BYTE   Fs1
 BYTE   W24
 BYTE   En2
 BYTE   W24
 BYTE   Fs2
 BYTE   W24
 BYTE   PEND 
//  #08 //058   ----------------------------------------
 BYTE   PATT
  POIN2 Label_01007686
//  #08 //059   ----------------------------------------
Label_010076B7:
 BYTE   N32  Dn1  v092
 BYTE   N32  Dn2
 BYTE   W36
 BYTE   Dn1
 BYTE   N32  Dn2
 BYTE   W36
 BYTE   N23  Dn1
 BYTE   N23  Dn2
 BYTE   W24
 BYTE   PEND 
//  #08 //060   ----------------------------------------
 BYTE   PATT
  POIN2 Label_0100766C
//  #08 //061   ----------------------------------------
 BYTE   PATT
  POIN2 Label_0100767B
//  #08 //062   ----------------------------------------
 BYTE   PATT
  POIN2 Label_01007686
//  #08 //063   ----------------------------------------
 BYTE   PATT
  POIN2 Label_01007691
//  #08 //064   ----------------------------------------
 BYTE   PATT
  POIN2 Label_0100769C
//  #08 //065   ----------------------------------------
 BYTE   PATT
  POIN2 Label_010076A7
//  #08 //066   ----------------------------------------
 BYTE   PATT
  POIN2 Label_01007686
//  #08 //067   ----------------------------------------
 BYTE   PATT
  POIN2 Label_01007691
//  #08 //068   ----------------------------------------
Label_010076EF:
 BYTE   VOL   50*BloodstainedLineage_mvl/mxv
 BYTE   TIE  En2  v092
 BYTE   TIE  An2
 BYTE   W96
 BYTE   PEND 
//  #08 //069   ----------------------------------------
 BYTE   W92
 BYTE   W03
 BYTE   EOT
 BYTE   En2  v057
 BYTE   W01
//  #08 //070   ----------------------------------------
Label_010076FE:
 BYTE   TIE  Dn2  v092
 BYTE   TIE  An2
 BYTE   W96
 BYTE   PEND 
//  #08 //071   ----------------------------------------
 BYTE   W92
 BYTE   W03
 BYTE   EOT
 BYTE   Dn2  v057
 BYTE   W01
//  #08 //072   ----------------------------------------
Label_0100770B:
 BYTE   TIE  Bn1  v092
 BYTE   TIE  Fs2
 BYTE   W96
 BYTE   PEND 
//  #08 //073   ----------------------------------------
 BYTE   W92
 BYTE   W03
 BYTE   EOT
 BYTE   Bn1  v054
 BYTE   W01
//  #08 //074   ----------------------------------------
 BYTE   N92  An1
 BYTE   N92  Fn2
 BYTE   W96
//  #08 //075   ----------------------------------------
Label_0100771D:
 BYTE   N32  Bn1  v092
 BYTE   W36
 BYTE   Gn1
 BYTE   W36
 BYTE   N23  Fn1
 BYTE   W24
 BYTE   PEND 
//  #08 //076   ----------------------------------------
 BYTE   PATT
  POIN2 Label_010076EF
//  #08 //077   ----------------------------------------
 BYTE   W92
 BYTE   W03
 BYTE   EOT
 BYTE   En2  v057
 BYTE   W01
//  #08 //078   ----------------------------------------
 BYTE   PATT
  POIN2 Label_010076FE
//  #08 //079   ----------------------------------------
 BYTE   W92
 BYTE   W03
 BYTE   EOT
 BYTE   Dn2  v057
 BYTE   W01
//  #08 //080   ----------------------------------------
 BYTE   PATT
  POIN2 Label_0100770B
//  #08 //081   ----------------------------------------
 BYTE   W92
 BYTE   W03
 BYTE   EOT
 BYTE   Bn1  v054
 BYTE   W01
//  #08 //082   ----------------------------------------
Label_01007748:
 BYTE   TIE  An1  v092
 BYTE   TIE  Fn2
 BYTE   W96
 BYTE   PEND 
//  #08 //083   ----------------------------------------
 BYTE   W92
 BYTE   W03
 BYTE   EOT
 BYTE   An1  v053
 BYTE   W01
//  #08 //084   ----------------------------------------
 BYTE   PATT
  POIN2 Label_0100766C
//  #08 //085   ----------------------------------------
 BYTE   PATT
  POIN2 Label_0100767B
//  #08 //086   ----------------------------------------
 BYTE   PATT
  POIN2 Label_01007686
//  #08 //087   ----------------------------------------
 BYTE   PATT
  POIN2 Label_01007691
//  #08 //088   ----------------------------------------
 BYTE   PATT
  POIN2 Label_0100769C
//  #08 //089   ----------------------------------------
 BYTE   PATT
  POIN2 Label_010076A7
//  #08 //090   ----------------------------------------
 BYTE   PATT
  POIN2 Label_01007686
//  #08 //091   ----------------------------------------
 BYTE   PATT
  POIN2 Label_010076B7
//  #08 //092   ----------------------------------------
 BYTE   PATT
  POIN2 Label_0100766C
//  #08 //093   ----------------------------------------
 BYTE   PATT
  POIN2 Label_0100767B
//  #08 //094   ----------------------------------------
 BYTE   PATT
  POIN2 Label_01007686
//  #08 //095   ----------------------------------------
 BYTE   PATT
  POIN2 Label_01007691
//  #08 //096   ----------------------------------------
 BYTE   PATT
  POIN2 Label_0100769C
//  #08 //097   ----------------------------------------
 BYTE   PATT
  POIN2 Label_010076A7
//  #08 //098   ----------------------------------------
 BYTE   PATT
  POIN2 Label_01007686
//  #08 //099   ----------------------------------------
 BYTE   PATT
  POIN2 Label_01007691
//  #08 //100   ----------------------------------------
 BYTE   PATT
  POIN2 Label_010076EF
//  #08 //101   ----------------------------------------
 BYTE   W92
 BYTE   W03
 BYTE   EOT
 BYTE   En2  v057
 BYTE   W01
//  #08 //102   ----------------------------------------
 BYTE   PATT
  POIN2 Label_010076FE
//  #08 //103   ----------------------------------------
 BYTE   W92
 BYTE   W03
 BYTE   EOT
 BYTE   Dn2  v057
 BYTE   W01
//  #08 //104   ----------------------------------------
 BYTE   PATT
  POIN2 Label_0100770B
//  #08 //105   ----------------------------------------
 BYTE   W92
 BYTE   W03
 BYTE   EOT
 BYTE   Bn1  v054
 BYTE   W01
//  #08 //106   ----------------------------------------
 BYTE   N92  An1  v092
 BYTE   N92  Fn2
 BYTE   W96
//  #08 //107   ----------------------------------------
 BYTE   PATT
  POIN2 Label_0100771D
//  #08 //108   ----------------------------------------
 BYTE   PATT
  POIN2 Label_010076EF
//  #08 //109   ----------------------------------------
 BYTE   W92
 BYTE   W03
 BYTE   EOT
 BYTE   En2  v057
 BYTE   W01
//  #08 //110   ----------------------------------------
 BYTE   PATT
  POIN2 Label_010076FE
//  #08 //111   ----------------------------------------
 BYTE   W92
 BYTE   W03
 BYTE   EOT
 BYTE   Dn2  v057
 BYTE   W01
//  #08 //112   ----------------------------------------
 BYTE   PATT
  POIN2 Label_0100770B
//  #08 //113   ----------------------------------------
 BYTE   W92
 BYTE   W03
 BYTE   EOT
 BYTE   Bn1  v054
 BYTE   W01
//  #08 //114   ----------------------------------------
 BYTE   PATT
  POIN2 Label_01007748
//  #08 //115   ----------------------------------------
 BYTE   W92
 BYTE   W03
 BYTE   EOT
 BYTE   An1  v053
 BYTE   W01
//  #08 //116   ----------------------------------------
Label_010077FD:
 BYTE   TIE  En1  v092
 BYTE   TIE  En2
 BYTE   W96
 BYTE   PEND 
//  #08 //117   ----------------------------------------
 BYTE   W92
 BYTE   W03
 BYTE   EOT
 BYTE   En1  v052
 BYTE   W01
//  #08 //118   ----------------------------------------
Label_0100780A:
 BYTE   TIE  Fn1  v092
 BYTE   TIE  Fn2
 BYTE   W96
 BYTE   PEND 
//  #08 //119   ----------------------------------------
 BYTE   W92
 BYTE   W03
 BYTE   EOT
 BYTE   Fn1  v053
 BYTE   W01
//  #08 //120   ----------------------------------------
Label_01007817:
 BYTE   TIE  Gn1  v092
 BYTE   TIE  Gn2
 BYTE   W96
 BYTE   PEND 
//  #08 //121   ----------------------------------------
 BYTE   W92
 BYTE   W03
 BYTE   EOT
 BYTE   Gn1  v055
 BYTE   W01
//  #08 //122   ----------------------------------------
 BYTE   PATT
  POIN2 Label_0100780A
//  #08 //123   ----------------------------------------
 BYTE   W92
 BYTE   W03
 BYTE   EOT
 BYTE   Fn1  v053
 BYTE   W01
//  #08 //124   ----------------------------------------
Label_0100782F:
 BYTE   N11  En2  v092
 BYTE   W12
 BYTE   En1  v076
 BYTE   N11  En2
 BYTE   W12
 BYTE   En2  v092
 BYTE   W12
 BYTE   En1  v076
 BYTE   N11  En2
 BYTE   W12
 BYTE   En2  v092
 BYTE   W12
 BYTE   En1  v076
 BYTE   N11  En2
 BYTE   W12
 BYTE   En2  v092
 BYTE   W12
 BYTE   En1  v076
 BYTE   N11  En2
 BYTE   W12
 BYTE   PEND 
//  #08 //125   ----------------------------------------
 BYTE   PATT
  POIN2 Label_0100782F
//  #08 //126   ----------------------------------------
Label_01007856:
 BYTE   N11  Fn2  v092
 BYTE   W12
 BYTE   Fn1  v076
 BYTE   N11  Fn2
 BYTE   W12
 BYTE   Fn2  v092
 BYTE   W12
 BYTE   Fn1  v076
 BYTE   N11  Fn2
 BYTE   W12
 BYTE   Fn2  v092
 BYTE   W12
 BYTE   Fn1  v076
 BYTE   N11  Fn2
 BYTE   W12
 BYTE   Fn2  v092
 BYTE   W12
 BYTE   Fn1  v076
 BYTE   N11  Fn2
 BYTE   W12
 BYTE   PEND 
//  #08 //127   ----------------------------------------
 BYTE   PATT
  POIN2 Label_01007856
//  #08 //128   ----------------------------------------
Label_0100787D:
 BYTE   N11  Gn2  v092
 BYTE   W12
 BYTE   Gn1  v076
 BYTE   N11  Gn2
 BYTE   W12
 BYTE   Gn2  v092
 BYTE   W12
 BYTE   Gn1  v076
 BYTE   N11  Gn2
 BYTE   W12
 BYTE   Gn2  v092
 BYTE   W12
 BYTE   Gn1  v076
 BYTE   N11  Gn2
 BYTE   W12
 BYTE   Gn2  v092
 BYTE   W12
 BYTE   Gn1  v076
 BYTE   N11  Gn2
 BYTE   W12
 BYTE   PEND 
//  #08 //129   ----------------------------------------
 BYTE   PATT
  POIN2 Label_0100787D
//  #08 //130   ----------------------------------------
 BYTE   PATT
  POIN2 Label_01007856
//  #08 //131   ----------------------------------------
 BYTE   PATT
  POIN2 Label_01007856
//  #08 //132   ----------------------------------------
 BYTE   PATT
  POIN2 Label_010075F2
//  #08 //133   ----------------------------------------
 BYTE   PATT
  POIN2 Label_0100760E
//  #08 //134   ----------------------------------------
 BYTE   PATT
  POIN2 Label_01007628
//  #08 //135   ----------------------------------------
 BYTE   PATT
  POIN2 Label_01007640
//  #08 //136   ----------------------------------------
 BYTE   PATT
  POIN2 Label_010075F2
//  #08 //137   ----------------------------------------
 BYTE   PATT
  POIN2 Label_0100760E
//  #08 //138   ----------------------------------------
 BYTE   PATT
  POIN2 Label_01007628
//  #08 //139   ----------------------------------------
 BYTE   PATT
  POIN2 Label_01007640
//  #08 //140   ----------------------------------------
Label_010078D6:
 BYTE   PAN   c_v-19
 BYTE   N92  En2  v092
 BYTE   W96
 BYTE   PEND 
//  #08 //141   ----------------------------------------
 BYTE   Cn2
 BYTE   W96
//  #08 //142   ----------------------------------------
 BYTE   Dn2
 BYTE   W96
//  #08 //143   ----------------------------------------
 BYTE   Gn1
 BYTE   W96
//  #08 //144   ----------------------------------------
 BYTE   Cn2
 BYTE   W96
//  #08 //145   ----------------------------------------
 BYTE   Ds2
 BYTE   W96
//  #08 //146   ----------------------------------------
 BYTE   TIE  En2
 BYTE   W96
//  #08 //147   ----------------------------------------
 BYTE   W92
 BYTE   W03
 BYTE   EOT
 BYTE   W01
//  #08 //148   ----------------------------------------
 BYTE   TIE  Bn1
 BYTE   W96
//  #08 //149   ----------------------------------------
 BYTE   W92
 BYTE   W03
 BYTE   EOT
 BYTE   W01
//  #08 //150   ----------------------------------------
 BYTE   TIE
 BYTE   W96
//  #08 //151   ----------------------------------------
 BYTE   W92
 BYTE   W03
 BYTE   EOT
 BYTE   W01
//  #08 //152   ----------------------------------------
 BYTE   N92  Cn2
 BYTE   W96
//  #08 //153   ----------------------------------------
 BYTE   Ds2
 BYTE   W96
//  #08 //154   ----------------------------------------
 BYTE   En2
 BYTE   W96
//  #08 //155   ----------------------------------------
 BYTE   Fs2
 BYTE   W96
//  #08 //156   ----------------------------------------
 BYTE   PATT
  POIN2 Label_010078D6
//  #08 //157   ----------------------------------------
 BYTE   N92  Cn2  v092
 BYTE   W96
//  #08 //158   ----------------------------------------
 BYTE   Dn2
 BYTE   W96
//  #08 //159   ----------------------------------------
 BYTE   Gn1
 BYTE   W96
//  #08 //160   ----------------------------------------
 BYTE   Cn2
 BYTE   W96
//  #08 //161   ----------------------------------------
 BYTE   Ds2
 BYTE   W96
//  #08 //162   ----------------------------------------
 BYTE   TIE  En2
 BYTE   W96
//  #08 //163   ----------------------------------------
 BYTE   W92
 BYTE   W03
 BYTE   EOT
 BYTE   W01
//  #08 //164   ----------------------------------------
 BYTE   TIE  Bn1
 BYTE   W96
//  #08 //165   ----------------------------------------
 BYTE   W96
//  #08 //166   ----------------------------------------
 BYTE   W92
 BYTE   W03
 BYTE   EOT
 BYTE   W01
//  #08 //167   ----------------------------------------
 BYTE   N92  Cn2
 BYTE   W96
//  #08 //168   ----------------------------------------
 BYTE   Dn2
 BYTE   W96
//  #08 //169   ----------------------------------------
 BYTE   Ds2
 BYTE   W96
//  #08 //170   ----------------------------------------
 BYTE   TIE  En2
 BYTE   W96
//  #08 //171   ----------------------------------------
 BYTE   W92
 BYTE   W03
 BYTE   EOT
 BYTE   W01
//  #08 //172   ----------------------------------------
 BYTE   PAN   c_v+16
 BYTE   N23  En3
 BYTE   W24
 BYTE   N11  En2
 BYTE   W12
 BYTE   N11
 BYTE   W12
 BYTE   Gn2
 BYTE   W12
 BYTE   An2
 BYTE   W12
 BYTE   Gn2
 BYTE   W12
 BYTE   An2
 BYTE   W12
//  #08 //173   ----------------------------------------
 BYTE   PATT
  POIN2 Label_0100757C
//  #08 //174   ----------------------------------------
 BYTE   PATT
  POIN2 Label_0100758D
//  #08 //175   ----------------------------------------
 BYTE   PATT
  POIN2 Label_0100759E
//  #08 //176   ----------------------------------------
 BYTE   PATT
  POIN2 Label_0100756A
//  #08 //177   ----------------------------------------
 BYTE   PATT
  POIN2 Label_0100757C
//  #08 //178   ----------------------------------------
 BYTE   PATT
  POIN2 Label_0100758D
//  #08 //179   ----------------------------------------
 BYTE   PATT
  POIN2 Label_010075BB
//  #08 //180   ----------------------------------------
 BYTE   PATT
  POIN2 Label_0100756A
//  #08 //181   ----------------------------------------
 BYTE   PATT
  POIN2 Label_0100757C
//  #08 //182   ----------------------------------------
 BYTE   PATT
  POIN2 Label_0100758D
//  #08 //183   ----------------------------------------
 BYTE   PATT
  POIN2 Label_0100759E
//  #08 //184   ----------------------------------------
 BYTE   PATT
  POIN2 Label_0100756A
//  #08 //185   ----------------------------------------
 BYTE   PATT
  POIN2 Label_0100757C
//  #08 //186   ----------------------------------------
 BYTE   PATT
  POIN2 Label_0100758D
//  #08 //187   ----------------------------------------
 BYTE   PATT
  POIN2 Label_010075BB
//  #08 //188   ----------------------------------------
 BYTE   PATT
  POIN2 Label_010075F2
//  #08 //189   ----------------------------------------
 BYTE   PATT
  POIN2 Label_0100760E
//  #08 //190   ----------------------------------------
 BYTE   PATT
  POIN2 Label_01007628
//  #08 //191   ----------------------------------------
 BYTE   PATT
  POIN2 Label_01007640
//  #08 //192   ----------------------------------------
 BYTE   PATT
  POIN2 Label_01007656
//  #08 //193   ----------------------------------------
 BYTE   PATT
  POIN2 Label_01007662
//  #08 //194   ----------------------------------------
 BYTE   PATT
  POIN2 Label_0100766C
//  #08 //195   ----------------------------------------
 BYTE   PATT
  POIN2 Label_0100767B
//  #08 //196   ----------------------------------------
 BYTE   PATT
  POIN2 Label_01007686
//  #08 //197   ----------------------------------------
 BYTE   PATT
  POIN2 Label_01007691
//  #08 //198   ----------------------------------------
 BYTE   PATT
  POIN2 Label_0100769C
//  #08 //199   ----------------------------------------
 BYTE   PATT
  POIN2 Label_010076A7
//  #08 //200   ----------------------------------------
 BYTE   PATT
  POIN2 Label_01007686
//  #08 //201   ----------------------------------------
 BYTE   PATT
  POIN2 Label_010076B7
//  #08 //202   ----------------------------------------
 BYTE   PATT
  POIN2 Label_0100766C
//  #08 //203   ----------------------------------------
 BYTE   PATT
  POIN2 Label_0100767B
//  #08 //204   ----------------------------------------
 BYTE   PATT
  POIN2 Label_01007686
//  #08 //205   ----------------------------------------
 BYTE   PATT
  POIN2 Label_01007691
//  #08 //206   ----------------------------------------
 BYTE   PATT
  POIN2 Label_0100769C
//  #08 //207   ----------------------------------------
 BYTE   PATT
  POIN2 Label_010076A7
//  #08 //208   ----------------------------------------
 BYTE   PATT
  POIN2 Label_01007686
//  #08 //209   ----------------------------------------
 BYTE   PATT
  POIN2 Label_01007691
//  #08 //210   ----------------------------------------
 BYTE   PATT
  POIN2 Label_010076EF
//  #08 //211   ----------------------------------------
 BYTE   W92
 BYTE   W03
 BYTE   EOT
 BYTE   En2  v057
 BYTE   W01
//  #08 //212   ----------------------------------------
 BYTE   PATT
  POIN2 Label_010076FE
//  #08 //213   ----------------------------------------
 BYTE   W92
 BYTE   W03
 BYTE   EOT
 BYTE   Dn2  v057
 BYTE   W01
//  #08 //214   ----------------------------------------
 BYTE   PATT
  POIN2 Label_0100770B
//  #08 //215   ----------------------------------------
 BYTE   W92
 BYTE   W03
 BYTE   EOT
 BYTE   Bn1  v054
 BYTE   W01
//  #08 //216   ----------------------------------------
 BYTE   N92  An1  v092
 BYTE   N92  Fn2
 BYTE   W96
//  #08 //217   ----------------------------------------
 BYTE   PATT
  POIN2 Label_0100771D
//  #08 //218   ----------------------------------------
 BYTE   PATT
  POIN2 Label_010076EF
//  #08 //219   ----------------------------------------
 BYTE   W92
 BYTE   W03
 BYTE   EOT
 BYTE   En2  v057
 BYTE   W01
//  #08 //220   ----------------------------------------
 BYTE   PATT
  POIN2 Label_010076FE
//  #08 //221   ----------------------------------------
 BYTE   W92
 BYTE   W03
 BYTE   EOT
 BYTE   Dn2  v057
 BYTE   W01
//  #08 //222   ----------------------------------------
 BYTE   PATT
  POIN2 Label_0100770B
//  #08 //223   ----------------------------------------
 BYTE   W92
 BYTE   W03
 BYTE   EOT
 BYTE   Bn1  v054
 BYTE   W01
//  #08 //224   ----------------------------------------
 BYTE   PATT
  POIN2 Label_01007748
//  #08 //225   ----------------------------------------
 BYTE   W92
 BYTE   W03
 BYTE   EOT
 BYTE   An1  v053
 BYTE   W01
//  #08 //226   ----------------------------------------
 BYTE   PATT
  POIN2 Label_0100766C
//  #08 //227   ----------------------------------------
 BYTE   PATT
  POIN2 Label_0100767B
//  #08 //228   ----------------------------------------
 BYTE   PATT
  POIN2 Label_01007686
//  #08 //229   ----------------------------------------
 BYTE   PATT
  POIN2 Label_01007691
//  #08 //230   ----------------------------------------
 BYTE   PATT
  POIN2 Label_0100769C
//  #08 //231   ----------------------------------------
 BYTE   PATT
  POIN2 Label_010076A7
//  #08 //232   ----------------------------------------
 BYTE   PATT
  POIN2 Label_01007686
//  #08 //233   ----------------------------------------
 BYTE   PATT
  POIN2 Label_010076B7
//  #08 //234   ----------------------------------------
 BYTE   PATT
  POIN2 Label_0100766C
//  #08 //235   ----------------------------------------
 BYTE   PATT
  POIN2 Label_0100767B
//  #08 //236   ----------------------------------------
 BYTE   PATT
  POIN2 Label_01007686
//  #08 //237   ----------------------------------------
 BYTE   PATT
  POIN2 Label_01007691
//  #08 //238   ----------------------------------------
 BYTE   PATT
  POIN2 Label_0100769C
//  #08 //239   ----------------------------------------
 BYTE   PATT
  POIN2 Label_010076A7
//  #08 //240   ----------------------------------------
 BYTE   PATT
  POIN2 Label_01007686
//  #08 //241   ----------------------------------------
 BYTE   PATT
  POIN2 Label_01007691
//  #08 //242   ----------------------------------------
 BYTE   PATT
  POIN2 Label_010076EF
//  #08 //243   ----------------------------------------
 BYTE   W92
 BYTE   W03
 BYTE   EOT
 BYTE   En2  v057
 BYTE   W01
//  #08 //244   ----------------------------------------
 BYTE   PATT
  POIN2 Label_010076FE
//  #08 //245   ----------------------------------------
 BYTE   W92
 BYTE   W03
 BYTE   EOT
 BYTE   Dn2  v057
 BYTE   W01
//  #08 //246   ----------------------------------------
 BYTE   PATT
  POIN2 Label_0100770B
//  #08 //247   ----------------------------------------
 BYTE   W92
 BYTE   W03
 BYTE   EOT
 BYTE   Bn1  v054
 BYTE   W01
//  #08 //248   ----------------------------------------
 BYTE   N92  An1  v092
 BYTE   N92  Fn2
 BYTE   W96
//  #08 //249   ----------------------------------------
 BYTE   PATT
  POIN2 Label_0100771D
//  #08 //250   ----------------------------------------
 BYTE   PATT
  POIN2 Label_010076EF
//  #08 //251   ----------------------------------------
 BYTE   W92
 BYTE   W03
 BYTE   EOT
 BYTE   En2  v057
 BYTE   W01
//  #08 //252   ----------------------------------------
 BYTE   PATT
  POIN2 Label_010076FE
//  #08 //253   ----------------------------------------
 BYTE   W92
 BYTE   W03
 BYTE   EOT
 BYTE   Dn2  v057
 BYTE   W01
//  #08 //254   ----------------------------------------
 BYTE   PATT
  POIN2 Label_0100770B
//  #08 //255   ----------------------------------------
 BYTE   W92
 BYTE   W03
 BYTE   EOT
 BYTE   Bn1  v054
 BYTE   W01
//  #08 //256   ----------------------------------------
 BYTE   PATT
  POIN2 Label_01007748
//  #08 //257   ----------------------------------------
 BYTE   W92
 BYTE   W03
 BYTE   EOT
 BYTE   An1  v053
 BYTE   W01
//  #08 //258   ----------------------------------------
 BYTE   PATT
  POIN2 Label_010077FD
//  #08 //259   ----------------------------------------
 BYTE   W92
 BYTE   W03
 BYTE   EOT
 BYTE   En1  v052
 BYTE   W01
//  #08 //260   ----------------------------------------
 BYTE   PATT
  POIN2 Label_0100780A
//  #08 //261   ----------------------------------------
 BYTE   W92
 BYTE   W03
 BYTE   EOT
 BYTE   Fn1  v053
 BYTE   W01
//  #08 //262   ----------------------------------------
 BYTE   PATT
  POIN2 Label_01007817
//  #08 //263   ----------------------------------------
 BYTE   W92
 BYTE   W03
 BYTE   EOT
 BYTE   Gn1  v055
 BYTE   W01
//  #08 //264   ----------------------------------------
 BYTE   PATT
  POIN2 Label_0100780A
//  #08 //265   ----------------------------------------
 BYTE   W92
 BYTE   W03
 BYTE   EOT
 BYTE   Fn1  v053
 BYTE   W01
//  #08 //266   ----------------------------------------
 BYTE   PATT
  POIN2 Label_0100782F
//  #08 //267   ----------------------------------------
 BYTE   PATT
  POIN2 Label_0100782F
//  #08 //268   ----------------------------------------
 BYTE   PATT
  POIN2 Label_01007856
//  #08 //269   ----------------------------------------
 BYTE   PATT
  POIN2 Label_01007856
//  #08 //270   ----------------------------------------
 BYTE   PATT
  POIN2 Label_0100787D
//  #08 //271   ----------------------------------------
 BYTE   PATT
  POIN2 Label_0100787D
//  #08 //272   ----------------------------------------
 BYTE   PATT
  POIN2 Label_01007856
//  #08 //273   ----------------------------------------
 BYTE   PATT
  POIN2 Label_01007856
//  #08 //274   ----------------------------------------
 BYTE   PATT
  POIN2 Label_010075F2
//  #08 //275   ----------------------------------------
 BYTE   PATT
  POIN2 Label_0100760E
//  #08 //276   ----------------------------------------
 BYTE   PATT
  POIN2 Label_01007628
//  #08 //277   ----------------------------------------
 BYTE   PATT
  POIN2 Label_01007640
//  #08 //278   ----------------------------------------
 BYTE   PATT
  POIN2 Label_010075F2
//  #08 //279   ----------------------------------------
 BYTE   PATT
  POIN2 Label_0100760E
//  #08 //280   ----------------------------------------
 BYTE   PATT
  POIN2 Label_01007628
//  #08 //281   ----------------------------------------
 BYTE   PATT
  POIN2 Label_01007640
//  #08 //282   ----------------------------------------
 BYTE   PATT
  POIN2 Label_010078D6
//  #08 //283   ----------------------------------------
 BYTE   N92  Cn2  v092
 BYTE   W96
//  #08 //284   ----------------------------------------
 BYTE   Dn2
 BYTE   W96
//  #08 //285   ----------------------------------------
 BYTE   Gn1
 BYTE   W96
//  #08 //286   ----------------------------------------
 BYTE   Cn2
 BYTE   W96
//  #08 //287   ----------------------------------------
 BYTE   Ds2
 BYTE   W96
//  #08 //288   ----------------------------------------
 BYTE   TIE  En2
 BYTE   W96
//  #08 //289   ----------------------------------------
 BYTE   W92
 BYTE   W03
 BYTE   EOT
 BYTE   W01
//  #08 //290   ----------------------------------------
 BYTE   TIE  Bn1
 BYTE   W96
//  #08 //291   ----------------------------------------
 BYTE   W92
 BYTE   W03
 BYTE   EOT
 BYTE   W01
//  #08 //292   ----------------------------------------
 BYTE   TIE
 BYTE   W96
//  #08 //293   ----------------------------------------
 BYTE   W92
 BYTE   W03
 BYTE   EOT
 BYTE   W01
//  #08 //294   ----------------------------------------
 BYTE   N92  Cn2
 BYTE   W96
//  #08 //295   ----------------------------------------
 BYTE   Ds2
 BYTE   W96
//  #08 //296   ----------------------------------------
 BYTE   En2
 BYTE   W96
//  #08 //297   ----------------------------------------
 BYTE   Fs2
 BYTE   W96
//  #08 //298   ----------------------------------------
 BYTE   PATT
  POIN2 Label_010078D6
//  #08 //299   ----------------------------------------
 BYTE   N92  Cn2  v092
 BYTE   W96
//  #08 //300   ----------------------------------------
 BYTE   Dn2
 BYTE   W96
//  #08 //301   ----------------------------------------
 BYTE   Gn1
 BYTE   W96
//  #08 //302   ----------------------------------------
 BYTE   Cn2
 BYTE   W96
//  #08 //303   ----------------------------------------
 BYTE   Ds2
 BYTE   W96
//  #08 //304   ----------------------------------------
 BYTE   TIE  En2
 BYTE   W96
//  #08 //305   ----------------------------------------
 BYTE   W92
 BYTE   W03
 BYTE   EOT
 BYTE   W01
//  #08 //306   ----------------------------------------
 BYTE   TIE  Bn1
 BYTE   W96
//  #08 //307   ----------------------------------------
 BYTE   W96
//  #08 //308   ----------------------------------------
 BYTE   W92
 BYTE   W03
 BYTE   EOT
 BYTE   W01
//  #08 //309   ----------------------------------------
 BYTE   N92  Cn2
 BYTE   W96
//  #08 //310   ----------------------------------------
 BYTE   Dn2
 BYTE   W96
//  #08 //311   ----------------------------------------
 BYTE   Ds2
 BYTE   W96
//  #08 //312   ----------------------------------------
 BYTE   TIE  En2
 BYTE   W96
//  #08 //313   ----------------------------------------
 BYTE   W92
 BYTE   W03
 BYTE   EOT
 BYTE   W01
//  #08 //314   ----------------------------------------
 BYTE   PATT
  POIN2 Label_010078D6
//  #08 //315   ----------------------------------------
 BYTE   N92  Cn2  v092
 BYTE   W96
//  #08 //316   ----------------------------------------
 BYTE   Dn2
 BYTE   W96
//  #08 //317   ----------------------------------------
 BYTE   Gn1
 BYTE   W96
//  #08 //318   ----------------------------------------
 BYTE   Cn2
 BYTE   W96
//  #08 //319   ----------------------------------------
 BYTE   Ds2
 BYTE   W96
//  #08 //320   ----------------------------------------
 BYTE   TIE  En2
 BYTE   W96
//  #08 //321   ----------------------------------------
 BYTE   W92
 BYTE   W03
 BYTE   EOT
 BYTE   W01
//  #08 //322   ----------------------------------------
 BYTE   TIE  Bn1
 BYTE   W96
//  #08 //323   ----------------------------------------
 BYTE   W96
//  #08 //324   ----------------------------------------
 BYTE   W92
 BYTE   W03
 BYTE   EOT
 BYTE   W01
//  #08 //325   ----------------------------------------
 BYTE   N92  Cn2
 BYTE   W96
//  #08 //326   ----------------------------------------
 BYTE   Dn2
 BYTE   W96
//  #08 //327   ----------------------------------------
 BYTE   Ds2
 BYTE   W96
//  #08 //328   ----------------------------------------
 BYTE   TIE  En2
 BYTE   W96
//  #08 //329   ----------------------------------------
 BYTE   W92
 BYTE   W03
 BYTE   EOT
 BYTE   W01
//  #08 //330   ----------------------------------------
 BYTE   GoTo
  POIN2 Label_01007562
//  #08 //331   ----------------------------------------
 BYTE   PATT
  POIN2 Label_0100756A
//  #08 //332   ----------------------------------------
 BYTE   PATT
  POIN2 Label_0100757C
//  #08 //333   ----------------------------------------
 BYTE   PAN   c_v+16
 BYTE   N23  En3  v092
 BYTE   W24
 BYTE   N11  En2
 BYTE   W12
 BYTE   Gn2
 BYTE   W12
 BYTE   N23  An2
 BYTE   W24
 BYTE   N11
 BYTE   W12
 BYTE   N11
 BYTE   W12
//  #08 //334   ----------------------------------------
 BYTE   PATT
  POIN2 Label_0100759E
//  #08 //335   ----------------------------------------
 BYTE   PATT
  POIN2 Label_0100756A
//  #08 //336   ----------------------------------------
 BYTE   PATT
  POIN2 Label_0100757C
//  #08 //337   ----------------------------------------
 BYTE   PATT
  POIN2 Label_0100758D
//  #08 //338   ----------------------------------------
 BYTE   PATT
  POIN2 Label_010075BB
//  #08 //339   ----------------------------------------
 BYTE   PATT
  POIN2 Label_0100756A
//  #08 //340   ----------------------------------------
 BYTE   PATT
  POIN2 Label_0100757C
//  #08 //341   ----------------------------------------
 BYTE   PATT
  POIN2 Label_0100758D
//  #08 //342   ----------------------------------------
 BYTE   PATT
  POIN2 Label_0100759E
//  #08 //343   ----------------------------------------
 BYTE   PATT
  POIN2 Label_0100756A
//  #08 //344   ----------------------------------------
 BYTE   PATT
  POIN2 Label_0100757C
//  #08 //345   ----------------------------------------
 BYTE   PATT
  POIN2 Label_0100758D
//  #08 //346   ----------------------------------------
 BYTE   PATT
  POIN2 Label_010075BB
//  #08 //347   ----------------------------------------
 BYTE   PATT
  POIN2 Label_010075F2
//  #08 //348   ----------------------------------------
 BYTE   PATT
  POIN2 Label_0100760E
 BYTE   FINE

//**************** Track 9 (Midi-Chn.8) ****************//

BloodstainedLineage_009:
//  #09 //000   ----------------------------------------
 BYTE   KEYSH   BloodstainedLineage_key+0
 BYTE   VOICE   36
 BYTE   PAN   c_v+6
 BYTE   VOL   50*BloodstainedLineage_mvl/mxv
 BYTE   W96
//  #09 //001   ----------------------------------------
 BYTE   W96
//  #09 //002   ----------------------------------------
 BYTE   W96
//  #09 //003   ----------------------------------------
 BYTE   W96
//  #09 //004   ----------------------------------------
 BYTE   W96
//  #09 //005   ----------------------------------------
 BYTE   W96
//  #09 //006   ----------------------------------------
 BYTE   W96
//  #09 //007   ----------------------------------------
 BYTE   W96
//  #09 //008   ----------------------------------------
 BYTE   W96
//  #09 //009   ----------------------------------------
 BYTE   W96
//  #09 //010   ----------------------------------------
Label_01007C92:
 BYTE   N11  En1  v092
 BYTE   W12
 BYTE   Bn1
 BYTE   W12
 BYTE   En1
 BYTE   W12
 BYTE   Bn1
 BYTE   W12
 BYTE   N11
 BYTE   W12
 BYTE   En1
 BYTE   W12
 BYTE   N44  An1
 BYTE   W24
 BYTE   PEND 
//  #09 //011   ----------------------------------------
Label_01007CA4:
 BYTE   W24
 BYTE   N11  An1  v092
 BYTE   W12
 BYTE   N11
 BYTE   W12
 BYTE   N11
 BYTE   W12
 BYTE   N11
 BYTE   W12
 BYTE   N11
 BYTE   W12
 BYTE   N11
 BYTE   W12
 BYTE   PEND 
//  #09 //012   ----------------------------------------
 BYTE   TIE  Cn2
 BYTE   W96
//  #09 //013   ----------------------------------------
 BYTE   W92
 BYTE   W03
 BYTE   EOT
 BYTE   W01
//  #09 //014   ----------------------------------------
 BYTE   PATT
  POIN2 Label_01007C92
//  #09 //015   ----------------------------------------
 BYTE   PATT
  POIN2 Label_01007CA4
//  #09 //016   ----------------------------------------
 BYTE   TIE  Cn2  v092
 BYTE   W96
//  #09 //017   ----------------------------------------
 BYTE   W92
 BYTE   W03
 BYTE   EOT
 BYTE   W01
//  #09 //018   ----------------------------------------
 BYTE   PATT
  POIN2 Label_01007C92
//  #09 //019   ----------------------------------------
 BYTE   PATT
  POIN2 Label_01007CA4
//  #09 //020   ----------------------------------------
 BYTE   TIE  Cn2  v092
 BYTE   W96
//  #09 //021   ----------------------------------------
 BYTE   W92
 BYTE   W03
 BYTE   EOT
 BYTE   W01
//  #09 //022   ----------------------------------------
Label_01007CDF:
 BYTE   W96
//  #09 //023   ----------------------------------------
 BYTE   W96
//  #09 //024   ----------------------------------------
 BYTE   W96
//  #09 //025   ----------------------------------------
 BYTE   W96
//  #09 //026   ----------------------------------------
 BYTE   W96
//  #09 //027   ----------------------------------------
 BYTE   W96
//  #09 //028   ----------------------------------------
 BYTE   W96
//  #09 //029   ----------------------------------------
 BYTE   W96
//  #09 //030   ----------------------------------------
 BYTE   W96
//  #09 //031   ----------------------------------------
 BYTE   W96
//  #09 //032   ----------------------------------------
 BYTE   W96
//  #09 //033   ----------------------------------------
 BYTE   W96
//  #09 //034   ----------------------------------------
 BYTE   W96
//  #09 //035   ----------------------------------------
 BYTE   W96
//  #09 //036   ----------------------------------------
 BYTE   W96
//  #09 //037   ----------------------------------------
 BYTE   W96
//  #09 //038   ----------------------------------------
 BYTE   W96
//  #09 //039   ----------------------------------------
 BYTE   W96
//  #09 //040   ----------------------------------------
 BYTE   W96
//  #09 //041   ----------------------------------------
 BYTE   W96
//  #09 //042   ----------------------------------------
 BYTE   W96
//  #09 //043   ----------------------------------------
 BYTE   W96
//  #09 //044   ----------------------------------------
 BYTE   W96
//  #09 //045   ----------------------------------------
 BYTE   W96
//  #09 //046   ----------------------------------------
 BYTE   W96
//  #09 //047   ----------------------------------------
 BYTE   W96
//  #09 //048   ----------------------------------------
 BYTE   W96
//  #09 //049   ----------------------------------------
 BYTE   W96
//  #09 //050   ----------------------------------------
 BYTE   W96
//  #09 //051   ----------------------------------------
 BYTE   W96
//  #09 //052   ----------------------------------------
 BYTE   W96
//  #09 //053   ----------------------------------------
 BYTE   W96
//  #09 //054   ----------------------------------------
 BYTE   W96
//  #09 //055   ----------------------------------------
 BYTE   W96
//  #09 //056   ----------------------------------------
 BYTE   W96
//  #09 //057   ----------------------------------------
 BYTE   W96
//  #09 //058   ----------------------------------------
 BYTE   W96
//  #09 //059   ----------------------------------------
 BYTE   W96
//  #09 //060   ----------------------------------------
 BYTE   W96
//  #09 //061   ----------------------------------------
 BYTE   W96
//  #09 //062   ----------------------------------------
 BYTE   W96
//  #09 //063   ----------------------------------------
 BYTE   W96
//  #09 //064   ----------------------------------------
 BYTE   W96
//  #09 //065   ----------------------------------------
 BYTE   W96
//  #09 //066   ----------------------------------------
 BYTE   W96
//  #09 //067   ----------------------------------------
 BYTE   W96
//  #09 //068   ----------------------------------------
 BYTE   W96
//  #09 //069   ----------------------------------------
 BYTE   W96
//  #09 //070   ----------------------------------------
 BYTE   W96
//  #09 //071   ----------------------------------------
 BYTE   W96
//  #09 //072   ----------------------------------------
 BYTE   W96
//  #09 //073   ----------------------------------------
 BYTE   W96
//  #09 //074   ----------------------------------------
 BYTE   W96
//  #09 //075   ----------------------------------------
 BYTE   W96
//  #09 //076   ----------------------------------------
 BYTE   W96
//  #09 //077   ----------------------------------------
 BYTE   W96
//  #09 //078   ----------------------------------------
 BYTE   W96
//  #09 //079   ----------------------------------------
 BYTE   W96
//  #09 //080   ----------------------------------------
 BYTE   W96
//  #09 //081   ----------------------------------------
 BYTE   W96
//  #09 //082   ----------------------------------------
 BYTE   W96
//  #09 //083   ----------------------------------------
 BYTE   W96
//  #09 //084   ----------------------------------------
 BYTE   W96
//  #09 //085   ----------------------------------------
 BYTE   W96
//  #09 //086   ----------------------------------------
 BYTE   W96
//  #09 //087   ----------------------------------------
 BYTE   W96
//  #09 //088   ----------------------------------------
 BYTE   W96
//  #09 //089   ----------------------------------------
 BYTE   W96
//  #09 //090   ----------------------------------------
 BYTE   W96
//  #09 //091   ----------------------------------------
 BYTE   W96
//  #09 //092   ----------------------------------------
 BYTE   W96
//  #09 //093   ----------------------------------------
 BYTE   W96
//  #09 //094   ----------------------------------------
 BYTE   W96
//  #09 //095   ----------------------------------------
 BYTE   W96
//  #09 //096   ----------------------------------------
 BYTE   W96
//  #09 //097   ----------------------------------------
 BYTE   W96
//  #09 //098   ----------------------------------------
 BYTE   W96
//  #09 //099   ----------------------------------------
 BYTE   W96
//  #09 //100   ----------------------------------------
 BYTE   W96
//  #09 //101   ----------------------------------------
 BYTE   W96
//  #09 //102   ----------------------------------------
 BYTE   W96
//  #09 //103   ----------------------------------------
 BYTE   W96
//  #09 //104   ----------------------------------------
 BYTE   W96
//  #09 //105   ----------------------------------------
 BYTE   W96
//  #09 //106   ----------------------------------------
 BYTE   W96
//  #09 //107   ----------------------------------------
 BYTE   W96
//  #09 //108   ----------------------------------------
 BYTE   W96
//  #09 //109   ----------------------------------------
 BYTE   W96
//  #09 //110   ----------------------------------------
 BYTE   W96
//  #09 //111   ----------------------------------------
 BYTE   W96
//  #09 //112   ----------------------------------------
 BYTE   W96
//  #09 //113   ----------------------------------------
 BYTE   W96
//  #09 //114   ----------------------------------------
 BYTE   W96
//  #09 //115   ----------------------------------------
 BYTE   W96
//  #09 //116   ----------------------------------------
 BYTE   W96
//  #09 //117   ----------------------------------------
 BYTE   W96
//  #09 //118   ----------------------------------------
 BYTE   W96
//  #09 //119   ----------------------------------------
 BYTE   W96
//  #09 //120   ----------------------------------------
 BYTE   W96
//  #09 //121   ----------------------------------------
 BYTE   W96
//  #09 //122   ----------------------------------------
 BYTE   W96
//  #09 //123   ----------------------------------------
 BYTE   W96
//  #09 //124   ----------------------------------------
 BYTE   W96
//  #09 //125   ----------------------------------------
 BYTE   W96
//  #09 //126   ----------------------------------------
 BYTE   W96
//  #09 //127   ----------------------------------------
 BYTE   W96
//  #09 //128   ----------------------------------------
 BYTE   W96
//  #09 //129   ----------------------------------------
 BYTE   W96
//  #09 //130   ----------------------------------------
 BYTE   W96
//  #09 //131   ----------------------------------------
 BYTE   W96
//  #09 //132   ----------------------------------------
 BYTE   W96
//  #09 //133   ----------------------------------------
 BYTE   W96
//  #09 //134   ----------------------------------------
 BYTE   W96
//  #09 //135   ----------------------------------------
 BYTE   W96
//  #09 //136   ----------------------------------------
 BYTE   W96
//  #09 //137   ----------------------------------------
 BYTE   W96
//  #09 //138   ----------------------------------------
 BYTE   W96
//  #09 //139   ----------------------------------------
 BYTE   W96
//  #09 //140   ----------------------------------------
 BYTE   W96
//  #09 //141   ----------------------------------------
 BYTE   W96
//  #09 //142   ----------------------------------------
 BYTE   W96
//  #09 //143   ----------------------------------------
 BYTE   W96
//  #09 //144   ----------------------------------------
 BYTE   W96
//  #09 //145   ----------------------------------------
 BYTE   W96
//  #09 //146   ----------------------------------------
 BYTE   W96
//  #09 //147   ----------------------------------------
 BYTE   W96
//  #09 //148   ----------------------------------------
 BYTE   W96
//  #09 //149   ----------------------------------------
 BYTE   W96
//  #09 //150   ----------------------------------------
 BYTE   W96
//  #09 //151   ----------------------------------------
 BYTE   W96
//  #09 //152   ----------------------------------------
 BYTE   W96
//  #09 //153   ----------------------------------------
 BYTE   W96
//  #09 //154   ----------------------------------------
 BYTE   W96
//  #09 //155   ----------------------------------------
 BYTE   W96
//  #09 //156   ----------------------------------------
 BYTE   W96
//  #09 //157   ----------------------------------------
 BYTE   W96
//  #09 //158   ----------------------------------------
 BYTE   W96
//  #09 //159   ----------------------------------------
 BYTE   W96
//  #09 //160   ----------------------------------------
 BYTE   W96
//  #09 //161   ----------------------------------------
 BYTE   W96
//  #09 //162   ----------------------------------------
 BYTE   W96
//  #09 //163   ----------------------------------------
 BYTE   W96
//  #09 //164   ----------------------------------------
 BYTE   W96
//  #09 //165   ----------------------------------------
 BYTE   W96
//  #09 //166   ----------------------------------------
 BYTE   W96
//  #09 //167   ----------------------------------------
 BYTE   W96
//  #09 //168   ----------------------------------------
 BYTE   W96
//  #09 //169   ----------------------------------------
 BYTE   W96
//  #09 //170   ----------------------------------------
 BYTE   W96
//  #09 //171   ----------------------------------------
 BYTE   W96
//  #09 //172   ----------------------------------------
 BYTE   W96
//  #09 //173   ----------------------------------------
 BYTE   W96
//  #09 //174   ----------------------------------------
 BYTE   W96
//  #09 //175   ----------------------------------------
 BYTE   W96
//  #09 //176   ----------------------------------------
 BYTE   W96
//  #09 //177   ----------------------------------------
 BYTE   W96
//  #09 //178   ----------------------------------------
 BYTE   W96
//  #09 //179   ----------------------------------------
 BYTE   W96
//  #09 //180   ----------------------------------------
 BYTE   W96
//  #09 //181   ----------------------------------------
 BYTE   W96
//  #09 //182   ----------------------------------------
 BYTE   W96
//  #09 //183   ----------------------------------------
 BYTE   W96
//  #09 //184   ----------------------------------------
 BYTE   W96
//  #09 //185   ----------------------------------------
 BYTE   W96
//  #09 //186   ----------------------------------------
 BYTE   W96
//  #09 //187   ----------------------------------------
 BYTE   W96
//  #09 //188   ----------------------------------------
 BYTE   W96
//  #09 //189   ----------------------------------------
 BYTE   W96
//  #09 //190   ----------------------------------------
 BYTE   W96
//  #09 //191   ----------------------------------------
 BYTE   W96
//  #09 //192   ----------------------------------------
 BYTE   W96
//  #09 //193   ----------------------------------------
 BYTE   W96
//  #09 //194   ----------------------------------------
 BYTE   W96
//  #09 //195   ----------------------------------------
 BYTE   W96
//  #09 //196   ----------------------------------------
 BYTE   W96
//  #09 //197   ----------------------------------------
 BYTE   W96
//  #09 //198   ----------------------------------------
 BYTE   W96
//  #09 //199   ----------------------------------------
 BYTE   W96
//  #09 //200   ----------------------------------------
 BYTE   W96
//  #09 //201   ----------------------------------------
 BYTE   W96
//  #09 //202   ----------------------------------------
 BYTE   W96
//  #09 //203   ----------------------------------------
 BYTE   W96
//  #09 //204   ----------------------------------------
 BYTE   W96
//  #09 //205   ----------------------------------------
 BYTE   W96
//  #09 //206   ----------------------------------------
 BYTE   W96
//  #09 //207   ----------------------------------------
 BYTE   W96
//  #09 //208   ----------------------------------------
 BYTE   W96
//  #09 //209   ----------------------------------------
 BYTE   W96
//  #09 //210   ----------------------------------------
 BYTE   W96
//  #09 //211   ----------------------------------------
 BYTE   W96
//  #09 //212   ----------------------------------------
 BYTE   W96
//  #09 //213   ----------------------------------------
 BYTE   W96
//  #09 //214   ----------------------------------------
 BYTE   W96
//  #09 //215   ----------------------------------------
 BYTE   W96
//  #09 //216   ----------------------------------------
 BYTE   W96
//  #09 //217   ----------------------------------------
 BYTE   W96
//  #09 //218   ----------------------------------------
 BYTE   W96
//  #09 //219   ----------------------------------------
 BYTE   W96
//  #09 //220   ----------------------------------------
 BYTE   W96
//  #09 //221   ----------------------------------------
 BYTE   W96
//  #09 //222   ----------------------------------------
 BYTE   W96
//  #09 //223   ----------------------------------------
 BYTE   W96
//  #09 //224   ----------------------------------------
 BYTE   W96
//  #09 //225   ----------------------------------------
 BYTE   W96
//  #09 //226   ----------------------------------------
 BYTE   W96
//  #09 //227   ----------------------------------------
 BYTE   W96
//  #09 //228   ----------------------------------------
 BYTE   W96
//  #09 //229   ----------------------------------------
 BYTE   W96
//  #09 //230   ----------------------------------------
 BYTE   W96
//  #09 //231   ----------------------------------------
 BYTE   W96
//  #09 //232   ----------------------------------------
 BYTE   W96
//  #09 //233   ----------------------------------------
 BYTE   W96
//  #09 //234   ----------------------------------------
 BYTE   W96
//  #09 //235   ----------------------------------------
 BYTE   W96
//  #09 //236   ----------------------------------------
 BYTE   W96
//  #09 //237   ----------------------------------------
 BYTE   W96
//  #09 //238   ----------------------------------------
 BYTE   W96
//  #09 //239   ----------------------------------------
 BYTE   W96
//  #09 //240   ----------------------------------------
 BYTE   W96
//  #09 //241   ----------------------------------------
 BYTE   W96
//  #09 //242   ----------------------------------------
 BYTE   W96
//  #09 //243   ----------------------------------------
 BYTE   W96
//  #09 //244   ----------------------------------------
 BYTE   W96
//  #09 //245   ----------------------------------------
 BYTE   W96
//  #09 //246   ----------------------------------------
 BYTE   W96
//  #09 //247   ----------------------------------------
 BYTE   W96
//  #09 //248   ----------------------------------------
 BYTE   W96
//  #09 //249   ----------------------------------------
 BYTE   W96
//  #09 //250   ----------------------------------------
 BYTE   W96
//  #09 //251   ----------------------------------------
 BYTE   W96
//  #09 //252   ----------------------------------------
 BYTE   W96
//  #09 //253   ----------------------------------------
 BYTE   W96
//  #09 //254   ----------------------------------------
 BYTE   W96
//  #09 //255   ----------------------------------------
 BYTE   W96
//  #09 //256   ----------------------------------------
 BYTE   W96
//  #09 //257   ----------------------------------------
 BYTE   W96
//  #09 //258   ----------------------------------------
 BYTE   W96
//  #09 //259   ----------------------------------------
 BYTE   W96
//  #09 //260   ----------------------------------------
 BYTE   W96
//  #09 //261   ----------------------------------------
 BYTE   W96
//  #09 //262   ----------------------------------------
 BYTE   W96
//  #09 //263   ----------------------------------------
 BYTE   W96
//  #09 //264   ----------------------------------------
 BYTE   W96
//  #09 //265   ----------------------------------------
 BYTE   W96
//  #09 //266   ----------------------------------------
 BYTE   W96
//  #09 //267   ----------------------------------------
 BYTE   W96
//  #09 //268   ----------------------------------------
 BYTE   W96
//  #09 //269   ----------------------------------------
 BYTE   W96
//  #09 //270   ----------------------------------------
 BYTE   W96
//  #09 //271   ----------------------------------------
 BYTE   W96
//  #09 //272   ----------------------------------------
 BYTE   W96
//  #09 //273   ----------------------------------------
 BYTE   W96
//  #09 //274   ----------------------------------------
 BYTE   W96
//  #09 //275   ----------------------------------------
 BYTE   W96
//  #09 //276   ----------------------------------------
 BYTE   W96
//  #09 //277   ----------------------------------------
 BYTE   W96
//  #09 //278   ----------------------------------------
 BYTE   W96
//  #09 //279   ----------------------------------------
 BYTE   W96
//  #09 //280   ----------------------------------------
 BYTE   W96
//  #09 //281   ----------------------------------------
 BYTE   W96
//  #09 //282   ----------------------------------------
 BYTE   W96
//  #09 //283   ----------------------------------------
 BYTE   W96
//  #09 //284   ----------------------------------------
 BYTE   W96
//  #09 //285   ----------------------------------------
 BYTE   W96
//  #09 //286   ----------------------------------------
 BYTE   W96
//  #09 //287   ----------------------------------------
 BYTE   W96
//  #09 //288   ----------------------------------------
 BYTE   W96
//  #09 //289   ----------------------------------------
 BYTE   W96
//  #09 //290   ----------------------------------------
 BYTE   W96
//  #09 //291   ----------------------------------------
 BYTE   W96
//  #09 //292   ----------------------------------------
 BYTE   W96
//  #09 //293   ----------------------------------------
 BYTE   W96
//  #09 //294   ----------------------------------------
 BYTE   W96
//  #09 //295   ----------------------------------------
 BYTE   W96
//  #09 //296   ----------------------------------------
 BYTE   W96
//  #09 //297   ----------------------------------------
 BYTE   W96
//  #09 //298   ----------------------------------------
 BYTE   W96
//  #09 //299   ----------------------------------------
 BYTE   W96
//  #09 //300   ----------------------------------------
 BYTE   W96
//  #09 //301   ----------------------------------------
 BYTE   W96
//  #09 //302   ----------------------------------------
 BYTE   W96
//  #09 //303   ----------------------------------------
 BYTE   W96
//  #09 //304   ----------------------------------------
 BYTE   W96
//  #09 //305   ----------------------------------------
 BYTE   W96
//  #09 //306   ----------------------------------------
 BYTE   W96
//  #09 //307   ----------------------------------------
 BYTE   W96
//  #09 //308   ----------------------------------------
 BYTE   W96
//  #09 //309   ----------------------------------------
 BYTE   W96
//  #09 //310   ----------------------------------------
 BYTE   W96
//  #09 //311   ----------------------------------------
 BYTE   W96
//  #09 //312   ----------------------------------------
 BYTE   W96
//  #09 //313   ----------------------------------------
 BYTE   W96
//  #09 //314   ----------------------------------------
 BYTE   W96
//  #09 //315   ----------------------------------------
 BYTE   W96
//  #09 //316   ----------------------------------------
 BYTE   W96
//  #09 //317   ----------------------------------------
 BYTE   W96
//  #09 //318   ----------------------------------------
 BYTE   W96
//  #09 //319   ----------------------------------------
 BYTE   W96
//  #09 //320   ----------------------------------------
 BYTE   W96
//  #09 //321   ----------------------------------------
 BYTE   W96
//  #09 //322   ----------------------------------------
 BYTE   W96
//  #09 //323   ----------------------------------------
 BYTE   W96
//  #09 //324   ----------------------------------------
 BYTE   W96
//  #09 //325   ----------------------------------------
 BYTE   W96
//  #09 //326   ----------------------------------------
 BYTE   W96
//  #09 //327   ----------------------------------------
 BYTE   W96
//  #09 //328   ----------------------------------------
 BYTE   W96
//  #09 //329   ----------------------------------------
 BYTE   W96
//  #09 //330   ----------------------------------------
 BYTE   GoTo
  POIN2 Label_01007CDF
//  #09 //331   ----------------------------------------
 BYTE   W96
//  #09 //332   ----------------------------------------
 BYTE   W96
//  #09 //333   ----------------------------------------
 BYTE   W96
//  #09 //334   ----------------------------------------
 BYTE   W96
//  #09 //335   ----------------------------------------
 BYTE   W96
//  #09 //336   ----------------------------------------
 BYTE   W96
//  #09 //337   ----------------------------------------
 BYTE   W96
//  #09 //338   ----------------------------------------
 BYTE   W96
//  #09 //339   ----------------------------------------
 BYTE   W96
//  #09 //340   ----------------------------------------
 BYTE   W96
//  #09 //341   ----------------------------------------
 BYTE   W96
//  #09 //342   ----------------------------------------
 BYTE   W96
//  #09 //343   ----------------------------------------
 BYTE   W96
//  #09 //344   ----------------------------------------
 BYTE   W96
//  #09 //345   ----------------------------------------
 BYTE   W96
//  #09 //346   ----------------------------------------
 BYTE   W96
//  #09 //347   ----------------------------------------
 BYTE   W96
//  #09 //348   ----------------------------------------
 BYTE   W96
 BYTE   FINE

//**************** Track 10 (Midi-Chn.9) ****************//

BloodstainedLineage_010:
//  #10 //000   ----------------------------------------
 BYTE   KEYSH   BloodstainedLineage_key+0
 BYTE   VOICE   1
 BYTE   PAN   c_v+6
 BYTE   VOL   30*BloodstainedLineage_mvl/mxv
 BYTE   W96
//  #10 //001   ----------------------------------------
 BYTE   W96
//  #10 //002   ----------------------------------------
 BYTE   W96
//  #10 //003   ----------------------------------------
 BYTE   W96
//  #10 //004   ----------------------------------------
 BYTE   W96
//  #10 //005   ----------------------------------------
 BYTE   W96
//  #10 //006   ----------------------------------------
 BYTE   W96
//  #10 //007   ----------------------------------------
 BYTE   W96
//  #10 //008   ----------------------------------------
 BYTE   W96
//  #10 //009   ----------------------------------------
 BYTE   W96
//  #10 //010   ----------------------------------------
 BYTE   W96
//  #10 //011   ----------------------------------------
 BYTE   W96
//  #10 //012   ----------------------------------------
 BYTE   W96
//  #10 //013   ----------------------------------------
 BYTE   W96
//  #10 //014   ----------------------------------------
 BYTE   W96
//  #10 //015   ----------------------------------------
 BYTE   W96
//  #10 //016   ----------------------------------------
 BYTE   W96
//  #10 //017   ----------------------------------------
 BYTE   W96
//  #10 //018   ----------------------------------------
 BYTE   W96
//  #10 //019   ----------------------------------------
 BYTE   W96
//  #10 //020   ----------------------------------------
 BYTE   W96
//  #10 //021   ----------------------------------------
 BYTE   W96
//  #10 //022   ----------------------------------------
Label_01007E5A:
 BYTE   W96
//  #10 //023   ----------------------------------------
 BYTE   W96
//  #10 //024   ----------------------------------------
 BYTE   W96
//  #10 //025   ----------------------------------------
 BYTE   W96
//  #10 //026   ----------------------------------------
 BYTE   W96
//  #10 //027   ----------------------------------------
 BYTE   W96
//  #10 //028   ----------------------------------------
 BYTE   W96
//  #10 //029   ----------------------------------------
 BYTE   W96
//  #10 //030   ----------------------------------------
 BYTE   W96
//  #10 //031   ----------------------------------------
 BYTE   W96
//  #10 //032   ----------------------------------------
 BYTE   W96
//  #10 //033   ----------------------------------------
 BYTE   W96
//  #10 //034   ----------------------------------------
 BYTE   W96
//  #10 //035   ----------------------------------------
 BYTE   W96
//  #10 //036   ----------------------------------------
 BYTE   W96
//  #10 //037   ----------------------------------------
 BYTE   W96
//  #10 //038   ----------------------------------------
 BYTE   W96
//  #10 //039   ----------------------------------------
 BYTE   W96
//  #10 //040   ----------------------------------------
 BYTE   W96
//  #10 //041   ----------------------------------------
 BYTE   W96
//  #10 //042   ----------------------------------------
 BYTE   W96
//  #10 //043   ----------------------------------------
 BYTE   W96
//  #10 //044   ----------------------------------------
 BYTE   W96
//  #10 //045   ----------------------------------------
 BYTE   W96
//  #10 //046   ----------------------------------------
 BYTE   W96
//  #10 //047   ----------------------------------------
 BYTE   W96
//  #10 //048   ----------------------------------------
 BYTE   W96
//  #10 //049   ----------------------------------------
 BYTE   W96
//  #10 //050   ----------------------------------------
 BYTE   W96
//  #10 //051   ----------------------------------------
 BYTE   W96
//  #10 //052   ----------------------------------------
 BYTE   W96
//  #10 //053   ----------------------------------------
 BYTE   W24
 BYTE   N44  Bn3  v092
 BYTE   W72
//  #10 //054   ----------------------------------------
 BYTE   Dn4
 BYTE   W96
//  #10 //055   ----------------------------------------
 BYTE   W48
 BYTE   En4
 BYTE   W48
//  #10 //056   ----------------------------------------
 BYTE   Cs4
 BYTE   W96
//  #10 //057   ----------------------------------------
Label_01007E85:
 BYTE   N32  Dn4  v092
 BYTE   W36
 BYTE   Fn3
 BYTE   W36
 BYTE   N11  En3
 BYTE   W12
 BYTE   N05  Fn3
 BYTE   W06
 BYTE   Gn3
 BYTE   W06
 BYTE   PEND 
//  #10 //058   ----------------------------------------
 BYTE   N23  Fn3
 BYTE   W96
//  #10 //059   ----------------------------------------
 BYTE   W96
//  #10 //060   ----------------------------------------
 BYTE   W96
//  #10 //061   ----------------------------------------
Label_01007E99:
 BYTE   W84
 BYTE   N05  Dn4  v092
 BYTE   W06
 BYTE   En4
 BYTE   W06
 BYTE   PEND 
//  #10 //062   ----------------------------------------
 BYTE   N44  Dn4
 BYTE   W96
//  #10 //063   ----------------------------------------
 BYTE   W48
 BYTE   En4
 BYTE   W48
//  #10 //064   ----------------------------------------
Label_01007EA7:
 BYTE   N44  Cs4  v092
 BYTE   W72
 BYTE   N23  Dn4
 BYTE   W24
 BYTE   PEND 
//  #10 //065   ----------------------------------------
Label_01007EAF:
 BYTE   W48
 BYTE   N44  Cs4  v092
 BYTE   W36
 BYTE   N05  Gn3
 BYTE   W06
 BYTE   An3
 BYTE   W06
 BYTE   PEND 
//  #10 //066   ----------------------------------------
 BYTE   N11  Gn3
 BYTE   W96
//  #10 //067   ----------------------------------------
 BYTE   W96
//  #10 //068   ----------------------------------------
 BYTE   W96
//  #10 //069   ----------------------------------------
 BYTE   W96
//  #10 //070   ----------------------------------------
 BYTE   W96
//  #10 //071   ----------------------------------------
 BYTE   W96
//  #10 //072   ----------------------------------------
 BYTE   W96
//  #10 //073   ----------------------------------------
 BYTE   W96
//  #10 //074   ----------------------------------------
 BYTE   W90
 BYTE   N05  Cn4
 BYTE   W06
//  #10 //075   ----------------------------------------
Label_01007EC8:
 BYTE   N23  Dn4  v092
 BYTE   W24
 BYTE   Bn3
 BYTE   W72
 BYTE   PEND 
//  #10 //076   ----------------------------------------
 BYTE   W96
//  #10 //077   ----------------------------------------
 BYTE   W96
//  #10 //078   ----------------------------------------
 BYTE   W96
//  #10 //079   ----------------------------------------
 BYTE   W96
//  #10 //080   ----------------------------------------
 BYTE   W96
//  #10 //081   ----------------------------------------
 BYTE   W96
//  #10 //082   ----------------------------------------
 BYTE   W90
 BYTE   N05  Cn4
 BYTE   W06
//  #10 //083   ----------------------------------------
 BYTE   PATT
  POIN2 Label_01007EC8
//  #10 //084   ----------------------------------------
 BYTE   W96
//  #10 //085   ----------------------------------------
 BYTE   W24
 BYTE   N44  Bn3  v092
 BYTE   W72
//  #10 //086   ----------------------------------------
 BYTE   Dn4
 BYTE   W96
//  #10 //087   ----------------------------------------
 BYTE   W48
 BYTE   En4
 BYTE   W48
//  #10 //088   ----------------------------------------
 BYTE   Cs4
 BYTE   W96
//  #10 //089   ----------------------------------------
 BYTE   PATT
  POIN2 Label_01007E85
//  #10 //090   ----------------------------------------
 BYTE   N23  Fn3  v092
 BYTE   W96
//  #10 //091   ----------------------------------------
 BYTE   W96
//  #10 //092   ----------------------------------------
 BYTE   W96
//  #10 //093   ----------------------------------------
 BYTE   PATT
  POIN2 Label_01007E99
//  #10 //094   ----------------------------------------
 BYTE   N44  Dn4  v092
 BYTE   W96
//  #10 //095   ----------------------------------------
 BYTE   W48
 BYTE   En4
 BYTE   W48
//  #10 //096   ----------------------------------------
 BYTE   PATT
  POIN2 Label_01007EA7
//  #10 //097   ----------------------------------------
 BYTE   PATT
  POIN2 Label_01007EAF
//  #10 //098   ----------------------------------------
 BYTE   N11  Gn3  v092
 BYTE   W96
//  #10 //099   ----------------------------------------
 BYTE   W96
//  #10 //100   ----------------------------------------
 BYTE   W96
//  #10 //101   ----------------------------------------
 BYTE   W96
//  #10 //102   ----------------------------------------
 BYTE   W96
//  #10 //103   ----------------------------------------
 BYTE   W96
//  #10 //104   ----------------------------------------
 BYTE   W96
//  #10 //105   ----------------------------------------
 BYTE   W96
//  #10 //106   ----------------------------------------
 BYTE   W90
 BYTE   N05  Cn4
 BYTE   W06
//  #10 //107   ----------------------------------------
 BYTE   PATT
  POIN2 Label_01007EC8
//  #10 //108   ----------------------------------------
 BYTE   W96
//  #10 //109   ----------------------------------------
 BYTE   W96
//  #10 //110   ----------------------------------------
 BYTE   W96
//  #10 //111   ----------------------------------------
 BYTE   W96
//  #10 //112   ----------------------------------------
 BYTE   W96
//  #10 //113   ----------------------------------------
 BYTE   W96
//  #10 //114   ----------------------------------------
 BYTE   W90
 BYTE   N05  Cn4  v092
 BYTE   W06
//  #10 //115   ----------------------------------------
 BYTE   PATT
  POIN2 Label_01007EC8
//  #10 //116   ----------------------------------------
Label_01007F30:
 BYTE   N23  En3  v092
 BYTE   W24
 BYTE   N11
 BYTE   W12
 BYTE   N23  Gn4
 BYTE   W24
 BYTE   N11  En3
 BYTE   W12
 BYTE   N23  Fs4
 BYTE   W24
 BYTE   PEND 
//  #10 //117   ----------------------------------------
Label_01007F40:
 BYTE   N11  En3  v092
 BYTE   W12
 BYTE   N23  Fn4
 BYTE   W24
 BYTE   N11  Bn3
 BYTE   W12
 BYTE   En4
 BYTE   W12
 BYTE   N23  Ds4
 BYTE   W24
 BYTE   N11  Bn3
 BYTE   W12
 BYTE   PEND 
//  #10 //118   ----------------------------------------
Label_01007F53:
 BYTE   N23  An3  v092
 BYTE   W24
 BYTE   N11  Gn3
 BYTE   W12
 BYTE   N23  An3
 BYTE   W24
 BYTE   An4
 BYTE   W24
 BYTE   N11  Gn4
 BYTE   W12
 BYTE   PEND 
//  #10 //119   ----------------------------------------
Label_01007F63:
 BYTE   N23  Ds4  v092
 BYTE   W24
 BYTE   N11
 BYTE   W12
 BYTE   N23  En4
 BYTE   W24
 BYTE   N11  Fn4
 BYTE   W12
 BYTE   N23  Gn4
 BYTE   W24
 BYTE   PEND 
//  #10 //120   ----------------------------------------
Label_01007F73:
 BYTE   N23  En5  v092
 BYTE   W24
 BYTE   N11  Gn3
 BYTE   W12
 BYTE   Ds5
 BYTE   W12
 BYTE   N11
 BYTE   W12
 BYTE   Gn3
 BYTE   W12
 BYTE   Dn5
 BYTE   W12
 BYTE   N11
 BYTE   W12
 BYTE   PEND 
//  #10 //121   ----------------------------------------
Label_01007F85:
 BYTE   N11  Gn3  v092
 BYTE   W12
 BYTE   Cs5
 BYTE   W12
 BYTE   N11
 BYTE   W12
 BYTE   Gn3
 BYTE   W12
 BYTE   Cn5
 BYTE   W12
 BYTE   N11
 BYTE   W12
 BYTE   An4
 BYTE   W12
 BYTE   Bn4
 BYTE   W12
 BYTE   PEND 
//  #10 //122   ----------------------------------------
Label_01007F98:
 BYTE   N23  An3  v092
 BYTE   W24
 BYTE   N11  Gn3
 BYTE   W12
 BYTE   N23  An3
 BYTE   W24
 BYTE   Bn3
 BYTE   W24
 BYTE   N11  Cn4
 BYTE   W12
 BYTE   PEND 
//  #10 //123   ----------------------------------------
Label_01007FA8:
 BYTE   N23  Gn4  v092
 BYTE   W24
 BYTE   N11  Gn3
 BYTE   W12
 BYTE   Gn4
 BYTE   W12
 BYTE   N23  An4
 BYTE   W48
 BYTE   PEND 
//  #10 //124   ----------------------------------------
 BYTE   PATT
  POIN2 Label_01007F30
//  #10 //125   ----------------------------------------
 BYTE   PATT
  POIN2 Label_01007F40
//  #10 //126   ----------------------------------------
 BYTE   PATT
  POIN2 Label_01007F53
//  #10 //127   ----------------------------------------
 BYTE   PATT
  POIN2 Label_01007F63
//  #10 //128   ----------------------------------------
 BYTE   PATT
  POIN2 Label_01007F73
//  #10 //129   ----------------------------------------
 BYTE   PATT
  POIN2 Label_01007F85
//  #10 //130   ----------------------------------------
 BYTE   PATT
  POIN2 Label_01007F98
//  #10 //131   ----------------------------------------
 BYTE   PATT
  POIN2 Label_01007FA8
//  #10 //132   ----------------------------------------
 BYTE   W96
//  #10 //133   ----------------------------------------
 BYTE   W96
//  #10 //134   ----------------------------------------
 BYTE   W96
//  #10 //135   ----------------------------------------
 BYTE   W96
//  #10 //136   ----------------------------------------
 BYTE   W96
//  #10 //137   ----------------------------------------
 BYTE   W96
//  #10 //138   ----------------------------------------
 BYTE   W96
//  #10 //139   ----------------------------------------
 BYTE   W96
//  #10 //140   ----------------------------------------
 BYTE   W96
//  #10 //141   ----------------------------------------
 BYTE   W96
//  #10 //142   ----------------------------------------
 BYTE   W96
//  #10 //143   ----------------------------------------
 BYTE   W96
//  #10 //144   ----------------------------------------
 BYTE   W96
//  #10 //145   ----------------------------------------
 BYTE   W96
//  #10 //146   ----------------------------------------
 BYTE   W96
//  #10 //147   ----------------------------------------
 BYTE   W96
//  #10 //148   ----------------------------------------
 BYTE   W96
//  #10 //149   ----------------------------------------
 BYTE   W96
//  #10 //150   ----------------------------------------
 BYTE   W96
//  #10 //151   ----------------------------------------
 BYTE   W96
//  #10 //152   ----------------------------------------
 BYTE   W96
//  #10 //153   ----------------------------------------
 BYTE   W96
//  #10 //154   ----------------------------------------
 BYTE   W96
//  #10 //155   ----------------------------------------
 BYTE   W96
//  #10 //156   ----------------------------------------
 BYTE   W96
//  #10 //157   ----------------------------------------
 BYTE   W96
//  #10 //158   ----------------------------------------
 BYTE   W96
//  #10 //159   ----------------------------------------
 BYTE   W96
//  #10 //160   ----------------------------------------
 BYTE   W96
//  #10 //161   ----------------------------------------
 BYTE   W96
//  #10 //162   ----------------------------------------
 BYTE   W96
//  #10 //163   ----------------------------------------
 BYTE   W96
//  #10 //164   ----------------------------------------
 BYTE   W96
//  #10 //165   ----------------------------------------
 BYTE   W96
//  #10 //166   ----------------------------------------
 BYTE   W96
//  #10 //167   ----------------------------------------
 BYTE   W96
//  #10 //168   ----------------------------------------
 BYTE   W96
//  #10 //169   ----------------------------------------
 BYTE   W96
//  #10 //170   ----------------------------------------
 BYTE   W96
//  #10 //171   ----------------------------------------
 BYTE   W96
//  #10 //172   ----------------------------------------
 BYTE   W96
//  #10 //173   ----------------------------------------
 BYTE   W96
//  #10 //174   ----------------------------------------
 BYTE   W96
//  #10 //175   ----------------------------------------
 BYTE   W96
//  #10 //176   ----------------------------------------
 BYTE   W96
//  #10 //177   ----------------------------------------
 BYTE   W96
//  #10 //178   ----------------------------------------
 BYTE   W96
//  #10 //179   ----------------------------------------
 BYTE   W96
//  #10 //180   ----------------------------------------
 BYTE   W96
//  #10 //181   ----------------------------------------
 BYTE   W96
//  #10 //182   ----------------------------------------
 BYTE   W96
//  #10 //183   ----------------------------------------
 BYTE   W96
//  #10 //184   ----------------------------------------
 BYTE   W96
//  #10 //185   ----------------------------------------
 BYTE   W96
//  #10 //186   ----------------------------------------
 BYTE   W96
//  #10 //187   ----------------------------------------
 BYTE   W96
//  #10 //188   ----------------------------------------
 BYTE   W96
//  #10 //189   ----------------------------------------
 BYTE   W96
//  #10 //190   ----------------------------------------
 BYTE   W96
//  #10 //191   ----------------------------------------
 BYTE   W96
//  #10 //192   ----------------------------------------
 BYTE   W96
//  #10 //193   ----------------------------------------
 BYTE   W96
//  #10 //194   ----------------------------------------
 BYTE   W96
//  #10 //195   ----------------------------------------
 BYTE   W24
 BYTE   N44  Bn3  v092
 BYTE   W72
//  #10 //196   ----------------------------------------
 BYTE   Dn4
 BYTE   W96
//  #10 //197   ----------------------------------------
 BYTE   W48
 BYTE   En4
 BYTE   W48
//  #10 //198   ----------------------------------------
 BYTE   Cs4
 BYTE   W96
//  #10 //199   ----------------------------------------
 BYTE   PATT
  POIN2 Label_01007E85
//  #10 //200   ----------------------------------------
 BYTE   N23  Fn3  v092
 BYTE   W96
//  #10 //201   ----------------------------------------
 BYTE   W96
//  #10 //202   ----------------------------------------
 BYTE   W96
//  #10 //203   ----------------------------------------
 BYTE   PATT
  POIN2 Label_01007E99
//  #10 //204   ----------------------------------------
 BYTE   N44  Dn4  v092
 BYTE   W96
//  #10 //205   ----------------------------------------
 BYTE   W48
 BYTE   En4
 BYTE   W48
//  #10 //206   ----------------------------------------
 BYTE   PATT
  POIN2 Label_01007EA7
//  #10 //207   ----------------------------------------
 BYTE   PATT
  POIN2 Label_01007EAF
//  #10 //208   ----------------------------------------
 BYTE   N11  Gn3  v092
 BYTE   W96
//  #10 //209   ----------------------------------------
 BYTE   W96
//  #10 //210   ----------------------------------------
 BYTE   W96
//  #10 //211   ----------------------------------------
 BYTE   W96
//  #10 //212   ----------------------------------------
 BYTE   W96
//  #10 //213   ----------------------------------------
 BYTE   W96
//  #10 //214   ----------------------------------------
 BYTE   W96
//  #10 //215   ----------------------------------------
 BYTE   W96
//  #10 //216   ----------------------------------------
 BYTE   W90
 BYTE   N05  Cn4
 BYTE   W06
//  #10 //217   ----------------------------------------
 BYTE   PATT
  POIN2 Label_01007EC8
//  #10 //218   ----------------------------------------
 BYTE   W96
//  #10 //219   ----------------------------------------
 BYTE   W96
//  #10 //220   ----------------------------------------
 BYTE   W96
//  #10 //221   ----------------------------------------
 BYTE   W96
//  #10 //222   ----------------------------------------
 BYTE   W96
//  #10 //223   ----------------------------------------
 BYTE   W96
//  #10 //224   ----------------------------------------
 BYTE   W90
 BYTE   N05  Cn4  v092
 BYTE   W06
//  #10 //225   ----------------------------------------
 BYTE   PATT
  POIN2 Label_01007EC8
//  #10 //226   ----------------------------------------
 BYTE   W96
//  #10 //227   ----------------------------------------
 BYTE   W24
 BYTE   N44  Bn3  v092
 BYTE   W72
//  #10 //228   ----------------------------------------
 BYTE   Dn4
 BYTE   W96
//  #10 //229   ----------------------------------------
 BYTE   W48
 BYTE   En4
 BYTE   W48
//  #10 //230   ----------------------------------------
 BYTE   Cs4
 BYTE   W96
//  #10 //231   ----------------------------------------
 BYTE   PATT
  POIN2 Label_01007E85
//  #10 //232   ----------------------------------------
 BYTE   N23  Fn3  v092
 BYTE   W96
//  #10 //233   ----------------------------------------
 BYTE   W96
//  #10 //234   ----------------------------------------
 BYTE   W96
//  #10 //235   ----------------------------------------
 BYTE   PATT
  POIN2 Label_01007E99
//  #10 //236   ----------------------------------------
 BYTE   N44  Dn4  v092
 BYTE   W96
//  #10 //237   ----------------------------------------
 BYTE   W48
 BYTE   En4
 BYTE   W48
//  #10 //238   ----------------------------------------
 BYTE   PATT
  POIN2 Label_01007EA7
//  #10 //239   ----------------------------------------
 BYTE   PATT
  POIN2 Label_01007EAF
//  #10 //240   ----------------------------------------
 BYTE   N11  Gn3  v092
 BYTE   W96
//  #10 //241   ----------------------------------------
 BYTE   W96
//  #10 //242   ----------------------------------------
 BYTE   W96
//  #10 //243   ----------------------------------------
 BYTE   W96
//  #10 //244   ----------------------------------------
 BYTE   W96
//  #10 //245   ----------------------------------------
 BYTE   W96
//  #10 //246   ----------------------------------------
 BYTE   W96
//  #10 //247   ----------------------------------------
 BYTE   W96
//  #10 //248   ----------------------------------------
 BYTE   W90
 BYTE   N05  Cn4
 BYTE   W06
//  #10 //249   ----------------------------------------
 BYTE   PATT
  POIN2 Label_01007EC8
//  #10 //250   ----------------------------------------
 BYTE   W96
//  #10 //251   ----------------------------------------
 BYTE   W96
//  #10 //252   ----------------------------------------
 BYTE   W96
//  #10 //253   ----------------------------------------
 BYTE   W96
//  #10 //254   ----------------------------------------
 BYTE   W96
//  #10 //255   ----------------------------------------
 BYTE   W96
//  #10 //256   ----------------------------------------
 BYTE   W90
 BYTE   N05  Cn4  v092
 BYTE   W06
//  #10 //257   ----------------------------------------
 BYTE   PATT
  POIN2 Label_01007EC8
//  #10 //258   ----------------------------------------
 BYTE   PATT
  POIN2 Label_01007F30
//  #10 //259   ----------------------------------------
 BYTE   PATT
  POIN2 Label_01007F40
//  #10 //260   ----------------------------------------
 BYTE   PATT
  POIN2 Label_01007F53
//  #10 //261   ----------------------------------------
 BYTE   PATT
  POIN2 Label_01007F63
//  #10 //262   ----------------------------------------
 BYTE   PATT
  POIN2 Label_01007F73
//  #10 //263   ----------------------------------------
 BYTE   PATT
  POIN2 Label_01007F85
//  #10 //264   ----------------------------------------
 BYTE   PATT
  POIN2 Label_01007F98
//  #10 //265   ----------------------------------------
 BYTE   PATT
  POIN2 Label_01007FA8
//  #10 //266   ----------------------------------------
 BYTE   PATT
  POIN2 Label_01007F30
//  #10 //267   ----------------------------------------
 BYTE   PATT
  POIN2 Label_01007F40
//  #10 //268   ----------------------------------------
 BYTE   PATT
  POIN2 Label_01007F53
//  #10 //269   ----------------------------------------
 BYTE   PATT
  POIN2 Label_01007F63
//  #10 //270   ----------------------------------------
 BYTE   PATT
  POIN2 Label_01007F73
//  #10 //271   ----------------------------------------
 BYTE   PATT
  POIN2 Label_01007F85
//  #10 //272   ----------------------------------------
 BYTE   PATT
  POIN2 Label_01007F98
//  #10 //273   ----------------------------------------
 BYTE   PATT
  POIN2 Label_01007FA8
//  #10 //274   ----------------------------------------
 BYTE   W96
//  #10 //275   ----------------------------------------
 BYTE   W96
//  #10 //276   ----------------------------------------
 BYTE   W96
//  #10 //277   ----------------------------------------
 BYTE   W96
//  #10 //278   ----------------------------------------
 BYTE   W96
//  #10 //279   ----------------------------------------
 BYTE   W96
//  #10 //280   ----------------------------------------
 BYTE   W96
//  #10 //281   ----------------------------------------
 BYTE   W96
//  #10 //282   ----------------------------------------
 BYTE   W96
//  #10 //283   ----------------------------------------
 BYTE   W96
//  #10 //284   ----------------------------------------
 BYTE   W96
//  #10 //285   ----------------------------------------
 BYTE   W96
//  #10 //286   ----------------------------------------
 BYTE   W96
//  #10 //287   ----------------------------------------
 BYTE   W96
//  #10 //288   ----------------------------------------
 BYTE   W96
//  #10 //289   ----------------------------------------
 BYTE   W96
//  #10 //290   ----------------------------------------
 BYTE   W96
//  #10 //291   ----------------------------------------
 BYTE   W96
//  #10 //292   ----------------------------------------
 BYTE   W96
//  #10 //293   ----------------------------------------
 BYTE   W96
//  #10 //294   ----------------------------------------
 BYTE   W96
//  #10 //295   ----------------------------------------
 BYTE   W96
//  #10 //296   ----------------------------------------
 BYTE   W96
//  #10 //297   ----------------------------------------
 BYTE   W96
//  #10 //298   ----------------------------------------
 BYTE   W96
//  #10 //299   ----------------------------------------
 BYTE   W96
//  #10 //300   ----------------------------------------
 BYTE   W96
//  #10 //301   ----------------------------------------
 BYTE   W96
//  #10 //302   ----------------------------------------
 BYTE   W96
//  #10 //303   ----------------------------------------
 BYTE   W96
//  #10 //304   ----------------------------------------
 BYTE   W96
//  #10 //305   ----------------------------------------
 BYTE   W96
//  #10 //306   ----------------------------------------
 BYTE   W96
//  #10 //307   ----------------------------------------
 BYTE   W96
//  #10 //308   ----------------------------------------
 BYTE   W96
//  #10 //309   ----------------------------------------
 BYTE   W96
//  #10 //310   ----------------------------------------
 BYTE   W96
//  #10 //311   ----------------------------------------
 BYTE   W96
//  #10 //312   ----------------------------------------
 BYTE   W96
//  #10 //313   ----------------------------------------
 BYTE   W96
//  #10 //314   ----------------------------------------
 BYTE   W96
//  #10 //315   ----------------------------------------
 BYTE   W96
//  #10 //316   ----------------------------------------
 BYTE   W96
//  #10 //317   ----------------------------------------
 BYTE   W96
//  #10 //318   ----------------------------------------
 BYTE   W96
//  #10 //319   ----------------------------------------
 BYTE   W96
//  #10 //320   ----------------------------------------
 BYTE   W96
//  #10 //321   ----------------------------------------
 BYTE   W96
//  #10 //322   ----------------------------------------
 BYTE   W96
//  #10 //323   ----------------------------------------
 BYTE   W96
//  #10 //324   ----------------------------------------
 BYTE   W96
//  #10 //325   ----------------------------------------
 BYTE   W96
//  #10 //326   ----------------------------------------
 BYTE   W96
//  #10 //327   ----------------------------------------
 BYTE   W96
//  #10 //328   ----------------------------------------
 BYTE   W96
//  #10 //329   ----------------------------------------
 BYTE   W96
//  #10 //330   ----------------------------------------
 BYTE   GoTo
  POIN2 Label_01007E5A
//  #10 //331   ----------------------------------------
 BYTE   W96
//  #10 //332   ----------------------------------------
 BYTE   W96
//  #10 //333   ----------------------------------------
 BYTE   W96
//  #10 //334   ----------------------------------------
 BYTE   W96
//  #10 //335   ----------------------------------------
 BYTE   W96
//  #10 //336   ----------------------------------------
 BYTE   W96
//  #10 //337   ----------------------------------------
 BYTE   W96
//  #10 //338   ----------------------------------------
 BYTE   W96
//  #10 //339   ----------------------------------------
 BYTE   W96
//  #10 //340   ----------------------------------------
 BYTE   W96
//  #10 //341   ----------------------------------------
 BYTE   W96
//  #10 //342   ----------------------------------------
 BYTE   W96
//  #10 //343   ----------------------------------------
 BYTE   W96
//  #10 //344   ----------------------------------------
 BYTE   W96
//  #10 //345   ----------------------------------------
 BYTE   W96
//  #10 //346   ----------------------------------------
 BYTE   W96
//  #10 //347   ----------------------------------------
 BYTE   W96
//  #10 //348   ----------------------------------------
 BYTE   W96
 BYTE   FINE

//******************************************************//
	ALIGN 4

BloodstainedLineage:
	BYTE	10	// NumTrks
	BYTE	0	// NumBlks
	BYTE	BloodstainedLineage_pri	// Priority
	BYTE	BloodstainedLineage_rev	// Reverb.
    
	POIN2	BloodstainedLineage_grp
    
	POIN2	BloodstainedLineage_001
	POIN2	BloodstainedLineage_002
	POIN2	BloodstainedLineage_003
	POIN2	BloodstainedLineage_004
	POIN2	BloodstainedLineage_005
	POIN2	BloodstainedLineage_006
	POIN2	BloodstainedLineage_007
	POIN2	BloodstainedLineage_008
	POIN2	BloodstainedLineage_009
	POIN2	BloodstainedLineage_010

	
