	.include "MPlayDef.s"

	.equ	song04_grp, voicegroup000
	.equ	song04_pri, 0
	.equ	song04_rev, 0
	.equ	song04_mvl, 127
	.equ	song04_key, 0
	.equ	song04_tbs, 1
	.equ	song04_exg, 0
	.equ	song04_cmp, 1

	.section .rodata
	.global	song04
	.align	2


@**************** Track 1 (Midi-Chn.0) ****************@

song04_001:
@  #01 @000   ----------------------------------------
 .byte   KEYSH , song04_key+0
 .byte   TEMPO , 150*song04_tbs/2
 .byte   VOICE , 30
 .byte   VOL , 50*song04_mvl/mxv
 .byte   PAN , c_v+0
 .byte   VOL , 50*song04_mvl/mxv
 .byte   PAN , c_v+0
 .byte   W96
@  #01 @001   ----------------------------------------
 .byte   W96
@  #01 @002   ----------------------------------------
 .byte   W96
@  #01 @003   ----------------------------------------
 .byte   W96
@  #01 @004   ----------------------------------------
 .byte   W96
@  #01 @005   ----------------------------------------
 .byte   W96
@  #01 @006   ----------------------------------------
 .byte   W96
@  #01 @007   ----------------------------------------
 .byte   W96
@  #01 @008   ----------------------------------------
 .byte   W96
@  #01 @009   ----------------------------------------
 .byte   W96
@  #01 @010   ----------------------------------------
 .byte   W96
@  #01 @011   ----------------------------------------
 .byte   W96
@  #01 @012   ----------------------------------------
 .byte   W96
@  #01 @013   ----------------------------------------
 .byte   W96
@  #01 @014   ----------------------------------------
 .byte   W96
@  #01 @015   ----------------------------------------
 .byte   W96
@  #01 @016   ----------------------------------------
 .byte   W96
@  #01 @017   ----------------------------------------
 .byte   W96
@  #01 @018   ----------------------------------------
 .byte   W96
@  #01 @019   ----------------------------------------
 .byte   W96
@  #01 @020   ----------------------------------------
 .byte   W96
@  #01 @021   ----------------------------------------
 .byte   W96
@  #01 @022   ----------------------------------------
 .byte   W96
@  #01 @023   ----------------------------------------
 .byte   W96
@  #01 @024   ----------------------------------------
 .byte   W96
@  #01 @025   ----------------------------------------
 .byte   W96
@  #01 @026   ----------------------------------------
 .byte   W96
@  #01 @027   ----------------------------------------
 .byte   W96
@  #01 @028   ----------------------------------------
 .byte   W96
@  #01 @029   ----------------------------------------
 .byte   W96
@  #01 @030   ----------------------------------------
 .byte   W96
@  #01 @031   ----------------------------------------
 .byte   W96
@  #01 @032   ----------------------------------------
Label_01005212:
 .byte   W96
@  #01 @033   ----------------------------------------
 .byte   W96
@  #01 @034   ----------------------------------------
 .byte   W96
@  #01 @035   ----------------------------------------
 .byte   W96
@  #01 @036   ----------------------------------------
 .byte   W96
@  #01 @037   ----------------------------------------
 .byte   W96
@  #01 @038   ----------------------------------------
 .byte   W96
@  #01 @039   ----------------------------------------
 .byte   W96
@  #01 @040   ----------------------------------------
 .byte   W96
@  #01 @041   ----------------------------------------
 .byte   W96
@  #01 @042   ----------------------------------------
 .byte   W96
@  #01 @043   ----------------------------------------
 .byte   W24
 .byte   W48
 .byte   N23 ,Cs3 ,v127
 .byte   W24
@  #01 @044   ----------------------------------------
 .byte   Ds3
 .byte   W24
Label_01005225:
 .byte   N11 ,En3 ,v127
 .byte   W12
 .byte   Gs3
 .byte   W12
 .byte   N32
 .byte   W48
@  #01 @045   ----------------------------------------
 .byte   N11 ,En3
 .byte   W12
 .byte   Bn3
 .byte   W12
 .byte   PEND 
 .byte   N32
 .byte   W48
 .byte   N23
 .byte   W24
@  #01 @046   ----------------------------------------
 .byte   Cs4
 .byte   W24
 .byte   BEND , c_v+0
 .byte   N92
 .byte   W01
 .byte   BEND , c_v+0
 .byte   W01
 .byte   BEND , c_v+1
 .byte   W01
 .byte   BEND , c_v+1
 .byte   W01
 .byte   BEND , c_v+2
 .byte   W01
 .byte   BEND , c_v+2
 .byte   W01
 .byte   BEND , c_v+2
 .byte   W01
 .byte   BEND , c_v+3
 .byte   W01
 .byte   BEND , c_v+3
 .byte   W01
 .byte   BEND , c_v+4
 .byte   W01
 .byte   BEND , c_v+4
 .byte   W01
 .byte   BEND , c_v+4
 .byte   W01
 .byte   BEND , c_v+5
 .byte   W01
 .byte   BEND , c_v+5
 .byte   W01
 .byte   BEND , c_v+6
 .byte   W01
 .byte   BEND , c_v+6
 .byte   W01
 .byte   BEND , c_v+7
 .byte   W01
 .byte   BEND , c_v+7
 .byte   W01
 .byte   BEND , c_v+8
 .byte   W01
 .byte   BEND , c_v+8
 .byte   W01
 .byte   BEND , c_v+9
 .byte   W01
 .byte   BEND , c_v+9
 .byte   W01
 .byte   BEND , c_v+9
 .byte   W01
 .byte   BEND , c_v+10
 .byte   W01
 .byte   BEND , c_v+10
 .byte   W72
@  #01 @047   ----------------------------------------
 .byte   BEND , c_v+0
 .byte   N56
 .byte   W72
 .byte   N11
 .byte   W12
 .byte   Gs3
 .byte   W12
@  #01 @048   ----------------------------------------
 .byte   Cs3
 .byte   W12
 .byte   Gs3
 .byte   W12
 .byte   N32
 .byte   W48
 .byte   N11 ,An3
 .byte   W12
 .byte   N05 ,Gs3
 .byte   W06
 .byte   An3
 .byte   W06
@  #01 @049   ----------------------------------------
 .byte   N56 ,Fs3
 .byte   W72
 .byte   N11 ,En3
 .byte   W12
 .byte   Ds3
 .byte   W12
@  #01 @050   ----------------------------------------
 .byte   N44 ,En3
 .byte   W48
 .byte   Fs3
 .byte   W48
@  #01 @051   ----------------------------------------
 .byte   N56 ,Gs3
 .byte   W72
 .byte   N11 ,Cs3
 .byte   W12
 .byte   Ds3
 .byte   W12
@  #01 @052   ----------------------------------------
 .byte   PATT
  .word Label_01005225
@  #01 @053   ----------------------------------------
 .byte   N32 ,Bn3 ,v127
 .byte   W48
 .byte   N23
 .byte   W24
 .byte   BEND , c_v+0
 .byte   N23 ,Cs4
 .byte   W20
 .byte   BEND , c_v+2
 .byte   W01
 .byte   BEND , c_v+4
 .byte   W01
 .byte   BEND , c_v+6
 .byte   W01
 .byte   BEND , c_v+8
 .byte   W01
@  #01 @054   ----------------------------------------
 .byte   BEND , c_v+0
 .byte   N92 ,Ds4
 .byte   W96
@  #01 @055   ----------------------------------------
 .byte   BEND , c_v+0
 .byte   N44
 .byte   W01
 .byte   BEND , c_v+0
 .byte   W01
 .byte   BEND , c_v+0
 .byte   W01
 .byte   BEND , c_v+1
 .byte   W01
 .byte   BEND , c_v+1
 .byte   W01
 .byte   BEND , c_v+1
 .byte   W01
 .byte   BEND , c_v+2
 .byte   W01
 .byte   BEND , c_v+2
 .byte   W01
 .byte   BEND , c_v+2
 .byte   W01
 .byte   BEND , c_v+3
 .byte   W01
 .byte   BEND , c_v+3
 .byte   W01
 .byte   BEND , c_v+3
 .byte   W01
 .byte   BEND , c_v+4
 .byte   W01
 .byte   BEND , c_v+4
 .byte   W01
 .byte   BEND , c_v+4
 .byte   W01
 .byte   BEND , c_v+5
 .byte   W01
 .byte   BEND , c_v+5
 .byte   W32
 .byte   BEND , c_v+0
 .byte   N11 ,En4
 .byte   W12
 .byte   Ds4
 .byte   W12
 .byte   Cs4
 .byte   W12
 .byte   Bn3
 .byte   W12
@  #01 @056   ----------------------------------------
Label_010052E4:
 .byte   N32 ,Gs3 ,v127
 .byte   W36
 .byte   Fs3
 .byte   W36
 .byte   N23 ,Bn3
 .byte   W24
 .byte   PEND 
@  #01 @057   ----------------------------------------
 .byte   N56 ,Gs3
 .byte   W72
 .byte   N11 ,En3
 .byte   W12
 .byte   Fs3
 .byte   W12
@  #01 @058   ----------------------------------------
 .byte   PATT
  .word Label_010052E4
@  #01 @059   ----------------------------------------
 .byte   N92 ,Gs3 ,v127
 .byte   W96
@  #01 @060   ----------------------------------------
 .byte   W96
@  #01 @061   ----------------------------------------
 .byte   W96
@  #01 @062   ----------------------------------------
 .byte   W96
@  #01 @063   ----------------------------------------
 .byte   W96
@  #01 @064   ----------------------------------------
 .byte   W96
@  #01 @065   ----------------------------------------
 .byte   W96
@  #01 @066   ----------------------------------------
 .byte   W96
@  #01 @067   ----------------------------------------
 .byte   W96
@  #01 @068   ----------------------------------------
 .byte   W96
@  #01 @069   ----------------------------------------
 .byte   W96
@  #01 @070   ----------------------------------------
 .byte   W96
@  #01 @071   ----------------------------------------
 .byte   W96
@  #01 @072   ----------------------------------------
 .byte   W96
@  #01 @073   ----------------------------------------
 .byte   W96
@  #01 @074   ----------------------------------------
 .byte   W96
@  #01 @075   ----------------------------------------
 .byte   W96
@  #01 @076   ----------------------------------------
 .byte   W96
@  #01 @077   ----------------------------------------
 .byte   W96
@  #01 @078   ----------------------------------------
 .byte   W96
@  #01 @079   ----------------------------------------
 .byte   W96
@  #01 @080   ----------------------------------------
 .byte   W96
@  #01 @081   ----------------------------------------
 .byte   W96
@  #01 @082   ----------------------------------------
 .byte   W96
@  #01 @083   ----------------------------------------
 .byte   W96
@  #01 @084   ----------------------------------------
 .byte   W96
@  #01 @085   ----------------------------------------
 .byte   W96
@  #01 @086   ----------------------------------------
 .byte   W96
@  #01 @087   ----------------------------------------
 .byte   W96
@  #01 @088   ----------------------------------------
 .byte   W96
@  #01 @089   ----------------------------------------
 .byte   W96
@  #01 @090   ----------------------------------------
 .byte   W96
@  #01 @091   ----------------------------------------
 .byte   W96
@  #01 @092   ----------------------------------------
 .byte   W96
@  #01 @093   ----------------------------------------
 .byte   W96
@  #01 @094   ----------------------------------------
 .byte   W96
@  #01 @095   ----------------------------------------
 .byte   W96
@  #01 @096   ----------------------------------------
 .byte   W96
@  #01 @097   ----------------------------------------
 .byte   W96
@  #01 @098   ----------------------------------------
 .byte   W96
@  #01 @099   ----------------------------------------
 .byte   W96
@  #01 @100   ----------------------------------------
 .byte   W96
@  #01 @101   ----------------------------------------
 .byte   W96
@  #01 @102   ----------------------------------------
 .byte   W96
@  #01 @103   ----------------------------------------
 .byte   W96
@  #01 @104   ----------------------------------------
 .byte   W96
@  #01 @105   ----------------------------------------
 .byte   W96
@  #01 @106   ----------------------------------------
 .byte   W96
@  #01 @107   ----------------------------------------
 .byte   W72
 .byte   GOTO
  .word Label_01005212
@  #01 @108   ----------------------------------------
 .byte   W24
 .byte   W96
@  #01 @109   ----------------------------------------
 .byte   W96
@  #01 @110   ----------------------------------------
 .byte   W96
@  #01 @111   ----------------------------------------
 .byte   W96
@  #01 @112   ----------------------------------------
 .byte   W96
@  #01 @113   ----------------------------------------
 .byte   W96
@  #01 @114   ----------------------------------------
 .byte   W96
@  #01 @115   ----------------------------------------
 .byte   W96
@  #01 @116   ----------------------------------------
 .byte   W96
@  #01 @117   ----------------------------------------
 .byte   W96
@  #01 @118   ----------------------------------------
 .byte   W96
@  #01 @119   ----------------------------------------
 .byte   W24
 .byte   W48
 .byte   N23 ,Cs3 ,v112
 .byte   W24
@  #01 @120   ----------------------------------------
 .byte   Ds3
 .byte   W24
Label_01005348:
 .byte   N11 ,En3 ,v112
 .byte   W12
 .byte   Gs3
 .byte   W12
 .byte   N32
 .byte   W48
@  #01 @121   ----------------------------------------
 .byte   N11 ,En3
 .byte   W12
 .byte   Bn3
 .byte   W12
 .byte   PEND 
 .byte   N32
 .byte   W48
 .byte   N23
 .byte   W24
@  #01 @122   ----------------------------------------
 .byte   Cs4
 .byte   W24
 .byte   BEND , c_v+0
 .byte   N92
 .byte   W01
 .byte   BEND , c_v+0
 .byte   W01
 .byte   BEND , c_v+1
 .byte   W01
 .byte   BEND , c_v+1
 .byte   W01
 .byte   BEND , c_v+2
 .byte   W01
 .byte   BEND , c_v+2
 .byte   W01
 .byte   BEND , c_v+2
 .byte   W01
 .byte   BEND , c_v+3
 .byte   W01
 .byte   BEND , c_v+3
 .byte   W01
 .byte   BEND , c_v+4
 .byte   W01
 .byte   BEND , c_v+4
 .byte   W01
 .byte   BEND , c_v+4
 .byte   W01
 .byte   BEND , c_v+5
 .byte   W01
 .byte   BEND , c_v+5
 .byte   W01
 .byte   BEND , c_v+6
 .byte   W01
 .byte   BEND , c_v+6
 .byte   W01
 .byte   BEND , c_v+7
 .byte   W01
 .byte   BEND , c_v+7
 .byte   W01
 .byte   BEND , c_v+8
 .byte   W01
 .byte   BEND , c_v+8
 .byte   W01
 .byte   BEND , c_v+9
 .byte   W01
 .byte   BEND , c_v+9
 .byte   W01
 .byte   BEND , c_v+9
 .byte   W01
 .byte   BEND , c_v+10
 .byte   W01
 .byte   BEND , c_v+10
 .byte   W72
@  #01 @123   ----------------------------------------
 .byte   BEND , c_v+0
 .byte   N56
 .byte   W72
 .byte   N11
 .byte   W12
 .byte   Gs3
 .byte   W12
@  #01 @124   ----------------------------------------
 .byte   Cs3
 .byte   W12
 .byte   Gs3
 .byte   W12
 .byte   N32
 .byte   W48
 .byte   N11 ,An3
 .byte   W12
 .byte   N05 ,Gs3
 .byte   W06
 .byte   An3
 .byte   W06
@  #01 @125   ----------------------------------------
 .byte   N56 ,Fs3
 .byte   W72
 .byte   N11 ,En3
 .byte   W12
 .byte   Ds3
 .byte   W12
@  #01 @126   ----------------------------------------
 .byte   N44 ,En3
 .byte   W48
 .byte   Fs3
 .byte   W48
@  #01 @127   ----------------------------------------
 .byte   N56 ,Gs3
 .byte   W72
 .byte   N11 ,Cs3
 .byte   W12
 .byte   Ds3
 .byte   W12
@  #01 @128   ----------------------------------------
 .byte   PATT
  .word Label_01005348
@  #01 @129   ----------------------------------------
 .byte   N32 ,Bn3 ,v112
 .byte   W48
 .byte   N23
 .byte   W24
 .byte   BEND , c_v+0
 .byte   N23 ,Cs4
 .byte   W20
 .byte   BEND , c_v+2
 .byte   W01
 .byte   BEND , c_v+4
 .byte   W01
 .byte   BEND , c_v+6
 .byte   W01
 .byte   BEND , c_v+8
 .byte   W01
@  #01 @130   ----------------------------------------
 .byte   BEND , c_v+0
 .byte   N92 ,Ds4
 .byte   W96
@  #01 @131   ----------------------------------------
 .byte   BEND , c_v+0
 .byte   N44
 .byte   W01
 .byte   BEND , c_v+0
 .byte   W01
 .byte   BEND , c_v+0
 .byte   W01
 .byte   BEND , c_v+0
 .byte   W01
 .byte   BEND , c_v+1
 .byte   W01
 .byte   BEND , c_v+1
 .byte   W01
 .byte   BEND , c_v+1
 .byte   W01
 .byte   BEND , c_v+1
 .byte   W01
 .byte   BEND , c_v+2
 .byte   W01
 .byte   BEND , c_v+2
 .byte   W01
 .byte   BEND , c_v+2
 .byte   W01
 .byte   BEND , c_v+2
 .byte   W01
 .byte   BEND , c_v+3
 .byte   W01
 .byte   BEND , c_v+3
 .byte   W01
 .byte   BEND , c_v+3
 .byte   W01
 .byte   BEND , c_v+4
 .byte   W01
 .byte   BEND , c_v+4
 .byte   W01
 .byte   BEND , c_v+4
 .byte   W01
 .byte   BEND , c_v+4
 .byte   W01
 .byte   BEND , c_v+5
 .byte   W01
 .byte   BEND , c_v+5
 .byte   W28
 .byte   BEND , c_v+0
 .byte   N11 ,En4
 .byte   W12
 .byte   Ds4
 .byte   W12
 .byte   Cs4
 .byte   W12
 .byte   Bn3
 .byte   W12
@  #01 @132   ----------------------------------------
Label_0100540F:
 .byte   N32 ,Gs3 ,v112
 .byte   W36
 .byte   Fs3
 .byte   W36
 .byte   N23 ,Bn3
 .byte   W24
 .byte   PEND 
@  #01 @133   ----------------------------------------
 .byte   N56 ,Gs3
 .byte   W72
 .byte   N11 ,En3
 .byte   W12
 .byte   Fs3
 .byte   W12
@  #01 @134   ----------------------------------------
 .byte   PATT
  .word Label_0100540F
@  #01 @135   ----------------------------------------
 .byte   N92 ,Gs3 ,v112
 .byte   W96
@  #01 @136   ----------------------------------------
 .byte   W96
@  #01 @137   ----------------------------------------
 .byte   W96
@  #01 @138   ----------------------------------------
 .byte   W96
@  #01 @139   ----------------------------------------
 .byte   W96
@  #01 @140   ----------------------------------------
 .byte   W96
@  #01 @141   ----------------------------------------
 .byte   W96
@  #01 @142   ----------------------------------------
 .byte   W96
@  #01 @143   ----------------------------------------
 .byte   W96
@  #01 @144   ----------------------------------------
 .byte   W96
@  #01 @145   ----------------------------------------
 .byte   W96
@  #01 @146   ----------------------------------------
 .byte   W96
@  #01 @147   ----------------------------------------
 .byte   W96
@  #01 @148   ----------------------------------------
 .byte   W96
@  #01 @149   ----------------------------------------
 .byte   W96
@  #01 @150   ----------------------------------------
 .byte   W96
@  #01 @151   ----------------------------------------
 .byte   W92
 .byte   W03
 .byte   FINE

@**************** Track 2 (Midi-Chn.1) ****************@

song04_002:
@  #02 @000   ----------------------------------------
 .byte   KEYSH , song04_key+0
 .byte   VOICE , 36
 .byte   VOL , 50*song04_mvl/mxv
 .byte   PAN , c_v+0
 .byte   VOL , 43*song04_mvl/mxv
 .byte   PAN , c_v-2
 .byte   W96
@  #02 @001   ----------------------------------------
 .byte   W96
@  #02 @002   ----------------------------------------
 .byte   W96
@  #02 @003   ----------------------------------------
 .byte   W96
@  #02 @004   ----------------------------------------
 .byte   W96
@  #02 @005   ----------------------------------------
 .byte   W96
@  #02 @006   ----------------------------------------
 .byte   W96
@  #02 @007   ----------------------------------------
 .byte   W96
@  #02 @008   ----------------------------------------
 .byte   W96
@  #02 @009   ----------------------------------------
 .byte   W96
@  #02 @010   ----------------------------------------
 .byte   W96
@  #02 @011   ----------------------------------------
 .byte   W96
@  #02 @012   ----------------------------------------
 .byte   W96
@  #02 @013   ----------------------------------------
 .byte   W96
@  #02 @014   ----------------------------------------
 .byte   W96
@  #02 @015   ----------------------------------------
 .byte   W96
@  #02 @016   ----------------------------------------
Label_01005468:
 .byte   N11 ,Cs2 ,v112
 .byte   W12
 .byte   N23 ,Cs3
 .byte   W24
 .byte   N11 ,Cs2
 .byte   W12
 .byte   N23 ,Fs2
 .byte   W24
 .byte   N11 ,Cs2
 .byte   W12
 .byte   N23 ,Cs3
 .byte   W12
 .byte   PEND 
@  #02 @017   ----------------------------------------
Label_0100547C:
 .byte   W12
 .byte   N11 ,Cs2 ,v112
 .byte   W12
 .byte   N23 ,Fs2
 .byte   W24
 .byte   En2
 .byte   W24
 .byte   N11 ,Fs2
 .byte   W12
 .byte   Cs2
 .byte   W12
 .byte   PEND 
@  #02 @018   ----------------------------------------
 .byte   PATT
  .word Label_01005468
@  #02 @019   ----------------------------------------
Label_01005491:
 .byte   W12
 .byte   N23 ,Gn2 ,v112
 .byte   W24
 .byte   N11 ,Cs2
 .byte   W12
 .byte   N44 ,Dn2
 .byte   W48
 .byte   PEND 
@  #02 @020   ----------------------------------------
 .byte   PATT
  .word Label_01005468
@  #02 @021   ----------------------------------------
 .byte   PATT
  .word Label_0100547C
@  #02 @022   ----------------------------------------
Label_010054A7:
 .byte   N11 ,Cs2 ,v112
 .byte   W12
 .byte   N23 ,Cs3
 .byte   W24
 .byte   N11 ,Cs2
 .byte   W12
 .byte   N23 ,Fs2
 .byte   W24
 .byte   N11 ,Cs2
 .byte   W12
 .byte   N23 ,En2
 .byte   W12
 .byte   PEND 
@  #02 @023   ----------------------------------------
Label_010054BB:
 .byte   W12
 .byte   N11 ,Cs2 ,v112
 .byte   W12
 .byte   N23 ,Dn2
 .byte   W24
 .byte   Bn1
 .byte   W24
 .byte   Dn2
 .byte   W24
 .byte   PEND 
@  #02 @024   ----------------------------------------
 .byte   PATT
  .word Label_01005468
@  #02 @025   ----------------------------------------
 .byte   PATT
  .word Label_0100547C
@  #02 @026   ----------------------------------------
 .byte   PATT
  .word Label_01005468
@  #02 @027   ----------------------------------------
 .byte   PATT
  .word Label_01005491
@  #02 @028   ----------------------------------------
 .byte   PATT
  .word Label_01005468
@  #02 @029   ----------------------------------------
 .byte   PATT
  .word Label_0100547C
@  #02 @030   ----------------------------------------
 .byte   PATT
  .word Label_010054A7
@  #02 @031   ----------------------------------------
 .byte   PATT
  .word Label_010054BB
@  #02 @032   ----------------------------------------
Label_010054F0:
 .byte   W96
@  #02 @033   ----------------------------------------
 .byte   W96
@  #02 @034   ----------------------------------------
 .byte   W96
@  #02 @035   ----------------------------------------
 .byte   W96
@  #02 @036   ----------------------------------------
 .byte   W96
@  #02 @037   ----------------------------------------
 .byte   W96
@  #02 @038   ----------------------------------------
 .byte   W96
@  #02 @039   ----------------------------------------
 .byte   W96
@  #02 @040   ----------------------------------------
 .byte   W96
@  #02 @041   ----------------------------------------
 .byte   W96
@  #02 @042   ----------------------------------------
 .byte   W96
@  #02 @043   ----------------------------------------
 .byte   W24
 .byte   W96
@  #02 @044   ----------------------------------------
Label_010054FD:
 .byte   N11 ,An1 ,v112
 .byte   N11 ,En2
 .byte   W12
 .byte   An1
 .byte   N11 ,En2
 .byte   W12
 .byte   An1
 .byte   N11 ,En2
 .byte   W12
 .byte   An1
 .byte   N11 ,En2
 .byte   W12
 .byte   An1
 .byte   N11 ,En2
 .byte   W12
 .byte   An1
 .byte   N11 ,En2
 .byte   W12
 .byte   An1
 .byte   N11 ,En2
 .byte   W12
 .byte   An1
 .byte   N11 ,En2
 .byte   W12
 .byte   PEND 
@  #02 @045   ----------------------------------------
Label_01005520:
 .byte   N11 ,Bn1 ,v112
 .byte   N11 ,Fs2
 .byte   W12
 .byte   Bn1
 .byte   N11 ,Fs2
 .byte   W12
 .byte   Bn1
 .byte   N11 ,Fs2
 .byte   W12
 .byte   Bn1
 .byte   N11 ,Fs2
 .byte   W12
 .byte   Bn1
 .byte   N11 ,Fs2
 .byte   W12
 .byte   Bn1
 .byte   N11 ,Fs2
 .byte   W12
 .byte   Bn1
 .byte   N11 ,Fs2
 .byte   W12
 .byte   Bn1
 .byte   N11 ,Fs2
 .byte   W12
 .byte   PEND 
@  #02 @046   ----------------------------------------
Label_01005543:
 .byte   N11 ,Gs1 ,v112
 .byte   N11 ,Ds2
 .byte   W12
 .byte   Gs1
 .byte   N11 ,Ds2
 .byte   W12
 .byte   Gs1
 .byte   N11 ,Ds2
 .byte   W12
 .byte   Gs1
 .byte   N11 ,Ds2
 .byte   W12
 .byte   Gs1
 .byte   N11 ,Ds2
 .byte   W12
 .byte   Gs1
 .byte   N11 ,Ds2
 .byte   W12
 .byte   Gs1
 .byte   N11 ,Ds2
 .byte   W12
 .byte   Gs1
 .byte   N11 ,Ds2
 .byte   W12
 .byte   PEND 
@  #02 @047   ----------------------------------------
Label_01005566:
 .byte   N11 ,Cs2 ,v112
 .byte   N11 ,Gs2
 .byte   W12
 .byte   Cs2
 .byte   N11 ,Gs2
 .byte   W12
 .byte   Cs2
 .byte   N11 ,Gs2
 .byte   W12
 .byte   Cs2
 .byte   N11 ,Gs2
 .byte   W12
 .byte   Cs2
 .byte   N11 ,Gs2
 .byte   W12
 .byte   Cs2
 .byte   N11 ,Gs2
 .byte   W12
 .byte   Cs2
 .byte   N11 ,Gs2
 .byte   W12
 .byte   Cs2
 .byte   N11 ,Gs2
 .byte   W12
 .byte   PEND 
@  #02 @048   ----------------------------------------
 .byte   PATT
  .word Label_010054FD
@  #02 @049   ----------------------------------------
 .byte   PATT
  .word Label_01005520
@  #02 @050   ----------------------------------------
 .byte   PATT
  .word Label_01005566
@  #02 @051   ----------------------------------------
 .byte   PATT
  .word Label_01005566
@  #02 @052   ----------------------------------------
 .byte   PATT
  .word Label_010054FD
@  #02 @053   ----------------------------------------
 .byte   PATT
  .word Label_01005520
@  #02 @054   ----------------------------------------
 .byte   PATT
  .word Label_01005543
@  #02 @055   ----------------------------------------
 .byte   PATT
  .word Label_01005566
@  #02 @056   ----------------------------------------
Label_010055B1:
 .byte   N11 ,Fs1 ,v112
 .byte   N11 ,Cs2
 .byte   W12
 .byte   Fs1
 .byte   N11 ,Cs2
 .byte   W12
 .byte   Fs1
 .byte   N11 ,Cs2
 .byte   W12
 .byte   Fs1
 .byte   N11 ,Cs2
 .byte   W12
 .byte   Fs1
 .byte   N11 ,Cs2
 .byte   W12
 .byte   Fs1
 .byte   N11 ,Cs2
 .byte   W12
 .byte   Fs1
 .byte   N11 ,Cs2
 .byte   W12
 .byte   Fs1
 .byte   N11 ,Cs2
 .byte   W12
 .byte   PEND 
@  #02 @057   ----------------------------------------
 .byte   PATT
  .word Label_010055B1
@  #02 @058   ----------------------------------------
 .byte   PATT
  .word Label_01005543
@  #02 @059   ----------------------------------------
 .byte   PATT
  .word Label_01005543
@  #02 @060   ----------------------------------------
 .byte   W96
@  #02 @061   ----------------------------------------
 .byte   W96
@  #02 @062   ----------------------------------------
 .byte   W96
@  #02 @063   ----------------------------------------
 .byte   W96
@  #02 @064   ----------------------------------------
 .byte   W96
@  #02 @065   ----------------------------------------
 .byte   W96
@  #02 @066   ----------------------------------------
 .byte   W96
@  #02 @067   ----------------------------------------
 .byte   W96
@  #02 @068   ----------------------------------------
 .byte   W96
@  #02 @069   ----------------------------------------
 .byte   W96
@  #02 @070   ----------------------------------------
 .byte   W96
@  #02 @071   ----------------------------------------
 .byte   W96
@  #02 @072   ----------------------------------------
 .byte   W96
@  #02 @073   ----------------------------------------
 .byte   W96
@  #02 @074   ----------------------------------------
 .byte   W96
@  #02 @075   ----------------------------------------
 .byte   W96
@  #02 @076   ----------------------------------------
 .byte   W96
@  #02 @077   ----------------------------------------
 .byte   W96
@  #02 @078   ----------------------------------------
 .byte   W96
@  #02 @079   ----------------------------------------
 .byte   W96
@  #02 @080   ----------------------------------------
 .byte   W96
@  #02 @081   ----------------------------------------
 .byte   W96
@  #02 @082   ----------------------------------------
 .byte   W96
@  #02 @083   ----------------------------------------
 .byte   W96
@  #02 @084   ----------------------------------------
 .byte   W96
@  #02 @085   ----------------------------------------
 .byte   W96
@  #02 @086   ----------------------------------------
 .byte   W96
@  #02 @087   ----------------------------------------
 .byte   W96
@  #02 @088   ----------------------------------------
 .byte   W96
@  #02 @089   ----------------------------------------
 .byte   W96
@  #02 @090   ----------------------------------------
 .byte   W96
@  #02 @091   ----------------------------------------
 .byte   W96
@  #02 @092   ----------------------------------------
 .byte   PATT
  .word Label_01005468
@  #02 @093   ----------------------------------------
 .byte   PATT
  .word Label_0100547C
@  #02 @094   ----------------------------------------
 .byte   PATT
  .word Label_01005468
@  #02 @095   ----------------------------------------
 .byte   PATT
  .word Label_01005491
@  #02 @096   ----------------------------------------
 .byte   PATT
  .word Label_01005468
@  #02 @097   ----------------------------------------
 .byte   PATT
  .word Label_0100547C
@  #02 @098   ----------------------------------------
 .byte   PATT
  .word Label_010054A7
@  #02 @099   ----------------------------------------
 .byte   PATT
  .word Label_010054BB
@  #02 @100   ----------------------------------------
 .byte   PATT
  .word Label_01005468
@  #02 @101   ----------------------------------------
 .byte   PATT
  .word Label_0100547C
@  #02 @102   ----------------------------------------
 .byte   PATT
  .word Label_01005468
@  #02 @103   ----------------------------------------
 .byte   PATT
  .word Label_01005491
@  #02 @104   ----------------------------------------
 .byte   PATT
  .word Label_01005468
@  #02 @105   ----------------------------------------
 .byte   PATT
  .word Label_0100547C
@  #02 @106   ----------------------------------------
 .byte   PATT
  .word Label_010054A7
@  #02 @107   ----------------------------------------
 .byte   W12
 .byte   N11 ,Cs2 ,v112
 .byte   W12
 .byte   N23 ,Dn2
 .byte   W24
 .byte   Bn1
 .byte   W24
 .byte   GOTO
  .word Label_010054F0
@  #02 @108   ----------------------------------------
 .byte   N23 ,Dn2 ,v112
 .byte   W24
 .byte   W96
@  #02 @109   ----------------------------------------
 .byte   W96
@  #02 @110   ----------------------------------------
 .byte   W96
@  #02 @111   ----------------------------------------
 .byte   W96
@  #02 @112   ----------------------------------------
 .byte   W96
@  #02 @113   ----------------------------------------
 .byte   W96
@  #02 @114   ----------------------------------------
 .byte   W96
@  #02 @115   ----------------------------------------
 .byte   W96
@  #02 @116   ----------------------------------------
 .byte   W96
@  #02 @117   ----------------------------------------
 .byte   W96
@  #02 @118   ----------------------------------------
 .byte   W96
@  #02 @119   ----------------------------------------
 .byte   W24
 .byte   W96
@  #02 @120   ----------------------------------------
 .byte   PATT
  .word Label_010054FD
@  #02 @121   ----------------------------------------
 .byte   PATT
  .word Label_01005520
@  #02 @122   ----------------------------------------
 .byte   PATT
  .word Label_01005543
@  #02 @123   ----------------------------------------
 .byte   PATT
  .word Label_01005566
@  #02 @124   ----------------------------------------
 .byte   PATT
  .word Label_010054FD
@  #02 @125   ----------------------------------------
 .byte   PATT
  .word Label_01005520
@  #02 @126   ----------------------------------------
 .byte   PATT
  .word Label_01005566
@  #02 @127   ----------------------------------------
 .byte   PATT
  .word Label_01005566
@  #02 @128   ----------------------------------------
 .byte   PATT
  .word Label_010054FD
@  #02 @129   ----------------------------------------
 .byte   PATT
  .word Label_01005520
@  #02 @130   ----------------------------------------
 .byte   PATT
  .word Label_01005543
@  #02 @131   ----------------------------------------
 .byte   PATT
  .word Label_01005566
@  #02 @132   ----------------------------------------
 .byte   PATT
  .word Label_010055B1
@  #02 @133   ----------------------------------------
 .byte   PATT
  .word Label_010055B1
@  #02 @134   ----------------------------------------
 .byte   PATT
  .word Label_01005543
@  #02 @135   ----------------------------------------
 .byte   PATT
  .word Label_01005543
@  #02 @136   ----------------------------------------
 .byte   W96
@  #02 @137   ----------------------------------------
 .byte   W96
@  #02 @138   ----------------------------------------
 .byte   W96
@  #02 @139   ----------------------------------------
 .byte   W96
@  #02 @140   ----------------------------------------
 .byte   W96
@  #02 @141   ----------------------------------------
 .byte   W96
@  #02 @142   ----------------------------------------
 .byte   W96
@  #02 @143   ----------------------------------------
 .byte   W96
@  #02 @144   ----------------------------------------
 .byte   W96
@  #02 @145   ----------------------------------------
 .byte   W96
@  #02 @146   ----------------------------------------
 .byte   W96
@  #02 @147   ----------------------------------------
 .byte   W96
@  #02 @148   ----------------------------------------
 .byte   W96
@  #02 @149   ----------------------------------------
 .byte   W96
@  #02 @150   ----------------------------------------
 .byte   W96
@  #02 @151   ----------------------------------------
 .byte   W92
 .byte   W03
 .byte   FINE

@**************** Track 3 (Midi-Chn.2) ****************@

song04_003:
@  #03 @000   ----------------------------------------
 .byte   KEYSH , song04_key+0
 .byte   VOICE , 30
 .byte   VOL , 46*song04_mvl/mxv
 .byte   PAN , c_v+0
 .byte   VOL , 43*song04_mvl/mxv
 .byte   PAN , c_v-2
 .byte   N11 ,Cs2 ,v096
 .byte   N11 ,Gs2
 .byte   N11 ,Cs3
 .byte   W12
 .byte   Cs2
 .byte   N11 ,Gs2
 .byte   N11 ,Cs3
 .byte   W12
 .byte   Cs2
 .byte   N11 ,Gs2
 .byte   N11 ,Cs3
 .byte   W12
 .byte   Cs2
 .byte   N11 ,Gs2
 .byte   N11 ,Cs3
 .byte   W60
@  #03 @001   ----------------------------------------
Label_01005706:
 .byte   W72
 .byte   N11 ,Gs1 ,v096
 .byte   W12
 .byte   N11
 .byte   W12
 .byte   PEND 
@  #03 @002   ----------------------------------------
Label_0100570E:
 .byte   N11 ,Cs2 ,v096
 .byte   N11 ,Gs2
 .byte   N11 ,Cs3
 .byte   W12
 .byte   Cs2
 .byte   N11 ,Gs2
 .byte   N11 ,Cs3
 .byte   W12
 .byte   Cs2
 .byte   N11 ,Gs2
 .byte   N11 ,Cs3
 .byte   W12
 .byte   Cs2
 .byte   N11 ,Gs2
 .byte   N11 ,Cs3
 .byte   W60
 .byte   PEND 
@  #03 @003   ----------------------------------------
 .byte   PATT
  .word Label_01005706
@  #03 @004   ----------------------------------------
 .byte   PATT
  .word Label_0100570E
@  #03 @005   ----------------------------------------
 .byte   PATT
  .word Label_01005706
@  #03 @006   ----------------------------------------
 .byte   PATT
  .word Label_0100570E
@  #03 @007   ----------------------------------------
 .byte   W96
@  #03 @008   ----------------------------------------
 .byte   PATT
  .word Label_0100570E
@  #03 @009   ----------------------------------------
 .byte   PATT
  .word Label_01005706
@  #03 @010   ----------------------------------------
 .byte   PATT
  .word Label_0100570E
@  #03 @011   ----------------------------------------
 .byte   PATT
  .word Label_01005706
@  #03 @012   ----------------------------------------
 .byte   PATT
  .word Label_0100570E
@  #03 @013   ----------------------------------------
 .byte   PATT
  .word Label_01005706
@  #03 @014   ----------------------------------------
 .byte   PATT
  .word Label_0100570E
@  #03 @015   ----------------------------------------
 .byte   W96
@  #03 @016   ----------------------------------------
 .byte   PATT
  .word Label_0100570E
@  #03 @017   ----------------------------------------
 .byte   PATT
  .word Label_01005706
@  #03 @018   ----------------------------------------
 .byte   PATT
  .word Label_0100570E
@  #03 @019   ----------------------------------------
 .byte   PATT
  .word Label_01005706
@  #03 @020   ----------------------------------------
 .byte   PATT
  .word Label_0100570E
@  #03 @021   ----------------------------------------
 .byte   PATT
  .word Label_01005706
@  #03 @022   ----------------------------------------
 .byte   PATT
  .word Label_0100570E
@  #03 @023   ----------------------------------------
 .byte   PATT
  .word Label_01005706
@  #03 @024   ----------------------------------------
 .byte   PATT
  .word Label_0100570E
@  #03 @025   ----------------------------------------
 .byte   PATT
  .word Label_01005706
@  #03 @026   ----------------------------------------
 .byte   PATT
  .word Label_0100570E
@  #03 @027   ----------------------------------------
 .byte   PATT
  .word Label_01005706
@  #03 @028   ----------------------------------------
 .byte   PATT
  .word Label_0100570E
@  #03 @029   ----------------------------------------
 .byte   PATT
  .word Label_01005706
@  #03 @030   ----------------------------------------
 .byte   PATT
  .word Label_0100570E
@  #03 @031   ----------------------------------------
 .byte   W96
@  #03 @032   ----------------------------------------
Label_010057AE:
 .byte   W96
@  #03 @033   ----------------------------------------
 .byte   W96
@  #03 @034   ----------------------------------------
 .byte   W96
@  #03 @035   ----------------------------------------
 .byte   W96
@  #03 @036   ----------------------------------------
 .byte   W96
@  #03 @037   ----------------------------------------
 .byte   W96
@  #03 @038   ----------------------------------------
 .byte   W96
@  #03 @039   ----------------------------------------
 .byte   W96
@  #03 @040   ----------------------------------------
 .byte   W96
@  #03 @041   ----------------------------------------
 .byte   W96
@  #03 @042   ----------------------------------------
 .byte   W96
@  #03 @043   ----------------------------------------
 .byte   W24
 .byte   W96
@  #03 @044   ----------------------------------------
 .byte   W96
@  #03 @045   ----------------------------------------
 .byte   W96
@  #03 @046   ----------------------------------------
 .byte   W96
@  #03 @047   ----------------------------------------
 .byte   W96
@  #03 @048   ----------------------------------------
 .byte   W96
@  #03 @049   ----------------------------------------
 .byte   W96
@  #03 @050   ----------------------------------------
 .byte   W96
@  #03 @051   ----------------------------------------
 .byte   W96
@  #03 @052   ----------------------------------------
 .byte   W96
@  #03 @053   ----------------------------------------
 .byte   W96
@  #03 @054   ----------------------------------------
 .byte   W96
@  #03 @055   ----------------------------------------
 .byte   W96
@  #03 @056   ----------------------------------------
 .byte   W96
@  #03 @057   ----------------------------------------
 .byte   W96
@  #03 @058   ----------------------------------------
 .byte   W96
@  #03 @059   ----------------------------------------
 .byte   W96
@  #03 @060   ----------------------------------------
Label_010057CB:
 .byte   N11 ,Cs2 ,v064
 .byte   N11 ,Gs2
 .byte   N11 ,Cs3
 .byte   W12
 .byte   Cs2
 .byte   N11 ,Gs2
 .byte   N11 ,Cs3
 .byte   W12
 .byte   Cs2
 .byte   N11 ,Gs2
 .byte   N11 ,Cs3
 .byte   W12
 .byte   Cs2
 .byte   N11 ,Gs2
 .byte   N11 ,Cs3
 .byte   W60
 .byte   PEND 
@  #03 @061   ----------------------------------------
Label_010057E6:
 .byte   W72
 .byte   N11 ,Gs1 ,v064
 .byte   W12
 .byte   N11
 .byte   W12
 .byte   PEND 
@  #03 @062   ----------------------------------------
 .byte   PATT
  .word Label_010057CB
@  #03 @063   ----------------------------------------
 .byte   PATT
  .word Label_010057E6
@  #03 @064   ----------------------------------------
 .byte   PATT
  .word Label_010057CB
@  #03 @065   ----------------------------------------
 .byte   PATT
  .word Label_010057E6
@  #03 @066   ----------------------------------------
 .byte   PATT
  .word Label_010057CB
@  #03 @067   ----------------------------------------
 .byte   PATT
  .word Label_010057E6
@  #03 @068   ----------------------------------------
 .byte   PATT
  .word Label_010057CB
@  #03 @069   ----------------------------------------
 .byte   PATT
  .word Label_010057E6
@  #03 @070   ----------------------------------------
 .byte   PATT
  .word Label_010057CB
@  #03 @071   ----------------------------------------
 .byte   PATT
  .word Label_010057E6
@  #03 @072   ----------------------------------------
 .byte   PATT
  .word Label_010057CB
@  #03 @073   ----------------------------------------
 .byte   PATT
  .word Label_010057E6
@  #03 @074   ----------------------------------------
 .byte   PATT
  .word Label_010057CB
@  #03 @075   ----------------------------------------
 .byte   PATT
  .word Label_010057E6
@  #03 @076   ----------------------------------------
 .byte   PATT
  .word Label_010057CB
@  #03 @077   ----------------------------------------
Label_01005839:
 .byte   W72
 .byte   N11 ,Gs1 ,v080
 .byte   W12
 .byte   N11
 .byte   W12
 .byte   PEND 
@  #03 @078   ----------------------------------------
Label_01005841:
 .byte   N11 ,Cs2 ,v080
 .byte   N11 ,Gs2
 .byte   N11 ,Cs3
 .byte   W12
 .byte   Cs2
 .byte   N11 ,Gs2
 .byte   N11 ,Cs3
 .byte   W12
 .byte   Cs2
 .byte   N11 ,Gs2
 .byte   N11 ,Cs3
 .byte   W12
 .byte   Cs2
 .byte   N11 ,Gs2
 .byte   N11 ,Cs3
 .byte   W60
 .byte   PEND 
@  #03 @079   ----------------------------------------
 .byte   PATT
  .word Label_01005839
@  #03 @080   ----------------------------------------
 .byte   PATT
  .word Label_01005841
@  #03 @081   ----------------------------------------
 .byte   PATT
  .word Label_01005839
@  #03 @082   ----------------------------------------
 .byte   PATT
  .word Label_01005841
@  #03 @083   ----------------------------------------
 .byte   PATT
  .word Label_01005839
@  #03 @084   ----------------------------------------
 .byte   PATT
  .word Label_01005841
@  #03 @085   ----------------------------------------
 .byte   PATT
  .word Label_01005839
@  #03 @086   ----------------------------------------
 .byte   PATT
  .word Label_01005841
@  #03 @087   ----------------------------------------
 .byte   PATT
  .word Label_01005839
@  #03 @088   ----------------------------------------
 .byte   PATT
  .word Label_01005841
@  #03 @089   ----------------------------------------
 .byte   PATT
  .word Label_01005839
@  #03 @090   ----------------------------------------
 .byte   PATT
  .word Label_01005841
@  #03 @091   ----------------------------------------
 .byte   PATT
  .word Label_01005839
@  #03 @092   ----------------------------------------
 .byte   PATT
  .word Label_01005841
@  #03 @093   ----------------------------------------
 .byte   PATT
  .word Label_01005839
@  #03 @094   ----------------------------------------
 .byte   PATT
  .word Label_01005841
@  #03 @095   ----------------------------------------
 .byte   PATT
  .word Label_01005839
@  #03 @096   ----------------------------------------
 .byte   PATT
  .word Label_01005841
@  #03 @097   ----------------------------------------
 .byte   PATT
  .word Label_01005839
@  #03 @098   ----------------------------------------
 .byte   PATT
  .word Label_01005841
@  #03 @099   ----------------------------------------
 .byte   PATT
  .word Label_01005839
@  #03 @100   ----------------------------------------
 .byte   PATT
  .word Label_01005841
@  #03 @101   ----------------------------------------
 .byte   PATT
  .word Label_01005839
@  #03 @102   ----------------------------------------
 .byte   PATT
  .word Label_01005841
@  #03 @103   ----------------------------------------
 .byte   PATT
  .word Label_01005839
@  #03 @104   ----------------------------------------
 .byte   PATT
  .word Label_01005841
@  #03 @105   ----------------------------------------
 .byte   PATT
  .word Label_01005839
@  #03 @106   ----------------------------------------
 .byte   PATT
  .word Label_01005841
@  #03 @107   ----------------------------------------
 .byte   W72
 .byte   GOTO
  .word Label_010057AE
@  #03 @108   ----------------------------------------
 .byte   W24
 .byte   W96
@  #03 @109   ----------------------------------------
 .byte   W96
@  #03 @110   ----------------------------------------
 .byte   W96
@  #03 @111   ----------------------------------------
 .byte   W96
@  #03 @112   ----------------------------------------
 .byte   W96
@  #03 @113   ----------------------------------------
 .byte   W96
@  #03 @114   ----------------------------------------
 .byte   W96
@  #03 @115   ----------------------------------------
 .byte   W96
@  #03 @116   ----------------------------------------
 .byte   W96
@  #03 @117   ----------------------------------------
 .byte   W96
@  #03 @118   ----------------------------------------
 .byte   W96
@  #03 @119   ----------------------------------------
 .byte   W24
 .byte   W96
@  #03 @120   ----------------------------------------
 .byte   W96
@  #03 @121   ----------------------------------------
 .byte   W96
@  #03 @122   ----------------------------------------
 .byte   W96
@  #03 @123   ----------------------------------------
 .byte   W96
@  #03 @124   ----------------------------------------
 .byte   W96
@  #03 @125   ----------------------------------------
 .byte   W96
@  #03 @126   ----------------------------------------
 .byte   W96
@  #03 @127   ----------------------------------------
 .byte   W96
@  #03 @128   ----------------------------------------
 .byte   W96
@  #03 @129   ----------------------------------------
 .byte   W96
@  #03 @130   ----------------------------------------
 .byte   W96
@  #03 @131   ----------------------------------------
 .byte   W96
@  #03 @132   ----------------------------------------
 .byte   W96
@  #03 @133   ----------------------------------------
 .byte   W96
@  #03 @134   ----------------------------------------
 .byte   W96
@  #03 @135   ----------------------------------------
 .byte   W96
@  #03 @136   ----------------------------------------
 .byte   PATT
  .word Label_01005841
@  #03 @137   ----------------------------------------
 .byte   PATT
  .word Label_01005839
@  #03 @138   ----------------------------------------
 .byte   PATT
  .word Label_01005841
@  #03 @139   ----------------------------------------
 .byte   PATT
  .word Label_01005839
@  #03 @140   ----------------------------------------
 .byte   PATT
  .word Label_01005841
@  #03 @141   ----------------------------------------
 .byte   PATT
  .word Label_01005839
@  #03 @142   ----------------------------------------
 .byte   PATT
  .word Label_01005841
@  #03 @143   ----------------------------------------
 .byte   W96
@  #03 @144   ----------------------------------------
 .byte   PATT
  .word Label_01005841
@  #03 @145   ----------------------------------------
 .byte   PATT
  .word Label_01005839
@  #03 @146   ----------------------------------------
 .byte   PATT
  .word Label_01005841
@  #03 @147   ----------------------------------------
 .byte   PATT
  .word Label_01005839
@  #03 @148   ----------------------------------------
 .byte   PATT
  .word Label_01005841
@  #03 @149   ----------------------------------------
 .byte   PATT
  .word Label_01005839
@  #03 @150   ----------------------------------------
 .byte   PATT
  .word Label_01005841
@  #03 @151   ----------------------------------------
 .byte   W92
 .byte   W03
 .byte   FINE

@**************** Track 4 (Midi-Chn.3) ****************@

song04_004:
@  #04 @000   ----------------------------------------
 .byte   KEYSH , song04_key+0
 .byte   VOICE , 18
 .byte   VOL , 46*song04_mvl/mxv
 .byte   PAN , c_v-1
 .byte   VOL , 46*song04_mvl/mxv
 .byte   PAN , c_v+0
 .byte   W96
@  #04 @001   ----------------------------------------
Label_01005975:
 .byte   W12
 .byte   N11 ,Gn4 ,v080
 .byte   W12
 .byte   N05 ,Gs4
 .byte   W12
 .byte   N11
 .byte   W60
 .byte   PEND 
@  #04 @002   ----------------------------------------
Label_01005980:
 .byte   W72
 .byte   N23 ,Gs3 ,v080
 .byte   W24
 .byte   PEND 
@  #04 @003   ----------------------------------------
Label_01005986:
 .byte   W36
 .byte   N11 ,Gn3 ,v080
 .byte   W12
 .byte   N05 ,Gs3
 .byte   W12
 .byte   N11
 .byte   W36
 .byte   PEND 
@  #04 @004   ----------------------------------------
 .byte   W96
@  #04 @005   ----------------------------------------
 .byte   PATT
  .word Label_01005975
@  #04 @006   ----------------------------------------
 .byte   PATT
  .word Label_01005980
@  #04 @007   ----------------------------------------
Label_0100599C:
 .byte   W36
 .byte   N11 ,Gn3 ,v080
 .byte   W12
 .byte   N05 ,Gs3
 .byte   W12
 .byte   N11
 .byte   W36
 .byte   PEND 
@  #04 @008   ----------------------------------------
 .byte   W96
@  #04 @009   ----------------------------------------
 .byte   PATT
  .word Label_01005975
@  #04 @010   ----------------------------------------
 .byte   PATT
  .word Label_01005980
@  #04 @011   ----------------------------------------
 .byte   PATT
  .word Label_01005986
@  #04 @012   ----------------------------------------
 .byte   W96
@  #04 @013   ----------------------------------------
 .byte   PATT
  .word Label_01005975
@  #04 @014   ----------------------------------------
 .byte   PATT
  .word Label_01005980
@  #04 @015   ----------------------------------------
 .byte   PATT
  .word Label_0100599C
@  #04 @016   ----------------------------------------
 .byte   W96
@  #04 @017   ----------------------------------------
 .byte   W12
 .byte   N11 ,Gn4 ,v080
 .byte   W12
 .byte   N05 ,Gs4
 .byte   W12
 .byte   N11
 .byte   W60
@  #04 @018   ----------------------------------------
 .byte   W72
 .byte   N23 ,Gs3
 .byte   W24
@  #04 @019   ----------------------------------------
Label_010059D6:
 .byte   W36
 .byte   N11 ,Gn3 ,v080
 .byte   W12
 .byte   N05 ,Gs3
 .byte   W12
 .byte   N11
 .byte   W36
 .byte   PEND 
@  #04 @020   ----------------------------------------
 .byte   W96
@  #04 @021   ----------------------------------------
Label_010059E2:
 .byte   W12
 .byte   N11 ,Gn4 ,v080
 .byte   W12
 .byte   N05 ,Gs4
 .byte   W12
 .byte   N11
 .byte   W60
 .byte   PEND 
@  #04 @022   ----------------------------------------
 .byte   W72
 .byte   N23 ,Gs3
 .byte   W24
@  #04 @023   ----------------------------------------
 .byte   PATT
  .word Label_010059D6
@  #04 @024   ----------------------------------------
 .byte   W96
@  #04 @025   ----------------------------------------
 .byte   PATT
  .word Label_01005975
@  #04 @026   ----------------------------------------
 .byte   PATT
  .word Label_01005980
@  #04 @027   ----------------------------------------
 .byte   PATT
  .word Label_01005986
@  #04 @028   ----------------------------------------
 .byte   W96
@  #04 @029   ----------------------------------------
 .byte   PATT
  .word Label_01005975
@  #04 @030   ----------------------------------------
 .byte   PATT
  .word Label_01005980
@  #04 @031   ----------------------------------------
 .byte   PATT
  .word Label_0100599C
@  #04 @032   ----------------------------------------
Label_01005A16:
 .byte   W96
@  #04 @033   ----------------------------------------
Label_01005A17:
 .byte   W12
 .byte   N11 ,Gn2 ,v120
 .byte   N11 ,Dn3
 .byte   N11 ,Gn3
 .byte   W01
 .byte   W01
 .byte   W01
 .byte   W01
 .byte   W01
 .byte   W19
 .byte   Fs2
 .byte   N11 ,Cs3
 .byte   N11 ,Fs3
 .byte   W01
 .byte   W01
 .byte   W01
 .byte   W01
 .byte   W01
 .byte   W54
 .byte   W01
 .byte   PEND 
@  #04 @034   ----------------------------------------
Label_01005A32:
 .byte   W60
 .byte   N17 ,En2 ,v120
 .byte   N17 ,Bn2
 .byte   N17 ,En3
 .byte   W01
 .byte   W01
 .byte   W01
 .byte   W01
 .byte   W01
 .byte   W30
 .byte   W01
 .byte   PEND 
@  #04 @035   ----------------------------------------
 .byte   W96
@  #04 @036   ----------------------------------------
 .byte   PATT
  .word Label_01005A17
@  #04 @037   ----------------------------------------
 .byte   W96
@  #04 @038   ----------------------------------------
 .byte   W96
@  #04 @039   ----------------------------------------
 .byte   PATT
  .word Label_01005A17
@  #04 @040   ----------------------------------------
 .byte   PATT
  .word Label_01005A32
@  #04 @041   ----------------------------------------
 .byte   W96
@  #04 @042   ----------------------------------------
Label_01005A55:
 .byte   W12
 .byte   N11 ,Gn2 ,v120
 .byte   N11 ,Dn3
 .byte   N11 ,Gn3
 .byte   W01
 .byte   W01
 .byte   W01
 .byte   W01
 .byte   W01
 .byte   W19
 .byte   Fs2
 .byte   N11 ,Cs3
 .byte   N11 ,Fs3
 .byte   W01
 .byte   W01
 .byte   W01
 .byte   W01
 .byte   W01
 .byte   W78
@  #04 @043   ----------------------------------------
 .byte   W01
 .byte   PEND 
 .byte   W96
@  #04 @044   ----------------------------------------
 .byte   W96
@  #04 @045   ----------------------------------------
 .byte   W96
@  #04 @046   ----------------------------------------
 .byte   W96
@  #04 @047   ----------------------------------------
 .byte   W96
@  #04 @048   ----------------------------------------
 .byte   W96
@  #04 @049   ----------------------------------------
 .byte   W96
@  #04 @050   ----------------------------------------
 .byte   W96
@  #04 @051   ----------------------------------------
 .byte   W96
@  #04 @052   ----------------------------------------
 .byte   W96
@  #04 @053   ----------------------------------------
 .byte   W96
@  #04 @054   ----------------------------------------
 .byte   W96
@  #04 @055   ----------------------------------------
 .byte   W96
@  #04 @056   ----------------------------------------
 .byte   W96
@  #04 @057   ----------------------------------------
 .byte   W96
@  #04 @058   ----------------------------------------
 .byte   W96
@  #04 @059   ----------------------------------------
 .byte   W96
@  #04 @060   ----------------------------------------
 .byte   W96
@  #04 @061   ----------------------------------------
 .byte   PATT
  .word Label_010059E2
@  #04 @062   ----------------------------------------
 .byte   W72
 .byte   N23 ,Gs3 ,v080
 .byte   W24
@  #04 @063   ----------------------------------------
 .byte   PATT
  .word Label_010059D6
@  #04 @064   ----------------------------------------
 .byte   W96
@  #04 @065   ----------------------------------------
 .byte   PATT
  .word Label_010059E2
@  #04 @066   ----------------------------------------
 .byte   W72
 .byte   N23 ,Gs3 ,v080
 .byte   W24
@  #04 @067   ----------------------------------------
 .byte   PATT
  .word Label_010059D6
@  #04 @068   ----------------------------------------
 .byte   W96
@  #04 @069   ----------------------------------------
 .byte   PATT
  .word Label_010059E2
@  #04 @070   ----------------------------------------
 .byte   W72
 .byte   N23 ,Gs3 ,v080
 .byte   W24
@  #04 @071   ----------------------------------------
 .byte   PATT
  .word Label_010059D6
@  #04 @072   ----------------------------------------
 .byte   W96
@  #04 @073   ----------------------------------------
 .byte   PATT
  .word Label_010059E2
@  #04 @074   ----------------------------------------
 .byte   W72
 .byte   N23 ,Gs3 ,v080
 .byte   W24
@  #04 @075   ----------------------------------------
 .byte   PATT
  .word Label_010059D6
@  #04 @076   ----------------------------------------
 .byte   W96
@  #04 @077   ----------------------------------------
 .byte   PATT
  .word Label_01005975
@  #04 @078   ----------------------------------------
 .byte   PATT
  .word Label_01005980
@  #04 @079   ----------------------------------------
 .byte   PATT
  .word Label_01005986
@  #04 @080   ----------------------------------------
 .byte   W96
@  #04 @081   ----------------------------------------
 .byte   PATT
  .word Label_01005975
@  #04 @082   ----------------------------------------
 .byte   PATT
  .word Label_01005980
@  #04 @083   ----------------------------------------
 .byte   PATT
  .word Label_0100599C
@  #04 @084   ----------------------------------------
 .byte   W96
@  #04 @085   ----------------------------------------
 .byte   PATT
  .word Label_01005975
@  #04 @086   ----------------------------------------
 .byte   PATT
  .word Label_01005980
@  #04 @087   ----------------------------------------
 .byte   PATT
  .word Label_01005986
@  #04 @088   ----------------------------------------
 .byte   W96
@  #04 @089   ----------------------------------------
 .byte   PATT
  .word Label_01005975
@  #04 @090   ----------------------------------------
 .byte   PATT
  .word Label_01005980
@  #04 @091   ----------------------------------------
 .byte   PATT
  .word Label_0100599C
@  #04 @092   ----------------------------------------
 .byte   W96
@  #04 @093   ----------------------------------------
 .byte   PATT
  .word Label_01005975
@  #04 @094   ----------------------------------------
 .byte   PATT
  .word Label_01005980
@  #04 @095   ----------------------------------------
 .byte   PATT
  .word Label_01005986
@  #04 @096   ----------------------------------------
 .byte   W96
@  #04 @097   ----------------------------------------
 .byte   PATT
  .word Label_01005975
@  #04 @098   ----------------------------------------
 .byte   PATT
  .word Label_01005980
@  #04 @099   ----------------------------------------
 .byte   PATT
  .word Label_0100599C
@  #04 @100   ----------------------------------------
 .byte   W96
@  #04 @101   ----------------------------------------
 .byte   PATT
  .word Label_01005975
@  #04 @102   ----------------------------------------
 .byte   PATT
  .word Label_01005980
@  #04 @103   ----------------------------------------
 .byte   PATT
  .word Label_01005986
@  #04 @104   ----------------------------------------
 .byte   W96
@  #04 @105   ----------------------------------------
 .byte   PATT
  .word Label_01005975
@  #04 @106   ----------------------------------------
 .byte   PATT
  .word Label_01005980
@  #04 @107   ----------------------------------------
 .byte   W36
 .byte   N11 ,Gn3 ,v080
 .byte   W12
 .byte   N05 ,Gs3
 .byte   W12
 .byte   N11
 .byte   W12
 .byte   GOTO
  .word Label_01005A16
@  #04 @108   ----------------------------------------
 .byte   W24
 .byte   W96
@  #04 @109   ----------------------------------------
 .byte   PATT
  .word Label_01005A17
@  #04 @110   ----------------------------------------
 .byte   PATT
  .word Label_01005A32
@  #04 @111   ----------------------------------------
 .byte   W96
@  #04 @112   ----------------------------------------
 .byte   PATT
  .word Label_01005A17
@  #04 @113   ----------------------------------------
 .byte   W96
@  #04 @114   ----------------------------------------
 .byte   W96
@  #04 @115   ----------------------------------------
 .byte   PATT
  .word Label_01005A17
@  #04 @116   ----------------------------------------
 .byte   PATT
  .word Label_01005A32
@  #04 @117   ----------------------------------------
 .byte   W96
@  #04 @118   ----------------------------------------
 .byte   PATT
  .word Label_01005A55
@  #04 @119   ----------------------------------------
 .byte   W96
@  #04 @120   ----------------------------------------
 .byte   W96
@  #04 @121   ----------------------------------------
 .byte   W96
@  #04 @122   ----------------------------------------
 .byte   W96
@  #04 @123   ----------------------------------------
 .byte   W96
@  #04 @124   ----------------------------------------
 .byte   W96
@  #04 @125   ----------------------------------------
 .byte   W96
@  #04 @126   ----------------------------------------
 .byte   W96
@  #04 @127   ----------------------------------------
 .byte   W96
@  #04 @128   ----------------------------------------
 .byte   W96
@  #04 @129   ----------------------------------------
 .byte   W96
@  #04 @130   ----------------------------------------
 .byte   W96
@  #04 @131   ----------------------------------------
 .byte   W96
@  #04 @132   ----------------------------------------
 .byte   W96
@  #04 @133   ----------------------------------------
 .byte   W96
@  #04 @134   ----------------------------------------
 .byte   W96
@  #04 @135   ----------------------------------------
 .byte   W96
@  #04 @136   ----------------------------------------
 .byte   W96
@  #04 @137   ----------------------------------------
 .byte   PATT
  .word Label_01005975
@  #04 @138   ----------------------------------------
 .byte   PATT
  .word Label_01005980
@  #04 @139   ----------------------------------------
 .byte   PATT
  .word Label_01005986
@  #04 @140   ----------------------------------------
 .byte   W96
@  #04 @141   ----------------------------------------
 .byte   PATT
  .word Label_01005975
@  #04 @142   ----------------------------------------
 .byte   PATT
  .word Label_01005980
@  #04 @143   ----------------------------------------
 .byte   PATT
  .word Label_0100599C
@  #04 @144   ----------------------------------------
 .byte   W96
@  #04 @145   ----------------------------------------
 .byte   PATT
  .word Label_01005975
@  #04 @146   ----------------------------------------
 .byte   PATT
  .word Label_01005980
@  #04 @147   ----------------------------------------
 .byte   PATT
  .word Label_01005986
@  #04 @148   ----------------------------------------
 .byte   W96
@  #04 @149   ----------------------------------------
 .byte   PATT
  .word Label_01005975
@  #04 @150   ----------------------------------------
 .byte   PATT
  .word Label_01005980
@  #04 @151   ----------------------------------------
 .byte   W36
 .byte   N11 ,Gn3 ,v080
 .byte   W12
 .byte   N05 ,Gs3
 .byte   W12
 .byte   N11
 .byte   W32
 .byte   W03
 .byte   FINE

@**************** Track 5 (Midi-Chn.4) ****************@

song04_005:
@  #05 @000   ----------------------------------------
 .byte   KEYSH , song04_key+0
 .byte   VOICE , 28
 .byte   VOL , 46*song04_mvl/mxv
 .byte   PAN , c_v+0
 .byte   W96
@  #05 @001   ----------------------------------------
 .byte   W96
@  #05 @002   ----------------------------------------
 .byte   W96
@  #05 @003   ----------------------------------------
 .byte   W96
@  #05 @004   ----------------------------------------
 .byte   W96
@  #05 @005   ----------------------------------------
 .byte   W96
@  #05 @006   ----------------------------------------
 .byte   W96
@  #05 @007   ----------------------------------------
 .byte   W96
@  #05 @008   ----------------------------------------
 .byte   W96
@  #05 @009   ----------------------------------------
 .byte   W96
@  #05 @010   ----------------------------------------
 .byte   W96
@  #05 @011   ----------------------------------------
 .byte   W96
@  #05 @012   ----------------------------------------
 .byte   W96
@  #05 @013   ----------------------------------------
 .byte   W96
@  #05 @014   ----------------------------------------
 .byte   W96
@  #05 @015   ----------------------------------------
 .byte   W96
@  #05 @016   ----------------------------------------
 .byte   W96
@  #05 @017   ----------------------------------------
 .byte   W96
@  #05 @018   ----------------------------------------
 .byte   W96
@  #05 @019   ----------------------------------------
 .byte   W96
@  #05 @020   ----------------------------------------
 .byte   W96
@  #05 @021   ----------------------------------------
 .byte   W96
@  #05 @022   ----------------------------------------
 .byte   W96
@  #05 @023   ----------------------------------------
 .byte   W96
@  #05 @024   ----------------------------------------
 .byte   W96
@  #05 @025   ----------------------------------------
 .byte   W96
@  #05 @026   ----------------------------------------
 .byte   W96
@  #05 @027   ----------------------------------------
 .byte   W96
@  #05 @028   ----------------------------------------
 .byte   W96
@  #05 @029   ----------------------------------------
 .byte   W96
@  #05 @030   ----------------------------------------
 .byte   W96
@  #05 @031   ----------------------------------------
 .byte   W96
@  #05 @032   ----------------------------------------
Label_01958938:
 .byte   W96
@  #05 @033   ----------------------------------------
 .byte   W96
@  #05 @034   ----------------------------------------
 .byte   W96
@  #05 @035   ----------------------------------------
 .byte   W96
@  #05 @036   ----------------------------------------
 .byte   W96
@  #05 @037   ----------------------------------------
 .byte   W96
@  #05 @038   ----------------------------------------
Label_0195893E:
 .byte   N11 ,Cs2 ,v052
 .byte   N11 ,Gs2
 .byte   W12
 .byte   Cs2
 .byte   N11 ,Gs2
 .byte   W12
 .byte   Cs2
 .byte   N11 ,Gs2
 .byte   W12
 .byte   Cs2
 .byte   N11 ,Gs2
 .byte   W12
 .byte   Cs2
 .byte   N11 ,Gs2
 .byte   W12
 .byte   Cs2
 .byte   N11 ,Gs2
 .byte   W12
 .byte   Cs2
 .byte   N11 ,Gs2
 .byte   W12
 .byte   Cs2
 .byte   N11 ,Gs2
 .byte   W12
 .byte   PEND 
@  #05 @039   ----------------------------------------
 .byte   PATT
  .word Label_0195893E
@  #05 @040   ----------------------------------------
 .byte   PATT
  .word Label_0195893E
@  #05 @041   ----------------------------------------
 .byte   PATT
  .word Label_0195893E
@  #05 @042   ----------------------------------------
 .byte   N11 ,Cs2 ,v052
 .byte   N11 ,Gs2
 .byte   W12
 .byte   Cs2
 .byte   N11 ,Gs2
 .byte   W12
 .byte   Cs2
 .byte   N11 ,Gs2
 .byte   W12
 .byte   Cs2
 .byte   N11 ,Gs2
 .byte   W12
 .byte   Cs2
 .byte   N11 ,Gs2
 .byte   W12
 .byte   Cs2
 .byte   N11 ,Gs2
 .byte   W12
 .byte   Cs2 ,v056
 .byte   N11 ,Gs2
 .byte   W12
 .byte   Cs2
 .byte   N11 ,Gs2
 .byte   W12
@  #05 @043   ----------------------------------------
 .byte   Cs2 ,v060
 .byte   N11 ,Gs2
 .byte   W12
 .byte   Cs2 ,v064
 .byte   N11 ,Gs2
 .byte   W12
 .byte   N23 ,Cs2
 .byte   N23 ,Gs2
 .byte   W96
@  #05 @044   ----------------------------------------
 .byte   W96
@  #05 @045   ----------------------------------------
 .byte   W96
@  #05 @046   ----------------------------------------
 .byte   W96
@  #05 @047   ----------------------------------------
 .byte   W96
@  #05 @048   ----------------------------------------
 .byte   W96
@  #05 @049   ----------------------------------------
 .byte   W96
@  #05 @050   ----------------------------------------
 .byte   W96
@  #05 @051   ----------------------------------------
 .byte   W96
@  #05 @052   ----------------------------------------
 .byte   W96
@  #05 @053   ----------------------------------------
 .byte   W96
@  #05 @054   ----------------------------------------
 .byte   W96
@  #05 @055   ----------------------------------------
 .byte   W96
@  #05 @056   ----------------------------------------
 .byte   W96
@  #05 @057   ----------------------------------------
 .byte   W96
@  #05 @058   ----------------------------------------
 .byte   W96
@  #05 @059   ----------------------------------------
 .byte   W96
@  #05 @060   ----------------------------------------
 .byte   W96
@  #05 @061   ----------------------------------------
 .byte   W96
@  #05 @062   ----------------------------------------
 .byte   W96
@  #05 @063   ----------------------------------------
 .byte   W96
@  #05 @064   ----------------------------------------
 .byte   W96
@  #05 @065   ----------------------------------------
 .byte   W96
@  #05 @066   ----------------------------------------
 .byte   W96
@  #05 @067   ----------------------------------------
 .byte   W96
@  #05 @068   ----------------------------------------
 .byte   W96
@  #05 @069   ----------------------------------------
 .byte   W96
@  #05 @070   ----------------------------------------
 .byte   W96
@  #05 @071   ----------------------------------------
 .byte   W96
@  #05 @072   ----------------------------------------
 .byte   W96
@  #05 @073   ----------------------------------------
 .byte   W96
@  #05 @074   ----------------------------------------
 .byte   W96
@  #05 @075   ----------------------------------------
 .byte   W96
@  #05 @076   ----------------------------------------
 .byte   W96
@  #05 @077   ----------------------------------------
 .byte   W96
@  #05 @078   ----------------------------------------
 .byte   W96
@  #05 @079   ----------------------------------------
 .byte   W96
@  #05 @080   ----------------------------------------
 .byte   W96
@  #05 @081   ----------------------------------------
 .byte   W96
@  #05 @082   ----------------------------------------
 .byte   W96
@  #05 @083   ----------------------------------------
 .byte   W96
@  #05 @084   ----------------------------------------
 .byte   W96
@  #05 @085   ----------------------------------------
 .byte   W96
@  #05 @086   ----------------------------------------
 .byte   W96
@  #05 @087   ----------------------------------------
 .byte   W96
@  #05 @088   ----------------------------------------
 .byte   W96
@  #05 @089   ----------------------------------------
 .byte   W96
@  #05 @090   ----------------------------------------
 .byte   W96
@  #05 @091   ----------------------------------------
 .byte   W96
@  #05 @092   ----------------------------------------
 .byte   W96
@  #05 @093   ----------------------------------------
 .byte   W96
@  #05 @094   ----------------------------------------
 .byte   W96
@  #05 @095   ----------------------------------------
 .byte   W96
@  #05 @096   ----------------------------------------
 .byte   W96
@  #05 @097   ----------------------------------------
 .byte   W96
@  #05 @098   ----------------------------------------
 .byte   W96
@  #05 @099   ----------------------------------------
 .byte   W96
@  #05 @100   ----------------------------------------
 .byte   W96
@  #05 @101   ----------------------------------------
 .byte   W96
@  #05 @102   ----------------------------------------
 .byte   W96
@  #05 @103   ----------------------------------------
 .byte   W96
@  #05 @104   ----------------------------------------
 .byte   W96
@  #05 @105   ----------------------------------------
 .byte   W96
@  #05 @106   ----------------------------------------
 .byte   W96
@  #05 @107   ----------------------------------------
 .byte   W72
 .byte   GOTO
  .word Label_01958938
@  #05 @108   ----------------------------------------
 .byte   W24
 .byte   W96
@  #05 @109   ----------------------------------------
 .byte   W96
@  #05 @110   ----------------------------------------
 .byte   W96
@  #05 @111   ----------------------------------------
 .byte   W96
@  #05 @112   ----------------------------------------
 .byte   W96
@  #05 @113   ----------------------------------------
 .byte   W96
@  #05 @114   ----------------------------------------
 .byte   PATT
  .word Label_0195893E
@  #05 @115   ----------------------------------------
 .byte   PATT
  .word Label_0195893E
@  #05 @116   ----------------------------------------
 .byte   PATT
  .word Label_0195893E
@  #05 @117   ----------------------------------------
 .byte   PATT
  .word Label_0195893E
@  #05 @118   ----------------------------------------
 .byte   N11 ,Cs2 ,v052
 .byte   N11 ,Gs2
 .byte   W12
 .byte   Cs2
 .byte   N11 ,Gs2
 .byte   W12
 .byte   Cs2
 .byte   N11 ,Gs2
 .byte   W12
 .byte   Cs2
 .byte   N11 ,Gs2
 .byte   W12
 .byte   Cs2
 .byte   N11 ,Gs2
 .byte   W12
 .byte   Cs2 ,v056
 .byte   N11 ,Gs2
 .byte   W12
 .byte   Cs2 ,v060
 .byte   N11 ,Gs2
 .byte   W12
 .byte   Cs2 ,v064
 .byte   N11 ,Gs2
 .byte   W12
@  #05 @119   ----------------------------------------
 .byte   Cs2 ,v072
 .byte   N11 ,Gs2
 .byte   W12
 .byte   Cs2 ,v076
 .byte   N11 ,Gs2
 .byte   W12
 .byte   N23 ,Cs2 ,v080
 .byte   N23 ,Gs2
 .byte   W96
@  #05 @120   ----------------------------------------
 .byte   W96
@  #05 @121   ----------------------------------------
 .byte   W96
@  #05 @122   ----------------------------------------
 .byte   W96
@  #05 @123   ----------------------------------------
 .byte   W96
@  #05 @124   ----------------------------------------
 .byte   W96
@  #05 @125   ----------------------------------------
 .byte   W96
@  #05 @126   ----------------------------------------
 .byte   W96
@  #05 @127   ----------------------------------------
 .byte   W96
@  #05 @128   ----------------------------------------
 .byte   W96
@  #05 @129   ----------------------------------------
 .byte   W96
@  #05 @130   ----------------------------------------
 .byte   W96
@  #05 @131   ----------------------------------------
 .byte   W96
@  #05 @132   ----------------------------------------
 .byte   W96
@  #05 @133   ----------------------------------------
 .byte   W96
@  #05 @134   ----------------------------------------
 .byte   W96
@  #05 @135   ----------------------------------------
 .byte   W96
@  #05 @136   ----------------------------------------
 .byte   W96
@  #05 @137   ----------------------------------------
 .byte   W96
@  #05 @138   ----------------------------------------
 .byte   W96
@  #05 @139   ----------------------------------------
 .byte   W96
@  #05 @140   ----------------------------------------
 .byte   W96
@  #05 @141   ----------------------------------------
 .byte   W96
@  #05 @142   ----------------------------------------
 .byte   W96
@  #05 @143   ----------------------------------------
 .byte   W96
@  #05 @144   ----------------------------------------
 .byte   W96
@  #05 @145   ----------------------------------------
 .byte   W96
@  #05 @146   ----------------------------------------
 .byte   W96
@  #05 @147   ----------------------------------------
 .byte   W96
@  #05 @148   ----------------------------------------
 .byte   W96
@  #05 @149   ----------------------------------------
 .byte   W96
@  #05 @150   ----------------------------------------
 .byte   W96
@  #05 @151   ----------------------------------------
 .byte   W92
 .byte   W03
 .byte   FINE

@**************** Track 6 (Midi-Chn.5) ****************@

song04_006:
@  #06 @000   ----------------------------------------
 .byte   KEYSH , song04_key+0
 .byte   VOICE , 81
 .byte   VOL , 50*song04_mvl/mxv
 .byte   PAN , c_v+0
 .byte   N11 ,Cs0 ,v096
 .byte   N11 ,Cs1
 .byte   W12
 .byte   N23
 .byte   N23 ,Cs2
 .byte   W24
 .byte   N11 ,Cs0
 .byte   N11 ,Cs1
 .byte   W12
 .byte   N23 ,Fs0
 .byte   N23 ,Fs1
 .byte   W24
 .byte   N11 ,Cs0
 .byte   N11 ,Cs1
 .byte   W12
 .byte   N23
 .byte   N23 ,Cs2
 .byte   W12
@  #06 @001   ----------------------------------------
Label_01005BFD:
 .byte   W12
 .byte   N11 ,Cs0 ,v096
 .byte   N11 ,Cs1
 .byte   W12
 .byte   N23 ,Fs0
 .byte   N23 ,Fs1
 .byte   W24
 .byte   En0
 .byte   N23 ,En1
 .byte   W24
 .byte   N11 ,Fs0
 .byte   N11 ,Fs1
 .byte   W12
 .byte   Cs0
 .byte   N11 ,Cs1
 .byte   W12
 .byte   PEND 
@  #06 @002   ----------------------------------------
Label_01005C17:
 .byte   N11 ,Cs0 ,v096
 .byte   N11 ,Cs1
 .byte   W12
 .byte   N23
 .byte   N23 ,Cs2
 .byte   W24
 .byte   N11 ,Cs0
 .byte   N11 ,Cs1
 .byte   W12
 .byte   N23 ,Fs0
 .byte   N23 ,Fs1
 .byte   W24
 .byte   N11 ,Cs0
 .byte   N11 ,Cs1
 .byte   W12
 .byte   N23
 .byte   N23 ,Cs2
 .byte   W12
 .byte   PEND 
@  #06 @003   ----------------------------------------
Label_01005C35:
 .byte   W12
 .byte   N23 ,Gn0 ,v096
 .byte   N23 ,Gn1
 .byte   W24
 .byte   N11 ,Cs0
 .byte   N11 ,Cs1
 .byte   W12
 .byte   N44 ,Dn0
 .byte   N44 ,Dn1
 .byte   W48
 .byte   PEND 
@  #06 @004   ----------------------------------------
Label_01005C47:
 .byte   N11 ,Cs0 ,v096
 .byte   N11 ,Cs1
 .byte   W12
 .byte   N23
 .byte   N23 ,Cs2
 .byte   W24
 .byte   N11 ,Cs0
 .byte   N11 ,Cs1
 .byte   W12
 .byte   N23 ,Fs0
 .byte   N23 ,Fs1
 .byte   W24
 .byte   N11 ,Cs0
 .byte   N11 ,Cs1
 .byte   W12
 .byte   N23
 .byte   N23 ,Cs2
 .byte   W12
 .byte   PEND 
@  #06 @005   ----------------------------------------
 .byte   PATT
  .word Label_01005BFD
@  #06 @006   ----------------------------------------
Label_01005C6A:
 .byte   N11 ,Cs0 ,v096
 .byte   N11 ,Cs1
 .byte   W12
 .byte   N23
 .byte   N23 ,Cs2
 .byte   W24
 .byte   N11 ,Cs0
 .byte   N11 ,Cs1
 .byte   W12
 .byte   N23 ,Fs0
 .byte   N23 ,Fs1
 .byte   W24
 .byte   N11 ,Cs0
 .byte   N11 ,Cs1
 .byte   W12
 .byte   N23 ,En0
 .byte   N23 ,En1
 .byte   W12
 .byte   PEND 
@  #06 @007   ----------------------------------------
Label_01005C89:
 .byte   W12
 .byte   N11 ,Cs0 ,v096
 .byte   N11 ,Cs1
 .byte   W12
 .byte   N23 ,Dn0
 .byte   N23 ,Dn1
 .byte   W24
 .byte   BnM1
 .byte   N23 ,Bn0
 .byte   W24
 .byte   Dn0
 .byte   N23 ,Dn1
 .byte   W24
 .byte   PEND 
@  #06 @008   ----------------------------------------
Label_01005C9E:
 .byte   N11 ,Cs0 ,v096
 .byte   N11 ,Cs1
 .byte   N11 ,Cs2
 .byte   W12
 .byte   N23 ,Cs1
 .byte   N23 ,Cs2
 .byte   N23 ,Cs3
 .byte   W24
 .byte   N11 ,Cs0
 .byte   N11 ,Cs1
 .byte   N11 ,Cs2
 .byte   W12
 .byte   N23 ,Fs0
 .byte   N23 ,Fs1
 .byte   N23 ,Fs2
 .byte   W24
 .byte   N11 ,Cs0
 .byte   N11 ,Cs1
 .byte   N11 ,Cs2
 .byte   W12
 .byte   N23 ,Cs1
 .byte   N23 ,Cs2
 .byte   N23 ,Cs3
 .byte   W12
 .byte   PEND 
@  #06 @009   ----------------------------------------
Label_01005CCA:
 .byte   W12
 .byte   N11 ,Cs0 ,v096
 .byte   N11 ,Cs1
 .byte   N11 ,Cs2
 .byte   W12
 .byte   N23 ,Fs0
 .byte   N23 ,Fs1
 .byte   N23 ,Fs2
 .byte   W24
 .byte   En0
 .byte   N23 ,En1
 .byte   N23 ,En2
 .byte   W24
 .byte   N11 ,Fs0
 .byte   N11 ,Fs1
 .byte   N11 ,Fs2
 .byte   W12
 .byte   Cs0
 .byte   N11 ,Cs1
 .byte   N11 ,Cs2
 .byte   W12
 .byte   PEND 
@  #06 @010   ----------------------------------------
Label_01005CEE:
 .byte   N11 ,Cs0 ,v096
 .byte   N11 ,Cs1
 .byte   N11 ,Cs2
 .byte   W12
 .byte   N23 ,Cs1
 .byte   N23 ,Cs2
 .byte   N23 ,Cs3
 .byte   W24
 .byte   N11 ,Cs0
 .byte   N11 ,Cs1
 .byte   N11 ,Cs2
 .byte   W12
 .byte   N23 ,Fs0
 .byte   N23 ,Fs1
 .byte   N23 ,Fs2
 .byte   W24
 .byte   N11 ,Cs0
 .byte   N11 ,Cs1
 .byte   N11 ,Cs2
 .byte   W12
 .byte   N23 ,Cs1
 .byte   N23 ,Cs2
 .byte   N23 ,Cs3
 .byte   W12
 .byte   PEND 
@  #06 @011   ----------------------------------------
Label_01005D1A:
 .byte   W12
 .byte   N23 ,Gn0 ,v096
 .byte   N23 ,Gn1
 .byte   N23 ,Gn2
 .byte   W24
 .byte   N11 ,Cs0
 .byte   N11 ,Cs1
 .byte   N11 ,Cs2
 .byte   W12
 .byte   N44 ,Dn0
 .byte   N44 ,Dn1
 .byte   N44 ,Dn2
 .byte   W48
 .byte   PEND 
@  #06 @012   ----------------------------------------
Label_01005D32:
 .byte   N11 ,Cs0 ,v096
 .byte   N11 ,Cs1
 .byte   N11 ,Cs2
 .byte   W12
 .byte   N23 ,Cs1
 .byte   N23 ,Cs2
 .byte   N23 ,Cs3
 .byte   W24
 .byte   N11 ,Cs0
 .byte   N11 ,Cs1
 .byte   N11 ,Cs2
 .byte   W12
 .byte   N23 ,Fs0
 .byte   N23 ,Fs1
 .byte   N23 ,Fs2
 .byte   W24
 .byte   N11 ,Cs0
 .byte   N11 ,Cs1
 .byte   N11 ,Cs2
 .byte   W12
 .byte   N23 ,Cs1
 .byte   N23 ,Cs2
 .byte   N23 ,Cs3
 .byte   W12
 .byte   PEND 
@  #06 @013   ----------------------------------------
 .byte   PATT
  .word Label_01005CCA
@  #06 @014   ----------------------------------------
Label_01005D63:
 .byte   N11 ,Cs0 ,v096
 .byte   N11 ,Cs1
 .byte   N11 ,Cs2
 .byte   W12
 .byte   N23 ,Cs1
 .byte   N23 ,Cs2
 .byte   N23 ,Cs3
 .byte   W24
 .byte   N11 ,Cs0
 .byte   N11 ,Cs1
 .byte   N11 ,Cs2
 .byte   W12
 .byte   N23 ,Fs0
 .byte   N23 ,Fs1
 .byte   N23 ,Fs2
 .byte   W24
 .byte   N11 ,Cs0
 .byte   N11 ,Cs1
 .byte   N11 ,Cs2
 .byte   W12
 .byte   N23 ,En0
 .byte   N23 ,En1
 .byte   N23 ,En2
 .byte   W12
 .byte   PEND 
@  #06 @015   ----------------------------------------
Label_01005D8F:
 .byte   W12
 .byte   N11 ,Cs0 ,v096
 .byte   N11 ,Cs1
 .byte   N11 ,Cs2
 .byte   W12
 .byte   N23 ,Dn0
 .byte   N23 ,Dn1
 .byte   N23 ,Dn2
 .byte   W24
 .byte   BnM1
 .byte   N23 ,Bn0
 .byte   N23 ,Bn1
 .byte   W24
 .byte   Dn0
 .byte   N23 ,Dn1
 .byte   N23 ,Dn2
 .byte   W24
 .byte   PEND 
@  #06 @016   ----------------------------------------
 .byte   W96
@  #06 @017   ----------------------------------------
 .byte   W96
@  #06 @018   ----------------------------------------
 .byte   W96
@  #06 @019   ----------------------------------------
 .byte   W96
@  #06 @020   ----------------------------------------
 .byte   W96
@  #06 @021   ----------------------------------------
 .byte   W96
@  #06 @022   ----------------------------------------
 .byte   W96
@  #06 @023   ----------------------------------------
 .byte   W96
@  #06 @024   ----------------------------------------
 .byte   PATT
  .word Label_01005C47
@  #06 @025   ----------------------------------------
 .byte   PATT
  .word Label_01005BFD
@  #06 @026   ----------------------------------------
 .byte   PATT
  .word Label_01005C17
@  #06 @027   ----------------------------------------
 .byte   PATT
  .word Label_01005C35
@  #06 @028   ----------------------------------------
 .byte   PATT
  .word Label_01005C47
@  #06 @029   ----------------------------------------
 .byte   PATT
  .word Label_01005BFD
@  #06 @030   ----------------------------------------
 .byte   PATT
  .word Label_01005C6A
@  #06 @031   ----------------------------------------
 .byte   PATT
  .word Label_01005C89
@  #06 @032   ----------------------------------------
Label_01005DDC:
 .byte   W96
@  #06 @033   ----------------------------------------
 .byte   W96
@  #06 @034   ----------------------------------------
 .byte   W96
@  #06 @035   ----------------------------------------
 .byte   W96
@  #06 @036   ----------------------------------------
 .byte   W96
@  #06 @037   ----------------------------------------
 .byte   W96
@  #06 @038   ----------------------------------------
 .byte   W96
@  #06 @039   ----------------------------------------
 .byte   W96
@  #06 @040   ----------------------------------------
 .byte   W96
@  #06 @041   ----------------------------------------
 .byte   W96
@  #06 @042   ----------------------------------------
 .byte   W96
@  #06 @043   ----------------------------------------
 .byte   W24
 .byte   W96
@  #06 @044   ----------------------------------------
 .byte   W96
@  #06 @045   ----------------------------------------
 .byte   W96
@  #06 @046   ----------------------------------------
 .byte   W96
@  #06 @047   ----------------------------------------
 .byte   W96
@  #06 @048   ----------------------------------------
 .byte   W96
@  #06 @049   ----------------------------------------
 .byte   W96
@  #06 @050   ----------------------------------------
 .byte   W96
@  #06 @051   ----------------------------------------
 .byte   W96
@  #06 @052   ----------------------------------------
 .byte   W96
@  #06 @053   ----------------------------------------
 .byte   W96
@  #06 @054   ----------------------------------------
 .byte   W96
@  #06 @055   ----------------------------------------
 .byte   W96
@  #06 @056   ----------------------------------------
 .byte   W96
@  #06 @057   ----------------------------------------
 .byte   W96
@  #06 @058   ----------------------------------------
 .byte   W96
@  #06 @059   ----------------------------------------
 .byte   W96
@  #06 @060   ----------------------------------------
 .byte   W96
@  #06 @061   ----------------------------------------
 .byte   W96
@  #06 @062   ----------------------------------------
 .byte   W96
@  #06 @063   ----------------------------------------
 .byte   W96
@  #06 @064   ----------------------------------------
 .byte   W96
@  #06 @065   ----------------------------------------
 .byte   W96
@  #06 @066   ----------------------------------------
 .byte   W96
@  #06 @067   ----------------------------------------
 .byte   W96
@  #06 @068   ----------------------------------------
 .byte   W96
@  #06 @069   ----------------------------------------
 .byte   W96
@  #06 @070   ----------------------------------------
 .byte   W96
@  #06 @071   ----------------------------------------
 .byte   W96
@  #06 @072   ----------------------------------------
 .byte   W96
@  #06 @073   ----------------------------------------
 .byte   W96
@  #06 @074   ----------------------------------------
 .byte   W96
@  #06 @075   ----------------------------------------
 .byte   W96
@  #06 @076   ----------------------------------------
 .byte   PATT
  .word Label_01005C47
@  #06 @077   ----------------------------------------
 .byte   PATT
  .word Label_01005BFD
@  #06 @078   ----------------------------------------
 .byte   PATT
  .word Label_01005C17
@  #06 @079   ----------------------------------------
 .byte   PATT
  .word Label_01005C35
@  #06 @080   ----------------------------------------
 .byte   PATT
  .word Label_01005C47
@  #06 @081   ----------------------------------------
 .byte   PATT
  .word Label_01005BFD
@  #06 @082   ----------------------------------------
 .byte   PATT
  .word Label_01005C6A
@  #06 @083   ----------------------------------------
 .byte   PATT
  .word Label_01005C89
@  #06 @084   ----------------------------------------
 .byte   PATT
  .word Label_01005C9E
@  #06 @085   ----------------------------------------
 .byte   PATT
  .word Label_01005CCA
@  #06 @086   ----------------------------------------
 .byte   PATT
  .word Label_01005CEE
@  #06 @087   ----------------------------------------
 .byte   PATT
  .word Label_01005D1A
@  #06 @088   ----------------------------------------
 .byte   PATT
  .word Label_01005D32
@  #06 @089   ----------------------------------------
 .byte   PATT
  .word Label_01005CCA
@  #06 @090   ----------------------------------------
 .byte   PATT
  .word Label_01005D63
@  #06 @091   ----------------------------------------
 .byte   PATT
  .word Label_01005D8F
@  #06 @092   ----------------------------------------
 .byte   PATT
  .word Label_01005C9E
@  #06 @093   ----------------------------------------
 .byte   PATT
  .word Label_01005CCA
@  #06 @094   ----------------------------------------
 .byte   PATT
  .word Label_01005CEE
@  #06 @095   ----------------------------------------
 .byte   PATT
  .word Label_01005D1A
@  #06 @096   ----------------------------------------
 .byte   PATT
  .word Label_01005D32
@  #06 @097   ----------------------------------------
 .byte   PATT
  .word Label_01005CCA
@  #06 @098   ----------------------------------------
 .byte   PATT
  .word Label_01005D63
@  #06 @099   ----------------------------------------
 .byte   PATT
  .word Label_01005D8F
@  #06 @100   ----------------------------------------
 .byte   PATT
  .word Label_01005C9E
@  #06 @101   ----------------------------------------
 .byte   PATT
  .word Label_01005CCA
@  #06 @102   ----------------------------------------
 .byte   PATT
  .word Label_01005CEE
@  #06 @103   ----------------------------------------
 .byte   PATT
  .word Label_01005D1A
@  #06 @104   ----------------------------------------
 .byte   PATT
  .word Label_01005D32
@  #06 @105   ----------------------------------------
 .byte   PATT
  .word Label_01005CCA
@  #06 @106   ----------------------------------------
 .byte   PATT
  .word Label_01005D63
@  #06 @107   ----------------------------------------
 .byte   W12
 .byte   N11 ,Cs0 ,v096
 .byte   N11 ,Cs1
 .byte   N11 ,Cs2
 .byte   W12
 .byte   N23 ,Dn0
 .byte   N23 ,Dn1
 .byte   N23 ,Dn2
 .byte   W24
 .byte   BnM1
 .byte   N23 ,Bn0
 .byte   N23 ,Bn1
 .byte   W24
 .byte   GOTO
  .word Label_01005DDC
@  #06 @108   ----------------------------------------
 .byte   N23 ,Dn0 ,v096
 .byte   N23 ,Dn1
 .byte   N23 ,Dn2
 .byte   W24
 .byte   W96
@  #06 @109   ----------------------------------------
 .byte   W96
@  #06 @110   ----------------------------------------
 .byte   W96
@  #06 @111   ----------------------------------------
 .byte   W96
@  #06 @112   ----------------------------------------
 .byte   W96
@  #06 @113   ----------------------------------------
 .byte   W96
@  #06 @114   ----------------------------------------
 .byte   W96
@  #06 @115   ----------------------------------------
 .byte   W96
@  #06 @116   ----------------------------------------
 .byte   W96
@  #06 @117   ----------------------------------------
 .byte   W96
@  #06 @118   ----------------------------------------
 .byte   W96
@  #06 @119   ----------------------------------------
 .byte   W24
 .byte   W96
@  #06 @120   ----------------------------------------
 .byte   W96
@  #06 @121   ----------------------------------------
 .byte   W96
@  #06 @122   ----------------------------------------
 .byte   W96
@  #06 @123   ----------------------------------------
 .byte   W96
@  #06 @124   ----------------------------------------
 .byte   W96
@  #06 @125   ----------------------------------------
 .byte   W96
@  #06 @126   ----------------------------------------
 .byte   W96
@  #06 @127   ----------------------------------------
 .byte   W96
@  #06 @128   ----------------------------------------
 .byte   W96
@  #06 @129   ----------------------------------------
 .byte   W96
@  #06 @130   ----------------------------------------
 .byte   W96
@  #06 @131   ----------------------------------------
 .byte   W96
@  #06 @132   ----------------------------------------
 .byte   W96
@  #06 @133   ----------------------------------------
 .byte   W96
@  #06 @134   ----------------------------------------
 .byte   W96
@  #06 @135   ----------------------------------------
 .byte   W96
@  #06 @136   ----------------------------------------
 .byte   PATT
  .word Label_01005C47
@  #06 @137   ----------------------------------------
 .byte   PATT
  .word Label_01005BFD
@  #06 @138   ----------------------------------------
 .byte   PATT
  .word Label_01005C17
@  #06 @139   ----------------------------------------
 .byte   PATT
  .word Label_01005C35
@  #06 @140   ----------------------------------------
 .byte   PATT
  .word Label_01005C47
@  #06 @141   ----------------------------------------
 .byte   PATT
  .word Label_01005BFD
@  #06 @142   ----------------------------------------
 .byte   PATT
  .word Label_01005C6A
@  #06 @143   ----------------------------------------
 .byte   PATT
  .word Label_01005C89
@  #06 @144   ----------------------------------------
 .byte   PATT
  .word Label_01005C9E
@  #06 @145   ----------------------------------------
 .byte   PATT
  .word Label_01005CCA
@  #06 @146   ----------------------------------------
 .byte   PATT
  .word Label_01005CEE
@  #06 @147   ----------------------------------------
 .byte   PATT
  .word Label_01005D1A
@  #06 @148   ----------------------------------------
 .byte   PATT
  .word Label_01005D32
@  #06 @149   ----------------------------------------
 .byte   PATT
  .word Label_01005CCA
@  #06 @150   ----------------------------------------
 .byte   PATT
  .word Label_01005D63
@  #06 @151   ----------------------------------------
 .byte   W12
 .byte   N11 ,Cs0 ,v096
 .byte   N11 ,Cs1
 .byte   N11 ,Cs2
 .byte   W12
 .byte   N23 ,Dn0
 .byte   N23 ,Dn1
 .byte   N23 ,Dn2
 .byte   W24
 .byte   BnM1
 .byte   N23 ,Bn0
 .byte   N23 ,Bn1
 .byte   W24
 .byte   Dn0
 .byte   N23 ,Dn1
 .byte   N23 ,Dn2
 .byte   W23
 .byte   FINE

@**************** Track 7 (Midi-Chn.6) ****************@

song04_007:
@  #07 @000   ----------------------------------------
 .byte   KEYSH , song04_key+0
 .byte   VOICE , 38
 .byte   VOL , 50*song04_mvl/mxv
 .byte   PAN , c_v+0
 .byte   N11 ,Cs0 ,v096
 .byte   W12
 .byte   N23 ,Cs1
 .byte   W24
 .byte   N11 ,Cs0
 .byte   W12
 .byte   N23 ,Fs0
 .byte   W24
 .byte   N11 ,Cs0
 .byte   W12
 .byte   N23 ,Cs1
 .byte   W12
@  #07 @001   ----------------------------------------
Label_01005F77:
 .byte   W12
 .byte   N11 ,Cs0 ,v096
 .byte   W12
 .byte   N23 ,Fs0
 .byte   W24
 .byte   En0
 .byte   W24
 .byte   N11 ,Fs0
 .byte   W12
 .byte   Cs0
 .byte   W12
 .byte   PEND 
@  #07 @002   ----------------------------------------
Label_01005F87:
 .byte   N11 ,Cs0 ,v096
 .byte   W12
 .byte   N23 ,Cs1
 .byte   W24
 .byte   N11 ,Cs0
 .byte   W12
 .byte   N23 ,Fs0
 .byte   W24
 .byte   N11 ,Cs0
 .byte   W12
 .byte   N23 ,Cs1
 .byte   W12
 .byte   PEND 
@  #07 @003   ----------------------------------------
Label_01005F9B:
 .byte   W12
 .byte   N23 ,Gn0 ,v096
 .byte   W24
 .byte   N11 ,Cs0
 .byte   W12
 .byte   N44 ,Dn0
 .byte   W48
 .byte   PEND 
@  #07 @004   ----------------------------------------
 .byte   PATT
  .word Label_01005F87
@  #07 @005   ----------------------------------------
 .byte   PATT
  .word Label_01005F77
@  #07 @006   ----------------------------------------
Label_01005FB1:
 .byte   N11 ,Cs0 ,v096
 .byte   W12
 .byte   N23 ,Cs1
 .byte   W24
 .byte   N11 ,Cs0
 .byte   W12
 .byte   N23 ,Fs0
 .byte   W24
 .byte   N11 ,Cs0
 .byte   W12
 .byte   N23 ,En0
 .byte   W12
 .byte   PEND 
@  #07 @007   ----------------------------------------
Label_01005FC5:
 .byte   W12
 .byte   N11 ,Cs0 ,v096
 .byte   W12
 .byte   N23 ,Dn0
 .byte   W24
 .byte   BnM1
 .byte   W24
 .byte   Dn0
 .byte   W24
 .byte   PEND 
@  #07 @008   ----------------------------------------
 .byte   PATT
  .word Label_01005F87
@  #07 @009   ----------------------------------------
 .byte   PATT
  .word Label_01005F77
@  #07 @010   ----------------------------------------
 .byte   PATT
  .word Label_01005F87
@  #07 @011   ----------------------------------------
 .byte   PATT
  .word Label_01005F9B
@  #07 @012   ----------------------------------------
 .byte   PATT
  .word Label_01005F87
@  #07 @013   ----------------------------------------
 .byte   PATT
  .word Label_01005F77
@  #07 @014   ----------------------------------------
 .byte   PATT
  .word Label_01005FB1
@  #07 @015   ----------------------------------------
 .byte   PATT
  .word Label_01005FC5
@  #07 @016   ----------------------------------------
Label_01005FFA:
 .byte   N11 ,Cs0 ,v112
 .byte   W12
 .byte   N23 ,Cs1
 .byte   W24
 .byte   N11 ,Cs0
 .byte   W12
 .byte   N23 ,Fs0
 .byte   W24
 .byte   N11 ,Cs0
 .byte   W12
 .byte   N23 ,Cs1
 .byte   W12
 .byte   PEND 
@  #07 @017   ----------------------------------------
Label_0100600E:
 .byte   W12
 .byte   N11 ,Cs0 ,v112
 .byte   W12
 .byte   N23 ,Fs0
 .byte   W24
 .byte   En0
 .byte   W24
 .byte   N11 ,Fs0
 .byte   W12
 .byte   Cs0
 .byte   W12
 .byte   PEND 
@  #07 @018   ----------------------------------------
 .byte   PATT
  .word Label_01005FFA
@  #07 @019   ----------------------------------------
Label_01006023:
 .byte   W12
 .byte   N23 ,Gn0 ,v112
 .byte   W24
 .byte   N11 ,Cs0
 .byte   W12
 .byte   N44 ,Dn0
 .byte   W48
 .byte   PEND 
@  #07 @020   ----------------------------------------
 .byte   PATT
  .word Label_01005FFA
@  #07 @021   ----------------------------------------
 .byte   PATT
  .word Label_0100600E
@  #07 @022   ----------------------------------------
Label_01006039:
 .byte   N11 ,Cs0 ,v112
 .byte   W12
 .byte   N23 ,Cs1
 .byte   W24
 .byte   N11 ,Cs0
 .byte   W12
 .byte   N23 ,Fs0
 .byte   W24
 .byte   N11 ,Cs0
 .byte   W12
 .byte   N23 ,En0
 .byte   W12
 .byte   PEND 
@  #07 @023   ----------------------------------------
Label_0100604D:
 .byte   W12
 .byte   N11 ,Cs0 ,v112
 .byte   W12
 .byte   N23 ,Dn0
 .byte   W24
 .byte   BnM1
 .byte   W24
 .byte   Dn0
 .byte   W24
 .byte   PEND 
@  #07 @024   ----------------------------------------
 .byte   PATT
  .word Label_01005FFA
@  #07 @025   ----------------------------------------
 .byte   PATT
  .word Label_0100600E
@  #07 @026   ----------------------------------------
 .byte   PATT
  .word Label_01005FFA
@  #07 @027   ----------------------------------------
 .byte   PATT
  .word Label_01006023
@  #07 @028   ----------------------------------------
 .byte   PATT
  .word Label_01005FFA
@  #07 @029   ----------------------------------------
 .byte   PATT
  .word Label_0100600E
@  #07 @030   ----------------------------------------
 .byte   PATT
  .word Label_01006039
@  #07 @031   ----------------------------------------
 .byte   PATT
  .word Label_0100604D
@  #07 @032   ----------------------------------------
Label_01006082:
 .byte   N11 ,Cs0 ,v064
 .byte   W12
 .byte   N11
 .byte   W12
 .byte   N11
 .byte   W12
 .byte   N11
 .byte   W12
 .byte   N11
 .byte   W12
 .byte   N11
 .byte   W12
 .byte   N11
 .byte   W12
 .byte   N11
 .byte   W12
 .byte   PEND 
@  #07 @033   ----------------------------------------
 .byte   PATT
  .word Label_01006082
@  #07 @034   ----------------------------------------
 .byte   PATT
  .word Label_01006082
@  #07 @035   ----------------------------------------
 .byte   PATT
  .word Label_01006082
@  #07 @036   ----------------------------------------
 .byte   PATT
  .word Label_01006082
@  #07 @037   ----------------------------------------
 .byte   PATT
  .word Label_01006082
@  #07 @038   ----------------------------------------
 .byte   PATT
  .word Label_01006082
@  #07 @039   ----------------------------------------
 .byte   PATT
  .word Label_01006082
@  #07 @040   ----------------------------------------
 .byte   PATT
  .word Label_01006082
@  #07 @041   ----------------------------------------
 .byte   PATT
  .word Label_01006082
@  #07 @042   ----------------------------------------
Label_010060C2:
 .byte   N11 ,Cs0 ,v064
 .byte   W12
 .byte   N11
 .byte   W12
 .byte   N11
 .byte   W12
 .byte   N11
 .byte   W12
 .byte   N11
 .byte   W12
 .byte   Cs0 ,v072
 .byte   W12
 .byte   Cs0 ,v080
 .byte   W12
 .byte   Cs0 ,v088
 .byte   W12
@  #07 @043   ----------------------------------------
 .byte   Cs0 ,v096
 .byte   W12
 .byte   Cs0 ,v104
 .byte   W12
 .byte   PEND 
 .byte   N23 ,Cs0 ,v112
 .byte   W96
@  #07 @044   ----------------------------------------
Label_010060E2:
 .byte   N11 ,An0 ,v112
 .byte   W12
 .byte   N11
 .byte   W12
 .byte   N11
 .byte   W12
 .byte   N11
 .byte   W12
 .byte   N11
 .byte   W12
 .byte   N11
 .byte   W12
 .byte   N11
 .byte   W12
 .byte   N11
 .byte   W12
 .byte   PEND 
@  #07 @045   ----------------------------------------
Label_010060F5:
 .byte   N11 ,Bn0 ,v112
 .byte   W12
 .byte   N11
 .byte   W12
 .byte   N11
 .byte   W12
 .byte   N11
 .byte   W12
 .byte   N11
 .byte   W12
 .byte   N11
 .byte   W12
 .byte   N11
 .byte   W12
 .byte   N11
 .byte   W12
 .byte   PEND 
@  #07 @046   ----------------------------------------
Label_01006108:
 .byte   N11 ,Gs0 ,v112
 .byte   W12
 .byte   N11
 .byte   W12
 .byte   N11
 .byte   W12
 .byte   N11
 .byte   W12
 .byte   N11
 .byte   W12
 .byte   N11
 .byte   W12
 .byte   N11
 .byte   W12
 .byte   N11
 .byte   W12
 .byte   PEND 
@  #07 @047   ----------------------------------------
Label_0100611B:
 .byte   N11 ,Cs1 ,v112
 .byte   W12
 .byte   N11
 .byte   W12
 .byte   N11
 .byte   W12
 .byte   N11
 .byte   W12
 .byte   N11
 .byte   W12
 .byte   N11
 .byte   W12
 .byte   N11
 .byte   W12
 .byte   N11
 .byte   W12
 .byte   PEND 
@  #07 @048   ----------------------------------------
 .byte   PATT
  .word Label_010060E2
@  #07 @049   ----------------------------------------
 .byte   PATT
  .word Label_010060F5
@  #07 @050   ----------------------------------------
 .byte   PATT
  .word Label_0100611B
@  #07 @051   ----------------------------------------
Label_0100613D:
 .byte   N11 ,Cs0 ,v112
 .byte   W12
 .byte   N11
 .byte   W12
 .byte   N11
 .byte   W12
 .byte   N11
 .byte   W12
 .byte   N11
 .byte   W12
 .byte   N11
 .byte   W12
 .byte   N11
 .byte   W12
 .byte   N11
 .byte   W12
 .byte   PEND 
@  #07 @052   ----------------------------------------
 .byte   PATT
  .word Label_010060E2
@  #07 @053   ----------------------------------------
 .byte   PATT
  .word Label_010060F5
@  #07 @054   ----------------------------------------
 .byte   PATT
  .word Label_01006108
@  #07 @055   ----------------------------------------
 .byte   PATT
  .word Label_0100611B
@  #07 @056   ----------------------------------------
Label_01006164:
 .byte   N11 ,Fs0 ,v112
 .byte   W12
 .byte   N11
 .byte   W12
 .byte   N11
 .byte   W12
 .byte   N11
 .byte   W12
 .byte   N11
 .byte   W12
 .byte   N11
 .byte   W12
 .byte   N11
 .byte   W12
 .byte   N11
 .byte   W12
 .byte   PEND 
@  #07 @057   ----------------------------------------
 .byte   PATT
  .word Label_01006164
@  #07 @058   ----------------------------------------
 .byte   PATT
  .word Label_01006108
@  #07 @059   ----------------------------------------
 .byte   PATT
  .word Label_01006108
@  #07 @060   ----------------------------------------
 .byte   PATT
  .word Label_01005FFA
@  #07 @061   ----------------------------------------
 .byte   PATT
  .word Label_0100600E
@  #07 @062   ----------------------------------------
 .byte   PATT
  .word Label_01005FFA
@  #07 @063   ----------------------------------------
 .byte   PATT
  .word Label_01006023
@  #07 @064   ----------------------------------------
 .byte   PATT
  .word Label_01005FFA
@  #07 @065   ----------------------------------------
 .byte   PATT
  .word Label_0100600E
@  #07 @066   ----------------------------------------
 .byte   PATT
  .word Label_01006039
@  #07 @067   ----------------------------------------
 .byte   PATT
  .word Label_0100604D
@  #07 @068   ----------------------------------------
 .byte   PATT
  .word Label_01005FFA
@  #07 @069   ----------------------------------------
 .byte   PATT
  .word Label_0100600E
@  #07 @070   ----------------------------------------
 .byte   PATT
  .word Label_01005FFA
@  #07 @071   ----------------------------------------
 .byte   PATT
  .word Label_01006023
@  #07 @072   ----------------------------------------
 .byte   PATT
  .word Label_01005FFA
@  #07 @073   ----------------------------------------
 .byte   PATT
  .word Label_0100600E
@  #07 @074   ----------------------------------------
 .byte   PATT
  .word Label_01006039
@  #07 @075   ----------------------------------------
 .byte   PATT
  .word Label_0100604D
@  #07 @076   ----------------------------------------
 .byte   PATT
  .word Label_01005FFA
@  #07 @077   ----------------------------------------
 .byte   PATT
  .word Label_0100600E
@  #07 @078   ----------------------------------------
 .byte   PATT
  .word Label_01005FFA
@  #07 @079   ----------------------------------------
 .byte   PATT
  .word Label_01006023
@  #07 @080   ----------------------------------------
 .byte   PATT
  .word Label_01005FFA
@  #07 @081   ----------------------------------------
 .byte   PATT
  .word Label_0100600E
@  #07 @082   ----------------------------------------
 .byte   PATT
  .word Label_01006039
@  #07 @083   ----------------------------------------
 .byte   PATT
  .word Label_0100604D
@  #07 @084   ----------------------------------------
 .byte   PATT
  .word Label_01005FFA
@  #07 @085   ----------------------------------------
 .byte   PATT
  .word Label_0100600E
@  #07 @086   ----------------------------------------
 .byte   PATT
  .word Label_01005FFA
@  #07 @087   ----------------------------------------
 .byte   PATT
  .word Label_01006023
@  #07 @088   ----------------------------------------
 .byte   PATT
  .word Label_01005FFA
@  #07 @089   ----------------------------------------
 .byte   PATT
  .word Label_0100600E
@  #07 @090   ----------------------------------------
 .byte   PATT
  .word Label_01006039
@  #07 @091   ----------------------------------------
 .byte   PATT
  .word Label_0100604D
@  #07 @092   ----------------------------------------
 .byte   PATT
  .word Label_01005FFA
@  #07 @093   ----------------------------------------
 .byte   PATT
  .word Label_0100600E
@  #07 @094   ----------------------------------------
 .byte   PATT
  .word Label_01005FFA
@  #07 @095   ----------------------------------------
 .byte   PATT
  .word Label_01006023
@  #07 @096   ----------------------------------------
 .byte   PATT
  .word Label_01005FFA
@  #07 @097   ----------------------------------------
 .byte   PATT
  .word Label_0100600E
@  #07 @098   ----------------------------------------
 .byte   PATT
  .word Label_01006039
@  #07 @099   ----------------------------------------
 .byte   PATT
  .word Label_0100604D
@  #07 @100   ----------------------------------------
 .byte   PATT
  .word Label_01005FFA
@  #07 @101   ----------------------------------------
 .byte   PATT
  .word Label_0100600E
@  #07 @102   ----------------------------------------
 .byte   PATT
  .word Label_01005FFA
@  #07 @103   ----------------------------------------
 .byte   PATT
  .word Label_01006023
@  #07 @104   ----------------------------------------
 .byte   PATT
  .word Label_01005FFA
@  #07 @105   ----------------------------------------
 .byte   PATT
  .word Label_0100600E
@  #07 @106   ----------------------------------------
 .byte   PATT
  .word Label_01006039
@  #07 @107   ----------------------------------------
 .byte   W12
 .byte   N11 ,Cs0 ,v112
 .byte   W12
 .byte   N23 ,Dn0
 .byte   W24
 .byte   BnM1
 .byte   W24
 .byte   GOTO
  .word Label_01006082
@  #07 @108   ----------------------------------------
 .byte   N23 ,Dn0 ,v112
 .byte   W24
@  #07 @109   ----------------------------------------
 .byte   PATT
  .word Label_01006082
@  #07 @110   ----------------------------------------
 .byte   PATT
  .word Label_01006082
@  #07 @111   ----------------------------------------
 .byte   PATT
  .word Label_01006082
@  #07 @112   ----------------------------------------
 .byte   PATT
  .word Label_01006082
@  #07 @113   ----------------------------------------
 .byte   PATT
  .word Label_01006082
@  #07 @114   ----------------------------------------
 .byte   PATT
  .word Label_01006082
@  #07 @115   ----------------------------------------
 .byte   PATT
  .word Label_01006082
@  #07 @116   ----------------------------------------
 .byte   PATT
  .word Label_01006082
@  #07 @117   ----------------------------------------
 .byte   PATT
  .word Label_01006082
@  #07 @118   ----------------------------------------
 .byte   PATT
  .word Label_01006082
@  #07 @119   ----------------------------------------
 .byte   PATT
  .word Label_010060C2
@  #07 @120   ----------------------------------------
 .byte   N23 ,Cs0 ,v112
 .byte   W96
@  #07 @121   ----------------------------------------
 .byte   PATT
  .word Label_010060E2
@  #07 @122   ----------------------------------------
 .byte   PATT
  .word Label_010060F5
@  #07 @123   ----------------------------------------
 .byte   PATT
  .word Label_01006108
@  #07 @124   ----------------------------------------
 .byte   PATT
  .word Label_0100611B
@  #07 @125   ----------------------------------------
 .byte   PATT
  .word Label_010060E2
@  #07 @126   ----------------------------------------
 .byte   PATT
  .word Label_010060F5
@  #07 @127   ----------------------------------------
 .byte   PATT
  .word Label_0100611B
@  #07 @128   ----------------------------------------
 .byte   PATT
  .word Label_0100613D
@  #07 @129   ----------------------------------------
 .byte   PATT
  .word Label_010060E2
@  #07 @130   ----------------------------------------
 .byte   PATT
  .word Label_010060F5
@  #07 @131   ----------------------------------------
 .byte   PATT
  .word Label_01006108
@  #07 @132   ----------------------------------------
 .byte   PATT
  .word Label_0100611B
@  #07 @133   ----------------------------------------
 .byte   PATT
  .word Label_01006164
@  #07 @134   ----------------------------------------
 .byte   PATT
  .word Label_01006164
@  #07 @135   ----------------------------------------
 .byte   PATT
  .word Label_01006108
@  #07 @136   ----------------------------------------
 .byte   PATT
  .word Label_01006108
@  #07 @137   ----------------------------------------
 .byte   PATT
  .word Label_01005F87
@  #07 @138   ----------------------------------------
 .byte   PATT
  .word Label_01005F77
@  #07 @139   ----------------------------------------
 .byte   PATT
  .word Label_01005F87
@  #07 @140   ----------------------------------------
 .byte   PATT
  .word Label_01005F9B
@  #07 @141   ----------------------------------------
 .byte   PATT
  .word Label_01005F87
@  #07 @142   ----------------------------------------
 .byte   PATT
  .word Label_01005F77
@  #07 @143   ----------------------------------------
 .byte   PATT
  .word Label_01005FB1
@  #07 @144   ----------------------------------------
 .byte   PATT
  .word Label_01005FC5
@  #07 @145   ----------------------------------------
 .byte   PATT
  .word Label_01005F87
@  #07 @146   ----------------------------------------
 .byte   PATT
  .word Label_01005F77
@  #07 @147   ----------------------------------------
 .byte   PATT
  .word Label_01005F87
@  #07 @148   ----------------------------------------
 .byte   PATT
  .word Label_01005F9B
@  #07 @149   ----------------------------------------
 .byte   PATT
  .word Label_01005F87
@  #07 @150   ----------------------------------------
 .byte   PATT
  .word Label_01005F77
@  #07 @151   ----------------------------------------
 .byte   PATT
  .word Label_01005FB1
@  #07 @152   ----------------------------------------
 .byte   W12
 .byte   N11 ,Cs0 ,v096
 .byte   W12
 .byte   N23 ,Dn0
 .byte   W24
 .byte   BnM1
 .byte   W24
 .byte   Dn0
 .byte   W23
 .byte   FINE

@**************** Track 8 (Midi-Chn.7) ****************@

song04_008:
@  #08 @000   ----------------------------------------
 .byte   KEYSH , song04_key+0
 .byte   VOICE , 124
 .byte   VOL , 50*song04_mvl/mxv
 .byte   PAN , c_v+0
 .byte   N23 ,Cn1 ,v096
 .byte   N05 ,Dn1 ,v127
 .byte   N05 ,Fn1
 .byte   N05 ,Fs1
 .byte   W06
 .byte   Fs1 ,v096
 .byte   W06
 .byte   Dn1
 .byte   N05 ,Fn1
 .byte   N05 ,Fs1
 .byte   W06
 .byte   N05
 .byte   W06
 .byte   N23 ,Cn1
 .byte   N05 ,Dn1 ,v127
 .byte   N05 ,Fn1
 .byte   N05 ,Fs1
 .byte   W06
 .byte   Fs1 ,v096
 .byte   W06
 .byte   Dn1
 .byte   N05 ,Fn1
 .byte   N05 ,Fs1
 .byte   W06
 .byte   N05
 .byte   W06
 .byte   N23 ,Cn1
 .byte   N05 ,Fs1 ,v127
 .byte   W06
 .byte   Fs1 ,v096
 .byte   W06
 .byte   N05
 .byte   W06
 .byte   N05
 .byte   W06
 .byte   N23 ,Cn1
 .byte   N05 ,Fs1 ,v127
 .byte   W06
 .byte   Fs1 ,v096
 .byte   W06
 .byte   N05
 .byte   W06
 .byte   N05
 .byte   W06
@  #08 @001   ----------------------------------------
Label_010063C5:
 .byte   N23 ,Cn1 ,v096
 .byte   N05 ,Fs1 ,v127
 .byte   W06
 .byte   Fs1 ,v096
 .byte   W06
 .byte   N05
 .byte   W06
 .byte   N05
 .byte   W06
 .byte   N23 ,Cn1
 .byte   N05 ,Fs1 ,v127
 .byte   W06
 .byte   Fs1 ,v096
 .byte   W06
 .byte   N05
 .byte   W06
 .byte   N05
 .byte   W06
 .byte   N23 ,Cn1
 .byte   N05 ,Fs1 ,v127
 .byte   W06
 .byte   Fs1 ,v096
 .byte   W06
 .byte   N05
 .byte   W06
 .byte   N05
 .byte   W06
 .byte   N23 ,Cn1
 .byte   N05 ,Fs1 ,v127
 .byte   W06
 .byte   Fs1 ,v096
 .byte   W06
 .byte   N05
 .byte   W06
 .byte   N05
 .byte   W06
 .byte   PEND 
@  #08 @002   ----------------------------------------
Label_010063FB:
 .byte   N23 ,Cn1 ,v096
 .byte   N05 ,Dn1 ,v127
 .byte   N05 ,Fn1
 .byte   N05 ,Fs1
 .byte   W06
 .byte   Fs1 ,v096
 .byte   W06
 .byte   Dn1
 .byte   N05 ,Fn1
 .byte   N05 ,Fs1
 .byte   W06
 .byte   N05
 .byte   W06
 .byte   N23 ,Cn1
 .byte   N05 ,Dn1 ,v127
 .byte   N05 ,Fn1
 .byte   N05 ,Fs1
 .byte   W06
 .byte   Fs1 ,v096
 .byte   W06
 .byte   Dn1
 .byte   N05 ,Fn1
 .byte   N05 ,Fs1
 .byte   W06
 .byte   N05
 .byte   W06
 .byte   N23 ,Cn1
 .byte   N05 ,Fs1 ,v127
 .byte   W06
 .byte   Fs1 ,v096
 .byte   W06
 .byte   N05
 .byte   W06
 .byte   N05
 .byte   W06
 .byte   N23 ,Cn1
 .byte   N05 ,Fs1 ,v127
 .byte   W06
 .byte   Fs1 ,v096
 .byte   W06
 .byte   N05
 .byte   W06
 .byte   N05
 .byte   W06
 .byte   PEND 
@  #08 @003   ----------------------------------------
 .byte   PATT
  .word Label_010063C5
@  #08 @004   ----------------------------------------
 .byte   PATT
  .word Label_010063FB
@  #08 @005   ----------------------------------------
 .byte   PATT
  .word Label_010063C5
@  #08 @006   ----------------------------------------
 .byte   PATT
  .word Label_010063FB
@  #08 @007   ----------------------------------------
Label_01006455:
 .byte   N23 ,Cn1 ,v096
 .byte   N05 ,Fs1 ,v127
 .byte   W06
 .byte   Fs1 ,v096
 .byte   W06
 .byte   N05
 .byte   W06
 .byte   N05
 .byte   W06
 .byte   N23 ,Cn1
 .byte   N05 ,Fs1 ,v127
 .byte   W06
 .byte   Fs1 ,v096
 .byte   W06
 .byte   N05
 .byte   W06
 .byte   N05
 .byte   W06
 .byte   N23 ,Cn1
 .byte   N05 ,Fs1 ,v127
 .byte   W06
 .byte   Fs1 ,v096
 .byte   W06
 .byte   N05
 .byte   W06
 .byte   N05
 .byte   W06
 .byte   N23 ,Cn1
 .byte   N11 ,As1 ,v127
 .byte   W12
 .byte   N05 ,Fs1 ,v096
 .byte   W06
 .byte   N05
 .byte   W06
 .byte   PEND 
@  #08 @008   ----------------------------------------
Label_0100648A:
 .byte   N23 ,Cn1 ,v096
 .byte   N05 ,Dn1 ,v127
 .byte   N05 ,Fn1
 .byte   N05 ,Cs2
 .byte   W06
 .byte   Fs1 ,v096
 .byte   W06
 .byte   Dn1
 .byte   N05 ,Fn1
 .byte   N05 ,Fs1
 .byte   W06
 .byte   N05
 .byte   W06
 .byte   N23 ,Cn1
 .byte   N05 ,Dn1 ,v127
 .byte   N05 ,Fn1
 .byte   N05 ,Fs1
 .byte   W06
 .byte   Fs1 ,v096
 .byte   W06
 .byte   Dn1
 .byte   N05 ,Fn1
 .byte   N05 ,Fs1
 .byte   W06
 .byte   N05
 .byte   W06
 .byte   N23 ,Cn1
 .byte   N05 ,Fs1 ,v127
 .byte   W06
 .byte   Fs1 ,v096
 .byte   W06
 .byte   N05
 .byte   W06
 .byte   N05
 .byte   W06
 .byte   N23 ,Cn1
 .byte   N05 ,Fs1 ,v127
 .byte   W06
 .byte   Fs1 ,v096
 .byte   W06
 .byte   N05
 .byte   W06
 .byte   N05
 .byte   W06
 .byte   PEND 
@  #08 @009   ----------------------------------------
 .byte   PATT
  .word Label_010063C5
@  #08 @010   ----------------------------------------
 .byte   PATT
  .word Label_010063FB
@  #08 @011   ----------------------------------------
 .byte   PATT
  .word Label_010063C5
@  #08 @012   ----------------------------------------
 .byte   PATT
  .word Label_010063FB
@  #08 @013   ----------------------------------------
 .byte   N23 ,Cn1 ,v096
 .byte   N05 ,Fs1 ,v127
 .byte   W06
 .byte   Fs1 ,v096
 .byte   W06
 .byte   N05
 .byte   W06
 .byte   N05
 .byte   W06
 .byte   N23 ,Cn1
 .byte   N05 ,Fs1 ,v127
 .byte   W06
 .byte   Fs1 ,v096
 .byte   W06
 .byte   N05
 .byte   W06
 .byte   N05
 .byte   W06
 .byte   N23 ,Cn1
 .byte   N05 ,Fs1 ,v127
 .byte   W06
 .byte   Fs1 ,v096
 .byte   W06
 .byte   N05
 .byte   W06
 .byte   N05
 .byte   W06
 .byte   N11 ,Cn1
 .byte   N11 ,As1 ,v127
 .byte   W12
 .byte   N05 ,Fs1 ,v096
 .byte   N11 ,Gs1
 .byte   W06
 .byte   N05 ,Fs1
 .byte   W06
@  #08 @014   ----------------------------------------
 .byte   PATT
  .word Label_010063FB
@  #08 @015   ----------------------------------------
 .byte   N23 ,Cn1 ,v096
 .byte   N05 ,Fs1 ,v127
 .byte   W06
 .byte   Fs1 ,v096
 .byte   W06
 .byte   N05
 .byte   W06
 .byte   N05
 .byte   W06
 .byte   N23 ,Cn1
 .byte   N05 ,Fs1 ,v127
 .byte   W06
 .byte   Fs1 ,v096
 .byte   W06
 .byte   N05
 .byte   W06
 .byte   N05
 .byte   W06
 .byte   N23 ,Cn1
 .byte   N11 ,Dn1
 .byte   W12
 .byte   N05
 .byte   W06
 .byte   N05
 .byte   W06
 .byte   N23 ,Cn1
 .byte   N05 ,Dn1
 .byte   W06
 .byte   N05
 .byte   W06
 .byte   N05
 .byte   W06
 .byte   N05
 .byte   W06
@  #08 @016   ----------------------------------------
Label_0100654F:
 .byte   N23 ,Cn1 ,v096
 .byte   N23 ,Cs2
 .byte   W24
 .byte   Dn1
 .byte   N23 ,As1
 .byte   W12
 .byte   N11 ,Cn1
 .byte   W12
 .byte   N23 ,As1
 .byte   W12
 .byte   N11 ,Cn1
 .byte   W12
 .byte   N23 ,Dn1
 .byte   N23 ,As1
 .byte   W24
 .byte   PEND 
@  #08 @017   ----------------------------------------
Label_01006568:
 .byte   N23 ,As1 ,v096
 .byte   W12
 .byte   N11 ,Cn1
 .byte   W12
 .byte   N23 ,Dn1
 .byte   N23 ,As1
 .byte   W24
 .byte   Dn1
 .byte   N23 ,As1
 .byte   W12
 .byte   N11 ,Cn1
 .byte   W12
 .byte   N23 ,Dn1
 .byte   N23 ,As1
 .byte   W12
 .byte   N11 ,Cn1
 .byte   W12
 .byte   PEND 
@  #08 @018   ----------------------------------------
Label_01006584:
 .byte   N23 ,Cn1 ,v096
 .byte   N23 ,As1
 .byte   W24
 .byte   Dn1
 .byte   N23 ,As1
 .byte   W12
 .byte   N11 ,Cn1
 .byte   W12
 .byte   As1
 .byte   W12
 .byte   Dn1
 .byte   W12
 .byte   N23 ,Cn1
 .byte   N23 ,As1
 .byte   W24
 .byte   PEND 
@  #08 @019   ----------------------------------------
Label_0100659B:
 .byte   N23 ,As1 ,v096
 .byte   W12
 .byte   N11 ,Cn1
 .byte   W12
 .byte   N23 ,Dn1
 .byte   N23 ,As1
 .byte   W24
 .byte   Dn1
 .byte   N23 ,As1
 .byte   W12
 .byte   N11 ,Cn1
 .byte   W12
 .byte   N23 ,Dn1
 .byte   N23 ,As1
 .byte   W24
 .byte   PEND 
@  #08 @020   ----------------------------------------
 .byte   PATT
  .word Label_0100654F
@  #08 @021   ----------------------------------------
 .byte   PATT
  .word Label_01006568
@  #08 @022   ----------------------------------------
 .byte   PATT
  .word Label_01006584
@  #08 @023   ----------------------------------------
 .byte   N23 ,As1 ,v096
 .byte   W12
 .byte   N11 ,Cn1
 .byte   W12
 .byte   N23 ,Dn1
 .byte   N23 ,As1
 .byte   W24
 .byte   Cn1
 .byte   N11 ,Dn1
 .byte   N11 ,As1
 .byte   W12
 .byte   N05 ,Dn1
 .byte   W06
 .byte   N05
 .byte   W06
 .byte   N05
 .byte   W06
 .byte   N05
 .byte   W06
 .byte   N05
 .byte   W06
 .byte   N05
 .byte   W06
@  #08 @024   ----------------------------------------
Label_010065E2:
 .byte   N23 ,Cn1 ,v096
 .byte   N23 ,Cs2
 .byte   W24
 .byte   Dn1
 .byte   N23 ,Fs2
 .byte   W12
 .byte   N11 ,Cn1
 .byte   W12
 .byte   N23 ,Fs2
 .byte   W12
 .byte   N11 ,Cn1
 .byte   W12
 .byte   N23 ,Dn1
 .byte   N23 ,Fs2
 .byte   W24
 .byte   PEND 
@  #08 @025   ----------------------------------------
Label_010065FB:
 .byte   N23 ,Fs2 ,v096
 .byte   W12
 .byte   N11 ,Cn1
 .byte   W12
 .byte   N23 ,Dn1
 .byte   N23 ,Fs2
 .byte   W24
 .byte   Dn1
 .byte   N23 ,Fs2
 .byte   W12
 .byte   N11 ,Cn1
 .byte   W12
 .byte   N23 ,Dn1
 .byte   N23 ,Fs2
 .byte   W12
 .byte   N11 ,Cn1
 .byte   W12
 .byte   PEND 
@  #08 @026   ----------------------------------------
Label_01006617:
 .byte   N23 ,Cn1 ,v096
 .byte   N23 ,An2
 .byte   W24
 .byte   Dn1
 .byte   N23 ,Fs2
 .byte   W12
 .byte   N11 ,Cn1
 .byte   W12
 .byte   Fs2
 .byte   W12
 .byte   Dn1
 .byte   W12
 .byte   N23 ,Cn1
 .byte   N23 ,Fs2
 .byte   W24
 .byte   PEND 
@  #08 @027   ----------------------------------------
 .byte   PATT
  .word Label_010065FB
@  #08 @028   ----------------------------------------
 .byte   PATT
  .word Label_010065E2
@  #08 @029   ----------------------------------------
 .byte   PATT
  .word Label_010065FB
@  #08 @030   ----------------------------------------
 .byte   PATT
  .word Label_01006617
@  #08 @031   ----------------------------------------
 .byte   N23 ,Fs2 ,v096
 .byte   W12
 .byte   N11 ,Cn1
 .byte   W12
 .byte   N23 ,Dn1
 .byte   N23 ,Fs2
 .byte   W24
 .byte   N11 ,Cn1
 .byte   N11 ,Dn1
 .byte   N11 ,Fn1
 .byte   N11 ,Fs2
 .byte   W12
 .byte   Cn1
 .byte   N11 ,Dn1
 .byte   N11 ,Fn1
 .byte   W12
 .byte   Cn1
 .byte   N11 ,Dn1
 .byte   N11 ,Fn1
 .byte   W12
 .byte   Cn1
 .byte   N11 ,Dn1
 .byte   N11 ,Fn1
 .byte   W12
@  #08 @032   ----------------------------------------
Label_01006669:
 .byte   N05 ,Fs1 ,v076
 .byte   W06
 .byte   Fs1 ,v052
 .byte   W06
 .byte   N05
 .byte   W06
 .byte   N05
 .byte   W06
 .byte   Fs1 ,v076
 .byte   W06
 .byte   Fs1 ,v052
 .byte   W06
 .byte   N05
 .byte   W06
 .byte   N05
 .byte   W06
 .byte   Fs1 ,v076
 .byte   W06
 .byte   Fs1 ,v052
 .byte   W06
 .byte   N05
 .byte   W06
 .byte   N05
 .byte   W06
 .byte   Fs1 ,v076
 .byte   W06
 .byte   Fs1 ,v052
 .byte   W06
 .byte   N05
 .byte   W06
 .byte   N05
 .byte   W06
 .byte   PEND 
@  #08 @033   ----------------------------------------
Label_01006693:
 .byte   N05 ,Fs1 ,v052
 .byte   W06
 .byte   N05
 .byte   W06
 .byte   N11 ,Cn1
 .byte   N11 ,Dn1 ,v076
 .byte   N11 ,Fn1
 .byte   N11 ,As1
 .byte   W12
 .byte   N05 ,Fs1 ,v052
 .byte   W06
 .byte   N05
 .byte   W06
 .byte   N11 ,Cn1
 .byte   N11 ,Dn1 ,v076
 .byte   N11 ,Fn1
 .byte   N11 ,As1
 .byte   W12
 .byte   N05 ,Fs1
 .byte   W06
 .byte   Fs1 ,v052
 .byte   W06
 .byte   N05
 .byte   W06
 .byte   N05
 .byte   W06
 .byte   Fs1 ,v076
 .byte   W06
 .byte   Fs1 ,v052
 .byte   W06
 .byte   N05
 .byte   W06
 .byte   N05
 .byte   W06
 .byte   PEND 
@  #08 @034   ----------------------------------------
Label_010066C8:
 .byte   N05 ,Fs1 ,v076
 .byte   W06
 .byte   Fs1 ,v052
 .byte   W06
 .byte   N05
 .byte   W06
 .byte   N05
 .byte   W06
 .byte   Fs1 ,v076
 .byte   W06
 .byte   Fs1 ,v052
 .byte   W06
 .byte   N05
 .byte   W06
 .byte   N05
 .byte   W06
 .byte   N05
 .byte   W06
 .byte   N05
 .byte   W06
 .byte   N11 ,Cn1
 .byte   N11 ,Dn1 ,v076
 .byte   N11 ,Fn1
 .byte   N11 ,As1
 .byte   W12
 .byte   N05 ,Fs1
 .byte   W06
 .byte   Fs1 ,v052
 .byte   W06
 .byte   N05
 .byte   W06
 .byte   N05
 .byte   W06
 .byte   PEND 
@  #08 @035   ----------------------------------------
 .byte   PATT
  .word Label_01006669
@  #08 @036   ----------------------------------------
 .byte   PATT
  .word Label_01006693
@  #08 @037   ----------------------------------------
Label_01006700:
 .byte   N05 ,Fs1 ,v076
 .byte   W06
 .byte   Fs1 ,v052
 .byte   W06
 .byte   N05
 .byte   W06
 .byte   N05
 .byte   W06
 .byte   Fs1 ,v076
 .byte   W06
 .byte   Fs1 ,v052
 .byte   W06
 .byte   N05
 .byte   W06
 .byte   N05
 .byte   W06
 .byte   N05
 .byte   W06
 .byte   N05
 .byte   W06
 .byte   N02 ,Cn1
 .byte   N02 ,Dn1
 .byte   N02 ,Gn1
 .byte   W03
 .byte   Cn1
 .byte   N02 ,Dn1
 .byte   N02 ,Gn1
 .byte   W03
 .byte   Cn1
 .byte   N02 ,Dn1
 .byte   N02 ,Gn1
 .byte   W03
 .byte   Cn1
 .byte   N02 ,Dn1
 .byte   N02 ,Gn1
 .byte   W03
 .byte   N05 ,Fs1 ,v076
 .byte   W06
 .byte   Fs1 ,v052
 .byte   W06
 .byte   N05
 .byte   W06
 .byte   N05
 .byte   W06
 .byte   PEND 
@  #08 @038   ----------------------------------------
 .byte   PATT
  .word Label_01006669
@  #08 @039   ----------------------------------------
 .byte   PATT
  .word Label_01006693
@  #08 @040   ----------------------------------------
 .byte   PATT
  .word Label_010066C8
@  #08 @041   ----------------------------------------
 .byte   PATT
  .word Label_01006669
@  #08 @042   ----------------------------------------
 .byte   N05 ,Fs1 ,v052
 .byte   W06
 .byte   N05
 .byte   W06
 .byte   N11 ,Cn1
 .byte   N11 ,Dn1 ,v076
 .byte   N11 ,Fn1
 .byte   N11 ,As1
 .byte   W12
 .byte   N05 ,Fs1 ,v052
 .byte   W06
 .byte   N05
 .byte   W06
 .byte   N11 ,Cn1
 .byte   N11 ,Dn1 ,v076
 .byte   N11 ,Fn1
 .byte   N11 ,As1
 .byte   W12
 .byte   N05 ,Fs1
 .byte   W06
 .byte   Fs1 ,v056
 .byte   W06
 .byte   Fs1 ,v060
 .byte   W06
 .byte   Fs1 ,v064
 .byte   W06
 .byte   Fs1 ,v108
 .byte   W06
 .byte   Fs1 ,v076
 .byte   W06
 .byte   Fs1 ,v080
 .byte   W06
 .byte   Fs1 ,v088
 .byte   W06
@  #08 @043   ----------------------------------------
 .byte   Fs1 ,v127
 .byte   N05 ,Gn1
 .byte   W06
 .byte   Fs1 ,v096
 .byte   W06
 .byte   Fs1 ,v104
 .byte   N05 ,Gn1
 .byte   W06
 .byte   Fs1 ,v108
 .byte   W06
 .byte   N23 ,Fs1 ,v112
 .byte   N23 ,Gn1
 .byte   W96
@  #08 @044   ----------------------------------------
Label_010067A0:
 .byte   N23 ,Cn1 ,v127
 .byte   N23 ,Cs2
 .byte   W24
 .byte   Dn1
 .byte   N23 ,As1
 .byte   W24
 .byte   N11 ,Cn1
 .byte   N23 ,As1
 .byte   W12
 .byte   N11 ,Cn1
 .byte   W12
 .byte   N23 ,Dn1
 .byte   N23 ,As1
 .byte   W12
 .byte   N11 ,Cn1
 .byte   W12
 .byte   PEND 
@  #08 @045   ----------------------------------------
Label_010067BB:
 .byte   N23 ,As1 ,v127
 .byte   W12
 .byte   N11 ,Cn1
 .byte   W12
 .byte   N23 ,Dn1
 .byte   N23 ,As1
 .byte   W24
 .byte   N11 ,Cn1
 .byte   N23 ,As1
 .byte   W12
 .byte   N11 ,Cn1
 .byte   W12
 .byte   N23 ,Dn1
 .byte   N23 ,As1
 .byte   W12
 .byte   N11 ,Cn1
 .byte   W12
 .byte   PEND 
@  #08 @046   ----------------------------------------
Label_010067D8:
 .byte   N23 ,Cn1 ,v127
 .byte   N23 ,As1
 .byte   W24
 .byte   Dn1
 .byte   N23 ,As1
 .byte   W24
 .byte   N11 ,Cn1
 .byte   N23 ,As1
 .byte   W12
 .byte   N11 ,Cn1
 .byte   W12
 .byte   N23 ,Dn1
 .byte   N23 ,As1
 .byte   W12
 .byte   N11 ,Cn1
 .byte   W12
 .byte   PEND 
@  #08 @047   ----------------------------------------
 .byte   PATT
  .word Label_010067BB
@  #08 @048   ----------------------------------------
 .byte   PATT
  .word Label_010067A0
@  #08 @049   ----------------------------------------
 .byte   PATT
  .word Label_010067BB
@  #08 @050   ----------------------------------------
 .byte   PATT
  .word Label_010067D8
@  #08 @051   ----------------------------------------
 .byte   PATT
  .word Label_010067BB
@  #08 @052   ----------------------------------------
 .byte   PATT
  .word Label_010067A0
@  #08 @053   ----------------------------------------
 .byte   PATT
  .word Label_010067BB
@  #08 @054   ----------------------------------------
 .byte   PATT
  .word Label_010067D8
@  #08 @055   ----------------------------------------
 .byte   PATT
  .word Label_010067BB
@  #08 @056   ----------------------------------------
 .byte   PATT
  .word Label_010067A0
@  #08 @057   ----------------------------------------
 .byte   PATT
  .word Label_010067BB
@  #08 @058   ----------------------------------------
 .byte   PATT
  .word Label_010067D8
@  #08 @059   ----------------------------------------
 .byte   PATT
  .word Label_010067BB
@  #08 @060   ----------------------------------------
Label_01006834:
 .byte   N23 ,Cn1 ,v080
 .byte   N05 ,Dn1 ,v120
 .byte   N05 ,Fn1
 .byte   N05 ,Fs1
 .byte   W06
 .byte   Fs1 ,v080
 .byte   W06
 .byte   Dn1
 .byte   N05 ,Fn1
 .byte   N05 ,Fs1
 .byte   W06
 .byte   N05
 .byte   W06
 .byte   N23 ,Cn1
 .byte   N05 ,Dn1 ,v120
 .byte   N05 ,Fn1
 .byte   N05 ,Fs1
 .byte   W06
 .byte   Fs1 ,v080
 .byte   W06
 .byte   Dn1
 .byte   N05 ,Fn1
 .byte   N05 ,Fs1
 .byte   W06
 .byte   N05
 .byte   W06
 .byte   N23 ,Cn1
 .byte   N05 ,Fs1 ,v120
 .byte   W06
 .byte   Fs1 ,v080
 .byte   W06
 .byte   N05
 .byte   W06
 .byte   N05
 .byte   W06
 .byte   N23 ,Cn1
 .byte   N05 ,Fs1 ,v120
 .byte   W06
 .byte   Fs1 ,v080
 .byte   W06
 .byte   N05
 .byte   W06
 .byte   N05
 .byte   W06
 .byte   PEND 
@  #08 @061   ----------------------------------------
Label_0100687A:
 .byte   N23 ,Cn1 ,v080
 .byte   N05 ,Fs1 ,v120
 .byte   W06
 .byte   Fs1 ,v080
 .byte   W06
 .byte   N05
 .byte   W06
 .byte   N05
 .byte   W06
 .byte   N23 ,Cn1
 .byte   N05 ,Fs1 ,v120
 .byte   W06
 .byte   Fs1 ,v080
 .byte   W06
 .byte   N05
 .byte   W06
 .byte   N05
 .byte   W06
 .byte   N23 ,Cn1
 .byte   N05 ,Fs1 ,v120
 .byte   W06
 .byte   Fs1 ,v080
 .byte   W06
 .byte   N05
 .byte   W06
 .byte   N05
 .byte   W06
 .byte   N23 ,Cn1
 .byte   N05 ,Fs1 ,v120
 .byte   W06
 .byte   Fs1 ,v080
 .byte   W06
 .byte   N05
 .byte   W06
 .byte   N05
 .byte   W06
 .byte   PEND 
@  #08 @062   ----------------------------------------
 .byte   PATT
  .word Label_01006834
@  #08 @063   ----------------------------------------
 .byte   PATT
  .word Label_0100687A
@  #08 @064   ----------------------------------------
 .byte   PATT
  .word Label_01006834
@  #08 @065   ----------------------------------------
 .byte   PATT
  .word Label_0100687A
@  #08 @066   ----------------------------------------
 .byte   PATT
  .word Label_01006834
@  #08 @067   ----------------------------------------
 .byte   N23 ,Cn1 ,v080
 .byte   N05 ,Fs1 ,v120
 .byte   W06
 .byte   Fs1 ,v080
 .byte   W06
 .byte   N05
 .byte   W06
 .byte   N05
 .byte   W06
 .byte   N23 ,Cn1
 .byte   N05 ,Fs1 ,v120
 .byte   W06
 .byte   Fs1 ,v080
 .byte   W06
 .byte   N05
 .byte   W06
 .byte   N05
 .byte   W06
 .byte   N23 ,Cn1
 .byte   N05 ,Fs1 ,v120
 .byte   W06
 .byte   Fs1 ,v080
 .byte   W06
 .byte   N05
 .byte   W06
 .byte   N05
 .byte   W06
 .byte   N23 ,Cn1
 .byte   N11 ,As1 ,v120
 .byte   W12
 .byte   N05 ,Fs1 ,v080
 .byte   W06
 .byte   N05
 .byte   W06
@  #08 @068   ----------------------------------------
 .byte   N23 ,Cn1
 .byte   N05 ,Dn1 ,v120
 .byte   N05 ,Fn1
 .byte   N05 ,An2
 .byte   W06
 .byte   Fs1 ,v080
 .byte   W06
 .byte   Dn1
 .byte   N05 ,Fn1
 .byte   N05 ,Fs1
 .byte   W06
 .byte   N05
 .byte   W06
 .byte   N23 ,Cn1
 .byte   N05 ,Dn1 ,v120
 .byte   N05 ,Fn1
 .byte   N05 ,Fs1
 .byte   W06
 .byte   Fs1 ,v080
 .byte   W06
 .byte   Dn1
 .byte   N05 ,Fn1
 .byte   N05 ,Fs1
 .byte   W06
 .byte   N05
 .byte   W06
 .byte   N23 ,Cn1
 .byte   N05 ,Fs1 ,v120
 .byte   W06
 .byte   Fs1 ,v080
 .byte   W06
 .byte   N05
 .byte   W06
 .byte   N05
 .byte   W06
 .byte   N23 ,Cn1
 .byte   N05 ,Fs1 ,v120
 .byte   W06
 .byte   Fs1 ,v080
 .byte   W06
 .byte   N05
 .byte   W06
 .byte   N05
 .byte   W06
@  #08 @069   ----------------------------------------
 .byte   PATT
  .word Label_0100687A
@  #08 @070   ----------------------------------------
 .byte   PATT
  .word Label_01006834
@  #08 @071   ----------------------------------------
 .byte   PATT
  .word Label_0100687A
@  #08 @072   ----------------------------------------
 .byte   PATT
  .word Label_01006834
@  #08 @073   ----------------------------------------
 .byte   N23 ,Cn1 ,v080
 .byte   N05 ,Fs1 ,v120
 .byte   W06
 .byte   Fs1 ,v080
 .byte   W06
 .byte   N05
 .byte   W06
 .byte   N05
 .byte   W06
 .byte   N23 ,Cn1
 .byte   N05 ,Fs1 ,v120
 .byte   W06
 .byte   Fs1 ,v080
 .byte   W06
 .byte   N05
 .byte   W06
 .byte   N05
 .byte   W06
 .byte   N23 ,Cn1
 .byte   N05 ,Fs1 ,v120
 .byte   W06
 .byte   Fs1 ,v080
 .byte   W06
 .byte   N05
 .byte   W06
 .byte   N05
 .byte   W06
 .byte   N11 ,Cn1
 .byte   N11 ,As1 ,v120
 .byte   W12
 .byte   N05 ,Fs1 ,v080
 .byte   N11 ,Gs1
 .byte   W06
 .byte   N05 ,Fs1
 .byte   W06
@  #08 @074   ----------------------------------------
 .byte   PATT
  .word Label_01006834
@  #08 @075   ----------------------------------------
 .byte   N23 ,Cn1 ,v080
 .byte   N05 ,Fs1 ,v120
 .byte   W06
 .byte   Fs1 ,v080
 .byte   W06
 .byte   N05
 .byte   W06
 .byte   N05
 .byte   W06
 .byte   N23 ,Cn1
 .byte   N05 ,Fs1 ,v120
 .byte   W06
 .byte   Fs1 ,v080
 .byte   W06
 .byte   N05
 .byte   W06
 .byte   N05
 .byte   W06
 .byte   N23 ,Cn1 ,v064
 .byte   N05 ,Dn1
 .byte   N05 ,Fs1
 .byte   W06
 .byte   Dn1 ,v068
 .byte   W06
 .byte   Dn1 ,v072
 .byte   W06
 .byte   Dn1 ,v076
 .byte   W06
 .byte   N23 ,Cn1 ,v080
 .byte   N05 ,Dn1
 .byte   W06
 .byte   Dn1 ,v084
 .byte   W06
 .byte   Dn1 ,v088
 .byte   W06
 .byte   Dn1 ,v092
 .byte   W06
@  #08 @076   ----------------------------------------
 .byte   PATT
  .word Label_0100654F
@  #08 @077   ----------------------------------------
 .byte   PATT
  .word Label_01006568
@  #08 @078   ----------------------------------------
 .byte   PATT
  .word Label_01006584
@  #08 @079   ----------------------------------------
 .byte   PATT
  .word Label_0100659B
@  #08 @080   ----------------------------------------
 .byte   PATT
  .word Label_0100654F
@  #08 @081   ----------------------------------------
 .byte   PATT
  .word Label_01006568
@  #08 @082   ----------------------------------------
 .byte   PATT
  .word Label_01006584
@  #08 @083   ----------------------------------------
 .byte   N23 ,As1 ,v096
 .byte   W12
 .byte   N11 ,Cn1
 .byte   W12
 .byte   N23 ,Dn1
 .byte   N23 ,As1
 .byte   W24
 .byte   Cn1
 .byte   N23 ,Dn1
 .byte   N23 ,As1
 .byte   W24
 .byte   N11 ,Dn1
 .byte   N11 ,As1
 .byte   W12
 .byte   N05 ,Dn1
 .byte   W06
 .byte   N05
 .byte   W06
@  #08 @084   ----------------------------------------
 .byte   PATT
  .word Label_010065E2
@  #08 @085   ----------------------------------------
 .byte   PATT
  .word Label_010065FB
@  #08 @086   ----------------------------------------
 .byte   PATT
  .word Label_01006617
@  #08 @087   ----------------------------------------
 .byte   PATT
  .word Label_010065FB
@  #08 @088   ----------------------------------------
 .byte   PATT
  .word Label_010065E2
@  #08 @089   ----------------------------------------
 .byte   PATT
  .word Label_010065FB
@  #08 @090   ----------------------------------------
 .byte   PATT
  .word Label_01006617
@  #08 @091   ----------------------------------------
 .byte   N23 ,Fs2 ,v096
 .byte   W12
 .byte   N11 ,Cn1
 .byte   W12
 .byte   N23 ,Dn1
 .byte   N23 ,Fs2
 .byte   W24
 .byte   Cn1
 .byte   N11 ,Dn1
 .byte   N11 ,Fs2
 .byte   W12
 .byte   N05 ,Dn1
 .byte   W06
 .byte   N05
 .byte   W06
 .byte   N23 ,Cn1
 .byte   N05 ,Dn1
 .byte   N05 ,Fs2
 .byte   W06
 .byte   Dn1
 .byte   W06
 .byte   N05
 .byte   W06
 .byte   N05
 .byte   W06
@  #08 @092   ----------------------------------------
 .byte   PATT
  .word Label_0100654F
@  #08 @093   ----------------------------------------
 .byte   PATT
  .word Label_01006568
@  #08 @094   ----------------------------------------
 .byte   PATT
  .word Label_01006584
@  #08 @095   ----------------------------------------
 .byte   PATT
  .word Label_0100659B
@  #08 @096   ----------------------------------------
 .byte   PATT
  .word Label_0100654F
@  #08 @097   ----------------------------------------
 .byte   PATT
  .word Label_01006568
@  #08 @098   ----------------------------------------
 .byte   PATT
  .word Label_01006584
@  #08 @099   ----------------------------------------
 .byte   N23 ,As1 ,v096
 .byte   W12
 .byte   N11 ,Cn1
 .byte   W12
 .byte   N23 ,Dn1
 .byte   N23 ,As1
 .byte   W24
 .byte   N11 ,Cn1
 .byte   N11 ,Dn1
 .byte   N11 ,Fn1
 .byte   N11 ,As1
 .byte   W12
 .byte   Cn1
 .byte   N11 ,Dn1
 .byte   N11 ,Fn1
 .byte   W12
 .byte   Cn1
 .byte   N11 ,Dn1
 .byte   N11 ,Fn1
 .byte   N11 ,As1
 .byte   W12
 .byte   Cn1
 .byte   N11 ,Dn1
 .byte   N11 ,Fn1
 .byte   W12
@  #08 @100   ----------------------------------------
 .byte   PATT
  .word Label_010065E2
@  #08 @101   ----------------------------------------
 .byte   PATT
  .word Label_010065FB
@  #08 @102   ----------------------------------------
 .byte   N23 ,Cn1 ,v096
 .byte   N23 ,Cs2
 .byte   W24
 .byte   Dn1
 .byte   N23 ,Fs2
 .byte   W12
 .byte   N11 ,Cn1
 .byte   W12
 .byte   Fs2
 .byte   W12
 .byte   Dn1
 .byte   W12
 .byte   N23 ,Cn1
 .byte   N23 ,Fs2
 .byte   W24
@  #08 @103   ----------------------------------------
 .byte   PATT
  .word Label_010065FB
@  #08 @104   ----------------------------------------
 .byte   PATT
  .word Label_010065E2
@  #08 @105   ----------------------------------------
 .byte   PATT
  .word Label_010065FB
@  #08 @106   ----------------------------------------
 .byte   PATT
  .word Label_01006617
@  #08 @107   ----------------------------------------
 .byte   N23 ,Fs2 ,v096
 .byte   W12
 .byte   N11 ,Cn1
 .byte   W12
 .byte   N23 ,Dn1
 .byte   N23 ,Fs2
 .byte   W24
 .byte   N11 ,Cn1
 .byte   N11 ,Dn1
 .byte   N11 ,Fn1
 .byte   N11 ,Fs2
 .byte   W12
 .byte   Cn1
 .byte   N11 ,Dn1
 .byte   N11 ,Fn1
 .byte   W12
 .byte   GOTO
  .word Label_01006669
@  #08 @108   ----------------------------------------
 .byte   N11 ,Cn1 ,v096
 .byte   N11 ,Dn1
 .byte   N11 ,Fn1
 .byte   W12
 .byte   Cn1
 .byte   N11 ,En1
 .byte   N11 ,Fn1
 .byte   W12
@  #08 @109   ----------------------------------------
 .byte   PATT
  .word Label_01006669
@  #08 @110   ----------------------------------------
 .byte   PATT
  .word Label_01006693
@  #08 @111   ----------------------------------------
 .byte   PATT
  .word Label_010066C8
@  #08 @112   ----------------------------------------
 .byte   PATT
  .word Label_01006669
@  #08 @113   ----------------------------------------
 .byte   PATT
  .word Label_01006693
@  #08 @114   ----------------------------------------
 .byte   PATT
  .word Label_01006700
@  #08 @115   ----------------------------------------
 .byte   PATT
  .word Label_01006669
@  #08 @116   ----------------------------------------
 .byte   PATT
  .word Label_01006693
@  #08 @117   ----------------------------------------
 .byte   PATT
  .word Label_010066C8
@  #08 @118   ----------------------------------------
 .byte   PATT
  .word Label_01006669
@  #08 @119   ----------------------------------------
 .byte   N05 ,Fs1 ,v052
 .byte   W06
 .byte   N05
 .byte   W06
 .byte   N11 ,Cn1
 .byte   N11 ,Dn1 ,v076
 .byte   N11 ,Fn1
 .byte   N11 ,As1
 .byte   W12
 .byte   N05 ,Fs1 ,v052
 .byte   W06
 .byte   N05
 .byte   W06
 .byte   N11 ,Cn1
 .byte   N11 ,Dn1 ,v076
 .byte   N11 ,Fn1
 .byte   N11 ,As1
 .byte   W12
 .byte   N05 ,Fs1
 .byte   W06
 .byte   Fs1 ,v056
 .byte   W06
 .byte   Fs1 ,v064
 .byte   W06
 .byte   Fs1 ,v068
 .byte   W06
 .byte   Fs1 ,v112
 .byte   W06
 .byte   Fs1 ,v084
 .byte   W06
 .byte   Fs1 ,v088
 .byte   W06
 .byte   Fs1 ,v096
 .byte   W06
@  #08 @120   ----------------------------------------
 .byte   Fs1 ,v127
 .byte   N05 ,Gn1
 .byte   W06
 .byte   Fs1 ,v108
 .byte   W06
 .byte   Fs1 ,v116
 .byte   N05 ,Gn1
 .byte   W06
 .byte   Fs1 ,v120
 .byte   W06
 .byte   N23 ,Fs1 ,v127
 .byte   N23 ,Gn1
 .byte   W96
@  #08 @121   ----------------------------------------
Label_01006B80:
 .byte   N23 ,Cn1 ,v112
 .byte   N23 ,Cs2
 .byte   W24
 .byte   Dn1
 .byte   N23 ,As1
 .byte   W24
 .byte   N11 ,Cn1
 .byte   N23 ,As1
 .byte   W12
 .byte   N11 ,Cn1
 .byte   W12
 .byte   N23 ,Dn1
 .byte   N23 ,As1
 .byte   W12
 .byte   N11 ,Cn1
 .byte   W12
 .byte   PEND 
@  #08 @122   ----------------------------------------
Label_01006B9B:
 .byte   N23 ,As1 ,v112
 .byte   W12
 .byte   N11 ,Cn1
 .byte   W12
 .byte   N23 ,Dn1
 .byte   N23 ,As1
 .byte   W24
 .byte   N11 ,Cn1
 .byte   N23 ,As1
 .byte   W12
 .byte   N11 ,Cn1
 .byte   W12
 .byte   N23 ,Dn1
 .byte   N23 ,As1
 .byte   W12
 .byte   N11 ,Cn1
 .byte   W12
 .byte   PEND 
@  #08 @123   ----------------------------------------
Label_01006BB8:
 .byte   N23 ,Cn1 ,v112
 .byte   N23 ,As1
 .byte   W24
 .byte   Dn1
 .byte   N23 ,As1
 .byte   W24
 .byte   N11 ,Cn1
 .byte   N23 ,As1
 .byte   W12
 .byte   N11 ,Cn1
 .byte   W12
 .byte   N23 ,Dn1
 .byte   N23 ,As1
 .byte   W12
 .byte   N11 ,Cn1
 .byte   W12
 .byte   PEND 
@  #08 @124   ----------------------------------------
 .byte   PATT
  .word Label_01006B9B
@  #08 @125   ----------------------------------------
 .byte   PATT
  .word Label_01006B80
@  #08 @126   ----------------------------------------
 .byte   PATT
  .word Label_01006B9B
@  #08 @127   ----------------------------------------
 .byte   PATT
  .word Label_01006BB8
@  #08 @128   ----------------------------------------
 .byte   PATT
  .word Label_01006B9B
@  #08 @129   ----------------------------------------
 .byte   PATT
  .word Label_01006B80
@  #08 @130   ----------------------------------------
 .byte   PATT
  .word Label_01006B9B
@  #08 @131   ----------------------------------------
 .byte   PATT
  .word Label_01006BB8
@  #08 @132   ----------------------------------------
 .byte   PATT
  .word Label_01006B9B
@  #08 @133   ----------------------------------------
 .byte   PATT
  .word Label_01006B80
@  #08 @134   ----------------------------------------
 .byte   PATT
  .word Label_01006B9B
@  #08 @135   ----------------------------------------
 .byte   PATT
  .word Label_01006BB8
@  #08 @136   ----------------------------------------
 .byte   PATT
  .word Label_01006B9B
@  #08 @137   ----------------------------------------
 .byte   PATT
  .word Label_010063FB
@  #08 @138   ----------------------------------------
 .byte   PATT
  .word Label_010063C5
@  #08 @139   ----------------------------------------
 .byte   PATT
  .word Label_010063FB
@  #08 @140   ----------------------------------------
 .byte   PATT
  .word Label_010063C5
@  #08 @141   ----------------------------------------
 .byte   PATT
  .word Label_010063FB
@  #08 @142   ----------------------------------------
 .byte   PATT
  .word Label_010063C5
@  #08 @143   ----------------------------------------
 .byte   PATT
  .word Label_010063FB
@  #08 @144   ----------------------------------------
 .byte   PATT
  .word Label_01006455
@  #08 @145   ----------------------------------------
 .byte   PATT
  .word Label_0100648A
@  #08 @146   ----------------------------------------
 .byte   PATT
  .word Label_010063C5
@  #08 @147   ----------------------------------------
 .byte   PATT
  .word Label_010063FB
@  #08 @148   ----------------------------------------
 .byte   PATT
  .word Label_010063C5
@  #08 @149   ----------------------------------------
 .byte   PATT
  .word Label_010063FB
@  #08 @150   ----------------------------------------
 .byte   PATT
  .word Label_010063C5
@  #08 @151   ----------------------------------------
 .byte   PATT
  .word Label_010063FB
@  #08 @152   ----------------------------------------
 .byte   N23 ,Cn1 ,v096
 .byte   N05 ,Fs1 ,v127
 .byte   W06
 .byte   Fs1 ,v096
 .byte   W06
 .byte   N05
 .byte   W06
 .byte   N05
 .byte   W06
 .byte   N23 ,Cn1
 .byte   N05 ,Fs1 ,v127
 .byte   W06
 .byte   Fs1 ,v096
 .byte   W06
 .byte   N05
 .byte   W06
 .byte   N05
 .byte   W06
 .byte   N23 ,Cn1
 .byte   N11 ,Dn1
 .byte   W12
 .byte   N05
 .byte   W06
 .byte   N05
 .byte   W06
 .byte   N23 ,Cn1
 .byte   N05 ,Dn1
 .byte   W06
 .byte   N05
 .byte   W06
 .byte   N05
 .byte   W06
 .byte   N05
 .byte   W05
 .byte   FINE

@******************************************************@
	.align	2

song04:
	.byte	8	@ NumTrks
	.byte	0	@ NumBlks
	.byte	song04_pri	@ Priority
	.byte	song04_rev	@ Reverb.
    
	.word	song04_grp
    
	.word	song04_001
	.word	song04_002
	.word	song04_003
	.word	song04_004
	.word	song04_005
	.word	song04_006
	.word	song04_007
	.word	song04_008

	.end
