//Event file generated from Sappy .s format.
	#include "MPlayDef.event"

	#define	BuddyHolly_grp  voicegroup000
	#define	BuddyHolly_pri  0
	#define	BuddyHolly_rev  0
	#define	BuddyHolly_mvl  127
	#define	BuddyHolly_key  0
	#define	BuddyHolly_tbs  1
	#define	BuddyHolly_exg  0
	#define	BuddyHolly_cmp  1

	// .rodata
	//	BuddyHolly
	ALIGN 4


//**************** Track 1 (Midi-Chn.0) ****************//

BuddyHolly_001:
//  #01 //000   ----------------------------------------
 BYTE   KEYSH   BuddyHolly_key+0
Label_01006022:
 BYTE   TEMPO   122*BuddyHolly_tbs/2
 BYTE   VOICE   36
 BYTE   LFOS 44
 BYTE   VOL   25*BuddyHolly_mvl/mxv
 BYTE   PAN   c_v+0
 BYTE   VOL   25*BuddyHolly_mvl/mxv
 BYTE   N10  Fn1  v084
 BYTE   N10  Cn2
 BYTE   N10  Fn2
 BYTE   W12
 BYTE   Fn1
 BYTE   N10  Cn2
 BYTE   N10  Fn2
 BYTE   W12
 BYTE   Fn1
 BYTE   N10  Cn2
 BYTE   N10  Fn2
 BYTE   W12
 BYTE   Fn1
 BYTE   N10  Cn2
 BYTE   N10  Fn2
 BYTE   W12
 BYTE   Fn1
 BYTE   N10  Cn2
 BYTE   N10  Fn2
 BYTE   W12
 BYTE   Fn1
 BYTE   N10  Cn2
 BYTE   N10  Fn2
 BYTE   W12
 BYTE   Fn1
 BYTE   N10  Cn2
 BYTE   N10  Fn2
 BYTE   W12
 BYTE   Fn1
 BYTE   N10  Cn2
 BYTE   N10  Fn2
 BYTE   W12
//  #01 //001   ----------------------------------------
Label_01006060:
 BYTE   N10  Fn1  v084
 BYTE   N10  Cn2
 BYTE   N10  Fn2
 BYTE   W12
 BYTE   Fn1
 BYTE   N10  Cn2
 BYTE   N10  Fn2
 BYTE   W12
 BYTE   Fn1
 BYTE   N10  Cn2
 BYTE   N10  Fn2
 BYTE   W12
 BYTE   Fn1
 BYTE   N10  Cn2
 BYTE   N10  Fn2
 BYTE   W12
 BYTE   Fn1
 BYTE   N10  Cn2
 BYTE   N10  Fn2
 BYTE   W12
 BYTE   Fn1
 BYTE   N10  Cn2
 BYTE   N10  Fn2
 BYTE   W12
 BYTE   Gn1
 BYTE   N10  Ds2
 BYTE   W12
 BYTE   Gn1
 BYTE   N10  Ds2
 BYTE   W12
 BYTE   PEND 
//  #01 //002   ----------------------------------------
Label_0100608F:
 BYTE   N10  Gs1  v084
 BYTE   N10  Ds2
 BYTE   N10  Gs2
 BYTE   W12
 BYTE   Gs1
 BYTE   N10  Ds2
 BYTE   N10  Gs2
 BYTE   W12
 BYTE   Gs1
 BYTE   N10  Ds2
 BYTE   N10  Gs2
 BYTE   W12
 BYTE   Gs1
 BYTE   N10  Ds2
 BYTE   N10  Gs2
 BYTE   W12
 BYTE   Gs1
 BYTE   N10  Ds2
 BYTE   N10  Gs2
 BYTE   W12
 BYTE   Gs1
 BYTE   N10  Ds2
 BYTE   N10  Gs2
 BYTE   W12
 BYTE   Gs1
 BYTE   N10  Ds2
 BYTE   N10  Gs2
 BYTE   W12
 BYTE   Gs1
 BYTE   N10  Ds2
 BYTE   N10  Gs2
 BYTE   W12
 BYTE   PEND 
//  #01 //003   ----------------------------------------
 BYTE   PATT
  POIN2 Label_0100608F
//  #01 //004   ----------------------------------------
Label_010060C7:
 BYTE   N10  Fn1  v084
 BYTE   N10  Cn2
 BYTE   N10  Fn2
 BYTE   W12
 BYTE   Fn1
 BYTE   N10  Cn2
 BYTE   N10  Fn2
 BYTE   W12
 BYTE   Fn1
 BYTE   N10  Cn2
 BYTE   N10  Fn2
 BYTE   W12
 BYTE   Fn1
 BYTE   N10  Cn2
 BYTE   N10  Fn2
 BYTE   W12
 BYTE   Fn1
 BYTE   N10  Cn2
 BYTE   N10  Fn2
 BYTE   W12
 BYTE   Fn1
 BYTE   N10  Cn2
 BYTE   N10  Fn2
 BYTE   W12
 BYTE   Fn1
 BYTE   N10  Cn2
 BYTE   N10  Fn2
 BYTE   W12
 BYTE   Fn1
 BYTE   N10  Cn2
 BYTE   N10  Fn2
 BYTE   W12
 BYTE   PEND 
//  #01 //005   ----------------------------------------
 BYTE   PATT
  POIN2 Label_01006060
//  #01 //006   ----------------------------------------
 BYTE   PATT
  POIN2 Label_0100608F
//  #01 //007   ----------------------------------------
 BYTE   PATT
  POIN2 Label_0100608F
//  #01 //008   ----------------------------------------
Label_01006109:
 BYTE   N10  Cs2  v084
 BYTE   N10  Gs2
 BYTE   N10  Cs3
 BYTE   W12
 BYTE   Cs2
 BYTE   N10  Gs2
 BYTE   N10  Cs3
 BYTE   W12
 BYTE   Cs2
 BYTE   N10  Gs2
 BYTE   N10  Cs3
 BYTE   W12
 BYTE   Cs2
 BYTE   N10  Gs2
 BYTE   N10  Cs3
 BYTE   W12
 BYTE   Cs2
 BYTE   N10  Gs2
 BYTE   N10  Cs3
 BYTE   W12
 BYTE   Cs2
 BYTE   N10  Gs2
 BYTE   N10  Cs3
 BYTE   W12
 BYTE   Cs2
 BYTE   N10  Gs2
 BYTE   N10  Cs3
 BYTE   W12
 BYTE   Cs2
 BYTE   N10  Gs2
 BYTE   N10  Cs3
 BYTE   W12
 BYTE   PEND 
//  #01 //009   ----------------------------------------
Label_0100613C:
 BYTE   N10  Cn2  v084
 BYTE   N10  Gn2
 BYTE   N10  Cn3
 BYTE   N10  Ds3
 BYTE   W12
 BYTE   Cn2
 BYTE   N10  Gn2
 BYTE   N10  Cn3
 BYTE   N10  Ds3
 BYTE   W12
 BYTE   Cn2
 BYTE   N10  Gn2
 BYTE   N10  Cn3
 BYTE   N10  Ds3
 BYTE   W12
 BYTE   N22  Fn1
 BYTE   N22  Cn2
 BYTE   N22  Fn2
 BYTE   W24
 BYTE   N10  Fn1
 BYTE   N10  Cn2
 BYTE   N10  Fn2
 BYTE   W12
 BYTE   Fn1
 BYTE   N10  Cn2
 BYTE   N10  Fn2
 BYTE   W12
 BYTE   Fn1
 BYTE   N10  Cn2
 BYTE   N10  Fn2
 BYTE   W12
 BYTE   PEND 
//  #01 //010   ----------------------------------------
 BYTE   PATT
  POIN2 Label_01006109
//  #01 //011   ----------------------------------------
 BYTE   PATT
  POIN2 Label_0100613C
//  #01 //012   ----------------------------------------
 BYTE   PATT
  POIN2 Label_01006109
//  #01 //013   ----------------------------------------
Label_01006180:
 BYTE   N10  Cs2  v084
 BYTE   N10  Gs2
 BYTE   N10  Cs3
 BYTE   N10  En3
 BYTE   W12
 BYTE   Cs2
 BYTE   N10  Gs2
 BYTE   N10  Cs3
 BYTE   N10  En3
 BYTE   W12
 BYTE   Cs2
 BYTE   N10  Gs2
 BYTE   N10  Cs3
 BYTE   N10  En3
 BYTE   W12
 BYTE   Cs2
 BYTE   N10  Gs2
 BYTE   N10  Cs3
 BYTE   N10  En3
 BYTE   W12
 BYTE   Cs2
 BYTE   N10  Gs2
 BYTE   N10  Cs3
 BYTE   N10  En3
 BYTE   W12
 BYTE   Cs2
 BYTE   N10  Gs2
 BYTE   N10  Cs3
 BYTE   N10  En3
 BYTE   W12
 BYTE   Cs2
 BYTE   N10  Gs2
 BYTE   N10  Cs3
 BYTE   N10  En3
 BYTE   W12
 BYTE   Cs2
 BYTE   N10  Gs2
 BYTE   N10  Cs3
 BYTE   N10  En3
 BYTE   W12
 BYTE   PEND 
//  #01 //014   ----------------------------------------
 BYTE   PATT
  POIN2 Label_0100608F
//  #01 //015   ----------------------------------------
Label_010061C8:
 BYTE   N10  Gs1  v084
 BYTE   N10  Cs2
 BYTE   N10  Gs2
 BYTE   N10  Cs3
 BYTE   W12
 BYTE   Gs1
 BYTE   N10  Cs2
 BYTE   N10  Gs2
 BYTE   N10  Cs3
 BYTE   W12
 BYTE   Gs1
 BYTE   N10  Cs2
 BYTE   N10  Gs2
 BYTE   N10  Cs3
 BYTE   W12
 BYTE   Gs1
 BYTE   N10  Cs2
 BYTE   N10  Gs2
 BYTE   N10  Cs3
 BYTE   W12
 BYTE   As1
 BYTE   N10  Ds2
 BYTE   N10  As2
 BYTE   N10  Ds3
 BYTE   W12
 BYTE   As1
 BYTE   N10  Ds2
 BYTE   N10  As2
 BYTE   N10  Ds3
 BYTE   W12
 BYTE   As1
 BYTE   N10  Ds2
 BYTE   N10  As2
 BYTE   N10  Ds3
 BYTE   W12
 BYTE   As1
 BYTE   N10  Ds2
 BYTE   N10  As2
 BYTE   N10  Ds3
 BYTE   W12
 BYTE   PEND 
//  #01 //016   ----------------------------------------
 BYTE   PATT
  POIN2 Label_0100608F
//  #01 //017   ----------------------------------------
 BYTE   PATT
  POIN2 Label_010061C8
//  #01 //018   ----------------------------------------
 BYTE   PATT
  POIN2 Label_010060C7
//  #01 //019   ----------------------------------------
Label_0100621A:
 BYTE   N10  Gs1  v084
 BYTE   N10  Cs2
 BYTE   N10  Gs2
 BYTE   N10  Cs3
 BYTE   W12
 BYTE   Gs1
 BYTE   N10  Cs2
 BYTE   N10  Gs2
 BYTE   N10  Cs3
 BYTE   W12
 BYTE   As1
 BYTE   N10  Ds2
 BYTE   N10  As2
 BYTE   N10  Ds3
 BYTE   W12
 BYTE   As1
 BYTE   N10  Ds2
 BYTE   N10  As2
 BYTE   N10  Ds3
 BYTE   W12
 BYTE   Gs1
 BYTE   N10  Ds2
 BYTE   N10  Gs2
 BYTE   W12
 BYTE   Gs1
 BYTE   N10  Ds2
 BYTE   N10  Gs2
 BYTE   W12
 BYTE   Gs1
 BYTE   N10  Ds2
 BYTE   N10  Gs2
 BYTE   W12
 BYTE   Gs1
 BYTE   N10  Ds2
 BYTE   N10  Gs2
 BYTE   W12
 BYTE   PEND 
//  #01 //020   ----------------------------------------
Label_01006255:
 BYTE   N10  Gs1  v084
 BYTE   N10  Ds2
 BYTE   N10  Gs2
 BYTE   W12
 BYTE   Gs1
 BYTE   N10  Ds2
 BYTE   N10  Gs2
 BYTE   W12
 BYTE   Gs1
 BYTE   N10  Cs2
 BYTE   N10  Gs2
 BYTE   N10  Cs3
 BYTE   W12
 BYTE   Gs1
 BYTE   N10  Cs2
 BYTE   N10  Gs2
 BYTE   N10  Cs3
 BYTE   W12
 BYTE   As1
 BYTE   N10  Ds2
 BYTE   N10  As2
 BYTE   N10  Ds3
 BYTE   W12
 BYTE   As1
 BYTE   N10  Ds2
 BYTE   N10  As2
 BYTE   N10  Ds3
 BYTE   W12
 BYTE   As1
 BYTE   N10  Ds2
 BYTE   N10  As2
 BYTE   N10  Ds3
 BYTE   W12
 BYTE   As1
 BYTE   N10  Ds2
 BYTE   N10  As2
 BYTE   N10  Ds3
 BYTE   W12
 BYTE   PEND 
//  #01 //021   ----------------------------------------
Label_01006294:
 BYTE   N10  Gs1  v084
 BYTE   N10  Ds2
 BYTE   N10  Gs2
 BYTE   W12
 BYTE   Gs1
 BYTE   N10  Ds2
 BYTE   N10  Gs2
 BYTE   W12
 BYTE   Gs1
 BYTE   N10  Ds2
 BYTE   N10  Gs2
 BYTE   W12
 BYTE   N05  Ds1
 BYTE   N05  Ds2
 BYTE   W06
 BYTE   Ds1
 BYTE   N05  Ds2
 BYTE   W06
 BYTE   Gs1
 BYTE   N05  Ds2
 BYTE   N05  Gs2
 BYTE   W06
 BYTE   Gs1
 BYTE   N05  Ds2
 BYTE   N05  Gs2
 BYTE   W06
 BYTE   N10  Gs1
 BYTE   N10  Ds2
 BYTE   N10  Gs2
 BYTE   W12
 BYTE   Gs1
 BYTE   N10  Ds2
 BYTE   N10  Gs2
 BYTE   W12
 BYTE   Gs1
 BYTE   N10  Ds2
 BYTE   N10  Gs2
 BYTE   W12
 BYTE   PEND 
//  #01 //022   ----------------------------------------
 BYTE   PATT
  POIN2 Label_010060C7
//  #01 //023   ----------------------------------------
 BYTE   PATT
  POIN2 Label_01006060
//  #01 //024   ----------------------------------------
 BYTE   PATT
  POIN2 Label_0100608F
//  #01 //025   ----------------------------------------
 BYTE   PATT
  POIN2 Label_0100608F
//  #01 //026   ----------------------------------------
 BYTE   PATT
  POIN2 Label_010060C7
//  #01 //027   ----------------------------------------
 BYTE   PATT
  POIN2 Label_01006060
//  #01 //028   ----------------------------------------
 BYTE   PATT
  POIN2 Label_0100608F
//  #01 //029   ----------------------------------------
 BYTE   PATT
  POIN2 Label_0100608F
//  #01 //030   ----------------------------------------
 BYTE   PATT
  POIN2 Label_010060C7
//  #01 //031   ----------------------------------------
 BYTE   PATT
  POIN2 Label_01006060
//  #01 //032   ----------------------------------------
 BYTE   PATT
  POIN2 Label_0100608F
//  #01 //033   ----------------------------------------
 BYTE   PATT
  POIN2 Label_0100608F
//  #01 //034   ----------------------------------------
 BYTE   PATT
  POIN2 Label_01006109
//  #01 //035   ----------------------------------------
 BYTE   PATT
  POIN2 Label_0100613C
//  #01 //036   ----------------------------------------
 BYTE   PATT
  POIN2 Label_01006109
//  #01 //037   ----------------------------------------
 BYTE   PATT
  POIN2 Label_0100613C
//  #01 //038   ----------------------------------------
 BYTE   PATT
  POIN2 Label_01006109
//  #01 //039   ----------------------------------------
 BYTE   PATT
  POIN2 Label_01006180
//  #01 //040   ----------------------------------------
 BYTE   PATT
  POIN2 Label_0100608F
//  #01 //041   ----------------------------------------
 BYTE   PATT
  POIN2 Label_010061C8
//  #01 //042   ----------------------------------------
 BYTE   PATT
  POIN2 Label_0100608F
//  #01 //043   ----------------------------------------
 BYTE   PATT
  POIN2 Label_010061C8
//  #01 //044   ----------------------------------------
 BYTE   PATT
  POIN2 Label_010060C7
//  #01 //045   ----------------------------------------
 BYTE   PATT
  POIN2 Label_0100621A
//  #01 //046   ----------------------------------------
 BYTE   PATT
  POIN2 Label_01006255
//  #01 //047   ----------------------------------------
 BYTE   PATT
  POIN2 Label_01006294
//  #01 //048   ----------------------------------------
 BYTE   PATT
  POIN2 Label_01006255
//  #01 //049   ----------------------------------------
 BYTE   N10  Gs1  v084
 BYTE   N10  Ds2
 BYTE   N10  Gs2
 BYTE   W12
 BYTE   Gs1
 BYTE   N10  Ds2
 BYTE   N10  Gs2
 BYTE   W12
 BYTE   Gs1
 BYTE   N10  Ds2
 BYTE   N10  Gs2
 BYTE   W12
 BYTE   N05  Ds1
 BYTE   N05  Ds2
 BYTE   W06
 BYTE   Ds1
 BYTE   N05  Ds2
 BYTE   W06
 BYTE   Gs1
 BYTE   N05  Ds2
 BYTE   N05  Gs2
 BYTE   W06
 BYTE   Gs1
 BYTE   N05  Ds2
 BYTE   N05  Gs2
 BYTE   W06
 BYTE   N10  Gs1
 BYTE   N10  Ds2
 BYTE   N10  Gs2
 BYTE   W12
 BYTE   Gs1
 BYTE   N10  Ds2
 BYTE   N10  Gs2
 BYTE   W24
//  #01 //050   ----------------------------------------
Label_0100638E:
 BYTE   N10  Gs1  v084
 BYTE   N10  Ds2
 BYTE   N10  Gs2
 BYTE   W12
 BYTE   Gs1
 BYTE   N10  Ds2
 BYTE   N10  Gs2
 BYTE   W12
 BYTE   Gs1
 BYTE   N10  Ds2
 BYTE   N10  Gs2
 BYTE   W12
 BYTE   Ds1
 BYTE   W12
 BYTE   Fn1
 BYTE   N10  Cn2
 BYTE   N10  Fn2
 BYTE   W12
 BYTE   Ds1
 BYTE   W12
 BYTE   Fn1
 BYTE   N10  Cn2
 BYTE   N10  Fn2
 BYTE   W24
 BYTE   PEND 
//  #01 //051   ----------------------------------------
 BYTE   W12
 BYTE   Fn1
 BYTE   N10  Cn2
 BYTE   W12
 BYTE   Gs1
 BYTE   N10  Fn2
 BYTE   W12
 BYTE   As1
 BYTE   N10  Fn2
 BYTE   W12
 BYTE   Cn2
 BYTE   N10  Gn2
 BYTE   W12
 BYTE   As1
 BYTE   N10  Fn2
 BYTE   W12
 BYTE   Gs1
 BYTE   W12
 BYTE   Fn1
 BYTE   W12
//  #01 //052   ----------------------------------------
 BYTE   PATT
  POIN2 Label_0100638E
//  #01 //053   ----------------------------------------
Label_010063D1:
 BYTE   W12
 BYTE   N10  Fn1  v084
 BYTE   N10  Cn2
 BYTE   N10  Fn2
 BYTE   W12
 BYTE   Gs1
 BYTE   N10  Fn2
 BYTE   W12
 BYTE   As1
 BYTE   N10  Fn2
 BYTE   W12
 BYTE   Cn2
 BYTE   N10  Gn2
 BYTE   W12
 BYTE   As1
 BYTE   N10  Fn2
 BYTE   W12
 BYTE   Gs1
 BYTE   W12
 BYTE   Fn1
 BYTE   W12
 BYTE   PEND 
//  #01 //054   ----------------------------------------
 BYTE   PATT
  POIN2 Label_0100638E
//  #01 //055   ----------------------------------------
 BYTE   PATT
  POIN2 Label_010063D1
//  #01 //056   ----------------------------------------
 BYTE   PATT
  POIN2 Label_0100638E
//  #01 //057   ----------------------------------------
 BYTE   PATT
  POIN2 Label_010063D1
//  #01 //058   ----------------------------------------
 BYTE   PATT
  POIN2 Label_01006109
//  #01 //059   ----------------------------------------
 BYTE   PATT
  POIN2 Label_0100613C
//  #01 //060   ----------------------------------------
 BYTE   PATT
  POIN2 Label_01006109
//  #01 //061   ----------------------------------------
 BYTE   PATT
  POIN2 Label_0100613C
//  #01 //062   ----------------------------------------
 BYTE   PATT
  POIN2 Label_01006109
//  #01 //063   ----------------------------------------
 BYTE   PATT
  POIN2 Label_01006180
//  #01 //064   ----------------------------------------
 BYTE   N10  Gs1  v084
 BYTE   N10  Cs2
 BYTE   N10  Gs2
 BYTE   N10  Cs3
 BYTE   W12
 BYTE   Gs1
 BYTE   N10  Cs2
 BYTE   N10  Gs2
 BYTE   N10  Cs3
 BYTE   W12
 BYTE   Gs1
 BYTE   N10  Cs2
 BYTE   N10  Gs2
 BYTE   N10  Cs3
 BYTE   W12
 BYTE   Gs1
 BYTE   N10  Cs2
 BYTE   N10  Gs2
 BYTE   N10  Cs3
 BYTE   W12
 BYTE   Gs1
 BYTE   N10  Cs2
 BYTE   N10  Gs2
 BYTE   N10  Cs3
 BYTE   W12
 BYTE   Gs1
 BYTE   N10  Cs2
 BYTE   N10  Gs2
 BYTE   N10  Cs3
 BYTE   W12
 BYTE   Gs1
 BYTE   N10  Cs2
 BYTE   N10  Gs2
 BYTE   N10  Cs3
 BYTE   W12
 BYTE   Gs1
 BYTE   N10  Cs2
 BYTE   N10  Gs2
 BYTE   N10  Cs3
 BYTE   W12
//  #01 //065   ----------------------------------------
 BYTE   W96
//  #01 //066   ----------------------------------------
 BYTE   PATT
  POIN2 Label_0100608F
//  #01 //067   ----------------------------------------
 BYTE   PATT
  POIN2 Label_010061C8
//  #01 //068   ----------------------------------------
 BYTE   PATT
  POIN2 Label_0100608F
//  #01 //069   ----------------------------------------
 BYTE   PATT
  POIN2 Label_010061C8
//  #01 //070   ----------------------------------------
 BYTE   PATT
  POIN2 Label_010060C7
//  #01 //071   ----------------------------------------
 BYTE   PATT
  POIN2 Label_0100621A
//  #01 //072   ----------------------------------------
 BYTE   PATT
  POIN2 Label_01006255
//  #01 //073   ----------------------------------------
Label_01006487:
 BYTE   N10  Gs1  v084
 BYTE   N10  Ds2
 BYTE   N10  Gs2
 BYTE   W12
 BYTE   Gs1
 BYTE   N10  Ds2
 BYTE   N10  Gs2
 BYTE   W12
 BYTE   Gs1
 BYTE   N10  Ds2
 BYTE   N10  Gs2
 BYTE   W12
 BYTE   N05  Ds1
 BYTE   N05  Ds2
 BYTE   W06
 BYTE   Ds1
 BYTE   N05  Ds2
 BYTE   N05  Gs2
 BYTE   W06
 BYTE   Gs1
 BYTE   N05  Ds2
 BYTE   N05  Gs2
 BYTE   W06
 BYTE   Gs1
 BYTE   N05  Ds2
 BYTE   N05  Gs2
 BYTE   W06
 BYTE   N10  Gs1
 BYTE   N10  Ds2
 BYTE   N10  Gs2
 BYTE   W12
 BYTE   Gs1
 BYTE   N10  Ds2
 BYTE   N10  Gs2
 BYTE   W12
 BYTE   Gs1
 BYTE   N10  Ds2
 BYTE   N10  Gs2
 BYTE   W12
 BYTE   PEND 
//  #01 //074   ----------------------------------------
 BYTE   PATT
  POIN2 Label_01006255
//  #01 //075   ----------------------------------------
 BYTE   PATT
  POIN2 Label_01006487
//  #01 //076   ----------------------------------------
 BYTE   PATT
  POIN2 Label_01006255
//  #01 //077   ----------------------------------------
 BYTE   PATT
  POIN2 Label_01006487
//  #01 //078   ----------------------------------------
 BYTE   PATT
  POIN2 Label_01006255
//  #01 //079   ----------------------------------------
 BYTE   PATT
  POIN2 Label_0100638E
//  #01 //080   ----------------------------------------
 BYTE   W01
 BYTE   GoTo
  POIN2 Label_01006022
 BYTE   FINE

//**************** Track 2 (Midi-Chn.1) ****************//

BuddyHolly_002:
//  #02 //000   ----------------------------------------
 BYTE   KEYSH   BuddyHolly_key+0
Label_01005D2A:
 BYTE   VOICE   30
 BYTE   LFOS 44
 BYTE   VOL   50*BuddyHolly_mvl/mxv
 BYTE   PAN   c_v+0
 BYTE   VOL   25*BuddyHolly_mvl/mxv
 BYTE   W96
//  #02 //001   ----------------------------------------
 BYTE   W96
//  #02 //002   ----------------------------------------
 BYTE   W96
//  #02 //003   ----------------------------------------
 BYTE   W96
//  #02 //004   ----------------------------------------
 BYTE   W96
//  #02 //005   ----------------------------------------
 BYTE   W96
//  #02 //006   ----------------------------------------
 BYTE   W96
//  #02 //007   ----------------------------------------
Label_01005D3B:
 BYTE   W48
 BYTE   N56  Fn2  v100
 BYTE   N48  Fn3
 BYTE   W48
 BYTE   PEND 
//  #02 //008   ----------------------------------------
Label_01005D43:
 BYTE   N08  Fn3  v100
 BYTE   W12
 BYTE   N16  Gs3
 BYTE   W12
 BYTE   Fn3
 BYTE   W12
 BYTE   Gs3
 BYTE   W12
 BYTE   Fn3
 BYTE   W12
 BYTE   Gs3
 BYTE   W12
 BYTE   Fn3
 BYTE   W12
 BYTE   N20  Gs3
 BYTE   W12
 BYTE   PEND 
//  #02 //009   ----------------------------------------
Label_01005D58:
 BYTE   N16  Ds3  v100
 BYTE   W12
 BYTE   Gn3
 BYTE   W12
 BYTE   Ds3
 BYTE   W12
 BYTE   Gn3
 BYTE   W12
 BYTE   Cn3
 BYTE   W12
 BYTE   Fn3
 BYTE   W12
 BYTE   Cn3
 BYTE   W12
 BYTE   N12  Fn3
 BYTE   W12
 BYTE   PEND 
//  #02 //010   ----------------------------------------
 BYTE   PATT
  POIN2 Label_01005D43
//  #02 //011   ----------------------------------------
 BYTE   PATT
  POIN2 Label_01005D58
//  #02 //012   ----------------------------------------
 BYTE   PATT
  POIN2 Label_01005D43
//  #02 //013   ----------------------------------------
Label_01005D7B:
 BYTE   N16  En3  v100
 BYTE   W12
 BYTE   Gs3
 BYTE   W12
 BYTE   En3
 BYTE   W12
 BYTE   Gs3
 BYTE   W12
 BYTE   En3
 BYTE   W12
 BYTE   Gs3
 BYTE   W12
 BYTE   En3
 BYTE   W12
 BYTE   N20  Gs3
 BYTE   W12
 BYTE   PEND 
//  #02 //014   ----------------------------------------
 BYTE   W96
//  #02 //015   ----------------------------------------
 BYTE   W96
//  #02 //016   ----------------------------------------
 BYTE   W96
//  #02 //017   ----------------------------------------
 BYTE   W96
//  #02 //018   ----------------------------------------
 BYTE   W96
//  #02 //019   ----------------------------------------
 BYTE   W96
//  #02 //020   ----------------------------------------
 BYTE   W96
//  #02 //021   ----------------------------------------
 BYTE   W96
//  #02 //022   ----------------------------------------
 BYTE   N08  Cn3
 BYTE   W12
 BYTE   Cs3
 BYTE   W12
 BYTE   Cn3
 BYTE   W08
 BYTE   N02  Fn3
 BYTE   W04
 BYTE   N24  Gn3
 BYTE   W36
 BYTE   N16  Fn3
 BYTE   W24
//  #02 //023   ----------------------------------------
 BYTE   N08  Cn3
 BYTE   W12
 BYTE   As2
 BYTE   W12
 BYTE   Gs2
 BYTE   W12
 BYTE   N24  Cn3
 BYTE   W36
 BYTE   N16
 BYTE   W24
//  #02 //024   ----------------------------------------
 BYTE   N08
 BYTE   W12
 BYTE   Cs3
 BYTE   W12
 BYTE   Cn3
 BYTE   W12
 BYTE   N04  Fn3
 BYTE   W06
 BYTE   N24  Gn3
 BYTE   W30
 BYTE   N16  Fn3
 BYTE   W24
//  #02 //025   ----------------------------------------
 BYTE   N12  Cn3
 BYTE   W18
 BYTE   N04  As2
 BYTE   W06
 BYTE   N48  Gs2
 BYTE   W72
//  #02 //026   ----------------------------------------
 BYTE   W96
//  #02 //027   ----------------------------------------
 BYTE   W96
//  #02 //028   ----------------------------------------
 BYTE   W96
//  #02 //029   ----------------------------------------
 BYTE   W96
//  #02 //030   ----------------------------------------
 BYTE   W96
//  #02 //031   ----------------------------------------
 BYTE   W96
//  #02 //032   ----------------------------------------
 BYTE   W96
//  #02 //033   ----------------------------------------
 BYTE   PATT
  POIN2 Label_01005D3B
//  #02 //034   ----------------------------------------
 BYTE   PATT
  POIN2 Label_01005D43
//  #02 //035   ----------------------------------------
 BYTE   PATT
  POIN2 Label_01005D58
//  #02 //036   ----------------------------------------
 BYTE   PATT
  POIN2 Label_01005D43
//  #02 //037   ----------------------------------------
 BYTE   PATT
  POIN2 Label_01005D58
//  #02 //038   ----------------------------------------
 BYTE   PATT
  POIN2 Label_01005D43
//  #02 //039   ----------------------------------------
 BYTE   PATT
  POIN2 Label_01005D7B
//  #02 //040   ----------------------------------------
 BYTE   W96
//  #02 //041   ----------------------------------------
 BYTE   W96
//  #02 //042   ----------------------------------------
 BYTE   W96
//  #02 //043   ----------------------------------------
 BYTE   W96
//  #02 //044   ----------------------------------------
 BYTE   W96
//  #02 //045   ----------------------------------------
 BYTE   W96
//  #02 //046   ----------------------------------------
 BYTE   W96
//  #02 //047   ----------------------------------------
 BYTE   W96
//  #02 //048   ----------------------------------------
 BYTE   W96
//  #02 //049   ----------------------------------------
 BYTE   W96
//  #02 //050   ----------------------------------------
 BYTE   W96
//  #02 //051   ----------------------------------------
 BYTE   W96
//  #02 //052   ----------------------------------------
 BYTE   W96
//  #02 //053   ----------------------------------------
 BYTE   W96
//  #02 //054   ----------------------------------------
 BYTE   W96
//  #02 //055   ----------------------------------------
 BYTE   W96
//  #02 //056   ----------------------------------------
 BYTE   W96
//  #02 //057   ----------------------------------------
 BYTE   W72
 BYTE   N08  Ds3  v120
 BYTE   W12
 BYTE   Fn3
 BYTE   W12
//  #02 //058   ----------------------------------------
 BYTE   N24
 BYTE   W01
 BYTE   BEND   c_v+6
 BYTE   W01
 BYTE   BEND   c_v+14
 BYTE   W01
 BYTE   BEND   c_v+21
 BYTE   W01
 BYTE   BEND   c_v+29
 BYTE   W02
 BYTE   BEND   c_v+37
 BYTE   W01
 BYTE   BEND   c_v+45
 BYTE   W01
 BYTE   BEND   c_v+53
 BYTE   W01
 BYTE   BEND   c_v+61
 BYTE   W24
 BYTE   W03
 BYTE   BEND   c_v+0
 BYTE   N16
 BYTE   W24
 BYTE   Ds3
 BYTE   W24
 BYTE   N08  Cs3
 BYTE   W12
//  #02 //059   ----------------------------------------
 BYTE   N16  Cn3
 BYTE   W24
 BYTE   N08  Cs3
 BYTE   W12
 BYTE   N48  Gs2
 BYTE   W60
//  #02 //060   ----------------------------------------
 BYTE   N08  Fn2  v124
 BYTE   N08  Fn3
 BYTE   W12
 BYTE   N08
 BYTE   W12
 BYTE   Gn2
 BYTE   N08  Gn3
 BYTE   W12
 BYTE   Gn2
 BYTE   N08  Gn3
 BYTE   W12
 BYTE   Gs2
 BYTE   N08  Gs3
 BYTE   W12
 BYTE   Gs2
 BYTE   N08  Gs3
 BYTE   W12
 BYTE   As2
 BYTE   N08  As3
 BYTE   W12
 BYTE   As2
 BYTE   N08  As3
 BYTE   W12
//  #02 //061   ----------------------------------------
 BYTE   As2
 BYTE   N08  As3
 BYTE   W12
 BYTE   As2
 BYTE   N08  As3
 BYTE   W12
 BYTE   N04  Gs2
 BYTE   N04  Gs3
 BYTE   W06
 BYTE   Gs2
 BYTE   N04  Gs3
 BYTE   W06
 BYTE   N16  Gs2
 BYTE   N16  Gs3
 BYTE   W24
 BYTE   N04  Ds3
 BYTE   W06
 BYTE   Fn3
 BYTE   W06
 BYTE   Gs3
 BYTE   N04  Cn4
 BYTE   W06
 BYTE   Gs3
 BYTE   N04  Cn4
 BYTE   W06
 BYTE   Fn3
 BYTE   W06
 BYTE   Ds3
 BYTE   W06
//  #02 //062   ----------------------------------------
 BYTE   N16  As3
 BYTE   W01
 BYTE   BEND   c_v+6
 BYTE   W01
 BYTE   BEND   c_v+14
 BYTE   W01
 BYTE   BEND   c_v+21
 BYTE   W01
 BYTE   BEND   c_v+29
 BYTE   W02
 BYTE   BEND   c_v+37
 BYTE   W01
 BYTE   BEND   c_v+45
 BYTE   W01
 BYTE   BEND   c_v+53
 BYTE   W01
 BYTE   BEND   c_v+61
 BYTE   W15
 BYTE   BEND   c_v+0
 BYTE   N08
 BYTE   W12
 BYTE   N16  Gs3
 BYTE   W24
 BYTE   N04  Ds3
 BYTE   W06
 BYTE   Fn3
 BYTE   W06
 BYTE   Ds3
 BYTE   N04  Gs3
 BYTE   W06
 BYTE   Ds3
 BYTE   N04  Gs3
 BYTE   W06
 BYTE   Fn3
 BYTE   W06
 BYTE   Ds3
 BYTE   W06
//  #02 //063   ----------------------------------------
 BYTE   N16  Cn4  v120
 BYTE   W08
 BYTE   BEND   c_v+6
 BYTE   W01
 BYTE   BEND   c_v+14
 BYTE   W02
 BYTE   BEND   c_v+21
 BYTE   W01
 BYTE   BEND   c_v+29
 BYTE   W12
 BYTE   BEND   c_v+0
 BYTE   N08
 BYTE   W12
 BYTE   N16  Gs3
 BYTE   W24
 BYTE   N04  As2
 BYTE   W06
 BYTE   Cn3
 BYTE   W06
 BYTE   Ds3
 BYTE   W06
 BYTE   Fn3
 BYTE   W06
 BYTE   Gs3
 BYTE   W06
 BYTE   As3
 BYTE   W06
//  #02 //064   ----------------------------------------
 BYTE   N02  Cn4
 BYTE   W04
 BYTE   Cs4
 BYTE   W04
 BYTE   Cn4
 BYTE   W04
 BYTE   Cs4
 BYTE   W04
 BYTE   Cn4
 BYTE   W04
 BYTE   Cs4
 BYTE   W04
 BYTE   Cn4
 BYTE   W04
 BYTE   Cs4
 BYTE   W04
 BYTE   Cn4
 BYTE   W04
 BYTE   Cs4
 BYTE   W04
 BYTE   Cn4
 BYTE   W04
 BYTE   Cs4
 BYTE   W04
 BYTE   Cn4
 BYTE   W04
 BYTE   Cs4
 BYTE   W04
 BYTE   Cn4
 BYTE   W04
 BYTE   Cs4
 BYTE   W04
 BYTE   Cn4
 BYTE   W04
 BYTE   Cs4
 BYTE   W04
 BYTE   Cn4
 BYTE   W04
 BYTE   Cs4
 BYTE   W04
 BYTE   Cn4
 BYTE   W04
 BYTE   Cs4
 BYTE   W04
 BYTE   Cn4
 BYTE   W04
 BYTE   Cs4
 BYTE   W04
//  #02 //065   ----------------------------------------
 BYTE   N08  Gs4
 BYTE   W12
 BYTE   En4
 BYTE   W12
 BYTE   Gs4
 BYTE   W12
 BYTE   As4
 BYTE   W12
 BYTE   BEND   c_v+14
 BYTE   N16
 BYTE   W01
 BYTE   BEND   c_v+29
 BYTE   W01
 BYTE   BEND   c_v+45
 BYTE   W01
 BYTE   BEND   c_v+61
 BYTE   W06
 BYTE   BEND   c_v+53
 BYTE   W01
 BYTE   BEND   c_v+37
 BYTE   W01
 BYTE   BEND   c_v+21
 BYTE   W01
 BYTE   BEND   c_v+6
 BYTE   W01
 BYTE   BEND   c_v+0
 BYTE   W11
 BYTE   N08  Gs4
 BYTE   W12
 BYTE   En4
 BYTE   W12
//  #02 //066   ----------------------------------------
 BYTE   TIE  Ds4  v096
 BYTE   W96
//  #02 //067   ----------------------------------------
 BYTE   W64
 BYTE   EOT
 BYTE   W32
//  #02 //068   ----------------------------------------
 BYTE   W96
//  #02 //069   ----------------------------------------
 BYTE   W96
//  #02 //070   ----------------------------------------
 BYTE   W96
//  #02 //071   ----------------------------------------
 BYTE   W96
//  #02 //072   ----------------------------------------
 BYTE   W96
//  #02 //073   ----------------------------------------
Label_01005F24:
 BYTE   N08  Gs2  v096
 BYTE   N08  Gs3
 BYTE   W12
 BYTE   Gs2
 BYTE   N08  Gs3
 BYTE   W12
 BYTE   Gs2
 BYTE   N08  Gs3
 BYTE   W12
 BYTE   N04  Gs2
 BYTE   N04  Gs3
 BYTE   W06
 BYTE   Gs2
 BYTE   N04  Gs3
 BYTE   W06
 BYTE   Gs2
 BYTE   N04  Gs3
 BYTE   W06
 BYTE   Gs2
 BYTE   N04  Gs3
 BYTE   W06
 BYTE   N08  Gs2
 BYTE   N08  Gs3
 BYTE   W12
 BYTE   Gs2
 BYTE   N08  Gs3
 BYTE   W12
 BYTE   Gs2
 BYTE   N08  Gs3
 BYTE   W12
 BYTE   PEND 
//  #02 //074   ----------------------------------------
Label_01005F51:
 BYTE   N08  Gs2  v096
 BYTE   N08  Gs3
 BYTE   W12
 BYTE   Gs2
 BYTE   N08  Gs3
 BYTE   W12
 BYTE   Gs2
 BYTE   N08  Gs3
 BYTE   W12
 BYTE   Gs2
 BYTE   N08  Gs3
 BYTE   W12
 BYTE   Gs2
 BYTE   N08  Gs3
 BYTE   W12
 BYTE   Gs2
 BYTE   N08  Gs3
 BYTE   W12
 BYTE   Gn2
 BYTE   N08  Gn3
 BYTE   W12
 BYTE   Gn2
 BYTE   N08  Gn3
 BYTE   W12
 BYTE   PEND 
//  #02 //075   ----------------------------------------
 BYTE   PATT
  POIN2 Label_01005F24
//  #02 //076   ----------------------------------------
 BYTE   PATT
  POIN2 Label_01005F51
//  #02 //077   ----------------------------------------
 BYTE   PATT
  POIN2 Label_01005F24
//  #02 //078   ----------------------------------------
 BYTE   PATT
  POIN2 Label_01005F51
//  #02 //079   ----------------------------------------
 BYTE   N08  Gs2  v096
 BYTE   N08  Gs3
 BYTE   W12
 BYTE   Gs2
 BYTE   N08  Gs3
 BYTE   W12
 BYTE   Gs2
 BYTE   N08  Gs3
 BYTE   W12
 BYTE   Ds2
 BYTE   N08  Ds3
 BYTE   W12
 BYTE   Fn2
 BYTE   N08  Fn3
 BYTE   W12
 BYTE   Ds2
 BYTE   N08  Ds3
 BYTE   W12
 BYTE   Fn2
 BYTE   N08  Fn3
 BYTE   W24
//  #02 //080   ----------------------------------------
 BYTE   W01
 BYTE   GoTo
  POIN2 Label_01005D2A
 BYTE   FINE

//**************** Track 3 (Midi-Chn.2) ****************//

BuddyHolly_003:
//  #03 //000   ----------------------------------------
 BYTE   KEYSH   BuddyHolly_key+0
Label_010066A6:
 BYTE   VOICE   30
 BYTE   LFOS 44
 BYTE   VOL   50*BuddyHolly_mvl/mxv
 BYTE   PAN   c_v+0
 BYTE   VOL   50*BuddyHolly_mvl/mxv
 BYTE   N09  Cn3  v072
 BYTE   W12
 BYTE   Cs3
 BYTE   W12
 BYTE   Cn3
 BYTE   W12
 BYTE   N28  Gn3
 BYTE   W36
 BYTE   N19  Fn3
 BYTE   W24
//  #03 //001   ----------------------------------------
Label_010066BE:
 BYTE   N09  Cn3  v072
 BYTE   W12
 BYTE   As2
 BYTE   W12
 BYTE   Gs2
 BYTE   W12
 BYTE   N28  Cn3
 BYTE   W60
 BYTE   PEND 
//  #03 //002   ----------------------------------------
Label_010066CA:
 BYTE   N09  Cn3  v072
 BYTE   W12
 BYTE   Cs3
 BYTE   W12
 BYTE   Cn3
 BYTE   W12
 BYTE   N28  Gn3
 BYTE   W36
 BYTE   N19  Fn3
 BYTE   W24
 BYTE   PEND 
//  #03 //003   ----------------------------------------
Label_010066D9:
 BYTE   N14  Cn3  v072
 BYTE   W18
 BYTE   N04  As2
 BYTE   W06
 BYTE   N56  Gs2
 BYTE   W72
 BYTE   PEND 
//  #03 //004   ----------------------------------------
 BYTE   PATT
  POIN2 Label_010066CA
//  #03 //005   ----------------------------------------
 BYTE   PATT
  POIN2 Label_010066BE
//  #03 //006   ----------------------------------------
 BYTE   N09  Cn3  v072
 BYTE   W12
 BYTE   Cs3
 BYTE   W12
 BYTE   Cn3
 BYTE   W12
 BYTE   N19  Gn3
 BYTE   W24
 BYTE   Fn3
 BYTE   W24
 BYTE   N09  Ds3
 BYTE   W12
//  #03 //007   ----------------------------------------
Label_010066FE:
 BYTE   N04  Cn3  v072
 BYTE   W06
 BYTE   As2
 BYTE   W06
 BYTE   N56  Gs2
 BYTE   W84
 BYTE   PEND 
//  #03 //008   ----------------------------------------
Label_01006708:
 BYTE   N19  Gs3  v072
 BYTE   W24
 BYTE   Fn3
 BYTE   W36
 BYTE   N09
 BYTE   W12
 BYTE   Cn3
 BYTE   W12
 BYTE   N32  Ds3
 BYTE   W12
 BYTE   PEND 
//  #03 //009   ----------------------------------------
Label_01006716:
 BYTE   W24
 BYTE   N09  Fn3  v072
 BYTE   W12
 BYTE   N04  Cn3
 BYTE   W06
 BYTE   As2
 BYTE   W06
 BYTE   N36  Gs2
 BYTE   W48
 BYTE   PEND 
//  #03 //010   ----------------------------------------
 BYTE   PATT
  POIN2 Label_01006708
//  #03 //011   ----------------------------------------
Label_01006729:
 BYTE   W24
 BYTE   N09  Fn3  v072
 BYTE   W12
 BYTE   N56
 BYTE   W60
 BYTE   PEND 
//  #03 //012   ----------------------------------------
Label_01006731:
 BYTE   N19  Gs3  v072
 BYTE   W24
 BYTE   Fn3
 BYTE   W48
 BYTE   N09
 BYTE   W12
 BYTE   N24  Gs3
 BYTE   W12
 BYTE   PEND 
//  #03 //013   ----------------------------------------
Label_0100673D:
 BYTE   W12
 BYTE   N19  Cs3  v072
 BYTE   N19  En3
 BYTE   W24
 BYTE   N19
 BYTE   N19  Gs3
 BYTE   W24
 BYTE   Fs3
 BYTE   N19  As3
 BYTE   W24
 BYTE   N24  Gs3
 BYTE   N24  Cn4
 BYTE   W12
 BYTE   PEND 
//  #03 //014   ----------------------------------------
Label_01006752:
 BYTE   N19  Gs2  v072
 BYTE   W24
 BYTE   Fn3
 BYTE   W24
 BYTE   Ds3
 BYTE   W24
 BYTE   N09  Cn3
 BYTE   W12
 BYTE   Gs2
 BYTE   W12
 BYTE   PEND 
//  #03 //015   ----------------------------------------
Label_01006760:
 BYTE   N09  As2  v072
 BYTE   W12
 BYTE   Cn3
 BYTE   W12
 BYTE   As2
 BYTE   W12
 BYTE   Gs2
 BYTE   W12
 BYTE   N19  Fn2
 BYTE   W24
 BYTE   Ds2
 BYTE   W24
 BYTE   PEND 
//  #03 //016   ----------------------------------------
Label_01006770:
 BYTE   W24
 BYTE   N19  Fn3  v072
 BYTE   W24
 BYTE   Ds3
 BYTE   W24
 BYTE   N09  Cn3
 BYTE   W12
 BYTE   Gs2
 BYTE   W12
 BYTE   PEND 
//  #03 //017   ----------------------------------------
Label_0100677D:
 BYTE   N09  As2  v072
 BYTE   W12
 BYTE   Cn3
 BYTE   W12
 BYTE   As2
 BYTE   W12
 BYTE   Gs2
 BYTE   W12
 BYTE   N36  As2
 BYTE   W48
 BYTE   PEND 
//  #03 //018   ----------------------------------------
Label_0100678B:
 BYTE   N19  Fn2  v072
 BYTE   W24
 BYTE   Gn2
 BYTE   W24
 BYTE   Gs2
 BYTE   W24
 BYTE   N09  As2
 BYTE   W12
 BYTE   Cn3
 BYTE   W12
 BYTE   PEND 
//  #03 //019   ----------------------------------------
Label_01006799:
 BYTE   N09  Fn2  v072
 BYTE   W12
 BYTE   N09
 BYTE   W12
 BYTE   Ds2
 BYTE   W12
 BYTE   N09
 BYTE   W12
 BYTE   N04  Fn2
 BYTE   W06
 BYTE   Gs2
 BYTE   W06
 BYTE   N09
 BYTE   W36
 BYTE   PEND 
//  #03 //020   ----------------------------------------
Label_010067AB:
 BYTE   N19  Gs2  v072
 BYTE   W24
 BYTE   Fn3
 BYTE   W24
 BYTE   N09  Ds3
 BYTE   W12
 BYTE   N19  Cn3
 BYTE   W24
 BYTE   N32  Gs2
 BYTE   W12
 BYTE   PEND 
//  #03 //021   ----------------------------------------
 BYTE   W96
//  #03 //022   ----------------------------------------
 BYTE   W96
//  #03 //023   ----------------------------------------
 BYTE   W96
//  #03 //024   ----------------------------------------
 BYTE   W96
//  #03 //025   ----------------------------------------
 BYTE   W96
//  #03 //026   ----------------------------------------
 BYTE   PATT
  POIN2 Label_010066CA
//  #03 //027   ----------------------------------------
 BYTE   N09  Cn3  v072
 BYTE   W12
 BYTE   As2
 BYTE   W12
 BYTE   Gs2
 BYTE   W12
 BYTE   N28  Cn3
 BYTE   W36
 BYTE   N19
 BYTE   W24
//  #03 //028   ----------------------------------------
 BYTE   PATT
  POIN2 Label_010066CA
//  #03 //029   ----------------------------------------
 BYTE   PATT
  POIN2 Label_010066D9
//  #03 //030   ----------------------------------------
 BYTE   PATT
  POIN2 Label_010066CA
//  #03 //031   ----------------------------------------
 BYTE   PATT
  POIN2 Label_010066BE
//  #03 //032   ----------------------------------------
 BYTE   N12  Cn4  v080
 BYTE   W12
 BYTE   As3
 BYTE   W12
 BYTE   Gs3
 BYTE   W12
 BYTE   N24  Ds3  v072
 BYTE   W24
 BYTE   N19  Fn3
 BYTE   W24
 BYTE   N09  Ds3
 BYTE   W12
//  #03 //033   ----------------------------------------
 BYTE   PATT
  POIN2 Label_010066FE
//  #03 //034   ----------------------------------------
 BYTE   PATT
  POIN2 Label_01006708
//  #03 //035   ----------------------------------------
 BYTE   PATT
  POIN2 Label_01006716
//  #03 //036   ----------------------------------------
 BYTE   PATT
  POIN2 Label_01006708
//  #03 //037   ----------------------------------------
 BYTE   PATT
  POIN2 Label_01006729
//  #03 //038   ----------------------------------------
 BYTE   PATT
  POIN2 Label_01006731
//  #03 //039   ----------------------------------------
 BYTE   PATT
  POIN2 Label_0100673D
//  #03 //040   ----------------------------------------
 BYTE   PATT
  POIN2 Label_01006752
//  #03 //041   ----------------------------------------
 BYTE   PATT
  POIN2 Label_01006760
//  #03 //042   ----------------------------------------
 BYTE   PATT
  POIN2 Label_01006770
//  #03 //043   ----------------------------------------
 BYTE   PATT
  POIN2 Label_0100677D
//  #03 //044   ----------------------------------------
 BYTE   PATT
  POIN2 Label_0100678B
//  #03 //045   ----------------------------------------
 BYTE   PATT
  POIN2 Label_01006799
//  #03 //046   ----------------------------------------
 BYTE   PATT
  POIN2 Label_010067AB
//  #03 //047   ----------------------------------------
 BYTE   W96
//  #03 //048   ----------------------------------------
 BYTE   PATT
  POIN2 Label_010067AB
//  #03 //049   ----------------------------------------
 BYTE   W96
//  #03 //050   ----------------------------------------
 BYTE   N09  Gs1  v076
 BYTE   N09  Gs2
 BYTE   W24
 BYTE   Gs1
 BYTE   N09  Gs2
 BYTE   W18
 BYTE   N04  Gs1
 BYTE   N04  Gs2
 BYTE   W06
 BYTE   N09  Gs1
 BYTE   N09  Gs2
 BYTE   W12
 BYTE   N04  Gs1
 BYTE   N04  Gs2
 BYTE   W06
 BYTE   Gs1
 BYTE   N04  Gs2
 BYTE   W06
 BYTE   Gs1
 BYTE   N04  Gs2
 BYTE   W18
 BYTE   Gs1
 BYTE   N04  Gs2
 BYTE   W06
//  #03 //051   ----------------------------------------
 BYTE   Gs1
 BYTE   N04  Gs2
 BYTE   W06
 BYTE   Gs1
 BYTE   N04  Gs2
 BYTE   W06
 BYTE   N09  Gs1
 BYTE   N09  Gs2
 BYTE   W12
 BYTE   Gs1
 BYTE   N09  Gs2
 BYTE   W12
 BYTE   N04  As1
 BYTE   N04  As2
 BYTE   W06
 BYTE   As1
 BYTE   N04  As2
 BYTE   W06
 BYTE   N09  Cn2
 BYTE   N09  Cn3
 BYTE   W12
 BYTE   N04  As1
 BYTE   N04  As2
 BYTE   W06
 BYTE   As1
 BYTE   N04  As2
 BYTE   W06
 BYTE   N09  Gs1
 BYTE   N09  Gs2
 BYTE   W24
//  #03 //052   ----------------------------------------
 BYTE   Gs1
 BYTE   N09  Gs2
 BYTE   W24
 BYTE   Gs1
 BYTE   N09  Gs2
 BYTE   W24
 BYTE   Gs1
 BYTE   N09  Gs2
 BYTE   W12
 BYTE   N04  Gs1
 BYTE   N04  Gs2
 BYTE   W06
 BYTE   Gs1
 BYTE   N04  Gs2
 BYTE   W06
 BYTE   Gs1
 BYTE   N04  Gs2
 BYTE   W24
//  #03 //053   ----------------------------------------
 BYTE   N09  Gs1
 BYTE   N09  Gs2
 BYTE   W12
 BYTE   Gs1
 BYTE   N09  Gs2
 BYTE   W12
 BYTE   Gs1
 BYTE   N09  Gs2
 BYTE   W12
 BYTE   N04  As1
 BYTE   N04  As2
 BYTE   W06
 BYTE   As1
 BYTE   N04  As2
 BYTE   W06
 BYTE   N09  Cn2
 BYTE   N09  Cn3
 BYTE   W12
 BYTE   As1
 BYTE   N09  As2
 BYTE   W12
 BYTE   Gs1
 BYTE   N09  Gs2
 BYTE   W24
//  #03 //054   ----------------------------------------
 BYTE   Gs1
 BYTE   N09  Gs2
 BYTE   W12
 BYTE   Gs1
 BYTE   N09  Gs2
 BYTE   W12
 BYTE   N04  Gs1
 BYTE   N04  Gs2
 BYTE   W06
 BYTE   N14  Ds1
 BYTE   N14  Ds2
 BYTE   W18
 BYTE   N09  Gs1
 BYTE   N09  Gs2
 BYTE   W12
 BYTE   Gs1
 BYTE   N09  Gs2
 BYTE   W12
 BYTE   Gs1
 BYTE   N09  Gs2
 BYTE   W24
//  #03 //055   ----------------------------------------
 BYTE   N04  Gs1
 BYTE   N04  Gs2
 BYTE   W06
 BYTE   Gs1
 BYTE   N04  Gs2
 BYTE   W06
 BYTE   Gs1
 BYTE   N04  Gs2
 BYTE   W06
 BYTE   Gs1
 BYTE   N04  Gs2
 BYTE   W06
 BYTE   N09  Gs1
 BYTE   N09  Gs2
 BYTE   W12
 BYTE   As1
 BYTE   N09  As2
 BYTE   W12
 BYTE   Cn2
 BYTE   N09  Cn3
 BYTE   W12
 BYTE   N04  As1
 BYTE   N04  As2
 BYTE   W06
 BYTE   As1
 BYTE   N04  As2
 BYTE   W06
 BYTE   N09  Gs1
 BYTE   N09  Gs2
 BYTE   W24
//  #03 //056   ----------------------------------------
 BYTE   N04  Gs1
 BYTE   N04  Gs2
 BYTE   W06
 BYTE   Gs1
 BYTE   N04  Gs2
 BYTE   W06
 BYTE   Gs1
 BYTE   N04  Gs2
 BYTE   W06
 BYTE   Gs1
 BYTE   N04  Gs2
 BYTE   W06
 BYTE   Gs1
 BYTE   N04  Gs2
 BYTE   W06
 BYTE   Gs1
 BYTE   N04  Gs2
 BYTE   W06
 BYTE   Gs1
 BYTE   N04  Gs2
 BYTE   W06
 BYTE   Gs1
 BYTE   N04  Gs2
 BYTE   W06
 BYTE   Gs1
 BYTE   N04  Gs2
 BYTE   W06
 BYTE   Gs1
 BYTE   N04  Gs2
 BYTE   W06
 BYTE   Gs1
 BYTE   N04  Gs2
 BYTE   W06
 BYTE   Gs1
 BYTE   N04  Gs2
 BYTE   W06
 BYTE   N09  Gs1
 BYTE   N09  Gs2
 BYTE   W24
//  #03 //057   ----------------------------------------
 BYTE   N04  Gs1
 BYTE   N04  Gs2
 BYTE   W06
 BYTE   Gs1
 BYTE   N04  Gs2
 BYTE   W06
 BYTE   Gs1
 BYTE   N04  Gs2
 BYTE   W06
 BYTE   Gs1
 BYTE   N04  Gs2
 BYTE   W06
 BYTE   N09  Gs1
 BYTE   N09  Gs2
 BYTE   W12
 BYTE   As1
 BYTE   N09  As2
 BYTE   W12
 BYTE   Cn2
 BYTE   N09  Cn3
 BYTE   W12
 BYTE   Cs2
 BYTE   N09  Cs3
 BYTE   W12
 BYTE   Ds2
 BYTE   N09  Ds3
 BYTE   W12
 BYTE   Fn2
 BYTE   N09  Fn3
 BYTE   W12
//  #03 //058   ----------------------------------------
 BYTE   N28  Gn3  v072
 BYTE   N28  Gn4
 BYTE   W36
 BYTE   N19  Fn3
 BYTE   N19  Fn4
 BYTE   W24
 BYTE   Ds3
 BYTE   N19  Ds4
 BYTE   W24
 BYTE   N09  Cs3
 BYTE   N09  Cs4
 BYTE   W12
//  #03 //059   ----------------------------------------
 BYTE   N19  Cn3
 BYTE   N19  Cn4
 BYTE   W24
 BYTE   N09  Cs3
 BYTE   N09  Cs4
 BYTE   W12
 BYTE   N56  Gs2
 BYTE   N56  Gs3
 BYTE   W60
//  #03 //060   ----------------------------------------
 BYTE   W96
//  #03 //061   ----------------------------------------
 BYTE   W96
//  #03 //062   ----------------------------------------
 BYTE   W72
 BYTE   N09  Fn2
 BYTE   W12
 BYTE   N24  Gs2
 BYTE   W12
//  #03 //063   ----------------------------------------
 BYTE   W12
 BYTE   N19  En2
 BYTE   W24
 BYTE   Gs2
 BYTE   W24
 BYTE   As2
 BYTE   W12
 BYTE   N09  Fn3
 BYTE   W12
 BYTE   N24  Cn3
 BYTE   N24  Gs3
 BYTE   W12
//  #03 //064   ----------------------------------------
 BYTE   W12
 BYTE   N19  En3
 BYTE   W24
 BYTE   Gs3
 BYTE   W24
 BYTE   As3
 BYTE   W24
 BYTE   N24  Cn4
 BYTE   W12
//  #03 //065   ----------------------------------------
 BYTE   W96
//  #03 //066   ----------------------------------------
 BYTE   PATT
  POIN2 Label_01006752
//  #03 //067   ----------------------------------------
 BYTE   PATT
  POIN2 Label_01006760
//  #03 //068   ----------------------------------------
 BYTE   PATT
  POIN2 Label_01006770
//  #03 //069   ----------------------------------------
 BYTE   PATT
  POIN2 Label_0100677D
//  #03 //070   ----------------------------------------
 BYTE   PATT
  POIN2 Label_0100678B
//  #03 //071   ----------------------------------------
 BYTE   PATT
  POIN2 Label_01006799
//  #03 //072   ----------------------------------------
 BYTE   PATT
  POIN2 Label_010067AB
//  #03 //073   ----------------------------------------
 BYTE   W96
//  #03 //074   ----------------------------------------
Label_010069EA:
 BYTE   N19  Ds2  v072
 BYTE   N19  Gs2
 BYTE   W24
 BYTE   Cs3
 BYTE   N19  Fn3
 BYTE   W24
 BYTE   N09  Cn3
 BYTE   N09  Ds3
 BYTE   W12
 BYTE   N19  Gn2
 BYTE   N19  Cn3
 BYTE   W24
 BYTE   N32  Ds2
 BYTE   N32  Gs2
 BYTE   W12
 BYTE   PEND 
//  #03 //075   ----------------------------------------
 BYTE   W96
//  #03 //076   ----------------------------------------
 BYTE   PATT
  POIN2 Label_010069EA
//  #03 //077   ----------------------------------------
 BYTE   W96
//  #03 //078   ----------------------------------------
 BYTE   PATT
  POIN2 Label_010069EA
//  #03 //079   ----------------------------------------
 BYTE   W96
//  #03 //080   ----------------------------------------
 BYTE   W01
 BYTE   GoTo
  POIN2 Label_010066A6
 BYTE   FINE

//**************** Track 4 (Midi-Chn.3) ****************//

BuddyHolly_004:
//  #04 //000   ----------------------------------------
 BYTE   KEYSH   BuddyHolly_key+0
Label_010059A2:
 BYTE   VOICE   38
 BYTE   LFOS 44
 BYTE   VOL   36*BuddyHolly_mvl/mxv
 BYTE   PAN   c_v+0
 BYTE   VOL   36*BuddyHolly_mvl/mxv
 BYTE   N08  Fn0  v096
 BYTE   W12
 BYTE   N08
 BYTE   W12
 BYTE   N08
 BYTE   W12
 BYTE   Cn1
 BYTE   W12
 BYTE   Fn0
 BYTE   W12
 BYTE   N08
 BYTE   W12
 BYTE   N08
 BYTE   W12
 BYTE   Cn1
 BYTE   W12
//  #04 //001   ----------------------------------------
Label_010059BE:
 BYTE   N08  Fn0  v096
 BYTE   W12
 BYTE   N08
 BYTE   W12
 BYTE   N08
 BYTE   W12
 BYTE   Cn1
 BYTE   W12
 BYTE   Fn0
 BYTE   W12
 BYTE   N08
 BYTE   W12
 BYTE   Gn0
 BYTE   W12
 BYTE   N08
 BYTE   W12
 BYTE   PEND 
//  #04 //002   ----------------------------------------
Label_010059D1:
 BYTE   N08  Gs0  v096
 BYTE   W12
 BYTE   N08
 BYTE   W12
 BYTE   N08
 BYTE   W12
 BYTE   Ds1
 BYTE   W12
 BYTE   Gs0
 BYTE   W12
 BYTE   N08
 BYTE   W12
 BYTE   N08
 BYTE   W12
 BYTE   Ds1
 BYTE   W12
 BYTE   PEND 
//  #04 //003   ----------------------------------------
Label_010059E4:
 BYTE   N08  Gs0  v096
 BYTE   W12
 BYTE   N08
 BYTE   W12
 BYTE   N08
 BYTE   W12
 BYTE   Ds1
 BYTE   W12
 BYTE   Gs0
 BYTE   W12
 BYTE   N08
 BYTE   W12
 BYTE   N08
 BYTE   W12
 BYTE   N08
 BYTE   W12
 BYTE   PEND 
//  #04 //004   ----------------------------------------
Label_010059F7:
 BYTE   N08  Fn0  v096
 BYTE   W12
 BYTE   N08
 BYTE   W12
 BYTE   N08
 BYTE   W12
 BYTE   Cn1
 BYTE   W12
 BYTE   Fn0
 BYTE   W12
 BYTE   N08
 BYTE   W12
 BYTE   N08
 BYTE   W12
 BYTE   Cn1
 BYTE   W12
 BYTE   PEND 
//  #04 //005   ----------------------------------------
 BYTE   PATT
  POIN2 Label_010059BE
//  #04 //006   ----------------------------------------
 BYTE   PATT
  POIN2 Label_010059D1
//  #04 //007   ----------------------------------------
 BYTE   PATT
  POIN2 Label_010059E4
//  #04 //008   ----------------------------------------
Label_01005A19:
 BYTE   N08  Cs1  v096
 BYTE   W12
 BYTE   N08
 BYTE   W12
 BYTE   N08
 BYTE   W12
 BYTE   N08
 BYTE   W12
 BYTE   N08
 BYTE   W12
 BYTE   N08
 BYTE   W12
 BYTE   N08
 BYTE   W12
 BYTE   N08
 BYTE   W12
 BYTE   PEND 
//  #04 //009   ----------------------------------------
Label_01005A2C:
 BYTE   N08  Cn1  v096
 BYTE   W12
 BYTE   N08
 BYTE   W12
 BYTE   N08
 BYTE   W12
 BYTE   Fn0
 BYTE   W12
 BYTE   N08
 BYTE   W12
 BYTE   N08
 BYTE   W12
 BYTE   N08
 BYTE   W12
 BYTE   N08
 BYTE   W12
 BYTE   PEND 
//  #04 //010   ----------------------------------------
 BYTE   PATT
  POIN2 Label_01005A19
//  #04 //011   ----------------------------------------
 BYTE   PATT
  POIN2 Label_01005A2C
//  #04 //012   ----------------------------------------
 BYTE   PATT
  POIN2 Label_01005A19
//  #04 //013   ----------------------------------------
Label_01005A4E:
 BYTE   N08  Gs1  v096
 BYTE   W12
 BYTE   N08
 BYTE   W12
 BYTE   N08
 BYTE   W12
 BYTE   N08
 BYTE   W12
 BYTE   N08
 BYTE   W12
 BYTE   N08
 BYTE   W12
 BYTE   N08
 BYTE   W12
 BYTE   N08
 BYTE   W12
 BYTE   PEND 
//  #04 //014   ----------------------------------------
Label_01005A61:
 BYTE   N08  Gs0  v096
 BYTE   W12
 BYTE   N08
 BYTE   W12
 BYTE   N08
 BYTE   W12
 BYTE   N08
 BYTE   W12
 BYTE   N08
 BYTE   W12
 BYTE   N08
 BYTE   W12
 BYTE   N08
 BYTE   W12
 BYTE   N08
 BYTE   W12
 BYTE   PEND 
//  #04 //015   ----------------------------------------
Label_01005A74:
 BYTE   N08  Cs0  v096
 BYTE   W12
 BYTE   N08
 BYTE   W12
 BYTE   N08
 BYTE   W12
 BYTE   N08
 BYTE   W12
 BYTE   Ds0
 BYTE   W12
 BYTE   N08
 BYTE   W12
 BYTE   N08
 BYTE   W12
 BYTE   N08
 BYTE   W12
 BYTE   PEND 
//  #04 //016   ----------------------------------------
 BYTE   PATT
  POIN2 Label_01005A61
//  #04 //017   ----------------------------------------
 BYTE   PATT
  POIN2 Label_01005A74
//  #04 //018   ----------------------------------------
Label_01005A91:
 BYTE   N08  Fn0  v096
 BYTE   W12
 BYTE   N08
 BYTE   W12
 BYTE   N08
 BYTE   W12
 BYTE   N08
 BYTE   W12
 BYTE   N08
 BYTE   W12
 BYTE   N08
 BYTE   W12
 BYTE   N08
 BYTE   W12
 BYTE   N08
 BYTE   W12
 BYTE   PEND 
//  #04 //019   ----------------------------------------
Label_01005AA4:
 BYTE   N08  Cs0  v096
 BYTE   W12
 BYTE   N08
 BYTE   W12
 BYTE   Ds0
 BYTE   W12
 BYTE   N08
 BYTE   W12
 BYTE   Gs0
 BYTE   W12
 BYTE   N08
 BYTE   W12
 BYTE   N08
 BYTE   W12
 BYTE   N08
 BYTE   W12
 BYTE   PEND 
//  #04 //020   ----------------------------------------
Label_01005AB7:
 BYTE   N08  Gs0  v096
 BYTE   W12
 BYTE   N08
 BYTE   W12
 BYTE   Cs0
 BYTE   W12
 BYTE   N08
 BYTE   W12
 BYTE   Ds0
 BYTE   W12
 BYTE   N08
 BYTE   W12
 BYTE   N08
 BYTE   W12
 BYTE   N08
 BYTE   W12
 BYTE   PEND 
//  #04 //021   ----------------------------------------
Label_01005ACA:
 BYTE   N08  Gs0  v096
 BYTE   W12
 BYTE   N08
 BYTE   W12
 BYTE   N08
 BYTE   W12
 BYTE   N04  Ds0
 BYTE   W06
 BYTE   N04
 BYTE   W06
 BYTE   Gs0
 BYTE   W06
 BYTE   N04
 BYTE   W06
 BYTE   N08
 BYTE   W12
 BYTE   N08
 BYTE   W12
 BYTE   N08
 BYTE   W12
 BYTE   PEND 
//  #04 //022   ----------------------------------------
 BYTE   PATT
  POIN2 Label_010059F7
//  #04 //023   ----------------------------------------
 BYTE   N08  Fn1  v096
 BYTE   W12
 BYTE   N08
 BYTE   W12
 BYTE   N08
 BYTE   W12
 BYTE   Cn1
 BYTE   W12
 BYTE   Fn1
 BYTE   W12
 BYTE   Fn0
 BYTE   W12
 BYTE   Gn0
 BYTE   W12
 BYTE   N08
 BYTE   W12
//  #04 //024   ----------------------------------------
 BYTE   PATT
  POIN2 Label_010059D1
//  #04 //025   ----------------------------------------
 BYTE   N08  Gs0  v096
 BYTE   W12
 BYTE   N08
 BYTE   W12
 BYTE   N08
 BYTE   W12
 BYTE   Ds1
 BYTE   W12
 BYTE   Gs0
 BYTE   W12
 BYTE   N04  Ds1
 BYTE   W06
 BYTE   N04
 BYTE   W06
 BYTE   N08  Gs0
 BYTE   W12
 BYTE   N08
 BYTE   W12
//  #04 //026   ----------------------------------------
 BYTE   PATT
  POIN2 Label_010059F7
//  #04 //027   ----------------------------------------
 BYTE   PATT
  POIN2 Label_010059BE
//  #04 //028   ----------------------------------------
 BYTE   PATT
  POIN2 Label_010059D1
//  #04 //029   ----------------------------------------
 BYTE   PATT
  POIN2 Label_010059E4
//  #04 //030   ----------------------------------------
 BYTE   PATT
  POIN2 Label_010059F7
//  #04 //031   ----------------------------------------
 BYTE   PATT
  POIN2 Label_010059BE
//  #04 //032   ----------------------------------------
 BYTE   PATT
  POIN2 Label_010059D1
//  #04 //033   ----------------------------------------
 BYTE   PATT
  POIN2 Label_010059E4
//  #04 //034   ----------------------------------------
 BYTE   PATT
  POIN2 Label_01005A19
//  #04 //035   ----------------------------------------
 BYTE   PATT
  POIN2 Label_01005A2C
//  #04 //036   ----------------------------------------
 BYTE   PATT
  POIN2 Label_01005A19
//  #04 //037   ----------------------------------------
 BYTE   PATT
  POIN2 Label_01005A2C
//  #04 //038   ----------------------------------------
 BYTE   PATT
  POIN2 Label_01005A19
//  #04 //039   ----------------------------------------
 BYTE   PATT
  POIN2 Label_01005A4E
//  #04 //040   ----------------------------------------
 BYTE   PATT
  POIN2 Label_01005A61
//  #04 //041   ----------------------------------------
 BYTE   PATT
  POIN2 Label_01005A74
//  #04 //042   ----------------------------------------
 BYTE   PATT
  POIN2 Label_01005A61
//  #04 //043   ----------------------------------------
 BYTE   PATT
  POIN2 Label_01005A74
//  #04 //044   ----------------------------------------
 BYTE   PATT
  POIN2 Label_01005A91
//  #04 //045   ----------------------------------------
 BYTE   PATT
  POIN2 Label_01005AA4
//  #04 //046   ----------------------------------------
 BYTE   PATT
  POIN2 Label_01005AB7
//  #04 //047   ----------------------------------------
 BYTE   PATT
  POIN2 Label_01005ACA
//  #04 //048   ----------------------------------------
 BYTE   PATT
  POIN2 Label_01005AB7
//  #04 //049   ----------------------------------------
 BYTE   N08  Gs0  v096
 BYTE   W12
 BYTE   N08
 BYTE   W12
 BYTE   N08
 BYTE   W12
 BYTE   Ds0
 BYTE   W12
 BYTE   N04  Gs0
 BYTE   W06
 BYTE   N04
 BYTE   W06
 BYTE   N08
 BYTE   W12
 BYTE   N08
 BYTE   W24
//  #04 //050   ----------------------------------------
 BYTE   N08
 BYTE   W12
 BYTE   N08
 BYTE   W12
 BYTE   N08
 BYTE   W12
 BYTE   Ds0
 BYTE   W12
 BYTE   Fn0
 BYTE   W12
 BYTE   Ds0
 BYTE   W12
 BYTE   Fn0
 BYTE   W24
//  #04 //051   ----------------------------------------
Label_01005BA8:
 BYTE   W12
 BYTE   N08  Fn0  v096
 BYTE   W12
 BYTE   Gs0
 BYTE   W12
 BYTE   As0
 BYTE   W12
 BYTE   Cn1
 BYTE   W12
 BYTE   As0
 BYTE   W12
 BYTE   Gs0
 BYTE   W12
 BYTE   Fn0
 BYTE   W12
 BYTE   PEND 
//  #04 //052   ----------------------------------------
Label_01005BBA:
 BYTE   N04  Gs0  v096
 BYTE   W06
 BYTE   N04
 BYTE   W06
 BYTE   N08
 BYTE   W12
 BYTE   N08
 BYTE   W12
 BYTE   Ds0
 BYTE   W12
 BYTE   Fn0
 BYTE   W12
 BYTE   Ds0
 BYTE   W12
 BYTE   Fn0
 BYTE   W24
 BYTE   PEND 
//  #04 //053   ----------------------------------------
 BYTE   PATT
  POIN2 Label_01005BA8
//  #04 //054   ----------------------------------------
 BYTE   PATT
  POIN2 Label_01005BBA
//  #04 //055   ----------------------------------------
 BYTE   PATT
  POIN2 Label_01005BA8
//  #04 //056   ----------------------------------------
 BYTE   N04  Gs0  v096
 BYTE   W06
 BYTE   N04
 BYTE   W06
 BYTE   N08
 BYTE   W12
 BYTE   N04
 BYTE   W06
 BYTE   N04
 BYTE   W06
 BYTE   N08  Ds0
 BYTE   W12
 BYTE   Fn0
 BYTE   W12
 BYTE   Ds0
 BYTE   W12
 BYTE   Fn0
 BYTE   W24
//  #04 //057   ----------------------------------------
 BYTE   PATT
  POIN2 Label_01005BA8
//  #04 //058   ----------------------------------------
 BYTE   PATT
  POIN2 Label_01005A19
//  #04 //059   ----------------------------------------
 BYTE   PATT
  POIN2 Label_01005A2C
//  #04 //060   ----------------------------------------
 BYTE   PATT
  POIN2 Label_01005A19
//  #04 //061   ----------------------------------------
 BYTE   PATT
  POIN2 Label_01005A2C
//  #04 //062   ----------------------------------------
 BYTE   PATT
  POIN2 Label_01005A19
//  #04 //063   ----------------------------------------
 BYTE   PATT
  POIN2 Label_01005A19
//  #04 //064   ----------------------------------------
 BYTE   PATT
  POIN2 Label_01005A19
//  #04 //065   ----------------------------------------
 BYTE   W96
//  #04 //066   ----------------------------------------
 BYTE   PATT
  POIN2 Label_01005A61
//  #04 //067   ----------------------------------------
Label_01005C1F:
 BYTE   N04  Cs0  v096
 BYTE   W06
 BYTE   N04
 BYTE   W06
 BYTE   N08
 BYTE   W12
 BYTE   N08
 BYTE   W12
 BYTE   N08
 BYTE   W12
 BYTE   Ds0
 BYTE   W12
 BYTE   N08
 BYTE   W12
 BYTE   N08
 BYTE   W12
 BYTE   N08
 BYTE   W12
 BYTE   PEND 
//  #04 //068   ----------------------------------------
 BYTE   PATT
  POIN2 Label_01005A61
//  #04 //069   ----------------------------------------
 BYTE   PATT
  POIN2 Label_01005C1F
//  #04 //070   ----------------------------------------
 BYTE   PATT
  POIN2 Label_01005A91
//  #04 //071   ----------------------------------------
 BYTE   PATT
  POIN2 Label_01005AA4
//  #04 //072   ----------------------------------------
 BYTE   PATT
  POIN2 Label_01005AB7
//  #04 //073   ----------------------------------------
 BYTE   PATT
  POIN2 Label_01005ACA
//  #04 //074   ----------------------------------------
 BYTE   PATT
  POIN2 Label_01005AB7
//  #04 //075   ----------------------------------------
 BYTE   PATT
  POIN2 Label_01005ACA
//  #04 //076   ----------------------------------------
 BYTE   PATT
  POIN2 Label_01005AB7
//  #04 //077   ----------------------------------------
 BYTE   PATT
  POIN2 Label_01005ACA
//  #04 //078   ----------------------------------------
 BYTE   PATT
  POIN2 Label_01005AB7
//  #04 //079   ----------------------------------------
 BYTE   N08  Gs0  v096
 BYTE   W12
 BYTE   N08
 BYTE   W12
 BYTE   N04
 BYTE   W06
 BYTE   N04
 BYTE   W06
 BYTE   N08  Ds0
 BYTE   W12
 BYTE   Fn0
 BYTE   W12
 BYTE   Ds0
 BYTE   W12
 BYTE   Fn0
 BYTE   W24
//  #04 //080   ----------------------------------------
 BYTE   W01
 BYTE   GoTo
  POIN2 Label_010059A2
 BYTE   FINE

//**************** Track 5 (Midi-Chn.4) ****************//

BuddyHolly_005:
//  #05 //000   ----------------------------------------
 BYTE   KEYSH   BuddyHolly_key+0
Label_01968ECE:
 BYTE   VOICE   74
 BYTE   LFOS 44
 BYTE   VOL   43*BuddyHolly_mvl/mxv
 BYTE   PAN   c_v+0
 BYTE   VOL   50*BuddyHolly_mvl/mxv
 BYTE   W96
//  #05 //001   ----------------------------------------
 BYTE   W96
//  #05 //002   ----------------------------------------
 BYTE   W96
//  #05 //003   ----------------------------------------
Label_01968EDB:
 BYTE   W48
 BYTE   N06  Cn3  v052
 BYTE   N06  Cn4
 BYTE   W06
 BYTE   Cs3
 BYTE   N06  Cs4
 BYTE   W06
 BYTE   Cn3
 BYTE   N06  Cn4
 BYTE   W06
 BYTE   Cs3
 BYTE   N06  Cs4
 BYTE   W06
 BYTE   N72  Cn3
 BYTE   N72  Cn4
 BYTE   W24
 BYTE   PEND 
//  #05 //004   ----------------------------------------
 BYTE   W96
//  #05 //005   ----------------------------------------
 BYTE   W96
//  #05 //006   ----------------------------------------
 BYTE   W96
//  #05 //007   ----------------------------------------
 BYTE   W96
//  #05 //008   ----------------------------------------
 BYTE   W96
//  #05 //009   ----------------------------------------
 BYTE   W96
//  #05 //010   ----------------------------------------
 BYTE   W96
//  #05 //011   ----------------------------------------
 BYTE   W96
//  #05 //012   ----------------------------------------
 BYTE   W96
//  #05 //013   ----------------------------------------
 BYTE   W96
//  #05 //014   ----------------------------------------
 BYTE   W96
//  #05 //015   ----------------------------------------
 BYTE   W96
//  #05 //016   ----------------------------------------
 BYTE   W96
//  #05 //017   ----------------------------------------
 BYTE   W96
//  #05 //018   ----------------------------------------
 BYTE   W96
//  #05 //019   ----------------------------------------
 BYTE   W96
//  #05 //020   ----------------------------------------
 BYTE   W96
//  #05 //021   ----------------------------------------
 BYTE   W96
//  #05 //022   ----------------------------------------
 BYTE   N08  Cn4  v060
 BYTE   W12
 BYTE   Cs4
 BYTE   W12
 BYTE   Cn4
 BYTE   W08
 BYTE   N02  Fn4
 BYTE   W04
 BYTE   N24  Gn4
 BYTE   W36
 BYTE   N16  Fn4
 BYTE   W24
//  #05 //023   ----------------------------------------
 BYTE   N08  Cn4
 BYTE   W12
 BYTE   As3
 BYTE   W12
 BYTE   Gs3
 BYTE   W12
 BYTE   N24  Cn4
 BYTE   W36
 BYTE   N16
 BYTE   W24
//  #05 //024   ----------------------------------------
 BYTE   N08
 BYTE   W12
 BYTE   Cs4
 BYTE   W12
 BYTE   Cn4
 BYTE   W12
 BYTE   N04  Fn4
 BYTE   W06
 BYTE   N24  Gn4
 BYTE   W30
 BYTE   N16  Fn4
 BYTE   W24
//  #05 //025   ----------------------------------------
 BYTE   N12  Cn4
 BYTE   W18
 BYTE   N04  As3
 BYTE   W06
 BYTE   N48  Gs3
 BYTE   W72
//  #05 //026   ----------------------------------------
 BYTE   W96
//  #05 //027   ----------------------------------------
 BYTE   W96
//  #05 //028   ----------------------------------------
 BYTE   W96
//  #05 //029   ----------------------------------------
 BYTE   PATT
  POIN2 Label_01968EDB
//  #05 //030   ----------------------------------------
 BYTE   W96
//  #05 //031   ----------------------------------------
 BYTE   W96
//  #05 //032   ----------------------------------------
 BYTE   W96
//  #05 //033   ----------------------------------------
 BYTE   W96
//  #05 //034   ----------------------------------------
 BYTE   W96
//  #05 //035   ----------------------------------------
 BYTE   W96
//  #05 //036   ----------------------------------------
 BYTE   W96
//  #05 //037   ----------------------------------------
 BYTE   W96
//  #05 //038   ----------------------------------------
 BYTE   W96
//  #05 //039   ----------------------------------------
 BYTE   W96
//  #05 //040   ----------------------------------------
 BYTE   W96
//  #05 //041   ----------------------------------------
 BYTE   W96
//  #05 //042   ----------------------------------------
 BYTE   W96
//  #05 //043   ----------------------------------------
 BYTE   W96
//  #05 //044   ----------------------------------------
 BYTE   W96
//  #05 //045   ----------------------------------------
 BYTE   W96
//  #05 //046   ----------------------------------------
 BYTE   W96
//  #05 //047   ----------------------------------------
 BYTE   W96
//  #05 //048   ----------------------------------------
 BYTE   W96
//  #05 //049   ----------------------------------------
 BYTE   W96
//  #05 //050   ----------------------------------------
 BYTE   W96
//  #05 //051   ----------------------------------------
 BYTE   W96
//  #05 //052   ----------------------------------------
 BYTE   W96
//  #05 //053   ----------------------------------------
 BYTE   W96
//  #05 //054   ----------------------------------------
 BYTE   W96
//  #05 //055   ----------------------------------------
 BYTE   W96
//  #05 //056   ----------------------------------------
 BYTE   W96
//  #05 //057   ----------------------------------------
 BYTE   W96
//  #05 //058   ----------------------------------------
 BYTE   W96
//  #05 //059   ----------------------------------------
 BYTE   W96
//  #05 //060   ----------------------------------------
 BYTE   W96
//  #05 //061   ----------------------------------------
 BYTE   W96
//  #05 //062   ----------------------------------------
 BYTE   W96
//  #05 //063   ----------------------------------------
 BYTE   W96
//  #05 //064   ----------------------------------------
 BYTE   W96
//  #05 //065   ----------------------------------------
 BYTE   N08  Gs4  v052
 BYTE   W12
 BYTE   En4
 BYTE   W12
 BYTE   Gs4
 BYTE   W12
 BYTE   As4
 BYTE   W12
 BYTE   BEND   c_v+14
 BYTE   N16
 BYTE   W01
 BYTE   BEND   c_v+29
 BYTE   W01
 BYTE   BEND   c_v+45
 BYTE   W01
 BYTE   BEND   c_v+61
 BYTE   W06
 BYTE   BEND   c_v+53
 BYTE   W01
 BYTE   BEND   c_v+37
 BYTE   W01
 BYTE   BEND   c_v+21
 BYTE   W01
 BYTE   BEND   c_v+6
 BYTE   W01
 BYTE   BEND   c_v+0
 BYTE   W11
 BYTE   N08  Gs4
 BYTE   W12
 BYTE   En4
 BYTE   W12
//  #05 //066   ----------------------------------------
 BYTE   TIE  Ds4
 BYTE   W96
//  #05 //067   ----------------------------------------
 BYTE   W64
 BYTE   EOT
 BYTE   W32
//  #05 //068   ----------------------------------------
 BYTE   W96
//  #05 //069   ----------------------------------------
 BYTE   W96
//  #05 //070   ----------------------------------------
 BYTE   W96
//  #05 //071   ----------------------------------------
 BYTE   W96
//  #05 //072   ----------------------------------------
 BYTE   W96
//  #05 //073   ----------------------------------------
 BYTE   W96
//  #05 //074   ----------------------------------------
 BYTE   W96
//  #05 //075   ----------------------------------------
 BYTE   W96
//  #05 //076   ----------------------------------------
 BYTE   W96
//  #05 //077   ----------------------------------------
 BYTE   W96
//  #05 //078   ----------------------------------------
 BYTE   W96
//  #05 //079   ----------------------------------------
 BYTE   W96
//  #05 //080   ----------------------------------------
 BYTE   W01
 BYTE   GoTo
  POIN2 Label_01968ECE
 BYTE   FINE

//**************** Track 6 (Midi-Chn.5) ****************//

BuddyHolly_006:
//  #06 //000   ----------------------------------------
 BYTE   KEYSH   BuddyHolly_key+0
Label_0100570A:
 BYTE   VOICE   18
 BYTE   LFOS 44
 BYTE   VOL   33*BuddyHolly_mvl/mxv
 BYTE   TIE  Fn1  v120
 BYTE   W96
//  #06 //001   ----------------------------------------
 BYTE   W60
 BYTE   W01
 BYTE   EOT
 BYTE   W11
 BYTE   N13  Gn1
 BYTE   W23
 BYTE   TIE  Gs1
 BYTE   W01
//  #06 //002   ----------------------------------------
 BYTE   W96
//  #06 //003   ----------------------------------------
 BYTE   W76
 BYTE   EOT
 BYTE   W20
//  #06 //004   ----------------------------------------
 BYTE   TIE  Fn1
 BYTE   W96
//  #06 //005   ----------------------------------------
 BYTE   W60
 BYTE   W01
 BYTE   EOT
 BYTE   W12
 BYTE   N13  Gn1
 BYTE   W23
//  #06 //006   ----------------------------------------
 BYTE   TIE  Gs1
 BYTE   W96
//  #06 //007   ----------------------------------------
 BYTE   W78
 BYTE   W01
 BYTE   EOT
 BYTE   W17
//  #06 //008   ----------------------------------------
 BYTE   N92  Cs2
 BYTE   W96
//  #06 //009   ----------------------------------------
 BYTE   W01
 BYTE   N32  Cn2
 BYTE   W36
 BYTE   N56  Fn2
 BYTE   W56
 BYTE   W03
//  #06 //010   ----------------------------------------
 BYTE   TIE  Cs2
 BYTE   W96
//  #06 //011   ----------------------------------------
 BYTE   W01
 BYTE   EOT
 BYTE   N36  Cn2
 BYTE   W36
 BYTE   W01
 BYTE   N56  Fn2
 BYTE   W56
 BYTE   W02
//  #06 //012   ----------------------------------------
 BYTE   TIE  Cs2
 BYTE   W96
//  #06 //013   ----------------------------------------
 BYTE   W72
 BYTE   W03
 BYTE   EOT
 BYTE   W21
//  #06 //014   ----------------------------------------
 BYTE   W01
 BYTE   N90  Gs1
 BYTE   W92
 BYTE   W03
//  #06 //015   ----------------------------------------
 BYTE   N44  Cs2
 BYTE   W48
 BYTE   N48  Ds2
 BYTE   W48
//  #06 //016   ----------------------------------------
 BYTE   N96  Gs1
 BYTE   W96
//  #06 //017   ----------------------------------------
 BYTE   N48  Cs2
 BYTE   W48
 BYTE   N44  Ds2
 BYTE   W48
//  #06 //018   ----------------------------------------
 BYTE   N84  Fn2
 BYTE   W96
//  #06 //019   ----------------------------------------
 BYTE   W06
 BYTE   N21
 BYTE   W19
 BYTE   N22  Ds2
 BYTE   W24
 BYTE   N36  Gs2
 BYTE   W44
 BYTE   W02
 BYTE   N48
 BYTE   W01
//  #06 //020   ----------------------------------------
 BYTE   W44
 BYTE   W03
 BYTE   N36  Gn2
 BYTE   W36
 BYTE   W02
 BYTE   TIE  Gs2
 BYTE   W11
//  #06 //021   ----------------------------------------
 BYTE   W92
 BYTE   W03
 BYTE   EOT
 BYTE   TIE  Fn1
 BYTE   W01
//  #06 //022   ----------------------------------------
 BYTE   W96
//  #06 //023   ----------------------------------------
 BYTE   W60
 BYTE   EOT
 BYTE   W12
 BYTE   N14  Gn1
 BYTE   W24
//  #06 //024   ----------------------------------------
 BYTE   TIE  Gs1
 BYTE   W96
//  #06 //025   ----------------------------------------
 BYTE   W78
 BYTE   EOT
 BYTE   W18
//  #06 //026   ----------------------------------------
 BYTE   W01
 BYTE   TIE  Fn1
 BYTE   W92
 BYTE   W03
//  #06 //027   ----------------------------------------
 BYTE   W68
 BYTE   EOT
 BYTE   W04
 BYTE   N16  Gn1
 BYTE   W24
//  #06 //028   ----------------------------------------
 BYTE   W01
 BYTE   TIE  Gs1
 BYTE   W92
 BYTE   W03
//  #06 //029   ----------------------------------------
 BYTE   W80
 BYTE   W01
 BYTE   EOT
 BYTE   W15
//  #06 //030   ----------------------------------------
 BYTE   TIE  Fn1
 BYTE   W96
//  #06 //031   ----------------------------------------
 BYTE   W56
 BYTE   W02
 BYTE   EOT
 BYTE   W14
 BYTE   N14  Gn1
 BYTE   W24
//  #06 //032   ----------------------------------------
 BYTE   TIE  Gs1
 BYTE   W96
//  #06 //033   ----------------------------------------
 BYTE   W78
 BYTE   W01
 BYTE   EOT
 BYTE   W17
//  #06 //034   ----------------------------------------
 BYTE   TIE  Cs2
 BYTE   W96
//  #06 //035   ----------------------------------------
 BYTE   W02
 BYTE   EOT
 BYTE   N32  Cn2
 BYTE   W32
 BYTE   W03
 BYTE   N56  Fn2
 BYTE   W56
 BYTE   W03
//  #06 //036   ----------------------------------------
 BYTE   N92  Cs2
 BYTE   W96
//  #06 //037   ----------------------------------------
 BYTE   N36  Cn2
 BYTE   W36
 BYTE   W01
 BYTE   N56  Fn2
 BYTE   W56
 BYTE   W02
 BYTE   TIE  Cs2
 BYTE   W01
//  #06 //038   ----------------------------------------
 BYTE   W96
//  #06 //039   ----------------------------------------
 BYTE   W78
 BYTE   EOT
 BYTE   W18
//  #06 //040   ----------------------------------------
 BYTE   N92  Gs1
 BYTE   W96
//  #06 //041   ----------------------------------------
 BYTE   N44  Cs2
 BYTE   W44
 BYTE   W01
 BYTE   N52  Ds2
 BYTE   W48
 BYTE   W03
//  #06 //042   ----------------------------------------
 BYTE   N96  Gs1
 BYTE   W96
//  #06 //043   ----------------------------------------
 BYTE   N48  Cs2
 BYTE   W48
 BYTE   Ds2
 BYTE   W48
//  #06 //044   ----------------------------------------
 BYTE   W01
 BYTE   N84  Fn1
 BYTE   W92
 BYTE   W03
//  #06 //045   ----------------------------------------
 BYTE   N24
 BYTE   W23
 BYTE   Ds1
 BYTE   W24
 BYTE   W01
 BYTE   N32  Gs1
 BYTE   W48
//  #06 //046   ----------------------------------------
 BYTE   N56
 BYTE   W96
//  #06 //047   ----------------------------------------
 BYTE   W12
 BYTE   N07
 BYTE   W11
 BYTE   N06
 BYTE   W11
 BYTE   N07
 BYTE   W13
 BYTE   N07
 BYTE   W13
 BYTE   N06
 BYTE   W12
 BYTE   N06
 BYTE   W12
 BYTE   N05
 BYTE   W12
//  #06 //048   ----------------------------------------
 BYTE   W96
//  #06 //049   ----------------------------------------
 BYTE   W12
 BYTE   N06
 BYTE   W12
 BYTE   N07
 BYTE   W11
 BYTE   N06
 BYTE   W12
 BYTE   N07
 BYTE   W13
 BYTE   N06
 BYTE   W12
 BYTE   N06
 BYTE   W11
 BYTE   N07
 BYTE   W12
 BYTE   N08
 BYTE   W01
//  #06 //050   ----------------------------------------
 BYTE   W96
//  #06 //051   ----------------------------------------
 BYTE   W96
//  #06 //052   ----------------------------------------
 BYTE   W96
//  #06 //053   ----------------------------------------
 BYTE   W96
//  #06 //054   ----------------------------------------
 BYTE   W96
//  #06 //055   ----------------------------------------
 BYTE   W96
//  #06 //056   ----------------------------------------
 BYTE   W96
//  #06 //057   ----------------------------------------
 BYTE   W96
//  #06 //058   ----------------------------------------
 BYTE   W96
//  #06 //059   ----------------------------------------
 BYTE   W96
//  #06 //060   ----------------------------------------
 BYTE   W96
//  #06 //061   ----------------------------------------
 BYTE   W96
//  #06 //062   ----------------------------------------
 BYTE   W96
//  #06 //063   ----------------------------------------
 BYTE   TIE  Ds5
 BYTE   W01
 BYTE   Cs5
 BYTE   TIE  Gs5
 BYTE   W92
 BYTE   W03
//  #06 //064   ----------------------------------------
 BYTE   W92
 BYTE   W02
 BYTE   EOT
 BYTE   Ds5
 BYTE   W01
 BYTE   Cs5  v092
 BYTE   W01
//  #06 //065   ----------------------------------------
 BYTE   W96
//  #06 //066   ----------------------------------------
 BYTE   W96
//  #06 //067   ----------------------------------------
 BYTE   W96
//  #06 //068   ----------------------------------------
 BYTE   W96
//  #06 //069   ----------------------------------------
 BYTE   W96
//  #06 //070   ----------------------------------------
 BYTE   W96
//  #06 //071   ----------------------------------------
 BYTE   W96
//  #06 //072   ----------------------------------------
 BYTE   W96
//  #06 //073   ----------------------------------------
 BYTE   W96
//  #06 //074   ----------------------------------------
 BYTE   W96
//  #06 //075   ----------------------------------------
 BYTE   W96
//  #06 //076   ----------------------------------------
 BYTE   W96
//  #06 //077   ----------------------------------------
 BYTE   W96
//  #06 //078   ----------------------------------------
 BYTE   W96
//  #06 //079   ----------------------------------------
 BYTE   W96
//  #06 //080   ----------------------------------------
 BYTE   W01
 BYTE   GoTo
  POIN2 Label_0100570A
 BYTE   FINE

//**************** Track 7 (Midi-Chn.6) ****************//

BuddyHolly_007:
//  #07 //000   ----------------------------------------
 BYTE   KEYSH   BuddyHolly_key+0
Label_01006AAA:
 BYTE   VOICE   124
 BYTE   LFOS 44
 BYTE   VOL   36*BuddyHolly_mvl/mxv
 BYTE   PAN   c_v+0
 BYTE   VOL   50*BuddyHolly_mvl/mxv
 BYTE   N05  Cn1  v068
 BYTE   N05  Fs1  v080
 BYTE   N24  En2  v092
 BYTE   W12
 BYTE   N05  Cn1  v064
 BYTE   N05  Fs1
 BYTE   W12
 BYTE   Dn1  v076
 BYTE   N05  Fs1  v088
 BYTE   W12
 BYTE   Cn1  v068
 BYTE   N05  Fs1  v044
 BYTE   W12
 BYTE   Fs1  v080
 BYTE   W12
 BYTE   N12  Cn1  v076
 BYTE   N05  Fs1  v056
 BYTE   W12
 BYTE   Dn1  v068
 BYTE   N05  Fs1  v080
 BYTE   W12
 BYTE   Cn1  v064
 BYTE   N05  Fs1  v060
 BYTE   W12
//  #07 //001   ----------------------------------------
Label_01006AE6:
 BYTE   N05  Cn1  v068
 BYTE   N05  Fs1  v080
 BYTE   W12
 BYTE   Cn1  v064
 BYTE   N05  Fs1
 BYTE   W12
 BYTE   Dn1  v076
 BYTE   N05  Fs1  v088
 BYTE   W12
 BYTE   Cn1  v068
 BYTE   N05  Fs1  v044
 BYTE   W12
 BYTE   Fs1  v080
 BYTE   W12
 BYTE   N12  Cn1  v076
 BYTE   N05  Fs1  v056
 BYTE   W12
 BYTE   Dn1  v068
 BYTE   N05  Fs1  v080
 BYTE   W12
 BYTE   Cn1  v064
 BYTE   N05  Fs1  v060
 BYTE   W12
 BYTE   PEND 
//  #07 //002   ----------------------------------------
Label_01006B15:
 BYTE   N05  Cn1  v076
 BYTE   N05  Fs1  v072
 BYTE   W12
 BYTE   Cn1  v076
 BYTE   N05  Fs1  v044
 BYTE   W12
 BYTE   Dn1  v080
 BYTE   N05  Fs1  v084
 BYTE   W12
 BYTE   Cn1  v068
 BYTE   N05  Fs1  v060
 BYTE   W12
 BYTE   Fs1  v072
 BYTE   W12
 BYTE   N12  Cn1  v068
 BYTE   N05  Fs1  v056
 BYTE   W12
 BYTE   Dn1  v076
 BYTE   N05  Fs1  v084
 BYTE   W12
 BYTE   Cn1  v064
 BYTE   N05  Fs1  v048
 BYTE   W12
 BYTE   PEND 
//  #07 //003   ----------------------------------------
Label_01006B45:
 BYTE   N05  Cn1  v068
 BYTE   N05  Fs1
 BYTE   W12
 BYTE   Cn1  v064
 BYTE   N05  Fs1  v060
 BYTE   W12
 BYTE   Dn1  v072
 BYTE   N05  Fs1  v080
 BYTE   W12
 BYTE   Cn1  v060
 BYTE   N05  Fs1
 BYTE   W12
 BYTE   Cn1  v076
 BYTE   N05  Fs1  v064
 BYTE   W12
 BYTE   Cn1
 BYTE   N05  Fs1  v060
 BYTE   W12
 BYTE   Dn1  v080
 BYTE   N05  Fs1  v076
 BYTE   W12
 BYTE   Cn1  v064
 BYTE   N05  Fs1  v056
 BYTE   W12
 BYTE   PEND 
//  #07 //004   ----------------------------------------
 BYTE   PATT
  POIN2 Label_01006AE6
//  #07 //005   ----------------------------------------
 BYTE   PATT
  POIN2 Label_01006AE6
//  #07 //006   ----------------------------------------
 BYTE   PATT
  POIN2 Label_01006B15
//  #07 //007   ----------------------------------------
 BYTE   PATT
  POIN2 Label_01006B45
//  #07 //008   ----------------------------------------
 BYTE   N03  Fs1  v084
 BYTE   W01
 BYTE   N01  Cn1
 BYTE   W01
 BYTE   N04  Cn1  v064
 BYTE   W10
 BYTE   N03  Fs1
 BYTE   W01
 BYTE   N09  Cn1  v060
 BYTE   W11
 BYTE   N06  Dn1  v084
 BYTE   W01
 BYTE   N04  Fs1
 BYTE   W11
 BYTE   N05  Cn1  v064
 BYTE   W01
 BYTE   N04  Fs1  v056
 BYTE   W12
 BYTE   Fs1  v072
 BYTE   W11
 BYTE   N09  Cn1  v064
 BYTE   W01
 BYTE   N03  Fs1  v072
 BYTE   W11
 BYTE   N06  Dn1  v084
 BYTE   W02
 BYTE   N04  Fs1  v076
 BYTE   W11
 BYTE   Cn1  v072
 BYTE   N04  Fs1  v064
 BYTE   W11
//  #07 //009   ----------------------------------------
Label_01006BC2:
 BYTE   N01  Fs1  v076
 BYTE   W01
 BYTE   N04  Cn1  v044
 BYTE   N03  Fs1  v072
 BYTE   W11
 BYTE   N04  Fs1  v064
 BYTE   W01
 BYTE   N09  Cn1  v048
 BYTE   W12
 BYTE   Dn1  v072
 BYTE   N04  Fs1  v084
 BYTE   W11
 BYTE   N09  Cn1  v056
 BYTE   N04  Fs1  v064
 BYTE   W13
 BYTE   N08  Dn1  v072
 BYTE   N04  Fs1  v084
 BYTE   W12
 BYTE   N09  Cn1  v080
 BYTE   N04  Fs1  v076
 BYTE   W12
 BYTE   Dn1
 BYTE   N04  Fs1  v084
 BYTE   W12
 BYTE   N08  Dn1  v072
 BYTE   N04  Fs1  v092
 BYTE   W11
 BYTE   PEND 
//  #07 //010   ----------------------------------------
Label_01006BFD:
 BYTE   N05  Cn1  v080
 BYTE   N05  Fs1  v092
 BYTE   W12
 BYTE   N08  Cn1  v060
 BYTE   W01
 BYTE   N05  Fs1  v072
 BYTE   W11
 BYTE   N09  Dn1  v076
 BYTE   W01
 BYTE   N05  Ds2  v088
 BYTE   W10
 BYTE   N04  Fs1  v064
 BYTE   W13
 BYTE   Fs1  v068
 BYTE   W12
 BYTE   N08  Cn1  v076
 BYTE   N03  Fs1
 BYTE   W12
 BYTE   N05  Ds2  v080
 BYTE   W01
 BYTE   N08  Dn1  v068
 BYTE   W11
 BYTE   N04  Cn1  v060
 BYTE   N03  Fs1  v064
 BYTE   W12
 BYTE   PEND 
//  #07 //011   ----------------------------------------
Label_01006C31:
 BYTE   N06  Cn1  v064
 BYTE   N04  Fs1  v080
 BYTE   W12
 BYTE   N05  Fs1  v084
 BYTE   W01
 BYTE   N09  Cn1  v060
 BYTE   W11
 BYTE   N05  Ds2  v084
 BYTE   W01
 BYTE   N08  Dn1  v060
 BYTE   W11
 BYTE   N06  Cn1  v064
 BYTE   N03  Fs1  v076
 BYTE   W12
 BYTE   N04  Cn1  v048
 BYTE   N04  Fs1  v080
 BYTE   W11
 BYTE   N07  Cn1  v052
 BYTE   W01
 BYTE   N04  Fs1  v084
 BYTE   W11
 BYTE   N07  Dn1  v072
 BYTE   W01
 BYTE   N05  Ds2  v084
 BYTE   W10
 BYTE   Cn1  v040
 BYTE   W02
 BYTE   N03  Fs1  v076
 BYTE   W12
 BYTE   PEND 
//  #07 //012   ----------------------------------------
Label_01006C6E:
 BYTE   W01
 BYTE   N05  Cn1  v068
 BYTE   N04  Fs1  v076
 BYTE   W11
 BYTE   N07  Cn1  v056
 BYTE   N03  Fs1  v076
 BYTE   W12
 BYTE   N04  Ds2
 BYTE   W01
 BYTE   N08  Dn1  v068
 BYTE   N03  Fs1
 BYTE   W11
 BYTE   N01  Fs1  v076
 BYTE   W01
 BYTE   N08  Cn1  v068
 BYTE   N03  Fs1  v056
 BYTE   W11
 BYTE   N04  Fs1  v088
 BYTE   W12
 BYTE   Fs1  v084
 BYTE   W01
 BYTE   N08  Cn1  v064
 BYTE   W11
 BYTE   Dn1  v068
 BYTE   N04  Ds2  v084
 BYTE   W11
 BYTE   N05  Cn1  v056
 BYTE   W01
 BYTE   N04  Fs1  v064
 BYTE   W12
 BYTE   PEND 
//  #07 //013   ----------------------------------------
 BYTE   Fs1  v072
 BYTE   W01
 BYTE   N02  Cn1  v020
 BYTE   N01  Dn1  v016
 BYTE   W11
 BYTE   N04  Cn1  v052
 BYTE   W01
 BYTE   N05  Fs1  v056
 BYTE   W12
 BYTE   N04  Cn1  v036
 BYTE   N04  Dn1  v056
 BYTE   N05  Ds2  v072
 BYTE   W12
 BYTE   N04  Cn1  v044
 BYTE   N04  Dn1
 BYTE   N04  Fs1  v064
 BYTE   W11
 BYTE   Cn1  v068
 BYTE   N04  Dn1  v052
 BYTE   W01
 BYTE   Fs1  v064
 BYTE   W11
 BYTE   N05  Cn1
 BYTE   W01
 BYTE   N04  Dn1  v060
 BYTE   N04  Fs1  v064
 BYTE   W11
 BYTE   N05  Cn1  v076
 BYTE   N04  Dn1  v056
 BYTE   W01
 BYTE   Fs1  v068
 BYTE   W10
 BYTE   N05  Dn1  v056
 BYTE   W01
 BYTE   Cn1  v068
 BYTE   W01
 BYTE   N04  Fs1
 BYTE   W11
//  #07 //014   ----------------------------------------
 BYTE   PATT
  POIN2 Label_01006AE6
//  #07 //015   ----------------------------------------
 BYTE   PATT
  POIN2 Label_01006AE6
//  #07 //016   ----------------------------------------
 BYTE   PATT
  POIN2 Label_01006B15
//  #07 //017   ----------------------------------------
 BYTE   PATT
  POIN2 Label_01006B45
//  #07 //018   ----------------------------------------
 BYTE   PATT
  POIN2 Label_01006AE6
//  #07 //019   ----------------------------------------
 BYTE   PATT
  POIN2 Label_01006AE6
//  #07 //020   ----------------------------------------
 BYTE   PATT
  POIN2 Label_01006B15
//  #07 //021   ----------------------------------------
 BYTE   N05  Cn1  v068
 BYTE   N05  Fs1
 BYTE   W12
 BYTE   Cn1  v064
 BYTE   N05  Fs1  v060
 BYTE   W12
 BYTE   Fs1  v080
 BYTE   W12
 BYTE   Cn1  v060
 BYTE   N05  Fs1
 BYTE   W12
 BYTE   Cn1  v076
 BYTE   N05  Fs1  v064
 BYTE   W12
 BYTE   Cn1
 BYTE   N05  Fs1  v060
 BYTE   W12
 BYTE   Fs1  v076
 BYTE   W12
 BYTE   Cn1  v064
 BYTE   N05  Fs1  v056
 BYTE   W12
//  #07 //022   ----------------------------------------
 BYTE   PATT
  POIN2 Label_01006AE6
//  #07 //023   ----------------------------------------
 BYTE   PATT
  POIN2 Label_01006AE6
//  #07 //024   ----------------------------------------
 BYTE   PATT
  POIN2 Label_01006B15
//  #07 //025   ----------------------------------------
 BYTE   PATT
  POIN2 Label_01006B45
//  #07 //026   ----------------------------------------
 BYTE   PATT
  POIN2 Label_01006AE6
//  #07 //027   ----------------------------------------
 BYTE   PATT
  POIN2 Label_01006AE6
//  #07 //028   ----------------------------------------
 BYTE   PATT
  POIN2 Label_01006B15
//  #07 //029   ----------------------------------------
 BYTE   PATT
  POIN2 Label_01006B45
//  #07 //030   ----------------------------------------
 BYTE   PATT
  POIN2 Label_01006AE6
//  #07 //031   ----------------------------------------
 BYTE   PATT
  POIN2 Label_01006AE6
//  #07 //032   ----------------------------------------
 BYTE   PATT
  POIN2 Label_01006B15
//  #07 //033   ----------------------------------------
 BYTE   PATT
  POIN2 Label_01006B45
//  #07 //034   ----------------------------------------
 BYTE   N03  Fs1  v084
 BYTE   W01
 BYTE   N01  Cn1
 BYTE   W01
 BYTE   N04  Cn1  v064
 BYTE   W10
 BYTE   N03  Fs1
 BYTE   W01
 BYTE   N09  Cn1  v060
 BYTE   W12
 BYTE   N05  Dn1  v076
 BYTE   N04  Fs1  v084
 BYTE   W11
 BYTE   N05  Cn1  v064
 BYTE   W01
 BYTE   N04  Fs1  v056
 BYTE   W12
 BYTE   Fs1  v072
 BYTE   W11
 BYTE   N09  Cn1  v064
 BYTE   W01
 BYTE   N03  Fs1  v072
 BYTE   W12
 BYTE   N09  Dn1  v076
 BYTE   W01
 BYTE   N04  Fs1
 BYTE   W11
 BYTE   Cn1  v072
 BYTE   N04  Fs1  v064
 BYTE   W11
//  #07 //035   ----------------------------------------
 BYTE   PATT
  POIN2 Label_01006BC2
//  #07 //036   ----------------------------------------
 BYTE   PATT
  POIN2 Label_01006BFD
//  #07 //037   ----------------------------------------
 BYTE   PATT
  POIN2 Label_01006C31
//  #07 //038   ----------------------------------------
 BYTE   PATT
  POIN2 Label_01006C6E
//  #07 //039   ----------------------------------------
 BYTE   N04  Fs1  v084
 BYTE   W13
 BYTE   N05  Fs1  v064
 BYTE   W12
 BYTE   Ds2  v084
 BYTE   W12
 BYTE   N04  Fs1  v076
 BYTE   W12
 BYTE   Fs1  v080
 BYTE   W12
 BYTE   Fs1  v076
 BYTE   W12
 BYTE   Fs1  v084
 BYTE   W12
 BYTE   N04
 BYTE   W11
//  #07 //040   ----------------------------------------
 BYTE   PATT
  POIN2 Label_01006AE6
//  #07 //041   ----------------------------------------
 BYTE   PATT
  POIN2 Label_01006AE6
//  #07 //042   ----------------------------------------
 BYTE   PATT
  POIN2 Label_01006B15
//  #07 //043   ----------------------------------------
 BYTE   PATT
  POIN2 Label_01006B45
//  #07 //044   ----------------------------------------
 BYTE   PATT
  POIN2 Label_01006AE6
//  #07 //045   ----------------------------------------
 BYTE   PATT
  POIN2 Label_01006AE6
//  #07 //046   ----------------------------------------
 BYTE   PATT
  POIN2 Label_01006B15
//  #07 //047   ----------------------------------------
 BYTE   W96
//  #07 //048   ----------------------------------------
 BYTE   PATT
  POIN2 Label_01006B15
//  #07 //049   ----------------------------------------
 BYTE   W96
//  #07 //050   ----------------------------------------
Label_01006E0F:
 BYTE   N09  Cn1  v088
 BYTE   N24  Ds2
 BYTE   W24
 BYTE   N09  En1  v084
 BYTE   N12  Ds2  v092
 BYTE   W24
 BYTE   N05  Cn1  v080
 BYTE   W01
 BYTE   N12  Ds2  v092
 BYTE   W11
 BYTE   N07  Cn1  v060
 BYTE   W12
 BYTE   N09  En1  v088
 BYTE   W01
 BYTE   N11  Ds2  v092
 BYTE   W23
 BYTE   PEND 
//  #07 //051   ----------------------------------------
Label_01006E31:
 BYTE   N13  Ds2  v096
 BYTE   W01
 BYTE   N06  Cn1  v076
 BYTE   W12
 BYTE   Cn1  v056
 BYTE   W11
 BYTE   N13  Ds2  v096
 BYTE   W01
 BYTE   N07  En1  v084
 BYTE   W24
 BYTE   N11  Ds2  v100
 BYTE   W11
 BYTE   N05  Cn1  v064
 BYTE   W12
 BYTE   N07  En1  v084
 BYTE   W01
 BYTE   N11  Ds2  v104
 BYTE   W22
 BYTE   N01  Cn1  v088
 BYTE   W01
 BYTE   PEND 
//  #07 //052   ----------------------------------------
Label_01006E59:
 BYTE   N07  Cn1  v084
 BYTE   N11  Ds2  v100
 BYTE   W24
 BYTE   N06  En1  v088
 BYTE   N11  Ds2  v096
 BYTE   W24
 BYTE   N11
 BYTE   W01
 BYTE   N05  Cn1  v088
 BYTE   W10
 BYTE   N01  Cn1  v076
 BYTE   W01
 BYTE   N04  Cn1  v064
 BYTE   W12
 BYTE   N06  En1  v084
 BYTE   N12  Ds2  v096
 BYTE   W01
 BYTE   N08  Ds1  v088
 BYTE   W23
 BYTE   PEND 
//  #07 //053   ----------------------------------------
Label_01006E81:
 BYTE   W01
 BYTE   N05  Cn1  v076
 BYTE   N10  Ds2  v096
 BYTE   W11
 BYTE   N07  Cn1  v056
 BYTE   W12
 BYTE   N06  En1  v084
 BYTE   W01
 BYTE   N10  Ds2  v096
 BYTE   W11
 BYTE   N07  Cn1  v056
 BYTE   W12
 BYTE   N11  Ds2  v096
 BYTE   W12
 BYTE   N06  Cn1  v044
 BYTE   W12
 BYTE   N09  Ds2  v104
 BYTE   W01
 BYTE   N08  En1  v088
 BYTE   W23
 BYTE   PEND 
//  #07 //054   ----------------------------------------
 BYTE   PATT
  POIN2 Label_01006E0F
//  #07 //055   ----------------------------------------
 BYTE   PATT
  POIN2 Label_01006E31
//  #07 //056   ----------------------------------------
 BYTE   PATT
  POIN2 Label_01006E59
//  #07 //057   ----------------------------------------
 BYTE   PATT
  POIN2 Label_01006E81
//  #07 //058   ----------------------------------------
 BYTE   N05  Cn1  v088
 BYTE   N05  Fs1  v084
 BYTE   N05  Ds2  v088
 BYTE   N24  An2
 BYTE   W12
 BYTE   N05  Fs1  v040
 BYTE   N05  Ds2  v072
 BYTE   W12
 BYTE   Dn1
 BYTE   N05  Fs1  v080
 BYTE   N05  Ds2  v068
 BYTE   W12
 BYTE   Fs1  v080
 BYTE   N05  Ds2  v076
 BYTE   W12
 BYTE   Cn1
 BYTE   N05  Fs1  v068
 BYTE   N05  Ds2  v072
 BYTE   W12
 BYTE   Cn1
 BYTE   N05  Fs1  v080
 BYTE   N05  Ds2  v064
 BYTE   W12
 BYTE   Dn1  v072
 BYTE   N05  Fs1  v080
 BYTE   N05  Ds2  v060
 BYTE   W12
 BYTE   Fs1  v064
 BYTE   N05  Ds2  v060
 BYTE   W12
//  #07 //059   ----------------------------------------
 BYTE   Cn1  v088
 BYTE   N05  Fs1  v076
 BYTE   N05  Cs2  v088
 BYTE   W12
 BYTE   Fs1  v068
 BYTE   N05  Ds2  v060
 BYTE   W12
 BYTE   Dn1  v072
 BYTE   N05  Fs1  v080
 BYTE   N05  Ds2  v072
 BYTE   W12
 BYTE   N09  Cn1  v084
 BYTE   N05  Fs1  v060
 BYTE   N05  Cs2  v088
 BYTE   W12
 BYTE   Cn1  v076
 BYTE   N05  Fs1
 BYTE   W06
 BYTE   Cs2  v016
 BYTE   W06
 BYTE   Cn1  v072
 BYTE   N05  Fs1  v056
 BYTE   N05  Ds2  v084
 BYTE   W12
 BYTE   Dn1  v072
 BYTE   N05  Fs1  v088
 BYTE   N05  Ds2  v084
 BYTE   W12
 BYTE   Fs1  v072
 BYTE   N05  Ds2  v076
 BYTE   W12
//  #07 //060   ----------------------------------------
 BYTE   Cn1  v084
 BYTE   N05  Fs1  v072
 BYTE   N05  Ds2  v080
 BYTE   W12
 BYTE   Cn1  v044
 BYTE   N05  Fs1  v072
 BYTE   N05  Ds2  v084
 BYTE   W12
 BYTE   Dn1  v072
 BYTE   N05  Fs1  v076
 BYTE   N05  Ds2
 BYTE   W12
 BYTE   Fs1  v064
 BYTE   N05  Ds2  v060
 BYTE   W12
 BYTE   Cn1  v076
 BYTE   N05  Fs1  v072
 BYTE   N05  Ds2  v068
 BYTE   W12
 BYTE   Cn1  v056
 BYTE   N05  Fs1  v052
 BYTE   N05  Ds2  v060
 BYTE   W12
 BYTE   Dn1  v064
 BYTE   N05  Fs1  v068
 BYTE   N05  Ds2  v064
 BYTE   W12
 BYTE   Fs1  v056
 BYTE   N05  Ds2  v060
 BYTE   W12
//  #07 //061   ----------------------------------------
 BYTE   Cn1  v084
 BYTE   N05  Fs1  v056
 BYTE   N05  Ds2  v072
 BYTE   W12
 BYTE   Cn1  v040
 BYTE   N05  Fs1  v044
 BYTE   N05  Ds2  v060
 BYTE   W12
 BYTE   Dn1  v072
 BYTE   N05  Fs1  v076
 BYTE   N05  Ds2  v044
 BYTE   W12
 BYTE   Cn1  v092
 BYTE   N05  Fs1  v044
 BYTE   N05  Cs2  v104
 BYTE   W12
 BYTE   Fs1  v052
 BYTE   W12
 BYTE   Cn1  v084
 BYTE   N05  Fs1  v052
 BYTE   N05  Ds2  v076
 BYTE   W12
 BYTE   Dn1
 BYTE   N05  Fs1  v080
 BYTE   N05  Ds2  v056
 BYTE   W12
 BYTE   Cn1  v060
 BYTE   N05  Fs1  v052
 BYTE   N05  Ds2  v064
 BYTE   W12
//  #07 //062   ----------------------------------------
 BYTE   Cn1  v084
 BYTE   N05  Fs1
 BYTE   N05  Ds2  v060
 BYTE   W12
 BYTE   Cn1  v056
 BYTE   N05  Fs1  v060
 BYTE   N05  Ds2
 BYTE   W12
 BYTE   Dn1  v076
 BYTE   N05  Fs1  v080
 BYTE   N05  Ds2  v060
 BYTE   W12
 BYTE   Cn1  v064
 BYTE   N05  Fs1  v056
 BYTE   N05  Ds2
 BYTE   W12
 BYTE   Fs1  v072
 BYTE   N05  Ds2  v052
 BYTE   W12
 BYTE   Cn1  v088
 BYTE   N05  Fs1  v068
 BYTE   N05  Ds2  v056
 BYTE   W12
 BYTE   Dn1  v068
 BYTE   N05  Fs1  v084
 BYTE   N05  Ds2  v064
 BYTE   W12
 BYTE   Cn1  v076
 BYTE   N05  Fs1  v060
 BYTE   N05  Ds2  v080
 BYTE   W12
//  #07 //063   ----------------------------------------
 BYTE   Cn1  v084
 BYTE   N05  Fs1  v080
 BYTE   N05  Cs2  v088
 BYTE   W12
 BYTE   Cn1  v056
 BYTE   N05  Fs1  v060
 BYTE   N05  Ds2  v048
 BYTE   W12
 BYTE   Dn1  v060
 BYTE   N05  Fs1  v076
 BYTE   W12
 BYTE   Cn1
 BYTE   N05  Fs1
 BYTE   N05  Ds2  v060
 BYTE   W12
 BYTE   Cn1  v056
 BYTE   N05  Fs1  v080
 BYTE   N05  Ds2  v060
 BYTE   W12
 BYTE   Cn1
 BYTE   N05  Fs1  v072
 BYTE   N05  Ds2  v060
 BYTE   W12
 BYTE   Dn1  v068
 BYTE   N05  Fs1
 BYTE   N05  Ds2  v056
 BYTE   W12
 BYTE   Cn1  v068
 BYTE   N05  Fs1  v072
 BYTE   N05  Ds2  v084
 BYTE   W12
//  #07 //064   ----------------------------------------
 BYTE   Cn1  v048
 BYTE   N05  Dn1  v040
 BYTE   N05  Fs1  v052
 BYTE   N05  Bn1  v056
 BYTE   W12
 BYTE   Cn1  v048
 BYTE   N05  Dn1  v040
 BYTE   N05  Bn1  v056
 BYTE   W12
 BYTE   Cn1  v052
 BYTE   N05  Dn1  v044
 BYTE   N05  An1  v060
 BYTE   W12
 BYTE   Cn1  v056
 BYTE   N05  Dn1  v044
 BYTE   N05  An1  v060
 BYTE   W12
 BYTE   Cn1
 BYTE   N05  Dn1  v044
 BYTE   N05  Gn1  v064
 BYTE   W12
 BYTE   Cn1  v056
 BYTE   N05  Dn1  v044
 BYTE   N05  Gn1  v060
 BYTE   W12
 BYTE   Cn1
 BYTE   N05  Dn1  v048
 BYTE   N05  Gn1  v056
 BYTE   W12
 BYTE   Cn1
 BYTE   N05  Dn1  v044
 BYTE   N05  Gn1  v060
 BYTE   W12
//  #07 //065   ----------------------------------------
 BYTE   N12  Cn1  v064
 BYTE   N12  Dn1  v052
 BYTE   N13  Cs2  v072
 BYTE   W72
 BYTE   W01
 BYTE   N11  Dn1  v068
 BYTE   W23
//  #07 //066   ----------------------------------------
 BYTE   PATT
  POIN2 Label_01006AE6
//  #07 //067   ----------------------------------------
 BYTE   PATT
  POIN2 Label_01006AE6
//  #07 //068   ----------------------------------------
 BYTE   PATT
  POIN2 Label_01006B15
//  #07 //069   ----------------------------------------
 BYTE   PATT
  POIN2 Label_01006B45
//  #07 //070   ----------------------------------------
 BYTE   PATT
  POIN2 Label_01006AE6
//  #07 //071   ----------------------------------------
 BYTE   PATT
  POIN2 Label_01006AE6
//  #07 //072   ----------------------------------------
 BYTE   PATT
  POIN2 Label_01006B15
//  #07 //073   ----------------------------------------
 BYTE   PATT
  POIN2 Label_01006B45
//  #07 //074   ----------------------------------------
 BYTE   PATT
  POIN2 Label_01006B15
//  #07 //075   ----------------------------------------
 BYTE   PATT
  POIN2 Label_01006B45
//  #07 //076   ----------------------------------------
 BYTE   PATT
  POIN2 Label_01006B15
//  #07 //077   ----------------------------------------
 BYTE   PATT
  POIN2 Label_01006B45
//  #07 //078   ----------------------------------------
 BYTE   PATT
  POIN2 Label_01006B15
//  #07 //079   ----------------------------------------
 BYTE   W02
 BYTE   N04  Cn1  v056
 BYTE   N05  Dn1  v052
 BYTE   N05  Bn1  v060
 BYTE   W11
 BYTE   Cn1  v072
 BYTE   N05  Dn1  v052
 BYTE   N05  Bn1  v080
 BYTE   W12
 BYTE   N06  Cn1  v068
 BYTE   N05  Dn1  v056
 BYTE   N05  Bn1  v080
 BYTE   W12
 BYTE   Cn1  v068
 BYTE   N05  Dn1  v052
 BYTE   N05  An1  v076
 BYTE   W12
 BYTE   N06  Cn1  v064
 BYTE   N05  An1  v056
 BYTE   N03  Bn1  v060
 BYTE   W01
 BYTE   N05  Dn1  v052
 BYTE   W11
 BYTE   Cn1  v064
 BYTE   N05  Dn1  v056
 BYTE   N04  An1  v080
 BYTE   W13
 BYTE   N08  Cn1  v088
 BYTE   N08  Dn1  v076
 BYTE   N08  An1  v100
 BYTE   W22
//  #07 //080   ----------------------------------------
 BYTE   W01
 BYTE   GoTo
  POIN2 Label_01006AAA
 BYTE   FINE

//**************** Track 8 (Midi-Chn.7) ****************//

BuddyHolly_008:
//  #08 //000   ----------------------------------------
 BYTE   VOL   55*BuddyHolly_mvl/mxv
 BYTE   KEYSH   BuddyHolly_key+0
Label_01005230:
 BYTE   VOICE   124
 BYTE   LFOS 44
 BYTE   W96
//  #08 //001   ----------------------------------------
 BYTE   W96
//  #08 //002   ----------------------------------------
 BYTE   W96
//  #08 //003   ----------------------------------------
 BYTE   W96
//  #08 //004   ----------------------------------------
 BYTE   W96
//  #08 //005   ----------------------------------------
 BYTE   W96
//  #08 //006   ----------------------------------------
 BYTE   W96
//  #08 //007   ----------------------------------------
 BYTE   W96
//  #08 //008   ----------------------------------------
 BYTE   W96
//  #08 //009   ----------------------------------------
 BYTE   W96
//  #08 //010   ----------------------------------------
 BYTE   W96
//  #08 //011   ----------------------------------------
 BYTE   W96
//  #08 //012   ----------------------------------------
 BYTE   W96
//  #08 //013   ----------------------------------------
 BYTE   W01
 BYTE   N04  Cn1  v040
 BYTE   W01
 BYTE   Dn1  v012
 BYTE   N03  En1  v024
 BYTE   N04  Bn1  v048
 BYTE   W10
 BYTE   Cn1  v044
 BYTE   N05  Dn1  v024
 BYTE   N05  Bn1  v056
 BYTE   W13
 BYTE   N04  Cn1  v052
 BYTE   N04  Dn1  v028
 BYTE   N05  An1  v056
 BYTE   W11
 BYTE   Cn1  v048
 BYTE   N05  Dn1  v024
 BYTE   N05  An1  v056
 BYTE   W13
 BYTE   Cn1  v048
 BYTE   N05  Dn1  v028
 BYTE   N05  Gn1  v064
 BYTE   W11
 BYTE   Cn1  v048
 BYTE   N05  Dn1  v024
 BYTE   W01
 BYTE   Gn1  v060
 BYTE   W11
 BYTE   Cn1  v052
 BYTE   N05  Dn1  v028
 BYTE   N05  Gn1  v060
 BYTE   W11
 BYTE   N06
 BYTE   W01
 BYTE   N05  Cn1
 BYTE   N05  Dn1  v032
 BYTE   W12
//  #08 //014   ----------------------------------------
Label_0100528E:
 BYTE   N16  Cs2  v096
 BYTE   W24
 BYTE   W01
 BYTE   N14  Ds2  v076
 BYTE   W22
 BYTE   N08
 BYTE   W13
 BYTE   N05  Ds2  v036
 BYTE   W12
 BYTE   N06  Ds2  v056
 BYTE   W12
 BYTE   Ds2  v032
 BYTE   W12
 BYTE   PEND 
//  #08 //015   ----------------------------------------
Label_010052A5:
 BYTE   N06  Ds2  v044
 BYTE   W12
 BYTE   N05  Ds2  v040
 BYTE   W12
 BYTE   Ds2  v048
 BYTE   W12
 BYTE   Ds2  v052
 BYTE   W12
 BYTE   N04  Ds2  v044
 BYTE   W12
 BYTE   Ds2  v060
 BYTE   W12
 BYTE   N03  Ds2  v044
 BYTE   W12
 BYTE   N04  Ds2  v064
 BYTE   W12
 BYTE   PEND 
//  #08 //016   ----------------------------------------
Label_010052C3:
 BYTE   N24  Cs2  v088
 BYTE   N04  Ds2  v076
 BYTE   W12
 BYTE   N05  Ds2  v052
 BYTE   W13
 BYTE   N04  Ds2  v064
 BYTE   W11
 BYTE   N05  Ds2  v056
 BYTE   W12
 BYTE   Ds2  v060
 BYTE   W13
 BYTE   N04
 BYTE   W11
 BYTE   N05  Ds2  v052
 BYTE   W12
 BYTE   N04
 BYTE   W12
 BYTE   PEND 
//  #08 //017   ----------------------------------------
Label_010052E2:
 BYTE   N04  Ds2  v060
 BYTE   W12
 BYTE   Ds2  v052
 BYTE   W13
 BYTE   N04
 BYTE   W11
 BYTE   Ds2  v048
 BYTE   W12
 BYTE   Ds2  v056
 BYTE   W11
 BYTE   Ds2  v052
 BYTE   W13
 BYTE   N04
 BYTE   W12
 BYTE   Ds2  v056
 BYTE   W12
 BYTE   PEND 
//  #08 //018   ----------------------------------------
Label_010052FA:
 BYTE   W01
 BYTE   N02  Cs2  v080
 BYTE   N04  Ds2
 BYTE   W12
 BYTE   N03  Ds2  v044
 BYTE   W12
 BYTE   N05  Ds2  v056
 BYTE   W11
 BYTE   N04  Ds2  v048
 BYTE   W13
 BYTE   N05  Ds2  v056
 BYTE   W12
 BYTE   N04  Ds2  v044
 BYTE   W12
 BYTE   N05  Ds2  v060
 BYTE   W12
 BYTE   N04  Ds2  v052
 BYTE   W11
 BYTE   PEND 
//  #08 //019   ----------------------------------------
Label_0100531E:
 BYTE   W02
 BYTE   N01  Cs2  v048
 BYTE   N05  Ds2  v080
 BYTE   W10
 BYTE   N04  Ds2  v060
 BYTE   W12
 BYTE   Ds2  v056
 BYTE   W13
 BYTE   Ds2  v048
 BYTE   W11
 BYTE   N05  Ds2  v056
 BYTE   W12
 BYTE   Ds2  v052
 BYTE   W12
 BYTE   Ds2  v056
 BYTE   W12
 BYTE   N04  Ds2  v048
 BYTE   W12
 BYTE   PEND 
//  #08 //020   ----------------------------------------
Label_0100533F:
 BYTE   N04  Ds2  v060
 BYTE   W01
 BYTE   N03  Cs2  v056
 BYTE   W10
 BYTE   N04  Ds2  v052
 BYTE   W13
 BYTE   N05
 BYTE   W12
 BYTE   Ds2  v048
 BYTE   W12
 BYTE   N05
 BYTE   W12
 BYTE   Ds2  v044
 BYTE   W12
 BYTE   N05
 BYTE   W12
 BYTE   N04  Ds2  v040
 BYTE   W12
 BYTE   PEND 
//  #08 //021   ----------------------------------------
 BYTE   Ds2  v032
 BYTE   W01
 BYTE   Cn1  v052
 BYTE   W01
 BYTE   Dn1  v012
 BYTE   N03  En1  v032
 BYTE   N04  Bn1  v064
 BYTE   W09
 BYTE   Ds2  v052
 BYTE   W01
 BYTE   Cn1  v056
 BYTE   N01  Dn1  v024
 BYTE   N02  An1  v044
 BYTE   N03  Bn1  v076
 BYTE   W01
 BYTE   Dn1  v020
 BYTE   W10
 BYTE   N04  Bn1  v064
 BYTE   N05  Ds2  v060
 BYTE   W01
 BYTE   N01  Dn1  v024
 BYTE   W01
 BYTE   N04  Cn1  v068
 BYTE   N03  Dn1  v024
 BYTE   N05  An1  v076
 BYTE   W10
 BYTE   Ds2  v064
 BYTE   W01
 BYTE   Cn1
 BYTE   N04  Dn1  v024
 BYTE   N05  An1  v076
 BYTE   N04  Bn1
 BYTE   W12
 BYTE   Ds2  v064
 BYTE   W01
 BYTE   N05  Cn1
 BYTE   N04  Dn1  v024
 BYTE   N05  Gn1  v084
 BYTE   N03  Bn1  v080
 BYTE   W11
 BYTE   N05  Cn1  v064
 BYTE   N04  Dn1  v024
 BYTE   N03  Bn1  v076
 BYTE   N04  Ds2  v072
 BYTE   W01
 BYTE   N05  Gn1  v080
 BYTE   W11
 BYTE   Cn1  v068
 BYTE   N05  Dn1  v032
 BYTE   N05  Gn1  v080
 BYTE   N04  Bn1  v076
 BYTE   N04  Ds2  v064
 BYTE   W11
 BYTE   N06  Gn1  v080
 BYTE   W01
 BYTE   N05  Cn1
 BYTE   N05  Dn1  v028
 BYTE   N05  Bn1  v076
 BYTE   N05  Ds2  v084
 BYTE   W12
//  #08 //022   ----------------------------------------
 BYTE   PATT
  POIN2 Label_0100528E
//  #08 //023   ----------------------------------------
 BYTE   W96
//  #08 //024   ----------------------------------------
 BYTE   W96
//  #08 //025   ----------------------------------------
 BYTE   W96
//  #08 //026   ----------------------------------------
 BYTE   W24
 BYTE   N30  Ds2  v088
 BYTE   W44
 BYTE   W03
 BYTE   N32  Ds2  v080
 BYTE   W24
 BYTE   W01
//  #08 //027   ----------------------------------------
 BYTE   W24
 BYTE   N12  Ds2  v076
 BYTE   W24
 BYTE   N10  Ds2  v072
 BYTE   W24
 BYTE   W01
 BYTE   N09  Ds2  v084
 BYTE   W23
//  #08 //028   ----------------------------------------
 BYTE   Cs2  v068
 BYTE   W72
 BYTE   N32  Ds2  v064
 BYTE   W24
//  #08 //029   ----------------------------------------
 BYTE   W24
 BYTE   N11  Ds2  v056
 BYTE   W24
 BYTE   Ds2  v052
 BYTE   W24
 BYTE   N10  Ds2  v072
 BYTE   W24
//  #08 //030   ----------------------------------------
 BYTE   W24
 BYTE   N16  Cs2
 BYTE   W48
 BYTE   W01
 BYTE   N32  Ds2  v068
 BYTE   W23
//  #08 //031   ----------------------------------------
 BYTE   W24
 BYTE   W01
 BYTE   N11  Ds2  v072
 BYTE   W23
 BYTE   N10
 BYTE   W24
 BYTE   W01
 BYTE   N11  Ds2  v084
 BYTE   W23
//  #08 //032   ----------------------------------------
 BYTE   W24
 BYTE   N16  Cs2  v064
 BYTE   W48
 BYTE   N13  Ds2
 BYTE   W24
//  #08 //033   ----------------------------------------
 BYTE   N12  Ds2  v076
 BYTE   W24
 BYTE   N13
 BYTE   W24
 BYTE   W01
 BYTE   N06  Ds2  v088
 BYTE   W12
 BYTE   N05  Ds2  v056
 BYTE   W12
 BYTE   Ds2  v084
 BYTE   W11
 BYTE   N05
 BYTE   W12
//  #08 //034   ----------------------------------------
 BYTE   W96
//  #08 //035   ----------------------------------------
 BYTE   W96
//  #08 //036   ----------------------------------------
 BYTE   W96
//  #08 //037   ----------------------------------------
 BYTE   W96
//  #08 //038   ----------------------------------------
 BYTE   W96
//  #08 //039   ----------------------------------------
 BYTE   W02
 BYTE   N03  En1  v032
 BYTE   N04  Bn1  v064
 BYTE   W10
 BYTE   Cn1  v056
 BYTE   N05  Dn1  v032
 BYTE   N05  Bn1  v076
 BYTE   W13
 BYTE   N04  Cn1  v068
 BYTE   N04  Dn1  v036
 BYTE   N05  An1  v076
 BYTE   W11
 BYTE   Cn1  v064
 BYTE   N05  Dn1  v036
 BYTE   N05  An1  v076
 BYTE   W13
 BYTE   Cn1  v064
 BYTE   N05  Dn1  v036
 BYTE   N05  Gn1  v084
 BYTE   W11
 BYTE   Cn1  v064
 BYTE   N05  Dn1  v032
 BYTE   W01
 BYTE   Gn1  v080
 BYTE   W11
 BYTE   Cn1  v068
 BYTE   N05  Dn1  v036
 BYTE   N05  Gn1  v080
 BYTE   W11
 BYTE   N06
 BYTE   W01
 BYTE   N05  Cn1
 BYTE   N05  Dn1  v044
 BYTE   W12
//  #08 //040   ----------------------------------------
 BYTE   PATT
  POIN2 Label_0100528E
//  #08 //041   ----------------------------------------
 BYTE   PATT
  POIN2 Label_010052A5
//  #08 //042   ----------------------------------------
 BYTE   PATT
  POIN2 Label_010052C3
//  #08 //043   ----------------------------------------
 BYTE   PATT
  POIN2 Label_010052E2
//  #08 //044   ----------------------------------------
 BYTE   PATT
  POIN2 Label_010052FA
//  #08 //045   ----------------------------------------
 BYTE   PATT
  POIN2 Label_0100531E
//  #08 //046   ----------------------------------------
 BYTE   PATT
  POIN2 Label_0100533F
//  #08 //047   ----------------------------------------
Label_010054B3:
 BYTE   N04  Ds2  v032
 BYTE   W01
 BYTE   Cn1  v052
 BYTE   W01
 BYTE   Dn1  v016
 BYTE   N03  En1  v032
 BYTE   N04  Bn1  v064
 BYTE   W09
 BYTE   Ds2  v052
 BYTE   W01
 BYTE   Cn1  v056
 BYTE   N01  Dn1  v032
 BYTE   N02  An1  v044
 BYTE   N03  Bn1  v076
 BYTE   W01
 BYTE   Dn1  v032
 BYTE   W10
 BYTE   N04  Bn1  v064
 BYTE   N05  Ds2  v060
 BYTE   W01
 BYTE   N01  Dn1  v036
 BYTE   W01
 BYTE   N04  Cn1  v068
 BYTE   N03  Dn1  v036
 BYTE   N05  An1  v076
 BYTE   W10
 BYTE   Ds2  v064
 BYTE   W01
 BYTE   Cn1
 BYTE   N04  Dn1  v036
 BYTE   N05  An1  v076
 BYTE   N04  Bn1
 BYTE   W12
 BYTE   Ds2  v064
 BYTE   W01
 BYTE   N05  Cn1
 BYTE   N04  Dn1  v036
 BYTE   N05  Gn1  v084
 BYTE   N03  Bn1  v080
 BYTE   W11
 BYTE   N05  Cn1  v064
 BYTE   N04  Dn1  v032
 BYTE   N03  Bn1  v076
 BYTE   N04  Ds2  v072
 BYTE   W01
 BYTE   N05  Gn1  v080
 BYTE   W11
 BYTE   Cn1  v068
 BYTE   N05  Dn1  v036
 BYTE   N05  Gn1  v080
 BYTE   N04  Bn1  v076
 BYTE   N04  Ds2  v064
 BYTE   W11
 BYTE   N06  Gn1  v080
 BYTE   W01
 BYTE   N05  Cn1
 BYTE   N05  Dn1  v044
 BYTE   N05  Bn1  v076
 BYTE   N05  Ds2  v084
 BYTE   W12
 BYTE   PEND 
//  #08 //048   ----------------------------------------
 BYTE   PATT
  POIN2 Label_0100528E
//  #08 //049   ----------------------------------------
 BYTE   PATT
  POIN2 Label_010054B3
//  #08 //050   ----------------------------------------
 BYTE   W01
 BYTE   N14  Cs2  v092
 BYTE   W92
 BYTE   W03
//  #08 //051   ----------------------------------------
 BYTE   W96
//  #08 //052   ----------------------------------------
 BYTE   W96
//  #08 //053   ----------------------------------------
 BYTE   W96
//  #08 //054   ----------------------------------------
 BYTE   W96
//  #08 //055   ----------------------------------------
 BYTE   W96
//  #08 //056   ----------------------------------------
 BYTE   W96
//  #08 //057   ----------------------------------------
 BYTE   W96
//  #08 //058   ----------------------------------------
 BYTE   W96
//  #08 //059   ----------------------------------------
 BYTE   W96
//  #08 //060   ----------------------------------------
 BYTE   W96
//  #08 //061   ----------------------------------------
 BYTE   W96
//  #08 //062   ----------------------------------------
 BYTE   W96
//  #08 //063   ----------------------------------------
 BYTE   W96
//  #08 //064   ----------------------------------------
 BYTE   W96
//  #08 //065   ----------------------------------------
 BYTE   W96
//  #08 //066   ----------------------------------------
 BYTE   PATT
  POIN2 Label_0100528E
//  #08 //067   ----------------------------------------
 BYTE   PATT
  POIN2 Label_010052A5
//  #08 //068   ----------------------------------------
 BYTE   PATT
  POIN2 Label_010052C3
//  #08 //069   ----------------------------------------
 BYTE   PATT
  POIN2 Label_010052E2
//  #08 //070   ----------------------------------------
 BYTE   PATT
  POIN2 Label_010052FA
//  #08 //071   ----------------------------------------
 BYTE   PATT
  POIN2 Label_0100531E
//  #08 //072   ----------------------------------------
 BYTE   PATT
  POIN2 Label_0100533F
//  #08 //073   ----------------------------------------
Label_01005579:
 BYTE   N04  Ds2  v016
 BYTE   W01
 BYTE   Cn1  v020
 BYTE   W01
 BYTE   Dn1  v008
 BYTE   N03  En1  v012
 BYTE   N04  Bn1  v028
 BYTE   W09
 BYTE   Ds2  v024
 BYTE   W01
 BYTE   Cn1
 BYTE   N01  Dn1  v016
 BYTE   N02  An1  v020
 BYTE   N03  Bn1  v032
 BYTE   W01
 BYTE   Dn1  v012
 BYTE   W10
 BYTE   N04  Bn1  v028
 BYTE   N05  Ds2  v024
 BYTE   W01
 BYTE   N01  Dn1  v016
 BYTE   W01
 BYTE   N04  Cn1  v028
 BYTE   N03  Dn1  v016
 BYTE   N05  An1  v032
 BYTE   W10
 BYTE   Ds2  v028
 BYTE   W01
 BYTE   Cn1
 BYTE   N04  Dn1  v016
 BYTE   N05  An1  v032
 BYTE   N04  Bn1
 BYTE   W12
 BYTE   Ds2  v028
 BYTE   W01
 BYTE   N05  Cn1
 BYTE   N04  Dn1  v016
 BYTE   N05  Gn1  v036
 BYTE   N03  Bn1  v032
 BYTE   W11
 BYTE   N05  Cn1  v028
 BYTE   N04  Dn1  v016
 BYTE   N03  Bn1  v032
 BYTE   N04  Ds2
 BYTE   W01
 BYTE   N05  Gn1
 BYTE   W11
 BYTE   Cn1  v028
 BYTE   N05  Dn1  v016
 BYTE   N05  Gn1  v032
 BYTE   N04  Bn1
 BYTE   N04  Ds2  v028
 BYTE   W11
 BYTE   N06  Gn1  v036
 BYTE   W01
 BYTE   N05  Cn1
 BYTE   N05  Dn1  v016
 BYTE   N05  Bn1  v032
 BYTE   N05  Ds2  v036
 BYTE   W12
 BYTE   PEND 
//  #08 //074   ----------------------------------------
 BYTE   PATT
  POIN2 Label_0100528E
//  #08 //075   ----------------------------------------
 BYTE   PATT
  POIN2 Label_01005579
//  #08 //076   ----------------------------------------
 BYTE   PATT
  POIN2 Label_0100528E
//  #08 //077   ----------------------------------------
 BYTE   PATT
  POIN2 Label_01005579
//  #08 //078   ----------------------------------------
 BYTE   PATT
  POIN2 Label_0100528E
//  #08 //079   ----------------------------------------
 BYTE   W96
//  #08 //080   ----------------------------------------
 BYTE   W01
 BYTE   GoTo
  POIN2 Label_01005230
 BYTE   FINE

//******************************************************//
	ALIGN 4

BuddyHolly:
	BYTE	8	// NumTrks
	BYTE	0	// NumBlks
	BYTE	BuddyHolly_pri	// Priority
	BYTE	BuddyHolly_rev	// Reverb.
    
	POIN2	BuddyHolly_grp
    
	POIN2	BuddyHolly_001
	POIN2	BuddyHolly_002
	POIN2	BuddyHolly_003
	POIN2	BuddyHolly_004
	POIN2	BuddyHolly_005
	POIN2	BuddyHolly_006
	POIN2	BuddyHolly_007
	POIN2	BuddyHolly_008

	
