	.include "MPlayDef.s"

	.equ	songC0_grp, voicegroup000
	.equ	songC0_pri, 0
	.equ	songC0_rev, 0
	.equ	songC0_mvl, 127
	.equ	songC0_key, 0
	.equ	songC0_tbs, 1
	.equ	songC0_exg, 0
	.equ	songC0_cmp, 1

	.section .rodata
	.global	songC0
	.align	2


@**************** Track 1 (Midi-Chn.0) ****************@

songC0_001:
@  #01 @000   ----------------------------------------
 .byte   KEYSH , songC0_key+0
Label_016FACC2:
 .byte   TEMPO , 194*songC0_tbs/2
 .byte   VOICE , 4
 .byte   VOL , 62*songC0_mvl/mxv
 .byte   PAN , c_v+0
 .byte   VOL , 62*songC0_mvl/mxv
 .byte   PAN , c_v+0
 .byte   W96
@  #01 @001   ----------------------------------------
 .byte   W96
@  #01 @002   ----------------------------------------
 .byte   W96
@  #01 @003   ----------------------------------------
 .byte   W96
@  #01 @004   ----------------------------------------
 .byte   W96
@  #01 @005   ----------------------------------------
 .byte   W96
@  #01 @006   ----------------------------------------
 .byte   W96
@  #01 @007   ----------------------------------------
 .byte   W96
@  #01 @008   ----------------------------------------
 .byte   W96
@  #01 @009   ----------------------------------------
 .byte   W96
@  #01 @010   ----------------------------------------
 .byte   W96
@  #01 @011   ----------------------------------------
 .byte   W96
@  #01 @012   ----------------------------------------
 .byte   W96
@  #01 @013   ----------------------------------------
 .byte   W96
@  #01 @014   ----------------------------------------
 .byte   W96
@  #01 @015   ----------------------------------------
 .byte   W48
 .byte   N23 ,As3 ,v080
 .byte   W24
 .byte   Ds3
 .byte   W24
@  #01 @016   ----------------------------------------
 .byte   Gs3
 .byte   W96
@  #01 @017   ----------------------------------------
Label_016FACE6:
 .byte   N23 ,Gn3 ,v080
 .byte   W36
 .byte   N11 ,Cn3
 .byte   W36
 .byte   N23 ,Ds3
 .byte   W24
 .byte   PEND 
@  #01 @018   ----------------------------------------
Label_016FACF1:
 .byte   W72
 .byte   N11 ,Fn3 ,v080
 .byte   W12
 .byte   N05 ,Ds3
 .byte   W12
 .byte   PEND 
@  #01 @019   ----------------------------------------
 .byte   N23 ,Dn3
 .byte   W36
 .byte   N11
 .byte   W36
 .byte   N23 ,Ds3
 .byte   W24
@  #01 @020   ----------------------------------------
 .byte   PATT
  .word Label_016FACF1
@  #01 @021   ----------------------------------------
Label_016FAD07:
 .byte   N23 ,Dn3 ,v080
 .byte   W36
 .byte   N11
 .byte   W36
 .byte   N23 ,Cn3
 .byte   W24
 .byte   PEND 
@  #01 @022   ----------------------------------------
 .byte   W96
@  #01 @023   ----------------------------------------
 .byte   As3
 .byte   W36
 .byte   N11 ,Ds3
 .byte   W36
 .byte   N23 ,Gs3
 .byte   W24
@  #01 @024   ----------------------------------------
 .byte   W96
@  #01 @025   ----------------------------------------
 .byte   PATT
  .word Label_016FACE6
@  #01 @026   ----------------------------------------
 .byte   W72
 .byte   N23 ,Fn3 ,v080
 .byte   W24
@  #01 @027   ----------------------------------------
 .byte   Dn3
 .byte   W36
 .byte   N11
 .byte   W24
 .byte   N11
 .byte   W12
 .byte   N23 ,Ds3
 .byte   W24
@  #01 @028   ----------------------------------------
 .byte   PATT
  .word Label_016FACF1
@  #01 @029   ----------------------------------------
 .byte   PATT
  .word Label_016FAD07
@  #01 @030   ----------------------------------------
 .byte   W96
@  #01 @031   ----------------------------------------
Label_016FAD39:
 .byte   N23 ,As3 ,v096
 .byte   W36
 .byte   N11 ,Ds3
 .byte   W36
 .byte   N23 ,Gs3
 .byte   W24
 .byte   PEND 
@  #01 @032   ----------------------------------------
 .byte   W96
@  #01 @033   ----------------------------------------
 .byte   W96
@  #01 @034   ----------------------------------------
 .byte   W72
 .byte   Fn3
 .byte   W24
@  #01 @035   ----------------------------------------
Label_016FAD49:
 .byte   N23 ,Gn3 ,v096
 .byte   W36
 .byte   N11 ,Cn3
 .byte   W36
 .byte   N23 ,Ds3
 .byte   W24
 .byte   PEND 
@  #01 @036   ----------------------------------------
 .byte   W96
@  #01 @037   ----------------------------------------
 .byte   W96
@  #01 @038   ----------------------------------------
 .byte   W72
 .byte   As3
 .byte   W24
@  #01 @039   ----------------------------------------
 .byte   PATT
  .word Label_016FAD39
@  #01 @040   ----------------------------------------
 .byte   W96
@  #01 @041   ----------------------------------------
 .byte   W96
@  #01 @042   ----------------------------------------
 .byte   W96
@  #01 @043   ----------------------------------------
 .byte   PATT
  .word Label_016FAD49
@  #01 @044   ----------------------------------------
 .byte   W96
@  #01 @045   ----------------------------------------
 .byte   W96
@  #01 @046   ----------------------------------------
 .byte   W96
@  #01 @047   ----------------------------------------
 .byte   W24
 .byte   N32 ,Cn3 ,v112
 .byte   W36
 .byte   Ds3
 .byte   W36
@  #01 @048   ----------------------------------------
 .byte   W96
@  #01 @049   ----------------------------------------
 .byte   W96
@  #01 @050   ----------------------------------------
 .byte   W96
@  #01 @051   ----------------------------------------
 .byte   W48
 .byte   N11 ,As3 ,v127
 .byte   W12
 .byte   N32 ,Cn4
 .byte   W36
@  #01 @052   ----------------------------------------
Label_016FAD7B:
 .byte   N23 ,Cn4 ,v127
 .byte   W24
 .byte   N11
 .byte   W12
 .byte   N11
 .byte   W36
 .byte   N11
 .byte   W12
 .byte   As3
 .byte   W12
 .byte   PEND 
@  #01 @053   ----------------------------------------
 .byte   PATT
  .word Label_016FAD7B
@  #01 @054   ----------------------------------------
 .byte   N44 ,Fn3 ,v127
 .byte   W48
 .byte   N23
 .byte   W24
 .byte   N11 ,Ds3
 .byte   W12
 .byte   N23 ,Fn3
 .byte   W12
@  #01 @055   ----------------------------------------
 .byte   W12
 .byte   N32 ,Gn3
 .byte   W36
 .byte   N44 ,As3
 .byte   W48
@  #01 @056   ----------------------------------------
 .byte   W96
@  #01 @057   ----------------------------------------
 .byte   W96
@  #01 @058   ----------------------------------------
 .byte   W96
@  #01 @059   ----------------------------------------
 .byte   W72
 .byte   N11 ,Ds4
 .byte   W12
 .byte   N11
 .byte   W12
@  #01 @060   ----------------------------------------
 .byte   Dn4
 .byte   W12
 .byte   As3
 .byte   W24
 .byte   N23
 .byte   W24
 .byte   N11 ,Gn3
 .byte   W12
 .byte   N23 ,Cn4
 .byte   W24
@  #01 @061   ----------------------------------------
 .byte   W12
 .byte   N11 ,Fn3
 .byte   W12
 .byte   N11
 .byte   W24
 .byte   N23
 .byte   W24
 .byte   Ds3
 .byte   W24
@  #01 @062   ----------------------------------------
 .byte   Fn3
 .byte   W24
 .byte   N32
 .byte   W36
 .byte   N11 ,Ds3
 .byte   W12
 .byte   Fn3
 .byte   W24
@  #01 @063   ----------------------------------------
 .byte   W48
 .byte   TIE ,Gn3
 .byte   W48
@  #01 @064   ----------------------------------------
 .byte   W92
 .byte   W03
 .byte   EOT
 .byte   W01
@  #01 @065   ----------------------------------------
 .byte   N44
 .byte   W48
 .byte   N23 ,Ds3
 .byte   W24
 .byte   N92 ,Fn3
 .byte   W24
@  #01 @066   ----------------------------------------
 .byte   W72
 .byte   N11 ,Dn3
 .byte   W12
 .byte   Ds3
 .byte   W12
@  #01 @067   ----------------------------------------
 .byte   N32 ,Fn3
 .byte   W36
 .byte   Ds3
 .byte   W36
 .byte   N23 ,Dn3
 .byte   W24
@  #01 @068   ----------------------------------------
 .byte   N68
 .byte   W72
 .byte   TIE ,Cn3
 .byte   W24
@  #01 @069   ----------------------------------------
 .byte   W96
@  #01 @070   ----------------------------------------
 .byte   W96
@  #01 @071   ----------------------------------------
 .byte   W92
 .byte   W03
 .byte   EOT
 .byte   W01
@  #01 @072   ----------------------------------------
 .byte   GOTO
  .word Label_016FACC2
 .byte   FINE

@**************** Track 2 (Midi-Chn.1) ****************@

songC0_002:
@  #02 @000   ----------------------------------------
 .byte   KEYSH , songC0_key+0
Label_016FBA66:
 .byte   VOICE , 56
 .byte   VOL , 62*songC0_mvl/mxv
 .byte   PAN , c_v+0
 .byte   VOL , 62*songC0_mvl/mxv
 .byte   PAN , c_v+0
 .byte   W96
@  #02 @001   ----------------------------------------
 .byte   W96
@  #02 @002   ----------------------------------------
 .byte   W96
@  #02 @003   ----------------------------------------
 .byte   W96
@  #02 @004   ----------------------------------------
 .byte   W96
@  #02 @005   ----------------------------------------
 .byte   W96
@  #02 @006   ----------------------------------------
 .byte   W96
@  #02 @007   ----------------------------------------
 .byte   W96
@  #02 @008   ----------------------------------------
 .byte   W96
@  #02 @009   ----------------------------------------
 .byte   W96
@  #02 @010   ----------------------------------------
 .byte   W96
@  #02 @011   ----------------------------------------
 .byte   W96
@  #02 @012   ----------------------------------------
 .byte   W96
@  #02 @013   ----------------------------------------
 .byte   W96
@  #02 @014   ----------------------------------------
 .byte   W96
@  #02 @015   ----------------------------------------
 .byte   W96
@  #02 @016   ----------------------------------------
 .byte   W96
@  #02 @017   ----------------------------------------
 .byte   W96
@  #02 @018   ----------------------------------------
 .byte   W96
@  #02 @019   ----------------------------------------
 .byte   W96
@  #02 @020   ----------------------------------------
 .byte   W96
@  #02 @021   ----------------------------------------
 .byte   W96
@  #02 @022   ----------------------------------------
 .byte   W96
@  #02 @023   ----------------------------------------
 .byte   W96
@  #02 @024   ----------------------------------------
 .byte   W96
@  #02 @025   ----------------------------------------
 .byte   W96
@  #02 @026   ----------------------------------------
 .byte   W96
@  #02 @027   ----------------------------------------
 .byte   W96
@  #02 @028   ----------------------------------------
 .byte   W96
@  #02 @029   ----------------------------------------
 .byte   W96
@  #02 @030   ----------------------------------------
 .byte   W96
@  #02 @031   ----------------------------------------
 .byte   W96
@  #02 @032   ----------------------------------------
 .byte   W96
@  #02 @033   ----------------------------------------
 .byte   W96
@  #02 @034   ----------------------------------------
 .byte   W96
@  #02 @035   ----------------------------------------
 .byte   W96
@  #02 @036   ----------------------------------------
 .byte   W96
@  #02 @037   ----------------------------------------
 .byte   W96
@  #02 @038   ----------------------------------------
 .byte   W96
@  #02 @039   ----------------------------------------
 .byte   W96
@  #02 @040   ----------------------------------------
 .byte   W96
@  #02 @041   ----------------------------------------
 .byte   W96
@  #02 @042   ----------------------------------------
 .byte   W96
@  #02 @043   ----------------------------------------
 .byte   W96
@  #02 @044   ----------------------------------------
 .byte   W96
@  #02 @045   ----------------------------------------
 .byte   W96
@  #02 @046   ----------------------------------------
 .byte   W96
@  #02 @047   ----------------------------------------
 .byte   W96
@  #02 @048   ----------------------------------------
 .byte   N92 ,Cn3 ,v112
 .byte   N92 ,Cn4
 .byte   W96
@  #02 @049   ----------------------------------------
 .byte   N68 ,Dn3
 .byte   N68 ,Dn4
 .byte   W72
 .byte   TIE ,Ds3
 .byte   TIE ,Ds4
 .byte   W24
@  #02 @050   ----------------------------------------
 .byte   W96
@  #02 @051   ----------------------------------------
 .byte   W92
 .byte   W03
 .byte   EOT
 .byte   Ds3 ,v075
 .byte   W01
@  #02 @052   ----------------------------------------
 .byte   W96
@  #02 @053   ----------------------------------------
 .byte   N11 ,Cn3
 .byte   W12
 .byte   N80 ,Gn3
 .byte   W84
@  #02 @054   ----------------------------------------
 .byte   N92 ,Cn4
 .byte   W96
@  #02 @055   ----------------------------------------
 .byte   Dn4
 .byte   W96
@  #02 @056   ----------------------------------------
 .byte   Cn3
 .byte   N92 ,Cn4
 .byte   TIE ,Ds4
 .byte   W96
@  #02 @057   ----------------------------------------
 .byte   N68 ,Dn3
 .byte   N68 ,Dn4
 .byte   W72
 .byte   EOT
 .byte   Ds4
 .byte   TIE ,Ds3
 .byte   TIE ,Ds4
 .byte   W24
@  #02 @058   ----------------------------------------
 .byte   W96
@  #02 @059   ----------------------------------------
 .byte   W92
 .byte   W03
 .byte   EOT
 .byte   Ds3 ,v075
 .byte   W01
@  #02 @060   ----------------------------------------
 .byte   W96
@  #02 @061   ----------------------------------------
 .byte   W96
@  #02 @062   ----------------------------------------
 .byte   W96
@  #02 @063   ----------------------------------------
 .byte   W96
@  #02 @064   ----------------------------------------
 .byte   W96
@  #02 @065   ----------------------------------------
 .byte   W96
@  #02 @066   ----------------------------------------
 .byte   W96
@  #02 @067   ----------------------------------------
 .byte   W96
@  #02 @068   ----------------------------------------
 .byte   W96
@  #02 @069   ----------------------------------------
 .byte   W96
@  #02 @070   ----------------------------------------
 .byte   W96
@  #02 @071   ----------------------------------------
 .byte   W96
@  #02 @072   ----------------------------------------
 .byte   GOTO
  .word Label_016FBA66
 .byte   FINE

@**************** Track 3 (Midi-Chn.2) ****************@

songC0_003:
@  #03 @000   ----------------------------------------
 .byte   KEYSH , songC0_key+0
Label_016FB1B2:
 .byte   VOICE , 28
 .byte   VOL , 42*songC0_mvl/mxv
 .byte   PAN , c_v+0
 .byte   VOL , 42*songC0_mvl/mxv
 .byte   PAN , c_v+0
 .byte   N23 ,As2 ,v080
 .byte   N23 ,Cs3
 .byte   W36
 .byte   N11 ,Cn3
 .byte   N11 ,Ds3
 .byte   W60
@  #03 @001   ----------------------------------------
Label_016FB1C7:
 .byte   W48
 .byte   N23 ,As2 ,v080
 .byte   N23 ,Cs3
 .byte   W48
 .byte   PEND 
@  #03 @002   ----------------------------------------
Label_016FB1CF:
 .byte   N23 ,Cn3 ,v080
 .byte   N23 ,Ds3
 .byte   W36
 .byte   N11 ,Cn3
 .byte   N11 ,Ds3
 .byte   W36
 .byte   TIE ,Fn2
 .byte   TIE ,Ds3
 .byte   TIE ,Gs3
 .byte   W24
 .byte   PEND 
@  #03 @003   ----------------------------------------
 .byte   W92
 .byte   W03
 .byte   EOT
 .byte   Fn2 ,v063
 .byte   Gs3
 .byte   W01
@  #03 @004   ----------------------------------------
Label_016FB1E9:
 .byte   N23 ,As2 ,v080
 .byte   N23 ,Cs3
 .byte   W36
 .byte   N11 ,Cn3
 .byte   N11 ,Ds3
 .byte   W60
 .byte   PEND 
@  #03 @005   ----------------------------------------
 .byte   PATT
  .word Label_016FB1C7
@  #03 @006   ----------------------------------------
 .byte   PATT
  .word Label_016FB1CF
@  #03 @007   ----------------------------------------
 .byte   W92
 .byte   W03
 .byte   EOT
 .byte   Fn2 ,v063
 .byte   Gs3
 .byte   W01
@  #03 @008   ----------------------------------------
 .byte   PATT
  .word Label_016FB1E9
@  #03 @009   ----------------------------------------
 .byte   PATT
  .word Label_016FB1C7
@  #03 @010   ----------------------------------------
 .byte   PATT
  .word Label_016FB1CF
@  #03 @011   ----------------------------------------
 .byte   W92
 .byte   W03
 .byte   EOT
 .byte   Fn2 ,v063
 .byte   Gs3
 .byte   W01
@  #03 @012   ----------------------------------------
 .byte   PATT
  .word Label_016FB1E9
@  #03 @013   ----------------------------------------
 .byte   W48
 .byte   N23 ,As2 ,v080
 .byte   N23 ,Cs3
 .byte   W24
 .byte   Cn3
 .byte   N23 ,Ds3
 .byte   W24
@  #03 @014   ----------------------------------------
 .byte   TIE ,Fn2
 .byte   TIE ,Ds3
 .byte   TIE ,Gs3
 .byte   W96
@  #03 @015   ----------------------------------------
 .byte   W92
 .byte   W03
 .byte   EOT
 .byte   Fn2 ,v063
 .byte   Gs3
 .byte   W01
@  #03 @016   ----------------------------------------
 .byte   W96
@  #03 @017   ----------------------------------------
 .byte   W96
@  #03 @018   ----------------------------------------
 .byte   W96
@  #03 @019   ----------------------------------------
 .byte   W96
@  #03 @020   ----------------------------------------
 .byte   W96
@  #03 @021   ----------------------------------------
 .byte   W96
@  #03 @022   ----------------------------------------
 .byte   W96
@  #03 @023   ----------------------------------------
 .byte   W96
@  #03 @024   ----------------------------------------
 .byte   W96
@  #03 @025   ----------------------------------------
 .byte   W96
@  #03 @026   ----------------------------------------
 .byte   W96
@  #03 @027   ----------------------------------------
 .byte   W96
@  #03 @028   ----------------------------------------
 .byte   W96
@  #03 @029   ----------------------------------------
 .byte   W96
@  #03 @030   ----------------------------------------
 .byte   W96
@  #03 @031   ----------------------------------------
 .byte   W96
@  #03 @032   ----------------------------------------
 .byte   W96
@  #03 @033   ----------------------------------------
 .byte   W96
@  #03 @034   ----------------------------------------
 .byte   W96
@  #03 @035   ----------------------------------------
 .byte   W96
@  #03 @036   ----------------------------------------
 .byte   W96
@  #03 @037   ----------------------------------------
 .byte   W96
@  #03 @038   ----------------------------------------
 .byte   W96
@  #03 @039   ----------------------------------------
 .byte   W96
@  #03 @040   ----------------------------------------
 .byte   W96
@  #03 @041   ----------------------------------------
 .byte   W96
@  #03 @042   ----------------------------------------
 .byte   W96
@  #03 @043   ----------------------------------------
 .byte   W96
@  #03 @044   ----------------------------------------
 .byte   W96
@  #03 @045   ----------------------------------------
 .byte   W96
@  #03 @046   ----------------------------------------
 .byte   W96
@  #03 @047   ----------------------------------------
 .byte   W96
@  #03 @048   ----------------------------------------
 .byte   N68 ,Cn2 ,v112
 .byte   N68 ,Gn2
 .byte   W72
 .byte   N11 ,Cn2
 .byte   N11 ,Gn2
 .byte   W12
 .byte   N23 ,As1
 .byte   N23 ,Ds2
 .byte   W12
@  #03 @049   ----------------------------------------
Label_016FB26A:
 .byte   W12
 .byte   N11 ,As1 ,v112
 .byte   N11 ,Ds2
 .byte   W12
 .byte   N68 ,As1
 .byte   N68 ,Ds2
 .byte   W72
 .byte   PEND 
@  #03 @050   ----------------------------------------
Label_016FB277:
 .byte   N68 ,As1 ,v112
 .byte   N68 ,Fn2
 .byte   W72
 .byte   N11 ,As1
 .byte   N11 ,Fn2
 .byte   W12
 .byte   N23 ,As1
 .byte   N23 ,Fn2
 .byte   W12
 .byte   PEND 
@  #03 @051   ----------------------------------------
 .byte   W12
 .byte   N11 ,As1
 .byte   N11 ,Fn2
 .byte   W12
 .byte   N68 ,As1
 .byte   N68 ,Fn2
 .byte   W72
@  #03 @052   ----------------------------------------
Label_016FB293:
 .byte   N68 ,Cn2 ,v112
 .byte   N68 ,Gn2
 .byte   W72
 .byte   N11 ,Cn2
 .byte   N11 ,Gn2
 .byte   W12
 .byte   TIE ,As1
 .byte   TIE ,Ds2
 .byte   W12
 .byte   PEND 
@  #03 @053   ----------------------------------------
 .byte   N11 ,Cn3
 .byte   W12
 .byte   N80 ,Gn3
 .byte   W80
 .byte   W03
 .byte   EOT
 .byte   As1 ,v051
 .byte   W01
@  #03 @054   ----------------------------------------
 .byte   N80 ,Cn2
 .byte   N80 ,Fn2
 .byte   N92 ,Cn4
 .byte   W84
 .byte   N23 ,Dn2
 .byte   N23 ,Gn2
 .byte   W12
@  #03 @055   ----------------------------------------
 .byte   N92 ,Dn4
 .byte   W12
 .byte   N32 ,Dn2
 .byte   N32 ,Gn2
 .byte   W36
 .byte   N44 ,Dn2
 .byte   N44 ,Gn2
 .byte   W48
@  #03 @056   ----------------------------------------
 .byte   N68 ,Cn2
 .byte   N68 ,Gn2
 .byte   TIE ,Ds4
 .byte   W72
 .byte   N11 ,Cn2
 .byte   N11 ,Gn2
 .byte   W12
 .byte   N23 ,As1
 .byte   N23 ,Ds2
 .byte   W12
@  #03 @057   ----------------------------------------
 .byte   PATT
  .word Label_016FB26A
@  #03 @058   ----------------------------------------
 .byte   PATT
  .word Label_016FB277
@  #03 @059   ----------------------------------------
 .byte   W12
 .byte   N11 ,As1 ,v112
 .byte   N11 ,Fn2
 .byte   W12
 .byte   N68 ,As1
 .byte   N68 ,Fn2
 .byte   W68
 .byte   W03
 .byte   EOT
 .byte   Ds4
 .byte   W01
@  #03 @060   ----------------------------------------
 .byte   PATT
  .word Label_016FB293
@  #03 @061   ----------------------------------------
 .byte   W92
 .byte   W03
 .byte   EOT
 .byte   As1 ,v051
 .byte   W01
@  #03 @062   ----------------------------------------
 .byte   N68 ,Cn2 ,v112
 .byte   N68 ,Fn2
 .byte   W72
 .byte   N11 ,Dn2
 .byte   N11 ,Gn2
 .byte   W24
@  #03 @063   ----------------------------------------
 .byte   W48
 .byte   TIE ,Gn3
 .byte   W48
@  #03 @064   ----------------------------------------
 .byte   W92
 .byte   W03
 .byte   EOT
 .byte   W01
@  #03 @065   ----------------------------------------
 .byte   N44
 .byte   W48
 .byte   N23 ,Ds3
 .byte   W24
 .byte   N92 ,Fn3
 .byte   W24
@  #03 @066   ----------------------------------------
 .byte   W72
 .byte   N11 ,Dn3
 .byte   W12
 .byte   Ds3
 .byte   W12
@  #03 @067   ----------------------------------------
 .byte   N32 ,Fn3
 .byte   W36
 .byte   Ds3
 .byte   W36
 .byte   N23 ,Dn3
 .byte   W24
@  #03 @068   ----------------------------------------
 .byte   N68
 .byte   W72
 .byte   TIE ,Cn3
 .byte   W24
@  #03 @069   ----------------------------------------
 .byte   W96
@  #03 @070   ----------------------------------------
 .byte   W96
@  #03 @071   ----------------------------------------
 .byte   W92
 .byte   W03
 .byte   EOT
 .byte   W01
@  #03 @072   ----------------------------------------
 .byte   GOTO
  .word Label_016FB1B2
 .byte   FINE

@**************** Track 4 (Midi-Chn.3) ****************@

songC0_004:
@  #04 @000   ----------------------------------------
 .byte   KEYSH , songC0_key+0
Label_016FAE0E:
 .byte   VOICE , 34
 .byte   VOL , 42*songC0_mvl/mxv
 .byte   PAN , c_v+0
 .byte   W72
 .byte   N11 ,As2 ,v036
 .byte   N11 ,Cs3
 .byte   W12
 .byte   Cn3
 .byte   N11 ,Ds3
 .byte   W12
@  #04 @001   ----------------------------------------
Label_016FAE1F:
 .byte   W24
 .byte   N11 ,As2 ,v036
 .byte   N11 ,Cs3
 .byte   W12
 .byte   Cn3
 .byte   N11 ,Ds3
 .byte   W60
 .byte   PEND 
@  #04 @002   ----------------------------------------
Label_016FAE2B:
 .byte   W72
 .byte   TIE ,Fn2 ,v036
 .byte   TIE ,Ds3
 .byte   TIE ,Gs3
 .byte   W24
 .byte   PEND 
@  #04 @003   ----------------------------------------
 .byte   W92
 .byte   W03
 .byte   EOT
 .byte   Fn2 ,v063
 .byte   Gs3
 .byte   W01
@  #04 @004   ----------------------------------------
 .byte   W48
 .byte   N23 ,As2
 .byte   N23 ,Cs3
 .byte   W36
 .byte   N11 ,Cn3
 .byte   N11 ,Ds3
 .byte   W12
@  #04 @005   ----------------------------------------
 .byte   N23 ,As2
 .byte   N23 ,Cs3
 .byte   W36
 .byte   N11 ,Cn3 ,v016
 .byte   N11 ,Ds3
 .byte   W12
 .byte   N23 ,As2
 .byte   N23 ,Cs3
 .byte   W48
@  #04 @006   ----------------------------------------
 .byte   TIE ,Fn2 ,v052
 .byte   TIE ,Ds3
 .byte   TIE ,Gs3
 .byte   W96
@  #04 @007   ----------------------------------------
 .byte   W92
 .byte   W03
 .byte   EOT
 .byte   Fn2 ,v063
 .byte   Gs3
 .byte   W01
@  #04 @008   ----------------------------------------
Label_016FAE66:
 .byte   W72
 .byte   N11 ,As2 ,v052
 .byte   N11 ,Cs3
 .byte   W12
 .byte   Cn3
 .byte   N11 ,Ds3
 .byte   W12
 .byte   PEND 
@  #04 @009   ----------------------------------------
 .byte   PATT
  .word Label_016FAE1F
@  #04 @010   ----------------------------------------
 .byte   PATT
  .word Label_016FAE2B
@  #04 @011   ----------------------------------------
 .byte   W92
 .byte   W03
 .byte   EOT
 .byte   Fn2 ,v063
 .byte   Gs3
 .byte   W01
@  #04 @012   ----------------------------------------
 .byte   PATT
  .word Label_016FAE66
@  #04 @013   ----------------------------------------
 .byte   PATT
  .word Label_016FAE1F
@  #04 @014   ----------------------------------------
 .byte   TIE ,Fn2 ,v036
 .byte   TIE ,Ds3
 .byte   TIE ,Gs3
 .byte   W96
@  #04 @015   ----------------------------------------
 .byte   W92
 .byte   W03
 .byte   EOT
 .byte   Fn2 ,v063
 .byte   Gs3
 .byte   W01
@  #04 @016   ----------------------------------------
 .byte   W96
@  #04 @017   ----------------------------------------
 .byte   W96
@  #04 @018   ----------------------------------------
 .byte   W96
@  #04 @019   ----------------------------------------
 .byte   W96
@  #04 @020   ----------------------------------------
Label_016FAEA0:
 .byte   N23 ,As3 ,v036
 .byte   W24
 .byte   N11
 .byte   W12
 .byte   N11
 .byte   W24
 .byte   N23
 .byte   W24
 .byte   N11
 .byte   W12
 .byte   PEND 
@  #04 @021   ----------------------------------------
Label_016FAEAD:
 .byte   N11 ,As3 ,v036
 .byte   W24
 .byte   N23
 .byte   W24
 .byte   N11
 .byte   W12
 .byte   N11
 .byte   W36
 .byte   PEND 
@  #04 @022   ----------------------------------------
 .byte   PATT
  .word Label_016FAEA0
@  #04 @023   ----------------------------------------
 .byte   PATT
  .word Label_016FAEAD
@  #04 @024   ----------------------------------------
 .byte   N11 ,Gs3 ,v036
 .byte   W12
 .byte   N11
 .byte   W84
@  #04 @025   ----------------------------------------
 .byte   W96
@  #04 @026   ----------------------------------------
Label_016FAEC9:
 .byte   N23 ,As3 ,v052
 .byte   W24
 .byte   N11
 .byte   W12
 .byte   N11
 .byte   W24
 .byte   N23
 .byte   W24
 .byte   N11
 .byte   W12
 .byte   PEND 
@  #04 @027   ----------------------------------------
Label_016FAED6:
 .byte   N11 ,As3 ,v052
 .byte   W24
 .byte   N23
 .byte   W24
 .byte   N11
 .byte   W12
 .byte   N11
 .byte   W36
 .byte   PEND 
@  #04 @028   ----------------------------------------
 .byte   PATT
  .word Label_016FAEC9
@  #04 @029   ----------------------------------------
 .byte   PATT
  .word Label_016FAED6
@  #04 @030   ----------------------------------------
 .byte   N23 ,Cn4 ,v052
 .byte   W24
 .byte   N11
 .byte   W12
 .byte   N11
 .byte   W24
 .byte   N23
 .byte   W24
 .byte   N11
 .byte   W12
@  #04 @031   ----------------------------------------
 .byte   N11
 .byte   W24
 .byte   N23
 .byte   W24
 .byte   N11
 .byte   W12
 .byte   N11
 .byte   W36
@  #04 @032   ----------------------------------------
 .byte   W96
@  #04 @033   ----------------------------------------
 .byte   W96
@  #04 @034   ----------------------------------------
 .byte   W96
@  #04 @035   ----------------------------------------
 .byte   W96
@  #04 @036   ----------------------------------------
 .byte   W96
@  #04 @037   ----------------------------------------
 .byte   W96
@  #04 @038   ----------------------------------------
 .byte   W96
@  #04 @039   ----------------------------------------
 .byte   W96
@  #04 @040   ----------------------------------------
 .byte   W96
@  #04 @041   ----------------------------------------
 .byte   W96
@  #04 @042   ----------------------------------------
 .byte   W96
@  #04 @043   ----------------------------------------
 .byte   W96
@  #04 @044   ----------------------------------------
 .byte   W96
@  #04 @045   ----------------------------------------
 .byte   W96
@  #04 @046   ----------------------------------------
 .byte   W96
@  #04 @047   ----------------------------------------
 .byte   W96
@  #04 @048   ----------------------------------------
Label_016FAF0F:
 .byte   N23 ,Cn2 ,v096
 .byte   N23 ,Gn2
 .byte   N23 ,Cn3
 .byte   W24
 .byte   Cn2
 .byte   N23 ,Gn2
 .byte   N23 ,Cn3
 .byte   W24
 .byte   Cn2
 .byte   N23 ,Gn2
 .byte   N23 ,Cn3
 .byte   W24
 .byte   Cn2
 .byte   N23 ,Gn2
 .byte   N23 ,Cn3
 .byte   W24
 .byte   PEND 
@  #04 @049   ----------------------------------------
Label_016FAF2A:
 .byte   N23 ,As1 ,v096
 .byte   N23 ,Ds2
 .byte   N23 ,As2
 .byte   W24
 .byte   As1
 .byte   N23 ,Ds2
 .byte   N23 ,As2
 .byte   W24
 .byte   As1
 .byte   N23 ,Ds2
 .byte   N23 ,As2
 .byte   W24
 .byte   As1
 .byte   N23 ,Ds2
 .byte   N23 ,As2
 .byte   W24
 .byte   PEND 
@  #04 @050   ----------------------------------------
Label_016FAF45:
 .byte   N23 ,As1 ,v096
 .byte   N23 ,Fn2
 .byte   N23 ,As2
 .byte   W24
 .byte   As1
 .byte   N23 ,Fn2
 .byte   N23 ,As2
 .byte   W24
 .byte   As1
 .byte   N23 ,Fn2
 .byte   N23 ,As2
 .byte   W24
 .byte   As1
 .byte   N23 ,Fn2
 .byte   N23 ,As2
 .byte   W24
 .byte   PEND 
@  #04 @051   ----------------------------------------
 .byte   PATT
  .word Label_016FAF45
@  #04 @052   ----------------------------------------
 .byte   PATT
  .word Label_016FAF0F
@  #04 @053   ----------------------------------------
 .byte   PATT
  .word Label_016FAF2A
@  #04 @054   ----------------------------------------
 .byte   N23 ,Cn2 ,v096
 .byte   N23 ,Fn2
 .byte   N23 ,Cn3
 .byte   W24
 .byte   Cn2
 .byte   N23 ,Fn2
 .byte   N23 ,Cn3
 .byte   W24
 .byte   Cn2
 .byte   N23 ,Fn2
 .byte   N23 ,Cn3
 .byte   W24
 .byte   Cn2
 .byte   N23 ,Fn2
 .byte   N23 ,Cn3
 .byte   W24
@  #04 @055   ----------------------------------------
 .byte   Dn2
 .byte   N23 ,Gn2
 .byte   N23 ,Dn3
 .byte   W24
 .byte   Dn2
 .byte   N23 ,Gn2
 .byte   N23 ,Dn3
 .byte   W24
 .byte   Dn2
 .byte   N23 ,Gn2
 .byte   N23 ,Dn3
 .byte   W24
 .byte   Dn2
 .byte   N23 ,Gn2
 .byte   N23 ,Dn3
 .byte   W24
@  #04 @056   ----------------------------------------
 .byte   PATT
  .word Label_016FAF0F
@  #04 @057   ----------------------------------------
 .byte   PATT
  .word Label_016FAF2A
@  #04 @058   ----------------------------------------
 .byte   PATT
  .word Label_016FAF45
@  #04 @059   ----------------------------------------
 .byte   PATT
  .word Label_016FAF45
@  #04 @060   ----------------------------------------
 .byte   PATT
  .word Label_016FAF0F
@  #04 @061   ----------------------------------------
 .byte   PATT
  .word Label_016FAF2A
@  #04 @062   ----------------------------------------
 .byte   N23 ,Cn2 ,v096
 .byte   N23 ,Fn2
 .byte   N23 ,Cn3
 .byte   W24
 .byte   Cn2
 .byte   N23 ,Fn2
 .byte   N23 ,Cn3
 .byte   W24
 .byte   Cn2
 .byte   N23 ,Fn2
 .byte   N23 ,Cn3
 .byte   W24
 .byte   N11 ,Dn2
 .byte   N11 ,Gn2
 .byte   N11 ,Dn3
 .byte   W24
@  #04 @063   ----------------------------------------
 .byte   W48
 .byte   N68 ,An1
 .byte   N68 ,En2
 .byte   N68 ,An2
 .byte   W48
@  #04 @064   ----------------------------------------
 .byte   W24
 .byte   N23 ,An1
 .byte   N23 ,En2
 .byte   N23 ,An2
 .byte   W24
 .byte   An1
 .byte   N23 ,En2
 .byte   N23 ,An2
 .byte   W24
 .byte   An1
 .byte   N23 ,En2
 .byte   N23 ,An2
 .byte   W24
@  #04 @065   ----------------------------------------
 .byte   Fn1
 .byte   N23 ,Cn2
 .byte   N23 ,Fn2
 .byte   W24
 .byte   Fn1
 .byte   N23 ,Cn2
 .byte   N23 ,Fn2
 .byte   W24
 .byte   Fn1
 .byte   N23 ,Cn2
 .byte   N23 ,Fn2
 .byte   W24
 .byte   Fn1
 .byte   N23 ,Cn2
 .byte   N23 ,Fn2
 .byte   W24
@  #04 @066   ----------------------------------------
Label_016FB00E:
 .byte   N23 ,Gn1 ,v096
 .byte   N23 ,Dn2
 .byte   N23 ,Gn2
 .byte   W24
 .byte   Gn1
 .byte   N23 ,Dn2
 .byte   N23 ,Gn2
 .byte   W24
 .byte   Gn1
 .byte   N23 ,Dn2
 .byte   N23 ,Gn2
 .byte   W24
 .byte   Gn1
 .byte   N23 ,Dn2
 .byte   N23 ,Gn2
 .byte   W24
 .byte   PEND 
@  #04 @067   ----------------------------------------
 .byte   PATT
  .word Label_016FB00E
@  #04 @068   ----------------------------------------
 .byte   N68 ,Cn2 ,v096
 .byte   N68 ,Gn2
 .byte   N68 ,Cn3
 .byte   W72
 .byte   N92 ,Cn2
 .byte   N92 ,Gn2
 .byte   N92 ,Cn3
 .byte   W24
@  #04 @069   ----------------------------------------
 .byte   W72
 .byte   TIE ,Gn1
 .byte   TIE ,Cn2
 .byte   TIE ,Ds2
 .byte   W24
@  #04 @070   ----------------------------------------
 .byte   W96
@  #04 @071   ----------------------------------------
 .byte   W92
 .byte   W03
 .byte   EOT
 .byte   Gn1 ,v048
 .byte   Ds2
 .byte   W01
@  #04 @072   ----------------------------------------
 .byte   GOTO
  .word Label_016FAE0E
 .byte   FINE

@**************** Track 5 (Midi-Chn.4) ****************@

songC0_005:
@  #05 @000   ----------------------------------------
 .byte   KEYSH , songC0_key+0
Label_016FB4DE:
 .byte   VOICE , 34
 .byte   VOL , 42*songC0_mvl/mxv
 .byte   PAN , c_v+0
 .byte   W96
@  #05 @001   ----------------------------------------
 .byte   W96
@  #05 @002   ----------------------------------------
 .byte   W96
@  #05 @003   ----------------------------------------
 .byte   W96
@  #05 @004   ----------------------------------------
 .byte   W96
@  #05 @005   ----------------------------------------
 .byte   W96
@  #05 @006   ----------------------------------------
 .byte   W96
@  #05 @007   ----------------------------------------
 .byte   W96
@  #05 @008   ----------------------------------------
 .byte   W96
@  #05 @009   ----------------------------------------
 .byte   W96
@  #05 @010   ----------------------------------------
 .byte   W96
@  #05 @011   ----------------------------------------
 .byte   W96
@  #05 @012   ----------------------------------------
 .byte   W96
@  #05 @013   ----------------------------------------
 .byte   W96
@  #05 @014   ----------------------------------------
 .byte   W96
@  #05 @015   ----------------------------------------
 .byte   W96
@  #05 @016   ----------------------------------------
 .byte   N11 ,As0 ,v080
 .byte   W96
@  #05 @017   ----------------------------------------
 .byte   N23 ,Ds1 ,v064
 .byte   W36
 .byte   N11
 .byte   W36
 .byte   N23 ,Gs1
 .byte   W24
@  #05 @018   ----------------------------------------
 .byte   W96
@  #05 @019   ----------------------------------------
Label_016FB502:
 .byte   N23 ,Fn1 ,v064
 .byte   W36
 .byte   N11 ,Gn1
 .byte   W36
 .byte   N23 ,Ds1
 .byte   W24
 .byte   PEND 
@  #05 @020   ----------------------------------------
 .byte   W96
@  #05 @021   ----------------------------------------
 .byte   Fn1
 .byte   W36
 .byte   N11 ,Gn1
 .byte   W36
 .byte   N23 ,Cn2
 .byte   W24
@  #05 @022   ----------------------------------------
 .byte   W96
@  #05 @023   ----------------------------------------
Label_016FB517:
 .byte   N23 ,As1 ,v064
 .byte   W36
 .byte   N11 ,Ds1
 .byte   W36
 .byte   N23 ,Gs1
 .byte   W24
 .byte   PEND 
@  #05 @024   ----------------------------------------
 .byte   W96
@  #05 @025   ----------------------------------------
 .byte   N23
 .byte   W36
 .byte   N11
 .byte   W36
 .byte   N23 ,Gn1
 .byte   W24
@  #05 @026   ----------------------------------------
 .byte   W96
@  #05 @027   ----------------------------------------
 .byte   Cn2
 .byte   W36
 .byte   N11
 .byte   W36
 .byte   N23 ,Fn1
 .byte   W24
@  #05 @028   ----------------------------------------
 .byte   W96
@  #05 @029   ----------------------------------------
 .byte   Gn1
 .byte   W36
 .byte   N11
 .byte   W36
 .byte   N23 ,Cn2
 .byte   W24
@  #05 @030   ----------------------------------------
 .byte   W96
@  #05 @031   ----------------------------------------
 .byte   PATT
  .word Label_016FB517
@  #05 @032   ----------------------------------------
 .byte   N11 ,Cn1 ,v064
 .byte   W12
 .byte   Dn1
 .byte   W24
 .byte   Ds1
 .byte   W24
 .byte   Gn1
 .byte   W24
 .byte   Cn1
 .byte   W12
@  #05 @033   ----------------------------------------
Label_016FB54C:
 .byte   N23 ,Gn0 ,v064
 .byte   W36
 .byte   N11
 .byte   W36
 .byte   N23 ,Cn1
 .byte   W24
 .byte   PEND 
@  #05 @034   ----------------------------------------
Label_016FB556:
 .byte   N23 ,Dn2 ,v064
 .byte   W24
 .byte   N11 ,As1
 .byte   W12
 .byte   Gn1
 .byte   W24
 .byte   N23 ,Fn1
 .byte   W24
 .byte   N11 ,Dn1
 .byte   W12
 .byte   PEND 
@  #05 @035   ----------------------------------------
 .byte   PATT
  .word Label_016FB502
@  #05 @036   ----------------------------------------
Label_016FB56B:
 .byte   N11 ,Gn1 ,v064
 .byte   W12
 .byte   Cn1
 .byte   W24
 .byte   Ds1
 .byte   W24
 .byte   Fn1
 .byte   W36
 .byte   PEND 
@  #05 @037   ----------------------------------------
 .byte   PATT
  .word Label_016FB54C
@  #05 @038   ----------------------------------------
 .byte   N11 ,Cn1 ,v064
 .byte   W12
 .byte   Dn1
 .byte   W24
 .byte   Ds1
 .byte   W24
 .byte   Fn1
 .byte   W24
 .byte   Gn1
 .byte   W12
@  #05 @039   ----------------------------------------
 .byte   N23 ,As1
 .byte   W24
 .byte   N11 ,Gn1
 .byte   W12
 .byte   Ds1
 .byte   W36
 .byte   Cn1
 .byte   W12
 .byte   Dn1
 .byte   W12
@  #05 @040   ----------------------------------------
 .byte   Ds1
 .byte   W12
 .byte   Fn1
 .byte   W24
 .byte   Gn1
 .byte   W24
 .byte   As1
 .byte   W36
@  #05 @041   ----------------------------------------
 .byte   PATT
  .word Label_016FB54C
@  #05 @042   ----------------------------------------
 .byte   PATT
  .word Label_016FB556
@  #05 @043   ----------------------------------------
 .byte   PATT
  .word Label_016FB502
@  #05 @044   ----------------------------------------
 .byte   PATT
  .word Label_016FB56B
@  #05 @045   ----------------------------------------
 .byte   PATT
  .word Label_016FB54C
@  #05 @046   ----------------------------------------
 .byte   W96
@  #05 @047   ----------------------------------------
 .byte   W96
@  #05 @048   ----------------------------------------
Label_016FB5B6:
 .byte   N68 ,Cn1 ,v112
 .byte   W72
 .byte   N11
 .byte   W12
 .byte   N23 ,Ds0
 .byte   W12
 .byte   PEND 
@  #05 @049   ----------------------------------------
Label_016FB5C0:
 .byte   W12
 .byte   N11 ,Ds0 ,v112
 .byte   W12
 .byte   N68
 .byte   W72
 .byte   PEND 
@  #05 @050   ----------------------------------------
Label_016FB5C8:
 .byte   N68 ,As0 ,v112
 .byte   W72
 .byte   N11
 .byte   W12
 .byte   N23
 .byte   W12
 .byte   PEND 
@  #05 @051   ----------------------------------------
Label_016FB5D1:
 .byte   W12
 .byte   N11 ,As0 ,v112
 .byte   W12
 .byte   N68
 .byte   W72
 .byte   PEND 
@  #05 @052   ----------------------------------------
Label_016FB5D9:
 .byte   N68 ,Cn1 ,v112
 .byte   W72
 .byte   N11
 .byte   W12
 .byte   TIE ,Ds0
 .byte   W12
 .byte   PEND 
@  #05 @053   ----------------------------------------
 .byte   W92
 .byte   W03
 .byte   EOT
 .byte   W01
@  #05 @054   ----------------------------------------
 .byte   N44 ,Fn0
 .byte   W48
 .byte   N23
 .byte   W24
 .byte   N11
 .byte   W12
 .byte   N23 ,Gn0
 .byte   W12
@  #05 @055   ----------------------------------------
 .byte   W12
 .byte   N32
 .byte   W36
 .byte   N44
 .byte   W48
@  #05 @056   ----------------------------------------
 .byte   PATT
  .word Label_016FB5B6
@  #05 @057   ----------------------------------------
 .byte   PATT
  .word Label_016FB5C0
@  #05 @058   ----------------------------------------
 .byte   PATT
  .word Label_016FB5C8
@  #05 @059   ----------------------------------------
 .byte   PATT
  .word Label_016FB5D1
@  #05 @060   ----------------------------------------
 .byte   PATT
  .word Label_016FB5D9
@  #05 @061   ----------------------------------------
 .byte   W92
 .byte   W03
 .byte   EOT
 .byte   Ds0
 .byte   W01
@  #05 @062   ----------------------------------------
 .byte   N44 ,Fn0 ,v112
 .byte   W48
 .byte   N23
 .byte   W24
 .byte   N11 ,Gn0
 .byte   W24
@  #05 @063   ----------------------------------------
 .byte   W48
 .byte   N68 ,An0
 .byte   W48
@  #05 @064   ----------------------------------------
 .byte   W24
 .byte   N23
 .byte   W24
 .byte   N23
 .byte   W24
 .byte   N23
 .byte   W24
@  #05 @065   ----------------------------------------
 .byte   Fn0
 .byte   W24
 .byte   N23
 .byte   W24
 .byte   N23
 .byte   W24
 .byte   N23
 .byte   W24
@  #05 @066   ----------------------------------------
Label_016FB630:
 .byte   N23 ,Gn0 ,v112
 .byte   W24
 .byte   N23
 .byte   W24
 .byte   N23
 .byte   W24
 .byte   N23
 .byte   W24
 .byte   PEND 
@  #05 @067   ----------------------------------------
 .byte   PATT
  .word Label_016FB630
@  #05 @068   ----------------------------------------
 .byte   N68 ,Cn1 ,v112
 .byte   W72
 .byte   N92
 .byte   W24
@  #05 @069   ----------------------------------------
 .byte   W72
 .byte   TIE
 .byte   W24
@  #05 @070   ----------------------------------------
 .byte   W96
@  #05 @071   ----------------------------------------
 .byte   W92
 .byte   W03
 .byte   EOT
 .byte   W01
@  #05 @072   ----------------------------------------
 .byte   GOTO
  .word Label_016FB4DE
 .byte   FINE

@**************** Track 6 (Midi-Chn.5) ****************@

songC0_006:
@  #06 @000   ----------------------------------------
 .byte   KEYSH , songC0_key+0
Label_01713486:
 .byte   VOICE , 0
 .byte   VOL , 42*songC0_mvl/mxv
 .byte   PAN , c_v+0
 .byte   W96
@  #06 @001   ----------------------------------------
 .byte   W96
@  #06 @002   ----------------------------------------
 .byte   W96
@  #06 @003   ----------------------------------------
 .byte   W96
@  #06 @004   ----------------------------------------
 .byte   W96
@  #06 @005   ----------------------------------------
 .byte   W96
@  #06 @006   ----------------------------------------
 .byte   W96
@  #06 @007   ----------------------------------------
 .byte   W96
@  #06 @008   ----------------------------------------
 .byte   N22 ,Cs4 ,v064
 .byte   N22 ,Fn4
 .byte   W36
 .byte   N11 ,Cn4
 .byte   N11 ,Ds4
 .byte   W60
@  #06 @009   ----------------------------------------
 .byte   W48
 .byte   N22 ,Cs4
 .byte   N22 ,Fn4
 .byte   W48
@  #06 @010   ----------------------------------------
 .byte   Cn4
 .byte   N22 ,Ds4
 .byte   W36
 .byte   N11 ,Cn4
 .byte   N11 ,Ds4
 .byte   W36
 .byte   TIE ,Fn3
 .byte   TIE ,Ds4
 .byte   TIE ,Gs4
 .byte   W24
@  #06 @011   ----------------------------------------
 .byte   W88
 .byte   W01
 .byte   EOT
 .byte   Fn3 ,v075
 .byte   Gs4
 .byte   W07
@  #06 @012   ----------------------------------------
 .byte   N22 ,Cs4
 .byte   N22 ,Fn4
 .byte   W36
 .byte   N11 ,Cn4
 .byte   N11 ,Ds4
 .byte   W36
 .byte   As3
 .byte   N11 ,Cs4
 .byte   W12
 .byte   Cn4
 .byte   N11 ,Ds4
 .byte   W12
@  #06 @013   ----------------------------------------
 .byte   W48
 .byte   N22 ,Cs4
 .byte   N22 ,Fn4
 .byte   W24
 .byte   Cn4
 .byte   N22 ,Ds4
 .byte   W24
@  #06 @014   ----------------------------------------
 .byte   TIE ,Fn3
 .byte   TIE ,Ds4
 .byte   TIE ,Gs4
 .byte   W96
@  #06 @015   ----------------------------------------
 .byte   W84
 .byte   W02
 .byte   EOT
 .byte   Fn3 ,v075
 .byte   Gs4
 .byte   W10
@  #06 @016   ----------------------------------------
 .byte   W36
 .byte   N22 ,As3 ,v052
 .byte   N22 ,As4
 .byte   N22 ,Cs5
 .byte   W60
@  #06 @017   ----------------------------------------
 .byte   Ds3 ,v064
 .byte   N22 ,Gn3
 .byte   N22 ,As3
 .byte   W36
 .byte   Ds3
 .byte   N22 ,Gn3
 .byte   N22 ,As3
 .byte   W36
 .byte   N11 ,Cn3
 .byte   N11 ,Ds3
 .byte   N11 ,Gs3
 .byte   W24
@  #06 @018   ----------------------------------------
 .byte   W36
 .byte   N11
 .byte   N11 ,Gs4
 .byte   N11 ,Cn5
 .byte   W60
@  #06 @019   ----------------------------------------
 .byte   N22 ,Fn3
 .byte   N22 ,Gs3
 .byte   N22 ,Cn4
 .byte   W36
 .byte   Ds3
 .byte   N22 ,Gn3
 .byte   N22 ,As3
 .byte   W36
 .byte   Ds3
 .byte   N22 ,Gn3
 .byte   W24
@  #06 @020   ----------------------------------------
 .byte   W24
 .byte   N11 ,Cn4
 .byte   N11 ,Gs4
 .byte   N11 ,Cn5
 .byte   W72
@  #06 @021   ----------------------------------------
 .byte   N22 ,Fn3
 .byte   N22 ,Gs3
 .byte   N22 ,Cn4
 .byte   W36
 .byte   Ds3
 .byte   N22 ,Gn3
 .byte   N22 ,As3
 .byte   W36
 .byte   Ds3
 .byte   N22 ,Gn3
 .byte   N22 ,Cn4
 .byte   W24
@  #06 @022   ----------------------------------------
 .byte   W24
 .byte   N11
 .byte   N11 ,Cn5
 .byte   N11 ,Ds5
 .byte   W72
@  #06 @023   ----------------------------------------
 .byte   N22 ,Dn3
 .byte   N22 ,Fn3
 .byte   N22 ,As3
 .byte   W36
 .byte   Dn3
 .byte   N22 ,Fn3
 .byte   N22 ,As3
 .byte   W36
 .byte   Cn3
 .byte   N22 ,Ds3
 .byte   N22 ,Gs3
 .byte   W24
@  #06 @024   ----------------------------------------
 .byte   N11 ,Gs2
 .byte   W12
 .byte   N11
 .byte   W84
@  #06 @025   ----------------------------------------
 .byte   N22 ,Cn3
 .byte   N22 ,Ds3
 .byte   N22 ,Gs3
 .byte   W36
 .byte   Cn3
 .byte   N22 ,Ds3
 .byte   N22 ,Gs3
 .byte   W36
 .byte   Cn3
 .byte   N22 ,Ds3
 .byte   N22 ,Gn3
 .byte   W24
@  #06 @026   ----------------------------------------
 .byte   W96
@  #06 @027   ----------------------------------------
 .byte   Ds3
 .byte   N22 ,Gn3
 .byte   N22 ,Cn4
 .byte   W36
 .byte   Ds3
 .byte   N22 ,Gn3
 .byte   N22 ,Cn4
 .byte   W36
 .byte   Fn3
 .byte   N22 ,Gs3
 .byte   N22 ,Cn4
 .byte   W24
@  #06 @028   ----------------------------------------
 .byte   W96
@  #06 @029   ----------------------------------------
 .byte   Dn3
 .byte   N22 ,Gn3
 .byte   N22 ,As3
 .byte   W36
 .byte   Dn3
 .byte   N22 ,Gn3
 .byte   N22 ,As3
 .byte   W36
 .byte   Ds3
 .byte   N22 ,Gn3
 .byte   N22 ,Cn4
 .byte   W24
@  #06 @030   ----------------------------------------
 .byte   W96
@  #06 @031   ----------------------------------------
 .byte   As1 ,v080
 .byte   N22 ,As2
 .byte   N22 ,As3
 .byte   W36
 .byte   N11 ,Ds1
 .byte   N11 ,Ds2
 .byte   N11 ,Ds3
 .byte   W36
 .byte   N22 ,Gs1
 .byte   N22 ,Gs2
 .byte   N22 ,Gs3
 .byte   W24
@  #06 @032   ----------------------------------------
 .byte   N11 ,Cn2
 .byte   N32 ,Gs2
 .byte   N32 ,Ds3
 .byte   N32 ,Gs3
 .byte   W12
 .byte   N11 ,Dn2
 .byte   W24
 .byte   Ds2
 .byte   N32 ,Gs2
 .byte   N32 ,Ds3
 .byte   N32 ,Gs3
 .byte   W24
 .byte   N11 ,Gn2
 .byte   W12
 .byte   N22 ,Gs2
 .byte   N22 ,Ds3
 .byte   N22 ,Gs3
 .byte   W12
 .byte   N11 ,Cn2
 .byte   W12
@  #06 @033   ----------------------------------------
Label_017135C5:
 .byte   N22 ,Gn1 ,v080
 .byte   N32 ,Gn2
 .byte   N32 ,Dn3
 .byte   N32 ,Gn3
 .byte   W36
 .byte   N11 ,Gn1
 .byte   N32 ,Gn2
 .byte   N32 ,Dn3
 .byte   N32 ,Gn3
 .byte   W36
 .byte   N22 ,Cn2
 .byte   N22 ,Gn2
 .byte   N22 ,Dn3
 .byte   N22 ,Gn3
 .byte   N22 ,Cn4
 .byte   W24
 .byte   PEND 
@  #06 @034   ----------------------------------------
Label_017135E4:
 .byte   N32 ,Cn3 ,v080
 .byte   N22 ,Dn3
 .byte   N32 ,Gn3
 .byte   N32 ,Cn4
 .byte   W24
 .byte   N11 ,As2
 .byte   W12
 .byte   Gn2
 .byte   N32 ,Cn3
 .byte   N32 ,Gn3
 .byte   N32 ,Cn4
 .byte   W24
 .byte   N22 ,Fn2
 .byte   W12
 .byte   Cn3
 .byte   N22 ,Gn3
 .byte   N22 ,Cn4
 .byte   W12
 .byte   N11 ,Dn2
 .byte   W12
 .byte   PEND 
@  #06 @035   ----------------------------------------
 .byte   N22 ,Fn1
 .byte   N22 ,Gn3
 .byte   W36
 .byte   N11 ,Gn1
 .byte   N11 ,Cn3
 .byte   W36
 .byte   N22 ,Ds1
 .byte   N22 ,Ds3
 .byte   W24
@  #06 @036   ----------------------------------------
Label_01713615:
 .byte   N11 ,Gn2 ,v080
 .byte   N32 ,Gs2
 .byte   N32 ,Ds3
 .byte   N32 ,Gs3
 .byte   W12
 .byte   N11 ,Cn2
 .byte   W24
 .byte   Ds2
 .byte   N32 ,Gs2
 .byte   N32 ,Ds3
 .byte   N32 ,Gs3
 .byte   W24
 .byte   N11 ,Fn2
 .byte   W12
 .byte   N22 ,Gs2
 .byte   N22 ,Ds3
 .byte   N22 ,Gs3
 .byte   W24
 .byte   PEND 
@  #06 @037   ----------------------------------------
 .byte   PATT
  .word Label_017135C5
@  #06 @038   ----------------------------------------
 .byte   N11 ,Cn2 ,v080
 .byte   N32 ,Cn3
 .byte   N32 ,Gn3
 .byte   N32 ,Cn4
 .byte   W12
 .byte   N11 ,Dn2
 .byte   W24
 .byte   Ds2
 .byte   N32 ,Cn3
 .byte   N32 ,Gn3
 .byte   N32 ,Cn4
 .byte   W24
 .byte   N11 ,Fn2
 .byte   W12
 .byte   N22 ,Cn3
 .byte   N22 ,Gn3
 .byte   N22 ,Cn4
 .byte   W12
 .byte   N11 ,Gn2
 .byte   W12
@  #06 @039   ----------------------------------------
 .byte   N22 ,As3
 .byte   W24
 .byte   N11 ,Gn2
 .byte   W12
 .byte   Ds2
 .byte   N11 ,Ds3
 .byte   W36
 .byte   Cn2
 .byte   N22 ,Gs2
 .byte   N22 ,Gs3
 .byte   W12
 .byte   N11 ,Dn2
 .byte   W12
@  #06 @040   ----------------------------------------
 .byte   Ds2
 .byte   N32 ,Gs2
 .byte   N32 ,Ds3
 .byte   N32 ,Gs3
 .byte   W12
 .byte   N11 ,Fn2
 .byte   W24
 .byte   Gn2
 .byte   N32 ,Gs2
 .byte   N32 ,Ds3
 .byte   N32 ,Gs3
 .byte   W24
 .byte   N11 ,As2
 .byte   W12
 .byte   N22 ,Gs2
 .byte   N22 ,Ds3
 .byte   N22 ,Gs3
 .byte   W24
@  #06 @041   ----------------------------------------
 .byte   PATT
  .word Label_017135C5
@  #06 @042   ----------------------------------------
 .byte   PATT
  .word Label_017135E4
@  #06 @043   ----------------------------------------
 .byte   N22 ,Fn1 ,v080
 .byte   N22 ,As2
 .byte   N22 ,As3
 .byte   W36
 .byte   N11 ,Gn1
 .byte   N11 ,Ds3
 .byte   W36
 .byte   N22 ,Ds1
 .byte   N22 ,Gs2
 .byte   N22 ,Gs3
 .byte   W24
@  #06 @044   ----------------------------------------
 .byte   PATT
  .word Label_01713615
@  #06 @045   ----------------------------------------
 .byte   N22 ,Gn1 ,v080
 .byte   N32 ,Gn2
 .byte   N32 ,Dn3
 .byte   N32 ,Gn3
 .byte   W36
 .byte   N11 ,Gn1
 .byte   N32 ,Gn2
 .byte   N32 ,Dn3
 .byte   N32 ,Gn3
 .byte   W36
 .byte   N22 ,Cn2
 .byte   W24
@  #06 @046   ----------------------------------------
 .byte   W96
@  #06 @047   ----------------------------------------
 .byte   W48
 .byte   N03 ,Ds3 ,v064
 .byte   W01
 .byte   W01
 .byte   W01
 .byte   W01
 .byte   Fn3 ,v068
 .byte   W01
 .byte   W01
 .byte   W01
 .byte   W01
 .byte   Gn3 ,v072
 .byte   W01
 .byte   W01
 .byte   W01
 .byte   W01
 .byte   Gs3 ,v076
 .byte   W01
 .byte   W01
 .byte   W01
 .byte   W01
 .byte   As3 ,v080
 .byte   W01
 .byte   W01
 .byte   W01
 .byte   W01
 .byte   Cn4 ,v084
 .byte   W01
 .byte   W01
 .byte   W01
 .byte   W01
 .byte   Dn4 ,v088
 .byte   W01
 .byte   W01
 .byte   W01
 .byte   W01
 .byte   Ds4 ,v092
 .byte   W01
 .byte   W01
 .byte   W01
 .byte   W01
 .byte   Fn4 ,v096
 .byte   W01
 .byte   W01
 .byte   W01
 .byte   W01
 .byte   Gn4 ,v100
 .byte   W01
 .byte   W01
 .byte   W01
 .byte   W01
 .byte   Gs4 ,v104
 .byte   W01
 .byte   W01
 .byte   W01
 .byte   W01
 .byte   As4 ,v108
 .byte   W01
 .byte   W01
 .byte   W01
 .byte   W01
@  #06 @048   ----------------------------------------
Label_01713710:
 .byte   N22 ,Cn2 ,v096
 .byte   N22 ,Gn2
 .byte   N90 ,Cn3
 .byte   N90 ,Cn4
 .byte   N90 ,Cn5
 .byte   W24
 .byte   N22 ,Cn2
 .byte   N22 ,Gn2
 .byte   W24
 .byte   Cn2
 .byte   N22 ,Gn2
 .byte   W24
 .byte   Cn2
 .byte   N22 ,Gn2
 .byte   W24
 .byte   PEND 
@  #06 @049   ----------------------------------------
Label_0171372A:
 .byte   N22 ,As1 ,v096
 .byte   N90 ,Ds3
 .byte   N90 ,Ds4
 .byte   W24
 .byte   N22 ,As1
 .byte   N24 ,Ds2
 .byte   W24
 .byte   N22 ,As1
 .byte   N24 ,Ds2
 .byte   W24
 .byte   N22 ,As1
 .byte   N22 ,Ds2
 .byte   W24
 .byte   PEND 
@  #06 @050   ----------------------------------------
Label_01713742:
 .byte   N22 ,As1 ,v096
 .byte   N22 ,Fn2
 .byte   N90 ,As2
 .byte   N90 ,As3
 .byte   N90 ,As4
 .byte   W24
 .byte   N22 ,As1
 .byte   N22 ,Fn2
 .byte   W24
 .byte   As1
 .byte   N22 ,Fn2
 .byte   W24
 .byte   As1
 .byte   N22 ,Fn2
 .byte   W24
 .byte   PEND 
@  #06 @051   ----------------------------------------
 .byte   PATT
  .word Label_01713742
@  #06 @052   ----------------------------------------
Label_01713761:
 .byte   N22 ,Cn2 ,v096
 .byte   N22 ,Gn2
 .byte   W24
 .byte   Cn2
 .byte   N22 ,Gn2
 .byte   W24
 .byte   Cn2
 .byte   N22 ,Gn2
 .byte   W24
 .byte   Cn2
 .byte   N22 ,Gn2
 .byte   W24
 .byte   PEND 
@  #06 @053   ----------------------------------------
Label_01713774:
 .byte   N22 ,As1 ,v096
 .byte   N22 ,Ds2
 .byte   W24
 .byte   As1
 .byte   N22 ,Ds2
 .byte   W24
 .byte   As1
 .byte   N22 ,Ds2
 .byte   W24
 .byte   As1
 .byte   N22 ,Ds2
 .byte   W24
 .byte   PEND 
@  #06 @054   ----------------------------------------
 .byte   Cn2
 .byte   N22 ,Fn2
 .byte   W24
 .byte   Cn2
 .byte   N22 ,Fn2
 .byte   W24
 .byte   Cn2
 .byte   N22 ,Fn2
 .byte   W24
 .byte   Cn2
 .byte   N22 ,Fn2
 .byte   W24
@  #06 @055   ----------------------------------------
 .byte   Dn2
 .byte   N22 ,Gn2
 .byte   W24
 .byte   Dn2
 .byte   N22 ,Gn2
 .byte   W24
 .byte   Dn2
 .byte   N22 ,Gn2
 .byte   W24
 .byte   Dn2
 .byte   N22 ,Gn2
 .byte   W24
@  #06 @056   ----------------------------------------
 .byte   PATT
  .word Label_01713710
@  #06 @057   ----------------------------------------
 .byte   PATT
  .word Label_0171372A
@  #06 @058   ----------------------------------------
 .byte   PATT
  .word Label_01713742
@  #06 @059   ----------------------------------------
 .byte   PATT
  .word Label_01713742
@  #06 @060   ----------------------------------------
 .byte   PATT
  .word Label_01713761
@  #06 @061   ----------------------------------------
 .byte   PATT
  .word Label_01713774
@  #06 @062   ----------------------------------------
 .byte   N22 ,Cn2 ,v096
 .byte   N22 ,Fn2
 .byte   W24
 .byte   Cn2
 .byte   N22 ,Fn2
 .byte   W24
 .byte   Cn2
 .byte   N22 ,Fn2
 .byte   W24
 .byte   N11 ,Dn2
 .byte   N11 ,Gn2
 .byte   W24
@  #06 @063   ----------------------------------------
 .byte   W96
@  #06 @064   ----------------------------------------
 .byte   W96
@  #06 @065   ----------------------------------------
 .byte   W96
@  #06 @066   ----------------------------------------
 .byte   W96
@  #06 @067   ----------------------------------------
 .byte   W96
@  #06 @068   ----------------------------------------
 .byte   W96
@  #06 @069   ----------------------------------------
 .byte   W96
@  #06 @070   ----------------------------------------
 .byte   W96
@  #06 @071   ----------------------------------------
 .byte   W96
@  #06 @072   ----------------------------------------
 .byte   GOTO
  .word Label_01713486
 .byte   FINE

@**************** Track 7 (Midi-Chn.6) ****************@

songC0_007:
@  #07 @000   ----------------------------------------
 .byte   KEYSH , songC0_key+0
Label_017137FE:
 .byte   VOICE , 89
 .byte   VOL , 42*songC0_mvl/mxv
 .byte   PAN , c_v+0
 .byte   W96
@  #07 @001   ----------------------------------------
 .byte   W96
@  #07 @002   ----------------------------------------
 .byte   W96
@  #07 @003   ----------------------------------------
 .byte   W96
@  #07 @004   ----------------------------------------
 .byte   W96
@  #07 @005   ----------------------------------------
 .byte   W48
 .byte   N44 ,Cn4 ,v080
 .byte   N44 ,Ds4
 .byte   W48
@  #07 @006   ----------------------------------------
 .byte   TIE ,Gs2
 .byte   TIE ,Ds3
 .byte   TIE ,Fn3
 .byte   TIE ,Ds4
 .byte   TIE ,Gs4
 .byte   W96
@  #07 @007   ----------------------------------------
 .byte   W92
 .byte   W03
 .byte   EOT
 .byte   Gs2 ,v063
 .byte   Fn3 ,v075
 .byte   Gs4
 .byte   W01
@  #07 @008   ----------------------------------------
 .byte   N23 ,As1 ,v064
 .byte   N23 ,Cs3
 .byte   N23 ,As3
 .byte   N23 ,Cs4
 .byte   N23 ,As4
 .byte   W36
 .byte   N11 ,Cn2
 .byte   N11 ,Ds3
 .byte   N11 ,Cn4
 .byte   N11 ,Ds4
 .byte   N11 ,Cn5
 .byte   W36
 .byte   As3
 .byte   N11 ,Cs4
 .byte   W12
 .byte   Cn4
 .byte   N11 ,Ds4
 .byte   W12
@  #07 @009   ----------------------------------------
 .byte   W48
 .byte   N23 ,As1
 .byte   N23 ,Cs3
 .byte   N23 ,As3
 .byte   N23 ,Cs4
 .byte   N23 ,As4
 .byte   W48
@  #07 @010   ----------------------------------------
 .byte   Cn2
 .byte   N23 ,Ds3
 .byte   N23 ,Cn4
 .byte   N23 ,Ds4
 .byte   N23 ,Cn5
 .byte   W36
 .byte   N11 ,Cn2
 .byte   N11 ,Ds3
 .byte   N11 ,Cn4
 .byte   N11 ,Ds4
 .byte   N11 ,Cn5
 .byte   W36
 .byte   TIE ,Fn1
 .byte   TIE ,Gs2
 .byte   TIE ,Ds3
 .byte   TIE ,Fn3
 .byte   TIE ,Ds4
 .byte   TIE ,Gs4
 .byte   W24
@  #07 @011   ----------------------------------------
 .byte   W92
 .byte   W03
 .byte   EOT
 .byte   Fn1 ,v056
 .byte   Ds3 ,v065
 .byte   Ds4 ,v080
 .byte   W01
@  #07 @012   ----------------------------------------
 .byte   N23 ,As1
 .byte   W36
 .byte   N11 ,Cn2
 .byte   W60
@  #07 @013   ----------------------------------------
 .byte   W48
 .byte   N23 ,As1
 .byte   W24
 .byte   Cn2
 .byte   W24
@  #07 @014   ----------------------------------------
 .byte   TIE ,Fn1
 .byte   W96
@  #07 @015   ----------------------------------------
 .byte   W92
 .byte   W03
 .byte   EOT
 .byte   W01
@  #07 @016   ----------------------------------------
 .byte   N11 ,As1
 .byte   N17 ,As2
 .byte   N17 ,Cs3
 .byte   W36
 .byte   N23 ,As3 ,v052
 .byte   N23 ,As4
 .byte   N23 ,Cs5
 .byte   W60
@  #07 @017   ----------------------------------------
 .byte   W96
@  #07 @018   ----------------------------------------
 .byte   W36
 .byte   N11 ,Gs3
 .byte   N11 ,Gs4
 .byte   N11 ,Cn5
 .byte   W60
@  #07 @019   ----------------------------------------
 .byte   W96
@  #07 @020   ----------------------------------------
 .byte   W24
 .byte   Cn4
 .byte   N11 ,Gs4
 .byte   N11 ,Cn5
 .byte   W72
@  #07 @021   ----------------------------------------
 .byte   W96
@  #07 @022   ----------------------------------------
 .byte   W24
 .byte   Cn4
 .byte   N11 ,Cn5
 .byte   N11 ,Ds5
 .byte   W72
@  #07 @023   ----------------------------------------
 .byte   W96
@  #07 @024   ----------------------------------------
 .byte   N23 ,Gs4
 .byte   W96
@  #07 @025   ----------------------------------------
 .byte   W96
@  #07 @026   ----------------------------------------
 .byte   W96
@  #07 @027   ----------------------------------------
 .byte   W96
@  #07 @028   ----------------------------------------
 .byte   W96
@  #07 @029   ----------------------------------------
 .byte   W96
@  #07 @030   ----------------------------------------
 .byte   W96
@  #07 @031   ----------------------------------------
Label_017138C0:
 .byte   N23 ,As1 ,v096
 .byte   N23 ,As2
 .byte   N23 ,As3
 .byte   W36
 .byte   N11 ,Ds1
 .byte   N11 ,Ds2
 .byte   N11 ,Ds3
 .byte   W36
 .byte   N23 ,Gs1
 .byte   N23 ,Gs2
 .byte   N23 ,Gs3
 .byte   W24
 .byte   PEND 
@  #07 @032   ----------------------------------------
Label_017138D7:
 .byte   N92 ,Gs1 ,v096
 .byte   N92 ,Ds2
 .byte   N92 ,Gs2
 .byte   W60
 .byte   N11 ,Ds3
 .byte   N11 ,Ds4
 .byte   W12
 .byte   Fn3
 .byte   N11 ,Fn4
 .byte   W12
 .byte   Ds3
 .byte   N11 ,Ds4
 .byte   W12
 .byte   PEND 
@  #07 @033   ----------------------------------------
Label_017138ED:
 .byte   N68 ,Gn1 ,v096
 .byte   N68 ,Dn2
 .byte   N68 ,Gn2
 .byte   N32 ,Dn3
 .byte   N32 ,Dn4
 .byte   W36
 .byte   Dn3
 .byte   N32 ,Dn4
 .byte   W36
 .byte   N23 ,Gn1
 .byte   N23 ,Dn2
 .byte   N23 ,Gn2
 .byte   N23 ,Cn3
 .byte   N23 ,Ds3
 .byte   N23 ,Ds4
 .byte   W24
 .byte   PEND 
@  #07 @034   ----------------------------------------
Label_0171390B:
 .byte   N92 ,Cn2 ,v096
 .byte   N92 ,Gn2
 .byte   N92 ,Cn3
 .byte   W96
 .byte   PEND 
@  #07 @035   ----------------------------------------
 .byte   N23 ,Gn2
 .byte   N23 ,Gn3
 .byte   W36
 .byte   N11 ,Cn2
 .byte   N11 ,Cn3
 .byte   W36
 .byte   N23 ,Ds2
 .byte   N23 ,Ds3
 .byte   W24
@  #07 @036   ----------------------------------------
 .byte   PATT
  .word Label_017138D7
@  #07 @037   ----------------------------------------
 .byte   N68 ,Gn1 ,v096
 .byte   N68 ,Dn2
 .byte   N68 ,Gn2
 .byte   N32 ,Dn3
 .byte   N32 ,Dn4
 .byte   W36
 .byte   Dn3
 .byte   N32 ,Dn4
 .byte   W36
 .byte   N23 ,Gn1
 .byte   N23 ,Dn2
 .byte   N23 ,Gn2
 .byte   N23 ,Cn4
 .byte   W24
@  #07 @038   ----------------------------------------
 .byte   PATT
  .word Label_0171390B
@  #07 @039   ----------------------------------------
 .byte   PATT
  .word Label_017138C0
@  #07 @040   ----------------------------------------
 .byte   PATT
  .word Label_017138D7
@  #07 @041   ----------------------------------------
 .byte   PATT
  .word Label_017138ED
@  #07 @042   ----------------------------------------
 .byte   PATT
  .word Label_0171390B
@  #07 @043   ----------------------------------------
 .byte   PATT
  .word Label_017138C0
@  #07 @044   ----------------------------------------
 .byte   PATT
  .word Label_017138D7
@  #07 @045   ----------------------------------------
 .byte   N23 ,Gn1 ,v096
 .byte   N23 ,Dn2
 .byte   N23 ,Gn2
 .byte   N32 ,Dn3
 .byte   N32 ,Dn4
 .byte   W36
 .byte   Dn3
 .byte   N32 ,Dn4
 .byte   W36
 .byte   N23 ,Cn3
 .byte   N23 ,Cn4
 .byte   W24
@  #07 @046   ----------------------------------------
 .byte   W96
@  #07 @047   ----------------------------------------
 .byte   W96
@  #07 @048   ----------------------------------------
 .byte   N80 ,Cn2
 .byte   N80 ,Gn2
 .byte   W84
 .byte   TIE ,As1
 .byte   TIE ,Ds2
 .byte   W12
@  #07 @049   ----------------------------------------
 .byte   W92
 .byte   W03
 .byte   EOT
 .byte   As1 ,v051
 .byte   W01
@  #07 @050   ----------------------------------------
Label_0171398B:
 .byte   N80 ,As1 ,v096
 .byte   N80 ,Fn2
 .byte   W84
 .byte   TIE ,As1
 .byte   TIE ,Fn2
 .byte   W12
 .byte   PEND 
@  #07 @051   ----------------------------------------
 .byte   W92
 .byte   W03
 .byte   EOT
 .byte   As1 ,v053
 .byte   W01
@  #07 @052   ----------------------------------------
Label_0171399D:
 .byte   N68 ,Cn2 ,v096
 .byte   W72
 .byte   N11
 .byte   W12
 .byte   TIE ,Ds1
 .byte   W12
 .byte   PEND 
@  #07 @053   ----------------------------------------
 .byte   W92
 .byte   W03
 .byte   EOT
 .byte   W01
@  #07 @054   ----------------------------------------
 .byte   N44 ,Fn1
 .byte   N92 ,Cn4
 .byte   W48
 .byte   N23 ,Fn1
 .byte   W24
 .byte   N11
 .byte   W12
 .byte   N23 ,Gn1
 .byte   W12
@  #07 @055   ----------------------------------------
 .byte   N92 ,Dn4
 .byte   W12
 .byte   N32 ,Gn1
 .byte   W36
 .byte   N44
 .byte   W48
@  #07 @056   ----------------------------------------
 .byte   N80 ,Cn2
 .byte   N80 ,Gn2
 .byte   TIE ,Ds4
 .byte   W84
 .byte   As1
 .byte   TIE ,Ds2
 .byte   W12
@  #07 @057   ----------------------------------------
 .byte   W92
 .byte   W03
 .byte   EOT
 .byte   As1 ,v051
 .byte   W01
@  #07 @058   ----------------------------------------
 .byte   PATT
  .word Label_0171398B
@  #07 @059   ----------------------------------------
 .byte   W92
 .byte   W03
 .byte   EOT
 .byte   As1 ,v053
 .byte   Ds4
 .byte   W01
@  #07 @060   ----------------------------------------
 .byte   PATT
  .word Label_0171399D
@  #07 @061   ----------------------------------------
 .byte   W92
 .byte   W03
 .byte   EOT
 .byte   Ds1
 .byte   W01
@  #07 @062   ----------------------------------------
 .byte   N44 ,Fn1 ,v096
 .byte   W48
 .byte   N23
 .byte   W24
 .byte   N11 ,Gn1
 .byte   W24
@  #07 @063   ----------------------------------------
 .byte   W48
 .byte   TIE ,An1
 .byte   TIE ,En2
 .byte   TIE ,An3
 .byte   TIE ,En4
 .byte   W48
@  #07 @064   ----------------------------------------
 .byte   W92
 .byte   W03
 .byte   EOT
 .byte   An1 ,v052
 .byte   An3 ,v076
 .byte   W01
@  #07 @065   ----------------------------------------
 .byte   N92 ,Fn1
 .byte   N92 ,Cn2
 .byte   N92 ,Fn2
 .byte   N92 ,Fn3
 .byte   N92 ,Cn4
 .byte   W96
@  #07 @066   ----------------------------------------
Label_01713A0D:
 .byte   N92 ,Gn1 ,v096
 .byte   N92 ,Dn2
 .byte   N92 ,Gn2
 .byte   N92 ,Gn3
 .byte   N92 ,Dn4
 .byte   W96
 .byte   PEND 
@  #07 @067   ----------------------------------------
 .byte   PATT
  .word Label_01713A0D
@  #07 @068   ----------------------------------------
 .byte   W96
@  #07 @069   ----------------------------------------
 .byte   W96
@  #07 @070   ----------------------------------------
 .byte   W96
@  #07 @071   ----------------------------------------
 .byte   W96
@  #07 @072   ----------------------------------------
 .byte   GOTO
  .word Label_017137FE
 .byte   FINE

@**************** Track 8 (Midi-Chn.7) ****************@

songC0_008:
@  #08 @000   ----------------------------------------
 .byte   KEYSH , songC0_key+0
Label_01713A3E:
 .byte   VOICE , 121
 .byte   VOL , 42*songC0_mvl/mxv
 .byte   PAN , c_v+0
 .byte   N11 ,Fs1 ,v096
 .byte   W03
 .byte   W01
 .byte   W01
 .byte   W07
 .byte   Fs1 ,v080
 .byte   W12
 .byte   N11
 .byte   W12
 .byte   N11
 .byte   W12
 .byte   Fs1 ,v096
 .byte   W03
 .byte   W01
 .byte   W01
 .byte   W07
 .byte   Cn1 ,v080
 .byte   N11 ,Fs1
 .byte   W12
 .byte   Cn1
 .byte   N11 ,Fs1
 .byte   W12
 .byte   N11
 .byte   W12
@  #08 @001   ----------------------------------------
Label_01713A63:
 .byte   N11 ,Fs1 ,v096
 .byte   W03
 .byte   W01
 .byte   W01
 .byte   W07
 .byte   Fs1 ,v080
 .byte   W12
 .byte   N11
 .byte   W12
 .byte   N11
 .byte   W12
 .byte   Fs1 ,v096
 .byte   W03
 .byte   W01
 .byte   W01
 .byte   W07
 .byte   Fs1 ,v080
 .byte   W12
 .byte   N11
 .byte   W12
 .byte   N11
 .byte   W12
 .byte   PEND 
@  #08 @002   ----------------------------------------
 .byte   PATT
  .word Label_01713A63
@  #08 @003   ----------------------------------------
 .byte   N11 ,Fs1 ,v096
 .byte   W03
 .byte   W01
 .byte   W01
 .byte   W07
 .byte   Cn1 ,v080
 .byte   N11 ,Fs1
 .byte   W12
 .byte   Cn1
 .byte   N11 ,Fs1
 .byte   W12
 .byte   N11
 .byte   W12
 .byte   Fs1 ,v096
 .byte   W03
 .byte   W01
 .byte   W01
 .byte   W07
 .byte   Cn1 ,v080
 .byte   N11 ,Fs1
 .byte   W12
 .byte   Cn1
 .byte   N11 ,Fs1
 .byte   W12
 .byte   N11
 .byte   W12
@  #08 @004   ----------------------------------------
 .byte   Fs1 ,v096
 .byte   W03
 .byte   W01
 .byte   W01
 .byte   W07
 .byte   Fs1 ,v080
 .byte   W12
 .byte   N11
 .byte   W12
 .byte   N11
 .byte   W12
 .byte   Fs1 ,v096
 .byte   W03
 .byte   W01
 .byte   W01
 .byte   W07
 .byte   Cn1 ,v080
 .byte   N11 ,Fs1
 .byte   W12
 .byte   Cn1
 .byte   N11 ,Fs1
 .byte   W12
 .byte   N11
 .byte   W12
@  #08 @005   ----------------------------------------
 .byte   PATT
  .word Label_01713A63
@  #08 @006   ----------------------------------------
 .byte   N11 ,Fs1 ,v096
 .byte   W03
 .byte   W01
 .byte   W01
 .byte   W07
 .byte   Fs1 ,v080
 .byte   W12
 .byte   N11
 .byte   W12
 .byte   N11
 .byte   W12
 .byte   Fs1 ,v096
 .byte   W03
 .byte   W01
 .byte   W01
 .byte   W07
 .byte   Cn1 ,v080
 .byte   N11 ,Fs1
 .byte   W12
 .byte   N11
 .byte   W12
 .byte   N11
 .byte   W12
@  #08 @007   ----------------------------------------
 .byte   Fs1 ,v096
 .byte   W03
 .byte   W01
 .byte   W01
 .byte   W07
 .byte   Cn1 ,v080
 .byte   N11 ,Fs1
 .byte   W12
 .byte   Cn1
 .byte   N11 ,Fs1
 .byte   W12
 .byte   N11
 .byte   W12
 .byte   Fs1 ,v096
 .byte   W03
 .byte   W01
 .byte   W01
 .byte   W07
 .byte   N23 ,Cn1 ,v080
 .byte   N11 ,Fs1
 .byte   W12
 .byte   N11
 .byte   W12
 .byte   N11
 .byte   W12
@  #08 @008   ----------------------------------------
Label_01713B08:
 .byte   N32 ,Cn1 ,v080
 .byte   N11 ,Fs1 ,v096
 .byte   W03
 .byte   W01
 .byte   W01
 .byte   W07
 .byte   Fs1 ,v080
 .byte   W12
 .byte   N11
 .byte   W12
 .byte   Cn1
 .byte   N11 ,Fs1
 .byte   W12
 .byte   Fs1 ,v096
 .byte   W03
 .byte   W01
 .byte   W01
 .byte   W07
 .byte   Cn1 ,v080
 .byte   N11 ,Fs1
 .byte   W12
 .byte   En1
 .byte   N11 ,Fs1
 .byte   W12
 .byte   Cn1
 .byte   N11 ,Fs1
 .byte   W12
 .byte   PEND 
@  #08 @009   ----------------------------------------
Label_01713B2F:
 .byte   N32 ,Cn1 ,v080
 .byte   N11 ,Fs1 ,v096
 .byte   W03
 .byte   W01
 .byte   W01
 .byte   W07
 .byte   Fs1 ,v080
 .byte   W12
 .byte   N11
 .byte   W12
 .byte   Cn1
 .byte   N11 ,Fs1
 .byte   W12
 .byte   Fs1 ,v096
 .byte   W03
 .byte   W01
 .byte   W01
 .byte   W07
 .byte   Fs1 ,v080
 .byte   W12
 .byte   N11
 .byte   W12
 .byte   Cn1
 .byte   N11 ,Fs1
 .byte   W12
 .byte   PEND 
@  #08 @010   ----------------------------------------
 .byte   PATT
  .word Label_01713B2F
@  #08 @011   ----------------------------------------
 .byte   PATT
  .word Label_01713B08
@  #08 @012   ----------------------------------------
 .byte   PATT
  .word Label_01713B08
@  #08 @013   ----------------------------------------
 .byte   PATT
  .word Label_01713B2F
@  #08 @014   ----------------------------------------
 .byte   N32 ,Cn1 ,v080
 .byte   N11 ,Fs1 ,v096
 .byte   W03
 .byte   W01
 .byte   W01
 .byte   W07
 .byte   Fs1 ,v080
 .byte   W12
 .byte   N11
 .byte   W12
 .byte   Cn1
 .byte   N11 ,Fs1
 .byte   W12
 .byte   Fs1 ,v096
 .byte   W03
 .byte   W01
 .byte   W01
 .byte   W07
 .byte   Fs1 ,v080
 .byte   W12
 .byte   N11
 .byte   W12
 .byte   N23 ,Cn1
 .byte   N11 ,Fs1
 .byte   W12
@  #08 @015   ----------------------------------------
 .byte   W24
 .byte   N23 ,Cn1
 .byte   W48
 .byte   N11 ,Fs1
 .byte   W12
 .byte   N11
 .byte   W12
@  #08 @016   ----------------------------------------
 .byte   N23 ,Cn1
 .byte   N11 ,Fs1 ,v096
 .byte   W03
 .byte   W01
 .byte   W01
 .byte   W07
 .byte   Fs1 ,v080
 .byte   W12
 .byte   En1
 .byte   N11 ,Fs1
 .byte   W12
 .byte   N05 ,Cn1
 .byte   N05 ,Fs1
 .byte   W60
@  #08 @017   ----------------------------------------
Label_01713BA7:
 .byte   N23 ,Cn1 ,v080
 .byte   N11 ,Fs1 ,v096
 .byte   W03
 .byte   W01
 .byte   W01
 .byte   W07
 .byte   Fs1 ,v080
 .byte   W12
 .byte   En1
 .byte   N11 ,Fs1
 .byte   W12
 .byte   Cn1
 .byte   N11 ,Fs1
 .byte   W36
 .byte   N23 ,Cn1
 .byte   N11 ,Fs1 ,v096
 .byte   W03
 .byte   W01
 .byte   W01
 .byte   W07
 .byte   Fs1 ,v080
 .byte   W12
 .byte   PEND 
@  #08 @018   ----------------------------------------
 .byte   En1 ,v096
 .byte   N11 ,Fs1
 .byte   W03
 .byte   W01
 .byte   W01
 .byte   W07
 .byte   Cn1 ,v080
 .byte   N11 ,Fs1
 .byte   W12
 .byte   N11
 .byte   W60
 .byte   N11
 .byte   W12
@  #08 @019   ----------------------------------------
 .byte   N23 ,Cn1
 .byte   N11 ,Fs1 ,v096
 .byte   W03
 .byte   W01
 .byte   W01
 .byte   W07
 .byte   Fs1 ,v080
 .byte   W12
 .byte   En1
 .byte   N11 ,Fs1
 .byte   W12
 .byte   Cn1
 .byte   N11 ,Fs1
 .byte   W12
 .byte   N23
 .byte   W24
 .byte   N11
 .byte   W12
 .byte   N11
 .byte   W12
@  #08 @020   ----------------------------------------
Label_01713BF4:
 .byte   N23 ,Cn1 ,v080
 .byte   N23 ,Fs1 ,v096
 .byte   W03
 .byte   W01
 .byte   W01
 .byte   W19
 .byte   N11 ,En1 ,v080
 .byte   N11 ,Fs1
 .byte   W12
 .byte   Cn1
 .byte   N11 ,Fs1
 .byte   W12
 .byte   Fs1 ,v096
 .byte   W03
 .byte   W01
 .byte   W01
 .byte   W07
 .byte   En1 ,v080
 .byte   N11 ,Fs1
 .byte   W12
 .byte   Cn1
 .byte   N11 ,Fs1
 .byte   W12
 .byte   N11
 .byte   W12
 .byte   PEND 
@  #08 @021   ----------------------------------------
Label_01713C1A:
 .byte   N23 ,Cn1 ,v080
 .byte   N11 ,Fs1 ,v096
 .byte   W03
 .byte   W01
 .byte   W01
 .byte   W07
 .byte   Fs1 ,v080
 .byte   W12
 .byte   En1
 .byte   N11 ,Fs1
 .byte   W12
 .byte   Cn1
 .byte   N11 ,Fs1
 .byte   W12
 .byte   Fs1 ,v096
 .byte   W03
 .byte   W01
 .byte   W01
 .byte   W07
 .byte   En1 ,v080
 .byte   N11 ,Fs1
 .byte   W12
 .byte   Cn1
 .byte   N11 ,Fs1
 .byte   W12
 .byte   N11
 .byte   W12
 .byte   PEND 
@  #08 @022   ----------------------------------------
 .byte   PATT
  .word Label_01713BF4
@  #08 @023   ----------------------------------------
 .byte   PATT
  .word Label_01713C1A
@  #08 @024   ----------------------------------------
 .byte   N23 ,Cn1 ,v080
 .byte   N11 ,Fs1 ,v096
 .byte   W03
 .byte   W01
 .byte   W01
 .byte   W07
 .byte   Fs1 ,v080
 .byte   W12
 .byte   En1
 .byte   N11 ,Fs1
 .byte   W12
 .byte   N05 ,Cn1
 .byte   N05 ,Fs1
 .byte   W12
 .byte   N11 ,En1
 .byte   W12
 .byte   N11
 .byte   W12
 .byte   N11
 .byte   W12
 .byte   N11
 .byte   W12
@  #08 @025   ----------------------------------------
 .byte   PATT
  .word Label_01713BA7
@  #08 @026   ----------------------------------------
 .byte   PATT
  .word Label_01713BA7
@  #08 @027   ----------------------------------------
 .byte   PATT
  .word Label_01713C1A
@  #08 @028   ----------------------------------------
 .byte   PATT
  .word Label_01713C1A
@  #08 @029   ----------------------------------------
 .byte   PATT
  .word Label_01713C1A
@  #08 @030   ----------------------------------------
 .byte   PATT
  .word Label_01713C1A
@  #08 @031   ----------------------------------------
 .byte   N23 ,Cn1 ,v080
 .byte   N11 ,Fs1 ,v096
 .byte   W03
 .byte   W01
 .byte   W01
 .byte   W07
 .byte   Fs1 ,v080
 .byte   W12
 .byte   En1 ,v096
 .byte   N11 ,Fs1
 .byte   W03
 .byte   W01
 .byte   W01
 .byte   W07
 .byte   Cn1 ,v080
 .byte   N11 ,Fs1
 .byte   W12
 .byte   Fs1 ,v096
 .byte   W03
 .byte   W01
 .byte   W01
 .byte   W07
 .byte   En1
 .byte   N11 ,Fs1
 .byte   W03
 .byte   W01
 .byte   W01
 .byte   W07
 .byte   Cn1 ,v080
 .byte   N11 ,Fs1
 .byte   W12
 .byte   N11
 .byte   W12
@  #08 @032   ----------------------------------------
Label_01713CB6:
 .byte   N23 ,Cn1 ,v080
 .byte   N23 ,Fs1 ,v096
 .byte   W03
 .byte   W01
 .byte   W01
 .byte   W19
 .byte   N11 ,En1
 .byte   N11 ,Fs1
 .byte   W03
 .byte   W01
 .byte   W01
 .byte   W07
 .byte   Cn1 ,v080
 .byte   N11 ,Fs1
 .byte   W12
 .byte   Fs1 ,v096
 .byte   W03
 .byte   W01
 .byte   W01
 .byte   W07
 .byte   Fs1 ,v080
 .byte   W12
 .byte   En1 ,v096
 .byte   N11 ,Fs1
 .byte   W03
 .byte   W01
 .byte   W01
 .byte   W07
 .byte   Fs1 ,v080
 .byte   W12
 .byte   PEND 
@  #08 @033   ----------------------------------------
 .byte   PATT
  .word Label_01713CB6
@  #08 @034   ----------------------------------------
 .byte   PATT
  .word Label_01713CB6
@  #08 @035   ----------------------------------------
 .byte   PATT
  .word Label_01713CB6
@  #08 @036   ----------------------------------------
 .byte   PATT
  .word Label_01713CB6
@  #08 @037   ----------------------------------------
 .byte   PATT
  .word Label_01713CB6
@  #08 @038   ----------------------------------------
 .byte   PATT
  .word Label_01713CB6
@  #08 @039   ----------------------------------------
 .byte   PATT
  .word Label_01713CB6
@  #08 @040   ----------------------------------------
 .byte   PATT
  .word Label_01713CB6
@  #08 @041   ----------------------------------------
 .byte   PATT
  .word Label_01713CB6
@  #08 @042   ----------------------------------------
 .byte   PATT
  .word Label_01713CB6
@  #08 @043   ----------------------------------------
 .byte   PATT
  .word Label_01713CB6
@  #08 @044   ----------------------------------------
 .byte   PATT
  .word Label_01713CB6
@  #08 @045   ----------------------------------------
 .byte   N23 ,Cn1 ,v080
 .byte   N23 ,Fs1 ,v096
 .byte   W03
 .byte   W01
 .byte   W01
 .byte   W19
 .byte   N11 ,En1
 .byte   N11 ,Fs1
 .byte   W03
 .byte   W01
 .byte   W01
 .byte   W07
 .byte   Cn1 ,v080
 .byte   N11 ,Fs1
 .byte   W12
 .byte   Fs1 ,v096
 .byte   W03
 .byte   W01
 .byte   W01
 .byte   W07
 .byte   Fs1 ,v080
 .byte   W12
 .byte   N23 ,En1 ,v096
 .byte   N23 ,Fs1
 .byte   N23 ,Fs2
 .byte   W03
 .byte   W01
 .byte   W01
 .byte   W19
@  #08 @046   ----------------------------------------
 .byte   Fs2 ,v052
 .byte   W24
 .byte   N23
 .byte   W24
 .byte   N23
 .byte   W24
 .byte   N11
 .byte   W12
 .byte   Dn1 ,v127
 .byte   N11 ,As1
 .byte   W03
 .byte   W01
 .byte   W01
 .byte   W07
@  #08 @047   ----------------------------------------
 .byte   Cn1
 .byte   N11 ,Fs1
 .byte   W03
 .byte   W01
 .byte   W01
 .byte   W19
 .byte   N23 ,Cn1
 .byte   N23 ,Dn1
 .byte   N23 ,Fn1
 .byte   W03
 .byte   W01
 .byte   W01
 .byte   W19
 .byte   Cn1
 .byte   N11 ,Dn1
 .byte   N11 ,Cs2
 .byte   W03
 .byte   W01
 .byte   W01
 .byte   W07
 .byte   Dn1
 .byte   W03
 .byte   W01
 .byte   W01
 .byte   W07
 .byte   Cn1
 .byte   N11 ,Dn1
 .byte   W03
 .byte   W01
 .byte   W01
 .byte   W07
 .byte   Cn1
 .byte   N11 ,Dn1
 .byte   W03
 .byte   W01
 .byte   W01
 .byte   W07
@  #08 @048   ----------------------------------------
Label_01713D87:
 .byte   N44 ,Cn1 ,v127
 .byte   N44 ,Ds2
 .byte   W03
 .byte   W01
 .byte   W01
 .byte   W42
 .byte   W01
 .byte   Dn1
 .byte   N44 ,Ds2
 .byte   W03
 .byte   W01
 .byte   W01
 .byte   W19
 .byte   N11 ,Cn1
 .byte   W12
 .byte   N23
 .byte   W12
 .byte   PEND 
@  #08 @049   ----------------------------------------
Label_01713D9E:
 .byte   N44 ,Ds2 ,v127
 .byte   W12
 .byte   N11 ,Cn1
 .byte   W12
 .byte   N44
 .byte   W24
 .byte   Dn1
 .byte   N44 ,Ds2
 .byte   W03
 .byte   W01
 .byte   W01
 .byte   W19
 .byte   N23 ,Cn1
 .byte   W24
 .byte   PEND 
@  #08 @050   ----------------------------------------
 .byte   PATT
  .word Label_01713D87
@  #08 @051   ----------------------------------------
Label_01713DB7:
 .byte   N44 ,Ds2 ,v127
 .byte   W12
 .byte   N23 ,Cn1
 .byte   W24
 .byte   N11
 .byte   W12
 .byte   N44 ,Dn1
 .byte   N44 ,An2
 .byte   W03
 .byte   W01
 .byte   W01
 .byte   W07
 .byte   N32 ,Cn1
 .byte   W36
 .byte   PEND 
@  #08 @052   ----------------------------------------
Label_01713DCC:
 .byte   N44 ,Cn1 ,v127
 .byte   N44 ,Cs2
 .byte   W03
 .byte   W01
 .byte   W01
 .byte   W42
 .byte   W01
 .byte   Dn1
 .byte   N44 ,Ds2
 .byte   W03
 .byte   W01
 .byte   W01
 .byte   W19
 .byte   N11 ,Cn1
 .byte   W12
 .byte   N23
 .byte   W12
 .byte   PEND 
@  #08 @053   ----------------------------------------
 .byte   PATT
  .word Label_01713D9E
@  #08 @054   ----------------------------------------
 .byte   PATT
  .word Label_01713D87
@  #08 @055   ----------------------------------------
 .byte   PATT
  .word Label_01713DB7
@  #08 @056   ----------------------------------------
 .byte   PATT
  .word Label_01713DCC
@  #08 @057   ----------------------------------------
 .byte   PATT
  .word Label_01713D9E
@  #08 @058   ----------------------------------------
 .byte   PATT
  .word Label_01713D87
@  #08 @059   ----------------------------------------
 .byte   N44 ,Ds2 ,v127
 .byte   W12
 .byte   N11 ,Cn1
 .byte   W12
 .byte   N44
 .byte   W24
 .byte   Dn1
 .byte   N44 ,An2
 .byte   W03
 .byte   W01
 .byte   W01
 .byte   W19
 .byte   N23 ,Cn1
 .byte   W24
@  #08 @060   ----------------------------------------
 .byte   PATT
  .word Label_01713DCC
@  #08 @061   ----------------------------------------
 .byte   PATT
  .word Label_01713D9E
@  #08 @062   ----------------------------------------
 .byte   N44 ,Cn1 ,v127
 .byte   N44 ,Ds2
 .byte   W03
 .byte   W01
 .byte   W01
 .byte   W42
 .byte   W01
 .byte   Dn1
 .byte   N44 ,Ds2
 .byte   W03
 .byte   W01
 .byte   W01
 .byte   W19
 .byte   N11 ,Cn1
 .byte   W24
@  #08 @063   ----------------------------------------
 .byte   W12
 .byte   N11
 .byte   W12
 .byte   N11
 .byte   W24
 .byte   N23 ,Cn1 ,v112
 .byte   N23 ,Cs2
 .byte   W48
@  #08 @064   ----------------------------------------
 .byte   N44 ,Ds2
 .byte   W24
 .byte   N23 ,Cn1
 .byte   W24
 .byte   N23
 .byte   N44 ,Ds2
 .byte   W24
 .byte   N23 ,Cn1
 .byte   W24
@  #08 @065   ----------------------------------------
Label_01713E4A:
 .byte   N23 ,Cn1 ,v112
 .byte   N44 ,Ds2
 .byte   W24
 .byte   N23 ,Cn1
 .byte   W24
 .byte   Dn1 ,v127
 .byte   N23 ,Ds2
 .byte   W03
 .byte   W01
 .byte   W01
 .byte   W19
 .byte   Cn1 ,v112
 .byte   W24
 .byte   PEND 
@  #08 @066   ----------------------------------------
 .byte   PATT
  .word Label_01713E4A
@  #08 @067   ----------------------------------------
 .byte   N23 ,Cn1 ,v112
 .byte   N44 ,Ds2
 .byte   W24
 .byte   N23 ,Cn1
 .byte   W24
 .byte   Dn1 ,v127
 .byte   N23 ,Cs2
 .byte   W03
 .byte   W01
 .byte   W01
 .byte   W19
 .byte   Cn1 ,v112
 .byte   W24
@  #08 @068   ----------------------------------------
 .byte   TIE
 .byte   N68 ,Cs2
 .byte   W72
 .byte   N92
 .byte   W24
@  #08 @069   ----------------------------------------
 .byte   W23
 .byte   EOT
 .byte   Cn1
 .byte   W01
 .byte   N23
 .byte   W24
 .byte   N23
 .byte   W24
 .byte   Cs2
 .byte   W24
@  #08 @070   ----------------------------------------
 .byte   N92
 .byte   W96
@  #08 @071   ----------------------------------------
 .byte   W96
@  #08 @072   ----------------------------------------
 .byte   GOTO
  .word Label_01713A3E
 .byte   FINE

@**************** Track 9 (Midi-Chn.8) ****************@

songC0_009:
@  #09 @000   ----------------------------------------
 .byte   KEYSH , songC0_key+0
Label_01713EA6:
 .byte   VOICE , 38
 .byte   VOL , 42*songC0_mvl/mxv
 .byte   PAN , c_v+0
 .byte   W96
@  #09 @001   ----------------------------------------
 .byte   W96
@  #09 @002   ----------------------------------------
 .byte   W96
@  #09 @003   ----------------------------------------
 .byte   W96
@  #09 @004   ----------------------------------------
 .byte   W96
@  #09 @005   ----------------------------------------
 .byte   W96
@  #09 @006   ----------------------------------------
 .byte   W72
 .byte   N05 ,Cn2 ,v052
 .byte   W06
 .byte   Dn2
 .byte   W06
 .byte   Ds2
 .byte   W06
 .byte   Fn2
 .byte   W06
@  #09 @007   ----------------------------------------
 .byte   Gn2
 .byte   W06
 .byte   Gs2
 .byte   W06
 .byte   As2
 .byte   W06
 .byte   Cn3
 .byte   W06
 .byte   Dn3 ,v080
 .byte   W06
 .byte   Ds3
 .byte   W06
 .byte   Fn3
 .byte   W06
 .byte   Gn3
 .byte   W06
 .byte   Gs3
 .byte   W06
 .byte   As3
 .byte   W06
 .byte   Cn4
 .byte   W06
 .byte   Dn4
 .byte   W06
 .byte   Ds4
 .byte   W06
 .byte   Fn4
 .byte   W06
 .byte   Gn4
 .byte   W06
 .byte   Gs4
 .byte   W06
@  #09 @008   ----------------------------------------
Label_01713EDE:
 .byte   N23 ,As1 ,v080
 .byte   W36
 .byte   N11 ,Cn2
 .byte   W60
 .byte   PEND 
@  #09 @009   ----------------------------------------
 .byte   W48
 .byte   N23 ,As1
 .byte   W48
@  #09 @010   ----------------------------------------
 .byte   Cn2
 .byte   W36
 .byte   N11
 .byte   W36
 .byte   TIE ,Fn1
 .byte   TIE ,Gs1
 .byte   TIE ,Fn3
 .byte   TIE ,Ds4
 .byte   TIE ,Gs4
 .byte   W24
@  #09 @011   ----------------------------------------
 .byte   W92
 .byte   W03
 .byte   EOT
 .byte   Fn1 ,v044
 .byte   Fn3 ,v075
 .byte   Gs4
 .byte   W01
@  #09 @012   ----------------------------------------
 .byte   PATT
  .word Label_01713EDE
@  #09 @013   ----------------------------------------
 .byte   W48
 .byte   N23 ,As1 ,v080
 .byte   W24
 .byte   Cn2
 .byte   W24
@  #09 @014   ----------------------------------------
 .byte   TIE ,Fn1
 .byte   TIE ,Gs1
 .byte   TIE ,Fn3
 .byte   TIE ,Ds4
 .byte   TIE ,Gs4
 .byte   W96
@  #09 @015   ----------------------------------------
 .byte   W92
 .byte   W03
 .byte   EOT
 .byte   Fn1 ,v044
 .byte   Fn3 ,v075
 .byte   Gs4
 .byte   W01
@  #09 @016   ----------------------------------------
 .byte   N11 ,As1
 .byte   W36
 .byte   N23 ,As3 ,v052
 .byte   N23 ,As4
 .byte   N23 ,Cs5
 .byte   W60
@  #09 @017   ----------------------------------------
 .byte   Ds1 ,v080
 .byte   W36
 .byte   N11
 .byte   W36
 .byte   N23 ,Gs1
 .byte   W24
@  #09 @018   ----------------------------------------
 .byte   N11 ,Cn3
 .byte   W12
 .byte   Dn3
 .byte   W24
 .byte   Ds3
 .byte   W24
 .byte   N05 ,Gn3
 .byte   W05
 .byte   N18 ,Gs3
 .byte   W19
 .byte   N23 ,Fn3
 .byte   W12
@  #09 @019   ----------------------------------------
 .byte   Fn1
 .byte   W12
 .byte   N11 ,Ds3
 .byte   W12
 .byte   N44 ,Dn3
 .byte   W12
 .byte   N11 ,Gn1
 .byte   W36
 .byte   N23 ,Ds1
 .byte   N23 ,Cn3
 .byte   W24
@  #09 @020   ----------------------------------------
 .byte   W96
@  #09 @021   ----------------------------------------
 .byte   Fn1
 .byte   W36
 .byte   N11 ,Gn1
 .byte   W36
 .byte   N23 ,Cn2
 .byte   W24
@  #09 @022   ----------------------------------------
 .byte   W96
@  #09 @023   ----------------------------------------
Label_01713F5F:
 .byte   N23 ,As1 ,v080
 .byte   W36
 .byte   N11 ,Ds1
 .byte   W36
 .byte   N23 ,Gs1
 .byte   W24
 .byte   PEND 
@  #09 @024   ----------------------------------------
 .byte   N11 ,Gs4
 .byte   W12
 .byte   N11
 .byte   W84
@  #09 @025   ----------------------------------------
 .byte   N23 ,Gs1
 .byte   N11 ,Cn3
 .byte   N11 ,Ds3
 .byte   N11 ,Gs3
 .byte   W36
 .byte   Gs1
 .byte   N11 ,Cn3
 .byte   N11 ,Ds3
 .byte   N11 ,Gs3
 .byte   W36
 .byte   N23 ,Gn1
 .byte   N11 ,Cn3
 .byte   N11 ,Ds3
 .byte   N11 ,Gn3
 .byte   W24
@  #09 @026   ----------------------------------------
 .byte   W96
@  #09 @027   ----------------------------------------
 .byte   N23 ,Cn2
 .byte   N11 ,Ds3
 .byte   N11 ,Gn3
 .byte   N11 ,Cn4
 .byte   W36
 .byte   Cn2
 .byte   N11 ,Ds3
 .byte   N11 ,Gn3
 .byte   N11 ,Cn4
 .byte   W36
 .byte   N23 ,Fn1
 .byte   N11 ,Fn3
 .byte   N11 ,Gs3
 .byte   N11 ,Cn4
 .byte   W24
@  #09 @028   ----------------------------------------
 .byte   W96
@  #09 @029   ----------------------------------------
 .byte   N23 ,Gn1
 .byte   N11 ,Dn3
 .byte   N11 ,Gn3
 .byte   N11 ,As3
 .byte   W36
 .byte   Gn1
 .byte   N11 ,Dn3
 .byte   N11 ,Gn3
 .byte   N11 ,As3
 .byte   W36
 .byte   N23 ,Cn2
 .byte   N11 ,Ds3
 .byte   N11 ,Gn3
 .byte   N11 ,Cn4
 .byte   W24
@  #09 @030   ----------------------------------------
 .byte   W96
@  #09 @031   ----------------------------------------
 .byte   PATT
  .word Label_01713F5F
@  #09 @032   ----------------------------------------
 .byte   N11 ,Cn2 ,v080
 .byte   W12
 .byte   Dn2
 .byte   W24
 .byte   Ds2
 .byte   W24
 .byte   Gn2
 .byte   N11 ,Ds3
 .byte   N11 ,Ds4
 .byte   W12
 .byte   Fn3
 .byte   N11 ,Fn4
 .byte   W12
 .byte   Cn2
 .byte   N11 ,Ds3
 .byte   N11 ,Ds4
 .byte   W12
@  #09 @033   ----------------------------------------
Label_01713FDD:
 .byte   N23 ,Gn1 ,v080
 .byte   N32 ,Dn3
 .byte   N32 ,Dn4
 .byte   W36
 .byte   N11 ,Gn1
 .byte   N32 ,Dn3
 .byte   N32 ,Dn4
 .byte   W36
 .byte   N23 ,Cn2
 .byte   N23 ,Ds3
 .byte   N23 ,Ds4
 .byte   W24
 .byte   PEND 
@  #09 @034   ----------------------------------------
Label_01713FF4:
 .byte   N23 ,Dn3 ,v080
 .byte   W24
 .byte   N11 ,As2
 .byte   W12
 .byte   Gn2
 .byte   W24
 .byte   N23 ,Fn2
 .byte   W24
 .byte   N11 ,Dn2
 .byte   W12
 .byte   PEND 
@  #09 @035   ----------------------------------------
 .byte   N23 ,Fn1
 .byte   W36
 .byte   N11 ,Gn1
 .byte   W36
 .byte   N23 ,Ds1
 .byte   W24
@  #09 @036   ----------------------------------------
Label_0171400D:
 .byte   N11 ,Gn2 ,v080
 .byte   W12
 .byte   Cn2
 .byte   W24
 .byte   Ds2
 .byte   W24
 .byte   Fn2
 .byte   N11 ,Ds3
 .byte   N11 ,Ds4
 .byte   W12
 .byte   Fn3
 .byte   N11 ,Fn4
 .byte   W12
 .byte   Ds3
 .byte   N11 ,Ds4
 .byte   W12
 .byte   PEND 
@  #09 @037   ----------------------------------------
Label_01714024:
 .byte   N23 ,Gn1 ,v080
 .byte   N32 ,Dn3
 .byte   N32 ,Dn4
 .byte   W36
 .byte   N11 ,Gn1
 .byte   N32 ,Dn3
 .byte   N32 ,Dn4
 .byte   W36
 .byte   N23 ,Cn2
 .byte   N23 ,Cn3
 .byte   N23 ,Cn4
 .byte   W24
 .byte   PEND 
@  #09 @038   ----------------------------------------
 .byte   N11 ,Cn2
 .byte   W12
 .byte   Dn2
 .byte   W24
 .byte   Ds2
 .byte   W24
 .byte   Fn2
 .byte   W24
 .byte   Gn2
 .byte   W12
@  #09 @039   ----------------------------------------
 .byte   N23 ,As3
 .byte   W24
 .byte   N11 ,Gn2
 .byte   W12
 .byte   Ds2
 .byte   N11 ,Ds3
 .byte   W36
 .byte   Cn2
 .byte   N23 ,Gs2
 .byte   N23 ,Gs3
 .byte   W12
 .byte   N11 ,Dn2
 .byte   W12
@  #09 @040   ----------------------------------------
 .byte   Ds2
 .byte   W12
 .byte   Fn2
 .byte   W24
 .byte   Gn2
 .byte   W24
 .byte   As2
 .byte   N11 ,Ds3
 .byte   N11 ,Ds4
 .byte   W12
 .byte   Fn3
 .byte   N11 ,Fn4
 .byte   W12
 .byte   Ds3
 .byte   N11 ,Ds4
 .byte   W12
@  #09 @041   ----------------------------------------
 .byte   PATT
  .word Label_01713FDD
@  #09 @042   ----------------------------------------
 .byte   PATT
  .word Label_01713FF4
@  #09 @043   ----------------------------------------
 .byte   N23 ,Fn1 ,v080
 .byte   N23 ,As2
 .byte   N23 ,As3
 .byte   W36
 .byte   N11 ,Gn1
 .byte   N11 ,Ds3
 .byte   W36
 .byte   N23 ,Ds1
 .byte   N23 ,Gs2
 .byte   N23 ,Gs3
 .byte   W24
@  #09 @044   ----------------------------------------
 .byte   PATT
  .word Label_0171400D
@  #09 @045   ----------------------------------------
 .byte   PATT
  .word Label_01714024
@  #09 @046   ----------------------------------------
 .byte   W96
@  #09 @047   ----------------------------------------
 .byte   W48
 .byte   N03 ,Ds3 ,v064
 .byte   W01
 .byte   W01
 .byte   W01
 .byte   W01
 .byte   Fn3 ,v068
 .byte   W01
 .byte   W01
 .byte   W01
 .byte   W01
 .byte   Gn3 ,v072
 .byte   W01
 .byte   W01
 .byte   W01
 .byte   W01
 .byte   Gs3 ,v076
 .byte   W01
 .byte   W01
 .byte   W01
 .byte   W01
 .byte   As3 ,v080
 .byte   W01
 .byte   W01
 .byte   W01
 .byte   W01
 .byte   Cn4 ,v084
 .byte   W01
 .byte   W01
 .byte   W01
 .byte   W01
 .byte   Dn4 ,v088
 .byte   W01
 .byte   W01
 .byte   W01
 .byte   W01
 .byte   Ds4 ,v092
 .byte   W01
 .byte   W01
 .byte   W01
 .byte   W01
 .byte   Fn4 ,v096
 .byte   W01
 .byte   W01
 .byte   W01
 .byte   W01
 .byte   Gn4 ,v100
 .byte   W01
 .byte   W01
 .byte   W01
 .byte   W01
 .byte   Gs4 ,v104
 .byte   W01
 .byte   W01
 .byte   W01
 .byte   W01
 .byte   As4 ,v108
 .byte   W01
 .byte   W01
 .byte   W01
 .byte   W01
@  #09 @048   ----------------------------------------
Label_017140E0:
 .byte   N68 ,Cn2 ,v112
 .byte   N92 ,Cn3
 .byte   N92 ,Cn4
 .byte   N92 ,Cn5
 .byte   W72
 .byte   N11 ,Cn2
 .byte   W12
 .byte   N23 ,Ds1
 .byte   W12
 .byte   PEND 
@  #09 @049   ----------------------------------------
 .byte   W12
 .byte   N11
 .byte   W12
 .byte   N68
 .byte   W48
 .byte   N23 ,Fn4
 .byte   W24
@  #09 @050   ----------------------------------------
 .byte   N68 ,As1
 .byte   N11 ,Fs4
 .byte   W12
 .byte   N23 ,Fn4
 .byte   W24
 .byte   N32 ,Ds4
 .byte   W36
 .byte   N11 ,As1
 .byte   N11 ,Fs4
 .byte   W12
 .byte   N23 ,As1
 .byte   N23 ,Fn4
 .byte   W12
@  #09 @051   ----------------------------------------
 .byte   W12
 .byte   N11 ,As1
 .byte   N44 ,Ds4
 .byte   W12
 .byte   N68 ,As1
 .byte   W72
@  #09 @052   ----------------------------------------
Label_01714117:
 .byte   N68 ,Cn2 ,v112
 .byte   W72
 .byte   N11
 .byte   W12
 .byte   TIE ,Ds1
 .byte   W12
 .byte   PEND 
@  #09 @053   ----------------------------------------
 .byte   W92
 .byte   W03
 .byte   EOT
 .byte   W01
@  #09 @054   ----------------------------------------
 .byte   N44 ,Fn1
 .byte   W48
 .byte   N23
 .byte   W24
 .byte   N11
 .byte   W12
 .byte   N23 ,Gn1
 .byte   W12
@  #09 @055   ----------------------------------------
 .byte   W12
 .byte   N32
 .byte   W36
 .byte   N44
 .byte   W48
@  #09 @056   ----------------------------------------
 .byte   PATT
  .word Label_017140E0
@  #09 @057   ----------------------------------------
 .byte   W12
 .byte   N11 ,Ds1 ,v112
 .byte   W12
 .byte   N68
 .byte   W48
 .byte   N11 ,Ds4
 .byte   W12
 .byte   N11
 .byte   W12
@  #09 @058   ----------------------------------------
 .byte   N68 ,As1
 .byte   N11 ,Dn4
 .byte   W12
 .byte   As3
 .byte   W24
 .byte   N23
 .byte   W24
 .byte   N11 ,Gn3
 .byte   W12
 .byte   As1
 .byte   N23 ,Cn4
 .byte   W12
 .byte   As1
 .byte   W12
@  #09 @059   ----------------------------------------
 .byte   N11 ,Gn3
 .byte   W12
 .byte   As1
 .byte   N32 ,Cn3
 .byte   W12
 .byte   N68 ,As1
 .byte   W72
@  #09 @060   ----------------------------------------
 .byte   PATT
  .word Label_01714117
@  #09 @061   ----------------------------------------
 .byte   W92
 .byte   W03
 .byte   EOT
 .byte   Ds1
 .byte   W01
@  #09 @062   ----------------------------------------
 .byte   N44 ,Fn1 ,v112
 .byte   W48
 .byte   N23
 .byte   W24
 .byte   N11 ,Gn1
 .byte   W24
@  #09 @063   ----------------------------------------
 .byte   W48
 .byte   N68 ,An1
 .byte   W48
@  #09 @064   ----------------------------------------
 .byte   W24
 .byte   N23
 .byte   W24
 .byte   N23
 .byte   W24
 .byte   N23
 .byte   W24
@  #09 @065   ----------------------------------------
 .byte   Fn1
 .byte   W24
 .byte   N23
 .byte   W24
 .byte   N23
 .byte   W24
 .byte   N23
 .byte   W24
@  #09 @066   ----------------------------------------
Label_01714187:
 .byte   N23 ,Gn1 ,v112
 .byte   W24
 .byte   N23
 .byte   W24
 .byte   N23
 .byte   W24
 .byte   N23
 .byte   W24
 .byte   PEND 
@  #09 @067   ----------------------------------------
 .byte   PATT
  .word Label_01714187
@  #09 @068   ----------------------------------------
 .byte   N68 ,Cn2 ,v112
 .byte   W72
 .byte   N92
 .byte   W24
@  #09 @069   ----------------------------------------
 .byte   W72
 .byte   TIE ,Cn1
 .byte   W24
@  #09 @070   ----------------------------------------
 .byte   W96
@  #09 @071   ----------------------------------------
 .byte   W92
 .byte   W03
 .byte   EOT
 .byte   W01
@  #09 @072   ----------------------------------------
 .byte   GOTO
  .word Label_01713EA6
 .byte   FINE

@**************** Track 10 (Midi-Chn.9) ****************@

songC0_010:
@  #10 @000   ----------------------------------------
 .byte   KEYSH , songC0_key+0
Label_016FB816:
 .byte   VOICE , 51
 .byte   VOL , 42*songC0_mvl/mxv
 .byte   PAN , c_v+0
 .byte   W96
@  #10 @001   ----------------------------------------
 .byte   W96
@  #10 @002   ----------------------------------------
 .byte   W96
@  #10 @003   ----------------------------------------
 .byte   W96
@  #10 @004   ----------------------------------------
 .byte   W96
@  #10 @005   ----------------------------------------
 .byte   W96
@  #10 @006   ----------------------------------------
 .byte   W96
@  #10 @007   ----------------------------------------
 .byte   W96
@  #10 @008   ----------------------------------------
 .byte   W96
@  #10 @009   ----------------------------------------
 .byte   W96
@  #10 @010   ----------------------------------------
 .byte   W96
@  #10 @011   ----------------------------------------
 .byte   W96
@  #10 @012   ----------------------------------------
 .byte   W96
@  #10 @013   ----------------------------------------
 .byte   W96
@  #10 @014   ----------------------------------------
 .byte   W96
@  #10 @015   ----------------------------------------
 .byte   W96
@  #10 @016   ----------------------------------------
 .byte   W36
 .byte   N11 ,As3 ,v052
 .byte   N11 ,As4
 .byte   N11 ,Cs5
 .byte   W60
@  #10 @017   ----------------------------------------
 .byte   W96
@  #10 @018   ----------------------------------------
 .byte   W36
 .byte   Gs3
 .byte   N11 ,Gs4
 .byte   N11 ,Cn5
 .byte   W60
@  #10 @019   ----------------------------------------
 .byte   W96
@  #10 @020   ----------------------------------------
 .byte   W24
 .byte   Cn4
 .byte   N11 ,Gs4
 .byte   N11 ,Cn5
 .byte   W72
@  #10 @021   ----------------------------------------
 .byte   W96
@  #10 @022   ----------------------------------------
 .byte   W48
 .byte   N44 ,Cn4 ,v096
 .byte   W48
@  #10 @023   ----------------------------------------
 .byte   W96
@  #10 @024   ----------------------------------------
 .byte   W48
 .byte   Gn3 ,v080
 .byte   W48
@  #10 @025   ----------------------------------------
 .byte   N32 ,Gs3
 .byte   W36
 .byte   Cn4
 .byte   W36
 .byte   TIE ,As3
 .byte   W24
@  #10 @026   ----------------------------------------
 .byte   W92
 .byte   W03
 .byte   EOT
 .byte   W01
@  #10 @027   ----------------------------------------
 .byte   N68 ,Ds4
 .byte   W72
 .byte   N11 ,Gs3
 .byte   W24
@  #10 @028   ----------------------------------------
 .byte   W48
 .byte   N44 ,Fn2
 .byte   N44 ,Dn3
 .byte   N44 ,Fn3
 .byte   W48
@  #10 @029   ----------------------------------------
 .byte   W96
@  #10 @030   ----------------------------------------
 .byte   W48
 .byte   N11 ,Cn3 ,v096
 .byte   W12
 .byte   Dn3
 .byte   W24
 .byte   Ds3
 .byte   W12
@  #10 @031   ----------------------------------------
 .byte   W96
@  #10 @032   ----------------------------------------
 .byte   Cn3
 .byte   W12
 .byte   Dn3
 .byte   W24
 .byte   Ds3
 .byte   W24
 .byte   Gn3
 .byte   W24
 .byte   Cn3
 .byte   W12
@  #10 @033   ----------------------------------------
 .byte   W96
@  #10 @034   ----------------------------------------
Label_016FB880:
 .byte   N23 ,Dn4 ,v096
 .byte   W24
 .byte   N11 ,As3
 .byte   W12
 .byte   Gn3
 .byte   W24
 .byte   N23 ,Fn3
 .byte   W24
 .byte   N11 ,Dn3
 .byte   W12
 .byte   PEND 
@  #10 @035   ----------------------------------------
Label_016FB890:
 .byte   N11 ,Gn4 ,v096
 .byte   W36
 .byte   N05 ,Cn4
 .byte   W36
 .byte   N11 ,Ds4
 .byte   W24
 .byte   PEND 
@  #10 @036   ----------------------------------------
Label_016FB89B:
 .byte   N11 ,Gn3 ,v096
 .byte   W12
 .byte   Cn3
 .byte   W24
 .byte   Ds3
 .byte   W24
 .byte   Fn3
 .byte   W36
 .byte   PEND 
@  #10 @037   ----------------------------------------
 .byte   W96
@  #10 @038   ----------------------------------------
 .byte   Cn3
 .byte   W12
 .byte   Dn3
 .byte   W24
 .byte   Ds3
 .byte   W24
 .byte   Fn3
 .byte   W24
 .byte   Gn3
 .byte   W12
@  #10 @039   ----------------------------------------
 .byte   N23 ,As3
 .byte   N11 ,As4
 .byte   W24
 .byte   Gn3
 .byte   W12
 .byte   Ds3
 .byte   N05 ,Ds4
 .byte   W36
 .byte   N11 ,Cn3
 .byte   N11 ,Gs4
 .byte   W12
 .byte   Dn3
 .byte   W12
@  #10 @040   ----------------------------------------
 .byte   Ds3
 .byte   W12
 .byte   Fn3
 .byte   W24
 .byte   Gn3
 .byte   W24
 .byte   As3
 .byte   W36
@  #10 @041   ----------------------------------------
 .byte   W96
@  #10 @042   ----------------------------------------
 .byte   PATT
  .word Label_016FB880
@  #10 @043   ----------------------------------------
 .byte   PATT
  .word Label_016FB890
@  #10 @044   ----------------------------------------
 .byte   PATT
  .word Label_016FB89B
@  #10 @045   ----------------------------------------
 .byte   W96
@  #10 @046   ----------------------------------------
 .byte   W96
@  #10 @047   ----------------------------------------
 .byte   W96
@  #10 @048   ----------------------------------------
 .byte   W96
@  #10 @049   ----------------------------------------
 .byte   W72
 .byte   N23 ,Fn4 ,v112
 .byte   W24
@  #10 @050   ----------------------------------------
 .byte   N11 ,Fs4
 .byte   W12
 .byte   N23 ,Fn4
 .byte   W24
 .byte   N32 ,Ds4
 .byte   W36
 .byte   N11 ,Fs4
 .byte   W12
 .byte   N23 ,Fn4
 .byte   W12
@  #10 @051   ----------------------------------------
 .byte   W12
 .byte   N44 ,Ds4
 .byte   W84
@  #10 @052   ----------------------------------------
 .byte   W96
@  #10 @053   ----------------------------------------
 .byte   W96
@  #10 @054   ----------------------------------------
 .byte   W96
@  #10 @055   ----------------------------------------
 .byte   W96
@  #10 @056   ----------------------------------------
 .byte   W96
@  #10 @057   ----------------------------------------
 .byte   W72
 .byte   N11
 .byte   W12
 .byte   N11
 .byte   W12
@  #10 @058   ----------------------------------------
 .byte   Dn4
 .byte   W12
 .byte   As3
 .byte   W24
 .byte   N23
 .byte   W24
 .byte   N11 ,Gn3
 .byte   W12
 .byte   N23 ,Cn4
 .byte   W24
@  #10 @059   ----------------------------------------
 .byte   N11 ,Gn3
 .byte   W12
 .byte   N32 ,Cn3
 .byte   W84
@  #10 @060   ----------------------------------------
 .byte   W96
@  #10 @061   ----------------------------------------
 .byte   W96
@  #10 @062   ----------------------------------------
 .byte   W96
@  #10 @063   ----------------------------------------
 .byte   W48
 .byte   TIE ,Gn4 ,v096
 .byte   W48
@  #10 @064   ----------------------------------------
 .byte   W92
 .byte   W03
 .byte   EOT
 .byte   W01
@  #10 @065   ----------------------------------------
 .byte   N44
 .byte   W48
 .byte   N23 ,Ds4
 .byte   W24
 .byte   N92 ,Fn4
 .byte   W24
@  #10 @066   ----------------------------------------
 .byte   W72
 .byte   N11 ,Dn4
 .byte   W12
 .byte   Ds4
 .byte   W12
@  #10 @067   ----------------------------------------
 .byte   N32 ,Fn4
 .byte   W36
 .byte   Ds4
 .byte   W36
 .byte   N23 ,Dn4
 .byte   W24
@  #10 @068   ----------------------------------------
 .byte   N68
 .byte   W72
 .byte   TIE ,Cn4
 .byte   W24
@  #10 @069   ----------------------------------------
 .byte   W96
@  #10 @070   ----------------------------------------
 .byte   W96
@  #10 @071   ----------------------------------------
 .byte   W92
 .byte   W03
 .byte   EOT
 .byte   W01
@  #10 @072   ----------------------------------------
 .byte   GOTO
  .word Label_016FB816
 .byte   FINE

@******************************************************@
	.align	2

songC0:
	.byte	10	@ NumTrks
	.byte	0	@ NumBlks
	.byte	songC0_pri	@ Priority
	.byte	songC0_rev	@ Reverb.
    
	.word	songC0_grp
    
	.word	songC0_001
	.word	songC0_002
	.word	songC0_003
	.word	songC0_004
	.word	songC0_005
	.word	songC0_006
	.word	songC0_007
	.word	songC0_008
	.word	songC0_009
	.word	songC0_010

	.end
