//Event file generated from Sappy .s format.
	#include "MPlayDef.event"

	#define	CallingThatDetestableName_grp  voicegroup000
	#define	CallingThatDetestableName_pri  0
	#define	CallingThatDetestableName_rev  0
	#define	CallingThatDetestableName_mvl  127
	#define	CallingThatDetestableName_key  0
	#define	CallingThatDetestableName_tbs  1
	#define	CallingThatDetestableName_exg  0
	#define	CallingThatDetestableName_cmp  1

	// .rodata
	//	CallingThatDetestableName
	ALIGN 4


//**************** Track 1 (Midi-Chn.0) ****************//

CallingThatDetestableName_001:
//  #01 //000   ----------------------------------------
 BYTE   KEYSH   CallingThatDetestableName_key+0
Label_0153FF92:
 BYTE   TEMPO   182*CallingThatDetestableName_tbs/2
 BYTE   VOICE   30
 BYTE   VOL   46*CallingThatDetestableName_mvl/mxv
 BYTE   PAN   c_v+0
 BYTE   W96
//  #01 //001   ----------------------------------------
 BYTE   W96
//  #01 //002   ----------------------------------------
 BYTE   W96
//  #01 //003   ----------------------------------------
 BYTE   W96
//  #01 //004   ----------------------------------------
 BYTE   W96
//  #01 //005   ----------------------------------------
 BYTE   W96
//  #01 //006   ----------------------------------------
 BYTE   W96
//  #01 //007   ----------------------------------------
 BYTE   W96
//  #01 //008   ----------------------------------------
 BYTE   W96
//  #01 //009   ----------------------------------------
 BYTE   W96
//  #01 //010   ----------------------------------------
 BYTE   W96
//  #01 //011   ----------------------------------------
 BYTE   W96
//  #01 //012   ----------------------------------------
 BYTE   W96
//  #01 //013   ----------------------------------------
 BYTE   W96
//  #01 //014   ----------------------------------------
 BYTE   W96
//  #01 //015   ----------------------------------------
 BYTE   W96
//  #01 //016   ----------------------------------------
 BYTE   W96
//  #01 //017   ----------------------------------------
 BYTE   W96
//  #01 //018   ----------------------------------------
 BYTE   W96
//  #01 //019   ----------------------------------------
 BYTE   W96
//  #01 //020   ----------------------------------------
 BYTE   W96
//  #01 //021   ----------------------------------------
 BYTE   W96
//  #01 //022   ----------------------------------------
 BYTE   W96
//  #01 //023   ----------------------------------------
 BYTE   W96
//  #01 //024   ----------------------------------------
 BYTE   W96
//  #01 //025   ----------------------------------------
 BYTE   W96
//  #01 //026   ----------------------------------------
 BYTE   W96
//  #01 //027   ----------------------------------------
 BYTE   W96
//  #01 //028   ----------------------------------------
 BYTE   W96
//  #01 //029   ----------------------------------------
 BYTE   W96
//  #01 //030   ----------------------------------------
 BYTE   W96
//  #01 //031   ----------------------------------------
 BYTE   W96
//  #01 //032   ----------------------------------------
 BYTE   W96
//  #01 //033   ----------------------------------------
 BYTE   W96
//  #01 //034   ----------------------------------------
 BYTE   W96
//  #01 //035   ----------------------------------------
 BYTE   W96
//  #01 //036   ----------------------------------------
 BYTE   W96
//  #01 //037   ----------------------------------------
 BYTE   W96
//  #01 //038   ----------------------------------------
 BYTE   W96
//  #01 //039   ----------------------------------------
 BYTE   W96
//  #01 //040   ----------------------------------------
 BYTE   W96
//  #01 //041   ----------------------------------------
 BYTE   W96
//  #01 //042   ----------------------------------------
 BYTE   W96
//  #01 //043   ----------------------------------------
 BYTE   W96
//  #01 //044   ----------------------------------------
 BYTE   W96
//  #01 //045   ----------------------------------------
 BYTE   W96
//  #01 //046   ----------------------------------------
 BYTE   W96
//  #01 //047   ----------------------------------------
 BYTE   W72
 BYTE   W24
//  #01 //048   ----------------------------------------
 BYTE   TIE  Ds4  v060
 BYTE   TIE  Gn4  v064
 BYTE   TIE  Cn5  v068
 BYTE   W96
//  #01 //049   ----------------------------------------
 BYTE   W96
//  #01 //050   ----------------------------------------
 BYTE   W96
//  #01 //051   ----------------------------------------
 BYTE   W84
 BYTE   W01
 BYTE   EOT
 BYTE   Ds4
 BYTE   W01
 BYTE   Gn4
 BYTE   W03
 BYTE   Cn5
 BYTE   W07
//  #01 //052   ----------------------------------------
 BYTE   TIE  Ds4  v060
 BYTE   TIE  Gn4  v064
 BYTE   TIE  As4  v068
 BYTE   W96
//  #01 //053   ----------------------------------------
 BYTE   W92
 BYTE   W03
 BYTE   EOT
 BYTE   Ds4  v079
 BYTE   As4
 BYTE   W01
//  #01 //054   ----------------------------------------
 BYTE   TIE  As3  v048
 BYTE   TIE  Cn4  v060
 BYTE   TIE  Ds4
 BYTE   TIE  Gn4
 BYTE   W96
//  #01 //055   ----------------------------------------
 BYTE   W92
 BYTE   W03
 BYTE   EOT
 BYTE   As3  v072
 BYTE   Ds4  v079
 BYTE   W01
//  #01 //056   ----------------------------------------
 BYTE   TIE  Cn4
 BYTE   TIE  En4  v064
 BYTE   TIE  An4  v068
 BYTE   W96
//  #01 //057   ----------------------------------------
 BYTE   W96
//  #01 //058   ----------------------------------------
 BYTE   W96
//  #01 //059   ----------------------------------------
 BYTE   W84
 BYTE   W01
 BYTE   EOT
 BYTE   Cn4
 BYTE   W01
 BYTE   En4
 BYTE   W03
 BYTE   An4
 BYTE   W07
//  #01 //060   ----------------------------------------
 BYTE   TIE  Cn4  v060
 BYTE   TIE  En4  v064
 BYTE   TIE  Gn4  v068
 BYTE   W96
//  #01 //061   ----------------------------------------
 BYTE   W92
 BYTE   W03
 BYTE   EOT
 BYTE   Cn4  v076
 BYTE   Gn4
 BYTE   W01
//  #01 //062   ----------------------------------------
 BYTE   TIE  Gn3  v048
 BYTE   TIE  An3  v060
 BYTE   TIE  Cn4
 BYTE   TIE  En4
 BYTE   W96
//  #01 //063   ----------------------------------------
 BYTE   W92
 BYTE   W03
 BYTE   EOT
 BYTE   Gn3  v069
 BYTE   Cn4  v076
 BYTE   W01
//  #01 //064   ----------------------------------------
 BYTE   W96
//  #01 //065   ----------------------------------------
 BYTE   W96
//  #01 //066   ----------------------------------------
 BYTE   W96
//  #01 //067   ----------------------------------------
 BYTE   W96
//  #01 //068   ----------------------------------------
 BYTE   W96
//  #01 //069   ----------------------------------------
 BYTE   W96
//  #01 //070   ----------------------------------------
 BYTE   W96
//  #01 //071   ----------------------------------------
 BYTE   W96
//  #01 //072   ----------------------------------------
 BYTE   GoTo
  POIN2 Label_0153FF92
 BYTE   FINE

//**************** Track 2 (Midi-Chn.1) ****************//

CallingThatDetestableName_002:
//  #02 //000   ----------------------------------------
 BYTE   KEYSH   CallingThatDetestableName_key+0
Label_015400C6:
 BYTE   VOICE   1
 BYTE   VOL   43*CallingThatDetestableName_mvl/mxv
 BYTE   PAN   c_v+62
 BYTE   N11  En2  v072
 BYTE   W12
 BYTE   Gn2
 BYTE   W12
 BYTE   Bn2
 BYTE   W12
 BYTE   En2
 BYTE   W12
 BYTE   Gn2
 BYTE   W12
 BYTE   As2
 BYTE   W12
 BYTE   En2
 BYTE   W12
 BYTE   Gn2
 BYTE   W12
//  #02 //001   ----------------------------------------
Label_015400DE:
 BYTE   N11  Bn2  v072
 BYTE   W12
 BYTE   En2
 BYTE   W12
 BYTE   Gn2
 BYTE   W12
 BYTE   As2
 BYTE   W12
 BYTE   En2
 BYTE   W12
 BYTE   Gn2
 BYTE   W12
 BYTE   N23  Cn3
 BYTE   W24
 BYTE   PEND 
//  #02 //002   ----------------------------------------
Label_015400F0:
 BYTE   N11  En2  v072
 BYTE   W12
 BYTE   Gn2
 BYTE   W12
 BYTE   Bn2
 BYTE   W12
 BYTE   En2
 BYTE   W12
 BYTE   Gn2
 BYTE   W12
 BYTE   As2
 BYTE   W12
 BYTE   En2
 BYTE   W12
 BYTE   Gn2
 BYTE   W12
 BYTE   PEND 
//  #02 //003   ----------------------------------------
Label_01540103:
 BYTE   N11  Bn2  v072
 BYTE   W12
 BYTE   En2
 BYTE   W12
 BYTE   Gn2
 BYTE   W12
 BYTE   As2
 BYTE   W12
 BYTE   En2
 BYTE   W12
 BYTE   Gn2
 BYTE   W12
 BYTE   N23  Dn3
 BYTE   W24
 BYTE   PEND 
//  #02 //004   ----------------------------------------
 BYTE   PATT
  POIN2 Label_015400F0
//  #02 //005   ----------------------------------------
 BYTE   PATT
  POIN2 Label_015400DE
//  #02 //006   ----------------------------------------
 BYTE   PATT
  POIN2 Label_015400F0
//  #02 //007   ----------------------------------------
 BYTE   PATT
  POIN2 Label_01540103
//  #02 //008   ----------------------------------------
 BYTE   PATT
  POIN2 Label_015400F0
//  #02 //009   ----------------------------------------
 BYTE   PATT
  POIN2 Label_015400DE
//  #02 //010   ----------------------------------------
 BYTE   PATT
  POIN2 Label_015400F0
//  #02 //011   ----------------------------------------
 BYTE   PATT
  POIN2 Label_01540103
//  #02 //012   ----------------------------------------
 BYTE   PATT
  POIN2 Label_015400F0
//  #02 //013   ----------------------------------------
 BYTE   PATT
  POIN2 Label_015400DE
//  #02 //014   ----------------------------------------
 BYTE   PATT
  POIN2 Label_015400F0
//  #02 //015   ----------------------------------------
 BYTE   PATT
  POIN2 Label_01540103
//  #02 //016   ----------------------------------------
 BYTE   PATT
  POIN2 Label_015400F0
//  #02 //017   ----------------------------------------
 BYTE   PATT
  POIN2 Label_015400DE
//  #02 //018   ----------------------------------------
 BYTE   PATT
  POIN2 Label_015400F0
//  #02 //019   ----------------------------------------
 BYTE   PATT
  POIN2 Label_01540103
//  #02 //020   ----------------------------------------
 BYTE   PATT
  POIN2 Label_015400F0
//  #02 //021   ----------------------------------------
 BYTE   PATT
  POIN2 Label_015400DE
//  #02 //022   ----------------------------------------
 BYTE   PATT
  POIN2 Label_015400F0
//  #02 //023   ----------------------------------------
 BYTE   PATT
  POIN2 Label_01540103
//  #02 //024   ----------------------------------------
 BYTE   PATT
  POIN2 Label_015400F0
//  #02 //025   ----------------------------------------
 BYTE   PATT
  POIN2 Label_015400DE
//  #02 //026   ----------------------------------------
 BYTE   PATT
  POIN2 Label_015400F0
//  #02 //027   ----------------------------------------
 BYTE   PATT
  POIN2 Label_01540103
//  #02 //028   ----------------------------------------
 BYTE   PATT
  POIN2 Label_015400F0
//  #02 //029   ----------------------------------------
 BYTE   PATT
  POIN2 Label_015400DE
//  #02 //030   ----------------------------------------
 BYTE   PATT
  POIN2 Label_015400F0
//  #02 //031   ----------------------------------------
 BYTE   PATT
  POIN2 Label_01540103
//  #02 //032   ----------------------------------------
Label_015401A1:
 BYTE   N44  Ds3  v072
 BYTE   W48
 BYTE   N11  Gs3
 BYTE   W12
 BYTE   Fs3
 BYTE   W12
 BYTE   Fn3
 BYTE   W12
 BYTE   Ds3
 BYTE   W12
 BYTE   PEND 
//  #02 //033   ----------------------------------------
Label_015401AF:
 BYTE   N44  Ds3  v072
 BYTE   W06
 BYTE   W42
 BYTE   N11  Gs3
 BYTE   W12
 BYTE   Fs3
 BYTE   W12
 BYTE   Fn3
 BYTE   W12
 BYTE   Ds3
 BYTE   W12
 BYTE   PEND 
//  #02 //034   ----------------------------------------
 BYTE   PATT
  POIN2 Label_015401AF
//  #02 //035   ----------------------------------------
Label_015401C3:
 BYTE   N32  Ds3  v072
 BYTE   W06
 BYTE   W30
 BYTE   N32  Dn3
 BYTE   W12
 BYTE   W24
 BYTE   N23  Fn3
 BYTE   W24
 BYTE   PEND 
//  #02 //036   ----------------------------------------
 BYTE   PATT
  POIN2 Label_015401AF
//  #02 //037   ----------------------------------------
 BYTE   PATT
  POIN2 Label_015401AF
//  #02 //038   ----------------------------------------
Label_015401DA:
 BYTE   N44  Ds3  v072
 BYTE   W06
 BYTE   W42
 BYTE   N11  Gs3
 BYTE   W12
 BYTE   Fs3  v068
 BYTE   W12
 BYTE   Fn3
 BYTE   W12
 BYTE   Ds3  v072
 BYTE   W12
 BYTE   PEND 
//  #02 //039   ----------------------------------------
Label_015401EB:
 BYTE   N11  Dn3  v072
 BYTE   W12
 BYTE   Fn3
 BYTE   W12
 BYTE   Ds3
 BYTE   W12
 BYTE   Fs3
 BYTE   W12
 BYTE   As3  v084
 BYTE   W12
 BYTE   Gs3
 BYTE   W12
 BYTE   Fs3
 BYTE   W12
 BYTE   Gs3
 BYTE   W12
 BYTE   PEND 
//  #02 //040   ----------------------------------------
 BYTE   PATT
  POIN2 Label_015401A1
//  #02 //041   ----------------------------------------
 BYTE   PATT
  POIN2 Label_015401AF
//  #02 //042   ----------------------------------------
 BYTE   PATT
  POIN2 Label_015401AF
//  #02 //043   ----------------------------------------
 BYTE   PATT
  POIN2 Label_015401C3
//  #02 //044   ----------------------------------------
 BYTE   PATT
  POIN2 Label_015401AF
//  #02 //045   ----------------------------------------
 BYTE   PATT
  POIN2 Label_015401AF
//  #02 //046   ----------------------------------------
 BYTE   PATT
  POIN2 Label_015401DA
//  #02 //047   ----------------------------------------
 BYTE   PATT
  POIN2 Label_015401EB
//  #02 //048   ----------------------------------------
Label_01540227:
 BYTE   N11  Gn3  v092
 BYTE   W12
 BYTE   N23  As3  v076
 BYTE   W24
 BYTE   N11  Gn3  v072
 BYTE   W12
 BYTE   N23  As3  v076
 BYTE   W24
 BYTE   N11  Gn3
 BYTE   W12
 BYTE   N23  As3  v072
 BYTE   W12
 BYTE   PEND 
//  #02 //049   ----------------------------------------
Label_0154023F:
 BYTE   W12
 BYTE   N11  Gn3  v072
 BYTE   W12
 BYTE   N23  As3
 BYTE   W24
 BYTE   N11  As3  v088
 BYTE   W12
 BYTE   N32  Cn4  v084
 BYTE   W36
 BYTE   PEND 
//  #02 //050   ----------------------------------------
Label_01540250:
 BYTE   N11  Gn3  v084
 BYTE   W12
 BYTE   N23  As3  v080
 BYTE   W24
 BYTE   N11  Gn3
 BYTE   W12
 BYTE   N23  As3  v076
 BYTE   W24
 BYTE   N11  Gn3  v080
 BYTE   W12
 BYTE   N23  As3  v076
 BYTE   W12
 BYTE   PEND 
//  #02 //051   ----------------------------------------
Label_01540268:
 BYTE   W12
 BYTE   N11  Gn3  v076
 BYTE   W12
 BYTE   N23  As3
 BYTE   W24
 BYTE   N11  As3  v080
 BYTE   W12
 BYTE   N32  Dn4  v092
 BYTE   W36
 BYTE   PEND 
//  #02 //052   ----------------------------------------
 BYTE   PATT
  POIN2 Label_01540227
//  #02 //053   ----------------------------------------
 BYTE   PATT
  POIN2 Label_0154023F
//  #02 //054   ----------------------------------------
 BYTE   PATT
  POIN2 Label_01540250
//  #02 //055   ----------------------------------------
 BYTE   PATT
  POIN2 Label_01540268
//  #02 //056   ----------------------------------------
Label_0154028D:
 BYTE   N11  En3  v092
 BYTE   W12
 BYTE   N23  Gn3  v076
 BYTE   W24
 BYTE   N11  En3  v072
 BYTE   W12
 BYTE   N23  Gn3  v076
 BYTE   W24
 BYTE   N11  En3
 BYTE   W12
 BYTE   N23  Gn3  v072
 BYTE   W12
 BYTE   PEND 
//  #02 //057   ----------------------------------------
Label_015402A5:
 BYTE   W12
 BYTE   N11  En3  v072
 BYTE   W12
 BYTE   N23  Gn3
 BYTE   W24
 BYTE   N11  Gn3  v088
 BYTE   W12
 BYTE   N32  An3  v084
 BYTE   W36
 BYTE   PEND 
//  #02 //058   ----------------------------------------
Label_015402B6:
 BYTE   N11  En3  v084
 BYTE   W12
 BYTE   N23  Gn3  v080
 BYTE   W24
 BYTE   N11  En3
 BYTE   W12
 BYTE   N23  Gn3  v076
 BYTE   W24
 BYTE   N11  En3  v080
 BYTE   W12
 BYTE   N23  Gn3  v076
 BYTE   W12
 BYTE   PEND 
//  #02 //059   ----------------------------------------
Label_015402CE:
 BYTE   W12
 BYTE   N11  En3  v076
 BYTE   W12
 BYTE   N23  Gn3
 BYTE   W24
 BYTE   N11  Gn3  v080
 BYTE   W12
 BYTE   N32  Bn3  v092
 BYTE   W36
 BYTE   PEND 
//  #02 //060   ----------------------------------------
 BYTE   PATT
  POIN2 Label_0154028D
//  #02 //061   ----------------------------------------
 BYTE   PATT
  POIN2 Label_015402A5
//  #02 //062   ----------------------------------------
 BYTE   PATT
  POIN2 Label_015402B6
//  #02 //063   ----------------------------------------
 BYTE   PATT
  POIN2 Label_015402CE
//  #02 //064   ----------------------------------------
Label_015402F3:
 BYTE   N11  Cn3  v092
 BYTE   W12
 BYTE   N23  Ds3  v076
 BYTE   W24
 BYTE   N11  Cn3  v072
 BYTE   W12
 BYTE   N23  Ds3  v076
 BYTE   W24
 BYTE   N11  Cn3
 BYTE   W12
 BYTE   N23  Ds3  v072
 BYTE   W12
 BYTE   PEND 
//  #02 //065   ----------------------------------------
Label_0154030B:
 BYTE   W12
 BYTE   N11  Cn3  v072
 BYTE   W12
 BYTE   N23  Ds3
 BYTE   W24
 BYTE   N11  Ds3  v088
 BYTE   W12
 BYTE   N32  Fn3  v084
 BYTE   W36
 BYTE   PEND 
//  #02 //066   ----------------------------------------
Label_0154031C:
 BYTE   N11  Cn3  v084
 BYTE   W12
 BYTE   N23  Ds3  v080
 BYTE   W24
 BYTE   N11  Cn3
 BYTE   W12
 BYTE   N23  Ds3  v076
 BYTE   W24
 BYTE   N11  Cn3  v080
 BYTE   W12
 BYTE   N23  Ds3  v076
 BYTE   W12
 BYTE   PEND 
//  #02 //067   ----------------------------------------
Label_01540334:
 BYTE   W12
 BYTE   N11  Cn3  v076
 BYTE   W12
 BYTE   N23  Ds3
 BYTE   W24
 BYTE   N11  Ds3  v080
 BYTE   W12
 BYTE   N32  Gn3  v092
 BYTE   W36
 BYTE   PEND 
//  #02 //068   ----------------------------------------
 BYTE   PATT
  POIN2 Label_015402F3
//  #02 //069   ----------------------------------------
 BYTE   PATT
  POIN2 Label_0154030B
//  #02 //070   ----------------------------------------
 BYTE   PATT
  POIN2 Label_0154031C
//  #02 //071   ----------------------------------------
 BYTE   PATT
  POIN2 Label_01540334
//  #02 //072   ----------------------------------------
 BYTE   GoTo
  POIN2 Label_015400C6
 BYTE   FINE

//**************** Track 3 (Midi-Chn.2) ****************//

CallingThatDetestableName_003:
//  #03 //000   ----------------------------------------
 BYTE   KEYSH   CallingThatDetestableName_key+0
Label_01540E7E:
 BYTE   VOICE   62
 BYTE   VOL   41*CallingThatDetestableName_mvl/mxv
 BYTE   PAN   c_v-62
 BYTE   W06
 BYTE   N11  En2  v040
 BYTE   W12
 BYTE   Gn2
 BYTE   W12
 BYTE   Bn2
 BYTE   W12
 BYTE   En2
 BYTE   W12
 BYTE   Gn2
 BYTE   W12
 BYTE   As2
 BYTE   W12
 BYTE   En2
 BYTE   W12
 BYTE   Gn2
 BYTE   W06
//  #03 //001   ----------------------------------------
Label_01540E97:
 BYTE   W06
 BYTE   N11  Bn2  v040
 BYTE   W12
 BYTE   En2
 BYTE   W12
 BYTE   Gn2
 BYTE   W12
 BYTE   As2
 BYTE   W12
 BYTE   En2
 BYTE   W12
 BYTE   Gn2
 BYTE   W12
 BYTE   N23  Cn3
 BYTE   W18
 BYTE   PEND 
//  #03 //002   ----------------------------------------
Label_01540EAA:
 BYTE   W06
 BYTE   N11  En2  v040
 BYTE   W12
 BYTE   Gn2
 BYTE   W12
 BYTE   Bn2
 BYTE   W12
 BYTE   En2
 BYTE   W12
 BYTE   Gn2
 BYTE   W12
 BYTE   As2
 BYTE   W12
 BYTE   En2
 BYTE   W12
 BYTE   Gn2
 BYTE   W06
 BYTE   PEND 
//  #03 //003   ----------------------------------------
Label_01540EBE:
 BYTE   W06
 BYTE   N11  Bn2  v040
 BYTE   W12
 BYTE   En2
 BYTE   W12
 BYTE   Gn2
 BYTE   W12
 BYTE   As2
 BYTE   W12
 BYTE   En2
 BYTE   W12
 BYTE   Gn2
 BYTE   W12
 BYTE   N23  Dn3
 BYTE   W18
 BYTE   PEND 
//  #03 //004   ----------------------------------------
 BYTE   PATT
  POIN2 Label_01540EAA
//  #03 //005   ----------------------------------------
 BYTE   PATT
  POIN2 Label_01540E97
//  #03 //006   ----------------------------------------
 BYTE   PATT
  POIN2 Label_01540EAA
//  #03 //007   ----------------------------------------
 BYTE   PATT
  POIN2 Label_01540EBE
//  #03 //008   ----------------------------------------
Label_01540EE5:
 BYTE   N11  Bn3  v080
 BYTE   W12
 BYTE   En4  v084
 BYTE   W12
 BYTE   TIE  Gn4  v080
 BYTE   W12
 BYTE   Dn5  v084
 BYTE   W60
 BYTE   PEND 
//  #03 //009   ----------------------------------------
 BYTE   W68
 BYTE   W03
 BYTE   EOT
 BYTE   Gn4
 BYTE   W24
 BYTE   Dn5
 BYTE   W01
//  #03 //010   ----------------------------------------
Label_01540EFB:
 BYTE   N11  Bn3  v084
 BYTE   W12
 BYTE   En4  v088
 BYTE   W12
 BYTE   TIE  Gn4
 BYTE   W12
 BYTE   Cs5
 BYTE   W60
 BYTE   PEND 
//  #03 //011   ----------------------------------------
 BYTE   W68
 BYTE   W03
 BYTE   EOT
 BYTE   Gn4
 BYTE   W24
 BYTE   W01
//  #03 //012   ----------------------------------------
 BYTE   N11  Bn3  v080
 BYTE   W09
 BYTE   EOT
 BYTE   Cs5
 BYTE   W03
 BYTE   N11  En4  v084
 BYTE   W12
 BYTE   TIE  Gn4  v080
 BYTE   W12
 BYTE   Dn5  v084
 BYTE   W60
//  #03 //013   ----------------------------------------
 BYTE   W68
 BYTE   W03
 BYTE   EOT
 BYTE   Gn4
 BYTE   W24
 BYTE   Dn5
 BYTE   W01
//  #03 //014   ----------------------------------------
Label_01540F27:
 BYTE   N11  Bn3  v084
 BYTE   W12
 BYTE   En4  v088
 BYTE   W12
 BYTE   TIE  Gn4
 BYTE   W12
 BYTE   As4
 BYTE   W60
 BYTE   PEND 
//  #03 //015   ----------------------------------------
 BYTE   W68
 BYTE   W03
 BYTE   EOT
 BYTE   Gn4
 BYTE   W24
 BYTE   As4
 BYTE   W01
//  #03 //016   ----------------------------------------
 BYTE   PATT
  POIN2 Label_01540EE5
//  #03 //017   ----------------------------------------
 BYTE   W68
 BYTE   W03
 BYTE   EOT
 BYTE   Gn4
 BYTE   W24
 BYTE   Dn5
 BYTE   W01
//  #03 //018   ----------------------------------------
 BYTE   PATT
  POIN2 Label_01540EFB
//  #03 //019   ----------------------------------------
 BYTE   W68
 BYTE   W03
 BYTE   EOT
 BYTE   Gn4
 BYTE   W24
 BYTE   W01
//  #03 //020   ----------------------------------------
 BYTE   N11  Bn3  v080
 BYTE   W09
 BYTE   EOT
 BYTE   Cs5
 BYTE   W03
 BYTE   N11  En4  v084
 BYTE   W12
 BYTE   TIE  Gn4  v080
 BYTE   W12
 BYTE   Dn5  v084
 BYTE   W60
//  #03 //021   ----------------------------------------
 BYTE   W68
 BYTE   W03
 BYTE   EOT
 BYTE   Gn4
 BYTE   W24
 BYTE   Dn5
 BYTE   W01
//  #03 //022   ----------------------------------------
 BYTE   PATT
  POIN2 Label_01540F27
//  #03 //023   ----------------------------------------
 BYTE   W68
 BYTE   W03
 BYTE   EOT
 BYTE   Gn4
 BYTE   W24
 BYTE   As4
 BYTE   W01
//  #03 //024   ----------------------------------------
Label_01540F77:
 BYTE   W12
 BYTE   N11  En2  v040
 BYTE   W12
 BYTE   Gn2
 BYTE   W12
 BYTE   Bn2
 BYTE   W12
 BYTE   En2
 BYTE   W12
 BYTE   Gn2
 BYTE   W12
 BYTE   As2
 BYTE   W12
 BYTE   En2
 BYTE   W12
 BYTE   PEND 
//  #03 //025   ----------------------------------------
Label_01540F89:
 BYTE   N11  Gn2  v040
 BYTE   W12
 BYTE   Bn2
 BYTE   W12
 BYTE   En2
 BYTE   W12
 BYTE   Gn2
 BYTE   W12
 BYTE   As2
 BYTE   W12
 BYTE   En2
 BYTE   W12
 BYTE   Gn2
 BYTE   W12
 BYTE   N23  Cn3
 BYTE   W12
 BYTE   PEND 
//  #03 //026   ----------------------------------------
 BYTE   PATT
  POIN2 Label_01540F77
//  #03 //027   ----------------------------------------
Label_01540FA2:
 BYTE   N11  Gn2  v040
 BYTE   W12
 BYTE   Bn2
 BYTE   W12
 BYTE   En2
 BYTE   W12
 BYTE   Gn2
 BYTE   W12
 BYTE   As2
 BYTE   W12
 BYTE   En2
 BYTE   W12
 BYTE   Gn2
 BYTE   W12
 BYTE   N23  Dn3
 BYTE   W12
 BYTE   PEND 
//  #03 //028   ----------------------------------------
 BYTE   PATT
  POIN2 Label_01540F77
//  #03 //029   ----------------------------------------
 BYTE   PATT
  POIN2 Label_01540F89
//  #03 //030   ----------------------------------------
 BYTE   PATT
  POIN2 Label_01540F77
//  #03 //031   ----------------------------------------
 BYTE   PATT
  POIN2 Label_01540FA2
//  #03 //032   ----------------------------------------
Label_01540FCA:
 BYTE   N44  Ds4  v080
 BYTE   W06
 BYTE   W42
 BYTE   N11  Gs4
 BYTE   W12
 BYTE   Fs4  v072
 BYTE   W12
 BYTE   Fn4  v076
 BYTE   W12
 BYTE   Ds4  v080
 BYTE   W12
 BYTE   PEND 
//  #03 //033   ----------------------------------------
Label_01540FDC:
 BYTE   N44  Ds4  v088
 BYTE   W06
 BYTE   W42
 BYTE   N11  Gs4  v080
 BYTE   W12
 BYTE   Fs4  v076
 BYTE   W12
 BYTE   Fn4  v080
 BYTE   W12
 BYTE   Ds4  v084
 BYTE   W12
 BYTE   PEND 
//  #03 //034   ----------------------------------------
Label_01540FEF:
 BYTE   N44  Ds4  v092
 BYTE   W06
 BYTE   W42
 BYTE   N11  Gs4  v076
 BYTE   W12
 BYTE   Fs4  v072
 BYTE   W12
 BYTE   Fn4
 BYTE   W12
 BYTE   Ds4
 BYTE   W12
 BYTE   PEND 
//  #03 //035   ----------------------------------------
Label_01541000:
 BYTE   N32  Ds4  v088
 BYTE   W06
 BYTE   W30
 BYTE   N32  Dn4  v072
 BYTE   W12
 BYTE   W24
 BYTE   N23  Fn4  v084
 BYTE   W24
 BYTE   PEND 
//  #03 //036   ----------------------------------------
 BYTE   PATT
  POIN2 Label_01540FCA
//  #03 //037   ----------------------------------------
 BYTE   PATT
  POIN2 Label_01540FDC
//  #03 //038   ----------------------------------------
Label_01541019:
 BYTE   N44  Ds4  v092
 BYTE   W06
 BYTE   W42
 BYTE   N11  Gs4  v080
 BYTE   W12
 BYTE   Fs4  v076
 BYTE   W12
 BYTE   Fn4  v080
 BYTE   W12
 BYTE   Ds4  v084
 BYTE   W12
 BYTE   PEND 
//  #03 //039   ----------------------------------------
Label_0154102C:
 BYTE   N11  As3  v072
 BYTE   N11  Dn4  v084
 BYTE   W12
 BYTE   Dn4  v072
 BYTE   N11  Fn4  v084
 BYTE   W12
 BYTE   Cn4  v072
 BYTE   N11  Ds4  v084
 BYTE   W12
 BYTE   Ds4  v072
 BYTE   N11  Fs4  v084
 BYTE   W12
 BYTE   N11
 BYTE   N11  As4
 BYTE   W12
 BYTE   Fn4
 BYTE   N11  Gs4
 BYTE   W12
 BYTE   Ds4
 BYTE   N11  Fs4
 BYTE   W12
 BYTE   Fn4
 BYTE   N11  Gs4
 BYTE   W12
 BYTE   PEND 
//  #03 //040   ----------------------------------------
 BYTE   PATT
  POIN2 Label_01540FCA
//  #03 //041   ----------------------------------------
 BYTE   PATT
  POIN2 Label_01540FDC
//  #03 //042   ----------------------------------------
 BYTE   PATT
  POIN2 Label_01540FEF
//  #03 //043   ----------------------------------------
 BYTE   PATT
  POIN2 Label_01541000
//  #03 //044   ----------------------------------------
 BYTE   PATT
  POIN2 Label_01540FCA
//  #03 //045   ----------------------------------------
 BYTE   PATT
  POIN2 Label_01540FDC
//  #03 //046   ----------------------------------------
 BYTE   PATT
  POIN2 Label_01541019
//  #03 //047   ----------------------------------------
 BYTE   PATT
  POIN2 Label_0154102C
//  #03 //048   ----------------------------------------
Label_0154107E:
 BYTE   N11  Cn3  v072
 BYTE   W12
 BYTE   N23  Ds3  v068
 BYTE   W24
 BYTE   N11  Cn3  v060
 BYTE   W12
 BYTE   N23  Ds3  v064
 BYTE   W24
 BYTE   N11  Cn3  v056
 BYTE   W12
 BYTE   N23  Ds3  v064
 BYTE   W12
 BYTE   PEND 
//  #03 //049   ----------------------------------------
Label_01541097:
 BYTE   W12
 BYTE   N11  Cn3  v056
 BYTE   W12
 BYTE   N23  Ds3  v072
 BYTE   W24
 BYTE   N11
 BYTE   W12
 BYTE   N23  Fn3  v060
 BYTE   W36
 BYTE   PEND 
//  #03 //050   ----------------------------------------
Label_015410A7:
 BYTE   N11  Cn3  v064
 BYTE   W12
 BYTE   N23  Ds3
 BYTE   W24
 BYTE   N11  Cn3  v060
 BYTE   W12
 BYTE   N23  Ds3  v064
 BYTE   W24
 BYTE   N11  Cn3  v072
 BYTE   W12
 BYTE   N23  Ds3  v076
 BYTE   W12
 BYTE   PEND 
//  #03 //051   ----------------------------------------
Label_015410BF:
 BYTE   W12
 BYTE   N11  Cn3  v056
 BYTE   W12
 BYTE   N23  Ds3  v060
 BYTE   W24
 BYTE   N11
 BYTE   W12
 BYTE   N23  Gn3  v068
 BYTE   W36
 BYTE   PEND 
//  #03 //052   ----------------------------------------
 BYTE   PATT
  POIN2 Label_0154107E
//  #03 //053   ----------------------------------------
 BYTE   PATT
  POIN2 Label_01541097
//  #03 //054   ----------------------------------------
 BYTE   PATT
  POIN2 Label_015410A7
//  #03 //055   ----------------------------------------
 BYTE   PATT
  POIN2 Label_015410BF
//  #03 //056   ----------------------------------------
Label_015410E3:
 BYTE   N11  An2  v072
 BYTE   W12
 BYTE   N23  Cn3  v068
 BYTE   W24
 BYTE   N11  An2  v060
 BYTE   W12
 BYTE   N23  Cn3  v064
 BYTE   W24
 BYTE   N11  An2  v056
 BYTE   W12
 BYTE   N23  Cn3  v064
 BYTE   W12
 BYTE   PEND 
//  #03 //057   ----------------------------------------
Label_015410FC:
 BYTE   W12
 BYTE   N11  An2  v056
 BYTE   W12
 BYTE   N23  Cn3  v072
 BYTE   W24
 BYTE   N11
 BYTE   W12
 BYTE   N23  Dn3  v060
 BYTE   W36
 BYTE   PEND 
//  #03 //058   ----------------------------------------
Label_0154110C:
 BYTE   N11  An2  v064
 BYTE   W12
 BYTE   N23  Cn3
 BYTE   W24
 BYTE   N11  An2  v060
 BYTE   W12
 BYTE   N23  Cn3  v064
 BYTE   W24
 BYTE   N11  An2  v072
 BYTE   W12
 BYTE   N23  Cn3  v076
 BYTE   W12
 BYTE   PEND 
//  #03 //059   ----------------------------------------
Label_01541124:
 BYTE   W12
 BYTE   N11  An2  v056
 BYTE   W12
 BYTE   N23  Cn3  v060
 BYTE   W24
 BYTE   N11
 BYTE   W12
 BYTE   N23  En3  v068
 BYTE   W36
 BYTE   PEND 
//  #03 //060   ----------------------------------------
 BYTE   PATT
  POIN2 Label_015410E3
//  #03 //061   ----------------------------------------
 BYTE   PATT
  POIN2 Label_015410FC
//  #03 //062   ----------------------------------------
 BYTE   PATT
  POIN2 Label_0154110C
//  #03 //063   ----------------------------------------
 BYTE   PATT
  POIN2 Label_01541124
//  #03 //064   ----------------------------------------
Label_01541148:
 BYTE   N11  Fn2  v072
 BYTE   W12
 BYTE   N23  Gs2  v068
 BYTE   W24
 BYTE   N11  Fn2  v060
 BYTE   W12
 BYTE   N23  Gs2  v064
 BYTE   W24
 BYTE   N11  Fn2  v056
 BYTE   W12
 BYTE   N23  Gs2  v064
 BYTE   W12
 BYTE   PEND 
//  #03 //065   ----------------------------------------
Label_01541161:
 BYTE   W12
 BYTE   N11  Fn2  v056
 BYTE   W12
 BYTE   N23  Gs2  v072
 BYTE   W24
 BYTE   N11
 BYTE   W12
 BYTE   N23  As2  v060
 BYTE   W36
 BYTE   PEND 
//  #03 //066   ----------------------------------------
Label_01541171:
 BYTE   N11  Fn2  v064
 BYTE   W12
 BYTE   N23  Gs2
 BYTE   W24
 BYTE   N11  Fn2  v060
 BYTE   W12
 BYTE   N23  Gs2  v064
 BYTE   W24
 BYTE   N11  Fn2  v072
 BYTE   W12
 BYTE   N23  Gs2  v076
 BYTE   W12
 BYTE   PEND 
//  #03 //067   ----------------------------------------
Label_01541189:
 BYTE   W12
 BYTE   N11  Fn2  v056
 BYTE   W12
 BYTE   N23  Gs2  v060
 BYTE   W24
 BYTE   N11
 BYTE   W12
 BYTE   N23  Cn3  v068
 BYTE   W36
 BYTE   PEND 
//  #03 //068   ----------------------------------------
 BYTE   PATT
  POIN2 Label_01541148
//  #03 //069   ----------------------------------------
 BYTE   PATT
  POIN2 Label_01541161
//  #03 //070   ----------------------------------------
 BYTE   PATT
  POIN2 Label_01541171
//  #03 //071   ----------------------------------------
 BYTE   PATT
  POIN2 Label_01541189
//  #03 //072   ----------------------------------------
 BYTE   GoTo
  POIN2 Label_01540E7E
 BYTE   FINE

//**************** Track 4 (Midi-Chn.3) ****************//

CallingThatDetestableName_004:
//  #04 //000   ----------------------------------------
 BYTE   KEYSH   CallingThatDetestableName_key+0
Label_0153EB5E:
 BYTE   VOICE   38
 BYTE   VOL   46*CallingThatDetestableName_mvl/mxv
 BYTE   PAN   c_v+0
 BYTE   N11  En0  v080
 BYTE   W12
 BYTE   Gn0
 BYTE   W12
 BYTE   Bn0
 BYTE   W12
 BYTE   En0
 BYTE   W12
 BYTE   Gn0
 BYTE   W12
 BYTE   An0
 BYTE   W12
 BYTE   En0
 BYTE   W12
 BYTE   Gn0
 BYTE   W12
//  #04 //001   ----------------------------------------
Label_0153EB76:
 BYTE   N11  Bn0  v080
 BYTE   W12
 BYTE   En0
 BYTE   W12
 BYTE   Gn0
 BYTE   W12
 BYTE   An0
 BYTE   W12
 BYTE   En0
 BYTE   W12
 BYTE   Gn0
 BYTE   W12
 BYTE   N23  Cn1
 BYTE   W24
 BYTE   PEND 
//  #04 //002   ----------------------------------------
Label_0153EB88:
 BYTE   N11  En0  v080
 BYTE   W12
 BYTE   Gn0
 BYTE   W12
 BYTE   Bn0
 BYTE   W12
 BYTE   En0
 BYTE   W12
 BYTE   Gn0
 BYTE   W12
 BYTE   An0
 BYTE   W12
 BYTE   En0
 BYTE   W12
 BYTE   Gn0
 BYTE   W12
 BYTE   PEND 
//  #04 //003   ----------------------------------------
Label_0153EB9B:
 BYTE   N11  Bn0  v080
 BYTE   W12
 BYTE   En0
 BYTE   W12
 BYTE   Gn0
 BYTE   W12
 BYTE   An0
 BYTE   W12
 BYTE   En0
 BYTE   W12
 BYTE   Gn0
 BYTE   W12
 BYTE   N23  Dn1
 BYTE   W24
 BYTE   PEND 
//  #04 //004   ----------------------------------------
 BYTE   PATT
  POIN2 Label_0153EB88
//  #04 //005   ----------------------------------------
 BYTE   PATT
  POIN2 Label_0153EB76
//  #04 //006   ----------------------------------------
 BYTE   PATT
  POIN2 Label_0153EB88
//  #04 //007   ----------------------------------------
 BYTE   PATT
  POIN2 Label_0153EB9B
//  #04 //008   ----------------------------------------
 BYTE   PATT
  POIN2 Label_0153EB88
//  #04 //009   ----------------------------------------
 BYTE   PATT
  POIN2 Label_0153EB76
//  #04 //010   ----------------------------------------
 BYTE   PATT
  POIN2 Label_0153EB88
//  #04 //011   ----------------------------------------
 BYTE   PATT
  POIN2 Label_0153EB9B
//  #04 //012   ----------------------------------------
 BYTE   PATT
  POIN2 Label_0153EB88
//  #04 //013   ----------------------------------------
 BYTE   PATT
  POIN2 Label_0153EB76
//  #04 //014   ----------------------------------------
 BYTE   PATT
  POIN2 Label_0153EB88
//  #04 //015   ----------------------------------------
 BYTE   PATT
  POIN2 Label_0153EB9B
//  #04 //016   ----------------------------------------
 BYTE   PATT
  POIN2 Label_0153EB88
//  #04 //017   ----------------------------------------
 BYTE   PATT
  POIN2 Label_0153EB76
//  #04 //018   ----------------------------------------
 BYTE   PATT
  POIN2 Label_0153EB88
//  #04 //019   ----------------------------------------
 BYTE   PATT
  POIN2 Label_0153EB9B
//  #04 //020   ----------------------------------------
 BYTE   PATT
  POIN2 Label_0153EB88
//  #04 //021   ----------------------------------------
 BYTE   PATT
  POIN2 Label_0153EB76
//  #04 //022   ----------------------------------------
 BYTE   PATT
  POIN2 Label_0153EB88
//  #04 //023   ----------------------------------------
 BYTE   PATT
  POIN2 Label_0153EB9B
//  #04 //024   ----------------------------------------
 BYTE   PATT
  POIN2 Label_0153EB88
//  #04 //025   ----------------------------------------
 BYTE   PATT
  POIN2 Label_0153EB76
//  #04 //026   ----------------------------------------
 BYTE   PATT
  POIN2 Label_0153EB88
//  #04 //027   ----------------------------------------
 BYTE   PATT
  POIN2 Label_0153EB9B
//  #04 //028   ----------------------------------------
 BYTE   PATT
  POIN2 Label_0153EB88
//  #04 //029   ----------------------------------------
 BYTE   PATT
  POIN2 Label_0153EB76
//  #04 //030   ----------------------------------------
 BYTE   PATT
  POIN2 Label_0153EB88
//  #04 //031   ----------------------------------------
 BYTE   PATT
  POIN2 Label_0153EB9B
//  #04 //032   ----------------------------------------
Label_0153EC39:
 BYTE   N12  Bn0  v080
 BYTE   W12
 BYTE   N15  Bn1
 BYTE   W12
 BYTE   N11  Bn0
 BYTE   W12
 BYTE   N12  Bn1
 BYTE   W12
 BYTE   Bn0
 BYTE   W12
 BYTE   N14  Bn1
 BYTE   W12
 BYTE   N12  Bn0
 BYTE   W12
 BYTE   N09  Bn1
 BYTE   W12
 BYTE   PEND 
//  #04 //033   ----------------------------------------
Label_0153EC52:
 BYTE   N14  As0  v080
 BYTE   W12
 BYTE   As1
 BYTE   W12
 BYTE   As0
 BYTE   W12
 BYTE   N13  As1
 BYTE   W12
 BYTE   As0
 BYTE   W12
 BYTE   N14  As1
 BYTE   W12
 BYTE   N13  As0
 BYTE   W12
 BYTE   N09  As1
 BYTE   W12
 BYTE   PEND 
//  #04 //034   ----------------------------------------
Label_0153EC69:
 BYTE   N14  An0  v080
 BYTE   W12
 BYTE   An1
 BYTE   W12
 BYTE   N11  An0
 BYTE   W12
 BYTE   N13  An1
 BYTE   W12
 BYTE   N12  An0
 BYTE   W12
 BYTE   An1
 BYTE   W12
 BYTE   N11  An0
 BYTE   W12
 BYTE   N10  An1
 BYTE   W12
 BYTE   PEND 
//  #04 //035   ----------------------------------------
Label_0153EC81:
 BYTE   N15  As0  v080
 BYTE   W12
 BYTE   N14  As1
 BYTE   W12
 BYTE   N12  As0
 BYTE   W12
 BYTE   N14  As1
 BYTE   W12
 BYTE   N13  As0
 BYTE   W12
 BYTE   N14  As1
 BYTE   W12
 BYTE   N15  As0
 BYTE   W12
 BYTE   N12  As1
 BYTE   W12
 BYTE   PEND 
//  #04 //036   ----------------------------------------
 BYTE   PATT
  POIN2 Label_0153EC39
//  #04 //037   ----------------------------------------
 BYTE   PATT
  POIN2 Label_0153EC52
//  #04 //038   ----------------------------------------
 BYTE   PATT
  POIN2 Label_0153EC69
//  #04 //039   ----------------------------------------
 BYTE   PATT
  POIN2 Label_0153EC81
//  #04 //040   ----------------------------------------
 BYTE   PATT
  POIN2 Label_0153EC39
//  #04 //041   ----------------------------------------
 BYTE   PATT
  POIN2 Label_0153EC52
//  #04 //042   ----------------------------------------
 BYTE   PATT
  POIN2 Label_0153EC69
//  #04 //043   ----------------------------------------
 BYTE   PATT
  POIN2 Label_0153EC81
//  #04 //044   ----------------------------------------
 BYTE   PATT
  POIN2 Label_0153EC39
//  #04 //045   ----------------------------------------
 BYTE   PATT
  POIN2 Label_0153EC52
//  #04 //046   ----------------------------------------
 BYTE   PATT
  POIN2 Label_0153EC69
//  #04 //047   ----------------------------------------
 BYTE   PATT
  POIN2 Label_0153EC81
//  #04 //048   ----------------------------------------
Label_0153ECD7:
 BYTE   N11  Cn1  v080
 BYTE   W12
 BYTE   Ds1
 BYTE   W12
 BYTE   Gn1
 BYTE   W12
 BYTE   Cn1
 BYTE   W12
 BYTE   Ds1
 BYTE   W12
 BYTE   Fn1
 BYTE   W12
 BYTE   Cn1
 BYTE   W12
 BYTE   Ds1
 BYTE   W12
 BYTE   PEND 
//  #04 //049   ----------------------------------------
Label_0153ECEA:
 BYTE   N11  Gn1  v080
 BYTE   W12
 BYTE   Cn1
 BYTE   W12
 BYTE   Ds1
 BYTE   W12
 BYTE   Fn1
 BYTE   W12
 BYTE   Cn1
 BYTE   W12
 BYTE   Ds1
 BYTE   W12
 BYTE   N23  Gs1
 BYTE   W24
 BYTE   PEND 
//  #04 //050   ----------------------------------------
 BYTE   PATT
  POIN2 Label_0153ECD7
//  #04 //051   ----------------------------------------
Label_0153ED01:
 BYTE   N11  Gn1  v080
 BYTE   W12
 BYTE   Cn1
 BYTE   W12
 BYTE   Ds1
 BYTE   W12
 BYTE   Fn1
 BYTE   W12
 BYTE   Cn1
 BYTE   W12
 BYTE   Ds1
 BYTE   W12
 BYTE   N23  As1
 BYTE   W24
 BYTE   PEND 
//  #04 //052   ----------------------------------------
 BYTE   PATT
  POIN2 Label_0153ECD7
//  #04 //053   ----------------------------------------
 BYTE   PATT
  POIN2 Label_0153ECEA
//  #04 //054   ----------------------------------------
 BYTE   PATT
  POIN2 Label_0153ECD7
//  #04 //055   ----------------------------------------
 BYTE   PATT
  POIN2 Label_0153ED01
//  #04 //056   ----------------------------------------
Label_0153ED27:
 BYTE   N11  An0  v080
 BYTE   W12
 BYTE   Cn1
 BYTE   W12
 BYTE   En1
 BYTE   W12
 BYTE   An0
 BYTE   W12
 BYTE   Cn1
 BYTE   W12
 BYTE   Dn1
 BYTE   W12
 BYTE   An0
 BYTE   W12
 BYTE   Cn1
 BYTE   W12
 BYTE   PEND 
//  #04 //057   ----------------------------------------
Label_0153ED3A:
 BYTE   N11  En1  v080
 BYTE   W12
 BYTE   An0
 BYTE   W12
 BYTE   Cn1
 BYTE   W12
 BYTE   Dn1
 BYTE   W12
 BYTE   An0
 BYTE   W12
 BYTE   Cn1
 BYTE   W12
 BYTE   N23  Fn1
 BYTE   W24
 BYTE   PEND 
//  #04 //058   ----------------------------------------
 BYTE   PATT
  POIN2 Label_0153ED27
//  #04 //059   ----------------------------------------
Label_0153ED51:
 BYTE   N11  En1  v080
 BYTE   W12
 BYTE   An0
 BYTE   W12
 BYTE   Cn1
 BYTE   W12
 BYTE   Dn1
 BYTE   W12
 BYTE   An0
 BYTE   W12
 BYTE   Cn1
 BYTE   W12
 BYTE   N23  Gn1
 BYTE   W24
 BYTE   PEND 
//  #04 //060   ----------------------------------------
 BYTE   PATT
  POIN2 Label_0153ED27
//  #04 //061   ----------------------------------------
 BYTE   PATT
  POIN2 Label_0153ED3A
//  #04 //062   ----------------------------------------
 BYTE   PATT
  POIN2 Label_0153ED27
//  #04 //063   ----------------------------------------
 BYTE   PATT
  POIN2 Label_0153ED51
//  #04 //064   ----------------------------------------
Label_0153ED77:
 BYTE   N11  Fn0  v080
 BYTE   W12
 BYTE   Gs0
 BYTE   W12
 BYTE   Cn1
 BYTE   W12
 BYTE   Fn0
 BYTE   W12
 BYTE   Gs0
 BYTE   W12
 BYTE   As0
 BYTE   W12
 BYTE   Fn0
 BYTE   W12
 BYTE   Gs0
 BYTE   W12
 BYTE   PEND 
//  #04 //065   ----------------------------------------
Label_0153ED8A:
 BYTE   N11  Cn1  v080
 BYTE   W12
 BYTE   Fn0
 BYTE   W12
 BYTE   Gs0
 BYTE   W12
 BYTE   As0
 BYTE   W12
 BYTE   Fn0
 BYTE   W12
 BYTE   Gs0
 BYTE   W12
 BYTE   N23  Cs1
 BYTE   W24
 BYTE   PEND 
//  #04 //066   ----------------------------------------
 BYTE   PATT
  POIN2 Label_0153ED77
//  #04 //067   ----------------------------------------
Label_0153EDA1:
 BYTE   N11  Cn1  v080
 BYTE   W12
 BYTE   Fn0
 BYTE   W12
 BYTE   Gs0
 BYTE   W12
 BYTE   As0
 BYTE   W12
 BYTE   Fn0
 BYTE   W12
 BYTE   Gs0
 BYTE   W12
 BYTE   N23  Ds1
 BYTE   W24
 BYTE   PEND 
//  #04 //068   ----------------------------------------
 BYTE   PATT
  POIN2 Label_0153ED77
//  #04 //069   ----------------------------------------
 BYTE   PATT
  POIN2 Label_0153ED8A
//  #04 //070   ----------------------------------------
 BYTE   PATT
  POIN2 Label_0153ED77
//  #04 //071   ----------------------------------------
 BYTE   PATT
  POIN2 Label_0153EDA1
//  #04 //072   ----------------------------------------
 BYTE   GoTo
  POIN2 Label_0153EB5E
 BYTE   FINE

//**************** Track 5 (Midi-Chn.4) ****************//

CallingThatDetestableName_005:
//  #05 //000   ----------------------------------------
 BYTE   KEYSH   CallingThatDetestableName_key+0
Label_0153F172:
 BYTE   VOICE   28
 BYTE   VOL   65*CallingThatDetestableName_mvl/mxv
 BYTE   PAN   c_v+0
 BYTE   W96
//  #05 //001   ----------------------------------------
 BYTE   W96
//  #05 //002   ----------------------------------------
 BYTE   W96
//  #05 //003   ----------------------------------------
 BYTE   W96
//  #05 //004   ----------------------------------------
 BYTE   W96
//  #05 //005   ----------------------------------------
 BYTE   W96
//  #05 //006   ----------------------------------------
 BYTE   W96
//  #05 //007   ----------------------------------------
 BYTE   W96
//  #05 //008   ----------------------------------------
 BYTE   W96
//  #05 //009   ----------------------------------------
 BYTE   W96
//  #05 //010   ----------------------------------------
 BYTE   W96
//  #05 //011   ----------------------------------------
 BYTE   W96
//  #05 //012   ----------------------------------------
 BYTE   W96
//  #05 //013   ----------------------------------------
 BYTE   W96
//  #05 //014   ----------------------------------------
 BYTE   W96
//  #05 //015   ----------------------------------------
 BYTE   W96
//  #05 //016   ----------------------------------------
 BYTE   W96
//  #05 //017   ----------------------------------------
 BYTE   W96
//  #05 //018   ----------------------------------------
 BYTE   W96
//  #05 //019   ----------------------------------------
 BYTE   W96
//  #05 //020   ----------------------------------------
 BYTE   W96
//  #05 //021   ----------------------------------------
 BYTE   W96
//  #05 //022   ----------------------------------------
 BYTE   W96
//  #05 //023   ----------------------------------------
 BYTE   W96
//  #05 //024   ----------------------------------------
 BYTE   W96
//  #05 //025   ----------------------------------------
 BYTE   W96
//  #05 //026   ----------------------------------------
 BYTE   W96
//  #05 //027   ----------------------------------------
 BYTE   W96
//  #05 //028   ----------------------------------------
 BYTE   W96
//  #05 //029   ----------------------------------------
 BYTE   W96
//  #05 //030   ----------------------------------------
 BYTE   W96
//  #05 //031   ----------------------------------------
 BYTE   W96
//  #05 //032   ----------------------------------------
Label_0153F198:
 BYTE   N19  Fs3  v060
 BYTE   W12
 BYTE   N14  Bn3
 BYTE   W12
 BYTE   N13  Ds4
 BYTE   W12
 BYTE   Bn3
 BYTE   W12
 BYTE   N15  Fn4
 BYTE   W12
 BYTE   N11  Bn3
 BYTE   W12
 BYTE   N16  Fs4
 BYTE   W12
 BYTE   N12  Bn3
 BYTE   W12
 BYTE   PEND 
//  #05 //033   ----------------------------------------
Label_0153F1B1:
 BYTE   N14  Fs3  v060
 BYTE   W12
 BYTE   N13  As3
 BYTE   W12
 BYTE   N12  Ds4
 BYTE   W12
 BYTE   N13  As3
 BYTE   W12
 BYTE   Fn4
 BYTE   W12
 BYTE   N14  As3
 BYTE   W12
 BYTE   Fs4
 BYTE   W12
 BYTE   N11  As3
 BYTE   W12
 BYTE   PEND 
//  #05 //034   ----------------------------------------
Label_0153F1C9:
 BYTE   N16  Fs3  v060
 BYTE   W12
 BYTE   N13  An3
 BYTE   W12
 BYTE   N12  Ds4
 BYTE   W12
 BYTE   N14  An3
 BYTE   W12
 BYTE   N12  Fn4
 BYTE   W12
 BYTE   N13  An3
 BYTE   W12
 BYTE   N15  Fs4
 BYTE   W12
 BYTE   N11  An3
 BYTE   W12
 BYTE   PEND 
//  #05 //035   ----------------------------------------
Label_0153F1E3:
 BYTE   N16  Fs3  v060
 BYTE   W12
 BYTE   N13  As3
 BYTE   W12
 BYTE   N12  Ds4
 BYTE   W12
 BYTE   N15  As3
 BYTE   W12
 BYTE   N12  Fn4
 BYTE   W12
 BYTE   N14  As3
 BYTE   W12
 BYTE   N13  Fs4
 BYTE   W12
 BYTE   N07  As3
 BYTE   W12
 BYTE   PEND 
//  #05 //036   ----------------------------------------
 BYTE   PATT
  POIN2 Label_0153F198
//  #05 //037   ----------------------------------------
 BYTE   PATT
  POIN2 Label_0153F1B1
//  #05 //038   ----------------------------------------
 BYTE   PATT
  POIN2 Label_0153F1C9
//  #05 //039   ----------------------------------------
 BYTE   PATT
  POIN2 Label_0153F1E3
//  #05 //040   ----------------------------------------
 BYTE   PATT
  POIN2 Label_0153F198
//  #05 //041   ----------------------------------------
 BYTE   PATT
  POIN2 Label_0153F1B1
//  #05 //042   ----------------------------------------
 BYTE   PATT
  POIN2 Label_0153F1C9
//  #05 //043   ----------------------------------------
 BYTE   PATT
  POIN2 Label_0153F1E3
//  #05 //044   ----------------------------------------
 BYTE   PATT
  POIN2 Label_0153F198
//  #05 //045   ----------------------------------------
 BYTE   PATT
  POIN2 Label_0153F1B1
//  #05 //046   ----------------------------------------
 BYTE   PATT
  POIN2 Label_0153F1C9
//  #05 //047   ----------------------------------------
 BYTE   PATT
  POIN2 Label_0153F1E3
//  #05 //048   ----------------------------------------
 BYTE   W96
//  #05 //049   ----------------------------------------
 BYTE   W96
//  #05 //050   ----------------------------------------
 BYTE   W96
//  #05 //051   ----------------------------------------
 BYTE   W96
//  #05 //052   ----------------------------------------
 BYTE   W96
//  #05 //053   ----------------------------------------
 BYTE   W96
//  #05 //054   ----------------------------------------
 BYTE   W96
//  #05 //055   ----------------------------------------
 BYTE   W96
//  #05 //056   ----------------------------------------
 BYTE   W96
//  #05 //057   ----------------------------------------
 BYTE   W96
//  #05 //058   ----------------------------------------
 BYTE   W96
//  #05 //059   ----------------------------------------
 BYTE   W96
//  #05 //060   ----------------------------------------
 BYTE   W96
//  #05 //061   ----------------------------------------
 BYTE   W96
//  #05 //062   ----------------------------------------
 BYTE   W96
//  #05 //063   ----------------------------------------
 BYTE   W96
//  #05 //064   ----------------------------------------
 BYTE   W02
 BYTE   N80  Gs3  v072
 BYTE   W01
 BYTE   Fn3
 BYTE   W92
 BYTE   W01
//  #05 //065   ----------------------------------------
 BYTE   N05  As3
 BYTE   W06
 BYTE   Gs3
 BYTE   W06
 BYTE   Gn3
 BYTE   W06
 BYTE   Fn3
 BYTE   W06
 BYTE   Gs3
 BYTE   W06
 BYTE   Gn3
 BYTE   W06
 BYTE   Fn3
 BYTE   W06
 BYTE   Ds3
 BYTE   W06
 BYTE   As3
 BYTE   W06
 BYTE   Gs3
 BYTE   W06
 BYTE   Gn3
 BYTE   W06
 BYTE   Fn3
 BYTE   W06
 BYTE   Cn4
 BYTE   W06
 BYTE   As3
 BYTE   W06
 BYTE   Gs3
 BYTE   W06
 BYTE   Gn3
 BYTE   W06
//  #05 //066   ----------------------------------------
 BYTE   Dn4
 BYTE   W06
 BYTE   Cn4
 BYTE   W06
 BYTE   As3
 BYTE   W06
 BYTE   Cn4
 BYTE   W06
 BYTE   Gn3
 BYTE   W06
 BYTE   Fn3
 BYTE   W06
 BYTE   Ds3
 BYTE   W06
 BYTE   Fn3
 BYTE   W06
 BYTE   Dn4
 BYTE   W06
 BYTE   Cn4
 BYTE   W06
 BYTE   As3
 BYTE   W06
 BYTE   Cn4
 BYTE   W06
 BYTE   Gn4
 BYTE   W06
 BYTE   Fn4
 BYTE   W06
 BYTE   Ds4
 BYTE   W06
 BYTE   Fn4
 BYTE   W06
//  #05 //067   ----------------------------------------
 BYTE   As4
 BYTE   W06
 BYTE   Gs4
 BYTE   W06
 BYTE   Gn4
 BYTE   W06
 BYTE   Gs4
 BYTE   W06
 BYTE   Gn4
 BYTE   W06
 BYTE   Fn4
 BYTE   W06
 BYTE   Ds4
 BYTE   W06
 BYTE   Fn4
 BYTE   W06
 BYTE   As4
 BYTE   W06
 BYTE   Gs4
 BYTE   W06
 BYTE   Gn4
 BYTE   W06
 BYTE   Gs4
 BYTE   W06
 BYTE   Dn5
 BYTE   W06
 BYTE   Cn5
 BYTE   W06
 BYTE   As4
 BYTE   W06
 BYTE   Cn5
 BYTE   W06
//  #05 //068   ----------------------------------------
 BYTE   As4
 BYTE   W06
 BYTE   Gn4
 BYTE   W06
 BYTE   Fn4
 BYTE   W06
 BYTE   Gn4
 BYTE   W06
 BYTE   Gs4
 BYTE   W06
 BYTE   Gn4
 BYTE   W06
 BYTE   Fn4
 BYTE   W06
 BYTE   Ds4
 BYTE   W06
 BYTE   Gn4
 BYTE   W06
 BYTE   Fn4
 BYTE   W06
 BYTE   Ds4
 BYTE   W06
 BYTE   Fn4
 BYTE   W06
 BYTE   Gs4
 BYTE   W06
 BYTE   Fn4
 BYTE   W06
 BYTE   Ds4
 BYTE   W06
 BYTE   Dn4
 BYTE   W06
//  #05 //069   ----------------------------------------
 BYTE   Fn4
 BYTE   W06
 BYTE   Ds4
 BYTE   W06
 BYTE   Dn4
 BYTE   W06
 BYTE   Cn4
 BYTE   W06
 BYTE   Ds4
 BYTE   W06
 BYTE   Dn4
 BYTE   W06
 BYTE   Cn4
 BYTE   W06
 BYTE   As3
 BYTE   W06
 BYTE   Dn4
 BYTE   W06
 BYTE   Cn4
 BYTE   W06
 BYTE   As3
 BYTE   W06
 BYTE   Gs3
 BYTE   W06
 BYTE   Cn4
 BYTE   W06
 BYTE   As3
 BYTE   W06
 BYTE   Gs3
 BYTE   W06
 BYTE   Gn3
 BYTE   W06
//  #05 //070   ----------------------------------------
 BYTE   As3
 BYTE   W06
 BYTE   Gs3
 BYTE   W06
 BYTE   Gn3
 BYTE   W06
 BYTE   Gs3
 BYTE   W06
 BYTE   Fn3
 BYTE   W06
 BYTE   Ds3
 BYTE   W06
 BYTE   Dn3
 BYTE   W06
 BYTE   Ds3
 BYTE   W06
 BYTE   Dn3
 BYTE   W06
 BYTE   Cn3
 BYTE   W06
 BYTE   As2
 BYTE   W06
 BYTE   Cn3
 BYTE   W06
 BYTE   Dn3
 BYTE   W06
 BYTE   Ds3
 BYTE   W06
 BYTE   Fn3
 BYTE   W06
 BYTE   Gn3
 BYTE   W06
//  #05 //071   ----------------------------------------
 BYTE   As3
 BYTE   W06
 BYTE   Gs3
 BYTE   W06
 BYTE   Gn3
 BYTE   W06
 BYTE   Gs3
 BYTE   W06
 BYTE   Cn4
 BYTE   W06
 BYTE   As3
 BYTE   W06
 BYTE   Gs3
 BYTE   W06
 BYTE   As3
 BYTE   W06
 BYTE   Dn4
 BYTE   W06
 BYTE   Cn4
 BYTE   W06
 BYTE   Dn4
 BYTE   W06
 BYTE   Ds4
 BYTE   W06
 BYTE   Fn4
 BYTE   W06
 BYTE   Ds4
 BYTE   W06
 BYTE   Fn4
 BYTE   W06
 BYTE   Gn4
 BYTE   W06
//  #05 //072   ----------------------------------------
 BYTE   GoTo
  POIN2 Label_0153F172
 BYTE   FINE

//**************** Track 6 (Midi-Chn.5) ****************//

CallingThatDetestableName_006:
//  #06 //000   ----------------------------------------
 BYTE   KEYSH   CallingThatDetestableName_key+0
Label_0153F996:
 BYTE   VOICE   30
 BYTE   VOL   50*CallingThatDetestableName_mvl/mxv
 BYTE   PAN   c_v+0
 BYTE   W96
//  #06 //001   ----------------------------------------
 BYTE   W96
//  #06 //002   ----------------------------------------
 BYTE   W96
//  #06 //003   ----------------------------------------
 BYTE   W96
//  #06 //004   ----------------------------------------
 BYTE   W96
//  #06 //005   ----------------------------------------
 BYTE   W96
//  #06 //006   ----------------------------------------
 BYTE   W96
//  #06 //007   ----------------------------------------
 BYTE   W96
//  #06 //008   ----------------------------------------
 BYTE   W96
//  #06 //009   ----------------------------------------
Label_0153F9A5:
 BYTE   N06  Gn3  v068
 BYTE   N05  Bn3  v080
 BYTE   W36
 BYTE   N07  Gn3  v072
 BYTE   N06  As3  v060
 BYTE   W36
 BYTE   Gn3  v072
 BYTE   N06  Cn4  v076
 BYTE   W24
 BYTE   PEND 
//  #06 //010   ----------------------------------------
 BYTE   W96
//  #06 //011   ----------------------------------------
Label_0153F9BB:
 BYTE   N06  Gn3  v072
 BYTE   N06  Bn3
 BYTE   W36
 BYTE   Gn3  v064
 BYTE   N06  As3  v068
 BYTE   W36
 BYTE   Gn3  v076
 BYTE   N05  Bn3  v064
 BYTE   W24
 BYTE   PEND 
//  #06 //012   ----------------------------------------
 BYTE   W96
//  #06 //013   ----------------------------------------
 BYTE   PATT
  POIN2 Label_0153F9A5
//  #06 //014   ----------------------------------------
 BYTE   W96
//  #06 //015   ----------------------------------------
 BYTE   PATT
  POIN2 Label_0153F9BB
//  #06 //016   ----------------------------------------
 BYTE   W96
//  #06 //017   ----------------------------------------
 BYTE   PATT
  POIN2 Label_0153F9A5
//  #06 //018   ----------------------------------------
 BYTE   W96
//  #06 //019   ----------------------------------------
 BYTE   PATT
  POIN2 Label_0153F9BB
//  #06 //020   ----------------------------------------
 BYTE   W96
//  #06 //021   ----------------------------------------
 BYTE   PATT
  POIN2 Label_0153F9A5
//  #06 //022   ----------------------------------------
 BYTE   W96
//  #06 //023   ----------------------------------------
 BYTE   PATT
  POIN2 Label_0153F9BB
//  #06 //024   ----------------------------------------
 BYTE   W96
//  #06 //025   ----------------------------------------
 BYTE   W96
//  #06 //026   ----------------------------------------
 BYTE   W96
//  #06 //027   ----------------------------------------
 BYTE   W96
//  #06 //028   ----------------------------------------
 BYTE   W96
//  #06 //029   ----------------------------------------
 BYTE   W96
//  #06 //030   ----------------------------------------
 BYTE   W96
//  #06 //031   ----------------------------------------
 BYTE   W96
//  #06 //032   ----------------------------------------
 BYTE   W96
//  #06 //033   ----------------------------------------
 BYTE   W96
//  #06 //034   ----------------------------------------
 BYTE   W96
//  #06 //035   ----------------------------------------
 BYTE   W96
//  #06 //036   ----------------------------------------
 BYTE   W96
//  #06 //037   ----------------------------------------
 BYTE   W96
//  #06 //038   ----------------------------------------
 BYTE   W96
//  #06 //039   ----------------------------------------
 BYTE   W96
//  #06 //040   ----------------------------------------
Label_0153FA02:
 BYTE   N44  Ds4  v072
 BYTE   W48
 BYTE   N11  Gs4
 BYTE   W12
 BYTE   Fs4
 BYTE   W12
 BYTE   Fn4
 BYTE   W12
 BYTE   Ds4
 BYTE   W12
 BYTE   PEND 
//  #06 //041   ----------------------------------------
Label_0153FA10:
 BYTE   N52  Ds4  v072
 BYTE   W48
 BYTE   N11  Gs4
 BYTE   W12
 BYTE   Fs4
 BYTE   W12
 BYTE   Fn4
 BYTE   W12
 BYTE   Ds4
 BYTE   W12
 BYTE   PEND 
//  #06 //042   ----------------------------------------
 BYTE   PATT
  POIN2 Label_0153FA02
//  #06 //043   ----------------------------------------
 BYTE   N32  Ds4  v072
 BYTE   W36
 BYTE   Dn4
 BYTE   W36
 BYTE   N23  Fn4
 BYTE   W24
//  #06 //044   ----------------------------------------
 BYTE   PATT
  POIN2 Label_0153FA02
//  #06 //045   ----------------------------------------
 BYTE   PATT
  POIN2 Label_0153FA10
//  #06 //046   ----------------------------------------
 BYTE   PATT
  POIN2 Label_0153FA02
//  #06 //047   ----------------------------------------
 BYTE   N11  Dn4  v072
 BYTE   W12
 BYTE   Fn4
 BYTE   W12
 BYTE   Ds4
 BYTE   W12
 BYTE   Fs4
 BYTE   W12
 BYTE   As4
 BYTE   W12
 BYTE   Gs4
 BYTE   W12
 BYTE   Fs4
 BYTE   W12
 BYTE   Gs4
 BYTE   W12
//  #06 //048   ----------------------------------------
 BYTE   N92  Cn5  v076
 BYTE   W96
//  #06 //049   ----------------------------------------
 BYTE   N05
 BYTE   W06
 BYTE   As4
 BYTE   W06
 BYTE   Gs4
 BYTE   W06
 BYTE   As4
 BYTE   W06
 BYTE   Cn5
 BYTE   W06
 BYTE   As4
 BYTE   W06
 BYTE   Gs4
 BYTE   W06
 BYTE   As4
 BYTE   W06
 BYTE   Cn5
 BYTE   W06
 BYTE   As4
 BYTE   W06
 BYTE   Gs4
 BYTE   W06
 BYTE   As4
 BYTE   W06
 BYTE   Cn5
 BYTE   W06
 BYTE   As4
 BYTE   W06
 BYTE   Gs4
 BYTE   W06
 BYTE   As4
 BYTE   W06
//  #06 //050   ----------------------------------------
 BYTE   N11  Cn5
 BYTE   W12
 BYTE   Gn4
 BYTE   W12
 BYTE   As4
 BYTE   W12
 BYTE   Fn4
 BYTE   W12
 BYTE   Gn4
 BYTE   W12
 BYTE   Ds4
 BYTE   W12
 BYTE   Fn4
 BYTE   W12
 BYTE   Dn4
 BYTE   W12
//  #06 //051   ----------------------------------------
 BYTE   Ds4
 BYTE   W12
 BYTE   Cn4
 BYTE   W12
 BYTE   Dn4
 BYTE   W12
 BYTE   As3
 BYTE   W12
 BYTE   Cn4
 BYTE   W12
 BYTE   Gn3
 BYTE   W12
 BYTE   As3
 BYTE   W12
 BYTE   Dn4
 BYTE   W12
//  #06 //052   ----------------------------------------
 BYTE   N05  Ds4
 BYTE   W06
 BYTE   Dn4
 BYTE   W06
 BYTE   Cn4
 BYTE   W06
 BYTE   Dn4
 BYTE   W06
 BYTE   Ds4
 BYTE   W06
 BYTE   Dn4
 BYTE   W06
 BYTE   Cn4
 BYTE   W06
 BYTE   Dn4
 BYTE   W06
 BYTE   Ds4
 BYTE   W06
 BYTE   Dn4
 BYTE   W06
 BYTE   Cn4
 BYTE   W06
 BYTE   Dn4
 BYTE   W06
 BYTE   Fn4
 BYTE   W06
 BYTE   Ds4
 BYTE   W06
 BYTE   Dn4
 BYTE   W06
 BYTE   Cn4
 BYTE   W06
//  #06 //053   ----------------------------------------
 BYTE   Ds4
 BYTE   W06
 BYTE   Dn4
 BYTE   W06
 BYTE   Cn4
 BYTE   W06
 BYTE   Dn4
 BYTE   W06
 BYTE   Ds4
 BYTE   W06
 BYTE   Dn4
 BYTE   W06
 BYTE   Cn4
 BYTE   W06
 BYTE   Dn4
 BYTE   W06
 BYTE   Ds4
 BYTE   W06
 BYTE   Dn4
 BYTE   W06
 BYTE   Cn4
 BYTE   W06
 BYTE   Dn4
 BYTE   W06
 BYTE   Gn4
 BYTE   W06
 BYTE   Fn4
 BYTE   W06
 BYTE   Ds4
 BYTE   W06
 BYTE   Dn4
 BYTE   W06
//  #06 //054   ----------------------------------------
 BYTE   Ds4
 BYTE   W06
 BYTE   Dn4
 BYTE   W06
 BYTE   Cn4
 BYTE   W06
 BYTE   Dn4
 BYTE   W06
 BYTE   Fn4
 BYTE   W06
 BYTE   Ds4
 BYTE   W06
 BYTE   Dn4
 BYTE   W06
 BYTE   Cn4
 BYTE   W06
 BYTE   Ds4
 BYTE   W06
 BYTE   Dn4
 BYTE   W06
 BYTE   Cn4
 BYTE   W06
 BYTE   Dn4
 BYTE   W06
 BYTE   Gn4
 BYTE   W06
 BYTE   Fn4
 BYTE   W06
 BYTE   Ds4
 BYTE   W06
 BYTE   Dn4
 BYTE   W06
//  #06 //055   ----------------------------------------
 BYTE   Gs4
 BYTE   W06
 BYTE   Gn4
 BYTE   W06
 BYTE   Fn4
 BYTE   W06
 BYTE   Ds4
 BYTE   W06
 BYTE   As4
 BYTE   W06
 BYTE   Gs4
 BYTE   W06
 BYTE   Gn4
 BYTE   W06
 BYTE   Fn4
 BYTE   W06
 BYTE   Cn5
 BYTE   W06
 BYTE   As4
 BYTE   W06
 BYTE   Gs4
 BYTE   W06
 BYTE   Gn4
 BYTE   W06
 BYTE   Dn5
 BYTE   W06
 BYTE   Cn5
 BYTE   W06
 BYTE   As4
 BYTE   W06
 BYTE   Cn5
 BYTE   W06
//  #06 //056   ----------------------------------------
 BYTE   W96
//  #06 //057   ----------------------------------------
 BYTE   W96
//  #06 //058   ----------------------------------------
 BYTE   W96
//  #06 //059   ----------------------------------------
 BYTE   W96
//  #06 //060   ----------------------------------------
 BYTE   W96
//  #06 //061   ----------------------------------------
 BYTE   W96
//  #06 //062   ----------------------------------------
 BYTE   W96
//  #06 //063   ----------------------------------------
 BYTE   W96
//  #06 //064   ----------------------------------------
 BYTE   W96
//  #06 //065   ----------------------------------------
 BYTE   W96
//  #06 //066   ----------------------------------------
 BYTE   W96
//  #06 //067   ----------------------------------------
 BYTE   W96
//  #06 //068   ----------------------------------------
 BYTE   W96
//  #06 //069   ----------------------------------------
 BYTE   W96
//  #06 //070   ----------------------------------------
 BYTE   W96
//  #06 //071   ----------------------------------------
 BYTE   W96
//  #06 //072   ----------------------------------------
 BYTE   GoTo
  POIN2 Label_0153F996
 BYTE   FINE

//**************** Track 7 (Midi-Chn.6) ****************//

CallingThatDetestableName_007:
//  #07 //000   ----------------------------------------
 BYTE   KEYSH   CallingThatDetestableName_key+0
Label_0153EE16:
 BYTE   VOICE   18
 BYTE   VOL   30*CallingThatDetestableName_mvl/mxv
 BYTE   PAN   c_v-61
 BYTE   W96
//  #07 //001   ----------------------------------------
 BYTE   W96
//  #07 //002   ----------------------------------------
 BYTE   W96
//  #07 //003   ----------------------------------------
 BYTE   W96
//  #07 //004   ----------------------------------------
 BYTE   W96
//  #07 //005   ----------------------------------------
 BYTE   W96
//  #07 //006   ----------------------------------------
 BYTE   W96
//  #07 //007   ----------------------------------------
 BYTE   W96
//  #07 //008   ----------------------------------------
 BYTE   W96
//  #07 //009   ----------------------------------------
 BYTE   W96
//  #07 //010   ----------------------------------------
 BYTE   W96
//  #07 //011   ----------------------------------------
 BYTE   W96
//  #07 //012   ----------------------------------------
 BYTE   W96
//  #07 //013   ----------------------------------------
 BYTE   W96
//  #07 //014   ----------------------------------------
 BYTE   W96
//  #07 //015   ----------------------------------------
 BYTE   W96
//  #07 //016   ----------------------------------------
 BYTE   W96
//  #07 //017   ----------------------------------------
 BYTE   W96
//  #07 //018   ----------------------------------------
 BYTE   W96
//  #07 //019   ----------------------------------------
 BYTE   W96
//  #07 //020   ----------------------------------------
 BYTE   W96
//  #07 //021   ----------------------------------------
 BYTE   W96
//  #07 //022   ----------------------------------------
 BYTE   W96
//  #07 //023   ----------------------------------------
 BYTE   W96
//  #07 //024   ----------------------------------------
 BYTE   W96
//  #07 //025   ----------------------------------------
 BYTE   W96
//  #07 //026   ----------------------------------------
 BYTE   W96
//  #07 //027   ----------------------------------------
 BYTE   W96
//  #07 //028   ----------------------------------------
 BYTE   W96
//  #07 //029   ----------------------------------------
 BYTE   W96
//  #07 //030   ----------------------------------------
 BYTE   W96
//  #07 //031   ----------------------------------------
 BYTE   W96
//  #07 //032   ----------------------------------------
 BYTE   W96
//  #07 //033   ----------------------------------------
 BYTE   W96
//  #07 //034   ----------------------------------------
 BYTE   W96
//  #07 //035   ----------------------------------------
 BYTE   W96
//  #07 //036   ----------------------------------------
 BYTE   W96
//  #07 //037   ----------------------------------------
 BYTE   W96
//  #07 //038   ----------------------------------------
 BYTE   W96
//  #07 //039   ----------------------------------------
 BYTE   W96
//  #07 //040   ----------------------------------------
 BYTE   W96
//  #07 //041   ----------------------------------------
 BYTE   W96
//  #07 //042   ----------------------------------------
 BYTE   W96
//  #07 //043   ----------------------------------------
 BYTE   W96
//  #07 //044   ----------------------------------------
 BYTE   W96
//  #07 //045   ----------------------------------------
 BYTE   W96
//  #07 //046   ----------------------------------------
 BYTE   W96
//  #07 //047   ----------------------------------------
 BYTE   W96
//  #07 //048   ----------------------------------------
 BYTE   W11
 BYTE   N92  Cn5  v076
 BYTE   W84
 BYTE   W01
//  #07 //049   ----------------------------------------
 BYTE   W11
 BYTE   N05
 BYTE   W06
 BYTE   As4
 BYTE   W06
 BYTE   Gs4
 BYTE   W06
 BYTE   As4
 BYTE   W06
 BYTE   Cn5
 BYTE   W06
 BYTE   As4
 BYTE   W06
 BYTE   Gs4
 BYTE   W06
 BYTE   As4
 BYTE   W06
 BYTE   Cn5
 BYTE   W06
 BYTE   As4
 BYTE   W06
 BYTE   Gs4
 BYTE   W06
 BYTE   As4
 BYTE   W06
 BYTE   Cn5
 BYTE   W06
 BYTE   As4
 BYTE   W06
 BYTE   Gs4
 BYTE   W01
//  #07 //050   ----------------------------------------
 BYTE   W05
 BYTE   As4
 BYTE   W06
 BYTE   N11  Cn5
 BYTE   W12
 BYTE   Gn4
 BYTE   W12
 BYTE   As4
 BYTE   W12
 BYTE   Fn4
 BYTE   W12
 BYTE   Gn4
 BYTE   W12
 BYTE   Ds4
 BYTE   W12
 BYTE   Fn4
 BYTE   W12
 BYTE   Dn4
 BYTE   W01
//  #07 //051   ----------------------------------------
 BYTE   W11
 BYTE   Ds4
 BYTE   W12
 BYTE   Cn4
 BYTE   W12
 BYTE   Dn4
 BYTE   W12
 BYTE   As3
 BYTE   W12
 BYTE   Cn4
 BYTE   W12
 BYTE   Gn3
 BYTE   W12
 BYTE   As3
 BYTE   W12
 BYTE   Dn4
 BYTE   W01
//  #07 //052   ----------------------------------------
 BYTE   W11
 BYTE   N05  Ds4
 BYTE   W06
 BYTE   Dn4
 BYTE   W06
 BYTE   Cn4
 BYTE   W06
 BYTE   Dn4
 BYTE   W06
 BYTE   Ds4
 BYTE   W06
 BYTE   Dn4
 BYTE   W06
 BYTE   Cn4
 BYTE   W06
 BYTE   Dn4
 BYTE   W06
 BYTE   Ds4
 BYTE   W06
 BYTE   Dn4
 BYTE   W06
 BYTE   Cn4
 BYTE   W06
 BYTE   Dn4
 BYTE   W06
 BYTE   Fn4
 BYTE   W06
 BYTE   Ds4
 BYTE   W06
 BYTE   Dn4
 BYTE   W01
//  #07 //053   ----------------------------------------
 BYTE   W05
 BYTE   Cn4
 BYTE   W06
 BYTE   Ds4
 BYTE   W06
 BYTE   Dn4
 BYTE   W06
 BYTE   Cn4
 BYTE   W06
 BYTE   Dn4
 BYTE   W06
 BYTE   Ds4
 BYTE   W06
 BYTE   Dn4
 BYTE   W06
 BYTE   Cn4
 BYTE   W06
 BYTE   Dn4
 BYTE   W06
 BYTE   Ds4
 BYTE   W06
 BYTE   Dn4
 BYTE   W06
 BYTE   Cn4
 BYTE   W06
 BYTE   Dn4
 BYTE   W06
 BYTE   Gn4
 BYTE   W06
 BYTE   Fn4
 BYTE   W06
 BYTE   Ds4
 BYTE   W01
//  #07 //054   ----------------------------------------
 BYTE   W05
 BYTE   Dn4
 BYTE   W06
 BYTE   Ds4
 BYTE   W06
 BYTE   Dn4
 BYTE   W06
 BYTE   Cn4
 BYTE   W06
 BYTE   Dn4
 BYTE   W06
 BYTE   Fn4
 BYTE   W06
 BYTE   Ds4
 BYTE   W06
 BYTE   Dn4
 BYTE   W06
 BYTE   Cn4
 BYTE   W06
 BYTE   Ds4
 BYTE   W06
 BYTE   Dn4
 BYTE   W06
 BYTE   Cn4
 BYTE   W06
 BYTE   Dn4
 BYTE   W06
 BYTE   Gn4
 BYTE   W06
 BYTE   Fn4
 BYTE   W06
 BYTE   Ds4
 BYTE   W01
//  #07 //055   ----------------------------------------
 BYTE   W05
 BYTE   Dn4
 BYTE   W06
 BYTE   Gs4
 BYTE   W06
 BYTE   Gn4
 BYTE   W06
 BYTE   Fn4
 BYTE   W06
 BYTE   Ds4
 BYTE   W06
 BYTE   As4
 BYTE   W06
 BYTE   Gs4
 BYTE   W06
 BYTE   Gn4
 BYTE   W06
 BYTE   Fn4
 BYTE   W06
 BYTE   Cn5
 BYTE   W06
 BYTE   As4
 BYTE   W06
 BYTE   Gs4
 BYTE   W06
 BYTE   Gn4
 BYTE   W06
 BYTE   Dn5
 BYTE   W06
 BYTE   Cn5
 BYTE   W06
 BYTE   As4
 BYTE   W01
//  #07 //056   ----------------------------------------
 BYTE   W05
 BYTE   Cn5
 BYTE   W90
 BYTE   W01
//  #07 //057   ----------------------------------------
 BYTE   W96
//  #07 //058   ----------------------------------------
 BYTE   W96
//  #07 //059   ----------------------------------------
 BYTE   W96
//  #07 //060   ----------------------------------------
 BYTE   W96
//  #07 //061   ----------------------------------------
 BYTE   W96
//  #07 //062   ----------------------------------------
 BYTE   W96
//  #07 //063   ----------------------------------------
 BYTE   W96
//  #07 //064   ----------------------------------------
 BYTE   W13
 BYTE   N80  Gs3  v072
 BYTE   W01
 BYTE   Fn3
 BYTE   W80
 BYTE   W02
//  #07 //065   ----------------------------------------
 BYTE   W11
 BYTE   N05  As3
 BYTE   W06
 BYTE   Gs3
 BYTE   W06
 BYTE   Gn3
 BYTE   W06
 BYTE   Fn3
 BYTE   W06
 BYTE   Gs3
 BYTE   W06
 BYTE   Gn3
 BYTE   W06
 BYTE   Fn3
 BYTE   W06
 BYTE   Ds3
 BYTE   W06
 BYTE   As3
 BYTE   W06
 BYTE   Gs3
 BYTE   W06
 BYTE   Gn3
 BYTE   W06
 BYTE   Fn3
 BYTE   W06
 BYTE   Cn4
 BYTE   W06
 BYTE   As3
 BYTE   W06
 BYTE   Gs3
 BYTE   W01
//  #07 //066   ----------------------------------------
 BYTE   W05
 BYTE   Gn3
 BYTE   W06
 BYTE   Dn4
 BYTE   W06
 BYTE   Cn4
 BYTE   W06
 BYTE   As3
 BYTE   W06
 BYTE   Cn4
 BYTE   W06
 BYTE   Gn3
 BYTE   W06
 BYTE   Fn3
 BYTE   W06
 BYTE   Ds3
 BYTE   W06
 BYTE   Fn3
 BYTE   W06
 BYTE   Dn4
 BYTE   W06
 BYTE   Cn4
 BYTE   W06
 BYTE   As3
 BYTE   W06
 BYTE   Cn4
 BYTE   W06
 BYTE   Gn4
 BYTE   W06
 BYTE   Fn4
 BYTE   W06
 BYTE   Ds4
 BYTE   W01
//  #07 //067   ----------------------------------------
 BYTE   W05
 BYTE   Fn4
 BYTE   W06
 BYTE   As4
 BYTE   W06
 BYTE   Gs4
 BYTE   W06
 BYTE   Gn4
 BYTE   W06
 BYTE   Gs4
 BYTE   W06
 BYTE   Gn4
 BYTE   W06
 BYTE   Fn4
 BYTE   W06
 BYTE   Ds4
 BYTE   W06
 BYTE   Fn4
 BYTE   W06
 BYTE   As4
 BYTE   W06
 BYTE   Gs4
 BYTE   W06
 BYTE   Gn4
 BYTE   W06
 BYTE   Gs4
 BYTE   W06
 BYTE   Dn5
 BYTE   W06
 BYTE   Cn5
 BYTE   W06
 BYTE   As4
 BYTE   W01
//  #07 //068   ----------------------------------------
 BYTE   W05
 BYTE   Cn5
 BYTE   W06
 BYTE   As4
 BYTE   W06
 BYTE   Gn4
 BYTE   W06
 BYTE   Fn4
 BYTE   W06
 BYTE   Gn4
 BYTE   W06
 BYTE   Gs4
 BYTE   W06
 BYTE   Gn4
 BYTE   W06
 BYTE   Fn4
 BYTE   W06
 BYTE   Ds4
 BYTE   W06
 BYTE   Gn4
 BYTE   W06
 BYTE   Fn4
 BYTE   W06
 BYTE   Ds4
 BYTE   W06
 BYTE   Fn4
 BYTE   W06
 BYTE   Gs4
 BYTE   W06
 BYTE   Fn4
 BYTE   W06
 BYTE   Ds4
 BYTE   W01
//  #07 //069   ----------------------------------------
 BYTE   W05
 BYTE   Dn4
 BYTE   W06
 BYTE   Fn4
 BYTE   W06
 BYTE   Ds4
 BYTE   W06
 BYTE   Dn4
 BYTE   W06
 BYTE   Cn4
 BYTE   W06
 BYTE   Ds4
 BYTE   W06
 BYTE   Dn4
 BYTE   W06
 BYTE   Cn4
 BYTE   W06
 BYTE   As3
 BYTE   W06
 BYTE   Dn4
 BYTE   W06
 BYTE   Cn4
 BYTE   W06
 BYTE   As3
 BYTE   W06
 BYTE   Gs3
 BYTE   W06
 BYTE   Cn4
 BYTE   W06
 BYTE   As3
 BYTE   W06
 BYTE   Gs3
 BYTE   W01
//  #07 //070   ----------------------------------------
 BYTE   W05
 BYTE   Gn3
 BYTE   W06
 BYTE   As3
 BYTE   W06
 BYTE   Gs3
 BYTE   W06
 BYTE   Gn3
 BYTE   W06
 BYTE   Gs3
 BYTE   W06
 BYTE   Fn3
 BYTE   W06
 BYTE   Ds3
 BYTE   W06
 BYTE   Dn3
 BYTE   W06
 BYTE   Ds3
 BYTE   W06
 BYTE   Dn3
 BYTE   W06
 BYTE   Cn3
 BYTE   W06
 BYTE   As2
 BYTE   W06
 BYTE   Cn3
 BYTE   W06
 BYTE   Dn3
 BYTE   W06
 BYTE   Ds3
 BYTE   W06
 BYTE   Fn3
 BYTE   W01
//  #07 //071   ----------------------------------------
 BYTE   W05
 BYTE   Gn3
 BYTE   W06
 BYTE   As3
 BYTE   W06
 BYTE   Gs3
 BYTE   W06
 BYTE   Gn3
 BYTE   W06
 BYTE   Gs3
 BYTE   W06
 BYTE   Cn4
 BYTE   W06
 BYTE   As3
 BYTE   W06
 BYTE   Gs3
 BYTE   W06
 BYTE   As3
 BYTE   W06
 BYTE   Dn4
 BYTE   W06
 BYTE   Cn4
 BYTE   W06
 BYTE   Dn4
 BYTE   W06
 BYTE   Ds4
 BYTE   W06
 BYTE   Fn4
 BYTE   W06
 BYTE   Ds4
 BYTE   W06
 BYTE   Fn4
 BYTE   W01
//  #07 //072   ----------------------------------------
 BYTE   GoTo
  POIN2 Label_0153EE16
//  #07 //073   ----------------------------------------
 BYTE   W04
 BYTE   FINE

//**************** Track 8 (Midi-Chn.7) ****************//

CallingThatDetestableName_008:
//  #08 //000   ----------------------------------------
 BYTE   KEYSH   CallingThatDetestableName_key+0
Label_0154077A:
 BYTE   VOICE   30
 BYTE   VOL   56*CallingThatDetestableName_mvl/mxv
 BYTE   PAN   c_v+0
 BYTE   W96
//  #08 //001   ----------------------------------------
 BYTE   W96
//  #08 //002   ----------------------------------------
 BYTE   W96
//  #08 //003   ----------------------------------------
 BYTE   W96
//  #08 //004   ----------------------------------------
 BYTE   W96
//  #08 //005   ----------------------------------------
 BYTE   W96
//  #08 //006   ----------------------------------------
 BYTE   W96
//  #08 //007   ----------------------------------------
 BYTE   W96
//  #08 //008   ----------------------------------------
 BYTE   N11  Bn2  v072
 BYTE   W12
 BYTE   En3
 BYTE   W12
 BYTE   Gn3
 BYTE   W12
 BYTE   TIE  Dn4
 BYTE   W32
 BYTE   W03
 BYTE   W03
 BYTE   W01
 BYTE   W01
 BYTE   W02
 BYTE   W02
 BYTE   W02
 BYTE   W02
 BYTE   W02
 BYTE   W02
 BYTE   W02
 BYTE   W03
 BYTE   W02
 BYTE   W01
//  #08 //009   ----------------------------------------
Label_015407A1:
 BYTE   W01
 BYTE   W01
 BYTE   W02
 BYTE   W01
 BYTE   W02
 BYTE   W01
 BYTE   W02
 BYTE   W02
 BYTE   W01
 BYTE   W02
 BYTE   W02
 BYTE   W03
 BYTE   W02
 BYTE   W02
 BYTE   W03
 BYTE   W03
 BYTE   W04
 BYTE   W36
 BYTE   W01
 BYTE   PEND 
 BYTE   EOT
 BYTE   Dn4
 BYTE   W09
 BYTE   W03
 BYTE   W01
 BYTE   W01
 BYTE   W01
 BYTE   W01
 BYTE   W01
 BYTE   W08
//  #08 //010   ----------------------------------------
Label_015407BF:
 BYTE   N11  Bn2  v072
 BYTE   W12
 BYTE   En3
 BYTE   W12
 BYTE   Gn3
 BYTE   W12
 BYTE   TIE  Cs4
 BYTE   W60
 BYTE   PEND 
//  #08 //011   ----------------------------------------
Label_015407CB:
 BYTE   W03
 BYTE   W02
 BYTE   W01
 BYTE   W01
 BYTE   W02
 BYTE   W01
 BYTE   W02
 BYTE   W01
 BYTE   W02
 BYTE   W02
 BYTE   W03
 BYTE   W02
 BYTE   W02
 BYTE   W03
 BYTE   W02
 BYTE   W02
 BYTE   W03
 BYTE   W02
 BYTE   W01
 BYTE   W02
 BYTE   W03
 BYTE   W02
 BYTE   W03
 BYTE   W05
 BYTE   W03
 BYTE   W04
 BYTE   W12
 BYTE   PEND 
 BYTE   EOT
 BYTE   Cs4
 BYTE   W11
 BYTE   W01
 BYTE   W01
 BYTE   W01
 BYTE   W01
 BYTE   W01
 BYTE   W01
 BYTE   W01
 BYTE   W07
//  #08 //012   ----------------------------------------
Label_015407F2:
 BYTE   N11  Bn2  v072
 BYTE   W12
 BYTE   En3
 BYTE   W12
 BYTE   Gn3
 BYTE   W12
 BYTE   TIE  Dn4
 BYTE   W32
 BYTE   W02
 BYTE   W03
 BYTE   W02
 BYTE   W02
 BYTE   W03
 BYTE   W03
 BYTE   W02
 BYTE   W02
 BYTE   W03
 BYTE   W03
 BYTE   W02
 BYTE   W01
 BYTE   PEND 
//  #08 //013   ----------------------------------------
Label_0154080A:
 BYTE   W02
 BYTE   W03
 BYTE   W03
 BYTE   W02
 BYTE   W03
 BYTE   W02
 BYTE   W01
 BYTE   W02
 BYTE   W03
 BYTE   W02
 BYTE   W03
 BYTE   W03
 BYTE   W06
 BYTE   W04
 BYTE   W04
 BYTE   W06
 BYTE   W05
 BYTE   W04
 BYTE   W09
 BYTE   W04
 BYTE   PEND 
 BYTE   EOT
 BYTE   Dn4
 BYTE   W06
 BYTE   W09
 BYTE   W01
 BYTE   W01
 BYTE   W01
 BYTE   W01
 BYTE   W01
 BYTE   W01
 BYTE   W04
//  #08 //014   ----------------------------------------
Label_0154082A:
 BYTE   N11  Bn2  v072
 BYTE   W12
 BYTE   En3
 BYTE   W12
 BYTE   Gn3
 BYTE   W12
 BYTE   TIE  As3
 BYTE   W02
 BYTE   W03
 BYTE   W02
 BYTE   W03
 BYTE   W02
 BYTE   W03
 BYTE   W05
 BYTE   W03
 BYTE   W04
 BYTE   W07
 BYTE   W05
 BYTE   W06
 BYTE   W04
 BYTE   W03
 BYTE   W03
 BYTE   W03
 BYTE   W02
 BYTE   PEND 
//  #08 //015   ----------------------------------------
Label_01540846:
 BYTE   W01
 BYTE   W03
 BYTE   W02
 BYTE   W02
 BYTE   W03
 BYTE   W02
 BYTE   W03
 BYTE   W03
 BYTE   W03
 BYTE   W05
 BYTE   W04
 BYTE   W05
 BYTE   W32
 BYTE   W03
 BYTE   PEND 
 BYTE   EOT
 BYTE   As3
 BYTE   W09
 BYTE   W01
 BYTE   W01
 BYTE   W01
 BYTE   W01
 BYTE   W01
 BYTE   W01
 BYTE   W01
 BYTE   W01
 BYTE   W08
//  #08 //016   ----------------------------------------
 BYTE   N11  Bn2  v072
 BYTE   W12
 BYTE   En3
 BYTE   W12
 BYTE   Gn3
 BYTE   W12
 BYTE   TIE  Dn4
 BYTE   W32
 BYTE   W03
 BYTE   W03
 BYTE   W01
 BYTE   W01
 BYTE   W02
 BYTE   W02
 BYTE   W02
 BYTE   W02
 BYTE   W02
 BYTE   W02
 BYTE   W02
 BYTE   W03
 BYTE   W02
 BYTE   W01
//  #08 //017   ----------------------------------------
 BYTE   PATT
  POIN2 Label_015407A1
//  #08 //018   ----------------------------------------
 BYTE   EOT
 BYTE   Dn4
 BYTE   W09
 BYTE   W03
 BYTE   W01
 BYTE   W01
 BYTE   W01
 BYTE   W01
 BYTE   W01
 BYTE   W08
//  #08 //019   ----------------------------------------
 BYTE   PATT
  POIN2 Label_015407BF
//  #08 //020   ----------------------------------------
 BYTE   PATT
  POIN2 Label_015407CB
//  #08 //021   ----------------------------------------
 BYTE   EOT
 BYTE   Cs4
 BYTE   W11
 BYTE   W01
 BYTE   W01
 BYTE   W01
 BYTE   W01
 BYTE   W01
 BYTE   W01
 BYTE   W01
 BYTE   W07
//  #08 //022   ----------------------------------------
 BYTE   PATT
  POIN2 Label_015407F2
//  #08 //023   ----------------------------------------
 BYTE   PATT
  POIN2 Label_0154080A
//  #08 //024   ----------------------------------------
 BYTE   EOT
 BYTE   Dn4
 BYTE   W06
 BYTE   W09
 BYTE   W01
 BYTE   W01
 BYTE   W01
 BYTE   W01
 BYTE   W01
 BYTE   W01
 BYTE   W04
//  #08 //025   ----------------------------------------
 BYTE   PATT
  POIN2 Label_0154082A
//  #08 //026   ----------------------------------------
 BYTE   PATT
  POIN2 Label_01540846
//  #08 //027   ----------------------------------------
 BYTE   EOT
 BYTE   As3
 BYTE   W09
 BYTE   W01
 BYTE   W01
 BYTE   W01
 BYTE   W01
 BYTE   W01
 BYTE   W01
 BYTE   W01
 BYTE   W01
 BYTE   W08
 BYTE   W96
//  #08 //028   ----------------------------------------
 BYTE   W96
//  #08 //029   ----------------------------------------
 BYTE   W96
//  #08 //030   ----------------------------------------
 BYTE   W96
//  #08 //031   ----------------------------------------
 BYTE   W96
//  #08 //032   ----------------------------------------
 BYTE   W96
//  #08 //033   ----------------------------------------
 BYTE   W96
//  #08 //034   ----------------------------------------
 BYTE   W96
//  #08 //035   ----------------------------------------
 BYTE   W96
//  #08 //036   ----------------------------------------
 BYTE   W96
//  #08 //037   ----------------------------------------
 BYTE   W96
//  #08 //038   ----------------------------------------
 BYTE   W96
//  #08 //039   ----------------------------------------
 BYTE   W96
//  #08 //040   ----------------------------------------
 BYTE   W96
//  #08 //041   ----------------------------------------
 BYTE   W96
//  #08 //042   ----------------------------------------
 BYTE   W96
//  #08 //043   ----------------------------------------
Label_015408D9:
 BYTE   N32  Bn3  v060
 BYTE   W48
 BYTE   N11  Fn4
 BYTE   W12
 BYTE   Ds4
 BYTE   W12
 BYTE   Cs4
 BYTE   W12
 BYTE   Bn3
 BYTE   W12
 BYTE   PEND 
//  #08 //044   ----------------------------------------
Label_015408E7:
 BYTE   N28  As3  v060
 BYTE   W48
 BYTE   N12  Fn4
 BYTE   W12
 BYTE   Ds4
 BYTE   W12
 BYTE   N11  As3
 BYTE   W12
 BYTE   N11
 BYTE   W12
 BYTE   PEND 
//  #08 //045   ----------------------------------------
Label_015408F6:
 BYTE   N24  An3  v060
 BYTE   W48
 BYTE   N11  Fn4
 BYTE   W12
 BYTE   Ds4
 BYTE   W12
 BYTE   Cs4
 BYTE   W12
 BYTE   Bn3
 BYTE   W12
 BYTE   PEND 
//  #08 //046   ----------------------------------------
 BYTE   N28  As3
 BYTE   W36
 BYTE   N28
 BYTE   W36
 BYTE   N23  Dn4
 BYTE   W24
//  #08 //047   ----------------------------------------
 BYTE   PATT
  POIN2 Label_015408D9
//  #08 //048   ----------------------------------------
 BYTE   PATT
  POIN2 Label_015408E7
//  #08 //049   ----------------------------------------
 BYTE   PATT
  POIN2 Label_015408F6
//  #08 //050   ----------------------------------------
 BYTE   W96
//  #08 //051   ----------------------------------------
 BYTE   W96
//  #08 //052   ----------------------------------------
 BYTE   W96
//  #08 //053   ----------------------------------------
 BYTE   W96
//  #08 //054   ----------------------------------------
 BYTE   W96
//  #08 //055   ----------------------------------------
 BYTE   W96
//  #08 //056   ----------------------------------------
 BYTE   W96
//  #08 //057   ----------------------------------------
 BYTE   W96
//  #08 //058   ----------------------------------------
 BYTE   W88
 BYTE   W01
 BYTE   N02  An3  v052
 BYTE   W01
 BYTE   Bn3
 BYTE   W02
 BYTE   Cn4  v056
 BYTE   W01
 BYTE   Dn4
 BYTE   W02
 BYTE   N01  En4
 BYTE   W01
//  #08 //059   ----------------------------------------
 BYTE   N02  Fn4
 BYTE   W01
 BYTE   N04  Gn4  v060
 BYTE   W02
 BYTE   N92  An4  v064
 BYTE   W92
 BYTE   W01
//  #08 //060   ----------------------------------------
 BYTE   N05  Gn4  v060
 BYTE   W06
 BYTE   Fn4
 BYTE   W06
 BYTE   En4
 BYTE   W06
 BYTE   Dn4
 BYTE   W06
 BYTE   Fn4
 BYTE   W06
 BYTE   En4
 BYTE   W06
 BYTE   Dn4
 BYTE   W06
 BYTE   Cn4
 BYTE   W06
 BYTE   En4
 BYTE   W06
 BYTE   Dn4
 BYTE   W06
 BYTE   Cn4
 BYTE   W06
 BYTE   Bn3
 BYTE   W06
 BYTE   Dn4
 BYTE   W06
 BYTE   Cn4
 BYTE   W06
 BYTE   Bn3
 BYTE   W06
 BYTE   Gn3  v064
 BYTE   W06
//  #08 //061   ----------------------------------------
 BYTE   N11  Cn4
 BYTE   W12
 BYTE   An3
 BYTE   W12
 BYTE   Bn3
 BYTE   W12
 BYTE   Gn3
 BYTE   W12
 BYTE   An3
 BYTE   W12
 BYTE   En3
 BYTE   W12
 BYTE   Gn3
 BYTE   W12
 BYTE   Dn3
 BYTE   W12
//  #08 //062   ----------------------------------------
 BYTE   En3
 BYTE   W12
 BYTE   Cn4
 BYTE   W12
 BYTE   Bn3
 BYTE   W12
 BYTE   Cn4
 BYTE   W12
 BYTE   Fn3
 BYTE   W12
 BYTE   Dn4
 BYTE   W12
 BYTE   An3
 BYTE   W12
 BYTE   Gn4
 BYTE   W12
//  #08 //063   ----------------------------------------
 BYTE   N32  En4
 BYTE   W36
 BYTE   Gn3
 BYTE   W36
 BYTE   N56  Dn4
 BYTE   W24
//  #08 //064   ----------------------------------------
 BYTE   W48
 BYTE   N05
 BYTE   W06
 BYTE   Cn4
 BYTE   W06
 BYTE   Bn3
 BYTE   W06
 BYTE   An3
 BYTE   W06
 BYTE   Gn4
 BYTE   W06
 BYTE   Fn4
 BYTE   W06
 BYTE   En4
 BYTE   W06
 BYTE   Dn4
 BYTE   W06
//  #08 //065   ----------------------------------------
 BYTE   N11  En4
 BYTE   W12
 BYTE   Gn3
 BYTE   W12
 BYTE   Dn4
 BYTE   W12
 BYTE   N23  En4
 BYTE   W24
 BYTE   N11  Dn4
 BYTE   W12
 BYTE   N23  Gn4
 BYTE   W24
//  #08 //066   ----------------------------------------
 BYTE   N11  En4
 BYTE   W12
 BYTE   N23  An4
 BYTE   W24
 BYTE   N11  En4
 BYTE   W12
 BYTE   Bn4
 BYTE   W12
 BYTE   En4
 BYTE   W12
 BYTE   Cn5
 BYTE   W12
 BYTE   En4
 BYTE   W12
//  #08 //067   ----------------------------------------
 BYTE   N32  Dn5  v060
 BYTE   W36
 BYTE   TIE  Cn5  v064
 BYTE   W60
//  #08 //068   ----------------------------------------
 BYTE   W88
 BYTE   W01
 BYTE   EOT
 BYTE   W07
//  #08 //069   ----------------------------------------
 BYTE   W96
//  #08 //070   ----------------------------------------
 BYTE   W96
//  #08 //071   ----------------------------------------
 BYTE   W96
//  #08 //072   ----------------------------------------
 BYTE   W96
//  #08 //073   ----------------------------------------
 BYTE   W96
//  #08 //074   ----------------------------------------
 BYTE   W96
//  #08 //075   ----------------------------------------
 BYTE   GoTo
  POIN2 Label_0154077A
 BYTE   FINE

//**************** Track 9 (Midi-Chn.8) ****************//

CallingThatDetestableName_009:
//  #09 //000   ----------------------------------------
 BYTE   KEYSH   CallingThatDetestableName_key+0
Label_0154121E:
 BYTE   VOICE   30
 BYTE   VOL   35*CallingThatDetestableName_mvl/mxv
 BYTE   PAN   c_v-61
 BYTE   W96
//  #09 //001   ----------------------------------------
 BYTE   W96
//  #09 //002   ----------------------------------------
 BYTE   W96
//  #09 //003   ----------------------------------------
 BYTE   W96
//  #09 //004   ----------------------------------------
 BYTE   W96
//  #09 //005   ----------------------------------------
 BYTE   W96
//  #09 //006   ----------------------------------------
 BYTE   W96
//  #09 //007   ----------------------------------------
 BYTE   W96
//  #09 //008   ----------------------------------------
 BYTE   W18
 BYTE   N11  Bn2  v072
 BYTE   W12
 BYTE   En3
 BYTE   W12
 BYTE   Gn3
 BYTE   W12
 BYTE   TIE  Dn4
 BYTE   W36
 BYTE   W02
 BYTE   W02
 BYTE   W01
 BYTE   W01
//  #09 //009   ----------------------------------------
Label_0154123C:
 BYTE   W03
 BYTE   W01
 BYTE   W02
 BYTE   W02
 BYTE   W03
 BYTE   W02
 BYTE   W03
 BYTE   W02
 BYTE   W01
 BYTE   W02
 BYTE   W01
 BYTE   W02
 BYTE   W01
 BYTE   W02
 BYTE   W01
 BYTE   W02
 BYTE   W02
 BYTE   W02
 BYTE   W02
 BYTE   W02
 BYTE   W02
 BYTE   W03
 BYTE   W02
 BYTE   W03
 BYTE   W05
 BYTE   W36
 BYTE   PEND 
 BYTE   EOT
 BYTE   Dn4
 BYTE   W07
//  #09 //010   ----------------------------------------
Label_0154125A:
 BYTE   W03
 BYTE   W02
 BYTE   W01
 BYTE   W01
 BYTE   W01
 BYTE   W01
 BYTE   W01
 BYTE   W08
 BYTE   N11  Bn2  v072
 BYTE   W12
 BYTE   En3
 BYTE   W12
 BYTE   Gn3
 BYTE   W12
 BYTE   TIE  Cs4
 BYTE   W42
 BYTE   PEND 
//  #09 //011   ----------------------------------------
Label_0154126E:
 BYTE   W22
 BYTE   W01
 BYTE   W02
 BYTE   W01
 BYTE   W01
 BYTE   W02
 BYTE   W01
 BYTE   W02
 BYTE   W02
 BYTE   W02
 BYTE   W02
 BYTE   W02
 BYTE   W03
 BYTE   W02
 BYTE   W03
 BYTE   W02
 BYTE   W02
 BYTE   W02
 BYTE   W02
 BYTE   W02
 BYTE   W03
 BYTE   W02
 BYTE   W03
 BYTE   W04
 BYTE   W04
 BYTE   W03
 BYTE   W12
 BYTE   PEND 
 BYTE   EOT
 BYTE   Cs4
 BYTE   W07
//  #09 //012   ----------------------------------------
Label_0154128D:
 BYTE   W05
 BYTE   W01
 BYTE   W01
 BYTE   W01
 BYTE   W01
 BYTE   W01
 BYTE   W01
 BYTE   W01
 BYTE   W06
 BYTE   N11  Bn2  v072
 BYTE   W12
 BYTE   En3
 BYTE   W12
 BYTE   Gn3
 BYTE   W12
 BYTE   TIE  Dn4
 BYTE   W32
 BYTE   W03
 BYTE   W03
 BYTE   W02
 BYTE   W02
 BYTE   PEND 
//  #09 //013   ----------------------------------------
Label_015412A6:
 BYTE   W03
 BYTE   W02
 BYTE   W03
 BYTE   W02
 BYTE   W02
 BYTE   W03
 BYTE   W03
 BYTE   W03
 BYTE   W03
 BYTE   W03
 BYTE   W02
 BYTE   W02
 BYTE   W02
 BYTE   W02
 BYTE   W02
 BYTE   W02
 BYTE   W02
 BYTE   W03
 BYTE   W04
 BYTE   W06
 BYTE   W04
 BYTE   W04
 BYTE   W05
 BYTE   W05
 BYTE   W05
 BYTE   W09
 BYTE   W03
 BYTE   PEND 
 BYTE   EOT
 BYTE   Dn4
 BYTE   W07
//  #09 //014   ----------------------------------------
Label_015412C5:
 BYTE   W08
 BYTE   W01
 BYTE   W01
 BYTE   W01
 BYTE   W01
 BYTE   W01
 BYTE   W01
 BYTE   W04
 BYTE   N11  Bn2  v072
 BYTE   W12
 BYTE   En3
 BYTE   W12
 BYTE   Gn3
 BYTE   W12
 BYTE   TIE  As3
 BYTE   W01
 BYTE   W02
 BYTE   W03
 BYTE   W02
 BYTE   W03
 BYTE   W02
 BYTE   W03
 BYTE   W04
 BYTE   W03
 BYTE   W05
 BYTE   W07
 BYTE   W05
 BYTE   W02
 BYTE   PEND 
//  #09 //015   ----------------------------------------
Label_015412E5:
 BYTE   W04
 BYTE   W03
 BYTE   W04
 BYTE   W03
 BYTE   W03
 BYTE   W03
 BYTE   W03
 BYTE   W02
 BYTE   W02
 BYTE   W03
 BYTE   W02
 BYTE   W03
 BYTE   W03
 BYTE   W03
 BYTE   W04
 BYTE   W04
 BYTE   W05
 BYTE   W32
 BYTE   W03
 BYTE   PEND 
 BYTE   EOT
 BYTE   As3
 BYTE   W07
//  #09 //016   ----------------------------------------
 BYTE   W03
 BYTE   W01
 BYTE   W01
 BYTE   W01
 BYTE   W01
 BYTE   W01
 BYTE   W01
 BYTE   W01
 BYTE   W01
 BYTE   W07
 BYTE   N11  Bn2  v072
 BYTE   W12
 BYTE   En3
 BYTE   W12
 BYTE   Gn3
 BYTE   W12
 BYTE   TIE  Dn4
 BYTE   W36
 BYTE   W02
 BYTE   W02
 BYTE   W01
 BYTE   W01
//  #09 //017   ----------------------------------------
 BYTE   PATT
  POIN2 Label_0154123C
//  #09 //018   ----------------------------------------
 BYTE   EOT
 BYTE   Dn4
 BYTE   W07
//  #09 //019   ----------------------------------------
 BYTE   PATT
  POIN2 Label_0154125A
//  #09 //020   ----------------------------------------
 BYTE   PATT
  POIN2 Label_0154126E
//  #09 //021   ----------------------------------------
 BYTE   EOT
 BYTE   Cs4
 BYTE   W07
//  #09 //022   ----------------------------------------
 BYTE   PATT
  POIN2 Label_0154128D
//  #09 //023   ----------------------------------------
 BYTE   PATT
  POIN2 Label_015412A6
//  #09 //024   ----------------------------------------
 BYTE   EOT
 BYTE   Dn4
 BYTE   W07
//  #09 //025   ----------------------------------------
 BYTE   PATT
  POIN2 Label_015412C5
//  #09 //026   ----------------------------------------
 BYTE   PATT
  POIN2 Label_015412E5
//  #09 //027   ----------------------------------------
 BYTE   EOT
 BYTE   As3
 BYTE   W07
 BYTE   W96
//  #09 //028   ----------------------------------------
 BYTE   W96
//  #09 //029   ----------------------------------------
 BYTE   W96
//  #09 //030   ----------------------------------------
 BYTE   W96
//  #09 //031   ----------------------------------------
 BYTE   W96
//  #09 //032   ----------------------------------------
 BYTE   W96
//  #09 //033   ----------------------------------------
 BYTE   W96
//  #09 //034   ----------------------------------------
 BYTE   W96
//  #09 //035   ----------------------------------------
 BYTE   W96
//  #09 //036   ----------------------------------------
 BYTE   W96
//  #09 //037   ----------------------------------------
 BYTE   W96
//  #09 //038   ----------------------------------------
 BYTE   W96
//  #09 //039   ----------------------------------------
 BYTE   W96
//  #09 //040   ----------------------------------------
 BYTE   W96
//  #09 //041   ----------------------------------------
 BYTE   W96
//  #09 //042   ----------------------------------------
 BYTE   W96
//  #09 //043   ----------------------------------------
 BYTE   W96
//  #09 //044   ----------------------------------------
 BYTE   W96
//  #09 //045   ----------------------------------------
 BYTE   W96
//  #09 //046   ----------------------------------------
 BYTE   W96
//  #09 //047   ----------------------------------------
 BYTE   W96
//  #09 //048   ----------------------------------------
 BYTE   W96
//  #09 //049   ----------------------------------------
 BYTE   W96
//  #09 //050   ----------------------------------------
 BYTE   W96
//  #09 //051   ----------------------------------------
 BYTE   W96
//  #09 //052   ----------------------------------------
 BYTE   W96
//  #09 //053   ----------------------------------------
 BYTE   W96
//  #09 //054   ----------------------------------------
 BYTE   W96
//  #09 //055   ----------------------------------------
 BYTE   W96
//  #09 //056   ----------------------------------------
 BYTE   W96
//  #09 //057   ----------------------------------------
 BYTE   W96
//  #09 //058   ----------------------------------------
 BYTE   W96
//  #09 //059   ----------------------------------------
 BYTE   W11
 BYTE   N02  An3  v052
 BYTE   W02
 BYTE   Bn3
 BYTE   W01
 BYTE   Cn4  v056
 BYTE   W02
 BYTE   Dn4
 BYTE   W01
 BYTE   N01  En4
 BYTE   W01
 BYTE   N02  Fn4
 BYTE   W01
 BYTE   N04  Gn4  v060
 BYTE   W03
 BYTE   N92  An4  v064
 BYTE   W72
 BYTE   W02
//  #09 //060   ----------------------------------------
 BYTE   W18
 BYTE   N05  Gn4  v060
 BYTE   W06
 BYTE   Fn4
 BYTE   W06
 BYTE   En4
 BYTE   W06
 BYTE   Dn4
 BYTE   W06
 BYTE   Fn4
 BYTE   W06
 BYTE   En4
 BYTE   W06
 BYTE   Dn4
 BYTE   W06
 BYTE   Cn4
 BYTE   W06
 BYTE   En4
 BYTE   W06
 BYTE   Dn4
 BYTE   W06
 BYTE   Cn4
 BYTE   W06
 BYTE   Bn3
 BYTE   W06
 BYTE   Dn4
 BYTE   W06
//  #09 //061   ----------------------------------------
 BYTE   Cn4
 BYTE   W06
 BYTE   Bn3
 BYTE   W06
 BYTE   Gn3  v064
 BYTE   W06
 BYTE   N11  Cn4
 BYTE   W12
 BYTE   An3
 BYTE   W12
 BYTE   Bn3
 BYTE   W12
 BYTE   Gn3
 BYTE   W12
 BYTE   An3
 BYTE   W12
 BYTE   En3
 BYTE   W12
 BYTE   Gn3
 BYTE   W06
//  #09 //062   ----------------------------------------
 BYTE   W06
 BYTE   Dn3
 BYTE   W12
 BYTE   En3
 BYTE   W12
 BYTE   Cn4
 BYTE   W12
 BYTE   Bn3
 BYTE   W12
 BYTE   Cn4
 BYTE   W12
 BYTE   Fn3
 BYTE   W12
 BYTE   Dn4
 BYTE   W12
 BYTE   An3
 BYTE   W06
//  #09 //063   ----------------------------------------
 BYTE   W06
 BYTE   Gn4
 BYTE   W12
 BYTE   N32  En4
 BYTE   W36
 BYTE   Gn3
 BYTE   W36
 BYTE   N56  Dn4
 BYTE   W06
//  #09 //064   ----------------------------------------
 BYTE   W66
 BYTE   N05
 BYTE   W06
 BYTE   Cn4
 BYTE   W06
 BYTE   Bn3
 BYTE   W06
 BYTE   An3
 BYTE   W06
 BYTE   Gn4
 BYTE   W06
//  #09 //065   ----------------------------------------
 BYTE   Fn4
 BYTE   W06
 BYTE   En4
 BYTE   W06
 BYTE   Dn4
 BYTE   W06
 BYTE   N11  En4
 BYTE   W12
 BYTE   Gn3
 BYTE   W12
 BYTE   Dn4
 BYTE   W12
 BYTE   N23  En4
 BYTE   W24
 BYTE   N11  Dn4
 BYTE   W12
 BYTE   N23  Gn4
 BYTE   W06
//  #09 //066   ----------------------------------------
 BYTE   W18
 BYTE   N11  En4
 BYTE   W12
 BYTE   N23  An4
 BYTE   W24
 BYTE   N11  En4
 BYTE   W12
 BYTE   Bn4
 BYTE   W12
 BYTE   En4
 BYTE   W12
 BYTE   Cn5
 BYTE   W06
//  #09 //067   ----------------------------------------
 BYTE   W06
 BYTE   En4
 BYTE   W12
 BYTE   N32  Dn5  v060
 BYTE   W36
 BYTE   TIE  Cn5  v064
 BYTE   W42
//  #09 //068   ----------------------------------------
 BYTE   W96
//  #09 //069   ----------------------------------------
 BYTE   W11
 BYTE   EOT
 BYTE   W84
 BYTE   W01
//  #09 //070   ----------------------------------------
 BYTE   W96
//  #09 //071   ----------------------------------------
 BYTE   W96
//  #09 //072   ----------------------------------------
 BYTE   W96
//  #09 //073   ----------------------------------------
 BYTE   W96
//  #09 //074   ----------------------------------------
 BYTE   W96
//  #09 //075   ----------------------------------------
 BYTE   GoTo
  POIN2 Label_0154121E
 BYTE   FINE

//**************** Track 10 (Midi-Chn.9) ****************//

CallingThatDetestableName_010:
//  #10 //000   ----------------------------------------
 BYTE   KEYSH   CallingThatDetestableName_key+0
Label_0153F3F6:
 BYTE   VOICE   30
 BYTE   VOL   46*CallingThatDetestableName_mvl/mxv
 BYTE   PAN   c_v-61
 BYTE   N11  En1  v068
 BYTE   W12
 BYTE   Gn1
 BYTE   W12
 BYTE   Bn1  v084
 BYTE   W12
 BYTE   En1  v072
 BYTE   W12
 BYTE   Gn1
 BYTE   W12
 BYTE   As1  v084
 BYTE   W12
 BYTE   En1  v068
 BYTE   W12
 BYTE   Gn1
 BYTE   W12
//  #10 //001   ----------------------------------------
Label_0153F412:
 BYTE   N11  Bn1  v084
 BYTE   W12
 BYTE   En1  v068
 BYTE   W12
 BYTE   Gn1
 BYTE   W12
 BYTE   As1  v084
 BYTE   W12
 BYTE   En1  v068
 BYTE   W12
 BYTE   Gn1
 BYTE   W36
 BYTE   PEND 
//  #10 //002   ----------------------------------------
Label_0153F424:
 BYTE   N11  En1  v068
 BYTE   W12
 BYTE   Gn1
 BYTE   W12
 BYTE   Bn1  v084
 BYTE   W12
 BYTE   En1  v072
 BYTE   W12
 BYTE   Gn1
 BYTE   W12
 BYTE   As1  v084
 BYTE   W12
 BYTE   En1  v068
 BYTE   W12
 BYTE   Gn1
 BYTE   W12
 BYTE   PEND 
//  #10 //003   ----------------------------------------
 BYTE   PATT
  POIN2 Label_0153F412
//  #10 //004   ----------------------------------------
 BYTE   PATT
  POIN2 Label_0153F424
//  #10 //005   ----------------------------------------
 BYTE   PATT
  POIN2 Label_0153F412
//  #10 //006   ----------------------------------------
 BYTE   PATT
  POIN2 Label_0153F424
//  #10 //007   ----------------------------------------
 BYTE   PATT
  POIN2 Label_0153F412
//  #10 //008   ----------------------------------------
 BYTE   PATT
  POIN2 Label_0153F424
//  #10 //009   ----------------------------------------
 BYTE   PATT
  POIN2 Label_0153F412
//  #10 //010   ----------------------------------------
 BYTE   PATT
  POIN2 Label_0153F424
//  #10 //011   ----------------------------------------
 BYTE   PATT
  POIN2 Label_0153F412
//  #10 //012   ----------------------------------------
 BYTE   PATT
  POIN2 Label_0153F424
//  #10 //013   ----------------------------------------
 BYTE   PATT
  POIN2 Label_0153F412
//  #10 //014   ----------------------------------------
 BYTE   PATT
  POIN2 Label_0153F424
//  #10 //015   ----------------------------------------
 BYTE   PATT
  POIN2 Label_0153F412
//  #10 //016   ----------------------------------------
 BYTE   PATT
  POIN2 Label_0153F424
//  #10 //017   ----------------------------------------
 BYTE   PATT
  POIN2 Label_0153F412
//  #10 //018   ----------------------------------------
 BYTE   PATT
  POIN2 Label_0153F424
//  #10 //019   ----------------------------------------
 BYTE   PATT
  POIN2 Label_0153F412
//  #10 //020   ----------------------------------------
 BYTE   PATT
  POIN2 Label_0153F424
//  #10 //021   ----------------------------------------
 BYTE   PATT
  POIN2 Label_0153F412
//  #10 //022   ----------------------------------------
 BYTE   PATT
  POIN2 Label_0153F424
//  #10 //023   ----------------------------------------
 BYTE   PATT
  POIN2 Label_0153F412
//  #10 //024   ----------------------------------------
 BYTE   PATT
  POIN2 Label_0153F424
//  #10 //025   ----------------------------------------
 BYTE   PATT
  POIN2 Label_0153F412
//  #10 //026   ----------------------------------------
 BYTE   PATT
  POIN2 Label_0153F424
//  #10 //027   ----------------------------------------
 BYTE   PATT
  POIN2 Label_0153F412
//  #10 //028   ----------------------------------------
 BYTE   PATT
  POIN2 Label_0153F424
//  #10 //029   ----------------------------------------
 BYTE   PATT
  POIN2 Label_0153F412
//  #10 //030   ----------------------------------------
 BYTE   PATT
  POIN2 Label_0153F424
//  #10 //031   ----------------------------------------
 BYTE   PATT
  POIN2 Label_0153F412
//  #10 //032   ----------------------------------------
 BYTE   W96
//  #10 //033   ----------------------------------------
 BYTE   W96
//  #10 //034   ----------------------------------------
 BYTE   W96
//  #10 //035   ----------------------------------------
 BYTE   W96
//  #10 //036   ----------------------------------------
 BYTE   W96
//  #10 //037   ----------------------------------------
 BYTE   W96
//  #10 //038   ----------------------------------------
 BYTE   W96
//  #10 //039   ----------------------------------------
 BYTE   W96
//  #10 //040   ----------------------------------------
 BYTE   W96
//  #10 //041   ----------------------------------------
 BYTE   W96
//  #10 //042   ----------------------------------------
 BYTE   W96
//  #10 //043   ----------------------------------------
 BYTE   W96
//  #10 //044   ----------------------------------------
 BYTE   W96
//  #10 //045   ----------------------------------------
 BYTE   W96
//  #10 //046   ----------------------------------------
 BYTE   W96
//  #10 //047   ----------------------------------------
 BYTE   W96
//  #10 //048   ----------------------------------------
 BYTE   W96
//  #10 //049   ----------------------------------------
 BYTE   W96
//  #10 //050   ----------------------------------------
 BYTE   W96
//  #10 //051   ----------------------------------------
 BYTE   W96
//  #10 //052   ----------------------------------------
 BYTE   W96
//  #10 //053   ----------------------------------------
 BYTE   W96
//  #10 //054   ----------------------------------------
 BYTE   W96
//  #10 //055   ----------------------------------------
 BYTE   W96
//  #10 //056   ----------------------------------------
 BYTE   W96
//  #10 //057   ----------------------------------------
 BYTE   W96
//  #10 //058   ----------------------------------------
 BYTE   W96
//  #10 //059   ----------------------------------------
 BYTE   W96
//  #10 //060   ----------------------------------------
 BYTE   W96
//  #10 //061   ----------------------------------------
 BYTE   W96
//  #10 //062   ----------------------------------------
 BYTE   W96
//  #10 //063   ----------------------------------------
 BYTE   W96
//  #10 //064   ----------------------------------------
 BYTE   W96
//  #10 //065   ----------------------------------------
 BYTE   W96
//  #10 //066   ----------------------------------------
 BYTE   W96
//  #10 //067   ----------------------------------------
 BYTE   W96
//  #10 //068   ----------------------------------------
 BYTE   W96
//  #10 //069   ----------------------------------------
 BYTE   W96
//  #10 //070   ----------------------------------------
 BYTE   W96
//  #10 //071   ----------------------------------------
 BYTE   W96
//  #10 //072   ----------------------------------------
 BYTE   GoTo
  POIN2 Label_0153F3F6
 BYTE   FINE

//**************** Track 11 (Midi-Chn.10) ****************//

CallingThatDetestableName_011:
//  #11 //000   ----------------------------------------
 BYTE   KEYSH   CallingThatDetestableName_key+0
Label_016D2CEE:
 BYTE   VOICE   28
 BYTE   VOL   41*CallingThatDetestableName_mvl/mxv
 BYTE   PAN   c_v-61
 BYTE   W96
//  #11 //001   ----------------------------------------
 BYTE   W72
 BYTE   N23  Cn2  v096
 BYTE   W24
//  #11 //002   ----------------------------------------
 BYTE   W96
//  #11 //003   ----------------------------------------
 BYTE   W72
 BYTE   Dn2
 BYTE   W24
//  #11 //004   ----------------------------------------
 BYTE   W96
//  #11 //005   ----------------------------------------
 BYTE   W72
 BYTE   Cn2
 BYTE   W24
//  #11 //006   ----------------------------------------
 BYTE   W96
//  #11 //007   ----------------------------------------
 BYTE   W72
 BYTE   Dn2
 BYTE   W24
//  #11 //008   ----------------------------------------
 BYTE   W96
//  #11 //009   ----------------------------------------
 BYTE   W72
 BYTE   Cn2
 BYTE   W24
//  #11 //010   ----------------------------------------
 BYTE   W96
//  #11 //011   ----------------------------------------
 BYTE   W72
 BYTE   Dn2
 BYTE   W24
//  #11 //012   ----------------------------------------
 BYTE   W96
//  #11 //013   ----------------------------------------
 BYTE   W72
 BYTE   Cn2
 BYTE   W24
//  #11 //014   ----------------------------------------
 BYTE   W96
//  #11 //015   ----------------------------------------
 BYTE   W72
 BYTE   Dn2
 BYTE   W24
//  #11 //016   ----------------------------------------
 BYTE   W96
//  #11 //017   ----------------------------------------
 BYTE   W72
 BYTE   Cn2
 BYTE   W24
//  #11 //018   ----------------------------------------
 BYTE   W96
//  #11 //019   ----------------------------------------
 BYTE   W72
 BYTE   Dn2
 BYTE   W24
//  #11 //020   ----------------------------------------
 BYTE   W96
//  #11 //021   ----------------------------------------
 BYTE   W72
 BYTE   Cn2
 BYTE   W24
//  #11 //022   ----------------------------------------
 BYTE   W96
//  #11 //023   ----------------------------------------
 BYTE   W72
 BYTE   Dn2
 BYTE   W24
//  #11 //024   ----------------------------------------
 BYTE   W96
//  #11 //025   ----------------------------------------
 BYTE   W72
 BYTE   Cn2
 BYTE   W24
//  #11 //026   ----------------------------------------
 BYTE   W96
//  #11 //027   ----------------------------------------
 BYTE   W72
 BYTE   Dn2
 BYTE   W24
//  #11 //028   ----------------------------------------
 BYTE   W96
//  #11 //029   ----------------------------------------
 BYTE   W72
 BYTE   Cn2
 BYTE   W24
//  #11 //030   ----------------------------------------
 BYTE   W96
//  #11 //031   ----------------------------------------
 BYTE   W72
 BYTE   Dn2
 BYTE   W24
//  #11 //032   ----------------------------------------
 BYTE   N78  Bn1  v127
 BYTE   W96
//  #11 //033   ----------------------------------------
 BYTE   N72  As1  v116
 BYTE   W96
//  #11 //034   ----------------------------------------
 BYTE   N84  An1  v120
 BYTE   W96
//  #11 //035   ----------------------------------------
 BYTE   N76  As1  v124
 BYTE   W96
//  #11 //036   ----------------------------------------
 BYTE   N78  Bn1  v127
 BYTE   W96
//  #11 //037   ----------------------------------------
 BYTE   N72  As1  v116
 BYTE   W96
//  #11 //038   ----------------------------------------
 BYTE   N84  An1  v120
 BYTE   W96
//  #11 //039   ----------------------------------------
 BYTE   N76  As1  v124
 BYTE   W96
//  #11 //040   ----------------------------------------
 BYTE   N78  Bn1  v127
 BYTE   W96
//  #11 //041   ----------------------------------------
 BYTE   N72  As1  v116
 BYTE   W96
//  #11 //042   ----------------------------------------
 BYTE   N84  An1  v120
 BYTE   W96
//  #11 //043   ----------------------------------------
 BYTE   N76  As1  v124
 BYTE   W96
//  #11 //044   ----------------------------------------
 BYTE   N78  Bn1  v127
 BYTE   W96
//  #11 //045   ----------------------------------------
 BYTE   N72  As1  v116
 BYTE   W96
//  #11 //046   ----------------------------------------
 BYTE   N84  An1  v120
 BYTE   W96
//  #11 //047   ----------------------------------------
 BYTE   N76  As1  v124
 BYTE   W96
//  #11 //048   ----------------------------------------
 BYTE   W96
//  #11 //049   ----------------------------------------
 BYTE   W96
//  #11 //050   ----------------------------------------
 BYTE   W96
//  #11 //051   ----------------------------------------
 BYTE   W96
//  #11 //052   ----------------------------------------
 BYTE   W96
//  #11 //053   ----------------------------------------
 BYTE   W96
//  #11 //054   ----------------------------------------
 BYTE   W96
//  #11 //055   ----------------------------------------
 BYTE   W96
//  #11 //056   ----------------------------------------
 BYTE   W96
//  #11 //057   ----------------------------------------
 BYTE   W96
//  #11 //058   ----------------------------------------
 BYTE   W96
//  #11 //059   ----------------------------------------
 BYTE   W96
//  #11 //060   ----------------------------------------
 BYTE   W96
//  #11 //061   ----------------------------------------
 BYTE   W96
//  #11 //062   ----------------------------------------
 BYTE   W96
//  #11 //063   ----------------------------------------
 BYTE   W96
//  #11 //064   ----------------------------------------
 BYTE   W96
//  #11 //065   ----------------------------------------
 BYTE   W96
//  #11 //066   ----------------------------------------
 BYTE   W96
//  #11 //067   ----------------------------------------
 BYTE   W96
//  #11 //068   ----------------------------------------
 BYTE   W96
//  #11 //069   ----------------------------------------
 BYTE   W96
//  #11 //070   ----------------------------------------
 BYTE   W96
//  #11 //071   ----------------------------------------
 BYTE   W96
//  #11 //072   ----------------------------------------
 BYTE   GoTo
  POIN2 Label_016D2CEE
 BYTE   FINE

//**************** Track 12 (Midi-Chn.11) ****************//

CallingThatDetestableName_012:
//  #12 //000   ----------------------------------------
 BYTE   KEYSH   CallingThatDetestableName_key+0
Label_0153F77A:
 BYTE   VOICE   124
 BYTE   VOL   51*CallingThatDetestableName_mvl/mxv
 BYTE   PAN   c_v+0
 BYTE   W96
//  #12 //001   ----------------------------------------
 BYTE   W96
//  #12 //002   ----------------------------------------
 BYTE   W96
//  #12 //003   ----------------------------------------
 BYTE   W96
//  #12 //004   ----------------------------------------
 BYTE   W96
//  #12 //005   ----------------------------------------
 BYTE   W96
//  #12 //006   ----------------------------------------
 BYTE   W96
//  #12 //007   ----------------------------------------
 BYTE   N11  Cn1  v112
 BYTE   N23  As1  v120
 BYTE   W12
 BYTE   N11  Dn1  v080
 BYTE   W12
 BYTE   N05  Cn2  v124
 BYTE   W06
 BYTE   Cn2  v116
 BYTE   W06
 BYTE   N11  Cn2  v092
 BYTE   W12
 BYTE   N05  Cs1  v124
 BYTE   W06
 BYTE   Cs1  v112
 BYTE   W06
 BYTE   N11
 BYTE   W12
 BYTE   Cn1  v127
 BYTE   W12
 BYTE   Cn1  v120
 BYTE   W12
//  #12 //008   ----------------------------------------
 BYTE   W96
//  #12 //009   ----------------------------------------
 BYTE   W96
//  #12 //010   ----------------------------------------
 BYTE   W96
//  #12 //011   ----------------------------------------
 BYTE   W96
//  #12 //012   ----------------------------------------
 BYTE   W96
//  #12 //013   ----------------------------------------
 BYTE   W96
//  #12 //014   ----------------------------------------
 BYTE   W96
//  #12 //015   ----------------------------------------
 BYTE   W96
//  #12 //016   ----------------------------------------
 BYTE   W96
//  #12 //017   ----------------------------------------
 BYTE   W96
//  #12 //018   ----------------------------------------
 BYTE   W96
//  #12 //019   ----------------------------------------
 BYTE   W96
//  #12 //020   ----------------------------------------
 BYTE   W96
//  #12 //021   ----------------------------------------
 BYTE   W96
//  #12 //022   ----------------------------------------
 BYTE   W96
//  #12 //023   ----------------------------------------
 BYTE   Dn1  v127
 BYTE   W12
 BYTE   Cn1  v116
 BYTE   W12
 BYTE   Cn2  v088
 BYTE   W12
 BYTE   Cn2  v120
 BYTE   W12
 BYTE   N05  Cs1  v084
 BYTE   W06
 BYTE   N11  Cs1  v092
 BYTE   W12
 BYTE   N05  Cs1  v116
 BYTE   W06
 BYTE   N11  Cn1  v120
 BYTE   W12
 BYTE   Cn1  v124
 BYTE   W12
//  #12 //024   ----------------------------------------
 BYTE   W96
//  #12 //025   ----------------------------------------
 BYTE   W96
//  #12 //026   ----------------------------------------
 BYTE   W96
//  #12 //027   ----------------------------------------
 BYTE   W96
//  #12 //028   ----------------------------------------
 BYTE   W96
//  #12 //029   ----------------------------------------
 BYTE   W96
//  #12 //030   ----------------------------------------
 BYTE   W96
//  #12 //031   ----------------------------------------
Label_0153F7E1:
 BYTE   N05  Cn1  v092
 BYTE   N05  Dn1  v124
 BYTE   W06
 BYTE   En1  v068
 BYTE   W06
 BYTE   En1  v028
 BYTE   W06
 BYTE   En1  v120
 BYTE   W06
 BYTE   Dn1  v068
 BYTE   W06
 BYTE   En1  v032
 BYTE   W06
 BYTE   Cn1  v092
 BYTE   N11  Cn2  v120
 BYTE   W06
 BYTE   N05  En1  v032
 BYTE   W06
 BYTE   En1  v076
 BYTE   W06
 BYTE   Cn1  v072
 BYTE   N11  Cs1  v120
 BYTE   W06
 BYTE   N05  En1  v076
 BYTE   W06
 BYTE   En1  v040
 BYTE   W06
 BYTE   Cn1  v088
 BYTE   N11  Cs1  v127
 BYTE   W06
 BYTE   N05  En1  v080
 BYTE   W06
 BYTE   En1  v084
 BYTE   W06
 BYTE   En1  v040
 BYTE   W06
 BYTE   PEND 
//  #12 //032   ----------------------------------------
 BYTE   W96
//  #12 //033   ----------------------------------------
 BYTE   W96
//  #12 //034   ----------------------------------------
 BYTE   W96
//  #12 //035   ----------------------------------------
 BYTE   W96
//  #12 //036   ----------------------------------------
 BYTE   W96
//  #12 //037   ----------------------------------------
 BYTE   W96
//  #12 //038   ----------------------------------------
 BYTE   W96
//  #12 //039   ----------------------------------------
Label_0153F829:
 BYTE   N11  Cn1  v112
 BYTE   N23  As1  v120
 BYTE   W12
 BYTE   N11  Dn1  v080
 BYTE   W12
 BYTE   N05  Cn2  v124
 BYTE   W06
 BYTE   Cn2  v116
 BYTE   W06
 BYTE   N11  Cn2  v092
 BYTE   W12
 BYTE   N05  Cs1  v124
 BYTE   W06
 BYTE   Cs1  v112
 BYTE   W06
 BYTE   N11
 BYTE   W12
 BYTE   Cs1  v127
 BYTE   W12
 BYTE   Cs1  v120
 BYTE   W12
 BYTE   PEND 
//  #12 //040   ----------------------------------------
 BYTE   W96
//  #12 //041   ----------------------------------------
 BYTE   W96
//  #12 //042   ----------------------------------------
 BYTE   W96
//  #12 //043   ----------------------------------------
 BYTE   W96
//  #12 //044   ----------------------------------------
 BYTE   W96
//  #12 //045   ----------------------------------------
 BYTE   W96
//  #12 //046   ----------------------------------------
 BYTE   W96
//  #12 //047   ----------------------------------------
 BYTE   PATT
  POIN2 Label_0153F829
//  #12 //048   ----------------------------------------
 BYTE   W96
//  #12 //049   ----------------------------------------
 BYTE   W96
//  #12 //050   ----------------------------------------
 BYTE   W96
//  #12 //051   ----------------------------------------
 BYTE   W96
//  #12 //052   ----------------------------------------
 BYTE   W96
//  #12 //053   ----------------------------------------
 BYTE   W96
//  #12 //054   ----------------------------------------
 BYTE   W96
//  #12 //055   ----------------------------------------
 BYTE   PATT
  POIN2 Label_0153F7E1
//  #12 //056   ----------------------------------------
 BYTE   W96
//  #12 //057   ----------------------------------------
 BYTE   W96
//  #12 //058   ----------------------------------------
 BYTE   W96
//  #12 //059   ----------------------------------------
 BYTE   W96
//  #12 //060   ----------------------------------------
 BYTE   W96
//  #12 //061   ----------------------------------------
 BYTE   W96
//  #12 //062   ----------------------------------------
 BYTE   W96
//  #12 //063   ----------------------------------------
 BYTE   N11  Cn1  v112
 BYTE   N23  As1  v120
 BYTE   W12
 BYTE   N11  Dn1  v080
 BYTE   W12
 BYTE   N05  Cn2  v124
 BYTE   W06
 BYTE   Cn2  v116
 BYTE   W06
 BYTE   N11  Cn2  v092
 BYTE   W12
 BYTE   N05  En1  v076
 BYTE   W06
 BYTE   Cn1  v072
 BYTE   N11  Cs1  v120
 BYTE   W06
 BYTE   N05  En1  v076
 BYTE   W06
 BYTE   En1  v040
 BYTE   W06
 BYTE   Cn1  v088
 BYTE   N11  Cs1  v127
 BYTE   W06
 BYTE   N05  En1  v080
 BYTE   W06
 BYTE   En1  v084
 BYTE   W06
 BYTE   En1  v040
 BYTE   W06
//  #12 //064   ----------------------------------------
 BYTE   W96
//  #12 //065   ----------------------------------------
 BYTE   W96
//  #12 //066   ----------------------------------------
 BYTE   W96
//  #12 //067   ----------------------------------------
 BYTE   W96
//  #12 //068   ----------------------------------------
 BYTE   W96
//  #12 //069   ----------------------------------------
 BYTE   W96
//  #12 //070   ----------------------------------------
 BYTE   W96
//  #12 //071   ----------------------------------------
 BYTE   PATT
  POIN2 Label_0153F829
//  #12 //072   ----------------------------------------
 BYTE   GoTo
  POIN2 Label_0153F77A
 BYTE   FINE

//**************** Track 13 (Midi-Chn.12) ****************//

CallingThatDetestableName_013:
//  #13 //000   ----------------------------------------
 BYTE   KEYSH   CallingThatDetestableName_key+0
Label_0154157E:
 BYTE   VOICE   124
 BYTE   VOL   48*CallingThatDetestableName_mvl/mxv
 BYTE   PAN   c_v+0
 BYTE   N11  Cn1  v127
 BYTE   N92  Dn2  v104
 BYTE   W12
 BYTE   N11  Cn1  v112
 BYTE   W12
 BYTE   N23  Dn1  v104
 BYTE   N23  Cn2  v068
 BYTE   W12
 BYTE   N11  Cn1  v116
 BYTE   W12
 BYTE   Cn1  v108
 BYTE   N23  Cn2  v072
 BYTE   W12
 BYTE   N11  Cn1  v120
 BYTE   W12
 BYTE   N23  Dn1  v104
 BYTE   N23  Cn2  v068
 BYTE   W12
 BYTE   N11  Cn1  v108
 BYTE   W12
//  #13 //001   ----------------------------------------
Label_015415AF:
 BYTE   N11  Cn1  v112
 BYTE   N23  Cn2  v072
 BYTE   W12
 BYTE   N11  Cn1  v108
 BYTE   W12
 BYTE   N23  Dn1  v104
 BYTE   N23  Cn2  v072
 BYTE   W12
 BYTE   N11  Cn1  v116
 BYTE   W12
 BYTE   N05
 BYTE   N23  Cn2  v072
 BYTE   W12
 BYTE   N11  Cn1  v124
 BYTE   W12
 BYTE   N23  Dn1  v096
 BYTE   N23  Cn2  v068
 BYTE   W12
 BYTE   N11  Cn1  v120
 BYTE   W12
 BYTE   PEND 
//  #13 //002   ----------------------------------------
Label_015415DA:
 BYTE   N11  Cn1  v127
 BYTE   N23  Cn2  v076
 BYTE   W12
 BYTE   N11  Cn1  v112
 BYTE   W12
 BYTE   N23  Dn1  v104
 BYTE   N23  Cn2  v068
 BYTE   W12
 BYTE   N11  Cn1  v116
 BYTE   W12
 BYTE   Cn1  v108
 BYTE   N23  Cn2  v072
 BYTE   W12
 BYTE   N11  Cn1  v120
 BYTE   W12
 BYTE   N23  Dn1  v104
 BYTE   N23  Cn2  v068
 BYTE   W12
 BYTE   N11  Cn1  v108
 BYTE   W12
 BYTE   PEND 
//  #13 //003   ----------------------------------------
Label_01541606:
 BYTE   N11  Cn1  v112
 BYTE   N23  Cn2  v072
 BYTE   W12
 BYTE   N11  Cn1  v108
 BYTE   W12
 BYTE   N23  Dn1  v104
 BYTE   N23  Cn2  v072
 BYTE   W12
 BYTE   N11  Cn1  v116
 BYTE   W12
 BYTE   N05
 BYTE   N23  Cn2  v072
 BYTE   W06
 BYTE   N16  Dn1  v108
 BYTE   W06
 BYTE   N11  Cn1  v124
 BYTE   W12
 BYTE   N23  Dn1  v096
 BYTE   N23  Cn2  v068
 BYTE   W12
 BYTE   N11  Cn1  v120
 BYTE   W12
 BYTE   PEND 
//  #13 //004   ----------------------------------------
Label_01541635:
 BYTE   N11  Cn1  v127
 BYTE   N92  Ds2  v104
 BYTE   W12
 BYTE   N11  Cn1  v112
 BYTE   W12
 BYTE   N23  Dn1  v104
 BYTE   N23  Cn2  v068
 BYTE   W12
 BYTE   N11  Cn1  v116
 BYTE   W12
 BYTE   Cn1  v108
 BYTE   N23  Cn2  v072
 BYTE   W12
 BYTE   N11  Cn1  v120
 BYTE   W12
 BYTE   N23  Dn1  v104
 BYTE   N23  Cn2  v068
 BYTE   W12
 BYTE   N11  Cn1  v108
 BYTE   W12
 BYTE   PEND 
//  #13 //005   ----------------------------------------
 BYTE   PATT
  POIN2 Label_015415AF
//  #13 //006   ----------------------------------------
 BYTE   PATT
  POIN2 Label_015415DA
//  #13 //007   ----------------------------------------
 BYTE   W96
//  #13 //008   ----------------------------------------
 BYTE   PATT
  POIN2 Label_01541635
//  #13 //009   ----------------------------------------
 BYTE   PATT
  POIN2 Label_015415AF
//  #13 //010   ----------------------------------------
 BYTE   PATT
  POIN2 Label_015415DA
//  #13 //011   ----------------------------------------
 BYTE   PATT
  POIN2 Label_01541606
//  #13 //012   ----------------------------------------
 BYTE   PATT
  POIN2 Label_01541635
//  #13 //013   ----------------------------------------
 BYTE   PATT
  POIN2 Label_015415AF
//  #13 //014   ----------------------------------------
 BYTE   PATT
  POIN2 Label_015415DA
//  #13 //015   ----------------------------------------
 BYTE   N11  Cn1  v112
 BYTE   N23  Cn2  v072
 BYTE   W12
 BYTE   N11  Cn1  v108
 BYTE   W12
 BYTE   N23  Dn1  v104
 BYTE   N23  Cn2  v072
 BYTE   W12
 BYTE   N11  Cn1  v116
 BYTE   W12
 BYTE   N05
 BYTE   N23  Cn2  v072
 BYTE   W06
 BYTE   N16  Dn1  v108
 BYTE   W06
 BYTE   N11  Cn1  v124
 BYTE   W12
 BYTE   N16  Dn1  v096
 BYTE   N23  Cn2  v068
 BYTE   W12
 BYTE   N05  Cn1  v120
 BYTE   W06
 BYTE   N23  Dn1  v096
 BYTE   W06
//  #13 //016   ----------------------------------------
 BYTE   PATT
  POIN2 Label_01541635
//  #13 //017   ----------------------------------------
 BYTE   PATT
  POIN2 Label_015415AF
//  #13 //018   ----------------------------------------
 BYTE   PATT
  POIN2 Label_015415DA
//  #13 //019   ----------------------------------------
 BYTE   PATT
  POIN2 Label_01541606
//  #13 //020   ----------------------------------------
 BYTE   PATT
  POIN2 Label_01541635
//  #13 //021   ----------------------------------------
 BYTE   PATT
  POIN2 Label_015415AF
//  #13 //022   ----------------------------------------
 BYTE   PATT
  POIN2 Label_015415DA
//  #13 //023   ----------------------------------------
 BYTE   W96
//  #13 //024   ----------------------------------------
 BYTE   PATT
  POIN2 Label_01541635
//  #13 //025   ----------------------------------------
 BYTE   PATT
  POIN2 Label_015415AF
//  #13 //026   ----------------------------------------
 BYTE   PATT
  POIN2 Label_015415DA
//  #13 //027   ----------------------------------------
 BYTE   N11  Cn1  v112
 BYTE   N23  Cn2  v072
 BYTE   W12
 BYTE   N11  Cn1  v108
 BYTE   W12
 BYTE   N23  Dn1  v104
 BYTE   N23  Cn2  v072
 BYTE   W12
 BYTE   N11  Cn1  v116
 BYTE   W12
 BYTE   N05
 BYTE   N23  Cn2  v072
 BYTE   W06
 BYTE   N16  Dn1  v108
 BYTE   W06
 BYTE   N11  Cn1  v124
 BYTE   W12
 BYTE   N23  Dn1  v096
 BYTE   N23  Cn2  v068
 BYTE   N24  Ds2  v104
 BYTE   W12
 BYTE   N11  Cn1  v120
 BYTE   W12
//  #13 //028   ----------------------------------------
 BYTE   Cn1  v127
 BYTE   N68  Ds2  v104
 BYTE   W12
 BYTE   N11  Cn1  v112
 BYTE   W12
 BYTE   N23  Dn1  v104
 BYTE   N23  Cn2  v068
 BYTE   W12
 BYTE   N11  Cn1  v116
 BYTE   W12
 BYTE   Cn1  v108
 BYTE   N23  Cn2  v072
 BYTE   W12
 BYTE   N11  Cn1  v120
 BYTE   W12
 BYTE   N23  Dn1  v104
 BYTE   N23  Cn2  v068
 BYTE   W12
 BYTE   N11  Cn1  v108
 BYTE   W12
//  #13 //029   ----------------------------------------
 BYTE   PATT
  POIN2 Label_015415AF
//  #13 //030   ----------------------------------------
 BYTE   PATT
  POIN2 Label_015415DA
//  #13 //031   ----------------------------------------
 BYTE   W96
//  #13 //032   ----------------------------------------
Label_0154175A:
 BYTE   N23  Dn1  v104
 BYTE   N92  Ds2
 BYTE   W12
 BYTE   N11  Cn1  v112
 BYTE   W12
 BYTE   N23  Dn1  v104
 BYTE   N23  Cn2  v068
 BYTE   W12
 BYTE   N11  Cn1  v112
 BYTE   W12
 BYTE   N23  Dn1  v104
 BYTE   N23  Cn2  v072
 BYTE   W12
 BYTE   N11  Cn1  v112
 BYTE   W12
 BYTE   N23  Dn1  v104
 BYTE   N23  Cn2  v068
 BYTE   W12
 BYTE   N11  Cn1  v112
 BYTE   W12
 BYTE   PEND 
//  #13 //033   ----------------------------------------
Label_01541786:
 BYTE   N23  Dn1  v104
 BYTE   N23  Cn2  v072
 BYTE   W12
 BYTE   N11  Cn1  v112
 BYTE   W12
 BYTE   N23  Dn1  v104
 BYTE   N23  Cn2  v072
 BYTE   W12
 BYTE   N11  Cn1  v112
 BYTE   W12
 BYTE   N23  Dn1  v104
 BYTE   N23  Cn2  v072
 BYTE   W12
 BYTE   N11  Cn1  v112
 BYTE   W12
 BYTE   N23  Dn1  v104
 BYTE   N23  Cn2  v068
 BYTE   W12
 BYTE   N11  Cn1  v112
 BYTE   W12
 BYTE   PEND 
//  #13 //034   ----------------------------------------
Label_015417B3:
 BYTE   N23  Dn1  v104
 BYTE   N23  Cn2  v076
 BYTE   W12
 BYTE   N11  Cn1  v112
 BYTE   W12
 BYTE   N23  Dn1  v104
 BYTE   N23  Cn2  v068
 BYTE   W12
 BYTE   N11  Cn1  v112
 BYTE   W12
 BYTE   N23  Dn1  v104
 BYTE   N23  Cn2  v072
 BYTE   W12
 BYTE   N11  Cn1  v112
 BYTE   W12
 BYTE   N23  Dn1  v104
 BYTE   N23  Cn2  v068
 BYTE   W12
 BYTE   N11  Cn1  v112
 BYTE   W12
 BYTE   PEND 
//  #13 //035   ----------------------------------------
 BYTE   PATT
  POIN2 Label_01541786
//  #13 //036   ----------------------------------------
 BYTE   PATT
  POIN2 Label_0154175A
//  #13 //037   ----------------------------------------
 BYTE   PATT
  POIN2 Label_01541786
//  #13 //038   ----------------------------------------
 BYTE   PATT
  POIN2 Label_015417B3
//  #13 //039   ----------------------------------------
 BYTE   W96
//  #13 //040   ----------------------------------------
 BYTE   PATT
  POIN2 Label_0154175A
//  #13 //041   ----------------------------------------
 BYTE   PATT
  POIN2 Label_01541786
//  #13 //042   ----------------------------------------
 BYTE   PATT
  POIN2 Label_015417B3
//  #13 //043   ----------------------------------------
 BYTE   PATT
  POIN2 Label_01541786
//  #13 //044   ----------------------------------------
 BYTE   PATT
  POIN2 Label_0154175A
//  #13 //045   ----------------------------------------
 BYTE   PATT
  POIN2 Label_01541786
//  #13 //046   ----------------------------------------
 BYTE   PATT
  POIN2 Label_015417B3
//  #13 //047   ----------------------------------------
 BYTE   W96
//  #13 //048   ----------------------------------------
 BYTE   PATT
  POIN2 Label_0154175A
//  #13 //049   ----------------------------------------
 BYTE   PATT
  POIN2 Label_01541786
//  #13 //050   ----------------------------------------
 BYTE   PATT
  POIN2 Label_015417B3
//  #13 //051   ----------------------------------------
 BYTE   PATT
  POIN2 Label_01541786
//  #13 //052   ----------------------------------------
 BYTE   PATT
  POIN2 Label_01541635
//  #13 //053   ----------------------------------------
 BYTE   PATT
  POIN2 Label_015415AF
//  #13 //054   ----------------------------------------
 BYTE   PATT
  POIN2 Label_015415DA
//  #13 //055   ----------------------------------------
 BYTE   W96
//  #13 //056   ----------------------------------------
 BYTE   PATT
  POIN2 Label_01541635
//  #13 //057   ----------------------------------------
 BYTE   PATT
  POIN2 Label_015415AF
//  #13 //058   ----------------------------------------
 BYTE   PATT
  POIN2 Label_015415DA
//  #13 //059   ----------------------------------------
 BYTE   N11  Cn1  v112
 BYTE   N23  Cn2  v072
 BYTE   W12
 BYTE   N11  Cn1  v108
 BYTE   W12
 BYTE   N23  Dn1  v104
 BYTE   N23  Cn2  v072
 BYTE   W12
 BYTE   N11  Cn1  v116
 BYTE   W12
 BYTE   N05
 BYTE   N23  Cn2  v072
 BYTE   W06
 BYTE   N18  Dn1  v108
 BYTE   W06
 BYTE   N11  Cn1  v124
 BYTE   W12
 BYTE   N05  Dn1  v096
 BYTE   N23  Cn2  v068
 BYTE   W12
 BYTE   N11  Cn1  v120
 BYTE   W12
//  #13 //060   ----------------------------------------
 BYTE   PATT
  POIN2 Label_01541635
//  #13 //061   ----------------------------------------
 BYTE   PATT
  POIN2 Label_015415AF
//  #13 //062   ----------------------------------------
 BYTE   PATT
  POIN2 Label_015415DA
//  #13 //063   ----------------------------------------
 BYTE   W96
//  #13 //064   ----------------------------------------
 BYTE   PATT
  POIN2 Label_01541635
//  #13 //065   ----------------------------------------
 BYTE   PATT
  POIN2 Label_015415AF
//  #13 //066   ----------------------------------------
 BYTE   PATT
  POIN2 Label_015415DA
//  #13 //067   ----------------------------------------
 BYTE   PATT
  POIN2 Label_01541606
//  #13 //068   ----------------------------------------
 BYTE   PATT
  POIN2 Label_01541635
//  #13 //069   ----------------------------------------
 BYTE   PATT
  POIN2 Label_015415AF
//  #13 //070   ----------------------------------------
 BYTE   PATT
  POIN2 Label_015415DA
//  #13 //071   ----------------------------------------
 BYTE   N11  Cn1  v112
 BYTE   N23  Cn2  v072
 BYTE   W96
//  #13 //072   ----------------------------------------
 BYTE   GoTo
  POIN2 Label_0154157E
 BYTE   FINE

//******************************************************//
	ALIGN 4

CallingThatDetestableName:
	BYTE	13	// NumTrks
	BYTE	0	// NumBlks
	BYTE	CallingThatDetestableName_pri	// Priority
	BYTE	CallingThatDetestableName_rev	// Reverb.
    
	POIN2	CallingThatDetestableName_grp
    
	POIN2	CallingThatDetestableName_001
	POIN2	CallingThatDetestableName_002
	POIN2	CallingThatDetestableName_003
	POIN2	CallingThatDetestableName_004
	POIN2	CallingThatDetestableName_005
	POIN2	CallingThatDetestableName_006
	POIN2	CallingThatDetestableName_007
	POIN2	CallingThatDetestableName_008
	POIN2	CallingThatDetestableName_009
	POIN2	CallingThatDetestableName_010
	POIN2	CallingThatDetestableName_011
	POIN2	CallingThatDetestableName_012
	POIN2	CallingThatDetestableName_013

	
