//Event file generated from Sappy .s format.
	#include "MPlayDef.event"

	#define	ChaosTheme_grp  voicegroup000
	#define	ChaosTheme_pri  10
	#define	ChaosTheme_rev  128
	#define	ChaosTheme_mvl  127
	#define	ChaosTheme_key  0
	#define	ChaosTheme_tbs  1
	#define	ChaosTheme_exg  0
	#define	ChaosTheme_cmp  1

	// .rodata
	//	ChaosTheme
	ALIGN 4


//**************** Track 1 (Midi-Chn.0) ****************//

ChaosTheme_001:
//  #01 //000   ----------------------------------------
 BYTE   KEYSH   ChaosTheme_key+0
 BYTE   TEMPO   120*ChaosTheme_tbs/2
 BYTE   VOICE   93
 BYTE   VOL   33*ChaosTheme_mvl/mxv
 BYTE   N92  Gn0  v100
 BYTE   N92  Cn1
 BYTE   N92  Gn1  v080
 BYTE   N92  Cn2
 BYTE   W96
//  #01 //001   ----------------------------------------
 BYTE   Fn0  v100
 BYTE   N92  As0
 BYTE   N92  Fn1  v080
 BYTE   N92  As1
 BYTE   W96
//  #01 //002   ----------------------------------------
Label_01018A85:
 BYTE   N92  Gn0  v100
 BYTE   N92  Cn1
 BYTE   N92  Gn1  v080
 BYTE   N92  Cn2
 BYTE   W96
//  #01 //003   ----------------------------------------
 BYTE   Fn0  v100
 BYTE   N92  As0
 BYTE   N92  Fn1  v080
 BYTE   N92  As1
 BYTE   W96
 BYTE   PEND 
//  #01 //004   ----------------------------------------
 BYTE   PATT
  POIN2 Label_01018A85
//  #01 //005   ----------------------------------------
 BYTE   N92  Gn0  v100
 BYTE   N92  Cn1
 BYTE   N92  Gn1  v080
 BYTE   N92  Cn2
 BYTE   W96
//  #01 //006   ----------------------------------------
 BYTE   Fn0  v100
 BYTE   N92  As0
 BYTE   N92  Fn1  v080
 BYTE   N92  As1
 BYTE   W92
 BYTE   W03
Label_01018AB6:
 BYTE   W01
//  #01 //007   ----------------------------------------
 BYTE   PATT
  POIN2 Label_01018A85
//  #01 //008   ----------------------------------------
 BYTE   PATT
  POIN2 Label_01018A85
//  #01 //009   ----------------------------------------
 BYTE   PATT
  POIN2 Label_01018A85
//  #01 //010   ----------------------------------------
 BYTE   PATT
  POIN2 Label_01018A85
//  #01 //011   ----------------------------------------
 BYTE   PATT
  POIN2 Label_01018A85
//  #01 //012   ----------------------------------------
 BYTE   PATT
  POIN2 Label_01018A85
//  #01 //013   ----------------------------------------
 BYTE   PATT
  POIN2 Label_01018A85
//  #01 //014   ----------------------------------------
 BYTE   PATT
  POIN2 Label_01018A85
//  #01 //015   ----------------------------------------
Label_01018ADF:
 BYTE   N92  Gn0  v100
 BYTE   N92  Cn1
 BYTE   N92  Gn1  v080
 BYTE   N92  Cn2
 BYTE   N92  Ds2
 BYTE   W96
//  #01 //016   ----------------------------------------
 BYTE   Fn0  v100
 BYTE   N92  As0
 BYTE   N92  Fn1  v080
 BYTE   N92  As1
 BYTE   N92  Dn2
 BYTE   W96
 BYTE   PEND 
//  #01 //017   ----------------------------------------
 BYTE   PATT
  POIN2 Label_01018ADF
//  #01 //018   ----------------------------------------
 BYTE   PATT
  POIN2 Label_01018ADF
//  #01 //019   ----------------------------------------
 BYTE   PATT
  POIN2 Label_01018ADF
//  #01 //020   ----------------------------------------
 BYTE   PATT
  POIN2 Label_01018ADF
//  #01 //021   ----------------------------------------
 BYTE   PATT
  POIN2 Label_01018ADF
//  #01 //022   ----------------------------------------
 BYTE   PATT
  POIN2 Label_01018ADF
//  #01 //023   ----------------------------------------
 BYTE   PATT
  POIN2 Label_01018ADF
//  #01 //024   ----------------------------------------
 BYTE   PATT
  POIN2 Label_01018ADF
//  #01 //025   ----------------------------------------
 BYTE   PATT
  POIN2 Label_01018ADF
//  #01 //026   ----------------------------------------
 BYTE   PATT
  POIN2 Label_01018ADF
//  #01 //027   ----------------------------------------
 BYTE   PATT
  POIN2 Label_01018ADF
//  #01 //028   ----------------------------------------
 BYTE   PATT
  POIN2 Label_01018ADF
//  #01 //029   ----------------------------------------
 BYTE   PATT
  POIN2 Label_01018ADF
//  #01 //030   ----------------------------------------
 BYTE   PATT
  POIN2 Label_01018ADF
//  #01 //031   ----------------------------------------
 BYTE   N92  Gn0  v100
 BYTE   N92  Cn1
 BYTE   N92  Gn1  v080
 BYTE   N92  Cn2
 BYTE   N92  Ds2
 BYTE   W96
//  #01 //032   ----------------------------------------
 BYTE   Fn0  v100
 BYTE   N92  As0
 BYTE   N92  Fn1  v080
 BYTE   N92  As1
 BYTE   N92  Dn2
 BYTE   W92
 BYTE   W03
 BYTE   GoTo
  POIN2 Label_01018AB6
 BYTE   FINE

//**************** Track 2 (Midi-Chn.1) ****************//

ChaosTheme_002:
//  #02 //000   ----------------------------------------
 BYTE   KEYSH   ChaosTheme_key+0
 BYTE   VOICE   41
 BYTE   VOL   33*ChaosTheme_mvl/mxv
 BYTE   BENDR  8
 BYTE   W96
//  #02 //001   ----------------------------------------
 BYTE   W96
//  #02 //002   ----------------------------------------
 BYTE   W96
//  #02 //003   ----------------------------------------
 BYTE   W96
//  #02 //004   ----------------------------------------
 BYTE   W96
//  #02 //005   ----------------------------------------
 BYTE   W96
//  #02 //006   ----------------------------------------
 BYTE   W96
//  #02 //007   ----------------------------------------
 BYTE   W72
 BYTE   N11  Gn3  v092
 BYTE   W12
 BYTE   Gs3
 BYTE   W11
Label_01018B8A:
 BYTE   W01
//  #02 //008   ----------------------------------------
Label_01018B8B:
 BYTE   TIE  As3  v092
 BYTE   W96
//  #02 //009   ----------------------------------------
 BYTE   W96
 BYTE   PEND 
//  #02 //010   ----------------------------------------
Label_01018B91:
 BYTE   W96
//  #02 //011   ----------------------------------------
 BYTE   W76
 BYTE   W01
 BYTE   PEND 
 BYTE   EOT
 BYTE   As3
 BYTE   W01
 BYTE   N06  Gs3  v092
 BYTE   W06
 BYTE   As3
 BYTE   W06
 BYTE   Gs3
 BYTE   W06
//  #02 //012   ----------------------------------------
Label_01018BA0:
 BYTE   TIE  Gn3  v092
 BYTE   W96
//  #02 //013   ----------------------------------------
 BYTE   W96
 BYTE   PEND 
//  #02 //014   ----------------------------------------
 BYTE   PATT
  POIN2 Label_01018B91
//  #02 //015   ----------------------------------------
 BYTE   EOT
 BYTE   Gn3
 BYTE   W01
 BYTE   N06  Fn3  v092
 BYTE   W06
 BYTE   Gn3
 BYTE   W06
 BYTE   Fn3
 BYTE   W06
Label_01018BB6:
 BYTE   TIE  Ds3  v092
 BYTE   W96
//  #02 //016   ----------------------------------------
 BYTE   W96
 BYTE   PEND 
//  #02 //017   ----------------------------------------
Label_01018BBC:
 BYTE   W96
//  #02 //018   ----------------------------------------
 BYTE   W92
 BYTE   W03
 BYTE   PEND 
 BYTE   EOT
 BYTE   Ds3
 BYTE   W01
//  #02 //019   ----------------------------------------
 BYTE   TIE  Dn3  v092
 BYTE   W96
//  #02 //020   ----------------------------------------
 BYTE   W92
 BYTE   W03
 BYTE   EOT
 BYTE   W01
//  #02 //021   ----------------------------------------
 BYTE   TIE  Fn3
 BYTE   W96
//  #02 //022   ----------------------------------------
 BYTE   W92
 BYTE   W03
 BYTE   EOT
 BYTE   W01
//  #02 //023   ----------------------------------------
 BYTE   PATT
  POIN2 Label_01018BB6
//  #02 //024   ----------------------------------------
 BYTE   PATT
  POIN2 Label_01018BBC
//  #02 //025   ----------------------------------------
 BYTE   EOT
 BYTE   Ds3
 BYTE   W01
 BYTE   W96
//  #02 //026   ----------------------------------------
 BYTE   W96
//  #02 //027   ----------------------------------------
 BYTE   W96
//  #02 //028   ----------------------------------------
 BYTE   W96
//  #02 //029   ----------------------------------------
 BYTE   PATT
  POIN2 Label_01018BA0
//  #02 //030   ----------------------------------------
Label_01018BE8:
 BYTE   W96
//  #02 //031   ----------------------------------------
 BYTE   W80
 BYTE   W03
 BYTE   PEND 
 BYTE   EOT
 BYTE   Gn3
 BYTE   W01
 BYTE   N06  Gn3  v092
 BYTE   W06
 BYTE   Gs3
 BYTE   W06
//  #02 //032   ----------------------------------------
 BYTE   PATT
  POIN2 Label_01018B8B
//  #02 //033   ----------------------------------------
 BYTE   PATT
  POIN2 Label_01018BE8
//  #02 //034   ----------------------------------------
 BYTE   EOT
 BYTE   As3
 BYTE   W01
 BYTE   N06  Cn4  v092
 BYTE   W06
 BYTE   Dn4
 BYTE   W06
 BYTE   TIE  Ds4
 BYTE   W96
//  #02 //035   ----------------------------------------
 BYTE   W96
//  #02 //036   ----------------------------------------
 BYTE   PATT
  POIN2 Label_01018BBC
//  #02 //037   ----------------------------------------
 BYTE   EOT
 BYTE   Ds4
 BYTE   W01
 BYTE   TIE  Dn4  v092
 BYTE   W96
//  #02 //038   ----------------------------------------
 BYTE   W76
 BYTE   W01
 BYTE   EOT
 BYTE   W01
 BYTE   N06  Cn4
 BYTE   W06
 BYTE   Dn4
 BYTE   W06
 BYTE   Cn4
 BYTE   W06
//  #02 //039   ----------------------------------------
 BYTE   TIE  As3
 BYTE   W96
//  #02 //040   ----------------------------------------
 BYTE   W76
 BYTE   W01
 BYTE   EOT
 BYTE   W01
 BYTE   N06  Gs3
 BYTE   W06
 BYTE   As3
 BYTE   W06
 BYTE   Gs3
 BYTE   W06
//  #02 //041   ----------------------------------------
 BYTE   PATT
  POIN2 Label_01018BA0
//  #02 //042   ----------------------------------------
 BYTE   BEND   c_v+0
 BYTE   W24
 BYTE   BEND   c_v-2
 BYTE   W12
 BYTE   BEND   c_v-4
 BYTE   W12
 BYTE   BEND   c_v-5
 BYTE   W12
 BYTE   BEND   c_v-7
 BYTE   W12
 BYTE   BEND   c_v-8
 BYTE   W12
 BYTE   BEND   c_v-11
 BYTE   W12
//  #02 //043   ----------------------------------------
 BYTE   BEND   c_v-13
 BYTE   W12
 BYTE   BEND   c_v-15
 BYTE   W12
 BYTE   BEND   c_v-18
 BYTE   W12
 BYTE   BEND   c_v-21
 BYTE   W12
 BYTE   BEND   c_v-23
 BYTE   W12
 BYTE   BEND   c_v-26
 BYTE   W12
 BYTE   BEND   c_v-30
 BYTE   W12
 BYTE   BEND   c_v-35
 BYTE   W12
//  #02 //044   ----------------------------------------
 BYTE   BEND   c_v-40
 BYTE   W12
 BYTE   BEND   c_v-46
 BYTE   W12
 BYTE   BEND   c_v-52
 BYTE   W12
 BYTE   BEND   c_v-59
 BYTE   W12
 BYTE   BEND   c_v-63
 BYTE   W44
 BYTE   W03
 BYTE   EOT
 BYTE   Gn3
 BYTE   W96
//  #02 //045   ----------------------------------------
 BYTE   W01
 BYTE   W96
//  #02 //046   ----------------------------------------
 BYTE   W72
 BYTE   BEND   c_v+0
 BYTE   N11  Gn3  v092
 BYTE   W12
 BYTE   Gs3
 BYTE   W11
 BYTE   GoTo
  POIN2 Label_01018B8A
 BYTE   FINE

//**************** Track 3 (Midi-Chn.2) ****************//

ChaosTheme_003:
//  #03 //000   ----------------------------------------
 BYTE   KEYSH   ChaosTheme_key+0
 BYTE   VOICE   41
 BYTE   VOL   32*ChaosTheme_mvl/mxv
 BYTE   BEND   c_v+1
 BYTE   W96
//  #03 //001   ----------------------------------------
 BYTE   W96
//  #03 //002   ----------------------------------------
 BYTE   W96
//  #03 //003   ----------------------------------------
 BYTE   W96
//  #03 //004   ----------------------------------------
 BYTE   W96
//  #03 //005   ----------------------------------------
 BYTE   W96
//  #03 //006   ----------------------------------------
 BYTE   W96
//  #03 //007   ----------------------------------------
 BYTE   W84
 BYTE   N11  Gn3  v080
 BYTE   W11
Label_01018CB0:
 BYTE   W01
//  #03 //008   ----------------------------------------
 BYTE   N11  Gs3  v080
 BYTE   W12
 BYTE   TIE  As3
 BYTE   W96
//  #03 //009   ----------------------------------------
 BYTE   W84
Label_01018CB9:
 BYTE   W96
//  #03 //010   ----------------------------------------
 BYTE   W88
 BYTE   W01
 BYTE   PEND 
 BYTE   EOT
 BYTE   As3
 BYTE   W01
 BYTE   N06  Gs3  v080
 BYTE   W06
//  #03 //011   ----------------------------------------
Label_01018CC4:
 BYTE   N06  As3  v080
 BYTE   W06
 BYTE   Gs3
 BYTE   W06
 BYTE   TIE  Gn3
 BYTE   W96
//  #03 //012   ----------------------------------------
 BYTE   W84
 BYTE   PEND 
//  #03 //013   ----------------------------------------
 BYTE   PATT
  POIN2 Label_01018CB9
//  #03 //014   ----------------------------------------
 BYTE   EOT
 BYTE   Gn3
 BYTE   W01
 BYTE   N06  Fn3  v080
 BYTE   W06
 BYTE   Gn3
 BYTE   W06
 BYTE   Fn3
 BYTE   W06
 BYTE   TIE  Ds3
 BYTE   W96
//  #03 //015   ----------------------------------------
 BYTE   W84
 BYTE   W96
//  #03 //016   ----------------------------------------
 BYTE   W96
//  #03 //017   ----------------------------------------
 BYTE   W11
 BYTE   EOT
 BYTE   W01
 BYTE   TIE  Dn3
 BYTE   W96
//  #03 //018   ----------------------------------------
 BYTE   W84
 BYTE   W11
 BYTE   EOT
 BYTE   W01
//  #03 //019   ----------------------------------------
 BYTE   TIE  Fn3
 BYTE   W96
//  #03 //020   ----------------------------------------
 BYTE   W84
 BYTE   W11
 BYTE   EOT
 BYTE   W01
//  #03 //021   ----------------------------------------
 BYTE   TIE  Ds3
 BYTE   W96
//  #03 //022   ----------------------------------------
 BYTE   W84
 BYTE   W96
//  #03 //023   ----------------------------------------
 BYTE   W96
//  #03 //024   ----------------------------------------
 BYTE   W11
 BYTE   EOT
 BYTE   W96
//  #03 //025   ----------------------------------------
 BYTE   W84
 BYTE   W01
 BYTE   W96
//  #03 //026   ----------------------------------------
 BYTE   W96
//  #03 //027   ----------------------------------------
 BYTE   W12
 BYTE   TIE  Gn3
 BYTE   W96
//  #03 //028   ----------------------------------------
 BYTE   W84
Label_01018D08:
 BYTE   W96
//  #03 //029   ----------------------------------------
 BYTE   W92
 BYTE   W03
 BYTE   PEND 
 BYTE   EOT
 BYTE   Gn3
 BYTE   W01
//  #03 //030   ----------------------------------------
 BYTE   N06  Gn3  v080
 BYTE   W06
 BYTE   Gs3
 BYTE   W06
 BYTE   TIE  As3
 BYTE   W96
//  #03 //031   ----------------------------------------
 BYTE   W84
//  #03 //032   ----------------------------------------
 BYTE   PATT
  POIN2 Label_01018D08
//  #03 //033   ----------------------------------------
 BYTE   EOT
 BYTE   As3
 BYTE   W01
 BYTE   N06  Cn4  v080
 BYTE   W06
 BYTE   Dn4
 BYTE   W06
 BYTE   TIE  Ds4
 BYTE   W96
//  #03 //034   ----------------------------------------
 BYTE   W84
 BYTE   W96
//  #03 //035   ----------------------------------------
 BYTE   W96
//  #03 //036   ----------------------------------------
 BYTE   W11
 BYTE   EOT
 BYTE   W01
 BYTE   TIE  Dn4
 BYTE   W96
//  #03 //037   ----------------------------------------
 BYTE   W76
 BYTE   W01
 BYTE   EOT
 BYTE   W01
 BYTE   N06  Cn4
 BYTE   W06
 BYTE   Dn4
 BYTE   W06
 BYTE   Cn4
 BYTE   W06
//  #03 //038   ----------------------------------------
 BYTE   TIE  As3
 BYTE   W96
//  #03 //039   ----------------------------------------
 BYTE   W76
 BYTE   W01
 BYTE   EOT
 BYTE   W01
 BYTE   N06  Gs3
 BYTE   W06
//  #03 //040   ----------------------------------------
 BYTE   PATT
  POIN2 Label_01018CC4
//  #03 //041   ----------------------------------------
 BYTE   W12
 BYTE   BEND   c_v+1
 BYTE   W24
 BYTE   BEND   c_v-1
 BYTE   W12
 BYTE   BEND   c_v-3
 BYTE   W12
 BYTE   BEND   c_v-4
 BYTE   W12
 BYTE   BEND   c_v-6
 BYTE   W12
 BYTE   BEND   c_v-7
 BYTE   W12
//  #03 //042   ----------------------------------------
 BYTE   BEND   c_v-10
 BYTE   W12
 BYTE   BEND   c_v-12
 BYTE   W12
 BYTE   BEND   c_v-14
 BYTE   W12
 BYTE   BEND   c_v-17
 BYTE   W12
 BYTE   BEND   c_v-20
 BYTE   W12
 BYTE   BEND   c_v-22
 BYTE   W12
 BYTE   BEND   c_v-25
 BYTE   W12
 BYTE   BEND   c_v-29
 BYTE   W12
//  #03 //043   ----------------------------------------
 BYTE   BEND   c_v-34
 BYTE   W12
 BYTE   BEND   c_v-39
 BYTE   W12
 BYTE   BEND   c_v-45
 BYTE   W12
 BYTE   BEND   c_v-51
 BYTE   W12
 BYTE   BEND   c_v-58
 BYTE   W12
 BYTE   BEND   c_v-62
 BYTE   W44
//  #03 //044   ----------------------------------------
 BYTE   W03
 BYTE   EOT
 BYTE   Gn3
 BYTE   W84
 BYTE   W01
 BYTE   W96
//  #03 //045   ----------------------------------------
 BYTE   W84
 BYTE   BEND   c_v+1
 BYTE   N11  Gn3  v080
 BYTE   W11
 BYTE   GoTo
  POIN2 Label_01018CB0
 BYTE   FINE

//******************************************************//
	ALIGN 4

ChaosTheme:
	BYTE	3	// NumTrks
	BYTE	0	// NumBlks
	BYTE	ChaosTheme_pri	// Priority
	BYTE	ChaosTheme_rev	// Reverb.
    
	POIN2	ChaosTheme_grp
    
	POIN2	ChaosTheme_001
	POIN2	ChaosTheme_002
	POIN2	ChaosTheme_003

	
