//Event file generated from Sappy .s format.
	#include "MPlayDef.event"

	#define	ClaretHollows_grp  voicegroup000
	#define	ClaretHollows_pri  0
	#define	ClaretHollows_rev  0
	#define	ClaretHollows_mvl  127
	#define	ClaretHollows_key  0
	#define	ClaretHollows_tbs  1
	#define	ClaretHollows_exg  0
	#define	ClaretHollows_cmp  1

	// .rodata
	//	ClaretHollows
	ALIGN 4


//**************** Track 1 (Midi-Chn.0) ****************//

ClaretHollows_001:
//  #01 //000   ----------------------------------------
 BYTE   KEYSH   ClaretHollows_key+0
Label_0179247E:
 BYTE   TEMPO   88*ClaretHollows_tbs/2
 BYTE   VOICE   36
 BYTE   VOL   42*ClaretHollows_mvl/mxv
 BYTE   PAN   c_v+20
 BYTE   W96
//  #01 //001   ----------------------------------------
 BYTE   W96
//  #01 //002   ----------------------------------------
 BYTE   W96
//  #01 //003   ----------------------------------------
 BYTE   W96
//  #01 //004   ----------------------------------------
 BYTE   W96
//  #01 //005   ----------------------------------------
 BYTE   W48
 BYTE   TIE  Bn3  v064
 BYTE   TIE  Fs4
 BYTE   W48
//  #01 //006   ----------------------------------------
 BYTE   W48
 BYTE   W02
 BYTE   BEND   c_v-1
 BYTE   W02
 BYTE   BEND   c_v-2
 BYTE   W02
 BYTE   BEND   c_v-4
 BYTE   W05
 BYTE   BEND   c_v-6
 BYTE   W01
 BYTE   BEND   c_v-7
 BYTE   W03
 BYTE   BEND   c_v-9
 BYTE   W08
 BYTE   BEND   c_v-10
 BYTE   W01
 BYTE   BEND   c_v-12
 BYTE   W13
 BYTE   BEND   c_v-13
 BYTE   W03
 BYTE   BEND   c_v-15
 BYTE   W05
 BYTE   BEND   c_v-17
 BYTE   W02
 BYTE   BEND   c_v-18
 BYTE   W01
//  #01 //007   ----------------------------------------
 BYTE   W01
 BYTE   BEND   c_v-20
 BYTE   W04
 BYTE   BEND   c_v-21
 BYTE   W03
 BYTE   BEND   c_v-23
 BYTE   W05
 BYTE   BEND   c_v-25
 BYTE   W04
 BYTE   BEND   c_v-26
 BYTE   W03
 BYTE   BEND   c_v-28
 BYTE   W02
 BYTE   BEND   c_v-29
 BYTE   W01
 BYTE   EOT
 BYTE   Bn3  v078
 BYTE   BEND   c_v-31
 BYTE   W04
 BYTE   BEND   c_v-32
 BYTE   W02
 BYTE   BEND   c_v-34
 BYTE   W02
 BYTE   BEND   c_v-36
 BYTE   W02
 BYTE   BEND   c_v-37
 BYTE   W03
 BYTE   BEND   c_v-39
 BYTE   W02
 BYTE   BEND   c_v-40
 BYTE   W06
 BYTE   BEND   c_v-42
 BYTE   W01
 BYTE   BEND   c_v-44
 BYTE   W04
 BYTE   BEND   c_v-45
 BYTE   W03
 BYTE   BEND   c_v-47
 BYTE   W02
 BYTE   BEND   c_v-48
 BYTE   W04
 BYTE   BEND   c_v-50
 BYTE   W02
 BYTE   BEND   c_v-52
 BYTE   W02
 BYTE   BEND   c_v-53
 BYTE   W04
 BYTE   BEND   c_v-55
 BYTE   W01
 BYTE   BEND   c_v-56
 BYTE   W01
 BYTE   BEND   c_v-58
 BYTE   W01
 BYTE   BEND   c_v-59
 BYTE   W03
 BYTE   BEND   c_v-61
 BYTE   W01
 BYTE   BEND   c_v-63
 BYTE   W02
 BYTE   BEND   c_v-64
 BYTE   W21
//  #01 //008   ----------------------------------------
 BYTE   W02
 BYTE   BEND   c_v-45
 BYTE   W01
 BYTE   BEND   c_v-14
 BYTE   W01
 BYTE   BEND   c_v+0
 BYTE   W92
//  #01 //009   ----------------------------------------
 BYTE   W96
//  #01 //010   ----------------------------------------
 BYTE   W96
//  #01 //011   ----------------------------------------
 BYTE   W96
//  #01 //012   ----------------------------------------
 BYTE   W96
//  #01 //013   ----------------------------------------
 BYTE   W96
//  #01 //014   ----------------------------------------
 BYTE   W96
//  #01 //015   ----------------------------------------
 BYTE   W96
//  #01 //016   ----------------------------------------
 BYTE   W96
//  #01 //017   ----------------------------------------
 BYTE   W96
//  #01 //018   ----------------------------------------
 BYTE   W96
//  #01 //019   ----------------------------------------
 BYTE   W96
//  #01 //020   ----------------------------------------
 BYTE   W96
//  #01 //021   ----------------------------------------
 BYTE   W96
//  #01 //022   ----------------------------------------
 BYTE   W96
//  #01 //023   ----------------------------------------
 BYTE   W96
//  #01 //024   ----------------------------------------
 BYTE   W96
//  #01 //025   ----------------------------------------
 BYTE   W96
//  #01 //026   ----------------------------------------
 BYTE   W96
//  #01 //027   ----------------------------------------
 BYTE   W96
//  #01 //028   ----------------------------------------
 BYTE   W96
//  #01 //029   ----------------------------------------
 BYTE   W96
//  #01 //030   ----------------------------------------
 BYTE   W96
//  #01 //031   ----------------------------------------
 BYTE   W96
//  #01 //032   ----------------------------------------
 BYTE   W96
//  #01 //033   ----------------------------------------
 BYTE   W96
//  #01 //034   ----------------------------------------
 BYTE   W96
//  #01 //035   ----------------------------------------
 BYTE   W96
//  #01 //036   ----------------------------------------
 BYTE   W96
//  #01 //037   ----------------------------------------
 BYTE   W96
//  #01 //038   ----------------------------------------
 BYTE   W96
//  #01 //039   ----------------------------------------
 BYTE   W96
//  #01 //040   ----------------------------------------
 BYTE   W96
//  #01 //041   ----------------------------------------
 BYTE   GoTo
  POIN2 Label_0179247E
 BYTE   FINE

//**************** Track 2 (Midi-Chn.1) ****************//

ClaretHollows_002:
//  #02 //000   ----------------------------------------
 BYTE   KEYSH   ClaretHollows_key+0
Label_01792682:
 BYTE   VOICE   1
 BYTE   VOL   52*ClaretHollows_mvl/mxv
 BYTE   PAN   c_v+0
 BYTE   W96
//  #02 //001   ----------------------------------------
 BYTE   W96
//  #02 //002   ----------------------------------------
 BYTE   W96
//  #02 //003   ----------------------------------------
 BYTE   W96
//  #02 //004   ----------------------------------------
 BYTE   W96
//  #02 //005   ----------------------------------------
 BYTE   W96
//  #02 //006   ----------------------------------------
 BYTE   W96
//  #02 //007   ----------------------------------------
 BYTE   W96
//  #02 //008   ----------------------------------------
 BYTE   W96
//  #02 //009   ----------------------------------------
 BYTE   W96
//  #02 //010   ----------------------------------------
 BYTE   W96
//  #02 //011   ----------------------------------------
 BYTE   W96
//  #02 //012   ----------------------------------------
 BYTE   W96
//  #02 //013   ----------------------------------------
 BYTE   W96
//  #02 //014   ----------------------------------------
 BYTE   TIE  BnM1  v080
 BYTE   W96
//  #02 //015   ----------------------------------------
 BYTE   W92
 BYTE   W03
 BYTE   EOT
 BYTE   W01
//  #02 //016   ----------------------------------------
 BYTE   TIE
 BYTE   W96
//  #02 //017   ----------------------------------------
 BYTE   W92
 BYTE   W03
 BYTE   EOT
 BYTE   W01
//  #02 //018   ----------------------------------------
 BYTE   N92
 BYTE   W96
//  #02 //019   ----------------------------------------
 BYTE   N92
 BYTE   W96
//  #02 //020   ----------------------------------------
 BYTE   N11  BnM1  v104
 BYTE   W24
 BYTE   N11
 BYTE   W72
//  #02 //021   ----------------------------------------
 BYTE   W96
//  #02 //022   ----------------------------------------
 BYTE   W96
//  #02 //023   ----------------------------------------
 BYTE   W96
//  #02 //024   ----------------------------------------
 BYTE   W96
//  #02 //025   ----------------------------------------
 BYTE   W96
//  #02 //026   ----------------------------------------
 BYTE   W96
//  #02 //027   ----------------------------------------
 BYTE   W96
//  #02 //028   ----------------------------------------
 BYTE   W96
//  #02 //029   ----------------------------------------
 BYTE   W96
//  #02 //030   ----------------------------------------
 BYTE   W96
//  #02 //031   ----------------------------------------
 BYTE   W96
//  #02 //032   ----------------------------------------
 BYTE   W96
//  #02 //033   ----------------------------------------
 BYTE   W96
//  #02 //034   ----------------------------------------
 BYTE   W96
//  #02 //035   ----------------------------------------
 BYTE   W96
//  #02 //036   ----------------------------------------
 BYTE   W96
//  #02 //037   ----------------------------------------
 BYTE   W96
//  #02 //038   ----------------------------------------
 BYTE   W96
//  #02 //039   ----------------------------------------
 BYTE   W96
//  #02 //040   ----------------------------------------
 BYTE   W96
//  #02 //041   ----------------------------------------
 BYTE   GoTo
  POIN2 Label_01792682
 BYTE   FINE

//**************** Track 3 (Midi-Chn.2) ****************//

ClaretHollows_003:
//  #03 //000   ----------------------------------------
 BYTE   KEYSH   ClaretHollows_key+0
Label_0179214E:
 BYTE   VOICE   30
 BYTE   VOL   52*ClaretHollows_mvl/mxv
 BYTE   PAN   c_v+20
 BYTE   W36
 BYTE   N07  En1  v104
 BYTE   W12
 BYTE   TIE
 BYTE   W48
//  #03 //001   ----------------------------------------
 BYTE   W92
 BYTE   W03
 BYTE   EOT
 BYTE   W01
//  #03 //002   ----------------------------------------
 BYTE   W96
//  #03 //003   ----------------------------------------
 BYTE   W96
//  #03 //004   ----------------------------------------
 BYTE   W36
 BYTE   N07  En1  v108
 BYTE   W12
 BYTE   TIE  En1  v116
 BYTE   W48
//  #03 //005   ----------------------------------------
 BYTE   W92
 BYTE   W03
 BYTE   EOT
 BYTE   W01
//  #03 //006   ----------------------------------------
 BYTE   W96
//  #03 //007   ----------------------------------------
 BYTE   W96
//  #03 //008   ----------------------------------------
 BYTE   W96
//  #03 //009   ----------------------------------------
 BYTE   W96
//  #03 //010   ----------------------------------------
 BYTE   W96
//  #03 //011   ----------------------------------------
 BYTE   W96
//  #03 //012   ----------------------------------------
 BYTE   W96
//  #03 //013   ----------------------------------------
 BYTE   W96
//  #03 //014   ----------------------------------------
 BYTE   W96
//  #03 //015   ----------------------------------------
 BYTE   W96
//  #03 //016   ----------------------------------------
 BYTE   W96
//  #03 //017   ----------------------------------------
 BYTE   W96
//  #03 //018   ----------------------------------------
 BYTE   W96
//  #03 //019   ----------------------------------------
 BYTE   W96
//  #03 //020   ----------------------------------------
 BYTE   W96
//  #03 //021   ----------------------------------------
 BYTE   W96
//  #03 //022   ----------------------------------------
 BYTE   W96
//  #03 //023   ----------------------------------------
 BYTE   W96
//  #03 //024   ----------------------------------------
 BYTE   W96
//  #03 //025   ----------------------------------------
 BYTE   W96
//  #03 //026   ----------------------------------------
 BYTE   W96
//  #03 //027   ----------------------------------------
 BYTE   W96
//  #03 //028   ----------------------------------------
 BYTE   W96
//  #03 //029   ----------------------------------------
 BYTE   W96
//  #03 //030   ----------------------------------------
 BYTE   W96
//  #03 //031   ----------------------------------------
 BYTE   W96
//  #03 //032   ----------------------------------------
 BYTE   W96
//  #03 //033   ----------------------------------------
 BYTE   W96
//  #03 //034   ----------------------------------------
 BYTE   W96
//  #03 //035   ----------------------------------------
 BYTE   W96
//  #03 //036   ----------------------------------------
 BYTE   W96
//  #03 //037   ----------------------------------------
 BYTE   W96
//  #03 //038   ----------------------------------------
 BYTE   W96
//  #03 //039   ----------------------------------------
 BYTE   W96
//  #03 //040   ----------------------------------------
 BYTE   W96
//  #03 //041   ----------------------------------------
 BYTE   GoTo
  POIN2 Label_0179214E
 BYTE   FINE

//**************** Track 4 (Midi-Chn.3) ****************//

ClaretHollows_004:
//  #04 //000   ----------------------------------------
 BYTE   KEYSH   ClaretHollows_key+0
Label_015DE4F2:
 BYTE   VOICE   28
 BYTE   VOL   49*ClaretHollows_mvl/mxv
 BYTE   PAN   c_v+0
 BYTE   N88  En2  v068
 BYTE   W02
 BYTE   Cn2
 BYTE   W02
 BYTE   Bn1
 BYTE   W02
 BYTE   TIE  En1
 BYTE   W90
//  #04 //001   ----------------------------------------
 BYTE   W92
 BYTE   W03
 BYTE   EOT
 BYTE   W01
//  #04 //002   ----------------------------------------
 BYTE   W96
//  #04 //003   ----------------------------------------
 BYTE   W96
//  #04 //004   ----------------------------------------
 BYTE   N88  En2  v084
 BYTE   W02
 BYTE   Cn2
 BYTE   W02
 BYTE   Bn1
 BYTE   W02
 BYTE   TIE  En1
 BYTE   W90
//  #04 //005   ----------------------------------------
 BYTE   W92
 BYTE   W03
 BYTE   EOT
 BYTE   W01
//  #04 //006   ----------------------------------------
 BYTE   W96
//  #04 //007   ----------------------------------------
 BYTE   W96
//  #04 //008   ----------------------------------------
 BYTE   W96
//  #04 //009   ----------------------------------------
 BYTE   W96
//  #04 //010   ----------------------------------------
 BYTE   W96
//  #04 //011   ----------------------------------------
 BYTE   W96
//  #04 //012   ----------------------------------------
 BYTE   W96
//  #04 //013   ----------------------------------------
 BYTE   W96
//  #04 //014   ----------------------------------------
 BYTE   W96
//  #04 //015   ----------------------------------------
 BYTE   W96
//  #04 //016   ----------------------------------------
 BYTE   W96
//  #04 //017   ----------------------------------------
 BYTE   W96
//  #04 //018   ----------------------------------------
 BYTE   W96
//  #04 //019   ----------------------------------------
 BYTE   W96
//  #04 //020   ----------------------------------------
 BYTE   W96
//  #04 //021   ----------------------------------------
 BYTE   W96
//  #04 //022   ----------------------------------------
 BYTE   W96
//  #04 //023   ----------------------------------------
 BYTE   N11  Bn2  v056
 BYTE   W05
 BYTE   Fn2  v052
 BYTE   W06
 BYTE   Fn3
 BYTE   W07
 BYTE   Fn2
 BYTE   W06
 BYTE   Bn2  v056
 BYTE   W05
 BYTE   Fn2  v052
 BYTE   W07
 BYTE   Fn3
 BYTE   W06
 BYTE   Fn2
 BYTE   W05
 BYTE   Bn2  v056
 BYTE   W06
 BYTE   Fn2  v052
 BYTE   W07
 BYTE   Fn3
 BYTE   W06
 BYTE   Fn2
 BYTE   W06
 BYTE   Bn2  v056
 BYTE   W06
 BYTE   Fn2  v052
 BYTE   W06
 BYTE   Fn3
 BYTE   W05
 BYTE   Fn2
 BYTE   W06
 BYTE   Bn2  v056
 BYTE   W01
//  #04 //024   ----------------------------------------
 BYTE   W06
 BYTE   Fn2  v052
 BYTE   W05
 BYTE   Fn3
 BYTE   W07
 BYTE   Fn2
 BYTE   W06
 BYTE   Bn2  v056
 BYTE   W05
 BYTE   Fn2  v052
 BYTE   W06
 BYTE   Fn3
 BYTE   W07
 BYTE   Fn2
 BYTE   W06
 BYTE   Bn2  v056
 BYTE   W06
 BYTE   Fn2  v052
 BYTE   W05
 BYTE   Fn3
 BYTE   W07
 BYTE   Fn2
 BYTE   W05
 BYTE   Bn2  v056
 BYTE   W07
 BYTE   Fn2  v052
 BYTE   W05
 BYTE   Fn3
 BYTE   W06
 BYTE   Fn2
 BYTE   W06
 BYTE   Bn2  v056
 BYTE   W01
//  #04 //025   ----------------------------------------
 BYTE   W06
 BYTE   Fn2  v052
 BYTE   W05
 BYTE   Fn3
 BYTE   W07
 BYTE   Fn2
 BYTE   W06
 BYTE   Bn2  v056
 BYTE   W05
 BYTE   Fn2  v052
 BYTE   W07
 BYTE   Fn3
 BYTE   W06
 BYTE   Fn2
 BYTE   W05
 BYTE   Bn2  v056
 BYTE   W07
 BYTE   Fn2  v052
 BYTE   W06
 BYTE   Fn3
 BYTE   W05
 BYTE   Fn2
 BYTE   W07
 BYTE   Bn2  v056
 BYTE   W06
 BYTE   Fn2  v052
 BYTE   W05
 BYTE   Fn3
 BYTE   W07
 BYTE   Fn2
 BYTE   W05
 BYTE   Bn2  v056
 BYTE   W01
//  #04 //026   ----------------------------------------
 BYTE   W06
 BYTE   Fn2  v052
 BYTE   W06
 BYTE   Fn3
 BYTE   W06
 BYTE   Fn2
 BYTE   W05
 BYTE   Bn2  v056
 BYTE   W07
 BYTE   Fn2  v052
 BYTE   W05
 BYTE   Fn3
 BYTE   W06
 BYTE   Fn2
 BYTE   W07
 BYTE   Bn2  v056
 BYTE   W05
 BYTE   Fn2  v052
 BYTE   W07
 BYTE   Fn3
 BYTE   W05
 BYTE   Fn2
 BYTE   W06
 BYTE   Bn2  v056
 BYTE   W06
 BYTE   Fn2  v052
 BYTE   W07
 BYTE   Fn3
 BYTE   W06
 BYTE   Fn2
 BYTE   W06
//  #04 //027   ----------------------------------------
 BYTE   As2  v056
 BYTE   W06
 BYTE   Fn2  v052
 BYTE   W06
 BYTE   Fn3
 BYTE   W05
 BYTE   Fn2
 BYTE   W06
 BYTE   As2  v056
 BYTE   W06
 BYTE   Fn2  v052
 BYTE   W06
 BYTE   Fn3
 BYTE   W07
 BYTE   Fn2
 BYTE   W06
 BYTE   As2  v056
 BYTE   W05
 BYTE   Fn2  v052
 BYTE   W06
 BYTE   Fn3
 BYTE   W07
 BYTE   Fn2
 BYTE   W05
 BYTE   As2  v056
 BYTE   W06
 BYTE   Fn2  v052
 BYTE   W06
 BYTE   Fn3
 BYTE   W07
 BYTE   Fn2
 BYTE   W06
//  #04 //028   ----------------------------------------
 BYTE   As2  v056
 BYTE   W06
 BYTE   Fn2  v052
 BYTE   W05
 BYTE   Fn3
 BYTE   W06
 BYTE   Fn2
 BYTE   W06
 BYTE   As2  v056
 BYTE   W07
 BYTE   En2  v052
 BYTE   W05
 BYTE   Fn3
 BYTE   W06
 BYTE   En2
 BYTE   W06
 BYTE   As2  v056
 BYTE   W07
 BYTE   En2  v052
 BYTE   W06
 BYTE   Fn3
 BYTE   W06
 BYTE   En2
 BYTE   W05
 BYTE   As2  v056
 BYTE   W07
 BYTE   En2  v052
 BYTE   W06
 BYTE   Fn3
 BYTE   W06
 BYTE   En2
 BYTE   W06
//  #04 //029   ----------------------------------------
 BYTE   As2  v056
 BYTE   W05
 BYTE   Fn2  v052
 BYTE   W06
 BYTE   Fn3
 BYTE   W06
 BYTE   Fn2
 BYTE   W07
 BYTE   As2  v056
 BYTE   W05
 BYTE   Fn2  v052
 BYTE   W07
 BYTE   Fn3
 BYTE   W05
 BYTE   Fn2
 BYTE   W07
 BYTE   As2  v056
 BYTE   W05
 BYTE   Fn2  v052
 BYTE   W06
 BYTE   Fn3
 BYTE   W07
 BYTE   Fn2
 BYTE   W05
 BYTE   As2  v056
 BYTE   W07
 BYTE   Fn2  v052
 BYTE   W05
 BYTE   Fn3
 BYTE   W06
 BYTE   Fn2
 BYTE   W07
//  #04 //030   ----------------------------------------
 BYTE   As2  v056
 BYTE   W05
 BYTE   Fn2  v052
 BYTE   W06
 BYTE   Fn3
 BYTE   W07
 BYTE   Fn2
 BYTE   W06
 BYTE   As2  v056
 BYTE   W05
 BYTE   En2  v052
 BYTE   W07
 BYTE   En3
 BYTE   W06
 BYTE   En2
 BYTE   W06
 BYTE   Bn2  v056
 BYTE   W06
 BYTE   Fn2  v052
 BYTE   W06
 BYTE   Fn3
 BYTE   W06
 BYTE   Fn2
 BYTE   W06
 BYTE   Cn3  v056
 BYTE   W06
 BYTE   Fs2  v052
 BYTE   W05
 BYTE   Fs3
 BYTE   W06
 BYTE   Fs2
 BYTE   W06
 BYTE   N03  Cs4  v068
 BYTE   W01
//  #04 //031   ----------------------------------------
 BYTE   Gn3
 BYTE   N03  Cn4
 BYTE   W11
 BYTE   Gn3  v064
 BYTE   N03  Cn4  v056
 BYTE   W01
 BYTE   Cs4  v064
 BYTE   W12
 BYTE   Gn3  v016
 BYTE   N03  Cn4
 BYTE   N03  Cs4
 BYTE   W11
 BYTE   N02  Cn4  v068
 BYTE   N03  Cs4
 BYTE   W01
 BYTE   N02  Gn3  v052
 BYTE   W11
 BYTE   N03  Gn3  v068
 BYTE   N04  Cn4
 BYTE   W01
 BYTE   Cs4
 BYTE   W12
 BYTE   N03  Gn3  v016
 BYTE   N03  Cn4
 BYTE   N03  Cs4
 BYTE   W12
 BYTE   N02  Gn3  v056
 BYTE   N02  Cn4  v060
 BYTE   N03  Cs4
 BYTE   W11
 BYTE   Gn3
 BYTE   N03  Cn4  v064
 BYTE   W01
 BYTE   N04  Cs4  v060
 BYTE   W12
//  #04 //032   ----------------------------------------
 BYTE   N03  Gn3  v016
 BYTE   N03  Cn4
 BYTE   N03  Cs4
 BYTE   W12
 BYTE   Gn3  v068
 BYTE   N02  Cn4  v080
 BYTE   N03  Cs4  v072
 BYTE   W12
 BYTE   Gn3  v016
 BYTE   N03  Cn4
 BYTE   N03  Cs4
 BYTE   W72
//  #04 //033   ----------------------------------------
 BYTE   N04  Fs3  v068
 BYTE   N03  Cn4  v048
 BYTE   N04  Cs4  v052
 BYTE   W12
 BYTE   Fs3  v076
 BYTE   N04  Cn4  v052
 BYTE   N04  Cs4  v064
 BYTE   W12
 BYTE   Fs3  v016
 BYTE   N04  Cn4
 BYTE   N04  Cs4
 BYTE   W12
 BYTE   Fs3  v068
 BYTE   N02  Cn4  v036
 BYTE   N04  Cs4  v056
 BYTE   W12
 BYTE   Fs3  v084
 BYTE   N03  Cn4  v060
 BYTE   N04  Cs4  v072
 BYTE   W12
 BYTE   Fs3  v016
 BYTE   N04  Cn4
 BYTE   N04  Cs4
 BYTE   W12
 BYTE   N03  Fs3  v076
 BYTE   N02  Cn4  v048
 BYTE   N03  Cs4  v072
 BYTE   W12
 BYTE   N04  Fs3
 BYTE   N03  Cn4  v048
 BYTE   N03  Cs4  v064
 BYTE   W12
//  #04 //034   ----------------------------------------
 BYTE   N04  Fs3  v016
 BYTE   N04  Cn4
 BYTE   N04  Cs4
 BYTE   W12
 BYTE   Fs3  v072
 BYTE   N02  Cn4  v040
 BYTE   N04  Cs4  v068
 BYTE   W12
 BYTE   Fs3  v016
 BYTE   N04  Cn4
 BYTE   N04  Cs4
 BYTE   W72
//  #04 //035   ----------------------------------------
 BYTE   As3  v076
 BYTE   N06  Cs4  v080
 BYTE   N04  En4  v064
 BYTE   W12
 BYTE   N06  As3  v052
 BYTE   N05  Cs4  v064
 BYTE   N06  En4  v060
 BYTE   W12
 BYTE   As3  v020
 BYTE   N05  Cs4
 BYTE   N06  En4
 BYTE   W12
 BYTE   N05  As3  v064
 BYTE   N04  Cs4  v080
 BYTE   N05  En4  v056
 BYTE   W12
 BYTE   As3
 BYTE   N05  Cs4  v076
 BYTE   N05  En4  v064
 BYTE   W12
 BYTE   N06  As3  v020
 BYTE   N05  Cs4
 BYTE   N06  En4
 BYTE   W12
 BYTE   N05  As3  v068
 BYTE   N05  Cs4  v076
 BYTE   N04  En4  v056
 BYTE   W12
 BYTE   N05  As3  v048
 BYTE   N04  Cs4  v064
 BYTE   N05  En4  v048
 BYTE   W12
//  #04 //036   ----------------------------------------
 BYTE   N06  As3  v020
 BYTE   N05  Cs4
 BYTE   N06  En4
 BYTE   W12
 BYTE   N04  As3  v056
 BYTE   N04  Cs4  v076
 BYTE   N04  En4  v064
 BYTE   W12
 BYTE   N06  As3  v020
 BYTE   N05  Cs4
 BYTE   N06  En4
 BYTE   W72
//  #04 //037   ----------------------------------------
 BYTE   N17  Fn3  v052
 BYTE   W06
 BYTE   N06  Cn3
 BYTE   W06
 BYTE   N17  Gn2
 BYTE   W06
 BYTE   N06  Cn3
 BYTE   W06
 BYTE   N17  Fn3
 BYTE   W06
 BYTE   N07  Cn3
 BYTE   W06
 BYTE   N17  Gn2
 BYTE   W06
 BYTE   N06  Cn3
 BYTE   W06
 BYTE   N17  Fn3
 BYTE   W06
 BYTE   N05  Cn3
 BYTE   W06
 BYTE   N19  Gn2
 BYTE   W06
 BYTE   N06  Cn3
 BYTE   W06
 BYTE   N17  Fn3
 BYTE   W06
 BYTE   N05  Cn3
 BYTE   W06
 BYTE   N19  Gn2
 BYTE   W06
 BYTE   N06  Cn3
 BYTE   W06
//  #04 //038   ----------------------------------------
 BYTE   N18  Fn3
 BYTE   W06
 BYTE   N06  Cn3
 BYTE   W06
 BYTE   N18  Gn2
 BYTE   W06
 BYTE   N05  Cn3
 BYTE   W06
 BYTE   N15  Fn3
 BYTE   W06
 BYTE   N06  Cn3
 BYTE   W06
 BYTE   N54  Gn2
 BYTE   W06
 BYTE   N48  Cn3
 BYTE   W06
 BYTE   N42  Fn3
 BYTE   W48
//  #04 //039   ----------------------------------------
 BYTE   N17  Gn3
 BYTE   W06
 BYTE   N06  Dn3
 BYTE   W06
 BYTE   N17  An2
 BYTE   W06
 BYTE   N06  Dn3
 BYTE   W06
 BYTE   N17  Gn3
 BYTE   W06
 BYTE   N07  Dn3
 BYTE   W06
 BYTE   N17  An2
 BYTE   W06
 BYTE   N06  Dn3
 BYTE   W06
 BYTE   N17  Gn3
 BYTE   W06
 BYTE   N05  Dn3
 BYTE   W06
 BYTE   N19  An2
 BYTE   W06
 BYTE   N06  Dn3
 BYTE   W06
 BYTE   N17  Gn3
 BYTE   W06
 BYTE   N05  Dn3
 BYTE   W06
 BYTE   N19  An2
 BYTE   W06
 BYTE   N06  Dn3
 BYTE   W06
//  #04 //040   ----------------------------------------
 BYTE   N18  Gn3
 BYTE   W06
 BYTE   N06  Dn3
 BYTE   W06
 BYTE   N18  An2
 BYTE   W06
 BYTE   N05  Dn3
 BYTE   W06
 BYTE   N15  Gn3
 BYTE   W06
 BYTE   N06  Dn3
 BYTE   W06
 BYTE   N54  An2
 BYTE   W06
 BYTE   N48  Dn3
 BYTE   W06
 BYTE   N42  Gn3
 BYTE   W48
//  #04 //041   ----------------------------------------
 BYTE   GoTo
  POIN2 Label_015DE4F2
 BYTE   FINE

//**************** Track 5 (Midi-Chn.4) ****************//

ClaretHollows_005:
//  #05 //000   ----------------------------------------
 BYTE   KEYSH   ClaretHollows_key+0
Label_015DE83A:
 BYTE   VOICE   10
 BYTE   VOL   46*ClaretHollows_mvl/mxv
 BYTE   PAN   c_v+0
 BYTE   N23  En0  v048
 BYTE   W12
 BYTE   Bn0
 BYTE   W12
 BYTE   Gn0
 BYTE   W12
 BYTE   Dn1
 BYTE   W12
 BYTE   An0
 BYTE   W12
 BYTE   Bn0
 BYTE   W12
 BYTE   Dn0  v052
 BYTE   W12
 BYTE   Gn0
 BYTE   W12
//  #05 //001   ----------------------------------------
 BYTE   En0
 BYTE   W12
 BYTE   Bn0
 BYTE   W12
 BYTE   Gn0
 BYTE   W12
 BYTE   Dn1
 BYTE   W12
 BYTE   An0
 BYTE   W12
 BYTE   Bn0  v056
 BYTE   W12
 BYTE   Dn0
 BYTE   W12
 BYTE   Gn0
 BYTE   W12
//  #05 //002   ----------------------------------------
 BYTE   En0
 BYTE   W12
 BYTE   Bn0  v060
 BYTE   W12
 BYTE   Gn0
 BYTE   W12
 BYTE   Dn1
 BYTE   W12
 BYTE   An0
 BYTE   W12
 BYTE   Bn0  v064
 BYTE   W12
 BYTE   Dn0
 BYTE   W12
 BYTE   Gn0  v068
 BYTE   W12
//  #05 //003   ----------------------------------------
 BYTE   En0
 BYTE   W12
 BYTE   Bn0
 BYTE   W12
 BYTE   Gn0  v072
 BYTE   W12
 BYTE   Dn1
 BYTE   W12
 BYTE   An0  v076
 BYTE   W12
 BYTE   Bn0
 BYTE   W12
 BYTE   Dn0  v080
 BYTE   W12
 BYTE   Gn0
 BYTE   W12
//  #05 //004   ----------------------------------------
Label_015DE88A:
 BYTE   N23  En0  v080
 BYTE   W12
 BYTE   Bn0
 BYTE   W12
 BYTE   Gn0
 BYTE   W12
 BYTE   Dn1
 BYTE   W12
 BYTE   An0
 BYTE   W12
 BYTE   Bn0
 BYTE   W12
 BYTE   Dn0
 BYTE   W12
 BYTE   Gn0
 BYTE   W12
 BYTE   PEND 
//  #05 //005   ----------------------------------------
 BYTE   PATT
  POIN2 Label_015DE88A
//  #05 //006   ----------------------------------------
 BYTE   PATT
  POIN2 Label_015DE88A
//  #05 //007   ----------------------------------------
 BYTE   PATT
  POIN2 Label_015DE88A
//  #05 //008   ----------------------------------------
 BYTE   PATT
  POIN2 Label_015DE88A
//  #05 //009   ----------------------------------------
 BYTE   PATT
  POIN2 Label_015DE88A
//  #05 //010   ----------------------------------------
 BYTE   N68  En0  v092
 BYTE   W12
 BYTE   Bn0
 BYTE   W12
 BYTE   Fs1
 BYTE   W12
 BYTE   Gn0
 BYTE   W12
 BYTE   N44  Dn1
 BYTE   W12
 BYTE   An1
 BYTE   W36
//  #05 //011   ----------------------------------------
 BYTE   N68  EnM1  v088
 BYTE   N32  Dn1  v036
 BYTE   W12
 BYTE   N68  BnM1  v088
 BYTE   N32  An1  v036
 BYTE   W12
 BYTE   N68  Fs0  v088
 BYTE   W12
 BYTE   N56  GnM1
 BYTE   N32  Dn1  v020
 BYTE   W12
 BYTE   N44  Dn0  v088
 BYTE   N52  An1  v020
 BYTE   W12
 BYTE   N32  An0  v088
 BYTE   W36
//  #05 //012   ----------------------------------------
 BYTE   N68  En0  v072
 BYTE   W12
 BYTE   Bn0
 BYTE   W12
 BYTE   Fs1
 BYTE   W12
 BYTE   Gn0
 BYTE   W12
 BYTE   N44  Dn1
 BYTE   W12
 BYTE   An1
 BYTE   W36
//  #05 //013   ----------------------------------------
 BYTE   N68  EnM1  v068
 BYTE   N32  Dn1  v036
 BYTE   W12
 BYTE   N68  BnM1  v068
 BYTE   N32  An1  v036
 BYTE   W12
 BYTE   N68  Fs0  v068
 BYTE   W12
 BYTE   N56  GnM1
 BYTE   N32  Dn1  v020
 BYTE   W12
 BYTE   N44  Dn0  v068
 BYTE   N44  An1  v020
 BYTE   W12
 BYTE   N32  An0  v068
 BYTE   W36
//  #05 //014   ----------------------------------------
 BYTE   W96
//  #05 //015   ----------------------------------------
 BYTE   W96
//  #05 //016   ----------------------------------------
 BYTE   W96
//  #05 //017   ----------------------------------------
 BYTE   W96
//  #05 //018   ----------------------------------------
 BYTE   W96
//  #05 //019   ----------------------------------------
 BYTE   W96
//  #05 //020   ----------------------------------------
 BYTE   W48
 BYTE   N03  Fn0  v084
 BYTE   W04
 BYTE   As0
 BYTE   W04
 BYTE   Bn0
 BYTE   W04
 BYTE   Fn0  v028
 BYTE   N03  Ds1  v084
 BYTE   W04
 BYTE   As0  v028
 BYTE   N03  Fn1  v084
 BYTE   W04
 BYTE   Bn0  v028
 BYTE   N03  Fs1  v084
 BYTE   W04
 BYTE   Ds1  v028
 BYTE   N03  Fn1  v084
 BYTE   W04
 BYTE   Fn1  v028
 BYTE   N03  As1  v084
 BYTE   W04
 BYTE   Fs1  v028
 BYTE   N03  Bn1  v084
 BYTE   W04
 BYTE   Fn1  v028
 BYTE   N03  Ds2  v084
 BYTE   W04
 BYTE   As1  v028
 BYTE   N03  Fn2  v084
 BYTE   W04
 BYTE   Bn1
 BYTE   W04
//  #05 //021   ----------------------------------------
 BYTE   Ds2  v028
 BYTE   W04
 BYTE   Fn2
 BYTE   W04
 BYTE   Bn1
 BYTE   W40
 BYTE   Bn2  v084
 BYTE   W04
 BYTE   As2
 BYTE   W04
 BYTE   Fn2
 BYTE   W04
 BYTE   Ds2
 BYTE   N03  Bn2  v024
 BYTE   W04
 BYTE   Fn2  v084
 BYTE   N03  As2  v024
 BYTE   W04
 BYTE   As1  v084
 BYTE   N03  Fn2  v024
 BYTE   W04
 BYTE   Bn1  v084
 BYTE   N03  Ds2  v024
 BYTE   W04
 BYTE   As1  v084
 BYTE   N03  Fn2  v024
 BYTE   W04
 BYTE   Fn1  v084
 BYTE   N03  As1  v024
 BYTE   W04
 BYTE   Ds1  v084
 BYTE   N03  Bn1  v024
 BYTE   W04
 BYTE   Fn1  v084
 BYTE   N03  As1  v024
 BYTE   W04
 BYTE   As0  v084
 BYTE   N03  Fn1  v024
 BYTE   W04
//  #05 //022   ----------------------------------------
 BYTE   Ds1
 BYTE   W04
 BYTE   Fn1
 BYTE   W04
 BYTE   As0
 BYTE   W88
//  #05 //023   ----------------------------------------
 BYTE   W96
//  #05 //024   ----------------------------------------
 BYTE   W96
//  #05 //025   ----------------------------------------
 BYTE   W96
//  #05 //026   ----------------------------------------
 BYTE   W96
//  #05 //027   ----------------------------------------
 BYTE   W96
//  #05 //028   ----------------------------------------
 BYTE   W96
//  #05 //029   ----------------------------------------
 BYTE   W96
//  #05 //030   ----------------------------------------
 BYTE   W96
//  #05 //031   ----------------------------------------
 BYTE   W96
//  #05 //032   ----------------------------------------
 BYTE   W96
//  #05 //033   ----------------------------------------
 BYTE   W96
//  #05 //034   ----------------------------------------
 BYTE   W96
//  #05 //035   ----------------------------------------
 BYTE   W96
//  #05 //036   ----------------------------------------
 BYTE   W96
//  #05 //037   ----------------------------------------
 BYTE   W96
//  #05 //038   ----------------------------------------
 BYTE   W96
//  #05 //039   ----------------------------------------
 BYTE   W96
//  #05 //040   ----------------------------------------
 BYTE   W96
//  #05 //041   ----------------------------------------
 BYTE   GoTo
  POIN2 Label_015DE83A
 BYTE   FINE

//**************** Track 6 (Midi-Chn.5) ****************//

ClaretHollows_006:
//  #06 //000   ----------------------------------------
 BYTE   KEYSH   ClaretHollows_key+0
Label_015DE9D2:
 BYTE   VOICE   100
 BYTE   VOL   37*ClaretHollows_mvl/mxv
 BYTE   PAN   c_v+0
 BYTE   W96
//  #06 //001   ----------------------------------------
 BYTE   TIE  Bn3  v072
 BYTE   W03
 BYTE   Gn4  v076
 BYTE   W03
 BYTE   Fs4  v072
 BYTE   W03
 BYTE   Dn5  v068
 BYTE   W84
 BYTE   W03
//  #06 //002   ----------------------------------------
 BYTE   W96
//  #06 //003   ----------------------------------------
 BYTE   W64
 BYTE   W01
 BYTE   EOT
 BYTE   Bn3  v078
 BYTE   W03
 BYTE   Gn4  v086
 BYTE   W28
//  #06 //004   ----------------------------------------
 BYTE   W96
//  #06 //005   ----------------------------------------
 BYTE   W96
//  #06 //006   ----------------------------------------
 BYTE   W96
//  #06 //007   ----------------------------------------
 BYTE   W96
//  #06 //008   ----------------------------------------
 BYTE   W96
//  #06 //009   ----------------------------------------
 BYTE   W96
//  #06 //010   ----------------------------------------
 BYTE   TIE  Bn3  v088
 BYTE   W03
 BYTE   Gn4
 BYTE   W03
 BYTE   Fs4
 BYTE   W03
 BYTE   Dn5
 BYTE   W84
 BYTE   W03
//  #06 //011   ----------------------------------------
 BYTE   W84
 BYTE   W02
 BYTE   EOT
 BYTE   Bn3
 BYTE   W03
 BYTE   Gn4
 BYTE   W03
 BYTE   Fs4
 BYTE   W03
 BYTE   Dn5
 BYTE   W01
//  #06 //012   ----------------------------------------
 BYTE   TIE  Bn3  v044
 BYTE   W03
 BYTE   Gn4
 BYTE   W03
 BYTE   Fs4
 BYTE   W03
 BYTE   Dn5
 BYTE   W84
 BYTE   W03
//  #06 //013   ----------------------------------------
 BYTE   W84
 BYTE   W02
 BYTE   EOT
 BYTE   Bn3
 BYTE   W03
 BYTE   Gn4
 BYTE   W03
 BYTE   Fs4
 BYTE   W03
 BYTE   Dn5
 BYTE   W01
//  #06 //014   ----------------------------------------
 BYTE   TIE  Bn2  v080
 BYTE   W96
//  #06 //015   ----------------------------------------
Label_015DEA27:
 BYTE   N92  An4  v080
 BYTE   N92  Cn5
 BYTE   N92  Ds5
 BYTE   N92  Fs5
 BYTE   W92
 BYTE   W03
 BYTE   PEND 
 BYTE   EOT
 BYTE   Bn2
 BYTE   W01
//  #06 //016   ----------------------------------------
 BYTE   TIE
 BYTE   W96
//  #06 //017   ----------------------------------------
 BYTE   PATT
  POIN2 Label_015DEA27
//  #06 //018   ----------------------------------------
 BYTE   EOT
 BYTE   Bn2
 BYTE   W01
 BYTE   N92  As4  v080
 BYTE   N92  Cs5
 BYTE   N92  En5
 BYTE   N92  Gn5
 BYTE   W96
//  #06 //019   ----------------------------------------
 BYTE   Bn4
 BYTE   N92  Dn5
 BYTE   N92  Fn5
 BYTE   N92  Gs5
 BYTE   W96
//  #06 //020   ----------------------------------------
Label_015DEA52:
 BYTE   N05  Bn4  v080
 BYTE   N05  Dn5
 BYTE   N05  Fn5
 BYTE   N05  Gs5
 BYTE   W24
 BYTE   Bn4
 BYTE   N05  Dn5
 BYTE   N05  Fn5
 BYTE   N05  Gs5
 BYTE   W72
 BYTE   PEND 
//  #06 //021   ----------------------------------------
 BYTE   PATT
  POIN2 Label_015DEA52
//  #06 //022   ----------------------------------------
 BYTE   N05  Fn4  v080
 BYTE   N05  Gs4
 BYTE   N05  Bn4
 BYTE   N05  Dn5
 BYTE   W24
 BYTE   Fn4
 BYTE   N05  Gs4
 BYTE   N05  Bn4
 BYTE   N05  Dn5
 BYTE   W72
//  #06 //023   ----------------------------------------
Label_015DEA7C:
 BYTE   N17  Fn2  v092
 BYTE   N52  Fn4
 BYTE   N52  Bn4
 BYTE   W24
 BYTE   N17  Fn2
 BYTE   W24
 BYTE   N17
 BYTE   W12
 BYTE   N02  En4
 BYTE   N02  As4
 BYTE   W12
 BYTE   N17  Fn2
 BYTE   N02  Fn4
 BYTE   N02  Bn4
 BYTE   W12
 BYTE   As4
 BYTE   N02  En5
 BYTE   W12
 BYTE   PEND 
//  #06 //024   ----------------------------------------
 BYTE   N17  Fn2
 BYTE   N80  An4
 BYTE   N80  Ds5
 BYTE   W24
 BYTE   N17  Fn2
 BYTE   W24
 BYTE   N17
 BYTE   W24
 BYTE   N17
 BYTE   W24
//  #06 //025   ----------------------------------------
 BYTE   PATT
  POIN2 Label_015DEA7C
//  #06 //026   ----------------------------------------
 BYTE   N17  Fn2  v092
 BYTE   N92  An4
 BYTE   N92  Ds5
 BYTE   W24
 BYTE   N17  Fn2
 BYTE   W24
 BYTE   Bn2
 BYTE   W24
 BYTE   N17
 BYTE   W23
 BYTE   N52  Dn5
 BYTE   N52  As5  v088
 BYTE   W01
//  #06 //027   ----------------------------------------
 BYTE   N17  En2  v092
 BYTE   N52  Gs4
 BYTE   W24
 BYTE   N17  En2
 BYTE   W24
 BYTE   N17
 BYTE   W12
 BYTE   N02  Dn4
 BYTE   N02  Gs4
 BYTE   N02  En5  v088
 BYTE   W12
 BYTE   N17  En2  v092
 BYTE   N02  Gs4
 BYTE   N02  Dn5
 BYTE   N02  As5  v088
 BYTE   W12
 BYTE   An4  v092
 BYTE   N02  Ds5
 BYTE   N02  Bn5  v088
 BYTE   W12
//  #06 //028   ----------------------------------------
 BYTE   N17  En2  v092
 BYTE   N17  Gs4
 BYTE   N17  Dn5
 BYTE   N17  As5  v088
 BYTE   W24
 BYTE   En2  v092
 BYTE   N56  Dn4
 BYTE   N56  Gs4
 BYTE   N56  En5  v088
 BYTE   W24
 BYTE   N17  En2  v092
 BYTE   W24
 BYTE   N17
 BYTE   W24
//  #06 //029   ----------------------------------------
 BYTE   N17
 BYTE   N52  Gs4
 BYTE   N52  Dn5
 BYTE   N52  As5  v088
 BYTE   W24
 BYTE   N17  En2  v092
 BYTE   W24
 BYTE   N17
 BYTE   W12
 BYTE   N02  Dn4
 BYTE   N02  Gs4
 BYTE   N02  En5  v088
 BYTE   W12
 BYTE   N17  En2  v092
 BYTE   N02  Gs4
 BYTE   N02  Dn5
 BYTE   N02  As5  v088
 BYTE   W12
 BYTE   An4  v092
 BYTE   N02  Ds5
 BYTE   N02  Bn5  v088
 BYTE   W12
//  #06 //030   ----------------------------------------
 BYTE   N17  En2  v092
 BYTE   N17  Gs4
 BYTE   N17  Dn5
 BYTE   N17  As5  v088
 BYTE   W24
 BYTE   En2  v092
 BYTE   N17  Dn4
 BYTE   N17  Gs4
 BYTE   N17  En5  v088
 BYTE   W24
 BYTE   Fn2  v092
 BYTE   N17  Ds4
 BYTE   N17  An4
 BYTE   N17  Fn5  v088
 BYTE   W24
 BYTE   Fs2  v092
 BYTE   N17  En4
 BYTE   N17  As4
 BYTE   N17  Fs5  v088
 BYTE   W24
//  #06 //031   ----------------------------------------
 BYTE   N02  Gn3  v092
 BYTE   N02  An4  v068
 BYTE   N02  Cs5  v092
 BYTE   N02  Gn5
 BYTE   W05
 BYTE   N03  Gn3  v084
 BYTE   N03  An4  v076
 BYTE   N03  Gn5  v092
 BYTE   W01
 BYTE   N02  Cs5  v068
 BYTE   W05
 BYTE   N04  Cs5  v084
 BYTE   W01
 BYTE   N03  Gn3  v072
 BYTE   N03  An4  v076
 BYTE   N04  Gn5  v096
 BYTE   W12
 BYTE   N03  An4  v048
 BYTE   N02  Cs5
 BYTE   N03  Gn5
 BYTE   W11
 BYTE   N02  Cs5  v060
 BYTE   W01
 BYTE   N03  Gn3  v076
 BYTE   N02  An4  v068
 BYTE   N02  Gn5  v072
 BYTE   W05
 BYTE   Gn3  v096
 BYTE   W01
 BYTE   N03  An4  v080
 BYTE   N03  Cs5  v072
 BYTE   N02  Gn5  v096
 BYTE   W05
 BYTE   N03  Gn3  v092
 BYTE   N04  Gn5  v088
 BYTE   W01
 BYTE   N03  An4
 BYTE   N04  Cs5  v080
 BYTE   W12
 BYTE   N03  An4  v048
 BYTE   N02  Cs5
 BYTE   N03  Gn5
 BYTE   W12
 BYTE   Gn3  v100
 BYTE   N02  An4  v084
 BYTE   N02  Cs5  v088
 BYTE   N02  Gn5
 BYTE   W05
 BYTE   Gn3  v096
 BYTE   N02  An4  v068
 BYTE   N02  Cs5  v064
 BYTE   W01
 BYTE   Gn5  v088
 BYTE   W05
 BYTE   N03  Gn3  v108
 BYTE   N03  An4  v076
 BYTE   N03  Gn5  v088
 BYTE   W01
 BYTE   Cs5  v072
 BYTE   W12
//  #06 //032   ----------------------------------------
 BYTE   An4  v048
 BYTE   N02  Cs5
 BYTE   N03  Gn5
 BYTE   W11
 BYTE   N02  An4  v084
 BYTE   N02  Cs5  v088
 BYTE   W01
 BYTE   N03  Gn3  v092
 BYTE   N02  Gn5  v084
 BYTE   W05
 BYTE   N03  Gn3  v092
 BYTE   N03  Cs5  v072
 BYTE   W01
 BYTE   N02  An4  v068
 BYTE   N02  Gn5  v092
 BYTE   W06
 BYTE   N14  As3  v096
 BYTE   N11  As4  v088
 BYTE   N11  Dn5  v100
 BYTE   N11  Gn5  v108
 BYTE   W12
 BYTE   As4  v032
 BYTE   N11  Dn5
 BYTE   N11  Gn5
 BYTE   W12
 BYTE   N14  An3  v088
 BYTE   N11  Bn4  v100
 BYTE   N11  En5  v108
 BYTE   N11  Gs5  v076
 BYTE   W12
 BYTE   Bn4  v032
 BYTE   N11  En5
 BYTE   N11  Gs5
 BYTE   W12
 BYTE   N12  Gs3  v088
 BYTE   N11  Cn5  v096
 BYTE   N11  Fn5
 BYTE   N11  An5  v080
 BYTE   W12
 BYTE   Cn5  v032
 BYTE   N11  Fn5
 BYTE   N11  An5
 BYTE   W12
//  #06 //033   ----------------------------------------
 BYTE   N03  Gn3  v096
 BYTE   N02  Cs5  v088
 BYTE   N02  Fs5  v068
 BYTE   N02  As5  v088
 BYTE   W06
 BYTE   N03  Gn3
 BYTE   N03  Cs5  v072
 BYTE   N02  Fs5  v052
 BYTE   N02  As5  v084
 BYTE   W06
 BYTE   N03  Gn3  v100
 BYTE   N02  Cs5  v092
 BYTE   N02  Fs5  v096
 BYTE   N02  As5
 BYTE   W12
 BYTE   N03  Cs5  v056
 BYTE   N02  Fs5
 BYTE   N02  As5
 BYTE   W12
 BYTE   N03  Gn3  v096
 BYTE   N02  Cs5  v088
 BYTE   N02  Fs5  v068
 BYTE   N02  As5  v088
 BYTE   W06
 BYTE   N03  Gn3
 BYTE   N03  Cs5  v072
 BYTE   N02  Fs5  v052
 BYTE   N02  As5  v084
 BYTE   W06
 BYTE   N03  Gn3  v100
 BYTE   N02  Cs5  v092
 BYTE   N02  Fs5  v096
 BYTE   N02  As5
 BYTE   W12
 BYTE   N03  Cs5  v056
 BYTE   N02  Fs5
 BYTE   N02  As5
 BYTE   W12
 BYTE   N03  Gn3  v088
 BYTE   N02  Cs5  v092
 BYTE   N02  Fs5  v084
 BYTE   N02  As5  v092
 BYTE   W06
 BYTE   N03  Gn3  v096
 BYTE   N02  Cs5  v088
 BYTE   N02  Fs5
 BYTE   N02  As5  v092
 BYTE   W06
 BYTE   Gn3  v108
 BYTE   N03  Cs5  v088
 BYTE   N02  Fs5  v084
 BYTE   N03  As5  v092
 BYTE   W12
//  #06 //034   ----------------------------------------
 BYTE   Cs5  v056
 BYTE   N02  Fs5
 BYTE   N02  As5
 BYTE   W12
 BYTE   N03  Gn3  v092
 BYTE   N02  Cs5  v080
 BYTE   N02  Fs5  v096
 BYTE   N02  As5  v076
 BYTE   W06
 BYTE   N03  Gn3  v100
 BYTE   N03  Cs5  v084
 BYTE   N02  Fs5  v040
 BYTE   N03  As5  v088
 BYTE   W06
 BYTE   N13  Gn3  v092
 BYTE   N11  Cs5  v088
 BYTE   N11  Fs5  v096
 BYTE   N11  As5  v088
 BYTE   W12
 BYTE   Cs5  v032
 BYTE   N11  Fs5
 BYTE   N11  As5
 BYTE   W12
 BYTE   N13  Fs3  v092
 BYTE   N11  Dn5
 BYTE   N11  Gn5  v096
 BYTE   N11  Bn5  v108
 BYTE   W12
 BYTE   Dn5  v032
 BYTE   N11  Gn5
 BYTE   N11  Bn5
 BYTE   W12
 BYTE   N14  En3  v096
 BYTE   N11  Ds5  v088
 BYTE   N11  Gs5  v096
 BYTE   N11  Cn6  v092
 BYTE   W12
 BYTE   Ds5  v032
 BYTE   N11  Gs5
 BYTE   N11  Cn6
 BYTE   W12
//  #06 //035   ----------------------------------------
 BYTE   N02  Dn3  v080
 BYTE   N02  En5  v096
 BYTE   N02  An5  v092
 BYTE   N02  Cs6  v096
 BYTE   W06
 BYTE   N03  Dn3  v092
 BYTE   N02  En5
 BYTE   N03  An5
 BYTE   N03  Cs6
 BYTE   W06
 BYTE   N02  Dn3
 BYTE   N02  En5
 BYTE   N03  An5
 BYTE   N03  Cs6
 BYTE   W12
 BYTE   N02  En5  v056
 BYTE   N03  An5
 BYTE   N03  Cs6
 BYTE   W12
 BYTE   N02  Dn3  v096
 BYTE   N02  En5  v076
 BYTE   N02  An5  v084
 BYTE   N03  Cs6  v104
 BYTE   W06
 BYTE   N02  Dn3  v092
 BYTE   N02  En5
 BYTE   N03  An5
 BYTE   N03  Cs6
 BYTE   W06
 BYTE   Dn3  v072
 BYTE   N03  En5  v068
 BYTE   N03  An5  v088
 BYTE   N03  Cs6  v104
 BYTE   W12
 BYTE   N02  En5  v056
 BYTE   N03  An5
 BYTE   N03  Cs6
 BYTE   W12
 BYTE   Dn3  v076
 BYTE   N03  En5  v092
 BYTE   N03  An5  v088
 BYTE   N03  Cs6  v096
 BYTE   W06
 BYTE   N02  Dn3  v092
 BYTE   N02  En5
 BYTE   N03  An5
 BYTE   N03  Cs6
 BYTE   W06
 BYTE   Dn3
 BYTE   N03  En5
 BYTE   N03  An5
 BYTE   N03  Cs6
 BYTE   W12
//  #06 //036   ----------------------------------------
 BYTE   N02  En5  v056
 BYTE   N03  An5
 BYTE   N03  Cs6
 BYTE   W12
 BYTE   N02  Dn3  v100
 BYTE   N02  En5
 BYTE   N02  An5
 BYTE   N02  Cs6
 BYTE   W06
 BYTE   Dn3  v096
 BYTE   N02  En5
 BYTE   N03  An5
 BYTE   N03  Cs6
 BYTE   W06
 BYTE   N12  Dn4  v092
 BYTE   N11  En5  v096
 BYTE   N11  An5  v088
 BYTE   N11  Cs6  v076
 BYTE   W12
 BYTE   En5  v032
 BYTE   N11  An5
 BYTE   N11  Cs6
 BYTE   W12
 BYTE   N14  Cs4  v096
 BYTE   N11  Fn5
 BYTE   N11  As5
 BYTE   N11  Ds6
 BYTE   W12
 BYTE   Fn5  v032
 BYTE   N11  As5
 BYTE   N11  Ds6
 BYTE   W12
 BYTE   Cn4  v092
 BYTE   N11  Fs5
 BYTE   N11  Bn5
 BYTE   N11  En6
 BYTE   W12
 BYTE   Fs5  v032
 BYTE   N11  Bn5
 BYTE   N11  En6
 BYTE   W12
//  #06 //037   ----------------------------------------
 BYTE   N28  As3  v096
 BYTE   N23  Gn5
 BYTE   N23  Cn6
 BYTE   N23  Fn6
 BYTE   W24
 BYTE   N11  Gn5  v024
 BYTE   N11  Cn6
 BYTE   N11  Fn6
 BYTE   W12
 BYTE   N02  As3  v092
 BYTE   N02  Gn5
 BYTE   N02  Cn6
 BYTE   N02  Fn6
 BYTE   W06
 BYTE   N03  As3
 BYTE   N02  Gn5
 BYTE   N03  Cn6
 BYTE   N03  Fn6
 BYTE   W06
 BYTE   N28  As3
 BYTE   N23  Gn5
 BYTE   N23  Cn6
 BYTE   N23  Fn6
 BYTE   W24
 BYTE   N11  Gn5  v024
 BYTE   N11  Cn6
 BYTE   N11  Fn6
 BYTE   W12
 BYTE   N02  As3  v096
 BYTE   N02  Gn5  v088
 BYTE   N01  Cn6
 BYTE   N02  Fn6
 BYTE   W06
 BYTE   N03  As3  v060
 BYTE   N03  Gn5  v088
 BYTE   N03  Cn6
 BYTE   N03  Fn6
 BYTE   W06
//  #06 //038   ----------------------------------------
 BYTE   N80  As3  v080
 BYTE   N80  Gn5  v088
 BYTE   N80  Cn6
 BYTE   N80  Fn6
 BYTE   W84
 BYTE   N11  Gn5  v024
 BYTE   N11  Cn6
 BYTE   N11  Fn6
 BYTE   W12
//  #06 //039   ----------------------------------------
 BYTE   N24  Bn2  v092
 BYTE   N23  An5
 BYTE   N23  Dn6
 BYTE   N23  Gn6
 BYTE   W24
 BYTE   N11  An5  v024
 BYTE   N11  Dn6
 BYTE   N11  Gn6
 BYTE   W12
 BYTE   N03  Bn2  v092
 BYTE   N02  An5
 BYTE   N02  Dn6
 BYTE   N02  Gn6
 BYTE   W06
 BYTE   N03  Bn2
 BYTE   N02  An5
 BYTE   N03  Dn6
 BYTE   N03  Gn6
 BYTE   W06
 BYTE   TIE  Bn2  v096
 BYTE   TIE  An5
 BYTE   TIE  Dn6
 BYTE   TIE  Gn6
 BYTE   W48
//  #06 //040   ----------------------------------------
 BYTE   W80
 BYTE   W03
 BYTE   EOT
 BYTE   W01
 BYTE   EOT
 BYTE   An5
 BYTE   W01
 BYTE   Dn6
 BYTE   W07
 BYTE   Bn2
 BYTE   W04
//  #06 //041   ----------------------------------------
 BYTE   GoTo
  POIN2 Label_015DE9D2
 BYTE   FINE

//**************** Track 7 (Midi-Chn.6) ****************//

ClaretHollows_007:
//  #07 //000   ----------------------------------------
 BYTE   KEYSH   ClaretHollows_key+0
Label_015DEE8A:
 BYTE   VOICE   1
 BYTE   VOL   45*ClaretHollows_mvl/mxv
 BYTE   PAN   c_v+0
 BYTE   W96
//  #07 //001   ----------------------------------------
 BYTE   W96
//  #07 //002   ----------------------------------------
 BYTE   W96
//  #07 //003   ----------------------------------------
 BYTE   W96
//  #07 //004   ----------------------------------------
 BYTE   W96
//  #07 //005   ----------------------------------------
 BYTE   W96
//  #07 //006   ----------------------------------------
 BYTE   W96
//  #07 //007   ----------------------------------------
 BYTE   W96
//  #07 //008   ----------------------------------------
 BYTE   W96
//  #07 //009   ----------------------------------------
 BYTE   W96
//  #07 //010   ----------------------------------------
 BYTE   W96
//  #07 //011   ----------------------------------------
 BYTE   W96
//  #07 //012   ----------------------------------------
 BYTE   W96
//  #07 //013   ----------------------------------------
 BYTE   W96
//  #07 //014   ----------------------------------------
 BYTE   W24
 BYTE   N03  Bn2  v048
 BYTE   W04
 BYTE   Cn3  v052
 BYTE   W04
 BYTE   Bn2  v060
 BYTE   W04
 BYTE   Cn3  v064
 BYTE   W04
 BYTE   Bn2  v068
 BYTE   W04
 BYTE   Cn3  v072
 BYTE   W04
 BYTE   Bn2
 BYTE   W04
 BYTE   Cn3
 BYTE   W04
 BYTE   Bn2  v068
 BYTE   W04
 BYTE   Cn3  v064
 BYTE   W04
 BYTE   Bn2  v060
 BYTE   W04
 BYTE   Cn3  v056
 BYTE   W04
 BYTE   Bn2
 BYTE   W04
 BYTE   Cn3  v052
 BYTE   W04
 BYTE   Bn2  v048
 BYTE   W04
 BYTE   Cn3  v040
 BYTE   W04
 BYTE   Bn2  v036
 BYTE   W04
 BYTE   Cn3
 BYTE   W04
//  #07 //015   ----------------------------------------
 BYTE   Cn3  v024
 BYTE   N11  An4  v092
 BYTE   N17  Ds5
 BYTE   W04
 BYTE   N03  Bn2  v024
 BYTE   W02
 BYTE   N23  Dn5  v092
 BYTE   W02
 BYTE   N03  Cn3  v024
 BYTE   W04
 BYTE   N11  Gn4  v092
 BYTE   N23  Cn5
 BYTE   W06
 BYTE   N11  Ds5
 BYTE   W06
 BYTE   An3
 BYTE   N17  Ds4
 BYTE   W06
 BYTE   N23  Dn4
 BYTE   W06
 BYTE   N11  Gn3
 BYTE   N23  Cn4
 BYTE   W06
 BYTE   N17  Ds4
 BYTE   W06
 BYTE   N11  An3  v056
 BYTE   W06
 BYTE   N23  Dn4
 BYTE   W06
 BYTE   N11  Gn3
 BYTE   N23  Cn4
 BYTE   W06
 BYTE   N17  Ds4
 BYTE   W06
 BYTE   N11  Ds3  v092
 BYTE   W06
 BYTE   Dn3
 BYTE   W06
 BYTE   Cn3
 BYTE   W06
 BYTE   Dn3
 BYTE   W06
//  #07 //016   ----------------------------------------
 BYTE   Ds3  v052
 BYTE   W06
 BYTE   Dn3
 BYTE   W06
 BYTE   Cn3
 BYTE   W06
 BYTE   Dn3
 BYTE   W06
 BYTE   N03  Bn2  v048
 BYTE   W04
 BYTE   Cn3  v052
 BYTE   W04
 BYTE   Bn2  v060
 BYTE   W04
 BYTE   Cn3  v064
 BYTE   W04
 BYTE   Bn2  v068
 BYTE   W04
 BYTE   Cn3  v072
 BYTE   W04
 BYTE   Bn2
 BYTE   W04
 BYTE   Cn3
 BYTE   W04
 BYTE   Bn2  v068
 BYTE   W04
 BYTE   Cn3  v064
 BYTE   W04
 BYTE   Bn2  v060
 BYTE   W04
 BYTE   Cn3  v056
 BYTE   W04
 BYTE   Bn2
 BYTE   W04
 BYTE   Cn3  v052
 BYTE   W04
 BYTE   Bn2  v048
 BYTE   W04
 BYTE   Cn3  v040
 BYTE   W04
 BYTE   Bn2  v036
 BYTE   W04
 BYTE   Cn3
 BYTE   W04
//  #07 //017   ----------------------------------------
 BYTE   Cn3  v024
 BYTE   N11  An4  v092
 BYTE   N17  Ds5
 BYTE   W04
 BYTE   N03  Bn2  v024
 BYTE   W02
 BYTE   N23  Dn5  v092
 BYTE   W02
 BYTE   N03  Cn3  v024
 BYTE   W04
 BYTE   N11  Gn4  v092
 BYTE   N23  Cn5
 BYTE   W06
 BYTE   N17  Ds5
 BYTE   W06
 BYTE   N11  An3
 BYTE   N17  Ds4
 BYTE   W06
 BYTE   N23  Dn4
 BYTE   W06
 BYTE   N11  Gn3
 BYTE   N23  Cn4
 BYTE   W06
 BYTE   N17  Ds4
 BYTE   W06
 BYTE   N11  An3  v056
 BYTE   W06
 BYTE   N23  Dn4
 BYTE   W06
 BYTE   N11  Gn3
 BYTE   N23  Cn4
 BYTE   W06
 BYTE   N17  Ds4
 BYTE   W06
 BYTE   N11  Ds3  v092
 BYTE   W06
 BYTE   Dn3
 BYTE   W06
 BYTE   Cn3
 BYTE   W06
 BYTE   Dn3
 BYTE   W06
//  #07 //018   ----------------------------------------
 BYTE   Ds3  v052
 BYTE   N11  As4  v092
 BYTE   N17  En5
 BYTE   W06
 BYTE   N11  Dn3  v052
 BYTE   N23  Ds5  v092
 BYTE   W06
 BYTE   N11  Cn3  v052
 BYTE   N11  Gs4  v092
 BYTE   N23  Cs5
 BYTE   W06
 BYTE   N11  Dn3  v052
 BYTE   N17  En5  v092
 BYTE   W06
 BYTE   N11  As3
 BYTE   N17  En4
 BYTE   W06
 BYTE   N23  Ds4
 BYTE   W06
 BYTE   N11  Gs3
 BYTE   N23  Cs4
 BYTE   W06
 BYTE   N17  En4
 BYTE   W06
 BYTE   N11  As3  v056
 BYTE   W06
 BYTE   N23  Ds4
 BYTE   W06
 BYTE   N11  Gs3
 BYTE   N23  Cs4
 BYTE   W06
 BYTE   N17  En4
 BYTE   W06
 BYTE   N11  En3  v092
 BYTE   W06
 BYTE   Ds3
 BYTE   W06
 BYTE   Cs3
 BYTE   W06
 BYTE   Ds3
 BYTE   W06
//  #07 //019   ----------------------------------------
 BYTE   En3  v052
 BYTE   N11  Bn4  v092
 BYTE   N17  Fn5
 BYTE   W06
 BYTE   N11  Ds3  v052
 BYTE   N23  En5  v092
 BYTE   W06
 BYTE   N11  Cs3  v052
 BYTE   N11  An4  v092
 BYTE   N23  Dn5
 BYTE   W06
 BYTE   N11  Ds3  v052
 BYTE   N17  Fn5  v092
 BYTE   W06
 BYTE   N11  Bn3
 BYTE   N17  Fn4
 BYTE   W06
 BYTE   N23  En4
 BYTE   W06
 BYTE   N11  An3
 BYTE   N23  Dn4
 BYTE   W06
 BYTE   N17  Fn4
 BYTE   W06
 BYTE   N11  Bn3  v056
 BYTE   W06
 BYTE   N23  En4
 BYTE   W06
 BYTE   N11  An3
 BYTE   N23  Dn4
 BYTE   W06
 BYTE   N17  Fn4
 BYTE   W06
 BYTE   N11  Fn3  v092
 BYTE   W06
 BYTE   En3
 BYTE   W06
 BYTE   Dn3
 BYTE   W06
 BYTE   En3
 BYTE   W06
//  #07 //020   ----------------------------------------
 BYTE   Fn3  v052
 BYTE   W06
 BYTE   En3
 BYTE   W06
 BYTE   Dn3
 BYTE   W06
 BYTE   En3
 BYTE   W06
 BYTE   Fn3  v040
 BYTE   W06
 BYTE   En3
 BYTE   W06
 BYTE   Dn3
 BYTE   W06
 BYTE   En3
 BYTE   W54
//  #07 //021   ----------------------------------------
 BYTE   W96
//  #07 //022   ----------------------------------------
 BYTE   W96
//  #07 //023   ----------------------------------------
 BYTE   W96
//  #07 //024   ----------------------------------------
 BYTE   W96
//  #07 //025   ----------------------------------------
 BYTE   W96
//  #07 //026   ----------------------------------------
 BYTE   W96
//  #07 //027   ----------------------------------------
 BYTE   W96
//  #07 //028   ----------------------------------------
 BYTE   W96
//  #07 //029   ----------------------------------------
 BYTE   W96
//  #07 //030   ----------------------------------------
 BYTE   W96
//  #07 //031   ----------------------------------------
 BYTE   W96
//  #07 //032   ----------------------------------------
 BYTE   W96
//  #07 //033   ----------------------------------------
 BYTE   W96
//  #07 //034   ----------------------------------------
 BYTE   W96
//  #07 //035   ----------------------------------------
 BYTE   W96
//  #07 //036   ----------------------------------------
 BYTE   W96
//  #07 //037   ----------------------------------------
 BYTE   W96
//  #07 //038   ----------------------------------------
 BYTE   W96
//  #07 //039   ----------------------------------------
 BYTE   W96
//  #07 //040   ----------------------------------------
 BYTE   W96
//  #07 //041   ----------------------------------------
 BYTE   GoTo
  POIN2 Label_015DEE8A
 BYTE   FINE

//**************** Track 8 (Midi-Chn.7) ****************//

ClaretHollows_008:
//  #08 //000   ----------------------------------------
 BYTE   KEYSH   ClaretHollows_key+0
Label_01791E0E:
 BYTE   VOICE   4
 BYTE   VOL   40*ClaretHollows_mvl/mxv
 BYTE   PAN   c_v+50
 BYTE   W96
//  #08 //001   ----------------------------------------
 BYTE   W96
//  #08 //002   ----------------------------------------
 BYTE   W96
//  #08 //003   ----------------------------------------
 BYTE   W96
//  #08 //004   ----------------------------------------
 BYTE   W36
 BYTE   N11  En2  v052
 BYTE   N11  Bn2
 BYTE   W12
 BYTE   TIE  En2  v076
 BYTE   TIE  Bn2
 BYTE   TIE  Fs3
 BYTE   TIE  Dn4
 BYTE   TIE  Gn4
 BYTE   TIE  En5  v084
 BYTE   W48
//  #08 //005   ----------------------------------------
 BYTE   W96
//  #08 //006   ----------------------------------------
 BYTE   W96
//  #08 //007   ----------------------------------------
 BYTE   W68
 BYTE   W02
 BYTE   EOT
 BYTE   En2  v059
 BYTE   Fs3  v074
 BYTE   Gn4  v088
 BYTE   W24
 BYTE   W02
//  #08 //008   ----------------------------------------
 BYTE   W96
//  #08 //009   ----------------------------------------
 BYTE   W96
//  #08 //010   ----------------------------------------
 BYTE   W96
//  #08 //011   ----------------------------------------
 BYTE   W96
//  #08 //012   ----------------------------------------
 BYTE   W96
//  #08 //013   ----------------------------------------
 BYTE   W96
//  #08 //014   ----------------------------------------
 BYTE   W96
//  #08 //015   ----------------------------------------
 BYTE   W96
//  #08 //016   ----------------------------------------
 BYTE   W96
//  #08 //017   ----------------------------------------
 BYTE   W96
//  #08 //018   ----------------------------------------
 BYTE   W96
//  #08 //019   ----------------------------------------
 BYTE   W96
//  #08 //020   ----------------------------------------
Label_01791E47:
 BYTE   N05  Bn3  v100
 BYTE   N05  Fn4
 BYTE   W24
 BYTE   Bn3
 BYTE   N05  Fn4
 BYTE   W72
 BYTE   PEND 
//  #08 //021   ----------------------------------------
 BYTE   PATT
  POIN2 Label_01791E47
//  #08 //022   ----------------------------------------
 BYTE   N05  Fn3  v100
 BYTE   N05  Bn3
 BYTE   W24
 BYTE   Fn3
 BYTE   N05  Bn3
 BYTE   W72
//  #08 //023   ----------------------------------------
 BYTE   TIE  Fn2  v080
 BYTE   W96
//  #08 //024   ----------------------------------------
 BYTE   N92  Fn3  v072
 BYTE   W92
 BYTE   W03
 BYTE   EOT
 BYTE   Fn2
 BYTE   W01
//  #08 //025   ----------------------------------------
 BYTE   TIE  Fn2  v080
 BYTE   W96
//  #08 //026   ----------------------------------------
 BYTE   N92  Fn3  v072
 BYTE   W44
 BYTE   W03
 BYTE   EOT
 BYTE   Fn2
 BYTE   W01
 BYTE   N44  Bn2  v080
 BYTE   W44
 BYTE   W03
 BYTE   TIE  En3  v084
 BYTE   W01
//  #08 //027   ----------------------------------------
 BYTE   W96
//  #08 //028   ----------------------------------------
 BYTE   N92  Dn4
 BYTE   W40
 BYTE   W01
 BYTE   EOT
 BYTE   En3
 BYTE   W54
 BYTE   W01
//  #08 //029   ----------------------------------------
 BYTE   TIE  En3  v076
 BYTE   W92
 BYTE   W03
 BYTE   N36  Dn4  v080
 BYTE   W01
//  #08 //030   ----------------------------------------
 BYTE   W36
 BYTE   W02
 BYTE   EOT
 BYTE   En3
 BYTE   W09
 BYTE   N15  Fn3
 BYTE   N16  Ds4
 BYTE   W24
 BYTE   N15  Fs3
 BYTE   N16  En4
 BYTE   W24
 BYTE   W01
//  #08 //031   ----------------------------------------
 BYTE   N68  Gn3  v084
 BYTE   N68  Fn4
 BYTE   W72
 BYTE   N44  Gn3
 BYTE   N44  Fn4
 BYTE   W24
//  #08 //032   ----------------------------------------
 BYTE   W24
 BYTE   N13  Gn3
 BYTE   N13  Fn4
 BYTE   W24
 BYTE   Fs3
 BYTE   N13  En4
 BYTE   W24
 BYTE   N14  Fn3
 BYTE   N14  Dn4
 BYTE   W24
//  #08 //033   ----------------------------------------
 BYTE   N68  Gn3
 BYTE   N68  Cs4
 BYTE   W72
 BYTE   N44  Gn3
 BYTE   N44  Cs4
 BYTE   W24
//  #08 //034   ----------------------------------------
 BYTE   W24
 BYTE   N12  Gn3  v080
 BYTE   N11  Cs4
 BYTE   W24
 BYTE   Fs3
 BYTE   N11  Dn4
 BYTE   W24
 BYTE   N15  Gs3
 BYTE   N15  Ds4
 BYTE   W24
//  #08 //035   ----------------------------------------
 BYTE   N68  As3  v076
 BYTE   N68  En4  v080
 BYTE   W72
 BYTE   N44  As3  v076
 BYTE   N48  En4  v080
 BYTE   W24
//  #08 //036   ----------------------------------------
 BYTE   W24
 BYTE   N12  As3  v068
 BYTE   N12  En4
 BYTE   W24
 BYTE   Fn3
 BYTE   N13  As3  v084
 BYTE   W24
 BYTE   Gn3  v076
 BYTE   N12  Cn4  v084
 BYTE   W24
//  #08 //037   ----------------------------------------
 BYTE   TIE  Gs3  v076
 BYTE   TIE  Ds4
 BYTE   W96
//  #08 //038   ----------------------------------------
 BYTE   W88
 BYTE   W01
 BYTE   EOT
 BYTE   Gs3  v075
 BYTE   W07
//  #08 //039   ----------------------------------------
 BYTE   TIE  An3
 BYTE   TIE  En4
 BYTE   W96
//  #08 //040   ----------------------------------------
 BYTE   W88
 BYTE   W01
 BYTE   EOT
 BYTE   An3  v076
 BYTE   W07
//  #08 //041   ----------------------------------------
 BYTE   GoTo
  POIN2 Label_01791E0E
 BYTE   FINE

//**************** Track 9 (Midi-Chn.8) ****************//

ClaretHollows_009:
//  #09 //000   ----------------------------------------
 BYTE   KEYSH   ClaretHollows_key+0
Label_0179219A:
 BYTE   VOICE   38
 BYTE   VOL   52*ClaretHollows_mvl/mxv
 BYTE   PAN   c_v+20
 BYTE   W96
//  #09 //001   ----------------------------------------
 BYTE   W96
//  #09 //002   ----------------------------------------
 BYTE   W96
//  #09 //003   ----------------------------------------
 BYTE   W96
//  #09 //004   ----------------------------------------
 BYTE   W96
//  #09 //005   ----------------------------------------
 BYTE   W01
 BYTE   N32  Dn6  v068
 BYTE   W03
 BYTE   An5
 BYTE   W03
 BYTE   Gn5
 BYTE   W18
 BYTE   N40  Fs5
 BYTE   W03
 BYTE   En5
 BYTE   W03
 BYTE   Bn4
 BYTE   W42
 BYTE   N36  An4  v060
 BYTE   W03
 BYTE   En4
 BYTE   W03
 BYTE   Dn4
 BYTE   W17
//  #09 //006   ----------------------------------------
 BYTE   W24
 BYTE   W01
 BYTE   N48  Cs4  v048
 BYTE   W03
 BYTE   Bn3
 BYTE   W03
 BYTE   Fs3
 BYTE   W64
 BYTE   W01
//  #09 //007   ----------------------------------------
 BYTE   W96
//  #09 //008   ----------------------------------------
 BYTE   W96
//  #09 //009   ----------------------------------------
 BYTE   W96
//  #09 //010   ----------------------------------------
 BYTE   W96
//  #09 //011   ----------------------------------------
 BYTE   W96
//  #09 //012   ----------------------------------------
 BYTE   W96
//  #09 //013   ----------------------------------------
 BYTE   W96
//  #09 //014   ----------------------------------------
 BYTE   W96
//  #09 //015   ----------------------------------------
 BYTE   W96
//  #09 //016   ----------------------------------------
 BYTE   W96
//  #09 //017   ----------------------------------------
 BYTE   W96
//  #09 //018   ----------------------------------------
 BYTE   W96
//  #09 //019   ----------------------------------------
 BYTE   W96
//  #09 //020   ----------------------------------------
 BYTE   W96
//  #09 //021   ----------------------------------------
 BYTE   W96
//  #09 //022   ----------------------------------------
 BYTE   W96
//  #09 //023   ----------------------------------------
 BYTE   W96
//  #09 //024   ----------------------------------------
 BYTE   W96
//  #09 //025   ----------------------------------------
 BYTE   W96
//  #09 //026   ----------------------------------------
 BYTE   W96
//  #09 //027   ----------------------------------------
 BYTE   W96
//  #09 //028   ----------------------------------------
 BYTE   W96
//  #09 //029   ----------------------------------------
 BYTE   W96
//  #09 //030   ----------------------------------------
 BYTE   W96
//  #09 //031   ----------------------------------------
 BYTE   W96
//  #09 //032   ----------------------------------------
 BYTE   W96
//  #09 //033   ----------------------------------------
 BYTE   W96
//  #09 //034   ----------------------------------------
 BYTE   W96
//  #09 //035   ----------------------------------------
 BYTE   W96
//  #09 //036   ----------------------------------------
 BYTE   W96
//  #09 //037   ----------------------------------------
 BYTE   W96
//  #09 //038   ----------------------------------------
 BYTE   W96
//  #09 //039   ----------------------------------------
 BYTE   W96
//  #09 //040   ----------------------------------------
 BYTE   W96
//  #09 //041   ----------------------------------------
 BYTE   GoTo
  POIN2 Label_0179219A
 BYTE   FINE

//**************** Track 10 (Midi-Chn.9) ****************//

ClaretHollows_010:
//  #10 //000   ----------------------------------------
 BYTE   KEYSH   ClaretHollows_key+0
Label_015DF06A:
 BYTE   VOICE   124
 BYTE   VOL   52*ClaretHollows_mvl/mxv
 BYTE   N23  Ds2  v072
 BYTE   W12
 BYTE   N11  As3  v076
 BYTE   W12
 BYTE   N23  Ds2  v072
 BYTE   W12
 BYTE   N05  As3  v076
 BYTE   W06
 BYTE   As3  v064
 BYTE   W06
 BYTE   N23  Ds2  v072
 BYTE   N11  Dn4  v060
 BYTE   W12
 BYTE   As3  v076
 BYTE   N03  Cs4  v060
 BYTE   W06
 BYTE   N03
 BYTE   W06
 BYTE   N23  Ds2  v072
 BYTE   W12
 BYTE   N05  As3  v076
 BYTE   W06
 BYTE   As3  v064
 BYTE   W06
//  #10 //001   ----------------------------------------
Label_015DF09B:
 BYTE   N23  Ds2  v072
 BYTE   W12
 BYTE   N11  As3  v076
 BYTE   W12
 BYTE   N23  Ds2  v072
 BYTE   W12
 BYTE   N05  As3  v076
 BYTE   W06
 BYTE   As3  v064
 BYTE   W06
 BYTE   N23  Ds2  v072
 BYTE   W12
 BYTE   N11  As3  v076
 BYTE   W12
 BYTE   N23  Ds2  v072
 BYTE   W12
 BYTE   N05  As3  v076
 BYTE   W06
 BYTE   As3  v064
 BYTE   W06
 BYTE   PEND 
//  #10 //002   ----------------------------------------
 BYTE   PATT
  POIN2 Label_015DF09B
//  #10 //003   ----------------------------------------
 BYTE   PATT
  POIN2 Label_015DF09B
//  #10 //004   ----------------------------------------
Label_015DF0CC:
 BYTE   N23  Ds2  v072
 BYTE   W12
 BYTE   N11  As3  v076
 BYTE   W12
 BYTE   N23  Ds2  v072
 BYTE   W12
 BYTE   N05  As3  v076
 BYTE   W06
 BYTE   As3  v064
 BYTE   W06
 BYTE   N23  Ds2  v072
 BYTE   N11  Dn4  v060
 BYTE   W12
 BYTE   As3  v076
 BYTE   N03  Cs4  v060
 BYTE   W06
 BYTE   N03
 BYTE   W06
 BYTE   N23  Ds2  v072
 BYTE   W12
 BYTE   N05  As3  v076
 BYTE   W06
 BYTE   As3  v064
 BYTE   W06
 BYTE   PEND 
//  #10 //005   ----------------------------------------
 BYTE   PATT
  POIN2 Label_015DF09B
//  #10 //006   ----------------------------------------
 BYTE   PATT
  POIN2 Label_015DF09B
//  #10 //007   ----------------------------------------
 BYTE   PATT
  POIN2 Label_015DF09B
//  #10 //008   ----------------------------------------
 BYTE   W96
//  #10 //009   ----------------------------------------
 BYTE   W96
//  #10 //010   ----------------------------------------
 BYTE   W96
//  #10 //011   ----------------------------------------
 BYTE   W96
//  #10 //012   ----------------------------------------
 BYTE   W96
//  #10 //013   ----------------------------------------
 BYTE   W96
//  #10 //014   ----------------------------------------
 BYTE   PATT
  POIN2 Label_015DF0CC
//  #10 //015   ----------------------------------------
 BYTE   PATT
  POIN2 Label_015DF09B
//  #10 //016   ----------------------------------------
 BYTE   PATT
  POIN2 Label_015DF09B
//  #10 //017   ----------------------------------------
 BYTE   PATT
  POIN2 Label_015DF09B
//  #10 //018   ----------------------------------------
 BYTE   PATT
  POIN2 Label_015DF09B
//  #10 //019   ----------------------------------------
 BYTE   PATT
  POIN2 Label_015DF09B
//  #10 //020   ----------------------------------------
 BYTE   W96
//  #10 //021   ----------------------------------------
 BYTE   W96
//  #10 //022   ----------------------------------------
 BYTE   W96
//  #10 //023   ----------------------------------------
Label_015DF130:
 BYTE   W12
 BYTE   N05  Dn3  v080
 BYTE   N05  As3  v072
 BYTE   W06
 BYTE   En3  v080
 BYTE   W18
 BYTE   Dn3
 BYTE   N05  As3  v072
 BYTE   W24
 BYTE   Dn3  v080
 BYTE   N05  As3  v072
 BYTE   W06
 BYTE   En3  v080
 BYTE   W18
 BYTE   Dn3
 BYTE   N05  As3  v072
 BYTE   W12
 BYTE   PEND 
//  #10 //024   ----------------------------------------
 BYTE   PATT
  POIN2 Label_015DF130
//  #10 //025   ----------------------------------------
 BYTE   PATT
  POIN2 Label_015DF130
//  #10 //026   ----------------------------------------
 BYTE   PATT
  POIN2 Label_015DF130
//  #10 //027   ----------------------------------------
 BYTE   PATT
  POIN2 Label_015DF130
//  #10 //028   ----------------------------------------
 BYTE   PATT
  POIN2 Label_015DF130
//  #10 //029   ----------------------------------------
 BYTE   PATT
  POIN2 Label_015DF130
//  #10 //030   ----------------------------------------
 BYTE   PATT
  POIN2 Label_015DF130
//  #10 //031   ----------------------------------------
 BYTE   W96
//  #10 //032   ----------------------------------------
 BYTE   W96
//  #10 //033   ----------------------------------------
 BYTE   W96
//  #10 //034   ----------------------------------------
 BYTE   W96
//  #10 //035   ----------------------------------------
 BYTE   W96
//  #10 //036   ----------------------------------------
 BYTE   W96
//  #10 //037   ----------------------------------------
 BYTE   W96
//  #10 //038   ----------------------------------------
 BYTE   W96
//  #10 //039   ----------------------------------------
 BYTE   W96
//  #10 //040   ----------------------------------------
 BYTE   W96
//  #10 //041   ----------------------------------------
 BYTE   GoTo
  POIN2 Label_015DF06A
 BYTE   FINE

//**************** Track 11 (Midi-Chn.10) ****************//

ClaretHollows_011:
//  #11 //000   ----------------------------------------
 BYTE   KEYSH   ClaretHollows_key+0
Label_015DF196:
 BYTE   VOICE   47
 BYTE   VOL   52*ClaretHollows_mvl/mxv
 BYTE   PAN   c_v-40
 BYTE   W96
//  #11 //001   ----------------------------------------
 BYTE   W96
//  #11 //002   ----------------------------------------
 BYTE   W96
//  #11 //003   ----------------------------------------
 BYTE   W96
//  #11 //004   ----------------------------------------
 BYTE   W96
//  #11 //005   ----------------------------------------
 BYTE   W96
//  #11 //006   ----------------------------------------
 BYTE   W96
//  #11 //007   ----------------------------------------
 BYTE   W96
//  #11 //008   ----------------------------------------
 BYTE   N23  En1  v064
 BYTE   W24
 BYTE   N23
 BYTE   W24
 BYTE   En1  v068
 BYTE   W24
 BYTE   En1  v076
 BYTE   W24
//  #11 //009   ----------------------------------------
 BYTE   En1  v084
 BYTE   W24
 BYTE   En1  v096
 BYTE   W24
 BYTE   En1  v112
 BYTE   W24
 BYTE   En1  v127
 BYTE   W24
//  #11 //010   ----------------------------------------
 BYTE   W96
//  #11 //011   ----------------------------------------
 BYTE   W96
//  #11 //012   ----------------------------------------
 BYTE   W96
//  #11 //013   ----------------------------------------
 BYTE   W84
 BYTE   N03  Bn1  v076
 BYTE   W04
 BYTE   Bn1  v084
 BYTE   W04
 BYTE   Bn1  v096
 BYTE   W04
//  #11 //014   ----------------------------------------
 BYTE   N11  Bn1  v120
 BYTE   W96
//  #11 //015   ----------------------------------------
 BYTE   W96
//  #11 //016   ----------------------------------------
 BYTE   W96
//  #11 //017   ----------------------------------------
 BYTE   W96
//  #11 //018   ----------------------------------------
 BYTE   W96
//  #11 //019   ----------------------------------------
 BYTE   W96
//  #11 //020   ----------------------------------------
Label_015DF1D3:
 BYTE   N05  Bn1  v124
 BYTE   W24
 BYTE   N05
 BYTE   W48
 BYTE   N03  Fn1  v076
 BYTE   W04
 BYTE   N03
 BYTE   W04
 BYTE   Fn1  v084
 BYTE   W04
 BYTE   Fn1  v096
 BYTE   W04
 BYTE   Fn1  v104
 BYTE   W04
 BYTE   Fn1  v112
 BYTE   W04
 BYTE   PEND 
//  #11 //021   ----------------------------------------
 BYTE   PATT
  POIN2 Label_015DF1D3
//  #11 //022   ----------------------------------------
 BYTE   N05  Fn1  v124
 BYTE   W24
 BYTE   N05
 BYTE   W48
 BYTE   N03  Fn1  v076
 BYTE   W04
 BYTE   N03
 BYTE   W04
 BYTE   Fn1  v084
 BYTE   W04
 BYTE   Fn1  v096
 BYTE   W04
 BYTE   Fn1  v104
 BYTE   W04
 BYTE   Fn1  v112
 BYTE   W04
//  #11 //023   ----------------------------------------
 BYTE   N08  Fn1  v127
 BYTE   W24
 BYTE   Fn1  v096
 BYTE   W24
 BYTE   N08
 BYTE   W24
 BYTE   N08
 BYTE   W24
//  #11 //024   ----------------------------------------
Label_015DF214:
 BYTE   N08  Fn1  v096
 BYTE   W24
 BYTE   N08
 BYTE   W24
 BYTE   N08
 BYTE   W24
 BYTE   N08
 BYTE   W24
 BYTE   PEND 
//  #11 //025   ----------------------------------------
 BYTE   PATT
  POIN2 Label_015DF214
//  #11 //026   ----------------------------------------
 BYTE   N08  Fn1  v096
 BYTE   W24
 BYTE   N08
 BYTE   W24
 BYTE   Bn1
 BYTE   W24
 BYTE   N08
 BYTE   W24
//  #11 //027   ----------------------------------------
Label_015DF22E:
 BYTE   N08  En2  v096
 BYTE   W24
 BYTE   N08
 BYTE   W24
 BYTE   N08
 BYTE   W24
 BYTE   N08
 BYTE   W24
 BYTE   PEND 
//  #11 //028   ----------------------------------------
 BYTE   PATT
  POIN2 Label_015DF22E
//  #11 //029   ----------------------------------------
 BYTE   PATT
  POIN2 Label_015DF22E
//  #11 //030   ----------------------------------------
 BYTE   N08  En2  v096
 BYTE   W24
 BYTE   N08
 BYTE   W24
 BYTE   Fn2
 BYTE   W24
 BYTE   Fs2
 BYTE   W24
//  #11 //031   ----------------------------------------
 BYTE   N03  Gn1  v116
 BYTE   W05
 BYTE   N02  Gn1  v120
 BYTE   W07
 BYTE   Gn1  v127
 BYTE   W24
 BYTE   N03
 BYTE   W06
 BYTE   N02  Gn1  v112
 BYTE   W05
 BYTE   N03  Gn1  v127
 BYTE   W24
 BYTE   N03
 BYTE   W06
 BYTE   Gn1  v120
 BYTE   W06
 BYTE   N02
 BYTE   W13
//  #11 //032   ----------------------------------------
 BYTE   W12
 BYTE   N02
 BYTE   W06
 BYTE   N03  Gn1  v112
 BYTE   W06
 BYTE   Gn1  v127
 BYTE   W72
//  #11 //033   ----------------------------------------
 BYTE   Gn1  v116
 BYTE   W05
 BYTE   N02  Gn1  v120
 BYTE   W07
 BYTE   Gn1  v127
 BYTE   W24
 BYTE   N03
 BYTE   W06
 BYTE   N02  Gn1  v112
 BYTE   W05
 BYTE   N03  Gn1  v127
 BYTE   W24
 BYTE   N03
 BYTE   W06
 BYTE   N02  Gn1  v120
 BYTE   W06
 BYTE   N02
 BYTE   W13
//  #11 //034   ----------------------------------------
 BYTE   W11
 BYTE   N02
 BYTE   W06
 BYTE   N03  Gn1  v112
 BYTE   W07
 BYTE   Gn1  v127
 BYTE   W72
//  #11 //035   ----------------------------------------
 BYTE   Dn2  v116
 BYTE   W06
 BYTE   Dn2  v092
 BYTE   W06
 BYTE   N04  Dn2  v108
 BYTE   W24
 BYTE   N03  Dn2  v112
 BYTE   W06
 BYTE   N02  Dn2  v108
 BYTE   W06
 BYTE   N03  Dn2  v104
 BYTE   W24
 BYTE   Dn2  v112
 BYTE   W06
 BYTE   Dn2  v108
 BYTE   W06
 BYTE   N02  Dn2  v104
 BYTE   W12
//  #11 //036   ----------------------------------------
 BYTE   W12
 BYTE   Dn2  v116
 BYTE   W06
 BYTE   N03  Dn2  v112
 BYTE   W06
 BYTE   Dn2  v104
 BYTE   W72
//  #11 //037   ----------------------------------------
 BYTE   N24  As1  v116
 BYTE   W36
 BYTE   N03  As1  v112
 BYTE   W06
 BYTE   As1  v092
 BYTE   W06
 BYTE   N24  As1  v116
 BYTE   W36
 BYTE   N03  As1  v112
 BYTE   W06
 BYTE   As1  v092
 BYTE   W06
//  #11 //038   ----------------------------------------
 BYTE   N24  As1  v116
 BYTE   W96
//  #11 //039   ----------------------------------------
 BYTE   Bn1
 BYTE   W36
 BYTE   N03  Bn1  v112
 BYTE   W06
 BYTE   Bn1  v092
 BYTE   W06
 BYTE   N24  Bn1  v116
 BYTE   W36
 BYTE   N03  Bn1  v112
 BYTE   W06
 BYTE   Bn1  v092
 BYTE   W06
//  #11 //040   ----------------------------------------
 BYTE   N24  Bn1  v116
 BYTE   W96
//  #11 //041   ----------------------------------------
 BYTE   GoTo
  POIN2 Label_015DF196
 BYTE   FINE

//**************** Track 12 (Midi-Chn.11) ****************//

ClaretHollows_012:
//  #12 //000   ----------------------------------------
 BYTE   KEYSH   ClaretHollows_key+0
Label_015DF312:
 BYTE   VOICE   104
 BYTE   VOL   37*ClaretHollows_mvl/mxv
 BYTE   PAN   c_v+0
 BYTE   W96
//  #12 //001   ----------------------------------------
 BYTE   W96
//  #12 //002   ----------------------------------------
 BYTE   W96
//  #12 //003   ----------------------------------------
 BYTE   W96
//  #12 //004   ----------------------------------------
 BYTE   W96
//  #12 //005   ----------------------------------------
 BYTE   W96
//  #12 //006   ----------------------------------------
 BYTE   W96
//  #12 //007   ----------------------------------------
 BYTE   W96
//  #12 //008   ----------------------------------------
 BYTE   W96
//  #12 //009   ----------------------------------------
 BYTE   W96
//  #12 //010   ----------------------------------------
 BYTE   W96
//  #12 //011   ----------------------------------------
 BYTE   W96
//  #12 //012   ----------------------------------------
 BYTE   W96
//  #12 //013   ----------------------------------------
 BYTE   W96
//  #12 //014   ----------------------------------------
 BYTE   W96
//  #12 //015   ----------------------------------------
 BYTE   W96
//  #12 //016   ----------------------------------------
 BYTE   W96
//  #12 //017   ----------------------------------------
 BYTE   W96
//  #12 //018   ----------------------------------------
 BYTE   W96
//  #12 //019   ----------------------------------------
 BYTE   W96
//  #12 //020   ----------------------------------------
 BYTE   W96
//  #12 //021   ----------------------------------------
 BYTE   W96
//  #12 //022   ----------------------------------------
 BYTE   W96
//  #12 //023   ----------------------------------------
 BYTE   N52  Bn3  v072
 BYTE   W60
 BYTE   N05  As3
 BYTE   W12
 BYTE   N03  Bn3
 BYTE   W12
 BYTE   En4
 BYTE   W12
//  #12 //024   ----------------------------------------
 BYTE   N80  Ds4
 BYTE   W96
//  #12 //025   ----------------------------------------
 BYTE   N48  Bn3
 BYTE   W60
 BYTE   N03  As3
 BYTE   W12
 BYTE   N02  Bn3
 BYTE   W12
 BYTE   N03  En4
 BYTE   W12
//  #12 //026   ----------------------------------------
 BYTE   N80  Ds4
 BYTE   W96
//  #12 //027   ----------------------------------------
Label_015DF34D:
 BYTE   N48  As4  v080
 BYTE   W60
 BYTE   N03  En4
 BYTE   W12
 BYTE   As4
 BYTE   W12
 BYTE   Bn4
 BYTE   W12
 BYTE   PEND 
//  #12 //028   ----------------------------------------
 BYTE   N15  As4
 BYTE   W24
 BYTE   N52  En4
 BYTE   W72
//  #12 //029   ----------------------------------------
 BYTE   PATT
  POIN2 Label_015DF34D
//  #12 //030   ----------------------------------------
 BYTE   N15  As4  v080
 BYTE   W24
 BYTE   N14  En4
 BYTE   W24
 BYTE   N15  Fn4
 BYTE   W24
 BYTE   Fs4
 BYTE   W24
//  #12 //031   ----------------------------------------
 BYTE   N03  Gn4
 BYTE   W12
 BYTE   N04
 BYTE   W24
 BYTE   N04
 BYTE   W12
 BYTE   N03
 BYTE   W24
 BYTE   N03
 BYTE   W12
 BYTE   N04
 BYTE   W12
//  #12 //032   ----------------------------------------
 BYTE   W12
 BYTE   N04
 BYTE   W12
 BYTE   N14
 BYTE   W24
 BYTE   Gs4
 BYTE   W24
 BYTE   An4
 BYTE   W24
//  #12 //033   ----------------------------------------
 BYTE   N03  As4
 BYTE   W12
 BYTE   N04
 BYTE   W24
 BYTE   N03
 BYTE   W12
 BYTE   N04
 BYTE   W24
 BYTE   N03
 BYTE   W12
 BYTE   N04
 BYTE   W12
//  #12 //034   ----------------------------------------
 BYTE   W12
 BYTE   N03
 BYTE   W12
 BYTE   N14
 BYTE   W24
 BYTE   N15  Bn4
 BYTE   W24
 BYTE   N14  Cn5
 BYTE   W24
//  #12 //035   ----------------------------------------
 BYTE   N03  Cs5
 BYTE   W12
 BYTE   N05
 BYTE   W24
 BYTE   N04
 BYTE   W12
 BYTE   N05
 BYTE   W24
 BYTE   N04
 BYTE   W12
 BYTE   N05
 BYTE   W12
//  #12 //036   ----------------------------------------
 BYTE   W12
 BYTE   N03
 BYTE   W12
 BYTE   N13
 BYTE   W24
 BYTE   Ds5
 BYTE   W24
 BYTE   En5
 BYTE   W24
//  #12 //037   ----------------------------------------
 BYTE   N05  Fn5  v072
 BYTE   W06
 BYTE   N03  Cn5
 BYTE   W06
 BYTE   Gn4
 BYTE   W06
 BYTE   N02  Cn5
 BYTE   W06
 BYTE   N04  Fn5
 BYTE   W06
 BYTE   N03  Cn5
 BYTE   W06
 BYTE   N04  Gn4
 BYTE   W06
 BYTE   N02  Cn5
 BYTE   W06
 BYTE   N04  Fn5
 BYTE   W06
 BYTE   N02  Cn5
 BYTE   W06
 BYTE   N04  Gn4
 BYTE   W06
 BYTE   N03  Cn5
 BYTE   W06
 BYTE   Fn5
 BYTE   W06
 BYTE   Cn5
 BYTE   W06
 BYTE   Gn4
 BYTE   W06
 BYTE   N04  Cn5
 BYTE   W06
//  #12 //038   ----------------------------------------
 BYTE   N03  Fn5
 BYTE   W06
 BYTE   Cn5
 BYTE   W06
 BYTE   Gn4
 BYTE   W06
 BYTE   Cn5
 BYTE   W06
 BYTE   Fn5
 BYTE   W06
 BYTE   N04  Cn5
 BYTE   W06
 BYTE   Gn4
 BYTE   W06
 BYTE   N02  Cn5
 BYTE   W06
 BYTE   N04  Fn4  v040
 BYTE   W06
 BYTE   N03  Cn4
 BYTE   W06
 BYTE   N04  Gn3
 BYTE   W06
 BYTE   N03  Cn4  v036
 BYTE   W06
 BYTE   N04  Fn4  v028
 BYTE   W06
 BYTE   Cn4
 BYTE   W06
 BYTE   Gn3
 BYTE   W06
 BYTE   N03  Cn4
 BYTE   W06
//  #12 //039   ----------------------------------------
 BYTE   N05  Gn5  v072
 BYTE   W06
 BYTE   N03  Dn5
 BYTE   W06
 BYTE   An4
 BYTE   W06
 BYTE   N02  Dn5
 BYTE   W06
 BYTE   N04  Gn5
 BYTE   W06
 BYTE   N03  Dn5
 BYTE   W06
 BYTE   N04  An4
 BYTE   W06
 BYTE   N02  Dn5
 BYTE   W06
 BYTE   N04  Gn5
 BYTE   W06
 BYTE   N02  Dn5
 BYTE   W06
 BYTE   N04  An4
 BYTE   W06
 BYTE   N03  Dn5
 BYTE   W06
 BYTE   Gn5
 BYTE   W06
 BYTE   Dn5
 BYTE   W06
 BYTE   An4
 BYTE   W06
 BYTE   N04  Dn5
 BYTE   W06
//  #12 //040   ----------------------------------------
 BYTE   N03  Gn5
 BYTE   W06
 BYTE   Dn5
 BYTE   W06
 BYTE   An4
 BYTE   W06
 BYTE   Dn5
 BYTE   W06
 BYTE   Gn5
 BYTE   W06
 BYTE   N04  Dn5
 BYTE   W06
 BYTE   An4
 BYTE   W06
 BYTE   N02  Dn5
 BYTE   W06
 BYTE   N04  Gn4  v040
 BYTE   W06
 BYTE   N03  Dn4
 BYTE   W06
 BYTE   N04  An3
 BYTE   W06
 BYTE   N03  Dn4  v036
 BYTE   W06
 BYTE   N04  Gn4  v028
 BYTE   W06
 BYTE   Dn4
 BYTE   W06
 BYTE   An3
 BYTE   W06
 BYTE   N03  Dn4
 BYTE   W06
//  #12 //041   ----------------------------------------
 BYTE   GoTo
  POIN2 Label_015DF312
 BYTE   FINE

//**************** Track 13 (Midi-Chn.12) ****************//

ClaretHollows_013:
//  #13 //000   ----------------------------------------
 BYTE   KEYSH   ClaretHollows_key+0
Label_017921F2:
 BYTE   VOICE   38
 BYTE   VOL   28*ClaretHollows_mvl/mxv
 BYTE   PAN   c_v+53
 BYTE   W96
//  #13 //001   ----------------------------------------
 BYTE   W96
//  #13 //002   ----------------------------------------
 BYTE   W96
//  #13 //003   ----------------------------------------
 BYTE   W96
//  #13 //004   ----------------------------------------
 BYTE   W96
//  #13 //005   ----------------------------------------
 BYTE   W12
 BYTE   N32  Dn6  v064
 BYTE   W03
 BYTE   An5
 BYTE   W03
 BYTE   Gn5
 BYTE   W18
 BYTE   N40  Fs5
 BYTE   W03
 BYTE   En5
 BYTE   W03
 BYTE   Bn4
 BYTE   W42
 BYTE   N36  An4  v056
 BYTE   W03
 BYTE   En4
 BYTE   W03
 BYTE   Dn4
 BYTE   W06
//  #13 //006   ----------------------------------------
 BYTE   W36
 BYTE   N48  Cs4  v044
 BYTE   W03
 BYTE   Bn3
 BYTE   W03
 BYTE   Fs3
 BYTE   W54
//  #13 //007   ----------------------------------------
 BYTE   W96
//  #13 //008   ----------------------------------------
 BYTE   W96
//  #13 //009   ----------------------------------------
 BYTE   W96
//  #13 //010   ----------------------------------------
 BYTE   W96
//  #13 //011   ----------------------------------------
 BYTE   W96
//  #13 //012   ----------------------------------------
 BYTE   W96
//  #13 //013   ----------------------------------------
 BYTE   W96
//  #13 //014   ----------------------------------------
 BYTE   W96
//  #13 //015   ----------------------------------------
 BYTE   W96
//  #13 //016   ----------------------------------------
 BYTE   W96
//  #13 //017   ----------------------------------------
 BYTE   W96
//  #13 //018   ----------------------------------------
 BYTE   W96
//  #13 //019   ----------------------------------------
 BYTE   W96
//  #13 //020   ----------------------------------------
 BYTE   W96
//  #13 //021   ----------------------------------------
 BYTE   W96
//  #13 //022   ----------------------------------------
 BYTE   W96
//  #13 //023   ----------------------------------------
 BYTE   W96
//  #13 //024   ----------------------------------------
 BYTE   W96
//  #13 //025   ----------------------------------------
 BYTE   W96
//  #13 //026   ----------------------------------------
 BYTE   W96
//  #13 //027   ----------------------------------------
 BYTE   W96
//  #13 //028   ----------------------------------------
 BYTE   W96
//  #13 //029   ----------------------------------------
 BYTE   W96
//  #13 //030   ----------------------------------------
 BYTE   W96
//  #13 //031   ----------------------------------------
 BYTE   W96
//  #13 //032   ----------------------------------------
 BYTE   W96
//  #13 //033   ----------------------------------------
 BYTE   W96
//  #13 //034   ----------------------------------------
 BYTE   W96
//  #13 //035   ----------------------------------------
 BYTE   W96
//  #13 //036   ----------------------------------------
 BYTE   W96
//  #13 //037   ----------------------------------------
 BYTE   W96
//  #13 //038   ----------------------------------------
 BYTE   W96
//  #13 //039   ----------------------------------------
 BYTE   W96
//  #13 //040   ----------------------------------------
 BYTE   W96
//  #13 //041   ----------------------------------------
 BYTE   GoTo
  POIN2 Label_017921F2
 BYTE   FINE

//******************************************************//
	ALIGN 4

ClaretHollows:
	BYTE	13	// NumTrks
	BYTE	0	// NumBlks
	BYTE	ClaretHollows_pri	// Priority
	BYTE	ClaretHollows_rev	// Reverb.
    
	POIN2	ClaretHollows_grp
    
	POIN2	ClaretHollows_001
	POIN2	ClaretHollows_002
	POIN2	ClaretHollows_003
	POIN2	ClaretHollows_004
	POIN2	ClaretHollows_005
	POIN2	ClaretHollows_006
	POIN2	ClaretHollows_007
	POIN2	ClaretHollows_008
	POIN2	ClaretHollows_009
	POIN2	ClaretHollows_010
	POIN2	ClaretHollows_011
	POIN2	ClaretHollows_012
	POIN2	ClaretHollows_013

	
