//Event file generated from Sappy .s format.
	#include "MPlayDef.event"

	#define	ColdJustice_grp  voicegroup000
	#define	ColdJustice_pri  0
	#define	ColdJustice_rev  0
	#define	ColdJustice_mvl  127
	#define	ColdJustice_key  0
	#define	ColdJustice_tbs  1
	#define	ColdJustice_exg  0
	#define	ColdJustice_cmp  1

	// .rodata
	//	ColdJustice
	ALIGN 4


//**************** Track 1 (Midi-Chn.0) ****************//

ColdJustice_001:
//  #01 //000   ----------------------------------------
 BYTE   KEYSH   ColdJustice_key+0
Label_0179619E:
 BYTE   TEMPO   78*ColdJustice_tbs/2
 BYTE   VOICE   1
 BYTE   VOL   28*ColdJustice_mvl/mxv
 BYTE   PAN   c_v-61
 BYTE   TIE  En4  v064
 BYTE   N96  Gn4
 BYTE   W96
//  #01 //001   ----------------------------------------
 BYTE   N80  Dn4
 BYTE   N80  Fs4
 BYTE   W02
 BYTE   EOT
 BYTE   En4
 BYTE   W92
 BYTE   W02
//  #01 //002   ----------------------------------------
 BYTE   N96  Dn4
 BYTE   N96  Fs4
 BYTE   W96
//  #01 //003   ----------------------------------------
 BYTE   N80  Cn4
 BYTE   N80  En4
 BYTE   W96
//  #01 //004   ----------------------------------------
 BYTE   N96  Cn4
 BYTE   N92  En4
 BYTE   W96
//  #01 //005   ----------------------------------------
 BYTE   TIE  Bn3
 BYTE   TIE  Ds4
 BYTE   W96
//  #01 //006   ----------------------------------------
 BYTE   N48  En4
 BYTE   W01
 BYTE   EOT
 BYTE   Ds4
 BYTE   W44
 BYTE   W03
 BYTE   N48
 BYTE   N44  Fs4
 BYTE   W01
 BYTE   EOT
 BYTE   Bn3
 BYTE   W44
 BYTE   W03
//  #01 //007   ----------------------------------------
 BYTE   N80  En4
 BYTE   N80  Gn4
 BYTE   W96
//  #01 //008   ----------------------------------------
 BYTE   TIE  En4
 BYTE   N92  Gn4
 BYTE   W96
//  #01 //009   ----------------------------------------
 BYTE   N84  An4
 BYTE   W80
 BYTE   W02
 BYTE   EOT
 BYTE   En4
 BYTE   W14
//  #01 //010   ----------------------------------------
 BYTE   TIE  Ds4
 BYTE   TIE  Fs4
 BYTE   W96
//  #01 //011   ----------------------------------------
 BYTE   N80  En4
 BYTE   N80  Gn4
 BYTE   W01
 BYTE   EOT
 BYTE   Ds4
 BYTE   W01
 BYTE   Fs4
 BYTE   W92
 BYTE   W02
//  #01 //012   ----------------------------------------
 BYTE   N92  En4
 BYTE   N92  An4
 BYTE   W96
//  #01 //013   ----------------------------------------
 BYTE   N84  Fn4
 BYTE   N88  An4
 BYTE   W96
//  #01 //014   ----------------------------------------
 BYTE   N92  Ds4
 BYTE   N92  Fs4
 BYTE   W96
//  #01 //015   ----------------------------------------
 BYTE   N48  En4
 BYTE   N48  Gn4
 BYTE   W48
 BYTE   N40  Cn4
 BYTE   N48  Fn4
 BYTE   W48
//  #01 //016   ----------------------------------------
 BYTE   N92  Bn3
 BYTE   N92  En4
 BYTE   W96
//  #01 //017   ----------------------------------------
 BYTE   N76  Bn3
 BYTE   N76  Ds4
 BYTE   W96
//  #01 //018   ----------------------------------------
 BYTE   GoTo
  POIN2 Label_0179619E
 BYTE   FINE

//**************** Track 2 (Midi-Chn.1) ****************//

ColdJustice_002:
//  #02 //000   ----------------------------------------
 BYTE   KEYSH   ColdJustice_key+0
Label_01795E6E:
 BYTE   VOICE   28
 BYTE   VOL   69*ColdJustice_mvl/mxv
 BYTE   PAN   c_v+0
 BYTE   N11  En1  v088
 BYTE   W12
 BYTE   N11
 BYTE   W12
 BYTE   N11
 BYTE   W12
 BYTE   N11
 BYTE   W12
 BYTE   N11
 BYTE   W12
 BYTE   N11
 BYTE   W12
 BYTE   N11
 BYTE   W12
 BYTE   N11
 BYTE   W12
//  #02 //001   ----------------------------------------
Label_01795E86:
 BYTE   N11  En1  v088
 BYTE   W12
 BYTE   N11
 BYTE   W12
 BYTE   N11
 BYTE   W12
 BYTE   N11
 BYTE   W12
 BYTE   N11
 BYTE   W12
 BYTE   N11
 BYTE   W12
 BYTE   N11
 BYTE   W12
 BYTE   N11
 BYTE   W12
 BYTE   PEND 
//  #02 //002   ----------------------------------------
 BYTE   PATT
  POIN2 Label_01795E86
//  #02 //003   ----------------------------------------
 BYTE   PATT
  POIN2 Label_01795E86
//  #02 //004   ----------------------------------------
Label_01795EA3:
 BYTE   N03  Cn2  v080
 BYTE   W12
 BYTE   N03
 BYTE   W12
 BYTE   N03
 BYTE   W12
 BYTE   N03
 BYTE   W12
 BYTE   N03
 BYTE   W12
 BYTE   N03
 BYTE   W12
 BYTE   N03
 BYTE   W12
 BYTE   N03
 BYTE   W12
 BYTE   PEND 
//  #02 //005   ----------------------------------------
 BYTE   N11  Bn1  v088
 BYTE   W12
 BYTE   N11
 BYTE   W12
 BYTE   N11
 BYTE   W12
 BYTE   N11
 BYTE   W12
 BYTE   An1
 BYTE   W12
 BYTE   N11
 BYTE   W12
 BYTE   N11
 BYTE   W12
 BYTE   N11
 BYTE   W12
//  #02 //006   ----------------------------------------
 BYTE   Gn1
 BYTE   W12
 BYTE   N11
 BYTE   W12
 BYTE   N11
 BYTE   W12
 BYTE   N11
 BYTE   W12
 BYTE   Ds1
 BYTE   W12
 BYTE   N11
 BYTE   W12
 BYTE   N11
 BYTE   W12
 BYTE   N11
 BYTE   W12
//  #02 //007   ----------------------------------------
 BYTE   PATT
  POIN2 Label_01795E86
//  #02 //008   ----------------------------------------
 BYTE   PATT
  POIN2 Label_01795EA3
//  #02 //009   ----------------------------------------
Label_01795EE2:
 BYTE   N11  An1  v088
 BYTE   W12
 BYTE   N11
 BYTE   W12
 BYTE   N11
 BYTE   W12
 BYTE   N11
 BYTE   W12
 BYTE   N11
 BYTE   W12
 BYTE   N11
 BYTE   W12
 BYTE   N11
 BYTE   W12
 BYTE   N11
 BYTE   W12
 BYTE   PEND 
//  #02 //010   ----------------------------------------
Label_01795EF5:
 BYTE   N11  Bn1  v088
 BYTE   W12
 BYTE   N11
 BYTE   W12
 BYTE   N11
 BYTE   W12
 BYTE   N11
 BYTE   W12
 BYTE   N11
 BYTE   W12
 BYTE   N11
 BYTE   W12
 BYTE   N11
 BYTE   W12
 BYTE   N11
 BYTE   W12
 BYTE   PEND 
//  #02 //011   ----------------------------------------
 BYTE   PATT
  POIN2 Label_01795E86
//  #02 //012   ----------------------------------------
 BYTE   PATT
  POIN2 Label_01795EE2
//  #02 //013   ----------------------------------------
 BYTE   N11  Fn1  v088
 BYTE   W12
 BYTE   N11
 BYTE   W12
 BYTE   N11
 BYTE   W12
 BYTE   N11
 BYTE   W12
 BYTE   N11
 BYTE   W12
 BYTE   N11
 BYTE   W12
 BYTE   N11
 BYTE   W12
 BYTE   N11
 BYTE   W12
//  #02 //014   ----------------------------------------
 BYTE   PATT
  POIN2 Label_01795EF5
//  #02 //015   ----------------------------------------
 BYTE   N03  Cn2  v080
 BYTE   W12
 BYTE   N03
 BYTE   W12
 BYTE   N03
 BYTE   W12
 BYTE   N03
 BYTE   W12
 BYTE   N11  Fn1  v088
 BYTE   W12
 BYTE   N11
 BYTE   W12
 BYTE   N11
 BYTE   W12
 BYTE   N11
 BYTE   W12
//  #02 //016   ----------------------------------------
 BYTE   PATT
  POIN2 Label_01795EF5
//  #02 //017   ----------------------------------------
 BYTE   N44  Bn1  v088
 BYTE   W96
//  #02 //018   ----------------------------------------
 BYTE   GoTo
  POIN2 Label_01795E6E
 BYTE   FINE

//**************** Track 3 (Midi-Chn.2) ****************//

ColdJustice_003:
//  #03 //000   ----------------------------------------
 BYTE   KEYSH   ColdJustice_key+0
Label_01795B2E:
 BYTE   VOICE   18
 BYTE   VOL   41*ColdJustice_mvl/mxv
 BYTE   PAN   c_v+0
 BYTE   N72  En4  v088
 BYTE   W78
 BYTE   N05  Bn3  v072
 BYTE   W06
 BYTE   Gn4
 BYTE   W06
 BYTE   En4  v080
 BYTE   W06
//  #03 //001   ----------------------------------------
 BYTE   N44  Fs4  v088
 BYTE   W42
 BYTE   An4  v064
 BYTE   W03
 BYTE   N40  Dn5  v072
 BYTE   W03
 BYTE   N36  Fs5  v080
 BYTE   W48
//  #03 //002   ----------------------------------------
 BYTE   N76  Fs4  v088
 BYTE   W78
 BYTE   N05  An3  v076
 BYTE   W06
 BYTE   Fs4
 BYTE   W06
 BYTE   Dn4  v084
 BYTE   W06
//  #03 //003   ----------------------------------------
 BYTE   N32  En4  v088
 BYTE   W42
 BYTE   N48  Gn4  v076
 BYTE   W03
 BYTE   N44  Cn5  v080
 BYTE   W03
 BYTE   N42  En5
 BYTE   W48
//  #03 //004   ----------------------------------------
 BYTE   N76  En4  v084
 BYTE   W78
 BYTE   N05  Cn4  v064
 BYTE   W06
 BYTE   En4  v076
 BYTE   W06
 BYTE   Cn4  v080
 BYTE   W06
//  #03 //005   ----------------------------------------
 BYTE   N44  Ds4  v088
 BYTE   W48
 BYTE   N23  En4  v084
 BYTE   W24
 BYTE   Fs4
 BYTE   W24
//  #03 //006   ----------------------------------------
 BYTE   N44  Gn4  v092
 BYTE   W48
 BYTE   N40  Bn4
 BYTE   W42
 BYTE   N05  An4  v076
 BYTE   W06
//  #03 //007   ----------------------------------------
 BYTE   N76  Gn4  v092
 BYTE   W96
//  #03 //008   ----------------------------------------
 BYTE   En4  v084
 BYTE   W78
 BYTE   N05  En4  v080
 BYTE   W06
 BYTE   Gn4
 BYTE   W06
 BYTE   En4
 BYTE   W06
//  #03 //009   ----------------------------------------
 BYTE   N76  An4  v092
 BYTE   W96
//  #03 //010   ----------------------------------------
 BYTE   W24
 BYTE   N23  Fs4  v088
 BYTE   W24
 BYTE   Bn4
 BYTE   W24
 BYTE   An4
 BYTE   W24
//  #03 //011   ----------------------------------------
 BYTE   N05  Gn4  v092
 BYTE   W06
 BYTE   Fs4
 BYTE   W06
 BYTE   N64  Gn4
 BYTE   W84
//  #03 //012   ----------------------------------------
 BYTE   W30
 BYTE   N05  Cn4  v080
 BYTE   W06
 BYTE   En4
 BYTE   W06
 BYTE   Cn4  v088
 BYTE   W06
 BYTE   N76  An4  v092
 BYTE   W48
//  #03 //013   ----------------------------------------
 BYTE   W30
 BYTE   N05  Cn4  v080
 BYTE   W06
 BYTE   Fn4
 BYTE   W06
 BYTE   Cn4
 BYTE   W06
 BYTE   N76  An4  v092
 BYTE   W48
//  #03 //014   ----------------------------------------
 BYTE   W24
 BYTE   N23  Ds4  v088
 BYTE   W24
 BYTE   En4
 BYTE   W24
 BYTE   Fs4
 BYTE   W24
//  #03 //015   ----------------------------------------
 BYTE   N05  Gn4  v092
 BYTE   W06
 BYTE   Fs4
 BYTE   W06
 BYTE   N32  Gn4
 BYTE   W36
 BYTE   N05  An4
 BYTE   W06
 BYTE   Bn4
 BYTE   W06
 BYTE   N32  Cn5
 BYTE   W36
//  #03 //016   ----------------------------------------
 BYTE   W36
 BYTE   N05  Bn4  v088
 BYTE   W06
 BYTE   Cn5
 BYTE   W06
 BYTE   N32  Bn4  v092
 BYTE   W36
 BYTE   N05  Bn4  v084
 BYTE   W06
 BYTE   An4
 BYTE   W06
//  #03 //017   ----------------------------------------
 BYTE   N52  Bn4  v092
 BYTE   W96
//  #03 //018   ----------------------------------------
 BYTE   GoTo
  POIN2 Label_01795B2E
 BYTE   FINE

//**************** Track 4 (Midi-Chn.3) ****************//

ColdJustice_004:
//  #04 //000   ----------------------------------------
 BYTE   KEYSH   ColdJustice_key+0
Label_015E1986:
 BYTE   VOICE   100
 BYTE   VOL   33*ColdJustice_mvl/mxv
 BYTE   PAN   c_v+62
 BYTE   N23  En1  v080
 BYTE   N68  Bn2  v072
 BYTE   N68  En3  v076
 BYTE   N68  Gn3  v080
 BYTE   W24
 BYTE   N23  En1
 BYTE   W24
 BYTE   N23
 BYTE   W24
 BYTE   N23
 BYTE   N23  Bn2
 BYTE   W06
 BYTE   N11  En3  v084
 BYTE   W06
 BYTE   Gn3
 BYTE   W06
 BYTE   N05  En3
 BYTE   W06
//  #04 //001   ----------------------------------------
 BYTE   N23  En1  v080
 BYTE   N40  An2  v084
 BYTE   N40  Dn3  v088
 BYTE   N44  Fs3  v084
 BYTE   W24
 BYTE   N23  En1  v080
 BYTE   W18
 BYTE   N52  An3
 BYTE   W03
 BYTE   N48  Dn4  v088
 BYTE   W03
 BYTE   N23  En1  v080
 BYTE   N44  Fs4  v092
 BYTE   W24
 BYTE   N23  En1  v080
 BYTE   W24
//  #04 //002   ----------------------------------------
 BYTE   N23
 BYTE   N68  An2  v084
 BYTE   N64  Dn3
 BYTE   N64  Fs3
 BYTE   W24
 BYTE   N23  En1  v080
 BYTE   W24
 BYTE   N23
 BYTE   W24
 BYTE   N23
 BYTE   N23  An2  v088
 BYTE   W06
 BYTE   N11  Dn3
 BYTE   W06
 BYTE   Fs3  v084
 BYTE   W06
 BYTE   N05  Dn3  v088
 BYTE   W06
//  #04 //003   ----------------------------------------
 BYTE   N23  En1  v080
 BYTE   N40  Gn2
 BYTE   N40  Cn3  v084
 BYTE   N40  En3  v088
 BYTE   W24
 BYTE   N23  En1  v080
 BYTE   W18
 BYTE   N40  Gn3
 BYTE   W03
 BYTE   N36  Cn4  v084
 BYTE   W03
 BYTE   N23  En1  v080
 BYTE   N36  En4  v088
 BYTE   W24
 BYTE   N23  En1  v080
 BYTE   W24
//  #04 //004   ----------------------------------------
 BYTE   Cn1
 BYTE   N68  Gn2  v084
 BYTE   N68  Cn3  v088
 BYTE   N68  En3  v084
 BYTE   W24
 BYTE   N23  Cn1  v080
 BYTE   W24
 BYTE   N23
 BYTE   W24
 BYTE   N23
 BYTE   N23  Gn2  v088
 BYTE   W06
 BYTE   N11  Cn3
 BYTE   W06
 BYTE   En3  v084
 BYTE   W06
 BYTE   N05  Cn3  v088
 BYTE   W06
//  #04 //005   ----------------------------------------
 BYTE   N23  Bn0  v080
 BYTE   N68  Fs2  v084
 BYTE   N68  Bn2  v088
 BYTE   N68  Ds3  v084
 BYTE   W24
 BYTE   N23  Bn0  v080
 BYTE   W24
 BYTE   An0
 BYTE   W24
 BYTE   N23
 BYTE   N23  Fs2  v088
 BYTE   W06
 BYTE   N11  An2
 BYTE   W06
 BYTE   Ds3  v084
 BYTE   W06
 BYTE   N05  An2  v088
 BYTE   W06
//  #04 //006   ----------------------------------------
 BYTE   N23  Gn0  v080
 BYTE   N44  Gn2  v084
 BYTE   N44  Bn2  v088
 BYTE   N44  En3  v084
 BYTE   W24
 BYTE   N23  Gn0  v080
 BYTE   W24
 BYTE   Ds0
 BYTE   N44  Bn2  v084
 BYTE   N44  Ds3
 BYTE   N44  An3
 BYTE   W24
 BYTE   N23  Ds0  v080
 BYTE   W24
//  #04 //007   ----------------------------------------
 BYTE   En0
 BYTE   N88  Bn2  v084
 BYTE   N88  En3
 BYTE   N88  Gn3
 BYTE   W24
 BYTE   N23  En0  v080
 BYTE   W24
 BYTE   N23
 BYTE   W24
 BYTE   N23
 BYTE   W24
//  #04 //008   ----------------------------------------
 BYTE   Cn1
 BYTE   N68  Gn2  v084
 BYTE   N68  Cn3
 BYTE   N68  En3
 BYTE   W24
 BYTE   N23  Cn1  v080
 BYTE   W24
 BYTE   N23
 BYTE   W24
 BYTE   N23
 BYTE   N23  Gn2  v088
 BYTE   W06
 BYTE   N11  Cn3
 BYTE   W06
 BYTE   En3  v084
 BYTE   W06
 BYTE   N05  Cn3  v088
 BYTE   W06
//  #04 //009   ----------------------------------------
 BYTE   N23  An0  v080
 BYTE   N80  Cn3  v084
 BYTE   N80  En3
 BYTE   N80  An3
 BYTE   W24
 BYTE   N23  An0  v080
 BYTE   W24
 BYTE   N23
 BYTE   W24
 BYTE   N23
 BYTE   W24
//  #04 //010   ----------------------------------------
 BYTE   Bn0
 BYTE   N44  Ds3  v084
 BYTE   N44  Fs3
 BYTE   N44  Bn3
 BYTE   W24
 BYTE   N23  Bn0  v080
 BYTE   W24
 BYTE   N23
 BYTE   N44  Ds3  v084
 BYTE   N44  Fs3
 BYTE   N44  An3
 BYTE   W24
 BYTE   N23  Bn0  v080
 BYTE   W24
//  #04 //011   ----------------------------------------
 BYTE   En0
 BYTE   N80  Bn2  v084
 BYTE   N80  En3
 BYTE   N80  Gn3
 BYTE   W24
 BYTE   N23  En0  v080
 BYTE   W24
 BYTE   N23
 BYTE   W24
 BYTE   N23
 BYTE   W24
//  #04 //012   ----------------------------------------
 BYTE   An0
 BYTE   N68  Cn3  v084
 BYTE   N68  En3
 BYTE   N68  An3
 BYTE   W24
 BYTE   N23  An0  v080
 BYTE   W24
 BYTE   N23
 BYTE   W24
 BYTE   N23
 BYTE   N23  An2  v088
 BYTE   W06
 BYTE   N11  Cn3
 BYTE   W06
 BYTE   En3  v084
 BYTE   W06
 BYTE   N05  Cn3  v088
 BYTE   W06
//  #04 //013   ----------------------------------------
 BYTE   N23  Fn0  v080
 BYTE   N80  Cn3  v084
 BYTE   N80  Fn3
 BYTE   N80  An3
 BYTE   W24
 BYTE   N23  Fn0  v080
 BYTE   W24
 BYTE   N23
 BYTE   W24
 BYTE   N23
 BYTE   W24
//  #04 //014   ----------------------------------------
 BYTE   Bn0
 BYTE   N44  Fs2  v084
 BYTE   N44  Bn2
 BYTE   N44  Ds3
 BYTE   W24
 BYTE   N23  Bn0  v080
 BYTE   W24
 BYTE   N23
 BYTE   N44  Fs2  v084
 BYTE   N44  An2
 BYTE   N44  Ds3
 BYTE   W24
 BYTE   N23  Bn0  v080
 BYTE   W24
//  #04 //015   ----------------------------------------
 BYTE   Cn1
 BYTE   N44  Gn2  v084
 BYTE   N44  Cn3
 BYTE   N44  En3
 BYTE   W24
 BYTE   N23  Cn1  v080
 BYTE   W24
 BYTE   Fn0
 BYTE   N44  An2  v084
 BYTE   N44  Cn3
 BYTE   N44  Fn3
 BYTE   W24
 BYTE   N23  Fn0  v080
 BYTE   W24
//  #04 //016   ----------------------------------------
 BYTE   Bn0
 BYTE   N68  An2  v084
 BYTE   N68  Bn2
 BYTE   N68  En3
 BYTE   W24
 BYTE   N23  Bn0  v080
 BYTE   W24
 BYTE   N23
 BYTE   W24
 BYTE   N23
 BYTE   N23  An2  v088
 BYTE   W06
 BYTE   N11  Bn2
 BYTE   W06
 BYTE   En3  v084
 BYTE   W06
 BYTE   N05  Bn2  v088
 BYTE   W06
//  #04 //017   ----------------------------------------
 BYTE   N92  Bn0  v080
 BYTE   N92  An2  v084
 BYTE   N92  Bn2
 BYTE   N92  Ds3
 BYTE   W96
//  #04 //018   ----------------------------------------
 BYTE   GoTo
  POIN2 Label_015E1986
 BYTE   FINE

//**************** Track 5 (Midi-Chn.4) ****************//

ColdJustice_005:
//  #05 //000   ----------------------------------------
 BYTE   KEYSH   ColdJustice_key+0
Label_015E1B86:
 BYTE   VOICE   28
 BYTE   VOL   69*ColdJustice_mvl/mxv
 BYTE   PAN   c_v+0
 BYTE   N11  En1  v084
 BYTE   W24
 BYTE   N10
 BYTE   W24
 BYTE   N11
 BYTE   W24
 BYTE   N10
 BYTE   W24
//  #05 //001   ----------------------------------------
 BYTE   N11
 BYTE   W24
 BYTE   N10
 BYTE   W24
 BYTE   N11
 BYTE   W24
 BYTE   N11
 BYTE   W24
//  #05 //002   ----------------------------------------
 BYTE   N11
 BYTE   W24
 BYTE   N11
 BYTE   W24
 BYTE   N12
 BYTE   W24
 BYTE   N11
 BYTE   W24
//  #05 //003   ----------------------------------------
Label_015E1BA6:
 BYTE   N10  En1  v084
 BYTE   W24
 BYTE   N11
 BYTE   W24
 BYTE   N10
 BYTE   W24
 BYTE   N11
 BYTE   W24
 BYTE   PEND 
//  #05 //004   ----------------------------------------
Label_015E1BB1:
 BYTE   N11  Cn2  v084
 BYTE   W24
 BYTE   N10
 BYTE   W24
 BYTE   N11
 BYTE   W24
 BYTE   N10
 BYTE   W24
 BYTE   PEND 
//  #05 //005   ----------------------------------------
 BYTE   N11  Bn1
 BYTE   W24
 BYTE   N10
 BYTE   W24
 BYTE   N11  An1
 BYTE   W24
 BYTE   N11
 BYTE   W24
//  #05 //006   ----------------------------------------
 BYTE   Gn1
 BYTE   W24
 BYTE   N11
 BYTE   W24
 BYTE   N12  Ds2
 BYTE   W24
 BYTE   N11
 BYTE   W24
//  #05 //007   ----------------------------------------
 BYTE   N10  En2
 BYTE   W24
 BYTE   N11
 BYTE   W24
 BYTE   N10
 BYTE   W24
 BYTE   N11
 BYTE   W24
//  #05 //008   ----------------------------------------
 BYTE   PATT
  POIN2 Label_015E1BB1
//  #05 //009   ----------------------------------------
 BYTE   N11  An1  v084
 BYTE   W24
 BYTE   N10
 BYTE   W24
 BYTE   N11
 BYTE   W24
 BYTE   N11
 BYTE   W24
//  #05 //010   ----------------------------------------
Label_015E1BE7:
 BYTE   N11  Bn1  v084
 BYTE   W24
 BYTE   N11
 BYTE   W24
 BYTE   N12
 BYTE   W24
 BYTE   N11
 BYTE   W24
 BYTE   PEND 
//  #05 //011   ----------------------------------------
 BYTE   PATT
  POIN2 Label_015E1BA6
//  #05 //012   ----------------------------------------
 BYTE   N11  An1  v084
 BYTE   W24
 BYTE   N10
 BYTE   W24
 BYTE   N11
 BYTE   W24
 BYTE   N10
 BYTE   W24
//  #05 //013   ----------------------------------------
 BYTE   N11  Fn1
 BYTE   W24
 BYTE   N10
 BYTE   W24
 BYTE   N11
 BYTE   W24
 BYTE   N11
 BYTE   W24
//  #05 //014   ----------------------------------------
 BYTE   PATT
  POIN2 Label_015E1BE7
//  #05 //015   ----------------------------------------
 BYTE   N10  Cn2  v084
 BYTE   W24
 BYTE   N11
 BYTE   W24
 BYTE   N10  Fn1
 BYTE   W24
 BYTE   N11
 BYTE   W24
//  #05 //016   ----------------------------------------
 BYTE   N10  Bn1
 BYTE   W24
 BYTE   N11
 BYTE   W24
 BYTE   N10
 BYTE   W24
 BYTE   N11
 BYTE   W24
//  #05 //017   ----------------------------------------
 BYTE   N52
 BYTE   W96
//  #05 //018   ----------------------------------------
 BYTE   GoTo
  POIN2 Label_015E1B86
 BYTE   FINE

//**************** Track 6 (Midi-Chn.5) ****************//

ColdJustice_006:
//  #06 //000   ----------------------------------------
 BYTE   KEYSH   ColdJustice_key+0
Label_015E1C42:
 BYTE   VOICE   124
 BYTE   VOL   23*ColdJustice_mvl/mxv
 BYTE   PAN   c_v+0
 BYTE   N02  Cn1  v127
 BYTE   N92  Fn4
 BYTE   W12
 BYTE   N02  Fn1  v084
 BYTE   W12
 BYTE   N03  Fn1  v120
 BYTE   N02  Fs1  v112
 BYTE   W12
 BYTE   Cn1  v116
 BYTE   N02  Fn1  v100
 BYTE   W12
 BYTE   Cn1  v120
 BYTE   N02  Fn1  v104
 BYTE   W12
 BYTE   Fn1  v092
 BYTE   W12
 BYTE   Fn1  v127
 BYTE   N02  Fs1  v120
 BYTE   W12
 BYTE   Fn1  v108
 BYTE   W12
//  #06 //001   ----------------------------------------
Label_015E1C71:
 BYTE   N02  Cn1  v120
 BYTE   N02  Fn1  v104
 BYTE   W12
 BYTE   Fn1  v092
 BYTE   W12
 BYTE   Fn1  v120
 BYTE   N02  Fs1
 BYTE   W12
 BYTE   Cn1  v116
 BYTE   N02  Fn1  v100
 BYTE   W12
 BYTE   Cn1  v120
 BYTE   N02  Fn1  v108
 BYTE   W12
 BYTE   Fn1  v100
 BYTE   W12
 BYTE   Fn1  v124
 BYTE   N02  Fs1  v116
 BYTE   W12
 BYTE   Fn1  v108
 BYTE   W12
 BYTE   PEND 
//  #06 //002   ----------------------------------------
Label_015E1C99:
 BYTE   N03  Cn1  v116
 BYTE   N02  Fn1  v108
 BYTE   W12
 BYTE   Fn1  v100
 BYTE   W12
 BYTE   Fn1  v124
 BYTE   N02  Fs1  v112
 BYTE   W12
 BYTE   Cn1  v116
 BYTE   N02  Fn1  v108
 BYTE   W12
 BYTE   Cn1  v120
 BYTE   N02  Fn1
 BYTE   W12
 BYTE   Fn1  v116
 BYTE   W12
 BYTE   Fn1  v127
 BYTE   N02  Fs1  v120
 BYTE   W12
 BYTE   N03  Fn1  v116
 BYTE   W12
 BYTE   PEND 
//  #06 //003   ----------------------------------------
 BYTE   Cn1
 BYTE   N02  Fn1  v108
 BYTE   W12
 BYTE   Fn1  v100
 BYTE   W12
 BYTE   Fn1  v124
 BYTE   N02  Fs1  v112
 BYTE   W12
 BYTE   Cn1  v116
 BYTE   N02  Fn1  v108
 BYTE   W12
 BYTE   Cn1  v116
 BYTE   N02  Fn1  v104
 BYTE   W12
 BYTE   Fn1  v088
 BYTE   W06
 BYTE   An3  v060
 BYTE   W06
 BYTE   An3  v116
 BYTE   W12
 BYTE   Dn2  v068
 BYTE   W12
//  #06 //004   ----------------------------------------
 BYTE   Cn1  v127
 BYTE   N92  An2
 BYTE   W12
 BYTE   N02  Fn1  v084
 BYTE   W12
 BYTE   N03  Fn1  v120
 BYTE   N02  Fs1  v112
 BYTE   W12
 BYTE   Cn1  v116
 BYTE   N02  Fn1  v100
 BYTE   W12
 BYTE   Cn1  v120
 BYTE   N02  Fn1  v104
 BYTE   W12
 BYTE   Fn1  v092
 BYTE   W12
 BYTE   Fn1  v127
 BYTE   N02  Fs1  v120
 BYTE   W12
 BYTE   Fn1  v108
 BYTE   W12
//  #06 //005   ----------------------------------------
 BYTE   PATT
  POIN2 Label_015E1C71
//  #06 //006   ----------------------------------------
 BYTE   PATT
  POIN2 Label_015E1C99
//  #06 //007   ----------------------------------------
 BYTE   N02  Cn1  v120
 BYTE   N02  Fn1  v124
 BYTE   W12
 BYTE   N03  Fn1  v112
 BYTE   W12
 BYTE   N02  Fn1  v127
 BYTE   N02  Fs1  v120
 BYTE   W12
 BYTE   Fn1  v127
 BYTE   W06
 BYTE   Bn3  v052
 BYTE   W06
 BYTE   Bn3  v127
 BYTE   W12
 BYTE   An3  v048
 BYTE   W06
 BYTE   An3  v052
 BYTE   W06
 BYTE   An3  v127
 BYTE   W12
 BYTE   N03  Dn2  v080
 BYTE   W12
//  #06 //008   ----------------------------------------
 BYTE   N02  Cn1  v127
 BYTE   N92  An2
 BYTE   W12
 BYTE   N02  Fn1  v084
 BYTE   W12
 BYTE   N03  Fn1  v120
 BYTE   N02  Fs1  v112
 BYTE   W12
 BYTE   Cn1  v116
 BYTE   N02  Fn1  v100
 BYTE   W11
 BYTE   Cn1  v120
 BYTE   W01
 BYTE   Fn1  v104
 BYTE   W12
 BYTE   Fn1  v092
 BYTE   W12
 BYTE   Fn1  v127
 BYTE   N02  Fs1  v120
 BYTE   W12
 BYTE   Fn1  v108
 BYTE   W11
 BYTE   Cn1  v120
 BYTE   W01
//  #06 //009   ----------------------------------------
 BYTE   Fn1  v104
 BYTE   W12
 BYTE   Fn1  v092
 BYTE   W12
 BYTE   Fn1  v120
 BYTE   N02  Fs1
 BYTE   W12
 BYTE   Cn1  v116
 BYTE   N02  Fn1  v100
 BYTE   W12
 BYTE   Cn1  v120
 BYTE   N02  Fn1  v108
 BYTE   W12
 BYTE   Fn1  v100
 BYTE   W12
 BYTE   Fn1  v124
 BYTE   N02  Fs1  v116
 BYTE   W12
 BYTE   Fn1  v108
 BYTE   W12
//  #06 //010   ----------------------------------------
 BYTE   PATT
  POIN2 Label_015E1C99
//  #06 //011   ----------------------------------------
 BYTE   PATT
  POIN2 Label_015E1C99
//  #06 //012   ----------------------------------------
 BYTE   PATT
  POIN2 Label_015E1C99
//  #06 //013   ----------------------------------------
 BYTE   PATT
  POIN2 Label_015E1C99
//  #06 //014   ----------------------------------------
 BYTE   PATT
  POIN2 Label_015E1C99
//  #06 //015   ----------------------------------------
 BYTE   PATT
  POIN2 Label_015E1C99
//  #06 //016   ----------------------------------------
 BYTE   PATT
  POIN2 Label_015E1C99
//  #06 //017   ----------------------------------------
 BYTE   N02  Cn1  v127
 BYTE   N92  An2
 BYTE   W42
 BYTE   N02  Bn3  v052
 BYTE   W06
 BYTE   Bn3  v127
 BYTE   W12
 BYTE   An3  v048
 BYTE   W06
 BYTE   An3  v052
 BYTE   W06
 BYTE   An3  v127
 BYTE   W12
 BYTE   N03  Dn2  v080
 BYTE   W12
//  #06 //018   ----------------------------------------
 BYTE   GoTo
  POIN2 Label_015E1C42
 BYTE   FINE

//******************************************************//
	ALIGN 4

ColdJustice:
	BYTE	6	// NumTrks
	BYTE	0	// NumBlks
	BYTE	ColdJustice_pri	// Priority
	BYTE	ColdJustice_rev	// Reverb.
    
	POIN2	ColdJustice_grp
    
	POIN2	ColdJustice_001
	POIN2	ColdJustice_002
	POIN2	ColdJustice_003
	POIN2	ColdJustice_004
	POIN2	ColdJustice_005
	POIN2	ColdJustice_006

	
