//Event file generated from Sappy .s format.
	#include "MPlayDef.event"

	#define	Crisis_grp  voicegroup000
	#define	Crisis_pri  0
	#define	Crisis_rev  0
	#define	Crisis_mvl  127
	#define	Crisis_key  0
	#define	Crisis_tbs  1
	#define	Crisis_exg  0
	#define	Crisis_cmp  1

	// .rodata
	//	Crisis
	ALIGN 4


//**************** Track 1 (Midi-Chn.0) ****************//

Crisis_001:
//  #01 //000   ----------------------------------------
 BYTE   KEYSH   Crisis_key+0
Label_5757D6:
 BYTE   TEMPO   190*Crisis_tbs/2
 BYTE   VOICE   40
 BYTE   VOL   40*Crisis_mvl/mxv
 BYTE   N48  Fn3  v100
 BYTE   W72
 BYTE   Ds3
 BYTE   W72
//  #01 //001   ----------------------------------------
 BYTE   Fn4
 BYTE   W72
 BYTE   Ds4
 BYTE   W72
//  #01 //002   ----------------------------------------
 BYTE   Fn3
 BYTE   W72
 BYTE   Ds3
 BYTE   W72
//  #01 //003   ----------------------------------------
Label_5757EA:
 BYTE   N48  Fn4  v100
 BYTE   W48
 BYTE   N12  Ds4
 BYTE   W12
 BYTE   Fn4
 BYTE   W12
 BYTE   PEND 
 BYTE   N72  Fs4
 BYTE   W72
//  #01 //004   ----------------------------------------
 BYTE   W72
 BYTE   W72
//  #01 //005   ----------------------------------------
 BYTE   W72
 BYTE   W72
//  #01 //006   ----------------------------------------
 BYTE   W72
 BYTE   W72
//  #01 //007   ----------------------------------------
 BYTE   W72
 BYTE   W72
//  #01 //008   ----------------------------------------
 BYTE   W72
 BYTE   W72
//  #01 //009   ----------------------------------------
 BYTE   W72
 BYTE   W72
//  #01 //010   ----------------------------------------
 BYTE   W72
 BYTE   W72
//  #01 //011   ----------------------------------------
 BYTE   W72
 BYTE   Ds2
 BYTE   W72
//  #01 //012   ----------------------------------------
 BYTE   N48
 BYTE   W72
 BYTE   N48
 BYTE   W72
//  #01 //013   ----------------------------------------
 BYTE   N48
 BYTE   W72
 BYTE   N48
 BYTE   W72
//  #01 //014   ----------------------------------------
 BYTE   Fn3
 BYTE   W72
 BYTE   Ds3
 BYTE   W72
//  #01 //015   ----------------------------------------
 BYTE   Fn4
 BYTE   W72
 BYTE   Ds4
 BYTE   W72
//  #01 //016   ----------------------------------------
 BYTE   Fn3
 BYTE   W72
 BYTE   Ds3
 BYTE   W72
//  #01 //017   ----------------------------------------
 BYTE   PATT
  POIN2 Label_5757EA
//  #01 //018   ----------------------------------------
 BYTE   N72  Fs4  v100
 BYTE   W72
 BYTE   W72
//  #01 //019   ----------------------------------------
 BYTE   W72
 BYTE   W72
//  #01 //020   ----------------------------------------
 BYTE   W72
 BYTE   W72
//  #01 //021   ----------------------------------------
 BYTE   W72
 BYTE   W72
//  #01 //022   ----------------------------------------
 BYTE   W72
 BYTE   W72
//  #01 //023   ----------------------------------------
 BYTE   W72
 BYTE   W72
//  #01 //024   ----------------------------------------
 BYTE   W72
 BYTE   W72
//  #01 //025   ----------------------------------------
 BYTE   W72
 BYTE   W72
//  #01 //026   ----------------------------------------
 BYTE   Ds2
 BYTE   W72
 BYTE   N48
 BYTE   W72
//  #01 //027   ----------------------------------------
 BYTE   N48
 BYTE   W72
 BYTE   N48
 BYTE   W72
//  #01 //028   ----------------------------------------
 BYTE   N48
 BYTE   W72
Label_57583E:
 BYTE   N12  Ds2  v100
 BYTE   W24
//  #01 //029   ----------------------------------------
 BYTE   N12
 BYTE   W24
 BYTE   N12
 BYTE   W12
 BYTE   N12
 BYTE   W12
 BYTE   PEND 
//  #01 //030   ----------------------------------------
 BYTE   PATT
  POIN2 Label_57583E
//  #01 //031   ----------------------------------------
Label_57584E:
 BYTE   N12  Fn2  v100
 BYTE   W24
 BYTE   N12
 BYTE   W24
 BYTE   N12
 BYTE   W12
 BYTE   N12
 BYTE   W12
 BYTE   PEND 
//  #01 //032   ----------------------------------------
 BYTE   PATT
  POIN2 Label_57584E
//  #01 //033   ----------------------------------------
Label_57585E:
 BYTE   N12  Fs2  v100
 BYTE   W24
 BYTE   N12
 BYTE   W24
 BYTE   N12
 BYTE   W12
 BYTE   N12
 BYTE   W12
 BYTE   PEND 
//  #01 //034   ----------------------------------------
 BYTE   PATT
  POIN2 Label_57585E
//  #01 //035   ----------------------------------------
 BYTE   PATT
  POIN2 Label_57584E
//  #01 //036   ----------------------------------------
 BYTE   PATT
  POIN2 Label_57584E
//  #01 //037   ----------------------------------------
 BYTE   VOL   40*Crisis_mvl/mxv
 BYTE   N48  Fn3  v100
 BYTE   W72
 BYTE   Ds3
 BYTE   W72
//  #01 //038   ----------------------------------------
 BYTE   Fn4
 BYTE   W72
 BYTE   Ds4
 BYTE   W72
//  #01 //039   ----------------------------------------
 BYTE   Fn3
 BYTE   W72
 BYTE   Ds3
 BYTE   W72
//  #01 //040   ----------------------------------------
 BYTE   PATT
  POIN2 Label_5757EA
//  #01 //041   ----------------------------------------
 BYTE   N72  Fs4  v100
 BYTE   W72
 BYTE   W72
//  #01 //042   ----------------------------------------
 BYTE   W72
 BYTE   W72
//  #01 //043   ----------------------------------------
 BYTE   W72
 BYTE   W72
//  #01 //044   ----------------------------------------
 BYTE   W72
 BYTE   W72
//  #01 //045   ----------------------------------------
 BYTE   W72
 BYTE   W72
//  #01 //046   ----------------------------------------
 BYTE   W72
 BYTE   W72
//  #01 //047   ----------------------------------------
 BYTE   W72
 BYTE   W72
//  #01 //048   ----------------------------------------
 BYTE   W72
 BYTE   W72
//  #01 //049   ----------------------------------------
 BYTE   Ds2
 BYTE   W72
 BYTE   N48
 BYTE   W72
//  #01 //050   ----------------------------------------
 BYTE   N48
 BYTE   W72
 BYTE   N48
 BYTE   W72
//  #01 //051   ----------------------------------------
 BYTE   N48
 BYTE   W72
 BYTE   Fn3
 BYTE   W72
//  #01 //052   ----------------------------------------
 BYTE   Ds3
 BYTE   W72
 BYTE   Fn4
 BYTE   W72
//  #01 //053   ----------------------------------------
 BYTE   Ds4
 BYTE   W72
 BYTE   Fn3
 BYTE   W72
//  #01 //054   ----------------------------------------
 BYTE   Ds3
 BYTE   W72
//  #01 //055   ----------------------------------------
 BYTE   PATT
  POIN2 Label_5757EA
//  #01 //056   ----------------------------------------
 BYTE   N72  Fs4  v100
 BYTE   W72
 BYTE   W72
//  #01 //057   ----------------------------------------
 BYTE   W72
 BYTE   W72
//  #01 //058   ----------------------------------------
 BYTE   W72
 BYTE   W72
//  #01 //059   ----------------------------------------
 BYTE   W72
 BYTE   W72
//  #01 //060   ----------------------------------------
 BYTE   W72
 BYTE   W72
//  #01 //061   ----------------------------------------
 BYTE   W72
 BYTE   W72
//  #01 //062   ----------------------------------------
 BYTE   W72
 BYTE   W72
//  #01 //063   ----------------------------------------
 BYTE   W72
 BYTE   W72
//  #01 //064   ----------------------------------------
 BYTE   Ds2
 BYTE   W72
 BYTE   N48
 BYTE   W72
//  #01 //065   ----------------------------------------
 BYTE   N48
 BYTE   W72
 BYTE   N48
 BYTE   W72
//  #01 //066   ----------------------------------------
 BYTE   N48
 BYTE   W72
//  #01 //067   ----------------------------------------
 BYTE   PATT
  POIN2 Label_57583E
//  #01 //068   ----------------------------------------
 BYTE   PATT
  POIN2 Label_57583E
//  #01 //069   ----------------------------------------
 BYTE   PATT
  POIN2 Label_57584E
//  #01 //070   ----------------------------------------
 BYTE   PATT
  POIN2 Label_57584E
//  #01 //071   ----------------------------------------
 BYTE   PATT
  POIN2 Label_57585E
//  #01 //072   ----------------------------------------
 BYTE   PATT
  POIN2 Label_57585E
//  #01 //073   ----------------------------------------
 BYTE   PATT
  POIN2 Label_57584E
//  #01 //074   ----------------------------------------
 BYTE   PATT
  POIN2 Label_57584E
//  #01 //075   ----------------------------------------
 BYTE   GoTo
  POIN2 Label_5757D6
 BYTE   FINE

//**************** Track 2 (Midi-Chn.1) ****************//

Crisis_002:
//  #02 //000   ----------------------------------------
 BYTE   KEYSH   Crisis_key+0
Label_0101494A:
 BYTE   VOICE   104
 BYTE   VOL   34*Crisis_mvl/mxv
 BYTE   N12  Ds2  v100
 BYTE   W24
 BYTE   N12
 BYTE   W24
 BYTE   N12
 BYTE   W12
 BYTE   N12
 BYTE   W12
Label_01014958:
 BYTE   N12  Ds2  v100
 BYTE   W24
//  #02 //001   ----------------------------------------
 BYTE   N12
 BYTE   W24
 BYTE   N12
 BYTE   W12
 BYTE   N12
 BYTE   W12
 BYTE   PEND 
Label_01014963:
 BYTE   N12  Fn2  v100
 BYTE   W24
 BYTE   N12
 BYTE   W24
//  #02 //002   ----------------------------------------
 BYTE   N12
 BYTE   W12
 BYTE   N12
 BYTE   W12
 BYTE   PEND 
//  #02 //003   ----------------------------------------
 BYTE   PATT
  POIN2 Label_01014963
//  #02 //004   ----------------------------------------
Label_01014973:
 BYTE   N12  Fs2  v100
 BYTE   W24
 BYTE   N12
 BYTE   W24
 BYTE   N12
 BYTE   W12
 BYTE   N12
 BYTE   W12
 BYTE   PEND 
//  #02 //005   ----------------------------------------
 BYTE   PATT
  POIN2 Label_01014973
//  #02 //006   ----------------------------------------
 BYTE   N72  Gs2  v100
 BYTE   W72
Label_01014987:
 BYTE   N16  Ds2  v112
 BYTE   W16
 BYTE   N08  Fn2
 BYTE   W08
//  #02 //007   ----------------------------------------
 BYTE   N16  Fs2
 BYTE   W16
 BYTE   N08  Gs2
 BYTE   W08
 BYTE   N16  As2
 BYTE   W16
 BYTE   N08  Cn3
 BYTE   W08
 BYTE   PEND 
Label_0101499B:
 BYTE   N48  Cs3  v052
 BYTE   W56
//  #02 //008   ----------------------------------------
 BYTE   N08  Gs2  v112
 BYTE   W08
 BYTE   As2
 BYTE   W08
 BYTE   PEND 
Label_010149A6:
 BYTE   N08  Bn2  v112
 BYTE   W08
 BYTE   N08
 BYTE   W08
 BYTE   Cs3
 BYTE   W08
 BYTE   Ds3
 BYTE   W08
 BYTE   N08
 BYTE   W08
 BYTE   Fn3
 BYTE   W08
 BYTE   Fs3
 BYTE   W08
 BYTE   N08
 BYTE   W08
 BYTE   Gs3
 BYTE   W08
 BYTE   PEND 
Label_010149BB:
 BYTE   N48  As3  v112
 BYTE   W56
//  #02 //009   ----------------------------------------
 BYTE   N08  As2
 BYTE   W08
 BYTE   Bn2
 BYTE   W08
 BYTE   PEND 
Label_010149C5:
 BYTE   N08  Cs3  v112
 BYTE   W08
 BYTE   N08
 BYTE   W08
 BYTE   Ds3
 BYTE   W08
 BYTE   Fn3
 BYTE   W08
 BYTE   N08
 BYTE   W08
 BYTE   Fs3
 BYTE   W08
 BYTE   Gs3
 BYTE   W08
 BYTE   N08
 BYTE   W08
 BYTE   As3
 BYTE   W08
 BYTE   PEND 
Label_010149DA:
 BYTE   N48  Bn3  v112
 BYTE   W56
//  #02 //010   ----------------------------------------
 BYTE   N08  Gs2
 BYTE   W08
 BYTE   As2
 BYTE   W08
 BYTE   PEND 
//  #02 //011   ----------------------------------------
 BYTE   PATT
  POIN2 Label_010149A6
//  #02 //012   ----------------------------------------
Label_010149E9:
 BYTE   N08  As3  v112
 BYTE   W08
 BYTE   N08
 BYTE   W08
 BYTE   Bn3
 BYTE   W08
 BYTE   N24  Cs4
 BYTE   W24
 BYTE   N06  Ds4
 BYTE   W06
 BYTE   Cs4
 BYTE   W06
 BYTE   Bn3
 BYTE   W06
 BYTE   As3
 BYTE   W06
 BYTE   PEND 
Label_010149FE:
 BYTE   N06  Cs4  v112
 BYTE   W06
 BYTE   Bn3
 BYTE   W06
 BYTE   As3
 BYTE   W06
 BYTE   Gs3
 BYTE   W06
//  #02 //013   ----------------------------------------
 BYTE   Bn3
 BYTE   W06
 BYTE   As3
 BYTE   W06
 BYTE   Gs3
 BYTE   W06
 BYTE   Fs3
 BYTE   W06
 BYTE   Gs3
 BYTE   W06
 BYTE   As3
 BYTE   W06
 BYTE   Bn3
 BYTE   W06
 BYTE   Cs4
 BYTE   W06
 BYTE   PEND 
Label_01014A19:
 BYTE   N06  Ds4  v112
 BYTE   W12
 BYTE   Cs4
 BYTE   W12
 BYTE   Bn3
 BYTE   W12
 BYTE   As3
 BYTE   W12
//  #02 //014   ----------------------------------------
 BYTE   Bn3
 BYTE   W12
 BYTE   Gs3
 BYTE   W12
 BYTE   PEND 
Label_01014A28:
 BYTE   N06  Ds4  v116
 BYTE   W12
 BYTE   Cs4
 BYTE   W12
 BYTE   Bn3
 BYTE   W12
 BYTE   As3
 BYTE   W12
 BYTE   Bn3
 BYTE   W12
 BYTE   Gs3
 BYTE   W12
 BYTE   PEND 
//  #02 //015   ----------------------------------------
 BYTE   PATT
  POIN2 Label_01014A28
//  #02 //016   ----------------------------------------
 BYTE   PATT
  POIN2 Label_01014A28
//  #02 //017   ----------------------------------------
Label_01014A41:
 BYTE   N06  Ds4  v092
 BYTE   W12
 BYTE   As3
 BYTE   W12
 BYTE   Cs4
 BYTE   W12
 BYTE   Gs3
 BYTE   W12
 BYTE   Bn3
 BYTE   W12
 BYTE   Fs3
 BYTE   W12
 BYTE   PEND 
Label_01014A50:
 BYTE   N06  Ds4  v100
 BYTE   W12
 BYTE   As3
 BYTE   W12
//  #02 //018   ----------------------------------------
 BYTE   Cs4
 BYTE   W12
 BYTE   Gs3
 BYTE   W12
 BYTE   Bn3
 BYTE   W12
 BYTE   Fs3
 BYTE   W12
 BYTE   PEND 
Label_01014A5F:
 BYTE   N06  Ds4  v112
 BYTE   W12
 BYTE   As3
 BYTE   W12
 BYTE   Cs4
 BYTE   W12
 BYTE   Gs3
 BYTE   W12
//  #02 //019   ----------------------------------------
 BYTE   Bn3
 BYTE   W12
 BYTE   Fs3
 BYTE   W12
 BYTE   PEND 
Label_01014A6E:
 BYTE   N06  Ds4  v124
 BYTE   W12
 BYTE   As3
 BYTE   W12
 BYTE   Cs4
 BYTE   W12
 BYTE   Bn3
 BYTE   W12
 BYTE   As3
 BYTE   W12
 BYTE   Gs3
 BYTE   W12
 BYTE   PEND 
//  #02 //020   ----------------------------------------
Label_01014A7D:
 BYTE   N24  As3  v116
 BYTE   W36
 BYTE   N12
 BYTE   W12
 BYTE   Bn3
 BYTE   W12
 BYTE   Cs4
 BYTE   W12
 BYTE   PEND 
//  #02 //021   ----------------------------------------
 BYTE   PATT
  POIN2 Label_01014A7D
//  #02 //022   ----------------------------------------
 BYTE   PATT
  POIN2 Label_01014A7D
//  #02 //023   ----------------------------------------
Label_01014A92:
 BYTE   N36  As3  v116
 BYTE   W48
 BYTE   N12  Fs3  v100
 BYTE   W12
 BYTE   As3
 BYTE   W12
 BYTE   PEND 
Label_01014A9D:
 BYTE   VOL   34*Crisis_mvl/mxv
 BYTE   N12  Ds2  v100
 BYTE   W24
//  #02 //024   ----------------------------------------
 BYTE   N12
 BYTE   W24
 BYTE   N12
 BYTE   W12
 BYTE   N12
 BYTE   W12
 BYTE   PEND 
//  #02 //025   ----------------------------------------
 BYTE   PATT
  POIN2 Label_01014958
//  #02 //026   ----------------------------------------
 BYTE   PATT
  POIN2 Label_01014963
//  #02 //027   ----------------------------------------
 BYTE   PATT
  POIN2 Label_01014963
//  #02 //028   ----------------------------------------
 BYTE   PATT
  POIN2 Label_01014973
//  #02 //029   ----------------------------------------
 BYTE   PATT
  POIN2 Label_01014973
//  #02 //030   ----------------------------------------
 BYTE   N72  Gs2  v100
 BYTE   W72
Label_01014AC7:
 BYTE   N16  Ds2  v116
 BYTE   W16
 BYTE   N08  Fn2
 BYTE   W08
//  #02 //031   ----------------------------------------
 BYTE   N16  Fs2
 BYTE   W16
 BYTE   N08  Gs2
 BYTE   W08
 BYTE   N16  As2
 BYTE   W16
 BYTE   N08  Cn3
 BYTE   W08
 BYTE   PEND 
Label_01014ADB:
 BYTE   N48  Cs3  v052
 BYTE   W56
//  #02 //032   ----------------------------------------
 BYTE   N08  Gs2  v116
 BYTE   W08
 BYTE   As2
 BYTE   W08
 BYTE   PEND 
Label_01014AE6:
 BYTE   N08  Bn2  v116
 BYTE   W08
 BYTE   N08
 BYTE   W08
 BYTE   Cs3
 BYTE   W08
 BYTE   Ds3
 BYTE   W08
 BYTE   N08
 BYTE   W08
 BYTE   Fn3
 BYTE   W08
 BYTE   Fs3
 BYTE   W08
 BYTE   N08
 BYTE   W08
 BYTE   Gs3
 BYTE   W08
 BYTE   PEND 
Label_01014AFB:
 BYTE   N48  As3  v116
 BYTE   W56
//  #02 //033   ----------------------------------------
 BYTE   N08  As2
 BYTE   W08
 BYTE   Bn2
 BYTE   W08
 BYTE   PEND 
Label_01014B05:
 BYTE   N08  Cs3  v116
 BYTE   W08
 BYTE   N08
 BYTE   W08
 BYTE   Ds3
 BYTE   W08
 BYTE   Fn3
 BYTE   W08
 BYTE   N08
 BYTE   W08
 BYTE   Fs3
 BYTE   W08
 BYTE   Gs3
 BYTE   W08
 BYTE   N08
 BYTE   W08
 BYTE   As3
 BYTE   W08
 BYTE   PEND 
Label_01014B1A:
 BYTE   N48  Bn3  v116
 BYTE   W56
//  #02 //034   ----------------------------------------
 BYTE   N08  Gs2
 BYTE   W08
 BYTE   As2
 BYTE   W08
 BYTE   PEND 
//  #02 //035   ----------------------------------------
 BYTE   PATT
  POIN2 Label_01014AE6
//  #02 //036   ----------------------------------------
Label_01014B29:
 BYTE   N08  As3  v116
 BYTE   W08
 BYTE   N08
 BYTE   W08
 BYTE   Bn3
 BYTE   W08
 BYTE   N24  Cs4
 BYTE   W24
 BYTE   N06  Ds4
 BYTE   W06
 BYTE   Cs4
 BYTE   W06
 BYTE   Bn3
 BYTE   W06
 BYTE   As3
 BYTE   W06
 BYTE   PEND 
Label_01014B3E:
 BYTE   N06  Cs4  v116
 BYTE   W06
 BYTE   Bn3
 BYTE   W06
 BYTE   As3
 BYTE   W06
 BYTE   Gs3
 BYTE   W06
//  #02 //037   ----------------------------------------
 BYTE   Bn3
 BYTE   W06
 BYTE   As3
 BYTE   W06
 BYTE   Gs3
 BYTE   W06
 BYTE   Fs3
 BYTE   W06
 BYTE   Gs3
 BYTE   W06
 BYTE   As3
 BYTE   W06
 BYTE   Bn3
 BYTE   W06
 BYTE   Cs4
 BYTE   W06
 BYTE   PEND 
//  #02 //038   ----------------------------------------
 BYTE   PATT
  POIN2 Label_01014A28
//  #02 //039   ----------------------------------------
 BYTE   PATT
  POIN2 Label_01014A28
//  #02 //040   ----------------------------------------
 BYTE   PATT
  POIN2 Label_01014A28
//  #02 //041   ----------------------------------------
 BYTE   PATT
  POIN2 Label_01014A28
//  #02 //042   ----------------------------------------
 BYTE   PATT
  POIN2 Label_01014A41
//  #02 //043   ----------------------------------------
 BYTE   PATT
  POIN2 Label_01014A50
//  #02 //044   ----------------------------------------
 BYTE   PATT
  POIN2 Label_01014A5F
//  #02 //045   ----------------------------------------
 BYTE   PATT
  POIN2 Label_01014A6E
//  #02 //046   ----------------------------------------
 BYTE   PATT
  POIN2 Label_01014A7D
//  #02 //047   ----------------------------------------
 BYTE   PATT
  POIN2 Label_01014A7D
//  #02 //048   ----------------------------------------
 BYTE   PATT
  POIN2 Label_01014A7D
//  #02 //049   ----------------------------------------
 BYTE   PATT
  POIN2 Label_01014A7D
//  #02 //050   ----------------------------------------
 BYTE   W72
 BYTE   W72
//  #02 //051   ----------------------------------------
 BYTE   W72
 BYTE   W72
//  #02 //052   ----------------------------------------
 BYTE   W72
 BYTE   W72
//  #02 //053   ----------------------------------------
 BYTE   W72
 BYTE   W72
//  #02 //054   ----------------------------------------
 BYTE   PATT
  POIN2 Label_01014A9D
//  #02 //055   ----------------------------------------
 BYTE   PATT
  POIN2 Label_01014958
//  #02 //056   ----------------------------------------
 BYTE   PATT
  POIN2 Label_01014963
//  #02 //057   ----------------------------------------
 BYTE   PATT
  POIN2 Label_01014963
//  #02 //058   ----------------------------------------
 BYTE   PATT
  POIN2 Label_01014973
//  #02 //059   ----------------------------------------
 BYTE   PATT
  POIN2 Label_01014973
//  #02 //060   ----------------------------------------
 BYTE   N72  Gs2  v100
 BYTE   W72
//  #02 //061   ----------------------------------------
 BYTE   PATT
  POIN2 Label_01014987
//  #02 //062   ----------------------------------------
 BYTE   PATT
  POIN2 Label_0101499B
//  #02 //063   ----------------------------------------
 BYTE   PATT
  POIN2 Label_010149A6
//  #02 //064   ----------------------------------------
 BYTE   PATT
  POIN2 Label_010149BB
//  #02 //065   ----------------------------------------
 BYTE   PATT
  POIN2 Label_010149C5
//  #02 //066   ----------------------------------------
 BYTE   PATT
  POIN2 Label_010149DA
//  #02 //067   ----------------------------------------
 BYTE   PATT
  POIN2 Label_010149A6
//  #02 //068   ----------------------------------------
 BYTE   PATT
  POIN2 Label_010149E9
//  #02 //069   ----------------------------------------
 BYTE   PATT
  POIN2 Label_010149FE
//  #02 //070   ----------------------------------------
 BYTE   PATT
  POIN2 Label_01014A19
//  #02 //071   ----------------------------------------
 BYTE   PATT
  POIN2 Label_01014A28
//  #02 //072   ----------------------------------------
 BYTE   PATT
  POIN2 Label_01014A28
//  #02 //073   ----------------------------------------
 BYTE   PATT
  POIN2 Label_01014A28
//  #02 //074   ----------------------------------------
 BYTE   PATT
  POIN2 Label_01014A41
//  #02 //075   ----------------------------------------
 BYTE   PATT
  POIN2 Label_01014A50
//  #02 //076   ----------------------------------------
 BYTE   PATT
  POIN2 Label_01014A5F
//  #02 //077   ----------------------------------------
 BYTE   PATT
  POIN2 Label_01014A6E
//  #02 //078   ----------------------------------------
 BYTE   PATT
  POIN2 Label_01014A7D
//  #02 //079   ----------------------------------------
 BYTE   PATT
  POIN2 Label_01014A7D
//  #02 //080   ----------------------------------------
 BYTE   PATT
  POIN2 Label_01014A7D
//  #02 //081   ----------------------------------------
 BYTE   PATT
  POIN2 Label_01014A92
//  #02 //082   ----------------------------------------
 BYTE   PATT
  POIN2 Label_01014A9D
//  #02 //083   ----------------------------------------
 BYTE   PATT
  POIN2 Label_01014958
//  #02 //084   ----------------------------------------
 BYTE   PATT
  POIN2 Label_01014963
//  #02 //085   ----------------------------------------
 BYTE   PATT
  POIN2 Label_01014963
//  #02 //086   ----------------------------------------
 BYTE   PATT
  POIN2 Label_01014973
//  #02 //087   ----------------------------------------
 BYTE   PATT
  POIN2 Label_01014973
//  #02 //088   ----------------------------------------
 BYTE   N72  Gs2  v100
 BYTE   W72
//  #02 //089   ----------------------------------------
 BYTE   PATT
  POIN2 Label_01014AC7
//  #02 //090   ----------------------------------------
 BYTE   PATT
  POIN2 Label_01014ADB
//  #02 //091   ----------------------------------------
 BYTE   PATT
  POIN2 Label_01014AE6
//  #02 //092   ----------------------------------------
 BYTE   PATT
  POIN2 Label_01014AFB
//  #02 //093   ----------------------------------------
 BYTE   PATT
  POIN2 Label_01014B05
//  #02 //094   ----------------------------------------
 BYTE   PATT
  POIN2 Label_01014B1A
//  #02 //095   ----------------------------------------
 BYTE   PATT
  POIN2 Label_01014AE6
//  #02 //096   ----------------------------------------
 BYTE   PATT
  POIN2 Label_01014B29
//  #02 //097   ----------------------------------------
 BYTE   PATT
  POIN2 Label_01014B3E
//  #02 //098   ----------------------------------------
 BYTE   PATT
  POIN2 Label_01014A28
//  #02 //099   ----------------------------------------
 BYTE   PATT
  POIN2 Label_01014A28
//  #02 //100   ----------------------------------------
 BYTE   PATT
  POIN2 Label_01014A28
//  #02 //101   ----------------------------------------
 BYTE   PATT
  POIN2 Label_01014A28
//  #02 //102   ----------------------------------------
 BYTE   PATT
  POIN2 Label_01014A41
//  #02 //103   ----------------------------------------
 BYTE   PATT
  POIN2 Label_01014A50
//  #02 //104   ----------------------------------------
 BYTE   PATT
  POIN2 Label_01014A5F
//  #02 //105   ----------------------------------------
 BYTE   PATT
  POIN2 Label_01014A6E
//  #02 //106   ----------------------------------------
 BYTE   PATT
  POIN2 Label_01014A7D
//  #02 //107   ----------------------------------------
 BYTE   PATT
  POIN2 Label_01014A7D
//  #02 //108   ----------------------------------------
 BYTE   PATT
  POIN2 Label_01014A7D
//  #02 //109   ----------------------------------------
 BYTE   PATT
  POIN2 Label_01014A7D
//  #02 //110   ----------------------------------------
 BYTE   W72
 BYTE   W72
//  #02 //111   ----------------------------------------
 BYTE   W72
 BYTE   W72
//  #02 //112   ----------------------------------------
 BYTE   W72
 BYTE   W72
//  #02 //113   ----------------------------------------
 BYTE   W72
 BYTE   W72
//  #02 //114   ----------------------------------------
 BYTE   GoTo
  POIN2 Label_0101494A
 BYTE   FINE

//**************** Track 3 (Midi-Chn.2) ****************//

Crisis_003:
//  #03 //000   ----------------------------------------
 BYTE   KEYSH   Crisis_key+0
Label_576532:
 BYTE   VOICE   40
 BYTE   VOL   40*Crisis_mvl/mxv
 BYTE   N48  Bn2  v100
 BYTE   W72
 BYTE   As2
 BYTE   W72
//  #03 //001   ----------------------------------------
 BYTE   As3
 BYTE   W72
 BYTE   N48
 BYTE   W72
//  #03 //002   ----------------------------------------
 BYTE   Bn2
 BYTE   W72
 BYTE   As2
 BYTE   W72
//  #03 //003   ----------------------------------------
 BYTE   Bn3
 BYTE   W72
 BYTE   N72  As3
 BYTE   W72
//  #03 //004   ----------------------------------------
 BYTE   W72
 BYTE   W72
//  #03 //005   ----------------------------------------
 BYTE   W72
 BYTE   W72
//  #03 //006   ----------------------------------------
 BYTE   W72
 BYTE   W72
//  #03 //007   ----------------------------------------
 BYTE   W72
 BYTE   W72
//  #03 //008   ----------------------------------------
 BYTE   W72
 BYTE   W72
//  #03 //009   ----------------------------------------
 BYTE   W72
 BYTE   W72
//  #03 //010   ----------------------------------------
 BYTE   W72
 BYTE   W72
//  #03 //011   ----------------------------------------
 BYTE   W72
 BYTE   As2
 BYTE   W72
//  #03 //012   ----------------------------------------
 BYTE   N48
 BYTE   W72
 BYTE   N48
 BYTE   W72
//  #03 //013   ----------------------------------------
 BYTE   N48
 BYTE   W72
 BYTE   N48
 BYTE   W72
//  #03 //014   ----------------------------------------
 BYTE   Bn2
 BYTE   W72
 BYTE   As2
 BYTE   W72
//  #03 //015   ----------------------------------------
 BYTE   As3
 BYTE   W72
 BYTE   N48
 BYTE   W72
//  #03 //016   ----------------------------------------
 BYTE   Bn2
 BYTE   W72
 BYTE   As2
 BYTE   W72
//  #03 //017   ----------------------------------------
 BYTE   Bn3
 BYTE   W72
 BYTE   N72  As3
 BYTE   W72
//  #03 //018   ----------------------------------------
 BYTE   W72
 BYTE   W72
//  #03 //019   ----------------------------------------
 BYTE   W72
 BYTE   W72
//  #03 //020   ----------------------------------------
 BYTE   W72
 BYTE   W72
//  #03 //021   ----------------------------------------
 BYTE   W72
 BYTE   W72
//  #03 //022   ----------------------------------------
 BYTE   W72
 BYTE   W72
//  #03 //023   ----------------------------------------
 BYTE   W72
 BYTE   W72
//  #03 //024   ----------------------------------------
 BYTE   W72
 BYTE   W72
//  #03 //025   ----------------------------------------
 BYTE   W72
 BYTE   As2
 BYTE   W72
//  #03 //026   ----------------------------------------
 BYTE   N48
 BYTE   W72
 BYTE   N48
 BYTE   W72
//  #03 //027   ----------------------------------------
 BYTE   N48
 BYTE   W72
 BYTE   N48
 BYTE   W72
//  #03 //028   ----------------------------------------
Label_57658C:
 BYTE   N12  Fs2  v100
 BYTE   W24
 BYTE   N12
 BYTE   W24
 BYTE   N12
 BYTE   W12
 BYTE   N12
 BYTE   W12
 BYTE   PEND 
//  #03 //029   ----------------------------------------
 BYTE   PATT
  POIN2 Label_57658C
//  #03 //030   ----------------------------------------
Label_57659C:
 BYTE   N12  Gs2  v100
 BYTE   W24
 BYTE   N12
 BYTE   W24
 BYTE   N12
 BYTE   W12
 BYTE   N12
 BYTE   W12
 BYTE   PEND 
//  #03 //031   ----------------------------------------
 BYTE   PATT
  POIN2 Label_57659C
//  #03 //032   ----------------------------------------
Label_5765AC:
 BYTE   N12  As2  v100
 BYTE   W24
 BYTE   N12
 BYTE   W24
 BYTE   N12
 BYTE   W12
 BYTE   N12
 BYTE   W12
 BYTE   PEND 
//  #03 //033   ----------------------------------------
 BYTE   PATT
  POIN2 Label_5765AC
//  #03 //034   ----------------------------------------
 BYTE   PATT
  POIN2 Label_57659C
//  #03 //035   ----------------------------------------
 BYTE   PATT
  POIN2 Label_57659C
//  #03 //036   ----------------------------------------
 BYTE   VOL   40*Crisis_mvl/mxv
 BYTE   N48  Bn2  v100
 BYTE   W72
 BYTE   As2
 BYTE   W72
//  #03 //037   ----------------------------------------
 BYTE   As3
 BYTE   W72
 BYTE   N48
 BYTE   W72
//  #03 //038   ----------------------------------------
 BYTE   Bn2
 BYTE   W72
 BYTE   As2
 BYTE   W72
//  #03 //039   ----------------------------------------
 BYTE   Bn3
 BYTE   W72
 BYTE   N72  As3
 BYTE   W72
//  #03 //040   ----------------------------------------
 BYTE   W72
 BYTE   W72
//  #03 //041   ----------------------------------------
 BYTE   W72
 BYTE   W72
//  #03 //042   ----------------------------------------
 BYTE   W72
 BYTE   W72
//  #03 //043   ----------------------------------------
 BYTE   W72
 BYTE   W72
//  #03 //044   ----------------------------------------
 BYTE   W72
 BYTE   W72
//  #03 //045   ----------------------------------------
 BYTE   W72
 BYTE   W72
//  #03 //046   ----------------------------------------
 BYTE   W72
 BYTE   W72
//  #03 //047   ----------------------------------------
 BYTE   W72
 BYTE   As2
 BYTE   W72
//  #03 //048   ----------------------------------------
 BYTE   N48
 BYTE   W72
 BYTE   N48
 BYTE   W72
//  #03 //049   ----------------------------------------
 BYTE   N48
 BYTE   W72
 BYTE   N48
 BYTE   W72
//  #03 //050   ----------------------------------------
 BYTE   Bn2
 BYTE   W72
 BYTE   As2
 BYTE   W72
//  #03 //051   ----------------------------------------
 BYTE   As3
 BYTE   W72
 BYTE   N48
 BYTE   W72
//  #03 //052   ----------------------------------------
 BYTE   Bn2
 BYTE   W72
 BYTE   As2
 BYTE   W72
//  #03 //053   ----------------------------------------
 BYTE   Bn3
 BYTE   W72
 BYTE   N72  As3
 BYTE   W72
//  #03 //054   ----------------------------------------
 BYTE   W72
 BYTE   W72
//  #03 //055   ----------------------------------------
 BYTE   W72
 BYTE   W72
//  #03 //056   ----------------------------------------
 BYTE   W72
 BYTE   W72
//  #03 //057   ----------------------------------------
 BYTE   W72
 BYTE   W72
//  #03 //058   ----------------------------------------
 BYTE   W72
 BYTE   W72
//  #03 //059   ----------------------------------------
 BYTE   W72
 BYTE   W72
//  #03 //060   ----------------------------------------
 BYTE   W72
 BYTE   W72
//  #03 //061   ----------------------------------------
 BYTE   W72
 BYTE   As2
 BYTE   W72
//  #03 //062   ----------------------------------------
 BYTE   N48
 BYTE   W72
 BYTE   N48
 BYTE   W72
//  #03 //063   ----------------------------------------
 BYTE   N48
 BYTE   W72
 BYTE   N48
 BYTE   W72
//  #03 //064   ----------------------------------------
 BYTE   PATT
  POIN2 Label_57658C
//  #03 //065   ----------------------------------------
 BYTE   PATT
  POIN2 Label_57658C
//  #03 //066   ----------------------------------------
 BYTE   PATT
  POIN2 Label_57659C
//  #03 //067   ----------------------------------------
 BYTE   PATT
  POIN2 Label_57659C
//  #03 //068   ----------------------------------------
 BYTE   PATT
  POIN2 Label_5765AC
//  #03 //069   ----------------------------------------
 BYTE   PATT
  POIN2 Label_5765AC
//  #03 //070   ----------------------------------------
 BYTE   PATT
  POIN2 Label_57659C
//  #03 //071   ----------------------------------------
 BYTE   PATT
  POIN2 Label_57659C
//  #03 //072   ----------------------------------------
 BYTE   GoTo
  POIN2 Label_576532
 BYTE   FINE

//**************** Track 4 (Midi-Chn.3) ****************//

Crisis_004:
//  #04 //000   ----------------------------------------
 BYTE   KEYSH   Crisis_key+0
Label_575DCE:
 BYTE   VOICE   104
 BYTE   VOL   34*Crisis_mvl/mxv
 BYTE   N12  Fs2  v100
 BYTE   W24
 BYTE   N12
 BYTE   W24
 BYTE   N12
 BYTE   W12
 BYTE   N12
 BYTE   W12
Label_575DDC:
 BYTE   N12  Fs2  v100
 BYTE   W24
//  #04 //001   ----------------------------------------
 BYTE   N12
 BYTE   W24
 BYTE   N12
 BYTE   W12
 BYTE   N12
 BYTE   W12
 BYTE   PEND 
Label_575DE7:
 BYTE   N12  Gs2  v100
 BYTE   W24
 BYTE   N12
 BYTE   W24
//  #04 //002   ----------------------------------------
 BYTE   N12
 BYTE   W12
 BYTE   N12
 BYTE   W12
 BYTE   PEND 
//  #04 //003   ----------------------------------------
 BYTE   PATT
  POIN2 Label_575DE7
//  #04 //004   ----------------------------------------
Label_575DF7:
 BYTE   N12  As2  v100
 BYTE   W24
 BYTE   N12
 BYTE   W24
 BYTE   N12
 BYTE   W12
 BYTE   N12
 BYTE   W12
 BYTE   PEND 
//  #04 //005   ----------------------------------------
 BYTE   PATT
  POIN2 Label_575DF7
//  #04 //006   ----------------------------------------
 BYTE   PATT
  POIN2 Label_575DE7
//  #04 //007   ----------------------------------------
 BYTE   W72
 BYTE   TIE  As3  v100
 BYTE   W72
//  #04 //008   ----------------------------------------
 BYTE   W72
 BYTE   W72
//  #04 //009   ----------------------------------------
 BYTE   W48
 BYTE   EOT
 BYTE   W24
 BYTE   TIE  Gs3
 BYTE   W72
//  #04 //010   ----------------------------------------
 BYTE   W72
 BYTE   W72
//  #04 //011   ----------------------------------------
 BYTE   W48
 BYTE   EOT
 BYTE   W24
 BYTE   TIE  As3
 BYTE   W72
//  #04 //012   ----------------------------------------
 BYTE   W72
 BYTE   EOT
 BYTE   TIE  Gs3
 BYTE   W72
//  #04 //013   ----------------------------------------
 BYTE   W72
 BYTE   EOT
 BYTE   TIE  As3
 BYTE   W72
//  #04 //014   ----------------------------------------
 BYTE   W72
 BYTE   W72
//  #04 //015   ----------------------------------------
 BYTE   W72
 BYTE   EOT
Label_575E2F:
 BYTE   N24  Ds2  v100
 BYTE   W36
//  #04 //016   ----------------------------------------
 BYTE   N12
 BYTE   W12
 BYTE   Gs2
 BYTE   W12
 BYTE   Gn2
 BYTE   W12
 BYTE   PEND 
//  #04 //017   ----------------------------------------
 BYTE   PATT
  POIN2 Label_575E2F
//  #04 //018   ----------------------------------------
 BYTE   PATT
  POIN2 Label_575E2F
//  #04 //019   ----------------------------------------
Label_575E44:
 BYTE   N36  Ds2  v100
 BYTE   W48
 BYTE   N12  Ds3
 BYTE   W12
 BYTE   Fs3
 BYTE   W12
 BYTE   PEND 
Label_575E4E:
 BYTE   VOL   34*Crisis_mvl/mxv
 BYTE   N12  Fs2  v100
 BYTE   W24
//  #04 //020   ----------------------------------------
 BYTE   N12
 BYTE   W24
 BYTE   N12
 BYTE   W12
 BYTE   N12
 BYTE   W12
 BYTE   PEND 
//  #04 //021   ----------------------------------------
 BYTE   PATT
  POIN2 Label_575DDC
//  #04 //022   ----------------------------------------
 BYTE   PATT
  POIN2 Label_575DE7
//  #04 //023   ----------------------------------------
 BYTE   PATT
  POIN2 Label_575DE7
//  #04 //024   ----------------------------------------
 BYTE   PATT
  POIN2 Label_575DF7
//  #04 //025   ----------------------------------------
 BYTE   PATT
  POIN2 Label_575DF7
//  #04 //026   ----------------------------------------
 BYTE   PATT
  POIN2 Label_575DE7
//  #04 //027   ----------------------------------------
 BYTE   W72
 BYTE   TIE  As3  v100
 BYTE   W72
//  #04 //028   ----------------------------------------
 BYTE   W72
 BYTE   W72
//  #04 //029   ----------------------------------------
 BYTE   W48
 BYTE   EOT
 BYTE   W24
 BYTE   TIE  Gs3
 BYTE   W72
//  #04 //030   ----------------------------------------
 BYTE   W72
 BYTE   W72
//  #04 //031   ----------------------------------------
 BYTE   W48
 BYTE   EOT
 BYTE   W24
 BYTE   TIE  As3
 BYTE   W72
//  #04 //032   ----------------------------------------
 BYTE   W72
 BYTE   EOT
 BYTE   TIE  Gs3
 BYTE   W72
//  #04 //033   ----------------------------------------
 BYTE   W72
 BYTE   EOT
 BYTE   TIE  As3
 BYTE   W72
//  #04 //034   ----------------------------------------
 BYTE   W72
 BYTE   W72
//  #04 //035   ----------------------------------------
 BYTE   W72
 BYTE   EOT
//  #04 //036   ----------------------------------------
 BYTE   PATT
  POIN2 Label_575E2F
//  #04 //037   ----------------------------------------
 BYTE   PATT
  POIN2 Label_575E2F
//  #04 //038   ----------------------------------------
 BYTE   PATT
  POIN2 Label_575E2F
//  #04 //039   ----------------------------------------
 BYTE   PATT
  POIN2 Label_575E2F
//  #04 //040   ----------------------------------------
 BYTE   PATT
  POIN2 Label_575DDC
//  #04 //041   ----------------------------------------
 BYTE   PATT
  POIN2 Label_575DDC
//  #04 //042   ----------------------------------------
 BYTE   PATT
  POIN2 Label_575DE7
//  #04 //043   ----------------------------------------
 BYTE   PATT
  POIN2 Label_575DE7
//  #04 //044   ----------------------------------------
 BYTE   PATT
  POIN2 Label_575DF7
//  #04 //045   ----------------------------------------
 BYTE   PATT
  POIN2 Label_575DF7
//  #04 //046   ----------------------------------------
 BYTE   PATT
  POIN2 Label_575DE7
//  #04 //047   ----------------------------------------
 BYTE   PATT
  POIN2 Label_575DE7
//  #04 //048   ----------------------------------------
 BYTE   PATT
  POIN2 Label_575E4E
//  #04 //049   ----------------------------------------
 BYTE   PATT
  POIN2 Label_575DDC
//  #04 //050   ----------------------------------------
 BYTE   PATT
  POIN2 Label_575DE7
//  #04 //051   ----------------------------------------
 BYTE   PATT
  POIN2 Label_575DE7
//  #04 //052   ----------------------------------------
 BYTE   PATT
  POIN2 Label_575DF7
//  #04 //053   ----------------------------------------
 BYTE   PATT
  POIN2 Label_575DF7
//  #04 //054   ----------------------------------------
 BYTE   PATT
  POIN2 Label_575DE7
//  #04 //055   ----------------------------------------
 BYTE   W72
 BYTE   TIE  As3  v100
 BYTE   W72
//  #04 //056   ----------------------------------------
 BYTE   W72
 BYTE   W72
//  #04 //057   ----------------------------------------
 BYTE   W48
 BYTE   EOT
 BYTE   W24
 BYTE   TIE  Gs3
 BYTE   W72
//  #04 //058   ----------------------------------------
 BYTE   W72
 BYTE   W72
//  #04 //059   ----------------------------------------
 BYTE   W48
 BYTE   EOT
 BYTE   W24
 BYTE   TIE  As3
 BYTE   W72
//  #04 //060   ----------------------------------------
 BYTE   W72
 BYTE   EOT
 BYTE   TIE  Gs3
 BYTE   W72
//  #04 //061   ----------------------------------------
 BYTE   W72
 BYTE   EOT
 BYTE   TIE  As3
 BYTE   W72
//  #04 //062   ----------------------------------------
 BYTE   W72
 BYTE   W72
//  #04 //063   ----------------------------------------
 BYTE   W72
 BYTE   EOT
//  #04 //064   ----------------------------------------
 BYTE   PATT
  POIN2 Label_575E2F
//  #04 //065   ----------------------------------------
 BYTE   PATT
  POIN2 Label_575E2F
//  #04 //066   ----------------------------------------
 BYTE   PATT
  POIN2 Label_575E2F
//  #04 //067   ----------------------------------------
 BYTE   PATT
  POIN2 Label_575E44
//  #04 //068   ----------------------------------------
 BYTE   PATT
  POIN2 Label_575E4E
//  #04 //069   ----------------------------------------
 BYTE   PATT
  POIN2 Label_575DDC
//  #04 //070   ----------------------------------------
 BYTE   PATT
  POIN2 Label_575DE7
//  #04 //071   ----------------------------------------
 BYTE   PATT
  POIN2 Label_575DE7
//  #04 //072   ----------------------------------------
 BYTE   PATT
  POIN2 Label_575DF7
//  #04 //073   ----------------------------------------
 BYTE   PATT
  POIN2 Label_575DF7
//  #04 //074   ----------------------------------------
 BYTE   PATT
  POIN2 Label_575DE7
//  #04 //075   ----------------------------------------
 BYTE   W72
 BYTE   TIE  As3  v100
 BYTE   W72
//  #04 //076   ----------------------------------------
 BYTE   W72
 BYTE   W72
//  #04 //077   ----------------------------------------
 BYTE   W48
 BYTE   EOT
 BYTE   W24
 BYTE   TIE  Gs3
 BYTE   W72
//  #04 //078   ----------------------------------------
 BYTE   W72
 BYTE   W72
//  #04 //079   ----------------------------------------
 BYTE   W48
 BYTE   EOT
 BYTE   W24
 BYTE   TIE  As3
 BYTE   W72
//  #04 //080   ----------------------------------------
 BYTE   W72
 BYTE   EOT
 BYTE   TIE  Gs3
 BYTE   W72
//  #04 //081   ----------------------------------------
 BYTE   W72
 BYTE   EOT
 BYTE   TIE  As3
 BYTE   W72
//  #04 //082   ----------------------------------------
 BYTE   W72
 BYTE   W72
//  #04 //083   ----------------------------------------
 BYTE   W72
 BYTE   EOT
//  #04 //084   ----------------------------------------
 BYTE   PATT
  POIN2 Label_575E2F
//  #04 //085   ----------------------------------------
 BYTE   PATT
  POIN2 Label_575E2F
//  #04 //086   ----------------------------------------
 BYTE   PATT
  POIN2 Label_575E2F
//  #04 //087   ----------------------------------------
 BYTE   PATT
  POIN2 Label_575E2F
//  #04 //088   ----------------------------------------
 BYTE   PATT
  POIN2 Label_575DDC
//  #04 //089   ----------------------------------------
 BYTE   PATT
  POIN2 Label_575DDC
//  #04 //090   ----------------------------------------
 BYTE   PATT
  POIN2 Label_575DE7
//  #04 //091   ----------------------------------------
 BYTE   PATT
  POIN2 Label_575DE7
//  #04 //092   ----------------------------------------
 BYTE   PATT
  POIN2 Label_575DF7
//  #04 //093   ----------------------------------------
 BYTE   PATT
  POIN2 Label_575DF7
//  #04 //094   ----------------------------------------
 BYTE   PATT
  POIN2 Label_575DE7
//  #04 //095   ----------------------------------------
 BYTE   PATT
  POIN2 Label_575DE7
//  #04 //096   ----------------------------------------
 BYTE   GoTo
  POIN2 Label_575DCE
 BYTE   FINE

//**************** Track 5 (Midi-Chn.4) ****************//

Crisis_005:
//  #05 //000   ----------------------------------------
 BYTE   KEYSH   Crisis_key+0
Label_575146:
 BYTE   VOICE   104
 BYTE   VOL   34*Crisis_mvl/mxv
 BYTE   W72
 BYTE   W72
//  #05 //001   ----------------------------------------
 BYTE   W72
 BYTE   W72
//  #05 //002   ----------------------------------------
 BYTE   W72
 BYTE   W72
//  #05 //003   ----------------------------------------
 BYTE   N48  Bn2  v100
 BYTE   W72
 BYTE   As2
 BYTE   W72
//  #05 //004   ----------------------------------------
 BYTE   TIE  Cs3
 BYTE   W72
 BYTE   W72
//  #05 //005   ----------------------------------------
 BYTE   W72
 BYTE   W48
//  #05 //006   ----------------------------------------
 BYTE   EOT
 BYTE   W24
 BYTE   TIE  Bn2
 BYTE   W72
//  #05 //007   ----------------------------------------
 BYTE   W72
 BYTE   W72
//  #05 //008   ----------------------------------------
 BYTE   W48
 BYTE   EOT
 BYTE   W24
 BYTE   TIE  Cs3
 BYTE   W72
//  #05 //009   ----------------------------------------
 BYTE   W72
 BYTE   W72
//  #05 //010   ----------------------------------------
 BYTE   W72
 BYTE   EOT
 BYTE   TIE  Ds3
 BYTE   W72
//  #05 //011   ----------------------------------------
 BYTE   W72
 BYTE   W72
//  #05 //012   ----------------------------------------
 BYTE   EOT
 BYTE   W72
 BYTE   W72
//  #05 //013   ----------------------------------------
 BYTE   W72
 BYTE   W72
//  #05 //014   ----------------------------------------
Label_575177:
 BYTE   W48
 BYTE   N12  Ds2  v100
 BYTE   W12
 BYTE   As2
 BYTE   W12
 BYTE   PEND 
 BYTE   VOL   34*Crisis_mvl/mxv
 BYTE   W72
//  #05 //015   ----------------------------------------
 BYTE   W72
 BYTE   W72
//  #05 //016   ----------------------------------------
 BYTE   W72
 BYTE   W72
//  #05 //017   ----------------------------------------
 BYTE   W72
 BYTE   N48  Bn2
 BYTE   W72
//  #05 //018   ----------------------------------------
 BYTE   As2
 BYTE   W72
 BYTE   TIE  Cs3
 BYTE   W72
//  #05 //019   ----------------------------------------
 BYTE   W72
 BYTE   W72
//  #05 //020   ----------------------------------------
 BYTE   W48
 BYTE   EOT
 BYTE   W24
 BYTE   TIE  Bn2
 BYTE   W72
//  #05 //021   ----------------------------------------
 BYTE   W72
 BYTE   W72
//  #05 //022   ----------------------------------------
 BYTE   W48
 BYTE   EOT
 BYTE   W24
 BYTE   TIE  Cs3
 BYTE   W72
//  #05 //023   ----------------------------------------
 BYTE   W72
 BYTE   W72
//  #05 //024   ----------------------------------------
 BYTE   W72
 BYTE   EOT
 BYTE   TIE  Ds3
 BYTE   W72
//  #05 //025   ----------------------------------------
 BYTE   W72
 BYTE   W72
//  #05 //026   ----------------------------------------
 BYTE   EOT
 BYTE   W72
 BYTE   W72
//  #05 //027   ----------------------------------------
 BYTE   W72
 BYTE   W72
//  #05 //028   ----------------------------------------
 BYTE   W72
Label_5751AE:
 BYTE   N12  Ds2  v100
 BYTE   W24
//  #05 //029   ----------------------------------------
 BYTE   N12
 BYTE   W24
 BYTE   N12
 BYTE   W12
 BYTE   N12
 BYTE   W12
 BYTE   PEND 
//  #05 //030   ----------------------------------------
 BYTE   PATT
  POIN2 Label_5751AE
//  #05 //031   ----------------------------------------
 BYTE   PATT
  POIN2 Label_5751AE
//  #05 //032   ----------------------------------------
 BYTE   PATT
  POIN2 Label_5751AE
//  #05 //033   ----------------------------------------
 BYTE   PATT
  POIN2 Label_5751AE
//  #05 //034   ----------------------------------------
 BYTE   PATT
  POIN2 Label_5751AE
//  #05 //035   ----------------------------------------
 BYTE   PATT
  POIN2 Label_5751AE
//  #05 //036   ----------------------------------------
Label_5751D7:
 BYTE   N12  Ds2  v100
 BYTE   W24
 BYTE   N12
 BYTE   W24
 BYTE   N06
 BYTE   W06
 BYTE   Fn2
 BYTE   W06
 BYTE   Fs2
 BYTE   W06
 BYTE   As2
 BYTE   W06
 BYTE   PEND 
 BYTE   VOL   34*Crisis_mvl/mxv
 BYTE   W72
//  #05 //037   ----------------------------------------
 BYTE   W72
 BYTE   W72
//  #05 //038   ----------------------------------------
 BYTE   W72
 BYTE   W72
//  #05 //039   ----------------------------------------
 BYTE   W72
 BYTE   N48  Bn2
 BYTE   W72
//  #05 //040   ----------------------------------------
 BYTE   As2
 BYTE   W72
 BYTE   TIE  Cs3
 BYTE   W72
//  #05 //041   ----------------------------------------
 BYTE   W72
 BYTE   W72
//  #05 //042   ----------------------------------------
 BYTE   W48
 BYTE   EOT
 BYTE   W24
 BYTE   TIE  Bn2
 BYTE   W72
//  #05 //043   ----------------------------------------
 BYTE   W72
 BYTE   W72
//  #05 //044   ----------------------------------------
 BYTE   W48
 BYTE   EOT
 BYTE   W24
 BYTE   TIE  Cs3
 BYTE   W72
//  #05 //045   ----------------------------------------
 BYTE   W72
 BYTE   W72
//  #05 //046   ----------------------------------------
 BYTE   W72
 BYTE   EOT
 BYTE   TIE  Ds3
 BYTE   W72
//  #05 //047   ----------------------------------------
 BYTE   W72
 BYTE   W72
//  #05 //048   ----------------------------------------
 BYTE   EOT
 BYTE   W72
 BYTE   W72
//  #05 //049   ----------------------------------------
 BYTE   W72
 BYTE   W72
//  #05 //050   ----------------------------------------
 BYTE   PATT
  POIN2 Label_575177
//  #05 //051   ----------------------------------------
 BYTE   VOL   34*Crisis_mvl/mxv
 BYTE   W72
 BYTE   W72
//  #05 //052   ----------------------------------------
 BYTE   W72
 BYTE   W72
//  #05 //053   ----------------------------------------
 BYTE   W72
 BYTE   W72
//  #05 //054   ----------------------------------------
 BYTE   N48  Bn2  v100
 BYTE   W72
 BYTE   As2
 BYTE   W72
//  #05 //055   ----------------------------------------
 BYTE   TIE  Cs3
 BYTE   W72
 BYTE   W72
//  #05 //056   ----------------------------------------
 BYTE   W72
 BYTE   W48
//  #05 //057   ----------------------------------------
 BYTE   EOT
 BYTE   W24
 BYTE   TIE  Bn2
 BYTE   W72
//  #05 //058   ----------------------------------------
 BYTE   W72
 BYTE   W72
//  #05 //059   ----------------------------------------
 BYTE   W48
 BYTE   EOT
 BYTE   W24
 BYTE   TIE  Cs3
 BYTE   W72
//  #05 //060   ----------------------------------------
 BYTE   W72
 BYTE   W72
//  #05 //061   ----------------------------------------
 BYTE   W72
 BYTE   EOT
 BYTE   TIE  Ds3
 BYTE   W72
//  #05 //062   ----------------------------------------
 BYTE   W72
 BYTE   W72
//  #05 //063   ----------------------------------------
 BYTE   EOT
 BYTE   W72
 BYTE   W72
//  #05 //064   ----------------------------------------
 BYTE   W72
 BYTE   W72
//  #05 //065   ----------------------------------------
 BYTE   W72
//  #05 //066   ----------------------------------------
 BYTE   PATT
  POIN2 Label_5751AE
//  #05 //067   ----------------------------------------
 BYTE   PATT
  POIN2 Label_5751AE
//  #05 //068   ----------------------------------------
 BYTE   PATT
  POIN2 Label_5751AE
//  #05 //069   ----------------------------------------
 BYTE   PATT
  POIN2 Label_5751AE
//  #05 //070   ----------------------------------------
 BYTE   PATT
  POIN2 Label_5751AE
//  #05 //071   ----------------------------------------
 BYTE   PATT
  POIN2 Label_5751AE
//  #05 //072   ----------------------------------------
 BYTE   PATT
  POIN2 Label_5751AE
//  #05 //073   ----------------------------------------
 BYTE   PATT
  POIN2 Label_5751D7
//  #05 //074   ----------------------------------------
 BYTE   GoTo
  POIN2 Label_575146
 BYTE   FINE

//**************** Track 6 (Midi-Chn.5) ****************//

Crisis_006:
//  #06 //000   ----------------------------------------
 BYTE   KEYSH   Crisis_key+0
Label_01014CD6:
 BYTE   VOICE   28
 BYTE   VOL   25*Crisis_mvl/mxv
 BYTE   N24  Ds1  v100
 BYTE   W24
 BYTE   N24
 BYTE   W24
 BYTE   N24
 BYTE   W24
Label_01014CE2:
 BYTE   N24  Ds1  v100
 BYTE   W24
//  #06 //001   ----------------------------------------
 BYTE   N24
 BYTE   W24
 BYTE   N24
 BYTE   W24
 BYTE   PEND 
Label_01014CEB:
 BYTE   N24  Fn1  v100
 BYTE   W24
 BYTE   N24
 BYTE   W24
//  #06 //002   ----------------------------------------
 BYTE   N24
 BYTE   W24
 BYTE   PEND 
//  #06 //003   ----------------------------------------
 BYTE   PATT
  POIN2 Label_01014CEB
//  #06 //004   ----------------------------------------
Label_01014CF9:
 BYTE   N24  Fs1  v100
 BYTE   W24
 BYTE   N24
 BYTE   W24
 BYTE   N24
 BYTE   W24
 BYTE   PEND 
//  #06 //005   ----------------------------------------
 BYTE   PATT
  POIN2 Label_01014CF9
//  #06 //006   ----------------------------------------
 BYTE   PATT
  POIN2 Label_01014CEB
//  #06 //007   ----------------------------------------
 BYTE   PATT
  POIN2 Label_01014CE2
//  #06 //008   ----------------------------------------
Label_01014D11:
 BYTE   N24  En1  v100
 BYTE   W24
 BYTE   En0
 BYTE   W24
 BYTE   N24
 BYTE   W24
 BYTE   PEND 
Label_01014D1A:
 BYTE   N24  En0  v100
 BYTE   W24
//  #06 //009   ----------------------------------------
 BYTE   N24
 BYTE   W24
 BYTE   N24
 BYTE   W24
 BYTE   PEND 
//  #06 //010   ----------------------------------------
 BYTE   PATT
  POIN2 Label_01014D1A
//  #06 //011   ----------------------------------------
 BYTE   PATT
  POIN2 Label_01014D1A
//  #06 //012   ----------------------------------------
Label_01014D2D:
 BYTE   N24  Ds1  v100
 BYTE   W24
 BYTE   Ds0
 BYTE   W24
 BYTE   N24
 BYTE   W24
 BYTE   PEND 
Label_01014D36:
 BYTE   N24  Ds0  v100
 BYTE   W24
//  #06 //013   ----------------------------------------
 BYTE   N24
 BYTE   W24
 BYTE   N24
 BYTE   W24
 BYTE   PEND 
//  #06 //014   ----------------------------------------
 BYTE   PATT
  POIN2 Label_01014D36
//  #06 //015   ----------------------------------------
 BYTE   PATT
  POIN2 Label_01014D36
//  #06 //016   ----------------------------------------
 BYTE   PATT
  POIN2 Label_01014D11
//  #06 //017   ----------------------------------------
 BYTE   PATT
  POIN2 Label_01014D1A
//  #06 //018   ----------------------------------------
 BYTE   PATT
  POIN2 Label_01014D1A
//  #06 //019   ----------------------------------------
 BYTE   PATT
  POIN2 Label_01014D1A
//  #06 //020   ----------------------------------------
 BYTE   PATT
  POIN2 Label_01014D2D
//  #06 //021   ----------------------------------------
 BYTE   PATT
  POIN2 Label_01014D36
//  #06 //022   ----------------------------------------
 BYTE   PATT
  POIN2 Label_01014D36
//  #06 //023   ----------------------------------------
 BYTE   PATT
  POIN2 Label_01014D36
//  #06 //024   ----------------------------------------
 BYTE   PATT
  POIN2 Label_01014D2D
//  #06 //025   ----------------------------------------
 BYTE   PATT
  POIN2 Label_01014D36
//  #06 //026   ----------------------------------------
 BYTE   PATT
  POIN2 Label_01014CE2
//  #06 //027   ----------------------------------------
Label_01014D80:
 BYTE   N24  Ds0  v100
 BYTE   W24
 BYTE   Ds1
 BYTE   W24
 BYTE   N24
 BYTE   W24
 BYTE   PEND 
//  #06 //028   ----------------------------------------
 BYTE   PATT
  POIN2 Label_01014CE2
//  #06 //029   ----------------------------------------
 BYTE   PATT
  POIN2 Label_01014CE2
//  #06 //030   ----------------------------------------
 BYTE   PATT
  POIN2 Label_01014CEB
//  #06 //031   ----------------------------------------
 BYTE   PATT
  POIN2 Label_01014CEB
//  #06 //032   ----------------------------------------
 BYTE   PATT
  POIN2 Label_01014CF9
//  #06 //033   ----------------------------------------
 BYTE   PATT
  POIN2 Label_01014CF9
//  #06 //034   ----------------------------------------
 BYTE   PATT
  POIN2 Label_01014CEB
//  #06 //035   ----------------------------------------
 BYTE   PATT
  POIN2 Label_01014CE2
//  #06 //036   ----------------------------------------
 BYTE   PATT
  POIN2 Label_01014D11
//  #06 //037   ----------------------------------------
 BYTE   PATT
  POIN2 Label_01014D1A
//  #06 //038   ----------------------------------------
 BYTE   PATT
  POIN2 Label_01014D1A
//  #06 //039   ----------------------------------------
 BYTE   PATT
  POIN2 Label_01014D1A
//  #06 //040   ----------------------------------------
 BYTE   PATT
  POIN2 Label_01014D2D
//  #06 //041   ----------------------------------------
 BYTE   PATT
  POIN2 Label_01014D36
//  #06 //042   ----------------------------------------
 BYTE   PATT
  POIN2 Label_01014D36
//  #06 //043   ----------------------------------------
 BYTE   PATT
  POIN2 Label_01014D36
//  #06 //044   ----------------------------------------
 BYTE   PATT
  POIN2 Label_01014D11
//  #06 //045   ----------------------------------------
 BYTE   PATT
  POIN2 Label_01014D1A
//  #06 //046   ----------------------------------------
 BYTE   PATT
  POIN2 Label_01014D1A
//  #06 //047   ----------------------------------------
 BYTE   PATT
  POIN2 Label_01014D1A
//  #06 //048   ----------------------------------------
 BYTE   PATT
  POIN2 Label_01014D2D
//  #06 //049   ----------------------------------------
 BYTE   PATT
  POIN2 Label_01014D36
//  #06 //050   ----------------------------------------
 BYTE   PATT
  POIN2 Label_01014D36
//  #06 //051   ----------------------------------------
 BYTE   PATT
  POIN2 Label_01014D36
//  #06 //052   ----------------------------------------
 BYTE   PATT
  POIN2 Label_01014D2D
//  #06 //053   ----------------------------------------
 BYTE   PATT
  POIN2 Label_01014D36
//  #06 //054   ----------------------------------------
 BYTE   PATT
  POIN2 Label_01014CE2
//  #06 //055   ----------------------------------------
 BYTE   PATT
  POIN2 Label_01014D80
//  #06 //056   ----------------------------------------
 BYTE   PATT
  POIN2 Label_01014D36
//  #06 //057   ----------------------------------------
 BYTE   PATT
  POIN2 Label_01014D36
//  #06 //058   ----------------------------------------
 BYTE   PATT
  POIN2 Label_01014D36
//  #06 //059   ----------------------------------------
 BYTE   PATT
  POIN2 Label_01014D36
//  #06 //060   ----------------------------------------
 BYTE   PATT
  POIN2 Label_01014D36
//  #06 //061   ----------------------------------------
 BYTE   PATT
  POIN2 Label_01014D36
//  #06 //062   ----------------------------------------
 BYTE   PATT
  POIN2 Label_01014D36
//  #06 //063   ----------------------------------------
 BYTE   PATT
  POIN2 Label_01014D36
//  #06 //064   ----------------------------------------
 BYTE   VOL   25*Crisis_mvl/mxv
 BYTE   N24  Ds1  v100
 BYTE   W24
 BYTE   N24
 BYTE   W24
 BYTE   N24
 BYTE   W24
//  #06 //065   ----------------------------------------
 BYTE   PATT
  POIN2 Label_01014CE2
//  #06 //066   ----------------------------------------
 BYTE   PATT
  POIN2 Label_01014CEB
//  #06 //067   ----------------------------------------
 BYTE   PATT
  POIN2 Label_01014CEB
//  #06 //068   ----------------------------------------
 BYTE   PATT
  POIN2 Label_01014CF9
//  #06 //069   ----------------------------------------
 BYTE   PATT
  POIN2 Label_01014CF9
//  #06 //070   ----------------------------------------
 BYTE   PATT
  POIN2 Label_01014CEB
//  #06 //071   ----------------------------------------
 BYTE   PATT
  POIN2 Label_01014CE2
//  #06 //072   ----------------------------------------
 BYTE   PATT
  POIN2 Label_01014D11
//  #06 //073   ----------------------------------------
 BYTE   PATT
  POIN2 Label_01014D1A
//  #06 //074   ----------------------------------------
 BYTE   PATT
  POIN2 Label_01014D1A
//  #06 //075   ----------------------------------------
 BYTE   PATT
  POIN2 Label_01014D1A
//  #06 //076   ----------------------------------------
 BYTE   PATT
  POIN2 Label_01014D2D
//  #06 //077   ----------------------------------------
 BYTE   PATT
  POIN2 Label_01014D36
//  #06 //078   ----------------------------------------
 BYTE   PATT
  POIN2 Label_01014D36
//  #06 //079   ----------------------------------------
 BYTE   PATT
  POIN2 Label_01014D36
//  #06 //080   ----------------------------------------
 BYTE   PATT
  POIN2 Label_01014D11
//  #06 //081   ----------------------------------------
 BYTE   PATT
  POIN2 Label_01014D1A
//  #06 //082   ----------------------------------------
 BYTE   PATT
  POIN2 Label_01014D1A
//  #06 //083   ----------------------------------------
 BYTE   PATT
  POIN2 Label_01014D1A
//  #06 //084   ----------------------------------------
 BYTE   PATT
  POIN2 Label_01014D2D
//  #06 //085   ----------------------------------------
 BYTE   PATT
  POIN2 Label_01014D36
//  #06 //086   ----------------------------------------
 BYTE   PATT
  POIN2 Label_01014D36
//  #06 //087   ----------------------------------------
 BYTE   PATT
  POIN2 Label_01014D36
//  #06 //088   ----------------------------------------
 BYTE   PATT
  POIN2 Label_01014D2D
//  #06 //089   ----------------------------------------
 BYTE   PATT
  POIN2 Label_01014D36
//  #06 //090   ----------------------------------------
 BYTE   PATT
  POIN2 Label_01014CE2
//  #06 //091   ----------------------------------------
 BYTE   PATT
  POIN2 Label_01014D80
//  #06 //092   ----------------------------------------
 BYTE   PATT
  POIN2 Label_01014CE2
//  #06 //093   ----------------------------------------
 BYTE   PATT
  POIN2 Label_01014CE2
//  #06 //094   ----------------------------------------
 BYTE   PATT
  POIN2 Label_01014CEB
//  #06 //095   ----------------------------------------
 BYTE   PATT
  POIN2 Label_01014CEB
//  #06 //096   ----------------------------------------
 BYTE   PATT
  POIN2 Label_01014CF9
//  #06 //097   ----------------------------------------
 BYTE   PATT
  POIN2 Label_01014CF9
//  #06 //098   ----------------------------------------
 BYTE   PATT
  POIN2 Label_01014CEB
//  #06 //099   ----------------------------------------
 BYTE   PATT
  POIN2 Label_01014CE2
//  #06 //100   ----------------------------------------
 BYTE   PATT
  POIN2 Label_01014D11
//  #06 //101   ----------------------------------------
 BYTE   PATT
  POIN2 Label_01014D1A
//  #06 //102   ----------------------------------------
 BYTE   PATT
  POIN2 Label_01014D1A
//  #06 //103   ----------------------------------------
 BYTE   PATT
  POIN2 Label_01014D1A
//  #06 //104   ----------------------------------------
 BYTE   PATT
  POIN2 Label_01014D2D
//  #06 //105   ----------------------------------------
 BYTE   PATT
  POIN2 Label_01014D36
//  #06 //106   ----------------------------------------
 BYTE   PATT
  POIN2 Label_01014D36
//  #06 //107   ----------------------------------------
 BYTE   PATT
  POIN2 Label_01014D36
//  #06 //108   ----------------------------------------
 BYTE   PATT
  POIN2 Label_01014D11
//  #06 //109   ----------------------------------------
 BYTE   PATT
  POIN2 Label_01014D1A
//  #06 //110   ----------------------------------------
 BYTE   PATT
  POIN2 Label_01014D1A
//  #06 //111   ----------------------------------------
 BYTE   PATT
  POIN2 Label_01014D1A
//  #06 //112   ----------------------------------------
 BYTE   PATT
  POIN2 Label_01014D2D
//  #06 //113   ----------------------------------------
 BYTE   PATT
  POIN2 Label_01014D36
//  #06 //114   ----------------------------------------
 BYTE   PATT
  POIN2 Label_01014D36
//  #06 //115   ----------------------------------------
 BYTE   PATT
  POIN2 Label_01014D36
//  #06 //116   ----------------------------------------
 BYTE   PATT
  POIN2 Label_01014D2D
//  #06 //117   ----------------------------------------
 BYTE   PATT
  POIN2 Label_01014D36
//  #06 //118   ----------------------------------------
 BYTE   PATT
  POIN2 Label_01014CE2
//  #06 //119   ----------------------------------------
 BYTE   PATT
  POIN2 Label_01014D80
//  #06 //120   ----------------------------------------
 BYTE   PATT
  POIN2 Label_01014D36
//  #06 //121   ----------------------------------------
 BYTE   PATT
  POIN2 Label_01014D36
//  #06 //122   ----------------------------------------
 BYTE   PATT
  POIN2 Label_01014D36
//  #06 //123   ----------------------------------------
 BYTE   PATT
  POIN2 Label_01014D36
//  #06 //124   ----------------------------------------
 BYTE   PATT
  POIN2 Label_01014D36
//  #06 //125   ----------------------------------------
 BYTE   PATT
  POIN2 Label_01014D36
//  #06 //126   ----------------------------------------
 BYTE   PATT
  POIN2 Label_01014D36
//  #06 //127   ----------------------------------------
 BYTE   PATT
  POIN2 Label_01014D36
//  #06 //128   ----------------------------------------
 BYTE   GoTo
  POIN2 Label_01014CD6
 BYTE   FINE

//**************** Track 7 (Midi-Chn.6) ****************//

Crisis_007:
//  #07 //000   ----------------------------------------
 BYTE   KEYSH   Crisis_key+0
Label_57527A:
 BYTE   VOICE   24
 BYTE   VOL   21*Crisis_mvl/mxv
 BYTE   N12  Ds1  v100
 BYTE   W24
 BYTE   N12
 BYTE   W24
 BYTE   N12
 BYTE   W12
 BYTE   N12
 BYTE   W12
Label_575288:
 BYTE   N12  Ds1  v100
 BYTE   W24
//  #07 //001   ----------------------------------------
 BYTE   N12
 BYTE   W24
 BYTE   N12
 BYTE   W12
 BYTE   N12
 BYTE   W12
 BYTE   PEND 
Label_575293:
 BYTE   N12  Fn1  v100
 BYTE   W24
 BYTE   N12
 BYTE   W24
//  #07 //002   ----------------------------------------
 BYTE   N12
 BYTE   W12
 BYTE   N12
 BYTE   W12
 BYTE   PEND 
//  #07 //003   ----------------------------------------
 BYTE   PATT
  POIN2 Label_575293
//  #07 //004   ----------------------------------------
Label_5752A3:
 BYTE   N12  Fs1  v100
 BYTE   W24
 BYTE   N12
 BYTE   W24
 BYTE   N12
 BYTE   W12
 BYTE   N12
 BYTE   W12
 BYTE   PEND 
//  #07 //005   ----------------------------------------
 BYTE   PATT
  POIN2 Label_5752A3
//  #07 //006   ----------------------------------------
 BYTE   W72
 BYTE   W72
//  #07 //007   ----------------------------------------
 BYTE   W72
 BYTE   W72
//  #07 //008   ----------------------------------------
 BYTE   W72
 BYTE   W72
//  #07 //009   ----------------------------------------
 BYTE   W72
 BYTE   W72
//  #07 //010   ----------------------------------------
 BYTE   W72
 BYTE   W72
//  #07 //011   ----------------------------------------
 BYTE   W72
 BYTE   W72
//  #07 //012   ----------------------------------------
 BYTE   W72
 BYTE   W72
//  #07 //013   ----------------------------------------
 BYTE   W72
 BYTE   W72
//  #07 //014   ----------------------------------------
 BYTE   W72
 BYTE   W72
//  #07 //015   ----------------------------------------
 BYTE   W72
 BYTE   W72
//  #07 //016   ----------------------------------------
 BYTE   W72
 BYTE   W72
//  #07 //017   ----------------------------------------
 BYTE   PATT
  POIN2 Label_575288
//  #07 //018   ----------------------------------------
 BYTE   PATT
  POIN2 Label_575288
//  #07 //019   ----------------------------------------
 BYTE   PATT
  POIN2 Label_575293
//  #07 //020   ----------------------------------------
 BYTE   PATT
  POIN2 Label_575293
//  #07 //021   ----------------------------------------
 BYTE   PATT
  POIN2 Label_5752A3
//  #07 //022   ----------------------------------------
 BYTE   PATT
  POIN2 Label_5752A3
//  #07 //023   ----------------------------------------
 BYTE   W72
 BYTE   W72
//  #07 //024   ----------------------------------------
 BYTE   W72
 BYTE   W72
//  #07 //025   ----------------------------------------
 BYTE   W72
 BYTE   W72
//  #07 //026   ----------------------------------------
 BYTE   W72
 BYTE   W72
//  #07 //027   ----------------------------------------
 BYTE   W72
 BYTE   W72
//  #07 //028   ----------------------------------------
 BYTE   W72
 BYTE   W72
//  #07 //029   ----------------------------------------
 BYTE   W72
 BYTE   W72
//  #07 //030   ----------------------------------------
 BYTE   W72
 BYTE   W72
//  #07 //031   ----------------------------------------
 BYTE   W72
 BYTE   W72
//  #07 //032   ----------------------------------------
 BYTE   W72
 BYTE   W72
//  #07 //033   ----------------------------------------
 BYTE   W72
 BYTE   W72
//  #07 //034   ----------------------------------------
 BYTE   PATT
  POIN2 Label_5752A3
//  #07 //035   ----------------------------------------
 BYTE   PATT
  POIN2 Label_5752A3
//  #07 //036   ----------------------------------------
Label_575307:
 BYTE   N12  Gs1  v100
 BYTE   W24
 BYTE   N12
 BYTE   W24
 BYTE   N12
 BYTE   W12
 BYTE   N12
 BYTE   W12
 BYTE   PEND 
//  #07 //037   ----------------------------------------
 BYTE   PATT
  POIN2 Label_575307
//  #07 //038   ----------------------------------------
Label_575317:
 BYTE   N12  As1  v100
 BYTE   W24
 BYTE   N12
 BYTE   W24
 BYTE   N12
 BYTE   W12
 BYTE   N12
 BYTE   W12
 BYTE   PEND 
//  #07 //039   ----------------------------------------
 BYTE   PATT
  POIN2 Label_575317
//  #07 //040   ----------------------------------------
 BYTE   PATT
  POIN2 Label_575307
//  #07 //041   ----------------------------------------
 BYTE   PATT
  POIN2 Label_575307
//  #07 //042   ----------------------------------------
 BYTE   VOL   21*Crisis_mvl/mxv
 BYTE   N12  Ds1  v100
 BYTE   W24
 BYTE   N12
 BYTE   W24
 BYTE   N12
 BYTE   W12
 BYTE   N12
 BYTE   W12
//  #07 //043   ----------------------------------------
 BYTE   PATT
  POIN2 Label_575288
//  #07 //044   ----------------------------------------
 BYTE   PATT
  POIN2 Label_575293
//  #07 //045   ----------------------------------------
 BYTE   PATT
  POIN2 Label_575293
//  #07 //046   ----------------------------------------
 BYTE   PATT
  POIN2 Label_5752A3
//  #07 //047   ----------------------------------------
 BYTE   PATT
  POIN2 Label_5752A3
//  #07 //048   ----------------------------------------
 BYTE   W72
 BYTE   W72
//  #07 //049   ----------------------------------------
 BYTE   W72
 BYTE   W72
//  #07 //050   ----------------------------------------
 BYTE   W72
 BYTE   W72
//  #07 //051   ----------------------------------------
 BYTE   W72
 BYTE   W72
//  #07 //052   ----------------------------------------
 BYTE   W72
 BYTE   W72
//  #07 //053   ----------------------------------------
 BYTE   W72
 BYTE   W72
//  #07 //054   ----------------------------------------
 BYTE   W72
 BYTE   W72
//  #07 //055   ----------------------------------------
 BYTE   W72
 BYTE   W72
//  #07 //056   ----------------------------------------
 BYTE   W72
 BYTE   W72
//  #07 //057   ----------------------------------------
 BYTE   W72
 BYTE   W72
//  #07 //058   ----------------------------------------
 BYTE   W72
 BYTE   W72
//  #07 //059   ----------------------------------------
 BYTE   PATT
  POIN2 Label_575288
//  #07 //060   ----------------------------------------
 BYTE   PATT
  POIN2 Label_575288
//  #07 //061   ----------------------------------------
 BYTE   PATT
  POIN2 Label_575293
//  #07 //062   ----------------------------------------
 BYTE   PATT
  POIN2 Label_575293
//  #07 //063   ----------------------------------------
 BYTE   PATT
  POIN2 Label_5752A3
//  #07 //064   ----------------------------------------
 BYTE   PATT
  POIN2 Label_5752A3
//  #07 //065   ----------------------------------------
 BYTE   W72
 BYTE   W72
//  #07 //066   ----------------------------------------
 BYTE   W72
 BYTE   W72
//  #07 //067   ----------------------------------------
 BYTE   W72
 BYTE   W72
//  #07 //068   ----------------------------------------
 BYTE   W72
 BYTE   W72
//  #07 //069   ----------------------------------------
 BYTE   W72
 BYTE   W72
//  #07 //070   ----------------------------------------
 BYTE   W72
 BYTE   W72
//  #07 //071   ----------------------------------------
 BYTE   W72
 BYTE   W72
//  #07 //072   ----------------------------------------
 BYTE   W72
 BYTE   W72
//  #07 //073   ----------------------------------------
 BYTE   W72
 BYTE   W72
//  #07 //074   ----------------------------------------
 BYTE   W72
 BYTE   W72
//  #07 //075   ----------------------------------------
 BYTE   W72
 BYTE   W72
//  #07 //076   ----------------------------------------
 BYTE   PATT
  POIN2 Label_5752A3
//  #07 //077   ----------------------------------------
 BYTE   PATT
  POIN2 Label_5752A3
//  #07 //078   ----------------------------------------
 BYTE   PATT
  POIN2 Label_575307
//  #07 //079   ----------------------------------------
 BYTE   PATT
  POIN2 Label_575307
//  #07 //080   ----------------------------------------
 BYTE   PATT
  POIN2 Label_575317
//  #07 //081   ----------------------------------------
 BYTE   PATT
  POIN2 Label_575317
//  #07 //082   ----------------------------------------
 BYTE   PATT
  POIN2 Label_575307
//  #07 //083   ----------------------------------------
 BYTE   PATT
  POIN2 Label_575307
//  #07 //084   ----------------------------------------
 BYTE   GoTo
  POIN2 Label_57527A
 BYTE   FINE

//**************** Track 8 (Midi-Chn.7) ****************//

Crisis_008:
//  #08 //000   ----------------------------------------
 BYTE   KEYSH   Crisis_key+0
Label_01014F9A:
 BYTE   VOICE   127
 BYTE   VOL   24*Crisis_mvl/mxv
 BYTE   N06  Dn1  v127
 BYTE   W24
 BYTE   Dn1  v092
 BYTE   W06
 BYTE   N06
 BYTE   W06
 BYTE   N06
 BYTE   W06
 BYTE   N06
 BYTE   W06
 BYTE   N06
 BYTE   W06
 BYTE   N06
 BYTE   W06
 BYTE   N06
 BYTE   W06
 BYTE   N06
 BYTE   W06
Label_01014FB3:
 BYTE   N06  Dn1  v127
 BYTE   W24
//  #08 //001   ----------------------------------------
 BYTE   N06
 BYTE   W24
 BYTE   Dn1  v092
 BYTE   W06
 BYTE   N06
 BYTE   W06
 BYTE   N06
 BYTE   W12
 BYTE   PEND 
Label_01014FC1:
 BYTE   N06  Dn1  v127
 BYTE   W24
 BYTE   Dn1  v092
 BYTE   W06
 BYTE   N06
 BYTE   W06
 BYTE   N06
 BYTE   W06
 BYTE   N06
 BYTE   W06
//  #08 //002   ----------------------------------------
 BYTE   N06
 BYTE   W06
 BYTE   N06
 BYTE   W06
 BYTE   N06
 BYTE   W06
 BYTE   N06
 BYTE   W06
 BYTE   PEND 
//  #08 //003   ----------------------------------------
 BYTE   PATT
  POIN2 Label_01014FB3
//  #08 //004   ----------------------------------------
 BYTE   PATT
  POIN2 Label_01014FC1
//  #08 //005   ----------------------------------------
 BYTE   PATT
  POIN2 Label_01014FB3
//  #08 //006   ----------------------------------------
 BYTE   PATT
  POIN2 Label_01014FC1
//  #08 //007   ----------------------------------------
 BYTE   PATT
  POIN2 Label_01014FB3
//  #08 //008   ----------------------------------------
Label_01014FF0:
 BYTE   N06  Dn1  v127
 BYTE   W24
 BYTE   Dn1  v092
 BYTE   W24
 BYTE   Dn1  v084
 BYTE   W24
 BYTE   PEND 
//  #08 //009   ----------------------------------------
 BYTE   PATT
  POIN2 Label_01014FF0
//  #08 //010   ----------------------------------------
 BYTE   PATT
  POIN2 Label_01014FF0
//  #08 //011   ----------------------------------------
 BYTE   PATT
  POIN2 Label_01014FF0
//  #08 //012   ----------------------------------------
 BYTE   PATT
  POIN2 Label_01014FF0
//  #08 //013   ----------------------------------------
 BYTE   PATT
  POIN2 Label_01014FF0
//  #08 //014   ----------------------------------------
 BYTE   PATT
  POIN2 Label_01014FF0
//  #08 //015   ----------------------------------------
 BYTE   PATT
  POIN2 Label_01014FF0
//  #08 //016   ----------------------------------------
 BYTE   PATT
  POIN2 Label_01014FF0
//  #08 //017   ----------------------------------------
 BYTE   PATT
  POIN2 Label_01014FF0
//  #08 //018   ----------------------------------------
 BYTE   PATT
  POIN2 Label_01014FF0
//  #08 //019   ----------------------------------------
 BYTE   PATT
  POIN2 Label_01014FF0
//  #08 //020   ----------------------------------------
 BYTE   PATT
  POIN2 Label_01014FF0
//  #08 //021   ----------------------------------------
 BYTE   PATT
  POIN2 Label_01014FF0
//  #08 //022   ----------------------------------------
 BYTE   PATT
  POIN2 Label_01014FF0
//  #08 //023   ----------------------------------------
Label_01015041:
 BYTE   N06  Dn1  v092
 BYTE   W12
 BYTE   Dn1  v127
 BYTE   W24
 BYTE   N06
 BYTE   W24
 BYTE   N06
 BYTE   W12
 BYTE   PEND 
//  #08 //024   ----------------------------------------
 BYTE   PATT
  POIN2 Label_01014FF0
//  #08 //025   ----------------------------------------
 BYTE   PATT
  POIN2 Label_01014FF0
//  #08 //026   ----------------------------------------
 BYTE   PATT
  POIN2 Label_01014FF0
//  #08 //027   ----------------------------------------
 BYTE   PATT
  POIN2 Label_01014FF0
//  #08 //028   ----------------------------------------
 BYTE   PATT
  POIN2 Label_01014FC1
//  #08 //029   ----------------------------------------
 BYTE   PATT
  POIN2 Label_01014FB3
//  #08 //030   ----------------------------------------
 BYTE   PATT
  POIN2 Label_01014FC1
//  #08 //031   ----------------------------------------
 BYTE   PATT
  POIN2 Label_01014FB3
//  #08 //032   ----------------------------------------
 BYTE   PATT
  POIN2 Label_01014FC1
//  #08 //033   ----------------------------------------
 BYTE   PATT
  POIN2 Label_01014FB3
//  #08 //034   ----------------------------------------
 BYTE   PATT
  POIN2 Label_01014FC1
//  #08 //035   ----------------------------------------
 BYTE   PATT
  POIN2 Label_01014FB3
//  #08 //036   ----------------------------------------
 BYTE   PATT
  POIN2 Label_01014FF0
//  #08 //037   ----------------------------------------
 BYTE   PATT
  POIN2 Label_01014FF0
//  #08 //038   ----------------------------------------
 BYTE   PATT
  POIN2 Label_01014FF0
//  #08 //039   ----------------------------------------
 BYTE   PATT
  POIN2 Label_01014FF0
//  #08 //040   ----------------------------------------
 BYTE   PATT
  POIN2 Label_01014FF0
//  #08 //041   ----------------------------------------
 BYTE   PATT
  POIN2 Label_01014FF0
//  #08 //042   ----------------------------------------
 BYTE   PATT
  POIN2 Label_01014FF0
//  #08 //043   ----------------------------------------
 BYTE   PATT
  POIN2 Label_01014FF0
//  #08 //044   ----------------------------------------
 BYTE   PATT
  POIN2 Label_01014FF0
//  #08 //045   ----------------------------------------
 BYTE   PATT
  POIN2 Label_01014FF0
//  #08 //046   ----------------------------------------
 BYTE   PATT
  POIN2 Label_01014FF0
//  #08 //047   ----------------------------------------
 BYTE   PATT
  POIN2 Label_01014FF0
//  #08 //048   ----------------------------------------
 BYTE   PATT
  POIN2 Label_01014FF0
//  #08 //049   ----------------------------------------
 BYTE   PATT
  POIN2 Label_01014FF0
//  #08 //050   ----------------------------------------
 BYTE   PATT
  POIN2 Label_01014FF0
//  #08 //051   ----------------------------------------
 BYTE   PATT
  POIN2 Label_01015041
//  #08 //052   ----------------------------------------
 BYTE   PATT
  POIN2 Label_01014FF0
//  #08 //053   ----------------------------------------
 BYTE   PATT
  POIN2 Label_01014FF0
//  #08 //054   ----------------------------------------
 BYTE   PATT
  POIN2 Label_01014FF0
//  #08 //055   ----------------------------------------
 BYTE   PATT
  POIN2 Label_01014FF0
//  #08 //056   ----------------------------------------
Label_010150ED:
 BYTE   N06  Dn1  v127
 BYTE   W24
 BYTE   Dn1  v092
 BYTE   W24
 BYTE   N06
 BYTE   W24
 BYTE   PEND 
Label_010150F7:
 BYTE   N06  Dn1  v127
 BYTE   W12
 BYTE   Dn1  v092
 BYTE   W06
 BYTE   N06
 BYTE   W06
//  #08 //057   ----------------------------------------
 BYTE   N06
 BYTE   W06
 BYTE   N06
 BYTE   W06
 BYTE   N06
 BYTE   W06
 BYTE   N06
 BYTE   W06
 BYTE   N06
 BYTE   W06
 BYTE   N06
 BYTE   W06
 BYTE   N06
 BYTE   W06
 BYTE   N06
 BYTE   W06
 BYTE   PEND 
//  #08 //058   ----------------------------------------
 BYTE   PATT
  POIN2 Label_010150ED
//  #08 //059   ----------------------------------------
 BYTE   PATT
  POIN2 Label_010150F7
//  #08 //060   ----------------------------------------
 BYTE   PATT
  POIN2 Label_010150ED
//  #08 //061   ----------------------------------------
 BYTE   PATT
  POIN2 Label_010150F7
//  #08 //062   ----------------------------------------
 BYTE   PATT
  POIN2 Label_010150ED
//  #08 //063   ----------------------------------------
 BYTE   PATT
  POIN2 Label_010150F7
//  #08 //064   ----------------------------------------
 BYTE   PATT
  POIN2 Label_01014FC1
//  #08 //065   ----------------------------------------
 BYTE   PATT
  POIN2 Label_01014FB3
//  #08 //066   ----------------------------------------
 BYTE   PATT
  POIN2 Label_01014FC1
//  #08 //067   ----------------------------------------
 BYTE   PATT
  POIN2 Label_01014FB3
//  #08 //068   ----------------------------------------
 BYTE   PATT
  POIN2 Label_01014FC1
//  #08 //069   ----------------------------------------
 BYTE   PATT
  POIN2 Label_01014FB3
//  #08 //070   ----------------------------------------
 BYTE   PATT
  POIN2 Label_01014FC1
//  #08 //071   ----------------------------------------
 BYTE   PATT
  POIN2 Label_01014FB3
//  #08 //072   ----------------------------------------
 BYTE   PATT
  POIN2 Label_01014FF0
//  #08 //073   ----------------------------------------
 BYTE   PATT
  POIN2 Label_01014FF0
//  #08 //074   ----------------------------------------
 BYTE   PATT
  POIN2 Label_01014FF0
//  #08 //075   ----------------------------------------
 BYTE   PATT
  POIN2 Label_01014FF0
//  #08 //076   ----------------------------------------
 BYTE   PATT
  POIN2 Label_01014FF0
//  #08 //077   ----------------------------------------
 BYTE   PATT
  POIN2 Label_01014FF0
//  #08 //078   ----------------------------------------
 BYTE   PATT
  POIN2 Label_01014FF0
//  #08 //079   ----------------------------------------
 BYTE   PATT
  POIN2 Label_01014FF0
//  #08 //080   ----------------------------------------
 BYTE   PATT
  POIN2 Label_01014FF0
//  #08 //081   ----------------------------------------
 BYTE   PATT
  POIN2 Label_01014FF0
//  #08 //082   ----------------------------------------
 BYTE   PATT
  POIN2 Label_01014FF0
//  #08 //083   ----------------------------------------
 BYTE   PATT
  POIN2 Label_01014FF0
//  #08 //084   ----------------------------------------
 BYTE   PATT
  POIN2 Label_01014FF0
//  #08 //085   ----------------------------------------
 BYTE   PATT
  POIN2 Label_01014FF0
//  #08 //086   ----------------------------------------
 BYTE   PATT
  POIN2 Label_01014FF0
//  #08 //087   ----------------------------------------
 BYTE   PATT
  POIN2 Label_01015041
//  #08 //088   ----------------------------------------
 BYTE   PATT
  POIN2 Label_01014FF0
//  #08 //089   ----------------------------------------
 BYTE   PATT
  POIN2 Label_01014FF0
//  #08 //090   ----------------------------------------
 BYTE   PATT
  POIN2 Label_01014FF0
//  #08 //091   ----------------------------------------
 BYTE   PATT
  POIN2 Label_01014FF0
//  #08 //092   ----------------------------------------
 BYTE   PATT
  POIN2 Label_01014FC1
//  #08 //093   ----------------------------------------
 BYTE   PATT
  POIN2 Label_01014FB3
//  #08 //094   ----------------------------------------
 BYTE   PATT
  POIN2 Label_01014FC1
//  #08 //095   ----------------------------------------
 BYTE   PATT
  POIN2 Label_01014FB3
//  #08 //096   ----------------------------------------
 BYTE   PATT
  POIN2 Label_01014FC1
//  #08 //097   ----------------------------------------
 BYTE   PATT
  POIN2 Label_01014FB3
//  #08 //098   ----------------------------------------
 BYTE   PATT
  POIN2 Label_01014FC1
//  #08 //099   ----------------------------------------
 BYTE   PATT
  POIN2 Label_01014FB3
//  #08 //100   ----------------------------------------
 BYTE   PATT
  POIN2 Label_01014FF0
//  #08 //101   ----------------------------------------
 BYTE   PATT
  POIN2 Label_01014FF0
//  #08 //102   ----------------------------------------
 BYTE   PATT
  POIN2 Label_01014FF0
//  #08 //103   ----------------------------------------
 BYTE   PATT
  POIN2 Label_01014FF0
//  #08 //104   ----------------------------------------
 BYTE   PATT
  POIN2 Label_01014FF0
//  #08 //105   ----------------------------------------
 BYTE   PATT
  POIN2 Label_01014FF0
//  #08 //106   ----------------------------------------
 BYTE   PATT
  POIN2 Label_01014FF0
//  #08 //107   ----------------------------------------
 BYTE   PATT
  POIN2 Label_01014FF0
//  #08 //108   ----------------------------------------
 BYTE   PATT
  POIN2 Label_01014FF0
//  #08 //109   ----------------------------------------
 BYTE   PATT
  POIN2 Label_01014FF0
//  #08 //110   ----------------------------------------
 BYTE   PATT
  POIN2 Label_01014FF0
//  #08 //111   ----------------------------------------
 BYTE   PATT
  POIN2 Label_01014FF0
//  #08 //112   ----------------------------------------
 BYTE   PATT
  POIN2 Label_01014FF0
//  #08 //113   ----------------------------------------
 BYTE   PATT
  POIN2 Label_01014FF0
//  #08 //114   ----------------------------------------
 BYTE   PATT
  POIN2 Label_01014FF0
//  #08 //115   ----------------------------------------
 BYTE   PATT
  POIN2 Label_01015041
//  #08 //116   ----------------------------------------
 BYTE   PATT
  POIN2 Label_01014FF0
//  #08 //117   ----------------------------------------
 BYTE   PATT
  POIN2 Label_01014FF0
//  #08 //118   ----------------------------------------
 BYTE   PATT
  POIN2 Label_01014FF0
//  #08 //119   ----------------------------------------
 BYTE   PATT
  POIN2 Label_01014FF0
//  #08 //120   ----------------------------------------
 BYTE   PATT
  POIN2 Label_010150ED
//  #08 //121   ----------------------------------------
 BYTE   PATT
  POIN2 Label_010150F7
//  #08 //122   ----------------------------------------
 BYTE   PATT
  POIN2 Label_010150ED
//  #08 //123   ----------------------------------------
 BYTE   PATT
  POIN2 Label_010150F7
//  #08 //124   ----------------------------------------
 BYTE   PATT
  POIN2 Label_010150ED
//  #08 //125   ----------------------------------------
 BYTE   PATT
  POIN2 Label_010150F7
//  #08 //126   ----------------------------------------
 BYTE   PATT
  POIN2 Label_010150ED
//  #08 //127   ----------------------------------------
 BYTE   PATT
  POIN2 Label_010150F7
//  #08 //128   ----------------------------------------
 BYTE   GoTo
  POIN2 Label_01014F9A
 BYTE   FINE

//******************************************************//
	ALIGN 4

Crisis:
	BYTE	8	// NumTrks
	BYTE	0	// NumBlks
	BYTE	Crisis_pri	// Priority
	BYTE	Crisis_rev	// Reverb.
    
	POIN2	Crisis_grp
    
	POIN2	Crisis_001
	POIN2	Crisis_002
	POIN2	Crisis_003
	POIN2	Crisis_004
	POIN2	Crisis_005
	POIN2	Crisis_006
	POIN2	Crisis_007
	POIN2	Crisis_008

	
