//Event file generated from Sappy .s format.
	#include "MPlayDef.event"

	#define	CrossCounter_grp  voicegroup000
	#define	CrossCounter_pri  0
	#define	CrossCounter_rev  0
	#define	CrossCounter_mvl  127
	#define	CrossCounter_key  0
	#define	CrossCounter_tbs  1
	#define	CrossCounter_exg  0
	#define	CrossCounter_cmp  1

	// .rodata
	//	CrossCounter
	ALIGN 4


//**************** Track 1 (Midi-Chn.0) ****************//

CrossCounter_001:
//  #01 //000   ----------------------------------------
 BYTE   KEYSH   CrossCounter_key+0
 BYTE   TEMPO   178*CrossCounter_tbs/2
 BYTE   VOICE   30
 BYTE   PAN   c_v+0
 BYTE   VOL   39*CrossCounter_mvl/mxv
 BYTE   W96
//  #01 //001   ----------------------------------------
 BYTE   W96
//  #01 //002   ----------------------------------------
 BYTE   TIE  En3  v116
 BYTE   W96
//  #01 //003   ----------------------------------------
 BYTE   W68
 BYTE   W03
 BYTE   EOT
 BYTE   W01
 BYTE   N05
 BYTE   W06
 BYTE   Fs3
 BYTE   W06
 BYTE   Gn3
 BYTE   W06
 BYTE   An3
 BYTE   W06
//  #01 //004   ----------------------------------------
 BYTE   TIE  Bn3
 BYTE   W96
//  #01 //005   ----------------------------------------
 BYTE   W92
 BYTE   W03
 BYTE   EOT
 BYTE   W01
//  #01 //006   ----------------------------------------
Label_01004603:
 BYTE   N02  Cn4  v116
 BYTE   W03
 BYTE   En4
 BYTE   W03
 BYTE   Gn4
 BYTE   W66
 BYTE   Dn4
 BYTE   W03
 BYTE   Fs4
 BYTE   W03
 BYTE   An4
 BYTE   W18
 BYTE   PEND 
//  #01 //007   ----------------------------------------
 BYTE   W96
//  #01 //008   ----------------------------------------
 BYTE   N44  En3
 BYTE   W48
 BYTE   Fs3
 BYTE   W48
//  #01 //009   ----------------------------------------
Label_01004618:
 BYTE   N44  Gn3  v116
 BYTE   W48
 BYTE   An3
 BYTE   W48
 BYTE   PEND 
//  #01 //010   ----------------------------------------
 BYTE   TIE  En3
 BYTE   W96
//  #01 //011   ----------------------------------------
 BYTE   W80
 BYTE   W03
 BYTE   EOT
 BYTE   W04
 BYTE   N02
 BYTE   W03
 BYTE   Gn3
 BYTE   W03
 BYTE   Bn3
 BYTE   W03
//  #01 //012   ----------------------------------------
 BYTE   TIE  En4
 BYTE   W96
//  #01 //013   ----------------------------------------
 BYTE   W92
 BYTE   W03
 BYTE   EOT
 BYTE   W01
//  #01 //014   ----------------------------------------
Label_01004633:
 BYTE   N80  Fn3  v116
 BYTE   W84
 BYTE   W03
 BYTE   N02
 BYTE   W03
 BYTE   An3
 BYTE   W03
 BYTE   Cn4
 BYTE   W03
 BYTE   PEND 
//  #01 //015   ----------------------------------------
 BYTE   N92  Fn4
 BYTE   W96
//  #01 //016   ----------------------------------------
 BYTE   An4
 BYTE   W96
//  #01 //017   ----------------------------------------
Label_01004644:
 BYTE   N32  Gn4  v116
 BYTE   W36
 BYTE   Fn4
 BYTE   W36
 BYTE   N23  Dn4
 BYTE   W24
 BYTE   PEND 
//  #01 //018   ----------------------------------------
Label_0100464E:
 BYTE   N23  As3  v116
 BYTE   W24
 BYTE   Ds3
 BYTE   W24
 BYTE   Gs3
 BYTE   W24
 BYTE   Gn3
 BYTE   W24
 BYTE   PEND 
//  #01 //019   ----------------------------------------
Label_01004659:
 BYTE   N23  Fs3  v116
 BYTE   W24
 BYTE   Fn3
 BYTE   W24
 BYTE   Cn3
 BYTE   W24
 BYTE   Ds3
 BYTE   W24
 BYTE   PEND 
//  #01 //020   ----------------------------------------
Label_01004664:
 BYTE   N23  Cs3  v116
 BYTE   W24
 BYTE   N11  As2
 BYTE   W12
 BYTE   Bn2
 BYTE   W12
 BYTE   PEND 
 BYTE   TIE  Cn3
 BYTE   W96
//  #01 //021   ----------------------------------------
 BYTE   W92
 BYTE   W03
 BYTE   EOT
 BYTE   W01
//  #01 //022   ----------------------------------------
 BYTE   TIE  En3
 BYTE   W96
//  #01 //023   ----------------------------------------
 BYTE   W68
 BYTE   W03
 BYTE   EOT
 BYTE   W01
 BYTE   N05
 BYTE   W06
 BYTE   Fs3
 BYTE   W06
 BYTE   Gn3
 BYTE   W06
 BYTE   An3
 BYTE   W06
//  #01 //024   ----------------------------------------
 BYTE   TIE  Bn3
 BYTE   W96
//  #01 //025   ----------------------------------------
 BYTE   W92
 BYTE   W03
 BYTE   EOT
 BYTE   W01
//  #01 //026   ----------------------------------------
 BYTE   PATT
  POIN2 Label_01004603
//  #01 //027   ----------------------------------------
 BYTE   W96
//  #01 //028   ----------------------------------------
 BYTE   N44  En3  v116
 BYTE   W48
 BYTE   Fs3
 BYTE   W48
//  #01 //029   ----------------------------------------
 BYTE   PATT
  POIN2 Label_01004618
//  #01 //030   ----------------------------------------
 BYTE   TIE  En3  v116
 BYTE   W96
//  #01 //031   ----------------------------------------
 BYTE   W80
 BYTE   W03
 BYTE   EOT
 BYTE   W04
 BYTE   N02
 BYTE   W03
 BYTE   Gn3
 BYTE   W03
 BYTE   Bn3
 BYTE   W03
//  #01 //032   ----------------------------------------
 BYTE   TIE  En4
 BYTE   W96
//  #01 //033   ----------------------------------------
 BYTE   W92
 BYTE   W03
 BYTE   EOT
 BYTE   W01
//  #01 //034   ----------------------------------------
 BYTE   PATT
  POIN2 Label_01004633
//  #01 //035   ----------------------------------------
 BYTE   N92  Fn4  v116
 BYTE   W96
//  #01 //036   ----------------------------------------
 BYTE   An4
 BYTE   W96
//  #01 //037   ----------------------------------------
 BYTE   PATT
  POIN2 Label_01004644
//  #01 //038   ----------------------------------------
 BYTE   PATT
  POIN2 Label_0100464E
//  #01 //039   ----------------------------------------
 BYTE   PATT
  POIN2 Label_01004659
//  #01 //040   ----------------------------------------
 BYTE   PATT
  POIN2 Label_01004664
//  #01 //041   ----------------------------------------
 BYTE   TIE  Cn3  v116
 BYTE   W96
//  #01 //042   ----------------------------------------
 BYTE   W92
 BYTE   W03
 BYTE   EOT
 BYTE   W01
//  #01 //043   ----------------------------------------
Label_010046D8:
 BYTE   TIE  En3  v116
 BYTE   W96
//  #01 //044   ----------------------------------------
 BYTE   W68
 BYTE   W03
 BYTE   EOT
 BYTE   W01
 BYTE   N05
 BYTE   W06
 BYTE   Fs3
 BYTE   W06
 BYTE   Gn3
 BYTE   W06
 BYTE   An3
 BYTE   W06
//  #01 //045   ----------------------------------------
 BYTE   TIE  Bn3
 BYTE   W96
//  #01 //046   ----------------------------------------
 BYTE   W92
 BYTE   W03
 BYTE   EOT
 BYTE   W01
//  #01 //047   ----------------------------------------
 BYTE   PATT
  POIN2 Label_01004603
//  #01 //048   ----------------------------------------
 BYTE   W96
//  #01 //049   ----------------------------------------
 BYTE   N44  En3  v116
 BYTE   W48
 BYTE   Fs3
 BYTE   W48
//  #01 //050   ----------------------------------------
 BYTE   PATT
  POIN2 Label_01004618
//  #01 //051   ----------------------------------------
 BYTE   TIE  En3  v116
 BYTE   W96
//  #01 //052   ----------------------------------------
 BYTE   W80
 BYTE   W03
 BYTE   EOT
 BYTE   W04
 BYTE   N02
 BYTE   W03
 BYTE   Gn3
 BYTE   W03
 BYTE   Bn3
 BYTE   W03
//  #01 //053   ----------------------------------------
 BYTE   TIE  En4
 BYTE   W96
//  #01 //054   ----------------------------------------
 BYTE   W92
 BYTE   W03
 BYTE   EOT
 BYTE   W01
//  #01 //055   ----------------------------------------
 BYTE   PATT
  POIN2 Label_01004633
//  #01 //056   ----------------------------------------
 BYTE   N92  Fn4  v116
 BYTE   W96
//  #01 //057   ----------------------------------------
 BYTE   An4
 BYTE   W96
//  #01 //058   ----------------------------------------
 BYTE   PATT
  POIN2 Label_01004644
//  #01 //059   ----------------------------------------
 BYTE   PATT
  POIN2 Label_0100464E
//  #01 //060   ----------------------------------------
 BYTE   PATT
  POIN2 Label_01004659
//  #01 //061   ----------------------------------------
 BYTE   PATT
  POIN2 Label_01004664
//  #01 //062   ----------------------------------------
 BYTE   TIE  Cn3  v116
 BYTE   W96
//  #01 //063   ----------------------------------------
 BYTE   W92
 BYTE   W03
 BYTE   EOT
 BYTE   W01
//  #01 //064   ----------------------------------------
 BYTE   GoTo
  POIN2 Label_010046D8
//  #01 //065   ----------------------------------------
 BYTE   TIE  En3  v116
 BYTE   W96
//  #01 //066   ----------------------------------------
 BYTE   W68
 BYTE   W03
 BYTE   EOT
 BYTE   W01
 BYTE   N05
 BYTE   W06
 BYTE   Fs3
 BYTE   W06
 BYTE   Gn3
 BYTE   W06
 BYTE   An3
 BYTE   W06
//  #01 //067   ----------------------------------------
 BYTE   TIE  Bn3
 BYTE   W96
//  #01 //068   ----------------------------------------
 BYTE   W92
 BYTE   W03
 BYTE   EOT
 BYTE   W01
//  #01 //069   ----------------------------------------
 BYTE   PATT
  POIN2 Label_01004603
//  #01 //070   ----------------------------------------
 BYTE   W96
//  #01 //071   ----------------------------------------
 BYTE   N44  En3  v116
 BYTE   W48
 BYTE   Fs3
 BYTE   W48
//  #01 //072   ----------------------------------------
 BYTE   PATT
  POIN2 Label_01004618
//  #01 //073   ----------------------------------------
 BYTE   TIE  En3  v116
 BYTE   W96
//  #01 //074   ----------------------------------------
 BYTE   W80
 BYTE   W03
 BYTE   EOT
 BYTE   W04
 BYTE   N02
 BYTE   W03
 BYTE   Gn3
 BYTE   W03
 BYTE   Bn3
 BYTE   W03
//  #01 //075   ----------------------------------------
 BYTE   TIE  En4
 BYTE   W96
//  #01 //076   ----------------------------------------
 BYTE   W92
 BYTE   W03
 BYTE   EOT
 BYTE   W01
//  #01 //077   ----------------------------------------
 BYTE   PATT
  POIN2 Label_01004633
//  #01 //078   ----------------------------------------
 BYTE   N92  Fn4  v116
 BYTE   W96
//  #01 //079   ----------------------------------------
 BYTE   An4
 BYTE   W96
//  #01 //080   ----------------------------------------
 BYTE   PATT
  POIN2 Label_01004644
//  #01 //081   ----------------------------------------
 BYTE   PATT
  POIN2 Label_0100464E
//  #01 //082   ----------------------------------------
 BYTE   PATT
  POIN2 Label_01004659
//  #01 //083   ----------------------------------------
 BYTE   PATT
  POIN2 Label_01004664
//  #01 //084   ----------------------------------------
 BYTE   TIE  Cn3  v116
 BYTE   W96
//  #01 //085   ----------------------------------------
 BYTE   W92
 BYTE   W03
 BYTE   EOT
 BYTE   FINE

//**************** Track 2 (Midi-Chn.1) ****************//

CrossCounter_002:
//  #02 //000   ----------------------------------------
 BYTE   KEYSH   CrossCounter_key+0
 BYTE   VOICE   33
 BYTE   PAN   c_v+0
 BYTE   VOL   41*CrossCounter_mvl/mxv
 BYTE   N10  En1  v112
 BYTE   W12
 BYTE   Bn1
 BYTE   W12
 BYTE   En1
 BYTE   W12
 BYTE   Bn1
 BYTE   W12
 BYTE   Dn1
 BYTE   W12
 BYTE   An1
 BYTE   W12
 BYTE   Dn1
 BYTE   W12
 BYTE   An1
 BYTE   W12
//  #02 //001   ----------------------------------------
Label_010048EA:
 BYTE   N10  En1  v112
 BYTE   W12
 BYTE   Bn1
 BYTE   W12
 BYTE   En1
 BYTE   W12
 BYTE   Bn1
 BYTE   W12
 BYTE   Dn1
 BYTE   W12
 BYTE   An1
 BYTE   W12
 BYTE   Dn1
 BYTE   W12
 BYTE   An1
 BYTE   W12
 BYTE   PEND 
//  #02 //002   ----------------------------------------
 BYTE   PATT
  POIN2 Label_010048EA
//  #02 //003   ----------------------------------------
 BYTE   PATT
  POIN2 Label_010048EA
//  #02 //004   ----------------------------------------
 BYTE   PATT
  POIN2 Label_010048EA
//  #02 //005   ----------------------------------------
 BYTE   PATT
  POIN2 Label_010048EA
//  #02 //006   ----------------------------------------
Label_01004911:
 BYTE   N10  Cn1  v112
 BYTE   W12
 BYTE   Gn1
 BYTE   W12
 BYTE   Cn1
 BYTE   W12
 BYTE   Gn1
 BYTE   W12
 BYTE   Dn1
 BYTE   W12
 BYTE   An1
 BYTE   W12
 BYTE   Dn1
 BYTE   W12
 BYTE   An1
 BYTE   W12
 BYTE   PEND 
//  #02 //007   ----------------------------------------
 BYTE   PATT
  POIN2 Label_01004911
//  #02 //008   ----------------------------------------
 BYTE   PATT
  POIN2 Label_010048EA
//  #02 //009   ----------------------------------------
 BYTE   PATT
  POIN2 Label_010048EA
//  #02 //010   ----------------------------------------
Label_01004933:
 BYTE   N10  En1  v112
 BYTE   W12
 BYTE   N04  En0
 BYTE   W12
 BYTE   N04
 BYTE   W12
 BYTE   N10  En1
 BYTE   W12
 BYTE   N04  En0
 BYTE   W12
 BYTE   N04
 BYTE   W12
 BYTE   N10  En1
 BYTE   W12
 BYTE   N04  En0
 BYTE   W12
 BYTE   PEND 
//  #02 //011   ----------------------------------------
Label_0100494B:
 BYTE   N10  En1  v112
 BYTE   W12
 BYTE   N04  En0
 BYTE   W12
 BYTE   N04
 BYTE   W12
 BYTE   N10  En1
 BYTE   W12
 BYTE   N04  Bn0
 BYTE   W12
 BYTE   En0
 BYTE   W12
 BYTE   N10  En1
 BYTE   W12
 BYTE   N04  En0
 BYTE   W12
 BYTE   PEND 
//  #02 //012   ----------------------------------------
 BYTE   PATT
  POIN2 Label_01004933
//  #02 //013   ----------------------------------------
 BYTE   PATT
  POIN2 Label_0100494B
//  #02 //014   ----------------------------------------
Label_0100496D:
 BYTE   N10  Fn1  v112
 BYTE   W12
 BYTE   N04  Fn0
 BYTE   W12
 BYTE   N04
 BYTE   W12
 BYTE   N10  Fn1
 BYTE   W12
 BYTE   N04  Fn0
 BYTE   W12
 BYTE   N04
 BYTE   W12
 BYTE   N10  Fn1
 BYTE   W12
 BYTE   N04  Fn0
 BYTE   W12
 BYTE   PEND 
//  #02 //015   ----------------------------------------
Label_01004985:
 BYTE   N10  Fn1  v112
 BYTE   W12
 BYTE   N04  Fn0
 BYTE   W12
 BYTE   N04
 BYTE   W12
 BYTE   N10  Fn1
 BYTE   W12
 BYTE   N04  Cn1
 BYTE   W12
 BYTE   Fn0
 BYTE   W12
 BYTE   N10  Fn1
 BYTE   W12
 BYTE   N04  Fn0
 BYTE   W12
 BYTE   PEND 
//  #02 //016   ----------------------------------------
 BYTE   PATT
  POIN2 Label_0100496D
//  #02 //017   ----------------------------------------
 BYTE   PATT
  POIN2 Label_01004985
//  #02 //018   ----------------------------------------
Label_010049A7:
 BYTE   N22  As1  v112
 BYTE   W24
 BYTE   Ds1
 BYTE   W24
 BYTE   Gs1
 BYTE   W24
 BYTE   Gn1
 BYTE   W24
 BYTE   PEND 
//  #02 //019   ----------------------------------------
Label_010049B2:
 BYTE   N22  Fs1  v112
 BYTE   W24
 BYTE   Fn1
 BYTE   W24
 BYTE   Cn1
 BYTE   W24
 BYTE   Ds1
 BYTE   W24
 BYTE   PEND 
//  #02 //020   ----------------------------------------
Label_010049BD:
 BYTE   N22  Cs1  v112
 BYTE   W24
 BYTE   N10  As0
 BYTE   W12
 BYTE   Bn0
 BYTE   W12
 BYTE   PEND 
Label_010049C7:
 BYTE   N10  Cn1  v112
 BYTE   W12
 BYTE   N04
 BYTE   W12
 BYTE   N04
 BYTE   W12
 BYTE   N10
 BYTE   W12
//  #02 //021   ----------------------------------------
 BYTE   N04
 BYTE   W12
 BYTE   N04
 BYTE   W12
 BYTE   N10
 BYTE   W12
 BYTE   N04
 BYTE   W12
 BYTE   PEND 
Label_010049DA:
 BYTE   W12
 BYTE   N10  Cn1  v112
 BYTE   W24
 BYTE   N10
 BYTE   W24
//  #02 //022   ----------------------------------------
 BYTE   N10
 BYTE   W24
 BYTE   N10
 BYTE   W12
 BYTE   PEND 
//  #02 //023   ----------------------------------------
 BYTE   PATT
  POIN2 Label_010048EA
//  #02 //024   ----------------------------------------
 BYTE   PATT
  POIN2 Label_010048EA
//  #02 //025   ----------------------------------------
 BYTE   PATT
  POIN2 Label_010048EA
//  #02 //026   ----------------------------------------
 BYTE   PATT
  POIN2 Label_010048EA
//  #02 //027   ----------------------------------------
 BYTE   PATT
  POIN2 Label_01004911
//  #02 //028   ----------------------------------------
 BYTE   PATT
  POIN2 Label_01004911
//  #02 //029   ----------------------------------------
 BYTE   PATT
  POIN2 Label_010048EA
//  #02 //030   ----------------------------------------
 BYTE   PATT
  POIN2 Label_010048EA
//  #02 //031   ----------------------------------------
 BYTE   PATT
  POIN2 Label_01004933
//  #02 //032   ----------------------------------------
 BYTE   PATT
  POIN2 Label_0100494B
//  #02 //033   ----------------------------------------
 BYTE   PATT
  POIN2 Label_01004933
//  #02 //034   ----------------------------------------
 BYTE   PATT
  POIN2 Label_0100494B
//  #02 //035   ----------------------------------------
 BYTE   PATT
  POIN2 Label_0100496D
//  #02 //036   ----------------------------------------
 BYTE   PATT
  POIN2 Label_01004985
//  #02 //037   ----------------------------------------
 BYTE   PATT
  POIN2 Label_0100496D
//  #02 //038   ----------------------------------------
 BYTE   PATT
  POIN2 Label_01004985
//  #02 //039   ----------------------------------------
 BYTE   PATT
  POIN2 Label_010049A7
//  #02 //040   ----------------------------------------
 BYTE   PATT
  POIN2 Label_010049B2
//  #02 //041   ----------------------------------------
 BYTE   PATT
  POIN2 Label_010049BD
//  #02 //042   ----------------------------------------
 BYTE   PATT
  POIN2 Label_010049C7
//  #02 //043   ----------------------------------------
 BYTE   PATT
  POIN2 Label_010049DA
//  #02 //044   ----------------------------------------
Label_01004A4F:
//  #02 //045   ----------------------------------------
 BYTE   PATT
  POIN2 Label_010048EA
//  #02 //046   ----------------------------------------
 BYTE   PATT
  POIN2 Label_010048EA
//  #02 //047   ----------------------------------------
 BYTE   PATT
  POIN2 Label_010048EA
//  #02 //048   ----------------------------------------
 BYTE   PATT
  POIN2 Label_010048EA
//  #02 //049   ----------------------------------------
 BYTE   PATT
  POIN2 Label_01004911
//  #02 //050   ----------------------------------------
 BYTE   PATT
  POIN2 Label_01004911
//  #02 //051   ----------------------------------------
 BYTE   PATT
  POIN2 Label_010048EA
//  #02 //052   ----------------------------------------
 BYTE   PATT
  POIN2 Label_010048EA
//  #02 //053   ----------------------------------------
 BYTE   PATT
  POIN2 Label_01004933
//  #02 //054   ----------------------------------------
 BYTE   PATT
  POIN2 Label_0100494B
//  #02 //055   ----------------------------------------
 BYTE   PATT
  POIN2 Label_01004933
//  #02 //056   ----------------------------------------
 BYTE   PATT
  POIN2 Label_0100494B
//  #02 //057   ----------------------------------------
 BYTE   PATT
  POIN2 Label_0100496D
//  #02 //058   ----------------------------------------
 BYTE   PATT
  POIN2 Label_01004985
//  #02 //059   ----------------------------------------
 BYTE   PATT
  POIN2 Label_0100496D
//  #02 //060   ----------------------------------------
 BYTE   PATT
  POIN2 Label_01004985
//  #02 //061   ----------------------------------------
 BYTE   PATT
  POIN2 Label_010049A7
//  #02 //062   ----------------------------------------
 BYTE   PATT
  POIN2 Label_010049B2
//  #02 //063   ----------------------------------------
 BYTE   PATT
  POIN2 Label_010049BD
//  #02 //064   ----------------------------------------
 BYTE   PATT
  POIN2 Label_010049C7
//  #02 //065   ----------------------------------------
 BYTE   PATT
  POIN2 Label_010049DA
//  #02 //066   ----------------------------------------
 BYTE   GoTo
  POIN2 Label_01004A4F
//  #02 //067   ----------------------------------------
 BYTE   PATT
  POIN2 Label_010048EA
//  #02 //068   ----------------------------------------
 BYTE   PATT
  POIN2 Label_010048EA
//  #02 //069   ----------------------------------------
 BYTE   PATT
  POIN2 Label_010048EA
//  #02 //070   ----------------------------------------
 BYTE   PATT
  POIN2 Label_010048EA
//  #02 //071   ----------------------------------------
 BYTE   PATT
  POIN2 Label_01004911
//  #02 //072   ----------------------------------------
 BYTE   PATT
  POIN2 Label_01004911
//  #02 //073   ----------------------------------------
 BYTE   PATT
  POIN2 Label_010048EA
//  #02 //074   ----------------------------------------
 BYTE   PATT
  POIN2 Label_010048EA
//  #02 //075   ----------------------------------------
 BYTE   PATT
  POIN2 Label_01004933
//  #02 //076   ----------------------------------------
 BYTE   PATT
  POIN2 Label_0100494B
//  #02 //077   ----------------------------------------
 BYTE   PATT
  POIN2 Label_01004933
//  #02 //078   ----------------------------------------
 BYTE   PATT
  POIN2 Label_0100494B
//  #02 //079   ----------------------------------------
 BYTE   PATT
  POIN2 Label_0100496D
//  #02 //080   ----------------------------------------
 BYTE   PATT
  POIN2 Label_01004985
//  #02 //081   ----------------------------------------
 BYTE   PATT
  POIN2 Label_0100496D
//  #02 //082   ----------------------------------------
 BYTE   PATT
  POIN2 Label_01004985
//  #02 //083   ----------------------------------------
 BYTE   PATT
  POIN2 Label_010049A7
//  #02 //084   ----------------------------------------
 BYTE   PATT
  POIN2 Label_010049B2
//  #02 //085   ----------------------------------------
 BYTE   PATT
  POIN2 Label_010049BD
//  #02 //086   ----------------------------------------
 BYTE   PATT
  POIN2 Label_010049C7
//  #02 //087   ----------------------------------------
 BYTE   W12
 BYTE   N10  Cn1  v112
 BYTE   W24
 BYTE   N10
 BYTE   W24
 BYTE   N10
 BYTE   W24
 BYTE   N10
 BYTE   W11
 BYTE   FINE

//**************** Track 3 (Midi-Chn.2) ****************//

CrossCounter_003:
//  #03 //000   ----------------------------------------
 BYTE   KEYSH   CrossCounter_key+0
 BYTE   VOICE   62
 BYTE   PAN   c_v-30
 BYTE   VOL   41*CrossCounter_mvl/mxv
 BYTE   N44  Gn2  v116
 BYTE   N44  Bn2
 BYTE   N44  En4
 BYTE   W48
 BYTE   An2
 BYTE   N44  Dn3
 BYTE   N44  Fs4
 BYTE   W48
//  #03 //001   ----------------------------------------
 BYTE   Bn2
 BYTE   N44  En3
 BYTE   N44  Gn4
 BYTE   W48
 BYTE   Dn3
 BYTE   N44  Fs3
 BYTE   N44  An4
 BYTE   W48
//  #03 //002   ----------------------------------------
 BYTE   W96
//  #03 //003   ----------------------------------------
 BYTE   W96
//  #03 //004   ----------------------------------------
 BYTE   W96
//  #03 //005   ----------------------------------------
 BYTE   W96
//  #03 //006   ----------------------------------------
 BYTE   W96
//  #03 //007   ----------------------------------------
 BYTE   W96
//  #03 //008   ----------------------------------------
Label_01004B68:
 BYTE   N44  Bn2  v116
 BYTE   W48
 BYTE   Dn3
 BYTE   W48
 BYTE   PEND 
//  #03 //009   ----------------------------------------
 BYTE   En3
 BYTE   W48
 BYTE   Fs3
 BYTE   W48
//  #03 //010   ----------------------------------------
Label_01004B73:
 BYTE   N11  Bn3  v116
 BYTE   N11  En4
 BYTE   W36
 BYTE   Bn3
 BYTE   N11  En4
 BYTE   W36
 BYTE   Bn3
 BYTE   N11  En4
 BYTE   W24
 BYTE   PEND 
//  #03 //011   ----------------------------------------
Label_01004B82:
 BYTE   W12
 BYTE   N32  Bn3  v116
 BYTE   N32  En4
 BYTE   W36
 BYTE   N11
 BYTE   N11  Gn4
 BYTE   W24
 BYTE   Cn4
 BYTE   N11  Fs4
 BYTE   W24
 BYTE   PEND 
//  #03 //012   ----------------------------------------
 BYTE   PATT
  POIN2 Label_01004B73
//  #03 //013   ----------------------------------------
 BYTE   PATT
  POIN2 Label_01004B82
//  #03 //014   ----------------------------------------
Label_01004B9C:
 BYTE   N11  Fn4  v116
 BYTE   N11  An4
 BYTE   W36
 BYTE   Fn4
 BYTE   N11  An4
 BYTE   W36
 BYTE   Fn4
 BYTE   N11  An4
 BYTE   W24
 BYTE   PEND 
//  #03 //015   ----------------------------------------
Label_01004BAB:
 BYTE   W12
 BYTE   N32  Fn4  v116
 BYTE   N32  An4
 BYTE   W36
 BYTE   N11
 BYTE   N11  Cn5
 BYTE   W24
 BYTE   Gn4
 BYTE   N11  Bn4
 BYTE   W24
 BYTE   PEND 
//  #03 //016   ----------------------------------------
 BYTE   PATT
  POIN2 Label_01004B9C
//  #03 //017   ----------------------------------------
 BYTE   PATT
  POIN2 Label_01004BAB
//  #03 //018   ----------------------------------------
Label_01004BC5:
 BYTE   N23  As3  v116
 BYTE   W24
 BYTE   Ds3
 BYTE   W24
 BYTE   Gs3
 BYTE   W24
 BYTE   Gn3
 BYTE   W24
 BYTE   PEND 
//  #03 //019   ----------------------------------------
Label_01004BD0:
 BYTE   N23  Fs3  v116
 BYTE   W24
 BYTE   Fn3
 BYTE   W24
 BYTE   Cn3
 BYTE   W24
 BYTE   Ds3
 BYTE   W24
 BYTE   PEND 
//  #03 //020   ----------------------------------------
Label_01004BDB:
 BYTE   N23  Cs3  v116
 BYTE   W24
 BYTE   N11  As2
 BYTE   W12
 BYTE   Bn2
 BYTE   W12
 BYTE   PEND 
Label_01004BE5:
 BYTE   TIE  Gn2  v116
 BYTE   TIE  Cn3
 BYTE   W96
 BYTE   PEND 
//  #03 //021   ----------------------------------------
 BYTE   W92
 BYTE   W03
 BYTE   EOT
 BYTE   Gn2  v060
 BYTE   W01
//  #03 //022   ----------------------------------------
 BYTE   W96
//  #03 //023   ----------------------------------------
 BYTE   W96
//  #03 //024   ----------------------------------------
 BYTE   W96
//  #03 //025   ----------------------------------------
 BYTE   W96
//  #03 //026   ----------------------------------------
 BYTE   W96
//  #03 //027   ----------------------------------------
 BYTE   W96
//  #03 //028   ----------------------------------------
 BYTE   PATT
  POIN2 Label_01004B68
//  #03 //029   ----------------------------------------
 BYTE   N44  En3  v116
 BYTE   W48
 BYTE   Fs3
 BYTE   W48
//  #03 //030   ----------------------------------------
 BYTE   PATT
  POIN2 Label_01004B73
//  #03 //031   ----------------------------------------
 BYTE   PATT
  POIN2 Label_01004B82
//  #03 //032   ----------------------------------------
 BYTE   PATT
  POIN2 Label_01004B73
//  #03 //033   ----------------------------------------
 BYTE   PATT
  POIN2 Label_01004B82
//  #03 //034   ----------------------------------------
 BYTE   PATT
  POIN2 Label_01004B9C
//  #03 //035   ----------------------------------------
 BYTE   PATT
  POIN2 Label_01004BAB
//  #03 //036   ----------------------------------------
 BYTE   PATT
  POIN2 Label_01004B9C
//  #03 //037   ----------------------------------------
 BYTE   PATT
  POIN2 Label_01004BAB
//  #03 //038   ----------------------------------------
 BYTE   PATT
  POIN2 Label_01004BC5
//  #03 //039   ----------------------------------------
 BYTE   PATT
  POIN2 Label_01004BD0
//  #03 //040   ----------------------------------------
 BYTE   PATT
  POIN2 Label_01004BDB
//  #03 //041   ----------------------------------------
 BYTE   PATT
  POIN2 Label_01004BE5
//  #03 //042   ----------------------------------------
 BYTE   W92
 BYTE   W03
 BYTE   EOT
 BYTE   Gn2  v060
 BYTE   W01
//  #03 //043   ----------------------------------------
Label_01004C45:
 BYTE   W96
//  #03 //044   ----------------------------------------
 BYTE   W96
//  #03 //045   ----------------------------------------
 BYTE   W96
//  #03 //046   ----------------------------------------
 BYTE   W96
//  #03 //047   ----------------------------------------
 BYTE   W96
//  #03 //048   ----------------------------------------
 BYTE   W96
//  #03 //049   ----------------------------------------
 BYTE   PATT
  POIN2 Label_01004B68
//  #03 //050   ----------------------------------------
 BYTE   N44  En3  v116
 BYTE   W48
 BYTE   Fs3
 BYTE   W48
//  #03 //051   ----------------------------------------
 BYTE   PATT
  POIN2 Label_01004B73
//  #03 //052   ----------------------------------------
 BYTE   PATT
  POIN2 Label_01004B82
//  #03 //053   ----------------------------------------
 BYTE   PATT
  POIN2 Label_01004B73
//  #03 //054   ----------------------------------------
 BYTE   PATT
  POIN2 Label_01004B82
//  #03 //055   ----------------------------------------
 BYTE   PATT
  POIN2 Label_01004B9C
//  #03 //056   ----------------------------------------
 BYTE   PATT
  POIN2 Label_01004BAB
//  #03 //057   ----------------------------------------
 BYTE   PATT
  POIN2 Label_01004B9C
//  #03 //058   ----------------------------------------
 BYTE   PATT
  POIN2 Label_01004BAB
//  #03 //059   ----------------------------------------
 BYTE   PATT
  POIN2 Label_01004BC5
//  #03 //060   ----------------------------------------
 BYTE   PATT
  POIN2 Label_01004BD0
//  #03 //061   ----------------------------------------
 BYTE   PATT
  POIN2 Label_01004BDB
//  #03 //062   ----------------------------------------
 BYTE   PATT
  POIN2 Label_01004BE5
//  #03 //063   ----------------------------------------
 BYTE   W92
 BYTE   W03
 BYTE   EOT
 BYTE   Gn2  v060
 BYTE   W01
//  #03 //064   ----------------------------------------
 BYTE   GoTo
  POIN2 Label_01004C45
//  #03 //065   ----------------------------------------
 BYTE   W96
//  #03 //066   ----------------------------------------
 BYTE   W96
//  #03 //067   ----------------------------------------
 BYTE   W96
//  #03 //068   ----------------------------------------
 BYTE   W96
//  #03 //069   ----------------------------------------
 BYTE   W96
//  #03 //070   ----------------------------------------
 BYTE   W96
//  #03 //071   ----------------------------------------
 BYTE   PATT
  POIN2 Label_01004B68
//  #03 //072   ----------------------------------------
 BYTE   N44  En3  v116
 BYTE   W48
 BYTE   Fs3
 BYTE   W48
//  #03 //073   ----------------------------------------
 BYTE   PATT
  POIN2 Label_01004B73
//  #03 //074   ----------------------------------------
 BYTE   PATT
  POIN2 Label_01004B82
//  #03 //075   ----------------------------------------
 BYTE   PATT
  POIN2 Label_01004B73
//  #03 //076   ----------------------------------------
 BYTE   PATT
  POIN2 Label_01004B82
//  #03 //077   ----------------------------------------
 BYTE   PATT
  POIN2 Label_01004B9C
//  #03 //078   ----------------------------------------
 BYTE   PATT
  POIN2 Label_01004BAB
//  #03 //079   ----------------------------------------
 BYTE   PATT
  POIN2 Label_01004B9C
//  #03 //080   ----------------------------------------
 BYTE   PATT
  POIN2 Label_01004BAB
//  #03 //081   ----------------------------------------
 BYTE   PATT
  POIN2 Label_01004BC5
//  #03 //082   ----------------------------------------
 BYTE   PATT
  POIN2 Label_01004BD0
//  #03 //083   ----------------------------------------
 BYTE   PATT
  POIN2 Label_01004BDB
//  #03 //084   ----------------------------------------
 BYTE   PATT
  POIN2 Label_01004BE5
//  #03 //085   ----------------------------------------
 BYTE   W92
 BYTE   W03
 BYTE   EOT
 BYTE   Gn2  v060
 BYTE   FINE

//**************** Track 4 (Midi-Chn.3) ****************//

CrossCounter_004:
//  #04 //000   ----------------------------------------
 BYTE   KEYSH   CrossCounter_key+0
 BYTE   VOICE   30
 BYTE   PAN   c_v+34
 BYTE   VOL   33*CrossCounter_mvl/mxv
 BYTE   N11  En1  v072
 BYTE   N11  En2  v100
 BYTE   W12
 BYTE   En1  v072
 BYTE   N11  En2  v100
 BYTE   W12
 BYTE   N05  En1  v052
 BYTE   N05  En2  v080
 BYTE   W12
 BYTE   N11  En1  v072
 BYTE   N11  En2  v100
 BYTE   W12
 BYTE   Dn1  v072
 BYTE   N11  Dn2  v100
 BYTE   W12
 BYTE   Dn1  v072
 BYTE   N11  Dn2  v100
 BYTE   W12
 BYTE   N05  Dn1  v052
 BYTE   N05  Dn2  v080
 BYTE   W12
 BYTE   N11  Dn1  v072
 BYTE   N11  Dn2  v100
 BYTE   W12
//  #04 //001   ----------------------------------------
Label_01004D3D:
 BYTE   N11  En1  v072
 BYTE   N11  En2  v100
 BYTE   W12
 BYTE   En1  v072
 BYTE   N11  En2  v100
 BYTE   W12
 BYTE   N05  En1  v052
 BYTE   N05  En2  v080
 BYTE   W12
 BYTE   N11  En1  v072
 BYTE   N11  En2  v100
 BYTE   W12
 BYTE   Dn1  v072
 BYTE   N11  Dn2  v100
 BYTE   W12
 BYTE   Dn1  v072
 BYTE   N11  Dn2  v100
 BYTE   W12
 BYTE   N05  Dn1  v052
 BYTE   N05  Dn2  v080
 BYTE   W12
 BYTE   N11  Dn1  v072
 BYTE   N11  Dn2  v100
 BYTE   W12
 BYTE   PEND 
//  #04 //002   ----------------------------------------
 BYTE   PATT
  POIN2 Label_01004D3D
//  #04 //003   ----------------------------------------
 BYTE   PATT
  POIN2 Label_01004D3D
//  #04 //004   ----------------------------------------
 BYTE   PATT
  POIN2 Label_01004D3D
//  #04 //005   ----------------------------------------
 BYTE   PATT
  POIN2 Label_01004D3D
//  #04 //006   ----------------------------------------
Label_01004D87:
 BYTE   N11  Cn1  v072
 BYTE   N11  Cn2  v100
 BYTE   W12
 BYTE   Cn1  v072
 BYTE   N11  Cn2  v100
 BYTE   W12
 BYTE   N05  Cn1  v052
 BYTE   N05  Cn2  v080
 BYTE   W12
 BYTE   N11  Cn1  v072
 BYTE   N11  Cn2  v100
 BYTE   W12
 BYTE   Dn1  v072
 BYTE   N11  Dn2  v100
 BYTE   W12
 BYTE   Dn1  v072
 BYTE   N11  Dn2  v100
 BYTE   W12
 BYTE   N05  Dn1  v052
 BYTE   N05  Dn2  v080
 BYTE   W12
 BYTE   N11  Dn1  v072
 BYTE   N11  Dn2  v100
 BYTE   W12
 BYTE   PEND 
//  #04 //007   ----------------------------------------
 BYTE   PATT
  POIN2 Label_01004D87
//  #04 //008   ----------------------------------------
 BYTE   PATT
  POIN2 Label_01004D3D
//  #04 //009   ----------------------------------------
 BYTE   PATT
  POIN2 Label_01004D3D
//  #04 //010   ----------------------------------------
Label_01004DCC:
 BYTE   N12  En1  v072
 BYTE   N12  En2  v100
 BYTE   W12
 BYTE   N06  En1  v052
 BYTE   N06  En2  v080
 BYTE   W12
 BYTE   En1  v052
 BYTE   N06  En2  v080
 BYTE   W12
 BYTE   N12  En1  v072
 BYTE   N12  En2  v100
 BYTE   W12
 BYTE   N06  En1  v052
 BYTE   N06  En2  v080
 BYTE   W12
 BYTE   En1  v052
 BYTE   N06  En2  v080
 BYTE   W12
 BYTE   N12  En1  v072
 BYTE   N12  En2  v100
 BYTE   W12
 BYTE   N06  En1  v052
 BYTE   N06  En2  v080
 BYTE   W12
 BYTE   PEND 
//  #04 //011   ----------------------------------------
Label_01004E03:
 BYTE   N11  En1  v072
 BYTE   N11  En2  v100
 BYTE   W12
 BYTE   Bn0  v072
 BYTE   N11  Bn1  v100
 BYTE   W12
 BYTE   Cn1  v072
 BYTE   N11  Cn2  v100
 BYTE   W12
 BYTE   Bn0  v072
 BYTE   N11  Bn1  v100
 BYTE   W12
 BYTE   Dn1  v072
 BYTE   N11  Dn2  v100
 BYTE   W12
 BYTE   Bn0  v072
 BYTE   N11  Bn1  v100
 BYTE   W12
 BYTE   Ds1  v072
 BYTE   N11  Ds2  v100
 BYTE   W12
 BYTE   Bn0  v072
 BYTE   N11  Bn1  v100
 BYTE   W12
 BYTE   PEND 
//  #04 //012   ----------------------------------------
Label_01004E35:
 BYTE   N12  En1  v072
 BYTE   N12  En2  v100
 BYTE   W12
 BYTE   N06  En1  v052
 BYTE   N06  En2  v080
 BYTE   W12
 BYTE   En1  v052
 BYTE   N06  En2  v080
 BYTE   W12
 BYTE   N12  En1  v072
 BYTE   N12  En2  v100
 BYTE   W12
 BYTE   N06  En1  v052
 BYTE   N06  En2  v080
 BYTE   W12
 BYTE   En1  v052
 BYTE   N06  En2  v080
 BYTE   W12
 BYTE   N12  En1  v072
 BYTE   N12  En2  v100
 BYTE   W12
 BYTE   N06  En1  v052
 BYTE   N06  En2  v080
 BYTE   W12
 BYTE   PEND 
//  #04 //013   ----------------------------------------
 BYTE   PATT
  POIN2 Label_01004E03
//  #04 //014   ----------------------------------------
Label_01004E71:
 BYTE   N12  Fn1  v072
 BYTE   N12  Fn2  v100
 BYTE   W12
 BYTE   N06  Fn1  v052
 BYTE   N06  Fn2  v080
 BYTE   W12
 BYTE   Fn1  v052
 BYTE   N06  Fn2  v080
 BYTE   W12
 BYTE   N12  Fn1  v072
 BYTE   N12  Fn2  v100
 BYTE   W12
 BYTE   N06  Fn1  v052
 BYTE   N06  Fn2  v080
 BYTE   W12
 BYTE   Fn1  v052
 BYTE   N06  Fn2  v080
 BYTE   W12
 BYTE   N12  Fn1  v072
 BYTE   N12  Fn2  v100
 BYTE   W12
 BYTE   N06  Fn1  v052
 BYTE   N06  Fn2  v080
 BYTE   W12
 BYTE   PEND 
//  #04 //015   ----------------------------------------
Label_01004EA8:
 BYTE   N11  Fn1  v072
 BYTE   N11  Fn2  v100
 BYTE   W12
 BYTE   Cn1  v072
 BYTE   N11  Cn2  v100
 BYTE   W12
 BYTE   Dn1  v072
 BYTE   N11  Dn2  v100
 BYTE   W12
 BYTE   Cn1  v072
 BYTE   N11  Cn2  v100
 BYTE   W12
 BYTE   En1  v072
 BYTE   N11  En2  v100
 BYTE   W12
 BYTE   Cn1  v072
 BYTE   N11  Cn2  v100
 BYTE   W12
 BYTE   En1  v072
 BYTE   N11  En2  v100
 BYTE   W12
 BYTE   Gn1  v072
 BYTE   N11  Gn2  v100
 BYTE   W12
 BYTE   PEND 
//  #04 //016   ----------------------------------------
 BYTE   PATT
  POIN2 Label_01004E71
//  #04 //017   ----------------------------------------
 BYTE   PATT
  POIN2 Label_01004EA8
//  #04 //018   ----------------------------------------
Label_01004EE4:
 BYTE   N23  As0  v072
 BYTE   N23  As1  v100
 BYTE   W24
 BYTE   N11  As0  v072
 BYTE   N11  As1  v100
 BYTE   W12
 BYTE   As0  v072
 BYTE   N11  As1  v100
 BYTE   W12
 BYTE   As0  v072
 BYTE   N11  As1  v100
 BYTE   W12
 BYTE   N05  As0  v052
 BYTE   N05  As1  v080
 BYTE   W12
 BYTE   N11  As0  v072
 BYTE   N11  As1  v100
 BYTE   W12
 BYTE   N05  As0  v052
 BYTE   N05  As1  v080
 BYTE   W12
 BYTE   PEND 
//  #04 //019   ----------------------------------------
Label_01004F14:
 BYTE   N11  Bn0  v072
 BYTE   N11  Bn1  v100
 BYTE   W12
 BYTE   Bn0  v072
 BYTE   N11  Bn1  v100
 BYTE   W12
 BYTE   N23  Cn1  v072
 BYTE   N23  Cn2  v100
 BYTE   W24
 BYTE   N11  Cn1  v072
 BYTE   N11  Cn2  v100
 BYTE   W12
 BYTE   Cn1  v072
 BYTE   N11  Cn2  v100
 BYTE   W12
 BYTE   Cn1  v072
 BYTE   N11  Cn2  v100
 BYTE   W12
 BYTE   N05  Cn1  v052
 BYTE   N05  Cn2  v080
 BYTE   W12
 BYTE   PEND 
//  #04 //020   ----------------------------------------
Label_01004F43:
 BYTE   N11  Cn1  v072
 BYTE   N11  Cn2  v100
 BYTE   W12
 BYTE   N05  Cn1  v052
 BYTE   N05  Cn2  v080
 BYTE   W12
 BYTE   N11  As0  v072
 BYTE   N11  As1  v100
 BYTE   W12
 BYTE   Bn0  v072
 BYTE   N11  Bn1  v100
 BYTE   W12
 BYTE   PEND 
Label_01004F5F:
 BYTE   N11  Cn1  v072
 BYTE   N11  Cn2  v100
 BYTE   W12
 BYTE   N05  Cn1  v052
 BYTE   N05  Cn2  v080
 BYTE   W12
 BYTE   Cn1  v052
 BYTE   N05  Cn2  v080
 BYTE   W12
 BYTE   N11  Cn1  v072
 BYTE   N11  Cn2  v100
 BYTE   W12
//  #04 //021   ----------------------------------------
 BYTE   N05  Cn1  v052
 BYTE   N05  Cn2  v080
 BYTE   W12
 BYTE   Cn1  v052
 BYTE   N05  Cn2  v080
 BYTE   W12
 BYTE   N11  Cn1  v072
 BYTE   N11  Cn2  v100
 BYTE   W12
 BYTE   N05  Cn1  v052
 BYTE   N05  Cn2  v080
 BYTE   W12
 BYTE   PEND 
Label_01004F96:
 BYTE   N05  Cn1  v052
 BYTE   N05  Cn2  v080
 BYTE   W12
 BYTE   N11  Cn1  v072
 BYTE   N11  Cn2  v100
 BYTE   W12
 BYTE   N05  Cn1  v052
 BYTE   N05  Cn2  v080
 BYTE   W12
 BYTE   N11  Cn1  v072
 BYTE   N11  Cn2  v100
 BYTE   W12
//  #04 //022   ----------------------------------------
 BYTE   N05  Cn1  v052
 BYTE   N05  Cn2  v080
 BYTE   W12
 BYTE   N11  Cn1  v072
 BYTE   N11  Cn2  v100
 BYTE   W12
 BYTE   N05  Cn1  v052
 BYTE   N05  Cn2  v080
 BYTE   W12
 BYTE   N11  Cn1  v072
 BYTE   N11  Cn2  v100
 BYTE   W12
 BYTE   PEND 
//  #04 //023   ----------------------------------------
 BYTE   PATT
  POIN2 Label_01004D3D
//  #04 //024   ----------------------------------------
 BYTE   PATT
  POIN2 Label_01004D3D
//  #04 //025   ----------------------------------------
 BYTE   PATT
  POIN2 Label_01004D3D
//  #04 //026   ----------------------------------------
 BYTE   PATT
  POIN2 Label_01004D3D
//  #04 //027   ----------------------------------------
 BYTE   PATT
  POIN2 Label_01004D87
//  #04 //028   ----------------------------------------
 BYTE   PATT
  POIN2 Label_01004D87
//  #04 //029   ----------------------------------------
 BYTE   PATT
  POIN2 Label_01004D3D
//  #04 //030   ----------------------------------------
 BYTE   PATT
  POIN2 Label_01004D3D
//  #04 //031   ----------------------------------------
 BYTE   PATT
  POIN2 Label_01004DCC
//  #04 //032   ----------------------------------------
 BYTE   PATT
  POIN2 Label_01004E03
//  #04 //033   ----------------------------------------
 BYTE   PATT
  POIN2 Label_01004E35
//  #04 //034   ----------------------------------------
 BYTE   PATT
  POIN2 Label_01004E03
//  #04 //035   ----------------------------------------
 BYTE   PATT
  POIN2 Label_01004E71
//  #04 //036   ----------------------------------------
 BYTE   PATT
  POIN2 Label_01004EA8
//  #04 //037   ----------------------------------------
 BYTE   PATT
  POIN2 Label_01004E71
//  #04 //038   ----------------------------------------
 BYTE   PATT
  POIN2 Label_01004EA8
//  #04 //039   ----------------------------------------
 BYTE   PATT
  POIN2 Label_01004EE4
//  #04 //040   ----------------------------------------
 BYTE   PATT
  POIN2 Label_01004F14
//  #04 //041   ----------------------------------------
 BYTE   PATT
  POIN2 Label_01004F43
//  #04 //042   ----------------------------------------
 BYTE   PATT
  POIN2 Label_01004F5F
//  #04 //043   ----------------------------------------
 BYTE   PATT
  POIN2 Label_01004F96
//  #04 //044   ----------------------------------------
Label_01005038:
//  #04 //045   ----------------------------------------
 BYTE   PATT
  POIN2 Label_01004D3D
//  #04 //046   ----------------------------------------
 BYTE   PATT
  POIN2 Label_01004D3D
//  #04 //047   ----------------------------------------
 BYTE   PATT
  POIN2 Label_01004D3D
//  #04 //048   ----------------------------------------
 BYTE   PATT
  POIN2 Label_01004D3D
//  #04 //049   ----------------------------------------
 BYTE   PATT
  POIN2 Label_01004D87
//  #04 //050   ----------------------------------------
 BYTE   PATT
  POIN2 Label_01004D87
//  #04 //051   ----------------------------------------
 BYTE   PATT
  POIN2 Label_01004D3D
//  #04 //052   ----------------------------------------
 BYTE   PATT
  POIN2 Label_01004D3D
//  #04 //053   ----------------------------------------
 BYTE   PATT
  POIN2 Label_01004DCC
//  #04 //054   ----------------------------------------
 BYTE   PATT
  POIN2 Label_01004E03
//  #04 //055   ----------------------------------------
 BYTE   PATT
  POIN2 Label_01004E35
//  #04 //056   ----------------------------------------
 BYTE   PATT
  POIN2 Label_01004E03
//  #04 //057   ----------------------------------------
 BYTE   PATT
  POIN2 Label_01004E71
//  #04 //058   ----------------------------------------
 BYTE   PATT
  POIN2 Label_01004EA8
//  #04 //059   ----------------------------------------
 BYTE   PATT
  POIN2 Label_01004E71
//  #04 //060   ----------------------------------------
 BYTE   PATT
  POIN2 Label_01004EA8
//  #04 //061   ----------------------------------------
 BYTE   PATT
  POIN2 Label_01004EE4
//  #04 //062   ----------------------------------------
 BYTE   PATT
  POIN2 Label_01004F14
//  #04 //063   ----------------------------------------
 BYTE   PATT
  POIN2 Label_01004F43
//  #04 //064   ----------------------------------------
 BYTE   PATT
  POIN2 Label_01004F5F
//  #04 //065   ----------------------------------------
 BYTE   PATT
  POIN2 Label_01004F96
//  #04 //066   ----------------------------------------
 BYTE   GoTo
  POIN2 Label_01005038
//  #04 //067   ----------------------------------------
 BYTE   PATT
  POIN2 Label_01004D3D
//  #04 //068   ----------------------------------------
 BYTE   PATT
  POIN2 Label_01004D3D
//  #04 //069   ----------------------------------------
 BYTE   PATT
  POIN2 Label_01004D3D
//  #04 //070   ----------------------------------------
 BYTE   PATT
  POIN2 Label_01004D3D
//  #04 //071   ----------------------------------------
 BYTE   PATT
  POIN2 Label_01004D87
//  #04 //072   ----------------------------------------
 BYTE   PATT
  POIN2 Label_01004D87
//  #04 //073   ----------------------------------------
 BYTE   PATT
  POIN2 Label_01004D3D
//  #04 //074   ----------------------------------------
 BYTE   PATT
  POIN2 Label_01004D3D
//  #04 //075   ----------------------------------------
 BYTE   PATT
  POIN2 Label_01004DCC
//  #04 //076   ----------------------------------------
 BYTE   PATT
  POIN2 Label_01004E03
//  #04 //077   ----------------------------------------
 BYTE   PATT
  POIN2 Label_01004E35
//  #04 //078   ----------------------------------------
 BYTE   PATT
  POIN2 Label_01004E03
//  #04 //079   ----------------------------------------
 BYTE   PATT
  POIN2 Label_01004E71
//  #04 //080   ----------------------------------------
 BYTE   PATT
  POIN2 Label_01004EA8
//  #04 //081   ----------------------------------------
 BYTE   PATT
  POIN2 Label_01004E71
//  #04 //082   ----------------------------------------
 BYTE   PATT
  POIN2 Label_01004EA8
//  #04 //083   ----------------------------------------
 BYTE   PATT
  POIN2 Label_01004EE4
//  #04 //084   ----------------------------------------
 BYTE   PATT
  POIN2 Label_01004F14
//  #04 //085   ----------------------------------------
 BYTE   PATT
  POIN2 Label_01004F43
//  #04 //086   ----------------------------------------
 BYTE   PATT
  POIN2 Label_01004F5F
//  #04 //087   ----------------------------------------
 BYTE   N05  Cn1  v052
 BYTE   N05  Cn2  v080
 BYTE   W12
 BYTE   N11  Cn1  v072
 BYTE   N11  Cn2  v100
 BYTE   W12
 BYTE   N05  Cn1  v052
 BYTE   N05  Cn2  v080
 BYTE   W12
 BYTE   N11  Cn1  v072
 BYTE   N11  Cn2  v100
 BYTE   W12
 BYTE   N05  Cn1  v052
 BYTE   N05  Cn2  v080
 BYTE   W12
 BYTE   N11  Cn1  v072
 BYTE   N11  Cn2  v100
 BYTE   W12
 BYTE   N05  Cn1  v052
 BYTE   N05  Cn2  v080
 BYTE   W12
 BYTE   N11  Cn1  v072
 BYTE   N11  Cn2  v100
 BYTE   W11
 BYTE   FINE

//**************** Track 5 (Midi-Chn.4) ****************//

CrossCounter_005:
//  #05 //000   ----------------------------------------
 BYTE   KEYSH   CrossCounter_key+0
 BYTE   VOICE   124
 BYTE   PAN   c_v+0
 BYTE   VOL   33*CrossCounter_mvl/mxv
 BYTE   N01  An2  v100
 BYTE   W48
 BYTE   N01
 BYTE   W48
//  #05 //001   ----------------------------------------
Label_01005162:
 BYTE   N01  An2  v100
 BYTE   W24
 BYTE   N01
 BYTE   W24
 BYTE   N01
 BYTE   W24
 BYTE   N01
 BYTE   W24
 BYTE   PEND 
//  #05 //002   ----------------------------------------
Label_0100516D:
 BYTE   N01  An2  v100
 BYTE   W24
 BYTE   Fs1
 BYTE   W12
 BYTE   As1
 BYTE   W12
 BYTE   Fs1
 BYTE   W12
 BYTE   As1
 BYTE   W12
 BYTE   Fs1
 BYTE   W12
 BYTE   As1
 BYTE   W12
 BYTE   PEND 
//  #05 //003   ----------------------------------------
Label_0100517E:
 BYTE   N01  Fs1  v100
 BYTE   W12
 BYTE   As1
 BYTE   W12
 BYTE   Fs1
 BYTE   W12
 BYTE   As1
 BYTE   W12
 BYTE   Fs1
 BYTE   W12
 BYTE   As1
 BYTE   W12
 BYTE   Fs1
 BYTE   W12
 BYTE   As1
 BYTE   W12
 BYTE   PEND 
//  #05 //004   ----------------------------------------
 BYTE   PATT
  POIN2 Label_0100516D
//  #05 //005   ----------------------------------------
Label_01005196:
 BYTE   N01  Fs1  v100
 BYTE   W12
 BYTE   As1
 BYTE   W12
 BYTE   Fs1
 BYTE   W12
 BYTE   As1
 BYTE   W60
 BYTE   PEND 
//  #05 //006   ----------------------------------------
 BYTE   PATT
  POIN2 Label_0100516D
//  #05 //007   ----------------------------------------
 BYTE   PATT
  POIN2 Label_0100517E
//  #05 //008   ----------------------------------------
 BYTE   PATT
  POIN2 Label_0100516D
//  #05 //009   ----------------------------------------
 BYTE   PATT
  POIN2 Label_01005196
//  #05 //010   ----------------------------------------
Label_010051B5:
 BYTE   N01  An2  v100
 BYTE   W36
 BYTE   N01
 BYTE   W36
 BYTE   N01
 BYTE   W24
 BYTE   PEND 
//  #05 //011   ----------------------------------------
 BYTE   N01
 BYTE   W96
//  #05 //012   ----------------------------------------
 BYTE   PATT
  POIN2 Label_010051B5
//  #05 //013   ----------------------------------------
 BYTE   PATT
  POIN2 Label_01005162
//  #05 //014   ----------------------------------------
 BYTE   PATT
  POIN2 Label_010051B5
//  #05 //015   ----------------------------------------
 BYTE   N01  An2  v100
 BYTE   W96
//  #05 //016   ----------------------------------------
 BYTE   PATT
  POIN2 Label_010051B5
//  #05 //017   ----------------------------------------
 BYTE   PATT
  POIN2 Label_01005162
//  #05 //018   ----------------------------------------
Label_010051DD:
 BYTE   N01  An2  v100
 BYTE   W24
 BYTE   As1
 BYTE   W12
 BYTE   Fs1
 BYTE   W12
 BYTE   As1
 BYTE   W12
 BYTE   Fs1
 BYTE   W12
 BYTE   As1
 BYTE   W12
 BYTE   Fs1
 BYTE   W12
 BYTE   PEND 
//  #05 //019   ----------------------------------------
Label_010051EE:
 BYTE   N01  As1  v100
 BYTE   W12
 BYTE   Fs1
 BYTE   W12
 BYTE   An2
 BYTE   W24
 BYTE   As1
 BYTE   W12
 BYTE   Fs1
 BYTE   W12
 BYTE   As1
 BYTE   W12
 BYTE   Fs1
 BYTE   W12
 BYTE   PEND 
//  #05 //020   ----------------------------------------
Label_010051FF:
 BYTE   N01  As1  v100
 BYTE   W12
 BYTE   Fs1
 BYTE   W12
 BYTE   As1
 BYTE   W12
 BYTE   Fs1
 BYTE   W12
 BYTE   PEND 
//  #05 //021   ----------------------------------------
 BYTE   PATT
  POIN2 Label_0100516D
//  #05 //022   ----------------------------------------
 BYTE   PATT
  POIN2 Label_01005162
//  #05 //023   ----------------------------------------
 BYTE   PATT
  POIN2 Label_0100516D
//  #05 //024   ----------------------------------------
 BYTE   PATT
  POIN2 Label_0100517E
//  #05 //025   ----------------------------------------
 BYTE   PATT
  POIN2 Label_0100516D
//  #05 //026   ----------------------------------------
 BYTE   PATT
  POIN2 Label_01005196
//  #05 //027   ----------------------------------------
 BYTE   PATT
  POIN2 Label_0100516D
//  #05 //028   ----------------------------------------
 BYTE   PATT
  POIN2 Label_0100517E
//  #05 //029   ----------------------------------------
 BYTE   PATT
  POIN2 Label_0100516D
//  #05 //030   ----------------------------------------
 BYTE   PATT
  POIN2 Label_01005196
//  #05 //031   ----------------------------------------
 BYTE   PATT
  POIN2 Label_010051B5
//  #05 //032   ----------------------------------------
 BYTE   N01  An2  v100
 BYTE   W96
//  #05 //033   ----------------------------------------
 BYTE   PATT
  POIN2 Label_010051B5
//  #05 //034   ----------------------------------------
 BYTE   PATT
  POIN2 Label_01005162
//  #05 //035   ----------------------------------------
 BYTE   PATT
  POIN2 Label_010051B5
//  #05 //036   ----------------------------------------
 BYTE   N01  An2  v100
 BYTE   W96
//  #05 //037   ----------------------------------------
 BYTE   PATT
  POIN2 Label_010051B5
//  #05 //038   ----------------------------------------
 BYTE   PATT
  POIN2 Label_01005162
//  #05 //039   ----------------------------------------
 BYTE   PATT
  POIN2 Label_010051DD
//  #05 //040   ----------------------------------------
 BYTE   PATT
  POIN2 Label_010051EE
//  #05 //041   ----------------------------------------
 BYTE   PATT
  POIN2 Label_010051FF
//  #05 //042   ----------------------------------------
 BYTE   PATT
  POIN2 Label_0100516D
//  #05 //043   ----------------------------------------
 BYTE   PATT
  POIN2 Label_01005162
//  #05 //044   ----------------------------------------
Label_0100527B:
//  #05 //045   ----------------------------------------
 BYTE   PATT
  POIN2 Label_0100516D
//  #05 //046   ----------------------------------------
 BYTE   PATT
  POIN2 Label_0100517E
//  #05 //047   ----------------------------------------
 BYTE   PATT
  POIN2 Label_0100516D
//  #05 //048   ----------------------------------------
 BYTE   PATT
  POIN2 Label_01005196
//  #05 //049   ----------------------------------------
 BYTE   PATT
  POIN2 Label_0100516D
//  #05 //050   ----------------------------------------
 BYTE   PATT
  POIN2 Label_0100517E
//  #05 //051   ----------------------------------------
 BYTE   PATT
  POIN2 Label_0100516D
//  #05 //052   ----------------------------------------
 BYTE   PATT
  POIN2 Label_01005196
//  #05 //053   ----------------------------------------
 BYTE   PATT
  POIN2 Label_010051B5
//  #05 //054   ----------------------------------------
 BYTE   N01  An2  v100
 BYTE   W96
//  #05 //055   ----------------------------------------
 BYTE   PATT
  POIN2 Label_010051B5
//  #05 //056   ----------------------------------------
 BYTE   PATT
  POIN2 Label_01005162
//  #05 //057   ----------------------------------------
 BYTE   PATT
  POIN2 Label_010051B5
//  #05 //058   ----------------------------------------
 BYTE   N01  An2  v100
 BYTE   W96
//  #05 //059   ----------------------------------------
 BYTE   PATT
  POIN2 Label_010051B5
//  #05 //060   ----------------------------------------
 BYTE   PATT
  POIN2 Label_01005162
//  #05 //061   ----------------------------------------
 BYTE   PATT
  POIN2 Label_010051DD
//  #05 //062   ----------------------------------------
 BYTE   PATT
  POIN2 Label_010051EE
//  #05 //063   ----------------------------------------
 BYTE   PATT
  POIN2 Label_010051FF
//  #05 //064   ----------------------------------------
 BYTE   PATT
  POIN2 Label_0100516D
//  #05 //065   ----------------------------------------
 BYTE   PATT
  POIN2 Label_01005162
//  #05 //066   ----------------------------------------
 BYTE   GoTo
  POIN2 Label_0100527B
//  #05 //067   ----------------------------------------
 BYTE   PATT
  POIN2 Label_0100516D
//  #05 //068   ----------------------------------------
 BYTE   PATT
  POIN2 Label_0100517E
//  #05 //069   ----------------------------------------
 BYTE   PATT
  POIN2 Label_0100516D
//  #05 //070   ----------------------------------------
 BYTE   PATT
  POIN2 Label_01005196
//  #05 //071   ----------------------------------------
 BYTE   PATT
  POIN2 Label_0100516D
//  #05 //072   ----------------------------------------
 BYTE   PATT
  POIN2 Label_0100517E
//  #05 //073   ----------------------------------------
 BYTE   PATT
  POIN2 Label_0100516D
//  #05 //074   ----------------------------------------
 BYTE   PATT
  POIN2 Label_01005196
//  #05 //075   ----------------------------------------
 BYTE   PATT
  POIN2 Label_010051B5
//  #05 //076   ----------------------------------------
 BYTE   N01  An2  v100
 BYTE   W96
//  #05 //077   ----------------------------------------
 BYTE   PATT
  POIN2 Label_010051B5
//  #05 //078   ----------------------------------------
 BYTE   PATT
  POIN2 Label_01005162
//  #05 //079   ----------------------------------------
 BYTE   PATT
  POIN2 Label_010051B5
//  #05 //080   ----------------------------------------
 BYTE   N01  An2  v100
 BYTE   W96
//  #05 //081   ----------------------------------------
 BYTE   PATT
  POIN2 Label_010051B5
//  #05 //082   ----------------------------------------
 BYTE   PATT
  POIN2 Label_01005162
//  #05 //083   ----------------------------------------
 BYTE   PATT
  POIN2 Label_010051DD
//  #05 //084   ----------------------------------------
 BYTE   PATT
  POIN2 Label_010051EE
//  #05 //085   ----------------------------------------
 BYTE   PATT
  POIN2 Label_010051FF
//  #05 //086   ----------------------------------------
 BYTE   PATT
  POIN2 Label_0100516D
//  #05 //087   ----------------------------------------
 BYTE   N01  An2  v100
 BYTE   W24
 BYTE   N01
 BYTE   W24
 BYTE   N01
 BYTE   W24
 BYTE   N01
 BYTE   W23
 BYTE   FINE

//**************** Track 6 (Midi-Chn.5) ****************//

CrossCounter_006:
//  #06 //000   ----------------------------------------
 BYTE   VOL   44*CrossCounter_mvl/mxv
 BYTE   KEYSH   CrossCounter_key+0
 BYTE   VOICE   124
 BYTE   N01  Cn1  v120
 BYTE   W12
 BYTE   N01
 BYTE   W12
 BYTE   Dn1
 BYTE   W12
 BYTE   Cn1
 BYTE   W12
 BYTE   N01
 BYTE   W12
 BYTE   N01
 BYTE   W12
 BYTE   Dn1
 BYTE   W12
 BYTE   Cn1
 BYTE   W12
//  #06 //001   ----------------------------------------
 BYTE   N01
 BYTE   W06
 BYTE   Dn2
 BYTE   W06
 BYTE   N01
 BYTE   W06
 BYTE   N01
 BYTE   W06
 BYTE   Bn1
 BYTE   W06
 BYTE   N01
 BYTE   W06
 BYTE   N01
 BYTE   W06
 BYTE   N01
 BYTE   W06
 BYTE   An1
 BYTE   W06
 BYTE   N01
 BYTE   W06
 BYTE   N01
 BYTE   W06
 BYTE   N01
 BYTE   W06
 BYTE   Fn1
 BYTE   W06
 BYTE   N01
 BYTE   W06
 BYTE   N01
 BYTE   W06
 BYTE   N01
 BYTE   W06
//  #06 //002   ----------------------------------------
Label_0100539C:
 BYTE   N01  Cn1  v120
 BYTE   W24
 BYTE   Dn1
 BYTE   W12
 BYTE   Cn1
 BYTE   W24
 BYTE   N01
 BYTE   W12
 BYTE   Dn1
 BYTE   W24
 BYTE   PEND 
//  #06 //003   ----------------------------------------
Label_010053A9:
 BYTE   N01  Cn1  v120
 BYTE   W12
 BYTE   N01
 BYTE   W12
 BYTE   Dn1
 BYTE   W12
 BYTE   Cn1
 BYTE   W24
 BYTE   N01
 BYTE   W12
 BYTE   Dn1
 BYTE   W12
 BYTE   N01
 BYTE   W12
 BYTE   PEND 
//  #06 //004   ----------------------------------------
 BYTE   PATT
  POIN2 Label_0100539C
//  #06 //005   ----------------------------------------
Label_010053BF:
 BYTE   N01  Cn1  v120
 BYTE   W12
 BYTE   N01
 BYTE   W12
 BYTE   Dn1
 BYTE   W12
 BYTE   Cn1
 BYTE   W12
 BYTE   N01
 BYTE   W06
 BYTE   Dn2
 BYTE   W06
 BYTE   N01
 BYTE   W06
 BYTE   N01
 BYTE   W06
 BYTE   Bn1
 BYTE   W06
 BYTE   N01
 BYTE   W06
 BYTE   An1
 BYTE   W06
 BYTE   N01
 BYTE   W06
 BYTE   PEND 
//  #06 //006   ----------------------------------------
 BYTE   PATT
  POIN2 Label_0100539C
//  #06 //007   ----------------------------------------
 BYTE   PATT
  POIN2 Label_010053A9
//  #06 //008   ----------------------------------------
 BYTE   PATT
  POIN2 Label_0100539C
//  #06 //009   ----------------------------------------
Label_010053E9:
 BYTE   N01  Cn1  v120
 BYTE   W12
 BYTE   N01
 BYTE   W12
 BYTE   Dn1
 BYTE   W12
 BYTE   Cn1
 BYTE   W12
 BYTE   N01
 BYTE   W06
 BYTE   Dn1
 BYTE   W06
 BYTE   N01
 BYTE   W06
 BYTE   N01
 BYTE   W06
 BYTE   N01
 BYTE   W06
 BYTE   N01
 BYTE   W06
 BYTE   N01
 BYTE   W06
 BYTE   N01
 BYTE   W06
 BYTE   PEND 
//  #06 //010   ----------------------------------------
Label_01005404:
 BYTE   N01  Cn1  v120
 BYTE   W12
 BYTE   Dn1
 BYTE   W12
 BYTE   N01
 BYTE   W12
 BYTE   Cn1
 BYTE   W12
 BYTE   Dn1
 BYTE   W12
 BYTE   N01
 BYTE   W12
 BYTE   Cn1
 BYTE   W12
 BYTE   Dn1
 BYTE   W12
 BYTE   PEND 
//  #06 //011   ----------------------------------------
Label_01005417:
 BYTE   N01  Cn1  v120
 BYTE   W06
 BYTE   Dn2
 BYTE   W06
 BYTE   N01
 BYTE   W06
 BYTE   N01
 BYTE   W06
 BYTE   N01
 BYTE   W06
 BYTE   Bn1
 BYTE   W06
 BYTE   N01
 BYTE   W06
 BYTE   N01
 BYTE   W06
 BYTE   N01
 BYTE   W06
 BYTE   An1
 BYTE   W06
 BYTE   N01
 BYTE   W06
 BYTE   N01
 BYTE   W06
 BYTE   N01
 BYTE   W06
 BYTE   Fn1
 BYTE   W06
 BYTE   N01
 BYTE   W06
 BYTE   N01
 BYTE   W06
 BYTE   PEND 
//  #06 //012   ----------------------------------------
 BYTE   PATT
  POIN2 Label_01005404
//  #06 //013   ----------------------------------------
Label_0100543F:
 BYTE   N01  Cn1  v120
 BYTE   W06
 BYTE   Dn2
 BYTE   W06
 BYTE   Bn1
 BYTE   W06
 BYTE   Gn1
 BYTE   W06
 BYTE   Cn1
 BYTE   W06
 BYTE   Dn2
 BYTE   W06
 BYTE   Bn1
 BYTE   W06
 BYTE   Gn1
 BYTE   W06
 BYTE   Dn1
 BYTE   W06
 BYTE   N01
 BYTE   W06
 BYTE   N01
 BYTE   W06
 BYTE   N01
 BYTE   W06
 BYTE   N01
 BYTE   W06
 BYTE   N01
 BYTE   W06
 BYTE   N01
 BYTE   W06
 BYTE   N01
 BYTE   W06
 BYTE   PEND 
//  #06 //014   ----------------------------------------
 BYTE   PATT
  POIN2 Label_01005404
//  #06 //015   ----------------------------------------
 BYTE   PATT
  POIN2 Label_01005417
//  #06 //016   ----------------------------------------
 BYTE   PATT
  POIN2 Label_01005404
//  #06 //017   ----------------------------------------
 BYTE   PATT
  POIN2 Label_0100543F
//  #06 //018   ----------------------------------------
Label_01005476:
 BYTE   N01  Cn1  v120
 BYTE   W24
 BYTE   N01
 BYTE   W12
 BYTE   Dn1
 BYTE   W24
 BYTE   Cn1
 BYTE   W12
 BYTE   Dn2
 BYTE   W06
 BYTE   N01
 BYTE   W06
 BYTE   Bn1
 BYTE   W06
 BYTE   N01
 BYTE   W06
 BYTE   PEND 
//  #06 //019   ----------------------------------------
Label_01005489:
 BYTE   N01  An1  v120
 BYTE   W06
 BYTE   N01
 BYTE   W06
 BYTE   Fn1
 BYTE   W06
 BYTE   N01
 BYTE   W06
 BYTE   Cn1
 BYTE   W24
 BYTE   N01
 BYTE   W12
 BYTE   Dn1
 BYTE   W24
 BYTE   Cn1
 BYTE   W12
 BYTE   PEND 
//  #06 //020   ----------------------------------------
Label_0100549C:
 BYTE   N01  Dn1  v120
 BYTE   W06
 BYTE   N01
 BYTE   W06
 BYTE   N01
 BYTE   W06
 BYTE   N01
 BYTE   W06
 BYTE   N01
 BYTE   W06
 BYTE   N01
 BYTE   W06
 BYTE   N01
 BYTE   W06
 BYTE   N01
 BYTE   W06
 BYTE   PEND 
Label_010054AF:
 BYTE   N01  Cn1  v120
 BYTE   W12
 BYTE   N01
 BYTE   W12
 BYTE   Dn1
 BYTE   W12
 BYTE   Cn1
 BYTE   W24
//  #06 //021   ----------------------------------------
 BYTE   N01
 BYTE   W12
 BYTE   Dn1
 BYTE   W12
 BYTE   Cn1
 BYTE   W12
 BYTE   PEND 
//  #06 //022   ----------------------------------------
 BYTE   PATT
  POIN2 Label_010053E9
//  #06 //023   ----------------------------------------
 BYTE   PATT
  POIN2 Label_0100539C
//  #06 //024   ----------------------------------------
 BYTE   PATT
  POIN2 Label_010053A9
//  #06 //025   ----------------------------------------
 BYTE   PATT
  POIN2 Label_0100539C
//  #06 //026   ----------------------------------------
 BYTE   PATT
  POIN2 Label_010053BF
//  #06 //027   ----------------------------------------
 BYTE   PATT
  POIN2 Label_0100539C
//  #06 //028   ----------------------------------------
 BYTE   PATT
  POIN2 Label_010053A9
//  #06 //029   ----------------------------------------
 BYTE   PATT
  POIN2 Label_0100539C
//  #06 //030   ----------------------------------------
 BYTE   PATT
  POIN2 Label_010053E9
//  #06 //031   ----------------------------------------
 BYTE   PATT
  POIN2 Label_01005404
//  #06 //032   ----------------------------------------
 BYTE   PATT
  POIN2 Label_01005417
//  #06 //033   ----------------------------------------
 BYTE   PATT
  POIN2 Label_01005404
//  #06 //034   ----------------------------------------
 BYTE   PATT
  POIN2 Label_0100543F
//  #06 //035   ----------------------------------------
 BYTE   PATT
  POIN2 Label_01005404
//  #06 //036   ----------------------------------------
 BYTE   PATT
  POIN2 Label_01005417
//  #06 //037   ----------------------------------------
 BYTE   PATT
  POIN2 Label_01005404
//  #06 //038   ----------------------------------------
 BYTE   PATT
  POIN2 Label_0100543F
//  #06 //039   ----------------------------------------
 BYTE   PATT
  POIN2 Label_01005476
//  #06 //040   ----------------------------------------
 BYTE   PATT
  POIN2 Label_01005489
//  #06 //041   ----------------------------------------
 BYTE   PATT
  POIN2 Label_0100549C
//  #06 //042   ----------------------------------------
 BYTE   PATT
  POIN2 Label_010054AF
//  #06 //043   ----------------------------------------
 BYTE   PATT
  POIN2 Label_010053E9
//  #06 //044   ----------------------------------------
Label_0100552E:
//  #06 //045   ----------------------------------------
 BYTE   PATT
  POIN2 Label_0100539C
//  #06 //046   ----------------------------------------
 BYTE   PATT
  POIN2 Label_010053A9
//  #06 //047   ----------------------------------------
 BYTE   PATT
  POIN2 Label_0100539C
//  #06 //048   ----------------------------------------
 BYTE   PATT
  POIN2 Label_010053BF
//  #06 //049   ----------------------------------------
 BYTE   PATT
  POIN2 Label_0100539C
//  #06 //050   ----------------------------------------
 BYTE   PATT
  POIN2 Label_010053A9
//  #06 //051   ----------------------------------------
 BYTE   PATT
  POIN2 Label_0100539C
//  #06 //052   ----------------------------------------
 BYTE   PATT
  POIN2 Label_010053E9
//  #06 //053   ----------------------------------------
 BYTE   PATT
  POIN2 Label_01005404
//  #06 //054   ----------------------------------------
 BYTE   PATT
  POIN2 Label_01005417
//  #06 //055   ----------------------------------------
 BYTE   PATT
  POIN2 Label_01005404
//  #06 //056   ----------------------------------------
 BYTE   PATT
  POIN2 Label_0100543F
//  #06 //057   ----------------------------------------
 BYTE   PATT
  POIN2 Label_01005404
//  #06 //058   ----------------------------------------
 BYTE   PATT
  POIN2 Label_01005417
//  #06 //059   ----------------------------------------
 BYTE   PATT
  POIN2 Label_01005404
//  #06 //060   ----------------------------------------
 BYTE   PATT
  POIN2 Label_0100543F
//  #06 //061   ----------------------------------------
 BYTE   PATT
  POIN2 Label_01005476
//  #06 //062   ----------------------------------------
 BYTE   PATT
  POIN2 Label_01005489
//  #06 //063   ----------------------------------------
 BYTE   PATT
  POIN2 Label_0100549C
//  #06 //064   ----------------------------------------
 BYTE   PATT
  POIN2 Label_010054AF
//  #06 //065   ----------------------------------------
 BYTE   PATT
  POIN2 Label_010053E9
//  #06 //066   ----------------------------------------
 BYTE   GoTo
  POIN2 Label_0100552E
//  #06 //067   ----------------------------------------
 BYTE   PATT
  POIN2 Label_0100539C
//  #06 //068   ----------------------------------------
 BYTE   PATT
  POIN2 Label_010053A9
//  #06 //069   ----------------------------------------
 BYTE   PATT
  POIN2 Label_0100539C
//  #06 //070   ----------------------------------------
 BYTE   PATT
  POIN2 Label_010053BF
//  #06 //071   ----------------------------------------
 BYTE   PATT
  POIN2 Label_0100539C
//  #06 //072   ----------------------------------------
 BYTE   PATT
  POIN2 Label_010053A9
//  #06 //073   ----------------------------------------
 BYTE   PATT
  POIN2 Label_0100539C
//  #06 //074   ----------------------------------------
 BYTE   PATT
  POIN2 Label_010053E9
//  #06 //075   ----------------------------------------
 BYTE   PATT
  POIN2 Label_01005404
//  #06 //076   ----------------------------------------
 BYTE   PATT
  POIN2 Label_01005417
//  #06 //077   ----------------------------------------
 BYTE   PATT
  POIN2 Label_01005404
//  #06 //078   ----------------------------------------
 BYTE   PATT
  POIN2 Label_0100543F
//  #06 //079   ----------------------------------------
 BYTE   PATT
  POIN2 Label_01005404
//  #06 //080   ----------------------------------------
 BYTE   PATT
  POIN2 Label_01005417
//  #06 //081   ----------------------------------------
 BYTE   PATT
  POIN2 Label_01005404
//  #06 //082   ----------------------------------------
 BYTE   PATT
  POIN2 Label_0100543F
//  #06 //083   ----------------------------------------
 BYTE   PATT
  POIN2 Label_01005476
//  #06 //084   ----------------------------------------
 BYTE   PATT
  POIN2 Label_01005489
//  #06 //085   ----------------------------------------
 BYTE   PATT
  POIN2 Label_0100549C
//  #06 //086   ----------------------------------------
 BYTE   PATT
  POIN2 Label_010054AF
//  #06 //087   ----------------------------------------
 BYTE   N01  Cn1  v120
 BYTE   W12
 BYTE   N01
 BYTE   W12
 BYTE   Dn1
 BYTE   W12
 BYTE   Cn1
 BYTE   W12
 BYTE   N01
 BYTE   W06
 BYTE   Dn1
 BYTE   W06
 BYTE   N01
 BYTE   W06
 BYTE   N01
 BYTE   W06
 BYTE   N01
 BYTE   W06
 BYTE   N01
 BYTE   W06
 BYTE   N01
 BYTE   W06
 BYTE   N01
 BYTE   W05
 BYTE   FINE

//******************************************************//
	ALIGN 4

CrossCounter:
	BYTE	6	// NumTrks
	BYTE	0	// NumBlks
	BYTE	CrossCounter_pri	// Priority
	BYTE	CrossCounter_rev	// Reverb.
    
	POIN2	CrossCounter_grp
    
	POIN2	CrossCounter_001
	POIN2	CrossCounter_002
	POIN2	CrossCounter_003
	POIN2	CrossCounter_004
	POIN2	CrossCounter_005
	POIN2	CrossCounter_006

	
