//Event file generated from Sappy .s format.
	#include "MPlayDef.event"

	#define	DelusionalExtremities_grp  voicegroup000
	#define	DelusionalExtremities_pri  0
	#define	DelusionalExtremities_rev  0
	#define	DelusionalExtremities_mvl  127
	#define	DelusionalExtremities_key  0
	#define	DelusionalExtremities_tbs  1
	#define	DelusionalExtremities_exg  0
	#define	DelusionalExtremities_cmp  1

	// .rodata
	//	DelusionalExtremities
	ALIGN 4


//**************** Track 1 (Midi-Chn.0) ****************//

DelusionalExtremities_001:
//  #01 //000   ----------------------------------------
 BYTE   KEYSH   DelusionalExtremities_key+0
 BYTE   TEMPO   130*DelusionalExtremities_tbs/2
 BYTE   VOICE   40
 BYTE   VOL   35*DelusionalExtremities_mvl/mxv
 BYTE   PAN   c_v-32
 BYTE   W48
 BYTE   N90  Gn3  v092
 BYTE   N90  Cn4
 BYTE   N48  En4
 BYTE   W48
//  #01 //001   ----------------------------------------
Label_010066CB:
 BYTE   N16  Fs4  v092
 BYTE   W16
 BYTE   Gn4
 BYTE   W16
 BYTE   Fs4
 BYTE   W16
 BYTE   N90  Gn3
 BYTE   N90  Cn4
 BYTE   N48  En4
 BYTE   W48
 BYTE   PEND 
//  #01 //002   ----------------------------------------
 BYTE   PATT
  POIN2 Label_010066CB
//  #01 //003   ----------------------------------------
 BYTE   N16  Fs4  v092
 BYTE   W16
 BYTE   Gn4
 BYTE   W16
 BYTE   Fs4
 BYTE   W16
 BYTE   N90  Bn3
 BYTE   N48  En4
 BYTE   N48  An4
 BYTE   W48
//  #01 //004   ----------------------------------------
 BYTE   Ds4
 BYTE   N48  Bn4
 BYTE   W48
 BYTE   N90  Gn3
 BYTE   N90  Cn4
 BYTE   N48  En4
 BYTE   N48  Cn5
 BYTE   W48
//  #01 //005   ----------------------------------------
Label_010066FC:
 BYTE   N16  Fs4  v092
 BYTE   N48  Bn4
 BYTE   W16
 BYTE   N16  Gn4
 BYTE   W16
 BYTE   Fs4
 BYTE   W16
 BYTE   N90  Gn3
 BYTE   N90  Cn4
 BYTE   N48  En4
 BYTE   N48  An4
 BYTE   W48
 BYTE   PEND 
//  #01 //006   ----------------------------------------
 BYTE   N16  Fs4
 BYTE   N48  Bn4
 BYTE   W16
 BYTE   N16  Gn4
 BYTE   W16
 BYTE   Fs4
 BYTE   W16
 BYTE   N90  Gn3
 BYTE   N90  Cn4
 BYTE   N48  En4
 BYTE   N48  Cn5
 BYTE   W48
//  #01 //007   ----------------------------------------
 BYTE   N16  Fs4
 BYTE   N16  Cn5
 BYTE   W16
 BYTE   Gn4
 BYTE   N16  Dn5
 BYTE   W16
 BYTE   Fs4
 BYTE   N16  En5
 BYTE   W16
 BYTE   N48  Gn3
 BYTE   N90  Dn4
 BYTE   N90  Fs4
 BYTE   N90  Dn5
 BYTE   W48
//  #01 //008   ----------------------------------------
 BYTE   N48  Fs3
 BYTE   W48
 BYTE   N96  An3
 BYTE   N96  Cs4
 BYTE   N96  En4
 BYTE   N96  Fs4
 BYTE   W48
//  #01 //009   ----------------------------------------
Label_01006746:
 BYTE   W48
 BYTE   N96  Bn3  v092
 BYTE   N96  Ds4
 BYTE   N96  Fs4
 BYTE   W48
 BYTE   PEND 
//  #01 //010   ----------------------------------------
Label_01006750:
 BYTE   W48
 BYTE   N96  An3  v092
 BYTE   N96  Dn4
 BYTE   N96  Fs4
 BYTE   W48
 BYTE   PEND 
//  #01 //011   ----------------------------------------
Label_0100675A:
 BYTE   W48
 BYTE   TIE  An3  v092
 BYTE   TIE  Cs4
 BYTE   TIE  Fs4
 BYTE   W48
 BYTE   PEND 
//  #01 //012   ----------------------------------------
 BYTE   W48
 BYTE   N96  En4
 BYTE   W48
//  #01 //013   ----------------------------------------
 BYTE   W48
 BYTE   EOT
 BYTE   An3  v073
 BYTE   Fs4
 BYTE   N96  Bn3
 BYTE   N96  Ds4
 BYTE   N96  Fs4
 BYTE   W48
//  #01 //014   ----------------------------------------
 BYTE   PATT
  POIN2 Label_01006750
//  #01 //015   ----------------------------------------
Label_01006779:
 BYTE   W48
 BYTE   N48  As3  v092
 BYTE   N48  Cs4
 BYTE   N48  Fs4
 BYTE   W48
 BYTE   PEND 
//  #01 //016   ----------------------------------------
 BYTE   An3
 BYTE   N48  Cs4
 BYTE   N48  En4
 BYTE   W48
Label_01006789:
 BYTE   TIE  Gn3  v092
 BYTE   W48
//  #01 //017   ----------------------------------------
Label_0100678D:
 BYTE   N48  Bn3  v092
 BYTE   W48
 BYTE   Cs4
 BYTE   W48
 BYTE   PEND 
//  #01 //018   ----------------------------------------
 BYTE   Dn4
 BYTE   W48
 BYTE   EOT
 BYTE   Gn3
 BYTE   TIE
 BYTE   TIE  Gn4
 BYTE   W48
//  #01 //019   ----------------------------------------
 BYTE   PATT
  POIN2 Label_0100678D
//  #01 //020   ----------------------------------------
 BYTE   N48  Dn4  v092
 BYTE   W42
 BYTE   EOT
 BYTE   Gn4
 BYTE   W06
 BYTE   Gn3
 BYTE   N04  An3
 BYTE   N04  Cs4
 BYTE   N04  En4
 BYTE   N04  Fs4
 BYTE   W12
 BYTE   An3
 BYTE   N04  Cs4
 BYTE   N04  En4
 BYTE   N04  Fs4
 BYTE   W12
 BYTE   An3
 BYTE   N04  Cs4
 BYTE   N04  En4
 BYTE   N04  Fs4
 BYTE   W12
 BYTE   An3
 BYTE   N04  Cs4
 BYTE   N04  En4
 BYTE   N04  Fs4
 BYTE   W12
//  #01 //021   ----------------------------------------
Label_010067CA:
 BYTE   N04  An3  v092
 BYTE   N04  Cs4
 BYTE   N04  En4
 BYTE   N04  Fs4
 BYTE   W12
 BYTE   An3
 BYTE   N04  Cs4
 BYTE   N04  En4
 BYTE   N04  Fs4
 BYTE   W12
 BYTE   An3
 BYTE   N04  Cs4
 BYTE   N04  En4
 BYTE   N04  Fs4
 BYTE   W12
 BYTE   An3
 BYTE   N04  Cs4
 BYTE   N04  En4
 BYTE   N04  Fs4
 BYTE   W12
 BYTE   Bn3
 BYTE   N04  Ds4
 BYTE   N04  Fs4
 BYTE   W12
 BYTE   Bn3
 BYTE   N04  Ds4
 BYTE   N04  Fs4
 BYTE   W12
 BYTE   Bn3
 BYTE   N04  Ds4
 BYTE   N04  Fs4
 BYTE   W12
 BYTE   Bn3
 BYTE   N04  Ds4
 BYTE   N04  Fs4
 BYTE   W12
 BYTE   PEND 
//  #01 //022   ----------------------------------------
Label_01006805:
 BYTE   N04  Bn3  v092
 BYTE   N04  Ds4
 BYTE   N04  Fs4
 BYTE   W12
 BYTE   Bn3
 BYTE   N04  Ds4
 BYTE   N04  Fs4
 BYTE   W12
 BYTE   Bn3
 BYTE   N04  Ds4
 BYTE   N04  Fs4
 BYTE   W12
 BYTE   Bn3
 BYTE   N04  Ds4
 BYTE   N04  Fs4
 BYTE   W12
 BYTE   Bn3
 BYTE   N04  En4
 BYTE   N04  Gn4
 BYTE   W12
 BYTE   Bn3
 BYTE   N04  En4
 BYTE   N04  Gn4
 BYTE   W12
 BYTE   Bn3
 BYTE   N04  En4
 BYTE   N04  Gn4
 BYTE   W12
 BYTE   Bn3
 BYTE   N04  En4
 BYTE   N04  Gn4
 BYTE   W12
 BYTE   PEND 
//  #01 //023   ----------------------------------------
Label_01006838:
 BYTE   N04  Bn3  v092
 BYTE   N04  En4
 BYTE   N04  Gn4
 BYTE   W12
 BYTE   Bn3
 BYTE   N04  En4
 BYTE   N04  Gn4
 BYTE   W12
 BYTE   Bn3
 BYTE   N04  En4
 BYTE   N04  Gn4
 BYTE   W12
 BYTE   Bn3
 BYTE   N04  En4
 BYTE   N04  Gn4
 BYTE   W12
 BYTE   Bn3
 BYTE   N04  Ds4
 BYTE   N04  Fs4
 BYTE   W12
 BYTE   Bn3
 BYTE   N04  Ds4
 BYTE   N04  Fs4
 BYTE   W12
 BYTE   Bn3
 BYTE   N04  Ds4
 BYTE   N04  Fs4
 BYTE   W12
 BYTE   Bn3
 BYTE   N04  Ds4
 BYTE   N04  Fs4
 BYTE   W12
 BYTE   PEND 
//  #01 //024   ----------------------------------------
Label_0100686B:
 BYTE   N04  Bn3  v092
 BYTE   N04  Ds4
 BYTE   N04  Fs4
 BYTE   W12
 BYTE   Bn3
 BYTE   N04  Ds4
 BYTE   N04  Fs4
 BYTE   W12
 BYTE   Bn3
 BYTE   N04  Ds4
 BYTE   N04  Fs4
 BYTE   W12
 BYTE   Bn3
 BYTE   N04  Ds4
 BYTE   N04  Fs4
 BYTE   W12
 BYTE   An3
 BYTE   N04  Cs4
 BYTE   N04  En4
 BYTE   N04  Fs4
 BYTE   W12
 BYTE   An3
 BYTE   N04  Cs4
 BYTE   N04  En4
 BYTE   N04  Fs4
 BYTE   W12
 BYTE   An3
 BYTE   N04  Cs4
 BYTE   N04  En4
 BYTE   N04  Fs4
 BYTE   W12
 BYTE   An3
 BYTE   N04  Cs4
 BYTE   N04  En4
 BYTE   N04  Fs4
 BYTE   W12
 BYTE   PEND 
//  #01 //025   ----------------------------------------
 BYTE   PATT
  POIN2 Label_010067CA
//  #01 //026   ----------------------------------------
 BYTE   PATT
  POIN2 Label_01006805
//  #01 //027   ----------------------------------------
 BYTE   PATT
  POIN2 Label_01006838
//  #01 //028   ----------------------------------------
Label_010068B5:
 BYTE   N04  Bn3  v092
 BYTE   N04  Ds4
 BYTE   N04  Fs4
 BYTE   W12
 BYTE   Bn3
 BYTE   N04  Ds4
 BYTE   N04  Fs4
 BYTE   W12
 BYTE   Bn3
 BYTE   N04  Ds4
 BYTE   N04  Fs4
 BYTE   W12
 BYTE   Bn3
 BYTE   N04  Ds4
 BYTE   N04  Fs4
 BYTE   W12
 BYTE   N96  An3
 BYTE   N96  Cs4
 BYTE   N96  En4
 BYTE   N96  Fs4
 BYTE   W48
 BYTE   PEND 
//  #01 //029   ----------------------------------------
 BYTE   PATT
  POIN2 Label_01006746
//  #01 //030   ----------------------------------------
Label_010068DE:
 BYTE   W48
 BYTE   N96  Bn3  v092
 BYTE   N96  En4
 BYTE   N96  Gn4
 BYTE   W48
 BYTE   PEND 
//  #01 //031   ----------------------------------------
 BYTE   PATT
  POIN2 Label_01006746
//  #01 //032   ----------------------------------------
Label_010068ED:
 BYTE   W48
 BYTE   N96  An3  v092
 BYTE   N96  Cs4
 BYTE   N96  En4
 BYTE   N96  Fs4
 BYTE   W48
 BYTE   PEND 
//  #01 //033   ----------------------------------------
 BYTE   PATT
  POIN2 Label_01006746
//  #01 //034   ----------------------------------------
 BYTE   PATT
  POIN2 Label_010068DE
//  #01 //035   ----------------------------------------
 BYTE   PATT
  POIN2 Label_01006746
//  #01 //036   ----------------------------------------
Label_01006908:
 BYTE   W48
 BYTE   N96  Gn3  v092
 BYTE   N96  Cn4
 BYTE   N96  En4
 BYTE   W48
 BYTE   PEND 
//  #01 //037   ----------------------------------------
 BYTE   PATT
  POIN2 Label_01006750
//  #01 //038   ----------------------------------------
Label_01006917:
 BYTE   W48
 BYTE   TIE  Bn3  v092
 BYTE   N96  En4
 BYTE   N96  Gn4
 BYTE   W48
 BYTE   PEND 
//  #01 //039   ----------------------------------------
Label_01006921:
 BYTE   W48
 BYTE   N90  Ds4  v092
 BYTE   N90  Fs4
 BYTE   W48
 BYTE   PEND 
//  #01 //040   ----------------------------------------
 BYTE   W42
 BYTE   EOT
 BYTE   Bn3
 BYTE   W06
 BYTE   N96  Gn3
 BYTE   N96  Cn4
 BYTE   N96  En4
 BYTE   W48
//  #01 //041   ----------------------------------------
 BYTE   PATT
  POIN2 Label_01006750
//  #01 //042   ----------------------------------------
Label_01006939:
 BYTE   W48
 BYTE   TIE  Bn3  v092
 BYTE   TIE  Ds4
 BYTE   TIE  Fs4
 BYTE   W48
 BYTE   PEND 
//  #01 //043   ----------------------------------------
 BYTE   W90
 BYTE   EOT
 BYTE   Bn3  v075
 BYTE   Fs4
 BYTE   W06
//  #01 //044   ----------------------------------------
 BYTE   N20  Gn3
 BYTE   N20  Cn4
 BYTE   N20  En4
 BYTE   W24
 BYTE   Fs3
 BYTE   N20  An3
 BYTE   N20  Dn4
 BYTE   W24
 BYTE   N96  An3
 BYTE   N96  Cs4
 BYTE   N96  En4
 BYTE   N96  Fs4
 BYTE   W48
//  #01 //045   ----------------------------------------
 BYTE   PATT
  POIN2 Label_01006746
//  #01 //046   ----------------------------------------
 BYTE   PATT
  POIN2 Label_010068DE
//  #01 //047   ----------------------------------------
 BYTE   PATT
  POIN2 Label_01006746
//  #01 //048   ----------------------------------------
 BYTE   PATT
  POIN2 Label_010068ED
//  #01 //049   ----------------------------------------
 BYTE   PATT
  POIN2 Label_01006746
//  #01 //050   ----------------------------------------
 BYTE   PATT
  POIN2 Label_010068DE
//  #01 //051   ----------------------------------------
 BYTE   PATT
  POIN2 Label_01006746
//  #01 //052   ----------------------------------------
 BYTE   W48
 BYTE   N90  Gn3  v092
 BYTE   N90  Cn4
 BYTE   N48  En4
 BYTE   N48  Cn5
 BYTE   W48
//  #01 //053   ----------------------------------------
 BYTE   PATT
  POIN2 Label_010066FC
//  #01 //054   ----------------------------------------
Label_01006992:
 BYTE   N16  Fs4  v092
 BYTE   N48  Gn4
 BYTE   W32
 BYTE   N16  Fs4
 BYTE   W16
 BYTE   N90  Gn3
 BYTE   N90  Cn4
 BYTE   N48  En4
 BYTE   N48  Fs4
 BYTE   W48
 BYTE   PEND 
//  #01 //055   ----------------------------------------
Label_010069A5:
 BYTE   N16  Fs4  v092
 BYTE   N48  Bn4
 BYTE   W16
 BYTE   N16  Gn4
 BYTE   W16
 BYTE   Fs4
 BYTE   W16
 BYTE   N90  Bn3
 BYTE   N48  En4
 BYTE   N48  An4
 BYTE   W48
 BYTE   PEND 
//  #01 //056   ----------------------------------------
Label_010069B8:
 BYTE   N48  Ds4  v092
 BYTE   N48  Bn4
 BYTE   W48
 BYTE   N96  Cn4
 BYTE   N96  En4
 BYTE   N16  Cn5
 BYTE   W16
 BYTE   Bn4
 BYTE   W16
 BYTE   An4
 BYTE   W16
 BYTE   PEND 
//  #01 //057   ----------------------------------------
Label_010069CA:
 BYTE   N16  Gn4  v092
 BYTE   W16
 BYTE   Fs4
 BYTE   W16
 BYTE   Gn4
 BYTE   W16
 BYTE   N48  Cn4
 BYTE   N48  En4
 BYTE   N48  An4
 BYTE   W48
 BYTE   PEND 
//  #01 //058   ----------------------------------------
Label_010069DA:
 BYTE   N48  Gn3  v092
 BYTE   N48  Cn4
 BYTE   N48  En4
 BYTE   W48
 BYTE   N90  Gn3
 BYTE   N90  Cn4
 BYTE   N48  Dn4
 BYTE   W48
 BYTE   PEND 
//  #01 //059   ----------------------------------------
Label_010069EA:
 BYTE   N16  En4  v092
 BYTE   W16
 BYTE   Dn4
 BYTE   W16
 BYTE   Fs4
 BYTE   W16
 BYTE   N90  An3
 BYTE   N90  Dn4
 BYTE   N16  Fs4
 BYTE   W16
 BYTE   En4
 BYTE   W16
 BYTE   Fs4
 BYTE   W16
 BYTE   PEND 
//  #01 //060   ----------------------------------------
 BYTE   An4
 BYTE   W16
 BYTE   Gn4
 BYTE   W16
 BYTE   Fs4
 BYTE   W16
 BYTE   TIE  Bn3
 BYTE   N90  En4
 BYTE   N90  Gn4
 BYTE   W48
//  #01 //061   ----------------------------------------
 BYTE   PATT
  POIN2 Label_01006921
//  #01 //062   ----------------------------------------
 BYTE   W42
 BYTE   EOT
 BYTE   Bn3
 BYTE   W06
 BYTE   N90  Gn3  v092
 BYTE   N90  Cn4
 BYTE   N90  En4
 BYTE   W48
//  #01 //063   ----------------------------------------
Label_01006A1C:
 BYTE   W48
 BYTE   N90  An3  v092
 BYTE   N90  Cn4
 BYTE   N90  Ds4
 BYTE   N90  Fs4
 BYTE   W48
 BYTE   PEND 
//  #01 //064   ----------------------------------------
Label_01006A28:
 BYTE   W48
 BYTE   TIE  Bn3  v092
 BYTE   N90  En4
 BYTE   N90  Gn4
 BYTE   W48
 BYTE   PEND 
//  #01 //065   ----------------------------------------
 BYTE   PATT
  POIN2 Label_01006921
//  #01 //066   ----------------------------------------
 BYTE   W42
 BYTE   EOT
 BYTE   Bn3
 BYTE   W06
 BYTE   N90  Gn3  v092
 BYTE   N90  Cn4
 BYTE   N90  En4
 BYTE   W48
//  #01 //067   ----------------------------------------
Label_01006A43:
 BYTE   W48
 BYTE   N20  An3  v092
 BYTE   N20  Cn4
 BYTE   N20  Ds4
 BYTE   N20  Fs4
 BYTE   W24
 BYTE   Bn3
 BYTE   N20  Dn4
 BYTE   N20  En4
 BYTE   N20  Gn4
 BYTE   W24
 BYTE   PEND 
//  #01 //068   ----------------------------------------
 BYTE   Cn4
 BYTE   N20  En4
 BYTE   N20  Fs4
 BYTE   N20  An4
 BYTE   W24
 BYTE   Ds4
 BYTE   N20  Fs4
 BYTE   N20  Gn4
 BYTE   N20  Bn4
 BYTE   W24
 BYTE   N96  Gn3
 BYTE   N96  Cn4
 BYTE   N96  En4
 BYTE   W48
//  #01 //069   ----------------------------------------
 BYTE   PATT
  POIN2 Label_01006750
//  #01 //070   ----------------------------------------
 BYTE   PATT
  POIN2 Label_01006917
//  #01 //071   ----------------------------------------
 BYTE   PATT
  POIN2 Label_01006921
//  #01 //072   ----------------------------------------
 BYTE   W42
 BYTE   EOT
 BYTE   Bn3
 BYTE   W06
 BYTE   N96  Gn3  v092
 BYTE   N96  Cn4
 BYTE   N96  En4
 BYTE   W48
//  #01 //073   ----------------------------------------
 BYTE   PATT
  POIN2 Label_01006750
//  #01 //074   ----------------------------------------
 BYTE   PATT
  POIN2 Label_01006939
//  #01 //075   ----------------------------------------
 BYTE   W90
 BYTE   EOT
 BYTE   Bn3  v075
 BYTE   Fs4
 BYTE   W06
//  #01 //076   ----------------------------------------
 BYTE   N20  Gn3  v092
 BYTE   N20  Cn4
 BYTE   N20  En4
 BYTE   W24
 BYTE   Fs3
 BYTE   N20  An3
 BYTE   N20  Dn4
 BYTE   W24
 BYTE   N90  Gn3
 BYTE   N90  Cn4
 BYTE   N48  En4
 BYTE   N48  Cn5
 BYTE   W48
//  #01 //077   ----------------------------------------
 BYTE   PATT
  POIN2 Label_010066FC
//  #01 //078   ----------------------------------------
 BYTE   PATT
  POIN2 Label_01006992
//  #01 //079   ----------------------------------------
 BYTE   PATT
  POIN2 Label_010069A5
//  #01 //080   ----------------------------------------
 BYTE   PATT
  POIN2 Label_010069B8
//  #01 //081   ----------------------------------------
 BYTE   PATT
  POIN2 Label_010069CA
//  #01 //082   ----------------------------------------
 BYTE   PATT
  POIN2 Label_010069DA
//  #01 //083   ----------------------------------------
 BYTE   PATT
  POIN2 Label_010069EA
//  #01 //084   ----------------------------------------
 BYTE   N16  An4  v092
 BYTE   W16
 BYTE   Gn4
 BYTE   W16
 BYTE   Fs4
 BYTE   W16
 BYTE   N96  An3
 BYTE   N96  Cs4
 BYTE   N96  En4
 BYTE   N96  Fs4
 BYTE   W48
//  #01 //085   ----------------------------------------
 BYTE   PATT
  POIN2 Label_01006746
//  #01 //086   ----------------------------------------
 BYTE   PATT
  POIN2 Label_01006750
//  #01 //087   ----------------------------------------
 BYTE   PATT
  POIN2 Label_0100675A
//  #01 //088   ----------------------------------------
 BYTE   W48
 BYTE   N96  En4  v092
 BYTE   W48
//  #01 //089   ----------------------------------------
 BYTE   W48
 BYTE   EOT
 BYTE   An3  v073
 BYTE   Fs4
 BYTE   N96  Bn3
 BYTE   N96  Ds4
 BYTE   N96  Fs4
 BYTE   W48
//  #01 //090   ----------------------------------------
 BYTE   PATT
  POIN2 Label_01006750
//  #01 //091   ----------------------------------------
 BYTE   PATT
  POIN2 Label_01006779
//  #01 //092   ----------------------------------------
 BYTE   N48  An3  v092
 BYTE   N48  Cs4
 BYTE   N48  En4
 BYTE   W48
 BYTE   TIE  Gn3
 BYTE   W48
//  #01 //093   ----------------------------------------
 BYTE   PATT
  POIN2 Label_0100678D
//  #01 //094   ----------------------------------------
 BYTE   N48  Dn4  v092
 BYTE   W48
 BYTE   EOT
 BYTE   Gn3
 BYTE   TIE
 BYTE   TIE  Gn4
 BYTE   W48
//  #01 //095   ----------------------------------------
 BYTE   PATT
  POIN2 Label_0100678D
//  #01 //096   ----------------------------------------
 BYTE   N48  Dn4  v092
 BYTE   W42
 BYTE   EOT
 BYTE   Gn4
 BYTE   W06
 BYTE   Gn3
 BYTE   N04  An3
 BYTE   N04  Cs4
 BYTE   N04  En4
 BYTE   N04  Fs4
 BYTE   W12
 BYTE   An3
 BYTE   N04  Cs4
 BYTE   N04  En4
 BYTE   N04  Fs4
 BYTE   W12
 BYTE   An3
 BYTE   N04  Cs4
 BYTE   N04  En4
 BYTE   N04  Fs4
 BYTE   W12
 BYTE   An3
 BYTE   N04  Cs4
 BYTE   N04  En4
 BYTE   N04  Fs4
 BYTE   W12
//  #01 //097   ----------------------------------------
 BYTE   PATT
  POIN2 Label_010067CA
//  #01 //098   ----------------------------------------
 BYTE   PATT
  POIN2 Label_01006805
//  #01 //099   ----------------------------------------
 BYTE   PATT
  POIN2 Label_01006838
//  #01 //100   ----------------------------------------
 BYTE   PATT
  POIN2 Label_0100686B
//  #01 //101   ----------------------------------------
 BYTE   PATT
  POIN2 Label_010067CA
//  #01 //102   ----------------------------------------
 BYTE   PATT
  POIN2 Label_01006805
//  #01 //103   ----------------------------------------
 BYTE   PATT
  POIN2 Label_01006838
//  #01 //104   ----------------------------------------
 BYTE   PATT
  POIN2 Label_010068B5
//  #01 //105   ----------------------------------------
 BYTE   PATT
  POIN2 Label_01006746
//  #01 //106   ----------------------------------------
 BYTE   PATT
  POIN2 Label_010068DE
//  #01 //107   ----------------------------------------
 BYTE   PATT
  POIN2 Label_01006746
//  #01 //108   ----------------------------------------
 BYTE   PATT
  POIN2 Label_010068ED
//  #01 //109   ----------------------------------------
 BYTE   PATT
  POIN2 Label_01006746
//  #01 //110   ----------------------------------------
 BYTE   PATT
  POIN2 Label_010068DE
//  #01 //111   ----------------------------------------
 BYTE   PATT
  POIN2 Label_01006746
//  #01 //112   ----------------------------------------
 BYTE   PATT
  POIN2 Label_01006908
//  #01 //113   ----------------------------------------
 BYTE   PATT
  POIN2 Label_01006750
//  #01 //114   ----------------------------------------
 BYTE   PATT
  POIN2 Label_01006917
//  #01 //115   ----------------------------------------
 BYTE   PATT
  POIN2 Label_01006921
//  #01 //116   ----------------------------------------
 BYTE   W42
 BYTE   EOT
 BYTE   Bn3
 BYTE   W06
 BYTE   N96  Gn3  v092
 BYTE   N96  Cn4
 BYTE   N96  En4
 BYTE   W48
//  #01 //117   ----------------------------------------
 BYTE   PATT
  POIN2 Label_01006750
//  #01 //118   ----------------------------------------
 BYTE   PATT
  POIN2 Label_01006939
//  #01 //119   ----------------------------------------
 BYTE   W90
 BYTE   EOT
 BYTE   Bn3  v075
 BYTE   Fs4
 BYTE   W06
//  #01 //120   ----------------------------------------
 BYTE   N20  Gn3  v092
 BYTE   N20  Cn4
 BYTE   N20  En4
 BYTE   W24
 BYTE   Fs3
 BYTE   N20  An3
 BYTE   N20  Dn4
 BYTE   W24
 BYTE   TIE  Gn3
 BYTE   N90  Bn3
 BYTE   TIE  En4
 BYTE   W48
//  #01 //121   ----------------------------------------
Label_01006BE6:
 BYTE   W48
 BYTE   N90  As3  v092
 BYTE   N90  Cs4
 BYTE   W48
 BYTE   PEND 
//  #01 //122   ----------------------------------------
 BYTE   W48
 BYTE   Bn3
 BYTE   W48
//  #01 //123   ----------------------------------------
Label_01006BF1:
 BYTE   W48
 BYTE   N96  As3  v092
 BYTE   N96  Cs4
 BYTE   W48
 BYTE   PEND 
//  #01 //124   ----------------------------------------
 BYTE   W48
 BYTE   EOT
 BYTE   Gn3  v076
 BYTE   TIE  Gn3
 BYTE   N90  Bn3
 BYTE   TIE  En4
 BYTE   W48
//  #01 //125   ----------------------------------------
 BYTE   PATT
  POIN2 Label_01006BE6
//  #01 //126   ----------------------------------------
 BYTE   W48
 BYTE   N90  Bn3  v092
 BYTE   W48
//  #01 //127   ----------------------------------------
 BYTE   PATT
  POIN2 Label_01006BE6
//  #01 //128   ----------------------------------------
 BYTE   W42
 BYTE   EOT
 BYTE   Gn3  v076
 BYTE   W06
 BYTE   TIE  Gn3  v092
 BYTE   N90  Bn3
 BYTE   TIE  En4
 BYTE   W48
//  #01 //129   ----------------------------------------
 BYTE   PATT
  POIN2 Label_01006BE6
//  #01 //130   ----------------------------------------
 BYTE   W48
 BYTE   N90  Bn3  v092
 BYTE   W48
//  #01 //131   ----------------------------------------
 BYTE   PATT
  POIN2 Label_01006BE6
//  #01 //132   ----------------------------------------
 BYTE   W42
 BYTE   EOT
 BYTE   Gn3  v076
 BYTE   W06
 BYTE   TIE  Gn3  v092
 BYTE   N90  Bn3
 BYTE   TIE  En4
 BYTE   W48
//  #01 //133   ----------------------------------------
 BYTE   PATT
  POIN2 Label_01006BE6
//  #01 //134   ----------------------------------------
 BYTE   W48
 BYTE   N90  Bn3  v092
 BYTE   W48
//  #01 //135   ----------------------------------------
 BYTE   PATT
  POIN2 Label_01006BF1
//  #01 //136   ----------------------------------------
 BYTE   W48
 BYTE   EOT
 BYTE   Gn3  v076
 BYTE   TIE  An3  v092
 BYTE   N90  Bn3
 BYTE   TIE  Dn4
 BYTE   N90  Gn4
 BYTE   W48
//  #01 //137   ----------------------------------------
 BYTE   W48
 BYTE   Fs4
 BYTE   W48
//  #01 //138   ----------------------------------------
 BYTE   W42
 BYTE   EOT
 BYTE   An3  v074
 BYTE   W54
//  #01 //139   ----------------------------------------
 BYTE   W48
 BYTE   N04  An3
 BYTE   N04  Cs4
 BYTE   N04  En4
 BYTE   N04  Fs4
 BYTE   W12
 BYTE   An3
 BYTE   N04  Cs4
 BYTE   N04  En4
 BYTE   N04  Fs4
 BYTE   W12
 BYTE   An3
 BYTE   N04  Cs4
 BYTE   N04  En4
 BYTE   N04  Fs4
 BYTE   W12
 BYTE   An3
 BYTE   N04  Cs4
 BYTE   N04  En4
 BYTE   N04  Fs4
 BYTE   W12
//  #01 //140   ----------------------------------------
 BYTE   PATT
  POIN2 Label_010067CA
//  #01 //141   ----------------------------------------
 BYTE   PATT
  POIN2 Label_01006805
//  #01 //142   ----------------------------------------
 BYTE   PATT
  POIN2 Label_01006838
//  #01 //143   ----------------------------------------
 BYTE   PATT
  POIN2 Label_0100686B
//  #01 //144   ----------------------------------------
 BYTE   PATT
  POIN2 Label_010067CA
//  #01 //145   ----------------------------------------
 BYTE   PATT
  POIN2 Label_01006805
//  #01 //146   ----------------------------------------
 BYTE   PATT
  POIN2 Label_01006838
//  #01 //147   ----------------------------------------
 BYTE   PATT
  POIN2 Label_010068B5
//  #01 //148   ----------------------------------------
 BYTE   PATT
  POIN2 Label_01006746
//  #01 //149   ----------------------------------------
 BYTE   PATT
  POIN2 Label_010068DE
//  #01 //150   ----------------------------------------
 BYTE   PATT
  POIN2 Label_01006746
//  #01 //151   ----------------------------------------
 BYTE   PATT
  POIN2 Label_010068ED
//  #01 //152   ----------------------------------------
 BYTE   PATT
  POIN2 Label_01006746
//  #01 //153   ----------------------------------------
 BYTE   PATT
  POIN2 Label_010068DE
//  #01 //154   ----------------------------------------
 BYTE   PATT
  POIN2 Label_01006746
//  #01 //155   ----------------------------------------
 BYTE   PATT
  POIN2 Label_01006908
//  #01 //156   ----------------------------------------
 BYTE   PATT
  POIN2 Label_01006750
//  #01 //157   ----------------------------------------
 BYTE   PATT
  POIN2 Label_01006917
//  #01 //158   ----------------------------------------
 BYTE   PATT
  POIN2 Label_01006921
//  #01 //159   ----------------------------------------
 BYTE   W42
 BYTE   EOT
 BYTE   Bn3
 BYTE   W06
 BYTE   N96  Gn3  v092
 BYTE   N96  Cn4
 BYTE   N96  En4
 BYTE   W48
//  #01 //160   ----------------------------------------
 BYTE   PATT
  POIN2 Label_01006750
//  #01 //161   ----------------------------------------
 BYTE   PATT
  POIN2 Label_01006939
//  #01 //162   ----------------------------------------
 BYTE   W90
 BYTE   EOT
 BYTE   Bn3  v075
 BYTE   Fs4
 BYTE   W06
//  #01 //163   ----------------------------------------
 BYTE   N20  Gn3  v092
 BYTE   N20  Cn4
 BYTE   N20  En4
 BYTE   W24
 BYTE   Fs3
 BYTE   N20  An3
 BYTE   N20  Dn4
 BYTE   W24
 BYTE   TIE  Bn3
 BYTE   N90  En4
 BYTE   N90  Gn4
 BYTE   W48
//  #01 //164   ----------------------------------------
 BYTE   PATT
  POIN2 Label_01006921
//  #01 //165   ----------------------------------------
 BYTE   W42
 BYTE   EOT
 BYTE   Bn3
 BYTE   W06
 BYTE   N90  Gn3  v092
 BYTE   N90  Cn4
 BYTE   N90  En4
 BYTE   W48
//  #01 //166   ----------------------------------------
 BYTE   PATT
  POIN2 Label_01006A1C
//  #01 //167   ----------------------------------------
 BYTE   PATT
  POIN2 Label_01006A28
//  #01 //168   ----------------------------------------
 BYTE   PATT
  POIN2 Label_01006921
//  #01 //169   ----------------------------------------
 BYTE   W42
 BYTE   EOT
 BYTE   Bn3
 BYTE   W06
 BYTE   N90  Gn3  v092
 BYTE   N90  Cn4
 BYTE   N90  En4
 BYTE   W48
//  #01 //170   ----------------------------------------
 BYTE   PATT
  POIN2 Label_01006A43
//  #01 //171   ----------------------------------------
 BYTE   N20  Cn4  v092
 BYTE   N20  En4
 BYTE   N20  Fs4
 BYTE   N20  An4
 BYTE   W24
 BYTE   Ds4
 BYTE   N20  Fs4
 BYTE   N20  Gn4
 BYTE   N20  Bn4
 BYTE   W72
//  #01 //172   ----------------------------------------
Label_01006D56:
 BYTE   N96  Gn3  v092
 BYTE   N96  Cn4
 BYTE   N96  En4
 BYTE   W96
 BYTE   PEND 
//  #01 //173   ----------------------------------------
Label_01006D5F:
 BYTE   N96  An3  v092
 BYTE   N96  Dn4
 BYTE   N96  Fs4
 BYTE   W96
 BYTE   PEND 
//  #01 //174   ----------------------------------------
 BYTE   TIE  Bn3
 BYTE   N96  En4
 BYTE   N96  Gn4
 BYTE   W96
//  #01 //175   ----------------------------------------
 BYTE   N90  Ds4
 BYTE   N90  Fs4
 BYTE   W90
 BYTE   EOT
 BYTE   Bn3
 BYTE   W06
//  #01 //176   ----------------------------------------
 BYTE   PATT
  POIN2 Label_01006D56
//  #01 //177   ----------------------------------------
 BYTE   PATT
  POIN2 Label_01006D5F
//  #01 //178   ----------------------------------------
 BYTE   TIE  Bn3  v092
 BYTE   TIE  Ds4
 BYTE   TIE  Fs4
 BYTE   W96
//  #01 //179   ----------------------------------------
 BYTE   W42
 BYTE   EOT
 BYTE   Bn3  v075
 BYTE   Fs4
 BYTE   W06
 BYTE   N20  Gn3
 BYTE   N20  Cn4
 BYTE   N20  En4
 BYTE   W24
 BYTE   Fs3
 BYTE   N20  An3
 BYTE   N20  Dn4
 BYTE   W24
//  #01 //180   ----------------------------------------
 BYTE   N90  Gn3
 BYTE   N90  Cn4
 BYTE   N48  En4
 BYTE   N48  Cn5
 BYTE   W48
 BYTE   N16  Fs4
 BYTE   N48  Bn4
 BYTE   W16
 BYTE   N16  Gn4
 BYTE   W16
 BYTE   Fs4
 BYTE   W16
//  #01 //181   ----------------------------------------
 BYTE   N90  Gn3
 BYTE   N90  Cn4
 BYTE   N48  En4
 BYTE   N48  An4
 BYTE   W48
 BYTE   N16  Fs4
 BYTE   N48  Gn4
 BYTE   W32
 BYTE   N16  Fs4
 BYTE   W16
//  #01 //182   ----------------------------------------
 BYTE   N90  Gn3
 BYTE   N90  Cn4
 BYTE   N48  En4
 BYTE   N48  Fs4
 BYTE   W48
 BYTE   N16
 BYTE   N48  Bn4
 BYTE   W16
 BYTE   N16  Gn4
 BYTE   W16
 BYTE   Fs4
 BYTE   W16
//  #01 //183   ----------------------------------------
 BYTE   N90  Bn3
 BYTE   N48  En4
 BYTE   N48  An4
 BYTE   W48
 BYTE   Ds4
 BYTE   N48  Bn4
 BYTE   W48
//  #01 //184   ----------------------------------------
 BYTE   N96  Cn4
 BYTE   N96  En4
 BYTE   N16  Cn5
 BYTE   W16
 BYTE   Bn4
 BYTE   W16
 BYTE   An4
 BYTE   W16
 BYTE   Gn4
 BYTE   W16
 BYTE   Fs4
 BYTE   W16
 BYTE   Gn4
 BYTE   W16
//  #01 //185   ----------------------------------------
 BYTE   N48  Cn4
 BYTE   N48  En4
 BYTE   N48  An4
 BYTE   W48
 BYTE   Gn3
 BYTE   N48  Cn4
 BYTE   N48  En4
 BYTE   W48
//  #01 //186   ----------------------------------------
 BYTE   N90  Gn3
 BYTE   N90  Cn4
 BYTE   N48  Dn4
 BYTE   W48
 BYTE   N16  En4
 BYTE   W16
 BYTE   Dn4
 BYTE   W16
 BYTE   Fs4
 BYTE   W16
//  #01 //187   ----------------------------------------
 BYTE   N90  An3
 BYTE   N90  Dn4
 BYTE   N16  Fs4
 BYTE   W16
 BYTE   En4
 BYTE   W16
 BYTE   Fs4
 BYTE   W16
 BYTE   An4
 BYTE   W16
 BYTE   Gn4
 BYTE   W16
 BYTE   Fs4
 BYTE   W16
//  #01 //188   ----------------------------------------
 BYTE   N96  An3
 BYTE   N96  Cs4
 BYTE   N96  En4
 BYTE   N96  Fs4
 BYTE   W96
//  #01 //189   ----------------------------------------
Label_01006E23:
 BYTE   N96  Bn3  v092
 BYTE   N96  Ds4
 BYTE   N96  Fs4
 BYTE   W96
 BYTE   PEND 
//  #01 //190   ----------------------------------------
 BYTE   PATT
  POIN2 Label_01006D5F
//  #01 //191   ----------------------------------------
Label_01006E31:
 BYTE   TIE  An3  v092
 BYTE   TIE  Cs4
 BYTE   TIE  Fs4
 BYTE   W96
 BYTE   PEND 
//  #01 //192   ----------------------------------------
 BYTE   N96  En4
 BYTE   W96
//  #01 //193   ----------------------------------------
 BYTE   EOT
 BYTE   An3  v073
 BYTE   Fs4
//  #01 //194   ----------------------------------------
 BYTE   PATT
  POIN2 Label_01006E23
//  #01 //195   ----------------------------------------
 BYTE   PATT
  POIN2 Label_01006D5F
//  #01 //196   ----------------------------------------
 BYTE   PATT
  POIN2 Label_01006E31
//  #01 //197   ----------------------------------------
 BYTE   N96  En4  v092
 BYTE   W96
//  #01 //198   ----------------------------------------
 BYTE   EOT
 BYTE   An3  v073
 BYTE   Fs4
//  #01 //199   ----------------------------------------
 BYTE   PATT
  POIN2 Label_01006E23
//  #01 //200   ----------------------------------------
 BYTE   PATT
  POIN2 Label_01006D5F
//  #01 //201   ----------------------------------------
 BYTE   PATT
  POIN2 Label_01006E31
//  #01 //202   ----------------------------------------
 BYTE   N96  En4  v092
 BYTE   W96
//  #01 //203   ----------------------------------------
 BYTE   EOT
 BYTE   An3  v073
 BYTE   Fs4
//  #01 //204   ----------------------------------------
 BYTE   PATT
  POIN2 Label_01006E23
//  #01 //205   ----------------------------------------
 BYTE   PATT
  POIN2 Label_01006D5F
//  #01 //206   ----------------------------------------
 BYTE   N48  As3  v092
 BYTE   N48  Cs4
 BYTE   N48  Fs4
 BYTE   W48
 BYTE   An3
 BYTE   N48  Cs4
 BYTE   N48  En4
 BYTE   W48
//  #01 //207   ----------------------------------------
 BYTE   GoTo
  POIN2 Label_01006789
//  #01 //208   ----------------------------------------
 BYTE   TIE  Gn3  v092
 BYTE   W48
 BYTE   N48  Bn3
 BYTE   W48
//  #01 //209   ----------------------------------------
 BYTE   Cs4
 BYTE   W48
 BYTE   Dn4
 BYTE   W48
//  #01 //210   ----------------------------------------
 BYTE   EOT
 BYTE   Gn3
 BYTE   TIE
 BYTE   TIE  Gn4
 BYTE   W48
 BYTE   N48  Bn3
 BYTE   W48
//  #01 //211   ----------------------------------------
 BYTE   Cs4
 BYTE   W48
 BYTE   N42  Dn4
 BYTE   W42
 BYTE   EOT
 BYTE   Gn3  v079
 BYTE   W06
//  #01 //212   ----------------------------------------
 BYTE   W96
//  #01 //213   ----------------------------------------
 BYTE   W96
//  #01 //214   ----------------------------------------
 BYTE   PATT
  POIN2 Label_010068ED
//  #01 //215   ----------------------------------------
 BYTE   PATT
  POIN2 Label_010068ED
//  #01 //216   ----------------------------------------
 BYTE   W48
 BYTE   TIE  An3  v092
 BYTE   TIE  Cs4
 BYTE   TIE  En4
 BYTE   TIE  Fs4
 BYTE   W48
//  #01 //217   ----------------------------------------
 BYTE   W96
//  #01 //218   ----------------------------------------
 BYTE   W42
 BYTE   EOT
 BYTE   An3  v073
 BYTE   En4  v078
 BYTE   W48
 BYTE   W02
 BYTE   FINE

//**************** Track 2 (Midi-Chn.1) ****************//

DelusionalExtremities_002:
//  #02 //000   ----------------------------------------
 BYTE   KEYSH   DelusionalExtremities_key+0
 BYTE   VOICE   34
 BYTE   VOL   25*DelusionalExtremities_mvl/mxv
 BYTE   PAN   c_v+0
 BYTE   W48
 BYTE   N90  Cn2  v127
 BYTE   W48
//  #02 //001   ----------------------------------------
 BYTE   W48
 BYTE   N90
 BYTE   W48
//  #02 //002   ----------------------------------------
 BYTE   W48
 BYTE   N90
 BYTE   W48
//  #02 //003   ----------------------------------------
 BYTE   W48
 BYTE   N42  An1
 BYTE   W48
//  #02 //004   ----------------------------------------
 BYTE   Bn1
 BYTE   W48
 BYTE   N20  Cn2
 BYTE   W24
 BYTE   N20
 BYTE   W24
//  #02 //005   ----------------------------------------
Label_01006EEA:
 BYTE   N20  Cn2  v127
 BYTE   W24
 BYTE   N20
 BYTE   W24
 BYTE   N20
 BYTE   W24
 BYTE   N20
 BYTE   W24
 BYTE   PEND 
//  #02 //006   ----------------------------------------
 BYTE   PATT
  POIN2 Label_01006EEA
//  #02 //007   ----------------------------------------
 BYTE   N20  Cn2  v127
 BYTE   W24
 BYTE   N20
 BYTE   W24
 BYTE   Dn2
 BYTE   W24
 BYTE   N20
 BYTE   W24
//  #02 //008   ----------------------------------------
 BYTE   N20
 BYTE   W24
 BYTE   N20
 BYTE   W24
 BYTE   N60  Fs1
 BYTE   W48
//  #02 //009   ----------------------------------------
Label_01006F0B:
 BYTE   W16
 BYTE   N15  Fs2  v127
 BYTE   W16
 BYTE   Fs1
 BYTE   W16
 BYTE   N60
 BYTE   W48
 BYTE   PEND 
//  #02 //010   ----------------------------------------
 BYTE   PATT
  POIN2 Label_01006F0B
//  #02 //011   ----------------------------------------
 BYTE   PATT
  POIN2 Label_01006F0B
//  #02 //012   ----------------------------------------
 BYTE   PATT
  POIN2 Label_01006F0B
//  #02 //013   ----------------------------------------
 BYTE   PATT
  POIN2 Label_01006F0B
//  #02 //014   ----------------------------------------
 BYTE   PATT
  POIN2 Label_01006F0B
//  #02 //015   ----------------------------------------
Label_01006F2E:
 BYTE   W16
 BYTE   N15  Fs2  v127
 BYTE   W16
 BYTE   Fs1
 BYTE   W16
 BYTE   N42
 BYTE   W48
 BYTE   PEND 
//  #02 //016   ----------------------------------------
 BYTE   N15  An1
 BYTE   W16
 BYTE   Cs2
 BYTE   W16
 BYTE   En2
 BYTE   W16
Label_01006F3F:
 BYTE   N20  Gn1  v127
 BYTE   W24
 BYTE   N20
 BYTE   W24
//  #02 //017   ----------------------------------------
Label_01006F45:
 BYTE   N20  Gn1  v127
 BYTE   W24
 BYTE   N20
 BYTE   W24
 BYTE   N20
 BYTE   W24
 BYTE   N20
 BYTE   W24
 BYTE   PEND 
//  #02 //018   ----------------------------------------
 BYTE   PATT
  POIN2 Label_01006F45
//  #02 //019   ----------------------------------------
 BYTE   PATT
  POIN2 Label_01006F45
//  #02 //020   ----------------------------------------
Label_01006F5A:
 BYTE   N20  Gn1  v127
 BYTE   W24
 BYTE   N20
 BYTE   W24
 BYTE   N15  Fs1
 BYTE   W16
 BYTE   N15
 BYTE   W16
 BYTE   En1
 BYTE   W16
 BYTE   PEND 
//  #02 //021   ----------------------------------------
Label_01006F68:
 BYTE   N15  Fs1  v127
 BYTE   W16
 BYTE   N15
 BYTE   W16
 BYTE   En1
 BYTE   W16
 BYTE   Fs1
 BYTE   W16
 BYTE   N15
 BYTE   W16
 BYTE   Ds1
 BYTE   W16
 BYTE   PEND 
//  #02 //022   ----------------------------------------
Label_01006F77:
 BYTE   N15  Fs1  v127
 BYTE   W16
 BYTE   N15
 BYTE   W16
 BYTE   Ds1
 BYTE   W16
 BYTE   Gn1
 BYTE   W16
 BYTE   N15
 BYTE   W16
 BYTE   En1
 BYTE   W16
 BYTE   PEND 
//  #02 //023   ----------------------------------------
Label_01006F86:
 BYTE   N15  Gn1  v127
 BYTE   W16
 BYTE   N15
 BYTE   W16
 BYTE   En1
 BYTE   W16
 BYTE   Bn1
 BYTE   W16
 BYTE   Bn2
 BYTE   W16
 BYTE   Bn1
 BYTE   W16
 BYTE   PEND 
//  #02 //024   ----------------------------------------
Label_01006F95:
 BYTE   N15  Bn1  v127
 BYTE   W16
 BYTE   Bn2
 BYTE   W16
 BYTE   Bn1
 BYTE   W16
 BYTE   Fs1
 BYTE   W16
 BYTE   N15
 BYTE   W16
 BYTE   En1
 BYTE   W16
 BYTE   PEND 
//  #02 //025   ----------------------------------------
 BYTE   PATT
  POIN2 Label_01006F68
//  #02 //026   ----------------------------------------
 BYTE   PATT
  POIN2 Label_01006F77
//  #02 //027   ----------------------------------------
 BYTE   PATT
  POIN2 Label_01006F86
//  #02 //028   ----------------------------------------
 BYTE   PATT
  POIN2 Label_01006F95
//  #02 //029   ----------------------------------------
 BYTE   PATT
  POIN2 Label_01006F68
//  #02 //030   ----------------------------------------
 BYTE   PATT
  POIN2 Label_01006F77
//  #02 //031   ----------------------------------------
 BYTE   PATT
  POIN2 Label_01006F86
//  #02 //032   ----------------------------------------
 BYTE   PATT
  POIN2 Label_01006F95
//  #02 //033   ----------------------------------------
 BYTE   PATT
  POIN2 Label_01006F68
//  #02 //034   ----------------------------------------
 BYTE   PATT
  POIN2 Label_01006F77
//  #02 //035   ----------------------------------------
 BYTE   PATT
  POIN2 Label_01006F86
//  #02 //036   ----------------------------------------
Label_01006FDB:
 BYTE   N15  Bn1  v127
 BYTE   W16
 BYTE   Bn2
 BYTE   W16
 BYTE   Bn1
 BYTE   W16
 BYTE   N11  Cn1
 BYTE   W12
 BYTE   Cn2
 BYTE   W12
 BYTE   Cn1
 BYTE   W12
 BYTE   Cn2
 BYTE   W12
 BYTE   PEND 
//  #02 //037   ----------------------------------------
Label_01006FED:
 BYTE   N11  Cn1  v127
 BYTE   W12
 BYTE   Cn2
 BYTE   W12
 BYTE   Cn1
 BYTE   W12
 BYTE   Cn2
 BYTE   W12
 BYTE   Dn1
 BYTE   W12
 BYTE   Dn2
 BYTE   W12
 BYTE   Dn1
 BYTE   W12
 BYTE   Dn2
 BYTE   W12
 BYTE   PEND 
//  #02 //038   ----------------------------------------
Label_01007000:
 BYTE   N11  Dn1  v127
 BYTE   W12
 BYTE   Dn2
 BYTE   W12
 BYTE   Dn1
 BYTE   W12
 BYTE   Dn2
 BYTE   W12
 BYTE   En1
 BYTE   W12
 BYTE   En2
 BYTE   W12
 BYTE   En1
 BYTE   W12
 BYTE   En2
 BYTE   W12
 BYTE   PEND 
//  #02 //039   ----------------------------------------
Label_01007013:
 BYTE   N11  En1  v127
 BYTE   W12
 BYTE   En2
 BYTE   W12
 BYTE   En1
 BYTE   W12
 BYTE   En2
 BYTE   W12
 BYTE   Bn1
 BYTE   W12
 BYTE   Bn2
 BYTE   W12
 BYTE   Bn1
 BYTE   W12
 BYTE   Bn2
 BYTE   W12
 BYTE   PEND 
//  #02 //040   ----------------------------------------
Label_01007026:
 BYTE   N11  Bn1  v127
 BYTE   W12
 BYTE   Bn2
 BYTE   W12
 BYTE   Bn1
 BYTE   W12
 BYTE   Bn2
 BYTE   W12
 BYTE   Cn1
 BYTE   W12
 BYTE   Cn2
 BYTE   W12
 BYTE   Cn1
 BYTE   W12
 BYTE   Cn2
 BYTE   W12
 BYTE   PEND 
//  #02 //041   ----------------------------------------
 BYTE   PATT
  POIN2 Label_01006FED
//  #02 //042   ----------------------------------------
Label_0100703E:
 BYTE   N11  Dn1  v127
 BYTE   W12
 BYTE   Dn2
 BYTE   W12
 BYTE   Dn1
 BYTE   W12
 BYTE   Dn2
 BYTE   W12
 BYTE   Bn1
 BYTE   W12
 BYTE   Bn2
 BYTE   W12
 BYTE   Bn1
 BYTE   W12
 BYTE   Bn2
 BYTE   W12
 BYTE   PEND 
//  #02 //043   ----------------------------------------
Label_01007051:
 BYTE   N11  Bn1  v127
 BYTE   W12
 BYTE   Bn2
 BYTE   W12
 BYTE   Bn1
 BYTE   W12
 BYTE   Bn2
 BYTE   W12
 BYTE   Bn1
 BYTE   W12
 BYTE   Bn2
 BYTE   W12
 BYTE   Bn1
 BYTE   W12
 BYTE   Bn2
 BYTE   W12
 BYTE   PEND 
//  #02 //044   ----------------------------------------
 BYTE   Cn2
 BYTE   W12
 BYTE   En2
 BYTE   W12
 BYTE   Dn2
 BYTE   W12
 BYTE   Fs2
 BYTE   W12
 BYTE   N15  Fs1
 BYTE   W16
 BYTE   N15
 BYTE   W16
 BYTE   En1
 BYTE   W16
//  #02 //045   ----------------------------------------
 BYTE   PATT
  POIN2 Label_01006F68
//  #02 //046   ----------------------------------------
 BYTE   PATT
  POIN2 Label_01006F77
//  #02 //047   ----------------------------------------
 BYTE   PATT
  POIN2 Label_01006F86
//  #02 //048   ----------------------------------------
 BYTE   PATT
  POIN2 Label_01006F95
//  #02 //049   ----------------------------------------
 BYTE   PATT
  POIN2 Label_01006F68
//  #02 //050   ----------------------------------------
 BYTE   PATT
  POIN2 Label_01006F77
//  #02 //051   ----------------------------------------
 BYTE   PATT
  POIN2 Label_01006F86
//  #02 //052   ----------------------------------------
 BYTE   PATT
  POIN2 Label_01006FDB
//  #02 //053   ----------------------------------------
Label_0100709B:
 BYTE   N11  Cn1  v127
 BYTE   W12
 BYTE   Cn2
 BYTE   W12
 BYTE   Cn1
 BYTE   W12
 BYTE   Cn2
 BYTE   W12
 BYTE   Cn1
 BYTE   W12
 BYTE   Cn2
 BYTE   W12
 BYTE   Cn1
 BYTE   W12
 BYTE   Cn2
 BYTE   W12
 BYTE   PEND 
//  #02 //054   ----------------------------------------
 BYTE   PATT
  POIN2 Label_0100709B
//  #02 //055   ----------------------------------------
Label_010070B3:
 BYTE   N11  Cn1  v127
 BYTE   W12
 BYTE   Cn2
 BYTE   W12
 BYTE   Cn1
 BYTE   W12
 BYTE   Cn2
 BYTE   W12
 BYTE   En1
 BYTE   W12
 BYTE   En2
 BYTE   W12
 BYTE   En1
 BYTE   W12
 BYTE   En2
 BYTE   W12
 BYTE   PEND 
//  #02 //056   ----------------------------------------
Label_010070C6:
 BYTE   N11  Ds1  v127
 BYTE   W12
 BYTE   Ds2
 BYTE   W12
 BYTE   Ds1
 BYTE   W12
 BYTE   Ds2
 BYTE   W12
 BYTE   Cn1
 BYTE   W12
 BYTE   Cn2
 BYTE   W12
 BYTE   Cn1
 BYTE   W12
 BYTE   Cn2
 BYTE   W12
 BYTE   PEND 
//  #02 //057   ----------------------------------------
 BYTE   PATT
  POIN2 Label_0100709B
//  #02 //058   ----------------------------------------
 BYTE   PATT
  POIN2 Label_0100709B
//  #02 //059   ----------------------------------------
 BYTE   PATT
  POIN2 Label_01006FED
//  #02 //060   ----------------------------------------
 BYTE   PATT
  POIN2 Label_01007000
//  #02 //061   ----------------------------------------
Label_010070ED:
 BYTE   N11  En1  v127
 BYTE   W12
 BYTE   En2
 BYTE   W12
 BYTE   En1
 BYTE   W12
 BYTE   En2
 BYTE   W12
 BYTE   Bn0
 BYTE   W12
 BYTE   Bn1
 BYTE   W12
 BYTE   Bn0
 BYTE   W12
 BYTE   Bn1
 BYTE   W12
 BYTE   PEND 
//  #02 //062   ----------------------------------------
Label_01007100:
 BYTE   N11  Bn0  v127
 BYTE   W12
 BYTE   Bn1
 BYTE   W12
 BYTE   Bn0
 BYTE   W12
 BYTE   Bn1
 BYTE   W12
 BYTE   Cn1
 BYTE   W12
 BYTE   Cn2
 BYTE   W12
 BYTE   Cn1
 BYTE   W12
 BYTE   Cn2
 BYTE   W12
 BYTE   PEND 
//  #02 //063   ----------------------------------------
Label_01007113:
 BYTE   N11  Cn1  v127
 BYTE   W12
 BYTE   Cn2
 BYTE   W12
 BYTE   Cn1
 BYTE   W12
 BYTE   Cn2
 BYTE   W12
 BYTE   An0
 BYTE   W12
 BYTE   Cn2
 BYTE   W12
 BYTE   An0
 BYTE   W12
 BYTE   Cn2
 BYTE   W12
 BYTE   PEND 
//  #02 //064   ----------------------------------------
Label_01007126:
 BYTE   N11  An0  v127
 BYTE   W12
 BYTE   Cn2
 BYTE   W12
 BYTE   An0
 BYTE   W12
 BYTE   Cn2
 BYTE   W12
 BYTE   En1
 BYTE   W12
 BYTE   En2
 BYTE   W12
 BYTE   En1
 BYTE   W12
 BYTE   En2
 BYTE   W12
 BYTE   PEND 
//  #02 //065   ----------------------------------------
 BYTE   PATT
  POIN2 Label_010070ED
//  #02 //066   ----------------------------------------
 BYTE   PATT
  POIN2 Label_01007100
//  #02 //067   ----------------------------------------
Label_01007143:
 BYTE   N11  Cn1  v127
 BYTE   W12
 BYTE   Cn2
 BYTE   W12
 BYTE   Cn1
 BYTE   W12
 BYTE   Cn2
 BYTE   W12
 BYTE   N05  Cn1
 BYTE   W06
 BYTE   N05
 BYTE   W06
 BYTE   Cn2
 BYTE   W06
 BYTE   N05
 BYTE   W06
 BYTE   Dn1
 BYTE   W06
 BYTE   N05
 BYTE   W06
 BYTE   Dn2
 BYTE   W06
 BYTE   N05
 BYTE   W06
 BYTE   PEND 
//  #02 //068   ----------------------------------------
 BYTE   En1
 BYTE   W06
 BYTE   N05
 BYTE   W06
 BYTE   En2
 BYTE   W06
 BYTE   N05
 BYTE   W06
 BYTE   Fs1
 BYTE   W06
 BYTE   N05
 BYTE   W06
 BYTE   Fs2
 BYTE   W06
 BYTE   N05
 BYTE   W06
 BYTE   N11  Cn1
 BYTE   W12
 BYTE   Cn2
 BYTE   W12
 BYTE   Cn1
 BYTE   W12
 BYTE   Cn2
 BYTE   W12
//  #02 //069   ----------------------------------------
 BYTE   PATT
  POIN2 Label_01006FED
//  #02 //070   ----------------------------------------
 BYTE   PATT
  POIN2 Label_01007000
//  #02 //071   ----------------------------------------
 BYTE   PATT
  POIN2 Label_01007013
//  #02 //072   ----------------------------------------
 BYTE   PATT
  POIN2 Label_01007026
//  #02 //073   ----------------------------------------
 BYTE   PATT
  POIN2 Label_01006FED
//  #02 //074   ----------------------------------------
 BYTE   PATT
  POIN2 Label_0100703E
//  #02 //075   ----------------------------------------
 BYTE   PATT
  POIN2 Label_01007051
//  #02 //076   ----------------------------------------
 BYTE   N11  Cn2  v127
 BYTE   W12
 BYTE   En2
 BYTE   W12
 BYTE   Dn2
 BYTE   W12
 BYTE   Fs2
 BYTE   W12
 BYTE   Cn1
 BYTE   W12
 BYTE   Cn2
 BYTE   W12
 BYTE   Cn1
 BYTE   W12
 BYTE   Cn2
 BYTE   W12
//  #02 //077   ----------------------------------------
 BYTE   PATT
  POIN2 Label_0100709B
//  #02 //078   ----------------------------------------
 BYTE   PATT
  POIN2 Label_0100709B
//  #02 //079   ----------------------------------------
 BYTE   PATT
  POIN2 Label_010070B3
//  #02 //080   ----------------------------------------
 BYTE   PATT
  POIN2 Label_010070C6
//  #02 //081   ----------------------------------------
 BYTE   PATT
  POIN2 Label_0100709B
//  #02 //082   ----------------------------------------
 BYTE   PATT
  POIN2 Label_0100709B
//  #02 //083   ----------------------------------------
 BYTE   PATT
  POIN2 Label_01006FED
//  #02 //084   ----------------------------------------
 BYTE   N11  Dn1  v127
 BYTE   W12
 BYTE   Dn2
 BYTE   W12
 BYTE   Dn1
 BYTE   W12
 BYTE   Dn2
 BYTE   W12
 BYTE   N60  Fs1
 BYTE   W48
//  #02 //085   ----------------------------------------
 BYTE   PATT
  POIN2 Label_01006F0B
//  #02 //086   ----------------------------------------
 BYTE   PATT
  POIN2 Label_01006F0B
//  #02 //087   ----------------------------------------
 BYTE   PATT
  POIN2 Label_01006F0B
//  #02 //088   ----------------------------------------
 BYTE   PATT
  POIN2 Label_01006F0B
//  #02 //089   ----------------------------------------
 BYTE   PATT
  POIN2 Label_01006F0B
//  #02 //090   ----------------------------------------
 BYTE   PATT
  POIN2 Label_01006F0B
//  #02 //091   ----------------------------------------
 BYTE   PATT
  POIN2 Label_01006F2E
//  #02 //092   ----------------------------------------
 BYTE   N15  An1  v127
 BYTE   W16
 BYTE   Cs2
 BYTE   W16
 BYTE   En2
 BYTE   W16
 BYTE   N20  Gn1
 BYTE   W24
 BYTE   N20
 BYTE   W24
//  #02 //093   ----------------------------------------
 BYTE   PATT
  POIN2 Label_01006F45
//  #02 //094   ----------------------------------------
 BYTE   PATT
  POIN2 Label_01006F45
//  #02 //095   ----------------------------------------
 BYTE   PATT
  POIN2 Label_01006F45
//  #02 //096   ----------------------------------------
 BYTE   PATT
  POIN2 Label_01006F5A
//  #02 //097   ----------------------------------------
 BYTE   PATT
  POIN2 Label_01006F68
//  #02 //098   ----------------------------------------
 BYTE   PATT
  POIN2 Label_01006F77
//  #02 //099   ----------------------------------------
 BYTE   PATT
  POIN2 Label_01006F86
//  #02 //100   ----------------------------------------
 BYTE   PATT
  POIN2 Label_01006F95
//  #02 //101   ----------------------------------------
 BYTE   PATT
  POIN2 Label_01006F68
//  #02 //102   ----------------------------------------
 BYTE   PATT
  POIN2 Label_01006F77
//  #02 //103   ----------------------------------------
 BYTE   PATT
  POIN2 Label_01006F86
//  #02 //104   ----------------------------------------
 BYTE   PATT
  POIN2 Label_01006F95
//  #02 //105   ----------------------------------------
 BYTE   PATT
  POIN2 Label_01006F68
//  #02 //106   ----------------------------------------
 BYTE   PATT
  POIN2 Label_01006F77
//  #02 //107   ----------------------------------------
 BYTE   PATT
  POIN2 Label_01006F86
//  #02 //108   ----------------------------------------
 BYTE   PATT
  POIN2 Label_01006F95
//  #02 //109   ----------------------------------------
 BYTE   PATT
  POIN2 Label_01006F68
//  #02 //110   ----------------------------------------
 BYTE   PATT
  POIN2 Label_01006F77
//  #02 //111   ----------------------------------------
 BYTE   PATT
  POIN2 Label_01006F86
//  #02 //112   ----------------------------------------
 BYTE   PATT
  POIN2 Label_01006FDB
//  #02 //113   ----------------------------------------
 BYTE   PATT
  POIN2 Label_01006FED
//  #02 //114   ----------------------------------------
 BYTE   PATT
  POIN2 Label_01007000
//  #02 //115   ----------------------------------------
 BYTE   PATT
  POIN2 Label_01007013
//  #02 //116   ----------------------------------------
 BYTE   PATT
  POIN2 Label_01007026
//  #02 //117   ----------------------------------------
 BYTE   PATT
  POIN2 Label_01006FED
//  #02 //118   ----------------------------------------
 BYTE   PATT
  POIN2 Label_0100703E
//  #02 //119   ----------------------------------------
 BYTE   PATT
  POIN2 Label_01007051
//  #02 //120   ----------------------------------------
 BYTE   N11  Cn2  v127
 BYTE   W12
 BYTE   En2
 BYTE   W12
 BYTE   Dn2
 BYTE   W12
 BYTE   Fs2
 BYTE   W12
 BYTE   N42  En1
 BYTE   W48
//  #02 //121   ----------------------------------------
Label_010072A1:
 BYTE   N42  Bn1  v127
 BYTE   W48
 BYTE   As1
 BYTE   W48
 BYTE   PEND 
//  #02 //122   ----------------------------------------
Label_010072A8:
 BYTE   N42  Cs2  v127
 BYTE   W48
 BYTE   En1
 BYTE   W48
 BYTE   PEND 
//  #02 //123   ----------------------------------------
 BYTE   PATT
  POIN2 Label_010072A1
//  #02 //124   ----------------------------------------
 BYTE   N42  Fs1  v127
 BYTE   W48
 BYTE   En1
 BYTE   W48
//  #02 //125   ----------------------------------------
 BYTE   PATT
  POIN2 Label_010072A1
//  #02 //126   ----------------------------------------
 BYTE   PATT
  POIN2 Label_010072A8
//  #02 //127   ----------------------------------------
 BYTE   PATT
  POIN2 Label_010072A1
//  #02 //128   ----------------------------------------
 BYTE   N42  Fs1  v127
 BYTE   W48
 BYTE   N15  En1
 BYTE   W16
 BYTE   Bn1
 BYTE   W16
 BYTE   Gn1
 BYTE   W16
//  #02 //129   ----------------------------------------
Label_010072D4:
 BYTE   N15  En1  v127
 BYTE   W16
 BYTE   Bn1
 BYTE   W16
 BYTE   Gn1
 BYTE   W16
 BYTE   En1
 BYTE   W16
 BYTE   Cs2
 BYTE   W16
 BYTE   As1
 BYTE   W16
 BYTE   PEND 
//  #02 //130   ----------------------------------------
Label_010072E3:
 BYTE   N15  En1  v127
 BYTE   W16
 BYTE   Cs2
 BYTE   W16
 BYTE   As1
 BYTE   W16
 BYTE   En1
 BYTE   W16
 BYTE   Bn1
 BYTE   W16
 BYTE   Gn1
 BYTE   W16
 BYTE   PEND 
//  #02 //131   ----------------------------------------
 BYTE   PATT
  POIN2 Label_010072D4
//  #02 //132   ----------------------------------------
 BYTE   PATT
  POIN2 Label_010072E3
//  #02 //133   ----------------------------------------
 BYTE   PATT
  POIN2 Label_010072D4
//  #02 //134   ----------------------------------------
 BYTE   PATT
  POIN2 Label_010072E3
//  #02 //135   ----------------------------------------
 BYTE   PATT
  POIN2 Label_010072D4
//  #02 //136   ----------------------------------------
 BYTE   N15  En1  v127
 BYTE   W16
 BYTE   Cs2
 BYTE   W16
 BYTE   As1
 BYTE   W16
 BYTE   N11  Dn2
 BYTE   W12
 BYTE   An1
 BYTE   W12
 BYTE   Dn2
 BYTE   W12
 BYTE   An1
 BYTE   W12
//  #02 //137   ----------------------------------------
 BYTE   Dn2
 BYTE   W12
 BYTE   An1
 BYTE   W12
 BYTE   Dn2
 BYTE   W12
 BYTE   An1
 BYTE   W12
 BYTE   Dn2
 BYTE   W12
 BYTE   An1
 BYTE   W12
 BYTE   Dn2
 BYTE   W12
 BYTE   An1
 BYTE   W12
//  #02 //138   ----------------------------------------
 BYTE   Dn2
 BYTE   W12
 BYTE   An1
 BYTE   W12
 BYTE   Dn2
 BYTE   W12
 BYTE   An1
 BYTE   W60
//  #02 //139   ----------------------------------------
 BYTE   W48
 BYTE   N15  Fs1
 BYTE   W16
 BYTE   N15
 BYTE   W16
 BYTE   En1
 BYTE   W16
//  #02 //140   ----------------------------------------
 BYTE   PATT
  POIN2 Label_01006F68
//  #02 //141   ----------------------------------------
 BYTE   PATT
  POIN2 Label_01006F77
//  #02 //142   ----------------------------------------
 BYTE   PATT
  POIN2 Label_01006F86
//  #02 //143   ----------------------------------------
 BYTE   PATT
  POIN2 Label_01006F95
//  #02 //144   ----------------------------------------
 BYTE   PATT
  POIN2 Label_01006F68
//  #02 //145   ----------------------------------------
 BYTE   PATT
  POIN2 Label_01006F77
//  #02 //146   ----------------------------------------
 BYTE   PATT
  POIN2 Label_01006F86
//  #02 //147   ----------------------------------------
 BYTE   PATT
  POIN2 Label_01006F95
//  #02 //148   ----------------------------------------
 BYTE   PATT
  POIN2 Label_01006F68
//  #02 //149   ----------------------------------------
 BYTE   PATT
  POIN2 Label_01006F77
//  #02 //150   ----------------------------------------
 BYTE   PATT
  POIN2 Label_01006F86
//  #02 //151   ----------------------------------------
 BYTE   PATT
  POIN2 Label_01006F95
//  #02 //152   ----------------------------------------
 BYTE   PATT
  POIN2 Label_01006F68
//  #02 //153   ----------------------------------------
 BYTE   PATT
  POIN2 Label_01006F77
//  #02 //154   ----------------------------------------
 BYTE   PATT
  POIN2 Label_01006F86
//  #02 //155   ----------------------------------------
 BYTE   PATT
  POIN2 Label_01006FDB
//  #02 //156   ----------------------------------------
 BYTE   PATT
  POIN2 Label_01006FED
//  #02 //157   ----------------------------------------
 BYTE   PATT
  POIN2 Label_01007000
//  #02 //158   ----------------------------------------
 BYTE   PATT
  POIN2 Label_01007013
//  #02 //159   ----------------------------------------
 BYTE   PATT
  POIN2 Label_01007026
//  #02 //160   ----------------------------------------
 BYTE   PATT
  POIN2 Label_01006FED
//  #02 //161   ----------------------------------------
 BYTE   PATT
  POIN2 Label_0100703E
//  #02 //162   ----------------------------------------
 BYTE   PATT
  POIN2 Label_01007051
//  #02 //163   ----------------------------------------
 BYTE   N11  Cn2  v127
 BYTE   W12
 BYTE   En2
 BYTE   W12
 BYTE   Dn2
 BYTE   W12
 BYTE   Fs2
 BYTE   W12
 BYTE   En1
 BYTE   W12
 BYTE   En2
 BYTE   W12
 BYTE   En1
 BYTE   W12
 BYTE   En2
 BYTE   W12
//  #02 //164   ----------------------------------------
 BYTE   PATT
  POIN2 Label_010070ED
//  #02 //165   ----------------------------------------
 BYTE   PATT
  POIN2 Label_01007100
//  #02 //166   ----------------------------------------
 BYTE   PATT
  POIN2 Label_01007113
//  #02 //167   ----------------------------------------
 BYTE   PATT
  POIN2 Label_01007126
//  #02 //168   ----------------------------------------
 BYTE   PATT
  POIN2 Label_010070ED
//  #02 //169   ----------------------------------------
 BYTE   PATT
  POIN2 Label_01007100
//  #02 //170   ----------------------------------------
 BYTE   PATT
  POIN2 Label_01007143
//  #02 //171   ----------------------------------------
 BYTE   N05  En1  v127
 BYTE   W06
 BYTE   N05
 BYTE   W06
 BYTE   En2
 BYTE   W06
 BYTE   N05
 BYTE   W06
 BYTE   Fs1
 BYTE   W06
 BYTE   N05
 BYTE   W06
 BYTE   Fs2
 BYTE   W06
 BYTE   N05
 BYTE   W54
//  #02 //172   ----------------------------------------
 BYTE   PATT
  POIN2 Label_0100709B
//  #02 //173   ----------------------------------------
Label_010073FB:
 BYTE   N11  Dn1  v127
 BYTE   W12
 BYTE   Dn2
 BYTE   W12
 BYTE   Dn1
 BYTE   W12
 BYTE   Dn2
 BYTE   W12
 BYTE   Dn1
 BYTE   W12
 BYTE   Dn2
 BYTE   W12
 BYTE   Dn1
 BYTE   W12
 BYTE   Dn2
 BYTE   W12
 BYTE   PEND 
//  #02 //174   ----------------------------------------
 BYTE   En1
 BYTE   W12
 BYTE   En2
 BYTE   W12
 BYTE   En1
 BYTE   W12
 BYTE   En2
 BYTE   W12
 BYTE   En1
 BYTE   W12
 BYTE   En2
 BYTE   W12
 BYTE   En1
 BYTE   W12
 BYTE   En2
 BYTE   W12
//  #02 //175   ----------------------------------------
 BYTE   PATT
  POIN2 Label_01007051
//  #02 //176   ----------------------------------------
 BYTE   PATT
  POIN2 Label_0100709B
//  #02 //177   ----------------------------------------
 BYTE   PATT
  POIN2 Label_010073FB
//  #02 //178   ----------------------------------------
 BYTE   PATT
  POIN2 Label_01007051
//  #02 //179   ----------------------------------------
 BYTE   N11  Bn1  v127
 BYTE   W12
 BYTE   Bn2
 BYTE   W12
 BYTE   Bn1
 BYTE   W12
 BYTE   Bn2
 BYTE   W12
 BYTE   Cn2
 BYTE   W12
 BYTE   En2
 BYTE   W12
 BYTE   Dn2
 BYTE   W12
 BYTE   Fs2
 BYTE   W12
//  #02 //180   ----------------------------------------
 BYTE   PATT
  POIN2 Label_0100709B
//  #02 //181   ----------------------------------------
 BYTE   PATT
  POIN2 Label_0100709B
//  #02 //182   ----------------------------------------
 BYTE   PATT
  POIN2 Label_0100709B
//  #02 //183   ----------------------------------------
 BYTE   N11  En1  v127
 BYTE   W12
 BYTE   En2
 BYTE   W12
 BYTE   En1
 BYTE   W12
 BYTE   En2
 BYTE   W12
 BYTE   Ds1
 BYTE   W12
 BYTE   Ds2
 BYTE   W12
 BYTE   Ds1
 BYTE   W12
 BYTE   Ds2
 BYTE   W12
//  #02 //184   ----------------------------------------
 BYTE   PATT
  POIN2 Label_0100709B
//  #02 //185   ----------------------------------------
 BYTE   PATT
  POIN2 Label_0100709B
//  #02 //186   ----------------------------------------
 BYTE   PATT
  POIN2 Label_0100709B
//  #02 //187   ----------------------------------------
 BYTE   PATT
  POIN2 Label_010073FB
//  #02 //188   ----------------------------------------
Label_01007479:
 BYTE   N60  Fs1  v127
 BYTE   W64
 BYTE   N15  Fs2
 BYTE   W16
 BYTE   Fs1
 BYTE   W16
 BYTE   PEND 
//  #02 //189   ----------------------------------------
 BYTE   PATT
  POIN2 Label_01007479
//  #02 //190   ----------------------------------------
 BYTE   PATT
  POIN2 Label_01007479
//  #02 //191   ----------------------------------------
 BYTE   PATT
  POIN2 Label_01007479
//  #02 //192   ----------------------------------------
 BYTE   PATT
  POIN2 Label_01007479
//  #02 //193   ----------------------------------------
 BYTE   PATT
  POIN2 Label_01007479
//  #02 //194   ----------------------------------------
 BYTE   PATT
  POIN2 Label_01007479
//  #02 //195   ----------------------------------------
 BYTE   PATT
  POIN2 Label_01007479
//  #02 //196   ----------------------------------------
 BYTE   PATT
  POIN2 Label_01007479
//  #02 //197   ----------------------------------------
 BYTE   PATT
  POIN2 Label_01007479
//  #02 //198   ----------------------------------------
 BYTE   PATT
  POIN2 Label_01007479
//  #02 //199   ----------------------------------------
 BYTE   PATT
  POIN2 Label_01007479
//  #02 //200   ----------------------------------------
 BYTE   PATT
  POIN2 Label_01007479
//  #02 //201   ----------------------------------------
 BYTE   PATT
  POIN2 Label_01007479
//  #02 //202   ----------------------------------------
 BYTE   PATT
  POIN2 Label_01007479
//  #02 //203   ----------------------------------------
 BYTE   N42  Fs1  v127
 BYTE   W48
 BYTE   N15  An1
 BYTE   W16
 BYTE   Cs2
 BYTE   W16
 BYTE   En2
 BYTE   W16
//  #02 //204   ----------------------------------------
 BYTE   GoTo
  POIN2 Label_01006F3F
//  #02 //205   ----------------------------------------
 BYTE   PATT
  POIN2 Label_01006F45
//  #02 //206   ----------------------------------------
 BYTE   PATT
  POIN2 Label_01006F45
//  #02 //207   ----------------------------------------
 BYTE   PATT
  POIN2 Label_01006F45
//  #02 //208   ----------------------------------------
 BYTE   PATT
  POIN2 Label_01006F45
//  #02 //209   ----------------------------------------
 BYTE   W96
//  #02 //210   ----------------------------------------
 BYTE   W96
//  #02 //211   ----------------------------------------
 BYTE   W48
 BYTE   N90  Fs1  v127
 BYTE   W48
//  #02 //212   ----------------------------------------
 BYTE   W48
 BYTE   N90
 BYTE   W48
//  #02 //213   ----------------------------------------
 BYTE   W48
 BYTE   TIE
 BYTE   W48
//  #02 //214   ----------------------------------------
 BYTE   W96
//  #02 //215   ----------------------------------------
 BYTE   W42
 BYTE   EOT
 BYTE   W48
 BYTE   W02
 BYTE   FINE

//**************** Track 3 (Midi-Chn.2) ****************//

DelusionalExtremities_003:
//  #03 //000   ----------------------------------------
 BYTE   KEYSH   DelusionalExtremities_key+0
 BYTE   VOICE   4
 BYTE   VOL   40*DelusionalExtremities_mvl/mxv
 BYTE   PAN   c_v+0
 BYTE   W96
//  #03 //001   ----------------------------------------
 BYTE   W96
//  #03 //002   ----------------------------------------
 BYTE   W96
//  #03 //003   ----------------------------------------
 BYTE   W96
//  #03 //004   ----------------------------------------
 BYTE   W96
//  #03 //005   ----------------------------------------
 BYTE   W96
//  #03 //006   ----------------------------------------
 BYTE   W96
//  #03 //007   ----------------------------------------
 BYTE   W96
//  #03 //008   ----------------------------------------
 BYTE   W48
 BYTE   N64  En4  v127
 BYTE   W48
//  #03 //009   ----------------------------------------
Label_010079D1:
 BYTE   W16
 BYTE   N16  Fs4  v127
 BYTE   W16
 BYTE   En4
 BYTE   W16
 BYTE   N48  Ds4
 BYTE   W48
 BYTE   PEND 
//  #03 //010   ----------------------------------------
Label_010079DC:
 BYTE   N36  Bn3  v127
 BYTE   W36
 BYTE   N12  Cs4
 BYTE   W12
 BYTE   N64  Dn4
 BYTE   W48
 BYTE   PEND 
//  #03 //011   ----------------------------------------
Label_010079E7:
 BYTE   W16
 BYTE   N16  En4  v127
 BYTE   W16
 BYTE   Dn4
 BYTE   W16
 BYTE   N48  Cs4
 BYTE   W48
 BYTE   PEND 
//  #03 //012   ----------------------------------------
Label_010079F2:
 BYTE   N42  Fs3  v127
 BYTE   W48
 BYTE   N64  En4
 BYTE   W48
 BYTE   PEND 
//  #03 //013   ----------------------------------------
 BYTE   PATT
  POIN2 Label_010079D1
//  #03 //014   ----------------------------------------
 BYTE   PATT
  POIN2 Label_010079DC
//  #03 //015   ----------------------------------------
 BYTE   PATT
  POIN2 Label_010079E7
//  #03 //016   ----------------------------------------
 BYTE   N16  An3  v127
 BYTE   W16
 BYTE   En4
 BYTE   W16
 BYTE   An4
 BYTE   W16
Label_01007A11:
 BYTE   TIE  Gn4  v127
 BYTE   W48
//  #03 //017   ----------------------------------------
 BYTE   W96
//  #03 //018   ----------------------------------------
 BYTE   W96
//  #03 //019   ----------------------------------------
 BYTE   W96
//  #03 //020   ----------------------------------------
 BYTE   W42
 BYTE   EOT
 BYTE   W06
 BYTE   N16  Gs3
 BYTE   W16
 BYTE   An3
 BYTE   W16
 BYTE   N64  En3
 BYTE   W16
//  #03 //021   ----------------------------------------
Label_01007A23:
 BYTE   W48
 BYTE   N16  Ds3  v127
 BYTE   W16
 BYTE   En3
 BYTE   W16
 BYTE   Fs3
 BYTE   W16
 BYTE   PEND 
//  #03 //022   ----------------------------------------
Label_01007A2D:
 BYTE   N16  En3  v127
 BYTE   W16
 BYTE   Ds3
 BYTE   W16
 BYTE   Cn3
 BYTE   W16
 BYTE   N72  Bn2
 BYTE   W48
 BYTE   PEND 
//  #03 //023   ----------------------------------------
Label_01007A39:
 BYTE   W24
 BYTE   N12  An2  v127
 BYTE   W12
 BYTE   Bn2
 BYTE   W12
 BYTE   N16  Ds3
 BYTE   W16
 BYTE   En3
 BYTE   W16
 BYTE   N64  Fs3
 BYTE   W16
 BYTE   PEND 
//  #03 //024   ----------------------------------------
Label_01007A49:
 BYTE   W48
 BYTE   N16  Gs3  v127
 BYTE   W16
 BYTE   An3
 BYTE   W16
 BYTE   N64  En3
 BYTE   W16
 BYTE   PEND 
//  #03 //025   ----------------------------------------
Label_01007A54:
 BYTE   W48
 BYTE   N16  Fs3  v127
 BYTE   W16
 BYTE   En3
 BYTE   W16
 BYTE   Ds3
 BYTE   W16
 BYTE   PEND 
//  #03 //026   ----------------------------------------
Label_01007A5E:
 BYTE   N16  Cn3  v127
 BYTE   W16
 BYTE   Bn2
 BYTE   W16
 BYTE   An2
 BYTE   W16
 BYTE   Gn2
 BYTE   W16
 BYTE   An2
 BYTE   W16
 BYTE   N64  Bn2
 BYTE   W16
 BYTE   PEND 
//  #03 //027   ----------------------------------------
Label_01007A6E:
 BYTE   W48
 BYTE   N16  Ds3  v127
 BYTE   W16
 BYTE   En3
 BYTE   W16
 BYTE   N40  Fs3
 BYTE   W16
 BYTE   PEND 
//  #03 //028   ----------------------------------------
Label_01007A79:
 BYTE   W24
 BYTE   N06  An3  v127
 BYTE   W06
 BYTE   Ds4
 BYTE   W06
 BYTE   Fs4
 BYTE   W06
 BYTE   An4
 BYTE   W06
 BYTE   N16  Gs4
 BYTE   W16
 BYTE   An4
 BYTE   W16
 BYTE   N64  En4
 BYTE   W16
 BYTE   PEND 
//  #03 //029   ----------------------------------------
Label_01007A8D:
 BYTE   W48
 BYTE   N16  Ds4  v127
 BYTE   W16
 BYTE   En4
 BYTE   W16
 BYTE   Fs4
 BYTE   W16
 BYTE   PEND 
//  #03 //030   ----------------------------------------
Label_01007A97:
 BYTE   N16  En4  v127
 BYTE   W16
 BYTE   Ds4
 BYTE   W16
 BYTE   Cn4
 BYTE   W16
 BYTE   N72  Bn3
 BYTE   W48
 BYTE   PEND 
//  #03 //031   ----------------------------------------
Label_01007AA3:
 BYTE   W24
 BYTE   N12  An3  v127
 BYTE   W12
 BYTE   Bn3
 BYTE   W12
 BYTE   N16  Ds4
 BYTE   W16
 BYTE   En4
 BYTE   W16
 BYTE   N64  Fs4
 BYTE   W16
 BYTE   PEND 
//  #03 //032   ----------------------------------------
Label_01007AB3:
 BYTE   W48
 BYTE   N16  Gs4  v127
 BYTE   W16
 BYTE   An4
 BYTE   W16
 BYTE   N64  En4
 BYTE   W16
 BYTE   PEND 
//  #03 //033   ----------------------------------------
Label_01007ABE:
 BYTE   W48
 BYTE   N16  Fs4  v127
 BYTE   W16
 BYTE   En4
 BYTE   W16
 BYTE   Ds4
 BYTE   W16
 BYTE   PEND 
//  #03 //034   ----------------------------------------
Label_01007AC8:
 BYTE   N16  Cn4  v127
 BYTE   W16
 BYTE   Bn3
 BYTE   W16
 BYTE   An3
 BYTE   W16
 BYTE   Gn3
 BYTE   W16
 BYTE   An3
 BYTE   W16
 BYTE   N64  Bn3
 BYTE   W16
 BYTE   PEND 
//  #03 //035   ----------------------------------------
Label_01007AD8:
 BYTE   W48
 BYTE   N16  Ds4  v127
 BYTE   W16
 BYTE   En4
 BYTE   W16
 BYTE   N56  Fs4
 BYTE   W16
 BYTE   PEND 
//  #03 //036   ----------------------------------------
Label_01007AE3:
 BYTE   W48
 BYTE   N04  En4  v127
 BYTE   W12
 BYTE   Dn4
 BYTE   W12
 BYTE   En4
 BYTE   W12
 BYTE   Dn4
 BYTE   W12
 BYTE   PEND 
//  #03 //037   ----------------------------------------
Label_01007AEF:
 BYTE   N04  En4  v127
 BYTE   W06
 BYTE   N04
 BYTE   W12
 BYTE   Dn4
 BYTE   W06
 BYTE   En4
 BYTE   W12
 BYTE   Gn4
 BYTE   W12
 BYTE   N15  Fs4
 BYTE   W16
 BYTE   Gn4
 BYTE   W16
 BYTE   An4
 BYTE   W16
 BYTE   PEND 
//  #03 //038   ----------------------------------------
Label_01007B03:
 BYTE   N05  Gn4  v127
 BYTE   W06
 BYTE   Fs4
 BYTE   W06
 BYTE   Dn4
 BYTE   W06
 BYTE   Cn4
 BYTE   W06
 BYTE   Dn4
 BYTE   W06
 BYTE   Cn4
 BYTE   W06
 BYTE   Bn3
 BYTE   W06
 BYTE   An3
 BYTE   W06
 BYTE   N04  Bn3
 BYTE   W12
 BYTE   An3
 BYTE   W12
 BYTE   Bn3
 BYTE   W12
 BYTE   An3
 BYTE   W12
 BYTE   PEND 
//  #03 //039   ----------------------------------------
Label_01007B1F:
 BYTE   N04  Bn3  v127
 BYTE   W06
 BYTE   N04
 BYTE   W12
 BYTE   N04
 BYTE   W06
 BYTE   An3
 BYTE   W12
 BYTE   Bn3
 BYTE   W12
 BYTE   N32  Cn4
 BYTE   W36
 BYTE   N56  Bn3
 BYTE   W12
 BYTE   PEND 
//  #03 //040   ----------------------------------------
 BYTE   PATT
  POIN2 Label_01007AE3
//  #03 //041   ----------------------------------------
Label_01007B37:
 BYTE   N04  En4  v127
 BYTE   W06
 BYTE   N04
 BYTE   W12
 BYTE   N05  Dn4
 BYTE   W06
 BYTE   N04  En4
 BYTE   W12
 BYTE   Dn4
 BYTE   W12
 BYTE   En4
 BYTE   W12
 BYTE   Dn4
 BYTE   W12
 BYTE   En4
 BYTE   W12
 BYTE   Dn4
 BYTE   W12
 BYTE   PEND 
//  #03 //042   ----------------------------------------
Label_01007B4E:
 BYTE   N04  En4  v127
 BYTE   W06
 BYTE   N04
 BYTE   W12
 BYTE   N05  Dn4
 BYTE   W06
 BYTE   N04  En4
 BYTE   W12
 BYTE   Gn4
 BYTE   W12
 BYTE   N05  Fs4
 BYTE   W06
 BYTE   Gn4
 BYTE   W06
 BYTE   Bn4
 BYTE   W06
 BYTE   An4
 BYTE   W06
 BYTE   Gn4
 BYTE   W06
 BYTE   Fs4
 BYTE   W06
 BYTE   En4
 BYTE   W06
 BYTE   Ds4
 BYTE   W06
 BYTE   PEND 
//  #03 //043   ----------------------------------------
Label_01007B6E:
 BYTE   N05  Bn3  v127
 BYTE   W06
 BYTE   Cn4
 BYTE   W06
 BYTE   Ds4
 BYTE   W06
 BYTE   En4
 BYTE   W06
 BYTE   Fs4
 BYTE   W06
 BYTE   En4
 BYTE   W06
 BYTE   Ds4
 BYTE   W06
 BYTE   Cn4
 BYTE   W06
 BYTE   N42  Bn3
 BYTE   W48
 BYTE   PEND 
//  #03 //044   ----------------------------------------
 BYTE   N20  Cn4
 BYTE   W24
 BYTE   Dn4
 BYTE   W24
 BYTE   N16  Gs4
 BYTE   W16
 BYTE   An4
 BYTE   W16
 BYTE   N64  En4
 BYTE   W16
//  #03 //045   ----------------------------------------
 BYTE   PATT
  POIN2 Label_01007A8D
//  #03 //046   ----------------------------------------
 BYTE   PATT
  POIN2 Label_01007A97
//  #03 //047   ----------------------------------------
 BYTE   PATT
  POIN2 Label_01007AA3
//  #03 //048   ----------------------------------------
 BYTE   PATT
  POIN2 Label_01007AB3
//  #03 //049   ----------------------------------------
 BYTE   PATT
  POIN2 Label_01007ABE
//  #03 //050   ----------------------------------------
 BYTE   PATT
  POIN2 Label_01007AC8
//  #03 //051   ----------------------------------------
 BYTE   PATT
  POIN2 Label_01007AD8
//  #03 //052   ----------------------------------------
 BYTE   W96
//  #03 //053   ----------------------------------------
 BYTE   W96
//  #03 //054   ----------------------------------------
 BYTE   W96
//  #03 //055   ----------------------------------------
 BYTE   W48
 BYTE   N48  En4  v127
 BYTE   W48
//  #03 //056   ----------------------------------------
 BYTE   Ds4
 BYTE   W48
 BYTE   Cn4
 BYTE   W48
//  #03 //057   ----------------------------------------
 BYTE   Bn3
 BYTE   W48
 BYTE   An3
 BYTE   W48
//  #03 //058   ----------------------------------------
 BYTE   Gn3
 BYTE   W48
 BYTE   An3
 BYTE   W48
//  #03 //059   ----------------------------------------
 BYTE   Cn4
 BYTE   W48
 BYTE   N90  Dn4
 BYTE   W48
//  #03 //060   ----------------------------------------
 BYTE   W48
 BYTE   N05  En3
 BYTE   W06
 BYTE   Fs3
 BYTE   W06
 BYTE   N11  Gn3
 BYTE   W24
 BYTE   N05  An3
 BYTE   W06
 BYTE   Bn3
 BYTE   W06
//  #03 //061   ----------------------------------------
Label_01007BDB:
 BYTE   N11  Cn4  v127
 BYTE   W24
 BYTE   N05  Dn4
 BYTE   W06
 BYTE   En4
 BYTE   W06
 BYTE   Fs4
 BYTE   W06
 BYTE   Gn4
 BYTE   W06
 BYTE   N16  Fs4
 BYTE   W16
 BYTE   Bn3
 BYTE   W16
 BYTE   Ds4
 BYTE   W16
 BYTE   PEND 
//  #03 //062   ----------------------------------------
Label_01007BF0:
 BYTE   N16  An4  v127
 BYTE   W16
 BYTE   Gn4
 BYTE   W16
 BYTE   Fs4
 BYTE   W16
 BYTE   En4
 BYTE   W16
 BYTE   Dn4
 BYTE   W16
 BYTE   Cn4
 BYTE   W16
 BYTE   PEND 
//  #03 //063   ----------------------------------------
Label_01007BFF:
 BYTE   N16  Bn3  v127
 BYTE   W16
 BYTE   An3
 BYTE   W16
 BYTE   Gn3
 BYTE   W16
 BYTE   N05  Cn4
 BYTE   W06
 BYTE   Bn3
 BYTE   W06
 BYTE   An3
 BYTE   W06
 BYTE   Bn3
 BYTE   W06
 BYTE   Ds4
 BYTE   W06
 BYTE   Cn4
 BYTE   W06
 BYTE   Bn3
 BYTE   W06
 BYTE   Ds4
 BYTE   W06
 BYTE   PEND 
//  #03 //064   ----------------------------------------
Label_01007C19:
 BYTE   N05  Fs4  v127
 BYTE   W06
 BYTE   En4
 BYTE   W06
 BYTE   Ds4
 BYTE   W06
 BYTE   Fs4
 BYTE   W06
 BYTE   An4
 BYTE   W06
 BYTE   Gn4
 BYTE   W06
 BYTE   Fs4
 BYTE   W06
 BYTE   An4
 BYTE   W06
 BYTE   En3
 BYTE   W06
 BYTE   Fs3
 BYTE   W06
 BYTE   N11  Gn3
 BYTE   W24
 BYTE   N05  An3
 BYTE   W06
 BYTE   Bn3
 BYTE   W06
 BYTE   PEND 
//  #03 //065   ----------------------------------------
 BYTE   PATT
  POIN2 Label_01007BDB
//  #03 //066   ----------------------------------------
 BYTE   PATT
  POIN2 Label_01007BF0
//  #03 //067   ----------------------------------------
Label_01007C42:
 BYTE   N16  Bn3  v127
 BYTE   W16
 BYTE   An3
 BYTE   W16
 BYTE   Gn3
 BYTE   W16
 BYTE   N05  Ds4
 BYTE   W06
 BYTE   Cn4
 BYTE   W06
 BYTE   An3
 BYTE   W06
 BYTE   Fs4
 BYTE   W06
 BYTE   En4
 BYTE   W06
 BYTE   Dn4
 BYTE   W06
 BYTE   Bn3
 BYTE   W06
 BYTE   Gn4
 BYTE   W06
 BYTE   PEND 
//  #03 //068   ----------------------------------------
 BYTE   Fs4
 BYTE   W06
 BYTE   En4
 BYTE   W06
 BYTE   Cn4
 BYTE   W06
 BYTE   An4
 BYTE   W06
 BYTE   Gn4
 BYTE   W06
 BYTE   Fs4
 BYTE   W06
 BYTE   Ds4
 BYTE   W06
 BYTE   Bn4
 BYTE   W06
 BYTE   N04  En4
 BYTE   W12
 BYTE   Dn4
 BYTE   W12
 BYTE   En4
 BYTE   W12
 BYTE   Dn4
 BYTE   W12
//  #03 //069   ----------------------------------------
 BYTE   PATT
  POIN2 Label_01007AEF
//  #03 //070   ----------------------------------------
 BYTE   PATT
  POIN2 Label_01007B03
//  #03 //071   ----------------------------------------
 BYTE   PATT
  POIN2 Label_01007B1F
//  #03 //072   ----------------------------------------
 BYTE   PATT
  POIN2 Label_01007AE3
//  #03 //073   ----------------------------------------
 BYTE   PATT
  POIN2 Label_01007B37
//  #03 //074   ----------------------------------------
 BYTE   PATT
  POIN2 Label_01007B4E
//  #03 //075   ----------------------------------------
 BYTE   PATT
  POIN2 Label_01007B6E
//  #03 //076   ----------------------------------------
 BYTE   N20  Cn4  v127
 BYTE   W24
 BYTE   Dn4
 BYTE   W72
//  #03 //077   ----------------------------------------
 BYTE   W96
//  #03 //078   ----------------------------------------
 BYTE   W96
//  #03 //079   ----------------------------------------
 BYTE   W48
 BYTE   N48  En3
 BYTE   W48
//  #03 //080   ----------------------------------------
 BYTE   Ds3
 BYTE   W48
 BYTE   Cn3
 BYTE   W48
//  #03 //081   ----------------------------------------
 BYTE   Bn2
 BYTE   W48
 BYTE   An2
 BYTE   W48
//  #03 //082   ----------------------------------------
 BYTE   Gn2
 BYTE   W48
 BYTE   An2
 BYTE   W48
//  #03 //083   ----------------------------------------
 BYTE   Cn3
 BYTE   W48
 BYTE   N90  Dn3
 BYTE   W48
//  #03 //084   ----------------------------------------
 BYTE   W48
 BYTE   N64  En4
 BYTE   W48
//  #03 //085   ----------------------------------------
 BYTE   PATT
  POIN2 Label_010079D1
//  #03 //086   ----------------------------------------
 BYTE   PATT
  POIN2 Label_010079DC
//  #03 //087   ----------------------------------------
 BYTE   PATT
  POIN2 Label_010079E7
//  #03 //088   ----------------------------------------
 BYTE   PATT
  POIN2 Label_010079F2
//  #03 //089   ----------------------------------------
 BYTE   PATT
  POIN2 Label_010079D1
//  #03 //090   ----------------------------------------
 BYTE   PATT
  POIN2 Label_010079DC
//  #03 //091   ----------------------------------------
 BYTE   PATT
  POIN2 Label_010079E7
//  #03 //092   ----------------------------------------
 BYTE   N16  An3  v127
 BYTE   W16
 BYTE   En4
 BYTE   W16
 BYTE   An4
 BYTE   W16
 BYTE   TIE  Gn4
 BYTE   W48
//  #03 //093   ----------------------------------------
 BYTE   W96
//  #03 //094   ----------------------------------------
 BYTE   W96
//  #03 //095   ----------------------------------------
 BYTE   W96
//  #03 //096   ----------------------------------------
 BYTE   W42
 BYTE   EOT
 BYTE   W54
//  #03 //097   ----------------------------------------
 BYTE   W96
//  #03 //098   ----------------------------------------
 BYTE   W96
//  #03 //099   ----------------------------------------
 BYTE   W96
//  #03 //100   ----------------------------------------
 BYTE   W96
//  #03 //101   ----------------------------------------
 BYTE   W96
//  #03 //102   ----------------------------------------
 BYTE   W96
//  #03 //103   ----------------------------------------
 BYTE   W96
//  #03 //104   ----------------------------------------
 BYTE   W48
 BYTE   PAN   c_v+32
 BYTE   N11  Cs3  v092
 BYTE   N11  En3
 BYTE   W12
 BYTE   N04  An2
 BYTE   N04  Cs3
 BYTE   W06
 BYTE   An2
 BYTE   N04  Cs3
 BYTE   W06
 BYTE   N11
 BYTE   N11  En3
 BYTE   W12
 BYTE   N04  An2
 BYTE   N04  Cs3
 BYTE   W06
 BYTE   An2
 BYTE   N04  Cs3
 BYTE   W06
//  #03 //105   ----------------------------------------
Label_01007D13:
 BYTE   N11  Cs3  v092
 BYTE   N11  En3
 BYTE   W12
 BYTE   N04  An2
 BYTE   N04  Cs3
 BYTE   W06
 BYTE   An2
 BYTE   N04  Cs3
 BYTE   W06
 BYTE   N11
 BYTE   N11  En3
 BYTE   W12
 BYTE   N04  An2
 BYTE   N04  Cs3
 BYTE   W06
 BYTE   An2
 BYTE   N04  Cs3
 BYTE   W06
 BYTE   N11  Ds3
 BYTE   N11  Fs3
 BYTE   W12
 BYTE   N04  Bn2
 BYTE   N04  Ds3
 BYTE   W06
 BYTE   Bn2
 BYTE   N04  Ds3
 BYTE   W06
 BYTE   N11
 BYTE   N11  Fs3
 BYTE   W12
 BYTE   N04  Bn2
 BYTE   N04  Ds3
 BYTE   W06
 BYTE   Bn2
 BYTE   N04  Ds3
 BYTE   W06
 BYTE   PEND 
//  #03 //106   ----------------------------------------
Label_01007D4B:
 BYTE   N11  Ds3  v092
 BYTE   N11  Fs3
 BYTE   W12
 BYTE   N04  Bn2
 BYTE   N04  Ds3
 BYTE   W06
 BYTE   Bn2
 BYTE   N04  Ds3
 BYTE   W06
 BYTE   N11
 BYTE   N11  Fs3
 BYTE   W12
 BYTE   N04  Bn2
 BYTE   N04  Ds3
 BYTE   W06
 BYTE   Bn2
 BYTE   N04  Ds3
 BYTE   W06
 BYTE   N11  En3
 BYTE   N11  Gn3
 BYTE   W12
 BYTE   N04  Bn2
 BYTE   N04  En3
 BYTE   W06
 BYTE   Bn2
 BYTE   N04  En3
 BYTE   W06
 BYTE   N11
 BYTE   N11  Gn3
 BYTE   W12
 BYTE   N04  Bn2
 BYTE   N04  En3
 BYTE   W06
 BYTE   Bn2
 BYTE   N04  En3
 BYTE   W06
 BYTE   PEND 
//  #03 //107   ----------------------------------------
Label_01007D83:
 BYTE   N11  En3  v092
 BYTE   N11  Gn3
 BYTE   W12
 BYTE   N04  Bn2
 BYTE   N04  En3
 BYTE   W06
 BYTE   Bn2
 BYTE   N04  En3
 BYTE   W06
 BYTE   N11
 BYTE   N11  Gn3
 BYTE   W12
 BYTE   N04  Bn2
 BYTE   N04  En3
 BYTE   W06
 BYTE   Bn2
 BYTE   N04  En3
 BYTE   W06
 BYTE   N11  Ds3
 BYTE   N11  Fs3
 BYTE   W12
 BYTE   N04  Bn2
 BYTE   N04  Ds3
 BYTE   W06
 BYTE   Bn2
 BYTE   N04  Ds3
 BYTE   W06
 BYTE   N11
 BYTE   N11  Fs3
 BYTE   W12
 BYTE   N04  Bn2
 BYTE   N04  Ds3
 BYTE   W06
 BYTE   Bn2
 BYTE   N04  Ds3
 BYTE   W06
 BYTE   PEND 
//  #03 //108   ----------------------------------------
 BYTE   N11
 BYTE   N11  Fs3
 BYTE   W12
 BYTE   N04  Bn2
 BYTE   N04  Ds3
 BYTE   W06
 BYTE   Bn2
 BYTE   N04  Ds3
 BYTE   W06
 BYTE   N11
 BYTE   N11  Fs3
 BYTE   W12
 BYTE   N04  Bn2
 BYTE   N04  Ds3
 BYTE   W06
 BYTE   Bn2
 BYTE   N04  Ds3
 BYTE   W06
 BYTE   N11  Cs3
 BYTE   N11  En3
 BYTE   W12
 BYTE   N04  An2
 BYTE   N04  Cs3
 BYTE   W06
 BYTE   An2
 BYTE   N04  Cs3
 BYTE   W06
 BYTE   N11
 BYTE   N11  En3
 BYTE   W12
 BYTE   N04  An2
 BYTE   N04  Cs3
 BYTE   W06
 BYTE   An2
 BYTE   N04  Cs3
 BYTE   W06
//  #03 //109   ----------------------------------------
 BYTE   PATT
  POIN2 Label_01007D13
//  #03 //110   ----------------------------------------
 BYTE   PATT
  POIN2 Label_01007D4B
//  #03 //111   ----------------------------------------
 BYTE   PATT
  POIN2 Label_01007D83
//  #03 //112   ----------------------------------------
 BYTE   N11  Ds3  v092
 BYTE   N11  Fs3
 BYTE   W12
 BYTE   N04  Bn2
 BYTE   N04  Ds3
 BYTE   W06
 BYTE   Bn2
 BYTE   N04  Ds3
 BYTE   W06
 BYTE   N11
 BYTE   N11  Fs3
 BYTE   W12
 BYTE   N04  Bn2
 BYTE   N04  Ds3
 BYTE   W06
 BYTE   Bn2
 BYTE   N04  Ds3
 BYTE   W06
 BYTE   PAN   c_v+0
 BYTE   N06  Gn4  v127
 BYTE   W06
 BYTE   Fs4
 BYTE   W06
 BYTE   En4
 BYTE   W06
 BYTE   Dn4
 BYTE   W06
 BYTE   Cn4
 BYTE   W06
 BYTE   Bn3
 BYTE   W06
 BYTE   An3
 BYTE   W06
 BYTE   Gn3
 BYTE   W06
//  #03 //113   ----------------------------------------
 BYTE   N16  En4
 BYTE   W16
 BYTE   Fs4
 BYTE   W16
 BYTE   Gn4
 BYTE   W16
 BYTE   Fs4
 BYTE   W16
 BYTE   En4
 BYTE   W16
 BYTE   Fs4
 BYTE   W16
//  #03 //114   ----------------------------------------
 BYTE   N20  Dn4
 BYTE   W24
 BYTE   N05
 BYTE   W06
 BYTE   En4
 BYTE   W06
 BYTE   Fs4
 BYTE   W06
 BYTE   An4
 BYTE   W06
 BYTE   Bn4
 BYTE   W06
 BYTE   An4
 BYTE   W06
 BYTE   Gn4
 BYTE   W06
 BYTE   Bn4
 BYTE   W06
 BYTE   Cn5
 BYTE   W06
 BYTE   Bn4
 BYTE   W06
 BYTE   An4
 BYTE   W06
 BYTE   Cn5
 BYTE   W06
//  #03 //115   ----------------------------------------
 BYTE   Bn4
 BYTE   W06
 BYTE   An4
 BYTE   W06
 BYTE   Gn4
 BYTE   W06
 BYTE   Fs4
 BYTE   W06
 BYTE   En4
 BYTE   W06
 BYTE   Dn4
 BYTE   W06
 BYTE   Cn4
 BYTE   W06
 BYTE   Bn3
 BYTE   W06
 BYTE   N04  Ds4
 BYTE   W06
 BYTE   Bn3
 BYTE   W06
 BYTE   N04
 BYTE   W06
 BYTE   Ds4
 BYTE   W06
 BYTE   Fs4
 BYTE   W06
 BYTE   Ds4
 BYTE   W06
 BYTE   N04
 BYTE   W06
 BYTE   Fs4
 BYTE   W06
//  #03 //116   ----------------------------------------
 BYTE   Bn4
 BYTE   W06
 BYTE   Fs4
 BYTE   W06
 BYTE   N04
 BYTE   W06
 BYTE   Bn4
 BYTE   W06
 BYTE   N05  An4
 BYTE   W06
 BYTE   Gn4
 BYTE   W06
 BYTE   Fs4
 BYTE   W06
 BYTE   Ds4
 BYTE   W06
 BYTE   N15  En4
 BYTE   W16
 BYTE   Cn4
 BYTE   W16
 BYTE   En4
 BYTE   W16
//  #03 //117   ----------------------------------------
 BYTE   Gn4
 BYTE   W16
 BYTE   Fs4
 BYTE   W16
 BYTE   Gn4
 BYTE   W16
 BYTE   N05  Fs4
 BYTE   W06
 BYTE   En4
 BYTE   W06
 BYTE   Dn4
 BYTE   W06
 BYTE   Fs4
 BYTE   W06
 BYTE   An4
 BYTE   W06
 BYTE   Gn4
 BYTE   W06
 BYTE   Fs4
 BYTE   W06
 BYTE   En4
 BYTE   W06
//  #03 //118   ----------------------------------------
 BYTE   Dn4
 BYTE   W06
 BYTE   Cn4
 BYTE   W06
 BYTE   Bn3
 BYTE   W06
 BYTE   An3
 BYTE   W06
 BYTE   Bn3
 BYTE   W06
 BYTE   Cn4
 BYTE   W06
 BYTE   Dn4
 BYTE   W06
 BYTE   Fs4
 BYTE   W06
 BYTE   N20  Bn4
 BYTE   W24
 BYTE   N05
 BYTE   W06
 BYTE   An4
 BYTE   W06
 BYTE   Gn4
 BYTE   W06
 BYTE   Bn4
 BYTE   W06
//  #03 //119   ----------------------------------------
 BYTE   An4
 BYTE   W06
 BYTE   Gn4
 BYTE   W06
 BYTE   Fs4
 BYTE   W06
 BYTE   En4
 BYTE   W06
 BYTE   Ds4
 BYTE   W06
 BYTE   Cn4
 BYTE   W06
 BYTE   Bn3
 BYTE   W06
 BYTE   Ds4
 BYTE   W06
 BYTE   Fs4
 BYTE   W06
 BYTE   En4
 BYTE   W06
 BYTE   Ds4
 BYTE   W06
 BYTE   En4
 BYTE   W06
 BYTE   Fs4
 BYTE   W06
 BYTE   Gn4
 BYTE   W06
 BYTE   An4
 BYTE   W06
 BYTE   Fs4
 BYTE   W06
//  #03 //120   ----------------------------------------
 BYTE   En4
 BYTE   W06
 BYTE   Ds4
 BYTE   W06
 BYTE   Cn4
 BYTE   W06
 BYTE   Gn3
 BYTE   W06
 BYTE   Fs3
 BYTE   W06
 BYTE   Gn3
 BYTE   W06
 BYTE   An3
 BYTE   W06
 BYTE   Fs3
 BYTE   W06
 BYTE   N48  En3
 BYTE   W48
//  #03 //121   ----------------------------------------
 BYTE   Bn3
 BYTE   W48
 BYTE   As3
 BYTE   W48
//  #03 //122   ----------------------------------------
 BYTE   N16  Cs4
 BYTE   W16
 BYTE   Dn4
 BYTE   W16
 BYTE   En4
 BYTE   W16
 BYTE   Gn4
 BYTE   W16
 BYTE   Fs4
 BYTE   W16
 BYTE   Gn4
 BYTE   W16
//  #03 //123   ----------------------------------------
 BYTE   En4
 BYTE   W16
 BYTE   Cn4
 BYTE   W16
 BYTE   Bn3
 BYTE   W16
 BYTE   As3
 BYTE   W16
 BYTE   Gn3
 BYTE   W16
 BYTE   Fs3
 BYTE   W16
//  #03 //124   ----------------------------------------
 BYTE   N48  As3
 BYTE   W48
 BYTE   N16  En4
 BYTE   W16
 BYTE   Dn4
 BYTE   W16
 BYTE   En4
 BYTE   W16
//  #03 //125   ----------------------------------------
 BYTE   Bn3
 BYTE   W16
 BYTE   An3
 BYTE   W16
 BYTE   Bn3
 BYTE   W16
 BYTE   Cs4
 BYTE   W16
 BYTE   As3
 BYTE   W16
 BYTE   Cs4
 BYTE   W16
//  #03 //126   ----------------------------------------
 BYTE   En4
 BYTE   W16
 BYTE   Fs4
 BYTE   W16
 BYTE   Gn4
 BYTE   W16
 BYTE   N48  Bn4
 BYTE   W48
//  #03 //127   ----------------------------------------
 BYTE   N16
 BYTE   W16
 BYTE   An4
 BYTE   W16
 BYTE   Gn4
 BYTE   W16
 BYTE   N66  En4
 BYTE   W48
//  #03 //128   ----------------------------------------
 BYTE   W24
 BYTE   N05
 BYTE   W06
 BYTE   Fs4
 BYTE   W06
 BYTE   Gn4
 BYTE   W06
 BYTE   An4
 BYTE   W06
 BYTE   Gn4
 BYTE   W06
 BYTE   Fs4
 BYTE   W06
 BYTE   En4
 BYTE   W06
 BYTE   Fs4
 BYTE   W06
 BYTE   Gn4
 BYTE   W06
 BYTE   Fs4
 BYTE   W06
 BYTE   En4
 BYTE   W06
 BYTE   Fs4
 BYTE   W06
//  #03 //129   ----------------------------------------
 BYTE   Gn4
 BYTE   W06
 BYTE   Fs4
 BYTE   W06
 BYTE   En4
 BYTE   W06
 BYTE   Fs4
 BYTE   W06
 BYTE   Gn4
 BYTE   W06
 BYTE   Fs4
 BYTE   W06
 BYTE   En4
 BYTE   W06
 BYTE   Fs4
 BYTE   W06
 BYTE   As4
 BYTE   W06
 BYTE   Gn4
 BYTE   W06
 BYTE   Fs4
 BYTE   W06
 BYTE   Gn4
 BYTE   W06
 BYTE   As4
 BYTE   W06
 BYTE   Gn4
 BYTE   W06
 BYTE   Fs4
 BYTE   W06
 BYTE   Gn4
 BYTE   W06
//  #03 //130   ----------------------------------------
 BYTE   As4
 BYTE   W06
 BYTE   Gn4
 BYTE   W06
 BYTE   Fs4
 BYTE   W06
 BYTE   Gn4
 BYTE   W06
 BYTE   As4
 BYTE   W06
 BYTE   Gn4
 BYTE   W06
 BYTE   Fs4
 BYTE   W06
 BYTE   Gn4
 BYTE   W06
 BYTE   Bn4
 BYTE   W06
 BYTE   An4
 BYTE   W06
 BYTE   Gn4
 BYTE   W06
 BYTE   An4
 BYTE   W06
 BYTE   Bn4
 BYTE   W06
 BYTE   An4
 BYTE   W06
 BYTE   Gn4
 BYTE   W06
 BYTE   An4
 BYTE   W06
//  #03 //131   ----------------------------------------
 BYTE   Bn4
 BYTE   W06
 BYTE   An4
 BYTE   W06
 BYTE   Gn4
 BYTE   W06
 BYTE   An4
 BYTE   W06
 BYTE   Bn4
 BYTE   W06
 BYTE   An4
 BYTE   W06
 BYTE   Gn4
 BYTE   W06
 BYTE   An4
 BYTE   W06
 BYTE   Cs5
 BYTE   W06
 BYTE   Bn4
 BYTE   W06
 BYTE   As4
 BYTE   W06
 BYTE   Bn4
 BYTE   W06
 BYTE   Cs5
 BYTE   W06
 BYTE   Bn4
 BYTE   W06
 BYTE   As4
 BYTE   W06
 BYTE   Bn4
 BYTE   W06
//  #03 //132   ----------------------------------------
Label_01007FB3:
 BYTE   N05  Cs5  v127
 BYTE   W06
 BYTE   Bn4
 BYTE   W06
 BYTE   As4
 BYTE   W06
 BYTE   Bn4
 BYTE   W06
 BYTE   Cs5
 BYTE   W06
 BYTE   Bn4
 BYTE   W06
 BYTE   As4
 BYTE   W06
 BYTE   Bn4
 BYTE   W06
 BYTE   N17  En5
 BYTE   W18
 BYTE   N05  Dn5
 BYTE   W06
 BYTE   N17  En5
 BYTE   W18
 BYTE   N05  Dn5
 BYTE   W06
 BYTE   PEND 
//  #03 //133   ----------------------------------------
Label_01007FD2:
 BYTE   N17  En5  v127
 BYTE   W18
 BYTE   N05  Dn5
 BYTE   W06
 BYTE   N17  En5
 BYTE   W18
 BYTE   N05  Dn5
 BYTE   W06
 BYTE   Cs5
 BYTE   W06
 BYTE   Bn4
 BYTE   W06
 BYTE   As4
 BYTE   W06
 BYTE   Bn4
 BYTE   W06
 BYTE   Cs5
 BYTE   W06
 BYTE   Bn4
 BYTE   W06
 BYTE   As4
 BYTE   W06
 BYTE   Bn4
 BYTE   W06
 BYTE   PEND 
//  #03 //134   ----------------------------------------
 BYTE   PATT
  POIN2 Label_01007FB3
//  #03 //135   ----------------------------------------
 BYTE   PATT
  POIN2 Label_01007FD2
//  #03 //136   ----------------------------------------
 BYTE   N05  Cs5  v127
 BYTE   W06
 BYTE   Bn4
 BYTE   W06
 BYTE   As4
 BYTE   W06
 BYTE   Bn4
 BYTE   W06
 BYTE   N07  Cs5
 BYTE   W08
 BYTE   Dn5
 BYTE   W08
 BYTE   En5
 BYTE   W08
 BYTE   N96  Dn5
 BYTE   W48
//  #03 //137   ----------------------------------------
 BYTE   W48
 BYTE   N90
 BYTE   W48
//  #03 //138   ----------------------------------------
 BYTE   W96
//  #03 //139   ----------------------------------------
 BYTE   PATT
  POIN2 Label_01007A49
//  #03 //140   ----------------------------------------
 BYTE   PATT
  POIN2 Label_01007A23
//  #03 //141   ----------------------------------------
 BYTE   PATT
  POIN2 Label_01007A2D
//  #03 //142   ----------------------------------------
 BYTE   PATT
  POIN2 Label_01007A39
//  #03 //143   ----------------------------------------
 BYTE   PATT
  POIN2 Label_01007A49
//  #03 //144   ----------------------------------------
 BYTE   PATT
  POIN2 Label_01007A54
//  #03 //145   ----------------------------------------
 BYTE   PATT
  POIN2 Label_01007A5E
//  #03 //146   ----------------------------------------
 BYTE   PATT
  POIN2 Label_01007A6E
//  #03 //147   ----------------------------------------
 BYTE   PATT
  POIN2 Label_01007A79
//  #03 //148   ----------------------------------------
 BYTE   PATT
  POIN2 Label_01007A8D
//  #03 //149   ----------------------------------------
 BYTE   PATT
  POIN2 Label_01007A97
//  #03 //150   ----------------------------------------
 BYTE   PATT
  POIN2 Label_01007AA3
//  #03 //151   ----------------------------------------
 BYTE   PATT
  POIN2 Label_01007AB3
//  #03 //152   ----------------------------------------
 BYTE   PATT
  POIN2 Label_01007ABE
//  #03 //153   ----------------------------------------
 BYTE   PATT
  POIN2 Label_01007AC8
//  #03 //154   ----------------------------------------
 BYTE   PATT
  POIN2 Label_01007AD8
//  #03 //155   ----------------------------------------
 BYTE   PATT
  POIN2 Label_01007AE3
//  #03 //156   ----------------------------------------
 BYTE   PATT
  POIN2 Label_01007AEF
//  #03 //157   ----------------------------------------
 BYTE   PATT
  POIN2 Label_01007B03
//  #03 //158   ----------------------------------------
 BYTE   PATT
  POIN2 Label_01007B1F
//  #03 //159   ----------------------------------------
 BYTE   PATT
  POIN2 Label_01007AE3
//  #03 //160   ----------------------------------------
 BYTE   PATT
  POIN2 Label_01007B37
//  #03 //161   ----------------------------------------
 BYTE   PATT
  POIN2 Label_01007B4E
//  #03 //162   ----------------------------------------
 BYTE   PATT
  POIN2 Label_01007B6E
//  #03 //163   ----------------------------------------
 BYTE   N20  Cn4  v127
 BYTE   W24
 BYTE   Dn4
 BYTE   W24
 BYTE   N05  En3
 BYTE   W06
 BYTE   Fs3
 BYTE   W06
 BYTE   N11  Gn3
 BYTE   W24
 BYTE   N05  An3
 BYTE   W06
 BYTE   Bn3
 BYTE   W06
//  #03 //164   ----------------------------------------
 BYTE   PATT
  POIN2 Label_01007BDB
//  #03 //165   ----------------------------------------
 BYTE   PATT
  POIN2 Label_01007BF0
//  #03 //166   ----------------------------------------
 BYTE   PATT
  POIN2 Label_01007BFF
//  #03 //167   ----------------------------------------
 BYTE   PATT
  POIN2 Label_01007C19
//  #03 //168   ----------------------------------------
 BYTE   PATT
  POIN2 Label_01007BDB
//  #03 //169   ----------------------------------------
 BYTE   PATT
  POIN2 Label_01007BF0
//  #03 //170   ----------------------------------------
 BYTE   PATT
  POIN2 Label_01007C42
//  #03 //171   ----------------------------------------
 BYTE   N05  Fs4  v127
 BYTE   W06
 BYTE   En4
 BYTE   W06
 BYTE   Cn4
 BYTE   W06
 BYTE   An4
 BYTE   W06
 BYTE   Gn4
 BYTE   W06
 BYTE   Fs4
 BYTE   W06
 BYTE   Ds4
 BYTE   W06
 BYTE   Bn4
 BYTE   W54
//  #03 //172   ----------------------------------------
 BYTE   N04  En4
 BYTE   W12
 BYTE   Dn4
 BYTE   W12
 BYTE   En4
 BYTE   W12
 BYTE   Dn4
 BYTE   W12
 BYTE   En4
 BYTE   W06
 BYTE   N04
 BYTE   W12
 BYTE   Dn4
 BYTE   W06
 BYTE   En4
 BYTE   W12
 BYTE   Gn4
 BYTE   W12
//  #03 //173   ----------------------------------------
 BYTE   N15  Fs4
 BYTE   W16
 BYTE   Gn4
 BYTE   W16
 BYTE   An4
 BYTE   W16
 BYTE   N05  Gn4
 BYTE   W06
 BYTE   Fs4
 BYTE   W06
 BYTE   Dn4
 BYTE   W06
 BYTE   Cn4
 BYTE   W06
 BYTE   Dn4
 BYTE   W06
 BYTE   Cn4
 BYTE   W06
 BYTE   Bn3
 BYTE   W06
 BYTE   An3
 BYTE   W06
//  #03 //174   ----------------------------------------
 BYTE   N04  Bn3
 BYTE   W12
 BYTE   An3
 BYTE   W12
 BYTE   Bn3
 BYTE   W12
 BYTE   An3
 BYTE   W12
 BYTE   Bn3
 BYTE   W06
 BYTE   N04
 BYTE   W12
 BYTE   N04
 BYTE   W06
 BYTE   An3
 BYTE   W12
 BYTE   Bn3
 BYTE   W12
//  #03 //175   ----------------------------------------
 BYTE   N32  Cn4
 BYTE   W36
 BYTE   N56  Bn3
 BYTE   W60
//  #03 //176   ----------------------------------------
 BYTE   N04  En4
 BYTE   W12
 BYTE   Dn4
 BYTE   W12
 BYTE   En4
 BYTE   W12
 BYTE   Dn4
 BYTE   W12
 BYTE   En4
 BYTE   W06
 BYTE   N04
 BYTE   W12
 BYTE   N05  Dn4
 BYTE   W06
 BYTE   N04  En4
 BYTE   W12
 BYTE   Dn4
 BYTE   W12
//  #03 //177   ----------------------------------------
 BYTE   En4
 BYTE   W12
 BYTE   Dn4
 BYTE   W12
 BYTE   En4
 BYTE   W12
 BYTE   Dn4
 BYTE   W12
 BYTE   En4
 BYTE   W06
 BYTE   N04
 BYTE   W12
 BYTE   N05  Dn4
 BYTE   W06
 BYTE   N04  En4
 BYTE   W12
 BYTE   Gn4
 BYTE   W12
//  #03 //178   ----------------------------------------
 BYTE   N05  Fs4
 BYTE   W06
 BYTE   Gn4
 BYTE   W06
 BYTE   Bn4
 BYTE   W06
 BYTE   An4
 BYTE   W06
 BYTE   Gn4
 BYTE   W06
 BYTE   Fs4
 BYTE   W06
 BYTE   En4
 BYTE   W06
 BYTE   Ds4
 BYTE   W06
 BYTE   Bn3
 BYTE   W06
 BYTE   Cn4
 BYTE   W06
 BYTE   Ds4
 BYTE   W06
 BYTE   En4
 BYTE   W06
 BYTE   Fs4
 BYTE   W06
 BYTE   En4
 BYTE   W06
 BYTE   Ds4
 BYTE   W06
 BYTE   Cn4
 BYTE   W06
//  #03 //179   ----------------------------------------
 BYTE   N42  Bn3
 BYTE   W48
 BYTE   N20  Cn4
 BYTE   W24
 BYTE   Dn4
 BYTE   W24
//  #03 //180   ----------------------------------------
 BYTE   W96
//  #03 //181   ----------------------------------------
 BYTE   W96
//  #03 //182   ----------------------------------------
 BYTE   W96
//  #03 //183   ----------------------------------------
 BYTE   N48  En3
 BYTE   W48
 BYTE   Ds3
 BYTE   W48
//  #03 //184   ----------------------------------------
 BYTE   Cn3
 BYTE   W48
 BYTE   Bn2
 BYTE   W48
//  #03 //185   ----------------------------------------
 BYTE   An2
 BYTE   W48
 BYTE   Gn2
 BYTE   W48
//  #03 //186   ----------------------------------------
 BYTE   An2
 BYTE   W48
 BYTE   Cn3
 BYTE   W48
//  #03 //187   ----------------------------------------
 BYTE   N90  Dn3
 BYTE   W96
//  #03 //188   ----------------------------------------
Label_0100817F:
 BYTE   N64  En4  v127
 BYTE   W64
 BYTE   N16  Fs4
 BYTE   W16
 BYTE   En4
 BYTE   W16
 BYTE   PEND 
//  #03 //189   ----------------------------------------
Label_01008189:
 BYTE   N48  Ds4  v127
 BYTE   W48
 BYTE   N36  Bn3
 BYTE   W36
 BYTE   N12  Cs4
 BYTE   W12
 BYTE   PEND 
//  #03 //190   ----------------------------------------
Label_01008194:
 BYTE   N64  Dn4  v127
 BYTE   W64
 BYTE   N16  En4
 BYTE   W16
 BYTE   Dn4
 BYTE   W16
 BYTE   PEND 
//  #03 //191   ----------------------------------------
Label_0100819E:
 BYTE   N48  Cs4  v127
 BYTE   W48
 BYTE   N42  Fs3
 BYTE   W48
 BYTE   PEND 
//  #03 //192   ----------------------------------------
 BYTE   PATT
  POIN2 Label_0100817F
//  #03 //193   ----------------------------------------
 BYTE   PATT
  POIN2 Label_01008189
//  #03 //194   ----------------------------------------
 BYTE   PATT
  POIN2 Label_01008194
//  #03 //195   ----------------------------------------
 BYTE   N90  Cs4  v127
 BYTE   W96
//  #03 //196   ----------------------------------------
 BYTE   PATT
  POIN2 Label_0100817F
//  #03 //197   ----------------------------------------
 BYTE   PATT
  POIN2 Label_01008189
//  #03 //198   ----------------------------------------
 BYTE   PATT
  POIN2 Label_01008194
//  #03 //199   ----------------------------------------
 BYTE   PATT
  POIN2 Label_0100819E
//  #03 //200   ----------------------------------------
 BYTE   PATT
  POIN2 Label_0100817F
//  #03 //201   ----------------------------------------
 BYTE   PATT
  POIN2 Label_01008189
//  #03 //202   ----------------------------------------
 BYTE   PATT
  POIN2 Label_01008194
//  #03 //203   ----------------------------------------
 BYTE   N48  Cs4  v127
 BYTE   W48
 BYTE   N16  An3
 BYTE   W16
 BYTE   En4
 BYTE   W16
 BYTE   An4
 BYTE   W16
//  #03 //204   ----------------------------------------
 BYTE   GoTo
  POIN2 Label_01007A11
//  #03 //205   ----------------------------------------
 BYTE   TIE  Gn4  v127
 BYTE   W96
//  #03 //206   ----------------------------------------
 BYTE   W96
//  #03 //207   ----------------------------------------
 BYTE   W96
//  #03 //208   ----------------------------------------
 BYTE   W90
 BYTE   EOT
 BYTE   W06
//  #03 //209   ----------------------------------------
 BYTE   W96
//  #03 //210   ----------------------------------------
 BYTE   W96
//  #03 //211   ----------------------------------------
 BYTE   W36
 BYTE   N02  An3
 BYTE   W03
 BYTE   Bn3
 BYTE   W03
 BYTE   Cs4
 BYTE   W03
 BYTE   Dn4
 BYTE   W03
 BYTE   TIE  En4
 BYTE   W48
//  #03 //212   ----------------------------------------
 BYTE   W96
//  #03 //213   ----------------------------------------
 BYTE   W96
//  #03 //214   ----------------------------------------
 BYTE   W96
//  #03 //215   ----------------------------------------
 BYTE   W42
 BYTE   EOT
 BYTE   W48
 BYTE   W02
 BYTE   FINE

//**************** Track 4 (Midi-Chn.3) ****************//

DelusionalExtremities_004:
//  #04 //000   ----------------------------------------
 BYTE   KEYSH   DelusionalExtremities_key+0
 BYTE   VOICE   38
 BYTE   VOL   28*DelusionalExtremities_mvl/mxv
 BYTE   PAN   c_v+0
 BYTE   W96
//  #04 //001   ----------------------------------------
 BYTE   W96
//  #04 //002   ----------------------------------------
 BYTE   W96
//  #04 //003   ----------------------------------------
 BYTE   W96
//  #04 //004   ----------------------------------------
 BYTE   W96
//  #04 //005   ----------------------------------------
 BYTE   W96
//  #04 //006   ----------------------------------------
 BYTE   W96
//  #04 //007   ----------------------------------------
 BYTE   W96
//  #04 //008   ----------------------------------------
 BYTE   W96
//  #04 //009   ----------------------------------------
 BYTE   W96
//  #04 //010   ----------------------------------------
 BYTE   W96
//  #04 //011   ----------------------------------------
 BYTE   W96
//  #04 //012   ----------------------------------------
 BYTE   W96
//  #04 //013   ----------------------------------------
 BYTE   W96
//  #04 //014   ----------------------------------------
 BYTE   W96
//  #04 //015   ----------------------------------------
 BYTE   W96
//  #04 //016   ----------------------------------------
 BYTE   W48
Label_01008225:
 BYTE   W48
//  #04 //017   ----------------------------------------
 BYTE   W96
//  #04 //018   ----------------------------------------
 BYTE   W96
//  #04 //019   ----------------------------------------
 BYTE   W96
//  #04 //020   ----------------------------------------
Label_01008229:
 BYTE   W48
 BYTE   N05  Fs1  v108
 BYTE   W06
 BYTE   N05
 BYTE   W06
 BYTE   Fs2
 BYTE   W06
 BYTE   N05
 BYTE   W06
 BYTE   Fs1
 BYTE   W06
 BYTE   N05
 BYTE   W06
 BYTE   Fs2
 BYTE   W06
 BYTE   N05
 BYTE   W06
 BYTE   PEND 
//  #04 //021   ----------------------------------------
Label_0100823D:
 BYTE   N05  Fs1  v108
 BYTE   W06
 BYTE   N05
 BYTE   W06
 BYTE   Fs2
 BYTE   W06
 BYTE   N05
 BYTE   W06
 BYTE   Fs1
 BYTE   W06
 BYTE   N05
 BYTE   W06
 BYTE   Fs2
 BYTE   W06
 BYTE   N05
 BYTE   W06
 BYTE   Fs1
 BYTE   W06
 BYTE   N05
 BYTE   W06
 BYTE   Fs2
 BYTE   W06
 BYTE   N05
 BYTE   W06
 BYTE   Fs1
 BYTE   W06
 BYTE   N05
 BYTE   W06
 BYTE   Fs2
 BYTE   W06
 BYTE   N05
 BYTE   W06
 BYTE   PEND 
//  #04 //022   ----------------------------------------
Label_01008260:
 BYTE   N05  Fs1  v108
 BYTE   W06
 BYTE   N05
 BYTE   W06
 BYTE   Fs2
 BYTE   W06
 BYTE   N05
 BYTE   W06
 BYTE   Fs1
 BYTE   W06
 BYTE   N05
 BYTE   W06
 BYTE   Fs2
 BYTE   W06
 BYTE   N05
 BYTE   W06
 BYTE   En1
 BYTE   W06
 BYTE   N05
 BYTE   W06
 BYTE   En2
 BYTE   W06
 BYTE   N05
 BYTE   W06
 BYTE   En1
 BYTE   W06
 BYTE   N05
 BYTE   W06
 BYTE   En2
 BYTE   W06
 BYTE   N05
 BYTE   W06
 BYTE   PEND 
//  #04 //023   ----------------------------------------
Label_01008283:
 BYTE   N05  En1  v108
 BYTE   W06
 BYTE   N05
 BYTE   W06
 BYTE   En2
 BYTE   W06
 BYTE   N05
 BYTE   W06
 BYTE   En1
 BYTE   W06
 BYTE   N05
 BYTE   W06
 BYTE   En2
 BYTE   W06
 BYTE   N05
 BYTE   W06
 BYTE   Bn0
 BYTE   W06
 BYTE   N05
 BYTE   W06
 BYTE   Bn1
 BYTE   W06
 BYTE   N05
 BYTE   W06
 BYTE   Bn0
 BYTE   W06
 BYTE   N05
 BYTE   W06
 BYTE   Bn1
 BYTE   W06
 BYTE   N05
 BYTE   W06
 BYTE   PEND 
//  #04 //024   ----------------------------------------
Label_010082A6:
 BYTE   N05  Bn0  v108
 BYTE   W06
 BYTE   N05
 BYTE   W06
 BYTE   Bn1
 BYTE   W06
 BYTE   N05
 BYTE   W06
 BYTE   Bn0
 BYTE   W06
 BYTE   N05
 BYTE   W06
 BYTE   Bn1
 BYTE   W06
 BYTE   N05
 BYTE   W06
 BYTE   Fs1
 BYTE   W06
 BYTE   N05
 BYTE   W06
 BYTE   Fs2
 BYTE   W06
 BYTE   N05
 BYTE   W06
 BYTE   Fs1
 BYTE   W06
 BYTE   N05
 BYTE   W06
 BYTE   Fs2
 BYTE   W06
 BYTE   N05
 BYTE   W06
 BYTE   PEND 
//  #04 //025   ----------------------------------------
 BYTE   PATT
  POIN2 Label_0100823D
//  #04 //026   ----------------------------------------
 BYTE   PATT
  POIN2 Label_01008260
//  #04 //027   ----------------------------------------
 BYTE   PATT
  POIN2 Label_01008283
//  #04 //028   ----------------------------------------
 BYTE   PATT
  POIN2 Label_010082A6
//  #04 //029   ----------------------------------------
 BYTE   PATT
  POIN2 Label_0100823D
//  #04 //030   ----------------------------------------
 BYTE   PATT
  POIN2 Label_01008260
//  #04 //031   ----------------------------------------
 BYTE   PATT
  POIN2 Label_01008283
//  #04 //032   ----------------------------------------
 BYTE   PATT
  POIN2 Label_010082A6
//  #04 //033   ----------------------------------------
 BYTE   PATT
  POIN2 Label_0100823D
//  #04 //034   ----------------------------------------
 BYTE   PATT
  POIN2 Label_01008260
//  #04 //035   ----------------------------------------
 BYTE   PATT
  POIN2 Label_01008283
//  #04 //036   ----------------------------------------
Label_01008300:
 BYTE   N05  Bn0  v108
 BYTE   W06
 BYTE   N05
 BYTE   W06
 BYTE   Bn1
 BYTE   W06
 BYTE   N05
 BYTE   W06
 BYTE   Bn0
 BYTE   W06
 BYTE   N05
 BYTE   W06
 BYTE   Bn1
 BYTE   W06
 BYTE   N05
 BYTE   W06
 BYTE   N11  Cn1
 BYTE   W12
 BYTE   Cn2
 BYTE   W12
 BYTE   Cn1
 BYTE   W12
 BYTE   Cn2
 BYTE   W12
 BYTE   PEND 
//  #04 //037   ----------------------------------------
Label_0100831C:
 BYTE   N11  Cn1  v108
 BYTE   W12
 BYTE   Cn2
 BYTE   W12
 BYTE   Cn1
 BYTE   W12
 BYTE   Cn2
 BYTE   W12
 BYTE   Dn1
 BYTE   W12
 BYTE   Dn2
 BYTE   W12
 BYTE   Dn1
 BYTE   W12
 BYTE   Dn2
 BYTE   W12
 BYTE   PEND 
//  #04 //038   ----------------------------------------
Label_0100832F:
 BYTE   N11  Dn1  v108
 BYTE   W12
 BYTE   Dn2
 BYTE   W12
 BYTE   Dn1
 BYTE   W12
 BYTE   Dn2
 BYTE   W12
 BYTE   En1
 BYTE   W12
 BYTE   En2
 BYTE   W12
 BYTE   En1
 BYTE   W12
 BYTE   En2
 BYTE   W12
 BYTE   PEND 
//  #04 //039   ----------------------------------------
Label_01008342:
 BYTE   N11  En1  v108
 BYTE   W12
 BYTE   En2
 BYTE   W12
 BYTE   En1
 BYTE   W12
 BYTE   En2
 BYTE   W12
 BYTE   Bn1
 BYTE   W12
 BYTE   Bn2
 BYTE   W12
 BYTE   Bn1
 BYTE   W12
 BYTE   Bn2
 BYTE   W12
 BYTE   PEND 
//  #04 //040   ----------------------------------------
Label_01008355:
 BYTE   N11  Bn1  v108
 BYTE   W12
 BYTE   Bn2
 BYTE   W12
 BYTE   Bn1
 BYTE   W12
 BYTE   Bn2
 BYTE   W12
 BYTE   Cn1
 BYTE   W12
 BYTE   Cn2
 BYTE   W12
 BYTE   Cn1
 BYTE   W12
 BYTE   Cn2
 BYTE   W12
 BYTE   PEND 
//  #04 //041   ----------------------------------------
 BYTE   PATT
  POIN2 Label_0100831C
//  #04 //042   ----------------------------------------
Label_0100836D:
 BYTE   N11  Dn1  v108
 BYTE   W12
 BYTE   Dn2
 BYTE   W12
 BYTE   Dn1
 BYTE   W12
 BYTE   Dn2
 BYTE   W12
 BYTE   Bn1
 BYTE   W12
 BYTE   Bn2
 BYTE   W12
 BYTE   Bn1
 BYTE   W12
 BYTE   Bn2
 BYTE   W12
 BYTE   PEND 
//  #04 //043   ----------------------------------------
Label_01008380:
 BYTE   N11  Bn1  v108
 BYTE   W12
 BYTE   Bn2
 BYTE   W12
 BYTE   Bn1
 BYTE   W12
 BYTE   Bn2
 BYTE   W12
 BYTE   Bn1
 BYTE   W12
 BYTE   Bn2
 BYTE   W12
 BYTE   Bn1
 BYTE   W12
 BYTE   Bn2
 BYTE   W12
 BYTE   PEND 
//  #04 //044   ----------------------------------------
 BYTE   Cn2
 BYTE   W12
 BYTE   En2
 BYTE   W12
 BYTE   Dn2
 BYTE   W12
 BYTE   Fs2
 BYTE   W12
 BYTE   N05  Fs1
 BYTE   W06
 BYTE   N05
 BYTE   W06
 BYTE   Fs2
 BYTE   W06
 BYTE   N05
 BYTE   W06
 BYTE   Fs1
 BYTE   W06
 BYTE   N05
 BYTE   W06
 BYTE   Fs2
 BYTE   W06
 BYTE   N05
 BYTE   W06
//  #04 //045   ----------------------------------------
 BYTE   PATT
  POIN2 Label_0100823D
//  #04 //046   ----------------------------------------
 BYTE   PATT
  POIN2 Label_01008260
//  #04 //047   ----------------------------------------
 BYTE   PATT
  POIN2 Label_01008283
//  #04 //048   ----------------------------------------
 BYTE   PATT
  POIN2 Label_010082A6
//  #04 //049   ----------------------------------------
 BYTE   PATT
  POIN2 Label_0100823D
//  #04 //050   ----------------------------------------
 BYTE   PATT
  POIN2 Label_01008260
//  #04 //051   ----------------------------------------
 BYTE   PATT
  POIN2 Label_01008283
//  #04 //052   ----------------------------------------
 BYTE   PATT
  POIN2 Label_01008300
//  #04 //053   ----------------------------------------
Label_010083D4:
 BYTE   N11  Cn1  v108
 BYTE   W12
 BYTE   Cn2
 BYTE   W12
 BYTE   Cn1
 BYTE   W12
 BYTE   Cn2
 BYTE   W12
 BYTE   Cn1
 BYTE   W12
 BYTE   Cn2
 BYTE   W12
 BYTE   Cn1
 BYTE   W12
 BYTE   Cn2
 BYTE   W12
 BYTE   PEND 
//  #04 //054   ----------------------------------------
 BYTE   PATT
  POIN2 Label_010083D4
//  #04 //055   ----------------------------------------
Label_010083EC:
 BYTE   N11  Cn1  v108
 BYTE   W12
 BYTE   Cn2
 BYTE   W12
 BYTE   Cn1
 BYTE   W12
 BYTE   Cn2
 BYTE   W12
 BYTE   En1
 BYTE   W12
 BYTE   En2
 BYTE   W12
 BYTE   En1
 BYTE   W12
 BYTE   En2
 BYTE   W12
 BYTE   PEND 
//  #04 //056   ----------------------------------------
Label_010083FF:
 BYTE   N11  Ds1  v108
 BYTE   W12
 BYTE   Ds2
 BYTE   W12
 BYTE   Ds1
 BYTE   W12
 BYTE   Ds2
 BYTE   W12
 BYTE   Cn1
 BYTE   W12
 BYTE   Cn2
 BYTE   W12
 BYTE   Cn1
 BYTE   W12
 BYTE   Cn2
 BYTE   W12
 BYTE   PEND 
//  #04 //057   ----------------------------------------
 BYTE   PATT
  POIN2 Label_010083D4
//  #04 //058   ----------------------------------------
 BYTE   PATT
  POIN2 Label_010083D4
//  #04 //059   ----------------------------------------
 BYTE   PATT
  POIN2 Label_0100831C
//  #04 //060   ----------------------------------------
 BYTE   N11  Dn1  v108
 BYTE   W12
 BYTE   Dn2
 BYTE   W12
 BYTE   Dn1
 BYTE   W12
 BYTE   Dn2
 BYTE   W12
 BYTE   N05  En1
 BYTE   W06
 BYTE   N05
 BYTE   W06
 BYTE   En2
 BYTE   W06
 BYTE   N05
 BYTE   W06
 BYTE   En1
 BYTE   W06
 BYTE   N05
 BYTE   W06
 BYTE   En2
 BYTE   W06
 BYTE   N05
 BYTE   W06
//  #04 //061   ----------------------------------------
 BYTE   PATT
  POIN2 Label_01008283
//  #04 //062   ----------------------------------------
Label_01008441:
 BYTE   N05  Bn0  v108
 BYTE   W06
 BYTE   N05
 BYTE   W06
 BYTE   Bn1
 BYTE   W06
 BYTE   N05
 BYTE   W06
 BYTE   Bn0
 BYTE   W06
 BYTE   N05
 BYTE   W06
 BYTE   Bn1
 BYTE   W06
 BYTE   N05
 BYTE   W06
 BYTE   Cn1
 BYTE   W06
 BYTE   N05
 BYTE   W06
 BYTE   Cn2
 BYTE   W06
 BYTE   N05
 BYTE   W06
 BYTE   Cn1
 BYTE   W06
 BYTE   N05
 BYTE   W06
 BYTE   Cn2
 BYTE   W06
 BYTE   N05
 BYTE   W06
 BYTE   PEND 
//  #04 //063   ----------------------------------------
Label_01008464:
 BYTE   N05  Cn1  v108
 BYTE   W06
 BYTE   N05
 BYTE   W06
 BYTE   Cn2
 BYTE   W06
 BYTE   N05
 BYTE   W06
 BYTE   Cn1
 BYTE   W06
 BYTE   N05
 BYTE   W06
 BYTE   Cn2
 BYTE   W06
 BYTE   N05
 BYTE   W06
 BYTE   Cn1
 BYTE   W06
 BYTE   N05
 BYTE   W06
 BYTE   Cn2
 BYTE   W06
 BYTE   N05
 BYTE   W06
 BYTE   Cn1
 BYTE   W06
 BYTE   N05
 BYTE   W06
 BYTE   Cn2
 BYTE   W06
 BYTE   N05
 BYTE   W06
 BYTE   PEND 
//  #04 //064   ----------------------------------------
Label_01008487:
 BYTE   N05  Cn1  v108
 BYTE   W06
 BYTE   N05
 BYTE   W06
 BYTE   Cn2
 BYTE   W06
 BYTE   N05
 BYTE   W06
 BYTE   Cn1
 BYTE   W06
 BYTE   N05
 BYTE   W06
 BYTE   Cn2
 BYTE   W06
 BYTE   N05
 BYTE   W06
 BYTE   En1
 BYTE   W06
 BYTE   N05
 BYTE   W06
 BYTE   En2
 BYTE   W06
 BYTE   N05
 BYTE   W06
 BYTE   En1
 BYTE   W06
 BYTE   N05
 BYTE   W06
 BYTE   En2
 BYTE   W06
 BYTE   N05
 BYTE   W06
 BYTE   PEND 
//  #04 //065   ----------------------------------------
 BYTE   PATT
  POIN2 Label_01008283
//  #04 //066   ----------------------------------------
 BYTE   PATT
  POIN2 Label_01008441
//  #04 //067   ----------------------------------------
Label_010084B4:
 BYTE   N05  Cn1  v108
 BYTE   W06
 BYTE   N05
 BYTE   W06
 BYTE   Cn2
 BYTE   W06
 BYTE   N05
 BYTE   W06
 BYTE   Cn1
 BYTE   W06
 BYTE   N05
 BYTE   W06
 BYTE   Cn2
 BYTE   W06
 BYTE   N05
 BYTE   W06
 BYTE   Cn1
 BYTE   W06
 BYTE   N05
 BYTE   W06
 BYTE   Cn2
 BYTE   W06
 BYTE   N05
 BYTE   W06
 BYTE   Dn1
 BYTE   W06
 BYTE   N05
 BYTE   W06
 BYTE   Dn2
 BYTE   W06
 BYTE   N05
 BYTE   W06
 BYTE   PEND 
//  #04 //068   ----------------------------------------
 BYTE   En1
 BYTE   W06
 BYTE   N05
 BYTE   W06
 BYTE   En2
 BYTE   W06
 BYTE   N05
 BYTE   W06
 BYTE   Fs1
 BYTE   W06
 BYTE   N05
 BYTE   W06
 BYTE   Fs2
 BYTE   W06
 BYTE   N05
 BYTE   W06
 BYTE   N11  Cn1
 BYTE   W12
 BYTE   Cn2
 BYTE   W12
 BYTE   Cn1
 BYTE   W12
 BYTE   Cn2
 BYTE   W12
//  #04 //069   ----------------------------------------
 BYTE   PATT
  POIN2 Label_0100831C
//  #04 //070   ----------------------------------------
 BYTE   PATT
  POIN2 Label_0100832F
//  #04 //071   ----------------------------------------
 BYTE   PATT
  POIN2 Label_01008342
//  #04 //072   ----------------------------------------
 BYTE   PATT
  POIN2 Label_01008355
//  #04 //073   ----------------------------------------
 BYTE   PATT
  POIN2 Label_0100831C
//  #04 //074   ----------------------------------------
 BYTE   PATT
  POIN2 Label_0100836D
//  #04 //075   ----------------------------------------
 BYTE   PATT
  POIN2 Label_01008380
//  #04 //076   ----------------------------------------
 BYTE   N11  Cn2  v108
 BYTE   W12
 BYTE   En2
 BYTE   W12
 BYTE   Dn2
 BYTE   W12
 BYTE   Fs2
 BYTE   W12
 BYTE   Cn1
 BYTE   W12
 BYTE   Cn2
 BYTE   W12
 BYTE   Cn1
 BYTE   W12
 BYTE   Cn2
 BYTE   W12
//  #04 //077   ----------------------------------------
 BYTE   PATT
  POIN2 Label_010083D4
//  #04 //078   ----------------------------------------
 BYTE   PATT
  POIN2 Label_010083D4
//  #04 //079   ----------------------------------------
 BYTE   PATT
  POIN2 Label_010083EC
//  #04 //080   ----------------------------------------
 BYTE   PATT
  POIN2 Label_010083FF
//  #04 //081   ----------------------------------------
 BYTE   PATT
  POIN2 Label_010083D4
//  #04 //082   ----------------------------------------
 BYTE   PATT
  POIN2 Label_010083D4
//  #04 //083   ----------------------------------------
 BYTE   PATT
  POIN2 Label_0100831C
//  #04 //084   ----------------------------------------
 BYTE   N11  Dn1  v108
 BYTE   W12
 BYTE   Dn2
 BYTE   W12
 BYTE   Dn1
 BYTE   W12
 BYTE   Dn2
 BYTE   W60
//  #04 //085   ----------------------------------------
 BYTE   W96
//  #04 //086   ----------------------------------------
 BYTE   W96
//  #04 //087   ----------------------------------------
 BYTE   W96
//  #04 //088   ----------------------------------------
 BYTE   W96
//  #04 //089   ----------------------------------------
 BYTE   W96
//  #04 //090   ----------------------------------------
 BYTE   W96
//  #04 //091   ----------------------------------------
 BYTE   W96
//  #04 //092   ----------------------------------------
 BYTE   W96
//  #04 //093   ----------------------------------------
 BYTE   W96
//  #04 //094   ----------------------------------------
 BYTE   W96
//  #04 //095   ----------------------------------------
 BYTE   W96
//  #04 //096   ----------------------------------------
 BYTE   W96
//  #04 //097   ----------------------------------------
 BYTE   W96
//  #04 //098   ----------------------------------------
 BYTE   W96
//  #04 //099   ----------------------------------------
 BYTE   W96
//  #04 //100   ----------------------------------------
 BYTE   W96
//  #04 //101   ----------------------------------------
 BYTE   W96
//  #04 //102   ----------------------------------------
 BYTE   W96
//  #04 //103   ----------------------------------------
 BYTE   W96
//  #04 //104   ----------------------------------------
 BYTE   PATT
  POIN2 Label_01008229
//  #04 //105   ----------------------------------------
 BYTE   PATT
  POIN2 Label_0100823D
//  #04 //106   ----------------------------------------
 BYTE   PATT
  POIN2 Label_01008260
//  #04 //107   ----------------------------------------
 BYTE   PATT
  POIN2 Label_01008283
//  #04 //108   ----------------------------------------
 BYTE   PATT
  POIN2 Label_010082A6
//  #04 //109   ----------------------------------------
 BYTE   PATT
  POIN2 Label_0100823D
//  #04 //110   ----------------------------------------
 BYTE   PATT
  POIN2 Label_01008260
//  #04 //111   ----------------------------------------
 BYTE   PATT
  POIN2 Label_01008283
//  #04 //112   ----------------------------------------
 BYTE   PATT
  POIN2 Label_01008300
//  #04 //113   ----------------------------------------
 BYTE   PATT
  POIN2 Label_0100831C
//  #04 //114   ----------------------------------------
 BYTE   PATT
  POIN2 Label_0100832F
//  #04 //115   ----------------------------------------
 BYTE   PATT
  POIN2 Label_01008342
//  #04 //116   ----------------------------------------
 BYTE   PATT
  POIN2 Label_01008355
//  #04 //117   ----------------------------------------
 BYTE   PATT
  POIN2 Label_0100831C
//  #04 //118   ----------------------------------------
 BYTE   PATT
  POIN2 Label_0100836D
//  #04 //119   ----------------------------------------
 BYTE   PATT
  POIN2 Label_01008380
//  #04 //120   ----------------------------------------
 BYTE   N11  Cn2  v108
 BYTE   W12
 BYTE   En2
 BYTE   W12
 BYTE   Dn2
 BYTE   W12
 BYTE   Fs2
 BYTE   W12
 BYTE   N42  En1
 BYTE   W48
//  #04 //121   ----------------------------------------
Label_010085C2:
 BYTE   N42  Bn1  v108
 BYTE   W48
 BYTE   As1
 BYTE   W48
 BYTE   PEND 
//  #04 //122   ----------------------------------------
Label_010085C9:
 BYTE   N42  Cs2  v108
 BYTE   W48
 BYTE   En1
 BYTE   W48
 BYTE   PEND 
//  #04 //123   ----------------------------------------
 BYTE   PATT
  POIN2 Label_010085C2
//  #04 //124   ----------------------------------------
 BYTE   N42  Fs1  v108
 BYTE   W48
 BYTE   En1
 BYTE   W48
//  #04 //125   ----------------------------------------
 BYTE   PATT
  POIN2 Label_010085C2
//  #04 //126   ----------------------------------------
 BYTE   PATT
  POIN2 Label_010085C9
//  #04 //127   ----------------------------------------
 BYTE   PATT
  POIN2 Label_010085C2
//  #04 //128   ----------------------------------------
 BYTE   N42  Fs1  v108
 BYTE   W48
 BYTE   N05  En1
 BYTE   W06
 BYTE   N05
 BYTE   W06
 BYTE   Bn1
 BYTE   W06
 BYTE   N05
 BYTE   W06
 BYTE   En1
 BYTE   W06
 BYTE   N05
 BYTE   W06
 BYTE   Bn1
 BYTE   W06
 BYTE   N05
 BYTE   W06
//  #04 //129   ----------------------------------------
Label_010085FF:
 BYTE   N05  En1  v108
 BYTE   W06
 BYTE   N05
 BYTE   W06
 BYTE   Bn1
 BYTE   W06
 BYTE   N05
 BYTE   W06
 BYTE   En1
 BYTE   W06
 BYTE   N05
 BYTE   W06
 BYTE   Bn1
 BYTE   W06
 BYTE   N05
 BYTE   W06
 BYTE   As1
 BYTE   W06
 BYTE   N05
 BYTE   W06
 BYTE   Cs2
 BYTE   W06
 BYTE   N05
 BYTE   W06
 BYTE   As1
 BYTE   W06
 BYTE   N05
 BYTE   W06
 BYTE   Cs2
 BYTE   W06
 BYTE   N05
 BYTE   W06
 BYTE   PEND 
//  #04 //130   ----------------------------------------
Label_01008622:
 BYTE   N05  As1  v108
 BYTE   W06
 BYTE   N05
 BYTE   W06
 BYTE   Cs2
 BYTE   W06
 BYTE   N05
 BYTE   W06
 BYTE   As1
 BYTE   W06
 BYTE   N05
 BYTE   W06
 BYTE   Cs2
 BYTE   W06
 BYTE   N05
 BYTE   W06
 BYTE   En1
 BYTE   W06
 BYTE   N05
 BYTE   W06
 BYTE   Bn1
 BYTE   W06
 BYTE   N05
 BYTE   W06
 BYTE   En1
 BYTE   W06
 BYTE   N05
 BYTE   W06
 BYTE   Bn1
 BYTE   W06
 BYTE   N05
 BYTE   W06
 BYTE   PEND 
//  #04 //131   ----------------------------------------
 BYTE   PATT
  POIN2 Label_010085FF
//  #04 //132   ----------------------------------------
 BYTE   PATT
  POIN2 Label_01008622
//  #04 //133   ----------------------------------------
 BYTE   PATT
  POIN2 Label_010085FF
//  #04 //134   ----------------------------------------
 BYTE   PATT
  POIN2 Label_01008622
//  #04 //135   ----------------------------------------
 BYTE   PATT
  POIN2 Label_010085FF
//  #04 //136   ----------------------------------------
 BYTE   N05  As1  v108
 BYTE   W06
 BYTE   N05
 BYTE   W06
 BYTE   Cs2
 BYTE   W06
 BYTE   N05
 BYTE   W06
 BYTE   As1
 BYTE   W06
 BYTE   N05
 BYTE   W06
 BYTE   Cs2
 BYTE   W06
 BYTE   N05
 BYTE   W06
 BYTE   N11  Dn2
 BYTE   W12
 BYTE   An1
 BYTE   W12
 BYTE   Dn2
 BYTE   W12
 BYTE   An1
 BYTE   W12
//  #04 //137   ----------------------------------------
 BYTE   Dn2
 BYTE   W12
 BYTE   An1
 BYTE   W12
 BYTE   Dn2
 BYTE   W12
 BYTE   An1
 BYTE   W12
 BYTE   Dn2
 BYTE   W12
 BYTE   An1
 BYTE   W12
 BYTE   Dn2
 BYTE   W12
 BYTE   An1
 BYTE   W12
//  #04 //138   ----------------------------------------
 BYTE   Dn2
 BYTE   W12
 BYTE   An1
 BYTE   W12
 BYTE   Dn2
 BYTE   W12
 BYTE   An1
 BYTE   W60
//  #04 //139   ----------------------------------------
 BYTE   PATT
  POIN2 Label_01008229
//  #04 //140   ----------------------------------------
 BYTE   PATT
  POIN2 Label_0100823D
//  #04 //141   ----------------------------------------
 BYTE   PATT
  POIN2 Label_01008260
//  #04 //142   ----------------------------------------
 BYTE   PATT
  POIN2 Label_01008283
//  #04 //143   ----------------------------------------
 BYTE   PATT
  POIN2 Label_010082A6
//  #04 //144   ----------------------------------------
 BYTE   PATT
  POIN2 Label_0100823D
//  #04 //145   ----------------------------------------
 BYTE   PATT
  POIN2 Label_01008260
//  #04 //146   ----------------------------------------
 BYTE   PATT
  POIN2 Label_01008283
//  #04 //147   ----------------------------------------
 BYTE   PATT
  POIN2 Label_010082A6
//  #04 //148   ----------------------------------------
 BYTE   PATT
  POIN2 Label_0100823D
//  #04 //149   ----------------------------------------
 BYTE   PATT
  POIN2 Label_01008260
//  #04 //150   ----------------------------------------
 BYTE   PATT
  POIN2 Label_01008283
//  #04 //151   ----------------------------------------
 BYTE   PATT
  POIN2 Label_010082A6
//  #04 //152   ----------------------------------------
 BYTE   PATT
  POIN2 Label_0100823D
//  #04 //153   ----------------------------------------
 BYTE   PATT
  POIN2 Label_01008260
//  #04 //154   ----------------------------------------
 BYTE   PATT
  POIN2 Label_01008283
//  #04 //155   ----------------------------------------
 BYTE   PATT
  POIN2 Label_01008300
//  #04 //156   ----------------------------------------
 BYTE   PATT
  POIN2 Label_0100831C
//  #04 //157   ----------------------------------------
 BYTE   PATT
  POIN2 Label_0100832F
//  #04 //158   ----------------------------------------
 BYTE   PATT
  POIN2 Label_01008342
//  #04 //159   ----------------------------------------
 BYTE   PATT
  POIN2 Label_01008355
//  #04 //160   ----------------------------------------
 BYTE   PATT
  POIN2 Label_0100831C
//  #04 //161   ----------------------------------------
 BYTE   PATT
  POIN2 Label_0100836D
//  #04 //162   ----------------------------------------
 BYTE   PATT
  POIN2 Label_01008380
//  #04 //163   ----------------------------------------
 BYTE   N11  Cn2  v108
 BYTE   W12
 BYTE   En2
 BYTE   W12
 BYTE   Dn2
 BYTE   W12
 BYTE   Fs2
 BYTE   W12
 BYTE   N05  En1
 BYTE   W06
 BYTE   N05
 BYTE   W06
 BYTE   En2
 BYTE   W06
 BYTE   N05
 BYTE   W06
 BYTE   En1
 BYTE   W06
 BYTE   N05
 BYTE   W06
 BYTE   En2
 BYTE   W06
 BYTE   N05
 BYTE   W06
//  #04 //164   ----------------------------------------
 BYTE   PATT
  POIN2 Label_01008283
//  #04 //165   ----------------------------------------
 BYTE   PATT
  POIN2 Label_01008441
//  #04 //166   ----------------------------------------
 BYTE   PATT
  POIN2 Label_01008464
//  #04 //167   ----------------------------------------
 BYTE   PATT
  POIN2 Label_01008487
//  #04 //168   ----------------------------------------
 BYTE   PATT
  POIN2 Label_01008283
//  #04 //169   ----------------------------------------
 BYTE   PATT
  POIN2 Label_01008441
//  #04 //170   ----------------------------------------
 BYTE   PATT
  POIN2 Label_010084B4
//  #04 //171   ----------------------------------------
 BYTE   N05  En1  v108
 BYTE   W06
 BYTE   N05
 BYTE   W06
 BYTE   En2
 BYTE   W06
 BYTE   N05
 BYTE   W06
 BYTE   Fs1
 BYTE   W06
 BYTE   N05
 BYTE   W06
 BYTE   Fs2
 BYTE   W06
 BYTE   N05
 BYTE   W54
//  #04 //172   ----------------------------------------
 BYTE   PATT
  POIN2 Label_010083D4
//  #04 //173   ----------------------------------------
Label_0100875E:
 BYTE   N11  Dn1  v108
 BYTE   W12
 BYTE   Dn2
 BYTE   W12
 BYTE   Dn1
 BYTE   W12
 BYTE   Dn2
 BYTE   W12
 BYTE   Dn1
 BYTE   W12
 BYTE   Dn2
 BYTE   W12
 BYTE   Dn1
 BYTE   W12
 BYTE   Dn2
 BYTE   W12
 BYTE   PEND 
//  #04 //174   ----------------------------------------
 BYTE   En1
 BYTE   W12
 BYTE   En2
 BYTE   W12
 BYTE   En1
 BYTE   W12
 BYTE   En2
 BYTE   W12
 BYTE   En1
 BYTE   W12
 BYTE   En2
 BYTE   W12
 BYTE   En1
 BYTE   W12
 BYTE   En2
 BYTE   W12
//  #04 //175   ----------------------------------------
 BYTE   PATT
  POIN2 Label_01008380
//  #04 //176   ----------------------------------------
 BYTE   PATT
  POIN2 Label_010083D4
//  #04 //177   ----------------------------------------
 BYTE   PATT
  POIN2 Label_0100875E
//  #04 //178   ----------------------------------------
 BYTE   PATT
  POIN2 Label_01008380
//  #04 //179   ----------------------------------------
 BYTE   N11  Bn1  v108
 BYTE   W12
 BYTE   Bn2
 BYTE   W12
 BYTE   Bn1
 BYTE   W12
 BYTE   Bn2
 BYTE   W12
 BYTE   Cn2
 BYTE   W12
 BYTE   En2
 BYTE   W12
 BYTE   Dn2
 BYTE   W12
 BYTE   Fs2
 BYTE   W12
//  #04 //180   ----------------------------------------
 BYTE   PATT
  POIN2 Label_010083D4
//  #04 //181   ----------------------------------------
 BYTE   PATT
  POIN2 Label_010083D4
//  #04 //182   ----------------------------------------
 BYTE   PATT
  POIN2 Label_010083D4
//  #04 //183   ----------------------------------------
 BYTE   N11  En1  v108
 BYTE   W12
 BYTE   En2
 BYTE   W12
 BYTE   En1
 BYTE   W12
 BYTE   En2
 BYTE   W12
 BYTE   Ds1
 BYTE   W12
 BYTE   Ds2
 BYTE   W12
 BYTE   Ds1
 BYTE   W12
 BYTE   Ds2
 BYTE   W12
//  #04 //184   ----------------------------------------
 BYTE   PATT
  POIN2 Label_010083D4
//  #04 //185   ----------------------------------------
 BYTE   PATT
  POIN2 Label_010083D4
//  #04 //186   ----------------------------------------
 BYTE   PATT
  POIN2 Label_010083D4
//  #04 //187   ----------------------------------------
 BYTE   PATT
  POIN2 Label_0100875E
//  #04 //188   ----------------------------------------
 BYTE   W96
//  #04 //189   ----------------------------------------
 BYTE   W96
//  #04 //190   ----------------------------------------
 BYTE   W96
//  #04 //191   ----------------------------------------
 BYTE   W96
//  #04 //192   ----------------------------------------
 BYTE   W96
//  #04 //193   ----------------------------------------
 BYTE   W96
//  #04 //194   ----------------------------------------
 BYTE   W96
//  #04 //195   ----------------------------------------
 BYTE   W96
//  #04 //196   ----------------------------------------
 BYTE   PATT
  POIN2 Label_0100823D
//  #04 //197   ----------------------------------------
 BYTE   PATT
  POIN2 Label_0100823D
//  #04 //198   ----------------------------------------
 BYTE   PATT
  POIN2 Label_0100823D
//  #04 //199   ----------------------------------------
 BYTE   PATT
  POIN2 Label_0100823D
//  #04 //200   ----------------------------------------
 BYTE   PATT
  POIN2 Label_0100823D
//  #04 //201   ----------------------------------------
 BYTE   PATT
  POIN2 Label_0100823D
//  #04 //202   ----------------------------------------
 BYTE   PATT
  POIN2 Label_0100823D
//  #04 //203   ----------------------------------------
 BYTE   N05  Fs1  v108
 BYTE   W06
 BYTE   N05
 BYTE   W06
 BYTE   Fs2
 BYTE   W06
 BYTE   N05
 BYTE   W06
 BYTE   Fs1
 BYTE   W06
 BYTE   N05
 BYTE   W06
 BYTE   Fs2
 BYTE   W06
 BYTE   N05
 BYTE   W06
 BYTE   An1
 BYTE   W06
 BYTE   N05
 BYTE   W06
 BYTE   An2
 BYTE   W06
 BYTE   N05
 BYTE   W06
 BYTE   An1
 BYTE   W06
 BYTE   N05
 BYTE   W06
 BYTE   An2
 BYTE   W06
 BYTE   N05
 BYTE   W06
//  #04 //204   ----------------------------------------
 BYTE   GoTo
  POIN2 Label_01008225
//  #04 //205   ----------------------------------------
Label_0100882E:
 BYTE   N20  Gn1  v108
 BYTE   W24
 BYTE   N20
 BYTE   W24
 BYTE   N20
 BYTE   W24
 BYTE   N20
 BYTE   W24
 BYTE   PEND 
//  #04 //206   ----------------------------------------
 BYTE   PATT
  POIN2 Label_0100882E
//  #04 //207   ----------------------------------------
 BYTE   PATT
  POIN2 Label_0100882E
//  #04 //208   ----------------------------------------
 BYTE   PATT
  POIN2 Label_0100882E
//  #04 //209   ----------------------------------------
 BYTE   W96
//  #04 //210   ----------------------------------------
 BYTE   W96
//  #04 //211   ----------------------------------------
 BYTE   W48
 BYTE   N90  Fs1  v108
 BYTE   W48
//  #04 //212   ----------------------------------------
 BYTE   W48
 BYTE   N90
 BYTE   W48
//  #04 //213   ----------------------------------------
 BYTE   W48
 BYTE   TIE
 BYTE   W48
//  #04 //214   ----------------------------------------
 BYTE   W96
//  #04 //215   ----------------------------------------
 BYTE   W42
 BYTE   EOT
 BYTE   W48
 BYTE   W02
 BYTE   FINE

//**************** Track 5 (Midi-Chn.4) ****************//

DelusionalExtremities_005:
//  #05 //000   ----------------------------------------
 BYTE   KEYSH   DelusionalExtremities_key+0
 BYTE   VOICE   18
 BYTE   VOL   32*DelusionalExtremities_mvl/mxv
 BYTE   PAN   c_v+32
 BYTE   W96
//  #05 //001   ----------------------------------------
 BYTE   W96
//  #05 //002   ----------------------------------------
 BYTE   W96
//  #05 //003   ----------------------------------------
 BYTE   W96
//  #05 //004   ----------------------------------------
 BYTE   W36
 BYTE   N03  Fs5  v092
 BYTE   W03
 BYTE   Gn5
 BYTE   W03
 BYTE   An5
 BYTE   W03
 BYTE   Bn5
 BYTE   W03
 BYTE   N90  Gn4
 BYTE   N90  Cn5
 BYTE   N48  En5
 BYTE   N48  Cn6
 BYTE   W48
//  #05 //005   ----------------------------------------
Label_0100F748:
 BYTE   N16  Fs5  v092
 BYTE   N48  Bn5
 BYTE   W16
 BYTE   N16  Gn5
 BYTE   W16
 BYTE   Fs5
 BYTE   W16
 BYTE   N90  Gn4
 BYTE   N90  Cn5
 BYTE   N48  En5
 BYTE   N48  An5
 BYTE   W48
 BYTE   PEND 
//  #05 //006   ----------------------------------------
 BYTE   N16  Fs5
 BYTE   N48  Bn5
 BYTE   W16
 BYTE   N16  Gn5
 BYTE   W16
 BYTE   Fs5
 BYTE   W16
 BYTE   N90  Gn4
 BYTE   N90  Cn5
 BYTE   N48  En5
 BYTE   N48  Cn6
 BYTE   W48
//  #05 //007   ----------------------------------------
 BYTE   N16  Fs5
 BYTE   N16  Cn6
 BYTE   W16
 BYTE   Gn5
 BYTE   N16  Dn6
 BYTE   W16
 BYTE   Fs5
 BYTE   N16  En6
 BYTE   W16
 BYTE   N48  Gn4
 BYTE   N90  Dn5
 BYTE   N90  Fs5
 BYTE   N90  Dn6
 BYTE   W48
//  #05 //008   ----------------------------------------
 BYTE   N48  Fs4
 BYTE   W48
 BYTE   N08  An4
 BYTE   N08  Cs5
 BYTE   N08  En5
 BYTE   N08  Fs5
 BYTE   W12
 BYTE   An4
 BYTE   N08  Cs5
 BYTE   N08  En5
 BYTE   N08  Fs5
 BYTE   W12
 BYTE   An4
 BYTE   N08  Cs5
 BYTE   N08  En5
 BYTE   N08  Fs5
 BYTE   W12
 BYTE   An4
 BYTE   N08  Cs5
 BYTE   N08  En5
 BYTE   N08  Fs5
 BYTE   W12
//  #05 //009   ----------------------------------------
Label_0100F7AA:
 BYTE   N08  An4  v092
 BYTE   N08  Cs5
 BYTE   N08  En5
 BYTE   N08  Fs5
 BYTE   W12
 BYTE   An4
 BYTE   N08  Cs5
 BYTE   N08  En5
 BYTE   N08  Fs5
 BYTE   W12
 BYTE   An4
 BYTE   N08  Cs5
 BYTE   N08  En5
 BYTE   N08  Fs5
 BYTE   W12
 BYTE   An4
 BYTE   N08  Cs5
 BYTE   N08  En5
 BYTE   N08  Fs5
 BYTE   W12
 BYTE   Bn4
 BYTE   N08  Ds5
 BYTE   N08  Fs5
 BYTE   W12
 BYTE   Bn4
 BYTE   N08  Ds5
 BYTE   N08  Fs5
 BYTE   W12
 BYTE   Bn4
 BYTE   N08  Ds5
 BYTE   N08  Fs5
 BYTE   W12
 BYTE   Bn4
 BYTE   N08  Ds5
 BYTE   N08  Fs5
 BYTE   W12
 BYTE   PEND 
//  #05 //010   ----------------------------------------
Label_0100F7E5:
 BYTE   N08  Bn4  v092
 BYTE   N08  Ds5
 BYTE   N08  Fs5
 BYTE   W12
 BYTE   Bn4
 BYTE   N08  Ds5
 BYTE   N08  Fs5
 BYTE   W12
 BYTE   Bn4
 BYTE   N08  Ds5
 BYTE   N08  Fs5
 BYTE   W12
 BYTE   Bn4
 BYTE   N08  Ds5
 BYTE   N08  Fs5
 BYTE   W12
 BYTE   An4
 BYTE   N08  Dn5
 BYTE   N08  Fs5
 BYTE   W12
 BYTE   An4
 BYTE   N08  Dn5
 BYTE   N08  Fs5
 BYTE   W12
 BYTE   An4
 BYTE   N08  Dn5
 BYTE   N08  Fs5
 BYTE   W12
 BYTE   An4
 BYTE   N08  Dn5
 BYTE   N08  Fs5
 BYTE   W12
 BYTE   PEND 
//  #05 //011   ----------------------------------------
Label_0100F818:
 BYTE   N08  An4  v092
 BYTE   N08  Dn5
 BYTE   N08  Fs5
 BYTE   W12
 BYTE   An4
 BYTE   N08  Dn5
 BYTE   N08  Fs5
 BYTE   W12
 BYTE   An4
 BYTE   N08  Dn5
 BYTE   N08  Fs5
 BYTE   W12
 BYTE   An4
 BYTE   N08  Dn5
 BYTE   N08  Fs5
 BYTE   W12
 BYTE   An4
 BYTE   N08  Cs5
 BYTE   N08  Fs5
 BYTE   W12
 BYTE   An4
 BYTE   N08  Cs5
 BYTE   N08  Fs5
 BYTE   W12
 BYTE   An4
 BYTE   N08  Cs5
 BYTE   N08  Fs5
 BYTE   W12
 BYTE   An4
 BYTE   N08  Cs5
 BYTE   N08  Fs5
 BYTE   W12
 BYTE   PEND 
//  #05 //012   ----------------------------------------
Label_0100F84B:
 BYTE   N08  An4  v092
 BYTE   N08  Cs5
 BYTE   N08  Fs5
 BYTE   W12
 BYTE   An4
 BYTE   N08  Cs5
 BYTE   N08  Fs5
 BYTE   W12
 BYTE   An4
 BYTE   N08  Cs5
 BYTE   N08  Fs5
 BYTE   W12
 BYTE   N12  Fs4
 BYTE   W03
 BYTE   N09  An4
 BYTE   W03
 BYTE   N06  Cs5
 BYTE   W03
 BYTE   N03  En5
 BYTE   W03
 BYTE   N96  An4
 BYTE   N96  Cs5
 BYTE   N96  En5
 BYTE   N96  Fs5
 BYTE   W48
 BYTE   PEND 
//  #05 //013   ----------------------------------------
Label_0100F875:
 BYTE   W48
 BYTE   N96  Bn4  v092
 BYTE   N96  Ds5
 BYTE   N96  Fs5
 BYTE   W48
 BYTE   PEND 
//  #05 //014   ----------------------------------------
Label_0100F87F:
 BYTE   W48
 BYTE   N96  An4  v092
 BYTE   N96  Dn5
 BYTE   N96  Fs5
 BYTE   W48
 BYTE   PEND 
//  #05 //015   ----------------------------------------
Label_0100F889:
 BYTE   W48
 BYTE   N48  As4  v092
 BYTE   N48  Cs5
 BYTE   N48  Fs5
 BYTE   W48
 BYTE   PEND 
//  #05 //016   ----------------------------------------
 BYTE   An4
 BYTE   N48  Cs5
 BYTE   N48  En5
 BYTE   W48
Label_0100F899:
 BYTE   TIE  Gn4  v092
 BYTE   W48
//  #05 //017   ----------------------------------------
Label_0100F89D:
 BYTE   N48  Bn4  v092
 BYTE   W48
 BYTE   Cs5
 BYTE   W48
 BYTE   PEND 
//  #05 //018   ----------------------------------------
 BYTE   Dn5
 BYTE   W48
 BYTE   EOT
 BYTE   Gn4
 BYTE   TIE
 BYTE   TIE  Gn5
 BYTE   W48
//  #05 //019   ----------------------------------------
 BYTE   PATT
  POIN2 Label_0100F89D
//  #05 //020   ----------------------------------------
 BYTE   N42  Dn5  v092
 BYTE   W42
 BYTE   EOT
 BYTE   Gn4  v091
 BYTE   W54
//  #05 //021   ----------------------------------------
 BYTE   W96
//  #05 //022   ----------------------------------------
 BYTE   W96
//  #05 //023   ----------------------------------------
 BYTE   W96
//  #05 //024   ----------------------------------------
 BYTE   W96
//  #05 //025   ----------------------------------------
 BYTE   W96
//  #05 //026   ----------------------------------------
 BYTE   W96
//  #05 //027   ----------------------------------------
 BYTE   W96
//  #05 //028   ----------------------------------------
Label_0100F8C0:
 BYTE   W36
 BYTE   N03  Fs4  v092
 BYTE   W03
 BYTE   N03
 BYTE   N03  Bn4
 BYTE   W03
 BYTE   Fs4
 BYTE   N03  Bn4
 BYTE   N03  Ds5
 BYTE   W03
 BYTE   Fs4
 BYTE   N03  Bn4
 BYTE   N03  Ds5
 BYTE   N03  Fs5
 BYTE   W03
 BYTE   N96  An4
 BYTE   N96  Cs5
 BYTE   N96  En5
 BYTE   N96  Fs5
 BYTE   W48
 BYTE   PEND 
//  #05 //029   ----------------------------------------
 BYTE   PATT
  POIN2 Label_0100F875
//  #05 //030   ----------------------------------------
Label_0100F8E6:
 BYTE   W48
 BYTE   N96  Bn4  v092
 BYTE   N96  En5
 BYTE   N96  Gn5
 BYTE   W48
 BYTE   PEND 
//  #05 //031   ----------------------------------------
 BYTE   PATT
  POIN2 Label_0100F875
//  #05 //032   ----------------------------------------
Label_0100F8F5:
 BYTE   W48
 BYTE   N96  An4  v092
 BYTE   N96  Cs5
 BYTE   N96  En5
 BYTE   N96  Fs5
 BYTE   W48
 BYTE   PEND 
//  #05 //033   ----------------------------------------
 BYTE   PATT
  POIN2 Label_0100F875
//  #05 //034   ----------------------------------------
 BYTE   PATT
  POIN2 Label_0100F8E6
//  #05 //035   ----------------------------------------
 BYTE   PATT
  POIN2 Label_0100F875
//  #05 //036   ----------------------------------------
Label_0100F910:
 BYTE   W48
 BYTE   N96  Gn4  v092
 BYTE   N96  Cn5
 BYTE   N96  En5
 BYTE   W48
 BYTE   PEND 
//  #05 //037   ----------------------------------------
 BYTE   PATT
  POIN2 Label_0100F87F
//  #05 //038   ----------------------------------------
Label_0100F91F:
 BYTE   W48
 BYTE   TIE  Bn4  v092
 BYTE   N96  En5
 BYTE   N96  Gn5
 BYTE   W48
 BYTE   PEND 
//  #05 //039   ----------------------------------------
Label_0100F929:
 BYTE   W48
 BYTE   N90  Ds5  v092
 BYTE   N90  Fs5
 BYTE   W48
 BYTE   PEND 
//  #05 //040   ----------------------------------------
 BYTE   W42
 BYTE   EOT
 BYTE   Bn4
 BYTE   W06
 BYTE   N96  Gn4
 BYTE   N96  Cn5
 BYTE   N96  En5
 BYTE   W48
//  #05 //041   ----------------------------------------
 BYTE   PATT
  POIN2 Label_0100F87F
//  #05 //042   ----------------------------------------
Label_0100F941:
 BYTE   W48
 BYTE   TIE  Bn4  v092
 BYTE   TIE  Ds5
 BYTE   TIE  Fs5
 BYTE   W48
 BYTE   PEND 
//  #05 //043   ----------------------------------------
 BYTE   W90
 BYTE   EOT
 BYTE   Bn4  v087
 BYTE   Fs5
 BYTE   W06
//  #05 //044   ----------------------------------------
 BYTE   N20  Gn4
 BYTE   N20  Cn5
 BYTE   N20  En5
 BYTE   W24
 BYTE   Fs4
 BYTE   N20  An4
 BYTE   N20  Dn5
 BYTE   W24
 BYTE   N96  An4
 BYTE   N96  Cs5
 BYTE   N96  En5
 BYTE   N96  Fs5
 BYTE   W48
//  #05 //045   ----------------------------------------
 BYTE   PATT
  POIN2 Label_0100F875
//  #05 //046   ----------------------------------------
 BYTE   PATT
  POIN2 Label_0100F8E6
//  #05 //047   ----------------------------------------
 BYTE   PATT
  POIN2 Label_0100F875
//  #05 //048   ----------------------------------------
 BYTE   PATT
  POIN2 Label_0100F8F5
//  #05 //049   ----------------------------------------
 BYTE   PATT
  POIN2 Label_0100F875
//  #05 //050   ----------------------------------------
 BYTE   PATT
  POIN2 Label_0100F8E6
//  #05 //051   ----------------------------------------
 BYTE   PATT
  POIN2 Label_0100F875
//  #05 //052   ----------------------------------------
 BYTE   W48
 BYTE   N90  Gn4  v092
 BYTE   N90  Cn5
 BYTE   N48  En5
 BYTE   N48  Cn6
 BYTE   W48
//  #05 //053   ----------------------------------------
 BYTE   PATT
  POIN2 Label_0100F748
//  #05 //054   ----------------------------------------
Label_0100F99A:
 BYTE   N16  Fs5  v092
 BYTE   N48  Gn5
 BYTE   W32
 BYTE   N16  Fs5
 BYTE   W16
 BYTE   N90  Gn4
 BYTE   N90  Cn5
 BYTE   N48  En5
 BYTE   N48  Fs5
 BYTE   W48
 BYTE   PEND 
//  #05 //055   ----------------------------------------
Label_0100F9AD:
 BYTE   N16  Fs5  v092
 BYTE   N48  Bn5
 BYTE   W16
 BYTE   N16  Gn5
 BYTE   W16
 BYTE   Fs5
 BYTE   W16
 BYTE   N90  Bn4
 BYTE   N48  En5
 BYTE   N48  An5
 BYTE   W48
 BYTE   PEND 
//  #05 //056   ----------------------------------------
Label_0100F9C0:
 BYTE   N48  Ds5  v092
 BYTE   N48  Bn5
 BYTE   W48
 BYTE   N96  Cn5
 BYTE   N96  En5
 BYTE   N16  Cn6
 BYTE   W16
 BYTE   Bn5
 BYTE   W16
 BYTE   An5
 BYTE   W16
 BYTE   PEND 
//  #05 //057   ----------------------------------------
Label_0100F9D2:
 BYTE   N16  Gn5  v092
 BYTE   W16
 BYTE   Fs5
 BYTE   W16
 BYTE   Gn5
 BYTE   W16
 BYTE   N48  Cn5
 BYTE   N48  En5
 BYTE   N48  An5
 BYTE   W48
 BYTE   PEND 
//  #05 //058   ----------------------------------------
Label_0100F9E2:
 BYTE   N48  Gn4  v092
 BYTE   N48  Cn5
 BYTE   N48  En5
 BYTE   W48
 BYTE   N90  Gn4
 BYTE   N90  Cn5
 BYTE   N48  Dn5
 BYTE   W48
 BYTE   PEND 
//  #05 //059   ----------------------------------------
Label_0100F9F2:
 BYTE   N16  En5  v092
 BYTE   W16
 BYTE   Dn5
 BYTE   W16
 BYTE   Fs5
 BYTE   W16
 BYTE   N90  An4
 BYTE   N90  Dn5
 BYTE   N16  Fs5
 BYTE   W16
 BYTE   En5
 BYTE   W16
 BYTE   Fs5
 BYTE   W16
 BYTE   PEND 
//  #05 //060   ----------------------------------------
 BYTE   An5
 BYTE   W16
 BYTE   Gn5
 BYTE   W16
 BYTE   Fs5
 BYTE   W16
 BYTE   TIE  Bn4
 BYTE   N90  En5
 BYTE   N90  Gn5
 BYTE   W48
//  #05 //061   ----------------------------------------
 BYTE   PATT
  POIN2 Label_0100F929
//  #05 //062   ----------------------------------------
 BYTE   W42
 BYTE   EOT
 BYTE   Bn4
 BYTE   W06
 BYTE   N90  Gn4  v092
 BYTE   N90  Cn5
 BYTE   N90  En5
 BYTE   W48
//  #05 //063   ----------------------------------------
Label_0100FA24:
 BYTE   W48
 BYTE   N90  An4  v092
 BYTE   N90  Cn5
 BYTE   N90  Ds5
 BYTE   N90  Fs5
 BYTE   W48
 BYTE   PEND 
//  #05 //064   ----------------------------------------
Label_0100FA30:
 BYTE   W48
 BYTE   TIE  Bn4  v092
 BYTE   N90  En5
 BYTE   N90  Gn5
 BYTE   W48
 BYTE   PEND 
//  #05 //065   ----------------------------------------
 BYTE   PATT
  POIN2 Label_0100F929
//  #05 //066   ----------------------------------------
 BYTE   W42
 BYTE   EOT
 BYTE   Bn4
 BYTE   W06
 BYTE   N90  Gn4  v092
 BYTE   N90  Cn5
 BYTE   N90  En5
 BYTE   W48
//  #05 //067   ----------------------------------------
Label_0100FA4B:
 BYTE   W48
 BYTE   N20  An4  v092
 BYTE   N20  Cn5
 BYTE   N20  Ds5
 BYTE   N20  Fs5
 BYTE   W24
 BYTE   Bn4
 BYTE   N20  Dn5
 BYTE   N20  En5
 BYTE   N20  Gn5
 BYTE   W24
 BYTE   PEND 
//  #05 //068   ----------------------------------------
 BYTE   Cn5
 BYTE   N20  En5
 BYTE   N20  Fs5
 BYTE   N20  An5
 BYTE   W24
 BYTE   Ds5
 BYTE   N20  Fs5
 BYTE   N20  Gn5
 BYTE   N20  Bn5
 BYTE   W24
 BYTE   N96  Gn4
 BYTE   N96  Cn5
 BYTE   N96  En5
 BYTE   W48
//  #05 //069   ----------------------------------------
 BYTE   PATT
  POIN2 Label_0100F87F
//  #05 //070   ----------------------------------------
 BYTE   PATT
  POIN2 Label_0100F91F
//  #05 //071   ----------------------------------------
 BYTE   PATT
  POIN2 Label_0100F929
//  #05 //072   ----------------------------------------
 BYTE   W42
 BYTE   EOT
 BYTE   Bn4
 BYTE   W06
 BYTE   N96  Gn4  v092
 BYTE   N96  Cn5
 BYTE   N96  En5
 BYTE   W48
//  #05 //073   ----------------------------------------
 BYTE   PATT
  POIN2 Label_0100F87F
//  #05 //074   ----------------------------------------
 BYTE   PATT
  POIN2 Label_0100F941
//  #05 //075   ----------------------------------------
 BYTE   W90
 BYTE   EOT
 BYTE   Bn4  v087
 BYTE   Fs5
 BYTE   W06
//  #05 //076   ----------------------------------------
 BYTE   N20  Gn4  v092
 BYTE   N20  Cn5
 BYTE   N20  En5
 BYTE   W24
 BYTE   Fs4
 BYTE   N20  An4
 BYTE   N20  Dn5
 BYTE   W24
 BYTE   N90  Gn4
 BYTE   N90  Cn5
 BYTE   N48  En5
 BYTE   N48  Cn6
 BYTE   W48
//  #05 //077   ----------------------------------------
 BYTE   PATT
  POIN2 Label_0100F748
//  #05 //078   ----------------------------------------
 BYTE   PATT
  POIN2 Label_0100F99A
//  #05 //079   ----------------------------------------
 BYTE   PATT
  POIN2 Label_0100F9AD
//  #05 //080   ----------------------------------------
 BYTE   PATT
  POIN2 Label_0100F9C0
//  #05 //081   ----------------------------------------
 BYTE   PATT
  POIN2 Label_0100F9D2
//  #05 //082   ----------------------------------------
 BYTE   PATT
  POIN2 Label_0100F9E2
//  #05 //083   ----------------------------------------
 BYTE   PATT
  POIN2 Label_0100F9F2
//  #05 //084   ----------------------------------------
 BYTE   N16  An5  v092
 BYTE   W16
 BYTE   Gn5
 BYTE   W16
 BYTE   Fs5
 BYTE   W16
 BYTE   N08  An4
 BYTE   N08  Cs5
 BYTE   N08  En5
 BYTE   N08  Fs5
 BYTE   W12
 BYTE   An4
 BYTE   N08  Cs5
 BYTE   N08  En5
 BYTE   N08  Fs5
 BYTE   W12
 BYTE   An4
 BYTE   N08  Cs5
 BYTE   N08  En5
 BYTE   N08  Fs5
 BYTE   W12
 BYTE   An4
 BYTE   N08  Cs5
 BYTE   N08  En5
 BYTE   N08  Fs5
 BYTE   W12
//  #05 //085   ----------------------------------------
 BYTE   PATT
  POIN2 Label_0100F7AA
//  #05 //086   ----------------------------------------
 BYTE   PATT
  POIN2 Label_0100F7E5
//  #05 //087   ----------------------------------------
 BYTE   PATT
  POIN2 Label_0100F818
//  #05 //088   ----------------------------------------
 BYTE   PATT
  POIN2 Label_0100F84B
//  #05 //089   ----------------------------------------
 BYTE   PATT
  POIN2 Label_0100F875
//  #05 //090   ----------------------------------------
 BYTE   PATT
  POIN2 Label_0100F87F
//  #05 //091   ----------------------------------------
 BYTE   PATT
  POIN2 Label_0100F889
//  #05 //092   ----------------------------------------
 BYTE   N48  An4  v092
 BYTE   N48  Cs5
 BYTE   N48  En5
 BYTE   W48
 BYTE   TIE  Gn4
 BYTE   W48
//  #05 //093   ----------------------------------------
 BYTE   PATT
  POIN2 Label_0100F89D
//  #05 //094   ----------------------------------------
 BYTE   N48  Dn5  v092
 BYTE   W48
 BYTE   EOT
 BYTE   Gn4
 BYTE   TIE
 BYTE   TIE  Gn5
 BYTE   W48
//  #05 //095   ----------------------------------------
 BYTE   PATT
  POIN2 Label_0100F89D
//  #05 //096   ----------------------------------------
 BYTE   N32  Dn5  v092
 BYTE   W32
 BYTE   EOT
 BYTE   Gn4
 BYTE   W04
 BYTE   PAN   c_v+0
 BYTE   N02  An4  v127
 BYTE   W03
 BYTE   Bn4
 BYTE   W03
 BYTE   EOT
 BYTE   Gn5
 BYTE   N02  Cs5
 BYTE   W03
 BYTE   Dn5
 BYTE   W03
 BYTE   N04  En5
 BYTE   W12
 BYTE   Cs5
 BYTE   W12
 BYTE   An4
 BYTE   W12
 BYTE   En5
 BYTE   W12
//  #05 //097   ----------------------------------------
 BYTE   N15  Fs5
 BYTE   W16
 BYTE   Cs5
 BYTE   W16
 BYTE   Fs5
 BYTE   W16
 BYTE   N04
 BYTE   W12
 BYTE   Cs5
 BYTE   W12
 BYTE   Ds5
 BYTE   W06
 BYTE   Cs5
 BYTE   W12
 BYTE   N24  Ds5
 BYTE   W06
//  #05 //098   ----------------------------------------
 BYTE   W24
 BYTE   N05
 BYTE   W06
 BYTE   En5
 BYTE   W06
 BYTE   Fs5
 BYTE   W06
 BYTE   An5
 BYTE   W06
 BYTE   N04  Gn5
 BYTE   W12
 BYTE   Fs5
 BYTE   W12
 BYTE   En5
 BYTE   W12
 BYTE   Gn5
 BYTE   W12
//  #05 //099   ----------------------------------------
 BYTE   N15  Bn5
 BYTE   W16
 BYTE   Cn6
 BYTE   W16
 BYTE   An5
 BYTE   W16
 BYTE   N04  Bn5
 BYTE   W12
 BYTE   An5
 BYTE   W12
 BYTE   Bn5
 BYTE   W06
 BYTE   Cn6
 BYTE   W12
 BYTE   N24  Bn5
 BYTE   W06
//  #05 //100   ----------------------------------------
 BYTE   W24
 BYTE   N05
 BYTE   W06
 BYTE   An5
 BYTE   W06
 BYTE   Gn5
 BYTE   W06
 BYTE   Fs5
 BYTE   W06
 BYTE   En5
 BYTE   W06
 BYTE   Dn5
 BYTE   W06
 BYTE   Cs5
 BYTE   W06
 BYTE   En5
 BYTE   W06
 BYTE   Fs5
 BYTE   W06
 BYTE   En5
 BYTE   W06
 BYTE   Dn5
 BYTE   W06
 BYTE   Cs5
 BYTE   W06
//  #05 //101   ----------------------------------------
 BYTE   N04  An4
 BYTE   N04  Cs5
 BYTE   N04  En5
 BYTE   N04  Fs5
 BYTE   W06
 BYTE   An4
 BYTE   N04  Cs5
 BYTE   N04  En5
 BYTE   N04  Fs5
 BYTE   W12
 BYTE   An4
 BYTE   N04  Cs5
 BYTE   N04  En5
 BYTE   N04  Fs5
 BYTE   W06
 BYTE   An4
 BYTE   N04  Cs5
 BYTE   N04  En5
 BYTE   N04  Fs5
 BYTE   W06
 BYTE   An4
 BYTE   N04  Cs5
 BYTE   N04  En5
 BYTE   N04  Fs5
 BYTE   W12
 BYTE   An4
 BYTE   N04  Cs5
 BYTE   N04  En5
 BYTE   N04  Fs5
 BYTE   W06
 BYTE   N05  Fs4
 BYTE   N05  Bn4
 BYTE   N05  Ds5
 BYTE   W06
 BYTE   N11  Bn4
 BYTE   W12
 BYTE   N05  Fs4
 BYTE   N05  Bn4
 BYTE   N05  Ds5
 BYTE   W06
 BYTE   N11  Bn4
 BYTE   W12
 BYTE   N20  Fs4
 BYTE   N20  Bn4
 BYTE   N20  Ds5
 BYTE   W12
//  #05 //102   ----------------------------------------
 BYTE   W12
 BYTE   N02  Bn4
 BYTE   W03
 BYTE   Ds5
 BYTE   W03
 BYTE   Fs5
 BYTE   W03
 BYTE   Ds5
 BYTE   W03
 BYTE   Bn4
 BYTE   W03
 BYTE   Ds5
 BYTE   W03
 BYTE   Fs5
 BYTE   W03
 BYTE   Ds5
 BYTE   W03
 BYTE   Bn4
 BYTE   W03
 BYTE   Ds5
 BYTE   W03
 BYTE   Fs5
 BYTE   W03
 BYTE   Ds5
 BYTE   W03
 BYTE   N07  Bn5
 BYTE   W08
 BYTE   An5
 BYTE   W08
 BYTE   Bn5
 BYTE   W08
 BYTE   Cn6
 BYTE   W08
 BYTE   An5
 BYTE   W08
 BYTE   Cn6
 BYTE   W08
//  #05 //103   ----------------------------------------
 BYTE   Bn5
 BYTE   W08
 BYTE   An5
 BYTE   W08
 BYTE   Gn5
 BYTE   W08
 BYTE   En5
 BYTE   W08
 BYTE   Fs5
 BYTE   W08
 BYTE   En5
 BYTE   W08
 BYTE   N15  Ds4
 BYTE   N15  Fs4
 BYTE   N15  Bn4
 BYTE   W16
 BYTE   Fs4
 BYTE   N15  Bn4
 BYTE   N15  Ds5
 BYTE   W16
 BYTE   Bn4
 BYTE   N15  Ds5
 BYTE   N15  Fs5
 BYTE   W16
//  #05 //104   ----------------------------------------
 BYTE   Ds5
 BYTE   N15  Fs5
 BYTE   N15  Bn5
 BYTE   W16
 BYTE   Fs5
 BYTE   N15  Bn5
 BYTE   N15  Ds6
 BYTE   W16
 BYTE   Bn5
 BYTE   N15  Ds6
 BYTE   N15  Fs6
 BYTE   W16
 BYTE   N42  An4
 BYTE   N42  Cs5
 BYTE   N42  En5
 BYTE   N42  Fs5
 BYTE   W48
//  #05 //105   ----------------------------------------
 BYTE   N05  En5
 BYTE   W06
 BYTE   Cs5
 BYTE   W06
 BYTE   An4
 BYTE   W06
 BYTE   En5
 BYTE   W06
 BYTE   Fs5
 BYTE   W06
 BYTE   En5
 BYTE   W06
 BYTE   Fs5
 BYTE   W06
 BYTE   An5
 BYTE   W06
 BYTE   N42  Bn4
 BYTE   N42  Ds5
 BYTE   N42  Fs5
 BYTE   W48
//  #05 //106   ----------------------------------------
 BYTE   N05
 BYTE   W06
 BYTE   Ds5
 BYTE   W06
 BYTE   Bn4
 BYTE   W06
 BYTE   Ds5
 BYTE   W06
 BYTE   Bn5
 BYTE   W06
 BYTE   Fs5
 BYTE   W06
 BYTE   Ds5
 BYTE   W06
 BYTE   Fs5
 BYTE   W06
 BYTE   N04  Bn4
 BYTE   N04  En5
 BYTE   N04  Gn5
 BYTE   W06
 BYTE   Bn4
 BYTE   N04  En5
 BYTE   N04  Gn5
 BYTE   W12
 BYTE   Bn4
 BYTE   N04  En5
 BYTE   N04  Gn5
 BYTE   W06
 BYTE   Bn4
 BYTE   N04  En5
 BYTE   N04  Gn5
 BYTE   W06
 BYTE   Bn4
 BYTE   N04  En5
 BYTE   N04  Gn5
 BYTE   W12
 BYTE   Bn4
 BYTE   N04  En5
 BYTE   N04  Gn5
 BYTE   W06
//  #05 //107   ----------------------------------------
 BYTE   Bn4
 BYTE   N04  En5
 BYTE   N04  Gn5
 BYTE   W06
 BYTE   Bn4
 BYTE   N04  En5
 BYTE   N04  Gn5
 BYTE   W12
 BYTE   Bn4
 BYTE   N04  En5
 BYTE   N04  Gn5
 BYTE   W06
 BYTE   Bn4
 BYTE   N04  En5
 BYTE   N04  Gn5
 BYTE   W06
 BYTE   Bn4
 BYTE   N04  En5
 BYTE   N04  Gn5
 BYTE   W12
 BYTE   Bn4
 BYTE   N04  En5
 BYTE   N04  Gn5
 BYTE   W06
 BYTE   N03  Bn5
 BYTE   W04
 BYTE   Fs5
 BYTE   W04
 BYTE   Bn5
 BYTE   W04
 BYTE   Fs5
 BYTE   W04
 BYTE   Ds5
 BYTE   W04
 BYTE   Fs5
 BYTE   W04
 BYTE   Ds5
 BYTE   W04
 BYTE   Bn4
 BYTE   W04
 BYTE   Ds5
 BYTE   W04
 BYTE   Bn4
 BYTE   W04
 BYTE   Fs4
 BYTE   W04
 BYTE   Bn4
 BYTE   W04
//  #05 //108   ----------------------------------------
 BYTE   N05
 BYTE   N05  Ds5
 BYTE   N05  Fs5
 BYTE   W16
 BYTE   Bn4
 BYTE   N05  Ds5
 BYTE   N05  Fs5
 BYTE   W16
 BYTE   Bn4
 BYTE   N05  Ds5
 BYTE   N05  Fs5
 BYTE   W16
 BYTE   N15  An5
 BYTE   W16
 BYTE   Gs5
 BYTE   W16
 BYTE   Fs5
 BYTE   W16
//  #05 //109   ----------------------------------------
 BYTE   En5
 BYTE   W16
 BYTE   Dn5
 BYTE   W16
 BYTE   Cs5
 BYTE   W16
 BYTE   Ds5
 BYTE   W16
 BYTE   En5
 BYTE   W16
 BYTE   Fs5
 BYTE   W16
//  #05 //110   ----------------------------------------
 BYTE   An5
 BYTE   W16
 BYTE   Gn5
 BYTE   W16
 BYTE   Fs5
 BYTE   W16
 BYTE   N05  Gn5
 BYTE   W06
 BYTE   Fs5
 BYTE   W06
 BYTE   En5
 BYTE   W06
 BYTE   Gn5
 BYTE   W06
 BYTE   Bn5
 BYTE   W06
 BYTE   An5
 BYTE   W06
 BYTE   Gn5
 BYTE   W06
 BYTE   Bn5
 BYTE   W06
//  #05 //111   ----------------------------------------
 BYTE   Cn6
 BYTE   W06
 BYTE   Bn5
 BYTE   W06
 BYTE   An5
 BYTE   W06
 BYTE   Cn6
 BYTE   W06
 BYTE   Bn5
 BYTE   W06
 BYTE   An5
 BYTE   W06
 BYTE   Gn5
 BYTE   W06
 BYTE   Fs5
 BYTE   W06
 BYTE   N80  Bn4
 BYTE   N80  Ds5
 BYTE   N80  Fs5
 BYTE   W48
//  #05 //112   ----------------------------------------
 BYTE   W36
 BYTE   N02  Fs4
 BYTE   N02  Bn4
 BYTE   N02  Ds5
 BYTE   W03
 BYTE   Ds4
 BYTE   N02  Fs4
 BYTE   N02  Bn4
 BYTE   W03
 BYTE   Bn3
 BYTE   N02  Ds4
 BYTE   N02  Fs4
 BYTE   W03
 BYTE   Fs3
 BYTE   N02  Bn3
 BYTE   N02  Ds4
 BYTE   W03
 BYTE   PAN   c_v+32
 BYTE   N96  Gn4  v092
 BYTE   N96  Cn5
 BYTE   N96  En5
 BYTE   W48
//  #05 //113   ----------------------------------------
 BYTE   PATT
  POIN2 Label_0100F87F
//  #05 //114   ----------------------------------------
 BYTE   PATT
  POIN2 Label_0100F91F
//  #05 //115   ----------------------------------------
 BYTE   PATT
  POIN2 Label_0100F929
//  #05 //116   ----------------------------------------
 BYTE   W42
 BYTE   EOT
 BYTE   Bn4
 BYTE   W06
 BYTE   N96  Gn4  v092
 BYTE   N96  Cn5
 BYTE   N96  En5
 BYTE   W48
//  #05 //117   ----------------------------------------
 BYTE   PATT
  POIN2 Label_0100F87F
//  #05 //118   ----------------------------------------
 BYTE   PATT
  POIN2 Label_0100F941
//  #05 //119   ----------------------------------------
 BYTE   W90
 BYTE   EOT
 BYTE   Bn4  v087
 BYTE   Fs5
 BYTE   W06
//  #05 //120   ----------------------------------------
 BYTE   N20  Gn4  v092
 BYTE   N20  Cn5
 BYTE   N20  En5
 BYTE   W24
 BYTE   Fs4
 BYTE   N20  An4
 BYTE   N20  Dn5
 BYTE   W24
 BYTE   TIE  Gn4
 BYTE   N90  Bn4
 BYTE   TIE  En5
 BYTE   W48
//  #05 //121   ----------------------------------------
Label_0100FDA3:
 BYTE   W48
 BYTE   N90  As4  v092
 BYTE   N90  Cs5
 BYTE   W48
 BYTE   PEND 
//  #05 //122   ----------------------------------------
 BYTE   W48
 BYTE   Bn4
 BYTE   W48
//  #05 //123   ----------------------------------------
 BYTE   W48
 BYTE   N96  As4
 BYTE   N96  Cs5
 BYTE   W48
//  #05 //124   ----------------------------------------
 BYTE   W48
 BYTE   EOT
 BYTE   Gn4  v088
 BYTE   TIE  Gn4
 BYTE   N90  Bn4
 BYTE   TIE  En5
 BYTE   W48
//  #05 //125   ----------------------------------------
 BYTE   PATT
  POIN2 Label_0100FDA3
//  #05 //126   ----------------------------------------
 BYTE   W48
 BYTE   N90  Bn4  v092
 BYTE   W48
//  #05 //127   ----------------------------------------
 BYTE   W48
 BYTE   N66  As4
 BYTE   N66  Cs5
 BYTE   W48
//  #05 //128   ----------------------------------------
 BYTE   W18
 BYTE   EOT
 BYTE   Gn4  v088
 BYTE   W06
 BYTE   N11  Gn4
 BYTE   N11  As4
 BYTE   N11  Cs5
 BYTE   N11  En5
 BYTE   W12
 BYTE   N02  Gn4
 BYTE   W03
 BYTE   As4
 BYTE   W03
 BYTE   Cs5
 BYTE   W03
 BYTE   En5
 BYTE   W03
 BYTE   N04  Gn4
 BYTE   N04  Bn4
 BYTE   N04  En5
 BYTE   W12
 BYTE   Gn4
 BYTE   N04  Bn4
 BYTE   N04  En5
 BYTE   W12
 BYTE   Gn4
 BYTE   N04  Bn4
 BYTE   N04  En5
 BYTE   W12
 BYTE   Gn4
 BYTE   N04  Bn4
 BYTE   N04  En5
 BYTE   W12
//  #05 //129   ----------------------------------------
Label_0100FDFF:
 BYTE   N04  Gn4  v092
 BYTE   N04  Bn4
 BYTE   N04  En5
 BYTE   W12
 BYTE   Gn4
 BYTE   N04  Bn4
 BYTE   N04  En5
 BYTE   W12
 BYTE   Gn4
 BYTE   N04  Bn4
 BYTE   N04  En5
 BYTE   W12
 BYTE   Gn4
 BYTE   N04  Bn4
 BYTE   N04  En5
 BYTE   W12
 BYTE   Gn4
 BYTE   N04  As4
 BYTE   N04  Cs5
 BYTE   N04  En5
 BYTE   W12
 BYTE   Gn4
 BYTE   N04  As4
 BYTE   N04  Cs5
 BYTE   N04  En5
 BYTE   W12
 BYTE   Gn4
 BYTE   N04  As4
 BYTE   N04  Cs5
 BYTE   N04  En5
 BYTE   W12
 BYTE   Gn4
 BYTE   N04  As4
 BYTE   N04  Cs5
 BYTE   N04  En5
 BYTE   W12
 BYTE   PEND 
//  #05 //130   ----------------------------------------
Label_0100FE3A:
 BYTE   N04  Gn4  v092
 BYTE   N04  As4
 BYTE   N04  Cs5
 BYTE   N04  En5
 BYTE   W12
 BYTE   Gn4
 BYTE   N04  As4
 BYTE   N04  Cs5
 BYTE   N04  En5
 BYTE   W12
 BYTE   Gn4
 BYTE   N04  As4
 BYTE   N04  Cs5
 BYTE   N04  En5
 BYTE   W12
 BYTE   Gn4
 BYTE   N04  As4
 BYTE   N04  Cs5
 BYTE   N04  En5
 BYTE   W12
 BYTE   Gn4
 BYTE   N04  Bn4
 BYTE   N04  En5
 BYTE   W12
 BYTE   Gn4
 BYTE   N04  Bn4
 BYTE   N04  En5
 BYTE   W12
 BYTE   Gn4
 BYTE   N04  Bn4
 BYTE   N04  En5
 BYTE   W12
 BYTE   Gn4
 BYTE   N04  Bn4
 BYTE   N04  En5
 BYTE   W12
 BYTE   PEND 
//  #05 //131   ----------------------------------------
 BYTE   PATT
  POIN2 Label_0100FDFF
//  #05 //132   ----------------------------------------
 BYTE   PATT
  POIN2 Label_0100FE3A
//  #05 //133   ----------------------------------------
 BYTE   PATT
  POIN2 Label_0100FDFF
//  #05 //134   ----------------------------------------
 BYTE   PATT
  POIN2 Label_0100FE3A
//  #05 //135   ----------------------------------------
 BYTE   PATT
  POIN2 Label_0100FDFF
//  #05 //136   ----------------------------------------
 BYTE   N04  Gn4  v092
 BYTE   N04  As4
 BYTE   N04  Cs5
 BYTE   N04  En5
 BYTE   W12
 BYTE   Gn4
 BYTE   N04  As4
 BYTE   N04  Cs5
 BYTE   N04  En5
 BYTE   W12
 BYTE   Gn4
 BYTE   N04  As4
 BYTE   N04  Cs5
 BYTE   N04  En5
 BYTE   W12
 BYTE   Gn4
 BYTE   N04  As4
 BYTE   N04  Cs5
 BYTE   N04  En5
 BYTE   W12
 BYTE   TIE  An4
 BYTE   N90  Bn4
 BYTE   TIE  Dn5
 BYTE   N90  Gn5
 BYTE   W48
//  #05 //137   ----------------------------------------
 BYTE   W48
 BYTE   Fs5
 BYTE   W48
//  #05 //138   ----------------------------------------
 BYTE   W42
 BYTE   EOT
 BYTE   An4  v086
 BYTE   W54
//  #05 //139   ----------------------------------------
 BYTE   W96
//  #05 //140   ----------------------------------------
 BYTE   W96
//  #05 //141   ----------------------------------------
 BYTE   W96
//  #05 //142   ----------------------------------------
 BYTE   W96
//  #05 //143   ----------------------------------------
 BYTE   W96
//  #05 //144   ----------------------------------------
 BYTE   W96
//  #05 //145   ----------------------------------------
 BYTE   W96
//  #05 //146   ----------------------------------------
 BYTE   W96
//  #05 //147   ----------------------------------------
 BYTE   PATT
  POIN2 Label_0100F8C0
//  #05 //148   ----------------------------------------
 BYTE   PATT
  POIN2 Label_0100F875
//  #05 //149   ----------------------------------------
 BYTE   PATT
  POIN2 Label_0100F8E6
//  #05 //150   ----------------------------------------
 BYTE   PATT
  POIN2 Label_0100F875
//  #05 //151   ----------------------------------------
 BYTE   PATT
  POIN2 Label_0100F8F5
//  #05 //152   ----------------------------------------
 BYTE   PATT
  POIN2 Label_0100F875
//  #05 //153   ----------------------------------------
 BYTE   PATT
  POIN2 Label_0100F8E6
//  #05 //154   ----------------------------------------
 BYTE   PATT
  POIN2 Label_0100F875
//  #05 //155   ----------------------------------------
 BYTE   PATT
  POIN2 Label_0100F910
//  #05 //156   ----------------------------------------
 BYTE   PATT
  POIN2 Label_0100F87F
//  #05 //157   ----------------------------------------
 BYTE   PATT
  POIN2 Label_0100F91F
//  #05 //158   ----------------------------------------
 BYTE   PATT
  POIN2 Label_0100F929
//  #05 //159   ----------------------------------------
 BYTE   W42
 BYTE   EOT
 BYTE   Bn4
 BYTE   W06
 BYTE   N96  Gn4  v092
 BYTE   N96  Cn5
 BYTE   N96  En5
 BYTE   W48
//  #05 //160   ----------------------------------------
 BYTE   PATT
  POIN2 Label_0100F87F
//  #05 //161   ----------------------------------------
 BYTE   PATT
  POIN2 Label_0100F941
//  #05 //162   ----------------------------------------
 BYTE   W90
 BYTE   EOT
 BYTE   Bn4  v087
 BYTE   Fs5
 BYTE   W06
//  #05 //163   ----------------------------------------
 BYTE   N20  Gn4  v092
 BYTE   N20  Cn5
 BYTE   N20  En5
 BYTE   W24
 BYTE   Fs4
 BYTE   N20  An4
 BYTE   N20  Dn5
 BYTE   W24
 BYTE   TIE  Bn4
 BYTE   N90  En5
 BYTE   N90  Gn5
 BYTE   W48
//  #05 //164   ----------------------------------------
 BYTE   PATT
  POIN2 Label_0100F929
//  #05 //165   ----------------------------------------
 BYTE   W42
 BYTE   EOT
 BYTE   Bn4
 BYTE   W06
 BYTE   N90  Gn4  v092
 BYTE   N90  Cn5
 BYTE   N90  En5
 BYTE   W48
//  #05 //166   ----------------------------------------
 BYTE   PATT
  POIN2 Label_0100FA24
//  #05 //167   ----------------------------------------
 BYTE   PATT
  POIN2 Label_0100FA30
//  #05 //168   ----------------------------------------
 BYTE   PATT
  POIN2 Label_0100F929
//  #05 //169   ----------------------------------------
 BYTE   W42
 BYTE   EOT
 BYTE   Bn4
 BYTE   W06
 BYTE   N90  Gn4  v092
 BYTE   N90  Cn5
 BYTE   N90  En5
 BYTE   W48
//  #05 //170   ----------------------------------------
 BYTE   PATT
  POIN2 Label_0100FA4B
//  #05 //171   ----------------------------------------
 BYTE   N20  Cn5  v092
 BYTE   N20  En5
 BYTE   N20  Fs5
 BYTE   N20  An5
 BYTE   W24
 BYTE   Ds5
 BYTE   N20  Fs5
 BYTE   N20  Gn5
 BYTE   N20  Bn5
 BYTE   W60
 BYTE   N02  En4
 BYTE   W03
 BYTE   Gn4
 BYTE   W03
 BYTE   Cn5
 BYTE   W03
 BYTE   En5
 BYTE   W03
//  #05 //172   ----------------------------------------
Label_0100FF82:
 BYTE   N96  Gn4  v092
 BYTE   N96  Cn5
 BYTE   N96  En5
 BYTE   W96
 BYTE   PEND 
//  #05 //173   ----------------------------------------
Label_0100FF8B:
 BYTE   N96  An4  v092
 BYTE   N96  Dn5
 BYTE   N96  Fs5
 BYTE   W96
 BYTE   PEND 
//  #05 //174   ----------------------------------------
 BYTE   TIE  Bn4
 BYTE   N96  En5
 BYTE   N96  Gn5
 BYTE   W96
//  #05 //175   ----------------------------------------
 BYTE   N90  Ds5
 BYTE   N90  Fs5
 BYTE   W90
 BYTE   EOT
 BYTE   Bn4
 BYTE   W06
//  #05 //176   ----------------------------------------
 BYTE   PATT
  POIN2 Label_0100FF82
//  #05 //177   ----------------------------------------
 BYTE   PATT
  POIN2 Label_0100FF8B
//  #05 //178   ----------------------------------------
 BYTE   TIE  Bn4  v092
 BYTE   TIE  Ds5
 BYTE   TIE  Fs5
 BYTE   W96
//  #05 //179   ----------------------------------------
 BYTE   W42
 BYTE   EOT
 BYTE   Bn4  v087
 BYTE   Fs5
 BYTE   W06
 BYTE   N20  Gn4
 BYTE   N20  Cn5
 BYTE   N20  En5
 BYTE   W24
 BYTE   Fs4
 BYTE   N20  An4
 BYTE   N20  Dn5
 BYTE   W24
//  #05 //180   ----------------------------------------
 BYTE   N90  Gn4
 BYTE   N90  Cn5
 BYTE   N48  En5
 BYTE   N48  Cn6
 BYTE   W48
 BYTE   N16  Fs5
 BYTE   N48  Bn5
 BYTE   W16
 BYTE   N16  Gn5
 BYTE   W16
 BYTE   Fs5
 BYTE   W16
//  #05 //181   ----------------------------------------
 BYTE   N90  Gn4
 BYTE   N90  Cn5
 BYTE   N48  En5
 BYTE   N48  An5
 BYTE   W48
 BYTE   N16  Fs5
 BYTE   N48  Gn5
 BYTE   W32
 BYTE   N16  Fs5
 BYTE   W16
//  #05 //182   ----------------------------------------
 BYTE   N90  Gn4
 BYTE   N90  Cn5
 BYTE   N48  En5
 BYTE   N48  Fs5
 BYTE   W48
 BYTE   N16
 BYTE   N48  Bn5
 BYTE   W16
 BYTE   N16  Gn5
 BYTE   W16
 BYTE   Fs5
 BYTE   W16
//  #05 //183   ----------------------------------------
 BYTE   N90  Bn4
 BYTE   N48  En5
 BYTE   N48  An5
 BYTE   W48
 BYTE   Ds5
 BYTE   N48  Bn5
 BYTE   W48
//  #05 //184   ----------------------------------------
 BYTE   N96  Cn5
 BYTE   N96  En5
 BYTE   N16  Cn6
 BYTE   W16
 BYTE   Bn5
 BYTE   W16
 BYTE   An5
 BYTE   W16
 BYTE   Gn5
 BYTE   W16
 BYTE   Fs5
 BYTE   W16
 BYTE   Gn5
 BYTE   W16
//  #05 //185   ----------------------------------------
 BYTE   N48  Cn5
 BYTE   N48  En5
 BYTE   N48  An5
 BYTE   W48
 BYTE   Gn4
 BYTE   N48  Cn5
 BYTE   N48  En5
 BYTE   W48
//  #05 //186   ----------------------------------------
 BYTE   N90  Gn4
 BYTE   N90  Cn5
 BYTE   N48  Dn5
 BYTE   W48
 BYTE   N16  En5
 BYTE   W16
 BYTE   Dn5
 BYTE   W16
 BYTE   Fs5
 BYTE   W16
//  #05 //187   ----------------------------------------
 BYTE   N90  An4
 BYTE   N90  Dn5
 BYTE   N16  Fs5
 BYTE   W16
 BYTE   En5
 BYTE   W16
 BYTE   Fs5
 BYTE   W16
 BYTE   An5
 BYTE   W16
 BYTE   Gn5
 BYTE   W16
 BYTE   Fs5
 BYTE   W16
//  #05 //188   ----------------------------------------
Label_01010046:
 BYTE   N08  An4  v092
 BYTE   N08  Cs5
 BYTE   N08  En5
 BYTE   N08  Fs5
 BYTE   W12
 BYTE   An4
 BYTE   N08  Cs5
 BYTE   N08  En5
 BYTE   N08  Fs5
 BYTE   W12
 BYTE   An4
 BYTE   N08  Cs5
 BYTE   N08  En5
 BYTE   N08  Fs5
 BYTE   W12
 BYTE   An4
 BYTE   N08  Cs5
 BYTE   N08  En5
 BYTE   N08  Fs5
 BYTE   W12
 BYTE   An4
 BYTE   N08  Cs5
 BYTE   N08  En5
 BYTE   N08  Fs5
 BYTE   W12
 BYTE   An4
 BYTE   N08  Cs5
 BYTE   N08  En5
 BYTE   N08  Fs5
 BYTE   W12
 BYTE   An4
 BYTE   N08  Cs5
 BYTE   N08  En5
 BYTE   N08  Fs5
 BYTE   W12
 BYTE   An4
 BYTE   N08  Cs5
 BYTE   N08  En5
 BYTE   N08  Fs5
 BYTE   W12
 BYTE   PEND 
//  #05 //189   ----------------------------------------
Label_01010089:
 BYTE   N08  Bn4  v092
 BYTE   N08  Ds5
 BYTE   N08  Fs5
 BYTE   W12
 BYTE   Bn4
 BYTE   N08  Ds5
 BYTE   N08  Fs5
 BYTE   W12
 BYTE   Bn4
 BYTE   N08  Ds5
 BYTE   N08  Fs5
 BYTE   W12
 BYTE   Bn4
 BYTE   N08  Ds5
 BYTE   N08  Fs5
 BYTE   W12
 BYTE   Bn4
 BYTE   N08  Ds5
 BYTE   N08  Fs5
 BYTE   W12
 BYTE   Bn4
 BYTE   N08  Ds5
 BYTE   N08  Fs5
 BYTE   W12
 BYTE   Bn4
 BYTE   N08  Ds5
 BYTE   N08  Fs5
 BYTE   W12
 BYTE   Bn4
 BYTE   N08  Ds5
 BYTE   N08  Fs5
 BYTE   W12
 BYTE   PEND 
//  #05 //190   ----------------------------------------
Label_010100BC:
 BYTE   N08  An4  v092
 BYTE   N08  Dn5
 BYTE   N08  Fs5
 BYTE   W12
 BYTE   An4
 BYTE   N08  Dn5
 BYTE   N08  Fs5
 BYTE   W12
 BYTE   An4
 BYTE   N08  Dn5
 BYTE   N08  Fs5
 BYTE   W12
 BYTE   An4
 BYTE   N08  Dn5
 BYTE   N08  Fs5
 BYTE   W12
 BYTE   An4
 BYTE   N08  Dn5
 BYTE   N08  Fs5
 BYTE   W12
 BYTE   An4
 BYTE   N08  Dn5
 BYTE   N08  Fs5
 BYTE   W12
 BYTE   An4
 BYTE   N08  Dn5
 BYTE   N08  Fs5
 BYTE   W12
 BYTE   An4
 BYTE   N08  Dn5
 BYTE   N08  Fs5
 BYTE   W12
 BYTE   PEND 
//  #05 //191   ----------------------------------------
 BYTE   An4
 BYTE   N08  Cs5
 BYTE   N08  Fs5
 BYTE   W12
 BYTE   An4
 BYTE   N08  Cs5
 BYTE   N08  Fs5
 BYTE   W12
 BYTE   An4
 BYTE   N08  Cs5
 BYTE   N08  Fs5
 BYTE   W12
 BYTE   An4
 BYTE   N08  Cs5
 BYTE   N08  Fs5
 BYTE   W12
 BYTE   An4
 BYTE   N08  Cs5
 BYTE   N08  Fs5
 BYTE   W12
 BYTE   An4
 BYTE   N08  Cs5
 BYTE   N08  Fs5
 BYTE   W12
 BYTE   An4
 BYTE   N08  Cs5
 BYTE   N08  Fs5
 BYTE   W12
 BYTE   An4
 BYTE   N08  Cs5
 BYTE   N08  Fs5
 BYTE   W12
//  #05 //192   ----------------------------------------
 BYTE   PATT
  POIN2 Label_01010046
//  #05 //193   ----------------------------------------
 BYTE   PATT
  POIN2 Label_01010089
//  #05 //194   ----------------------------------------
 BYTE   PATT
  POIN2 Label_010100BC
//  #05 //195   ----------------------------------------
 BYTE   N08  An4  v092
 BYTE   N08  Cs5
 BYTE   N08  Fs5
 BYTE   W12
 BYTE   An4
 BYTE   N08  Cs5
 BYTE   N08  Fs5
 BYTE   W12
 BYTE   An4
 BYTE   N08  Cs5
 BYTE   N08  Fs5
 BYTE   W12
 BYTE   An4
 BYTE   N08  Cs5
 BYTE   N08  Fs5
 BYTE   W12
 BYTE   An4
 BYTE   N08  Cs5
 BYTE   N08  Fs5
 BYTE   W12
 BYTE   An4
 BYTE   N08  Cs5
 BYTE   N08  Fs5
 BYTE   W12
 BYTE   An4
 BYTE   N08  Cs5
 BYTE   N08  Fs5
 BYTE   W12
 BYTE   N12  Fs4
 BYTE   W03
 BYTE   N09  An4
 BYTE   W03
 BYTE   N06  Cs5
 BYTE   W03
 BYTE   N03  En5
 BYTE   W03
//  #05 //196   ----------------------------------------
 BYTE   N96  An4
 BYTE   N96  Cs5
 BYTE   N96  En5
 BYTE   N96  Fs5
 BYTE   W96
//  #05 //197   ----------------------------------------
Label_0101016F:
 BYTE   N96  Bn4  v092
 BYTE   N96  Ds5
 BYTE   N96  Fs5
 BYTE   W96
 BYTE   PEND 
//  #05 //198   ----------------------------------------
 BYTE   PATT
  POIN2 Label_0100FF8B
//  #05 //199   ----------------------------------------
 BYTE   TIE  An4  v092
 BYTE   TIE  Cs5
 BYTE   TIE  Fs5
 BYTE   W96
//  #05 //200   ----------------------------------------
 BYTE   N96  En5
 BYTE   W96
//  #05 //201   ----------------------------------------
 BYTE   EOT
 BYTE   An4  v085
 BYTE   Fs5
//  #05 //202   ----------------------------------------
 BYTE   PATT
  POIN2 Label_0101016F
//  #05 //203   ----------------------------------------
 BYTE   PATT
  POIN2 Label_0100FF8B
//  #05 //204   ----------------------------------------
 BYTE   N48  As4  v092
 BYTE   N48  Cs5
 BYTE   N48  Fs5
 BYTE   W48
 BYTE   An4
 BYTE   N48  Cs5
 BYTE   N48  En5
 BYTE   W48
//  #05 //205   ----------------------------------------
 BYTE   GoTo
  POIN2 Label_0100F899
//  #05 //206   ----------------------------------------
 BYTE   TIE  Gn4  v092
 BYTE   W48
 BYTE   N48  Bn4
 BYTE   W48
//  #05 //207   ----------------------------------------
 BYTE   Cs5
 BYTE   W48
 BYTE   Dn5
 BYTE   W48
//  #05 //208   ----------------------------------------
 BYTE   EOT
 BYTE   Gn4
 BYTE   TIE
 BYTE   TIE  Gn5
 BYTE   W48
 BYTE   N48  Bn4
 BYTE   W48
//  #05 //209   ----------------------------------------
 BYTE   Cs5
 BYTE   W48
 BYTE   N42  Dn5
 BYTE   W42
 BYTE   EOT
 BYTE   Gn4  v091
 BYTE   W06
//  #05 //210   ----------------------------------------
 BYTE   W96
//  #05 //211   ----------------------------------------
 BYTE   W96
//  #05 //212   ----------------------------------------
 BYTE   W36
 BYTE   N02  An4
 BYTE   W03
 BYTE   Bn4
 BYTE   W03
 BYTE   Cs5
 BYTE   W03
 BYTE   Dn5
 BYTE   W03
 BYTE   N96  An4
 BYTE   N96  Cs5
 BYTE   N96  En5
 BYTE   N96  Fs5
 BYTE   W48
//  #05 //213   ----------------------------------------
 BYTE   PATT
  POIN2 Label_0100F8F5
//  #05 //214   ----------------------------------------
 BYTE   W48
 BYTE   TIE  An4  v092
 BYTE   TIE  Cs5
 BYTE   TIE  En5
 BYTE   TIE  Fs5
 BYTE   W48
//  #05 //215   ----------------------------------------
 BYTE   W96
//  #05 //216   ----------------------------------------
 BYTE   W42
 BYTE   EOT
 BYTE   An4  v085
 BYTE   En5  v090
 BYTE   W48
 BYTE   W02
 BYTE   FINE

//**************** Track 6 (Midi-Chn.5) ****************//

DelusionalExtremities_006:
//  #06 //000   ----------------------------------------
 BYTE   KEYSH   DelusionalExtremities_key+0
 BYTE   VOICE   124
 BYTE   VOL   26*DelusionalExtremities_mvl/mxv
 BYTE   PAN   c_v+0
 BYTE   N02  En1  v032
 BYTE   W03
 BYTE   En1  v036
 BYTE   W03
 BYTE   En1  v044
 BYTE   W03
 BYTE   En1  v048
 BYTE   W03
 BYTE   En1  v056
 BYTE   W03
 BYTE   En1  v060
 BYTE   W03
 BYTE   En1  v068
 BYTE   W03
 BYTE   En1  v072
 BYTE   W03
 BYTE   En1  v080
 BYTE   W03
 BYTE   En1  v084
 BYTE   W03
 BYTE   En1  v092
 BYTE   W03
 BYTE   En1  v096
 BYTE   W03
 BYTE   En1  v104
 BYTE   W03
 BYTE   En1  v108
 BYTE   W03
 BYTE   En1  v116
 BYTE   W03
 BYTE   En1  v120
 BYTE   W03
 BYTE   N42  Cn1  v127
 BYTE   N42  Cn1
 BYTE   N42  An1
 BYTE   N42  Bn1
 BYTE   N42  Cn2
 BYTE   N42  Dn2
 BYTE   N42  An2
 BYTE   W48
//  #06 //001   ----------------------------------------
 BYTE   N15  En1
 BYTE   W16
 BYTE   N15
 BYTE   W16
 BYTE   N15
 BYTE   W16
 BYTE   N42  Cn1
 BYTE   N42  Cn1
 BYTE   N42  An1
 BYTE   N42  Bn1
 BYTE   N42  Cn2
 BYTE   N42  Dn2
 BYTE   N42  An2
 BYTE   W48
//  #06 //002   ----------------------------------------
 BYTE   N05  En1
 BYTE   N05  Dn2
 BYTE   W06
 BYTE   En1
 BYTE   N05  Dn2
 BYTE   W06
 BYTE   N11  En1
 BYTE   N11  Cn2
 BYTE   W12
 BYTE   N05  En1
 BYTE   N05  Bn1
 BYTE   W06
 BYTE   En1
 BYTE   N05  Bn1
 BYTE   W06
 BYTE   N11  En1
 BYTE   N11  An1
 BYTE   W12
 BYTE   N42  Cn1
 BYTE   N42  Cn1
 BYTE   N42  An1
 BYTE   N42  Bn1
 BYTE   N42  Cn2
 BYTE   N42  Dn2
 BYTE   N42  An2
 BYTE   W48
//  #06 //003   ----------------------------------------
 BYTE   N15  En1
 BYTE   W16
 BYTE   N15
 BYTE   W16
 BYTE   N15
 BYTE   W16
 BYTE   N11
 BYTE   N11  An2
 BYTE   W12
 BYTE   Cn1
 BYTE   N11  Cn1
 BYTE   W12
 BYTE   En1
 BYTE   N11  An2
 BYTE   W12
 BYTE   Cn1
 BYTE   N11  Cn1
 BYTE   W12
//  #06 //004   ----------------------------------------
 BYTE   En1
 BYTE   N11  An2
 BYTE   W12
 BYTE   Cn1
 BYTE   N11  Cn1
 BYTE   W12
 BYTE   N05  En1
 BYTE   N05  Dn2
 BYTE   W06
 BYTE   En1
 BYTE   N05  Cn2
 BYTE   W06
 BYTE   En1
 BYTE   N05  Bn1
 BYTE   W06
 BYTE   En1
 BYTE   N05  An1
 BYTE   W06
 BYTE   N11  Cn1
 BYTE   N11  An2
 BYTE   W12
 BYTE   Cn1
 BYTE   W12
 BYTE   N05  En1
 BYTE   W06
 BYTE   N05
 BYTE   W18
//  #06 //005   ----------------------------------------
 BYTE   N11  Cn1
 BYTE   N11  An2
 BYTE   W12
 BYTE   Cn1
 BYTE   W12
 BYTE   N05  En1
 BYTE   W06
 BYTE   N05
 BYTE   W18
 BYTE   N11  Cn1
 BYTE   N11  An2
 BYTE   W12
 BYTE   Cn1
 BYTE   W12
 BYTE   N05  En1
 BYTE   W06
 BYTE   N05
 BYTE   W18
//  #06 //006   ----------------------------------------
 BYTE   N11  Cn1
 BYTE   N11  An2
 BYTE   W12
 BYTE   Cn1
 BYTE   W12
 BYTE   N05  En1
 BYTE   W06
 BYTE   N05
 BYTE   W18
 BYTE   N11
 BYTE   N11  An2
 BYTE   W12
 BYTE   Cn1
 BYTE   N11  Cn1
 BYTE   W12
 BYTE   En1
 BYTE   N11  An2
 BYTE   W12
 BYTE   Cn1
 BYTE   N11  Cn1
 BYTE   W12
//  #06 //007   ----------------------------------------
 BYTE   En1
 BYTE   N11  An2
 BYTE   W12
 BYTE   Cn1
 BYTE   N11  Cn1
 BYTE   W12
 BYTE   En1
 BYTE   N11  An2
 BYTE   W12
 BYTE   Cn1
 BYTE   N11  Cn1
 BYTE   W12
 BYTE   En1
 BYTE   N11  An2
 BYTE   W12
 BYTE   Cn1
 BYTE   N11  Cn1
 BYTE   W12
 BYTE   Cn1
 BYTE   N11  Cn1
 BYTE   W12
 BYTE   En1
 BYTE   N11  An2
 BYTE   W12
//  #06 //008   ----------------------------------------
 BYTE   Cn1
 BYTE   N11  Cn1
 BYTE   W12
 BYTE   Cn1
 BYTE   N11  Cn1
 BYTE   W12
 BYTE   N05  En1
 BYTE   N05  An2
 BYTE   W06
 BYTE   En1
 BYTE   W06
 BYTE   Cn1
 BYTE   N05  Cn1
 BYTE   N05  En1
 BYTE   W06
 BYTE   N05
 BYTE   W06
 BYTE   N11  Cn1
 BYTE   N11  Cn1
 BYTE   N11  As1
 BYTE   N11  An2
 BYTE   W12
 BYTE   N05  Fs1
 BYTE   W06
 BYTE   N05
 BYTE   W06
 BYTE   N11  As1
 BYTE   W12
 BYTE   N05  Fs1
 BYTE   W06
 BYTE   N05
 BYTE   W06
//  #06 //009   ----------------------------------------
Label_010090E3:
 BYTE   N11  As1  v127
 BYTE   W12
 BYTE   N05  Fs1
 BYTE   W06
 BYTE   N05
 BYTE   W06
 BYTE   N11  As1
 BYTE   W12
 BYTE   Cn1
 BYTE   N11  Cn1
 BYTE   N05  Fs1
 BYTE   W06
 BYTE   N05
 BYTE   W06
 BYTE   N11  Cn1
 BYTE   N11  Cn1
 BYTE   N11  As1
 BYTE   N11  An2
 BYTE   W12
 BYTE   N05  Fs1
 BYTE   W06
 BYTE   N05
 BYTE   W06
 BYTE   N11  As1
 BYTE   W12
 BYTE   N05  Fs1
 BYTE   W06
 BYTE   N05
 BYTE   W06
 BYTE   PEND 
//  #06 //010   ----------------------------------------
 BYTE   PATT
  POIN2 Label_010090E3
//  #06 //011   ----------------------------------------
 BYTE   PATT
  POIN2 Label_010090E3
//  #06 //012   ----------------------------------------
Label_01009118:
 BYTE   N11  As1  v127
 BYTE   W12
 BYTE   N05  Fs1
 BYTE   W06
 BYTE   N05
 BYTE   W06
 BYTE   En1
 BYTE   N05  As1
 BYTE   W06
 BYTE   En1
 BYTE   W06
 BYTE   N11  Cn1
 BYTE   N11  Cn1
 BYTE   N05  En1
 BYTE   N05  Fs1
 BYTE   W06
 BYTE   En1
 BYTE   N05  Fs1
 BYTE   W06
 BYTE   N11  Cn1
 BYTE   N11  Cn1
 BYTE   N11  As1
 BYTE   N11  An2
 BYTE   W12
 BYTE   N05  Fs1
 BYTE   W06
 BYTE   N05
 BYTE   W06
 BYTE   N11  As1
 BYTE   W12
 BYTE   N05  Fs1
 BYTE   W06
 BYTE   N05
 BYTE   W06
 BYTE   PEND 
//  #06 //013   ----------------------------------------
Label_0100914B:
 BYTE   N11  As1  v127
 BYTE   W12
 BYTE   N05  Fs1
 BYTE   W06
 BYTE   N05
 BYTE   W06
 BYTE   N11  Dn1
 BYTE   N11  En1
 BYTE   N11  As1
 BYTE   N11  Bn1
 BYTE   N11  Cn2
 BYTE   N11  Dn2
 BYTE   W12
 BYTE   Cn1
 BYTE   N11  Cn1
 BYTE   N05  Fs1
 BYTE   W06
 BYTE   N05
 BYTE   W06
 BYTE   N11  Cn1
 BYTE   N11  Cn1
 BYTE   N11  As1
 BYTE   N11  An2
 BYTE   W12
 BYTE   N05  Fs1
 BYTE   W06
 BYTE   N05
 BYTE   W06
 BYTE   N11  As1
 BYTE   W12
 BYTE   N05  Fs1
 BYTE   W06
 BYTE   N05
 BYTE   W06
 BYTE   PEND 
//  #06 //014   ----------------------------------------
 BYTE   PATT
  POIN2 Label_0100914B
//  #06 //015   ----------------------------------------
 BYTE   PATT
  POIN2 Label_0100914B
//  #06 //016   ----------------------------------------
 BYTE   N11  As1  v127
 BYTE   W12
 BYTE   N05  Fs1
 BYTE   W06
 BYTE   N05
 BYTE   W06
 BYTE   Dn1
 BYTE   N05  En1
 BYTE   N05  As1
 BYTE   N05  Bn1
 BYTE   N05  Cn2
 BYTE   N05  Dn2
 BYTE   W06
 BYTE   En1
 BYTE   W06
 BYTE   N11  Cn1
 BYTE   N11  Cn1
 BYTE   N05  En1
 BYTE   N05  Fs1
 BYTE   W06
 BYTE   En1
 BYTE   N05  Fs1
 BYTE   W06
Label_010091AE:
 BYTE   N11  Cn1  v127
 BYTE   N11  Cn1
 BYTE   N11  Fs1
 BYTE   N11  An2
 BYTE   W12
 BYTE   Fs1
 BYTE   W12
 BYTE   Gs1
 BYTE   W12
 BYTE   Cn1
 BYTE   N11  Cn1
 BYTE   N11  Fs1
 BYTE   W12
//  #06 //017   ----------------------------------------
Label_010091C2:
 BYTE   N11  Dn1  v127
 BYTE   N11  En1
 BYTE   N11  As1
 BYTE   W12
 BYTE   Gs1
 BYTE   W12
 BYTE   Cn1
 BYTE   N11  Cn1
 BYTE   N11  Fs1
 BYTE   W12
 BYTE   Gs1
 BYTE   W12
 BYTE   Cn1
 BYTE   N11  Cn1
 BYTE   N11  Fs1
 BYTE   N11  An2
 BYTE   W12
 BYTE   Fs1
 BYTE   W12
 BYTE   Gs1
 BYTE   W12
 BYTE   Cn1
 BYTE   N11  Cn1
 BYTE   N11  Fs1
 BYTE   W12
 BYTE   PEND 
//  #06 //018   ----------------------------------------
 BYTE   PATT
  POIN2 Label_010091C2
//  #06 //019   ----------------------------------------
Label_010091EC:
 BYTE   N11  Dn1  v127
 BYTE   N11  En1
 BYTE   N11  As1
 BYTE   W12
 BYTE   Gs1
 BYTE   W12
 BYTE   Cn1
 BYTE   N11  Cn1
 BYTE   N11  Fs1
 BYTE   W12
 BYTE   Gs1
 BYTE   W12
 BYTE   En1
 BYTE   N11  An2
 BYTE   W12
 BYTE   Cn1
 BYTE   N11  Cn1
 BYTE   W12
 BYTE   En1
 BYTE   N11  An2
 BYTE   W12
 BYTE   Cn1
 BYTE   N11  Cn1
 BYTE   W12
 BYTE   PEND 
//  #06 //020   ----------------------------------------
Label_0100920F:
 BYTE   N11  En1  v127
 BYTE   N11  An2
 BYTE   W12
 BYTE   Cn1
 BYTE   N11  Cn1
 BYTE   W12
 BYTE   N05  En1
 BYTE   N05  Dn2
 BYTE   W06
 BYTE   En1
 BYTE   N05  Cn2
 BYTE   W06
 BYTE   En1
 BYTE   N05  Bn1
 BYTE   W06
 BYTE   En1
 BYTE   N05  An1
 BYTE   W06
 BYTE   N11  Cn1
 BYTE   N11  Cn1
 BYTE   N11  As1
 BYTE   N11  An2
 BYTE   W12
 BYTE   N05  Fs1
 BYTE   W06
 BYTE   N05
 BYTE   W06
 BYTE   N11  Dn1
 BYTE   N11  En1
 BYTE   N11  As1
 BYTE   W12
 BYTE   N05  Cn1
 BYTE   N05  Cn1
 BYTE   N05  Fs1
 BYTE   W06
 BYTE   N05
 BYTE   W06
 BYTE   PEND 
//  #06 //021   ----------------------------------------
Label_01009249:
 BYTE   N11  Cn1  v127
 BYTE   N11  Cn1
 BYTE   N11  As1
 BYTE   W12
 BYTE   N05  Fs1
 BYTE   W06
 BYTE   N05
 BYTE   W06
 BYTE   N11  Dn1
 BYTE   N11  En1
 BYTE   N11  As1
 BYTE   W12
 BYTE   Cn1
 BYTE   N11  Cn1
 BYTE   N05  Fs1
 BYTE   W06
 BYTE   N05
 BYTE   W06
 BYTE   N11  Cn1
 BYTE   N11  Cn1
 BYTE   N11  As1
 BYTE   W12
 BYTE   N05  Fs1
 BYTE   W06
 BYTE   N05
 BYTE   W06
 BYTE   N11  Dn1
 BYTE   N11  En1
 BYTE   N11  As1
 BYTE   W12
 BYTE   N05  Cn1
 BYTE   N05  Cn1
 BYTE   N05  Fs1
 BYTE   W06
 BYTE   N05
 BYTE   W06
 BYTE   PEND 
//  #06 //022   ----------------------------------------
 BYTE   PATT
  POIN2 Label_01009249
//  #06 //023   ----------------------------------------
 BYTE   PATT
  POIN2 Label_01009249
//  #06 //024   ----------------------------------------
 BYTE   PATT
  POIN2 Label_01009249
//  #06 //025   ----------------------------------------
 BYTE   PATT
  POIN2 Label_01009249
//  #06 //026   ----------------------------------------
 BYTE   PATT
  POIN2 Label_01009249
//  #06 //027   ----------------------------------------
 BYTE   PATT
  POIN2 Label_01009249
//  #06 //028   ----------------------------------------
Label_010092A0:
 BYTE   N11  Cn1  v127
 BYTE   N11  Cn1
 BYTE   N11  As1
 BYTE   W12
 BYTE   N05  Fs1
 BYTE   W06
 BYTE   N05
 BYTE   W06
 BYTE   Dn1
 BYTE   N05  En1
 BYTE   N05  As1
 BYTE   W06
 BYTE   Dn1
 BYTE   N05  En1
 BYTE   W06
 BYTE   N11  Cn1
 BYTE   N11  Cn1
 BYTE   N05  Dn1
 BYTE   N05  En1
 BYTE   N05  Fs1
 BYTE   W06
 BYTE   Dn1
 BYTE   N05  En1
 BYTE   N05  Fs1
 BYTE   W06
 BYTE   N11  Cn1
 BYTE   N11  Cn1
 BYTE   N11  As1
 BYTE   N11  An2
 BYTE   W12
 BYTE   N05  Fs1
 BYTE   W06
 BYTE   N05
 BYTE   W06
 BYTE   N11  Dn1
 BYTE   N11  En1
 BYTE   N11  As1
 BYTE   W12
 BYTE   N05  Cn1
 BYTE   N05  Cn1
 BYTE   N05  Fs1
 BYTE   W06
 BYTE   N05
 BYTE   W06
 BYTE   PEND 
//  #06 //029   ----------------------------------------
 BYTE   PATT
  POIN2 Label_01009249
//  #06 //030   ----------------------------------------
 BYTE   PATT
  POIN2 Label_01009249
//  #06 //031   ----------------------------------------
 BYTE   PATT
  POIN2 Label_01009249
//  #06 //032   ----------------------------------------
 BYTE   PATT
  POIN2 Label_01009249
//  #06 //033   ----------------------------------------
 BYTE   PATT
  POIN2 Label_01009249
//  #06 //034   ----------------------------------------
 BYTE   PATT
  POIN2 Label_01009249
//  #06 //035   ----------------------------------------
 BYTE   PATT
  POIN2 Label_01009249
//  #06 //036   ----------------------------------------
Label_0100930A:
 BYTE   N11  Cn1  v127
 BYTE   N11  Cn1
 BYTE   N11  As1
 BYTE   W12
 BYTE   N05  Fs1
 BYTE   W06
 BYTE   N05
 BYTE   W06
 BYTE   Dn1
 BYTE   N05  En1
 BYTE   N05  As1
 BYTE   W06
 BYTE   Dn1
 BYTE   N05  En1
 BYTE   W06
 BYTE   N11  Cn1
 BYTE   N11  Cn1
 BYTE   N05  Dn1
 BYTE   N05  En1
 BYTE   N05  Fs1
 BYTE   W06
 BYTE   Dn1
 BYTE   N05  En1
 BYTE   N05  Fs1
 BYTE   W06
 BYTE   Cn1
 BYTE   N05  Cn1
 BYTE   N05  Fs1
 BYTE   N05  An2
 BYTE   W06
 BYTE   Gs1
 BYTE   W06
 BYTE   As1
 BYTE   W06
 BYTE   Gs1
 BYTE   W06
 BYTE   Dn1
 BYTE   N05  En1
 BYTE   N05  Fs1
 BYTE   W06
 BYTE   Gs1
 BYTE   W06
 BYTE   Cn1
 BYTE   N05  Cn1
 BYTE   N05  As1
 BYTE   W06
 BYTE   Gs1
 BYTE   W06
 BYTE   PEND 
//  #06 //037   ----------------------------------------
Label_01009351:
 BYTE   N05  Cn1  v127
 BYTE   N05  Cn1
 BYTE   N05  Fs1
 BYTE   W06
 BYTE   Dn1
 BYTE   N05  En1
 BYTE   N05  Gs1
 BYTE   W06
 BYTE   As1
 BYTE   W06
 BYTE   Gs1
 BYTE   W06
 BYTE   Dn1
 BYTE   N05  En1
 BYTE   N05  Fs1
 BYTE   W06
 BYTE   Gs1
 BYTE   W06
 BYTE   Cn1
 BYTE   N05  Cn1
 BYTE   N05  As1
 BYTE   W06
 BYTE   Gs1
 BYTE   W06
 BYTE   Cn1
 BYTE   N05  Cn1
 BYTE   N05  Fs1
 BYTE   W06
 BYTE   Gs1
 BYTE   W06
 BYTE   As1
 BYTE   W06
 BYTE   Gs1
 BYTE   W06
 BYTE   Dn1
 BYTE   N05  En1
 BYTE   N05  Fs1
 BYTE   W06
 BYTE   Gs1
 BYTE   W06
 BYTE   Cn1
 BYTE   N05  Cn1
 BYTE   N05  As1
 BYTE   W06
 BYTE   Gs1
 BYTE   W06
 BYTE   PEND 
//  #06 //038   ----------------------------------------
 BYTE   PATT
  POIN2 Label_01009351
//  #06 //039   ----------------------------------------
 BYTE   PATT
  POIN2 Label_01009351
//  #06 //040   ----------------------------------------
Label_0100939A:
 BYTE   N05  Cn1  v127
 BYTE   N05  Cn1
 BYTE   N05  Fs1
 BYTE   W06
 BYTE   Dn1
 BYTE   N05  En1
 BYTE   N05  Gs1
 BYTE   W06
 BYTE   As1
 BYTE   W06
 BYTE   Gs1
 BYTE   W06
 BYTE   Dn1
 BYTE   N05  En1
 BYTE   N05  Fs1
 BYTE   W06
 BYTE   Dn1
 BYTE   N05  En1
 BYTE   N05  Gs1
 BYTE   W06
 BYTE   Cn1
 BYTE   N05  Cn1
 BYTE   N05  Dn1
 BYTE   N05  En1
 BYTE   N05  As1
 BYTE   W06
 BYTE   Dn1
 BYTE   N05  En1
 BYTE   N05  Gs1
 BYTE   W06
 BYTE   Cn1
 BYTE   N05  Cn1
 BYTE   N05  Fs1
 BYTE   N05  An2
 BYTE   W06
 BYTE   Gs1
 BYTE   W06
 BYTE   As1
 BYTE   W06
 BYTE   Gs1
 BYTE   W06
 BYTE   Dn1
 BYTE   N05  En1
 BYTE   N05  Fs1
 BYTE   W06
 BYTE   Gs1
 BYTE   W06
 BYTE   Cn1
 BYTE   N05  Cn1
 BYTE   N05  As1
 BYTE   W06
 BYTE   Gs1
 BYTE   W06
 BYTE   PEND 
//  #06 //041   ----------------------------------------
 BYTE   PATT
  POIN2 Label_01009351
//  #06 //042   ----------------------------------------
 BYTE   PATT
  POIN2 Label_01009351
//  #06 //043   ----------------------------------------
 BYTE   PATT
  POIN2 Label_01009351
//  #06 //044   ----------------------------------------
Label_010093F6:
 BYTE   N05  Cn1  v127
 BYTE   N05  Cn1
 BYTE   N05  Fs1
 BYTE   W06
 BYTE   Dn1
 BYTE   N05  En1
 BYTE   N05  Gs1
 BYTE   W06
 BYTE   As1
 BYTE   W06
 BYTE   Gs1
 BYTE   W06
 BYTE   Dn1
 BYTE   N05  En1
 BYTE   N05  Fs1
 BYTE   W06
 BYTE   Dn1
 BYTE   N05  En1
 BYTE   N05  Gs1
 BYTE   W06
 BYTE   Cn1
 BYTE   N05  Cn1
 BYTE   N05  Dn1
 BYTE   N05  En1
 BYTE   N05  As1
 BYTE   W06
 BYTE   Dn1
 BYTE   N05  En1
 BYTE   N05  Gs1
 BYTE   W06
 BYTE   N11  Cn1
 BYTE   N11  Cn1
 BYTE   N11  As1
 BYTE   N11  An2
 BYTE   W12
 BYTE   N05  Fs1
 BYTE   W06
 BYTE   N05
 BYTE   W06
 BYTE   N11  Dn1
 BYTE   N11  En1
 BYTE   N11  As1
 BYTE   W12
 BYTE   N05  Cn1
 BYTE   N05  Cn1
 BYTE   N05  Fs1
 BYTE   W06
 BYTE   N05
 BYTE   W06
 BYTE   PEND 
//  #06 //045   ----------------------------------------
 BYTE   PATT
  POIN2 Label_01009249
//  #06 //046   ----------------------------------------
 BYTE   PATT
  POIN2 Label_01009249
//  #06 //047   ----------------------------------------
 BYTE   PATT
  POIN2 Label_01009249
//  #06 //048   ----------------------------------------
 BYTE   PATT
  POIN2 Label_01009249
//  #06 //049   ----------------------------------------
 BYTE   PATT
  POIN2 Label_01009249
//  #06 //050   ----------------------------------------
 BYTE   PATT
  POIN2 Label_01009249
//  #06 //051   ----------------------------------------
 BYTE   PATT
  POIN2 Label_01009249
//  #06 //052   ----------------------------------------
 BYTE   PATT
  POIN2 Label_0100930A
//  #06 //053   ----------------------------------------
 BYTE   PATT
  POIN2 Label_01009351
//  #06 //054   ----------------------------------------
 BYTE   PATT
  POIN2 Label_01009351
//  #06 //055   ----------------------------------------
 BYTE   PATT
  POIN2 Label_01009351
//  #06 //056   ----------------------------------------
 BYTE   PATT
  POIN2 Label_0100939A
//  #06 //057   ----------------------------------------
 BYTE   PATT
  POIN2 Label_01009351
//  #06 //058   ----------------------------------------
 BYTE   PATT
  POIN2 Label_01009351
//  #06 //059   ----------------------------------------
 BYTE   PATT
  POIN2 Label_01009351
//  #06 //060   ----------------------------------------
 BYTE   PATT
  POIN2 Label_010093F6
//  #06 //061   ----------------------------------------
 BYTE   PATT
  POIN2 Label_01009249
//  #06 //062   ----------------------------------------
 BYTE   PATT
  POIN2 Label_01009249
//  #06 //063   ----------------------------------------
 BYTE   PATT
  POIN2 Label_01009249
//  #06 //064   ----------------------------------------
 BYTE   PATT
  POIN2 Label_01009249
//  #06 //065   ----------------------------------------
 BYTE   PATT
  POIN2 Label_01009249
//  #06 //066   ----------------------------------------
 BYTE   PATT
  POIN2 Label_01009249
//  #06 //067   ----------------------------------------
 BYTE   PATT
  POIN2 Label_01009249
//  #06 //068   ----------------------------------------
 BYTE   PATT
  POIN2 Label_010092A0
//  #06 //069   ----------------------------------------
 BYTE   PATT
  POIN2 Label_01009249
//  #06 //070   ----------------------------------------
 BYTE   PATT
  POIN2 Label_01009249
//  #06 //071   ----------------------------------------
 BYTE   PATT
  POIN2 Label_01009249
//  #06 //072   ----------------------------------------
 BYTE   PATT
  POIN2 Label_01009249
//  #06 //073   ----------------------------------------
 BYTE   PATT
  POIN2 Label_01009249
//  #06 //074   ----------------------------------------
 BYTE   PATT
  POIN2 Label_01009249
//  #06 //075   ----------------------------------------
 BYTE   PATT
  POIN2 Label_01009249
//  #06 //076   ----------------------------------------
 BYTE   PATT
  POIN2 Label_0100930A
//  #06 //077   ----------------------------------------
 BYTE   PATT
  POIN2 Label_01009351
//  #06 //078   ----------------------------------------
 BYTE   PATT
  POIN2 Label_01009351
//  #06 //079   ----------------------------------------
 BYTE   PATT
  POIN2 Label_01009351
//  #06 //080   ----------------------------------------
 BYTE   PATT
  POIN2 Label_0100939A
//  #06 //081   ----------------------------------------
 BYTE   PATT
  POIN2 Label_01009351
//  #06 //082   ----------------------------------------
 BYTE   PATT
  POIN2 Label_01009351
//  #06 //083   ----------------------------------------
 BYTE   PATT
  POIN2 Label_01009351
//  #06 //084   ----------------------------------------
 BYTE   N05  Cn1  v127
 BYTE   N05  Cn1
 BYTE   N05  Fs1
 BYTE   W06
 BYTE   Dn1
 BYTE   N05  En1
 BYTE   N05  Gs1
 BYTE   W06
 BYTE   As1
 BYTE   W06
 BYTE   Gs1
 BYTE   W06
 BYTE   Dn1
 BYTE   N05  En1
 BYTE   N05  Fs1
 BYTE   W06
 BYTE   Dn1
 BYTE   N05  En1
 BYTE   N05  Gs1
 BYTE   W06
 BYTE   Cn1
 BYTE   N05  Cn1
 BYTE   N05  Dn1
 BYTE   N05  En1
 BYTE   N05  As1
 BYTE   W06
 BYTE   Dn1
 BYTE   N05  En1
 BYTE   N05  Gs1
 BYTE   W06
 BYTE   N11  Cn1
 BYTE   N11  Cn1
 BYTE   N11  As1
 BYTE   N11  An2
 BYTE   W12
 BYTE   N05  Fs1
 BYTE   W06
 BYTE   N05
 BYTE   W06
 BYTE   N11  As1
 BYTE   W12
 BYTE   N05  Fs1
 BYTE   W06
 BYTE   N05
 BYTE   W06
//  #06 //085   ----------------------------------------
 BYTE   PATT
  POIN2 Label_010090E3
//  #06 //086   ----------------------------------------
 BYTE   PATT
  POIN2 Label_010090E3
//  #06 //087   ----------------------------------------
 BYTE   PATT
  POIN2 Label_010090E3
//  #06 //088   ----------------------------------------
 BYTE   PATT
  POIN2 Label_01009118
//  #06 //089   ----------------------------------------
 BYTE   PATT
  POIN2 Label_0100914B
//  #06 //090   ----------------------------------------
 BYTE   PATT
  POIN2 Label_0100914B
//  #06 //091   ----------------------------------------
 BYTE   PATT
  POIN2 Label_0100914B
//  #06 //092   ----------------------------------------
 BYTE   N11  As1  v127
 BYTE   W12
 BYTE   N05  Fs1
 BYTE   W06
 BYTE   N05
 BYTE   W06
 BYTE   Dn1
 BYTE   N05  En1
 BYTE   N05  As1
 BYTE   N05  Bn1
 BYTE   N05  Cn2
 BYTE   N05  Dn2
 BYTE   W06
 BYTE   En1
 BYTE   W06
 BYTE   N11  Cn1
 BYTE   N11  Cn1
 BYTE   N05  En1
 BYTE   N05  Fs1
 BYTE   W06
 BYTE   En1
 BYTE   N05  Fs1
 BYTE   W06
 BYTE   N11  Cn1
 BYTE   N11  Cn1
 BYTE   N11  Fs1
 BYTE   N11  An2
 BYTE   W12
 BYTE   Fs1
 BYTE   W12
 BYTE   Gs1
 BYTE   W12
 BYTE   Cn1
 BYTE   N11  Cn1
 BYTE   N11  Fs1
 BYTE   W12
//  #06 //093   ----------------------------------------
 BYTE   PATT
  POIN2 Label_010091C2
//  #06 //094   ----------------------------------------
 BYTE   PATT
  POIN2 Label_010091C2
//  #06 //095   ----------------------------------------
 BYTE   PATT
  POIN2 Label_010091EC
//  #06 //096   ----------------------------------------
 BYTE   PATT
  POIN2 Label_0100920F
//  #06 //097   ----------------------------------------
 BYTE   PATT
  POIN2 Label_01009249
//  #06 //098   ----------------------------------------
 BYTE   PATT
  POIN2 Label_01009249
//  #06 //099   ----------------------------------------
 BYTE   PATT
  POIN2 Label_01009249
//  #06 //100   ----------------------------------------
 BYTE   PATT
  POIN2 Label_01009249
//  #06 //101   ----------------------------------------
 BYTE   PATT
  POIN2 Label_01009249
//  #06 //102   ----------------------------------------
 BYTE   PATT
  POIN2 Label_01009249
//  #06 //103   ----------------------------------------
 BYTE   PATT
  POIN2 Label_01009249
//  #06 //104   ----------------------------------------
 BYTE   PATT
  POIN2 Label_010092A0
//  #06 //105   ----------------------------------------
 BYTE   PATT
  POIN2 Label_01009249
//  #06 //106   ----------------------------------------
 BYTE   PATT
  POIN2 Label_01009249
//  #06 //107   ----------------------------------------
 BYTE   PATT
  POIN2 Label_01009249
//  #06 //108   ----------------------------------------
 BYTE   PATT
  POIN2 Label_01009249
//  #06 //109   ----------------------------------------
 BYTE   PATT
  POIN2 Label_01009249
//  #06 //110   ----------------------------------------
 BYTE   PATT
  POIN2 Label_01009249
//  #06 //111   ----------------------------------------
 BYTE   PATT
  POIN2 Label_01009249
//  #06 //112   ----------------------------------------
 BYTE   PATT
  POIN2 Label_0100930A
//  #06 //113   ----------------------------------------
 BYTE   PATT
  POIN2 Label_01009351
//  #06 //114   ----------------------------------------
 BYTE   PATT
  POIN2 Label_01009351
//  #06 //115   ----------------------------------------
 BYTE   PATT
  POIN2 Label_01009351
//  #06 //116   ----------------------------------------
 BYTE   PATT
  POIN2 Label_0100939A
//  #06 //117   ----------------------------------------
 BYTE   PATT
  POIN2 Label_01009351
//  #06 //118   ----------------------------------------
 BYTE   PATT
  POIN2 Label_01009351
//  #06 //119   ----------------------------------------
 BYTE   PATT
  POIN2 Label_01009351
//  #06 //120   ----------------------------------------
 BYTE   N05  Cn1  v127
 BYTE   N05  Cn1
 BYTE   N05  Fs1
 BYTE   W06
 BYTE   Dn1
 BYTE   N05  En1
 BYTE   N05  Gs1
 BYTE   W06
 BYTE   As1
 BYTE   W06
 BYTE   Gs1
 BYTE   W06
 BYTE   Dn1
 BYTE   N05  En1
 BYTE   N05  Fs1
 BYTE   W06
 BYTE   Dn1
 BYTE   N05  En1
 BYTE   N05  Gs1
 BYTE   W06
 BYTE   Cn1
 BYTE   N05  Cn1
 BYTE   N05  Dn1
 BYTE   N05  En1
 BYTE   N05  As1
 BYTE   W06
 BYTE   Dn1
 BYTE   N05  En1
 BYTE   N05  Gs1
 BYTE   W06
 BYTE   N11  Cn1
 BYTE   N11  Cn1
 BYTE   N11  Fs1
 BYTE   N11  An2
 BYTE   W12
 BYTE   Fs1
 BYTE   W12
 BYTE   Gs1
 BYTE   W12
 BYTE   Cn1
 BYTE   N11  Cn1
 BYTE   N11  Fs1
 BYTE   W12
//  #06 //121   ----------------------------------------
 BYTE   PATT
  POIN2 Label_010091C2
//  #06 //122   ----------------------------------------
 BYTE   PATT
  POIN2 Label_010091C2
//  #06 //123   ----------------------------------------
 BYTE   PATT
  POIN2 Label_010091C2
//  #06 //124   ----------------------------------------
 BYTE   PATT
  POIN2 Label_010091C2
//  #06 //125   ----------------------------------------
 BYTE   PATT
  POIN2 Label_010091C2
//  #06 //126   ----------------------------------------
 BYTE   PATT
  POIN2 Label_010091C2
//  #06 //127   ----------------------------------------
 BYTE   PATT
  POIN2 Label_010091EC
//  #06 //128   ----------------------------------------
 BYTE   N11  En1  v127
 BYTE   N11  An2
 BYTE   W12
 BYTE   Cn1
 BYTE   N11  Cn1
 BYTE   W12
 BYTE   N05  En1
 BYTE   N05  Dn2
 BYTE   W06
 BYTE   En1
 BYTE   N05  Cn2
 BYTE   W06
 BYTE   En1
 BYTE   N05  Bn1
 BYTE   W06
 BYTE   En1
 BYTE   N05  An1
 BYTE   W06
 BYTE   N11  Cn1
 BYTE   N11  Cn1
 BYTE   N11  As1
 BYTE   N11  An2
 BYTE   W12
 BYTE   N05  Cn1
 BYTE   N05  Cn1
 BYTE   N05  Fs1
 BYTE   W06
 BYTE   N05
 BYTE   W06
 BYTE   N11  Dn1
 BYTE   N11  En1
 BYTE   N11  As1
 BYTE   N11  Bn1
 BYTE   N11  Cn2
 BYTE   N11  Dn2
 BYTE   W12
 BYTE   N05  Fs1
 BYTE   W06
 BYTE   N05
 BYTE   W06
//  #06 //129   ----------------------------------------
Label_010096CE:
 BYTE   N11  Cn1  v127
 BYTE   N11  Cn1
 BYTE   N11  As1
 BYTE   W12
 BYTE   N05  Cn1
 BYTE   N05  Cn1
 BYTE   N05  Fs1
 BYTE   W06
 BYTE   N05
 BYTE   W06
 BYTE   Dn1
 BYTE   N05  En1
 BYTE   N05  As1
 BYTE   N05  Bn1
 BYTE   N05  Cn2
 BYTE   N05  Dn2
 BYTE   W06
 BYTE   Cn1
 BYTE   N05  Cn1
 BYTE   W06
 BYTE   Fs1
 BYTE   W06
 BYTE   N05
 BYTE   W06
 BYTE   N11  Cn1
 BYTE   N11  Cn1
 BYTE   N11  As1
 BYTE   N11  An2
 BYTE   W12
 BYTE   N05  Cn1
 BYTE   N05  Cn1
 BYTE   N05  Fs1
 BYTE   W06
 BYTE   N05
 BYTE   W06
 BYTE   N11  Dn1
 BYTE   N11  En1
 BYTE   N11  As1
 BYTE   N11  Bn1
 BYTE   N11  Cn2
 BYTE   N11  Dn2
 BYTE   W12
 BYTE   N05  Fs1
 BYTE   W06
 BYTE   N05
 BYTE   W06
 BYTE   PEND 
//  #06 //130   ----------------------------------------
 BYTE   PATT
  POIN2 Label_010096CE
//  #06 //131   ----------------------------------------
 BYTE   PATT
  POIN2 Label_010096CE
//  #06 //132   ----------------------------------------
 BYTE   PATT
  POIN2 Label_010096CE
//  #06 //133   ----------------------------------------
 BYTE   PATT
  POIN2 Label_010096CE
//  #06 //134   ----------------------------------------
 BYTE   PATT
  POIN2 Label_010096CE
//  #06 //135   ----------------------------------------
 BYTE   PATT
  POIN2 Label_010096CE
//  #06 //136   ----------------------------------------
 BYTE   N11  Cn1  v127
 BYTE   N11  Cn1
 BYTE   N11  As1
 BYTE   W12
 BYTE   N05  Cn1
 BYTE   N05  Cn1
 BYTE   N05  Fs1
 BYTE   W06
 BYTE   N05
 BYTE   W06
 BYTE   Dn1
 BYTE   N05  En1
 BYTE   N05  As1
 BYTE   N05  Bn1
 BYTE   N05  Cn2
 BYTE   N05  Dn2
 BYTE   W06
 BYTE   Cn1
 BYTE   N05  Cn1
 BYTE   N05  Dn1
 BYTE   N05  En1
 BYTE   W06
 BYTE   Dn1
 BYTE   N05  En1
 BYTE   N05  Fs1
 BYTE   W06
 BYTE   Dn1
 BYTE   N05  En1
 BYTE   N05  Fs1
 BYTE   W06
 BYTE   N11  Dn1
 BYTE   N11  En1
 BYTE   N11  An2
 BYTE   W12
 BYTE   Cn1
 BYTE   N11  Cn1
 BYTE   W12
 BYTE   Dn1
 BYTE   N11  En1
 BYTE   N11  An2
 BYTE   W12
 BYTE   Cn1
 BYTE   N11  Cn1
 BYTE   W12
//  #06 //137   ----------------------------------------
 BYTE   Dn1
 BYTE   N11  En1
 BYTE   N11  An2
 BYTE   W12
 BYTE   Cn1
 BYTE   N11  Cn1
 BYTE   W12
 BYTE   Dn1
 BYTE   N11  En1
 BYTE   N11  An2
 BYTE   W12
 BYTE   Cn1
 BYTE   N11  Cn1
 BYTE   W12
 BYTE   Dn1
 BYTE   N11  En1
 BYTE   N11  An2
 BYTE   W12
 BYTE   Cn1
 BYTE   N11  Cn1
 BYTE   W12
 BYTE   Dn1
 BYTE   N11  En1
 BYTE   N11  An2
 BYTE   W12
 BYTE   Cn1
 BYTE   N11  Cn1
 BYTE   W12
//  #06 //138   ----------------------------------------
 BYTE   Dn1
 BYTE   N11  En1
 BYTE   N11  An2
 BYTE   W12
 BYTE   Cn1
 BYTE   N11  Cn1
 BYTE   W12
 BYTE   N05  En1
 BYTE   N05  Dn2
 BYTE   W06
 BYTE   En1
 BYTE   N05  Cn2
 BYTE   W06
 BYTE   En1
 BYTE   N05  Bn1
 BYTE   W06
 BYTE   En1
 BYTE   N05  An1
 BYTE   W06
 BYTE   Cn1
 BYTE   N05  Dn2
 BYTE   N05  An2
 BYTE   W06
 BYTE   Cn2
 BYTE   W06
 BYTE   Bn1
 BYTE   W06
 BYTE   An1
 BYTE   W06
 BYTE   Cn1
 BYTE   N05  Dn2
 BYTE   N05  An2
 BYTE   W06
 BYTE   Cn2
 BYTE   W06
 BYTE   Bn1
 BYTE   W06
 BYTE   An1
 BYTE   W06
//  #06 //139   ----------------------------------------
 BYTE   Cn1
 BYTE   N05  Dn2
 BYTE   N05  An2
 BYTE   W06
 BYTE   Cn2
 BYTE   W06
 BYTE   Bn1
 BYTE   W06
 BYTE   An1
 BYTE   W06
 BYTE   N11  Cn1
 BYTE   N11  En1
 BYTE   N11  An2
 BYTE   W12
 BYTE   Cn1
 BYTE   N11  En1
 BYTE   N11  An2
 BYTE   W12
 BYTE   Cn1
 BYTE   N11  Cn1
 BYTE   N11  As1
 BYTE   N11  An2
 BYTE   W12
 BYTE   N05  Fs1
 BYTE   W06
 BYTE   N05
 BYTE   W06
 BYTE   N11  Dn1
 BYTE   N11  En1
 BYTE   N11  As1
 BYTE   W12
 BYTE   N05  Cn1
 BYTE   N05  Cn1
 BYTE   N05  Fs1
 BYTE   W06
 BYTE   N05
 BYTE   W06
//  #06 //140   ----------------------------------------
 BYTE   PATT
  POIN2 Label_01009249
//  #06 //141   ----------------------------------------
 BYTE   PATT
  POIN2 Label_01009249
//  #06 //142   ----------------------------------------
 BYTE   PATT
  POIN2 Label_01009249
//  #06 //143   ----------------------------------------
 BYTE   PATT
  POIN2 Label_01009249
//  #06 //144   ----------------------------------------
 BYTE   PATT
  POIN2 Label_01009249
//  #06 //145   ----------------------------------------
 BYTE   PATT
  POIN2 Label_01009249
//  #06 //146   ----------------------------------------
 BYTE   PATT
  POIN2 Label_01009249
//  #06 //147   ----------------------------------------
 BYTE   PATT
  POIN2 Label_010092A0
//  #06 //148   ----------------------------------------
 BYTE   PATT
  POIN2 Label_01009249
//  #06 //149   ----------------------------------------
 BYTE   PATT
  POIN2 Label_01009249
//  #06 //150   ----------------------------------------
 BYTE   PATT
  POIN2 Label_01009249
//  #06 //151   ----------------------------------------
 BYTE   PATT
  POIN2 Label_01009249
//  #06 //152   ----------------------------------------
 BYTE   PATT
  POIN2 Label_01009249
//  #06 //153   ----------------------------------------
 BYTE   PATT
  POIN2 Label_01009249
//  #06 //154   ----------------------------------------
 BYTE   PATT
  POIN2 Label_01009249
//  #06 //155   ----------------------------------------
 BYTE   PATT
  POIN2 Label_0100930A
//  #06 //156   ----------------------------------------
 BYTE   PATT
  POIN2 Label_01009351
//  #06 //157   ----------------------------------------
 BYTE   PATT
  POIN2 Label_01009351
//  #06 //158   ----------------------------------------
 BYTE   PATT
  POIN2 Label_01009351
//  #06 //159   ----------------------------------------
 BYTE   PATT
  POIN2 Label_0100939A
//  #06 //160   ----------------------------------------
 BYTE   PATT
  POIN2 Label_01009351
//  #06 //161   ----------------------------------------
 BYTE   PATT
  POIN2 Label_01009351
//  #06 //162   ----------------------------------------
 BYTE   PATT
  POIN2 Label_01009351
//  #06 //163   ----------------------------------------
 BYTE   PATT
  POIN2 Label_010093F6
//  #06 //164   ----------------------------------------
 BYTE   PATT
  POIN2 Label_01009249
//  #06 //165   ----------------------------------------
 BYTE   PATT
  POIN2 Label_01009249
//  #06 //166   ----------------------------------------
 BYTE   PATT
  POIN2 Label_01009249
//  #06 //167   ----------------------------------------
 BYTE   PATT
  POIN2 Label_01009249
//  #06 //168   ----------------------------------------
 BYTE   PATT
  POIN2 Label_01009249
//  #06 //169   ----------------------------------------
 BYTE   PATT
  POIN2 Label_01009249
//  #06 //170   ----------------------------------------
 BYTE   PATT
  POIN2 Label_01009249
//  #06 //171   ----------------------------------------
 BYTE   N11  Cn1  v127
 BYTE   N11  Cn1
 BYTE   N11  As1
 BYTE   W12
 BYTE   N05  Fs1
 BYTE   W06
 BYTE   N05
 BYTE   W06
 BYTE   Dn1
 BYTE   N05  En1
 BYTE   N05  As1
 BYTE   W06
 BYTE   Dn1
 BYTE   N05  En1
 BYTE   W06
 BYTE   N11  Cn1
 BYTE   N11  Cn1
 BYTE   N05  Dn1
 BYTE   N05  En1
 BYTE   N05  Fs1
 BYTE   W06
 BYTE   Dn1
 BYTE   N05  En1
 BYTE   N05  Fs1
 BYTE   W06
 BYTE   N20  An1
 BYTE   N20  Bn1
 BYTE   N20  Cn2
 BYTE   N20  Dn2
 BYTE   N20  An2
 BYTE   W24
 BYTE   N05  Cn1
 BYTE   N05  Dn2
 BYTE   N05  An2
 BYTE   W06
 BYTE   Cn2
 BYTE   W06
 BYTE   Bn1
 BYTE   W06
 BYTE   An1
 BYTE   W06
//  #06 //172   ----------------------------------------
Label_010098E8:
 BYTE   N11  Cn1  v127
 BYTE   N11  Cn1
 BYTE   N11  As1
 BYTE   N11  An2
 BYTE   W12
 BYTE   N05  Fs1
 BYTE   W06
 BYTE   N05
 BYTE   W06
 BYTE   N11  Dn1
 BYTE   N11  En1
 BYTE   N11  As1
 BYTE   W12
 BYTE   N05  Cn1
 BYTE   N05  Cn1
 BYTE   N05  Fs1
 BYTE   W06
 BYTE   N05
 BYTE   W06
 BYTE   N11  Cn1
 BYTE   N11  Cn1
 BYTE   N11  As1
 BYTE   W12
 BYTE   N05  Fs1
 BYTE   W06
 BYTE   N05
 BYTE   W06
 BYTE   N11  Dn1
 BYTE   N11  En1
 BYTE   N11  As1
 BYTE   W12
 BYTE   Cn1
 BYTE   N11  Cn1
 BYTE   N05  Fs1
 BYTE   W06
 BYTE   N05
 BYTE   W06
 BYTE   PEND 
//  #06 //173   ----------------------------------------
Label_01009923:
 BYTE   N11  Cn1  v127
 BYTE   N11  Cn1
 BYTE   N11  As1
 BYTE   W12
 BYTE   N05  Fs1
 BYTE   W06
 BYTE   N05
 BYTE   W06
 BYTE   N11  Dn1
 BYTE   N11  En1
 BYTE   N11  As1
 BYTE   W12
 BYTE   N05  Cn1
 BYTE   N05  Cn1
 BYTE   N05  Fs1
 BYTE   W06
 BYTE   N05
 BYTE   W06
 BYTE   N11  Cn1
 BYTE   N11  Cn1
 BYTE   N11  As1
 BYTE   W12
 BYTE   N05  Fs1
 BYTE   W06
 BYTE   N05
 BYTE   W06
 BYTE   N11  Dn1
 BYTE   N11  En1
 BYTE   N11  As1
 BYTE   W12
 BYTE   Cn1
 BYTE   N11  Cn1
 BYTE   N05  Fs1
 BYTE   W06
 BYTE   N05
 BYTE   W06
 BYTE   PEND 
//  #06 //174   ----------------------------------------
 BYTE   PATT
  POIN2 Label_01009923
//  #06 //175   ----------------------------------------
 BYTE   PATT
  POIN2 Label_01009923
//  #06 //176   ----------------------------------------
 BYTE   PATT
  POIN2 Label_01009923
//  #06 //177   ----------------------------------------
 BYTE   PATT
  POIN2 Label_01009923
//  #06 //178   ----------------------------------------
 BYTE   PATT
  POIN2 Label_01009923
//  #06 //179   ----------------------------------------
Label_01009975:
 BYTE   N11  Cn1  v127
 BYTE   N11  Cn1
 BYTE   N11  As1
 BYTE   W12
 BYTE   N05  Fs1
 BYTE   W06
 BYTE   N05
 BYTE   W06
 BYTE   N11  Dn1
 BYTE   N11  En1
 BYTE   N11  As1
 BYTE   W12
 BYTE   N05  Cn1
 BYTE   N05  Cn1
 BYTE   N05  Fs1
 BYTE   W06
 BYTE   N05
 BYTE   W06
 BYTE   N11  Cn1
 BYTE   N11  Cn1
 BYTE   N11  As1
 BYTE   W12
 BYTE   N05  Fs1
 BYTE   W06
 BYTE   N05
 BYTE   W06
 BYTE   Dn1
 BYTE   N05  En1
 BYTE   N05  As1
 BYTE   W06
 BYTE   Dn1
 BYTE   N05  En1
 BYTE   W06
 BYTE   N11  Cn1
 BYTE   N11  Cn1
 BYTE   N05  Dn1
 BYTE   N05  En1
 BYTE   N05  Fs1
 BYTE   W06
 BYTE   Dn1
 BYTE   N05  En1
 BYTE   N05  Fs1
 BYTE   W06
 BYTE   PEND 
//  #06 //180   ----------------------------------------
Label_010099BA:
 BYTE   N05  Cn1  v127
 BYTE   N05  Cn1
 BYTE   N05  Fs1
 BYTE   N05  An2
 BYTE   W06
 BYTE   Gs1
 BYTE   W06
 BYTE   As1
 BYTE   W06
 BYTE   Gs1
 BYTE   W06
 BYTE   Dn1
 BYTE   N05  En1
 BYTE   N05  Fs1
 BYTE   W06
 BYTE   Gs1
 BYTE   W06
 BYTE   Cn1
 BYTE   N05  Cn1
 BYTE   N05  As1
 BYTE   W06
 BYTE   Gs1
 BYTE   W06
 BYTE   Cn1
 BYTE   N05  Cn1
 BYTE   N05  Fs1
 BYTE   W06
 BYTE   Dn1
 BYTE   N05  En1
 BYTE   N05  Gs1
 BYTE   W06
 BYTE   As1
 BYTE   W06
 BYTE   Gs1
 BYTE   W06
 BYTE   Dn1
 BYTE   N05  En1
 BYTE   N05  Fs1
 BYTE   W06
 BYTE   Gs1
 BYTE   W06
 BYTE   Cn1
 BYTE   N05  Cn1
 BYTE   N05  As1
 BYTE   W06
 BYTE   Gs1
 BYTE   W06
 BYTE   PEND 
//  #06 //181   ----------------------------------------
Label_010099FB:
 BYTE   N05  Cn1  v127
 BYTE   N05  Cn1
 BYTE   N05  Fs1
 BYTE   W06
 BYTE   Gs1
 BYTE   W06
 BYTE   As1
 BYTE   W06
 BYTE   Gs1
 BYTE   W06
 BYTE   Dn1
 BYTE   N05  En1
 BYTE   N05  Fs1
 BYTE   W06
 BYTE   Gs1
 BYTE   W06
 BYTE   Cn1
 BYTE   N05  Cn1
 BYTE   N05  As1
 BYTE   W06
 BYTE   Gs1
 BYTE   W06
 BYTE   Cn1
 BYTE   N05  Cn1
 BYTE   N05  Fs1
 BYTE   W06
 BYTE   Dn1
 BYTE   N05  En1
 BYTE   N05  Gs1
 BYTE   W06
 BYTE   As1
 BYTE   W06
 BYTE   Gs1
 BYTE   W06
 BYTE   Dn1
 BYTE   N05  En1
 BYTE   N05  Fs1
 BYTE   W06
 BYTE   Gs1
 BYTE   W06
 BYTE   Cn1
 BYTE   N05  Cn1
 BYTE   N05  As1
 BYTE   W06
 BYTE   Gs1
 BYTE   W06
 BYTE   PEND 
//  #06 //182   ----------------------------------------
 BYTE   PATT
  POIN2 Label_010099FB
//  #06 //183   ----------------------------------------
Label_01009A3F:
 BYTE   N05  Cn1  v127
 BYTE   N05  Cn1
 BYTE   N05  Fs1
 BYTE   W06
 BYTE   Gs1
 BYTE   W06
 BYTE   As1
 BYTE   W06
 BYTE   Gs1
 BYTE   W06
 BYTE   Dn1
 BYTE   N05  En1
 BYTE   N05  Fs1
 BYTE   W06
 BYTE   Gs1
 BYTE   W06
 BYTE   Cn1
 BYTE   N05  Cn1
 BYTE   N05  As1
 BYTE   W06
 BYTE   Gs1
 BYTE   W06
 BYTE   Cn1
 BYTE   N05  Cn1
 BYTE   N05  Fs1
 BYTE   W06
 BYTE   Dn1
 BYTE   N05  En1
 BYTE   N05  Gs1
 BYTE   W06
 BYTE   As1
 BYTE   W06
 BYTE   Gs1
 BYTE   W06
 BYTE   Dn1
 BYTE   N05  En1
 BYTE   N05  Fs1
 BYTE   W06
 BYTE   Dn1
 BYTE   N05  En1
 BYTE   N05  Gs1
 BYTE   W06
 BYTE   Cn1
 BYTE   N05  Cn1
 BYTE   N05  Dn1
 BYTE   N05  En1
 BYTE   N05  As1
 BYTE   W06
 BYTE   Dn1
 BYTE   N05  En1
 BYTE   N05  Gs1
 BYTE   W06
 BYTE   PEND 
//  #06 //184   ----------------------------------------
 BYTE   PATT
  POIN2 Label_010099BA
//  #06 //185   ----------------------------------------
 BYTE   PATT
  POIN2 Label_010099FB
//  #06 //186   ----------------------------------------
 BYTE   PATT
  POIN2 Label_010099FB
//  #06 //187   ----------------------------------------
 BYTE   PATT
  POIN2 Label_01009A3F
//  #06 //188   ----------------------------------------
 BYTE   PATT
  POIN2 Label_010098E8
//  #06 //189   ----------------------------------------
 BYTE   PATT
  POIN2 Label_01009923
//  #06 //190   ----------------------------------------
 BYTE   PATT
  POIN2 Label_01009923
//  #06 //191   ----------------------------------------
 BYTE   PATT
  POIN2 Label_01009923
//  #06 //192   ----------------------------------------
 BYTE   PATT
  POIN2 Label_01009923
//  #06 //193   ----------------------------------------
 BYTE   PATT
  POIN2 Label_01009923
//  #06 //194   ----------------------------------------
 BYTE   PATT
  POIN2 Label_01009923
//  #06 //195   ----------------------------------------
 BYTE   PATT
  POIN2 Label_01009975
//  #06 //196   ----------------------------------------
Label_01009AC6:
 BYTE   N11  Cn1  v127
 BYTE   N11  Cn1
 BYTE   N11  As1
 BYTE   N11  An2
 BYTE   W12
 BYTE   N05  Cn1
 BYTE   N05  Cn1
 BYTE   N05  Fs1
 BYTE   W06
 BYTE   N05
 BYTE   W06
 BYTE   N11  Dn1
 BYTE   N11  En1
 BYTE   N11  As1
 BYTE   N11  Bn1
 BYTE   N11  Cn2
 BYTE   N11  Dn2
 BYTE   W12
 BYTE   N05  Fs1
 BYTE   W06
 BYTE   N05
 BYTE   W06
 BYTE   N11  Cn1
 BYTE   N11  Cn1
 BYTE   N11  As1
 BYTE   W12
 BYTE   N05  Cn1
 BYTE   N05  Cn1
 BYTE   N05  Fs1
 BYTE   W06
 BYTE   N05
 BYTE   W06
 BYTE   Dn1
 BYTE   N05  En1
 BYTE   N05  As1
 BYTE   N05  Bn1
 BYTE   N05  Cn2
 BYTE   N05  Dn2
 BYTE   W06
 BYTE   Cn1
 BYTE   N05  Cn1
 BYTE   W06
 BYTE   Fs1
 BYTE   W06
 BYTE   N05
 BYTE   W06
 BYTE   PEND 
//  #06 //197   ----------------------------------------
 BYTE   PATT
  POIN2 Label_01009AC6
//  #06 //198   ----------------------------------------
 BYTE   PATT
  POIN2 Label_01009AC6
//  #06 //199   ----------------------------------------
 BYTE   PATT
  POIN2 Label_01009AC6
//  #06 //200   ----------------------------------------
 BYTE   PATT
  POIN2 Label_01009AC6
//  #06 //201   ----------------------------------------
 BYTE   PATT
  POIN2 Label_01009AC6
//  #06 //202   ----------------------------------------
 BYTE   PATT
  POIN2 Label_01009AC6
//  #06 //203   ----------------------------------------
 BYTE   N11  Cn1  v127
 BYTE   N11  Cn1
 BYTE   N11  As1
 BYTE   N11  An2
 BYTE   W12
 BYTE   N05  Cn1
 BYTE   N05  Cn1
 BYTE   N05  Fs1
 BYTE   W06
 BYTE   N05
 BYTE   W06
 BYTE   N11  Dn1
 BYTE   N11  En1
 BYTE   N11  As1
 BYTE   N11  Bn1
 BYTE   N11  Cn2
 BYTE   N11  Dn2
 BYTE   W12
 BYTE   N05  Fs1
 BYTE   W06
 BYTE   N05
 BYTE   W06
 BYTE   N11  Cn1
 BYTE   N11  Cn1
 BYTE   N11  As1
 BYTE   W12
 BYTE   N05  Cn1
 BYTE   N05  Cn1
 BYTE   N05  Fs1
 BYTE   W06
 BYTE   N05
 BYTE   W06
 BYTE   Dn1
 BYTE   N05  En1
 BYTE   N05  As1
 BYTE   N05  Bn1
 BYTE   N05  Cn2
 BYTE   N05  Dn2
 BYTE   W06
 BYTE   Cn1
 BYTE   N05  Cn1
 BYTE   N05  Dn1
 BYTE   N05  En1
 BYTE   W06
 BYTE   Dn1
 BYTE   N05  En1
 BYTE   N05  Fs1
 BYTE   W06
 BYTE   Dn1
 BYTE   N05  En1
 BYTE   N05  Fs1
 BYTE   W06
//  #06 //204   ----------------------------------------
 BYTE   GoTo
  POIN2 Label_010091AE
//  #06 //205   ----------------------------------------
Label_01009B88:
 BYTE   N11  Cn1  v127
 BYTE   N11  Cn1
 BYTE   N11  Fs1
 BYTE   N11  An2
 BYTE   W12
 BYTE   Fs1
 BYTE   W12
 BYTE   Gs1
 BYTE   W12
 BYTE   Cn1
 BYTE   N11  Cn1
 BYTE   N11  Fs1
 BYTE   W12
 BYTE   Dn1
 BYTE   N11  En1
 BYTE   N11  As1
 BYTE   W12
 BYTE   Gs1
 BYTE   W12
 BYTE   Cn1
 BYTE   N11  Cn1
 BYTE   N11  Fs1
 BYTE   W12
 BYTE   Gs1
 BYTE   W12
 BYTE   PEND 
//  #06 //206   ----------------------------------------
 BYTE   PATT
  POIN2 Label_01009B88
//  #06 //207   ----------------------------------------
 BYTE   PATT
  POIN2 Label_01009B88
//  #06 //208   ----------------------------------------
 BYTE   N11  En1  v127
 BYTE   N11  An2
 BYTE   W12
 BYTE   Cn1
 BYTE   N11  Cn1
 BYTE   W12
 BYTE   En1
 BYTE   N11  An2
 BYTE   W12
 BYTE   Cn1
 BYTE   N11  Cn1
 BYTE   W12
 BYTE   En1
 BYTE   N11  An2
 BYTE   W12
 BYTE   Cn1
 BYTE   N11  Cn1
 BYTE   W12
 BYTE   N05  En1
 BYTE   N05  Dn2
 BYTE   W06
 BYTE   En1
 BYTE   N05  Cn2
 BYTE   W06
 BYTE   En1
 BYTE   N05  Bn1
 BYTE   W06
 BYTE   En1
 BYTE   N05  An1
 BYTE   W06
//  #06 //209   ----------------------------------------
 BYTE   N20
 BYTE   N20  Bn1
 BYTE   N20  Cn2
 BYTE   N20  Dn2
 BYTE   N20  An2
 BYTE   W24
 BYTE   N05  Cn1
 BYTE   N05  Dn2
 BYTE   N05  An2
 BYTE   W06
 BYTE   Cn2
 BYTE   W06
 BYTE   Bn1
 BYTE   W06
 BYTE   An1
 BYTE   W06
 BYTE   N20
 BYTE   N20  Bn1
 BYTE   N20  Cn2
 BYTE   N20  Dn2
 BYTE   N20  An2
 BYTE   W24
 BYTE   N05  Cn1
 BYTE   N05  Dn2
 BYTE   N05  An2
 BYTE   W06
 BYTE   Cn2
 BYTE   W06
 BYTE   Bn1
 BYTE   W06
 BYTE   An1
 BYTE   W06
//  #06 //210   ----------------------------------------
 BYTE   N15  Cn1
 BYTE   N15  Dn2
 BYTE   N15  An2
 BYTE   W16
 BYTE   Cn1
 BYTE   N15  Dn2
 BYTE   N15  An2
 BYTE   W16
 BYTE   Cn1
 BYTE   N15  Cn2
 BYTE   N15  An2
 BYTE   W16
 BYTE   Cn1
 BYTE   N15  En1
 BYTE   N15  Bn1
 BYTE   N15  An2
 BYTE   W16
 BYTE   Cn1
 BYTE   N15  En1
 BYTE   N15  Bn1
 BYTE   N15  An2
 BYTE   W16
 BYTE   Cn1
 BYTE   N15  En1
 BYTE   N15  An1
 BYTE   N15  An2
 BYTE   W16
//  #06 //211   ----------------------------------------
 BYTE   W48
 BYTE   N66  An1
 BYTE   N66  Bn1
 BYTE   N66  Cn2
 BYTE   N66  Dn2
 BYTE   N66  An2
 BYTE   W48
//  #06 //212   ----------------------------------------
 BYTE   W36
 BYTE   N03  En1
 BYTE   W04
 BYTE   N03
 BYTE   W04
 BYTE   N03
 BYTE   W04
 BYTE   N66  An1
 BYTE   N66  Bn1
 BYTE   N66  Cn2
 BYTE   N66  Dn2
 BYTE   N66  An2
 BYTE   W48
//  #06 //213   ----------------------------------------
 BYTE   W36
 BYTE   N03  En1
 BYTE   W04
 BYTE   N03
 BYTE   W04
 BYTE   N03
 BYTE   W04
 BYTE   N90  An1
 BYTE   N90  Bn1
 BYTE   N90  Cn2
 BYTE   N90  Dn2
 BYTE   N90  An2
 BYTE   W48
//  #06 //214   ----------------------------------------
 BYTE   W96
//  #06 //215   ----------------------------------------
 BYTE   W48
 BYTE   N02  Dn2
 BYTE   W03
 BYTE   Cn2
 BYTE   W03
 BYTE   Bn1
 BYTE   W03
 BYTE   An1
 BYTE   W03
 BYTE   N32  Cn1
 BYTE   N32  Cn1
 BYTE   N32  Dn1
 BYTE   N32  En1
 BYTE   N32  An1
 BYTE   N32  Bn1
 BYTE   N32  Cn2
 BYTE   N32  Dn2
 BYTE   N32  An2
 BYTE   W32
 BYTE   FINE

//******************************************************//
	ALIGN 4

DelusionalExtremities:
	BYTE	6	// NumTrks
	BYTE	0	// NumBlks
	BYTE	DelusionalExtremities_pri	// Priority
	BYTE	DelusionalExtremities_rev	// Reverb.
    
	POIN2	DelusionalExtremities_grp
    
	POIN2	DelusionalExtremities_001
	POIN2	DelusionalExtremities_002
	POIN2	DelusionalExtremities_003
	POIN2	DelusionalExtremities_004
	POIN2	DelusionalExtremities_005
	POIN2	DelusionalExtremities_006

	
