//Event file generated from Sappy .s format.
	#include "MPlayDef.event"

	#define	DestructionBegetsDecay_grp  voicegroup000
	#define	DestructionBegetsDecay_pri  0
	#define	DestructionBegetsDecay_rev  0
	#define	DestructionBegetsDecay_mvl  127
	#define	DestructionBegetsDecay_key  0
	#define	DestructionBegetsDecay_tbs  1
	#define	DestructionBegetsDecay_exg  0
	#define	DestructionBegetsDecay_cmp  1

	// .rodata
	//	DestructionBegetsDecay
	ALIGN 4


//**************** Track 1 (Midi-Chn.0) ****************//

DestructionBegetsDecay_001:
//  #01 //000   ----------------------------------------
 BYTE   KEYSH   DestructionBegetsDecay_key+0
 BYTE   TEMPO   160*DestructionBegetsDecay_tbs/2
 BYTE   VOICE   89
 BYTE   PAN   c_v-20
 BYTE   VOL   52*DestructionBegetsDecay_mvl/mxv
 BYTE   PAN   c_v-20
 BYTE   VOL   52*DestructionBegetsDecay_mvl/mxv
 BYTE   PAN   c_v-20
 BYTE   VOL   52*DestructionBegetsDecay_mvl/mxv
 BYTE   PAN   c_v-20
 BYTE   VOL   52*DestructionBegetsDecay_mvl/mxv
 BYTE   PAN   c_v-20
 BYTE   VOL   52*DestructionBegetsDecay_mvl/mxv
 BYTE   PAN   c_v-20
 BYTE   VOL   52*DestructionBegetsDecay_mvl/mxv
 BYTE   BEND   c_v+0
 BYTE   W96
//  #01 //001   ----------------------------------------
 BYTE   W96
//  #01 //002   ----------------------------------------
Label_014C5DCE:
 BYTE   W96
//  #01 //003   ----------------------------------------
 BYTE   W96
//  #01 //004   ----------------------------------------
 BYTE   W96
//  #01 //005   ----------------------------------------
 BYTE   W96
//  #01 //006   ----------------------------------------
 BYTE   W96
//  #01 //007   ----------------------------------------
 BYTE   W96
//  #01 //008   ----------------------------------------
Label_014C5DD4:
 BYTE   N23  Fs3  v072
 BYTE   N92  Dn4
 BYTE   W24
 BYTE   N23  Dn3
 BYTE   W24
 BYTE   Fs3
 BYTE   W24
 BYTE   An3
 BYTE   W24
 BYTE   PEND 
//  #01 //009   ----------------------------------------
Label_014C5DE2:
 BYTE   N92  Gs3  v072
 BYTE   N44  Cs4
 BYTE   W48
 BYTE   Cn4
 BYTE   W48
 BYTE   PEND 
//  #01 //010   ----------------------------------------
 BYTE   W96
//  #01 //011   ----------------------------------------
 BYTE   W96
//  #01 //012   ----------------------------------------
 BYTE   W96
//  #01 //013   ----------------------------------------
 BYTE   W96
//  #01 //014   ----------------------------------------
 BYTE   W96
//  #01 //015   ----------------------------------------
 BYTE   W96
//  #01 //016   ----------------------------------------
 BYTE   W96
//  #01 //017   ----------------------------------------
 BYTE   W96
//  #01 //018   ----------------------------------------
 BYTE   W96
//  #01 //019   ----------------------------------------
 BYTE   W96
//  #01 //020   ----------------------------------------
 BYTE   W96
//  #01 //021   ----------------------------------------
 BYTE   W96
//  #01 //022   ----------------------------------------
 BYTE   W96
//  #01 //023   ----------------------------------------
 BYTE   W96
//  #01 //024   ----------------------------------------
 BYTE   W96
//  #01 //025   ----------------------------------------
 BYTE   W96
//  #01 //026   ----------------------------------------
 BYTE   PATT
  POIN2 Label_014C5DD4
//  #01 //027   ----------------------------------------
 BYTE   PATT
  POIN2 Label_014C5DE2
//  #01 //028   ----------------------------------------
 BYTE   W96
//  #01 //029   ----------------------------------------
 BYTE   W96
//  #01 //030   ----------------------------------------
 BYTE   W96
//  #01 //031   ----------------------------------------
 BYTE   W96
//  #01 //032   ----------------------------------------
 BYTE   W96
//  #01 //033   ----------------------------------------
 BYTE   W96
//  #01 //034   ----------------------------------------
 BYTE   W96
//  #01 //035   ----------------------------------------
 BYTE   W96
//  #01 //036   ----------------------------------------
 BYTE   W96
//  #01 //037   ----------------------------------------
 BYTE   W96
//  #01 //038   ----------------------------------------
 BYTE   W96
//  #01 //039   ----------------------------------------
 BYTE   W96
//  #01 //040   ----------------------------------------
 BYTE   W96
//  #01 //041   ----------------------------------------
 BYTE   W96
//  #01 //042   ----------------------------------------
 BYTE   GoTo
  POIN2 Label_014C5DCE
//  #01 //043   ----------------------------------------
 BYTE   W96
//  #01 //044   ----------------------------------------
 BYTE   VOICE   89
 BYTE   PAN   c_v-20
 BYTE   VOL   52*DestructionBegetsDecay_mvl/mxv
 BYTE   PAN   c_v-20
 BYTE   VOL   52*DestructionBegetsDecay_mvl/mxv
 BYTE   PAN   c_v-20
 BYTE   VOL   52*DestructionBegetsDecay_mvl/mxv
 BYTE   BEND   c_v+0
 BYTE   FINE

//**************** Track 2 (Midi-Chn.1) ****************//

DestructionBegetsDecay_002:
//  #02 //000   ----------------------------------------
 BYTE   KEYSH   DestructionBegetsDecay_key+0
 BYTE   VOICE   30
 BYTE   PAN   c_v+0
 BYTE   VOL   49*DestructionBegetsDecay_mvl/mxv
 BYTE   PAN   c_v+0
 BYTE   VOL   49*DestructionBegetsDecay_mvl/mxv
 BYTE   PAN   c_v+0
 BYTE   VOL   49*DestructionBegetsDecay_mvl/mxv
 BYTE   PAN   c_v+0
 BYTE   VOL   49*DestructionBegetsDecay_mvl/mxv
 BYTE   PAN   c_v+0
 BYTE   VOL   49*DestructionBegetsDecay_mvl/mxv
 BYTE   PAN   c_v+0
 BYTE   VOL   49*DestructionBegetsDecay_mvl/mxv
 BYTE   BEND   c_v+0
 BYTE   W96
//  #02 //001   ----------------------------------------
 BYTE   W96
//  #02 //002   ----------------------------------------
Label_014C5614:
 BYTE   TIE  Cs2  v072
 BYTE   W12
 BYTE   N23  Gs3  v092
 BYTE   W12
 BYTE   Fs3
 BYTE   W12
 BYTE   Bn3
 BYTE   W12
 BYTE   En3
 BYTE   W12
 BYTE   Ds3
 BYTE   W12
 BYTE   Bn2
 BYTE   W12
 BYTE   Gs2
 BYTE   W12
 BYTE   PEND 
//  #02 //003   ----------------------------------------
Label_014C5629:
 BYTE   N23  Gs3  v092
 BYTE   W12
 BYTE   Fs3
 BYTE   W12
 BYTE   Bn3
 BYTE   W12
 BYTE   En3
 BYTE   W12
 BYTE   Ds3
 BYTE   W12
 BYTE   En3
 BYTE   W12
 BYTE   Gs3
 BYTE   W12
 BYTE   Bn3
 BYTE   W11
 BYTE   PEND 
 BYTE   EOT
 BYTE   Cs2
 BYTE   W01
//  #02 //004   ----------------------------------------
Label_014C563F:
 BYTE   N92  An1  v072
 BYTE   N68  Ds4  v092
 BYTE   W72
 BYTE   N23  En4
 BYTE   W24
 BYTE   PEND 
//  #02 //005   ----------------------------------------
Label_014C564A:
 BYTE   N23  An1  v072
 BYTE   N92  Cs4  v092
 BYTE   W24
 BYTE   N23  En2  v072
 BYTE   W24
 BYTE   An2
 BYTE   W24
 BYTE   En3
 BYTE   W24
 BYTE   PEND 
//  #02 //006   ----------------------------------------
Label_014C565A:
 BYTE   N44  Fs3  v072
 BYTE   W12
 BYTE   N23  Bn3  v092
 BYTE   W12
 BYTE   An3
 BYTE   W12
 BYTE   Cs4
 BYTE   W12
 BYTE   Gs3
 BYTE   W12
 BYTE   Fs3
 BYTE   W12
 BYTE   Cs3
 BYTE   W12
 BYTE   An2
 BYTE   W12
 BYTE   PEND 
//  #02 //007   ----------------------------------------
Label_014C566F:
 BYTE   N44  Fs3  v072
 BYTE   N23  Bn3  v092
 BYTE   W12
 BYTE   An3
 BYTE   W12
 BYTE   Cs4
 BYTE   W12
 BYTE   Gs3
 BYTE   W12
 BYTE   Fs3
 BYTE   W12
 BYTE   Cs3
 BYTE   W12
 BYTE   Fs3
 BYTE   W12
 BYTE   Gs3
 BYTE   W12
 BYTE   PEND 
//  #02 //008   ----------------------------------------
Label_014C5685:
 BYTE   N23  Dn3  v092
 BYTE   N68  An3
 BYTE   W24
 BYTE   N23  An2
 BYTE   W24
 BYTE   Dn3
 BYTE   W24
 BYTE   Fs3
 BYTE   N23  Bn3
 BYTE   W24
 BYTE   PEND 
//  #02 //009   ----------------------------------------
Label_014C5695:
 BYTE   N32  Cs3  v092
 BYTE   N68  Gs3
 BYTE   W36
 BYTE   N05  Ds3
 BYTE   W06
 BYTE   Cs3
 BYTE   W06
 BYTE   N32  Cn3
 BYTE   W48
 BYTE   PEND 
//  #02 //010   ----------------------------------------
 BYTE   PATT
  POIN2 Label_014C5614
//  #02 //011   ----------------------------------------
Label_014C56A9:
 BYTE   N23  Gs3  v092
 BYTE   W12
 BYTE   Fs3
 BYTE   W12
 BYTE   Bn3
 BYTE   W12
 BYTE   En3
 BYTE   W12
 BYTE   Ds3
 BYTE   W12
 BYTE   Cs3
 BYTE   W12
 BYTE   Gs3
 BYTE   W12
 BYTE   Cs4
 BYTE   W11
 BYTE   PEND 
 BYTE   EOT
 BYTE   Cs2
 BYTE   W01
//  #02 //012   ----------------------------------------
Label_014C56BF:
 BYTE   N92  An1  v072
 BYTE   N68  Gs4  v092
 BYTE   W72
 BYTE   N23  An4
 BYTE   W24
 BYTE   PEND 
//  #02 //013   ----------------------------------------
Label_014C56CA:
 BYTE   N23  An1  v072
 BYTE   N68  Fs4  v092
 BYTE   W24
 BYTE   N23  En2  v072
 BYTE   W24
 BYTE   An2
 BYTE   W24
 BYTE   En3
 BYTE   N11  Fs4  v092
 BYTE   W12
 BYTE   Gs4
 BYTE   W12
 BYTE   PEND 
//  #02 //014   ----------------------------------------
Label_014C56DF:
 BYTE   N23  Dn3  v072
 BYTE   N23  An4  v092
 BYTE   W24
 BYTE   N11  Fs4
 BYTE   W12
 BYTE   N32  Gs2  v072
 BYTE   N32  Ds3
 BYTE   N32  Cn4  v092
 BYTE   W60
 BYTE   PEND 
//  #02 //015   ----------------------------------------
Label_014C56F3:
 BYTE   N23  Cs3  v072
 BYTE   N23  Gs4  v092
 BYTE   W24
 BYTE   N11  En4
 BYTE   W12
 BYTE   N32  Fs2  v072
 BYTE   N32  Dn3
 BYTE   N32  An3  v092
 BYTE   W36
 BYTE   N11
 BYTE   W12
 BYTE   Bn3
 BYTE   W12
 BYTE   PEND 
//  #02 //016   ----------------------------------------
Label_014C570B:
 BYTE   N92  An2  v072
 BYTE   N92  En3
 BYTE   N44  Cs4  v092
 BYTE   W36
 BYTE   N23  Fs3
 BYTE   W24
 BYTE   Cs4
 BYTE   W24
 BYTE   N11  Ds4
 BYTE   W12
 BYTE   PEND 
//  #02 //017   ----------------------------------------
Label_014C571D:
 BYTE   N44  Bn2  v072
 BYTE   N44  En3
 BYTE   N17  En4  v092
 BYTE   W18
 BYTE   An3
 BYTE   W18
 BYTE   N11  En4
 BYTE   W12
 BYTE   N44  Cs3  v072
 BYTE   N44  Fs3
 BYTE   N17  Fs4  v092
 BYTE   W18
 BYTE   Cs4
 BYTE   W18
 BYTE   N11  Fs4
 BYTE   W12
 BYTE   PEND 
//  #02 //018   ----------------------------------------
 BYTE   TIE  Gs4
 BYTE   W96
//  #02 //019   ----------------------------------------
 BYTE   W68
 BYTE   W03
 BYTE   EOT
 BYTE   W24
 BYTE   W01
//  #02 //020   ----------------------------------------
 BYTE   PATT
  POIN2 Label_014C5614
//  #02 //021   ----------------------------------------
 BYTE   PATT
  POIN2 Label_014C5629
//  #02 //022   ----------------------------------------
 BYTE   EOT
 BYTE   Cs2
 BYTE   W01
//  #02 //023   ----------------------------------------
 BYTE   PATT
  POIN2 Label_014C563F
//  #02 //024   ----------------------------------------
 BYTE   PATT
  POIN2 Label_014C564A
//  #02 //025   ----------------------------------------
 BYTE   PATT
  POIN2 Label_014C565A
//  #02 //026   ----------------------------------------
 BYTE   PATT
  POIN2 Label_014C566F
//  #02 //027   ----------------------------------------
 BYTE   PATT
  POIN2 Label_014C5685
//  #02 //028   ----------------------------------------
 BYTE   PATT
  POIN2 Label_014C5695
//  #02 //029   ----------------------------------------
 BYTE   PATT
  POIN2 Label_014C5614
//  #02 //030   ----------------------------------------
 BYTE   PATT
  POIN2 Label_014C56A9
//  #02 //031   ----------------------------------------
 BYTE   EOT
 BYTE   Cs2
 BYTE   W01
//  #02 //032   ----------------------------------------
 BYTE   PATT
  POIN2 Label_014C56BF
//  #02 //033   ----------------------------------------
 BYTE   PATT
  POIN2 Label_014C56CA
//  #02 //034   ----------------------------------------
 BYTE   PATT
  POIN2 Label_014C56DF
//  #02 //035   ----------------------------------------
 BYTE   PATT
  POIN2 Label_014C56F3
//  #02 //036   ----------------------------------------
 BYTE   PATT
  POIN2 Label_014C570B
//  #02 //037   ----------------------------------------
 BYTE   PATT
  POIN2 Label_014C571D
//  #02 //038   ----------------------------------------
Label_014C5798:
 BYTE   N32  En3  v072
 BYTE   N32  Gs3
 BYTE   N23  Gs4  v092
 BYTE   W36
 BYTE   Dn3  v072
 BYTE   N23  Fs3
 BYTE   N23  Fs4  v092
 BYTE   W24
 BYTE   N32  An2  v072
 BYTE   N32  En3
 BYTE   N32  En4  v092
 BYTE   W36
 BYTE   PEND 
//  #02 //039   ----------------------------------------
Label_014C57B3:
 BYTE   N32  Gs2  v072
 BYTE   N32  Cs3
 BYTE   N23  Ds4  v092
 BYTE   W36
 BYTE   N56  Fs2  v072
 BYTE   N56  Dn3
 BYTE   N56  En4  v092
 BYTE   W60
 BYTE   PEND 
//  #02 //040   ----------------------------------------
 BYTE   PATT
  POIN2 Label_014C5798
//  #02 //041   ----------------------------------------
 BYTE   PATT
  POIN2 Label_014C57B3
//  #02 //042   ----------------------------------------
 BYTE   N05  Gs3  v072
 BYTE   N05  Fs4  v092
 BYTE   W36
 BYTE   Gs3  v072
 BYTE   N05  Fs4  v092
 BYTE   W36
 BYTE   Gs3  v072
 BYTE   N05  Fs4  v092
 BYTE   W24
//  #02 //043   ----------------------------------------
 BYTE   W24
 BYTE   N68  En3  v072
 BYTE   N68  Fs4
 BYTE   W72
//  #02 //044   ----------------------------------------
 BYTE   GoTo
  POIN2 Label_014C5614
//  #02 //045   ----------------------------------------
 BYTE   W96
//  #02 //046   ----------------------------------------
 BYTE   PAN   c_v+0
 BYTE   VOL   49*DestructionBegetsDecay_mvl/mxv
 BYTE   PAN   c_v+0
 BYTE   VOL   49*DestructionBegetsDecay_mvl/mxv
 BYTE   PAN   c_v+0
 BYTE   VOL   49*DestructionBegetsDecay_mvl/mxv
 BYTE   BEND   c_v+0
 BYTE   FINE

//**************** Track 3 (Midi-Chn.2) ****************//

DestructionBegetsDecay_003:
//  #03 //000   ----------------------------------------
 BYTE   KEYSH   DestructionBegetsDecay_key+0
 BYTE   VOICE   30
 BYTE   PAN   c_v-50
 BYTE   VOL   49*DestructionBegetsDecay_mvl/mxv
 BYTE   PAN   c_v-50
 BYTE   VOL   49*DestructionBegetsDecay_mvl/mxv
 BYTE   PAN   c_v-50
 BYTE   VOL   49*DestructionBegetsDecay_mvl/mxv
 BYTE   PAN   c_v-50
 BYTE   VOL   49*DestructionBegetsDecay_mvl/mxv
 BYTE   PAN   c_v-50
 BYTE   VOL   49*DestructionBegetsDecay_mvl/mxv
 BYTE   PAN   c_v-50
 BYTE   VOL   49*DestructionBegetsDecay_mvl/mxv
 BYTE   BEND   c_v+0
 BYTE   W96
//  #03 //001   ----------------------------------------
 BYTE   W96
//  #03 //002   ----------------------------------------
Label_014C5F0C:
 BYTE   W36
 BYTE   N23  Gs3  v052
 BYTE   W12
 BYTE   Fs3
 BYTE   W12
 BYTE   Bn3
 BYTE   W12
 BYTE   En3
 BYTE   W12
 BYTE   Ds3
 BYTE   W12
 BYTE   PEND 
//  #03 //003   ----------------------------------------
Label_014C5F1A:
 BYTE   N23  Bn2  v052
 BYTE   W12
 BYTE   Gs2
 BYTE   W12
 BYTE   Gs3
 BYTE   W12
 BYTE   Fs3
 BYTE   W12
 BYTE   Bn3
 BYTE   W12
 BYTE   En3
 BYTE   W12
 BYTE   Ds3
 BYTE   W12
 BYTE   En3
 BYTE   W12
 BYTE   PEND 
//  #03 //004   ----------------------------------------
Label_014C5F2D:
 BYTE   N23  Gs3  v052
 BYTE   W12
 BYTE   Bn3
 BYTE   W12
 BYTE   N68  Ds4
 BYTE   W72
 BYTE   PEND 
//  #03 //005   ----------------------------------------
Label_014C5F37:
 BYTE   N23  En4  v052
 BYTE   W24
 BYTE   N92  Cs4
 BYTE   W72
 BYTE   PEND 
//  #03 //006   ----------------------------------------
Label_014C5F3F:
 BYTE   W36
 BYTE   N23  Bn3  v052
 BYTE   W12
 BYTE   An3
 BYTE   W12
 BYTE   Cs4
 BYTE   W12
 BYTE   Gs3
 BYTE   W12
 BYTE   Fs3
 BYTE   W12
 BYTE   PEND 
//  #03 //007   ----------------------------------------
Label_014C5F4D:
 BYTE   N23  Cs3  v052
 BYTE   W12
 BYTE   An2
 BYTE   W12
 BYTE   Bn3
 BYTE   W12
 BYTE   An3
 BYTE   W12
 BYTE   Cs4
 BYTE   W12
 BYTE   Gs3
 BYTE   W12
 BYTE   Fs3
 BYTE   W12
 BYTE   Cs3
 BYTE   W12
 BYTE   PEND 
//  #03 //008   ----------------------------------------
Label_014C5F60:
 BYTE   N23  Fs3  v052
 BYTE   W12
 BYTE   Gs3
 BYTE   W12
 BYTE   N68  An3
 BYTE   W72
 BYTE   PEND 
//  #03 //009   ----------------------------------------
Label_014C5F6A:
 BYTE   N23  Bn3  v052
 BYTE   W24
 BYTE   N68  Gs3
 BYTE   W72
 BYTE   PEND 
//  #03 //010   ----------------------------------------
 BYTE   PATT
  POIN2 Label_014C5F0C
//  #03 //011   ----------------------------------------
Label_014C5F77:
 BYTE   N23  Bn2  v052
 BYTE   W12
 BYTE   Gs2
 BYTE   W12
 BYTE   Gs3
 BYTE   W12
 BYTE   Fs3
 BYTE   W12
 BYTE   Bn3
 BYTE   W12
 BYTE   En3
 BYTE   W12
 BYTE   Ds3
 BYTE   W12
 BYTE   Cs3
 BYTE   W12
 BYTE   PEND 
//  #03 //012   ----------------------------------------
Label_014C5F8A:
 BYTE   N23  Gs3  v052
 BYTE   W12
 BYTE   Cs4
 BYTE   W12
 BYTE   N68  Gs4
 BYTE   W72
 BYTE   PEND 
//  #03 //013   ----------------------------------------
Label_014C5F94:
 BYTE   N23  An4  v052
 BYTE   W24
 BYTE   N68  Fs4
 BYTE   W72
 BYTE   PEND 
//  #03 //014   ----------------------------------------
Label_014C5F9C:
 BYTE   N11  Fs4  v052
 BYTE   W12
 BYTE   Gs4
 BYTE   W12
 BYTE   N23  An4
 BYTE   W24
 BYTE   N11  Fs4
 BYTE   W12
 BYTE   N32  Cn4
 BYTE   W36
 BYTE   PEND 
//  #03 //015   ----------------------------------------
Label_014C5FAC:
 BYTE   W24
 BYTE   N23  Gs4  v052
 BYTE   W24
 BYTE   N11  En4
 BYTE   W12
 BYTE   N32  An3
 BYTE   W36
 BYTE   PEND 
//  #03 //016   ----------------------------------------
Label_014C5FB8:
 BYTE   N11  An3  v052
 BYTE   W12
 BYTE   Bn3
 BYTE   W12
 BYTE   N44  Cs4
 BYTE   W36
 BYTE   N23  Fs3
 BYTE   W24
 BYTE   Cs4
 BYTE   W12
 BYTE   PEND 
//  #03 //017   ----------------------------------------
Label_014C5FC7:
 BYTE   W12
 BYTE   N11  Ds4  v052
 BYTE   W12
 BYTE   N17  En4
 BYTE   W18
 BYTE   An3
 BYTE   W18
 BYTE   N11  En4
 BYTE   W12
 BYTE   N17  Fs4
 BYTE   W18
 BYTE   Cs4
 BYTE   W06
 BYTE   PEND 
//  #03 //018   ----------------------------------------
 BYTE   W12
 BYTE   N11  Fs4
 BYTE   W84
//  #03 //019   ----------------------------------------
 BYTE   W96
//  #03 //020   ----------------------------------------
 BYTE   PATT
  POIN2 Label_014C5F0C
//  #03 //021   ----------------------------------------
 BYTE   PATT
  POIN2 Label_014C5F1A
//  #03 //022   ----------------------------------------
 BYTE   PATT
  POIN2 Label_014C5F2D
//  #03 //023   ----------------------------------------
 BYTE   PATT
  POIN2 Label_014C5F37
//  #03 //024   ----------------------------------------
 BYTE   PATT
  POIN2 Label_014C5F3F
//  #03 //025   ----------------------------------------
 BYTE   PATT
  POIN2 Label_014C5F4D
//  #03 //026   ----------------------------------------
 BYTE   PATT
  POIN2 Label_014C5F60
//  #03 //027   ----------------------------------------
 BYTE   PATT
  POIN2 Label_014C5F6A
//  #03 //028   ----------------------------------------
 BYTE   PATT
  POIN2 Label_014C5F0C
//  #03 //029   ----------------------------------------
 BYTE   PATT
  POIN2 Label_014C5F77
//  #03 //030   ----------------------------------------
 BYTE   PATT
  POIN2 Label_014C5F8A
//  #03 //031   ----------------------------------------
 BYTE   PATT
  POIN2 Label_014C5F94
//  #03 //032   ----------------------------------------
 BYTE   PATT
  POIN2 Label_014C5F9C
//  #03 //033   ----------------------------------------
 BYTE   PATT
  POIN2 Label_014C5FAC
//  #03 //034   ----------------------------------------
 BYTE   PATT
  POIN2 Label_014C5FB8
//  #03 //035   ----------------------------------------
 BYTE   PATT
  POIN2 Label_014C5FC7
//  #03 //036   ----------------------------------------
 BYTE   W12
 BYTE   N11  Fs4  v052
 BYTE   W84
//  #03 //037   ----------------------------------------
 BYTE   W96
//  #03 //038   ----------------------------------------
 BYTE   W96
//  #03 //039   ----------------------------------------
 BYTE   W96
//  #03 //040   ----------------------------------------
 BYTE   W96
//  #03 //041   ----------------------------------------
 BYTE   W96
//  #03 //042   ----------------------------------------
 BYTE   GoTo
  POIN2 Label_014C5F0C
//  #03 //043   ----------------------------------------
 BYTE   W96
//  #03 //044   ----------------------------------------
 BYTE   PAN   c_v-50
 BYTE   VOL   49*DestructionBegetsDecay_mvl/mxv
 BYTE   PAN   c_v-50
 BYTE   VOL   49*DestructionBegetsDecay_mvl/mxv
 BYTE   PAN   c_v-50
 BYTE   VOL   49*DestructionBegetsDecay_mvl/mxv
 BYTE   BEND   c_v+0
 BYTE   FINE

//**************** Track 4 (Midi-Chn.3) ****************//

DestructionBegetsDecay_004:
//  #04 //000   ----------------------------------------
 BYTE   KEYSH   DestructionBegetsDecay_key+0
 BYTE   VOICE   36
 BYTE   PAN   c_v+0
 BYTE   VOL   49*DestructionBegetsDecay_mvl/mxv
 BYTE   PAN   c_v+0
 BYTE   VOL   49*DestructionBegetsDecay_mvl/mxv
 BYTE   PAN   c_v+0
 BYTE   VOL   49*DestructionBegetsDecay_mvl/mxv
 BYTE   PAN   c_v+0
 BYTE   VOL   49*DestructionBegetsDecay_mvl/mxv
 BYTE   PAN   c_v+0
 BYTE   VOL   49*DestructionBegetsDecay_mvl/mxv
 BYTE   PAN   c_v+0
 BYTE   VOL   49*DestructionBegetsDecay_mvl/mxv
 BYTE   BEND   c_v+0
 BYTE   N05  Cs1  v092
 BYTE   W12
 BYTE   N05
 BYTE   W12
 BYTE   N05
 BYTE   W12
 BYTE   N05
 BYTE   W12
 BYTE   N05
 BYTE   W12
 BYTE   N05
 BYTE   W12
 BYTE   N05
 BYTE   W12
 BYTE   N05
 BYTE   W12
//  #04 //001   ----------------------------------------
Label_014C5848:
 BYTE   N05  Cs1  v092
 BYTE   W12
 BYTE   N05
 BYTE   W12
 BYTE   N05
 BYTE   W12
 BYTE   N05
 BYTE   W12
 BYTE   N05
 BYTE   W12
 BYTE   N05
 BYTE   W12
 BYTE   N05
 BYTE   W12
 BYTE   N05
 BYTE   W12
 BYTE   PEND 
//  #04 //002   ----------------------------------------
Label_014C585B:
 BYTE   N05  Cs1  v092
 BYTE   W12
 BYTE   N05
 BYTE   W06
 BYTE   N05
 BYTE   W06
 BYTE   N05
 BYTE   W12
 BYTE   N05
 BYTE   W06
 BYTE   N05
 BYTE   W06
 BYTE   N05
 BYTE   W12
 BYTE   N05
 BYTE   W06
 BYTE   N05
 BYTE   W06
 BYTE   N05
 BYTE   W12
 BYTE   N05
 BYTE   W06
 BYTE   N05
 BYTE   W06
 BYTE   PEND 
//  #04 //003   ----------------------------------------
 BYTE   PATT
  POIN2 Label_014C585B
//  #04 //004   ----------------------------------------
Label_014C587B:
 BYTE   N05  An0  v092
 BYTE   W12
 BYTE   N05
 BYTE   W06
 BYTE   N05
 BYTE   W06
 BYTE   N05
 BYTE   W12
 BYTE   N05
 BYTE   W06
 BYTE   N05
 BYTE   W06
 BYTE   N05
 BYTE   W12
 BYTE   N05
 BYTE   W06
 BYTE   N05
 BYTE   W06
 BYTE   N05
 BYTE   W12
 BYTE   N05
 BYTE   W06
 BYTE   N05
 BYTE   W06
 BYTE   PEND 
//  #04 //005   ----------------------------------------
 BYTE   PATT
  POIN2 Label_014C587B
//  #04 //006   ----------------------------------------
Label_014C589B:
 BYTE   N05  Fs1  v092
 BYTE   W12
 BYTE   N05
 BYTE   W06
 BYTE   N05
 BYTE   W06
 BYTE   N05
 BYTE   W12
 BYTE   N05
 BYTE   W06
 BYTE   N05
 BYTE   W06
 BYTE   N05
 BYTE   W12
 BYTE   N05
 BYTE   W06
 BYTE   N05
 BYTE   W06
 BYTE   N05
 BYTE   W12
 BYTE   N05
 BYTE   W06
 BYTE   N05
 BYTE   W06
 BYTE   PEND 
//  #04 //007   ----------------------------------------
Label_014C58B6:
 BYTE   N05  Fs1  v092
 BYTE   W12
 BYTE   N05
 BYTE   W06
 BYTE   N05
 BYTE   W06
 BYTE   N05
 BYTE   W12
 BYTE   N05
 BYTE   W06
 BYTE   N05
 BYTE   W06
 BYTE   Ds1
 BYTE   W12
 BYTE   N05
 BYTE   W06
 BYTE   N05
 BYTE   W06
 BYTE   N05
 BYTE   W12
 BYTE   N05
 BYTE   W06
 BYTE   N05
 BYTE   W06
 BYTE   PEND 
//  #04 //008   ----------------------------------------
Label_014C58D1:
 BYTE   N05  Dn1  v092
 BYTE   W12
 BYTE   N05
 BYTE   W06
 BYTE   N05
 BYTE   W06
 BYTE   N05
 BYTE   W12
 BYTE   N05
 BYTE   W06
 BYTE   N05
 BYTE   W06
 BYTE   Fs1
 BYTE   W12
 BYTE   N05
 BYTE   W06
 BYTE   N05
 BYTE   W06
 BYTE   N05
 BYTE   W12
 BYTE   N05
 BYTE   W06
 BYTE   N05
 BYTE   W06
 BYTE   PEND 
//  #04 //009   ----------------------------------------
Label_014C58EC:
 BYTE   N05  Gs1  v092
 BYTE   W12
 BYTE   N05
 BYTE   W06
 BYTE   N05
 BYTE   W06
 BYTE   N05
 BYTE   W12
 BYTE   N05
 BYTE   W06
 BYTE   N05
 BYTE   W06
 BYTE   N05
 BYTE   W12
 BYTE   N05
 BYTE   W06
 BYTE   N05
 BYTE   W06
 BYTE   N05
 BYTE   W12
 BYTE   N05
 BYTE   W06
 BYTE   N05
 BYTE   W06
 BYTE   PEND 
//  #04 //010   ----------------------------------------
 BYTE   PATT
  POIN2 Label_014C585B
//  #04 //011   ----------------------------------------
 BYTE   PATT
  POIN2 Label_014C585B
//  #04 //012   ----------------------------------------
 BYTE   PATT
  POIN2 Label_014C587B
//  #04 //013   ----------------------------------------
 BYTE   PATT
  POIN2 Label_014C587B
//  #04 //014   ----------------------------------------
Label_014C591B:
 BYTE   N11  Dn1  v092
 BYTE   W12
 BYTE   An1
 BYTE   W12
 BYTE   Dn2
 BYTE   W12
 BYTE   N23  Gs1
 BYTE   W24
 BYTE   N11  Gs0
 BYTE   W12
 BYTE   Ds1
 BYTE   W12
 BYTE   Gs0
 BYTE   W12
 BYTE   PEND 
//  #04 //015   ----------------------------------------
Label_014C592E:
 BYTE   N11  Cs1  v092
 BYTE   W12
 BYTE   Gs1
 BYTE   W12
 BYTE   Cs2
 BYTE   W12
 BYTE   N23  Gn1
 BYTE   W24
 BYTE   N11  Dn1
 BYTE   W12
 BYTE   Gn1
 BYTE   W12
 BYTE   Dn2
 BYTE   W12
 BYTE   PEND 
//  #04 //016   ----------------------------------------
Label_014C5941:
 BYTE   N11  Fs0  v092
 BYTE   W12
 BYTE   N05
 BYTE   W06
 BYTE   N05
 BYTE   W06
 BYTE   N11
 BYTE   W12
 BYTE   N05
 BYTE   W06
 BYTE   N05
 BYTE   W06
 BYTE   N11
 BYTE   W12
 BYTE   N05
 BYTE   W06
 BYTE   N05
 BYTE   W06
 BYTE   N11  Gs0
 BYTE   W12
 BYTE   N05
 BYTE   W06
 BYTE   N05
 BYTE   W06
 BYTE   PEND 
//  #04 //017   ----------------------------------------
Label_014C595D:
 BYTE   N11  An0  v092
 BYTE   W12
 BYTE   N05
 BYTE   W06
 BYTE   N05
 BYTE   W06
 BYTE   N11
 BYTE   W12
 BYTE   N05
 BYTE   W06
 BYTE   N05
 BYTE   W06
 BYTE   N11  Bn0
 BYTE   W12
 BYTE   N05
 BYTE   W06
 BYTE   N05
 BYTE   W06
 BYTE   N11
 BYTE   W12
 BYTE   N05
 BYTE   W06
 BYTE   N05
 BYTE   W06
 BYTE   PEND 
//  #04 //018   ----------------------------------------
 BYTE   PATT
  POIN2 Label_014C5848
//  #04 //019   ----------------------------------------
 BYTE   PATT
  POIN2 Label_014C5848
//  #04 //020   ----------------------------------------
 BYTE   PATT
  POIN2 Label_014C585B
//  #04 //021   ----------------------------------------
 BYTE   PATT
  POIN2 Label_014C585B
//  #04 //022   ----------------------------------------
 BYTE   PATT
  POIN2 Label_014C587B
//  #04 //023   ----------------------------------------
 BYTE   PATT
  POIN2 Label_014C587B
//  #04 //024   ----------------------------------------
 BYTE   PATT
  POIN2 Label_014C589B
//  #04 //025   ----------------------------------------
 BYTE   PATT
  POIN2 Label_014C58B6
//  #04 //026   ----------------------------------------
 BYTE   PATT
  POIN2 Label_014C58D1
//  #04 //027   ----------------------------------------
 BYTE   PATT
  POIN2 Label_014C58EC
//  #04 //028   ----------------------------------------
 BYTE   PATT
  POIN2 Label_014C585B
//  #04 //029   ----------------------------------------
 BYTE   PATT
  POIN2 Label_014C585B
//  #04 //030   ----------------------------------------
 BYTE   PATT
  POIN2 Label_014C587B
//  #04 //031   ----------------------------------------
 BYTE   PATT
  POIN2 Label_014C587B
//  #04 //032   ----------------------------------------
 BYTE   PATT
  POIN2 Label_014C591B
//  #04 //033   ----------------------------------------
 BYTE   PATT
  POIN2 Label_014C592E
//  #04 //034   ----------------------------------------
 BYTE   PATT
  POIN2 Label_014C5941
//  #04 //035   ----------------------------------------
 BYTE   PATT
  POIN2 Label_014C595D
//  #04 //036   ----------------------------------------
Label_014C59D3:
 BYTE   N11  Cs1  v100
 BYTE   W12
 BYTE   Gs1
 BYTE   W12
 BYTE   Cs2
 BYTE   W12
 BYTE   N23  Dn1
 BYTE   W24
 BYTE   N11  An1
 BYTE   W12
 BYTE   Dn2
 BYTE   W12
 BYTE   An1
 BYTE   W12
 BYTE   PEND 
//  #04 //037   ----------------------------------------
 BYTE   Gs0
 BYTE   W12
 BYTE   Cs1
 BYTE   W12
 BYTE   Gs1
 BYTE   W12
 BYTE   N23  Gn0
 BYTE   W24
 BYTE   N11  Dn1
 BYTE   W12
 BYTE   Gn1
 BYTE   W12
 BYTE   Dn1
 BYTE   W12
//  #04 //038   ----------------------------------------
 BYTE   PATT
  POIN2 Label_014C59D3
//  #04 //039   ----------------------------------------
 BYTE   N11  Gs0  v100
 BYTE   W12
 BYTE   Ds1
 BYTE   W12
 BYTE   Gs1
 BYTE   W12
 BYTE   N23  Gn0
 BYTE   W24
 BYTE   N11  Dn1
 BYTE   W12
 BYTE   Gn1
 BYTE   W12
 BYTE   Dn1
 BYTE   W12
//  #04 //040   ----------------------------------------
 BYTE   Gs1  v092
 BYTE   W12
 BYTE   N05  Gs0
 BYTE   W12
 BYTE   N05
 BYTE   W12
 BYTE   N11  Gs1
 BYTE   W12
 BYTE   N05  Gs0
 BYTE   W12
 BYTE   N05
 BYTE   W12
 BYTE   N11  Gs1
 BYTE   W12
 BYTE   N05  Gs0
 BYTE   W12
//  #04 //041   ----------------------------------------
 BYTE   N05
 BYTE   W12
 BYTE   N05
 BYTE   W12
 BYTE   Dn1
 BYTE   W12
 BYTE   N05
 BYTE   W12
 BYTE   N05
 BYTE   W12
 BYTE   N05
 BYTE   W12
 BYTE   N05
 BYTE   W12
 BYTE   N05
 BYTE   W12
//  #04 //042   ----------------------------------------
 BYTE   GoTo
  POIN2 Label_014C585B
//  #04 //043   ----------------------------------------
 BYTE   W96
//  #04 //044   ----------------------------------------
 BYTE   VOICE   36
 BYTE   PAN   c_v+0
 BYTE   VOL   49*DestructionBegetsDecay_mvl/mxv
 BYTE   PAN   c_v+0
 BYTE   VOL   49*DestructionBegetsDecay_mvl/mxv
 BYTE   PAN   c_v+0
 BYTE   VOL   49*DestructionBegetsDecay_mvl/mxv
 BYTE   BEND   c_v+0
 BYTE   FINE

//**************** Track 5 (Midi-Chn.4) ****************//

DestructionBegetsDecay_005:
//  #05 //000   ----------------------------------------
 BYTE   KEYSH   DestructionBegetsDecay_key+0
 BYTE   VOICE   81
 BYTE   PAN   c_v+0
 BYTE   VOL   39*DestructionBegetsDecay_mvl/mxv
 BYTE   PAN   c_v+0
 BYTE   VOL   39*DestructionBegetsDecay_mvl/mxv
 BYTE   PAN   c_v+0
 BYTE   VOL   39*DestructionBegetsDecay_mvl/mxv
 BYTE   PAN   c_v+0
 BYTE   VOL   39*DestructionBegetsDecay_mvl/mxv
 BYTE   PAN   c_v+0
 BYTE   VOL   39*DestructionBegetsDecay_mvl/mxv
 BYTE   PAN   c_v+0
 BYTE   VOL   39*DestructionBegetsDecay_mvl/mxv
 BYTE   BEND   c_v+0
 BYTE   N05  Cs2  v080
 BYTE   W06
 BYTE   Gs2
 BYTE   W06
 BYTE   Cs3
 BYTE   W06
 BYTE   En3
 BYTE   W06
 BYTE   Gs3
 BYTE   W06
 BYTE   Cs4
 BYTE   W06
 BYTE   En4
 BYTE   W06
 BYTE   Gs4
 BYTE   W06
 BYTE   Cs5
 BYTE   W06
 BYTE   Gs4
 BYTE   W06
 BYTE   En4
 BYTE   W06
 BYTE   Cs4
 BYTE   W06
 BYTE   Gs3
 BYTE   W06
 BYTE   En3
 BYTE   W06
 BYTE   Cs3
 BYTE   W06
 BYTE   Gs2
 BYTE   W06
//  #05 //001   ----------------------------------------
Label_014C5B1C:
 BYTE   N05  Cs2  v080
 BYTE   W06
 BYTE   Gs2
 BYTE   W06
 BYTE   Cs3
 BYTE   W06
 BYTE   En3
 BYTE   W06
 BYTE   Gs3
 BYTE   W06
 BYTE   Cs4
 BYTE   W06
 BYTE   En4
 BYTE   W06
 BYTE   Gs4
 BYTE   W06
 BYTE   Cs5
 BYTE   W06
 BYTE   Gs4
 BYTE   W06
 BYTE   En4
 BYTE   W06
 BYTE   Cs4
 BYTE   W06
 BYTE   Gs3
 BYTE   W06
 BYTE   En3
 BYTE   W06
 BYTE   Cs3
 BYTE   W06
 BYTE   Gs2
 BYTE   W06
 BYTE   PEND 
//  #05 //002   ----------------------------------------
Label_014C5B3F:
//  #05 //003   ----------------------------------------
 BYTE   PATT
  POIN2 Label_014C5B1C
//  #05 //004   ----------------------------------------
 BYTE   PATT
  POIN2 Label_014C5B1C
//  #05 //005   ----------------------------------------
Label_014C5B49:
 BYTE   N05  An1  v080
 BYTE   W06
 BYTE   En2
 BYTE   W06
 BYTE   An2
 BYTE   W06
 BYTE   Cs3
 BYTE   W06
 BYTE   En3
 BYTE   W06
 BYTE   An3
 BYTE   W06
 BYTE   Cs4
 BYTE   W06
 BYTE   En4
 BYTE   W06
 BYTE   An4
 BYTE   W06
 BYTE   En4
 BYTE   W06
 BYTE   Cs4
 BYTE   W06
 BYTE   An3
 BYTE   W06
 BYTE   En3
 BYTE   W06
 BYTE   Cs3
 BYTE   W06
 BYTE   An2
 BYTE   W06
 BYTE   En2
 BYTE   W06
 BYTE   PEND 
//  #05 //006   ----------------------------------------
 BYTE   PATT
  POIN2 Label_014C5B49
//  #05 //007   ----------------------------------------
Label_014C5B71:
 BYTE   N05  Fs2  v080
 BYTE   W06
 BYTE   Cs3
 BYTE   W06
 BYTE   Fs3
 BYTE   W06
 BYTE   An3
 BYTE   W06
 BYTE   Cs4
 BYTE   W06
 BYTE   Fs4
 BYTE   W06
 BYTE   An4
 BYTE   W06
 BYTE   Cs5
 BYTE   W06
 BYTE   Fs5
 BYTE   W06
 BYTE   Cs5
 BYTE   W06
 BYTE   An4
 BYTE   W06
 BYTE   Fs4
 BYTE   W06
 BYTE   Cs4
 BYTE   W06
 BYTE   An3
 BYTE   W06
 BYTE   Fs3
 BYTE   W06
 BYTE   Cs3
 BYTE   W06
 BYTE   PEND 
//  #05 //008   ----------------------------------------
 BYTE   PATT
  POIN2 Label_014C5B71
//  #05 //009   ----------------------------------------
Label_014C5B99:
 BYTE   N05  Dn2  v080
 BYTE   W06
 BYTE   An2
 BYTE   W06
 BYTE   Dn3
 BYTE   W06
 BYTE   Fs3
 BYTE   W06
 BYTE   An3
 BYTE   W06
 BYTE   Dn4
 BYTE   W06
 BYTE   Fs4
 BYTE   W06
 BYTE   An4
 BYTE   W06
 BYTE   Dn5
 BYTE   W06
 BYTE   An4
 BYTE   W06
 BYTE   Fs4
 BYTE   W06
 BYTE   Dn4
 BYTE   W06
 BYTE   An3
 BYTE   W06
 BYTE   Fs3
 BYTE   W06
 BYTE   Dn3
 BYTE   W06
 BYTE   An2
 BYTE   W06
 BYTE   PEND 
//  #05 //010   ----------------------------------------
Label_014C5BBC:
 BYTE   N05  Gs2  v080
 BYTE   W06
 BYTE   Ds3
 BYTE   W06
 BYTE   Gs3
 BYTE   W06
 BYTE   Cs4
 BYTE   W06
 BYTE   Ds4
 BYTE   W06
 BYTE   Gs4
 BYTE   W06
 BYTE   Cs5
 BYTE   W06
 BYTE   Ds5
 BYTE   W06
 BYTE   Gs5
 BYTE   W06
 BYTE   Ds5
 BYTE   W06
 BYTE   Cn5
 BYTE   W06
 BYTE   Gs4
 BYTE   W06
 BYTE   Ds4
 BYTE   W06
 BYTE   Cn4
 BYTE   W06
 BYTE   Gs3
 BYTE   W06
 BYTE   Ds3
 BYTE   W06
 BYTE   PEND 
//  #05 //011   ----------------------------------------
 BYTE   PATT
  POIN2 Label_014C5B1C
//  #05 //012   ----------------------------------------
 BYTE   PATT
  POIN2 Label_014C5B1C
//  #05 //013   ----------------------------------------
 BYTE   PATT
  POIN2 Label_014C5B49
//  #05 //014   ----------------------------------------
 BYTE   PATT
  POIN2 Label_014C5B49
//  #05 //015   ----------------------------------------
Label_014C5BF3:
 BYTE   N05  Dn2  v080
 BYTE   W06
 BYTE   An2
 BYTE   W06
 BYTE   Dn3
 BYTE   W06
 BYTE   Fs3
 BYTE   W06
 BYTE   An3
 BYTE   W06
 BYTE   Dn4
 BYTE   W06
 BYTE   Cn5
 BYTE   W06
 BYTE   Gs4
 BYTE   W06
 BYTE   Ds4
 BYTE   W06
 BYTE   Cn4
 BYTE   W06
 BYTE   Gs3
 BYTE   W06
 BYTE   Ds3
 BYTE   W06
 BYTE   Cn3
 BYTE   W06
 BYTE   Gs2
 BYTE   W06
 BYTE   Ds2
 BYTE   W06
 BYTE   Cn2
 BYTE   W06
 BYTE   PEND 
//  #05 //016   ----------------------------------------
Label_014C5C16:
 BYTE   N05  Cs2  v080
 BYTE   W06
 BYTE   Gs2
 BYTE   W06
 BYTE   Cs3
 BYTE   W06
 BYTE   Fn3
 BYTE   W06
 BYTE   Gs3
 BYTE   W06
 BYTE   Cs4
 BYTE   W06
 BYTE   An4
 BYTE   W06
 BYTE   Fs4
 BYTE   W06
 BYTE   Dn4
 BYTE   W06
 BYTE   An3
 BYTE   W06
 BYTE   Fs3
 BYTE   W06
 BYTE   Dn3
 BYTE   W06
 BYTE   An2
 BYTE   W06
 BYTE   Fs2
 BYTE   W06
 BYTE   Dn2
 BYTE   W06
 BYTE   An1
 BYTE   W06
 BYTE   PEND 
//  #05 //017   ----------------------------------------
Label_014C5C39:
 BYTE   N05  Fs2  v080
 BYTE   W06
 BYTE   An2
 BYTE   W06
 BYTE   Cs3
 BYTE   W06
 BYTE   En3
 BYTE   W06
 BYTE   Fs3
 BYTE   W06
 BYTE   An3
 BYTE   W06
 BYTE   Cs4
 BYTE   W06
 BYTE   En4
 BYTE   W06
 BYTE   An4
 BYTE   W06
 BYTE   Fs4
 BYTE   W06
 BYTE   En4
 BYTE   W06
 BYTE   Cs4
 BYTE   W06
 BYTE   An3
 BYTE   W06
 BYTE   Fs3
 BYTE   W06
 BYTE   Cs3
 BYTE   W06
 BYTE   An2
 BYTE   W06
 BYTE   PEND 
//  #05 //018   ----------------------------------------
Label_014C5C5C:
 BYTE   N05  En2  v080
 BYTE   W06
 BYTE   An2
 BYTE   W06
 BYTE   En3
 BYTE   W06
 BYTE   An3
 BYTE   W06
 BYTE   An4
 BYTE   W06
 BYTE   En4
 BYTE   W06
 BYTE   Bn3
 BYTE   W06
 BYTE   An3
 BYTE   W06
 BYTE   Fs2
 BYTE   W06
 BYTE   Bn2
 BYTE   W06
 BYTE   Fs3
 BYTE   W06
 BYTE   Bn3
 BYTE   W06
 BYTE   Bn4
 BYTE   W06
 BYTE   Fs4
 BYTE   W06
 BYTE   Cs4
 BYTE   W06
 BYTE   Bn3
 BYTE   W06
 BYTE   PEND 
//  #05 //019   ----------------------------------------
 BYTE   PATT
  POIN2 Label_014C5B1C
//  #05 //020   ----------------------------------------
 BYTE   PATT
  POIN2 Label_014C5B1C
//  #05 //021   ----------------------------------------
 BYTE   PATT
  POIN2 Label_014C5B1C
//  #05 //022   ----------------------------------------
 BYTE   PATT
  POIN2 Label_014C5B1C
//  #05 //023   ----------------------------------------
 BYTE   PATT
  POIN2 Label_014C5B49
//  #05 //024   ----------------------------------------
 BYTE   PATT
  POIN2 Label_014C5B49
//  #05 //025   ----------------------------------------
 BYTE   PATT
  POIN2 Label_014C5B71
//  #05 //026   ----------------------------------------
 BYTE   PATT
  POIN2 Label_014C5B71
//  #05 //027   ----------------------------------------
 BYTE   PATT
  POIN2 Label_014C5B99
//  #05 //028   ----------------------------------------
 BYTE   PATT
  POIN2 Label_014C5BBC
//  #05 //029   ----------------------------------------
 BYTE   PATT
  POIN2 Label_014C5B1C
//  #05 //030   ----------------------------------------
 BYTE   PATT
  POIN2 Label_014C5B1C
//  #05 //031   ----------------------------------------
 BYTE   PATT
  POIN2 Label_014C5B49
//  #05 //032   ----------------------------------------
 BYTE   PATT
  POIN2 Label_014C5B49
//  #05 //033   ----------------------------------------
 BYTE   PATT
  POIN2 Label_014C5BF3
//  #05 //034   ----------------------------------------
 BYTE   PATT
  POIN2 Label_014C5C16
//  #05 //035   ----------------------------------------
 BYTE   PATT
  POIN2 Label_014C5C39
//  #05 //036   ----------------------------------------
 BYTE   PATT
  POIN2 Label_014C5C5C
//  #05 //037   ----------------------------------------
 BYTE   W96
//  #05 //038   ----------------------------------------
 BYTE   W96
//  #05 //039   ----------------------------------------
 BYTE   W96
//  #05 //040   ----------------------------------------
 BYTE   W96
//  #05 //041   ----------------------------------------
 BYTE   W96
//  #05 //042   ----------------------------------------
 BYTE   W24
 BYTE   N05  Bn4  v104
 BYTE   W06
 BYTE   Fs4
 BYTE   W06
 BYTE   En4
 BYTE   W06
 BYTE   Dn4
 BYTE   W06
 BYTE   Bn3
 BYTE   W06
 BYTE   Fs3
 BYTE   W06
 BYTE   En3
 BYTE   W12
 BYTE   Bn2
 BYTE   W06
 BYTE   Fs2
 BYTE   W06
 BYTE   Dn2
 BYTE   W06
 BYTE   Bn1
 BYTE   W06
//  #05 //043   ----------------------------------------
 BYTE   GoTo
  POIN2 Label_014C5B3F
//  #05 //044   ----------------------------------------
 BYTE   W96
//  #05 //045   ----------------------------------------
 BYTE   VOICE   81
 BYTE   PAN   c_v+0
 BYTE   VOL   39*DestructionBegetsDecay_mvl/mxv
 BYTE   PAN   c_v+0
 BYTE   VOL   39*DestructionBegetsDecay_mvl/mxv
 BYTE   PAN   c_v+0
 BYTE   VOL   39*DestructionBegetsDecay_mvl/mxv
 BYTE   BEND   c_v+0
 BYTE   FINE

//**************** Track 6 (Midi-Chn.5) ****************//

DestructionBegetsDecay_006:
//  #06 //000   ----------------------------------------
 BYTE   KEYSH   DestructionBegetsDecay_key+0
 BYTE   VOICE   81
 BYTE   PAN   c_v+0
 BYTE   VOL   33*DestructionBegetsDecay_mvl/mxv
 BYTE   PAN   c_v+0
 BYTE   VOL   33*DestructionBegetsDecay_mvl/mxv
 BYTE   PAN   c_v+0
 BYTE   VOL   33*DestructionBegetsDecay_mvl/mxv
 BYTE   PAN   c_v+0
 BYTE   VOL   33*DestructionBegetsDecay_mvl/mxv
 BYTE   PAN   c_v+0
 BYTE   VOL   33*DestructionBegetsDecay_mvl/mxv
 BYTE   PAN   c_v+0
 BYTE   VOL   33*DestructionBegetsDecay_mvl/mxv
 BYTE   BEND   c_v+0
 BYTE   W12
 BYTE   N05  Cs2  v060
 BYTE   W06
 BYTE   Gs2
 BYTE   W06
 BYTE   Cs3
 BYTE   W06
 BYTE   En3
 BYTE   W06
 BYTE   Gs3
 BYTE   W06
 BYTE   Cs4
 BYTE   W06
 BYTE   En4
 BYTE   W06
 BYTE   Gs4
 BYTE   W06
 BYTE   Cs5
 BYTE   W06
 BYTE   Gs4
 BYTE   W06
 BYTE   En4
 BYTE   W06
 BYTE   Cs4
 BYTE   W06
 BYTE   Gs3
 BYTE   W06
 BYTE   En3
 BYTE   W06
//  #06 //001   ----------------------------------------
Label_014C5319:
 BYTE   N05  Cs3  v060
 BYTE   W06
 BYTE   Gs2
 BYTE   W06
 BYTE   Cs2
 BYTE   W06
 BYTE   Gs2
 BYTE   W06
 BYTE   Cs3
 BYTE   W06
 BYTE   En3
 BYTE   W06
 BYTE   Gs3
 BYTE   W06
 BYTE   Cs4
 BYTE   W06
 BYTE   En4
 BYTE   W06
 BYTE   Gs4
 BYTE   W06
 BYTE   Cs5
 BYTE   W06
 BYTE   Gs4
 BYTE   W06
 BYTE   En4
 BYTE   W06
 BYTE   Cs4
 BYTE   W06
 BYTE   Gs3
 BYTE   W06
 BYTE   En3
 BYTE   W06
 BYTE   PEND 
//  #06 //002   ----------------------------------------
Label_014C533C:
//  #06 //003   ----------------------------------------
 BYTE   PATT
  POIN2 Label_014C5319
//  #06 //004   ----------------------------------------
 BYTE   PATT
  POIN2 Label_014C5319
//  #06 //005   ----------------------------------------
Label_014C5346:
 BYTE   N05  Cs3  v060
 BYTE   W06
 BYTE   Gs2
 BYTE   W06
 BYTE   An1
 BYTE   W06
 BYTE   En2
 BYTE   W06
 BYTE   An2
 BYTE   W06
 BYTE   Cs3
 BYTE   W06
 BYTE   En3
 BYTE   W06
 BYTE   An3
 BYTE   W06
 BYTE   Cs4
 BYTE   W06
 BYTE   En4
 BYTE   W06
 BYTE   An4
 BYTE   W06
 BYTE   En4
 BYTE   W06
 BYTE   Cs4
 BYTE   W06
 BYTE   An3
 BYTE   W06
 BYTE   En3
 BYTE   W06
 BYTE   Cs3
 BYTE   W06
 BYTE   PEND 
//  #06 //006   ----------------------------------------
Label_014C5369:
 BYTE   N05  An2  v060
 BYTE   W06
 BYTE   En2
 BYTE   W06
 BYTE   An1
 BYTE   W06
 BYTE   En2
 BYTE   W06
 BYTE   An2
 BYTE   W06
 BYTE   Cs3
 BYTE   W06
 BYTE   En3
 BYTE   W06
 BYTE   An3
 BYTE   W06
 BYTE   Cs4
 BYTE   W06
 BYTE   En4
 BYTE   W06
 BYTE   An4
 BYTE   W06
 BYTE   En4
 BYTE   W06
 BYTE   Cs4
 BYTE   W06
 BYTE   An3
 BYTE   W06
 BYTE   En3
 BYTE   W06
 BYTE   Cs3
 BYTE   W06
 BYTE   PEND 
//  #06 //007   ----------------------------------------
Label_014C538C:
 BYTE   N05  An2  v060
 BYTE   W06
 BYTE   En2
 BYTE   W06
 BYTE   Fs2
 BYTE   W06
 BYTE   Cs3
 BYTE   W06
 BYTE   Fs3
 BYTE   W06
 BYTE   An3
 BYTE   W06
 BYTE   Cs4
 BYTE   W06
 BYTE   Fs4
 BYTE   W06
 BYTE   An4
 BYTE   W06
 BYTE   Cs5
 BYTE   W06
 BYTE   Fs5
 BYTE   W06
 BYTE   Cs5
 BYTE   W06
 BYTE   An4
 BYTE   W06
 BYTE   Fs4
 BYTE   W06
 BYTE   Cs4
 BYTE   W06
 BYTE   An3
 BYTE   W06
 BYTE   PEND 
//  #06 //008   ----------------------------------------
Label_014C53AF:
 BYTE   N05  Fs3  v060
 BYTE   W06
 BYTE   Cs3
 BYTE   W06
 BYTE   Fs2
 BYTE   W06
 BYTE   Cs3
 BYTE   W06
 BYTE   Fs3
 BYTE   W06
 BYTE   An3
 BYTE   W06
 BYTE   Cs4
 BYTE   W06
 BYTE   Fs4
 BYTE   W06
 BYTE   An4
 BYTE   W06
 BYTE   Cs5
 BYTE   W06
 BYTE   Fs5
 BYTE   W06
 BYTE   Cs5
 BYTE   W06
 BYTE   An4
 BYTE   W06
 BYTE   Fs4
 BYTE   W06
 BYTE   Cs4
 BYTE   W06
 BYTE   An3
 BYTE   W06
 BYTE   PEND 
//  #06 //009   ----------------------------------------
Label_014C53D2:
 BYTE   N05  Fs3  v060
 BYTE   W06
 BYTE   Cs3
 BYTE   W06
 BYTE   Dn2
 BYTE   W06
 BYTE   An2
 BYTE   W06
 BYTE   Dn3
 BYTE   W06
 BYTE   Fs3
 BYTE   W06
 BYTE   An3
 BYTE   W06
 BYTE   Dn4
 BYTE   W06
 BYTE   Fs4
 BYTE   W06
 BYTE   An4
 BYTE   W06
 BYTE   Dn5
 BYTE   W06
 BYTE   An4
 BYTE   W06
 BYTE   Fs4
 BYTE   W06
 BYTE   Dn4
 BYTE   W06
 BYTE   An3
 BYTE   W06
 BYTE   Fs3
 BYTE   W06
 BYTE   PEND 
//  #06 //010   ----------------------------------------
Label_014C53F5:
 BYTE   N05  Dn3  v060
 BYTE   W06
 BYTE   An2
 BYTE   W06
 BYTE   Gs2
 BYTE   W06
 BYTE   Ds3
 BYTE   W06
 BYTE   Gs3
 BYTE   W06
 BYTE   Cs4
 BYTE   W06
 BYTE   Ds4
 BYTE   W06
 BYTE   Gs4
 BYTE   W06
 BYTE   Cs5
 BYTE   W06
 BYTE   Ds5
 BYTE   W06
 BYTE   Gs5
 BYTE   W06
 BYTE   Ds5
 BYTE   W06
 BYTE   Cn5
 BYTE   W06
 BYTE   Gs4
 BYTE   W06
 BYTE   Ds4
 BYTE   W06
 BYTE   Cn4
 BYTE   W06
 BYTE   PEND 
//  #06 //011   ----------------------------------------
Label_014C5418:
 BYTE   N05  Gs3  v060
 BYTE   W06
 BYTE   Ds3
 BYTE   W06
 BYTE   Cs2
 BYTE   W06
 BYTE   Gs2
 BYTE   W06
 BYTE   Cs3
 BYTE   W06
 BYTE   En3
 BYTE   W06
 BYTE   Gs3
 BYTE   W06
 BYTE   Cs4
 BYTE   W06
 BYTE   En4
 BYTE   W06
 BYTE   Gs4
 BYTE   W06
 BYTE   Cs5
 BYTE   W06
 BYTE   Gs4
 BYTE   W06
 BYTE   En4
 BYTE   W06
 BYTE   Cs4
 BYTE   W06
 BYTE   Gs3
 BYTE   W06
 BYTE   En3
 BYTE   W06
 BYTE   PEND 
//  #06 //012   ----------------------------------------
 BYTE   PATT
  POIN2 Label_014C5319
//  #06 //013   ----------------------------------------
 BYTE   PATT
  POIN2 Label_014C5346
//  #06 //014   ----------------------------------------
 BYTE   PATT
  POIN2 Label_014C5369
//  #06 //015   ----------------------------------------
Label_014C544A:
 BYTE   N05  An2  v060
 BYTE   W06
 BYTE   En2
 BYTE   W06
 BYTE   Dn2
 BYTE   W06
 BYTE   An2
 BYTE   W06
 BYTE   Dn3
 BYTE   W06
 BYTE   Fs3
 BYTE   W06
 BYTE   An3
 BYTE   W06
 BYTE   Dn4
 BYTE   W06
 BYTE   Cn5
 BYTE   W06
 BYTE   Gs4
 BYTE   W06
 BYTE   Ds4
 BYTE   W06
 BYTE   Cn4
 BYTE   W06
 BYTE   Gs3
 BYTE   W06
 BYTE   Ds3
 BYTE   W06
 BYTE   Cn3
 BYTE   W06
 BYTE   Gs2
 BYTE   W06
 BYTE   PEND 
//  #06 //016   ----------------------------------------
Label_014C546D:
 BYTE   N05  Ds2  v060
 BYTE   W06
 BYTE   Cn2
 BYTE   W06
 BYTE   Cs2
 BYTE   W06
 BYTE   Gs2
 BYTE   W06
 BYTE   Cs3
 BYTE   W06
 BYTE   Fn3
 BYTE   W06
 BYTE   Gs3
 BYTE   W06
 BYTE   Cs4
 BYTE   W06
 BYTE   An4
 BYTE   W06
 BYTE   Fs4
 BYTE   W06
 BYTE   Dn4
 BYTE   W06
 BYTE   An3
 BYTE   W06
 BYTE   Fs3
 BYTE   W06
 BYTE   Dn3
 BYTE   W06
 BYTE   An2
 BYTE   W06
 BYTE   Fs2
 BYTE   W06
 BYTE   PEND 
//  #06 //017   ----------------------------------------
Label_014C5490:
 BYTE   N05  Dn2  v060
 BYTE   W06
 BYTE   An1
 BYTE   W06
 BYTE   Fs2
 BYTE   W06
 BYTE   An2
 BYTE   W06
 BYTE   Cs3
 BYTE   W06
 BYTE   En3
 BYTE   W06
 BYTE   Fs3
 BYTE   W06
 BYTE   An3
 BYTE   W06
 BYTE   Cs4
 BYTE   W06
 BYTE   En4
 BYTE   W06
 BYTE   An4
 BYTE   W06
 BYTE   Fs4
 BYTE   W06
 BYTE   En4
 BYTE   W06
 BYTE   Cs4
 BYTE   W06
 BYTE   An3
 BYTE   W06
 BYTE   Fs3
 BYTE   W06
 BYTE   PEND 
//  #06 //018   ----------------------------------------
Label_014C54B3:
 BYTE   N05  Cs3  v060
 BYTE   W06
 BYTE   An2
 BYTE   W06
 BYTE   En2
 BYTE   W06
 BYTE   An2
 BYTE   W06
 BYTE   En3
 BYTE   W06
 BYTE   An3
 BYTE   W06
 BYTE   An4
 BYTE   W06
 BYTE   En4
 BYTE   W06
 BYTE   Bn3
 BYTE   W06
 BYTE   An3
 BYTE   W06
 BYTE   Fs2
 BYTE   W06
 BYTE   Bn2
 BYTE   W06
 BYTE   Fs3
 BYTE   W06
 BYTE   Bn3
 BYTE   W06
 BYTE   Bn4
 BYTE   W06
 BYTE   Fs4
 BYTE   W06
 BYTE   PEND 
//  #06 //019   ----------------------------------------
 BYTE   Cs4
 BYTE   W06
 BYTE   Bn3
 BYTE   W06
 BYTE   Cs2
 BYTE   W06
 BYTE   Gs2
 BYTE   W06
 BYTE   Cs3
 BYTE   W06
 BYTE   En3
 BYTE   W06
 BYTE   Gs3
 BYTE   W06
 BYTE   Cs4
 BYTE   W06
 BYTE   En4
 BYTE   W06
 BYTE   Gs4
 BYTE   W06
 BYTE   Cs5
 BYTE   W06
 BYTE   Gs4
 BYTE   W06
 BYTE   En4
 BYTE   W06
 BYTE   Cs4
 BYTE   W06
 BYTE   Gs3
 BYTE   W06
 BYTE   En3
 BYTE   W06
//  #06 //020   ----------------------------------------
 BYTE   PATT
  POIN2 Label_014C5319
//  #06 //021   ----------------------------------------
 BYTE   PATT
  POIN2 Label_014C5319
//  #06 //022   ----------------------------------------
 BYTE   PATT
  POIN2 Label_014C5319
//  #06 //023   ----------------------------------------
 BYTE   PATT
  POIN2 Label_014C5346
//  #06 //024   ----------------------------------------
 BYTE   PATT
  POIN2 Label_014C5369
//  #06 //025   ----------------------------------------
 BYTE   PATT
  POIN2 Label_014C538C
//  #06 //026   ----------------------------------------
 BYTE   PATT
  POIN2 Label_014C53AF
//  #06 //027   ----------------------------------------
 BYTE   PATT
  POIN2 Label_014C53D2
//  #06 //028   ----------------------------------------
 BYTE   PATT
  POIN2 Label_014C53F5
//  #06 //029   ----------------------------------------
 BYTE   PATT
  POIN2 Label_014C5418
//  #06 //030   ----------------------------------------
 BYTE   PATT
  POIN2 Label_014C5319
//  #06 //031   ----------------------------------------
 BYTE   PATT
  POIN2 Label_014C5346
//  #06 //032   ----------------------------------------
 BYTE   PATT
  POIN2 Label_014C5369
//  #06 //033   ----------------------------------------
 BYTE   PATT
  POIN2 Label_014C544A
//  #06 //034   ----------------------------------------
 BYTE   PATT
  POIN2 Label_014C546D
//  #06 //035   ----------------------------------------
 BYTE   PATT
  POIN2 Label_014C5490
//  #06 //036   ----------------------------------------
 BYTE   PATT
  POIN2 Label_014C54B3
//  #06 //037   ----------------------------------------
 BYTE   N05  Cs4  v060
 BYTE   W06
 BYTE   Bn3
 BYTE   W90
//  #06 //038   ----------------------------------------
 BYTE   W96
//  #06 //039   ----------------------------------------
 BYTE   W96
//  #06 //040   ----------------------------------------
 BYTE   W96
//  #06 //041   ----------------------------------------
 BYTE   W96
//  #06 //042   ----------------------------------------
 BYTE   W36
 BYTE   Bn4  v084
 BYTE   W06
 BYTE   Fs4
 BYTE   W06
 BYTE   En4
 BYTE   W06
 BYTE   Dn4
 BYTE   W06
 BYTE   Bn3
 BYTE   W06
 BYTE   Fs3
 BYTE   W06
 BYTE   En3
 BYTE   W12
 BYTE   Bn2
 BYTE   W06
 BYTE   Fs2
 BYTE   W06
//  #06 //043   ----------------------------------------
 BYTE   GoTo
  POIN2 Label_014C533C
//  #06 //044   ----------------------------------------
 BYTE   W96
//  #06 //045   ----------------------------------------
 BYTE   VOICE   81
 BYTE   PAN   c_v+0
 BYTE   VOL   33*DestructionBegetsDecay_mvl/mxv
 BYTE   PAN   c_v+0
 BYTE   VOL   33*DestructionBegetsDecay_mvl/mxv
 BYTE   PAN   c_v+0
 BYTE   VOL   33*DestructionBegetsDecay_mvl/mxv
 BYTE   BEND   c_v+0
 BYTE   FINE

//**************** Track 7 (Midi-Chn.6) ****************//

DestructionBegetsDecay_007:
//  #07 //000   ----------------------------------------
 BYTE   KEYSH   DestructionBegetsDecay_key+0
 BYTE   VOICE   28
 BYTE   PAN   c_v+50
 BYTE   VOL   29*DestructionBegetsDecay_mvl/mxv
 BYTE   PAN   c_v+50
 BYTE   VOL   29*DestructionBegetsDecay_mvl/mxv
 BYTE   PAN   c_v+50
 BYTE   VOL   29*DestructionBegetsDecay_mvl/mxv
 BYTE   PAN   c_v+50
 BYTE   VOL   29*DestructionBegetsDecay_mvl/mxv
 BYTE   PAN   c_v+50
 BYTE   VOL   29*DestructionBegetsDecay_mvl/mxv
 BYTE   PAN   c_v+50
 BYTE   VOL   29*DestructionBegetsDecay_mvl/mxv
 BYTE   BEND   c_v+0
 BYTE   W96
//  #07 //001   ----------------------------------------
 BYTE   W96
//  #07 //002   ----------------------------------------
Label_014C4F68:
 BYTE   W96
//  #07 //003   ----------------------------------------
 BYTE   W96
//  #07 //004   ----------------------------------------
 BYTE   W96
//  #07 //005   ----------------------------------------
 BYTE   W96
//  #07 //006   ----------------------------------------
 BYTE   W96
//  #07 //007   ----------------------------------------
 BYTE   W96
//  #07 //008   ----------------------------------------
 BYTE   W96
//  #07 //009   ----------------------------------------
 BYTE   W96
//  #07 //010   ----------------------------------------
 BYTE   W96
//  #07 //011   ----------------------------------------
Label_014C4F71:
 BYTE   W48
 BYTE   N11  Gs2  v100
 BYTE   W12
 BYTE   Cs3
 BYTE   W12
 BYTE   En3
 BYTE   W12
 BYTE   Gs3
 BYTE   W12
 BYTE   PEND 
//  #07 //012   ----------------------------------------
Label_014C4F7D:
 BYTE   N68  Ds4  v100
 BYTE   W72
 BYTE   N23  En4
 BYTE   W24
 BYTE   PEND 
//  #07 //013   ----------------------------------------
Label_014C4F85:
 BYTE   N68  Cs4  v100
 BYTE   W72
 BYTE   N11  Fs3
 BYTE   W12
 BYTE   Gs3
 BYTE   W12
 BYTE   PEND 
//  #07 //014   ----------------------------------------
Label_014C4F8F:
 BYTE   N23  An3  v100
 BYTE   W24
 BYTE   N17  Cs4
 BYTE   W12
 BYTE   N44  Fs4
 BYTE   W48
 BYTE   N05  En3
 BYTE   W06
 BYTE   Fs3
 BYTE   W06
 BYTE   PEND 
//  #07 //015   ----------------------------------------
Label_014C4F9F:
 BYTE   N23  Gs3  v100
 BYTE   W24
 BYTE   N17  Cs4
 BYTE   W12
 BYTE   N52  Dn4
 BYTE   W24
 BYTE   N11  An3
 BYTE   W12
 BYTE   Fs3
 BYTE   W12
 BYTE   Dn3
 BYTE   W12
 BYTE   PEND 
//  #07 //016   ----------------------------------------
Label_014C4FB1:
 BYTE   N68  An2  v100
 BYTE   W72
 BYTE   N23  Bn2
 BYTE   W24
 BYTE   PEND 
//  #07 //017   ----------------------------------------
Label_014C4FB9:
 BYTE   N44  Cs3  v100
 BYTE   N17  An3
 BYTE   W18
 BYTE   Fs3
 BYTE   W18
 BYTE   N11  An3
 BYTE   W12
 BYTE   N44  Ds3
 BYTE   N17  Bn3
 BYTE   W18
 BYTE   Fs3
 BYTE   W18
 BYTE   N11  Bn3
 BYTE   W12
 BYTE   PEND 
//  #07 //018   ----------------------------------------
 BYTE   TIE  En3
 BYTE   TIE  Cs4
 BYTE   W96
//  #07 //019   ----------------------------------------
 BYTE   W76
 BYTE   W01
 BYTE   EOT
 BYTE   En3  v073
 BYTE   W19
//  #07 //020   ----------------------------------------
 BYTE   W96
//  #07 //021   ----------------------------------------
 BYTE   W96
//  #07 //022   ----------------------------------------
 BYTE   W96
//  #07 //023   ----------------------------------------
 BYTE   W96
//  #07 //024   ----------------------------------------
 BYTE   W96
//  #07 //025   ----------------------------------------
 BYTE   W96
//  #07 //026   ----------------------------------------
 BYTE   W96
//  #07 //027   ----------------------------------------
 BYTE   W96
//  #07 //028   ----------------------------------------
 BYTE   W96
//  #07 //029   ----------------------------------------
 BYTE   PATT
  POIN2 Label_014C4F71
//  #07 //030   ----------------------------------------
 BYTE   PATT
  POIN2 Label_014C4F7D
//  #07 //031   ----------------------------------------
 BYTE   PATT
  POIN2 Label_014C4F85
//  #07 //032   ----------------------------------------
 BYTE   PATT
  POIN2 Label_014C4F8F
//  #07 //033   ----------------------------------------
 BYTE   PATT
  POIN2 Label_014C4F9F
//  #07 //034   ----------------------------------------
 BYTE   PATT
  POIN2 Label_014C4FB1
//  #07 //035   ----------------------------------------
 BYTE   PATT
  POIN2 Label_014C4FB9
//  #07 //036   ----------------------------------------
Label_014C5006:
 BYTE   N11  Gs3  v100
 BYTE   N32  Cs4
 BYTE   W12
 BYTE   N11  Cs3
 BYTE   W12
 BYTE   Gs2
 BYTE   W12
 BYTE   Fs3
 BYTE   N23  Bn3
 BYTE   W12
 BYTE   N11  Dn3
 BYTE   W12
 BYTE   An2
 BYTE   N32  An3
 BYTE   W12
 BYTE   N11  Fs2
 BYTE   W12
 BYTE   Dn2
 BYTE   W12
 BYTE   PEND 
//  #07 //037   ----------------------------------------
Label_014C5022:
 BYTE   N11  Gs2  v100
 BYTE   N32  Gs3
 BYTE   W12
 BYTE   N11  Cs3
 BYTE   W12
 BYTE   Fs3
 BYTE   W12
 BYTE   An2
 BYTE   N32  An3
 BYTE   W12
 BYTE   N11  Dn3
 BYTE   W12
 BYTE   Gn3
 BYTE   W12
 BYTE   An3
 BYTE   W12
 BYTE   Bn3
 BYTE   W12
 BYTE   PEND 
//  #07 //038   ----------------------------------------
 BYTE   PATT
  POIN2 Label_014C5006
//  #07 //039   ----------------------------------------
 BYTE   PATT
  POIN2 Label_014C5022
//  #07 //040   ----------------------------------------
 BYTE   N11  Cs3  v100
 BYTE   W12
 BYTE   Fs3
 BYTE   W12
 BYTE   Cs4
 BYTE   W12
 BYTE   Cs3
 BYTE   W12
 BYTE   Fs3
 BYTE   W12
 BYTE   Cs4
 BYTE   W12
 BYTE   Cs3
 BYTE   W12
 BYTE   Fs3
 BYTE   W12
//  #07 //041   ----------------------------------------
 BYTE   Cs4
 BYTE   W12
 BYTE   Cs3
 BYTE   W12
 BYTE   N68  En3
 BYTE   N68  An3
 BYTE   N68  Dn4
 BYTE   N68  Bn4
 BYTE   W72
//  #07 //042   ----------------------------------------
 BYTE   GoTo
  POIN2 Label_014C4F68
//  #07 //043   ----------------------------------------
 BYTE   W96
//  #07 //044   ----------------------------------------
 BYTE   VOICE   28
 BYTE   PAN   c_v+50
 BYTE   VOL   29*DestructionBegetsDecay_mvl/mxv
 BYTE   PAN   c_v+50
 BYTE   VOL   29*DestructionBegetsDecay_mvl/mxv
 BYTE   PAN   c_v+50
 BYTE   VOL   29*DestructionBegetsDecay_mvl/mxv
 BYTE   BEND   c_v+0
 BYTE   FINE

//**************** Track 8 (Midi-Chn.7) ****************//

DestructionBegetsDecay_008:
//  #08 //000   ----------------------------------------
 BYTE   KEYSH   DestructionBegetsDecay_key+0
 BYTE   VOICE   124
 BYTE   PAN   c_v+0
 BYTE   VOL   48*DestructionBegetsDecay_mvl/mxv
 BYTE   PAN   c_v+0
 BYTE   VOL   48*DestructionBegetsDecay_mvl/mxv
 BYTE   PAN   c_v+0
 BYTE   VOL   48*DestructionBegetsDecay_mvl/mxv
 BYTE   PAN   c_v+0
 BYTE   VOL   48*DestructionBegetsDecay_mvl/mxv
 BYTE   PAN   c_v+0
 BYTE   VOL   48*DestructionBegetsDecay_mvl/mxv
 BYTE   PAN   c_v+0
 BYTE   VOL   48*DestructionBegetsDecay_mvl/mxv
 BYTE   BEND   c_v+0
 BYTE   N05  Cn1  v120
 BYTE   N05  Fs1  v100
 BYTE   W12
 BYTE   Fs1  v092
 BYTE   W12
 BYTE   Cn1  v120
 BYTE   N05  Fs1  v100
 BYTE   W12
 BYTE   Fs1  v092
 BYTE   W12
 BYTE   Cn1  v120
 BYTE   N05  Fs1  v100
 BYTE   W12
 BYTE   As1  v092
 BYTE   W12
 BYTE   Cn1  v120
 BYTE   N05  Fs1  v100
 BYTE   W12
 BYTE   Fs1  v092
 BYTE   W12
//  #08 //001   ----------------------------------------
Label_014C4A7B:
 BYTE   N05  Cn1  v120
 BYTE   N05  Fs1  v100
 BYTE   W12
 BYTE   Fs1  v092
 BYTE   W12
 BYTE   Cn1  v120
 BYTE   N05  Fs1  v100
 BYTE   W12
 BYTE   Fs1  v092
 BYTE   W12
 BYTE   Cn1  v120
 BYTE   N05  Fs1  v100
 BYTE   W12
 BYTE   Dn1  v112
 BYTE   N05  As1  v092
 BYTE   W06
 BYTE   Dn1  v112
 BYTE   W06
 BYTE   Cn1  v120
 BYTE   N05  Cn2  v112
 BYTE   W06
 BYTE   An1
 BYTE   W06
 BYTE   Fn1
 BYTE   W12
 BYTE   PEND 
//  #08 //002   ----------------------------------------
Label_014C4AA8:
 BYTE   N05  Cn1  v120
 BYTE   N05  Fs1  v100
 BYTE   N92  An2
 BYTE   W12
 BYTE   N05  Fs1  v092
 BYTE   W06
 BYTE   Fs1  v080
 BYTE   W06
 BYTE   N11  Dn1  v100
 BYTE   N05  Fs1
 BYTE   W12
 BYTE   Fs1  v092
 BYTE   W06
 BYTE   Fs1  v080
 BYTE   W06
 BYTE   Cn1  v120
 BYTE   N05  Fs1  v100
 BYTE   W12
 BYTE   Cn1  v108
 BYTE   N05  As1  v092
 BYTE   W12
 BYTE   N11  Dn1  v100
 BYTE   N05  Fs1
 BYTE   W12
 BYTE   Fs1  v092
 BYTE   W06
 BYTE   Fs1  v080
 BYTE   W06
 BYTE   PEND 
//  #08 //003   ----------------------------------------
Label_014C4ADD:
 BYTE   N05  Cn1  v120
 BYTE   N05  Fs1  v100
 BYTE   W12
 BYTE   Fs1  v092
 BYTE   W06
 BYTE   Fs1  v080
 BYTE   W06
 BYTE   N11  Dn1  v100
 BYTE   N05  Fs1
 BYTE   W12
 BYTE   Fs1  v092
 BYTE   W06
 BYTE   Cn1  v088
 BYTE   N05  Fs1  v080
 BYTE   W06
 BYTE   Cn1  v120
 BYTE   N05  Fs1  v100
 BYTE   W12
 BYTE   Cn1  v108
 BYTE   N05  As1  v092
 BYTE   W12
 BYTE   N11  Dn1  v100
 BYTE   N05  Fs1
 BYTE   W12
 BYTE   Fs1  v092
 BYTE   W06
 BYTE   Fs1  v080
 BYTE   W06
 BYTE   PEND 
//  #08 //004   ----------------------------------------
Label_014C4B12:
 BYTE   N05  Cn1  v120
 BYTE   N05  Fs1  v100
 BYTE   W12
 BYTE   Fs1  v092
 BYTE   W06
 BYTE   Fs1  v080
 BYTE   W06
 BYTE   N11  Dn1  v100
 BYTE   N05  Fs1
 BYTE   W12
 BYTE   Fs1  v092
 BYTE   W06
 BYTE   Fs1  v080
 BYTE   W06
 BYTE   Cn1  v120
 BYTE   N05  Fs1  v100
 BYTE   W12
 BYTE   Cn1  v108
 BYTE   N05  As1  v092
 BYTE   W12
 BYTE   N11  Dn1  v100
 BYTE   N05  Fs1
 BYTE   W12
 BYTE   Fs1  v092
 BYTE   W06
 BYTE   Fs1  v080
 BYTE   W06
 BYTE   PEND 
//  #08 //005   ----------------------------------------
 BYTE   PATT
  POIN2 Label_014C4ADD
//  #08 //006   ----------------------------------------
 BYTE   PATT
  POIN2 Label_014C4B12
//  #08 //007   ----------------------------------------
 BYTE   PATT
  POIN2 Label_014C4ADD
//  #08 //008   ----------------------------------------
 BYTE   PATT
  POIN2 Label_014C4B12
//  #08 //009   ----------------------------------------
 BYTE   PATT
  POIN2 Label_014C4ADD
//  #08 //010   ----------------------------------------
 BYTE   PATT
  POIN2 Label_014C4B12
//  #08 //011   ----------------------------------------
 BYTE   PATT
  POIN2 Label_014C4ADD
//  #08 //012   ----------------------------------------
 BYTE   PATT
  POIN2 Label_014C4B12
//  #08 //013   ----------------------------------------
 BYTE   PATT
  POIN2 Label_014C4ADD
//  #08 //014   ----------------------------------------
Label_014C4B71:
 BYTE   N05  Cn1  v120
 BYTE   N05  Fs1  v100
 BYTE   N92  An2
 BYTE   W12
 BYTE   N05  Fs1  v092
 BYTE   W06
 BYTE   Fs1  v080
 BYTE   W06
 BYTE   N11  Dn1  v100
 BYTE   N05  Fs1
 BYTE   W12
 BYTE   Cn1  v120
 BYTE   N92  Gn2  v096
 BYTE   W24
 BYTE   N05  Cn1  v120
 BYTE   N05  Fs1  v100
 BYTE   W06
 BYTE   Fs1  v080
 BYTE   W06
 BYTE   Dn1  v100
 BYTE   N05  Fs1
 BYTE   W06
 BYTE   Dn1
 BYTE   W06
 BYTE   Cn1  v120
 BYTE   N11  As1  v104
 BYTE   W12
 BYTE   PEND 
//  #08 //015   ----------------------------------------
Label_014C4BA5:
 BYTE   N05  Cn1  v120
 BYTE   N05  Fs1  v100
 BYTE   N92  An2
 BYTE   W12
 BYTE   N05  Fs1  v092
 BYTE   W06
 BYTE   Fs1  v080
 BYTE   W06
 BYTE   N11  Dn1  v100
 BYTE   N05  Fs1
 BYTE   W12
 BYTE   Cn1  v120
 BYTE   N92  Gn2  v096
 BYTE   W12
 BYTE   N05  Fs1  v100
 BYTE   W12
 BYTE   Cn1  v108
 BYTE   N11  As1  v100
 BYTE   W12
 BYTE   N05  Cn2
 BYTE   W06
 BYTE   An1
 BYTE   W06
 BYTE   Fn1
 BYTE   W12
 BYTE   PEND 
//  #08 //016   ----------------------------------------
 BYTE   PATT
  POIN2 Label_014C4AA8
//  #08 //017   ----------------------------------------
 BYTE   PATT
  POIN2 Label_014C4ADD
//  #08 //018   ----------------------------------------
 BYTE   N05  Cn1  v120
 BYTE   N05  Fs1  v100
 BYTE   W12
 BYTE   Fs1  v092
 BYTE   W12
 BYTE   Cn1  v120
 BYTE   N05  Fs1  v100
 BYTE   W12
 BYTE   Fs1  v092
 BYTE   W12
 BYTE   Cn1  v120
 BYTE   N05  Fs1  v100
 BYTE   W12
 BYTE   As1  v092
 BYTE   W12
 BYTE   Cn1  v120
 BYTE   N05  Fs1  v100
 BYTE   W12
 BYTE   Fs1  v092
 BYTE   W12
//  #08 //019   ----------------------------------------
 BYTE   PATT
  POIN2 Label_014C4A7B
//  #08 //020   ----------------------------------------
 BYTE   PATT
  POIN2 Label_014C4AA8
//  #08 //021   ----------------------------------------
 BYTE   PATT
  POIN2 Label_014C4ADD
//  #08 //022   ----------------------------------------
 BYTE   PATT
  POIN2 Label_014C4B12
//  #08 //023   ----------------------------------------
 BYTE   PATT
  POIN2 Label_014C4ADD
//  #08 //024   ----------------------------------------
 BYTE   PATT
  POIN2 Label_014C4B12
//  #08 //025   ----------------------------------------
 BYTE   PATT
  POIN2 Label_014C4ADD
//  #08 //026   ----------------------------------------
 BYTE   PATT
  POIN2 Label_014C4B12
//  #08 //027   ----------------------------------------
 BYTE   PATT
  POIN2 Label_014C4ADD
//  #08 //028   ----------------------------------------
 BYTE   PATT
  POIN2 Label_014C4B12
//  #08 //029   ----------------------------------------
 BYTE   PATT
  POIN2 Label_014C4ADD
//  #08 //030   ----------------------------------------
 BYTE   PATT
  POIN2 Label_014C4B12
//  #08 //031   ----------------------------------------
 BYTE   PATT
  POIN2 Label_014C4ADD
//  #08 //032   ----------------------------------------
 BYTE   PATT
  POIN2 Label_014C4B71
//  #08 //033   ----------------------------------------
 BYTE   PATT
  POIN2 Label_014C4BA5
//  #08 //034   ----------------------------------------
 BYTE   PATT
  POIN2 Label_014C4AA8
//  #08 //035   ----------------------------------------
 BYTE   PATT
  POIN2 Label_014C4ADD
//  #08 //036   ----------------------------------------
 BYTE   PATT
  POIN2 Label_014C4B71
//  #08 //037   ----------------------------------------
 BYTE   PATT
  POIN2 Label_014C4BA5
//  #08 //038   ----------------------------------------
 BYTE   PATT
  POIN2 Label_014C4B71
//  #08 //039   ----------------------------------------
 BYTE   PATT
  POIN2 Label_014C4BA5
//  #08 //040   ----------------------------------------
 BYTE   N05  Cn1  v120
 BYTE   N05  Fs1  v100
 BYTE   N05  Cn2
 BYTE   W06
 BYTE   An1
 BYTE   W06
 BYTE   Fn1
 BYTE   W12
 BYTE   Cn1  v120
 BYTE   N05  Fs1  v100
 BYTE   N36  An2  v112
 BYTE   W12
 BYTE   N05  Cn2  v100
 BYTE   W06
 BYTE   An1
 BYTE   W06
 BYTE   Cn1  v120
 BYTE   N05  Fn1  v100
 BYTE   N05  Fs1
 BYTE   W12
 BYTE   N56  An2  v108
 BYTE   W12
 BYTE   N05  Cn1  v120
 BYTE   N05  Fs1  v100
 BYTE   N05  Cn2
 BYTE   W06
 BYTE   An1
 BYTE   W06
 BYTE   Fn1
 BYTE   N05  Fs1  v092
 BYTE   W12
//  #08 //041   ----------------------------------------
 BYTE   Cn1  v120
 BYTE   N05  Fs1  v100
 BYTE   W12
 BYTE   Fs1  v092
 BYTE   W12
 BYTE   Cn1  v120
 BYTE   N05  Fs1  v100
 BYTE   N92  Gn2  v108
 BYTE   W12
 BYTE   N05  Fs1  v092
 BYTE   W12
 BYTE   Cn1  v120
 BYTE   N05  Fs1  v100
 BYTE   W12
 BYTE   Dn1  v112
 BYTE   N05  As1  v092
 BYTE   W06
 BYTE   Dn1  v112
 BYTE   W06
 BYTE   Cn1  v120
 BYTE   N05  Cn2  v112
 BYTE   W06
 BYTE   An1
 BYTE   W06
 BYTE   Fn1
 BYTE   W12
//  #08 //042   ----------------------------------------
 BYTE   GoTo
  POIN2 Label_014C4AA8
//  #08 //043   ----------------------------------------
 BYTE   W96
//  #08 //044   ----------------------------------------
 BYTE   PAN   c_v+0
 BYTE   VOL   48*DestructionBegetsDecay_mvl/mxv
 BYTE   PAN   c_v+0
 BYTE   VOL   48*DestructionBegetsDecay_mvl/mxv
 BYTE   PAN   c_v+0
 BYTE   VOL   48*DestructionBegetsDecay_mvl/mxv
 BYTE   BEND   c_v+0
 BYTE   FINE

//******************************************************//
	ALIGN 4

DestructionBegetsDecay:
	BYTE	8	// NumTrks
	BYTE	0	// NumBlks
	BYTE	DestructionBegetsDecay_pri	// Priority
	BYTE	DestructionBegetsDecay_rev	// Reverb.
    
	POIN2	DestructionBegetsDecay_grp
    
	POIN2	DestructionBegetsDecay_001
	POIN2	DestructionBegetsDecay_002
	POIN2	DestructionBegetsDecay_003
	POIN2	DestructionBegetsDecay_004
	POIN2	DestructionBegetsDecay_005
	POIN2	DestructionBegetsDecay_006
	POIN2	DestructionBegetsDecay_007
	POIN2	DestructionBegetsDecay_008

	
