//Event file generated from Sappy .s format.
	#include "MPlayDef.event"

	#define	Dialga_grp  voicegroup000
	#define	Dialga_pri  0
	#define	Dialga_rev  0
	#define	Dialga_mvl  127
	#define	Dialga_key  0
	#define	Dialga_tbs  1
	#define	Dialga_exg  0
	#define	Dialga_cmp  1

	// .rodata
	//	Dialga
	ALIGN 4


//**************** Track 1 (Midi-Chn.0) ****************//

Dialga_001:
//  #01 //000   ----------------------------------------
 BYTE   KEYSH   Dialga_key+0
Label_01004E8A:
 BYTE   TEMPO   180*Dialga_tbs/2
 BYTE   VOICE   38
 BYTE   PAN   c_v+0
 BYTE   VOL   42*Dialga_mvl/mxv
 BYTE   PAN   c_v+0
 BYTE   VOL   42*Dialga_mvl/mxv
 BYTE   MOD 0
 BYTE   PAN   c_v+0
 BYTE   VOL   42*Dialga_mvl/mxv
 BYTE   MOD 0
 BYTE   PAN   c_v+0
 BYTE   VOL   42*Dialga_mvl/mxv
 BYTE   MOD 0
 BYTE   PAN   c_v+0
 BYTE   VOL   42*Dialga_mvl/mxv
 BYTE   MOD 0
 BYTE   PAN   c_v+0
 BYTE   VOL   42*Dialga_mvl/mxv
 BYTE   MOD 0
 BYTE   BEND   c_v+0
 BYTE   N11  Cn1  v127
 BYTE   W12
 BYTE   En1
 BYTE   W12
 BYTE   Cn1
 BYTE   W12
 BYTE   En1
 BYTE   W12
 BYTE   Cn1
 BYTE   W12
 BYTE   En1
 BYTE   W12
 BYTE   Cn1
 BYTE   W12
 BYTE   En1
 BYTE   W12
//  #01 //001   ----------------------------------------
Label_01004EC4:
 BYTE   N11  Cn1  v127
 BYTE   W12
 BYTE   En1
 BYTE   W12
 BYTE   Cn1
 BYTE   W12
 BYTE   En1
 BYTE   W12
 BYTE   Cn1
 BYTE   W12
 BYTE   En1
 BYTE   W12
 BYTE   Cn1
 BYTE   W12
 BYTE   En1
 BYTE   W12
 BYTE   PEND 
//  #01 //002   ----------------------------------------
 BYTE   PATT
  POIN2 Label_01004EC4
//  #01 //003   ----------------------------------------
 BYTE   PATT
  POIN2 Label_01004EC4
//  #01 //004   ----------------------------------------
 BYTE   PATT
  POIN2 Label_01004EC4
//  #01 //005   ----------------------------------------
 BYTE   PATT
  POIN2 Label_01004EC4
//  #01 //006   ----------------------------------------
Label_01004EEB:
 BYTE   N11  As0  v127
 BYTE   W12
 BYTE   Ds1
 BYTE   W12
 BYTE   As0
 BYTE   W12
 BYTE   Ds1
 BYTE   W12
 BYTE   As0
 BYTE   W12
 BYTE   Ds1
 BYTE   W12
 BYTE   As0
 BYTE   W12
 BYTE   Ds1
 BYTE   W12
 BYTE   PEND 
//  #01 //007   ----------------------------------------
 BYTE   PATT
  POIN2 Label_01004EEB
//  #01 //008   ----------------------------------------
Label_01004F03:
 BYTE   N11  Cs1  v127
 BYTE   W12
 BYTE   Fn1
 BYTE   W12
 BYTE   Cs1
 BYTE   W12
 BYTE   Fn1
 BYTE   W12
 BYTE   Cs1
 BYTE   W12
 BYTE   Fn1
 BYTE   W12
 BYTE   Cs1
 BYTE   W12
 BYTE   Fn1
 BYTE   W12
 BYTE   PEND 
//  #01 //009   ----------------------------------------
 BYTE   PATT
  POIN2 Label_01004F03
//  #01 //010   ----------------------------------------
 BYTE   PATT
  POIN2 Label_01004F03
//  #01 //011   ----------------------------------------
 BYTE   VOL   42*Dialga_mvl/mxv
 BYTE   N11  Cs1  v127
 BYTE   W12
 BYTE   Fn1
 BYTE   W12
 BYTE   Cs1
 BYTE   W12
 BYTE   Fn1
 BYTE   W12
 BYTE   Gs1
 BYTE   W12
 BYTE   Fn1
 BYTE   W12
 BYTE   En1
 BYTE   W12
 BYTE   Cs1
 BYTE   W12
//  #01 //012   ----------------------------------------
 BYTE   PATT
  POIN2 Label_01004EC4
//  #01 //013   ----------------------------------------
 BYTE   PATT
  POIN2 Label_01004EC4
//  #01 //014   ----------------------------------------
 BYTE   PATT
  POIN2 Label_01004EC4
//  #01 //015   ----------------------------------------
 BYTE   PATT
  POIN2 Label_01004EC4
//  #01 //016   ----------------------------------------
 BYTE   PATT
  POIN2 Label_01004EC4
//  #01 //017   ----------------------------------------
 BYTE   PATT
  POIN2 Label_01004EC4
//  #01 //018   ----------------------------------------
 BYTE   PATT
  POIN2 Label_01004EC4
//  #01 //019   ----------------------------------------
 BYTE   PATT
  POIN2 Label_01004EC4
//  #01 //020   ----------------------------------------
 BYTE   PATT
  POIN2 Label_01004EC4
//  #01 //021   ----------------------------------------
 BYTE   PATT
  POIN2 Label_01004EC4
//  #01 //022   ----------------------------------------
 BYTE   PATT
  POIN2 Label_01004EC4
//  #01 //023   ----------------------------------------
 BYTE   PATT
  POIN2 Label_01004EC4
//  #01 //024   ----------------------------------------
 BYTE   PATT
  POIN2 Label_01004F03
//  #01 //025   ----------------------------------------
 BYTE   PATT
  POIN2 Label_01004F03
//  #01 //026   ----------------------------------------
 BYTE   PATT
  POIN2 Label_01004EC4
//  #01 //027   ----------------------------------------
 BYTE   PATT
  POIN2 Label_01004EC4
//  #01 //028   ----------------------------------------
 BYTE   PATT
  POIN2 Label_01004F03
//  #01 //029   ----------------------------------------
 BYTE   PATT
  POIN2 Label_01004F03
//  #01 //030   ----------------------------------------
 BYTE   PATT
  POIN2 Label_01004EC4
//  #01 //031   ----------------------------------------
 BYTE   PATT
  POIN2 Label_01004EC4
//  #01 //032   ----------------------------------------
 BYTE   PATT
  POIN2 Label_01004EC4
//  #01 //033   ----------------------------------------
 BYTE   PATT
  POIN2 Label_01004F03
//  #01 //034   ----------------------------------------
 BYTE   PATT
  POIN2 Label_01004EC4
//  #01 //035   ----------------------------------------
Label_01004FA7:
 BYTE   N11  Bn0  v127
 BYTE   W12
 BYTE   Ds1
 BYTE   W12
 BYTE   Bn0
 BYTE   W12
 BYTE   Ds1
 BYTE   W12
 BYTE   Bn0
 BYTE   W12
 BYTE   Ds1
 BYTE   W12
 BYTE   Bn0
 BYTE   W12
 BYTE   Ds1
 BYTE   W12
 BYTE   PEND 
//  #01 //036   ----------------------------------------
 BYTE   PATT
  POIN2 Label_01004EC4
//  #01 //037   ----------------------------------------
 BYTE   PATT
  POIN2 Label_01004F03
//  #01 //038   ----------------------------------------
 BYTE   PATT
  POIN2 Label_01004EC4
//  #01 //039   ----------------------------------------
 BYTE   PATT
  POIN2 Label_01004FA7
//  #01 //040   ----------------------------------------
 BYTE   PATT
  POIN2 Label_01004EC4
//  #01 //041   ----------------------------------------
 BYTE   PATT
  POIN2 Label_01004F03
//  #01 //042   ----------------------------------------
 BYTE   PATT
  POIN2 Label_01004EC4
//  #01 //043   ----------------------------------------
 BYTE   N11  Bn0  v127
 BYTE   W12
 BYTE   Ds1
 BYTE   W12
 BYTE   Bn0
 BYTE   W12
 BYTE   Ds1
 BYTE   W12
 BYTE   Cn1
 BYTE   W12
 BYTE   En1
 BYTE   W12
 BYTE   Gn1
 BYTE   W12
 BYTE   Bn1
 BYTE   W12
//  #01 //044   ----------------------------------------
Label_01004FEF:
 BYTE   N11  Cn2  v127
 BYTE   W12
 BYTE   Gn1
 BYTE   W12
 BYTE   En1
 BYTE   W12
 BYTE   Gn1
 BYTE   W12
 BYTE   Cn2
 BYTE   W12
 BYTE   Gn1
 BYTE   W12
 BYTE   En1
 BYTE   W12
 BYTE   Gn1
 BYTE   W12
 BYTE   PEND 
//  #01 //045   ----------------------------------------
 BYTE   En1
 BYTE   W12
 BYTE   Gn1
 BYTE   W12
 BYTE   Cn2
 BYTE   W12
 BYTE   Gn1
 BYTE   W12
 BYTE   Cn2
 BYTE   W12
 BYTE   Gn1
 BYTE   W12
 BYTE   En1
 BYTE   W12
 BYTE   Gn1
 BYTE   W12
//  #01 //046   ----------------------------------------
 BYTE   PATT
  POIN2 Label_01004FEF
//  #01 //047   ----------------------------------------
 BYTE   N11  En1  v127
 BYTE   W12
 BYTE   Gn1
 BYTE   W12
 BYTE   Cn2
 BYTE   W12
 BYTE   Gn1
 BYTE   W12
 BYTE   Fn2
 BYTE   W12
 BYTE   Dn2
 BYTE   W12
 BYTE   Bn1
 BYTE   W12
 BYTE   Gs1
 BYTE   W12
//  #01 //048   ----------------------------------------
 BYTE   Fs1
 BYTE   W12
 BYTE   Fn1
 BYTE   W12
 BYTE   Dn1
 BYTE   W12
 BYTE   Cs1
 BYTE   W12
 BYTE   VOL   45*Dialga_mvl/mxv
 BYTE   N11  Cn1
 BYTE   W12
 BYTE   Cs1
 BYTE   W12
 BYTE   As0
 BYTE   W12
 BYTE   Cs1
 BYTE   W12
//  #01 //049   ----------------------------------------
Label_0100503C:
 BYTE   N23  Cn1  v127
 BYTE   W24
 BYTE   N11
 BYTE   W12
 BYTE   Cs1
 BYTE   W12
 BYTE   As0
 BYTE   W12
 BYTE   Cs1
 BYTE   W12
 BYTE   N23  Cn1
 BYTE   W24
 BYTE   PEND 
//  #01 //050   ----------------------------------------
Label_0100504C:
 BYTE   N11  Cn1  v127
 BYTE   W12
 BYTE   Cs1
 BYTE   W12
 BYTE   Ds1
 BYTE   W12
 BYTE   Fn1
 BYTE   W12
 BYTE   Ds1
 BYTE   W12
 BYTE   Cs1
 BYTE   W12
 BYTE   Cn1
 BYTE   W12
 BYTE   As0
 BYTE   W12
 BYTE   PEND 
//  #01 //051   ----------------------------------------
Label_0100505F:
 BYTE   N11  Gs0  v127
 BYTE   W12
 BYTE   An0
 BYTE   W12
 BYTE   Fs0
 BYTE   W12
 BYTE   An0
 BYTE   W12
 BYTE   N23  Gs0
 BYTE   W24
 BYTE   N11
 BYTE   W12
 BYTE   An0
 BYTE   W12
 BYTE   PEND 
//  #01 //052   ----------------------------------------
Label_01005071:
 BYTE   N11  Fs0  v127
 BYTE   W12
 BYTE   An0
 BYTE   W12
 BYTE   N23  Gs0
 BYTE   W24
 BYTE   N11
 BYTE   W12
 BYTE   An0
 BYTE   W12
 BYTE   Bn0
 BYTE   W12
 BYTE   Cs1
 BYTE   W12
 BYTE   PEND 
//  #01 //053   ----------------------------------------
Label_01005083:
 BYTE   N11  Bn0  v127
 BYTE   W12
 BYTE   An0
 BYTE   W12
 BYTE   N11
 BYTE   W12
 BYTE   Bn0
 BYTE   W12
 BYTE   Cn1
 BYTE   W12
 BYTE   Cs1
 BYTE   W12
 BYTE   As0
 BYTE   W12
 BYTE   Cs1
 BYTE   W12
 BYTE   PEND 
//  #01 //054   ----------------------------------------
 BYTE   PATT
  POIN2 Label_0100503C
//  #01 //055   ----------------------------------------
 BYTE   PATT
  POIN2 Label_0100504C
//  #01 //056   ----------------------------------------
 BYTE   PATT
  POIN2 Label_0100505F
//  #01 //057   ----------------------------------------
 BYTE   PATT
  POIN2 Label_01005071
//  #01 //058   ----------------------------------------
 BYTE   PATT
  POIN2 Label_01005083
//  #01 //059   ----------------------------------------
 BYTE   PATT
  POIN2 Label_0100503C
//  #01 //060   ----------------------------------------
 BYTE   PATT
  POIN2 Label_0100504C
//  #01 //061   ----------------------------------------
 BYTE   PATT
  POIN2 Label_0100505F
//  #01 //062   ----------------------------------------
 BYTE   PATT
  POIN2 Label_01005071
//  #01 //063   ----------------------------------------
 BYTE   PATT
  POIN2 Label_01005083
//  #01 //064   ----------------------------------------
 BYTE   PATT
  POIN2 Label_0100503C
//  #01 //065   ----------------------------------------
 BYTE   PATT
  POIN2 Label_0100504C
//  #01 //066   ----------------------------------------
 BYTE   PATT
  POIN2 Label_0100505F
//  #01 //067   ----------------------------------------
 BYTE   PATT
  POIN2 Label_01005071
//  #01 //068   ----------------------------------------
 BYTE   N11  Bn0  v127
 BYTE   W12
 BYTE   An0
 BYTE   W12
 BYTE   N11
 BYTE   W12
 BYTE   Bn0
 BYTE   W12
 BYTE   Cs1
 BYTE   W12
 BYTE   Gs1
 BYTE   W12
 BYTE   Cs1
 BYTE   W12
 BYTE   Gs1
 BYTE   W12
//  #01 //069   ----------------------------------------
 BYTE   N23  Cs1
 BYTE   W24
 BYTE   N11  Gs1
 BYTE   W12
 BYTE   Cs1
 BYTE   W12
 BYTE   N11
 BYTE   W12
 BYTE   Gs1
 BYTE   W12
 BYTE   Cs1
 BYTE   W12
 BYTE   Gs1
 BYTE   W12
//  #01 //070   ----------------------------------------
 BYTE   Cs1
 BYTE   W12
 BYTE   Gs1
 BYTE   W12
 BYTE   An0
 BYTE   W12
 BYTE   En1
 BYTE   W12
 BYTE   An0
 BYTE   W12
 BYTE   En1
 BYTE   W12
 BYTE   N23  An0
 BYTE   W24
//  #01 //071   ----------------------------------------
 BYTE   N11  En1
 BYTE   W12
 BYTE   An0
 BYTE   W12
 BYTE   N11
 BYTE   W12
 BYTE   En1
 BYTE   W12
 BYTE   An0
 BYTE   W12
 BYTE   En1
 BYTE   W12
 BYTE   An0
 BYTE   W12
 BYTE   Bn0
 BYTE   W12
//  #01 //072   ----------------------------------------
 BYTE   N11
 BYTE   W12
 BYTE   Fs1
 BYTE   W12
 BYTE   Bn0
 BYTE   W12
 BYTE   Fs1
 BYTE   W12
 BYTE   N23  Bn0
 BYTE   W24
 BYTE   N11  Fs1
 BYTE   W12
 BYTE   Bn0
 BYTE   W12
//  #01 //073   ----------------------------------------
 BYTE   N11
 BYTE   W12
 BYTE   Fs1
 BYTE   W12
 BYTE   Bn0
 BYTE   W12
 BYTE   Fs1
 BYTE   W12
 BYTE   Bn0
 BYTE   W12
 BYTE   Fs1
 BYTE   W12
 BYTE   Dn1
 BYTE   W12
 BYTE   An1
 BYTE   W12
//  #01 //074   ----------------------------------------
 BYTE   Dn1
 BYTE   W12
 BYTE   An1
 BYTE   W12
 BYTE   N23  Dn1
 BYTE   W24
 BYTE   N11  An1
 BYTE   W12
 BYTE   Dn1
 BYTE   W12
 BYTE   N11
 BYTE   W12
 BYTE   An1
 BYTE   W12
//  #01 //075   ----------------------------------------
 BYTE   Fs1
 BYTE   W12
 BYTE   Dn1
 BYTE   W12
 BYTE   An0
 BYTE   W12
 BYTE   Bn0
 BYTE   W12
 BYTE   Gs0
 BYTE   W12
 BYTE   Cn1
 BYTE   W12
 BYTE   Gs0
 BYTE   W12
 BYTE   Cn1
 BYTE   W12
//  #01 //076   ----------------------------------------
Label_0100515E:
 BYTE   N11  Gs0  v127
 BYTE   W12
 BYTE   Cn1
 BYTE   W12
 BYTE   Gs0
 BYTE   W12
 BYTE   Cn1
 BYTE   W12
 BYTE   Gs0
 BYTE   W12
 BYTE   Cn1
 BYTE   W12
 BYTE   Gs0
 BYTE   W12
 BYTE   Cn1
 BYTE   W12
 BYTE   PEND 
//  #01 //077   ----------------------------------------
 BYTE   PATT
  POIN2 Label_0100515E
//  #01 //078   ----------------------------------------
 BYTE   PATT
  POIN2 Label_0100515E
//  #01 //079   ----------------------------------------
 BYTE   N11  Gs0  v127
 BYTE   W12
 BYTE   Cn1
 BYTE   W12
 BYTE   Gs0
 BYTE   W12
 BYTE   Cn1
 BYTE   W12
 BYTE   An0
 BYTE   W12
 BYTE   Cs1
 BYTE   W12
 BYTE   An0
 BYTE   W12
 BYTE   Cs1
 BYTE   W12
//  #01 //080   ----------------------------------------
 BYTE   An0
 BYTE   W12
 BYTE   Cs1
 BYTE   W12
 BYTE   An0
 BYTE   W12
 BYTE   Cs1
 BYTE   W12
 BYTE   An0
 BYTE   W12
 BYTE   Cs1
 BYTE   W12
 BYTE   An0
 BYTE   W12
 BYTE   Cs1
 BYTE   W12
//  #01 //081   ----------------------------------------
 BYTE   An0
 BYTE   W12
 BYTE   Cs1
 BYTE   W12
 BYTE   An0
 BYTE   W12
 BYTE   Cs1
 BYTE   W12
 BYTE   Bn0
 BYTE   W12
 BYTE   Ds1
 BYTE   W12
 BYTE   Bn0
 BYTE   W12
 BYTE   Ds1
 BYTE   W12
//  #01 //082   ----------------------------------------
 BYTE   PATT
  POIN2 Label_01004FA7
//  #01 //083   ----------------------------------------
 BYTE   N11  Bn0  v127
 BYTE   W12
 BYTE   Ds1
 BYTE   W12
 BYTE   Bn0
 BYTE   W12
 BYTE   Ds1
 BYTE   W12
 BYTE   Cs1
 BYTE   W12
 BYTE   Fn1
 BYTE   W12
 BYTE   Cs1
 BYTE   W12
 BYTE   Fn1
 BYTE   W12
//  #01 //084   ----------------------------------------
 BYTE   PATT
  POIN2 Label_01004F03
//  #01 //085   ----------------------------------------
 BYTE   N11  Cs1  v127
 BYTE   W12
 BYTE   Fn1
 BYTE   W12
 BYTE   Cs1
 BYTE   W12
 BYTE   Fn1
 BYTE   W12
 BYTE   Gs0
 BYTE   W12
 BYTE   Cs1
 BYTE   W12
 BYTE   Gs0
 BYTE   W12
 BYTE   Cs1
 BYTE   W12
//  #01 //086   ----------------------------------------
 BYTE   Gs0
 BYTE   W12
 BYTE   Cs1
 BYTE   W12
 BYTE   Gs0
 BYTE   W12
 BYTE   Cs1
 BYTE   W12
 BYTE   Gs0
 BYTE   W12
 BYTE   Cs1
 BYTE   W12
 BYTE   Gs0
 BYTE   W12
 BYTE   Cs1
 BYTE   W12
//  #01 //087   ----------------------------------------
 BYTE   Gs0
 BYTE   W12
 BYTE   Cs1
 BYTE   W12
 BYTE   Fn1
 BYTE   W12
 BYTE   Gs1
 BYTE   W12
 BYTE   N05  Cs1
 BYTE   W06
 BYTE   N17  Cs1  v040
 BYTE   W42
//  #01 //088   ----------------------------------------
 BYTE   W96
//  #01 //089   ----------------------------------------
 BYTE   W96
//  #01 //090   ----------------------------------------
 BYTE   W96
//  #01 //091   ----------------------------------------
 BYTE   N11  Cn2  v127
 BYTE   W12
 BYTE   As1
 BYTE   W12
 BYTE   Gs1
 BYTE   W12
 BYTE   Fs1
 BYTE   W12
 BYTE   Cs1
 BYTE   W12
 BYTE   Fs1
 BYTE   W12
 BYTE   Cs1
 BYTE   W12
 BYTE   Fs1
 BYTE   W12
//  #01 //092   ----------------------------------------
 BYTE   Cs1
 BYTE   W12
 BYTE   Fs1
 BYTE   W12
 BYTE   Cs1
 BYTE   W12
 BYTE   Fs1
 BYTE   W12
 BYTE   Cs1
 BYTE   W12
 BYTE   Fn1
 BYTE   W12
 BYTE   Cs1
 BYTE   W12
 BYTE   Fn1
 BYTE   W12
//  #01 //093   ----------------------------------------
 BYTE   Cs1
 BYTE   W12
 BYTE   Fn1
 BYTE   W12
 BYTE   Cs1
 BYTE   W12
 BYTE   Fn1
 BYTE   W12
 BYTE   Cs1
 BYTE   W12
 BYTE   Ds1
 BYTE   W12
 BYTE   Cs1
 BYTE   W12
 BYTE   Ds1
 BYTE   W12
//  #01 //094   ----------------------------------------
 BYTE   Cs1
 BYTE   W12
 BYTE   Ds1
 BYTE   W12
 BYTE   Cs1
 BYTE   W12
 BYTE   Ds1
 BYTE   W12
 BYTE   Cs1
 BYTE   W12
 BYTE   Fn1
 BYTE   W12
 BYTE   Cs1
 BYTE   W12
 BYTE   Fn1
 BYTE   W12
//  #01 //095   ----------------------------------------
 BYTE   Cs1
 BYTE   W12
 BYTE   Ds1
 BYTE   W12
 BYTE   Dn1
 BYTE   W12
 BYTE   Cs1
 BYTE   W12
 BYTE   Cn1
 BYTE   W12
 BYTE   En1
 BYTE   W12
 BYTE   Cn1
 BYTE   W12
 BYTE   En1
 BYTE   W12
//  #01 //096   ----------------------------------------
 BYTE   PATT
  POIN2 Label_01004EC4
//  #01 //097   ----------------------------------------
 BYTE   PATT
  POIN2 Label_01004EC4
//  #01 //098   ----------------------------------------
 BYTE   PATT
  POIN2 Label_01004EC4
//  #01 //099   ----------------------------------------
 BYTE   PATT
  POIN2 Label_01004EC4
//  #01 //100   ----------------------------------------
 BYTE   PATT
  POIN2 Label_01004EC4
//  #01 //101   ----------------------------------------
 BYTE   PATT
  POIN2 Label_01004EC4
//  #01 //102   ----------------------------------------
 BYTE   PATT
  POIN2 Label_01004EC4
//  #01 //103   ----------------------------------------
 BYTE   PATT
  POIN2 Label_01004EC4
//  #01 //104   ----------------------------------------
 BYTE   PATT
  POIN2 Label_01004EC4
//  #01 //105   ----------------------------------------
 BYTE   PATT
  POIN2 Label_01004EC4
//  #01 //106   ----------------------------------------
 BYTE   N11  Cn1  v127
 BYTE   W12
 BYTE   En1
 BYTE   W12
 BYTE   Gn1
 BYTE   W12
 BYTE   En1
 BYTE   W12
 BYTE   Gn1
 BYTE   W12
 BYTE   Cn1
 BYTE   W12
 BYTE   En1
 BYTE   W12
 BYTE   Gn1
 BYTE   W12
//  #01 //107   ----------------------------------------
 BYTE   Cn2
 BYTE   W12
 BYTE   Cs1
 BYTE   W12
 BYTE   Cn1
 BYTE   W12
 BYTE   Bn0
 BYTE   W12
 BYTE   As0
 BYTE   W12
 BYTE   Dn1
 BYTE   W12
 BYTE   As0
 BYTE   W12
 BYTE   Dn1
 BYTE   W12
//  #01 //108   ----------------------------------------
Label_010052A3:
 BYTE   N11  As0  v127
 BYTE   W12
 BYTE   Dn1
 BYTE   W12
 BYTE   As0
 BYTE   W12
 BYTE   Dn1
 BYTE   W12
 BYTE   As0
 BYTE   W12
 BYTE   Dn1
 BYTE   W12
 BYTE   As0
 BYTE   W12
 BYTE   Dn1
 BYTE   W12
 BYTE   PEND 
//  #01 //109   ----------------------------------------
Label_010052B6:
 BYTE   N11  As0  v127
 BYTE   W12
 BYTE   Dn1
 BYTE   W12
 BYTE   As0
 BYTE   W12
 BYTE   Bn0
 BYTE   W12
 BYTE   Cn1
 BYTE   W12
 BYTE   En1
 BYTE   W12
 BYTE   Cn1
 BYTE   W12
 BYTE   En1
 BYTE   W12
 BYTE   PEND 
//  #01 //110   ----------------------------------------
 BYTE   PATT
  POIN2 Label_01004EC4
//  #01 //111   ----------------------------------------
 BYTE   N11  Cn1  v127
 BYTE   W12
 BYTE   En1
 BYTE   W12
 BYTE   Cn1
 BYTE   W12
 BYTE   En1
 BYTE   W12
 BYTE   As0
 BYTE   W12
 BYTE   Dn1
 BYTE   W12
 BYTE   As0
 BYTE   W12
 BYTE   Dn1
 BYTE   W12
//  #01 //112   ----------------------------------------
 BYTE   PATT
  POIN2 Label_010052A3
//  #01 //113   ----------------------------------------
 BYTE   PATT
  POIN2 Label_010052B6
//  #01 //114   ----------------------------------------
 BYTE   PATT
  POIN2 Label_01004EC4
//  #01 //115   ----------------------------------------
 BYTE   GoTo
  POIN2 Label_01004E8A
//  #01 //116   ----------------------------------------
 BYTE   N11  Cn1  v127
 BYTE   W12
 BYTE   En1
 BYTE   W12
 BYTE   Cn1
 BYTE   W12
 BYTE   En1
 BYTE   W60
//  #01 //117   ----------------------------------------
 BYTE   PAN   c_v+0
 BYTE   VOL   45*Dialga_mvl/mxv
 BYTE   MOD 0
 BYTE   PAN   c_v+0
 BYTE   VOL   45*Dialga_mvl/mxv
 BYTE   MOD 0
 BYTE   PAN   c_v+0
 BYTE   VOL   45*Dialga_mvl/mxv
 BYTE   MOD 0
 BYTE   BEND   c_v+0
 BYTE   FINE

//**************** Track 2 (Midi-Chn.1) ****************//

Dialga_002:
//  #02 //000   ----------------------------------------
 BYTE   KEYSH   Dialga_key+0
Label_01005326:
 BYTE   VOICE   40
 BYTE   PAN   c_v+0
 BYTE   VOL   39*Dialga_mvl/mxv
 BYTE   PAN   c_v+0
 BYTE   VOL   39*Dialga_mvl/mxv
 BYTE   MOD 0
 BYTE   PAN   c_v+0
 BYTE   VOL   39*Dialga_mvl/mxv
 BYTE   MOD 0
 BYTE   PAN   c_v+0
 BYTE   VOL   39*Dialga_mvl/mxv
 BYTE   MOD 0
 BYTE   PAN   c_v+0
 BYTE   VOL   39*Dialga_mvl/mxv
 BYTE   MOD 0
 BYTE   PAN   c_v+0
 BYTE   VOL   39*Dialga_mvl/mxv
 BYTE   MOD 0
 BYTE   BEND   c_v+0
 BYTE   TIE  Cn3  v112
 BYTE   W96
//  #02 //001   ----------------------------------------
 BYTE   W96
//  #02 //002   ----------------------------------------
 BYTE   W96
//  #02 //003   ----------------------------------------
 BYTE   W96
//  #02 //004   ----------------------------------------
 BYTE   W96
//  #02 //005   ----------------------------------------
 BYTE   W92
 BYTE   W03
 BYTE   EOT
 BYTE   W01
//  #02 //006   ----------------------------------------
 BYTE   TIE  Cs3
 BYTE   W96
//  #02 //007   ----------------------------------------
 BYTE   W96
//  #02 //008   ----------------------------------------
 BYTE   W96
//  #02 //009   ----------------------------------------
 BYTE   W92
 BYTE   W03
 BYTE   EOT
 BYTE   W01
//  #02 //010   ----------------------------------------
 BYTE   N92  Gs3
 BYTE   W96
//  #02 //011   ----------------------------------------
 BYTE   Cs3
 BYTE   W96
//  #02 //012   ----------------------------------------
 BYTE   PAN   c_v-34
 BYTE   N23  Cn2
 BYTE   W24
 BYTE   Cs2
 BYTE   W24
 BYTE   Cn2
 BYTE   W24
 BYTE   Gn2
 BYTE   W24
//  #02 //013   ----------------------------------------
 BYTE   Fs2
 BYTE   W24
 BYTE   N44  Dn2
 BYTE   W48
 BYTE   N23  Cs2
 BYTE   W24
//  #02 //014   ----------------------------------------
 BYTE   N80  Ds2
 BYTE   W84
 BYTE   N05  Dn2
 BYTE   W06
 BYTE   Cs2
 BYTE   W06
//  #02 //015   ----------------------------------------
 BYTE   N92  Cn2
 BYTE   W96
//  #02 //016   ----------------------------------------
 BYTE   N23  Cn3
 BYTE   W24
 BYTE   Cs3
 BYTE   W24
 BYTE   Cn3
 BYTE   W24
 BYTE   Gn3
 BYTE   W24
//  #02 //017   ----------------------------------------
 BYTE   Fs3
 BYTE   W24
 BYTE   N44  Dn3
 BYTE   W48
 BYTE   N23  Cs3
 BYTE   W24
//  #02 //018   ----------------------------------------
 BYTE   N92  Ds3
 BYTE   W96
//  #02 //019   ----------------------------------------
 BYTE   TIE  En3
 BYTE   W96
//  #02 //020   ----------------------------------------
 BYTE   W96
//  #02 //021   ----------------------------------------
 BYTE   W92
 BYTE   W03
 BYTE   EOT
 BYTE   W01
//  #02 //022   ----------------------------------------
 BYTE   TIE  Gn2
 BYTE   W96
//  #02 //023   ----------------------------------------
 BYTE   W92
 BYTE   W03
 BYTE   EOT
 BYTE   W01
//  #02 //024   ----------------------------------------
 BYTE   VOL   41*Dialga_mvl/mxv
 BYTE   N23  Gs2
 BYTE   W24
 BYTE   Gn2
 BYTE   W24
 BYTE   N32  Fn2
 BYTE   W36
 BYTE   N11  En2
 BYTE   W12
//  #02 //025   ----------------------------------------
 BYTE   N23  Fn2
 BYTE   W24
 BYTE   Gn2
 BYTE   W24
 BYTE   N11  Gs2
 BYTE   W12
 BYTE   As2
 BYTE   W12
 BYTE   Cs3
 BYTE   W12
 BYTE   As2
 BYTE   W12
//  #02 //026   ----------------------------------------
 BYTE   TIE  Cn3
 BYTE   W96
//  #02 //027   ----------------------------------------
 BYTE   W92
 BYTE   W03
 BYTE   EOT
 BYTE   W01
//  #02 //028   ----------------------------------------
 BYTE   N23  Fn2
 BYTE   W24
 BYTE   Gn2
 BYTE   W24
 BYTE   N32  Fn2
 BYTE   W36
 BYTE   N11  En2
 BYTE   W12
//  #02 //029   ----------------------------------------
 BYTE   Fn2
 BYTE   W12
 BYTE   Gn2
 BYTE   W12
 BYTE   As2
 BYTE   W12
 BYTE   Cs3
 BYTE   W12
 BYTE   Gs2
 BYTE   W12
 BYTE   As2
 BYTE   W12
 BYTE   Cs3
 BYTE   W12
 BYTE   Fn3
 BYTE   W12
//  #02 //030   ----------------------------------------
 BYTE   TIE  Gn3
 BYTE   W96
//  #02 //031   ----------------------------------------
 BYTE   W92
 BYTE   W03
 BYTE   EOT
 BYTE   W01
//  #02 //032   ----------------------------------------
 BYTE   N92  Cn2
 BYTE   W96
//  #02 //033   ----------------------------------------
Label_010053EE:
 BYTE   N11  Cs2  v112
 BYTE   W12
 BYTE   N80  Cs2  v040
 BYTE   W84
 BYTE   PEND 
//  #02 //034   ----------------------------------------
 BYTE   N92  Cn2  v112
 BYTE   W96
//  #02 //035   ----------------------------------------
Label_010053FB:
 BYTE   N11  Bn1  v112
 BYTE   W12
 BYTE   N80  Bn1  v040
 BYTE   W84
 BYTE   PEND 
//  #02 //036   ----------------------------------------
 BYTE   N92  Cn2  v112
 BYTE   W96
//  #02 //037   ----------------------------------------
 BYTE   PATT
  POIN2 Label_010053EE
//  #02 //038   ----------------------------------------
 BYTE   N92  Cn2  v112
 BYTE   W96
//  #02 //039   ----------------------------------------
 BYTE   PATT
  POIN2 Label_010053FB
//  #02 //040   ----------------------------------------
 BYTE   N92  Cn2  v112
 BYTE   W96
//  #02 //041   ----------------------------------------
 BYTE   PATT
  POIN2 Label_010053EE
//  #02 //042   ----------------------------------------
 BYTE   N92  Cn2  v112
 BYTE   W96
//  #02 //043   ----------------------------------------
 BYTE   N11  Bn1
 BYTE   W12
 BYTE   N68  Bn1  v040
 BYTE   W72
 BYTE   TIE  Gn2  v112
 BYTE   W12
//  #02 //044   ----------------------------------------
 BYTE   W96
//  #02 //045   ----------------------------------------
 BYTE   W96
//  #02 //046   ----------------------------------------
 BYTE   W96
//  #02 //047   ----------------------------------------
 BYTE   W96
//  #02 //048   ----------------------------------------
 BYTE   W44
 BYTE   W03
 BYTE   EOT
 BYTE   W01
 BYTE   PAN   c_v+2
 BYTE   TIE  Cn3
 BYTE   W48
//  #02 //049   ----------------------------------------
 BYTE   W96
//  #02 //050   ----------------------------------------
 BYTE   W92
 BYTE   W03
 BYTE   EOT
 BYTE   W01
//  #02 //051   ----------------------------------------
 BYTE   TIE  Gs2
 BYTE   W96
//  #02 //052   ----------------------------------------
 BYTE   W96
//  #02 //053   ----------------------------------------
 BYTE   W44
 BYTE   W03
 BYTE   EOT
 BYTE   W01
 BYTE   TIE  Cn3
 BYTE   W48
//  #02 //054   ----------------------------------------
 BYTE   W96
//  #02 //055   ----------------------------------------
 BYTE   W92
 BYTE   W03
 BYTE   EOT
 BYTE   W01
//  #02 //056   ----------------------------------------
 BYTE   TIE  Gs2
 BYTE   W96
//  #02 //057   ----------------------------------------
 BYTE   W96
//  #02 //058   ----------------------------------------
 BYTE   W44
 BYTE   W03
 BYTE   EOT
 BYTE   W01
 BYTE   TIE  Cn3
 BYTE   W48
//  #02 //059   ----------------------------------------
 BYTE   W96
//  #02 //060   ----------------------------------------
 BYTE   W92
 BYTE   W03
 BYTE   EOT
 BYTE   W01
//  #02 //061   ----------------------------------------
 BYTE   TIE  Gs2
 BYTE   W96
//  #02 //062   ----------------------------------------
 BYTE   W96
//  #02 //063   ----------------------------------------
 BYTE   W44
 BYTE   W03
 BYTE   EOT
 BYTE   W01
 BYTE   TIE  Cn3
 BYTE   W48
//  #02 //064   ----------------------------------------
 BYTE   W96
//  #02 //065   ----------------------------------------
 BYTE   W92
 BYTE   W03
 BYTE   EOT
 BYTE   W01
//  #02 //066   ----------------------------------------
 BYTE   TIE  Gs2
 BYTE   W96
//  #02 //067   ----------------------------------------
 BYTE   W96
//  #02 //068   ----------------------------------------
 BYTE   W44
 BYTE   W03
 BYTE   EOT
 BYTE   W01
 BYTE   PAN   c_v+0
 BYTE   VOL   43*Dialga_mvl/mxv
 BYTE   N32  Cs3
 BYTE   W36
 BYTE   Gs3
 BYTE   W12
//  #02 //069   ----------------------------------------
 BYTE   W24
 BYTE   N23  Gn3
 BYTE   W24
 BYTE   Ds3
 BYTE   W24
 BYTE   En3
 BYTE   W24
//  #02 //070   ----------------------------------------
 BYTE   Cs3
 BYTE   W24
 BYTE   N32  An2
 BYTE   W36
 BYTE   En3
 BYTE   W36
//  #02 //071   ----------------------------------------
 BYTE   N23  Ds3
 BYTE   W24
 BYTE   Bn2
 BYTE   W24
 BYTE   Cn3
 BYTE   W24
 BYTE   An2
 BYTE   W24
//  #02 //072   ----------------------------------------
 BYTE   N32  Bn2
 BYTE   W36
 BYTE   Fs3
 BYTE   W36
 BYTE   N23  Fn3
 BYTE   W24
//  #02 //073   ----------------------------------------
 BYTE   Cs3
 BYTE   W24
 BYTE   Dn3
 BYTE   W24
 BYTE   Bn2
 BYTE   W24
 BYTE   N32  Dn3
 BYTE   W24
//  #02 //074   ----------------------------------------
 BYTE   W12
 BYTE   An3
 BYTE   W36
 BYTE   N23  Gs3
 BYTE   W24
 BYTE   En3
 BYTE   W24
//  #02 //075   ----------------------------------------
 BYTE   Fs3
 BYTE   W24
 BYTE   Dn3
 BYTE   W24
 BYTE   TIE  Ds2
 BYTE   W48
//  #02 //076   ----------------------------------------
 BYTE   W96
//  #02 //077   ----------------------------------------
 BYTE   W96
//  #02 //078   ----------------------------------------
 BYTE   W96
//  #02 //079   ----------------------------------------
 BYTE   W44
 BYTE   W03
 BYTE   EOT
 BYTE   W01
 BYTE   TIE  An2
 BYTE   W48
//  #02 //080   ----------------------------------------
 BYTE   W96
//  #02 //081   ----------------------------------------
 BYTE   W44
 BYTE   W03
 BYTE   EOT
 BYTE   W01
 BYTE   TIE  Bn2
 BYTE   W48
//  #02 //082   ----------------------------------------
 BYTE   W96
//  #02 //083   ----------------------------------------
 BYTE   W44
 BYTE   W03
 BYTE   EOT
 BYTE   W01
 BYTE   TIE  Cs3
 BYTE   W48
//  #02 //084   ----------------------------------------
 BYTE   W96
//  #02 //085   ----------------------------------------
 BYTE   W96
//  #02 //086   ----------------------------------------
 BYTE   W96
//  #02 //087   ----------------------------------------
 BYTE   W44
 BYTE   W03
 BYTE   EOT
 BYTE   W01
 BYTE   VOL   38*Dialga_mvl/mxv
 BYTE   PAN   c_v-33
 BYTE   TIE  Cs4
 BYTE   W48
//  #02 //088   ----------------------------------------
 BYTE   W96
//  #02 //089   ----------------------------------------
 BYTE   W96
//  #02 //090   ----------------------------------------
 BYTE   W96
//  #02 //091   ----------------------------------------
 BYTE   W96
//  #02 //092   ----------------------------------------
 BYTE   W96
//  #02 //093   ----------------------------------------
 BYTE   W96
//  #02 //094   ----------------------------------------
 BYTE   W96
//  #02 //095   ----------------------------------------
 BYTE   W44
 BYTE   W03
 BYTE   EOT
 BYTE   W01
 BYTE   PAN   c_v-32
 BYTE   VOL   39*Dialga_mvl/mxv
 BYTE   N23  Cn2
 BYTE   W24
 BYTE   Cs2
 BYTE   W24
//  #02 //096   ----------------------------------------
 BYTE   Cn2
 BYTE   W24
 BYTE   Gn2
 BYTE   W24
 BYTE   Fs2
 BYTE   W24
 BYTE   N44  Dn2
 BYTE   W24
//  #02 //097   ----------------------------------------
 BYTE   W24
 BYTE   N23  Cs2
 BYTE   W24
 BYTE   N80  Ds2
 BYTE   W48
//  #02 //098   ----------------------------------------
 BYTE   W36
 BYTE   N05  Dn2
 BYTE   W06
 BYTE   Cs2
 BYTE   W06
 BYTE   N92  Cn2
 BYTE   W48
//  #02 //099   ----------------------------------------
 BYTE   W48
 BYTE   N23  Cn3
 BYTE   W24
 BYTE   Cs3
 BYTE   W24
//  #02 //100   ----------------------------------------
 BYTE   Cn3
 BYTE   W24
 BYTE   Gn3
 BYTE   W24
 BYTE   Fs3
 BYTE   W24
 BYTE   N44  Dn3
 BYTE   W24
//  #02 //101   ----------------------------------------
 BYTE   W24
 BYTE   N23  Cs3
 BYTE   W24
 BYTE   N92  Ds3
 BYTE   W48
//  #02 //102   ----------------------------------------
 BYTE   W48
 BYTE   TIE  En3
 BYTE   W48
//  #02 //103   ----------------------------------------
 BYTE   W96
//  #02 //104   ----------------------------------------
 BYTE   W96
//  #02 //105   ----------------------------------------
 BYTE   W32
 BYTE   W03
 BYTE   EOT
 BYTE   W01
 BYTE   N11  Bn3
 BYTE   W12
 BYTE   TIE  Cn4
 BYTE   W48
//  #02 //106   ----------------------------------------
 BYTE   W96
//  #02 //107   ----------------------------------------
 BYTE   W23
 BYTE   EOT
 BYTE   W01
 BYTE   N23  En4
 BYTE   W24
 BYTE   Fn2
 BYTE   W24
 BYTE   Dn2
 BYTE   W24
//  #02 //108   ----------------------------------------
 BYTE   As2
 BYTE   W24
 BYTE   Fn2
 BYTE   W24
 BYTE   Dn3
 BYTE   W24
 BYTE   As2
 BYTE   W24
//  #02 //109   ----------------------------------------
 BYTE   Fn3
 BYTE   W24
 BYTE   Dn3
 BYTE   W24
 BYTE   N92  Cn3
 BYTE   W48
//  #02 //110   ----------------------------------------
 BYTE   W48
 BYTE   N23  Gn2
 BYTE   W24
 BYTE   Fn2
 BYTE   W24
//  #02 //111   ----------------------------------------
 BYTE   En2
 BYTE   W24
 BYTE   Gn2
 BYTE   W24
 BYTE   N44  As2
 BYTE   W48
//  #02 //112   ----------------------------------------
 BYTE   Dn3
 BYTE   W48
 BYTE   Fn3
 BYTE   W48
//  #02 //113   ----------------------------------------
 BYTE   As3
 BYTE   W48
 BYTE   N80  Gn3
 BYTE   W48
//  #02 //114   ----------------------------------------
 BYTE   W36
 BYTE   N11  Bn3
 BYTE   W12
 BYTE   N92  Cn4
 BYTE   W48
//  #02 //115   ----------------------------------------
 BYTE   GoTo
  POIN2 Label_01005326
//  #02 //116   ----------------------------------------
 BYTE   W96
//  #02 //117   ----------------------------------------
 BYTE   PAN   c_v-32
 BYTE   VOL   39*Dialga_mvl/mxv
 BYTE   MOD 0
 BYTE   PAN   c_v-32
 BYTE   VOL   39*Dialga_mvl/mxv
 BYTE   MOD 0
 BYTE   PAN   c_v-32
 BYTE   VOL   39*Dialga_mvl/mxv
 BYTE   MOD 0
 BYTE   BEND   c_v+0
 BYTE   FINE

//**************** Track 3 (Midi-Chn.2) ****************//

Dialga_003:
//  #03 //000   ----------------------------------------
 BYTE   KEYSH   Dialga_key+0
Label_0100559A:
 BYTE   VOICE   40
 BYTE   PAN   c_v-34
 BYTE   VOL   38*Dialga_mvl/mxv
 BYTE   PAN   c_v-34
 BYTE   VOL   38*Dialga_mvl/mxv
 BYTE   MOD 0
 BYTE   PAN   c_v-34
 BYTE   VOL   38*Dialga_mvl/mxv
 BYTE   MOD 0
 BYTE   PAN   c_v-34
 BYTE   VOL   38*Dialga_mvl/mxv
 BYTE   MOD 0
 BYTE   PAN   c_v-34
 BYTE   VOL   38*Dialga_mvl/mxv
 BYTE   MOD 0
 BYTE   PAN   c_v-34
 BYTE   VOL   38*Dialga_mvl/mxv
 BYTE   MOD 0
 BYTE   BEND   c_v+0
 BYTE   TIE  Gn2  v112
 BYTE   W96
//  #03 //001   ----------------------------------------
 BYTE   W96
//  #03 //002   ----------------------------------------
 BYTE   W96
//  #03 //003   ----------------------------------------
 BYTE   W96
//  #03 //004   ----------------------------------------
 BYTE   W96
//  #03 //005   ----------------------------------------
 BYTE   W92
 BYTE   W03
 BYTE   EOT
 BYTE   W01
//  #03 //006   ----------------------------------------
 BYTE   TIE  Gs2
 BYTE   W96
//  #03 //007   ----------------------------------------
 BYTE   W96
//  #03 //008   ----------------------------------------
 BYTE   W96
//  #03 //009   ----------------------------------------
 BYTE   W92
 BYTE   W03
 BYTE   EOT
 BYTE   W01
//  #03 //010   ----------------------------------------
 BYTE   N92  Fn3
 BYTE   W96
//  #03 //011   ----------------------------------------
 BYTE   Gs2
 BYTE   W96
//  #03 //012   ----------------------------------------
 BYTE   VOL   45*Dialga_mvl/mxv
 BYTE   PAN   c_v+0
 BYTE   N23  Gn1
 BYTE   W24
 BYTE   Gs1
 BYTE   W24
 BYTE   Gn1
 BYTE   W24
 BYTE   Cs2
 BYTE   W24
//  #03 //013   ----------------------------------------
 BYTE   Cn2
 BYTE   W24
 BYTE   N44  An1
 BYTE   W48
 BYTE   N23  Gs1
 BYTE   W24
//  #03 //014   ----------------------------------------
 BYTE   N80  As1
 BYTE   W84
 BYTE   N05  An1
 BYTE   W06
 BYTE   Gs1
 BYTE   W06
//  #03 //015   ----------------------------------------
 BYTE   N92  Gn1
 BYTE   W96
//  #03 //016   ----------------------------------------
 BYTE   N23  Gn3
 BYTE   W24
 BYTE   Gs3
 BYTE   W24
 BYTE   Gn3
 BYTE   W24
 BYTE   Cs4
 BYTE   W24
//  #03 //017   ----------------------------------------
 BYTE   Cn4
 BYTE   W24
 BYTE   N44  An3
 BYTE   W48
 BYTE   N23  Gs3
 BYTE   W24
//  #03 //018   ----------------------------------------
 BYTE   N92  As3
 BYTE   W96
//  #03 //019   ----------------------------------------
 BYTE   Bn3
 BYTE   W96
//  #03 //020   ----------------------------------------
 BYTE   TIE  Cn4
 BYTE   W96
//  #03 //021   ----------------------------------------
 BYTE   W92
 BYTE   W03
 BYTE   EOT
 BYTE   W01
//  #03 //022   ----------------------------------------
 BYTE   TIE  Cn3
 BYTE   W96
//  #03 //023   ----------------------------------------
 BYTE   W88
 BYTE   W01
 BYTE   EOT
 BYTE   W01
 BYTE   N05  Bn2
 BYTE   W06
//  #03 //024   ----------------------------------------
 BYTE   N23  Cs3
 BYTE   W24
 BYTE   Ds3
 BYTE   W24
 BYTE   N32  Fn3
 BYTE   W36
 BYTE   N11  Gn3
 BYTE   W12
//  #03 //025   ----------------------------------------
 BYTE   N23  Gs3
 BYTE   W24
 BYTE   As3
 BYTE   W24
 BYTE   N11  Cs4
 BYTE   W12
 BYTE   N23  As3
 BYTE   W24
 BYTE   N11  Gs3
 BYTE   W12
//  #03 //026   ----------------------------------------
 BYTE   N92  Gn3
 BYTE   W96
//  #03 //027   ----------------------------------------
 BYTE   En3
 BYTE   W96
//  #03 //028   ----------------------------------------
 BYTE   PAN   c_v+21
 BYTE   N56  Cs3
 BYTE   W60
 BYTE   N11  Ds3
 BYTE   W12
 BYTE   Fn3
 BYTE   W12
 BYTE   Gn3
 BYTE   W12
//  #03 //029   ----------------------------------------
 BYTE   N23  Gs3
 BYTE   W24
 BYTE   As3
 BYTE   W24
 BYTE   N11  Cs4
 BYTE   W12
 BYTE   N23  As3
 BYTE   W24
 BYTE   N11  Cs4
 BYTE   W12
//  #03 //030   ----------------------------------------
 BYTE   N92  Cn4
 BYTE   W96
//  #03 //031   ----------------------------------------
 BYTE   En4
 BYTE   W96
//  #03 //032   ----------------------------------------
 BYTE   PAN   c_v+0
 BYTE   N92  Gn2
 BYTE   W96
//  #03 //033   ----------------------------------------
Label_01005663:
 BYTE   N11  Gs2  v112
 BYTE   W12
 BYTE   N80  Gs2  v040
 BYTE   W84
 BYTE   PEND 
//  #03 //034   ----------------------------------------
 BYTE   N92  Gn2  v112
 BYTE   W96
//  #03 //035   ----------------------------------------
Label_01005670:
 BYTE   N11  Fs2  v112
 BYTE   W12
 BYTE   N80  Fs2  v040
 BYTE   W84
 BYTE   PEND 
//  #03 //036   ----------------------------------------
 BYTE   N92  Gn2  v112
 BYTE   W96
//  #03 //037   ----------------------------------------
 BYTE   PATT
  POIN2 Label_01005663
//  #03 //038   ----------------------------------------
 BYTE   N92  Gn2  v112
 BYTE   W96
//  #03 //039   ----------------------------------------
 BYTE   PATT
  POIN2 Label_01005670
//  #03 //040   ----------------------------------------
 BYTE   N92  Gn2  v112
 BYTE   W96
//  #03 //041   ----------------------------------------
 BYTE   PATT
  POIN2 Label_01005663
//  #03 //042   ----------------------------------------
 BYTE   N92  Gn2  v112
 BYTE   W96
//  #03 //043   ----------------------------------------
 BYTE   N11  Fs2
 BYTE   W12
 BYTE   TIE  Fs2  v040
 BYTE   W84
//  #03 //044   ----------------------------------------
 BYTE   W96
//  #03 //045   ----------------------------------------
 BYTE   W96
//  #03 //046   ----------------------------------------
 BYTE   W96
//  #03 //047   ----------------------------------------
 BYTE   W96
//  #03 //048   ----------------------------------------
 BYTE   W44
 BYTE   W03
 BYTE   EOT
 BYTE   W01
 BYTE   PAN   c_v-32
 BYTE   TIE  Gn2  v112
 BYTE   W48
//  #03 //049   ----------------------------------------
 BYTE   W96
//  #03 //050   ----------------------------------------
 BYTE   W92
 BYTE   W03
 BYTE   EOT
 BYTE   W01
//  #03 //051   ----------------------------------------
 BYTE   TIE  Ds2
 BYTE   W96
//  #03 //052   ----------------------------------------
 BYTE   W96
//  #03 //053   ----------------------------------------
 BYTE   W44
 BYTE   W03
 BYTE   EOT
 BYTE   W01
 BYTE   TIE  Gn2
 BYTE   W48
//  #03 //054   ----------------------------------------
 BYTE   W96
//  #03 //055   ----------------------------------------
 BYTE   W92
 BYTE   W03
 BYTE   EOT
 BYTE   W01
//  #03 //056   ----------------------------------------
 BYTE   TIE  Ds2
 BYTE   W96
//  #03 //057   ----------------------------------------
 BYTE   W96
//  #03 //058   ----------------------------------------
 BYTE   W44
 BYTE   W03
 BYTE   EOT
 BYTE   W01
 BYTE   TIE  Gn2
 BYTE   W48
//  #03 //059   ----------------------------------------
 BYTE   W96
//  #03 //060   ----------------------------------------
 BYTE   W92
 BYTE   W03
 BYTE   EOT
 BYTE   W01
//  #03 //061   ----------------------------------------
 BYTE   TIE  Ds2
 BYTE   W96
//  #03 //062   ----------------------------------------
 BYTE   W96
//  #03 //063   ----------------------------------------
 BYTE   W44
 BYTE   W03
 BYTE   EOT
 BYTE   W01
 BYTE   TIE  Gn2
 BYTE   W48
//  #03 //064   ----------------------------------------
 BYTE   W96
//  #03 //065   ----------------------------------------
 BYTE   W92
 BYTE   W03
 BYTE   EOT
 BYTE   W01
//  #03 //066   ----------------------------------------
 BYTE   TIE  Ds2
 BYTE   W96
//  #03 //067   ----------------------------------------
 BYTE   W96
//  #03 //068   ----------------------------------------
 BYTE   W44
 BYTE   W03
 BYTE   EOT
 BYTE   W01
 BYTE   TIE  Gs2
 BYTE   W48
//  #03 //069   ----------------------------------------
 BYTE   W96
//  #03 //070   ----------------------------------------
 BYTE   W23
 BYTE   EOT
 BYTE   W01
 BYTE   TIE  En2
 BYTE   W72
//  #03 //071   ----------------------------------------
 BYTE   W92
 BYTE   W03
 BYTE   EOT
 BYTE   W01
//  #03 //072   ----------------------------------------
 BYTE   TIE  Fs2
 BYTE   W96
//  #03 //073   ----------------------------------------
 BYTE   W68
 BYTE   W03
 BYTE   EOT
 BYTE   W01
 BYTE   N92  An2
 BYTE   W24
//  #03 //074   ----------------------------------------
 BYTE   W72
 BYTE   N11  Fs2
 BYTE   W12
 BYTE   En2
 BYTE   W12
//  #03 //075   ----------------------------------------
 BYTE   N23  Fs2
 BYTE   W24
 BYTE   Gn2
 BYTE   W24
 BYTE   TIE  Gs2
 BYTE   W48
//  #03 //076   ----------------------------------------
 BYTE   W96
//  #03 //077   ----------------------------------------
 BYTE   W44
 BYTE   W03
 BYTE   EOT
 BYTE   W01
 BYTE   TIE  Gs1
 BYTE   W48
//  #03 //078   ----------------------------------------
 BYTE   W96
//  #03 //079   ----------------------------------------
 BYTE   W44
 BYTE   W03
 BYTE   EOT
 BYTE   W01
 BYTE   TIE  En2
 BYTE   W48
//  #03 //080   ----------------------------------------
 BYTE   W96
//  #03 //081   ----------------------------------------
 BYTE   W44
 BYTE   W03
 BYTE   EOT
 BYTE   W01
 BYTE   TIE  Fs2
 BYTE   W48
//  #03 //082   ----------------------------------------
 BYTE   W96
//  #03 //083   ----------------------------------------
 BYTE   W44
 BYTE   W03
 BYTE   EOT
 BYTE   W01
 BYTE   TIE  Gs2
 BYTE   W48
//  #03 //084   ----------------------------------------
 BYTE   W96
//  #03 //085   ----------------------------------------
 BYTE   W96
//  #03 //086   ----------------------------------------
 BYTE   W96
//  #03 //087   ----------------------------------------
 BYTE   W44
 BYTE   W03
 BYTE   EOT
 BYTE   W01
 BYTE   PAN   c_v-8
 BYTE   VOL   38*Dialga_mvl/mxv
 BYTE   N92  Fs3
 BYTE   W48
//  #03 //088   ----------------------------------------
 BYTE   W48
 BYTE   Fn3
 BYTE   W48
//  #03 //089   ----------------------------------------
 BYTE   W48
 BYTE   Ds3
 BYTE   W48
//  #03 //090   ----------------------------------------
 BYTE   W48
 BYTE   Fn3
 BYTE   W48
//  #03 //091   ----------------------------------------
 BYTE   W48
 BYTE   Fs3
 BYTE   W48
//  #03 //092   ----------------------------------------
 BYTE   W48
 BYTE   Fn3
 BYTE   W48
//  #03 //093   ----------------------------------------
 BYTE   W48
 BYTE   Ds3
 BYTE   W48
//  #03 //094   ----------------------------------------
 BYTE   W48
 BYTE   Fn3
 BYTE   W48
//  #03 //095   ----------------------------------------
 BYTE   W48
 BYTE   PAN   c_v+0
 BYTE   VOL   45*Dialga_mvl/mxv
 BYTE   N23  Gn2
 BYTE   W24
 BYTE   Gs2
 BYTE   W24
//  #03 //096   ----------------------------------------
 BYTE   Gn2
 BYTE   W24
 BYTE   Cs3
 BYTE   W24
 BYTE   Cn3
 BYTE   W24
 BYTE   N44  An2
 BYTE   W24
//  #03 //097   ----------------------------------------
 BYTE   W24
 BYTE   N23  Gs2
 BYTE   W24
 BYTE   N80  As2
 BYTE   W48
//  #03 //098   ----------------------------------------
 BYTE   W36
 BYTE   N05  An2
 BYTE   W06
 BYTE   Gs2
 BYTE   W06
 BYTE   N92  Gn2
 BYTE   W48
//  #03 //099   ----------------------------------------
 BYTE   W48
 BYTE   N23  Gn3
 BYTE   W24
 BYTE   Gs3
 BYTE   W24
//  #03 //100   ----------------------------------------
 BYTE   Gn3
 BYTE   W24
 BYTE   Cs4
 BYTE   W24
 BYTE   Cn4
 BYTE   W24
 BYTE   N44  An3
 BYTE   W24
//  #03 //101   ----------------------------------------
 BYTE   W24
 BYTE   N23  Gs3
 BYTE   W24
 BYTE   N92  As3
 BYTE   W48
//  #03 //102   ----------------------------------------
 BYTE   W48
 BYTE   Bn3
 BYTE   W48
//  #03 //103   ----------------------------------------
 BYTE   W48
 BYTE   TIE  Cn4
 BYTE   W48
//  #03 //104   ----------------------------------------
 BYTE   W96
//  #03 //105   ----------------------------------------
 BYTE   W32
 BYTE   W03
 BYTE   EOT
 BYTE   W01
 BYTE   N11  Ds4
 BYTE   W12
 BYTE   TIE  En4
 BYTE   W48
//  #03 //106   ----------------------------------------
 BYTE   W96
//  #03 //107   ----------------------------------------
 BYTE   W23
 BYTE   EOT
 BYTE   W01
 BYTE   N23  Gn4
 BYTE   W24
 BYTE   As2
 BYTE   W24
 BYTE   Fn2
 BYTE   W24
//  #03 //108   ----------------------------------------
 BYTE   Dn3
 BYTE   W24
 BYTE   As2
 BYTE   W24
 BYTE   Fn3
 BYTE   W24
 BYTE   Dn3
 BYTE   W24
//  #03 //109   ----------------------------------------
 BYTE   As3
 BYTE   W24
 BYTE   Fn3
 BYTE   W24
 BYTE   N92  En3
 BYTE   W48
//  #03 //110   ----------------------------------------
 BYTE   W48
 BYTE   Cn3
 BYTE   W48
//  #03 //111   ----------------------------------------
 BYTE   W48
 BYTE   N23  Fn2
 BYTE   W24
 BYTE   Dn2
 BYTE   W24
//  #03 //112   ----------------------------------------
 BYTE   As2
 BYTE   W24
 BYTE   Fn2
 BYTE   W24
 BYTE   Dn3
 BYTE   W24
 BYTE   As2
 BYTE   W24
//  #03 //113   ----------------------------------------
 BYTE   Fn3
 BYTE   W24
 BYTE   Dn3
 BYTE   W24
 BYTE   N80  En3
 BYTE   W48
//  #03 //114   ----------------------------------------
 BYTE   W36
 BYTE   N11  Ds3
 BYTE   W12
 BYTE   N92  En3
 BYTE   W48
//  #03 //115   ----------------------------------------
 BYTE   GoTo
  POIN2 Label_0100559A
//  #03 //116   ----------------------------------------
 BYTE   W96
//  #03 //117   ----------------------------------------
 BYTE   PAN   c_v+0
 BYTE   VOL   45*Dialga_mvl/mxv
 BYTE   MOD 0
 BYTE   PAN   c_v+0
 BYTE   VOL   45*Dialga_mvl/mxv
 BYTE   MOD 0
 BYTE   PAN   c_v+0
 BYTE   VOL   45*Dialga_mvl/mxv
 BYTE   MOD 0
 BYTE   BEND   c_v+0
 BYTE   FINE

//**************** Track 4 (Midi-Chn.3) ****************//

Dialga_004:
//  #04 //000   ----------------------------------------
 BYTE   KEYSH   Dialga_key+0
Label_01005806:
 BYTE   VOICE   1
 BYTE   PAN   c_v+0
 BYTE   VOL   38*Dialga_mvl/mxv
 BYTE   PAN   c_v+0
 BYTE   VOL   38*Dialga_mvl/mxv
 BYTE   MOD 0
 BYTE   PAN   c_v+0
 BYTE   VOL   38*Dialga_mvl/mxv
 BYTE   MOD 0
 BYTE   PAN   c_v+0
 BYTE   VOL   38*Dialga_mvl/mxv
 BYTE   MOD 0
 BYTE   PAN   c_v+0
 BYTE   VOL   38*Dialga_mvl/mxv
 BYTE   MOD 0
 BYTE   PAN   c_v+0
 BYTE   VOL   38*Dialga_mvl/mxv
 BYTE   MOD 0
 BYTE   BEND   c_v+0
 BYTE   W03
 BYTE   N11  Cn4  v112
 BYTE   W12
 BYTE   Gn3
 BYTE   W12
 BYTE   En3
 BYTE   W12
 BYTE   Gn3
 BYTE   W12
 BYTE   Cn4
 BYTE   W12
 BYTE   Gn3
 BYTE   W12
 BYTE   En3
 BYTE   W12
 BYTE   Gn3
 BYTE   W09
//  #04 //001   ----------------------------------------
Label_0100583F:
 BYTE   W03
 BYTE   N11  En3  v112
 BYTE   W12
 BYTE   Gn3
 BYTE   W12
 BYTE   Cn4
 BYTE   W12
 BYTE   Gn3
 BYTE   W12
 BYTE   Cn4
 BYTE   W12
 BYTE   Gn3
 BYTE   W12
 BYTE   En3
 BYTE   W12
 BYTE   Gn3
 BYTE   W09
 BYTE   PEND 
//  #04 //002   ----------------------------------------
Label_01005853:
 BYTE   W03
 BYTE   N11  Cn4  v112
 BYTE   W12
 BYTE   Gn3
 BYTE   W12
 BYTE   En3
 BYTE   W12
 BYTE   Gn3
 BYTE   W12
 BYTE   Cn4
 BYTE   W12
 BYTE   Gn3
 BYTE   W12
 BYTE   En3
 BYTE   W12
 BYTE   Gn3
 BYTE   W09
 BYTE   PEND 
//  #04 //003   ----------------------------------------
 BYTE   PATT
  POIN2 Label_0100583F
//  #04 //004   ----------------------------------------
 BYTE   PATT
  POIN2 Label_01005853
//  #04 //005   ----------------------------------------
 BYTE   PATT
  POIN2 Label_0100583F
//  #04 //006   ----------------------------------------
Label_01005876:
 BYTE   W03
 BYTE   N11  Cs4  v112
 BYTE   W12
 BYTE   Gs3
 BYTE   W12
 BYTE   Fn3
 BYTE   W12
 BYTE   Gs3
 BYTE   W12
 BYTE   Fn3
 BYTE   W12
 BYTE   Gs3
 BYTE   W12
 BYTE   Cs4
 BYTE   W12
 BYTE   Gs3
 BYTE   W09
 BYTE   PEND 
//  #04 //007   ----------------------------------------
 BYTE   PATT
  POIN2 Label_01005876
//  #04 //008   ----------------------------------------
 BYTE   PATT
  POIN2 Label_01005876
//  #04 //009   ----------------------------------------
 BYTE   PATT
  POIN2 Label_01005876
//  #04 //010   ----------------------------------------
 BYTE   W03
 BYTE   N11  Gs3  v040
 BYTE   W92
 BYTE   W01
//  #04 //011   ----------------------------------------
 BYTE   W96
//  #04 //012   ----------------------------------------
 BYTE   W96
//  #04 //013   ----------------------------------------
 BYTE   W96
//  #04 //014   ----------------------------------------
 BYTE   W96
//  #04 //015   ----------------------------------------
 BYTE   W96
//  #04 //016   ----------------------------------------
 BYTE   W96
//  #04 //017   ----------------------------------------
 BYTE   W96
//  #04 //018   ----------------------------------------
 BYTE   W96
//  #04 //019   ----------------------------------------
 BYTE   W96
//  #04 //020   ----------------------------------------
 BYTE   PATT
  POIN2 Label_01005853
//  #04 //021   ----------------------------------------
 BYTE   PATT
  POIN2 Label_0100583F
//  #04 //022   ----------------------------------------
 BYTE   PATT
  POIN2 Label_01005853
//  #04 //023   ----------------------------------------
 BYTE   PATT
  POIN2 Label_0100583F
//  #04 //024   ----------------------------------------
 BYTE   W03
 BYTE   N11  Gn3  v040
 BYTE   W92
 BYTE   W01
//  #04 //025   ----------------------------------------
 BYTE   W96
//  #04 //026   ----------------------------------------
 BYTE   W96
//  #04 //027   ----------------------------------------
 BYTE   W96
//  #04 //028   ----------------------------------------
 BYTE   W96
//  #04 //029   ----------------------------------------
 BYTE   W96
//  #04 //030   ----------------------------------------
 BYTE   VOL   45*Dialga_mvl/mxv
 BYTE   W12
 BYTE   PAN   c_v-32
 BYTE   N32  Cn5  v112
 BYTE   W36
 BYTE   PAN   c_v+32
 BYTE   N44  En5
 BYTE   W48
//  #04 //031   ----------------------------------------
 BYTE   N32  Cn5
 BYTE   W36
 BYTE   PAN   c_v-32
 BYTE   N56  En5
 BYTE   W60
//  #04 //032   ----------------------------------------
 BYTE   N11  En5  v040
 BYTE   W12
 BYTE   PAN   c_v+32
 BYTE   N32  Cn5  v112
 BYTE   W36
 BYTE   PAN   c_v-32
 BYTE   N44  En5
 BYTE   W48
//  #04 //033   ----------------------------------------
 BYTE   N32  Cs5
 BYTE   W36
 BYTE   PAN   c_v+29
 BYTE   N56  Fn5
 BYTE   W60
//  #04 //034   ----------------------------------------
 BYTE   N11  Fn5  v040
 BYTE   W12
 BYTE   PAN   c_v-32
 BYTE   N32  Cn5  v112
 BYTE   W36
 BYTE   PAN   c_v+32
 BYTE   N44  En5
 BYTE   W48
//  #04 //035   ----------------------------------------
 BYTE   N32  Bn4
 BYTE   W36
 BYTE   PAN   c_v-32
 BYTE   N56  Ds5
 BYTE   W60
//  #04 //036   ----------------------------------------
 BYTE   N23  Cn4
 BYTE   W24
 BYTE   Cs4
 BYTE   W24
 BYTE   N44  Fs4
 BYTE   W48
//  #04 //037   ----------------------------------------
 BYTE   N23  Fn4
 BYTE   W24
 BYTE   Dn4
 BYTE   W24
 BYTE   N23
 BYTE   W24
 BYTE   Fn4
 BYTE   W24
//  #04 //038   ----------------------------------------
 BYTE   N92  Cs4
 BYTE   W96
//  #04 //039   ----------------------------------------
 BYTE   Cn4
 BYTE   W96
//  #04 //040   ----------------------------------------
 BYTE   W48
 BYTE   N44  Cs3
 BYTE   W48
//  #04 //041   ----------------------------------------
 BYTE   N23  Cn3
 BYTE   W24
 BYTE   An2
 BYTE   W24
 BYTE   N23
 BYTE   W24
 BYTE   Cn3
 BYTE   W24
//  #04 //042   ----------------------------------------
 BYTE   N44  Cs3
 BYTE   W48
 BYTE   N11  Cs2
 BYTE   W12
 BYTE   Fn2
 BYTE   W12
 BYTE   Gs2
 BYTE   W12
 BYTE   Cs3
 BYTE   W12
//  #04 //043   ----------------------------------------
 BYTE   N44  Dn3
 BYTE   W48
 BYTE   N11  Cn2
 BYTE   W12
 BYTE   Gn2
 BYTE   W12
 BYTE   Bn2
 BYTE   W12
 BYTE   Dn3
 BYTE   W12
//  #04 //044   ----------------------------------------
 BYTE   N92  En3
 BYTE   W96
//  #04 //045   ----------------------------------------
 BYTE   N92
 BYTE   W96
//  #04 //046   ----------------------------------------
 BYTE   N92
 BYTE   W96
//  #04 //047   ----------------------------------------
 BYTE   N44
 BYTE   W96
//  #04 //048   ----------------------------------------
 BYTE   W96
//  #04 //049   ----------------------------------------
 BYTE   W96
//  #04 //050   ----------------------------------------
 BYTE   W96
//  #04 //051   ----------------------------------------
 BYTE   W96
//  #04 //052   ----------------------------------------
 BYTE   W96
//  #04 //053   ----------------------------------------
 BYTE   W96
//  #04 //054   ----------------------------------------
 BYTE   W96
//  #04 //055   ----------------------------------------
 BYTE   W96
//  #04 //056   ----------------------------------------
 BYTE   W96
//  #04 //057   ----------------------------------------
 BYTE   W96
//  #04 //058   ----------------------------------------
 BYTE   W48
 BYTE   PAN   c_v+0
 BYTE   N11  Cn4
 BYTE   W12
 BYTE   Cs4
 BYTE   W12
 BYTE   As3
 BYTE   W12
 BYTE   Cs4
 BYTE   W12
//  #04 //059   ----------------------------------------
 BYTE   N23  Cn4
 BYTE   W24
 BYTE   N11
 BYTE   W12
 BYTE   Cs4
 BYTE   W12
 BYTE   As3
 BYTE   W12
 BYTE   Cs4
 BYTE   W12
 BYTE   N23  Cn4
 BYTE   W24
//  #04 //060   ----------------------------------------
Label_01005973:
 BYTE   N11  Cn4  v112
 BYTE   W12
 BYTE   Cs4
 BYTE   W12
 BYTE   Ds4
 BYTE   W12
 BYTE   Fn4
 BYTE   W12
 BYTE   Ds4
 BYTE   W12
 BYTE   Cs4
 BYTE   W12
 BYTE   Cn4
 BYTE   W12
 BYTE   As3
 BYTE   W12
 BYTE   PEND 
//  #04 //061   ----------------------------------------
 BYTE   Gs3
 BYTE   W12
 BYTE   An3
 BYTE   W12
 BYTE   Fs3
 BYTE   W12
 BYTE   An3
 BYTE   W12
 BYTE   N23  Gs3
 BYTE   W24
 BYTE   N11
 BYTE   W12
 BYTE   An3
 BYTE   W12
//  #04 //062   ----------------------------------------
 BYTE   Fs3
 BYTE   W12
 BYTE   An3
 BYTE   W12
 BYTE   N23  Gs3
 BYTE   W24
 BYTE   N11
 BYTE   W12
 BYTE   An3
 BYTE   W12
 BYTE   Bn3
 BYTE   W12
 BYTE   Cs4
 BYTE   W12
//  #04 //063   ----------------------------------------
 BYTE   Bn3
 BYTE   W12
 BYTE   An3
 BYTE   W12
 BYTE   N11
 BYTE   W12
 BYTE   Bn3
 BYTE   W12
 BYTE   Cn4
 BYTE   W12
 BYTE   Cs4
 BYTE   W12
 BYTE   As3
 BYTE   W12
 BYTE   Cs4
 BYTE   W12
//  #04 //064   ----------------------------------------
 BYTE   N23  Cn4
 BYTE   W24
 BYTE   N11  Cn5
 BYTE   W12
 BYTE   Cs5
 BYTE   W12
 BYTE   As4
 BYTE   W12
 BYTE   Cs5
 BYTE   W12
 BYTE   N23  Cn5
 BYTE   W24
//  #04 //065   ----------------------------------------
 BYTE   PATT
  POIN2 Label_01005973
//  #04 //066   ----------------------------------------
 BYTE   N11  Gs3  v112
 BYTE   W12
 BYTE   An3
 BYTE   W12
 BYTE   Fs3
 BYTE   W12
 BYTE   An3
 BYTE   W12
 BYTE   N23  Gs3
 BYTE   W24
 BYTE   N11  Gs4
 BYTE   W12
 BYTE   An4
 BYTE   W12
//  #04 //067   ----------------------------------------
 BYTE   Fs4
 BYTE   W12
 BYTE   An4
 BYTE   W12
 BYTE   N23  Gs4
 BYTE   W24
 BYTE   N11  Gs3
 BYTE   W12
 BYTE   An3
 BYTE   W12
 BYTE   Bn3
 BYTE   W12
 BYTE   Cs4
 BYTE   W12
//  #04 //068   ----------------------------------------
 BYTE   Bn3
 BYTE   W12
 BYTE   An3
 BYTE   W12
 BYTE   N11
 BYTE   W12
 BYTE   Bn3
 BYTE   W60
//  #04 //069   ----------------------------------------
 BYTE   W96
//  #04 //070   ----------------------------------------
 BYTE   W96
//  #04 //071   ----------------------------------------
 BYTE   W96
//  #04 //072   ----------------------------------------
 BYTE   W96
//  #04 //073   ----------------------------------------
 BYTE   W96
//  #04 //074   ----------------------------------------
 BYTE   W96
//  #04 //075   ----------------------------------------
 BYTE   W96
//  #04 //076   ----------------------------------------
 BYTE   W96
//  #04 //077   ----------------------------------------
 BYTE   W96
//  #04 //078   ----------------------------------------
 BYTE   W96
//  #04 //079   ----------------------------------------
 BYTE   W96
//  #04 //080   ----------------------------------------
 BYTE   W96
//  #04 //081   ----------------------------------------
 BYTE   W48
 BYTE   Bn4
 BYTE   W12
 BYTE   Fs4
 BYTE   W12
 BYTE   Ds4
 BYTE   W12
 BYTE   Fs4
 BYTE   W12
//  #04 //082   ----------------------------------------
 BYTE   Ds4
 BYTE   W12
 BYTE   Fs4
 BYTE   W12
 BYTE   Bn4
 BYTE   W12
 BYTE   Fs4
 BYTE   W12
 BYTE   Bn4
 BYTE   W12
 BYTE   Fs4
 BYTE   W12
 BYTE   Ds4
 BYTE   W12
 BYTE   Fs4
 BYTE   W12
//  #04 //083   ----------------------------------------
 BYTE   Ds4
 BYTE   W12
 BYTE   Fs4
 BYTE   W12
 BYTE   Bn4
 BYTE   W12
 BYTE   Fs4
 BYTE   W12
 BYTE   Cs5
 BYTE   W12
 BYTE   Gs4
 BYTE   W12
 BYTE   Fn4
 BYTE   W12
 BYTE   Gs4
 BYTE   W12
//  #04 //084   ----------------------------------------
Label_01005A27:
 BYTE   N11  Fn4  v112
 BYTE   W12
 BYTE   Gs4
 BYTE   W12
 BYTE   Cs5
 BYTE   W12
 BYTE   Gs4
 BYTE   W12
 BYTE   Cs5
 BYTE   W12
 BYTE   Gs4
 BYTE   W12
 BYTE   Fn4
 BYTE   W12
 BYTE   Gs4
 BYTE   W12
 BYTE   PEND 
//  #04 //085   ----------------------------------------
 BYTE   PATT
  POIN2 Label_01005A27
//  #04 //086   ----------------------------------------
 BYTE   PATT
  POIN2 Label_01005A27
//  #04 //087   ----------------------------------------
 BYTE   N11  Fn4  v112
 BYTE   W12
 BYTE   Gs4
 BYTE   W12
 BYTE   Cs5
 BYTE   W12
 BYTE   Gs4
 BYTE   W24
 BYTE   N32  Cs5
 BYTE   W36
//  #04 //088   ----------------------------------------
Label_01005A51:
 BYTE   N44  Fs5  v112
 BYTE   W48
 BYTE   N32  Cs5
 BYTE   W36
 BYTE   N56  Fn5
 BYTE   W12
 BYTE   PEND 
//  #04 //089   ----------------------------------------
 BYTE   W60
 BYTE   N32  Cs5
 BYTE   W36
//  #04 //090   ----------------------------------------
Label_01005A60:
 BYTE   N44  Ds5  v112
 BYTE   W48
 BYTE   N32  Cs5
 BYTE   W36
 BYTE   N56  Fn5
 BYTE   W12
 BYTE   PEND 
//  #04 //091   ----------------------------------------
 BYTE   W60
 BYTE   N32  Cs5
 BYTE   W36
//  #04 //092   ----------------------------------------
 BYTE   PATT
  POIN2 Label_01005A51
//  #04 //093   ----------------------------------------
 BYTE   W60
 BYTE   N32  Cs5  v112
 BYTE   W36
//  #04 //094   ----------------------------------------
 BYTE   PATT
  POIN2 Label_01005A60
//  #04 //095   ----------------------------------------
 BYTE   W96
//  #04 //096   ----------------------------------------
 BYTE   W96
//  #04 //097   ----------------------------------------
 BYTE   W96
//  #04 //098   ----------------------------------------
 BYTE   W96
//  #04 //099   ----------------------------------------
 BYTE   W96
//  #04 //100   ----------------------------------------
 BYTE   W96
//  #04 //101   ----------------------------------------
 BYTE   W96
//  #04 //102   ----------------------------------------
 BYTE   W96
//  #04 //103   ----------------------------------------
 BYTE   W96
//  #04 //104   ----------------------------------------
 BYTE   W96
//  #04 //105   ----------------------------------------
 BYTE   W96
//  #04 //106   ----------------------------------------
 BYTE   W96
//  #04 //107   ----------------------------------------
 BYTE   W96
//  #04 //108   ----------------------------------------
 BYTE   W96
//  #04 //109   ----------------------------------------
 BYTE   W96
//  #04 //110   ----------------------------------------
 BYTE   W96
//  #04 //111   ----------------------------------------
 BYTE   W96
//  #04 //112   ----------------------------------------
 BYTE   W96
//  #04 //113   ----------------------------------------
 BYTE   W96
//  #04 //114   ----------------------------------------
 BYTE   W96
//  #04 //115   ----------------------------------------
 BYTE   GoTo
  POIN2 Label_01005806
//  #04 //116   ----------------------------------------
 BYTE   W96
//  #04 //117   ----------------------------------------
 BYTE   PAN   c_v+0
 BYTE   VOL   45*Dialga_mvl/mxv
 BYTE   MOD 0
 BYTE   PAN   c_v+0
 BYTE   VOL   45*Dialga_mvl/mxv
 BYTE   MOD 0
 BYTE   PAN   c_v+0
 BYTE   VOL   45*Dialga_mvl/mxv
 BYTE   MOD 0
 BYTE   BEND   c_v+0
 BYTE   FINE

//**************** Track 5 (Midi-Chn.4) ****************//

Dialga_005:
//  #05 //000   ----------------------------------------
 BYTE   KEYSH   Dialga_key+0
Label_01005AC2:
 BYTE   VOICE   40
 BYTE   VOL   29*Dialga_mvl/mxv
 BYTE   PAN   c_v+35
 BYTE   PAN   c_v+35
 BYTE   MOD 0
 BYTE   PAN   c_v+35
 BYTE   MOD 0
 BYTE   PAN   c_v+35
 BYTE   MOD 0
 BYTE   PAN   c_v+35
 BYTE   MOD 0
 BYTE   PAN   c_v+35
 BYTE   MOD 0
 BYTE   BEND   c_v+0
 BYTE   TIE  En2  v112
 BYTE   W96
//  #05 //001   ----------------------------------------
 BYTE   W96
//  #05 //002   ----------------------------------------
 BYTE   W96
//  #05 //003   ----------------------------------------
 BYTE   W96
//  #05 //004   ----------------------------------------
 BYTE   W96
//  #05 //005   ----------------------------------------
 BYTE   W92
 BYTE   W03
 BYTE   EOT
 BYTE   W01
//  #05 //006   ----------------------------------------
 BYTE   TIE  Fn2
 BYTE   W96
//  #05 //007   ----------------------------------------
 BYTE   W96
//  #05 //008   ----------------------------------------
 BYTE   W96
//  #05 //009   ----------------------------------------
 BYTE   W92
 BYTE   W03
 BYTE   EOT
 BYTE   W01
//  #05 //010   ----------------------------------------
 BYTE   N92  Cs3
 BYTE   W96
//  #05 //011   ----------------------------------------
 BYTE   Fn2
 BYTE   W96
//  #05 //012   ----------------------------------------
 BYTE   W96
//  #05 //013   ----------------------------------------
 BYTE   W96
//  #05 //014   ----------------------------------------
 BYTE   W96
//  #05 //015   ----------------------------------------
 BYTE   W96
//  #05 //016   ----------------------------------------
 BYTE   N23  An2
 BYTE   W24
 BYTE   As2
 BYTE   W24
 BYTE   An2
 BYTE   W24
 BYTE   En3
 BYTE   W24
//  #05 //017   ----------------------------------------
 BYTE   Ds3
 BYTE   W24
 BYTE   N44  Bn2
 BYTE   W48
 BYTE   N23  Gs2
 BYTE   W24
//  #05 //018   ----------------------------------------
 BYTE   N92  Cn3
 BYTE   W96
//  #05 //019   ----------------------------------------
 BYTE   Cs3
 BYTE   W96
//  #05 //020   ----------------------------------------
 BYTE   TIE  Cn3
 BYTE   W96
//  #05 //021   ----------------------------------------
 BYTE   W92
 BYTE   W03
 BYTE   EOT
 BYTE   W01
//  #05 //022   ----------------------------------------
 BYTE   W96
//  #05 //023   ----------------------------------------
 BYTE   W96
//  #05 //024   ----------------------------------------
 BYTE   W96
//  #05 //025   ----------------------------------------
 BYTE   W96
//  #05 //026   ----------------------------------------
 BYTE   W96
//  #05 //027   ----------------------------------------
 BYTE   W96
//  #05 //028   ----------------------------------------
 BYTE   W96
//  #05 //029   ----------------------------------------
 BYTE   W96
//  #05 //030   ----------------------------------------
 BYTE   N92  En3
 BYTE   W96
//  #05 //031   ----------------------------------------
 BYTE   Cn4
 BYTE   W96
//  #05 //032   ----------------------------------------
 BYTE   En2
 BYTE   W96
//  #05 //033   ----------------------------------------
 BYTE   N11  Fn2
 BYTE   W12
 BYTE   Fn2  v040
 BYTE   W84
//  #05 //034   ----------------------------------------
 BYTE   N92  En2  v112
 BYTE   W96
//  #05 //035   ----------------------------------------
 BYTE   N11  Ds2
 BYTE   W12
 BYTE   Ds2  v040
 BYTE   W84
//  #05 //036   ----------------------------------------
 BYTE   PAN   c_v+36
 BYTE   W12
 BYTE   N23  Gn3  v112
 BYTE   W24
 BYTE   Gs3
 BYTE   W24
 BYTE   N32  Cs4
 BYTE   W36
//  #05 //037   ----------------------------------------
 BYTE   N23  Cn4
 BYTE   W24
 BYTE   An3
 BYTE   W24
 BYTE   N23
 BYTE   W24
 BYTE   Cn4
 BYTE   W24
//  #05 //038   ----------------------------------------
 BYTE   N11  Cn4  v040
 BYTE   W12
 BYTE   N80  Gs3  v112
 BYTE   W84
//  #05 //039   ----------------------------------------
 BYTE   N11  Gs3  v040
 BYTE   W12
 BYTE   N80  Gn3  v112
 BYTE   W84
//  #05 //040   ----------------------------------------
 BYTE   PAN   c_v+0
 BYTE   N23  Cn3
 BYTE   W24
 BYTE   Cs3
 BYTE   W24
 BYTE   N44  Fs3
 BYTE   W48
//  #05 //041   ----------------------------------------
 BYTE   N23  Fn3
 BYTE   W24
 BYTE   Dn3
 BYTE   W24
 BYTE   N23
 BYTE   W24
 BYTE   Fn3
 BYTE   W24
//  #05 //042   ----------------------------------------
 BYTE   N92  Fs3
 BYTE   W96
//  #05 //043   ----------------------------------------
 BYTE   N44  Gn3
 BYTE   W48
 BYTE   N11  Gn3  v040
 BYTE   W42
 BYTE   N92  Cn3  v112
 BYTE   W06
//  #05 //044   ----------------------------------------
 BYTE   PAN   c_v+31
 BYTE   W90
 BYTE   N92
 BYTE   W06
//  #05 //045   ----------------------------------------
 BYTE   W90
 BYTE   N92
 BYTE   W06
//  #05 //046   ----------------------------------------
 BYTE   W90
 BYTE   N52
 BYTE   W06
//  #05 //047   ----------------------------------------
 BYTE   W96
//  #05 //048   ----------------------------------------
 BYTE   W48
 BYTE   PAN   c_v+32
 BYTE   N92  En2
 BYTE   W48
//  #05 //049   ----------------------------------------
 BYTE   W48
 BYTE   N92
 BYTE   W48
//  #05 //050   ----------------------------------------
 BYTE   W48
 BYTE   N44
 BYTE   W48
//  #05 //051   ----------------------------------------
 BYTE   N92  Cn2
 BYTE   W96
//  #05 //052   ----------------------------------------
 BYTE   N92
 BYTE   W96
//  #05 //053   ----------------------------------------
Label_01005B9A:
 BYTE   N44  Cn2  v112
 BYTE   W48
 BYTE   N92  En2
 BYTE   W48
 BYTE   PEND 
//  #05 //054   ----------------------------------------
 BYTE   W48
 BYTE   N92
 BYTE   W48
//  #05 //055   ----------------------------------------
 BYTE   W48
 BYTE   N44
 BYTE   W48
//  #05 //056   ----------------------------------------
 BYTE   N92  Cn2
 BYTE   W96
//  #05 //057   ----------------------------------------
 BYTE   N92
 BYTE   W96
//  #05 //058   ----------------------------------------
 BYTE   PATT
  POIN2 Label_01005B9A
//  #05 //059   ----------------------------------------
 BYTE   W48
 BYTE   N92  En2  v112
 BYTE   W48
//  #05 //060   ----------------------------------------
 BYTE   W48
 BYTE   N44
 BYTE   W48
//  #05 //061   ----------------------------------------
 BYTE   N92  Cn2
 BYTE   W96
//  #05 //062   ----------------------------------------
 BYTE   N92
 BYTE   W96
//  #05 //063   ----------------------------------------
 BYTE   PATT
  POIN2 Label_01005B9A
//  #05 //064   ----------------------------------------
 BYTE   W48
 BYTE   N92  En2  v112
 BYTE   W48
//  #05 //065   ----------------------------------------
 BYTE   W48
 BYTE   N44
 BYTE   W48
//  #05 //066   ----------------------------------------
 BYTE   N92  Cn2
 BYTE   W96
//  #05 //067   ----------------------------------------
 BYTE   N92
 BYTE   W96
//  #05 //068   ----------------------------------------
 BYTE   N44
 BYTE   W96
//  #05 //069   ----------------------------------------
 BYTE   W96
//  #05 //070   ----------------------------------------
 BYTE   W96
//  #05 //071   ----------------------------------------
 BYTE   W96
//  #05 //072   ----------------------------------------
 BYTE   W96
//  #05 //073   ----------------------------------------
 BYTE   W96
//  #05 //074   ----------------------------------------
 BYTE   W96
//  #05 //075   ----------------------------------------
 BYTE   W96
//  #05 //076   ----------------------------------------
 BYTE   W96
//  #05 //077   ----------------------------------------
 BYTE   W96
//  #05 //078   ----------------------------------------
 BYTE   W96
//  #05 //079   ----------------------------------------
 BYTE   W48
 BYTE   N92  Cs2
 BYTE   W48
//  #05 //080   ----------------------------------------
 BYTE   W48
 BYTE   N92
 BYTE   W48
//  #05 //081   ----------------------------------------
 BYTE   W48
 BYTE   Ds2
 BYTE   W48
//  #05 //082   ----------------------------------------
 BYTE   W48
 BYTE   N92
 BYTE   W48
//  #05 //083   ----------------------------------------
 BYTE   W48
 BYTE   Fn2
 BYTE   W48
//  #05 //084   ----------------------------------------
 BYTE   W48
 BYTE   N92
 BYTE   W48
//  #05 //085   ----------------------------------------
 BYTE   W48
 BYTE   N92
 BYTE   W48
//  #05 //086   ----------------------------------------
 BYTE   W48
 BYTE   N92
 BYTE   W48
//  #05 //087   ----------------------------------------
 BYTE   W48
 BYTE   PAN   c_v+31
 BYTE   N44  As3
 BYTE   W48
//  #05 //088   ----------------------------------------
Label_01005BFC:
 BYTE   N44  As3  v112
 BYTE   W48
 BYTE   N92  Gs3
 BYTE   W48
 BYTE   PEND 
//  #05 //089   ----------------------------------------
 BYTE   W48
 BYTE   N44
 BYTE   W48
//  #05 //090   ----------------------------------------
Label_01005C07:
 BYTE   N44  Gs3  v112
 BYTE   W48
 BYTE   N92
 BYTE   W48
 BYTE   PEND 
//  #05 //091   ----------------------------------------
 BYTE   W48
 BYTE   N44  As3
 BYTE   W48
//  #05 //092   ----------------------------------------
 BYTE   PATT
  POIN2 Label_01005BFC
//  #05 //093   ----------------------------------------
 BYTE   W48
 BYTE   N44  Gs3  v112
 BYTE   W48
//  #05 //094   ----------------------------------------
 BYTE   PATT
  POIN2 Label_01005C07
//  #05 //095   ----------------------------------------
 BYTE   W96
//  #05 //096   ----------------------------------------
 BYTE   W96
//  #05 //097   ----------------------------------------
 BYTE   W96
//  #05 //098   ----------------------------------------
 BYTE   W96
//  #05 //099   ----------------------------------------
 BYTE   W48
 BYTE   N23  An2  v112
 BYTE   W24
 BYTE   As2
 BYTE   W24
//  #05 //100   ----------------------------------------
 BYTE   An2
 BYTE   W24
 BYTE   En3
 BYTE   W24
 BYTE   Ds3
 BYTE   W24
 BYTE   N44  Bn2
 BYTE   W24
//  #05 //101   ----------------------------------------
 BYTE   W24
 BYTE   N23  Gs2
 BYTE   W24
 BYTE   N92  Cn3
 BYTE   W48
//  #05 //102   ----------------------------------------
 BYTE   W48
 BYTE   Cs3
 BYTE   W48
//  #05 //103   ----------------------------------------
 BYTE   W48
 BYTE   TIE  Cn3
 BYTE   W48
//  #05 //104   ----------------------------------------
 BYTE   W96
//  #05 //105   ----------------------------------------
 BYTE   W32
 BYTE   W03
 BYTE   EOT
 BYTE   W01
 BYTE   N11  Ds3
 BYTE   W12
 BYTE   TIE  En3
 BYTE   W48
//  #05 //106   ----------------------------------------
 BYTE   W96
//  #05 //107   ----------------------------------------
 BYTE   W23
 BYTE   EOT
 BYTE   W01
 BYTE   N23  Cn4
 BYTE   W24
 BYTE   N44  As1
 BYTE   W48
//  #05 //108   ----------------------------------------
Label_01005C58:
 BYTE   N44  Dn2  v112
 BYTE   W48
 BYTE   Fn2
 BYTE   W48
 BYTE   PEND 
//  #05 //109   ----------------------------------------
 BYTE   As2
 BYTE   W48
 BYTE   N92  En2
 BYTE   W48
//  #05 //110   ----------------------------------------
 BYTE   W48
 BYTE   Cn2
 BYTE   W48
//  #05 //111   ----------------------------------------
 BYTE   W48
 BYTE   N44  As1
 BYTE   W48
//  #05 //112   ----------------------------------------
 BYTE   PATT
  POIN2 Label_01005C58
//  #05 //113   ----------------------------------------
 BYTE   N44  As2  v112
 BYTE   W48
 BYTE   N80  Gn2
 BYTE   W48
//  #05 //114   ----------------------------------------
 BYTE   W36
 BYTE   N11  Bn2
 BYTE   W12
 BYTE   N92  Cn3
 BYTE   W48
//  #05 //115   ----------------------------------------
 BYTE   GoTo
  POIN2 Label_01005AC2
//  #05 //116   ----------------------------------------
 BYTE   W96
//  #05 //117   ----------------------------------------
 BYTE   PAN   c_v+31
 BYTE   MOD 0
 BYTE   PAN   c_v+31
 BYTE   MOD 0
 BYTE   PAN   c_v+31
 BYTE   MOD 0
 BYTE   BEND   c_v+0
 BYTE   FINE

//**************** Track 6 (Midi-Chn.5) ****************//

Dialga_006:
//  #06 //000   ----------------------------------------
 BYTE   KEYSH   Dialga_key+0
Label_01006FB2:
 BYTE   VOICE   1
 BYTE   PAN   c_v+40
 BYTE   VOL   39*Dialga_mvl/mxv
 BYTE   PAN   c_v+40
 BYTE   VOL   39*Dialga_mvl/mxv
 BYTE   MOD 0
 BYTE   PAN   c_v+40
 BYTE   VOL   39*Dialga_mvl/mxv
 BYTE   MOD 0
 BYTE   PAN   c_v-40
 BYTE   VOL   39*Dialga_mvl/mxv
 BYTE   MOD 0
 BYTE   PAN   c_v-40
 BYTE   VOL   39*Dialga_mvl/mxv
 BYTE   MOD 0
 BYTE   PAN   c_v-40
 BYTE   VOL   39*Dialga_mvl/mxv
 BYTE   MOD 0
 BYTE   BEND   c_v+0
 BYTE   N11  Cn5  v112
 BYTE   W12
 BYTE   Gn4
 BYTE   W12
 BYTE   PAN   c_v+40
 BYTE   N11  En4
 BYTE   W12
 BYTE   Gn4
 BYTE   W12
 BYTE   PAN   c_v-42
 BYTE   N11  Cn5
 BYTE   W12
 BYTE   Gn4
 BYTE   W12
 BYTE   PAN   c_v+40
 BYTE   N11  En4
 BYTE   W12
 BYTE   Gn4
 BYTE   W12
//  #06 //001   ----------------------------------------
Label_01006FF3:
 BYTE   PAN   c_v-40
 BYTE   N11  En4  v112
 BYTE   W12
 BYTE   Gn4
 BYTE   W12
 BYTE   PAN   c_v+40
 BYTE   N11  Cn5
 BYTE   W12
 BYTE   Gn4
 BYTE   W12
 BYTE   PAN   c_v-42
 BYTE   N11  Cn5
 BYTE   W12
 BYTE   Gn4
 BYTE   W12
 BYTE   PAN   c_v+40
 BYTE   N11  En4
 BYTE   W12
 BYTE   Gn4
 BYTE   W12
 BYTE   PEND 
//  #06 //002   ----------------------------------------
Label_01007011:
 BYTE   PAN   c_v-40
 BYTE   N11  Cn5  v112
 BYTE   W12
 BYTE   Gn4
 BYTE   W12
 BYTE   PAN   c_v+40
 BYTE   N11  En4
 BYTE   W12
 BYTE   Gn4
 BYTE   W12
 BYTE   PAN   c_v-42
 BYTE   N11  Cn5
 BYTE   W12
 BYTE   Gn4
 BYTE   W12
 BYTE   PAN   c_v+40
 BYTE   N11  En4
 BYTE   W12
 BYTE   Gn4
 BYTE   W12
 BYTE   PEND 
//  #06 //003   ----------------------------------------
 BYTE   PATT
  POIN2 Label_01006FF3
//  #06 //004   ----------------------------------------
 BYTE   PATT
  POIN2 Label_01007011
//  #06 //005   ----------------------------------------
 BYTE   PATT
  POIN2 Label_01006FF3
//  #06 //006   ----------------------------------------
Label_0100703E:
 BYTE   PAN   c_v-40
 BYTE   N11  Cs5  v112
 BYTE   W12
 BYTE   Gs4
 BYTE   W12
 BYTE   PAN   c_v+40
 BYTE   N11  Fn4
 BYTE   W12
 BYTE   Gs4
 BYTE   W12
 BYTE   PAN   c_v-42
 BYTE   N11  Fn4
 BYTE   W12
 BYTE   Gs4
 BYTE   W12
 BYTE   PAN   c_v+40
 BYTE   N11  Cs5
 BYTE   W12
 BYTE   Gs4
 BYTE   W12
 BYTE   PEND 
//  #06 //007   ----------------------------------------
 BYTE   PATT
  POIN2 Label_0100703E
//  #06 //008   ----------------------------------------
 BYTE   PATT
  POIN2 Label_0100703E
//  #06 //009   ----------------------------------------
 BYTE   PATT
  POIN2 Label_0100703E
//  #06 //010   ----------------------------------------
 BYTE   PAN   c_v-40
 BYTE   N11  Gs4  v040
 BYTE   W24
 BYTE   PAN   c_v+40
 BYTE   W24
 BYTE   PAN   c_v-42
 BYTE   W24
 BYTE   PAN   c_v+40
 BYTE   W24
//  #06 //011   ----------------------------------------
 BYTE   PAN   c_v-40
 BYTE   W24
 BYTE   PAN   c_v+40
 BYTE   W24
 BYTE   PAN   c_v-42
 BYTE   W24
 BYTE   PAN   c_v+40
 BYTE   W24
//  #06 //012   ----------------------------------------
 BYTE   W96
//  #06 //013   ----------------------------------------
 BYTE   W96
//  #06 //014   ----------------------------------------
 BYTE   PAN   c_v-44
 BYTE   VOL   45*Dialga_mvl/mxv
 BYTE   N23  Gn3  v112
 BYTE   W24
 BYTE   Gs3
 BYTE   W24
 BYTE   Gn3
 BYTE   W24
 BYTE   Cs4
 BYTE   W24
//  #06 //015   ----------------------------------------
 BYTE   PAN   c_v+38
 BYTE   N23  Cn4
 BYTE   W24
 BYTE   N44  An3
 BYTE   W48
 BYTE   N23  Gs3
 BYTE   W24
//  #06 //016   ----------------------------------------
 BYTE   N11  Gs3  v040
 BYTE   W96
//  #06 //017   ----------------------------------------
 BYTE   W96
//  #06 //018   ----------------------------------------
 BYTE   N23  Cn4  v112
 BYTE   W24
 BYTE   Cs4
 BYTE   W24
 BYTE   Cn4
 BYTE   W24
 BYTE   Fs4
 BYTE   W24
//  #06 //019   ----------------------------------------
 BYTE   PAN   c_v-40
 BYTE   N23  Fn4
 BYTE   W24
 BYTE   N44  En4
 BYTE   W48
 BYTE   N23  Ds4
 BYTE   W24
//  #06 //020   ----------------------------------------
 BYTE   N11  Cn5
 BYTE   W12
 BYTE   Gn4
 BYTE   W12
 BYTE   PAN   c_v+40
 BYTE   N11  En4
 BYTE   W12
 BYTE   Gn4
 BYTE   W12
 BYTE   PAN   c_v-42
 BYTE   N11  Cn5
 BYTE   W12
 BYTE   Gn4
 BYTE   W12
 BYTE   PAN   c_v+40
 BYTE   N11  En4
 BYTE   W12
 BYTE   Gn4
 BYTE   W12
//  #06 //021   ----------------------------------------
 BYTE   PATT
  POIN2 Label_01006FF3
//  #06 //022   ----------------------------------------
 BYTE   PATT
  POIN2 Label_01007011
//  #06 //023   ----------------------------------------
 BYTE   PATT
  POIN2 Label_01006FF3
//  #06 //024   ----------------------------------------
 BYTE   PAN   c_v-40
 BYTE   N11  Gn4  v040
 BYTE   W96
//  #06 //025   ----------------------------------------
 BYTE   W96
//  #06 //026   ----------------------------------------
 BYTE   W96
//  #06 //027   ----------------------------------------
 BYTE   W96
//  #06 //028   ----------------------------------------
 BYTE   W96
//  #06 //029   ----------------------------------------
 BYTE   W96
//  #06 //030   ----------------------------------------
 BYTE   W96
//  #06 //031   ----------------------------------------
 BYTE   W96
//  #06 //032   ----------------------------------------
 BYTE   W96
//  #06 //033   ----------------------------------------
 BYTE   W96
//  #06 //034   ----------------------------------------
 BYTE   W96
//  #06 //035   ----------------------------------------
 BYTE   W96
//  #06 //036   ----------------------------------------
 BYTE   W96
//  #06 //037   ----------------------------------------
 BYTE   W96
//  #06 //038   ----------------------------------------
 BYTE   W96
//  #06 //039   ----------------------------------------
 BYTE   W96
//  #06 //040   ----------------------------------------
 BYTE   W96
//  #06 //041   ----------------------------------------
 BYTE   W96
//  #06 //042   ----------------------------------------
 BYTE   W96
//  #06 //043   ----------------------------------------
 BYTE   W96
//  #06 //044   ----------------------------------------
 BYTE   PAN   c_v+4
 BYTE   VOL   43*Dialga_mvl/mxv
 BYTE   N05  Cn6  v112
 BYTE   W06
 BYTE   Cn6  v040
 BYTE   W06
 BYTE   Gn5  v112
 BYTE   W06
 BYTE   Gn5  v040
 BYTE   W06
 BYTE   En5  v112
 BYTE   W06
 BYTE   En5  v040
 BYTE   W06
 BYTE   Gn5  v112
 BYTE   W06
 BYTE   Gn5  v040
 BYTE   W06
 BYTE   N44  Cn6  v112
 BYTE   W48
//  #06 //045   ----------------------------------------
 BYTE   VOL   39*Dialga_mvl/mxv
 BYTE   N05
 BYTE   W06
 BYTE   Cn6  v040
 BYTE   W06
 BYTE   Gn5  v112
 BYTE   W06
 BYTE   Gn5  v040
 BYTE   W06
 BYTE   En5  v112
 BYTE   W06
 BYTE   En5  v040
 BYTE   W06
 BYTE   Gn5  v112
 BYTE   W06
 BYTE   Gn5  v040
 BYTE   W06
 BYTE   N44  Cn6  v112
 BYTE   W48
//  #06 //046   ----------------------------------------
 BYTE   VOL   36*Dialga_mvl/mxv
 BYTE   N05
 BYTE   W06
 BYTE   Cn6  v040
 BYTE   W06
 BYTE   Gn5  v112
 BYTE   W06
 BYTE   Gn5  v040
 BYTE   W06
 BYTE   En5  v112
 BYTE   W06
 BYTE   En5  v040
 BYTE   W06
 BYTE   Gn5  v112
 BYTE   W06
 BYTE   Gn5  v040
 BYTE   W06
 BYTE   N44  Cn6  v112
 BYTE   W48
//  #06 //047   ----------------------------------------
 BYTE   VOL   35*Dialga_mvl/mxv
 BYTE   N05
 BYTE   W06
 BYTE   Cn6  v040
 BYTE   W06
 BYTE   Gn5  v112
 BYTE   W06
 BYTE   Gn5  v040
 BYTE   W06
 BYTE   En5  v112
 BYTE   W06
 BYTE   En5  v040
 BYTE   W06
 BYTE   Gn5  v112
 BYTE   W06
 BYTE   Gn5  v040
 BYTE   W54
//  #06 //048   ----------------------------------------
 BYTE   W24
 BYTE   VOL   11*Dialga_mvl/mxv
 BYTE   W06
 BYTE   VOL   45*Dialga_mvl/mxv
 BYTE   W66
//  #06 //049   ----------------------------------------
 BYTE   W96
//  #06 //050   ----------------------------------------
 BYTE   W96
//  #06 //051   ----------------------------------------
 BYTE   W96
//  #06 //052   ----------------------------------------
 BYTE   W96
//  #06 //053   ----------------------------------------
 BYTE   W24
 BYTE   VOL   39*Dialga_mvl/mxv
 BYTE   N11  Cn3  v112
 BYTE   W12
 BYTE   Ds3
 BYTE   W12
 BYTE   PAN   c_v-40
 BYTE   N11  Cn4
 BYTE   W12
 BYTE   Gn3
 BYTE   W12
 BYTE   PAN   c_v+40
 BYTE   N11  En3
 BYTE   W12
 BYTE   Gn3
 BYTE   W12
//  #06 //054   ----------------------------------------
Label_0100718A:
 BYTE   PAN   c_v-42
 BYTE   N11  Cn4  v112
 BYTE   W12
 BYTE   Gn3
 BYTE   W12
 BYTE   PAN   c_v+40
 BYTE   N11  En3
 BYTE   W12
 BYTE   Gn3
 BYTE   W12
 BYTE   PAN   c_v-40
 BYTE   N11  Cn4
 BYTE   W12
 BYTE   Gn3
 BYTE   W12
 BYTE   PAN   c_v+40
 BYTE   N11  En3
 BYTE   W12
 BYTE   Gn3
 BYTE   W12
 BYTE   PEND 
//  #06 //055   ----------------------------------------
 BYTE   PATT
  POIN2 Label_0100718A
//  #06 //056   ----------------------------------------
Label_010071AD:
 BYTE   PAN   c_v-42
 BYTE   N11  Gs3  v112
 BYTE   W12
 BYTE   Ds3
 BYTE   W12
 BYTE   PAN   c_v+40
 BYTE   N11  Cn3
 BYTE   W12
 BYTE   Ds3
 BYTE   W12
 BYTE   PAN   c_v-40
 BYTE   N11  Gs3
 BYTE   W12
 BYTE   Ds3
 BYTE   W12
 BYTE   PAN   c_v+40
 BYTE   N11  Cn3
 BYTE   W12
 BYTE   Ds3
 BYTE   W12
 BYTE   PEND 
//  #06 //057   ----------------------------------------
 BYTE   PATT
  POIN2 Label_010071AD
//  #06 //058   ----------------------------------------
Label_010071D0:
 BYTE   PAN   c_v-42
 BYTE   N11  Gs3  v112
 BYTE   W12
 BYTE   Ds3
 BYTE   W12
 BYTE   PAN   c_v+40
 BYTE   N11  Cn3
 BYTE   W12
 BYTE   Ds3
 BYTE   W12
 BYTE   PAN   c_v-40
 BYTE   N11  Cn4
 BYTE   W12
 BYTE   Gn3
 BYTE   W12
 BYTE   PAN   c_v+40
 BYTE   N11  En3
 BYTE   W12
 BYTE   Gn3
 BYTE   W12
 BYTE   PEND 
//  #06 //059   ----------------------------------------
 BYTE   PATT
  POIN2 Label_0100718A
//  #06 //060   ----------------------------------------
 BYTE   PATT
  POIN2 Label_0100718A
//  #06 //061   ----------------------------------------
 BYTE   PATT
  POIN2 Label_010071AD
//  #06 //062   ----------------------------------------
 BYTE   PATT
  POIN2 Label_010071AD
//  #06 //063   ----------------------------------------
 BYTE   PATT
  POIN2 Label_010071D0
//  #06 //064   ----------------------------------------
 BYTE   PATT
  POIN2 Label_0100718A
//  #06 //065   ----------------------------------------
 BYTE   PATT
  POIN2 Label_0100718A
//  #06 //066   ----------------------------------------
 BYTE   PATT
  POIN2 Label_010071AD
//  #06 //067   ----------------------------------------
 BYTE   PATT
  POIN2 Label_010071AD
//  #06 //068   ----------------------------------------
 BYTE   PAN   c_v-42
 BYTE   N11  Gs3  v112
 BYTE   W12
 BYTE   Ds3
 BYTE   W12
 BYTE   PAN   c_v+40
 BYTE   N11  Cn3
 BYTE   W12
 BYTE   Ds3
 BYTE   W12
 BYTE   PAN   c_v-40
 BYTE   W24
 BYTE   PAN   c_v+40
 BYTE   W24
//  #06 //069   ----------------------------------------
 BYTE   PAN   c_v-42
 BYTE   W24
 BYTE   PAN   c_v+40
 BYTE   W72
//  #06 //070   ----------------------------------------
 BYTE   W96
//  #06 //071   ----------------------------------------
 BYTE   W96
//  #06 //072   ----------------------------------------
 BYTE   W96
//  #06 //073   ----------------------------------------
 BYTE   W96
//  #06 //074   ----------------------------------------
 BYTE   W96
//  #06 //075   ----------------------------------------
 BYTE   W48
 BYTE   PAN   c_v-40
 BYTE   N11  Gs3
 BYTE   W12
 BYTE   Ds3
 BYTE   W12
 BYTE   PAN   c_v+40
 BYTE   N11  Cn3
 BYTE   W12
 BYTE   Ds3
 BYTE   W12
//  #06 //076   ----------------------------------------
Label_01007246:
 BYTE   PAN   c_v-42
 BYTE   N11  Gs3  v112
 BYTE   W12
 BYTE   Ds3
 BYTE   W12
 BYTE   PAN   c_v+40
 BYTE   N11  Cn3
 BYTE   W12
 BYTE   Ds3
 BYTE   W12
 BYTE   PAN   c_v-40
 BYTE   N11  Cn3
 BYTE   W12
 BYTE   Ds3
 BYTE   W12
 BYTE   PAN   c_v+40
 BYTE   N11  Gs3
 BYTE   W12
 BYTE   Ds3
 BYTE   W12
 BYTE   PEND 
//  #06 //077   ----------------------------------------
 BYTE   PATT
  POIN2 Label_010071AD
//  #06 //078   ----------------------------------------
 BYTE   PATT
  POIN2 Label_01007246
//  #06 //079   ----------------------------------------
 BYTE   PAN   c_v-42
 BYTE   N11  Gs3  v112
 BYTE   W12
 BYTE   Ds3
 BYTE   W12
 BYTE   PAN   c_v+40
 BYTE   N11  Cn3
 BYTE   W12
 BYTE   Ds3
 BYTE   W12
 BYTE   PAN   c_v-40
 BYTE   N11  An3
 BYTE   W12
 BYTE   En3
 BYTE   W12
 BYTE   PAN   c_v+40
 BYTE   N11  Cs3
 BYTE   W12
 BYTE   En3
 BYTE   W12
//  #06 //080   ----------------------------------------
 BYTE   PAN   c_v-42
 BYTE   N11  Cs3
 BYTE   W12
 BYTE   En3
 BYTE   W12
 BYTE   PAN   c_v+40
 BYTE   N11  An3
 BYTE   W12
 BYTE   En3
 BYTE   W12
 BYTE   PAN   c_v-40
 BYTE   N11  An3
 BYTE   W12
 BYTE   En3
 BYTE   W12
 BYTE   PAN   c_v+40
 BYTE   N11  Cs3
 BYTE   W12
 BYTE   En3
 BYTE   W12
//  #06 //081   ----------------------------------------
 BYTE   PAN   c_v-42
 BYTE   N11  Cs3
 BYTE   W12
 BYTE   En3
 BYTE   W12
 BYTE   PAN   c_v+40
 BYTE   N11  An3
 BYTE   W12
 BYTE   En3
 BYTE   W12
 BYTE   PAN   c_v-40
 BYTE   N11  Bn3
 BYTE   W12
 BYTE   Fs3
 BYTE   W12
 BYTE   PAN   c_v+40
 BYTE   N11  Ds3
 BYTE   W12
 BYTE   Fs3
 BYTE   W12
//  #06 //082   ----------------------------------------
 BYTE   PAN   c_v-42
 BYTE   N11  Ds3
 BYTE   W12
 BYTE   Fs3
 BYTE   W12
 BYTE   PAN   c_v+40
 BYTE   N11  Bn3
 BYTE   W12
 BYTE   Fs3
 BYTE   W12
 BYTE   PAN   c_v-40
 BYTE   N11  Bn3
 BYTE   W12
 BYTE   Fs3
 BYTE   W12
 BYTE   PAN   c_v+40
 BYTE   N11  Ds3
 BYTE   W12
 BYTE   Fs3
 BYTE   W12
//  #06 //083   ----------------------------------------
 BYTE   PAN   c_v-42
 BYTE   N11  Ds3
 BYTE   W12
 BYTE   Fs3
 BYTE   W12
 BYTE   PAN   c_v+40
 BYTE   N11  Bn3
 BYTE   W12
 BYTE   Fs3
 BYTE   W12
 BYTE   PAN   c_v-40
 BYTE   N11  Cs4
 BYTE   W12
 BYTE   Gs3
 BYTE   W12
 BYTE   PAN   c_v+40
 BYTE   N11  Fn3
 BYTE   W12
 BYTE   Gs3
 BYTE   W12
//  #06 //084   ----------------------------------------
Label_010072FB:
 BYTE   PAN   c_v-42
 BYTE   N11  Fn3  v112
 BYTE   W12
 BYTE   Gs3
 BYTE   W12
 BYTE   PAN   c_v+40
 BYTE   N11  Cs4
 BYTE   W12
 BYTE   Gs3
 BYTE   W12
 BYTE   PAN   c_v-40
 BYTE   N11  Cs4
 BYTE   W12
 BYTE   Gs3
 BYTE   W12
 BYTE   PAN   c_v+40
 BYTE   N11  Fn3
 BYTE   W12
 BYTE   Gs3
 BYTE   W12
 BYTE   PEND 
//  #06 //085   ----------------------------------------
 BYTE   PATT
  POIN2 Label_010072FB
//  #06 //086   ----------------------------------------
 BYTE   PATT
  POIN2 Label_010072FB
//  #06 //087   ----------------------------------------
 BYTE   PAN   c_v-42
 BYTE   N11  Fn3  v112
 BYTE   W12
 BYTE   Gs3
 BYTE   W12
 BYTE   PAN   c_v+40
 BYTE   N11  Cs4
 BYTE   W12
 BYTE   Gs3
 BYTE   W12
 BYTE   PAN   c_v-40
 BYTE   VOL   21*Dialga_mvl/mxv
 BYTE   N03  Cs4
 BYTE   W04
 BYTE   Ds4
 BYTE   W04
 BYTE   Fn4
 BYTE   W04
 BYTE   PAN   c_v+41
 BYTE   N03  Fs4
 BYTE   W04
 BYTE   Gs4
 BYTE   W04
 BYTE   As4
 BYTE   W04
 BYTE   PAN   c_v-40
 BYTE   N03  Cn5
 BYTE   W04
 BYTE   Cs5
 BYTE   W04
 BYTE   Ds5
 BYTE   W04
 BYTE   PAN   c_v+41
 BYTE   N03  Fn5
 BYTE   W04
 BYTE   Fs5
 BYTE   W04
 BYTE   Gs5
 BYTE   W04
//  #06 //088   ----------------------------------------
 BYTE   PAN   c_v-40
 BYTE   N03  As5
 BYTE   W04
 BYTE   Gs5
 BYTE   W04
 BYTE   Fs5
 BYTE   W04
 BYTE   PAN   c_v+41
 BYTE   N03  Gs5
 BYTE   W04
 BYTE   Fs5
 BYTE   W04
 BYTE   Fn5
 BYTE   W04
 BYTE   PAN   c_v-40
 BYTE   N03  Fs5
 BYTE   W04
 BYTE   Fn5
 BYTE   W04
 BYTE   Ds5
 BYTE   W04
 BYTE   PAN   c_v+41
 BYTE   N03  Cs5
 BYTE   W04
 BYTE   Cn5
 BYTE   W04
 BYTE   As4
 BYTE   W04
 BYTE   PAN   c_v-40
 BYTE   N03  Gs4
 BYTE   W04
 BYTE   Fs4
 BYTE   W04
 BYTE   Fn4
 BYTE   W04
 BYTE   PAN   c_v+41
 BYTE   N03  Ds4
 BYTE   W04
 BYTE   Cs4
 BYTE   W04
 BYTE   Cn4
 BYTE   W04
 BYTE   PAN   c_v-40
 BYTE   N03  Cs4
 BYTE   W04
 BYTE   Fn4
 BYTE   W04
 BYTE   Fs4
 BYTE   W04
 BYTE   PAN   c_v+41
 BYTE   N03  Fn4
 BYTE   W04
 BYTE   Ds4
 BYTE   W04
 BYTE   Cs4
 BYTE   W04
//  #06 //089   ----------------------------------------
 BYTE   PAN   c_v-40
 BYTE   N03  Cn4
 BYTE   W04
 BYTE   As3
 BYTE   W04
 BYTE   Cn4
 BYTE   W04
 BYTE   PAN   c_v+41
 BYTE   N03  Cs4
 BYTE   W04
 BYTE   Ds4
 BYTE   W04
 BYTE   Fn4
 BYTE   W04
 BYTE   PAN   c_v-40
 BYTE   N03  Fs4
 BYTE   W04
 BYTE   Gs4
 BYTE   W04
 BYTE   As4
 BYTE   W04
 BYTE   PAN   c_v+41
 BYTE   N03  Cn5
 BYTE   W04
 BYTE   Cs5
 BYTE   W04
 BYTE   Gs4
 BYTE   W04
 BYTE   PAN   c_v-40
 BYTE   N03  Fn5
 BYTE   W04
 BYTE   Fs5
 BYTE   W04
 BYTE   Fn5
 BYTE   W04
 BYTE   PAN   c_v+41
 BYTE   N03  Ds5
 BYTE   W04
 BYTE   Cs5
 BYTE   W04
 BYTE   Ds5
 BYTE   W04
 BYTE   PAN   c_v-40
 BYTE   N03  Cs5
 BYTE   W04
 BYTE   Cn5
 BYTE   W04
 BYTE   As4
 BYTE   W04
 BYTE   PAN   c_v+41
 BYTE   N03  Gs4
 BYTE   W04
 BYTE   Fs4
 BYTE   W04
 BYTE   Fn4
 BYTE   W04
//  #06 //090   ----------------------------------------
 BYTE   PAN   c_v-40
 BYTE   N03  Ds4
 BYTE   W04
 BYTE   Cs4
 BYTE   W04
 BYTE   Cn4
 BYTE   W04
 BYTE   PAN   c_v+41
 BYTE   N03  Cs4
 BYTE   W04
 BYTE   Ds4
 BYTE   W04
 BYTE   Fn4
 BYTE   W04
 BYTE   PAN   c_v-40
 BYTE   N03  Fs4
 BYTE   W04
 BYTE   Gs4
 BYTE   W04
 BYTE   Fs4
 BYTE   W04
 BYTE   PAN   c_v+41
 BYTE   N03  Fn4
 BYTE   W04
 BYTE   Ds4
 BYTE   W04
 BYTE   Cs4
 BYTE   W04
 BYTE   PAN   c_v-40
 BYTE   N03  As5
 BYTE   W04
 BYTE   Gs5
 BYTE   W04
 BYTE   Fs5
 BYTE   W04
 BYTE   PAN   c_v+41
 BYTE   N03  Fn5
 BYTE   W04
 BYTE   Ds5
 BYTE   W04
 BYTE   Cs5
 BYTE   W04
 BYTE   PAN   c_v-40
 BYTE   N03  Fn5
 BYTE   W04
 BYTE   Ds5
 BYTE   W04
 BYTE   Cs5
 BYTE   W04
 BYTE   PAN   c_v+41
 BYTE   N03  Cn5
 BYTE   W04
 BYTE   As4
 BYTE   W04
 BYTE   Gs4
 BYTE   W04
//  #06 //091   ----------------------------------------
 BYTE   PAN   c_v-40
 BYTE   N03  Cs5
 BYTE   W04
 BYTE   Cn5
 BYTE   W04
 BYTE   As4
 BYTE   W04
 BYTE   PAN   c_v+41
 BYTE   N03  Gs4
 BYTE   W04
 BYTE   Fs4
 BYTE   W04
 BYTE   Fn4
 BYTE   W04
 BYTE   PAN   c_v-40
 BYTE   N03  Gs4
 BYTE   W04
 BYTE   Fs4
 BYTE   W04
 BYTE   Fn4
 BYTE   W04
 BYTE   PAN   c_v+41
 BYTE   N03  Ds4
 BYTE   W04
 BYTE   Cs4
 BYTE   W04
 BYTE   Ds4
 BYTE   W04
 BYTE   PAN   c_v-40
 BYTE   N03  As5
 BYTE   W04
 BYTE   Cn6
 BYTE   W04
 BYTE   As5
 BYTE   W04
 BYTE   PAN   c_v+41
 BYTE   N03  Gs5
 BYTE   W04
 BYTE   As5
 BYTE   W04
 BYTE   Gs5
 BYTE   W04
 BYTE   PAN   c_v-40
 BYTE   N03  Fs5
 BYTE   W04
 BYTE   Gs5
 BYTE   W04
 BYTE   Fs5
 BYTE   W04
 BYTE   PAN   c_v+41
 BYTE   N03  Fn5
 BYTE   W04
 BYTE   Fs5
 BYTE   W04
 BYTE   Fn5
 BYTE   W04
//  #06 //092   ----------------------------------------
 BYTE   PAN   c_v-40
 BYTE   N03  Ds5
 BYTE   W04
 BYTE   Cs5
 BYTE   W04
 BYTE   Cn5
 BYTE   W04
 BYTE   PAN   c_v+41
 BYTE   N03  Cs5
 BYTE   W08
 BYTE   Fn5
 BYTE   W04
 BYTE   PAN   c_v-40
 BYTE   N03  Fs5
 BYTE   W04
 BYTE   Fn5
 BYTE   W04
 BYTE   Ds5
 BYTE   W04
 BYTE   PAN   c_v+41
 BYTE   N03  Cs5
 BYTE   W04
 BYTE   Cn5
 BYTE   W04
 BYTE   Cs5
 BYTE   W04
 BYTE   PAN   c_v-40
 BYTE   N03  Fn5
 BYTE   W04
 BYTE   Ds5
 BYTE   W04
 BYTE   Cs5
 BYTE   W04
 BYTE   PAN   c_v+41
 BYTE   N03  Cn5
 BYTE   W04
 BYTE   Gs4
 BYTE   W04
 BYTE   As4
 BYTE   W04
 BYTE   PAN   c_v-40
 BYTE   N03  Cn5
 BYTE   W04
 BYTE   Cs5
 BYTE   W04
 BYTE   Ds5
 BYTE   W04
 BYTE   PAN   c_v+41
 BYTE   N03  Fn5
 BYTE   W04
 BYTE   Fs5
 BYTE   W04
 BYTE   Gs5
 BYTE   W04
//  #06 //093   ----------------------------------------
 BYTE   PAN   c_v-40
 BYTE   N03  As5
 BYTE   W04
 BYTE   Cn6
 BYTE   W04
 BYTE   As5
 BYTE   W04
 BYTE   PAN   c_v+41
 BYTE   N03  Gs5
 BYTE   W04
 BYTE   Fs5
 BYTE   W04
 BYTE   Fn5
 BYTE   W04
 BYTE   PAN   c_v-40
 BYTE   N03  Ds5
 BYTE   W04
 BYTE   Cs5
 BYTE   W04
 BYTE   Cn5
 BYTE   W04
 BYTE   PAN   c_v+41
 BYTE   N03  Cs5
 BYTE   W04
 BYTE   As4
 BYTE   W04
 BYTE   Gs4
 BYTE   W04
 BYTE   PAN   c_v-40
 BYTE   N03  Fs4
 BYTE   W04
 BYTE   Fn4
 BYTE   W04
 BYTE   Ds4
 BYTE   W04
 BYTE   PAN   c_v+41
 BYTE   N03  Cs4
 BYTE   W04
 BYTE   Ds4
 BYTE   W04
 BYTE   Fn4
 BYTE   W04
 BYTE   PAN   c_v-40
 BYTE   N03  Fs4
 BYTE   W04
 BYTE   Fn4
 BYTE   W04
 BYTE   Fs4
 BYTE   W04
 BYTE   PAN   c_v+41
 BYTE   N03  Gs4
 BYTE   W04
 BYTE   As4
 BYTE   W04
 BYTE   Gs4
 BYTE   W04
//  #06 //094   ----------------------------------------
 BYTE   PAN   c_v-40
 BYTE   N03  As4
 BYTE   W04
 BYTE   Cn5
 BYTE   W04
 BYTE   Cs5
 BYTE   W04
 BYTE   PAN   c_v+41
 BYTE   N03  Cn5
 BYTE   W04
 BYTE   Cs5
 BYTE   W04
 BYTE   Ds5
 BYTE   W04
 BYTE   PAN   c_v-40
 BYTE   N03  Fn5
 BYTE   W04
 BYTE   Ds5
 BYTE   W04
 BYTE   Fn5
 BYTE   W04
 BYTE   PAN   c_v+41
 BYTE   N03  Fs5
 BYTE   W04
 BYTE   Gs5
 BYTE   W04
 BYTE   As5
 BYTE   W04
 BYTE   PAN   c_v-40
 BYTE   N03  Cn6
 BYTE   W04
 BYTE   As5
 BYTE   W04
 BYTE   Gs5
 BYTE   W04
 BYTE   PAN   c_v+41
 BYTE   N03  Fs5
 BYTE   W04
 BYTE   Fn5
 BYTE   W04
 BYTE   Ds5
 BYTE   W04
 BYTE   PAN   c_v-40
 BYTE   N03  Cs5
 BYTE   W04
 BYTE   Ds5
 BYTE   W04
 BYTE   Cs5
 BYTE   W04
 BYTE   PAN   c_v+41
 BYTE   N03  Cn5
 BYTE   W04
 BYTE   As4
 BYTE   W04
 BYTE   Gs4
 BYTE   W04
//  #06 //095   ----------------------------------------
 BYTE   PAN   c_v-40
 BYTE   N03  Fs4
 BYTE   W04
 BYTE   Gs4
 BYTE   W04
 BYTE   Fs4
 BYTE   W04
 BYTE   PAN   c_v+41
 BYTE   N03  Fn4
 BYTE   W04
 BYTE   Ds4
 BYTE   W04
 BYTE   Cs4
 BYTE   W04
 BYTE   PAN   c_v-40
 BYTE   N03  Cn4
 BYTE   W04
 BYTE   Cs4
 BYTE   W04
 BYTE   Cn4
 BYTE   W04
 BYTE   PAN   c_v+41
 BYTE   N03  As3
 BYTE   W04
 BYTE   Gs3
 BYTE   W04
 BYTE   Fn3
 BYTE   W52
//  #06 //096   ----------------------------------------
 BYTE   W96
//  #06 //097   ----------------------------------------
 BYTE   W48
 BYTE   VOL   45*Dialga_mvl/mxv
 BYTE   PAN   c_v+35
 BYTE   N23  Gn3
 BYTE   W24
 BYTE   Gs3
 BYTE   W24
//  #06 //098   ----------------------------------------
 BYTE   Gn3
 BYTE   W24
 BYTE   Cs4
 BYTE   W24
 BYTE   PAN   c_v+34
 BYTE   N23  Cn4
 BYTE   W24
 BYTE   N44  An3
 BYTE   W24
//  #06 //099   ----------------------------------------
 BYTE   W24
 BYTE   N23  Gs3
 BYTE   W24
 BYTE   N11  Gs3  v040
 BYTE   W48
//  #06 //100   ----------------------------------------
 BYTE   W96
//  #06 //101   ----------------------------------------
 BYTE   W48
 BYTE   N23  Cn4  v112
 BYTE   W24
 BYTE   Cs4
 BYTE   W24
//  #06 //102   ----------------------------------------
 BYTE   Cn4
 BYTE   W24
 BYTE   Fs4
 BYTE   W24
 BYTE   Fn4
 BYTE   W24
 BYTE   N44  En4
 BYTE   W24
//  #06 //103   ----------------------------------------
 BYTE   W24
 BYTE   N23  Ds4
 BYTE   W24
 BYTE   PAN   c_v-40
 BYTE   VOL   32*Dialga_mvl/mxv
 BYTE   N11  Cn4
 BYTE   W12
 BYTE   Gn3
 BYTE   W12
 BYTE   PAN   c_v+40
 BYTE   N11  En3
 BYTE   W12
 BYTE   Gn3
 BYTE   W12
//  #06 //104   ----------------------------------------
 BYTE   PAN   c_v-42
 BYTE   N11  Cn4
 BYTE   W12
 BYTE   Gn3
 BYTE   W12
 BYTE   PAN   c_v+40
 BYTE   N11  En3
 BYTE   W12
 BYTE   Gn3
 BYTE   W12
 BYTE   PAN   c_v-40
 BYTE   N11  En3
 BYTE   W12
 BYTE   Gn3
 BYTE   W12
 BYTE   PAN   c_v+40
 BYTE   N11  Cn4
 BYTE   W12
 BYTE   Gn3
 BYTE   W12
//  #06 //105   ----------------------------------------
 BYTE   PATT
  POIN2 Label_0100718A
//  #06 //106   ----------------------------------------
 BYTE   PAN   c_v-42
 BYTE   N11  Gn2  v112
 BYTE   W12
 BYTE   Cn3
 BYTE   W12
 BYTE   PAN   c_v+40
 BYTE   N11  En3
 BYTE   W12
 BYTE   Gn3
 BYTE   W12
 BYTE   PAN   c_v-40
 BYTE   N11  En2
 BYTE   W12
 BYTE   Gn2
 BYTE   W12
 BYTE   PAN   c_v+40
 BYTE   N11  Cn3
 BYTE   W12
 BYTE   En3
 BYTE   W12
//  #06 //107   ----------------------------------------
 BYTE   PAN   c_v-42
 BYTE   N11  Gn3
 BYTE   W12
 BYTE   Cn4
 BYTE   W12
 BYTE   PAN   c_v+40
 BYTE   N11  Gn4
 BYTE   W12
 BYTE   Gn3
 BYTE   W12
 BYTE   PAN   c_v-40
 BYTE   VOL   41*Dialga_mvl/mxv
 BYTE   N11  As4
 BYTE   W12
 BYTE   Fn4
 BYTE   W12
 BYTE   PAN   c_v+40
 BYTE   N11  Dn5
 BYTE   W12
 BYTE   As4
 BYTE   W12
//  #06 //108   ----------------------------------------
 BYTE   PAN   c_v-42
 BYTE   N11  Fn4
 BYTE   W12
 BYTE   As4
 BYTE   W12
 BYTE   PAN   c_v+40
 BYTE   N11  Fn4
 BYTE   W12
 BYTE   Dn5
 BYTE   W12
 BYTE   PAN   c_v-40
 BYTE   N11  As4
 BYTE   W12
 BYTE   Dn5
 BYTE   W12
 BYTE   PAN   c_v+40
 BYTE   N11  As4
 BYTE   W12
 BYTE   Fn4
 BYTE   W12
//  #06 //109   ----------------------------------------
 BYTE   PAN   c_v-42
 BYTE   N11  Dn4
 BYTE   W12
 BYTE   Fn4
 BYTE   W12
 BYTE   PAN   c_v+40
 BYTE   N11  As4
 BYTE   W12
 BYTE   Dn5
 BYTE   W12
 BYTE   PAN   c_v-40
 BYTE   N11  Cn5
 BYTE   W12
 BYTE   Gn4
 BYTE   W12
 BYTE   PAN   c_v+40
 BYTE   N11  Cn5
 BYTE   W12
 BYTE   Gn4
 BYTE   W12
//  #06 //110   ----------------------------------------
 BYTE   PAN   c_v-42
 BYTE   N11  Cn5
 BYTE   W12
 BYTE   Gn4
 BYTE   W12
 BYTE   PAN   c_v+40
 BYTE   N11  Cn5
 BYTE   W12
 BYTE   Gn4
 BYTE   W12
 BYTE   PAN   c_v-40
 BYTE   N11  Cn5
 BYTE   W12
 BYTE   Gn4
 BYTE   W12
 BYTE   PAN   c_v+40
 BYTE   N11  En4
 BYTE   W12
 BYTE   Gn4
 BYTE   W12
//  #06 //111   ----------------------------------------
 BYTE   PAN   c_v-42
 BYTE   N11  En4
 BYTE   W12
 BYTE   Gn4
 BYTE   W12
 BYTE   PAN   c_v+40
 BYTE   N11  Cn5
 BYTE   W12
 BYTE   Gn4
 BYTE   W12
 BYTE   VOL   34*Dialga_mvl/mxv
 BYTE   PAN   c_v-40
 BYTE   N11  As4
 BYTE   W12
 BYTE   Fn4
 BYTE   W12
 BYTE   PAN   c_v+40
 BYTE   N11  Dn4
 BYTE   W12
 BYTE   Fn4
 BYTE   W12
//  #06 //112   ----------------------------------------
 BYTE   PAN   c_v-42
 BYTE   N11  Dn4
 BYTE   W12
 BYTE   Fn4
 BYTE   W12
 BYTE   PAN   c_v+40
 BYTE   N11  As4
 BYTE   W12
 BYTE   Fn4
 BYTE   W12
 BYTE   PAN   c_v-40
 BYTE   N11  As4
 BYTE   W12
 BYTE   Fn4
 BYTE   W12
 BYTE   PAN   c_v+40
 BYTE   N11  Dn4
 BYTE   W12
 BYTE   Fn4
 BYTE   W12
//  #06 //113   ----------------------------------------
 BYTE   PAN   c_v-42
 BYTE   N11  Dn4
 BYTE   W12
 BYTE   Fn4
 BYTE   W12
 BYTE   PAN   c_v+40
 BYTE   N11  As4
 BYTE   W12
 BYTE   Fn4
 BYTE   W12
 BYTE   PAN   c_v-40
 BYTE   N11  Cn5
 BYTE   W12
 BYTE   Gn4
 BYTE   W12
 BYTE   PAN   c_v+40
 BYTE   N11  En4
 BYTE   W12
 BYTE   Gn4
 BYTE   W12
//  #06 //114   ----------------------------------------
 BYTE   PAN   c_v-42
 BYTE   N11  En4
 BYTE   W12
 BYTE   Gn4
 BYTE   W12
 BYTE   PAN   c_v+40
 BYTE   N11  Cn5
 BYTE   W12
 BYTE   Gn4
 BYTE   W12
 BYTE   PAN   c_v-40
 BYTE   N11  Cn5
 BYTE   W12
 BYTE   Gn4
 BYTE   W12
 BYTE   PAN   c_v+40
 BYTE   N11  En4
 BYTE   W12
 BYTE   Gn4
 BYTE   W12
//  #06 //115   ----------------------------------------
 BYTE   GoTo
  POIN2 Label_01006FB2
//  #06 //116   ----------------------------------------
 BYTE   PAN   c_v-42
 BYTE   N11  En4  v112
 BYTE   W12
 BYTE   Gn4
 BYTE   W12
 BYTE   PAN   c_v+40
 BYTE   N11  Cn5
 BYTE   W12
 BYTE   Gn4
 BYTE   W60
//  #06 //117   ----------------------------------------
 BYTE   PAN   c_v+40
 BYTE   VOL   34*Dialga_mvl/mxv
 BYTE   MOD 0
 BYTE   PAN   c_v+40
 BYTE   VOL   34*Dialga_mvl/mxv
 BYTE   MOD 0
 BYTE   PAN   c_v+40
 BYTE   VOL   34*Dialga_mvl/mxv
 BYTE   MOD 0
 BYTE   BEND   c_v+0
 BYTE   FINE

//**************** Track 7 (Midi-Chn.6) ****************//

Dialga_007:
//  #07 //000   ----------------------------------------
 BYTE   KEYSH   Dialga_key+0
Label_0100640A:
 BYTE   VOICE   40
 BYTE   PAN   c_v+8
 BYTE   VOL   21*Dialga_mvl/mxv
 BYTE   PAN   c_v+8
 BYTE   VOL   21*Dialga_mvl/mxv
 BYTE   PAN   c_v+8
 BYTE   VOL   21*Dialga_mvl/mxv
 BYTE   PAN   c_v+8
 BYTE   VOL   21*Dialga_mvl/mxv
 BYTE   PAN   c_v+8
 BYTE   VOL   21*Dialga_mvl/mxv
 BYTE   PAN   c_v+8
 BYTE   VOL   21*Dialga_mvl/mxv
 BYTE   BEND   c_v+0
 BYTE   W03
 BYTE   TIE  Cn3  v112
 BYTE   W92
 BYTE   W01
//  #07 //001   ----------------------------------------
 BYTE   W96
//  #07 //002   ----------------------------------------
 BYTE   W96
//  #07 //003   ----------------------------------------
 BYTE   W96
//  #07 //004   ----------------------------------------
 BYTE   W96
//  #07 //005   ----------------------------------------
 BYTE   W96
//  #07 //006   ----------------------------------------
 BYTE   W02
 BYTE   EOT
 BYTE   W01
 BYTE   TIE  Cs3
 BYTE   W92
 BYTE   W01
//  #07 //007   ----------------------------------------
 BYTE   W96
//  #07 //008   ----------------------------------------
 BYTE   W96
//  #07 //009   ----------------------------------------
 BYTE   W96
//  #07 //010   ----------------------------------------
 BYTE   W03
 BYTE   N92  Gs3
 BYTE   W92
 BYTE   W01
//  #07 //011   ----------------------------------------
 BYTE   W02
 BYTE   EOT
 BYTE   Cs3
 BYTE   W01
 BYTE   N92
 BYTE   W92
 BYTE   W01
//  #07 //012   ----------------------------------------
 BYTE   VOL   41*Dialga_mvl/mxv
 BYTE   PAN   c_v+23
 BYTE   N23  Gn3  v127
 BYTE   W24
 BYTE   Gs3
 BYTE   W24
 BYTE   Gn3
 BYTE   W24
 BYTE   Cs4
 BYTE   W24
//  #07 //013   ----------------------------------------
 BYTE   Cn4
 BYTE   W24
 BYTE   N44  An3
 BYTE   W48
 BYTE   N23  Gs3
 BYTE   W24
//  #07 //014   ----------------------------------------
 BYTE   N80  As3
 BYTE   W84
 BYTE   N05  An3
 BYTE   W06
 BYTE   Gs3
 BYTE   W06
//  #07 //015   ----------------------------------------
 BYTE   N92  Gn3
 BYTE   W96
//  #07 //016   ----------------------------------------
 BYTE   PAN   c_v+4
 BYTE   W03
 BYTE   N23  Gn3  v112
 BYTE   W24
 BYTE   Gs3
 BYTE   W24
 BYTE   Gn3
 BYTE   W24
 BYTE   Cs4
 BYTE   W21
//  #07 //017   ----------------------------------------
 BYTE   W03
 BYTE   Cn4
 BYTE   W21
 BYTE   N44  An3
 BYTE   W48
 BYTE   N23  Gs3
 BYTE   W24
//  #07 //018   ----------------------------------------
 BYTE   W03
 BYTE   N92  As3
 BYTE   W92
 BYTE   W01
//  #07 //019   ----------------------------------------
 BYTE   W03
 BYTE   Bn3
 BYTE   W92
 BYTE   W01
//  #07 //020   ----------------------------------------
 BYTE   W03
 BYTE   TIE  Cn4
 BYTE   W92
 BYTE   W01
//  #07 //021   ----------------------------------------
 BYTE   W96
//  #07 //022   ----------------------------------------
 BYTE   W02
 BYTE   EOT
 BYTE   W01
 BYTE   TIE  Cn3
 BYTE   W92
 BYTE   W01
//  #07 //023   ----------------------------------------
 BYTE   W92
 BYTE   EOT
 BYTE   W01
 BYTE   VOL   27*Dialga_mvl/mxv
 BYTE   N05  Bn2
 BYTE   W03
//  #07 //024   ----------------------------------------
 BYTE   PAN   c_v+45
 BYTE   W03
 BYTE   N23  Cs3
 BYTE   W24
 BYTE   Ds3
 BYTE   W24
 BYTE   N32  Fn3
 BYTE   W36
 BYTE   N11  Gn3
 BYTE   W09
//  #07 //025   ----------------------------------------
 BYTE   W03
 BYTE   N23  Gs3
 BYTE   W24
 BYTE   As3
 BYTE   W24
 BYTE   N11  Cs4
 BYTE   W12
 BYTE   As3
 BYTE   W12
 BYTE   N11
 BYTE   W12
 BYTE   Gs3
 BYTE   W09
//  #07 //026   ----------------------------------------
 BYTE   W03
 BYTE   N92  Gn3
 BYTE   W92
 BYTE   W01
//  #07 //027   ----------------------------------------
 BYTE   W03
 BYTE   En3
 BYTE   W92
 BYTE   W01
//  #07 //028   ----------------------------------------
 BYTE   PAN   c_v-25
 BYTE   VOL   34*Dialga_mvl/mxv
 BYTE   W03
 BYTE   N56  Cs3  v127
 BYTE   W60
 BYTE   N11  Ds3
 BYTE   W12
 BYTE   Fn3
 BYTE   W12
 BYTE   Gn3
 BYTE   W09
//  #07 //029   ----------------------------------------
 BYTE   W03
 BYTE   N23  Gs3
 BYTE   W24
 BYTE   As3
 BYTE   W24
 BYTE   N11  Cs4
 BYTE   W12
 BYTE   As3
 BYTE   W12
 BYTE   N11
 BYTE   W12
 BYTE   Cs4
 BYTE   W09
//  #07 //030   ----------------------------------------
Label_010064E1:
 BYTE   W03
 BYTE   N92  Cn4  v127
 BYTE   W92
 BYTE   W01
 BYTE   PEND 
//  #07 //031   ----------------------------------------
 BYTE   W03
 BYTE   En4  v112
 BYTE   W92
 BYTE   W01
//  #07 //032   ----------------------------------------
Label_010064ED:
 BYTE   W03
 BYTE   N92  Gn2  v112
 BYTE   W92
 BYTE   W01
 BYTE   PEND 
//  #07 //033   ----------------------------------------
 BYTE   W03
 BYTE   N11  Gs2
 BYTE   W12
 BYTE   Gs2  v040
 BYTE   W80
 BYTE   W01
//  #07 //034   ----------------------------------------
 BYTE   PATT
  POIN2 Label_010064ED
//  #07 //035   ----------------------------------------
 BYTE   W03
 BYTE   N11  Fs2  v112
 BYTE   W12
 BYTE   Fs2  v040
 BYTE   W80
 BYTE   W01
//  #07 //036   ----------------------------------------
 BYTE   W03
 BYTE   N23  Cn4  v127
 BYTE   W24
 BYTE   Cs4
 BYTE   W24
 BYTE   N44  Fs4
 BYTE   W44
 BYTE   W01
//  #07 //037   ----------------------------------------
 BYTE   W03
 BYTE   N23  Fn4
 BYTE   W24
 BYTE   Dn4
 BYTE   W24
 BYTE   N23
 BYTE   W24
 BYTE   Fn4
 BYTE   W21
//  #07 //038   ----------------------------------------
 BYTE   W03
 BYTE   N92  Cs4
 BYTE   W92
 BYTE   W01
//  #07 //039   ----------------------------------------
 BYTE   PATT
  POIN2 Label_010064E1
//  #07 //040   ----------------------------------------
 BYTE   PAN   c_v+29
 BYTE   W03
 BYTE   N23  Cn3  v112
 BYTE   W24
 BYTE   Cs3  v127
 BYTE   W24
 BYTE   N44  Fs3
 BYTE   W44
 BYTE   W01
//  #07 //041   ----------------------------------------
 BYTE   W03
 BYTE   N23  Fn3
 BYTE   W24
 BYTE   Dn3
 BYTE   W24
 BYTE   N23
 BYTE   W24
 BYTE   Fn3
 BYTE   W21
//  #07 //042   ----------------------------------------
 BYTE   W03
 BYTE   N92  Fs3
 BYTE   W92
 BYTE   W01
//  #07 //043   ----------------------------------------
 BYTE   W03
 BYTE   N44  Gn3
 BYTE   W48
 BYTE   N11  Gn3  v040
 BYTE   W44
 BYTE   W01
//  #07 //044   ----------------------------------------
 BYTE   VOL   27*Dialga_mvl/mxv
 BYTE   W03
 BYTE   N92  En3  v127
 BYTE   W92
 BYTE   W01
//  #07 //045   ----------------------------------------
Label_01006557:
 BYTE   W03
 BYTE   N92  En3  v127
 BYTE   W92
 BYTE   W01
 BYTE   PEND 
//  #07 //046   ----------------------------------------
 BYTE   PATT
  POIN2 Label_01006557
//  #07 //047   ----------------------------------------
 BYTE   W03
 BYTE   N44  En3  v127
 BYTE   W92
 BYTE   W01
//  #07 //048   ----------------------------------------
Label_01006569:
 BYTE   W48
 BYTE   W03
 BYTE   N92  Cn3  v112
 BYTE   W44
 BYTE   W01
 BYTE   PEND 
//  #07 //049   ----------------------------------------
 BYTE   PATT
  POIN2 Label_01006569
//  #07 //050   ----------------------------------------
Label_01006576:
 BYTE   W48
 BYTE   W03
 BYTE   N44  Cn3  v112
 BYTE   W44
 BYTE   W01
 BYTE   PEND 
//  #07 //051   ----------------------------------------
Label_0100657E:
 BYTE   W03
 BYTE   N92  Gs2  v112
 BYTE   W92
 BYTE   W01
 BYTE   PEND 
//  #07 //052   ----------------------------------------
 BYTE   PATT
  POIN2 Label_0100657E
//  #07 //053   ----------------------------------------
Label_0100658A:
 BYTE   W03
 BYTE   N44  Gs2  v112
 BYTE   W48
 BYTE   N92  Cn3
 BYTE   W44
 BYTE   W01
 BYTE   PEND 
//  #07 //054   ----------------------------------------
 BYTE   PATT
  POIN2 Label_01006569
//  #07 //055   ----------------------------------------
 BYTE   PATT
  POIN2 Label_01006576
//  #07 //056   ----------------------------------------
 BYTE   PATT
  POIN2 Label_0100657E
//  #07 //057   ----------------------------------------
 BYTE   PATT
  POIN2 Label_0100657E
//  #07 //058   ----------------------------------------
 BYTE   PATT
  POIN2 Label_0100658A
//  #07 //059   ----------------------------------------
 BYTE   PATT
  POIN2 Label_01006569
//  #07 //060   ----------------------------------------
 BYTE   PATT
  POIN2 Label_01006576
//  #07 //061   ----------------------------------------
 BYTE   PATT
  POIN2 Label_0100657E
//  #07 //062   ----------------------------------------
 BYTE   PATT
  POIN2 Label_0100657E
//  #07 //063   ----------------------------------------
 BYTE   PATT
  POIN2 Label_0100658A
//  #07 //064   ----------------------------------------
 BYTE   PATT
  POIN2 Label_01006569
//  #07 //065   ----------------------------------------
 BYTE   PATT
  POIN2 Label_01006576
//  #07 //066   ----------------------------------------
 BYTE   PATT
  POIN2 Label_0100657E
//  #07 //067   ----------------------------------------
 BYTE   PATT
  POIN2 Label_0100657E
//  #07 //068   ----------------------------------------
 BYTE   W03
 BYTE   N44  Gs2  v112
 BYTE   W44
 BYTE   W01
 BYTE   PAN   c_v+30
 BYTE   VOL   34*Dialga_mvl/mxv
 BYTE   W03
 BYTE   N32  Cs3
 BYTE   W36
 BYTE   Gs3
 BYTE   W09
//  #07 //069   ----------------------------------------
 BYTE   W24
 BYTE   W03
 BYTE   N23  Gn3
 BYTE   W24
 BYTE   Ds3
 BYTE   W24
 BYTE   En3
 BYTE   W21
//  #07 //070   ----------------------------------------
 BYTE   W03
 BYTE   Cs3
 BYTE   W24
 BYTE   N32  An2
 BYTE   W36
 BYTE   En3
 BYTE   W32
 BYTE   W01
//  #07 //071   ----------------------------------------
 BYTE   W03
 BYTE   N23  Ds3
 BYTE   W24
 BYTE   Bn2
 BYTE   W24
 BYTE   Cn3
 BYTE   W24
 BYTE   An2
 BYTE   W21
//  #07 //072   ----------------------------------------
 BYTE   W03
 BYTE   N32  Bn2
 BYTE   W36
 BYTE   Fs3
 BYTE   W36
 BYTE   N23  Fn3
 BYTE   W21
//  #07 //073   ----------------------------------------
 BYTE   W03
 BYTE   Cs3
 BYTE   W24
 BYTE   Dn3
 BYTE   W24
 BYTE   Bn2
 BYTE   W24
 BYTE   N32  Dn3
 BYTE   W21
//  #07 //074   ----------------------------------------
 BYTE   W15
 BYTE   An3
 BYTE   W36
 BYTE   N23  Gs3
 BYTE   W24
 BYTE   En3
 BYTE   W21
//  #07 //075   ----------------------------------------
 BYTE   W03
 BYTE   Fs3
 BYTE   W24
 BYTE   Dn3
 BYTE   W24
 BYTE   TIE  Ds2
 BYTE   W44
 BYTE   W01
//  #07 //076   ----------------------------------------
 BYTE   W96
//  #07 //077   ----------------------------------------
 BYTE   W48
 BYTE   W02
 BYTE   EOT
 BYTE   W01
 BYTE   TIE
 BYTE   W44
 BYTE   W01
//  #07 //078   ----------------------------------------
 BYTE   W96
//  #07 //079   ----------------------------------------
 BYTE   W48
 BYTE   W02
 BYTE   EOT
 BYTE   W01
 BYTE   N92  An2
 BYTE   W44
 BYTE   W01
//  #07 //080   ----------------------------------------
 BYTE   W48
 BYTE   W03
 BYTE   N92
 BYTE   W44
 BYTE   W01
//  #07 //081   ----------------------------------------
Label_01006640:
 BYTE   W48
 BYTE   W03
 BYTE   N92  Bn2  v112
 BYTE   W44
 BYTE   W01
 BYTE   PEND 
//  #07 //082   ----------------------------------------
 BYTE   PATT
  POIN2 Label_01006640
//  #07 //083   ----------------------------------------
Label_0100664D:
 BYTE   W48
 BYTE   W03
 BYTE   N92  Cs3  v112
 BYTE   W44
 BYTE   W01
 BYTE   PEND 
//  #07 //084   ----------------------------------------
 BYTE   PATT
  POIN2 Label_0100664D
//  #07 //085   ----------------------------------------
 BYTE   PATT
  POIN2 Label_0100664D
//  #07 //086   ----------------------------------------
 BYTE   PATT
  POIN2 Label_0100664D
//  #07 //087   ----------------------------------------
 BYTE   W48
 BYTE   PAN   c_v-16
 BYTE   VOL   27*Dialga_mvl/mxv
 BYTE   W36
 BYTE   PAN   c_v-32
 BYTE   N32  Cs5  v112
 BYTE   W12
//  #07 //088   ----------------------------------------
Label_01006670:
 BYTE   W24
 BYTE   PAN   c_v+32
 BYTE   N44  Fs5  v112
 BYTE   W48
 BYTE   PAN   c_v-32
 BYTE   N32  Cs5
 BYTE   W24
 BYTE   PEND 
//  #07 //089   ----------------------------------------
 BYTE   W12
 BYTE   PAN   c_v+32
 BYTE   N23  Fn5
 BYTE   W24
 BYTE   PAN   c_v-32
 BYTE   N23  Fn5  v092
 BYTE   W48
 BYTE   N32  Cs5  v112
 BYTE   W12
//  #07 //090   ----------------------------------------
Label_0100668D:
 BYTE   W24
 BYTE   PAN   c_v+32
 BYTE   N44  Ds5  v112
 BYTE   W48
 BYTE   PAN   c_v-32
 BYTE   N32  Cs5
 BYTE   W24
 BYTE   PEND 
//  #07 //091   ----------------------------------------
 BYTE   W12
 BYTE   PAN   c_v+32
 BYTE   N23  Fn5
 BYTE   W24
 BYTE   PAN   c_v-32
 BYTE   N23  Fn5  v096
 BYTE   W48
 BYTE   N32  Cs5  v112
 BYTE   W12
//  #07 //092   ----------------------------------------
 BYTE   PATT
  POIN2 Label_01006670
//  #07 //093   ----------------------------------------
 BYTE   W12
 BYTE   PAN   c_v+32
 BYTE   N23  Fn5  v112
 BYTE   W24
 BYTE   PAN   c_v-32
 BYTE   N20  Fn5  v092
 BYTE   W48
 BYTE   N32  Cs5  v112
 BYTE   W12
//  #07 //094   ----------------------------------------
 BYTE   PATT
  POIN2 Label_0100668D
//  #07 //095   ----------------------------------------
 BYTE   W12
 BYTE   PAN   c_v+32
 BYTE   N23  Fn5  v112
 BYTE   W24
 BYTE   PAN   c_v-32
 BYTE   N11  Fn5  v092
 BYTE   W12
 BYTE   PAN   c_v+31
 BYTE   W03
 BYTE   N23  Gn2  v112
 BYTE   W24
 BYTE   Gs2
 BYTE   W21
//  #07 //096   ----------------------------------------
 BYTE   W03
 BYTE   Gn2
 BYTE   W24
 BYTE   Cs3
 BYTE   W24
 BYTE   Cn3
 BYTE   W24
 BYTE   N44  An2
 BYTE   W21
//  #07 //097   ----------------------------------------
 BYTE   W24
 BYTE   W03
 BYTE   N23  Gs2
 BYTE   W24
 BYTE   N80  As2
 BYTE   W44
 BYTE   W01
//  #07 //098   ----------------------------------------
 BYTE   W36
 BYTE   W03
 BYTE   N05  An2
 BYTE   W06
 BYTE   Gs2
 BYTE   W06
 BYTE   N92  Gn2
 BYTE   W44
 BYTE   W01
//  #07 //099   ----------------------------------------
 BYTE   W48
 BYTE   W03
 BYTE   N23  Gn3
 BYTE   W24
 BYTE   Gs3
 BYTE   W21
//  #07 //100   ----------------------------------------
 BYTE   W03
 BYTE   Gn3
 BYTE   W24
 BYTE   Cs4
 BYTE   W24
 BYTE   Cn4
 BYTE   W24
 BYTE   N44  An3
 BYTE   W21
//  #07 //101   ----------------------------------------
 BYTE   W24
 BYTE   W03
 BYTE   N23  Gs3
 BYTE   W24
 BYTE   N92  As3
 BYTE   W44
 BYTE   W01
//  #07 //102   ----------------------------------------
 BYTE   W48
 BYTE   W03
 BYTE   Bn3
 BYTE   W44
 BYTE   W01
//  #07 //103   ----------------------------------------
 BYTE   W48
 BYTE   W03
 BYTE   TIE  Cn4
 BYTE   W44
 BYTE   W01
//  #07 //104   ----------------------------------------
 BYTE   W96
//  #07 //105   ----------------------------------------
 BYTE   W36
 BYTE   W02
 BYTE   EOT
 BYTE   W01
 BYTE   N11  Ds4
 BYTE   W12
 BYTE   TIE  En4
 BYTE   W44
 BYTE   W01
//  #07 //106   ----------------------------------------
 BYTE   W96
//  #07 //107   ----------------------------------------
 BYTE   W24
 BYTE   W02
 BYTE   EOT
 BYTE   W01
 BYTE   N23  Gn4
 BYTE   W24
 BYTE   VOL   45*Dialga_mvl/mxv
 BYTE   N23  As2
 BYTE   W24
 BYTE   Fn2
 BYTE   W21
//  #07 //108   ----------------------------------------
 BYTE   W03
 BYTE   Dn3
 BYTE   W24
 BYTE   As2
 BYTE   W24
 BYTE   Fn3
 BYTE   W24
 BYTE   Dn3
 BYTE   W21
//  #07 //109   ----------------------------------------
 BYTE   W03
 BYTE   As3
 BYTE   W24
 BYTE   Fn3
 BYTE   W24
 BYTE   N92  En3
 BYTE   W44
 BYTE   W01
//  #07 //110   ----------------------------------------
 BYTE   PATT
  POIN2 Label_01006569
//  #07 //111   ----------------------------------------
 BYTE   W48
 BYTE   W03
 BYTE   N23  Fn2  v112
 BYTE   W24
 BYTE   Dn2
 BYTE   W21
//  #07 //112   ----------------------------------------
 BYTE   W03
 BYTE   As2
 BYTE   W24
 BYTE   Fn2
 BYTE   W24
 BYTE   Dn3
 BYTE   W24
 BYTE   As2
 BYTE   W21
//  #07 //113   ----------------------------------------
 BYTE   W03
 BYTE   Fn3
 BYTE   W24
 BYTE   Dn3
 BYTE   W24
 BYTE   N80  En3
 BYTE   W44
 BYTE   W01
//  #07 //114   ----------------------------------------
 BYTE   W36
 BYTE   W03
 BYTE   N11  Ds3
 BYTE   W12
 BYTE   N92  En3
 BYTE   W44
 BYTE   W01
//  #07 //115   ----------------------------------------
 BYTE   GoTo
  POIN2 Label_0100640A
//  #07 //116   ----------------------------------------
 BYTE   W96
//  #07 //117   ----------------------------------------
 BYTE   PAN   c_v+31
 BYTE   VOL   45*Dialga_mvl/mxv
 BYTE   PAN   c_v+31
 BYTE   VOL   45*Dialga_mvl/mxv
 BYTE   PAN   c_v+31
 BYTE   VOL   45*Dialga_mvl/mxv
 BYTE   BEND   c_v+0
 BYTE   FINE

//**************** Track 8 (Midi-Chn.7) ****************//

Dialga_008:
//  #08 //000   ----------------------------------------
 BYTE   KEYSH   Dialga_key+0
Label_0100679A:
 BYTE   VOICE   47
 BYTE   PAN   c_v-32
 BYTE   VOL   45*Dialga_mvl/mxv
 BYTE   PAN   c_v-32
 BYTE   VOL   45*Dialga_mvl/mxv
 BYTE   MOD 0
 BYTE   PAN   c_v-32
 BYTE   VOL   45*Dialga_mvl/mxv
 BYTE   MOD 0
 BYTE   PAN   c_v+0
 BYTE   VOL   45*Dialga_mvl/mxv
 BYTE   MOD 0
 BYTE   PAN   c_v+0
 BYTE   VOL   45*Dialga_mvl/mxv
 BYTE   MOD 0
 BYTE   PAN   c_v+0
 BYTE   VOL   45*Dialga_mvl/mxv
 BYTE   MOD 0
 BYTE   BEND   c_v+0
 BYTE   W96
//  #08 //001   ----------------------------------------
 BYTE   W96
//  #08 //002   ----------------------------------------
 BYTE   W96
//  #08 //003   ----------------------------------------
 BYTE   W96
//  #08 //004   ----------------------------------------
Label_010067C4:
 BYTE   PAN   c_v-32
 BYTE   N44  Cn2  v112
 BYTE   W48
 BYTE   PAN   c_v+32
 BYTE   N44
 BYTE   W48
 BYTE   PEND 
//  #08 //005   ----------------------------------------
Label_010067CF:
 BYTE   N44  Cn2  v112
 BYTE   W48
 BYTE   PAN   c_v-32
 BYTE   N44
 BYTE   W48
 BYTE   PEND 
//  #08 //006   ----------------------------------------
Label_010067D8:
 BYTE   PAN   c_v+32
 BYTE   N44  Cn2  v112
 BYTE   W48
 BYTE   PAN   c_v-32
 BYTE   N44
 BYTE   W48
 BYTE   PEND 
//  #08 //007   ----------------------------------------
Label_010067E3:
 BYTE   N44  Cn2  v112
 BYTE   W48
 BYTE   PAN   c_v+32
 BYTE   N44
 BYTE   W48
 BYTE   PEND 
//  #08 //008   ----------------------------------------
 BYTE   PATT
  POIN2 Label_010067C4
//  #08 //009   ----------------------------------------
 BYTE   PATT
  POIN2 Label_010067CF
//  #08 //010   ----------------------------------------
 BYTE   PATT
  POIN2 Label_010067D8
//  #08 //011   ----------------------------------------
 BYTE   PATT
  POIN2 Label_010067E3
//  #08 //012   ----------------------------------------
 BYTE   PATT
  POIN2 Label_010067C4
//  #08 //013   ----------------------------------------
 BYTE   PATT
  POIN2 Label_010067CF
//  #08 //014   ----------------------------------------
 BYTE   PATT
  POIN2 Label_010067D8
//  #08 //015   ----------------------------------------
 BYTE   PATT
  POIN2 Label_010067E3
//  #08 //016   ----------------------------------------
 BYTE   PATT
  POIN2 Label_010067C4
//  #08 //017   ----------------------------------------
 BYTE   PATT
  POIN2 Label_010067CF
//  #08 //018   ----------------------------------------
 BYTE   PATT
  POIN2 Label_010067D8
//  #08 //019   ----------------------------------------
 BYTE   PATT
  POIN2 Label_010067E3
//  #08 //020   ----------------------------------------
 BYTE   PATT
  POIN2 Label_010067C4
//  #08 //021   ----------------------------------------
 BYTE   PATT
  POIN2 Label_010067CF
//  #08 //022   ----------------------------------------
 BYTE   PATT
  POIN2 Label_010067D8
//  #08 //023   ----------------------------------------
 BYTE   PATT
  POIN2 Label_010067E3
//  #08 //024   ----------------------------------------
 BYTE   PATT
  POIN2 Label_010067C4
//  #08 //025   ----------------------------------------
 BYTE   PATT
  POIN2 Label_010067CF
//  #08 //026   ----------------------------------------
 BYTE   PATT
  POIN2 Label_010067D8
//  #08 //027   ----------------------------------------
 BYTE   PATT
  POIN2 Label_010067E3
//  #08 //028   ----------------------------------------
 BYTE   PATT
  POIN2 Label_010067C4
//  #08 //029   ----------------------------------------
 BYTE   PATT
  POIN2 Label_010067CF
//  #08 //030   ----------------------------------------
 BYTE   PATT
  POIN2 Label_010067D8
//  #08 //031   ----------------------------------------
 BYTE   PATT
  POIN2 Label_010067E3
//  #08 //032   ----------------------------------------
 BYTE   PATT
  POIN2 Label_010067C4
//  #08 //033   ----------------------------------------
 BYTE   PATT
  POIN2 Label_010067CF
//  #08 //034   ----------------------------------------
 BYTE   PATT
  POIN2 Label_010067D8
//  #08 //035   ----------------------------------------
 BYTE   PATT
  POIN2 Label_010067E3
//  #08 //036   ----------------------------------------
 BYTE   PATT
  POIN2 Label_010067C4
//  #08 //037   ----------------------------------------
 BYTE   PATT
  POIN2 Label_010067CF
//  #08 //038   ----------------------------------------
 BYTE   PATT
  POIN2 Label_010067D8
//  #08 //039   ----------------------------------------
 BYTE   PATT
  POIN2 Label_010067E3
//  #08 //040   ----------------------------------------
 BYTE   PATT
  POIN2 Label_010067C4
//  #08 //041   ----------------------------------------
 BYTE   PATT
  POIN2 Label_010067CF
//  #08 //042   ----------------------------------------
 BYTE   PATT
  POIN2 Label_010067D8
//  #08 //043   ----------------------------------------
 BYTE   PATT
  POIN2 Label_010067E3
//  #08 //044   ----------------------------------------
 BYTE   PATT
  POIN2 Label_010067C4
//  #08 //045   ----------------------------------------
 BYTE   PATT
  POIN2 Label_010067CF
//  #08 //046   ----------------------------------------
 BYTE   PATT
  POIN2 Label_010067D8
//  #08 //047   ----------------------------------------
 BYTE   PATT
  POIN2 Label_010067E3
//  #08 //048   ----------------------------------------
 BYTE   PAN   c_v-32
 BYTE   N44  Cn2  v112
 BYTE   W48
 BYTE   N68
 BYTE   W48
//  #08 //049   ----------------------------------------
Label_010068BC:
 BYTE   W24
 BYTE   PAN   c_v+39
 BYTE   N68  Cn2  v112
 BYTE   W72
 BYTE   PEND 
//  #08 //050   ----------------------------------------
Label_010068C4:
 BYTE   N68  Cn2  v112
 BYTE   W72
 BYTE   PAN   c_v-32
 BYTE   N68
 BYTE   W24
 BYTE   PEND 
//  #08 //051   ----------------------------------------
Label_010068CD:
 BYTE   W48
 BYTE   PAN   c_v+41
 BYTE   N68  Cn2  v112
 BYTE   W48
 BYTE   PEND 
//  #08 //052   ----------------------------------------
 BYTE   W24
 BYTE   PAN   c_v-32
 BYTE   N68
 BYTE   W72
//  #08 //053   ----------------------------------------
 BYTE   N68
 BYTE   W72
 BYTE   PAN   c_v+41
 BYTE   N68
 BYTE   W24
//  #08 //054   ----------------------------------------
Label_010068E0:
 BYTE   W48
 BYTE   PAN   c_v-32
 BYTE   N68  Cn2  v112
 BYTE   W48
 BYTE   PEND 
//  #08 //055   ----------------------------------------
 BYTE   PATT
  POIN2 Label_010068BC
//  #08 //056   ----------------------------------------
 BYTE   PATT
  POIN2 Label_010068C4
//  #08 //057   ----------------------------------------
 BYTE   PATT
  POIN2 Label_010068CD
//  #08 //058   ----------------------------------------
 BYTE   W24
 BYTE   PAN   c_v-32
 BYTE   W24
 BYTE   N68  Cn2  v112
 BYTE   W48
//  #08 //059   ----------------------------------------
 BYTE   W24
 BYTE   N68
 BYTE   W48
 BYTE   PAN   c_v+41
 BYTE   W24
//  #08 //060   ----------------------------------------
 BYTE   PATT
  POIN2 Label_010068C4
//  #08 //061   ----------------------------------------
Label_0100690A:
 BYTE   W48
 BYTE   PAN   c_v+39
 BYTE   N68  Cn2  v112
 BYTE   W48
 BYTE   PEND 
//  #08 //062   ----------------------------------------
 BYTE   W24
 BYTE   N68
 BYTE   W72
//  #08 //063   ----------------------------------------
 BYTE   PAN   c_v-32
 BYTE   N68
 BYTE   W72
 BYTE   PAN   c_v+41
 BYTE   N68
 BYTE   W24
//  #08 //064   ----------------------------------------
 BYTE   PATT
  POIN2 Label_010068E0
//  #08 //065   ----------------------------------------
 BYTE   W24
 BYTE   N68  Cn2  v112
 BYTE   W72
//  #08 //066   ----------------------------------------
 BYTE   PAN   c_v+41
 BYTE   N68
 BYTE   W72
 BYTE   PAN   c_v-32
 BYTE   N68
 BYTE   W24
//  #08 //067   ----------------------------------------
 BYTE   PATT
  POIN2 Label_0100690A
//  #08 //068   ----------------------------------------
 BYTE   W48
 BYTE   VOICE   40
 BYTE   PAN   c_v-32
 BYTE   N44  Cs2  v112
 BYTE   W48
//  #08 //069   ----------------------------------------
 BYTE   N68
 BYTE   W72
 BYTE   PAN   c_v+41
 BYTE   N23  Gs2
 BYTE   W24
//  #08 //070   ----------------------------------------
 BYTE   PAN   c_v-32
 BYTE   N23  Cs2
 BYTE   W24
 BYTE   PAN   c_v+40
 BYTE   N44  An1
 BYTE   W48
 BYTE   N68
 BYTE   W24
//  #08 //071   ----------------------------------------
 BYTE   W48
 BYTE   PAN   c_v-34
 BYTE   N23  En2
 BYTE   W24
 BYTE   PAN   c_v+40
 BYTE   N23  An1
 BYTE   W24
//  #08 //072   ----------------------------------------
 BYTE   PAN   c_v-33
 BYTE   N44  Bn1
 BYTE   W48
 BYTE   N68
 BYTE   W48
//  #08 //073   ----------------------------------------
 BYTE   W24
 BYTE   PAN   c_v+32
 BYTE   N23  Fs2
 BYTE   W24
 BYTE   PAN   c_v-32
 BYTE   N23  Bn1
 BYTE   W24
 BYTE   PAN   c_v+39
 BYTE   N44  Dn2
 BYTE   W24
//  #08 //074   ----------------------------------------
 BYTE   W24
 BYTE   N68
 BYTE   W72
//  #08 //075   ----------------------------------------
 BYTE   PAN   c_v-34
 BYTE   N23  An2
 BYTE   W24
 BYTE   PAN   c_v+39
 BYTE   N23  Dn2
 BYTE   W24
 BYTE   PAN   c_v-32
 BYTE   N44  Gs1
 BYTE   W48
//  #08 //076   ----------------------------------------
 BYTE   PAN   c_v+32
 BYTE   N44
 BYTE   W48
 BYTE   N44
 BYTE   W48
//  #08 //077   ----------------------------------------
 BYTE   PAN   c_v-32
 BYTE   N44
 BYTE   W48
 BYTE   PAN   c_v+32
 BYTE   N44
 BYTE   W48
//  #08 //078   ----------------------------------------
 BYTE   PAN   c_v-32
 BYTE   N44
 BYTE   W48
 BYTE   N44
 BYTE   W48
//  #08 //079   ----------------------------------------
 BYTE   PAN   c_v+32
 BYTE   N44
 BYTE   W48
 BYTE   PAN   c_v-32
 BYTE   N44  An1
 BYTE   W48
//  #08 //080   ----------------------------------------
 BYTE   PAN   c_v+32
 BYTE   N44
 BYTE   W48
 BYTE   N44
 BYTE   W48
//  #08 //081   ----------------------------------------
 BYTE   PAN   c_v-32
 BYTE   N44
 BYTE   W48
 BYTE   PAN   c_v+32
 BYTE   N44  Bn1
 BYTE   W48
//  #08 //082   ----------------------------------------
 BYTE   PAN   c_v-32
 BYTE   N44
 BYTE   W48
 BYTE   N44
 BYTE   W48
//  #08 //083   ----------------------------------------
 BYTE   PAN   c_v+32
 BYTE   N44
 BYTE   W48
 BYTE   PAN   c_v-32
 BYTE   N44  Cs2
 BYTE   W48
//  #08 //084   ----------------------------------------
 BYTE   PAN   c_v+32
 BYTE   N44
 BYTE   W48
 BYTE   N44
 BYTE   W48
//  #08 //085   ----------------------------------------
 BYTE   PAN   c_v-32
 BYTE   N44
 BYTE   W48
 BYTE   PAN   c_v+32
 BYTE   N44
 BYTE   W48
//  #08 //086   ----------------------------------------
 BYTE   PAN   c_v-32
 BYTE   N44
 BYTE   W48
 BYTE   N44
 BYTE   W48
//  #08 //087   ----------------------------------------
 BYTE   PAN   c_v+32
 BYTE   N44
 BYTE   W48
 BYTE   VOICE   47
 BYTE   PAN   c_v-1
 BYTE   N44  Cn2
 BYTE   W48
//  #08 //088   ----------------------------------------
Label_010069DE:
 BYTE   N44  Cn2  v112
 BYTE   W48
 BYTE   N44
 BYTE   W48
 BYTE   PEND 
//  #08 //089   ----------------------------------------
 BYTE   PATT
  POIN2 Label_010069DE
//  #08 //090   ----------------------------------------
 BYTE   PATT
  POIN2 Label_010069DE
//  #08 //091   ----------------------------------------
 BYTE   PATT
  POIN2 Label_010069DE
//  #08 //092   ----------------------------------------
 BYTE   PATT
  POIN2 Label_010069DE
//  #08 //093   ----------------------------------------
 BYTE   PATT
  POIN2 Label_010069DE
//  #08 //094   ----------------------------------------
 BYTE   PATT
  POIN2 Label_010069DE
//  #08 //095   ----------------------------------------
 BYTE   PATT
  POIN2 Label_010069DE
//  #08 //096   ----------------------------------------
 BYTE   PATT
  POIN2 Label_010069DE
//  #08 //097   ----------------------------------------
 BYTE   PATT
  POIN2 Label_010069DE
//  #08 //098   ----------------------------------------
 BYTE   PATT
  POIN2 Label_010069DE
//  #08 //099   ----------------------------------------
 BYTE   PATT
  POIN2 Label_010069DE
//  #08 //100   ----------------------------------------
 BYTE   PATT
  POIN2 Label_010069DE
//  #08 //101   ----------------------------------------
 BYTE   PATT
  POIN2 Label_010069DE
//  #08 //102   ----------------------------------------
 BYTE   PATT
  POIN2 Label_010069DE
//  #08 //103   ----------------------------------------
 BYTE   PATT
  POIN2 Label_010069DE
//  #08 //104   ----------------------------------------
 BYTE   PATT
  POIN2 Label_010069DE
//  #08 //105   ----------------------------------------
 BYTE   PATT
  POIN2 Label_010069DE
//  #08 //106   ----------------------------------------
 BYTE   PATT
  POIN2 Label_010069DE
//  #08 //107   ----------------------------------------
 BYTE   PATT
  POIN2 Label_010069DE
//  #08 //108   ----------------------------------------
 BYTE   PATT
  POIN2 Label_010069DE
//  #08 //109   ----------------------------------------
 BYTE   PATT
  POIN2 Label_010069DE
//  #08 //110   ----------------------------------------
 BYTE   PATT
  POIN2 Label_010069DE
//  #08 //111   ----------------------------------------
 BYTE   PATT
  POIN2 Label_010069DE
//  #08 //112   ----------------------------------------
 BYTE   PATT
  POIN2 Label_010069DE
//  #08 //113   ----------------------------------------
 BYTE   PATT
  POIN2 Label_010069DE
//  #08 //114   ----------------------------------------
 BYTE   PATT
  POIN2 Label_010069DE
//  #08 //115   ----------------------------------------
 BYTE   GoTo
  POIN2 Label_0100679A
//  #08 //116   ----------------------------------------
 BYTE   N44  Cn2  v112
 BYTE   W96
//  #08 //117   ----------------------------------------
 BYTE   VOICE   47
 BYTE   PAN   c_v-1
 BYTE   VOL   45*Dialga_mvl/mxv
 BYTE   MOD 0
 BYTE   PAN   c_v-1
 BYTE   VOL   45*Dialga_mvl/mxv
 BYTE   MOD 0
 BYTE   PAN   c_v-1
 BYTE   VOL   45*Dialga_mvl/mxv
 BYTE   MOD 0
 BYTE   BEND   c_v+0
 BYTE   FINE

//**************** Track 9 (Midi-Chn.8) ****************//

Dialga_009:
//  #09 //000   ----------------------------------------
 BYTE   KEYSH   Dialga_key+0
Label_01006A9A:
 BYTE   VOICE   124
 BYTE   PAN   c_v+0
 BYTE   VOL   41*Dialga_mvl/mxv
 BYTE   PAN   c_v+0
 BYTE   VOL   41*Dialga_mvl/mxv
 BYTE   MOD 0
 BYTE   PAN   c_v+0
 BYTE   VOL   41*Dialga_mvl/mxv
 BYTE   MOD 0
 BYTE   PAN   c_v+0
 BYTE   MOD 0
 BYTE   VOL   41*Dialga_mvl/mxv
 BYTE   PAN   c_v+0
 BYTE   VOL   41*Dialga_mvl/mxv
 BYTE   MOD 0
 BYTE   PAN   c_v+0
 BYTE   MOD 0
 BYTE   VOL   41*Dialga_mvl/mxv
 BYTE   BEND   c_v+0
 BYTE   W96
//  #09 //001   ----------------------------------------
 BYTE   W96
//  #09 //002   ----------------------------------------
 BYTE   W96
//  #09 //003   ----------------------------------------
 BYTE   W84
 BYTE   N11  En1  v112
 BYTE   W12
//  #09 //004   ----------------------------------------
Label_01006AC8:
 BYTE   N11  Cn1  v112
 BYTE   W12
 BYTE   Fs1  v080
 BYTE   W12
 BYTE   En1  v112
 BYTE   W12
 BYTE   Fs1  v080
 BYTE   W12
 BYTE   N11
 BYTE   W12
 BYTE   Cn1  v112
 BYTE   W12
 BYTE   En1
 BYTE   W12
 BYTE   Fs1  v080
 BYTE   W12
 BYTE   PEND 
//  #09 //005   ----------------------------------------
Label_01006AE0:
 BYTE   N11  Cn1  v112
 BYTE   W12
 BYTE   Fs1  v080
 BYTE   W12
 BYTE   En1  v112
 BYTE   W12
 BYTE   Fs1  v080
 BYTE   W12
 BYTE   N11
 BYTE   W12
 BYTE   Cn1  v112
 BYTE   W12
 BYTE   En1
 BYTE   W12
 BYTE   N11
 BYTE   W12
 BYTE   PEND 
//  #09 //006   ----------------------------------------
 BYTE   PATT
  POIN2 Label_01006AC8
//  #09 //007   ----------------------------------------
 BYTE   PATT
  POIN2 Label_01006AE0
//  #09 //008   ----------------------------------------
 BYTE   PATT
  POIN2 Label_01006AC8
//  #09 //009   ----------------------------------------
 BYTE   PATT
  POIN2 Label_01006AE0
//  #09 //010   ----------------------------------------
 BYTE   PATT
  POIN2 Label_01006AC8
//  #09 //011   ----------------------------------------
 BYTE   PATT
  POIN2 Label_01006AE0
//  #09 //012   ----------------------------------------
 BYTE   PATT
  POIN2 Label_01006AC8
//  #09 //013   ----------------------------------------
 BYTE   PATT
  POIN2 Label_01006AC8
//  #09 //014   ----------------------------------------
 BYTE   PATT
  POIN2 Label_01006AC8
//  #09 //015   ----------------------------------------
 BYTE   PATT
  POIN2 Label_01006AC8
//  #09 //016   ----------------------------------------
 BYTE   PATT
  POIN2 Label_01006AC8
//  #09 //017   ----------------------------------------
 BYTE   PATT
  POIN2 Label_01006AC8
//  #09 //018   ----------------------------------------
 BYTE   PATT
  POIN2 Label_01006AC8
//  #09 //019   ----------------------------------------
 BYTE   PATT
  POIN2 Label_01006AC8
//  #09 //020   ----------------------------------------
 BYTE   PATT
  POIN2 Label_01006AC8
//  #09 //021   ----------------------------------------
 BYTE   PATT
  POIN2 Label_01006AE0
//  #09 //022   ----------------------------------------
 BYTE   PATT
  POIN2 Label_01006AC8
//  #09 //023   ----------------------------------------
 BYTE   PATT
  POIN2 Label_01006AE0
//  #09 //024   ----------------------------------------
 BYTE   PATT
  POIN2 Label_01006AC8
//  #09 //025   ----------------------------------------
 BYTE   PATT
  POIN2 Label_01006AE0
//  #09 //026   ----------------------------------------
 BYTE   PATT
  POIN2 Label_01006AC8
//  #09 //027   ----------------------------------------
 BYTE   PATT
  POIN2 Label_01006AE0
//  #09 //028   ----------------------------------------
 BYTE   PATT
  POIN2 Label_01006AC8
//  #09 //029   ----------------------------------------
 BYTE   PATT
  POIN2 Label_01006AE0
//  #09 //030   ----------------------------------------
 BYTE   PATT
  POIN2 Label_01006AC8
//  #09 //031   ----------------------------------------
 BYTE   PATT
  POIN2 Label_01006AE0
//  #09 //032   ----------------------------------------
 BYTE   PATT
  POIN2 Label_01006AC8
//  #09 //033   ----------------------------------------
 BYTE   PATT
  POIN2 Label_01006AE0
//  #09 //034   ----------------------------------------
 BYTE   PATT
  POIN2 Label_01006AC8
//  #09 //035   ----------------------------------------
 BYTE   PATT
  POIN2 Label_01006AE0
//  #09 //036   ----------------------------------------
 BYTE   PATT
  POIN2 Label_01006AC8
//  #09 //037   ----------------------------------------
 BYTE   PATT
  POIN2 Label_01006AE0
//  #09 //038   ----------------------------------------
 BYTE   PATT
  POIN2 Label_01006AC8
//  #09 //039   ----------------------------------------
 BYTE   PATT
  POIN2 Label_01006AE0
//  #09 //040   ----------------------------------------
 BYTE   PATT
  POIN2 Label_01006AC8
//  #09 //041   ----------------------------------------
 BYTE   PATT
  POIN2 Label_01006AE0
//  #09 //042   ----------------------------------------
 BYTE   PATT
  POIN2 Label_01006AC8
//  #09 //043   ----------------------------------------
 BYTE   N11  En1  v112
 BYTE   W12
 BYTE   Cn1
 BYTE   W12
 BYTE   En1
 BYTE   W12
 BYTE   Fs1  v080
 BYTE   W12
 BYTE   Cn1  v112
 BYTE   W12
 BYTE   En1
 BYTE   W12
 BYTE   N11
 BYTE   W12
 BYTE   N11
 BYTE   W12
//  #09 //044   ----------------------------------------
 BYTE   PATT
  POIN2 Label_01006AC8
//  #09 //045   ----------------------------------------
 BYTE   PATT
  POIN2 Label_01006AE0
//  #09 //046   ----------------------------------------
 BYTE   PATT
  POIN2 Label_01006AC8
//  #09 //047   ----------------------------------------
 BYTE   N11  Cn1  v112
 BYTE   W12
 BYTE   Fs1  v080
 BYTE   W12
 BYTE   En1  v112
 BYTE   W12
 BYTE   Fs1  v080
 BYTE   W12
 BYTE   N44  Cn1  v112
 BYTE   W48
//  #09 //048   ----------------------------------------
 BYTE   N44
 BYTE   W48
 BYTE   N23
 BYTE   W24
 BYTE   N23
 BYTE   W24
//  #09 //049   ----------------------------------------
Label_01006BEA:
 BYTE   N23  Cn1  v112
 BYTE   W24
 BYTE   N23
 BYTE   W24
 BYTE   N23
 BYTE   W24
 BYTE   N23
 BYTE   W24
 BYTE   PEND 
//  #09 //050   ----------------------------------------
 BYTE   PATT
  POIN2 Label_01006BEA
//  #09 //051   ----------------------------------------
 BYTE   PATT
  POIN2 Label_01006BEA
//  #09 //052   ----------------------------------------
 BYTE   PATT
  POIN2 Label_01006BEA
//  #09 //053   ----------------------------------------
 BYTE   PATT
  POIN2 Label_01006BEA
//  #09 //054   ----------------------------------------
 BYTE   PATT
  POIN2 Label_01006BEA
//  #09 //055   ----------------------------------------
 BYTE   PATT
  POIN2 Label_01006BEA
//  #09 //056   ----------------------------------------
 BYTE   PATT
  POIN2 Label_01006BEA
//  #09 //057   ----------------------------------------
 BYTE   PATT
  POIN2 Label_01006BEA
//  #09 //058   ----------------------------------------
 BYTE   N23  Cn1  v112
 BYTE   W24
 BYTE   N23
 BYTE   W24
 BYTE   N23
 BYTE   W24
 BYTE   En1
 BYTE   W24
//  #09 //059   ----------------------------------------
Label_01006C27:
 BYTE   N23  Cn1  v112
 BYTE   W24
 BYTE   En1
 BYTE   W24
 BYTE   Cn1
 BYTE   W24
 BYTE   En1
 BYTE   W24
 BYTE   PEND 
//  #09 //060   ----------------------------------------
 BYTE   PATT
  POIN2 Label_01006C27
//  #09 //061   ----------------------------------------
 BYTE   PATT
  POIN2 Label_01006C27
//  #09 //062   ----------------------------------------
 BYTE   PATT
  POIN2 Label_01006C27
//  #09 //063   ----------------------------------------
 BYTE   PATT
  POIN2 Label_01006C27
//  #09 //064   ----------------------------------------
 BYTE   PATT
  POIN2 Label_01006C27
//  #09 //065   ----------------------------------------
 BYTE   PATT
  POIN2 Label_01006C27
//  #09 //066   ----------------------------------------
 BYTE   PATT
  POIN2 Label_01006C27
//  #09 //067   ----------------------------------------
 BYTE   PATT
  POIN2 Label_01006C27
//  #09 //068   ----------------------------------------
 BYTE   N11  Cn1  v112
 BYTE   W12
 BYTE   N23  En1
 BYTE   W24
 BYTE   N11
 BYTE   W12
 BYTE   N23  Cn1
 BYTE   W24
 BYTE   En1
 BYTE   W24
//  #09 //069   ----------------------------------------
 BYTE   N11  Cn1
 BYTE   W12
 BYTE   N11
 BYTE   W12
 BYTE   N23  En1
 BYTE   W24
 BYTE   N11  Cn1
 BYTE   W12
 BYTE   N11
 BYTE   W12
 BYTE   N23  En1
 BYTE   W24
//  #09 //070   ----------------------------------------
 BYTE   N23
 BYTE   W24
 BYTE   Cn1
 BYTE   W24
 BYTE   En1
 BYTE   W24
 BYTE   N11  Cn1
 BYTE   W12
 BYTE   N11
 BYTE   W12
//  #09 //071   ----------------------------------------
 BYTE   N23  En1
 BYTE   W24
 BYTE   N11  Cn1
 BYTE   W12
 BYTE   N11
 BYTE   W12
 BYTE   N23  En1
 BYTE   W24
 BYTE   N23
 BYTE   W24
//  #09 //072   ----------------------------------------
 BYTE   Cn1
 BYTE   W24
 BYTE   En1
 BYTE   W24
 BYTE   N11  Cn1
 BYTE   W12
 BYTE   N11
 BYTE   W12
 BYTE   N23  En1
 BYTE   W24
//  #09 //073   ----------------------------------------
 BYTE   N11  Cn1
 BYTE   W12
 BYTE   N11
 BYTE   W12
 BYTE   N23  En1
 BYTE   W24
 BYTE   N23
 BYTE   W24
 BYTE   N11  Cn1
 BYTE   W12
 BYTE   N11
 BYTE   W12
//  #09 //074   ----------------------------------------
 BYTE   N23  En1
 BYTE   W24
 BYTE   N23
 BYTE   W24
 BYTE   N11  Cn1
 BYTE   W12
 BYTE   En1
 BYTE   W12
 BYTE   Cn1
 BYTE   W12
 BYTE   En1
 BYTE   W12
//  #09 //075   ----------------------------------------
 BYTE   N11
 BYTE   W24
 BYTE   N11
 BYTE   W12
 BYTE   N11
 BYTE   W12
 BYTE   Cn1
 BYTE   W12
 BYTE   Gn1
 BYTE   W12
 BYTE   Ds1
 BYTE   W12
 BYTE   Gn1
 BYTE   W12
//  #09 //076   ----------------------------------------
Label_01006CC7:
 BYTE   N11  Gn1  v112
 BYTE   W12
 BYTE   Cn1
 BYTE   W12
 BYTE   Ds1
 BYTE   W12
 BYTE   Gn1
 BYTE   W12
 BYTE   Cn1
 BYTE   W12
 BYTE   Gn1
 BYTE   W12
 BYTE   Ds1
 BYTE   W12
 BYTE   Gn1
 BYTE   W12
 BYTE   PEND 
//  #09 //077   ----------------------------------------
Label_01006CDA:
 BYTE   N11  Gn1  v112
 BYTE   W12
 BYTE   Cn1
 BYTE   W12
 BYTE   Ds1
 BYTE   W12
 BYTE   N11
 BYTE   W12
 BYTE   Cn1
 BYTE   W12
 BYTE   Gn1
 BYTE   W12
 BYTE   Ds1
 BYTE   W12
 BYTE   Gn1
 BYTE   W12
 BYTE   PEND 
//  #09 //078   ----------------------------------------
 BYTE   PATT
  POIN2 Label_01006CC7
//  #09 //079   ----------------------------------------
 BYTE   PATT
  POIN2 Label_01006CDA
//  #09 //080   ----------------------------------------
 BYTE   PATT
  POIN2 Label_01006CC7
//  #09 //081   ----------------------------------------
 BYTE   N11  Gn1  v112
 BYTE   W12
 BYTE   Cn1
 BYTE   W12
 BYTE   Ds1
 BYTE   W12
 BYTE   N11
 BYTE   W12
 BYTE   N11
 BYTE   W12
 BYTE   Gs1
 BYTE   W12
 BYTE   Gn1
 BYTE   W12
 BYTE   Gs1
 BYTE   W12
//  #09 //082   ----------------------------------------
 BYTE   N11
 BYTE   W12
 BYTE   Ds1
 BYTE   W12
 BYTE   Gn1
 BYTE   W12
 BYTE   Gs1
 BYTE   W12
 BYTE   Ds1
 BYTE   W12
 BYTE   Gs1
 BYTE   W12
 BYTE   Gn1
 BYTE   W12
 BYTE   Gs1
 BYTE   W12
//  #09 //083   ----------------------------------------
 BYTE   Ds1
 BYTE   W12
 BYTE   Gn1
 BYTE   W24
 BYTE   N11
 BYTE   W12
 BYTE   Fn1
 BYTE   W12
 BYTE   Cn2
 BYTE   W12
 BYTE   Gs1
 BYTE   W12
 BYTE   Cn2
 BYTE   W12
//  #09 //084   ----------------------------------------
Label_01006D2C:
 BYTE   N11  Cn2  v112
 BYTE   W12
 BYTE   Fn1
 BYTE   W12
 BYTE   Gs1
 BYTE   W12
 BYTE   Cn2
 BYTE   W12
 BYTE   Fn1
 BYTE   W12
 BYTE   Cn2
 BYTE   W12
 BYTE   Gs1
 BYTE   W12
 BYTE   Cn2
 BYTE   W12
 BYTE   PEND 
//  #09 //085   ----------------------------------------
 BYTE   Fn1
 BYTE   W12
 BYTE   Gs1
 BYTE   W24
 BYTE   N11
 BYTE   W12
 BYTE   Fn1
 BYTE   W12
 BYTE   Cn2
 BYTE   W12
 BYTE   Gs1
 BYTE   W12
 BYTE   Cn2
 BYTE   W12
//  #09 //086   ----------------------------------------
 BYTE   PATT
  POIN2 Label_01006D2C
//  #09 //087   ----------------------------------------
 BYTE   N11  Fn1  v112
 BYTE   W12
 BYTE   Cn2
 BYTE   W12
 BYTE   Gn1
 BYTE   W12
 BYTE   Fn1
 BYTE   W12
 BYTE   TIE  An2
 BYTE   W48
//  #09 //088   ----------------------------------------
 BYTE   W92
 BYTE   W03
 BYTE   EOT
 BYTE   W01
//  #09 //089   ----------------------------------------
 BYTE   PAN   c_v-50
 BYTE   W03
 BYTE   PAN   c_v-45
 BYTE   W04
 BYTE   PAN   c_v-43
 BYTE   W01
 BYTE   VOL   5*Dialga_mvl/mxv
 BYTE   BEND   c_v-1
 BYTE   N56  Ds1
 BYTE   W03
 BYTE   PAN   c_v-39
 BYTE   BEND   c_v-1
 BYTE   W04
 BYTE   PAN   c_v-29
 BYTE   BEND   c_v-1
 BYTE   W04
 BYTE   PAN   c_v-27
 BYTE   VOL   6*Dialga_mvl/mxv
 BYTE   BEND   c_v+0
 BYTE   W04
 BYTE   PAN   c_v-25
 BYTE   VOL   8*Dialga_mvl/mxv
 BYTE   BEND   c_v+0
 BYTE   W04
 BYTE   PAN   c_v-19
 BYTE   VOL   11*Dialga_mvl/mxv
 BYTE   BEND   c_v+0
 BYTE   W04
 BYTE   PAN   c_v-12
 BYTE   VOL   15*Dialga_mvl/mxv
 BYTE   BEND   c_v+0
 BYTE   W04
 BYTE   PAN   c_v-3
 BYTE   VOL   20*Dialga_mvl/mxv
 BYTE   BEND   c_v+0
 BYTE   W04
 BYTE   PAN   c_v-2
 BYTE   VOL   25*Dialga_mvl/mxv
 BYTE   BEND   c_v+0
 BYTE   W04
 BYTE   PAN   c_v+9
 BYTE   VOL   30*Dialga_mvl/mxv
 BYTE   BEND   c_v-1
 BYTE   W04
 BYTE   PAN   c_v+16
 BYTE   VOL   35*Dialga_mvl/mxv
 BYTE   BEND   c_v-1
 BYTE   W04
 BYTE   PAN   c_v+23
 BYTE   VOL   41*Dialga_mvl/mxv
 BYTE   BEND   c_v-1
 BYTE   W01
 BYTE   VOL   39*Dialga_mvl/mxv
 BYTE   W03
 BYTE   VOL   42*Dialga_mvl/mxv
 BYTE   PAN   c_v+29
 BYTE   BEND   c_v-1
 BYTE   W04
 BYTE   VOL   38*Dialga_mvl/mxv
 BYTE   BEND   c_v+0
 BYTE   W04
 BYTE   VOL   34*Dialga_mvl/mxv
 BYTE   W04
 BYTE   VOL   25*Dialga_mvl/mxv
 BYTE   W01
 BYTE   N56  Fs3
 BYTE   W03
 BYTE   VOL   3*Dialga_mvl/mxv
 BYTE   W04
 BYTE   VOL   6*Dialga_mvl/mxv
 BYTE   W04
 BYTE   VOL   12*Dialga_mvl/mxv
 BYTE   W01
 BYTE   PAN   c_v+48
 BYTE   BEND   c_v+1
 BYTE   W03
 BYTE   PAN   c_v+41
 BYTE   VOL   15*Dialga_mvl/mxv
 BYTE   BEND   c_v+1
 BYTE   W01
 BYTE   BEND   c_v+0
 BYTE   W03
 BYTE   PAN   c_v+40
 BYTE   VOL   21*Dialga_mvl/mxv
 BYTE   BEND   c_v+0
 BYTE   W04
 BYTE   PAN   c_v+34
 BYTE   VOL   32*Dialga_mvl/mxv
 BYTE   BEND   c_v+0
 BYTE   W04
 BYTE   PAN   c_v+29
 BYTE   VOL   38*Dialga_mvl/mxv
 BYTE   BEND   c_v+0
 BYTE   W01
//  #09 //090   ----------------------------------------
 BYTE   W03
 BYTE   VOL   38*Dialga_mvl/mxv
 BYTE   PAN   c_v+21
 BYTE   BEND   c_v-1
 BYTE   W04
 BYTE   VOL   39*Dialga_mvl/mxv
 BYTE   PAN   c_v-33
 BYTE   W04
 BYTE   VOL   37*Dialga_mvl/mxv
 BYTE   PAN   c_v-50
 BYTE   BEND   c_v-1
 BYTE   W04
 BYTE   VOL   34*Dialga_mvl/mxv
 BYTE   PAN   c_v-52
 BYTE   BEND   c_v-1
 BYTE   W04
 BYTE   VOL   17*Dialga_mvl/mxv
 BYTE   BEND   c_v-2
 BYTE   W04
 BYTE   VOL   8*Dialga_mvl/mxv
 BYTE   BEND   c_v-2
 BYTE   W04
 BYTE   VOL   1*Dialga_mvl/mxv
 BYTE   BEND   c_v-2
 BYTE   W05
 BYTE   VOL   6*Dialga_mvl/mxv
 BYTE   W03
 BYTE   VOL   12*Dialga_mvl/mxv
 BYTE   W01
 BYTE   VOL   8*Dialga_mvl/mxv
 BYTE   BEND   c_v-1
 BYTE   N68  Gn1
 BYTE   W03
 BYTE   VOL   10*Dialga_mvl/mxv
 BYTE   BEND   c_v-1
 BYTE   W01
 BYTE   VOL   8*Dialga_mvl/mxv
 BYTE   W03
 BYTE   VOL   12*Dialga_mvl/mxv
 BYTE   BEND   c_v-1
 BYTE   W01
 BYTE   PAN   c_v-45
 BYTE   W03
 BYTE   VOL   22*Dialga_mvl/mxv
 BYTE   PAN   c_v-39
 BYTE   BEND   c_v+0
 BYTE   W04
 BYTE   PAN   c_v-28
 BYTE   BEND   c_v+0
 BYTE   W04
 BYTE   VOL   29*Dialga_mvl/mxv
 BYTE   PAN   c_v-21
 BYTE   BEND   c_v+0
 BYTE   W04
 BYTE   VOL   36*Dialga_mvl/mxv
 BYTE   PAN   c_v-11
 BYTE   BEND   c_v+0
 BYTE   W04
 BYTE   VOL   45*Dialga_mvl/mxv
 BYTE   PAN   c_v+3
 BYTE   BEND   c_v+0
 BYTE   W01
 BYTE   VOL   38*Dialga_mvl/mxv
 BYTE   BEND   c_v+0
 BYTE   W03
 BYTE   VOL   39*Dialga_mvl/mxv
 BYTE   PAN   c_v+21
 BYTE   BEND   c_v+0
 BYTE   W04
 BYTE   VOL   38*Dialga_mvl/mxv
 BYTE   PAN   c_v+35
 BYTE   BEND   c_v+0
 BYTE   W04
 BYTE   VOL   36*Dialga_mvl/mxv
 BYTE   BEND   c_v+0
 BYTE   W04
 BYTE   VOL   35*Dialga_mvl/mxv
 BYTE   BEND   c_v+0
 BYTE   W01
 BYTE   BEND   c_v-1
 BYTE   W03
 BYTE   VOL   32*Dialga_mvl/mxv
 BYTE   BEND   c_v+0
 BYTE   W04
 BYTE   VOL   29*Dialga_mvl/mxv
 BYTE   BEND   c_v+0
 BYTE   W04
 BYTE   VOL   26*Dialga_mvl/mxv
 BYTE   BEND   c_v+1
 BYTE   W01
 BYTE   PAN   c_v-34
 BYTE   W03
 BYTE   VOL   22*Dialga_mvl/mxv
 BYTE   W01
//  #09 //091   ----------------------------------------
 BYTE   W03
 BYTE   VOL   17*Dialga_mvl/mxv
 BYTE   W09
 BYTE   PAN   c_v+0
 BYTE   VOL   40*Dialga_mvl/mxv
 BYTE   BEND   c_v+0
 BYTE   N11  En1
 BYTE   W12
 BYTE   N11
 BYTE   W12
 BYTE   N11
 BYTE   W12
 BYTE   Cn1
 BYTE   W12
 BYTE   Fs1  v080
 BYTE   W12
 BYTE   En1  v112
 BYTE   W12
 BYTE   Fs1  v080
 BYTE   W12
//  #09 //092   ----------------------------------------
Label_01006EAE:
 BYTE   N11  Fs1  v080
 BYTE   W12
 BYTE   Cn1  v112
 BYTE   W12
 BYTE   En1
 BYTE   W12
 BYTE   Fs1  v080
 BYTE   W12
 BYTE   Cn1  v112
 BYTE   W12
 BYTE   Fs1  v080
 BYTE   W12
 BYTE   En1  v112
 BYTE   W12
 BYTE   Fs1  v080
 BYTE   W12
 BYTE   PEND 
//  #09 //093   ----------------------------------------
Label_01006EC7:
 BYTE   N11  Fs1  v080
 BYTE   W12
 BYTE   Cn1  v112
 BYTE   W12
 BYTE   En1
 BYTE   W12
 BYTE   N11
 BYTE   W12
 BYTE   Cn1
 BYTE   W12
 BYTE   Fs1  v080
 BYTE   W12
 BYTE   En1  v112
 BYTE   W12
 BYTE   Fs1  v080
 BYTE   W12
 BYTE   PEND 
//  #09 //094   ----------------------------------------
 BYTE   PATT
  POIN2 Label_01006EAE
//  #09 //095   ----------------------------------------
 BYTE   N11  Fs1  v080
 BYTE   W12
 BYTE   En1  v112
 BYTE   W12
 BYTE   N11
 BYTE   W12
 BYTE   N11
 BYTE   W12
 BYTE   Cn1
 BYTE   W12
 BYTE   Fs1  v080
 BYTE   W12
 BYTE   En1  v112
 BYTE   W12
 BYTE   Fs1  v080
 BYTE   W12
//  #09 //096   ----------------------------------------
 BYTE   PATT
  POIN2 Label_01006EAE
//  #09 //097   ----------------------------------------
 BYTE   PATT
  POIN2 Label_01006EAE
//  #09 //098   ----------------------------------------
 BYTE   PATT
  POIN2 Label_01006EAE
//  #09 //099   ----------------------------------------
 BYTE   PATT
  POIN2 Label_01006EAE
//  #09 //100   ----------------------------------------
 BYTE   PATT
  POIN2 Label_01006EAE
//  #09 //101   ----------------------------------------
 BYTE   PATT
  POIN2 Label_01006EAE
//  #09 //102   ----------------------------------------
 BYTE   PATT
  POIN2 Label_01006EAE
//  #09 //103   ----------------------------------------
 BYTE   PATT
  POIN2 Label_01006EAE
//  #09 //104   ----------------------------------------
 BYTE   PATT
  POIN2 Label_01006EAE
//  #09 //105   ----------------------------------------
 BYTE   PATT
  POIN2 Label_01006EC7
//  #09 //106   ----------------------------------------
 BYTE   N11  Fs1  v080
 BYTE   W12
 BYTE   Cn1  v112
 BYTE   W12
 BYTE   En1
 BYTE   W12
 BYTE   Fs1  v080
 BYTE   W12
 BYTE   Cn1  v112
 BYTE   W12
 BYTE   En1
 BYTE   W12
 BYTE   N11
 BYTE   W12
 BYTE   Fs1  v080
 BYTE   W12
//  #09 //107   ----------------------------------------
 BYTE   En1  v112
 BYTE   W12
 BYTE   N11
 BYTE   W12
 BYTE   N11
 BYTE   W12
 BYTE   N11
 BYTE   W12
 BYTE   Cn1
 BYTE   W12
 BYTE   Fs1  v080
 BYTE   W12
 BYTE   En1  v112
 BYTE   W12
 BYTE   Fs1  v080
 BYTE   W12
//  #09 //108   ----------------------------------------
 BYTE   PATT
  POIN2 Label_01006EAE
//  #09 //109   ----------------------------------------
 BYTE   PATT
  POIN2 Label_01006EC7
//  #09 //110   ----------------------------------------
 BYTE   PATT
  POIN2 Label_01006EAE
//  #09 //111   ----------------------------------------
 BYTE   PATT
  POIN2 Label_01006EC7
//  #09 //112   ----------------------------------------
 BYTE   PATT
  POIN2 Label_01006EAE
//  #09 //113   ----------------------------------------
 BYTE   PATT
  POIN2 Label_01006EC7
//  #09 //114   ----------------------------------------
 BYTE   PATT
  POIN2 Label_01006EAE
//  #09 //115   ----------------------------------------
 BYTE   GoTo
  POIN2 Label_01006A9A
//  #09 //116   ----------------------------------------
 BYTE   N11  Fs1  v080
 BYTE   W12
 BYTE   Cn1  v112
 BYTE   W12
 BYTE   En1
 BYTE   W12
 BYTE   N11
 BYTE   W60
//  #09 //117   ----------------------------------------
 BYTE   PAN   c_v+0
 BYTE   VOL   40*Dialga_mvl/mxv
 BYTE   MOD 0
 BYTE   PAN   c_v+0
 BYTE   VOL   40*Dialga_mvl/mxv
 BYTE   MOD 0
 BYTE   PAN   c_v+0
 BYTE   VOL   40*Dialga_mvl/mxv
 BYTE   MOD 0
 BYTE   BEND   c_v+0
 BYTE   FINE

//******************************************************//
	ALIGN 4

Dialga:
	BYTE	9	// NumTrks
	BYTE	0	// NumBlks
	BYTE	Dialga_pri	// Priority
	BYTE	Dialga_rev	// Reverb.
    
	POIN2	Dialga_grp
    
	POIN2	Dialga_001
	POIN2	Dialga_002
	POIN2	Dialga_003
	POIN2	Dialga_004
	POIN2	Dialga_005
	POIN2	Dialga_006
	POIN2	Dialga_007
	POIN2	Dialga_008
	POIN2	Dialga_009

	
