//Event file generated from Sappy .s format.
	#include "MPlayDef.event"

	#define	DickGumshoe_grp  voicegroup000
	#define	DickGumshoe_pri  0
	#define	DickGumshoe_rev  0
	#define	DickGumshoe_mvl  127
	#define	DickGumshoe_key  0
	#define	DickGumshoe_tbs  1
	#define	DickGumshoe_exg  0
	#define	DickGumshoe_cmp  1

	// .rodata
	//	DickGumshoe
	ALIGN 4


//**************** Track 1 (Midi-Chn.0) ****************//

DickGumshoe_001:
//  #01 //000   ----------------------------------------
 BYTE   KEYSH   DickGumshoe_key+0
 BYTE   TEMPO   100*DickGumshoe_tbs/2
 BYTE   VOICE   91
 BYTE   VOL   60*DickGumshoe_mvl/mxv
 BYTE   W12
 BYTE   N09  As2  v064
 BYTE   N09  Dn3  v096
 BYTE   W12
 BYTE   N90  Cn3  v064
 BYTE   N90  Ds3  v096
 BYTE   W72
//  #01 //001   ----------------------------------------
Label_0100531F:
 BYTE   W24
 BYTE   N15  As2  v064
 BYTE   N15  Dn3  v096
 BYTE   W18
 BYTE   Gn2  v064
 BYTE   N15  As2  v096
 BYTE   W18
 BYTE   N09  En2  v064
 BYTE   N09  Gn2  v096
 BYTE   W12
 BYTE   N96  Gn2  v064
 BYTE   N96  Cn3  v096
 BYTE   W24
//  #01 //002   ----------------------------------------
 BYTE   W96
//  #01 //003   ----------------------------------------
Label_0100533C:
 BYTE   W60
 BYTE   N09  As2  v064
 BYTE   N09  Dn3  v096
 BYTE   W12
 BYTE   N90  Cn3  v064
 BYTE   N90  Ds3  v096
 BYTE   W24
 BYTE   PEND 
//  #01 //004   ----------------------------------------
Label_0100534C:
 BYTE   W72
 BYTE   N15  As2  v064
 BYTE   N15  Dn3  v096
 BYTE   W18
 BYTE   Gn2  v064
 BYTE   N15  As2  v096
 BYTE   W06
 BYTE   PEND 
//  #01 //005   ----------------------------------------
 BYTE   W12
 BYTE   N09  En2  v064
 BYTE   N09  Gn2  v096
 BYTE   W12
 BYTE   N30  Cn3  v064
 BYTE   N30  Fn3  v096
 BYTE   W36
 BYTE   N84  Cn3  v064
 BYTE   N84  Ds3  v096
 BYTE   W36
//  #01 //006   ----------------------------------------
 BYTE   W96
//  #01 //007   ----------------------------------------
Label_01005372:
 BYTE   W12
 BYTE   N09  As2  v064
 BYTE   N09  Dn3  v096
 BYTE   W12
 BYTE   N90  Cn3  v064
 BYTE   N90  Ds3  v096
 BYTE   W72
 BYTE   PEND 
//  #01 //008   ----------------------------------------
 BYTE   W24
 BYTE   N15  As2  v064
 BYTE   N15  Dn3  v096
 BYTE   W18
 BYTE   Gn2  v064
 BYTE   N15  As2  v096
 BYTE   W18
 BYTE   N09  En2  v064
 BYTE   N09  Gn2  v096
 BYTE   W12
 BYTE   N96  Gs2  v064
 BYTE   N96  Cn3  v096
 BYTE   W24
//  #01 //009   ----------------------------------------
 BYTE   W96
//  #01 //010   ----------------------------------------
 BYTE   PATT
  POIN2 Label_0100533C
//  #01 //011   ----------------------------------------
 BYTE   PATT
  POIN2 Label_0100534C
//  #01 //012   ----------------------------------------
 BYTE   W12
 BYTE   N09  En2  v064
 BYTE   N09  Gn2  v096
 BYTE   W12
 BYTE   N30  Cn3  v064
 BYTE   N30  Fn3  v096
 BYTE   W36
 BYTE   N54  Cn3  v064
 BYTE   N54  Ds3  v096
 BYTE   W36
//  #01 //013   ----------------------------------------
 BYTE   W24
 BYTE   N30  Gs2  v064
 BYTE   N30  Gn3  v096
 BYTE   W36
 BYTE   N54  Gs2  v064
 BYTE   N54  Fn3  v096
 BYTE   W36
//  #01 //014   ----------------------------------------
Label_010053CE:
 BYTE   W24
 BYTE   N09  As2  v064
 BYTE   N09  Ds3  v096
 BYTE   W18
 BYTE   As2  v064
 BYTE   N09  Fn3  v096
 BYTE   W18
 BYTE   As2  v064
 BYTE   N09  Ds3  v096
 BYTE   W12
 BYTE   Ds3  v064
 BYTE   N09  As3  v096
 BYTE   W18
 BYTE   As2  v064
 BYTE   N09  Fn3  v096
 BYTE   W06
 BYTE   PEND 
//  #01 //015   ----------------------------------------
Label_010053EF:
 BYTE   W12
 BYTE   N09  As2  v064
 BYTE   N09  Ds3  v096
 BYTE   W12
 BYTE   N48  As2  v064
 BYTE   N48  Ds3  v096
 BYTE   W48
 BYTE   N24  Cn3  v064
 BYTE   N24  Ds3  v096
 BYTE   W24
 BYTE   PEND 
//  #01 //016   ----------------------------------------
Label_01005406:
 BYTE   N24  Dn3  v064
 BYTE   N24  Fn3  v096
 BYTE   W24
 BYTE   N09  As2  v064
 BYTE   N09  Ds3  v096
 BYTE   W18
 BYTE   As2  v064
 BYTE   N09  Fn3  v096
 BYTE   W18
 BYTE   As2  v064
 BYTE   N09  Ds3  v096
 BYTE   W12
 BYTE   Ds3  v064
 BYTE   N09  Gs3  v096
 BYTE   W18
 BYTE   As2  v064
 BYTE   N09  Gn3  v096
 BYTE   W06
 BYTE   PEND 
//  #01 //017   ----------------------------------------
 BYTE   W12
 BYTE   Cn3  v064
 BYTE   N09  Ds3  v096
 BYTE   W12
 BYTE   N30  Ds3  v064
 BYTE   N30  Gn3  v096
 BYTE   W36
 BYTE   N04  Fn3  v064
 BYTE   N04  Gs3  v096
 BYTE   W06
 BYTE   Ds3  v064
 BYTE   N04  Gn3  v096
 BYTE   W06
 BYTE   N48  Dn3  v064
 BYTE   N48  Fn3  v096
 BYTE   W24
//  #01 //018   ----------------------------------------
 BYTE   PATT
  POIN2 Label_010053CE
//  #01 //019   ----------------------------------------
 BYTE   PATT
  POIN2 Label_010053EF
//  #01 //020   ----------------------------------------
 BYTE   PATT
  POIN2 Label_01005406
//  #01 //021   ----------------------------------------
 BYTE   W12
 BYTE   N09  Cn3  v064
 BYTE   N09  Ds3  v096
 BYTE   W12
 BYTE   N30  Ds3  v064
 BYTE   N30  Gn3  v096
 BYTE   W36
 BYTE   N04  Fn3  v064
 BYTE   N04  Gs3  v096
 BYTE   W06
 BYTE   Ds3  v064
 BYTE   N04  Gn3  v096
 BYTE   W06
 BYTE   N24  Dn3  v064
 BYTE   N24  Fn3  v096
 BYTE   W24
//  #01 //022   ----------------------------------------
 BYTE   N09  Ds3
 BYTE   W12
 BYTE   Dn3
 BYTE   W12
 BYTE   N30  Gn2  v064
 BYTE   N30  Dn3  v096
 BYTE   W36
 BYTE   N54  Gn2  v064
 BYTE   N54  Cn3  v096
 BYTE   W36
//  #01 //023   ----------------------------------------
 BYTE   W24
 BYTE   N30  As2  v064
 BYTE   N30  Ds3  v096
 BYTE   W36
 BYTE   N48  As2  v064
 BYTE   N48  Dn3  v096
 BYTE   W36
//  #01 //024   ----------------------------------------
 BYTE   W96
//  #01 //025   ----------------------------------------
 BYTE   PATT
  POIN2 Label_01005372
//  #01 //026   ----------------------------------------
 BYTE   GoTo
  POIN2 Label_0100531F
//  #01 //027   ----------------------------------------
 BYTE   W24
 BYTE   N15  As2  v064
 BYTE   N15  Dn3  v096
 BYTE   W18
 BYTE   Gn2  v064
 BYTE   N15  As2  v096
 BYTE   W18
 BYTE   N09  En2  v064
 BYTE   N09  Gn2  v096
 BYTE   W36
 BYTE   FINE

//**************** Track 2 (Midi-Chn.1) ****************//

DickGumshoe_002:
//  #02 //000   ----------------------------------------
 BYTE   KEYSH   DickGumshoe_key+0
 BYTE   VOICE   36
 BYTE   VOL   21*DickGumshoe_mvl/mxv
 BYTE   W24
 BYTE   N06  Cn2  v127
 BYTE   W06
 BYTE   N06
 BYTE   W66
//  #02 //001   ----------------------------------------
Label_FB3345:
 BYTE   W12
 BYTE   N06  Cn2  v127
 BYTE   W12
 BYTE   N06
 BYTE   W18
 BYTE   N06
 BYTE   W18
 BYTE   N06
 BYTE   W12
 BYTE   N06
 BYTE   W06
 BYTE   N06
 BYTE   W18
 BYTE   PEND 
//  #02 //002   ----------------------------------------
 BYTE   W60
 BYTE   N12
 BYTE   W12
 BYTE   N06
 BYTE   W18
 BYTE   N06
 BYTE   W06
//  #02 //003   ----------------------------------------
 BYTE   W12
 BYTE   N06
 BYTE   W48
 BYTE   N12
 BYTE   W12
 BYTE   N06
 BYTE   W06
 BYTE   N06
 BYTE   W18
//  #02 //004   ----------------------------------------
 BYTE   W48
 BYTE   As1
 BYTE   W12
 BYTE   N12  Cn2
 BYTE   W12
 BYTE   N06
 BYTE   W18
 BYTE   Gn1
 BYTE   W06
//  #02 //005   ----------------------------------------
 BYTE   W12
 BYTE   N12  Dn2
 BYTE   W12
 BYTE   N06  Cn2
 BYTE   W06
 BYTE   N06
 BYTE   W66
//  #02 //006   ----------------------------------------
 BYTE   W12
 BYTE   N12
 BYTE   W12
 BYTE   N06
 BYTE   W24
 BYTE   N24
 BYTE   W24
 BYTE   N06
 BYTE   W06
 BYTE   Dn2
 BYTE   W06
 BYTE   Ds2
 BYTE   W06
 BYTE   N12  Gn1
 BYTE   W06
//  #02 //007   ----------------------------------------
 BYTE   W06
 BYTE   As1
 BYTE   W12
 BYTE   N06  Bn1
 BYTE   W06
 BYTE   Cn2
 BYTE   W06
 BYTE   N06
 BYTE   W66
//  #02 //008   ----------------------------------------
 BYTE   W06
 BYTE   N06
 BYTE   W06
 BYTE   Ds2
 BYTE   W06
 BYTE   Dn2
 BYTE   W06
 BYTE   N09  Cn2
 BYTE   W18
 BYTE   As1
 BYTE   W18
 BYTE   Gn1
 BYTE   W12
 BYTE   N06  Gs1
 BYTE   W06
 BYTE   N06
 BYTE   W18
//  #02 //009   ----------------------------------------
 BYTE   W12
 BYTE   Fn1
 BYTE   W06
 BYTE   Gn1
 BYTE   W06
 BYTE   N09  Gs1
 BYTE   W18
 BYTE   N09
 BYTE   W18
 BYTE   N09
 BYTE   W12
 BYTE   N06  As1
 BYTE   W06
 BYTE   N06
 BYTE   W18
//  #02 //010   ----------------------------------------
 BYTE   W12
 BYTE   Gs1
 BYTE   W06
 BYTE   N09  As1
 BYTE   W18
 BYTE   N12
 BYTE   W12
 BYTE   Ds2
 BYTE   W12
 BYTE   Dn2
 BYTE   W12
 BYTE   N06  Cn2
 BYTE   W06
 BYTE   N06
 BYTE   W18
//  #02 //011   ----------------------------------------
 BYTE   W36
 BYTE   N12
 BYTE   W12
 BYTE   Gn2
 BYTE   W12
 BYTE   Cn2
 BYTE   W12
 BYTE   N09
 BYTE   W18
 BYTE   Gn1
 BYTE   W06
//  #02 //012   ----------------------------------------
 BYTE   W12
 BYTE   As1
 BYTE   W12
 BYTE   N06  Gs1
 BYTE   W06
 BYTE   N06
 BYTE   W66
//  #02 //013   ----------------------------------------
 BYTE   W12
 BYTE   N06
 BYTE   W06
 BYTE   N06
 BYTE   W06
 BYTE   As1
 BYTE   W06
 BYTE   N06
 BYTE   W18
 BYTE   N24
 BYTE   W48
//  #02 //014   ----------------------------------------
 BYTE   W12
 BYTE   N06
 BYTE   W06
 BYTE   N06
 BYTE   W06
 BYTE   N09  Cn2
 BYTE   W18
 BYTE   Dn2
 BYTE   W18
 BYTE   Ds2
 BYTE   W12
 BYTE   Fn2
 BYTE   W18
 BYTE   Gn1
 BYTE   W06
//  #02 //015   ----------------------------------------
 BYTE   W12
 BYTE   Gs1
 BYTE   W12
 BYTE   N09
 BYTE   W18
 BYTE   N09
 BYTE   W18
 BYTE   N12
 BYTE   W12
 BYTE   N06
 BYTE   W12
 BYTE   N06
 BYTE   W12
//  #02 //016   ----------------------------------------
Label_FB3402:
 BYTE   N24  As1  v127
 BYTE   W24
 BYTE   N09  Cn2
 BYTE   W18
 BYTE   Dn2
 BYTE   W18
 BYTE   Ds2
 BYTE   W12
 BYTE   Fn2
 BYTE   W18
 BYTE   Gn1
 BYTE   W06
 BYTE   PEND 
//  #02 //017   ----------------------------------------
Label_FB3412:
 BYTE   W12
 BYTE   N09  Gs1  v127
 BYTE   W12
 BYTE   Cn2
 BYTE   W18
 BYTE   N09
 BYTE   W18
 BYTE   N09
 BYTE   W18
 BYTE   As1
 BYTE   W18
 BYTE   PEND 
//  #02 //018   ----------------------------------------
 BYTE   N09
 BYTE   W12
 BYTE   N09
 BYTE   W12
 BYTE   Cn2
 BYTE   W18
 BYTE   Dn2
 BYTE   W18
 BYTE   Ds2
 BYTE   W12
 BYTE   Fn2
 BYTE   W18
 BYTE   Gn1
 BYTE   W06
//  #02 //019   ----------------------------------------
 BYTE   W12
 BYTE   Gs1
 BYTE   W12
 BYTE   N09
 BYTE   W18
 BYTE   N09
 BYTE   W18
 BYTE   N06
 BYTE   W12
 BYTE   N06
 BYTE   W24
//  #02 //020   ----------------------------------------
 BYTE   PATT
  POIN2 Label_FB3402
//  #02 //021   ----------------------------------------
 BYTE   PATT
  POIN2 Label_FB3412
//  #02 //022   ----------------------------------------
 BYTE   N09  As1  v127
 BYTE   W12
 BYTE   N09
 BYTE   W12
 BYTE   Gs1
 BYTE   W18
 BYTE   N09
 BYTE   W18
 BYTE   N09
 BYTE   W12
 BYTE   N24
 BYTE   W24
//  #02 //023   ----------------------------------------
 BYTE   W12
 BYTE   N06
 BYTE   W06
 BYTE   N06
 BYTE   W06
 BYTE   As1
 BYTE   W06
 BYTE   N06
 BYTE   W18
 BYTE   N12
 BYTE   W12
 BYTE   N06
 BYTE   W18
 BYTE   N06
 BYTE   W18
//  #02 //024   ----------------------------------------
 BYTE   N06
 BYTE   W06
 BYTE   N06
 BYTE   W90
//  #02 //025   ----------------------------------------
 BYTE   W12
 BYTE   N12  Gn1
 BYTE   W12
 BYTE   N06  Cn2
 BYTE   W06
 BYTE   N06
 BYTE   W66
//  #02 //026   ----------------------------------------
 BYTE   GoTo
  POIN2 Label_FB3345
//  #02 //027   ----------------------------------------
 BYTE   PATT
  POIN2 Label_FB3345
 BYTE   FINE

//**************** Track 3 (Midi-Chn.2) ****************//

DickGumshoe_003:
//  #03 //000   ----------------------------------------
 BYTE   KEYSH   DickGumshoe_key+0
 BYTE   VOICE   10
 BYTE   VOL   6*DickGumshoe_mvl/mxv
 BYTE   PAN   c_v+63
 BYTE   W24
 BYTE   N06  Cn4  v088
 BYTE   W06
 BYTE   N06
 BYTE   W06
 BYTE   Gn4
 BYTE   W06
 BYTE   N06
 BYTE   W06
 BYTE   Cn5
 BYTE   W06
 BYTE   N06
 BYTE   W06
 BYTE   Cn4
 BYTE   W06
 BYTE   N06
 BYTE   W06
 BYTE   Gn4
 BYTE   W06
 BYTE   N06
 BYTE   W06
 BYTE   Cn5
 BYTE   W06
 BYTE   N06
 BYTE   W06
//  #03 //001   ----------------------------------------
Label_010054F7:
 BYTE   N06  Cn4  v088
 BYTE   W06
 BYTE   N06
 BYTE   W06
 BYTE   Gn4
 BYTE   W06
 BYTE   N06
 BYTE   W06
 BYTE   Cn5
 BYTE   W06
 BYTE   N06
 BYTE   W06
 BYTE   Cn4
 BYTE   W06
 BYTE   N06
 BYTE   W06
 BYTE   Gn4
 BYTE   W06
 BYTE   N06
 BYTE   W06
 BYTE   Cn5
 BYTE   W06
 BYTE   N06
 BYTE   W06
 BYTE   Cn4
 BYTE   W06
 BYTE   N06
 BYTE   W06
 BYTE   Gn4
 BYTE   W06
 BYTE   N06
 BYTE   W06
 BYTE   PEND 
//  #03 //002   ----------------------------------------
Label_0100551A:
 BYTE   N06  Cn5  v088
 BYTE   W06
 BYTE   N06
 BYTE   W06
 BYTE   Cn4
 BYTE   W06
 BYTE   N06
 BYTE   W06
 BYTE   Gn4
 BYTE   W06
 BYTE   N06
 BYTE   W06
 BYTE   Cn5
 BYTE   W06
 BYTE   N06
 BYTE   W06
 BYTE   Cn4
 BYTE   W06
 BYTE   N06
 BYTE   W06
 BYTE   Gn4
 BYTE   W06
 BYTE   N06
 BYTE   W06
 BYTE   Cn5
 BYTE   W06
 BYTE   N06
 BYTE   W06
 BYTE   Cn4
 BYTE   W06
 BYTE   N06
 BYTE   W06
 BYTE   PEND 
//  #03 //003   ----------------------------------------
Label_0100553D:
 BYTE   N06  Gn4  v088
 BYTE   W06
 BYTE   N06
 BYTE   W06
 BYTE   Cn5
 BYTE   W06
 BYTE   N06
 BYTE   W06
 BYTE   Cn4
 BYTE   W06
 BYTE   N06
 BYTE   W06
 BYTE   Gn4
 BYTE   W06
 BYTE   N06
 BYTE   W06
 BYTE   Cn5
 BYTE   W06
 BYTE   N06
 BYTE   W06
 BYTE   Cn4
 BYTE   W06
 BYTE   N06
 BYTE   W06
 BYTE   Gn4
 BYTE   W06
 BYTE   N06
 BYTE   W06
 BYTE   Cn5
 BYTE   W06
 BYTE   N06
 BYTE   W06
 BYTE   PEND 
//  #03 //004   ----------------------------------------
 BYTE   PATT
  POIN2 Label_010054F7
//  #03 //005   ----------------------------------------
 BYTE   PATT
  POIN2 Label_0100551A
//  #03 //006   ----------------------------------------
 BYTE   PATT
  POIN2 Label_0100553D
//  #03 //007   ----------------------------------------
 BYTE   PATT
  POIN2 Label_010054F7
//  #03 //008   ----------------------------------------
 BYTE   PATT
  POIN2 Label_0100551A
//  #03 //009   ----------------------------------------
 BYTE   N06  Gn4  v088
 BYTE   W06
 BYTE   N06
 BYTE   W06
 BYTE   Cn5
 BYTE   W06
 BYTE   N06
 BYTE   W06
 BYTE   Cn4
 BYTE   W06
 BYTE   N06
 BYTE   W06
 BYTE   Gn4
 BYTE   W06
 BYTE   N06
 BYTE   W06
 BYTE   Cn5
 BYTE   W06
 BYTE   N06
 BYTE   W06
 BYTE   Cn4
 BYTE   W06
 BYTE   N06
 BYTE   W06
 BYTE   Gn4
 BYTE   W06
 BYTE   N06
 BYTE   W06
 BYTE   As4
 BYTE   W06
 BYTE   N06
 BYTE   W06
//  #03 //010   ----------------------------------------
 BYTE   Dn4
 BYTE   W06
 BYTE   N06
 BYTE   W06
 BYTE   Gn4
 BYTE   W06
 BYTE   N06
 BYTE   W06
 BYTE   As4
 BYTE   W06
 BYTE   N06
 BYTE   W06
 BYTE   Dn4
 BYTE   W06
 BYTE   N06
 BYTE   W06
 BYTE   Gn4
 BYTE   W06
 BYTE   N06
 BYTE   W06
 BYTE   As4
 BYTE   W06
 BYTE   N06
 BYTE   W06
 BYTE   Cn4
 BYTE   W06
 BYTE   N06
 BYTE   W06
 BYTE   Gn4
 BYTE   W06
 BYTE   N06
 BYTE   W06
//  #03 //011   ----------------------------------------
 BYTE   PATT
  POIN2 Label_0100551A
//  #03 //012   ----------------------------------------
 BYTE   PATT
  POIN2 Label_0100553D
//  #03 //013   ----------------------------------------
 BYTE   N06  Cn4  v088
 BYTE   W06
 BYTE   N06
 BYTE   W06
 BYTE   Gn4
 BYTE   W06
 BYTE   N06
 BYTE   W06
 BYTE   Cn5
 BYTE   W06
 BYTE   N06
 BYTE   W06
 BYTE   Dn4
 BYTE   W06
 BYTE   N06
 BYTE   W06
 BYTE   Fn4
 BYTE   W06
 BYTE   N06
 BYTE   W06
 BYTE   As4
 BYTE   W06
 BYTE   N06
 BYTE   W06
 BYTE   Dn4
 BYTE   W06
 BYTE   N06
 BYTE   W06
 BYTE   Fn4
 BYTE   W06
 BYTE   N06
 BYTE   W06
//  #03 //014   ----------------------------------------
 BYTE   As4
 BYTE   W06
 BYTE   N06
 BYTE   W06
 BYTE   As4  v064
 BYTE   W06
 BYTE   As4  v044
 BYTE   W06
 BYTE   As4  v032
 BYTE   W72
//  #03 //015   ----------------------------------------
 BYTE   W12
 BYTE   N12  Gn4  v096
 BYTE   W12
 BYTE   N03  As4
 BYTE   W03
 BYTE   N09  Cn5
 BYTE   W09
 BYTE   N06  As4
 BYTE   W06
 BYTE   N12  Gn4
 BYTE   W12
 BYTE   N18  Fn4
 BYTE   W18
 BYTE   N03
 BYTE   W03
 BYTE   N21  Gn4
 BYTE   W21
//  #03 //016   ----------------------------------------
 BYTE   N12  Cn4
 BYTE   W12
 BYTE   Ds4
 BYTE   W12
 BYTE   N36  Fn4
 BYTE   W36
 BYTE   N06  Fs4
 BYTE   W06
 BYTE   Fn4
 BYTE   W06
 BYTE   N60  Ds4
 BYTE   W24
//  #03 //017   ----------------------------------------
Label_0100561D:
 BYTE   W36
 BYTE   N12  Cn4  v096
 BYTE   W12
 BYTE   Ds4
 BYTE   W12
 BYTE   N06  Cn4
 BYTE   W06
 BYTE   N12  Ds4
 BYTE   W12
 BYTE   N12
 BYTE   W12
 BYTE   N06  Cn4
 BYTE   W06
 BYTE   PEND 
//  #03 //018   ----------------------------------------
 BYTE   N12  Ds4
 BYTE   W12
 BYTE   N96  Fn4
 BYTE   W84
//  #03 //019   ----------------------------------------
 BYTE   W12
 BYTE   N06  Cn4
 BYTE   W06
 BYTE   Gn4
 BYTE   W06
 BYTE   N03  As4
 BYTE   W03
 BYTE   N09  Cn5
 BYTE   W09
 BYTE   N06  As4
 BYTE   W06
 BYTE   N12  Gn4
 BYTE   W12
 BYTE   N18  Fn4
 BYTE   W18
 BYTE   N03
 BYTE   W03
 BYTE   N21  Gn4
 BYTE   W21
//  #03 //020   ----------------------------------------
 BYTE   N24  As4
 BYTE   W24
 BYTE   N36  Fn4
 BYTE   W36
 BYTE   N03
 BYTE   W03
 BYTE   N09  Gn4
 BYTE   W09
 BYTE   N18  Fn4
 BYTE   W18
 BYTE   N42  Ds4
 BYTE   W06
//  #03 //021   ----------------------------------------
 BYTE   PATT
  POIN2 Label_0100561D
//  #03 //022   ----------------------------------------
 BYTE   N12  Ds4  v096
 BYTE   W12
 BYTE   Fn4
 BYTE   W12
 BYTE   N18
 BYTE   W18
 BYTE   Gn4
 BYTE   W18
 BYTE   N12  As4
 BYTE   W12
 BYTE   N48  Ds4
 BYTE   W24
//  #03 //023   ----------------------------------------
 BYTE   W24
 BYTE   N06  Cn4  v064
 BYTE   W06
 BYTE   N06
 BYTE   W06
 BYTE   Gn4
 BYTE   W06
 BYTE   N06
 BYTE   W06
 BYTE   Cn5
 BYTE   W06
 BYTE   N06
 BYTE   W06
 BYTE   Cn4  v076
 BYTE   W06
 BYTE   N06
 BYTE   W06
 BYTE   Gn4
 BYTE   W06
 BYTE   N06
 BYTE   W06
 BYTE   Cn5
 BYTE   W06
 BYTE   N06
 BYTE   W06
//  #03 //024   ----------------------------------------
 BYTE   PATT
  POIN2 Label_010054F7
//  #03 //025   ----------------------------------------
 BYTE   N06  Cn4  v088
 BYTE   W06
 BYTE   Dn4
 BYTE   W06
 BYTE   Gn4
 BYTE   W06
 BYTE   Cn5
 BYTE   W06
 BYTE   Cn4
 BYTE   W06
 BYTE   N06
 BYTE   W06
 BYTE   Gn4
 BYTE   W06
 BYTE   N06
 BYTE   W06
 BYTE   Cn5
 BYTE   W06
 BYTE   N06
 BYTE   W06
 BYTE   Cn4
 BYTE   W06
 BYTE   N06
 BYTE   W06
 BYTE   Gn4
 BYTE   W06
 BYTE   N06
 BYTE   W06
 BYTE   Cn5
 BYTE   W06
 BYTE   N06
 BYTE   W06
//  #03 //026   ----------------------------------------
 BYTE   GoTo
  POIN2 Label_010054F7
//  #03 //027   ----------------------------------------
 BYTE   PATT
  POIN2 Label_010054F7
 BYTE   FINE

//**************** Track 4 (Midi-Chn.3) ****************//

DickGumshoe_004:
//  #04 //000   ----------------------------------------
 BYTE   KEYSH   DickGumshoe_key+0
 BYTE   VOICE   124
 BYTE   VOL   39*DickGumshoe_mvl/mxv
 BYTE   W24
 BYTE   N06  Cn1  v127
 BYTE   W06
 BYTE   N06
 BYTE   W18
 BYTE   En1  v064
 BYTE   W36
 BYTE   As1
 BYTE   W12
//  #04 //001   ----------------------------------------
Label_010056E6:
 BYTE   N06  En1  v064
 BYTE   N06  Gs1  v088
 BYTE   W24
 BYTE   Cn1  v127
 BYTE   W18
 BYTE   N06
 BYTE   W18
 BYTE   En1  v064
 BYTE   W06
 BYTE   N06
 BYTE   W06
 BYTE   Cn1  v127
 BYTE   W12
 BYTE   N06
 BYTE   W12
 BYTE   PEND 
//  #04 //002   ----------------------------------------
 BYTE   En1  v064
 BYTE   W18
 BYTE   N06
 BYTE   W18
 BYTE   As1
 BYTE   W12
 BYTE   En1
 BYTE   N06  Gs1  v088
 BYTE   W24
 BYTE   Cn1  v127
 BYTE   W12
 BYTE   N06
 BYTE   W12
//  #04 //003   ----------------------------------------
 BYTE   En1  v064
 BYTE   W30
 BYTE   As1
 BYTE   W06
 BYTE   Cn1  v127
 BYTE   N06  Gs1  v088
 BYTE   W12
 BYTE   En1  v064
 BYTE   N06  As1
 BYTE   W24
 BYTE   Cn1  v127
 BYTE   N06  Gs1  v004
 BYTE   W06
 BYTE   Cn1  v127
 BYTE   W18
//  #04 //004   ----------------------------------------
 BYTE   En1  v064
 BYTE   W36
 BYTE   Cn1  v127
 BYTE   N06  As1  v064
 BYTE   W12
 BYTE   En1
 BYTE   N06  Gs1  v088
 BYTE   W24
 BYTE   Cn1  v127
 BYTE   W18
 BYTE   N06
 BYTE   W06
//  #04 //005   ----------------------------------------
 BYTE   W12
 BYTE   En1  v064
 BYTE   W06
 BYTE   N06
 BYTE   W06
 BYTE   Cn1  v127
 BYTE   W06
 BYTE   N06
 BYTE   W18
 BYTE   En1  v064
 BYTE   W36
 BYTE   As1
 BYTE   W12
//  #04 //006   ----------------------------------------
 BYTE   En1
 BYTE   N06  Gs1  v088
 BYTE   W18
 BYTE   En1  v064
 BYTE   W06
 BYTE   Cn1  v127
 BYTE   W24
 BYTE   N06
 BYTE   N06  En1  v064
 BYTE   W18
 BYTE   N06
 BYTE   W06
 BYTE   Cn1  v127
 BYTE   W12
 BYTE   N06
 BYTE   W12
//  #04 //007   ----------------------------------------
 BYTE   N06
 BYTE   N06  En1  v064
 BYTE   W24
 BYTE   Cn1  v127
 BYTE   N06  As1  v064
 BYTE   W06
 BYTE   Cn1  v127
 BYTE   W06
 BYTE   Gs1  v088
 BYTE   W12
 BYTE   En1  v064
 BYTE   N06  Gs1  v088
 BYTE   W12
 BYTE   N06
 BYTE   W12
 BYTE   N06
 BYTE   W12
 BYTE   As1  v064
 BYTE   W12
//  #04 //008   ----------------------------------------
 BYTE   En1
 BYTE   N06  Gs1  v088
 BYTE   W12
 BYTE   N06
 BYTE   W12
 BYTE   Cn1  v127
 BYTE   N06  Gs1  v088
 BYTE   W18
 BYTE   Cn1  v127
 BYTE   N06  Gs1  v088
 BYTE   W18
 BYTE   En1  v064
 BYTE   N06  Gs1  v088
 BYTE   W06
 BYTE   En1  v064
 BYTE   W06
 BYTE   Cn1  v127
 BYTE   N06  Gs1  v088
 BYTE   W12
 BYTE   Cn1  v127
 BYTE   N06  Gs1  v088
 BYTE   W12
//  #04 //009   ----------------------------------------
 BYTE   En1  v064
 BYTE   N06  Gs1  v088
 BYTE   W12
 BYTE   N06
 BYTE   W06
 BYTE   En1  v064
 BYTE   W06
 BYTE   Gs1  v088
 BYTE   W12
 BYTE   As1  v064
 BYTE   W12
 BYTE   En1
 BYTE   N06  Gs1  v088
 BYTE   W12
 BYTE   N06
 BYTE   W12
 BYTE   Cn1  v127
 BYTE   N06  Gs1  v088
 BYTE   W12
 BYTE   Cn1  v127
 BYTE   N06  Gs1  v088
 BYTE   W12
//  #04 //010   ----------------------------------------
 BYTE   En1  v064
 BYTE   N06  Gs1  v088
 BYTE   W12
 BYTE   N06
 BYTE   W12
 BYTE   N06
 BYTE   W06
 BYTE   As1  v064
 BYTE   W06
 BYTE   Cn1  v127
 BYTE   N06  Gs1  v088
 BYTE   W12
 BYTE   En1  v064
 BYTE   N06  As1
 BYTE   W24
 BYTE   Cn1  v127
 BYTE   N06  Gs1  v088
 BYTE   W06
 BYTE   Cn1  v127
 BYTE   W06
 BYTE   Gs1  v088
 BYTE   W12
//  #04 //011   ----------------------------------------
 BYTE   En1  v064
 BYTE   N06  Gs1  v088
 BYTE   W12
 BYTE   N06
 BYTE   W12
 BYTE   N06
 BYTE   W12
 BYTE   Cn1  v127
 BYTE   N06  As1  v064
 BYTE   W12
 BYTE   En1
 BYTE   N06  Gs1  v088
 BYTE   W12
 BYTE   N06
 BYTE   W12
 BYTE   Cn1  v127
 BYTE   N06  Gs1  v088
 BYTE   W18
 BYTE   Cn1  v127
 BYTE   N06  Gs1  v088
 BYTE   W06
//  #04 //012   ----------------------------------------
 BYTE   W12
 BYTE   En1  v064
 BYTE   N06  Gs1  v088
 BYTE   W06
 BYTE   En1  v064
 BYTE   W06
 BYTE   Cn1  v127
 BYTE   N06  Gs1  v088
 BYTE   W06
 BYTE   Cn1  v127
 BYTE   W06
 BYTE   Gs1  v088
 BYTE   W12
 BYTE   En1  v064
 BYTE   N06  Gs1  v088
 BYTE   W12
 BYTE   N06
 BYTE   W12
 BYTE   N06
 BYTE   W06
 BYTE   N06
 BYTE   W06
 BYTE   As1  v064
 BYTE   W12
//  #04 //013   ----------------------------------------
 BYTE   En1
 BYTE   N06  Gs1  v088
 BYTE   W12
 BYTE   N06
 BYTE   W06
 BYTE   En1  v064
 BYTE   W06
 BYTE   Cn1  v127
 BYTE   N06  Gs1  v088
 BYTE   W06
 BYTE   N06
 BYTE   W06
 BYTE   N06
 BYTE   W12
 BYTE   Cn1  v127
 BYTE   N06  En1  v064
 BYTE   N06  As1
 BYTE   W12
 BYTE   Gs1  v088
 BYTE   W06
 BYTE   En1  v064
 BYTE   W06
 BYTE   Cn1  v127
 BYTE   W12
 BYTE   N06
 BYTE   W12
//  #04 //014   ----------------------------------------
Label_0100585E:
 BYTE   N06  Cn1  v127
 BYTE   N06  En1  v064
 BYTE   N06  As1
 BYTE   W24
 BYTE   Cn1  v127
 BYTE   N06  Gs1  v004
 BYTE   W18
 BYTE   Cn1  v127
 BYTE   W18
 BYTE   N06
 BYTE   N06  En1  v064
 BYTE   W12
 BYTE   Cn1  v127
 BYTE   W18
 BYTE   N06
 BYTE   W06
 BYTE   PEND 
//  #04 //015   ----------------------------------------
Label_0100587B:
 BYTE   W12
 BYTE   N06  Cn1  v127
 BYTE   N06  En1  v064
 BYTE   W12
 BYTE   Cn1  v127
 BYTE   N06  As1  v064
 BYTE   W24
 BYTE   Cn1  v127
 BYTE   N06  En1  v064
 BYTE   N06  As1
 BYTE   W24
 BYTE   Cn1  v127
 BYTE   N06  Gs1  v088
 BYTE   W12
 BYTE   Cn1  v127
 BYTE   N06  Gs1  v088
 BYTE   W12
 BYTE   PEND 
//  #04 //016   ----------------------------------------
 BYTE   PATT
  POIN2 Label_0100585E
//  #04 //017   ----------------------------------------
Label_010058A3:
 BYTE   N06  En1  v064
 BYTE   W12
 BYTE   Cn1  v127
 BYTE   N06  En1  v064
 BYTE   W12
 BYTE   Cn1  v127
 BYTE   N06  Gs1  v088
 BYTE   W06
 BYTE   N06
 BYTE   W06
 BYTE   As1  v064
 BYTE   W12
 BYTE   Cn1  v127
 BYTE   N06  En1  v064
 BYTE   W12
 BYTE   Gs1  v088
 BYTE   W12
 BYTE   Cn1  v127
 BYTE   N06  Gs1  v088
 BYTE   W12
 BYTE   N06
 BYTE   W12
 BYTE   PEND 
//  #04 //018   ----------------------------------------
 BYTE   Cn1  v127
 BYTE   N06  En1  v064
 BYTE   N06  As1
 BYTE   W12
 BYTE   Cn1  v127
 BYTE   W12
 BYTE   N06
 BYTE   N06  Gs1  v004
 BYTE   W18
 BYTE   Cn1  v127
 BYTE   W18
 BYTE   N06
 BYTE   N06  En1  v064
 BYTE   W12
 BYTE   Cn1  v127
 BYTE   W18
 BYTE   N06
 BYTE   W06
//  #04 //019   ----------------------------------------
 BYTE   PATT
  POIN2 Label_0100587B
//  #04 //020   ----------------------------------------
 BYTE   PATT
  POIN2 Label_0100585E
//  #04 //021   ----------------------------------------
 BYTE   PATT
  POIN2 Label_010058A3
//  #04 //022   ----------------------------------------
 BYTE   N06  Cn1  v127
 BYTE   N06  En1  v064
 BYTE   N06  As1
 BYTE   W12
 BYTE   Cn1  v127
 BYTE   W12
 BYTE   N06
 BYTE   N06  As1  v064
 BYTE   W18
 BYTE   Cn1  v127
 BYTE   W06
 BYTE   En1  v064
 BYTE   N06  As1
 BYTE   W24
 BYTE   N06
 BYTE   W12
 BYTE   Cn1  v127
 BYTE   W12
//  #04 //023   ----------------------------------------
 BYTE   En1  v064
 BYTE   N06  As1
 BYTE   W24
 BYTE   Cn1  v127
 BYTE   N06  As1  v064
 BYTE   W12
 BYTE   Cn1  v127
 BYTE   W12
 BYTE   En1  v064
 BYTE   N06  As1
 BYTE   W18
 BYTE   Cn1  v127
 BYTE   W06
 BYTE   As1  v064
 BYTE   W12
 BYTE   Cn1  v127
 BYTE   W12
//  #04 //024   ----------------------------------------
 BYTE   En1  v064
 BYTE   N06  As1
 BYTE   W12
 BYTE   En1
 BYTE   N06  Gs1  v088
 BYTE   W06
 BYTE   En1  v064
 BYTE   N06  Gs1  v088
 BYTE   W06
 BYTE   Cn1  v127
 BYTE   N06  As1  v064
 BYTE   W24
 BYTE   As1  v004
 BYTE   W48
//  #04 //025   ----------------------------------------
 BYTE   W12
 BYTE   Cn1  v127
 BYTE   W12
 BYTE   N06
 BYTE   W06
 BYTE   N06
 BYTE   W18
 BYTE   En1  v064
 BYTE   W36
 BYTE   As1
 BYTE   W12
//  #04 //026   ----------------------------------------
 BYTE   GoTo
  POIN2 Label_010056E6
//  #04 //027   ----------------------------------------
 BYTE   PATT
  POIN2 Label_010056E6
 BYTE   FINE

//******************************************************//
	ALIGN 4

DickGumshoe:
	BYTE	4	// NumTrks
	BYTE	0	// NumBlks
	BYTE	DickGumshoe_pri	// Priority
	BYTE	DickGumshoe_rev	// Reverb.
    
	POIN2	DickGumshoe_grp
    
	POIN2	DickGumshoe_001
	POIN2	DickGumshoe_002
	POIN2	DickGumshoe_003
	POIN2	DickGumshoe_004

	
