//Event file generated from Sappy .s format.
	#include "MPlayDef.event"

	#define	DraculaCastle_grp  voicegroup000
	#define	DraculaCastle_pri  0
	#define	DraculaCastle_rev  0
	#define	DraculaCastle_mvl  127
	#define	DraculaCastle_key  0
	#define	DraculaCastle_tbs  1
	#define	DraculaCastle_exg  0
	#define	DraculaCastle_cmp  1

	// .rodata
	//	DraculaCastle
	ALIGN 4


//**************** Track 1 (Midi-Chn.0) ****************//

DraculaCastle_001:
//  #01 //000   ----------------------------------------
 BYTE   KEYSH   DraculaCastle_key+0
 BYTE   TEMPO   136*DraculaCastle_tbs/2
 BYTE   VOICE   104
 BYTE   VOL   43*DraculaCastle_mvl/mxv
 BYTE   PAN   c_v-25
 BYTE   TIE  An3  v100
 BYTE   TIE  Fs4
 BYTE   W02
 BYTE   W01
 BYTE   W01
 BYTE   W01
 BYTE   W01
 BYTE   W01
 BYTE   W01
 BYTE   W01
 BYTE   W01
 BYTE   W01
 BYTE   W01
 BYTE   W01
 BYTE   W01
 BYTE   W01
 BYTE   W01
 BYTE   W01
 BYTE   W01
 BYTE   W01
 BYTE   W01
 BYTE   W01
 BYTE   W01
 BYTE   W01
 BYTE   W01
 BYTE   W01
 BYTE   W01
 BYTE   W01
 BYTE   W01
 BYTE   W01
 BYTE   W01
 BYTE   W01
 BYTE   W01
 BYTE   W01
 BYTE   W01
 BYTE   W01
 BYTE   W01
 BYTE   W01
 BYTE   W01
 BYTE   W01
 BYTE   W01
 BYTE   W01
 BYTE   W01
 BYTE   W01
 BYTE   W01
 BYTE   W01
 BYTE   W01
 BYTE   W01
 BYTE   W01
 BYTE   W01
 BYTE   W01
 BYTE   W01
 BYTE   W01
 BYTE   W01
 BYTE   W01
 BYTE   W01
 BYTE   W01
 BYTE   W01
 BYTE   W01
 BYTE   W01
 BYTE   W01
 BYTE   W01
 BYTE   W01
 BYTE   W01
 BYTE   W01
 BYTE   W01
 BYTE   W01
 BYTE   W01
 BYTE   W01
 BYTE   W01
 BYTE   W01
 BYTE   W01
 BYTE   W01
 BYTE   W01
 BYTE   W01
 BYTE   W01
 BYTE   W01
 BYTE   W01
 BYTE   W01
 BYTE   W01
 BYTE   W01
 BYTE   W01
 BYTE   W01
 BYTE   W01
 BYTE   W01
 BYTE   W01
 BYTE   W01
 BYTE   W01
 BYTE   W01
 BYTE   W01
 BYTE   W01
 BYTE   W01
 BYTE   W01
 BYTE   W01
 BYTE   W01
 BYTE   W01
 BYTE   W01
//  #01 //001   ----------------------------------------
 BYTE   W01
 BYTE   W01
 BYTE   W01
 BYTE   W01
 BYTE   W01
 BYTE   W01
 BYTE   W01
 BYTE   W01
 BYTE   W01
 BYTE   W01
 BYTE   W01
 BYTE   W01
 BYTE   W01
 BYTE   W01
 BYTE   W01
 BYTE   W01
 BYTE   W01
 BYTE   W01
 BYTE   W01
 BYTE   W01
 BYTE   W01
 BYTE   W01
 BYTE   W01
 BYTE   W01
 BYTE   W01
 BYTE   W01
 BYTE   W01
 BYTE   W01
 BYTE   W01
 BYTE   W01
 BYTE   W01
 BYTE   W01
 BYTE   W01
 BYTE   W01
 BYTE   W01
 BYTE   W01
 BYTE   W01
 BYTE   W01
 BYTE   W01
 BYTE   W01
 BYTE   W01
 BYTE   W01
 BYTE   W01
 BYTE   W01
 BYTE   W24
 BYTE   W02
 BYTE   W01
 BYTE   W01
 BYTE   W01
 BYTE   W01
 BYTE   W01
 BYTE   W01
 BYTE   W01
 BYTE   W01
 BYTE   W01
 BYTE   W01
 BYTE   W01
 BYTE   W01
 BYTE   W01
 BYTE   W01
 BYTE   W01
 BYTE   W01
 BYTE   W01
 BYTE   W01
 BYTE   W01
 BYTE   W01
 BYTE   W01
 BYTE   W01
 BYTE   W01
 BYTE   W01
 BYTE   W01
 BYTE   W01
//  #01 //002   ----------------------------------------
 BYTE   EOT
 BYTE   An3  v078
 BYTE   PAN   c_v+23
 BYTE   N96  Bn3  v080
 BYTE   N96  Dn4
 BYTE   N96  An4
 BYTE   W01
 BYTE   PAN   c_v+24
 BYTE   W01
 BYTE   PAN   c_v+27
 BYTE   W01
 BYTE   PAN   c_v+29
 BYTE   W01
 BYTE   PAN   c_v+32
 BYTE   W01
 BYTE   PAN   c_v+34
 BYTE   W01
 BYTE   PAN   c_v+37
 BYTE   W01
 BYTE   PAN   c_v+39
 BYTE   W01
 BYTE   PAN   c_v+41
 BYTE   W01
 BYTE   PAN   c_v+43
 BYTE   W01
 BYTE   PAN   c_v+46
 BYTE   W01
 BYTE   PAN   c_v+47
 BYTE   W01
 BYTE   PAN   c_v+49
 BYTE   W01
 BYTE   PAN   c_v+50
 BYTE   W01
 BYTE   PAN   c_v+52
 BYTE   W01
 BYTE   PAN   c_v+52
 BYTE   W01
 BYTE   PAN   c_v+53
 BYTE   W01
 BYTE   PAN   c_v+54
 BYTE   W01
 BYTE   PAN   c_v+55
 BYTE   W01
 BYTE   PAN   c_v+56
 BYTE   W01
 BYTE   PAN   c_v+56
 BYTE   W01
 BYTE   PAN   c_v+57
 BYTE   W01
 BYTE   PAN   c_v+58
 BYTE   W01
 BYTE   PAN   c_v+59
 BYTE   W01
 BYTE   PAN   c_v+59
 BYTE   W01
 BYTE   PAN   c_v+59
 BYTE   W01
 BYTE   PAN   c_v+61
 BYTE   W01
 BYTE   PAN   c_v+62
 BYTE   W01
 BYTE   PAN   c_v+62
 BYTE   W01
 BYTE   PAN   c_v+63
 BYTE   W01
 BYTE   PAN   c_v+63
 BYTE   W01
 BYTE   PAN   c_v+63
 BYTE   W01
 BYTE   PAN   c_v+63
 BYTE   W01
 BYTE   PAN   c_v+63
 BYTE   W01
 BYTE   PAN   c_v+63
 BYTE   W01
 BYTE   PAN   c_v+63
 BYTE   W01
 BYTE   PAN   c_v+63
 BYTE   W01
 BYTE   PAN   c_v+63
 BYTE   W01
 BYTE   PAN   c_v+63
 BYTE   W01
 BYTE   PAN   c_v+63
 BYTE   W01
 BYTE   PAN   c_v+63
 BYTE   W01
 BYTE   PAN   c_v+63
 BYTE   W01
 BYTE   PAN   c_v+63
 BYTE   W01
 BYTE   PAN   c_v+63
 BYTE   W01
 BYTE   PAN   c_v+63
 BYTE   W01
 BYTE   PAN   c_v+63
 BYTE   W01
 BYTE   PAN   c_v+63
 BYTE   W01
 BYTE   PAN   c_v+63
 BYTE   W01
 BYTE   PAN   c_v+63
 BYTE   W01
 BYTE   PAN   c_v+63
 BYTE   W01
 BYTE   PAN   c_v+62
 BYTE   W01
 BYTE   PAN   c_v+62
 BYTE   W01
 BYTE   PAN   c_v+61
 BYTE   W01
 BYTE   PAN   c_v+59
 BYTE   W01
 BYTE   PAN   c_v+59
 BYTE   W01
 BYTE   PAN   c_v+58
 BYTE   W01
 BYTE   PAN   c_v+56
 BYTE   W01
 BYTE   PAN   c_v+56
 BYTE   W01
 BYTE   PAN   c_v+54
 BYTE   W01
 BYTE   PAN   c_v+54
 BYTE   W01
 BYTE   An7  v116
 BYTE   W01
 BYTE   PAN   c_v+51
 BYTE   W01
 BYTE   PAN   c_v+49
 BYTE   W01
 BYTE   PAN   c_v+48
 BYTE   W01
 BYTE   PAN   c_v+47
 BYTE   W01
 BYTE   PAN   c_v+46
 BYTE   W01
 BYTE   PAN   c_v+44
 BYTE   W01
 BYTE   Bn6  v107
 BYTE   W01
 BYTE   PAN   c_v+41
 BYTE   W01
 BYTE   PAN   c_v+40
 BYTE   W01
 BYTE   PAN   c_v+39
 BYTE   W01
 BYTE   PAN   c_v+38
 BYTE   W01
 BYTE   Fn6  v100
 BYTE   W01
 BYTE   PAN   c_v+35
 BYTE   W01
 BYTE   PAN   c_v+34
 BYTE   W01
 BYTE   PAN   c_v+33
 BYTE   W01
 BYTE   PAN   c_v+32
 BYTE   W01
 BYTE   PAN   c_v+30
 BYTE   W01
 BYTE   PAN   c_v+29
 BYTE   W01
 BYTE   An5  v093
 BYTE   W01
 BYTE   PAN   c_v+27
 BYTE   W01
 BYTE   PAN   c_v+26
 BYTE   W01
 BYTE   PAN   c_v+24
 BYTE   W01
 BYTE   PAN   c_v+23
 BYTE   W01
 BYTE   PAN   c_v+23
 BYTE   W01
 BYTE   PAN   c_v+23
 BYTE   W01
 BYTE   PAN   c_v+21
 BYTE   W01
 BYTE   PAN   c_v+20
 BYTE   W01
 BYTE   PAN   c_v+19
 BYTE   W01
 BYTE   PAN   c_v+19
 BYTE   W01
 BYTE   PAN   c_v+18
 BYTE   W01
 BYTE   As4  v081
 BYTE   W01
 BYTE   PAN   c_v+17
 BYTE   W01
 BYTE   PAN   c_v+16
 BYTE   W01
 BYTE   PAN   c_v+15
 BYTE   W01
 BYTE   PAN   c_v+14
 BYTE   W01
//  #01 //003   ----------------------------------------
 BYTE   PAN   c_v+13
 BYTE   N48  Gn3  v052
 BYTE   N48  Gn4
 BYTE   W48
 BYTE   An3
 BYTE   N48  An4
 BYTE   W48
//  #01 //004   ----------------------------------------
 BYTE   N96  Bn3
 BYTE   N96  Bn4
 BYTE   W96
//  #01 //005   ----------------------------------------
 BYTE   PAN   c_v+1
 BYTE   N48  An3
 BYTE   N48  An4
 BYTE   W06
 BYTE   PAN   c_v-3
 BYTE   W07
 BYTE   PAN   c_v-7
 BYTE   W06
 BYTE   PAN   c_v-11
 BYTE   W07
 BYTE   PAN   c_v-15
 BYTE   W03
 BYTE   PAN   c_v-19
 BYTE   W07
 BYTE   PAN   c_v-23
 BYTE   W08
 BYTE   PAN   c_v-27
 BYTE   W04
 BYTE   N24  Bn3
 BYTE   N24  Bn4
 BYTE   W03
 BYTE   PAN   c_v-31
 BYTE   W05
 BYTE   PAN   c_v-35
 BYTE   W09
 BYTE   PAN   c_v-39
 BYTE   W07
 BYTE   N24  Cs4
 BYTE   N24  Cs5
 BYTE   W05
 BYTE   PAN   c_v-43
 BYTE   W05
 BYTE   PAN   c_v-47
 BYTE   W09
 BYTE   PAN   c_v-51
 BYTE   W01
 BYTE   PAN   c_v-52
 BYTE   W04
//  #01 //006   ----------------------------------------
 BYTE   TIE  Ds4  v064
 BYTE   TIE  Gn4
 BYTE   TIE  Cn5
 BYTE   W11
 BYTE   PAN   c_v-48
 BYTE   W09
 BYTE   PAN   c_v-44
 BYTE   W14
 BYTE   PAN   c_v-40
 BYTE   W05
 BYTE   PAN   c_v-36
 BYTE   W04
 BYTE   PAN   c_v-32
 BYTE   W07
 BYTE   PAN   c_v-28
 BYTE   W02
 BYTE   PAN   c_v-24
 BYTE   W06
 BYTE   PAN   c_v-20
 BYTE   W06
 BYTE   PAN   c_v-16
 BYTE   W03
 BYTE   PAN   c_v-12
 BYTE   W05
 BYTE   PAN   c_v-8
 BYTE   W06
 BYTE   PAN   c_v-4
 BYTE   W06
 BYTE   PAN   c_v+0
 BYTE   W03
 BYTE   PAN   c_v+4
 BYTE   W05
 BYTE   PAN   c_v+8
 BYTE   W04
//  #01 //007   ----------------------------------------
 BYTE   W01
 BYTE   PAN   c_v+12
 BYTE   W03
 BYTE   PAN   c_v+16
 BYTE   W10
 BYTE   PAN   c_v+20
 BYTE   W09
 BYTE   PAN   c_v+24
 BYTE   W11
 BYTE   PAN   c_v+28
 BYTE   W24
 BYTE   W02
 BYTE   PAN   c_v+32
 BYTE   W13
 BYTE   PAN   c_v+34
 BYTE   W23
//  #01 //008   ----------------------------------------
 BYTE   EOT
 BYTE   Ds4  v079
 BYTE   Cn5
 BYTE   TIE  Dn4  v052
 BYTE   TIE  Fs4
 BYTE   TIE  An4
 BYTE   W96
//  #01 //009   ----------------------------------------
 BYTE   W72
 BYTE   W01
 BYTE   W05
 BYTE   W02
 BYTE   W02
 BYTE   W05
 BYTE   W05
 BYTE   W04
//  #01 //010   ----------------------------------------
 BYTE   EOT
 BYTE   Dn4  v078
 BYTE   An4
 BYTE   W24
 BYTE   W72
//  #01 //011   ----------------------------------------
 BYTE   W96
//  #01 //012   ----------------------------------------
Label_0100559D:
 BYTE   PAN   c_v-1
 BYTE   N36  Gn3  v072
 BYTE   W36
 BYTE   N06  An3  v092
 BYTE   W06
 BYTE   As3  v080
 BYTE   W06
 BYTE   N48  Fs3
 BYTE   W48
 BYTE   PEND 
//  #01 //013   ----------------------------------------
Label_010055AE:
 BYTE   N36  Gn3  v072
 BYTE   W36
 BYTE   N06  An3  v092
 BYTE   W06
 BYTE   As3  v080
 BYTE   W06
 BYTE   N16  Cn4
 BYTE   W16
 BYTE   As3  v072
 BYTE   W16
 BYTE   An3
 BYTE   W16
 BYTE   PEND 
//  #01 //014   ----------------------------------------
Label_010055C2:
 BYTE   N16  Gn3  v072
 BYTE   W16
 BYTE   Fn3  v064
 BYTE   W16
 BYTE   Ds3  v076
 BYTE   W16
 BYTE   An3
 BYTE   W16
 BYTE   Gn3
 BYTE   W16
 BYTE   Fn3
 BYTE   W16
 BYTE   PEND 
//  #01 //015   ----------------------------------------
 BYTE   N84  Gn3  v088
 BYTE   W02
 BYTE   W04
 BYTE   W04
 BYTE   W06
 BYTE   W04
 BYTE   W56
 BYTE   W02
 BYTE   W01
 BYTE   W02
 BYTE   W03
 BYTE   W02
 BYTE   W02
 BYTE   W02
 BYTE   W04
 BYTE   W02
//  #01 //016   ----------------------------------------
 BYTE   N36  Gn3  v072
 BYTE   W36
 BYTE   N06  An3  v092
 BYTE   W06
 BYTE   As3  v080
 BYTE   W06
 BYTE   N48  Fs3
 BYTE   W48
//  #01 //017   ----------------------------------------
 BYTE   PATT
  POIN2 Label_010055AE
//  #01 //018   ----------------------------------------
 BYTE   PATT
  POIN2 Label_010055C2
//  #01 //019   ----------------------------------------
 BYTE   N90  Gn3  v088
 BYTE   W02
 BYTE   W04
 BYTE   W04
 BYTE   W06
 BYTE   W04
 BYTE   W56
 BYTE   W02
 BYTE   W01
 BYTE   W02
 BYTE   W03
 BYTE   W02
 BYTE   W02
 BYTE   W02
 BYTE   W04
 BYTE   W02
//  #01 //020   ----------------------------------------
 BYTE   N36  Gn3  v080
 BYTE   W36
 BYTE   N06  An3  v092
 BYTE   W06
 BYTE   As3  v080
 BYTE   W06
 BYTE   N16  Gn3  v076
 BYTE   W16
 BYTE   Fn3  v064
 BYTE   W16
 BYTE   Ds3
 BYTE   W16
//  #01 //021   ----------------------------------------
 BYTE   N36  Fn3  v072
 BYTE   W36
 BYTE   N06  Gn3  v092
 BYTE   W06
 BYTE   An3  v080
 BYTE   W06
 BYTE   N24  As3
 BYTE   W24
 BYTE   Gs3
 BYTE   W24
//  #01 //022   ----------------------------------------
 BYTE   N16  Gn3  v076
 BYTE   W16
 BYTE   Fn3  v064
 BYTE   W16
 BYTE   Ds3
 BYTE   W16
 BYTE   An3  v076
 BYTE   W16
 BYTE   Gn3  v064
 BYTE   W16
 BYTE   Fn3
 BYTE   W16
//  #01 //023   ----------------------------------------
 BYTE   N90  Dn3  v088
 BYTE   W02
 BYTE   W04
 BYTE   W04
 BYTE   W06
 BYTE   W04
 BYTE   W56
 BYTE   W02
 BYTE   W01
 BYTE   W02
 BYTE   W03
 BYTE   W02
 BYTE   W02
 BYTE   W02
 BYTE   W04
 BYTE   W02
//  #01 //024   ----------------------------------------
 BYTE   N16  Ds3  v060
 BYTE   W16
 BYTE   Fn3  v064
 BYTE   W16
 BYTE   Gn3
 BYTE   W16
 BYTE   Fs3  v068
 BYTE   W16
 BYTE   Gn3  v072
 BYTE   W16
 BYTE   An3
 BYTE   W16
//  #01 //025   ----------------------------------------
 BYTE   As3
 BYTE   W16
 BYTE   An3
 BYTE   W16
 BYTE   N64  Gn3  v076
 BYTE   W64
//  #01 //026   ----------------------------------------
 BYTE   N16  Gn3  v068
 BYTE   W16
 BYTE   An3  v072
 BYTE   W16
 BYTE   As3
 BYTE   W16
 BYTE   An3
 BYTE   W16
 BYTE   En3
 BYTE   W16
 BYTE   An3
 BYTE   W16
//  #01 //027   ----------------------------------------
 BYTE   N84  Gn3  v080
 BYTE   W84
 BYTE   N06  Fs3
 BYTE   W06
 BYTE   En3
 BYTE   W06
//  #01 //028   ----------------------------------------
 BYTE   N96  Fs3
 BYTE   W96
//  #01 //029   ----------------------------------------
Label_0100568A:
 BYTE   N32  Dn4  v080
 BYTE   W20
 BYTE   W02
 BYTE   W02
 BYTE   W02
 BYTE   W02
 BYTE   W02
 BYTE   W05
 BYTE   W01
 BYTE   N06  As3  v072
 BYTE   W06
 BYTE   Cn4
 BYTE   W06
 BYTE   N16  Dn4  v080
 BYTE   W16
 BYTE   Cn4  v072
 BYTE   W16
 BYTE   As3
 BYTE   W16
 BYTE   PEND 
//  #01 //030   ----------------------------------------
Label_010056A5:
 BYTE   N24  Cn4  v080
 BYTE   W24
 BYTE   Fn3  v064
 BYTE   W24
 BYTE   N32  Fn4  v080
 BYTE   W22
 BYTE   W01
 BYTE   W01
 BYTE   W02
 BYTE   W01
 BYTE   W02
 BYTE   W01
 BYTE   W05
 BYTE   W01
 BYTE   N06  Ds4  v072
 BYTE   W06
 BYTE   Dn4
 BYTE   W06
 BYTE   PEND 
//  #01 //031   ----------------------------------------
 BYTE   N32  Ds4  v080
 BYTE   W22
 BYTE   W01
 BYTE   W01
 BYTE   W02
 BYTE   W01
 BYTE   W02
 BYTE   W01
 BYTE   W05
 BYTE   W01
 BYTE   N06  Cn4  v072
 BYTE   W06
 BYTE   Dn4
 BYTE   W06
 BYTE   N32  Ds4  v080
 BYTE   W22
 BYTE   W01
 BYTE   W01
 BYTE   W02
 BYTE   W01
 BYTE   W02
 BYTE   W01
 BYTE   W05
 BYTE   W01
 BYTE   N06  Dn4  v072
 BYTE   W06
 BYTE   Cn4
 BYTE   W06
//  #01 //032   ----------------------------------------
 BYTE   N24  Dn4  v080
 BYTE   W24
 BYTE   An3  v072
 BYTE   W24
 BYTE   As3  v080
 BYTE   W24
 BYTE   Cn4
 BYTE   W24
//  #01 //033   ----------------------------------------
 BYTE   PATT
  POIN2 Label_0100568A
//  #01 //034   ----------------------------------------
 BYTE   PATT
  POIN2 Label_010056A5
//  #01 //035   ----------------------------------------
 BYTE   N32  Ds4  v080
 BYTE   W20
 BYTE   W02
 BYTE   W02
 BYTE   W02
 BYTE   W02
 BYTE   W02
 BYTE   W05
 BYTE   W01
 BYTE   N06  Cn4
 BYTE   W06
 BYTE   Dn4
 BYTE   W06
 BYTE   N32  Ds4
 BYTE   W22
 BYTE   W01
 BYTE   W01
 BYTE   W02
 BYTE   W01
 BYTE   W02
 BYTE   W01
 BYTE   W05
 BYTE   W01
 BYTE   N06  Dn4
 BYTE   W06
 BYTE   Cn4
 BYTE   W06
//  #01 //036   ----------------------------------------
 BYTE   N90  Dn4
 BYTE   W72
 BYTE   W02
 BYTE   W02
 BYTE   W02
 BYTE   W01
 BYTE   W02
 BYTE   W02
 BYTE   W03
 BYTE   W02
 BYTE   W07
 BYTE   W01
//  #01 //037   ----------------------------------------
 BYTE   N16  Ds4
 BYTE   W16
 BYTE   Fn4  v072
 BYTE   W16
 BYTE   Gn4
 BYTE   W16
 BYTE   Fn4
 BYTE   W16
 BYTE   Cn4  v064
 BYTE   W16
 BYTE   Fn4
 BYTE   W16
//  #01 //038   ----------------------------------------
 BYTE   N90  Dn4
 BYTE   W78
 BYTE   W01
 BYTE   W02
 BYTE   W01
 BYTE   W02
 BYTE   W01
 BYTE   W03
 BYTE   W03
 BYTE   W04
 BYTE   W01
//  #01 //039   ----------------------------------------
 BYTE   N16  Gn4  v080
 BYTE   W16
 BYTE   An4  v072
 BYTE   W16
 BYTE   As4
 BYTE   W16
 BYTE   An4
 BYTE   W16
 BYTE   Fn4  v064
 BYTE   W16
 BYTE   Dn4
 BYTE   W16
//  #01 //040   ----------------------------------------
 BYTE   N90  Gn4  v072
 BYTE   W78
 BYTE   W01
 BYTE   W02
 BYTE   W01
 BYTE   W02
 BYTE   W01
 BYTE   W03
 BYTE   W03
 BYTE   W04
 BYTE   W01
//  #01 //041   ----------------------------------------
 BYTE   N16  As4  v080
 BYTE   W16
 BYTE   Cn5
 BYTE   W16
 BYTE   Cs5
 BYTE   W16
 BYTE   Cn5
 BYTE   W16
 BYTE   Gs4  v064
 BYTE   W16
 BYTE   Fn4
 BYTE   W16
//  #01 //042   ----------------------------------------
 BYTE   As4  v080
 BYTE   W16
 BYTE   Cn5
 BYTE   W16
 BYTE   Cs5
 BYTE   W16
 BYTE   Fn5
 BYTE   W16
 BYTE   Ds5  v072
 BYTE   W16
 BYTE   Cn5
 BYTE   W16
//  #01 //043   ----------------------------------------
 BYTE   N32  Cs5  v080
 BYTE   W20
 BYTE   W02
 BYTE   W02
 BYTE   W02
 BYTE   W02
 BYTE   W02
 BYTE   W05
 BYTE   W01
 BYTE   N06  As4  v072
 BYTE   W06
 BYTE   Cn5
 BYTE   W06
 BYTE   N48  Cs5  v080
 BYTE   W48
//  #01 //044   ----------------------------------------
 BYTE   N32  Ds5
 BYTE   W20
 BYTE   W02
 BYTE   W02
 BYTE   W02
 BYTE   W02
 BYTE   W02
 BYTE   W05
 BYTE   W01
 BYTE   N06  Cn5  v072
 BYTE   W06
 BYTE   Cs5
 BYTE   W06
 BYTE   N48  Ds5  v080
 BYTE   W48
//  #01 //045   ----------------------------------------
 BYTE   TIE  Fn5
 BYTE   W96
//  #01 //046   ----------------------------------------
 BYTE   W44
 BYTE   W03
 BYTE   W04
 BYTE   W04
 BYTE   W03
 BYTE   W04
 BYTE   W03
 BYTE   W05
 BYTE   W04
 BYTE   W03
 BYTE   W03
 BYTE   W04
 BYTE   W03
 BYTE   W04
 BYTE   W03
 BYTE   W02
//  #01 //047   ----------------------------------------
 BYTE   EOT
 BYTE   W12
 BYTE   W84
//  #01 //048   ----------------------------------------
 BYTE   W96
//  #01 //049   ----------------------------------------
 BYTE   W96
//  #01 //050   ----------------------------------------
 BYTE   W96
//  #01 //051   ----------------------------------------
 BYTE   W96
//  #01 //052   ----------------------------------------
 BYTE   W96
//  #01 //053   ----------------------------------------
 BYTE   W96
//  #01 //054   ----------------------------------------
 BYTE   W96
//  #01 //055   ----------------------------------------
 BYTE   W96
//  #01 //056   ----------------------------------------
 BYTE   W96
//  #01 //057   ----------------------------------------
 BYTE   W96
//  #01 //058   ----------------------------------------
 BYTE   W96
//  #01 //059   ----------------------------------------
 BYTE   GoTo
  POIN2 Label_0100559D
//  #01 //060   ----------------------------------------
 BYTE   PATT
  POIN2 Label_0100559D
 BYTE   FINE

//**************** Track 2 (Midi-Chn.1) ****************//

DraculaCastle_002:
//  #02 //000   ----------------------------------------
 BYTE   KEYSH   DraculaCastle_key+0
 BYTE   VOICE   33
 BYTE   VOL   34*DraculaCastle_mvl/mxv
 BYTE   PAN   c_v+24
 BYTE   W96
//  #02 //001   ----------------------------------------
 BYTE   W96
//  #02 //002   ----------------------------------------
 BYTE   W96
//  #02 //003   ----------------------------------------
 BYTE   W96
//  #02 //004   ----------------------------------------
 BYTE   TIE  Bn0  v052
 BYTE   W96
//  #02 //005   ----------------------------------------
 BYTE   W96
//  #02 //006   ----------------------------------------
 BYTE   EOT
 BYTE   TIE  Cn1
 BYTE   W96
//  #02 //007   ----------------------------------------
 BYTE   W96
//  #02 //008   ----------------------------------------
 BYTE   EOT
Label_010091AB:
 BYTE   N16  Dn0  v080
 BYTE   W24
 BYTE   N10
 BYTE   W12
 BYTE   Dn1
 BYTE   W12
 BYTE   Dn0
 BYTE   W12
 BYTE   N10
 BYTE   W12
 BYTE   N10
 BYTE   W12
 BYTE   N10
 BYTE   W11
 BYTE   N01
 BYTE   W01
 BYTE   PEND 
//  #02 //009   ----------------------------------------
 BYTE   PATT
  POIN2 Label_010091AB
//  #02 //010   ----------------------------------------
Label_010091C3:
 BYTE   N16  Dn0  v080
 BYTE   W24
 BYTE   N10
 BYTE   W12
 BYTE   N10
 BYTE   W12
 BYTE   N10
 BYTE   W12
 BYTE   N10
 BYTE   W12
 BYTE   N10
 BYTE   W12
 BYTE   N10
 BYTE   W11
 BYTE   N01
 BYTE   W01
 BYTE   PEND 
//  #02 //011   ----------------------------------------
 BYTE   PATT
  POIN2 Label_010091C3
//  #02 //012   ----------------------------------------
Label_010091DB:
 BYTE   N10  Gn0  v080
 BYTE   W24
 BYTE   N24
 BYTE   W36
 BYTE   N10
 BYTE   W12
 BYTE   N10
 BYTE   W12
 BYTE   N10
 BYTE   W12
 BYTE   PEND 
//  #02 //013   ----------------------------------------
 BYTE   PATT
  POIN2 Label_010091DB
//  #02 //014   ----------------------------------------
Label_010091ED:
 BYTE   N10  Ds0  v080
 BYTE   W24
 BYTE   N10
 BYTE   W24
 BYTE   Fn0
 BYTE   W24
 BYTE   N10
 BYTE   W24
 BYTE   PEND 
//  #02 //015   ----------------------------------------
 BYTE   PATT
  POIN2 Label_010091DB
//  #02 //016   ----------------------------------------
 BYTE   PATT
  POIN2 Label_010091DB
//  #02 //017   ----------------------------------------
 BYTE   PATT
  POIN2 Label_010091DB
//  #02 //018   ----------------------------------------
 BYTE   PATT
  POIN2 Label_010091ED
//  #02 //019   ----------------------------------------
 BYTE   PATT
  POIN2 Label_010091DB
//  #02 //020   ----------------------------------------
 BYTE   N10  Ds0  v080
 BYTE   W24
 BYTE   N24
 BYTE   W36
 BYTE   N10
 BYTE   W12
 BYTE   N10
 BYTE   W12
 BYTE   N10
 BYTE   W12
//  #02 //021   ----------------------------------------
 BYTE   Dn0
 BYTE   W24
 BYTE   N24
 BYTE   W24
 BYTE   N10  Gn0
 BYTE   W24
 BYTE   N24
 BYTE   W24
//  #02 //022   ----------------------------------------
 BYTE   N10  Cn0
 BYTE   W24
 BYTE   N24
 BYTE   W24
 BYTE   N10  Dn0
 BYTE   W24
 BYTE   N24
 BYTE   W24
//  #02 //023   ----------------------------------------
 BYTE   PATT
  POIN2 Label_010091DB
//  #02 //024   ----------------------------------------
 BYTE   N10  Ds0  v080
 BYTE   W24
 BYTE   N24
 BYTE   W36
 BYTE   N10  Dn0
 BYTE   W12
 BYTE   N10
 BYTE   W12
 BYTE   N10
 BYTE   W12
//  #02 //025   ----------------------------------------
 BYTE   Gn0
 BYTE   W24
 BYTE   N24
 BYTE   W36
 BYTE   N10  Fn0
 BYTE   W12
 BYTE   N10
 BYTE   W12
 BYTE   N10
 BYTE   W12
//  #02 //026   ----------------------------------------
 BYTE   En0
 BYTE   W24
 BYTE   N24
 BYTE   W24
 BYTE   N10  An0
 BYTE   W24
 BYTE   N24
 BYTE   W24
//  #02 //027   ----------------------------------------
 BYTE   N10  Dn1
 BYTE   W24
 BYTE   N24
 BYTE   W36
 BYTE   Dn2
 BYTE   W24
 BYTE   N10
 BYTE   W12
//  #02 //028   ----------------------------------------
 BYTE   Dn1
 BYTE   W24
 BYTE   N24
 BYTE   W36
 BYTE   N10
 BYTE   W12
 BYTE   N10
 BYTE   W12
 BYTE   N10
 BYTE   W12
//  #02 //029   ----------------------------------------
 BYTE   Gn1
 BYTE   W12
 BYTE   N10
 BYTE   W12
 BYTE   Gn2
 BYTE   W12
 BYTE   Gn1
 BYTE   W12
 BYTE   N10
 BYTE   W12
 BYTE   N10
 BYTE   W12
 BYTE   N10
 BYTE   W12
 BYTE   N10
 BYTE   W12
//  #02 //030   ----------------------------------------
 BYTE   Fn1
 BYTE   W12
 BYTE   N10
 BYTE   W12
 BYTE   Fn2
 BYTE   W12
 BYTE   Fn1
 BYTE   W12
 BYTE   N10
 BYTE   W12
 BYTE   N10
 BYTE   W12
 BYTE   Fn2
 BYTE   W12
 BYTE   Fn1
 BYTE   W12
//  #02 //031   ----------------------------------------
 BYTE   Ds1
 BYTE   W12
 BYTE   N10
 BYTE   W12
 BYTE   N10
 BYTE   W12
 BYTE   N10
 BYTE   W12
 BYTE   N10
 BYTE   W12
 BYTE   N10
 BYTE   W12
 BYTE   Ds2
 BYTE   W12
 BYTE   Fn2
 BYTE   W12
//  #02 //032   ----------------------------------------
 BYTE   Dn1
 BYTE   W12
 BYTE   N10
 BYTE   W12
 BYTE   Dn2
 BYTE   W12
 BYTE   Dn1
 BYTE   W12
 BYTE   N10
 BYTE   W12
 BYTE   N10
 BYTE   W12
 BYTE   Dn2
 BYTE   W12
 BYTE   Dn1
 BYTE   W12
//  #02 //033   ----------------------------------------
Label_010092A9:
 BYTE   N10  Gn1  v080
 BYTE   W12
 BYTE   N10
 BYTE   W12
 BYTE   N10
 BYTE   W12
 BYTE   N10
 BYTE   W12
 BYTE   N10
 BYTE   W12
 BYTE   N10
 BYTE   W12
 BYTE   N10
 BYTE   W12
 BYTE   N10
 BYTE   W12
 BYTE   PEND 
//  #02 //034   ----------------------------------------
 BYTE   Fn1
 BYTE   W12
 BYTE   N10
 BYTE   W12
 BYTE   N10
 BYTE   W12
 BYTE   N10
 BYTE   W12
 BYTE   N10
 BYTE   W12
 BYTE   N10
 BYTE   W12
 BYTE   N10
 BYTE   W12
 BYTE   N10
 BYTE   W12
//  #02 //035   ----------------------------------------
 BYTE   Cn1
 BYTE   W12
 BYTE   N10
 BYTE   W12
 BYTE   N10
 BYTE   W12
 BYTE   N10
 BYTE   W12
 BYTE   N10
 BYTE   W12
 BYTE   N10
 BYTE   W12
 BYTE   N10
 BYTE   W12
 BYTE   N10
 BYTE   W12
//  #02 //036   ----------------------------------------
 BYTE   Dn1
 BYTE   W12
 BYTE   N10
 BYTE   W12
 BYTE   N10
 BYTE   W12
 BYTE   N10
 BYTE   W12
 BYTE   N10
 BYTE   W12
 BYTE   N10
 BYTE   W12
 BYTE   N10
 BYTE   W12
 BYTE   N10
 BYTE   W12
//  #02 //037   ----------------------------------------
 BYTE   Ds1
 BYTE   W12
 BYTE   N10
 BYTE   W12
 BYTE   N10
 BYTE   W12
 BYTE   N10
 BYTE   W12
 BYTE   Fn1
 BYTE   W12
 BYTE   N10
 BYTE   W12
 BYTE   N10
 BYTE   W12
 BYTE   N10
 BYTE   W12
//  #02 //038   ----------------------------------------
 BYTE   Gn1
 BYTE   W12
 BYTE   N10
 BYTE   W12
 BYTE   N10
 BYTE   W12
 BYTE   N10
 BYTE   W12
 BYTE   N10
 BYTE   W12
 BYTE   N10
 BYTE   W12
 BYTE   Gn2
 BYTE   W12
 BYTE   Gn1
 BYTE   W12
//  #02 //039   ----------------------------------------
 BYTE   Cn1
 BYTE   W12
 BYTE   N10
 BYTE   W12
 BYTE   N10
 BYTE   W12
 BYTE   N10
 BYTE   W12
 BYTE   Dn1
 BYTE   W12
 BYTE   N10
 BYTE   W12
 BYTE   N10
 BYTE   W12
 BYTE   N10
 BYTE   W12
//  #02 //040   ----------------------------------------
 BYTE   PATT
  POIN2 Label_010092A9
//  #02 //041   ----------------------------------------
 BYTE   N10  Fs1  v080
 BYTE   W12
 BYTE   N10
 BYTE   W12
 BYTE   N10
 BYTE   W12
 BYTE   N10
 BYTE   W12
 BYTE   Gs1
 BYTE   W12
 BYTE   N10
 BYTE   W12
 BYTE   N10
 BYTE   W12
 BYTE   N10
 BYTE   W12
//  #02 //042   ----------------------------------------
 BYTE   Ds1
 BYTE   W12
 BYTE   N10
 BYTE   W12
 BYTE   Ds2
 BYTE   W12
 BYTE   Fn2
 BYTE   W12
 BYTE   Fn1
 BYTE   W12
 BYTE   N10
 BYTE   W12
 BYTE   Fn2
 BYTE   W12
 BYTE   Fn1
 BYTE   W12
//  #02 //043   ----------------------------------------
 BYTE   Fs1
 BYTE   W12
 BYTE   N10
 BYTE   W12
 BYTE   Fs2
 BYTE   W12
 BYTE   Fs1
 BYTE   W12
 BYTE   N10
 BYTE   W12
 BYTE   N10
 BYTE   W12
 BYTE   Fs2
 BYTE   W12
 BYTE   Fs1
 BYTE   W12
//  #02 //044   ----------------------------------------
 BYTE   Gs1
 BYTE   W12
 BYTE   N10
 BYTE   W12
 BYTE   N10
 BYTE   W12
 BYTE   N10
 BYTE   W12
 BYTE   N10
 BYTE   W12
 BYTE   N10
 BYTE   W12
 BYTE   N10
 BYTE   W12
 BYTE   N10
 BYTE   W12
//  #02 //045   ----------------------------------------
Label_01009363:
 BYTE   N10  As1  v080
 BYTE   W12
 BYTE   N10
 BYTE   W12
 BYTE   N10
 BYTE   W12
 BYTE   N10
 BYTE   W12
 BYTE   N10
 BYTE   W12
 BYTE   N10
 BYTE   W12
 BYTE   N10
 BYTE   W12
 BYTE   N10
 BYTE   W12
 BYTE   PEND 
//  #02 //046   ----------------------------------------
 BYTE   PATT
  POIN2 Label_01009363
//  #02 //047   ----------------------------------------
 BYTE   W96
//  #02 //048   ----------------------------------------
 BYTE   W96
//  #02 //049   ----------------------------------------
 BYTE   W96
//  #02 //050   ----------------------------------------
 BYTE   W96
//  #02 //051   ----------------------------------------
 BYTE   W24
 BYTE   N72  As0  v080
 BYTE   W72
//  #02 //052   ----------------------------------------
 BYTE   N10  Gs0
 BYTE   W24
 BYTE   N10
 BYTE   W72
//  #02 //053   ----------------------------------------
 BYTE   W24
 BYTE   N72  Fs0
 BYTE   W72
//  #02 //054   ----------------------------------------
 BYTE   N48  Ds0
 BYTE   W48
 BYTE   Fn0
 BYTE   W48
//  #02 //055   ----------------------------------------
 BYTE   N04
 BYTE   W06
 BYTE   N10
 BYTE   W18
 BYTE   N04
 BYTE   W06
 BYTE   N10
 BYTE   W30
 BYTE   As0
 BYTE   W18
 BYTE   An0
 BYTE   W18
//  #02 //056   ----------------------------------------
 BYTE   N04  Fn0
 BYTE   W06
 BYTE   N10
 BYTE   W18
 BYTE   N04
 BYTE   W06
 BYTE   N10
 BYTE   W30
 BYTE   Ds0
 BYTE   W18
 BYTE   Cs0
 BYTE   W04
 BYTE   BEND   c_v-5
 BYTE   W01
 BYTE   BEND   c_v-10
 BYTE   W01
 BYTE   BEND   c_v-15
 BYTE   W01
 BYTE   BEND   c_v-23
 BYTE   W01
 BYTE   BEND   c_v-29
 BYTE   W01
 BYTE   BEND   c_v-35
 BYTE   W01
 BYTE   BEND   c_v-45
 BYTE   W01
 BYTE   BEND   c_v-57
 BYTE   W01
 BYTE   BEND   c_v-64
 BYTE   W05
 BYTE   BEND   c_v+0
 BYTE   W01
//  #02 //057   ----------------------------------------
 BYTE   N10  Fn0
 BYTE   W12
 BYTE   N10
 BYTE   W12
 BYTE   N10
 BYTE   W12
 BYTE   N10
 BYTE   W12
 BYTE   N10
 BYTE   W12
 BYTE   As0
 BYTE   W18
 BYTE   An0
 BYTE   W18
//  #02 //058   ----------------------------------------
 BYTE   Fn0
 BYTE   W96
//  #02 //059   ----------------------------------------
 BYTE   GoTo
  POIN2 Label_010091DB
//  #02 //060   ----------------------------------------
 BYTE   N10  Gn0  v080
 BYTE   W24
 BYTE   N24
 BYTE   W36
 BYTE   N10
 BYTE   W12
 BYTE   N10
 BYTE   W12
 BYTE   N10
 BYTE   W10
 BYTE   BEND   c_v+0
 BYTE   W02
 BYTE   FINE

//**************** Track 3 (Midi-Chn.2) ****************//

DraculaCastle_003:
//  #03 //000   ----------------------------------------
 BYTE   KEYSH   DraculaCastle_key+0
 BYTE   VOICE   48
 BYTE   VOL   39*DraculaCastle_mvl/mxv
 BYTE   PAN   c_v-14
 BYTE   W96
//  #03 //001   ----------------------------------------
 BYTE   W96
//  #03 //002   ----------------------------------------
 BYTE   W96
//  #03 //003   ----------------------------------------
 BYTE   W96
//  #03 //004   ----------------------------------------
 BYTE   W96
//  #03 //005   ----------------------------------------
 BYTE   W96
//  #03 //006   ----------------------------------------
 BYTE   W96
//  #03 //007   ----------------------------------------
 BYTE   W96
//  #03 //008   ----------------------------------------
 BYTE   W96
//  #03 //009   ----------------------------------------
 BYTE   W96
//  #03 //010   ----------------------------------------
 BYTE   W96
//  #03 //011   ----------------------------------------
 BYTE   W96
//  #03 //012   ----------------------------------------
Label_01004F3C:
 BYTE   N48  As2  v064
 BYTE   N48  Dn3
 BYTE   W48
 BYTE   Fs2
 BYTE   N48  Ds3
 BYTE   W48
 BYTE   PEND 
//  #03 //013   ----------------------------------------
Label_01004F47:
 BYTE   N36  Gn2  v064
 BYTE   N48  Dn3
 BYTE   W36
 BYTE   N06  Fn2  v080
 BYTE   W06
 BYTE   Gn2
 BYTE   W06
 BYTE   N48  Cn3
 BYTE   N48  Ds3
 BYTE   W48
 BYTE   PEND 
//  #03 //014   ----------------------------------------
Label_01004F59:
 BYTE   N48  As2  v064
 BYTE   N48  Ds3
 BYTE   W48
 BYTE   An2  v080
 BYTE   N48  Fn3  v064
 BYTE   W48
 BYTE   PEND 
//  #03 //015   ----------------------------------------
 BYTE   N96  Gn2  v080
 BYTE   N36  Cn3  v064
 BYTE   N96  Gn3
 BYTE   W36
 BYTE   N06  Dn3
 BYTE   W06
 BYTE   Cn3
 BYTE   W06
 BYTE   N48  Bn2
 BYTE   W48
//  #03 //016   ----------------------------------------
 BYTE   PATT
  POIN2 Label_01004F3C
//  #03 //017   ----------------------------------------
 BYTE   PATT
  POIN2 Label_01004F47
//  #03 //018   ----------------------------------------
 BYTE   PATT
  POIN2 Label_01004F59
//  #03 //019   ----------------------------------------
 BYTE   N96  Gn2  v080
 BYTE   N96  Gn3  v064
 BYTE   W96
//  #03 //020   ----------------------------------------
 BYTE   As2
 BYTE   W96
//  #03 //021   ----------------------------------------
 BYTE   N48  An2
 BYTE   W48
 BYTE   Bn2
 BYTE   W48
//  #03 //022   ----------------------------------------
 BYTE   Bn2  v040
 BYTE   W48
 BYTE   N18  Gn2  v064
 BYTE   W18
 BYTE   An2
 BYTE   W18
 BYTE   N12  As2
 BYTE   W12
//  #03 //023   ----------------------------------------
 BYTE   N48  Cn3
 BYTE   W48
 BYTE   N96  As2
 BYTE   W48
//  #03 //024   ----------------------------------------
 BYTE   W96
//  #03 //025   ----------------------------------------
 BYTE   Dn3
 BYTE   W96
//  #03 //026   ----------------------------------------
 BYTE   N18
 BYTE   W18
 BYTE   Cn3
 BYTE   W18
 BYTE   N12  As2
 BYTE   W12
 BYTE   N48  An2
 BYTE   W48
//  #03 //027   ----------------------------------------
 BYTE   TIE  Dn3
 BYTE   N08  Dn4  v052
 BYTE   N08  Dn5
 BYTE   W24
 BYTE   Dn4  v060
 BYTE   N08  Dn5
 BYTE   W24
 BYTE   Dn4  v076
 BYTE   N08  Dn5
 BYTE   W24
 BYTE   Dn4
 BYTE   N08  Dn5
 BYTE   W24
//  #03 //028   ----------------------------------------
 BYTE   Dn4  v080
 BYTE   N08  Dn5
 BYTE   W24
 BYTE   Dn4
 BYTE   N08  Dn5
 BYTE   W24
 BYTE   N06  Dn5  v092
 BYTE   W06
 BYTE   An4
 BYTE   W06
 BYTE   Gn4
 BYTE   W06
 BYTE   Fs4
 BYTE   W06
 BYTE   Dn4
 BYTE   W06
 BYTE   An3
 BYTE   W06
 BYTE   Gn3
 BYTE   W06
 BYTE   Fs3
 BYTE   W06
//  #03 //029   ----------------------------------------
 BYTE   EOT
 BYTE   Dn3
 BYTE   N96  Dn3  v080
 BYTE   N96  Gn3
 BYTE   W96
//  #03 //030   ----------------------------------------
 BYTE   Cn3
 BYTE   N96  Fn3
 BYTE   W96
//  #03 //031   ----------------------------------------
 BYTE   As2
 BYTE   N96  Gn3
 BYTE   W96
//  #03 //032   ----------------------------------------
 BYTE   N24  Dn3
 BYTE   N24  Fs3
 BYTE   W24
 BYTE   An2
 BYTE   N24  Dn3
 BYTE   W24
 BYTE   As2
 BYTE   N24  En3
 BYTE   W24
 BYTE   Cn3
 BYTE   N24  Fs3
 BYTE   W24
//  #03 //033   ----------------------------------------
 BYTE   N96  Dn3
 BYTE   N96  Gn3
 BYTE   W96
//  #03 //034   ----------------------------------------
 BYTE   Cn3
 BYTE   N96  Fn3
 BYTE   W96
//  #03 //035   ----------------------------------------
 BYTE   As2
 BYTE   N96  Ds3
 BYTE   W96
//  #03 //036   ----------------------------------------
 BYTE   N24  An2
 BYTE   N24  Dn3
 BYTE   W24
 BYTE   Fs2
 BYTE   N24  An2
 BYTE   W24
 BYTE   Gn2
 BYTE   N24  As2
 BYTE   W24
 BYTE   An2
 BYTE   N24  Cn3
 BYTE   W24
//  #03 //037   ----------------------------------------
 BYTE   N48  Gn2  v064
 BYTE   N48  As2
 BYTE   W48
 BYTE   An2
 BYTE   N48  Cn3
 BYTE   W48
//  #03 //038   ----------------------------------------
 BYTE   N96  As2
 BYTE   N96  Dn3
 BYTE   W48
 BYTE   N06  Dn5  v092
 BYTE   W06
 BYTE   As4
 BYTE   W06
 BYTE   An4
 BYTE   W06
 BYTE   Gn4
 BYTE   W06
 BYTE   Dn4
 BYTE   W06
 BYTE   As3
 BYTE   W06
 BYTE   Gn3
 BYTE   W12
//  #03 //039   ----------------------------------------
 BYTE   N48  Ds2  v064
 BYTE   N48  Gn2
 BYTE   W48
 BYTE   An2
 BYTE   N48  Cn3
 BYTE   W48
//  #03 //040   ----------------------------------------
 BYTE   N96  Gn2
 BYTE   N96  As2
 BYTE   W48
 BYTE   N06  Gn5  v092
 BYTE   W06
 BYTE   Dn5
 BYTE   W06
 BYTE   Cn5
 BYTE   W06
 BYTE   As4
 BYTE   W06
 BYTE   Gn4
 BYTE   W06
 BYTE   Dn4
 BYTE   W06
 BYTE   As3
 BYTE   W12
//  #03 //041   ----------------------------------------
 BYTE   N48  Fs3  v064
 BYTE   N48  As3
 BYTE   N48  Cs4
 BYTE   W48
 BYTE   Gs3
 BYTE   N48  Cn4
 BYTE   N48  Ds4
 BYTE   W48
//  #03 //042   ----------------------------------------
 BYTE   Fs3
 BYTE   N48  As3
 BYTE   N48  Cs4
 BYTE   W48
 BYTE   Fn3
 BYTE   N48  Gs3
 BYTE   N48  Cn4
 BYTE   W48
//  #03 //043   ----------------------------------------
 BYTE   N96  Cs3
 BYTE   N96  Fs3
 BYTE   N96  As3
 BYTE   W96
//  #03 //044   ----------------------------------------
 BYTE   Ds3
 BYTE   N96  Gs3
 BYTE   N96  Cn4
 BYTE   W96
//  #03 //045   ----------------------------------------
 BYTE   TIE  Fn3
 BYTE   TIE  As3
 BYTE   TIE  Dn4
 BYTE   W96
//  #03 //046   ----------------------------------------
 BYTE   W96
//  #03 //047   ----------------------------------------
 BYTE   EOT
 BYTE   Fn3  v070
 BYTE   Dn4
 BYTE   W96
//  #03 //048   ----------------------------------------
 BYTE   W96
//  #03 //049   ----------------------------------------
 BYTE   W96
//  #03 //050   ----------------------------------------
 BYTE   W96
//  #03 //051   ----------------------------------------
 BYTE   W96
//  #03 //052   ----------------------------------------
 BYTE   W96
//  #03 //053   ----------------------------------------
 BYTE   W96
//  #03 //054   ----------------------------------------
 BYTE   W96
//  #03 //055   ----------------------------------------
 BYTE   W96
//  #03 //056   ----------------------------------------
 BYTE   W96
//  #03 //057   ----------------------------------------
 BYTE   W96
//  #03 //058   ----------------------------------------
 BYTE   W96
//  #03 //059   ----------------------------------------
 BYTE   GoTo
  POIN2 Label_01004F3C
//  #03 //060   ----------------------------------------
 BYTE   PAN   c_v-14
 BYTE   N48  As2  v064
 BYTE   N48  Dn3
 BYTE   W48
 BYTE   Fs2
 BYTE   N48  Ds3
 BYTE   W48
 BYTE   FINE

//**************** Track 4 (Midi-Chn.3) ****************//

DraculaCastle_004:
//  #04 //000   ----------------------------------------
 BYTE   KEYSH   DraculaCastle_key+0
 BYTE   VOICE   48
 BYTE   VOL   43*DraculaCastle_mvl/mxv
 BYTE   PAN   c_v-1
 BYTE   TIE  An3  v040
 BYTE   TIE  Bn3  v080
 BYTE   TIE  En4  v040
 BYTE   W01
 BYTE   W01
 BYTE   W01
 BYTE   W01
 BYTE   W01
 BYTE   W01
 BYTE   W01
 BYTE   W01
 BYTE   W01
 BYTE   W01
 BYTE   W01
 BYTE   W01
 BYTE   W01
 BYTE   W01
 BYTE   W01
 BYTE   W01
 BYTE   W01
 BYTE   W01
 BYTE   W01
 BYTE   W01
 BYTE   W01
 BYTE   W01
 BYTE   W01
 BYTE   W01
 BYTE   W01
 BYTE   W01
 BYTE   W01
 BYTE   W01
 BYTE   W01
 BYTE   W01
 BYTE   W01
 BYTE   W01
 BYTE   W01
 BYTE   W01
 BYTE   W01
 BYTE   W01
 BYTE   W01
 BYTE   W01
 BYTE   W01
 BYTE   W01
 BYTE   W01
 BYTE   W01
 BYTE   W01
 BYTE   W01
 BYTE   W01
 BYTE   W01
 BYTE   W01
 BYTE   W01
 BYTE   W01
 BYTE   W01
 BYTE   W01
 BYTE   W01
 BYTE   W01
 BYTE   W01
 BYTE   W01
 BYTE   W01
 BYTE   W01
 BYTE   W01
 BYTE   W01
 BYTE   W01
 BYTE   W01
 BYTE   W01
 BYTE   W01
 BYTE   W01
 BYTE   W01
 BYTE   W01
 BYTE   W01
 BYTE   W01
 BYTE   W01
 BYTE   W01
 BYTE   W01
 BYTE   W01
 BYTE   W01
 BYTE   W01
 BYTE   W01
 BYTE   W01
 BYTE   W01
 BYTE   W01
 BYTE   W01
 BYTE   W01
 BYTE   W01
 BYTE   W01
 BYTE   W01
 BYTE   W01
 BYTE   W01
 BYTE   W01
 BYTE   W01
 BYTE   W01
 BYTE   W01
 BYTE   W01
 BYTE   W01
 BYTE   W01
 BYTE   W01
 BYTE   W01
 BYTE   W01
 BYTE   W01
//  #04 //001   ----------------------------------------
 BYTE   W01
 BYTE   W01
 BYTE   W01
 BYTE   W01
 BYTE   W01
 BYTE   W01
 BYTE   W01
 BYTE   W01
 BYTE   W01
 BYTE   W01
 BYTE   W01
 BYTE   W01
 BYTE   W01
 BYTE   W01
 BYTE   W01
 BYTE   W01
 BYTE   W01
 BYTE   W01
 BYTE   W01
 BYTE   W01
 BYTE   W01
 BYTE   W01
 BYTE   W01
 BYTE   W01
 BYTE   W01
 BYTE   W01
 BYTE   W01
 BYTE   W01
 BYTE   W01
 BYTE   W01
 BYTE   W01
 BYTE   W01
 BYTE   W01
 BYTE   W01
 BYTE   W01
 BYTE   W01
 BYTE   W01
 BYTE   W01
 BYTE   W01
 BYTE   W01
 BYTE   W01
 BYTE   W01
 BYTE   W01
 BYTE   W01
 BYTE   W01
 BYTE   W01
 BYTE   W01
 BYTE   W01
 BYTE   W48
//  #04 //002   ----------------------------------------
 BYTE   EOT
 BYTE   An3  v071
 BYTE   En4
 BYTE   N96  An3  v068
 BYTE   W96
//  #04 //003   ----------------------------------------
 BYTE   N48  Gn3  v080
 BYTE   W48
 BYTE   An3
 BYTE   W48
//  #04 //004   ----------------------------------------
 BYTE   N96  Bn3
 BYTE   W96
//  #04 //005   ----------------------------------------
 BYTE   N24  An3  v052
 BYTE   W24
 BYTE   An3  v080
 BYTE   W24
 BYTE   Bn3
 BYTE   W24
 BYTE   Cs4
 BYTE   W24
//  #04 //006   ----------------------------------------
 BYTE   N48  Dn4
 BYTE   W48
 BYTE   N24  Cn4
 BYTE   W24
 BYTE   Dn4
 BYTE   W24
//  #04 //007   ----------------------------------------
 BYTE   N48  Fn4
 BYTE   W48
 BYTE   Ds4
 BYTE   W48
//  #04 //008   ----------------------------------------
 BYTE   TIE  Dn4
 BYTE   W96
//  #04 //009   ----------------------------------------
 BYTE   W96
//  #04 //010   ----------------------------------------
 BYTE   W96
//  #04 //011   ----------------------------------------
 BYTE   EOT
 BYTE   W96
//  #04 //012   ----------------------------------------
Label_01008476:
 BYTE   PAN   c_v+10
 BYTE   W96
//  #04 //013   ----------------------------------------
 BYTE   W96
//  #04 //014   ----------------------------------------
 BYTE   W96
//  #04 //015   ----------------------------------------
 BYTE   N36  Cn3  v064
 BYTE   W36
 BYTE   N06  Dn3
 BYTE   W06
 BYTE   Cn3
 BYTE   W06
 BYTE   N48  Bn2
 BYTE   W48
//  #04 //016   ----------------------------------------
 BYTE   W96
//  #04 //017   ----------------------------------------
 BYTE   W96
//  #04 //018   ----------------------------------------
 BYTE   W96
//  #04 //019   ----------------------------------------
 BYTE   N36  Cn3
 BYTE   W36
 BYTE   N06  Dn3
 BYTE   W06
 BYTE   Cn3
 BYTE   W06
 BYTE   N48  Bn2
 BYTE   W24
 BYTE   PAN   c_v+27
 BYTE   N06  Ds3  v072
 BYTE   W06
 BYTE   PAN   c_v+36
 BYTE   N06  Fn3
 BYTE   W06
 BYTE   PAN   c_v+41
 BYTE   N06  Gn3
 BYTE   W06
 BYTE   PAN   c_v+46
 BYTE   N08  An3
 BYTE   W06
//  #04 //020   ----------------------------------------
 BYTE   W02
 BYTE   N32  Gn3
 BYTE   W32
 BYTE   W02
 BYTE   N06  An3
 BYTE   W06
 BYTE   As3
 BYTE   W06
 BYTE   N16  Gn3
 BYTE   W16
 BYTE   Fn3
 BYTE   W16
 BYTE   Ds3
 BYTE   W16
//  #04 //021   ----------------------------------------
 BYTE   N36  Fn3
 BYTE   W36
 BYTE   N06  Gn3
 BYTE   W06
 BYTE   An3
 BYTE   W06
 BYTE   N24  As3
 BYTE   W24
 BYTE   Gs3
 BYTE   W24
//  #04 //022   ----------------------------------------
 BYTE   N16  Gn3
 BYTE   W16
 BYTE   Fn3
 BYTE   W16
 BYTE   Ds3
 BYTE   W16
 BYTE   An3
 BYTE   W16
 BYTE   Gn3
 BYTE   W16
 BYTE   Fn3
 BYTE   W16
//  #04 //023   ----------------------------------------
 BYTE   N96  Dn3
 BYTE   W96
//  #04 //024   ----------------------------------------
 BYTE   N16  Ds3
 BYTE   W16
 BYTE   Fn3
 BYTE   W16
 BYTE   Gn3
 BYTE   W16
 BYTE   Fs3
 BYTE   W16
 BYTE   Gn3
 BYTE   W16
 BYTE   An3
 BYTE   W16
//  #04 //025   ----------------------------------------
 BYTE   As3
 BYTE   W16
 BYTE   An3
 BYTE   W16
 BYTE   N64  Gn3
 BYTE   W64
//  #04 //026   ----------------------------------------
 BYTE   N16
 BYTE   W16
 BYTE   An3
 BYTE   W16
 BYTE   As3
 BYTE   W16
 BYTE   An3
 BYTE   W16
 BYTE   En3
 BYTE   W16
 BYTE   An3
 BYTE   W16
//  #04 //027   ----------------------------------------
 BYTE   N84  Gn3
 BYTE   W84
 BYTE   N06  Fs3
 BYTE   W06
 BYTE   En3
 BYTE   W06
//  #04 //028   ----------------------------------------
 BYTE   N96  Fs3
 BYTE   W96
//  #04 //029   ----------------------------------------
 BYTE   PAN   c_v-1
 BYTE   N36  Dn4  v080
 BYTE   W36
 BYTE   N06  As3
 BYTE   W06
 BYTE   Cn4
 BYTE   W06
 BYTE   N16  Dn4
 BYTE   W16
 BYTE   Cn4
 BYTE   W16
 BYTE   As3
 BYTE   W16
//  #04 //030   ----------------------------------------
Label_01008515:
 BYTE   N24  Cn4  v080
 BYTE   W24
 BYTE   Fn3
 BYTE   W24
 BYTE   N36  Fn4
 BYTE   W36
 BYTE   N06  Ds4
 BYTE   W06
 BYTE   Dn4
 BYTE   W06
 BYTE   PEND 
//  #04 //031   ----------------------------------------
 BYTE   N32  Ds4
 BYTE   W36
 BYTE   N06  Cn4
 BYTE   W06
 BYTE   Dn4
 BYTE   W06
 BYTE   N32  Ds4
 BYTE   W36
 BYTE   N06  Dn4
 BYTE   W06
 BYTE   Cn4
 BYTE   W06
//  #04 //032   ----------------------------------------
 BYTE   N24  Dn4
 BYTE   W24
 BYTE   An3
 BYTE   W24
 BYTE   As3
 BYTE   W24
 BYTE   Cn4
 BYTE   W24
//  #04 //033   ----------------------------------------
 BYTE   N36  Dn4
 BYTE   W36
 BYTE   N06  As3
 BYTE   W06
 BYTE   Cn4
 BYTE   W06
 BYTE   N16  Dn4
 BYTE   W16
 BYTE   Cn4
 BYTE   W16
 BYTE   As3
 BYTE   W16
//  #04 //034   ----------------------------------------
 BYTE   PATT
  POIN2 Label_01008515
//  #04 //035   ----------------------------------------
 BYTE   N36  Ds4  v080
 BYTE   W36
 BYTE   N06  Cn4
 BYTE   W06
 BYTE   Dn4
 BYTE   W06
 BYTE   N32  Ds4
 BYTE   W36
 BYTE   N06  Dn4
 BYTE   W06
 BYTE   Cn4
 BYTE   W06
//  #04 //036   ----------------------------------------
 BYTE   N96  Dn4
 BYTE   W96
//  #04 //037   ----------------------------------------
 BYTE   PAN   c_v-26
 BYTE   N16  Ds3  v100
 BYTE   W16
 BYTE   Fn3
 BYTE   W16
 BYTE   Gn3
 BYTE   W16
 BYTE   Fn3
 BYTE   W16
 BYTE   Cn3
 BYTE   W16
 BYTE   Fn3
 BYTE   W16
//  #04 //038   ----------------------------------------
 BYTE   N96  Dn3
 BYTE   W96
//  #04 //039   ----------------------------------------
 BYTE   N16  Gn3
 BYTE   W16
 BYTE   An3
 BYTE   W16
 BYTE   As3
 BYTE   W16
 BYTE   An3
 BYTE   W16
 BYTE   Fn3
 BYTE   W16
 BYTE   Dn3
 BYTE   W16
//  #04 //040   ----------------------------------------
 BYTE   N96  Gn3
 BYTE   W96
//  #04 //041   ----------------------------------------
 BYTE   N16  As3
 BYTE   W16
 BYTE   Cn4
 BYTE   W16
 BYTE   Cs4
 BYTE   W16
 BYTE   Cn4
 BYTE   W16
 BYTE   Gs3
 BYTE   W16
 BYTE   Fn3
 BYTE   W16
//  #04 //042   ----------------------------------------
 BYTE   As3
 BYTE   W16
 BYTE   Cn4
 BYTE   W16
 BYTE   Cs4
 BYTE   W16
 BYTE   Fn4
 BYTE   W16
 BYTE   Ds4
 BYTE   W16
 BYTE   Cn4
 BYTE   W16
//  #04 //043   ----------------------------------------
 BYTE   N36  Cs4
 BYTE   W36
 BYTE   N06  As3
 BYTE   W06
 BYTE   Cn4
 BYTE   W06
 BYTE   N48  Cs4
 BYTE   W48
//  #04 //044   ----------------------------------------
 BYTE   N36  Ds4
 BYTE   W36
 BYTE   N06  Cn4
 BYTE   W06
 BYTE   Cs4
 BYTE   W06
 BYTE   N48  Ds4
 BYTE   W48
//  #04 //045   ----------------------------------------
 BYTE   TIE  As3
 BYTE   W96
//  #04 //046   ----------------------------------------
 BYTE   W54
 BYTE   W01
 BYTE   W03
 BYTE   W04
 BYTE   W08
 BYTE   W05
 BYTE   W06
 BYTE   W04
 BYTE   W01
 BYTE   W05
 BYTE   W05
//  #04 //047   ----------------------------------------
 BYTE   EOT
 BYTE   W24
 BYTE   W72
//  #04 //048   ----------------------------------------
 BYTE   W96
//  #04 //049   ----------------------------------------
 BYTE   W96
//  #04 //050   ----------------------------------------
 BYTE   W96
//  #04 //051   ----------------------------------------
 BYTE   W96
//  #04 //052   ----------------------------------------
 BYTE   W96
//  #04 //053   ----------------------------------------
 BYTE   W96
//  #04 //054   ----------------------------------------
 BYTE   W96
//  #04 //055   ----------------------------------------
 BYTE   N24  Cn3  v064
 BYTE   N24  Fn3  v080
 BYTE   W24
 BYTE   N08  Cs3  v064
 BYTE   N08  Fs3  v080
 BYTE   W36
 BYTE   Fn3  v064
 BYTE   N08  As3  v080
 BYTE   W18
 BYTE   Fn3  v064
 BYTE   N08  An3  v080
 BYTE   W18
//  #04 //056   ----------------------------------------
 BYTE   N24  Cn3  v064
 BYTE   N24  Fn3  v080
 BYTE   W24
 BYTE   N08  Cs3  v064
 BYTE   N08  Fs3  v080
 BYTE   W36
 BYTE   As2  v064
 BYTE   N08  Ds3  v080
 BYTE   W18
 BYTE   Gn2  v064
 BYTE   N08  Cn3  v080
 BYTE   W18
//  #04 //057   ----------------------------------------
 BYTE   N24  Cn3  v064
 BYTE   N24  Fn3  v080
 BYTE   N24  Fn4
 BYTE   W24
 BYTE   N08  Cs3  v064
 BYTE   N08  Fs3  v080
 BYTE   N08  Fs4
 BYTE   W36
 BYTE   Fn3  v064
 BYTE   N08  As3  v080
 BYTE   N08  As4
 BYTE   W18
 BYTE   Fn3  v064
 BYTE   N08  An3  v080
 BYTE   N08  An4
 BYTE   W18
//  #04 //058   ----------------------------------------
 BYTE   Cn3  v064
 BYTE   N08  Fn3  v080
 BYTE   N08  Fn4
 BYTE   W96
//  #04 //059   ----------------------------------------
 BYTE   GoTo
  POIN2 Label_01008476
//  #04 //060   ----------------------------------------
 BYTE   PAN   c_v+10
 BYTE   W96
 BYTE   FINE

//**************** Track 5 (Midi-Chn.4) ****************//

DraculaCastle_005:
//  #05 //000   ----------------------------------------
 BYTE   KEYSH   DraculaCastle_key+0
 BYTE   VOICE   19
 BYTE   VOL   19*DraculaCastle_mvl/mxv
 BYTE   PAN   c_v+36
 BYTE   W96
//  #05 //001   ----------------------------------------
 BYTE   W96
//  #05 //002   ----------------------------------------
 BYTE   W96
//  #05 //003   ----------------------------------------
 BYTE   W96
//  #05 //004   ----------------------------------------
 BYTE   W96
//  #05 //005   ----------------------------------------
 BYTE   W96
//  #05 //006   ----------------------------------------
 BYTE   W96
//  #05 //007   ----------------------------------------
 BYTE   W96
//  #05 //008   ----------------------------------------
 BYTE   W96
//  #05 //009   ----------------------------------------
 BYTE   W96
//  #05 //010   ----------------------------------------
 BYTE   W96
//  #05 //011   ----------------------------------------
 BYTE   W96
//  #05 //012   ----------------------------------------
Label_0100515C:
 BYTE   W96
//  #05 //013   ----------------------------------------
 BYTE   W96
//  #05 //014   ----------------------------------------
 BYTE   W96
//  #05 //015   ----------------------------------------
 BYTE   W96
//  #05 //016   ----------------------------------------
 BYTE   W96
//  #05 //017   ----------------------------------------
 BYTE   W96
//  #05 //018   ----------------------------------------
 BYTE   W96
//  #05 //019   ----------------------------------------
 BYTE   W96
//  #05 //020   ----------------------------------------
 BYTE   W96
//  #05 //021   ----------------------------------------
 BYTE   W96
//  #05 //022   ----------------------------------------
 BYTE   W96
//  #05 //023   ----------------------------------------
 BYTE   W96
//  #05 //024   ----------------------------------------
 BYTE   W96
//  #05 //025   ----------------------------------------
 BYTE   W96
//  #05 //026   ----------------------------------------
 BYTE   W96
//  #05 //027   ----------------------------------------
 BYTE   W96
//  #05 //028   ----------------------------------------
 BYTE   W96
//  #05 //029   ----------------------------------------
 BYTE   W96
//  #05 //030   ----------------------------------------
 BYTE   W96
//  #05 //031   ----------------------------------------
 BYTE   W96
//  #05 //032   ----------------------------------------
 BYTE   W96
//  #05 //033   ----------------------------------------
 BYTE   W96
//  #05 //034   ----------------------------------------
 BYTE   W96
//  #05 //035   ----------------------------------------
 BYTE   W96
//  #05 //036   ----------------------------------------
 BYTE   W96
//  #05 //037   ----------------------------------------
 BYTE   W96
//  #05 //038   ----------------------------------------
 BYTE   W96
//  #05 //039   ----------------------------------------
 BYTE   W96
//  #05 //040   ----------------------------------------
 BYTE   W96
//  #05 //041   ----------------------------------------
 BYTE   W96
//  #05 //042   ----------------------------------------
 BYTE   W96
//  #05 //043   ----------------------------------------
 BYTE   W96
//  #05 //044   ----------------------------------------
 BYTE   W96
//  #05 //045   ----------------------------------------
 BYTE   W96
//  #05 //046   ----------------------------------------
 BYTE   W96
//  #05 //047   ----------------------------------------
 BYTE   N96  As2  v080
 BYTE   N96  As3
 BYTE   W96
//  #05 //048   ----------------------------------------
 BYTE   Gs2
 BYTE   N96  Gs3
 BYTE   W96
//  #05 //049   ----------------------------------------
 BYTE   Fs2
 BYTE   N96  Fs3
 BYTE   W96
//  #05 //050   ----------------------------------------
Label_0100518D:
 BYTE   N48  Ds2  v080
 BYTE   N48  Ds3
 BYTE   W48
 BYTE   Fn2
 BYTE   N48  Fn3
 BYTE   W48
 BYTE   PEND 
//  #05 //051   ----------------------------------------
 BYTE   N96  As2
 BYTE   N96  As3
 BYTE   W96
//  #05 //052   ----------------------------------------
 BYTE   Gs2
 BYTE   N96  Gs3
 BYTE   W96
//  #05 //053   ----------------------------------------
 BYTE   Fs2
 BYTE   N96  Fs3
 BYTE   W96
//  #05 //054   ----------------------------------------
 BYTE   PATT
  POIN2 Label_0100518D
//  #05 //055   ----------------------------------------
 BYTE   TIE  Fn2  v080
 BYTE   TIE  Fn3
 BYTE   W96
//  #05 //056   ----------------------------------------
 BYTE   W96
//  #05 //057   ----------------------------------------
 BYTE   W96
//  #05 //058   ----------------------------------------
 BYTE   W12
 BYTE   EOT
 BYTE   Fn2  v065
 BYTE   W84
//  #05 //059   ----------------------------------------
 BYTE   GoTo
  POIN2 Label_0100515C
//  #05 //060   ----------------------------------------
 BYTE   W96
 BYTE   FINE

//**************** Track 6 (Midi-Chn.5) ****************//

DraculaCastle_006:
//  #06 //000   ----------------------------------------
 BYTE   KEYSH   DraculaCastle_key+0
 BYTE   VOICE   56
 BYTE   VOL   33*DraculaCastle_mvl/mxv
 BYTE   PAN   c_v-29
 BYTE   W96
//  #06 //001   ----------------------------------------
 BYTE   W96
//  #06 //002   ----------------------------------------
 BYTE   W96
//  #06 //003   ----------------------------------------
 BYTE   W96
//  #06 //004   ----------------------------------------
 BYTE   W96
//  #06 //005   ----------------------------------------
 BYTE   W96
//  #06 //006   ----------------------------------------
 BYTE   W96
//  #06 //007   ----------------------------------------
 BYTE   W96
//  #06 //008   ----------------------------------------
 BYTE   W96
//  #06 //009   ----------------------------------------
 BYTE   W96
//  #06 //010   ----------------------------------------
 BYTE   W96
//  #06 //011   ----------------------------------------
 BYTE   W96
//  #06 //012   ----------------------------------------
Label_01008734:
 BYTE   W96
//  #06 //013   ----------------------------------------
 BYTE   W96
//  #06 //014   ----------------------------------------
 BYTE   W96
//  #06 //015   ----------------------------------------
 BYTE   W96
//  #06 //016   ----------------------------------------
 BYTE   W96
//  #06 //017   ----------------------------------------
 BYTE   W96
//  #06 //018   ----------------------------------------
 BYTE   W96
//  #06 //019   ----------------------------------------
 BYTE   W96
//  #06 //020   ----------------------------------------
 BYTE   N96  As2  v052
 BYTE   N96  Ds3
 BYTE   W96
//  #06 //021   ----------------------------------------
 BYTE   N48  An2
 BYTE   N48  Cn3
 BYTE   W48
 BYTE   N96  As2
 BYTE   N96  Ds3
 BYTE   W48
//  #06 //022   ----------------------------------------
 BYTE   W48
 BYTE   Cn3
 BYTE   N96  Fn3
 BYTE   W48
//  #06 //023   ----------------------------------------
 BYTE   W48
 BYTE   Dn3
 BYTE   N96  Gn3
 BYTE   W48
//  #06 //024   ----------------------------------------
 BYTE   W48
 BYTE   N48  Dn3
 BYTE   N48  Fs3
 BYTE   W48
//  #06 //025   ----------------------------------------
 BYTE   Gn3
 BYTE   N48  As3
 BYTE   W48
 BYTE   N96  Dn3
 BYTE   N96  Gn3
 BYTE   W48
//  #06 //026   ----------------------------------------
 BYTE   W48
 BYTE   N48  An2
 BYTE   N48  En3
 BYTE   W48
//  #06 //027   ----------------------------------------
 BYTE   TIE  An2
 BYTE   TIE  Dn3
 BYTE   W96
//  #06 //028   ----------------------------------------
 BYTE   W84
 BYTE   EOT
 BYTE   An2  v062
 BYTE   W12
//  #06 //029   ----------------------------------------
 BYTE   PAN   c_v+40
 BYTE   W12
 BYTE   N06  An3  v080
 BYTE   W06
 BYTE   As3
 BYTE   W06
 BYTE   Cn4
 BYTE   W06
 BYTE   Gn3
 BYTE   W06
 BYTE   An3
 BYTE   W06
 BYTE   Cn4
 BYTE   W06
 BYTE   N48  Dn4
 BYTE   W48
//  #06 //030   ----------------------------------------
 BYTE   Fn4
 BYTE   W48
 BYTE   Cn4
 BYTE   W48
//  #06 //031   ----------------------------------------
 BYTE   Ds3
 BYTE   W48
 BYTE   Gn3
 BYTE   W48
//  #06 //032   ----------------------------------------
 BYTE   N24  An3
 BYTE   W24
 BYTE   Fs3
 BYTE   W24
 BYTE   Gn3
 BYTE   W24
 BYTE   An3
 BYTE   W24
//  #06 //033   ----------------------------------------
 BYTE   W12
 BYTE   N06
 BYTE   W06
 BYTE   As3
 BYTE   W06
 BYTE   Cn4
 BYTE   W06
 BYTE   Gn3
 BYTE   W06
 BYTE   An3
 BYTE   W06
 BYTE   Cn4
 BYTE   W06
 BYTE   N48  Dn4
 BYTE   W48
//  #06 //034   ----------------------------------------
 BYTE   Fn4
 BYTE   W48
 BYTE   An4
 BYTE   W48
//  #06 //035   ----------------------------------------
 BYTE   Gn4
 BYTE   W48
 BYTE   As4
 BYTE   W48
//  #06 //036   ----------------------------------------
 BYTE   N24  An4
 BYTE   W24
 BYTE   Fs4
 BYTE   W24
 BYTE   Gn4
 BYTE   W24
 BYTE   An4
 BYTE   W24
//  #06 //037   ----------------------------------------
 BYTE   N48  Gn3  v064
 BYTE   N48  As3
 BYTE   W48
 BYTE   An3
 BYTE   N48  Cn4
 BYTE   W48
//  #06 //038   ----------------------------------------
 BYTE   N96  As3
 BYTE   N96  Dn4
 BYTE   W96
//  #06 //039   ----------------------------------------
 BYTE   N48  Ds3
 BYTE   N48  Gn3
 BYTE   W48
 BYTE   An3
 BYTE   N48  Cn4
 BYTE   W48
//  #06 //040   ----------------------------------------
 BYTE   N96  Gn3
 BYTE   N96  As3
 BYTE   W96
//  #06 //041   ----------------------------------------
 BYTE   N48  Fs2
 BYTE   N48  As2
 BYTE   N48  Fs3
 BYTE   N48  As3
 BYTE   W48
 BYTE   Gs2
 BYTE   N48  Cn3
 BYTE   N48  Gs3
 BYTE   N48  Cn4
 BYTE   W48
//  #06 //042   ----------------------------------------
 BYTE   Fs2
 BYTE   N48  As2
 BYTE   N48  Fs3
 BYTE   N48  As3
 BYTE   W48
 BYTE   Fn2
 BYTE   N48  Cn3
 BYTE   N48  Fn3
 BYTE   N48  Cn4
 BYTE   W48
//  #06 //043   ----------------------------------------
 BYTE   N96  Cs2
 BYTE   N96  Fs2
 BYTE   N96  Cs3
 BYTE   N96  Fs3
 BYTE   W96
//  #06 //044   ----------------------------------------
 BYTE   Ds2
 BYTE   N96  Gs2
 BYTE   N96  Ds3
 BYTE   N96  Gs3
 BYTE   W96
//  #06 //045   ----------------------------------------
 BYTE   TIE  Fn2
 BYTE   TIE  As2
 BYTE   TIE  Fn3
 BYTE   TIE  As3
 BYTE   W96
//  #06 //046   ----------------------------------------
 BYTE   W96
//  #06 //047   ----------------------------------------
 BYTE   EOT
 BYTE   Fn2  v058
 BYTE   Fn3  v070
 BYTE   W96
//  #06 //048   ----------------------------------------
 BYTE   W96
//  #06 //049   ----------------------------------------
 BYTE   W96
//  #06 //050   ----------------------------------------
 BYTE   W96
//  #06 //051   ----------------------------------------
 BYTE   W96
//  #06 //052   ----------------------------------------
 BYTE   W96
//  #06 //053   ----------------------------------------
 BYTE   W96
//  #06 //054   ----------------------------------------
 BYTE   W96
//  #06 //055   ----------------------------------------
 BYTE   W96
//  #06 //056   ----------------------------------------
 BYTE   W96
//  #06 //057   ----------------------------------------
 BYTE   W96
//  #06 //058   ----------------------------------------
 BYTE   W96
//  #06 //059   ----------------------------------------
 BYTE   GoTo
  POIN2 Label_01008734
//  #06 //060   ----------------------------------------
 BYTE   W96
 BYTE   FINE

//**************** Track 7 (Midi-Chn.6) ****************//

DraculaCastle_007:
//  #07 //000   ----------------------------------------
 BYTE   KEYSH   DraculaCastle_key+0
 BYTE   VOICE   13
 BYTE   VOL   34*DraculaCastle_mvl/mxv
 BYTE   PAN   c_v-24
 BYTE   N12  Bn4  v064
 BYTE   W12
 BYTE   Bn5
 BYTE   W12
 BYTE   Bn4
 BYTE   W12
 BYTE   Bn5
 BYTE   W12
 BYTE   Bn4
 BYTE   W12
 BYTE   Bn5
 BYTE   W12
 BYTE   Bn4
 BYTE   W12
 BYTE   Bn5
 BYTE   W12
//  #07 //001   ----------------------------------------
Label_01008186:
 BYTE   N12  Bn4  v064
 BYTE   W12
 BYTE   Bn5
 BYTE   W12
 BYTE   Bn4
 BYTE   W12
 BYTE   Bn5
 BYTE   W12
 BYTE   Bn4
 BYTE   W12
 BYTE   Bn5
 BYTE   W12
 BYTE   Bn4
 BYTE   W12
 BYTE   Bn5
 BYTE   W12
 BYTE   PEND 
//  #07 //002   ----------------------------------------
Label_01008199:
 BYTE   N12  Gn4  v064
 BYTE   W12
 BYTE   Gn5
 BYTE   W12
 BYTE   Gn4
 BYTE   W12
 BYTE   Gn5
 BYTE   W12
 BYTE   Gn4
 BYTE   W12
 BYTE   Gn5
 BYTE   W12
 BYTE   Gn4
 BYTE   W12
 BYTE   Gn5
 BYTE   W12
 BYTE   PEND 
//  #07 //003   ----------------------------------------
 BYTE   PATT
  POIN2 Label_01008199
//  #07 //004   ----------------------------------------
 BYTE   PATT
  POIN2 Label_01008186
//  #07 //005   ----------------------------------------
 BYTE   N12  Bn4  v064
 BYTE   W12
 BYTE   Bn5
 BYTE   W12
 BYTE   Bn4
 BYTE   W12
 BYTE   Bn5
 BYTE   W12
 BYTE   Bn4
 BYTE   W12
 BYTE   Bn5
 BYTE   W12
 BYTE   Cs5
 BYTE   W12
 BYTE   Cs6
 BYTE   W12
//  #07 //006   ----------------------------------------
 BYTE   Dn5
 BYTE   W12
 BYTE   Dn6
 BYTE   W12
 BYTE   Dn5
 BYTE   W12
 BYTE   Dn6
 BYTE   W12
 BYTE   Cn5
 BYTE   W12
 BYTE   Cn6
 BYTE   W12
 BYTE   Dn5
 BYTE   W12
 BYTE   Dn6
 BYTE   W12
//  #07 //007   ----------------------------------------
 BYTE   Fn5
 BYTE   W12
 BYTE   Fn6
 BYTE   W12
 BYTE   Fn5
 BYTE   W12
 BYTE   Fn6
 BYTE   W12
 BYTE   Ds5
 BYTE   W12
 BYTE   Ds6
 BYTE   W12
 BYTE   Ds5
 BYTE   W12
 BYTE   Ds6
 BYTE   W12
//  #07 //008   ----------------------------------------
Label_010081E8:
 BYTE   N12  Dn5  v064
 BYTE   W12
 BYTE   Dn6
 BYTE   W12
 BYTE   Dn5
 BYTE   W12
 BYTE   Dn6
 BYTE   W12
 BYTE   Dn5
 BYTE   W12
 BYTE   Dn6
 BYTE   W12
 BYTE   Dn5
 BYTE   W12
 BYTE   Dn6
 BYTE   W12
 BYTE   PEND 
//  #07 //009   ----------------------------------------
 BYTE   PATT
  POIN2 Label_010081E8
//  #07 //010   ----------------------------------------
 BYTE   N12  Dn5  v076
 BYTE   W12
 BYTE   Dn6
 BYTE   W12
 BYTE   Dn5
 BYTE   W12
 BYTE   Dn6
 BYTE   W12
 BYTE   Dn5
 BYTE   W12
 BYTE   Dn6
 BYTE   W12
 BYTE   Dn5
 BYTE   W12
 BYTE   Dn6
 BYTE   W12
//  #07 //011   ----------------------------------------
 BYTE   Dn5  v068
 BYTE   W12
 BYTE   Dn6
 BYTE   W12
 BYTE   Dn5
 BYTE   W12
 BYTE   Dn6
 BYTE   W12
 BYTE   Dn5  v064
 BYTE   W12
 BYTE   Dn6
 BYTE   W12
 BYTE   Dn5  v052
 BYTE   W12
 BYTE   Dn6
 BYTE   W12
//  #07 //012   ----------------------------------------
Label_01008225:
 BYTE   W96
//  #07 //013   ----------------------------------------
 BYTE   W96
//  #07 //014   ----------------------------------------
 BYTE   W96
//  #07 //015   ----------------------------------------
 BYTE   W96
//  #07 //016   ----------------------------------------
 BYTE   W96
//  #07 //017   ----------------------------------------
 BYTE   W96
//  #07 //018   ----------------------------------------
 BYTE   W96
//  #07 //019   ----------------------------------------
 BYTE   W96
//  #07 //020   ----------------------------------------
 BYTE   W96
//  #07 //021   ----------------------------------------
 BYTE   W96
//  #07 //022   ----------------------------------------
 BYTE   W96
//  #07 //023   ----------------------------------------
 BYTE   W96
//  #07 //024   ----------------------------------------
 BYTE   W96
//  #07 //025   ----------------------------------------
 BYTE   W96
//  #07 //026   ----------------------------------------
 BYTE   W96
//  #07 //027   ----------------------------------------
 BYTE   W96
//  #07 //028   ----------------------------------------
 BYTE   W96
//  #07 //029   ----------------------------------------
 BYTE   W96
//  #07 //030   ----------------------------------------
 BYTE   W96
//  #07 //031   ----------------------------------------
 BYTE   W96
//  #07 //032   ----------------------------------------
 BYTE   W96
//  #07 //033   ----------------------------------------
 BYTE   W96
//  #07 //034   ----------------------------------------
 BYTE   W96
//  #07 //035   ----------------------------------------
 BYTE   W96
//  #07 //036   ----------------------------------------
 BYTE   W96
//  #07 //037   ----------------------------------------
 BYTE   W96
//  #07 //038   ----------------------------------------
 BYTE   W96
//  #07 //039   ----------------------------------------
 BYTE   W96
//  #07 //040   ----------------------------------------
 BYTE   W96
//  #07 //041   ----------------------------------------
 BYTE   W96
//  #07 //042   ----------------------------------------
 BYTE   W96
//  #07 //043   ----------------------------------------
 BYTE   W96
//  #07 //044   ----------------------------------------
 BYTE   W96
//  #07 //045   ----------------------------------------
 BYTE   W96
//  #07 //046   ----------------------------------------
 BYTE   W96
//  #07 //047   ----------------------------------------
Label_01008248:
 BYTE   N12  As4  v064
 BYTE   W12
 BYTE   Ds5
 BYTE   W12
 BYTE   Fn5
 BYTE   W12
 BYTE   As4
 BYTE   W12
 BYTE   N12
 BYTE   W12
 BYTE   N06  Ds5
 BYTE   W06
 BYTE   N12  Fn5
 BYTE   W12
 BYTE   N06  As4
 BYTE   W06
 BYTE   N12  Fn5
 BYTE   W12
 BYTE   PEND 
//  #07 //048   ----------------------------------------
Label_01008261:
 BYTE   N12  As4  v064
 BYTE   W12
 BYTE   Ds5
 BYTE   W12
 BYTE   Fn5
 BYTE   W12
 BYTE   As4
 BYTE   W12
 BYTE   As5
 BYTE   W12
 BYTE   N06  As4
 BYTE   W06
 BYTE   N12  Gs5
 BYTE   W12
 BYTE   N06  As4
 BYTE   W06
 BYTE   N12  As5
 BYTE   W12
 BYTE   PEND 
//  #07 //049   ----------------------------------------
 BYTE   PATT
  POIN2 Label_01008248
//  #07 //050   ----------------------------------------
Label_0100827F:
 BYTE   N12  As4  v064
 BYTE   W12
 BYTE   Ds5
 BYTE   W12
 BYTE   Fn5
 BYTE   W12
 BYTE   As4
 BYTE   W12
 BYTE   As5
 BYTE   W12
 BYTE   N06  As4
 BYTE   W06
 BYTE   N12  An5
 BYTE   W12
 BYTE   N06  As4
 BYTE   W06
 BYTE   N12  Fs5
 BYTE   W12
 BYTE   PEND 
//  #07 //051   ----------------------------------------
 BYTE   PATT
  POIN2 Label_01008248
//  #07 //052   ----------------------------------------
 BYTE   PATT
  POIN2 Label_01008261
//  #07 //053   ----------------------------------------
 BYTE   PATT
  POIN2 Label_01008248
//  #07 //054   ----------------------------------------
 BYTE   PATT
  POIN2 Label_0100827F
//  #07 //055   ----------------------------------------
 BYTE   W96
//  #07 //056   ----------------------------------------
 BYTE   W96
//  #07 //057   ----------------------------------------
 BYTE   W96
//  #07 //058   ----------------------------------------
 BYTE   W96
//  #07 //059   ----------------------------------------
 BYTE   GoTo
  POIN2 Label_01008225
//  #07 //060   ----------------------------------------
 BYTE   W96
 BYTE   FINE

//**************** Track 8 (Midi-Chn.7) ****************//

DraculaCastle_008:
//  #08 //000   ----------------------------------------
 BYTE   KEYSH   DraculaCastle_key+0
 BYTE   VOICE   30
 BYTE   VOL   30*DraculaCastle_mvl/mxv
 BYTE   PAN   c_v-29
 BYTE   W96
//  #08 //001   ----------------------------------------
 BYTE   W96
//  #08 //002   ----------------------------------------
 BYTE   W96
//  #08 //003   ----------------------------------------
 BYTE   W48
 BYTE   N48  An1  v112
 BYTE   W48
//  #08 //004   ----------------------------------------
 BYTE   TIE  Bn1
 BYTE   W96
//  #08 //005   ----------------------------------------
 BYTE   W84
 BYTE   EOT
 BYTE   N06
 BYTE   W06
 BYTE   N06
 BYTE   W06
//  #08 //006   ----------------------------------------
 BYTE   TIE  Cn2
 BYTE   W96
//  #08 //007   ----------------------------------------
 BYTE   W96
//  #08 //008   ----------------------------------------
 BYTE   EOT
 BYTE   W60
 BYTE   N36  Dn2  v092
 BYTE   W36
//  #08 //009   ----------------------------------------
 BYTE   TIE
 BYTE   W96
//  #08 //010   ----------------------------------------
 BYTE   W96
//  #08 //011   ----------------------------------------
 BYTE   W48
 BYTE   EOT
 BYTE   W48
//  #08 //012   ----------------------------------------
Label_01008911:
 BYTE   N10  Gn1  v100
 BYTE   W24
 BYTE   N24
 BYTE   W24
 BYTE   N01
 BYTE   W12
 BYTE   N24
 BYTE   W24
 BYTE   N10
 BYTE   W12
 BYTE   PEND 
//  #08 //013   ----------------------------------------
 BYTE   PATT
  POIN2 Label_01008911
//  #08 //014   ----------------------------------------
Label_01008923:
 BYTE   N10  Ds1  v100
 BYTE   W24
 BYTE   N10
 BYTE   W24
 BYTE   Fn1
 BYTE   W24
 BYTE   N10
 BYTE   W24
 BYTE   PEND 
//  #08 //015   ----------------------------------------
 BYTE   PATT
  POIN2 Label_01008911
//  #08 //016   ----------------------------------------
 BYTE   PATT
  POIN2 Label_01008911
//  #08 //017   ----------------------------------------
 BYTE   PATT
  POIN2 Label_01008911
//  #08 //018   ----------------------------------------
 BYTE   PATT
  POIN2 Label_01008923
//  #08 //019   ----------------------------------------
 BYTE   PATT
  POIN2 Label_01008911
//  #08 //020   ----------------------------------------
 BYTE   W96
//  #08 //021   ----------------------------------------
 BYTE   W96
//  #08 //022   ----------------------------------------
 BYTE   W96
//  #08 //023   ----------------------------------------
 BYTE   W96
//  #08 //024   ----------------------------------------
 BYTE   W96
//  #08 //025   ----------------------------------------
 BYTE   W96
//  #08 //026   ----------------------------------------
 BYTE   W96
//  #08 //027   ----------------------------------------
 BYTE   W96
//  #08 //028   ----------------------------------------
 BYTE   W96
//  #08 //029   ----------------------------------------
 BYTE   W96
//  #08 //030   ----------------------------------------
 BYTE   W96
//  #08 //031   ----------------------------------------
 BYTE   W96
//  #08 //032   ----------------------------------------
 BYTE   W96
//  #08 //033   ----------------------------------------
 BYTE   W96
//  #08 //034   ----------------------------------------
 BYTE   W96
//  #08 //035   ----------------------------------------
 BYTE   W96
//  #08 //036   ----------------------------------------
 BYTE   W92
 BYTE   W02
 BYTE   VOICE   29
 BYTE   W02
//  #08 //037   ----------------------------------------
Label_0100895C:
 BYTE   N12  Ds2  v092
 BYTE   W12
 BYTE   N12
 BYTE   W12
 BYTE   N12
 BYTE   W12
 BYTE   N12
 BYTE   W12
 BYTE   Fn2
 BYTE   W12
 BYTE   N12
 BYTE   W12
 BYTE   N12
 BYTE   W12
 BYTE   N12
 BYTE   W12
 BYTE   PEND 
//  #08 //038   ----------------------------------------
Label_0100896F:
 BYTE   N12  Gn2  v092
 BYTE   W12
 BYTE   N12
 BYTE   W12
 BYTE   N12
 BYTE   W12
 BYTE   N12
 BYTE   W12
 BYTE   N12
 BYTE   W12
 BYTE   N12
 BYTE   W12
 BYTE   N12
 BYTE   W12
 BYTE   N12
 BYTE   W12
 BYTE   PEND 
//  #08 //039   ----------------------------------------
 BYTE   Cn2
 BYTE   W12
 BYTE   N12
 BYTE   W12
 BYTE   N12
 BYTE   W12
 BYTE   N12
 BYTE   W12
 BYTE   Dn2
 BYTE   W12
 BYTE   N12
 BYTE   W12
 BYTE   N12
 BYTE   W12
 BYTE   N12
 BYTE   W12
//  #08 //040   ----------------------------------------
 BYTE   PATT
  POIN2 Label_0100896F
//  #08 //041   ----------------------------------------
 BYTE   N12  Fs2  v092
 BYTE   W12
 BYTE   N12
 BYTE   W12
 BYTE   N12
 BYTE   W12
 BYTE   N12
 BYTE   W12
 BYTE   Gs2
 BYTE   W12
 BYTE   N12
 BYTE   W12
 BYTE   N12
 BYTE   W12
 BYTE   N12
 BYTE   W12
//  #08 //042   ----------------------------------------
 BYTE   PATT
  POIN2 Label_0100895C
//  #08 //043   ----------------------------------------
 BYTE   N12  Fs2  v092
 BYTE   W12
 BYTE   N12
 BYTE   W12
 BYTE   N12
 BYTE   W12
 BYTE   N12
 BYTE   W12
 BYTE   N12
 BYTE   W12
 BYTE   N12
 BYTE   W12
 BYTE   N12
 BYTE   W12
 BYTE   N12
 BYTE   W12
//  #08 //044   ----------------------------------------
 BYTE   Gs2
 BYTE   W12
 BYTE   N12
 BYTE   W12
 BYTE   N12
 BYTE   W12
 BYTE   N12
 BYTE   W12
 BYTE   N12
 BYTE   W12
 BYTE   N12
 BYTE   W12
 BYTE   N12
 BYTE   W12
 BYTE   N12
 BYTE   W12
//  #08 //045   ----------------------------------------
 BYTE   W96
//  #08 //046   ----------------------------------------
 BYTE   W96
//  #08 //047   ----------------------------------------
 BYTE   W96
//  #08 //048   ----------------------------------------
 BYTE   W96
//  #08 //049   ----------------------------------------
 BYTE   W96
//  #08 //050   ----------------------------------------
 BYTE   W96
//  #08 //051   ----------------------------------------
 BYTE   W12
 BYTE   VOICE   30
 BYTE   W12
 BYTE   N72  As1  v120
 BYTE   W72
//  #08 //052   ----------------------------------------
 BYTE   N24  Gs1
 BYTE   W24
 BYTE   N12
 BYTE   W72
//  #08 //053   ----------------------------------------
 BYTE   W24
 BYTE   N72  Fs1
 BYTE   W72
//  #08 //054   ----------------------------------------
 BYTE   N48  Ds1
 BYTE   W48
 BYTE   Fn1
 BYTE   W44
 BYTE   W03
 BYTE   VOICE   29
 BYTE   W01
//  #08 //055   ----------------------------------------
 BYTE   N06  Fn1  v072
 BYTE   W06
 BYTE   N08
 BYTE   W18
 BYTE   N06
 BYTE   W06
 BYTE   N08
 BYTE   W30
 BYTE   As1
 BYTE   W18
 BYTE   An1
 BYTE   W18
//  #08 //056   ----------------------------------------
 BYTE   N06  Fn1
 BYTE   W06
 BYTE   N08
 BYTE   W18
 BYTE   N06
 BYTE   W06
 BYTE   N08
 BYTE   W30
 BYTE   N10  Ds1
 BYTE   W05
 BYTE   BEND   c_v-3
 BYTE   W01
 BYTE   BEND   c_v-9
 BYTE   W01
 BYTE   BEND   c_v-14
 BYTE   W01
 BYTE   BEND   c_v-19
 BYTE   W01
 BYTE   BEND   c_v-21
 BYTE   W01
 BYTE   BEND   c_v-27
 BYTE   W01
 BYTE   BEND   c_v-31
 BYTE   W01
 BYTE   BEND   c_v-38
 BYTE   W04
 BYTE   BEND   c_v+0
 BYTE   W02
 BYTE   N12  Gn1
 BYTE   W03
 BYTE   BEND   c_v-3
 BYTE   W01
 BYTE   BEND   c_v-4
 BYTE   W01
 BYTE   BEND   c_v-9
 BYTE   W01
 BYTE   BEND   c_v-15
 BYTE   W01
 BYTE   BEND   c_v-20
 BYTE   W01
 BYTE   BEND   c_v-26
 BYTE   W01
 BYTE   BEND   c_v-31
 BYTE   W01
 BYTE   BEND   c_v-52
 BYTE   W01
 BYTE   BEND   c_v-57
 BYTE   W07
//  #08 //057   ----------------------------------------
 BYTE   N06  Fn1
 BYTE   W06
 BYTE   N06
 BYTE   W06
 BYTE   N06
 BYTE   W06
 BYTE   N06
 BYTE   W06
 BYTE   N06
 BYTE   W06
 BYTE   N06
 BYTE   W06
 BYTE   N06
 BYTE   W06
 BYTE   N06
 BYTE   W06
 BYTE   N10
 BYTE   W12
 BYTE   N08
 BYTE   W05
 BYTE   BEND   c_v-3
 BYTE   W01
 BYTE   BEND   c_v-9
 BYTE   W01
 BYTE   BEND   c_v-14
 BYTE   W01
 BYTE   BEND   c_v-19
 BYTE   W01
 BYTE   BEND   c_v-21
 BYTE   W01
 BYTE   BEND   c_v-27
 BYTE   W01
 BYTE   BEND   c_v-31
 BYTE   W01
 BYTE   BEND   c_v-38
 BYTE   W04
 BYTE   BEND   c_v+0
 BYTE   W02
 BYTE   N08
 BYTE   W03
 BYTE   BEND   c_v-3
 BYTE   W01
 BYTE   BEND   c_v-4
 BYTE   W01
 BYTE   BEND   c_v-9
 BYTE   W01
 BYTE   BEND   c_v-15
 BYTE   W01
 BYTE   BEND   c_v-20
 BYTE   W01
 BYTE   BEND   c_v-26
 BYTE   W01
 BYTE   BEND   c_v-31
 BYTE   W01
 BYTE   BEND   c_v-52
 BYTE   W01
 BYTE   BEND   c_v-57
 BYTE   W05
 BYTE   VOICE   30
 BYTE   W02
//  #08 //058   ----------------------------------------
 BYTE   BEND   c_v+0
 BYTE   N06  Fn1  v120
 BYTE   W06
 BYTE   N01  En1
 BYTE   W01
 BYTE   Ds1
 BYTE   W02
 BYTE   Dn1
 BYTE   W01
 BYTE   Cs1
 BYTE   W02
 BYTE   Cn1
 BYTE   W01
 BYTE   Bn0
 BYTE   W02
 BYTE   As0
 BYTE   W01
 BYTE   An0
 BYTE   W80
//  #08 //059   ----------------------------------------
 BYTE   GoTo
  POIN2 Label_01008911
//  #08 //060   ----------------------------------------
 BYTE   N10  Gn1  v100
 BYTE   W24
 BYTE   N24
 BYTE   W24
 BYTE   N01
 BYTE   W12
 BYTE   N24
 BYTE   W24
 BYTE   N10
 BYTE   W10
 BYTE   BEND   c_v+0
 BYTE   W02
 BYTE   FINE

//**************** Track 9 (Midi-Chn.8) ****************//

DraculaCastle_009:
//  #09 //000   ----------------------------------------
 BYTE   KEYSH   DraculaCastle_key+0
 BYTE   VOICE   95
 BYTE   VOL   25*DraculaCastle_mvl/mxv
 BYTE   PAN   c_v-1
 BYTE   TIE  Bn0  v127
 BYTE   TIE  Bn1
 BYTE   W02
 BYTE   PAN   c_v-5
 BYTE   W04
 BYTE   PAN   c_v-9
 BYTE   W06
 BYTE   PAN   c_v-13
 BYTE   W03
 BYTE   PAN   c_v-17
 BYTE   W05
 BYTE   PAN   c_v-21
 BYTE   W03
 BYTE   PAN   c_v-25
 BYTE   W03
 BYTE   PAN   c_v-29
 BYTE   W04
 BYTE   PAN   c_v-33
 BYTE   W04
 BYTE   PAN   c_v-37
 BYTE   W04
 BYTE   PAN   c_v-41
 BYTE   W03
 BYTE   PAN   c_v-45
 BYTE   W02
 BYTE   PAN   c_v-49
 BYTE   W03
 BYTE   PAN   c_v-53
 BYTE   W06
 BYTE   PAN   c_v-56
 BYTE   W36
 BYTE   W02
 BYTE   PAN   c_v-52
 BYTE   W06
//  #09 //001   ----------------------------------------
Label_01008ACE:
 BYTE   PAN   c_v-48
 BYTE   W04
 BYTE   PAN   c_v-44
 BYTE   W02
 BYTE   PAN   c_v-40
 BYTE   W04
 BYTE   PAN   c_v-36
 BYTE   W03
 BYTE   PAN   c_v-32
 BYTE   W04
 BYTE   PAN   c_v-28
 BYTE   W03
 BYTE   PAN   c_v-24
 BYTE   W03
 BYTE   PAN   c_v-20
 BYTE   W03
 BYTE   PAN   c_v-15
 BYTE   W04
 BYTE   PAN   c_v-11
 BYTE   W02
 BYTE   PAN   c_v-7
 BYTE   W02
 BYTE   PAN   c_v-3
 BYTE   W02
 BYTE   PAN   c_v+1
 BYTE   W01
 BYTE   PAN   c_v+5
 BYTE   W03
 BYTE   PAN   c_v+9
 BYTE   W02
 BYTE   PAN   c_v+13
 BYTE   W02
 BYTE   PAN   c_v+17
 BYTE   W03
 BYTE   PAN   c_v+21
 BYTE   W04
 BYTE   PAN   c_v+25
 BYTE   W05
 BYTE   PAN   c_v+29
 BYTE   W04
 BYTE   PAN   c_v+31
 BYTE   W18
 BYTE   PAN   c_v+27
 BYTE   W03
 BYTE   PAN   c_v+23
 BYTE   W03
 BYTE   PAN   c_v+19
 BYTE   W01
 BYTE   PAN   c_v+15
 BYTE   W03
 BYTE   PAN   c_v+11
 BYTE   W02
 BYTE   PAN   c_v+7
 BYTE   W01
 BYTE   PAN   c_v+3
 BYTE   W03
 BYTE   PAN   c_v+0
 BYTE   W02
 BYTE   PEND 
//  #09 //002   ----------------------------------------
 BYTE   EOT
 BYTE   Bn0  v047
 BYTE   PAN   c_v-1
 BYTE   TIE  Gn0  v127
 BYTE   TIE  Gn1
 BYTE   W02
 BYTE   PAN   c_v-5
 BYTE   W04
 BYTE   PAN   c_v-9
 BYTE   W06
 BYTE   PAN   c_v-13
 BYTE   W03
 BYTE   PAN   c_v-17
 BYTE   W05
 BYTE   PAN   c_v-21
 BYTE   W03
 BYTE   PAN   c_v-25
 BYTE   W03
 BYTE   PAN   c_v-29
 BYTE   W04
 BYTE   PAN   c_v-33
 BYTE   W04
 BYTE   PAN   c_v-37
 BYTE   W04
 BYTE   PAN   c_v-41
 BYTE   W03
 BYTE   PAN   c_v-45
 BYTE   W02
 BYTE   PAN   c_v-49
 BYTE   W03
 BYTE   PAN   c_v-53
 BYTE   W06
 BYTE   PAN   c_v-56
 BYTE   W36
 BYTE   W02
 BYTE   PAN   c_v-52
 BYTE   W06
//  #09 //003   ----------------------------------------
 BYTE   PATT
  POIN2 Label_01008ACE
//  #09 //004   ----------------------------------------
 BYTE   EOT
 BYTE   Gn0  v043
 BYTE   PAN   c_v-1
 BYTE   TIE  Bn0  v127
 BYTE   TIE  Bn1
 BYTE   W02
 BYTE   PAN   c_v-5
 BYTE   W04
 BYTE   PAN   c_v-9
 BYTE   W06
 BYTE   PAN   c_v-13
 BYTE   W03
 BYTE   PAN   c_v-17
 BYTE   W05
 BYTE   PAN   c_v-21
 BYTE   W03
 BYTE   PAN   c_v-25
 BYTE   W03
 BYTE   PAN   c_v-29
 BYTE   W04
 BYTE   PAN   c_v-33
 BYTE   W04
 BYTE   PAN   c_v-37
 BYTE   W04
 BYTE   PAN   c_v-41
 BYTE   W03
 BYTE   PAN   c_v-45
 BYTE   W02
 BYTE   PAN   c_v-49
 BYTE   W03
 BYTE   PAN   c_v-53
 BYTE   W06
 BYTE   PAN   c_v-56
 BYTE   W36
 BYTE   W02
 BYTE   PAN   c_v-52
 BYTE   W06
//  #09 //005   ----------------------------------------
 BYTE   PATT
  POIN2 Label_01008ACE
//  #09 //006   ----------------------------------------
 BYTE   EOT
 BYTE   Bn0  v047
 BYTE   PAN   c_v-1
 BYTE   TIE  Cn1  v127
 BYTE   TIE  Cn2
 BYTE   W02
 BYTE   PAN   c_v-5
 BYTE   W04
 BYTE   PAN   c_v-9
 BYTE   W06
 BYTE   PAN   c_v-13
 BYTE   W03
 BYTE   PAN   c_v-17
 BYTE   W05
 BYTE   PAN   c_v-21
 BYTE   W03
 BYTE   PAN   c_v-25
 BYTE   W03
 BYTE   PAN   c_v-29
 BYTE   W04
 BYTE   PAN   c_v-33
 BYTE   W04
 BYTE   PAN   c_v-37
 BYTE   W04
 BYTE   PAN   c_v-41
 BYTE   W03
 BYTE   PAN   c_v-45
 BYTE   W02
 BYTE   PAN   c_v-49
 BYTE   W03
 BYTE   PAN   c_v-53
 BYTE   W06
 BYTE   PAN   c_v-56
 BYTE   W36
 BYTE   W02
 BYTE   PAN   c_v-52
 BYTE   W06
//  #09 //007   ----------------------------------------
 BYTE   PATT
  POIN2 Label_01008ACE
//  #09 //008   ----------------------------------------
 BYTE   EOT
 BYTE   Cn1  v048
 BYTE   W96
//  #09 //009   ----------------------------------------
 BYTE   W96
//  #09 //010   ----------------------------------------
 BYTE   W96
//  #09 //011   ----------------------------------------
 BYTE   W90
 BYTE   VOL   21*DraculaCastle_mvl/mxv
 BYTE   W04
 BYTE   VOICE   62
 BYTE   W02
//  #09 //012   ----------------------------------------
Label_01008BA7:
 BYTE   PAN   c_v-1
 BYTE   W18
 BYTE   N36  Gn3  v072
 BYTE   W36
 BYTE   N06  An3  v092
 BYTE   W06
 BYTE   As3  v080
 BYTE   W06
 BYTE   N48  Fs3
 BYTE   W30
//  #09 //013   ----------------------------------------
Label_01008BB8:
 BYTE   W18
 BYTE   N36  Gn3  v072
 BYTE   W36
 BYTE   N06  An3  v092
 BYTE   W06
 BYTE   As3  v080
 BYTE   W06
 BYTE   N16  Cn4
 BYTE   W16
 BYTE   As3  v072
 BYTE   W14
 BYTE   PEND 
//  #09 //014   ----------------------------------------
Label_01008BCB:
 BYTE   W02
 BYTE   N16  An3  v072
 BYTE   W16
 BYTE   Gn3
 BYTE   W16
 BYTE   Fn3  v064
 BYTE   W16
 BYTE   Ds3  v076
 BYTE   W16
 BYTE   An3
 BYTE   W16
 BYTE   Gn3
 BYTE   W14
 BYTE   PEND 
//  #09 //015   ----------------------------------------
 BYTE   W02
 BYTE   Fn3
 BYTE   W16
 BYTE   N84  Gn3  v088
 BYTE   W02
 BYTE   W04
 BYTE   W04
 BYTE   W06
 BYTE   W04
 BYTE   W56
 BYTE   W02
//  #09 //016   ----------------------------------------
 BYTE   W01
 BYTE   W02
 BYTE   W03
 BYTE   W02
 BYTE   W02
 BYTE   W02
 BYTE   W04
 BYTE   W02
 BYTE   N36  Gn3  v072
 BYTE   W36
 BYTE   N06  An3  v092
 BYTE   W06
 BYTE   As3  v080
 BYTE   W06
 BYTE   N48  Fs3
 BYTE   W30
//  #09 //017   ----------------------------------------
 BYTE   PATT
  POIN2 Label_01008BB8
//  #09 //018   ----------------------------------------
 BYTE   PATT
  POIN2 Label_01008BCB
//  #09 //019   ----------------------------------------
 BYTE   W02
 BYTE   N16  Fn3  v076
 BYTE   W16
 BYTE   N90  Gn3  v088
 BYTE   W02
 BYTE   W04
 BYTE   W04
 BYTE   W06
 BYTE   W04
 BYTE   W56
 BYTE   W02
//  #09 //020   ----------------------------------------
 BYTE   W01
 BYTE   W02
 BYTE   W03
 BYTE   W02
 BYTE   W02
 BYTE   W02
 BYTE   W04
 BYTE   W02
 BYTE   N36  Gn3  v080
 BYTE   W36
 BYTE   N06  An3  v092
 BYTE   W06
 BYTE   As3  v080
 BYTE   W06
 BYTE   N16  Gn3  v076
 BYTE   W16
 BYTE   Fn3  v064
 BYTE   W14
//  #09 //021   ----------------------------------------
 BYTE   W02
 BYTE   Ds3
 BYTE   W16
 BYTE   N36  Fn3  v072
 BYTE   W36
 BYTE   N06  Gn3  v092
 BYTE   W06
 BYTE   An3  v080
 BYTE   W06
 BYTE   N24  As3
 BYTE   W24
 BYTE   Gs3
 BYTE   W06
//  #09 //022   ----------------------------------------
 BYTE   W18
 BYTE   N16  Gn3  v076
 BYTE   W16
 BYTE   Fn3  v064
 BYTE   W16
 BYTE   Ds3
 BYTE   W16
 BYTE   An3  v076
 BYTE   W16
 BYTE   Gn3  v064
 BYTE   W14
//  #09 //023   ----------------------------------------
 BYTE   W02
 BYTE   Fn3
 BYTE   W16
 BYTE   N90  Dn3  v088
 BYTE   W02
 BYTE   W04
 BYTE   W04
 BYTE   W06
 BYTE   W04
 BYTE   W56
 BYTE   W02
//  #09 //024   ----------------------------------------
 BYTE   W01
 BYTE   W02
 BYTE   W03
 BYTE   W02
 BYTE   W02
 BYTE   W02
 BYTE   W04
 BYTE   W02
 BYTE   N16  Ds3  v060
 BYTE   W16
 BYTE   Fn3  v064
 BYTE   W16
 BYTE   Gn3
 BYTE   W16
 BYTE   Fs3  v068
 BYTE   W16
 BYTE   Gn3  v072
 BYTE   W14
//  #09 //025   ----------------------------------------
 BYTE   W02
 BYTE   An3
 BYTE   W16
 BYTE   As3
 BYTE   W16
 BYTE   An3
 BYTE   W16
 BYTE   N64  Gn3  v076
 BYTE   W44
 BYTE   W02
//  #09 //026   ----------------------------------------
 BYTE   W18
 BYTE   N16  Gn3  v068
 BYTE   W16
 BYTE   An3  v072
 BYTE   W16
 BYTE   As3
 BYTE   W16
 BYTE   An3
 BYTE   W16
 BYTE   En3
 BYTE   W14
//  #09 //027   ----------------------------------------
 BYTE   W02
 BYTE   An3
 BYTE   W16
 BYTE   N84  Gn3  v080
 BYTE   W78
//  #09 //028   ----------------------------------------
 BYTE   W06
 BYTE   N06  Fs3
 BYTE   W06
 BYTE   En3
 BYTE   W06
 BYTE   N96  Fs3
 BYTE   W78
//  #09 //029   ----------------------------------------
Label_01008CA4:
 BYTE   W18
 BYTE   N32  Dn4  v080
 BYTE   W20
 BYTE   W02
 BYTE   W02
 BYTE   W02
 BYTE   W02
 BYTE   W02
 BYTE   W05
 BYTE   W01
 BYTE   N06  As3  v072
 BYTE   W06
 BYTE   Cn4
 BYTE   W06
 BYTE   N16  Dn4  v080
 BYTE   W16
 BYTE   Cn4  v072
 BYTE   W14
 BYTE   PEND 
//  #09 //030   ----------------------------------------
Label_01008CBE:
 BYTE   W02
 BYTE   N16  As3  v072
 BYTE   W16
 BYTE   N24  Cn4  v080
 BYTE   W24
 BYTE   Fn3  v064
 BYTE   W24
 BYTE   N32  Fn4  v080
 BYTE   W22
 BYTE   W01
 BYTE   W01
 BYTE   W02
 BYTE   W01
 BYTE   W02
 BYTE   W01
 BYTE   PEND 
//  #09 //031   ----------------------------------------
 BYTE   W05
 BYTE   W01
 BYTE   N06  Ds4  v072
 BYTE   W06
 BYTE   Dn4
 BYTE   W06
 BYTE   N32  Ds4  v080
 BYTE   W22
 BYTE   W01
 BYTE   W01
 BYTE   W02
 BYTE   W01
 BYTE   W02
 BYTE   W01
 BYTE   W05
 BYTE   W01
 BYTE   N06  Cn4  v072
 BYTE   W06
 BYTE   Dn4
 BYTE   W06
 BYTE   N32  Ds4  v080
 BYTE   W22
 BYTE   W01
 BYTE   W01
 BYTE   W02
 BYTE   W01
 BYTE   W02
 BYTE   W01
//  #09 //032   ----------------------------------------
 BYTE   W05
 BYTE   W01
 BYTE   N06  Dn4  v072
 BYTE   W06
 BYTE   Cn4
 BYTE   W06
 BYTE   N24  Dn4  v080
 BYTE   W24
 BYTE   An3  v072
 BYTE   W24
 BYTE   As3  v080
 BYTE   W24
 BYTE   Cn4
 BYTE   W06
//  #09 //033   ----------------------------------------
 BYTE   PATT
  POIN2 Label_01008CA4
//  #09 //034   ----------------------------------------
 BYTE   PATT
  POIN2 Label_01008CBE
//  #09 //035   ----------------------------------------
 BYTE   W05
 BYTE   W01
 BYTE   N06  Ds4  v072
 BYTE   W06
 BYTE   Dn4
 BYTE   W06
 BYTE   N32  Ds4  v080
 BYTE   W20
 BYTE   W02
 BYTE   W02
 BYTE   W02
 BYTE   W02
 BYTE   W02
 BYTE   W05
 BYTE   W01
 BYTE   N06  Cn4
 BYTE   W06
 BYTE   Dn4
 BYTE   W06
 BYTE   N32  Ds4
 BYTE   W22
 BYTE   W01
 BYTE   W01
 BYTE   W02
 BYTE   W01
 BYTE   W02
 BYTE   W01
//  #09 //036   ----------------------------------------
 BYTE   W05
 BYTE   W01
 BYTE   N06  Dn4
 BYTE   W06
 BYTE   Cn4
 BYTE   W06
 BYTE   N90  Dn4
 BYTE   W72
 BYTE   W02
 BYTE   W02
 BYTE   W02
//  #09 //037   ----------------------------------------
 BYTE   W01
 BYTE   W02
 BYTE   W02
 BYTE   W03
 BYTE   W02
 BYTE   W07
 BYTE   W01
 BYTE   N16  Ds4
 BYTE   W16
 BYTE   Fn4  v072
 BYTE   W16
 BYTE   Gn4
 BYTE   W16
 BYTE   Fn4
 BYTE   W16
 BYTE   Cn4  v064
 BYTE   W14
//  #09 //038   ----------------------------------------
 BYTE   W02
 BYTE   Fn4
 BYTE   W16
 BYTE   N90  Dn4
 BYTE   W78
//  #09 //039   ----------------------------------------
 BYTE   W01
 BYTE   W02
 BYTE   W01
 BYTE   W02
 BYTE   W01
 BYTE   W03
 BYTE   W03
 BYTE   W04
 BYTE   W01
 BYTE   N16  Gn4  v080
 BYTE   W16
 BYTE   An4  v072
 BYTE   W16
 BYTE   As4
 BYTE   W16
 BYTE   An4
 BYTE   W16
 BYTE   Fn4  v064
 BYTE   W14
//  #09 //040   ----------------------------------------
 BYTE   W02
 BYTE   Dn4
 BYTE   W16
 BYTE   N90  Gn4  v072
 BYTE   W78
//  #09 //041   ----------------------------------------
 BYTE   W01
 BYTE   W02
 BYTE   W01
 BYTE   W02
 BYTE   W01
 BYTE   W03
 BYTE   W03
 BYTE   W04
 BYTE   W01
 BYTE   N16  As4  v080
 BYTE   W16
 BYTE   Cn5
 BYTE   W16
 BYTE   Cs5
 BYTE   W16
 BYTE   Cn5
 BYTE   W16
 BYTE   Gs4  v064
 BYTE   W14
//  #09 //042   ----------------------------------------
 BYTE   W02
 BYTE   Fn4
 BYTE   W16
 BYTE   As4  v080
 BYTE   W16
 BYTE   Cn5
 BYTE   W16
 BYTE   Cs5
 BYTE   W16
 BYTE   Fn5
 BYTE   W16
 BYTE   Ds5  v072
 BYTE   W14
//  #09 //043   ----------------------------------------
 BYTE   W02
 BYTE   Cn5
 BYTE   W16
 BYTE   N32  Cs5  v080
 BYTE   W20
 BYTE   W02
 BYTE   W02
 BYTE   W02
 BYTE   W02
 BYTE   W02
 BYTE   W05
 BYTE   W01
 BYTE   N06  As4  v072
 BYTE   W06
 BYTE   Cn5
 BYTE   W06
 BYTE   N48  Cs5  v080
 BYTE   W30
//  #09 //044   ----------------------------------------
 BYTE   W18
 BYTE   N32  Ds5
 BYTE   W20
 BYTE   W02
 BYTE   W02
 BYTE   W02
 BYTE   W02
 BYTE   W02
 BYTE   W05
 BYTE   W01
 BYTE   N06  Cn5  v072
 BYTE   W06
 BYTE   Cs5
 BYTE   W06
 BYTE   N48  Ds5  v080
 BYTE   W30
//  #09 //045   ----------------------------------------
 BYTE   W18
 BYTE   TIE  Fn5
 BYTE   W78
//  #09 //046   ----------------------------------------
 BYTE   W64
 BYTE   W01
 BYTE   W04
 BYTE   W04
 BYTE   W03
 BYTE   W04
 BYTE   W03
 BYTE   W05
 BYTE   W04
 BYTE   W03
 BYTE   W01
//  #09 //047   ----------------------------------------
 BYTE   W02
 BYTE   W04
 BYTE   W03
 BYTE   W04
 BYTE   W03
 BYTE   W02
 BYTE   EOT
 BYTE   W12
 BYTE   W66
//  #09 //048   ----------------------------------------
 BYTE   W96
//  #09 //049   ----------------------------------------
 BYTE   W96
//  #09 //050   ----------------------------------------
 BYTE   W96
//  #09 //051   ----------------------------------------
 BYTE   W96
//  #09 //052   ----------------------------------------
 BYTE   W96
//  #09 //053   ----------------------------------------
 BYTE   W96
//  #09 //054   ----------------------------------------
 BYTE   W96
//  #09 //055   ----------------------------------------
 BYTE   W96
//  #09 //056   ----------------------------------------
 BYTE   W96
//  #09 //057   ----------------------------------------
 BYTE   W96
//  #09 //058   ----------------------------------------
 BYTE   W96
//  #09 //059   ----------------------------------------
 BYTE   GoTo
  POIN2 Label_01008BA7
//  #09 //060   ----------------------------------------
 BYTE   W18
 BYTE   N36  Gn3  v072
 BYTE   W36
 BYTE   N06  An3  v092
 BYTE   W06
 BYTE   As3  v080
 BYTE   W36
 BYTE   FINE

//**************** Track 10 (Midi-Chn.9) ****************//

DraculaCastle_010:
//  #10 //000   ----------------------------------------
 BYTE   KEYSH   DraculaCastle_key+0
 BYTE   VOICE   30
 BYTE   VOL   25*DraculaCastle_mvl/mxv
 BYTE   PAN   c_v+56
 BYTE   W96
//  #10 //001   ----------------------------------------
 BYTE   W96
//  #10 //002   ----------------------------------------
 BYTE   W96
//  #10 //003   ----------------------------------------
 BYTE   W96
//  #10 //004   ----------------------------------------
 BYTE   W84
 BYTE   N06  Bn1  v120
 BYTE   W06
 BYTE   N06
 BYTE   W06
//  #10 //005   ----------------------------------------
 BYTE   N84
 BYTE   W96
//  #10 //006   ----------------------------------------
 BYTE   W84
 BYTE   N06  Cn2
 BYTE   W06
 BYTE   N06
 BYTE   W06
//  #10 //007   ----------------------------------------
 BYTE   N96
 BYTE   W96
//  #10 //008   ----------------------------------------
 BYTE   W60
 BYTE   N36  An1  v100
 BYTE   N36  Dn2
 BYTE   W36
//  #10 //009   ----------------------------------------
 BYTE   W36
 BYTE   N12  An1
 BYTE   N12  Dn2
 BYTE   W24
 BYTE   N36  An1
 BYTE   N36  Dn2
 BYTE   W36
//  #10 //010   ----------------------------------------
 BYTE   N24  An1
 BYTE   N24  Dn2
 BYTE   W36
 BYTE   N12  An1
 BYTE   N12  Dn2
 BYTE   W24
 BYTE   N24  An1
 BYTE   N24  Dn2
 BYTE   W36
//  #10 //011   ----------------------------------------
 BYTE   An1
 BYTE   N24  Dn2
 BYTE   W48
 BYTE   N12  An1
 BYTE   N12  Dn2
 BYTE   W12
 BYTE   An1
 BYTE   N12  Dn2
 BYTE   W12
 BYTE   N18  An1
 BYTE   N18  Dn2
 BYTE   W08
 BYTE   BEND   c_v+0
 BYTE   W01
 BYTE   BEND   c_v-1
 BYTE   W01
 BYTE   BEND   c_v-1
 BYTE   W01
 BYTE   BEND   c_v-2
 BYTE   W01
 BYTE   BEND   c_v-4
 BYTE   W01
 BYTE   BEND   c_v-4
 BYTE   W01
 BYTE   BEND   c_v-6
 BYTE   W01
 BYTE   BEND   c_v-7
 BYTE   W01
 BYTE   BEND   c_v-8
 BYTE   W01
 BYTE   BEND   c_v-10
 BYTE   W01
 BYTE   BEND   c_v-13
 BYTE   W01
 BYTE   BEND   c_v-15
 BYTE   W01
 BYTE   BEND   c_v-16
 BYTE   W03
 BYTE   BEND   c_v+0
 BYTE   W01
//  #10 //012   ----------------------------------------
Label_0100522D:
 BYTE   W96
//  #10 //013   ----------------------------------------
 BYTE   W96
//  #10 //014   ----------------------------------------
 BYTE   W96
//  #10 //015   ----------------------------------------
 BYTE   W96
//  #10 //016   ----------------------------------------
 BYTE   W96
//  #10 //017   ----------------------------------------
 BYTE   W96
//  #10 //018   ----------------------------------------
 BYTE   W96
//  #10 //019   ----------------------------------------
 BYTE   W96
//  #10 //020   ----------------------------------------
 BYTE   W96
//  #10 //021   ----------------------------------------
 BYTE   W96
//  #10 //022   ----------------------------------------
 BYTE   W96
//  #10 //023   ----------------------------------------
 BYTE   W96
//  #10 //024   ----------------------------------------
 BYTE   W96
//  #10 //025   ----------------------------------------
 BYTE   W96
//  #10 //026   ----------------------------------------
 BYTE   W96
//  #10 //027   ----------------------------------------
 BYTE   W96
//  #10 //028   ----------------------------------------
 BYTE   W96
//  #10 //029   ----------------------------------------
 BYTE   W96
//  #10 //030   ----------------------------------------
 BYTE   W96
//  #10 //031   ----------------------------------------
 BYTE   W96
//  #10 //032   ----------------------------------------
 BYTE   W96
//  #10 //033   ----------------------------------------
 BYTE   W96
//  #10 //034   ----------------------------------------
 BYTE   W96
//  #10 //035   ----------------------------------------
 BYTE   W96
//  #10 //036   ----------------------------------------
 BYTE   W96
//  #10 //037   ----------------------------------------
 BYTE   W96
//  #10 //038   ----------------------------------------
 BYTE   W96
//  #10 //039   ----------------------------------------
 BYTE   W96
//  #10 //040   ----------------------------------------
 BYTE   W96
//  #10 //041   ----------------------------------------
 BYTE   W96
//  #10 //042   ----------------------------------------
 BYTE   W96
//  #10 //043   ----------------------------------------
 BYTE   W96
//  #10 //044   ----------------------------------------
 BYTE   W24
 BYTE   PAN   c_v-26
 BYTE   W12
 BYTE   VOL   30*DraculaCastle_mvl/mxv
 BYTE   W12
 BYTE   N48  Gs1  v120
 BYTE   W48
//  #10 //045   ----------------------------------------
 BYTE   TIE  As1
 BYTE   W96
//  #10 //046   ----------------------------------------
 BYTE   W96
//  #10 //047   ----------------------------------------
 BYTE   EOT
 BYTE   W96
//  #10 //048   ----------------------------------------
 BYTE   W96
//  #10 //049   ----------------------------------------
 BYTE   W96
//  #10 //050   ----------------------------------------
 BYTE   W96
//  #10 //051   ----------------------------------------
 BYTE   W96
//  #10 //052   ----------------------------------------
 BYTE   W96
//  #10 //053   ----------------------------------------
 BYTE   W96
//  #10 //054   ----------------------------------------
 BYTE   W96
//  #10 //055   ----------------------------------------
 BYTE   W96
//  #10 //056   ----------------------------------------
 BYTE   W96
//  #10 //057   ----------------------------------------
 BYTE   W96
//  #10 //058   ----------------------------------------
 BYTE   W96
//  #10 //059   ----------------------------------------
 BYTE   GoTo
  POIN2 Label_0100522D
//  #10 //060   ----------------------------------------
 BYTE   W96
 BYTE   FINE

//**************** Track 11 (Midi-Chn.10) ****************//

DraculaCastle_011:
//  #11 //000   ----------------------------------------
 BYTE   KEYSH   DraculaCastle_key+0
 BYTE   VOICE   124
 BYTE   VOL   31*DraculaCastle_mvl/mxv
 BYTE   PAN   c_v-1
 BYTE   N03  As3  v080
 BYTE   W12
 BYTE   As3  v020
 BYTE   W12
 BYTE   An3  v080
 BYTE   W12
 BYTE   As3
 BYTE   W12
 BYTE   As3  v020
 BYTE   W12
 BYTE   As3  v080
 BYTE   W12
 BYTE   An3
 BYTE   W12
 BYTE   As3  v020
 BYTE   W12
//  #11 //001   ----------------------------------------
Label_0100942F:
 BYTE   N03  As3  v080
 BYTE   W12
 BYTE   As3  v020
 BYTE   W12
 BYTE   An3  v080
 BYTE   W12
 BYTE   As3
 BYTE   W12
 BYTE   As3  v020
 BYTE   W12
 BYTE   As3  v080
 BYTE   W12
 BYTE   An3
 BYTE   W12
 BYTE   As3  v020
 BYTE   W12
 BYTE   PEND 
//  #11 //002   ----------------------------------------
 BYTE   PATT
  POIN2 Label_0100942F
//  #11 //003   ----------------------------------------
 BYTE   PATT
  POIN2 Label_0100942F
//  #11 //004   ----------------------------------------
 BYTE   N03  Fs1  v120
 BYTE   N03  As3  v080
 BYTE   W12
 BYTE   Fs1  v040
 BYTE   N03  As3  v020
 BYTE   W12
 BYTE   Fs1  v100
 BYTE   N03  An3  v080
 BYTE   N03  Cn1  v120
 BYTE   W12
 BYTE   Fs1  v040
 BYTE   N03  As3  v080
 BYTE   W12
 BYTE   Fs1  v100
 BYTE   N03  As3  v020
 BYTE   W12
 BYTE   As1  v100
 BYTE   N03  As3  v080
 BYTE   W12
 BYTE   Fs1  v100
 BYTE   N03  An3  v080
 BYTE   W12
 BYTE   Fs1  v040
 BYTE   N03  As3  v020
 BYTE   W12
//  #11 //005   ----------------------------------------
 BYTE   Fs1  v120
 BYTE   N03  As3  v080
 BYTE   W12
 BYTE   Fs1  v040
 BYTE   N03  As3  v020
 BYTE   W12
 BYTE   Fs1  v100
 BYTE   N03  An3  v080
 BYTE   N03  Cn1  v120
 BYTE   W12
 BYTE   Fs1  v040
 BYTE   N03  As3  v080
 BYTE   W12
 BYTE   Fs1  v100
 BYTE   N03  As3  v020
 BYTE   W12
 BYTE   Fs1  v040
 BYTE   N03  As3  v080
 BYTE   W12
 BYTE   Fs1  v120
 BYTE   N03  An3  v080
 BYTE   W12
 BYTE   Fs1  v052
 BYTE   N03  As3  v020
 BYTE   W06
 BYTE   Fs1  v040
 BYTE   W06
//  #11 //006   ----------------------------------------
 BYTE   Fs1  v120
 BYTE   N03  As3  v080
 BYTE   W12
 BYTE   Fs1  v072
 BYTE   N03  As3  v020
 BYTE   W12
 BYTE   Fs1  v100
 BYTE   N03  An3  v080
 BYTE   N03  Cn1  v120
 BYTE   W12
 BYTE   Fs1  v040
 BYTE   N03  As3  v080
 BYTE   W12
 BYTE   Fs1  v100
 BYTE   N03  As3  v020
 BYTE   W12
 BYTE   Fs1  v040
 BYTE   N03  As3  v080
 BYTE   W12
 BYTE   Fs1  v100
 BYTE   N03  An3  v080
 BYTE   W12
 BYTE   Fs1  v040
 BYTE   N03  As3  v020
 BYTE   W12
//  #11 //007   ----------------------------------------
 BYTE   Fs1  v100
 BYTE   N03  As3  v080
 BYTE   W12
 BYTE   Fs1  v040
 BYTE   N03  As3  v020
 BYTE   W12
 BYTE   Fs1  v100
 BYTE   N03  An3  v080
 BYTE   N03  Cn1  v120
 BYTE   W12
 BYTE   Fs1  v040
 BYTE   N03  As3  v080
 BYTE   W12
 BYTE   Fs1  v100
 BYTE   N03  As3  v020
 BYTE   W12
 BYTE   Fs1  v040
 BYTE   N03  As3  v080
 BYTE   W12
 BYTE   As1  v092
 BYTE   N03  An3  v080
 BYTE   W12
 BYTE   As1  v100
 BYTE   N03  As3  v020
 BYTE   W12
//  #11 //008   ----------------------------------------
 BYTE   Cn1  v080
 BYTE   N03  Fs1  v100
 BYTE   N03  An1  v080
 BYTE   N03  As3
 BYTE   W12
 BYTE   As3  v020
 BYTE   W12
 BYTE   Cn1  v080
 BYTE   N03  An3
 BYTE   N03  Cn1  v120
 BYTE   W12
 BYTE   An1  v080
 BYTE   N03  As3
 BYTE   W12
 BYTE   Cn1
 BYTE   N03  An1
 BYTE   N03  As3  v020
 BYTE   W12
 BYTE   Dn1  v092
 BYTE   N03  Gn2  v120
 BYTE   N03  As3  v080
 BYTE   W12
 BYTE   Cn1
 BYTE   N03  An1
 BYTE   N03  An3
 BYTE   W12
 BYTE   An1
 BYTE   N03  As3  v020
 BYTE   W12
//  #11 //009   ----------------------------------------
 BYTE   Cn1  v080
 BYTE   N03  An1
 BYTE   N03  As3
 BYTE   W12
 BYTE   As3  v020
 BYTE   W12
 BYTE   Cn1  v080
 BYTE   N03  Dn1  v092
 BYTE   N03  Gn2  v080
 BYTE   N03  An3
 BYTE   N03  Cn1  v120
 BYTE   W12
 BYTE   Cn1  v064
 BYTE   N03  An1  v080
 BYTE   N03  As3
 BYTE   W12
 BYTE   Cn1
 BYTE   N03  An1
 BYTE   N03  As3  v020
 BYTE   W12
 BYTE   Dn1  v092
 BYTE   N03  Gn2  v120
 BYTE   N03  As3  v080
 BYTE   W12
 BYTE   Cn1
 BYTE   N03  An1
 BYTE   N03  An3
 BYTE   W12
 BYTE   As3  v020
 BYTE   W01
 BYTE   An1  v080
 BYTE   W05
 BYTE   N03
 BYTE   W06
//  #11 //010   ----------------------------------------
 BYTE   Cn1
 BYTE   N03  An1
 BYTE   N03  As3
 BYTE   W12
 BYTE   As3  v020
 BYTE   W12
 BYTE   Cn1  v080
 BYTE   N03  An3
 BYTE   N03  Cn1  v120
 BYTE   W12
 BYTE   As3  v080
 BYTE   W01
 BYTE   An1
 BYTE   W05
 BYTE   N03
 BYTE   W06
 BYTE   Cn1
 BYTE   N03  An1
 BYTE   N03  As3  v020
 BYTE   W12
 BYTE   An1  v080
 BYTE   N03  As3
 BYTE   W12
 BYTE   Cn1
 BYTE   N03  Fn1
 BYTE   N03  An3
 BYTE   W12
 BYTE   Fn1
 BYTE   N03  As3  v020
 BYTE   W12
//  #11 //011   ----------------------------------------
 BYTE   Cn1  v080
 BYTE   N03  An1
 BYTE   N03  As3
 BYTE   W12
 BYTE   An1
 BYTE   N03  As3  v020
 BYTE   W12
 BYTE   Cn1  v080
 BYTE   N03  An1
 BYTE   N03  An3
 BYTE   N03  Cn1  v120
 BYTE   W12
 BYTE   An1  v080
 BYTE   N03  As3
 BYTE   W12
 BYTE   Cn1
 BYTE   N03  Dn1  v092
 BYTE   N03  An1  v080
 BYTE   N03  As3  v020
 BYTE   W12
 BYTE   Cn1  v080
 BYTE   N03  Dn1  v092
 BYTE   N03  An1  v080
 BYTE   N03  As3
 BYTE   W12
 BYTE   Cn1
 BYTE   N03  Dn1  v092
 BYTE   N03  An1  v080
 BYTE   N03  An3
 BYTE   W12
 BYTE   Cn1
 BYTE   N03  Dn1  v092
 BYTE   N03  An1  v080
 BYTE   N03  As3  v020
 BYTE   W12
//  #11 //012   ----------------------------------------
Label_0100960A:
 BYTE   N03  Cn1  v080
 BYTE   N03  Cs2  v100
 BYTE   W24
 BYTE   Dn1  v092
 BYTE   N03  Fs1  v100
 BYTE   W12
 BYTE   Fs1  v040
 BYTE   W12
 BYTE   Cn1  v080
 BYTE   N03  Fs1  v100
 BYTE   W12
 BYTE   Fs1  v040
 BYTE   W12
 BYTE   Dn1  v092
 BYTE   N03  Fs1  v100
 BYTE   W12
 BYTE   Cn1  v080
 BYTE   N03  Fs1  v040
 BYTE   W12
 BYTE   PEND 
//  #11 //013   ----------------------------------------
Label_01009630:
 BYTE   N03  Cn1  v080
 BYTE   N03  Fs1  v100
 BYTE   W12
 BYTE   Fs1  v040
 BYTE   W12
 BYTE   Dn1  v092
 BYTE   N03  Fs1  v100
 BYTE   W12
 BYTE   Fs1  v040
 BYTE   W12
 BYTE   Cn1  v080
 BYTE   N03  Fs1  v100
 BYTE   W12
 BYTE   Fs1  v040
 BYTE   W12
 BYTE   Dn1  v092
 BYTE   N03  Fs1  v100
 BYTE   W12
 BYTE   Fs1  v040
 BYTE   W12
 BYTE   PEND 
//  #11 //014   ----------------------------------------
 BYTE   Cn1  v080
 BYTE   N03  Fs1  v100
 BYTE   W12
 BYTE   Fs1  v040
 BYTE   W12
 BYTE   Dn1  v092
 BYTE   N03  Fs1  v100
 BYTE   W12
 BYTE   Fs1  v040
 BYTE   W12
 BYTE   Cn1  v080
 BYTE   N03  Fs1  v100
 BYTE   W12
 BYTE   Cn1  v080
 BYTE   N03  Fs1  v040
 BYTE   W12
 BYTE   Dn1  v092
 BYTE   N03  Fs1  v100
 BYTE   W12
 BYTE   Fs1  v040
 BYTE   W12
//  #11 //015   ----------------------------------------
 BYTE   Cn1  v080
 BYTE   N03  Fs1  v100
 BYTE   W12
 BYTE   Fs1  v040
 BYTE   W12
 BYTE   Dn1  v092
 BYTE   N03  Fs1  v100
 BYTE   W12
 BYTE   Fs1  v040
 BYTE   W12
 BYTE   Cn1  v080
 BYTE   N03  As1
 BYTE   W12
 BYTE   Dn1  v092
 BYTE   N03  As1  v080
 BYTE   W12
 BYTE   Cn1
 BYTE   W12
 BYTE   Dn1  v092
 BYTE   N03  As1  v080
 BYTE   W12
//  #11 //016   ----------------------------------------
 BYTE   Cn1
 BYTE   N03  Fs1  v100
 BYTE   W12
 BYTE   Fs1  v064
 BYTE   W12
 BYTE   Dn1  v092
 BYTE   N03  Cs2  v100
 BYTE   W24
 BYTE   Cn1  v080
 BYTE   N03  Fs1  v100
 BYTE   W12
 BYTE   Fs1  v040
 BYTE   W12
 BYTE   Dn1  v092
 BYTE   N03  Fs1  v100
 BYTE   W12
 BYTE   Cn1  v080
 BYTE   N03  Fs1  v040
 BYTE   W12
//  #11 //017   ----------------------------------------
 BYTE   PATT
  POIN2 Label_01009630
//  #11 //018   ----------------------------------------
 BYTE   N03  Cn1  v080
 BYTE   N03  Fs1  v100
 BYTE   W12
 BYTE   Fs1  v040
 BYTE   W12
 BYTE   Dn1  v092
 BYTE   N03  Fs1  v100
 BYTE   W12
 BYTE   Fs1  v040
 BYTE   W12
 BYTE   Cn1  v080
 BYTE   N03  Fs1  v100
 BYTE   W12
 BYTE   Fs1  v064
 BYTE   W12
 BYTE   Dn1  v092
 BYTE   N03  Fs1  v100
 BYTE   W12
 BYTE   Fs1  v064
 BYTE   W12
//  #11 //019   ----------------------------------------
 BYTE   Cn1  v080
 BYTE   N03  As1  v120
 BYTE   W12
 BYTE   Dn1  v092
 BYTE   W12
 BYTE   N03
 BYTE   N03  Fs1  v100
 BYTE   W12
 BYTE   As1  v120
 BYTE   W12
 BYTE   Cn1  v080
 BYTE   W12
 BYTE   Dn1  v092
 BYTE   W12
 BYTE   N03
 BYTE   W06
 BYTE   N03
 BYTE   W06
 BYTE   N03
 BYTE   W06
 BYTE   N03
 BYTE   W06
//  #11 //020   ----------------------------------------
 BYTE   Cn1  v080
 BYTE   N03  An2  v100
 BYTE   W24
 BYTE   Dn1  v092
 BYTE   N03  As1  v100
 BYTE   W24
 BYTE   Cn1  v080
 BYTE   N03  Fs1  v100
 BYTE   W12
 BYTE   Cn1  v080
 BYTE   W12
 BYTE   Dn1  v092
 BYTE   N03  Fs1  v100
 BYTE   W12
 BYTE   Cn1  v080
 BYTE   W12
//  #11 //021   ----------------------------------------
Label_0100972C:
 BYTE   N03  Cn1  v080
 BYTE   N03  Fs1  v100
 BYTE   W24
 BYTE   Dn1  v092
 BYTE   N03  Fs1  v100
 BYTE   W24
 BYTE   Cn1  v080
 BYTE   N03  Fs1  v100
 BYTE   W12
 BYTE   Fs1  v064
 BYTE   W12
 BYTE   Dn1  v092
 BYTE   N03  Fs1  v100
 BYTE   W24
 BYTE   PEND 
//  #11 //022   ----------------------------------------
 BYTE   Cn1  v080
 BYTE   N03  Fs1  v100
 BYTE   W24
 BYTE   Dn1  v092
 BYTE   N03  Fs1  v100
 BYTE   W24
 BYTE   Cn1  v080
 BYTE   N03  Fs1  v100
 BYTE   W12
 BYTE   Cn1  v080
 BYTE   W12
 BYTE   Dn1  v092
 BYTE   N03  Fs1  v100
 BYTE   W24
//  #11 //023   ----------------------------------------
 BYTE   Cn1  v080
 BYTE   N03  Fs1
 BYTE   W24
 BYTE   Dn1  v092
 BYTE   N03  Fs1  v080
 BYTE   W24
 BYTE   Cn1
 BYTE   N03  As1
 BYTE   W12
 BYTE   Dn1  v092
 BYTE   N03  As1  v080
 BYTE   W12
 BYTE   Cn1
 BYTE   W12
 BYTE   Dn1  v092
 BYTE   W12
//  #11 //024   ----------------------------------------
 BYTE   Cn1  v080
 BYTE   N03  As1
 BYTE   W12
 BYTE   As1  v064
 BYTE   W12
 BYTE   Dn1  v092
 BYTE   N03  Gn2  v100
 BYTE   W24
 BYTE   Cn1  v080
 BYTE   N03  Fs1  v100
 BYTE   W24
 BYTE   Dn1  v092
 BYTE   N03  Fs1  v100
 BYTE   W12
 BYTE   Cn1  v080
 BYTE   W12
//  #11 //025   ----------------------------------------
 BYTE   PATT
  POIN2 Label_0100972C
//  #11 //026   ----------------------------------------
 BYTE   N03  Cn1  v080
 BYTE   N03  Fs1  v100
 BYTE   W24
 BYTE   Dn1  v092
 BYTE   N03  Fs1  v100
 BYTE   W24
 BYTE   Cn1  v080
 BYTE   N03  Fs1  v100
 BYTE   W24
 BYTE   Dn1  v092
 BYTE   N03  Fs1  v100
 BYTE   W12
 BYTE   Fs1  v064
 BYTE   W12
//  #11 //027   ----------------------------------------
 BYTE   Cn1  v080
 BYTE   N03  Fs1  v100
 BYTE   W12
 BYTE   Fs1  v080
 BYTE   W12
 BYTE   Dn1  v092
 BYTE   N03  Fs1  v100
 BYTE   W12
 BYTE   Fs1  v080
 BYTE   W12
 BYTE   Cn1
 BYTE   N03  Fs1  v100
 BYTE   W12
 BYTE   Fs1  v080
 BYTE   W12
 BYTE   Dn1  v092
 BYTE   N03  Fs1  v100
 BYTE   W12
 BYTE   Fs1  v080
 BYTE   W12
//  #11 //028   ----------------------------------------
 BYTE   Cn1
 BYTE   N03  Fs1  v100
 BYTE   W12
 BYTE   Fs1  v080
 BYTE   W12
 BYTE   Dn1  v092
 BYTE   N03  As1  v100
 BYTE   W12
 BYTE   Dn1  v092
 BYTE   W12
 BYTE   Cn1  v080
 BYTE   N03  Cn2
 BYTE   W06
 BYTE   N03
 BYTE   W06
 BYTE   Dn1  v092
 BYTE   N03  Cn2  v080
 BYTE   W06
 BYTE   Dn1  v092
 BYTE   N03  Cn2  v080
 BYTE   W06
 BYTE   Cn1
 BYTE   N03  An1
 BYTE   W06
 BYTE   N03
 BYTE   W06
 BYTE   Fn1
 BYTE   W06
 BYTE   N03
 BYTE   W06
//  #11 //029   ----------------------------------------
 BYTE   Cn1
 BYTE   N03  Cs2  v064
 BYTE   W24
 BYTE   Dn1  v092
 BYTE   N03  Fs1  v100
 BYTE   N03  Cn1  v120
 BYTE   W12
 BYTE   Fs1  v080
 BYTE   W12
 BYTE   Cn1
 BYTE   N03  Fs1  v100
 BYTE   W12
 BYTE   Fs1  v080
 BYTE   W12
 BYTE   Dn1  v092
 BYTE   N03  Fs1  v100
 BYTE   W12
 BYTE   Fs1  v080
 BYTE   W12
//  #11 //030   ----------------------------------------
Label_0100982F:
 BYTE   N03  Cn1  v080
 BYTE   N03  Fs1  v100
 BYTE   W12
 BYTE   Fs1  v080
 BYTE   W12
 BYTE   Dn1  v092
 BYTE   N03  Fs1  v100
 BYTE   N03  Cn1  v120
 BYTE   W12
 BYTE   Fs1  v080
 BYTE   W12
 BYTE   Cn1
 BYTE   N03  Fs1  v100
 BYTE   W12
 BYTE   Fs1  v080
 BYTE   W12
 BYTE   Dn1  v092
 BYTE   N03  Fs1  v100
 BYTE   W12
 BYTE   Cn1  v080
 BYTE   N03  Fs1
 BYTE   W12
 BYTE   PEND 
//  #11 //031   ----------------------------------------
Label_01009859:
 BYTE   N03  Cn1  v080
 BYTE   N03  Fs1  v100
 BYTE   W12
 BYTE   Fs1  v080
 BYTE   W12
 BYTE   Dn1  v092
 BYTE   N03  Fs1  v100
 BYTE   N03  Cn1  v120
 BYTE   W12
 BYTE   Fs1  v080
 BYTE   W12
 BYTE   Cn1
 BYTE   N03  Fs1  v100
 BYTE   W12
 BYTE   Fs1  v080
 BYTE   W12
 BYTE   Dn1  v092
 BYTE   N03  Fs1  v100
 BYTE   W12
 BYTE   Fs1  v080
 BYTE   W12
 BYTE   PEND 
//  #11 //032   ----------------------------------------
 BYTE   Cn1
 BYTE   N03  Fs1  v100
 BYTE   W08
 BYTE   Dn1  v092
 BYTE   W04
 BYTE   Fs1  v080
 BYTE   W01
 BYTE   Dn1  v092
 BYTE   W11
 BYTE   N03
 BYTE   N03  Fs1  v100
 BYTE   N03  Cn1  v120
 BYTE   W12
 BYTE   Cn1  v080
 BYTE   N03  Fs1
 BYTE   W12
 BYTE   Cn1
 BYTE   N03  Fs1  v100
 BYTE   W12
 BYTE   Dn1  v092
 BYTE   N03  Fs1  v080
 BYTE   W12
 BYTE   Dn1  v092
 BYTE   N03  As1  v100
 BYTE   W24
//  #11 //033   ----------------------------------------
Label_010098AD:
 BYTE   N03  Cn1  v080
 BYTE   N03  Cs2  v100
 BYTE   W24
 BYTE   Dn1  v092
 BYTE   N03  Fs1  v100
 BYTE   N03  Cn1  v120
 BYTE   W12
 BYTE   Fs1  v080
 BYTE   W12
 BYTE   Cn1
 BYTE   N03  Fs1  v100
 BYTE   W12
 BYTE   Fs1  v080
 BYTE   W12
 BYTE   Dn1  v092
 BYTE   N03  Fs1  v100
 BYTE   W12
 BYTE   Fs1  v080
 BYTE   W12
 BYTE   PEND 
//  #11 //034   ----------------------------------------
 BYTE   Cn1
 BYTE   N03  Fs1  v100
 BYTE   W12
 BYTE   Fs1  v080
 BYTE   W12
 BYTE   Dn1  v092
 BYTE   N03  Fs1  v100
 BYTE   N03  Cn1  v120
 BYTE   W12
 BYTE   Fs1  v080
 BYTE   W12
 BYTE   Cn1
 BYTE   N03  Fs1  v100
 BYTE   W12
 BYTE   Fs1  v080
 BYTE   W12
 BYTE   Dn1  v092
 BYTE   N03  Gn2  v100
 BYTE   W12
 BYTE   Cn1  v080
 BYTE   W12
//  #11 //035   ----------------------------------------
 BYTE   PATT
  POIN2 Label_01009859
//  #11 //036   ----------------------------------------
 BYTE   N03  Cn1  v080
 BYTE   N03  Fs1  v100
 BYTE   W12
 BYTE   Fs1  v080
 BYTE   W12
 BYTE   Dn1  v092
 BYTE   N03  Fs1  v100
 BYTE   N03  Cn1  v120
 BYTE   W12
 BYTE   Fs1  v080
 BYTE   W12
 BYTE   Cn1
 BYTE   N03  Fs1  v100
 BYTE   W12
 BYTE   Fs1  v080
 BYTE   W12
 BYTE   Dn1  v092
 BYTE   W06
 BYTE   N03
 BYTE   W06
 BYTE   N03
 BYTE   W06
 BYTE   N03
 BYTE   W06
//  #11 //037   ----------------------------------------
 BYTE   PATT
  POIN2 Label_010098AD
//  #11 //038   ----------------------------------------
 BYTE   PATT
  POIN2 Label_0100982F
//  #11 //039   ----------------------------------------
 BYTE   PATT
  POIN2 Label_01009859
//  #11 //040   ----------------------------------------
 BYTE   PATT
  POIN2 Label_0100982F
//  #11 //041   ----------------------------------------
 BYTE   N03  Cn1  v080
 BYTE   N03  Cs2  v100
 BYTE   W24
 BYTE   Dn1  v092
 BYTE   N03  Fs1  v100
 BYTE   N03  Cn1  v120
 BYTE   W12
 BYTE   Fs1  v080
 BYTE   W12
 BYTE   Cn1
 BYTE   N03  Fs1  v100
 BYTE   W12
 BYTE   Fs1  v080
 BYTE   W12
 BYTE   Dn1  v092
 BYTE   N03  Fs1  v100
 BYTE   W12
 BYTE   As1
 BYTE   W12
//  #11 //042   ----------------------------------------
 BYTE   PATT
  POIN2 Label_0100982F
//  #11 //043   ----------------------------------------
 BYTE   N03  Cn1  v080
 BYTE   N03  Fs1  v100
 BYTE   N03  Cs2
 BYTE   W12
 BYTE   Fs1  v080
 BYTE   W12
 BYTE   Dn1  v092
 BYTE   N03  Fs1  v100
 BYTE   N03  Cn1  v120
 BYTE   W12
 BYTE   Fs1  v080
 BYTE   W12
 BYTE   Cn1
 BYTE   N03  Fs1  v100
 BYTE   W12
 BYTE   Fs1  v080
 BYTE   W12
 BYTE   Dn1  v092
 BYTE   N03  Fs1  v100
 BYTE   W12
 BYTE   Fs1  v080
 BYTE   W12
//  #11 //044   ----------------------------------------
 BYTE   Cn1
 BYTE   N03  Fs1  v100
 BYTE   W12
 BYTE   Fs1  v080
 BYTE   W12
 BYTE   Dn1  v092
 BYTE   N03  Fs1  v100
 BYTE   W12
 BYTE   Fs1  v080
 BYTE   W12
 BYTE   Cn1
 BYTE   N03  Fs1  v100
 BYTE   W12
 BYTE   Fs1  v080
 BYTE   W12
 BYTE   Dn1  v092
 BYTE   N03  As1  v100
 BYTE   W24
//  #11 //045   ----------------------------------------
 BYTE   Cn1  v080
 BYTE   N03  Cs2  v100
 BYTE   W24
 BYTE   As1  v080
 BYTE   W24
 BYTE   N03
 BYTE   W24
 BYTE   N03
 BYTE   W24
//  #11 //046   ----------------------------------------
 BYTE   N03
 BYTE   W24
 BYTE   N03
 BYTE   W24
 BYTE   N03
 BYTE   W24
 BYTE   N03
 BYTE   W24
//  #11 //047   ----------------------------------------
 BYTE   PATT
  POIN2 Label_0100942F
//  #11 //048   ----------------------------------------
 BYTE   PATT
  POIN2 Label_0100942F
//  #11 //049   ----------------------------------------
 BYTE   PATT
  POIN2 Label_0100942F
//  #11 //050   ----------------------------------------
 BYTE   PATT
  POIN2 Label_0100942F
//  #11 //051   ----------------------------------------
 BYTE   N03  As3  v080
 BYTE   W12
 BYTE   As3  v020
 BYTE   W12
 BYTE   Cn1  v080
 BYTE   N03  Cs2  v100
 BYTE   N03  An3  v080
 BYTE   W12
 BYTE   As3
 BYTE   W12
 BYTE   As3  v020
 BYTE   W12
 BYTE   As3  v080
 BYTE   W12
 BYTE   An3
 BYTE   W12
 BYTE   As3  v020
 BYTE   W12
//  #11 //052   ----------------------------------------
 BYTE   Cn1  v080
 BYTE   N03  Dn1  v092
 BYTE   N03  An1  v080
 BYTE   N03  As3
 BYTE   W12
 BYTE   As3  v020
 BYTE   W12
 BYTE   Cn1  v080
 BYTE   N03  Dn1  v092
 BYTE   N03  An3  v080
 BYTE   W12
 BYTE   As3
 BYTE   W12
 BYTE   As3  v020
 BYTE   W12
 BYTE   As3  v080
 BYTE   W12
 BYTE   An3
 BYTE   W12
 BYTE   As3  v020
 BYTE   W12
//  #11 //053   ----------------------------------------
 BYTE   As3  v080
 BYTE   W12
 BYTE   As3  v020
 BYTE   W12
 BYTE   Cn1  v080
 BYTE   N03  An2  v100
 BYTE   N03  An3  v080
 BYTE   W12
 BYTE   As3
 BYTE   W12
 BYTE   As3  v020
 BYTE   W12
 BYTE   As3  v080
 BYTE   W12
 BYTE   An3
 BYTE   W12
 BYTE   As3  v020
 BYTE   W12
//  #11 //054   ----------------------------------------
 BYTE   Cn1  v080
 BYTE   N03  Cs2  v100
 BYTE   N03  As3  v080
 BYTE   W12
 BYTE   As3  v020
 BYTE   W12
 BYTE   An3  v080
 BYTE   W12
 BYTE   As3
 BYTE   W12
 BYTE   Cn1
 BYTE   N03  An2  v100
 BYTE   N03  As3  v020
 BYTE   W12
 BYTE   An1  v080
 BYTE   N03  Cn2
 BYTE   N03  As3
 BYTE   W12
 BYTE   An1
 BYTE   N03  Cn2
 BYTE   N03  An3
 BYTE   W12
 BYTE   An1
 BYTE   N03  As3  v020
 BYTE   W06
 BYTE   Fn1  v080
 BYTE   W06
//  #11 //055   ----------------------------------------
 BYTE   Cn1
 BYTE   N03  Fs1  v100
 BYTE   W06
 BYTE   Fs1  v064
 BYTE   W06
 BYTE   Fs1  v080
 BYTE   W06
 BYTE   Fs1  v064
 BYTE   W06
 BYTE   Dn1  v092
 BYTE   W06
 BYTE   N03
 BYTE   W18
 BYTE   Cn1  v080
 BYTE   N03  Fs1  v100
 BYTE   W12
 BYTE   Dn1  v092
 BYTE   N03  As1  v120
 BYTE   W12
 BYTE   Cn1  v080
 BYTE   W06
 BYTE   Dn1  v092
 BYTE   N03  As1  v120
 BYTE   W18
//  #11 //056   ----------------------------------------
 BYTE   Cn1  v080
 BYTE   N03  Dn1  v092
 BYTE   W06
 BYTE   N03
 BYTE   W18
 BYTE   N03
 BYTE   W06
 BYTE   N03
 BYTE   W18
 BYTE   Cn1  v080
 BYTE   N03  Fs1  v100
 BYTE   W12
 BYTE   Dn1  v092
 BYTE   N03  As1  v100
 BYTE   W12
 BYTE   Cn1  v080
 BYTE   W06
 BYTE   Dn1  v092
 BYTE   N03  As1  v100
 BYTE   W18
//  #11 //057   ----------------------------------------
 BYTE   Cn1  v080
 BYTE   N03  As1  v100
 BYTE   W12
 BYTE   Dn1  v092
 BYTE   N03  As1  v080
 BYTE   W12
 BYTE   Cn1
 BYTE   W06
 BYTE   Cn1  v052
 BYTE   W06
 BYTE   Dn1  v092
 BYTE   N03  As1  v080
 BYTE   W06
 BYTE   Cn1  v052
 BYTE   W06
 BYTE   Cn1  v080
 BYTE   W06
 BYTE   Cn1  v052
 BYTE   W06
 BYTE   Dn1  v092
 BYTE   N03  As1  v100
 BYTE   W06
 BYTE   Cn1  v052
 BYTE   W06
 BYTE   Cn1  v080
 BYTE   W06
 BYTE   Dn1  v092
 BYTE   N03  As1  v100
 BYTE   W18
//  #11 //058   ----------------------------------------
 BYTE   Cn1  v080
 BYTE   N03  Dn1  v092
 BYTE   W05
 BYTE   N03
 BYTE   W90
 BYTE   W01
//  #11 //059   ----------------------------------------
 BYTE   GoTo
  POIN2 Label_0100960A
//  #11 //060   ----------------------------------------
 BYTE   PATT
  POIN2 Label_0100960A
 BYTE   FINE

//**************** Track 12 (Midi-Chn.11) ****************//

DraculaCastle_012:
//  #12 //000   ----------------------------------------
 BYTE   KEYSH   DraculaCastle_key+0
 BYTE   VOICE   29
 BYTE   VOL   23*DraculaCastle_mvl/mxv
 BYTE   PAN   c_v+56
 BYTE   W96
//  #12 //001   ----------------------------------------
 BYTE   W96
//  #12 //002   ----------------------------------------
 BYTE   W96
//  #12 //003   ----------------------------------------
 BYTE   W96
//  #12 //004   ----------------------------------------
 BYTE   W96
//  #12 //005   ----------------------------------------
 BYTE   W96
//  #12 //006   ----------------------------------------
 BYTE   W96
//  #12 //007   ----------------------------------------
 BYTE   W96
//  #12 //008   ----------------------------------------
 BYTE   W18
 BYTE   N12  Dn3  v080
 BYTE   W78
//  #12 //009   ----------------------------------------
 BYTE   W96
//  #12 //010   ----------------------------------------
 BYTE   W96
//  #12 //011   ----------------------------------------
 BYTE   W18
 BYTE   N12
 BYTE   W01
 BYTE   BEND   c_v-1
 BYTE   W01
 BYTE   BEND   c_v-5
 BYTE   W01
 BYTE   BEND   c_v-8
 BYTE   W01
 BYTE   BEND   c_v-11
 BYTE   W01
 BYTE   BEND   c_v-13
 BYTE   W01
 BYTE   BEND   c_v-19
 BYTE   W01
 BYTE   BEND   c_v-23
 BYTE   W01
 BYTE   BEND   c_v-30
 BYTE   W01
 BYTE   BEND   c_v-34
 BYTE   W01
 BYTE   BEND   c_v-45
 BYTE   W01
 BYTE   BEND   c_v-50
 BYTE   W01
 BYTE   BEND   c_v-63
 BYTE   W01
 BYTE   BEND   c_v-64
 BYTE   W08
 BYTE   BEND   c_v+0
 BYTE   W44
 BYTE   W01
 BYTE   N12  Dn3  v072
 BYTE   W12
//  #12 //012   ----------------------------------------
Label_01007F68:
 BYTE   PAN   c_v-26
 BYTE   W96
//  #12 //013   ----------------------------------------
 BYTE   W84
 BYTE   N12  Dn3  v052
 BYTE   W12
//  #12 //014   ----------------------------------------
 BYTE   W42
 BYTE   N06  Dn3  v080
 BYTE   W54
//  #12 //015   ----------------------------------------
 BYTE   W60
 BYTE   N24  Dn3  v076
 BYTE   W24
 BYTE   N12  Dn3  v052
 BYTE   W12
//  #12 //016   ----------------------------------------
 BYTE   W96
//  #12 //017   ----------------------------------------
 BYTE   W84
 BYTE   Dn3  v040
 BYTE   W12
//  #12 //018   ----------------------------------------
 BYTE   W42
 BYTE   Dn3  v072
 BYTE   W54
//  #12 //019   ----------------------------------------
 BYTE   W96
//  #12 //020   ----------------------------------------
 BYTE   W96
//  #12 //021   ----------------------------------------
 BYTE   W96
//  #12 //022   ----------------------------------------
 BYTE   W96
//  #12 //023   ----------------------------------------
 BYTE   W96
//  #12 //024   ----------------------------------------
 BYTE   W96
//  #12 //025   ----------------------------------------
 BYTE   W96
//  #12 //026   ----------------------------------------
 BYTE   W96
//  #12 //027   ----------------------------------------
 BYTE   W96
//  #12 //028   ----------------------------------------
 BYTE   W96
//  #12 //029   ----------------------------------------
 BYTE   W96
//  #12 //030   ----------------------------------------
 BYTE   W96
//  #12 //031   ----------------------------------------
 BYTE   W96
//  #12 //032   ----------------------------------------
 BYTE   W96
//  #12 //033   ----------------------------------------
 BYTE   W96
//  #12 //034   ----------------------------------------
 BYTE   W96
//  #12 //035   ----------------------------------------
 BYTE   W96
//  #12 //036   ----------------------------------------
 BYTE   W96
//  #12 //037   ----------------------------------------
 BYTE   W96
//  #12 //038   ----------------------------------------
 BYTE   W96
//  #12 //039   ----------------------------------------
 BYTE   W96
//  #12 //040   ----------------------------------------
 BYTE   W96
//  #12 //041   ----------------------------------------
 BYTE   W96
//  #12 //042   ----------------------------------------
 BYTE   W96
//  #12 //043   ----------------------------------------
 BYTE   W96
//  #12 //044   ----------------------------------------
 BYTE   W96
//  #12 //045   ----------------------------------------
 BYTE   W96
//  #12 //046   ----------------------------------------
 BYTE   W96
//  #12 //047   ----------------------------------------
 BYTE   W96
//  #12 //048   ----------------------------------------
 BYTE   W96
//  #12 //049   ----------------------------------------
 BYTE   W96
//  #12 //050   ----------------------------------------
 BYTE   W96
//  #12 //051   ----------------------------------------
 BYTE   W96
//  #12 //052   ----------------------------------------
 BYTE   W96
//  #12 //053   ----------------------------------------
 BYTE   W96
//  #12 //054   ----------------------------------------
 BYTE   VOL   50*DraculaCastle_mvl/mxv
 BYTE   N06  An2  v040
 BYTE   W03
 BYTE   Gs2
 BYTE   W06
 BYTE   Gn2
 BYTE   W05
 BYTE   Fs2
 BYTE   W06
 BYTE   Fn2
 BYTE   W06
 BYTE   En2
 BYTE   W06
 BYTE   Ds2
 BYTE   W05
 BYTE   N04  En2
 BYTE   W04
 BYTE   Fn2
 BYTE   W04
 BYTE   Fs2
 BYTE   W04
 BYTE   Gn2
 BYTE   W04
 BYTE   Gs2
 BYTE   W03
 BYTE   An2
 BYTE   W04
 BYTE   As2
 BYTE   W04
 BYTE   Bn2
 BYTE   W03
 BYTE   Cn3
 BYTE   W04
 BYTE   Cs3
 BYTE   W04
 BYTE   Dn3
 BYTE   W05
 BYTE   Ds3  v032
 BYTE   W03
 BYTE   En3
 BYTE   W04
 BYTE   Fn3
 BYTE   W04
 BYTE   Fs3
 BYTE   W05
//  #12 //055   ----------------------------------------
 BYTE   VOL   27*DraculaCastle_mvl/mxv
 BYTE   W96
//  #12 //056   ----------------------------------------
 BYTE   W96
//  #12 //057   ----------------------------------------
 BYTE   W96
//  #12 //058   ----------------------------------------
 BYTE   W96
//  #12 //059   ----------------------------------------
 BYTE   GoTo
  POIN2 Label_01007F68
//  #12 //060   ----------------------------------------
 BYTE   PAN   c_v-26
 BYTE   W96
 BYTE   FINE

//******************************************************//
	ALIGN 4

DraculaCastle:
	BYTE	12	// NumTrks
	BYTE	0	// NumBlks
	BYTE	DraculaCastle_pri	// Priority
	BYTE	DraculaCastle_rev	// Reverb.
    
	POIN2	DraculaCastle_grp
    
	POIN2	DraculaCastle_001
	POIN2	DraculaCastle_002
	POIN2	DraculaCastle_003
	POIN2	DraculaCastle_004
	POIN2	DraculaCastle_005
	POIN2	DraculaCastle_006
	POIN2	DraculaCastle_007
	POIN2	DraculaCastle_008
	POIN2	DraculaCastle_009
	POIN2	DraculaCastle_010
	POIN2	DraculaCastle_011
	POIN2	DraculaCastle_012

	
