//Event file generated from Sappy .s format.
	#include "MPlayDef.event"

	#define	DragonsGateII_grp  voicegroup000
	#define	DragonsGateII_pri  0
	#define	DragonsGateII_rev  101
	#define	DragonsGateII_mvl  127
	#define	DragonsGateII_key  0
	#define	DragonsGateII_tbs  1
	#define	DragonsGateII_exg  0
	#define	DragonsGateII_cmp  1

	// .rodata
	//	DragonsGateII
	ALIGN 4


//**************** Track 1 (Midi-Chn.0) ****************//

DragonsGateII_001:
//  #01 //000   ----------------------------------------
 BYTE   KEYSH   DragonsGateII_key+0
Label_013E3906:
 BYTE   TEMPO   74*DragonsGateII_tbs/2
 BYTE   VOICE   47
 BYTE   MODT 0
 BYTE   LFOS 44
 BYTE   VOL   33*DragonsGateII_mvl/mxv
 BYTE   MODT 0
 BYTE   LFOS 44
 BYTE   PAN   c_v-4
 BYTE   N05  Gs2  v104
 BYTE   W06
 BYTE   N11  En2  v088
 BYTE   W12
 BYTE   En2  v104
 BYTE   W12
 BYTE   N05  En2  v092
 BYTE   W06
 BYTE   N11  Gs2  v127
 BYTE   W12
 BYTE   N21  En2  v112
 BYTE   W24
 BYTE   N05  Gs2  v124
 BYTE   W06
 BYTE   N11  En2  v088
 BYTE   W12
 BYTE   En2  v112
 BYTE   W12
//  #01 //001   ----------------------------------------
 BYTE   N05  En2  v104
 BYTE   W06
 BYTE   N11  Gs2  v127
 BYTE   W12
 BYTE   N21  En2
 BYTE   W24
Label_013E3943:
 BYTE   N05  Gs2  v127
 BYTE   W06
 BYTE   N11  En2  v112
 BYTE   W12
 BYTE   En2  v127
 BYTE   W12
 BYTE   N05  En2  v112
 BYTE   W06
 BYTE   N11  Gs2  v127
 BYTE   W12
 BYTE   N20  En2  v124
 BYTE   W24
//  #01 //002   ----------------------------------------
 BYTE   N05  Gs2  v127
 BYTE   W06
 BYTE   N11  En2  v104
 BYTE   W12
 BYTE   En2  v127
 BYTE   W12
 BYTE   N05
 BYTE   W06
 BYTE   N11  Gs2
 BYTE   W12
 BYTE   N05
 BYTE   W06
 BYTE   En2  v104
 BYTE   W06
 BYTE   Gs2  v092
 BYTE   W06
 BYTE   En2  v127
 BYTE   W06
 BYTE   PEND 
Label_013E3976:
 BYTE   N05  Gs2  v104
 BYTE   W06
 BYTE   N11  En2  v088
 BYTE   W12
 BYTE   En2  v104
 BYTE   W12
//  #01 //003   ----------------------------------------
 BYTE   N05  En2  v092
 BYTE   W06
 BYTE   N11  Gs2  v127
 BYTE   W12
 BYTE   N21  En2  v112
 BYTE   W24
 BYTE   N05  Gs2  v124
 BYTE   W06
 BYTE   N11  En2  v088
 BYTE   W12
 BYTE   En2  v112
 BYTE   W12
 BYTE   N05  En2  v104
 BYTE   W06
 BYTE   N11  Gs2  v127
 BYTE   W12
 BYTE   N21  En2
 BYTE   W24
 BYTE   PEND 
//  #01 //004   ----------------------------------------
 BYTE   PATT
  POIN2 Label_013E3943
//  #01 //005   ----------------------------------------
 BYTE   PATT
  POIN2 Label_013E3976
//  #01 //006   ----------------------------------------
 BYTE   PATT
  POIN2 Label_013E3943
//  #01 //007   ----------------------------------------
 BYTE   PATT
  POIN2 Label_013E3976
//  #01 //008   ----------------------------------------
 BYTE   PATT
  POIN2 Label_013E3943
//  #01 //009   ----------------------------------------
 BYTE   PATT
  POIN2 Label_013E3976
//  #01 //010   ----------------------------------------
 BYTE   PATT
  POIN2 Label_013E3943
//  #01 //011   ----------------------------------------
 BYTE   PATT
  POIN2 Label_013E3976
//  #01 //012   ----------------------------------------
 BYTE   PATT
  POIN2 Label_013E3943
//  #01 //013   ----------------------------------------
 BYTE   PATT
  POIN2 Label_013E3976
//  #01 //014   ----------------------------------------
 BYTE   PATT
  POIN2 Label_013E3943
//  #01 //015   ----------------------------------------
 BYTE   PATT
  POIN2 Label_013E3976
//  #01 //016   ----------------------------------------
 BYTE   PATT
  POIN2 Label_013E3943
//  #01 //017   ----------------------------------------
 BYTE   PATT
  POIN2 Label_013E3976
//  #01 //018   ----------------------------------------
 BYTE   PATT
  POIN2 Label_013E3943
//  #01 //019   ----------------------------------------
 BYTE   N05  Gs2  v104
 BYTE   W06
 BYTE   N11  En2  v088
 BYTE   W12
 BYTE   En2  v104
 BYTE   W12
 BYTE   N05  En2  v092
 BYTE   W06
 BYTE   N11  Gs2  v127
 BYTE   W12
 BYTE   N21  En2  v112
 BYTE   W24
 BYTE   N05  Gs2  v124
 BYTE   W06
 BYTE   N11  En2  v088
 BYTE   W12
 BYTE   En2  v112
 BYTE   W12
//  #01 //020   ----------------------------------------
 BYTE   N05  En2  v104
 BYTE   W06
 BYTE   N11  Gs2  v127
 BYTE   W12
 BYTE   N21  En2
 BYTE   W23
 BYTE   TEMPO   74*DragonsGateII_tbs/2
 BYTE   VOICE   47
 BYTE   MODT 0
 BYTE   LFOS 44
 BYTE   PAN   c_v-4
 BYTE   W01
 BYTE   GoTo
  POIN2 Label_013E3906
 BYTE   FINE

//**************** Track 2 (Midi-Chn.1) ****************//

DragonsGateII_002:
//  #02 //000   ----------------------------------------
 BYTE   KEYSH   DragonsGateII_key+0
Label_013E317E:
 BYTE   VOICE   48
 BYTE   MODT 0
 BYTE   LFOS 44
 BYTE   VOL   51*DragonsGateII_mvl/mxv
 BYTE   MODT 0
 BYTE   LFOS 44
 BYTE   PAN   c_v+13
 BYTE   N56  Cn3  v060
 BYTE   N56  Fn3  v088
 BYTE   W60
 BYTE   N11  Fn3  v004
 BYTE   W12
 BYTE   N56  As2  v060
 BYTE   N56  Ds3  v088
 BYTE   W60
//  #02 //001   ----------------------------------------
 BYTE   N11  Ds3  v004
 BYTE   W12
 BYTE   N56  As2  v060
 BYTE   N56  Cs3  v088
 BYTE   W60
 BYTE   N11  Cs3  v004
 BYTE   W12
 BYTE   N56  As2  v060
 BYTE   N56  Cn3  v088
 BYTE   W60
//  #02 //002   ----------------------------------------
 BYTE   N11  Cn3  v004
 BYTE   W12
 BYTE   TIE  Gs2  v060
 BYTE   TIE  Bn2  v088
 BYTE   W96
//  #02 //003   ----------------------------------------
 BYTE   W32
 BYTE   W03
 BYTE   EOT
 BYTE   Gs2  v059
 BYTE   W01
 BYTE   N11  Bn2  v004
 BYTE   W12
 BYTE   TIE  Gs2  v060
 BYTE   TIE  Cn3  v088
 BYTE   W96
//  #02 //004   ----------------------------------------
 BYTE   W32
 BYTE   W03
 BYTE   EOT
 BYTE   Gs2  v060
 BYTE   W01
 BYTE   N11  Cn3  v004
 BYTE   W12
 BYTE   TIE  Gs2  v060
 BYTE   TIE  Bn2  v032
 BYTE   TIE  Dn3  v088
 BYTE   W96
//  #02 //005   ----------------------------------------
 BYTE   W32
 BYTE   W03
 BYTE   EOT
 BYTE   Gs2  v059
 BYTE   Dn3
 BYTE   W01
 BYTE   N11  Dn3  v004
 BYTE   W12
 BYTE   N68  Gs2  v060
 BYTE   N68  Cn3  v088
 BYTE   W72
//  #02 //006   ----------------------------------------
 BYTE   N11  Cn3  v004
 BYTE   W72
 BYTE   W96
//  #02 //007   ----------------------------------------
 BYTE   W48
 BYTE   W96
//  #02 //008   ----------------------------------------
 BYTE   W48
 BYTE   W96
//  #02 //009   ----------------------------------------
 BYTE   W48
 BYTE   W96
//  #02 //010   ----------------------------------------
 BYTE   W48
 BYTE   W96
//  #02 //011   ----------------------------------------
 BYTE   W48
 BYTE   W96
//  #02 //012   ----------------------------------------
 BYTE   W48
 BYTE   W96
//  #02 //013   ----------------------------------------
 BYTE   W48
 BYTE   W96
//  #02 //014   ----------------------------------------
 BYTE   W48
 BYTE   W96
//  #02 //015   ----------------------------------------
 BYTE   W48
 BYTE   W96
//  #02 //016   ----------------------------------------
 BYTE   W48
 BYTE   N52  As3  v072
 BYTE   W54
//  #02 //017   ----------------------------------------
 BYTE   N05  As3  v004
 BYTE   W06
 BYTE   N11  Gs3  v056
 BYTE   W12
 BYTE   N28  As3  v072
 BYTE   W30
 BYTE   N05  As3  v004
 BYTE   W06
 BYTE   N28  Cs4  v052
 BYTE   W30
 BYTE   N05  Cs4  v004
 BYTE   W06
 BYTE   N52  As3  v056
 BYTE   W54
//  #02 //018   ----------------------------------------
 BYTE   N05  As3  v004
 BYTE   W06
 BYTE   N11  Gs3  v036
 BYTE   W12
 BYTE   N28  As3  v072
 BYTE   W30
 BYTE   N05  As3  v004
 BYTE   W06
 BYTE   N28  Fn4  v072
 BYTE   W30
 BYTE   N05  Fn4  v004
 BYTE   W06
 BYTE   N64  Ds4  v072
 BYTE   W66
//  #02 //019   ----------------------------------------
 BYTE   N05  Ds4  v004
 BYTE   W76
 BYTE   W01
 BYTE   MODT 0
 BYTE   LFOS 44
 BYTE   PAN   c_v+13
 BYTE   W01
 BYTE   GoTo
  POIN2 Label_013E317E
 BYTE   FINE

//**************** Track 3 (Midi-Chn.2) ****************//

DragonsGateII_003:
//  #03 //000   ----------------------------------------
 BYTE   KEYSH   DragonsGateII_key+0
Label_013E329A:
 BYTE   VOICE   36
 BYTE   MODT 0
 BYTE   LFOS 44
 BYTE   VOL   33*DragonsGateII_mvl/mxv
 BYTE   MODT 0
 BYTE   LFOS 44
 BYTE   PAN   c_v+0
 BYTE   N08  Fn2  v104
 BYTE   W09
 BYTE   N02  Fn2  v004
 BYTE   W03
 BYTE   N05  Fn2  v104
 BYTE   W06
 BYTE   N05
 BYTE   W06
 BYTE   N05
 BYTE   W06
 BYTE   N02  Fn2  v004
 BYTE   W06
 BYTE   N05  Fn2  v104
 BYTE   W06
 BYTE   N02  Fn2  v004
 BYTE   W06
 BYTE   N05  Fn2  v104
 BYTE   W06
 BYTE   N02  Fn2  v004
 BYTE   W18
 BYTE   N08  Fn2  v104
 BYTE   W12
 BYTE   N05
 BYTE   W06
 BYTE   N05
 BYTE   W06
//  #03 //001   ----------------------------------------
 BYTE   N08
 BYTE   W12
 BYTE   N08
 BYTE   W12
 BYTE   N09
 BYTE   W24
Label_013E32DA:
 BYTE   N06  Fn2  v104
 BYTE   W12
 BYTE   N05
 BYTE   W06
 BYTE   N05
 BYTE   W06
 BYTE   N08
 BYTE   W12
 BYTE   N08
 BYTE   W12
//  #03 //002   ----------------------------------------
 BYTE   N09
 BYTE   W24
 BYTE   N08
 BYTE   W12
 BYTE   N05
 BYTE   W06
 BYTE   N05
 BYTE   W06
 BYTE   N07
 BYTE   W12
 BYTE   N07
 BYTE   W12
 BYTE   N10
 BYTE   W24
 BYTE   PEND 
//  #03 //003   ----------------------------------------
Label_013E32F5:
 BYTE   N10  Fn2  v104
 BYTE   W12
 BYTE   N05
 BYTE   W06
 BYTE   N05
 BYTE   W06
 BYTE   N09
 BYTE   W12
 BYTE   N09
 BYTE   W12
 BYTE   N10
 BYTE   W24
 BYTE   N08
 BYTE   W12
 BYTE   N05
 BYTE   W06
 BYTE   N05
 BYTE   W06
//  #03 //004   ----------------------------------------
 BYTE   N08
 BYTE   W12
 BYTE   N08
 BYTE   W12
 BYTE   N09
 BYTE   W24
 BYTE   PEND 
//  #03 //005   ----------------------------------------
 BYTE   PATT
  POIN2 Label_013E32DA
//  #03 //006   ----------------------------------------
 BYTE   PATT
  POIN2 Label_013E32F5
//  #03 //007   ----------------------------------------
 BYTE   PATT
  POIN2 Label_013E32DA
//  #03 //008   ----------------------------------------
 BYTE   PATT
  POIN2 Label_013E32F5
//  #03 //009   ----------------------------------------
 BYTE   PATT
  POIN2 Label_013E32DA
//  #03 //010   ----------------------------------------
 BYTE   N09  Cs2  v104
 BYTE   W12
 BYTE   N05
 BYTE   W06
 BYTE   N05
 BYTE   W06
 BYTE   N08
 BYTE   W12
 BYTE   N08
 BYTE   W12
 BYTE   N10
 BYTE   W24
 BYTE   N08
 BYTE   W12
 BYTE   N04
 BYTE   W06
 BYTE   N05
 BYTE   W06
//  #03 //011   ----------------------------------------
 BYTE   N07
 BYTE   W12
 BYTE   N08
 BYTE   W12
 BYTE   N09
 BYTE   W24
 BYTE   N07  Cn2
 BYTE   W12
 BYTE   N04
 BYTE   W06
 BYTE   N05
 BYTE   W06
 BYTE   N07
 BYTE   W12
 BYTE   N08
 BYTE   W12
//  #03 //012   ----------------------------------------
 BYTE   N09
 BYTE   W24
 BYTE   N08
 BYTE   W12
 BYTE   N04
 BYTE   W06
 BYTE   N05
 BYTE   W06
 BYTE   N07
 BYTE   W12
 BYTE   N07
 BYTE   W12
 BYTE   N08
 BYTE   W24
//  #03 //013   ----------------------------------------
 BYTE   Cs2
 BYTE   W12
 BYTE   N05
 BYTE   W06
 BYTE   N05
 BYTE   W06
 BYTE   N06
 BYTE   W12
 BYTE   N07
 BYTE   W12
 BYTE   N08
 BYTE   W24
 BYTE   N07
 BYTE   W12
 BYTE   N04
 BYTE   W06
 BYTE   N05
 BYTE   W06
//  #03 //014   ----------------------------------------
 BYTE   N06
 BYTE   W12
 BYTE   N07
 BYTE   W12
 BYTE   N08
 BYTE   W24
 BYTE   N07  Ds2
 BYTE   W12
 BYTE   N05
 BYTE   W06
 BYTE   N05
 BYTE   W06
 BYTE   N07
 BYTE   W12
 BYTE   N07
 BYTE   W12
//  #03 //015   ----------------------------------------
 BYTE   N08
 BYTE   W24
 BYTE   N06
 BYTE   W12
 BYTE   N05
 BYTE   W06
 BYTE   N05
 BYTE   W06
 BYTE   N07
 BYTE   W12
 BYTE   N07
 BYTE   W12
 BYTE   N07
 BYTE   W24
//  #03 //016   ----------------------------------------
 BYTE   N30  Fn2
 BYTE   W36
 BYTE   N05
 BYTE   W12
 BYTE   N08
 BYTE   W24
 BYTE   N28
 BYTE   W30
//  #03 //017   ----------------------------------------
 BYTE   N05
 BYTE   W06
 BYTE   N07
 BYTE   W12
 BYTE   N08
 BYTE   W24
 BYTE   N28
 BYTE   W30
 BYTE   N05
 BYTE   W06
 BYTE   N07
 BYTE   W12
 BYTE   N08
 BYTE   W24
//  #03 //018   ----------------------------------------
 BYTE   N28
 BYTE   W30
 BYTE   N05
 BYTE   W06
 BYTE   N08
 BYTE   W12
 BYTE   N09
 BYTE   W24
 BYTE   N28
 BYTE   W30
//  #03 //019   ----------------------------------------
 BYTE   N05
 BYTE   W06
 BYTE   N08
 BYTE   W12
 BYTE   N09
 BYTE   W24
 BYTE   N28
 BYTE   W30
 BYTE   N05
 BYTE   W06
 BYTE   N08
 BYTE   W12
 BYTE   N09
 BYTE   W24
//  #03 //020   ----------------------------------------
 BYTE   N28
 BYTE   W30
 BYTE   N05
 BYTE   W06
 BYTE   N08
 BYTE   W12
 BYTE   N08
 BYTE   W24
 BYTE   N28
 BYTE   W30
//  #03 //021   ----------------------------------------
 BYTE   N05
 BYTE   W06
 BYTE   N07
 BYTE   W12
 BYTE   N08
 BYTE   W12
 BYTE   N06
 BYTE   W12
 BYTE   N09  Ds2
 BYTE   W12
 BYTE   N05
 BYTE   W06
 BYTE   N05
 BYTE   W06
 BYTE   N08
 BYTE   W12
 BYTE   N08
 BYTE   W12
 BYTE   N10
 BYTE   W24
//  #03 //022   ----------------------------------------
 BYTE   N08
 BYTE   W12
 BYTE   N04
 BYTE   W06
 BYTE   N05
 BYTE   W06
 BYTE   N07
 BYTE   W12
 BYTE   N08
 BYTE   W12
 BYTE   N09
 BYTE   W24
 BYTE   N07
 BYTE   W12
 BYTE   N04
 BYTE   W06
 BYTE   N05
 BYTE   W06
//  #03 //023   ----------------------------------------
 BYTE   N07
 BYTE   W12
 BYTE   N08
 BYTE   W12
 BYTE   N09
 BYTE   W24
 BYTE   N08
 BYTE   W12
 BYTE   N04
 BYTE   W06
 BYTE   N05
 BYTE   W06
 BYTE   N07
 BYTE   W12
 BYTE   N07
 BYTE   W12
//  #03 //024   ----------------------------------------
 BYTE   N08
 BYTE   W24
 BYTE   N07
 BYTE   W12
 BYTE   N04
 BYTE   W06
 BYTE   N05
 BYTE   W06
 BYTE   N07
 BYTE   W12
 BYTE   N08
 BYTE   W12
 BYTE   N09
 BYTE   W24
//  #03 //025   ----------------------------------------
 BYTE   N08
 BYTE   W12
 BYTE   N04
 BYTE   W06
 BYTE   N05
 BYTE   W06
 BYTE   N07
 BYTE   W12
 BYTE   N07
 BYTE   W12
 BYTE   N08
 BYTE   W23
 BYTE   VOICE   52
 BYTE   MODT 0
 BYTE   LFOS 44
 BYTE   PAN   c_v+0
 BYTE   W01
 BYTE   GoTo
  POIN2 Label_013E329A
 BYTE   FINE

//**************** Track 4 (Midi-Chn.3) ****************//

DragonsGateII_004:
//  #04 //000   ----------------------------------------
 BYTE   KEYSH   DragonsGateII_key+0
Label_013E367A:
 BYTE   VOICE   19
 BYTE   MODT 0
 BYTE   LFOS 44
 BYTE   VOL   38*DragonsGateII_mvl/mxv
 BYTE   MODT 0
 BYTE   LFOS 44
 BYTE   PAN   c_v+6
 BYTE   N68  Fn3  v072
 BYTE   W72
 BYTE   N68
 BYTE   W72
//  #04 //001   ----------------------------------------
 BYTE   N68
 BYTE   W72
 BYTE   N66
 BYTE   W72
//  #04 //002   ----------------------------------------
Label_013E3692:
 BYTE   TIE  Fn3  v072
 BYTE   W96
//  #04 //003   ----------------------------------------
 BYTE   W40
 BYTE   W01
 BYTE   PEND 
 BYTE   EOT
 BYTE   W07
 BYTE   TIE  Ds3
 BYTE   W96
//  #04 //004   ----------------------------------------
 BYTE   W36
 BYTE   W02
 BYTE   EOT
 BYTE   W10
//  #04 //005   ----------------------------------------
 BYTE   PATT
  POIN2 Label_013E3692
//  #04 //006   ----------------------------------------
 BYTE   EOT
 BYTE   Fn3
 BYTE   W07
 BYTE   TIE  Ds3  v072
 BYTE   W96
//  #04 //007   ----------------------------------------
 BYTE   W08
 BYTE   EOT
 BYTE   W04
 BYTE   N05  Fn2
 BYTE   W06
 BYTE   Gn2
 BYTE   W06
 BYTE   Gs2
 BYTE   W06
 BYTE   As2
 BYTE   W06
 BYTE   Cn3
 BYTE   W06
 BYTE   N04  Cs3
 BYTE   W06
 BYTE   VOICE   60
 BYTE   N40  Ds4
 BYTE   W42
 BYTE   N05  Ds4  v004
 BYTE   W18
//  #04 //008   ----------------------------------------
 BYTE   Cs4  v072
 BYTE   W12
 BYTE   N44  Cn4
 BYTE   W54
 BYTE   N05  Cn4  v004
 BYTE   W06
 BYTE   Fn4  v072
 BYTE   W12
 BYTE   N52  Gs4
 BYTE   W54
//  #04 //009   ----------------------------------------
 BYTE   N05  Gs4  v004
 BYTE   W18
 BYTE   N30  Gn4  v072
 BYTE   W30
 BYTE   N05  Gn4  v004
 BYTE   W06
 BYTE   VOICE   50
 BYTE   N05  Fn2  v072
 BYTE   W06
 BYTE   Gn2
 BYTE   W06
 BYTE   Gs2
 BYTE   W06
 BYTE   As2
 BYTE   W06
 BYTE   Cn3
 BYTE   W06
 BYTE   N04  Cs3
 BYTE   W06
 BYTE   N60  Ds3
 BYTE   W72
//  #04 //010   ----------------------------------------
 BYTE   VOICE   102
 BYTE   PAN   c_v+16
 BYTE   N05  Cs4  v092
 BYTE   W12
 BYTE   N02  Cs4  v104
 BYTE   W06
 BYTE   Cs4  v076
 BYTE   W06
 BYTE   N04  Cs4  v092
 BYTE   W12
 BYTE   N05
 BYTE   W12
 BYTE   N06  Cs4  v104
 BYTE   W24
 BYTE   N04  Cn4  v124
 BYTE   W12
 BYTE   N02  Cn4  v104
 BYTE   W06
 BYTE   Cn4  v112
 BYTE   W06
//  #04 //011   ----------------------------------------
 BYTE   N04  Cn4  v127
 BYTE   W12
 BYTE   N06  Cn4  v124
 BYTE   W12
 BYTE   N07
 BYTE   W24
 BYTE   N05
 BYTE   W12
 BYTE   N01
 BYTE   W06
 BYTE   N02  Cn4  v112
 BYTE   W06
 BYTE   N04
 BYTE   W12
 BYTE   N05  Cn4  v124
 BYTE   W12
//  #04 //012   ----------------------------------------
 BYTE   Cn4  v127
 BYTE   W24
 BYTE   N06  Cs4  v092
 BYTE   W12
 BYTE   N02
 BYTE   W06
 BYTE   Cs4  v076
 BYTE   W06
 BYTE   N03
 BYTE   W12
 BYTE   N04  Cs4  v092
 BYTE   W12
 BYTE   N05
 BYTE   W24
//  #04 //013   ----------------------------------------
 BYTE   N04
 BYTE   W12
 BYTE   N01
 BYTE   W06
 BYTE   N02  Cs4  v076
 BYTE   W06
 BYTE   N03  Cs4  v092
 BYTE   W12
 BYTE   N04
 BYTE   W12
 BYTE   N05  Cs4  v104
 BYTE   W24
 BYTE   N04  Ds4  v112
 BYTE   W12
 BYTE   N02  Ds4  v124
 BYTE   W06
 BYTE   N02
 BYTE   W06
//  #04 //014   ----------------------------------------
 BYTE   N04
 BYTE   W12
 BYTE   N05
 BYTE   W12
 BYTE   Ds4  v127
 BYTE   W24
 BYTE   N03  Ds4  v124
 BYTE   W12
 BYTE   N02
 BYTE   W06
 BYTE   N03  Ds4  v076
 BYTE   W06
 BYTE   N05  Ds4  v127
 BYTE   W12
 BYTE   N04  Ds4  v104
 BYTE   W12
//  #04 //015   ----------------------------------------
 BYTE   Ds4  v124
 BYTE   W24
 BYTE   N28  Fn4  v104
 BYTE   W30
 BYTE   N05  Fn4  v004
 BYTE   W06
 BYTE   Fn4  v104
 BYTE   W06
 BYTE   Fn4  v004
 BYTE   W06
 BYTE   Fn4  v104
 BYTE   W06
 BYTE   Fn4  v004
 BYTE   W18
//  #04 //016   ----------------------------------------
 BYTE   N23  Fn4  v104
 BYTE   W24
 BYTE   N05  Fn4  v004
 BYTE   W06
 BYTE   N03  Fn4  v112
 BYTE   W06
 BYTE   N04  Fn4  v124
 BYTE   W06
 BYTE   N05  Fn4  v004
 BYTE   W06
 BYTE   Fn4  v127
 BYTE   W06
 BYTE   Fn4  v004
 BYTE   W18
 BYTE   N23  Fn4  v127
 BYTE   W24
//  #04 //017   ----------------------------------------
 BYTE   N05  Fn4  v004
 BYTE   W06
 BYTE   N03  Fn4  v104
 BYTE   W06
 BYTE   N05  Fn4  v112
 BYTE   W06
 BYTE   Fn4  v004
 BYTE   W06
 BYTE   Fn4  v124
 BYTE   W06
 BYTE   Fn4  v004
 BYTE   W18
 BYTE   N23  Fn4  v124
 BYTE   W24
 BYTE   N05  Fn4  v004
 BYTE   W06
 BYTE   N03  Fn4  v124
 BYTE   W06
 BYTE   N05  Fn4  v112
 BYTE   W06
 BYTE   Fn4  v004
 BYTE   W06
//  #04 //018   ----------------------------------------
 BYTE   Fn4  v124
 BYTE   W06
 BYTE   Fn4  v004
 BYTE   W18
 BYTE   N23  Fn4  v092
 BYTE   W24
 BYTE   N05  Fn4  v004
 BYTE   W06
 BYTE   N03  Fn4  v112
 BYTE   W06
 BYTE   N05  Fn4  v104
 BYTE   W06
 BYTE   Fn4  v004
 BYTE   W06
 BYTE   Fn4  v127
 BYTE   W06
 BYTE   Fn4  v004
 BYTE   W18
//  #04 //019   ----------------------------------------
 BYTE   N23  Fn4  v127
 BYTE   W24
 BYTE   N05  Fn4  v004
 BYTE   W06
 BYTE   N02  Fn4  v124
 BYTE   W06
 BYTE   N05  Fn4  v104
 BYTE   W06
 BYTE   Fn4  v004
 BYTE   W06
 BYTE   Fn4  v124
 BYTE   W06
 BYTE   Fn4  v004
 BYTE   W18
 BYTE   N23  Fn4  v127
 BYTE   W24
//  #04 //020   ----------------------------------------
 BYTE   N05  Fn4  v004
 BYTE   W06
 BYTE   N03  Fn4  v092
 BYTE   W06
 BYTE   N05  Fn4  v104
 BYTE   W06
 BYTE   Fn4  v004
 BYTE   W06
 BYTE   Fn4  v127
 BYTE   W06
 BYTE   Fn4  v004
 BYTE   W18
 BYTE   N23  Fn4  v124
 BYTE   W24
 BYTE   N05  Fn4  v004
 BYTE   W06
 BYTE   N04  Fn4  v092
 BYTE   W06
 BYTE   Fn4  v104
 BYTE   W06
 BYTE   N05  Fn4  v004
 BYTE   W06
//  #04 //021   ----------------------------------------
 BYTE   Fn4  v112
 BYTE   W06
 BYTE   Fn4  v004
 BYTE   W06
 BYTE   N04  Fn4  v127
 BYTE   W06
 BYTE   N05  Fn4  v004
 BYTE   W06
 BYTE   N06  Ds4  v088
 BYTE   W12
 BYTE   N02  Ds4  v092
 BYTE   W06
 BYTE   Ds4  v076
 BYTE   W06
 BYTE   N05  Ds4  v092
 BYTE   W12
 BYTE   N05
 BYTE   W12
 BYTE   N07  Ds4  v104
 BYTE   W24
//  #04 //022   ----------------------------------------
 BYTE   N05  Ds4  v092
 BYTE   W12
 BYTE   N02  Ds4  v104
 BYTE   W06
 BYTE   Ds4  v076
 BYTE   W06
 BYTE   N04  Ds4  v092
 BYTE   W12
 BYTE   N05
 BYTE   W12
 BYTE   N06  Ds4  v104
 BYTE   W24
 BYTE   N04  Ds4  v124
 BYTE   W12
 BYTE   N02  Ds4  v104
 BYTE   W06
 BYTE   Ds4  v112
 BYTE   W06
//  #04 //023   ----------------------------------------
 BYTE   N04  Ds4  v127
 BYTE   W12
 BYTE   N06  Ds4  v124
 BYTE   W12
 BYTE   N07
 BYTE   W24
 BYTE   N05
 BYTE   W12
 BYTE   N01
 BYTE   W06
 BYTE   N02  Ds4  v112
 BYTE   W06
 BYTE   N04
 BYTE   W12
 BYTE   N05  Ds4  v124
 BYTE   W12
//  #04 //024   ----------------------------------------
 BYTE   Ds4  v127
 BYTE   W24
 BYTE   N04  Ds4  v124
 BYTE   W12
 BYTE   N02  Ds4  v104
 BYTE   W06
 BYTE   Ds4  v112
 BYTE   W06
 BYTE   N04  Ds4  v127
 BYTE   W12
 BYTE   N06  Ds4  v124
 BYTE   W12
 BYTE   N07
 BYTE   W24
//  #04 //025   ----------------------------------------
 BYTE   N05
 BYTE   W12
 BYTE   N01
 BYTE   W06
 BYTE   N02  Ds4  v112
 BYTE   W06
 BYTE   N04
 BYTE   W12
 BYTE   N05  Ds4  v124
 BYTE   W12
 BYTE   Ds4  v127
 BYTE   W23
 BYTE   VOICE   50
 BYTE   MODT 0
 BYTE   LFOS 44
 BYTE   PAN   c_v+6
 BYTE   W01
 BYTE   GoTo
  POIN2 Label_013E367A
 BYTE   FINE

//**************** Track 5 (Midi-Chn.4) ****************//

DragonsGateII_005:
//  #05 //000   ----------------------------------------
 BYTE   KEYSH   DragonsGateII_key+0
Label_0149DE66:
 BYTE   VOICE   6
 BYTE   MODT 0
 BYTE   LFOS 44
 BYTE   VOL   55*DragonsGateII_mvl/mxv
 BYTE   MODT 0
 BYTE   LFOS 44
 BYTE   PAN   c_v-11
 BYTE   N05  Fn3  v056
 BYTE   W06
 BYTE   Cn3
 BYTE   W06
 BYTE   As2
 BYTE   W06
 BYTE   Cn3
 BYTE   W06
 BYTE   Gs2
 BYTE   W06
 BYTE   Cn3
 BYTE   W06
 BYTE   Gn2
 BYTE   W06
 BYTE   Cn3
 BYTE   W06
 BYTE   Gs2
 BYTE   W06
 BYTE   Cn3
 BYTE   W06
 BYTE   Fn2
 BYTE   W06
 BYTE   Cn3
 BYTE   W06
 BYTE   Fn3
 BYTE   W06
 BYTE   Cn3
 BYTE   W06
 BYTE   As2
 BYTE   W06
 BYTE   Cn3
 BYTE   W06
//  #05 //001   ----------------------------------------
 BYTE   Gs2
 BYTE   W06
 BYTE   Cn3
 BYTE   W06
 BYTE   Gn2
 BYTE   W06
 BYTE   Cn3
 BYTE   W06
 BYTE   Gs2
 BYTE   W06
 BYTE   Cn3
 BYTE   W06
 BYTE   Fn2
 BYTE   W06
 BYTE   Cn3
 BYTE   W06
Label_0149DEA6:
 BYTE   N05  Fn3  v056
 BYTE   W06
 BYTE   Cn3
 BYTE   W06
 BYTE   As2
 BYTE   W06
 BYTE   Cn3
 BYTE   W06
 BYTE   Gs2
 BYTE   W06
 BYTE   Cn3
 BYTE   W06
 BYTE   Gn2
 BYTE   W06
 BYTE   Cn3
 BYTE   W06
//  #05 //002   ----------------------------------------
 BYTE   Gs2
 BYTE   W06
 BYTE   Cn3
 BYTE   W06
 BYTE   Fn2
 BYTE   W06
 BYTE   Cn3
 BYTE   W06
 BYTE   Fn3
 BYTE   W06
 BYTE   Cn3
 BYTE   W06
 BYTE   As2
 BYTE   W06
 BYTE   Cn3
 BYTE   W06
 BYTE   Gs2
 BYTE   W06
 BYTE   Cn3
 BYTE   W06
 BYTE   Gn2
 BYTE   W06
 BYTE   Gn3
 BYTE   W06
 BYTE   Gs2
 BYTE   W06
 BYTE   Gn2
 BYTE   W06
 BYTE   Gs2
 BYTE   W06
 BYTE   As2
 BYTE   W06
 BYTE   PEND 
//  #05 //003   ----------------------------------------
Label_0149DED9:
 BYTE   N05  Fn3  v056
 BYTE   W06
 BYTE   Cn3
 BYTE   W06
 BYTE   As2
 BYTE   W06
 BYTE   Cn3
 BYTE   W06
 BYTE   Gs2
 BYTE   W06
 BYTE   Cn3
 BYTE   W06
 BYTE   Gn2
 BYTE   W06
 BYTE   Cn3
 BYTE   W06
 BYTE   Gs2
 BYTE   W06
 BYTE   Cn3
 BYTE   W06
 BYTE   Fn2
 BYTE   W06
 BYTE   Cn3
 BYTE   W06
 BYTE   Fn3
 BYTE   W06
 BYTE   Cn3
 BYTE   W06
 BYTE   As2
 BYTE   W06
 BYTE   Cn3
 BYTE   W06
//  #05 //004   ----------------------------------------
 BYTE   Gs2
 BYTE   W06
 BYTE   Cn3
 BYTE   W06
 BYTE   Gn2
 BYTE   W06
 BYTE   Cn3
 BYTE   W06
 BYTE   Gs2
 BYTE   W06
 BYTE   Cn3
 BYTE   W06
 BYTE   Fn2
 BYTE   W06
 BYTE   Cn3
 BYTE   W06
 BYTE   PEND 
//  #05 //005   ----------------------------------------
 BYTE   PATT
  POIN2 Label_0149DEA6
//  #05 //006   ----------------------------------------
 BYTE   PATT
  POIN2 Label_0149DED9
//  #05 //007   ----------------------------------------
 BYTE   PATT
  POIN2 Label_0149DEA6
//  #05 //008   ----------------------------------------
Label_0149DF1B:
 BYTE   N22  Fn2  v076
 BYTE   W96
//  #05 //009   ----------------------------------------
 BYTE   W48
 BYTE   PEND 
 BYTE   N05  Ds2  v028
 BYTE   W06
 BYTE   Gs2  v024
 BYTE   W06
 BYTE   As2  v016
 BYTE   W06
 BYTE   Ds2  v028
 BYTE   W06
 BYTE   Gs2  v032
 BYTE   W06
 BYTE   As2  v036
 BYTE   W06
 BYTE   Ds2  v032
 BYTE   W06
 BYTE   Gs2  v028
 BYTE   W06
//  #05 //010   ----------------------------------------
 BYTE   As2  v036
 BYTE   W06
 BYTE   Ds2  v032
 BYTE   W06
 BYTE   Gs2
 BYTE   W06
 BYTE   As2
 BYTE   W06
 BYTE   Ds2  v044
 BYTE   W06
 BYTE   Gs2  v032
 BYTE   W06
 BYTE   As2  v052
 BYTE   W06
 BYTE   Ds2  v016
 BYTE   W06
 BYTE   Gs2  v024
 BYTE   W06
 BYTE   As2  v032
 BYTE   W06
 BYTE   Ds2  v028
 BYTE   W06
 BYTE   Gs2  v024
 BYTE   W06
 BYTE   As2  v032
 BYTE   W06
 BYTE   Ds2
 BYTE   W06
 BYTE   Gs2
 BYTE   W06
 BYTE   As2  v016
 BYTE   W06
//  #05 //011   ----------------------------------------
 BYTE   Ds2  v036
 BYTE   W06
 BYTE   Gs2  v052
 BYTE   W06
 BYTE   As2  v044
 BYTE   W06
 BYTE   Cn3  v056
 BYTE   W06
 BYTE   Ds3
 BYTE   W06
 BYTE   Gs3  v032
 BYTE   W06
 BYTE   Cn4  v056
 BYTE   W06
 BYTE   Gs3  v036
 BYTE   W06
 BYTE   Ds3  v052
 BYTE   W06
 BYTE   Cn3  v024
 BYTE   W06
 BYTE   As2  v056
 BYTE   W06
 BYTE   Gs2  v016
 BYTE   W06
 BYTE   Ds2  v056
 BYTE   W06
 BYTE   Gs2  v028
 BYTE   W06
 BYTE   As2  v056
 BYTE   W06
 BYTE   Cn3
 BYTE   W06
//  #05 //012   ----------------------------------------
 BYTE   Ds3  v052
 BYTE   W06
 BYTE   Gs3
 BYTE   W06
 BYTE   As3  v056
 BYTE   W06
 BYTE   Cn4
 BYTE   W06
 BYTE   As3
 BYTE   W06
 BYTE   Gs3  v036
 BYTE   W06
 BYTE   Ds3  v044
 BYTE   W06
 BYTE   Cn3  v056
 BYTE   W06
 BYTE   Ds2
 BYTE   W06
 BYTE   Gs2  v044
 BYTE   W06
 BYTE   As2  v056
 BYTE   W06
 BYTE   Cn3
 BYTE   W06
 BYTE   Ds3
 BYTE   W06
 BYTE   Gs3  v052
 BYTE   W06
 BYTE   Cn4  v056
 BYTE   W06
 BYTE   Gs3  v052
 BYTE   W06
//  #05 //013   ----------------------------------------
 BYTE   Ds3  v056
 BYTE   W06
 BYTE   Cn3
 BYTE   W06
 BYTE   As2  v052
 BYTE   W06
 BYTE   Gs2
 BYTE   W06
 BYTE   Ds2  v056
 BYTE   W06
 BYTE   Gs2  v036
 BYTE   W06
 BYTE   As2  v056
 BYTE   W06
 BYTE   Cn3
 BYTE   W06
 BYTE   Ds3  v052
 BYTE   W06
 BYTE   Gs3  v032
 BYTE   W06
 BYTE   Cn4  v056
 BYTE   W06
 BYTE   Gs3  v044
 BYTE   W06
 BYTE   Ds3  v036
 BYTE   W06
 BYTE   Cn3  v052
 BYTE   W06
 BYTE   As2
 BYTE   W06
 BYTE   Gs2  v044
 BYTE   W06
//  #05 //014   ----------------------------------------
 BYTE   Ds2  v056
 BYTE   W06
 BYTE   Gs2  v044
 BYTE   W06
 BYTE   As2  v052
 BYTE   W06
 BYTE   Cn3
 BYTE   W06
 BYTE   Ds3  v056
 BYTE   W06
 BYTE   Gs3  v036
 BYTE   W06
 BYTE   As3  v056
 BYTE   W06
 BYTE   Gs3  v044
 BYTE   W06
 BYTE   Ds3  v032
 BYTE   W06
 BYTE   Cn3  v028
 BYTE   W06
 BYTE   As2  v052
 BYTE   W06
 BYTE   Gs2  v032
 BYTE   W06
 BYTE   Ds2  v056
 BYTE   W06
 BYTE   Gs2  v036
 BYTE   W06
 BYTE   As2  v044
 BYTE   W06
 BYTE   Cn3  v056
 BYTE   W06
//  #05 //015   ----------------------------------------
 BYTE   Ds3
 BYTE   W06
 BYTE   Gs3  v036
 BYTE   W06
 BYTE   As3  v056
 BYTE   W06
 BYTE   Gs3  v052
 BYTE   W06
 BYTE   Ds3
 BYTE   W06
 BYTE   Cn3  v024
 BYTE   W06
 BYTE   As2  v044
 BYTE   W06
 BYTE   Gs2  v032
 BYTE   W06
 BYTE   Ds2  v056
 BYTE   W06
 BYTE   Gs2  v044
 BYTE   W06
 BYTE   As2  v056
 BYTE   W06
 BYTE   Cn3
 BYTE   W06
 BYTE   Ds3  v044
 BYTE   W06
 BYTE   Gs3
 BYTE   W06
 BYTE   As3  v056
 BYTE   W06
 BYTE   Gs3  v044
 BYTE   W06
//  #05 //016   ----------------------------------------
 BYTE   Ds3  v036
 BYTE   W06
 BYTE   Cn3  v056
 BYTE   W06
 BYTE   As2
 BYTE   W06
 BYTE   Gs2  v052
 BYTE   W06
 BYTE   Ds2  v056
 BYTE   W06
 BYTE   Gs2  v044
 BYTE   W06
 BYTE   As2  v056
 BYTE   W06
 BYTE   Cn3
 BYTE   W06
 BYTE   Ds3
 BYTE   W06
 BYTE   Gs3  v052
 BYTE   W06
 BYTE   Cn4  v056
 BYTE   W06
 BYTE   Gs3  v036
 BYTE   W06
 BYTE   Ds3  v052
 BYTE   W06
 BYTE   Gs3
 BYTE   W06
 BYTE   Cn4  v032
 BYTE   W06
 BYTE   Ds4  v056
 BYTE   W06
//  #05 //017   ----------------------------------------
 BYTE   PAN   c_v-11
 BYTE   N05  Fn3
 BYTE   W06
 BYTE   Cn3
 BYTE   W06
 BYTE   As2
 BYTE   W06
 BYTE   Cn3
 BYTE   W06
 BYTE   Gs2
 BYTE   W06
 BYTE   Cn3
 BYTE   W06
 BYTE   Gn2
 BYTE   W06
 BYTE   Cn3
 BYTE   W06
 BYTE   Gs2
 BYTE   W06
 BYTE   Cn3
 BYTE   W06
 BYTE   Fn2
 BYTE   W06
 BYTE   Cn3
 BYTE   W06
 BYTE   Fn3
 BYTE   W06
 BYTE   Cn3
 BYTE   W06
 BYTE   As2
 BYTE   W06
 BYTE   Cn3
 BYTE   W06
//  #05 //018   ----------------------------------------
 BYTE   Gs2
 BYTE   W06
 BYTE   Cn3
 BYTE   W06
 BYTE   Gn2
 BYTE   W06
 BYTE   Cn3
 BYTE   W06
 BYTE   Gs2
 BYTE   W06
 BYTE   Cn3
 BYTE   W06
 BYTE   Fn2
 BYTE   W06
 BYTE   Cn3
 BYTE   W06
//  #05 //019   ----------------------------------------
 BYTE   PATT
  POIN2 Label_0149DEA6
//  #05 //020   ----------------------------------------
 BYTE   PATT
  POIN2 Label_0149DED9
//  #05 //021   ----------------------------------------
 BYTE   PATT
  POIN2 Label_0149DEA6
//  #05 //022   ----------------------------------------
 BYTE   PATT
  POIN2 Label_0149DF1B
//  #05 //023   ----------------------------------------
 BYTE   W96
//  #05 //024   ----------------------------------------
 BYTE   W48
 BYTE   N05  Ds3  v060
 BYTE   W06
 BYTE   As2
 BYTE   W06
 BYTE   Gs2
 BYTE   W06
 BYTE   As2
 BYTE   W06
 BYTE   Fs2
 BYTE   W06
 BYTE   As2
 BYTE   W06
 BYTE   Fn2
 BYTE   W06
 BYTE   As2
 BYTE   W06
//  #05 //025   ----------------------------------------
 BYTE   Fs2
 BYTE   W06
 BYTE   As2
 BYTE   W06
 BYTE   Ds2
 BYTE   W06
 BYTE   As2
 BYTE   W06
 BYTE   Ds3
 BYTE   W06
 BYTE   As2
 BYTE   W06
 BYTE   Gs2
 BYTE   W06
 BYTE   As2
 BYTE   W06
 BYTE   Fs2
 BYTE   W06
 BYTE   As2
 BYTE   W06
 BYTE   Fn2
 BYTE   W06
 BYTE   As2
 BYTE   W06
 BYTE   Ds2
 BYTE   W06
 BYTE   Fs2
 BYTE   W06
 BYTE   As2
 BYTE   W06
 BYTE   Ds3
 BYTE   W05
 BYTE   MODT 0
 BYTE   LFOS 44
 BYTE   PAN   c_v-11
 BYTE   W01
//  #05 //026   ----------------------------------------
 BYTE   GoTo
  POIN2 Label_0149DE66
 BYTE   FINE

//**************** Track 6 (Midi-Chn.5) ****************//

DragonsGateII_006:
//  #06 //000   ----------------------------------------
 BYTE   KEYSH   DragonsGateII_key+0
Label_013E342A:
 BYTE   VOICE   104
 BYTE   MODT 0
 BYTE   LFOS 44
 BYTE   VOL   43*DragonsGateII_mvl/mxv
 BYTE   PAN   c_v+0
 BYTE   W96
//  #06 //001   ----------------------------------------
 BYTE   W48
 BYTE   W96
//  #06 //002   ----------------------------------------
 BYTE   W48
 BYTE   N92  Fn3  v084
 BYTE   W96
//  #06 //003   ----------------------------------------
 BYTE   N36  As3
 BYTE   W36
 BYTE   N12  Cs4
 BYTE   W12
 BYTE   N48  Cn4
 BYTE   W48
//  #06 //004   ----------------------------------------
 BYTE   N24  As3
 BYTE   W24
 BYTE   N72  Fn3
 BYTE   W72
//  #06 //005   ----------------------------------------
 BYTE   W96
//  #06 //006   ----------------------------------------
 BYTE   W48
 BYTE   W72
//  #06 //007   ----------------------------------------
 BYTE   MODT 0
 BYTE   LFOS 44
 BYTE   PAN   c_v+0
 BYTE   W36
 BYTE   PAN   c_v-6
 BYTE   W01
 BYTE   N05  Fn2  v060
 BYTE   W06
 BYTE   Gn2
 BYTE   W06
 BYTE   Gs2
 BYTE   W06
 BYTE   As2
 BYTE   W06
 BYTE   Cn3
 BYTE   W06
 BYTE   Cs3
 BYTE   W05
 BYTE   W01
 BYTE   Cs3  v004
 BYTE   W96
//  #06 //008   ----------------------------------------
 BYTE   W44
 BYTE   W03
 BYTE   W72
//  #06 //009   ----------------------------------------
 BYTE   W01
 BYTE   PAN   c_v+9
 BYTE   W36
 BYTE   N07  Fn3  v060
 BYTE   W06
 BYTE   Gn3  v044
 BYTE   W06
 BYTE   Gs3
 BYTE   W06
 BYTE   As3  v056
 BYTE   W06
 BYTE   Cn4
 BYTE   W06
 BYTE   Cs4  v044
 BYTE   W05
 BYTE   W01
 BYTE   N68  Gs3  v056
 BYTE   N68  Ds4  v060
 BYTE   W72
//  #06 //010   ----------------------------------------
 BYTE   N56  Gs3  v056
 BYTE   N56  Cs4  v060
 BYTE   W60
 BYTE   N05  Gs3  v004
 BYTE   N11  Cn4  v060
 BYTE   W11
 BYTE   W01
 BYTE   N64  Gn3  v056
 BYTE   N68  As3  v060
 BYTE   W66
//  #06 //011   ----------------------------------------
 BYTE   N05  Gn3  v004
 BYTE   W06
 BYTE   N64  Gn3  v056
 BYTE   N64  Cn4  v060
 BYTE   W66
 BYTE   N05  Cn4  v004
 BYTE   W05
 BYTE   W01
 BYTE   TIE  Cs3  v056
 BYTE   N56  Fn3  v060
 BYTE   W60
//  #06 //012   ----------------------------------------
 BYTE   N11  As3
 BYTE   W12
 BYTE   N32  Cn4
 BYTE   W36
 BYTE   Fn3
 BYTE   W28
 BYTE   W01
 BYTE   EOT
 BYTE   Cs3
 BYTE   W01
 BYTE   N05  Cs3  v004
 BYTE   W05
 BYTE   W01
 BYTE   N64  As3  v056
 BYTE   N64  Cs4  v060
 BYTE   W66
//  #06 //013   ----------------------------------------
 BYTE   N05  Cs4  v004
 BYTE   W06
 BYTE   N32  Cn4  v056
 BYTE   N64  Ds4  v060
 BYTE   W36
 BYTE   N28  As3  v056
 BYTE   W30
 BYTE   N05  Ds4  v004
 BYTE   W05
 BYTE   W01
 BYTE   N56  Fn2  v072
 BYTE   N56  Fn3
 BYTE   N56  Fn4  v060
 BYTE   W60
//  #06 //014   ----------------------------------------
 BYTE   N11  Gn2  v072
 BYTE   N11  Gn3
 BYTE   N11  Fn4  v004
 BYTE   W12
 BYTE   N68  Gs2  v072
 BYTE   N68  Gs3
 BYTE   W68
 BYTE   W03
 BYTE   W01
 BYTE   N32  As2
 BYTE   N32  As3
 BYTE   W36
//  #06 //015   ----------------------------------------
 BYTE   Gn2
 BYTE   N32  Gn3
 BYTE   W36
 BYTE   Gs2
 BYTE   N32  Gs3
 BYTE   W36
 BYTE   Fn2
 BYTE   N32  Fn3
 BYTE   W32
//  #06 //016   ----------------------------------------
 BYTE   W03
 BYTE   W01
 BYTE   TIE  Gn2
 BYTE   TIE  Gn3
 BYTE   W96
//  #06 //017   ----------------------------------------
 BYTE   W10
 BYTE   EOT
 BYTE   W01
 BYTE   EOT
 BYTE   Gn2
 BYTE   W01
 BYTE   N32  Ds2
 BYTE   N32  Ds3
 BYTE   W32
 BYTE   W03
 BYTE   W01
 BYTE   TIE  Cn2
 BYTE   TIE  Cn3
 BYTE   W96
//  #06 //018   ----------------------------------------
 BYTE   W11
 BYTE   EOT
 BYTE   Cn2  v060
 BYTE   W01
 BYTE   N05  Cn3  v004
 BYTE   W12
 BYTE   N12  Fn2  v072
 BYTE   W12
 BYTE   N11  Cn3
 BYTE   W11
 BYTE   W01
 BYTE   N56  Fs2
 BYTE   N52  As2
 BYTE   W54
//  #06 //019   ----------------------------------------
 BYTE   N05  As2  v004
 BYTE   W06
 BYTE   N11  Fn2  v072
 BYTE   N11  Gs2
 BYTE   W12
 BYTE   N32  Fs2
 BYTE   N28  As2
 BYTE   W30
 BYTE   N05  As2  v004
 BYTE   W06
 BYTE   N32  As2  v072
 BYTE   N28  Cs3
 BYTE   W30
 BYTE   N05  Cs3  v004
 BYTE   W05
 BYTE   W01
 BYTE   N56  Fs2  v072
 BYTE   N52  As2
 BYTE   W54
//  #06 //020   ----------------------------------------
 BYTE   N05  As2  v004
 BYTE   W06
 BYTE   N11  Fn2  v072
 BYTE   N11  Gs2
 BYTE   W12
 BYTE   N28  Fs2
 BYTE   N28  As2
 BYTE   W30
 BYTE   N05  As2  v004
 BYTE   W06
 BYTE   N32  Cn3  v072
 BYTE   N28  Fn3
 BYTE   W30
 BYTE   N05  Fn3  v004
 BYTE   W05
 BYTE   W01
 BYTE   N68  As2  v072
 BYTE   N68  Ds3
 BYTE   W72
//  #06 //021   ----------------------------------------
 BYTE   N05  As2  v004
 BYTE   N05  Ds3
 BYTE   W68
 BYTE   W03
 BYTE   GoTo
  POIN2 Label_013E342A
//  #06 //022   ----------------------------------------
 BYTE   MODT 0
 BYTE   LFOS 44
 BYTE   PAN   c_v+0
 BYTE   FINE

//**************** Track 7 (Midi-Chn.6) ****************//

DragonsGateII_007:
//  #07 //000   ----------------------------------------
 BYTE   KEYSH   DragonsGateII_key+0
Label_55DE66:
 BYTE   MODT 0
 BYTE   LFOS 44
 BYTE   VOL   51*DragonsGateII_mvl/mxv
 BYTE   MODT 0
 BYTE   LFOS 44
 BYTE   PAN   c_v+0
 BYTE   W96
//  #07 //001   ----------------------------------------
 BYTE   W48
 BYTE   W96
//  #07 //002   ----------------------------------------
 BYTE   W48
 BYTE   W96
//  #07 //003   ----------------------------------------
 BYTE   W48
 BYTE   W96
//  #07 //004   ----------------------------------------
 BYTE   W48
 BYTE   W96
//  #07 //005   ----------------------------------------
 BYTE   W48
 BYTE   W48
//  #07 //006   ----------------------------------------
 BYTE   VOICE   60
 BYTE   PAN   c_v-8
 BYTE   BEND   c_v+1
 BYTE   W96
//  #07 //007   ----------------------------------------
 BYTE   N40  Ds2  v072
 BYTE   W48
 BYTE   N05  Ds2  v004
 BYTE   W12
 BYTE   Cs2  v072
 BYTE   W12
 BYTE   N44  Cn2
 BYTE   W54
//  #07 //008   ----------------------------------------
 BYTE   N05  Cn2  v004
 BYTE   W06
 BYTE   Fn2  v072
 BYTE   W12
 BYTE   N52  Gs2
 BYTE   W60
 BYTE   N05  Gs2  v004
 BYTE   W12
 BYTE   N30  Gn2  v072
 BYTE   W36
//  #07 //009   ----------------------------------------
 BYTE   N05  Gn2  v004
 BYTE   W36
 BYTE   W96
//  #07 //010   ----------------------------------------
 BYTE   W48
 BYTE   W96
//  #07 //011   ----------------------------------------
 BYTE   W48
 BYTE   W96
//  #07 //012   ----------------------------------------
 BYTE   W48
 BYTE   W96
//  #07 //013   ----------------------------------------
 BYTE   W24
 BYTE   VOICE   60
 BYTE   PAN   c_v-8
 BYTE   BEND   c_v+0
 BYTE   W24
 BYTE   W36
 BYTE   N32  Fn2  v112
 BYTE   W36
//  #07 //014   ----------------------------------------
 BYTE   N56  Cn3  v127
 BYTE   W72
 BYTE   W36
//  #07 //015   ----------------------------------------
 BYTE   N28  Fn3  v124
 BYTE   W36
 BYTE   N60  Cn3  v112
 BYTE   W72
//  #07 //016   ----------------------------------------
 BYTE   W96
//  #07 //017   ----------------------------------------
 BYTE   W48
 BYTE   N64  Fn2  v092
 BYTE   W72
//  #07 //018   ----------------------------------------
 BYTE   N60  Cn3  v124
 BYTE   W72
 BYTE   W36
//  #07 //019   ----------------------------------------
 BYTE   N30  As2
 BYTE   W36
 BYTE   N24  Ds3  v092
 BYTE   W36
 BYTE   Gs3  v112
 BYTE   W36
//  #07 //020   ----------------------------------------
 BYTE   N60  Fn3  v092
 BYTE   W72
 BYTE   N64  Ds3  v104
 BYTE   W72
//  #07 //021   ----------------------------------------
 BYTE   W96
//  #07 //022   ----------------------------------------
 BYTE   W44
 BYTE   W03
 BYTE   MODT 0
 BYTE   LFOS 44
 BYTE   PAN   c_v+0
 BYTE   W01
 BYTE   GoTo
  POIN2 Label_55DE66
 BYTE   FINE

//**************** Track 8 (Midi-Chn.7) ****************//

DragonsGateII_008:
//  #08 //000   ----------------------------------------
 BYTE   KEYSH   DragonsGateII_key+0
Label_0149E1FA:
 BYTE   VOICE   124
 BYTE   MODT 0
 BYTE   LFOS 44
 BYTE   VOL   63*DragonsGateII_mvl/mxv
 BYTE   N24  Cn1  v088
 BYTE   N18  Fs1
 BYTE   W18
 BYTE   N06
 BYTE   W06
 BYTE   N24  Dn1
 BYTE   N24  As1
 BYTE   W24
 BYTE   N18  Cn1
 BYTE   N12  Fs1
 BYTE   W12
 BYTE   As1
 BYTE   W12
 BYTE   N24  Cn1
 BYTE   N18  Fs1
 BYTE   W18
 BYTE   N06
 BYTE   W06
//  #08 //001   ----------------------------------------
 BYTE   N24  Dn1
 BYTE   N24  As1
 BYTE   W24
 BYTE   N18  Cn1
 BYTE   N12  Fs1
 BYTE   W12
 BYTE   As1
 BYTE   W12
Label_0149E229:
 BYTE   N24  Cn1  v088
 BYTE   N18  Fs1
 BYTE   W18
 BYTE   N06
 BYTE   W06
 BYTE   N24  Dn1
 BYTE   N24  As1
 BYTE   W24
//  #08 //002   ----------------------------------------
 BYTE   N18  Cn1
 BYTE   N12  Fs1
 BYTE   W12
 BYTE   As1
 BYTE   W12
 BYTE   N24  Cn1
 BYTE   N18  Fs1
 BYTE   W18
 BYTE   N06
 BYTE   W06
 BYTE   N24  Dn1
 BYTE   N24  As1
 BYTE   W24
 BYTE   N18  Cn1
 BYTE   N12  Fs1
 BYTE   W12
 BYTE   As1
 BYTE   W12
 BYTE   PEND 
//  #08 //003   ----------------------------------------
 BYTE   PATT
  POIN2 Label_0149E229
//  #08 //004   ----------------------------------------
 BYTE   PATT
  POIN2 Label_0149E229
//  #08 //005   ----------------------------------------
 BYTE   PATT
  POIN2 Label_0149E229
//  #08 //006   ----------------------------------------
 BYTE   PATT
  POIN2 Label_0149E229
//  #08 //007   ----------------------------------------
Label_0149E265:
 BYTE   VOL   88*DragonsGateII_mvl/mxv
 BYTE   N24  Cn1  v088
 BYTE   N24  As1
 BYTE   W18
 BYTE   VOL   88*DragonsGateII_mvl/mxv
 BYTE   W06
 BYTE   VOL   88*DragonsGateII_mvl/mxv
 BYTE   N24  Dn1
 BYTE   W18
 BYTE   VOL   88*DragonsGateII_mvl/mxv
 BYTE   W06
 BYTE   VOL   88*DragonsGateII_mvl/mxv
 BYTE   N24  Cn1
 BYTE   N24  Fs1
 BYTE   W18
 BYTE   VOL   88*DragonsGateII_mvl/mxv
 BYTE   W06
 BYTE   VOL   88*DragonsGateII_mvl/mxv
 BYTE   N24  Cn1
 BYTE   N24  As1
 BYTE   W18
 BYTE   VOL   88*DragonsGateII_mvl/mxv
 BYTE   W06
//  #08 //008   ----------------------------------------
 BYTE   VOL   88*DragonsGateII_mvl/mxv
 BYTE   N24  Dn1
 BYTE   W18
 BYTE   VOL   88*DragonsGateII_mvl/mxv
 BYTE   W06
 BYTE   VOL   88*DragonsGateII_mvl/mxv
 BYTE   N24  Cn1
 BYTE   N24  Fs1
 BYTE   W18
 BYTE   VOL   88*DragonsGateII_mvl/mxv
 BYTE   W06
 BYTE   PEND 
//  #08 //009   ----------------------------------------
 BYTE   PATT
  POIN2 Label_0149E265
//  #08 //010   ----------------------------------------
Label_0149E29F:
 BYTE   VOL   88*DragonsGateII_mvl/mxv
 BYTE   N12  Cn1  v088
 BYTE   N12  As1
 BYTE   W12
 BYTE   VOL   88*DragonsGateII_mvl/mxv
 BYTE   N12  Gn1
 BYTE   W12
 BYTE   VOL   88*DragonsGateII_mvl/mxv
 BYTE   N12  Fn1
 BYTE   N12  Fs1
 BYTE   W12
 BYTE   VOL   88*DragonsGateII_mvl/mxv
 BYTE   N12  Dn1
 BYTE   N12  As1
 BYTE   W12
 BYTE   VOL   88*DragonsGateII_mvl/mxv
 BYTE   N12  Fn1
 BYTE   W12
 BYTE   VOL   88*DragonsGateII_mvl/mxv
 BYTE   N12  Fs1
 BYTE   N12  Gn1
 BYTE   W12
 BYTE   VOL   88*DragonsGateII_mvl/mxv
 BYTE   N12  Cn1
 BYTE   N12  As1
 BYTE   W12
 BYTE   VOL   88*DragonsGateII_mvl/mxv
 BYTE   N12  Gn1
 BYTE   W12
//  #08 //011   ----------------------------------------
 BYTE   VOL   88*DragonsGateII_mvl/mxv
 BYTE   N12  Fn1
 BYTE   N12  Fs1
 BYTE   W12
 BYTE   VOL   88*DragonsGateII_mvl/mxv
 BYTE   N12  Dn1
 BYTE   N12  As1
 BYTE   W12
 BYTE   VOL   88*DragonsGateII_mvl/mxv
 BYTE   N12  Fn1
 BYTE   W12
 BYTE   VOL   88*DragonsGateII_mvl/mxv
 BYTE   N12  Fs1
 BYTE   N12  Ds2
 BYTE   W12
 BYTE   PEND 
//  #08 //012   ----------------------------------------
 BYTE   PATT
  POIN2 Label_0149E29F
//  #08 //013   ----------------------------------------
 BYTE   PATT
  POIN2 Label_0149E29F
//  #08 //014   ----------------------------------------
 BYTE   VOL   88*DragonsGateII_mvl/mxv
 BYTE   N12  Cn1  v088
 BYTE   N12  As1
 BYTE   W12
 BYTE   VOL   88*DragonsGateII_mvl/mxv
 BYTE   N12  Gn1
 BYTE   W12
 BYTE   VOL   88*DragonsGateII_mvl/mxv
 BYTE   N12  Fn1
 BYTE   N12  Fs1
 BYTE   W12
 BYTE   VOL   88*DragonsGateII_mvl/mxv
 BYTE   N12  Dn1
 BYTE   N12  As1
 BYTE   W12
 BYTE   VOL   88*DragonsGateII_mvl/mxv
 BYTE   N12  Fn1
 BYTE   W12
 BYTE   VOL   88*DragonsGateII_mvl/mxv
 BYTE   N12  Fs1
 BYTE   N12  Gn1
 BYTE   W12
 BYTE   VOL   88*DragonsGateII_mvl/mxv
 BYTE   N12  Cn1
 BYTE   N12  As1
 BYTE   W12
 BYTE   VOL   88*DragonsGateII_mvl/mxv
 BYTE   N12  Gn1
 BYTE   W12
//  #08 //015   ----------------------------------------
 BYTE   VOL   88*DragonsGateII_mvl/mxv
 BYTE   N12  Fn1
 BYTE   N12  Fs1
 BYTE   W12
 BYTE   VOL   88*DragonsGateII_mvl/mxv
 BYTE   N12  Fn1
 BYTE   N12  Ds2
 BYTE   W12
 BYTE   VOL   88*DragonsGateII_mvl/mxv
 BYTE   N12  Dn1
 BYTE   W12
 BYTE   VOL   88*DragonsGateII_mvl/mxv
 BYTE   N12  Fs1
 BYTE   N12  Ds2
 BYTE   W12
 BYTE   VOL   88*DragonsGateII_mvl/mxv
 BYTE   N24  Cn1
 BYTE   N18  Fs1
 BYTE   W18
 BYTE   N06
 BYTE   W06
 BYTE   N24  Dn1
 BYTE   N24  As1
 BYTE   W24
//  #08 //016   ----------------------------------------
 BYTE   N18  Cn1
 BYTE   N12  Fs1
 BYTE   W12
 BYTE   As1
 BYTE   W12
 BYTE   N24  Cn1
 BYTE   N18  Fs1
 BYTE   W18
 BYTE   N06
 BYTE   W06
 BYTE   N24  Dn1
 BYTE   N24  As1
 BYTE   W24
 BYTE   N18  Cn1
 BYTE   N12  Fs1
 BYTE   W12
 BYTE   As1
 BYTE   W12
//  #08 //017   ----------------------------------------
 BYTE   PATT
  POIN2 Label_0149E229
//  #08 //018   ----------------------------------------
 BYTE   PATT
  POIN2 Label_0149E229
//  #08 //019   ----------------------------------------
 BYTE   PATT
  POIN2 Label_0149E229
//  #08 //020   ----------------------------------------
 BYTE   PATT
  POIN2 Label_0149E229
//  #08 //021   ----------------------------------------
 BYTE   PATT
  POIN2 Label_0149E229
//  #08 //022   ----------------------------------------
 BYTE   PATT
  POIN2 Label_0149E229
//  #08 //023   ----------------------------------------
 BYTE   GoTo
  POIN2 Label_0149E1FA
 BYTE   FINE

//**************** Track 9 (Midi-Chn.8) ****************//

DragonsGateII_009:
//  #09 //000   ----------------------------------------
 BYTE   KEYSH   DragonsGateII_key+0
Label_013E359A:
 BYTE   VOICE   18
 BYTE   MODT 0
 BYTE   LFOS 44
 BYTE   VOL   46*DragonsGateII_mvl/mxv
 BYTE   PAN   c_v+0
 BYTE   W96
//  #09 //001   ----------------------------------------
 BYTE   W48
 BYTE   W96
//  #09 //002   ----------------------------------------
 BYTE   W48
 BYTE   W96
//  #09 //003   ----------------------------------------
 BYTE   W48
 BYTE   W96
//  #09 //004   ----------------------------------------
 BYTE   W48
 BYTE   W96
//  #09 //005   ----------------------------------------
 BYTE   W48
 BYTE   W96
//  #09 //006   ----------------------------------------
 BYTE   W48
 BYTE   W96
//  #09 //007   ----------------------------------------
 BYTE   W48
 BYTE   W96
//  #09 //008   ----------------------------------------
 BYTE   W48
 BYTE   W96
//  #09 //009   ----------------------------------------
 BYTE   W48
 BYTE   W96
//  #09 //010   ----------------------------------------
 BYTE   W48
 BYTE   W96
//  #09 //011   ----------------------------------------
 BYTE   W48
 BYTE   W96
//  #09 //012   ----------------------------------------
 BYTE   W48
 BYTE   MODT 0
 BYTE   LFOS 44
 BYTE   PAN   c_v+13
 BYTE   N56  Cn3  v060
 BYTE   N56  Fn3  v088
 BYTE   W60
//  #09 //013   ----------------------------------------
 BYTE   N11  Fn3  v004
 BYTE   W12
 BYTE   N56  As2  v060
 BYTE   N56  Ds3  v088
 BYTE   W60
 BYTE   N11  Ds3  v004
 BYTE   W12
 BYTE   N56  As2  v060
 BYTE   N56  Cs3  v088
 BYTE   W60
//  #09 //014   ----------------------------------------
 BYTE   N11  Cs3  v004
 BYTE   W12
 BYTE   N56  As2  v060
 BYTE   N56  Cn3  v088
 BYTE   W60
 BYTE   N11  Cn3  v004
 BYTE   W12
 BYTE   TIE  Gs2  v060
 BYTE   TIE  Bn2  v088
 BYTE   W96
//  #09 //015   ----------------------------------------
 BYTE   W32
 BYTE   W03
 BYTE   EOT
 BYTE   Gs2  v059
 BYTE   W01
 BYTE   N11  Bn2  v004
 BYTE   W12
 BYTE   TIE  Gs2  v060
 BYTE   TIE  Cn3  v088
 BYTE   W96
//  #09 //016   ----------------------------------------
 BYTE   W32
 BYTE   W03
 BYTE   EOT
 BYTE   Gs2  v060
 BYTE   W01
 BYTE   N11  Cn3  v004
 BYTE   W12
Label_013E3610:
 BYTE   N36  As2  v088
 BYTE   N36  Fs3  v060
 BYTE   W96
//  #09 //017   ----------------------------------------
 BYTE   W36
 BYTE   N11  Cs3  v004
 BYTE   W12
 BYTE   PEND 
//  #09 //018   ----------------------------------------
 BYTE   PATT
  POIN2 Label_013E3610
//  #09 //019   ----------------------------------------
 BYTE   MODT 0
 BYTE   LFOS 44
 BYTE   PAN   c_v+13
 BYTE   N56  As2  v060
 BYTE   N56  Ds3  v088
 BYTE   W60
 BYTE   W02
 BYTE   N08  Cs3  v004
 BYTE   W08
 BYTE   MODT 0
 BYTE   LFOS 44
 BYTE   PAN   c_v+13
 BYTE   W02
 BYTE   N56  As2  v060
 BYTE   N56  Ds3  v088
 BYTE   W66
//  #09 //020   ----------------------------------------
 BYTE   W01
 BYTE   MODT 0
 BYTE   LFOS 44
 BYTE   PAN   c_v+13
 BYTE   W05
 BYTE   GoTo
  POIN2 Label_013E359A
 BYTE   FINE

//******************************************************//
	ALIGN 4

DragonsGateII:
	BYTE	9	// NumTrks
	BYTE	0	// NumBlks
	BYTE	DragonsGateII_pri	// Priority
	BYTE	DragonsGateII_rev	// Reverb.
    
	POIN2	DragonsGateII_grp
    
	POIN2	DragonsGateII_001
	POIN2	DragonsGateII_002
	POIN2	DragonsGateII_003
	POIN2	DragonsGateII_004
	POIN2	DragonsGateII_005
	POIN2	DragonsGateII_006
	POIN2	DragonsGateII_007
	POIN2	DragonsGateII_008
	POIN2	DragonsGateII_009

	
