//Event file generated from Sappy .s format.
	#include "MPlayDef.event"

	#define	DyedInBlood_grp  voicegroup000
	#define	DyedInBlood_pri  0
	#define	DyedInBlood_rev  0
	#define	DyedInBlood_mvl  127
	#define	DyedInBlood_key  0
	#define	DyedInBlood_tbs  1
	#define	DyedInBlood_exg  0
	#define	DyedInBlood_cmp  1

	// .rodata
	//	DyedInBlood
	ALIGN 4


//**************** Track 1 (Midi-Chn.0) ****************//

DyedInBlood_001:
//  #01 //000   ----------------------------------------
 BYTE   KEYSH   DyedInBlood_key+0
 BYTE   TEMPO   150*DyedInBlood_tbs/2
 BYTE   VOICE   40
 BYTE   VOL   26*DyedInBlood_mvl/mxv
 BYTE   PAN   c_v+33
 BYTE   TIE  An1  v080
 BYTE   W96
//  #01 //001   ----------------------------------------
 BYTE   W96
//  #01 //002   ----------------------------------------
 BYTE   W96
//  #01 //003   ----------------------------------------
 BYTE   W44
 BYTE   W03
 BYTE   EOT
 BYTE   W01
 BYTE   N44  En1
 BYTE   W48
//  #01 //004   ----------------------------------------
 BYTE   TIE  An1
 BYTE   W96
//  #01 //005   ----------------------------------------
 BYTE   W96
//  #01 //006   ----------------------------------------
 BYTE   W96
//  #01 //007   ----------------------------------------
 BYTE   W96
//  #01 //008   ----------------------------------------
 BYTE   W92
 BYTE   W03
 BYTE   EOT
 BYTE   W01
//  #01 //009   ----------------------------------------
Label_0178C06D:
 BYTE   EOT
 BYTE   W96
//  #01 //010   ----------------------------------------
 BYTE   W96
//  #01 //011   ----------------------------------------
 BYTE   W96
//  #01 //012   ----------------------------------------
 BYTE   W96
//  #01 //013   ----------------------------------------
 BYTE   W96
//  #01 //014   ----------------------------------------
 BYTE   W96
//  #01 //015   ----------------------------------------
 BYTE   W96
//  #01 //016   ----------------------------------------
 BYTE   W96
//  #01 //017   ----------------------------------------
 BYTE   W96
//  #01 //018   ----------------------------------------
 BYTE   W96
//  #01 //019   ----------------------------------------
 BYTE   W96
//  #01 //020   ----------------------------------------
 BYTE   W96
//  #01 //021   ----------------------------------------
 BYTE   W96
//  #01 //022   ----------------------------------------
 BYTE   W96
//  #01 //023   ----------------------------------------
 BYTE   W96
//  #01 //024   ----------------------------------------
 BYTE   TIE  Dn2  v100
 BYTE   W96
//  #01 //025   ----------------------------------------
 BYTE   W24
 BYTE   Dn3
 BYTE   W72
//  #01 //026   ----------------------------------------
 BYTE   W44
 BYTE   W03
 BYTE   EOT
 BYTE   Dn2
 BYTE   W01
 BYTE   TIE
 BYTE   W48
//  #01 //027   ----------------------------------------
 BYTE   W68
 BYTE   W03
 BYTE   EOT
 BYTE   Dn3
 BYTE   W01
 BYTE   TIE
 BYTE   W24
//  #01 //028   ----------------------------------------
 BYTE   W92
 BYTE   W03
 BYTE   EOT
 BYTE   Dn2  v062
 BYTE   W01
//  #01 //029   ----------------------------------------
 BYTE   TIE  Fn2
 BYTE   W96
//  #01 //030   ----------------------------------------
 BYTE   W24
 BYTE   Fn3
 BYTE   W72
//  #01 //031   ----------------------------------------
 BYTE   W44
 BYTE   W03
 BYTE   EOT
 BYTE   Fn2
 BYTE   W01
 BYTE   TIE
 BYTE   W48
//  #01 //032   ----------------------------------------
 BYTE   W68
 BYTE   W03
 BYTE   EOT
 BYTE   Fn3
 BYTE   W01
 BYTE   TIE
 BYTE   W24
//  #01 //033   ----------------------------------------
 BYTE   W92
 BYTE   W03
 BYTE   EOT
 BYTE   Fn2  v065
 BYTE   W01
//  #01 //034   ----------------------------------------
 BYTE   TIE  Fn2  v092
 BYTE   W96
//  #01 //035   ----------------------------------------
 BYTE   W96
//  #01 //036   ----------------------------------------
 BYTE   W92
 BYTE   W03
 BYTE   EOT
 BYTE   W01
//  #01 //037   ----------------------------------------
Label_0178C0BA:
 BYTE   N68  Fn2  v092
 BYTE   W72
 BYTE   Bn2
 BYTE   W24
 BYTE   PEND 
//  #01 //038   ----------------------------------------
 BYTE   W48
 BYTE   Ds3
 BYTE   W48
//  #01 //039   ----------------------------------------
 BYTE   W24
 BYTE   Fn3
 BYTE   W72
//  #01 //040   ----------------------------------------
 BYTE   PATT
  POIN2 Label_0178C0BA
//  #01 //041   ----------------------------------------
 BYTE   W48
 BYTE   N68  Ds3  v092
 BYTE   W48
//  #01 //042   ----------------------------------------
 BYTE   W24
 BYTE   N05  Dn3
 BYTE   N05  An3
 BYTE   W24
 BYTE   TIE  Dn2
 BYTE   TIE  Dn3
 BYTE   W48
//  #01 //043   ----------------------------------------
 BYTE   W56
 BYTE   W03
 BYTE   EOT
 BYTE   Dn2  v062
 BYTE   W13
 BYTE   N05
 BYTE   N05  An3
 BYTE   W24
//  #01 //044   ----------------------------------------
Label_0178C0E6:
 BYTE   TIE  Dn2  v092
 BYTE   TIE  Dn3
 BYTE   W96
 BYTE   PEND 
//  #01 //045   ----------------------------------------
 BYTE   W11
 BYTE   EOT
 BYTE   Dn2  v062
 BYTE   W13
 BYTE   N05  Fn3
 BYTE   N05  Cn4
 BYTE   W24
 BYTE   TIE  Fn2
 BYTE   TIE  Fn3
 BYTE   W48
//  #01 //046   ----------------------------------------
 BYTE   W56
 BYTE   W03
 BYTE   EOT
 BYTE   Fn2  v065
 BYTE   W13
 BYTE   N05
 BYTE   N05  Cn4
 BYTE   W24
//  #01 //047   ----------------------------------------
 BYTE   TIE  Fn2
 BYTE   TIE  Fn3
 BYTE   W96
//  #01 //048   ----------------------------------------
 BYTE   W11
 BYTE   EOT
 BYTE   Fn2  v065
 BYTE   W13
 BYTE   N05  Dn3
 BYTE   N05  An3
 BYTE   W24
 BYTE   TIE  Dn2
 BYTE   TIE  Dn3
 BYTE   W48
//  #01 //049   ----------------------------------------
 BYTE   W56
 BYTE   W03
 BYTE   EOT
 BYTE   Dn2  v062
 BYTE   W13
 BYTE   N05
 BYTE   N05  An3
 BYTE   W24
//  #01 //050   ----------------------------------------
 BYTE   PATT
  POIN2 Label_0178C0E6
//  #01 //051   ----------------------------------------
 BYTE   W11
 BYTE   EOT
 BYTE   Dn2  v062
 BYTE   W13
 BYTE   N68  Fn3  v092
 BYTE   N68  Cs4
 BYTE   W72
//  #01 //052   ----------------------------------------
 BYTE   Fs3
 BYTE   N68  Dn4
 BYTE   W72
 BYTE   Gn3
 BYTE   N68  Ds4
 BYTE   W24
//  #01 //053   ----------------------------------------
 BYTE   W48
 BYTE   An3
 BYTE   N68  Fn4
 BYTE   W48
//  #01 //054   ----------------------------------------
 BYTE   W24
 //BYTE   TIE  An2
 BYTE   TIE  An3
 BYTE   W72
//  #01 //055   ----------------------------------------
 BYTE   W68
 BYTE   W03
 BYTE   EOT
 BYTE   EOT
 //BYTE   An2  v069
 BYTE   W01
 //BYTE   TIE  An2
 BYTE   TIE  An3
 BYTE   W24
//  #01 //056   ----------------------------------------
 BYTE   W96
//  #01 //057   ----------------------------------------
 BYTE   W23
 BYTE   EOT
 BYTE   EOT
 //BYTE   An2  v069
 BYTE   W72
 BYTE   W01
//  #01 //058   ----------------------------------------
 BYTE   EOT
 BYTE   GoTo
  POIN2 Label_0178C06D
//  #01 //059   ----------------------------------------
 BYTE   W23
 BYTE   FINE

//**************** Track 2 (Midi-Chn.1) ****************//

DyedInBlood_002:
//  #02 //000   ----------------------------------------
 BYTE   KEYSH   DyedInBlood_key+0
 BYTE   VOICE   100
 BYTE   VOL   30*DyedInBlood_mvl/mxv
 BYTE   PAN   c_v-27
 BYTE   N92  En3  v096
 BYTE   N92  Cn4
 BYTE   W92
 BYTE   W02
 BYTE   Fs3
 BYTE   N92  Bn3
 BYTE   W02
//  #02 //001   ----------------------------------------
 BYTE   W92
 BYTE   W02
 BYTE   Fn3
 BYTE   N92  As3
 BYTE   W02
//  #02 //002   ----------------------------------------
 BYTE   W92
 BYTE   W02
 BYTE   En3
 BYTE   N92  An3
 BYTE   W02
//  #02 //003   ----------------------------------------
 BYTE   W96
//  #02 //004   ----------------------------------------
 BYTE   N44  En3  v112
 BYTE   N44  Cn4
 BYTE   W44
 BYTE   W02
 BYTE   N44
 BYTE   N44  En4
 BYTE   W48
 BYTE   N92  Ds4
 BYTE   N92  Fs4
 BYTE   W02
//  #02 //005   ----------------------------------------
 BYTE   W92
 BYTE   W02
 BYTE   Dn4
 BYTE   N88  Fn4
 BYTE   W02
//  #02 //006   ----------------------------------------
 BYTE   W88
 BYTE   N02  Gn4  v092
 BYTE   W03
 BYTE   Gs4
 BYTE   W03
 BYTE   TIE  En4  v112
 BYTE   TIE  An4
 BYTE   W02
//  #02 //007   ----------------------------------------
 BYTE   W96
//  #02 //008   ----------------------------------------
 BYTE   W84
 BYTE   W03
 BYTE   EOT
 BYTE   En4  v081
 BYTE   W09
//  #02 //009   ----------------------------------------
Label_0178BD56:
 BYTE   W96
//  #02 //010   ----------------------------------------
 BYTE   W96
//  #02 //011   ----------------------------------------
 BYTE   W96
//  #02 //012   ----------------------------------------
 BYTE   W96
//  #02 //013   ----------------------------------------
 BYTE   W96
//  #02 //014   ----------------------------------------
 BYTE   W96
//  #02 //015   ----------------------------------------
 BYTE   W96
//  #02 //016   ----------------------------------------
 BYTE   W96
//  #02 //017   ----------------------------------------
 BYTE   W96
//  #02 //018   ----------------------------------------
 BYTE   W96
//  #02 //019   ----------------------------------------
 BYTE   W96
//  #02 //020   ----------------------------------------
 BYTE   W96
//  #02 //021   ----------------------------------------
 BYTE   W96
//  #02 //022   ----------------------------------------
 BYTE   W96
//  #02 //023   ----------------------------------------
 BYTE   W96
//  #02 //024   ----------------------------------------
 BYTE   W96
//  #02 //025   ----------------------------------------
 BYTE   W96
//  #02 //026   ----------------------------------------
 BYTE   W96
//  #02 //027   ----------------------------------------
 BYTE   W96
//  #02 //028   ----------------------------------------
 BYTE   W96
//  #02 //029   ----------------------------------------
 BYTE   W96
//  #02 //030   ----------------------------------------
 BYTE   W96
//  #02 //031   ----------------------------------------
 BYTE   W96
//  #02 //032   ----------------------------------------
 BYTE   W96
//  #02 //033   ----------------------------------------
 BYTE   W96
//  #02 //034   ----------------------------------------
 BYTE   W96
//  #02 //035   ----------------------------------------
 BYTE   W96
//  #02 //036   ----------------------------------------
 BYTE   W96
//  #02 //037   ----------------------------------------
Label_0178BD72:
 BYTE   W22
 BYTE   N05  Fn3  v100
 BYTE   W12
 BYTE   Gn3
 BYTE   W12
 BYTE   Gs3
 BYTE   W06
 BYTE   Gn3
 BYTE   W06
 BYTE   Fn3
 BYTE   W12
 BYTE   N23  Gn3
 BYTE   W24
 BYTE   Dn3
 BYTE   W02
 BYTE   PEND 
//  #02 //038   ----------------------------------------
Label_0178BD85:
 BYTE   W22
 BYTE   N23  Gn2  v100
 BYTE   W48
 BYTE   N05  As3
 BYTE   W12
 BYTE   Cn4
 BYTE   W12
 BYTE   Cs4
 BYTE   W02
 BYTE   PEND 
//  #02 //039   ----------------------------------------
 BYTE   W04
 BYTE   Cn4
 BYTE   W06
 BYTE   As3
 BYTE   W12
 BYTE   N23  Cn4
 BYTE   W24
 BYTE   Fn3
 BYTE   W24
 BYTE   Cn3
 BYTE   W24
 BYTE   W02
//  #02 //040   ----------------------------------------
 BYTE   PATT
  POIN2 Label_0178BD72
//  #02 //041   ----------------------------------------
 BYTE   PATT
  POIN2 Label_0178BD85
//  #02 //042   ----------------------------------------
 BYTE   W04
 BYTE   N05  Cn4  v100
 BYTE   W06
 BYTE   As3
 BYTE   W12
 BYTE   An3  v108
 BYTE   N05  Dn4
 BYTE   W24
 BYTE   TIE  An2
 BYTE   TIE  Dn3
 BYTE   W48
 BYTE   W02
//  #02 //043   ----------------------------------------
 BYTE   W60
 BYTE   W03
 BYTE   EOT
 BYTE   An2  v062
 BYTE   W09
 BYTE   N04  An3
 BYTE   N04  Dn4
 BYTE   W22
 BYTE   TIE  An2
 BYTE   TIE  Dn3
 BYTE   W02
//  #02 //044   ----------------------------------------
 BYTE   W96
//  #02 //045   ----------------------------------------
 BYTE   W15
 BYTE   EOT
 BYTE   An2  v062
 BYTE   W09
 BYTE   N04  Cn4
 BYTE   N04  Fn4
 BYTE   W22
 BYTE   TIE  Cn3
 BYTE   TIE  Fn3
 BYTE   W48
 BYTE   W02
//  #02 //046   ----------------------------------------
 BYTE   W60
 BYTE   W03
 BYTE   EOT
 BYTE   Cn3  v065
 BYTE   W09
 BYTE   N04  Cn4
 BYTE   N04  Fn4
 BYTE   W22
 BYTE   TIE  Cn3
 BYTE   TIE  Fn3
 BYTE   W02
//  #02 //047   ----------------------------------------
 BYTE   W96
//  #02 //048   ----------------------------------------
 BYTE   W15
 BYTE   EOT
 BYTE   Cn3  v065
 BYTE   W09
 BYTE   N04  An3
 BYTE   N04  Dn4
 BYTE   W22
 BYTE   TIE  An2
 BYTE   TIE  Dn3
 BYTE   W48
 BYTE   W02
//  #02 //049   ----------------------------------------
 BYTE   W60
 BYTE   W03
 BYTE   EOT
 BYTE   An2  v062
 BYTE   W09
 BYTE   N04  An3
 BYTE   N04  Dn4
 BYTE   W22
 BYTE   TIE  An2
 BYTE   TIE  Dn3
 BYTE   W02
//  #02 //050   ----------------------------------------
 BYTE   W96
//  #02 //051   ----------------------------------------
 BYTE   W15
 BYTE   EOT
 BYTE   An2  v062
 BYTE   W80
 BYTE   W01
//  #02 //052   ----------------------------------------
 BYTE   W96
//  #02 //053   ----------------------------------------
 BYTE   W96
//  #02 //054   ----------------------------------------
 BYTE   W96
//  #02 //055   ----------------------------------------
 BYTE   W96
//  #02 //056   ----------------------------------------
 BYTE   W96
//  #02 //057   ----------------------------------------
 BYTE   W96
//  #02 //058   ----------------------------------------
 BYTE   GoTo
  POIN2 Label_0178BD56
//  #02 //059   ----------------------------------------
 BYTE   W23
 BYTE   FINE

//**************** Track 3 (Midi-Chn.2) ****************//

DyedInBlood_003:
//  #03 //000   ----------------------------------------
 BYTE   KEYSH   DyedInBlood_key+0
 BYTE   VOICE   2
 BYTE   VOL   36*DyedInBlood_mvl/mxv
 BYTE   PAN   c_v-36
 BYTE   TIE  An3  v060
 BYTE   W96
//  #03 //001   ----------------------------------------
 BYTE   W96
//  #03 //002   ----------------------------------------
 BYTE   W96
//  #03 //003   ----------------------------------------
 BYTE   W68
 BYTE   W03
 BYTE   EOT
 BYTE   W01
 BYTE   N05  En3  v056
 BYTE   W06
 BYTE   Fn3
 BYTE   W06
 BYTE   N03  Fs3  v060
 BYTE   W04
 BYTE   Gn3
 BYTE   W04
 BYTE   Gs3  v064
 BYTE   W04
//  #03 //004   ----------------------------------------
 BYTE   TIE  An3
 BYTE   W96
//  #03 //005   ----------------------------------------
 BYTE   W96
//  #03 //006   ----------------------------------------
 BYTE   W96
//  #03 //007   ----------------------------------------
 BYTE   W96
//  #03 //008   ----------------------------------------
 BYTE   W92
 BYTE   W03
 BYTE   EOT
 BYTE   W01
//  #03 //009   ----------------------------------------
Label_0178C5AB:
 BYTE   W96
//  #03 //010   ----------------------------------------
 BYTE   W96
//  #03 //011   ----------------------------------------
 BYTE   W96
//  #03 //012   ----------------------------------------
 BYTE   W96
//  #03 //013   ----------------------------------------
 BYTE   W96
//  #03 //014   ----------------------------------------
 BYTE   W96
//  #03 //015   ----------------------------------------
 BYTE   W96
//  #03 //016   ----------------------------------------
 BYTE   W96
//  #03 //017   ----------------------------------------
 BYTE   W96
//  #03 //018   ----------------------------------------
 BYTE   W96
//  #03 //019   ----------------------------------------
 BYTE   W96
//  #03 //020   ----------------------------------------
 BYTE   W96
//  #03 //021   ----------------------------------------
 BYTE   W96
//  #03 //022   ----------------------------------------
 BYTE   W96
//  #03 //023   ----------------------------------------
 BYTE   W96
//  #03 //024   ----------------------------------------
 BYTE   W96
//  #03 //025   ----------------------------------------
 BYTE   W96
//  #03 //026   ----------------------------------------
 BYTE   W96
//  #03 //027   ----------------------------------------
 BYTE   W96
//  #03 //028   ----------------------------------------
 BYTE   W96
//  #03 //029   ----------------------------------------
 BYTE   W96
//  #03 //030   ----------------------------------------
 BYTE   W96
//  #03 //031   ----------------------------------------
 BYTE   W96
//  #03 //032   ----------------------------------------
 BYTE   W96
//  #03 //033   ----------------------------------------
 BYTE   W96
//  #03 //034   ----------------------------------------
 BYTE   W96
//  #03 //035   ----------------------------------------
 BYTE   W96
//  #03 //036   ----------------------------------------
 BYTE   W96
//  #03 //037   ----------------------------------------
 BYTE   W96
//  #03 //038   ----------------------------------------
 BYTE   W96
//  #03 //039   ----------------------------------------
 BYTE   W96
//  #03 //040   ----------------------------------------
 BYTE   W96
//  #03 //041   ----------------------------------------
 BYTE   W96
//  #03 //042   ----------------------------------------
 BYTE   W96
//  #03 //043   ----------------------------------------
 BYTE   W96
//  #03 //044   ----------------------------------------
 BYTE   W96
//  #03 //045   ----------------------------------------
 BYTE   W96
//  #03 //046   ----------------------------------------
 BYTE   W96
//  #03 //047   ----------------------------------------
 BYTE   W96
//  #03 //048   ----------------------------------------
 BYTE   W96
//  #03 //049   ----------------------------------------
 BYTE   W96
//  #03 //050   ----------------------------------------
 BYTE   W96
//  #03 //051   ----------------------------------------
 BYTE   W96
//  #03 //052   ----------------------------------------
 BYTE   W96
//  #03 //053   ----------------------------------------
 BYTE   W96
//  #03 //054   ----------------------------------------
 BYTE   W96
//  #03 //055   ----------------------------------------
 BYTE   W96
//  #03 //056   ----------------------------------------
 BYTE   W96
//  #03 //057   ----------------------------------------
 BYTE   W96
//  #03 //058   ----------------------------------------
 BYTE   GoTo
  POIN2 Label_0178C5AB
//  #03 //059   ----------------------------------------
 BYTE   W23
 BYTE   FINE

//**************** Track 4 (Midi-Chn.3) ****************//

DyedInBlood_004:
//  #04 //000   ----------------------------------------
 BYTE   KEYSH   DyedInBlood_key+0
 BYTE   VOICE   18
 BYTE   VOL   37*DyedInBlood_mvl/mxv
 BYTE   PAN   c_v+0
 BYTE   TIE  An1  v092
 BYTE   N92  Cn4  v080
 BYTE   N92  En4
 BYTE   W96
//  #04 //001   ----------------------------------------
Label_015D8B5D:
 BYTE   N92  Bn3  v080
 BYTE   N92  Ds4
 BYTE   W92
 BYTE   W03
 BYTE   PEND 
 BYTE   EOT
 BYTE   An1
 BYTE   W01
//  #04 //002   ----------------------------------------
Label_015D8B68:
 BYTE   TIE  An1  v092
 BYTE   N92  As3  v080
 BYTE   N92  Dn4
 BYTE   W96
 BYTE   PEND 
//  #04 //003   ----------------------------------------
 BYTE   An3
 BYTE   N92  Cn4
 BYTE   W92
 BYTE   W03
 BYTE   EOT
 BYTE   An1
 BYTE   W01
//  #04 //004   ----------------------------------------
 BYTE   TIE  An1  v092
 BYTE   N92  Cn4  v080
 BYTE   N92  En4
 BYTE   W96
//  #04 //005   ----------------------------------------
 BYTE   PATT
  POIN2 Label_015D8B5D
//  #04 //006   ----------------------------------------
 BYTE   EOT
 BYTE   An1
 BYTE   W01
//  #04 //007   ----------------------------------------
 BYTE   PATT
  POIN2 Label_015D8B68
//  #04 //008   ----------------------------------------
 BYTE   TIE  An3  v080
 BYTE   TIE  Cn4
 BYTE   W96
//  #04 //009   ----------------------------------------
 BYTE   W88
 BYTE   W01
 BYTE   EOT
 BYTE   An3  v072
 BYTE   W06
 BYTE   An1
 BYTE   W01
//  #04 //010   ----------------------------------------
Label_015D8B9E:
 BYTE   W96
//  #04 //011   ----------------------------------------
 BYTE   W96
//  #04 //012   ----------------------------------------
 BYTE   W96
//  #04 //013   ----------------------------------------
 BYTE   W96
//  #04 //014   ----------------------------------------
 BYTE   W96
//  #04 //015   ----------------------------------------
 BYTE   TIE  En4  v084
 BYTE   TIE  En5
 BYTE   W96
//  #04 //016   ----------------------------------------
 BYTE   W23
 BYTE   EOT
 BYTE   En4  v088
 BYTE   W01
 BYTE   N11  En4  v052
 BYTE   N11  En5
 BYTE   W12
 BYTE   Dn4  v084
 BYTE   N11  Dn5
 BYTE   W12
 BYTE   Bn3
 BYTE   N11  Bn4
 BYTE   W12
 BYTE   Cn4
 BYTE   N11  Cn5
 BYTE   W12
 BYTE   Dn4
 BYTE   N11  Dn5
 BYTE   W12
 BYTE   Cn4
 BYTE   N11  Cn5
 BYTE   W12
//  #04 //017   ----------------------------------------
 BYTE   Gs3
 BYTE   N11  Gs4
 BYTE   W12
 BYTE   An3
 BYTE   N11  An4
 BYTE   W12
 BYTE   Bn3
 BYTE   N11  Bn4
 BYTE   W12
 BYTE   Fn3
 BYTE   N11  Fn4
 BYTE   W12
 BYTE   TIE  En3
 BYTE   TIE  En4
 BYTE   W48
//  #04 //018   ----------------------------------------
 BYTE   W68
 BYTE   W03
 BYTE   EOT
 BYTE   En3  v076
 BYTE   W01
 BYTE   N11  En3  v052
 BYTE   N11  En4
 BYTE   W12
 BYTE   En3  v084
 BYTE   N11  En4
 BYTE   W12
//  #04 //019   ----------------------------------------
 BYTE   Fn3
 BYTE   N11  Fn4
 BYTE   W12
 BYTE   En3
 BYTE   N11  En4
 BYTE   W12
 BYTE   Gs3
 BYTE   N11  Gs4
 BYTE   W12
 BYTE   An3
 BYTE   N11  An4
 BYTE   W12
 BYTE   Bn3
 BYTE   N11  Bn4
 BYTE   W12
 BYTE   Cn4
 BYTE   N11  Cn5
 BYTE   W12
 BYTE   Dn4
 BYTE   N11  Dn5
 BYTE   W12
 BYTE   Fn4
 BYTE   N11  Fn5
 BYTE   W12
//  #04 //020   ----------------------------------------
 BYTE   TIE  Gn4
 BYTE   TIE  Gn5
 BYTE   W96
//  #04 //021   ----------------------------------------
 BYTE   W17
 BYTE   EOT
 BYTE   Gn4  v091
 BYTE   W07
 BYTE   N11  Gn4  v052
 BYTE   N11  Gn5
 BYTE   W12
 BYTE   Gs4  v084
 BYTE   N11  Gs5
 BYTE   W12
 BYTE   Fn4
 BYTE   N11  Fn5
 BYTE   W12
 BYTE   En4
 BYTE   N11  En5
 BYTE   W12
 BYTE   Fn4
 BYTE   N11  Fn5
 BYTE   W12
 BYTE   Cn4
 BYTE   N11  Cn5
 BYTE   W12
//  #04 //022   ----------------------------------------
 BYTE   Ds4
 BYTE   N11  Ds5
 BYTE   W12
 BYTE   Cs4
 BYTE   N11  Cs5
 BYTE   W12
 BYTE   Cn4
 BYTE   N11  Cn5
 BYTE   W12
 BYTE   As3
 BYTE   N11  As4
 BYTE   W12
 BYTE   TIE  Cn4
 BYTE   TIE  Cn5
 BYTE   W48
//  #04 //023   ----------------------------------------
 BYTE   W64
 BYTE   W01
 BYTE   EOT
 BYTE   Cn4  v084
 BYTE   W07
 BYTE   N11  Cn4  v052
 BYTE   N11  Cn5
 BYTE   W12
 BYTE   Fn3  v084
 BYTE   N11  Fn4
 BYTE   W12
//  #04 //024   ----------------------------------------
 BYTE   En3
 BYTE   N11  En4
 BYTE   W12
 BYTE   Gn3
 BYTE   N11  Gn4
 BYTE   W12
 BYTE   Fn3
 BYTE   N11  Fn4
 BYTE   W12
 BYTE   Gs3
 BYTE   N11  Gs4
 BYTE   W12
 BYTE   As3
 BYTE   N11  As4
 BYTE   W12
 BYTE   Gn3
 BYTE   N11  Gn4
 BYTE   W12
 BYTE   Gs3
 BYTE   N11  Gs4
 BYTE   W12
 BYTE   Cn4
 BYTE   N11  Cn5
 BYTE   W12
//  #04 //025   ----------------------------------------
 BYTE   TIE  Dn4
 BYTE   TIE  Dn5
 BYTE   W96
//  #04 //026   ----------------------------------------
 BYTE   W17
 BYTE   EOT
 BYTE   Dn4  v086
 BYTE   W07
 BYTE   N11  Dn4  v052
 BYTE   N11  Dn5
 BYTE   W12
 BYTE   Fn4  v084
 BYTE   N11  Fn5
 BYTE   W12
 BYTE   En4
 BYTE   N11  En5
 BYTE   W12
 BYTE   Gn4
 BYTE   N11  Gn5
 BYTE   W12
 BYTE   Fn4
 BYTE   N11  Fn5
 BYTE   W12
 BYTE   Dn4
 BYTE   N11  Dn5
 BYTE   W12
//  #04 //027   ----------------------------------------
 BYTE   Gn4
 BYTE   N11  Gn5
 BYTE   W12
 BYTE   As4
 BYTE   N11  As5
 BYTE   W12
 BYTE   An4
 BYTE   N11  An5
 BYTE   W12
 BYTE   Fn4
 BYTE   N11  Fn5
 BYTE   W12
 BYTE   N68  Dn4
 BYTE   N68  Dn5
 BYTE   W48
//  #04 //028   ----------------------------------------
 BYTE   W24
 BYTE   N23  En4
 BYTE   N23  En5
 BYTE   W24
 BYTE   Gn4
 BYTE   N23  Gn5
 BYTE   W24
 BYTE   N68  Fn4
 BYTE   N68  Fn5
 BYTE   W24
//  #04 //029   ----------------------------------------
 BYTE   W48
 BYTE   N23  Fn4
 BYTE   N23  Fn5
 BYTE   W24
 BYTE   Gn4
 BYTE   N23  Gn5
 BYTE   W24
//  #04 //030   ----------------------------------------
 BYTE   N68  Gs4
 BYTE   N68  Gs5
 BYTE   W72
 BYTE   N23  Gn4
 BYTE   N23  Gn5
 BYTE   W24
//  #04 //031   ----------------------------------------
 BYTE   As4
 BYTE   N23  As5
 BYTE   W24
 BYTE   N92  Gs4
 BYTE   N92  Gs5
 BYTE   W72
//  #04 //032   ----------------------------------------
 BYTE   W24
 BYTE   N11  Gs4  v056
 BYTE   N11  Gs5
 BYTE   W24
 BYTE   N68  Gs4  v084
 BYTE   N68  Gs5
 BYTE   W48
//  #04 //033   ----------------------------------------
 BYTE   W24
 BYTE   N23  Gn4
 BYTE   N23  Gn5
 BYTE   W24
 BYTE   As4
 BYTE   N23  As5
 BYTE   W24
 BYTE   TIE  Gs4
 BYTE   TIE  Gs5
 BYTE   W24
//  #04 //034   ----------------------------------------
 BYTE   W80
 BYTE   W03
 BYTE   EOT
 BYTE   Gs4  v092
 BYTE   W01
 BYTE   N11  Gs4  v056
 BYTE   N11  Gs5
 BYTE   W12
//  #04 //035   ----------------------------------------
 BYTE   N68  Gs3  v092
 BYTE   N68  Cn4
 BYTE   W72
 BYTE   Gn3
 BYTE   N68  Bn3
 BYTE   W24
//  #04 //036   ----------------------------------------
 BYTE   W48
 BYTE   Fs3
 BYTE   N68  As3
 BYTE   W48
//  #04 //037   ----------------------------------------
 BYTE   W24
 BYTE   Fn3
 BYTE   N68  Gs3
 BYTE   W72
//  #04 //038   ----------------------------------------
Label_015D8D1C:
 BYTE   N68  Gs3  v072
 BYTE   N68  Cn4
 BYTE   N23  Fn5  v096
 BYTE   W24
 BYTE   N11
 BYTE   W12
 BYTE   Gn5
 BYTE   W12
 BYTE   N05  Gs5
 BYTE   W06
 BYTE   Gn5
 BYTE   W06
 BYTE   N11  Fn5
 BYTE   W12
 BYTE   N68  Gn3  v072
 BYTE   N68  Dn4
 BYTE   N56  Gn5  v096
 BYTE   W24
 BYTE   PEND 
//  #04 //039   ----------------------------------------
Label_015D8D3B:
 BYTE   W42
 BYTE   N05  Gn5  v068
 BYTE   W06
 BYTE   N68  As3  v072
 BYTE   N68  Ds4
 BYTE   N23  As5  v096
 BYTE   W24
 BYTE   N11
 BYTE   W12
 BYTE   Cn6
 BYTE   W12
 BYTE   PEND 
//  #04 //040   ----------------------------------------
 BYTE   N05  Cs6
 BYTE   W06
 BYTE   Cn6
 BYTE   W06
 BYTE   N11  As5
 BYTE   W12
 BYTE   N68  Fn3  v072
 BYTE   N68  Cn4
 BYTE   N56  Cn6  v096
 BYTE   W66
 BYTE   N05  Cn6  v068
 BYTE   W06
//  #04 //041   ----------------------------------------
 BYTE   PATT
  POIN2 Label_015D8D1C
//  #04 //042   ----------------------------------------
 BYTE   PATT
  POIN2 Label_015D8D3B
//  #04 //043   ----------------------------------------
 BYTE   N05  Cs6  v096
 BYTE   W06
 BYTE   Cn6
 BYTE   W06
 BYTE   N11  As5
 BYTE   W12
 BYTE   N05  An3  v072
 BYTE   N05  Dn4
 BYTE   N05  Dn6  v096
 BYTE   W24
 BYTE   TIE  Dn4  v072
 BYTE   W48
//  #04 //044   ----------------------------------------
 BYTE   W52
 BYTE   W01
 BYTE   EOT
 BYTE   W19
 BYTE   N11  An3  v092
 BYTE   N11  Dn4
 BYTE   N05  Dn6  v096
 BYTE   W24
//  #04 //045   ----------------------------------------
 BYTE   N92  Dn4  v092
 BYTE   W96
//  #04 //046   ----------------------------------------
 BYTE   W24
 BYTE   N11  Cn4
 BYTE   N11  Fn4
 BYTE   N05  Fn5  v096
 BYTE   W24
 BYTE   N92  Fn4  v092
 BYTE   W48
//  #04 //047   ----------------------------------------
 BYTE   W72
 BYTE   N11  Cn4
 BYTE   N11  Fn4
 BYTE   N05  Fn5  v096
 BYTE   W24
//  #04 //048   ----------------------------------------
 BYTE   N92  Fn4  v092
 BYTE   W96
//  #04 //049   ----------------------------------------
 BYTE   W24
 BYTE   N11  An3
 BYTE   N11  Dn4
 BYTE   N05  Dn6  v096
 BYTE   W24
 BYTE   N92  Dn4  v092
 BYTE   W48
//  #04 //050   ----------------------------------------
 BYTE   W72
 BYTE   N11  An3
 BYTE   N11  Dn4
 BYTE   N05  Dn6  v096
 BYTE   W24
//  #04 //051   ----------------------------------------
 BYTE   N92  Dn4  v092
 BYTE   W96
//  #04 //052   ----------------------------------------
 BYTE   W24
 BYTE   N68  Fn4
 BYTE   N68  Cs5
 BYTE   N68  An5
 BYTE   W72
//  #04 //053   ----------------------------------------
 BYTE   En4
 BYTE   N68  Gs4
 BYTE   N68  Gs5
 BYTE   W72
 BYTE   N23  Ds4
 BYTE   N23  Bn4
 BYTE   N23  Gn5
 BYTE   W24
//  #04 //054   ----------------------------------------
 BYTE   Gn4
 BYTE   N23  Bn4
 BYTE   N23  Ds5
 BYTE   W24
 BYTE   Ds4
 BYTE   N23  Gn4
 BYTE   N23  Bn4
 BYTE   W24
 BYTE   N23
 BYTE   N23  Ds5
 BYTE   N23  Gn5
 BYTE   W24
 BYTE   Ds5
 BYTE   N23  Gn5
 BYTE   N23  Bn5
 BYTE   W24
//  #04 //055   ----------------------------------------
 BYTE   Bn4
 BYTE   N23  Ds5
 BYTE   N23  Gn5
 BYTE   W24
 BYTE   N92  Ds2
 BYTE   N11  An4
 BYTE   N11  Ds5
 BYTE   N11  An5
 BYTE   W12
 BYTE   TIE  An3
 BYTE   TIE  Ds4
 BYTE   TIE  An4
 BYTE   W60
//  #04 //056   ----------------------------------------
 BYTE   W56
 BYTE   W03
 BYTE   EOT
 BYTE   An3  v075
 BYTE   An4
 BYTE   W13
 BYTE   N92  Ds2
 BYTE   N11  An4
 BYTE   N11  Ds5
 BYTE   N11  An5
 BYTE   W12
 BYTE   TIE  An3
 BYTE   TIE  Ds4
 BYTE   TIE  An4
 BYTE   W12
//  #04 //057   ----------------------------------------
 BYTE   W96
//  #04 //058   ----------------------------------------
 BYTE   W11
 BYTE   EOT
 BYTE   An3  v075
 BYTE   An4
 BYTE   W84
 BYTE   W01
//  #04 //059   ----------------------------------------
 BYTE   GoTo
  POIN2 Label_015D8B9E
//  #04 //060   ----------------------------------------
 BYTE   W23
 BYTE   FINE

//**************** Track 5 (Midi-Chn.4) ****************//

DyedInBlood_005:
//  #05 //000   ----------------------------------------
 BYTE   KEYSH   DyedInBlood_key+0
 BYTE   VOICE   40
 BYTE   VOL   36*DyedInBlood_mvl/mxv
 BYTE   PAN   c_v+0
 BYTE   N92  Cn4  v072
 BYTE   N92  En4
 BYTE   W96
//  #05 //001   ----------------------------------------
 BYTE   Bn3
 BYTE   N92  Ds4
 BYTE   W96
//  #05 //002   ----------------------------------------
 BYTE   As3
 BYTE   N92  Dn4
 BYTE   W96
//  #05 //003   ----------------------------------------
 BYTE   An3
 BYTE   N92  Cn4
 BYTE   W96
//  #05 //004   ----------------------------------------
 BYTE   Cn4  v068
 BYTE   N92  En4
 BYTE   N92  An4  v060
 BYTE   W96
//  #05 //005   ----------------------------------------
 BYTE   Ds4  v068
 BYTE   N92  Fs4
 BYTE   N92  Bn4  v060
 BYTE   W96
//  #05 //006   ----------------------------------------
 BYTE   Dn4  v068
 BYTE   N92  Fn4
 BYTE   N92  As4  v060
 BYTE   W96
//  #05 //007   ----------------------------------------
 BYTE   TIE  Cn4  v068
 BYTE   TIE  En4
 BYTE   TIE  An4  v060
 BYTE   W96
//  #05 //008   ----------------------------------------
 BYTE   W92
 BYTE   W03
 BYTE   EOT
 BYTE   Cn4  v076
 BYTE   An4
 BYTE   W01
//  #05 //009   ----------------------------------------
Label_015D8E86:
 BYTE   N07  Cn3  v092
 BYTE   N07  En3
 BYTE   W12
 BYTE   N06  An2  v056
 BYTE   N06  Cn3
 BYTE   W12
 BYTE   An2
 BYTE   N06  Cn3
 BYTE   W12
 BYTE   N07  Cn3  v092
 BYTE   N07  En3
 BYTE   W12
 BYTE   N06  An2  v056
 BYTE   N06  Cn3
 BYTE   W12
 BYTE   An2
 BYTE   N06  Cn3
 BYTE   W12
 BYTE   N07  Bn2  v092
 BYTE   N07  Dn3
 BYTE   W12
 BYTE   N06  Bn2  v056
 BYTE   N06  Dn3
 BYTE   W12
 BYTE   PEND 
//  #05 //010   ----------------------------------------
Label_015D8EB3:
 BYTE   N07  Dn3  v092
 BYTE   N07  Fn3
 BYTE   W12
 BYTE   N06  Dn3  v056
 BYTE   N06  Fn3
 BYTE   W12
 BYTE   N07  Cn3  v092
 BYTE   N07  En3
 BYTE   W12
 BYTE   N06  An2  v056
 BYTE   N06  Cn3
 BYTE   W12
 BYTE   An2
 BYTE   N06  Cn3
 BYTE   W12
 BYTE   N07  Cn3  v092
 BYTE   N07  En3
 BYTE   W12
 BYTE   N06  An2  v056
 BYTE   N06  Cn3
 BYTE   W12
 BYTE   An2
 BYTE   N06  Cn3
 BYTE   W12
 BYTE   PEND 
//  #05 //011   ----------------------------------------
Label_015D8EE0:
 BYTE   N07  Dn3  v092
 BYTE   N07  Fn3
 BYTE   W12
 BYTE   N06  Dn3  v056
 BYTE   N06  Fn3
 BYTE   W12
 BYTE   N07  Bn2  v092
 BYTE   N07  Dn3
 BYTE   W12
 BYTE   N06  Bn2  v056
 BYTE   N06  Dn3
 BYTE   W12
 BYTE   N07  Cn3  v092
 BYTE   N07  En3
 BYTE   W12
 BYTE   N06  An2  v056
 BYTE   N06  Cn3
 BYTE   W12
 BYTE   An2
 BYTE   N06  Cn3
 BYTE   W12
 BYTE   N07  Cn3  v092
 BYTE   N07  En3
 BYTE   W12
 BYTE   PEND 
//  #05 //012   ----------------------------------------
Label_015D8F0F:
 BYTE   N06  An2  v056
 BYTE   N06  Cn3
 BYTE   W12
 BYTE   An2
 BYTE   N06  Cn3
 BYTE   W12
 BYTE   N07  Bn2  v092
 BYTE   N07  Dn3
 BYTE   W12
 BYTE   N06  Bn2  v056
 BYTE   N06  Dn3
 BYTE   W12
 BYTE   N07  Dn3  v092
 BYTE   N07  Fn3
 BYTE   W12
 BYTE   N06  Dn3  v056
 BYTE   N06  Fn3
 BYTE   W12
 BYTE   N07  Cn3  v092
 BYTE   N07  En3
 BYTE   W12
 BYTE   N06  An2  v056
 BYTE   N06  Cn3
 BYTE   W12
 BYTE   PEND 
//  #05 //013   ----------------------------------------
 BYTE   An2
 BYTE   N06  Cn3
 BYTE   W12
 BYTE   N07  Cn3  v092
 BYTE   N07  En3
 BYTE   W12
 BYTE   N06  An2  v056
 BYTE   N06  Cn3
 BYTE   W12
 BYTE   An2
 BYTE   N06  Cn3
 BYTE   W12
 BYTE   N07  Dn3  v092
 BYTE   N07  Fn3
 BYTE   W12
 BYTE   N06  Dn3  v056
 BYTE   N06  Fn3
 BYTE   W12
 BYTE   N07  Bn2  v092
 BYTE   N07  Dn3
 BYTE   W12
 BYTE   N06  Bn2  v056
 BYTE   N06  Dn3
 BYTE   W12
//  #05 //014   ----------------------------------------
 BYTE   PATT
  POIN2 Label_015D8E86
//  #05 //015   ----------------------------------------
 BYTE   PATT
  POIN2 Label_015D8EB3
//  #05 //016   ----------------------------------------
 BYTE   PATT
  POIN2 Label_015D8EE0
//  #05 //017   ----------------------------------------
 BYTE   PATT
  POIN2 Label_015D8F0F
//  #05 //018   ----------------------------------------
 BYTE   N06  An2  v056
 BYTE   N06  Cn3
 BYTE   W12
 BYTE   N07  Cn3  v092
 BYTE   N07  En3
 BYTE   W12
 BYTE   N06  An2  v056
 BYTE   N06  Cn3
 BYTE   W12
 BYTE   An2
 BYTE   N06  Cn3
 BYTE   W12
 BYTE   N05  Dn3  v092
 BYTE   N07  Fn3
 BYTE   W12
 BYTE   N06  Dn3  v056
 BYTE   N06  Fn3
 BYTE   W12
 BYTE   N07  Bn2  v092
 BYTE   N07  Dn3
 BYTE   W12
 BYTE   N06  Bn2  v056
 BYTE   N06  Dn3
 BYTE   W12
//  #05 //019   ----------------------------------------
 BYTE   N07  Gs2  v092
 BYTE   N07  Cn3
 BYTE   W12
 BYTE   N06  Fn2  v056
 BYTE   N06  Gs2
 BYTE   W12
 BYTE   Fn2
 BYTE   N06  Gs2
 BYTE   W12
 BYTE   N07  Gs2  v092
 BYTE   N07  Cn3
 BYTE   W12
 BYTE   N06  Fn2  v056
 BYTE   N06  Gs2
 BYTE   W12
 BYTE   Fn2
 BYTE   N06  Gs2
 BYTE   W12
 BYTE   N07  Fn2  v092
 BYTE   N07  As2
 BYTE   W12
 BYTE   N06  Fn2  v056
 BYTE   N06  As2
 BYTE   W12
//  #05 //020   ----------------------------------------
 BYTE   N07  As2  v092
 BYTE   N07  Cs3
 BYTE   W12
 BYTE   N06  As2  v056
 BYTE   N06  Cs3
 BYTE   W12
 BYTE   N07  Gs2  v092
 BYTE   N07  Cn3
 BYTE   W12
 BYTE   N06  Fn2  v056
 BYTE   N06  Gs2
 BYTE   W12
 BYTE   Fn2
 BYTE   N06  Gs2
 BYTE   W12
 BYTE   N07  Gs2  v092
 BYTE   N07  Cn3
 BYTE   W12
 BYTE   N06  Fn2  v056
 BYTE   N06  Gs2
 BYTE   W12
 BYTE   Fn2
 BYTE   N06  Gs2
 BYTE   W12
//  #05 //021   ----------------------------------------
 BYTE   N07  As2  v092
 BYTE   N07  Cs3
 BYTE   W12
 BYTE   N06  As2  v056
 BYTE   N06  Cs3
 BYTE   W12
 BYTE   N07  Fn2  v092
 BYTE   N07  As2
 BYTE   W12
 BYTE   N06  Fn2  v056
 BYTE   N06  As2
 BYTE   W12
 BYTE   N07  Gs2  v092
 BYTE   N07  Cn3
 BYTE   W12
 BYTE   N06  Fn2  v056
 BYTE   N06  Gs2
 BYTE   W12
 BYTE   Fn2
 BYTE   N06  Gs2
 BYTE   W12
 BYTE   N07  Gs2  v092
 BYTE   N07  Cn3
 BYTE   W12
//  #05 //022   ----------------------------------------
 BYTE   N06  Fn2  v056
 BYTE   N06  Gs2
 BYTE   W12
 BYTE   Fn2
 BYTE   N06  Gs2
 BYTE   W12
 BYTE   N07  Fn2  v092
 BYTE   N07  As2
 BYTE   W12
 BYTE   N06  Fn2  v056
 BYTE   N06  As2
 BYTE   W12
 BYTE   N07  As2  v092
 BYTE   N07  Cs3
 BYTE   W12
 BYTE   N06  As2  v056
 BYTE   N06  Cs3
 BYTE   W12
 BYTE   N07  Gs2  v092
 BYTE   N07  Cn3
 BYTE   W12
 BYTE   N06  Fn2  v056
 BYTE   N06  Gs2
 BYTE   W12
//  #05 //023   ----------------------------------------
 BYTE   Fn2
 BYTE   N06  Gs2
 BYTE   W12
 BYTE   N07  Gs2  v092
 BYTE   N07  Cn3
 BYTE   W12
 BYTE   N06  Fn2  v056
 BYTE   N06  Gs2
 BYTE   W12
 BYTE   Fn2
 BYTE   N06  Gs2
 BYTE   W12
 BYTE   N07  As2  v092
 BYTE   N07  Cs3
 BYTE   W12
 BYTE   N06  As2  v056
 BYTE   N06  Cs3
 BYTE   W12
 BYTE   N07  Fn2  v092
 BYTE   N07  As2
 BYTE   W12
 BYTE   N06  Fn2  v056
 BYTE   N06  As2
 BYTE   W12
//  #05 //024   ----------------------------------------
 BYTE   N07  Fn3  v092
 BYTE   N07  An3
 BYTE   W12
 BYTE   N06  Dn3  v056
 BYTE   N06  Fn3
 BYTE   W12
 BYTE   Dn3
 BYTE   N06  Fn3
 BYTE   W12
 BYTE   N07  Fn3  v092
 BYTE   N07  An3
 BYTE   W12
 BYTE   N06  Dn3  v056
 BYTE   N06  Fn3
 BYTE   W12
 BYTE   Dn3
 BYTE   N06  Fn3
 BYTE   W12
 BYTE   N07  Dn3  v092
 BYTE   N07  Gn3
 BYTE   W12
 BYTE   N06  Dn3  v056
 BYTE   N06  Gn3
 BYTE   W12
//  #05 //025   ----------------------------------------
 BYTE   N07  Gn3  v092
 BYTE   N07  As3
 BYTE   W12
 BYTE   N06  Gn3  v056
 BYTE   N06  As3
 BYTE   W12
 BYTE   N07  Fn3  v092
 BYTE   N07  An3
 BYTE   W12
 BYTE   N06  Dn3  v056
 BYTE   N06  Fn3
 BYTE   W12
 BYTE   Dn3
 BYTE   N06  Fn3
 BYTE   W12
 BYTE   N07  Fn3  v092
 BYTE   N07  An3
 BYTE   W12
 BYTE   N06  Dn3  v056
 BYTE   N06  Fn3
 BYTE   W12
 BYTE   Dn3
 BYTE   N06  Fn3
 BYTE   W12
//  #05 //026   ----------------------------------------
 BYTE   N07  Gn3  v092
 BYTE   N07  As3
 BYTE   W12
 BYTE   N06  Gn3  v056
 BYTE   N06  As3
 BYTE   W12
 BYTE   N07  Dn3  v092
 BYTE   N07  En3
 BYTE   W12
 BYTE   N06  Dn3  v056
 BYTE   N06  En3
 BYTE   W12
 BYTE   N07  Fn3  v092
 BYTE   N07  An3
 BYTE   W12
 BYTE   N06  Dn3  v056
 BYTE   N06  Fn3
 BYTE   W12
 BYTE   Dn3
 BYTE   N06  Fn3
 BYTE   W12
 BYTE   N07  Fn3  v092
 BYTE   N07  An3
 BYTE   W12
//  #05 //027   ----------------------------------------
 BYTE   N06  Dn3  v056
 BYTE   N06  Fn3
 BYTE   W12
 BYTE   Dn3
 BYTE   N06  Fn3
 BYTE   W12
 BYTE   N07  Dn3  v092
 BYTE   N07  Gn3
 BYTE   W12
 BYTE   N06  Dn3  v056
 BYTE   N06  Gn3
 BYTE   W12
 BYTE   N07  Gn3  v092
 BYTE   N07  As3
 BYTE   W12
 BYTE   N06  Gn3  v056
 BYTE   N06  As3
 BYTE   W12
 BYTE   N07  Fn3  v092
 BYTE   N07  An3
 BYTE   W12
 BYTE   N06  Dn3  v056
 BYTE   N06  Fn3
 BYTE   W12
//  #05 //028   ----------------------------------------
 BYTE   Dn3
 BYTE   N06  Fn3
 BYTE   W12
 BYTE   N07  Fn3  v092
 BYTE   N07  An3
 BYTE   W12
 BYTE   N06  Dn3  v056
 BYTE   N06  Fn3
 BYTE   W12
 BYTE   Dn3
 BYTE   N06  Fn3
 BYTE   W12
 BYTE   N07  Gn3  v092
 BYTE   N07  As3
 BYTE   W12
 BYTE   N06  Gn3  v056
 BYTE   N06  As3
 BYTE   W12
 BYTE   N07  Dn3  v092
 BYTE   N07  Gn3
 BYTE   W12
 BYTE   N06  Dn3  v056
 BYTE   N06  Gn3
 BYTE   W12
//  #05 //029   ----------------------------------------
 BYTE   N07  Gs3  v092
 BYTE   N07  Cn4
 BYTE   W12
 BYTE   N06  Fn3  v056
 BYTE   N06  Gs3
 BYTE   W12
 BYTE   Fn3
 BYTE   N06  Gs3
 BYTE   W12
 BYTE   N07  Gs3  v092
 BYTE   N07  Cn4
 BYTE   W12
 BYTE   N06  Fn3  v056
 BYTE   N06  Gs3
 BYTE   W12
 BYTE   Fn3
 BYTE   N06  Gs3
 BYTE   W12
 BYTE   N07  Fn3  v092
 BYTE   N07  As3
 BYTE   W12
 BYTE   N06  Fn3  v056
 BYTE   N06  As3
 BYTE   W12
//  #05 //030   ----------------------------------------
 BYTE   N07  As3  v092
 BYTE   N07  Cs4
 BYTE   W12
 BYTE   N06  As3  v056
 BYTE   N06  Cs4
 BYTE   W12
 BYTE   N07  Gs3  v092
 BYTE   N07  Cn4
 BYTE   W12
 BYTE   N06  Fn3  v056
 BYTE   N06  Gs3
 BYTE   W12
 BYTE   Fn3
 BYTE   N06  Gs3
 BYTE   W12
 BYTE   N07  Gs3  v092
 BYTE   N07  Cn4
 BYTE   W12
 BYTE   N06  Fn3  v056
 BYTE   N06  Gs3
 BYTE   W12
 BYTE   Fn3
 BYTE   N06  Gs3
 BYTE   W12
//  #05 //031   ----------------------------------------
 BYTE   N07  As3  v092
 BYTE   N07  Cs4
 BYTE   W12
 BYTE   N06  As3  v056
 BYTE   N06  Cs4
 BYTE   W12
 BYTE   N07  Fn3  v092
 BYTE   N07  As3
 BYTE   W12
 BYTE   N06  Fn3  v056
 BYTE   N06  As3
 BYTE   W12
 BYTE   N07  Gs3  v092
 BYTE   N07  Cn4
 BYTE   W12
 BYTE   N06  Fn3  v056
 BYTE   N06  Gs3
 BYTE   W12
 BYTE   Fn3
 BYTE   N06  Gs3
 BYTE   W12
 BYTE   N07  Gs3  v092
 BYTE   N07  Cn4
 BYTE   W12
//  #05 //032   ----------------------------------------
 BYTE   N06  Fn3  v056
 BYTE   N06  Gs3
 BYTE   W12
 BYTE   Fn3
 BYTE   N06  Gs3
 BYTE   W12
 BYTE   N07  Fn3  v092
 BYTE   N07  As3
 BYTE   W12
 BYTE   N06  Fn3  v056
 BYTE   N06  As3
 BYTE   W12
 BYTE   N07  As3  v092
 BYTE   N07  Cs4
 BYTE   W12
 BYTE   N06  As3  v056
 BYTE   N06  Cs4
 BYTE   W12
 BYTE   N07  Gs3  v092
 BYTE   N07  Cn4
 BYTE   W12
 BYTE   N06  Fn3  v056
 BYTE   N06  Gs3
 BYTE   W12
//  #05 //033   ----------------------------------------
 BYTE   Fn3
 BYTE   N06  Gs3
 BYTE   W12
 BYTE   N07  Gs3  v092
 BYTE   N07  Cn4
 BYTE   W12
 BYTE   N06  Fn3  v056
 BYTE   N06  Gs3
 BYTE   W12
 BYTE   Fn3
 BYTE   N06  Gs3
 BYTE   W12
 BYTE   N07  As3  v092
 BYTE   N07  Cs4
 BYTE   W12
 BYTE   N06  As3  v056
 BYTE   N06  Cs4
 BYTE   W12
 BYTE   N07  Fn3  v092
 BYTE   N07  As3
 BYTE   W12
 BYTE   N06  Fn3  v056
 BYTE   N06  As3
 BYTE   W12
//  #05 //034   ----------------------------------------
 BYTE   N68  Gs3  v080
 BYTE   N68  Cn4
 BYTE   W72
 BYTE   Gn3
 BYTE   N68  Bn3
 BYTE   W24
//  #05 //035   ----------------------------------------
 BYTE   W48
 BYTE   Fs3
 BYTE   N68  As3
 BYTE   W48
//  #05 //036   ----------------------------------------
 BYTE   W24
 BYTE   Fn3
 BYTE   N68  Gs3
 BYTE   W72
//  #05 //037   ----------------------------------------
Label_015D9260:
 BYTE   N68  Gs3  v092
 BYTE   N68  Cn4
 BYTE   N68  Fn4
 BYTE   W72
 BYTE   Bn3
 BYTE   N68  Dn4
 BYTE   N68  Gn4
 BYTE   W24
 BYTE   PEND 
//  #05 //038   ----------------------------------------
Label_015D926F:
 BYTE   W48
 BYTE   N68  As3  v092
 BYTE   N68  Ds4
 BYTE   N68  Fs4
 BYTE   W48
 BYTE   PEND 
//  #05 //039   ----------------------------------------
 BYTE   W24
 BYTE   An3
 BYTE   N68  Cn4
 BYTE   N68  Fn4
 BYTE   W72
//  #05 //040   ----------------------------------------
 BYTE   PATT
  POIN2 Label_015D9260
//  #05 //041   ----------------------------------------
 BYTE   PATT
  POIN2 Label_015D926F
//  #05 //042   ----------------------------------------
 BYTE   W24
 BYTE   N11  An3  v092
 BYTE   N11  Dn4
 BYTE   N11  Fn4
 BYTE   W72
//  #05 //043   ----------------------------------------
 BYTE   W96
//  #05 //044   ----------------------------------------
 BYTE   W96
//  #05 //045   ----------------------------------------
 BYTE   W96
//  #05 //046   ----------------------------------------
 BYTE   W96
//  #05 //047   ----------------------------------------
 BYTE   W96
//  #05 //048   ----------------------------------------
 BYTE   W96
//  #05 //049   ----------------------------------------
 BYTE   W96
//  #05 //050   ----------------------------------------
 BYTE   W96
//  #05 //051   ----------------------------------------
 BYTE   W96
//  #05 //052   ----------------------------------------
 BYTE   W96
//  #05 //053   ----------------------------------------
 BYTE   W96
//  #05 //054   ----------------------------------------
 BYTE   W96
//  #05 //055   ----------------------------------------
 BYTE   W96
//  #05 //056   ----------------------------------------
 BYTE   W96
//  #05 //057   ----------------------------------------
 BYTE   W96
//  #05 //058   ----------------------------------------
 BYTE   GoTo
  POIN2 Label_015D8E86
//  #05 //059   ----------------------------------------
 BYTE   W23
 BYTE   FINE

//**************** Track 6 (Midi-Chn.5) ****************//

DyedInBlood_006:
//  #06 //000   ----------------------------------------
 BYTE   KEYSH   DyedInBlood_key+0
 BYTE   VOICE   36
 BYTE   VOL   39*DyedInBlood_mvl/mxv
 BYTE   PAN   c_v+0
 BYTE   W96
//  #06 //001   ----------------------------------------
 BYTE   W96
//  #06 //002   ----------------------------------------
 BYTE   W96
//  #06 //003   ----------------------------------------
 BYTE   W96
//  #06 //004   ----------------------------------------
 BYTE   W96
//  #06 //005   ----------------------------------------
 BYTE   W96
//  #06 //006   ----------------------------------------
 BYTE   W96
//  #06 //007   ----------------------------------------
 BYTE   W96
//  #06 //008   ----------------------------------------
 BYTE   W96
//  #06 //009   ----------------------------------------
Label_015D92CD:
 BYTE   N05  An2  v120
 BYTE   W12
 BYTE   An1
 BYTE   W12
 BYTE   N05
 BYTE   W12
 BYTE   An2
 BYTE   W12
 BYTE   An1
 BYTE   W12
 BYTE   N05
 BYTE   W12
 BYTE   An2
 BYTE   W12
 BYTE   An1
 BYTE   W12
 BYTE   PEND 
//  #06 //010   ----------------------------------------
Label_015D92E0:
 BYTE   N05  An1  v120
 BYTE   W12
 BYTE   N05
 BYTE   W12
 BYTE   An2
 BYTE   W12
 BYTE   An1
 BYTE   W12
 BYTE   N05
 BYTE   W12
 BYTE   An2
 BYTE   W12
 BYTE   An1
 BYTE   W12
 BYTE   N05
 BYTE   W12
 BYTE   PEND 
//  #06 //011   ----------------------------------------
Label_015D92F3:
 BYTE   N05  An2  v120
 BYTE   W12
 BYTE   An1
 BYTE   W12
 BYTE   N05
 BYTE   W12
 BYTE   N05
 BYTE   W12
 BYTE   An2
 BYTE   W12
 BYTE   An1
 BYTE   W12
 BYTE   N05
 BYTE   W12
 BYTE   An2
 BYTE   W12
 BYTE   PEND 
//  #06 //012   ----------------------------------------
Label_015D9306:
 BYTE   N05  An1  v120
 BYTE   W12
 BYTE   N05
 BYTE   W12
 BYTE   An2
 BYTE   W12
 BYTE   An1
 BYTE   W12
 BYTE   N05
 BYTE   W12
 BYTE   N05
 BYTE   W12
 BYTE   An2
 BYTE   W12
 BYTE   An1
 BYTE   W12
 BYTE   PEND 
//  #06 //013   ----------------------------------------
Label_015D9319:
 BYTE   N05  An1  v120
 BYTE   W12
 BYTE   An2
 BYTE   W12
 BYTE   An1
 BYTE   W12
 BYTE   N05
 BYTE   W12
 BYTE   An2
 BYTE   W12
 BYTE   An1
 BYTE   W12
 BYTE   N05
 BYTE   W12
 BYTE   N05
 BYTE   W12
 BYTE   PEND 
//  #06 //014   ----------------------------------------
 BYTE   PATT
  POIN2 Label_015D92CD
//  #06 //015   ----------------------------------------
 BYTE   PATT
  POIN2 Label_015D92E0
//  #06 //016   ----------------------------------------
 BYTE   PATT
  POIN2 Label_015D92F3
//  #06 //017   ----------------------------------------
 BYTE   PATT
  POIN2 Label_015D9306
//  #06 //018   ----------------------------------------
 BYTE   PATT
  POIN2 Label_015D9319
//  #06 //019   ----------------------------------------
 BYTE   N05  Fn2  v120
 BYTE   W12
 BYTE   Fn1
 BYTE   W12
 BYTE   N05
 BYTE   W12
 BYTE   Fn2
 BYTE   W12
 BYTE   Fn1
 BYTE   W12
 BYTE   N05
 BYTE   W12
 BYTE   Fn2
 BYTE   W12
 BYTE   Fn1
 BYTE   W12
//  #06 //020   ----------------------------------------
 BYTE   N05
 BYTE   W12
 BYTE   N05
 BYTE   W12
 BYTE   Fn2
 BYTE   W12
 BYTE   Fn1
 BYTE   W12
 BYTE   N05
 BYTE   W12
 BYTE   Fn2
 BYTE   W12
 BYTE   Fn1
 BYTE   W12
 BYTE   N05
 BYTE   W12
//  #06 //021   ----------------------------------------
 BYTE   Fn2
 BYTE   W12
 BYTE   Fn1
 BYTE   W12
 BYTE   N05
 BYTE   W12
 BYTE   N05
 BYTE   W12
 BYTE   Fn2
 BYTE   W12
 BYTE   Fn1
 BYTE   W12
 BYTE   N05
 BYTE   W12
 BYTE   Fn2
 BYTE   W12
//  #06 //022   ----------------------------------------
 BYTE   Fn1
 BYTE   W12
 BYTE   N05
 BYTE   W12
 BYTE   Fn2
 BYTE   W12
 BYTE   Fn1
 BYTE   W12
 BYTE   N05
 BYTE   W12
 BYTE   N05
 BYTE   W12
 BYTE   Fn2
 BYTE   W12
 BYTE   Fn1
 BYTE   W12
//  #06 //023   ----------------------------------------
 BYTE   N05
 BYTE   W12
 BYTE   Fn2
 BYTE   W12
 BYTE   Fn1
 BYTE   W12
 BYTE   N05
 BYTE   W12
 BYTE   Fn2
 BYTE   W12
 BYTE   Fn1
 BYTE   W12
 BYTE   N05
 BYTE   W12
 BYTE   N05
 BYTE   W12
//  #06 //024   ----------------------------------------
 BYTE   Dn3  v100
 BYTE   W12
 BYTE   Dn2  v120
 BYTE   W12
 BYTE   N05
 BYTE   W12
 BYTE   Dn3  v100
 BYTE   W12
 BYTE   Dn2  v120
 BYTE   W12
 BYTE   N05
 BYTE   W12
 BYTE   Dn3  v100
 BYTE   W12
 BYTE   Dn2  v120
 BYTE   W12
//  #06 //025   ----------------------------------------
 BYTE   N05
 BYTE   W12
 BYTE   N05
 BYTE   W12
 BYTE   Dn3  v100
 BYTE   W12
 BYTE   Dn2  v120
 BYTE   W12
 BYTE   N05
 BYTE   W12
 BYTE   Dn3  v100
 BYTE   W12
 BYTE   Dn2  v120
 BYTE   W12
 BYTE   N05
 BYTE   W12
//  #06 //026   ----------------------------------------
 BYTE   Dn3  v100
 BYTE   W12
 BYTE   Dn2  v120
 BYTE   W12
 BYTE   N05
 BYTE   W12
 BYTE   N05
 BYTE   W12
 BYTE   Dn3  v100
 BYTE   W12
 BYTE   Dn2  v120
 BYTE   W12
 BYTE   N05
 BYTE   W12
 BYTE   Dn3  v100
 BYTE   W12
//  #06 //027   ----------------------------------------
 BYTE   Dn2  v120
 BYTE   W12
 BYTE   N05
 BYTE   W12
 BYTE   Dn3  v100
 BYTE   W12
 BYTE   Dn2  v120
 BYTE   W12
 BYTE   N05
 BYTE   W12
 BYTE   N05
 BYTE   W12
 BYTE   Dn3  v100
 BYTE   W12
 BYTE   Dn2  v120
 BYTE   W12
//  #06 //028   ----------------------------------------
 BYTE   N05
 BYTE   W12
 BYTE   Dn3  v100
 BYTE   W12
 BYTE   Dn2  v120
 BYTE   W12
 BYTE   N05
 BYTE   W12
 BYTE   Dn3  v100
 BYTE   W12
 BYTE   Dn2  v120
 BYTE   W12
 BYTE   N05
 BYTE   W12
 BYTE   N05
 BYTE   W12
//  #06 //029   ----------------------------------------
 BYTE   Fn3  v092
 BYTE   W12
 BYTE   Fn2  v120
 BYTE   W12
 BYTE   N05
 BYTE   W12
 BYTE   Fn3  v092
 BYTE   W12
 BYTE   Fn2  v120
 BYTE   W12
 BYTE   N05
 BYTE   W12
 BYTE   Fn3  v092
 BYTE   W12
 BYTE   Fn2  v120
 BYTE   W12
//  #06 //030   ----------------------------------------
 BYTE   N05
 BYTE   W12
 BYTE   N05
 BYTE   W12
 BYTE   Fn3  v092
 BYTE   W12
 BYTE   Fn2  v120
 BYTE   W12
 BYTE   N05
 BYTE   W12
 BYTE   Fn3  v092
 BYTE   W12
 BYTE   Fn2  v120
 BYTE   W12
 BYTE   N05
 BYTE   W12
//  #06 //031   ----------------------------------------
 BYTE   Fn3  v092
 BYTE   W12
 BYTE   Fn2  v120
 BYTE   W12
 BYTE   N05
 BYTE   W12
 BYTE   N05
 BYTE   W12
 BYTE   Fn3  v092
 BYTE   W12
 BYTE   Fn2  v120
 BYTE   W12
 BYTE   N05
 BYTE   W12
 BYTE   Fn3  v092
 BYTE   W12
//  #06 //032   ----------------------------------------
 BYTE   Fn2  v120
 BYTE   W12
 BYTE   N05
 BYTE   W12
 BYTE   Fn3  v092
 BYTE   W12
 BYTE   Fn2  v120
 BYTE   W12
 BYTE   N05
 BYTE   W12
 BYTE   N05
 BYTE   W12
 BYTE   Fn3  v092
 BYTE   W12
 BYTE   Fn2  v120
 BYTE   W12
//  #06 //033   ----------------------------------------
 BYTE   N05
 BYTE   W12
 BYTE   Fn3  v092
 BYTE   W12
 BYTE   Fn2  v120
 BYTE   W12
 BYTE   N05
 BYTE   W12
 BYTE   Fn3  v092
 BYTE   W12
 BYTE   Fn2  v120
 BYTE   W12
 BYTE   N05
 BYTE   W12
 BYTE   N05
 BYTE   W12
//  #06 //034   ----------------------------------------
 BYTE   Fn1
 BYTE   W12
 BYTE   Fn1  v112
 BYTE   W12
 BYTE   N05
 BYTE   W12
 BYTE   Fn1  v120
 BYTE   W12
 BYTE   Fn1  v112
 BYTE   W12
 BYTE   N05
 BYTE   W12
 BYTE   Fn1  v120
 BYTE   W12
 BYTE   Fn1  v112
 BYTE   W12
//  #06 //035   ----------------------------------------
 BYTE   Fn1  v120
 BYTE   W12
 BYTE   Fn1  v112
 BYTE   W12
 BYTE   Fn1  v120
 BYTE   W12
 BYTE   Fn1  v112
 BYTE   W12
 BYTE   N05
 BYTE   W12
 BYTE   Fn1  v120
 BYTE   W12
 BYTE   Fn1  v112
 BYTE   W12
 BYTE   N05
 BYTE   W12
//  #06 //036   ----------------------------------------
 BYTE   Fn1  v120
 BYTE   W12
 BYTE   Fn1  v112
 BYTE   W12
 BYTE   Fn1  v120
 BYTE   W12
 BYTE   Fn1  v112
 BYTE   W12
 BYTE   Fn1  v120
 BYTE   W12
 BYTE   Fn1  v112
 BYTE   W12
 BYTE   Fn1  v120
 BYTE   W12
 BYTE   Fn1  v112
 BYTE   W12
//  #06 //037   ----------------------------------------
Label_015D94AA:
 BYTE   N05  Fn1  v120
 BYTE   W12
 BYTE   Fn1  v112
 BYTE   W12
 BYTE   N05
 BYTE   W12
 BYTE   Fn1  v120
 BYTE   W12
 BYTE   Fn1  v112
 BYTE   W12
 BYTE   N05
 BYTE   W12
 BYTE   Bn1  v120
 BYTE   W12
 BYTE   Bn1  v112
 BYTE   W12
 BYTE   PEND 
//  #06 //038   ----------------------------------------
Label_015D94C2:
 BYTE   N05  Bn1  v120
 BYTE   W12
 BYTE   Bn1  v112
 BYTE   W12
 BYTE   Bn1  v120
 BYTE   W12
 BYTE   Bn1  v112
 BYTE   W12
 BYTE   Ds2
 BYTE   W12
 BYTE   Ds2  v120
 BYTE   W12
 BYTE   Ds2  v112
 BYTE   W12
 BYTE   N05
 BYTE   W12
 BYTE   PEND 
//  #06 //039   ----------------------------------------
 BYTE   Ds2  v120
 BYTE   W12
 BYTE   Ds2  v112
 BYTE   W12
 BYTE   Fn1  v120
 BYTE   W12
 BYTE   Fn1  v112
 BYTE   W12
 BYTE   Fn1  v120
 BYTE   W12
 BYTE   Fn1  v112
 BYTE   W12
 BYTE   Fn1  v120
 BYTE   W12
 BYTE   Fn1  v112
 BYTE   W12
//  #06 //040   ----------------------------------------
 BYTE   PATT
  POIN2 Label_015D94AA
//  #06 //041   ----------------------------------------
 BYTE   PATT
  POIN2 Label_015D94C2
//  #06 //042   ----------------------------------------
 BYTE   N05  Ds2  v120
 BYTE   W12
 BYTE   Ds2  v112
 BYTE   W12
 BYTE   Dn2  v120
 BYTE   W12
 BYTE   Dn2  v112
 BYTE   W12
 BYTE   Dn2  v120
 BYTE   W12
 BYTE   Dn2  v112
 BYTE   W12
 BYTE   Dn2  v120
 BYTE   W12
 BYTE   Dn2  v112
 BYTE   W12
//  #06 //043   ----------------------------------------
Label_015D9515:
 BYTE   N05  Dn2  v120
 BYTE   W12
 BYTE   Dn2  v112
 BYTE   W12
 BYTE   Dn2  v120
 BYTE   W12
 BYTE   Dn2  v112
 BYTE   W12
 BYTE   Dn2  v120
 BYTE   W12
 BYTE   Dn2  v112
 BYTE   W12
 BYTE   Dn2  v120
 BYTE   W12
 BYTE   Dn2  v112
 BYTE   W12
 BYTE   PEND 
//  #06 //044   ----------------------------------------
 BYTE   PATT
  POIN2 Label_015D9515
//  #06 //045   ----------------------------------------
 BYTE   N05  Dn2  v120
 BYTE   W12
 BYTE   Dn2  v112
 BYTE   W12
 BYTE   Fn2  v120
 BYTE   W12
 BYTE   Fn2  v112
 BYTE   W12
 BYTE   Fn2  v120
 BYTE   W12
 BYTE   Fn2  v112
 BYTE   W12
 BYTE   Fn2  v120
 BYTE   W12
 BYTE   Fn2  v112
 BYTE   W12
//  #06 //046   ----------------------------------------
Label_015D954D:
 BYTE   N05  Fn2  v120
 BYTE   W12
 BYTE   Fn2  v112
 BYTE   W12
 BYTE   Fn2  v120
 BYTE   W12
 BYTE   Fn2  v112
 BYTE   W12
 BYTE   Fn2  v120
 BYTE   W12
 BYTE   Fn2  v112
 BYTE   W12
 BYTE   Fn2  v120
 BYTE   W12
 BYTE   Fn2  v112
 BYTE   W12
 BYTE   PEND 
//  #06 //047   ----------------------------------------
 BYTE   PATT
  POIN2 Label_015D954D
//  #06 //048   ----------------------------------------
 BYTE   N05  Fn2  v120
 BYTE   W12
 BYTE   Fn2  v112
 BYTE   W12
 BYTE   Dn2  v120
 BYTE   W12
 BYTE   Dn2  v112
 BYTE   W12
 BYTE   Dn2  v120
 BYTE   W12
 BYTE   Dn2  v112
 BYTE   W12
 BYTE   Dn2  v120
 BYTE   W12
 BYTE   Dn2  v112
 BYTE   W12
//  #06 //049   ----------------------------------------
 BYTE   PATT
  POIN2 Label_015D9515
//  #06 //050   ----------------------------------------
 BYTE   PATT
  POIN2 Label_015D9515
//  #06 //051   ----------------------------------------
 BYTE   N05  Dn2  v120
 BYTE   W12
 BYTE   Dn2  v112
 BYTE   W12
 BYTE   An2  v120
 BYTE   W12
 BYTE   An2  v112
 BYTE   W12
 BYTE   An2  v120
 BYTE   W12
 BYTE   An2  v112
 BYTE   W12
 BYTE   An2  v120
 BYTE   W12
 BYTE   An2  v112
 BYTE   W12
//  #06 //052   ----------------------------------------
 BYTE   Gs2  v120
 BYTE   W12
 BYTE   Gs2  v112
 BYTE   W12
 BYTE   Gs2  v120
 BYTE   W12
 BYTE   Gs2  v112
 BYTE   W12
 BYTE   Gs2  v120
 BYTE   W12
 BYTE   Gs2  v112
 BYTE   W12
 BYTE   Gn2  v120
 BYTE   W12
 BYTE   Gn2  v112
 BYTE   W12
//  #06 //053   ----------------------------------------
 BYTE   Gn2  v120
 BYTE   W12
 BYTE   Gn2  v112
 BYTE   W12
 BYTE   Gn2  v120
 BYTE   W12
 BYTE   Gn2  v112
 BYTE   W12
 BYTE   Ds2  v120
 BYTE   W12
 BYTE   Ds2  v112
 BYTE   W12
 BYTE   Ds2  v120
 BYTE   W12
 BYTE   Ds2  v112
 BYTE   W12
//  #06 //054   ----------------------------------------
 BYTE   Ds2  v120
 BYTE   W12
 BYTE   Ds2  v112
 BYTE   W12
 BYTE   N11  Ds2  v127
 BYTE   W72
//  #06 //055   ----------------------------------------
 BYTE   W72
 BYTE   N11
 BYTE   W24
//  #06 //056   ----------------------------------------
 BYTE   W96
//  #06 //057   ----------------------------------------
 BYTE   W96
//  #06 //058   ----------------------------------------
 BYTE   GoTo
  POIN2 Label_015D92CD
//  #06 //059   ----------------------------------------
 BYTE   W23
 BYTE   FINE

//**************** Track 7 (Midi-Chn.6) ****************//

DyedInBlood_007:
//  #07 //000   ----------------------------------------
 BYTE   KEYSH   DyedInBlood_key+0
 BYTE   VOICE   6
 BYTE   VOL   25*DyedInBlood_mvl/mxv
 BYTE   PAN   c_v-50
 BYTE   N92  En3  v080
 BYTE   W03
 BYTE   TIE  An3  v088
 BYTE   W92
 BYTE   W01
//  #07 //001   ----------------------------------------
 BYTE   W05
 BYTE   EOT
 BYTE   W90
 BYTE   W01
//  #07 //002   ----------------------------------------
 BYTE   W96
//  #07 //003   ----------------------------------------
 BYTE   W96
//  #07 //004   ----------------------------------------
Label_0178C393:
 BYTE   N92  En3  v080
 BYTE   W03
 BYTE   TIE  An3  v088
 BYTE   W92
 BYTE   W01
 BYTE   PEND 
//  #07 //005   ----------------------------------------
 BYTE   W05
 BYTE   EOT
 BYTE   W90
 BYTE   W01
//  #07 //006   ----------------------------------------
 BYTE   W96
//  #07 //007   ----------------------------------------
 BYTE   W96
//  #07 //008   ----------------------------------------
 BYTE   W96
//  #07 //009   ----------------------------------------
Label_0178C3A4:
//  #07 //010   ----------------------------------------
 BYTE   PATT
  POIN2 Label_0178C393
//  #07 //011   ----------------------------------------
 BYTE   W05
 BYTE   EOT
 BYTE   An3
 BYTE   W90
 BYTE   W01
//  #07 //012   ----------------------------------------
 BYTE   W96
//  #07 //013   ----------------------------------------
 BYTE   W96
//  #07 //014   ----------------------------------------
 BYTE   W96
//  #07 //015   ----------------------------------------
 BYTE   PATT
  POIN2 Label_0178C393
//  #07 //016   ----------------------------------------
 BYTE   W05
 BYTE   EOT
 BYTE   An3
 BYTE   W90
 BYTE   W01
//  #07 //017   ----------------------------------------
 BYTE   W96
//  #07 //018   ----------------------------------------
 BYTE   W96
//  #07 //019   ----------------------------------------
 BYTE   W96
//  #07 //020   ----------------------------------------
 BYTE   W96
//  #07 //021   ----------------------------------------
 BYTE   W96
//  #07 //022   ----------------------------------------
 BYTE   W96
//  #07 //023   ----------------------------------------
 BYTE   W96
//  #07 //024   ----------------------------------------
 BYTE   W96
//  #07 //025   ----------------------------------------
 BYTE   W96
//  #07 //026   ----------------------------------------
 BYTE   W96
//  #07 //027   ----------------------------------------
 BYTE   W96
//  #07 //028   ----------------------------------------
 BYTE   W96
//  #07 //029   ----------------------------------------
 BYTE   W96
//  #07 //030   ----------------------------------------
 BYTE   W96
//  #07 //031   ----------------------------------------
 BYTE   W96
//  #07 //032   ----------------------------------------
 BYTE   W96
//  #07 //033   ----------------------------------------
 BYTE   W96
//  #07 //034   ----------------------------------------
 BYTE   W96
//  #07 //035   ----------------------------------------
Label_0178C3CD:
 BYTE   N68  As3  v104
 BYTE   W72
 BYTE   An3
 BYTE   W24
 BYTE   PEND 
//  #07 //036   ----------------------------------------
 BYTE   W48
 BYTE   Gs3
 BYTE   W48
//  #07 //037   ----------------------------------------
 BYTE   W24
 BYTE   Gn3
 BYTE   W72
//  #07 //038   ----------------------------------------
 BYTE   PATT
  POIN2 Label_0178C3CD
//  #07 //039   ----------------------------------------
 BYTE   W48
 BYTE   N68  Gs3  v104
 BYTE   W48
//  #07 //040   ----------------------------------------
 BYTE   W24
 BYTE   Gn3
 BYTE   W72
//  #07 //041   ----------------------------------------
 BYTE   PATT
  POIN2 Label_0178C3CD
//  #07 //042   ----------------------------------------
 BYTE   W48
 BYTE   N68  Gs3  v104
 BYTE   W48
//  #07 //043   ----------------------------------------
 BYTE   W24
 BYTE   En4
 BYTE   W72
//  #07 //044   ----------------------------------------
 BYTE   W96
//  #07 //045   ----------------------------------------
 BYTE   W96
//  #07 //046   ----------------------------------------
 BYTE   W96
//  #07 //047   ----------------------------------------
 BYTE   W96
//  #07 //048   ----------------------------------------
 BYTE   W96
//  #07 //049   ----------------------------------------
 BYTE   W96
//  #07 //050   ----------------------------------------
 BYTE   W96
//  #07 //051   ----------------------------------------
 BYTE   W96
//  #07 //052   ----------------------------------------
 BYTE   W96
//  #07 //053   ----------------------------------------
 BYTE   W96
//  #07 //054   ----------------------------------------
 BYTE   W96
//  #07 //055   ----------------------------------------
 BYTE   W96
//  #07 //056   ----------------------------------------
 BYTE   W96
//  #07 //057   ----------------------------------------
 BYTE   W96
//  #07 //058   ----------------------------------------
 BYTE   W96
//  #07 //059   ----------------------------------------
 BYTE   GoTo
  POIN2 Label_0178C3A4
//  #07 //060   ----------------------------------------
 BYTE   W23
 BYTE   FINE

//**************** Track 8 (Midi-Chn.7) ****************//

DyedInBlood_008:
//  #08 //000   ----------------------------------------
 BYTE   KEYSH   DyedInBlood_key+0
 BYTE   VOICE   18
 BYTE   VOL   30*DyedInBlood_mvl/mxv
 BYTE   PAN   c_v+0
 BYTE   W96
//  #08 //001   ----------------------------------------
 BYTE   W96
//  #08 //002   ----------------------------------------
 BYTE   W96
//  #08 //003   ----------------------------------------
 BYTE   W96
//  #08 //004   ----------------------------------------
 BYTE   W96
//  #08 //005   ----------------------------------------
 BYTE   W96
//  #08 //006   ----------------------------------------
 BYTE   W96
//  #08 //007   ----------------------------------------
 BYTE   W96
//  #08 //008   ----------------------------------------
 BYTE   W96
//  #08 //009   ----------------------------------------
Label_015D9611:
 BYTE   N05  En5  v092
 BYTE   W36
 BYTE   N05
 BYTE   W36
 BYTE   Dn5
 BYTE   W24
 BYTE   PEND 
//  #08 //010   ----------------------------------------
Label_015D961A:
 BYTE   N05  Fn5  v092
 BYTE   W24
 BYTE   En5
 BYTE   W36
 BYTE   N05
 BYTE   W36
 BYTE   PEND 
//  #08 //011   ----------------------------------------
Label_015D9623:
 BYTE   N05  Fn5  v092
 BYTE   W24
 BYTE   Dn5
 BYTE   W24
 BYTE   En5
 BYTE   W36
 BYTE   N05
 BYTE   W12
 BYTE   PEND 
//  #08 //012   ----------------------------------------
Label_015D962E:
 BYTE   W24
 BYTE   N05  Dn5  v092
 BYTE   W24
 BYTE   Fn5
 BYTE   W24
 BYTE   En5
 BYTE   W24
 BYTE   PEND 
//  #08 //013   ----------------------------------------
Label_015D9638:
 BYTE   W12
 BYTE   N05  En5  v092
 BYTE   W36
 BYTE   Fn5
 BYTE   W24
 BYTE   Dn5
 BYTE   W24
 BYTE   PEND 
//  #08 //014   ----------------------------------------
 BYTE   PATT
  POIN2 Label_015D9611
//  #08 //015   ----------------------------------------
 BYTE   PATT
  POIN2 Label_015D961A
//  #08 //016   ----------------------------------------
 BYTE   PATT
  POIN2 Label_015D9623
//  #08 //017   ----------------------------------------
 BYTE   PATT
  POIN2 Label_015D962E
//  #08 //018   ----------------------------------------
 BYTE   PATT
  POIN2 Label_015D9638
//  #08 //019   ----------------------------------------
 BYTE   N05  Cn5  v092
 BYTE   W36
 BYTE   N05
 BYTE   W36
 BYTE   As4
 BYTE   W24
//  #08 //020   ----------------------------------------
 BYTE   Cs5
 BYTE   W24
 BYTE   Cn5
 BYTE   W36
 BYTE   N05
 BYTE   W36
//  #08 //021   ----------------------------------------
 BYTE   Cs5
 BYTE   W24
 BYTE   As4
 BYTE   W24
 BYTE   Cn5
 BYTE   W36
 BYTE   N05
 BYTE   W12
//  #08 //022   ----------------------------------------
 BYTE   W24
 BYTE   As4
 BYTE   W24
 BYTE   Cs5
 BYTE   W24
 BYTE   Cn5
 BYTE   W24
//  #08 //023   ----------------------------------------
 BYTE   W12
 BYTE   N05
 BYTE   W36
 BYTE   Cs5
 BYTE   W24
 BYTE   As4
 BYTE   W24
//  #08 //024   ----------------------------------------
 BYTE   An5
 BYTE   W36
 BYTE   N05
 BYTE   W36
 BYTE   Gn5
 BYTE   W24
//  #08 //025   ----------------------------------------
 BYTE   As5
 BYTE   W24
 BYTE   An5
 BYTE   W36
 BYTE   N05
 BYTE   W36
//  #08 //026   ----------------------------------------
 BYTE   As5
 BYTE   W24
 BYTE   An5
 BYTE   W24
 BYTE   N05
 BYTE   W36
 BYTE   N05
 BYTE   W12
//  #08 //027   ----------------------------------------
 BYTE   W24
 BYTE   Gn5
 BYTE   W24
 BYTE   As5
 BYTE   W24
 BYTE   An5
 BYTE   W24
//  #08 //028   ----------------------------------------
 BYTE   W12
 BYTE   N05
 BYTE   W36
 BYTE   As5
 BYTE   W24
 BYTE   Gn5
 BYTE   W24
//  #08 //029   ----------------------------------------
 BYTE   Cn6
 BYTE   W36
 BYTE   N05
 BYTE   W36
 BYTE   As5
 BYTE   W24
//  #08 //030   ----------------------------------------
 BYTE   Cs6
 BYTE   W24
 BYTE   Cn6
 BYTE   W36
 BYTE   N05
 BYTE   W36
//  #08 //031   ----------------------------------------
 BYTE   Cs6
 BYTE   W24
 BYTE   As5
 BYTE   W24
 BYTE   Cn6
 BYTE   W36
 BYTE   N05
 BYTE   W12
//  #08 //032   ----------------------------------------
 BYTE   W24
 BYTE   As5
 BYTE   W24
 BYTE   Cs6
 BYTE   W24
 BYTE   Cn6
 BYTE   W24
//  #08 //033   ----------------------------------------
 BYTE   W12
 BYTE   N05
 BYTE   W36
 BYTE   Cs6
 BYTE   W24
 BYTE   As5
 BYTE   W24
//  #08 //034   ----------------------------------------
 BYTE   W96
//  #08 //035   ----------------------------------------
 BYTE   W96
//  #08 //036   ----------------------------------------
 BYTE   W96
//  #08 //037   ----------------------------------------
 BYTE   W96
//  #08 //038   ----------------------------------------
 BYTE   W96
//  #08 //039   ----------------------------------------
 BYTE   W96
//  #08 //040   ----------------------------------------
 BYTE   W96
//  #08 //041   ----------------------------------------
 BYTE   W96
//  #08 //042   ----------------------------------------
 BYTE   W96
//  #08 //043   ----------------------------------------
 BYTE   W96
//  #08 //044   ----------------------------------------
 BYTE   W96
//  #08 //045   ----------------------------------------
 BYTE   W96
//  #08 //046   ----------------------------------------
 BYTE   W96
//  #08 //047   ----------------------------------------
 BYTE   W96
//  #08 //048   ----------------------------------------
 BYTE   W96
//  #08 //049   ----------------------------------------
 BYTE   W96
//  #08 //050   ----------------------------------------
 BYTE   W96
//  #08 //051   ----------------------------------------
 BYTE   W96
//  #08 //052   ----------------------------------------
 BYTE   W96
//  #08 //053   ----------------------------------------
 BYTE   W96
//  #08 //054   ----------------------------------------
 BYTE   W96
//  #08 //055   ----------------------------------------
 BYTE   W96
//  #08 //056   ----------------------------------------
 BYTE   W96
//  #08 //057   ----------------------------------------
 BYTE   W96
//  #08 //058   ----------------------------------------
 BYTE   GoTo
  POIN2 Label_015D9611
//  #08 //059   ----------------------------------------
 BYTE   W23
 BYTE   FINE

//**************** Track 9 (Midi-Chn.8) ****************//

DyedInBlood_009:
//  #09 //000   ----------------------------------------
 BYTE   KEYSH   DyedInBlood_key+0
 BYTE   VOICE   124
 BYTE   VOL   39*DyedInBlood_mvl/mxv
 BYTE   PAN   c_v-28
 BYTE   N92  An1  v127
 BYTE   W96
//  #09 //001   ----------------------------------------
 BYTE   W96
//  #09 //002   ----------------------------------------
 BYTE   W96
//  #09 //003   ----------------------------------------
 BYTE   W48
 BYTE   N11  En1
 BYTE   W12
 BYTE   N11
 BYTE   W12
 BYTE   N11
 BYTE   W12
 BYTE   N11
 BYTE   W12
//  #09 //004   ----------------------------------------
 BYTE   N92  An1
 BYTE   W96
//  #09 //005   ----------------------------------------
 BYTE   W96
//  #09 //006   ----------------------------------------
 BYTE   W96
//  #09 //007   ----------------------------------------
 BYTE   W96
//  #09 //008   ----------------------------------------
 BYTE   N03  An1  v072
 BYTE   W04
 BYTE   An1  v076
 BYTE   W04
 BYTE   N03
 BYTE   W04
 BYTE   N03
 BYTE   W04
 BYTE   N03
 BYTE   W04
 BYTE   An1  v080
 BYTE   W04
 BYTE   N03
 BYTE   W04
 BYTE   An1  v084
 BYTE   W04
 BYTE   N03
 BYTE   W04
 BYTE   An1  v088
 BYTE   W04
 BYTE   An1  v092
 BYTE   W04
 BYTE   N03
 BYTE   W04
 BYTE   An1  v096
 BYTE   W04
 BYTE   An1  v100
 BYTE   W04
 BYTE   An1  v104
 BYTE   W04
 BYTE   An1  v108
 BYTE   W04
 BYTE   An1  v112
 BYTE   W04
 BYTE   An1  v116
 BYTE   W04
 BYTE   An1  v120
 BYTE   W04
 BYTE   An1  v124
 BYTE   W04
 BYTE   An1  v127
 BYTE   W04
 BYTE   N03
 BYTE   W04
 BYTE   N03
 BYTE   W04
 BYTE   N03
 BYTE   W04
//  #09 //009   ----------------------------------------
Label_015D9752:
 BYTE   N11  An1  v127
 BYTE   W12
 BYTE   N23  An1  v092
 BYTE   W24
 BYTE   N32  An1  v127
 BYTE   W36
 BYTE   N23
 BYTE   W24
 BYTE   PEND 
//  #09 //010   ----------------------------------------
Label_015D9761:
 BYTE   N23  An1  v127
 BYTE   W24
 BYTE   N11
 BYTE   W12
 BYTE   N23  An1  v092
 BYTE   W24
 BYTE   N32  An1  v127
 BYTE   W36
 BYTE   PEND 
//  #09 //011   ----------------------------------------
Label_015D9770:
 BYTE   N23  An1  v127
 BYTE   W24
 BYTE   N05  An1  v124
 BYTE   W06
 BYTE   An1  v127
 BYTE   W06
 BYTE   N11
 BYTE   W12
 BYTE   N11
 BYTE   W12
 BYTE   N23  An1  v092
 BYTE   W24
 BYTE   N32  An1  v127
 BYTE   W12
 BYTE   PEND 
//  #09 //012   ----------------------------------------
Label_015D9788:
 BYTE   W24
 BYTE   N23  An1  v127
 BYTE   W24
 BYTE   N23
 BYTE   W24
 BYTE   N11
 BYTE   W12
 BYTE   N23  An1  v092
 BYTE   W12
 BYTE   PEND 
//  #09 //013   ----------------------------------------
Label_015D9796:
 BYTE   W12
 BYTE   N32  An1  v127
 BYTE   W36
 BYTE   N23
 BYTE   W24
 BYTE   N05  An1  v124
 BYTE   W06
 BYTE   An1  v127
 BYTE   W06
 BYTE   N11
 BYTE   W12
 BYTE   PEND 
//  #09 //014   ----------------------------------------
 BYTE   PATT
  POIN2 Label_015D9752
//  #09 //015   ----------------------------------------
 BYTE   PATT
  POIN2 Label_015D9761
//  #09 //016   ----------------------------------------
 BYTE   PATT
  POIN2 Label_015D9770
//  #09 //017   ----------------------------------------
 BYTE   PATT
  POIN2 Label_015D9788
//  #09 //018   ----------------------------------------
 BYTE   PATT
  POIN2 Label_015D9796
//  #09 //019   ----------------------------------------
 BYTE   PATT
  POIN2 Label_015D9752
//  #09 //020   ----------------------------------------
 BYTE   PATT
  POIN2 Label_015D9761
//  #09 //021   ----------------------------------------
 BYTE   PATT
  POIN2 Label_015D9770
//  #09 //022   ----------------------------------------
 BYTE   PATT
  POIN2 Label_015D9788
//  #09 //023   ----------------------------------------
 BYTE   PATT
  POIN2 Label_015D9796
//  #09 //024   ----------------------------------------
 BYTE   N11  Dn1  v127
 BYTE   W12
 BYTE   N23  Dn1  v092
 BYTE   W24
 BYTE   N32  Dn1  v127
 BYTE   W36
 BYTE   N23
 BYTE   W24
//  #09 //025   ----------------------------------------
 BYTE   N23
 BYTE   W24
 BYTE   N11
 BYTE   W12
 BYTE   N23  Dn1  v092
 BYTE   W24
 BYTE   N32  Dn1  v127
 BYTE   W36
//  #09 //026   ----------------------------------------
 BYTE   N23
 BYTE   W24
 BYTE   N05  Dn1  v124
 BYTE   W06
 BYTE   Dn1  v127
 BYTE   W06
 BYTE   N11
 BYTE   W12
 BYTE   N11
 BYTE   W12
 BYTE   N23  Dn1  v092
 BYTE   W24
 BYTE   N32  Dn1  v127
 BYTE   W12
//  #09 //027   ----------------------------------------
 BYTE   W24
 BYTE   N23
 BYTE   W24
 BYTE   N23
 BYTE   W24
 BYTE   N11
 BYTE   W12
 BYTE   N23  Dn1  v092
 BYTE   W12
//  #09 //028   ----------------------------------------
 BYTE   W12
 BYTE   N32  Dn1  v127
 BYTE   W36
 BYTE   N23
 BYTE   W24
 BYTE   N05  Dn1  v124
 BYTE   W06
 BYTE   Dn1  v127
 BYTE   W06
 BYTE   N11
 BYTE   W12
//  #09 //029   ----------------------------------------
 BYTE   Fn1
 BYTE   W12
 BYTE   N23  Fn1  v092
 BYTE   W24
 BYTE   N32  Fn1  v127
 BYTE   W36
 BYTE   N23
 BYTE   W24
//  #09 //030   ----------------------------------------
 BYTE   N23
 BYTE   W24
 BYTE   N11
 BYTE   W12
 BYTE   N23  Fn1  v092
 BYTE   W24
 BYTE   N32  Fn1  v127
 BYTE   W36
//  #09 //031   ----------------------------------------
 BYTE   N23
 BYTE   W24
 BYTE   N05  Fn1  v124
 BYTE   W06
 BYTE   Fn1  v127
 BYTE   W06
 BYTE   N11
 BYTE   W12
 BYTE   N11
 BYTE   W12
 BYTE   N23  Fn1  v092
 BYTE   W24
 BYTE   N32  Fn1  v127
 BYTE   W12
//  #09 //032   ----------------------------------------
 BYTE   W24
 BYTE   N23
 BYTE   W24
 BYTE   N23
 BYTE   W24
 BYTE   N11
 BYTE   W12
 BYTE   N23  Fn1  v092
 BYTE   W12
//  #09 //033   ----------------------------------------
 BYTE   W12
 BYTE   N32  Fn1  v127
 BYTE   W36
 BYTE   N23
 BYTE   W24
 BYTE   N05  Fn1  v124
 BYTE   W06
 BYTE   Fn1  v127
 BYTE   W06
 BYTE   N11
 BYTE   W12
//  #09 //034   ----------------------------------------
 BYTE   N40
 BYTE   W96
//  #09 //035   ----------------------------------------
 BYTE   W96
//  #09 //036   ----------------------------------------
 BYTE   W96
//  #09 //037   ----------------------------------------
 BYTE   W96
//  #09 //038   ----------------------------------------
 BYTE   W96
//  #09 //039   ----------------------------------------
 BYTE   W96
//  #09 //040   ----------------------------------------
 BYTE   W96
//  #09 //041   ----------------------------------------
 BYTE   W96
//  #09 //042   ----------------------------------------
 BYTE   W24
 BYTE   N11  Dn2
 BYTE   W12
 BYTE   An1
 BYTE   W12
 BYTE   Dn2
 BYTE   W12
 BYTE   An1
 BYTE   W12
 BYTE   Dn2
 BYTE   W12
 BYTE   An1
 BYTE   W12
//  #09 //043   ----------------------------------------
Label_015D9882:
 BYTE   N11  Dn2  v127
 BYTE   W12
 BYTE   An1
 BYTE   W12
 BYTE   Dn2
 BYTE   W12
 BYTE   An1
 BYTE   W12
 BYTE   Dn2
 BYTE   W12
 BYTE   An1
 BYTE   W12
 BYTE   Dn2
 BYTE   W12
 BYTE   An1
 BYTE   W12
 BYTE   PEND 
//  #09 //044   ----------------------------------------
 BYTE   PATT
  POIN2 Label_015D9882
//  #09 //045   ----------------------------------------
 BYTE   N11  Dn2  v127
 BYTE   W12
 BYTE   An1
 BYTE   W24
 BYTE   Cn2
 BYTE   W24
 BYTE   N11
 BYTE   W24
 BYTE   N11
 BYTE   W12
//  #09 //046   ----------------------------------------
Label_015D98A6:
 BYTE   W12
 BYTE   N11  Cn2  v127
 BYTE   W24
 BYTE   N11
 BYTE   W24
 BYTE   N11
 BYTE   W24
 BYTE   N11
 BYTE   W12
 BYTE   PEND 
//  #09 //047   ----------------------------------------
 BYTE   PATT
  POIN2 Label_015D98A6
//  #09 //048   ----------------------------------------
 BYTE   W12
 BYTE   N11  Cn2  v127
 BYTE   W12
 BYTE   Dn2
 BYTE   W12
 BYTE   An1
 BYTE   W12
 BYTE   Dn2
 BYTE   W12
 BYTE   An1
 BYTE   W12
 BYTE   Dn2
 BYTE   W12
 BYTE   An1
 BYTE   W12
//  #09 //049   ----------------------------------------
 BYTE   PATT
  POIN2 Label_015D9882
//  #09 //050   ----------------------------------------
 BYTE   PATT
  POIN2 Label_015D9882
//  #09 //051   ----------------------------------------
 BYTE   N11  Dn2  v127
 BYTE   W12
 BYTE   N56  An1
 BYTE   W84
//  #09 //052   ----------------------------------------
 BYTE   W96
//  #09 //053   ----------------------------------------
 BYTE   W96
//  #09 //054   ----------------------------------------
 BYTE   W24
 BYTE   N11
 BYTE   W72
//  #09 //055   ----------------------------------------
 BYTE   W72
 BYTE   N11
 BYTE   W24
//  #09 //056   ----------------------------------------
 BYTE   W96
//  #09 //057   ----------------------------------------
 BYTE   W24
 BYTE   N03  An1  v072
 BYTE   W04
 BYTE   An1  v076
 BYTE   W04
 BYTE   N03
 BYTE   W04
 BYTE   N03
 BYTE   W04
 BYTE   N03
 BYTE   W04
 BYTE   An1  v080
 BYTE   W04
 BYTE   N03
 BYTE   W04
 BYTE   An1  v084
 BYTE   W04
 BYTE   N03
 BYTE   W04
 BYTE   An1  v088
 BYTE   W04
 BYTE   An1  v092
 BYTE   W04
 BYTE   N03
 BYTE   W04
 BYTE   An1  v096
 BYTE   W04
 BYTE   An1  v100
 BYTE   W04
 BYTE   An1  v104
 BYTE   W04
 BYTE   An1  v108
 BYTE   W04
 BYTE   An1  v112
 BYTE   W04
 BYTE   An1  v116
 BYTE   W04
//  #09 //058   ----------------------------------------
 BYTE   GoTo
  POIN2 Label_015D9752
//  #09 //059   ----------------------------------------
 BYTE   N03  An1  v120
 BYTE   W04
 BYTE   An1  v124
 BYTE   W04
 BYTE   An1  v127
 BYTE   W04
 BYTE   N03
 BYTE   W04
 BYTE   N03
 BYTE   W04
 BYTE   N03
 BYTE   W03
 BYTE   FINE

//**************** Track 10 (Midi-Chn.9) ****************//

DyedInBlood_010:
//  #10 //000   ----------------------------------------
 BYTE   KEYSH   DyedInBlood_key+0
 BYTE   VOICE   124
 BYTE   VOL   39*DyedInBlood_mvl/mxv
 BYTE   PAN   c_v+0
 BYTE   W96
//  #10 //001   ----------------------------------------
 BYTE   W96
//  #10 //002   ----------------------------------------
 BYTE   W96
//  #10 //003   ----------------------------------------
 BYTE   W96
//  #10 //004   ----------------------------------------
 BYTE   W96
//  #10 //005   ----------------------------------------
 BYTE   W96
//  #10 //006   ----------------------------------------
 BYTE   W96
//  #10 //007   ----------------------------------------
 BYTE   W96
//  #10 //008   ----------------------------------------
 BYTE   W96
//  #10 //009   ----------------------------------------
Label_015D994D:
 BYTE   N11  Gn1  v127
 BYTE   N92  Cn2
 BYTE   W12
 BYTE   N11  Gn1  v108
 BYTE   W12
 BYTE   N11
 BYTE   W12
 BYTE   Gn1  v127
 BYTE   W12
 BYTE   Gn1  v108
 BYTE   W12
 BYTE   N11
 BYTE   W12
 BYTE   Gn1  v127
 BYTE   W12
 BYTE   Gn1  v108
 BYTE   W12
 BYTE   PEND 
//  #10 //010   ----------------------------------------
Label_015D9968:
 BYTE   N11  Gn1  v127
 BYTE   W12
 BYTE   N05  Gn1  v108
 BYTE   W06
 BYTE   Fs1  v116
 BYTE   W06
 BYTE   N11  Gn1  v127
 BYTE   W12
 BYTE   Gn1  v108
 BYTE   W12
 BYTE   N11
 BYTE   W12
 BYTE   Gn1  v127
 BYTE   W12
 BYTE   Gn1  v108
 BYTE   W12
 BYTE   N11
 BYTE   W12
 BYTE   PEND 
//  #10 //011   ----------------------------------------
Label_015D9985:
 BYTE   N11  Gn1  v127
 BYTE   W12
 BYTE   Gn1  v108
 BYTE   W12
 BYTE   Gn1  v127
 BYTE   W12
 BYTE   N05  Gn1  v108
 BYTE   W06
 BYTE   Fs1  v116
 BYTE   W06
 BYTE   N11  Gn1  v127
 BYTE   W12
 BYTE   Gn1  v108
 BYTE   W12
 BYTE   N11
 BYTE   W12
 BYTE   Gn1  v127
 BYTE   W12
 BYTE   PEND 
//  #10 //012   ----------------------------------------
Label_015D99A3:
 BYTE   N11  Gn1  v108
 BYTE   W12
 BYTE   N11
 BYTE   W12
 BYTE   Gn1  v127
 BYTE   W12
 BYTE   Gn1  v108
 BYTE   W12
 BYTE   Gn1  v127
 BYTE   W12
 BYTE   N05  Gn1  v108
 BYTE   W06
 BYTE   Fs1  v116
 BYTE   W06
 BYTE   N11  Gn1  v127
 BYTE   W12
 BYTE   Gn1  v108
 BYTE   W12
 BYTE   PEND 
//  #10 //013   ----------------------------------------
Label_015D99C1:
 BYTE   N11  Gn1  v108
 BYTE   W12
 BYTE   Gn1  v127
 BYTE   W12
 BYTE   Gn1  v108
 BYTE   W12
 BYTE   N11
 BYTE   W12
 BYTE   Gn1  v127
 BYTE   W12
 BYTE   Gn1  v108
 BYTE   W12
 BYTE   Gn1  v127
 BYTE   W12
 BYTE   N05  Gn1  v108
 BYTE   W06
 BYTE   Fs1  v116
 BYTE   W06
 BYTE   PEND 
//  #10 //014   ----------------------------------------
 BYTE   PATT
  POIN2 Label_015D994D
//  #10 //015   ----------------------------------------
 BYTE   PATT
  POIN2 Label_015D9968
//  #10 //016   ----------------------------------------
 BYTE   PATT
  POIN2 Label_015D9985
//  #10 //017   ----------------------------------------
 BYTE   PATT
  POIN2 Label_015D99A3
//  #10 //018   ----------------------------------------
 BYTE   PATT
  POIN2 Label_015D99C1
//  #10 //019   ----------------------------------------
 BYTE   PATT
  POIN2 Label_015D994D
//  #10 //020   ----------------------------------------
 BYTE   PATT
  POIN2 Label_015D9968
//  #10 //021   ----------------------------------------
 BYTE   PATT
  POIN2 Label_015D9985
//  #10 //022   ----------------------------------------
 BYTE   PATT
  POIN2 Label_015D99A3
//  #10 //023   ----------------------------------------
 BYTE   PATT
  POIN2 Label_015D99C1
//  #10 //024   ----------------------------------------
 BYTE   PATT
  POIN2 Label_015D994D
//  #10 //025   ----------------------------------------
 BYTE   PATT
  POIN2 Label_015D9968
//  #10 //026   ----------------------------------------
 BYTE   PATT
  POIN2 Label_015D9985
//  #10 //027   ----------------------------------------
 BYTE   PATT
  POIN2 Label_015D99A3
//  #10 //028   ----------------------------------------
 BYTE   PATT
  POIN2 Label_015D99C1
//  #10 //029   ----------------------------------------
 BYTE   PATT
  POIN2 Label_015D994D
//  #10 //030   ----------------------------------------
 BYTE   PATT
  POIN2 Label_015D9968
//  #10 //031   ----------------------------------------
 BYTE   PATT
  POIN2 Label_015D9985
//  #10 //032   ----------------------------------------
 BYTE   PATT
  POIN2 Label_015D99A3
//  #10 //033   ----------------------------------------
 BYTE   PATT
  POIN2 Label_015D99C1
//  #10 //034   ----------------------------------------
Label_015D9A42:
 BYTE   N05  Gn1  v127
 BYTE   N92  Cn2
 BYTE   W06
 BYTE   N05  Gn1  v104
 BYTE   W06
 BYTE   Gn1  v120
 BYTE   W06
 BYTE   Gn1  v096
 BYTE   W06
 BYTE   N05
 BYTE   W06
 BYTE   Gn1  v108
 BYTE   W06
 BYTE   Gn1  v100
 BYTE   W06
 BYTE   N05
 BYTE   W06
 BYTE   N02  Gn1  v127
 BYTE   W03
 BYTE   Gn1  v116
 BYTE   W03
 BYTE   N05  Gn1  v124
 BYTE   W06
 BYTE   N05
 BYTE   W06
 BYTE   N05
 BYTE   W06
 BYTE   Gn1  v127
 BYTE   W06
 BYTE   Gn1  v092
 BYTE   W06
 BYTE   N05
 BYTE   W06
 BYTE   Gn1  v096
 BYTE   W06
 BYTE   PEND 
//  #10 //035   ----------------------------------------
Label_015D9A77:
 BYTE   N02  Gn1  v127
 BYTE   W03
 BYTE   N02
 BYTE   W03
 BYTE   Gn1  v120
 BYTE   W03
 BYTE   N02
 BYTE   W03
 BYTE   N05  Gn1  v100
 BYTE   W06
 BYTE   N05
 BYTE   W06
 BYTE   Gn1  v127
 BYTE   W06
 BYTE   Gn1  v112
 BYTE   W06
 BYTE   N05
 BYTE   W06
 BYTE   N05
 BYTE   W06
 BYTE   Gn1  v127
 BYTE   W06
 BYTE   Gn1  v104
 BYTE   W06
 BYTE   Gn1  v120
 BYTE   W06
 BYTE   Gn1  v096
 BYTE   W06
 BYTE   N05
 BYTE   W06
 BYTE   Gn1  v108
 BYTE   W06
 BYTE   Gn1  v100
 BYTE   W06
 BYTE   N05
 BYTE   W06
 BYTE   PEND 
//  #10 //036   ----------------------------------------
Label_015D9AA9:
 BYTE   N02  Gn1  v127
 BYTE   W03
 BYTE   Gn1  v116
 BYTE   W03
 BYTE   N05  Gn1  v124
 BYTE   W06
 BYTE   N05
 BYTE   W06
 BYTE   N05
 BYTE   W06
 BYTE   Gn1  v127
 BYTE   W06
 BYTE   Gn1  v092
 BYTE   W06
 BYTE   N05
 BYTE   W06
 BYTE   Gn1  v096
 BYTE   W06
 BYTE   N02  Gn1  v127
 BYTE   W03
 BYTE   N02
 BYTE   W03
 BYTE   Gn1  v120
 BYTE   W03
 BYTE   N02
 BYTE   W03
 BYTE   N05  Gn1  v100
 BYTE   W06
 BYTE   N05
 BYTE   W06
 BYTE   Gn1  v127
 BYTE   W06
 BYTE   Gn1  v112
 BYTE   W06
 BYTE   N05
 BYTE   W06
 BYTE   N05
 BYTE   W06
 BYTE   PEND 
//  #10 //037   ----------------------------------------
 BYTE   PATT
  POIN2 Label_015D9A42
//  #10 //038   ----------------------------------------
 BYTE   PATT
  POIN2 Label_015D9A77
//  #10 //039   ----------------------------------------
 BYTE   PATT
  POIN2 Label_015D9AA9
//  #10 //040   ----------------------------------------
 BYTE   PATT
  POIN2 Label_015D9A42
//  #10 //041   ----------------------------------------
 BYTE   PATT
  POIN2 Label_015D9A77
//  #10 //042   ----------------------------------------
 BYTE   N02  Gn1  v127
 BYTE   W03
 BYTE   Gn1  v116
 BYTE   W03
 BYTE   N05  Gn1  v124
 BYTE   W06
 BYTE   N05
 BYTE   W06
 BYTE   N05
 BYTE   W06
 BYTE   Gn1  v127
 BYTE   N92  Cn2
 BYTE   W06
 BYTE   N05  Gn1  v092
 BYTE   W06
 BYTE   N05
 BYTE   W06
 BYTE   Gn1  v096
 BYTE   W06
 BYTE   N02  Gn1  v127
 BYTE   W03
 BYTE   N02
 BYTE   W03
 BYTE   Gn1  v120
 BYTE   W03
 BYTE   N02
 BYTE   W03
 BYTE   N05  Gn1  v100
 BYTE   W06
 BYTE   N05
 BYTE   W06
 BYTE   Gn1  v127
 BYTE   W06
 BYTE   Gn1  v112
 BYTE   W06
 BYTE   N05
 BYTE   W06
 BYTE   N05
 BYTE   W06
//  #10 //043   ----------------------------------------
 BYTE   Gn1  v127
 BYTE   W06
 BYTE   Gn1  v104
 BYTE   W06
 BYTE   Gn1  v120
 BYTE   W06
 BYTE   Gn1  v096
 BYTE   W06
 BYTE   N05
 BYTE   W06
 BYTE   Gn1  v108
 BYTE   W06
 BYTE   Gn1  v100
 BYTE   W06
 BYTE   N05
 BYTE   W06
 BYTE   N02  Gn1  v127
 BYTE   W03
 BYTE   Gn1  v116
 BYTE   W03
 BYTE   N05  Gn1  v124
 BYTE   W06
 BYTE   N05
 BYTE   W06
 BYTE   N05
 BYTE   W06
 BYTE   Gn1  v127
 BYTE   N92  Cn2
 BYTE   W06
 BYTE   N05  Gn1  v092
 BYTE   W06
 BYTE   N05
 BYTE   W06
 BYTE   Gn1  v096
 BYTE   W06
//  #10 //044   ----------------------------------------
 BYTE   PATT
  POIN2 Label_015D9A77
//  #10 //045   ----------------------------------------
Label_015D9B68:
 BYTE   N02  Gn1  v127
 BYTE   W03
 BYTE   N02
 BYTE   W03
 BYTE   Gn1  v120
 BYTE   W03
 BYTE   N02
 BYTE   W03
 BYTE   N05  Gn1  v100
 BYTE   W06
 BYTE   N05
 BYTE   W06
 BYTE   Gn1  v127
 BYTE   N92  Cn2
 BYTE   W06
 BYTE   N05  Gn1  v092
 BYTE   W06
 BYTE   N05
 BYTE   W06
 BYTE   Gn1  v096
 BYTE   W06
 BYTE   N02  Gn1  v127
 BYTE   W03
 BYTE   N02
 BYTE   W03
 BYTE   Gn1  v120
 BYTE   W03
 BYTE   N02
 BYTE   W03
 BYTE   N05  Gn1  v100
 BYTE   W06
 BYTE   N05
 BYTE   W06
 BYTE   Gn1  v127
 BYTE   W06
 BYTE   Gn1  v112
 BYTE   W06
 BYTE   N05
 BYTE   W06
 BYTE   N05
 BYTE   W06
 BYTE   PEND 
//  #10 //046   ----------------------------------------
Label_015D9BA3:
 BYTE   N05  Gn1  v127
 BYTE   W06
 BYTE   Gn1  v104
 BYTE   W06
 BYTE   Gn1  v120
 BYTE   W06
 BYTE   Gn1  v096
 BYTE   W06
 BYTE   N05
 BYTE   W06
 BYTE   Gn1  v108
 BYTE   W06
 BYTE   Gn1  v100
 BYTE   W06
 BYTE   N05
 BYTE   W06
 BYTE   N02  Gn1  v127
 BYTE   W03
 BYTE   N02
 BYTE   W03
 BYTE   Gn1  v120
 BYTE   W03
 BYTE   N02
 BYTE   W03
 BYTE   N05  Gn1  v100
 BYTE   W06
 BYTE   N05
 BYTE   W06
 BYTE   Gn1  v127
 BYTE   N92  Cn2
 BYTE   W06
 BYTE   N05  Gn1  v092
 BYTE   W06
 BYTE   N05
 BYTE   W06
 BYTE   Gn1  v096
 BYTE   W06
 BYTE   PEND 
//  #10 //047   ----------------------------------------
 BYTE   PATT
  POIN2 Label_015D9A77
//  #10 //048   ----------------------------------------
 BYTE   PATT
  POIN2 Label_015D9B68
//  #10 //049   ----------------------------------------
 BYTE   PATT
  POIN2 Label_015D9BA3
//  #10 //050   ----------------------------------------
 BYTE   PATT
  POIN2 Label_015D9A77
//  #10 //051   ----------------------------------------
 BYTE   N02  Gn1  v127
 BYTE   W03
 BYTE   N02
 BYTE   W03
 BYTE   Gn1  v120
 BYTE   W03
 BYTE   N02
 BYTE   W03
 BYTE   N05  Gn1  v100
 BYTE   W06
 BYTE   N05
 BYTE   W06
 BYTE   Gn1  v127
 BYTE   N92  Cn2
 BYTE   W06
 BYTE   N05  Gn1  v104
 BYTE   W06
 BYTE   Gn1  v120
 BYTE   W06
 BYTE   Gn1  v096
 BYTE   W06
 BYTE   N05
 BYTE   W06
 BYTE   Gn1  v108
 BYTE   W06
 BYTE   Gn1  v100
 BYTE   W06
 BYTE   N05
 BYTE   W06
 BYTE   N02  Gn1  v127
 BYTE   W03
 BYTE   Gn1  v116
 BYTE   W03
 BYTE   N05  Gn1  v124
 BYTE   W06
 BYTE   N05
 BYTE   W06
 BYTE   N05
 BYTE   W06
//  #10 //052   ----------------------------------------
 BYTE   Gn1  v127
 BYTE   W06
 BYTE   Gn1  v092
 BYTE   W06
 BYTE   N05
 BYTE   W06
 BYTE   Gn1  v096
 BYTE   W06
 BYTE   N02  Gn1  v127
 BYTE   W03
 BYTE   N02
 BYTE   W03
 BYTE   Gn1  v120
 BYTE   W03
 BYTE   N02
 BYTE   W03
 BYTE   N05  Gn1  v100
 BYTE   W06
 BYTE   N05
 BYTE   W06
 BYTE   Gn1  v127
 BYTE   W06
 BYTE   Gn1  v112
 BYTE   W06
 BYTE   N05
 BYTE   W06
 BYTE   N05
 BYTE   W06
 BYTE   Gn1  v127
 BYTE   W06
 BYTE   Gn1  v104
 BYTE   W06
 BYTE   Gn1  v120
 BYTE   W06
 BYTE   Gn1  v096
 BYTE   W06
//  #10 //053   ----------------------------------------
 BYTE   N05
 BYTE   W06
 BYTE   Gn1  v108
 BYTE   W06
 BYTE   Gn1  v100
 BYTE   W06
 BYTE   N05
 BYTE   W06
 BYTE   N02  Gn1  v127
 BYTE   W03
 BYTE   Gn1  v116
 BYTE   W03
 BYTE   N05  Gn1  v124
 BYTE   W06
 BYTE   N05
 BYTE   W06
 BYTE   N05
 BYTE   W06
 BYTE   Gn1  v127
 BYTE   W06
 BYTE   Gn1  v092
 BYTE   W06
 BYTE   N05
 BYTE   W06
 BYTE   Gn1  v096
 BYTE   W06
 BYTE   N02  Gn1  v127
 BYTE   W03
 BYTE   N02
 BYTE   W03
 BYTE   Gn1  v120
 BYTE   W03
 BYTE   N02
 BYTE   W03
 BYTE   N05  Gn1  v100
 BYTE   W06
 BYTE   N05
 BYTE   W06
//  #10 //054   ----------------------------------------
 BYTE   Gn1  v127
 BYTE   W06
 BYTE   Gn1  v112
 BYTE   W06
 BYTE   N05
 BYTE   W06
 BYTE   N05
 BYTE   W06
 BYTE   N92  Cn2  v127
 BYTE   W72
//  #10 //055   ----------------------------------------
 BYTE   W24
 BYTE   N02  Gn1  v080
 BYTE   W03
 BYTE   N02
 BYTE   W03
 BYTE   N02
 BYTE   W03
 BYTE   Gn1  v088
 BYTE   W03
 BYTE   N05  Gn1  v096
 BYTE   W06
 BYTE   Gn1  v108
 BYTE   W06
 BYTE   Gn1  v116
 BYTE   W06
 BYTE   Gn1  v127
 BYTE   W06
 BYTE   N05
 BYTE   W06
 BYTE   N05
 BYTE   W06
 BYTE   N92  Cn2
 BYTE   W24
//  #10 //056   ----------------------------------------
 BYTE   W72
 BYTE   N02  Gn1  v080
 BYTE   W03
 BYTE   N02
 BYTE   W03
 BYTE   N02
 BYTE   W03
 BYTE   Gn1  v088
 BYTE   W03
 BYTE   N05  Gn1  v096
 BYTE   W06
 BYTE   Gn1  v108
 BYTE   W06
//  #10 //057   ----------------------------------------
 BYTE   Gn1  v116
 BYTE   W06
 BYTE   Gn1  v127
 BYTE   W06
 BYTE   N05
 BYTE   W06
 BYTE   N05
 BYTE   W78
//  #10 //058   ----------------------------------------
 BYTE   GoTo
  POIN2 Label_015D994D
//  #10 //059   ----------------------------------------
 BYTE   W23
 BYTE   FINE

//**************** Track 11 (Midi-Chn.10) ****************//

DyedInBlood_011:
//  #11 //000   ----------------------------------------
 BYTE   KEYSH   DyedInBlood_key+0
 BYTE   VOICE   28
 BYTE   VOL   33*DyedInBlood_mvl/mxv
 BYTE   PAN   c_v-30
 BYTE   W96
//  #11 //001   ----------------------------------------
 BYTE   W96
//  #11 //002   ----------------------------------------
 BYTE   W96
//  #11 //003   ----------------------------------------
 BYTE   W96
//  #11 //004   ----------------------------------------
 BYTE   W96
//  #11 //005   ----------------------------------------
 BYTE   W96
//  #11 //006   ----------------------------------------
 BYTE   W96
//  #11 //007   ----------------------------------------
 BYTE   W96
//  #11 //008   ----------------------------------------
 BYTE   W96
//  #11 //009   ----------------------------------------
Label_015D9D05:
 BYTE   W96
//  #11 //010   ----------------------------------------
 BYTE   W96
//  #11 //011   ----------------------------------------
 BYTE   W96
//  #11 //012   ----------------------------------------
 BYTE   W96
//  #11 //013   ----------------------------------------
 BYTE   W96
//  #11 //014   ----------------------------------------
 BYTE   W96
//  #11 //015   ----------------------------------------
 BYTE   W96
//  #11 //016   ----------------------------------------
 BYTE   W96
//  #11 //017   ----------------------------------------
 BYTE   W96
//  #11 //018   ----------------------------------------
 BYTE   W96
//  #11 //019   ----------------------------------------
 BYTE   W96
//  #11 //020   ----------------------------------------
 BYTE   W96
//  #11 //021   ----------------------------------------
 BYTE   W96
//  #11 //022   ----------------------------------------
 BYTE   W96
//  #11 //023   ----------------------------------------
 BYTE   W96
//  #11 //024   ----------------------------------------
 BYTE   W96
//  #11 //025   ----------------------------------------
 BYTE   W96
//  #11 //026   ----------------------------------------
 BYTE   W96
//  #11 //027   ----------------------------------------
 BYTE   W96
//  #11 //028   ----------------------------------------
 BYTE   W96
//  #11 //029   ----------------------------------------
 BYTE   W96
//  #11 //030   ----------------------------------------
 BYTE   W96
//  #11 //031   ----------------------------------------
 BYTE   W96
//  #11 //032   ----------------------------------------
 BYTE   W96
//  #11 //033   ----------------------------------------
 BYTE   W96
//  #11 //034   ----------------------------------------
 BYTE   W96
//  #11 //035   ----------------------------------------
 BYTE   W96
//  #11 //036   ----------------------------------------
 BYTE   W96
//  #11 //037   ----------------------------------------
 BYTE   W96
//  #11 //038   ----------------------------------------
 BYTE   W96
//  #11 //039   ----------------------------------------
 BYTE   W96
//  #11 //040   ----------------------------------------
 BYTE   W96
//  #11 //041   ----------------------------------------
 BYTE   W96
//  #11 //042   ----------------------------------------
 BYTE   W48
 BYTE   N05  Dn3  v072
 BYTE   W06
 BYTE   En3
 BYTE   W06
 BYTE   Fn3
 BYTE   W06
 BYTE   En3
 BYTE   W06
 BYTE   Gn3
 BYTE   W06
 BYTE   Fn3
 BYTE   W06
 BYTE   An3
 BYTE   W06
 BYTE   Dn4
 BYTE   W06
//  #11 //043   ----------------------------------------
Label_015D9D39:
 BYTE   N05  En4  v072
 BYTE   W06
 BYTE   Dn4
 BYTE   W06
 BYTE   Gn4
 BYTE   W06
 BYTE   Fn4
 BYTE   W06
 BYTE   As4
 BYTE   W06
 BYTE   An4
 BYTE   W06
 BYTE   Cs5
 BYTE   W06
 BYTE   Dn5
 BYTE   W06
 BYTE   Gn5
 BYTE   W06
 BYTE   Fn5
 BYTE   W06
 BYTE   As5
 BYTE   W06
 BYTE   An5
 BYTE   W30
 BYTE   PEND 
//  #11 //044   ----------------------------------------
 BYTE   Dn3
 BYTE   W06
 BYTE   En3
 BYTE   W06
 BYTE   Fn3
 BYTE   W06
 BYTE   En3
 BYTE   W06
 BYTE   Gn3
 BYTE   W06
 BYTE   Fn3
 BYTE   W06
 BYTE   An3
 BYTE   W06
 BYTE   Dn4
 BYTE   W06
 BYTE   En4
 BYTE   W06
 BYTE   Dn4
 BYTE   W06
 BYTE   Gn4
 BYTE   W06
 BYTE   Fn4
 BYTE   W06
 BYTE   As4
 BYTE   W06
 BYTE   An4
 BYTE   W06
 BYTE   Cs5
 BYTE   W06
 BYTE   Dn5
 BYTE   W06
//  #11 //045   ----------------------------------------
 BYTE   Gn5
 BYTE   W06
 BYTE   Fn5
 BYTE   W06
 BYTE   As5
 BYTE   W06
 BYTE   An5
 BYTE   W30
 BYTE   Fn3
 BYTE   W06
 BYTE   Gn3
 BYTE   W06
 BYTE   Gs3
 BYTE   W06
 BYTE   Gn3
 BYTE   W06
 BYTE   As3
 BYTE   W06
 BYTE   Gs3
 BYTE   W06
 BYTE   Cn4
 BYTE   W06
 BYTE   Fn4
 BYTE   W06
//  #11 //046   ----------------------------------------
 BYTE   Gn4
 BYTE   W06
 BYTE   Fn4
 BYTE   W06
 BYTE   As4
 BYTE   W06
 BYTE   Gs4
 BYTE   W06
 BYTE   Cs5
 BYTE   W06
 BYTE   Cn5
 BYTE   W06
 BYTE   En5
 BYTE   W06
 BYTE   Fn5
 BYTE   W06
 BYTE   As5
 BYTE   W06
 BYTE   Gs5
 BYTE   W06
 BYTE   Cs6
 BYTE   W06
 BYTE   Cn6
 BYTE   W30
//  #11 //047   ----------------------------------------
 BYTE   Fn3
 BYTE   W06
 BYTE   Gn3
 BYTE   W06
 BYTE   Gs3
 BYTE   W06
 BYTE   Gn3
 BYTE   W06
 BYTE   As3
 BYTE   W06
 BYTE   Gs3
 BYTE   W06
 BYTE   Cn4
 BYTE   W06
 BYTE   Fn4
 BYTE   W06
 BYTE   Gn4
 BYTE   W06
 BYTE   Fn4
 BYTE   W06
 BYTE   As4
 BYTE   W06
 BYTE   Gs4
 BYTE   W06
 BYTE   Cs5
 BYTE   W06
 BYTE   Cn5
 BYTE   W06
 BYTE   En5
 BYTE   W06
 BYTE   Fn5
 BYTE   W06
//  #11 //048   ----------------------------------------
 BYTE   As5
 BYTE   W06
 BYTE   Gs5
 BYTE   W06
 BYTE   Cs6
 BYTE   W06
 BYTE   Cn6
 BYTE   W30
 BYTE   Dn3
 BYTE   W06
 BYTE   En3
 BYTE   W06
 BYTE   Fn3
 BYTE   W06
 BYTE   En3
 BYTE   W06
 BYTE   Gn3
 BYTE   W06
 BYTE   Fn3
 BYTE   W06
 BYTE   An3
 BYTE   W06
 BYTE   Dn4
 BYTE   W06
//  #11 //049   ----------------------------------------
 BYTE   PATT
  POIN2 Label_015D9D39
//  #11 //050   ----------------------------------------
 BYTE   N05  Dn3  v072
 BYTE   W06
 BYTE   En3
 BYTE   W06
 BYTE   Fn3
 BYTE   W06
 BYTE   En3
 BYTE   W06
 BYTE   Gn3
 BYTE   W06
 BYTE   Fn3
 BYTE   W06
 BYTE   An3
 BYTE   W06
 BYTE   Cs4
 BYTE   W06
 BYTE   En4
 BYTE   W06
 BYTE   Dn4
 BYTE   W06
 BYTE   Gn4
 BYTE   W06
 BYTE   Fn4
 BYTE   W06
 BYTE   As4
 BYTE   W06
 BYTE   An4
 BYTE   W06
 BYTE   Cs5
 BYTE   W06
 BYTE   Dn5
 BYTE   W06
//  #11 //051   ----------------------------------------
 BYTE   Gn5
 BYTE   W06
 BYTE   Fn5
 BYTE   W06
 BYTE   As5
 BYTE   W06
 BYTE   An5
 BYTE   W06
 BYTE   An4
 BYTE   W06
 BYTE   Fn4
 BYTE   W06
 BYTE   Cs4
 BYTE   W06
 BYTE   An3
 BYTE   W06
 BYTE   Cs4
 BYTE   W06
 BYTE   An3
 BYTE   W06
 BYTE   Fn3
 BYTE   W06
 BYTE   Cs3
 BYTE   W06
 BYTE   Fn3
 BYTE   W06
 BYTE   Cs3
 BYTE   W06
 BYTE   An2
 BYTE   W06
 BYTE   Fn2
 BYTE   W06
//  #11 //052   ----------------------------------------
 BYTE   Gs4
 BYTE   W06
 BYTE   En4
 BYTE   W06
 BYTE   Cn4
 BYTE   W06
 BYTE   Gs3
 BYTE   W06
 BYTE   Cn4
 BYTE   W06
 BYTE   Gs3
 BYTE   W06
 BYTE   En3
 BYTE   W06
 BYTE   Cn3
 BYTE   W06
 BYTE   En3
 BYTE   W06
 BYTE   Cn3
 BYTE   W06
 BYTE   Gs2
 BYTE   W06
 BYTE   En2
 BYTE   W06
 BYTE   Gn4
 BYTE   W06
 BYTE   Ds4
 BYTE   W06
 BYTE   Bn3
 BYTE   W06
 BYTE   Gn3
 BYTE   W06
//  #11 //053   ----------------------------------------
 BYTE   Bn3
 BYTE   W06
 BYTE   Gn3
 BYTE   W06
 BYTE   Ds3
 BYTE   W06
 BYTE   Bn2
 BYTE   W06
 BYTE   Ds3
 BYTE   W06
 BYTE   Bn2
 BYTE   W06
 BYTE   Gn2
 BYTE   W06
 BYTE   Ds2
 BYTE   W06
 BYTE   Ds4
 BYTE   W06
 BYTE   Bn3
 BYTE   W06
 BYTE   Gn3
 BYTE   W06
 BYTE   Ds3
 BYTE   W06
 BYTE   Gn3
 BYTE   W06
 BYTE   Ds3
 BYTE   W06
 BYTE   Bn2
 BYTE   W06
 BYTE   Gn2
 BYTE   W06
//  #11 //054   ----------------------------------------
 BYTE   Bn2
 BYTE   W06
 BYTE   Gn2
 BYTE   W06
 BYTE   Ds2
 BYTE   W06
 BYTE   Bn1
 BYTE   W78
//  #11 //055   ----------------------------------------
 BYTE   W96
//  #11 //056   ----------------------------------------
 BYTE   W96
//  #11 //057   ----------------------------------------
 BYTE   W96
//  #11 //058   ----------------------------------------
 BYTE   GoTo
  POIN2 Label_015D9D05
//  #11 //059   ----------------------------------------
 BYTE   W23
 BYTE   FINE

//**************** Track 12 (Midi-Chn.11) ****************//

DyedInBlood_012:
//  #12 //000   ----------------------------------------
 BYTE   KEYSH   DyedInBlood_key+0
 BYTE   VOICE   119
 BYTE   VOL   42*DyedInBlood_mvl/mxv
 BYTE   PAN   c_v+0
 BYTE   W96
//  #12 //001   ----------------------------------------
 BYTE   W96
//  #12 //002   ----------------------------------------
 BYTE   W96
//  #12 //003   ----------------------------------------
 BYTE   W96
//  #12 //004   ----------------------------------------
 BYTE   W96
//  #12 //005   ----------------------------------------
 BYTE   W96
//  #12 //006   ----------------------------------------
 BYTE   W96
//  #12 //007   ----------------------------------------
 BYTE   W72
 BYTE   TIE  En2  v127
 BYTE   W24
//  #12 //008   ----------------------------------------
 BYTE   W92
 BYTE   W03
 BYTE   EOT
 BYTE   W01
//  #12 //009   ----------------------------------------
Label_015D9EA0:
 BYTE   W96
//  #12 //010   ----------------------------------------
 BYTE   W96
//  #12 //011   ----------------------------------------
 BYTE   W96
//  #12 //012   ----------------------------------------
 BYTE   W96
//  #12 //013   ----------------------------------------
 BYTE   W96
//  #12 //014   ----------------------------------------
 BYTE   W96
//  #12 //015   ----------------------------------------
 BYTE   W96
//  #12 //016   ----------------------------------------
 BYTE   W96
//  #12 //017   ----------------------------------------
 BYTE   W96
//  #12 //018   ----------------------------------------
 BYTE   W96
//  #12 //019   ----------------------------------------
 BYTE   W96
//  #12 //020   ----------------------------------------
 BYTE   W96
//  #12 //021   ----------------------------------------
 BYTE   W96
//  #12 //022   ----------------------------------------
 BYTE   W96
//  #12 //023   ----------------------------------------
 BYTE   W96
//  #12 //024   ----------------------------------------
 BYTE   W96
//  #12 //025   ----------------------------------------
 BYTE   W96
//  #12 //026   ----------------------------------------
 BYTE   W96
//  #12 //027   ----------------------------------------
 BYTE   W96
//  #12 //028   ----------------------------------------
 BYTE   W96
//  #12 //029   ----------------------------------------
 BYTE   W96
//  #12 //030   ----------------------------------------
 BYTE   W96
//  #12 //031   ----------------------------------------
 BYTE   W96
//  #12 //032   ----------------------------------------
 BYTE   W96
//  #12 //033   ----------------------------------------
 BYTE   W96
//  #12 //034   ----------------------------------------
 BYTE   W96
//  #12 //035   ----------------------------------------
 BYTE   W96
//  #12 //036   ----------------------------------------
 BYTE   W96
//  #12 //037   ----------------------------------------
 BYTE   W96
//  #12 //038   ----------------------------------------
 BYTE   W96
//  #12 //039   ----------------------------------------
 BYTE   W96
//  #12 //040   ----------------------------------------
 BYTE   W96
//  #12 //041   ----------------------------------------
 BYTE   W96
//  #12 //042   ----------------------------------------
 BYTE   W96
//  #12 //043   ----------------------------------------
 BYTE   W96
//  #12 //044   ----------------------------------------
 BYTE   W96
//  #12 //045   ----------------------------------------
 BYTE   W96
//  #12 //046   ----------------------------------------
 BYTE   W96
//  #12 //047   ----------------------------------------
 BYTE   W96
//  #12 //048   ----------------------------------------
 BYTE   W96
//  #12 //049   ----------------------------------------
 BYTE   W96
//  #12 //050   ----------------------------------------
 BYTE   W96
//  #12 //051   ----------------------------------------
 BYTE   W96
//  #12 //052   ----------------------------------------
 BYTE   W96
//  #12 //053   ----------------------------------------
 BYTE   W96
//  #12 //054   ----------------------------------------
 BYTE   W96
//  #12 //055   ----------------------------------------
 BYTE   W96
//  #12 //056   ----------------------------------------
 BYTE   W96
//  #12 //057   ----------------------------------------
 BYTE   TIE  En2  v120
 BYTE   W96
//  #12 //058   ----------------------------------------
 BYTE   EOT
 BYTE   GoTo
  POIN2 Label_015D9EA0
//  #12 //059   ----------------------------------------
 BYTE   W23
 BYTE   EOT
 BYTE   En2
 BYTE   FINE

//******************************************************//
	ALIGN 4

DyedInBlood:
	BYTE	12	// NumTrks
	BYTE	0	// NumBlks
	BYTE	DyedInBlood_pri	// Priority
	BYTE	DyedInBlood_rev	// Reverb.
    
	POIN2	DyedInBlood_grp
    
	POIN2	DyedInBlood_001
	POIN2	DyedInBlood_002
	POIN2	DyedInBlood_003
	POIN2	DyedInBlood_004
	POIN2	DyedInBlood_005
	POIN2	DyedInBlood_006
	POIN2	DyedInBlood_007
	POIN2	DyedInBlood_008
	POIN2	DyedInBlood_009
	POIN2	DyedInBlood_010
	POIN2	DyedInBlood_011
	POIN2	DyedInBlood_012

	
