//Event file generated from Sappy .s format.
	#include "MPlayDef.event"

	#define	Ecstasy_grp  voicegroup000
	#define	Ecstasy_pri  0
	#define	Ecstasy_rev  0
	#define	Ecstasy_mvl  127
	#define	Ecstasy_key  0
	#define	Ecstasy_tbs  1
	#define	Ecstasy_exg  0
	#define	Ecstasy_cmp  1

	// .rodata
	//	Ecstasy
	ALIGN 4


//**************** Track 1 (Midi-Chn.0) ****************//

Ecstasy_001:
//  #01 //000   ----------------------------------------
 BYTE   KEYSH   Ecstasy_key+0
Label_0158A93E:
 BYTE   TEMPO   170*Ecstasy_tbs/2
 BYTE   VOICE   18
 BYTE   VOL   36*Ecstasy_mvl/mxv
 BYTE   PAN   c_v+0
 BYTE   W96
//  #01 //001   ----------------------------------------
 BYTE   W96
//  #01 //002   ----------------------------------------
 BYTE   W96
//  #01 //003   ----------------------------------------
 BYTE   W96
//  #01 //004   ----------------------------------------
Label_0158A94A:
 BYTE   N92  Bn3  v092
 BYTE   W48
 BYTE   N07  En5  v100
 BYTE   N07  Bn5
 BYTE   W08
 BYTE   Bn4
 BYTE   N07  En5
 BYTE   W08
 BYTE   En4
 BYTE   N07  Bn4
 BYTE   W08
 BYTE   En4
 BYTE   N07  Bn4
 BYTE   W08
 BYTE   N07
 BYTE   N07  En5
 BYTE   W08
 BYTE   N07
 BYTE   N07  Bn5
 BYTE   W08
 BYTE   PEND 
//  #01 //005   ----------------------------------------
Label_0158A969:
 BYTE   N92  As3  v092
 BYTE   W48
 BYTE   N07  Ds5  v100
 BYTE   N07  As5
 BYTE   W08
 BYTE   As4
 BYTE   N07  Ds5
 BYTE   W08
 BYTE   Ds4
 BYTE   N07  As4
 BYTE   W08
 BYTE   Ds4
 BYTE   N07  As4
 BYTE   W08
 BYTE   N07
 BYTE   N07  Ds5
 BYTE   W08
 BYTE   N07
 BYTE   N07  As5
 BYTE   W08
 BYTE   PEND 
//  #01 //006   ----------------------------------------
Label_0158A988:
 BYTE   N92  Gn3  v092
 BYTE   W48
 BYTE   N07  Cn5  v100
 BYTE   N07  Gn5
 BYTE   W08
 BYTE   Gn4
 BYTE   N07  Cn5
 BYTE   W08
 BYTE   Cn4
 BYTE   N07  Gn4
 BYTE   W08
 BYTE   Cn4
 BYTE   N07  Gn4
 BYTE   W08
 BYTE   N07
 BYTE   N07  Cn5
 BYTE   W08
 BYTE   N07
 BYTE   N07  Gn5
 BYTE   W08
 BYTE   PEND 
//  #01 //007   ----------------------------------------
Label_0158A9A7:
 BYTE   N92  As3  v092
 BYTE   W48
 BYTE   N07  Ds4  v100
 BYTE   N07  As4
 BYTE   W08
 BYTE   N07
 BYTE   N07  Ds5
 BYTE   W08
 BYTE   N07
 BYTE   N07  As5
 BYTE   W08
 BYTE   Ds5
 BYTE   N07  As5
 BYTE   W08
 BYTE   As4
 BYTE   N07  Ds5
 BYTE   W08
 BYTE   Ds4
 BYTE   N07  As4
 BYTE   W08
 BYTE   PEND 
//  #01 //008   ----------------------------------------
 BYTE   PATT
  POIN2 Label_0158A94A
//  #01 //009   ----------------------------------------
 BYTE   PATT
  POIN2 Label_0158A969
//  #01 //010   ----------------------------------------
 BYTE   PATT
  POIN2 Label_0158A988
//  #01 //011   ----------------------------------------
 BYTE   PATT
  POIN2 Label_0158A9A7
//  #01 //012   ----------------------------------------
 BYTE   W96
//  #01 //013   ----------------------------------------
 BYTE   W96
//  #01 //014   ----------------------------------------
 BYTE   W96
//  #01 //015   ----------------------------------------
 BYTE   W96
//  #01 //016   ----------------------------------------
 BYTE   W96
//  #01 //017   ----------------------------------------
 BYTE   W96
//  #01 //018   ----------------------------------------
 BYTE   W96
//  #01 //019   ----------------------------------------
 BYTE   W96
//  #01 //020   ----------------------------------------
Label_0158A9E2:
 BYTE   N42  En5  v096
 BYTE   N42  Gn5  v108
 BYTE   W48
 BYTE   N07  En5  v096
 BYTE   N07  Gn5  v108
 BYTE   W08
 BYTE   Fs5  v096
 BYTE   N07  An5  v108
 BYTE   W08
 BYTE   En5  v096
 BYTE   N07  Gn5  v108
 BYTE   W08
 BYTE   N19  Dn5  v096
 BYTE   N19  Fs5  v108
 BYTE   W24
 BYTE   PEND 
//  #01 //021   ----------------------------------------
Label_0158AA04:
 BYTE   N42  En5  v096
 BYTE   N42  Gn5  v108
 BYTE   W48
 BYTE   N07  En5  v096
 BYTE   N07  Gn5  v108
 BYTE   W08
 BYTE   Fs5  v096
 BYTE   N07  An5  v108
 BYTE   W08
 BYTE   En5  v096
 BYTE   N07  Gn5  v108
 BYTE   W08
 BYTE   N19  Gn5  v096
 BYTE   N19  Bn5  v108
 BYTE   W24
 BYTE   PEND 
//  #01 //022   ----------------------------------------
 BYTE   PATT
  POIN2 Label_0158A9E2
//  #01 //023   ----------------------------------------
Label_0158AA2B:
 BYTE   N19  Fs5  v096
 BYTE   N19  An5  v108
 BYTE   W24
 BYTE   En5  v096
 BYTE   N19  Gn5  v108
 BYTE   W24
 BYTE   En5  v096
 BYTE   N19  An5  v108
 BYTE   W24
 BYTE   Dn5  v096
 BYTE   N19  Fs5  v108
 BYTE   W24
 BYTE   PEND 
//  #01 //024   ----------------------------------------
 BYTE   PATT
  POIN2 Label_0158A9E2
//  #01 //025   ----------------------------------------
 BYTE   PATT
  POIN2 Label_0158AA04
//  #01 //026   ----------------------------------------
 BYTE   N42  En5  v096
 BYTE   N42  Gn5  v108
 BYTE   W48
 BYTE   N07  En5  v096
 BYTE   N07  Gn5  v108
 BYTE   W08
 BYTE   Fs5  v096
 BYTE   N07  An5  v108
 BYTE   W08
 BYTE   En5  v096
 BYTE   N07  Gn5  v108
 BYTE   W08
 BYTE   N19  Dn5  v096
 BYTE   N19  Fs5
 BYTE   W24
//  #01 //027   ----------------------------------------
 BYTE   PATT
  POIN2 Label_0158AA2B
//  #01 //028   ----------------------------------------
 BYTE   TIE  En5  v096
 BYTE   TIE  Gn5  v108
 BYTE   W96
//  #01 //029   ----------------------------------------
 BYTE   W92
 BYTE   W03
 BYTE   EOT
 BYTE   En5  v091
 BYTE   W01
//  #01 //030   ----------------------------------------
 BYTE   TIE  En5  v096
 BYTE   TIE  Gn5
 BYTE   W96
//  #01 //031   ----------------------------------------
 BYTE   W92
 BYTE   W03
 BYTE   EOT
 BYTE   En5  v091
 BYTE   W01
//  #01 //032   ----------------------------------------
 BYTE   W96
//  #01 //033   ----------------------------------------
 BYTE   W96
//  #01 //034   ----------------------------------------
 BYTE   W96
//  #01 //035   ----------------------------------------
 BYTE   W96
//  #01 //036   ----------------------------------------
 BYTE   W96
//  #01 //037   ----------------------------------------
 BYTE   W96
//  #01 //038   ----------------------------------------
 BYTE   W96
//  #01 //039   ----------------------------------------
 BYTE   W96
//  #01 //040   ----------------------------------------
 BYTE   W96
//  #01 //041   ----------------------------------------
 BYTE   W96
//  #01 //042   ----------------------------------------
 BYTE   W96
//  #01 //043   ----------------------------------------
 BYTE   GoTo
  POIN2 Label_0158A93E
 BYTE   FINE

//**************** Track 2 (Midi-Chn.1) ****************//

Ecstasy_002:
//  #02 //000   ----------------------------------------
 BYTE   KEYSH   Ecstasy_key+0
Label_0158A386:
 BYTE   VOICE   28
 BYTE   VOL   84*Ecstasy_mvl/mxv
 BYTE   PAN   c_v+0
 BYTE   N07  En0  v100
 BYTE   W08
 BYTE   Bn0
 BYTE   W08
 BYTE   En1
 BYTE   W08
 BYTE   Fn0
 BYTE   W08
 BYTE   Cn1
 BYTE   W08
 BYTE   Fn1
 BYTE   W08
 BYTE   Fs0
 BYTE   W08
 BYTE   Cs1
 BYTE   W08
 BYTE   Fs1
 BYTE   W08
 BYTE   Gn0
 BYTE   W08
 BYTE   Dn1
 BYTE   W08
 BYTE   Gn1
 BYTE   W08
//  #02 //001   ----------------------------------------
Label_0158A3A6:
 BYTE   N07  En0  v100
 BYTE   W08
 BYTE   Bn0
 BYTE   W08
 BYTE   En1
 BYTE   W08
 BYTE   Fn0
 BYTE   W08
 BYTE   Cn1
 BYTE   W08
 BYTE   Fn1
 BYTE   W08
 BYTE   Fs0
 BYTE   W08
 BYTE   Cs1
 BYTE   W08
 BYTE   Fs1
 BYTE   W08
 BYTE   Gn0
 BYTE   W08
 BYTE   Dn1
 BYTE   W08
 BYTE   Gn1
 BYTE   W08
 BYTE   PEND 
//  #02 //002   ----------------------------------------
 BYTE   PATT
  POIN2 Label_0158A3A6
//  #02 //003   ----------------------------------------
 BYTE   N07  Gs0  v100
 BYTE   W08
 BYTE   Ds1
 BYTE   W08
 BYTE   Gs1
 BYTE   W08
 BYTE   An0
 BYTE   W08
 BYTE   En1
 BYTE   W08
 BYTE   An1
 BYTE   W08
 BYTE   As0
 BYTE   W08
 BYTE   Fn1
 BYTE   W08
 BYTE   As1
 BYTE   W08
 BYTE   Bn0
 BYTE   W08
 BYTE   Fs1
 BYTE   W08
 BYTE   Bn1
 BYTE   W08
//  #02 //004   ----------------------------------------
Label_0158A3E0:
 BYTE   N07  An0  v100
 BYTE   W08
 BYTE   An1
 BYTE   W08
 BYTE   An0
 BYTE   W08
 BYTE   N07
 BYTE   W08
 BYTE   An1
 BYTE   W08
 BYTE   An0
 BYTE   W08
 BYTE   N07
 BYTE   W08
 BYTE   An1
 BYTE   W08
 BYTE   An0
 BYTE   W08
 BYTE   N07
 BYTE   W08
 BYTE   An1
 BYTE   W08
 BYTE   An0
 BYTE   W08
 BYTE   PEND 
//  #02 //005   ----------------------------------------
 BYTE   PATT
  POIN2 Label_0158A3E0
//  #02 //006   ----------------------------------------
 BYTE   PATT
  POIN2 Label_0158A3E0
//  #02 //007   ----------------------------------------
 BYTE   N07  An0  v100
 BYTE   W08
 BYTE   An1
 BYTE   W08
 BYTE   An0
 BYTE   W08
 BYTE   N07
 BYTE   W08
 BYTE   An1
 BYTE   W08
 BYTE   An0
 BYTE   W08
 BYTE   N07
 BYTE   W08
 BYTE   Ds1
 BYTE   W08
 BYTE   An1
 BYTE   W08
 BYTE   En2
 BYTE   W08
 BYTE   An1
 BYTE   W08
 BYTE   Ds1
 BYTE   W08
//  #02 //008   ----------------------------------------
 BYTE   PATT
  POIN2 Label_0158A3E0
//  #02 //009   ----------------------------------------
 BYTE   PATT
  POIN2 Label_0158A3E0
//  #02 //010   ----------------------------------------
 BYTE   PATT
  POIN2 Label_0158A3E0
//  #02 //011   ----------------------------------------
 BYTE   N07  An0  v100
 BYTE   W08
 BYTE   An1
 BYTE   W08
 BYTE   An0
 BYTE   W08
 BYTE   N07
 BYTE   W08
 BYTE   An1
 BYTE   W08
 BYTE   An0
 BYTE   W08
 BYTE   N07
 BYTE   W08
 BYTE   Ds1
 BYTE   W08
 BYTE   An1
 BYTE   W08
 BYTE   En2
 BYTE   W08
 BYTE   An1
 BYTE   W08
 BYTE   Ds1
 BYTE   W07
 BYTE   An0
 BYTE   W01
//  #02 //012   ----------------------------------------
 BYTE   W08
 BYTE   An1
 BYTE   W07
 BYTE   An0
 BYTE   W09
 BYTE   As0
 BYTE   W07
 BYTE   As1
 BYTE   W08
 BYTE   As0
 BYTE   W09
 BYTE   Cn1
 BYTE   W08
 BYTE   Cn2
 BYTE   W08
 BYTE   Cn1
 BYTE   W08
 BYTE   Ds1
 BYTE   W07
 BYTE   Ds2
 BYTE   W08
 BYTE   Ds1
 BYTE   W09
//  #02 //013   ----------------------------------------
 BYTE   Cs1
 BYTE   W07
 BYTE   Cs2
 BYTE   W08
 BYTE   Cs1
 BYTE   W09
 BYTE   Cn1
 BYTE   W07
 BYTE   Cn2
 BYTE   W08
 BYTE   Cn1
 BYTE   W09
 BYTE   As0
 BYTE   W07
 BYTE   As1
 BYTE   W08
 BYTE   As0
 BYTE   W09
 BYTE   An0
 BYTE   W08
 BYTE   An1
 BYTE   W08
 BYTE   An0
 BYTE   W08
//  #02 //014   ----------------------------------------
 BYTE   As0
 BYTE   W08
 BYTE   As1
 BYTE   W08
 BYTE   As0
 BYTE   W08
 BYTE   Cn1
 BYTE   W08
 BYTE   Cn2
 BYTE   W08
 BYTE   Cn1
 BYTE   W08
 BYTE   Fn1
 BYTE   W08
 BYTE   Fn2
 BYTE   W08
 BYTE   Fn1
 BYTE   W08
 BYTE   Ds1
 BYTE   W08
 BYTE   Ds2
 BYTE   W08
 BYTE   Ds1
 BYTE   W08
//  #02 //015   ----------------------------------------
 BYTE   Cs1
 BYTE   W08
 BYTE   Cs2
 BYTE   W08
 BYTE   Cs1
 BYTE   W08
 BYTE   Cn1
 BYTE   W08
 BYTE   Cn2
 BYTE   W08
 BYTE   Cn1
 BYTE   W08
 BYTE   As0
 BYTE   W07
 BYTE   As1
 BYTE   W08
 BYTE   As0
 BYTE   W09
 BYTE   An0
 BYTE   W07
 BYTE   An1
 BYTE   W08
 BYTE   An0
 BYTE   W09
//  #02 //016   ----------------------------------------
 BYTE   W08
 BYTE   Dn2
 BYTE   W07
 BYTE   Dn1
 BYTE   W09
 BYTE   Ds1
 BYTE   W07
 BYTE   Ds2
 BYTE   W08
 BYTE   Ds1
 BYTE   W09
 BYTE   Fn1
 BYTE   W08
 BYTE   Fn2
 BYTE   W08
 BYTE   Fn1
 BYTE   W08
 BYTE   Gs1
 BYTE   W07
 BYTE   Gs2
 BYTE   W08
 BYTE   Gs1
 BYTE   W09
//  #02 //017   ----------------------------------------
 BYTE   Fs1
 BYTE   W07
 BYTE   Fs2
 BYTE   W08
 BYTE   Fs1
 BYTE   W09
 BYTE   Fn1
 BYTE   W07
 BYTE   Fn2
 BYTE   W08
 BYTE   Fn1
 BYTE   W09
 BYTE   Ds1
 BYTE   W07
 BYTE   Ds2
 BYTE   W08
 BYTE   Ds1
 BYTE   W09
 BYTE   Dn1
 BYTE   W08
 BYTE   Dn2
 BYTE   W08
 BYTE   Dn1
 BYTE   W08
//  #02 //018   ----------------------------------------
 BYTE   Ds1
 BYTE   W08
 BYTE   Ds2
 BYTE   W08
 BYTE   Ds1
 BYTE   W08
 BYTE   Fn1
 BYTE   W08
 BYTE   Fn2
 BYTE   W08
 BYTE   Fn1
 BYTE   W08
 BYTE   As1
 BYTE   W08
 BYTE   As2
 BYTE   W08
 BYTE   As1
 BYTE   W08
 BYTE   Gs1
 BYTE   W08
 BYTE   Gs2
 BYTE   W08
 BYTE   Gs1
 BYTE   W08
//  #02 //019   ----------------------------------------
 BYTE   Fs1
 BYTE   W08
 BYTE   Fs2
 BYTE   W08
 BYTE   Fs1
 BYTE   W08
 BYTE   Fn1
 BYTE   W08
 BYTE   Fn2
 BYTE   W08
 BYTE   Fn1
 BYTE   W08
 BYTE   Ds1
 BYTE   W07
 BYTE   Ds2
 BYTE   W08
 BYTE   Ds1
 BYTE   W09
 BYTE   Fn1
 BYTE   W07
 BYTE   Fn2
 BYTE   W08
 BYTE   Fn1
 BYTE   W09
//  #02 //020   ----------------------------------------
Label_0158A508:
 BYTE   N07  En0  v100
 BYTE   W07
 BYTE   En1
 BYTE   W08
 BYTE   En0
 BYTE   W09
 BYTE   N07
 BYTE   W07
 BYTE   En1
 BYTE   W08
 BYTE   En0
 BYTE   W09
 BYTE   N07
 BYTE   W07
 BYTE   En1
 BYTE   W08
 BYTE   En0
 BYTE   W09
 BYTE   N07
 BYTE   W07
 BYTE   En1
 BYTE   W08
 BYTE   En0
 BYTE   W09
 BYTE   PEND 
//  #02 //021   ----------------------------------------
 BYTE   PATT
  POIN2 Label_0158A508
//  #02 //022   ----------------------------------------
 BYTE   PATT
  POIN2 Label_0158A508
//  #02 //023   ----------------------------------------
Label_0158A52D:
 BYTE   N07  Fs0  v100
 BYTE   W07
 BYTE   Fs1
 BYTE   W08
 BYTE   Fs0
 BYTE   W09
 BYTE   As0
 BYTE   W08
 BYTE   As1
 BYTE   W07
 BYTE   As0
 BYTE   W09
 BYTE   Fn0
 BYTE   W07
 BYTE   Fn1
 BYTE   W08
 BYTE   Fn0
 BYTE   W09
 BYTE   Dn1
 BYTE   W07
 BYTE   Dn2
 BYTE   W08
 BYTE   Dn1
 BYTE   W09
 BYTE   PEND 
//  #02 //024   ----------------------------------------
 BYTE   PATT
  POIN2 Label_0158A508
//  #02 //025   ----------------------------------------
 BYTE   PATT
  POIN2 Label_0158A508
//  #02 //026   ----------------------------------------
 BYTE   PATT
  POIN2 Label_0158A508
//  #02 //027   ----------------------------------------
 BYTE   PATT
  POIN2 Label_0158A52D
//  #02 //028   ----------------------------------------
 BYTE   PATT
  POIN2 Label_0158A508
//  #02 //029   ----------------------------------------
 BYTE   PATT
  POIN2 Label_0158A508
//  #02 //030   ----------------------------------------
 BYTE   PATT
  POIN2 Label_0158A508
//  #02 //031   ----------------------------------------
 BYTE   PATT
  POIN2 Label_0158A508
//  #02 //032   ----------------------------------------
 BYTE   N07  Bn0  v100
 BYTE   W08
 BYTE   En1
 BYTE   W08
 BYTE   Bn0
 BYTE   W08
 BYTE   N44  Cn1
 BYTE   W48
 BYTE   N07  Bn1
 BYTE   W08
 BYTE   En1
 BYTE   W08
 BYTE   Bn1
 BYTE   W08
//  #02 //033   ----------------------------------------
 BYTE   N44  Cn2
 BYTE   W48
 BYTE   N07  Bn0
 BYTE   W08
 BYTE   En1
 BYTE   W08
 BYTE   Bn0
 BYTE   W08
 BYTE   N44  Cn1
 BYTE   W24
//  #02 //034   ----------------------------------------
 BYTE   W24
 BYTE   N07  Bn1
 BYTE   W08
 BYTE   En1
 BYTE   W08
 BYTE   Bn1
 BYTE   W08
 BYTE   Cn1
 BYTE   W08
 BYTE   Fn1
 BYTE   W08
 BYTE   Cn1
 BYTE   W08
 BYTE   Bn0
 BYTE   W08
 BYTE   En1
 BYTE   W08
 BYTE   Bn0
 BYTE   W08
//  #02 //035   ----------------------------------------
 BYTE   As0
 BYTE   W08
 BYTE   Ds1
 BYTE   W08
 BYTE   As0
 BYTE   W08
 BYTE   An0
 BYTE   W08
 BYTE   Dn1
 BYTE   W08
 BYTE   An0
 BYTE   W08
 BYTE   Gs0
 BYTE   W08
 BYTE   Cs1
 BYTE   W08
 BYTE   Gs0
 BYTE   W08
 BYTE   Cs1
 BYTE   W08
 BYTE   Gn0
 BYTE   W08
 BYTE   Cn1
 BYTE   W08
//  #02 //036   ----------------------------------------
 BYTE   Gn0
 BYTE   W08
 BYTE   Bn0
 BYTE   W08
 BYTE   Fs0
 BYTE   W80
//  #02 //037   ----------------------------------------
 BYTE   W96
//  #02 //038   ----------------------------------------
 BYTE   W96
//  #02 //039   ----------------------------------------
 BYTE   N44
 BYTE   W48
 BYTE   Gs0
 BYTE   W48
//  #02 //040   ----------------------------------------
 BYTE   An0
 BYTE   W48
 BYTE   TIE  Bn0
 BYTE   W48
//  #02 //041   ----------------------------------------
 BYTE   W96
//  #02 //042   ----------------------------------------
 BYTE   W84
 BYTE   W03
 BYTE   EOT
 BYTE   W09
//  #02 //043   ----------------------------------------
 BYTE   GoTo
  POIN2 Label_0158A386
 BYTE   FINE

//**************** Track 3 (Midi-Chn.2) ****************//

Ecstasy_003:
//  #03 //000   ----------------------------------------
 BYTE   KEYSH   Ecstasy_key+0
Label_01589E32:
 BYTE   VOICE   38
 BYTE   VOL   40*Ecstasy_mvl/mxv
 BYTE   PAN   c_v+0
 BYTE   W96
//  #03 //001   ----------------------------------------
 BYTE   W96
//  #03 //002   ----------------------------------------
 BYTE   W96
//  #03 //003   ----------------------------------------
 BYTE   W96
//  #03 //004   ----------------------------------------
 BYTE   N92  An1  v084
 BYTE   N92  En2
 BYTE   W96
//  #03 //005   ----------------------------------------
 BYTE   As1
 BYTE   N92  Ds2
 BYTE   W96
//  #03 //006   ----------------------------------------
 BYTE   Gn1
 BYTE   N92  Cn2
 BYTE   W96
//  #03 //007   ----------------------------------------
 BYTE   As1
 BYTE   N92  Ds2
 BYTE   W96
//  #03 //008   ----------------------------------------
 BYTE   An1
 BYTE   N92  En2
 BYTE   W96
//  #03 //009   ----------------------------------------
 BYTE   As1
 BYTE   N92  Ds2
 BYTE   W96
//  #03 //010   ----------------------------------------
 BYTE   Gn1
 BYTE   N92  Cn2
 BYTE   W96
//  #03 //011   ----------------------------------------
 BYTE   As1
 BYTE   N92  Ds2
 BYTE   W96
//  #03 //012   ----------------------------------------
 BYTE   N23  An0
 BYTE   N23  En1
 BYTE   W24
 BYTE   N05  As0
 BYTE   N05  Fn1
 BYTE   W08
 BYTE   An0
 BYTE   N05  En1
 BYTE   W08
 BYTE   As0
 BYTE   N05  Fn1
 BYTE   W08
 BYTE   N21  Cn1
 BYTE   N21  Gn1
 BYTE   W24
 BYTE   N23  Ds1
 BYTE   N23  As1
 BYTE   W24
//  #03 //013   ----------------------------------------
 BYTE   N05  Cs1
 BYTE   N05  Gs1
 BYTE   W08
 BYTE   Bn0
 BYTE   N05  Fs1
 BYTE   W08
 BYTE   Cs1
 BYTE   N05  Gs1
 BYTE   W08
 BYTE   Cn1
 BYTE   N05  Gn1
 BYTE   W08
 BYTE   As0
 BYTE   N05  Fn1
 BYTE   W08
 BYTE   Cn1
 BYTE   N05  Gn1
 BYTE   W08
 BYTE   As0
 BYTE   N05  Fn1
 BYTE   W08
 BYTE   Cn1
 BYTE   N05  Gn1
 BYTE   W08
 BYTE   As0
 BYTE   N05  Fn1
 BYTE   W08
 BYTE   N23  An0
 BYTE   N23  En1
 BYTE   W24
//  #03 //014   ----------------------------------------
 BYTE   N05  As0
 BYTE   N05  Fn1
 BYTE   W08
 BYTE   An0
 BYTE   N05  En1
 BYTE   W08
 BYTE   As0
 BYTE   N05  Fn1
 BYTE   W08
 BYTE   N20  Cn1
 BYTE   N20  Gn1
 BYTE   W24
 BYTE   N23  Fn1
 BYTE   N23  Cn2
 BYTE   W24
 BYTE   N05  Ds1
 BYTE   N05  As1
 BYTE   W08
 BYTE   Cs1
 BYTE   N05  Gs1
 BYTE   W08
 BYTE   Ds1
 BYTE   N05  As1
 BYTE   W08
//  #03 //015   ----------------------------------------
 BYTE   Cs1
 BYTE   N05  Gs1
 BYTE   W08
 BYTE   Bn0
 BYTE   N05  Fs1
 BYTE   W08
 BYTE   Cs1
 BYTE   N05  Gs1
 BYTE   W08
 BYTE   Cn1
 BYTE   N05  Gn1
 BYTE   W08
 BYTE   As0
 BYTE   N05  Fn1
 BYTE   W08
 BYTE   Cn1
 BYTE   N05  Gn1
 BYTE   W08
 BYTE   N20  As0
 BYTE   N20  Fn1
 BYTE   W24
 BYTE   N05  An0
 BYTE   N05  En1
 BYTE   W08
 BYTE   Gn0
 BYTE   N05  Dn1
 BYTE   W08
 BYTE   An0
 BYTE   N05  En1
 BYTE   W08
//  #03 //016   ----------------------------------------
 BYTE   N23  Dn1
 BYTE   N23  An1
 BYTE   W24
 BYTE   N05  Ds1
 BYTE   N05  As1
 BYTE   W08
 BYTE   Dn1
 BYTE   N05  An1
 BYTE   W08
 BYTE   Ds1
 BYTE   N05  As1
 BYTE   W08
 BYTE   N21  Fn1
 BYTE   N21  Cn2
 BYTE   W24
 BYTE   N23  Gs1
 BYTE   N23  Ds2
 BYTE   W24
//  #03 //017   ----------------------------------------
 BYTE   N05  Fs1
 BYTE   N05  Cs2
 BYTE   W08
 BYTE   En1
 BYTE   N05  Bn1
 BYTE   W08
 BYTE   Fs1
 BYTE   N05  Cs2
 BYTE   W08
 BYTE   Fn1
 BYTE   N05  Cn2
 BYTE   W08
 BYTE   Ds1
 BYTE   N05  As1
 BYTE   W08
 BYTE   Fn1
 BYTE   N05  Cn2
 BYTE   W08
 BYTE   Ds1
 BYTE   N05  As1
 BYTE   W08
 BYTE   Fn1
 BYTE   N05  Cn2
 BYTE   W08
 BYTE   Ds1
 BYTE   N05  As1
 BYTE   W08
 BYTE   N23  Dn1
 BYTE   N23  An1
 BYTE   W24
//  #03 //018   ----------------------------------------
 BYTE   N05  Ds1
 BYTE   N05  As1
 BYTE   W08
 BYTE   Dn1
 BYTE   N05  An1
 BYTE   W08
 BYTE   Ds1
 BYTE   N05  As1
 BYTE   W08
 BYTE   N20  Fn1
 BYTE   N20  Cn2
 BYTE   W24
 BYTE   N23  As1
 BYTE   N23  Fn2
 BYTE   W24
 BYTE   N05  Gs1
 BYTE   N05  Ds2
 BYTE   W08
 BYTE   Fs1
 BYTE   N05  Cs2
 BYTE   W08
 BYTE   Gs1
 BYTE   N05  Ds2
 BYTE   W08
//  #03 //019   ----------------------------------------
 BYTE   Fs1
 BYTE   N05  Cs2
 BYTE   W08
 BYTE   En1
 BYTE   N05  Bn1
 BYTE   W08
 BYTE   Fs1
 BYTE   N05  Cs2
 BYTE   W08
 BYTE   Fn1
 BYTE   N05  Cn2
 BYTE   W08
 BYTE   Ds1
 BYTE   N05  As1
 BYTE   W08
 BYTE   Fn1
 BYTE   N05  Cn2
 BYTE   W08
 BYTE   N20  Ds1
 BYTE   N20  As1
 BYTE   W24
 BYTE   N05  Fn1
 BYTE   N05  Cn2
 BYTE   W08
 BYTE   Ds1
 BYTE   N05  As1
 BYTE   W08
 BYTE   Fn1
 BYTE   N05  Cn2
 BYTE   W08
//  #03 //020   ----------------------------------------
 BYTE   N92  Bn0
 BYTE   N92  En1
 BYTE   W96
//  #03 //021   ----------------------------------------
 BYTE   Dn1
 BYTE   N92  Gn1
 BYTE   W96
//  #03 //022   ----------------------------------------
 BYTE   N84  En1
 BYTE   N84  An1
 BYTE   W96
//  #03 //023   ----------------------------------------
Label_01589F94:
 BYTE   N23  Cs2  v084
 BYTE   N23  Fs2
 BYTE   W24
 BYTE   Cn2
 BYTE   N23  Fn2
 BYTE   W24
 BYTE   Bn1
 BYTE   N23  En2
 BYTE   W24
 BYTE   An1
 BYTE   N23  Dn2
 BYTE   W24
 BYTE   PEND 
//  #03 //024   ----------------------------------------
 BYTE   N92  Bn0
 BYTE   N92  En1
 BYTE   W96
//  #03 //025   ----------------------------------------
 BYTE   Dn1
 BYTE   N92  Gn1
 BYTE   W96
//  #03 //026   ----------------------------------------
 BYTE   N84  En1
 BYTE   N84  An1
 BYTE   W96
//  #03 //027   ----------------------------------------
 BYTE   PATT
  POIN2 Label_01589F94
//  #03 //028   ----------------------------------------
Label_01589FBA:
 BYTE   N44  Bn0  v084
 BYTE   N44  En1
 BYTE   W48
 BYTE   Dn1
 BYTE   N44  Gn1
 BYTE   W48
 BYTE   PEND 
//  #03 //029   ----------------------------------------
Label_01589FC5:
 BYTE   N44  Cs1  v084
 BYTE   N44  Fs1
 BYTE   W48
 BYTE   Cn1
 BYTE   N44  Fn1
 BYTE   W48
 BYTE   PEND 
//  #03 //030   ----------------------------------------
 BYTE   PATT
  POIN2 Label_01589FBA
//  #03 //031   ----------------------------------------
 BYTE   PATT
  POIN2 Label_01589FC5
//  #03 //032   ----------------------------------------
 BYTE   N07  Bn0  v084
 BYTE   N07  Bn1
 BYTE   W08
 BYTE   En1
 BYTE   N07  En2
 BYTE   W08
 BYTE   An1
 BYTE   N07  An2
 BYTE   W08
 BYTE   As1
 BYTE   N07  As2
 BYTE   W08
 BYTE   Fn1
 BYTE   N07  Fn2
 BYTE   W08
 BYTE   Cn1
 BYTE   N07  Cn2
 BYTE   W08
 BYTE   As0
 BYTE   N07  As1
 BYTE   W08
 BYTE   Fn0
 BYTE   N07  Fn1
 BYTE   W08
 BYTE   Cn0
 BYTE   N07  Cn1
 BYTE   W08
 BYTE   Bn1
 BYTE   N07  Bn2
 BYTE   W08
 BYTE   En2
 BYTE   N07  En3
 BYTE   W08
 BYTE   An2
 BYTE   N07  An3
 BYTE   W08
//  #03 //033   ----------------------------------------
 BYTE   As2
 BYTE   N07  As3
 BYTE   W08
 BYTE   Fn2
 BYTE   N07  Fn3
 BYTE   W08
 BYTE   Cn2
 BYTE   N07  Cn3
 BYTE   W08
 BYTE   As1
 BYTE   N07  As2
 BYTE   W08
 BYTE   Fn1
 BYTE   N07  Fn2
 BYTE   W08
 BYTE   Cn1
 BYTE   N07  Cn2
 BYTE   W08
 BYTE   Bn0
 BYTE   N07  Bn1
 BYTE   W08
 BYTE   En1
 BYTE   N07  En2
 BYTE   W08
 BYTE   An1
 BYTE   N07  An2
 BYTE   W08
 BYTE   As1
 BYTE   N07  As2
 BYTE   W08
 BYTE   Fn1
 BYTE   N07  Fn2
 BYTE   W08
 BYTE   Cn1
 BYTE   N07  Cn2
 BYTE   W08
//  #03 //034   ----------------------------------------
 BYTE   As0
 BYTE   N07  As1
 BYTE   W08
 BYTE   Fn0
 BYTE   N07  Fn1
 BYTE   W08
 BYTE   Cn0
 BYTE   N07  Cn1
 BYTE   W08
 BYTE   Bn1
 BYTE   N07  Bn2
 BYTE   W08
 BYTE   En2
 BYTE   N07  En3
 BYTE   W08
 BYTE   An2
 BYTE   N07  An3
 BYTE   W08
 BYTE   As2
 BYTE   N07  As3
 BYTE   W08
 BYTE   Fn2
 BYTE   N07  Fn3
 BYTE   W08
 BYTE   Cn2
 BYTE   N07  Cn3
 BYTE   W08
 BYTE   An2
 BYTE   N07  An3
 BYTE   W08
 BYTE   En2
 BYTE   N07  En3
 BYTE   W08
 BYTE   Bn1
 BYTE   N07  Bn2
 BYTE   W08
//  #03 //035   ----------------------------------------
 BYTE   Gs2
 BYTE   N07  Gs3
 BYTE   W08
 BYTE   Ds2
 BYTE   N07  Ds3
 BYTE   W08
 BYTE   As1
 BYTE   N07  As2
 BYTE   W08
 BYTE   Gn2
 BYTE   N07  Gn3
 BYTE   W08
 BYTE   Dn2
 BYTE   N07  Dn3
 BYTE   W08
 BYTE   An1
 BYTE   N07  An2
 BYTE   W08
 BYTE   Fs2
 BYTE   N07  Fs3
 BYTE   W08
 BYTE   Cs2
 BYTE   N07  Cs3
 BYTE   W08
 BYTE   Gs1
 BYTE   N07  Gs2
 BYTE   W08
 BYTE   Fn2
 BYTE   N07  Fn3
 BYTE   W08
 BYTE   Cn2
 BYTE   N07  Cn3
 BYTE   W08
 BYTE   Gn1
 BYTE   N07  Gn2
 BYTE   W08
//  #03 //036   ----------------------------------------
 BYTE   En2
 BYTE   N07  En3
 BYTE   W08
 BYTE   Bn1
 BYTE   N07  Bn2
 BYTE   W08
 BYTE   Fs1
 BYTE   N07  Fs2
 BYTE   W08
 BYTE   Fn1
 BYTE   N07  Fn2
 BYTE   W08
 BYTE   Cn1
 BYTE   N07  Cn2
 BYTE   W08
 BYTE   Gn0
 BYTE   N07  Gn1
 BYTE   W08
 BYTE   Fs0
 BYTE   N07  Fs1
 BYTE   W08
 BYTE   Cs1
 BYTE   N07  Cs2
 BYTE   W08
 BYTE   En1
 BYTE   N07  En2
 BYTE   W08
 BYTE   Ds1
 BYTE   N07  Ds2
 BYTE   W08
 BYTE   As0
 BYTE   N07  As1
 BYTE   W08
 BYTE   Fn0
 BYTE   N07  Fn1
 BYTE   W08
//  #03 //037   ----------------------------------------
 BYTE   En0
 BYTE   N07  En1
 BYTE   W08
 BYTE   Bn0
 BYTE   N07  Bn1
 BYTE   W08
 BYTE   Dn1
 BYTE   N07  Dn2
 BYTE   W08
 BYTE   Cs1
 BYTE   N07  Cs2
 BYTE   W08
 BYTE   Gs0
 BYTE   N07  Gs1
 BYTE   W08
 BYTE   Ds0
 BYTE   N07  Ds1
 BYTE   W08
 BYTE   Cn1
 BYTE   N07  Cn2
 BYTE   W08
 BYTE   Gn0
 BYTE   N07  Gn1
 BYTE   W08
 BYTE   Dn0
 BYTE   N07  Dn1
 BYTE   W08
 BYTE   Bn0
 BYTE   N07  Bn1
 BYTE   W08
 BYTE   Fs0
 BYTE   N07  Fs1
 BYTE   W08
 BYTE   Cs0
 BYTE   N07  Cs1
 BYTE   W08
//  #03 //038   ----------------------------------------
 BYTE   As0
 BYTE   N07  As1
 BYTE   W08
 BYTE   Fn0
 BYTE   N07  Fn1
 BYTE   W08
 BYTE   Cn0
 BYTE   N07  Cn1
 BYTE   W08
 BYTE   An0
 BYTE   N07  An1
 BYTE   W08
 BYTE   En0
 BYTE   N07  En1
 BYTE   W08
 BYTE   BnM1
 BYTE   N07  Bn0
 BYTE   W08
 BYTE   Gs0
 BYTE   N07  Gs1
 BYTE   W08
 BYTE   Ds0
 BYTE   N07  Ds1
 BYTE   W08
 BYTE   AsM1
 BYTE   N07  As0
 BYTE   W08
 BYTE   AnM1
 BYTE   N07  An0
 BYTE   W08
 BYTE   Dn0
 BYTE   N07  Dn1
 BYTE   W08
 BYTE   Gn0
 BYTE   N07  Gn1
 BYTE   W08
//  #03 //039   ----------------------------------------
 BYTE   N44  En1
 BYTE   N44  An1
 BYTE   W48
 BYTE   Dn1
 BYTE   N44  Gn1
 BYTE   W48
//  #03 //040   ----------------------------------------
 BYTE   N44
 BYTE   N44  Cn2
 BYTE   W48
 BYTE   TIE  An1
 BYTE   TIE  Dn2
 BYTE   W48
//  #03 //041   ----------------------------------------
 BYTE   W96
//  #03 //042   ----------------------------------------
 BYTE   W84
 BYTE   W03
 BYTE   EOT
 BYTE   An1  v050
 BYTE   W09
//  #03 //043   ----------------------------------------
 BYTE   GoTo
  POIN2 Label_01589E32
 BYTE   FINE

//**************** Track 4 (Midi-Chn.3) ****************//

Ecstasy_004:
//  #04 //000   ----------------------------------------
 BYTE   KEYSH   Ecstasy_key+0
Label_0158A65A:
 BYTE   VOICE   104
 BYTE   VOL   38*Ecstasy_mvl/mxv
 BYTE   PAN   c_v-30
 BYTE   N07  Bn1  v060
 BYTE   W08
 BYTE   Fs2
 BYTE   W08
 BYTE   Bn2
 BYTE   W08
 BYTE   Cn2
 BYTE   W08
 BYTE   Gn2
 BYTE   W08
 BYTE   Cn3
 BYTE   W08
 BYTE   Cs2
 BYTE   W08
 BYTE   Gs2
 BYTE   W08
 BYTE   Cs3
 BYTE   W08
 BYTE   Dn2
 BYTE   W08
 BYTE   An2
 BYTE   W08
 BYTE   Dn3
 BYTE   W08
//  #04 //001   ----------------------------------------
 BYTE   Bn1
 BYTE   W08
 BYTE   Fs2
 BYTE   W08
 BYTE   Bn2
 BYTE   W08
 BYTE   Cn2
 BYTE   W08
 BYTE   Gn2
 BYTE   W08
 BYTE   Cn3
 BYTE   W08
 BYTE   Cs2
 BYTE   W08
 BYTE   Gs2
 BYTE   W08
 BYTE   Cs3
 BYTE   W08
 BYTE   Dn2
 BYTE   W08
 BYTE   An2
 BYTE   W08
 BYTE   Dn3
 BYTE   W08
//  #04 //002   ----------------------------------------
 BYTE   Bn2
 BYTE   N07  En3
 BYTE   W08
 BYTE   Fs3
 BYTE   N07  Bn3
 BYTE   W08
 BYTE   N07
 BYTE   N07  En4
 BYTE   W08
 BYTE   Cn3
 BYTE   N07  Fn3
 BYTE   W08
 BYTE   Gn3
 BYTE   N07  Cn4
 BYTE   W08
 BYTE   N07
 BYTE   N07  Fn4
 BYTE   W08
 BYTE   Cs3
 BYTE   N07  Fs3
 BYTE   W08
 BYTE   Gs3
 BYTE   N07  Cs4
 BYTE   W08
 BYTE   N07
 BYTE   N07  Fs4
 BYTE   W08
 BYTE   Dn3
 BYTE   N07  Gn3
 BYTE   W08
 BYTE   An3
 BYTE   N07  Dn4
 BYTE   W08
 BYTE   N07
 BYTE   N07  Gn4
 BYTE   W08
//  #04 //003   ----------------------------------------
 BYTE   Ds3
 BYTE   N07  Gs3
 BYTE   W08
 BYTE   As3
 BYTE   N07  Ds4
 BYTE   W08
 BYTE   N07
 BYTE   N07  Gs4
 BYTE   W08
 BYTE   En3
 BYTE   N07  An3
 BYTE   W08
 BYTE   Bn3
 BYTE   N07  En4
 BYTE   W08
 BYTE   N07
 BYTE   N07  An4
 BYTE   W08
 BYTE   Fn3
 BYTE   N07  As3
 BYTE   W08
 BYTE   Cn4
 BYTE   N07  Fn4
 BYTE   W08
 BYTE   N07
 BYTE   N07  As4
 BYTE   W08
 BYTE   Fs3
 BYTE   N07  Bn3
 BYTE   W08
 BYTE   Cs4
 BYTE   N07  Fs4
 BYTE   W08
 BYTE   N07
 BYTE   N07  Bn4
 BYTE   W08
//  #04 //004   ----------------------------------------
 BYTE   W96
//  #04 //005   ----------------------------------------
 BYTE   W96
//  #04 //006   ----------------------------------------
 BYTE   W96
//  #04 //007   ----------------------------------------
 BYTE   W96
//  #04 //008   ----------------------------------------
 BYTE   W96
//  #04 //009   ----------------------------------------
 BYTE   W96
//  #04 //010   ----------------------------------------
 BYTE   W96
//  #04 //011   ----------------------------------------
 BYTE   W96
//  #04 //012   ----------------------------------------
 BYTE   N23  An2  v084
 BYTE   N23  En3
 BYTE   W24
 BYTE   N05  As2
 BYTE   N05  Fn3
 BYTE   W08
 BYTE   An2
 BYTE   N05  En3
 BYTE   W08
 BYTE   As2
 BYTE   N05  Fn3
 BYTE   W08
 BYTE   N21  Cn3
 BYTE   N21  Gn3
 BYTE   W24
 BYTE   N23  Ds3
 BYTE   N23  As3
 BYTE   W24
//  #04 //013   ----------------------------------------
 BYTE   N05  Cs3
 BYTE   N05  Gs3
 BYTE   W08
 BYTE   Bn2
 BYTE   N05  Fs3
 BYTE   W08
 BYTE   Cs3
 BYTE   N05  Gs3
 BYTE   W08
 BYTE   Cn3
 BYTE   N05  Gn3
 BYTE   W08
 BYTE   As2
 BYTE   N05  Fn3
 BYTE   W08
 BYTE   Cn3
 BYTE   N05  Gn3
 BYTE   W08
 BYTE   As2
 BYTE   N05  Fn3
 BYTE   W08
 BYTE   Cn3
 BYTE   N05  Gn3
 BYTE   W08
 BYTE   As2
 BYTE   N05  Fn3
 BYTE   W08
 BYTE   N23  An2
 BYTE   N23  En3
 BYTE   W24
//  #04 //014   ----------------------------------------
 BYTE   N05  As2
 BYTE   N05  Fn3
 BYTE   W08
 BYTE   An2
 BYTE   N05  En3
 BYTE   W08
 BYTE   As2
 BYTE   N05  Fn3
 BYTE   W08
 BYTE   N20  Cn3
 BYTE   N20  Gn3
 BYTE   W24
 BYTE   N23  Fn3
 BYTE   N23  Cn4
 BYTE   W24
 BYTE   N05  Ds3
 BYTE   N05  As3
 BYTE   W08
 BYTE   Cs3
 BYTE   N05  Gs3
 BYTE   W08
 BYTE   Ds3
 BYTE   N05  As3
 BYTE   W08
//  #04 //015   ----------------------------------------
 BYTE   Cs3
 BYTE   N05  Gs3
 BYTE   W08
 BYTE   Bn2
 BYTE   N05  Fs3
 BYTE   W08
 BYTE   Cs3
 BYTE   N05  Gs3
 BYTE   W08
 BYTE   Cn3
 BYTE   N05  Gn3
 BYTE   W08
 BYTE   As2
 BYTE   N05  Fn3
 BYTE   W08
 BYTE   Cn3
 BYTE   N05  Gn3
 BYTE   W08
 BYTE   N20  As2
 BYTE   N20  Fn3
 BYTE   W24
 BYTE   N05  An2
 BYTE   N05  En3
 BYTE   W08
 BYTE   Gn2
 BYTE   N05  Dn3
 BYTE   W08
 BYTE   An2
 BYTE   N05  En3
 BYTE   W08
//  #04 //016   ----------------------------------------
 BYTE   N23  Dn3
 BYTE   N23  An3
 BYTE   W24
 BYTE   N05  Ds3
 BYTE   N05  As3
 BYTE   W08
 BYTE   Dn3
 BYTE   N05  An3
 BYTE   W08
 BYTE   Ds3
 BYTE   N05  As3
 BYTE   W08
 BYTE   N21  Fn3
 BYTE   N21  Cn4
 BYTE   W24
 BYTE   N23  Gs3
 BYTE   N23  Ds4
 BYTE   W24
//  #04 //017   ----------------------------------------
 BYTE   N05  Fs3
 BYTE   N05  Cs4
 BYTE   W08
 BYTE   En3
 BYTE   N05  Bn3
 BYTE   W08
 BYTE   Fs3
 BYTE   N05  Cs4
 BYTE   W08
 BYTE   Fn3
 BYTE   N05  Cn4
 BYTE   W08
 BYTE   Ds3
 BYTE   N05  As3
 BYTE   W08
 BYTE   Fn3
 BYTE   N05  Cn4
 BYTE   W08
 BYTE   Ds3
 BYTE   N05  As3
 BYTE   W08
 BYTE   Fn3
 BYTE   N05  Cn4
 BYTE   W08
 BYTE   Ds3
 BYTE   N05  As3
 BYTE   W08
 BYTE   N23  Dn3
 BYTE   N23  An3
 BYTE   W24
//  #04 //018   ----------------------------------------
 BYTE   N05  Ds3
 BYTE   N05  As3
 BYTE   W08
 BYTE   Dn3
 BYTE   N05  An3
 BYTE   W08
 BYTE   Ds3
 BYTE   N05  As3
 BYTE   W08
 BYTE   N20  Fn3
 BYTE   N20  Cn4
 BYTE   W24
 BYTE   N23  As3
 BYTE   N23  Fn4
 BYTE   W24
 BYTE   N05  Gs3
 BYTE   N05  Ds4
 BYTE   W08
 BYTE   Fs3
 BYTE   N05  Cs4
 BYTE   W08
 BYTE   Gs3
 BYTE   N05  Ds4
 BYTE   W08
//  #04 //019   ----------------------------------------
 BYTE   Fs3
 BYTE   N05  Cs4
 BYTE   W08
 BYTE   En3
 BYTE   N05  Bn3
 BYTE   W08
 BYTE   Fs3
 BYTE   N05  Cs4
 BYTE   W08
 BYTE   Fn3
 BYTE   N05  Cn4
 BYTE   W08
 BYTE   Ds3
 BYTE   N05  As3
 BYTE   W08
 BYTE   Fn3
 BYTE   N05  Cn4
 BYTE   W08
 BYTE   N20  Ds3
 BYTE   N20  As3
 BYTE   W24
 BYTE   N05  Fn3
 BYTE   N05  Cn4
 BYTE   W08
 BYTE   Ds3
 BYTE   N05  As3
 BYTE   W08
 BYTE   Fn3
 BYTE   N05  Cn4
 BYTE   W08
//  #04 //020   ----------------------------------------
 BYTE   W96
//  #04 //021   ----------------------------------------
 BYTE   W96
//  #04 //022   ----------------------------------------
 BYTE   W96
//  #04 //023   ----------------------------------------
 BYTE   W96
//  #04 //024   ----------------------------------------
Label_0158A827:
 BYTE   N42  En4  v076
 BYTE   N42  Gn4
 BYTE   W48
 BYTE   N07  En4
 BYTE   N07  Gn4
 BYTE   W08
 BYTE   Fs4
 BYTE   N07  An4
 BYTE   W08
 BYTE   En4
 BYTE   N07  Gn4
 BYTE   W08
 BYTE   N19  Dn4
 BYTE   N19  Fs4
 BYTE   W24
 BYTE   PEND 
//  #04 //025   ----------------------------------------
 BYTE   N42  En4
 BYTE   N42  Gn4
 BYTE   W48
 BYTE   N07  En4
 BYTE   N07  Gn4
 BYTE   W08
 BYTE   Fs4
 BYTE   N07  An4
 BYTE   W08
 BYTE   En4
 BYTE   N07  Gn4
 BYTE   W08
 BYTE   N19
 BYTE   N19  Bn4
 BYTE   W24
//  #04 //026   ----------------------------------------
 BYTE   PATT
  POIN2 Label_0158A827
//  #04 //027   ----------------------------------------
 BYTE   N19  Fs4  v076
 BYTE   N19  An4
 BYTE   W24
 BYTE   En4
 BYTE   N19  Gn4
 BYTE   W24
 BYTE   En4
 BYTE   N19  An4
 BYTE   W24
 BYTE   Dn4
 BYTE   N19  Fs4
 BYTE   W24
//  #04 //028   ----------------------------------------
Label_0158A86D:
 BYTE   N07  En4  v076
 BYTE   N07  Gn4
 BYTE   W08
 BYTE   En3
 BYTE   N07  Gn3
 BYTE   W08
 BYTE   En4
 BYTE   N07  Gn4
 BYTE   W08
 BYTE   En3
 BYTE   N07  Gn3
 BYTE   W08
 BYTE   En4
 BYTE   N07  Gn4
 BYTE   W08
 BYTE   En3
 BYTE   N07  Gn3
 BYTE   W08
 BYTE   En4
 BYTE   N07  Gn4
 BYTE   W08
 BYTE   Gn3
 BYTE   N07  Bn3
 BYTE   W08
 BYTE   En4
 BYTE   N07  Gn4
 BYTE   W08
 BYTE   Gn3
 BYTE   N07  Bn3
 BYTE   W08
 BYTE   En4
 BYTE   N07  Gn4
 BYTE   W08
 BYTE   Gn3
 BYTE   N07  Bn3
 BYTE   W08
 BYTE   PEND 
//  #04 //029   ----------------------------------------
Label_0158A8A0:
 BYTE   N07  En4  v076
 BYTE   N07  Gn4
 BYTE   W08
 BYTE   Fs3
 BYTE   N07  As3
 BYTE   W08
 BYTE   En4
 BYTE   N07  Gn4
 BYTE   W08
 BYTE   Fs3
 BYTE   N07  As3
 BYTE   W08
 BYTE   En4
 BYTE   N07  Gn4
 BYTE   W08
 BYTE   Fs3
 BYTE   N07  As3
 BYTE   W08
 BYTE   En4
 BYTE   N07  Gn4
 BYTE   W08
 BYTE   Fn3
 BYTE   N07  An3
 BYTE   W08
 BYTE   En4
 BYTE   N07  Gn4
 BYTE   W08
 BYTE   Fn3
 BYTE   N07  An3
 BYTE   W08
 BYTE   En4
 BYTE   N07  Gn4
 BYTE   W08
 BYTE   Fn3
 BYTE   N07  An3
 BYTE   W08
 BYTE   PEND 
//  #04 //030   ----------------------------------------
 BYTE   PATT
  POIN2 Label_0158A86D
//  #04 //031   ----------------------------------------
 BYTE   PATT
  POIN2 Label_0158A8A0
//  #04 //032   ----------------------------------------
 BYTE   W96
//  #04 //033   ----------------------------------------
 BYTE   W96
//  #04 //034   ----------------------------------------
 BYTE   W96
//  #04 //035   ----------------------------------------
 BYTE   W96
//  #04 //036   ----------------------------------------
 BYTE   W96
//  #04 //037   ----------------------------------------
 BYTE   W96
//  #04 //038   ----------------------------------------
 BYTE   W96
//  #04 //039   ----------------------------------------
 BYTE   N44  En2  v084
 BYTE   N44  An2
 BYTE   W48
 BYTE   Dn2
 BYTE   N44  Gn2
 BYTE   W48
//  #04 //040   ----------------------------------------
 BYTE   N44
 BYTE   N44  Cn3
 BYTE   W48
 BYTE   TIE  An2
 BYTE   TIE  Dn3
 BYTE   W48
//  #04 //041   ----------------------------------------
 BYTE   W96
//  #04 //042   ----------------------------------------
 BYTE   W84
 BYTE   W03
 BYTE   EOT
 BYTE   An2  v062
 BYTE   W09
//  #04 //043   ----------------------------------------
 BYTE   GoTo
  POIN2 Label_0158A65A
 BYTE   FINE

//**************** Track 5 (Midi-Chn.4) ****************//

Ecstasy_005:
//  #05 //000   ----------------------------------------
 BYTE   KEYSH   Ecstasy_key+0
Label_0158AB06:
 BYTE   VOICE   124
 BYTE   VOL   47*Ecstasy_mvl/mxv
 BYTE   PAN   c_v+0
 BYTE   N07  Cn1  v116
 BYTE   N07  Fs1  v104
 BYTE   N44  Cs2  v096
 BYTE   W08
 BYTE   N07  Gs1  v072
 BYTE   W08
 BYTE   Gs1  v076
 BYTE   W08
 BYTE   Cn1  v116
 BYTE   N07  Fs1  v096
 BYTE   W08
 BYTE   Gs1  v076
 BYTE   W08
 BYTE   As1  v080
 BYTE   W08
 BYTE   Cn1  v116
 BYTE   N07  Fs1  v096
 BYTE   W08
 BYTE   Gs1  v076
 BYTE   W08
 BYTE   Gs1  v080
 BYTE   W08
 BYTE   Cn1  v116
 BYTE   N07  Fs1  v096
 BYTE   W08
 BYTE   Fs1  v076
 BYTE   W08
 BYTE   As1  v080
 BYTE   W08
//  #05 //001   ----------------------------------------
 BYTE   Cn1  v116
 BYTE   N07  Fs1  v104
 BYTE   W08
 BYTE   Gs1  v072
 BYTE   W08
 BYTE   Gs1  v076
 BYTE   W08
 BYTE   Cn1  v116
 BYTE   N07  Fs1  v096
 BYTE   W08
 BYTE   Gs1  v076
 BYTE   W08
 BYTE   As1  v080
 BYTE   W08
 BYTE   Cn1  v116
 BYTE   N07  Fs1  v096
 BYTE   W08
 BYTE   Gs1  v076
 BYTE   W08
 BYTE   Gs1  v080
 BYTE   W08
 BYTE   Cn1  v116
 BYTE   N44  Cs2  v096
 BYTE   W08
 BYTE   N07  Fs1  v076
 BYTE   W08
 BYTE   N03  Dn1
 BYTE   N07  As1  v080
 BYTE   W04
 BYTE   N03  Dn1  v088
 BYTE   W04
//  #05 //002   ----------------------------------------
 BYTE   N07  Cn1  v116
 BYTE   N07  Dn1
 BYTE   W08
 BYTE   Gs1  v072
 BYTE   W08
 BYTE   Gs1  v076
 BYTE   W08
 BYTE   Cn1  v116
 BYTE   N07  Fs1  v096
 BYTE   W08
 BYTE   Gs1  v076
 BYTE   W08
 BYTE   As1  v080
 BYTE   W08
 BYTE   Cn1  v116
 BYTE   N07  Fs1  v096
 BYTE   W08
 BYTE   Gs1  v076
 BYTE   W08
 BYTE   Gs1  v080
 BYTE   W08
 BYTE   Cn1  v116
 BYTE   N60  Cs2  v108
 BYTE   W24
//  #05 //003   ----------------------------------------
 BYTE   N07  Cn1  v116
 BYTE   N07  Fs1  v104
 BYTE   W04
 BYTE   N03  Dn1  v088
 BYTE   W04
 BYTE   N07  Dn1  v116
 BYTE   N07  Gs1  v072
 BYTE   W08
 BYTE   Dn1  v092
 BYTE   N07  Gs1  v076
 BYTE   W08
 BYTE   Cn1  v116
 BYTE   N07  Dn1
 BYTE   N07  Fs1  v096
 BYTE   W08
 BYTE   Dn2  v124
 BYTE   W08
 BYTE   Dn2  v108
 BYTE   W08
 BYTE   Cn1  v116
 BYTE   W08
 BYTE   Bn1  v124
 BYTE   W08
 BYTE   Bn1  v108
 BYTE   W08
 BYTE   Cn1  v116
 BYTE   N07  Gn1  v124
 BYTE   W08
 BYTE   Gn1  v108
 BYTE   W08
 BYTE   Cn1  v088
 BYTE   W08
//  #05 //004   ----------------------------------------
Label_0158ABDE:
 BYTE   N07  Cn1  v116
 BYTE   N07  Fs1  v104
 BYTE   N44  Cs2  v096
 BYTE   W08
 BYTE   N07  Gs1  v072
 BYTE   W08
 BYTE   Cn1  v088
 BYTE   N07  Gs1  v076
 BYTE   W08
 BYTE   Dn1  v116
 BYTE   N07  Fs1  v096
 BYTE   W08
 BYTE   Gs1  v076
 BYTE   W08
 BYTE   Cn1  v088
 BYTE   N07  As1  v080
 BYTE   W08
 BYTE   Cn1  v116
 BYTE   N07  Fs1  v096
 BYTE   W08
 BYTE   Gs1  v076
 BYTE   W08
 BYTE   Cn1  v088
 BYTE   N07  Gs1  v080
 BYTE   W08
 BYTE   Dn1  v116
 BYTE   N07  Fs1  v096
 BYTE   W08
 BYTE   Fs1  v076
 BYTE   W08
 BYTE   Cn1  v088
 BYTE   N07  As1  v080
 BYTE   W08
 BYTE   PEND 
//  #05 //005   ----------------------------------------
Label_0158AC20:
 BYTE   N07  Cn1  v116
 BYTE   N07  Fs1  v104
 BYTE   W08
 BYTE   Gs1  v072
 BYTE   W08
 BYTE   Cn1  v088
 BYTE   N07  Gs1  v076
 BYTE   W08
 BYTE   Dn1  v116
 BYTE   N07  Fs1  v096
 BYTE   W08
 BYTE   Gs1  v076
 BYTE   W08
 BYTE   Cn1  v088
 BYTE   N07  As1  v080
 BYTE   W08
 BYTE   Cn1  v116
 BYTE   N07  Fs1  v096
 BYTE   W08
 BYTE   Gs1  v076
 BYTE   W08
 BYTE   Cn1  v088
 BYTE   N07  Gs1  v080
 BYTE   W08
 BYTE   Dn1  v116
 BYTE   N07  Fs1  v096
 BYTE   W08
 BYTE   Fs1  v076
 BYTE   W08
 BYTE   Cn1  v088
 BYTE   N07  As1  v080
 BYTE   W08
 BYTE   PEND 
//  #05 //006   ----------------------------------------
Label_0158AC5E:
 BYTE   N07  Cn1  v116
 BYTE   N07  Fs1  v104
 BYTE   W08
 BYTE   Gs1  v072
 BYTE   W08
 BYTE   Cn1  v088
 BYTE   N07  Gs1  v076
 BYTE   W08
 BYTE   Dn1  v116
 BYTE   N07  Fs1  v096
 BYTE   W08
 BYTE   Gs1  v076
 BYTE   W08
 BYTE   Cn1  v088
 BYTE   N07  Dn1  v100
 BYTE   N07  As1  v080
 BYTE   W08
 BYTE   Cn1  v116
 BYTE   N07  Fs1  v096
 BYTE   W08
 BYTE   Gs1  v076
 BYTE   W08
 BYTE   Cn1  v088
 BYTE   N07  Gs1  v080
 BYTE   W08
 BYTE   Dn1  v116
 BYTE   N07  Fs1  v096
 BYTE   W08
 BYTE   Fs1  v076
 BYTE   W08
 BYTE   Cn1  v088
 BYTE   N07  As1  v080
 BYTE   W08
 BYTE   PEND 
//  #05 //007   ----------------------------------------
 BYTE   PATT
  POIN2 Label_0158AC20
//  #05 //008   ----------------------------------------
 BYTE   PATT
  POIN2 Label_0158ABDE
//  #05 //009   ----------------------------------------
 BYTE   PATT
  POIN2 Label_0158AC20
//  #05 //010   ----------------------------------------
 BYTE   PATT
  POIN2 Label_0158AC5E
//  #05 //011   ----------------------------------------
 BYTE   PATT
  POIN2 Label_0158AC20
//  #05 //012   ----------------------------------------
Label_0158ACB8:
 BYTE   N07  Cn1  v116
 BYTE   N07  Fs1  v104
 BYTE   N44  Cs2  v096
 BYTE   W08
 BYTE   N07  Gs1  v072
 BYTE   W08
 BYTE   Cn1  v088
 BYTE   N07  Gs1  v076
 BYTE   W08
 BYTE   Dn1  v116
 BYTE   N07  Fs1  v096
 BYTE   W08
 BYTE   Gs1  v076
 BYTE   W08
 BYTE   Cn1  v088
 BYTE   N07  As1  v080
 BYTE   W08
 BYTE   Cn1  v116
 BYTE   N07  Fs1  v096
 BYTE   W08
 BYTE   Gs1  v076
 BYTE   W08
 BYTE   Cn1  v088
 BYTE   N07  Gs1  v080
 BYTE   W08
 BYTE   Dn1  v116
 BYTE   N07  Fs1  v096
 BYTE   N44  Cs2
 BYTE   W08
 BYTE   N07  Fs1  v076
 BYTE   W08
 BYTE   Cn1  v088
 BYTE   N07  As1  v080
 BYTE   W08
 BYTE   PEND 
//  #05 //013   ----------------------------------------
Label_0158ACFD:
 BYTE   N07  Cn1  v116
 BYTE   N07  Fs1  v104
 BYTE   W08
 BYTE   Gs1  v072
 BYTE   W08
 BYTE   Cn1  v088
 BYTE   N07  Gs1  v076
 BYTE   W08
 BYTE   Dn1  v116
 BYTE   N07  Fs1  v096
 BYTE   W08
 BYTE   Gs1  v076
 BYTE   W08
 BYTE   Cn1  v088
 BYTE   N07  As1  v080
 BYTE   W08
 BYTE   Cn1  v116
 BYTE   N07  Fs1  v096
 BYTE   W08
 BYTE   Gs1  v076
 BYTE   W08
 BYTE   Cn1  v088
 BYTE   N07  Gs1  v080
 BYTE   W08
 BYTE   Cn1  v116
 BYTE   N07  Fs1  v104
 BYTE   N44  Cs2  v096
 BYTE   W08
 BYTE   N07  Gs1  v072
 BYTE   W08
 BYTE   Cn1  v088
 BYTE   N07  Gs1  v076
 BYTE   W08
 BYTE   PEND 
//  #05 //014   ----------------------------------------
 BYTE   Dn1  v116
 BYTE   N07  Fs1  v096
 BYTE   W08
 BYTE   Gs1  v076
 BYTE   W08
 BYTE   Cn1  v088
 BYTE   N07  As1  v080
 BYTE   W08
 BYTE   Cn1  v116
 BYTE   N07  Fs1  v096
 BYTE   W08
 BYTE   Gs1  v076
 BYTE   W08
 BYTE   Cn1  v088
 BYTE   N07  Gs1  v080
 BYTE   W08
 BYTE   Dn1  v116
 BYTE   N07  Fs1  v096
 BYTE   N44  Cs2
 BYTE   W08
 BYTE   N07  Fs1  v076
 BYTE   W08
 BYTE   Cn1  v088
 BYTE   N07  As1  v080
 BYTE   W08
 BYTE   Cn1  v116
 BYTE   N07  Fs1  v104
 BYTE   W08
 BYTE   Gs1  v072
 BYTE   W08
 BYTE   Cn1  v088
 BYTE   N07  Gs1  v076
 BYTE   W08
//  #05 //015   ----------------------------------------
 BYTE   Dn1  v116
 BYTE   N07  Fs1  v096
 BYTE   W08
 BYTE   Gs1  v076
 BYTE   W08
 BYTE   Cn1  v088
 BYTE   N07  As1  v080
 BYTE   W08
 BYTE   Cn1  v116
 BYTE   N07  Fs1  v096
 BYTE   W08
 BYTE   Gs1  v076
 BYTE   W08
 BYTE   Cn1  v088
 BYTE   N07  Gs1  v080
 BYTE   W08
 BYTE   Dn1  v116
 BYTE   N07  Fs1  v096
 BYTE   W08
 BYTE   Gs1  v076
 BYTE   W08
 BYTE   Cn1  v088
 BYTE   N07  As1  v080
 BYTE   W02
 BYTE   N01  Dn1  v072
 BYTE   W03
 BYTE   Dn1  v096
 BYTE   W03
 BYTE   N07  Dn1  v116
 BYTE   W08
 BYTE   Dn1  v096
 BYTE   W08
 BYTE   Cn1  v100
 BYTE   W08
//  #05 //016   ----------------------------------------
 BYTE   PATT
  POIN2 Label_0158ACB8
//  #05 //017   ----------------------------------------
 BYTE   PATT
  POIN2 Label_0158ACFD
//  #05 //018   ----------------------------------------
 BYTE   N07  Dn1  v116
 BYTE   W08
 BYTE   Gs1  v076
 BYTE   W08
 BYTE   Cn1  v088
 BYTE   N07  As1  v080
 BYTE   W08
 BYTE   Cn1  v116
 BYTE   N07  Fs1  v096
 BYTE   W08
 BYTE   Dn1  v072
 BYTE   W08
 BYTE   Cn1  v088
 BYTE   N07  Dn1  v096
 BYTE   W08
 BYTE   Dn1  v116
 BYTE   N07  Fs1  v096
 BYTE   N44  Cs2
 BYTE   W08
 BYTE   N07  Fs1  v076
 BYTE   W08
 BYTE   Cn1  v088
 BYTE   N07  An1  v120
 BYTE   W08
 BYTE   Cn1  v116
 BYTE   N07  Fs1  v104
 BYTE   W08
 BYTE   N03  En1
 BYTE   N07  Gs1  v072
 BYTE   W08
 BYTE   Cn1  v088
 BYTE   N03  En1
 BYTE   N07  Gs1  v076
 BYTE   W08
//  #05 //019   ----------------------------------------
 BYTE   Fs1  v096
 BYTE   N07  Bn1  v120
 BYTE   W16
 BYTE   Cn1  v088
 BYTE   N07  Fn1  v127
 BYTE   W08
 BYTE   Cn1  v116
 BYTE   N03  Dn1
 BYTE   W08
 BYTE   N07  Gs1  v076
 BYTE   W08
 BYTE   Cn1  v088
 BYTE   N07  Gs1  v080
 BYTE   W08
 BYTE   Dn1  v116
 BYTE   N07  Fs1  v096
 BYTE   W08
 BYTE   Dn1  v108
 BYTE   N07  Gs1  v076
 BYTE   W08
 BYTE   Cn1  v088
 BYTE   N07  As1  v080
 BYTE   W02
 BYTE   N01  Dn1  v072
 BYTE   W03
 BYTE   Dn1  v096
 BYTE   W03
 BYTE   N07  Dn1  v116
 BYTE   W08
 BYTE   Dn1  v096
 BYTE   W08
 BYTE   Cn1  v100
 BYTE   W08
//  #05 //020   ----------------------------------------
Label_0158AE46:
 BYTE   N07  Cn1  v116
 BYTE   N07  Fs1  v104
 BYTE   N44  Cs2  v096
 BYTE   W08
 BYTE   N07  Gs1  v072
 BYTE   W08
 BYTE   Cn1  v096
 BYTE   N07  Fs1
 BYTE   W08
 BYTE   Gs1  v072
 BYTE   W08
 BYTE   Cn1  v104
 BYTE   N15  As1  v096
 BYTE   W16
 BYTE   N07  Cn1  v116
 BYTE   N07  Fs1  v104
 BYTE   W08
 BYTE   Gs1  v072
 BYTE   W08
 BYTE   Cn1  v096
 BYTE   N07  Fs1
 BYTE   W08
 BYTE   Gs1  v072
 BYTE   W08
 BYTE   Cn1  v104
 BYTE   N15  As1  v096
 BYTE   W10
 BYTE   N01  Dn1  v072
 BYTE   W03
 BYTE   Dn1  v096
 BYTE   W03
 BYTE   PEND 
//  #05 //021   ----------------------------------------
Label_0158AE82:
 BYTE   N07  Cn1  v116
 BYTE   N07  Dn1
 BYTE   N07  Fs1  v104
 BYTE   W08
 BYTE   Gs1  v072
 BYTE   W08
 BYTE   Cn1  v096
 BYTE   N07  Fs1
 BYTE   W08
 BYTE   Gs1  v072
 BYTE   W08
 BYTE   Cn1  v104
 BYTE   N15  As1  v096
 BYTE   W08
 BYTE   N07  En2  v124
 BYTE   W08
 BYTE   Cn1  v116
 BYTE   N07  Fs1  v104
 BYTE   W08
 BYTE   Gs1  v072
 BYTE   N07  Cn2  v120
 BYTE   W08
 BYTE   Cn1  v096
 BYTE   N07  Fs1
 BYTE   W08
 BYTE   Gn1  v120
 BYTE   N07  Gs1  v072
 BYTE   W08
 BYTE   Cn1  v104
 BYTE   N15  As1  v096
 BYTE   W16
 BYTE   PEND 
//  #05 //022   ----------------------------------------
Label_0158AEBE:
 BYTE   N07  Cn1  v116
 BYTE   N07  Fs1  v104
 BYTE   N44  Cs2  v096
 BYTE   W08
 BYTE   N07  Gs1  v072
 BYTE   W08
 BYTE   Cn1  v096
 BYTE   N07  Fs1
 BYTE   W08
 BYTE   Gs1  v072
 BYTE   W08
 BYTE   Cn1  v104
 BYTE   N15  As1  v096
 BYTE   W16
 BYTE   N07  Cn1  v116
 BYTE   N07  Fs1  v104
 BYTE   W08
 BYTE   Gs1  v072
 BYTE   W08
 BYTE   Cn1  v096
 BYTE   N07  Fs1
 BYTE   W08
 BYTE   Gs1  v072
 BYTE   W08
 BYTE   Cn1  v104
 BYTE   N15  As1  v096
 BYTE   W08
 BYTE   N01  Dn1  v072
 BYTE   W03
 BYTE   Dn1  v096
 BYTE   W03
 BYTE   N07  Dn1  v116
 BYTE   W02
 BYTE   PEND 
//  #05 //023   ----------------------------------------
Label_0158AEFE:
 BYTE   N07  Cn1  v116
 BYTE   N07  Fs1  v104
 BYTE   W08
 BYTE   Gs1  v072
 BYTE   W08
 BYTE   Cn1  v096
 BYTE   N07  Fs1
 BYTE   W08
 BYTE   Gs1  v072
 BYTE   W08
 BYTE   Cn1  v104
 BYTE   N15  As1  v096
 BYTE   W16
 BYTE   N07  Cn1  v116
 BYTE   N07  Fs1  v104
 BYTE   W08
 BYTE   Gs1  v072
 BYTE   W08
 BYTE   Cn1  v096
 BYTE   N07  Fs1
 BYTE   W08
 BYTE   Gs1  v072
 BYTE   W08
 BYTE   Cn1  v104
 BYTE   N15  As1  v096
 BYTE   W16
 BYTE   PEND 
//  #05 //024   ----------------------------------------
 BYTE   PATT
  POIN2 Label_0158AE46
//  #05 //025   ----------------------------------------
 BYTE   PATT
  POIN2 Label_0158AE82
//  #05 //026   ----------------------------------------
 BYTE   PATT
  POIN2 Label_0158AEBE
//  #05 //027   ----------------------------------------
 BYTE   PATT
  POIN2 Label_0158AEFE
//  #05 //028   ----------------------------------------
 BYTE   PATT
  POIN2 Label_0158AE46
//  #05 //029   ----------------------------------------
 BYTE   PATT
  POIN2 Label_0158AE82
//  #05 //030   ----------------------------------------
 BYTE   PATT
  POIN2 Label_0158AEBE
//  #05 //031   ----------------------------------------
 BYTE   N07  Cn1  v116
 BYTE   N07  Fs1  v104
 BYTE   W08
 BYTE   Gs1  v072
 BYTE   W08
 BYTE   Cn1  v096
 BYTE   N07  Fs1
 BYTE   W08
 BYTE   Gs1  v072
 BYTE   W08
 BYTE   Cn1  v104
 BYTE   N15  As1  v096
 BYTE   W16
 BYTE   N07  Cn1  v116
 BYTE   N07  Cn2  v120
 BYTE   W16
 BYTE   Cn1  v096
 BYTE   W08
 BYTE   An1  v127
 BYTE   W08
 BYTE   Cn1  v104
 BYTE   W16
//  #05 //032   ----------------------------------------
 BYTE   Cn1  v116
 BYTE   N07  Fs1  v104
 BYTE   W08
 BYTE   Cn1  v096
 BYTE   N07  Gs1  v084
 BYTE   W08
 BYTE   Cn1  v096
 BYTE   N07  Gs1  v076
 BYTE   W08
 BYTE   Cn1  v116
 BYTE   N07  Dn1
 BYTE   N07  Fs1  v104
 BYTE   N44  Cs2  v096
 BYTE   W08
 BYTE   N07  Gs1  v088
 BYTE   W08
 BYTE   Gs1  v076
 BYTE   W08
 BYTE   Fs1  v104
 BYTE   W08
 BYTE   Cn1  v088
 BYTE   N07  Gs1
 BYTE   W08
 BYTE   Dn1
 BYTE   N07  As1  v096
 BYTE   W08
 BYTE   Cn1  v116
 BYTE   N07  Fs1  v104
 BYTE   W08
 BYTE   Dn1  v096
 BYTE   N07  Gs1  v084
 BYTE   W08
 BYTE   Cn1  v096
 BYTE   N07  Gs1  v076
 BYTE   W08
//  #05 //033   ----------------------------------------
 BYTE   Cn1  v116
 BYTE   N07  Dn1
 BYTE   N07  Fs1  v104
 BYTE   N44  Cs2  v096
 BYTE   W08
 BYTE   N07  Gs1  v088
 BYTE   W08
 BYTE   Gs1  v076
 BYTE   W08
 BYTE   Fs1  v104
 BYTE   W08
 BYTE   Dn1  v116
 BYTE   N07  Gs1  v088
 BYTE   W08
 BYTE   Dn1  v108
 BYTE   N07  As1  v096
 BYTE   W08
 BYTE   Cn1  v116
 BYTE   N07  Fs1  v104
 BYTE   W08
 BYTE   Cn1  v096
 BYTE   N07  Gs1  v084
 BYTE   W08
 BYTE   Cn1  v096
 BYTE   N07  Gs1  v076
 BYTE   W08
 BYTE   Cn1  v116
 BYTE   N07  Dn1
 BYTE   N07  Fs1  v104
 BYTE   N44  Cs2  v096
 BYTE   W08
 BYTE   N07  Gs1  v088
 BYTE   W08
 BYTE   Gs1  v076
 BYTE   W08
//  #05 //034   ----------------------------------------
 BYTE   Fs1  v104
 BYTE   W08
 BYTE   Cn1  v088
 BYTE   N07  Gs1
 BYTE   W08
 BYTE   Dn1
 BYTE   N07  As1  v096
 BYTE   W08
 BYTE   Cn1  v116
 BYTE   N07  Fs1  v104
 BYTE   W08
 BYTE   Dn1  v096
 BYTE   N07  Gs1  v084
 BYTE   W08
 BYTE   Cn1  v096
 BYTE   N07  Gs1  v076
 BYTE   W08
 BYTE   Cn1  v116
 BYTE   N07  Dn1
 BYTE   N07  Fs1  v104
 BYTE   N44  Cs2  v096
 BYTE   W08
 BYTE   N07  Gs1  v088
 BYTE   W08
 BYTE   Gs1  v076
 BYTE   W08
 BYTE   Cn1  v116
 BYTE   N07  Fs1  v104
 BYTE   W08
 BYTE   Dn1  v116
 BYTE   N07  Gs1  v088
 BYTE   W08
 BYTE   Dn1  v108
 BYTE   N07  As1  v096
 BYTE   W08
//  #05 //035   ----------------------------------------
 BYTE   Dn1  v116
 BYTE   N07  Fs1  v104
 BYTE   N44  Cs2  v096
 BYTE   W08
 BYTE   N07  Cn1  v116
 BYTE   N07  Gs1  v088
 BYTE   W08
 BYTE   Cn1  v116
 BYTE   N07  Gs1  v076
 BYTE   W08
 BYTE   Fs1  v104
 BYTE   W08
 BYTE   Dn1  v116
 BYTE   N07  Gs1  v088
 BYTE   W08
 BYTE   Dn1  v108
 BYTE   N07  As1  v096
 BYTE   W08
 BYTE   Dn1  v116
 BYTE   N07  Fs1  v104
 BYTE   N44  Cs2  v096
 BYTE   W08
 BYTE   N07  Cn1  v116
 BYTE   N07  Gs1  v088
 BYTE   W08
 BYTE   Cn1  v116
 BYTE   N07  Gs1  v076
 BYTE   W08
 BYTE   Fs1  v104
 BYTE   W08
 BYTE   Dn1  v116
 BYTE   N07  Gs1  v088
 BYTE   W08
 BYTE   Dn1  v108
 BYTE   N07  As1  v096
 BYTE   W08
//  #05 //036   ----------------------------------------
 BYTE   Fs1  v104
 BYTE   N44  Cs2  v096
 BYTE   W24
 BYTE   N07  Fs1  v120
 BYTE   W24
 BYTE   Gs1
 BYTE   W24
 BYTE   Fs1
 BYTE   W24
//  #05 //037   ----------------------------------------
 BYTE   Gs1
 BYTE   W24
 BYTE   Fs1
 BYTE   W24
 BYTE   Gs1
 BYTE   W24
 BYTE   Fs1
 BYTE   W24
//  #05 //038   ----------------------------------------
 BYTE   Gs1
 BYTE   W24
 BYTE   Fs1
 BYTE   W24
 BYTE   Gs1
 BYTE   W24
 BYTE   N23  As1
 BYTE   W24
//  #05 //039   ----------------------------------------
 BYTE   N07  Cn1  v116
 BYTE   N07  Gn1  v120
 BYTE   N44  Cs2  v096
 BYTE   W24
 BYTE   N07  Cn1
 BYTE   W24
 BYTE   Cn1  v116
 BYTE   W24
 BYTE   Cn1  v096
 BYTE   W24
//  #05 //040   ----------------------------------------
 BYTE   Cn1  v116
 BYTE   W24
 BYTE   Cn1  v096
 BYTE   W24
 BYTE   Cn1  v116
 BYTE   N44  Cs2  v096
 BYTE   W48
//  #05 //041   ----------------------------------------
 BYTE   W48
 BYTE   N03  Dn1  v068
 BYTE   W04
 BYTE   Dn1  v072
 BYTE   W04
 BYTE   Dn1  v076
 BYTE   W04
 BYTE   Dn1  v080
 BYTE   W04
 BYTE   Dn1  v084
 BYTE   W04
 BYTE   Dn1  v092
 BYTE   W04
 BYTE   N07  Dn1  v116
 BYTE   W08
 BYTE   Dn1  v096
 BYTE   W08
 BYTE   Dn1  v116
 BYTE   W08
//  #05 //042   ----------------------------------------
 BYTE   N11  Dn1  v120
 BYTE   W12
 BYTE   N11
 BYTE   W12
 BYTE   N15
 BYTE   W32
 BYTE   N07  Dn1  v104
 BYTE   W08
 BYTE   Bn0  v120
 BYTE   W32
//  #05 //043   ----------------------------------------
 BYTE   GoTo
  POIN2 Label_0158AB06
 BYTE   FINE

//**************** Track 6 (Midi-Chn.5) ****************//

Ecstasy_006:
//  #06 //000   ----------------------------------------
 BYTE   KEYSH   Ecstasy_key+0
Label_015894AA:
 BYTE   VOICE   30
 BYTE   VOL   18*Ecstasy_mvl/mxv
 BYTE   PAN   c_v+30
 BYTE   W96
//  #06 //001   ----------------------------------------
 BYTE   W96
//  #06 //002   ----------------------------------------
 BYTE   W96
//  #06 //003   ----------------------------------------
 BYTE   W96
//  #06 //004   ----------------------------------------
 BYTE   W64
 BYTE   N07  En5  v100
 BYTE   N07  Bn5
 BYTE   W08
 BYTE   Bn4
 BYTE   N07  En5
 BYTE   W08
 BYTE   En4
 BYTE   N07  Bn4
 BYTE   W08
 BYTE   En4
 BYTE   N07  Bn4
 BYTE   W08
//  #06 //005   ----------------------------------------
Label_015894C7:
 BYTE   N07  Bn4  v100
 BYTE   N07  En5
 BYTE   W08
 BYTE   N07
 BYTE   N07  Bn5
 BYTE   W56
 BYTE   Ds5
 BYTE   N07  As5
 BYTE   W08
 BYTE   As4
 BYTE   N07  Ds5
 BYTE   W08
 BYTE   Ds4
 BYTE   N07  As4
 BYTE   W08
 BYTE   Ds4
 BYTE   N07  As4
 BYTE   W08
 BYTE   PEND 
//  #06 //006   ----------------------------------------
Label_015894E2:
 BYTE   N07  As4  v100
 BYTE   N07  Ds5
 BYTE   W08
 BYTE   N07
 BYTE   N07  As5
 BYTE   W56
 BYTE   Cn5
 BYTE   N07  Gn5
 BYTE   W08
 BYTE   Gn4
 BYTE   N07  Cn5
 BYTE   W08
 BYTE   Cn4
 BYTE   N07  Gn4
 BYTE   W08
 BYTE   Cn4
 BYTE   N07  Gn4
 BYTE   W08
 BYTE   PEND 
//  #06 //007   ----------------------------------------
Label_015894FD:
 BYTE   N07  Gn4  v100
 BYTE   N07  Cn5
 BYTE   W08
 BYTE   N07
 BYTE   N07  Gn5
 BYTE   W56
 BYTE   Ds4
 BYTE   N07  As4
 BYTE   W08
 BYTE   N07
 BYTE   N07  Ds5
 BYTE   W08
 BYTE   N07
 BYTE   N07  As5
 BYTE   W08
 BYTE   Ds5
 BYTE   N07  As5
 BYTE   W08
 BYTE   PEND 
//  #06 //008   ----------------------------------------
 BYTE   As4
 BYTE   N07  Ds5
 BYTE   W08
 BYTE   Ds4
 BYTE   N07  As4
 BYTE   W56
 BYTE   En5
 BYTE   N07  Bn5
 BYTE   W08
 BYTE   Bn4
 BYTE   N07  En5
 BYTE   W08
 BYTE   En4
 BYTE   N07  Bn4
 BYTE   W08
 BYTE   En4
 BYTE   N07  Bn4
 BYTE   W08
//  #06 //009   ----------------------------------------
 BYTE   PATT
  POIN2 Label_015894C7
//  #06 //010   ----------------------------------------
 BYTE   PATT
  POIN2 Label_015894E2
//  #06 //011   ----------------------------------------
 BYTE   PATT
  POIN2 Label_015894FD
//  #06 //012   ----------------------------------------
 BYTE   N07  As4  v100
 BYTE   N07  Ds5
 BYTE   W08
 BYTE   Ds4
 BYTE   N07  As4
 BYTE   W88
//  #06 //013   ----------------------------------------
 BYTE   W96
//  #06 //014   ----------------------------------------
 BYTE   W96
//  #06 //015   ----------------------------------------
 BYTE   W96
//  #06 //016   ----------------------------------------
 BYTE   W96
//  #06 //017   ----------------------------------------
 BYTE   W96
//  #06 //018   ----------------------------------------
 BYTE   W96
//  #06 //019   ----------------------------------------
 BYTE   W96
//  #06 //020   ----------------------------------------
Label_01589550:
 BYTE   W16
 BYTE   N42  En5  v096
 BYTE   N42  Gn5  v108
 BYTE   W48
 BYTE   N07  En5  v096
 BYTE   N07  Gn5  v108
 BYTE   W08
 BYTE   Fs5  v096
 BYTE   N07  An5  v108
 BYTE   W08
 BYTE   En5  v096
 BYTE   N07  Gn5  v108
 BYTE   W08
 BYTE   N19  Dn5  v096
 BYTE   N19  Fs5  v108
 BYTE   W08
 BYTE   PEND 
//  #06 //021   ----------------------------------------
Label_01589573:
 BYTE   W16
 BYTE   N42  En5  v096
 BYTE   N42  Gn5  v108
 BYTE   W48
 BYTE   N07  En5  v096
 BYTE   N07  Gn5  v108
 BYTE   W08
 BYTE   Fs5  v096
 BYTE   N07  An5  v108
 BYTE   W08
 BYTE   En5  v096
 BYTE   N07  Gn5  v108
 BYTE   W08
 BYTE   N19  Gn5  v096
 BYTE   N19  Bn5  v108
 BYTE   W08
 BYTE   PEND 
//  #06 //022   ----------------------------------------
 BYTE   PATT
  POIN2 Label_01589550
//  #06 //023   ----------------------------------------
Label_0158959B:
 BYTE   W16
 BYTE   N19  Fs5  v096
 BYTE   N19  An5  v108
 BYTE   W24
 BYTE   En5  v096
 BYTE   N19  Gn5  v108
 BYTE   W24
 BYTE   En5  v096
 BYTE   N19  An5  v108
 BYTE   W24
 BYTE   Dn5  v096
 BYTE   N19  Fs5  v108
 BYTE   W08
 BYTE   PEND 
//  #06 //024   ----------------------------------------
 BYTE   PATT
  POIN2 Label_01589550
//  #06 //025   ----------------------------------------
 BYTE   PATT
  POIN2 Label_01589573
//  #06 //026   ----------------------------------------
 BYTE   W16
 BYTE   N42  En5  v096
 BYTE   N42  Gn5  v108
 BYTE   W48
 BYTE   N07  En5  v096
 BYTE   N07  Gn5  v108
 BYTE   W08
 BYTE   Fs5  v096
 BYTE   N07  An5  v108
 BYTE   W08
 BYTE   En5  v096
 BYTE   N07  Gn5  v108
 BYTE   W08
 BYTE   N19  Dn5  v096
 BYTE   N19  Fs5
 BYTE   W08
//  #06 //027   ----------------------------------------
 BYTE   PATT
  POIN2 Label_0158959B
//  #06 //028   ----------------------------------------
 BYTE   W16
 BYTE   N03  En5  v096
 BYTE   N03  Gn5  v108
 BYTE   W80
//  #06 //029   ----------------------------------------
 BYTE   W96
//  #06 //030   ----------------------------------------
 BYTE   W16
 BYTE   En5  v096
 BYTE   N03  Gn5
 BYTE   W80
//  #06 //031   ----------------------------------------
 BYTE   W96
//  #06 //032   ----------------------------------------
 BYTE   W96
//  #06 //033   ----------------------------------------
 BYTE   W96
//  #06 //034   ----------------------------------------
 BYTE   W96
//  #06 //035   ----------------------------------------
 BYTE   W96
//  #06 //036   ----------------------------------------
 BYTE   W96
//  #06 //037   ----------------------------------------
 BYTE   W96
//  #06 //038   ----------------------------------------
 BYTE   W96
//  #06 //039   ----------------------------------------
 BYTE   W96
//  #06 //040   ----------------------------------------
 BYTE   W96
//  #06 //041   ----------------------------------------
 BYTE   W96
//  #06 //042   ----------------------------------------
 BYTE   W96
//  #06 //043   ----------------------------------------
 BYTE   GoTo
  POIN2 Label_015894AA
 BYTE   FINE

//******************************************************//
	ALIGN 4

Ecstasy:
	BYTE	6	// NumTrks
	BYTE	0	// NumBlks
	BYTE	Ecstasy_pri	// Priority
	BYTE	Ecstasy_rev	// Reverb.
    
	POIN2	Ecstasy_grp
    
	POIN2	Ecstasy_001
	POIN2	Ecstasy_002
	POIN2	Ecstasy_003
	POIN2	Ecstasy_004
	POIN2	Ecstasy_005
	POIN2	Ecstasy_006

	
