//Event file generated from Sappy .s format.
	#include "MPlayDef.event"

	#define	EleventhHour_grp  voicegroup000
	#define	EleventhHour_pri  0
	#define	EleventhHour_rev  0
	#define	EleventhHour_mvl  127
	#define	EleventhHour_key  0
	#define	EleventhHour_tbs  1
	#define	EleventhHour_exg  0
	#define	EleventhHour_cmp  1

	// .rodata
	//	EleventhHour
	ALIGN 4


//**************** Track 1 (Midi-Chn.0) ****************//

EleventhHour_001:
//  #01 //000   ----------------------------------------
 BYTE   KEYSH   EleventhHour_key+0
 BYTE   TEMPO   102*EleventhHour_tbs/2
 BYTE   VOICE   100
 BYTE   VOL   68*EleventhHour_mvl/mxv
 BYTE   N12  Fs3  v052
 BYTE   W12
 BYTE   N24  Cs4
 BYTE   W24
 BYTE   N12  Dn4
 BYTE   W12
 BYTE   N24  Cs4
 BYTE   W24
 BYTE   Fs3
 BYTE   W24
//  #01 //001   ----------------------------------------
 BYTE   N12  En3
 BYTE   W12
 BYTE   N24  Cs4
 BYTE   W24
 BYTE   N12  Dn4
 BYTE   W12
 BYTE   N24  En4
 BYTE   W24
 BYTE   En3
 BYTE   W24
//  #01 //002   ----------------------------------------
 BYTE   N12  Dn3
 BYTE   W12
 BYTE   N24  Cs4
 BYTE   W24
 BYTE   N12  Dn4
 BYTE   W12
 BYTE   N24  Cs4
 BYTE   W24
 BYTE   Fs3
 BYTE   W24
//  #01 //003   ----------------------------------------
 BYTE   N12  Cs3
 BYTE   W12
 BYTE   N24  Cs4
 BYTE   W24
 BYTE   N12  Dn4
 BYTE   W12
 BYTE   N24  En4
 BYTE   W48
//  #01 //004   ----------------------------------------
 BYTE   W96
//  #01 //005   ----------------------------------------
 BYTE   W96
//  #01 //006   ----------------------------------------
 BYTE   W96
//  #01 //007   ----------------------------------------
 BYTE   W96
//  #01 //008   ----------------------------------------
Label_0178751F:
 BYTE   N03  Bn2  v052
 BYTE   W12
 BYTE   Fs3
 BYTE   W24
 BYTE   Gn3
 BYTE   W12
 BYTE   Fs3
 BYTE   W24
 BYTE   Bn2
 BYTE   W24
 BYTE   PEND 
//  #01 //009   ----------------------------------------
Label_0178752C:
 BYTE   N03  An2  v052
 BYTE   W12
 BYTE   Fs3
 BYTE   W24
 BYTE   Gn3
 BYTE   W12
 BYTE   An3
 BYTE   W24
 BYTE   An2
 BYTE   W24
 BYTE   PEND 
//  #01 //010   ----------------------------------------
Label_01787539:
 BYTE   N03  Gn2  v052
 BYTE   W12
 BYTE   Fs3
 BYTE   W24
 BYTE   Gn3
 BYTE   W12
 BYTE   Fs3
 BYTE   W24
 BYTE   Bn2
 BYTE   W24
 BYTE   PEND 
//  #01 //011   ----------------------------------------
Label_01787546:
 BYTE   N03  Fs2  v052
 BYTE   W12
 BYTE   Fs3
 BYTE   W24
 BYTE   Gn3
 BYTE   W12
 BYTE   An3
 BYTE   W48
 BYTE   PEND 
//  #01 //012   ----------------------------------------
 BYTE   PATT
  POIN2 Label_0178751F
//  #01 //013   ----------------------------------------
 BYTE   PATT
  POIN2 Label_0178752C
//  #01 //014   ----------------------------------------
 BYTE   PATT
  POIN2 Label_01787539
//  #01 //015   ----------------------------------------
 BYTE   PATT
  POIN2 Label_01787546
//  #01 //016   ----------------------------------------
 BYTE   PATT
  POIN2 Label_0178751F
//  #01 //017   ----------------------------------------
 BYTE   PATT
  POIN2 Label_0178752C
//  #01 //018   ----------------------------------------
 BYTE   PATT
  POIN2 Label_01787539
//  #01 //019   ----------------------------------------
 BYTE   PATT
  POIN2 Label_01787546
//  #01 //020   ----------------------------------------
 BYTE   PATT
  POIN2 Label_0178751F
//  #01 //021   ----------------------------------------
 BYTE   PATT
  POIN2 Label_0178752C
//  #01 //022   ----------------------------------------
 BYTE   PATT
  POIN2 Label_01787539
//  #01 //023   ----------------------------------------
 BYTE   PATT
  POIN2 Label_01787546
//  #01 //024   ----------------------------------------
 BYTE   W96
//  #01 //025   ----------------------------------------
 BYTE   W96
//  #01 //026   ----------------------------------------
 BYTE   W96
//  #01 //027   ----------------------------------------
 BYTE   W96
//  #01 //028   ----------------------------------------
 BYTE   W96
//  #01 //029   ----------------------------------------
 BYTE   W96
//  #01 //030   ----------------------------------------
 BYTE   W96
//  #01 //031   ----------------------------------------
 BYTE   W96
//  #01 //032   ----------------------------------------
 BYTE   W96
//  #01 //033   ----------------------------------------
 BYTE   W96
//  #01 //034   ----------------------------------------
 BYTE   W96
//  #01 //035   ----------------------------------------
 BYTE   W96
//  #01 //036   ----------------------------------------
 BYTE   PATT
  POIN2 Label_0178751F
//  #01 //037   ----------------------------------------
 BYTE   PATT
  POIN2 Label_0178752C
//  #01 //038   ----------------------------------------
 BYTE   PATT
  POIN2 Label_01787539
//  #01 //039   ----------------------------------------
 BYTE   PATT
  POIN2 Label_01787546
//  #01 //040   ----------------------------------------
 BYTE   PATT
  POIN2 Label_0178751F
//  #01 //041   ----------------------------------------
 BYTE   PATT
  POIN2 Label_0178752C
//  #01 //042   ----------------------------------------
 BYTE   PATT
  POIN2 Label_01787539
//  #01 //043   ----------------------------------------
 BYTE   PATT
  POIN2 Label_01787546
//  #01 //044   ----------------------------------------
 BYTE   W96
//  #01 //045   ----------------------------------------
 BYTE   W96
//  #01 //046   ----------------------------------------
 BYTE   W96
//  #01 //047   ----------------------------------------
 BYTE   W96
//  #01 //048   ----------------------------------------
 BYTE   W96
//  #01 //049   ----------------------------------------
 BYTE   W96
//  #01 //050   ----------------------------------------
 BYTE   W96
//  #01 //051   ----------------------------------------
 BYTE   W96
//  #01 //052   ----------------------------------------
Label_017875C9:
 BYTE   W96
//  #01 //053   ----------------------------------------
 BYTE   W96
//  #01 //054   ----------------------------------------
 BYTE   W96
//  #01 //055   ----------------------------------------
 BYTE   W96
//  #01 //056   ----------------------------------------
 BYTE   W96
//  #01 //057   ----------------------------------------
 BYTE   W96
//  #01 //058   ----------------------------------------
 BYTE   W96
//  #01 //059   ----------------------------------------
 BYTE   W96
//  #01 //060   ----------------------------------------
 BYTE   PATT
  POIN2 Label_0178751F
//  #01 //061   ----------------------------------------
 BYTE   PATT
  POIN2 Label_0178752C
//  #01 //062   ----------------------------------------
 BYTE   PATT
  POIN2 Label_01787539
//  #01 //063   ----------------------------------------
 BYTE   PATT
  POIN2 Label_01787546
//  #01 //064   ----------------------------------------
 BYTE   PATT
  POIN2 Label_0178751F
//  #01 //065   ----------------------------------------
 BYTE   PATT
  POIN2 Label_0178752C
//  #01 //066   ----------------------------------------
 BYTE   PATT
  POIN2 Label_01787539
//  #01 //067   ----------------------------------------
 BYTE   PATT
  POIN2 Label_01787546
//  #01 //068   ----------------------------------------
 BYTE   W96
//  #01 //069   ----------------------------------------
 BYTE   W96
//  #01 //070   ----------------------------------------
 BYTE   W96
//  #01 //071   ----------------------------------------
 BYTE   W96
//  #01 //072   ----------------------------------------
 BYTE   W96
//  #01 //073   ----------------------------------------
 BYTE   W96
//  #01 //074   ----------------------------------------
 BYTE   W96
//  #01 //075   ----------------------------------------
 BYTE   W96
//  #01 //076   ----------------------------------------
 BYTE   GoTo
  POIN2 Label_017875C9
//  #01 //077   ----------------------------------------
 BYTE   W96
//  #01 //078   ----------------------------------------
 BYTE   W96
 BYTE   FINE

//**************** Track 2 (Midi-Chn.1) ****************//

EleventhHour_002:
//  #02 //000   ----------------------------------------
 BYTE   VOL   70*EleventhHour_mvl/mxv
 BYTE   KEYSH   EleventhHour_key+0
 BYTE   VOICE   38
 BYTE   W96
//  #02 //001   ----------------------------------------
 BYTE   W96
//  #02 //002   ----------------------------------------
 BYTE   W96
//  #02 //003   ----------------------------------------
 BYTE   W96
//  #02 //004   ----------------------------------------
Label_015D6046:
 BYTE   N24  Bn0  v012
 BYTE   W72
 BYTE   N24
 BYTE   W24
 BYTE   PEND 
//  #02 //005   ----------------------------------------
Label_015D604D:
 BYTE   N24  An0  v012
 BYTE   W72
 BYTE   N24
 BYTE   W24
 BYTE   PEND 
//  #02 //006   ----------------------------------------
Label_015D6054:
 BYTE   N24  Gn0  v012
 BYTE   W72
 BYTE   Bn0
 BYTE   W24
 BYTE   PEND 
//  #02 //007   ----------------------------------------
 BYTE   Fs0
 BYTE   W96
//  #02 //008   ----------------------------------------
 BYTE   PATT
  POIN2 Label_015D6046
//  #02 //009   ----------------------------------------
 BYTE   PATT
  POIN2 Label_015D604D
//  #02 //010   ----------------------------------------
 BYTE   PATT
  POIN2 Label_015D6054
//  #02 //011   ----------------------------------------
 BYTE   N24  Fs0  v012
 BYTE   W96
//  #02 //012   ----------------------------------------
 BYTE   PATT
  POIN2 Label_015D6046
//  #02 //013   ----------------------------------------
 BYTE   PATT
  POIN2 Label_015D604D
//  #02 //014   ----------------------------------------
 BYTE   PATT
  POIN2 Label_015D6054
//  #02 //015   ----------------------------------------
 BYTE   N24  Fs0  v012
 BYTE   W96
//  #02 //016   ----------------------------------------
 BYTE   PATT
  POIN2 Label_015D6046
//  #02 //017   ----------------------------------------
 BYTE   PATT
  POIN2 Label_015D604D
//  #02 //018   ----------------------------------------
 BYTE   PATT
  POIN2 Label_015D6054
//  #02 //019   ----------------------------------------
 BYTE   N24  Fs0  v012
 BYTE   W96
//  #02 //020   ----------------------------------------
 BYTE   PATT
  POIN2 Label_015D6046
//  #02 //021   ----------------------------------------
 BYTE   PATT
  POIN2 Label_015D604D
//  #02 //022   ----------------------------------------
 BYTE   PATT
  POIN2 Label_015D6054
//  #02 //023   ----------------------------------------
 BYTE   N24  Fs0  v012
 BYTE   W96
//  #02 //024   ----------------------------------------
 BYTE   PATT
  POIN2 Label_015D6046
//  #02 //025   ----------------------------------------
 BYTE   N24  An0  v012
 BYTE   W36
 BYTE   N24
 BYTE   W36
 BYTE   N24
 BYTE   W24
//  #02 //026   ----------------------------------------
 BYTE   Gn0
 BYTE   W72
 BYTE   N24
 BYTE   W24
//  #02 //027   ----------------------------------------
 BYTE   Fs0
 BYTE   W36
 BYTE   N24
 BYTE   W60
//  #02 //028   ----------------------------------------
 BYTE   PATT
  POIN2 Label_015D6046
//  #02 //029   ----------------------------------------
 BYTE   PATT
  POIN2 Label_015D604D
//  #02 //030   ----------------------------------------
 BYTE   PATT
  POIN2 Label_015D6054
//  #02 //031   ----------------------------------------
 BYTE   N24  Fs0  v012
 BYTE   W96
//  #02 //032   ----------------------------------------
 BYTE   PATT
  POIN2 Label_015D6046
//  #02 //033   ----------------------------------------
 BYTE   PATT
  POIN2 Label_015D604D
//  #02 //034   ----------------------------------------
 BYTE   PATT
  POIN2 Label_015D6054
//  #02 //035   ----------------------------------------
 BYTE   N24  Fs0  v012
 BYTE   W96
//  #02 //036   ----------------------------------------
 BYTE   PATT
  POIN2 Label_015D6046
//  #02 //037   ----------------------------------------
 BYTE   PATT
  POIN2 Label_015D604D
//  #02 //038   ----------------------------------------
 BYTE   PATT
  POIN2 Label_015D6054
//  #02 //039   ----------------------------------------
 BYTE   N24  Fs0  v012
 BYTE   W96
//  #02 //040   ----------------------------------------
 BYTE   PATT
  POIN2 Label_015D6046
//  #02 //041   ----------------------------------------
 BYTE   PATT
  POIN2 Label_015D604D
//  #02 //042   ----------------------------------------
 BYTE   PATT
  POIN2 Label_015D6054
//  #02 //043   ----------------------------------------
 BYTE   N24  Fs0  v012
 BYTE   W96
//  #02 //044   ----------------------------------------
 BYTE   PATT
  POIN2 Label_015D6046
//  #02 //045   ----------------------------------------
 BYTE   PATT
  POIN2 Label_015D604D
//  #02 //046   ----------------------------------------
 BYTE   PATT
  POIN2 Label_015D6054
//  #02 //047   ----------------------------------------
 BYTE   N24  Fs0  v012
 BYTE   W96
//  #02 //048   ----------------------------------------
 BYTE   PATT
  POIN2 Label_015D6046
//  #02 //049   ----------------------------------------
 BYTE   PATT
  POIN2 Label_015D604D
//  #02 //050   ----------------------------------------
 BYTE   PATT
  POIN2 Label_015D6054
//  #02 //051   ----------------------------------------
 BYTE   N24  Fs0  v012
 BYTE   W96
//  #02 //052   ----------------------------------------
Label_015D6130:
//  #02 //053   ----------------------------------------
 BYTE   PATT
  POIN2 Label_015D6046
//  #02 //054   ----------------------------------------
 BYTE   PATT
  POIN2 Label_015D604D
//  #02 //055   ----------------------------------------
 BYTE   PATT
  POIN2 Label_015D6054
//  #02 //056   ----------------------------------------
 BYTE   N24  Fs0  v012
 BYTE   W96
//  #02 //057   ----------------------------------------
 BYTE   PATT
  POIN2 Label_015D6046
//  #02 //058   ----------------------------------------
 BYTE   PATT
  POIN2 Label_015D604D
//  #02 //059   ----------------------------------------
 BYTE   PATT
  POIN2 Label_015D6054
//  #02 //060   ----------------------------------------
 BYTE   N24  Fs0  v012
 BYTE   W96
//  #02 //061   ----------------------------------------
 BYTE   PATT
  POIN2 Label_015D6046
//  #02 //062   ----------------------------------------
 BYTE   PATT
  POIN2 Label_015D604D
//  #02 //063   ----------------------------------------
 BYTE   PATT
  POIN2 Label_015D6054
//  #02 //064   ----------------------------------------
 BYTE   N24  Fs0  v012
 BYTE   W96
//  #02 //065   ----------------------------------------
 BYTE   PATT
  POIN2 Label_015D6046
//  #02 //066   ----------------------------------------
 BYTE   PATT
  POIN2 Label_015D604D
//  #02 //067   ----------------------------------------
 BYTE   PATT
  POIN2 Label_015D6054
//  #02 //068   ----------------------------------------
 BYTE   N24  Fs0  v012
 BYTE   W96
//  #02 //069   ----------------------------------------
 BYTE   PATT
  POIN2 Label_015D6046
//  #02 //070   ----------------------------------------
 BYTE   PATT
  POIN2 Label_015D604D
//  #02 //071   ----------------------------------------
 BYTE   PATT
  POIN2 Label_015D6054
//  #02 //072   ----------------------------------------
 BYTE   N24  Fs0  v012
 BYTE   W96
//  #02 //073   ----------------------------------------
 BYTE   PATT
  POIN2 Label_015D6046
//  #02 //074   ----------------------------------------
 BYTE   PATT
  POIN2 Label_015D604D
//  #02 //075   ----------------------------------------
 BYTE   PATT
  POIN2 Label_015D6054
//  #02 //076   ----------------------------------------
 BYTE   N24  Fs0  v012
 BYTE   W96
//  #02 //077   ----------------------------------------
 BYTE   GoTo
  POIN2 Label_015D6130
//  #02 //078   ----------------------------------------
 BYTE   W96
//  #02 //079   ----------------------------------------
 BYTE   W96
 BYTE   FINE

//**************** Track 3 (Midi-Chn.2) ****************//

EleventhHour_003:
//  #03 //000   ----------------------------------------
 BYTE   KEYSH   EleventhHour_key+0
 BYTE   VOICE   81
 BYTE   VOL   126*EleventhHour_mvl/mxv
 BYTE   W96
//  #03 //001   ----------------------------------------
 BYTE   W96
//  #03 //002   ----------------------------------------
 BYTE   W96
//  #03 //003   ----------------------------------------
 BYTE   W96
//  #03 //004   ----------------------------------------
Label_015D61C6:
 BYTE   N12  Bn1  v020
 BYTE   W12
 BYTE   N24  Fs2
 BYTE   W24
 BYTE   N12  Gn2
 BYTE   W12
 BYTE   N24  Fs2
 BYTE   W24
 BYTE   Bn1
 BYTE   W24
 BYTE   PEND 
//  #03 //005   ----------------------------------------
Label_015D61D6:
 BYTE   N12  An1  v020
 BYTE   W12
 BYTE   N24  Fs2
 BYTE   W24
 BYTE   N12  Gn2
 BYTE   W12
 BYTE   N24  An2
 BYTE   W24
 BYTE   An1
 BYTE   W24
 BYTE   PEND 
//  #03 //006   ----------------------------------------
Label_015D61E6:
 BYTE   N12  Gn1  v020
 BYTE   W12
 BYTE   N24  Fs2
 BYTE   W24
 BYTE   N12  Gn2
 BYTE   W12
 BYTE   N24  Fs2
 BYTE   W24
 BYTE   Bn1
 BYTE   W24
 BYTE   PEND 
//  #03 //007   ----------------------------------------
Label_015D61F6:
 BYTE   N12  Fs1  v020
 BYTE   W12
 BYTE   N24  Fs2
 BYTE   W24
 BYTE   N12  Gn2
 BYTE   W12
 BYTE   N48  Fs2
 BYTE   W48
 BYTE   PEND 
//  #03 //008   ----------------------------------------
 BYTE   PATT
  POIN2 Label_015D61C6
//  #03 //009   ----------------------------------------
 BYTE   PATT
  POIN2 Label_015D61D6
//  #03 //010   ----------------------------------------
 BYTE   PATT
  POIN2 Label_015D61E6
//  #03 //011   ----------------------------------------
 BYTE   PATT
  POIN2 Label_015D61F6
//  #03 //012   ----------------------------------------
 BYTE   PATT
  POIN2 Label_015D61C6
//  #03 //013   ----------------------------------------
 BYTE   PATT
  POIN2 Label_015D61D6
//  #03 //014   ----------------------------------------
 BYTE   PATT
  POIN2 Label_015D61E6
//  #03 //015   ----------------------------------------
 BYTE   PATT
  POIN2 Label_015D61F6
//  #03 //016   ----------------------------------------
 BYTE   PATT
  POIN2 Label_015D61C6
//  #03 //017   ----------------------------------------
 BYTE   PATT
  POIN2 Label_015D61D6
//  #03 //018   ----------------------------------------
 BYTE   PATT
  POIN2 Label_015D61E6
//  #03 //019   ----------------------------------------
 BYTE   PATT
  POIN2 Label_015D61F6
//  #03 //020   ----------------------------------------
 BYTE   PATT
  POIN2 Label_015D61C6
//  #03 //021   ----------------------------------------
 BYTE   PATT
  POIN2 Label_015D61D6
//  #03 //022   ----------------------------------------
 BYTE   PATT
  POIN2 Label_015D61E6
//  #03 //023   ----------------------------------------
 BYTE   PATT
  POIN2 Label_015D61F6
//  #03 //024   ----------------------------------------
 BYTE   N12  Bn1  v020
 BYTE   W12
 BYTE   N24  Fs2
 BYTE   W24
 BYTE   N12  Gn2
 BYTE   W12
 BYTE   N24  Fs2
 BYTE   W24
 BYTE   Bn1
 BYTE   N24  An2
 BYTE   W24
//  #03 //025   ----------------------------------------
 BYTE   An1
 BYTE   W36
 BYTE   Fs2
 BYTE   W36
 BYTE   An1
 BYTE   W24
//  #03 //026   ----------------------------------------
 BYTE   PATT
  POIN2 Label_015D61E6
//  #03 //027   ----------------------------------------
 BYTE   N24  Cs2  v020
 BYTE   W36
 BYTE   Fs1
 BYTE   W36
 BYTE   N12  Cs2
 BYTE   W12
 BYTE   An2
 BYTE   W12
//  #03 //028   ----------------------------------------
 BYTE   PATT
  POIN2 Label_015D61C6
//  #03 //029   ----------------------------------------
 BYTE   PATT
  POIN2 Label_015D61D6
//  #03 //030   ----------------------------------------
 BYTE   PATT
  POIN2 Label_015D61E6
//  #03 //031   ----------------------------------------
 BYTE   PATT
  POIN2 Label_015D61F6
//  #03 //032   ----------------------------------------
 BYTE   PATT
  POIN2 Label_015D61C6
//  #03 //033   ----------------------------------------
 BYTE   PATT
  POIN2 Label_015D61D6
//  #03 //034   ----------------------------------------
 BYTE   PATT
  POIN2 Label_015D61E6
//  #03 //035   ----------------------------------------
 BYTE   PATT
  POIN2 Label_015D61F6
//  #03 //036   ----------------------------------------
 BYTE   PATT
  POIN2 Label_015D61C6
//  #03 //037   ----------------------------------------
 BYTE   PATT
  POIN2 Label_015D61D6
//  #03 //038   ----------------------------------------
 BYTE   PATT
  POIN2 Label_015D61E6
//  #03 //039   ----------------------------------------
 BYTE   PATT
  POIN2 Label_015D61F6
//  #03 //040   ----------------------------------------
 BYTE   PATT
  POIN2 Label_015D61C6
//  #03 //041   ----------------------------------------
 BYTE   PATT
  POIN2 Label_015D61D6
//  #03 //042   ----------------------------------------
 BYTE   PATT
  POIN2 Label_015D61E6
//  #03 //043   ----------------------------------------
 BYTE   PATT
  POIN2 Label_015D61F6
//  #03 //044   ----------------------------------------
 BYTE   PATT
  POIN2 Label_015D61C6
//  #03 //045   ----------------------------------------
 BYTE   PATT
  POIN2 Label_015D61D6
//  #03 //046   ----------------------------------------
 BYTE   PATT
  POIN2 Label_015D61E6
//  #03 //047   ----------------------------------------
 BYTE   PATT
  POIN2 Label_015D61F6
//  #03 //048   ----------------------------------------
 BYTE   PATT
  POIN2 Label_015D61C6
//  #03 //049   ----------------------------------------
 BYTE   PATT
  POIN2 Label_015D61D6
//  #03 //050   ----------------------------------------
 BYTE   PATT
  POIN2 Label_015D61E6
//  #03 //051   ----------------------------------------
 BYTE   PATT
  POIN2 Label_015D61F6
//  #03 //052   ----------------------------------------
Label_015D62F3:
//  #03 //053   ----------------------------------------
 BYTE   PATT
  POIN2 Label_015D61C6
//  #03 //054   ----------------------------------------
 BYTE   PATT
  POIN2 Label_015D61D6
//  #03 //055   ----------------------------------------
 BYTE   PATT
  POIN2 Label_015D61E6
//  #03 //056   ----------------------------------------
 BYTE   PATT
  POIN2 Label_015D61F6
//  #03 //057   ----------------------------------------
 BYTE   PATT
  POIN2 Label_015D61C6
//  #03 //058   ----------------------------------------
 BYTE   PATT
  POIN2 Label_015D61D6
//  #03 //059   ----------------------------------------
 BYTE   PATT
  POIN2 Label_015D61E6
//  #03 //060   ----------------------------------------
 BYTE   PATT
  POIN2 Label_015D61F6
//  #03 //061   ----------------------------------------
 BYTE   PATT
  POIN2 Label_015D61C6
//  #03 //062   ----------------------------------------
 BYTE   PATT
  POIN2 Label_015D61D6
//  #03 //063   ----------------------------------------
 BYTE   PATT
  POIN2 Label_015D61E6
//  #03 //064   ----------------------------------------
 BYTE   PATT
  POIN2 Label_015D61F6
//  #03 //065   ----------------------------------------
 BYTE   PATT
  POIN2 Label_015D61C6
//  #03 //066   ----------------------------------------
 BYTE   PATT
  POIN2 Label_015D61D6
//  #03 //067   ----------------------------------------
 BYTE   PATT
  POIN2 Label_015D61E6
//  #03 //068   ----------------------------------------
 BYTE   PATT
  POIN2 Label_015D61F6
//  #03 //069   ----------------------------------------
 BYTE   PATT
  POIN2 Label_015D61C6
//  #03 //070   ----------------------------------------
 BYTE   PATT
  POIN2 Label_015D61D6
//  #03 //071   ----------------------------------------
 BYTE   PATT
  POIN2 Label_015D61E6
//  #03 //072   ----------------------------------------
 BYTE   PATT
  POIN2 Label_015D61F6
//  #03 //073   ----------------------------------------
 BYTE   PATT
  POIN2 Label_015D61C6
//  #03 //074   ----------------------------------------
 BYTE   PATT
  POIN2 Label_015D61D6
//  #03 //075   ----------------------------------------
 BYTE   PATT
  POIN2 Label_015D61E6
//  #03 //076   ----------------------------------------
 BYTE   PATT
  POIN2 Label_015D61F6
//  #03 //077   ----------------------------------------
 BYTE   GoTo
  POIN2 Label_015D62F3
//  #03 //078   ----------------------------------------
 BYTE   W96
//  #03 //079   ----------------------------------------
 BYTE   W96
 BYTE   FINE

//**************** Track 4 (Midi-Chn.3) ****************//

EleventhHour_004:
//  #04 //000   ----------------------------------------
 BYTE   VOL   110*EleventhHour_mvl/mxv
 BYTE   KEYSH   EleventhHour_key+0
 BYTE   VOICE   100
 BYTE   W96
//  #04 //001   ----------------------------------------
 BYTE   W96
//  #04 //002   ----------------------------------------
 BYTE   W96
//  #04 //003   ----------------------------------------
 BYTE   W96
//  #04 //004   ----------------------------------------
Label_015D638E:
 BYTE   N06  Bn1  v024
 BYTE   W12
 BYTE   Fs2
 BYTE   W24
 BYTE   Gn2
 BYTE   W12
 BYTE   Fs2
 BYTE   W24
 BYTE   Bn1
 BYTE   W24
 BYTE   PEND 
//  #04 //005   ----------------------------------------
Label_015D639B:
 BYTE   N06  An1  v024
 BYTE   W12
 BYTE   Fs2
 BYTE   W24
 BYTE   Gn2
 BYTE   W12
 BYTE   An2
 BYTE   W24
 BYTE   An1
 BYTE   W24
 BYTE   PEND 
//  #04 //006   ----------------------------------------
Label_015D63A8:
 BYTE   N06  Gn1  v024
 BYTE   W12
 BYTE   Fs2
 BYTE   W24
 BYTE   Gn2
 BYTE   W12
 BYTE   Fs2
 BYTE   W24
 BYTE   Bn1
 BYTE   W24
 BYTE   PEND 
//  #04 //007   ----------------------------------------
Label_015D63B5:
 BYTE   N06  Fs1  v024
 BYTE   W12
 BYTE   Fs2
 BYTE   W24
 BYTE   Gn2
 BYTE   W12
 BYTE   Fs2
 BYTE   W48
 BYTE   PEND 
//  #04 //008   ----------------------------------------
 BYTE   PATT
  POIN2 Label_015D638E
//  #04 //009   ----------------------------------------
 BYTE   PATT
  POIN2 Label_015D639B
//  #04 //010   ----------------------------------------
 BYTE   PATT
  POIN2 Label_015D63A8
//  #04 //011   ----------------------------------------
 BYTE   PATT
  POIN2 Label_015D63B5
//  #04 //012   ----------------------------------------
 BYTE   PATT
  POIN2 Label_015D638E
//  #04 //013   ----------------------------------------
 BYTE   PATT
  POIN2 Label_015D639B
//  #04 //014   ----------------------------------------
 BYTE   PATT
  POIN2 Label_015D63A8
//  #04 //015   ----------------------------------------
 BYTE   PATT
  POIN2 Label_015D63B5
//  #04 //016   ----------------------------------------
 BYTE   PATT
  POIN2 Label_015D638E
//  #04 //017   ----------------------------------------
 BYTE   PATT
  POIN2 Label_015D639B
//  #04 //018   ----------------------------------------
 BYTE   PATT
  POIN2 Label_015D63A8
//  #04 //019   ----------------------------------------
 BYTE   PATT
  POIN2 Label_015D63B5
//  #04 //020   ----------------------------------------
 BYTE   PATT
  POIN2 Label_015D638E
//  #04 //021   ----------------------------------------
 BYTE   PATT
  POIN2 Label_015D639B
//  #04 //022   ----------------------------------------
 BYTE   PATT
  POIN2 Label_015D63A8
//  #04 //023   ----------------------------------------
 BYTE   PATT
  POIN2 Label_015D63B5
//  #04 //024   ----------------------------------------
 BYTE   N06  Bn1  v024
 BYTE   W12
 BYTE   Fs2
 BYTE   W24
 BYTE   Gn2
 BYTE   W12
 BYTE   Fs2
 BYTE   W24
 BYTE   Bn1
 BYTE   N06  An2
 BYTE   W24
//  #04 //025   ----------------------------------------
 BYTE   An1
 BYTE   W36
 BYTE   Fs2
 BYTE   W36
 BYTE   An1
 BYTE   W24
//  #04 //026   ----------------------------------------
 BYTE   PATT
  POIN2 Label_015D63A8
//  #04 //027   ----------------------------------------
 BYTE   N06  Cs2  v024
 BYTE   W36
 BYTE   Fs1
 BYTE   W36
 BYTE   Cs2
 BYTE   W12
 BYTE   An2
 BYTE   W12
//  #04 //028   ----------------------------------------
 BYTE   PATT
  POIN2 Label_015D638E
//  #04 //029   ----------------------------------------
 BYTE   PATT
  POIN2 Label_015D639B
//  #04 //030   ----------------------------------------
 BYTE   PATT
  POIN2 Label_015D63A8
//  #04 //031   ----------------------------------------
 BYTE   PATT
  POIN2 Label_015D63B5
//  #04 //032   ----------------------------------------
 BYTE   PATT
  POIN2 Label_015D638E
//  #04 //033   ----------------------------------------
 BYTE   PATT
  POIN2 Label_015D639B
//  #04 //034   ----------------------------------------
 BYTE   PATT
  POIN2 Label_015D63A8
//  #04 //035   ----------------------------------------
 BYTE   PATT
  POIN2 Label_015D63B5
//  #04 //036   ----------------------------------------
 BYTE   PATT
  POIN2 Label_015D638E
//  #04 //037   ----------------------------------------
 BYTE   PATT
  POIN2 Label_015D639B
//  #04 //038   ----------------------------------------
 BYTE   PATT
  POIN2 Label_015D63A8
//  #04 //039   ----------------------------------------
 BYTE   PATT
  POIN2 Label_015D63B5
//  #04 //040   ----------------------------------------
 BYTE   PATT
  POIN2 Label_015D638E
//  #04 //041   ----------------------------------------
 BYTE   PATT
  POIN2 Label_015D639B
//  #04 //042   ----------------------------------------
 BYTE   PATT
  POIN2 Label_015D63A8
//  #04 //043   ----------------------------------------
 BYTE   PATT
  POIN2 Label_015D63B5
//  #04 //044   ----------------------------------------
 BYTE   PATT
  POIN2 Label_015D638E
//  #04 //045   ----------------------------------------
 BYTE   PATT
  POIN2 Label_015D639B
//  #04 //046   ----------------------------------------
 BYTE   PATT
  POIN2 Label_015D63A8
//  #04 //047   ----------------------------------------
 BYTE   PATT
  POIN2 Label_015D63B5
//  #04 //048   ----------------------------------------
 BYTE   PATT
  POIN2 Label_015D638E
//  #04 //049   ----------------------------------------
 BYTE   PATT
  POIN2 Label_015D639B
//  #04 //050   ----------------------------------------
 BYTE   PATT
  POIN2 Label_015D63A8
//  #04 //051   ----------------------------------------
 BYTE   PATT
  POIN2 Label_015D63B5
//  #04 //052   ----------------------------------------
Label_015D64AB:
//  #04 //053   ----------------------------------------
 BYTE   PATT
  POIN2 Label_015D638E
//  #04 //054   ----------------------------------------
 BYTE   PATT
  POIN2 Label_015D639B
//  #04 //055   ----------------------------------------
 BYTE   PATT
  POIN2 Label_015D63A8
//  #04 //056   ----------------------------------------
 BYTE   PATT
  POIN2 Label_015D63B5
//  #04 //057   ----------------------------------------
 BYTE   PATT
  POIN2 Label_015D638E
//  #04 //058   ----------------------------------------
 BYTE   PATT
  POIN2 Label_015D639B
//  #04 //059   ----------------------------------------
 BYTE   PATT
  POIN2 Label_015D63A8
//  #04 //060   ----------------------------------------
 BYTE   PATT
  POIN2 Label_015D63B5
//  #04 //061   ----------------------------------------
 BYTE   PATT
  POIN2 Label_015D638E
//  #04 //062   ----------------------------------------
 BYTE   PATT
  POIN2 Label_015D639B
//  #04 //063   ----------------------------------------
 BYTE   PATT
  POIN2 Label_015D63A8
//  #04 //064   ----------------------------------------
 BYTE   PATT
  POIN2 Label_015D63B5
//  #04 //065   ----------------------------------------
 BYTE   PATT
  POIN2 Label_015D638E
//  #04 //066   ----------------------------------------
 BYTE   PATT
  POIN2 Label_015D639B
//  #04 //067   ----------------------------------------
 BYTE   PATT
  POIN2 Label_015D63A8
//  #04 //068   ----------------------------------------
 BYTE   PATT
  POIN2 Label_015D63B5
//  #04 //069   ----------------------------------------
 BYTE   PATT
  POIN2 Label_015D638E
//  #04 //070   ----------------------------------------
 BYTE   PATT
  POIN2 Label_015D639B
//  #04 //071   ----------------------------------------
 BYTE   PATT
  POIN2 Label_015D63A8
//  #04 //072   ----------------------------------------
 BYTE   PATT
  POIN2 Label_015D63B5
//  #04 //073   ----------------------------------------
 BYTE   PATT
  POIN2 Label_015D638E
//  #04 //074   ----------------------------------------
 BYTE   PATT
  POIN2 Label_015D639B
//  #04 //075   ----------------------------------------
 BYTE   PATT
  POIN2 Label_015D63A8
//  #04 //076   ----------------------------------------
 BYTE   PATT
  POIN2 Label_015D63B5
//  #04 //077   ----------------------------------------
 BYTE   GoTo
  POIN2 Label_015D64AB
//  #04 //078   ----------------------------------------
 BYTE   W96
//  #04 //079   ----------------------------------------
 BYTE   W96
 BYTE   FINE

//**************** Track 5 (Midi-Chn.4) ****************//

EleventhHour_005:
//  #05 //000   ----------------------------------------
 BYTE   VOL   70*EleventhHour_mvl/mxv
 BYTE   KEYSH   EleventhHour_key+0
 BYTE   VOICE   18
 BYTE   W96
//  #05 //001   ----------------------------------------
 BYTE   W96
//  #05 //002   ----------------------------------------
 BYTE   W96
//  #05 //003   ----------------------------------------
 BYTE   W96
//  #05 //004   ----------------------------------------
 BYTE   W96
//  #05 //005   ----------------------------------------
 BYTE   W96
//  #05 //006   ----------------------------------------
 BYTE   W96
//  #05 //007   ----------------------------------------
 BYTE   W96
//  #05 //008   ----------------------------------------
 BYTE   W96
//  #05 //009   ----------------------------------------
 BYTE   W96
//  #05 //010   ----------------------------------------
 BYTE   W96
//  #05 //011   ----------------------------------------
 BYTE   W96
//  #05 //012   ----------------------------------------
 BYTE   W96
//  #05 //013   ----------------------------------------
 BYTE   W96
//  #05 //014   ----------------------------------------
 BYTE   W96
//  #05 //015   ----------------------------------------
 BYTE   W96
//  #05 //016   ----------------------------------------
 BYTE   W96
//  #05 //017   ----------------------------------------
 BYTE   W96
//  #05 //018   ----------------------------------------
 BYTE   W96
//  #05 //019   ----------------------------------------
 BYTE   W96
//  #05 //020   ----------------------------------------
 BYTE   W96
//  #05 //021   ----------------------------------------
 BYTE   W96
//  #05 //022   ----------------------------------------
 BYTE   W96
//  #05 //023   ----------------------------------------
 BYTE   W96
//  #05 //024   ----------------------------------------
 BYTE   W96
//  #05 //025   ----------------------------------------
 BYTE   W96
//  #05 //026   ----------------------------------------
 BYTE   W96
//  #05 //027   ----------------------------------------
 BYTE   W96
//  #05 //028   ----------------------------------------
 BYTE   W96
//  #05 //029   ----------------------------------------
 BYTE   W60
 BYTE   N12  Cs6  v052
 BYTE   W36
//  #05 //030   ----------------------------------------
 BYTE   W96
//  #05 //031   ----------------------------------------
 BYTE   W96
//  #05 //032   ----------------------------------------
 BYTE   W36
 BYTE   N12
 BYTE   W60
//  #05 //033   ----------------------------------------
 BYTE   W96
//  #05 //034   ----------------------------------------
 BYTE   W36
 BYTE   N12
 BYTE   W60
//  #05 //035   ----------------------------------------
 BYTE   W96
//  #05 //036   ----------------------------------------
 BYTE   W96
//  #05 //037   ----------------------------------------
 BYTE   W96
//  #05 //038   ----------------------------------------
 BYTE   W96
//  #05 //039   ----------------------------------------
 BYTE   W96
//  #05 //040   ----------------------------------------
 BYTE   W96
//  #05 //041   ----------------------------------------
 BYTE   W96
//  #05 //042   ----------------------------------------
 BYTE   W96
//  #05 //043   ----------------------------------------
 BYTE   W96
//  #05 //044   ----------------------------------------
 BYTE   W96
//  #05 //045   ----------------------------------------
 BYTE   W96
//  #05 //046   ----------------------------------------
 BYTE   W96
//  #05 //047   ----------------------------------------
 BYTE   W96
//  #05 //048   ----------------------------------------
 BYTE   W96
//  #05 //049   ----------------------------------------
 BYTE   W96
//  #05 //050   ----------------------------------------
 BYTE   W96
//  #05 //051   ----------------------------------------
 BYTE   W96
//  #05 //052   ----------------------------------------
Label_0178784E:
 BYTE   W96
//  #05 //053   ----------------------------------------
 BYTE   W60
 BYTE   N12  Cs6  v052
 BYTE   W36
//  #05 //054   ----------------------------------------
 BYTE   W96
//  #05 //055   ----------------------------------------
 BYTE   W96
//  #05 //056   ----------------------------------------
 BYTE   W36
 BYTE   N12
 BYTE   W60
//  #05 //057   ----------------------------------------
 BYTE   W96
//  #05 //058   ----------------------------------------
 BYTE   W36
 BYTE   N12
 BYTE   W60
//  #05 //059   ----------------------------------------
 BYTE   W96
//  #05 //060   ----------------------------------------
 BYTE   W96
//  #05 //061   ----------------------------------------
 BYTE   W96
//  #05 //062   ----------------------------------------
 BYTE   W96
//  #05 //063   ----------------------------------------
 BYTE   W96
//  #05 //064   ----------------------------------------
 BYTE   W96
//  #05 //065   ----------------------------------------
 BYTE   W96
//  #05 //066   ----------------------------------------
 BYTE   W96
//  #05 //067   ----------------------------------------
 BYTE   W96
//  #05 //068   ----------------------------------------
 BYTE   W96
//  #05 //069   ----------------------------------------
 BYTE   W96
//  #05 //070   ----------------------------------------
 BYTE   W96
//  #05 //071   ----------------------------------------
 BYTE   W96
//  #05 //072   ----------------------------------------
 BYTE   W96
//  #05 //073   ----------------------------------------
 BYTE   W96
//  #05 //074   ----------------------------------------
 BYTE   W96
//  #05 //075   ----------------------------------------
 BYTE   W96
//  #05 //076   ----------------------------------------
 BYTE   GoTo
  POIN2 Label_0178784E
//  #05 //077   ----------------------------------------
 BYTE   W96
//  #05 //078   ----------------------------------------
 BYTE   W96
 BYTE   FINE

//**************** Track 6 (Midi-Chn.5) ****************//

EleventhHour_006:
//  #06 //000   ----------------------------------------
 BYTE   VOL   70*EleventhHour_mvl/mxv
 BYTE   KEYSH   EleventhHour_key+0
 BYTE   VOICE   18
 BYTE   W96
//  #06 //001   ----------------------------------------
 BYTE   W96
//  #06 //002   ----------------------------------------
 BYTE   W96
//  #06 //003   ----------------------------------------
 BYTE   W96
//  #06 //004   ----------------------------------------
 BYTE   W96
//  #06 //005   ----------------------------------------
 BYTE   W96
//  #06 //006   ----------------------------------------
 BYTE   W96
//  #06 //007   ----------------------------------------
 BYTE   W96
//  #06 //008   ----------------------------------------
Label_015D654A:
 BYTE   N48  Dn3  v052
 BYTE   W48
 BYTE   Fs3
 BYTE   W48
 BYTE   PEND 
//  #06 //009   ----------------------------------------
 BYTE   N96  Cs4
 BYTE   W96
//  #06 //010   ----------------------------------------
 BYTE   N48  Dn4
 BYTE   W48
 BYTE   N24  En4
 BYTE   W24
 BYTE   Fs4
 BYTE   W24
//  #06 //011   ----------------------------------------
 BYTE   N48  Cs4
 BYTE   W48
 BYTE   N12  Dn4
 BYTE   W12
 BYTE   Cs4
 BYTE   W12
 BYTE   Fs3
 BYTE   W12
 BYTE   En3
 BYTE   W12
//  #06 //012   ----------------------------------------
 BYTE   PATT
  POIN2 Label_015D654A
//  #06 //013   ----------------------------------------
 BYTE   N48  Cs4  v052
 BYTE   W72
 BYTE   N24  Fs3
 BYTE   W24
//  #06 //014   ----------------------------------------
 BYTE   N48  Bn2
 BYTE   W48
 BYTE   Dn3
 BYTE   W48
//  #06 //015   ----------------------------------------
 BYTE   Cs3
 BYTE   N48  An3
 BYTE   W48
 BYTE   N12  Gn3
 BYTE   W12
 BYTE   Dn4
 BYTE   W12
 BYTE   Cs4
 BYTE   W12
 BYTE   An4
 BYTE   W12
//  #06 //016   ----------------------------------------
Label_015D6586:
 BYTE   N48  Dn3  v052
 BYTE   N24  Fs4
 BYTE   W24
 BYTE   Dn4
 BYTE   W24
 BYTE   N48  Fs3
 BYTE   N24  Cs4
 BYTE   W24
 BYTE   An3
 BYTE   W24
 BYTE   PEND 
//  #06 //017   ----------------------------------------
 BYTE   N96  Cs4
 BYTE   N24  Fs4
 BYTE   W24
 BYTE   Dn4
 BYTE   W24
 BYTE   An4
 BYTE   W24
 BYTE   Cs5
 BYTE   W24
//  #06 //018   ----------------------------------------
 BYTE   N96  Dn4
 BYTE   N24  Dn5
 BYTE   W24
 BYTE   Cs5
 BYTE   W24
 BYTE   Bn4
 BYTE   W24
 BYTE   An4
 BYTE   W24
//  #06 //019   ----------------------------------------
 BYTE   N48  Cs4
 BYTE   N48  Fs4
 BYTE   W48
 BYTE   N12  Dn4
 BYTE   W12
 BYTE   Cs4
 BYTE   W12
 BYTE   Fs3
 BYTE   W12
 BYTE   En3
 BYTE   W12
//  #06 //020   ----------------------------------------
 BYTE   PATT
  POIN2 Label_015D6586
//  #06 //021   ----------------------------------------
 BYTE   N48  Cs4  v052
 BYTE   N24  An4
 BYTE   W24
 BYTE   Gn4
 BYTE   W24
 BYTE   N48  Fs3
 BYTE   N24  Fs4
 BYTE   W24
 BYTE   En4
 BYTE   W24
//  #06 //022   ----------------------------------------
 BYTE   N48  Bn2
 BYTE   N24  Fs4
 BYTE   W24
 BYTE   Dn4
 BYTE   W24
 BYTE   N48  Dn3
 BYTE   N24  Cs4
 BYTE   W24
 BYTE   An3
 BYTE   W24
//  #06 //023   ----------------------------------------
 BYTE   N48  Cs3
 BYTE   N84  An4
 BYTE   W48
 BYTE   N12  Gn3
 BYTE   W12
 BYTE   Dn4
 BYTE   W12
 BYTE   Cs4
 BYTE   W12
 BYTE   An4
 BYTE   W12
//  #06 //024   ----------------------------------------
 BYTE   N96  Bn3
 BYTE   N96  Dn4
 BYTE   N96  Fs4
 BYTE   N96  Bn4
 BYTE   W96
//  #06 //025   ----------------------------------------
 BYTE   An3
 BYTE   N96  Dn4
 BYTE   N96  Fs4
 BYTE   N96  An4
 BYTE   W96
//  #06 //026   ----------------------------------------
 BYTE   Gn3
 BYTE   N96  Bn3
 BYTE   N96  Dn4
 BYTE   N96  Gn4
 BYTE   W96
//  #06 //027   ----------------------------------------
 BYTE   Cs3
 BYTE   N96  Fs3
 BYTE   N96  Cs4
 BYTE   W96
//  #06 //028   ----------------------------------------
Label_015D6609:
 BYTE   N36  Dn3  v052
 BYTE   N12  Fs4
 BYTE   W12
 BYTE   Dn4
 BYTE   W12
 BYTE   N12
 BYTE   N12  Fs4
 BYTE   W12
 BYTE   Gn3
 BYTE   N12  Cs5
 BYTE   W12
 BYTE   N24  Fs3
 BYTE   N12  Dn5
 BYTE   W12
 BYTE   An5
 BYTE   W12
 BYTE   N24  An3
 BYTE   W24
 BYTE   PEND 
//  #06 //029   ----------------------------------------
Label_015D6624:
 BYTE   N36  Cs4  v052
 BYTE   N12  Fs4
 BYTE   W12
 BYTE   Dn4
 BYTE   W12
 BYTE   N12
 BYTE   N12  Fs4
 BYTE   W12
 BYTE   Gn3
 BYTE   N12  Cs5
 BYTE   W12
 BYTE   N48  An3
 BYTE   N12  Dn5
 BYTE   W24
 BYTE   N24  Cs5
 BYTE   W24
 BYTE   PEND 
//  #06 //030   ----------------------------------------
Label_015D663D:
 BYTE   N48  Dn3  v052
 BYTE   N12  Dn5
 BYTE   W12
 BYTE   Fs3
 BYTE   W12
 BYTE   An3
 BYTE   N12  Cs5
 BYTE   W12
 BYTE   Dn4
 BYTE   W12
 BYTE   Bn4
 BYTE   W12
 BYTE   Dn5
 BYTE   W12
 BYTE   An4
 BYTE   N12  Fs5
 BYTE   W12
 BYTE   An5
 BYTE   W12
 BYTE   PEND 
//  #06 //031   ----------------------------------------
Label_015D6656:
 BYTE   N48  Cs3  v052
 BYTE   N48  Fs4
 BYTE   W48
 BYTE   N12  Dn3
 BYTE   W12
 BYTE   Cs3
 BYTE   W12
 BYTE   Fs2
 BYTE   N12  Cs4
 BYTE   W12
 BYTE   En2
 BYTE   N12  Dn4
 BYTE   W12
 BYTE   PEND 
//  #06 //032   ----------------------------------------
Label_015D666A:
 BYTE   N48  Dn2  v052
 BYTE   N12  Dn4
 BYTE   N12  Fs4
 BYTE   W12
 BYTE   Cs5
 BYTE   W12
 BYTE   Dn4
 BYTE   N12  Dn5
 BYTE   W24
 BYTE   N48  Fs2
 BYTE   N12  Cs4
 BYTE   N12  An4
 BYTE   W12
 BYTE   Cs5
 BYTE   W12
 BYTE   An3
 BYTE   N12  Dn5
 BYTE   W12
 BYTE   An5
 BYTE   W12
 BYTE   PEND 
//  #06 //033   ----------------------------------------
Label_015D6688:
 BYTE   N48  Cs3  v052
 BYTE   N24  An4
 BYTE   W24
 BYTE   Gn4
 BYTE   W24
 BYTE   N48  Fs2
 BYTE   N24  Fs4
 BYTE   W24
 BYTE   N12  En4
 BYTE   W12
 BYTE   Dn4
 BYTE   W12
 BYTE   PEND 
//  #06 //034   ----------------------------------------
Label_015D669B:
 BYTE   N36  Bn1  v052
 BYTE   N12  Fs4
 BYTE   W12
 BYTE   Cs5
 BYTE   W12
 BYTE   Dn4
 BYTE   N12  Dn5
 BYTE   W12
 BYTE   Cs2
 BYTE   W12
 BYTE   N24  Dn2
 BYTE   N12  Cs4
 BYTE   W12
 BYTE   An3
 BYTE   W12
 BYTE   N24  Bn1
 BYTE   N12  An3
 BYTE   N12  Cs4
 BYTE   W12
 BYTE   Dn4
 BYTE   W12
 BYTE   PEND 
//  #06 //035   ----------------------------------------
Label_015D66BA:
 BYTE   N48  Cs2  v052
 BYTE   N12  Cs4
 BYTE   N48  Fs4
 BYTE   N48  An4
 BYTE   N48  Cs5
 BYTE   W12
 BYTE   N12  An3
 BYTE   W12
 BYTE   Cs4
 BYTE   W12
 BYTE   Dn4
 BYTE   W12
 BYTE   Gn2
 BYTE   N48  An4
 BYTE   W12
 BYTE   N12  Dn3
 BYTE   W12
 BYTE   Cs3
 BYTE   W12
 BYTE   An3
 BYTE   W12
 BYTE   PEND 
//  #06 //036   ----------------------------------------
Label_015D66D9:
 BYTE   N48  Bn2  v052
 BYTE   W12
 BYTE   N24  Fs3
 BYTE   W24
 BYTE   N12  Gn3
 BYTE   W12
 BYTE   N24  Fs3
 BYTE   W24
 BYTE   Bn2
 BYTE   N24  An3
 BYTE   W24
 BYTE   PEND 
//  #06 //037   ----------------------------------------
Label_015D66EB:
 BYTE   N36  An2  v052
 BYTE   N36  Bn3
 BYTE   W36
 BYTE   An2
 BYTE   N36  Fs3
 BYTE   W36
 BYTE   N24  An2
 BYTE   N24  Bn3
 BYTE   W24
 BYTE   PEND 
//  #06 //038   ----------------------------------------
Label_015D66FB:
 BYTE   N36  Gn2  v052
 BYTE   N24  Bn3
 BYTE   W36
 BYTE   N36  Gn2
 BYTE   W36
 BYTE   N24  Bn2
 BYTE   N24  An3
 BYTE   W24
 BYTE   PEND 
//  #06 //039   ----------------------------------------
Label_015D670A:
 BYTE   N36  Fs2  v052
 BYTE   N36  Bn2
 BYTE   N24  Fs3
 BYTE   W36
 BYTE   N36  Fs2
 BYTE   N36  Bn2
 BYTE   W36
 BYTE   N12  Cs3
 BYTE   W12
 BYTE   An3
 BYTE   W12
 BYTE   PEND 
//  #06 //040   ----------------------------------------
 BYTE   PATT
  POIN2 Label_015D66D9
//  #06 //041   ----------------------------------------
Label_015D6722:
 BYTE   N36  An2  v052
 BYTE   N24  Bn3
 BYTE   W24
 BYTE   Dn4
 BYTE   W12
 BYTE   N36  An2
 BYTE   W12
 BYTE   N24  Cs4
 BYTE   W24
 BYTE   An2
 BYTE   N24  An4
 BYTE   W24
 BYTE   PEND 
//  #06 //042   ----------------------------------------
Label_015D6735:
 BYTE   N36  Gn2  v052
 BYTE   N48  Bn4
 BYTE   W36
 BYTE   N36  Gn2
 BYTE   W12
 BYTE   N24  Dn5
 BYTE   W24
 BYTE   Bn2
 BYTE   N24  An5
 BYTE   W24
 BYTE   PEND 
//  #06 //043   ----------------------------------------
Label_015D6746:
 BYTE   N36  Fs2  v052
 BYTE   N36  Bn2
 BYTE   N48  Cs5
 BYTE   W36
 BYTE   N36  Fs2
 BYTE   N36  Bn2
 BYTE   W12
 BYTE   N12  Dn5
 BYTE   W12
 BYTE   Cs5
 BYTE   W12
 BYTE   Cs3
 BYTE   N12  Fs4
 BYTE   W12
 BYTE   An3
 BYTE   N12  En4
 BYTE   W12
 BYTE   PEND 
//  #06 //044   ----------------------------------------
Label_015D6761:
 BYTE   N24  Dn2  v052
 BYTE   N48  Fs4
 BYTE   W24
 BYTE   N24  Fs2
 BYTE   W24
 BYTE   An2
 BYTE   W24
 BYTE   Cs3
 BYTE   N24  Fs4
 BYTE   W24
 BYTE   PEND 
//  #06 //045   ----------------------------------------
 BYTE   Dn3
 BYTE   N48  Cs4
 BYTE   W24
 BYTE   N24  Fs2
 BYTE   W24
 BYTE   Dn3
 BYTE   W24
 BYTE   Cs3
 BYTE   N24  Dn4
 BYTE   W24
//  #06 //046   ----------------------------------------
Label_015D677E:
 BYTE   N24  Dn2  v052
 BYTE   N48  Cs4
 BYTE   W24
 BYTE   N24  Fs2
 BYTE   W24
 BYTE   En3
 BYTE   W24
 BYTE   Dn3
 BYTE   N24  Cs4
 BYTE   W24
 BYTE   PEND 
//  #06 //047   ----------------------------------------
Label_015D678E:
 BYTE   N24  Cs3  v052
 BYTE   N48  An3
 BYTE   W24
 BYTE   N24  Fs2
 BYTE   W24
 BYTE   Fs3
 BYTE   W24
 BYTE   En3
 BYTE   W24
 BYTE   PEND 
//  #06 //048   ----------------------------------------
Label_015D679C:
 BYTE   N24  Dn2  v052
 BYTE   N48  Bn3
 BYTE   N48  Fs4
 BYTE   W24
 BYTE   N24  Fs2
 BYTE   W24
 BYTE   Dn3
 BYTE   W24
 BYTE   Cs3
 BYTE   N24  Bn3
 BYTE   N24  Fs4
 BYTE   W24
 BYTE   PEND 
//  #06 //049   ----------------------------------------
Label_015D67B0:
 BYTE   N24  Bn2  v052
 BYTE   N24  Cs4
 BYTE   W24
 BYTE   Fs2
 BYTE   N24  Gn4
 BYTE   W24
 BYTE   En3
 BYTE   N24  Fs4
 BYTE   W24
 BYTE   Cs3
 BYTE   N24  Bn3
 BYTE   W24
 BYTE   PEND 
//  #06 //050   ----------------------------------------
Label_015D67C3:
 BYTE   N24  Dn2  v052
 BYTE   N96  Cs4
 BYTE   W24
 BYTE   N24  Fs2
 BYTE   W24
 BYTE   An2
 BYTE   W24
 BYTE   Cs3
 BYTE   W24
 BYTE   PEND 
//  #06 //051   ----------------------------------------
Label_015D67D1:
 BYTE   N24  Dn3  v052
 BYTE   N24  Bn4
 BYTE   W24
 BYTE   Cs3
 BYTE   N24  Dn4
 BYTE   W24
 BYTE   Fs2
 BYTE   N24  An4
 BYTE   W24
 BYTE   En2
 BYTE   N24  Cs4
 BYTE   W24
 BYTE   PEND 
//  #06 //052   ----------------------------------------
Label_015D67E4:
//  #06 //053   ----------------------------------------
 BYTE   PATT
  POIN2 Label_015D6609
//  #06 //054   ----------------------------------------
 BYTE   PATT
  POIN2 Label_015D6624
//  #06 //055   ----------------------------------------
 BYTE   PATT
  POIN2 Label_015D663D
//  #06 //056   ----------------------------------------
 BYTE   PATT
  POIN2 Label_015D6656
//  #06 //057   ----------------------------------------
 BYTE   PATT
  POIN2 Label_015D666A
//  #06 //058   ----------------------------------------
 BYTE   PATT
  POIN2 Label_015D6688
//  #06 //059   ----------------------------------------
 BYTE   PATT
  POIN2 Label_015D669B
//  #06 //060   ----------------------------------------
 BYTE   PATT
  POIN2 Label_015D66BA
//  #06 //061   ----------------------------------------
 BYTE   PATT
  POIN2 Label_015D66D9
//  #06 //062   ----------------------------------------
 BYTE   PATT
  POIN2 Label_015D66EB
//  #06 //063   ----------------------------------------
 BYTE   PATT
  POIN2 Label_015D66FB
//  #06 //064   ----------------------------------------
 BYTE   PATT
  POIN2 Label_015D670A
//  #06 //065   ----------------------------------------
 BYTE   PATT
  POIN2 Label_015D66D9
//  #06 //066   ----------------------------------------
 BYTE   PATT
  POIN2 Label_015D6722
//  #06 //067   ----------------------------------------
 BYTE   PATT
  POIN2 Label_015D6735
//  #06 //068   ----------------------------------------
 BYTE   PATT
  POIN2 Label_015D6746
//  #06 //069   ----------------------------------------
 BYTE   PATT
  POIN2 Label_015D6761
//  #06 //070   ----------------------------------------
 BYTE   N24  Dn3  v052
 BYTE   N36  Cs4
 BYTE   W24
 BYTE   N24  Fs2
 BYTE   W24
 BYTE   Dn3
 BYTE   W24
 BYTE   Cs3
 BYTE   N24  Dn4
 BYTE   W24
//  #06 //071   ----------------------------------------
 BYTE   PATT
  POIN2 Label_015D677E
//  #06 //072   ----------------------------------------
 BYTE   PATT
  POIN2 Label_015D678E
//  #06 //073   ----------------------------------------
 BYTE   PATT
  POIN2 Label_015D679C
//  #06 //074   ----------------------------------------
 BYTE   PATT
  POIN2 Label_015D67B0
//  #06 //075   ----------------------------------------
 BYTE   PATT
  POIN2 Label_015D67C3
//  #06 //076   ----------------------------------------
 BYTE   PATT
  POIN2 Label_015D67D1
//  #06 //077   ----------------------------------------
 BYTE   GoTo
  POIN2 Label_015D67E4
//  #06 //078   ----------------------------------------
 BYTE   TIE  Gn3  v052
 BYTE   W01
 BYTE   Bn3
 BYTE   W02
 BYTE   Cs4
 BYTE   W01
 BYTE   Dn4
 BYTE   W02
 BYTE   Fs4
 BYTE   W90
//  #06 //079   ----------------------------------------
 BYTE   W92
 BYTE   W03
 BYTE   EOT
 BYTE   Bn3  v074
 BYTE   W01
//  #06 //080   ----------------------------------------
 BYTE   Gn3  v073
 BYTE   Fs4
 BYTE   FINE

//**************** Track 7 (Midi-Chn.6) ****************//

EleventhHour_007:
//  #07 //000   ----------------------------------------
 BYTE   VOL   49*EleventhHour_mvl/mxv
 BYTE   KEYSH   EleventhHour_key+0
 BYTE   VOICE   75
 BYTE   W96
//  #07 //001   ----------------------------------------
 BYTE   W96
//  #07 //002   ----------------------------------------
 BYTE   W96
//  #07 //003   ----------------------------------------
 BYTE   W96
//  #07 //004   ----------------------------------------
Label_017871A6:
 BYTE   N06  Bn2  v052
 BYTE   W12
 BYTE   Fs3
 BYTE   W24
 BYTE   Gn3
 BYTE   W12
 BYTE   Fs3
 BYTE   W24
 BYTE   Bn2
 BYTE   W24
 BYTE   PEND 
//  #07 //005   ----------------------------------------
Label_017871B3:
 BYTE   N06  An2  v052
 BYTE   W12
 BYTE   Fs3
 BYTE   W24
 BYTE   Gn3
 BYTE   W12
 BYTE   An3
 BYTE   W24
 BYTE   An2
 BYTE   W24
 BYTE   PEND 
//  #07 //006   ----------------------------------------
Label_017871C0:
 BYTE   N06  Gn2  v052
 BYTE   W12
 BYTE   Fs3
 BYTE   W24
 BYTE   Gn3
 BYTE   W12
 BYTE   Fs3
 BYTE   W24
 BYTE   Bn2
 BYTE   W24
 BYTE   PEND 
//  #07 //007   ----------------------------------------
Label_017871CD:
 BYTE   N06  Fs2  v052
 BYTE   W12
 BYTE   Fs3
 BYTE   W24
 BYTE   Gn3
 BYTE   W12
 BYTE   An3
 BYTE   W48
 BYTE   PEND 
//  #07 //008   ----------------------------------------
 BYTE   PATT
  POIN2 Label_017871A6
//  #07 //009   ----------------------------------------
 BYTE   PATT
  POIN2 Label_017871B3
//  #07 //010   ----------------------------------------
 BYTE   PATT
  POIN2 Label_017871C0
//  #07 //011   ----------------------------------------
 BYTE   PATT
  POIN2 Label_017871CD
//  #07 //012   ----------------------------------------
 BYTE   PATT
  POIN2 Label_017871A6
//  #07 //013   ----------------------------------------
 BYTE   PATT
  POIN2 Label_017871B3
//  #07 //014   ----------------------------------------
 BYTE   PATT
  POIN2 Label_017871C0
//  #07 //015   ----------------------------------------
 BYTE   PATT
  POIN2 Label_017871CD
//  #07 //016   ----------------------------------------
 BYTE   PATT
  POIN2 Label_017871A6
//  #07 //017   ----------------------------------------
 BYTE   PATT
  POIN2 Label_017871B3
//  #07 //018   ----------------------------------------
 BYTE   PATT
  POIN2 Label_017871C0
//  #07 //019   ----------------------------------------
 BYTE   PATT
  POIN2 Label_017871CD
//  #07 //020   ----------------------------------------
 BYTE   PATT
  POIN2 Label_017871A6
//  #07 //021   ----------------------------------------
 BYTE   PATT
  POIN2 Label_017871B3
//  #07 //022   ----------------------------------------
 BYTE   PATT
  POIN2 Label_017871C0
//  #07 //023   ----------------------------------------
 BYTE   PATT
  POIN2 Label_017871CD
//  #07 //024   ----------------------------------------
 BYTE   W96
//  #07 //025   ----------------------------------------
 BYTE   W96
//  #07 //026   ----------------------------------------
 BYTE   W96
//  #07 //027   ----------------------------------------
 BYTE   W96
//  #07 //028   ----------------------------------------
 BYTE   W96
//  #07 //029   ----------------------------------------
 BYTE   W96
//  #07 //030   ----------------------------------------
 BYTE   W96
//  #07 //031   ----------------------------------------
 BYTE   W96
//  #07 //032   ----------------------------------------
 BYTE   W96
//  #07 //033   ----------------------------------------
 BYTE   W96
//  #07 //034   ----------------------------------------
 BYTE   W96
//  #07 //035   ----------------------------------------
 BYTE   W96
//  #07 //036   ----------------------------------------
 BYTE   PATT
  POIN2 Label_017871A6
//  #07 //037   ----------------------------------------
 BYTE   PATT
  POIN2 Label_017871B3
//  #07 //038   ----------------------------------------
 BYTE   PATT
  POIN2 Label_017871C0
//  #07 //039   ----------------------------------------
 BYTE   PATT
  POIN2 Label_017871CD
//  #07 //040   ----------------------------------------
 BYTE   PATT
  POIN2 Label_017871A6
//  #07 //041   ----------------------------------------
 BYTE   PATT
  POIN2 Label_017871B3
//  #07 //042   ----------------------------------------
 BYTE   PATT
  POIN2 Label_017871C0
//  #07 //043   ----------------------------------------
 BYTE   PATT
  POIN2 Label_017871CD
//  #07 //044   ----------------------------------------
 BYTE   W96
//  #07 //045   ----------------------------------------
 BYTE   W96
//  #07 //046   ----------------------------------------
 BYTE   W96
//  #07 //047   ----------------------------------------
 BYTE   W96
//  #07 //048   ----------------------------------------
 BYTE   W96
//  #07 //049   ----------------------------------------
 BYTE   W96
//  #07 //050   ----------------------------------------
 BYTE   W96
//  #07 //051   ----------------------------------------
 BYTE   W96
//  #07 //052   ----------------------------------------
Label_01787264:
 BYTE   W96
//  #07 //053   ----------------------------------------
 BYTE   W96
//  #07 //054   ----------------------------------------
 BYTE   W96
//  #07 //055   ----------------------------------------
 BYTE   W96
//  #07 //056   ----------------------------------------
 BYTE   W96
//  #07 //057   ----------------------------------------
 BYTE   W96
//  #07 //058   ----------------------------------------
 BYTE   W96
//  #07 //059   ----------------------------------------
 BYTE   W96
//  #07 //060   ----------------------------------------
 BYTE   PATT
  POIN2 Label_017871A6
//  #07 //061   ----------------------------------------
 BYTE   PATT
  POIN2 Label_017871B3
//  #07 //062   ----------------------------------------
 BYTE   PATT
  POIN2 Label_017871C0
//  #07 //063   ----------------------------------------
 BYTE   PATT
  POIN2 Label_017871CD
//  #07 //064   ----------------------------------------
 BYTE   PATT
  POIN2 Label_017871A6
//  #07 //065   ----------------------------------------
 BYTE   PATT
  POIN2 Label_017871B3
//  #07 //066   ----------------------------------------
 BYTE   PATT
  POIN2 Label_017871C0
//  #07 //067   ----------------------------------------
 BYTE   PATT
  POIN2 Label_017871CD
//  #07 //068   ----------------------------------------
 BYTE   W96
//  #07 //069   ----------------------------------------
 BYTE   W96
//  #07 //070   ----------------------------------------
 BYTE   W96
//  #07 //071   ----------------------------------------
 BYTE   W96
//  #07 //072   ----------------------------------------
 BYTE   W96
//  #07 //073   ----------------------------------------
 BYTE   W96
//  #07 //074   ----------------------------------------
 BYTE   W96
//  #07 //075   ----------------------------------------
 BYTE   W96
//  #07 //076   ----------------------------------------
 BYTE   GoTo
  POIN2 Label_01787264
//  #07 //077   ----------------------------------------
 BYTE   W96
//  #07 //078   ----------------------------------------
 BYTE   W96
 BYTE   FINE

//**************** Track 8 (Midi-Chn.7) ****************//

EleventhHour_008:
//  #08 //000   ----------------------------------------
 BYTE   VOL   56*EleventhHour_mvl/mxv
 BYTE   KEYSH   EleventhHour_key+0
 BYTE   VOICE   124
 BYTE   W96
//  #08 //001   ----------------------------------------
 BYTE   W96
//  #08 //002   ----------------------------------------
 BYTE   W96
//  #08 //003   ----------------------------------------
 BYTE   W96
//  #08 //004   ----------------------------------------
Label_015D689E:
 BYTE   N06  Cn1  v064
 BYTE   N06  Fs1  v052
 BYTE   W06
 BYTE   N06
 BYTE   W06
 BYTE   N06
 BYTE   W12
 BYTE   En1  v020
 BYTE   N06  Fs1  v052
 BYTE   W12
 BYTE   N06
 BYTE   W06
 BYTE   N06
 BYTE   W06
 BYTE   N06
 BYTE   W06
 BYTE   En1  v020
 BYTE   W06
 BYTE   Fs1  v052
 BYTE   W06
 BYTE   N06
 BYTE   W06
 BYTE   En1  v020
 BYTE   N06  Fs1  v052
 BYTE   W12
 BYTE   N06
 BYTE   W06
 BYTE   Cn1  v064
 BYTE   W06
 BYTE   PEND 
//  #08 //005   ----------------------------------------
 BYTE   PATT
  POIN2 Label_015D689E
//  #08 //006   ----------------------------------------
 BYTE   PATT
  POIN2 Label_015D689E
//  #08 //007   ----------------------------------------
 BYTE   PATT
  POIN2 Label_015D689E
//  #08 //008   ----------------------------------------
 BYTE   PATT
  POIN2 Label_015D689E
//  #08 //009   ----------------------------------------
 BYTE   PATT
  POIN2 Label_015D689E
//  #08 //010   ----------------------------------------
 BYTE   PATT
  POIN2 Label_015D689E
//  #08 //011   ----------------------------------------
 BYTE   PATT
  POIN2 Label_015D689E
//  #08 //012   ----------------------------------------
 BYTE   PATT
  POIN2 Label_015D689E
//  #08 //013   ----------------------------------------
 BYTE   PATT
  POIN2 Label_015D689E
//  #08 //014   ----------------------------------------
 BYTE   PATT
  POIN2 Label_015D689E
//  #08 //015   ----------------------------------------
 BYTE   PATT
  POIN2 Label_015D689E
//  #08 //016   ----------------------------------------
 BYTE   PATT
  POIN2 Label_015D689E
//  #08 //017   ----------------------------------------
 BYTE   PATT
  POIN2 Label_015D689E
//  #08 //018   ----------------------------------------
 BYTE   PATT
  POIN2 Label_015D689E
//  #08 //019   ----------------------------------------
 BYTE   PATT
  POIN2 Label_015D689E
//  #08 //020   ----------------------------------------
 BYTE   PATT
  POIN2 Label_015D689E
//  #08 //021   ----------------------------------------
 BYTE   PATT
  POIN2 Label_015D689E
//  #08 //022   ----------------------------------------
 BYTE   PATT
  POIN2 Label_015D689E
//  #08 //023   ----------------------------------------
 BYTE   PATT
  POIN2 Label_015D689E
//  #08 //024   ----------------------------------------
 BYTE   N06  Cn1  v064
 BYTE   N06  Fs1  v052
 BYTE   W96
//  #08 //025   ----------------------------------------
 BYTE   W96
//  #08 //026   ----------------------------------------
 BYTE   W96
//  #08 //027   ----------------------------------------
 BYTE   W96
//  #08 //028   ----------------------------------------
 BYTE   PATT
  POIN2 Label_015D689E
//  #08 //029   ----------------------------------------
 BYTE   PATT
  POIN2 Label_015D689E
//  #08 //030   ----------------------------------------
 BYTE   PATT
  POIN2 Label_015D689E
//  #08 //031   ----------------------------------------
 BYTE   PATT
  POIN2 Label_015D689E
//  #08 //032   ----------------------------------------
 BYTE   PATT
  POIN2 Label_015D689E
//  #08 //033   ----------------------------------------
 BYTE   PATT
  POIN2 Label_015D689E
//  #08 //034   ----------------------------------------
 BYTE   PATT
  POIN2 Label_015D689E
//  #08 //035   ----------------------------------------
 BYTE   PATT
  POIN2 Label_015D689E
//  #08 //036   ----------------------------------------
 BYTE   PATT
  POIN2 Label_015D689E
//  #08 //037   ----------------------------------------
 BYTE   PATT
  POIN2 Label_015D689E
//  #08 //038   ----------------------------------------
 BYTE   PATT
  POIN2 Label_015D689E
//  #08 //039   ----------------------------------------
 BYTE   PATT
  POIN2 Label_015D689E
//  #08 //040   ----------------------------------------
 BYTE   PATT
  POIN2 Label_015D689E
//  #08 //041   ----------------------------------------
 BYTE   PATT
  POIN2 Label_015D689E
//  #08 //042   ----------------------------------------
 BYTE   PATT
  POIN2 Label_015D689E
//  #08 //043   ----------------------------------------
 BYTE   PATT
  POIN2 Label_015D689E
//  #08 //044   ----------------------------------------
 BYTE   W96
//  #08 //045   ----------------------------------------
 BYTE   W96
//  #08 //046   ----------------------------------------
 BYTE   W96
//  #08 //047   ----------------------------------------
 BYTE   W96
//  #08 //048   ----------------------------------------
 BYTE   W96
//  #08 //049   ----------------------------------------
 BYTE   W96
//  #08 //050   ----------------------------------------
 BYTE   W96
//  #08 //051   ----------------------------------------
 BYTE   W96
//  #08 //052   ----------------------------------------
Label_015D698A:
//  #08 //053   ----------------------------------------
 BYTE   PATT
  POIN2 Label_015D689E
//  #08 //054   ----------------------------------------
 BYTE   PATT
  POIN2 Label_015D689E
//  #08 //055   ----------------------------------------
 BYTE   PATT
  POIN2 Label_015D689E
//  #08 //056   ----------------------------------------
 BYTE   PATT
  POIN2 Label_015D689E
//  #08 //057   ----------------------------------------
 BYTE   PATT
  POIN2 Label_015D689E
//  #08 //058   ----------------------------------------
 BYTE   PATT
  POIN2 Label_015D689E
//  #08 //059   ----------------------------------------
 BYTE   PATT
  POIN2 Label_015D689E
//  #08 //060   ----------------------------------------
 BYTE   PATT
  POIN2 Label_015D689E
//  #08 //061   ----------------------------------------
 BYTE   PATT
  POIN2 Label_015D689E
//  #08 //062   ----------------------------------------
 BYTE   PATT
  POIN2 Label_015D689E
//  #08 //063   ----------------------------------------
 BYTE   PATT
  POIN2 Label_015D689E
//  #08 //064   ----------------------------------------
 BYTE   PATT
  POIN2 Label_015D689E
//  #08 //065   ----------------------------------------
 BYTE   PATT
  POIN2 Label_015D689E
//  #08 //066   ----------------------------------------
 BYTE   PATT
  POIN2 Label_015D689E
//  #08 //067   ----------------------------------------
 BYTE   PATT
  POIN2 Label_015D689E
//  #08 //068   ----------------------------------------
 BYTE   PATT
  POIN2 Label_015D689E
//  #08 //069   ----------------------------------------
 BYTE   W96
//  #08 //070   ----------------------------------------
 BYTE   W96
//  #08 //071   ----------------------------------------
 BYTE   W96
//  #08 //072   ----------------------------------------
 BYTE   W96
//  #08 //073   ----------------------------------------
 BYTE   W96
//  #08 //074   ----------------------------------------
 BYTE   W96
//  #08 //075   ----------------------------------------
 BYTE   W96
//  #08 //076   ----------------------------------------
 BYTE   W96
//  #08 //077   ----------------------------------------
 BYTE   GoTo
  POIN2 Label_015D698A
//  #08 //078   ----------------------------------------
 BYTE   W96
//  #08 //079   ----------------------------------------
 BYTE   W96
 BYTE   FINE

//******************************************************//
	ALIGN 4

EleventhHour:
	BYTE	8	// NumTrks
	BYTE	0	// NumBlks
	BYTE	EleventhHour_pri	// Priority
	BYTE	EleventhHour_rev	// Reverb.
    
	POIN2	EleventhHour_grp
    
	POIN2	EleventhHour_001
	POIN2	EleventhHour_002
	POIN2	EleventhHour_003
	POIN2	EleventhHour_004
	POIN2	EleventhHour_005
	POIN2	EleventhHour_006
	POIN2	EleventhHour_007
	POIN2	EleventhHour_008

	
