//Event file generated from Sappy .s format.
	#include "MPlayDef.event"

	#define	EncountersReunions_grp  voicegroup000
	#define	EncountersReunions_pri  0
	#define	EncountersReunions_rev  0
	#define	EncountersReunions_mvl  127
	#define	EncountersReunions_key  0
	#define	EncountersReunions_tbs  1
	#define	EncountersReunions_exg  0
	#define	EncountersReunions_cmp  1

	// .rodata
	//	EncountersReunions
	ALIGN 4


//**************** Track 1 (Midi-Chn.0) ****************//

EncountersReunions_001:
//  #01 //000   ----------------------------------------
 BYTE   KEYSH   EncountersReunions_key+0
 BYTE   TEMPO   118*EncountersReunions_tbs/2
 BYTE   VOICE   41
 BYTE   VOL   62*EncountersReunions_mvl/mxv
 BYTE   PAN   c_v+0
 BYTE   W12
Label_014DD303:
 BYTE   N92  En3  v052
 BYTE   W96
//  #01 //001   ----------------------------------------
Label_014DD307:
 BYTE   N92  Fs3  v052
 BYTE   W96
 BYTE   PEND 
//  #01 //002   ----------------------------------------
 BYTE   En3
 BYTE   W96
//  #01 //003   ----------------------------------------
 BYTE   PATT
  POIN2 Label_014DD307
//  #01 //004   ----------------------------------------
Label_014DD313:
 BYTE   N92  An3  v052
 BYTE   W96
 BYTE   PEND 
//  #01 //005   ----------------------------------------
Label_014DD318:
 BYTE   N92  Bn3  v052
 BYTE   W96
 BYTE   PEND 
//  #01 //006   ----------------------------------------
 BYTE   PATT
  POIN2 Label_014DD313
//  #01 //007   ----------------------------------------
 BYTE   PATT
  POIN2 Label_014DD318
//  #01 //008   ----------------------------------------
Label_014DD327:
 BYTE   N92  Cn4  v052
 BYTE   W96
 BYTE   PEND 
//  #01 //009   ----------------------------------------
Label_014DD32C:
 BYTE   N92  Dn4  v052
 BYTE   W96
 BYTE   PEND 
//  #01 //010   ----------------------------------------
 BYTE   PATT
  POIN2 Label_014DD327
//  #01 //011   ----------------------------------------
 BYTE   PATT
  POIN2 Label_014DD32C
//  #01 //012   ----------------------------------------
 BYTE   W96
//  #01 //013   ----------------------------------------
 BYTE   W96
//  #01 //014   ----------------------------------------
 BYTE   W96
//  #01 //015   ----------------------------------------
 BYTE   W96
//  #01 //016   ----------------------------------------
 BYTE   W96
//  #01 //017   ----------------------------------------
 BYTE   W96
//  #01 //018   ----------------------------------------
 BYTE   W96
//  #01 //019   ----------------------------------------
 BYTE   W96
//  #01 //020   ----------------------------------------
Label_014DD343:
 BYTE   N92  An3  v052
 BYTE   W24
 BYTE   W01
 BYTE   W24
 BYTE   W02
 BYTE   W24
 BYTE   W01
 BYTE   W20
 BYTE   PEND 
//  #01 //021   ----------------------------------------
Label_014DD34E:
 BYTE   N92  Bn3  v052
 BYTE   W06
 BYTE   W24
 BYTE   W02
 BYTE   W24
 BYTE   W01
 BYTE   W24
 BYTE   W02
 BYTE   W13
 BYTE   PEND 
//  #01 //022   ----------------------------------------
Label_014DD35A:
 BYTE   N92  Cn4  v056
 BYTE   W12
 BYTE   W24
 BYTE   W02
 BYTE   W24
 BYTE   W02
 BYTE   W24
 BYTE   W01
 BYTE   W07
 BYTE   PEND 
//  #01 //023   ----------------------------------------
Label_014DD366:
 BYTE   N92  Dn4  v060
 BYTE   W19
 BYTE   W24
 BYTE   W01
 BYTE   W24
 BYTE   W02
 BYTE   W24
 BYTE   W02
 BYTE   PEND 
//  #01 //024   ----------------------------------------
 BYTE   W96
//  #01 //025   ----------------------------------------
 BYTE   W92
 BYTE   W03
 BYTE   TEMPO   118*EncountersReunions_tbs/2
 BYTE   W01
//  #01 //026   ----------------------------------------
 BYTE   GoTo
  POIN2 Label_014DD303
//  #01 //027   ----------------------------------------
 BYTE   N92  En3  v052
 BYTE   W96
//  #01 //028   ----------------------------------------
 BYTE   PATT
  POIN2 Label_014DD307
//  #01 //029   ----------------------------------------
 BYTE   N92  En3  v052
 BYTE   W96
//  #01 //030   ----------------------------------------
 BYTE   PATT
  POIN2 Label_014DD307
//  #01 //031   ----------------------------------------
 BYTE   PATT
  POIN2 Label_014DD313
//  #01 //032   ----------------------------------------
 BYTE   PATT
  POIN2 Label_014DD318
//  #01 //033   ----------------------------------------
 BYTE   PATT
  POIN2 Label_014DD313
//  #01 //034   ----------------------------------------
 BYTE   PATT
  POIN2 Label_014DD318
//  #01 //035   ----------------------------------------
 BYTE   PATT
  POIN2 Label_014DD327
//  #01 //036   ----------------------------------------
 BYTE   PATT
  POIN2 Label_014DD32C
//  #01 //037   ----------------------------------------
 BYTE   PATT
  POIN2 Label_014DD327
//  #01 //038   ----------------------------------------
 BYTE   PATT
  POIN2 Label_014DD32C
//  #01 //039   ----------------------------------------
 BYTE   W96
//  #01 //040   ----------------------------------------
 BYTE   W96
//  #01 //041   ----------------------------------------
 BYTE   W96
//  #01 //042   ----------------------------------------
 BYTE   W96
//  #01 //043   ----------------------------------------
 BYTE   W96
//  #01 //044   ----------------------------------------
 BYTE   W96
//  #01 //045   ----------------------------------------
 BYTE   W96
//  #01 //046   ----------------------------------------
 BYTE   W96
//  #01 //047   ----------------------------------------
 BYTE   PATT
  POIN2 Label_014DD343
//  #01 //048   ----------------------------------------
 BYTE   PATT
  POIN2 Label_014DD34E
//  #01 //049   ----------------------------------------
 BYTE   PATT
  POIN2 Label_014DD35A
//  #01 //050   ----------------------------------------
 BYTE   PATT
  POIN2 Label_014DD366
//  #01 //051   ----------------------------------------
 BYTE   TEMPO   118*EncountersReunions_tbs/2
 BYTE   W96
//  #01 //052   ----------------------------------------
 BYTE   W24
 BYTE   TEMPO   116*EncountersReunions_tbs/2
 BYTE   W24
 BYTE   TEMPO   116*EncountersReunions_tbs/2
 BYTE   W12
 BYTE   TEMPO   116*EncountersReunions_tbs/2
 BYTE   W06
 BYTE   TEMPO   116*EncountersReunions_tbs/2
 BYTE   W12
 BYTE   TEMPO   116*EncountersReunions_tbs/2
 BYTE   W06
 BYTE   TEMPO   116*EncountersReunions_tbs/2
 BYTE   W03
 BYTE   TEMPO   116*EncountersReunions_tbs/2
 BYTE   W06
 BYTE   TEMPO   116*EncountersReunions_tbs/2
 BYTE   W03
//  #01 //053   ----------------------------------------
 BYTE   TEMPO   116*EncountersReunions_tbs/2
 BYTE   W12
 BYTE   TEMPO   116*EncountersReunions_tbs/2
 BYTE   W12
 BYTE   TEMPO   116*EncountersReunions_tbs/2
 BYTE   W24
 BYTE   TEMPO   114*EncountersReunions_tbs/2
 BYTE   W12
 BYTE   TEMPO   114*EncountersReunions_tbs/2
 BYTE   W06
 BYTE   TEMPO   112*EncountersReunions_tbs/2
 BYTE   W06
 BYTE   TEMPO   112*EncountersReunions_tbs/2
 BYTE   W12
 BYTE   TEMPO   110*EncountersReunions_tbs/2
 BYTE   W12
//  #01 //054   ----------------------------------------
 BYTE   TEMPO   108*EncountersReunions_tbs/2
 BYTE   W24
 BYTE   TEMPO   104*EncountersReunions_tbs/2
 BYTE   W24
 BYTE   TEMPO   98*EncountersReunions_tbs/2
 BYTE   W44
 BYTE   W03
 BYTE   FINE

//**************** Track 2 (Midi-Chn.1) ****************//

EncountersReunions_002:
//  #02 //000   ----------------------------------------
 BYTE   KEYSH   EncountersReunions_key+0
 BYTE   VOICE   62
 BYTE   VOL   62*EncountersReunions_mvl/mxv
 BYTE   PAN   c_v+0
 BYTE   W12
Label_56AB25:
 BYTE   N92  Gn2  v052
 BYTE   W96
 BYTE   PEND 
//  #02 //001   ----------------------------------------
Label_56AB2A:
 BYTE   N92  An2  v052
 BYTE   W96
 BYTE   PEND 
//  #02 //002   ----------------------------------------
 BYTE   PATT
  POIN2 Label_56AB25
//  #02 //003   ----------------------------------------
 BYTE   PATT
  POIN2 Label_56AB2A
//  #02 //004   ----------------------------------------
Label_56AB39:
 BYTE   N92  Cn3  v052
 BYTE   W96
 BYTE   PEND 
//  #02 //005   ----------------------------------------
Label_56AB3E:
 BYTE   N92  Dn3  v052
 BYTE   W96
 BYTE   PEND 
//  #02 //006   ----------------------------------------
 BYTE   PATT
  POIN2 Label_56AB39
//  #02 //007   ----------------------------------------
 BYTE   PATT
  POIN2 Label_56AB3E
//  #02 //008   ----------------------------------------
Label_56AB4D:
 BYTE   N92  Ds3  v052
 BYTE   W24
 BYTE   W01
 BYTE   W24
 BYTE   W02
 BYTE   W24
 BYTE   W01
 BYTE   W20
 BYTE   PEND 
//  #02 //009   ----------------------------------------
Label_56AB58:
 BYTE   N92  Fn3  v052
 BYTE   W06
 BYTE   W24
 BYTE   W02
 BYTE   W24
 BYTE   W01
 BYTE   W24
 BYTE   W02
 BYTE   W13
 BYTE   PEND 
//  #02 //010   ----------------------------------------
Label_56AB64:
 BYTE   N92  Ds3  v056
 BYTE   W12
 BYTE   W24
 BYTE   W02
 BYTE   W24
 BYTE   W02
 BYTE   W24
 BYTE   W01
 BYTE   W07
 BYTE   PEND 
//  #02 //011   ----------------------------------------
Label_56AB70:
 BYTE   N92  Fn3  v060
 BYTE   W19
 BYTE   W24
 BYTE   W01
 BYTE   W24
 BYTE   W02
 BYTE   W24
 BYTE   W02
 BYTE   PEND 
//  #02 //012   ----------------------------------------
 BYTE   W96
//  #02 //013   ----------------------------------------
 BYTE   W96
//  #02 //014   ----------------------------------------
 BYTE   W96
//  #02 //015   ----------------------------------------
 BYTE   W96
//  #02 //016   ----------------------------------------
 BYTE   W96
//  #02 //017   ----------------------------------------
 BYTE   W96
//  #02 //018   ----------------------------------------
 BYTE   W96
//  #02 //019   ----------------------------------------
 BYTE   W96
//  #02 //020   ----------------------------------------
Label_56AB83:
 BYTE   N92  Cn3  v064
 BYTE   W96
 BYTE   PEND 
//  #02 //021   ----------------------------------------
Label_56AB88:
 BYTE   N92  Dn3  v064
 BYTE   W96
 BYTE   PEND 
//  #02 //022   ----------------------------------------
Label_56AB8D:
 BYTE   N92  Ds3  v064
 BYTE   W96
 BYTE   PEND 
//  #02 //023   ----------------------------------------
Label_56AB92:
 BYTE   N92  Fn3  v064
 BYTE   W96
 BYTE   PEND 
//  #02 //024   ----------------------------------------
 BYTE   W96
//  #02 //025   ----------------------------------------
 BYTE   W96
//  #02 //026   ----------------------------------------
 BYTE   GoTo
  POIN2 Label_56AB25
//  #02 //027   ----------------------------------------
 BYTE   PATT
  POIN2 Label_56AB25
//  #02 //028   ----------------------------------------
 BYTE   PATT
  POIN2 Label_56AB2A
//  #02 //029   ----------------------------------------
 BYTE   PATT
  POIN2 Label_56AB25
//  #02 //030   ----------------------------------------
 BYTE   PATT
  POIN2 Label_56AB2A
//  #02 //031   ----------------------------------------
 BYTE   PATT
  POIN2 Label_56AB39
//  #02 //032   ----------------------------------------
 BYTE   PATT
  POIN2 Label_56AB3E
//  #02 //033   ----------------------------------------
 BYTE   PATT
  POIN2 Label_56AB39
//  #02 //034   ----------------------------------------
 BYTE   PATT
  POIN2 Label_56AB3E
//  #02 //035   ----------------------------------------
 BYTE   PATT
  POIN2 Label_56AB4D
//  #02 //036   ----------------------------------------
 BYTE   PATT
  POIN2 Label_56AB58
//  #02 //037   ----------------------------------------
 BYTE   PATT
  POIN2 Label_56AB64
//  #02 //038   ----------------------------------------
 BYTE   PATT
  POIN2 Label_56AB70
//  #02 //039   ----------------------------------------
 BYTE   W96
//  #02 //040   ----------------------------------------
 BYTE   W96
//  #02 //041   ----------------------------------------
 BYTE   W96
//  #02 //042   ----------------------------------------
 BYTE   W96
//  #02 //043   ----------------------------------------
 BYTE   W96
//  #02 //044   ----------------------------------------
 BYTE   W96
//  #02 //045   ----------------------------------------
 BYTE   W96
//  #02 //046   ----------------------------------------
 BYTE   W96
//  #02 //047   ----------------------------------------
 BYTE   PATT
  POIN2 Label_56AB83
//  #02 //048   ----------------------------------------
 BYTE   PATT
  POIN2 Label_56AB88
//  #02 //049   ----------------------------------------
 BYTE   PATT
  POIN2 Label_56AB8D
//  #02 //050   ----------------------------------------
 BYTE   PATT
  POIN2 Label_56AB92
//  #02 //051   ----------------------------------------
 BYTE   N11  Ds3  v064
 BYTE   W24
 BYTE   N56
 BYTE   W48
 BYTE   W12
 BYTE   N11
 BYTE   W12
//  #02 //052   ----------------------------------------
 BYTE   N44  Dn3
 BYTE   W48
 BYTE   Fn3
 BYTE   W48
//  #02 //053   ----------------------------------------
 BYTE   PATT
  POIN2 Label_56AB92
//  #02 //054   ----------------------------------------
 BYTE   N92  En3  v064
 BYTE   W92
 BYTE   W03
 BYTE   FINE

//**************** Track 3 (Midi-Chn.2) ****************//

EncountersReunions_003:
//  #03 //000   ----------------------------------------
 BYTE   KEYSH   EncountersReunions_key+0
 BYTE   VOICE   60
 BYTE   VOL   62*EncountersReunions_mvl/mxv
 BYTE   PAN   c_v+0
 BYTE   W12
Label_014DD009:
 BYTE   TIE  Cn1  v080
 BYTE   W96
 BYTE   PEND 
//  #03 //001   ----------------------------------------
Label_014DD00E:
 BYTE   W92
 BYTE   W03
 BYTE   PEND 
 BYTE   EOT
 BYTE   Cn1
 BYTE   W01
//  #03 //002   ----------------------------------------
 BYTE   PATT
  POIN2 Label_014DD009
//  #03 //003   ----------------------------------------
 BYTE   PATT
  POIN2 Label_014DD00E
//  #03 //004   ----------------------------------------
 BYTE   EOT
 BYTE   Cn1
 BYTE   W01
Label_014DD021:
 BYTE   N92  Fn1  v080
 BYTE   W96
 BYTE   PEND 
//  #03 //005   ----------------------------------------
 BYTE   PATT
  POIN2 Label_014DD021
//  #03 //006   ----------------------------------------
Label_014DD02B:
 BYTE   TIE  Fn1  v080
 BYTE   W96
 BYTE   PEND 
//  #03 //007   ----------------------------------------
Label_014DD030:
 BYTE   W68
 BYTE   W03
 BYTE   PEND 
 BYTE   EOT
 BYTE   Fn1
 BYTE   W01
 BYTE   N23  Gn1  v080
 BYTE   W24
//  #03 //008   ----------------------------------------
Label_014DD03A:
 BYTE   N92  Gs1  v080
 BYTE   W96
 BYTE   PEND 
//  #03 //009   ----------------------------------------
 BYTE   PATT
  POIN2 Label_014DD03A
//  #03 //010   ----------------------------------------
 BYTE   PATT
  POIN2 Label_014DD03A
//  #03 //011   ----------------------------------------
 BYTE   PATT
  POIN2 Label_014DD03A
//  #03 //012   ----------------------------------------
Label_014DD04E:
 BYTE   N92  Cn2  v096
 BYTE   W96
 BYTE   PEND 
//  #03 //013   ----------------------------------------
Label_014DD053:
 BYTE   N92  Cn1  v096
 BYTE   W96
 BYTE   PEND 
//  #03 //014   ----------------------------------------
 BYTE   PATT
  POIN2 Label_014DD053
//  #03 //015   ----------------------------------------
 BYTE   PATT
  POIN2 Label_014DD053
//  #03 //016   ----------------------------------------
Label_014DD062:
 BYTE   N23  Cn2  v064
 BYTE   W24
 BYTE   N23
 BYTE   W24
 BYTE   N23
 BYTE   W24
 BYTE   N23
 BYTE   W24
 BYTE   PEND 
//  #03 //017   ----------------------------------------
Label_014DD06D:
 BYTE   N23  Cn2  v064
 BYTE   W24
 BYTE   N23
 BYTE   W24
 BYTE   N23
 BYTE   W24
 BYTE   N23
 BYTE   W24
 BYTE   PEND 
//  #03 //018   ----------------------------------------
 BYTE   PATT
  POIN2 Label_014DD062
//  #03 //019   ----------------------------------------
 BYTE   PATT
  POIN2 Label_014DD06D
//  #03 //020   ----------------------------------------
Label_014DD082:
 BYTE   N23  Fn1  v080
 BYTE   W24
 BYTE   N23
 BYTE   W24
 BYTE   N23
 BYTE   W24
 BYTE   N23
 BYTE   W24
 BYTE   PEND 
//  #03 //021   ----------------------------------------
Label_014DD08D:
 BYTE   N23  Fn1  v080
 BYTE   W24
 BYTE   N23
 BYTE   W24
 BYTE   N23
 BYTE   W24
 BYTE   N11
 BYTE   W12
 BYTE   Gn1
 BYTE   W12
 BYTE   PEND 
//  #03 //022   ----------------------------------------
Label_014DD09A:
 BYTE   N23  Gs1  v080
 BYTE   W24
 BYTE   N23
 BYTE   W24
 BYTE   N23
 BYTE   W24
 BYTE   N23
 BYTE   W24
 BYTE   PEND 
//  #03 //023   ----------------------------------------
Label_014DD0A5:
 BYTE   N23  As1  v080
 BYTE   W24
 BYTE   N23
 BYTE   W24
 BYTE   N23
 BYTE   W24
 BYTE   N23
 BYTE   W24
 BYTE   PEND 
//  #03 //024   ----------------------------------------
Label_014DD0B0:
 BYTE   N11  Gs1  v064
 BYTE   W24
 BYTE   N56
 BYTE   W48
 BYTE   W12
 BYTE   N11
 BYTE   W12
 BYTE   PEND 
//  #03 //025   ----------------------------------------
Label_014DD0BA:
 BYTE   N44  Gn1  v064
 BYTE   W48
 BYTE   N44
 BYTE   W48
 BYTE   PEND 
//  #03 //026   ----------------------------------------
 BYTE   GoTo
  POIN2 Label_014DD009
//  #03 //027   ----------------------------------------
 BYTE   PATT
  POIN2 Label_014DD009
//  #03 //028   ----------------------------------------
 BYTE   PATT
  POIN2 Label_014DD00E
//  #03 //029   ----------------------------------------
 BYTE   EOT
 BYTE   Cn1
 BYTE   W01
//  #03 //030   ----------------------------------------
 BYTE   PATT
  POIN2 Label_014DD009
//  #03 //031   ----------------------------------------
 BYTE   PATT
  POIN2 Label_014DD00E
//  #03 //032   ----------------------------------------
 BYTE   EOT
 BYTE   Cn1
 BYTE   W01
//  #03 //033   ----------------------------------------
 BYTE   PATT
  POIN2 Label_014DD021
//  #03 //034   ----------------------------------------
 BYTE   PATT
  POIN2 Label_014DD021
//  #03 //035   ----------------------------------------
 BYTE   PATT
  POIN2 Label_014DD02B
//  #03 //036   ----------------------------------------
 BYTE   PATT
  POIN2 Label_014DD030
//  #03 //037   ----------------------------------------
 BYTE   EOT
 BYTE   Fn1
 BYTE   W01
 BYTE   N23  Gn1  v080
 BYTE   W24
//  #03 //038   ----------------------------------------
 BYTE   PATT
  POIN2 Label_014DD03A
//  #03 //039   ----------------------------------------
 BYTE   PATT
  POIN2 Label_014DD03A
//  #03 //040   ----------------------------------------
 BYTE   PATT
  POIN2 Label_014DD03A
//  #03 //041   ----------------------------------------
 BYTE   PATT
  POIN2 Label_014DD03A
//  #03 //042   ----------------------------------------
 BYTE   PATT
  POIN2 Label_014DD04E
//  #03 //043   ----------------------------------------
 BYTE   PATT
  POIN2 Label_014DD053
//  #03 //044   ----------------------------------------
 BYTE   PATT
  POIN2 Label_014DD053
//  #03 //045   ----------------------------------------
 BYTE   PATT
  POIN2 Label_014DD053
//  #03 //046   ----------------------------------------
 BYTE   PATT
  POIN2 Label_014DD062
//  #03 //047   ----------------------------------------
 BYTE   PATT
  POIN2 Label_014DD06D
//  #03 //048   ----------------------------------------
 BYTE   PATT
  POIN2 Label_014DD062
//  #03 //049   ----------------------------------------
 BYTE   PATT
  POIN2 Label_014DD06D
//  #03 //050   ----------------------------------------
 BYTE   PATT
  POIN2 Label_014DD082
//  #03 //051   ----------------------------------------
 BYTE   PATT
  POIN2 Label_014DD08D
//  #03 //052   ----------------------------------------
 BYTE   PATT
  POIN2 Label_014DD09A
//  #03 //053   ----------------------------------------
 BYTE   PATT
  POIN2 Label_014DD0A5
//  #03 //054   ----------------------------------------
 BYTE   PATT
  POIN2 Label_014DD0B0
//  #03 //055   ----------------------------------------
 BYTE   PATT
  POIN2 Label_014DD0BA
//  #03 //056   ----------------------------------------
 BYTE   TIE  Cn1  v064
 BYTE   W96
//  #03 //057   ----------------------------------------
 BYTE   W92
 BYTE   W03
 BYTE   EOT
 BYTE   FINE

//**************** Track 4 (Midi-Chn.3) ****************//

EncountersReunions_004:
//  #04 //000   ----------------------------------------
 BYTE   KEYSH   EncountersReunions_key+0
 BYTE   VOICE   40
 BYTE   VOL   62*EncountersReunions_mvl/mxv
 BYTE   PAN   c_v+0
 BYTE   W12
Label_014DD175:
 BYTE   N80  Cn4  v080
 BYTE   W84
//  #04 //001   ----------------------------------------
 BYTE   N05  Gn3
 BYTE   W06
 BYTE   Cn4
 BYTE   W06
 BYTE   PEND 
Label_014DD17F:
 BYTE   N76  Dn4  v080
 BYTE   W78
 BYTE   N05  Gn3
 BYTE   W06
//  #04 //002   ----------------------------------------
 BYTE   Cn4
 BYTE   W06
 BYTE   Dn4
 BYTE   W06
 BYTE   PEND 
Label_014DD18B:
 BYTE   N80  En4  v080
 BYTE   W84
//  #04 //003   ----------------------------------------
 BYTE   N05  Cn4
 BYTE   W06
 BYTE   Dn4
 BYTE   W06
 BYTE   PEND 
Label_014DD195:
 BYTE   N44  En4  v080
 BYTE   W48
 BYTE   Dn4
 BYTE   W48
 BYTE   PEND 
//  #04 //004   ----------------------------------------
Label_014DD19C:
 BYTE   N80  Fn4  v080
 BYTE   W84
 BYTE   N11  Cn4
 BYTE   W12
 BYTE   PEND 
//  #04 //005   ----------------------------------------
Label_014DD1A4:
 BYTE   N80  Gn4  v080
 BYTE   W84
 BYTE   N05  Fn4
 BYTE   W06
 BYTE   Cn4
 BYTE   W06
 BYTE   PEND 
//  #04 //006   ----------------------------------------
Label_014DD1AE:
 BYTE   N80  Fn4  v080
 BYTE   W84
 BYTE   N05  Cn4
 BYTE   W06
 BYTE   Fn4
 BYTE   W06
 BYTE   PEND 
//  #04 //007   ----------------------------------------
Label_014DD1B8:
 BYTE   N44  Gn4  v080
 BYTE   W48
 BYTE   N23  Dn4
 BYTE   W24
 BYTE   En4
 BYTE   W24
 BYTE   PEND 
//  #04 //008   ----------------------------------------
Label_014DD1C2:
 BYTE   N44  Fn4  v080
 BYTE   W24
 BYTE   W24
 BYTE   N32  Cn4  v084
 BYTE   W24
 BYTE   W12
 BYTE   N11  Dn4
 BYTE   W12
 BYTE   PEND 
//  #04 //009   ----------------------------------------
Label_014DD1D0:
 BYTE   N44  Ds4  v084
 BYTE   W24
 BYTE   W24
 BYTE   Dn4  v088
 BYTE   W24
 BYTE   W24
 BYTE   PEND 
//  #04 //010   ----------------------------------------
Label_014DD1DA:
 BYTE   N80  Fn4  v088
 BYTE   W24
 BYTE   W24
 BYTE   W24
 BYTE   W12
 BYTE   N05  Cn4  v092
 BYTE   W06
 BYTE   Fn4
 BYTE   W06
 BYTE   PEND 
//  #04 //011   ----------------------------------------
Label_014DD1E8:
 BYTE   N76  Gn4  v092
 BYTE   W24
 BYTE   W24
 BYTE   W24
 BYTE   W06
 BYTE   N05  Gn3  v096
 BYTE   W06
 BYTE   Cn4
 BYTE   W06
 BYTE   Dn4
 BYTE   W06
 BYTE   PEND 
//  #04 //012   ----------------------------------------
Label_014DD1F8:
 BYTE   N80  En4  v096
 BYTE   W84
 BYTE   N05  Dn4
 BYTE   W06
 BYTE   En4
 BYTE   W06
 BYTE   PEND 
//  #04 //013   ----------------------------------------
Label_014DD202:
 BYTE   N80  Fn4  v096
 BYTE   W84
 BYTE   N05  En4
 BYTE   W06
 BYTE   Dn4
 BYTE   W06
 BYTE   PEND 
//  #04 //014   ----------------------------------------
Label_014DD20C:
 BYTE   N05  Dn4  v096
 BYTE   W06
 BYTE   En4
 BYTE   W06
 BYTE   TIE
 BYTE   W84
 BYTE   PEND 
//  #04 //015   ----------------------------------------
Label_014DD215:
 BYTE   W92
 BYTE   W03
 BYTE   PEND 
 BYTE   EOT
 BYTE   En4
 BYTE   W01
//  #04 //016   ----------------------------------------
Label_014DD21B:
 BYTE   N32  Gn3  v064
 BYTE   W36
 BYTE   N05  En3
 BYTE   W06
 BYTE   Gn3
 BYTE   W06
 BYTE   N44  Cn4
 BYTE   W48
 BYTE   PEND 
//  #04 //017   ----------------------------------------
Label_014DD228:
 BYTE   N32  As3  v064
 BYTE   W36
 BYTE   N03  An3
 BYTE   W04
 BYTE   As3
 BYTE   W04
 BYTE   An3
 BYTE   W04
 BYTE   N44  Gn3
 BYTE   W48
 BYTE   PEND 
//  #04 //018   ----------------------------------------
 BYTE   PATT
  POIN2 Label_014DD21B
//  #04 //019   ----------------------------------------
Label_014DD23C:
 BYTE   N08  As3  v064
 BYTE   W18
 BYTE   N05  An3
 BYTE   W06
 BYTE   N68  Gn3
 BYTE   W24
 BYTE   W48
 BYTE   PEND 
//  #04 //020   ----------------------------------------
 BYTE   W96
//  #04 //021   ----------------------------------------
 BYTE   W96
//  #04 //022   ----------------------------------------
 BYTE   W96
//  #04 //023   ----------------------------------------
 BYTE   W96
//  #04 //024   ----------------------------------------
Label_014DD24C:
 BYTE   N11  Cn4  v080
 BYTE   W24
 BYTE   N56
 BYTE   W48
 BYTE   W12
 BYTE   N11
 BYTE   W12
 BYTE   PEND 
//  #04 //025   ----------------------------------------
 BYTE   N44
 BYTE   W48
 BYTE   Dn4
 BYTE   W48
//  #04 //026   ----------------------------------------
 BYTE   GoTo
  POIN2 Label_014DD175
//  #04 //027   ----------------------------------------
 BYTE   PATT
  POIN2 Label_014DD175
//  #04 //028   ----------------------------------------
 BYTE   PATT
  POIN2 Label_014DD17F
//  #04 //029   ----------------------------------------
 BYTE   PATT
  POIN2 Label_014DD18B
//  #04 //030   ----------------------------------------
 BYTE   PATT
  POIN2 Label_014DD195
//  #04 //031   ----------------------------------------
 BYTE   PATT
  POIN2 Label_014DD19C
//  #04 //032   ----------------------------------------
 BYTE   PATT
  POIN2 Label_014DD1A4
//  #04 //033   ----------------------------------------
 BYTE   PATT
  POIN2 Label_014DD1AE
//  #04 //034   ----------------------------------------
 BYTE   PATT
  POIN2 Label_014DD1B8
//  #04 //035   ----------------------------------------
 BYTE   PATT
  POIN2 Label_014DD1C2
//  #04 //036   ----------------------------------------
 BYTE   PATT
  POIN2 Label_014DD1D0
//  #04 //037   ----------------------------------------
 BYTE   PATT
  POIN2 Label_014DD1DA
//  #04 //038   ----------------------------------------
 BYTE   PATT
  POIN2 Label_014DD1E8
//  #04 //039   ----------------------------------------
 BYTE   PATT
  POIN2 Label_014DD1F8
//  #04 //040   ----------------------------------------
 BYTE   PATT
  POIN2 Label_014DD202
//  #04 //041   ----------------------------------------
 BYTE   PATT
  POIN2 Label_014DD20C
//  #04 //042   ----------------------------------------
 BYTE   PATT
  POIN2 Label_014DD215
//  #04 //043   ----------------------------------------
 BYTE   EOT
 BYTE   En4
 BYTE   W01
//  #04 //044   ----------------------------------------
 BYTE   PATT
  POIN2 Label_014DD21B
//  #04 //045   ----------------------------------------
 BYTE   PATT
  POIN2 Label_014DD228
//  #04 //046   ----------------------------------------
 BYTE   PATT
  POIN2 Label_014DD21B
//  #04 //047   ----------------------------------------
 BYTE   PATT
  POIN2 Label_014DD23C
//  #04 //048   ----------------------------------------
 BYTE   W96
//  #04 //049   ----------------------------------------
 BYTE   W96
//  #04 //050   ----------------------------------------
 BYTE   W96
//  #04 //051   ----------------------------------------
 BYTE   W96
//  #04 //052   ----------------------------------------
 BYTE   PATT
  POIN2 Label_014DD24C
//  #04 //053   ----------------------------------------
 BYTE   N44  Cn4  v080
 BYTE   W48
 BYTE   Bn3
 BYTE   W48
//  #04 //054   ----------------------------------------
 BYTE   TIE  Cn4
 BYTE   W96
//  #04 //055   ----------------------------------------
 BYTE   W92
 BYTE   W03
 BYTE   EOT
 BYTE   FINE

//**************** Track 5 (Midi-Chn.4) ****************//

EncountersReunions_005:
//  #05 //000   ----------------------------------------
 BYTE   KEYSH   EncountersReunions_key+0
 BYTE   VOICE   40
 BYTE   VOL   62*EncountersReunions_mvl/mxv
 BYTE   PAN   c_v+0
 BYTE   W12
Label_56A579:
 BYTE   W96
//  #05 //001   ----------------------------------------
 BYTE   W96
//  #05 //002   ----------------------------------------
 BYTE   W96
//  #05 //003   ----------------------------------------
 BYTE   W96
//  #05 //004   ----------------------------------------
 BYTE   W96
//  #05 //005   ----------------------------------------
 BYTE   W96
//  #05 //006   ----------------------------------------
 BYTE   W96
//  #05 //007   ----------------------------------------
 BYTE   W96
//  #05 //008   ----------------------------------------
 BYTE   W96
//  #05 //009   ----------------------------------------
 BYTE   W96
//  #05 //010   ----------------------------------------
 BYTE   W96
//  #05 //011   ----------------------------------------
 BYTE   W96
//  #05 //012   ----------------------------------------
Label_56A585:
 BYTE   N92  Cn3  v064
 BYTE   W96
 BYTE   PEND 
//  #05 //013   ----------------------------------------
 BYTE   PATT
  POIN2 Label_56A585
//  #05 //014   ----------------------------------------
Label_56A58F:
 BYTE   TIE  Cn3  v064
 BYTE   W96
 BYTE   PEND 
//  #05 //015   ----------------------------------------
Label_56A594:
 BYTE   W92
 BYTE   W03
 BYTE   PEND 
 BYTE   EOT
 BYTE   Cn3
 BYTE   W01
//  #05 //016   ----------------------------------------
Label_56A59A:
 BYTE   N44  En2  v064
 BYTE   W48
 BYTE   Gn2
 BYTE   W48
 BYTE   PEND 
//  #05 //017   ----------------------------------------
Label_56A5A1:
 BYTE   N44  Fn2  v064
 BYTE   W48
 BYTE   N44
 BYTE   W48
 BYTE   PEND 
//  #05 //018   ----------------------------------------
 BYTE   PATT
  POIN2 Label_56A59A
//  #05 //019   ----------------------------------------
Label_56A5AD:
 BYTE   N08  Gn2  v064
 BYTE   W18
 BYTE   N05  Fn2
 BYTE   W06
 BYTE   N68  En2
 BYTE   W24
 BYTE   W48
 BYTE   PEND 
//  #05 //020   ----------------------------------------
 BYTE   W96
//  #05 //021   ----------------------------------------
 BYTE   W96
//  #05 //022   ----------------------------------------
 BYTE   W96
//  #05 //023   ----------------------------------------
 BYTE   W96
//  #05 //024   ----------------------------------------
Label_56A5BD:
 BYTE   N11  Gs2  v064
 BYTE   W24
 BYTE   N56
 BYTE   W48
 BYTE   W12
 BYTE   N11
 BYTE   W12
 BYTE   PEND 
//  #05 //025   ----------------------------------------
Label_56A5C7:
 BYTE   N44  Gn2  v064
 BYTE   W48
 BYTE   Bn2
 BYTE   W48
 BYTE   PEND 
//  #05 //026   ----------------------------------------
 BYTE   GoTo
  POIN2 Label_56A579
//  #05 //027   ----------------------------------------
 BYTE   W96
//  #05 //028   ----------------------------------------
 BYTE   W96
//  #05 //029   ----------------------------------------
 BYTE   W96
//  #05 //030   ----------------------------------------
 BYTE   W96
//  #05 //031   ----------------------------------------
 BYTE   W96
//  #05 //032   ----------------------------------------
 BYTE   W96
//  #05 //033   ----------------------------------------
 BYTE   W96
//  #05 //034   ----------------------------------------
 BYTE   W96
//  #05 //035   ----------------------------------------
 BYTE   W96
//  #05 //036   ----------------------------------------
 BYTE   W96
//  #05 //037   ----------------------------------------
 BYTE   W96
//  #05 //038   ----------------------------------------
 BYTE   W96
//  #05 //039   ----------------------------------------
 BYTE   PATT
  POIN2 Label_56A585
//  #05 //040   ----------------------------------------
 BYTE   PATT
  POIN2 Label_56A585
//  #05 //041   ----------------------------------------
 BYTE   PATT
  POIN2 Label_56A58F
//  #05 //042   ----------------------------------------
 BYTE   PATT
  POIN2 Label_56A594
//  #05 //043   ----------------------------------------
 BYTE   EOT
 BYTE   Cn3
 BYTE   W01
//  #05 //044   ----------------------------------------
 BYTE   PATT
  POIN2 Label_56A59A
//  #05 //045   ----------------------------------------
 BYTE   PATT
  POIN2 Label_56A5A1
//  #05 //046   ----------------------------------------
 BYTE   PATT
  POIN2 Label_56A59A
//  #05 //047   ----------------------------------------
 BYTE   PATT
  POIN2 Label_56A5AD
//  #05 //048   ----------------------------------------
 BYTE   W96
//  #05 //049   ----------------------------------------
 BYTE   W96
//  #05 //050   ----------------------------------------
 BYTE   W96
//  #05 //051   ----------------------------------------
 BYTE   W96
//  #05 //052   ----------------------------------------
 BYTE   PATT
  POIN2 Label_56A5BD
//  #05 //053   ----------------------------------------
 BYTE   PATT
  POIN2 Label_56A5C7
//  #05 //054   ----------------------------------------
 BYTE   PATT
  POIN2 Label_56A58F
//  #05 //055   ----------------------------------------
 BYTE   PATT
  POIN2 Label_56A594
//  #05 //056   ----------------------------------------
 BYTE   EOT
 BYTE   Cn3
 BYTE   FINE

//**************** Track 6 (Midi-Chn.5) ****************//

EncountersReunions_006:
//  #06 //000   ----------------------------------------
 BYTE   KEYSH   EncountersReunions_key+0
 BYTE   VOICE   121
 BYTE   VOL   62*EncountersReunions_mvl/mxv
 BYTE   PAN   c_v+0
 BYTE   W12
Label_56A669:
 BYTE   N11  Dn1  v080
 BYTE   W12
 BYTE   N11
 BYTE   W48
 BYTE   N05
 BYTE   W06
 BYTE   N05
 BYTE   W06
 BYTE   N03  Dn1  v052
 BYTE   W04
 BYTE   Dn1  v056
 BYTE   W04
 BYTE   Dn1  v060
 BYTE   W04
//  #06 //001   ----------------------------------------
 BYTE   Dn1  v064
 BYTE   W04
 BYTE   Dn1  v072
 BYTE   W04
 BYTE   Dn1  v076
 BYTE   W04
 BYTE   PEND 
Label_56A687:
 BYTE   N11  Dn1  v080
 BYTE   W12
 BYTE   N11
 BYTE   W48
 BYTE   N05  Dn1  v052
 BYTE   W06
 BYTE   Dn1  v056
 BYTE   W06
 BYTE   Dn1  v060
 BYTE   W06
 BYTE   Dn1  v064
 BYTE   W06
//  #06 //002   ----------------------------------------
 BYTE   N02  Dn1  v072
 BYTE   W03
 BYTE   N02
 BYTE   W03
 BYTE   Dn1  v076
 BYTE   W03
 BYTE   Dn1  v080
 BYTE   W03
 BYTE   PEND 
//  #06 //003   ----------------------------------------
 BYTE   PATT
  POIN2 Label_56A669
//  #06 //004   ----------------------------------------
 BYTE   PATT
  POIN2 Label_56A687
//  #06 //005   ----------------------------------------
 BYTE   PATT
  POIN2 Label_56A669
//  #06 //006   ----------------------------------------
 BYTE   PATT
  POIN2 Label_56A687
//  #06 //007   ----------------------------------------
 BYTE   PATT
  POIN2 Label_56A669
//  #06 //008   ----------------------------------------
 BYTE   PATT
  POIN2 Label_56A687
//  #06 //009   ----------------------------------------
 BYTE   PATT
  POIN2 Label_56A669
//  #06 //010   ----------------------------------------
 BYTE   PATT
  POIN2 Label_56A687
//  #06 //011   ----------------------------------------
 BYTE   PATT
  POIN2 Label_56A669
//  #06 //012   ----------------------------------------
 BYTE   PATT
  POIN2 Label_56A687
//  #06 //013   ----------------------------------------
 BYTE   PATT
  POIN2 Label_56A669
//  #06 //014   ----------------------------------------
 BYTE   PATT
  POIN2 Label_56A687
//  #06 //015   ----------------------------------------
 BYTE   PATT
  POIN2 Label_56A669
//  #06 //016   ----------------------------------------
 BYTE   PATT
  POIN2 Label_56A687
//  #06 //017   ----------------------------------------
 BYTE   PATT
  POIN2 Label_56A669
//  #06 //018   ----------------------------------------
 BYTE   PATT
  POIN2 Label_56A687
//  #06 //019   ----------------------------------------
 BYTE   PATT
  POIN2 Label_56A669
//  #06 //020   ----------------------------------------
 BYTE   PATT
  POIN2 Label_56A687
//  #06 //021   ----------------------------------------
 BYTE   N23  Dn1  v080
 BYTE   W96
//  #06 //022   ----------------------------------------
 BYTE   W96
//  #06 //023   ----------------------------------------
 BYTE   W96
//  #06 //024   ----------------------------------------
 BYTE   W96
//  #06 //025   ----------------------------------------
 BYTE   PATT
  POIN2 Label_56A669
//  #06 //026   ----------------------------------------
 BYTE   PATT
  POIN2 Label_56A687
//  #06 //027   ----------------------------------------
 BYTE   GoTo
  POIN2 Label_56A669
//  #06 //028   ----------------------------------------
 BYTE   PATT
  POIN2 Label_56A669
//  #06 //029   ----------------------------------------
 BYTE   PATT
  POIN2 Label_56A687
//  #06 //030   ----------------------------------------
 BYTE   PATT
  POIN2 Label_56A669
//  #06 //031   ----------------------------------------
 BYTE   PATT
  POIN2 Label_56A687
//  #06 //032   ----------------------------------------
 BYTE   PATT
  POIN2 Label_56A669
//  #06 //033   ----------------------------------------
 BYTE   PATT
  POIN2 Label_56A687
//  #06 //034   ----------------------------------------
 BYTE   PATT
  POIN2 Label_56A669
//  #06 //035   ----------------------------------------
 BYTE   PATT
  POIN2 Label_56A687
//  #06 //036   ----------------------------------------
 BYTE   PATT
  POIN2 Label_56A669
//  #06 //037   ----------------------------------------
 BYTE   PATT
  POIN2 Label_56A687
//  #06 //038   ----------------------------------------
 BYTE   PATT
  POIN2 Label_56A669
//  #06 //039   ----------------------------------------
 BYTE   PATT
  POIN2 Label_56A687
//  #06 //040   ----------------------------------------
 BYTE   PATT
  POIN2 Label_56A669
//  #06 //041   ----------------------------------------
 BYTE   PATT
  POIN2 Label_56A687
//  #06 //042   ----------------------------------------
 BYTE   PATT
  POIN2 Label_56A669
//  #06 //043   ----------------------------------------
 BYTE   PATT
  POIN2 Label_56A687
//  #06 //044   ----------------------------------------
 BYTE   PATT
  POIN2 Label_56A669
//  #06 //045   ----------------------------------------
 BYTE   PATT
  POIN2 Label_56A687
//  #06 //046   ----------------------------------------
 BYTE   PATT
  POIN2 Label_56A669
//  #06 //047   ----------------------------------------
 BYTE   PATT
  POIN2 Label_56A687
//  #06 //048   ----------------------------------------
 BYTE   N23  Dn1  v080
 BYTE   W96
//  #06 //049   ----------------------------------------
 BYTE   W96
//  #06 //050   ----------------------------------------
 BYTE   W96
//  #06 //051   ----------------------------------------
 BYTE   W96
//  #06 //052   ----------------------------------------
 BYTE   PATT
  POIN2 Label_56A669
//  #06 //053   ----------------------------------------
 BYTE   PATT
  POIN2 Label_56A687
//  #06 //054   ----------------------------------------
 BYTE   N11  Dn1  v080
 BYTE   W12
 BYTE   N11
 BYTE   W48
 BYTE   N05
 BYTE   W06
 BYTE   N05
 BYTE   W06
 BYTE   N11
 BYTE   W12
 BYTE   N11
 BYTE   W12
//  #06 //055   ----------------------------------------
 BYTE   N23
 BYTE   W92
 BYTE   W03
 BYTE   FINE

//**************** Track 7 (Midi-Chn.6) ****************//

EncountersReunions_007:
//  #07 //000   ----------------------------------------
 BYTE   KEYSH   EncountersReunions_key+0
 BYTE   VOICE   40
 BYTE   VOL   62*EncountersReunions_mvl/mxv
 BYTE   PAN   c_v+0
 BYTE   W12
Label_56A33D:
 BYTE   W96
//  #07 //001   ----------------------------------------
 BYTE   W96
//  #07 //002   ----------------------------------------
 BYTE   W96
//  #07 //003   ----------------------------------------
 BYTE   W96
//  #07 //004   ----------------------------------------
 BYTE   W96
//  #07 //005   ----------------------------------------
 BYTE   W96
//  #07 //006   ----------------------------------------
 BYTE   W96
//  #07 //007   ----------------------------------------
 BYTE   W96
//  #07 //008   ----------------------------------------
 BYTE   W96
//  #07 //009   ----------------------------------------
 BYTE   W96
//  #07 //010   ----------------------------------------
 BYTE   W96
//  #07 //011   ----------------------------------------
 BYTE   W96
//  #07 //012   ----------------------------------------
Label_56A349:
 BYTE   N92  Gn2  v064
 BYTE   W96
 BYTE   PEND 
//  #07 //013   ----------------------------------------
Label_56A34E:
 BYTE   N92  An2  v064
 BYTE   W96
 BYTE   PEND 
//  #07 //014   ----------------------------------------
Label_56A353:
 BYTE   TIE  Gn2  v064
 BYTE   W96
 BYTE   PEND 
//  #07 //015   ----------------------------------------
Label_56A358:
 BYTE   W92
 BYTE   W03
 BYTE   PEND 
 BYTE   EOT
 BYTE   Gn2
 BYTE   W01
//  #07 //016   ----------------------------------------
Label_56A35E:
 BYTE   N44  Cn2  v064
 BYTE   W48
 BYTE   En2
 BYTE   W48
 BYTE   PEND 
//  #07 //017   ----------------------------------------
Label_56A365:
 BYTE   N44  Dn2  v064
 BYTE   W48
 BYTE   N44
 BYTE   W48
 BYTE   PEND 
//  #07 //018   ----------------------------------------
 BYTE   PATT
  POIN2 Label_56A35E
//  #07 //019   ----------------------------------------
Label_56A371:
 BYTE   N08  Dn2  v064
 BYTE   W18
 BYTE   N05  Cn2
 BYTE   W06
 BYTE   N68
 BYTE   W24
 BYTE   W48
 BYTE   PEND 
//  #07 //020   ----------------------------------------
 BYTE   W96
//  #07 //021   ----------------------------------------
 BYTE   W96
//  #07 //022   ----------------------------------------
 BYTE   W96
//  #07 //023   ----------------------------------------
 BYTE   W96
//  #07 //024   ----------------------------------------
Label_56A380:
 BYTE   N11  Ds2  v064
 BYTE   W24
 BYTE   N56
 BYTE   W48
 BYTE   W12
 BYTE   N11
 BYTE   W12
 BYTE   PEND 
//  #07 //025   ----------------------------------------
Label_56A38A:
 BYTE   N44  Dn2  v064
 BYTE   W48
 BYTE   Gn2
 BYTE   W48
 BYTE   PEND 
//  #07 //026   ----------------------------------------
 BYTE   GoTo
  POIN2 Label_56A33D
//  #07 //027   ----------------------------------------
 BYTE   W96
//  #07 //028   ----------------------------------------
 BYTE   W96
//  #07 //029   ----------------------------------------
 BYTE   W96
//  #07 //030   ----------------------------------------
 BYTE   W96
//  #07 //031   ----------------------------------------
 BYTE   W96
//  #07 //032   ----------------------------------------
 BYTE   W96
//  #07 //033   ----------------------------------------
 BYTE   W96
//  #07 //034   ----------------------------------------
 BYTE   W96
//  #07 //035   ----------------------------------------
 BYTE   W96
//  #07 //036   ----------------------------------------
 BYTE   W96
//  #07 //037   ----------------------------------------
 BYTE   W96
//  #07 //038   ----------------------------------------
 BYTE   W96
//  #07 //039   ----------------------------------------
 BYTE   PATT
  POIN2 Label_56A349
//  #07 //040   ----------------------------------------
 BYTE   PATT
  POIN2 Label_56A34E
//  #07 //041   ----------------------------------------
 BYTE   PATT
  POIN2 Label_56A353
//  #07 //042   ----------------------------------------
 BYTE   PATT
  POIN2 Label_56A358
//  #07 //043   ----------------------------------------
 BYTE   EOT
 BYTE   Gn2
 BYTE   W01
//  #07 //044   ----------------------------------------
 BYTE   PATT
  POIN2 Label_56A35E
//  #07 //045   ----------------------------------------
 BYTE   PATT
  POIN2 Label_56A365
//  #07 //046   ----------------------------------------
 BYTE   PATT
  POIN2 Label_56A35E
//  #07 //047   ----------------------------------------
 BYTE   PATT
  POIN2 Label_56A371
//  #07 //048   ----------------------------------------
 BYTE   W96
//  #07 //049   ----------------------------------------
 BYTE   W96
//  #07 //050   ----------------------------------------
 BYTE   W96
//  #07 //051   ----------------------------------------
 BYTE   W96
//  #07 //052   ----------------------------------------
 BYTE   PATT
  POIN2 Label_56A380
//  #07 //053   ----------------------------------------
 BYTE   PATT
  POIN2 Label_56A38A
//  #07 //054   ----------------------------------------
 BYTE   PATT
  POIN2 Label_56A353
//  #07 //055   ----------------------------------------
 BYTE   PATT
  POIN2 Label_56A358
//  #07 //056   ----------------------------------------
 BYTE   EOT
 BYTE   Gn2
 BYTE   FINE

//**************** Track 8 (Midi-Chn.7) ****************//

EncountersReunions_008:
//  #08 //000   ----------------------------------------
 BYTE   KEYSH   EncountersReunions_key+0
 BYTE   VOICE   47
 BYTE   VOL   62*EncountersReunions_mvl/mxv
 BYTE   PAN   c_v+0
 BYTE   N11  Gn1  v080
 BYTE   W12
Label_014DD45C:
 BYTE   N92  Cn2  v080
 BYTE   W96
 BYTE   PEND 
//  #08 //001   ----------------------------------------
Label_014DD461:
 BYTE   W84
 BYTE   N11  Gn1  v080
 BYTE   W12
 BYTE   PEND 
//  #08 //002   ----------------------------------------
 BYTE   PATT
  POIN2 Label_014DD45C
//  #08 //003   ----------------------------------------
Label_014DD46C:
 BYTE   W84
 BYTE   N05  Gn1  v080
 BYTE   W06
 BYTE   N05
 BYTE   W06
 BYTE   PEND 
//  #08 //004   ----------------------------------------
Label_014DD474:
 BYTE   N92  Gn1  v080
 BYTE   W96
 BYTE   PEND 
//  #08 //005   ----------------------------------------
Label_014DD479:
 BYTE   N80  Gn1  v080
 BYTE   W84
 BYTE   N05
 BYTE   W06
 BYTE   N05
 BYTE   W06
 BYTE   PEND 
//  #08 //006   ----------------------------------------
 BYTE   PATT
  POIN2 Label_014DD474
//  #08 //007   ----------------------------------------
 BYTE   PATT
  POIN2 Label_014DD461
//  #08 //008   ----------------------------------------
Label_014DD48C:
 BYTE   N80  Gs1  v080
 BYTE   W84
 BYTE   N11  Ds1
 BYTE   W12
 BYTE   PEND 
//  #08 //009   ----------------------------------------
Label_014DD494:
 BYTE   N80  Gs1  v080
 BYTE   W84
 BYTE   N05
 BYTE   W06
 BYTE   Ds1
 BYTE   W06
 BYTE   PEND 
//  #08 //010   ----------------------------------------
 BYTE   PATT
  POIN2 Label_014DD48C
//  #08 //011   ----------------------------------------
Label_014DD4A2:
 BYTE   N56  Gs1  v080
 BYTE   W48
 BYTE   W12
 BYTE   N11  Ds1
 BYTE   W12
 BYTE   Gs1
 BYTE   W12
 BYTE   Ds1
 BYTE   W12
 BYTE   PEND 
//  #08 //012   ----------------------------------------
 BYTE   PATT
  POIN2 Label_014DD45C
//  #08 //013   ----------------------------------------
 BYTE   PATT
  POIN2 Label_014DD461
//  #08 //014   ----------------------------------------
Label_014DD4B9:
 BYTE   N80  Cn2  v080
 BYTE   W84
 BYTE   N11  Gn1
 BYTE   W12
 BYTE   PEND 
//  #08 //015   ----------------------------------------
Label_014DD4C1:
 BYTE   N56  Cn2  v080
 BYTE   W60
 BYTE   N11  Gn1
 BYTE   W12
 BYTE   Cn2
 BYTE   W12
 BYTE   Gn1
 BYTE   W12
 BYTE   PEND 
//  #08 //016   ----------------------------------------
 BYTE   PATT
  POIN2 Label_014DD45C
//  #08 //017   ----------------------------------------
 BYTE   PATT
  POIN2 Label_014DD461
//  #08 //018   ----------------------------------------
 BYTE   PATT
  POIN2 Label_014DD45C
//  #08 //019   ----------------------------------------
 BYTE   PATT
  POIN2 Label_014DD461
//  #08 //020   ----------------------------------------
Label_014DD4E1:
 BYTE   N23  Gn1  v052
 BYTE   W24
 BYTE   N23
 BYTE   W24
 BYTE   N23
 BYTE   W24
 BYTE   N23
 BYTE   W24
 BYTE   PEND 
//  #08 //021   ----------------------------------------
Label_014DD4EC:
 BYTE   N23  Gn1  v052
 BYTE   W24
 BYTE   N23
 BYTE   W24
 BYTE   N23
 BYTE   W24
 BYTE   N11
 BYTE   W12
 BYTE   N11
 BYTE   W12
 BYTE   PEND 
//  #08 //022   ----------------------------------------
Label_014DD4F9:
 BYTE   N23  Gs1  v052
 BYTE   W24
 BYTE   N23
 BYTE   W24
 BYTE   N23
 BYTE   W24
 BYTE   N11
 BYTE   W12
 BYTE   Ds1
 BYTE   W12
 BYTE   PEND 
//  #08 //023   ----------------------------------------
Label_014DD506:
 BYTE   N11  Gs1  v052
 BYTE   W03
 BYTE   W03
 BYTE   W03
 BYTE   W03
 BYTE   Ds1
 BYTE   W03
 BYTE   W03
 BYTE   W03
 BYTE   W03
 BYTE   Gs1  v056
 BYTE   W03
 BYTE   W04
 BYTE   W03
 BYTE   W02
 BYTE   N05  Ds1  v060
 BYTE   W01
 BYTE   W03
 BYTE   W02
 BYTE   Ds1  v064
 BYTE   W01
 BYTE   W03
 BYTE   W02
 BYTE   N11  Gs1
 BYTE   W01
 BYTE   W03
 BYTE   W03
 BYTE   W03
 BYTE   W02
 BYTE   N05  Ds1  v068
 BYTE   W01
 BYTE   W04
 BYTE   W01
 BYTE   Ds1  v072
 BYTE   W02
 BYTE   W03
 BYTE   W01
 BYTE   N11  Gs1
 BYTE   W02
 BYTE   W03
 BYTE   W03
 BYTE   W03
 BYTE   W01
 BYTE   Ds1  v076
 BYTE   W02
 BYTE   W03
 BYTE   W03
 BYTE   W04
 BYTE   PEND 
//  #08 //024   ----------------------------------------
 BYTE   PATT
  POIN2 Label_014DD48C
//  #08 //025   ----------------------------------------
Label_014DD548:
 BYTE   N80  Gn1  v080
 BYTE   W84
 BYTE   N11
 BYTE   W12
 BYTE   PEND 
//  #08 //026   ----------------------------------------
 BYTE   GoTo
  POIN2 Label_014DD45C
//  #08 //027   ----------------------------------------
 BYTE   PATT
  POIN2 Label_014DD45C
//  #08 //028   ----------------------------------------
 BYTE   PATT
  POIN2 Label_014DD461
//  #08 //029   ----------------------------------------
 BYTE   PATT
  POIN2 Label_014DD45C
//  #08 //030   ----------------------------------------
 BYTE   PATT
  POIN2 Label_014DD46C
//  #08 //031   ----------------------------------------
 BYTE   PATT
  POIN2 Label_014DD474
//  #08 //032   ----------------------------------------
 BYTE   PATT
  POIN2 Label_014DD479
//  #08 //033   ----------------------------------------
 BYTE   PATT
  POIN2 Label_014DD474
//  #08 //034   ----------------------------------------
 BYTE   PATT
  POIN2 Label_014DD461
//  #08 //035   ----------------------------------------
 BYTE   PATT
  POIN2 Label_014DD48C
//  #08 //036   ----------------------------------------
 BYTE   PATT
  POIN2 Label_014DD494
//  #08 //037   ----------------------------------------
 BYTE   PATT
  POIN2 Label_014DD48C
//  #08 //038   ----------------------------------------
 BYTE   PATT
  POIN2 Label_014DD4A2
//  #08 //039   ----------------------------------------
 BYTE   PATT
  POIN2 Label_014DD45C
//  #08 //040   ----------------------------------------
 BYTE   PATT
  POIN2 Label_014DD461
//  #08 //041   ----------------------------------------
 BYTE   PATT
  POIN2 Label_014DD4B9
//  #08 //042   ----------------------------------------
 BYTE   PATT
  POIN2 Label_014DD4C1
//  #08 //043   ----------------------------------------
 BYTE   PATT
  POIN2 Label_014DD45C
//  #08 //044   ----------------------------------------
 BYTE   PATT
  POIN2 Label_014DD461
//  #08 //045   ----------------------------------------
 BYTE   PATT
  POIN2 Label_014DD45C
//  #08 //046   ----------------------------------------
 BYTE   PATT
  POIN2 Label_014DD461
//  #08 //047   ----------------------------------------
 BYTE   PATT
  POIN2 Label_014DD4E1
//  #08 //048   ----------------------------------------
 BYTE   PATT
  POIN2 Label_014DD4EC
//  #08 //049   ----------------------------------------
 BYTE   PATT
  POIN2 Label_014DD4F9
//  #08 //050   ----------------------------------------
 BYTE   PATT
  POIN2 Label_014DD506
//  #08 //051   ----------------------------------------
 BYTE   PATT
  POIN2 Label_014DD48C
//  #08 //052   ----------------------------------------
 BYTE   PATT
  POIN2 Label_014DD548
//  #08 //053   ----------------------------------------
 BYTE   PATT
  POIN2 Label_014DD4C1
//  #08 //054   ----------------------------------------
 BYTE   N92  Cn2  v080
 BYTE   W92
 BYTE   W03
 BYTE   FINE

//******************************************************//
	ALIGN 4

EncountersReunions:
	BYTE	8	// NumTrks
	BYTE	0	// NumBlks
	BYTE	EncountersReunions_pri	// Priority
	BYTE	EncountersReunions_rev	// Reverb.
    
	POIN2	EncountersReunions_grp
    
	POIN2	EncountersReunions_001
	POIN2	EncountersReunions_002
	POIN2	EncountersReunions_003
	POIN2	EncountersReunions_004
	POIN2	EncountersReunions_005
	POIN2	EncountersReunions_006
	POIN2	EncountersReunions_007
	POIN2	EncountersReunions_008

	
