	.include "MPlayDef.s"

	.equ	song2F_grp, voicegroup000
	.equ	song2F_pri, 0
	.equ	song2F_rev, 0
	.equ	song2F_mvl, 127
	.equ	song2F_key, 0
	.equ	song2F_tbs, 1
	.equ	song2F_exg, 0
	.equ	song2F_cmp, 1

	.section .rodata
	.global	song2F
	.align	2


@**************** Track 1 (Midi-Chn.0) ****************@

song2F_001:
@  #01 @000   ----------------------------------------
 .byte   KEYSH , song2F_key+0
 .byte   TEMPO , 118*song2F_tbs/2
 .byte   VOICE , 41
 .byte   VOL , 62*song2F_mvl/mxv
 .byte   PAN , c_v+0
 .byte   W12
Label_014DD303:
 .byte   N92 ,En3 ,v052
 .byte   W96
@  #01 @001   ----------------------------------------
Label_014DD307:
 .byte   N92 ,Fs3 ,v052
 .byte   W96
 .byte   PEND 
@  #01 @002   ----------------------------------------
 .byte   En3
 .byte   W96
@  #01 @003   ----------------------------------------
 .byte   PATT
  .word Label_014DD307
@  #01 @004   ----------------------------------------
Label_014DD313:
 .byte   N92 ,An3 ,v052
 .byte   W96
 .byte   PEND 
@  #01 @005   ----------------------------------------
Label_014DD318:
 .byte   N92 ,Bn3 ,v052
 .byte   W96
 .byte   PEND 
@  #01 @006   ----------------------------------------
 .byte   PATT
  .word Label_014DD313
@  #01 @007   ----------------------------------------
 .byte   PATT
  .word Label_014DD318
@  #01 @008   ----------------------------------------
Label_014DD327:
 .byte   N92 ,Cn4 ,v052
 .byte   W96
 .byte   PEND 
@  #01 @009   ----------------------------------------
Label_014DD32C:
 .byte   N92 ,Dn4 ,v052
 .byte   W96
 .byte   PEND 
@  #01 @010   ----------------------------------------
 .byte   PATT
  .word Label_014DD327
@  #01 @011   ----------------------------------------
 .byte   PATT
  .word Label_014DD32C
@  #01 @012   ----------------------------------------
 .byte   W96
@  #01 @013   ----------------------------------------
 .byte   W96
@  #01 @014   ----------------------------------------
 .byte   W96
@  #01 @015   ----------------------------------------
 .byte   W96
@  #01 @016   ----------------------------------------
 .byte   W96
@  #01 @017   ----------------------------------------
 .byte   W96
@  #01 @018   ----------------------------------------
 .byte   W96
@  #01 @019   ----------------------------------------
 .byte   W96
@  #01 @020   ----------------------------------------
Label_014DD343:
 .byte   N92 ,An3 ,v052
 .byte   W24
 .byte   W01
 .byte   W24
 .byte   W02
 .byte   W24
 .byte   W01
 .byte   W20
 .byte   PEND 
@  #01 @021   ----------------------------------------
Label_014DD34E:
 .byte   N92 ,Bn3 ,v052
 .byte   W06
 .byte   W24
 .byte   W02
 .byte   W24
 .byte   W01
 .byte   W24
 .byte   W02
 .byte   W13
 .byte   PEND 
@  #01 @022   ----------------------------------------
Label_014DD35A:
 .byte   N92 ,Cn4 ,v056
 .byte   W12
 .byte   W24
 .byte   W02
 .byte   W24
 .byte   W02
 .byte   W24
 .byte   W01
 .byte   W07
 .byte   PEND 
@  #01 @023   ----------------------------------------
Label_014DD366:
 .byte   N92 ,Dn4 ,v060
 .byte   W19
 .byte   W24
 .byte   W01
 .byte   W24
 .byte   W02
 .byte   W24
 .byte   W02
 .byte   PEND 
@  #01 @024   ----------------------------------------
 .byte   W96
@  #01 @025   ----------------------------------------
 .byte   W92
 .byte   W03
 .byte   TEMPO , 118*song2F_tbs/2
 .byte   W01
@  #01 @026   ----------------------------------------
 .byte   GOTO
  .word Label_014DD303
@  #01 @027   ----------------------------------------
 .byte   N92 ,En3 ,v052
 .byte   W96
@  #01 @028   ----------------------------------------
 .byte   PATT
  .word Label_014DD307
@  #01 @029   ----------------------------------------
 .byte   N92 ,En3 ,v052
 .byte   W96
@  #01 @030   ----------------------------------------
 .byte   PATT
  .word Label_014DD307
@  #01 @031   ----------------------------------------
 .byte   PATT
  .word Label_014DD313
@  #01 @032   ----------------------------------------
 .byte   PATT
  .word Label_014DD318
@  #01 @033   ----------------------------------------
 .byte   PATT
  .word Label_014DD313
@  #01 @034   ----------------------------------------
 .byte   PATT
  .word Label_014DD318
@  #01 @035   ----------------------------------------
 .byte   PATT
  .word Label_014DD327
@  #01 @036   ----------------------------------------
 .byte   PATT
  .word Label_014DD32C
@  #01 @037   ----------------------------------------
 .byte   PATT
  .word Label_014DD327
@  #01 @038   ----------------------------------------
 .byte   PATT
  .word Label_014DD32C
@  #01 @039   ----------------------------------------
 .byte   W96
@  #01 @040   ----------------------------------------
 .byte   W96
@  #01 @041   ----------------------------------------
 .byte   W96
@  #01 @042   ----------------------------------------
 .byte   W96
@  #01 @043   ----------------------------------------
 .byte   W96
@  #01 @044   ----------------------------------------
 .byte   W96
@  #01 @045   ----------------------------------------
 .byte   W96
@  #01 @046   ----------------------------------------
 .byte   W96
@  #01 @047   ----------------------------------------
 .byte   PATT
  .word Label_014DD343
@  #01 @048   ----------------------------------------
 .byte   PATT
  .word Label_014DD34E
@  #01 @049   ----------------------------------------
 .byte   PATT
  .word Label_014DD35A
@  #01 @050   ----------------------------------------
 .byte   PATT
  .word Label_014DD366
@  #01 @051   ----------------------------------------
 .byte   TEMPO , 118*song2F_tbs/2
 .byte   W96
@  #01 @052   ----------------------------------------
 .byte   W24
 .byte   TEMPO , 116*song2F_tbs/2
 .byte   W24
 .byte   TEMPO , 116*song2F_tbs/2
 .byte   W12
 .byte   TEMPO , 116*song2F_tbs/2
 .byte   W06
 .byte   TEMPO , 116*song2F_tbs/2
 .byte   W12
 .byte   TEMPO , 116*song2F_tbs/2
 .byte   W06
 .byte   TEMPO , 116*song2F_tbs/2
 .byte   W03
 .byte   TEMPO , 116*song2F_tbs/2
 .byte   W06
 .byte   TEMPO , 116*song2F_tbs/2
 .byte   W03
@  #01 @053   ----------------------------------------
 .byte   TEMPO , 116*song2F_tbs/2
 .byte   W12
 .byte   TEMPO , 116*song2F_tbs/2
 .byte   W12
 .byte   TEMPO , 116*song2F_tbs/2
 .byte   W24
 .byte   TEMPO , 114*song2F_tbs/2
 .byte   W12
 .byte   TEMPO , 114*song2F_tbs/2
 .byte   W06
 .byte   TEMPO , 112*song2F_tbs/2
 .byte   W06
 .byte   TEMPO , 112*song2F_tbs/2
 .byte   W12
 .byte   TEMPO , 110*song2F_tbs/2
 .byte   W12
@  #01 @054   ----------------------------------------
 .byte   TEMPO , 108*song2F_tbs/2
 .byte   W24
 .byte   TEMPO , 104*song2F_tbs/2
 .byte   W24
 .byte   TEMPO , 98*song2F_tbs/2
 .byte   W44
 .byte   W03
 .byte   FINE

@**************** Track 2 (Midi-Chn.1) ****************@

song2F_002:
@  #02 @000   ----------------------------------------
 .byte   KEYSH , song2F_key+0
 .byte   VOICE , 62
 .byte   VOL , 62*song2F_mvl/mxv
 .byte   PAN , c_v+0
 .byte   W12
Label_56AB25:
 .byte   N92 ,Gn2 ,v052
 .byte   W96
 .byte   PEND 
@  #02 @001   ----------------------------------------
Label_56AB2A:
 .byte   N92 ,An2 ,v052
 .byte   W96
 .byte   PEND 
@  #02 @002   ----------------------------------------
 .byte   PATT
  .word Label_56AB25
@  #02 @003   ----------------------------------------
 .byte   PATT
  .word Label_56AB2A
@  #02 @004   ----------------------------------------
Label_56AB39:
 .byte   N92 ,Cn3 ,v052
 .byte   W96
 .byte   PEND 
@  #02 @005   ----------------------------------------
Label_56AB3E:
 .byte   N92 ,Dn3 ,v052
 .byte   W96
 .byte   PEND 
@  #02 @006   ----------------------------------------
 .byte   PATT
  .word Label_56AB39
@  #02 @007   ----------------------------------------
 .byte   PATT
  .word Label_56AB3E
@  #02 @008   ----------------------------------------
Label_56AB4D:
 .byte   N92 ,Ds3 ,v052
 .byte   W24
 .byte   W01
 .byte   W24
 .byte   W02
 .byte   W24
 .byte   W01
 .byte   W20
 .byte   PEND 
@  #02 @009   ----------------------------------------
Label_56AB58:
 .byte   N92 ,Fn3 ,v052
 .byte   W06
 .byte   W24
 .byte   W02
 .byte   W24
 .byte   W01
 .byte   W24
 .byte   W02
 .byte   W13
 .byte   PEND 
@  #02 @010   ----------------------------------------
Label_56AB64:
 .byte   N92 ,Ds3 ,v056
 .byte   W12
 .byte   W24
 .byte   W02
 .byte   W24
 .byte   W02
 .byte   W24
 .byte   W01
 .byte   W07
 .byte   PEND 
@  #02 @011   ----------------------------------------
Label_56AB70:
 .byte   N92 ,Fn3 ,v060
 .byte   W19
 .byte   W24
 .byte   W01
 .byte   W24
 .byte   W02
 .byte   W24
 .byte   W02
 .byte   PEND 
@  #02 @012   ----------------------------------------
 .byte   W96
@  #02 @013   ----------------------------------------
 .byte   W96
@  #02 @014   ----------------------------------------
 .byte   W96
@  #02 @015   ----------------------------------------
 .byte   W96
@  #02 @016   ----------------------------------------
 .byte   W96
@  #02 @017   ----------------------------------------
 .byte   W96
@  #02 @018   ----------------------------------------
 .byte   W96
@  #02 @019   ----------------------------------------
 .byte   W96
@  #02 @020   ----------------------------------------
Label_56AB83:
 .byte   N92 ,Cn3 ,v064
 .byte   W96
 .byte   PEND 
@  #02 @021   ----------------------------------------
Label_56AB88:
 .byte   N92 ,Dn3 ,v064
 .byte   W96
 .byte   PEND 
@  #02 @022   ----------------------------------------
Label_56AB8D:
 .byte   N92 ,Ds3 ,v064
 .byte   W96
 .byte   PEND 
@  #02 @023   ----------------------------------------
Label_56AB92:
 .byte   N92 ,Fn3 ,v064
 .byte   W96
 .byte   PEND 
@  #02 @024   ----------------------------------------
 .byte   W96
@  #02 @025   ----------------------------------------
 .byte   W96
@  #02 @026   ----------------------------------------
 .byte   GOTO
  .word Label_56AB25
@  #02 @027   ----------------------------------------
 .byte   PATT
  .word Label_56AB25
@  #02 @028   ----------------------------------------
 .byte   PATT
  .word Label_56AB2A
@  #02 @029   ----------------------------------------
 .byte   PATT
  .word Label_56AB25
@  #02 @030   ----------------------------------------
 .byte   PATT
  .word Label_56AB2A
@  #02 @031   ----------------------------------------
 .byte   PATT
  .word Label_56AB39
@  #02 @032   ----------------------------------------
 .byte   PATT
  .word Label_56AB3E
@  #02 @033   ----------------------------------------
 .byte   PATT
  .word Label_56AB39
@  #02 @034   ----------------------------------------
 .byte   PATT
  .word Label_56AB3E
@  #02 @035   ----------------------------------------
 .byte   PATT
  .word Label_56AB4D
@  #02 @036   ----------------------------------------
 .byte   PATT
  .word Label_56AB58
@  #02 @037   ----------------------------------------
 .byte   PATT
  .word Label_56AB64
@  #02 @038   ----------------------------------------
 .byte   PATT
  .word Label_56AB70
@  #02 @039   ----------------------------------------
 .byte   W96
@  #02 @040   ----------------------------------------
 .byte   W96
@  #02 @041   ----------------------------------------
 .byte   W96
@  #02 @042   ----------------------------------------
 .byte   W96
@  #02 @043   ----------------------------------------
 .byte   W96
@  #02 @044   ----------------------------------------
 .byte   W96
@  #02 @045   ----------------------------------------
 .byte   W96
@  #02 @046   ----------------------------------------
 .byte   W96
@  #02 @047   ----------------------------------------
 .byte   PATT
  .word Label_56AB83
@  #02 @048   ----------------------------------------
 .byte   PATT
  .word Label_56AB88
@  #02 @049   ----------------------------------------
 .byte   PATT
  .word Label_56AB8D
@  #02 @050   ----------------------------------------
 .byte   PATT
  .word Label_56AB92
@  #02 @051   ----------------------------------------
 .byte   N11 ,Ds3 ,v064
 .byte   W24
 .byte   N56
 .byte   W48
 .byte   W12
 .byte   N11
 .byte   W12
@  #02 @052   ----------------------------------------
 .byte   N44 ,Dn3
 .byte   W48
 .byte   Fn3
 .byte   W48
@  #02 @053   ----------------------------------------
 .byte   PATT
  .word Label_56AB92
@  #02 @054   ----------------------------------------
 .byte   N92 ,En3 ,v064
 .byte   W92
 .byte   W03
 .byte   FINE

@**************** Track 3 (Midi-Chn.2) ****************@

song2F_003:
@  #03 @000   ----------------------------------------
 .byte   KEYSH , song2F_key+0
 .byte   VOICE , 60
 .byte   VOL , 62*song2F_mvl/mxv
 .byte   PAN , c_v+0
 .byte   W12
Label_014DD009:
 .byte   TIE ,Cn1 ,v080
 .byte   W96
 .byte   PEND 
@  #03 @001   ----------------------------------------
Label_014DD00E:
 .byte   W92
 .byte   W03
 .byte   PEND 
 .byte   EOT
 .byte   Cn1
 .byte   W01
@  #03 @002   ----------------------------------------
 .byte   PATT
  .word Label_014DD009
@  #03 @003   ----------------------------------------
 .byte   PATT
  .word Label_014DD00E
@  #03 @004   ----------------------------------------
 .byte   EOT
 .byte   Cn1
 .byte   W01
Label_014DD021:
 .byte   N92 ,Fn1 ,v080
 .byte   W96
 .byte   PEND 
@  #03 @005   ----------------------------------------
 .byte   PATT
  .word Label_014DD021
@  #03 @006   ----------------------------------------
Label_014DD02B:
 .byte   TIE ,Fn1 ,v080
 .byte   W96
 .byte   PEND 
@  #03 @007   ----------------------------------------
Label_014DD030:
 .byte   W68
 .byte   W03
 .byte   PEND 
 .byte   EOT
 .byte   Fn1
 .byte   W01
 .byte   N23 ,Gn1 ,v080
 .byte   W24
@  #03 @008   ----------------------------------------
Label_014DD03A:
 .byte   N92 ,Gs1 ,v080
 .byte   W96
 .byte   PEND 
@  #03 @009   ----------------------------------------
 .byte   PATT
  .word Label_014DD03A
@  #03 @010   ----------------------------------------
 .byte   PATT
  .word Label_014DD03A
@  #03 @011   ----------------------------------------
 .byte   PATT
  .word Label_014DD03A
@  #03 @012   ----------------------------------------
Label_014DD04E:
 .byte   N92 ,Cn2 ,v096
 .byte   W96
 .byte   PEND 
@  #03 @013   ----------------------------------------
Label_014DD053:
 .byte   N92 ,Cn1 ,v096
 .byte   W96
 .byte   PEND 
@  #03 @014   ----------------------------------------
 .byte   PATT
  .word Label_014DD053
@  #03 @015   ----------------------------------------
 .byte   PATT
  .word Label_014DD053
@  #03 @016   ----------------------------------------
Label_014DD062:
 .byte   N23 ,Cn2 ,v064
 .byte   W24
 .byte   N23
 .byte   W24
 .byte   N23
 .byte   W24
 .byte   N23
 .byte   W24
 .byte   PEND 
@  #03 @017   ----------------------------------------
Label_014DD06D:
 .byte   N23 ,Cn2 ,v064
 .byte   W24
 .byte   N23
 .byte   W24
 .byte   N23
 .byte   W24
 .byte   N23
 .byte   W24
 .byte   PEND 
@  #03 @018   ----------------------------------------
 .byte   PATT
  .word Label_014DD062
@  #03 @019   ----------------------------------------
 .byte   PATT
  .word Label_014DD06D
@  #03 @020   ----------------------------------------
Label_014DD082:
 .byte   N23 ,Fn1 ,v080
 .byte   W24
 .byte   N23
 .byte   W24
 .byte   N23
 .byte   W24
 .byte   N23
 .byte   W24
 .byte   PEND 
@  #03 @021   ----------------------------------------
Label_014DD08D:
 .byte   N23 ,Fn1 ,v080
 .byte   W24
 .byte   N23
 .byte   W24
 .byte   N23
 .byte   W24
 .byte   N11
 .byte   W12
 .byte   Gn1
 .byte   W12
 .byte   PEND 
@  #03 @022   ----------------------------------------
Label_014DD09A:
 .byte   N23 ,Gs1 ,v080
 .byte   W24
 .byte   N23
 .byte   W24
 .byte   N23
 .byte   W24
 .byte   N23
 .byte   W24
 .byte   PEND 
@  #03 @023   ----------------------------------------
Label_014DD0A5:
 .byte   N23 ,As1 ,v080
 .byte   W24
 .byte   N23
 .byte   W24
 .byte   N23
 .byte   W24
 .byte   N23
 .byte   W24
 .byte   PEND 
@  #03 @024   ----------------------------------------
Label_014DD0B0:
 .byte   N11 ,Gs1 ,v064
 .byte   W24
 .byte   N56
 .byte   W48
 .byte   W12
 .byte   N11
 .byte   W12
 .byte   PEND 
@  #03 @025   ----------------------------------------
Label_014DD0BA:
 .byte   N44 ,Gn1 ,v064
 .byte   W48
 .byte   N44
 .byte   W48
 .byte   PEND 
@  #03 @026   ----------------------------------------
 .byte   GOTO
  .word Label_014DD009
@  #03 @027   ----------------------------------------
 .byte   PATT
  .word Label_014DD009
@  #03 @028   ----------------------------------------
 .byte   PATT
  .word Label_014DD00E
@  #03 @029   ----------------------------------------
 .byte   EOT
 .byte   Cn1
 .byte   W01
@  #03 @030   ----------------------------------------
 .byte   PATT
  .word Label_014DD009
@  #03 @031   ----------------------------------------
 .byte   PATT
  .word Label_014DD00E
@  #03 @032   ----------------------------------------
 .byte   EOT
 .byte   Cn1
 .byte   W01
@  #03 @033   ----------------------------------------
 .byte   PATT
  .word Label_014DD021
@  #03 @034   ----------------------------------------
 .byte   PATT
  .word Label_014DD021
@  #03 @035   ----------------------------------------
 .byte   PATT
  .word Label_014DD02B
@  #03 @036   ----------------------------------------
 .byte   PATT
  .word Label_014DD030
@  #03 @037   ----------------------------------------
 .byte   EOT
 .byte   Fn1
 .byte   W01
 .byte   N23 ,Gn1 ,v080
 .byte   W24
@  #03 @038   ----------------------------------------
 .byte   PATT
  .word Label_014DD03A
@  #03 @039   ----------------------------------------
 .byte   PATT
  .word Label_014DD03A
@  #03 @040   ----------------------------------------
 .byte   PATT
  .word Label_014DD03A
@  #03 @041   ----------------------------------------
 .byte   PATT
  .word Label_014DD03A
@  #03 @042   ----------------------------------------
 .byte   PATT
  .word Label_014DD04E
@  #03 @043   ----------------------------------------
 .byte   PATT
  .word Label_014DD053
@  #03 @044   ----------------------------------------
 .byte   PATT
  .word Label_014DD053
@  #03 @045   ----------------------------------------
 .byte   PATT
  .word Label_014DD053
@  #03 @046   ----------------------------------------
 .byte   PATT
  .word Label_014DD062
@  #03 @047   ----------------------------------------
 .byte   PATT
  .word Label_014DD06D
@  #03 @048   ----------------------------------------
 .byte   PATT
  .word Label_014DD062
@  #03 @049   ----------------------------------------
 .byte   PATT
  .word Label_014DD06D
@  #03 @050   ----------------------------------------
 .byte   PATT
  .word Label_014DD082
@  #03 @051   ----------------------------------------
 .byte   PATT
  .word Label_014DD08D
@  #03 @052   ----------------------------------------
 .byte   PATT
  .word Label_014DD09A
@  #03 @053   ----------------------------------------
 .byte   PATT
  .word Label_014DD0A5
@  #03 @054   ----------------------------------------
 .byte   PATT
  .word Label_014DD0B0
@  #03 @055   ----------------------------------------
 .byte   PATT
  .word Label_014DD0BA
@  #03 @056   ----------------------------------------
 .byte   TIE ,Cn1 ,v064
 .byte   W96
@  #03 @057   ----------------------------------------
 .byte   W92
 .byte   W03
 .byte   EOT
 .byte   FINE

@**************** Track 4 (Midi-Chn.3) ****************@

song2F_004:
@  #04 @000   ----------------------------------------
 .byte   KEYSH , song2F_key+0
 .byte   VOICE , 40
 .byte   VOL , 62*song2F_mvl/mxv
 .byte   PAN , c_v+0
 .byte   W12
Label_014DD175:
 .byte   N80 ,Cn4 ,v080
 .byte   W84
@  #04 @001   ----------------------------------------
 .byte   N05 ,Gn3
 .byte   W06
 .byte   Cn4
 .byte   W06
 .byte   PEND 
Label_014DD17F:
 .byte   N76 ,Dn4 ,v080
 .byte   W78
 .byte   N05 ,Gn3
 .byte   W06
@  #04 @002   ----------------------------------------
 .byte   Cn4
 .byte   W06
 .byte   Dn4
 .byte   W06
 .byte   PEND 
Label_014DD18B:
 .byte   N80 ,En4 ,v080
 .byte   W84
@  #04 @003   ----------------------------------------
 .byte   N05 ,Cn4
 .byte   W06
 .byte   Dn4
 .byte   W06
 .byte   PEND 
Label_014DD195:
 .byte   N44 ,En4 ,v080
 .byte   W48
 .byte   Dn4
 .byte   W48
 .byte   PEND 
@  #04 @004   ----------------------------------------
Label_014DD19C:
 .byte   N80 ,Fn4 ,v080
 .byte   W84
 .byte   N11 ,Cn4
 .byte   W12
 .byte   PEND 
@  #04 @005   ----------------------------------------
Label_014DD1A4:
 .byte   N80 ,Gn4 ,v080
 .byte   W84
 .byte   N05 ,Fn4
 .byte   W06
 .byte   Cn4
 .byte   W06
 .byte   PEND 
@  #04 @006   ----------------------------------------
Label_014DD1AE:
 .byte   N80 ,Fn4 ,v080
 .byte   W84
 .byte   N05 ,Cn4
 .byte   W06
 .byte   Fn4
 .byte   W06
 .byte   PEND 
@  #04 @007   ----------------------------------------
Label_014DD1B8:
 .byte   N44 ,Gn4 ,v080
 .byte   W48
 .byte   N23 ,Dn4
 .byte   W24
 .byte   En4
 .byte   W24
 .byte   PEND 
@  #04 @008   ----------------------------------------
Label_014DD1C2:
 .byte   N44 ,Fn4 ,v080
 .byte   W24
 .byte   W24
 .byte   N32 ,Cn4 ,v084
 .byte   W24
 .byte   W12
 .byte   N11 ,Dn4
 .byte   W12
 .byte   PEND 
@  #04 @009   ----------------------------------------
Label_014DD1D0:
 .byte   N44 ,Ds4 ,v084
 .byte   W24
 .byte   W24
 .byte   Dn4 ,v088
 .byte   W24
 .byte   W24
 .byte   PEND 
@  #04 @010   ----------------------------------------
Label_014DD1DA:
 .byte   N80 ,Fn4 ,v088
 .byte   W24
 .byte   W24
 .byte   W24
 .byte   W12
 .byte   N05 ,Cn4 ,v092
 .byte   W06
 .byte   Fn4
 .byte   W06
 .byte   PEND 
@  #04 @011   ----------------------------------------
Label_014DD1E8:
 .byte   N76 ,Gn4 ,v092
 .byte   W24
 .byte   W24
 .byte   W24
 .byte   W06
 .byte   N05 ,Gn3 ,v096
 .byte   W06
 .byte   Cn4
 .byte   W06
 .byte   Dn4
 .byte   W06
 .byte   PEND 
@  #04 @012   ----------------------------------------
Label_014DD1F8:
 .byte   N80 ,En4 ,v096
 .byte   W84
 .byte   N05 ,Dn4
 .byte   W06
 .byte   En4
 .byte   W06
 .byte   PEND 
@  #04 @013   ----------------------------------------
Label_014DD202:
 .byte   N80 ,Fn4 ,v096
 .byte   W84
 .byte   N05 ,En4
 .byte   W06
 .byte   Dn4
 .byte   W06
 .byte   PEND 
@  #04 @014   ----------------------------------------
Label_014DD20C:
 .byte   N05 ,Dn4 ,v096
 .byte   W06
 .byte   En4
 .byte   W06
 .byte   TIE
 .byte   W84
 .byte   PEND 
@  #04 @015   ----------------------------------------
Label_014DD215:
 .byte   W92
 .byte   W03
 .byte   PEND 
 .byte   EOT
 .byte   En4
 .byte   W01
@  #04 @016   ----------------------------------------
Label_014DD21B:
 .byte   N32 ,Gn3 ,v064
 .byte   W36
 .byte   N05 ,En3
 .byte   W06
 .byte   Gn3
 .byte   W06
 .byte   N44 ,Cn4
 .byte   W48
 .byte   PEND 
@  #04 @017   ----------------------------------------
Label_014DD228:
 .byte   N32 ,As3 ,v064
 .byte   W36
 .byte   N03 ,An3
 .byte   W04
 .byte   As3
 .byte   W04
 .byte   An3
 .byte   W04
 .byte   N44 ,Gn3
 .byte   W48
 .byte   PEND 
@  #04 @018   ----------------------------------------
 .byte   PATT
  .word Label_014DD21B
@  #04 @019   ----------------------------------------
Label_014DD23C:
 .byte   N08 ,As3 ,v064
 .byte   W18
 .byte   N05 ,An3
 .byte   W06
 .byte   N68 ,Gn3
 .byte   W24
 .byte   W48
 .byte   PEND 
@  #04 @020   ----------------------------------------
 .byte   W96
@  #04 @021   ----------------------------------------
 .byte   W96
@  #04 @022   ----------------------------------------
 .byte   W96
@  #04 @023   ----------------------------------------
 .byte   W96
@  #04 @024   ----------------------------------------
Label_014DD24C:
 .byte   N11 ,Cn4 ,v080
 .byte   W24
 .byte   N56
 .byte   W48
 .byte   W12
 .byte   N11
 .byte   W12
 .byte   PEND 
@  #04 @025   ----------------------------------------
 .byte   N44
 .byte   W48
 .byte   Dn4
 .byte   W48
@  #04 @026   ----------------------------------------
 .byte   GOTO
  .word Label_014DD175
@  #04 @027   ----------------------------------------
 .byte   PATT
  .word Label_014DD175
@  #04 @028   ----------------------------------------
 .byte   PATT
  .word Label_014DD17F
@  #04 @029   ----------------------------------------
 .byte   PATT
  .word Label_014DD18B
@  #04 @030   ----------------------------------------
 .byte   PATT
  .word Label_014DD195
@  #04 @031   ----------------------------------------
 .byte   PATT
  .word Label_014DD19C
@  #04 @032   ----------------------------------------
 .byte   PATT
  .word Label_014DD1A4
@  #04 @033   ----------------------------------------
 .byte   PATT
  .word Label_014DD1AE
@  #04 @034   ----------------------------------------
 .byte   PATT
  .word Label_014DD1B8
@  #04 @035   ----------------------------------------
 .byte   PATT
  .word Label_014DD1C2
@  #04 @036   ----------------------------------------
 .byte   PATT
  .word Label_014DD1D0
@  #04 @037   ----------------------------------------
 .byte   PATT
  .word Label_014DD1DA
@  #04 @038   ----------------------------------------
 .byte   PATT
  .word Label_014DD1E8
@  #04 @039   ----------------------------------------
 .byte   PATT
  .word Label_014DD1F8
@  #04 @040   ----------------------------------------
 .byte   PATT
  .word Label_014DD202
@  #04 @041   ----------------------------------------
 .byte   PATT
  .word Label_014DD20C
@  #04 @042   ----------------------------------------
 .byte   PATT
  .word Label_014DD215
@  #04 @043   ----------------------------------------
 .byte   EOT
 .byte   En4
 .byte   W01
@  #04 @044   ----------------------------------------
 .byte   PATT
  .word Label_014DD21B
@  #04 @045   ----------------------------------------
 .byte   PATT
  .word Label_014DD228
@  #04 @046   ----------------------------------------
 .byte   PATT
  .word Label_014DD21B
@  #04 @047   ----------------------------------------
 .byte   PATT
  .word Label_014DD23C
@  #04 @048   ----------------------------------------
 .byte   W96
@  #04 @049   ----------------------------------------
 .byte   W96
@  #04 @050   ----------------------------------------
 .byte   W96
@  #04 @051   ----------------------------------------
 .byte   W96
@  #04 @052   ----------------------------------------
 .byte   PATT
  .word Label_014DD24C
@  #04 @053   ----------------------------------------
 .byte   N44 ,Cn4 ,v080
 .byte   W48
 .byte   Bn3
 .byte   W48
@  #04 @054   ----------------------------------------
 .byte   TIE ,Cn4
 .byte   W96
@  #04 @055   ----------------------------------------
 .byte   W92
 .byte   W03
 .byte   EOT
 .byte   FINE

@**************** Track 5 (Midi-Chn.4) ****************@

song2F_005:
@  #05 @000   ----------------------------------------
 .byte   KEYSH , song2F_key+0
 .byte   VOICE , 40
 .byte   VOL , 62*song2F_mvl/mxv
 .byte   PAN , c_v+0
 .byte   W12
Label_56A579:
 .byte   W96
@  #05 @001   ----------------------------------------
 .byte   W96
@  #05 @002   ----------------------------------------
 .byte   W96
@  #05 @003   ----------------------------------------
 .byte   W96
@  #05 @004   ----------------------------------------
 .byte   W96
@  #05 @005   ----------------------------------------
 .byte   W96
@  #05 @006   ----------------------------------------
 .byte   W96
@  #05 @007   ----------------------------------------
 .byte   W96
@  #05 @008   ----------------------------------------
 .byte   W96
@  #05 @009   ----------------------------------------
 .byte   W96
@  #05 @010   ----------------------------------------
 .byte   W96
@  #05 @011   ----------------------------------------
 .byte   W96
@  #05 @012   ----------------------------------------
Label_56A585:
 .byte   N92 ,Cn3 ,v064
 .byte   W96
 .byte   PEND 
@  #05 @013   ----------------------------------------
 .byte   PATT
  .word Label_56A585
@  #05 @014   ----------------------------------------
Label_56A58F:
 .byte   TIE ,Cn3 ,v064
 .byte   W96
 .byte   PEND 
@  #05 @015   ----------------------------------------
Label_56A594:
 .byte   W92
 .byte   W03
 .byte   PEND 
 .byte   EOT
 .byte   Cn3
 .byte   W01
@  #05 @016   ----------------------------------------
Label_56A59A:
 .byte   N44 ,En2 ,v064
 .byte   W48
 .byte   Gn2
 .byte   W48
 .byte   PEND 
@  #05 @017   ----------------------------------------
Label_56A5A1:
 .byte   N44 ,Fn2 ,v064
 .byte   W48
 .byte   N44
 .byte   W48
 .byte   PEND 
@  #05 @018   ----------------------------------------
 .byte   PATT
  .word Label_56A59A
@  #05 @019   ----------------------------------------
Label_56A5AD:
 .byte   N08 ,Gn2 ,v064
 .byte   W18
 .byte   N05 ,Fn2
 .byte   W06
 .byte   N68 ,En2
 .byte   W24
 .byte   W48
 .byte   PEND 
@  #05 @020   ----------------------------------------
 .byte   W96
@  #05 @021   ----------------------------------------
 .byte   W96
@  #05 @022   ----------------------------------------
 .byte   W96
@  #05 @023   ----------------------------------------
 .byte   W96
@  #05 @024   ----------------------------------------
Label_56A5BD:
 .byte   N11 ,Gs2 ,v064
 .byte   W24
 .byte   N56
 .byte   W48
 .byte   W12
 .byte   N11
 .byte   W12
 .byte   PEND 
@  #05 @025   ----------------------------------------
Label_56A5C7:
 .byte   N44 ,Gn2 ,v064
 .byte   W48
 .byte   Bn2
 .byte   W48
 .byte   PEND 
@  #05 @026   ----------------------------------------
 .byte   GOTO
  .word Label_56A579
@  #05 @027   ----------------------------------------
 .byte   W96
@  #05 @028   ----------------------------------------
 .byte   W96
@  #05 @029   ----------------------------------------
 .byte   W96
@  #05 @030   ----------------------------------------
 .byte   W96
@  #05 @031   ----------------------------------------
 .byte   W96
@  #05 @032   ----------------------------------------
 .byte   W96
@  #05 @033   ----------------------------------------
 .byte   W96
@  #05 @034   ----------------------------------------
 .byte   W96
@  #05 @035   ----------------------------------------
 .byte   W96
@  #05 @036   ----------------------------------------
 .byte   W96
@  #05 @037   ----------------------------------------
 .byte   W96
@  #05 @038   ----------------------------------------
 .byte   W96
@  #05 @039   ----------------------------------------
 .byte   PATT
  .word Label_56A585
@  #05 @040   ----------------------------------------
 .byte   PATT
  .word Label_56A585
@  #05 @041   ----------------------------------------
 .byte   PATT
  .word Label_56A58F
@  #05 @042   ----------------------------------------
 .byte   PATT
  .word Label_56A594
@  #05 @043   ----------------------------------------
 .byte   EOT
 .byte   Cn3
 .byte   W01
@  #05 @044   ----------------------------------------
 .byte   PATT
  .word Label_56A59A
@  #05 @045   ----------------------------------------
 .byte   PATT
  .word Label_56A5A1
@  #05 @046   ----------------------------------------
 .byte   PATT
  .word Label_56A59A
@  #05 @047   ----------------------------------------
 .byte   PATT
  .word Label_56A5AD
@  #05 @048   ----------------------------------------
 .byte   W96
@  #05 @049   ----------------------------------------
 .byte   W96
@  #05 @050   ----------------------------------------
 .byte   W96
@  #05 @051   ----------------------------------------
 .byte   W96
@  #05 @052   ----------------------------------------
 .byte   PATT
  .word Label_56A5BD
@  #05 @053   ----------------------------------------
 .byte   PATT
  .word Label_56A5C7
@  #05 @054   ----------------------------------------
 .byte   PATT
  .word Label_56A58F
@  #05 @055   ----------------------------------------
 .byte   PATT
  .word Label_56A594
@  #05 @056   ----------------------------------------
 .byte   EOT
 .byte   Cn3
 .byte   FINE

@**************** Track 6 (Midi-Chn.5) ****************@

song2F_006:
@  #06 @000   ----------------------------------------
 .byte   KEYSH , song2F_key+0
 .byte   VOICE , 121
 .byte   VOL , 62*song2F_mvl/mxv
 .byte   PAN , c_v+0
 .byte   W12
Label_56A669:
 .byte   N11 ,Dn1 ,v080
 .byte   W12
 .byte   N11
 .byte   W48
 .byte   N05
 .byte   W06
 .byte   N05
 .byte   W06
 .byte   N03 ,Dn1 ,v052
 .byte   W04
 .byte   Dn1 ,v056
 .byte   W04
 .byte   Dn1 ,v060
 .byte   W04
@  #06 @001   ----------------------------------------
 .byte   Dn1 ,v064
 .byte   W04
 .byte   Dn1 ,v072
 .byte   W04
 .byte   Dn1 ,v076
 .byte   W04
 .byte   PEND 
Label_56A687:
 .byte   N11 ,Dn1 ,v080
 .byte   W12
 .byte   N11
 .byte   W48
 .byte   N05 ,Dn1 ,v052
 .byte   W06
 .byte   Dn1 ,v056
 .byte   W06
 .byte   Dn1 ,v060
 .byte   W06
 .byte   Dn1 ,v064
 .byte   W06
@  #06 @002   ----------------------------------------
 .byte   N02 ,Dn1 ,v072
 .byte   W03
 .byte   N02
 .byte   W03
 .byte   Dn1 ,v076
 .byte   W03
 .byte   Dn1 ,v080
 .byte   W03
 .byte   PEND 
@  #06 @003   ----------------------------------------
 .byte   PATT
  .word Label_56A669
@  #06 @004   ----------------------------------------
 .byte   PATT
  .word Label_56A687
@  #06 @005   ----------------------------------------
 .byte   PATT
  .word Label_56A669
@  #06 @006   ----------------------------------------
 .byte   PATT
  .word Label_56A687
@  #06 @007   ----------------------------------------
 .byte   PATT
  .word Label_56A669
@  #06 @008   ----------------------------------------
 .byte   PATT
  .word Label_56A687
@  #06 @009   ----------------------------------------
 .byte   PATT
  .word Label_56A669
@  #06 @010   ----------------------------------------
 .byte   PATT
  .word Label_56A687
@  #06 @011   ----------------------------------------
 .byte   PATT
  .word Label_56A669
@  #06 @012   ----------------------------------------
 .byte   PATT
  .word Label_56A687
@  #06 @013   ----------------------------------------
 .byte   PATT
  .word Label_56A669
@  #06 @014   ----------------------------------------
 .byte   PATT
  .word Label_56A687
@  #06 @015   ----------------------------------------
 .byte   PATT
  .word Label_56A669
@  #06 @016   ----------------------------------------
 .byte   PATT
  .word Label_56A687
@  #06 @017   ----------------------------------------
 .byte   PATT
  .word Label_56A669
@  #06 @018   ----------------------------------------
 .byte   PATT
  .word Label_56A687
@  #06 @019   ----------------------------------------
 .byte   PATT
  .word Label_56A669
@  #06 @020   ----------------------------------------
 .byte   PATT
  .word Label_56A687
@  #06 @021   ----------------------------------------
 .byte   N23 ,Dn1 ,v080
 .byte   W96
@  #06 @022   ----------------------------------------
 .byte   W96
@  #06 @023   ----------------------------------------
 .byte   W96
@  #06 @024   ----------------------------------------
 .byte   W96
@  #06 @025   ----------------------------------------
 .byte   PATT
  .word Label_56A669
@  #06 @026   ----------------------------------------
 .byte   PATT
  .word Label_56A687
@  #06 @027   ----------------------------------------
 .byte   GOTO
  .word Label_56A669
@  #06 @028   ----------------------------------------
 .byte   PATT
  .word Label_56A669
@  #06 @029   ----------------------------------------
 .byte   PATT
  .word Label_56A687
@  #06 @030   ----------------------------------------
 .byte   PATT
  .word Label_56A669
@  #06 @031   ----------------------------------------
 .byte   PATT
  .word Label_56A687
@  #06 @032   ----------------------------------------
 .byte   PATT
  .word Label_56A669
@  #06 @033   ----------------------------------------
 .byte   PATT
  .word Label_56A687
@  #06 @034   ----------------------------------------
 .byte   PATT
  .word Label_56A669
@  #06 @035   ----------------------------------------
 .byte   PATT
  .word Label_56A687
@  #06 @036   ----------------------------------------
 .byte   PATT
  .word Label_56A669
@  #06 @037   ----------------------------------------
 .byte   PATT
  .word Label_56A687
@  #06 @038   ----------------------------------------
 .byte   PATT
  .word Label_56A669
@  #06 @039   ----------------------------------------
 .byte   PATT
  .word Label_56A687
@  #06 @040   ----------------------------------------
 .byte   PATT
  .word Label_56A669
@  #06 @041   ----------------------------------------
 .byte   PATT
  .word Label_56A687
@  #06 @042   ----------------------------------------
 .byte   PATT
  .word Label_56A669
@  #06 @043   ----------------------------------------
 .byte   PATT
  .word Label_56A687
@  #06 @044   ----------------------------------------
 .byte   PATT
  .word Label_56A669
@  #06 @045   ----------------------------------------
 .byte   PATT
  .word Label_56A687
@  #06 @046   ----------------------------------------
 .byte   PATT
  .word Label_56A669
@  #06 @047   ----------------------------------------
 .byte   PATT
  .word Label_56A687
@  #06 @048   ----------------------------------------
 .byte   N23 ,Dn1 ,v080
 .byte   W96
@  #06 @049   ----------------------------------------
 .byte   W96
@  #06 @050   ----------------------------------------
 .byte   W96
@  #06 @051   ----------------------------------------
 .byte   W96
@  #06 @052   ----------------------------------------
 .byte   PATT
  .word Label_56A669
@  #06 @053   ----------------------------------------
 .byte   PATT
  .word Label_56A687
@  #06 @054   ----------------------------------------
 .byte   N11 ,Dn1 ,v080
 .byte   W12
 .byte   N11
 .byte   W48
 .byte   N05
 .byte   W06
 .byte   N05
 .byte   W06
 .byte   N11
 .byte   W12
 .byte   N11
 .byte   W12
@  #06 @055   ----------------------------------------
 .byte   N23
 .byte   W92
 .byte   W03
 .byte   FINE

@**************** Track 7 (Midi-Chn.6) ****************@

song2F_007:
@  #07 @000   ----------------------------------------
 .byte   KEYSH , song2F_key+0
 .byte   VOICE , 40
 .byte   VOL , 62*song2F_mvl/mxv
 .byte   PAN , c_v+0
 .byte   W12
Label_56A33D:
 .byte   W96
@  #07 @001   ----------------------------------------
 .byte   W96
@  #07 @002   ----------------------------------------
 .byte   W96
@  #07 @003   ----------------------------------------
 .byte   W96
@  #07 @004   ----------------------------------------
 .byte   W96
@  #07 @005   ----------------------------------------
 .byte   W96
@  #07 @006   ----------------------------------------
 .byte   W96
@  #07 @007   ----------------------------------------
 .byte   W96
@  #07 @008   ----------------------------------------
 .byte   W96
@  #07 @009   ----------------------------------------
 .byte   W96
@  #07 @010   ----------------------------------------
 .byte   W96
@  #07 @011   ----------------------------------------
 .byte   W96
@  #07 @012   ----------------------------------------
Label_56A349:
 .byte   N92 ,Gn2 ,v064
 .byte   W96
 .byte   PEND 
@  #07 @013   ----------------------------------------
Label_56A34E:
 .byte   N92 ,An2 ,v064
 .byte   W96
 .byte   PEND 
@  #07 @014   ----------------------------------------
Label_56A353:
 .byte   TIE ,Gn2 ,v064
 .byte   W96
 .byte   PEND 
@  #07 @015   ----------------------------------------
Label_56A358:
 .byte   W92
 .byte   W03
 .byte   PEND 
 .byte   EOT
 .byte   Gn2
 .byte   W01
@  #07 @016   ----------------------------------------
Label_56A35E:
 .byte   N44 ,Cn2 ,v064
 .byte   W48
 .byte   En2
 .byte   W48
 .byte   PEND 
@  #07 @017   ----------------------------------------
Label_56A365:
 .byte   N44 ,Dn2 ,v064
 .byte   W48
 .byte   N44
 .byte   W48
 .byte   PEND 
@  #07 @018   ----------------------------------------
 .byte   PATT
  .word Label_56A35E
@  #07 @019   ----------------------------------------
Label_56A371:
 .byte   N08 ,Dn2 ,v064
 .byte   W18
 .byte   N05 ,Cn2
 .byte   W06
 .byte   N68
 .byte   W24
 .byte   W48
 .byte   PEND 
@  #07 @020   ----------------------------------------
 .byte   W96
@  #07 @021   ----------------------------------------
 .byte   W96
@  #07 @022   ----------------------------------------
 .byte   W96
@  #07 @023   ----------------------------------------
 .byte   W96
@  #07 @024   ----------------------------------------
Label_56A380:
 .byte   N11 ,Ds2 ,v064
 .byte   W24
 .byte   N56
 .byte   W48
 .byte   W12
 .byte   N11
 .byte   W12
 .byte   PEND 
@  #07 @025   ----------------------------------------
Label_56A38A:
 .byte   N44 ,Dn2 ,v064
 .byte   W48
 .byte   Gn2
 .byte   W48
 .byte   PEND 
@  #07 @026   ----------------------------------------
 .byte   GOTO
  .word Label_56A33D
@  #07 @027   ----------------------------------------
 .byte   W96
@  #07 @028   ----------------------------------------
 .byte   W96
@  #07 @029   ----------------------------------------
 .byte   W96
@  #07 @030   ----------------------------------------
 .byte   W96
@  #07 @031   ----------------------------------------
 .byte   W96
@  #07 @032   ----------------------------------------
 .byte   W96
@  #07 @033   ----------------------------------------
 .byte   W96
@  #07 @034   ----------------------------------------
 .byte   W96
@  #07 @035   ----------------------------------------
 .byte   W96
@  #07 @036   ----------------------------------------
 .byte   W96
@  #07 @037   ----------------------------------------
 .byte   W96
@  #07 @038   ----------------------------------------
 .byte   W96
@  #07 @039   ----------------------------------------
 .byte   PATT
  .word Label_56A349
@  #07 @040   ----------------------------------------
 .byte   PATT
  .word Label_56A34E
@  #07 @041   ----------------------------------------
 .byte   PATT
  .word Label_56A353
@  #07 @042   ----------------------------------------
 .byte   PATT
  .word Label_56A358
@  #07 @043   ----------------------------------------
 .byte   EOT
 .byte   Gn2
 .byte   W01
@  #07 @044   ----------------------------------------
 .byte   PATT
  .word Label_56A35E
@  #07 @045   ----------------------------------------
 .byte   PATT
  .word Label_56A365
@  #07 @046   ----------------------------------------
 .byte   PATT
  .word Label_56A35E
@  #07 @047   ----------------------------------------
 .byte   PATT
  .word Label_56A371
@  #07 @048   ----------------------------------------
 .byte   W96
@  #07 @049   ----------------------------------------
 .byte   W96
@  #07 @050   ----------------------------------------
 .byte   W96
@  #07 @051   ----------------------------------------
 .byte   W96
@  #07 @052   ----------------------------------------
 .byte   PATT
  .word Label_56A380
@  #07 @053   ----------------------------------------
 .byte   PATT
  .word Label_56A38A
@  #07 @054   ----------------------------------------
 .byte   PATT
  .word Label_56A353
@  #07 @055   ----------------------------------------
 .byte   PATT
  .word Label_56A358
@  #07 @056   ----------------------------------------
 .byte   EOT
 .byte   Gn2
 .byte   FINE

@**************** Track 8 (Midi-Chn.7) ****************@

song2F_008:
@  #08 @000   ----------------------------------------
 .byte   KEYSH , song2F_key+0
 .byte   VOICE , 47
 .byte   VOL , 62*song2F_mvl/mxv
 .byte   PAN , c_v+0
 .byte   N11 ,Gn1 ,v080
 .byte   W12
Label_014DD45C:
 .byte   N92 ,Cn2 ,v080
 .byte   W96
 .byte   PEND 
@  #08 @001   ----------------------------------------
Label_014DD461:
 .byte   W84
 .byte   N11 ,Gn1 ,v080
 .byte   W12
 .byte   PEND 
@  #08 @002   ----------------------------------------
 .byte   PATT
  .word Label_014DD45C
@  #08 @003   ----------------------------------------
Label_014DD46C:
 .byte   W84
 .byte   N05 ,Gn1 ,v080
 .byte   W06
 .byte   N05
 .byte   W06
 .byte   PEND 
@  #08 @004   ----------------------------------------
Label_014DD474:
 .byte   N92 ,Gn1 ,v080
 .byte   W96
 .byte   PEND 
@  #08 @005   ----------------------------------------
Label_014DD479:
 .byte   N80 ,Gn1 ,v080
 .byte   W84
 .byte   N05
 .byte   W06
 .byte   N05
 .byte   W06
 .byte   PEND 
@  #08 @006   ----------------------------------------
 .byte   PATT
  .word Label_014DD474
@  #08 @007   ----------------------------------------
 .byte   PATT
  .word Label_014DD461
@  #08 @008   ----------------------------------------
Label_014DD48C:
 .byte   N80 ,Gs1 ,v080
 .byte   W84
 .byte   N11 ,Ds1
 .byte   W12
 .byte   PEND 
@  #08 @009   ----------------------------------------
Label_014DD494:
 .byte   N80 ,Gs1 ,v080
 .byte   W84
 .byte   N05
 .byte   W06
 .byte   Ds1
 .byte   W06
 .byte   PEND 
@  #08 @010   ----------------------------------------
 .byte   PATT
  .word Label_014DD48C
@  #08 @011   ----------------------------------------
Label_014DD4A2:
 .byte   N56 ,Gs1 ,v080
 .byte   W48
 .byte   W12
 .byte   N11 ,Ds1
 .byte   W12
 .byte   Gs1
 .byte   W12
 .byte   Ds1
 .byte   W12
 .byte   PEND 
@  #08 @012   ----------------------------------------
 .byte   PATT
  .word Label_014DD45C
@  #08 @013   ----------------------------------------
 .byte   PATT
  .word Label_014DD461
@  #08 @014   ----------------------------------------
Label_014DD4B9:
 .byte   N80 ,Cn2 ,v080
 .byte   W84
 .byte   N11 ,Gn1
 .byte   W12
 .byte   PEND 
@  #08 @015   ----------------------------------------
Label_014DD4C1:
 .byte   N56 ,Cn2 ,v080
 .byte   W60
 .byte   N11 ,Gn1
 .byte   W12
 .byte   Cn2
 .byte   W12
 .byte   Gn1
 .byte   W12
 .byte   PEND 
@  #08 @016   ----------------------------------------
 .byte   PATT
  .word Label_014DD45C
@  #08 @017   ----------------------------------------
 .byte   PATT
  .word Label_014DD461
@  #08 @018   ----------------------------------------
 .byte   PATT
  .word Label_014DD45C
@  #08 @019   ----------------------------------------
 .byte   PATT
  .word Label_014DD461
@  #08 @020   ----------------------------------------
Label_014DD4E1:
 .byte   N23 ,Gn1 ,v052
 .byte   W24
 .byte   N23
 .byte   W24
 .byte   N23
 .byte   W24
 .byte   N23
 .byte   W24
 .byte   PEND 
@  #08 @021   ----------------------------------------
Label_014DD4EC:
 .byte   N23 ,Gn1 ,v052
 .byte   W24
 .byte   N23
 .byte   W24
 .byte   N23
 .byte   W24
 .byte   N11
 .byte   W12
 .byte   N11
 .byte   W12
 .byte   PEND 
@  #08 @022   ----------------------------------------
Label_014DD4F9:
 .byte   N23 ,Gs1 ,v052
 .byte   W24
 .byte   N23
 .byte   W24
 .byte   N23
 .byte   W24
 .byte   N11
 .byte   W12
 .byte   Ds1
 .byte   W12
 .byte   PEND 
@  #08 @023   ----------------------------------------
Label_014DD506:
 .byte   N11 ,Gs1 ,v052
 .byte   W03
 .byte   W03
 .byte   W03
 .byte   W03
 .byte   Ds1
 .byte   W03
 .byte   W03
 .byte   W03
 .byte   W03
 .byte   Gs1 ,v056
 .byte   W03
 .byte   W04
 .byte   W03
 .byte   W02
 .byte   N05 ,Ds1 ,v060
 .byte   W01
 .byte   W03
 .byte   W02
 .byte   Ds1 ,v064
 .byte   W01
 .byte   W03
 .byte   W02
 .byte   N11 ,Gs1
 .byte   W01
 .byte   W03
 .byte   W03
 .byte   W03
 .byte   W02
 .byte   N05 ,Ds1 ,v068
 .byte   W01
 .byte   W04
 .byte   W01
 .byte   Ds1 ,v072
 .byte   W02
 .byte   W03
 .byte   W01
 .byte   N11 ,Gs1
 .byte   W02
 .byte   W03
 .byte   W03
 .byte   W03
 .byte   W01
 .byte   Ds1 ,v076
 .byte   W02
 .byte   W03
 .byte   W03
 .byte   W04
 .byte   PEND 
@  #08 @024   ----------------------------------------
 .byte   PATT
  .word Label_014DD48C
@  #08 @025   ----------------------------------------
Label_014DD548:
 .byte   N80 ,Gn1 ,v080
 .byte   W84
 .byte   N11
 .byte   W12
 .byte   PEND 
@  #08 @026   ----------------------------------------
 .byte   GOTO
  .word Label_014DD45C
@  #08 @027   ----------------------------------------
 .byte   PATT
  .word Label_014DD45C
@  #08 @028   ----------------------------------------
 .byte   PATT
  .word Label_014DD461
@  #08 @029   ----------------------------------------
 .byte   PATT
  .word Label_014DD45C
@  #08 @030   ----------------------------------------
 .byte   PATT
  .word Label_014DD46C
@  #08 @031   ----------------------------------------
 .byte   PATT
  .word Label_014DD474
@  #08 @032   ----------------------------------------
 .byte   PATT
  .word Label_014DD479
@  #08 @033   ----------------------------------------
 .byte   PATT
  .word Label_014DD474
@  #08 @034   ----------------------------------------
 .byte   PATT
  .word Label_014DD461
@  #08 @035   ----------------------------------------
 .byte   PATT
  .word Label_014DD48C
@  #08 @036   ----------------------------------------
 .byte   PATT
  .word Label_014DD494
@  #08 @037   ----------------------------------------
 .byte   PATT
  .word Label_014DD48C
@  #08 @038   ----------------------------------------
 .byte   PATT
  .word Label_014DD4A2
@  #08 @039   ----------------------------------------
 .byte   PATT
  .word Label_014DD45C
@  #08 @040   ----------------------------------------
 .byte   PATT
  .word Label_014DD461
@  #08 @041   ----------------------------------------
 .byte   PATT
  .word Label_014DD4B9
@  #08 @042   ----------------------------------------
 .byte   PATT
  .word Label_014DD4C1
@  #08 @043   ----------------------------------------
 .byte   PATT
  .word Label_014DD45C
@  #08 @044   ----------------------------------------
 .byte   PATT
  .word Label_014DD461
@  #08 @045   ----------------------------------------
 .byte   PATT
  .word Label_014DD45C
@  #08 @046   ----------------------------------------
 .byte   PATT
  .word Label_014DD461
@  #08 @047   ----------------------------------------
 .byte   PATT
  .word Label_014DD4E1
@  #08 @048   ----------------------------------------
 .byte   PATT
  .word Label_014DD4EC
@  #08 @049   ----------------------------------------
 .byte   PATT
  .word Label_014DD4F9
@  #08 @050   ----------------------------------------
 .byte   PATT
  .word Label_014DD506
@  #08 @051   ----------------------------------------
 .byte   PATT
  .word Label_014DD48C
@  #08 @052   ----------------------------------------
 .byte   PATT
  .word Label_014DD548
@  #08 @053   ----------------------------------------
 .byte   PATT
  .word Label_014DD4C1
@  #08 @054   ----------------------------------------
 .byte   N92 ,Cn2 ,v080
 .byte   W92
 .byte   W03
 .byte   FINE

@******************************************************@
	.align	2

song2F:
	.byte	8	@ NumTrks
	.byte	0	@ NumBlks
	.byte	song2F_pri	@ Priority
	.byte	song2F_rev	@ Reverb.
    
	.word	song2F_grp
    
	.word	song2F_001
	.word	song2F_002
	.word	song2F_003
	.word	song2F_004
	.word	song2F_005
	.word	song2F_006
	.word	song2F_007
	.word	song2F_008

	.end
