//Event file generated from Sappy .s format.
	#include "MPlayDef.event"

	#define	EverydayBrawls_grp  voicegroup000
	#define	EverydayBrawls_pri  0
	#define	EverydayBrawls_rev  0
	#define	EverydayBrawls_mvl  127
	#define	EverydayBrawls_key  0
	#define	EverydayBrawls_tbs  1
	#define	EverydayBrawls_exg  0
	#define	EverydayBrawls_cmp  1

	// .rodata
	//	EverydayBrawls
	ALIGN 4


//**************** Track 1 (Midi-Chn.0) ****************//

EverydayBrawls_001:
//  #01 //000   ----------------------------------------
 BYTE   KEYSH   EverydayBrawls_key+0
Label_010056DE:
 BYTE   TEMPO   140*EverydayBrawls_tbs/2
 BYTE   VOICE   48
 BYTE   PAN   c_v+0
 BYTE   VOL   34*EverydayBrawls_mvl/mxv
 BYTE   PAN   c_v+0
 BYTE   VOL   34*EverydayBrawls_mvl/mxv
 BYTE   PAN   c_v+0
 BYTE   VOL   34*EverydayBrawls_mvl/mxv
 BYTE   PAN   c_v+0
 BYTE   VOL   34*EverydayBrawls_mvl/mxv
 BYTE   PAN   c_v+0
 BYTE   VOL   34*EverydayBrawls_mvl/mxv
 BYTE   PAN   c_v+0
 BYTE   VOL   34*EverydayBrawls_mvl/mxv
 BYTE   BEND   c_v+0
 BYTE   N11  En3  v100
 BYTE   W12
 BYTE   An2
 BYTE   W12
 BYTE   VOICE   1
 BYTE   W12
 BYTE   N11
 BYTE   W12
 BYTE   N05
 BYTE   W06
 BYTE   Bn2
 BYTE   W06
 BYTE   N11  Cn3
 BYTE   W12
 BYTE   Dn3
 BYTE   W12
 BYTE   Bn2
 BYTE   W12
//  #01 //001   ----------------------------------------
 BYTE   VOICE   48
 BYTE   N11  En3
 BYTE   W12
 BYTE   An2
 BYTE   W12
 BYTE   VOICE   1
 BYTE   W12
 BYTE   N11  Gn3
 BYTE   W12
 BYTE   N05  Fs3
 BYTE   W06
 BYTE   Gn3
 BYTE   W06
 BYTE   N11  Fs3
 BYTE   W12
 BYTE   En3
 BYTE   W12
 BYTE   Dn3
 BYTE   W12
//  #01 //002   ----------------------------------------
 BYTE   VOICE   48
 BYTE   N11  En3
 BYTE   W12
 BYTE   An2
 BYTE   W12
 BYTE   VOICE   1
 BYTE   W12
 BYTE   N11
 BYTE   W12
 BYTE   N05
 BYTE   W06
 BYTE   Bn2
 BYTE   W06
 BYTE   N11  Cn3
 BYTE   W12
 BYTE   Dn3
 BYTE   W12
 BYTE   Bn2
 BYTE   W12
//  #01 //003   ----------------------------------------
 BYTE   VOICE   61
 BYTE   N05  Cn3
 BYTE   W06
 BYTE   En3
 BYTE   W06
 BYTE   Gn3
 BYTE   W06
 BYTE   An3
 BYTE   W06
 BYTE   En3
 BYTE   W06
 BYTE   An3
 BYTE   W06
 BYTE   Bn3
 BYTE   W06
 BYTE   Cn4
 BYTE   W06
 BYTE   N11  Bn3
 BYTE   W12
 BYTE   N11
 BYTE   W12
 BYTE   An3
 BYTE   W12
 BYTE   Gn3
 BYTE   W12
//  #01 //004   ----------------------------------------
Label_0100575E:
 BYTE   VOICE   56
 BYTE   N11  En3  v100
 BYTE   W12
 BYTE   An2
 BYTE   W12
 BYTE   VOICE   1
 BYTE   W12
 BYTE   N11
 BYTE   W12
 BYTE   N05
 BYTE   W06
 BYTE   Bn2
 BYTE   W06
 BYTE   N11  Cn3
 BYTE   W12
 BYTE   Dn3
 BYTE   W12
 BYTE   Bn2
 BYTE   W12
 BYTE   PEND 
//  #01 //005   ----------------------------------------
 BYTE   VOICE   56
 BYTE   N11  En3
 BYTE   W12
 BYTE   An2
 BYTE   W12
 BYTE   VOICE   1
 BYTE   W12
 BYTE   N11  Gn3
 BYTE   W12
 BYTE   N05  Fs3
 BYTE   W06
 BYTE   Gn3
 BYTE   W06
 BYTE   N11  Fs3
 BYTE   W12
 BYTE   En3
 BYTE   W12
 BYTE   Dn3
 BYTE   W12
//  #01 //006   ----------------------------------------
 BYTE   PATT
  POIN2 Label_0100575E
//  #01 //007   ----------------------------------------
 BYTE   W96
//  #01 //008   ----------------------------------------
 BYTE   VOICE   57
 BYTE   W30
 BYTE   N05  Bn2  v100
 BYTE   W06
 BYTE   En3
 BYTE   W06
 BYTE   Fs3
 BYTE   W06
 BYTE   N44  Gn3
 BYTE   W48
//  #01 //009   ----------------------------------------
 BYTE   N11  An3
 BYTE   W12
 BYTE   N05  Gn3
 BYTE   W12
 BYTE   Fs3
 BYTE   W12
 BYTE   N56  En3
 BYTE   W60
//  #01 //010   ----------------------------------------
 BYTE   N32  Bn3
 BYTE   W36
 BYTE   N23  An3
 BYTE   W24
 BYTE   N11  Gn3
 BYTE   W12
 BYTE   Fs3
 BYTE   W12
 BYTE   Gn3
 BYTE   W12
//  #01 //011   ----------------------------------------
 BYTE   An3
 BYTE   W12
 BYTE   N05  Bn3
 BYTE   W12
 BYTE   N44  Dn4
 BYTE   W48
 BYTE   N11  Cn4
 BYTE   W12
 BYTE   N05  Dn4
 BYTE   W06
 BYTE   Cn4
 BYTE   W06
//  #01 //012   ----------------------------------------
 BYTE   N92  Bn3
 BYTE   W96
//  #01 //013   ----------------------------------------
 BYTE   N92
 BYTE   W96
//  #01 //014   ----------------------------------------
 BYTE   N44  Gn2
 BYTE   N44  En3
 BYTE   W48
 BYTE   An2
 BYTE   N44  Fs3
 BYTE   W48
//  #01 //015   ----------------------------------------
 BYTE   Bn2
 BYTE   N44  Gn3
 BYTE   W48
 BYTE   Bn2
 BYTE   N44  Gn3
 BYTE   W48
//  #01 //016   ----------------------------------------
 BYTE   N32  Fs3
 BYTE   W36
 BYTE   N40  En3
 BYTE   W42
 BYTE   VOICE   61
 BYTE   N05  Bn2
 BYTE   W06
 BYTE   En3
 BYTE   W06
 BYTE   Fs3
 BYTE   W06
//  #01 //017   ----------------------------------------
 BYTE   N44  Gn3
 BYTE   W48
 BYTE   N11  Fs3
 BYTE   W12
 BYTE   Gn3
 BYTE   W12
 BYTE   N02  Fs3
 BYTE   W03
 BYTE   Gn3
 BYTE   W03
 BYTE   Fs3
 BYTE   W06
 BYTE   N11  Dn3
 BYTE   W12
//  #01 //018   ----------------------------------------
 BYTE   Bn3
 BYTE   W12
 BYTE   En3
 BYTE   W12
 BYTE   Gn3
 BYTE   W12
 BYTE   Bn3
 BYTE   W12
 BYTE   An3
 BYTE   W12
 BYTE   Bn3
 BYTE   W12
 BYTE   Fs3
 BYTE   W12
 BYTE   Bn3
 BYTE   W12
//  #01 //019   ----------------------------------------
 BYTE   An3
 BYTE   W12
 BYTE   Fs3
 BYTE   W12
 BYTE   Gn3
 BYTE   W12
 BYTE   Fs3
 BYTE   W12
 BYTE   N23  En3
 BYTE   W24
 BYTE   Fs3
 BYTE   W24
//  #01 //020   ----------------------------------------
 BYTE   N44  En3
 BYTE   W48
 BYTE   Fs3
 BYTE   W48
//  #01 //021   ----------------------------------------
 BYTE   Gn3
 BYTE   W48
 BYTE   Fs3
 BYTE   W48
//  #01 //022   ----------------------------------------
 BYTE   VOICE   46
 BYTE   W12
 BYTE   N05  An2
 BYTE   N05  Dn3
 BYTE   W06
 BYTE   Cn3
 BYTE   N05  Fn3
 BYTE   W06
 BYTE   Dn3
 BYTE   N05  Gn3
 BYTE   W06
 BYTE   Fn3
 BYTE   N05  An3
 BYTE   W06
 BYTE   Gn3
 BYTE   N05  Cn4
 BYTE   W06
 BYTE   An3
 BYTE   N05  Dn4
 BYTE   W18
 BYTE   An2
 BYTE   N05  Dn3
 BYTE   W06
 BYTE   Cn3
 BYTE   N05  Fn3
 BYTE   W06
 BYTE   Dn3
 BYTE   N05  Gn3
 BYTE   W06
 BYTE   Fn3
 BYTE   N05  An3
 BYTE   W06
 BYTE   Gn3
 BYTE   N05  Cn4
 BYTE   W06
 BYTE   An3
 BYTE   N05  Dn4
 BYTE   W06
//  #01 //023   ----------------------------------------
Label_0100585D:
 BYTE   W12
 BYTE   N05  An2  v100
 BYTE   N05  Dn3
 BYTE   W06
 BYTE   Cn3
 BYTE   N05  Fn3
 BYTE   W06
 BYTE   Dn3
 BYTE   N05  Gn3
 BYTE   W06
 BYTE   Fn3
 BYTE   N05  An3
 BYTE   W06
 BYTE   Dn3
 BYTE   N05  Gn3
 BYTE   W12
 BYTE   N11  An3
 BYTE   N11  Fn4
 BYTE   W12
 BYTE   Gn3
 BYTE   N11  En4
 BYTE   W12
 BYTE   En3
 BYTE   N11  Cn4
 BYTE   W12
 BYTE   Fn3
 BYTE   N11  Dn4
 BYTE   W12
 BYTE   PEND 
//  #01 //024   ----------------------------------------
Label_01005886:
 BYTE   W12
 BYTE   N05  An2  v100
 BYTE   N05  Dn3
 BYTE   W06
 BYTE   Cn3
 BYTE   N05  Fn3
 BYTE   W06
 BYTE   Dn3
 BYTE   N05  Gn3
 BYTE   W06
 BYTE   Fn3
 BYTE   N05  An3
 BYTE   W06
 BYTE   Gn3
 BYTE   N05  Cn4
 BYTE   W06
 BYTE   An3
 BYTE   N05  Dn4
 BYTE   W18
 BYTE   An2
 BYTE   N05  Dn3
 BYTE   W06
 BYTE   Cn3
 BYTE   N05  Fn3
 BYTE   W06
 BYTE   Dn3
 BYTE   N05  Gn3
 BYTE   W06
 BYTE   Fn3
 BYTE   N05  An3
 BYTE   W06
 BYTE   Gn3
 BYTE   N05  Cn4
 BYTE   W06
 BYTE   An3
 BYTE   N05  Dn4
 BYTE   W06
 BYTE   PEND 
//  #01 //025   ----------------------------------------
Label_010058BA:
 BYTE   W12
 BYTE   N05  An2  v100
 BYTE   N05  Dn3
 BYTE   W06
 BYTE   Cn3
 BYTE   N05  Fn3
 BYTE   W06
 BYTE   Dn3
 BYTE   N05  Gn3
 BYTE   W06
 BYTE   Fn3
 BYTE   N05  An3
 BYTE   W06
 BYTE   Dn3
 BYTE   N05  Gn3
 BYTE   W12
 BYTE   N11  An3
 BYTE   N11  Fn4
 BYTE   W12
 BYTE   Cn4
 BYTE   N11  Gn4
 BYTE   W12
 BYTE   Dn4
 BYTE   N11  An4
 BYTE   W24
 BYTE   PEND 
//  #01 //026   ----------------------------------------
 BYTE   PATT
  POIN2 Label_01005886
//  #01 //027   ----------------------------------------
 BYTE   PATT
  POIN2 Label_0100585D
//  #01 //028   ----------------------------------------
 BYTE   PATT
  POIN2 Label_01005886
//  #01 //029   ----------------------------------------
 BYTE   PATT
  POIN2 Label_010058BA
//  #01 //030   ----------------------------------------
 BYTE   GoTo
  POIN2 Label_010056DE
//  #01 //031   ----------------------------------------
 BYTE   VOICE   46
 BYTE   PAN   c_v+0
 BYTE   VOL   34*EverydayBrawls_mvl/mxv
 BYTE   PAN   c_v+0
 BYTE   VOL   34*EverydayBrawls_mvl/mxv
 BYTE   PAN   c_v+0
 BYTE   VOL   34*EverydayBrawls_mvl/mxv
 BYTE   BEND   c_v+0
 BYTE   FINE

//**************** Track 2 (Midi-Chn.1) ****************//

EverydayBrawls_002:
//  #02 //000   ----------------------------------------
 BYTE   KEYSH   EverydayBrawls_key+0
Label_0100592E:
 BYTE   VOICE   48
 BYTE   PAN   c_v+0
 BYTE   VOL   34*EverydayBrawls_mvl/mxv
 BYTE   PAN   c_v+0
 BYTE   VOL   34*EverydayBrawls_mvl/mxv
 BYTE   PAN   c_v+0
 BYTE   VOL   34*EverydayBrawls_mvl/mxv
 BYTE   PAN   c_v+0
 BYTE   VOL   34*EverydayBrawls_mvl/mxv
 BYTE   PAN   c_v+0
 BYTE   VOL   34*EverydayBrawls_mvl/mxv
 BYTE   PAN   c_v+0
 BYTE   VOL   34*EverydayBrawls_mvl/mxv
 BYTE   BEND   c_v+0
 BYTE   N11  En2  v100
 BYTE   N11  An2
 BYTE   W12
 BYTE   An1
 BYTE   W84
//  #02 //001   ----------------------------------------
 BYTE   En2
 BYTE   N11  An2
 BYTE   W12
 BYTE   An1
 BYTE   W12
 BYTE   VOICE   1
 BYTE   W12
 BYTE   N11  En3
 BYTE   W12
 BYTE   Dn3
 BYTE   W12
 BYTE   An2
 BYTE   W12
 BYTE   Cn3
 BYTE   W12
 BYTE   Gn2
 BYTE   W12
//  #02 //002   ----------------------------------------
 BYTE   VOICE   48
 BYTE   N11  En2
 BYTE   N11  An2
 BYTE   W12
 BYTE   An1
 BYTE   W84
//  #02 //003   ----------------------------------------
 BYTE   W96
//  #02 //004   ----------------------------------------
 BYTE   An2
 BYTE   W12
 BYTE   An1
 BYTE   W84
//  #02 //005   ----------------------------------------
 BYTE   An2
 BYTE   W12
 BYTE   An1
 BYTE   W24
 BYTE   En3
 BYTE   W12
 BYTE   VOICE   1
 BYTE   N11  Dn3
 BYTE   W12
 BYTE   An2
 BYTE   W12
 BYTE   Cn3
 BYTE   W12
 BYTE   Gn2
 BYTE   W12
//  #02 //006   ----------------------------------------
 BYTE   VOICE   48
 BYTE   N11  An2
 BYTE   W12
 BYTE   An1
 BYTE   W84
//  #02 //007   ----------------------------------------
 BYTE   W96
//  #02 //008   ----------------------------------------
 BYTE   W96
//  #02 //009   ----------------------------------------
 BYTE   W96
//  #02 //010   ----------------------------------------
 BYTE   W96
//  #02 //011   ----------------------------------------
 BYTE   W96
//  #02 //012   ----------------------------------------
 BYTE   VOL   20*EverydayBrawls_mvl/mxv
 BYTE   N23  Fs3
 BYTE   W24
 BYTE   Gn3
 BYTE   W24
 BYTE   Bn3
 BYTE   W24
 BYTE   Gn3
 BYTE   W24
//  #02 //013   ----------------------------------------
 BYTE   N44  Fs3
 BYTE   W48
 BYTE   N23  Ds4
 BYTE   W24
 BYTE   Bn3
 BYTE   W24
//  #02 //014   ----------------------------------------
 BYTE   VOICE   57
 BYTE   VOL   34*EverydayBrawls_mvl/mxv
 BYTE   N23
 BYTE   W24
 BYTE   En4
 BYTE   W24
 BYTE   Dn4
 BYTE   W24
 BYTE   Bn3
 BYTE   W24
//  #02 //015   ----------------------------------------
 BYTE   N11  En4
 BYTE   W12
 BYTE   Dn4
 BYTE   W12
 BYTE   N23  Bn3
 BYTE   W24
 BYTE   N05  Fs4
 BYTE   W06
 BYTE   Gn4
 BYTE   W06
 BYTE   En4
 BYTE   W06
 BYTE   Fs4
 BYTE   W06
 BYTE   Dn4
 BYTE   W06
 BYTE   En4
 BYTE   W06
 BYTE   Bn3
 BYTE   W06
 BYTE   Dn4
 BYTE   W06
//  #02 //016   ----------------------------------------
 BYTE   N23  Fs4
 BYTE   W24
 BYTE   N05  Gn4
 BYTE   W06
 BYTE   Fs4
 BYTE   W06
 BYTE   TIE  En4
 BYTE   W60
//  #02 //017   ----------------------------------------
 BYTE   W44
 BYTE   W03
 BYTE   EOT
 BYTE   W01
 BYTE   N23
 BYTE   W24
 BYTE   Gn4
 BYTE   W24
//  #02 //018   ----------------------------------------
 BYTE   An4
 BYTE   W24
 BYTE   N05  Bn4
 BYTE   W12
 BYTE   TIE  En4
 BYTE   W60
//  #02 //019   ----------------------------------------
 BYTE   W44
 BYTE   W03
 BYTE   EOT
 BYTE   W01
 BYTE   N23
 BYTE   W24
 BYTE   Fs4
 BYTE   W24
//  #02 //020   ----------------------------------------
 BYTE   N05  Gn4
 BYTE   W06
 BYTE   Fs4
 BYTE   W06
 BYTE   N32  En4
 BYTE   W36
 BYTE   N44  Dn4
 BYTE   W48
//  #02 //021   ----------------------------------------
 BYTE   W48
 BYTE   N11  Bn4
 BYTE   W12
 BYTE   En4
 BYTE   W12
 BYTE   Gn4
 BYTE   W12
 BYTE   En4
 BYTE   W12
//  #02 //022   ----------------------------------------
 BYTE   VOICE   33
 BYTE   N11  Dn2
 BYTE   W12
 BYTE   N05  Fn2
 BYTE   W06
 BYTE   Dn2
 BYTE   W06
 BYTE   N11  Gn2
 BYTE   W12
 BYTE   An2
 BYTE   W24
 BYTE   N05  Fn2
 BYTE   W06
 BYTE   Dn2
 BYTE   W06
 BYTE   N11  Gn2
 BYTE   W12
 BYTE   An2
 BYTE   W12
//  #02 //023   ----------------------------------------
Label_01005A1A:
 BYTE   W12
 BYTE   N11  An2  v100
 BYTE   W12
 BYTE   N05  Gn2
 BYTE   W06
 BYTE   An2
 BYTE   W06
 BYTE   N11  Gn2
 BYTE   W12
 BYTE   Cn2
 BYTE   W12
 BYTE   En2
 BYTE   W12
 BYTE   N17  Dn2
 BYTE   W24
 BYTE   PEND 
//  #02 //024   ----------------------------------------
Label_01005A2F:
 BYTE   N11  Dn2  v100
 BYTE   W12
 BYTE   N05  Fn2
 BYTE   W06
 BYTE   Dn2
 BYTE   W06
 BYTE   N11  Gn2
 BYTE   W12
 BYTE   An2
 BYTE   W24
 BYTE   N05  Fn2
 BYTE   W06
 BYTE   Dn2
 BYTE   W06
 BYTE   N11  Gn2
 BYTE   W12
 BYTE   An2
 BYTE   W12
 BYTE   PEND 
//  #02 //025   ----------------------------------------
 BYTE   PATT
  POIN2 Label_01005A1A
//  #02 //026   ----------------------------------------
 BYTE   PATT
  POIN2 Label_01005A2F
//  #02 //027   ----------------------------------------
 BYTE   PATT
  POIN2 Label_01005A1A
//  #02 //028   ----------------------------------------
 BYTE   PATT
  POIN2 Label_01005A2F
//  #02 //029   ----------------------------------------
 BYTE   PATT
  POIN2 Label_01005A1A
//  #02 //030   ----------------------------------------
 BYTE   GoTo
  POIN2 Label_0100592E
//  #02 //031   ----------------------------------------
 BYTE   VOICE   33
 BYTE   PAN   c_v+0
 BYTE   VOL   34*EverydayBrawls_mvl/mxv
 BYTE   PAN   c_v+0
 BYTE   VOL   34*EverydayBrawls_mvl/mxv
 BYTE   PAN   c_v+0
 BYTE   VOL   34*EverydayBrawls_mvl/mxv
 BYTE   BEND   c_v+0
 BYTE   FINE

//**************** Track 3 (Midi-Chn.2) ****************//

EverydayBrawls_003:
//  #03 //000   ----------------------------------------
 BYTE   KEYSH   EverydayBrawls_key+0
Label_FA7BBA:
 BYTE   VOICE   1
 BYTE   PAN   c_v+0
 BYTE   VOL   34*EverydayBrawls_mvl/mxv
 BYTE   PAN   c_v+0
 BYTE   VOL   34*EverydayBrawls_mvl/mxv
 BYTE   PAN   c_v+0
 BYTE   VOL   34*EverydayBrawls_mvl/mxv
 BYTE   PAN   c_v+0
 BYTE   VOL   34*EverydayBrawls_mvl/mxv
 BYTE   PAN   c_v+0
 BYTE   VOL   34*EverydayBrawls_mvl/mxv
 BYTE   PAN   c_v+0
 BYTE   VOL   34*EverydayBrawls_mvl/mxv
 BYTE   BEND   c_v+0
 BYTE   W36
 BYTE   N11  En2  v100
 BYTE   W12
 BYTE   N05  An1
 BYTE   W06
 BYTE   Bn1
 BYTE   W06
 BYTE   N11  Cn2
 BYTE   W12
 BYTE   N05  Bn1
 BYTE   W06
 BYTE   Cn2
 BYTE   W06
 BYTE   N11  Dn2
 BYTE   W12
//  #03 //001   ----------------------------------------
Label_FA7BEB:
 BYTE   W36
 BYTE   N11  En2  v100
 BYTE   W12
 BYTE   N05  Dn2
 BYTE   W06
 BYTE   En2
 BYTE   W06
 BYTE   N11  Dn2
 BYTE   W12
 BYTE   Cn2
 BYTE   W12
 BYTE   Bn1
 BYTE   W12
 BYTE   PEND 
//  #03 //002   ----------------------------------------
Label_FA7BFD:
 BYTE   W36
 BYTE   N11  En2  v100
 BYTE   W12
 BYTE   N05  An1
 BYTE   W06
 BYTE   Bn1
 BYTE   W06
 BYTE   N11  Cn2
 BYTE   W12
 BYTE   N05  Bn1
 BYTE   W06
 BYTE   Cn2
 BYTE   W06
 BYTE   N11  Dn2
 BYTE   W12
 BYTE   PEND 
//  #03 //003   ----------------------------------------
 BYTE   W96
//  #03 //004   ----------------------------------------
 BYTE   PATT
  POIN2 Label_FA7BFD
//  #03 //005   ----------------------------------------
 BYTE   PATT
  POIN2 Label_FA7BEB
//  #03 //006   ----------------------------------------
 BYTE   PATT
  POIN2 Label_FA7BFD
//  #03 //007   ----------------------------------------
 BYTE   VOICE   68
 BYTE   VOL   25*EverydayBrawls_mvl/mxv
 BYTE   N11  An3  v100
 BYTE   W12
 BYTE   En4
 BYTE   W12
 BYTE   Dn4
 BYTE   W12
 BYTE   Cn4
 BYTE   W12
 BYTE   Bn3
 BYTE   W12
 BYTE   Gn3
 BYTE   W12
 BYTE   N05  Bn3
 BYTE   W12
 BYTE   TIE  An3
 BYTE   W12
//  #03 //008   ----------------------------------------
 BYTE   W24
 BYTE   VOL   18*EverydayBrawls_mvl/mxv
 BYTE   W24
 BYTE   VOL   11*EverydayBrawls_mvl/mxv
 BYTE   W24
 BYTE   VOL   4*EverydayBrawls_mvl/mxv
 BYTE   W23
 BYTE   EOT
 BYTE   W01
//  #03 //009   ----------------------------------------
 BYTE   W96
//  #03 //010   ----------------------------------------
 BYTE   W96
//  #03 //011   ----------------------------------------
 BYTE   W96
//  #03 //012   ----------------------------------------
 BYTE   W96
//  #03 //013   ----------------------------------------
 BYTE   W96
//  #03 //014   ----------------------------------------
 BYTE   W96
//  #03 //015   ----------------------------------------
 BYTE   W96
//  #03 //016   ----------------------------------------
 BYTE   VOICE   48
 BYTE   VOL   23*EverydayBrawls_mvl/mxv
 BYTE   N11  Dn4
 BYTE   W12
 BYTE   N05  Bn3
 BYTE   W06
 BYTE   Cn4
 BYTE   W06
 BYTE   N11  Dn4
 BYTE   W12
 BYTE   N56  Bn3
 BYTE   W60
//  #03 //017   ----------------------------------------
 BYTE   N68  Dn4
 BYTE   W72
 BYTE   N23  Bn3
 BYTE   W24
//  #03 //018   ----------------------------------------
 BYTE   N92  En3
 BYTE   W96
//  #03 //019   ----------------------------------------
 BYTE   Cn3
 BYTE   W96
//  #03 //020   ----------------------------------------
 BYTE   Dn3
 BYTE   W96
//  #03 //021   ----------------------------------------
 BYTE   N92
 BYTE   W96
//  #03 //022   ----------------------------------------
 BYTE   W96
//  #03 //023   ----------------------------------------
 BYTE   W96
//  #03 //024   ----------------------------------------
 BYTE   W96
//  #03 //025   ----------------------------------------
 BYTE   W96
//  #03 //026   ----------------------------------------
 BYTE   N32
 BYTE   W36
 BYTE   N11  Gn3
 BYTE   W12
 BYTE   N32  An3
 BYTE   W36
 BYTE   N05  Gn3
 BYTE   W06
 BYTE   An3
 BYTE   W06
//  #03 //027   ----------------------------------------
 BYTE   N23  Cn4
 BYTE   W24
 BYTE   An3
 BYTE   W24
 BYTE   Gn3
 BYTE   W24
 BYTE   An3
 BYTE   W24
//  #03 //028   ----------------------------------------
 BYTE   Dn3
 BYTE   W36
 BYTE   N05
 BYTE   W06
 BYTE   Gn3
 BYTE   W06
 BYTE   N11  An3
 BYTE   W12
 BYTE   Gn3
 BYTE   W12
 BYTE   An3
 BYTE   W12
 BYTE   Cn4
 BYTE   W12
//  #03 //029   ----------------------------------------
 BYTE   Fn4
 BYTE   W12
 BYTE   En4
 BYTE   W12
 BYTE   Cn4
 BYTE   W12
 BYTE   En4
 BYTE   W12
 BYTE   An3
 BYTE   N11  Dn4
 BYTE   W12
 BYTE   Gn3
 BYTE   N11  Cn4
 BYTE   W12
 BYTE   An3
 BYTE   N11  Dn4
 BYTE   W24
//  #03 //030   ----------------------------------------
 BYTE   GoTo
  POIN2 Label_FA7BBA
//  #03 //031   ----------------------------------------
 BYTE   VOICE   48
 BYTE   PAN   c_v+0
 BYTE   VOL   23*EverydayBrawls_mvl/mxv
 BYTE   PAN   c_v+0
 BYTE   VOL   23*EverydayBrawls_mvl/mxv
 BYTE   PAN   c_v+0
 BYTE   VOL   23*EverydayBrawls_mvl/mxv
 BYTE   BEND   c_v+0
 BYTE   FINE

//**************** Track 4 (Midi-Chn.3) ****************//

EverydayBrawls_004:
//  #04 //000   ----------------------------------------
 BYTE   KEYSH   EverydayBrawls_key+0
Label_01004EEA:
 BYTE   VOICE   48
 BYTE   PAN   c_v+0
 BYTE   VOL   24*EverydayBrawls_mvl/mxv
 BYTE   PAN   c_v+0
 BYTE   VOL   24*EverydayBrawls_mvl/mxv
 BYTE   PAN   c_v+0
 BYTE   VOL   24*EverydayBrawls_mvl/mxv
 BYTE   PAN   c_v+0
 BYTE   VOL   24*EverydayBrawls_mvl/mxv
 BYTE   PAN   c_v+0
 BYTE   VOL   24*EverydayBrawls_mvl/mxv
 BYTE   PAN   c_v+0
 BYTE   VOL   24*EverydayBrawls_mvl/mxv
 BYTE   BEND   c_v+0
 BYTE   W96
//  #04 //001   ----------------------------------------
 BYTE   W96
//  #04 //002   ----------------------------------------
 BYTE   W96
//  #04 //003   ----------------------------------------
 BYTE   N44  An1  v100
 BYTE   N44  En2
 BYTE   N44  An2
 BYTE   W48
 BYTE   Gn1
 BYTE   N44  Dn2
 BYTE   N44  Gn2
 BYTE   W48
//  #04 //004   ----------------------------------------
 BYTE   VOL   23*EverydayBrawls_mvl/mxv
 BYTE   N23  En3
 BYTE   N23  An3
 BYTE   W12
 BYTE   VOL   13*EverydayBrawls_mvl/mxv
 BYTE   W84
//  #04 //005   ----------------------------------------
 BYTE   VOL   23*EverydayBrawls_mvl/mxv
 BYTE   N23  En3
 BYTE   N23  An3
 BYTE   W12
 BYTE   VOL   14*EverydayBrawls_mvl/mxv
 BYTE   W48
 BYTE   VOL   23*EverydayBrawls_mvl/mxv
 BYTE   N05  En3
 BYTE   N05  An3
 BYTE   W12
 BYTE   N23  Gn3
 BYTE   N23  Cn4
 BYTE   W24
//  #04 //006   ----------------------------------------
 BYTE   En3
 BYTE   N23  An3
 BYTE   W12
 BYTE   VOL   15*EverydayBrawls_mvl/mxv
 BYTE   W84
//  #04 //007   ----------------------------------------
 BYTE   VOL   23*EverydayBrawls_mvl/mxv
 BYTE   N44  An1
 BYTE   N44  En2
 BYTE   N44  An2
 BYTE   W48
 BYTE   Gn1
 BYTE   N44  Dn2
 BYTE   N44  Gn2
 BYTE   W48
//  #04 //008   ----------------------------------------
 BYTE   VOICE   19
 BYTE   N92  Cn2
 BYTE   N92  Gn2
 BYTE   W96
//  #04 //009   ----------------------------------------
 BYTE   Bn1
 BYTE   N92  Fs2
 BYTE   W96
//  #04 //010   ----------------------------------------
 BYTE   En2
 BYTE   N92  Bn2
 BYTE   W96
//  #04 //011   ----------------------------------------
 BYTE   Dn2
 BYTE   N92  An2
 BYTE   W96
//  #04 //012   ----------------------------------------
 BYTE   Bn1
 BYTE   N92  Fs2
 BYTE   W96
//  #04 //013   ----------------------------------------
 BYTE   Bn1
 BYTE   N92  Fs2
 BYTE   W96
//  #04 //014   ----------------------------------------
 BYTE   Bn1
 BYTE   N92  En2
 BYTE   W96
//  #04 //015   ----------------------------------------
 BYTE   Bn1
 BYTE   N92  En2
 BYTE   W96
//  #04 //016   ----------------------------------------
 BYTE   An1
 BYTE   N92  Dn2
 BYTE   W96
//  #04 //017   ----------------------------------------
 BYTE   An1
 BYTE   N92  Dn2
 BYTE   W96
//  #04 //018   ----------------------------------------
 BYTE   Gn1
 BYTE   N92  Cn2
 BYTE   W96
//  #04 //019   ----------------------------------------
 BYTE   Gn1
 BYTE   N92  Cn2
 BYTE   W96
//  #04 //020   ----------------------------------------
 BYTE   An1
 BYTE   N92  Dn2
 BYTE   W96
//  #04 //021   ----------------------------------------
 BYTE   An1
 BYTE   N92  Dn2
 BYTE   W96
//  #04 //022   ----------------------------------------
 BYTE   N92
 BYTE   W96
//  #04 //023   ----------------------------------------
 BYTE   An1
 BYTE   W96
//  #04 //024   ----------------------------------------
 BYTE   Dn2
 BYTE   W96
//  #04 //025   ----------------------------------------
 BYTE   An1
 BYTE   W96
//  #04 //026   ----------------------------------------
 BYTE   Dn2
 BYTE   W96
//  #04 //027   ----------------------------------------
 BYTE   An1
 BYTE   W96
//  #04 //028   ----------------------------------------
 BYTE   Dn2
 BYTE   W96
//  #04 //029   ----------------------------------------
 BYTE   N68  An1
 BYTE   W96
//  #04 //030   ----------------------------------------
 BYTE   GoTo
  POIN2 Label_01004EEA
//  #04 //031   ----------------------------------------
 BYTE   VOICE   19
 BYTE   PAN   c_v+0
 BYTE   VOL   23*EverydayBrawls_mvl/mxv
 BYTE   PAN   c_v+0
 BYTE   VOL   23*EverydayBrawls_mvl/mxv
 BYTE   PAN   c_v+0
 BYTE   VOL   23*EverydayBrawls_mvl/mxv
 BYTE   BEND   c_v+0
 BYTE   FINE

//**************** Track 5 (Midi-Chn.4) ****************//

EverydayBrawls_005:
//  #05 //000   ----------------------------------------
 BYTE   KEYSH   EverydayBrawls_key+0
Label_0100558E:
 BYTE   VOICE   68
 BYTE   PAN   c_v+0
 BYTE   VOL   21*EverydayBrawls_mvl/mxv
 BYTE   PAN   c_v+0
 BYTE   VOL   21*EverydayBrawls_mvl/mxv
 BYTE   PAN   c_v+0
 BYTE   VOL   21*EverydayBrawls_mvl/mxv
 BYTE   PAN   c_v+0
 BYTE   VOL   21*EverydayBrawls_mvl/mxv
 BYTE   PAN   c_v+0
 BYTE   VOL   21*EverydayBrawls_mvl/mxv
 BYTE   PAN   c_v+0
 BYTE   VOL   21*EverydayBrawls_mvl/mxv
 BYTE   BEND   c_v+0
 BYTE   W96
//  #05 //001   ----------------------------------------
 BYTE   W96
//  #05 //002   ----------------------------------------
 BYTE   W96
//  #05 //003   ----------------------------------------
 BYTE   W60
 BYTE   N11  An4  v100
 BYTE   W12
 BYTE   N05  Gn4
 BYTE   W06
 BYTE   Dn4
 BYTE   W06
 BYTE   En4
 BYTE   W06
 BYTE   Gn4
 BYTE   W06
//  #05 //004   ----------------------------------------
 BYTE   An4
 BYTE   W06
 BYTE   Gn4
 BYTE   W06
 BYTE   N32  An4
 BYTE   W36
 BYTE   N05  En4
 BYTE   W06
 BYTE   Dn4
 BYTE   W06
 BYTE   N32  En4
 BYTE   W36
//  #05 //005   ----------------------------------------
 BYTE   N05  Cn4
 BYTE   W06
 BYTE   Bn3
 BYTE   W06
 BYTE   N17  Cn4
 BYTE   W18
 BYTE   N05  Dn4
 BYTE   W06
 BYTE   En4
 BYTE   W06
 BYTE   Fs4
 BYTE   W06
 BYTE   N11  Gn4
 BYTE   W12
 BYTE   Fs4
 BYTE   W12
 BYTE   Dn4
 BYTE   W12
 BYTE   N56  En4
 BYTE   W12
//  #05 //006   ----------------------------------------
 BYTE   W48
 BYTE   N05  Cn4
 BYTE   W06
 BYTE   Bn3
 BYTE   W06
 BYTE   N32  Cn4
 BYTE   W36
//  #05 //007   ----------------------------------------
 BYTE   N44  An4
 BYTE   W48
 BYTE   N11  Gn4
 BYTE   W12
 BYTE   En4
 BYTE   W12
 BYTE   N05  Gn4
 BYTE   W12
 BYTE   TIE  An4
 BYTE   W12
//  #05 //008   ----------------------------------------
 BYTE   W24
 BYTE   VOL   17*EverydayBrawls_mvl/mxv
 BYTE   W24
 BYTE   VOL   10*EverydayBrawls_mvl/mxv
 BYTE   W24
 BYTE   VOL   4*EverydayBrawls_mvl/mxv
 BYTE   W23
 BYTE   EOT
 BYTE   W01
//  #05 //009   ----------------------------------------
 BYTE   W96
//  #05 //010   ----------------------------------------
 BYTE   W96
//  #05 //011   ----------------------------------------
 BYTE   W96
//  #05 //012   ----------------------------------------
 BYTE   W96
//  #05 //013   ----------------------------------------
 BYTE   W96
//  #05 //014   ----------------------------------------
 BYTE   W96
//  #05 //015   ----------------------------------------
 BYTE   W96
//  #05 //016   ----------------------------------------
 BYTE   W96
//  #05 //017   ----------------------------------------
 BYTE   W96
//  #05 //018   ----------------------------------------
 BYTE   W96
//  #05 //019   ----------------------------------------
 BYTE   W96
//  #05 //020   ----------------------------------------
 BYTE   W96
//  #05 //021   ----------------------------------------
 BYTE   W96
//  #05 //022   ----------------------------------------
 BYTE   W96
//  #05 //023   ----------------------------------------
 BYTE   W96
//  #05 //024   ----------------------------------------
 BYTE   W96
//  #05 //025   ----------------------------------------
 BYTE   W96
//  #05 //026   ----------------------------------------
 BYTE   W96
//  #05 //027   ----------------------------------------
 BYTE   W96
//  #05 //028   ----------------------------------------
 BYTE   W96
//  #05 //029   ----------------------------------------
 BYTE   W96
//  #05 //030   ----------------------------------------
 BYTE   GoTo
  POIN2 Label_0100558E
//  #05 //031   ----------------------------------------
 BYTE   VOICE   68
 BYTE   PAN   c_v+0
 BYTE   VOL   4*EverydayBrawls_mvl/mxv
 BYTE   PAN   c_v+0
 BYTE   VOL   4*EverydayBrawls_mvl/mxv
 BYTE   PAN   c_v+0
 BYTE   VOL   4*EverydayBrawls_mvl/mxv
 BYTE   BEND   c_v+0
 BYTE   FINE

//**************** Track 6 (Midi-Chn.5) ****************//

EverydayBrawls_006:
//  #06 //000   ----------------------------------------
 BYTE   KEYSH   EverydayBrawls_key+0
Label_01005276:
 BYTE   VOICE   124
 BYTE   PAN   c_v+0
 BYTE   VOL   34*EverydayBrawls_mvl/mxv
 BYTE   PAN   c_v+0
 BYTE   VOL   34*EverydayBrawls_mvl/mxv
 BYTE   PAN   c_v+0
 BYTE   VOL   34*EverydayBrawls_mvl/mxv
 BYTE   PAN   c_v+0
 BYTE   VOL   34*EverydayBrawls_mvl/mxv
 BYTE   PAN   c_v+0
 BYTE   VOL   34*EverydayBrawls_mvl/mxv
 BYTE   PAN   c_v+0
 BYTE   VOL   34*EverydayBrawls_mvl/mxv
 BYTE   BEND   c_v+0
 BYTE   N05  Cn1  v100
 BYTE   W12
 BYTE   N05
 BYTE   W06
 BYTE   N05
 BYTE   W06
 BYTE   N11  Dn1
 BYTE   W12
 BYTE   N05  Cn1
 BYTE   W06
 BYTE   N05
 BYTE   W06
 BYTE   N05
 BYTE   W12
 BYTE   N05
 BYTE   W06
 BYTE   N05
 BYTE   W06
 BYTE   N11  Dn1
 BYTE   W12
 BYTE   N05  Cn1
 BYTE   W06
 BYTE   N05
 BYTE   W06
//  #06 //001   ----------------------------------------
Label_010052B0:
 BYTE   N05  Cn1  v100
 BYTE   W12
 BYTE   N05
 BYTE   W06
 BYTE   N05
 BYTE   W06
 BYTE   N11  Dn1
 BYTE   W12
 BYTE   N05  Cn1
 BYTE   W06
 BYTE   N05
 BYTE   W06
 BYTE   N05
 BYTE   W12
 BYTE   N05
 BYTE   W06
 BYTE   N05
 BYTE   W06
 BYTE   N11  Dn1
 BYTE   W12
 BYTE   N05  Cn1
 BYTE   W06
 BYTE   N05
 BYTE   W06
 BYTE   PEND 
//  #06 //002   ----------------------------------------
 BYTE   PATT
  POIN2 Label_010052B0
//  #06 //003   ----------------------------------------
 BYTE   PATT
  POIN2 Label_010052B0
//  #06 //004   ----------------------------------------
 BYTE   PATT
  POIN2 Label_010052B0
//  #06 //005   ----------------------------------------
 BYTE   PATT
  POIN2 Label_010052B0
//  #06 //006   ----------------------------------------
 BYTE   PATT
  POIN2 Label_010052B0
//  #06 //007   ----------------------------------------
 BYTE   PATT
  POIN2 Label_010052B0
//  #06 //008   ----------------------------------------
 BYTE   W96
//  #06 //009   ----------------------------------------
 BYTE   W96
//  #06 //010   ----------------------------------------
 BYTE   W96
//  #06 //011   ----------------------------------------
 BYTE   W96
//  #06 //012   ----------------------------------------
 BYTE   W96
//  #06 //013   ----------------------------------------
 BYTE   W48
 BYTE   N05  Dn1  v024
 BYTE   W06
 BYTE   Dn1  v032
 BYTE   W06
 BYTE   Dn1  v044
 BYTE   W06
 BYTE   Dn1  v052
 BYTE   W06
 BYTE   Dn1  v064
 BYTE   W06
 BYTE   Dn1  v072
 BYTE   W06
 BYTE   Dn1  v084
 BYTE   W06
 BYTE   Dn1  v092
 BYTE   W06
//  #06 //014   ----------------------------------------
Label_0100530C:
 BYTE   N05  Dn1  v100
 BYTE   W12
 BYTE   Cn1
 BYTE   W06
 BYTE   N05
 BYTE   W06
 BYTE   Dn1
 BYTE   W12
 BYTE   Cn1
 BYTE   W06
 BYTE   N05
 BYTE   W06
 BYTE   Dn1
 BYTE   W12
 BYTE   Cn1
 BYTE   W06
 BYTE   N05
 BYTE   W06
 BYTE   Dn1
 BYTE   W12
 BYTE   Cn1
 BYTE   W06
 BYTE   N05
 BYTE   W06
 BYTE   PEND 
//  #06 //015   ----------------------------------------
 BYTE   PATT
  POIN2 Label_0100530C
//  #06 //016   ----------------------------------------
 BYTE   PATT
  POIN2 Label_0100530C
//  #06 //017   ----------------------------------------
 BYTE   PATT
  POIN2 Label_0100530C
//  #06 //018   ----------------------------------------
 BYTE   PATT
  POIN2 Label_0100530C
//  #06 //019   ----------------------------------------
 BYTE   PATT
  POIN2 Label_0100530C
//  #06 //020   ----------------------------------------
 BYTE   PATT
  POIN2 Label_0100530C
//  #06 //021   ----------------------------------------
 BYTE   PATT
  POIN2 Label_0100530C
//  #06 //022   ----------------------------------------
 BYTE   PATT
  POIN2 Label_0100530C
//  #06 //023   ----------------------------------------
 BYTE   PATT
  POIN2 Label_0100530C
//  #06 //024   ----------------------------------------
 BYTE   PATT
  POIN2 Label_0100530C
//  #06 //025   ----------------------------------------
 BYTE   PATT
  POIN2 Label_0100530C
//  #06 //026   ----------------------------------------
 BYTE   PATT
  POIN2 Label_0100530C
//  #06 //027   ----------------------------------------
 BYTE   PATT
  POIN2 Label_0100530C
//  #06 //028   ----------------------------------------
 BYTE   PATT
  POIN2 Label_0100530C
//  #06 //029   ----------------------------------------
 BYTE   N05  Dn1  v100
 BYTE   W12
 BYTE   Cn1
 BYTE   W06
 BYTE   N05
 BYTE   W06
 BYTE   Dn1
 BYTE   W12
 BYTE   Cn1
 BYTE   W06
 BYTE   N05
 BYTE   W06
 BYTE   Dn1
 BYTE   W12
 BYTE   N05
 BYTE   W12
 BYTE   N05
 BYTE   W24
//  #06 //030   ----------------------------------------
 BYTE   GoTo
  POIN2 Label_01005276
//  #06 //031   ----------------------------------------
 BYTE   VOICE   124
 BYTE   PAN   c_v+0
 BYTE   VOL   34*EverydayBrawls_mvl/mxv
 BYTE   PAN   c_v+0
 BYTE   VOL   34*EverydayBrawls_mvl/mxv
 BYTE   PAN   c_v+0
 BYTE   VOL   34*EverydayBrawls_mvl/mxv
 BYTE   BEND   c_v+0
 BYTE   FINE

//**************** Track 7 (Midi-Chn.6) ****************//

EverydayBrawls_007:
//  #07 //000   ----------------------------------------
 BYTE   KEYSH   EverydayBrawls_key+0
Label_0100515E:
 BYTE   VOICE   124
 BYTE   PAN   c_v+0
 BYTE   VOL   34*EverydayBrawls_mvl/mxv
 BYTE   PAN   c_v+0
 BYTE   VOL   34*EverydayBrawls_mvl/mxv
 BYTE   PAN   c_v+0
 BYTE   VOL   34*EverydayBrawls_mvl/mxv
 BYTE   PAN   c_v+0
 BYTE   VOL   34*EverydayBrawls_mvl/mxv
 BYTE   PAN   c_v+0
 BYTE   VOL   34*EverydayBrawls_mvl/mxv
 BYTE   PAN   c_v+0
 BYTE   VOL   34*EverydayBrawls_mvl/mxv
 BYTE   BEND   c_v+0
 BYTE   N11  Cs2  v072
 BYTE   W72
 BYTE   N23  As1
 BYTE   W24
//  #07 //001   ----------------------------------------
Label_01005181:
 BYTE   N11  Cs2  v072
 BYTE   W72
 BYTE   N05  As1
 BYTE   W12
 BYTE   N05
 BYTE   W12
 BYTE   PEND 
//  #07 //002   ----------------------------------------
Label_0100518B:
 BYTE   N11  Cs2  v072
 BYTE   W72
 BYTE   N23  As1
 BYTE   W24
 BYTE   PEND 
//  #07 //003   ----------------------------------------
 BYTE   N44  Cs2
 BYTE   W96
//  #07 //004   ----------------------------------------
 BYTE   PATT
  POIN2 Label_0100518B
//  #07 //005   ----------------------------------------
 BYTE   PATT
  POIN2 Label_01005181
//  #07 //006   ----------------------------------------
 BYTE   PATT
  POIN2 Label_0100518B
//  #07 //007   ----------------------------------------
 BYTE   N44  Cs2  v072
 BYTE   W48
 BYTE   N44
 BYTE   W48
//  #07 //008   ----------------------------------------
 BYTE   N44
 BYTE   W96
//  #07 //009   ----------------------------------------
 BYTE   W96
//  #07 //010   ----------------------------------------
 BYTE   W96
//  #07 //011   ----------------------------------------
 BYTE   W96
//  #07 //012   ----------------------------------------
 BYTE   W96
//  #07 //013   ----------------------------------------
 BYTE   W96
//  #07 //014   ----------------------------------------
 BYTE   Cs2  v100
 BYTE   W96
//  #07 //015   ----------------------------------------
 BYTE   W96
//  #07 //016   ----------------------------------------
 BYTE   W96
//  #07 //017   ----------------------------------------
 BYTE   W96
//  #07 //018   ----------------------------------------
 BYTE   W96
//  #07 //019   ----------------------------------------
 BYTE   W96
//  #07 //020   ----------------------------------------
 BYTE   W96
//  #07 //021   ----------------------------------------
 BYTE   W96
//  #07 //022   ----------------------------------------
 BYTE   Cs2  v072
 BYTE   W96
//  #07 //023   ----------------------------------------
 BYTE   W96
//  #07 //024   ----------------------------------------
 BYTE   W96
//  #07 //025   ----------------------------------------
 BYTE   W96
//  #07 //026   ----------------------------------------
 BYTE   W96
//  #07 //027   ----------------------------------------
 BYTE   W96
//  #07 //028   ----------------------------------------
 BYTE   W96
//  #07 //029   ----------------------------------------
 BYTE   W72
 BYTE   N23  Cs2  v100
 BYTE   W24
//  #07 //030   ----------------------------------------
 BYTE   GoTo
  POIN2 Label_0100515E
//  #07 //031   ----------------------------------------
 BYTE   VOICE   124
 BYTE   PAN   c_v+0
 BYTE   VOL   34*EverydayBrawls_mvl/mxv
 BYTE   PAN   c_v+0
 BYTE   VOL   34*EverydayBrawls_mvl/mxv
 BYTE   PAN   c_v+0
 BYTE   VOL   34*EverydayBrawls_mvl/mxv
 BYTE   BEND   c_v+0
 BYTE   FINE

//**************** Track 8 (Midi-Chn.7) ****************//

EverydayBrawls_008:
//  #08 //000   ----------------------------------------
 BYTE   KEYSH   EverydayBrawls_key+0
Label_01005022:
 BYTE   VOICE   124
 BYTE   PAN   c_v+0
 BYTE   VOL   34*EverydayBrawls_mvl/mxv
 BYTE   PAN   c_v+0
 BYTE   VOL   34*EverydayBrawls_mvl/mxv
 BYTE   PAN   c_v+0
 BYTE   VOL   34*EverydayBrawls_mvl/mxv
 BYTE   PAN   c_v+0
 BYTE   VOL   34*EverydayBrawls_mvl/mxv
 BYTE   PAN   c_v+0
 BYTE   VOL   34*EverydayBrawls_mvl/mxv
 BYTE   PAN   c_v+0
 BYTE   VOL   34*EverydayBrawls_mvl/mxv
 BYTE   BEND   c_v+0
 BYTE   W12
 BYTE   N11  Cn1  v100
 BYTE   W24
 BYTE   N11
 BYTE   W24
 BYTE   N11
 BYTE   W36
//  #08 //001   ----------------------------------------
Label_01005047:
 BYTE   W12
 BYTE   N11  Cn1  v072
 BYTE   W24
 BYTE   Cn1  v100
 BYTE   W24
 BYTE   N11
 BYTE   W36
 BYTE   PEND 
//  #08 //002   ----------------------------------------
 BYTE   PATT
  POIN2 Label_01005047
//  #08 //003   ----------------------------------------
 BYTE   W96
//  #08 //004   ----------------------------------------
 BYTE   PATT
  POIN2 Label_01005047
//  #08 //005   ----------------------------------------
 BYTE   PATT
  POIN2 Label_01005047
//  #08 //006   ----------------------------------------
 BYTE   PATT
  POIN2 Label_01005047
//  #08 //007   ----------------------------------------
 BYTE   W96
//  #08 //008   ----------------------------------------
 BYTE   W96
//  #08 //009   ----------------------------------------
 BYTE   W96
//  #08 //010   ----------------------------------------
 BYTE   W96
//  #08 //011   ----------------------------------------
 BYTE   W96
//  #08 //012   ----------------------------------------
 BYTE   W96
//  #08 //013   ----------------------------------------
 BYTE   W96
//  #08 //014   ----------------------------------------
 BYTE   W96
//  #08 //015   ----------------------------------------
 BYTE   W96
//  #08 //016   ----------------------------------------
 BYTE   W96
//  #08 //017   ----------------------------------------
 BYTE   W96
//  #08 //018   ----------------------------------------
 BYTE   W96
//  #08 //019   ----------------------------------------
 BYTE   W96
//  #08 //020   ----------------------------------------
 BYTE   W96
//  #08 //021   ----------------------------------------
 BYTE   W96
//  #08 //022   ----------------------------------------
 BYTE   W96
//  #08 //023   ----------------------------------------
 BYTE   W96
//  #08 //024   ----------------------------------------
 BYTE   W96
//  #08 //025   ----------------------------------------
 BYTE   W96
//  #08 //026   ----------------------------------------
 BYTE   W96
//  #08 //027   ----------------------------------------
 BYTE   W96
//  #08 //028   ----------------------------------------
 BYTE   W96
//  #08 //029   ----------------------------------------
 BYTE   W96
//  #08 //030   ----------------------------------------
 BYTE   GoTo
  POIN2 Label_01005022
//  #08 //031   ----------------------------------------
 BYTE   PAN   c_v+0
 BYTE   VOL   34*EverydayBrawls_mvl/mxv
 BYTE   PAN   c_v+0
 BYTE   VOL   34*EverydayBrawls_mvl/mxv
 BYTE   PAN   c_v+0
 BYTE   VOL   34*EverydayBrawls_mvl/mxv
 BYTE   BEND   c_v+0
 BYTE   FINE

//******************************************************//
	ALIGN 4

EverydayBrawls:
	BYTE	8	// NumTrks
	BYTE	0	// NumBlks
	BYTE	EverydayBrawls_pri	// Priority
	BYTE	EverydayBrawls_rev	// Reverb.
    
	POIN2	EverydayBrawls_grp
    
	POIN2	EverydayBrawls_001
	POIN2	EverydayBrawls_002
	POIN2	EverydayBrawls_003
	POIN2	EverydayBrawls_004
	POIN2	EverydayBrawls_005
	POIN2	EverydayBrawls_006
	POIN2	EverydayBrawls_007
	POIN2	EverydayBrawls_008

	
