//Event file generated from Sappy .s format.
	#include "MPlayDef.event"

	#define	EverScarletForest_grp  voicegroup000
	#define	EverScarletForest_pri  0
	#define	EverScarletForest_rev  0
	#define	EverScarletForest_mvl  127
	#define	EverScarletForest_key  0
	#define	EverScarletForest_tbs  1
	#define	EverScarletForest_exg  0
	#define	EverScarletForest_cmp  1

	// .rodata
	//	EverScarletForest
	ALIGN 4


//**************** Track 1 (Midi-Chn.0) ****************//

EverScarletForest_001:
//  #01 //000   ----------------------------------------
 BYTE   KEYSH   EverScarletForest_key+0
Label_0198F6F6:
 BYTE   TEMPO   88*EverScarletForest_tbs/2
 BYTE   VOICE   13
 BYTE   VOL   51*EverScarletForest_mvl/mxv
 BYTE   W96
//  #01 //001   ----------------------------------------
 BYTE   W96
//  #01 //002   ----------------------------------------
 BYTE   W96
//  #01 //003   ----------------------------------------
 BYTE   W96
//  #01 //004   ----------------------------------------
 BYTE   W96
//  #01 //005   ----------------------------------------
 BYTE   W96
//  #01 //006   ----------------------------------------
 BYTE   W96
//  #01 //007   ----------------------------------------
 BYTE   W96
//  #01 //008   ----------------------------------------
 BYTE   W96
//  #01 //009   ----------------------------------------
 BYTE   W96
//  #01 //010   ----------------------------------------
 BYTE   W96
//  #01 //011   ----------------------------------------
 BYTE   W96
//  #01 //012   ----------------------------------------
 BYTE   W96
//  #01 //013   ----------------------------------------
 BYTE   W96
//  #01 //014   ----------------------------------------
 BYTE   W96
//  #01 //015   ----------------------------------------
 BYTE   W96
//  #01 //016   ----------------------------------------
 BYTE   W96
//  #01 //017   ----------------------------------------
 BYTE   W96
//  #01 //018   ----------------------------------------
 BYTE   W96
//  #01 //019   ----------------------------------------
 BYTE   W96
//  #01 //020   ----------------------------------------
 BYTE   W96
//  #01 //021   ----------------------------------------
 BYTE   W96
//  #01 //022   ----------------------------------------
 BYTE   W96
//  #01 //023   ----------------------------------------
 BYTE   W96
//  #01 //024   ----------------------------------------
 BYTE   W96
//  #01 //025   ----------------------------------------
 BYTE   W96
//  #01 //026   ----------------------------------------
 BYTE   W96
//  #01 //027   ----------------------------------------
 BYTE   W96
//  #01 //028   ----------------------------------------
 BYTE   W96
//  #01 //029   ----------------------------------------
 BYTE   W96
//  #01 //030   ----------------------------------------
 BYTE   W96
//  #01 //031   ----------------------------------------
 BYTE   W96
//  #01 //032   ----------------------------------------
 BYTE   W96
//  #01 //033   ----------------------------------------
 BYTE   W72
 BYTE   N11  Fn4  v072
 BYTE   W12
 BYTE   Gn4
 BYTE   W12
//  #01 //034   ----------------------------------------
Label_0198F724:
 BYTE   N11  Ds4  v072
 BYTE   W12
 BYTE   Dn4
 BYTE   W12
 BYTE   N40  Ds4
 BYTE   W48
 BYTE   N11  Dn4
 BYTE   W12
 BYTE   Cn4
 BYTE   W12
 BYTE   PEND 
//  #01 //035   ----------------------------------------
 BYTE   As3
 BYTE   W12
 BYTE   An3
 BYTE   W12
 BYTE   N56  As3
 BYTE   W72
//  #01 //036   ----------------------------------------
 BYTE   PATT
  POIN2 Label_0198F724
//  #01 //037   ----------------------------------------
 BYTE   N11  As3  v072
 BYTE   W12
 BYTE   An3
 BYTE   W12
 BYTE   As3
 BYTE   W12
 BYTE   Dn4
 BYTE   W12
 BYTE   N32  An4
 BYTE   W48
//  #01 //038   ----------------------------------------
 BYTE   N92  Dn4  v060
 BYTE   N11  Gn4  v072
 BYTE   W12
 BYTE   Fn4
 BYTE   W12
 BYTE   N40  Gn4
 BYTE   W48
 BYTE   N11
 BYTE   W12
 BYTE   As4
 BYTE   W12
//  #01 //039   ----------------------------------------
 BYTE   N92  Cn4  v060
 BYTE   N23  Fn4
 BYTE   N11  Cn5  v072
 BYTE   W12
 BYTE   As4
 BYTE   W12
 BYTE   N40  Fn4
 BYTE   W48
 BYTE   N23
 BYTE   W24
//  #01 //040   ----------------------------------------
 BYTE   N92  Gs3  v060
 BYTE   N92  As3
 BYTE   N11  Ds4  v072
 BYTE   W12
 BYTE   Dn4
 BYTE   W12
 BYTE   N40  Ds4
 BYTE   W48
 BYTE   N11  As4
 BYTE   W12
 BYTE   Ds5
 BYTE   W12
//  #01 //041   ----------------------------------------
 BYTE   N96  Cn4  v060
 BYTE   N92  Fn4
 BYTE   N11  Fn5  v072
 BYTE   W12
 BYTE   Ds5
 BYTE   W12
 BYTE   N40  As4
 BYTE   W48
 BYTE   N23
 BYTE   W24
//  #01 //042   ----------------------------------------
 BYTE   N05  Cn4  v060
 BYTE   N92  Ds4
 BYTE   N11  Gs4  v072
 BYTE   W12
 BYTE   Fs4
 BYTE   W12
 BYTE   N40  Gs4
 BYTE   W48
 BYTE   N11  Fs4
 BYTE   W12
 BYTE   Gs4
 BYTE   W12
//  #01 //043   ----------------------------------------
 BYTE   N92  An3  v060
 BYTE   N92  Cn4
 BYTE   N11  Gs4  v072
 BYTE   W12
 BYTE   Fs4
 BYTE   W12
 BYTE   N40  Fn4
 BYTE   W48
 BYTE   N23  Ds4
 BYTE   W24
//  #01 //044   ----------------------------------------
 BYTE   TIE  As3  v060
 BYTE   N92  Ds4  v072
 BYTE   W96
//  #01 //045   ----------------------------------------
 BYTE   N68  Dn4  v060
 BYTE   N68  As4  v072
 BYTE   W68
 BYTE   W03
 BYTE   EOT
 BYTE   As3
 BYTE   W24
 BYTE   W01
//  #01 //046   ----------------------------------------
 BYTE   W96
//  #01 //047   ----------------------------------------
 BYTE   W96
//  #01 //048   ----------------------------------------
 BYTE   W96
//  #01 //049   ----------------------------------------
 BYTE   W96
//  #01 //050   ----------------------------------------
 BYTE   GoTo
  POIN2 Label_0198F6F6
 BYTE   FINE

//**************** Track 2 (Midi-Chn.1) ****************//

EverScarletForest_002:
//  #02 //000   ----------------------------------------
 BYTE   KEYSH   EverScarletForest_key+0
Label_0198F3B6:
 BYTE   VOICE   13
 BYTE   W96
//  #02 //001   ----------------------------------------
 BYTE   W96
//  #02 //002   ----------------------------------------
 BYTE   W96
//  #02 //003   ----------------------------------------
 BYTE   W96
//  #02 //004   ----------------------------------------
 BYTE   W96
//  #02 //005   ----------------------------------------
 BYTE   W96
//  #02 //006   ----------------------------------------
 BYTE   W96
//  #02 //007   ----------------------------------------
 BYTE   W96
//  #02 //008   ----------------------------------------
 BYTE   W96
//  #02 //009   ----------------------------------------
 BYTE   W96
//  #02 //010   ----------------------------------------
 BYTE   W96
//  #02 //011   ----------------------------------------
 BYTE   W96
//  #02 //012   ----------------------------------------
 BYTE   W96
//  #02 //013   ----------------------------------------
 BYTE   W96
//  #02 //014   ----------------------------------------
 BYTE   W96
//  #02 //015   ----------------------------------------
 BYTE   W96
//  #02 //016   ----------------------------------------
 BYTE   W96
//  #02 //017   ----------------------------------------
 BYTE   W96
//  #02 //018   ----------------------------------------
 BYTE   W96
//  #02 //019   ----------------------------------------
 BYTE   W96
//  #02 //020   ----------------------------------------
 BYTE   W96
//  #02 //021   ----------------------------------------
 BYTE   W96
//  #02 //022   ----------------------------------------
 BYTE   W96
//  #02 //023   ----------------------------------------
 BYTE   W96
//  #02 //024   ----------------------------------------
 BYTE   W96
//  #02 //025   ----------------------------------------
 BYTE   W96
//  #02 //026   ----------------------------------------
 BYTE   W96
//  #02 //027   ----------------------------------------
 BYTE   W96
//  #02 //028   ----------------------------------------
 BYTE   W96
//  #02 //029   ----------------------------------------
 BYTE   W96
//  #02 //030   ----------------------------------------
 BYTE   VOL   51*EverScarletForest_mvl/mxv
 BYTE   N11  Dn4  v100
 BYTE   W12
 BYTE   Cn4
 BYTE   W12
 BYTE   N40  Gn3
 BYTE   W48
 BYTE   N11  Fn3
 BYTE   W12
 BYTE   Ds3
 BYTE   W12
//  #02 //031   ----------------------------------------
 BYTE   Fn3
 BYTE   W12
 BYTE   Ds3
 BYTE   W12
 BYTE   N40  Fn3
 BYTE   W48
 BYTE   N23  Gn3
 BYTE   W24
//  #02 //032   ----------------------------------------
 BYTE   N11  Dn4
 BYTE   W12
 BYTE   Cn4
 BYTE   W12
 BYTE   N40  Gn3
 BYTE   W48
 BYTE   N11  Fn3
 BYTE   W12
 BYTE   Ds3
 BYTE   W12
//  #02 //033   ----------------------------------------
 BYTE   Fn3
 BYTE   W12
 BYTE   Ds3
 BYTE   W12
 BYTE   N40  Fn3
 BYTE   W48
 BYTE   N11
 BYTE   W12
 BYTE   Gn3
 BYTE   W12
//  #02 //034   ----------------------------------------
Label_0198F408:
 BYTE   N11  Ds3  v100
 BYTE   W12
 BYTE   Dn3
 BYTE   W12
 BYTE   N40  Ds3
 BYTE   W48
 BYTE   N11  Dn3
 BYTE   W12
 BYTE   Cn3
 BYTE   W12
 BYTE   PEND 
//  #02 //035   ----------------------------------------
 BYTE   As2
 BYTE   W12
 BYTE   An2
 BYTE   W12
 BYTE   N56  As2
 BYTE   W72
//  #02 //036   ----------------------------------------
 BYTE   PATT
  POIN2 Label_0198F408
//  #02 //037   ----------------------------------------
 BYTE   N11  As2  v100
 BYTE   W12
 BYTE   An2
 BYTE   W12
 BYTE   N56  As2
 BYTE   W12
 BYTE   N44  Dn3
 BYTE   W60
//  #02 //038   ----------------------------------------
 BYTE   N11  Gn3
 BYTE   W12
 BYTE   Fn3
 BYTE   W12
 BYTE   N40  Gn3
 BYTE   W48
 BYTE   N11
 BYTE   W12
 BYTE   As3
 BYTE   W12
//  #02 //039   ----------------------------------------
 BYTE   Cn4
 BYTE   W12
 BYTE   As3
 BYTE   W12
 BYTE   N40  Fn3
 BYTE   W48
 BYTE   N23
 BYTE   W24
//  #02 //040   ----------------------------------------
 BYTE   N11  Ds3
 BYTE   W12
 BYTE   Dn3
 BYTE   W12
 BYTE   N40  Ds3
 BYTE   W48
 BYTE   N11  As3
 BYTE   W12
 BYTE   Ds4
 BYTE   W12
//  #02 //041   ----------------------------------------
 BYTE   Fn4
 BYTE   W12
 BYTE   Ds4
 BYTE   W12
 BYTE   N40  As3
 BYTE   W48
 BYTE   N23
 BYTE   W24
//  #02 //042   ----------------------------------------
 BYTE   N11  Gs3
 BYTE   W12
 BYTE   Fs3
 BYTE   W12
 BYTE   N40  Gs3
 BYTE   W48
 BYTE   N11  Fs3
 BYTE   W12
 BYTE   Gs3
 BYTE   W12
//  #02 //043   ----------------------------------------
 BYTE   N11
 BYTE   W12
 BYTE   Fs3
 BYTE   W12
 BYTE   N40  Fn3
 BYTE   W48
 BYTE   N23  Ds3
 BYTE   W24
//  #02 //044   ----------------------------------------
 BYTE   N92
 BYTE   W96
//  #02 //045   ----------------------------------------
 BYTE   N68  Dn3
 BYTE   N68  As3
 BYTE   W42
 BYTE   W06
 BYTE   W06
 BYTE   W06
 BYTE   W06
 BYTE   W06
 BYTE   W12
 BYTE   W06
 BYTE   VOL   51*EverScarletForest_mvl/mxv
 BYTE   W06
//  #02 //046   ----------------------------------------
 BYTE   TIE  Dn3  v080
 BYTE   TIE  An3
 BYTE   W06
 BYTE   W06
 BYTE   W06
 BYTE   W06
 BYTE   W06
 BYTE   W06
 BYTE   W06
 BYTE   VOL   50*EverScarletForest_mvl/mxv
 BYTE   W06
 BYTE   VOL   50*EverScarletForest_mvl/mxv
 BYTE   W06
 BYTE   W06
 BYTE   VOL   49*EverScarletForest_mvl/mxv
 BYTE   W06
 BYTE   VOL   48*EverScarletForest_mvl/mxv
 BYTE   W06
 BYTE   VOL   48*EverScarletForest_mvl/mxv
 BYTE   W06
 BYTE   VOL   48*EverScarletForest_mvl/mxv
 BYTE   W06
 BYTE   VOL   47*EverScarletForest_mvl/mxv
 BYTE   W06
 BYTE   VOL   47*EverScarletForest_mvl/mxv
 BYTE   W06
//  #02 //047   ----------------------------------------
 BYTE   VOL   46*EverScarletForest_mvl/mxv
 BYTE   W06
 BYTE   VOL   45*EverScarletForest_mvl/mxv
 BYTE   W06
 BYTE   VOL   45*EverScarletForest_mvl/mxv
 BYTE   W06
 BYTE   VOL   44*EverScarletForest_mvl/mxv
 BYTE   W06
 BYTE   VOL   44*EverScarletForest_mvl/mxv
 BYTE   W06
 BYTE   VOL   42*EverScarletForest_mvl/mxv
 BYTE   W06
 BYTE   VOL   42*EverScarletForest_mvl/mxv
 BYTE   W06
 BYTE   VOL   41*EverScarletForest_mvl/mxv
 BYTE   W06
 BYTE   VOL   40*EverScarletForest_mvl/mxv
 BYTE   W06
 BYTE   VOL   39*EverScarletForest_mvl/mxv
 BYTE   W06
 BYTE   VOL   38*EverScarletForest_mvl/mxv
 BYTE   W06
 BYTE   VOL   38*EverScarletForest_mvl/mxv
 BYTE   W06
 BYTE   VOL   36*EverScarletForest_mvl/mxv
 BYTE   W06
 BYTE   VOL   36*EverScarletForest_mvl/mxv
 BYTE   W06
 BYTE   VOL   34*EverScarletForest_mvl/mxv
 BYTE   W06
 BYTE   VOL   33*EverScarletForest_mvl/mxv
 BYTE   W06
//  #02 //048   ----------------------------------------
 BYTE   VOL   32*EverScarletForest_mvl/mxv
 BYTE   W06
 BYTE   VOL   31*EverScarletForest_mvl/mxv
 BYTE   W06
 BYTE   VOL   30*EverScarletForest_mvl/mxv
 BYTE   W06
 BYTE   VOL   28*EverScarletForest_mvl/mxv
 BYTE   W06
 BYTE   VOL   28*EverScarletForest_mvl/mxv
 BYTE   W06
 BYTE   VOL   26*EverScarletForest_mvl/mxv
 BYTE   W06
 BYTE   VOL   25*EverScarletForest_mvl/mxv
 BYTE   W06
 BYTE   VOL   23*EverScarletForest_mvl/mxv
 BYTE   W06
 BYTE   VOL   22*EverScarletForest_mvl/mxv
 BYTE   W06
 BYTE   VOL   20*EverScarletForest_mvl/mxv
 BYTE   W06
 BYTE   VOL   19*EverScarletForest_mvl/mxv
 BYTE   W06
 BYTE   VOL   17*EverScarletForest_mvl/mxv
 BYTE   W06
 BYTE   VOL   16*EverScarletForest_mvl/mxv
 BYTE   W06
 BYTE   VOL   14*EverScarletForest_mvl/mxv
 BYTE   W06
 BYTE   VOL   13*EverScarletForest_mvl/mxv
 BYTE   W06
 BYTE   VOL   11*EverScarletForest_mvl/mxv
 BYTE   W06
//  #02 //049   ----------------------------------------
 BYTE   VOL   9*EverScarletForest_mvl/mxv
 BYTE   W06
 BYTE   VOL   8*EverScarletForest_mvl/mxv
 BYTE   W40
 BYTE   W01
 BYTE   EOT
 BYTE   EOT
 BYTE   Dn3  v069
 BYTE   W48
 BYTE   W01
//  #02 //050   ----------------------------------------
 BYTE   GoTo
  POIN2 Label_0198F3B6
 BYTE   FINE

//**************** Track 3 (Midi-Chn.2) ****************//

EverScarletForest_003:
//  #03 //000   ----------------------------------------
 BYTE   KEYSH   EverScarletForest_key+0
Label_017A9D72:
 BYTE   VOICE   1
 BYTE   VOL   51*EverScarletForest_mvl/mxv
 BYTE   PAN   c_v+0
 BYTE   W96
//  #03 //001   ----------------------------------------
 BYTE   W96
//  #03 //002   ----------------------------------------
 BYTE   W96
//  #03 //003   ----------------------------------------
 BYTE   W96
//  #03 //004   ----------------------------------------
 BYTE   W96
//  #03 //005   ----------------------------------------
 BYTE   W96
//  #03 //006   ----------------------------------------
 BYTE   W96
//  #03 //007   ----------------------------------------
 BYTE   W96
//  #03 //008   ----------------------------------------
 BYTE   W96
//  #03 //009   ----------------------------------------
 BYTE   W96
//  #03 //010   ----------------------------------------
 BYTE   W96
//  #03 //011   ----------------------------------------
 BYTE   W96
//  #03 //012   ----------------------------------------
 BYTE   W96
//  #03 //013   ----------------------------------------
 BYTE   W96
//  #03 //014   ----------------------------------------
 BYTE   W96
//  #03 //015   ----------------------------------------
 BYTE   W96
//  #03 //016   ----------------------------------------
 BYTE   W96
//  #03 //017   ----------------------------------------
 BYTE   W96
//  #03 //018   ----------------------------------------
 BYTE   W96
//  #03 //019   ----------------------------------------
 BYTE   W96
//  #03 //020   ----------------------------------------
 BYTE   W96
//  #03 //021   ----------------------------------------
 BYTE   W96
//  #03 //022   ----------------------------------------
 BYTE   W96
//  #03 //023   ----------------------------------------
 BYTE   W96
//  #03 //024   ----------------------------------------
 BYTE   W96
//  #03 //025   ----------------------------------------
 BYTE   W96
//  #03 //026   ----------------------------------------
 BYTE   W96
//  #03 //027   ----------------------------------------
 BYTE   W96
//  #03 //028   ----------------------------------------
 BYTE   W96
//  #03 //029   ----------------------------------------
 BYTE   W96
//  #03 //030   ----------------------------------------
 BYTE   VOL   51*EverScarletForest_mvl/mxv
 BYTE   N92  Ds2  v092
 BYTE   N92  As2
 BYTE   N92  Dn3
 BYTE   W96
//  #03 //031   ----------------------------------------
Label_017A9DA0:
 BYTE   N92  Cs2  v092
 BYTE   N92  Gs2
 BYTE   N92  Cn3
 BYTE   W96
 BYTE   PEND 
//  #03 //032   ----------------------------------------
 BYTE   Ds2
 BYTE   N92  As2
 BYTE   N92  Dn3
 BYTE   W96
//  #03 //033   ----------------------------------------
 BYTE   PATT
  POIN2 Label_017A9DA0
//  #03 //034   ----------------------------------------
Label_017A9DB4:
 BYTE   N92  Cn2  v092
 BYTE   N92  Gn2
 BYTE   N92  As2
 BYTE   W96
 BYTE   PEND 
//  #03 //035   ----------------------------------------
 BYTE   Gn1
 BYTE   N92  Dn2
 BYTE   N92  Fn2
 BYTE   W96
//  #03 //036   ----------------------------------------
 BYTE   PATT
  POIN2 Label_017A9DB4
//  #03 //037   ----------------------------------------
 BYTE   N80  Gn1  v092
 BYTE   N80  Dn2
 BYTE   N80  Fn2
 BYTE   W96
//  #03 //038   ----------------------------------------
 BYTE   N92  Ds2
 BYTE   N44  Bn2
 BYTE   N92  Dn3  v084
 BYTE   W48
 BYTE   N44  As2  v092
 BYTE   W48
//  #03 //039   ----------------------------------------
 BYTE   N92  Cs2
 BYTE   N92  As2
 BYTE   N92  Fn3  v084
 BYTE   W96
//  #03 //040   ----------------------------------------
 BYTE   Bn1  v092
 BYTE   N92  Gs2
 BYTE   N92  Ds3  v084
 BYTE   W96
//  #03 //041   ----------------------------------------
 BYTE   As1  v092
 BYTE   N92  Fs2
 BYTE   N92  Cn3  v084
 BYTE   W96
//  #03 //042   ----------------------------------------
 BYTE   Fs1  v092
 BYTE   N92  Ds2
 BYTE   N92  Gs2
 BYTE   N92  Cn3  v084
 BYTE   W96
//  #03 //043   ----------------------------------------
 BYTE   Fn1  v092
 BYTE   N92  Ds2
 BYTE   N92  An2
 BYTE   N92  Cn3  v084
 BYTE   W96
//  #03 //044   ----------------------------------------
 BYTE   TIE  As1  v092
 BYTE   TIE  Fn2
 BYTE   W96
//  #03 //045   ----------------------------------------
 BYTE   W68
 BYTE   W03
 BYTE   EOT
 BYTE   As1  v053
 BYTE   W24
 BYTE   W01
//  #03 //046   ----------------------------------------
 BYTE   VOL   51*EverScarletForest_mvl/mxv
 BYTE   TIE  As2
 BYTE   TIE  Fs3
 BYTE   W48
 BYTE   VOL   50*EverScarletForest_mvl/mxv
 BYTE   W06
 BYTE   VOL   50*EverScarletForest_mvl/mxv
 BYTE   W06
 BYTE   VOL   49*EverScarletForest_mvl/mxv
 BYTE   W06
 BYTE   VOL   48*EverScarletForest_mvl/mxv
 BYTE   W12
 BYTE   VOL   48*EverScarletForest_mvl/mxv
 BYTE   W06
 BYTE   VOL   47*EverScarletForest_mvl/mxv
 BYTE   W06
 BYTE   VOL   47*EverScarletForest_mvl/mxv
 BYTE   W06
//  #03 //047   ----------------------------------------
 BYTE   VOL   46*EverScarletForest_mvl/mxv
 BYTE   W06
 BYTE   VOL   45*EverScarletForest_mvl/mxv
 BYTE   W06
 BYTE   VOL   45*EverScarletForest_mvl/mxv
 BYTE   W06
 BYTE   VOL   44*EverScarletForest_mvl/mxv
 BYTE   W06
 BYTE   VOL   43*EverScarletForest_mvl/mxv
 BYTE   W06
 BYTE   VOL   42*EverScarletForest_mvl/mxv
 BYTE   W06
 BYTE   VOL   42*EverScarletForest_mvl/mxv
 BYTE   W06
 BYTE   VOL   41*EverScarletForest_mvl/mxv
 BYTE   W06
 BYTE   VOL   40*EverScarletForest_mvl/mxv
 BYTE   W06
 BYTE   VOL   39*EverScarletForest_mvl/mxv
 BYTE   W06
 BYTE   VOL   38*EverScarletForest_mvl/mxv
 BYTE   W06
 BYTE   VOL   37*EverScarletForest_mvl/mxv
 BYTE   W06
 BYTE   VOL   36*EverScarletForest_mvl/mxv
 BYTE   W06
 BYTE   VOL   35*EverScarletForest_mvl/mxv
 BYTE   W06
 BYTE   VOL   34*EverScarletForest_mvl/mxv
 BYTE   W06
 BYTE   VOL   33*EverScarletForest_mvl/mxv
 BYTE   W06
//  #03 //048   ----------------------------------------
 BYTE   VOL   31*EverScarletForest_mvl/mxv
 BYTE   W06
 BYTE   VOL   30*EverScarletForest_mvl/mxv
 BYTE   W06
 BYTE   VOL   29*EverScarletForest_mvl/mxv
 BYTE   W06
 BYTE   VOL   28*EverScarletForest_mvl/mxv
 BYTE   W06
 BYTE   VOL   26*EverScarletForest_mvl/mxv
 BYTE   W06
 BYTE   VOL   25*EverScarletForest_mvl/mxv
 BYTE   W06
 BYTE   VOL   23*EverScarletForest_mvl/mxv
 BYTE   W06
 BYTE   VOL   22*EverScarletForest_mvl/mxv
 BYTE   W06
 BYTE   VOL   20*EverScarletForest_mvl/mxv
 BYTE   W06
 BYTE   VOL   19*EverScarletForest_mvl/mxv
 BYTE   W06
 BYTE   VOL   17*EverScarletForest_mvl/mxv
 BYTE   W06
 BYTE   VOL   15*EverScarletForest_mvl/mxv
 BYTE   W06
 BYTE   VOL   14*EverScarletForest_mvl/mxv
 BYTE   W06
 BYTE   VOL   12*EverScarletForest_mvl/mxv
 BYTE   W18
//  #03 //049   ----------------------------------------
 BYTE   W44
 BYTE   W03
 BYTE   EOT
 BYTE   EOT
 BYTE   As2  v066
 BYTE   W48
 BYTE   W01
//  #03 //050   ----------------------------------------
 BYTE   GoTo
  POIN2 Label_017A9D72
 BYTE   FINE

//**************** Track 4 (Midi-Chn.3) ****************//

EverScarletForest_004:
//  #04 //000   ----------------------------------------
 BYTE   KEYSH   EverScarletForest_key+0
Label_017A9E8A:
 BYTE   VOICE   1
 BYTE   VOL   51*EverScarletForest_mvl/mxv
 BYTE   PAN   c_v-63
 BYTE   W96
//  #04 //001   ----------------------------------------
 BYTE   W96
//  #04 //002   ----------------------------------------
 BYTE   W96
//  #04 //003   ----------------------------------------
 BYTE   W96
//  #04 //004   ----------------------------------------
 BYTE   W96
//  #04 //005   ----------------------------------------
 BYTE   W96
//  #04 //006   ----------------------------------------
 BYTE   W96
//  #04 //007   ----------------------------------------
 BYTE   W96
//  #04 //008   ----------------------------------------
 BYTE   W96
//  #04 //009   ----------------------------------------
 BYTE   W96
//  #04 //010   ----------------------------------------
 BYTE   W96
//  #04 //011   ----------------------------------------
 BYTE   W96
//  #04 //012   ----------------------------------------
 BYTE   W96
//  #04 //013   ----------------------------------------
 BYTE   W96
//  #04 //014   ----------------------------------------
 BYTE   W96
//  #04 //015   ----------------------------------------
 BYTE   W96
//  #04 //016   ----------------------------------------
 BYTE   W96
//  #04 //017   ----------------------------------------
 BYTE   W96
//  #04 //018   ----------------------------------------
 BYTE   W96
//  #04 //019   ----------------------------------------
 BYTE   W96
//  #04 //020   ----------------------------------------
 BYTE   W96
//  #04 //021   ----------------------------------------
 BYTE   W96
//  #04 //022   ----------------------------------------
 BYTE   W96
//  #04 //023   ----------------------------------------
 BYTE   W96
//  #04 //024   ----------------------------------------
 BYTE   W96
//  #04 //025   ----------------------------------------
 BYTE   W96
//  #04 //026   ----------------------------------------
 BYTE   W96
//  #04 //027   ----------------------------------------
 BYTE   W96
//  #04 //028   ----------------------------------------
 BYTE   W96
//  #04 //029   ----------------------------------------
 BYTE   W96
//  #04 //030   ----------------------------------------
 BYTE   W06
 BYTE   VOL   31*EverScarletForest_mvl/mxv
 BYTE   BEND   c_v+0
 BYTE   N11  Dn4  v092
 BYTE   W06
 BYTE   BEND   c_v+1
 BYTE   W06
 BYTE   N11  Cn4
 BYTE   W12
 BYTE   N40  Gn3
 BYTE   W48
 BYTE   N11  Fn3
 BYTE   W12
 BYTE   Ds3
 BYTE   W06
//  #04 //031   ----------------------------------------
 BYTE   W06
 BYTE   Fn3
 BYTE   W12
 BYTE   Ds3
 BYTE   W12
 BYTE   N40  Fn3
 BYTE   W48
 BYTE   N23  Gn3
 BYTE   W18
//  #04 //032   ----------------------------------------
 BYTE   W06
 BYTE   N11  Dn4
 BYTE   W12
 BYTE   Cn4
 BYTE   W12
 BYTE   N40  Gn3
 BYTE   W48
 BYTE   N11  Fn3
 BYTE   W12
 BYTE   Ds3
 BYTE   W06
//  #04 //033   ----------------------------------------
 BYTE   W06
 BYTE   Fn3
 BYTE   W12
 BYTE   Ds3
 BYTE   W12
 BYTE   N40  Fn3
 BYTE   W48
 BYTE   N11
 BYTE   W12
 BYTE   Gn3
 BYTE   W06
//  #04 //034   ----------------------------------------
Label_017A9EEA:
 BYTE   W06
 BYTE   N11  Ds3  v092
 BYTE   W12
 BYTE   Dn3
 BYTE   W12
 BYTE   N40  Ds3
 BYTE   W48
 BYTE   N11  Dn3
 BYTE   W12
 BYTE   Cn3
 BYTE   W06
 BYTE   PEND 
//  #04 //035   ----------------------------------------
 BYTE   W06
 BYTE   As2
 BYTE   W12
 BYTE   An2
 BYTE   W12
 BYTE   N56  As2
 BYTE   W66
//  #04 //036   ----------------------------------------
 BYTE   PATT
  POIN2 Label_017A9EEA
//  #04 //037   ----------------------------------------
 BYTE   W06
 BYTE   N11  As2  v092
 BYTE   W12
 BYTE   An2
 BYTE   W12
 BYTE   N56  As2
 BYTE   W12
 BYTE   N44  Dn3
 BYTE   W54
//  #04 //038   ----------------------------------------
 BYTE   W06
 BYTE   N11  Gn3
 BYTE   W12
 BYTE   Fn3
 BYTE   W12
 BYTE   N40  Gn3
 BYTE   W48
 BYTE   N11
 BYTE   W12
 BYTE   As3
 BYTE   W06
//  #04 //039   ----------------------------------------
 BYTE   W06
 BYTE   Cn4
 BYTE   W12
 BYTE   As3
 BYTE   W12
 BYTE   N40  Fn3
 BYTE   W48
 BYTE   N23
 BYTE   W18
//  #04 //040   ----------------------------------------
 BYTE   W06
 BYTE   N11  Ds3
 BYTE   W12
 BYTE   Dn3
 BYTE   W12
 BYTE   N40  Ds3
 BYTE   W48
 BYTE   N11  As3
 BYTE   W12
 BYTE   Ds4
 BYTE   W06
//  #04 //041   ----------------------------------------
 BYTE   W06
 BYTE   Fn4
 BYTE   W12
 BYTE   Ds4
 BYTE   W12
 BYTE   N40  As3
 BYTE   W48
 BYTE   N23
 BYTE   W18
//  #04 //042   ----------------------------------------
 BYTE   W06
 BYTE   N11  Gs3
 BYTE   W12
 BYTE   Fs3
 BYTE   W12
 BYTE   N40  Gs3
 BYTE   W48
 BYTE   N11  Fs3
 BYTE   W12
 BYTE   Gs3
 BYTE   W06
//  #04 //043   ----------------------------------------
 BYTE   W06
 BYTE   N11
 BYTE   W12
 BYTE   Fs3
 BYTE   W12
 BYTE   N40  Fn3
 BYTE   W48
 BYTE   N23  Ds3
 BYTE   W18
//  #04 //044   ----------------------------------------
 BYTE   W06
 BYTE   N92
 BYTE   W90
//  #04 //045   ----------------------------------------
 BYTE   W06
 BYTE   N68  Dn3
 BYTE   N68  As3
 BYTE   W42
 BYTE   W06
 BYTE   W06
 BYTE   W06
 BYTE   W06
 BYTE   W06
 BYTE   W12
 BYTE   VOL   30*EverScarletForest_mvl/mxv
 BYTE   W06
//  #04 //046   ----------------------------------------
 BYTE   W06
 BYTE   TIE  Dn3  v072
 BYTE   TIE  An3
 BYTE   W06
 BYTE   W06
 BYTE   W06
 BYTE   W06
 BYTE   W06
 BYTE   VOL   29*EverScarletForest_mvl/mxv
 BYTE   W06
 BYTE   W06
 BYTE   W06
 BYTE   W06
 BYTE   VOL   29*EverScarletForest_mvl/mxv
 BYTE   W06
 BYTE   W06
 BYTE   VOL   28*EverScarletForest_mvl/mxv
 BYTE   W06
 BYTE   W06
 BYTE   VOL   28*EverScarletForest_mvl/mxv
 BYTE   W06
 BYTE   VOL   28*EverScarletForest_mvl/mxv
 BYTE   W06
//  #04 //047   ----------------------------------------
 BYTE   W06
 BYTE   VOL   27*EverScarletForest_mvl/mxv
 BYTE   W06
 BYTE   VOL   27*EverScarletForest_mvl/mxv
 BYTE   W06
 BYTE   VOL   26*EverScarletForest_mvl/mxv
 BYTE   W06
 BYTE   VOL   26*EverScarletForest_mvl/mxv
 BYTE   W06
 BYTE   VOL   26*EverScarletForest_mvl/mxv
 BYTE   W06
 BYTE   W06
 BYTE   VOL   25*EverScarletForest_mvl/mxv
 BYTE   W06
 BYTE   VOL   25*EverScarletForest_mvl/mxv
 BYTE   W06
 BYTE   VOL   24*EverScarletForest_mvl/mxv
 BYTE   W06
 BYTE   W06
 BYTE   VOL   24*EverScarletForest_mvl/mxv
 BYTE   W06
 BYTE   VOL   23*EverScarletForest_mvl/mxv
 BYTE   W06
 BYTE   VOL   22*EverScarletForest_mvl/mxv
 BYTE   W06
 BYTE   VOL   22*EverScarletForest_mvl/mxv
 BYTE   W06
 BYTE   VOL   22*EverScarletForest_mvl/mxv
 BYTE   W06
//  #04 //048   ----------------------------------------
 BYTE   VOL   21*EverScarletForest_mvl/mxv
 BYTE   W06
 BYTE   VOL   20*EverScarletForest_mvl/mxv
 BYTE   W06
 BYTE   VOL   20*EverScarletForest_mvl/mxv
 BYTE   W06
 BYTE   VOL   19*EverScarletForest_mvl/mxv
 BYTE   W06
 BYTE   VOL   19*EverScarletForest_mvl/mxv
 BYTE   W06
 BYTE   VOL   18*EverScarletForest_mvl/mxv
 BYTE   W06
 BYTE   VOL   17*EverScarletForest_mvl/mxv
 BYTE   W06
 BYTE   VOL   17*EverScarletForest_mvl/mxv
 BYTE   W06
 BYTE   VOL   16*EverScarletForest_mvl/mxv
 BYTE   W06
 BYTE   VOL   15*EverScarletForest_mvl/mxv
 BYTE   W06
 BYTE   VOL   15*EverScarletForest_mvl/mxv
 BYTE   W06
 BYTE   VOL   14*EverScarletForest_mvl/mxv
 BYTE   W06
 BYTE   VOL   13*EverScarletForest_mvl/mxv
 BYTE   W06
 BYTE   VOL   12*EverScarletForest_mvl/mxv
 BYTE   W06
 BYTE   VOL   12*EverScarletForest_mvl/mxv
 BYTE   W06
 BYTE   VOL   11*EverScarletForest_mvl/mxv
 BYTE   W06
//  #04 //049   ----------------------------------------
 BYTE   VOL   10*EverScarletForest_mvl/mxv
 BYTE   W06
 BYTE   VOL   9*EverScarletForest_mvl/mxv
 BYTE   W06
 BYTE   VOL   8*EverScarletForest_mvl/mxv
 BYTE   W40
 BYTE   W01
 BYTE   EOT
 BYTE   EOT
 BYTE   Dn3  v069
 BYTE   W42
 BYTE   W01
//  #04 //050   ----------------------------------------
 BYTE   GoTo
  POIN2 Label_017A9E8A
 BYTE   FINE

//**************** Track 5 (Midi-Chn.4) ****************//

EverScarletForest_005:
//  #05 //000   ----------------------------------------
 BYTE   KEYSH   EverScarletForest_key+0
Label_017A9FEE:
 BYTE   VOICE   74
 BYTE   VOL   51*EverScarletForest_mvl/mxv
 BYTE   PAN   c_v+30
 BYTE   W96
//  #05 //001   ----------------------------------------
 BYTE   W96
//  #05 //002   ----------------------------------------
 BYTE   W96
//  #05 //003   ----------------------------------------
 BYTE   W96
//  #05 //004   ----------------------------------------
 BYTE   W96
//  #05 //005   ----------------------------------------
 BYTE   W96
//  #05 //006   ----------------------------------------
 BYTE   W96
//  #05 //007   ----------------------------------------
 BYTE   W96
//  #05 //008   ----------------------------------------
 BYTE   W96
//  #05 //009   ----------------------------------------
 BYTE   W96
//  #05 //010   ----------------------------------------
 BYTE   W96
//  #05 //011   ----------------------------------------
 BYTE   W96
//  #05 //012   ----------------------------------------
 BYTE   W96
//  #05 //013   ----------------------------------------
 BYTE   W96
//  #05 //014   ----------------------------------------
 BYTE   W96
//  #05 //015   ----------------------------------------
 BYTE   W96
//  #05 //016   ----------------------------------------
Label_017AA004:
 BYTE   N23  En4  v056
 BYTE   W12
 BYTE   Gn3
 BYTE   W12
 BYTE   Dn4
 BYTE   W12
 BYTE   Gn3
 BYTE   W12
 BYTE   Cn4
 BYTE   W12
 BYTE   Gn3
 BYTE   W12
 BYTE   An3
 BYTE   W12
 BYTE   Gn3
 BYTE   W12
 BYTE   PEND 
//  #05 //017   ----------------------------------------
Label_017AA017:
 BYTE   N23  Bn3  v056
 BYTE   W12
 BYTE   En3
 BYTE   W12
 BYTE   Gn3
 BYTE   W12
 BYTE   En3
 BYTE   W12
 BYTE   An3
 BYTE   W12
 BYTE   En3
 BYTE   W12
 BYTE   Gn3
 BYTE   W12
 BYTE   En3
 BYTE   W12
 BYTE   PEND 
//  #05 //018   ----------------------------------------
 BYTE   PATT
  POIN2 Label_017AA004
//  #05 //019   ----------------------------------------
 BYTE   PATT
  POIN2 Label_017AA017
//  #05 //020   ----------------------------------------
Label_017AA034:
 BYTE   N23  Cn4  v056
 BYTE   W12
 BYTE   Fn3
 BYTE   W12
 BYTE   As3
 BYTE   W12
 BYTE   Fn3
 BYTE   W12
 BYTE   Cn4
 BYTE   W12
 BYTE   Fn3
 BYTE   W12
 BYTE   As3
 BYTE   W12
 BYTE   Fn3
 BYTE   W12
 BYTE   PEND 
//  #05 //021   ----------------------------------------
Label_017AA047:
 BYTE   N23  As3  v056
 BYTE   W12
 BYTE   Fn3
 BYTE   W12
 BYTE   Cn4
 BYTE   W12
 BYTE   Fn3
 BYTE   W12
 BYTE   As3
 BYTE   W12
 BYTE   Fn3
 BYTE   W12
 BYTE   Cn4
 BYTE   W12
 BYTE   Fn3
 BYTE   W12
 BYTE   PEND 
//  #05 //022   ----------------------------------------
 BYTE   PATT
  POIN2 Label_017AA034
//  #05 //023   ----------------------------------------
 BYTE   PATT
  POIN2 Label_017AA047
//  #05 //024   ----------------------------------------
 BYTE   PATT
  POIN2 Label_017AA034
//  #05 //025   ----------------------------------------
 BYTE   PATT
  POIN2 Label_017AA034
//  #05 //026   ----------------------------------------
 BYTE   PATT
  POIN2 Label_017AA034
//  #05 //027   ----------------------------------------
 BYTE   PATT
  POIN2 Label_017AA034
//  #05 //028   ----------------------------------------
 BYTE   N23  Cn4  v056
 BYTE   W12
 BYTE   Fn3
 BYTE   W12
 BYTE   Gn3
 BYTE   W12
 BYTE   Fn3
 BYTE   W12
 BYTE   Cn4
 BYTE   W12
 BYTE   Fn3
 BYTE   W12
 BYTE   Gn3
 BYTE   W12
 BYTE   Fn3
 BYTE   W12
//  #05 //029   ----------------------------------------
 BYTE   N92  Cn4
 BYTE   W96
//  #05 //030   ----------------------------------------
 BYTE   W96
//  #05 //031   ----------------------------------------
 BYTE   W96
//  #05 //032   ----------------------------------------
 BYTE   W96
//  #05 //033   ----------------------------------------
 BYTE   W96
//  #05 //034   ----------------------------------------
 BYTE   W96
//  #05 //035   ----------------------------------------
 BYTE   W96
//  #05 //036   ----------------------------------------
 BYTE   W96
//  #05 //037   ----------------------------------------
 BYTE   W96
//  #05 //038   ----------------------------------------
 BYTE   N11  Gn4  v060
 BYTE   W12
 BYTE   Dn4
 BYTE   W12
 BYTE   N11
 BYTE   W12
 BYTE   Gn3
 BYTE   W12
 BYTE   Gn4
 BYTE   W12
 BYTE   Dn4
 BYTE   W12
 BYTE   N11
 BYTE   W12
 BYTE   Gn3
 BYTE   W12
//  #05 //039   ----------------------------------------
Label_017AA0A7:
 BYTE   N11  As4  v060
 BYTE   W12
 BYTE   Fn4
 BYTE   W12
 BYTE   N11
 BYTE   W12
 BYTE   As3
 BYTE   W12
 BYTE   As4
 BYTE   W12
 BYTE   Fn4
 BYTE   W12
 BYTE   N11
 BYTE   W12
 BYTE   As3
 BYTE   W12
 BYTE   PEND 
//  #05 //040   ----------------------------------------
 BYTE   PATT
  POIN2 Label_017AA0A7
//  #05 //041   ----------------------------------------
 BYTE   PATT
  POIN2 Label_017AA0A7
//  #05 //042   ----------------------------------------
 BYTE   N11  Gs4  v060
 BYTE   W12
 BYTE   Ds4
 BYTE   W12
 BYTE   N11
 BYTE   W12
 BYTE   Gs3
 BYTE   W12
 BYTE   Gs4
 BYTE   W12
 BYTE   Ds4
 BYTE   W12
 BYTE   N11
 BYTE   W12
 BYTE   Gs3
 BYTE   W12
//  #05 //043   ----------------------------------------
 BYTE   Cn5
 BYTE   W12
 BYTE   Fn4
 BYTE   W12
 BYTE   N11
 BYTE   W12
 BYTE   Cn4
 BYTE   W12
 BYTE   Cn5
 BYTE   W12
 BYTE   Fn4
 BYTE   W12
 BYTE   N11
 BYTE   W12
 BYTE   Cn4
 BYTE   W12
//  #05 //044   ----------------------------------------
 BYTE   As4
 BYTE   W12
 BYTE   Ds4
 BYTE   W12
 BYTE   N11
 BYTE   W12
 BYTE   As3
 BYTE   W12
 BYTE   As4
 BYTE   W12
 BYTE   Ds4
 BYTE   W12
 BYTE   N11
 BYTE   W12
 BYTE   As3
 BYTE   W12
//  #05 //045   ----------------------------------------
 BYTE   As4
 BYTE   W12
 BYTE   Dn4
 BYTE   W12
 BYTE   N11
 BYTE   W12
 BYTE   As3
 BYTE   W12
 BYTE   N44  As4
 BYTE   W12
 BYTE   N11  Dn4  v032
 BYTE   W12
 BYTE   N11
 BYTE   W12
 BYTE   As3
 BYTE   W12
//  #05 //046   ----------------------------------------
 BYTE   W96
//  #05 //047   ----------------------------------------
 BYTE   W96
//  #05 //048   ----------------------------------------
 BYTE   W96
//  #05 //049   ----------------------------------------
 BYTE   W96
//  #05 //050   ----------------------------------------
 BYTE   GoTo
  POIN2 Label_017A9FEE
 BYTE   FINE

//**************** Track 6 (Midi-Chn.5) ****************//

EverScarletForest_006:
//  #06 //000   ----------------------------------------
 BYTE   KEYSH   EverScarletForest_key+0
Label_017AA12A:
 BYTE   VOICE   100
 BYTE   VOL   50*EverScarletForest_mvl/mxv
 BYTE   PAN   c_v+0
 BYTE   W22
 BYTE   N56  Bn2  v056
 BYTE   W02
 BYTE   En3
 BYTE   W68
 BYTE   W02
 BYTE   N92  Gn2
 BYTE   W02
//  #06 //001   ----------------------------------------
 BYTE   N90  As2
 BYTE   W96
//  #06 //002   ----------------------------------------
 BYTE   W22
 BYTE   N56  Bn2
 BYTE   W02
 BYTE   En3
 BYTE   W68
 BYTE   W02
 BYTE   N92  Gn2
 BYTE   W02
//  #06 //003   ----------------------------------------
 BYTE   N90  As2
 BYTE   W92
 BYTE   W02
 BYTE   N44  En3
 BYTE   W02
//  #06 //004   ----------------------------------------
 BYTE   Gs3
 BYTE   W44
 BYTE   W02
 BYTE   En3
 BYTE   W02
 BYTE   Gs3
 BYTE   W44
 BYTE   W02
 BYTE   N92  Gn3
 BYTE   W02
//  #06 //005   ----------------------------------------
 BYTE   N90  As3
 BYTE   W24
 BYTE   N68  Cn3
 BYTE   W68
 BYTE   W02
 BYTE   N44  Dn3
 BYTE   W02
//  #06 //006   ----------------------------------------
 BYTE   Gn3
 BYTE   W44
 BYTE   W02
 BYTE   Dn3
 BYTE   W02
 BYTE   Gn3
 BYTE   W44
 BYTE   W02
 BYTE   Dn3
 BYTE   W02
//  #06 //007   ----------------------------------------
 BYTE   An3
 BYTE   W44
 BYTE   W02
 BYTE   Dn3
 BYTE   W02
 BYTE   An3
 BYTE   W48
//  #06 //008   ----------------------------------------
Label_017AA175:
 BYTE   W22
 BYTE   N56  Bn3  v072
 BYTE   W02
 BYTE   En4
 BYTE   W68
 BYTE   W02
 BYTE   N92  Gn3
 BYTE   W02
 BYTE   PEND 
//  #06 //009   ----------------------------------------
 BYTE   N90  As3
 BYTE   W96
//  #06 //010   ----------------------------------------
 BYTE   PATT
  POIN2 Label_017AA175
//  #06 //011   ----------------------------------------
 BYTE   N90  As3  v072
 BYTE   W92
 BYTE   W02
 BYTE   N44  En4
 BYTE   W02
//  #06 //012   ----------------------------------------
 BYTE   Gs4
 BYTE   W44
 BYTE   W02
 BYTE   En4
 BYTE   W02
 BYTE   Gs4
 BYTE   W44
 BYTE   W02
 BYTE   N92  Gn4
 BYTE   W02
//  #06 //013   ----------------------------------------
 BYTE   N90  As4
 BYTE   W24
 BYTE   N68  Cn4
 BYTE   W68
 BYTE   W02
 BYTE   N44  Dn4
 BYTE   W02
//  #06 //014   ----------------------------------------
 BYTE   Gn4
 BYTE   W44
 BYTE   W02
 BYTE   Dn4
 BYTE   W02
 BYTE   Gn4
 BYTE   W44
 BYTE   W02
 BYTE   Dn4
 BYTE   W02
//  #06 //015   ----------------------------------------
 BYTE   Gn4
 BYTE   W48
 BYTE   N23  Bn3
 BYTE   N23  Dn4
 BYTE   W24
 BYTE   N23
 BYTE   N23  Gn4
 BYTE   W22
 BYTE   N44  Gn3  v080
 BYTE   W02
//  #06 //016   ----------------------------------------
Label_017AA1BF:
 BYTE   N44  En4  v080
 BYTE   W48
 BYTE   Gn3
 BYTE   N44  Cn4
 BYTE   W44
 BYTE   W02
 BYTE   N72  Gn3
 BYTE   W02
 BYTE   PEND 
//  #06 //017   ----------------------------------------
 BYTE   N68  Bn3
 BYTE   W72
 BYTE   N23
 BYTE   N22  En4
 BYTE   W22
 BYTE   N44  Gn3
 BYTE   W02
//  #06 //018   ----------------------------------------
 BYTE   PATT
  POIN2 Label_017AA1BF
//  #06 //019   ----------------------------------------
 BYTE   N68  Bn3  v080
 BYTE   W72
 BYTE   N23
 BYTE   N22  Dn4
 BYTE   W22
 BYTE   N44  Cn4
 BYTE   W02
//  #06 //020   ----------------------------------------
 BYTE   Gn4
 BYTE   W44
 BYTE   W02
 BYTE   Cn4
 BYTE   W02
 BYTE   Gn4
 BYTE   W44
 BYTE   W02
 BYTE   N72  As3
 BYTE   W02
//  #06 //021   ----------------------------------------
 BYTE   N68  Dn4
 BYTE   W72
 BYTE   N23  As3
 BYTE   N22  Dn4
 BYTE   W22
 BYTE   N44  Cn4
 BYTE   W02
//  #06 //022   ----------------------------------------
 BYTE   Gn4
 BYTE   W44
 BYTE   W02
 BYTE   Cn4
 BYTE   W02
 BYTE   Gn4
 BYTE   W44
 BYTE   W02
 BYTE   TIE  As3
 BYTE   W02
//  #06 //023   ----------------------------------------
 BYTE   N92  Dn4
 BYTE   W92
 BYTE   W02
 BYTE   N44  Gn3
 BYTE   W01
 BYTE   EOT
 BYTE   As3
 BYTE   W01
//  #06 //024   ----------------------------------------
Label_017AA211:
 BYTE   N40  Cn4  v080
 BYTE   W44
 BYTE   W02
 BYTE   N44  Gn3
 BYTE   W02
 BYTE   Cn4
 BYTE   W44
 BYTE   W02
 BYTE   N72  Ds3
 BYTE   W02
 BYTE   PEND 
//  #06 //025   ----------------------------------------
 BYTE   N68  Gn3
 BYTE   W72
 BYTE   N23  Ds3
 BYTE   N22  Gn3
 BYTE   W22
 BYTE   N44
 BYTE   W02
//  #06 //026   ----------------------------------------
 BYTE   PATT
  POIN2 Label_017AA211
//  #06 //027   ----------------------------------------
 BYTE   N68  Gn3  v080
 BYTE   W72
 BYTE   N23  Ds3
 BYTE   N22  Gn3
 BYTE   W22
 BYTE   N44  Cn3
 BYTE   W02
//  #06 //028   ----------------------------------------
 BYTE   Fn3
 BYTE   W44
 BYTE   W02
 BYTE   N24  Cn3
 BYTE   W02
 BYTE   N23  Fn3
 BYTE   W24
 BYTE   Cn3
 BYTE   N23  Gn3
 BYTE   W24
//  #06 //029   ----------------------------------------
 BYTE   N92  An3
 BYTE   N92  Cn4
 BYTE   W96
//  #06 //030   ----------------------------------------
 BYTE   W96
//  #06 //031   ----------------------------------------
 BYTE   W96
//  #06 //032   ----------------------------------------
 BYTE   W96
//  #06 //033   ----------------------------------------
 BYTE   W96
//  #06 //034   ----------------------------------------
 BYTE   W96
//  #06 //035   ----------------------------------------
 BYTE   W96
//  #06 //036   ----------------------------------------
 BYTE   W96
//  #06 //037   ----------------------------------------
 BYTE   W96
//  #06 //038   ----------------------------------------
 BYTE   W96
//  #06 //039   ----------------------------------------
 BYTE   W96
//  #06 //040   ----------------------------------------
 BYTE   W96
//  #06 //041   ----------------------------------------
 BYTE   W96
//  #06 //042   ----------------------------------------
 BYTE   W96
//  #06 //043   ----------------------------------------
 BYTE   W96
//  #06 //044   ----------------------------------------
 BYTE   W96
//  #06 //045   ----------------------------------------
 BYTE   W96
//  #06 //046   ----------------------------------------
 BYTE   N23  An4
 BYTE   W12
 BYTE   Gn4
 BYTE   W12
 BYTE   An4
 BYTE   W12
 BYTE   Dn4
 BYTE   W12
 BYTE   An4
 BYTE   W12
 BYTE   N11  Dn5
 BYTE   W12
 BYTE   N23
 BYTE   W12
 BYTE   N11  An5
 BYTE   W12
//  #06 //047   ----------------------------------------
 BYTE   N23
 BYTE   W12
 BYTE   N11  Dn5
 BYTE   W12
 BYTE   N23
 BYTE   W12
 BYTE   N11  An4
 BYTE   W12
 BYTE   N52
 BYTE   W12
 BYTE   N11  Dn4
 BYTE   W12
 BYTE   N52
 BYTE   W12
 BYTE   N11  An3
 BYTE   W12
//  #06 //048   ----------------------------------------
 BYTE   N52
 BYTE   W12
 BYTE   N11  An4  v040
 BYTE   W12
 BYTE   N56
 BYTE   W12
 BYTE   N11  Dn4
 BYTE   W12
 BYTE   N56
 BYTE   W12
 BYTE   N11  An3
 BYTE   W12
 BYTE   N60
 BYTE   W12
 BYTE   N11  An4  v024
 BYTE   W12
//  #06 //049   ----------------------------------------
 BYTE   N56
 BYTE   W12
 BYTE   N11  Dn4
 BYTE   W12
 BYTE   N56
 BYTE   W12
 BYTE   N11  An3
 BYTE   W12
 BYTE   N44
 BYTE   W48
//  #06 //050   ----------------------------------------
 BYTE   GoTo
  POIN2 Label_017AA12A
 BYTE   FINE

//**************** Track 7 (Midi-Chn.6) ****************//

EverScarletForest_007:
//  #07 //000   ----------------------------------------
 BYTE   KEYSH   EverScarletForest_key+0
Label_017AA2C2:
 BYTE   VOICE   4
 BYTE   VOL   51*EverScarletForest_mvl/mxv
 BYTE   PAN   c_v+0
 BYTE   W24
 BYTE   N11  An2  v072
 BYTE   W12
 BYTE   Gn2
 BYTE   W12
 BYTE   Fs2
 BYTE   W12
 BYTE   Gn2
 BYTE   W12
 BYTE   Fs2
 BYTE   W12
 BYTE   Dn2
 BYTE   W12
//  #07 //001   ----------------------------------------
Label_017AA2D7:
 BYTE   N23  Ds2  v072
 BYTE   W24
 BYTE   N44  Gn1
 BYTE   W24
 BYTE   N23  Ds2  v024
 BYTE   W24
 BYTE   Gn1  v020
 BYTE   W24
 BYTE   PEND 
//  #07 //002   ----------------------------------------
Label_017AA2E6:
 BYTE   W24
 BYTE   N11  An2  v072
 BYTE   W12
 BYTE   Gn2
 BYTE   W12
 BYTE   Fs2
 BYTE   W12
 BYTE   Gn2
 BYTE   W12
 BYTE   Fs2
 BYTE   W12
 BYTE   Dn2
 BYTE   W12
 BYTE   PEND 
//  #07 //003   ----------------------------------------
 BYTE   PATT
  POIN2 Label_017AA2D7
//  #07 //004   ----------------------------------------
Label_017AA2FB:
 BYTE   N40  Bn1  v072
 BYTE   W48
 BYTE   N23  En3
 BYTE   W24
 BYTE   Bn2
 BYTE   W24
 BYTE   PEND 
//  #07 //005   ----------------------------------------
Label_017AA305:
 BYTE   N23  Cn3  v072
 BYTE   W24
 BYTE   N44  Fn2
 BYTE   W48
 BYTE   N11  Gn2
 BYTE   W12
 BYTE   An2
 BYTE   W12
 BYTE   PEND 
//  #07 //006   ----------------------------------------
Label_017AA312:
 BYTE   N40  Bn2  v072
 BYTE   W48
 BYTE   N32  Dn3
 BYTE   W36
 BYTE   N11  Cn3
 BYTE   W12
 BYTE   PEND 
//  #07 //007   ----------------------------------------
 BYTE   N92  Bn2
 BYTE   W96
//  #07 //008   ----------------------------------------
 BYTE   PATT
  POIN2 Label_017AA2E6
//  #07 //009   ----------------------------------------
 BYTE   PATT
  POIN2 Label_017AA2D7
//  #07 //010   ----------------------------------------
 BYTE   PATT
  POIN2 Label_017AA2E6
//  #07 //011   ----------------------------------------
 BYTE   PATT
  POIN2 Label_017AA2D7
//  #07 //012   ----------------------------------------
 BYTE   PATT
  POIN2 Label_017AA2FB
//  #07 //013   ----------------------------------------
 BYTE   PATT
  POIN2 Label_017AA305
//  #07 //014   ----------------------------------------
 BYTE   PATT
  POIN2 Label_017AA312
//  #07 //015   ----------------------------------------
 BYTE   N68  Bn2  v072
 BYTE   W72
 BYTE   N23
 BYTE   W24
//  #07 //016   ----------------------------------------
Label_017AA349:
 BYTE   N23  Cn3  v072
 BYTE   W24
 BYTE   Dn2
 BYTE   W24
 BYTE   N32  En2
 BYTE   W36
 BYTE   N11  Fs2
 BYTE   W12
 BYTE   PEND 
//  #07 //017   ----------------------------------------
 BYTE   N23
 BYTE   W24
 BYTE   N44  Gn2
 BYTE   W48
 BYTE   N11  An2
 BYTE   W12
 BYTE   Bn2
 BYTE   W12
//  #07 //018   ----------------------------------------
 BYTE   PATT
  POIN2 Label_017AA349
//  #07 //019   ----------------------------------------
 BYTE   N23  Fs2  v072
 BYTE   W24
 BYTE   N44  Gn2
 BYTE   W48
 BYTE   N23
 BYTE   W24
//  #07 //020   ----------------------------------------
Label_017AA36E:
 BYTE   N23  Cn3  v072
 BYTE   W24
 BYTE   As2
 BYTE   W24
 BYTE   N32  Cn3
 BYTE   W36
 BYTE   N11  Dn3
 BYTE   W12
 BYTE   PEND 
//  #07 //021   ----------------------------------------
 BYTE   N23  As2
 BYTE   W24
 BYTE   N44  Cn2
 BYTE   W48
 BYTE   N11
 BYTE   W12
 BYTE   Fn2
 BYTE   W12
//  #07 //022   ----------------------------------------
 BYTE   PATT
  POIN2 Label_017AA36E
//  #07 //023   ----------------------------------------
 BYTE   N23  As2  v072
 BYTE   W24
 BYTE   N44  Cn2
 BYTE   W48
 BYTE   N23
 BYTE   W24
//  #07 //024   ----------------------------------------
Label_017AA393:
 BYTE   N23  Fn2  v072
 BYTE   W24
 BYTE   Cn2
 BYTE   W24
 BYTE   N32  Fn2
 BYTE   W36
 BYTE   N11  Cn2
 BYTE   W12
 BYTE   PEND 
//  #07 //025   ----------------------------------------
 BYTE   N23
 BYTE   W24
 BYTE   N44  As1
 BYTE   W48
 BYTE   N11
 BYTE   W12
 BYTE   Ds2
 BYTE   W12
//  #07 //026   ----------------------------------------
 BYTE   PATT
  POIN2 Label_017AA393
//  #07 //027   ----------------------------------------
 BYTE   N23  Cn2  v072
 BYTE   W24
 BYTE   N44  As1
 BYTE   W48
 BYTE   N23  Gn1
 BYTE   W24
//  #07 //028   ----------------------------------------
 BYTE   TIE  An1
 BYTE   W96
//  #07 //029   ----------------------------------------
 BYTE   W92
 BYTE   W03
 BYTE   EOT
 BYTE   W01
//  #07 //030   ----------------------------------------
 BYTE   W96
//  #07 //031   ----------------------------------------
 BYTE   W96
//  #07 //032   ----------------------------------------
 BYTE   W96
//  #07 //033   ----------------------------------------
 BYTE   W96
//  #07 //034   ----------------------------------------
 BYTE   W96
//  #07 //035   ----------------------------------------
 BYTE   W96
//  #07 //036   ----------------------------------------
 BYTE   W96
//  #07 //037   ----------------------------------------
 BYTE   W96
//  #07 //038   ----------------------------------------
 BYTE   W96
//  #07 //039   ----------------------------------------
 BYTE   W96
//  #07 //040   ----------------------------------------
 BYTE   W96
//  #07 //041   ----------------------------------------
 BYTE   W96
//  #07 //042   ----------------------------------------
 BYTE   W96
//  #07 //043   ----------------------------------------
 BYTE   W96
//  #07 //044   ----------------------------------------
 BYTE   W96
//  #07 //045   ----------------------------------------
 BYTE   W96
//  #07 //046   ----------------------------------------
 BYTE   W96
//  #07 //047   ----------------------------------------
 BYTE   W96
//  #07 //048   ----------------------------------------
 BYTE   W96
//  #07 //049   ----------------------------------------
 BYTE   W96
//  #07 //050   ----------------------------------------
 BYTE   GoTo
  POIN2 Label_017AA2C2
 BYTE   FINE

//**************** Track 8 (Midi-Chn.7) ****************//

EverScarletForest_008:
//  #08 //000   ----------------------------------------
 BYTE   KEYSH   EverScarletForest_key+0
Label_017AA3EE:
 BYTE   VOICE   4
 BYTE   VOL   51*EverScarletForest_mvl/mxv
 BYTE   PAN   c_v-30
 BYTE   W24
 BYTE   N11  An3  v052
 BYTE   W12
 BYTE   Gn3
 BYTE   W12
 BYTE   Fs3
 BYTE   W12
 BYTE   Gn3
 BYTE   W12
 BYTE   Fs3
 BYTE   W12
 BYTE   Dn3
 BYTE   W12
//  #08 //001   ----------------------------------------
Label_017AA403:
 BYTE   N23  Ds3  v052
 BYTE   W24
 BYTE   N68  Gn2
 BYTE   W72
 BYTE   PEND 
//  #08 //002   ----------------------------------------
Label_017AA40B:
 BYTE   W24
 BYTE   N11  An3  v052
 BYTE   W12
 BYTE   Gn3
 BYTE   W12
 BYTE   Fs3
 BYTE   W12
 BYTE   Gn3
 BYTE   W12
 BYTE   Fs3
 BYTE   W12
 BYTE   Dn3
 BYTE   W12
 BYTE   PEND 
//  #08 //003   ----------------------------------------
Label_017AA41B:
 BYTE   N23  Ds3  v052
 BYTE   W24
 BYTE   Gn2
 BYTE   W24
 BYTE   An2
 BYTE   W24
 BYTE   As2
 BYTE   W24
 BYTE   PEND 
//  #08 //004   ----------------------------------------
Label_017AA426:
 BYTE   N40  Bn2  v052
 BYTE   W48
 BYTE   N23  En4
 BYTE   W24
 BYTE   Bn3
 BYTE   W24
 BYTE   PEND 
//  #08 //005   ----------------------------------------
Label_017AA430:
 BYTE   N23  Cn4  v052
 BYTE   W24
 BYTE   N44  Fn3
 BYTE   W48
 BYTE   N11  Gn3
 BYTE   W12
 BYTE   An3
 BYTE   W12
 BYTE   PEND 
//  #08 //006   ----------------------------------------
Label_017AA43D:
 BYTE   N40  Bn3  v052
 BYTE   W48
 BYTE   N32  Dn4
 BYTE   W36
 BYTE   N11  Cn4
 BYTE   W12
 BYTE   PEND 
//  #08 //007   ----------------------------------------
 BYTE   N92  Bn3
 BYTE   W96
//  #08 //008   ----------------------------------------
 BYTE   PATT
  POIN2 Label_017AA40B
//  #08 //009   ----------------------------------------
 BYTE   PATT
  POIN2 Label_017AA403
//  #08 //010   ----------------------------------------
 BYTE   PATT
  POIN2 Label_017AA40B
//  #08 //011   ----------------------------------------
 BYTE   PATT
  POIN2 Label_017AA41B
//  #08 //012   ----------------------------------------
 BYTE   PATT
  POIN2 Label_017AA426
//  #08 //013   ----------------------------------------
 BYTE   PATT
  POIN2 Label_017AA430
//  #08 //014   ----------------------------------------
 BYTE   PATT
  POIN2 Label_017AA43D
//  #08 //015   ----------------------------------------
 BYTE   N92  Bn3  v052
 BYTE   W96
//  #08 //016   ----------------------------------------
Label_017AA472:
 BYTE   N23  Cn4  v052
 BYTE   W24
 BYTE   Dn3
 BYTE   W24
 BYTE   N32  En3
 BYTE   W36
 BYTE   N11  Fs3
 BYTE   W12
 BYTE   PEND 
//  #08 //017   ----------------------------------------
 BYTE   N23
 BYTE   W24
 BYTE   N44  Gn3
 BYTE   W48
 BYTE   N11  An3
 BYTE   W12
 BYTE   Bn3
 BYTE   W12
//  #08 //018   ----------------------------------------
 BYTE   PATT
  POIN2 Label_017AA472
//  #08 //019   ----------------------------------------
 BYTE   N23  Fs3  v052
 BYTE   W24
 BYTE   N44  Gn3
 BYTE   W48
 BYTE   N23
 BYTE   W24
//  #08 //020   ----------------------------------------
Label_017AA497:
 BYTE   N23  Cn4  v052
 BYTE   W24
 BYTE   As3
 BYTE   W24
 BYTE   N32  Cn4
 BYTE   W36
 BYTE   N11  Dn4
 BYTE   W12
 BYTE   PEND 
//  #08 //021   ----------------------------------------
 BYTE   N23  As3
 BYTE   W24
 BYTE   N44  Cn3
 BYTE   W48
 BYTE   N11
 BYTE   W12
 BYTE   Fn3
 BYTE   W12
//  #08 //022   ----------------------------------------
 BYTE   PATT
  POIN2 Label_017AA497
//  #08 //023   ----------------------------------------
 BYTE   N23  As3  v052
 BYTE   W24
 BYTE   N44  Cn3
 BYTE   W48
 BYTE   N23
 BYTE   W24
//  #08 //024   ----------------------------------------
Label_017AA4BC:
 BYTE   N23  Fn3  v052
 BYTE   W24
 BYTE   Cn3
 BYTE   W24
 BYTE   N32  Fn3
 BYTE   W36
 BYTE   N11  Cn3
 BYTE   W12
 BYTE   PEND 
//  #08 //025   ----------------------------------------
 BYTE   N23
 BYTE   W24
 BYTE   N44  As2
 BYTE   W48
 BYTE   N11
 BYTE   W12
 BYTE   Ds3
 BYTE   W12
//  #08 //026   ----------------------------------------
 BYTE   PATT
  POIN2 Label_017AA4BC
//  #08 //027   ----------------------------------------
 BYTE   N23  Cn3  v052
 BYTE   W24
 BYTE   N44  As2
 BYTE   W48
 BYTE   N23  Gn2
 BYTE   W24
//  #08 //028   ----------------------------------------
 BYTE   TIE  An2
 BYTE   W96
//  #08 //029   ----------------------------------------
 BYTE   W96
//  #08 //030   ----------------------------------------
 BYTE   W05
 BYTE   EOT
 BYTE   W90
 BYTE   W01
//  #08 //031   ----------------------------------------
 BYTE   W96
//  #08 //032   ----------------------------------------
 BYTE   W96
//  #08 //033   ----------------------------------------
 BYTE   W96
//  #08 //034   ----------------------------------------
 BYTE   W96
//  #08 //035   ----------------------------------------
 BYTE   W96
//  #08 //036   ----------------------------------------
 BYTE   W96
//  #08 //037   ----------------------------------------
 BYTE   W96
//  #08 //038   ----------------------------------------
 BYTE   W96
//  #08 //039   ----------------------------------------
 BYTE   W96
//  #08 //040   ----------------------------------------
 BYTE   W96
//  #08 //041   ----------------------------------------
 BYTE   W96
//  #08 //042   ----------------------------------------
 BYTE   W96
//  #08 //043   ----------------------------------------
 BYTE   W96
//  #08 //044   ----------------------------------------
 BYTE   W96
//  #08 //045   ----------------------------------------
 BYTE   W96
//  #08 //046   ----------------------------------------
 BYTE   W96
//  #08 //047   ----------------------------------------
 BYTE   W96
//  #08 //048   ----------------------------------------
 BYTE   W96
//  #08 //049   ----------------------------------------
 BYTE   W96
//  #08 //050   ----------------------------------------
 BYTE   GoTo
  POIN2 Label_017AA3EE
 BYTE   FINE

//**************** Track 9 (Midi-Chn.8) ****************//

EverScarletForest_009:
//  #09 //000   ----------------------------------------
 BYTE   KEYSH   EverScarletForest_key+0
Label_017AA516:
 BYTE   VOICE   51
 BYTE   VOL   34*EverScarletForest_mvl/mxv
 BYTE   W12
 BYTE   BEND   c_v+1
 BYTE   W24
 BYTE   N11  An2  v072
 BYTE   W12
 BYTE   Gn2
 BYTE   W12
 BYTE   Fs2
 BYTE   W12
 BYTE   Gn2
 BYTE   W12
 BYTE   Fs2
 BYTE   W12
//  #09 //001   ----------------------------------------
Label_017AA52A:
 BYTE   N11  Dn2  v072
 BYTE   W12
 BYTE   N23  Ds2
 BYTE   W24
 BYTE   N44  Gn1
 BYTE   W24
 BYTE   N23  Ds2  v024
 BYTE   W24
 BYTE   Gn1  v020
 BYTE   W12
 BYTE   PEND 
//  #09 //002   ----------------------------------------
Label_017AA53C:
 BYTE   W36
 BYTE   N11  An2  v072
 BYTE   W12
 BYTE   Gn2
 BYTE   W12
 BYTE   Fs2
 BYTE   W12
 BYTE   Gn2
 BYTE   W12
 BYTE   Fs2
 BYTE   W12
 BYTE   PEND 
//  #09 //003   ----------------------------------------
 BYTE   PATT
  POIN2 Label_017AA52A
//  #09 //004   ----------------------------------------
Label_017AA54F:
 BYTE   W12
 BYTE   N40  Bn1  v072
 BYTE   W48
 BYTE   N23  En3
 BYTE   W24
 BYTE   Bn2
 BYTE   W12
 BYTE   PEND 
//  #09 //005   ----------------------------------------
Label_017AA55A:
 BYTE   W12
 BYTE   N23  Cn3  v072
 BYTE   W24
 BYTE   N44  Fn2
 BYTE   W48
 BYTE   N11  Gn2
 BYTE   W12
 BYTE   PEND 
//  #09 //006   ----------------------------------------
Label_017AA566:
 BYTE   N11  An2  v072
 BYTE   W12
 BYTE   N40  Bn2
 BYTE   W48
 BYTE   N32  Dn3
 BYTE   W36
 BYTE   PEND 
//  #09 //007   ----------------------------------------
 BYTE   N11  Cn3
 BYTE   W12
 BYTE   N92  Bn2
 BYTE   W84
//  #09 //008   ----------------------------------------
 BYTE   PATT
  POIN2 Label_017AA53C
//  #09 //009   ----------------------------------------
 BYTE   PATT
  POIN2 Label_017AA52A
//  #09 //010   ----------------------------------------
 BYTE   PATT
  POIN2 Label_017AA53C
//  #09 //011   ----------------------------------------
 BYTE   PATT
  POIN2 Label_017AA52A
//  #09 //012   ----------------------------------------
 BYTE   PATT
  POIN2 Label_017AA54F
//  #09 //013   ----------------------------------------
 BYTE   PATT
  POIN2 Label_017AA55A
//  #09 //014   ----------------------------------------
 BYTE   PATT
  POIN2 Label_017AA566
//  #09 //015   ----------------------------------------
 BYTE   N11  Cn3  v072
 BYTE   W12
 BYTE   N68  Bn2
 BYTE   W72
 BYTE   N23
 BYTE   W12
//  #09 //016   ----------------------------------------
 BYTE   W12
 BYTE   Cn3
 BYTE   W24
 BYTE   Dn2
 BYTE   W24
 BYTE   N32  En2
 BYTE   W36
//  #09 //017   ----------------------------------------
 BYTE   N11  Fs2
 BYTE   W12
 BYTE   N23
 BYTE   W24
 BYTE   N44  Gn2
 BYTE   W48
 BYTE   N11  An2
 BYTE   W12
//  #09 //018   ----------------------------------------
 BYTE   Bn2
 BYTE   W12
 BYTE   N23  Cn3
 BYTE   W24
 BYTE   Dn2
 BYTE   W24
 BYTE   N32  En2
 BYTE   W36
//  #09 //019   ----------------------------------------
 BYTE   N11  Fs2
 BYTE   W12
 BYTE   N23
 BYTE   W24
 BYTE   N44  Gn2
 BYTE   W48
 BYTE   N23
 BYTE   W12
//  #09 //020   ----------------------------------------
 BYTE   W12
 BYTE   Cn3
 BYTE   W24
 BYTE   As2
 BYTE   W24
 BYTE   N32  Cn3
 BYTE   W36
//  #09 //021   ----------------------------------------
 BYTE   N11  Dn3
 BYTE   W12
 BYTE   N23  As2
 BYTE   W24
 BYTE   N44  Cn2
 BYTE   W48
 BYTE   N11
 BYTE   W12
//  #09 //022   ----------------------------------------
 BYTE   Fn2
 BYTE   W12
 BYTE   N23  Cn3
 BYTE   W24
 BYTE   As2
 BYTE   W24
 BYTE   N32  Cn3
 BYTE   W36
//  #09 //023   ----------------------------------------
 BYTE   N11  Dn3
 BYTE   W12
 BYTE   N23  As2
 BYTE   W24
 BYTE   N44  Cn2
 BYTE   W48
 BYTE   N23
 BYTE   W12
//  #09 //024   ----------------------------------------
 BYTE   W12
 BYTE   Fn2
 BYTE   W24
 BYTE   Cn2
 BYTE   W24
 BYTE   N32  Fn2
 BYTE   W36
//  #09 //025   ----------------------------------------
 BYTE   N11  Cn2
 BYTE   W12
 BYTE   N23
 BYTE   W24
 BYTE   N44  As1
 BYTE   W48
 BYTE   N11
 BYTE   W12
//  #09 //026   ----------------------------------------
 BYTE   Ds2
 BYTE   W12
 BYTE   N23  Fn2
 BYTE   W24
 BYTE   Cn2
 BYTE   W24
 BYTE   N32  Fn2
 BYTE   W36
//  #09 //027   ----------------------------------------
 BYTE   N11  Cn2
 BYTE   W12
 BYTE   N23
 BYTE   W24
 BYTE   N44  As1
 BYTE   W48
 BYTE   N23  Gn1
 BYTE   W12
//  #09 //028   ----------------------------------------
 BYTE   W12
 BYTE   TIE  An1
 BYTE   W84
//  #09 //029   ----------------------------------------
 BYTE   W96
//  #09 //030   ----------------------------------------
 BYTE   W11
 BYTE   EOT
 BYTE   W84
 BYTE   W01
//  #09 //031   ----------------------------------------
 BYTE   W96
//  #09 //032   ----------------------------------------
 BYTE   W96
//  #09 //033   ----------------------------------------
 BYTE   W96
//  #09 //034   ----------------------------------------
 BYTE   W96
//  #09 //035   ----------------------------------------
 BYTE   W96
//  #09 //036   ----------------------------------------
 BYTE   W96
//  #09 //037   ----------------------------------------
 BYTE   W96
//  #09 //038   ----------------------------------------
 BYTE   W96
//  #09 //039   ----------------------------------------
 BYTE   W96
//  #09 //040   ----------------------------------------
 BYTE   W96
//  #09 //041   ----------------------------------------
 BYTE   W96
//  #09 //042   ----------------------------------------
 BYTE   W96
//  #09 //043   ----------------------------------------
 BYTE   W96
//  #09 //044   ----------------------------------------
 BYTE   W96
//  #09 //045   ----------------------------------------
 BYTE   W96
//  #09 //046   ----------------------------------------
 BYTE   W96
//  #09 //047   ----------------------------------------
 BYTE   W96
//  #09 //048   ----------------------------------------
 BYTE   W96
//  #09 //049   ----------------------------------------
 BYTE   W96
//  #09 //050   ----------------------------------------
 BYTE   GoTo
  POIN2 Label_017AA516
 BYTE   FINE

//**************** Track 10 (Midi-Chn.9) ****************//

EverScarletForest_010:
//  #10 //000   ----------------------------------------
 BYTE   KEYSH   EverScarletForest_key+0
Label_017AA652:
 BYTE   VOICE   38
 BYTE   VOL   51*EverScarletForest_mvl/mxv
 BYTE   PAN   c_v+0
 BYTE   N11  En0  v108
 BYTE   W12
 BYTE   Bn0  v080
 BYTE   W12
 BYTE   N23  Gn1
 BYTE   W12
 BYTE   N11  Bn0
 BYTE   W12
 BYTE   En0  v108
 BYTE   W12
 BYTE   Bn0  v084
 BYTE   W12
 BYTE   N23  Gn1
 BYTE   W12
 BYTE   N11  Bn0
 BYTE   W12
//  #10 //001   ----------------------------------------
Label_017AA671:
 BYTE   N11  Cn0  v108
 BYTE   W12
 BYTE   Gn0  v080
 BYTE   W12
 BYTE   N23  Ds1
 BYTE   W12
 BYTE   N11  Gn0
 BYTE   W12
 BYTE   Cn0  v108
 BYTE   W12
 BYTE   Gn0  v084
 BYTE   W12
 BYTE   N23  Ds1
 BYTE   W12
 BYTE   N11  Gn0
 BYTE   W12
 BYTE   PEND 
//  #10 //002   ----------------------------------------
Label_017AA68B:
 BYTE   N11  En0  v108
 BYTE   W12
 BYTE   Bn0  v080
 BYTE   W12
 BYTE   N23  Gn1
 BYTE   W12
 BYTE   N11  Bn0
 BYTE   W12
 BYTE   En0  v108
 BYTE   W12
 BYTE   Bn0  v084
 BYTE   W12
 BYTE   N23  Gn1
 BYTE   W12
 BYTE   N11  Bn0
 BYTE   W12
 BYTE   PEND 
//  #10 //003   ----------------------------------------
 BYTE   PATT
  POIN2 Label_017AA671
//  #10 //004   ----------------------------------------
Label_017AA6AA:
 BYTE   N11  Dn0  v108
 BYTE   W12
 BYTE   Bn0  v080
 BYTE   W12
 BYTE   N23  En1
 BYTE   W12
 BYTE   N11  Bn0
 BYTE   W12
 BYTE   Dn0  v108
 BYTE   W12
 BYTE   Bn0  v084
 BYTE   W12
 BYTE   N23  En1
 BYTE   W12
 BYTE   N11  Bn0
 BYTE   W12
 BYTE   PEND 
//  #10 //005   ----------------------------------------
Label_017AA6C4:
 BYTE   N11  Ds0  v108
 BYTE   W12
 BYTE   Cn1  v080
 BYTE   W12
 BYTE   N23  Fn1
 BYTE   W12
 BYTE   N11  Cn1
 BYTE   W12
 BYTE   Ds0  v108
 BYTE   W12
 BYTE   Cn1  v084
 BYTE   W12
 BYTE   N23  Fn1
 BYTE   W12
 BYTE   N11  Cn1
 BYTE   W12
 BYTE   PEND 
//  #10 //006   ----------------------------------------
Label_017AA6DE:
 BYTE   N11  Fn0  v108
 BYTE   W12
 BYTE   Cn1  v080
 BYTE   W12
 BYTE   N23  Gn1
 BYTE   W12
 BYTE   N11  Cn1
 BYTE   W12
 BYTE   Fn0  v108
 BYTE   W12
 BYTE   Cn1  v084
 BYTE   W12
 BYTE   N23  An1
 BYTE   W12
 BYTE   N11  Cn1
 BYTE   W12
 BYTE   PEND 
//  #10 //007   ----------------------------------------
 BYTE   Gn0  v108
 BYTE   W12
 BYTE   Dn1  v080
 BYTE   W12
 BYTE   N23  An1
 BYTE   W12
 BYTE   N11  Dn1
 BYTE   W12
 BYTE   N44  Gn0  v108
 BYTE   W48
//  #10 //008   ----------------------------------------
 BYTE   PATT
  POIN2 Label_017AA68B
//  #10 //009   ----------------------------------------
 BYTE   PATT
  POIN2 Label_017AA671
//  #10 //010   ----------------------------------------
 BYTE   PATT
  POIN2 Label_017AA68B
//  #10 //011   ----------------------------------------
 BYTE   PATT
  POIN2 Label_017AA671
//  #10 //012   ----------------------------------------
 BYTE   PATT
  POIN2 Label_017AA6AA
//  #10 //013   ----------------------------------------
 BYTE   PATT
  POIN2 Label_017AA6C4
//  #10 //014   ----------------------------------------
 BYTE   PATT
  POIN2 Label_017AA6DE
//  #10 //015   ----------------------------------------
 BYTE   N11  En0  v108
 BYTE   W12
 BYTE   Bn0  v080
 BYTE   W12
 BYTE   N23  Fs1
 BYTE   W12
 BYTE   N11  Bn0
 BYTE   W12
 BYTE   En0  v108
 BYTE   W12
 BYTE   Bn0  v080
 BYTE   W12
 BYTE   N23  Fs1
 BYTE   W12
 BYTE   N11  Bn0
 BYTE   W12
//  #10 //016   ----------------------------------------
Label_017AA744:
 BYTE   N11  Cn0  v108
 BYTE   W12
 BYTE   Gn0  v080
 BYTE   W12
 BYTE   N23  En1
 BYTE   W12
 BYTE   N11  Gn0
 BYTE   W12
 BYTE   Cn0  v108
 BYTE   W12
 BYTE   Gn0  v084
 BYTE   W12
 BYTE   N23  En1
 BYTE   W12
 BYTE   N11  Gn0
 BYTE   W12
 BYTE   PEND 
//  #10 //017   ----------------------------------------
Label_017AA75E:
 BYTE   N11  En0  v108
 BYTE   W12
 BYTE   Bn0  v080
 BYTE   W12
 BYTE   N23  En1
 BYTE   W12
 BYTE   N11  Bn0
 BYTE   W12
 BYTE   En0  v108
 BYTE   W12
 BYTE   Bn0  v084
 BYTE   W12
 BYTE   N23  En1
 BYTE   W12
 BYTE   N11  Bn0
 BYTE   W12
 BYTE   PEND 
//  #10 //018   ----------------------------------------
 BYTE   PATT
  POIN2 Label_017AA744
//  #10 //019   ----------------------------------------
 BYTE   PATT
  POIN2 Label_017AA75E
//  #10 //020   ----------------------------------------
Label_017AA782:
 BYTE   N11  Gs0  v108
 BYTE   W12
 BYTE   Ds1  v080
 BYTE   W12
 BYTE   N23  As1
 BYTE   W12
 BYTE   N11  Ds1
 BYTE   W12
 BYTE   Gs0  v108
 BYTE   W12
 BYTE   Ds1  v084
 BYTE   W12
 BYTE   N23  As1
 BYTE   W12
 BYTE   N11  Ds1
 BYTE   W12
 BYTE   PEND 
//  #10 //021   ----------------------------------------
Label_017AA79C:
 BYTE   N11  Gn0  v108
 BYTE   W12
 BYTE   Dn1  v080
 BYTE   W12
 BYTE   N23  As1
 BYTE   W12
 BYTE   N11  Dn1
 BYTE   W12
 BYTE   Gn0  v108
 BYTE   W12
 BYTE   Dn1  v084
 BYTE   W12
 BYTE   N23  As1
 BYTE   W12
 BYTE   N11  Dn1
 BYTE   W12
 BYTE   PEND 
//  #10 //022   ----------------------------------------
 BYTE   PATT
  POIN2 Label_017AA782
//  #10 //023   ----------------------------------------
 BYTE   PATT
  POIN2 Label_017AA79C
//  #10 //024   ----------------------------------------
Label_017AA7C0:
 BYTE   N11  Cs0  v108
 BYTE   W12
 BYTE   Gs0  v080
 BYTE   W12
 BYTE   N23  Fn1
 BYTE   W12
 BYTE   N11  Gs0
 BYTE   W12
 BYTE   Cs0  v108
 BYTE   W12
 BYTE   Gs0  v084
 BYTE   W12
 BYTE   N23  Fn1
 BYTE   W12
 BYTE   N11  Gs0
 BYTE   W12
 BYTE   PEND 
//  #10 //025   ----------------------------------------
Label_017AA7DA:
 BYTE   N11  Ds0  v108
 BYTE   W12
 BYTE   As0  v080
 BYTE   W12
 BYTE   N23  Fn1
 BYTE   W12
 BYTE   N11  As0
 BYTE   W12
 BYTE   Ds0  v108
 BYTE   W12
 BYTE   As0  v084
 BYTE   W12
 BYTE   N23  Fn1
 BYTE   W12
 BYTE   N11  As0
 BYTE   W12
 BYTE   PEND 
//  #10 //026   ----------------------------------------
 BYTE   PATT
  POIN2 Label_017AA7C0
//  #10 //027   ----------------------------------------
 BYTE   PATT
  POIN2 Label_017AA7DA
//  #10 //028   ----------------------------------------
 BYTE   N11  Fn0  v108
 BYTE   W12
 BYTE   Cn1  v080
 BYTE   W12
 BYTE   N23  An1
 BYTE   W12
 BYTE   N11  Cn1
 BYTE   W12
 BYTE   Fn0  v108
 BYTE   W12
 BYTE   Cn1  v084
 BYTE   W12
 BYTE   N23  An1
 BYTE   W12
 BYTE   N11  Cn1
 BYTE   W12
//  #10 //029   ----------------------------------------
 BYTE   N92  Fn0  v108
 BYTE   W96
//  #10 //030   ----------------------------------------
 BYTE   W96
//  #10 //031   ----------------------------------------
 BYTE   W96
//  #10 //032   ----------------------------------------
 BYTE   W96
//  #10 //033   ----------------------------------------
 BYTE   W96
//  #10 //034   ----------------------------------------
 BYTE   W96
//  #10 //035   ----------------------------------------
 BYTE   W96
//  #10 //036   ----------------------------------------
 BYTE   W96
//  #10 //037   ----------------------------------------
 BYTE   W96
//  #10 //038   ----------------------------------------
 BYTE   W96
//  #10 //039   ----------------------------------------
 BYTE   W96
//  #10 //040   ----------------------------------------
 BYTE   W96
//  #10 //041   ----------------------------------------
 BYTE   W96
//  #10 //042   ----------------------------------------
 BYTE   W96
//  #10 //043   ----------------------------------------
 BYTE   W96
//  #10 //044   ----------------------------------------
 BYTE   W96
//  #10 //045   ----------------------------------------
 BYTE   W96
//  #10 //046   ----------------------------------------
 BYTE   W96
//  #10 //047   ----------------------------------------
 BYTE   W96
//  #10 //048   ----------------------------------------
 BYTE   W96
//  #10 //049   ----------------------------------------
 BYTE   W96
//  #10 //050   ----------------------------------------
 BYTE   GoTo
  POIN2 Label_017AA652
 BYTE   FINE

//**************** Track 11 (Midi-Chn.10) ****************//

EverScarletForest_011:
//  #11 //000   ----------------------------------------
 BYTE   KEYSH   EverScarletForest_key+0
Label_017AA84A:
 BYTE   VOICE   105
 BYTE   VOL   29*EverScarletForest_mvl/mxv
 BYTE   PAN   c_v-63
 BYTE   N92  Bn2  v072
 BYTE   TIE  Gn3
 BYTE   W96
//  #11 //001   ----------------------------------------
 BYTE   N44  Cn3
 BYTE   W48
 BYTE   N23  Dn3
 BYTE   W24
 BYTE   Cn3
 BYTE   W23
 BYTE   EOT
 BYTE   Gn3
 BYTE   W01
//  #11 //002   ----------------------------------------
 BYTE   N92  Bn2
 BYTE   TIE  Gn3
 BYTE   W96
//  #11 //003   ----------------------------------------
 BYTE   N92  Cn3
 BYTE   W92
 BYTE   W03
 BYTE   EOT
 BYTE   Gn3
 BYTE   W01
//  #11 //004   ----------------------------------------
 BYTE   N92  Bn2
 BYTE   N92  Gs3
 BYTE   W96
//  #11 //005   ----------------------------------------
 BYTE   Cn3
 BYTE   N92  Gn3
 BYTE   W96
//  #11 //006   ----------------------------------------
 BYTE   TIE  Dn3
 BYTE   N92  Gn3
 BYTE   W96
//  #11 //007   ----------------------------------------
 BYTE   An3
 BYTE   W92
 BYTE   W03
 BYTE   EOT
 BYTE   Dn3
 BYTE   W01
//  #11 //008   ----------------------------------------
Label_017AA881:
 BYTE   TIE  Gn3  v072
 BYTE   N92  Bn3
 BYTE   W96
 BYTE   PEND 
//  #11 //009   ----------------------------------------
 BYTE   N44  Cn4
 BYTE   W48
 BYTE   N23  Dn4
 BYTE   W24
 BYTE   Cn4
 BYTE   W23
 BYTE   EOT
 BYTE   Gn3
 BYTE   W01
//  #11 //010   ----------------------------------------
 BYTE   PATT
  POIN2 Label_017AA881
//  #11 //011   ----------------------------------------
 BYTE   N92  Cn4  v072
 BYTE   W92
 BYTE   W03
 BYTE   EOT
 BYTE   Gn3
 BYTE   W01
//  #11 //012   ----------------------------------------
 BYTE   N92  Gs3
 BYTE   N92  Bn3
 BYTE   W96
//  #11 //013   ----------------------------------------
 BYTE   TIE  Gn3
 BYTE   N92  Cn4
 BYTE   W96
//  #11 //014   ----------------------------------------
 BYTE   Dn4
 BYTE   W96
//  #11 //015   ----------------------------------------
 BYTE   Bn3
 BYTE   W92
 BYTE   W03
 BYTE   EOT
 BYTE   Gn3
 BYTE   W01
//  #11 //016   ----------------------------------------
 BYTE   N92  En3
 BYTE   N92  Cn4
 BYTE   W44
 BYTE   W03
 BYTE   TIE  Gn4  v064
 BYTE   W48
 BYTE   W01
//  #11 //017   ----------------------------------------
 BYTE   N92  En3  v072
 BYTE   N92  Bn3
 BYTE   W80
 BYTE   W01
 BYTE   EOT
 BYTE   Gn4
 BYTE   W15
//  #11 //018   ----------------------------------------
 BYTE   N92  En3
 BYTE   N92  Cn4
 BYTE   W48
 BYTE   TIE  Gn4  v060
 BYTE   W48
//  #11 //019   ----------------------------------------
 BYTE   N92  En3  v072
 BYTE   N92  Bn3
 BYTE   W66
 BYTE   EOT
 BYTE   Gn4
 BYTE   W06
 BYTE   TIE  Gn4  v068
 BYTE   W24
//  #11 //020   ----------------------------------------
 BYTE   N92  Ds3  v072
 BYTE   N44  Gn3
 BYTE   N44  Cn4
 BYTE   W48
 BYTE   N44
 BYTE   N44  Ds4
 BYTE   W48
//  #11 //021   ----------------------------------------
 BYTE   N92  Dn3
 BYTE   N92  As3
 BYTE   N92  Dn4
 BYTE   N24  Fn4  v068
 BYTE   W01
 BYTE   EOT
 BYTE   Gn4
 BYTE   W23
 BYTE   N48  Cn5
 BYTE   W48
 BYTE   N23  As4
 BYTE   W18
 BYTE   TIE  Gn4
 BYTE   W06
//  #11 //022   ----------------------------------------
 BYTE   N92  Ds3  v072
 BYTE   N44  Gn3
 BYTE   N44  Cn4
 BYTE   W48
 BYTE   N44
 BYTE   N44  Ds4
 BYTE   W44
 BYTE   W01
 BYTE   EOT
 BYTE   Gn4
 BYTE   W03
//  #11 //023   ----------------------------------------
 BYTE   N92  Dn3
 BYTE   N92  As3
 BYTE   N92  Dn4
 BYTE   N24  Fn4  v068
 BYTE   W24
 BYTE   N48  Cn5
 BYTE   W48
 BYTE   N22  As4
 BYTE   W24
//  #11 //024   ----------------------------------------
Label_017AA91F:
 BYTE   TIE  Gn3  v072
 BYTE   N92  Cn4
 BYTE   N92  Fn4  v068
 BYTE   W96
 BYTE   PEND 
//  #11 //025   ----------------------------------------
Label_017AA929:
 BYTE   N92  As3  v072
 BYTE   N92  Gn4  v068
 BYTE   W92
 BYTE   W03
 BYTE   PEND 
 BYTE   EOT
 BYTE   Gn3
 BYTE   W01
//  #11 //026   ----------------------------------------
 BYTE   PATT
  POIN2 Label_017AA91F
//  #11 //027   ----------------------------------------
 BYTE   PATT
  POIN2 Label_017AA929
//  #11 //028   ----------------------------------------
 BYTE   EOT
 BYTE   Gn3
 BYTE   W01
 BYTE   TIE  Gn3  v072
 BYTE   TIE  Cn4
 BYTE   TIE  Fn4  v068
 BYTE   W96
//  #11 //029   ----------------------------------------
 BYTE   W80
 BYTE   W03
 BYTE   EOT
 BYTE   Gn3  v072
 BYTE   Fn4
 BYTE   W13
//  #11 //030   ----------------------------------------
 BYTE   W96
//  #11 //031   ----------------------------------------
 BYTE   W96
//  #11 //032   ----------------------------------------
 BYTE   W96
//  #11 //033   ----------------------------------------
 BYTE   W96
//  #11 //034   ----------------------------------------
 BYTE   W96
//  #11 //035   ----------------------------------------
 BYTE   W96
//  #11 //036   ----------------------------------------
 BYTE   W96
//  #11 //037   ----------------------------------------
 BYTE   W96
//  #11 //038   ----------------------------------------
 BYTE   W96
//  #11 //039   ----------------------------------------
 BYTE   W96
//  #11 //040   ----------------------------------------
 BYTE   W96
//  #11 //041   ----------------------------------------
 BYTE   W96
//  #11 //042   ----------------------------------------
 BYTE   W96
//  #11 //043   ----------------------------------------
 BYTE   W96
//  #11 //044   ----------------------------------------
 BYTE   W96
//  #11 //045   ----------------------------------------
 BYTE   W96
//  #11 //046   ----------------------------------------
 BYTE   W96
//  #11 //047   ----------------------------------------
 BYTE   W96
//  #11 //048   ----------------------------------------
 BYTE   W96
//  #11 //049   ----------------------------------------
 BYTE   W96
//  #11 //050   ----------------------------------------
 BYTE   GoTo
  POIN2 Label_017AA84A
 BYTE   FINE

//**************** Track 12 (Midi-Chn.11) ****************//

EverScarletForest_012:
//  #12 //000   ----------------------------------------
 BYTE   KEYSH   EverScarletForest_key+0
Label_017AA982:
 BYTE   VOICE   105
 BYTE   VOL   28*EverScarletForest_mvl/mxv
 BYTE   PAN   c_v+63
 BYTE   BEND   c_v-4
 BYTE   N92  Bn2  v072
 BYTE   TIE  Gn3
 BYTE   W96
//  #12 //001   ----------------------------------------
 BYTE   N44  Cn3
 BYTE   W48
 BYTE   N23  Dn3
 BYTE   W24
 BYTE   Cn3
 BYTE   W23
 BYTE   EOT
 BYTE   Gn3
 BYTE   W01
//  #12 //002   ----------------------------------------
 BYTE   N92  Bn2
 BYTE   TIE  Gn3
 BYTE   W96
//  #12 //003   ----------------------------------------
 BYTE   N92  Cn3
 BYTE   W92
 BYTE   W03
 BYTE   EOT
 BYTE   Gn3
 BYTE   W01
//  #12 //004   ----------------------------------------
 BYTE   N92  Bn2
 BYTE   N92  Gs3
 BYTE   W96
//  #12 //005   ----------------------------------------
 BYTE   Cn3
 BYTE   N92  Gn3
 BYTE   W96
//  #12 //006   ----------------------------------------
 BYTE   TIE  Dn3
 BYTE   N92  Gn3
 BYTE   W96
//  #12 //007   ----------------------------------------
 BYTE   An3
 BYTE   W92
 BYTE   W03
 BYTE   EOT
 BYTE   Dn3
 BYTE   W01
//  #12 //008   ----------------------------------------
Label_017AA9BB:
 BYTE   TIE  Gn3  v072
 BYTE   N92  Bn3
 BYTE   W96
 BYTE   PEND 
//  #12 //009   ----------------------------------------
 BYTE   N44  Cn4
 BYTE   W48
 BYTE   N23  Dn4
 BYTE   W24
 BYTE   Cn4
 BYTE   W23
 BYTE   EOT
 BYTE   Gn3
 BYTE   W01
//  #12 //010   ----------------------------------------
 BYTE   PATT
  POIN2 Label_017AA9BB
//  #12 //011   ----------------------------------------
 BYTE   N92  Cn4  v072
 BYTE   W92
 BYTE   W03
 BYTE   EOT
 BYTE   Gn3
 BYTE   W01
//  #12 //012   ----------------------------------------
 BYTE   N92  Gs3
 BYTE   N92  Bn3
 BYTE   W96
//  #12 //013   ----------------------------------------
 BYTE   TIE  Gn3
 BYTE   N92  Cn4
 BYTE   W96
//  #12 //014   ----------------------------------------
 BYTE   Dn4
 BYTE   W96
//  #12 //015   ----------------------------------------
 BYTE   Bn3
 BYTE   W92
 BYTE   W03
 BYTE   EOT
 BYTE   Gn3
 BYTE   W01
//  #12 //016   ----------------------------------------
 BYTE   N92  En3
 BYTE   N92  Cn4
 BYTE   W44
 BYTE   W03
 BYTE   TIE  Gn4  v064
 BYTE   W48
 BYTE   W01
//  #12 //017   ----------------------------------------
 BYTE   N92  En3  v072
 BYTE   N92  Bn3
 BYTE   W80
 BYTE   W01
 BYTE   EOT
 BYTE   Gn4
 BYTE   W15
//  #12 //018   ----------------------------------------
 BYTE   N92  En3
 BYTE   N92  Cn4
 BYTE   W48
 BYTE   TIE  Gn4  v060
 BYTE   W48
//  #12 //019   ----------------------------------------
 BYTE   N92  En3  v072
 BYTE   N92  Bn3
 BYTE   W66
 BYTE   EOT
 BYTE   Gn4
 BYTE   W06
 BYTE   TIE  Gn4  v068
 BYTE   W24
//  #12 //020   ----------------------------------------
 BYTE   N92  Ds3  v072
 BYTE   N44  Gn3
 BYTE   N44  Cn4
 BYTE   W48
 BYTE   N44
 BYTE   N44  Ds4
 BYTE   W48
//  #12 //021   ----------------------------------------
 BYTE   N92  Dn3
 BYTE   N92  As3
 BYTE   N92  Dn4
 BYTE   N24  Fn4  v068
 BYTE   W01
 BYTE   EOT
 BYTE   Gn4
 BYTE   W23
 BYTE   N48  Cn5
 BYTE   W48
 BYTE   N23  As4
 BYTE   W18
 BYTE   TIE  Gn4
 BYTE   W06
//  #12 //022   ----------------------------------------
 BYTE   N92  Ds3  v072
 BYTE   N44  Gn3
 BYTE   N44  Cn4
 BYTE   W48
 BYTE   N44
 BYTE   N44  Ds4
 BYTE   W44
 BYTE   W01
 BYTE   EOT
 BYTE   Gn4
 BYTE   W03
//  #12 //023   ----------------------------------------
 BYTE   N92  Dn3
 BYTE   N92  As3
 BYTE   N92  Dn4
 BYTE   N24  Fn4  v068
 BYTE   W24
 BYTE   N48  Cn5
 BYTE   W48
 BYTE   N22  As4
 BYTE   W24
//  #12 //024   ----------------------------------------
Label_017AAA59:
 BYTE   TIE  Gn3  v072
 BYTE   N92  Cn4
 BYTE   N92  Fn4  v068
 BYTE   W96
 BYTE   PEND 
//  #12 //025   ----------------------------------------
Label_017AAA63:
 BYTE   N92  As3  v072
 BYTE   N92  Gn4  v068
 BYTE   W92
 BYTE   W03
 BYTE   PEND 
 BYTE   EOT
 BYTE   Gn3
 BYTE   W01
//  #12 //026   ----------------------------------------
 BYTE   PATT
  POIN2 Label_017AAA59
//  #12 //027   ----------------------------------------
 BYTE   PATT
  POIN2 Label_017AAA63
//  #12 //028   ----------------------------------------
 BYTE   EOT
 BYTE   Gn3
 BYTE   W01
 BYTE   TIE  Gn3  v072
 BYTE   TIE  Cn4
 BYTE   TIE  Fn4  v068
 BYTE   W96
//  #12 //029   ----------------------------------------
 BYTE   W80
 BYTE   W03
 BYTE   EOT
 BYTE   Gn3  v072
 BYTE   Fn4
 BYTE   W13
//  #12 //030   ----------------------------------------
 BYTE   W96
//  #12 //031   ----------------------------------------
 BYTE   W96
//  #12 //032   ----------------------------------------
 BYTE   W96
//  #12 //033   ----------------------------------------
 BYTE   W96
//  #12 //034   ----------------------------------------
 BYTE   W96
//  #12 //035   ----------------------------------------
 BYTE   W96
//  #12 //036   ----------------------------------------
 BYTE   W96
//  #12 //037   ----------------------------------------
 BYTE   W96
//  #12 //038   ----------------------------------------
 BYTE   W96
//  #12 //039   ----------------------------------------
 BYTE   W96
//  #12 //040   ----------------------------------------
 BYTE   W96
//  #12 //041   ----------------------------------------
 BYTE   W96
//  #12 //042   ----------------------------------------
 BYTE   W96
//  #12 //043   ----------------------------------------
 BYTE   W96
//  #12 //044   ----------------------------------------
 BYTE   W96
//  #12 //045   ----------------------------------------
 BYTE   W96
//  #12 //046   ----------------------------------------
 BYTE   W96
//  #12 //047   ----------------------------------------
 BYTE   W96
//  #12 //048   ----------------------------------------
 BYTE   W96
//  #12 //049   ----------------------------------------
 BYTE   W96
//  #12 //050   ----------------------------------------
 BYTE   GoTo
  POIN2 Label_017AA982
 BYTE   FINE

//**************** Track 13 (Midi-Chn.12) ****************//

EverScarletForest_013:
//  #13 //000   ----------------------------------------
 BYTE   KEYSH   EverScarletForest_key+0
Label_017AAABA:
 BYTE   VOICE   1
 BYTE   VOL   32*EverScarletForest_mvl/mxv
 BYTE   PAN   c_v+63
 BYTE   W96
//  #13 //001   ----------------------------------------
 BYTE   W96
//  #13 //002   ----------------------------------------
 BYTE   W96
//  #13 //003   ----------------------------------------
 BYTE   W96
//  #13 //004   ----------------------------------------
 BYTE   W96
//  #13 //005   ----------------------------------------
 BYTE   W96
//  #13 //006   ----------------------------------------
 BYTE   W96
//  #13 //007   ----------------------------------------
 BYTE   W96
//  #13 //008   ----------------------------------------
 BYTE   W96
//  #13 //009   ----------------------------------------
 BYTE   W96
//  #13 //010   ----------------------------------------
 BYTE   W96
//  #13 //011   ----------------------------------------
 BYTE   W96
//  #13 //012   ----------------------------------------
 BYTE   W96
//  #13 //013   ----------------------------------------
 BYTE   W96
//  #13 //014   ----------------------------------------
 BYTE   W96
//  #13 //015   ----------------------------------------
 BYTE   W96
//  #13 //016   ----------------------------------------
 BYTE   W96
//  #13 //017   ----------------------------------------
 BYTE   W96
//  #13 //018   ----------------------------------------
 BYTE   W96
//  #13 //019   ----------------------------------------
 BYTE   W96
//  #13 //020   ----------------------------------------
 BYTE   W96
//  #13 //021   ----------------------------------------
 BYTE   W96
//  #13 //022   ----------------------------------------
 BYTE   W96
//  #13 //023   ----------------------------------------
 BYTE   W96
//  #13 //024   ----------------------------------------
 BYTE   W96
//  #13 //025   ----------------------------------------
 BYTE   W96
//  #13 //026   ----------------------------------------
 BYTE   W96
//  #13 //027   ----------------------------------------
 BYTE   W96
//  #13 //028   ----------------------------------------
 BYTE   W96
//  #13 //029   ----------------------------------------
 BYTE   W12
 BYTE   W84
//  #13 //030   ----------------------------------------
 BYTE   W18
 BYTE   VOL   31*EverScarletForest_mvl/mxv
 BYTE   BEND   c_v+0
 BYTE   N11  Dn4  v092
 BYTE   W06
 BYTE   BEND   c_v+1
 BYTE   W06
 BYTE   N11  Cn4
 BYTE   W12
 BYTE   N40  Gn3
 BYTE   W48
 BYTE   N11  Fn3
 BYTE   W06
//  #13 //031   ----------------------------------------
 BYTE   W06
 BYTE   Ds3
 BYTE   W12
 BYTE   Fn3
 BYTE   W12
 BYTE   Ds3
 BYTE   W12
 BYTE   N40  Fn3
 BYTE   W48
 BYTE   N23  Gn3
 BYTE   W06
//  #13 //032   ----------------------------------------
 BYTE   W18
 BYTE   N11  Dn4
 BYTE   W12
 BYTE   Cn4
 BYTE   W12
 BYTE   N40  Gn3
 BYTE   W48
 BYTE   N11  Fn3
 BYTE   W06
//  #13 //033   ----------------------------------------
 BYTE   W06
 BYTE   Ds3
 BYTE   W12
 BYTE   Fn3
 BYTE   W12
 BYTE   Ds3
 BYTE   W12
 BYTE   N40  Fn3
 BYTE   W48
 BYTE   N11
 BYTE   W06
//  #13 //034   ----------------------------------------
 BYTE   W06
 BYTE   Gn3
 BYTE   W12
 BYTE   Ds3
 BYTE   W12
 BYTE   Dn3
 BYTE   W12
 BYTE   N40  Ds3
 BYTE   W48
 BYTE   N11  Dn3
 BYTE   W06
//  #13 //035   ----------------------------------------
 BYTE   W06
 BYTE   Cn3
 BYTE   W12
 BYTE   As2
 BYTE   W12
 BYTE   An2
 BYTE   W12
 BYTE   N56  As2
 BYTE   W54
//  #13 //036   ----------------------------------------
 BYTE   W18
 BYTE   N11  Ds3
 BYTE   W12
 BYTE   Dn3
 BYTE   W12
 BYTE   N40  Ds3
 BYTE   W48
 BYTE   N11  Dn3
 BYTE   W06
//  #13 //037   ----------------------------------------
 BYTE   W06
 BYTE   Cn3
 BYTE   W12
 BYTE   As2
 BYTE   W12
 BYTE   An2
 BYTE   W12
 BYTE   N56  As2
 BYTE   W12
 BYTE   N44  Dn3
 BYTE   W42
//  #13 //038   ----------------------------------------
 BYTE   W18
 BYTE   N11  Gn3
 BYTE   W12
 BYTE   Fn3
 BYTE   W12
 BYTE   N40  Gn3
 BYTE   W48
 BYTE   N11
 BYTE   W06
//  #13 //039   ----------------------------------------
 BYTE   W06
 BYTE   As3
 BYTE   W12
 BYTE   Cn4
 BYTE   W12
 BYTE   As3
 BYTE   W12
 BYTE   N40  Fn3
 BYTE   W48
 BYTE   N23
 BYTE   W06
//  #13 //040   ----------------------------------------
 BYTE   W18
 BYTE   N11  Ds3
 BYTE   W12
 BYTE   Dn3
 BYTE   W12
 BYTE   N40  Ds3
 BYTE   W48
 BYTE   N11  As3
 BYTE   W06
//  #13 //041   ----------------------------------------
 BYTE   W06
 BYTE   Ds4
 BYTE   W12
 BYTE   Fn4
 BYTE   W12
 BYTE   Ds4
 BYTE   W12
 BYTE   N40  As3
 BYTE   W48
 BYTE   N23
 BYTE   W06
//  #13 //042   ----------------------------------------
 BYTE   W18
 BYTE   N11  Gs3
 BYTE   W12
 BYTE   Fs3
 BYTE   W12
 BYTE   N40  Gs3
 BYTE   W48
 BYTE   N11  Fs3
 BYTE   W06
//  #13 //043   ----------------------------------------
 BYTE   W06
 BYTE   Gs3
 BYTE   W12
 BYTE   N11
 BYTE   W12
 BYTE   Fs3
 BYTE   W12
 BYTE   N40  Fn3
 BYTE   W48
 BYTE   N23  Ds3
 BYTE   W06
//  #13 //044   ----------------------------------------
 BYTE   W18
 BYTE   N92
 BYTE   W78
//  #13 //045   ----------------------------------------
 BYTE   W18
 BYTE   N68  Dn3
 BYTE   N68  As3
 BYTE   W42
 BYTE   W06
 BYTE   W06
 BYTE   W06
 BYTE   W06
 BYTE   W06
 BYTE   W06
//  #13 //046   ----------------------------------------
 BYTE   W06
 BYTE   VOL   30*EverScarletForest_mvl/mxv
 BYTE   W06
 BYTE   W06
 BYTE   TIE  Dn3  v072
 BYTE   TIE  An3
 BYTE   W06
 BYTE   W06
 BYTE   W06
 BYTE   W06
 BYTE   W06
 BYTE   VOL   29*EverScarletForest_mvl/mxv
 BYTE   W06
 BYTE   W06
 BYTE   W06
 BYTE   W06
 BYTE   VOL   29*EverScarletForest_mvl/mxv
 BYTE   W06
 BYTE   W06
 BYTE   VOL   28*EverScarletForest_mvl/mxv
 BYTE   W06
 BYTE   W06
//  #13 //047   ----------------------------------------
 BYTE   VOL   28*EverScarletForest_mvl/mxv
 BYTE   W06
 BYTE   VOL   28*EverScarletForest_mvl/mxv
 BYTE   W06
 BYTE   W06
 BYTE   VOL   27*EverScarletForest_mvl/mxv
 BYTE   W06
 BYTE   VOL   27*EverScarletForest_mvl/mxv
 BYTE   W06
 BYTE   VOL   26*EverScarletForest_mvl/mxv
 BYTE   W06
 BYTE   VOL   26*EverScarletForest_mvl/mxv
 BYTE   W06
 BYTE   VOL   26*EverScarletForest_mvl/mxv
 BYTE   W06
 BYTE   W06
 BYTE   VOL   25*EverScarletForest_mvl/mxv
 BYTE   W06
 BYTE   VOL   25*EverScarletForest_mvl/mxv
 BYTE   W06
 BYTE   VOL   24*EverScarletForest_mvl/mxv
 BYTE   W06
 BYTE   W06
 BYTE   VOL   24*EverScarletForest_mvl/mxv
 BYTE   W06
 BYTE   VOL   23*EverScarletForest_mvl/mxv
 BYTE   W06
 BYTE   VOL   22*EverScarletForest_mvl/mxv
 BYTE   W06
//  #13 //048   ----------------------------------------
 BYTE   VOL   22*EverScarletForest_mvl/mxv
 BYTE   W06
 BYTE   VOL   22*EverScarletForest_mvl/mxv
 BYTE   W06
 BYTE   VOL   21*EverScarletForest_mvl/mxv
 BYTE   W06
 BYTE   VOL   20*EverScarletForest_mvl/mxv
 BYTE   W06
 BYTE   VOL   20*EverScarletForest_mvl/mxv
 BYTE   W06
 BYTE   VOL   19*EverScarletForest_mvl/mxv
 BYTE   W06
 BYTE   VOL   19*EverScarletForest_mvl/mxv
 BYTE   W06
 BYTE   VOL   18*EverScarletForest_mvl/mxv
 BYTE   W06
 BYTE   VOL   17*EverScarletForest_mvl/mxv
 BYTE   W06
 BYTE   VOL   17*EverScarletForest_mvl/mxv
 BYTE   W06
 BYTE   VOL   16*EverScarletForest_mvl/mxv
 BYTE   W06
 BYTE   VOL   15*EverScarletForest_mvl/mxv
 BYTE   W06
 BYTE   VOL   15*EverScarletForest_mvl/mxv
 BYTE   W06
 BYTE   VOL   14*EverScarletForest_mvl/mxv
 BYTE   W06
 BYTE   VOL   13*EverScarletForest_mvl/mxv
 BYTE   W06
 BYTE   VOL   12*EverScarletForest_mvl/mxv
 BYTE   W06
//  #13 //049   ----------------------------------------
 BYTE   VOL   12*EverScarletForest_mvl/mxv
 BYTE   W06
 BYTE   VOL   11*EverScarletForest_mvl/mxv
 BYTE   W06
 BYTE   VOL   10*EverScarletForest_mvl/mxv
 BYTE   W06
 BYTE   VOL   9*EverScarletForest_mvl/mxv
 BYTE   W06
 BYTE   VOL   8*EverScarletForest_mvl/mxv
 BYTE   W40
 BYTE   W01
 BYTE   EOT
 BYTE   EOT
 BYTE   Dn3  v069
 BYTE   W30
 BYTE   W01
//  #13 //050   ----------------------------------------
 BYTE   GoTo
  POIN2 Label_017AAABA
 BYTE   FINE

//**************** Track 14 (Midi-Chn.13) ****************//

EverScarletForest_014:
//  #14 //000   ----------------------------------------
 BYTE   KEYSH   EverScarletForest_key+0
Label_0198FA26:
 BYTE   VOICE   13
 BYTE   VOL   51*EverScarletForest_mvl/mxv
 BYTE   PAN   c_v-60
 BYTE   W96
//  #14 //001   ----------------------------------------
 BYTE   W96
//  #14 //002   ----------------------------------------
 BYTE   W96
//  #14 //003   ----------------------------------------
 BYTE   W96
//  #14 //004   ----------------------------------------
 BYTE   W96
//  #14 //005   ----------------------------------------
 BYTE   W96
//  #14 //006   ----------------------------------------
 BYTE   W96
//  #14 //007   ----------------------------------------
 BYTE   W96
//  #14 //008   ----------------------------------------
 BYTE   W96
//  #14 //009   ----------------------------------------
 BYTE   W96
//  #14 //010   ----------------------------------------
 BYTE   W96
//  #14 //011   ----------------------------------------
 BYTE   W96
//  #14 //012   ----------------------------------------
 BYTE   W96
//  #14 //013   ----------------------------------------
 BYTE   W96
//  #14 //014   ----------------------------------------
 BYTE   W96
//  #14 //015   ----------------------------------------
 BYTE   W96
//  #14 //016   ----------------------------------------
 BYTE   W96
//  #14 //017   ----------------------------------------
 BYTE   W96
//  #14 //018   ----------------------------------------
 BYTE   W96
//  #14 //019   ----------------------------------------
 BYTE   W96
//  #14 //020   ----------------------------------------
 BYTE   W96
//  #14 //021   ----------------------------------------
 BYTE   W96
//  #14 //022   ----------------------------------------
 BYTE   W96
//  #14 //023   ----------------------------------------
 BYTE   W96
//  #14 //024   ----------------------------------------
 BYTE   W96
//  #14 //025   ----------------------------------------
 BYTE   W96
//  #14 //026   ----------------------------------------
 BYTE   W96
//  #14 //027   ----------------------------------------
 BYTE   W96
//  #14 //028   ----------------------------------------
 BYTE   W96
//  #14 //029   ----------------------------------------
 BYTE   W96
//  #14 //030   ----------------------------------------
 BYTE   W96
//  #14 //031   ----------------------------------------
 BYTE   W96
//  #14 //032   ----------------------------------------
 BYTE   W96
//  #14 //033   ----------------------------------------
 BYTE   W96
//  #14 //034   ----------------------------------------
 BYTE   W96
//  #14 //035   ----------------------------------------
 BYTE   W96
//  #14 //036   ----------------------------------------
 BYTE   W96
//  #14 //037   ----------------------------------------
 BYTE   W96
//  #14 //038   ----------------------------------------
 BYTE   W96
//  #14 //039   ----------------------------------------
 BYTE   W96
//  #14 //040   ----------------------------------------
 BYTE   W96
//  #14 //041   ----------------------------------------
 BYTE   W96
//  #14 //042   ----------------------------------------
 BYTE   W96
//  #14 //043   ----------------------------------------
 BYTE   W96
//  #14 //044   ----------------------------------------
 BYTE   W96
//  #14 //045   ----------------------------------------
 BYTE   W96
//  #14 //046   ----------------------------------------
 BYTE   W12
 BYTE   N23  An4  v048
 BYTE   W12
 BYTE   Gn4
 BYTE   W12
 BYTE   An4
 BYTE   W12
 BYTE   Dn4
 BYTE   W12
 BYTE   An4
 BYTE   W12
 BYTE   N11  Dn5
 BYTE   W12
 BYTE   N23
 BYTE   W12
//  #14 //047   ----------------------------------------
 BYTE   N11  An5
 BYTE   W12
 BYTE   N23
 BYTE   W12
 BYTE   N11  Dn5
 BYTE   W12
 BYTE   N23
 BYTE   W12
 BYTE   N11  An4
 BYTE   W12
 BYTE   N68
 BYTE   W12
 BYTE   N11  Dn4
 BYTE   W12
 BYTE   N68
 BYTE   W12
//  #14 //048   ----------------------------------------
 BYTE   N11  An3
 BYTE   W12
 BYTE   N80
 BYTE   W84
//  #14 //049   ----------------------------------------
 BYTE   W96
//  #14 //050   ----------------------------------------
 BYTE   GoTo
  POIN2 Label_0198FA26
 BYTE   FINE

//**************** Track 15 (Midi-Chn.14) ****************//

EverScarletForest_015:
//  #15 //000   ----------------------------------------
 BYTE   KEYSH   EverScarletForest_key+0
Label_0198F7D2:
 BYTE   VOICE   13
 BYTE   VOL   51*EverScarletForest_mvl/mxv
 BYTE   PAN   c_v+59
 BYTE   W96
//  #15 //001   ----------------------------------------
 BYTE   W96
//  #15 //002   ----------------------------------------
 BYTE   W96
//  #15 //003   ----------------------------------------
 BYTE   W96
//  #15 //004   ----------------------------------------
 BYTE   W96
//  #15 //005   ----------------------------------------
 BYTE   W96
//  #15 //006   ----------------------------------------
 BYTE   W96
//  #15 //007   ----------------------------------------
 BYTE   W96
//  #15 //008   ----------------------------------------
 BYTE   W96
//  #15 //009   ----------------------------------------
 BYTE   W96
//  #15 //010   ----------------------------------------
 BYTE   W96
//  #15 //011   ----------------------------------------
 BYTE   W96
//  #15 //012   ----------------------------------------
 BYTE   W96
//  #15 //013   ----------------------------------------
 BYTE   W96
//  #15 //014   ----------------------------------------
 BYTE   W96
//  #15 //015   ----------------------------------------
 BYTE   W96
//  #15 //016   ----------------------------------------
 BYTE   W96
//  #15 //017   ----------------------------------------
 BYTE   W96
//  #15 //018   ----------------------------------------
 BYTE   W96
//  #15 //019   ----------------------------------------
 BYTE   W96
//  #15 //020   ----------------------------------------
 BYTE   W96
//  #15 //021   ----------------------------------------
 BYTE   W96
//  #15 //022   ----------------------------------------
 BYTE   W96
//  #15 //023   ----------------------------------------
 BYTE   W96
//  #15 //024   ----------------------------------------
 BYTE   W96
//  #15 //025   ----------------------------------------
 BYTE   W96
//  #15 //026   ----------------------------------------
 BYTE   W96
//  #15 //027   ----------------------------------------
 BYTE   W96
//  #15 //028   ----------------------------------------
 BYTE   W96
//  #15 //029   ----------------------------------------
 BYTE   W96
//  #15 //030   ----------------------------------------
 BYTE   W96
//  #15 //031   ----------------------------------------
 BYTE   W96
//  #15 //032   ----------------------------------------
 BYTE   W96
//  #15 //033   ----------------------------------------
 BYTE   W96
//  #15 //034   ----------------------------------------
 BYTE   W96
//  #15 //035   ----------------------------------------
 BYTE   W96
//  #15 //036   ----------------------------------------
 BYTE   W96
//  #15 //037   ----------------------------------------
 BYTE   W96
//  #15 //038   ----------------------------------------
 BYTE   W96
//  #15 //039   ----------------------------------------
 BYTE   W96
//  #15 //040   ----------------------------------------
 BYTE   W96
//  #15 //041   ----------------------------------------
 BYTE   W96
//  #15 //042   ----------------------------------------
 BYTE   W96
//  #15 //043   ----------------------------------------
 BYTE   W96
//  #15 //044   ----------------------------------------
 BYTE   W96
//  #15 //045   ----------------------------------------
 BYTE   W96
//  #15 //046   ----------------------------------------
 BYTE   W24
 BYTE   N23  An4  v044
 BYTE   W12
 BYTE   Gn4
 BYTE   W12
 BYTE   An4
 BYTE   W12
 BYTE   Dn4
 BYTE   W12
 BYTE   An4
 BYTE   W12
 BYTE   N11  Dn5
 BYTE   W12
//  #15 //047   ----------------------------------------
 BYTE   N23
 BYTE   W12
 BYTE   N11  An5
 BYTE   W12
 BYTE   N23
 BYTE   W12
 BYTE   N11  Dn5
 BYTE   W12
 BYTE   N23
 BYTE   W12
 BYTE   N11  An4
 BYTE   W12
 BYTE   N68
 BYTE   W12
 BYTE   N11  Dn4
 BYTE   W12
//  #15 //048   ----------------------------------------
 BYTE   N68
 BYTE   W12
 BYTE   N11  An3
 BYTE   W12
 BYTE   N80
 BYTE   W72
//  #15 //049   ----------------------------------------
 BYTE   W96
//  #15 //050   ----------------------------------------
 BYTE   GoTo
  POIN2 Label_0198F7D2
 BYTE   FINE

//******************************************************//
	ALIGN 4

EverScarletForest:
	BYTE	15	// NumTrks
	BYTE	0	// NumBlks
	BYTE	EverScarletForest_pri	// Priority
	BYTE	EverScarletForest_rev	// Reverb.
    
	POIN2	EverScarletForest_grp
    
	POIN2	EverScarletForest_001
	POIN2	EverScarletForest_002
	POIN2	EverScarletForest_003
	POIN2	EverScarletForest_004
	POIN2	EverScarletForest_005
	POIN2	EverScarletForest_006
	POIN2	EverScarletForest_007
	POIN2	EverScarletForest_008
	POIN2	EverScarletForest_009
	POIN2	EverScarletForest_010
	POIN2	EverScarletForest_011
	POIN2	EverScarletForest_012
	POIN2	EverScarletForest_013
	POIN2	EverScarletForest_014
	POIN2	EverScarletForest_015

	
