//Event file generated from Sappy .s format.
	#include "MPlayDef.event"

	#define	Expedition_grp  voicegroup000
	#define	Expedition_pri  0
	#define	Expedition_rev  0
	#define	Expedition_mvl  127
	#define	Expedition_key  0
	#define	Expedition_tbs  1
	#define	Expedition_exg  0
	#define	Expedition_cmp  1

	// .rodata
	//	Expedition
	ALIGN 4


//**************** Track 1 (Midi-Chn.0) ****************//

Expedition_001:
//  #01 //000   ----------------------------------------
 BYTE   KEYSH   Expedition_key+0
Label_0170B626:
 BYTE   TEMPO   60*Expedition_tbs/2
 BYTE   VOICE   81
 BYTE   VOL   48*Expedition_mvl/mxv
 BYTE   PAN   c_v+25
 BYTE   VOL   48*Expedition_mvl/mxv
 BYTE   PAN   c_v+25
 BYTE   N02  Fn3  v096
 BYTE   W03
 BYTE   Cn4  v092
 BYTE   W03
 BYTE   As3
 BYTE   W03
 BYTE   Gs3
 BYTE   W03
 BYTE   As3
 BYTE   W03
 BYTE   Gs3
 BYTE   W03
 BYTE   Gn3
 BYTE   W03
 BYTE   Gs3
 BYTE   W03
 BYTE   As3
 BYTE   W03
 BYTE   Gs3
 BYTE   W03
 BYTE   Gn3
 BYTE   W03
 BYTE   Gs3
 BYTE   W03
 BYTE   Gn3
 BYTE   W03
 BYTE   Fn3
 BYTE   W03
 BYTE   Ds3
 BYTE   W03
 BYTE   Cn3
 BYTE   W03
 BYTE   Fn3  v096
 BYTE   W03
 BYTE   Cn4  v092
 BYTE   W03
 BYTE   As3
 BYTE   W03
 BYTE   Gs3
 BYTE   W03
 BYTE   As3
 BYTE   W03
 BYTE   Gs3
 BYTE   W03
 BYTE   Gn3
 BYTE   W03
 BYTE   Gs3
 BYTE   W03
 BYTE   As3
 BYTE   W03
 BYTE   Gs3
 BYTE   W03
 BYTE   Gn3
 BYTE   W03
 BYTE   Gs3
 BYTE   W03
 BYTE   Gn3
 BYTE   W03
 BYTE   Fn3
 BYTE   W03
 BYTE   Ds3
 BYTE   W03
 BYTE   Cn3
 BYTE   W03
//  #01 //001   ----------------------------------------
 BYTE   TEMPO   60*Expedition_tbs/2
 BYTE   Fn3  v096
 BYTE   W03
 BYTE   Cn4  v092
 BYTE   W03
 BYTE   As3
 BYTE   W03
 BYTE   Gs3
 BYTE   W03
 BYTE   As3
 BYTE   W03
 BYTE   Gs3
 BYTE   W03
 BYTE   Gn3
 BYTE   W03
 BYTE   Gs3
 BYTE   W03
 BYTE   As3
 BYTE   W03
 BYTE   Gs3
 BYTE   W03
 BYTE   Gn3
 BYTE   W03
 BYTE   Gs3
 BYTE   W03
 BYTE   Gn3
 BYTE   W03
 BYTE   Fn3
 BYTE   W03
 BYTE   Ds3
 BYTE   W03
 BYTE   Cn3
 BYTE   W03
 BYTE   Fn3  v096
 BYTE   W03
 BYTE   Cn4  v092
 BYTE   W03
 BYTE   As3
 BYTE   W03
 BYTE   Gs3
 BYTE   W03
 BYTE   As3
 BYTE   W03
 BYTE   Gs3
 BYTE   W03
 BYTE   Gn3
 BYTE   W03
 BYTE   Gs3
 BYTE   W03
 BYTE   As3
 BYTE   W03
 BYTE   Gs3
 BYTE   W03
 BYTE   Gn3
 BYTE   W03
 BYTE   Gs3
 BYTE   W03
 BYTE   Gn3
 BYTE   W03
 BYTE   Fn3
 BYTE   W03
 BYTE   Ds3
 BYTE   W03
 BYTE   Cn3
 BYTE   W03
//  #01 //002   ----------------------------------------
Label_0170B6BD:
 BYTE   N02  Fn3  v096
 BYTE   W03
 BYTE   Cn4  v092
 BYTE   W03
 BYTE   As3
 BYTE   W03
 BYTE   Gs3
 BYTE   W03
 BYTE   As3
 BYTE   W03
 BYTE   Gs3
 BYTE   W03
 BYTE   Gn3
 BYTE   W03
 BYTE   Gs3
 BYTE   W03
 BYTE   As3
 BYTE   W03
 BYTE   Gs3
 BYTE   W03
 BYTE   Gn3
 BYTE   W03
 BYTE   Gs3
 BYTE   W03
 BYTE   Gn3
 BYTE   W03
 BYTE   Fn3
 BYTE   W03
 BYTE   Ds3
 BYTE   W03
 BYTE   Cn3
 BYTE   W03
 BYTE   Fn3  v096
 BYTE   W03
 BYTE   Cn4  v092
 BYTE   W03
 BYTE   As3
 BYTE   W03
 BYTE   Gs3
 BYTE   W03
 BYTE   As3
 BYTE   W03
 BYTE   Gs3
 BYTE   W03
 BYTE   Gn3
 BYTE   W03
 BYTE   Gs3
 BYTE   W03
 BYTE   As3
 BYTE   W03
 BYTE   Gs3
 BYTE   W03
 BYTE   Gn3
 BYTE   W03
 BYTE   Gs3
 BYTE   W03
 BYTE   Gn3
 BYTE   W03
 BYTE   Fn3
 BYTE   W03
 BYTE   Ds3
 BYTE   W03
 BYTE   Cn3
 BYTE   W03
 BYTE   PEND 
//  #01 //003   ----------------------------------------
 BYTE   PATT
  POIN2 Label_0170B6BD
//  #01 //004   ----------------------------------------
 BYTE   PATT
  POIN2 Label_0170B6BD
//  #01 //005   ----------------------------------------
Label_0170B70D:
 BYTE   W01
 BYTE   N02  Fn3  v096
 BYTE   W03
 BYTE   Cn4  v092
 BYTE   W03
 BYTE   As3
 BYTE   W03
 BYTE   Gs3
 BYTE   W03
 BYTE   As3
 BYTE   W03
 BYTE   Gs3
 BYTE   W03
 BYTE   Gn3
 BYTE   W03
 BYTE   Gs3
 BYTE   W03
 BYTE   As3
 BYTE   W03
 BYTE   Gs3
 BYTE   W03
 BYTE   Gn3
 BYTE   W03
 BYTE   Gs3
 BYTE   W03
 BYTE   Gn3
 BYTE   W03
 BYTE   Fn3
 BYTE   W03
 BYTE   Ds3
 BYTE   W03
 BYTE   Cn3
 BYTE   W03
 BYTE   Fn3  v096
 BYTE   W03
 BYTE   Cn4  v092
 BYTE   W03
 BYTE   As3
 BYTE   W03
 BYTE   Gs3
 BYTE   W03
 BYTE   As3
 BYTE   W03
 BYTE   Gs3
 BYTE   W03
 BYTE   Gn3
 BYTE   W03
 BYTE   Gs3
 BYTE   W03
 BYTE   As3
 BYTE   W03
 BYTE   Gs3
 BYTE   W03
 BYTE   Gn3
 BYTE   W03
 BYTE   Gs3
 BYTE   W03
 BYTE   Gn3
 BYTE   W03
 BYTE   Fn3
 BYTE   W03
 BYTE   Ds3
 BYTE   W03
 BYTE   Cn3
 BYTE   W02
 BYTE   PEND 
//  #01 //006   ----------------------------------------
 BYTE   PATT
  POIN2 Label_0170B70D
//  #01 //007   ----------------------------------------
 BYTE   PATT
  POIN2 Label_0170B70D
//  #01 //008   ----------------------------------------
 BYTE   PATT
  POIN2 Label_0170B70D
//  #01 //009   ----------------------------------------
 BYTE   W01
 BYTE   VOICE   30
 BYTE   VOL   56*Expedition_mvl/mxv
 BYTE   PAN   c_v+0
 BYTE   W06
 BYTE   PAN   c_v-34
 BYTE   N02  Ds4  v108
 BYTE   W03
 BYTE   PAN   c_v+34
 BYTE   N02  Ds4  v104
 BYTE   W03
 BYTE   VOICE   81
 BYTE   PAN   c_v+25
 BYTE   VOL   24*Expedition_mvl/mxv
 BYTE   N02  Ds5  v108
 BYTE   W03
 BYTE   N02
 BYTE   W03
 BYTE   Ds4
 BYTE   W03
 BYTE   Ds5
 BYTE   W03
 BYTE   N02
 BYTE   W03
 BYTE   N02
 BYTE   W03
 BYTE   Ds4
 BYTE   W03
 BYTE   Ds5
 BYTE   W03
 BYTE   N02
 BYTE   W03
 BYTE   VOICE   30
 BYTE   PAN   c_v-34
 BYTE   VOL   56*Expedition_mvl/mxv
 BYTE   N02  Gs3
 BYTE   W03
 BYTE   Cn4  v104
 BYTE   W03
 BYTE   Cs4  v108
 BYTE   W12
 BYTE   PAN   c_v+34
 BYTE   N02  Ds4
 BYTE   W03
 BYTE   Ds4  v092
 BYTE   W03
 BYTE   VOICE   81
 BYTE   PAN   c_v+25
 BYTE   VOL   34*Expedition_mvl/mxv
 BYTE   N02  Ds5  v108
 BYTE   W03
 BYTE   Ds4
 BYTE   W03
 BYTE   Ds5
 BYTE   W03
 BYTE   N02
 BYTE   W03
 BYTE   N02
 BYTE   W03
 BYTE   Ds4
 BYTE   W03
 BYTE   Ds5
 BYTE   W03
 BYTE   N02
 BYTE   W03
 BYTE   N02
 BYTE   W03
 BYTE   Ds4
 BYTE   W03
 BYTE   Ds5
 BYTE   W02
//  #01 //010   ----------------------------------------
 BYTE   W01
 BYTE   VOICE   30
 BYTE   PAN   c_v+0
 BYTE   VOL   56*Expedition_mvl/mxv
 BYTE   W06
 BYTE   PAN   c_v-34
 BYTE   N02  Ds4
 BYTE   W03
 BYTE   PAN   c_v+34
 BYTE   N02  Ds4  v104
 BYTE   W03
 BYTE   VOICE   81
 BYTE   PAN   c_v+25
 BYTE   VOL   24*Expedition_mvl/mxv
 BYTE   N02  Ds5  v108
 BYTE   W03
 BYTE   N02
 BYTE   W03
 BYTE   Ds4
 BYTE   W03
 BYTE   Ds5
 BYTE   W03
 BYTE   N02
 BYTE   W03
 BYTE   N02
 BYTE   W03
 BYTE   Ds4
 BYTE   W03
 BYTE   Ds5
 BYTE   W03
 BYTE   N02
 BYTE   W03
 BYTE   VOICE   30
 BYTE   PAN   c_v-34
 BYTE   VOL   56*Expedition_mvl/mxv
 BYTE   N02  Gs3
 BYTE   W03
 BYTE   Cn4  v104
 BYTE   W03
 BYTE   Cs4  v108
 BYTE   W12
 BYTE   PAN   c_v+34
 BYTE   N02  Ds4
 BYTE   W03
 BYTE   Ds4  v092
 BYTE   W03
 BYTE   VOICE   81
 BYTE   PAN   c_v+25
 BYTE   VOL   34*Expedition_mvl/mxv
 BYTE   N02  Ds5  v108
 BYTE   W03
 BYTE   Ds4
 BYTE   W03
 BYTE   Ds5
 BYTE   W03
 BYTE   VOICE   30
 BYTE   PAN   c_v-34
 BYTE   VOL   56*Expedition_mvl/mxv
 BYTE   N02  Fn4
 BYTE   W03
 BYTE   N02
 BYTE   W03
 BYTE   PAN   c_v-14
 BYTE   N02  Ds4
 BYTE   W03
 BYTE   Cs4
 BYTE   W03
 BYTE   PAN   c_v+0
 BYTE   N02  Ds4
 BYTE   W03
 BYTE   PAN   c_v+14
 BYTE   N02  Cs4
 BYTE   W03
 BYTE   PAN   c_v+34
 BYTE   N02  Gn3
 BYTE   W03
 BYTE   Cs4
 BYTE   W02
//  #01 //011   ----------------------------------------
 BYTE   W01
 BYTE   PAN   c_v+34
 BYTE   N11  Cs4  v096
 BYTE   W12
 BYTE   Ds4  v104
 BYTE   W12
 BYTE   As3  v096
 BYTE   W12
 BYTE   Cn4  v104
 BYTE   W13
 BYTE   TEMPO   60*Expedition_tbs/2
 BYTE   VOICE   81
 BYTE   VOL   54*Expedition_mvl/mxv
 BYTE   PAN   c_v+25
 BYTE   N02  As3  v096
 BYTE   W03
 BYTE   Cs4  v092
 BYTE   W03
 BYTE   Fn4
 BYTE   W03
 BYTE   Gs4
 BYTE   W03
 BYTE   As3
 BYTE   W03
 BYTE   Cs4
 BYTE   W03
 BYTE   Fn4
 BYTE   W03
 BYTE   Gs4
 BYTE   W03
 BYTE   As3
 BYTE   W03
 BYTE   Cs4
 BYTE   W03
 BYTE   Fn4
 BYTE   W03
 BYTE   Gs4
 BYTE   W03
 BYTE   As3
 BYTE   W03
 BYTE   Cs4
 BYTE   W03
 BYTE   Fn4
 BYTE   W03
 BYTE   Gs4
 BYTE   W01
//  #01 //012   ----------------------------------------
 BYTE   W02
 BYTE   As3  v096
 BYTE   W03
 BYTE   Cs4  v092
 BYTE   W03
 BYTE   Fn4
 BYTE   W03
 BYTE   Gs4
 BYTE   W03
 BYTE   As3
 BYTE   W03
 BYTE   Cs4
 BYTE   W03
 BYTE   Fn4
 BYTE   W03
 BYTE   Gs4
 BYTE   W03
 BYTE   As3
 BYTE   W03
 BYTE   Cs4
 BYTE   W03
 BYTE   Fn4
 BYTE   W03
 BYTE   Gs4
 BYTE   W03
 BYTE   As3
 BYTE   W03
 BYTE   Cs4
 BYTE   W03
 BYTE   Fn4
 BYTE   W03
 BYTE   Gs4
 BYTE   W03
 BYTE   Fn3  v096
 BYTE   W03
 BYTE   Cn4  v092
 BYTE   W03
 BYTE   As3
 BYTE   W03
 BYTE   Gs3
 BYTE   W03
 BYTE   As3
 BYTE   W03
 BYTE   Gs3
 BYTE   W03
 BYTE   Gn3
 BYTE   W03
 BYTE   Gs3
 BYTE   W03
 BYTE   As3
 BYTE   W03
 BYTE   Gs3
 BYTE   W03
 BYTE   Gn3
 BYTE   W03
 BYTE   Gs3
 BYTE   W03
 BYTE   Gn3
 BYTE   W03
 BYTE   Fn3
 BYTE   W03
 BYTE   Ds3
 BYTE   W03
 BYTE   Cn3
 BYTE   W01
//  #01 //013   ----------------------------------------
 BYTE   W02
 BYTE   Fn3  v096
 BYTE   W03
 BYTE   Cn4  v092
 BYTE   W03
 BYTE   As3
 BYTE   W03
 BYTE   Gs3
 BYTE   W03
 BYTE   As3
 BYTE   W03
 BYTE   Gs3
 BYTE   W03
 BYTE   Gn3
 BYTE   W03
 BYTE   Gs3
 BYTE   W03
 BYTE   As3
 BYTE   W03
 BYTE   Gs3
 BYTE   W03
 BYTE   Gn3
 BYTE   W03
 BYTE   Gs3
 BYTE   W03
 BYTE   Gn3
 BYTE   W03
 BYTE   Fn3
 BYTE   W03
 BYTE   Ds3
 BYTE   W03
 BYTE   Cn3
 BYTE   W03
 BYTE   GoTo
  POIN2 Label_0170B626
 BYTE   FINE

//**************** Track 2 (Midi-Chn.1) ****************//

Expedition_002:
//  #02 //000   ----------------------------------------
 BYTE   KEYSH   Expedition_key+0
Label_0170AA7E:
 BYTE   VOICE   28
 BYTE   VOL   88*Expedition_mvl/mxv
 BYTE   PAN   c_v+0
 BYTE   N05  Fn1  v104
 BYTE   W06
 BYTE   N05
 BYTE   W06
 BYTE   N05
 BYTE   W06
 BYTE   N02
 BYTE   W03
 BYTE   N05
 BYTE   W06
 BYTE   N02
 BYTE   W03
 BYTE   N05
 BYTE   W06
 BYTE   N02
 BYTE   W03
 BYTE   N05
 BYTE   W06
 BYTE   N02
 BYTE   W03
 BYTE   N05
 BYTE   W06
 BYTE   N05
 BYTE   W06
 BYTE   N05
 BYTE   W06
 BYTE   N02
 BYTE   W03
 BYTE   N05
 BYTE   W06
 BYTE   N02
 BYTE   W03
 BYTE   N05
 BYTE   W06
 BYTE   N02
 BYTE   W03
 BYTE   N05
 BYTE   W06
 BYTE   N02
 BYTE   W03
//  #02 //001   ----------------------------------------
Label_0170AAAE:
 BYTE   N05  Fn1  v104
 BYTE   W06
 BYTE   N05
 BYTE   W06
 BYTE   N05
 BYTE   W06
 BYTE   N02
 BYTE   W03
 BYTE   N05
 BYTE   W06
 BYTE   N02
 BYTE   W03
 BYTE   N05
 BYTE   W06
 BYTE   N02
 BYTE   W03
 BYTE   N05
 BYTE   W06
 BYTE   N02
 BYTE   W03
 BYTE   N05
 BYTE   W06
 BYTE   N05
 BYTE   W06
 BYTE   N05
 BYTE   W06
 BYTE   N02
 BYTE   W03
 BYTE   N05
 BYTE   W06
 BYTE   N02
 BYTE   W03
 BYTE   N05
 BYTE   W06
 BYTE   N02
 BYTE   W03
 BYTE   N05
 BYTE   W06
 BYTE   N02
 BYTE   W03
 BYTE   PEND 
//  #02 //002   ----------------------------------------
 BYTE   N05  Cs1
 BYTE   W06
 BYTE   N05
 BYTE   W06
 BYTE   N05
 BYTE   W06
 BYTE   N02
 BYTE   W03
 BYTE   N05
 BYTE   W06
 BYTE   N02
 BYTE   W03
 BYTE   N05
 BYTE   W06
 BYTE   N02
 BYTE   W03
 BYTE   N05
 BYTE   W06
 BYTE   N02
 BYTE   W03
 BYTE   N05
 BYTE   W06
 BYTE   N05
 BYTE   W06
 BYTE   N05
 BYTE   W06
 BYTE   N02
 BYTE   W03
 BYTE   N05
 BYTE   W06
 BYTE   N02
 BYTE   W03
 BYTE   N05
 BYTE   W06
 BYTE   N02
 BYTE   W03
 BYTE   N05
 BYTE   W06
 BYTE   N02
 BYTE   W03
//  #02 //003   ----------------------------------------
 BYTE   N05  As0
 BYTE   W06
 BYTE   N05
 BYTE   W06
 BYTE   N05
 BYTE   W06
 BYTE   N02
 BYTE   W03
 BYTE   N05
 BYTE   W06
 BYTE   N02
 BYTE   W03
 BYTE   N05
 BYTE   W06
 BYTE   N02
 BYTE   W03
 BYTE   N05
 BYTE   W06
 BYTE   N02
 BYTE   W03
 BYTE   N05  Cn1
 BYTE   W06
 BYTE   N05
 BYTE   W06
 BYTE   N05
 BYTE   W06
 BYTE   N02
 BYTE   W03
 BYTE   N05
 BYTE   W06
 BYTE   N02
 BYTE   W03
 BYTE   N05
 BYTE   W06
 BYTE   N02
 BYTE   W03
 BYTE   N05
 BYTE   W06
 BYTE   N02
 BYTE   W03
//  #02 //004   ----------------------------------------
 BYTE   PATT
  POIN2 Label_0170AAAE
//  #02 //005   ----------------------------------------
Label_0170AB31:
 BYTE   W01
 BYTE   N05  Fn1  v104
 BYTE   W06
 BYTE   N05
 BYTE   W06
 BYTE   N05
 BYTE   W06
 BYTE   N02
 BYTE   W03
 BYTE   N05
 BYTE   W06
 BYTE   N02
 BYTE   W03
 BYTE   N05
 BYTE   W06
 BYTE   N02
 BYTE   W03
 BYTE   N05
 BYTE   W06
 BYTE   N02
 BYTE   W03
 BYTE   N05
 BYTE   W06
 BYTE   N05
 BYTE   W06
 BYTE   N05
 BYTE   W06
 BYTE   N02
 BYTE   W03
 BYTE   N05
 BYTE   W06
 BYTE   N02
 BYTE   W03
 BYTE   N05
 BYTE   W06
 BYTE   N02
 BYTE   W03
 BYTE   N05
 BYTE   W06
 BYTE   N02
 BYTE   W02
 BYTE   PEND 
//  #02 //006   ----------------------------------------
 BYTE   W01
 BYTE   N05  Cs1
 BYTE   W06
 BYTE   N05
 BYTE   W06
 BYTE   N05
 BYTE   W06
 BYTE   N02
 BYTE   W03
 BYTE   N05
 BYTE   W06
 BYTE   N02
 BYTE   W03
 BYTE   N05
 BYTE   W06
 BYTE   N02
 BYTE   W03
 BYTE   N05
 BYTE   W06
 BYTE   N02
 BYTE   W03
 BYTE   N05
 BYTE   W06
 BYTE   N05
 BYTE   W06
 BYTE   N05
 BYTE   W06
 BYTE   N02
 BYTE   W03
 BYTE   N05
 BYTE   W06
 BYTE   N02
 BYTE   W03
 BYTE   N05
 BYTE   W06
 BYTE   N02
 BYTE   W03
 BYTE   N05
 BYTE   W06
 BYTE   N02
 BYTE   W02
//  #02 //007   ----------------------------------------
 BYTE   W01
 BYTE   N05  As0
 BYTE   W06
 BYTE   N05
 BYTE   W06
 BYTE   N05
 BYTE   W06
 BYTE   N02
 BYTE   W03
 BYTE   N05
 BYTE   W06
 BYTE   N02
 BYTE   W03
 BYTE   N05
 BYTE   W06
 BYTE   N02
 BYTE   W03
 BYTE   N05
 BYTE   W06
 BYTE   N02
 BYTE   W03
 BYTE   N05  Cn1
 BYTE   W06
 BYTE   N05
 BYTE   W06
 BYTE   N05
 BYTE   W06
 BYTE   N02
 BYTE   W03
 BYTE   N05
 BYTE   W06
 BYTE   N02
 BYTE   W03
 BYTE   N05
 BYTE   W06
 BYTE   N02
 BYTE   W03
 BYTE   N05
 BYTE   W06
 BYTE   N02
 BYTE   W02
//  #02 //008   ----------------------------------------
 BYTE   PATT
  POIN2 Label_0170AB31
//  #02 //009   ----------------------------------------
 BYTE   W01
 BYTE   VOICE   28
 BYTE   VOL   88*Expedition_mvl/mxv
 BYTE   PAN   c_v+0
 BYTE   N02  Ds1  v104
 BYTE   W03
 BYTE   N02
 BYTE   W03
 BYTE   VOICE   30
 BYTE   VOL   88*Expedition_mvl/mxv
 BYTE   PAN   c_v+0
 BYTE   N02  Gn3  v108
 BYTE   W03
 BYTE   Gn3  v104
 BYTE   W03
 BYTE   VOICE   28
 BYTE   VOL   88*Expedition_mvl/mxv
 BYTE   PAN   c_v+0
 BYTE   N05  Ds1
 BYTE   W06
 BYTE   N02  As0
 BYTE   W03
 BYTE   Ds1
 BYTE   W06
 BYTE   N05  Gs0
 BYTE   W06
 BYTE   N05
 BYTE   W06
 BYTE   VOICE   30
 BYTE   VOL   88*Expedition_mvl/mxv
 BYTE   PAN   c_v+0
 BYTE   N02  Cs3  v108
 BYTE   W03
 BYTE   Ds3  v104
 BYTE   W03
 BYTE   Fn3
 BYTE   W03
 BYTE   VOICE   28
 BYTE   VOL   88*Expedition_mvl/mxv
 BYTE   PAN   c_v+0
 BYTE   N02  Ds1
 BYTE   W03
 BYTE   N02
 BYTE   W03
 BYTE   N02
 BYTE   W03
 BYTE   VOICE   30
 BYTE   VOL   88*Expedition_mvl/mxv
 BYTE   PAN   c_v+0
 BYTE   N02  Gn3
 BYTE   W03
 BYTE   Gn3  v092
 BYTE   W03
 BYTE   VOICE   28
 BYTE   VOL   88*Expedition_mvl/mxv
 BYTE   PAN   c_v+0
 BYTE   W03
 BYTE   N02  Gs0  v104
 BYTE   W03
 BYTE   N02
 BYTE   W06
 BYTE   N05
 BYTE   W06
 BYTE   N05
 BYTE   W06
 BYTE   N02
 BYTE   W03
 BYTE   As0
 BYTE   W03
 BYTE   Cn1
 BYTE   W02
//  #02 //010   ----------------------------------------
 BYTE   W01
 BYTE   VOICE   28
 BYTE   VOL   88*Expedition_mvl/mxv
 BYTE   PAN   c_v+0
 BYTE   N02  Ds1
 BYTE   W03
 BYTE   N02
 BYTE   W03
 BYTE   VOICE   30
 BYTE   VOL   88*Expedition_mvl/mxv
 BYTE   PAN   c_v+0
 BYTE   N02  Gn3  v108
 BYTE   W03
 BYTE   Gn3  v104
 BYTE   W03
 BYTE   VOICE   28
 BYTE   VOL   88*Expedition_mvl/mxv
 BYTE   PAN   c_v+0
 BYTE   N05  Ds1
 BYTE   W06
 BYTE   N02  As0
 BYTE   W03
 BYTE   Ds1
 BYTE   W06
 BYTE   N05  Gs0
 BYTE   W06
 BYTE   N05
 BYTE   W06
 BYTE   VOICE   30
 BYTE   VOL   88*Expedition_mvl/mxv
 BYTE   PAN   c_v+0
 BYTE   N02  Cs3  v108
 BYTE   W03
 BYTE   Ds3  v104
 BYTE   W03
 BYTE   Fn3
 BYTE   W03
 BYTE   VOICE   28
 BYTE   VOL   88*Expedition_mvl/mxv
 BYTE   PAN   c_v+0
 BYTE   N02  Ds1
 BYTE   W03
 BYTE   N02
 BYTE   W03
 BYTE   N02
 BYTE   W03
 BYTE   VOICE   30
 BYTE   VOL   88*Expedition_mvl/mxv
 BYTE   PAN   c_v+0
 BYTE   N02  Gn3  v108
 BYTE   W03
 BYTE   Gn3  v092
 BYTE   W03
 BYTE   VOICE   28
 BYTE   VOL   88*Expedition_mvl/mxv
 BYTE   PAN   c_v+0
 BYTE   W03
 BYTE   N02  Gs0  v104
 BYTE   W03
 BYTE   N02
 BYTE   W03
 BYTE   VOICE   30
 BYTE   VOL   88*Expedition_mvl/mxv
 BYTE   PAN   c_v+0
 BYTE   N02  Gs3  v108
 BYTE   W03
 BYTE   Gs3  v104
 BYTE   W03
 BYTE   PAN   c_v-14
 BYTE   N02  Gn3  v108
 BYTE   W03
 BYTE   Fn3  v104
 BYTE   W03
 BYTE   PAN   c_v+0
 BYTE   N02  Gn3  v108
 BYTE   W03
 BYTE   PAN   c_v+14
 BYTE   N02  Fn3  v104
 BYTE   W03
 BYTE   PAN   c_v+34
 BYTE   N02  As2
 BYTE   W03
 BYTE   Fn3  v108
 BYTE   W02
//  #02 //011   ----------------------------------------
 BYTE   W01
 BYTE   VOICE   28
 BYTE   VOL   88*Expedition_mvl/mxv
 BYTE   PAN   c_v+0
 BYTE   N11  Ds1
 BYTE   W12
 BYTE   As0
 BYTE   W12
 BYTE   Cs1
 BYTE   W12
 BYTE   Gs0
 BYTE   W13
 BYTE   N05  Fs0  v104
 BYTE   W06
 BYTE   N05
 BYTE   W06
 BYTE   N05
 BYTE   W06
 BYTE   N02
 BYTE   W03
 BYTE   N05
 BYTE   W06
 BYTE   N05
 BYTE   W06
 BYTE   N05
 BYTE   W06
 BYTE   N02
 BYTE   W03
 BYTE   N05
 BYTE   W04
//  #02 //012   ----------------------------------------
 BYTE   W02
 BYTE   N05
 BYTE   W06
 BYTE   N05
 BYTE   W06
 BYTE   N05
 BYTE   W06
 BYTE   N02
 BYTE   W03
 BYTE   N05
 BYTE   W06
 BYTE   N05
 BYTE   W06
 BYTE   N05
 BYTE   W06
 BYTE   N02
 BYTE   W03
 BYTE   N05
 BYTE   W06
 BYTE   Fn0  v108
 BYTE   W06
 BYTE   Fn0  v104
 BYTE   W06
 BYTE   N05
 BYTE   W06
 BYTE   N02
 BYTE   W03
 BYTE   N05
 BYTE   W06
 BYTE   N05
 BYTE   W06
 BYTE   Fn0  v108
 BYTE   W06
 BYTE   N02  Fn0  v104
 BYTE   W03
 BYTE   N05
 BYTE   W04
//  #02 //013   ----------------------------------------
 BYTE   W02
 BYTE   Fn0  v108
 BYTE   W06
 BYTE   Fn0  v104
 BYTE   W06
 BYTE   N05
 BYTE   W06
 BYTE   N02
 BYTE   W03
 BYTE   N05
 BYTE   W06
 BYTE   N05
 BYTE   W06
 BYTE   Fn0  v108
 BYTE   W06
 BYTE   N02  Fn0  v104
 BYTE   W03
 BYTE   N05
 BYTE   W06
 BYTE   GoTo
  POIN2 Label_0170AA7E
 BYTE   FINE

//**************** Track 3 (Midi-Chn.2) ****************//

Expedition_003:
//  #03 //000   ----------------------------------------
 BYTE   KEYSH   Expedition_key+0
Label_0156B83A:
 BYTE   VOL   26*Expedition_mvl/mxv
 BYTE   PAN   c_v-34
 BYTE   W18
 BYTE   VOICE   18
 BYTE   PAN   c_v+25
 BYTE   N01  En3  v104
 BYTE   W03
 BYTE   Fn3
 BYTE   W03
 BYTE   En3
 BYTE   W06
 BYTE   Fn3
 BYTE   W06
 BYTE   En3
 BYTE   W06
 BYTE   Fn3
 BYTE   W06
 BYTE   En3
 BYTE   W06
 BYTE   Fn3
 BYTE   W06
 BYTE   En3
 BYTE   W06
 BYTE   Fn3
 BYTE   W06
 BYTE   En3
 BYTE   W03
 BYTE   PAN   c_v+0
 BYTE   W09
 BYTE   N02  Cn3  v092
 BYTE   W03
 BYTE   Cn3  v096
 BYTE   W03
 BYTE   Cn3  v104
 BYTE   W03
 BYTE   Cn3  v108
 BYTE   W03
//  #03 //001   ----------------------------------------
 BYTE   PAN   c_v+34
 BYTE   W12
 BYTE   PAN   c_v+0
 BYTE   W06
 BYTE   VOICE   18
 BYTE   PAN   c_v+25
 BYTE   N01  En3  v104
 BYTE   W03
 BYTE   Fn3
 BYTE   W03
 BYTE   En3
 BYTE   W06
 BYTE   Fn3
 BYTE   W06
 BYTE   PAN   c_v+0
 BYTE   W06
 BYTE   VOICE   18
 BYTE   PAN   c_v+25
 BYTE   N01  En3
 BYTE   W06
 BYTE   N01
 BYTE   W06
 BYTE   N01
 BYTE   W06
 BYTE   PAN   c_v+0
 BYTE   W06
 BYTE   VOICE   18
 BYTE   PAN   c_v+25
 BYTE   N01
 BYTE   W03
 BYTE   Fn3
 BYTE   W03
 BYTE   En3
 BYTE   W06
 BYTE   Fn3
 BYTE   W06
 BYTE   PAN   c_v+0
 BYTE   W06
 BYTE   VOICE   18
 BYTE   PAN   c_v+25
 BYTE   N01  En3
 BYTE   W06
//  #03 //002   ----------------------------------------
 BYTE   N01
 BYTE   W06
 BYTE   N01
 BYTE   W06
 BYTE   PAN   c_v+0
 BYTE   W06
 BYTE   VOICE   18
 BYTE   PAN   c_v+25
 BYTE   N01
 BYTE   W03
 BYTE   Fn3
 BYTE   W03
 BYTE   En3
 BYTE   W06
 BYTE   Fn3
 BYTE   W06
 BYTE   PAN   c_v+0
 BYTE   W06
 BYTE   VOICE   18
 BYTE   PAN   c_v+25
 BYTE   N01  En3
 BYTE   W06
 BYTE   N01
 BYTE   W06
 BYTE   N01
 BYTE   W06
 BYTE   PAN   c_v+0
 BYTE   W06
 BYTE   VOICE   18
 BYTE   PAN   c_v+25
 BYTE   N01
 BYTE   W06
 BYTE   Fn3
 BYTE   W06
 BYTE   En3
 BYTE   W06
 BYTE   PAN   c_v+0
 BYTE   W06
 BYTE   VOICE   18
 BYTE   PAN   c_v+25
 BYTE   N01
 BYTE   W03
 BYTE   PAN   c_v+0
 BYTE   W03
//  #03 //003   ----------------------------------------
 BYTE   VOICE   18
 BYTE   PAN   c_v+25
 BYTE   PAN   c_v+34
 BYTE   W12
 BYTE   PAN   c_v+0
 BYTE   W06
 BYTE   VOICE   18
 BYTE   PAN   c_v+25
 BYTE   N01
 BYTE   W03
 BYTE   Fn3
 BYTE   W03
 BYTE   En3
 BYTE   W06
 BYTE   Fn3
 BYTE   W06
 BYTE   PAN   c_v+0
 BYTE   W06
 BYTE   VOICE   18
 BYTE   PAN   c_v+25
 BYTE   N01  En3
 BYTE   W06
 BYTE   PAN   c_v+34
 BYTE   W12
 BYTE   PAN   c_v+0
 BYTE   W06
 BYTE   VOICE   18
 BYTE   PAN   c_v+25
 BYTE   N01
 BYTE   W03
 BYTE   Fn3
 BYTE   W03
 BYTE   En3
 BYTE   W06
 BYTE   Fn3
 BYTE   W06
 BYTE   PAN   c_v+0
 BYTE   W06
 BYTE   VOICE   18
 BYTE   PAN   c_v+25
 BYTE   N01  En3
 BYTE   W06
//  #03 //004   ----------------------------------------
 BYTE   PAN   c_v+34
 BYTE   W12
 BYTE   PAN   c_v+0
 BYTE   W06
 BYTE   VOICE   18
 BYTE   PAN   c_v+25
 BYTE   N01
 BYTE   W03
 BYTE   Fn3
 BYTE   W03
 BYTE   En3
 BYTE   W06
 BYTE   Fn3
 BYTE   W06
 BYTE   PAN   c_v+0
 BYTE   W06
 BYTE   VOICE   18
 BYTE   PAN   c_v+25
 BYTE   N01  En3
 BYTE   W06
 BYTE   N01
 BYTE   W06
 BYTE   N01
 BYTE   W06
 BYTE   PAN   c_v+0
 BYTE   W06
 BYTE   VOICE   18
 BYTE   PAN   c_v+25
 BYTE   N01
 BYTE   W06
 BYTE   Fn3
 BYTE   W06
 BYTE   En3
 BYTE   W06
 BYTE   PAN   c_v+0
 BYTE   W12
//  #03 //005   ----------------------------------------
 BYTE   W01
 BYTE   PAN   c_v+34
 BYTE   W12
 BYTE   PAN   c_v+0
 BYTE   W06
 BYTE   VOICE   18
 BYTE   PAN   c_v+25
 BYTE   N01
 BYTE   W03
 BYTE   Fn3
 BYTE   W03
 BYTE   En3
 BYTE   W06
 BYTE   Fn3
 BYTE   W06
 BYTE   PAN   c_v+0
 BYTE   W06
 BYTE   VOICE   18
 BYTE   PAN   c_v+25
 BYTE   N01  En3
 BYTE   W06
 BYTE   N01
 BYTE   W06
 BYTE   N01
 BYTE   W06
 BYTE   PAN   c_v+0
 BYTE   W06
 BYTE   VOICE   18
 BYTE   PAN   c_v+25
 BYTE   N01
 BYTE   W03
 BYTE   Fn3
 BYTE   W03
 BYTE   En3
 BYTE   W06
 BYTE   Fn3
 BYTE   W06
 BYTE   PAN   c_v+0
 BYTE   W06
 BYTE   VOICE   18
 BYTE   PAN   c_v+25
 BYTE   N01  En3
 BYTE   W05
//  #03 //006   ----------------------------------------
 BYTE   W01
 BYTE   N01
 BYTE   W06
 BYTE   N01
 BYTE   W06
 BYTE   PAN   c_v+0
 BYTE   W06
 BYTE   VOICE   18
 BYTE   PAN   c_v+25
 BYTE   N01
 BYTE   W03
 BYTE   Fn3
 BYTE   W03
 BYTE   En3
 BYTE   W06
 BYTE   Fn3
 BYTE   W06
 BYTE   PAN   c_v+0
 BYTE   W06
 BYTE   VOICE   18
 BYTE   PAN   c_v+25
 BYTE   N01  En3
 BYTE   W06
 BYTE   N01
 BYTE   W06
 BYTE   N01
 BYTE   W06
 BYTE   PAN   c_v+0
 BYTE   W06
 BYTE   VOICE   18
 BYTE   PAN   c_v+25
 BYTE   N01
 BYTE   W06
 BYTE   Fn3
 BYTE   W06
 BYTE   En3
 BYTE   W06
 BYTE   PAN   c_v+0
 BYTE   W06
 BYTE   VOICE   18
 BYTE   PAN   c_v+25
 BYTE   N01
 BYTE   W03
 BYTE   PAN   c_v+0
 BYTE   W02
//  #03 //007   ----------------------------------------
 BYTE   W01
 BYTE   VOICE   18
 BYTE   PAN   c_v+25
 BYTE   PAN   c_v+34
 BYTE   W12
 BYTE   PAN   c_v+0
 BYTE   W06
 BYTE   VOICE   18
 BYTE   PAN   c_v+25
 BYTE   N01
 BYTE   W03
 BYTE   Fn3
 BYTE   W03
 BYTE   En3
 BYTE   W06
 BYTE   Fn3
 BYTE   W06
 BYTE   PAN   c_v+0
 BYTE   W06
 BYTE   VOICE   18
 BYTE   PAN   c_v+25
 BYTE   N01  En3
 BYTE   W06
 BYTE   N01
 BYTE   W06
 BYTE   N01
 BYTE   W06
 BYTE   PAN   c_v+0
 BYTE   W06
 BYTE   VOICE   18
 BYTE   PAN   c_v+25
 BYTE   N01
 BYTE   W03
 BYTE   Fn3
 BYTE   W03
 BYTE   En3
 BYTE   W06
 BYTE   Fn3
 BYTE   W06
 BYTE   PAN   c_v+0
 BYTE   W06
 BYTE   VOICE   18
 BYTE   PAN   c_v+25
 BYTE   N01  En3
 BYTE   W05
//  #03 //008   ----------------------------------------
 BYTE   W01
 BYTE   N01
 BYTE   W06
 BYTE   N01
 BYTE   W06
 BYTE   PAN   c_v+0
 BYTE   W06
 BYTE   VOICE   18
 BYTE   PAN   c_v+25
 BYTE   N01
 BYTE   W03
 BYTE   Fn3
 BYTE   W03
 BYTE   En3
 BYTE   W06
 BYTE   Fn3
 BYTE   W06
 BYTE   PAN   c_v+0
 BYTE   W06
 BYTE   VOICE   18
 BYTE   PAN   c_v+25
 BYTE   N01  En3
 BYTE   W06
 BYTE   N01
 BYTE   W06
 BYTE   N01
 BYTE   W06
 BYTE   PAN   c_v+34
 BYTE   W06
 BYTE   PAN   c_v+25
 BYTE   N01
 BYTE   W28
 BYTE   W01
//  #03 //009   ----------------------------------------
Label_0156BA29:
 BYTE   W01
 BYTE   PAN   c_v+34
 BYTE   W12
 BYTE   VOICE   18
 BYTE   PAN   c_v+0
 BYTE   PAN   c_v-25
 BYTE   N05  Gs3  v104
 BYTE   W06
 BYTE   N05
 BYTE   W06
 BYTE   N05
 BYTE   W06
 BYTE   N05
 BYTE   W06
 BYTE   N05
 BYTE   W06
 BYTE   N05
 BYTE   W06
 BYTE   N05
 BYTE   W06
 BYTE   N05
 BYTE   W06
 BYTE   N05
 BYTE   W06
 BYTE   N05
 BYTE   W06
 BYTE   PAN   c_v+25
 BYTE   N01  En3
 BYTE   W06
 BYTE   N05  Fn3
 BYTE   W06
 BYTE   PAN   c_v-34
 BYTE   N11  Ds3  v127
 BYTE   W11
 BYTE   PEND 
//  #03 //010   ----------------------------------------
 BYTE   PATT
  POIN2 Label_0156BA29
//  #03 //011   ----------------------------------------
 BYTE   W01
 BYTE   PAN   c_v+34
 BYTE   W12
 BYTE   PAN   c_v-34
 BYTE   W12
 BYTE   PAN   c_v+34
 BYTE   W12
 BYTE   PAN   c_v-34
 BYTE   W13
 BYTE   PAN   c_v+34
 BYTE   W12
 BYTE   VOICE   18
 BYTE   PAN   c_v-25
 BYTE   N05  Gs3  v104
 BYTE   W06
 BYTE   N01  En3
 BYTE   W06
 BYTE   Fn3
 BYTE   W06
 BYTE   En3
 BYTE   W06
 BYTE   PAN   c_v-34
 BYTE   W10
//  #03 //012   ----------------------------------------
 BYTE   W02
 BYTE   PAN   c_v+34
 BYTE   W12
 BYTE   VOICE   18
 BYTE   PAN   c_v-25
 BYTE   N05  Gs3
 BYTE   W06
 BYTE   N01  En3
 BYTE   W06
 BYTE   Fn3
 BYTE   W06
 BYTE   En3
 BYTE   W18
 BYTE   PAN   c_v-34
 BYTE   W12
 BYTE   VOICE   18
 BYTE   PAN   c_v-25
 BYTE   N05  Gs3
 BYTE   W06
 BYTE   N01  En3
 BYTE   W03
 BYTE   Fn3
 BYTE   W03
 BYTE   N05  Gs3
 BYTE   W06
 BYTE   N01  En3
 BYTE   W03
 BYTE   Fn3
 BYTE   W03
 BYTE   N05  Gs3
 BYTE   W06
 BYTE   N01  En3
 BYTE   W03
 BYTE   Fn3
 BYTE   W01
//  #03 //013   ----------------------------------------
 BYTE   W02
 BYTE   PAN   c_v-34
 BYTE   W12
 BYTE   VOICE   18
 BYTE   PAN   c_v-25
 BYTE   N05  Gs3
 BYTE   W06
 BYTE   N01  En3
 BYTE   W03
 BYTE   Fn3
 BYTE   W03
 BYTE   N02  Gs3
 BYTE   W06
 BYTE   N01  En3
 BYTE   W18
 BYTE   GoTo
  POIN2 Label_0156B83A
 BYTE   FINE

//**************** Track 4 (Midi-Chn.3) ****************//

Expedition_004:
//  #04 //000   ----------------------------------------
 BYTE   KEYSH   Expedition_key+0
Label_0170AD8E:
 BYTE   VOL   23*Expedition_mvl/mxv
 BYTE   PAN   c_v+0
 BYTE   W12
 BYTE   PAN   c_v+43
 BYTE   W12
 BYTE   PAN   c_v+0
 BYTE   W09
 BYTE   PAN   c_v-43
 BYTE   W24
 BYTE   W03
 BYTE   PAN   c_v+43
 BYTE   W12
 BYTE   PAN   c_v+0
 BYTE   W24
//  #04 //001   ----------------------------------------
Label_0170ADA3:
 BYTE   PAN   c_v+0
 BYTE   W12
 BYTE   PAN   c_v+43
 BYTE   W12
 BYTE   PAN   c_v+0
 BYTE   W09
 BYTE   PAN   c_v-43
 BYTE   W09
 BYTE   PAN   c_v+0
 BYTE   W03
 BYTE   PAN   c_v-43
 BYTE   W03
 BYTE   PAN   c_v+0
 BYTE   W12
 BYTE   PAN   c_v+43
 BYTE   W12
 BYTE   PAN   c_v+0
 BYTE   W09
 BYTE   PAN   c_v-43
 BYTE   W09
 BYTE   PAN   c_v+0
 BYTE   W03
 BYTE   PAN   c_v-43
 BYTE   W03
 BYTE   PEND 
//  #04 //002   ----------------------------------------
 BYTE   PATT
  POIN2 Label_0170ADA3
//  #04 //003   ----------------------------------------
 BYTE   PATT
  POIN2 Label_0170ADA3
//  #04 //004   ----------------------------------------
 BYTE   PATT
  POIN2 Label_0170ADA3
//  #04 //005   ----------------------------------------
Label_0170ADD7:
 BYTE   W01
 BYTE   PAN   c_v+0
 BYTE   W12
 BYTE   PAN   c_v+43
 BYTE   W12
 BYTE   PAN   c_v+0
 BYTE   W09
 BYTE   PAN   c_v-43
 BYTE   W09
 BYTE   PAN   c_v+0
 BYTE   W03
 BYTE   PAN   c_v-43
 BYTE   W03
 BYTE   PAN   c_v+0
 BYTE   W12
 BYTE   PAN   c_v+43
 BYTE   W12
 BYTE   PAN   c_v+0
 BYTE   W09
 BYTE   PAN   c_v-43
 BYTE   W09
 BYTE   PAN   c_v+0
 BYTE   W03
 BYTE   PAN   c_v-43
 BYTE   W02
 BYTE   PEND 
//  #04 //006   ----------------------------------------
 BYTE   PATT
  POIN2 Label_0170ADD7
//  #04 //007   ----------------------------------------
 BYTE   PATT
  POIN2 Label_0170ADD7
//  #04 //008   ----------------------------------------
 BYTE   W01
 BYTE   PAN   c_v+0
 BYTE   W12
 BYTE   PAN   c_v+43
 BYTE   W12
 BYTE   PAN   c_v+0
 BYTE   W09
 BYTE   PAN   c_v-43
 BYTE   W09
 BYTE   PAN   c_v+0
 BYTE   W03
 BYTE   PAN   c_v-43
 BYTE   W15
 BYTE   PAN   c_v+0
 BYTE   W09
 BYTE   VOICE   63
 BYTE   PAN   c_v+34
 BYTE   N02  Gn3  v104
 BYTE   W03
 BYTE   N02
 BYTE   W03
 BYTE   PAN   c_v+0
 BYTE   N05  Cn3
 BYTE   W06
 BYTE   PAN   c_v-34
 BYTE   N02  Gn2
 BYTE   W03
 BYTE   PAN   c_v+0
 BYTE   W11
//  #04 //009   ----------------------------------------
Label_0170AE34:
 BYTE   W01
 BYTE   PAN   c_v+0
 BYTE   W72
 BYTE   W03
 BYTE   VOICE   63
 BYTE   N08  Cn3  v104
 BYTE   W20
 BYTE   PEND 
//  #04 //010   ----------------------------------------
 BYTE   PATT
  POIN2 Label_0170AE34
//  #04 //011   ----------------------------------------
 BYTE   W19
 BYTE   VOICE   63
 BYTE   N02  Cn3  v104
 BYTE   W03
 BYTE   N02
 BYTE   W28
 BYTE   PAN   c_v+0
 BYTE   W24
 BYTE   W03
 BYTE   VOICE   63
 BYTE   N08
 BYTE   W19
//  #04 //012   ----------------------------------------
 BYTE   W28
 BYTE   W01
 BYTE   VOICE   63
 BYTE   N05
 BYTE   W15
 BYTE   VOICE   63
 BYTE   N02
 BYTE   W12
 BYTE   PAN   c_v+34
 BYTE   W15
 BYTE   PAN   c_v+0
 BYTE   W03
 BYTE   PAN   c_v-34
 BYTE   W12
 BYTE   VOICE   63
 BYTE   PAN   c_v+0
 BYTE   N05
 BYTE   W06
 BYTE   PAN   c_v+34
 BYTE   W04
//  #04 //013   ----------------------------------------
 BYTE   W08
 BYTE   PAN   c_v+34
 BYTE   W15
 BYTE   PAN   c_v+0
 BYTE   W03
 BYTE   PAN   c_v-34
 BYTE   W06
 BYTE   VOICE   63
 BYTE   PAN   c_v+34
 BYTE   N02  Gn3
 BYTE   W03
 BYTE   PAN   c_v+0
 BYTE   N02  Cn3
 BYTE   W09
 BYTE   PAN   c_v-34
 BYTE   W06
 BYTE   GoTo
  POIN2 Label_0170AD8E
 BYTE   FINE

//**************** Track 5 (Midi-Chn.4) ****************//

Expedition_005:
//  #05 //000   ----------------------------------------
 BYTE   KEYSH   Expedition_key+0
Label_0156BAE2:
 BYTE   VOICE   52
 BYTE   VOL   47*Expedition_mvl/mxv
 BYTE   PAN   c_v+0
 BYTE   W96
//  #05 //001   ----------------------------------------
 BYTE   VOL   31*Expedition_mvl/mxv
 BYTE   N44  Cn3  v124
 BYTE   W01
 BYTE   VOL   32*Expedition_mvl/mxv
 BYTE   W01
 BYTE   VOL   33*Expedition_mvl/mxv
 BYTE   W01
 BYTE   VOL   33*Expedition_mvl/mxv
 BYTE   W01
 BYTE   VOL   34*Expedition_mvl/mxv
 BYTE   W01
 BYTE   VOL   35*Expedition_mvl/mxv
 BYTE   W01
 BYTE   VOL   36*Expedition_mvl/mxv
 BYTE   W01
 BYTE   VOL   37*Expedition_mvl/mxv
 BYTE   W01
 BYTE   VOL   38*Expedition_mvl/mxv
 BYTE   W01
 BYTE   VOL   39*Expedition_mvl/mxv
 BYTE   W01
 BYTE   VOL   39*Expedition_mvl/mxv
 BYTE   W01
 BYTE   VOL   40*Expedition_mvl/mxv
 BYTE   W01
 BYTE   VOL   41*Expedition_mvl/mxv
 BYTE   W01
 BYTE   VOL   42*Expedition_mvl/mxv
 BYTE   W01
 BYTE   VOL   43*Expedition_mvl/mxv
 BYTE   W01
 BYTE   VOL   43*Expedition_mvl/mxv
 BYTE   W01
 BYTE   VOL   44*Expedition_mvl/mxv
 BYTE   W01
 BYTE   VOL   45*Expedition_mvl/mxv
 BYTE   W01
 BYTE   VOL   46*Expedition_mvl/mxv
 BYTE   W01
 BYTE   VOL   47*Expedition_mvl/mxv
 BYTE   W01
 BYTE   VOL   48*Expedition_mvl/mxv
 BYTE   W01
 BYTE   VOL   49*Expedition_mvl/mxv
 BYTE   W01
 BYTE   VOL   49*Expedition_mvl/mxv
 BYTE   W01
 BYTE   VOL   50*Expedition_mvl/mxv
 BYTE   W01
 BYTE   VOL   51*Expedition_mvl/mxv
 BYTE   W24
 BYTE   VOL   31*Expedition_mvl/mxv
 BYTE   N40  Ds3
 BYTE   W01
 BYTE   VOL   32*Expedition_mvl/mxv
 BYTE   W01
 BYTE   VOL   33*Expedition_mvl/mxv
 BYTE   W01
 BYTE   VOL   33*Expedition_mvl/mxv
 BYTE   W01
 BYTE   VOL   34*Expedition_mvl/mxv
 BYTE   W01
 BYTE   VOL   35*Expedition_mvl/mxv
 BYTE   W01
 BYTE   VOL   36*Expedition_mvl/mxv
 BYTE   W01
 BYTE   VOL   37*Expedition_mvl/mxv
 BYTE   W01
 BYTE   VOL   38*Expedition_mvl/mxv
 BYTE   W01
 BYTE   VOL   39*Expedition_mvl/mxv
 BYTE   W01
 BYTE   VOL   39*Expedition_mvl/mxv
 BYTE   W01
 BYTE   VOL   40*Expedition_mvl/mxv
 BYTE   W01
 BYTE   VOL   41*Expedition_mvl/mxv
 BYTE   W01
 BYTE   VOL   42*Expedition_mvl/mxv
 BYTE   W01
 BYTE   VOL   43*Expedition_mvl/mxv
 BYTE   W01
 BYTE   VOL   43*Expedition_mvl/mxv
 BYTE   W01
 BYTE   VOL   44*Expedition_mvl/mxv
 BYTE   W01
 BYTE   VOL   45*Expedition_mvl/mxv
 BYTE   W01
 BYTE   VOL   46*Expedition_mvl/mxv
 BYTE   W01
 BYTE   VOL   47*Expedition_mvl/mxv
 BYTE   W01
 BYTE   VOL   48*Expedition_mvl/mxv
 BYTE   W01
 BYTE   VOL   49*Expedition_mvl/mxv
 BYTE   W01
 BYTE   VOL   49*Expedition_mvl/mxv
 BYTE   W01
 BYTE   VOL   50*Expedition_mvl/mxv
 BYTE   W01
 BYTE   VOL   51*Expedition_mvl/mxv
 BYTE   W18
 BYTE   N02  Ds3  v108
 BYTE   W03
 BYTE   Dn3
 BYTE   W03
//  #05 //002   ----------------------------------------
 BYTE   N92  Cn3  v104
 BYTE   W96
//  #05 //003   ----------------------------------------
 BYTE   VOL   31*Expedition_mvl/mxv
 BYTE   N44  As2  v124
 BYTE   W01
 BYTE   VOL   32*Expedition_mvl/mxv
 BYTE   W01
 BYTE   VOL   33*Expedition_mvl/mxv
 BYTE   W01
 BYTE   VOL   33*Expedition_mvl/mxv
 BYTE   W01
 BYTE   VOL   34*Expedition_mvl/mxv
 BYTE   W01
 BYTE   VOL   35*Expedition_mvl/mxv
 BYTE   W01
 BYTE   VOL   36*Expedition_mvl/mxv
 BYTE   W01
 BYTE   VOL   37*Expedition_mvl/mxv
 BYTE   W01
 BYTE   VOL   38*Expedition_mvl/mxv
 BYTE   W01
 BYTE   VOL   39*Expedition_mvl/mxv
 BYTE   W01
 BYTE   VOL   39*Expedition_mvl/mxv
 BYTE   W01
 BYTE   VOL   40*Expedition_mvl/mxv
 BYTE   W01
 BYTE   VOL   41*Expedition_mvl/mxv
 BYTE   W01
 BYTE   VOL   42*Expedition_mvl/mxv
 BYTE   W01
 BYTE   VOL   43*Expedition_mvl/mxv
 BYTE   W01
 BYTE   VOL   43*Expedition_mvl/mxv
 BYTE   W01
 BYTE   VOL   44*Expedition_mvl/mxv
 BYTE   W01
 BYTE   VOL   45*Expedition_mvl/mxv
 BYTE   W01
 BYTE   VOL   46*Expedition_mvl/mxv
 BYTE   W01
 BYTE   VOL   47*Expedition_mvl/mxv
 BYTE   W01
 BYTE   VOL   48*Expedition_mvl/mxv
 BYTE   W01
 BYTE   VOL   49*Expedition_mvl/mxv
 BYTE   W01
 BYTE   VOL   49*Expedition_mvl/mxv
 BYTE   W01
 BYTE   VOL   50*Expedition_mvl/mxv
 BYTE   W01
 BYTE   VOL   51*Expedition_mvl/mxv
 BYTE   W24
 BYTE   VOL   31*Expedition_mvl/mxv
 BYTE   N40  Cn3
 BYTE   W01
 BYTE   VOL   32*Expedition_mvl/mxv
 BYTE   W01
 BYTE   VOL   33*Expedition_mvl/mxv
 BYTE   W01
 BYTE   VOL   33*Expedition_mvl/mxv
 BYTE   W01
 BYTE   VOL   34*Expedition_mvl/mxv
 BYTE   W01
 BYTE   VOL   35*Expedition_mvl/mxv
 BYTE   W01
 BYTE   VOL   36*Expedition_mvl/mxv
 BYTE   W01
 BYTE   VOL   37*Expedition_mvl/mxv
 BYTE   W01
 BYTE   VOL   38*Expedition_mvl/mxv
 BYTE   W01
 BYTE   VOL   39*Expedition_mvl/mxv
 BYTE   W01
 BYTE   VOL   39*Expedition_mvl/mxv
 BYTE   W01
 BYTE   VOL   40*Expedition_mvl/mxv
 BYTE   W01
 BYTE   VOL   41*Expedition_mvl/mxv
 BYTE   W01
 BYTE   VOL   42*Expedition_mvl/mxv
 BYTE   W01
 BYTE   VOL   43*Expedition_mvl/mxv
 BYTE   W01
 BYTE   VOL   43*Expedition_mvl/mxv
 BYTE   W01
 BYTE   VOL   44*Expedition_mvl/mxv
 BYTE   W01
 BYTE   VOL   45*Expedition_mvl/mxv
 BYTE   W01
 BYTE   VOL   46*Expedition_mvl/mxv
 BYTE   W01
 BYTE   VOL   47*Expedition_mvl/mxv
 BYTE   W01
 BYTE   VOL   48*Expedition_mvl/mxv
 BYTE   W01
 BYTE   VOL   49*Expedition_mvl/mxv
 BYTE   W01
 BYTE   VOL   49*Expedition_mvl/mxv
 BYTE   W01
 BYTE   VOL   50*Expedition_mvl/mxv
 BYTE   W01
 BYTE   VOL   51*Expedition_mvl/mxv
 BYTE   W18
 BYTE   N02  As2  v108
 BYTE   W03
 BYTE   Gs2
 BYTE   W03
//  #05 //004   ----------------------------------------
 BYTE   N44  Gn2  v104
 BYTE   W48
 BYTE   VOL   31*Expedition_mvl/mxv
 BYTE   N44  Fn2
 BYTE   W01
 BYTE   VOL   32*Expedition_mvl/mxv
 BYTE   W01
 BYTE   VOL   33*Expedition_mvl/mxv
 BYTE   W01
 BYTE   VOL   33*Expedition_mvl/mxv
 BYTE   W01
 BYTE   VOL   34*Expedition_mvl/mxv
 BYTE   W01
 BYTE   VOL   35*Expedition_mvl/mxv
 BYTE   W01
 BYTE   VOL   36*Expedition_mvl/mxv
 BYTE   W01
 BYTE   VOL   37*Expedition_mvl/mxv
 BYTE   W01
 BYTE   VOL   38*Expedition_mvl/mxv
 BYTE   W01
 BYTE   VOL   39*Expedition_mvl/mxv
 BYTE   W01
 BYTE   VOL   39*Expedition_mvl/mxv
 BYTE   W01
 BYTE   VOL   40*Expedition_mvl/mxv
 BYTE   W01
 BYTE   VOL   41*Expedition_mvl/mxv
 BYTE   W01
 BYTE   VOL   42*Expedition_mvl/mxv
 BYTE   W01
 BYTE   VOL   43*Expedition_mvl/mxv
 BYTE   W01
 BYTE   VOL   43*Expedition_mvl/mxv
 BYTE   W01
 BYTE   VOL   44*Expedition_mvl/mxv
 BYTE   W01
 BYTE   VOL   45*Expedition_mvl/mxv
 BYTE   W01
 BYTE   VOL   46*Expedition_mvl/mxv
 BYTE   W01
 BYTE   VOL   47*Expedition_mvl/mxv
 BYTE   W01
 BYTE   VOL   48*Expedition_mvl/mxv
 BYTE   W01
 BYTE   VOL   49*Expedition_mvl/mxv
 BYTE   W01
 BYTE   VOL   49*Expedition_mvl/mxv
 BYTE   W01
 BYTE   VOL   50*Expedition_mvl/mxv
 BYTE   W01
 BYTE   VOL   51*Expedition_mvl/mxv
 BYTE   W24
//  #05 //005   ----------------------------------------
 BYTE   W01
 BYTE   VOL   31*Expedition_mvl/mxv
 BYTE   N44  Cn3  v124
 BYTE   W01
 BYTE   VOL   32*Expedition_mvl/mxv
 BYTE   W01
 BYTE   VOL   33*Expedition_mvl/mxv
 BYTE   W01
 BYTE   VOL   34*Expedition_mvl/mxv
 BYTE   W01
 BYTE   VOL   35*Expedition_mvl/mxv
 BYTE   W01
 BYTE   VOL   36*Expedition_mvl/mxv
 BYTE   W01
 BYTE   VOL   37*Expedition_mvl/mxv
 BYTE   W01
 BYTE   VOL   37*Expedition_mvl/mxv
 BYTE   W01
 BYTE   VOL   38*Expedition_mvl/mxv
 BYTE   W01
 BYTE   VOL   39*Expedition_mvl/mxv
 BYTE   W01
 BYTE   VOL   40*Expedition_mvl/mxv
 BYTE   W01
 BYTE   VOL   41*Expedition_mvl/mxv
 BYTE   W01
 BYTE   VOL   41*Expedition_mvl/mxv
 BYTE   W01
 BYTE   VOL   42*Expedition_mvl/mxv
 BYTE   W01
 BYTE   VOL   43*Expedition_mvl/mxv
 BYTE   W01
 BYTE   VOL   44*Expedition_mvl/mxv
 BYTE   W01
 BYTE   VOL   45*Expedition_mvl/mxv
 BYTE   W01
 BYTE   VOL   46*Expedition_mvl/mxv
 BYTE   W01
 BYTE   VOL   47*Expedition_mvl/mxv
 BYTE   W01
 BYTE   VOL   47*Expedition_mvl/mxv
 BYTE   W01
 BYTE   VOL   48*Expedition_mvl/mxv
 BYTE   W01
 BYTE   VOL   49*Expedition_mvl/mxv
 BYTE   W01
 BYTE   VOL   50*Expedition_mvl/mxv
 BYTE   W01
 BYTE   VOL   51*Expedition_mvl/mxv
 BYTE   W24
 BYTE   W01
 BYTE   VOL   31*Expedition_mvl/mxv
 BYTE   N40  Ds3
 BYTE   W01
 BYTE   VOL   32*Expedition_mvl/mxv
 BYTE   W01
 BYTE   VOL   33*Expedition_mvl/mxv
 BYTE   W01
 BYTE   VOL   34*Expedition_mvl/mxv
 BYTE   W01
 BYTE   VOL   35*Expedition_mvl/mxv
 BYTE   W01
 BYTE   VOL   36*Expedition_mvl/mxv
 BYTE   W01
 BYTE   VOL   37*Expedition_mvl/mxv
 BYTE   W01
 BYTE   VOL   37*Expedition_mvl/mxv
 BYTE   W01
 BYTE   VOL   38*Expedition_mvl/mxv
 BYTE   W01
 BYTE   VOL   39*Expedition_mvl/mxv
 BYTE   W01
 BYTE   VOL   40*Expedition_mvl/mxv
 BYTE   W01
 BYTE   VOL   41*Expedition_mvl/mxv
 BYTE   W01
 BYTE   VOL   41*Expedition_mvl/mxv
 BYTE   W01
 BYTE   VOL   42*Expedition_mvl/mxv
 BYTE   W01
 BYTE   VOL   43*Expedition_mvl/mxv
 BYTE   W01
 BYTE   VOL   44*Expedition_mvl/mxv
 BYTE   W01
 BYTE   VOL   45*Expedition_mvl/mxv
 BYTE   W01
 BYTE   VOL   46*Expedition_mvl/mxv
 BYTE   W01
 BYTE   VOL   47*Expedition_mvl/mxv
 BYTE   W01
 BYTE   VOL   47*Expedition_mvl/mxv
 BYTE   W01
 BYTE   VOL   48*Expedition_mvl/mxv
 BYTE   W01
 BYTE   VOL   49*Expedition_mvl/mxv
 BYTE   W01
 BYTE   VOL   50*Expedition_mvl/mxv
 BYTE   W01
 BYTE   VOL   51*Expedition_mvl/mxv
 BYTE   W19
 BYTE   N02  Ds3  v108
 BYTE   W03
 BYTE   Dn3
 BYTE   W02
//  #05 //006   ----------------------------------------
 BYTE   W01
 BYTE   N92  Cn3  v104
 BYTE   W92
 BYTE   W03
//  #05 //007   ----------------------------------------
 BYTE   W01
 BYTE   VOL   31*Expedition_mvl/mxv
 BYTE   N44  As2  v124
 BYTE   W01
 BYTE   VOL   32*Expedition_mvl/mxv
 BYTE   W01
 BYTE   VOL   33*Expedition_mvl/mxv
 BYTE   W01
 BYTE   VOL   34*Expedition_mvl/mxv
 BYTE   W01
 BYTE   VOL   35*Expedition_mvl/mxv
 BYTE   W01
 BYTE   VOL   36*Expedition_mvl/mxv
 BYTE   W01
 BYTE   VOL   37*Expedition_mvl/mxv
 BYTE   W01
 BYTE   VOL   37*Expedition_mvl/mxv
 BYTE   W01
 BYTE   VOL   38*Expedition_mvl/mxv
 BYTE   W01
 BYTE   VOL   39*Expedition_mvl/mxv
 BYTE   W01
 BYTE   VOL   40*Expedition_mvl/mxv
 BYTE   W01
 BYTE   VOL   41*Expedition_mvl/mxv
 BYTE   W01
 BYTE   VOL   41*Expedition_mvl/mxv
 BYTE   W01
 BYTE   VOL   42*Expedition_mvl/mxv
 BYTE   W01
 BYTE   VOL   43*Expedition_mvl/mxv
 BYTE   W01
 BYTE   VOL   44*Expedition_mvl/mxv
 BYTE   W01
 BYTE   VOL   45*Expedition_mvl/mxv
 BYTE   W01
 BYTE   VOL   46*Expedition_mvl/mxv
 BYTE   W01
 BYTE   VOL   47*Expedition_mvl/mxv
 BYTE   W01
 BYTE   VOL   47*Expedition_mvl/mxv
 BYTE   W01
 BYTE   VOL   48*Expedition_mvl/mxv
 BYTE   W01
 BYTE   VOL   49*Expedition_mvl/mxv
 BYTE   W01
 BYTE   VOL   50*Expedition_mvl/mxv
 BYTE   W01
 BYTE   VOL   51*Expedition_mvl/mxv
 BYTE   W24
 BYTE   W01
 BYTE   VOL   31*Expedition_mvl/mxv
 BYTE   N40  Cn3
 BYTE   W01
 BYTE   VOL   32*Expedition_mvl/mxv
 BYTE   W01
 BYTE   VOL   33*Expedition_mvl/mxv
 BYTE   W01
 BYTE   VOL   34*Expedition_mvl/mxv
 BYTE   W01
 BYTE   VOL   35*Expedition_mvl/mxv
 BYTE   W01
 BYTE   VOL   36*Expedition_mvl/mxv
 BYTE   W01
 BYTE   VOL   37*Expedition_mvl/mxv
 BYTE   W01
 BYTE   VOL   37*Expedition_mvl/mxv
 BYTE   W01
 BYTE   VOL   38*Expedition_mvl/mxv
 BYTE   W01
 BYTE   VOL   39*Expedition_mvl/mxv
 BYTE   W01
 BYTE   VOL   40*Expedition_mvl/mxv
 BYTE   W01
 BYTE   VOL   41*Expedition_mvl/mxv
 BYTE   W01
 BYTE   VOL   41*Expedition_mvl/mxv
 BYTE   W01
 BYTE   VOL   42*Expedition_mvl/mxv
 BYTE   W01
 BYTE   VOL   43*Expedition_mvl/mxv
 BYTE   W01
 BYTE   VOL   44*Expedition_mvl/mxv
 BYTE   W01
 BYTE   VOL   45*Expedition_mvl/mxv
 BYTE   W01
 BYTE   VOL   46*Expedition_mvl/mxv
 BYTE   W01
 BYTE   VOL   47*Expedition_mvl/mxv
 BYTE   W01
 BYTE   VOL   47*Expedition_mvl/mxv
 BYTE   W01
 BYTE   VOL   48*Expedition_mvl/mxv
 BYTE   W01
 BYTE   VOL   49*Expedition_mvl/mxv
 BYTE   W01
 BYTE   VOL   50*Expedition_mvl/mxv
 BYTE   W01
 BYTE   VOL   51*Expedition_mvl/mxv
 BYTE   W19
 BYTE   N02  As2  v108
 BYTE   W03
 BYTE   Gs2
 BYTE   W02
//  #05 //008   ----------------------------------------
 BYTE   W01
 BYTE   N44  Gn2  v104
 BYTE   W48
 BYTE   VOL   31*Expedition_mvl/mxv
 BYTE   N32  Fn2
 BYTE   W01
 BYTE   VOL   32*Expedition_mvl/mxv
 BYTE   W01
 BYTE   VOL   33*Expedition_mvl/mxv
 BYTE   W01
 BYTE   VOL   34*Expedition_mvl/mxv
 BYTE   W01
 BYTE   VOL   35*Expedition_mvl/mxv
 BYTE   W01
 BYTE   VOL   36*Expedition_mvl/mxv
 BYTE   W01
 BYTE   VOL   37*Expedition_mvl/mxv
 BYTE   W01
 BYTE   VOL   37*Expedition_mvl/mxv
 BYTE   W01
 BYTE   VOL   38*Expedition_mvl/mxv
 BYTE   W01
 BYTE   VOL   39*Expedition_mvl/mxv
 BYTE   W01
 BYTE   VOL   40*Expedition_mvl/mxv
 BYTE   W01
 BYTE   VOL   41*Expedition_mvl/mxv
 BYTE   W01
 BYTE   VOL   41*Expedition_mvl/mxv
 BYTE   W01
 BYTE   VOL   42*Expedition_mvl/mxv
 BYTE   W01
 BYTE   VOL   43*Expedition_mvl/mxv
 BYTE   W01
 BYTE   VOL   44*Expedition_mvl/mxv
 BYTE   W01
 BYTE   VOL   45*Expedition_mvl/mxv
 BYTE   W01
 BYTE   VOL   46*Expedition_mvl/mxv
 BYTE   W01
 BYTE   VOL   47*Expedition_mvl/mxv
 BYTE   W01
 BYTE   VOL   47*Expedition_mvl/mxv
 BYTE   W01
 BYTE   VOL   48*Expedition_mvl/mxv
 BYTE   W01
 BYTE   VOL   49*Expedition_mvl/mxv
 BYTE   W01
 BYTE   VOL   50*Expedition_mvl/mxv
 BYTE   W01
 BYTE   VOL   51*Expedition_mvl/mxv
 BYTE   W16
 BYTE   N02
 BYTE   W03
 BYTE   Gn2  v108
 BYTE   W03
 BYTE   Gs2  v116
 BYTE   W02
//  #05 //009   ----------------------------------------
Label_0156BE17:
 BYTE   W01
 BYTE   N17  As2  v124
 BYTE   W18
 BYTE   N02  Gn2
 BYTE   W03
 BYTE   N05  Cn3
 BYTE   W06
 BYTE   As2
 BYTE   W06
 BYTE   N02  Gs2
 BYTE   W03
 BYTE   N05  Gn2
 BYTE   W06
 BYTE   N02  Gs2
 BYTE   W03
 BYTE   N44  As2
 BYTE   W44
 BYTE   W01
 BYTE   N02  Gn2
 BYTE   W03
 BYTE   Gs2
 BYTE   W02
 BYTE   PEND 
//  #05 //010   ----------------------------------------
 BYTE   PATT
  POIN2 Label_0156BE17
//  #05 //011   ----------------------------------------
 BYTE   W01
 BYTE   N11  Cs3  v104
 BYTE   W12
 BYTE   As2
 BYTE   W12
 BYTE   Ds3
 BYTE   W12
 BYTE   Gs2
 BYTE   W13
 BYTE   VOICE   52
 BYTE   VOL   31*Expedition_mvl/mxv
 BYTE   PAN   c_v+0
 BYTE   VOL   31*Expedition_mvl/mxv
 BYTE   N88  As2  v124
 BYTE   W01
 BYTE   VOL   32*Expedition_mvl/mxv
 BYTE   W01
 BYTE   VOL   33*Expedition_mvl/mxv
 BYTE   W01
 BYTE   VOL   34*Expedition_mvl/mxv
 BYTE   W01
 BYTE   VOL   35*Expedition_mvl/mxv
 BYTE   W01
 BYTE   VOL   36*Expedition_mvl/mxv
 BYTE   W01
 BYTE   VOL   37*Expedition_mvl/mxv
 BYTE   W01
 BYTE   VOL   37*Expedition_mvl/mxv
 BYTE   W01
 BYTE   VOL   38*Expedition_mvl/mxv
 BYTE   W01
 BYTE   VOL   39*Expedition_mvl/mxv
 BYTE   W01
 BYTE   VOL   40*Expedition_mvl/mxv
 BYTE   W01
 BYTE   VOL   41*Expedition_mvl/mxv
 BYTE   W01
 BYTE   VOL   41*Expedition_mvl/mxv
 BYTE   W01
 BYTE   VOL   42*Expedition_mvl/mxv
 BYTE   W01
 BYTE   VOL   43*Expedition_mvl/mxv
 BYTE   W01
 BYTE   VOL   44*Expedition_mvl/mxv
 BYTE   W01
 BYTE   VOL   45*Expedition_mvl/mxv
 BYTE   W01
 BYTE   VOL   46*Expedition_mvl/mxv
 BYTE   W01
 BYTE   VOL   47*Expedition_mvl/mxv
 BYTE   W01
 BYTE   VOL   47*Expedition_mvl/mxv
 BYTE   W01
 BYTE   VOL   48*Expedition_mvl/mxv
 BYTE   W01
 BYTE   VOL   49*Expedition_mvl/mxv
 BYTE   W01
 BYTE   VOL   50*Expedition_mvl/mxv
 BYTE   W01
 BYTE   VOL   51*Expedition_mvl/mxv
 BYTE   W23
//  #05 //012   ----------------------------------------
 BYTE   W44
 BYTE   N02  As2  v104
 BYTE   W03
 BYTE   Gs2  v096
 BYTE   W03
 BYTE   N44  Gn2
 BYTE   W44
 BYTE   W02
//  #05 //013   ----------------------------------------
 BYTE   W02
 BYTE   Fn2  v092
 BYTE   W48
 BYTE   GoTo
  POIN2 Label_0156BAE2
 BYTE   FINE

//**************** Track 6 (Midi-Chn.5) ****************//

Expedition_006:
//  #06 //000   ----------------------------------------
 BYTE   KEYSH   Expedition_key+0
Label_0156BEC2:
 BYTE   VOICE   10
 BYTE   VOL   14*Expedition_mvl/mxv
 BYTE   PAN   c_v-34
 BYTE   PAN   c_v+34
 BYTE   N02  Cn5  v092
 BYTE   W03
 BYTE   Gs4
 BYTE   W03
 BYTE   Fn4
 BYTE   W03
 BYTE   PAN   c_v-34
 BYTE   N02  Cn5
 BYTE   W03
 BYTE   Gs4
 BYTE   W03
 BYTE   Fn4
 BYTE   W03
 BYTE   PAN   c_v+34
 BYTE   N02  Cn5
 BYTE   W03
 BYTE   Gs4
 BYTE   W03
 BYTE   Fn4
 BYTE   W03
 BYTE   PAN   c_v-34
 BYTE   N02  Cn5
 BYTE   W03
 BYTE   Gs4
 BYTE   W03
 BYTE   Fn4
 BYTE   W03
 BYTE   PAN   c_v+34
 BYTE   N02  Cn5
 BYTE   W03
 BYTE   Gs4
 BYTE   W03
 BYTE   Fn4
 BYTE   W03
 BYTE   Gs4
 BYTE   W03
 BYTE   PAN   c_v+34
 BYTE   N02  Cn5
 BYTE   W03
 BYTE   Gs4
 BYTE   W03
 BYTE   Fn4
 BYTE   W03
 BYTE   PAN   c_v-34
 BYTE   N02  Cn5
 BYTE   W03
 BYTE   Gs4
 BYTE   W03
 BYTE   Fn4
 BYTE   W03
 BYTE   PAN   c_v+34
 BYTE   N02  Cn5
 BYTE   W03
 BYTE   Gs4
 BYTE   W03
 BYTE   Fn4
 BYTE   W03
 BYTE   PAN   c_v-34
 BYTE   N02  Cn5
 BYTE   W03
 BYTE   Gs4
 BYTE   W03
 BYTE   Fn4
 BYTE   W03
 BYTE   PAN   c_v+34
 BYTE   N02  Cn5
 BYTE   W03
 BYTE   Gs4
 BYTE   W03
 BYTE   Fn4
 BYTE   W03
 BYTE   Gs4
 BYTE   W03
//  #06 //001   ----------------------------------------
Label_0156BF27:
 BYTE   PAN   c_v+34
 BYTE   N02  Cn5  v092
 BYTE   W03
 BYTE   Gs4
 BYTE   W03
 BYTE   Fn4
 BYTE   W03
 BYTE   PAN   c_v-34
 BYTE   N02  Cn5
 BYTE   W03
 BYTE   Gs4
 BYTE   W03
 BYTE   Fn4
 BYTE   W03
 BYTE   PAN   c_v+34
 BYTE   N02  Cn5
 BYTE   W03
 BYTE   Gs4
 BYTE   W03
 BYTE   Fn4
 BYTE   W03
 BYTE   PAN   c_v-34
 BYTE   N02  Cn5
 BYTE   W03
 BYTE   Gs4
 BYTE   W03
 BYTE   Fn4
 BYTE   W03
 BYTE   PAN   c_v+34
 BYTE   N02  Cn5
 BYTE   W03
 BYTE   Gs4
 BYTE   W03
 BYTE   Fn4
 BYTE   W03
 BYTE   Gs4
 BYTE   W03
 BYTE   PAN   c_v+34
 BYTE   N02  Cn5
 BYTE   W03
 BYTE   Gs4
 BYTE   W03
 BYTE   Fn4
 BYTE   W03
 BYTE   PAN   c_v-34
 BYTE   N02  Cn5
 BYTE   W03
 BYTE   Gs4
 BYTE   W03
 BYTE   Fn4
 BYTE   W03
 BYTE   PAN   c_v+34
 BYTE   N02  Cn5
 BYTE   W03
 BYTE   Gs4
 BYTE   W03
 BYTE   Fn4
 BYTE   W03
 BYTE   PAN   c_v-34
 BYTE   N02  Cn5
 BYTE   W03
 BYTE   Gs4
 BYTE   W03
 BYTE   Fn4
 BYTE   W03
 BYTE   PAN   c_v+34
 BYTE   N02  Cn5
 BYTE   W03
 BYTE   Gs4
 BYTE   W03
 BYTE   Fn4
 BYTE   W03
 BYTE   Gs4
 BYTE   W03
 BYTE   PEND 
//  #06 //002   ----------------------------------------
 BYTE   PATT
  POIN2 Label_0156BF27
//  #06 //003   ----------------------------------------
 BYTE   PATT
  POIN2 Label_0156BF27
//  #06 //004   ----------------------------------------
 BYTE   PATT
  POIN2 Label_0156BF27
//  #06 //005   ----------------------------------------
 BYTE   W01
 BYTE   VOICE   52
 BYTE   VOL   26*Expedition_mvl/mxv
 BYTE   PAN   c_v-34
 BYTE   VOL   16*Expedition_mvl/mxv
 BYTE   N23  Gn3  v104
 BYTE   W01
 BYTE   VOL   17*Expedition_mvl/mxv
 BYTE   W01
 BYTE   VOL   18*Expedition_mvl/mxv
 BYTE   W01
 BYTE   VOL   19*Expedition_mvl/mxv
 BYTE   W01
 BYTE   VOL   20*Expedition_mvl/mxv
 BYTE   W01
 BYTE   VOL   21*Expedition_mvl/mxv
 BYTE   W01
 BYTE   VOL   22*Expedition_mvl/mxv
 BYTE   W01
 BYTE   VOL   22*Expedition_mvl/mxv
 BYTE   W01
 BYTE   VOL   23*Expedition_mvl/mxv
 BYTE   W01
 BYTE   VOL   24*Expedition_mvl/mxv
 BYTE   W01
 BYTE   VOL   25*Expedition_mvl/mxv
 BYTE   W01
 BYTE   VOL   26*Expedition_mvl/mxv
 BYTE   W01
 BYTE   VOL   26*Expedition_mvl/mxv
 BYTE   W01
 BYTE   VOL   27*Expedition_mvl/mxv
 BYTE   W01
 BYTE   VOL   28*Expedition_mvl/mxv
 BYTE   W01
 BYTE   VOL   29*Expedition_mvl/mxv
 BYTE   W01
 BYTE   VOL   30*Expedition_mvl/mxv
 BYTE   W01
 BYTE   VOL   31*Expedition_mvl/mxv
 BYTE   W01
 BYTE   VOL   32*Expedition_mvl/mxv
 BYTE   W01
 BYTE   VOL   32*Expedition_mvl/mxv
 BYTE   W01
 BYTE   VOL   33*Expedition_mvl/mxv
 BYTE   W01
 BYTE   VOL   34*Expedition_mvl/mxv
 BYTE   W01
 BYTE   VOL   35*Expedition_mvl/mxv
 BYTE   W01
 BYTE   VOL   36*Expedition_mvl/mxv
 BYTE   W01
 BYTE   VOL   14*Expedition_mvl/mxv
 BYTE   N23  Fn3
 BYTE   W01
 BYTE   VOL   15*Expedition_mvl/mxv
 BYTE   W01
 BYTE   VOL   16*Expedition_mvl/mxv
 BYTE   W01
 BYTE   VOL   17*Expedition_mvl/mxv
 BYTE   W01
 BYTE   VOL   18*Expedition_mvl/mxv
 BYTE   W01
 BYTE   VOL   19*Expedition_mvl/mxv
 BYTE   W01
 BYTE   VOL   20*Expedition_mvl/mxv
 BYTE   W01
 BYTE   VOL   20*Expedition_mvl/mxv
 BYTE   W01
 BYTE   VOL   21*Expedition_mvl/mxv
 BYTE   W01
 BYTE   VOL   22*Expedition_mvl/mxv
 BYTE   W01
 BYTE   VOL   23*Expedition_mvl/mxv
 BYTE   W01
 BYTE   VOL   24*Expedition_mvl/mxv
 BYTE   W01
 BYTE   VOL   24*Expedition_mvl/mxv
 BYTE   W01
 BYTE   VOL   25*Expedition_mvl/mxv
 BYTE   W01
 BYTE   VOL   26*Expedition_mvl/mxv
 BYTE   W01
 BYTE   VOL   27*Expedition_mvl/mxv
 BYTE   W01
 BYTE   VOL   28*Expedition_mvl/mxv
 BYTE   W01
 BYTE   VOL   29*Expedition_mvl/mxv
 BYTE   W01
 BYTE   VOL   30*Expedition_mvl/mxv
 BYTE   W01
 BYTE   VOL   30*Expedition_mvl/mxv
 BYTE   W01
 BYTE   VOL   31*Expedition_mvl/mxv
 BYTE   W01
 BYTE   VOL   32*Expedition_mvl/mxv
 BYTE   W01
 BYTE   VOL   33*Expedition_mvl/mxv
 BYTE   W01
 BYTE   VOL   34*Expedition_mvl/mxv
 BYTE   W01
 BYTE   VOL   16*Expedition_mvl/mxv
 BYTE   N23  Cn3
 BYTE   W01
 BYTE   VOL   17*Expedition_mvl/mxv
 BYTE   W01
 BYTE   VOL   18*Expedition_mvl/mxv
 BYTE   W01
 BYTE   VOL   19*Expedition_mvl/mxv
 BYTE   W01
 BYTE   VOL   20*Expedition_mvl/mxv
 BYTE   W01
 BYTE   VOL   21*Expedition_mvl/mxv
 BYTE   W01
 BYTE   VOL   22*Expedition_mvl/mxv
 BYTE   W01
 BYTE   VOL   22*Expedition_mvl/mxv
 BYTE   W01
 BYTE   VOL   23*Expedition_mvl/mxv
 BYTE   W01
 BYTE   VOL   24*Expedition_mvl/mxv
 BYTE   W01
 BYTE   VOL   25*Expedition_mvl/mxv
 BYTE   W01
 BYTE   VOL   26*Expedition_mvl/mxv
 BYTE   W01
 BYTE   VOL   26*Expedition_mvl/mxv
 BYTE   W01
 BYTE   VOL   27*Expedition_mvl/mxv
 BYTE   W01
 BYTE   VOL   28*Expedition_mvl/mxv
 BYTE   W01
 BYTE   VOL   29*Expedition_mvl/mxv
 BYTE   W01
 BYTE   VOL   30*Expedition_mvl/mxv
 BYTE   W01
 BYTE   VOL   31*Expedition_mvl/mxv
 BYTE   W01
 BYTE   VOL   32*Expedition_mvl/mxv
 BYTE   W01
 BYTE   VOL   32*Expedition_mvl/mxv
 BYTE   W01
 BYTE   VOL   33*Expedition_mvl/mxv
 BYTE   W01
 BYTE   VOL   34*Expedition_mvl/mxv
 BYTE   W01
 BYTE   VOL   35*Expedition_mvl/mxv
 BYTE   W01
 BYTE   VOL   36*Expedition_mvl/mxv
 BYTE   W01
 BYTE   VOL   16*Expedition_mvl/mxv
 BYTE   N23  Gs2
 BYTE   W01
 BYTE   VOL   17*Expedition_mvl/mxv
 BYTE   W01
 BYTE   VOL   18*Expedition_mvl/mxv
 BYTE   W01
 BYTE   VOL   19*Expedition_mvl/mxv
 BYTE   W01
 BYTE   VOL   20*Expedition_mvl/mxv
 BYTE   W01
 BYTE   VOL   21*Expedition_mvl/mxv
 BYTE   W01
 BYTE   VOL   22*Expedition_mvl/mxv
 BYTE   W01
 BYTE   VOL   22*Expedition_mvl/mxv
 BYTE   W01
 BYTE   VOL   23*Expedition_mvl/mxv
 BYTE   W01
 BYTE   VOL   24*Expedition_mvl/mxv
 BYTE   W01
 BYTE   VOL   25*Expedition_mvl/mxv
 BYTE   W01
 BYTE   VOL   26*Expedition_mvl/mxv
 BYTE   W01
 BYTE   VOL   26*Expedition_mvl/mxv
 BYTE   W01
 BYTE   VOL   27*Expedition_mvl/mxv
 BYTE   W01
 BYTE   VOL   28*Expedition_mvl/mxv
 BYTE   W01
 BYTE   VOL   29*Expedition_mvl/mxv
 BYTE   W01
 BYTE   VOL   30*Expedition_mvl/mxv
 BYTE   W01
 BYTE   VOL   31*Expedition_mvl/mxv
 BYTE   W01
 BYTE   VOL   32*Expedition_mvl/mxv
 BYTE   W01
 BYTE   VOL   32*Expedition_mvl/mxv
 BYTE   W01
 BYTE   VOL   33*Expedition_mvl/mxv
 BYTE   W01
 BYTE   VOL   34*Expedition_mvl/mxv
 BYTE   W01
 BYTE   VOL   35*Expedition_mvl/mxv
 BYTE   W01
//  #06 //006   ----------------------------------------
 BYTE   VOL   36*Expedition_mvl/mxv
 BYTE   W01
 BYTE   VOL   16*Expedition_mvl/mxv
 BYTE   N23  Gs3
 BYTE   W01
 BYTE   VOL   17*Expedition_mvl/mxv
 BYTE   W01
 BYTE   VOL   18*Expedition_mvl/mxv
 BYTE   W01
 BYTE   VOL   19*Expedition_mvl/mxv
 BYTE   W01
 BYTE   VOL   20*Expedition_mvl/mxv
 BYTE   W01
 BYTE   VOL   21*Expedition_mvl/mxv
 BYTE   W01
 BYTE   VOL   22*Expedition_mvl/mxv
 BYTE   W01
 BYTE   VOL   22*Expedition_mvl/mxv
 BYTE   W01
 BYTE   VOL   23*Expedition_mvl/mxv
 BYTE   W01
 BYTE   VOL   24*Expedition_mvl/mxv
 BYTE   W01
 BYTE   VOL   25*Expedition_mvl/mxv
 BYTE   W01
 BYTE   VOL   26*Expedition_mvl/mxv
 BYTE   W01
 BYTE   VOL   26*Expedition_mvl/mxv
 BYTE   W01
 BYTE   VOL   27*Expedition_mvl/mxv
 BYTE   W01
 BYTE   VOL   28*Expedition_mvl/mxv
 BYTE   W01
 BYTE   VOL   29*Expedition_mvl/mxv
 BYTE   W01
 BYTE   VOL   30*Expedition_mvl/mxv
 BYTE   W01
 BYTE   VOL   31*Expedition_mvl/mxv
 BYTE   W01
 BYTE   VOL   32*Expedition_mvl/mxv
 BYTE   W01
 BYTE   VOL   32*Expedition_mvl/mxv
 BYTE   W01
 BYTE   VOL   33*Expedition_mvl/mxv
 BYTE   W01
 BYTE   VOL   34*Expedition_mvl/mxv
 BYTE   W01
 BYTE   VOL   35*Expedition_mvl/mxv
 BYTE   W01
 BYTE   VOL   36*Expedition_mvl/mxv
 BYTE   W01
 BYTE   VOL   16*Expedition_mvl/mxv
 BYTE   N23  Gn3
 BYTE   W01
 BYTE   VOL   17*Expedition_mvl/mxv
 BYTE   W01
 BYTE   VOL   18*Expedition_mvl/mxv
 BYTE   W01
 BYTE   VOL   19*Expedition_mvl/mxv
 BYTE   W01
 BYTE   VOL   20*Expedition_mvl/mxv
 BYTE   W01
 BYTE   VOL   21*Expedition_mvl/mxv
 BYTE   W01
 BYTE   VOL   22*Expedition_mvl/mxv
 BYTE   W01
 BYTE   VOL   22*Expedition_mvl/mxv
 BYTE   W01
 BYTE   VOL   23*Expedition_mvl/mxv
 BYTE   W01
 BYTE   VOL   24*Expedition_mvl/mxv
 BYTE   W01
 BYTE   VOL   25*Expedition_mvl/mxv
 BYTE   W01
 BYTE   VOL   26*Expedition_mvl/mxv
 BYTE   W01
 BYTE   VOL   26*Expedition_mvl/mxv
 BYTE   W01
 BYTE   VOL   27*Expedition_mvl/mxv
 BYTE   W01
 BYTE   VOL   28*Expedition_mvl/mxv
 BYTE   W01
 BYTE   VOL   29*Expedition_mvl/mxv
 BYTE   W01
 BYTE   VOL   30*Expedition_mvl/mxv
 BYTE   W01
 BYTE   VOL   31*Expedition_mvl/mxv
 BYTE   W01
 BYTE   VOL   32*Expedition_mvl/mxv
 BYTE   W01
 BYTE   VOL   32*Expedition_mvl/mxv
 BYTE   W01
 BYTE   VOL   33*Expedition_mvl/mxv
 BYTE   W01
 BYTE   VOL   34*Expedition_mvl/mxv
 BYTE   W01
 BYTE   VOL   35*Expedition_mvl/mxv
 BYTE   W01
 BYTE   VOL   36*Expedition_mvl/mxv
 BYTE   W01
 BYTE   VOL   16*Expedition_mvl/mxv
 BYTE   N23  Ds3
 BYTE   W01
 BYTE   VOL   17*Expedition_mvl/mxv
 BYTE   W01
 BYTE   VOL   18*Expedition_mvl/mxv
 BYTE   W01
 BYTE   VOL   19*Expedition_mvl/mxv
 BYTE   W01
 BYTE   VOL   20*Expedition_mvl/mxv
 BYTE   W01
 BYTE   VOL   21*Expedition_mvl/mxv
 BYTE   W01
 BYTE   VOL   22*Expedition_mvl/mxv
 BYTE   W01
 BYTE   VOL   22*Expedition_mvl/mxv
 BYTE   W01
 BYTE   VOL   23*Expedition_mvl/mxv
 BYTE   W01
 BYTE   VOL   24*Expedition_mvl/mxv
 BYTE   W01
 BYTE   VOL   25*Expedition_mvl/mxv
 BYTE   W01
 BYTE   VOL   26*Expedition_mvl/mxv
 BYTE   W01
 BYTE   VOL   26*Expedition_mvl/mxv
 BYTE   W01
 BYTE   VOL   27*Expedition_mvl/mxv
 BYTE   W01
 BYTE   VOL   28*Expedition_mvl/mxv
 BYTE   W01
 BYTE   VOL   29*Expedition_mvl/mxv
 BYTE   W01
 BYTE   VOL   30*Expedition_mvl/mxv
 BYTE   W01
 BYTE   VOL   31*Expedition_mvl/mxv
 BYTE   W01
 BYTE   VOL   32*Expedition_mvl/mxv
 BYTE   W01
 BYTE   VOL   32*Expedition_mvl/mxv
 BYTE   W01
 BYTE   VOL   33*Expedition_mvl/mxv
 BYTE   W01
 BYTE   VOL   34*Expedition_mvl/mxv
 BYTE   W01
 BYTE   VOL   35*Expedition_mvl/mxv
 BYTE   W01
 BYTE   VOL   36*Expedition_mvl/mxv
 BYTE   W01
 BYTE   VOL   16*Expedition_mvl/mxv
 BYTE   N23  Fn3
 BYTE   W01
 BYTE   VOL   17*Expedition_mvl/mxv
 BYTE   W01
 BYTE   VOL   18*Expedition_mvl/mxv
 BYTE   W01
 BYTE   VOL   19*Expedition_mvl/mxv
 BYTE   W01
 BYTE   VOL   20*Expedition_mvl/mxv
 BYTE   W01
 BYTE   VOL   21*Expedition_mvl/mxv
 BYTE   W01
 BYTE   VOL   22*Expedition_mvl/mxv
 BYTE   W01
 BYTE   VOL   22*Expedition_mvl/mxv
 BYTE   W01
 BYTE   VOL   23*Expedition_mvl/mxv
 BYTE   W01
 BYTE   VOL   24*Expedition_mvl/mxv
 BYTE   W01
 BYTE   VOL   25*Expedition_mvl/mxv
 BYTE   W01
 BYTE   VOL   26*Expedition_mvl/mxv
 BYTE   W01
 BYTE   VOL   26*Expedition_mvl/mxv
 BYTE   W01
 BYTE   VOL   27*Expedition_mvl/mxv
 BYTE   W01
 BYTE   VOL   28*Expedition_mvl/mxv
 BYTE   W01
 BYTE   VOL   29*Expedition_mvl/mxv
 BYTE   W01
 BYTE   VOL   30*Expedition_mvl/mxv
 BYTE   W01
 BYTE   VOL   31*Expedition_mvl/mxv
 BYTE   W01
 BYTE   VOL   32*Expedition_mvl/mxv
 BYTE   W01
 BYTE   VOL   32*Expedition_mvl/mxv
 BYTE   W01
 BYTE   VOL   33*Expedition_mvl/mxv
 BYTE   W01
 BYTE   VOL   34*Expedition_mvl/mxv
 BYTE   W01
 BYTE   VOL   35*Expedition_mvl/mxv
 BYTE   W01
//  #06 //007   ----------------------------------------
 BYTE   VOL   36*Expedition_mvl/mxv
 BYTE   W01
 BYTE   VOL   16*Expedition_mvl/mxv
 BYTE   N23
 BYTE   W01
 BYTE   VOL   17*Expedition_mvl/mxv
 BYTE   W01
 BYTE   VOL   18*Expedition_mvl/mxv
 BYTE   W01
 BYTE   VOL   19*Expedition_mvl/mxv
 BYTE   W01
 BYTE   VOL   20*Expedition_mvl/mxv
 BYTE   W01
 BYTE   VOL   21*Expedition_mvl/mxv
 BYTE   W01
 BYTE   VOL   22*Expedition_mvl/mxv
 BYTE   W01
 BYTE   VOL   22*Expedition_mvl/mxv
 BYTE   W01
 BYTE   VOL   23*Expedition_mvl/mxv
 BYTE   W01
 BYTE   VOL   24*Expedition_mvl/mxv
 BYTE   W01
 BYTE   VOL   25*Expedition_mvl/mxv
 BYTE   W01
 BYTE   VOL   26*Expedition_mvl/mxv
 BYTE   W01
 BYTE   VOL   26*Expedition_mvl/mxv
 BYTE   W01
 BYTE   VOL   27*Expedition_mvl/mxv
 BYTE   W01
 BYTE   VOL   28*Expedition_mvl/mxv
 BYTE   W01
 BYTE   VOL   29*Expedition_mvl/mxv
 BYTE   W01
 BYTE   VOL   30*Expedition_mvl/mxv
 BYTE   W01
 BYTE   VOL   31*Expedition_mvl/mxv
 BYTE   W01
 BYTE   VOL   32*Expedition_mvl/mxv
 BYTE   W01
 BYTE   VOL   32*Expedition_mvl/mxv
 BYTE   W01
 BYTE   VOL   33*Expedition_mvl/mxv
 BYTE   W01
 BYTE   VOL   34*Expedition_mvl/mxv
 BYTE   W01
 BYTE   VOL   35*Expedition_mvl/mxv
 BYTE   W01
 BYTE   VOL   36*Expedition_mvl/mxv
 BYTE   W01
 BYTE   VOL   16*Expedition_mvl/mxv
 BYTE   N23  Gs3
 BYTE   W01
 BYTE   VOL   17*Expedition_mvl/mxv
 BYTE   W01
 BYTE   VOL   18*Expedition_mvl/mxv
 BYTE   W01
 BYTE   VOL   19*Expedition_mvl/mxv
 BYTE   W01
 BYTE   VOL   20*Expedition_mvl/mxv
 BYTE   W01
 BYTE   VOL   21*Expedition_mvl/mxv
 BYTE   W01
 BYTE   VOL   22*Expedition_mvl/mxv
 BYTE   W01
 BYTE   VOL   22*Expedition_mvl/mxv
 BYTE   W01
 BYTE   VOL   23*Expedition_mvl/mxv
 BYTE   W01
 BYTE   VOL   24*Expedition_mvl/mxv
 BYTE   W01
 BYTE   VOL   25*Expedition_mvl/mxv
 BYTE   W01
 BYTE   VOL   26*Expedition_mvl/mxv
 BYTE   W01
 BYTE   VOL   26*Expedition_mvl/mxv
 BYTE   W01
 BYTE   VOL   27*Expedition_mvl/mxv
 BYTE   W01
 BYTE   VOL   28*Expedition_mvl/mxv
 BYTE   W01
 BYTE   VOL   29*Expedition_mvl/mxv
 BYTE   W01
 BYTE   VOL   30*Expedition_mvl/mxv
 BYTE   W01
 BYTE   VOL   31*Expedition_mvl/mxv
 BYTE   W01
 BYTE   VOL   32*Expedition_mvl/mxv
 BYTE   W01
 BYTE   VOL   32*Expedition_mvl/mxv
 BYTE   W01
 BYTE   VOL   33*Expedition_mvl/mxv
 BYTE   W01
 BYTE   VOL   34*Expedition_mvl/mxv
 BYTE   W01
 BYTE   VOL   35*Expedition_mvl/mxv
 BYTE   W01
 BYTE   VOL   36*Expedition_mvl/mxv
 BYTE   W01
 BYTE   VOL   16*Expedition_mvl/mxv
 BYTE   N23  Gn3
 BYTE   W01
 BYTE   VOL   17*Expedition_mvl/mxv
 BYTE   W01
 BYTE   VOL   18*Expedition_mvl/mxv
 BYTE   W01
 BYTE   VOL   19*Expedition_mvl/mxv
 BYTE   W01
 BYTE   VOL   20*Expedition_mvl/mxv
 BYTE   W01
 BYTE   VOL   21*Expedition_mvl/mxv
 BYTE   W01
 BYTE   VOL   22*Expedition_mvl/mxv
 BYTE   W01
 BYTE   VOL   22*Expedition_mvl/mxv
 BYTE   W01
 BYTE   VOL   23*Expedition_mvl/mxv
 BYTE   W01
 BYTE   VOL   24*Expedition_mvl/mxv
 BYTE   W01
 BYTE   VOL   25*Expedition_mvl/mxv
 BYTE   W01
 BYTE   VOL   26*Expedition_mvl/mxv
 BYTE   W01
 BYTE   VOL   26*Expedition_mvl/mxv
 BYTE   W01
 BYTE   VOL   27*Expedition_mvl/mxv
 BYTE   W01
 BYTE   VOL   28*Expedition_mvl/mxv
 BYTE   W01
 BYTE   VOL   29*Expedition_mvl/mxv
 BYTE   W01
 BYTE   VOL   30*Expedition_mvl/mxv
 BYTE   W01
 BYTE   VOL   31*Expedition_mvl/mxv
 BYTE   W01
 BYTE   VOL   32*Expedition_mvl/mxv
 BYTE   W01
 BYTE   VOL   32*Expedition_mvl/mxv
 BYTE   W01
 BYTE   VOL   33*Expedition_mvl/mxv
 BYTE   W01
 BYTE   VOL   34*Expedition_mvl/mxv
 BYTE   W01
 BYTE   VOL   35*Expedition_mvl/mxv
 BYTE   W01
 BYTE   VOL   36*Expedition_mvl/mxv
 BYTE   W01
 BYTE   VOL   16*Expedition_mvl/mxv
 BYTE   N23  Fn3
 BYTE   W01
 BYTE   VOL   17*Expedition_mvl/mxv
 BYTE   W01
 BYTE   VOL   18*Expedition_mvl/mxv
 BYTE   W01
 BYTE   VOL   19*Expedition_mvl/mxv
 BYTE   W01
 BYTE   VOL   20*Expedition_mvl/mxv
 BYTE   W01
 BYTE   VOL   21*Expedition_mvl/mxv
 BYTE   W01
 BYTE   VOL   22*Expedition_mvl/mxv
 BYTE   W01
 BYTE   VOL   22*Expedition_mvl/mxv
 BYTE   W01
 BYTE   VOL   23*Expedition_mvl/mxv
 BYTE   W01
 BYTE   VOL   24*Expedition_mvl/mxv
 BYTE   W01
 BYTE   VOL   25*Expedition_mvl/mxv
 BYTE   W01
 BYTE   VOL   26*Expedition_mvl/mxv
 BYTE   W01
 BYTE   VOL   26*Expedition_mvl/mxv
 BYTE   W01
 BYTE   VOL   27*Expedition_mvl/mxv
 BYTE   W01
 BYTE   VOL   28*Expedition_mvl/mxv
 BYTE   W01
 BYTE   VOL   29*Expedition_mvl/mxv
 BYTE   W01
 BYTE   VOL   30*Expedition_mvl/mxv
 BYTE   W01
 BYTE   VOL   31*Expedition_mvl/mxv
 BYTE   W01
 BYTE   VOL   32*Expedition_mvl/mxv
 BYTE   W01
 BYTE   VOL   32*Expedition_mvl/mxv
 BYTE   W01
 BYTE   VOL   33*Expedition_mvl/mxv
 BYTE   W01
 BYTE   VOL   34*Expedition_mvl/mxv
 BYTE   W01
 BYTE   VOL   35*Expedition_mvl/mxv
 BYTE   W01
//  #06 //008   ----------------------------------------
 BYTE   VOL   36*Expedition_mvl/mxv
 BYTE   W01
 BYTE   VOL   16*Expedition_mvl/mxv
 BYTE   N80  Ds3  v092
 BYTE   W01
 BYTE   VOL   17*Expedition_mvl/mxv
 BYTE   W01
 BYTE   VOL   18*Expedition_mvl/mxv
 BYTE   W01
 BYTE   VOL   19*Expedition_mvl/mxv
 BYTE   W01
 BYTE   VOL   20*Expedition_mvl/mxv
 BYTE   W01
 BYTE   VOL   21*Expedition_mvl/mxv
 BYTE   W01
 BYTE   VOL   22*Expedition_mvl/mxv
 BYTE   W01
 BYTE   VOL   22*Expedition_mvl/mxv
 BYTE   W01
 BYTE   VOL   23*Expedition_mvl/mxv
 BYTE   W01
 BYTE   VOL   24*Expedition_mvl/mxv
 BYTE   W01
 BYTE   VOL   25*Expedition_mvl/mxv
 BYTE   W01
 BYTE   VOL   26*Expedition_mvl/mxv
 BYTE   W01
 BYTE   VOL   26*Expedition_mvl/mxv
 BYTE   W01
 BYTE   VOL   27*Expedition_mvl/mxv
 BYTE   W01
 BYTE   VOL   28*Expedition_mvl/mxv
 BYTE   W01
 BYTE   VOL   29*Expedition_mvl/mxv
 BYTE   W01
 BYTE   VOL   30*Expedition_mvl/mxv
 BYTE   W01
 BYTE   VOL   31*Expedition_mvl/mxv
 BYTE   W01
 BYTE   VOL   32*Expedition_mvl/mxv
 BYTE   W01
 BYTE   VOL   32*Expedition_mvl/mxv
 BYTE   W01
 BYTE   VOL   33*Expedition_mvl/mxv
 BYTE   W01
 BYTE   VOL   34*Expedition_mvl/mxv
 BYTE   W01
 BYTE   VOL   35*Expedition_mvl/mxv
 BYTE   W01
 BYTE   VOL   36*Expedition_mvl/mxv
 BYTE   W64
 BYTE   N02  Gs2
 BYTE   W03
 BYTE   As2  v096
 BYTE   W03
 BYTE   Cn3
 BYTE   W02
//  #06 //009   ----------------------------------------
 BYTE   W01
 BYTE   VOICE   52
 BYTE   VOL   28*Expedition_mvl/mxv
 BYTE   PAN   c_v+34
 BYTE   N17  Ds3  v104
 BYTE   W18
 BYTE   N02  Cn3
 BYTE   W03
 BYTE   N05  Fn3
 BYTE   W06
 BYTE   Ds3
 BYTE   W06
 BYTE   N02  Cs3
 BYTE   W03
 BYTE   N05  Cn3
 BYTE   W06
 BYTE   N02  Cs3
 BYTE   W03
 BYTE   N44  Ds3
 BYTE   W44
 BYTE   W01
 BYTE   N02  Cn3
 BYTE   W03
 BYTE   Dn3
 BYTE   W02
//  #06 //010   ----------------------------------------
 BYTE   W01
 BYTE   N17  Ds3
 BYTE   W18
 BYTE   N02  Cn3
 BYTE   W03
 BYTE   N05  Fn3
 BYTE   W06
 BYTE   Ds3
 BYTE   W06
 BYTE   N02  Cs3
 BYTE   W03
 BYTE   N05  Cn3
 BYTE   W06
 BYTE   N02  Cs3
 BYTE   W03
 BYTE   N44  Ds3
 BYTE   W44
 BYTE   W01
 BYTE   N02  Cn3
 BYTE   W03
 BYTE   Dn3
 BYTE   W02
//  #06 //011   ----------------------------------------
 BYTE   W01
 BYTE   N11  Fn3
 BYTE   W12
 BYTE   Ds3
 BYTE   W12
 BYTE   Gn3
 BYTE   W12
 BYTE   Fn3
 BYTE   W13
 BYTE   VOICE   52
 BYTE   VOL   26*Expedition_mvl/mxv
 BYTE   PAN   c_v+0
 BYTE   VOL   10*Expedition_mvl/mxv
 BYTE   N92  Cs3
 BYTE   W01
 BYTE   VOL   11*Expedition_mvl/mxv
 BYTE   W01
 BYTE   VOL   12*Expedition_mvl/mxv
 BYTE   W01
 BYTE   VOL   13*Expedition_mvl/mxv
 BYTE   W01
 BYTE   VOL   14*Expedition_mvl/mxv
 BYTE   W01
 BYTE   VOL   15*Expedition_mvl/mxv
 BYTE   W01
 BYTE   VOL   16*Expedition_mvl/mxv
 BYTE   W01
 BYTE   VOL   16*Expedition_mvl/mxv
 BYTE   W01
 BYTE   VOL   17*Expedition_mvl/mxv
 BYTE   W01
 BYTE   VOL   18*Expedition_mvl/mxv
 BYTE   W01
 BYTE   VOL   19*Expedition_mvl/mxv
 BYTE   W01
 BYTE   VOL   20*Expedition_mvl/mxv
 BYTE   W01
 BYTE   VOL   20*Expedition_mvl/mxv
 BYTE   W01
 BYTE   VOL   21*Expedition_mvl/mxv
 BYTE   W01
 BYTE   VOL   22*Expedition_mvl/mxv
 BYTE   W01
 BYTE   VOL   23*Expedition_mvl/mxv
 BYTE   W01
 BYTE   VOL   24*Expedition_mvl/mxv
 BYTE   W01
 BYTE   VOL   25*Expedition_mvl/mxv
 BYTE   W01
 BYTE   VOL   26*Expedition_mvl/mxv
 BYTE   W01
 BYTE   VOL   26*Expedition_mvl/mxv
 BYTE   W01
 BYTE   VOL   27*Expedition_mvl/mxv
 BYTE   W01
 BYTE   VOL   28*Expedition_mvl/mxv
 BYTE   W01
 BYTE   VOL   29*Expedition_mvl/mxv
 BYTE   W01
 BYTE   VOL   30*Expedition_mvl/mxv
 BYTE   W23
//  #06 //012   ----------------------------------------
 BYTE   W48
 BYTE   W02
 BYTE   VOICE   10
 BYTE   VOL   14*Expedition_mvl/mxv
 BYTE   PAN   c_v-34
 BYTE   PAN   c_v-34
 BYTE   N02  Cn4  v092
 BYTE   W03
 BYTE   Gs4
 BYTE   W03
 BYTE   Fn4
 BYTE   W03
 BYTE   PAN   c_v+34
 BYTE   N02  Cn4
 BYTE   W03
 BYTE   Gs4
 BYTE   W03
 BYTE   Fn4
 BYTE   W03
 BYTE   PAN   c_v-34
 BYTE   N02  Cn4
 BYTE   W03
 BYTE   Gs4
 BYTE   W03
 BYTE   Fn4
 BYTE   W03
 BYTE   PAN   c_v+34
 BYTE   N02  Cn4
 BYTE   W03
 BYTE   Gs4
 BYTE   W03
 BYTE   Fn4
 BYTE   W03
 BYTE   PAN   c_v-34
 BYTE   N02  Cn4
 BYTE   W03
 BYTE   Gs4
 BYTE   W03
 BYTE   Fn4
 BYTE   W03
 BYTE   Gs4
 BYTE   W01
//  #06 //013   ----------------------------------------
 BYTE   W02
 BYTE   PAN   c_v-34
 BYTE   N02  Cn4
 BYTE   W03
 BYTE   Gs4
 BYTE   W03
 BYTE   Fn4
 BYTE   W03
 BYTE   PAN   c_v+34
 BYTE   N02  Cn4
 BYTE   W03
 BYTE   Gs4
 BYTE   W03
 BYTE   Fn4
 BYTE   W03
 BYTE   PAN   c_v-34
 BYTE   N02  Cn4
 BYTE   W03
 BYTE   Gs4
 BYTE   W03
 BYTE   Fn4
 BYTE   W03
 BYTE   PAN   c_v+34
 BYTE   N02  Cn4
 BYTE   W03
 BYTE   Gs4
 BYTE   W03
 BYTE   Fn4
 BYTE   W03
 BYTE   PAN   c_v-34
 BYTE   N02  Cn4
 BYTE   W03
 BYTE   Gs4
 BYTE   W03
 BYTE   Fn4
 BYTE   W03
 BYTE   Gs4
 BYTE   W03
 BYTE   GoTo
  POIN2 Label_0156BEC2
 BYTE   FINE

//**************** Track 7 (Midi-Chn.6) ****************//

Expedition_007:
//  #07 //000   ----------------------------------------
 BYTE   VOL   41*Expedition_mvl/mxv
 BYTE   KEYSH   Expedition_key+0
Label_0156C48C:
 BYTE   VOICE   124
 BYTE   N05  Cs1  v124
 BYTE   N16  Cs2  v127
 BYTE   W06
 BYTE   N02  Cs1  v124
 BYTE   W03
 BYTE   N02
 BYTE   W03
 BYTE   N05  An1  v092
 BYTE   W06
 BYTE   N02  An1  v076
 BYTE   W03
 BYTE   N02
 BYTE   W03
 BYTE   N05  Cs1  v124
 BYTE   W06
 BYTE   N02
 BYTE   W03
 BYTE   An1  v076
 BYTE   W06
 BYTE   An1  v092
 BYTE   W03
 BYTE   An1  v076
 BYTE   W03
 BYTE   N02
 BYTE   W03
 BYTE   N05  Cs1  v124
 BYTE   W06
 BYTE   N02
 BYTE   W03
 BYTE   N02
 BYTE   W03
 BYTE   N05  An1  v092
 BYTE   W06
 BYTE   N02  An1  v076
 BYTE   W03
 BYTE   N02
 BYTE   W06
 BYTE   N08  Dn1  v104
 BYTE   W06
 BYTE   N02  Cs1  v124
 BYTE   W15
//  #07 //001   ----------------------------------------
 BYTE   N05
 BYTE   N10  Cs2  v127
 BYTE   W06
 BYTE   N02  Cs1  v124
 BYTE   W03
 BYTE   N02
 BYTE   W03
 BYTE   N05  Dn1  v104
 BYTE   N05  An1  v092
 BYTE   W06
 BYTE   N02  An1  v076
 BYTE   W03
 BYTE   N02
 BYTE   W03
 BYTE   Cs1  v124
 BYTE   W03
 BYTE   N02
 BYTE   W03
 BYTE   N02
 BYTE   W03
 BYTE   An1  v092
 BYTE   W03
 BYTE   N05  Dn1  v104
 BYTE   W03
 BYTE   N02  An1  v076
 BYTE   W03
 BYTE   Cs1  v124
 BYTE   W03
 BYTE   An1  v076
 BYTE   W03
 BYTE   N05  Cs1  v124
 BYTE   W06
 BYTE   N02
 BYTE   W03
 BYTE   N02
 BYTE   W03
 BYTE   N05  Dn1  v104
 BYTE   N05  An1  v092
 BYTE   W06
 BYTE   N02  An1  v076
 BYTE   W03
 BYTE   N02
 BYTE   W03
 BYTE   Cs1  v124
 BYTE   W03
 BYTE   N02
 BYTE   W03
 BYTE   N02
 BYTE   W03
 BYTE   An1  v092
 BYTE   W03
 BYTE   N05  Dn1  v104
 BYTE   W03
 BYTE   N02  An1  v076
 BYTE   W03
 BYTE   Cs1  v124
 BYTE   W03
 BYTE   An1  v076
 BYTE   W03
//  #07 //002   ----------------------------------------
 BYTE   N05  Cs1  v124
 BYTE   W06
 BYTE   N02
 BYTE   W03
 BYTE   N02
 BYTE   W03
 BYTE   N05  Dn1  v104
 BYTE   N05  An1  v092
 BYTE   W06
 BYTE   N02  An1  v076
 BYTE   W03
 BYTE   N02
 BYTE   W03
 BYTE   Cs1  v124
 BYTE   W03
 BYTE   N02
 BYTE   W03
 BYTE   N02
 BYTE   W03
 BYTE   An1  v092
 BYTE   W03
 BYTE   N05  Dn1  v104
 BYTE   W03
 BYTE   N02  An1  v076
 BYTE   W03
 BYTE   Cs1  v124
 BYTE   W03
 BYTE   An1  v076
 BYTE   W03
 BYTE   N05  Cs1  v124
 BYTE   W06
 BYTE   N02
 BYTE   W03
 BYTE   N02
 BYTE   W03
 BYTE   N05  Dn1  v104
 BYTE   N05  An1  v092
 BYTE   W06
 BYTE   N02  An1  v076
 BYTE   W03
 BYTE   N02
 BYTE   W03
 BYTE   Cs1  v124
 BYTE   W03
 BYTE   N02
 BYTE   W03
 BYTE   N02
 BYTE   W03
 BYTE   An1  v092
 BYTE   W03
 BYTE   N05  Dn1  v104
 BYTE   W03
 BYTE   N02  An1  v076
 BYTE   W03
 BYTE   Cs1  v124
 BYTE   W03
 BYTE   Dn1  v104
 BYTE   N02  An1  v076
 BYTE   W03
//  #07 //003   ----------------------------------------
 BYTE   N05  Cs1  v124
 BYTE   N10  Cs2  v127
 BYTE   W06
 BYTE   N02  Cs1  v124
 BYTE   W03
 BYTE   N02
 BYTE   W03
 BYTE   N05  Dn1  v104
 BYTE   N05  An1  v092
 BYTE   W06
 BYTE   N02  An1  v076
 BYTE   W03
 BYTE   N02
 BYTE   W03
 BYTE   Cs1  v124
 BYTE   W03
 BYTE   N02
 BYTE   W03
 BYTE   N02
 BYTE   W03
 BYTE   An1  v092
 BYTE   W03
 BYTE   N05  Dn1  v104
 BYTE   W03
 BYTE   N02  An1  v076
 BYTE   W03
 BYTE   Cs1  v124
 BYTE   W03
 BYTE   An1  v076
 BYTE   W03
 BYTE   N05  Cs1  v124
 BYTE   N10  Cs2  v127
 BYTE   W06
 BYTE   N02  Cs1  v124
 BYTE   W03
 BYTE   N02
 BYTE   W03
 BYTE   N05  Dn1  v104
 BYTE   N05  An1  v092
 BYTE   W06
 BYTE   N02  An1  v076
 BYTE   W03
 BYTE   N02
 BYTE   W03
 BYTE   Cs1  v124
 BYTE   W03
 BYTE   N02
 BYTE   W03
 BYTE   N02
 BYTE   W03
 BYTE   An1  v092
 BYTE   W03
 BYTE   N05  Dn1  v104
 BYTE   W03
 BYTE   N02  An1  v076
 BYTE   W03
 BYTE   Cs1  v124
 BYTE   W03
 BYTE   An1  v076
 BYTE   W03
//  #07 //004   ----------------------------------------
 BYTE   N05  Cs1  v124
 BYTE   N10  Cs2  v127
 BYTE   W06
 BYTE   N02  Cs1  v124
 BYTE   W03
 BYTE   N02
 BYTE   W03
 BYTE   N05  Dn1  v104
 BYTE   N05  An1  v092
 BYTE   W06
 BYTE   N02  An1  v076
 BYTE   W03
 BYTE   N02
 BYTE   W03
 BYTE   Cs1  v124
 BYTE   W03
 BYTE   N02
 BYTE   W03
 BYTE   N02
 BYTE   W03
 BYTE   An1  v092
 BYTE   W03
 BYTE   N05  Dn1  v104
 BYTE   W03
 BYTE   N02  An1  v076
 BYTE   W03
 BYTE   Cs1  v124
 BYTE   W03
 BYTE   An1  v076
 BYTE   W03
 BYTE   N05  Cs1  v124
 BYTE   W06
 BYTE   N02
 BYTE   W03
 BYTE   N02
 BYTE   W03
 BYTE   N05  Dn1  v104
 BYTE   N05  An1  v092
 BYTE   W06
 BYTE   N02  An1  v076
 BYTE   W03
 BYTE   N02
 BYTE   W03
 BYTE   Cs1  v124
 BYTE   W03
 BYTE   N02
 BYTE   W03
 BYTE   N02
 BYTE   W03
 BYTE   An1  v092
 BYTE   W03
 BYTE   Dn1  v104
 BYTE   W03
 BYTE   N05
 BYTE   N02  An1  v076
 BYTE   W03
 BYTE   Cs1  v124
 BYTE   W03
 BYTE   Dn1  v104
 BYTE   N02  An1  v076
 BYTE   W03
//  #07 //005   ----------------------------------------
Label_0156C650:
 BYTE   W01
 BYTE   N05  Cs1  v124
 BYTE   N10  Cs2  v127
 BYTE   W06
 BYTE   N02  Cs1  v124
 BYTE   W03
 BYTE   N02
 BYTE   W03
 BYTE   N05  Dn1  v104
 BYTE   N05  An1  v092
 BYTE   W06
 BYTE   N02  An1  v076
 BYTE   W03
 BYTE   N02
 BYTE   W03
 BYTE   Cs1  v124
 BYTE   W03
 BYTE   N02
 BYTE   W03
 BYTE   N02
 BYTE   W03
 BYTE   An1  v092
 BYTE   W03
 BYTE   N05  Dn1  v104
 BYTE   W03
 BYTE   N02  An1  v076
 BYTE   W03
 BYTE   Cs1  v124
 BYTE   W03
 BYTE   An1  v076
 BYTE   W03
 BYTE   N05  Cs1  v124
 BYTE   W06
 BYTE   N02
 BYTE   W03
 BYTE   N02
 BYTE   W03
 BYTE   N05  Dn1  v104
 BYTE   N05  An1  v092
 BYTE   W06
 BYTE   N02  An1  v076
 BYTE   W03
 BYTE   N02
 BYTE   W03
 BYTE   Cs1  v124
 BYTE   W03
 BYTE   N02
 BYTE   W03
 BYTE   N02
 BYTE   W03
 BYTE   An1  v092
 BYTE   W03
 BYTE   N05  Dn1  v104
 BYTE   W03
 BYTE   N02  An1  v076
 BYTE   W03
 BYTE   Cs1  v124
 BYTE   W03
 BYTE   An1  v076
 BYTE   W02
 BYTE   PEND 
//  #07 //006   ----------------------------------------
 BYTE   W01
 BYTE   N05  Cs1  v124
 BYTE   W06
 BYTE   N02
 BYTE   W03
 BYTE   N02
 BYTE   W03
 BYTE   N05  Dn1  v104
 BYTE   N05  An1  v092
 BYTE   W06
 BYTE   N02  An1  v076
 BYTE   W03
 BYTE   N02
 BYTE   W03
 BYTE   Cs1  v124
 BYTE   W03
 BYTE   N02
 BYTE   W03
 BYTE   N02
 BYTE   W03
 BYTE   An1  v092
 BYTE   W03
 BYTE   N05  Dn1  v104
 BYTE   W03
 BYTE   N02  An1  v076
 BYTE   W03
 BYTE   Cs1  v124
 BYTE   W03
 BYTE   An1  v076
 BYTE   W03
 BYTE   N05  Cs1  v124
 BYTE   W06
 BYTE   N02
 BYTE   W03
 BYTE   N02
 BYTE   W03
 BYTE   N05  Dn1  v104
 BYTE   N05  An1  v092
 BYTE   W06
 BYTE   N02  An1  v076
 BYTE   W03
 BYTE   N02
 BYTE   W03
 BYTE   Cs1  v124
 BYTE   W03
 BYTE   N02
 BYTE   W03
 BYTE   N02
 BYTE   W03
 BYTE   An1  v092
 BYTE   W03
 BYTE   N05  Dn1  v104
 BYTE   W03
 BYTE   N02  An1  v076
 BYTE   W03
 BYTE   Cs1  v124
 BYTE   W03
 BYTE   Dn1  v104
 BYTE   N02  An1  v076
 BYTE   W02
//  #07 //007   ----------------------------------------
 BYTE   PATT
  POIN2 Label_0156C650
//  #07 //008   ----------------------------------------
 BYTE   W01
 BYTE   N05  Cs1  v124
 BYTE   W06
 BYTE   N02
 BYTE   W03
 BYTE   N02
 BYTE   W03
 BYTE   N05  Dn1  v104
 BYTE   N05  An1  v092
 BYTE   W06
 BYTE   N02  An1  v076
 BYTE   W03
 BYTE   N02
 BYTE   W03
 BYTE   Cs1  v124
 BYTE   W03
 BYTE   N02
 BYTE   W03
 BYTE   N02
 BYTE   W03
 BYTE   An1  v092
 BYTE   W03
 BYTE   N05  Dn1  v104
 BYTE   W03
 BYTE   N02  An1  v076
 BYTE   W03
 BYTE   Cs1  v124
 BYTE   W03
 BYTE   An1  v076
 BYTE   W03
 BYTE   N05  Cs1  v124
 BYTE   W06
 BYTE   N02
 BYTE   W03
 BYTE   N02
 BYTE   W03
 BYTE   N05  Dn1  v104
 BYTE   N05  Cs2  v127
 BYTE   W24
 BYTE   N02  Dn1  v092
 BYTE   W03
 BYTE   Dn1  v096
 BYTE   W03
 BYTE   Dn1  v104
 BYTE   W03
 BYTE   Dn1  v108
 BYTE   W02
//  #07 //009   ----------------------------------------
Label_0156C75E:
 BYTE   W01
 BYTE   N05  Cs1  v124
 BYTE   N10  Cs2  v127
 BYTE   W06
 BYTE   N02  Cs1  v124
 BYTE   W03
 BYTE   N02
 BYTE   W03
 BYTE   N05  Dn1  v104
 BYTE   W09
 BYTE   N02  Cs1  v124
 BYTE   W06
 BYTE   N08
 BYTE   W09
 BYTE   N05  Dn1  v104
 BYTE   W09
 BYTE   N02  Cs1  v124
 BYTE   W03
 BYTE   N05
 BYTE   W06
 BYTE   N02
 BYTE   W03
 BYTE   N02
 BYTE   W03
 BYTE   N05  Dn1  v104
 BYTE   W09
 BYTE   N02  Cs1  v124
 BYTE   W03
 BYTE   N02
 BYTE   W12
 BYTE   N08  Dn1  v104
 BYTE   W09
 BYTE   N02  Cs1  v124
 BYTE   W02
 BYTE   PEND 
//  #07 //010   ----------------------------------------
 BYTE   PATT
  POIN2 Label_0156C75E
//  #07 //011   ----------------------------------------
 BYTE   W01
 BYTE   N05  Cs1  v124
 BYTE   N10  Cs2  v127
 BYTE   W06
 BYTE   N02  Dn1  v104
 BYTE   W03
 BYTE   N02
 BYTE   W03
 BYTE   N05  Cs1  v124
 BYTE   N10  Cs2  v127
 BYTE   W12
 BYTE   Cs1  v124
 BYTE   N10  Cs2  v127
 BYTE   W12
 BYTE   N08  Dn1  v104
 BYTE   N10  Cs2  v127
 BYTE   W09
 BYTE   N02  Cs1  v124
 BYTE   W04
 BYTE   N05
 BYTE   N10  Cs2  v127
 BYTE   W06
 BYTE   N02  Cs1  v124
 BYTE   W03
 BYTE   N02
 BYTE   W03
 BYTE   N05  Dn1  v104
 BYTE   W09
 BYTE   N02  Cs1  v124
 BYTE   W03
 BYTE   N02
 BYTE   W12
 BYTE   N08  Dn1  v104
 BYTE   N10  Cs2  v127
 BYTE   W09
 BYTE   N02  Cs1  v124
 BYTE   W01
//  #07 //012   ----------------------------------------
 BYTE   W02
 BYTE   N05
 BYTE   N10  Cs2  v127
 BYTE   W06
 BYTE   N02  Cs1  v124
 BYTE   W03
 BYTE   N02
 BYTE   W03
 BYTE   N05  Dn1  v104
 BYTE   W09
 BYTE   N02  Cs1  v124
 BYTE   W03
 BYTE   N02
 BYTE   W09
 BYTE   Dn1  v092
 BYTE   W03
 BYTE   Dn1  v096
 BYTE   W03
 BYTE   Dn1  v104
 BYTE   W06
 BYTE   Cs1  v124
 BYTE   W03
 BYTE   N05
 BYTE   N10  Cs2  v127
 BYTE   W06
 BYTE   N05  An1  v076
 BYTE   W06
 BYTE   N02
 BYTE   W03
 BYTE   N05
 BYTE   W06
 BYTE   N02  Cs1  v124
 BYTE   W03
 BYTE   N08  An1  v076
 BYTE   W09
 BYTE   N02
 BYTE   W09
 BYTE   N02
 BYTE   W03
 BYTE   N02
 BYTE   W01
//  #07 //013   ----------------------------------------
 BYTE   W02
 BYTE   N05  Cs1  v124
 BYTE   N10  Cs2  v127
 BYTE   W06
 BYTE   N05  An1  v076
 BYTE   W06
 BYTE   N02
 BYTE   W03
 BYTE   N05
 BYTE   W06
 BYTE   N02  Cs1  v124
 BYTE   W03
 BYTE   N05  An1  v076
 BYTE   W12
 BYTE   Dn1  v104
 BYTE   W06
 BYTE   N02  An1  v076
 BYTE   W03
 BYTE   N02
 BYTE   W03
 BYTE   GoTo
  POIN2 Label_0156C48C
 BYTE   FINE

//******************************************************//
	ALIGN 4

Expedition:
	BYTE	7	// NumTrks
	BYTE	0	// NumBlks
	BYTE	Expedition_pri	// Priority
	BYTE	Expedition_rev	// Reverb.
    
	POIN2	Expedition_grp
    
	POIN2	Expedition_001
	POIN2	Expedition_002
	POIN2	Expedition_003
	POIN2	Expedition_004
	POIN2	Expedition_005
	POIN2	Expedition_006
	POIN2	Expedition_007

	
