//Event file generated from Sappy .s format.
	#include "MPlayDef.event"

	#define	FE4Victory_grp  voicegroup000
	#define	FE4Victory_pri  0
	#define	FE4Victory_rev  0
	#define	FE4Victory_mvl  127
	#define	FE4Victory_key  0
	#define	FE4Victory_tbs  1
	#define	FE4Victory_exg  0
	#define	FE4Victory_cmp  1

	// .rodata
	//	FE4Victory
	ALIGN 4


//**************** Track 1 (Midi-Chn.0) ****************//

FE4Victory_001:
// 000   ----------------------------------------
 BYTE   KEYSH   FE4Victory_key+0
 BYTE   TEMPO   150*FE4Victory_tbs/2
 BYTE   PAN   c_v+0
 BYTE   VOL   25*FE4Victory_mvl/mxv
 BYTE   MOD 0
 BYTE   CnM2  v000
 BYTE   BEND   c_v+0
 BYTE   W06
 BYTE   VOICE   60
 BYTE   PAN   c_v+0
 BYTE   VOL   50*FE4Victory_mvl/mxv
 BYTE   N07  Fn2  v127
 BYTE   W08
 BYTE   Gn2
 BYTE   W08
 BYTE   An2
 BYTE   W08
 BYTE   N23  Cn3
 BYTE   W24
 BYTE   N07  As2
 BYTE   W08
 BYTE   Cn3
 BYTE   W08
 BYTE   Dn3
 BYTE   W08
 BYTE   N23  Fn3
 BYTE   W18
// 001   ----------------------------------------
 BYTE   W06
 BYTE   N07  Cn3
 BYTE   W08
 BYTE   Fn3
 BYTE   W08
 BYTE   Gn3
 BYTE   W08
 BYTE   N68  Cn4
 BYTE   W66
// 002   ----------------------------------------
 BYTE   W06
 BYTE   N07  Cn3
 BYTE   W08
 BYTE   N07
 BYTE   W08
 BYTE   Dn3
 BYTE   W08
 BYTE   N44  Ds3
 BYTE   W48
 BYTE   N07
 BYTE   W08
 BYTE   N07
 BYTE   W08
 BYTE   Fn3
 BYTE   W02
// 003   ----------------------------------------
 BYTE   W06
 BYTE   N44  Gn3
 BYTE   W48
 BYTE   N07
 BYTE   W08
 BYTE   N07
 BYTE   W08
 BYTE   An3
 BYTE   W16
 BYTE   N07
 BYTE   W08
 BYTE   Bn3
 BYTE   W02
// 004   ----------------------------------------
 BYTE   W06
 BYTE   N92  Cn4
 BYTE   W90
// 005   ----------------------------------------
 BYTE   W96
// 006   ----------------------------------------
 BYTE   W06
 BYTE   VOICE   48
 BYTE   PAN   c_v+6
 BYTE   VOL   60*FE4Victory_mvl/mxv
 BYTE   W18
Label_0_55173C:
 BYTE   W06
 BYTE   N21  Gn4  v127
 BYTE   W24
 BYTE   Ds4
 BYTE   W24
 BYTE   As3
 BYTE   W18
// 007   ----------------------------------------
 BYTE   W06
 BYTE   An3
 BYTE   W24
 BYTE   Cn4
 BYTE   W24
 BYTE   Fn4
 BYTE   W24
 BYTE   An4
 BYTE   W18
// 008   ----------------------------------------
 BYTE   W30
 BYTE   Gn4
 BYTE   W24
 BYTE   Ds4
 BYTE   W24
 BYTE   As3
 BYTE   W18
// 009   ----------------------------------------
 BYTE   W06
 BYTE   An3
 BYTE   W24
 BYTE   Cn4
 BYTE   W24
 BYTE   Fn4
 BYTE   W24
 BYTE   Cn4
 BYTE   W18
// 010   ----------------------------------------
 BYTE   W06
 BYTE   As3
 BYTE   W24
 BYTE   Cn4
 BYTE   W24
 BYTE   Dn4
 BYTE   W24
 BYTE   As3
 BYTE   W18
// 011   ----------------------------------------
 BYTE   W06
 BYTE   Fn4
 BYTE   W24
 BYTE   Ds4
 BYTE   W24
 BYTE   Cs4
 BYTE   W24
 BYTE   Cn4
 BYTE   W18
// 012   ----------------------------------------
 BYTE   W06
 BYTE   N06  An3
 BYTE   W24
 BYTE   Cn4
 BYTE   W24
 BYTE   As3
 BYTE   W24
 BYTE   Cn4
 BYTE   W12
 BYTE   An3
 BYTE   W06
// 013   ----------------------------------------
 BYTE   W18
 BYTE   Cn4
 BYTE   W24
 BYTE   As3
 BYTE   W24
 BYTE   Cn4
 BYTE   W12
 BYTE   An3
 BYTE   W18
// 014   ----------------------------------------
 BYTE   W06
 BYTE   Cn4
 BYTE   W24
 BYTE   As3
 BYTE   W24
 BYTE   Cn4
 BYTE   W12
 BYTE   An3
 BYTE   W24
 BYTE   Cn4
 BYTE   W06
// 015   ----------------------------------------
 BYTE   W18
 BYTE   As3
 BYTE   W24
 BYTE   Cn4
 BYTE   W12
 BYTE   Gn3
 BYTE   W24
 BYTE   Cn4
 BYTE   W18
// 016   ----------------------------------------
 BYTE   W06
 BYTE   As3
 BYTE   W24
 BYTE   Cn4
 BYTE   W12
 BYTE   Gn3
 BYTE   W24
 BYTE   Cn4
 BYTE   W24
 BYTE   As3
 BYTE   W06
// 017   ----------------------------------------
 BYTE   W18
 BYTE   Cn4
 BYTE   W12
 BYTE   Gn3
 BYTE   W24
 BYTE   Cn4
 BYTE   W24
 BYTE   As3
 BYTE   W18
// 018   ----------------------------------------
 BYTE   W06
 BYTE   Cn4
 BYTE   W12
 BYTE   Gn3
 BYTE   W24
 BYTE   Cn4
 BYTE   W24
 BYTE   As3
 BYTE   W24
 BYTE   Cn4
 BYTE   W06
// 019   ----------------------------------------
 BYTE   W06
 BYTE   N23
 BYTE   W24
 BYTE   VOICE   48
 BYTE   PAN   c_v+6
 BYTE   VOL   60*FE4Victory_mvl/mxv
 BYTE   W18
 BYTE   GoTo
  POIN2 Label_0_55173C
// 020   ----------------------------------------
 BYTE   W05
 BYTE   FINE

//**************** Track 2 (Midi-Chn.1) ****************//

FE4Victory_002:
// 000   ----------------------------------------
 BYTE   KEYSH   FE4Victory_key+0
 BYTE   PAN   c_v+0
 BYTE   VOL   15*FE4Victory_mvl/mxv
 BYTE   MOD 0
 BYTE   CnM2  v000
 BYTE   BEND   c_v+0
 BYTE   W06
 BYTE   VOICE   48
 BYTE   PAN   c_v+6
 BYTE   VOL   40*FE4Victory_mvl/mxv
 BYTE   N04  An3  v127
 BYTE   W06
 BYTE   Fn3
 BYTE   W06
 BYTE   Cn3
 BYTE   W06
 BYTE   An2
 BYTE   W06
 BYTE   An3
 BYTE   W06
 BYTE   Fn3
 BYTE   W06
 BYTE   Cn3
 BYTE   W06
 BYTE   An2
 BYTE   W06
 BYTE   As3
 BYTE   W06
 BYTE   Gn3
 BYTE   W06
 BYTE   Ds3
 BYTE   W06
 BYTE   Cn3
 BYTE   W06
 BYTE   As3
 BYTE   W06
 BYTE   Gn3
 BYTE   W06
 BYTE   Ds3
 BYTE   W06
// 001   ----------------------------------------
 BYTE   Cn3
 BYTE   W06
 BYTE   An3
 BYTE   W06
 BYTE   Fn3
 BYTE   W06
 BYTE   Cn3
 BYTE   W06
 BYTE   An2
 BYTE   W06
 BYTE   An3
 BYTE   W06
 BYTE   Fn3
 BYTE   W06
 BYTE   Cn3
 BYTE   W06
 BYTE   An2
 BYTE   W06
 BYTE   As3
 BYTE   W06
 BYTE   Gn3
 BYTE   W06
 BYTE   Ds3
 BYTE   W06
 BYTE   Cn3
 BYTE   W06
 BYTE   As3
 BYTE   W06
 BYTE   Gn3
 BYTE   W06
 BYTE   Ds3
 BYTE   W06
// 002   ----------------------------------------
 BYTE   Cn3
 BYTE   W06
 BYTE   Cn4
 BYTE   W06
 BYTE   Gs3
 BYTE   W06
 BYTE   Fn3
 BYTE   W06
 BYTE   Ds3
 BYTE   W06
 BYTE   Cn4
 BYTE   W06
 BYTE   Gs3
 BYTE   W06
 BYTE   Fn3
 BYTE   W06
 BYTE   Ds3
 BYTE   W06
 BYTE   Dn4
 BYTE   W06
 BYTE   As3
 BYTE   W06
 BYTE   Gn3
 BYTE   W06
 BYTE   Ds3
 BYTE   W06
 BYTE   Dn4
 BYTE   W06
 BYTE   As3
 BYTE   W06
 BYTE   Gn3
 BYTE   W06
// 003   ----------------------------------------
 BYTE   Ds3
 BYTE   W06
 BYTE   Cn4
 BYTE   W06
 BYTE   Gs3
 BYTE   W06
 BYTE   Fn3
 BYTE   W06
 BYTE   Ds3
 BYTE   W06
 BYTE   Cn4
 BYTE   W06
 BYTE   Gs3
 BYTE   W06
 BYTE   Fn3
 BYTE   W06
 BYTE   Ds3
 BYTE   W06
 BYTE   Dn4
 BYTE   W06
 BYTE   As3
 BYTE   W06
 BYTE   Gn3
 BYTE   W06
 BYTE   Ds3
 BYTE   W06
 BYTE   Dn4
 BYTE   W06
 BYTE   As3
 BYTE   W06
 BYTE   Gn3
 BYTE   W06
// 004   ----------------------------------------
 BYTE   Ds3
 BYTE   W06
 BYTE   Fn4
 BYTE   W06
 BYTE   Dn4
 BYTE   W06
 BYTE   As3
 BYTE   W06
 BYTE   Gn3
 BYTE   W06
 BYTE   Fn4
 BYTE   W06
 BYTE   Dn4
 BYTE   W06
 BYTE   As3
 BYTE   W06
 BYTE   Gn3
 BYTE   W06
 BYTE   Fn4
 BYTE   W06
 BYTE   Dn4
 BYTE   W06
 BYTE   As3
 BYTE   W06
 BYTE   Gn3
 BYTE   W06
 BYTE   Fn4
 BYTE   W06
 BYTE   Dn4
 BYTE   W06
 BYTE   As3
 BYTE   W06
// 005   ----------------------------------------
 BYTE   Gn3
 BYTE   W06
 BYTE   Fn4
 BYTE   W06
 BYTE   Dn4
 BYTE   W06
 BYTE   As3
 BYTE   W06
 BYTE   Gn3
 BYTE   W06
 BYTE   Fn4
 BYTE   W06
 BYTE   Dn4
 BYTE   W06
 BYTE   As3
 BYTE   W06
 BYTE   Gn3
 BYTE   W06
 BYTE   Fn4
 BYTE   W06
 BYTE   Dn4
 BYTE   W06
 BYTE   As3
 BYTE   W06
 BYTE   Gn3
 BYTE   W06
 BYTE   Fn4
 BYTE   W06
 BYTE   Dn4
 BYTE   W06
 BYTE   As3
 BYTE   W06
// 006   ----------------------------------------
 BYTE   Gn3
 BYTE   W06
 BYTE   VOICE   48
 BYTE   PAN   c_v-14
 BYTE   VOL   50*FE4Victory_mvl/mxv
 BYTE   W18
Label_1_55281F:
 BYTE   W06
 BYTE   N21  As3  v127
 BYTE   W24
 BYTE   N21
 BYTE   W24
 BYTE   Gn3
 BYTE   W18
// 007   ----------------------------------------
 BYTE   W06
 BYTE   Fn3
 BYTE   W24
 BYTE   An3
 BYTE   W24
 BYTE   Cn4
 BYTE   W24
 BYTE   Fn4
 BYTE   W18
// 008   ----------------------------------------
 BYTE   W30
 BYTE   As3
 BYTE   W24
 BYTE   N21
 BYTE   W24
 BYTE   Gn3
 BYTE   W18
// 009   ----------------------------------------
 BYTE   W06
 BYTE   Fn3
 BYTE   W24
 BYTE   An3
 BYTE   W24
 BYTE   Cn4
 BYTE   W24
 BYTE   An3
 BYTE   W18
// 010   ----------------------------------------
 BYTE   W06
 BYTE   Fn3
 BYTE   W24
 BYTE   As3
 BYTE   W24
 BYTE   N21
 BYTE   W24
 BYTE   Fn3
 BYTE   W18
// 011   ----------------------------------------
 BYTE   W06
 BYTE   As3
 BYTE   W24
 BYTE   N21
 BYTE   W24
 BYTE   N21
 BYTE   W24
 BYTE   N21
 BYTE   W18
// 012   ----------------------------------------
 BYTE   W06
 BYTE   N06  Fn3
 BYTE   W24
 BYTE   An3
 BYTE   W24
 BYTE   Gn3
 BYTE   W24
 BYTE   An3
 BYTE   W12
 BYTE   Fn3
 BYTE   W06
// 013   ----------------------------------------
 BYTE   W18
 BYTE   An3
 BYTE   W24
 BYTE   Gn3
 BYTE   W24
 BYTE   An3
 BYTE   W12
 BYTE   Fn3
 BYTE   W18
// 014   ----------------------------------------
 BYTE   W06
 BYTE   An3
 BYTE   W24
 BYTE   Gn3
 BYTE   W24
 BYTE   An3
 BYTE   W12
 BYTE   Fn3
 BYTE   W24
 BYTE   An3
 BYTE   W06
// 015   ----------------------------------------
 BYTE   W18
 BYTE   Gn3
 BYTE   W24
 BYTE   An3
 BYTE   W12
 BYTE   En3
 BYTE   W24
 BYTE   Gn3
 BYTE   W18
// 016   ----------------------------------------
 BYTE   W06
 BYTE   N06
 BYTE   W24
 BYTE   N06
 BYTE   W12
 BYTE   En3
 BYTE   W24
 BYTE   Gn3
 BYTE   W24
 BYTE   N06
 BYTE   W06
// 017   ----------------------------------------
 BYTE   W18
 BYTE   N06
 BYTE   W12
 BYTE   En3
 BYTE   W24
 BYTE   Gn3
 BYTE   W24
 BYTE   N06
 BYTE   W18
// 018   ----------------------------------------
 BYTE   W06
 BYTE   N06
 BYTE   W12
 BYTE   En3
 BYTE   W24
 BYTE   Gn3
 BYTE   W24
 BYTE   N06
 BYTE   W24
 BYTE   N06
 BYTE   W06
// 019   ----------------------------------------
 BYTE   W06
 BYTE   N23
 BYTE   W24
 BYTE   VOICE   48
 BYTE   PAN   c_v-14
 BYTE   VOL   50*FE4Victory_mvl/mxv
 BYTE   W18
 BYTE   GoTo
  POIN2 Label_1_55281F
// 020   ----------------------------------------
 BYTE   W05
 BYTE   FINE

//**************** Track 3 (Midi-Chn.2) ****************//

FE4Victory_003:
// 000   ----------------------------------------
 BYTE   KEYSH   FE4Victory_key+0
 BYTE   PAN   c_v+0
 BYTE   VOL   15*FE4Victory_mvl/mxv
 BYTE   MOD 0
 BYTE   CnM2  v000
 BYTE   BEND   c_v+0
 BYTE   W06
 BYTE   VOICE   60
 BYTE   PAN   c_v-24
 BYTE   VOL   25*FE4Victory_mvl/mxv
 BYTE   N04  An3  v127
 BYTE   W06
 BYTE   Fn3
 BYTE   W06
 BYTE   Cn3
 BYTE   W06
 BYTE   An2
 BYTE   W06
 BYTE   An3
 BYTE   W06
 BYTE   Fn3
 BYTE   W06
 BYTE   Cn3
 BYTE   W06
 BYTE   An2
 BYTE   W06
 BYTE   As3
 BYTE   W06
 BYTE   Gn3
 BYTE   W06
 BYTE   Ds3
 BYTE   W06
 BYTE   Cn3
 BYTE   W06
 BYTE   As3
 BYTE   W06
 BYTE   Gn3
 BYTE   W06
 BYTE   Ds3
 BYTE   W06
// 001   ----------------------------------------
 BYTE   Cn3
 BYTE   W06
 BYTE   An3
 BYTE   W06
 BYTE   Fn3
 BYTE   W06
 BYTE   Cn3
 BYTE   W06
 BYTE   An2
 BYTE   W06
 BYTE   An3
 BYTE   W06
 BYTE   Fn3
 BYTE   W06
 BYTE   Cn3
 BYTE   W06
 BYTE   An2
 BYTE   W06
 BYTE   As3
 BYTE   W06
 BYTE   Gn3
 BYTE   W06
 BYTE   Ds3
 BYTE   W06
 BYTE   Cn3
 BYTE   W06
 BYTE   As3
 BYTE   W06
 BYTE   Gn3
 BYTE   W06
 BYTE   Ds3
 BYTE   W06
// 002   ----------------------------------------
 BYTE   Cn3
 BYTE   W06
 BYTE   Cn4
 BYTE   W06
 BYTE   Gs3
 BYTE   W06
 BYTE   Fn3
 BYTE   W06
 BYTE   Ds3
 BYTE   W06
 BYTE   Cn4
 BYTE   W06
 BYTE   Gs3
 BYTE   W06
 BYTE   Fn3
 BYTE   W06
 BYTE   Ds3
 BYTE   W06
 BYTE   Dn4
 BYTE   W06
 BYTE   As3
 BYTE   W06
 BYTE   Gn3
 BYTE   W06
 BYTE   Ds3
 BYTE   W06
 BYTE   Dn4
 BYTE   W06
 BYTE   As3
 BYTE   W06
 BYTE   Gn3
 BYTE   W06
// 003   ----------------------------------------
 BYTE   Ds3
 BYTE   W06
 BYTE   Cn4
 BYTE   W06
 BYTE   Gs3
 BYTE   W06
 BYTE   Fn3
 BYTE   W06
 BYTE   Ds3
 BYTE   W06
 BYTE   Cn4
 BYTE   W06
 BYTE   Gs3
 BYTE   W06
 BYTE   Fn3
 BYTE   W06
 BYTE   Ds3
 BYTE   W06
 BYTE   Dn4
 BYTE   W06
 BYTE   As3
 BYTE   W06
 BYTE   Gn3
 BYTE   W06
 BYTE   Ds3
 BYTE   W06
 BYTE   Dn4
 BYTE   W06
 BYTE   As3
 BYTE   W06
 BYTE   Gn3
 BYTE   W06
// 004   ----------------------------------------
 BYTE   Ds3
 BYTE   W06
 BYTE   Fn4
 BYTE   W06
 BYTE   Dn4
 BYTE   W06
 BYTE   As3
 BYTE   W06
 BYTE   Gn3
 BYTE   W06
 BYTE   Fn4
 BYTE   W06
 BYTE   Dn4
 BYTE   W06
 BYTE   As3
 BYTE   W06
 BYTE   Gn3
 BYTE   W06
 BYTE   Fn4
 BYTE   W06
 BYTE   Dn4
 BYTE   W06
 BYTE   As3
 BYTE   W06
 BYTE   Gn3
 BYTE   W06
 BYTE   Fn4
 BYTE   W06
 BYTE   Dn4
 BYTE   W06
 BYTE   As3
 BYTE   W06
// 005   ----------------------------------------
 BYTE   Gn3
 BYTE   W06
 BYTE   Fn4
 BYTE   W06
 BYTE   Dn4
 BYTE   W06
 BYTE   As3
 BYTE   W06
 BYTE   Gn3
 BYTE   W06
 BYTE   Fn4
 BYTE   W06
 BYTE   Dn4
 BYTE   W06
 BYTE   As3
 BYTE   W06
 BYTE   Gn3
 BYTE   W06
 BYTE   Fn4
 BYTE   W06
 BYTE   Dn4
 BYTE   W06
 BYTE   As3
 BYTE   W06
 BYTE   Gn3
 BYTE   W06
 BYTE   Fn4
 BYTE   W06
 BYTE   Dn4
 BYTE   W06
 BYTE   As3
 BYTE   W06
// 006   ----------------------------------------
 BYTE   Gn3
 BYTE   W06
 BYTE   VOICE   60
 BYTE   PAN   c_v-44
 BYTE   VOL   30*FE4Victory_mvl/mxv
 BYTE   N05  Gn4
 BYTE   W06
 BYTE   Ds4
 BYTE   W06
 BYTE   As3
 BYTE   W06
Label_2_551ED3:
 BYTE   N05  Gn3  v127
 BYTE   W06
 BYTE   Ds3
 BYTE   W06
 BYTE   Gn3
 BYTE   W06
 BYTE   As3
 BYTE   W06
 BYTE   Ds4
 BYTE   W06
 BYTE   Gn4
 BYTE   W06
 BYTE   Ds4
 BYTE   W06
 BYTE   As3
 BYTE   W06
 BYTE   Gn3
 BYTE   W06
 BYTE   Ds3
 BYTE   W06
 BYTE   Gn3
 BYTE   W06
 BYTE   As3
 BYTE   W06
// 007   ----------------------------------------
 BYTE   Ds4
 BYTE   W06
 BYTE   Fn4
 BYTE   W06
 BYTE   Cn4
 BYTE   W06
 BYTE   N05
 BYTE   W06
 BYTE   An3
 BYTE   W06
 BYTE   Fn3
 BYTE   W06
 BYTE   N05
 BYTE   W06
 BYTE   An3
 BYTE   W06
 BYTE   N05
 BYTE   W06
 BYTE   Fn4
 BYTE   W06
 BYTE   Cn4
 BYTE   W06
 BYTE   N05
 BYTE   W06
 BYTE   An3
 BYTE   W06
 BYTE   Fn3
 BYTE   W06
 BYTE   N05
 BYTE   W06
 BYTE   An3
 BYTE   W06
// 008   ----------------------------------------
 BYTE   N05
 BYTE   W06
 BYTE   Gn4
 BYTE   W06
 BYTE   Ds4
 BYTE   W06
 BYTE   As3
 BYTE   W06
 BYTE   Gn3
 BYTE   W06
 BYTE   Ds3
 BYTE   W06
 BYTE   Gn3
 BYTE   W06
 BYTE   As3
 BYTE   W06
 BYTE   Ds4
 BYTE   W06
 BYTE   Gn4
 BYTE   W06
 BYTE   Ds4
 BYTE   W06
 BYTE   As3
 BYTE   W06
 BYTE   Gn3
 BYTE   W06
 BYTE   Ds3
 BYTE   W06
 BYTE   Gn3
 BYTE   W06
 BYTE   As3
 BYTE   W06
// 009   ----------------------------------------
 BYTE   Ds4
 BYTE   W06
 BYTE   An4
 BYTE   W06
 BYTE   Fn4
 BYTE   W06
 BYTE   Cn4
 BYTE   W06
 BYTE   An3
 BYTE   W06
 BYTE   Fn3
 BYTE   W06
 BYTE   An3
 BYTE   W06
 BYTE   Cn4
 BYTE   W06
 BYTE   Fn4
 BYTE   W06
 BYTE   An4
 BYTE   W06
 BYTE   Fn4
 BYTE   W06
 BYTE   Cn4
 BYTE   W06
 BYTE   An3
 BYTE   W06
 BYTE   Fn3
 BYTE   W06
 BYTE   An3
 BYTE   W06
 BYTE   Cn4
 BYTE   W06
// 010   ----------------------------------------
 BYTE   Fn4
 BYTE   W06
 BYTE   As2
 BYTE   W06
 BYTE   Cn3
 BYTE   W06
 BYTE   Ds3
 BYTE   W06
 BYTE   Fn3
 BYTE   W06
 BYTE   N68  As3
 BYTE   W66
// 011   ----------------------------------------
 BYTE   W06
 BYTE   N05  As2
 BYTE   W06
 BYTE   Cn3
 BYTE   W06
 BYTE   Ds3
 BYTE   W06
 BYTE   Fn3
 BYTE   W06
 BYTE   N68  As3
 BYTE   W66
// 012   ----------------------------------------
 BYTE   W06
 BYTE   TIE  Cn3
 BYTE   W90
// 013   ----------------------------------------
 BYTE   W64
 BYTE   W01
 BYTE   EOT
 BYTE   W01
 BYTE   N01
 BYTE   W02
 BYTE   Dn3
 BYTE   W02
 BYTE   Ds3
 BYTE   W02
 BYTE   Fn3
 BYTE   W02
 BYTE   Gs3
 BYTE   W02
 BYTE   As3
 BYTE   W02
 BYTE   TIE  Cn4
 BYTE   W18
// 014   ----------------------------------------
 BYTE   W96
// 015   ----------------------------------------
 BYTE   W40
 BYTE   W01
 BYTE   EOT
 BYTE   W01
 BYTE   N03
 BYTE   W04
 BYTE   As3
 BYTE   W04
 BYTE   An3
 BYTE   W04
 BYTE   TIE  Gn3
 BYTE   W42
// 016   ----------------------------------------
 BYTE   W96
// 017   ----------------------------------------
 BYTE   W17
 BYTE   EOT
 BYTE   W01
 BYTE   N03
 BYTE   W04
 BYTE   Cn4
 BYTE   W04
 BYTE   Dn4
 BYTE   W04
 BYTE   TIE  En4
 BYTE   W66
// 018   ----------------------------------------
 BYTE   W96
// 019   ----------------------------------------
 BYTE   W05
 BYTE   EOT
 BYTE   W01
 BYTE   VOICE   48
 BYTE   VOL   50*FE4Victory_mvl/mxv
 BYTE   N23  Gn3
 BYTE   W24
 BYTE   VOICE   60
 BYTE   PAN   c_v-44
 BYTE   VOL   30*FE4Victory_mvl/mxv
 BYTE   N05  Gn4
 BYTE   W06
 BYTE   Ds4
 BYTE   W06
 BYTE   As3
 BYTE   W06
 BYTE   GoTo
  POIN2 Label_2_551ED3
// 020   ----------------------------------------
 BYTE   N05  Gn3  v127
 BYTE   W05
 BYTE   FINE

//**************** Track 4 (Midi-Chn.3) ****************//

FE4Victory_004:
// 000   ----------------------------------------
 BYTE   KEYSH   FE4Victory_key+0
 BYTE   PAN   c_v+0
 BYTE   VOL   15*FE4Victory_mvl/mxv
 BYTE   MOD 0
 BYTE   CnM2  v000
 BYTE   BEND   c_v+0
 BYTE   W06
 BYTE   VOICE   38
 BYTE   PAN   c_v+7
 BYTE   VOL   25*FE4Victory_mvl/mxv
 BYTE   N22  Gn0  v127
 BYTE   W36
 BYTE   N10  Dn0
 BYTE   W12
 BYTE   N32  Gn0
 BYTE   W36
 BYTE   N10  Dn0
 BYTE   W06
// 001   ----------------------------------------
 BYTE   W06
 BYTE   Gn0
 BYTE   W12
 BYTE   N22
 BYTE   W24
 BYTE   N22
 BYTE   W24
 BYTE   N10
 BYTE   W12
 BYTE   Dn0
 BYTE   W12
 BYTE   Gn0
 BYTE   W06
// 002   ----------------------------------------
 BYTE   W06
 BYTE   N22  Gs0
 BYTE   W36
 BYTE   N10  Ds0
 BYTE   W12
 BYTE   N32  Gs0
 BYTE   W36
 BYTE   N10  Ds0
 BYTE   W06
// 003   ----------------------------------------
 BYTE   W06
 BYTE   Gs0
 BYTE   W12
 BYTE   N10
 BYTE   W24
 BYTE   Ds0
 BYTE   W24
 BYTE   Gs0
 BYTE   W12
 BYTE   Ds0
 BYTE   W12
 BYTE   Gs0
 BYTE   W06
// 004   ----------------------------------------
 BYTE   W06
 BYTE   N32  Cn1
 BYTE   W36
 BYTE   N10  Gn0
 BYTE   W12
 BYTE   N32  Cn1
 BYTE   W36
 BYTE   N10  Cn0
 BYTE   W06
// 005   ----------------------------------------
 BYTE   W06
 BYTE   Cn1
 BYTE   W12
 BYTE   N22
 BYTE   W24
 BYTE   N10  Gn0
 BYTE   W12
 BYTE   Cn1
 BYTE   W12
 BYTE   N22
 BYTE   W24
 BYTE   N10  Dn1
 BYTE   W06
// 006   ----------------------------------------
 BYTE   W06
 BYTE   N22  Ds1
 BYTE   W18
Label_3_552912:
 BYTE   W18
 BYTE   N10  Ds1  v127
 BYTE   W12
 BYTE   N44
 BYTE   W42
// 007   ----------------------------------------
Label_3_552919:
 BYTE   W18
 BYTE   N22  Ds1  v127
 BYTE   W24
 BYTE   N10
 BYTE   W12
 BYTE   N44
 BYTE   W42
 BYTE   PEND 
// 008   ----------------------------------------
 BYTE   W06
 BYTE   N22
 BYTE   W36
 BYTE   N10
 BYTE   W12
 BYTE   N44
 BYTE   W42
 BYTE   PATT
  POIN2 Label_3_552919
// 009   ----------------------------------------
 BYTE   W06
 BYTE   N22  Dn1  v127
 BYTE   W36
 BYTE   N10
 BYTE   W12
 BYTE   N44
 BYTE   W42
// 010   ----------------------------------------
 BYTE   W06
 BYTE   N10  Cs1
 BYTE   W12
 BYTE   N16
 BYTE   W24
 BYTE   N10
 BYTE   W12
 BYTE   N44
 BYTE   W42
// 011   ----------------------------------------
 BYTE   W06
 BYTE   TIE  Cn1
 BYTE   W90
// 012   ----------------------------------------
 BYTE   W64
 BYTE   EOT
 BYTE   W02
 BYTE   N10
 BYTE   W12
 BYTE   TIE
 BYTE   W18
// 013   ----------------------------------------
 BYTE   W96
// 014   ----------------------------------------
 BYTE   W52
 BYTE   EOT
 BYTE   W02
 BYTE   TIE
 BYTE   W42
// 015   ----------------------------------------
 BYTE   W96
// 016   ----------------------------------------
 BYTE   W16
 BYTE   EOT
 BYTE   W02
 BYTE   N10  Gn0
 BYTE   W12
 BYTE   TIE  Cn1
 BYTE   W66
// 017   ----------------------------------------
 BYTE   W88
 BYTE   EOT
 BYTE   W02
 BYTE   N10
 BYTE   W06
// 018   ----------------------------------------
 BYTE   W06
 BYTE   N22  Dn1
 BYTE   W24
 BYTE   Ds1
 BYTE   W18
 BYTE   GoTo
  POIN2 Label_3_552912
// 019   ----------------------------------------
 BYTE   W05
 BYTE   FINE

//**************** Track 5 (Midi-Chn.4) ****************//

FE4Victory_005:
// 000   ----------------------------------------
 BYTE   KEYSH   FE4Victory_key+0
 BYTE   PAN   c_v+0
 BYTE   VOL   15*FE4Victory_mvl/mxv
 BYTE   MOD 0
 BYTE   CnM2  v000
 BYTE   BEND   c_v+0
 BYTE   W06
 BYTE   VOICE   121
 BYTE   VOL   35*FE4Victory_mvl/mxv
 BYTE   W90
// 001   ----------------------------------------
 BYTE   W96
// 002   ----------------------------------------
 BYTE   W96
// 003   ----------------------------------------
 BYTE   W96
// 004   ----------------------------------------
 BYTE   W96
// 005   ----------------------------------------
 BYTE   W96
// 006   ----------------------------------------
 BYTE   W06
 BYTE   N04  Cn1  v127
 BYTE   W18
Label_4_5517E7:
 BYTE   W18
 BYTE   N01  Cn1  v127
 BYTE   W12
 BYTE   N03
 BYTE   W24
 BYTE   Dn1
 BYTE   W18
// 007   ----------------------------------------
Label_4_5517F0:
 BYTE   W06
 BYTE   N04  Cn1  v127
 BYTE   W36
 BYTE   N03
 BYTE   W24
 BYTE   N01
 BYTE   W12
 BYTE   N03  Dn1
 BYTE   W18
 BYTE   PEND 
// 008   ----------------------------------------
 BYTE   W06
 BYTE   N04  Cn1
 BYTE   W36
 BYTE   N01
 BYTE   W12
 BYTE   N03
 BYTE   W24
 BYTE   Dn1
 BYTE   W18
 BYTE   PATT
  POIN2 Label_4_5517F0
// 009   ----------------------------------------
 BYTE   W06
 BYTE   N01  Cn1  v127
 BYTE   W12
 BYTE   N01
 BYTE   W24
 BYTE   Dn1
 BYTE   W12
 BYTE   Cn1
 BYTE   W12
 BYTE   N01
 BYTE   W24
 BYTE   Dn1
 BYTE   W06
// 010   ----------------------------------------
 BYTE   W06
 BYTE   Cn1
 BYTE   W12
 BYTE   N01
 BYTE   W24
 BYTE   Dn1
 BYTE   W12
 BYTE   Cn1
 BYTE   W12
 BYTE   N01
 BYTE   W12
 BYTE   Dn1
 BYTE   W12
 BYTE   Dn1  v100
 BYTE   W06
// 011   ----------------------------------------
Label_4_55182B:
 BYTE   W06
 BYTE   N01  Fs1  v127
 BYTE   W24
 BYTE   N01
 BYTE   W24
 BYTE   N01
 BYTE   W24
 BYTE   N01
 BYTE   W18
 BYTE   PEND 
// 012   ----------------------------------------
 BYTE   W06
 BYTE   N01
 BYTE   W24
 BYTE   N01
 BYTE   W24
 BYTE   N01
 BYTE   W12
 BYTE   Dn1
 BYTE   W12
 BYTE   Fs1
 BYTE   W18
 BYTE   PATT
  POIN2 Label_4_55182B
// 013   ----------------------------------------
 BYTE   W06
 BYTE   N01  Fs1  v127
 BYTE   W12
 BYTE   Dn1
 BYTE   W12
 BYTE   Fs1
 BYTE   W12
 BYTE   Dn1
 BYTE   W12
 BYTE   Fs1
 BYTE   W24
 BYTE   N01
 BYTE   W18
 BYTE   PATT
  POIN2 Label_4_55182B
// 014   ----------------------------------------
 BYTE   W06
 BYTE   N01  Fs1  v127
 BYTE   W12
 BYTE   Dn1
 BYTE   W12
 BYTE   Fs1
 BYTE   W24
 BYTE   N01
 BYTE   W24
 BYTE   N01
 BYTE   W18
// 015   ----------------------------------------
 BYTE   W06
 BYTE   N01
 BYTE   W24
 BYTE   N01
 BYTE   W24
 BYTE   N01
 BYTE   W12
 BYTE   Dn1
 BYTE   W12
 BYTE   Fs1
 BYTE   W12
 BYTE   Dn1
 BYTE   W06
// 016   ----------------------------------------
 BYTE   W06
 BYTE   N03  Cn1
 BYTE   W24
 BYTE   N04
 BYTE   W18
 BYTE   GoTo
  POIN2 Label_4_5517E7
// 017   ----------------------------------------
 BYTE   W05
 BYTE   FINE

//******************************************************//
	ALIGN 4

FE4Victory:
	BYTE	5	// NumTrks
	BYTE	0	// NumBlks
	BYTE	FE4Victory_pri	// Priority
	BYTE	FE4Victory_rev	// Reverb.
    
	POIN2	FE4Victory_grp
    
	POIN2	FE4Victory_001
	POIN2	FE4Victory_002
	POIN2	FE4Victory_003
	POIN2	FE4Victory_004
	POIN2	FE4Victory_005

	
