//Event file generated from Sappy .s format.
	#include "MPlayDef.event"

	#define	FeldschlactIII_grp  voicegroup000
	#define	FeldschlactIII_pri  0
	#define	FeldschlactIII_rev  0
	#define	FeldschlactIII_mvl  127
	#define	FeldschlactIII_key  0
	#define	FeldschlactIII_tbs  1
	#define	FeldschlactIII_exg  0
	#define	FeldschlactIII_cmp  1

	// .rodata
	//	FeldschlactIII
	ALIGN 4


//**************** Track 1 (Midi-Chn.0) ****************//

FeldschlactIII_001:
//  #01 //000   ----------------------------------------
 BYTE   KEYSH   FeldschlactIII_key+0
 BYTE   TEMPO   160*FeldschlactIII_tbs/2
 BYTE   VOICE   41
 BYTE   VOL   45*FeldschlactIII_mvl/mxv
 BYTE   PAN   c_v-26
 BYTE   TIE  Gn2  v064
 BYTE   TIE  Gn4  v044
 BYTE   W96
//  #01 //001   ----------------------------------------
 BYTE   W96
//  #01 //002   ----------------------------------------
 BYTE   EOT
 BYTE   Gn2  v079
Label_01572C79:
 BYTE   TIE  Fn2  v064
 BYTE   N36  Fn4  v044
 BYTE   W36
 BYTE   TIE  Cn2  v064
 BYTE   TIE  Cn4  v044
 BYTE   W60
 BYTE   PEND 
//  #01 //003   ----------------------------------------
 BYTE   W96
//  #01 //004   ----------------------------------------
 BYTE   EOT
 BYTE   Cn2  v053
 BYTE   Cn4
 BYTE   TIE  Gn2  v064
 BYTE   TIE  Gn4  v044
 BYTE   W96
//  #01 //005   ----------------------------------------
 BYTE   W96
//  #01 //006   ----------------------------------------
 BYTE   EOT
 BYTE   Gn2  v079
//  #01 //007   ----------------------------------------
 BYTE   PATT
  POIN2 Label_01572C79
//  #01 //008   ----------------------------------------
 BYTE   W72
 BYTE   EOT
 BYTE   Cn2
 BYTE   W24
//  #01 //009   ----------------------------------------
 BYTE   Fn2  v072
 BYTE   N60  Fn4  v064
 BYTE   W60
 BYTE   N12  Ds4
 BYTE   N12  Fn4  v036
 BYTE   W12
 BYTE   Ds4
 BYTE   N12  Fn4  v064
 BYTE   W12
 BYTE   Fn4  v036
 BYTE   N12  Gn4  v064
 BYTE   W12
//  #01 //010   ----------------------------------------
Label_01572CB8:
 BYTE   N12  Gn4  v036
 BYTE   N36  Gs4  v064
 BYTE   W36
 BYTE   N12  Gs4  v036
 BYTE   N12  As4  v064
 BYTE   W12
 BYTE   As4  v036
 BYTE   N48  Cn5  v064
 BYTE   W48
 BYTE   PEND 
//  #01 //011   ----------------------------------------
Label_01572CCD:
 BYTE   N24  Cn5  v064
 BYTE   W24
 BYTE   Fn4
 BYTE   N12  Cn5  v036
 BYTE   W24
 BYTE   Fn4
 BYTE   N24  As4  v064
 BYTE   W24
 BYTE   N12  Gs4
 BYTE   N12  As4  v036
 BYTE   W12
 BYTE   Gn4  v064
 BYTE   N12  Gs4  v036
 BYTE   W12
 BYTE   PEND 
//  #01 //012   ----------------------------------------
 BYTE   N24  Fn4  v064
 BYTE   N12  Gn4  v036
 BYTE   W24
 BYTE   Fn4
 BYTE   N12  Gn4  v064
 BYTE   W12
 BYTE   N36  Fn4
 BYTE   N12  Gn4  v036
 BYTE   W36
 BYTE   N24  Cn4  v064
 BYTE   N12  Fn4  v036
 BYTE   W24
//  #01 //013   ----------------------------------------
 BYTE   Cn4
 BYTE   W24
 BYTE   N36  Fn4  v064
 BYTE   W36
 BYTE   N12  Ds4
 BYTE   N12  Fn4  v036
 BYTE   W12
 BYTE   Ds4
 BYTE   N12  Fn4  v064
 BYTE   W12
 BYTE   Fn4  v036
 BYTE   N12  Gn4  v064
 BYTE   W12
//  #01 //014   ----------------------------------------
 BYTE   PATT
  POIN2 Label_01572CB8
//  #01 //015   ----------------------------------------
 BYTE   PATT
  POIN2 Label_01572CCD
//  #01 //016   ----------------------------------------
 BYTE   N24  Fn4  v064
 BYTE   N12  Gn4  v036
 BYTE   W24
 BYTE   Fn4
 BYTE   N12  Gn4  v064
 BYTE   W12
 BYTE   N36  Fn4
 BYTE   N12  Gn4  v036
 BYTE   W36
 BYTE   N24  En4  v064
 BYTE   N12  Fn4  v036
 BYTE   W24
//  #01 //017   ----------------------------------------
 BYTE   En4
 BYTE   TIE  Fn4  v064
 BYTE   W96
//  #01 //018   ----------------------------------------
 BYTE   W96
//  #01 //019   ----------------------------------------
 BYTE   EOT
 BYTE   N12  Fn4  v036
 BYTE   W96
//  #01 //020   ----------------------------------------
 BYTE   W96
//  #01 //021   ----------------------------------------
Label_01572D47:
 BYTE   W96
//  #01 //022   ----------------------------------------
 BYTE   W96
//  #01 //023   ----------------------------------------
 BYTE   TIE  Cn4  v044
 BYTE   W96
//  #01 //024   ----------------------------------------
 BYTE   W96
//  #01 //025   ----------------------------------------
 BYTE   W96
//  #01 //026   ----------------------------------------
 BYTE   W96
//  #01 //027   ----------------------------------------
 BYTE   EOT
 BYTE   TIE
 BYTE   W96
//  #01 //028   ----------------------------------------
 BYTE   W96
//  #01 //029   ----------------------------------------
 BYTE   W96
//  #01 //030   ----------------------------------------
 BYTE   W96
//  #01 //031   ----------------------------------------
 BYTE   EOT
 BYTE   TIE
 BYTE   W96
//  #01 //032   ----------------------------------------
 BYTE   W96
//  #01 //033   ----------------------------------------
 BYTE   W96
//  #01 //034   ----------------------------------------
 BYTE   W96
//  #01 //035   ----------------------------------------
 BYTE   EOT
 BYTE   TIE
 BYTE   W96
//  #01 //036   ----------------------------------------
 BYTE   W96
//  #01 //037   ----------------------------------------
 BYTE   W96
//  #01 //038   ----------------------------------------
 BYTE   W96
//  #01 //039   ----------------------------------------
 BYTE   EOT
Label_01572D63:
 BYTE   TIE  Gn2  v064
 BYTE   TIE  Gn3
 BYTE   W96
 BYTE   PEND 
//  #01 //040   ----------------------------------------
 BYTE   W96
//  #01 //041   ----------------------------------------
 BYTE   EOT
 BYTE   Gn2  v067
Label_01572D6E:
 BYTE   N36  Fn2  v064
 BYTE   TIE  As3
 BYTE   W36
 BYTE   Cn2
 BYTE   W60
 BYTE   PEND 
//  #01 //042   ----------------------------------------
 BYTE   W96
//  #01 //043   ----------------------------------------
 BYTE   EOT
 BYTE   EOT
 BYTE   As3
 BYTE   TIE  Cn4
 BYTE   W96
//  #01 //044   ----------------------------------------
 BYTE   W96
//  #01 //045   ----------------------------------------
 BYTE   EOT
 BYTE   TIE
 BYTE   W96
//  #01 //046   ----------------------------------------
 BYTE   W96
//  #01 //047   ----------------------------------------
 BYTE   EOT
Label_01572D84:
 BYTE   N48  Cn3  v064
 BYTE   W48
 BYTE   Bn2
 BYTE   W48
 BYTE   PEND 
//  #01 //048   ----------------------------------------
Label_01572D8B:
 BYTE   N48  As2  v064
 BYTE   W48
 BYTE   Ds3
 BYTE   W48
 BYTE   PEND 
//  #01 //049   ----------------------------------------
Label_01572D92:
 BYTE   N48  Cn3  v064
 BYTE   W48
 BYTE   As2
 BYTE   W48
 BYTE   PEND 
//  #01 //050   ----------------------------------------
Label_01572D99:
 BYTE   N48  Cn3  v064
 BYTE   W48
 BYTE   As2
 BYTE   N48  Dn3
 BYTE   W48
 BYTE   PEND 
//  #01 //051   ----------------------------------------
 BYTE   PATT
  POIN2 Label_01572D84
//  #01 //052   ----------------------------------------
Label_01572DA7:
 BYTE   N24  Cs3  v064
 BYTE   W24
 BYTE   N12  Cn3
 BYTE   W12
 BYTE   Bn2
 BYTE   W60
 BYTE   PEND 
//  #01 //053   ----------------------------------------
 BYTE   W48
 BYTE   N48  Ds3
 BYTE   W48
//  #01 //054   ----------------------------------------
Label_01572DB5:
 BYTE   N48  Cs3  v064
 BYTE   W48
 BYTE   Dn3
 BYTE   W48
 BYTE   PEND 
//  #01 //055   ----------------------------------------
Label_01572DBC:
 BYTE   TIE  Gs2  v056
 BYTE   TIE  Fn3  v064
 BYTE   W96
 BYTE   PEND 
//  #01 //056   ----------------------------------------
 BYTE   W96
//  #01 //057   ----------------------------------------
 BYTE   EOT
 BYTE   Gs2  v065
Label_01572DC8:
 BYTE   TIE  As2  v056
 BYTE   TIE  Gn3  v064
 BYTE   W96
 BYTE   PEND 
//  #01 //058   ----------------------------------------
 BYTE   W96
//  #01 //059   ----------------------------------------
 BYTE   EOT
 BYTE   As2  v067
//  #01 //060   ----------------------------------------
 BYTE   PATT
  POIN2 Label_01572DBC
//  #01 //061   ----------------------------------------
 BYTE   W96
//  #01 //062   ----------------------------------------
 BYTE   EOT
 BYTE   Gs2  v065
//  #01 //063   ----------------------------------------
 BYTE   PATT
  POIN2 Label_01572DC8
//  #01 //064   ----------------------------------------
 BYTE   W96
//  #01 //065   ----------------------------------------
 BYTE   EOT
 BYTE   As2  v067
//  #01 //066   ----------------------------------------
 BYTE   PATT
  POIN2 Label_01572DBC
//  #01 //067   ----------------------------------------
 BYTE   W96
//  #01 //068   ----------------------------------------
 BYTE   EOT
 BYTE   Gs2  v065
//  #01 //069   ----------------------------------------
 BYTE   PATT
  POIN2 Label_01572DC8
//  #01 //070   ----------------------------------------
 BYTE   W96
//  #01 //071   ----------------------------------------
 BYTE   EOT
 BYTE   As2  v067
//  #01 //072   ----------------------------------------
 BYTE   PATT
  POIN2 Label_01572DBC
//  #01 //073   ----------------------------------------
 BYTE   W96
//  #01 //074   ----------------------------------------
 BYTE   EOT
 BYTE   Gs2  v065
//  #01 //075   ----------------------------------------
 BYTE   PATT
  POIN2 Label_01572DC8
//  #01 //076   ----------------------------------------
 BYTE   W96
//  #01 //077   ----------------------------------------
 BYTE   EOT
 BYTE   As2  v067
//  #01 //078   ----------------------------------------
 BYTE   PATT
  POIN2 Label_01572D63
//  #01 //079   ----------------------------------------
 BYTE   W96
//  #01 //080   ----------------------------------------
 BYTE   EOT
 BYTE   Gn2  v067
//  #01 //081   ----------------------------------------
 BYTE   PATT
  POIN2 Label_01572D6E
//  #01 //082   ----------------------------------------
 BYTE   W96
//  #01 //083   ----------------------------------------
 BYTE   EOT
 BYTE   Cn2  v070
 BYTE   TIE  Cn4  v064
 BYTE   W96
//  #01 //084   ----------------------------------------
 BYTE   W96
//  #01 //085   ----------------------------------------
 BYTE   EOT
 BYTE   TIE
 BYTE   W96
//  #01 //086   ----------------------------------------
 BYTE   W96
//  #01 //087   ----------------------------------------
 BYTE   EOT
//  #01 //088   ----------------------------------------
 BYTE   PATT
  POIN2 Label_01572D84
//  #01 //089   ----------------------------------------
 BYTE   PATT
  POIN2 Label_01572D8B
//  #01 //090   ----------------------------------------
 BYTE   PATT
  POIN2 Label_01572D92
//  #01 //091   ----------------------------------------
 BYTE   PATT
  POIN2 Label_01572D99
//  #01 //092   ----------------------------------------
 BYTE   PATT
  POIN2 Label_01572D84
//  #01 //093   ----------------------------------------
 BYTE   PATT
  POIN2 Label_01572DA7
//  #01 //094   ----------------------------------------
 BYTE   W48
 BYTE   N48  Ds3  v064
 BYTE   W48
//  #01 //095   ----------------------------------------
 BYTE   PATT
  POIN2 Label_01572DB5
//  #01 //096   ----------------------------------------
 BYTE   W96
//  #01 //097   ----------------------------------------
 BYTE   W24
 BYTE   N12  Ds3  v064
 BYTE   W12
 BYTE   Ds3  v036
 BYTE   N12  Gs3  v064
 BYTE   W12
 BYTE   Gs3  v036
 BYTE   N48  As3  v064
 BYTE   W48
//  #01 //098   ----------------------------------------
 BYTE   N12  As3  v036
 BYTE   W96
//  #01 //099   ----------------------------------------
 BYTE   W96
//  #01 //100   ----------------------------------------
 BYTE   GoTo
  POIN2 Label_01572D47
 BYTE   FINE

//**************** Track 2 (Midi-Chn.1) ****************//

FeldschlactIII_002:
//  #02 //000   ----------------------------------------
 BYTE   KEYSH   FeldschlactIII_key+0
 BYTE   VOICE   41
 BYTE   VOL   45*FeldschlactIII_mvl/mxv
 BYTE   PAN   c_v+24
 BYTE   TIE  Ds3  v064
 BYTE   TIE  Gn3  v044
 BYTE   W96
//  #02 //001   ----------------------------------------
 BYTE   W96
//  #02 //002   ----------------------------------------
 BYTE   EOT
 BYTE   Ds3  v067
Label_015730B3:
 BYTE   N36  Fn3  v064
 BYTE   TIE  Gn3  v044
 BYTE   W36
 BYTE   Cn3  v064
 BYTE   W60
 BYTE   PEND 
//  #02 //003   ----------------------------------------
 BYTE   W96
//  #02 //004   ----------------------------------------
 BYTE   EOT
 BYTE   EOT
 BYTE   Gn3
 BYTE   TIE  Ds3
 BYTE   TIE  Gn3  v044
 BYTE   W96
//  #02 //005   ----------------------------------------
 BYTE   W96
//  #02 //006   ----------------------------------------
 BYTE   EOT
 BYTE   Ds3  v067
//  #02 //007   ----------------------------------------
 BYTE   PATT
  POIN2 Label_015730B3
//  #02 //008   ----------------------------------------
 BYTE   W96
//  #02 //009   ----------------------------------------
 BYTE   EOT
 BYTE   Cn3  v067
Label_015730D5:
 BYTE   N48  Cn3  v064
 BYTE   W48
 BYTE   Bn2
 BYTE   W48
 BYTE   PEND 
//  #02 //010   ----------------------------------------
 BYTE   As2
 BYTE   W48
 BYTE   Ds3
 BYTE   W48
//  #02 //011   ----------------------------------------
 BYTE   Cn3
 BYTE   W48
 BYTE   As2
 BYTE   W48
//  #02 //012   ----------------------------------------
 BYTE   Cn3
 BYTE   W48
 BYTE   As2
 BYTE   N48  Dn3
 BYTE   W48
//  #02 //013   ----------------------------------------
 BYTE   PATT
  POIN2 Label_015730D5
//  #02 //014   ----------------------------------------
 BYTE   N24  Cs3  v064
 BYTE   W24
 BYTE   N12  Cn3
 BYTE   W12
 BYTE   Bn2
 BYTE   W12
 BYTE   N48  Cn3
 BYTE   W48
//  #02 //015   ----------------------------------------
 BYTE   W48
 BYTE   Ds3
 BYTE   W48
//  #02 //016   ----------------------------------------
 BYTE   Cs3
 BYTE   W48
 BYTE   Dn3
 BYTE   W48
//  #02 //017   ----------------------------------------
 BYTE   Cn3  v056
 BYTE   W48
 BYTE   Bn2
 BYTE   W48
//  #02 //018   ----------------------------------------
Label_01573107:
 BYTE   N48  As2  v056
 BYTE   W48
 BYTE   Ds3
 BYTE   W48
 BYTE   PEND 
//  #02 //019   ----------------------------------------
 BYTE   Gs2
 BYTE   W48
 BYTE   Gn2
 BYTE   W48
//  #02 //020   ----------------------------------------
 BYTE   Fs2
 BYTE   W48
 BYTE   Ds2
 BYTE   W48
//  #02 //021   ----------------------------------------
Label_01573116:
 BYTE   W96
//  #02 //022   ----------------------------------------
 BYTE   W96
//  #02 //023   ----------------------------------------
 BYTE   TIE  Cn3  v052
 BYTE   W96
//  #02 //024   ----------------------------------------
 BYTE   W96
//  #02 //025   ----------------------------------------
 BYTE   W96
//  #02 //026   ----------------------------------------
 BYTE   W96
//  #02 //027   ----------------------------------------
 BYTE   EOT
 BYTE   TIE
 BYTE   W96
//  #02 //028   ----------------------------------------
 BYTE   W96
//  #02 //029   ----------------------------------------
 BYTE   W96
//  #02 //030   ----------------------------------------
 BYTE   W96
//  #02 //031   ----------------------------------------
 BYTE   EOT
 BYTE   TIE
 BYTE   W96
//  #02 //032   ----------------------------------------
 BYTE   W96
//  #02 //033   ----------------------------------------
 BYTE   W96
//  #02 //034   ----------------------------------------
 BYTE   W96
//  #02 //035   ----------------------------------------
 BYTE   EOT
 BYTE   TIE
 BYTE   W96
//  #02 //036   ----------------------------------------
 BYTE   W96
//  #02 //037   ----------------------------------------
 BYTE   W96
//  #02 //038   ----------------------------------------
 BYTE   W96
//  #02 //039   ----------------------------------------
 BYTE   EOT
 BYTE   TIE  Ds3  v064
 BYTE   W96
//  #02 //040   ----------------------------------------
 BYTE   W96
//  #02 //041   ----------------------------------------
 BYTE   EOT
 BYTE   TIE  Dn3
 BYTE   W96
//  #02 //042   ----------------------------------------
 BYTE   W96
//  #02 //043   ----------------------------------------
 BYTE   EOT
Label_0157313D:
 BYTE   TIE  Gn2  v064
 BYTE   TIE  Ds3
 BYTE   W96
 BYTE   PEND 
//  #02 //044   ----------------------------------------
 BYTE   W96
//  #02 //045   ----------------------------------------
 BYTE   EOT
 BYTE   Gn2  v063
Label_01573148:
 BYTE   N36  Fn2  v064
 BYTE   TIE  Dn3
 BYTE   TIE  As3  v052
 BYTE   W36
 BYTE   Cn2  v064
 BYTE   W60
 BYTE   PEND 
//  #02 //046   ----------------------------------------
 BYTE   W96
//  #02 //047   ----------------------------------------
 BYTE   EOT
 BYTE   EOT
 BYTE   Dn3  v070
 BYTE   TIE  Fn3
 BYTE   W96
//  #02 //048   ----------------------------------------
 BYTE   W24
 BYTE   EOT
 BYTE   N12  Ds3
 BYTE   N12  Fn3  v036
 BYTE   W12
 BYTE   Ds3
 BYTE   N12  Gs3  v064
 BYTE   W12
 BYTE   Gs3  v036
 BYTE   N48  As3  v064
 BYTE   W48
//  #02 //049   ----------------------------------------
Label_01573170:
 BYTE   N24  Fn3  v064
 BYTE   N12  As3  v036
 BYTE   W24
 BYTE   N24  Ds3  v064
 BYTE   W24
 BYTE   N12  Fn3  v036
 BYTE   N48  Gn3  v064
 BYTE   W48
 BYTE   PEND 
//  #02 //050   ----------------------------------------
Label_01573183:
 BYTE   N96  Fn3  v064
 BYTE   N12  Gn3  v036
 BYTE   W96
 BYTE   PEND 
//  #02 //051   ----------------------------------------
 BYTE   TIE  Fn3  v064
 BYTE   W96
//  #02 //052   ----------------------------------------
 BYTE   W48
 BYTE   EOT
 BYTE   N96  Cn3
 BYTE   W48
//  #02 //053   ----------------------------------------
 BYTE   W48
 BYTE   N48
 BYTE   W48
//  #02 //054   ----------------------------------------
 BYTE   N96  As2
 BYTE   W96
//  #02 //055   ----------------------------------------
 BYTE   TIE  Cs3
 BYTE   W96
//  #02 //056   ----------------------------------------
 BYTE   W96
//  #02 //057   ----------------------------------------
 BYTE   EOT
 BYTE   TIE  Ds3
 BYTE   W96
//  #02 //058   ----------------------------------------
 BYTE   W96
//  #02 //059   ----------------------------------------
 BYTE   EOT
 BYTE   TIE  Cs3
 BYTE   W96
//  #02 //060   ----------------------------------------
 BYTE   W96
//  #02 //061   ----------------------------------------
 BYTE   EOT
 BYTE   TIE  Ds3
 BYTE   W96
//  #02 //062   ----------------------------------------
 BYTE   W96
//  #02 //063   ----------------------------------------
 BYTE   EOT
 BYTE   TIE  Cs3
 BYTE   W96
//  #02 //064   ----------------------------------------
 BYTE   W96
//  #02 //065   ----------------------------------------
 BYTE   EOT
 BYTE   TIE  Ds3
 BYTE   W96
//  #02 //066   ----------------------------------------
 BYTE   W96
//  #02 //067   ----------------------------------------
 BYTE   EOT
 BYTE   TIE  Cs3
 BYTE   W96
//  #02 //068   ----------------------------------------
 BYTE   W96
//  #02 //069   ----------------------------------------
 BYTE   EOT
 BYTE   TIE  Ds3
 BYTE   W96
//  #02 //070   ----------------------------------------
 BYTE   W96
//  #02 //071   ----------------------------------------
 BYTE   EOT
 BYTE   TIE
 BYTE   W96
//  #02 //072   ----------------------------------------
 BYTE   W96
//  #02 //073   ----------------------------------------
 BYTE   EOT
 BYTE   TIE  Dn3
 BYTE   W96
//  #02 //074   ----------------------------------------
 BYTE   W96
//  #02 //075   ----------------------------------------
 BYTE   EOT
//  #02 //076   ----------------------------------------
 BYTE   PATT
  POIN2 Label_0157313D
//  #02 //077   ----------------------------------------
 BYTE   W96
//  #02 //078   ----------------------------------------
 BYTE   EOT
 BYTE   Gn2  v063
//  #02 //079   ----------------------------------------
 BYTE   PATT
  POIN2 Label_01573148
//  #02 //080   ----------------------------------------
 BYTE   W96
//  #02 //081   ----------------------------------------
 BYTE   EOT
 BYTE   Cn2  v062
 BYTE   As3
 BYTE   TIE  Fn3  v064
 BYTE   W96
//  #02 //082   ----------------------------------------
 BYTE   W24
 BYTE   EOT
 BYTE   N12  Ds3
 BYTE   N12  Fn3  v036
 BYTE   W12
 BYTE   Ds3
 BYTE   N12  Gs3  v064
 BYTE   W12
 BYTE   Gs3  v036
 BYTE   N48  As3  v064
 BYTE   W48
//  #02 //083   ----------------------------------------
 BYTE   PATT
  POIN2 Label_01573170
//  #02 //084   ----------------------------------------
 BYTE   PATT
  POIN2 Label_01573183
//  #02 //085   ----------------------------------------
 BYTE   TIE  Fn3  v064
 BYTE   W96
//  #02 //086   ----------------------------------------
 BYTE   W48
 BYTE   EOT
 BYTE   N96  Cn3
 BYTE   W48
//  #02 //087   ----------------------------------------
 BYTE   W48
 BYTE   N48
 BYTE   W48
//  #02 //088   ----------------------------------------
 BYTE   N96  As2
 BYTE   W96
//  #02 //089   ----------------------------------------
 BYTE   N48  Cn3  v056
 BYTE   TIE  Fn3
 BYTE   W48
 BYTE   N48  Bn2
 BYTE   W48
//  #02 //090   ----------------------------------------
 BYTE   PATT
  POIN2 Label_01573107
//  #02 //091   ----------------------------------------
 BYTE   EOT
 BYTE   Fn3
 BYTE   N48  Gs2  v056
 BYTE   TIE  Cs3
 BYTE   W48
 BYTE   N48  Gn2
 BYTE   W48
//  #02 //092   ----------------------------------------
 BYTE   Fs2
 BYTE   W24
 BYTE   N12  Bn2  v064
 BYTE   W12
 BYTE   Bn2  v036
 BYTE   N12  En3  v064
 BYTE   W12
 BYTE   N48  Ds2  v056
 BYTE   N12  En3  v036
 BYTE   N48  Fs3  v064
 BYTE   W48
//  #02 //093   ----------------------------------------
 BYTE   EOT
 BYTE   Cs3
 BYTE   GoTo
  POIN2 Label_01573116
//  #02 //094   ----------------------------------------
 BYTE   N12  Fs3  v036
 BYTE   W12
 BYTE   FINE

//**************** Track 3 (Midi-Chn.2) ****************//

FeldschlactIII_003:
//  #03 //000   ----------------------------------------
 BYTE   KEYSH   FeldschlactIII_key+0
 BYTE   VOICE   73
 BYTE   VOL   44*FeldschlactIII_mvl/mxv
 BYTE   PAN   c_v+24
 BYTE   N06  Gn4  v064
 BYTE   W48
 BYTE   N06
 BYTE   W36
 BYTE   N06
 BYTE   W12
//  #03 //001   ----------------------------------------
Label_01571F54:
 BYTE   W36
 BYTE   N06  Gn4  v064
 BYTE   W24
 BYTE   N06
 BYTE   W36
 BYTE   PEND 
//  #03 //002   ----------------------------------------
Label_01571F5C:
 BYTE   N06  Gn4  v064
 BYTE   W48
 BYTE   N06
 BYTE   W36
 BYTE   N06
 BYTE   W12
 BYTE   PEND 
//  #03 //003   ----------------------------------------
 BYTE   PATT
  POIN2 Label_01571F54
//  #03 //004   ----------------------------------------
 BYTE   PATT
  POIN2 Label_01571F5C
//  #03 //005   ----------------------------------------
 BYTE   PATT
  POIN2 Label_01571F54
//  #03 //006   ----------------------------------------
 BYTE   PATT
  POIN2 Label_01571F5C
//  #03 //007   ----------------------------------------
 BYTE   PATT
  POIN2 Label_01571F54
//  #03 //008   ----------------------------------------
 BYTE   W96
//  #03 //009   ----------------------------------------
 BYTE   W96
//  #03 //010   ----------------------------------------
 BYTE   W96
//  #03 //011   ----------------------------------------
 BYTE   W96
//  #03 //012   ----------------------------------------
 BYTE   W96
//  #03 //013   ----------------------------------------
 BYTE   W96
//  #03 //014   ----------------------------------------
 BYTE   W96
//  #03 //015   ----------------------------------------
 BYTE   W96
//  #03 //016   ----------------------------------------
 BYTE   W96
//  #03 //017   ----------------------------------------
 BYTE   W96
//  #03 //018   ----------------------------------------
 BYTE   W96
//  #03 //019   ----------------------------------------
 BYTE   W96
//  #03 //020   ----------------------------------------
Label_01571F8A:
 BYTE   W96
//  #03 //021   ----------------------------------------
 BYTE   W60
 BYTE   N05  Gn4  v064
 BYTE   W06
 BYTE   Fn4
 BYTE   W06
 BYTE   Cn4
 BYTE   W06
 BYTE   As3
 BYTE   W06
 BYTE   Fn3
 BYTE   W06
 BYTE   Cn3
 BYTE   W06
//  #03 //022   ----------------------------------------
Label_01571F9A:
 BYTE   W12
 BYTE   N02  Fn4  v064
 BYTE   W24
 BYTE   N23  Ds4
 BYTE   N02  As4
 BYTE   W24
 BYTE   Fn4
 BYTE   W24
 BYTE   Cn5
 BYTE   W12
 BYTE   PEND 
//  #03 //023   ----------------------------------------
Label_01571FA9:
 BYTE   W12
 BYTE   N02  Fn4  v064
 BYTE   W24
 BYTE   As4
 BYTE   W24
 BYTE   Fn4
 BYTE   W24
 BYTE   As4
 BYTE   W12
 BYTE   PEND 
//  #03 //024   ----------------------------------------
 BYTE   PATT
  POIN2 Label_01571F9A
//  #03 //025   ----------------------------------------
Label_01571FBA:
 BYTE   W12
 BYTE   N02  Fn4  v064
 BYTE   W24
 BYTE   As4
 BYTE   W24
 BYTE   Fn4
 BYTE   W24
 BYTE   Cn5
 BYTE   W12
 BYTE   PEND 
//  #03 //026   ----------------------------------------
 BYTE   PATT
  POIN2 Label_01571F9A
//  #03 //027   ----------------------------------------
 BYTE   PATT
  POIN2 Label_01571FA9
//  #03 //028   ----------------------------------------
 BYTE   PATT
  POIN2 Label_01571F9A
//  #03 //029   ----------------------------------------
 BYTE   PATT
  POIN2 Label_01571FBA
//  #03 //030   ----------------------------------------
 BYTE   PATT
  POIN2 Label_01571F9A
//  #03 //031   ----------------------------------------
Label_01571FDF:
 BYTE   W12
 BYTE   N01  Fn4  v064
 BYTE   W24
 BYTE   N16  Ds4
 BYTE   N01  As4
 BYTE   W24
 BYTE   Fn4
 BYTE   W24
 BYTE   As4
 BYTE   W12
 BYTE   PEND 
//  #03 //032   ----------------------------------------
Label_01571FEE:
 BYTE   W12
 BYTE   N01  Fn4  v064
 BYTE   W24
 BYTE   N22  Ds4
 BYTE   N01  As4
 BYTE   W24
 BYTE   Fn4
 BYTE   W24
 BYTE   Cn5
 BYTE   W12
 BYTE   PEND 
//  #03 //033   ----------------------------------------
Label_01571FFD:
 BYTE   W12
 BYTE   N01  Fn4  v064
 BYTE   W24
 BYTE   As4
 BYTE   W24
 BYTE   Fn4
 BYTE   W24
 BYTE   Cn5
 BYTE   W12
 BYTE   PEND 
//  #03 //034   ----------------------------------------
 BYTE   PATT
  POIN2 Label_01571FEE
//  #03 //035   ----------------------------------------
 BYTE   PATT
  POIN2 Label_01571FDF
//  #03 //036   ----------------------------------------
 BYTE   PATT
  POIN2 Label_01571FEE
//  #03 //037   ----------------------------------------
 BYTE   PATT
  POIN2 Label_01571FFD
//  #03 //038   ----------------------------------------
Label_0157201D:
 BYTE   N03  Gn4  v064
 BYTE   W48
 BYTE   N03
 BYTE   W36
 BYTE   N03
 BYTE   W12
 BYTE   PEND 
//  #03 //039   ----------------------------------------
Label_01572026:
 BYTE   W24
 BYTE   N03  Cn4  v064
 BYTE   W12
 BYTE   Gn4
 BYTE   W24
 BYTE   N03
 BYTE   W36
 BYTE   PEND 
//  #03 //040   ----------------------------------------
 BYTE   PATT
  POIN2 Label_0157201D
//  #03 //041   ----------------------------------------
 BYTE   PATT
  POIN2 Label_01572026
//  #03 //042   ----------------------------------------
 BYTE   PATT
  POIN2 Label_0157201D
//  #03 //043   ----------------------------------------
 BYTE   PATT
  POIN2 Label_01572026
//  #03 //044   ----------------------------------------
 BYTE   PATT
  POIN2 Label_0157201D
//  #03 //045   ----------------------------------------
 BYTE   PATT
  POIN2 Label_01572026
//  #03 //046   ----------------------------------------
 BYTE   W96
//  #03 //047   ----------------------------------------
 BYTE   W96
//  #03 //048   ----------------------------------------
 BYTE   W96
//  #03 //049   ----------------------------------------
 BYTE   W96
//  #03 //050   ----------------------------------------
 BYTE   W96
//  #03 //051   ----------------------------------------
 BYTE   W96
//  #03 //052   ----------------------------------------
 BYTE   W96
//  #03 //053   ----------------------------------------
 BYTE   W96
//  #03 //054   ----------------------------------------
 BYTE   W96
//  #03 //055   ----------------------------------------
 BYTE   W96
//  #03 //056   ----------------------------------------
 BYTE   W96
//  #03 //057   ----------------------------------------
 BYTE   W96
//  #03 //058   ----------------------------------------
 BYTE   W96
//  #03 //059   ----------------------------------------
 BYTE   W96
//  #03 //060   ----------------------------------------
 BYTE   W96
//  #03 //061   ----------------------------------------
 BYTE   W96
//  #03 //062   ----------------------------------------
Label_0157205E:
 BYTE   W12
 BYTE   N48  Cn5  v036
 BYTE   W48
 BYTE   N24  As4
 BYTE   W24
 BYTE   Cn5
 BYTE   W12
 BYTE   PEND 
//  #03 //063   ----------------------------------------
Label_01572069:
 BYTE   W12
 BYTE   N24  Gn4  v036
 BYTE   W24
 BYTE   Gs4
 BYTE   W24
 BYTE   Ds4
 BYTE   W24
 BYTE   N21  Fn4
 BYTE   W12
 BYTE   PEND 
//  #03 //064   ----------------------------------------
 BYTE   W09
 BYTE   N03
 BYTE   W03
 BYTE   N48  Gn4
 BYTE   W48
 BYTE   N96  Cn4
 BYTE   W36
//  #03 //065   ----------------------------------------
 BYTE   W60
 BYTE   N48  Gn4
 BYTE   W36
//  #03 //066   ----------------------------------------
 BYTE   PATT
  POIN2 Label_0157205E
//  #03 //067   ----------------------------------------
 BYTE   PATT
  POIN2 Label_01572069
//  #03 //068   ----------------------------------------
 BYTE   W09
 BYTE   N03  Fn4  v036
 BYTE   W03
 BYTE   N48  Gn4
 BYTE   W48
 BYTE   TIE  Cn5
 BYTE   W36
//  #03 //069   ----------------------------------------
 BYTE   W96
//  #03 //070   ----------------------------------------
 BYTE   N06  Gn4  v064
 BYTE   W12
 BYTE   EOT
 BYTE   Cn5
 BYTE   W36
 BYTE   N06  Gn4
 BYTE   W36
 BYTE   N06
 BYTE   W12
//  #03 //071   ----------------------------------------
 BYTE   PATT
  POIN2 Label_01571F54
//  #03 //072   ----------------------------------------
 BYTE   PATT
  POIN2 Label_01571F5C
//  #03 //073   ----------------------------------------
 BYTE   PATT
  POIN2 Label_01571F54
//  #03 //074   ----------------------------------------
 BYTE   PATT
  POIN2 Label_01571F5C
//  #03 //075   ----------------------------------------
 BYTE   PATT
  POIN2 Label_01571F54
//  #03 //076   ----------------------------------------
 BYTE   PATT
  POIN2 Label_01571F5C
//  #03 //077   ----------------------------------------
 BYTE   PATT
  POIN2 Label_01571F54
//  #03 //078   ----------------------------------------
 BYTE   W96
//  #03 //079   ----------------------------------------
 BYTE   W96
//  #03 //080   ----------------------------------------
 BYTE   W96
//  #03 //081   ----------------------------------------
 BYTE   W96
//  #03 //082   ----------------------------------------
 BYTE   W96
//  #03 //083   ----------------------------------------
 BYTE   W96
//  #03 //084   ----------------------------------------
 BYTE   W96
//  #03 //085   ----------------------------------------
 BYTE   W96
//  #03 //086   ----------------------------------------
 BYTE   N56  Fn4  v064
 BYTE   W60
 BYTE   N11  Ds4
 BYTE   N11  Fn4  v036
 BYTE   W12
 BYTE   Ds4
 BYTE   N11  Fn4  v064
 BYTE   W12
 BYTE   Fn4  v036
 BYTE   N11  Gn4  v064
 BYTE   W12
//  #03 //087   ----------------------------------------
 BYTE   Gn4  v036
 BYTE   N32  Gs4  v064
 BYTE   W36
 BYTE   N11  Gs4  v036
 BYTE   N11  As4  v064
 BYTE   W12
 BYTE   As4  v036
 BYTE   N44  Cn5  v064
 BYTE   W48
//  #03 //088   ----------------------------------------
 BYTE   N56  Cs4
 BYTE   N11  Cn5  v036
 BYTE   W60
 BYTE   Cn4  v064
 BYTE   N11  Cs4  v036
 BYTE   W12
 BYTE   Cn4
 BYTE   N11  Cs4  v064
 BYTE   W12
 BYTE   Cs4  v036
 BYTE   N11  Ds4  v064
 BYTE   W12
//  #03 //089   ----------------------------------------
 BYTE   Ds4  v036
 BYTE   N32  En4  v064
 BYTE   W36
 BYTE   N11  En4  v036
 BYTE   N11  Fs4  v064
 BYTE   W12
 BYTE   Fs4  v036
 BYTE   N44  Gs4  v064
 BYTE   W48
//  #03 //090   ----------------------------------------
 BYTE   GoTo
  POIN2 Label_01571F8A
//  #03 //091   ----------------------------------------
 BYTE   N11  Gs4  v036
 BYTE   W11
 BYTE   FINE

//**************** Track 4 (Midi-Chn.3) ****************//

FeldschlactIII_004:
//  #04 //000   ----------------------------------------
 BYTE   KEYSH   FeldschlactIII_key+0
 BYTE   VOICE   73
 BYTE   VOL   44*FeldschlactIII_mvl/mxv
 BYTE   PAN   c_v-26
 BYTE   W24
 BYTE   N06  Cn4  v064
 BYTE   W48
 BYTE   N06
 BYTE   W24
//  #04 //001   ----------------------------------------
 BYTE   W12
 BYTE   N06
 BYTE   W84
//  #04 //002   ----------------------------------------
Label_01572F82:
 BYTE   W24
 BYTE   N06  Cn4  v064
 BYTE   W48
 BYTE   N06
 BYTE   W24
 BYTE   PEND 
//  #04 //003   ----------------------------------------
Label_01572F8A:
 BYTE   W12
 BYTE   N06  Cn4  v064
 BYTE   W60
 BYTE   N06
 BYTE   W24
 BYTE   PEND 
//  #04 //004   ----------------------------------------
 BYTE   PATT
  POIN2 Label_01572F82
//  #04 //005   ----------------------------------------
 BYTE   W12
 BYTE   N06  Cn4  v064
 BYTE   W84
//  #04 //006   ----------------------------------------
 BYTE   PATT
  POIN2 Label_01572F82
//  #04 //007   ----------------------------------------
 BYTE   PATT
  POIN2 Label_01572F8A
//  #04 //008   ----------------------------------------
 BYTE   W96
//  #04 //009   ----------------------------------------
 BYTE   W96
//  #04 //010   ----------------------------------------
 BYTE   W96
//  #04 //011   ----------------------------------------
 BYTE   W96
//  #04 //012   ----------------------------------------
 BYTE   W96
//  #04 //013   ----------------------------------------
 BYTE   W96
//  #04 //014   ----------------------------------------
 BYTE   W96
//  #04 //015   ----------------------------------------
 BYTE   W96
//  #04 //016   ----------------------------------------
 BYTE   W96
//  #04 //017   ----------------------------------------
 BYTE   W96
//  #04 //018   ----------------------------------------
 BYTE   W96
//  #04 //019   ----------------------------------------
 BYTE   W96
//  #04 //020   ----------------------------------------
Label_01572FB2:
 BYTE   W96
//  #04 //021   ----------------------------------------
 BYTE   W96
//  #04 //022   ----------------------------------------
 BYTE   W96
//  #04 //023   ----------------------------------------
 BYTE   W96
//  #04 //024   ----------------------------------------
 BYTE   W96
//  #04 //025   ----------------------------------------
 BYTE   W96
//  #04 //026   ----------------------------------------
 BYTE   W96
//  #04 //027   ----------------------------------------
 BYTE   W96
//  #04 //028   ----------------------------------------
 BYTE   W96
//  #04 //029   ----------------------------------------
 BYTE   W96
//  #04 //030   ----------------------------------------
 BYTE   W96
//  #04 //031   ----------------------------------------
 BYTE   W96
//  #04 //032   ----------------------------------------
 BYTE   W96
//  #04 //033   ----------------------------------------
 BYTE   W96
//  #04 //034   ----------------------------------------
 BYTE   W96
//  #04 //035   ----------------------------------------
 BYTE   W96
//  #04 //036   ----------------------------------------
 BYTE   W96
//  #04 //037   ----------------------------------------
 BYTE   W96
//  #04 //038   ----------------------------------------
 BYTE   PATT
  POIN2 Label_01572F82
//  #04 //039   ----------------------------------------
 BYTE   W12
 BYTE   N06  Cn4  v064
 BYTE   W84
//  #04 //040   ----------------------------------------
 BYTE   PATT
  POIN2 Label_01572F82
//  #04 //041   ----------------------------------------
 BYTE   PATT
  POIN2 Label_01572F8A
//  #04 //042   ----------------------------------------
 BYTE   PATT
  POIN2 Label_01572F82
//  #04 //043   ----------------------------------------
 BYTE   W12
 BYTE   N06  Cn4  v064
 BYTE   W84
//  #04 //044   ----------------------------------------
 BYTE   PATT
  POIN2 Label_01572F82
//  #04 //045   ----------------------------------------
 BYTE   PATT
  POIN2 Label_01572F8A
//  #04 //046   ----------------------------------------
 BYTE   W96
//  #04 //047   ----------------------------------------
 BYTE   W96
//  #04 //048   ----------------------------------------
 BYTE   W96
//  #04 //049   ----------------------------------------
 BYTE   W96
//  #04 //050   ----------------------------------------
 BYTE   W96
//  #04 //051   ----------------------------------------
 BYTE   W96
//  #04 //052   ----------------------------------------
 BYTE   W96
//  #04 //053   ----------------------------------------
 BYTE   W96
//  #04 //054   ----------------------------------------
 BYTE   W96
//  #04 //055   ----------------------------------------
 BYTE   W96
//  #04 //056   ----------------------------------------
 BYTE   W96
//  #04 //057   ----------------------------------------
 BYTE   W96
//  #04 //058   ----------------------------------------
 BYTE   W96
//  #04 //059   ----------------------------------------
 BYTE   W96
//  #04 //060   ----------------------------------------
 BYTE   W96
//  #04 //061   ----------------------------------------
 BYTE   W96
//  #04 //062   ----------------------------------------
Label_01572FFC:
 BYTE   N48  Cn5  v064
 BYTE   W48
 BYTE   N24  As4
 BYTE   W24
 BYTE   Cn5
 BYTE   W24
 BYTE   PEND 
//  #04 //063   ----------------------------------------
Label_01573006:
 BYTE   N24  Gn4  v064
 BYTE   W24
 BYTE   Gs4
 BYTE   W24
 BYTE   Ds4
 BYTE   W24
 BYTE   N21  Fn4
 BYTE   W21
 BYTE   N03
 BYTE   W03
 BYTE   PEND 
//  #04 //064   ----------------------------------------
 BYTE   N48  Gn4
 BYTE   W48
 BYTE   N96  Cn4
 BYTE   W48
//  #04 //065   ----------------------------------------
 BYTE   W48
 BYTE   N48  Gn4
 BYTE   W48
//  #04 //066   ----------------------------------------
 BYTE   PATT
  POIN2 Label_01572FFC
//  #04 //067   ----------------------------------------
 BYTE   PATT
  POIN2 Label_01573006
//  #04 //068   ----------------------------------------
 BYTE   N48  Gn4  v064
 BYTE   W48
 BYTE   TIE  Cn5
 BYTE   W48
//  #04 //069   ----------------------------------------
 BYTE   W96
//  #04 //070   ----------------------------------------
 BYTE   EOT
//  #04 //071   ----------------------------------------
 BYTE   PATT
  POIN2 Label_01572F82
//  #04 //072   ----------------------------------------
 BYTE   W12
 BYTE   N06  Cn4  v064
 BYTE   W84
//  #04 //073   ----------------------------------------
 BYTE   PATT
  POIN2 Label_01572F82
//  #04 //074   ----------------------------------------
 BYTE   PATT
  POIN2 Label_01572F8A
//  #04 //075   ----------------------------------------
 BYTE   PATT
  POIN2 Label_01572F82
//  #04 //076   ----------------------------------------
 BYTE   W12
 BYTE   N06  Cn4  v064
 BYTE   W84
//  #04 //077   ----------------------------------------
 BYTE   PATT
  POIN2 Label_01572F82
//  #04 //078   ----------------------------------------
 BYTE   PATT
  POIN2 Label_01572F8A
//  #04 //079   ----------------------------------------
 BYTE   W96
//  #04 //080   ----------------------------------------
 BYTE   W96
//  #04 //081   ----------------------------------------
 BYTE   W96
//  #04 //082   ----------------------------------------
 BYTE   W96
//  #04 //083   ----------------------------------------
 BYTE   W96
//  #04 //084   ----------------------------------------
 BYTE   W96
//  #04 //085   ----------------------------------------
 BYTE   W96
//  #04 //086   ----------------------------------------
 BYTE   W96
//  #04 //087   ----------------------------------------
 BYTE   W96
//  #04 //088   ----------------------------------------
 BYTE   W96
//  #04 //089   ----------------------------------------
 BYTE   W96
//  #04 //090   ----------------------------------------
 BYTE   W96
//  #04 //091   ----------------------------------------
 BYTE   GoTo
  POIN2 Label_01572FB2
 BYTE   FINE

//**************** Track 5 (Midi-Chn.4) ****************//

FeldschlactIII_005:
//  #05 //000   ----------------------------------------
 BYTE   KEYSH   FeldschlactIII_key+0
 BYTE   VOICE   0
 BYTE   VOL   57*FeldschlactIII_mvl/mxv
 BYTE   W06
 BYTE   N03  Ds3  v056
 BYTE   W06
 BYTE   Fn3
 BYTE   W06
 BYTE   Gn3
 BYTE   W06
 BYTE   Cn4
 BYTE   W06
 BYTE   Gn3
 BYTE   W06
 BYTE   Ds3
 BYTE   W06
 BYTE   Fn3
 BYTE   W06
 BYTE   Gn3
 BYTE   W06
 BYTE   Ds3
 BYTE   W06
 BYTE   Fn3
 BYTE   W06
 BYTE   Gn3
 BYTE   W06
 BYTE   Cn4
 BYTE   W06
 BYTE   Gn3
 BYTE   W06
 BYTE   Ds3
 BYTE   W06
 BYTE   Fn3
 BYTE   W06
//  #05 //001   ----------------------------------------
Label_01572977:
 BYTE   N03  Gn3  v056
 BYTE   W06
 BYTE   Ds3
 BYTE   W06
 BYTE   Fn3
 BYTE   W06
 BYTE   Gn3
 BYTE   W06
 BYTE   Cn4
 BYTE   W06
 BYTE   Gn3
 BYTE   W06
 BYTE   Ds3
 BYTE   W06
 BYTE   Fn3
 BYTE   W06
 BYTE   Gn3
 BYTE   W06
 BYTE   Ds3
 BYTE   W06
 BYTE   Fn3
 BYTE   W06
 BYTE   Gn3
 BYTE   W06
 BYTE   Cn4
 BYTE   W06
 BYTE   Gn3
 BYTE   W06
 BYTE   Ds3
 BYTE   W06
 BYTE   Fn3
 BYTE   W06
 BYTE   PEND 
//  #05 //002   ----------------------------------------
 BYTE   PATT
  POIN2 Label_01572977
//  #05 //003   ----------------------------------------
 BYTE   PATT
  POIN2 Label_01572977
//  #05 //004   ----------------------------------------
 BYTE   PATT
  POIN2 Label_01572977
//  #05 //005   ----------------------------------------
 BYTE   PATT
  POIN2 Label_01572977
//  #05 //006   ----------------------------------------
 BYTE   PATT
  POIN2 Label_01572977
//  #05 //007   ----------------------------------------
 BYTE   PATT
  POIN2 Label_01572977
//  #05 //008   ----------------------------------------
 BYTE   W96
//  #05 //009   ----------------------------------------
 BYTE   W96
//  #05 //010   ----------------------------------------
 BYTE   W96
//  #05 //011   ----------------------------------------
 BYTE   W96
//  #05 //012   ----------------------------------------
 BYTE   W96
//  #05 //013   ----------------------------------------
 BYTE   W96
//  #05 //014   ----------------------------------------
 BYTE   W96
//  #05 //015   ----------------------------------------
 BYTE   W96
//  #05 //016   ----------------------------------------
 BYTE   W96
//  #05 //017   ----------------------------------------
 BYTE   W96
//  #05 //018   ----------------------------------------
 BYTE   W96
//  #05 //019   ----------------------------------------
 BYTE   W96
//  #05 //020   ----------------------------------------
Label_015729C4:
 BYTE   N06  Cn4  v064
 BYTE   W12
 BYTE   Bn2
 BYTE   W12
 BYTE   Cn4
 BYTE   W12
 BYTE   N24  Ds3
 BYTE   N24  Fs3
 BYTE   N06  Bn3
 BYTE   W12
 BYTE   En3
 BYTE   W12
 BYTE   Bn3
 BYTE   W12
 BYTE   As3
 BYTE   W12
 BYTE   Ds3
 BYTE   W12
//  #05 //021   ----------------------------------------
 BYTE   N24  Fn3
 BYTE   N24  An3
 BYTE   W96
//  #05 //022   ----------------------------------------
 BYTE   N03  Cn4
 BYTE   W12
 BYTE   N03
 BYTE   W24
 BYTE   As3
 BYTE   W12
 BYTE   N03
 BYTE   W12
 BYTE   Cn4
 BYTE   W24
 BYTE   N03
 BYTE   W06
 BYTE   N03
 BYTE   W06
//  #05 //023   ----------------------------------------
Label_015729EF:
 BYTE   N03  As3  v064
 BYTE   W24
 BYTE   N03
 BYTE   W12
 BYTE   Cn4
 BYTE   W24
 BYTE   N03
 BYTE   W12
 BYTE   As3
 BYTE   W24
 BYTE   PEND 
//  #05 //024   ----------------------------------------
 BYTE   N03
 BYTE   N03  Cn4
 BYTE   W12
 BYTE   N03
 BYTE   W24
 BYTE   N03
 BYTE   W06
 BYTE   N03
 BYTE   W30
 BYTE   As3
 BYTE   W12
 BYTE   Cn4
 BYTE   W12
//  #05 //025   ----------------------------------------
 BYTE   W12
 BYTE   N03
 BYTE   W12
 BYTE   As3
 BYTE   W12
 BYTE   Cn4
 BYTE   W24
 BYTE   N03
 BYTE   W24
 BYTE   N03
 BYTE   W06
 BYTE   N03
 BYTE   W06
//  #05 //026   ----------------------------------------
 BYTE   As3
 BYTE   W24
 BYTE   N03
 BYTE   W12
 BYTE   N03
 BYTE   W36
 BYTE   N03
 BYTE   W24
//  #05 //027   ----------------------------------------
 BYTE   N03
 BYTE   W12
 BYTE   Cn4
 BYTE   W12
 BYTE   As3
 BYTE   W12
 BYTE   Cn4
 BYTE   W06
 BYTE   N03
 BYTE   W06
 BYTE   As3
 BYTE   W24
 BYTE   N03
 BYTE   W12
 BYTE   Cn4
 BYTE   W12
//  #05 //028   ----------------------------------------
 BYTE   W36
 BYTE   As3
 BYTE   W12
 BYTE   N03
 BYTE   W12
 BYTE   Cn4
 BYTE   W24
 BYTE   N03
 BYTE   W06
 BYTE   N03
 BYTE   W06
//  #05 //029   ----------------------------------------
 BYTE   PATT
  POIN2 Label_015729EF
//  #05 //030   ----------------------------------------
 BYTE   W36
 BYTE   N03  Fn3  v064
 BYTE   W12
 BYTE   Gn3
 BYTE   W12
 BYTE   Gs3
 BYTE   W12
 BYTE   Ds3
 BYTE   W12
 BYTE   Cs3
 BYTE   W12
//  #05 //031   ----------------------------------------
 BYTE   Cn3
 BYTE   W12
 BYTE   Fn3
 BYTE   W12
 BYTE   Ds3
 BYTE   W12
 BYTE   Gs3
 BYTE   W12
 BYTE   Gn3
 BYTE   W48
//  #05 //032   ----------------------------------------
 BYTE   Cn4
 BYTE   W12
 BYTE   N03
 BYTE   W12
 BYTE   As3
 BYTE   W12
 BYTE   Cn4
 BYTE   W12
 BYTE   Gn3
 BYTE   W12
 BYTE   Gs3
 BYTE   W36
//  #05 //033   ----------------------------------------
 BYTE   W12
 BYTE   Gn3
 BYTE   W12
 BYTE   As3
 BYTE   W12
 BYTE   N03
 BYTE   W12
 BYTE   Gs3
 BYTE   W12
 BYTE   Gn3
 BYTE   W12
 BYTE   Gs3
 BYTE   W12
 BYTE   As3
 BYTE   W12
//  #05 //034   ----------------------------------------
 BYTE   Cn4
 BYTE   W48
 BYTE   Gn3
 BYTE   W12
 BYTE   Gs3
 BYTE   W12
 BYTE   Ds3
 BYTE   W12
 BYTE   Fn3
 BYTE   W12
//  #05 //035   ----------------------------------------
 BYTE   Cn3
 BYTE   W12
 BYTE   Fn3
 BYTE   W12
 BYTE   Ds3
 BYTE   W12
 BYTE   Fn3
 BYTE   W12
 BYTE   Gn3
 BYTE   W48
//  #05 //036   ----------------------------------------
 BYTE   W12
 BYTE   Cn4
 BYTE   W12
 BYTE   As3
 BYTE   W12
 BYTE   Cn4
 BYTE   W12
 BYTE   Gn3
 BYTE   W12
 BYTE   Gs3
 BYTE   W12
 BYTE   Ds3
 BYTE   W24
//  #05 //037   ----------------------------------------
 BYTE   W12
 BYTE   Fn3
 BYTE   N03  Gn3
 BYTE   W12
 BYTE   As3
 BYTE   W12
 BYTE   N03
 BYTE   N03  Cn4
 BYTE   W12
 BYTE   Gs3
 BYTE   W12
 BYTE   Gn3
 BYTE   N03  Cn4
 BYTE   W12
 BYTE   Gs3
 BYTE   W12
 BYTE   As3
 BYTE   W12
//  #05 //038   ----------------------------------------
Label_01572AA7:
 BYTE   W06
 BYTE   N03  Ds3  v056
 BYTE   W06
 BYTE   Fn3
 BYTE   W06
 BYTE   Gn3
 BYTE   W06
 BYTE   Cn4
 BYTE   W06
 BYTE   Gn3
 BYTE   W06
 BYTE   Ds3
 BYTE   W06
 BYTE   Fn3
 BYTE   W06
 BYTE   Gn3
 BYTE   W06
 BYTE   Ds3
 BYTE   W06
 BYTE   Fn3
 BYTE   W06
 BYTE   Gn3
 BYTE   W06
 BYTE   Cn4
 BYTE   W06
 BYTE   Gn3
 BYTE   W06
 BYTE   Ds3
 BYTE   W06
 BYTE   Fn3
 BYTE   W06
 BYTE   PEND 
//  #05 //039   ----------------------------------------
 BYTE   PATT
  POIN2 Label_01572977
//  #05 //040   ----------------------------------------
 BYTE   PATT
  POIN2 Label_01572977
//  #05 //041   ----------------------------------------
 BYTE   PATT
  POIN2 Label_01572977
//  #05 //042   ----------------------------------------
 BYTE   PATT
  POIN2 Label_01572977
//  #05 //043   ----------------------------------------
 BYTE   PATT
  POIN2 Label_01572977
//  #05 //044   ----------------------------------------
 BYTE   PATT
  POIN2 Label_01572977
//  #05 //045   ----------------------------------------
 BYTE   PATT
  POIN2 Label_01572977
//  #05 //046   ----------------------------------------
 BYTE   W96
//  #05 //047   ----------------------------------------
 BYTE   W96
//  #05 //048   ----------------------------------------
 BYTE   W96
//  #05 //049   ----------------------------------------
 BYTE   W96
//  #05 //050   ----------------------------------------
 BYTE   W96
//  #05 //051   ----------------------------------------
 BYTE   W96
//  #05 //052   ----------------------------------------
Label_01572AF2:
 BYTE   N02  Gn3  v080
 BYTE   W06
 BYTE   N02
 BYTE   W06
 BYTE   Gs3
 BYTE   W12
 BYTE   As3
 BYTE   W12
 BYTE   Cn4
 BYTE   W12
 BYTE   As3
 BYTE   W12
 BYTE   Gs3
 BYTE   W12
 BYTE   Gn3
 BYTE   W12
 BYTE   Fn3
 BYTE   W06
 BYTE   N02
 BYTE   W06
 BYTE   PEND 
//  #05 //053   ----------------------------------------
 BYTE   PATT
  POIN2 Label_01572AF2
//  #05 //054   ----------------------------------------
Label_01572B0E:
 BYTE   N02  Gn3  v064
 BYTE   N02  Dn4  v056
 BYTE   W06
 BYTE   Gn3  v064
 BYTE   N02  Dn4  v056
 BYTE   W06
 BYTE   Gs3  v064
 BYTE   N02  Ds4  v056
 BYTE   W12
 BYTE   As3  v064
 BYTE   N02  Fn4  v056
 BYTE   W12
 BYTE   Cn4  v064
 BYTE   N02  Gn4  v056
 BYTE   W12
 BYTE   As3  v064
 BYTE   N02  Fn4  v056
 BYTE   W12
 BYTE   Gs3  v064
 BYTE   N02  Ds4  v056
 BYTE   W12
 BYTE   Gn3  v064
 BYTE   N02  Dn4  v056
 BYTE   W12
 BYTE   Fn3  v064
 BYTE   N02  Cn4  v056
 BYTE   W06
 BYTE   Fn3  v064
 BYTE   W06
 BYTE   PEND 
//  #05 //055   ----------------------------------------
 BYTE   PATT
  POIN2 Label_01572B0E
//  #05 //056   ----------------------------------------
 BYTE   PATT
  POIN2 Label_01572B0E
//  #05 //057   ----------------------------------------
 BYTE   PATT
  POIN2 Label_01572B0E
//  #05 //058   ----------------------------------------
 BYTE   PATT
  POIN2 Label_01572B0E
//  #05 //059   ----------------------------------------
 BYTE   PATT
  POIN2 Label_01572B0E
//  #05 //060   ----------------------------------------
 BYTE   PATT
  POIN2 Label_01572B0E
//  #05 //061   ----------------------------------------
 BYTE   PATT
  POIN2 Label_01572B0E
//  #05 //062   ----------------------------------------
 BYTE   PATT
  POIN2 Label_01572B0E
//  #05 //063   ----------------------------------------
 BYTE   PATT
  POIN2 Label_01572B0E
//  #05 //064   ----------------------------------------
 BYTE   PATT
  POIN2 Label_01572B0E
//  #05 //065   ----------------------------------------
 BYTE   PATT
  POIN2 Label_01572B0E
//  #05 //066   ----------------------------------------
 BYTE   PATT
  POIN2 Label_01572B0E
//  #05 //067   ----------------------------------------
 BYTE   PATT
  POIN2 Label_01572B0E
//  #05 //068   ----------------------------------------
 BYTE   PATT
  POIN2 Label_01572B0E
//  #05 //069   ----------------------------------------
 BYTE   PATT
  POIN2 Label_01572B0E
//  #05 //070   ----------------------------------------
 BYTE   PATT
  POIN2 Label_01572AA7
//  #05 //071   ----------------------------------------
 BYTE   PATT
  POIN2 Label_01572977
//  #05 //072   ----------------------------------------
 BYTE   PATT
  POIN2 Label_01572977
//  #05 //073   ----------------------------------------
 BYTE   PATT
  POIN2 Label_01572977
//  #05 //074   ----------------------------------------
 BYTE   PATT
  POIN2 Label_01572977
//  #05 //075   ----------------------------------------
 BYTE   PATT
  POIN2 Label_01572977
//  #05 //076   ----------------------------------------
 BYTE   PATT
  POIN2 Label_01572977
//  #05 //077   ----------------------------------------
 BYTE   PATT
  POIN2 Label_01572977
//  #05 //078   ----------------------------------------
 BYTE   W96
//  #05 //079   ----------------------------------------
 BYTE   W96
//  #05 //080   ----------------------------------------
 BYTE   W96
//  #05 //081   ----------------------------------------
 BYTE   W96
//  #05 //082   ----------------------------------------
 BYTE   W96
//  #05 //083   ----------------------------------------
 BYTE   W96
//  #05 //084   ----------------------------------------
 BYTE   W96
//  #05 //085   ----------------------------------------
 BYTE   W96
//  #05 //086   ----------------------------------------
 BYTE   W96
//  #05 //087   ----------------------------------------
 BYTE   W96
//  #05 //088   ----------------------------------------
 BYTE   W96
//  #05 //089   ----------------------------------------
 BYTE   W96
//  #05 //090   ----------------------------------------
 BYTE   GoTo
  POIN2 Label_015729C4
 BYTE   FINE

//**************** Track 6 (Midi-Chn.5) ****************//

FeldschlactIII_006:
//  #06 //000   ----------------------------------------
 BYTE   KEYSH   FeldschlactIII_key+0
 BYTE   VOICE   1
 BYTE   VOL   51*FeldschlactIII_mvl/mxv
 BYTE   W96
//  #06 //001   ----------------------------------------
 BYTE   W96
//  #06 //002   ----------------------------------------
 BYTE   W96
//  #06 //003   ----------------------------------------
Label_01573781:
 BYTE   W60
 BYTE   N06  Cn4  v064
 BYTE   W12
 BYTE   N06
 BYTE   N06  Fn4
 BYTE   W12
 BYTE   N06
 BYTE   N06  As4
 BYTE   W12
 BYTE   PEND 
//  #06 //004   ----------------------------------------
Label_0157378F:
 BYTE   N48  Gn4  v064
 BYTE   N48  Cn5
 BYTE   W84
 BYTE   N06  Fn4
 BYTE   N06  As4
 BYTE   W12
 BYTE   PEND 
//  #06 //005   ----------------------------------------
Label_0157379B:
 BYTE   W12
 BYTE   N06  Fn4  v064
 BYTE   N06  As4
 BYTE   W24
 BYTE   Fn4
 BYTE   N06  As4
 BYTE   W12
 BYTE   N06
 BYTE   W12
 BYTE   Gs4
 BYTE   W12
 BYTE   As4
 BYTE   W24
 BYTE   PEND 
//  #06 //006   ----------------------------------------
Label_015737AD:
 BYTE   N06  Cn5  v064
 BYTE   W12
 BYTE   Fn4
 BYTE   W12
 BYTE   Cn4
 BYTE   W24
 BYTE   Fn4
 BYTE   W24
 BYTE   As4
 BYTE   W24
 BYTE   PEND 
//  #06 //007   ----------------------------------------
Label_015737BA:
 BYTE   W06
 BYTE   N06  Fn4  v064
 BYTE   W06
 BYTE   Cn4
 BYTE   W12
 BYTE   As4
 BYTE   W36
 BYTE   Fn4
 BYTE   W12
 BYTE   N06
 BYTE   N06  As4
 BYTE   W12
 BYTE   N06
 BYTE   N06  Fn5
 BYTE   W12
 BYTE   PEND 
//  #06 //008   ----------------------------------------
 BYTE   W96
//  #06 //009   ----------------------------------------
Label_015737CF:
 BYTE   W12
 BYTE   N06  Fn4  v064
 BYTE   W06
 BYTE   Cn4
 BYTE   W06
 BYTE   As3
 BYTE   W12
 BYTE   Fn3
 BYTE   W12
 BYTE   Gn3
 BYTE   W18
 BYTE   Cn3
 BYTE   W06
 BYTE   Gs3
 BYTE   W06
 BYTE   Fn4
 BYTE   W06
 BYTE   As4
 BYTE   W12
 BYTE   PEND 
//  #06 //010   ----------------------------------------
Label_015737E5:
 BYTE   N06  As3  v064
 BYTE   W06
 BYTE   Gs3
 BYTE   W06
 BYTE   Gn3
 BYTE   W06
 BYTE   Gs3
 BYTE   W06
 BYTE   N24  Ds4
 BYTE   W72
 BYTE   PEND 
//  #06 //011   ----------------------------------------
Label_015737F3:
 BYTE   W72
 BYTE   N06  As4  v064
 BYTE   W06
 BYTE   Gs4
 BYTE   W06
 BYTE   Gn4
 BYTE   W06
 BYTE   Gs4
 BYTE   W06
 BYTE   PEND 
//  #06 //012   ----------------------------------------
Label_015737FF:
 BYTE   N06  Fn4  v064
 BYTE   W06
 BYTE   Cn4
 BYTE   W06
 BYTE   Fn3
 BYTE   W48
 BYTE   Gn3
 BYTE   N06  Ds4
 BYTE   W12
 BYTE   Gs3
 BYTE   N06  Fn4
 BYTE   W12
 BYTE   As3
 BYTE   N06  Gn4
 BYTE   W12
 BYTE   PEND 
//  #06 //013   ----------------------------------------
Label_01573814:
 BYTE   N06  Fn4  v064
 BYTE   W06
 BYTE   En4
 BYTE   W06
 BYTE   Fn4
 BYTE   W06
 BYTE   Gn4
 BYTE   W06
 BYTE   Gs4
 BYTE   W06
 BYTE   Gn4
 BYTE   W06
 BYTE   Gs4
 BYTE   W06
 BYTE   As4
 BYTE   W06
 BYTE   N24  Cn5
 BYTE   W12
 BYTE   N06  Gn3
 BYTE   W06
 BYTE   Gs3
 BYTE   W06
 BYTE   Cn4
 BYTE   W06
 BYTE   Fn4
 BYTE   W06
 BYTE   As4
 BYTE   W06
 BYTE   Cn5
 BYTE   W06
 BYTE   PEND 
//  #06 //014   ----------------------------------------
 BYTE   W96
//  #06 //015   ----------------------------------------
 BYTE   W96
//  #06 //016   ----------------------------------------
 BYTE   W96
//  #06 //017   ----------------------------------------
 BYTE   W96
//  #06 //018   ----------------------------------------
 BYTE   W96
//  #06 //019   ----------------------------------------
 BYTE   W96
//  #06 //020   ----------------------------------------
Label_0157383D:
 BYTE   W96
//  #06 //021   ----------------------------------------
 BYTE   W96
//  #06 //022   ----------------------------------------
Label_0157383F:
 BYTE   N06  Gn3  v064
 BYTE   W24
 BYTE   N06
 BYTE   W12
 BYTE   N06
 BYTE   W48
 BYTE   N06
 BYTE   W12
 BYTE   PEND 
//  #06 //023   ----------------------------------------
Label_0157384A:
 BYTE   W12
 BYTE   N06  Gn3  v064
 BYTE   W72
 BYTE   Fn3
 BYTE   W12
 BYTE   PEND 
//  #06 //024   ----------------------------------------
 BYTE   PATT
  POIN2 Label_0157383F
//  #06 //025   ----------------------------------------
Label_01573857:
 BYTE   W12
 BYTE   N06  Gn3  v064
 BYTE   W12
 BYTE   N06
 BYTE   W24
 BYTE   N06
 BYTE   W36
 BYTE   Fn3
 BYTE   W12
 BYTE   PEND 
//  #06 //026   ----------------------------------------
 BYTE   PATT
  POIN2 Label_0157383F
//  #06 //027   ----------------------------------------
 BYTE   PATT
  POIN2 Label_0157384A
//  #06 //028   ----------------------------------------
 BYTE   PATT
  POIN2 Label_0157383F
//  #06 //029   ----------------------------------------
 BYTE   PATT
  POIN2 Label_01573857
//  #06 //030   ----------------------------------------
 BYTE   PATT
  POIN2 Label_0157383F
//  #06 //031   ----------------------------------------
 BYTE   PATT
  POIN2 Label_0157384A
//  #06 //032   ----------------------------------------
 BYTE   PATT
  POIN2 Label_0157383F
//  #06 //033   ----------------------------------------
 BYTE   PATT
  POIN2 Label_01573857
//  #06 //034   ----------------------------------------
 BYTE   PATT
  POIN2 Label_0157383F
//  #06 //035   ----------------------------------------
 BYTE   PATT
  POIN2 Label_0157384A
//  #06 //036   ----------------------------------------
 BYTE   PATT
  POIN2 Label_0157383F
//  #06 //037   ----------------------------------------
 BYTE   PATT
  POIN2 Label_01573857
//  #06 //038   ----------------------------------------
 BYTE   W96
//  #06 //039   ----------------------------------------
 BYTE   W96
//  #06 //040   ----------------------------------------
 BYTE   W96
//  #06 //041   ----------------------------------------
 BYTE   PATT
  POIN2 Label_01573781
//  #06 //042   ----------------------------------------
 BYTE   PATT
  POIN2 Label_0157378F
//  #06 //043   ----------------------------------------
 BYTE   PATT
  POIN2 Label_0157379B
//  #06 //044   ----------------------------------------
 BYTE   PATT
  POIN2 Label_015737AD
//  #06 //045   ----------------------------------------
 BYTE   PATT
  POIN2 Label_015737BA
//  #06 //046   ----------------------------------------
 BYTE   W96
//  #06 //047   ----------------------------------------
 BYTE   PATT
  POIN2 Label_015737CF
//  #06 //048   ----------------------------------------
 BYTE   PATT
  POIN2 Label_015737E5
//  #06 //049   ----------------------------------------
 BYTE   PATT
  POIN2 Label_015737F3
//  #06 //050   ----------------------------------------
 BYTE   PATT
  POIN2 Label_015737FF
//  #06 //051   ----------------------------------------
 BYTE   PATT
  POIN2 Label_01573814
//  #06 //052   ----------------------------------------
 BYTE   W96
//  #06 //053   ----------------------------------------
 BYTE   W96
//  #06 //054   ----------------------------------------
 BYTE   W96
//  #06 //055   ----------------------------------------
 BYTE   W96
//  #06 //056   ----------------------------------------
 BYTE   W96
//  #06 //057   ----------------------------------------
 BYTE   W96
//  #06 //058   ----------------------------------------
 BYTE   W96
//  #06 //059   ----------------------------------------
 BYTE   W96
//  #06 //060   ----------------------------------------
 BYTE   W96
//  #06 //061   ----------------------------------------
 BYTE   W96
//  #06 //062   ----------------------------------------
 BYTE   W96
//  #06 //063   ----------------------------------------
 BYTE   W96
//  #06 //064   ----------------------------------------
 BYTE   W96
//  #06 //065   ----------------------------------------
 BYTE   W96
//  #06 //066   ----------------------------------------
 BYTE   W96
//  #06 //067   ----------------------------------------
 BYTE   W96
//  #06 //068   ----------------------------------------
 BYTE   W96
//  #06 //069   ----------------------------------------
 BYTE   W96
//  #06 //070   ----------------------------------------
 BYTE   W96
//  #06 //071   ----------------------------------------
 BYTE   W96
//  #06 //072   ----------------------------------------
 BYTE   W96
//  #06 //073   ----------------------------------------
 BYTE   PATT
  POIN2 Label_01573781
//  #06 //074   ----------------------------------------
 BYTE   PATT
  POIN2 Label_0157378F
//  #06 //075   ----------------------------------------
 BYTE   PATT
  POIN2 Label_0157379B
//  #06 //076   ----------------------------------------
 BYTE   PATT
  POIN2 Label_015737AD
//  #06 //077   ----------------------------------------
 BYTE   PATT
  POIN2 Label_015737BA
//  #06 //078   ----------------------------------------
 BYTE   W96
//  #06 //079   ----------------------------------------
 BYTE   PATT
  POIN2 Label_015737CF
//  #06 //080   ----------------------------------------
 BYTE   PATT
  POIN2 Label_015737E5
//  #06 //081   ----------------------------------------
 BYTE   N06  As3  v064
 BYTE   W06
 BYTE   Gs3
 BYTE   W06
 BYTE   Gn3
 BYTE   W12
 BYTE   Fn3
 BYTE   W24
 BYTE   N06
 BYTE   W06
 BYTE   Cn3
 BYTE   W06
 BYTE   Fn3
 BYTE   W06
 BYTE   Gs3
 BYTE   W06
 BYTE   Fn3
 BYTE   W06
 BYTE   Cn3
 BYTE   W06
 BYTE   As4
 BYTE   W06
 BYTE   Gs4
 BYTE   W06
//  #06 //082   ----------------------------------------
 BYTE   Fn4
 BYTE   W12
 BYTE   Fn3
 BYTE   W24
 BYTE   Cn4
 BYTE   W24
 BYTE   Fn4
 BYTE   W36
//  #06 //083   ----------------------------------------
 BYTE   Gs4
 BYTE   W06
 BYTE   Fn4
 BYTE   W06
 BYTE   Gn4
 BYTE   W06
 BYTE   Ds4
 BYTE   W06
 BYTE   Fn4
 BYTE   W06
 BYTE   Cs4
 BYTE   W06
 BYTE   Ds4
 BYTE   W06
 BYTE   Cn4
 BYTE   W06
 BYTE   Gn4
 BYTE   W06
 BYTE   Ds4
 BYTE   W06
 BYTE   Cn4
 BYTE   W06
 BYTE   As3
 BYTE   W06
 BYTE   Fn3
 BYTE   W06
 BYTE   Cs3
 BYTE   W06
 BYTE   As2
 BYTE   W06
 BYTE   Gs2
 BYTE   W06
//  #06 //084   ----------------------------------------
 BYTE   W60
 BYTE   Fn3
 BYTE   W12
 BYTE   Fn4
 BYTE   N06  Gs4
 BYTE   W12
 BYTE   As4
 BYTE   W12
//  #06 //085   ----------------------------------------
 BYTE   N23  Gn4
 BYTE   N23  Cn5
 BYTE   W24
 BYTE   N06  As4
 BYTE   W12
 BYTE   Gs4
 BYTE   W12
 BYTE   Cn5
 BYTE   W06
 BYTE   Gs4
 BYTE   W06
 BYTE   Fn4
 BYTE   W06
 BYTE   Cn4
 BYTE   W06
 BYTE   Gs3
 BYTE   W06
 BYTE   Fn3
 BYTE   W06
 BYTE   Cn3
 BYTE   W06
 BYTE   Fn2
 BYTE   W06
//  #06 //086   ----------------------------------------
 BYTE   W96
//  #06 //087   ----------------------------------------
 BYTE   W96
//  #06 //088   ----------------------------------------
 BYTE   W96
//  #06 //089   ----------------------------------------
 BYTE   W96
//  #06 //090   ----------------------------------------
 BYTE   GoTo
  POIN2 Label_0157383D
 BYTE   FINE

//**************** Track 7 (Midi-Chn.6) ****************//

FeldschlactIII_007:
//  #07 //000   ----------------------------------------
 BYTE   KEYSH   FeldschlactIII_key+0
 BYTE   VOICE   1
 BYTE   VOL   51*FeldschlactIII_mvl/mxv
 BYTE   W96
//  #07 //001   ----------------------------------------
 BYTE   W96
//  #07 //002   ----------------------------------------
 BYTE   W96
//  #07 //003   ----------------------------------------
 BYTE   W96
//  #07 //004   ----------------------------------------
 BYTE   W96
//  #07 //005   ----------------------------------------
 BYTE   W96
//  #07 //006   ----------------------------------------
 BYTE   W96
//  #07 //007   ----------------------------------------
 BYTE   W96
//  #07 //008   ----------------------------------------
 BYTE   W96
//  #07 //009   ----------------------------------------
Label_01571833:
 BYTE   W24
 BYTE   N06  Fn4  v036
 BYTE   W06
 BYTE   Cn4
 BYTE   W06
 BYTE   As3
 BYTE   W12
 BYTE   Fn3
 BYTE   W12
 BYTE   Gn3
 BYTE   W18
 BYTE   Cn3
 BYTE   W06
 BYTE   Gs3
 BYTE   W06
 BYTE   Fn4
 BYTE   W06
 BYTE   PEND 
//  #07 //010   ----------------------------------------
Label_01571847:
 BYTE   N06  As4  v036
 BYTE   W12
 BYTE   As3
 BYTE   W06
 BYTE   Gs3
 BYTE   W06
 BYTE   Gn3
 BYTE   W06
 BYTE   Gs3
 BYTE   W06
 BYTE   N24  Ds4
 BYTE   W60
 BYTE   PEND 
//  #07 //011   ----------------------------------------
Label_01571857:
 BYTE   W84
 BYTE   N06  As4  v036
 BYTE   W06
 BYTE   Gs4
 BYTE   W06
 BYTE   PEND 
//  #07 //012   ----------------------------------------
Label_0157185F:
 BYTE   N06  Gn4  v036
 BYTE   W06
 BYTE   Gs4
 BYTE   W06
 BYTE   Fn4
 BYTE   W06
 BYTE   Cn4
 BYTE   W06
 BYTE   Fn3
 BYTE   W48
 BYTE   Gn3
 BYTE   N06  Ds4
 BYTE   W12
 BYTE   Gs3
 BYTE   N06  Fn4
 BYTE   W12
 BYTE   PEND 
//  #07 //013   ----------------------------------------
Label_01571874:
 BYTE   N06  As3  v036
 BYTE   N06  Gn4
 BYTE   W12
 BYTE   Fn4
 BYTE   W06
 BYTE   En4
 BYTE   W06
 BYTE   Fn4
 BYTE   W06
 BYTE   Gn4
 BYTE   W06
 BYTE   Gs4
 BYTE   W06
 BYTE   Gn4
 BYTE   W06
 BYTE   Gs4
 BYTE   W06
 BYTE   As4
 BYTE   W06
 BYTE   N24  Cn5
 BYTE   W12
 BYTE   N06  Gn3
 BYTE   W06
 BYTE   Gs3
 BYTE   W06
 BYTE   Cn4
 BYTE   W06
 BYTE   Fn4
 BYTE   W06
 BYTE   PEND 
//  #07 //014   ----------------------------------------
Label_01571897:
 BYTE   N06  As4  v036
 BYTE   W06
 BYTE   Cn5
 BYTE   W90
 BYTE   PEND 
//  #07 //015   ----------------------------------------
 BYTE   W96
//  #07 //016   ----------------------------------------
 BYTE   W96
//  #07 //017   ----------------------------------------
 BYTE   W96
//  #07 //018   ----------------------------------------
 BYTE   W96
//  #07 //019   ----------------------------------------
 BYTE   W96
//  #07 //020   ----------------------------------------
Label_015718A3:
 BYTE   W96
//  #07 //021   ----------------------------------------
 BYTE   W96
//  #07 //022   ----------------------------------------
 BYTE   W96
//  #07 //023   ----------------------------------------
 BYTE   W96
//  #07 //024   ----------------------------------------
 BYTE   W96
//  #07 //025   ----------------------------------------
 BYTE   W60
 BYTE   N06  Cn3  v064
 BYTE   W06
 BYTE   As2
 BYTE   W06
 BYTE   Fn2
 BYTE   W06
 BYTE   Cn3
 BYTE   W06
 BYTE   As2
 BYTE   W12
//  #07 //026   ----------------------------------------
 BYTE   W96
//  #07 //027   ----------------------------------------
 BYTE   W96
//  #07 //028   ----------------------------------------
 BYTE   W96
//  #07 //029   ----------------------------------------
 BYTE   W96
//  #07 //030   ----------------------------------------
 BYTE   W96
//  #07 //031   ----------------------------------------
 BYTE   W96
//  #07 //032   ----------------------------------------
 BYTE   W96
//  #07 //033   ----------------------------------------
 BYTE   W96
//  #07 //034   ----------------------------------------
 BYTE   W96
//  #07 //035   ----------------------------------------
 BYTE   W96
//  #07 //036   ----------------------------------------
 BYTE   W96
//  #07 //037   ----------------------------------------
 BYTE   W96
//  #07 //038   ----------------------------------------
 BYTE   W96
//  #07 //039   ----------------------------------------
 BYTE   W96
//  #07 //040   ----------------------------------------
 BYTE   W96
//  #07 //041   ----------------------------------------
Label_015718C4:
 BYTE   W72
 BYTE   N06  Cn4  v036
 BYTE   W12
 BYTE   N06
 BYTE   N06  Fn4
 BYTE   W12
 BYTE   PEND 
//  #07 //042   ----------------------------------------
Label_015718CE:
 BYTE   N06  Fn4  v036
 BYTE   N06  As4
 BYTE   W12
 BYTE   N48  Gn4
 BYTE   N48  Cn5
 BYTE   W84
 BYTE   PEND 
//  #07 //043   ----------------------------------------
Label_015718DA:
 BYTE   N06  Fn4  v036
 BYTE   N06  As4
 BYTE   W24
 BYTE   Fn4
 BYTE   N06  As4
 BYTE   W24
 BYTE   Fn4
 BYTE   N06  As4
 BYTE   W12
 BYTE   N06
 BYTE   W12
 BYTE   Gs4
 BYTE   W12
 BYTE   As4
 BYTE   W12
 BYTE   PEND 
//  #07 //044   ----------------------------------------
Label_015718EF:
 BYTE   W12
 BYTE   N06  Cn5  v036
 BYTE   W12
 BYTE   Fn4
 BYTE   W12
 BYTE   Cn4
 BYTE   W24
 BYTE   Fn4
 BYTE   W24
 BYTE   As4
 BYTE   W12
 BYTE   PEND 
//  #07 //045   ----------------------------------------
Label_015718FD:
 BYTE   W18
 BYTE   N06  Fn4  v036
 BYTE   W06
 BYTE   Cn4
 BYTE   W12
 BYTE   As4
 BYTE   W36
 BYTE   Fn4
 BYTE   W12
 BYTE   N06
 BYTE   N06  As4
 BYTE   W12
 BYTE   PEND 
//  #07 //046   ----------------------------------------
 BYTE   N06
 BYTE   N06  Fn5
 BYTE   W96
//  #07 //047   ----------------------------------------
 BYTE   PATT
  POIN2 Label_01571833
//  #07 //048   ----------------------------------------
 BYTE   PATT
  POIN2 Label_01571847
//  #07 //049   ----------------------------------------
 BYTE   PATT
  POIN2 Label_01571857
//  #07 //050   ----------------------------------------
 BYTE   PATT
  POIN2 Label_0157185F
//  #07 //051   ----------------------------------------
 BYTE   PATT
  POIN2 Label_01571874
//  #07 //052   ----------------------------------------
 BYTE   PATT
  POIN2 Label_01571897
//  #07 //053   ----------------------------------------
 BYTE   W96
//  #07 //054   ----------------------------------------
Label_01571930:
 BYTE   W84
 BYTE   N03  Cn5  v064
 BYTE   W06
 BYTE   As4
 BYTE   W06
 BYTE   PEND 
//  #07 //055   ----------------------------------------
Label_01571938:
 BYTE   N03  Gs4  v064
 BYTE   W06
 BYTE   N03
 BYTE   W06
 BYTE   Gn4
 BYTE   W06
 BYTE   Fn4
 BYTE   W06
 BYTE   Ds4
 BYTE   W06
 BYTE   Cs4
 BYTE   W06
 BYTE   Cn4
 BYTE   W06
 BYTE   As3
 BYTE   W06
 BYTE   Gs3
 BYTE   W06
 BYTE   Fn3
 BYTE   W06
 BYTE   Gn3
 BYTE   W06
 BYTE   Gs3
 BYTE   W06
 BYTE   As3
 BYTE   W06
 BYTE   Gn3
 BYTE   W06
 BYTE   Ds3
 BYTE   W06
 BYTE   Cs3
 BYTE   W06
 BYTE   PEND 
//  #07 //056   ----------------------------------------
Label_0157195B:
 BYTE   N03  Cn3  v064
 BYTE   W06
 BYTE   Ds3
 BYTE   W06
 BYTE   Fn3
 BYTE   W12
 BYTE   As3
 BYTE   W36
 BYTE   Gs3
 BYTE   W06
 BYTE   As3
 BYTE   W06
 BYTE   Cn4
 BYTE   W24
 BYTE   PEND 
//  #07 //057   ----------------------------------------
 BYTE   W96
//  #07 //058   ----------------------------------------
 BYTE   PATT
  POIN2 Label_01571930
//  #07 //059   ----------------------------------------
 BYTE   PATT
  POIN2 Label_01571938
//  #07 //060   ----------------------------------------
 BYTE   PATT
  POIN2 Label_0157195B
//  #07 //061   ----------------------------------------
 BYTE   W96
//  #07 //062   ----------------------------------------
 BYTE   PATT
  POIN2 Label_01571930
//  #07 //063   ----------------------------------------
 BYTE   PATT
  POIN2 Label_01571938
//  #07 //064   ----------------------------------------
 BYTE   PATT
  POIN2 Label_0157195B
//  #07 //065   ----------------------------------------
 BYTE   W96
//  #07 //066   ----------------------------------------
 BYTE   PATT
  POIN2 Label_01571930
//  #07 //067   ----------------------------------------
 BYTE   PATT
  POIN2 Label_01571938
//  #07 //068   ----------------------------------------
 BYTE   PATT
  POIN2 Label_0157195B
//  #07 //069   ----------------------------------------
 BYTE   W96
//  #07 //070   ----------------------------------------
 BYTE   W96
//  #07 //071   ----------------------------------------
 BYTE   W96
//  #07 //072   ----------------------------------------
 BYTE   W96
//  #07 //073   ----------------------------------------
 BYTE   PATT
  POIN2 Label_015718C4
//  #07 //074   ----------------------------------------
 BYTE   PATT
  POIN2 Label_015718CE
//  #07 //075   ----------------------------------------
 BYTE   PATT
  POIN2 Label_015718DA
//  #07 //076   ----------------------------------------
 BYTE   PATT
  POIN2 Label_015718EF
//  #07 //077   ----------------------------------------
 BYTE   PATT
  POIN2 Label_015718FD
//  #07 //078   ----------------------------------------
 BYTE   W96
//  #07 //079   ----------------------------------------
 BYTE   PATT
  POIN2 Label_01571833
//  #07 //080   ----------------------------------------
 BYTE   PATT
  POIN2 Label_01571847
//  #07 //081   ----------------------------------------
 BYTE   W12
 BYTE   N06  As3  v036
 BYTE   W06
 BYTE   Gs3
 BYTE   W06
 BYTE   Gn3
 BYTE   W12
 BYTE   Fn3
 BYTE   W24
 BYTE   N06
 BYTE   W06
 BYTE   Cn3
 BYTE   W06
 BYTE   Fn3
 BYTE   W06
 BYTE   Gs3
 BYTE   W06
 BYTE   Fn3
 BYTE   W06
 BYTE   Cn3
 BYTE   W06
//  #07 //082   ----------------------------------------
 BYTE   As4
 BYTE   W06
 BYTE   Gs4
 BYTE   W06
 BYTE   Fn4
 BYTE   W12
 BYTE   Fn3
 BYTE   W24
 BYTE   Cn4
 BYTE   W24
 BYTE   Fn4
 BYTE   W24
//  #07 //083   ----------------------------------------
 BYTE   W12
 BYTE   Gs4
 BYTE   W06
 BYTE   Fn4
 BYTE   W06
 BYTE   Gn4
 BYTE   W06
 BYTE   Ds4
 BYTE   W06
 BYTE   Fn4
 BYTE   W06
 BYTE   Cs4
 BYTE   W06
 BYTE   Ds4
 BYTE   W06
 BYTE   Cn4
 BYTE   W06
 BYTE   Gn4
 BYTE   W06
 BYTE   Ds4
 BYTE   W06
 BYTE   Cn4
 BYTE   W06
 BYTE   As3
 BYTE   W06
 BYTE   Fn3
 BYTE   W06
 BYTE   Cs3
 BYTE   W06
//  #07 //084   ----------------------------------------
 BYTE   As2
 BYTE   W06
 BYTE   Gs2
 BYTE   W66
 BYTE   Fn3
 BYTE   W12
 BYTE   Fn4
 BYTE   N06  Gs4
 BYTE   W12
//  #07 //085   ----------------------------------------
 BYTE   As4
 BYTE   W12
 BYTE   N23  Gn4
 BYTE   N23  Cn5
 BYTE   W24
 BYTE   N06  As4
 BYTE   W12
 BYTE   Gs4
 BYTE   W12
 BYTE   Cn5
 BYTE   W06
 BYTE   Gs4
 BYTE   W06
 BYTE   Fn4
 BYTE   W06
 BYTE   Cn4
 BYTE   W06
 BYTE   Gs3
 BYTE   W06
 BYTE   Fn3
 BYTE   W06
//  #07 //086   ----------------------------------------
 BYTE   Cn3
 BYTE   W06
 BYTE   Fn2
 BYTE   W90
//  #07 //087   ----------------------------------------
 BYTE   W96
//  #07 //088   ----------------------------------------
 BYTE   W96
//  #07 //089   ----------------------------------------
 BYTE   W96
//  #07 //090   ----------------------------------------
 BYTE   GoTo
  POIN2 Label_015718A3
 BYTE   FINE

//**************** Track 8 (Midi-Chn.7) ****************//

FeldschlactIII_008:
//  #08 //000   ----------------------------------------
 BYTE   KEYSH   FeldschlactIII_key+0
 BYTE   VOICE   42
 BYTE   VOL   51*FeldschlactIII_mvl/mxv
 BYTE   PAN   c_v+24
 BYTE   W96
//  #08 //001   ----------------------------------------
 BYTE   W96
//  #08 //002   ----------------------------------------
 BYTE   W96
//  #08 //003   ----------------------------------------
 BYTE   W96
//  #08 //004   ----------------------------------------
 BYTE   W96
//  #08 //005   ----------------------------------------
 BYTE   W96
//  #08 //006   ----------------------------------------
 BYTE   W96
//  #08 //007   ----------------------------------------
 BYTE   W96
//  #08 //008   ----------------------------------------
Label_0157344C:
 BYTE   N60  Fn4  v064
 BYTE   W60
 BYTE   N12  Ds4
 BYTE   N12  Fn4  v036
 BYTE   W12
 BYTE   Ds4
 BYTE   N12  Fn4  v064
 BYTE   W12
 BYTE   Fn4  v036
 BYTE   N12  Gn4  v064
 BYTE   W12
 BYTE   PEND 
//  #08 //009   ----------------------------------------
Label_01573462:
 BYTE   N12  Gn4  v036
 BYTE   N36  Gs4  v064
 BYTE   W36
 BYTE   N12  Gs4  v036
 BYTE   N12  As4  v064
 BYTE   W12
 BYTE   As4  v036
 BYTE   N48  Cn5  v064
 BYTE   W48
 BYTE   PEND 
//  #08 //010   ----------------------------------------
Label_01573477:
 BYTE   N24  Cn5  v064
 BYTE   W24
 BYTE   Fn4
 BYTE   N12  Cn5  v036
 BYTE   W24
 BYTE   Fn4
 BYTE   N24  As4  v064
 BYTE   W24
 BYTE   N12  Gs4
 BYTE   N12  As4  v036
 BYTE   W12
 BYTE   Gn4  v064
 BYTE   N12  Gs4  v036
 BYTE   W12
 BYTE   PEND 
//  #08 //011   ----------------------------------------
Label_01573492:
 BYTE   N24  Fn4  v064
 BYTE   N12  Gn4  v036
 BYTE   W24
 BYTE   Fn4
 BYTE   N12  Gn4  v064
 BYTE   W12
 BYTE   N36  Fn4
 BYTE   N12  Gn4  v036
 BYTE   W36
 BYTE   N24  Cn4  v064
 BYTE   N12  Fn4  v036
 BYTE   W24
 BYTE   PEND 
//  #08 //012   ----------------------------------------
Label_015734AC:
 BYTE   N12  Cn4  v036
 BYTE   W24
 BYTE   N36  Fn4  v064
 BYTE   W36
 BYTE   N12  Ds4
 BYTE   N12  Fn4  v036
 BYTE   W12
 BYTE   Ds4
 BYTE   N12  Fn4  v064
 BYTE   W12
 BYTE   Fn4  v036
 BYTE   N12  Gn4  v064
 BYTE   W12
 BYTE   PEND 
//  #08 //013   ----------------------------------------
 BYTE   PATT
  POIN2 Label_01573462
//  #08 //014   ----------------------------------------
 BYTE   PATT
  POIN2 Label_01573477
//  #08 //015   ----------------------------------------
Label_015734D0:
 BYTE   N24  Fn4  v064
 BYTE   N12  Gn4  v036
 BYTE   W24
 BYTE   Fn4
 BYTE   N12  Gn4  v064
 BYTE   W12
 BYTE   N36  Fn4
 BYTE   N12  Gn4  v036
 BYTE   W36
 BYTE   N24  En4  v064
 BYTE   N12  Fn4  v036
 BYTE   W24
 BYTE   PEND 
//  #08 //016   ----------------------------------------
Label_015734EA:
 BYTE   N12  En4  v036
 BYTE   TIE  Fn4  v064
 BYTE   W96
 BYTE   PEND 
//  #08 //017   ----------------------------------------
 BYTE   W96
//  #08 //018   ----------------------------------------
 BYTE   EOT
 BYTE   N12  Fn4  v036
 BYTE   W96
//  #08 //019   ----------------------------------------
 BYTE   W96
//  #08 //020   ----------------------------------------
Label_015734F9:
 BYTE   W96
//  #08 //021   ----------------------------------------
 BYTE   W96
//  #08 //022   ----------------------------------------
 BYTE   W96
//  #08 //023   ----------------------------------------
 BYTE   W96
//  #08 //024   ----------------------------------------
 BYTE   W96
//  #08 //025   ----------------------------------------
 BYTE   W96
//  #08 //026   ----------------------------------------
 BYTE   W96
//  #08 //027   ----------------------------------------
 BYTE   W96
//  #08 //028   ----------------------------------------
 BYTE   W96
//  #08 //029   ----------------------------------------
 BYTE   W96
//  #08 //030   ----------------------------------------
 BYTE   W96
//  #08 //031   ----------------------------------------
 BYTE   W96
//  #08 //032   ----------------------------------------
 BYTE   W96
//  #08 //033   ----------------------------------------
 BYTE   W96
//  #08 //034   ----------------------------------------
 BYTE   W96
//  #08 //035   ----------------------------------------
 BYTE   W96
//  #08 //036   ----------------------------------------
 BYTE   W96
//  #08 //037   ----------------------------------------
 BYTE   W96
//  #08 //038   ----------------------------------------
 BYTE   W96
//  #08 //039   ----------------------------------------
 BYTE   W96
//  #08 //040   ----------------------------------------
 BYTE   W96
//  #08 //041   ----------------------------------------
 BYTE   W96
//  #08 //042   ----------------------------------------
 BYTE   W96
//  #08 //043   ----------------------------------------
 BYTE   W96
//  #08 //044   ----------------------------------------
 BYTE   W96
//  #08 //045   ----------------------------------------
 BYTE   W96
//  #08 //046   ----------------------------------------
 BYTE   PATT
  POIN2 Label_0157344C
//  #08 //047   ----------------------------------------
 BYTE   PATT
  POIN2 Label_01573462
//  #08 //048   ----------------------------------------
 BYTE   PATT
  POIN2 Label_01573477
//  #08 //049   ----------------------------------------
 BYTE   PATT
  POIN2 Label_01573492
//  #08 //050   ----------------------------------------
 BYTE   PATT
  POIN2 Label_015734AC
//  #08 //051   ----------------------------------------
 BYTE   N12  Gn4  v036
 BYTE   N36  Gs4  v064
 BYTE   W36
 BYTE   N12  Gs4  v036
 BYTE   N12  As4  v064
 BYTE   W12
 BYTE   As4  v036
 BYTE   TIE  Cn5  v064
 BYTE   W48
//  #08 //052   ----------------------------------------
 BYTE   W96
//  #08 //053   ----------------------------------------
 BYTE   W96
//  #08 //054   ----------------------------------------
 BYTE   EOT
 BYTE   N12  Cn5  v036
 BYTE   W96
//  #08 //055   ----------------------------------------
 BYTE   W96
//  #08 //056   ----------------------------------------
 BYTE   W96
//  #08 //057   ----------------------------------------
 BYTE   W96
//  #08 //058   ----------------------------------------
 BYTE   W96
//  #08 //059   ----------------------------------------
 BYTE   W96
//  #08 //060   ----------------------------------------
 BYTE   W96
//  #08 //061   ----------------------------------------
 BYTE   W96
//  #08 //062   ----------------------------------------
 BYTE   W96
//  #08 //063   ----------------------------------------
 BYTE   W96
//  #08 //064   ----------------------------------------
 BYTE   W96
//  #08 //065   ----------------------------------------
 BYTE   W96
//  #08 //066   ----------------------------------------
 BYTE   W96
//  #08 //067   ----------------------------------------
 BYTE   W96
//  #08 //068   ----------------------------------------
 BYTE   W96
//  #08 //069   ----------------------------------------
 BYTE   W96
//  #08 //070   ----------------------------------------
 BYTE   W96
//  #08 //071   ----------------------------------------
 BYTE   W96
//  #08 //072   ----------------------------------------
 BYTE   W96
//  #08 //073   ----------------------------------------
 BYTE   W96
//  #08 //074   ----------------------------------------
 BYTE   W96
//  #08 //075   ----------------------------------------
 BYTE   W96
//  #08 //076   ----------------------------------------
 BYTE   W96
//  #08 //077   ----------------------------------------
 BYTE   W96
//  #08 //078   ----------------------------------------
 BYTE   PATT
  POIN2 Label_0157344C
//  #08 //079   ----------------------------------------
 BYTE   PATT
  POIN2 Label_01573462
//  #08 //080   ----------------------------------------
 BYTE   PATT
  POIN2 Label_01573477
//  #08 //081   ----------------------------------------
 BYTE   PATT
  POIN2 Label_01573492
//  #08 //082   ----------------------------------------
 BYTE   PATT
  POIN2 Label_015734AC
//  #08 //083   ----------------------------------------
 BYTE   PATT
  POIN2 Label_01573462
//  #08 //084   ----------------------------------------
 BYTE   PATT
  POIN2 Label_01573477
//  #08 //085   ----------------------------------------
 BYTE   PATT
  POIN2 Label_015734D0
//  #08 //086   ----------------------------------------
 BYTE   PATT
  POIN2 Label_015734EA
//  #08 //087   ----------------------------------------
 BYTE   W96
//  #08 //088   ----------------------------------------
 BYTE   EOT
 BYTE   Fn4
 BYTE   N12  Fn4  v036
 BYTE   W96
//  #08 //089   ----------------------------------------
 BYTE   W96
//  #08 //090   ----------------------------------------
 BYTE   GoTo
  POIN2 Label_015734F9
 BYTE   FINE

//**************** Track 9 (Midi-Chn.8) ****************//

FeldschlactIII_009:
//  #09 //000   ----------------------------------------
 BYTE   KEYSH   FeldschlactIII_key+0
 BYTE   VOICE   40
 BYTE   VOL   51*FeldschlactIII_mvl/mxv
 BYTE   PAN   c_v-26
 BYTE   W96
//  #09 //001   ----------------------------------------
 BYTE   W96
//  #09 //002   ----------------------------------------
 BYTE   W96
//  #09 //003   ----------------------------------------
 BYTE   W96
//  #09 //004   ----------------------------------------
 BYTE   W96
//  #09 //005   ----------------------------------------
 BYTE   W96
//  #09 //006   ----------------------------------------
 BYTE   W96
//  #09 //007   ----------------------------------------
 BYTE   W96
//  #09 //008   ----------------------------------------
Label_015725C0:
 BYTE   N48  Gs2  v064
 BYTE   W48
 BYTE   Gn2
 BYTE   W48
 BYTE   PEND 
//  #09 //009   ----------------------------------------
 BYTE   Fs2
 BYTE   W48
 BYTE   Fn2
 BYTE   W48
//  #09 //010   ----------------------------------------
 BYTE   Cn2
 BYTE   W48
 BYTE   Fn2
 BYTE   W48
//  #09 //011   ----------------------------------------
 BYTE   Cn2
 BYTE   W48
 BYTE   Dn2
 BYTE   W48
//  #09 //012   ----------------------------------------
 BYTE   PATT
  POIN2 Label_015725C0
//  #09 //013   ----------------------------------------
 BYTE   N48  As2  v064
 BYTE   W48
 BYTE   Gs2
 BYTE   W24
 BYTE   N24  Fs2
 BYTE   W24
//  #09 //014   ----------------------------------------
 BYTE   N48  Fn2
 BYTE   W48
 BYTE   Gn2
 BYTE   W48
//  #09 //015   ----------------------------------------
 BYTE   N24  Gs2
 BYTE   W24
 BYTE   N12  Fs2
 BYTE   W12
 BYTE   N36  Fn2
 BYTE   W36
 BYTE   N24  En2
 BYTE   W24
//  #09 //016   ----------------------------------------
 BYTE   N48  Cn3
 BYTE   W48
 BYTE   Bn2
 BYTE   W48
//  #09 //017   ----------------------------------------
 BYTE   As2
 BYTE   W24
 BYTE   N12  Ds3
 BYTE   W12
 BYTE   Ds3  v036
 BYTE   N12  Gs3  v064
 BYTE   W12
 BYTE   N48  Ds3
 BYTE   N12  Gs3  v036
 BYTE   N48  As3  v064
 BYTE   W48
//  #09 //018   ----------------------------------------
 BYTE   Gs2
 BYTE   N12  As3  v036
 BYTE   W48
 BYTE   N48  Gn2  v064
 BYTE   W48
//  #09 //019   ----------------------------------------
 BYTE   Fs2
 BYTE   W48
 BYTE   Ds2
 BYTE   W48
//  #09 //020   ----------------------------------------
Label_01572618:
 BYTE   W96
//  #09 //021   ----------------------------------------
 BYTE   W96
//  #09 //022   ----------------------------------------
 BYTE   W96
//  #09 //023   ----------------------------------------
 BYTE   W96
//  #09 //024   ----------------------------------------
 BYTE   W96
//  #09 //025   ----------------------------------------
 BYTE   W96
//  #09 //026   ----------------------------------------
 BYTE   W96
//  #09 //027   ----------------------------------------
 BYTE   W96
//  #09 //028   ----------------------------------------
 BYTE   W96
//  #09 //029   ----------------------------------------
 BYTE   W96
//  #09 //030   ----------------------------------------
 BYTE   W96
//  #09 //031   ----------------------------------------
 BYTE   W96
//  #09 //032   ----------------------------------------
 BYTE   W96
//  #09 //033   ----------------------------------------
 BYTE   W96
//  #09 //034   ----------------------------------------
 BYTE   W96
//  #09 //035   ----------------------------------------
 BYTE   W96
//  #09 //036   ----------------------------------------
 BYTE   W96
//  #09 //037   ----------------------------------------
 BYTE   W96
//  #09 //038   ----------------------------------------
 BYTE   W96
//  #09 //039   ----------------------------------------
 BYTE   W96
//  #09 //040   ----------------------------------------
 BYTE   W96
//  #09 //041   ----------------------------------------
 BYTE   W96
//  #09 //042   ----------------------------------------
 BYTE   W96
//  #09 //043   ----------------------------------------
 BYTE   W96
//  #09 //044   ----------------------------------------
 BYTE   W96
//  #09 //045   ----------------------------------------
 BYTE   W96
//  #09 //046   ----------------------------------------
 BYTE   W96
//  #09 //047   ----------------------------------------
 BYTE   W96
//  #09 //048   ----------------------------------------
 BYTE   W96
//  #09 //049   ----------------------------------------
 BYTE   W96
//  #09 //050   ----------------------------------------
 BYTE   W96
//  #09 //051   ----------------------------------------
 BYTE   W96
//  #09 //052   ----------------------------------------
 BYTE   W96
//  #09 //053   ----------------------------------------
 BYTE   W96
//  #09 //054   ----------------------------------------
 BYTE   W96
//  #09 //055   ----------------------------------------
 BYTE   W96
//  #09 //056   ----------------------------------------
 BYTE   W96
//  #09 //057   ----------------------------------------
 BYTE   W96
//  #09 //058   ----------------------------------------
 BYTE   W96
//  #09 //059   ----------------------------------------
 BYTE   W96
//  #09 //060   ----------------------------------------
 BYTE   W96
//  #09 //061   ----------------------------------------
 BYTE   W96
//  #09 //062   ----------------------------------------
 BYTE   W96
//  #09 //063   ----------------------------------------
 BYTE   W96
//  #09 //064   ----------------------------------------
 BYTE   W96
//  #09 //065   ----------------------------------------
 BYTE   W96
//  #09 //066   ----------------------------------------
 BYTE   W96
//  #09 //067   ----------------------------------------
 BYTE   W96
//  #09 //068   ----------------------------------------
 BYTE   W96
//  #09 //069   ----------------------------------------
 BYTE   W96
//  #09 //070   ----------------------------------------
 BYTE   W96
//  #09 //071   ----------------------------------------
 BYTE   W96
//  #09 //072   ----------------------------------------
 BYTE   W96
//  #09 //073   ----------------------------------------
 BYTE   W96
//  #09 //074   ----------------------------------------
 BYTE   W96
//  #09 //075   ----------------------------------------
 BYTE   W96
//  #09 //076   ----------------------------------------
 BYTE   W96
//  #09 //077   ----------------------------------------
 BYTE   W96
//  #09 //078   ----------------------------------------
 BYTE   W96
//  #09 //079   ----------------------------------------
 BYTE   W96
//  #09 //080   ----------------------------------------
 BYTE   W96
//  #09 //081   ----------------------------------------
 BYTE   W96
//  #09 //082   ----------------------------------------
 BYTE   W96
//  #09 //083   ----------------------------------------
 BYTE   W96
//  #09 //084   ----------------------------------------
 BYTE   W96
//  #09 //085   ----------------------------------------
 BYTE   W96
//  #09 //086   ----------------------------------------
 BYTE   N48  Cn3  v056
 BYTE   W48
 BYTE   Bn2
 BYTE   W48
//  #09 //087   ----------------------------------------
 BYTE   As2
 BYTE   W48
 BYTE   Ds3
 BYTE   W48
//  #09 //088   ----------------------------------------
 BYTE   Gs2
 BYTE   W48
 BYTE   Gn2
 BYTE   W48
//  #09 //089   ----------------------------------------
 BYTE   Fs2
 BYTE   W48
 BYTE   Ds2
 BYTE   W48
//  #09 //090   ----------------------------------------
 BYTE   GoTo
  POIN2 Label_01572618
 BYTE   FINE

//**************** Track 10 (Midi-Chn.9) ****************//

FeldschlactIII_010:
//  #10 //000   ----------------------------------------
 BYTE   KEYSH   FeldschlactIII_key+0
 BYTE   VOICE   40
 BYTE   VOL   51*FeldschlactIII_mvl/mxv
 BYTE   PAN   c_v+24
 BYTE   W96
//  #10 //001   ----------------------------------------
 BYTE   W96
//  #10 //002   ----------------------------------------
 BYTE   W96
//  #10 //003   ----------------------------------------
 BYTE   W96
//  #10 //004   ----------------------------------------
 BYTE   W96
//  #10 //005   ----------------------------------------
 BYTE   W96
//  #10 //006   ----------------------------------------
 BYTE   W96
//  #10 //007   ----------------------------------------
 BYTE   W96
//  #10 //008   ----------------------------------------
 BYTE   W96
//  #10 //009   ----------------------------------------
 BYTE   W96
//  #10 //010   ----------------------------------------
 BYTE   W96
//  #10 //011   ----------------------------------------
 BYTE   W96
//  #10 //012   ----------------------------------------
 BYTE   W96
//  #10 //013   ----------------------------------------
 BYTE   W96
//  #10 //014   ----------------------------------------
 BYTE   W96
//  #10 //015   ----------------------------------------
 BYTE   W96
//  #10 //016   ----------------------------------------
 BYTE   W96
//  #10 //017   ----------------------------------------
 BYTE   W96
//  #10 //018   ----------------------------------------
 BYTE   W96
//  #10 //019   ----------------------------------------
 BYTE   W24
 BYTE   N12  Bn2  v064
 BYTE   W12
 BYTE   Bn2  v036
 BYTE   N12  En3  v064
 BYTE   W12
 BYTE   En3  v036
 BYTE   N48  Fs3  v064
 BYTE   W48
//  #10 //020   ----------------------------------------
Label_015726A0:
 BYTE   N12  Fs3  v036
 BYTE   W96
//  #10 //021   ----------------------------------------
 BYTE   W96
//  #10 //022   ----------------------------------------
 BYTE   W96
//  #10 //023   ----------------------------------------
 BYTE   W96
//  #10 //024   ----------------------------------------
 BYTE   W96
//  #10 //025   ----------------------------------------
 BYTE   W96
//  #10 //026   ----------------------------------------
 BYTE   W96
//  #10 //027   ----------------------------------------
 BYTE   W96
//  #10 //028   ----------------------------------------
 BYTE   W96
//  #10 //029   ----------------------------------------
 BYTE   W96
//  #10 //030   ----------------------------------------
 BYTE   W96
//  #10 //031   ----------------------------------------
 BYTE   W96
//  #10 //032   ----------------------------------------
 BYTE   W96
//  #10 //033   ----------------------------------------
 BYTE   W96
//  #10 //034   ----------------------------------------
 BYTE   W96
//  #10 //035   ----------------------------------------
 BYTE   W96
//  #10 //036   ----------------------------------------
 BYTE   W96
//  #10 //037   ----------------------------------------
 BYTE   W96
//  #10 //038   ----------------------------------------
 BYTE   W96
//  #10 //039   ----------------------------------------
 BYTE   W96
//  #10 //040   ----------------------------------------
 BYTE   W96
//  #10 //041   ----------------------------------------
 BYTE   W96
//  #10 //042   ----------------------------------------
 BYTE   W96
//  #10 //043   ----------------------------------------
 BYTE   W96
//  #10 //044   ----------------------------------------
 BYTE   W96
//  #10 //045   ----------------------------------------
 BYTE   W96
//  #10 //046   ----------------------------------------
 BYTE   W96
//  #10 //047   ----------------------------------------
 BYTE   W96
//  #10 //048   ----------------------------------------
 BYTE   W96
//  #10 //049   ----------------------------------------
 BYTE   W96
//  #10 //050   ----------------------------------------
 BYTE   W96
//  #10 //051   ----------------------------------------
 BYTE   W96
//  #10 //052   ----------------------------------------
 BYTE   W96
//  #10 //053   ----------------------------------------
 BYTE   W96
//  #10 //054   ----------------------------------------
 BYTE   W96
//  #10 //055   ----------------------------------------
 BYTE   W96
//  #10 //056   ----------------------------------------
 BYTE   W96
//  #10 //057   ----------------------------------------
 BYTE   W96
//  #10 //058   ----------------------------------------
 BYTE   W96
//  #10 //059   ----------------------------------------
 BYTE   W96
//  #10 //060   ----------------------------------------
 BYTE   W96
//  #10 //061   ----------------------------------------
 BYTE   W96
//  #10 //062   ----------------------------------------
 BYTE   W96
//  #10 //063   ----------------------------------------
 BYTE   W96
//  #10 //064   ----------------------------------------
 BYTE   W96
//  #10 //065   ----------------------------------------
 BYTE   W96
//  #10 //066   ----------------------------------------
 BYTE   W96
//  #10 //067   ----------------------------------------
 BYTE   W96
//  #10 //068   ----------------------------------------
 BYTE   W96
//  #10 //069   ----------------------------------------
 BYTE   W96
//  #10 //070   ----------------------------------------
 BYTE   W96
//  #10 //071   ----------------------------------------
 BYTE   W96
//  #10 //072   ----------------------------------------
 BYTE   W96
//  #10 //073   ----------------------------------------
 BYTE   W96
//  #10 //074   ----------------------------------------
 BYTE   W96
//  #10 //075   ----------------------------------------
 BYTE   W96
//  #10 //076   ----------------------------------------
 BYTE   W96
//  #10 //077   ----------------------------------------
 BYTE   W96
//  #10 //078   ----------------------------------------
 BYTE   W96
//  #10 //079   ----------------------------------------
 BYTE   W96
//  #10 //080   ----------------------------------------
 BYTE   W96
//  #10 //081   ----------------------------------------
 BYTE   W96
//  #10 //082   ----------------------------------------
 BYTE   W96
//  #10 //083   ----------------------------------------
 BYTE   W96
//  #10 //084   ----------------------------------------
 BYTE   W96
//  #10 //085   ----------------------------------------
 BYTE   W96
//  #10 //086   ----------------------------------------
 BYTE   W96
//  #10 //087   ----------------------------------------
 BYTE   W96
//  #10 //088   ----------------------------------------
 BYTE   W96
//  #10 //089   ----------------------------------------
 BYTE   W96
//  #10 //090   ----------------------------------------
 BYTE   GoTo
  POIN2 Label_015726A0
 BYTE   FINE

//**************** Track 11 (Midi-Chn.10) ****************//

FeldschlactIII_011:
//  #11 //000   ----------------------------------------
 BYTE   KEYSH   FeldschlactIII_key+0
 BYTE   VOICE   20
 BYTE   VOL   51*FeldschlactIII_mvl/mxv
 BYTE   W96
//  #11 //001   ----------------------------------------
 BYTE   W96
//  #11 //002   ----------------------------------------
 BYTE   W96
//  #11 //003   ----------------------------------------
 BYTE   W96
//  #11 //004   ----------------------------------------
 BYTE   W96
//  #11 //005   ----------------------------------------
 BYTE   W96
//  #11 //006   ----------------------------------------
 BYTE   W96
//  #11 //007   ----------------------------------------
 BYTE   W96
//  #11 //008   ----------------------------------------
 BYTE   W96
//  #11 //009   ----------------------------------------
 BYTE   W96
//  #11 //010   ----------------------------------------
 BYTE   W96
//  #11 //011   ----------------------------------------
 BYTE   W96
//  #11 //012   ----------------------------------------
 BYTE   W96
//  #11 //013   ----------------------------------------
 BYTE   W96
//  #11 //014   ----------------------------------------
 BYTE   W96
//  #11 //015   ----------------------------------------
 BYTE   W96
//  #11 //016   ----------------------------------------
 BYTE   N96  Fn3  v064
 BYTE   N72  Fn4
 BYTE   W72
 BYTE   TIE
 BYTE   W24
//  #11 //017   ----------------------------------------
 BYTE   N96  Fn3
 BYTE   W96
//  #11 //018   ----------------------------------------
 BYTE   EOT
 BYTE   Fn4
 BYTE   N96  Cs3
 BYTE   N72  Cs4
 BYTE   W72
 BYTE   TIE
 BYTE   W24
//  #11 //019   ----------------------------------------
 BYTE   N96  Cs3
 BYTE   W96
//  #11 //020   ----------------------------------------
 BYTE   EOT
 BYTE   Cs4
Label_01571A63:
 BYTE   W96
//  #11 //021   ----------------------------------------
 BYTE   W96
//  #11 //022   ----------------------------------------
 BYTE   W96
//  #11 //023   ----------------------------------------
 BYTE   W96
//  #11 //024   ----------------------------------------
 BYTE   W96
//  #11 //025   ----------------------------------------
 BYTE   W96
//  #11 //026   ----------------------------------------
 BYTE   W96
//  #11 //027   ----------------------------------------
 BYTE   W96
//  #11 //028   ----------------------------------------
 BYTE   W96
//  #11 //029   ----------------------------------------
 BYTE   W96
//  #11 //030   ----------------------------------------
 BYTE   W96
//  #11 //031   ----------------------------------------
 BYTE   W96
//  #11 //032   ----------------------------------------
 BYTE   W96
//  #11 //033   ----------------------------------------
 BYTE   W96
//  #11 //034   ----------------------------------------
 BYTE   W96
//  #11 //035   ----------------------------------------
 BYTE   W96
//  #11 //036   ----------------------------------------
 BYTE   W96
//  #11 //037   ----------------------------------------
 BYTE   W96
//  #11 //038   ----------------------------------------
 BYTE   W96
//  #11 //039   ----------------------------------------
 BYTE   W96
//  #11 //040   ----------------------------------------
 BYTE   W96
//  #11 //041   ----------------------------------------
 BYTE   W96
//  #11 //042   ----------------------------------------
 BYTE   W96
//  #11 //043   ----------------------------------------
 BYTE   W96
//  #11 //044   ----------------------------------------
 BYTE   W96
//  #11 //045   ----------------------------------------
 BYTE   W96
//  #11 //046   ----------------------------------------
 BYTE   W96
//  #11 //047   ----------------------------------------
 BYTE   W96
//  #11 //048   ----------------------------------------
 BYTE   W96
//  #11 //049   ----------------------------------------
 BYTE   W96
//  #11 //050   ----------------------------------------
 BYTE   W96
//  #11 //051   ----------------------------------------
 BYTE   W96
//  #11 //052   ----------------------------------------
 BYTE   W96
//  #11 //053   ----------------------------------------
 BYTE   W96
//  #11 //054   ----------------------------------------
 BYTE   W96
//  #11 //055   ----------------------------------------
 BYTE   W96
//  #11 //056   ----------------------------------------
 BYTE   W96
//  #11 //057   ----------------------------------------
 BYTE   W96
//  #11 //058   ----------------------------------------
 BYTE   W96
//  #11 //059   ----------------------------------------
 BYTE   W96
//  #11 //060   ----------------------------------------
 BYTE   W96
//  #11 //061   ----------------------------------------
 BYTE   W96
//  #11 //062   ----------------------------------------
 BYTE   W96
//  #11 //063   ----------------------------------------
 BYTE   W96
//  #11 //064   ----------------------------------------
 BYTE   W96
//  #11 //065   ----------------------------------------
 BYTE   W96
//  #11 //066   ----------------------------------------
 BYTE   W96
//  #11 //067   ----------------------------------------
 BYTE   W96
//  #11 //068   ----------------------------------------
 BYTE   W96
//  #11 //069   ----------------------------------------
 BYTE   W96
//  #11 //070   ----------------------------------------
 BYTE   W96
//  #11 //071   ----------------------------------------
 BYTE   W96
//  #11 //072   ----------------------------------------
 BYTE   W96
//  #11 //073   ----------------------------------------
 BYTE   W96
//  #11 //074   ----------------------------------------
 BYTE   W96
//  #11 //075   ----------------------------------------
 BYTE   W96
//  #11 //076   ----------------------------------------
 BYTE   W96
//  #11 //077   ----------------------------------------
 BYTE   W96
//  #11 //078   ----------------------------------------
 BYTE   W96
//  #11 //079   ----------------------------------------
 BYTE   W96
//  #11 //080   ----------------------------------------
 BYTE   W96
//  #11 //081   ----------------------------------------
 BYTE   W96
//  #11 //082   ----------------------------------------
 BYTE   W96
//  #11 //083   ----------------------------------------
 BYTE   W96
//  #11 //084   ----------------------------------------
 BYTE   W96
//  #11 //085   ----------------------------------------
 BYTE   W96
//  #11 //086   ----------------------------------------
 BYTE   W96
//  #11 //087   ----------------------------------------
 BYTE   W96
//  #11 //088   ----------------------------------------
 BYTE   W96
//  #11 //089   ----------------------------------------
 BYTE   W96
//  #11 //090   ----------------------------------------
 BYTE   GoTo
  POIN2 Label_01571A63
 BYTE   FINE

//**************** Track 12 (Midi-Chn.11) ****************//

FeldschlactIII_012:
//  #12 //000   ----------------------------------------
 BYTE   KEYSH   FeldschlactIII_key+0
 BYTE   VOICE   20
 BYTE   VOL   51*FeldschlactIII_mvl/mxv
 BYTE   W96
//  #12 //001   ----------------------------------------
 BYTE   W96
//  #12 //002   ----------------------------------------
 BYTE   W96
//  #12 //003   ----------------------------------------
 BYTE   W96
//  #12 //004   ----------------------------------------
 BYTE   W96
//  #12 //005   ----------------------------------------
 BYTE   W96
//  #12 //006   ----------------------------------------
 BYTE   W96
//  #12 //007   ----------------------------------------
 BYTE   W96
//  #12 //008   ----------------------------------------
 BYTE   W96
//  #12 //009   ----------------------------------------
 BYTE   W96
//  #12 //010   ----------------------------------------
 BYTE   W96
//  #12 //011   ----------------------------------------
 BYTE   W96
//  #12 //012   ----------------------------------------
 BYTE   W96
//  #12 //013   ----------------------------------------
 BYTE   W96
//  #12 //014   ----------------------------------------
 BYTE   W96
//  #12 //015   ----------------------------------------
 BYTE   W96
//  #12 //016   ----------------------------------------
 BYTE   PAN   c_v-26
 BYTE   W24
 BYTE   N24  Cn4  v064
 BYTE   W24
 BYTE   Bn3
 BYTE   W48
//  #12 //017   ----------------------------------------
 BYTE   PAN   c_v+24
 BYTE   W24
 BYTE   N24  As3
 BYTE   W24
 BYTE   Gn3
 BYTE   W24
 BYTE   N12  Gs3
 BYTE   W12
 BYTE   As3
 BYTE   W12
//  #12 //018   ----------------------------------------
 BYTE   PAN   c_v-26
 BYTE   W24
 BYTE   N24  Gs3
 BYTE   W24
 BYTE   Gn3
 BYTE   W48
//  #12 //019   ----------------------------------------
 BYTE   PAN   c_v+24
 BYTE   W24
 BYTE   N24  Fs3
 BYTE   W24
 BYTE   Ds3
 BYTE   W24
 BYTE   N12  En3
 BYTE   W12
 BYTE   Fs3
 BYTE   W12
//  #12 //020   ----------------------------------------
Label_015735DD:
 BYTE   PAN   c_v+0
 BYTE   W96
//  #12 //021   ----------------------------------------
 BYTE   W96
//  #12 //022   ----------------------------------------
 BYTE   W96
//  #12 //023   ----------------------------------------
 BYTE   W96
//  #12 //024   ----------------------------------------
 BYTE   W96
//  #12 //025   ----------------------------------------
 BYTE   W96
//  #12 //026   ----------------------------------------
 BYTE   W96
//  #12 //027   ----------------------------------------
 BYTE   W96
//  #12 //028   ----------------------------------------
 BYTE   W96
//  #12 //029   ----------------------------------------
 BYTE   W96
//  #12 //030   ----------------------------------------
 BYTE   W96
//  #12 //031   ----------------------------------------
 BYTE   W96
//  #12 //032   ----------------------------------------
 BYTE   W96
//  #12 //033   ----------------------------------------
 BYTE   W96
//  #12 //034   ----------------------------------------
 BYTE   W96
//  #12 //035   ----------------------------------------
 BYTE   W96
//  #12 //036   ----------------------------------------
 BYTE   W96
//  #12 //037   ----------------------------------------
 BYTE   W96
//  #12 //038   ----------------------------------------
 BYTE   W96
//  #12 //039   ----------------------------------------
 BYTE   W96
//  #12 //040   ----------------------------------------
 BYTE   W96
//  #12 //041   ----------------------------------------
 BYTE   W96
//  #12 //042   ----------------------------------------
 BYTE   W96
//  #12 //043   ----------------------------------------
 BYTE   W96
//  #12 //044   ----------------------------------------
 BYTE   W96
//  #12 //045   ----------------------------------------
 BYTE   W96
//  #12 //046   ----------------------------------------
 BYTE   W96
//  #12 //047   ----------------------------------------
 BYTE   W96
//  #12 //048   ----------------------------------------
 BYTE   W96
//  #12 //049   ----------------------------------------
 BYTE   W96
//  #12 //050   ----------------------------------------
 BYTE   W96
//  #12 //051   ----------------------------------------
 BYTE   W96
//  #12 //052   ----------------------------------------
 BYTE   W96
//  #12 //053   ----------------------------------------
 BYTE   W96
//  #12 //054   ----------------------------------------
 BYTE   W96
//  #12 //055   ----------------------------------------
 BYTE   W96
//  #12 //056   ----------------------------------------
 BYTE   W96
//  #12 //057   ----------------------------------------
 BYTE   W96
//  #12 //058   ----------------------------------------
 BYTE   W96
//  #12 //059   ----------------------------------------
 BYTE   W96
//  #12 //060   ----------------------------------------
 BYTE   W96
//  #12 //061   ----------------------------------------
 BYTE   W96
//  #12 //062   ----------------------------------------
 BYTE   W96
//  #12 //063   ----------------------------------------
 BYTE   W96
//  #12 //064   ----------------------------------------
 BYTE   W96
//  #12 //065   ----------------------------------------
 BYTE   W96
//  #12 //066   ----------------------------------------
 BYTE   W96
//  #12 //067   ----------------------------------------
 BYTE   W96
//  #12 //068   ----------------------------------------
 BYTE   W96
//  #12 //069   ----------------------------------------
 BYTE   W96
//  #12 //070   ----------------------------------------
 BYTE   W96
//  #12 //071   ----------------------------------------
 BYTE   W96
//  #12 //072   ----------------------------------------
 BYTE   W96
//  #12 //073   ----------------------------------------
 BYTE   W96
//  #12 //074   ----------------------------------------
 BYTE   W96
//  #12 //075   ----------------------------------------
 BYTE   W96
//  #12 //076   ----------------------------------------
 BYTE   W96
//  #12 //077   ----------------------------------------
 BYTE   W96
//  #12 //078   ----------------------------------------
 BYTE   W96
//  #12 //079   ----------------------------------------
 BYTE   W96
//  #12 //080   ----------------------------------------
 BYTE   W96
//  #12 //081   ----------------------------------------
 BYTE   W96
//  #12 //082   ----------------------------------------
 BYTE   W96
//  #12 //083   ----------------------------------------
 BYTE   W96
//  #12 //084   ----------------------------------------
 BYTE   W96
//  #12 //085   ----------------------------------------
 BYTE   W96
//  #12 //086   ----------------------------------------
 BYTE   W96
//  #12 //087   ----------------------------------------
 BYTE   W96
//  #12 //088   ----------------------------------------
 BYTE   W96
//  #12 //089   ----------------------------------------
 BYTE   W96
//  #12 //090   ----------------------------------------
 BYTE   GoTo
  POIN2 Label_015735DD
 BYTE   FINE

//**************** Track 13 (Midi-Chn.12) ****************//

FeldschlactIII_013:
//  #13 //000   ----------------------------------------
 BYTE   KEYSH   FeldschlactIII_key+0
 BYTE   VOICE   34
 BYTE   VOL   63*FeldschlactIII_mvl/mxv
 BYTE   W96
//  #13 //001   ----------------------------------------
 BYTE   W96
//  #13 //002   ----------------------------------------
 BYTE   W96
//  #13 //003   ----------------------------------------
 BYTE   W60
 BYTE   N11  Cn2  v080
 BYTE   W12
 BYTE   As2
 BYTE   W12
 BYTE   Ds2
 BYTE   W12
//  #13 //004   ----------------------------------------
Label_01573A02:
 BYTE   N11  Fn2  v080
 BYTE   W36
 BYTE   N11
 BYTE   W36
 BYTE   N11
 BYTE   W24
 BYTE   PEND 
//  #13 //005   ----------------------------------------
Label_01573A0B:
 BYTE   W12
 BYTE   N11  Fn2  v080
 BYTE   W36
 BYTE   N11
 BYTE   W24
 BYTE   N11
 BYTE   W12
 BYTE   Cn2
 BYTE   W12
 BYTE   PEND 
//  #13 //006   ----------------------------------------
Label_01573A17:
 BYTE   N11  Fn2  v080
 BYTE   W12
 BYTE   Cn2
 BYTE   W12
 BYTE   Dn2
 BYTE   W12
 BYTE   Cn2
 BYTE   W36
 BYTE   N11
 BYTE   W24
 BYTE   PEND 
//  #13 //007   ----------------------------------------
 BYTE   W12
 BYTE   N10
 BYTE   W36
 BYTE   N10
 BYTE   W12
 BYTE   N10
 BYTE   W12
 BYTE   N06  As2
 BYTE   W06
 BYTE   N18  Ds2
 BYTE   W18
//  #13 //008   ----------------------------------------
Label_01573A31:
 BYTE   N22  Gs2  v080
 BYTE   W36
 BYTE   N10  Gn3
 BYTE   W24
 BYTE   Fn3
 BYTE   W12
 BYTE   Gn2
 BYTE   W12
 BYTE   Fn3
 BYTE   W12
 BYTE   PEND 
//  #13 //009   ----------------------------------------
Label_01573A3F:
 BYTE   N10  Fn2  v080
 BYTE   W12
 BYTE   N10
 BYTE   W24
 BYTE   Ds3
 BYTE   W12
 BYTE   Fn3
 BYTE   W12
 BYTE   Cn3
 BYTE   W12
 BYTE   Fn2
 BYTE   W12
 BYTE   Cn3
 BYTE   W12
 BYTE   PEND 
//  #13 //010   ----------------------------------------
Label_01573A50:
 BYTE   N10  As2  v080
 BYTE   W12
 BYTE   Fn2
 BYTE   W12
 BYTE   N22  Cs2
 BYTE   W24
 BYTE   Fn2
 BYTE   W24
 BYTE   N10  Gn2
 BYTE   W12
 BYTE   Gs2
 BYTE   W12
 BYTE   PEND 
//  #13 //011   ----------------------------------------
Label_01573A61:
 BYTE   N10  Cs2  v080
 BYTE   W12
 BYTE   N10
 BYTE   W12
 BYTE   Fn2
 BYTE   W12
 BYTE   Cs3
 BYTE   W12
 BYTE   Cn3
 BYTE   W12
 BYTE   Gn2
 BYTE   W12
 BYTE   N22  Cn2
 BYTE   W24
 BYTE   PEND 
//  #13 //012   ----------------------------------------
Label_01573A73:
 BYTE   N22  Fn2  v080
 BYTE   W36
 BYTE   N10  Fn3
 BYTE   W24
 BYTE   Fn2
 BYTE   W12
 BYTE   Gn2
 BYTE   W12
 BYTE   Gs2
 BYTE   W12
 BYTE   PEND 
//  #13 //013   ----------------------------------------
Label_01573A81:
 BYTE   N10  As1  v080
 BYTE   W12
 BYTE   N10
 BYTE   W12
 BYTE   Ds2
 BYTE   W12
 BYTE   N10
 BYTE   W12
 BYTE   Gs2
 BYTE   W12
 BYTE   Ds2
 BYTE   W12
 BYTE   Gs1
 BYTE   W12
 BYTE   Cn2
 BYTE   W12
 BYTE   PEND 
//  #13 //014   ----------------------------------------
Label_01573A94:
 BYTE   N22  As2  v080
 BYTE   W24
 BYTE   N10  Gs2
 BYTE   W12
 BYTE   As2
 BYTE   W12
 BYTE   Fn2
 BYTE   W12
 BYTE   Cn2
 BYTE   W12
 BYTE   N22  Fn2
 BYTE   W24
 BYTE   PEND 
//  #13 //015   ----------------------------------------
Label_01573AA5:
 BYTE   N11  As1  v080
 BYTE   W12
 BYTE   N11
 BYTE   W12
 BYTE   N11
 BYTE   W12
 BYTE   N11
 BYTE   W12
 BYTE   N23  Cn2
 BYTE   W24
 BYTE   N23
 BYTE   W24
 BYTE   PEND 
//  #13 //016   ----------------------------------------
Label_01573AB5:
 BYTE   N23  Gs2  v080
 BYTE   W36
 BYTE   N11  Gn3
 BYTE   W24
 BYTE   Fn3
 BYTE   W12
 BYTE   Gn2
 BYTE   W12
 BYTE   Fn3
 BYTE   W12
 BYTE   PEND 
//  #13 //017   ----------------------------------------
 BYTE   Fs2
 BYTE   W12
 BYTE   N11
 BYTE   W24
 BYTE   Ds3
 BYTE   W12
 BYTE   Fn3
 BYTE   W12
 BYTE   Cn3
 BYTE   W12
 BYTE   Fn2
 BYTE   W12
 BYTE   Cn3
 BYTE   W12
//  #13 //018   ----------------------------------------
 BYTE   N23  En2
 BYTE   W36
 BYTE   N11  Ds3
 BYTE   W24
 BYTE   Cs3
 BYTE   W12
 BYTE   Ds2
 BYTE   W12
 BYTE   Cs3
 BYTE   W12
//  #13 //019   ----------------------------------------
 BYTE   Dn2
 BYTE   W12
 BYTE   N11
 BYTE   W24
 BYTE   Bn2
 BYTE   W12
 BYTE   Cs3
 BYTE   W12
 BYTE   Gs2
 BYTE   W12
 BYTE   Cs2
 BYTE   W12
 BYTE   Gs2
 BYTE   W12
//  #13 //020   ----------------------------------------
Label_01573AEB:
 BYTE   N11  Ds2  v080
 BYTE   W36
 BYTE   Cs2
 BYTE   W36
 BYTE   N05  Ds2
 BYTE   W06
 BYTE   Cn2
 BYTE   W06
 BYTE   N05
 BYTE   W12
//  #13 //021   ----------------------------------------
 BYTE   N68
 BYTE   W96
//  #13 //022   ----------------------------------------
Label_01573AFA:
 BYTE   N11  Cs2  v080
 BYTE   W36
 BYTE   N44  Cn3
 BYTE   W48
 BYTE   N11  As2
 BYTE   W12
 BYTE   PEND 
//  #13 //023   ----------------------------------------
Label_01573B05:
 BYTE   W12
 BYTE   N11  Cs2  v080
 BYTE   W12
 BYTE   Cn3
 BYTE   W24
 BYTE   Gs2
 BYTE   W12
 BYTE   N05  As2
 BYTE   W06
 BYTE   N05
 BYTE   W06
 BYTE   Gs2
 BYTE   W06
 BYTE   Fn2
 BYTE   W06
 BYTE   Ds2
 BYTE   W06
 BYTE   Fn2
 BYTE   W06
 BYTE   PEND 
//  #13 //024   ----------------------------------------
Label_01573B1C:
 BYTE   N11  Cs2  v080
 BYTE   W24
 BYTE   Cn3
 BYTE   W12
 BYTE   N11
 BYTE   W24
 BYTE   Gs2
 BYTE   W12
 BYTE   As2
 BYTE   W12
 BYTE   Cn3
 BYTE   W12
 BYTE   PEND 
//  #13 //025   ----------------------------------------
Label_01573B2B:
 BYTE   W12
 BYTE   N11  Cs2  v080
 BYTE   W12
 BYTE   Cn3
 BYTE   W12
 BYTE   Cs2
 BYTE   W12
 BYTE   N11
 BYTE   W12
 BYTE   Gn2
 BYTE   W12
 BYTE   Cn3
 BYTE   W12
 BYTE   As2
 BYTE   W12
 BYTE   PEND 
//  #13 //026   ----------------------------------------
 BYTE   Cs2
 BYTE   W12
 BYTE   N11
 BYTE   W24
 BYTE   N44  Cn3
 BYTE   W48
 BYTE   N11  As2
 BYTE   W12
//  #13 //027   ----------------------------------------
 BYTE   PATT
  POIN2 Label_01573B05
//  #13 //028   ----------------------------------------
 BYTE   PATT
  POIN2 Label_01573B1C
//  #13 //029   ----------------------------------------
 BYTE   PATT
  POIN2 Label_01573B2B
//  #13 //030   ----------------------------------------
 BYTE   PATT
  POIN2 Label_01573AFA
//  #13 //031   ----------------------------------------
Label_01573B5B:
 BYTE   W12
 BYTE   N10  Cs2  v080
 BYTE   W12
 BYTE   Cn3
 BYTE   W24
 BYTE   Gs2
 BYTE   W12
 BYTE   N04  As2
 BYTE   W06
 BYTE   N04
 BYTE   W06
 BYTE   Gs2
 BYTE   W06
 BYTE   Fn2
 BYTE   W06
 BYTE   Ds2
 BYTE   W06
 BYTE   Fn2
 BYTE   W06
 BYTE   PEND 
//  #13 //032   ----------------------------------------
Label_01573B72:
 BYTE   N10  Cs2  v080
 BYTE   W24
 BYTE   Cn3
 BYTE   W12
 BYTE   N10
 BYTE   W24
 BYTE   Gs2
 BYTE   W12
 BYTE   As2
 BYTE   W12
 BYTE   Cn3
 BYTE   W12
 BYTE   PEND 
//  #13 //033   ----------------------------------------
Label_01573B81:
 BYTE   W12
 BYTE   N10  Cs2  v080
 BYTE   W12
 BYTE   Cn3
 BYTE   W12
 BYTE   Cs2
 BYTE   W12
 BYTE   N10
 BYTE   W12
 BYTE   Gn2
 BYTE   W12
 BYTE   Cn3
 BYTE   W12
 BYTE   As2
 BYTE   W12
 BYTE   PEND 
//  #13 //034   ----------------------------------------
 BYTE   Cs2
 BYTE   W12
 BYTE   N10
 BYTE   W24
 BYTE   N44  Cn3
 BYTE   W48
 BYTE   N10  As2
 BYTE   W12
//  #13 //035   ----------------------------------------
 BYTE   PATT
  POIN2 Label_01573B5B
//  #13 //036   ----------------------------------------
 BYTE   PATT
  POIN2 Label_01573B72
//  #13 //037   ----------------------------------------
 BYTE   PATT
  POIN2 Label_01573B81
//  #13 //038   ----------------------------------------
 BYTE   N80  Fn2  v080
 BYTE   W96
//  #13 //039   ----------------------------------------
Label_01573BB0:
 BYTE   W12
 BYTE   N10  Fn2  v080
 BYTE   W36
 BYTE   N10
 BYTE   W24
 BYTE   N10
 BYTE   W12
 BYTE   Cn2
 BYTE   W12
 BYTE   PEND 
//  #13 //040   ----------------------------------------
Label_01573BBC:
 BYTE   N10  Fn2  v080
 BYTE   W12
 BYTE   Cn2
 BYTE   W12
 BYTE   Dn2
 BYTE   W12
 BYTE   Cn2
 BYTE   W36
 BYTE   N10
 BYTE   W24
 BYTE   PEND 
//  #13 //041   ----------------------------------------
 BYTE   W12
 BYTE   N10
 BYTE   W36
 BYTE   N10
 BYTE   W12
 BYTE   N10
 BYTE   W12
 BYTE   Dn2
 BYTE   W12
 BYTE   Ds2
 BYTE   W12
//  #13 //042   ----------------------------------------
 BYTE   Fn2
 BYTE   W36
 BYTE   N10
 BYTE   W36
 BYTE   N10
 BYTE   W24
//  #13 //043   ----------------------------------------
 BYTE   PATT
  POIN2 Label_01573BB0
//  #13 //044   ----------------------------------------
 BYTE   PATT
  POIN2 Label_01573BBC
//  #13 //045   ----------------------------------------
 BYTE   W12
 BYTE   N10  Cn2  v080
 BYTE   W36
 BYTE   N10
 BYTE   W12
 BYTE   N10
 BYTE   W12
 BYTE   N04  As2
 BYTE   W06
 BYTE   N10  Cn2
 BYTE   W18
//  #13 //046   ----------------------------------------
 BYTE   PATT
  POIN2 Label_01573A31
//  #13 //047   ----------------------------------------
 BYTE   PATT
  POIN2 Label_01573A3F
//  #13 //048   ----------------------------------------
 BYTE   PATT
  POIN2 Label_01573A50
//  #13 //049   ----------------------------------------
 BYTE   PATT
  POIN2 Label_01573A61
//  #13 //050   ----------------------------------------
 BYTE   PATT
  POIN2 Label_01573A73
//  #13 //051   ----------------------------------------
 BYTE   PATT
  POIN2 Label_01573A81
//  #13 //052   ----------------------------------------
 BYTE   PATT
  POIN2 Label_01573A94
//  #13 //053   ----------------------------------------
 BYTE   N10  As1  v080
 BYTE   W12
 BYTE   N10
 BYTE   W12
 BYTE   N10
 BYTE   W12
 BYTE   N10
 BYTE   W12
 BYTE   N22  Cn2
 BYTE   W24
 BYTE   N22
 BYTE   W24
//  #13 //054   ----------------------------------------
 BYTE   TIE  As1
 BYTE   W96
//  #13 //055   ----------------------------------------
 BYTE   W92
 BYTE   W03
 BYTE   EOT
 BYTE   W01
//  #13 //056   ----------------------------------------
 BYTE   TIE  Fn1
 BYTE   W96
//  #13 //057   ----------------------------------------
 BYTE   W92
 BYTE   W03
 BYTE   EOT
 BYTE   W01
//  #13 //058   ----------------------------------------
 BYTE   TIE  As1
 BYTE   W96
//  #13 //059   ----------------------------------------
 BYTE   W92
 BYTE   W03
 BYTE   EOT
 BYTE   W01
//  #13 //060   ----------------------------------------
 BYTE   TIE  Fn1
 BYTE   W96
//  #13 //061   ----------------------------------------
 BYTE   W92
 BYTE   W03
 BYTE   EOT
 BYTE   W01
//  #13 //062   ----------------------------------------
 BYTE   TIE  As1
 BYTE   W96
//  #13 //063   ----------------------------------------
 BYTE   W92
 BYTE   W03
 BYTE   EOT
 BYTE   W01
//  #13 //064   ----------------------------------------
 BYTE   TIE  Fn1
 BYTE   W96
//  #13 //065   ----------------------------------------
 BYTE   W92
 BYTE   W03
 BYTE   EOT
 BYTE   W01
//  #13 //066   ----------------------------------------
 BYTE   TIE  As1
 BYTE   W96
//  #13 //067   ----------------------------------------
 BYTE   W92
 BYTE   W03
 BYTE   EOT
 BYTE   W01
//  #13 //068   ----------------------------------------
 BYTE   TIE  Fn1
 BYTE   W96
//  #13 //069   ----------------------------------------
 BYTE   W92
 BYTE   W03
 BYTE   EOT
 BYTE   W01
//  #13 //070   ----------------------------------------
 BYTE   N80  Fn2
 BYTE   W96
//  #13 //071   ----------------------------------------
 BYTE   PATT
  POIN2 Label_01573A0B
//  #13 //072   ----------------------------------------
 BYTE   PATT
  POIN2 Label_01573A17
//  #13 //073   ----------------------------------------
 BYTE   W12
 BYTE   N11  Cn2  v080
 BYTE   W36
 BYTE   N11
 BYTE   W12
 BYTE   N11
 BYTE   W12
 BYTE   Dn2
 BYTE   W12
 BYTE   Ds2
 BYTE   W12
//  #13 //074   ----------------------------------------
 BYTE   PATT
  POIN2 Label_01573A02
//  #13 //075   ----------------------------------------
 BYTE   PATT
  POIN2 Label_01573A0B
//  #13 //076   ----------------------------------------
 BYTE   PATT
  POIN2 Label_01573A17
//  #13 //077   ----------------------------------------
 BYTE   W12
 BYTE   N11  Cn2  v080
 BYTE   W36
 BYTE   N11
 BYTE   W12
 BYTE   N11
 BYTE   W12
 BYTE   N05  As2
 BYTE   W06
 BYTE   N11  Cn2
 BYTE   W18
//  #13 //078   ----------------------------------------
 BYTE   PATT
  POIN2 Label_01573AB5
//  #13 //079   ----------------------------------------
 BYTE   N11  Fn2  v080
 BYTE   W12
 BYTE   N11
 BYTE   W24
 BYTE   Ds3
 BYTE   W12
 BYTE   Fn3
 BYTE   W12
 BYTE   Cn3
 BYTE   W12
 BYTE   Fn2
 BYTE   W12
 BYTE   Cn3
 BYTE   W12
//  #13 //080   ----------------------------------------
 BYTE   As2
 BYTE   W12
 BYTE   Fn2
 BYTE   W12
 BYTE   N23  Cs2
 BYTE   W24
 BYTE   Fn2
 BYTE   W24
 BYTE   N11  Gn2
 BYTE   W12
 BYTE   Gs2
 BYTE   W12
//  #13 //081   ----------------------------------------
 BYTE   Cs2
 BYTE   W12
 BYTE   N11
 BYTE   W12
 BYTE   Fn2
 BYTE   W12
 BYTE   Cs3
 BYTE   W12
 BYTE   Cn3
 BYTE   W12
 BYTE   Gn2
 BYTE   W12
 BYTE   N23  Cn2
 BYTE   W24
//  #13 //082   ----------------------------------------
 BYTE   Fn2
 BYTE   W36
 BYTE   N11  Fn3
 BYTE   W24
 BYTE   Fn2
 BYTE   W12
 BYTE   Gn2
 BYTE   W12
 BYTE   Gs2
 BYTE   W12
//  #13 //083   ----------------------------------------
 BYTE   As1
 BYTE   W12
 BYTE   N11
 BYTE   W12
 BYTE   Ds2
 BYTE   W12
 BYTE   N11
 BYTE   W12
 BYTE   Gs2
 BYTE   W12
 BYTE   Ds2
 BYTE   W12
 BYTE   Gs1
 BYTE   W12
 BYTE   Cn2
 BYTE   W12
//  #13 //084   ----------------------------------------
 BYTE   N23  As2
 BYTE   W24
 BYTE   N11  Gs2
 BYTE   W12
 BYTE   As2
 BYTE   W12
 BYTE   Fn2
 BYTE   W12
 BYTE   Cn2
 BYTE   W12
 BYTE   N23  Fn2
 BYTE   W24
//  #13 //085   ----------------------------------------
 BYTE   PATT
  POIN2 Label_01573AA5
//  #13 //086   ----------------------------------------
 BYTE   W96
//  #13 //087   ----------------------------------------
 BYTE   W96
//  #13 //088   ----------------------------------------
 BYTE   W96
//  #13 //089   ----------------------------------------
 BYTE   W36
 BYTE   N11  Bn2  v080
 BYTE   W12
 BYTE   N05  Cs3
 BYTE   W06
 BYTE   N05
 BYTE   W06
 BYTE   N11  Gs2
 BYTE   W12
 BYTE   Cs2
 BYTE   W12
 BYTE   Gs2
 BYTE   W12
//  #13 //090   ----------------------------------------
 BYTE   GoTo
  POIN2 Label_01573AEB
 BYTE   FINE

//**************** Track 14 (Midi-Chn.13) ****************//

FeldschlactIII_014:
//  #14 //000   ----------------------------------------
 BYTE   KEYSH   FeldschlactIII_key+0
 BYTE   VOICE   124
 BYTE   VOL   63*FeldschlactIII_mvl/mxv
 BYTE   N06  Fs1  v052
 BYTE   W06
 BYTE   N06
 BYTE   W06
 BYTE   N06
 BYTE   W06
 BYTE   N06
 BYTE   W06
 BYTE   N06
 BYTE   W06
 BYTE   N06
 BYTE   W06
 BYTE   N06
 BYTE   W06
 BYTE   N06
 BYTE   W06
 BYTE   N06
 BYTE   W06
 BYTE   N06
 BYTE   W06
 BYTE   N06
 BYTE   W06
 BYTE   N06
 BYTE   W06
 BYTE   N06
 BYTE   W06
 BYTE   N06
 BYTE   W06
 BYTE   N06
 BYTE   W06
 BYTE   N06
 BYTE   W06
//  #14 //001   ----------------------------------------
Label_01573F28:
 BYTE   N06  Fs1  v052
 BYTE   W06
 BYTE   N06
 BYTE   W06
 BYTE   N06
 BYTE   W06
 BYTE   N06
 BYTE   W06
 BYTE   N06
 BYTE   W06
 BYTE   N06
 BYTE   W06
 BYTE   N06
 BYTE   W06
 BYTE   N06
 BYTE   W06
 BYTE   N06
 BYTE   W06
 BYTE   N06
 BYTE   W06
 BYTE   N06
 BYTE   W06
 BYTE   N06
 BYTE   W06
 BYTE   N06
 BYTE   W06
 BYTE   N06
 BYTE   W06
 BYTE   N06
 BYTE   W06
 BYTE   N06
 BYTE   W06
 BYTE   PEND 
//  #14 //002   ----------------------------------------
 BYTE   PATT
  POIN2 Label_01573F28
//  #14 //003   ----------------------------------------
 BYTE   PATT
  POIN2 Label_01573F28
//  #14 //004   ----------------------------------------
Label_01573F55:
 BYTE   N12  Cn1  v080
 BYTE   N06  Fs1  v052
 BYTE   W06
 BYTE   N06
 BYTE   W06
 BYTE   N06
 BYTE   W06
 BYTE   N06
 BYTE   W06
 BYTE   N06
 BYTE   W06
 BYTE   N06
 BYTE   W06
 BYTE   N12  Cn1  v080
 BYTE   N06  Fs1  v052
 BYTE   W06
 BYTE   N06
 BYTE   W06
 BYTE   N06
 BYTE   W06
 BYTE   N06
 BYTE   W06
 BYTE   N06
 BYTE   W06
 BYTE   N06
 BYTE   W06
 BYTE   N12  Cn1  v080
 BYTE   N06  Fs1  v052
 BYTE   W06
 BYTE   N06
 BYTE   W06
 BYTE   N06
 BYTE   W06
 BYTE   N06
 BYTE   W06
 BYTE   PEND 
//  #14 //005   ----------------------------------------
 BYTE   N06
 BYTE   W06
 BYTE   N06
 BYTE   W06
 BYTE   N12  Cn1  v080
 BYTE   N06  Fs1  v052
 BYTE   W06
 BYTE   N06
 BYTE   W06
 BYTE   N06
 BYTE   W06
 BYTE   N06
 BYTE   W06
 BYTE   N06
 BYTE   W06
 BYTE   N06
 BYTE   W06
 BYTE   N12  Cn1  v080
 BYTE   N06  Fs1  v052
 BYTE   W06
 BYTE   N06
 BYTE   W06
 BYTE   N06
 BYTE   W06
 BYTE   N06
 BYTE   W06
 BYTE   N12  Cn1  v080
 BYTE   N06  Fs1  v052
 BYTE   W06
 BYTE   N06
 BYTE   W06
 BYTE   N12  Cn1  v080
 BYTE   N06  Fs1  v052
 BYTE   W06
 BYTE   N06
 BYTE   W06
//  #14 //006   ----------------------------------------
 BYTE   PATT
  POIN2 Label_01573F55
//  #14 //007   ----------------------------------------
 BYTE   N06  Fs1  v052
 BYTE   W06
 BYTE   N06
 BYTE   W06
 BYTE   N12  Cn1  v080
 BYTE   N06  Fs1  v052
 BYTE   W06
 BYTE   N06
 BYTE   W06
 BYTE   N06
 BYTE   W06
 BYTE   N06
 BYTE   W06
 BYTE   N06
 BYTE   W06
 BYTE   N06
 BYTE   W06
 BYTE   N12  Cn1  v080
 BYTE   N06  Dn1  v092
 BYTE   N06  Fs1  v052
 BYTE   W06
 BYTE   N12  Dn1  v092
 BYTE   N06  Fs1  v052
 BYTE   W06
 BYTE   N06
 BYTE   W06
 BYTE   Dn1  v092
 BYTE   N06  Fs1  v052
 BYTE   W06
 BYTE   N12  Cn1  v080
 BYTE   N06  Dn1  v092
 BYTE   N06  Fs1  v052
 BYTE   W06
 BYTE   Dn1  v092
 BYTE   N06  Fs1  v052
 BYTE   W06
 BYTE   N12  Cn1  v080
 BYTE   N12  Dn1  v092
 BYTE   N06  Fs1  v052
 BYTE   W06
 BYTE   N06
 BYTE   W06
//  #14 //008   ----------------------------------------
Label_0157400A:
 BYTE   N12  Cn1  v080
 BYTE   N96  Cs2  v064
 BYTE   N96  Gn2
 BYTE   N96  An2
 BYTE   W12
 BYTE   N12  Fs1  v052
 BYTE   W12
 BYTE   Dn1  v092
 BYTE   W12
 BYTE   Cn1  v080
 BYTE   W12
 BYTE   Fs1  v052
 BYTE   W12
 BYTE   N12
 BYTE   W12
 BYTE   Cn1  v080
 BYTE   N12  Dn1  v092
 BYTE   W12
 BYTE   N06  Fs1  v052
 BYTE   W06
 BYTE   N06
 BYTE   W06
 BYTE   PEND 
//  #14 //009   ----------------------------------------
Label_01574031:
 BYTE   N06  Fs1  v052
 BYTE   W06
 BYTE   N06
 BYTE   W06
 BYTE   N12  Cn1  v080
 BYTE   N06  Fs1  v052
 BYTE   W06
 BYTE   N06
 BYTE   W06
 BYTE   N12  Dn1  v092
 BYTE   N12  Fs1  v052
 BYTE   W24
 BYTE   Cn1  v080
 BYTE   W12
 BYTE   Fs1  v052
 BYTE   W12
 BYTE   N06  Dn1  v092
 BYTE   W06
 BYTE   N18
 BYTE   W18
 BYTE   PEND 
//  #14 //010   ----------------------------------------
Label_01574054:
 BYTE   N12  Cn1  v080
 BYTE   W12
 BYTE   Fs1  v052
 BYTE   W12
 BYTE   Dn1  v092
 BYTE   W12
 BYTE   Cn1  v080
 BYTE   W12
 BYTE   Fs1  v052
 BYTE   W12
 BYTE   N12
 BYTE   W12
 BYTE   Cn1  v080
 BYTE   N12  Dn1  v092
 BYTE   W12
 BYTE   N06  Fs1  v052
 BYTE   W06
 BYTE   N06
 BYTE   W06
 BYTE   PEND 
//  #14 //011   ----------------------------------------
Label_01574073:
 BYTE   N06  Fs1  v052
 BYTE   W06
 BYTE   N06
 BYTE   W06
 BYTE   N12  Cn1  v080
 BYTE   N06  Fs1  v052
 BYTE   W06
 BYTE   N06
 BYTE   W06
 BYTE   N12  Dn1  v092
 BYTE   N12  Fs1  v052
 BYTE   W24
 BYTE   Cn1  v080
 BYTE   W12
 BYTE   Fs1  v052
 BYTE   W12
 BYTE   Cn1  v080
 BYTE   N06  Dn1  v092
 BYTE   W06
 BYTE   N18
 BYTE   W18
 BYTE   PEND 
//  #14 //012   ----------------------------------------
 BYTE   PATT
  POIN2 Label_01574054
//  #14 //013   ----------------------------------------
 BYTE   PATT
  POIN2 Label_01574031
//  #14 //014   ----------------------------------------
 BYTE   PATT
  POIN2 Label_01574054
//  #14 //015   ----------------------------------------
 BYTE   PATT
  POIN2 Label_01574073
//  #14 //016   ----------------------------------------
 BYTE   PATT
  POIN2 Label_01574054
//  #14 //017   ----------------------------------------
 BYTE   PATT
  POIN2 Label_01574031
//  #14 //018   ----------------------------------------
 BYTE   PATT
  POIN2 Label_01574054
//  #14 //019   ----------------------------------------
 BYTE   N06  Fs1  v052
 BYTE   W06
 BYTE   N06
 BYTE   W06
 BYTE   N12  Cn1  v080
 BYTE   N06  Fs1  v052
 BYTE   W06
 BYTE   N06
 BYTE   W06
 BYTE   N12  Dn1  v092
 BYTE   N12  Fs1  v052
 BYTE   W24
 BYTE   Cn1  v080
 BYTE   W12
 BYTE   Fs1  v052
 BYTE   W12
 BYTE   N06  Dn1  v092
 BYTE   W06
 BYTE   N06
 BYTE   W06
 BYTE   N12
 BYTE   W12
//  #14 //020   ----------------------------------------
Label_015740DF:
 BYTE   N12  Cn1  v080
 BYTE   W36
 BYTE   N12
 BYTE   W36
 BYTE   N06
 BYTE   W06
 BYTE   N06
 BYTE   W06
 BYTE   N12
 BYTE   W12
//  #14 //021   ----------------------------------------
 BYTE   N12
 BYTE   W48
 BYTE   N48  En2  v064
 BYTE   W12
 BYTE   N12  Dn1  v092
 BYTE   W12
 BYTE   N06
 BYTE   W06
 BYTE   N12
 BYTE   W12
 BYTE   N06
 BYTE   W06
//  #14 //022   ----------------------------------------
 BYTE   Cn1  v080
 BYTE   N96  Cs2  v064
 BYTE   N96  Gn2
 BYTE   N96  An2
 BYTE   W12
 BYTE   N12  Fs1  v052
 BYTE   W12
 BYTE   Dn1  v092
 BYTE   W12
 BYTE   N06  Cn1  v080
 BYTE   W12
 BYTE   N12  Fs1  v052
 BYTE   W12
 BYTE   N12
 BYTE   W12
 BYTE   Dn1  v092
 BYTE   W12
 BYTE   N06  Fs1  v052
 BYTE   W06
 BYTE   N06
 BYTE   W06
//  #14 //023   ----------------------------------------
Label_0157411F:
 BYTE   N06  Fs1  v052
 BYTE   W06
 BYTE   N06
 BYTE   W06
 BYTE   Cn1  v080
 BYTE   N06  Fs1  v052
 BYTE   W06
 BYTE   N06
 BYTE   W06
 BYTE   Cn1  v080
 BYTE   N12  Dn1  v092
 BYTE   N12  Fs1  v052
 BYTE   W24
 BYTE   N06  Cn1  v080
 BYTE   W12
 BYTE   N12  Fs1  v052
 BYTE   W12
 BYTE   N06  Dn1  v092
 BYTE   W06
 BYTE   N12
 BYTE   W06
 BYTE   As1  v064
 BYTE   W12
 BYTE   PEND 
//  #14 //024   ----------------------------------------
Label_01574148:
 BYTE   N06  Cn1  v080
 BYTE   W12
 BYTE   N12  Fs1  v052
 BYTE   W12
 BYTE   Dn1  v092
 BYTE   W12
 BYTE   N06  Cn1  v080
 BYTE   W12
 BYTE   N12  Fs1  v052
 BYTE   W12
 BYTE   N12
 BYTE   W12
 BYTE   Dn1  v092
 BYTE   W12
 BYTE   N06  Fs1  v052
 BYTE   W06
 BYTE   N06
 BYTE   W06
 BYTE   PEND 
//  #14 //025   ----------------------------------------
Label_01574167:
 BYTE   N06  Fs1  v052
 BYTE   W06
 BYTE   N06
 BYTE   W06
 BYTE   Cn1  v080
 BYTE   N06  Fs1  v052
 BYTE   W06
 BYTE   N06
 BYTE   W06
 BYTE   Cn1  v080
 BYTE   N12  Dn1  v092
 BYTE   N12  Fs1  v052
 BYTE   W24
 BYTE   N06  Cn1  v080
 BYTE   W12
 BYTE   N12  Fs1  v052
 BYTE   W12
 BYTE   N06  Dn1  v092
 BYTE   W06
 BYTE   N12
 BYTE   W06
 BYTE   N06  Cn1  v080
 BYTE   N12  As1  v064
 BYTE   W12
 BYTE   PEND 
//  #14 //026   ----------------------------------------
 BYTE   PATT
  POIN2 Label_01574148
//  #14 //027   ----------------------------------------
 BYTE   PATT
  POIN2 Label_0157411F
//  #14 //028   ----------------------------------------
 BYTE   PATT
  POIN2 Label_01574148
//  #14 //029   ----------------------------------------
 BYTE   PATT
  POIN2 Label_01574167
//  #14 //030   ----------------------------------------
Label_015741A8:
 BYTE   N06  Cn1  v080
 BYTE   N06  Fs1  v052
 BYTE   W06
 BYTE   N06
 BYTE   W06
 BYTE   N06
 BYTE   W06
 BYTE   N06
 BYTE   W06
 BYTE   N12  Dn1  v092
 BYTE   N06  Fs1  v052
 BYTE   W06
 BYTE   N06
 BYTE   W06
 BYTE   Cn1  v080
 BYTE   N06  Fs1  v052
 BYTE   W06
 BYTE   N06
 BYTE   W06
 BYTE   N06
 BYTE   W06
 BYTE   N06
 BYTE   W06
 BYTE   N06
 BYTE   W06
 BYTE   N06
 BYTE   W06
 BYTE   N12  Dn1  v092
 BYTE   N06  Fs1  v052
 BYTE   W06
 BYTE   N06
 BYTE   W06
 BYTE   N06
 BYTE   W06
 BYTE   N06
 BYTE   W06
 BYTE   PEND 
//  #14 //031   ----------------------------------------
Label_015741DC:
 BYTE   N06  Fs1  v052
 BYTE   W06
 BYTE   N06
 BYTE   W06
 BYTE   Cn1  v080
 BYTE   N06  Fs1  v052
 BYTE   W06
 BYTE   N06
 BYTE   W06
 BYTE   Cn1  v080
 BYTE   N12  Dn1  v092
 BYTE   N06  Fs1  v052
 BYTE   W06
 BYTE   N06
 BYTE   W06
 BYTE   N06
 BYTE   W06
 BYTE   N06
 BYTE   W06
 BYTE   Cn1  v080
 BYTE   N06  Fs1  v052
 BYTE   W06
 BYTE   N06
 BYTE   W06
 BYTE   N06
 BYTE   W06
 BYTE   N06
 BYTE   W06
 BYTE   Dn1  v092
 BYTE   N06  Fs1  v052
 BYTE   W06
 BYTE   N12  Dn1  v092
 BYTE   N06  Fs1  v052
 BYTE   W06
 BYTE   N06
 BYTE   W06
 BYTE   N06
 BYTE   W06
 BYTE   PEND 
//  #14 //032   ----------------------------------------
 BYTE   PATT
  POIN2 Label_015741A8
//  #14 //033   ----------------------------------------
 BYTE   N06  Fs1  v052
 BYTE   W06
 BYTE   N06
 BYTE   W06
 BYTE   Cn1  v080
 BYTE   N06  Fs1  v052
 BYTE   W06
 BYTE   N06
 BYTE   W06
 BYTE   Cn1  v080
 BYTE   N12  Dn1  v092
 BYTE   N06  Fs1  v052
 BYTE   W06
 BYTE   N06
 BYTE   W06
 BYTE   N06
 BYTE   W06
 BYTE   N06
 BYTE   W06
 BYTE   Cn1  v080
 BYTE   N06  Fs1  v052
 BYTE   W06
 BYTE   N06
 BYTE   W06
 BYTE   N06
 BYTE   W06
 BYTE   N06
 BYTE   W06
 BYTE   Dn1  v092
 BYTE   N06  Fs1  v052
 BYTE   W06
 BYTE   N12  Dn1  v092
 BYTE   N06  Fs1  v052
 BYTE   W06
 BYTE   Cn1  v080
 BYTE   N06  Fs1  v052
 BYTE   W06
 BYTE   N06
 BYTE   W06
//  #14 //034   ----------------------------------------
 BYTE   PATT
  POIN2 Label_015741A8
//  #14 //035   ----------------------------------------
 BYTE   PATT
  POIN2 Label_015741DC
//  #14 //036   ----------------------------------------
 BYTE   PATT
  POIN2 Label_015741A8
//  #14 //037   ----------------------------------------
 BYTE   N06  Fs1  v052
 BYTE   N96  En2  v064
 BYTE   W06
 BYTE   N06  Fs1  v052
 BYTE   W06
 BYTE   Cn1  v080
 BYTE   N06  Fs1  v052
 BYTE   W06
 BYTE   N06
 BYTE   W06
 BYTE   Cn1  v080
 BYTE   N12  Dn1  v092
 BYTE   N06  Fs1  v052
 BYTE   W06
 BYTE   N06
 BYTE   W06
 BYTE   N06
 BYTE   W06
 BYTE   N06
 BYTE   W06
 BYTE   Cn1  v080
 BYTE   N12  Dn1  v092
 BYTE   N06  Fs1  v052
 BYTE   W06
 BYTE   N06
 BYTE   W06
 BYTE   N06
 BYTE   W06
 BYTE   N06
 BYTE   W06
 BYTE   Dn1  v092
 BYTE   N06  Fs1  v052
 BYTE   W06
 BYTE   Dn1  v092
 BYTE   N06  Fs1  v052
 BYTE   W06
 BYTE   Cn1  v080
 BYTE   N12  Dn1  v092
 BYTE   N06  Fs1  v052
 BYTE   W06
 BYTE   N06
 BYTE   W06
//  #14 //038   ----------------------------------------
Label_015742B1:
 BYTE   N12  Cn1  v080
 BYTE   N06  Fs1  v052
 BYTE   N96  Cs2  v064
 BYTE   N96  Gn2
 BYTE   N96  An2
 BYTE   W06
 BYTE   N06  Fs1  v052
 BYTE   W06
 BYTE   N06
 BYTE   W06
 BYTE   N06
 BYTE   W06
 BYTE   N06
 BYTE   W06
 BYTE   N06
 BYTE   W06
 BYTE   N12  Cn1  v080
 BYTE   N06  Fs1  v052
 BYTE   W06
 BYTE   N06
 BYTE   W06
 BYTE   N06
 BYTE   W06
 BYTE   N06
 BYTE   W06
 BYTE   N06
 BYTE   W06
 BYTE   N06
 BYTE   W06
 BYTE   N12  Cn1  v080
 BYTE   N06  Fs1  v052
 BYTE   W06
 BYTE   N06
 BYTE   W06
 BYTE   N06
 BYTE   W06
 BYTE   N06
 BYTE   W06
 BYTE   PEND 
//  #14 //039   ----------------------------------------
Label_015742EA:
 BYTE   N06  Fs1  v052
 BYTE   W06
 BYTE   N06
 BYTE   W06
 BYTE   N12  Cn1  v080
 BYTE   N06  Fs1  v052
 BYTE   W06
 BYTE   N06
 BYTE   W06
 BYTE   N06
 BYTE   W06
 BYTE   N06
 BYTE   W06
 BYTE   N06
 BYTE   W06
 BYTE   N06
 BYTE   W06
 BYTE   N12  Cn1  v080
 BYTE   N06  Fs1  v052
 BYTE   W06
 BYTE   N06
 BYTE   W06
 BYTE   N06
 BYTE   W06
 BYTE   N06
 BYTE   W06
 BYTE   N12  Cn1  v080
 BYTE   N06  Fs1  v052
 BYTE   W06
 BYTE   N06
 BYTE   W06
 BYTE   N06
 BYTE   W06
 BYTE   N06
 BYTE   W06
 BYTE   PEND 
//  #14 //040   ----------------------------------------
 BYTE   PATT
  POIN2 Label_01573F55
//  #14 //041   ----------------------------------------
 BYTE   PATT
  POIN2 Label_015742EA
//  #14 //042   ----------------------------------------
 BYTE   PATT
  POIN2 Label_01573F55
//  #14 //043   ----------------------------------------
 BYTE   PATT
  POIN2 Label_015742EA
//  #14 //044   ----------------------------------------
 BYTE   PATT
  POIN2 Label_01573F55
//  #14 //045   ----------------------------------------
Label_01574335:
 BYTE   N06  Fs1  v052
 BYTE   W06
 BYTE   N06
 BYTE   W06
 BYTE   N12  Cn1  v080
 BYTE   N06  Fs1  v052
 BYTE   W06
 BYTE   N06
 BYTE   W06
 BYTE   N06
 BYTE   W06
 BYTE   N06
 BYTE   W06
 BYTE   N06
 BYTE   W06
 BYTE   N06
 BYTE   W06
 BYTE   Dn1  v092
 BYTE   N06  Fs1  v052
 BYTE   W06
 BYTE   N12  Dn1  v092
 BYTE   N06  Fs1  v052
 BYTE   W06
 BYTE   N06
 BYTE   W06
 BYTE   Dn1  v092
 BYTE   N06  Fs1  v052
 BYTE   W06
 BYTE   Dn1  v092
 BYTE   N06  Fs1  v052
 BYTE   W06
 BYTE   Dn1  v092
 BYTE   N06  Fs1  v052
 BYTE   W06
 BYTE   N12  Dn1  v092
 BYTE   N06  Fs1  v052
 BYTE   W06
 BYTE   N06
 BYTE   W06
 BYTE   PEND 
//  #14 //046   ----------------------------------------
 BYTE   PATT
  POIN2 Label_0157400A
//  #14 //047   ----------------------------------------
 BYTE   PATT
  POIN2 Label_01574031
//  #14 //048   ----------------------------------------
 BYTE   PATT
  POIN2 Label_01574054
//  #14 //049   ----------------------------------------
 BYTE   PATT
  POIN2 Label_01574073
//  #14 //050   ----------------------------------------
 BYTE   PATT
  POIN2 Label_01574054
//  #14 //051   ----------------------------------------
 BYTE   PATT
  POIN2 Label_01574031
//  #14 //052   ----------------------------------------
 BYTE   PATT
  POIN2 Label_01574054
//  #14 //053   ----------------------------------------
 BYTE   PATT
  POIN2 Label_01574073
//  #14 //054   ----------------------------------------
 BYTE   N12  Cn1  v080
 BYTE   N96  Cs2  v064
 BYTE   N96  Gn2
 BYTE   N96  An2
 BYTE   W36
 BYTE   N12  Cn1  v080
 BYTE   W36
 BYTE   N12
 BYTE   W24
//  #14 //055   ----------------------------------------
Label_015743B0:
 BYTE   W12
 BYTE   N12  Cn1  v080
 BYTE   W36
 BYTE   N12
 BYTE   W24
 BYTE   N12
 BYTE   W24
 BYTE   PEND 
//  #14 //056   ----------------------------------------
Label_015743BA:
 BYTE   N12  Cn1  v080
 BYTE   W36
 BYTE   N12
 BYTE   W36
 BYTE   N12
 BYTE   W24
 BYTE   PEND 
//  #14 //057   ----------------------------------------
Label_015743C3:
 BYTE   W12
 BYTE   N12  Cn1  v080
 BYTE   W36
 BYTE   N12
 BYTE   W24
 BYTE   N12
 BYTE   W12
 BYTE   N12
 BYTE   W12
 BYTE   PEND 
//  #14 //058   ----------------------------------------
 BYTE   PATT
  POIN2 Label_015743BA
//  #14 //059   ----------------------------------------
 BYTE   PATT
  POIN2 Label_015743B0
//  #14 //060   ----------------------------------------
 BYTE   PATT
  POIN2 Label_015743BA
//  #14 //061   ----------------------------------------
 BYTE   PATT
  POIN2 Label_015743C3
//  #14 //062   ----------------------------------------
 BYTE   PATT
  POIN2 Label_015743BA
//  #14 //063   ----------------------------------------
 BYTE   PATT
  POIN2 Label_015743B0
//  #14 //064   ----------------------------------------
 BYTE   PATT
  POIN2 Label_015743BA
//  #14 //065   ----------------------------------------
 BYTE   PATT
  POIN2 Label_015743C3
//  #14 //066   ----------------------------------------
 BYTE   PATT
  POIN2 Label_015743BA
//  #14 //067   ----------------------------------------
 BYTE   PATT
  POIN2 Label_015743B0
//  #14 //068   ----------------------------------------
 BYTE   PATT
  POIN2 Label_015743BA
//  #14 //069   ----------------------------------------
 BYTE   N96  En2  v064
 BYTE   W12
 BYTE   N12  Cn1  v080
 BYTE   W36
 BYTE   N12
 BYTE   W24
 BYTE   N12
 BYTE   W12
 BYTE   N12
 BYTE   W12
//  #14 //070   ----------------------------------------
 BYTE   PATT
  POIN2 Label_015742B1
//  #14 //071   ----------------------------------------
 BYTE   PATT
  POIN2 Label_015742EA
//  #14 //072   ----------------------------------------
 BYTE   PATT
  POIN2 Label_01573F55
//  #14 //073   ----------------------------------------
 BYTE   PATT
  POIN2 Label_015742EA
//  #14 //074   ----------------------------------------
 BYTE   PATT
  POIN2 Label_01573F55
//  #14 //075   ----------------------------------------
 BYTE   PATT
  POIN2 Label_015742EA
//  #14 //076   ----------------------------------------
 BYTE   PATT
  POIN2 Label_01573F55
//  #14 //077   ----------------------------------------
 BYTE   PATT
  POIN2 Label_01574335
//  #14 //078   ----------------------------------------
 BYTE   PATT
  POIN2 Label_0157400A
//  #14 //079   ----------------------------------------
 BYTE   PATT
  POIN2 Label_01574031
//  #14 //080   ----------------------------------------
 BYTE   PATT
  POIN2 Label_01574054
//  #14 //081   ----------------------------------------
 BYTE   PATT
  POIN2 Label_01574073
//  #14 //082   ----------------------------------------
 BYTE   PATT
  POIN2 Label_01574054
//  #14 //083   ----------------------------------------
 BYTE   PATT
  POIN2 Label_01574031
//  #14 //084   ----------------------------------------
 BYTE   PATT
  POIN2 Label_01574054
//  #14 //085   ----------------------------------------
 BYTE   N06  Fs1  v052
 BYTE   W06
 BYTE   N06
 BYTE   W06
 BYTE   N12  Cn1  v080
 BYTE   N06  Fs1  v052
 BYTE   W06
 BYTE   N06
 BYTE   W06
 BYTE   N12  Dn1  v092
 BYTE   N12  Fs1  v052
 BYTE   W24
 BYTE   Cn1  v080
 BYTE   N06  Dn1  v092
 BYTE   W06
 BYTE   N06
 BYTE   W06
 BYTE   N06
 BYTE   N12  Fs1  v052
 BYTE   W06
 BYTE   N06  Dn1  v092
 BYTE   W06
 BYTE   N12  Cn1  v080
 BYTE   N06  Dn1  v092
 BYTE   W06
 BYTE   N06
 BYTE   W06
 BYTE   N12
 BYTE   W12
//  #14 //086   ----------------------------------------
Label_01574491:
 BYTE   N06  Fs1  v052
 BYTE   W12
 BYTE   N06
 BYTE   W12
 BYTE   N06
 BYTE   W12
 BYTE   N06
 BYTE   W12
 BYTE   N06
 BYTE   W12
 BYTE   N06
 BYTE   W12
 BYTE   N06
 BYTE   W12
 BYTE   N06
 BYTE   W12
 BYTE   PEND 
//  #14 //087   ----------------------------------------
 BYTE   PATT
  POIN2 Label_01574491
//  #14 //088   ----------------------------------------
 BYTE   PATT
  POIN2 Label_01574491
//  #14 //089   ----------------------------------------
 BYTE   N06  Fs1  v052
 BYTE   W12
 BYTE   N06
 BYTE   W12
 BYTE   N06
 BYTE   W12
 BYTE   N06
 BYTE   W12
 BYTE   N06
 BYTE   W12
 BYTE   N06
 BYTE   W12
 BYTE   Dn1  v092
 BYTE   N06  Fs1  v052
 BYTE   W06
 BYTE   Dn1  v092
 BYTE   W06
 BYTE   N12
 BYTE   N06  Fs1  v052
 BYTE   W12
//  #14 //090   ----------------------------------------
 BYTE   GoTo
  POIN2 Label_015740DF
 BYTE   FINE

//**************** Track 15 (Midi-Chn.14) ****************//

FeldschlactIII_015:
//  #15 //000   ----------------------------------------
 BYTE   KEYSH   FeldschlactIII_key+0
 BYTE   VOICE   127
 BYTE   VOL   70*FeldschlactIII_mvl/mxv
 BYTE   W96
//  #15 //001   ----------------------------------------
 BYTE   W96
//  #15 //002   ----------------------------------------
 BYTE   W96
//  #15 //003   ----------------------------------------
 BYTE   W48
 BYTE   N06  Dn1  v080
 BYTE   W06
 BYTE   N06
 BYTE   W06
 BYTE   N06
 BYTE   W06
 BYTE   N06
 BYTE   W06
 BYTE   N06
 BYTE   W06
 BYTE   N06
 BYTE   W06
 BYTE   N12
 BYTE   W12
//  #15 //004   ----------------------------------------
Label_01573646:
 BYTE   W12
 BYTE   N12  Dn1  v080
 BYTE   W12
 BYTE   N12
 BYTE   W24
 BYTE   N12
 BYTE   W12
 BYTE   N12
 BYTE   W24
 BYTE   N06
 BYTE   W06
 BYTE   N06
 BYTE   W06
 BYTE   PEND 
//  #15 //005   ----------------------------------------
Label_01573656:
 BYTE   N06  Dn1  v080
 BYTE   W06
 BYTE   N06
 BYTE   W06
 BYTE   N06
 BYTE   W06
 BYTE   N06
 BYTE   W06
 BYTE   N12
 BYTE   W36
 BYTE   N12
 BYTE   W12
 BYTE   N12
 BYTE   W24
 BYTE   PEND 
//  #15 //006   ----------------------------------------
 BYTE   PATT
  POIN2 Label_01573646
//  #15 //007   ----------------------------------------
Label_0157366C:
 BYTE   N06  Dn1  v080
 BYTE   W06
 BYTE   N06
 BYTE   W06
 BYTE   N06
 BYTE   W06
 BYTE   N06
 BYTE   W06
 BYTE   N12
 BYTE   W72
 BYTE   PEND 
//  #15 //008   ----------------------------------------
 BYTE   W96
//  #15 //009   ----------------------------------------
 BYTE   W96
//  #15 //010   ----------------------------------------
 BYTE   W96
//  #15 //011   ----------------------------------------
 BYTE   W96
//  #15 //012   ----------------------------------------
 BYTE   W96
//  #15 //013   ----------------------------------------
 BYTE   W96
//  #15 //014   ----------------------------------------
 BYTE   W96
//  #15 //015   ----------------------------------------
 BYTE   W96
//  #15 //016   ----------------------------------------
 BYTE   W96
//  #15 //017   ----------------------------------------
 BYTE   W96
//  #15 //018   ----------------------------------------
 BYTE   W96
//  #15 //019   ----------------------------------------
 BYTE   W96
//  #15 //020   ----------------------------------------
Label_01573685:
 BYTE   W96
//  #15 //021   ----------------------------------------
 BYTE   W96
//  #15 //022   ----------------------------------------
 BYTE   W96
//  #15 //023   ----------------------------------------
 BYTE   W96
//  #15 //024   ----------------------------------------
 BYTE   W96
//  #15 //025   ----------------------------------------
 BYTE   W96
//  #15 //026   ----------------------------------------
 BYTE   W96
//  #15 //027   ----------------------------------------
 BYTE   W96
//  #15 //028   ----------------------------------------
 BYTE   W96
//  #15 //029   ----------------------------------------
 BYTE   W96
//  #15 //030   ----------------------------------------
 BYTE   W96
//  #15 //031   ----------------------------------------
 BYTE   W96
//  #15 //032   ----------------------------------------
 BYTE   W96
//  #15 //033   ----------------------------------------
 BYTE   W96
//  #15 //034   ----------------------------------------
 BYTE   W96
//  #15 //035   ----------------------------------------
 BYTE   W96
//  #15 //036   ----------------------------------------
 BYTE   W96
//  #15 //037   ----------------------------------------
 BYTE   W96
//  #15 //038   ----------------------------------------
 BYTE   PATT
  POIN2 Label_01573646
//  #15 //039   ----------------------------------------
 BYTE   PATT
  POIN2 Label_01573656
//  #15 //040   ----------------------------------------
 BYTE   PATT
  POIN2 Label_01573646
//  #15 //041   ----------------------------------------
 BYTE   PATT
  POIN2 Label_01573656
//  #15 //042   ----------------------------------------
 BYTE   PATT
  POIN2 Label_01573646
//  #15 //043   ----------------------------------------
 BYTE   PATT
  POIN2 Label_01573656
//  #15 //044   ----------------------------------------
 BYTE   PATT
  POIN2 Label_01573646
//  #15 //045   ----------------------------------------
 BYTE   PATT
  POIN2 Label_0157366C
//  #15 //046   ----------------------------------------
 BYTE   W96
//  #15 //047   ----------------------------------------
 BYTE   W96
//  #15 //048   ----------------------------------------
 BYTE   W96
//  #15 //049   ----------------------------------------
 BYTE   W96
//  #15 //050   ----------------------------------------
 BYTE   W96
//  #15 //051   ----------------------------------------
 BYTE   W96
//  #15 //052   ----------------------------------------
 BYTE   W96
//  #15 //053   ----------------------------------------
 BYTE   W96
//  #15 //054   ----------------------------------------
 BYTE   W96
//  #15 //055   ----------------------------------------
 BYTE   W96
//  #15 //056   ----------------------------------------
 BYTE   W96
//  #15 //057   ----------------------------------------
 BYTE   W96
//  #15 //058   ----------------------------------------
 BYTE   W96
//  #15 //059   ----------------------------------------
 BYTE   W96
//  #15 //060   ----------------------------------------
 BYTE   W96
//  #15 //061   ----------------------------------------
 BYTE   W96
//  #15 //062   ----------------------------------------
 BYTE   W96
//  #15 //063   ----------------------------------------
 BYTE   W96
//  #15 //064   ----------------------------------------
 BYTE   W96
//  #15 //065   ----------------------------------------
 BYTE   W96
//  #15 //066   ----------------------------------------
 BYTE   W96
//  #15 //067   ----------------------------------------
 BYTE   W96
//  #15 //068   ----------------------------------------
 BYTE   W96
//  #15 //069   ----------------------------------------
 BYTE   W96
//  #15 //070   ----------------------------------------
 BYTE   PATT
  POIN2 Label_01573646
//  #15 //071   ----------------------------------------
 BYTE   PATT
  POIN2 Label_01573656
//  #15 //072   ----------------------------------------
 BYTE   PATT
  POIN2 Label_01573646
//  #15 //073   ----------------------------------------
 BYTE   PATT
  POIN2 Label_01573656
//  #15 //074   ----------------------------------------
 BYTE   PATT
  POIN2 Label_01573646
//  #15 //075   ----------------------------------------
 BYTE   PATT
  POIN2 Label_01573656
//  #15 //076   ----------------------------------------
 BYTE   PATT
  POIN2 Label_01573646
//  #15 //077   ----------------------------------------
 BYTE   PATT
  POIN2 Label_0157366C
//  #15 //078   ----------------------------------------
 BYTE   W96
//  #15 //079   ----------------------------------------
 BYTE   W96
//  #15 //080   ----------------------------------------
 BYTE   W96
//  #15 //081   ----------------------------------------
 BYTE   W96
//  #15 //082   ----------------------------------------
 BYTE   W96
//  #15 //083   ----------------------------------------
 BYTE   W96
//  #15 //084   ----------------------------------------
 BYTE   W96
//  #15 //085   ----------------------------------------
 BYTE   W96
//  #15 //086   ----------------------------------------
 BYTE   W96
//  #15 //087   ----------------------------------------
 BYTE   W96
//  #15 //088   ----------------------------------------
 BYTE   W96
//  #15 //089   ----------------------------------------
 BYTE   W96
//  #15 //090   ----------------------------------------
 BYTE   GoTo
  POIN2 Label_01573685
 BYTE   FINE

//******************************************************//
	ALIGN 4

FeldschlactIII:
	BYTE	15	// NumTrks
	BYTE	0	// NumBlks
	BYTE	FeldschlactIII_pri	// Priority
	BYTE	FeldschlactIII_rev	// Reverb.
    
	POIN2	FeldschlactIII_grp
    
	POIN2	FeldschlactIII_001
	POIN2	FeldschlactIII_002
	POIN2	FeldschlactIII_003
	POIN2	FeldschlactIII_004
	POIN2	FeldschlactIII_005
	POIN2	FeldschlactIII_006
	POIN2	FeldschlactIII_007
	POIN2	FeldschlactIII_008
	POIN2	FeldschlactIII_009
	POIN2	FeldschlactIII_010
	POIN2	FeldschlactIII_011
	POIN2	FeldschlactIII_012
	POIN2	FeldschlactIII_013
	POIN2	FeldschlactIII_014
	POIN2	FeldschlactIII_015

	
