//Event file generated from Sappy .s format.
	#include "MPlayDef.event"

	#define	FierceAsFire_grp  voicegroup000
	#define	FierceAsFire_pri  0
	#define	FierceAsFire_rev  0
	#define	FierceAsFire_mvl  127
	#define	FierceAsFire_key  0
	#define	FierceAsFire_tbs  1
	#define	FierceAsFire_exg  0
	#define	FierceAsFire_cmp  1

	// .rodata
	//	FierceAsFire
	ALIGN 4


//**************** Track 1 (Midi-Chn.0) ****************//

FierceAsFire_001:
//  #01 //000   ----------------------------------------
 BYTE   KEYSH   FierceAsFire_key+0
 BYTE   TEMPO   164*FierceAsFire_tbs/2
 BYTE   VOICE   18
 BYTE   VOL   62*FierceAsFire_mvl/mxv
 BYTE   W12
Label_018FBFD9:
 BYTE   W96
//  #01 //001   ----------------------------------------
 BYTE   W96
//  #01 //002   ----------------------------------------
 BYTE   W96
//  #01 //003   ----------------------------------------
 BYTE   W96
//  #01 //004   ----------------------------------------
 BYTE   W96
//  #01 //005   ----------------------------------------
 BYTE   W96
//  #01 //006   ----------------------------------------
 BYTE   W96
//  #01 //007   ----------------------------------------
 BYTE   W96
//  #01 //008   ----------------------------------------
 BYTE   W96
//  #01 //009   ----------------------------------------
 BYTE   W96
//  #01 //010   ----------------------------------------
 BYTE   W96
//  #01 //011   ----------------------------------------
 BYTE   W96
//  #01 //012   ----------------------------------------
 BYTE   W96
//  #01 //013   ----------------------------------------
 BYTE   W96
//  #01 //014   ----------------------------------------
 BYTE   W96
//  #01 //015   ----------------------------------------
 BYTE   W96
//  #01 //016   ----------------------------------------
 BYTE   W96
//  #01 //017   ----------------------------------------
 BYTE   W96
//  #01 //018   ----------------------------------------
 BYTE   W96
//  #01 //019   ----------------------------------------
 BYTE   W96
//  #01 //020   ----------------------------------------
 BYTE   W96
//  #01 //021   ----------------------------------------
 BYTE   W96
//  #01 //022   ----------------------------------------
 BYTE   W96
//  #01 //023   ----------------------------------------
 BYTE   W96
//  #01 //024   ----------------------------------------
Label_018FBFF1:
 BYTE   W12
 BYTE   N05  Ds3  v096
 BYTE   W12
 BYTE   N11  As3  v127
 BYTE   W24
 BYTE   Fs3
 BYTE   W12
 BYTE   Gs3  v096
 BYTE   W24
 BYTE   Cs4
 BYTE   W12
 BYTE   PEND 
//  #01 //025   ----------------------------------------
Label_018FC002:
 BYTE   W12
 BYTE   N05  Gs3  v096
 BYTE   W12
 BYTE   N11  As3  v127
 BYTE   W24
 BYTE   Fs3
 BYTE   W12
 BYTE   N05  Gs3  v096
 BYTE   W12
 BYTE   Ds3  v127
 BYTE   W12
 BYTE   Fn3  v096
 BYTE   W12
 BYTE   PEND 
//  #01 //026   ----------------------------------------
 BYTE   PATT
  POIN2 Label_018FBFF1
//  #01 //027   ----------------------------------------
 BYTE   PATT
  POIN2 Label_018FC002
//  #01 //028   ----------------------------------------
Label_018FC022:
 BYTE   W12
 BYTE   N05  Ds3  v096
 BYTE   N05  Ds4
 BYTE   W12
 BYTE   N11  As3  v127
 BYTE   N11  As4
 BYTE   W24
 BYTE   Fs3
 BYTE   N11  Fs4
 BYTE   W12
 BYTE   Gs3  v096
 BYTE   N11  Gs4
 BYTE   W24
 BYTE   Cs4
 BYTE   N11  Cs5
 BYTE   W12
 BYTE   PEND 
//  #01 //029   ----------------------------------------
Label_018FC03D:
 BYTE   W12
 BYTE   N05  Gs3  v096
 BYTE   N05  Gs4
 BYTE   W12
 BYTE   N11  As3  v127
 BYTE   N11  As4
 BYTE   W24
 BYTE   Fs3
 BYTE   N11  Fs4
 BYTE   W12
 BYTE   N05  Gs3  v096
 BYTE   N05  Gs4
 BYTE   W12
 BYTE   Ds3  v127
 BYTE   N05  Ds4
 BYTE   W12
 BYTE   Fn3  v096
 BYTE   N05  Fn4
 BYTE   W12
 BYTE   PEND 
//  #01 //030   ----------------------------------------
 BYTE   PATT
  POIN2 Label_018FC022
//  #01 //031   ----------------------------------------
 BYTE   PATT
  POIN2 Label_018FC03D
//  #01 //032   ----------------------------------------
 BYTE   W96
//  #01 //033   ----------------------------------------
 BYTE   W96
//  #01 //034   ----------------------------------------
 BYTE   W96
//  #01 //035   ----------------------------------------
 BYTE   W96
//  #01 //036   ----------------------------------------
 BYTE   W96
//  #01 //037   ----------------------------------------
 BYTE   W96
//  #01 //038   ----------------------------------------
 BYTE   W96
//  #01 //039   ----------------------------------------
 BYTE   W96
//  #01 //040   ----------------------------------------
Label_018FC071:
 BYTE   W48
 BYTE   N11  Ds3  v080
 BYTE   N11  Fs3
 BYTE   W24
 BYTE   Fn3
 BYTE   N11  Gs3
 BYTE   W24
 BYTE   PEND 
//  #01 //041   ----------------------------------------
Label_018FC07D:
 BYTE   N11  Fs3  v080
 BYTE   N11  As3
 BYTE   W24
 BYTE   Gs3
 BYTE   N11  Bn3
 BYTE   W24
 BYTE   As3
 BYTE   N11  Cs4
 BYTE   W24
 BYTE   Fs3
 BYTE   N11  As3
 BYTE   W24
 BYTE   PEND 
//  #01 //042   ----------------------------------------
Label_018FC090:
 BYTE   N11  Gs3  v080
 BYTE   N11  Bn3
 BYTE   W24
 BYTE   Gs3
 BYTE   N11  Cs4
 BYTE   W24
 BYTE   As3
 BYTE   N11  Ds4
 BYTE   W24
 BYTE   Bn3
 BYTE   N11  En4
 BYTE   W24
 BYTE   PEND 
//  #01 //043   ----------------------------------------
Label_018FC0A3:
 BYTE   N11  Cs4  v080
 BYTE   N11  Fs4
 BYTE   W24
 BYTE   Gs3  v084
 BYTE   N11  Cs4
 BYTE   W24
 BYTE   Fs3  v088
 BYTE   N11  Fs4
 BYTE   W24
 BYTE   Gs3  v092
 BYTE   N11  Gs4
 BYTE   W24
 BYTE   PEND 
//  #01 //044   ----------------------------------------
Label_018FC0B9:
 BYTE   N92  As4  v096  gtp3
 BYTE   W12
 BYTE   N05  Ds3
 BYTE   W12
 BYTE   Fn3
 BYTE   W12
 BYTE   Fs3
 BYTE   W12
 BYTE   Gs3
 BYTE   W12
 BYTE   Fn3
 BYTE   W12
 BYTE   Fs3
 BYTE   W12
 BYTE   Gs3
 BYTE   W12
 BYTE   PEND 
//  #01 //045   ----------------------------------------
Label_018FC0CE:
 BYTE   N05  As3  v096
 BYTE   W12
 BYTE   Ds4
 BYTE   N05  Ds3
 BYTE   W12
 BYTE   Fn4
 BYTE   N05  Fn3
 BYTE   W12
 BYTE   Fs4
 BYTE   N05  Fs3
 BYTE   W12
 BYTE   Gs4
 BYTE   N05  Gs3
 BYTE   W12
 BYTE   Fn4
 BYTE   N05  Fn3
 BYTE   W12
 BYTE   Fs4
 BYTE   N05  Fs3
 BYTE   W12
 BYTE   Gs4
 BYTE   N05  Gs3
 BYTE   W12
 BYTE   PEND 
//  #01 //046   ----------------------------------------
Label_018FC0EF:
 BYTE   N05  As4  v096
 BYTE   N05  As3
 BYTE   W12
 BYTE   Fn4
 BYTE   N05  Fn3
 BYTE   W12
 BYTE   Fn4
 BYTE   N05  Fn3
 BYTE   W12
 BYTE   Ds4
 BYTE   N05  Ds3
 BYTE   W12
 BYTE   Ds4
 BYTE   N05  Ds3
 BYTE   W12
 BYTE   As3
 BYTE   N05  As2
 BYTE   W12
 BYTE   As3
 BYTE   N05  As2
 BYTE   W12
 BYTE   N01  Fn3
 BYTE   N05
 BYTE   W12
 BYTE   PEND 
//  #01 //047   ----------------------------------------
Label_018FC112:
 BYTE   N01  Fn3  v096
 BYTE   N05
 BYTE   W12
 BYTE   N01  Ds3  v098
 BYTE   N05
 BYTE   W12
 BYTE   N01  Fn3  v100
 BYTE   N05
 BYTE   W12
 BYTE   N01  Fs3  v102
 BYTE   N05
 BYTE   W12
 BYTE   N01  As3  v104
 BYTE   N05
 BYTE   W12
 BYTE   Fn4  v106
 BYTE   N05  Fn3
 BYTE   W12
 BYTE   Fs4  v108
 BYTE   N05  Fs3
 BYTE   W12
 BYTE   Cs5  v110
 BYTE   N05  Cs4
 BYTE   W12
 BYTE   PEND 
//  #01 //048   ----------------------------------------
Label_018FC13B:
 BYTE   W48
 BYTE   N11  Gs3  v120
 BYTE   N11  Gs4
 BYTE   W12
 BYTE   N05  Fn3  v080
 BYTE   N05  Fn4
 BYTE   W12
 BYTE   Ds3
 BYTE   N05  Ds4
 BYTE   W12
 BYTE   Gs2
 BYTE   N05  Gs3
 BYTE   W12
 BYTE   PEND 
//  #01 //049   ----------------------------------------
 BYTE   PATT
  POIN2 Label_018FC13B
//  #01 //050   ----------------------------------------
 BYTE   PATT
  POIN2 Label_018FC13B
//  #01 //051   ----------------------------------------
 BYTE   PATT
  POIN2 Label_018FC13B
//  #01 //052   ----------------------------------------
Label_018FC160:
 BYTE   W48
 BYTE   N11  Gs3  v120
 BYTE   W12
 BYTE   N05  Fn3  v080
 BYTE   W12
 BYTE   Ds3
 BYTE   W12
 BYTE   Gs2
 BYTE   W12
 BYTE   PEND 
//  #01 //053   ----------------------------------------
 BYTE   PATT
  POIN2 Label_018FC160
//  #01 //054   ----------------------------------------
 BYTE   PATT
  POIN2 Label_018FC160
//  #01 //055   ----------------------------------------
 BYTE   PATT
  POIN2 Label_018FC160
//  #01 //056   ----------------------------------------
Label_018FC17D:
 BYTE   W72
 BYTE   N11  Fn3  v112
 BYTE   W12
 BYTE   As3
 BYTE   W12
 BYTE   PEND 
//  #01 //057   ----------------------------------------
Label_018FC185:
 BYTE   N68  Fn4  v112  gtp3
 BYTE   W72
 BYTE   N11  Ds4
 BYTE   W12
 BYTE   Cs4
 BYTE   W12
 BYTE   PEND 
//  #01 //058   ----------------------------------------
Label_018FC190:
 BYTE   N11  Cn4  v112
 BYTE   W12
 BYTE   Cs4
 BYTE   W12
 BYTE   N23  Ds4
 BYTE   W24
 BYTE   Cs4
 BYTE   W24
 BYTE   N11  Cn4
 BYTE   W12
 BYTE   As3
 BYTE   W12
 BYTE   PEND 
//  #01 //059   ----------------------------------------
Label_018FC1A1:
 BYTE   N23  Cn4  v112
 BYTE   W24
 BYTE   N44  Fn3  v112  gtp3
 BYTE   W48
 BYTE   N23  As3
 BYTE   W24
 BYTE   PEND 
//  #01 //060   ----------------------------------------
Label_018FC1AE:
 BYTE   N23  Gs3  v112
 BYTE   W24
 BYTE   N11  Gn3
 BYTE   W12
 BYTE   Fn3
 BYTE   W12
 BYTE   N23  Gn3
 BYTE   W24
 BYTE   Ds3
 BYTE   W24
 BYTE   PEND 
//  #01 //061   ----------------------------------------
Label_018FC1BD:
 BYTE   N32  Fn3  v112  gtp3
 BYTE   W36
 BYTE   N11  Ds3
 BYTE   W12
 BYTE   N32  Fn3  v112  gtp3
 BYTE   W36
 BYTE   N11  Ds3
 BYTE   W12
 BYTE   PEND 
//  #01 //062   ----------------------------------------
Label_018FC1CE:
 BYTE   N11  Fn3  v112
 BYTE   W12
 BYTE   As3
 BYTE   W12
 BYTE   TIE  Fn3
 BYTE   W72
 BYTE   PEND 
//  #01 //063   ----------------------------------------
 BYTE   W92
 BYTE   W03
 BYTE   EOT
 BYTE   W01
//  #01 //064   ----------------------------------------
 BYTE   W96
//  #01 //065   ----------------------------------------
 BYTE   W96
//  #01 //066   ----------------------------------------
 BYTE   W96
//  #01 //067   ----------------------------------------
 BYTE   W96
//  #01 //068   ----------------------------------------
 BYTE   W96
//  #01 //069   ----------------------------------------
Label_018FC1E1:
 BYTE   N01  Cn4  v064
 BYTE   N44  Cn4  v064  gtp3
 BYTE   W48
 BYTE   N01  Ds4
 BYTE   N44  Ds4  v064  gtp3
 BYTE   W48
 BYTE   PEND 
//  #01 //070   ----------------------------------------
Label_018FC1F1:
 BYTE   N01  Cs4  v064
 BYTE   TIE
 BYTE   W96
 BYTE   PEND 
//  #01 //071   ----------------------------------------
Label_018FC1F7:
 BYTE   N92  Fn4  v064  gtp3
 BYTE   W92
 BYTE   W03
 BYTE   EOT
 BYTE   Cs4
 BYTE   W01
 BYTE   PEND 
//  #01 //072   ----------------------------------------
Label_018FC201:
 BYTE   TIE  As3  v064
 BYTE   TIE  Ds4
 BYTE   W96
 BYTE   PEND 
//  #01 //073   ----------------------------------------
Label_018FC208:
 BYTE   W92
 BYTE   W03
 BYTE   EOT
 BYTE   As3  v075
 BYTE   W01
 BYTE   PEND 
//  #01 //074   ----------------------------------------
Label_018FC20F:
 BYTE   TIE  Bn3  v064
 BYTE   TIE  Cs4
 BYTE   W96
 BYTE   PEND 
//  #01 //075   ----------------------------------------
Label_018FC216:
 BYTE   W92
 BYTE   W03
 BYTE   EOT
 BYTE   Bn3  v073
 BYTE   W01
 BYTE   PEND 
//  #01 //076   ----------------------------------------
 BYTE   TIE  Ds4  v096
 BYTE   W96
//  #01 //077   ----------------------------------------
 BYTE   W96
//  #01 //078   ----------------------------------------
 BYTE   W96
//  #01 //079   ----------------------------------------
 BYTE   W92
 BYTE   W03
 BYTE   EOT
 BYTE   W01
//  #01 //080   ----------------------------------------
Label_018FC227:
 BYTE   W12
 BYTE   N05  Ds3  v080
 BYTE   W12
 BYTE   N11  Gs3
 BYTE   W12
 BYTE   N05  Ds3
 BYTE   W12
 BYTE   N11  As3
 BYTE   W12
 BYTE   N05  Ds3
 BYTE   W12
 BYTE   N11  Gs3
 BYTE   W12
 BYTE   N05  Ds3
 BYTE   W12
 BYTE   PEND 
//  #01 //081   ----------------------------------------
Label_018FC23F:
 BYTE   N11  Gs3  v120
 BYTE   W12
 BYTE   N05  As3  v080
 BYTE   W24
 BYTE   N11  Cs4  v120
 BYTE   W24
 BYTE   Gs3  v080
 BYTE   W12
 BYTE   As3  v120
 BYTE   W12
 BYTE   N05  Ds3  v080
 BYTE   W12
 BYTE   PEND 
//  #01 //082   ----------------------------------------
Label_018FC256:
 BYTE   W12
 BYTE   N05  Ds3  v080
 BYTE   N05  Ds4
 BYTE   W12
 BYTE   Gs3
 BYTE   N05  Gs4
 BYTE   W12
 BYTE   Ds3
 BYTE   N05  Ds4
 BYTE   W12
 BYTE   As3
 BYTE   N05  As4
 BYTE   W12
 BYTE   Ds3
 BYTE   N05  Ds4
 BYTE   W12
 BYTE   Gs3
 BYTE   N05  Gs4
 BYTE   W12
 BYTE   Ds3
 BYTE   N05  Ds4
 BYTE   W12
 BYTE   PEND 
//  #01 //083   ----------------------------------------
Label_018FC276:
 BYTE   N11  Gs3  v080
 BYTE   N11  Gs4
 BYTE   W12
 BYTE   N05  As3
 BYTE   N05  As4
 BYTE   W12
 BYTE   Ds4
 BYTE   N05  Ds5
 BYTE   W12
 BYTE   Cs4
 BYTE   N05  Cs5
 BYTE   W12
 BYTE   Ds4
 BYTE   N05  Ds5
 BYTE   W12
 BYTE   Gs3
 BYTE   N05  Gs4
 BYTE   W12
 BYTE   As3
 BYTE   N05  As4
 BYTE   W12
 BYTE   Ds4
 BYTE   N05  Ds5
 BYTE   W12
 BYTE   PEND 
//  #01 //084   ----------------------------------------
 BYTE   GoTo
  POIN2 Label_018FBFD9
//  #01 //085   ----------------------------------------
 BYTE   W96
//  #01 //086   ----------------------------------------
 BYTE   W96
//  #01 //087   ----------------------------------------
 BYTE   W96
//  #01 //088   ----------------------------------------
 BYTE   W96
//  #01 //089   ----------------------------------------
 BYTE   W96
//  #01 //090   ----------------------------------------
 BYTE   W96
//  #01 //091   ----------------------------------------
 BYTE   W96
//  #01 //092   ----------------------------------------
 BYTE   W96
//  #01 //093   ----------------------------------------
 BYTE   W96
//  #01 //094   ----------------------------------------
 BYTE   W96
//  #01 //095   ----------------------------------------
 BYTE   W96
//  #01 //096   ----------------------------------------
 BYTE   W96
//  #01 //097   ----------------------------------------
 BYTE   W96
//  #01 //098   ----------------------------------------
 BYTE   W96
//  #01 //099   ----------------------------------------
 BYTE   W96
//  #01 //100   ----------------------------------------
 BYTE   W96
//  #01 //101   ----------------------------------------
 BYTE   W96
//  #01 //102   ----------------------------------------
 BYTE   W96
//  #01 //103   ----------------------------------------
 BYTE   W96
//  #01 //104   ----------------------------------------
 BYTE   W96
//  #01 //105   ----------------------------------------
 BYTE   W96
//  #01 //106   ----------------------------------------
 BYTE   W96
//  #01 //107   ----------------------------------------
 BYTE   W96
//  #01 //108   ----------------------------------------
 BYTE   W96
//  #01 //109   ----------------------------------------
 BYTE   PATT
  POIN2 Label_018FBFF1
//  #01 //110   ----------------------------------------
 BYTE   PATT
  POIN2 Label_018FC002
//  #01 //111   ----------------------------------------
 BYTE   PATT
  POIN2 Label_018FBFF1
//  #01 //112   ----------------------------------------
 BYTE   PATT
  POIN2 Label_018FC002
//  #01 //113   ----------------------------------------
 BYTE   PATT
  POIN2 Label_018FC022
//  #01 //114   ----------------------------------------
 BYTE   PATT
  POIN2 Label_018FC03D
//  #01 //115   ----------------------------------------
 BYTE   PATT
  POIN2 Label_018FC022
//  #01 //116   ----------------------------------------
 BYTE   PATT
  POIN2 Label_018FC03D
//  #01 //117   ----------------------------------------
 BYTE   W96
//  #01 //118   ----------------------------------------
 BYTE   W96
//  #01 //119   ----------------------------------------
 BYTE   W96
//  #01 //120   ----------------------------------------
 BYTE   W96
//  #01 //121   ----------------------------------------
 BYTE   W96
//  #01 //122   ----------------------------------------
 BYTE   W96
//  #01 //123   ----------------------------------------
 BYTE   W96
//  #01 //124   ----------------------------------------
 BYTE   W96
//  #01 //125   ----------------------------------------
 BYTE   PATT
  POIN2 Label_018FC071
//  #01 //126   ----------------------------------------
 BYTE   PATT
  POIN2 Label_018FC07D
//  #01 //127   ----------------------------------------
 BYTE   PATT
  POIN2 Label_018FC090
//  #01 //128   ----------------------------------------
 BYTE   PATT
  POIN2 Label_018FC0A3
//  #01 //129   ----------------------------------------
 BYTE   PATT
  POIN2 Label_018FC0B9
//  #01 //130   ----------------------------------------
 BYTE   PATT
  POIN2 Label_018FC0CE
//  #01 //131   ----------------------------------------
 BYTE   PATT
  POIN2 Label_018FC0EF
//  #01 //132   ----------------------------------------
 BYTE   PATT
  POIN2 Label_018FC112
//  #01 //133   ----------------------------------------
 BYTE   PATT
  POIN2 Label_018FC13B
//  #01 //134   ----------------------------------------
 BYTE   PATT
  POIN2 Label_018FC13B
//  #01 //135   ----------------------------------------
 BYTE   PATT
  POIN2 Label_018FC13B
//  #01 //136   ----------------------------------------
 BYTE   PATT
  POIN2 Label_018FC13B
//  #01 //137   ----------------------------------------
 BYTE   PATT
  POIN2 Label_018FC160
//  #01 //138   ----------------------------------------
 BYTE   PATT
  POIN2 Label_018FC160
//  #01 //139   ----------------------------------------
 BYTE   PATT
  POIN2 Label_018FC160
//  #01 //140   ----------------------------------------
 BYTE   PATT
  POIN2 Label_018FC160
//  #01 //141   ----------------------------------------
 BYTE   PATT
  POIN2 Label_018FC17D
//  #01 //142   ----------------------------------------
 BYTE   PATT
  POIN2 Label_018FC185
//  #01 //143   ----------------------------------------
 BYTE   PATT
  POIN2 Label_018FC190
//  #01 //144   ----------------------------------------
 BYTE   PATT
  POIN2 Label_018FC1A1
//  #01 //145   ----------------------------------------
 BYTE   PATT
  POIN2 Label_018FC1AE
//  #01 //146   ----------------------------------------
 BYTE   PATT
  POIN2 Label_018FC1BD
//  #01 //147   ----------------------------------------
 BYTE   PATT
  POIN2 Label_018FC1CE
//  #01 //148   ----------------------------------------
 BYTE   W92
 BYTE   W03
 BYTE   EOT
 BYTE   Fn3
 BYTE   W01
//  #01 //149   ----------------------------------------
 BYTE   W96
//  #01 //150   ----------------------------------------
 BYTE   W96
//  #01 //151   ----------------------------------------
 BYTE   W96
//  #01 //152   ----------------------------------------
 BYTE   W96
//  #01 //153   ----------------------------------------
 BYTE   W96
//  #01 //154   ----------------------------------------
 BYTE   PATT
  POIN2 Label_018FC1E1
//  #01 //155   ----------------------------------------
 BYTE   PATT
  POIN2 Label_018FC1F1
//  #01 //156   ----------------------------------------
 BYTE   PATT
  POIN2 Label_018FC1F7
//  #01 //157   ----------------------------------------
 BYTE   PATT
  POIN2 Label_018FC201
//  #01 //158   ----------------------------------------
 BYTE   PATT
  POIN2 Label_018FC208
//  #01 //159   ----------------------------------------
 BYTE   PATT
  POIN2 Label_018FC20F
//  #01 //160   ----------------------------------------
 BYTE   PATT
  POIN2 Label_018FC216
//  #01 //161   ----------------------------------------
 BYTE   TIE  Ds4  v096
 BYTE   W96
//  #01 //162   ----------------------------------------
 BYTE   W96
//  #01 //163   ----------------------------------------
 BYTE   W96
//  #01 //164   ----------------------------------------
 BYTE   W92
 BYTE   W03
 BYTE   EOT
 BYTE   W01
//  #01 //165   ----------------------------------------
 BYTE   PATT
  POIN2 Label_018FC227
//  #01 //166   ----------------------------------------
 BYTE   PATT
  POIN2 Label_018FC23F
//  #01 //167   ----------------------------------------
 BYTE   PATT
  POIN2 Label_018FC256
//  #01 //168   ----------------------------------------
 BYTE   PATT
  POIN2 Label_018FC276
//  #01 //169   ----------------------------------------
 BYTE   W96
//  #01 //170   ----------------------------------------
 BYTE   W96
//  #01 //171   ----------------------------------------
 BYTE   W96
//  #01 //172   ----------------------------------------
 BYTE   W92
 BYTE   W03
 BYTE   FINE

//**************** Track 2 (Midi-Chn.1) ****************//

FierceAsFire_002:
//  #02 //000   ----------------------------------------
 BYTE   KEYSH   FierceAsFire_key+0
 BYTE   VOICE   49
 BYTE   VOL   42*FierceAsFire_mvl/mxv
 BYTE   W12
Label_01004FEB:
 BYTE   W24
 BYTE   N11  As2  v073
 BYTE   W24
 BYTE   Fs2
 BYTE   W12
 BYTE   Gs2  v049
 BYTE   W24
//  #02 //001   ----------------------------------------
 BYTE   Cs3
 BYTE   W12
Label_01004FF7:
 BYTE   W24
 BYTE   N11  As2  v073
 BYTE   W24
 BYTE   Fs2
 BYTE   W12
 BYTE   N05  Gs2  v049
 BYTE   W36
 BYTE   PEND 
//  #02 //002   ----------------------------------------
Label_01005003:
 BYTE   W24
 BYTE   N11  As2  v073
 BYTE   W24
 BYTE   Fs2
 BYTE   W12
 BYTE   Gs2  v049
 BYTE   W24
 BYTE   Cs3
 BYTE   W12
 BYTE   PEND 
//  #02 //003   ----------------------------------------
 BYTE   PATT
  POIN2 Label_01004FF7
//  #02 //004   ----------------------------------------
 BYTE   PATT
  POIN2 Label_01005003
//  #02 //005   ----------------------------------------
 BYTE   PATT
  POIN2 Label_01004FF7
//  #02 //006   ----------------------------------------
 BYTE   PATT
  POIN2 Label_01005003
//  #02 //007   ----------------------------------------
 BYTE   PATT
  POIN2 Label_01004FF7
//  #02 //008   ----------------------------------------
Label_01005029:
 BYTE   W24
 BYTE   N11  As2  v096
 BYTE   W24
 BYTE   Fs2
 BYTE   W12
 BYTE   Gs2  v064
 BYTE   W24
 BYTE   Cs3
 BYTE   W12
 BYTE   PEND 
//  #02 //009   ----------------------------------------
Label_01005036:
 BYTE   W24
 BYTE   N11  As2  v096
 BYTE   W24
 BYTE   Fs2
 BYTE   W12
 BYTE   N05  Gs2  v064
 BYTE   W36
 BYTE   PEND 
//  #02 //010   ----------------------------------------
 BYTE   PATT
  POIN2 Label_01005029
//  #02 //011   ----------------------------------------
 BYTE   PATT
  POIN2 Label_01005036
//  #02 //012   ----------------------------------------
 BYTE   PATT
  POIN2 Label_01005029
//  #02 //013   ----------------------------------------
Label_01005051:
 BYTE   W24
 BYTE   N11  As2  v096
 BYTE   W24
 BYTE   TIE  Cs3  v064
 BYTE   N11  Fs2
 BYTE   W12
 BYTE   N05  Gs2  v068
 BYTE   W36
 BYTE   PEND 
//  #02 //014   ----------------------------------------
Label_01005061:
 BYTE   W24
 BYTE   N23  As2  v088
 BYTE   W24
 BYTE   N11  Fs2  v096
 BYTE   W12
 BYTE   Gs2  v100
 BYTE   W24
 BYTE   EOT
 BYTE   Cs3
 BYTE   N11  Cs3  v108
 BYTE   W12
 BYTE   PEND 
//  #02 //015   ----------------------------------------
Label_01005074:
 BYTE   N92  Fn3  v127  gtp3
 BYTE   W24
 BYTE   N23  As2  v100
 BYTE   W24
 BYTE   N11  Fs2  v088
 BYTE   W12
 BYTE   N05  Gs2  v082
 BYTE   W36
 BYTE   PEND 
//  #02 //016   ----------------------------------------
 BYTE   PATT
  POIN2 Label_01005029
//  #02 //017   ----------------------------------------
 BYTE   PATT
  POIN2 Label_01005036
//  #02 //018   ----------------------------------------
 BYTE   PATT
  POIN2 Label_01005029
//  #02 //019   ----------------------------------------
 BYTE   PATT
  POIN2 Label_01005036
//  #02 //020   ----------------------------------------
 BYTE   PATT
  POIN2 Label_01005029
//  #02 //021   ----------------------------------------
Label_0100509F:
 BYTE   W24
 BYTE   N11  As2  v096
 BYTE   W24
 BYTE   N92  Fs3  v064  gtp3
 BYTE   N11  Fs2
 BYTE   W12
 BYTE   N05  Gs2  v072
 BYTE   W36
 BYTE   PEND 
//  #02 //022   ----------------------------------------
Label_010050B0:
 BYTE   W24
 BYTE   N23  As2  v096
 BYTE   W24
 BYTE   N44  Fn3  v127  gtp3
 BYTE   N11  Fs2  v096
 BYTE   W12
 BYTE   Gs2
 BYTE   W24
 BYTE   Cs3
 BYTE   W12
 BYTE   PEND 
//  #02 //023   ----------------------------------------
Label_010050C2:
 BYTE   N44  Ds3  v127  gtp3
 BYTE   W24
 BYTE   N23  As2  v096
 BYTE   W24
 BYTE   N44  Cs3  v127  gtp3
 BYTE   N11  Fs2  v096
 BYTE   W12
 BYTE   N05  Gs2
 BYTE   W36
 BYTE   PEND 
//  #02 //024   ----------------------------------------
Label_010050D7:
 BYTE   N05  As2  v127
 BYTE   N05  Ds3
 BYTE   W12
 BYTE   As2  v096
 BYTE   N05  Ds3
 BYTE   W24
 BYTE   As2
 BYTE   N05  Ds3
 BYTE   W36
 BYTE   As2
 BYTE   N05  Ds3
 BYTE   W24
 BYTE   PEND 
//  #02 //025   ----------------------------------------
Label_010050EB:
 BYTE   N05  As2  v096
 BYTE   N05  Ds3
 BYTE   W36
 BYTE   As2
 BYTE   N05  Ds3
 BYTE   W36
 BYTE   As2
 BYTE   N05  Ds3
 BYTE   W12
 BYTE   Bn2
 BYTE   N05  Fn3
 BYTE   W12
 BYTE   PEND 
//  #02 //026   ----------------------------------------
 BYTE   PATT
  POIN2 Label_010050D7
//  #02 //027   ----------------------------------------
Label_01005103:
 BYTE   N05  As2  v096
 BYTE   N05  Ds3
 BYTE   W36
 BYTE   As2
 BYTE   N05  Ds3
 BYTE   W36
 BYTE   As2
 BYTE   N05  Ds3
 BYTE   W12
 BYTE   As2
 BYTE   N05  Cs3
 BYTE   W12
 BYTE   PEND 
//  #02 //028   ----------------------------------------
 BYTE   PATT
  POIN2 Label_010050D7
//  #02 //029   ----------------------------------------
 BYTE   PATT
  POIN2 Label_010050EB
//  #02 //030   ----------------------------------------
 BYTE   PATT
  POIN2 Label_010050D7
//  #02 //031   ----------------------------------------
 BYTE   PATT
  POIN2 Label_01005103
//  #02 //032   ----------------------------------------
Label_0100512A:
 BYTE   W24
 BYTE   N11  Gs2  v096
 BYTE   N11  Bn2
 BYTE   W24
 BYTE   As2
 BYTE   N11  Cs3
 BYTE   W24
 BYTE   Gs2
 BYTE   N11  Bn2
 BYTE   W24
 BYTE   PEND 
//  #02 //033   ----------------------------------------
Label_0100513A:
 BYTE   N11  As2  v096
 BYTE   N11  Cs3
 BYTE   W24
 BYTE   Gs2
 BYTE   N11  Bn2
 BYTE   W24
 BYTE   As2
 BYTE   N11  Cs3
 BYTE   W24
 BYTE   Gs2
 BYTE   N11  Bn2
 BYTE   W24
 BYTE   PEND 
//  #02 //034   ----------------------------------------
Label_0100514D:
 BYTE   W24
 BYTE   N11  Gs2  v096
 BYTE   N11  Bn2
 BYTE   W24
 BYTE   Fn2
 BYTE   N11  Gs2
 BYTE   W24
 BYTE   Gs2
 BYTE   N11  Bn2
 BYTE   W24
 BYTE   PEND 
//  #02 //035   ----------------------------------------
Label_0100515D:
 BYTE   N05  Fs2  v096
 BYTE   N05  As2
 BYTE   W12
 BYTE   Fs2
 BYTE   N05  As2
 BYTE   W12
 BYTE   N11  Gs2
 BYTE   N11  Bn2
 BYTE   W24
 BYTE   N05  As2
 BYTE   N05  Cs3
 BYTE   W12
 BYTE   As2
 BYTE   N05  Cs3
 BYTE   W12
 BYTE   N11  Bn2
 BYTE   N11  Ds3
 BYTE   W24
 BYTE   PEND 
//  #02 //036   ----------------------------------------
Label_0100517B:
 BYTE   N11  As2  v096
 BYTE   N11  Cs3
 BYTE   W24
 BYTE   Bn2
 BYTE   N11  Ds3
 BYTE   W24
 BYTE   As2
 BYTE   N11  Cs3
 BYTE   W24
 BYTE   Bn2
 BYTE   N11  Ds3
 BYTE   W24
 BYTE   PEND 
//  #02 //037   ----------------------------------------
Label_0100518E:
 BYTE   N05  Cs3  v096
 BYTE   N05  Fn3
 BYTE   W12
 BYTE   Cs3
 BYTE   N05  Fn3
 BYTE   W12
 BYTE   N11  Ds3
 BYTE   N11  Fs3
 BYTE   W24
 BYTE   Fn3
 BYTE   N11  Gs3
 BYTE   W24
 BYTE   Ds3
 BYTE   N11  Fs3
 BYTE   W24
 BYTE   PEND 
//  #02 //038   ----------------------------------------
Label_010051A6:
 BYTE   N05  As2  v096
 BYTE   N05  Cs3
 BYTE   W12
 BYTE   As2
 BYTE   N05  Cs3
 BYTE   W12
 BYTE   N11  Cn3
 BYTE   N11  Ds3
 BYTE   W24
 BYTE   N05  As2
 BYTE   N05  Cs3
 BYTE   W12
 BYTE   As2
 BYTE   N05  Cs3
 BYTE   W12
 BYTE   N11  Cn3
 BYTE   N11  Ds3
 BYTE   W24
 BYTE   PEND 
//  #02 //039   ----------------------------------------
Label_010051C4:
 BYTE   N05  Cs3  v096
 BYTE   N05  Fn3
 BYTE   W12
 BYTE   Cs3
 BYTE   N05  Fn3
 BYTE   W12
 BYTE   N11  Ds3
 BYTE   N11  Fs3
 BYTE   W24
 BYTE   Fn3
 BYTE   N11  Gs3
 BYTE   W24
 BYTE   Fs3
 BYTE   N11  As3
 BYTE   W24
 BYTE   PEND 
//  #02 //040   ----------------------------------------
Label_010051DC:
 BYTE   N11  Gs3  v096
 BYTE   N11  Cs4
 BYTE   W24
 BYTE   As3
 BYTE   N11  Ds4
 BYTE   W24
 BYTE   As2
 BYTE   N11  Fs3
 BYTE   W24
 BYTE   Bn2
 BYTE   N11  Gs3
 BYTE   W24
 BYTE   PEND 
//  #02 //041   ----------------------------------------
Label_010051EF:
 BYTE   N11  Cs3  v096
 BYTE   N11  As3
 BYTE   W24
 BYTE   Ds3
 BYTE   N11  Bn3
 BYTE   W24
 BYTE   Fn3
 BYTE   N11  Cs4
 BYTE   W24
 BYTE   Cs3
 BYTE   N11  As3
 BYTE   W24
 BYTE   PEND 
//  #02 //042   ----------------------------------------
Label_01005202:
 BYTE   N11  Ds3  v096
 BYTE   N11  Bn3
 BYTE   W24
 BYTE   En3
 BYTE   N11  Cs4
 BYTE   W24
 BYTE   Fs3
 BYTE   N11  Ds4
 BYTE   W24
 BYTE   Gs3
 BYTE   N11  En4
 BYTE   W24
 BYTE   PEND 
//  #02 //043   ----------------------------------------
Label_01005215:
 BYTE   N11  As3  v096
 BYTE   N11  Fs4
 BYTE   W24
 BYTE   En3
 BYTE   N11  Cs4
 BYTE   W24
 BYTE   As3
 BYTE   N11  Fs4
 BYTE   W24
 BYTE   Bn3
 BYTE   N11  Gs4
 BYTE   W24
 BYTE   PEND 
//  #02 //044   ----------------------------------------
Label_01005228:
 BYTE   TIE  As3  v096
 BYTE   TIE  As4
 BYTE   W96
 BYTE   PEND 
//  #02 //045   ----------------------------------------
Label_0100522F:
 BYTE   W92
 BYTE   W03
 BYTE   EOT
 BYTE   As3  v082
 BYTE   W01
 BYTE   PEND 
//  #02 //046   ----------------------------------------
 BYTE   PATT
  POIN2 Label_018FC0EF
//  #02 //047   ----------------------------------------
Label_0100523B:
 BYTE   N01  Fn3  v096
 BYTE   N05
 BYTE   W12
 BYTE   N01  Ds3  v099
 BYTE   N05
 BYTE   W12
 BYTE   N01  Fn3  v103
 BYTE   N05
 BYTE   W12
 BYTE   N01  Fs3  v107
 BYTE   N05
 BYTE   W12
 BYTE   N01  As3  v111
 BYTE   N05
 BYTE   W12
 BYTE   Fn4  v114
 BYTE   N05  Fn3
 BYTE   W12
 BYTE   Fs4  v118
 BYTE   N05  Fs3
 BYTE   W12
 BYTE   N01  Cs4  v122
 BYTE   N05
 BYTE   W12
 BYTE   PEND 
//  #02 //048   ----------------------------------------
Label_01005264:
 BYTE   W48
 BYTE   N44  Cs3  v127  gtp3
 BYTE   Gs3
 BYTE   W48
 BYTE   PEND 
//  #02 //049   ----------------------------------------
Label_0100526C:
 BYTE   W48
 BYTE   N44  Bn2  v127  gtp3
 BYTE   Fs3
 BYTE   W48
 BYTE   PEND 
//  #02 //050   ----------------------------------------
Label_01005274:
 BYTE   W48
 BYTE   N44  As2  v127  gtp3
 BYTE   Fn3
 BYTE   W48
 BYTE   PEND 
//  #02 //051   ----------------------------------------
Label_0100527C:
 BYTE   W48
 BYTE   N44  Gs2  v127  gtp3
 BYTE   Ds3
 BYTE   W48
 BYTE   PEND 
//  #02 //052   ----------------------------------------
 BYTE   PATT
  POIN2 Label_01005264
//  #02 //053   ----------------------------------------
 BYTE   PATT
  POIN2 Label_0100526C
//  #02 //054   ----------------------------------------
 BYTE   PATT
  POIN2 Label_01005274
//  #02 //055   ----------------------------------------
 BYTE   PATT
  POIN2 Label_0100527C
//  #02 //056   ----------------------------------------
Label_01005298:
 BYTE   W48
 BYTE   N44  Ds3  v127  gtp3
 BYTE   As3
 BYTE   W48
 BYTE   PEND 
//  #02 //057   ----------------------------------------
 BYTE   PATT
  POIN2 Label_01005264
//  #02 //058   ----------------------------------------
Label_010052A5:
 BYTE   W48
 BYTE   N44  Cn3  v127  gtp3
 BYTE   Gn3
 BYTE   W48
 BYTE   PEND 
//  #02 //059   ----------------------------------------
 BYTE   PATT
  POIN2 Label_01005274
//  #02 //060   ----------------------------------------
Label_010052B2:
 BYTE   W48
 BYTE   N44  Gn3  v127  gtp3
 BYTE   As3
 BYTE   W48
 BYTE   PEND 
//  #02 //061   ----------------------------------------
Label_010052BA:
 BYTE   W48
 BYTE   N44  Fn3  v127  gtp3
 BYTE   Gs3
 BYTE   W48
 BYTE   PEND 
//  #02 //062   ----------------------------------------
Label_010052C2:
 BYTE   W48
 BYTE   N44  Ds3  v127  gtp3
 BYTE   Gn3
 BYTE   W48
 BYTE   PEND 
//  #02 //063   ----------------------------------------
Label_010052CA:
 BYTE   W48
 BYTE   N44  Cs3  v127  gtp3
 BYTE   Fn3
 BYTE   W48
 BYTE   PEND 
//  #02 //064   ----------------------------------------
Label_010052D2:
 BYTE   W72
 BYTE   N11  As2  v096
 BYTE   N11  As3
 BYTE   W12
 BYTE   Cn3
 BYTE   N11  Cn4
 BYTE   W12
 BYTE   PEND 
//  #02 //065   ----------------------------------------
Label_010052DE:
 BYTE   N68  Cs3  v096  gtp3
 BYTE   Cs4
 BYTE   W72
 BYTE   N11  Ds3
 BYTE   N11  Ds4
 BYTE   W12
 BYTE   Fn3
 BYTE   N11  Fn4
 BYTE   W12
 BYTE   PEND 
//  #02 //066   ----------------------------------------
Label_010052EE:
 BYTE   N68  Ds3  v096  gtp3
 BYTE   Ds4
 BYTE   W72
 BYTE   N23  Gs2
 BYTE   N23  Gs3
 BYTE   W24
 BYTE   PEND 
//  #02 //067   ----------------------------------------
Label_010052FA:
 BYTE   N44  Gs3  v096  gtp3
 BYTE   Gs4
 BYTE   W48
 BYTE   Fs3
 BYTE   N44  Fs4  v096  gtp3
 BYTE   W48
 BYTE   PEND 
//  #02 //068   ----------------------------------------
Label_01005307:
 BYTE   N11  Fn3  v096
 BYTE   N11  Fn4
 BYTE   W12
 BYTE   Fs3
 BYTE   N11  Fs4
 BYTE   W12
 BYTE   Fn3
 BYTE   N11  Fn4
 BYTE   W12
 BYTE   Cs3
 BYTE   N11  Cs4
 BYTE   W12
 BYTE   TIE  As2
 BYTE   TIE  As3
 BYTE   W48
 BYTE   PEND 
//  #02 //069   ----------------------------------------
 BYTE   W96
//  #02 //070   ----------------------------------------
Label_01005320:
 BYTE   W92
 BYTE   W03
 BYTE   EOT
 BYTE   As2  v070
 BYTE   W01
 BYTE   PEND 
//  #02 //071   ----------------------------------------
Label_01005327:
 BYTE   W72
 BYTE   N23  As2  v096
 BYTE   N23  As3
 BYTE   W24
 BYTE   PEND 
//  #02 //072   ----------------------------------------
Label_0100532F:
 BYTE   N68  As3  v096  gtp3
 BYTE   As4
 BYTE   W72
 BYTE   N11  Gs3
 BYTE   N11  Gs4
 BYTE   W12
 BYTE   Fs3
 BYTE   N11  Fs4
 BYTE   W12
 BYTE   PEND 
//  #02 //073   ----------------------------------------
Label_0100533F:
 BYTE   N44  Gs3  v096  gtp3
 BYTE   Gs4
 BYTE   W48
 BYTE   Fn3
 BYTE   N44  Fn4  v096  gtp3
 BYTE   W48
 BYTE   PEND 
//  #02 //074   ----------------------------------------
Label_0100534C:
 BYTE   N44  Ds3  v096  gtp3
 BYTE   Ds4
 BYTE   W48
 BYTE   N01  Gs3  v100
 BYTE   N44  Gs3  v100  gtp3
 BYTE   W48
 BYTE   PEND 
//  #02 //075   ----------------------------------------
Label_0100535B:
 BYTE   N01  As3  v104
 BYTE   N44  As3  v104  gtp3
 BYTE   W48
 BYTE   N01  Cs4  v108
 BYTE   N44  Cs4  v108  gtp3
 BYTE   W48
 BYTE   PEND 
//  #02 //076   ----------------------------------------
Label_0100536C:
 BYTE   N44  Ds4  v112  gtp3
 BYTE   W48
 BYTE   Ds3  v127
 BYTE   N44  Ds4  v127  gtp3
 BYTE   W48
 BYTE   PEND 
//  #02 //077   ----------------------------------------
Label_01005379:
 BYTE   W48
 BYTE   N44  Cs3  v127  gtp3
 BYTE   Cs4
 BYTE   W48
 BYTE   PEND 
//  #02 //078   ----------------------------------------
Label_01005381:
 BYTE   W48
 BYTE   N44  Cn3  v127  gtp3
 BYTE   Cn4
 BYTE   W48
 BYTE   PEND 
//  #02 //079   ----------------------------------------
Label_01005389:
 BYTE   W48
 BYTE   N44  As2  v127  gtp3
 BYTE   As3
 BYTE   W48
 BYTE   PEND 
//  #02 //080   ----------------------------------------
Label_01005391:
 BYTE   W48
 BYTE   N44  Ds3  v127  gtp3
 BYTE   Ds4
 BYTE   W48
 BYTE   PEND 
//  #02 //081   ----------------------------------------
 BYTE   PATT
  POIN2 Label_01005379
//  #02 //082   ----------------------------------------
 BYTE   PATT
  POIN2 Label_01005381
//  #02 //083   ----------------------------------------
 BYTE   PATT
  POIN2 Label_01005389
//  #02 //084   ----------------------------------------
 BYTE   GoTo
  POIN2 Label_01004FEB
//  #02 //085   ----------------------------------------
 BYTE   W24
 BYTE   N11  As2  v073
 BYTE   W24
 BYTE   Fs2
 BYTE   W12
 BYTE   Gs2  v049
 BYTE   W24
 BYTE   Cs3
 BYTE   W12
//  #02 //086   ----------------------------------------
 BYTE   PATT
  POIN2 Label_01004FF7
//  #02 //087   ----------------------------------------
 BYTE   PATT
  POIN2 Label_01005003
//  #02 //088   ----------------------------------------
 BYTE   PATT
  POIN2 Label_01004FF7
//  #02 //089   ----------------------------------------
 BYTE   PATT
  POIN2 Label_01005003
//  #02 //090   ----------------------------------------
 BYTE   PATT
  POIN2 Label_01004FF7
//  #02 //091   ----------------------------------------
 BYTE   PATT
  POIN2 Label_01005003
//  #02 //092   ----------------------------------------
 BYTE   PATT
  POIN2 Label_01004FF7
//  #02 //093   ----------------------------------------
 BYTE   PATT
  POIN2 Label_01005029
//  #02 //094   ----------------------------------------
 BYTE   PATT
  POIN2 Label_01005036
//  #02 //095   ----------------------------------------
 BYTE   PATT
  POIN2 Label_01005029
//  #02 //096   ----------------------------------------
 BYTE   PATT
  POIN2 Label_01005036
//  #02 //097   ----------------------------------------
 BYTE   PATT
  POIN2 Label_01005029
//  #02 //098   ----------------------------------------
 BYTE   PATT
  POIN2 Label_01005051
//  #02 //099   ----------------------------------------
 BYTE   PATT
  POIN2 Label_01005061
//  #02 //100   ----------------------------------------
 BYTE   PATT
  POIN2 Label_01005074
//  #02 //101   ----------------------------------------
 BYTE   PATT
  POIN2 Label_01005029
//  #02 //102   ----------------------------------------
 BYTE   PATT
  POIN2 Label_01005036
//  #02 //103   ----------------------------------------
 BYTE   PATT
  POIN2 Label_01005029
//  #02 //104   ----------------------------------------
 BYTE   PATT
  POIN2 Label_01005036
//  #02 //105   ----------------------------------------
 BYTE   PATT
  POIN2 Label_01005029
//  #02 //106   ----------------------------------------
 BYTE   PATT
  POIN2 Label_0100509F
//  #02 //107   ----------------------------------------
 BYTE   PATT
  POIN2 Label_010050B0
//  #02 //108   ----------------------------------------
 BYTE   PATT
  POIN2 Label_010050C2
//  #02 //109   ----------------------------------------
 BYTE   PATT
  POIN2 Label_010050D7
//  #02 //110   ----------------------------------------
 BYTE   PATT
  POIN2 Label_010050EB
//  #02 //111   ----------------------------------------
 BYTE   PATT
  POIN2 Label_010050D7
//  #02 //112   ----------------------------------------
 BYTE   PATT
  POIN2 Label_01005103
//  #02 //113   ----------------------------------------
 BYTE   PATT
  POIN2 Label_010050D7
//  #02 //114   ----------------------------------------
 BYTE   PATT
  POIN2 Label_010050EB
//  #02 //115   ----------------------------------------
 BYTE   PATT
  POIN2 Label_010050D7
//  #02 //116   ----------------------------------------
 BYTE   PATT
  POIN2 Label_01005103
//  #02 //117   ----------------------------------------
 BYTE   PATT
  POIN2 Label_0100512A
//  #02 //118   ----------------------------------------
 BYTE   PATT
  POIN2 Label_0100513A
//  #02 //119   ----------------------------------------
 BYTE   PATT
  POIN2 Label_0100514D
//  #02 //120   ----------------------------------------
 BYTE   PATT
  POIN2 Label_0100515D
//  #02 //121   ----------------------------------------
 BYTE   PATT
  POIN2 Label_0100517B
//  #02 //122   ----------------------------------------
 BYTE   PATT
  POIN2 Label_0100518E
//  #02 //123   ----------------------------------------
 BYTE   PATT
  POIN2 Label_010051A6
//  #02 //124   ----------------------------------------
 BYTE   PATT
  POIN2 Label_010051C4
//  #02 //125   ----------------------------------------
 BYTE   PATT
  POIN2 Label_010051DC
//  #02 //126   ----------------------------------------
 BYTE   PATT
  POIN2 Label_010051EF
//  #02 //127   ----------------------------------------
 BYTE   PATT
  POIN2 Label_01005202
//  #02 //128   ----------------------------------------
 BYTE   PATT
  POIN2 Label_01005215
//  #02 //129   ----------------------------------------
 BYTE   PATT
  POIN2 Label_01005228
//  #02 //130   ----------------------------------------
 BYTE   PATT
  POIN2 Label_0100522F
//  #02 //131   ----------------------------------------
 BYTE   PATT
  POIN2 Label_018FC0EF
//  #02 //132   ----------------------------------------
 BYTE   PATT
  POIN2 Label_0100523B
//  #02 //133   ----------------------------------------
 BYTE   PATT
  POIN2 Label_01005264
//  #02 //134   ----------------------------------------
 BYTE   PATT
  POIN2 Label_0100526C
//  #02 //135   ----------------------------------------
 BYTE   PATT
  POIN2 Label_01005274
//  #02 //136   ----------------------------------------
 BYTE   PATT
  POIN2 Label_0100527C
//  #02 //137   ----------------------------------------
 BYTE   PATT
  POIN2 Label_01005264
//  #02 //138   ----------------------------------------
 BYTE   PATT
  POIN2 Label_0100526C
//  #02 //139   ----------------------------------------
 BYTE   PATT
  POIN2 Label_01005274
//  #02 //140   ----------------------------------------
 BYTE   PATT
  POIN2 Label_0100527C
//  #02 //141   ----------------------------------------
 BYTE   PATT
  POIN2 Label_01005298
//  #02 //142   ----------------------------------------
 BYTE   PATT
  POIN2 Label_01005264
//  #02 //143   ----------------------------------------
 BYTE   PATT
  POIN2 Label_010052A5
//  #02 //144   ----------------------------------------
 BYTE   PATT
  POIN2 Label_01005274
//  #02 //145   ----------------------------------------
 BYTE   PATT
  POIN2 Label_010052B2
//  #02 //146   ----------------------------------------
 BYTE   PATT
  POIN2 Label_010052BA
//  #02 //147   ----------------------------------------
 BYTE   PATT
  POIN2 Label_010052C2
//  #02 //148   ----------------------------------------
 BYTE   PATT
  POIN2 Label_010052CA
//  #02 //149   ----------------------------------------
 BYTE   PATT
  POIN2 Label_010052D2
//  #02 //150   ----------------------------------------
 BYTE   PATT
  POIN2 Label_010052DE
//  #02 //151   ----------------------------------------
 BYTE   PATT
  POIN2 Label_010052EE
//  #02 //152   ----------------------------------------
 BYTE   PATT
  POIN2 Label_010052FA
//  #02 //153   ----------------------------------------
 BYTE   PATT
  POIN2 Label_01005307
//  #02 //154   ----------------------------------------
 BYTE   W96
//  #02 //155   ----------------------------------------
 BYTE   PATT
  POIN2 Label_01005320
//  #02 //156   ----------------------------------------
 BYTE   PATT
  POIN2 Label_01005327
//  #02 //157   ----------------------------------------
 BYTE   PATT
  POIN2 Label_0100532F
//  #02 //158   ----------------------------------------
 BYTE   PATT
  POIN2 Label_0100533F
//  #02 //159   ----------------------------------------
 BYTE   PATT
  POIN2 Label_0100534C
//  #02 //160   ----------------------------------------
 BYTE   PATT
  POIN2 Label_0100535B
//  #02 //161   ----------------------------------------
 BYTE   PATT
  POIN2 Label_0100536C
//  #02 //162   ----------------------------------------
 BYTE   PATT
  POIN2 Label_01005379
//  #02 //163   ----------------------------------------
 BYTE   PATT
  POIN2 Label_01005381
//  #02 //164   ----------------------------------------
 BYTE   PATT
  POIN2 Label_01005389
//  #02 //165   ----------------------------------------
 BYTE   PATT
  POIN2 Label_01005391
//  #02 //166   ----------------------------------------
 BYTE   PATT
  POIN2 Label_01005379
//  #02 //167   ----------------------------------------
 BYTE   PATT
  POIN2 Label_01005381
//  #02 //168   ----------------------------------------
 BYTE   PATT
  POIN2 Label_01005389
//  #02 //169   ----------------------------------------
 BYTE   PATT
  POIN2 Label_01005003
//  #02 //170   ----------------------------------------
 BYTE   PATT
  POIN2 Label_01004FF7
//  #02 //171   ----------------------------------------
 BYTE   PATT
  POIN2 Label_01005003
//  #02 //172   ----------------------------------------
 BYTE   W24
 BYTE   N11  As2  v073
 BYTE   W24
 BYTE   Fs2
 BYTE   W12
 BYTE   N05  Gs2  v049
 BYTE   W32
 BYTE   W03
 BYTE   FINE

//**************** Track 3 (Midi-Chn.2) ****************//

FierceAsFire_003:
//  #03 //000   ----------------------------------------
 BYTE   KEYSH   FierceAsFire_key+0
 BYTE   VOICE   40
 BYTE   VOL   23*FierceAsFire_mvl/mxv
 BYTE   W12
Label_01005587:
 BYTE   W96
//  #03 //001   ----------------------------------------
 BYTE   W96
//  #03 //002   ----------------------------------------
 BYTE   W96
//  #03 //003   ----------------------------------------
 BYTE   W96
//  #03 //004   ----------------------------------------
 BYTE   W96
//  #03 //005   ----------------------------------------
 BYTE   W96
//  #03 //006   ----------------------------------------
 BYTE   W96
//  #03 //007   ----------------------------------------
 BYTE   W96
//  #03 //008   ----------------------------------------
 BYTE   W96
//  #03 //009   ----------------------------------------
 BYTE   W96
//  #03 //010   ----------------------------------------
 BYTE   W96
//  #03 //011   ----------------------------------------
 BYTE   W96
//  #03 //012   ----------------------------------------
 BYTE   W96
//  #03 //013   ----------------------------------------
Label_01005594:
 BYTE   W48
 BYTE   TIE  Gs2  v064
 BYTE   TIE  Cs3
 BYTE   W48
 BYTE   PEND 
//  #03 //014   ----------------------------------------
Label_0100559C:
 BYTE   W92
 BYTE   W03
 BYTE   EOT
 BYTE   Gs2  v061
 BYTE   W01
 BYTE   PEND 
//  #03 //015   ----------------------------------------
Label_010055A3:
 BYTE   N92  As2  v127  gtp3
 BYTE   Fn3
 BYTE   W96
 BYTE   PEND 
//  #03 //016   ----------------------------------------
 BYTE   W96
//  #03 //017   ----------------------------------------
 BYTE   W96
//  #03 //018   ----------------------------------------
 BYTE   W96
//  #03 //019   ----------------------------------------
 BYTE   W96
//  #03 //020   ----------------------------------------
 BYTE   W96
//  #03 //021   ----------------------------------------
Label_010055AF:
 BYTE   W48
 BYTE   N92  Cs3  v064  gtp3
 BYTE   Fs3
 BYTE   W48
 BYTE   PEND 
//  #03 //022   ----------------------------------------
 BYTE   PATT
  POIN2 Label_010052CA
//  #03 //023   ----------------------------------------
Label_010055BC:
 BYTE   N44  Bn2  v127  gtp3
 BYTE   Ds3
 BYTE   W48
 BYTE   Bn2
 BYTE   N44  Cs3  v127  gtp3
 BYTE   W48
 BYTE   PEND 
//  #03 //024   ----------------------------------------
Label_010055C9:
 BYTE   W12
 BYTE   N05  Ds2  v096
 BYTE   N05  Ds3
 BYTE   W12
 BYTE   N11  As2  v127
 BYTE   N11  As3
 BYTE   W24
 BYTE   Fs2
 BYTE   N11  Fs3
 BYTE   W12
 BYTE   Gs2  v096
 BYTE   N11  Gs3
 BYTE   W24
 BYTE   Cs3
 BYTE   N11  Cs4
 BYTE   W12
 BYTE   PEND 
//  #03 //025   ----------------------------------------
Label_010055E4:
 BYTE   W12
 BYTE   N05  Gs2  v096
 BYTE   N05  Gs3
 BYTE   W12
 BYTE   N11  As2  v127
 BYTE   N11  As3
 BYTE   W24
 BYTE   Fs2
 BYTE   N11  Fs3
 BYTE   W12
 BYTE   N05  Gs2  v096
 BYTE   N05  Gs3
 BYTE   W12
 BYTE   Ds2  v127
 BYTE   N05  Ds3
 BYTE   W12
 BYTE   Fn2  v096
 BYTE   N05  Fn3
 BYTE   W12
 BYTE   PEND 
//  #03 //026   ----------------------------------------
 BYTE   PATT
  POIN2 Label_010055C9
//  #03 //027   ----------------------------------------
Label_0100560B:
 BYTE   W12
 BYTE   N05  Gs2  v096
 BYTE   N05  Gs3
 BYTE   W12
 BYTE   As2  v127
 BYTE   N05  As3
 BYTE   W12
 BYTE   Ds2  v096
 BYTE   N05  Ds3
 BYTE   W12
 BYTE   N11  Fs2  v127
 BYTE   N11  Fs3
 BYTE   W12
 BYTE   N05  Gs2  v096
 BYTE   N05  Gs3
 BYTE   W12
 BYTE   Ds2  v127
 BYTE   N05  Ds3
 BYTE   W12
 BYTE   Fn2  v096
 BYTE   N05  Fn3
 BYTE   W12
 BYTE   PEND 
//  #03 //028   ----------------------------------------
 BYTE   PATT
  POIN2 Label_010055C9
//  #03 //029   ----------------------------------------
 BYTE   PATT
  POIN2 Label_010055E4
//  #03 //030   ----------------------------------------
 BYTE   PATT
  POIN2 Label_010055C9
//  #03 //031   ----------------------------------------
 BYTE   PATT
  POIN2 Label_0100560B
//  #03 //032   ----------------------------------------
Label_01005647:
 BYTE   W48
 BYTE   N44  Cs3  v127  gtp3
 BYTE   W48
 BYTE   PEND 
//  #03 //033   ----------------------------------------
Label_0100564E:
 BYTE   N44  Fs3  v127  gtp3
 BYTE   W48
 BYTE   Fn3
 BYTE   W48
 BYTE   PEND 
//  #03 //034   ----------------------------------------
Label_01005656:
 BYTE   N44  Ds3  v127  gtp3
 BYTE   W48
 BYTE   N92  Cs3  v127  gtp3
 BYTE   W48
 BYTE   PEND 
//  #03 //035   ----------------------------------------
Label_01005661:
 BYTE   W48
 BYTE   N44  Gs2  v127  gtp3
 BYTE   W48
 BYTE   PEND 
//  #03 //036   ----------------------------------------
Label_01005668:
 BYTE   N44  Fn3  v127  gtp3
 BYTE   W48
 BYTE   Fs3
 BYTE   W48
 BYTE   PEND 
//  #03 //037   ----------------------------------------
Label_01005670:
 BYTE   N68  As2  v127  gtp3
 BYTE   W72
 BYTE   N23  As2  v096
 BYTE   W24
 BYTE   PEND 
//  #03 //038   ----------------------------------------
 BYTE   PATT
  POIN2 Label_01005668
//  #03 //039   ----------------------------------------
 BYTE   N92  As2  v127  gtp3
 BYTE   W96
//  #03 //040   ----------------------------------------
 BYTE   PATT
  POIN2 Label_01005647
//  #03 //041   ----------------------------------------
 BYTE   PATT
  POIN2 Label_0100564E
//  #03 //042   ----------------------------------------
Label_0100568E:
 BYTE   N44  Ds3  v127  gtp3
 BYTE   W48
 BYTE   Cs3
 BYTE   W48
 BYTE   PEND 
//  #03 //043   ----------------------------------------
Label_01005696:
 BYTE   N44  Gs2  v127  gtp3
 BYTE   Gs3
 BYTE   W48
 BYTE   Cs3
 BYTE   N44  Cs4  v127  gtp3
 BYTE   W48
 BYTE   PEND 
//  #03 //044   ----------------------------------------
Label_010056A3:
 BYTE   TIE  As2  v127
 BYTE   TIE  As3
 BYTE   W96
 BYTE   PEND 
//  #03 //045   ----------------------------------------
 BYTE   W96
//  #03 //046   ----------------------------------------
 BYTE   W96
//  #03 //047   ----------------------------------------
 BYTE   PATT
  POIN2 Label_01005320
//  #03 //048   ----------------------------------------
Label_010056B1:
 BYTE   W48
 BYTE   N44  Bn2  v127  gtp3
 BYTE   Gs3
 BYTE   W48
 BYTE   PEND 
//  #03 //049   ----------------------------------------
Label_010056B9:
 BYTE   W48
 BYTE   N44  As2  v127  gtp3
 BYTE   Fs3
 BYTE   W48
 BYTE   PEND 
//  #03 //050   ----------------------------------------
Label_010056C1:
 BYTE   W48
 BYTE   N44  Gs2  v127  gtp3
 BYTE   Fn3
 BYTE   W48
 BYTE   PEND 
//  #03 //051   ----------------------------------------
Label_010056C9:
 BYTE   W48
 BYTE   N44  Fs2  v127  gtp3
 BYTE   Ds3
 BYTE   W48
 BYTE   PEND 
//  #03 //052   ----------------------------------------
 BYTE   PATT
  POIN2 Label_010056B1
//  #03 //053   ----------------------------------------
 BYTE   PATT
  POIN2 Label_010056B9
//  #03 //054   ----------------------------------------
 BYTE   PATT
  POIN2 Label_010056C1
//  #03 //055   ----------------------------------------
 BYTE   PATT
  POIN2 Label_010056C9
//  #03 //056   ----------------------------------------
Label_010056E5:
 BYTE   W48
 BYTE   N44  Dn3  v127  gtp3
 BYTE   Ds3
 BYTE   W48
 BYTE   PEND 
//  #03 //057   ----------------------------------------
Label_010056ED:
 BYTE   W48
 BYTE   N44  Cn3  v127  gtp3
 BYTE   Cs3
 BYTE   W48
 BYTE   PEND 
//  #03 //058   ----------------------------------------
Label_010056F5:
 BYTE   W48
 BYTE   N44  As2  v127  gtp3
 BYTE   Cn3
 BYTE   W48
 BYTE   PEND 
//  #03 //059   ----------------------------------------
Label_010056FD:
 BYTE   W48
 BYTE   N44  Gs2  v127  gtp3
 BYTE   As2
 BYTE   W48
 BYTE   PEND 
//  #03 //060   ----------------------------------------
 BYTE   PATT
  POIN2 Label_010056E5
//  #03 //061   ----------------------------------------
 BYTE   PATT
  POIN2 Label_010056ED
//  #03 //062   ----------------------------------------
 BYTE   PATT
  POIN2 Label_010056F5
//  #03 //063   ----------------------------------------
 BYTE   PATT
  POIN2 Label_010056FD
//  #03 //064   ----------------------------------------
Label_01005719:
 BYTE   TIE  As2  v064
 BYTE   TIE  Cs3
 BYTE   W96
 BYTE   PEND 
//  #03 //065   ----------------------------------------
Label_01005720:
 BYTE   W92
 BYTE   W03
 BYTE   EOT
 BYTE   As2  v061
 BYTE   W01
 BYTE   PEND 
//  #03 //066   ----------------------------------------
Label_01005727:
 BYTE   TIE  Cn3  v064
 BYTE   TIE  Fn3
 BYTE   W96
 BYTE   PEND 
//  #03 //067   ----------------------------------------
Label_0100572E:
 BYTE   W92
 BYTE   W03
 BYTE   EOT
 BYTE   Cn3  v065
 BYTE   W01
 BYTE   PEND 
//  #03 //068   ----------------------------------------
Label_01005735:
 BYTE   TIE  Fn3  v064
 BYTE   TIE  As3
 BYTE   W96
 BYTE   PEND 
//  #03 //069   ----------------------------------------
 BYTE   W96
//  #03 //070   ----------------------------------------
 BYTE   W96
//  #03 //071   ----------------------------------------
Label_0100573E:
 BYTE   W92
 BYTE   W03
 BYTE   EOT
 BYTE   Fn3  v070
 BYTE   W01
 BYTE   PEND 
//  #03 //072   ----------------------------------------
Label_01005745:
 BYTE   TIE  Ds3  v064
 BYTE   TIE  Fs3
 BYTE   W96
 BYTE   PEND 
//  #03 //073   ----------------------------------------
Label_0100574C:
 BYTE   W92
 BYTE   W03
 BYTE   EOT
 BYTE   Ds3  v066
 BYTE   W01
 BYTE   PEND 
//  #03 //074   ----------------------------------------
Label_01005753:
 BYTE   TIE  Gs3  v064
 BYTE   TIE  As3
 BYTE   W96
 BYTE   PEND 
//  #03 //075   ----------------------------------------
Label_0100575A:
 BYTE   W92
 BYTE   W03
 BYTE   EOT
 BYTE   Gs3  v070
 BYTE   W01
 BYTE   PEND 
//  #03 //076   ----------------------------------------
Label_01005761:
 BYTE   W48
 BYTE   N44  Gn3  v127  gtp3
 BYTE   Gs3
 BYTE   W48
 BYTE   PEND 
//  #03 //077   ----------------------------------------
Label_01005769:
 BYTE   W48
 BYTE   N44  Fn3  v127  gtp3
 BYTE   Fs3
 BYTE   W48
 BYTE   PEND 
//  #03 //078   ----------------------------------------
Label_01005771:
 BYTE   W48
 BYTE   N44  Ds3  v127  gtp3
 BYTE   Fn3
 BYTE   W48
 BYTE   PEND 
//  #03 //079   ----------------------------------------
Label_01005779:
 BYTE   W48
 BYTE   N44  Cs3  v127  gtp3
 BYTE   Ds3
 BYTE   W48
 BYTE   PEND 
//  #03 //080   ----------------------------------------
 BYTE   PATT
  POIN2 Label_01005761
//  #03 //081   ----------------------------------------
 BYTE   PATT
  POIN2 Label_01005769
//  #03 //082   ----------------------------------------
 BYTE   PATT
  POIN2 Label_01005771
//  #03 //083   ----------------------------------------
 BYTE   PATT
  POIN2 Label_01005779
//  #03 //084   ----------------------------------------
 BYTE   GoTo
  POIN2 Label_01005587
//  #03 //085   ----------------------------------------
 BYTE   W96
//  #03 //086   ----------------------------------------
 BYTE   W96
//  #03 //087   ----------------------------------------
 BYTE   W96
//  #03 //088   ----------------------------------------
 BYTE   W96
//  #03 //089   ----------------------------------------
 BYTE   W96
//  #03 //090   ----------------------------------------
 BYTE   W96
//  #03 //091   ----------------------------------------
 BYTE   W96
//  #03 //092   ----------------------------------------
 BYTE   W96
//  #03 //093   ----------------------------------------
 BYTE   W96
//  #03 //094   ----------------------------------------
 BYTE   W96
//  #03 //095   ----------------------------------------
 BYTE   W96
//  #03 //096   ----------------------------------------
 BYTE   W96
//  #03 //097   ----------------------------------------
 BYTE   W96
//  #03 //098   ----------------------------------------
 BYTE   PATT
  POIN2 Label_01005594
//  #03 //099   ----------------------------------------
 BYTE   PATT
  POIN2 Label_0100559C
//  #03 //100   ----------------------------------------
 BYTE   PATT
  POIN2 Label_010055A3
//  #03 //101   ----------------------------------------
 BYTE   W96
//  #03 //102   ----------------------------------------
 BYTE   W96
//  #03 //103   ----------------------------------------
 BYTE   W96
//  #03 //104   ----------------------------------------
 BYTE   W96
//  #03 //105   ----------------------------------------
 BYTE   W96
//  #03 //106   ----------------------------------------
 BYTE   PATT
  POIN2 Label_010055AF
//  #03 //107   ----------------------------------------
 BYTE   PATT
  POIN2 Label_010052CA
//  #03 //108   ----------------------------------------
 BYTE   PATT
  POIN2 Label_010055BC
//  #03 //109   ----------------------------------------
 BYTE   PATT
  POIN2 Label_010055C9
//  #03 //110   ----------------------------------------
 BYTE   PATT
  POIN2 Label_010055E4
//  #03 //111   ----------------------------------------
 BYTE   PATT
  POIN2 Label_010055C9
//  #03 //112   ----------------------------------------
 BYTE   PATT
  POIN2 Label_0100560B
//  #03 //113   ----------------------------------------
 BYTE   PATT
  POIN2 Label_010055C9
//  #03 //114   ----------------------------------------
 BYTE   PATT
  POIN2 Label_010055E4
//  #03 //115   ----------------------------------------
 BYTE   PATT
  POIN2 Label_010055C9
//  #03 //116   ----------------------------------------
 BYTE   PATT
  POIN2 Label_0100560B
//  #03 //117   ----------------------------------------
 BYTE   PATT
  POIN2 Label_01005647
//  #03 //118   ----------------------------------------
 BYTE   PATT
  POIN2 Label_0100564E
//  #03 //119   ----------------------------------------
 BYTE   PATT
  POIN2 Label_01005656
//  #03 //120   ----------------------------------------
 BYTE   PATT
  POIN2 Label_01005661
//  #03 //121   ----------------------------------------
 BYTE   PATT
  POIN2 Label_01005668
//  #03 //122   ----------------------------------------
 BYTE   PATT
  POIN2 Label_01005670
//  #03 //123   ----------------------------------------
 BYTE   PATT
  POIN2 Label_01005668
//  #03 //124   ----------------------------------------
 BYTE   N92  As2  v127  gtp3
 BYTE   W96
//  #03 //125   ----------------------------------------
 BYTE   PATT
  POIN2 Label_01005647
//  #03 //126   ----------------------------------------
 BYTE   PATT
  POIN2 Label_0100564E
//  #03 //127   ----------------------------------------
 BYTE   PATT
  POIN2 Label_0100568E
//  #03 //128   ----------------------------------------
 BYTE   PATT
  POIN2 Label_01005696
//  #03 //129   ----------------------------------------
 BYTE   PATT
  POIN2 Label_010056A3
//  #03 //130   ----------------------------------------
 BYTE   W96
//  #03 //131   ----------------------------------------
 BYTE   W96
//  #03 //132   ----------------------------------------
 BYTE   PATT
  POIN2 Label_01005320
//  #03 //133   ----------------------------------------
 BYTE   PATT
  POIN2 Label_010056B1
//  #03 //134   ----------------------------------------
 BYTE   PATT
  POIN2 Label_010056B9
//  #03 //135   ----------------------------------------
 BYTE   PATT
  POIN2 Label_010056C1
//  #03 //136   ----------------------------------------
 BYTE   PATT
  POIN2 Label_010056C9
//  #03 //137   ----------------------------------------
 BYTE   PATT
  POIN2 Label_010056B1
//  #03 //138   ----------------------------------------
 BYTE   PATT
  POIN2 Label_010056B9
//  #03 //139   ----------------------------------------
 BYTE   PATT
  POIN2 Label_010056C1
//  #03 //140   ----------------------------------------
 BYTE   PATT
  POIN2 Label_010056C9
//  #03 //141   ----------------------------------------
 BYTE   PATT
  POIN2 Label_010056E5
//  #03 //142   ----------------------------------------
 BYTE   PATT
  POIN2 Label_010056ED
//  #03 //143   ----------------------------------------
 BYTE   PATT
  POIN2 Label_010056F5
//  #03 //144   ----------------------------------------
 BYTE   PATT
  POIN2 Label_010056FD
//  #03 //145   ----------------------------------------
 BYTE   PATT
  POIN2 Label_010056E5
//  #03 //146   ----------------------------------------
 BYTE   PATT
  POIN2 Label_010056ED
//  #03 //147   ----------------------------------------
 BYTE   PATT
  POIN2 Label_010056F5
//  #03 //148   ----------------------------------------
 BYTE   PATT
  POIN2 Label_010056FD
//  #03 //149   ----------------------------------------
 BYTE   PATT
  POIN2 Label_01005719
//  #03 //150   ----------------------------------------
 BYTE   PATT
  POIN2 Label_01005720
//  #03 //151   ----------------------------------------
 BYTE   PATT
  POIN2 Label_01005727
//  #03 //152   ----------------------------------------
 BYTE   PATT
  POIN2 Label_0100572E
//  #03 //153   ----------------------------------------
 BYTE   PATT
  POIN2 Label_01005735
//  #03 //154   ----------------------------------------
 BYTE   W96
//  #03 //155   ----------------------------------------
 BYTE   W96
//  #03 //156   ----------------------------------------
 BYTE   PATT
  POIN2 Label_0100573E
//  #03 //157   ----------------------------------------
 BYTE   PATT
  POIN2 Label_01005745
//  #03 //158   ----------------------------------------
 BYTE   PATT
  POIN2 Label_0100574C
//  #03 //159   ----------------------------------------
 BYTE   PATT
  POIN2 Label_01005753
//  #03 //160   ----------------------------------------
 BYTE   PATT
  POIN2 Label_0100575A
//  #03 //161   ----------------------------------------
 BYTE   PATT
  POIN2 Label_01005761
//  #03 //162   ----------------------------------------
 BYTE   PATT
  POIN2 Label_01005769
//  #03 //163   ----------------------------------------
 BYTE   PATT
  POIN2 Label_01005771
//  #03 //164   ----------------------------------------
 BYTE   PATT
  POIN2 Label_01005779
//  #03 //165   ----------------------------------------
 BYTE   PATT
  POIN2 Label_01005761
//  #03 //166   ----------------------------------------
 BYTE   PATT
  POIN2 Label_01005769
//  #03 //167   ----------------------------------------
 BYTE   PATT
  POIN2 Label_01005771
//  #03 //168   ----------------------------------------
 BYTE   PATT
  POIN2 Label_01005779
//  #03 //169   ----------------------------------------
 BYTE   W96
//  #03 //170   ----------------------------------------
 BYTE   W96
//  #03 //171   ----------------------------------------
 BYTE   W96
//  #03 //172   ----------------------------------------
 BYTE   W92
 BYTE   W03
 BYTE   FINE

//**************** Track 4 (Midi-Chn.3) ****************//

FierceAsFire_004:
//  #04 //000   ----------------------------------------
 BYTE   KEYSH   FierceAsFire_key+0
 BYTE   VOICE   40
 BYTE   VOL   20*FierceAsFire_mvl/mxv
 BYTE   W12
Label_01005903:
 BYTE   W96
//  #04 //001   ----------------------------------------
 BYTE   W96
//  #04 //002   ----------------------------------------
 BYTE   W96
//  #04 //003   ----------------------------------------
 BYTE   W96
//  #04 //004   ----------------------------------------
 BYTE   W96
//  #04 //005   ----------------------------------------
 BYTE   W96
//  #04 //006   ----------------------------------------
 BYTE   W96
//  #04 //007   ----------------------------------------
 BYTE   W96
//  #04 //008   ----------------------------------------
Label_0100590B:
 BYTE   W24
 BYTE   N11  As2  v120
 BYTE   W24
 BYTE   Fs2
 BYTE   W12
 BYTE   Gs2  v080
 BYTE   W24
 BYTE   Cs3
 BYTE   W12
 BYTE   PEND 
//  #04 //009   ----------------------------------------
Label_01005918:
 BYTE   W12
 BYTE   N05  Gs2  v080
 BYTE   W12
 BYTE   N11  As2  v120
 BYTE   W24
 BYTE   Fs2
 BYTE   W12
 BYTE   N05  Gs2  v080
 BYTE   W12
 BYTE   N11  Ds2  v120
 BYTE   W12
 BYTE   N05  Fn2  v080
 BYTE   W12
 BYTE   PEND 
//  #04 //010   ----------------------------------------
Label_01005930:
 BYTE   W12
 BYTE   N05  Ds2  v080
 BYTE   W12
 BYTE   N11  As2  v120
 BYTE   W24
 BYTE   Fs2
 BYTE   W12
 BYTE   Gs2  v080
 BYTE   W24
 BYTE   Cs3
 BYTE   W12
 BYTE   PEND 
//  #04 //011   ----------------------------------------
Label_01005941:
 BYTE   W12
 BYTE   N05  Gs2  v080
 BYTE   W12
 BYTE   As2  v120
 BYTE   W12
 BYTE   Ds2  v080
 BYTE   W12
 BYTE   N11  Fs2  v120
 BYTE   W12
 BYTE   N05  Gs2  v080
 BYTE   W12
 BYTE   N11  Ds2  v120
 BYTE   W24
 BYTE   PEND 
//  #04 //012   ----------------------------------------
 BYTE   PATT
  POIN2 Label_0100590B
//  #04 //013   ----------------------------------------
Label_0100595E:
 BYTE   W12
 BYTE   N05  Gs2  v080
 BYTE   W12
 BYTE   N11  As2  v120
 BYTE   W24
 BYTE   N12  Gs2  v064
 BYTE   N11  Fs2  v096
 BYTE   W12
 BYTE   N96  Gs2  v068
 BYTE   W12
 BYTE   N11  Ds2  v108
 BYTE   W12
 BYTE   N05  Fn2  v076
 BYTE   W12
 BYTE   PEND 
//  #04 //014   ----------------------------------------
Label_0100597B:
 BYTE   W12
 BYTE   N05  Ds2  v084
 BYTE   W12
 BYTE   N11  As2  v127
 BYTE   W24
 BYTE   Fs2
 BYTE   W12
 BYTE   N32  Gs2  v100  gtp3
 BYTE   W24
 BYTE   N11  Cs3  v108
 BYTE   W12
 BYTE   PEND 
//  #04 //015   ----------------------------------------
Label_01005990:
 BYTE   N24  As2  v127
 BYTE   W12
 BYTE   N05  Gs2  v106
 BYTE   W12
 BYTE   N68  As2  v127  gtp3
 BYTE   W12
 BYTE   N05  Ds2  v094
 BYTE   W12
 BYTE   N11  Fs2  v127
 BYTE   W12
 BYTE   N05  Gs2  v082
 BYTE   W12
 BYTE   N11  Ds2  v114
 BYTE   W24
 BYTE   PEND 
//  #04 //016   ----------------------------------------
 BYTE   PATT
  POIN2 Label_01005029
//  #04 //017   ----------------------------------------
Label_010059B3:
 BYTE   W12
 BYTE   N05  Gs2  v064
 BYTE   W12
 BYTE   N11  As2  v096
 BYTE   W24
 BYTE   Fs2
 BYTE   W12
 BYTE   N05  Gs2  v064
 BYTE   W12
 BYTE   N11  Ds2  v096
 BYTE   W12
 BYTE   N05  Fn2  v064
 BYTE   W12
 BYTE   PEND 
//  #04 //018   ----------------------------------------
Label_010059CB:
 BYTE   W12
 BYTE   N05  Ds2  v064
 BYTE   W12
 BYTE   N11  As2  v096
 BYTE   W24
 BYTE   Fs2
 BYTE   W12
 BYTE   Gs2  v064
 BYTE   W24
 BYTE   Cs3
 BYTE   W12
 BYTE   PEND 
//  #04 //019   ----------------------------------------
Label_010059DC:
 BYTE   W12
 BYTE   N05  Gs2  v064
 BYTE   W12
 BYTE   As2  v096
 BYTE   W12
 BYTE   Ds2  v064
 BYTE   W12
 BYTE   N11  Fs2  v096
 BYTE   W12
 BYTE   N05  Gs2  v064
 BYTE   W12
 BYTE   N11  Ds2  v096
 BYTE   W24
 BYTE   PEND 
//  #04 //020   ----------------------------------------
 BYTE   PATT
  POIN2 Label_01005029
//  #04 //021   ----------------------------------------
Label_010059F9:
 BYTE   W12
 BYTE   N05  Gs2  v064
 BYTE   W12
 BYTE   N11  As2  v096
 BYTE   W24
 BYTE   N92  Cs3  v064  gtp3
 BYTE   N11  Fs2  v096
 BYTE   W12
 BYTE   N05  Gs2  v072
 BYTE   W12
 BYTE   N11  Ds2  v120
 BYTE   W12
 BYTE   N05  Fn2  v088
 BYTE   W12
 BYTE   PEND 
//  #04 //022   ----------------------------------------
Label_01005A17:
 BYTE   W12
 BYTE   N05  Ds2  v096
 BYTE   W12
 BYTE   N11  As2  v127
 BYTE   W24
 BYTE   N36  Cs3
 BYTE   N11  Fs2
 BYTE   W12
 BYTE   Gs2  v096
 BYTE   W24
 BYTE   Cs3
 BYTE   W12
 BYTE   PEND 
//  #04 //023   ----------------------------------------
Label_01005A2B:
 BYTE   N44  Bn2  v127  gtp3
 BYTE   W12
 BYTE   N05  Gs2  v096
 BYTE   W12
 BYTE   As2  v127
 BYTE   W12
 BYTE   Ds2  v096
 BYTE   W12
 BYTE   N44  Bn2  v127  gtp3
 BYTE   N11  Fs2
 BYTE   W12
 BYTE   N05  Gs2  v096
 BYTE   W12
 BYTE   N11  Ds2  v127
 BYTE   W24
 BYTE   PEND 
//  #04 //024   ----------------------------------------
Label_01005A4A:
 BYTE   N05  Ds2  v127
 BYTE   N05  Fs2
 BYTE   W12
 BYTE   Ds2  v096
 BYTE   N05  Fs2
 BYTE   W24
 BYTE   Ds2
 BYTE   N05  Fs2
 BYTE   W36
 BYTE   Ds2
 BYTE   N05  Fs2
 BYTE   W24
 BYTE   PEND 
//  #04 //025   ----------------------------------------
Label_01005A5E:
 BYTE   N05  Ds2  v096
 BYTE   N05  Fs2
 BYTE   W36
 BYTE   Ds2
 BYTE   N05  Fs2
 BYTE   W36
 BYTE   Ds2
 BYTE   N05  Fs2
 BYTE   W12
 BYTE   Fn2
 BYTE   N05  Gs2
 BYTE   W12
 BYTE   PEND 
//  #04 //026   ----------------------------------------
 BYTE   PATT
  POIN2 Label_01005A4A
//  #04 //027   ----------------------------------------
Label_01005A76:
 BYTE   N05  Ds2  v096
 BYTE   N05  Fs2
 BYTE   W36
 BYTE   Ds2
 BYTE   N05  Fs2
 BYTE   W36
 BYTE   Ds2
 BYTE   N05  Fs2
 BYTE   W12
 BYTE   Cs2
 BYTE   N05  Fn2
 BYTE   W12
 BYTE   PEND 
//  #04 //028   ----------------------------------------
 BYTE   PATT
  POIN2 Label_01005A4A
//  #04 //029   ----------------------------------------
 BYTE   PATT
  POIN2 Label_01005A5E
//  #04 //030   ----------------------------------------
 BYTE   PATT
  POIN2 Label_01005A4A
//  #04 //031   ----------------------------------------
 BYTE   PATT
  POIN2 Label_01005A76
//  #04 //032   ----------------------------------------
Label_01005A9D:
 BYTE   N16  Bn1  v115
 BYTE   W48
 BYTE   N44  Cs3  v127  gtp3
 BYTE   W48
 BYTE   PEND 
//  #04 //033   ----------------------------------------
 BYTE   PATT
  POIN2 Label_0100564E
//  #04 //034   ----------------------------------------
 BYTE   PATT
  POIN2 Label_01005656
//  #04 //035   ----------------------------------------
 BYTE   PATT
  POIN2 Label_01005661
//  #04 //036   ----------------------------------------
 BYTE   PATT
  POIN2 Label_01005668
//  #04 //037   ----------------------------------------
 BYTE   PATT
  POIN2 Label_01005670
//  #04 //038   ----------------------------------------
 BYTE   PATT
  POIN2 Label_01005668
//  #04 //039   ----------------------------------------
 BYTE   N92  As2  v127  gtp3
 BYTE   W96
//  #04 //040   ----------------------------------------
 BYTE   PATT
  POIN2 Label_01005647
//  #04 //041   ----------------------------------------
 BYTE   PATT
  POIN2 Label_0100564E
//  #04 //042   ----------------------------------------
 BYTE   PATT
  POIN2 Label_0100568E
//  #04 //043   ----------------------------------------
 BYTE   PATT
  POIN2 Label_01005696
//  #04 //044   ----------------------------------------
 BYTE   PATT
  POIN2 Label_010056A3
//  #04 //045   ----------------------------------------
 BYTE   W96
//  #04 //046   ----------------------------------------
 BYTE   W96
//  #04 //047   ----------------------------------------
 BYTE   PATT
  POIN2 Label_01005320
//  #04 //048   ----------------------------------------
Label_01005AEA:
 BYTE   W48
 BYTE   N44  Gs2  v127  gtp3
 BYTE   Cs3
 BYTE   W48
 BYTE   PEND 
//  #04 //049   ----------------------------------------
Label_01005AF2:
 BYTE   W48
 BYTE   N44  Fs2  v127  gtp3
 BYTE   Bn2
 BYTE   W48
 BYTE   PEND 
//  #04 //050   ----------------------------------------
Label_01005AFA:
 BYTE   W48
 BYTE   N44  Fn2  v127  gtp3
 BYTE   As2
 BYTE   W48
 BYTE   PEND 
//  #04 //051   ----------------------------------------
Label_01005B02:
 BYTE   W48
 BYTE   N44  Ds2  v127  gtp3
 BYTE   Gs2
 BYTE   W48
 BYTE   PEND 
//  #04 //052   ----------------------------------------
 BYTE   PATT
  POIN2 Label_01005AEA
//  #04 //053   ----------------------------------------
 BYTE   PATT
  POIN2 Label_01005AF2
//  #04 //054   ----------------------------------------
 BYTE   PATT
  POIN2 Label_01005AFA
//  #04 //055   ----------------------------------------
 BYTE   PATT
  POIN2 Label_01005B02
//  #04 //056   ----------------------------------------
Label_01005B1E:
 BYTE   W48
 BYTE   N44  As2  v127  gtp3
 BYTE   Dn3
 BYTE   W48
 BYTE   PEND 
//  #04 //057   ----------------------------------------
Label_01005B26:
 BYTE   W48
 BYTE   N44  Gs2  v127  gtp3
 BYTE   Cn3
 BYTE   W48
 BYTE   PEND 
//  #04 //058   ----------------------------------------
Label_01005B2E:
 BYTE   W48
 BYTE   N44  Gn2  v127  gtp3
 BYTE   As2
 BYTE   W48
 BYTE   PEND 
//  #04 //059   ----------------------------------------
Label_01005B36:
 BYTE   W48
 BYTE   N44  Fn2  v127  gtp3
 BYTE   Gs2
 BYTE   W48
 BYTE   PEND 
//  #04 //060   ----------------------------------------
 BYTE   PATT
  POIN2 Label_01005B1E
//  #04 //061   ----------------------------------------
 BYTE   PATT
  POIN2 Label_01005B26
//  #04 //062   ----------------------------------------
 BYTE   PATT
  POIN2 Label_01005B2E
//  #04 //063   ----------------------------------------
 BYTE   PATT
  POIN2 Label_01005B36
//  #04 //064   ----------------------------------------
Label_01005B52:
 BYTE   TIE  Fs2  v064
 BYTE   TIE  As2
 BYTE   W96
 BYTE   PEND 
//  #04 //065   ----------------------------------------
Label_01005B59:
 BYTE   W92
 BYTE   W03
 BYTE   EOT
 BYTE   Fs2  v058
 BYTE   W01
 BYTE   PEND 
//  #04 //066   ----------------------------------------
Label_01005B60:
 BYTE   TIE  Cn3  v064
 BYTE   TIE  Ds3
 BYTE   W96
 BYTE   PEND 
//  #04 //067   ----------------------------------------
Label_01005B67:
 BYTE   W92
 BYTE   W03
 BYTE   EOT
 BYTE   Cn3  v063
 BYTE   W01
 BYTE   PEND 
//  #04 //068   ----------------------------------------
 BYTE   PATT
  POIN2 Label_01005719
//  #04 //069   ----------------------------------------
 BYTE   W96
//  #04 //070   ----------------------------------------
 BYTE   PATT
  POIN2 Label_01005720
//  #04 //071   ----------------------------------------
Label_01005B79:
 BYTE   N92  Gs3  v064  gtp3
 BYTE   Cn4
 BYTE   W96
 BYTE   PEND 
//  #04 //072   ----------------------------------------
Label_01005B80:
 BYTE   TIE  As2  v064
 BYTE   TIE  Ds3
 BYTE   W96
 BYTE   PEND 
//  #04 //073   ----------------------------------------
 BYTE   W96
//  #04 //074   ----------------------------------------
Label_01005B88:
 BYTE   W44
 BYTE   W03
 BYTE   EOT
 BYTE   As2  v063
 BYTE   W01
 BYTE   N44  Gs3  v079  gtp3
 BYTE   Gs2
 BYTE   W48
 BYTE   PEND 
//  #04 //075   ----------------------------------------
Label_01005B95:
 BYTE   N44  As3  v095  gtp3
 BYTE   As2
 BYTE   W48
 BYTE   Cs4  v110
 BYTE   N44  Cs3  v110  gtp3
 BYTE   W48
 BYTE   PEND 
//  #04 //076   ----------------------------------------
 BYTE   PATT
  POIN2 Label_01005761
//  #04 //077   ----------------------------------------
 BYTE   PATT
  POIN2 Label_01005769
//  #04 //078   ----------------------------------------
 BYTE   PATT
  POIN2 Label_01005771
//  #04 //079   ----------------------------------------
 BYTE   PATT
  POIN2 Label_01005779
//  #04 //080   ----------------------------------------
 BYTE   PATT
  POIN2 Label_01005761
//  #04 //081   ----------------------------------------
 BYTE   PATT
  POIN2 Label_01005769
//  #04 //082   ----------------------------------------
 BYTE   PATT
  POIN2 Label_01005771
//  #04 //083   ----------------------------------------
 BYTE   PATT
  POIN2 Label_01005779
//  #04 //084   ----------------------------------------
 BYTE   GoTo
  POIN2 Label_01005903
//  #04 //085   ----------------------------------------
 BYTE   W96
//  #04 //086   ----------------------------------------
 BYTE   W96
//  #04 //087   ----------------------------------------
 BYTE   W96
//  #04 //088   ----------------------------------------
 BYTE   W96
//  #04 //089   ----------------------------------------
 BYTE   W96
//  #04 //090   ----------------------------------------
 BYTE   W96
//  #04 //091   ----------------------------------------
 BYTE   W96
//  #04 //092   ----------------------------------------
 BYTE   W96
//  #04 //093   ----------------------------------------
 BYTE   PATT
  POIN2 Label_0100590B
//  #04 //094   ----------------------------------------
 BYTE   PATT
  POIN2 Label_01005918
//  #04 //095   ----------------------------------------
 BYTE   PATT
  POIN2 Label_01005930
//  #04 //096   ----------------------------------------
 BYTE   PATT
  POIN2 Label_01005941
//  #04 //097   ----------------------------------------
 BYTE   PATT
  POIN2 Label_0100590B
//  #04 //098   ----------------------------------------
 BYTE   PATT
  POIN2 Label_0100595E
//  #04 //099   ----------------------------------------
 BYTE   PATT
  POIN2 Label_0100597B
//  #04 //100   ----------------------------------------
 BYTE   PATT
  POIN2 Label_01005990
//  #04 //101   ----------------------------------------
 BYTE   PATT
  POIN2 Label_01005029
//  #04 //102   ----------------------------------------
 BYTE   PATT
  POIN2 Label_010059B3
//  #04 //103   ----------------------------------------
 BYTE   PATT
  POIN2 Label_010059CB
//  #04 //104   ----------------------------------------
 BYTE   PATT
  POIN2 Label_010059DC
//  #04 //105   ----------------------------------------
 BYTE   PATT
  POIN2 Label_01005029
//  #04 //106   ----------------------------------------
 BYTE   PATT
  POIN2 Label_010059F9
//  #04 //107   ----------------------------------------
 BYTE   PATT
  POIN2 Label_01005A17
//  #04 //108   ----------------------------------------
 BYTE   PATT
  POIN2 Label_01005A2B
//  #04 //109   ----------------------------------------
 BYTE   PATT
  POIN2 Label_01005A4A
//  #04 //110   ----------------------------------------
 BYTE   PATT
  POIN2 Label_01005A5E
//  #04 //111   ----------------------------------------
 BYTE   PATT
  POIN2 Label_01005A4A
//  #04 //112   ----------------------------------------
 BYTE   PATT
  POIN2 Label_01005A76
//  #04 //113   ----------------------------------------
 BYTE   PATT
  POIN2 Label_01005A4A
//  #04 //114   ----------------------------------------
 BYTE   PATT
  POIN2 Label_01005A5E
//  #04 //115   ----------------------------------------
 BYTE   PATT
  POIN2 Label_01005A4A
//  #04 //116   ----------------------------------------
 BYTE   PATT
  POIN2 Label_01005A76
//  #04 //117   ----------------------------------------
 BYTE   PATT
  POIN2 Label_01005A9D
//  #04 //118   ----------------------------------------
 BYTE   PATT
  POIN2 Label_0100564E
//  #04 //119   ----------------------------------------
 BYTE   PATT
  POIN2 Label_01005656
//  #04 //120   ----------------------------------------
 BYTE   PATT
  POIN2 Label_01005661
//  #04 //121   ----------------------------------------
 BYTE   PATT
  POIN2 Label_01005668
//  #04 //122   ----------------------------------------
 BYTE   PATT
  POIN2 Label_01005670
//  #04 //123   ----------------------------------------
 BYTE   PATT
  POIN2 Label_01005668
//  #04 //124   ----------------------------------------
 BYTE   N92  As2  v127  gtp3
 BYTE   W96
//  #04 //125   ----------------------------------------
 BYTE   PATT
  POIN2 Label_01005647
//  #04 //126   ----------------------------------------
 BYTE   PATT
  POIN2 Label_0100564E
//  #04 //127   ----------------------------------------
 BYTE   PATT
  POIN2 Label_0100568E
//  #04 //128   ----------------------------------------
 BYTE   PATT
  POIN2 Label_01005696
//  #04 //129   ----------------------------------------
 BYTE   PATT
  POIN2 Label_010056A3
//  #04 //130   ----------------------------------------
 BYTE   W96
//  #04 //131   ----------------------------------------
 BYTE   W96
//  #04 //132   ----------------------------------------
 BYTE   PATT
  POIN2 Label_01005320
//  #04 //133   ----------------------------------------
 BYTE   PATT
  POIN2 Label_01005AEA
//  #04 //134   ----------------------------------------
 BYTE   PATT
  POIN2 Label_01005AF2
//  #04 //135   ----------------------------------------
 BYTE   PATT
  POIN2 Label_01005AFA
//  #04 //136   ----------------------------------------
 BYTE   PATT
  POIN2 Label_01005B02
//  #04 //137   ----------------------------------------
 BYTE   PATT
  POIN2 Label_01005AEA
//  #04 //138   ----------------------------------------
 BYTE   PATT
  POIN2 Label_01005AF2
//  #04 //139   ----------------------------------------
 BYTE   PATT
  POIN2 Label_01005AFA
//  #04 //140   ----------------------------------------
 BYTE   PATT
  POIN2 Label_01005B02
//  #04 //141   ----------------------------------------
 BYTE   PATT
  POIN2 Label_01005B1E
//  #04 //142   ----------------------------------------
 BYTE   PATT
  POIN2 Label_01005B26
//  #04 //143   ----------------------------------------
 BYTE   PATT
  POIN2 Label_01005B2E
//  #04 //144   ----------------------------------------
 BYTE   PATT
  POIN2 Label_01005B36
//  #04 //145   ----------------------------------------
 BYTE   PATT
  POIN2 Label_01005B1E
//  #04 //146   ----------------------------------------
 BYTE   PATT
  POIN2 Label_01005B26
//  #04 //147   ----------------------------------------
 BYTE   PATT
  POIN2 Label_01005B2E
//  #04 //148   ----------------------------------------
 BYTE   PATT
  POIN2 Label_01005B36
//  #04 //149   ----------------------------------------
 BYTE   PATT
  POIN2 Label_01005B52
//  #04 //150   ----------------------------------------
 BYTE   PATT
  POIN2 Label_01005B59
//  #04 //151   ----------------------------------------
 BYTE   PATT
  POIN2 Label_01005B60
//  #04 //152   ----------------------------------------
 BYTE   PATT
  POIN2 Label_01005B67
//  #04 //153   ----------------------------------------
 BYTE   PATT
  POIN2 Label_01005719
//  #04 //154   ----------------------------------------
 BYTE   W96
//  #04 //155   ----------------------------------------
 BYTE   PATT
  POIN2 Label_01005720
//  #04 //156   ----------------------------------------
 BYTE   PATT
  POIN2 Label_01005B79
//  #04 //157   ----------------------------------------
 BYTE   PATT
  POIN2 Label_01005B80
//  #04 //158   ----------------------------------------
 BYTE   W96
//  #04 //159   ----------------------------------------
 BYTE   PATT
  POIN2 Label_01005B88
//  #04 //160   ----------------------------------------
 BYTE   PATT
  POIN2 Label_01005B95
//  #04 //161   ----------------------------------------
 BYTE   PATT
  POIN2 Label_01005761
//  #04 //162   ----------------------------------------
 BYTE   PATT
  POIN2 Label_01005769
//  #04 //163   ----------------------------------------
 BYTE   PATT
  POIN2 Label_01005771
//  #04 //164   ----------------------------------------
 BYTE   PATT
  POIN2 Label_01005779
//  #04 //165   ----------------------------------------
 BYTE   PATT
  POIN2 Label_01005761
//  #04 //166   ----------------------------------------
 BYTE   PATT
  POIN2 Label_01005769
//  #04 //167   ----------------------------------------
 BYTE   PATT
  POIN2 Label_01005771
//  #04 //168   ----------------------------------------
 BYTE   PATT
  POIN2 Label_01005779
//  #04 //169   ----------------------------------------
 BYTE   W96
//  #04 //170   ----------------------------------------
 BYTE   W96
//  #04 //171   ----------------------------------------
 BYTE   W96
//  #04 //172   ----------------------------------------
 BYTE   W92
 BYTE   W03
 BYTE   FINE

//**************** Track 5 (Midi-Chn.4) ****************//

FierceAsFire_005:
//  #05 //000   ----------------------------------------
 BYTE   KEYSH   FierceAsFire_key+0
 BYTE   VOICE   40
 BYTE   VOL   30*FierceAsFire_mvl/mxv
 BYTE   W12
Label_01005D63:
 BYTE   N05  Ds2  v064
 BYTE   W12
 BYTE   Ds2
 BYTE   W12
 BYTE   N11  As2  v096
 BYTE   W12
 BYTE   N05  Ds2  v064
 BYTE   W12
 BYTE   N11  Fs2  v096
 BYTE   W12
 BYTE   Gs2  v064
 BYTE   W12
 BYTE   Ds2
 BYTE   W12
//  #05 //001   ----------------------------------------
 BYTE   Cs3
 BYTE   W12
Label_01005D7C:
 BYTE   N05  Ds2  v064
 BYTE   W12
 BYTE   Gs2
 BYTE   W12
 BYTE   N11  As2  v096
 BYTE   W12
 BYTE   N05  Ds2  v064
 BYTE   W12
 BYTE   N11  Fs2  v096
 BYTE   W12
 BYTE   N05  Gs2  v064
 BYTE   W12
 BYTE   N11  Ds2  v096
 BYTE   W12
//  #05 //002   ----------------------------------------
 BYTE   N05  Fn2  v064
 BYTE   W12
 BYTE   PEND 
Label_01005D9B:
 BYTE   N05  Ds2  v064
 BYTE   W12
 BYTE   Ds2
 BYTE   W12
 BYTE   N11  As2  v096
 BYTE   W12
 BYTE   N05  Ds2  v064
 BYTE   W12
 BYTE   N11  Fs2  v096
 BYTE   W12
 BYTE   Gs2  v064
 BYTE   W12
 BYTE   Ds2
 BYTE   W12
//  #05 //003   ----------------------------------------
 BYTE   Cs3
 BYTE   W12
 BYTE   PEND 
//  #05 //004   ----------------------------------------
 BYTE   PATT
  POIN2 Label_01005D7C
//  #05 //005   ----------------------------------------
 BYTE   PATT
  POIN2 Label_01005D9B
//  #05 //006   ----------------------------------------
 BYTE   PATT
  POIN2 Label_01005D7C
//  #05 //007   ----------------------------------------
 BYTE   PATT
  POIN2 Label_01005D9B
//  #05 //008   ----------------------------------------
 BYTE   PATT
  POIN2 Label_01005D7C
//  #05 //009   ----------------------------------------
Label_01005DCE:
 BYTE   N05  Ds2  v080
 BYTE   W12
 BYTE   Ds2
 BYTE   W12
 BYTE   N11  As2  v120
 BYTE   W12
 BYTE   N05  Ds2  v080
 BYTE   W12
 BYTE   N11  Fs2  v120
 BYTE   W12
 BYTE   Gs2  v080
 BYTE   W12
 BYTE   Ds2
 BYTE   W12
 BYTE   Cs3
 BYTE   W12
 BYTE   PEND 
//  #05 //010   ----------------------------------------
Label_01005DE8:
 BYTE   N05  Ds2  v080
 BYTE   W12
 BYTE   Gs2
 BYTE   W12
 BYTE   N11  As2  v120
 BYTE   W12
 BYTE   N05  Ds2  v080
 BYTE   W12
 BYTE   N11  Fs2  v120
 BYTE   W12
 BYTE   N05  Gs2  v080
 BYTE   W12
 BYTE   N11  Ds2  v120
 BYTE   W12
 BYTE   N05  Fn2  v080
 BYTE   W12
 BYTE   PEND 
//  #05 //011   ----------------------------------------
 BYTE   PATT
  POIN2 Label_01005DCE
//  #05 //012   ----------------------------------------
 BYTE   PATT
  POIN2 Label_01005DE8
//  #05 //013   ----------------------------------------
 BYTE   PATT
  POIN2 Label_01005DCE
//  #05 //014   ----------------------------------------
 BYTE   PATT
  POIN2 Label_01005DE8
//  #05 //015   ----------------------------------------
 BYTE   PATT
  POIN2 Label_01005DCE
//  #05 //016   ----------------------------------------
 BYTE   PATT
  POIN2 Label_01005DE8
//  #05 //017   ----------------------------------------
 BYTE   PATT
  POIN2 Label_01005DCE
//  #05 //018   ----------------------------------------
 BYTE   PATT
  POIN2 Label_01005DE8
//  #05 //019   ----------------------------------------
 BYTE   PATT
  POIN2 Label_01005DCE
//  #05 //020   ----------------------------------------
 BYTE   PATT
  POIN2 Label_01005DE8
//  #05 //021   ----------------------------------------
 BYTE   PATT
  POIN2 Label_01005DCE
//  #05 //022   ----------------------------------------
 BYTE   PATT
  POIN2 Label_01005DE8
//  #05 //023   ----------------------------------------
 BYTE   PATT
  POIN2 Label_01005DCE
//  #05 //024   ----------------------------------------
Label_01005E48:
 BYTE   N05  Ds2  v080
 BYTE   W12
 BYTE   Gs2  v082
 BYTE   W12
 BYTE   N11  As2  v126
 BYTE   W12
 BYTE   N05  Ds2  v086
 BYTE   W12
 BYTE   N11  Fs2  v127
 BYTE   W12
 BYTE   N05  Gs2  v090
 BYTE   W12
 BYTE   N11  Ds2  v127
 BYTE   W12
 BYTE   N05  Fn2  v094
 BYTE   W12
 BYTE   PEND 
//  #05 //025   ----------------------------------------
Label_01005E68:
 BYTE   N05  Ds2  v127
 BYTE   N05  As2
 BYTE   W12
 BYTE   Ds2  v096
 BYTE   N05  As2
 BYTE   W24
 BYTE   Ds2
 BYTE   N05  As2
 BYTE   W36
 BYTE   Ds2
 BYTE   N05  As2
 BYTE   W24
 BYTE   PEND 
//  #05 //026   ----------------------------------------
Label_01005E7C:
 BYTE   N05  Ds2  v096
 BYTE   N05  As2
 BYTE   W36
 BYTE   Ds2
 BYTE   N05  As2
 BYTE   W36
 BYTE   Ds2
 BYTE   N05  As2
 BYTE   W12
 BYTE   Fn2
 BYTE   N05  Bn2
 BYTE   W12
 BYTE   PEND 
//  #05 //027   ----------------------------------------
 BYTE   PATT
  POIN2 Label_01005E68
//  #05 //028   ----------------------------------------
Label_01005E94:
 BYTE   N05  Ds2  v096
 BYTE   N05  As2
 BYTE   W36
 BYTE   Ds2
 BYTE   N05  As2
 BYTE   W36
 BYTE   Ds2
 BYTE   N05  As2
 BYTE   W12
 BYTE   Cs2
 BYTE   N05  As2
 BYTE   W12
 BYTE   PEND 
//  #05 //029   ----------------------------------------
 BYTE   PATT
  POIN2 Label_01005E68
//  #05 //030   ----------------------------------------
 BYTE   PATT
  POIN2 Label_01005E7C
//  #05 //031   ----------------------------------------
 BYTE   PATT
  POIN2 Label_01005E68
//  #05 //032   ----------------------------------------
 BYTE   PATT
  POIN2 Label_01005E94
//  #05 //033   ----------------------------------------
Label_01005EBB:
 BYTE   N16  Bn1  v115
 BYTE   W24
 BYTE   TIE  Bn1  v127
 BYTE   W24
 BYTE   N44  Cs2  v127  gtp3
 BYTE   W48
 BYTE   PEND 
//  #05 //034   ----------------------------------------
Label_01005EC9:
 BYTE   N44  Fs2  v127  gtp3
 BYTE   W48
 BYTE   Fn2
 BYTE   W44
 BYTE   W03
 BYTE   EOT
 BYTE   Bn1
 BYTE   W01
 BYTE   PEND 
//  #05 //035   ----------------------------------------
Label_01005ED5:
 BYTE   N44  Ds2  v127  gtp3
 BYTE   N48  Cs2
 BYTE   W48
 BYTE   TIE
 BYTE   W48
 BYTE   PEND 
//  #05 //036   ----------------------------------------
Label_01005EDF:
 BYTE   W48
 BYTE   N44  Gs1  v127  gtp3
 BYTE   W44
 BYTE   W03
 BYTE   EOT
 BYTE   Cs2
 BYTE   W01
 BYTE   PEND 
//  #05 //037   ----------------------------------------
Label_01005EEA:
 BYTE   N44  Fn2  v127  gtp3
 BYTE   TIE  Ds2
 BYTE   W48
 BYTE   N44  Fs2  v127  gtp3
 BYTE   W48
 BYTE   PEND 
//  #05 //038   ----------------------------------------
Label_01005EF7:
 BYTE   N68  As1  v127  gtp3
 BYTE   W72
 BYTE   N23  As1  v096
 BYTE   W23
 BYTE   EOT
 BYTE   Ds2
 BYTE   W01
 BYTE   PEND 
//  #05 //039   ----------------------------------------
Label_01005F04:
 BYTE   N44  Fn2  v127  gtp3
 BYTE   TIE  Cn2
 BYTE   W48
 BYTE   N44  Fs2  v127  gtp3
 BYTE   W48
 BYTE   PEND 
//  #05 //040   ----------------------------------------
Label_01005F11:
 BYTE   N92  As1  v127  gtp3
 BYTE   W92
 BYTE   W03
 BYTE   EOT
 BYTE   Cn2
 BYTE   W01
 BYTE   PEND 
//  #05 //041   ----------------------------------------
Label_01005F1B:
 BYTE   TIE  Bn1  v127
 BYTE   W48
 BYTE   N44  Cs2  v127  gtp3
 BYTE   W48
 BYTE   PEND 
//  #05 //042   ----------------------------------------
 BYTE   PATT
  POIN2 Label_01005EC9
//  #05 //043   ----------------------------------------
Label_01005F2A:
 BYTE   N44  Ds2  v127  gtp3
 BYTE   TIE  En2
 BYTE   W48
 BYTE   N44  Cs2  v127  gtp3
 BYTE   W48
 BYTE   PEND 
//  #05 //044   ----------------------------------------
Label_01005F37:
 BYTE   N44  Gs2  v127  gtp3
 BYTE   W48
 BYTE   Cs3
 BYTE   W44
 BYTE   W03
 BYTE   EOT
 BYTE   En2
 BYTE   W01
 BYTE   PEND 
//  #05 //045   ----------------------------------------
Label_01005F43:
 BYTE   TIE  As2  v127
 BYTE   TIE  Ds2
 BYTE   W96
 BYTE   PEND 
//  #05 //046   ----------------------------------------
 BYTE   W96
//  #05 //047   ----------------------------------------
 BYTE   W96
//  #05 //048   ----------------------------------------
Label_01005F4C:
 BYTE   W92
 BYTE   W03
 BYTE   EOT
 BYTE   As2  v051
 BYTE   W01
 BYTE   PEND 
//  #05 //049   ----------------------------------------
Label_01005F53:
 BYTE   W48
 BYTE   N44  Gs2  v127  gtp3
 BYTE   Bn2
 BYTE   W48
 BYTE   PEND 
//  #05 //050   ----------------------------------------
Label_01005F5B:
 BYTE   W48
 BYTE   N44  Fs2  v127  gtp3
 BYTE   As2
 BYTE   W48
 BYTE   PEND 
//  #05 //051   ----------------------------------------
 BYTE   PATT
  POIN2 Label_01005B36
//  #05 //052   ----------------------------------------
Label_01005F68:
 BYTE   W48
 BYTE   N44  Ds2  v127  gtp3
 BYTE   Fs2
 BYTE   W48
 BYTE   PEND 
//  #05 //053   ----------------------------------------
 BYTE   PATT
  POIN2 Label_01005F53
//  #05 //054   ----------------------------------------
 BYTE   PATT
  POIN2 Label_01005F5B
//  #05 //055   ----------------------------------------
 BYTE   PATT
  POIN2 Label_01005B36
//  #05 //056   ----------------------------------------
 BYTE   PATT
  POIN2 Label_01005F68
//  #05 //057   ----------------------------------------
Label_01005F84:
 BYTE   W72
 BYTE   N11  Fn2  v112
 BYTE   W12
 BYTE   As2
 BYTE   W12
 BYTE   PEND 
//  #05 //058   ----------------------------------------
Label_01005F8C:
 BYTE   N68  Fn3  v112  gtp3
 BYTE   W72
 BYTE   N11  Ds3
 BYTE   W12
 BYTE   Cs3
 BYTE   W12
 BYTE   PEND 
//  #05 //059   ----------------------------------------
Label_01005F97:
 BYTE   N11  Cn3  v112
 BYTE   W12
 BYTE   Cs3
 BYTE   W12
 BYTE   N23  Ds3
 BYTE   W24
 BYTE   Cs3
 BYTE   W24
 BYTE   N11  Cn3
 BYTE   W12
 BYTE   As2
 BYTE   W12
 BYTE   PEND 
//  #05 //060   ----------------------------------------
Label_01005FA8:
 BYTE   N23  Cn3  v112
 BYTE   W24
 BYTE   N44  Fn2  v112  gtp3
 BYTE   W48
 BYTE   N23  As2
 BYTE   W24
 BYTE   PEND 
//  #05 //061   ----------------------------------------
Label_01005FB5:
 BYTE   N23  Gs2  v112
 BYTE   W24
 BYTE   N11  Gn2
 BYTE   W12
 BYTE   Fn2
 BYTE   W12
 BYTE   N23  Gn2
 BYTE   W24
 BYTE   Ds2
 BYTE   W24
 BYTE   PEND 
//  #05 //062   ----------------------------------------
Label_01005FC4:
 BYTE   N32  Fn2  v112  gtp3
 BYTE   W36
 BYTE   N11  Ds2
 BYTE   W12
 BYTE   N32  Fn2  v112  gtp3
 BYTE   W36
 BYTE   N11  Ds2
 BYTE   W12
 BYTE   PEND 
//  #05 //063   ----------------------------------------
Label_01005FD5:
 BYTE   N11  Fn2  v112
 BYTE   W12
 BYTE   As2
 BYTE   W12
 BYTE   TIE  Fn2
 BYTE   W72
 BYTE   PEND 
//  #05 //064   ----------------------------------------
 BYTE   W92
 BYTE   W03
 BYTE   EOT
 BYTE   W01
//  #05 //065   ----------------------------------------
 BYTE   PATT
  POIN2 Label_01005B52
//  #05 //066   ----------------------------------------
 BYTE   PATT
  POIN2 Label_01005B59
//  #05 //067   ----------------------------------------
Label_01005FED:
 BYTE   TIE  Gs2  v064
 BYTE   TIE  Cn3
 BYTE   W96
 BYTE   PEND 
//  #05 //068   ----------------------------------------
Label_01005FF4:
 BYTE   W92
 BYTE   W03
 BYTE   EOT
 BYTE   Gs2  v060
 BYTE   W01
 BYTE   PEND 
//  #05 //069   ----------------------------------------
Label_01005FFB:
 BYTE   TIE  Fn2  v064
 BYTE   TIE  As2
 BYTE   W96
 BYTE   PEND 
//  #05 //070   ----------------------------------------
 BYTE   W96
//  #05 //071   ----------------------------------------
Label_01006003:
 BYTE   W92
 BYTE   W03
 BYTE   EOT
 BYTE   Fn2  v058
 BYTE   W01
 BYTE   PEND 
//  #05 //072   ----------------------------------------
Label_0100600A:
 BYTE   N92  As2  v064  gtp3
 BYTE   Cs3
 BYTE   W96
 BYTE   PEND 
//  #05 //073   ----------------------------------------
Label_01006011:
 BYTE   TIE  Ds2  v064
 BYTE   TIE  As2
 BYTE   W96
 BYTE   PEND 
//  #05 //074   ----------------------------------------
 BYTE   W92
 BYTE   W03
 BYTE   EOT
 BYTE   W01
//  #05 //075   ----------------------------------------
 BYTE   TIE  Gs2
 BYTE   W96
//  #05 //076   ----------------------------------------
Label_0100601F:
 BYTE   W92
 BYTE   W03
 BYTE   EOT
 BYTE   Ds2  v056
 BYTE   W01
 BYTE   PEND 
//  #05 //077   ----------------------------------------
Label_01006026:
 BYTE   N11  Ds2  v127
 BYTE   W12
 BYTE   N01  Ds2  v126
 BYTE   N11
 BYTE   W12
 BYTE   Gs2  v127
 BYTE   W12
 BYTE   Ds2  v126
 BYTE   W12
 BYTE   As2  v127
 BYTE   W12
 BYTE   Ds2  v126
 BYTE   W12
 BYTE   Gs2  v127
 BYTE   W12
 BYTE   N05  Ds2  v126
 BYTE   W12
 BYTE   PEND 
//  #05 //078   ----------------------------------------
Label_01006043:
 BYTE   N11  Gs2  v127
 BYTE   N11  Ds2
 BYTE   W12
 BYTE   N05  As2  v126
 BYTE   W12
 BYTE   N11  Ds2  v127
 BYTE   W12
 BYTE   Cs3
 BYTE   W12
 BYTE   Ds2
 BYTE   W12
 BYTE   Gs2  v126
 BYTE   W12
 BYTE   As2  v127
 BYTE   N11  Ds2
 BYTE   W12
 BYTE   N05  Ds2  v126
 BYTE   W12
 BYTE   PEND 
//  #05 //079   ----------------------------------------
 BYTE   PATT
  POIN2 Label_01006026
//  #05 //080   ----------------------------------------
 BYTE   PATT
  POIN2 Label_01006043
//  #05 //081   ----------------------------------------
 BYTE   PATT
  POIN2 Label_01006026
//  #05 //082   ----------------------------------------
Label_01006071:
 BYTE   N11  Gs2  v127
 BYTE   N11  Ds2
 BYTE   W12
 BYTE   N05  As2  v126
 BYTE   W12
 BYTE   N11  Ds2  v127
 BYTE   W12
 BYTE   Cs3
 BYTE   W12
 BYTE   Ds2
 BYTE   W12
 BYTE   Gs2  v126
 BYTE   W12
 BYTE   N05  As2  v127
 BYTE   N11  Ds2
 BYTE   W12
 BYTE   N05  Ds2  v126
 BYTE   W12
 BYTE   PEND 
//  #05 //083   ----------------------------------------
 BYTE   PATT
  POIN2 Label_01006026
//  #05 //084   ----------------------------------------
Label_01006096:
 BYTE   N11  Gs2  v127
 BYTE   N11  Ds2
 BYTE   W12
 BYTE   N05  As2  v126
 BYTE   W12
 BYTE   Ds3  v127
 BYTE   N11  Ds2
 BYTE   W12
 BYTE   N05  Cs3  v126
 BYTE   W12
 BYTE   Ds3  v127
 BYTE   N11  Ds2
 BYTE   W12
 BYTE   N05  Gs2  v126
 BYTE   W12
 BYTE   As2
 BYTE   N11  Ds2  v127
 BYTE   W12
 BYTE   N05  Ds3  v126
 BYTE   W12
 BYTE   PEND 
//  #05 //085   ----------------------------------------
 BYTE   GoTo
  POIN2 Label_01005D63
//  #05 //086   ----------------------------------------
 BYTE   W96
//  #05 //087   ----------------------------------------
 BYTE   W96
//  #05 //088   ----------------------------------------
 BYTE   PATT
  POIN2 Label_01005D9B
//  #05 //089   ----------------------------------------
Label_010060C8:
 BYTE   N05  Ds2  v064
 BYTE   W12
 BYTE   Ds2
 BYTE   W12
 BYTE   N11  As2  v096
 BYTE   W12
 BYTE   N05  Ds2  v064
 BYTE   W12
 BYTE   N11  Fs2  v096
 BYTE   W12
 BYTE   N05  Gs2  v064
 BYTE   W12
 BYTE   N11  Ds2  v096
 BYTE   W12
 BYTE   N05  Fn2  v064
 BYTE   W12
 BYTE   PEND 
//  #05 //090   ----------------------------------------
 BYTE   PATT
  POIN2 Label_01005D9B
//  #05 //091   ----------------------------------------
 BYTE   PATT
  POIN2 Label_01005D7C
//  #05 //092   ----------------------------------------
 BYTE   PATT
  POIN2 Label_01005D9B
//  #05 //093   ----------------------------------------
 BYTE   PATT
  POIN2 Label_01005D7C
//  #05 //094   ----------------------------------------
 BYTE   PATT
  POIN2 Label_01005DCE
//  #05 //095   ----------------------------------------
 BYTE   PATT
  POIN2 Label_01005DE8
//  #05 //096   ----------------------------------------
 BYTE   PATT
  POIN2 Label_01005DCE
//  #05 //097   ----------------------------------------
 BYTE   PATT
  POIN2 Label_01005DE8
//  #05 //098   ----------------------------------------
 BYTE   PATT
  POIN2 Label_01005DCE
//  #05 //099   ----------------------------------------
 BYTE   PATT
  POIN2 Label_01005DE8
//  #05 //100   ----------------------------------------
 BYTE   PATT
  POIN2 Label_01005DCE
//  #05 //101   ----------------------------------------
 BYTE   PATT
  POIN2 Label_01005DE8
//  #05 //102   ----------------------------------------
 BYTE   PATT
  POIN2 Label_01005DCE
//  #05 //103   ----------------------------------------
 BYTE   PATT
  POIN2 Label_01005DE8
//  #05 //104   ----------------------------------------
 BYTE   PATT
  POIN2 Label_01005DCE
//  #05 //105   ----------------------------------------
 BYTE   PATT
  POIN2 Label_01005DE8
//  #05 //106   ----------------------------------------
 BYTE   PATT
  POIN2 Label_01005DCE
//  #05 //107   ----------------------------------------
 BYTE   PATT
  POIN2 Label_01005DE8
//  #05 //108   ----------------------------------------
 BYTE   PATT
  POIN2 Label_01005DCE
//  #05 //109   ----------------------------------------
 BYTE   PATT
  POIN2 Label_01005E48
//  #05 //110   ----------------------------------------
 BYTE   PATT
  POIN2 Label_01005E68
//  #05 //111   ----------------------------------------
 BYTE   PATT
  POIN2 Label_01005E7C
//  #05 //112   ----------------------------------------
 BYTE   PATT
  POIN2 Label_01005E68
//  #05 //113   ----------------------------------------
 BYTE   PATT
  POIN2 Label_01005E94
//  #05 //114   ----------------------------------------
 BYTE   PATT
  POIN2 Label_01005E68
//  #05 //115   ----------------------------------------
 BYTE   PATT
  POIN2 Label_01005E7C
//  #05 //116   ----------------------------------------
 BYTE   PATT
  POIN2 Label_01005E68
//  #05 //117   ----------------------------------------
 BYTE   PATT
  POIN2 Label_01005E94
//  #05 //118   ----------------------------------------
 BYTE   PATT
  POIN2 Label_01005EBB
//  #05 //119   ----------------------------------------
 BYTE   PATT
  POIN2 Label_01005EC9
//  #05 //120   ----------------------------------------
 BYTE   PATT
  POIN2 Label_01005ED5
//  #05 //121   ----------------------------------------
 BYTE   PATT
  POIN2 Label_01005EDF
//  #05 //122   ----------------------------------------
 BYTE   PATT
  POIN2 Label_01005EEA
//  #05 //123   ----------------------------------------
 BYTE   PATT
  POIN2 Label_01005EF7
//  #05 //124   ----------------------------------------
 BYTE   PATT
  POIN2 Label_01005F04
//  #05 //125   ----------------------------------------
 BYTE   PATT
  POIN2 Label_01005F11
//  #05 //126   ----------------------------------------
 BYTE   PATT
  POIN2 Label_01005F1B
//  #05 //127   ----------------------------------------
 BYTE   PATT
  POIN2 Label_01005EC9
//  #05 //128   ----------------------------------------
 BYTE   PATT
  POIN2 Label_01005F2A
//  #05 //129   ----------------------------------------
 BYTE   PATT
  POIN2 Label_01005F37
//  #05 //130   ----------------------------------------
 BYTE   PATT
  POIN2 Label_01005F43
//  #05 //131   ----------------------------------------
 BYTE   W96
//  #05 //132   ----------------------------------------
 BYTE   W96
//  #05 //133   ----------------------------------------
 BYTE   PATT
  POIN2 Label_01005F4C
//  #05 //134   ----------------------------------------
 BYTE   PATT
  POIN2 Label_01005F53
//  #05 //135   ----------------------------------------
 BYTE   PATT
  POIN2 Label_01005F5B
//  #05 //136   ----------------------------------------
 BYTE   PATT
  POIN2 Label_01005B36
//  #05 //137   ----------------------------------------
 BYTE   PATT
  POIN2 Label_01005F68
//  #05 //138   ----------------------------------------
 BYTE   PATT
  POIN2 Label_01005F53
//  #05 //139   ----------------------------------------
 BYTE   PATT
  POIN2 Label_01005F5B
//  #05 //140   ----------------------------------------
 BYTE   PATT
  POIN2 Label_01005B36
//  #05 //141   ----------------------------------------
 BYTE   PATT
  POIN2 Label_01005F68
//  #05 //142   ----------------------------------------
 BYTE   PATT
  POIN2 Label_01005F84
//  #05 //143   ----------------------------------------
 BYTE   PATT
  POIN2 Label_01005F8C
//  #05 //144   ----------------------------------------
 BYTE   PATT
  POIN2 Label_01005F97
//  #05 //145   ----------------------------------------
 BYTE   PATT
  POIN2 Label_01005FA8
//  #05 //146   ----------------------------------------
 BYTE   PATT
  POIN2 Label_01005FB5
//  #05 //147   ----------------------------------------
 BYTE   PATT
  POIN2 Label_01005FC4
//  #05 //148   ----------------------------------------
 BYTE   PATT
  POIN2 Label_01005FD5
//  #05 //149   ----------------------------------------
 BYTE   W92
 BYTE   W03
 BYTE   EOT
 BYTE   Fn2
 BYTE   W01
//  #05 //150   ----------------------------------------
 BYTE   PATT
  POIN2 Label_01005B52
//  #05 //151   ----------------------------------------
 BYTE   PATT
  POIN2 Label_01005B59
//  #05 //152   ----------------------------------------
 BYTE   PATT
  POIN2 Label_01005FED
//  #05 //153   ----------------------------------------
 BYTE   PATT
  POIN2 Label_01005FF4
//  #05 //154   ----------------------------------------
 BYTE   PATT
  POIN2 Label_01005FFB
//  #05 //155   ----------------------------------------
 BYTE   W96
//  #05 //156   ----------------------------------------
 BYTE   PATT
  POIN2 Label_01006003
//  #05 //157   ----------------------------------------
 BYTE   PATT
  POIN2 Label_0100600A
//  #05 //158   ----------------------------------------
 BYTE   PATT
  POIN2 Label_01006011
//  #05 //159   ----------------------------------------
 BYTE   W92
 BYTE   W03
 BYTE   EOT
 BYTE   As2
 BYTE   W01
//  #05 //160   ----------------------------------------
 BYTE   TIE  Gs2  v064
 BYTE   W96
//  #05 //161   ----------------------------------------
 BYTE   PATT
  POIN2 Label_0100601F
//  #05 //162   ----------------------------------------
 BYTE   PATT
  POIN2 Label_01006026
//  #05 //163   ----------------------------------------
 BYTE   PATT
  POIN2 Label_01006043
//  #05 //164   ----------------------------------------
 BYTE   PATT
  POIN2 Label_01006026
//  #05 //165   ----------------------------------------
 BYTE   PATT
  POIN2 Label_01006043
//  #05 //166   ----------------------------------------
 BYTE   PATT
  POIN2 Label_01006026
//  #05 //167   ----------------------------------------
 BYTE   PATT
  POIN2 Label_01006071
//  #05 //168   ----------------------------------------
 BYTE   PATT
  POIN2 Label_01006026
//  #05 //169   ----------------------------------------
 BYTE   PATT
  POIN2 Label_01006096
//  #05 //170   ----------------------------------------
 BYTE   W96
//  #05 //171   ----------------------------------------
 BYTE   W96
//  #05 //172   ----------------------------------------
 BYTE   PATT
  POIN2 Label_01005D9B
//  #05 //173   ----------------------------------------
Label_01006271:
 BYTE   N05  Ds2  v064
 BYTE   W12
 BYTE   Ds2
 BYTE   W12
 BYTE   N11  As2  v096
 BYTE   W12
 BYTE   N05  Ds2  v064
 BYTE   W12
 BYTE   N11  Fs2  v096
 BYTE   W12
 BYTE   N05  Gs2  v064
 BYTE   W12
 BYTE   N11  Ds2  v096
 BYTE   W12
 BYTE   N05  Fn2  v064
 BYTE   W11
 BYTE   PEND 
 BYTE   FINE

//**************** Track 6 (Midi-Chn.5) ****************//

FierceAsFire_006:
//  #06 //000   ----------------------------------------
 BYTE   KEYSH   FierceAsFire_key+0
 BYTE   VOICE   4
 BYTE   VOL   32*FierceAsFire_mvl/mxv
 BYTE   W12
Label_010062AB:
 BYTE   W96
//  #06 //001   ----------------------------------------
 BYTE   W96
//  #06 //002   ----------------------------------------
 BYTE   W96
//  #06 //003   ----------------------------------------
 BYTE   W96
//  #06 //004   ----------------------------------------
 BYTE   W96
//  #06 //005   ----------------------------------------
 BYTE   W96
//  #06 //006   ----------------------------------------
 BYTE   W96
//  #06 //007   ----------------------------------------
 BYTE   W96
//  #06 //008   ----------------------------------------
 BYTE   TIE  Ds2  v120
 BYTE   W96
//  #06 //009   ----------------------------------------
 BYTE   W92
 BYTE   W03
 BYTE   EOT
 BYTE   W01
//  #06 //010   ----------------------------------------
 BYTE   TIE  Bn1
 BYTE   W96
//  #06 //011   ----------------------------------------
 BYTE   W92
 BYTE   W03
 BYTE   EOT
 BYTE   W01
//  #06 //012   ----------------------------------------
 BYTE   TIE  Gs1
 BYTE   W96
//  #06 //013   ----------------------------------------
 BYTE   W44
 BYTE   W03
 BYTE   EOT
 BYTE   W48
 BYTE   W01
//  #06 //014   ----------------------------------------
 BYTE   W96
//  #06 //015   ----------------------------------------
 BYTE   W96
//  #06 //016   ----------------------------------------
 BYTE   TIE  Ds2  v127
 BYTE   W96
//  #06 //017   ----------------------------------------
 BYTE   W92
 BYTE   W03
 BYTE   EOT
 BYTE   W01
//  #06 //018   ----------------------------------------
 BYTE   TIE  Bn1
 BYTE   W96
//  #06 //019   ----------------------------------------
 BYTE   W92
 BYTE   W03
 BYTE   EOT
 BYTE   W01
//  #06 //020   ----------------------------------------
 BYTE   TIE  Gs1
 BYTE   W96
//  #06 //021   ----------------------------------------
 BYTE   W44
 BYTE   W03
 BYTE   EOT
 BYTE   W48
 BYTE   W01
//  #06 //022   ----------------------------------------
 BYTE   W96
//  #06 //023   ----------------------------------------
 BYTE   W96
//  #06 //024   ----------------------------------------
Label_010062E5:
 BYTE   N12  Ds2  v127
 BYTE   W12
 BYTE   N23  Ds2  v096
 BYTE   W12
 BYTE   N11  As2  v127
 BYTE   W24
 BYTE   Fs2
 BYTE   N32  Ds2  v127  gtp3
 BYTE   W12
 BYTE   N11  Gs2  v096
 BYTE   W24
 BYTE   Cs3
 BYTE   W12
 BYTE   PEND 
//  #06 //025   ----------------------------------------
Label_010062FE:
 BYTE   N32  Ds2  v127  gtp3
 BYTE   W12
 BYTE   N05  Gs2  v096
 BYTE   W12
 BYTE   N11  As2  v127
 BYTE   W24
 BYTE   Fs2
 BYTE   N24  Ds2
 BYTE   W12
 BYTE   N05  Gs2  v096
 BYTE   W12
 BYTE   N11  Ds2  v127
 BYTE   W12
 BYTE   N05  Fn2  v096
 BYTE   W12
 BYTE   PEND 
//  #06 //026   ----------------------------------------
 BYTE   PATT
  POIN2 Label_010062E5
//  #06 //027   ----------------------------------------
 BYTE   PATT
  POIN2 Label_010062FE
//  #06 //028   ----------------------------------------
 BYTE   PATT
  POIN2 Label_010062E5
//  #06 //029   ----------------------------------------
 BYTE   PATT
  POIN2 Label_010062FE
//  #06 //030   ----------------------------------------
 BYTE   PATT
  POIN2 Label_010062E5
//  #06 //031   ----------------------------------------
 BYTE   PATT
  POIN2 Label_010062FE
//  #06 //032   ----------------------------------------
 BYTE   PATT
  POIN2 Label_01005EBB
//  #06 //033   ----------------------------------------
 BYTE   PATT
  POIN2 Label_01005EC9
//  #06 //034   ----------------------------------------
 BYTE   PATT
  POIN2 Label_01005ED5
//  #06 //035   ----------------------------------------
 BYTE   PATT
  POIN2 Label_01005EDF
//  #06 //036   ----------------------------------------
 BYTE   PATT
  POIN2 Label_01005EEA
//  #06 //037   ----------------------------------------
 BYTE   PATT
  POIN2 Label_01005EF7
//  #06 //038   ----------------------------------------
 BYTE   PATT
  POIN2 Label_01005F04
//  #06 //039   ----------------------------------------
 BYTE   PATT
  POIN2 Label_01005F11
//  #06 //040   ----------------------------------------
 BYTE   PATT
  POIN2 Label_01005F1B
//  #06 //041   ----------------------------------------
 BYTE   PATT
  POIN2 Label_01005EC9
//  #06 //042   ----------------------------------------
Label_0100636C:
 BYTE   N44  Ds2  v127  gtp3
 BYTE   TIE  Gs1
 BYTE   W48
 BYTE   N44  Cs2  v127  gtp3
 BYTE   W48
 BYTE   PEND 
//  #06 //043   ----------------------------------------
Label_01006379:
 BYTE   N44  Gs2  v127  gtp3
 BYTE   W48
 BYTE   Cs3
 BYTE   W44
 BYTE   W03
 BYTE   EOT
 BYTE   Gs1
 BYTE   W01
 BYTE   PEND 
//  #06 //044   ----------------------------------------
Label_01006385:
 BYTE   TIE  As2  v127
 BYTE   TIE  As1
 BYTE   W96
 BYTE   PEND 
//  #06 //045   ----------------------------------------
 BYTE   W96
//  #06 //046   ----------------------------------------
 BYTE   W96
//  #06 //047   ----------------------------------------
Label_0100638E:
 BYTE   W92
 BYTE   W03
 BYTE   EOT
 BYTE   As2  v046
 BYTE   W01
 BYTE   PEND 
//  #06 //048   ----------------------------------------
Label_01006395:
 BYTE   N16  Gs1  v127
 BYTE   N16  Gs2
 BYTE   W24
 BYTE   N68  Gs1  v127  gtp3
 BYTE   Gs2
 BYTE   W72
 BYTE   PEND 
//  #06 //049   ----------------------------------------
 BYTE   PATT
  POIN2 Label_01006395
//  #06 //050   ----------------------------------------
 BYTE   PATT
  POIN2 Label_01006395
//  #06 //051   ----------------------------------------
 BYTE   PATT
  POIN2 Label_01006395
//  #06 //052   ----------------------------------------
 BYTE   PATT
  POIN2 Label_01006395
//  #06 //053   ----------------------------------------
 BYTE   PATT
  POIN2 Label_01006395
//  #06 //054   ----------------------------------------
 BYTE   PATT
  POIN2 Label_01006395
//  #06 //055   ----------------------------------------
 BYTE   PATT
  POIN2 Label_01006395
//  #06 //056   ----------------------------------------
Label_010063C5:
 BYTE   N16  As1  v127
 BYTE   N16  As2
 BYTE   W24
 BYTE   N44  As1  v127  gtp3
 BYTE   As2
 BYTE   W72
 BYTE   PEND 
//  #06 //057   ----------------------------------------
 BYTE   PATT
  POIN2 Label_010063C5
//  #06 //058   ----------------------------------------
 BYTE   PATT
  POIN2 Label_010063C5
//  #06 //059   ----------------------------------------
 BYTE   PATT
  POIN2 Label_010063C5
//  #06 //060   ----------------------------------------
 BYTE   PATT
  POIN2 Label_010063C5
//  #06 //061   ----------------------------------------
 BYTE   PATT
  POIN2 Label_010063C5
//  #06 //062   ----------------------------------------
 BYTE   PATT
  POIN2 Label_010063C5
//  #06 //063   ----------------------------------------
 BYTE   PATT
  POIN2 Label_010063C5
//  #06 //064   ----------------------------------------
Label_010063F5:
 BYTE   N11  Fs1  v127
 BYTE   W24
 BYTE   Fs1  v096
 BYTE   W24
 BYTE   Fs1
 BYTE   W24
 BYTE   Fs1
 BYTE   W24
 BYTE   PEND 
//  #06 //065   ----------------------------------------
Label_01006401:
 BYTE   N11  Fs1  v096
 BYTE   W24
 BYTE   Fs1
 BYTE   W24
 BYTE   Fs1
 BYTE   W24
 BYTE   Fs1
 BYTE   W24
 BYTE   PEND 
//  #06 //066   ----------------------------------------
Label_0100640C:
 BYTE   N11  Gs1  v096
 BYTE   W24
 BYTE   Gs1
 BYTE   W24
 BYTE   Gs1
 BYTE   W24
 BYTE   Gs1
 BYTE   W24
 BYTE   PEND 
//  #06 //067   ----------------------------------------
 BYTE   PATT
  POIN2 Label_0100640C
//  #06 //068   ----------------------------------------
Label_0100641C:
 BYTE   N11  As1  v096
 BYTE   W24
 BYTE   As1
 BYTE   W24
 BYTE   As1
 BYTE   W24
 BYTE   As1
 BYTE   W24
 BYTE   PEND 
//  #06 //069   ----------------------------------------
 BYTE   PATT
  POIN2 Label_0100641C
//  #06 //070   ----------------------------------------
 BYTE   PATT
  POIN2 Label_0100641C
//  #06 //071   ----------------------------------------
 BYTE   PATT
  POIN2 Label_0100641C
//  #06 //072   ----------------------------------------
Label_01006436:
 BYTE   N11  Bn1  v096
 BYTE   W24
 BYTE   Bn1
 BYTE   W24
 BYTE   Bn1
 BYTE   W24
 BYTE   Bn1
 BYTE   W24
 BYTE   PEND 
//  #06 //073   ----------------------------------------
 BYTE   PATT
  POIN2 Label_01006436
//  #06 //074   ----------------------------------------
Label_01006446:
 BYTE   N11  Cs2  v096
 BYTE   W24
 BYTE   Cs2  v099
 BYTE   W24
 BYTE   Cs2  v103
 BYTE   W24
 BYTE   Cs2  v107
 BYTE   W24
 BYTE   PEND 
//  #06 //075   ----------------------------------------
Label_01006454:
 BYTE   N11  Cs2  v111
 BYTE   W24
 BYTE   Cs2  v114
 BYTE   W24
 BYTE   Cs2  v118
 BYTE   W24
 BYTE   Cs2  v122
 BYTE   W24
 BYTE   PEND 
//  #06 //076   ----------------------------------------
Label_01006462:
 BYTE   N16  Ds2  v127
 BYTE   W24
 BYTE   N23
 BYTE   W72
 BYTE   PEND 
//  #06 //077   ----------------------------------------
 BYTE   PATT
  POIN2 Label_01006462
//  #06 //078   ----------------------------------------
 BYTE   PATT
  POIN2 Label_01006462
//  #06 //079   ----------------------------------------
 BYTE   PATT
  POIN2 Label_01006462
//  #06 //080   ----------------------------------------
Label_01006478:
 BYTE   N16  Ds2  v127
 BYTE   W24
 BYTE   Ds2
 BYTE   W72
 BYTE   PEND 
//  #06 //081   ----------------------------------------
 BYTE   PATT
  POIN2 Label_01006478
//  #06 //082   ----------------------------------------
 BYTE   PATT
  POIN2 Label_01006478
//  #06 //083   ----------------------------------------
 BYTE   PATT
  POIN2 Label_01006478
//  #06 //084   ----------------------------------------
 BYTE   N05  Ds2  v096
 BYTE   GoTo
  POIN2 Label_010062AB
//  #06 //085   ----------------------------------------
 BYTE   W12
 BYTE   Ds2
 BYTE   W12
 BYTE   N11  As2  v127
 BYTE   W12
 BYTE   N05  Ds2  v094
 BYTE   W12
 BYTE   N11  Fs2  v127
 BYTE   W12
 BYTE   Gs2  v090
 BYTE   W12
 BYTE   Ds2  v087
 BYTE   W12
 BYTE   Cs3  v085
 BYTE   W12
//  #06 //086   ----------------------------------------
Label_010064AE:
 BYTE   N05  Ds2  v083
 BYTE   W12
 BYTE   Ds2  v080
 BYTE   W12
 BYTE   N11  As2  v117
 BYTE   W12
 BYTE   N05  Ds2  v076
 BYTE   W12
 BYTE   N11  Fs2  v111
 BYTE   W12
 BYTE   N05  Gs2  v071
 BYTE   W12
 BYTE   N11  Ds2  v103
 BYTE   W12
 BYTE   N05  Fn2  v067
 BYTE   W12
 BYTE   PEND 
//  #06 //087   ----------------------------------------
 BYTE   PATT
  POIN2 Label_01005D9B
//  #06 //088   ----------------------------------------
 BYTE   PATT
  POIN2 Label_010060C8
//  #06 //089   ----------------------------------------
 BYTE   W96
//  #06 //090   ----------------------------------------
 BYTE   W96
//  #06 //091   ----------------------------------------
 BYTE   W96
//  #06 //092   ----------------------------------------
 BYTE   W96
//  #06 //093   ----------------------------------------
 BYTE   TIE  Ds2  v120
 BYTE   W96
//  #06 //094   ----------------------------------------
 BYTE   W92
 BYTE   W03
 BYTE   EOT
 BYTE   W01
//  #06 //095   ----------------------------------------
 BYTE   TIE  Bn1
 BYTE   W96
//  #06 //096   ----------------------------------------
 BYTE   W92
 BYTE   W03
 BYTE   EOT
 BYTE   W01
//  #06 //097   ----------------------------------------
 BYTE   TIE  Gs1
 BYTE   W96
//  #06 //098   ----------------------------------------
 BYTE   W44
 BYTE   W03
 BYTE   EOT
 BYTE   W48
 BYTE   W01
//  #06 //099   ----------------------------------------
 BYTE   W96
//  #06 //100   ----------------------------------------
 BYTE   W96
//  #06 //101   ----------------------------------------
 BYTE   TIE  Ds2  v127
 BYTE   W96
//  #06 //102   ----------------------------------------
 BYTE   W92
 BYTE   W03
 BYTE   EOT
 BYTE   W01
//  #06 //103   ----------------------------------------
 BYTE   TIE  Bn1
 BYTE   W96
//  #06 //104   ----------------------------------------
 BYTE   W92
 BYTE   W03
 BYTE   EOT
 BYTE   W01
//  #06 //105   ----------------------------------------
 BYTE   TIE  Gs1
 BYTE   W96
//  #06 //106   ----------------------------------------
 BYTE   W44
 BYTE   W03
 BYTE   EOT
 BYTE   W48
 BYTE   W01
//  #06 //107   ----------------------------------------
 BYTE   W96
//  #06 //108   ----------------------------------------
 BYTE   W96
//  #06 //109   ----------------------------------------
 BYTE   PATT
  POIN2 Label_010062E5
//  #06 //110   ----------------------------------------
 BYTE   PATT
  POIN2 Label_010062FE
//  #06 //111   ----------------------------------------
 BYTE   PATT
  POIN2 Label_010062E5
//  #06 //112   ----------------------------------------
 BYTE   PATT
  POIN2 Label_010062FE
//  #06 //113   ----------------------------------------
 BYTE   PATT
  POIN2 Label_010062E5
//  #06 //114   ----------------------------------------
 BYTE   PATT
  POIN2 Label_010062FE
//  #06 //115   ----------------------------------------
 BYTE   PATT
  POIN2 Label_010062E5
//  #06 //116   ----------------------------------------
 BYTE   PATT
  POIN2 Label_010062FE
//  #06 //117   ----------------------------------------
 BYTE   PATT
  POIN2 Label_01005EBB
//  #06 //118   ----------------------------------------
 BYTE   PATT
  POIN2 Label_01005EC9
//  #06 //119   ----------------------------------------
 BYTE   PATT
  POIN2 Label_01005ED5
//  #06 //120   ----------------------------------------
 BYTE   PATT
  POIN2 Label_01005EDF
//  #06 //121   ----------------------------------------
 BYTE   PATT
  POIN2 Label_01005EEA
//  #06 //122   ----------------------------------------
 BYTE   PATT
  POIN2 Label_01005EF7
//  #06 //123   ----------------------------------------
 BYTE   PATT
  POIN2 Label_01005F04
//  #06 //124   ----------------------------------------
 BYTE   PATT
  POIN2 Label_01005F11
//  #06 //125   ----------------------------------------
 BYTE   PATT
  POIN2 Label_01005F1B
//  #06 //126   ----------------------------------------
 BYTE   PATT
  POIN2 Label_01005EC9
//  #06 //127   ----------------------------------------
 BYTE   PATT
  POIN2 Label_0100636C
//  #06 //128   ----------------------------------------
 BYTE   PATT
  POIN2 Label_01006379
//  #06 //129   ----------------------------------------
 BYTE   PATT
  POIN2 Label_01006385
//  #06 //130   ----------------------------------------
 BYTE   W96
//  #06 //131   ----------------------------------------
 BYTE   W96
//  #06 //132   ----------------------------------------
 BYTE   PATT
  POIN2 Label_0100638E
//  #06 //133   ----------------------------------------
 BYTE   PATT
  POIN2 Label_01006395
//  #06 //134   ----------------------------------------
 BYTE   PATT
  POIN2 Label_01006395
//  #06 //135   ----------------------------------------
 BYTE   PATT
  POIN2 Label_01006395
//  #06 //136   ----------------------------------------
 BYTE   PATT
  POIN2 Label_01006395
//  #06 //137   ----------------------------------------
 BYTE   PATT
  POIN2 Label_01006395
//  #06 //138   ----------------------------------------
 BYTE   PATT
  POIN2 Label_01006395
//  #06 //139   ----------------------------------------
 BYTE   PATT
  POIN2 Label_01006395
//  #06 //140   ----------------------------------------
 BYTE   PATT
  POIN2 Label_01006395
//  #06 //141   ----------------------------------------
 BYTE   PATT
  POIN2 Label_010063C5
//  #06 //142   ----------------------------------------
 BYTE   PATT
  POIN2 Label_010063C5
//  #06 //143   ----------------------------------------
 BYTE   PATT
  POIN2 Label_010063C5
//  #06 //144   ----------------------------------------
 BYTE   PATT
  POIN2 Label_010063C5
//  #06 //145   ----------------------------------------
 BYTE   PATT
  POIN2 Label_010063C5
//  #06 //146   ----------------------------------------
 BYTE   PATT
  POIN2 Label_010063C5
//  #06 //147   ----------------------------------------
 BYTE   PATT
  POIN2 Label_010063C5
//  #06 //148   ----------------------------------------
 BYTE   PATT
  POIN2 Label_010063C5
//  #06 //149   ----------------------------------------
 BYTE   PATT
  POIN2 Label_010063F5
//  #06 //150   ----------------------------------------
 BYTE   PATT
  POIN2 Label_01006401
//  #06 //151   ----------------------------------------
 BYTE   PATT
  POIN2 Label_0100640C
//  #06 //152   ----------------------------------------
 BYTE   PATT
  POIN2 Label_0100640C
//  #06 //153   ----------------------------------------
 BYTE   PATT
  POIN2 Label_0100641C
//  #06 //154   ----------------------------------------
 BYTE   PATT
  POIN2 Label_0100641C
//  #06 //155   ----------------------------------------
 BYTE   PATT
  POIN2 Label_0100641C
//  #06 //156   ----------------------------------------
 BYTE   PATT
  POIN2 Label_0100641C
//  #06 //157   ----------------------------------------
 BYTE   PATT
  POIN2 Label_01006436
//  #06 //158   ----------------------------------------
 BYTE   PATT
  POIN2 Label_01006436
//  #06 //159   ----------------------------------------
 BYTE   PATT
  POIN2 Label_01006446
//  #06 //160   ----------------------------------------
 BYTE   PATT
  POIN2 Label_01006454
//  #06 //161   ----------------------------------------
 BYTE   PATT
  POIN2 Label_01006462
//  #06 //162   ----------------------------------------
 BYTE   PATT
  POIN2 Label_01006462
//  #06 //163   ----------------------------------------
 BYTE   PATT
  POIN2 Label_01006462
//  #06 //164   ----------------------------------------
 BYTE   PATT
  POIN2 Label_01006462
//  #06 //165   ----------------------------------------
 BYTE   PATT
  POIN2 Label_01006478
//  #06 //166   ----------------------------------------
 BYTE   PATT
  POIN2 Label_01006478
//  #06 //167   ----------------------------------------
 BYTE   PATT
  POIN2 Label_01006478
//  #06 //168   ----------------------------------------
 BYTE   PATT
  POIN2 Label_01006478
//  #06 //169   ----------------------------------------
 BYTE   N05  Ds2  v096
 BYTE   W12
 BYTE   Ds2
 BYTE   W12
 BYTE   N11  As2  v127
 BYTE   W12
 BYTE   N05  Ds2  v094
 BYTE   W12
 BYTE   N11  Fs2  v127
 BYTE   W12
 BYTE   Gs2  v090
 BYTE   W12
 BYTE   Ds2  v087
 BYTE   W12
 BYTE   Cs3  v085
 BYTE   W12
//  #06 //170   ----------------------------------------
 BYTE   PATT
  POIN2 Label_010064AE
//  #06 //171   ----------------------------------------
 BYTE   PATT
  POIN2 Label_01005D9B
//  #06 //172   ----------------------------------------
 BYTE   PATT
  POIN2 Label_01006271
 BYTE   FINE

//**************** Track 7 (Midi-Chn.6) ****************//

FierceAsFire_007:
//  #07 //000   ----------------------------------------
 BYTE   KEYSH   FierceAsFire_key+0
 BYTE   VOICE   38
 BYTE   VOL   32*FierceAsFire_mvl/mxv
 BYTE   W12
Label_018FBB77:
 BYTE   W96
//  #07 //001   ----------------------------------------
 BYTE   W96
//  #07 //002   ----------------------------------------
 BYTE   W96
//  #07 //003   ----------------------------------------
 BYTE   W96
//  #07 //004   ----------------------------------------
 BYTE   W96
//  #07 //005   ----------------------------------------
 BYTE   W96
//  #07 //006   ----------------------------------------
 BYTE   W96
//  #07 //007   ----------------------------------------
 BYTE   W96
//  #07 //008   ----------------------------------------
 BYTE   TIE  Ds1  v120
 BYTE   W96
//  #07 //009   ----------------------------------------
 BYTE   W92
 BYTE   W03
 BYTE   EOT
 BYTE   W01
//  #07 //010   ----------------------------------------
 BYTE   TIE  Bn0
 BYTE   W96
//  #07 //011   ----------------------------------------
 BYTE   W92
 BYTE   W03
 BYTE   EOT
 BYTE   W01
//  #07 //012   ----------------------------------------
 BYTE   TIE  Gs0
 BYTE   W96
//  #07 //013   ----------------------------------------
 BYTE   W44
 BYTE   W03
 BYTE   EOT
 BYTE   W48
 BYTE   W01
//  #07 //014   ----------------------------------------
 BYTE   W96
//  #07 //015   ----------------------------------------
 BYTE   W96
//  #07 //016   ----------------------------------------
 BYTE   TIE  Ds1  v127
 BYTE   W96
//  #07 //017   ----------------------------------------
 BYTE   W92
 BYTE   W03
 BYTE   EOT
 BYTE   W01
//  #07 //018   ----------------------------------------
 BYTE   TIE  Bn0
 BYTE   W96
//  #07 //019   ----------------------------------------
 BYTE   W92
 BYTE   W03
 BYTE   EOT
 BYTE   W01
//  #07 //020   ----------------------------------------
 BYTE   TIE  Gs0
 BYTE   W96
//  #07 //021   ----------------------------------------
 BYTE   W44
 BYTE   W03
 BYTE   EOT
 BYTE   W48
 BYTE   W01
//  #07 //022   ----------------------------------------
 BYTE   W96
//  #07 //023   ----------------------------------------
 BYTE   W96
//  #07 //024   ----------------------------------------
Label_018FBBB1:
 BYTE   N32  Ds1  v127  gtp3
 BYTE   W48
 BYTE   Ds1
 BYTE   W48
 BYTE   PEND 
//  #07 //025   ----------------------------------------
 BYTE   PATT
  POIN2 Label_018FBBB1
//  #07 //026   ----------------------------------------
 BYTE   PATT
  POIN2 Label_018FBBB1
//  #07 //027   ----------------------------------------
 BYTE   PATT
  POIN2 Label_018FBBB1
//  #07 //028   ----------------------------------------
 BYTE   PATT
  POIN2 Label_018FBBB1
//  #07 //029   ----------------------------------------
 BYTE   PATT
  POIN2 Label_018FBBB1
//  #07 //030   ----------------------------------------
 BYTE   PATT
  POIN2 Label_018FBBB1
//  #07 //031   ----------------------------------------
 BYTE   PATT
  POIN2 Label_018FBBB1
//  #07 //032   ----------------------------------------
Label_018FBBDC:
 BYTE   N16  Bn0  v127
 BYTE   W24
 BYTE   TIE
 BYTE   W72
 BYTE   PEND 
//  #07 //033   ----------------------------------------
 BYTE   W92
 BYTE   W03
 BYTE   EOT
 BYTE   W01
//  #07 //034   ----------------------------------------
 BYTE   TIE  Cs1
 BYTE   W96
//  #07 //035   ----------------------------------------
 BYTE   W92
 BYTE   W03
 BYTE   EOT
 BYTE   W01
//  #07 //036   ----------------------------------------
 BYTE   TIE  Ds1
 BYTE   W96
//  #07 //037   ----------------------------------------
 BYTE   W92
 BYTE   W03
 BYTE   EOT
 BYTE   W01
//  #07 //038   ----------------------------------------
 BYTE   TIE  Cn1
 BYTE   W96
//  #07 //039   ----------------------------------------
 BYTE   W92
 BYTE   W03
 BYTE   EOT
 BYTE   W01
//  #07 //040   ----------------------------------------
 BYTE   TIE  Bn0
 BYTE   W96
//  #07 //041   ----------------------------------------
 BYTE   W92
 BYTE   W03
 BYTE   EOT
 BYTE   W01
//  #07 //042   ----------------------------------------
 BYTE   TIE  En1
 BYTE   W96
//  #07 //043   ----------------------------------------
 BYTE   W92
 BYTE   W03
 BYTE   EOT
 BYTE   W01
//  #07 //044   ----------------------------------------
 BYTE   TIE  Ds1
 BYTE   W96
//  #07 //045   ----------------------------------------
 BYTE   W96
//  #07 //046   ----------------------------------------
 BYTE   W96
//  #07 //047   ----------------------------------------
 BYTE   W92
 BYTE   W03
 BYTE   EOT
 BYTE   W01
//  #07 //048   ----------------------------------------
Label_018FBC13:
 BYTE   N16  Gs0  v127
 BYTE   W24
 BYTE   N68  Gs0  v127  gtp3
 BYTE   W72
 BYTE   PEND 
//  #07 //049   ----------------------------------------
 BYTE   PATT
  POIN2 Label_018FBC13
//  #07 //050   ----------------------------------------
 BYTE   PATT
  POIN2 Label_018FBC13
//  #07 //051   ----------------------------------------
 BYTE   PATT
  POIN2 Label_018FBC13
//  #07 //052   ----------------------------------------
 BYTE   PATT
  POIN2 Label_018FBC13
//  #07 //053   ----------------------------------------
 BYTE   PATT
  POIN2 Label_018FBC13
//  #07 //054   ----------------------------------------
 BYTE   PATT
  POIN2 Label_018FBC13
//  #07 //055   ----------------------------------------
 BYTE   PATT
  POIN2 Label_018FBC13
//  #07 //056   ----------------------------------------
Label_018FBC40:
 BYTE   N16  As0  v127
 BYTE   W24
 BYTE   N44  As0  v127  gtp3
 BYTE   W72
 BYTE   PEND 
//  #07 //057   ----------------------------------------
 BYTE   PATT
  POIN2 Label_018FBC40
//  #07 //058   ----------------------------------------
 BYTE   PATT
  POIN2 Label_018FBC40
//  #07 //059   ----------------------------------------
 BYTE   PATT
  POIN2 Label_018FBC40
//  #07 //060   ----------------------------------------
 BYTE   PATT
  POIN2 Label_018FBC40
//  #07 //061   ----------------------------------------
 BYTE   PATT
  POIN2 Label_018FBC40
//  #07 //062   ----------------------------------------
 BYTE   PATT
  POIN2 Label_018FBC40
//  #07 //063   ----------------------------------------
 BYTE   PATT
  POIN2 Label_018FBC40
//  #07 //064   ----------------------------------------
Label_018FBC6D:
 BYTE   N17  Fs0  v127
 BYTE   W48
 BYTE   N32  Fs0  v096  gtp3
 BYTE   W48
 BYTE   PEND 
//  #07 //065   ----------------------------------------
Label_018FBC77:
 BYTE   N32  Fs0  v096  gtp3
 BYTE   W48
 BYTE   Fs0
 BYTE   W48
 BYTE   PEND 
//  #07 //066   ----------------------------------------
Label_018FBC7F:
 BYTE   N32  Gs0  v096  gtp3
 BYTE   W48
 BYTE   Gs0
 BYTE   W48
 BYTE   PEND 
//  #07 //067   ----------------------------------------
 BYTE   PATT
  POIN2 Label_018FBC7F
//  #07 //068   ----------------------------------------
Label_018FBC8C:
 BYTE   N32  As0  v096  gtp3
 BYTE   W48
 BYTE   As0
 BYTE   W48
 BYTE   PEND 
//  #07 //069   ----------------------------------------
 BYTE   PATT
  POIN2 Label_018FBC8C
//  #07 //070   ----------------------------------------
 BYTE   PATT
  POIN2 Label_018FBC8C
//  #07 //071   ----------------------------------------
 BYTE   PATT
  POIN2 Label_018FBC8C
//  #07 //072   ----------------------------------------
Label_018FBCA3:
 BYTE   N32  Bn0  v096  gtp3
 BYTE   W48
 BYTE   Bn0
 BYTE   W48
 BYTE   PEND 
//  #07 //073   ----------------------------------------
 BYTE   PATT
  POIN2 Label_018FBCA3
//  #07 //074   ----------------------------------------
Label_018FBCB0:
 BYTE   N32  Cs1  v096  gtp3
 BYTE   W48
 BYTE   Cs1  v103
 BYTE   W48
 BYTE   PEND 
//  #07 //075   ----------------------------------------
Label_018FBCB9:
 BYTE   N32  Cs1  v111  gtp3
 BYTE   W48
 BYTE   Cs1  v118
 BYTE   W48
 BYTE   PEND 
//  #07 //076   ----------------------------------------
Label_018FBCC2:
 BYTE   N16  Ds1  v127
 BYTE   W24
 BYTE   N23
 BYTE   W72
 BYTE   PEND 
//  #07 //077   ----------------------------------------
 BYTE   PATT
  POIN2 Label_018FBCC2
//  #07 //078   ----------------------------------------
 BYTE   PATT
  POIN2 Label_018FBCC2
//  #07 //079   ----------------------------------------
 BYTE   PATT
  POIN2 Label_018FBCC2
//  #07 //080   ----------------------------------------
Label_018FBCD8:
 BYTE   N16  Ds1  v127
 BYTE   W24
 BYTE   Ds1
 BYTE   W72
 BYTE   PEND 
//  #07 //081   ----------------------------------------
 BYTE   PATT
  POIN2 Label_018FBCD8
//  #07 //082   ----------------------------------------
 BYTE   PATT
  POIN2 Label_018FBCD8
//  #07 //083   ----------------------------------------
 BYTE   PATT
  POIN2 Label_018FBCD8
//  #07 //084   ----------------------------------------
 BYTE   GoTo
  POIN2 Label_018FBB77
//  #07 //085   ----------------------------------------
 BYTE   W96
//  #07 //086   ----------------------------------------
 BYTE   W96
//  #07 //087   ----------------------------------------
 BYTE   W96
//  #07 //088   ----------------------------------------
 BYTE   W96
//  #07 //089   ----------------------------------------
 BYTE   W96
//  #07 //090   ----------------------------------------
 BYTE   W96
//  #07 //091   ----------------------------------------
 BYTE   W96
//  #07 //092   ----------------------------------------
 BYTE   W96
//  #07 //093   ----------------------------------------
 BYTE   TIE  Ds1  v120
 BYTE   W96
//  #07 //094   ----------------------------------------
 BYTE   W92
 BYTE   W03
 BYTE   EOT
 BYTE   W01
//  #07 //095   ----------------------------------------
 BYTE   TIE  Bn0
 BYTE   W96
//  #07 //096   ----------------------------------------
 BYTE   W92
 BYTE   W03
 BYTE   EOT
 BYTE   W01
//  #07 //097   ----------------------------------------
 BYTE   TIE  Gs0
 BYTE   W96
//  #07 //098   ----------------------------------------
 BYTE   W44
 BYTE   W03
 BYTE   EOT
 BYTE   W48
 BYTE   W01
//  #07 //099   ----------------------------------------
 BYTE   W96
//  #07 //100   ----------------------------------------
 BYTE   W96
//  #07 //101   ----------------------------------------
 BYTE   TIE  Ds1  v127
 BYTE   W96
//  #07 //102   ----------------------------------------
 BYTE   W92
 BYTE   W03
 BYTE   EOT
 BYTE   W01
//  #07 //103   ----------------------------------------
 BYTE   TIE  Bn0
 BYTE   W96
//  #07 //104   ----------------------------------------
 BYTE   W92
 BYTE   W03
 BYTE   EOT
 BYTE   W01
//  #07 //105   ----------------------------------------
 BYTE   TIE  Gs0
 BYTE   W96
//  #07 //106   ----------------------------------------
 BYTE   W44
 BYTE   W03
 BYTE   EOT
 BYTE   W48
 BYTE   W01
//  #07 //107   ----------------------------------------
 BYTE   W96
//  #07 //108   ----------------------------------------
 BYTE   W96
//  #07 //109   ----------------------------------------
 BYTE   PATT
  POIN2 Label_018FBBB1
//  #07 //110   ----------------------------------------
 BYTE   PATT
  POIN2 Label_018FBBB1
//  #07 //111   ----------------------------------------
 BYTE   PATT
  POIN2 Label_018FBBB1
//  #07 //112   ----------------------------------------
 BYTE   PATT
  POIN2 Label_018FBBB1
//  #07 //113   ----------------------------------------
 BYTE   PATT
  POIN2 Label_018FBBB1
//  #07 //114   ----------------------------------------
 BYTE   PATT
  POIN2 Label_018FBBB1
//  #07 //115   ----------------------------------------
 BYTE   PATT
  POIN2 Label_018FBBB1
//  #07 //116   ----------------------------------------
 BYTE   PATT
  POIN2 Label_018FBBB1
//  #07 //117   ----------------------------------------
 BYTE   PATT
  POIN2 Label_018FBBDC
//  #07 //118   ----------------------------------------
 BYTE   W92
 BYTE   W03
 BYTE   EOT
 BYTE   Bn0
 BYTE   W01
//  #07 //119   ----------------------------------------
 BYTE   TIE  Cs1  v127
 BYTE   W96
//  #07 //120   ----------------------------------------
 BYTE   W92
 BYTE   W03
 BYTE   EOT
 BYTE   W01
//  #07 //121   ----------------------------------------
 BYTE   TIE  Ds1
 BYTE   W96
//  #07 //122   ----------------------------------------
 BYTE   W92
 BYTE   W03
 BYTE   EOT
 BYTE   W01
//  #07 //123   ----------------------------------------
 BYTE   TIE  Cn1
 BYTE   W96
//  #07 //124   ----------------------------------------
 BYTE   W92
 BYTE   W03
 BYTE   EOT
 BYTE   W01
//  #07 //125   ----------------------------------------
 BYTE   TIE  Bn0
 BYTE   W96
//  #07 //126   ----------------------------------------
 BYTE   W92
 BYTE   W03
 BYTE   EOT
 BYTE   W01
//  #07 //127   ----------------------------------------
 BYTE   TIE  En1
 BYTE   W96
//  #07 //128   ----------------------------------------
 BYTE   W92
 BYTE   W03
 BYTE   EOT
 BYTE   W01
//  #07 //129   ----------------------------------------
 BYTE   TIE  Ds1
 BYTE   W96
//  #07 //130   ----------------------------------------
 BYTE   W96
//  #07 //131   ----------------------------------------
 BYTE   W96
//  #07 //132   ----------------------------------------
 BYTE   W92
 BYTE   W03
 BYTE   EOT
 BYTE   W01
//  #07 //133   ----------------------------------------
 BYTE   PATT
  POIN2 Label_018FBC13
//  #07 //134   ----------------------------------------
 BYTE   PATT
  POIN2 Label_018FBC13
//  #07 //135   ----------------------------------------
 BYTE   PATT
  POIN2 Label_018FBC13
//  #07 //136   ----------------------------------------
 BYTE   PATT
  POIN2 Label_018FBC13
//  #07 //137   ----------------------------------------
 BYTE   PATT
  POIN2 Label_018FBC13
//  #07 //138   ----------------------------------------
 BYTE   PATT
  POIN2 Label_018FBC13
//  #07 //139   ----------------------------------------
 BYTE   PATT
  POIN2 Label_018FBC13
//  #07 //140   ----------------------------------------
 BYTE   PATT
  POIN2 Label_018FBC13
//  #07 //141   ----------------------------------------
 BYTE   PATT
  POIN2 Label_018FBC40
//  #07 //142   ----------------------------------------
 BYTE   PATT
  POIN2 Label_018FBC40
//  #07 //143   ----------------------------------------
 BYTE   PATT
  POIN2 Label_018FBC40
//  #07 //144   ----------------------------------------
 BYTE   PATT
  POIN2 Label_018FBC40
//  #07 //145   ----------------------------------------
 BYTE   PATT
  POIN2 Label_018FBC40
//  #07 //146   ----------------------------------------
 BYTE   PATT
  POIN2 Label_018FBC40
//  #07 //147   ----------------------------------------
 BYTE   PATT
  POIN2 Label_018FBC40
//  #07 //148   ----------------------------------------
 BYTE   PATT
  POIN2 Label_018FBC40
//  #07 //149   ----------------------------------------
 BYTE   PATT
  POIN2 Label_018FBC6D
//  #07 //150   ----------------------------------------
 BYTE   PATT
  POIN2 Label_018FBC77
//  #07 //151   ----------------------------------------
 BYTE   PATT
  POIN2 Label_018FBC7F
//  #07 //152   ----------------------------------------
 BYTE   PATT
  POIN2 Label_018FBC7F
//  #07 //153   ----------------------------------------
 BYTE   PATT
  POIN2 Label_018FBC8C
//  #07 //154   ----------------------------------------
 BYTE   PATT
  POIN2 Label_018FBC8C
//  #07 //155   ----------------------------------------
 BYTE   PATT
  POIN2 Label_018FBC8C
//  #07 //156   ----------------------------------------
 BYTE   PATT
  POIN2 Label_018FBC8C
//  #07 //157   ----------------------------------------
 BYTE   PATT
  POIN2 Label_018FBCA3
//  #07 //158   ----------------------------------------
 BYTE   PATT
  POIN2 Label_018FBCA3
//  #07 //159   ----------------------------------------
 BYTE   PATT
  POIN2 Label_018FBCB0
//  #07 //160   ----------------------------------------
 BYTE   PATT
  POIN2 Label_018FBCB9
//  #07 //161   ----------------------------------------
 BYTE   PATT
  POIN2 Label_018FBCC2
//  #07 //162   ----------------------------------------
 BYTE   PATT
  POIN2 Label_018FBCC2
//  #07 //163   ----------------------------------------
 BYTE   PATT
  POIN2 Label_018FBCC2
//  #07 //164   ----------------------------------------
 BYTE   PATT
  POIN2 Label_018FBCC2
//  #07 //165   ----------------------------------------
 BYTE   PATT
  POIN2 Label_018FBCD8
//  #07 //166   ----------------------------------------
 BYTE   PATT
  POIN2 Label_018FBCD8
//  #07 //167   ----------------------------------------
 BYTE   PATT
  POIN2 Label_018FBCD8
//  #07 //168   ----------------------------------------
 BYTE   PATT
  POIN2 Label_018FBCD8
//  #07 //169   ----------------------------------------
 BYTE   W96
//  #07 //170   ----------------------------------------
 BYTE   W96
//  #07 //171   ----------------------------------------
 BYTE   W96
//  #07 //172   ----------------------------------------
 BYTE   W92
 BYTE   W03
 BYTE   FINE

//**************** Track 8 (Midi-Chn.7) ****************//

FierceAsFire_008:
//  #08 //000   ----------------------------------------
 BYTE   KEYSH   FierceAsFire_key+0
 BYTE   VOICE   47
 BYTE   VOL   32*FierceAsFire_mvl/mxv
 BYTE   N05  Ds1  v080
 BYTE   W06
 BYTE   Ds1
 BYTE   W06
Label_0100667C:
 BYTE   N44  Ds1  v120  gtp3
 BYTE   As1
 BYTE   W72
 BYTE   N23  Ds1  v096
 BYTE   N23  As1
 BYTE   W24
//  #08 //001   ----------------------------------------
Label_01006688:
 BYTE   N92  Ds1  v096  gtp3
 BYTE   As1
 BYTE   W96
 BYTE   PEND 
//  #08 //002   ----------------------------------------
Label_0100668F:
 BYTE   N44  Ds1  v096  gtp3
 BYTE   As1
 BYTE   W72
 BYTE   N23  Ds1
 BYTE   N23  As1
 BYTE   W24
 BYTE   PEND 
//  #08 //003   ----------------------------------------
 BYTE   PATT
  POIN2 Label_01006688
//  #08 //004   ----------------------------------------
 BYTE   PATT
  POIN2 Label_0100668F
//  #08 //005   ----------------------------------------
 BYTE   PATT
  POIN2 Label_01006688
//  #08 //006   ----------------------------------------
 BYTE   PATT
  POIN2 Label_0100668F
//  #08 //007   ----------------------------------------
 BYTE   PATT
  POIN2 Label_01006688
//  #08 //008   ----------------------------------------
Label_010066B4:
 BYTE   N44  Ds1  v120  gtp3
 BYTE   As1
 BYTE   W72
 BYTE   N23  Ds1
 BYTE   N23  As1
 BYTE   W24
 BYTE   PEND 
//  #08 //009   ----------------------------------------
Label_010066C0:
 BYTE   N92  Ds1  v120  gtp3
 BYTE   As1
 BYTE   W96
 BYTE   PEND 
//  #08 //010   ----------------------------------------
 BYTE   PATT
  POIN2 Label_010066B4
//  #08 //011   ----------------------------------------
 BYTE   PATT
  POIN2 Label_010066C0
//  #08 //012   ----------------------------------------
 BYTE   PATT
  POIN2 Label_010066B4
//  #08 //013   ----------------------------------------
 BYTE   PATT
  POIN2 Label_010066C0
//  #08 //014   ----------------------------------------
 BYTE   PATT
  POIN2 Label_010066B4
//  #08 //015   ----------------------------------------
 BYTE   PATT
  POIN2 Label_010066C0
//  #08 //016   ----------------------------------------
 BYTE   PATT
  POIN2 Label_010066B4
//  #08 //017   ----------------------------------------
 BYTE   PATT
  POIN2 Label_010066C0
//  #08 //018   ----------------------------------------
 BYTE   PATT
  POIN2 Label_010066B4
//  #08 //019   ----------------------------------------
 BYTE   PATT
  POIN2 Label_010066C0
//  #08 //020   ----------------------------------------
 BYTE   PATT
  POIN2 Label_010066B4
//  #08 //021   ----------------------------------------
 BYTE   PATT
  POIN2 Label_010066C0
//  #08 //022   ----------------------------------------
 BYTE   PATT
  POIN2 Label_010066B4
//  #08 //023   ----------------------------------------
 BYTE   PATT
  POIN2 Label_010066C0
//  #08 //024   ----------------------------------------
Label_0100670D:
 BYTE   N44  Ds1  v127  gtp3
 BYTE   As1
 BYTE   W72
 BYTE   N23  Ds1
 BYTE   N23  As1
 BYTE   W24
 BYTE   PEND 
//  #08 //025   ----------------------------------------
Label_01006719:
 BYTE   N92  Ds1  v127  gtp3
 BYTE   As1
 BYTE   W96
 BYTE   PEND 
//  #08 //026   ----------------------------------------
 BYTE   PATT
  POIN2 Label_0100670D
//  #08 //027   ----------------------------------------
 BYTE   PATT
  POIN2 Label_01006719
//  #08 //028   ----------------------------------------
 BYTE   PATT
  POIN2 Label_0100670D
//  #08 //029   ----------------------------------------
 BYTE   PATT
  POIN2 Label_01006719
//  #08 //030   ----------------------------------------
 BYTE   PATT
  POIN2 Label_0100670D
//  #08 //031   ----------------------------------------
 BYTE   PATT
  POIN2 Label_01006719
//  #08 //032   ----------------------------------------
 BYTE   PATT
  POIN2 Label_01006719
//  #08 //033   ----------------------------------------
 BYTE   PATT
  POIN2 Label_01006719
//  #08 //034   ----------------------------------------
 BYTE   PATT
  POIN2 Label_01006719
//  #08 //035   ----------------------------------------
Label_0100674D:
 BYTE   W48
 BYTE   N44  Ds1  v127  gtp3
 BYTE   As1
 BYTE   W48
 BYTE   PEND 
//  #08 //036   ----------------------------------------
 BYTE   PATT
  POIN2 Label_01006719
//  #08 //037   ----------------------------------------
 BYTE   PATT
  POIN2 Label_01006719
//  #08 //038   ----------------------------------------
 BYTE   PATT
  POIN2 Label_01006719
//  #08 //039   ----------------------------------------
Label_01006764:
 BYTE   N44  Ds1  v127  gtp3
 BYTE   As1
 BYTE   W48
 BYTE   Ds1
 BYTE   N44  As1  v127  gtp3
 BYTE   W48
 BYTE   PEND 
//  #08 //040   ----------------------------------------
 BYTE   PATT
  POIN2 Label_01006719
//  #08 //041   ----------------------------------------
 BYTE   PATT
  POIN2 Label_01006719
//  #08 //042   ----------------------------------------
 BYTE   PATT
  POIN2 Label_01006719
//  #08 //043   ----------------------------------------
 BYTE   PATT
  POIN2 Label_0100674D
//  #08 //044   ----------------------------------------
 BYTE   PATT
  POIN2 Label_01006719
//  #08 //045   ----------------------------------------
 BYTE   PATT
  POIN2 Label_01006719
//  #08 //046   ----------------------------------------
 BYTE   PATT
  POIN2 Label_01006719
//  #08 //047   ----------------------------------------
 BYTE   PATT
  POIN2 Label_01006764
//  #08 //048   ----------------------------------------
Label_01006799:
 BYTE   N23  Ds1  v127
 BYTE   N23  Gs1
 BYTE   W24
 BYTE   Ds1
 BYTE   N23  Gs1
 BYTE   W60
 BYTE   N11  Ds1  v112
 BYTE   N11  Gs1
 BYTE   W12
 BYTE   PEND 
//  #08 //049   ----------------------------------------
 BYTE   PATT
  POIN2 Label_01006799
//  #08 //050   ----------------------------------------
 BYTE   PATT
  POIN2 Label_01006799
//  #08 //051   ----------------------------------------
 BYTE   PATT
  POIN2 Label_01006799
//  #08 //052   ----------------------------------------
 BYTE   PATT
  POIN2 Label_01006799
//  #08 //053   ----------------------------------------
 BYTE   PATT
  POIN2 Label_01006799
//  #08 //054   ----------------------------------------
 BYTE   PATT
  POIN2 Label_01006799
//  #08 //055   ----------------------------------------
Label_010067C8:
 BYTE   N23  Ds1  v127
 BYTE   N23  Gs1
 BYTE   W24
 BYTE   Ds1
 BYTE   N23  Gs1
 BYTE   W60
 BYTE   N11  Fn1  v112
 BYTE   N11  As1
 BYTE   W12
 BYTE   PEND 
//  #08 //056   ----------------------------------------
Label_010067D9:
 BYTE   N23  Fn1  v127
 BYTE   N23  As1
 BYTE   W24
 BYTE   Fn1
 BYTE   N23  As1
 BYTE   W60
 BYTE   N11  Fn1  v112
 BYTE   N11  As1
 BYTE   W12
 BYTE   PEND 
//  #08 //057   ----------------------------------------
 BYTE   PATT
  POIN2 Label_010067D9
//  #08 //058   ----------------------------------------
 BYTE   PATT
  POIN2 Label_010067D9
//  #08 //059   ----------------------------------------
 BYTE   PATT
  POIN2 Label_010067D9
//  #08 //060   ----------------------------------------
 BYTE   PATT
  POIN2 Label_010067D9
//  #08 //061   ----------------------------------------
 BYTE   PATT
  POIN2 Label_010067D9
//  #08 //062   ----------------------------------------
 BYTE   PATT
  POIN2 Label_010067D9
//  #08 //063   ----------------------------------------
Label_01006808:
 BYTE   N23  Fn1  v127
 BYTE   N23  As1
 BYTE   W24
 BYTE   Fn1
 BYTE   N23  As1
 BYTE   W60
 BYTE   N11  Fs1  v124
 BYTE   N11  As1
 BYTE   W12
 BYTE   PEND 
//  #08 //064   ----------------------------------------
Label_01006819:
 BYTE   N23  Fs1  v127
 BYTE   N23  As1
 BYTE   W24
 BYTE   As1  v080
 BYTE   W24
 BYTE   As1
 BYTE   W24
 BYTE   As1
 BYTE   W24
 BYTE   PEND 
//  #08 //065   ----------------------------------------
Label_01006827:
 BYTE   N23  As1  v080
 BYTE   W24
 BYTE   As1
 BYTE   W24
 BYTE   As1
 BYTE   W24
 BYTE   As1
 BYTE   W24
 BYTE   PEND 
//  #08 //066   ----------------------------------------
Label_01006832:
 BYTE   N23  Ds1  v080
 BYTE   W24
 BYTE   Ds1
 BYTE   W24
 BYTE   Ds1
 BYTE   W24
 BYTE   Ds1
 BYTE   W24
 BYTE   PEND 
//  #08 //067   ----------------------------------------
 BYTE   PATT
  POIN2 Label_01006832
//  #08 //068   ----------------------------------------
 BYTE   PATT
  POIN2 Label_01006827
//  #08 //069   ----------------------------------------
 BYTE   PATT
  POIN2 Label_01006827
//  #08 //070   ----------------------------------------
 BYTE   PATT
  POIN2 Label_01006827
//  #08 //071   ----------------------------------------
 BYTE   PATT
  POIN2 Label_01006827
//  #08 //072   ----------------------------------------
Label_01006856:
 BYTE   N23  Ds1  v080
 BYTE   N23  As1
 BYTE   W24
 BYTE   Ds1
 BYTE   N23  As1
 BYTE   W24
 BYTE   Ds1
 BYTE   N23  As1
 BYTE   W24
 BYTE   Ds1
 BYTE   N23  As1
 BYTE   W24
 BYTE   PEND 
//  #08 //073   ----------------------------------------
 BYTE   PATT
  POIN2 Label_01006856
//  #08 //074   ----------------------------------------
Label_0100686E:
 BYTE   N23  Ds1  v080
 BYTE   N23  As1
 BYTE   W24
 BYTE   Ds1  v085
 BYTE   N23  As1
 BYTE   W24
 BYTE   Ds1  v091
 BYTE   N23  As1
 BYTE   W24
 BYTE   Ds1  v097
 BYTE   N23  As1
 BYTE   W24
 BYTE   PEND 
//  #08 //075   ----------------------------------------
Label_01006884:
 BYTE   N23  Ds1  v103
 BYTE   N23  As1
 BYTE   W24
 BYTE   Ds1  v108
 BYTE   N23  As1
 BYTE   W24
 BYTE   Ds1  v114
 BYTE   N23  As1
 BYTE   W24
 BYTE   Ds1  v120
 BYTE   N23  As1
 BYTE   W24
 BYTE   PEND 
//  #08 //076   ----------------------------------------
Label_0100689A:
 BYTE   N23  Ds1  v127
 BYTE   N23  As1
 BYTE   W24
 BYTE   Ds1
 BYTE   N23  As1
 BYTE   W60
 BYTE   N11  Ds1  v126
 BYTE   N11  As1
 BYTE   W12
 BYTE   PEND 
//  #08 //077   ----------------------------------------
 BYTE   PATT
  POIN2 Label_0100689A
//  #08 //078   ----------------------------------------
 BYTE   PATT
  POIN2 Label_0100689A
//  #08 //079   ----------------------------------------
 BYTE   PATT
  POIN2 Label_0100689A
//  #08 //080   ----------------------------------------
 BYTE   PATT
  POIN2 Label_0100689A
//  #08 //081   ----------------------------------------
 BYTE   PATT
  POIN2 Label_0100689A
//  #08 //082   ----------------------------------------
 BYTE   PATT
  POIN2 Label_0100689A
//  #08 //083   ----------------------------------------
 BYTE   PATT
  POIN2 Label_0100689A
//  #08 //084   ----------------------------------------
 BYTE   N44  Ds1  v127  gtp3
 BYTE   As1
 BYTE   GoTo
  POIN2 Label_0100667C
//  #08 //085   ----------------------------------------
 BYTE   W72
 BYTE   N23  Ds1  v096
 BYTE   N23  As1
 BYTE   W24
//  #08 //086   ----------------------------------------
 BYTE   PATT
  POIN2 Label_01006688
//  #08 //087   ----------------------------------------
 BYTE   PATT
  POIN2 Label_0100668F
//  #08 //088   ----------------------------------------
 BYTE   PATT
  POIN2 Label_01006688
//  #08 //089   ----------------------------------------
 BYTE   PATT
  POIN2 Label_0100668F
//  #08 //090   ----------------------------------------
 BYTE   PATT
  POIN2 Label_01006688
//  #08 //091   ----------------------------------------
 BYTE   PATT
  POIN2 Label_0100668F
//  #08 //092   ----------------------------------------
 BYTE   PATT
  POIN2 Label_01006688
//  #08 //093   ----------------------------------------
 BYTE   PATT
  POIN2 Label_010066B4
//  #08 //094   ----------------------------------------
 BYTE   PATT
  POIN2 Label_010066C0
//  #08 //095   ----------------------------------------
 BYTE   PATT
  POIN2 Label_010066B4
//  #08 //096   ----------------------------------------
 BYTE   PATT
  POIN2 Label_010066C0
//  #08 //097   ----------------------------------------
 BYTE   PATT
  POIN2 Label_010066B4
//  #08 //098   ----------------------------------------
 BYTE   PATT
  POIN2 Label_010066C0
//  #08 //099   ----------------------------------------
 BYTE   PATT
  POIN2 Label_010066B4
//  #08 //100   ----------------------------------------
 BYTE   PATT
  POIN2 Label_010066C0
//  #08 //101   ----------------------------------------
 BYTE   PATT
  POIN2 Label_010066B4
//  #08 //102   ----------------------------------------
 BYTE   PATT
  POIN2 Label_010066C0
//  #08 //103   ----------------------------------------
 BYTE   PATT
  POIN2 Label_010066B4
//  #08 //104   ----------------------------------------
 BYTE   PATT
  POIN2 Label_010066C0
//  #08 //105   ----------------------------------------
 BYTE   PATT
  POIN2 Label_010066B4
//  #08 //106   ----------------------------------------
 BYTE   PATT
  POIN2 Label_010066C0
//  #08 //107   ----------------------------------------
 BYTE   PATT
  POIN2 Label_010066B4
//  #08 //108   ----------------------------------------
 BYTE   PATT
  POIN2 Label_010066C0
//  #08 //109   ----------------------------------------
 BYTE   PATT
  POIN2 Label_0100670D
//  #08 //110   ----------------------------------------
 BYTE   PATT
  POIN2 Label_01006719
//  #08 //111   ----------------------------------------
 BYTE   PATT
  POIN2 Label_0100670D
//  #08 //112   ----------------------------------------
 BYTE   PATT
  POIN2 Label_01006719
//  #08 //113   ----------------------------------------
 BYTE   PATT
  POIN2 Label_0100670D
//  #08 //114   ----------------------------------------
 BYTE   PATT
  POIN2 Label_01006719
//  #08 //115   ----------------------------------------
 BYTE   PATT
  POIN2 Label_0100670D
//  #08 //116   ----------------------------------------
 BYTE   PATT
  POIN2 Label_01006719
//  #08 //117   ----------------------------------------
 BYTE   PATT
  POIN2 Label_01006719
//  #08 //118   ----------------------------------------
 BYTE   PATT
  POIN2 Label_01006719
//  #08 //119   ----------------------------------------
 BYTE   PATT
  POIN2 Label_01006719
//  #08 //120   ----------------------------------------
 BYTE   PATT
  POIN2 Label_0100674D
//  #08 //121   ----------------------------------------
 BYTE   PATT
  POIN2 Label_01006719
//  #08 //122   ----------------------------------------
 BYTE   PATT
  POIN2 Label_01006719
//  #08 //123   ----------------------------------------
 BYTE   PATT
  POIN2 Label_01006719
//  #08 //124   ----------------------------------------
 BYTE   PATT
  POIN2 Label_01006764
//  #08 //125   ----------------------------------------
 BYTE   PATT
  POIN2 Label_01006719
//  #08 //126   ----------------------------------------
 BYTE   PATT
  POIN2 Label_01006719
//  #08 //127   ----------------------------------------
 BYTE   PATT
  POIN2 Label_01006719
//  #08 //128   ----------------------------------------
 BYTE   PATT
  POIN2 Label_0100674D
//  #08 //129   ----------------------------------------
 BYTE   PATT
  POIN2 Label_01006719
//  #08 //130   ----------------------------------------
 BYTE   PATT
  POIN2 Label_01006719
//  #08 //131   ----------------------------------------
 BYTE   PATT
  POIN2 Label_01006719
//  #08 //132   ----------------------------------------
 BYTE   PATT
  POIN2 Label_01006764
//  #08 //133   ----------------------------------------
 BYTE   PATT
  POIN2 Label_01006799
//  #08 //134   ----------------------------------------
 BYTE   PATT
  POIN2 Label_01006799
//  #08 //135   ----------------------------------------
 BYTE   PATT
  POIN2 Label_01006799
//  #08 //136   ----------------------------------------
 BYTE   PATT
  POIN2 Label_01006799
//  #08 //137   ----------------------------------------
 BYTE   PATT
  POIN2 Label_01006799
//  #08 //138   ----------------------------------------
 BYTE   PATT
  POIN2 Label_01006799
//  #08 //139   ----------------------------------------
 BYTE   PATT
  POIN2 Label_01006799
//  #08 //140   ----------------------------------------
 BYTE   PATT
  POIN2 Label_010067C8
//  #08 //141   ----------------------------------------
 BYTE   PATT
  POIN2 Label_010067D9
//  #08 //142   ----------------------------------------
 BYTE   PATT
  POIN2 Label_010067D9
//  #08 //143   ----------------------------------------
 BYTE   PATT
  POIN2 Label_010067D9
//  #08 //144   ----------------------------------------
 BYTE   PATT
  POIN2 Label_010067D9
//  #08 //145   ----------------------------------------
 BYTE   PATT
  POIN2 Label_010067D9
//  #08 //146   ----------------------------------------
 BYTE   PATT
  POIN2 Label_010067D9
//  #08 //147   ----------------------------------------
 BYTE   PATT
  POIN2 Label_010067D9
//  #08 //148   ----------------------------------------
 BYTE   PATT
  POIN2 Label_01006808
//  #08 //149   ----------------------------------------
 BYTE   PATT
  POIN2 Label_01006819
//  #08 //150   ----------------------------------------
 BYTE   PATT
  POIN2 Label_01006827
//  #08 //151   ----------------------------------------
 BYTE   PATT
  POIN2 Label_01006832
//  #08 //152   ----------------------------------------
 BYTE   PATT
  POIN2 Label_01006832
//  #08 //153   ----------------------------------------
 BYTE   PATT
  POIN2 Label_01006827
//  #08 //154   ----------------------------------------
 BYTE   PATT
  POIN2 Label_01006827
//  #08 //155   ----------------------------------------
 BYTE   PATT
  POIN2 Label_01006827
//  #08 //156   ----------------------------------------
 BYTE   PATT
  POIN2 Label_01006827
//  #08 //157   ----------------------------------------
 BYTE   PATT
  POIN2 Label_01006856
//  #08 //158   ----------------------------------------
 BYTE   PATT
  POIN2 Label_01006856
//  #08 //159   ----------------------------------------
 BYTE   PATT
  POIN2 Label_0100686E
//  #08 //160   ----------------------------------------
 BYTE   PATT
  POIN2 Label_01006884
//  #08 //161   ----------------------------------------
 BYTE   PATT
  POIN2 Label_0100689A
//  #08 //162   ----------------------------------------
 BYTE   PATT
  POIN2 Label_0100689A
//  #08 //163   ----------------------------------------
 BYTE   PATT
  POIN2 Label_0100689A
//  #08 //164   ----------------------------------------
 BYTE   PATT
  POIN2 Label_0100689A
//  #08 //165   ----------------------------------------
 BYTE   PATT
  POIN2 Label_0100689A
//  #08 //166   ----------------------------------------
 BYTE   PATT
  POIN2 Label_0100689A
//  #08 //167   ----------------------------------------
 BYTE   PATT
  POIN2 Label_0100689A
//  #08 //168   ----------------------------------------
 BYTE   PATT
  POIN2 Label_0100689A
//  #08 //169   ----------------------------------------
 BYTE   N44  Ds1  v127  gtp3
 BYTE   As1
 BYTE   W72
 BYTE   N23  Ds1  v096
 BYTE   N23  As1
 BYTE   W24
//  #08 //170   ----------------------------------------
 BYTE   PATT
  POIN2 Label_01006688
//  #08 //171   ----------------------------------------
 BYTE   PATT
  POIN2 Label_0100668F
//  #08 //172   ----------------------------------------
 BYTE   N92  Ds1  v096  gtp3
 BYTE   As1
 BYTE   W92
 BYTE   W03
 BYTE   FINE

//**************** Track 9 (Midi-Chn.8) ****************//

FierceAsFire_009:
//  #09 //000   ----------------------------------------
 BYTE   KEYSH   FierceAsFire_key+0
 BYTE   VOICE   124
 BYTE   VOL   37*FierceAsFire_mvl/mxv
 BYTE   N05  Fn1  v033
 BYTE   W06
 BYTE   Fn1
 BYTE   W06
Label_01006AB8:
 BYTE   N44  Cn1  v120  gtp3
 BYTE   N23  Fn1  v049
 BYTE   W24
 BYTE   N11  Fn1  v033
 BYTE   W12
 BYTE   Gn1  v049
 BYTE   W24
 BYTE   Gn1  v033
 BYTE   W12
 BYTE   N23  Cn1  v096
 BYTE   N11  Fn1  v049
 BYTE   W12
//  #09 //001   ----------------------------------------
 BYTE   Fn1  v033
 BYTE   W12
Label_01006AD4:
 BYTE   N92  Cn1  v096  gtp3
 BYTE   N11  Fn1  v049
 BYTE   W12
 BYTE   Fn1  v033
 BYTE   W24
 BYTE   Fn1
 BYTE   W12
 BYTE   Gn1  v049
 BYTE   W12
 BYTE   Gn1  v033
 BYTE   W12
 BYTE   Gn1
 BYTE   W12
//  #09 //002   ----------------------------------------
 BYTE   Gn1
 BYTE   W12
 BYTE   PEND 
Label_01006AEC:
 BYTE   N44  Cn1  v096  gtp3
 BYTE   N23  Fn1  v049
 BYTE   W24
 BYTE   N11  Fn1  v033
 BYTE   W12
 BYTE   Gn1  v049
 BYTE   W24
 BYTE   Gn1  v033
 BYTE   W12
 BYTE   N23  Cn1  v096
 BYTE   N11  Fn1  v049
 BYTE   W12
//  #09 //003   ----------------------------------------
 BYTE   Fn1  v033
 BYTE   W12
 BYTE   PEND 
//  #09 //004   ----------------------------------------
 BYTE   PATT
  POIN2 Label_01006AD4
//  #09 //005   ----------------------------------------
 BYTE   PATT
  POIN2 Label_01006AEC
//  #09 //006   ----------------------------------------
 BYTE   PATT
  POIN2 Label_01006AD4
//  #09 //007   ----------------------------------------
 BYTE   PATT
  POIN2 Label_01006AEC
//  #09 //008   ----------------------------------------
Label_01006B1D:
 BYTE   N44  Cn1  v096  gtp3
 BYTE   N11  Fn1  v049
 BYTE   W12
 BYTE   Fn1  v033
 BYTE   W24
 BYTE   Fn1
 BYTE   W12
 BYTE   N23  Cn1  v064
 BYTE   N11  Gn1  v049
 BYTE   W12
 BYTE   Gn1  v040
 BYTE   W12
 BYTE   N23  Cn1  v072
 BYTE   N11  Gn1
 BYTE   W12
 BYTE   Gn1  v056
 BYTE   W12
 BYTE   PEND 
//  #09 //009   ----------------------------------------
Label_01006B3E:
 BYTE   N44  Cn1  v120  gtp3
 BYTE   N23  Fn1  v096
 BYTE   W24
 BYTE   N11  Fn1  v064
 BYTE   W12
 BYTE   Gn1  v096
 BYTE   W24
 BYTE   Gn1  v064
 BYTE   W12
 BYTE   N23  Cn1  v120
 BYTE   N11  Fn1  v096
 BYTE   W12
 BYTE   Fn1  v064
 BYTE   W12
 BYTE   PEND 
//  #09 //010   ----------------------------------------
Label_01006B5B:
 BYTE   N92  Cn1  v120  gtp3
 BYTE   N11  Fn1  v096
 BYTE   W12
 BYTE   Fn1  v064
 BYTE   W24
 BYTE   Fn1
 BYTE   W12
 BYTE   Gn1  v096
 BYTE   W12
 BYTE   Gn1  v064
 BYTE   W12
 BYTE   Gn1
 BYTE   W12
 BYTE   Gn1
 BYTE   W12
 BYTE   PEND 
//  #09 //011   ----------------------------------------
 BYTE   PATT
  POIN2 Label_01006B3E
//  #09 //012   ----------------------------------------
 BYTE   PATT
  POIN2 Label_01006B5B
//  #09 //013   ----------------------------------------
 BYTE   PATT
  POIN2 Label_01006B3E
//  #09 //014   ----------------------------------------
 BYTE   PATT
  POIN2 Label_01006B5B
//  #09 //015   ----------------------------------------
 BYTE   PATT
  POIN2 Label_01006B3E
//  #09 //016   ----------------------------------------
 BYTE   PATT
  POIN2 Label_01006B5B
//  #09 //017   ----------------------------------------
 BYTE   PATT
  POIN2 Label_01006B3E
//  #09 //018   ----------------------------------------
 BYTE   PATT
  POIN2 Label_01006B5B
//  #09 //019   ----------------------------------------
 BYTE   PATT
  POIN2 Label_01006B3E
//  #09 //020   ----------------------------------------
 BYTE   PATT
  POIN2 Label_01006B5B
//  #09 //021   ----------------------------------------
 BYTE   PATT
  POIN2 Label_01006B3E
//  #09 //022   ----------------------------------------
 BYTE   PATT
  POIN2 Label_01006B5B
//  #09 //023   ----------------------------------------
 BYTE   PATT
  POIN2 Label_01006B3E
//  #09 //024   ----------------------------------------
Label_01006BB4:
 BYTE   N92  Cn1  v120  gtp3
 BYTE   N11  Fn1  v096
 BYTE   W12
 BYTE   Fn1  v068
 BYTE   W24
 BYTE   Fn1  v076
 BYTE   W12
 BYTE   Gn1  v120
 BYTE   W12
 BYTE   Gn1  v084
 BYTE   W12
 BYTE   Gn1  v088
 BYTE   W12
 BYTE   Gn1  v092
 BYTE   W12
 BYTE   PEND 
//  #09 //025   ----------------------------------------
Label_01006BCF:
 BYTE   N44  Cn1  v127  gtp3
 BYTE   N23  Fn1
 BYTE   W24
 BYTE   N11  Fn1  v096
 BYTE   W12
 BYTE   Gn1  v127
 BYTE   W24
 BYTE   Gn1  v096
 BYTE   W12
 BYTE   N23  Cn1  v127
 BYTE   N11  Fn1
 BYTE   W12
 BYTE   Fn1  v096
 BYTE   W12
 BYTE   PEND 
//  #09 //026   ----------------------------------------
Label_01006BEA:
 BYTE   N92  Cn1  v127  gtp3
 BYTE   N11  Fn1
 BYTE   W12
 BYTE   Fn1  v096
 BYTE   W24
 BYTE   Fn1
 BYTE   W12
 BYTE   Gn1  v127
 BYTE   W12
 BYTE   Gn1  v096
 BYTE   W12
 BYTE   Gn1
 BYTE   W12
 BYTE   Gn1
 BYTE   W12
 BYTE   PEND 
//  #09 //027   ----------------------------------------
 BYTE   PATT
  POIN2 Label_01006BCF
//  #09 //028   ----------------------------------------
 BYTE   PATT
  POIN2 Label_01006BEA
//  #09 //029   ----------------------------------------
Label_01006C0B:
 BYTE   N44  Cn1  v127  gtp3
 BYTE   N23  Fn1
 BYTE   W24
 BYTE   N11  Fn1  v097
 BYTE   W12
 BYTE   Gn1  v127
 BYTE   W24
 BYTE   Gn1  v098
 BYTE   W12
 BYTE   N23  Cn1  v127
 BYTE   N11  Fn1
 BYTE   W12
 BYTE   Fn1  v099
 BYTE   W12
 BYTE   PEND 
//  #09 //030   ----------------------------------------
Label_01006C26:
 BYTE   N92  Cn1  v127  gtp3
 BYTE   N11  Fn1
 BYTE   W12
 BYTE   Fn1  v100
 BYTE   W24
 BYTE   Fn1  v101
 BYTE   W12
 BYTE   Gn1  v127
 BYTE   W12
 BYTE   Gn1  v102
 BYTE   W12
 BYTE   Gn1  v103
 BYTE   W12
 BYTE   Gn1
 BYTE   W12
 BYTE   PEND 
//  #09 //031   ----------------------------------------
Label_01006C3F:
 BYTE   N44  Cn1  v127  gtp3
 BYTE   N23  Fn1
 BYTE   W24
 BYTE   N11  Fn1  v105
 BYTE   W12
 BYTE   Gn1  v127
 BYTE   W24
 BYTE   Gn1  v106
 BYTE   W12
 BYTE   N23  Cn1  v127
 BYTE   N11  Fn1
 BYTE   W12
 BYTE   Fn1  v107
 BYTE   W12
 BYTE   PEND 
//  #09 //032   ----------------------------------------
Label_01006C5A:
 BYTE   N92  Cn1  v127  gtp3
 BYTE   N11  Fn1
 BYTE   W12
 BYTE   Fn1  v108
 BYTE   W24
 BYTE   Fn1  v109
 BYTE   W12
 BYTE   Gn1  v127
 BYTE   W12
 BYTE   Gn1  v110
 BYTE   W12
 BYTE   Gn1  v111
 BYTE   W12
 BYTE   Gn1
 BYTE   W12
 BYTE   PEND 
//  #09 //033   ----------------------------------------
Label_01006C73:
 BYTE   N68  Cn1  v127  gtp3
 BYTE   N11  Fn1
 BYTE   N11  An1
 BYTE   W12
 BYTE   Fn1  v064
 BYTE   W12
 BYTE   Gn1
 BYTE   W12
 BYTE   An1
 BYTE   W12
 BYTE   Gn1
 BYTE   W12
 BYTE   Fn1
 BYTE   W12
 BYTE   N23  Cn1  v127
 BYTE   N11  Bn1  v096
 BYTE   W12
 BYTE   Fn1  v064
 BYTE   W12
 BYTE   PEND 
//  #09 //034   ----------------------------------------
Label_01006C92:
 BYTE   N68  Cn1  v127  gtp3
 BYTE   N11  Bn1  v096
 BYTE   W12
 BYTE   Fn1  v064
 BYTE   W12
 BYTE   Gn1
 BYTE   W12
 BYTE   An1
 BYTE   W12
 BYTE   Gn1
 BYTE   W12
 BYTE   Fn1
 BYTE   W12
 BYTE   N23  Cn1  v127
 BYTE   N11  Bn1  v096
 BYTE   W12
 BYTE   Fn1  v064
 BYTE   W12
 BYTE   PEND 
//  #09 //035   ----------------------------------------
Label_01006CB0:
 BYTE   N92  Cn1  v127  gtp3
 BYTE   N11  Bn1  v096
 BYTE   W12
 BYTE   Fn1  v064
 BYTE   W12
 BYTE   Gn1
 BYTE   W12
 BYTE   An1
 BYTE   W12
 BYTE   Gn1
 BYTE   W12
 BYTE   Fn1
 BYTE   W12
 BYTE   Gn1
 BYTE   W12
 BYTE   Fn1
 BYTE   W12
 BYTE   PEND 
//  #09 //036   ----------------------------------------
Label_01006CC8:
 BYTE   N11  Gn1  v064
 BYTE   W12
 BYTE   Fn1
 BYTE   W12
 BYTE   N23
 BYTE   W24
 BYTE   N44  Cn1  v127  gtp3
 BYTE   N23  Fn1  v096
 BYTE   N23  Gn1
 BYTE   W24
 BYTE   N11  Fn1  v064
 BYTE   W12
 BYTE   Gn1
 BYTE   W12
 BYTE   PEND 
//  #09 //037   ----------------------------------------
Label_01006CE1:
 BYTE   N32  Cn1  v127  gtp3
 BYTE   N11  Bn1  v096
 BYTE   W12
 BYTE   Fn1  v064
 BYTE   W12
 BYTE   Gn1
 BYTE   W12
 BYTE   N32  Cn1  v096  gtp3
 BYTE   N11  An1
 BYTE   W24
 BYTE   Fn1  v064
 BYTE   W12
 BYTE   N23  Cn1  v127
 BYTE   N11  Bn1  v096
 BYTE   W12
 BYTE   An1  v064
 BYTE   W12
 BYTE   PEND 
//  #09 //038   ----------------------------------------
 BYTE   PATT
  POIN2 Label_01006CE1
//  #09 //039   ----------------------------------------
 BYTE   PATT
  POIN2 Label_01006CE1
//  #09 //040   ----------------------------------------
Label_01006D0D:
 BYTE   N44  Cn1  v127  gtp3
 BYTE   N11  Fn1  v096
 BYTE   N11  Bn1
 BYTE   W12
 BYTE   Fn1  v066
 BYTE   W12
 BYTE   An1  v068
 BYTE   W12
 BYTE   Fn1  v070
 BYTE   W12
 BYTE   N44  Cn1  v127  gtp3
 BYTE   N11  Fn1  v108
 BYTE   N11  Bn1
 BYTE   W12
 BYTE   Fn1  v074
 BYTE   W12
 BYTE   An1  v076
 BYTE   W12
 BYTE   Fn1  v078
 BYTE   W12
 BYTE   PEND 
//  #09 //041   ----------------------------------------
Label_01006D34:
 BYTE   N68  Cn1  v127  gtp3
 BYTE   N11  Bn1  v120
 BYTE   W12
 BYTE   Fn1  v080
 BYTE   W12
 BYTE   Gn1
 BYTE   W12
 BYTE   An1
 BYTE   W12
 BYTE   Gn1
 BYTE   W12
 BYTE   Fn1
 BYTE   W12
 BYTE   N23  Cn1  v127
 BYTE   N11  Bn1  v120
 BYTE   W12
 BYTE   Fn1  v080
 BYTE   W12
 BYTE   PEND 
//  #09 //042   ----------------------------------------
 BYTE   PATT
  POIN2 Label_01006D34
//  #09 //043   ----------------------------------------
Label_01006D57:
 BYTE   N92  Cn1  v127  gtp3
 BYTE   N11  Bn1  v120
 BYTE   W12
 BYTE   Fn1  v080
 BYTE   W12
 BYTE   Gn1
 BYTE   W12
 BYTE   An1
 BYTE   W12
 BYTE   Gn1
 BYTE   W12
 BYTE   Fn1
 BYTE   W12
 BYTE   Gn1
 BYTE   W12
 BYTE   Fn1
 BYTE   W12
 BYTE   PEND 
//  #09 //044   ----------------------------------------
Label_01006D6F:
 BYTE   N11  Gn1  v080
 BYTE   W12
 BYTE   Fn1
 BYTE   W12
 BYTE   N23
 BYTE   W24
 BYTE   N44  Cn1  v127  gtp3
 BYTE   N23  Fn1  v120
 BYTE   N23  Gn1
 BYTE   W24
 BYTE   N11  Fn1  v080
 BYTE   W12
 BYTE   Gn1
 BYTE   W12
 BYTE   PEND 
//  #09 //045   ----------------------------------------
Label_01006D88:
 BYTE   N32  Cn1  v127  gtp3
 BYTE   N11  Bn1  v120
 BYTE   W12
 BYTE   Fn1  v080
 BYTE   W12
 BYTE   Gn1
 BYTE   W12
 BYTE   N32  Cn1  v127  gtp3
 BYTE   N11  An1  v120
 BYTE   W24
 BYTE   Fn1  v080
 BYTE   W12
 BYTE   N23  Cn1  v127
 BYTE   N11  Bn1  v120
 BYTE   W12
 BYTE   An1  v080
 BYTE   W12
 BYTE   PEND 
//  #09 //046   ----------------------------------------
 BYTE   PATT
  POIN2 Label_01006D88
//  #09 //047   ----------------------------------------
 BYTE   PATT
  POIN2 Label_01006D88
//  #09 //048   ----------------------------------------
Label_01006DB5:
 BYTE   N23  Cn1  v127
 BYTE   N11  Gn1  v120
 BYTE   W12
 BYTE   Fn1  v084
 BYTE   W12
 BYTE   N23  Cn1  v127
 BYTE   N11  Gn1
 BYTE   W12
 BYTE   Fn1  v092
 BYTE   W12
 BYTE   N23  Cn1  v127
 BYTE   N11  Gn1
 BYTE   W12
 BYTE   Fn1  v100
 BYTE   W12
 BYTE   N23  Cn1  v127
 BYTE   N11  Gn1
 BYTE   W12
 BYTE   Fn1  v108
 BYTE   W12
 BYTE   PEND 
//  #09 //049   ----------------------------------------
Label_01006DDB:
 BYTE   N23  Cn1  v127
 BYTE   N23  Fn1
 BYTE   N23  Gn1
 BYTE   W24
 BYTE   Cn1
 BYTE   N11  Fn1
 BYTE   N11  Gn1
 BYTE   W12
 BYTE   Fn1  v080
 BYTE   W12
 BYTE   Gn1
 BYTE   W12
 BYTE   N32  Cn1  v112  gtp3
 BYTE   N11  Bn1  v120
 BYTE   W12
 BYTE   Fn1  v080
 BYTE   W12
 BYTE   An1  v120
 BYTE   W12
 BYTE   PEND 
//  #09 //050   ----------------------------------------
 BYTE   PATT
  POIN2 Label_01006DDB
//  #09 //051   ----------------------------------------
 BYTE   PATT
  POIN2 Label_01006DDB
//  #09 //052   ----------------------------------------
 BYTE   PATT
  POIN2 Label_01006DDB
//  #09 //053   ----------------------------------------
 BYTE   PATT
  POIN2 Label_01006DDB
//  #09 //054   ----------------------------------------
 BYTE   PATT
  POIN2 Label_01006DDB
//  #09 //055   ----------------------------------------
 BYTE   PATT
  POIN2 Label_01006DDB
//  #09 //056   ----------------------------------------
 BYTE   PATT
  POIN2 Label_01006DDB
//  #09 //057   ----------------------------------------
 BYTE   PATT
  POIN2 Label_01006DDB
//  #09 //058   ----------------------------------------
 BYTE   PATT
  POIN2 Label_01006DDB
//  #09 //059   ----------------------------------------
 BYTE   PATT
  POIN2 Label_01006DDB
//  #09 //060   ----------------------------------------
 BYTE   PATT
  POIN2 Label_01006DDB
//  #09 //061   ----------------------------------------
 BYTE   PATT
  POIN2 Label_01006DDB
//  #09 //062   ----------------------------------------
 BYTE   PATT
  POIN2 Label_01006DDB
//  #09 //063   ----------------------------------------
 BYTE   PATT
  POIN2 Label_01006DDB
//  #09 //064   ----------------------------------------
Label_01006E43:
 BYTE   N23  Cn1  v127
 BYTE   N23  Fn1
 BYTE   N23  Gn1
 BYTE   W24
 BYTE   Cn1
 BYTE   N11  Fn1
 BYTE   N11  Gn1
 BYTE   W12
 BYTE   Fn1  v114
 BYTE   W12
 BYTE   Gn1  v116
 BYTE   W12
 BYTE   N32  Cn1  v127  gtp3
 BYTE   N11  Bn1
 BYTE   W12
 BYTE   Fn1  v121
 BYTE   W12
 BYTE   An1  v127
 BYTE   W12
 BYTE   PEND 
//  #09 //065   ----------------------------------------
Label_01006E65:
 BYTE   N44  Cn1  v127  gtp3
 BYTE   N23  Fn1
 BYTE   N23  An1
 BYTE   W48
 BYTE   N44  Cn1  v080  gtp3
 BYTE   W48
 BYTE   PEND 
//  #09 //066   ----------------------------------------
Label_01006E74:
 BYTE   N44  Cn1  v080  gtp3
 BYTE   W48
 BYTE   Cn1
 BYTE   W48
 BYTE   PEND 
//  #09 //067   ----------------------------------------
 BYTE   PATT
  POIN2 Label_01006E74
//  #09 //068   ----------------------------------------
 BYTE   PATT
  POIN2 Label_01006E74
//  #09 //069   ----------------------------------------
 BYTE   PATT
  POIN2 Label_01006E74
//  #09 //070   ----------------------------------------
 BYTE   PATT
  POIN2 Label_01006E74
//  #09 //071   ----------------------------------------
 BYTE   PATT
  POIN2 Label_01006E74
//  #09 //072   ----------------------------------------
 BYTE   PATT
  POIN2 Label_01006E74
//  #09 //073   ----------------------------------------
 BYTE   PATT
  POIN2 Label_01006E74
//  #09 //074   ----------------------------------------
 BYTE   PATT
  POIN2 Label_01006E74
//  #09 //075   ----------------------------------------
Label_01006EA4:
 BYTE   N44  Cn1  v080  gtp3
 BYTE   W48
 BYTE   Cn1  v091
 BYTE   W48
 BYTE   PEND 
//  #09 //076   ----------------------------------------
Label_01006EAD:
 BYTE   N44  Cn1  v103  gtp3
 BYTE   W48
 BYTE   Cn1  v114
 BYTE   W48
 BYTE   PEND 
//  #09 //077   ----------------------------------------
Label_01006EB6:
 BYTE   N23  Cn1  v127
 BYTE   N23  Fn1
 BYTE   N23  Gn1
 BYTE   W24
 BYTE   Cn1
 BYTE   N11  Fn1
 BYTE   N11  Gn1
 BYTE   W12
 BYTE   Fn1  v112
 BYTE   W12
 BYTE   Gn1
 BYTE   W12
 BYTE   N32  Cn1  v126  gtp3
 BYTE   N11  Bn1  v127
 BYTE   W12
 BYTE   Fn1  v112
 BYTE   W12
 BYTE   An1  v127
 BYTE   W12
 BYTE   PEND 
//  #09 //078   ----------------------------------------
 BYTE   PATT
  POIN2 Label_01006EB6
//  #09 //079   ----------------------------------------
 BYTE   PATT
  POIN2 Label_01006EB6
//  #09 //080   ----------------------------------------
 BYTE   PATT
  POIN2 Label_01006EB6
//  #09 //081   ----------------------------------------
 BYTE   PATT
  POIN2 Label_01006EB6
//  #09 //082   ----------------------------------------
 BYTE   PATT
  POIN2 Label_01006EB6
//  #09 //083   ----------------------------------------
 BYTE   PATT
  POIN2 Label_01006EB6
//  #09 //084   ----------------------------------------
 BYTE   PATT
  POIN2 Label_01006EB6
//  #09 //085   ----------------------------------------
 BYTE   N44  Cn1  v127  gtp3
 BYTE   N23  Fn1
 BYTE   GoTo
  POIN2 Label_01006AB8
//  #09 //086   ----------------------------------------
 BYTE   W24
 BYTE   N11  Fn1  v033
 BYTE   W12
 BYTE   Gn1  v049
 BYTE   W24
 BYTE   Gn1  v033
 BYTE   W12
 BYTE   N23  Cn1  v096
 BYTE   N11  Fn1  v049
 BYTE   W12
 BYTE   Fn1  v033
 BYTE   W12
//  #09 //087   ----------------------------------------
 BYTE   PATT
  POIN2 Label_01006AD4
//  #09 //088   ----------------------------------------
 BYTE   PATT
  POIN2 Label_01006AEC
//  #09 //089   ----------------------------------------
 BYTE   PATT
  POIN2 Label_01006AD4
//  #09 //090   ----------------------------------------
 BYTE   PATT
  POIN2 Label_01006AEC
//  #09 //091   ----------------------------------------
 BYTE   PATT
  POIN2 Label_01006AD4
//  #09 //092   ----------------------------------------
 BYTE   PATT
  POIN2 Label_01006AEC
//  #09 //093   ----------------------------------------
 BYTE   PATT
  POIN2 Label_01006B1D
//  #09 //094   ----------------------------------------
 BYTE   PATT
  POIN2 Label_01006B3E
//  #09 //095   ----------------------------------------
 BYTE   PATT
  POIN2 Label_01006B5B
//  #09 //096   ----------------------------------------
 BYTE   PATT
  POIN2 Label_01006B3E
//  #09 //097   ----------------------------------------
 BYTE   PATT
  POIN2 Label_01006B5B
//  #09 //098   ----------------------------------------
 BYTE   PATT
  POIN2 Label_01006B3E
//  #09 //099   ----------------------------------------
 BYTE   PATT
  POIN2 Label_01006B5B
//  #09 //100   ----------------------------------------
 BYTE   PATT
  POIN2 Label_01006B3E
//  #09 //101   ----------------------------------------
 BYTE   PATT
  POIN2 Label_01006B5B
//  #09 //102   ----------------------------------------
 BYTE   PATT
  POIN2 Label_01006B3E
//  #09 //103   ----------------------------------------
 BYTE   PATT
  POIN2 Label_01006B5B
//  #09 //104   ----------------------------------------
 BYTE   PATT
  POIN2 Label_01006B3E
//  #09 //105   ----------------------------------------
 BYTE   PATT
  POIN2 Label_01006B5B
//  #09 //106   ----------------------------------------
 BYTE   PATT
  POIN2 Label_01006B3E
//  #09 //107   ----------------------------------------
 BYTE   PATT
  POIN2 Label_01006B5B
//  #09 //108   ----------------------------------------
 BYTE   PATT
  POIN2 Label_01006B3E
//  #09 //109   ----------------------------------------
 BYTE   PATT
  POIN2 Label_01006BB4
//  #09 //110   ----------------------------------------
 BYTE   PATT
  POIN2 Label_01006BCF
//  #09 //111   ----------------------------------------
 BYTE   PATT
  POIN2 Label_01006BEA
//  #09 //112   ----------------------------------------
 BYTE   PATT
  POIN2 Label_01006BCF
//  #09 //113   ----------------------------------------
 BYTE   PATT
  POIN2 Label_01006BEA
//  #09 //114   ----------------------------------------
 BYTE   PATT
  POIN2 Label_01006C0B
//  #09 //115   ----------------------------------------
 BYTE   PATT
  POIN2 Label_01006C26
//  #09 //116   ----------------------------------------
 BYTE   PATT
  POIN2 Label_01006C3F
//  #09 //117   ----------------------------------------
 BYTE   PATT
  POIN2 Label_01006C5A
//  #09 //118   ----------------------------------------
 BYTE   PATT
  POIN2 Label_01006C73
//  #09 //119   ----------------------------------------
 BYTE   PATT
  POIN2 Label_01006C92
//  #09 //120   ----------------------------------------
 BYTE   PATT
  POIN2 Label_01006CB0
//  #09 //121   ----------------------------------------
 BYTE   PATT
  POIN2 Label_01006CC8
//  #09 //122   ----------------------------------------
 BYTE   PATT
  POIN2 Label_01006CE1
//  #09 //123   ----------------------------------------
 BYTE   PATT
  POIN2 Label_01006CE1
//  #09 //124   ----------------------------------------
 BYTE   PATT
  POIN2 Label_01006CE1
//  #09 //125   ----------------------------------------
 BYTE   PATT
  POIN2 Label_01006D0D
//  #09 //126   ----------------------------------------
 BYTE   PATT
  POIN2 Label_01006D34
//  #09 //127   ----------------------------------------
 BYTE   PATT
  POIN2 Label_01006D34
//  #09 //128   ----------------------------------------
 BYTE   PATT
  POIN2 Label_01006D57
//  #09 //129   ----------------------------------------
 BYTE   PATT
  POIN2 Label_01006D6F
//  #09 //130   ----------------------------------------
 BYTE   PATT
  POIN2 Label_01006D88
//  #09 //131   ----------------------------------------
 BYTE   PATT
  POIN2 Label_01006D88
//  #09 //132   ----------------------------------------
 BYTE   PATT
  POIN2 Label_01006D88
//  #09 //133   ----------------------------------------
 BYTE   PATT
  POIN2 Label_01006DB5
//  #09 //134   ----------------------------------------
 BYTE   PATT
  POIN2 Label_01006DDB
//  #09 //135   ----------------------------------------
 BYTE   PATT
  POIN2 Label_01006DDB
//  #09 //136   ----------------------------------------
 BYTE   PATT
  POIN2 Label_01006DDB
//  #09 //137   ----------------------------------------
 BYTE   PATT
  POIN2 Label_01006DDB
//  #09 //138   ----------------------------------------
 BYTE   PATT
  POIN2 Label_01006DDB
//  #09 //139   ----------------------------------------
 BYTE   PATT
  POIN2 Label_01006DDB
//  #09 //140   ----------------------------------------
 BYTE   PATT
  POIN2 Label_01006DDB
//  #09 //141   ----------------------------------------
 BYTE   PATT
  POIN2 Label_01006DDB
//  #09 //142   ----------------------------------------
 BYTE   PATT
  POIN2 Label_01006DDB
//  #09 //143   ----------------------------------------
 BYTE   PATT
  POIN2 Label_01006DDB
//  #09 //144   ----------------------------------------
 BYTE   PATT
  POIN2 Label_01006DDB
//  #09 //145   ----------------------------------------
 BYTE   PATT
  POIN2 Label_01006DDB
//  #09 //146   ----------------------------------------
 BYTE   PATT
  POIN2 Label_01006DDB
//  #09 //147   ----------------------------------------
 BYTE   PATT
  POIN2 Label_01006DDB
//  #09 //148   ----------------------------------------
 BYTE   PATT
  POIN2 Label_01006DDB
//  #09 //149   ----------------------------------------
 BYTE   PATT
  POIN2 Label_01006E43
//  #09 //150   ----------------------------------------
 BYTE   PATT
  POIN2 Label_01006E65
//  #09 //151   ----------------------------------------
 BYTE   PATT
  POIN2 Label_01006E74
//  #09 //152   ----------------------------------------
 BYTE   PATT
  POIN2 Label_01006E74
//  #09 //153   ----------------------------------------
 BYTE   PATT
  POIN2 Label_01006E74
//  #09 //154   ----------------------------------------
 BYTE   PATT
  POIN2 Label_01006E74
//  #09 //155   ----------------------------------------
 BYTE   PATT
  POIN2 Label_01006E74
//  #09 //156   ----------------------------------------
 BYTE   PATT
  POIN2 Label_01006E74
//  #09 //157   ----------------------------------------
 BYTE   PATT
  POIN2 Label_01006E74
//  #09 //158   ----------------------------------------
 BYTE   PATT
  POIN2 Label_01006E74
//  #09 //159   ----------------------------------------
 BYTE   PATT
  POIN2 Label_01006E74
//  #09 //160   ----------------------------------------
 BYTE   PATT
  POIN2 Label_01006EA4
//  #09 //161   ----------------------------------------
 BYTE   PATT
  POIN2 Label_01006EAD
//  #09 //162   ----------------------------------------
 BYTE   PATT
  POIN2 Label_01006EB6
//  #09 //163   ----------------------------------------
 BYTE   PATT
  POIN2 Label_01006EB6
//  #09 //164   ----------------------------------------
 BYTE   PATT
  POIN2 Label_01006EB6
//  #09 //165   ----------------------------------------
 BYTE   PATT
  POIN2 Label_01006EB6
//  #09 //166   ----------------------------------------
 BYTE   PATT
  POIN2 Label_01006EB6
//  #09 //167   ----------------------------------------
 BYTE   PATT
  POIN2 Label_01006EB6
//  #09 //168   ----------------------------------------
 BYTE   PATT
  POIN2 Label_01006EB6
//  #09 //169   ----------------------------------------
 BYTE   PATT
  POIN2 Label_01006EB6
//  #09 //170   ----------------------------------------
 BYTE   N44  Cn1  v127  gtp3
 BYTE   N23  Fn1
 BYTE   W24
 BYTE   N11  Fn1  v033
 BYTE   W12
 BYTE   Gn1  v049
 BYTE   W24
 BYTE   Gn1  v033
 BYTE   W12
 BYTE   N23  Cn1  v096
 BYTE   N11  Fn1  v049
 BYTE   W12
 BYTE   Fn1  v033
 BYTE   W12
//  #09 //171   ----------------------------------------
 BYTE   PATT
  POIN2 Label_01006AD4
//  #09 //172   ----------------------------------------
 BYTE   PATT
  POIN2 Label_01006AEC
//  #09 //173   ----------------------------------------
 BYTE   N92  Cn1  v096  gtp3
 BYTE   N11  Fn1  v049
 BYTE   W12
 BYTE   Fn1  v033
 BYTE   W24
 BYTE   Fn1
 BYTE   W12
 BYTE   Gn1  v049
 BYTE   W12
 BYTE   Gn1  v033
 BYTE   W12
 BYTE   Gn1
 BYTE   W12
 BYTE   Gn1
 BYTE   W11
 BYTE   FINE

//******************************************************//
	ALIGN 4

FierceAsFire:
	BYTE	9	// NumTrks
	BYTE	0	// NumBlks
	BYTE	FierceAsFire_pri	// Priority
	BYTE	FierceAsFire_rev	// Reverb.
    
	POIN2	FierceAsFire_grp
    
	POIN2	FierceAsFire_001
	POIN2	FierceAsFire_002
	POIN2	FierceAsFire_003
	POIN2	FierceAsFire_004
	POIN2	FierceAsFire_005
	POIN2	FierceAsFire_006
	POIN2	FierceAsFire_007
	POIN2	FierceAsFire_008
	POIN2	FierceAsFire_009

	
