//Event file generated from Sappy .s format.
        #include "MPlayDef.event"

        #define    FootstepsOfFate_grp  voicegroup000
        #define    FootstepsOfFate_pri  0
        #define    FootstepsOfFate_rev  0
        #define    FootstepsOfFate_key  0

        // .rodata
        // FootstepsOfFate
        ALIGN 4

//****************** Track 0 (Midi-Chn.0) ******************//

FootstepsOfFate_0:
        BYTE   KEYSH   FootstepsOfFate_key+0
// 000   ----------------------------------------
        BYTE   TEMPO   106/2
        BYTE           VOICE   110
        BYTE   W24
        BYTE           PAN     c_v-14
        BYTE           VOL     40
        BYTE           N44     En3   v075   gtp3
        BYTE                   Cs4   v083
        BYTE   W15
        BYTE           VOL     41
        BYTE   W09
        BYTE                   42
        BYTE   W09
        BYTE                   43
        BYTE   W03
        BYTE                   44
        BYTE   W06
        BYTE                   45
        BYTE   W06
        BYTE                   46
        BYTE           N44     Dn3   v091   gtp3
        BYTE                   Bn3   v077
        BYTE   W03
        BYTE           VOL     47
        BYTE   W03
        BYTE                   49
        BYTE   W12
        BYTE                   48
        BYTE   W06
// 001   ----------------------------------------
        BYTE                   47
        BYTE   W09
        BYTE                   46
        BYTE   W03
        BYTE                   45
        BYTE   W03
        BYTE                   44
        BYTE   W03
        BYTE                   43
        BYTE   W03
        BYTE                   42
        BYTE   W01
        BYTE                   41
        BYTE   W02
        BYTE           N44     En3   v083   gtp3
        BYTE                   An3   v096
        BYTE           N44     Dn4   v093   gtp3
        BYTE   W04
        BYTE           VOL     42
        BYTE   W12
        BYTE                   43
        BYTE   W06
        BYTE                   44
        BYTE   W06
        BYTE                   45
        BYTE   W06
        BYTE                   46
        BYTE   W06
        BYTE                   47
        BYTE   W03
        BYTE                   48
        BYTE   W03
        BYTE                   49
        BYTE   W02
        BYTE           N44     Fs3   v100   gtp3
        BYTE           N23     Cs4   v091
        BYTE   W17
        BYTE           VOL     48
        BYTE   W07
// 002   ----------------------------------------
        BYTE           N23     Bn3   v084
        BYTE   W04
        BYTE           VOL     47
        BYTE   W11
        BYTE                   46
        BYTE   W04
        BYTE                   45
        BYTE   W04
        BYTE                   44
        BYTE   W01
        BYTE           N44     Dn3   v071   gtp3
        BYTE                   En3   v068
        BYTE           N44     An3   v076   gtp3
        BYTE   W48
        BYTE                   En3   v082
        BYTE           N44     Fs3   v075   gtp3
        BYTE                   Bn3   v078
        BYTE   W18
        BYTE           VOL     45
        BYTE   W06
// 003   ----------------------------------------
        BYTE   W24
        BYTE           N44     Bn2   v077   gtp3
        BYTE                   Dn3   v088
        BYTE           N44     An3   v092   gtp3
        BYTE   W24
        BYTE           VOL     46
        BYTE   W14
        BYTE                   47
        BYTE   W10
        BYTE           N44     En3   v096   gtp3
        BYTE                   Bn3   v087
        BYTE   W17
        BYTE           VOL     48
        BYTE   W07
// 004   ----------------------------------------
        BYTE   W06
        BYTE                   49
        BYTE   W18
        BYTE           VOICE   71
        BYTE           PAN     c_v-64
        BYTE           VOL     35
        BYTE   W03
        BYTE           N80     Cs3   v095
        BYTE   W12
        BYTE           VOL     34
        BYTE   W12
        BYTE                   33
        BYTE   W09
        BYTE                   32
        BYTE   W09
        BYTE                   31
        BYTE   W06
        BYTE                   30
        BYTE   W06
        BYTE                   29
        BYTE   W06
        BYTE                   28
        BYTE   W06
        BYTE                   27
        BYTE   W03
// 005   ----------------------------------------
FootstepsOfFate_0_5:
        BYTE   W03
        BYTE           VOL     26
        BYTE   W03
        BYTE                   25
        BYTE   W03
        BYTE                   24
        BYTE   W03
        BYTE                   23
        BYTE           N02     Dn3   v122
        BYTE   W03
        BYTE                   En3
        BYTE   W03
        BYTE           VOL     21
        BYTE           N02     Fs3
        BYTE   W03
        BYTE           VOL     20
        BYTE           N02     Gs3
        BYTE   W02
        BYTE           VOL     19
        BYTE   W01
        BYTE           N02     An3
        BYTE   W03
        BYTE           N44     Bn3   v119   gtp3
        BYTE   W08
        BYTE           VOL     20
        BYTE   W12
        BYTE                   21
        BYTE   W15
        BYTE                   22
        BYTE   W06
        BYTE                   23
        BYTE   W07
        BYTE           N32     Gs3   v117   gtp3
        BYTE   W02
        BYTE           VOL     24
        BYTE   W09
        BYTE                   25
        BYTE   W03
        BYTE                   26
        BYTE   W06
        BYTE                   27
        BYTE   W01
        BYTE   PEND
// 006   ----------------------------------------
        BYTE   W05
        BYTE                   28
        BYTE   W03
        BYTE                   29
        BYTE   W01
        BYTE                   30
        BYTE   W06
        BYTE           N05     Fs3   v107
        BYTE   W06
        BYTE                   Gs3   v115
        BYTE   W03
FootstepsOfFate_0_LOOP:
        BYTE   W03
        BYTE           N05     Gs3   v101
        BYTE   W03
        BYTE           VOL     29
        BYTE   W03
        BYTE           N05     An3   v109
        BYTE   W06
        BYTE           N68     Cs3   v113
        BYTE   W12
        BYTE           VOL     28
        BYTE   W12
        BYTE                   27
        BYTE   W12
        BYTE                   26
        BYTE   W12
        BYTE                   25
        BYTE   W06
        BYTE                   24
        BYTE   W03
// 007   ----------------------------------------
        BYTE   W06
        BYTE                   23
        BYTE   W06
        BYTE                   22
        BYTE           N02     Fs3   v127
        BYTE   W03
        BYTE           N05     An3   v097
        BYTE   W02
        BYTE           VOL     21
        BYTE   W04
        BYTE           N05     Gs3   v111
        BYTE   W06
        BYTE           N44     Bn2   v119   gtp3
        BYTE   W05
        BYTE           VOL     22
        BYTE   W15
        BYTE                   23
        BYTE   W18
        BYTE                   24
        BYTE   W10
        BYTE           N44     En3   v119   gtp3
        BYTE   W02
        BYTE           VOL     25
        BYTE   W09
        BYTE                   26
        BYTE   W09
        BYTE                   27
        BYTE   W01
// 008   ----------------------------------------
        BYTE   W05
        BYTE                   28
        BYTE   W06
        BYTE                   29
        BYTE   W03
        BYTE                   30
        BYTE   W17
        BYTE                   29
        BYTE   W23
        BYTE                   28
        BYTE   W14
        BYTE                   27
        BYTE   W13
        BYTE                   26
        BYTE   W13
        BYTE                   25
        BYTE   W02
// 009   ----------------------------------------
        BYTE   W05
        BYTE                   24
        BYTE   W10
        BYTE                   23
        BYTE   W06
        BYTE                   22
        BYTE   W72
        BYTE   W03
// 010   ----------------------------------------
        BYTE   W96
// 011   ----------------------------------------
        BYTE   W24
        BYTE           VOICE   100
        BYTE           PAN     c_v+12
        BYTE           VOL     44
        BYTE   W72
// 012   ----------------------------------------
        BYTE           N05     An3   v088
        BYTE   W06
        BYTE                   Gs3
        BYTE   W06
        BYTE                   En3
        BYTE   W06
        BYTE                   Bn2
        BYTE   W78
// 013   ----------------------------------------
        BYTE   W96
// 014   ----------------------------------------
        BYTE   W96
// 015   ----------------------------------------
        BYTE   W96
// 016   ----------------------------------------
        BYTE   W96
// 017   ----------------------------------------
        BYTE   W96
// 018   ----------------------------------------
        BYTE   W96
// 019   ----------------------------------------
        BYTE   W96
// 020   ----------------------------------------
        BYTE   W24
        BYTE           VOICE   110
        BYTE           PAN     c_v-14
        BYTE           VOL     49
        BYTE           BEND    c_v+1
        BYTE           TIE     Gn2   v094
        BYTE           TIE     Bn3   v080
        BYTE           N92     Fs4   v064   gtp3
        BYTE   W44
        BYTE   W01
        BYTE           VOL     48
        BYTE   W07
        BYTE                   47
        BYTE   W12
        BYTE                   46
        BYTE   W08
// 021   ----------------------------------------
        BYTE                   45
        BYTE   W11
        BYTE                   44
        BYTE   W12
        BYTE                   43
        BYTE   W01
        BYTE           N92     Fs4   v076   gtp3
        BYTE   W06
        BYTE           VOL     42
        BYTE   W12
        BYTE                   41
        BYTE   W08
        BYTE                   40
        BYTE   W11
        BYTE                   39
        BYTE   W12
        BYTE                   38
        BYTE   W07
        BYTE                   37
        BYTE   W12
        BYTE                   36
        BYTE   W04
// 022   ----------------------------------------
        BYTE   W04
        BYTE                   35
        BYTE   W11
        BYTE                   34
        BYTE   W08
        BYTE           EOT     Gn2
        BYTE                   Bn3
        BYTE   W01
        BYTE           VOL     33
        BYTE           TIE     Gs2   v091
        BYTE           TIE     Bn3   v073
        BYTE           N92     Fs4   v065   gtp3
        BYTE   W12
        BYTE           VOL     34
        BYTE   W22
        BYTE                   35
        BYTE   W21
        BYTE                   36
        BYTE   W09
        BYTE                   37
        BYTE   W08
// 023   ----------------------------------------
        BYTE   W09
        BYTE                   38
        BYTE   W08
        BYTE                   39
        BYTE   W07
        BYTE           N92     Fs4   v083   gtp3
        BYTE   W02
        BYTE           VOL     40
        BYTE   W13
        BYTE                   41
        BYTE   W04
        BYTE                   42
        BYTE   W08
        BYTE                   43
        BYTE   W05
        BYTE                   44
        BYTE   W08
        BYTE                   45
        BYTE   W08
        BYTE                   44
        BYTE   W04
        BYTE                   43
        BYTE   W03
        BYTE                   42
        BYTE   W05
        BYTE                   41
        BYTE   W03
        BYTE                   40
        BYTE   W03
        BYTE                   39
        BYTE   W03
        BYTE                   38
        BYTE   W03
// 024   ----------------------------------------
        BYTE                   37
        BYTE   W03
        BYTE                   36
        BYTE   W01
        BYTE                   35
        BYTE   W02
        BYTE                   34
        BYTE   W03
        BYTE                   33
        BYTE   W01
        BYTE                   32
        BYTE   W02
        BYTE                   31
        BYTE   W01
        BYTE                   30
        BYTE   W02
        BYTE                   29
        BYTE   W01
        BYTE                   28
        BYTE   W02
        BYTE                   26
        BYTE   W01
        BYTE                   25
        BYTE   W02
        BYTE                   23
        BYTE   W02
        BYTE           EOT     Gs2
        BYTE                   Bn3
        BYTE   W01
        BYTE           TIE     Gn2   v114
        BYTE           TIE     Bn3   v100
        BYTE   W03
        BYTE           VOL     24
        BYTE   W18
        BYTE                   25
        BYTE   W15
        BYTE                   26
        BYTE   W09
        BYTE                   27
        BYTE   W12
        BYTE                   28
        BYTE   W06
        BYTE                   29
        BYTE   W09
// 025   ----------------------------------------
        BYTE   W03
        BYTE                   30
        BYTE   W09
        BYTE                   31
        BYTE   W06
        BYTE                   32
        BYTE   W09
        BYTE                   33
        BYTE   W06
        BYTE                   34
        BYTE   W09
        BYTE                   35
        BYTE   W06
        BYTE                   36
        BYTE   W06
        BYTE                   37
        BYTE   W06
        BYTE                   38
        BYTE   W03
        BYTE                   39
        BYTE   W06
        BYTE                   40
        BYTE   W06
        BYTE                   41
        BYTE   W03
        BYTE                   42
        BYTE   W06
        BYTE                   43
        BYTE   W03
        BYTE                   44
        BYTE   W03
        BYTE                   45
        BYTE   W06
// 026   ----------------------------------------
        BYTE                   46
        BYTE   W03
        BYTE                   47
        BYTE   W03
        BYTE                   48
        BYTE   W02
        BYTE                   49
        BYTE   W01
        BYTE                   48
        BYTE   W02
        BYTE                   47
        BYTE   W01
        BYTE                   46
        BYTE   W01
        BYTE                   45
        BYTE   W01
        BYTE                   44
        BYTE   W01
        BYTE                   43
        BYTE   W01
        BYTE                   42
        BYTE   W01
        BYTE                   41
        BYTE   W01
        BYTE                   39
        BYTE   W01
        BYTE                   37
        BYTE   W01
        BYTE                   36
        BYTE   W01
        BYTE                   33
        BYTE   W01
        BYTE                   31
        BYTE   W01
        BYTE           EOT     Gn2
        BYTE                   Bn3
        BYTE           VOL     29
        BYTE   W01
        BYTE           TIE     Gs2   v124
        BYTE           TIE     Bn3   v106
        BYTE           VOL     24
        BYTE   W01
        BYTE                   22
        BYTE   W15
        BYTE                   23
        BYTE   W12
        BYTE                   24
        BYTE   W15
        BYTE                   25
        BYTE   W15
        BYTE                   26
        BYTE   W06
        BYTE                   27
        BYTE   W08
// 027   ----------------------------------------
        BYTE   W04
        BYTE                   28
        BYTE   W09
        BYTE                   29
        BYTE   W09
        BYTE                   30
        BYTE   W09
        BYTE                   31
        BYTE   W06
        BYTE                   32
        BYTE   W06
        BYTE                   33
        BYTE   W06
        BYTE                   34
        BYTE   W06
        BYTE                   35
        BYTE   W06
        BYTE                   36
        BYTE   W06
        BYTE                   37
        BYTE   W03
        BYTE                   38
        BYTE   W01
        BYTE           EOT     Gs2
        BYTE                   Bn3
        BYTE   W01
        BYTE           N23     Gs2   v124
        BYTE           N23     Bn3   v106
        BYTE   W04
        BYTE           VOL     39
        BYTE   W03
        BYTE                   40
        BYTE   W06
        BYTE                   41
        BYTE   W03
        BYTE                   42
        BYTE   W03
        BYTE                   43
        BYTE   W03
        BYTE                   44
        BYTE   W02
// 028   ----------------------------------------
        BYTE           N23     Gn2   v124
        BYTE           N23     Bn3   v106
        BYTE   W01
        BYTE           VOL     45
        BYTE   W03
        BYTE                   46
        BYTE   W03
        BYTE                   47
        BYTE   W03
        BYTE                   48
        BYTE   W02
        BYTE                   49
        BYTE   W12
        BYTE           N44     Fs3   v104   gtp3
        BYTE   W48
        BYTE           N44     Cs4   v113
        BYTE   W24
// 029   ----------------------------------------
        BYTE   W24
        BYTE                   Gs3   v088   gtp3
        BYTE                   Gs4   v098
        BYTE   W48
        BYTE           N44     An3   v088   gtp1
        BYTE           N44     An4   v098   gtp3
        BYTE   W24
// 030   ----------------------------------------
        BYTE   W24
        BYTE                   Gs3   v091
        BYTE           N44     Gs4   v101   gtp3
        BYTE   W48
        BYTE                   Dn3   v100
        BYTE           N68     Cs4   v100   gtp1
        BYTE   W24
// 031   ----------------------------------------
        BYTE   W24
        BYTE           N44     Dn3   v085   gtp3
        BYTE   W24
        BYTE           N23     An3   v103
        BYTE           N20     Dn4   v107
        BYTE   W24
        BYTE           N44     En3   v103   gtp3
        BYTE           N44     Gs3   v107
        BYTE           N23     En4   v100
        BYTE   W24
// 032   ----------------------------------------
        BYTE                   Dn4   v105
        BYTE   W24
        BYTE           N48     Cs4   v097   gtp1
        BYTE   W48
        BYTE           N44     Fs3   v087   gtp3
        BYTE   W24
// 033   ----------------------------------------
        BYTE   W24
        BYTE           N92     Fs3   v091
        BYTE   W48
        BYTE           N44     Gs3   v072   gtp1
        BYTE   W24
// 034   ----------------------------------------
        BYTE   W24
        BYTE           N92     Fs3   v100   gtp1
        BYTE           N44     An3   v094   gtp3
        BYTE   W48
        BYTE                   Bn3   v084
        BYTE   W24
// 035   ----------------------------------------
        BYTE   W24
        BYTE           N92     En3   v100   gtp1
        BYTE           N23     Cs4   v087
        BYTE   W24
        BYTE                   Bn3
        BYTE   W24
        BYTE                   En4
        BYTE   W24
// 036   ----------------------------------------
        BYTE                   Dn4   v100
        BYTE   W24
        BYTE           N92     An3   v106   gtp3
        BYTE                   Cs4
        BYTE   W01
        BYTE           VOL     48
        BYTE   W02
        BYTE                   47
        BYTE   W03
        BYTE                   46
        BYTE   W01
        BYTE                   45
        BYTE   W02
        BYTE                   44
        BYTE   W03
        BYTE                   42
        BYTE   W03
        BYTE                   41
        BYTE   W01
        BYTE                   40
        BYTE   W02
        BYTE                   39
        BYTE   W03
        BYTE                   38
        BYTE   W01
        BYTE                   37
        BYTE   W02
        BYTE                   36
        BYTE   W01
        BYTE                   35
        BYTE   W02
        BYTE                   34
        BYTE   W03
        BYTE                   33
        BYTE   W01
        BYTE                   32
        BYTE   W02
        BYTE                   31
        BYTE   W01
        BYTE                   30
        BYTE   W02
        BYTE                   29
        BYTE   W03
        BYTE                   28
        BYTE   W01
        BYTE                   27
        BYTE   W02
        BYTE                   26
        BYTE   W01
        BYTE                   25
        BYTE   W02
        BYTE                   24
        BYTE   W03
        BYTE                   23
        BYTE   W01
        BYTE                   22
        BYTE   W02
        BYTE                   21
        BYTE   W01
        BYTE                   20
        BYTE   W02
        BYTE                   19
        BYTE   W01
        BYTE                   18
        BYTE   W03
        BYTE                   17
        BYTE   W02
        BYTE                   16
        BYTE   W01
        BYTE                   15
        BYTE   W03
        BYTE                   13
        BYTE   W03
        BYTE                   12
        BYTE   W02
        BYTE                   11
        BYTE   W01
        BYTE                   10
        BYTE   W02
// 037   ----------------------------------------
        BYTE   W01
        BYTE                   9
        BYTE   W02
        BYTE                   8
        BYTE   W92
        BYTE   W01
// 038   ----------------------------------------
        BYTE   W02
        BYTE                   12
        BYTE   W01
        BYTE                   19
        BYTE   W01
        BYTE                   24
        BYTE   W01
        BYTE                   27
        BYTE   W01
        BYTE                   35
        BYTE   W01
        BYTE                   39
        BYTE   W01
        BYTE                   43
        BYTE   W01
        BYTE                   49
        BYTE   W15
        BYTE           N44     En3   v075   gtp3
        BYTE                   Cs4   v083
        BYTE   W48
        BYTE                   Dn3   v091
        BYTE           N44     Bn3   v077   gtp3
        BYTE   W24
// 039   ----------------------------------------
        BYTE   W24
        BYTE                   En3   v083
        BYTE           N44     An3   v096   gtp3
        BYTE                   Dn4   v093
        BYTE   W48
        BYTE                   Fs3   v100
        BYTE           N23     Cs4   v091
        BYTE   W24
// 040   ----------------------------------------
        BYTE                   Bn3   v084
        BYTE   W24
        BYTE           N44     En3   v068   gtp3
        BYTE                   An3   v076
        BYTE   W48
        BYTE                   Fs3   v075
        BYTE           N44     Bn3   v078   gtp3
        BYTE   W24
// 041   ----------------------------------------
        BYTE   W24
        BYTE                   Dn3   v105
        BYTE           N44     An3   v109   gtp3
        BYTE   W48
        BYTE                   En3   v118
        BYTE           N44     Bn3   v111   gtp3
        BYTE   W24
// 042   ----------------------------------------
        BYTE   W24
        BYTE           VOICE   71
        BYTE           PAN     c_v-64
        BYTE           VOL     35
        BYTE   W03
        BYTE           N80     Cs3   v095
        BYTE   W12
        BYTE           VOL     34
        BYTE   W12
        BYTE                   33
        BYTE   W09
        BYTE                   32
        BYTE   W09
        BYTE                   31
        BYTE   W06
        BYTE                   30
        BYTE   W06
        BYTE                   29
        BYTE   W06
        BYTE                   28
        BYTE   W06
        BYTE                   27
        BYTE   W03
// 043   ----------------------------------------
        BYTE   PATT
         POIN2  FootstepsOfFate_0_5
// 044   ----------------------------------------
        BYTE   W05
        BYTE           VOL     28
        BYTE   W03
        BYTE                   29
        BYTE   W01
        BYTE                   30
        BYTE   W06
        BYTE           N05     Fs3   v107
        BYTE   W06
        BYTE                   Gs3   v115
        BYTE   W03
        BYTE           BEND    c_v+0
        BYTE   GoTo
         POIN2  FootstepsOfFate_0_LOOP
        BYTE   W02
        BYTE   FINE

//****************** Track 1 (Midi-Chn.1) ******************//

FootstepsOfFate_1:
        BYTE   KEYSH   FootstepsOfFate_key+0
// 000   ----------------------------------------
        BYTE           VOL     56
        BYTE   W24
        BYTE           VOICE   2
        BYTE           N92     Fs0   v127   gtp3
        BYTE   W72
// 001   ----------------------------------------
        BYTE   W24
        BYTE                   Fs0
        BYTE   W72
// 002   ----------------------------------------
        BYTE   W24
        BYTE                   Fs0   v122
        BYTE   W72
// 003   ----------------------------------------
        BYTE   W24
        BYTE           N68     Fs0   v094   gtp3
        BYTE   W72
// 004   ----------------------------------------
FootstepsOfFate_1_4:
        BYTE           N04     Fs0   v117
        BYTE   W12
        BYTE           N05     Bn0   v097
        BYTE   W06
        BYTE           N03     Cs1   v117
        BYTE   W06
        BYTE           N06     Fs1   v127
        BYTE   W24
        BYTE           N05     Fs0
        BYTE   W24
        BYTE           N04
        BYTE   W24
        BYTE   PEND
// 005   ----------------------------------------
FootstepsOfFate_1_5:
        BYTE           N05     Fs0   v127
        BYTE   W24
        BYTE           N04     Fs1
        BYTE   W24
        BYTE           N05     Fs0   v122
        BYTE   W24
        BYTE                   Fs0   v108
        BYTE   W24
        BYTE   PEND
// 006   ----------------------------------------
        BYTE                   Fs0   v117
        BYTE   W12
        BYTE           N02     Fs0   v108
        BYTE   W06
        BYTE           N04     Fs0   v097
        BYTE   W06
FootstepsOfFate_1_LOOP:
        BYTE           N06     Fs1   v122
        BYTE   W24
        BYTE           N07     Fs0
        BYTE   W24
        BYTE           N08
        BYTE   W24
// 007   ----------------------------------------
FootstepsOfFate_1_7:
        BYTE           N03     Fs0   v101
        BYTE   W06
        BYTE           N02     Fs0   v097
        BYTE   W06
        BYTE           N03     Fs0   v113
        BYTE   W12
        BYTE           N04     Fs1   v094
        BYTE   W24
        BYTE           N08     Fs0   v117
        BYTE   W24
        BYTE           N07     Fs0   v122
        BYTE   W24
        BYTE   PEND
// 008   ----------------------------------------
        BYTE   PATT
         POIN2  FootstepsOfFate_1_4
// 009   ----------------------------------------
        BYTE   PATT
         POIN2  FootstepsOfFate_1_5
// 010   ----------------------------------------
        BYTE           N05     Fs0   v117
        BYTE   W12
        BYTE           N02     Fs0   v108
        BYTE   W06
        BYTE           N04     Fs0   v097
        BYTE   W06
        BYTE           N06     Dn0   v122
        BYTE   W24
        BYTE           N07
        BYTE   W24
        BYTE           N08
        BYTE   W24
// 011   ----------------------------------------
        BYTE           N03     Dn0   v101
        BYTE   W06
        BYTE           N02     Dn0   v097
        BYTE   W06
        BYTE           N03     Dn0   v113
        BYTE   W12
        BYTE           N04     Dn1   v094
        BYTE   W24
        BYTE           N08     Dn1   v117
        BYTE   W24
        BYTE           N07     Dn1   v122
        BYTE   W24
// 012   ----------------------------------------
        BYTE           N04     Dn1   v117
        BYTE   W12
        BYTE           N05     Dn1   v097
        BYTE   W06
        BYTE           N03     En1   v117
        BYTE   W06
        BYTE           N06     Fs1   v127
        BYTE   W24
        BYTE           N05     Fs0
        BYTE   W24
        BYTE           N04
        BYTE   W24
// 013   ----------------------------------------
        BYTE   PATT
         POIN2  FootstepsOfFate_1_5
// 014   ----------------------------------------
        BYTE           N05     Fs0   v117
        BYTE   W12
        BYTE           N02     Fs0   v108
        BYTE   W06
        BYTE           N04     Fs0   v097
        BYTE   W06
        BYTE           N06     Fs1   v122
        BYTE   W24
        BYTE           N07     Fs0
        BYTE   W24
        BYTE           N08
        BYTE   W24
// 015   ----------------------------------------
        BYTE   PATT
         POIN2  FootstepsOfFate_1_7
// 016   ----------------------------------------
        BYTE   PATT
         POIN2  FootstepsOfFate_1_4
// 017   ----------------------------------------
        BYTE   PATT
         POIN2  FootstepsOfFate_1_5
// 018   ----------------------------------------
        BYTE           N05     Fs0   v117
        BYTE   W12
        BYTE           N02     Fs0   v108
        BYTE   W06
        BYTE           N04     Fs0   v097
        BYTE   W06
        BYTE           N06     En0   v122
        BYTE   W24
        BYTE           N07
        BYTE   W24
        BYTE           N08
        BYTE   W24
// 019   ----------------------------------------
        BYTE           N03     En0   v101
        BYTE   W06
        BYTE           N02     En0   v097
        BYTE   W06
        BYTE           N03     En0   v113
        BYTE   W06
        BYTE           N05     Fs0   v098
        BYTE   W06
        BYTE           N04     Gs0   v112
        BYTE   W24
        BYTE           N08     Gs0   v117
        BYTE   W24
        BYTE           N07     Gs0   v122
        BYTE   W24
// 020   ----------------------------------------
        BYTE           N04     Gs0   v117
        BYTE   W12
        BYTE           N05     Ds1   v097
        BYTE   W06
        BYTE           N03     Gs1   v104
        BYTE   W06
        BYTE           N80     Gn0   v094
        BYTE   W72
// 021   ----------------------------------------
FootstepsOfFate_1_21:
        BYTE   W12
        BYTE           N05     Gn0   v094
        BYTE   W12
        BYTE           N03     Gn0   v089
        BYTE   W06
        BYTE           N76     Gn0   v089   gtp1
        BYTE   W66
        BYTE   PEND
// 022   ----------------------------------------
        BYTE   W12
        BYTE           N02     Gn0   v075
        BYTE   W06
        BYTE           N04     Gn0   v064
        BYTE   W06
        BYTE           N80     Gs0   v094
        BYTE   W72
// 023   ----------------------------------------
        BYTE   W12
        BYTE           N05
        BYTE   W12
        BYTE           N03     Gs0   v089
        BYTE   W06
        BYTE           N76     Gs0   v089   gtp1
        BYTE   W66
// 024   ----------------------------------------
        BYTE   W12
        BYTE           N02     Gs0   v075
        BYTE   W06
        BYTE           N04     Gs0   v064
        BYTE   W06
        BYTE           N80     Gn0   v094
        BYTE   W72
// 025   ----------------------------------------
        BYTE   PATT
         POIN2  FootstepsOfFate_1_21
// 026   ----------------------------------------
        BYTE   W12
        BYTE           N02     Gn0   v086
        BYTE   W06
        BYTE           N04     Gn0   v075
        BYTE   W06
        BYTE           N80     Gs0   v113
        BYTE   W72
// 027   ----------------------------------------
        BYTE   W12
        BYTE           N05     Gs0   v112
        BYTE   W12
        BYTE           N03     Gs0   v122
        BYTE   W06
        BYTE           N40     Gs0   v122   gtp1
        BYTE   W42
        BYTE           N23
        BYTE   W24
// 028   ----------------------------------------
        BYTE                   Gn0
        BYTE   W24
        BYTE           N24     Fs0   v100   gtp2
        BYTE   W36
        BYTE           N36     Fs0   v104   gtp1
        BYTE   W36
// 029   ----------------------------------------
        BYTE   W12
        BYTE           N02     Fs0   v091
        BYTE   W06
        BYTE                   Fs0   v069
        BYTE   W06
        BYTE           N24     Fs0   v095
        BYTE   W36
        BYTE           N42
        BYTE   W36
// 030   ----------------------------------------
        BYTE   W12
        BYTE           N03
        BYTE   W12
        BYTE           N24     Fs0   v095   gtp2
        BYTE   W36
        BYTE           N36     Fs0   v100   gtp2
        BYTE   W36
// 031   ----------------------------------------
        BYTE   W12
        BYTE           N03
        BYTE   W12
        BYTE           N24     Fs0   v100   gtp2
        BYTE   W36
        BYTE           N40     Fs0   v095
        BYTE   W36
// 032   ----------------------------------------
        BYTE   W12
        BYTE           N02     En0   v084
        BYTE   W12
        BYTE           N24     Fs0   v091
        BYTE   W36
        BYTE           N44     Fs0   v087   gtp3
        BYTE   W36
// 033   ----------------------------------------
        BYTE   W24
        BYTE           N24     Fs0   v095   gtp1
        BYTE   W36
        BYTE           N42     Fs0   v087
        BYTE   W36
// 034   ----------------------------------------
        BYTE   W12
        BYTE           N03
        BYTE   W12
        BYTE           N24     Fs0   v091   gtp1
        BYTE   W36
        BYTE           N36     Fs0   v095   gtp1
        BYTE   W36
// 035   ----------------------------------------
        BYTE   W12
        BYTE           N03     Fs0   v087
        BYTE   W12
        BYTE           N24     Fs0   v100   gtp2
        BYTE   W36
        BYTE           N36     Fs0   v100   gtp3
        BYTE   W36
// 036   ----------------------------------------
        BYTE   W12
        BYTE           N08     Dn0   v108
        BYTE   W06
        BYTE           N06     En0
        BYTE   W06
        BYTE           N80     Fs0   v127   gtp1
        BYTE   W72
// 037   ----------------------------------------
        BYTE   W12
        BYTE           N05
        BYTE   W12
        BYTE           N76
        BYTE   W72
// 038   ----------------------------------------
        BYTE   W12
        BYTE           N02     Fs0   v108
        BYTE   W06
        BYTE           N04     Fs0   v097
        BYTE   W06
        BYTE           N68     Fs0   v122   gtp3
        BYTE   W72
// 039   ----------------------------------------
        BYTE           N03     Fs0   v101
        BYTE   W06
        BYTE           N02     Fs0   v097
        BYTE   W06
        BYTE           N03     Fs0   v113
        BYTE   W12
        BYTE           N68     Fs0   v094   gtp3
        BYTE   W72
// 040   ----------------------------------------
        BYTE           N04     Fs0   v117
        BYTE   W12
        BYTE           N05     Bn0   v097
        BYTE   W06
        BYTE           N03     Cs1   v117
        BYTE   W06
        BYTE           N68     Fs0   v122   gtp3
        BYTE   W72
// 041   ----------------------------------------
        BYTE   PATT
         POIN2  FootstepsOfFate_1_7
// 042   ----------------------------------------
        BYTE   PATT
         POIN2  FootstepsOfFate_1_4
// 043   ----------------------------------------
        BYTE   PATT
         POIN2  FootstepsOfFate_1_5
// 044   ----------------------------------------
        BYTE           N05     Fs0   v117
        BYTE   W12
        BYTE           N02     Fs0   v108
        BYTE   W06
        BYTE           N04     Fs0   v097
        BYTE   W06
        BYTE   GoTo
         POIN2  FootstepsOfFate_1_LOOP
        BYTE   W02
        BYTE   FINE

//****************** Track 2 (Midi-Chn.2) ******************//

FootstepsOfFate_2:
        BYTE   KEYSH   FootstepsOfFate_key+0
// 000   ----------------------------------------
        BYTE           VOICE   127
        BYTE           VOL     48
        BYTE   W24
        BYTE           N06     Dn1   v076
        BYTE   W24
        BYTE           N05     Dn1   v062
        BYTE   W06
        BYTE                   Ds1   v060
        BYTE   W06
        BYTE           N11     Ds1   v068
        BYTE   W12
        BYTE           N02     Dn1   v082
        BYTE   W03
        BYTE           N06     Ds1   v064
        BYTE   W21
// 001   ----------------------------------------
FootstepsOfFate_2_1:
        BYTE           N04     Dn1   v067
        BYTE   W12
        BYTE           N05     Ds1   v050
        BYTE   W06
        BYTE                   Dn1   v088
        BYTE   W06
        BYTE                   Ds1   v082
        BYTE   W06
        BYTE           N08     Dn1   v069
        BYTE   W12
        BYTE           N05     Dn1   v062
        BYTE   W06
        BYTE                   Dn1
        BYTE   W06
        BYTE                   Ds1
        BYTE   W06
        BYTE                   Ds1   v082
        BYTE   W06
        BYTE                   Ds1   v062
        BYTE   W06
        BYTE           N02     Ds1   v072
        BYTE   W03
        BYTE           N06     Dn1   v066
        BYTE   W09
        BYTE                   Dn1
        BYTE   W12
        BYTE   PEND
// 002   ----------------------------------------
FootstepsOfFate_2_2:
        BYTE           N05     Dn1   v062
        BYTE   W06
        BYTE                   Ds1   v060
        BYTE   W06
        BYTE                   Dn1   v068
        BYTE   W06
        BYTE                   Ds1   v066
        BYTE   W06
        BYTE                   Dn1   v082
        BYTE   W24
        BYTE                   Ds1   v062
        BYTE   W06
        BYTE                   Dn1
        BYTE   W06
        BYTE           N11     Ds1   v066
        BYTE   W12
        BYTE           N09     Dn1   v064
        BYTE   W12
        BYTE           N08     Ds1   v056
        BYTE   W12
        BYTE   PEND
// 003   ----------------------------------------
FootstepsOfFate_2_3:
        BYTE           N04     Dn1   v067
        BYTE   W06
        BYTE                   Ds1   v077
        BYTE   W06
        BYTE           N05     Dn1   v074
        BYTE   W06
        BYTE                   Ds1   v091
        BYTE   W06
        BYTE                   Dn1   v100
        BYTE   W06
        BYTE                   Ds1   v066
        BYTE   W06
        BYTE                   Dn1   v081
        BYTE   W06
        BYTE                   Ds1
        BYTE   W06
        BYTE                   Dn1   v097
        BYTE   W06
        BYTE                   Ds1   v081
        BYTE   W06
        BYTE           N11
        BYTE   W12
        BYTE           N05     Dn1   v108
        BYTE   W06
        BYTE                   Ds1   v081
        BYTE   W06
        BYTE           N02     Ds1   v105
        BYTE   W03
        BYTE                   Dn1   v081
        BYTE   W03
        BYTE           N05     Ds1
        BYTE   W06
        BYTE   PEND
// 004   ----------------------------------------
FootstepsOfFate_2_4:
        BYTE           N23     Ds1   v108
        BYTE   W24
        BYTE           N06     Dn1   v122
        BYTE   W24
        BYTE           N04     Dn1   v102
        BYTE   W24
        BYTE           N03     Dn1   v088
        BYTE   W06
        BYTE           N04     Ds1   v072
        BYTE   W18
        BYTE   PEND
// 005   ----------------------------------------
FootstepsOfFate_2_5:
        BYTE           N03     Dn1   v094
        BYTE   W06
        BYTE                   Ds1   v078
        BYTE   W06
        BYTE           N11     Ds1   v117
        BYTE   W12
        BYTE           N05     Dn1   v127
        BYTE   W24
        BYTE                   Ds1   v117
        BYTE   W06
        BYTE                   Dn1   v127
        BYTE   W18
        BYTE                   Dn1   v106
        BYTE   W06
        BYTE                   Ds1   v095
        BYTE   W12
        BYTE                   Dn1   v097
        BYTE   W06
        BYTE   PEND
// 006   ----------------------------------------
        BYTE                   Dn1   v112
        BYTE   W06
        BYTE                   Ds1   v116
        BYTE   W06
        BYTE           N11     Ds1   v127
        BYTE   W12
FootstepsOfFate_2_LOOP:
        BYTE           N06     Dn1   v127
        BYTE   W24
        BYTE           N04     Dn1   v102
        BYTE   W24
        BYTE           N03     Dn1   v088
        BYTE   W06
        BYTE           N04     Ds1   v072
        BYTE   W18
// 007   ----------------------------------------
FootstepsOfFate_2_7:
        BYTE           N03     Dn1   v094
        BYTE   W06
        BYTE                   Ds1   v078
        BYTE   W06
        BYTE           N11     Ds1   v108
        BYTE   W12
        BYTE           N06     Dn1   v097
        BYTE   W24
        BYTE           N05     Ds1   v090
        BYTE   W06
        BYTE                   Dn1   v101
        BYTE   W12
        BYTE                   Ds1   v098
        BYTE   W06
        BYTE                   Dn1   v106
        BYTE   W06
        BYTE                   Ds1   v095
        BYTE   W12
        BYTE                   Dn1   v097
        BYTE   W06
        BYTE   PEND
// 008   ----------------------------------------
FootstepsOfFate_2_8:
        BYTE           N05     Dn1   v117
        BYTE   W06
        BYTE                   Ds1   v108
        BYTE   W06
        BYTE           N11     Ds1   v127
        BYTE   W12
        BYTE           N06     Dn1   v122
        BYTE   W24
        BYTE           N04     Dn1   v102
        BYTE   W24
        BYTE           N03     Dn1   v088
        BYTE   W06
        BYTE           N04     Ds1   v072
        BYTE   W18
        BYTE   PEND
// 009   ----------------------------------------
        BYTE   PATT
         POIN2  FootstepsOfFate_2_5
// 010   ----------------------------------------
FootstepsOfFate_2_10:
        BYTE           N05     Dn1   v127
        BYTE   W06
        BYTE                   Ds1
        BYTE   W06
        BYTE           N11
        BYTE   W12
        BYTE           N06     Dn1
        BYTE   W24
        BYTE           N04     Dn1   v102
        BYTE   W24
        BYTE           N03     Dn1   v088
        BYTE   W06
        BYTE           N04     Ds1   v072
        BYTE   W18
        BYTE   PEND
// 011   ----------------------------------------
        BYTE   PATT
         POIN2  FootstepsOfFate_2_7
// 012   ----------------------------------------
        BYTE           N23     Ds1   v117
        BYTE   W24
        BYTE           N06     Dn1   v122
        BYTE   W24
        BYTE           N04     Dn1   v102
        BYTE   W24
        BYTE           N03     Dn1   v088
        BYTE   W06
        BYTE           N04     Ds1   v072
        BYTE   W18
// 013   ----------------------------------------
        BYTE   PATT
         POIN2  FootstepsOfFate_2_5
// 014   ----------------------------------------
        BYTE           N05     Dn1   v112
        BYTE   W06
        BYTE                   Ds1   v116
        BYTE   W06
        BYTE           N11     Ds1   v127
        BYTE   W12
        BYTE           N06     Dn1
        BYTE   W24
        BYTE           N04     Dn1   v102
        BYTE   W24
        BYTE           N03     Dn1   v088
        BYTE   W06
        BYTE           N04     Ds1   v072
        BYTE   W18
// 015   ----------------------------------------
        BYTE   PATT
         POIN2  FootstepsOfFate_2_7
// 016   ----------------------------------------
        BYTE   PATT
         POIN2  FootstepsOfFate_2_8
// 017   ----------------------------------------
        BYTE   PATT
         POIN2  FootstepsOfFate_2_5
// 018   ----------------------------------------
        BYTE   PATT
         POIN2  FootstepsOfFate_2_10
// 019   ----------------------------------------
        BYTE   PATT
         POIN2  FootstepsOfFate_2_7
// 020   ----------------------------------------
        BYTE           N23     Ds1   v117
        BYTE   W24
        BYTE           N06     Dn1   v090
        BYTE   W24
        BYTE           N04     Dn1   v058
        BYTE   W24
        BYTE                   Dn1   v073
        BYTE   W24
// 021   ----------------------------------------
        BYTE                   Dn1   v090
        BYTE   W12
        BYTE           N03     Ds1   v074
        BYTE   W12
        BYTE           N05     Dn1   v081
        BYTE   W06
        BYTE           N08     Ds1   v071
        BYTE   W18
        BYTE           N04     Dn1   v058
        BYTE   W24
        BYTE                   Dn1   v073
        BYTE   W24
// 022   ----------------------------------------
        BYTE                   Dn1   v090
        BYTE   W24
        BYTE           N06     Dn1   v081
        BYTE   W24
        BYTE           N04     Dn1   v058
        BYTE   W24
        BYTE                   Dn1   v073
        BYTE   W24
// 023   ----------------------------------------
        BYTE                   Dn1   v084
        BYTE   W12
        BYTE                   Dn1   v067
        BYTE   W12
        BYTE           N05     Dn1   v060
        BYTE   W06
        BYTE           N06     Ds1   v062
        BYTE   W18
        BYTE           N04     Dn1   v058
        BYTE   W24
        BYTE                   Dn1   v073
        BYTE   W06
        BYTE                   Ds1
        BYTE   W06
        BYTE           N02     Dn1   v054
        BYTE   W03
        BYTE                   Ds1   v042
        BYTE   W03
        BYTE                   Dn1   v054
        BYTE   W03
        BYTE                   Ds1   v063
        BYTE   W03
// 024   ----------------------------------------
        BYTE           N06     Dn1   v074
        BYTE   W12
        BYTE           N05     Ds1   v081
        BYTE   W06
        BYTE                   Dn1   v067
        BYTE   W06
        BYTE           N03     Dn1   v096
        BYTE   W06
        BYTE           N04     Dn1   v021
        BYTE   W06
        BYTE           N03     Ds1   v061
        BYTE   W06
        BYTE           N04     Dn1   v021
        BYTE   W06
        BYTE           N03     Dn1   v073
        BYTE   W06
        BYTE           N04     Dn1   v021
        BYTE   W06
        BYTE                   Ds1   v059
        BYTE   W06
        BYTE                   Dn1   v021
        BYTE   W06
        BYTE           N02     Dn1   v055
        BYTE   W06
        BYTE           N04     Dn1   v021
        BYTE   W06
        BYTE           N05     Ds1   v043
        BYTE   W06
        BYTE           N04     Dn1   v021
        BYTE   W06
// 025   ----------------------------------------
        BYTE                   Dn1   v067
        BYTE   W06
        BYTE           N05     Ds1   v049
        BYTE   W06
        BYTE           N04     Dn1   v055
        BYTE   W06
        BYTE           N05     Ds1   v057
        BYTE   W06
        BYTE                   Dn1   v077
        BYTE   W06
        BYTE           N04     Dn1   v021
        BYTE   W06
        BYTE           N05     Ds1   v059
        BYTE   W06
        BYTE           N04     Ds1   v021
        BYTE   W06
        BYTE                   Dn1   v079
        BYTE   W06
        BYTE                   Dn1   v021
        BYTE   W06
        BYTE                   Ds1   v061
        BYTE   W06
        BYTE                   Ds1   v021
        BYTE   W06
        BYTE           N05     Dn1   v064
        BYTE   W06
        BYTE                   Ds1   v059
        BYTE   W06
        BYTE           N04     Dn1   v021
        BYTE   W06
        BYTE           N05     Ds1   v067
        BYTE   W06
// 026   ----------------------------------------
        BYTE                   Dn1   v083
        BYTE   W06
        BYTE                   Ds1   v061
        BYTE   W06
        BYTE           N04     Dn1   v056
        BYTE   W06
        BYTE           N05     Ds1   v059
        BYTE   W06
        BYTE                   Dn1   v079
        BYTE   W06
        BYTE           N04     Ds1   v021
        BYTE   W06
        BYTE           N05     Ds1   v069
        BYTE   W06
        BYTE           N04     Dn1   v021
        BYTE   W06
        BYTE                   Dn1   v089
        BYTE   W06
        BYTE                   Dn1   v021
        BYTE   W06
        BYTE           N05     Ds1   v069
        BYTE   W06
        BYTE           N04     Ds1   v030
        BYTE   W06
        BYTE           N03     Dn1   v081
        BYTE   W06
        BYTE           N04     Dn1   v040
        BYTE   W06
        BYTE                   Ds1   v076
        BYTE   W09
        BYTE           N02     Ds1   v043
        BYTE   W03
// 027   ----------------------------------------
        BYTE           N04     Dn1   v075
        BYTE   W06
        BYTE           N05     Ds1   v082
        BYTE   W06
        BYTE                   Dn1   v092
        BYTE   W06
        BYTE                   Ds1   v086
        BYTE   W06
        BYTE                   Dn1   v113
        BYTE   W06
        BYTE           N04     Dn1   v048
        BYTE   W06
        BYTE                   Ds1   v110
        BYTE   W06
        BYTE                   Ds1   v048
        BYTE   W06
        BYTE                   Dn1   v127
        BYTE   W06
        BYTE                   Dn1   v048
        BYTE   W06
        BYTE                   Ds1   v110
        BYTE   W06
        BYTE                   Ds1   v048
        BYTE   W06
        BYTE           N05     Dn1   v127
        BYTE   W06
        BYTE                   Ds1   v104
        BYTE   W06
        BYTE                   Dn1   v113
        BYTE   W06
        BYTE                   Ds1   v100
        BYTE   W06
// 028   ----------------------------------------
        BYTE           N04     Dn1   v127
        BYTE   W06
        BYTE           N05     Ds1   v083
        BYTE   W06
        BYTE           N11     Ds1   v127
        BYTE   W12
        BYTE           N15     Dn1
        BYTE           N13     Cs3
        BYTE   W24
        BYTE           N11     Ds1   v097
        BYTE   W12
        BYTE           N17     Ds1   v104
        BYTE   W24
        BYTE           N03     Ds1   v110
        BYTE   W12
// 029   ----------------------------------------
        BYTE           N05     Dn1   v117
        BYTE   W06
        BYTE                   Ds1   v087
        BYTE   W06
        BYTE                   Dn1   v101
        BYTE   W12
        BYTE           N23     Dn1   v127
        BYTE           N13     Cn3   v050
        BYTE   W24
        BYTE           N03     Ds1   v072
        BYTE   W12
        BYTE           N18     Ds1   v110
        BYTE   W24
        BYTE           N04     Ds1   v100
        BYTE   W12
// 030   ----------------------------------------
        BYTE                   Dn1   v108
        BYTE   W06
        BYTE           N05     Ds1   v069
        BYTE   W06
        BYTE                   Dn1   v091
        BYTE           N05     Cs3   v107
        BYTE   W06
        BYTE                   Ds1   v084
        BYTE   W06
        BYTE           N23     Dn1   v117
        BYTE           N13     Cs3   v127
        BYTE   W24
        BYTE           N11     Ds1   v104
        BYTE   W12
        BYTE           N19
        BYTE   W24
        BYTE           N03     Ds1   v100
        BYTE   W12
// 031   ----------------------------------------
        BYTE           N05     Dn1   v104
        BYTE   W06
        BYTE                   Ds1   v069
        BYTE   W06
        BYTE           N04     Dn1   v084
        BYTE   W12
        BYTE           N13     Dn1   v122
        BYTE           N13     Cn3   v050
        BYTE   W24
        BYTE           N03     Ds1   v095
        BYTE   W12
        BYTE           N23     Ds1   v104
        BYTE   W24
        BYTE           N02     Ds1   v095
        BYTE   W12
// 032   ----------------------------------------
        BYTE           N04     Dn1   v101
        BYTE   W06
        BYTE           N05     Ds1   v084
        BYTE   W06
        BYTE           N04     Dn1   v082
        BYTE           N05     Cs3   v107
        BYTE   W06
        BYTE                   Ds1   v084
        BYTE   W06
        BYTE           N16     Dn1   v108
        BYTE           N13     Cs3   v127
        BYTE   W24
        BYTE           N03     Dn1   v101
        BYTE   W12
        BYTE           N32     Ds1   v101   gtp3
        BYTE   W36
// 033   ----------------------------------------
        BYTE           N04     Dn1   v108
        BYTE   W06
        BYTE           N05     Ds1   v087
        BYTE   W06
        BYTE           N04     Dn1   v088
        BYTE   W06
        BYTE           N05     Ds1   v072
        BYTE   W06
        BYTE           N07     Dn1   v101
        BYTE           N13     Cn3   v050
        BYTE   W12
        BYTE           N03     Dn1   v113
        BYTE   W12
        BYTE                   Dn1   v104
        BYTE   W12
        BYTE           N17     Dn1   v113
        BYTE   W24
        BYTE           N03     Ds1   v091
        BYTE   W06
        BYTE           N05     Ds1   v077
        BYTE   W06
// 034   ----------------------------------------
        BYTE           N04     Dn1   v086
        BYTE   W06
        BYTE           N05     Ds1   v081
        BYTE   W06
        BYTE                   Dn1   v082
        BYTE           N05     Cs3   v107
        BYTE   W06
        BYTE                   Ds1   v072
        BYTE   W06
        BYTE           N13     Dn1   v097
        BYTE           N13     Cs3   v127
        BYTE   W24
        BYTE           N03     Ds1   v095
        BYTE   W12
        BYTE           N16
        BYTE   W24
        BYTE           N04     Dn1   v091
        BYTE   W12
// 035   ----------------------------------------
        BYTE                   Dn1   v108
        BYTE   W06
        BYTE           N05     Ds1   v036
        BYTE   W06
        BYTE                   Dn1   v091
        BYTE   W06
        BYTE                   Ds1   v066
        BYTE   W06
        BYTE                   Dn1   v104
        BYTE           N13     Cn3   v050
        BYTE   W12
        BYTE           N02     Dn1   v097
        BYTE   W12
        BYTE           N04
        BYTE   W12
        BYTE           N23     Ds1   v108
        BYTE   W24
        BYTE           N04     Ds1   v084
        BYTE   W12
// 036   ----------------------------------------
        BYTE           N05     Dn1   v117
        BYTE   W06
        BYTE                   Ds1   v095
        BYTE   W06
        BYTE                   Dn1   v104
        BYTE   W06
        BYTE           N04     Ds1   v100
        BYTE   W06
        BYTE           N80     Ds1   v093   gtp3
        BYTE   W15
        BYTE           VOL     47
        BYTE   W06
        BYTE                   46
        BYTE   W03
        BYTE                   45
        BYTE   W03
        BYTE                   44
        BYTE   W06
        BYTE                   43
        BYTE   W03
        BYTE                   42
        BYTE   W03
        BYTE                   41
        BYTE   W03
        BYTE                   40
        BYTE   W03
        BYTE                   39
        BYTE   W03
        BYTE                   38
        BYTE   W03
        BYTE                   37
        BYTE   W03
        BYTE                   36
        BYTE   W03
        BYTE                   35
        BYTE   W03
        BYTE                   33
        BYTE   W03
        BYTE                   32
        BYTE   W03
        BYTE                   30
        BYTE   W03
        BYTE                   28
        BYTE   W03
// 037   ----------------------------------------
        BYTE                   27
        BYTE   W03
        BYTE                   25
        BYTE   W09
        BYTE                   48
        BYTE           N03     Ds1   v094
        BYTE   W12
        BYTE           N05     Dn1   v100
        BYTE   W06
        BYTE                   Ds1   v092
        BYTE   W06
        BYTE           N68     Ds1   v055   gtp3
        BYTE   W05
        BYTE           VOL     46
        BYTE   W01
        BYTE                   45
        BYTE   W02
        BYTE                   43
        BYTE   W01
        BYTE                   42
        BYTE   W02
        BYTE                   40
        BYTE   W01
        BYTE                   39
        BYTE   W02
        BYTE                   37
        BYTE   W01
        BYTE                   36
        BYTE   W02
        BYTE                   34
        BYTE   W01
        BYTE                   33
        BYTE   W02
        BYTE                   31
        BYTE   W01
        BYTE                   30
        BYTE   W01
        BYTE                   29
        BYTE   W04
        BYTE                   30
        BYTE   W05
        BYTE                   31
        BYTE   W03
        BYTE                   32
        BYTE   W03
        BYTE                   33
        BYTE   W03
        BYTE                   34
        BYTE   W03
        BYTE                   35
        BYTE   W03
        BYTE                   36
        BYTE   W01
        BYTE                   37
        BYTE   W03
        BYTE                   38
        BYTE   W02
        BYTE                   39
        BYTE   W01
        BYTE                   40
        BYTE   W02
        BYTE                   41
        BYTE   W03
        BYTE                   43
        BYTE   W01
        BYTE                   44
        BYTE   W01
// 038   ----------------------------------------
        BYTE   W01
        BYTE                   45
        BYTE   W01
        BYTE                   46
        BYTE   W02
        BYTE                   48
        BYTE   W08
        BYTE           N11     Ds1   v093
        BYTE   W12
        BYTE           N06     Dn1   v076
        BYTE   W24
        BYTE           N05     Dn1   v062
        BYTE   W06
        BYTE                   Ds1   v060
        BYTE   W06
        BYTE           N11     Ds1   v068
        BYTE   W12
        BYTE           N02     Dn1   v082
        BYTE   W03
        BYTE           N06     Ds1   v064
        BYTE   W21
// 039   ----------------------------------------
        BYTE   PATT
         POIN2  FootstepsOfFate_2_1
// 040   ----------------------------------------
        BYTE   PATT
         POIN2  FootstepsOfFate_2_2
// 041   ----------------------------------------
        BYTE   PATT
         POIN2  FootstepsOfFate_2_3
// 042   ----------------------------------------
        BYTE   PATT
         POIN2  FootstepsOfFate_2_4
// 043   ----------------------------------------
        BYTE   PATT
         POIN2  FootstepsOfFate_2_5
// 044   ----------------------------------------
        BYTE           N05     Dn1   v112
        BYTE   W06
        BYTE                   Ds1   v116
        BYTE   W06
        BYTE           N11     Ds1   v127
        BYTE   W12
        BYTE   GoTo
         POIN2  FootstepsOfFate_2_LOOP
        BYTE   W02
        BYTE   FINE

//****************** Track 3 (Midi-Chn.3) ******************//

FootstepsOfFate_3:
        BYTE   KEYSH   FootstepsOfFate_key+0
// 000   ----------------------------------------
        BYTE           VOICE   47
        BYTE           VOL     49
        BYTE           N05     Fs2   v027
        BYTE   W06
        BYTE                   Fs2   v069
        BYTE   W06
        BYTE                   Fs2   v065
        BYTE   W06
        BYTE                   Fs2   v108
        BYTE   W06
        BYTE           N52     Fs2   v117   gtp1
        BYTE   W72
// 001   ----------------------------------------
FootstepsOfFate_3_1:
        BYTE   W12
        BYTE           N05     Fs2   v104
        BYTE   W06
        BYTE                   Fs2   v080
        BYTE   W06
        BYTE           N23     Fs2   v122
        BYTE   W24
        BYTE           N05     Fs2   v117
        BYTE   W06
        BYTE           N32     Fs2   v113   gtp3
        BYTE   W42
        BYTE   PEND
// 002   ----------------------------------------
FootstepsOfFate_3_2:
        BYTE   W24
        BYTE           N52     Fs2   v122   gtp1
        BYTE   W72
        BYTE   PEND
// 003   ----------------------------------------
FootstepsOfFate_3_3:
        BYTE   W12
        BYTE           N05     Fs2   v091
        BYTE   W06
        BYTE                   Fs2   v074
        BYTE   W06
        BYTE           N23     Fs2   v122
        BYTE   W24
        BYTE           N05     Fs2   v113
        BYTE   W06
        BYTE           N11     Fs2   v101
        BYTE   W12
        BYTE           N28     Fs2   v101   gtp1
        BYTE   W30
        BYTE   PEND
// 004   ----------------------------------------
FootstepsOfFate_3_4:
        BYTE           N23     Fs3   v101
        BYTE   W24
        BYTE           N52     Fs2   v117   gtp1
        BYTE   W72
        BYTE   PEND
// 005   ----------------------------------------
        BYTE   PATT
         POIN2  FootstepsOfFate_3_1
// 006   ----------------------------------------
        BYTE   W24
FootstepsOfFate_3_LOOP:
        BYTE           N52     Fs2   v122   gtp1
        BYTE   W72
// 007   ----------------------------------------
        BYTE   PATT
         POIN2  FootstepsOfFate_3_3
// 008   ----------------------------------------
        BYTE   PATT
         POIN2  FootstepsOfFate_3_4
// 009   ----------------------------------------
        BYTE   PATT
         POIN2  FootstepsOfFate_3_1
// 010   ----------------------------------------
        BYTE   W24
        BYTE           N52     Dn2   v122   gtp1
        BYTE   W72
// 011   ----------------------------------------
        BYTE   W12
        BYTE           N05     Dn2   v091
        BYTE   W06
        BYTE                   Dn2   v074
        BYTE   W06
        BYTE           N23     Dn2   v122
        BYTE   W24
        BYTE           N05     Dn2   v113
        BYTE   W06
        BYTE           N11     Dn2   v101
        BYTE   W12
        BYTE           N28     Dn2   v101   gtp1
        BYTE   W30
// 012   ----------------------------------------
        BYTE           N23     En3
        BYTE   W24
        BYTE           N52     Fs2   v117   gtp1
        BYTE   W72
// 013   ----------------------------------------
        BYTE   PATT
         POIN2  FootstepsOfFate_3_1
// 014   ----------------------------------------
        BYTE   PATT
         POIN2  FootstepsOfFate_3_2
// 015   ----------------------------------------
        BYTE   PATT
         POIN2  FootstepsOfFate_3_3
// 016   ----------------------------------------
        BYTE   PATT
         POIN2  FootstepsOfFate_3_4
// 017   ----------------------------------------
        BYTE   PATT
         POIN2  FootstepsOfFate_3_1
// 018   ----------------------------------------
        BYTE   W24
        BYTE           N52     En2   v122   gtp1
        BYTE   W72
// 019   ----------------------------------------
        BYTE   W12
        BYTE           N05     En2   v091
        BYTE   W06
        BYTE                   En2   v074
        BYTE   W06
        BYTE           N23     Gs2   v122
        BYTE   W24
        BYTE           N05     Gs2   v113
        BYTE   W06
        BYTE           N11     Gs2   v101
        BYTE   W12
        BYTE           N28     Gs2   v101   gtp1
        BYTE   W30
// 020   ----------------------------------------
        BYTE   W24
        BYTE                   Gn2   v088
        BYTE   W72
// 021   ----------------------------------------
        BYTE   W96
// 022   ----------------------------------------
        BYTE   W24
        BYTE           VOICE   71
        BYTE           PAN     c_v+9
        BYTE           VOL     55
        BYTE   W03
        BYTE                   54
        BYTE   W01
        BYTE                   53
        BYTE   W03
        BYTE                   52
        BYTE   W02
        BYTE                   51
        BYTE   W01
        BYTE                   50
        BYTE   W02
        BYTE                   49
        BYTE   W03
        BYTE                   48
        BYTE   W01
        BYTE                   47
        BYTE   W02
        BYTE                   46
        BYTE   W03
        BYTE                   45
        BYTE   W01
        BYTE                   44
        BYTE   W02
        BYTE                   43
        BYTE           N23     Gs2   v074
        BYTE   W03
        BYTE           VOL     42
        BYTE   W01
        BYTE                   41
        BYTE   W02
        BYTE                   40
        BYTE   W01
        BYTE                   39
        BYTE   W03
        BYTE                   38
        BYTE   W02
        BYTE                   37
        BYTE   W01
        BYTE                   36
        BYTE   W03
        BYTE                   35
        BYTE   W02
        BYTE                   34
        BYTE   W01
        BYTE                   33
        BYTE   W05
        BYTE           N23     An2   v067
        BYTE   W03
        BYTE           VOL     34
        BYTE   W04
        BYTE                   35
        BYTE   W03
        BYTE                   36
        BYTE   W03
        BYTE                   37
        BYTE   W03
        BYTE                   38
        BYTE   W02
        BYTE                   39
        BYTE   W03
        BYTE                   40
        BYTE   W01
        BYTE                   41
        BYTE   W02
// 023   ----------------------------------------
        BYTE                   42
        BYTE           N23     Bn2   v097
        BYTE   W01
        BYTE           VOL     43
        BYTE   W02
        BYTE                   44
        BYTE   W01
        BYTE                   45
        BYTE   W02
        BYTE                   47
        BYTE   W01
        BYTE                   48
        BYTE   W02
        BYTE                   50
        BYTE   W01
        BYTE                   52
        BYTE   W14
        BYTE           N23     Cs3   v081
        BYTE   W24
        BYTE                   Bn2   v097
        BYTE   W24
        BYTE                   An2   v069
        BYTE   W15
        BYTE           VOL     51
        BYTE   W03
        BYTE                   50
        BYTE   W03
        BYTE                   49
        BYTE   W03
// 024   ----------------------------------------
        BYTE           N23     Gs2
        BYTE   W02
        BYTE           VOL     48
        BYTE   W03
        BYTE                   47
        BYTE   W01
        BYTE                   46
        BYTE   W05
        BYTE                   45
        BYTE   W01
        BYTE                   44
        BYTE   W03
        BYTE                   43
        BYTE   W03
        BYTE                   42
        BYTE   W02
        BYTE                   41
        BYTE   W01
        BYTE                   40
        BYTE   W02
        BYTE                   39
        BYTE   W01
        BYTE           N54     Gn2   v058   gtp1
        BYTE   W02
        BYTE           VOL     38
        BYTE   W01
        BYTE                   37
        BYTE   W02
        BYTE                   36
        BYTE   W01
        BYTE                   35
        BYTE   W02
        BYTE                   34
        BYTE   W01
        BYTE                   33
        BYTE   W02
        BYTE                   32
        BYTE   W01
        BYTE                   30
        BYTE   W02
        BYTE                   29
        BYTE   W01
        BYTE                   28
        BYTE   W02
        BYTE                   26
        BYTE   W01
        BYTE                   25
        BYTE   W02
        BYTE                   23
        BYTE   W01
        BYTE                   22
        BYTE   W48
        BYTE   W03
// 025   ----------------------------------------
        BYTE   W96
// 026   ----------------------------------------
        BYTE   W96
// 027   ----------------------------------------
        BYTE   W96
// 028   ----------------------------------------
        BYTE   W24
        BYTE           VOICE   47
        BYTE           PAN     c_v+0
        BYTE           VOL     49
        BYTE           N17     Fs2   v119
        BYTE   W24
        BYTE           N02     Fs2   v110
        BYTE   W06
        BYTE           N03     Fs2   v092
        BYTE   W06
        BYTE           N52     Fs2   v115   gtp1
        BYTE   W36
// 029   ----------------------------------------
        BYTE   W24
        BYTE           N19     Fs2   v119
        BYTE   W24
        BYTE           N03     Fs2   v096
        BYTE   W06
        BYTE           N02     Fs2   v084
        BYTE   W06
        BYTE           N40     Fs2   v119   gtp1
        BYTE   W36
// 030   ----------------------------------------
        BYTE   W12
        BYTE           N06
        BYTE   W12
        BYTE           N20     Fs2   v125
        BYTE   W24
        BYTE           N03     Fs2   v106
        BYTE   W06
        BYTE                   Fs2   v084
        BYTE   W06
        BYTE           N52     Fs2   v119   gtp1
        BYTE   W36
// 031   ----------------------------------------
        BYTE   W24
        BYTE           N24     Fs2   v119   gtp3
        BYTE   W36
        BYTE                   Fs2
        BYTE   W36
// 032   ----------------------------------------
        BYTE           N01     Fs2   v102
        BYTE   W06
        BYTE           N02     Fs2   v089
        BYTE   W06
        BYTE           N03     Fs2   v084
        BYTE   W12
        BYTE           N20     Fs2   v119
        BYTE   W24
        BYTE           N02     Fs2   v102
        BYTE   W06
        BYTE                   Fs2   v081
        BYTE   W06
        BYTE           N54     Fs2   v119
        BYTE   W36
// 033   ----------------------------------------
        BYTE   W24
        BYTE           N16     Fs2   v092
        BYTE   W24
        BYTE           N02
        BYTE   W06
        BYTE           N03     Fs2   v081
        BYTE   W06
        BYTE           N36     Fs2   v110   gtp2
        BYTE   W36
// 034   ----------------------------------------
        BYTE   W24
        BYTE           N15
        BYTE   W18
        BYTE           N02     Fs2   v106
        BYTE   W06
        BYTE                   Fs2   v089
        BYTE   W06
        BYTE                   Fs2   v106
        BYTE   W06
        BYTE           N44     Fs2   v110   gtp2
        BYTE   W36
// 035   ----------------------------------------
        BYTE   W24
        BYTE           N17     Fs2   v119
        BYTE   W24
        BYTE           N06
        BYTE   W12
        BYTE           N56
        BYTE   W36
// 036   ----------------------------------------
        BYTE   W24
        BYTE           N52     Fs2   v117   gtp1
        BYTE   W72
// 037   ----------------------------------------
        BYTE   PATT
         POIN2  FootstepsOfFate_3_1
// 038   ----------------------------------------
        BYTE   PATT
         POIN2  FootstepsOfFate_3_2
// 039   ----------------------------------------
        BYTE   PATT
         POIN2  FootstepsOfFate_3_3
// 040   ----------------------------------------
        BYTE           N23     Fs3   v101
        BYTE   W24
        BYTE           N52     Fs2   v122   gtp1
        BYTE   W72
// 041   ----------------------------------------
        BYTE   PATT
         POIN2  FootstepsOfFate_3_3
// 042   ----------------------------------------
        BYTE   PATT
         POIN2  FootstepsOfFate_3_4
// 043   ----------------------------------------
        BYTE   PATT
         POIN2  FootstepsOfFate_3_1
// 044   ----------------------------------------
        BYTE   W24
        BYTE   GoTo
         POIN2  FootstepsOfFate_3_LOOP
        BYTE   W02
        BYTE   FINE

//****************** Track 4 (Midi-Chn.4) ******************//

FootstepsOfFate_4:
        BYTE   KEYSH   FootstepsOfFate_key+0
// 000   ----------------------------------------
        BYTE           VOICE   63
        BYTE           VOL     42
        BYTE   W24
        BYTE           PAN     c_v+18
        BYTE           N03     Gs1   v080
        BYTE           N03     An1   v072
        BYTE           N03     Cs2   v082
        BYTE   W06
        BYTE                   Gs1   v038
        BYTE           N03     An1   v030
        BYTE           N03     Cs2   v040
        BYTE   W18
        BYTE                   Gs1   v074
        BYTE           N03     An1   v064
        BYTE           N03     Cs2   v072
        BYTE   W06
        BYTE                   Gs1   v032
        BYTE           N03     An1   v022
        BYTE           N03     Cs2   v030
        BYTE   W18
        BYTE           N02     Gs1   v072
        BYTE           N04     An1   v069
        BYTE           N03     Cs2
        BYTE   W06
        BYTE           N02     Gs1   v030
        BYTE           N04     An1   v027
        BYTE           N03     Cs2
        BYTE   W18
// 001   ----------------------------------------
        BYTE           N04     Gs1   v067
        BYTE           N04     An1   v074
        BYTE           N04     Cs2   v082
        BYTE   W06
        BYTE                   Gs1   v025
        BYTE           N04     An1   v032
        BYTE           N04     Cs2   v040
        BYTE   W18
        BYTE           N03     Gs1   v062
        BYTE           N04     An1
        BYTE           N04     Cs2   v091
        BYTE   W06
        BYTE           N03     Gs1   v020
        BYTE           N04     An1
        BYTE           N04     Cs2   v049
        BYTE   W18
        BYTE           N02     Gs1   v082
        BYTE           N03     An1   v074
        BYTE           N04     Cs2   v088
        BYTE   W06
        BYTE           N02     Gs1   v040
        BYTE           N03     An1   v032
        BYTE           N04     Cs2   v046
        BYTE   W18
        BYTE           N03     Gs1   v080
        BYTE           N03     An1   v074
        BYTE           N04     Cs2   v097
        BYTE   W06
        BYTE           N03     Gs1   v038
        BYTE           N03     An1   v032
        BYTE           N04     Cs2   v055
        BYTE   W18
// 002   ----------------------------------------
        BYTE           N03     Gs1   v091
        BYTE           N03     An1   v077
        BYTE           N04     Cs2   v097
        BYTE   W06
        BYTE           N03     Gs1   v049
        BYTE           N03     An1   v035
        BYTE           N04     Cs2   v055
        BYTE   W18
        BYTE           N23     An1   v078
        BYTE           N23     Dn2
        BYTE   W24
        BYTE                   Gs1   v099
        BYTE           N23     Cs2
        BYTE   W24
        BYTE                   Cs2   v088
        BYTE           N23     Fs2
        BYTE   W24
// 003   ----------------------------------------
        BYTE                   Bn1   v087
        BYTE           N23     En2   v094
        BYTE   W24
        BYTE           N05     Gs2   v099
        BYTE   W06
        BYTE                   Fs2   v081
        BYTE   W06
        BYTE                   En2   v084
        BYTE   W06
        BYTE                   Bn1   v078
        BYTE   W06
        BYTE                   Bn2   v098
        BYTE   W06
        BYTE                   An2   v079
        BYTE   W06
        BYTE                   Gs2
        BYTE   W06
        BYTE                   En2   v075
        BYTE   W06
        BYTE                   Dn3   v091
        BYTE   W06
        BYTE                   Cs3   v074
        BYTE   W06
        BYTE                   Bn2   v096
        BYTE   W06
        BYTE                   Gs2   v089
        BYTE   W06
// 004   ----------------------------------------
        BYTE           N02     Gs1   v086
        BYTE           N02     Bn1
        BYTE   W03
        BYTE                   An1   v096
        BYTE           N02     Cs2
        BYTE   W03
        BYTE                   Bn1   v089
        BYTE           N02     Dn2
        BYTE   W03
        BYTE                   Cs2   v086
        BYTE           N02     En2
        BYTE   W03
        BYTE                   Dn2
        BYTE           N02     Fs2
        BYTE   W03
        BYTE                   En2   v096
        BYTE           N02     Gs2
        BYTE   W03
        BYTE                   Fs2   v089
        BYTE           N02     An2
        BYTE   W03
        BYTE                   Gs2   v086
        BYTE           N02     Bn2
        BYTE   W03
        BYTE           N80     An2   v075
        BYTE           N92     Cs3   v080   gtp2
        BYTE   W18
        BYTE           VOL     41
        BYTE   W09
        BYTE                   40
        BYTE   W09
        BYTE                   39
        BYTE   W06
        BYTE                   38
        BYTE   W06
        BYTE                   37
        BYTE   W06
        BYTE                   36
        BYTE   W06
        BYTE                   35
        BYTE   W03
        BYTE                   34
        BYTE   W06
        BYTE                   33
        BYTE   W03
// 005   ----------------------------------------
        BYTE                   32
        BYTE   W03
        BYTE                   31
        BYTE   W03
        BYTE                   30
        BYTE   W03
        BYTE                   29
        BYTE           N02     Dn2   v102
        BYTE   W03
        BYTE           VOL     28
        BYTE           N02     En2
        BYTE   W03
        BYTE           VOL     27
        BYTE           N02     Fs2
        BYTE   W03
        BYTE           VOL     26
        BYTE           N02     Gs2
        BYTE   W03
        BYTE           VOL     25
        BYTE           N02     An2
        BYTE   W02
        BYTE           VOL     23
        BYTE   W01
        BYTE           N44     Gs2   v092   gtp3
        BYTE                   Bn2   v109
        BYTE   W05
        BYTE           VOL     24
        BYTE   W09
        BYTE                   25
        BYTE   W09
        BYTE                   26
        BYTE   W06
        BYTE                   27
        BYTE   W06
        BYTE                   28
        BYTE   W06
        BYTE                   29
        BYTE   W06
        BYTE                   30
        BYTE   W01
        BYTE           N32     En2   v091   gtp3
        BYTE                   Gs2   v107
        BYTE   W02
        BYTE           VOL     31
        BYTE   W06
        BYTE                   32
        BYTE   W03
        BYTE                   33
        BYTE   W03
        BYTE                   34
        BYTE   W03
        BYTE                   35
        BYTE   W03
        BYTE                   36
        BYTE   W03
        BYTE                   37
        BYTE   W01
// 006   ----------------------------------------
        BYTE   W02
        BYTE                   39
        BYTE   W03
        BYTE                   40
        BYTE   W03
        BYTE                   42
        BYTE   W04
        BYTE           N05     Dn2   v094
        BYTE           N05     Fs2   v107
        BYTE   W06
        BYTE                   En2   v100
        BYTE           N05     Gs2   v115
        BYTE   W06
FootstepsOfFate_4_LOOP:
        BYTE           N05     En2   v090
        BYTE           N05     Gs2   v101
        BYTE   W06
        BYTE                   Fs2   v095
        BYTE           N05     An2   v109
        BYTE   W06
        BYTE           VOL     41
        BYTE           N66     An1   v092   gtp1
        BYTE                   Cs2   v107
        BYTE   W09
        BYTE           VOL     40
        BYTE   W09
        BYTE                   39
        BYTE   W06
        BYTE                   38
        BYTE   W06
        BYTE                   37
        BYTE   W06
        BYTE                   36
        BYTE   W06
        BYTE                   35
        BYTE   W06
        BYTE                   34
        BYTE   W03
        BYTE                   33
        BYTE   W06
        BYTE                   32
        BYTE   W03
// 007   ----------------------------------------
        BYTE                   31
        BYTE   W03
        BYTE                   30
        BYTE   W06
        BYTE                   29
        BYTE           N02     Cs2   v119
        BYTE           N02     Fs2
        BYTE   W03
        BYTE           VOL     28
        BYTE           N05     Fs2   v087
        BYTE           N05     An2   v097
        BYTE   W03
        BYTE           VOL     27
        BYTE   W02
        BYTE                   26
        BYTE   W01
        BYTE           N05     En2
        BYTE           N05     Gs2   v111
        BYTE   W06
        BYTE           N44     Gs1   v096   gtp3
        BYTE                   Bn1   v113
        BYTE   W08
        BYTE           VOL     27
        BYTE   W09
        BYTE                   28
        BYTE   W09
        BYTE                   29
        BYTE   W09
        BYTE                   30
        BYTE   W06
        BYTE                   31
        BYTE   W06
        BYTE                   32
        BYTE   W01
        BYTE           N44     Bn1   v096   gtp3
        BYTE                   En2   v113
        BYTE   W05
        BYTE           VOL     33
        BYTE   W06
        BYTE                   34
        BYTE   W03
        BYTE                   35
        BYTE   W06
        BYTE                   36
        BYTE   W03
        BYTE                   37
        BYTE   W01
// 008   ----------------------------------------
        BYTE   W02
        BYTE                   38
        BYTE   W03
        BYTE                   39
        BYTE   W03
        BYTE                   40
        BYTE   W03
        BYTE                   41
        BYTE   W03
        BYTE                   42
        BYTE   W10
        BYTE           N92     An1   v074   gtp3
        BYTE                   Cs2   v095
        BYTE   W13
        BYTE           VOL     41
        BYTE   W09
        BYTE                   40
        BYTE   W09
        BYTE                   39
        BYTE   W09
        BYTE                   38
        BYTE   W06
        BYTE                   37
        BYTE   W06
        BYTE                   36
        BYTE   W06
        BYTE                   35
        BYTE   W06
        BYTE                   34
        BYTE   W06
        BYTE                   33
        BYTE   W02
// 009   ----------------------------------------
        BYTE   W01
        BYTE                   32
        BYTE   W06
        BYTE                   31
        BYTE   W03
        BYTE                   30
        BYTE   W03
        BYTE                   29
        BYTE   W06
        BYTE                   28
        BYTE   W03
        BYTE                   27
        BYTE   W01
        BYTE                   26
        BYTE   W01
        BYTE           N92     Gs1   v064   gtp3
        BYTE                   Bn1   v071
        BYTE   W08
        BYTE           VOL     27
        BYTE   W12
        BYTE                   28
        BYTE   W09
        BYTE                   29
        BYTE   W06
        BYTE                   30
        BYTE   W09
        BYTE                   31
        BYTE   W06
        BYTE                   32
        BYTE   W06
        BYTE                   33
        BYTE   W06
        BYTE                   34
        BYTE   W03
        BYTE                   35
        BYTE   W06
        BYTE                   36
        BYTE   W01
// 010   ----------------------------------------
        BYTE   W02
        BYTE                   37
        BYTE   W03
        BYTE                   38
        BYTE   W06
        BYTE                   39
        BYTE   W03
        BYTE                   40
        BYTE   W03
        BYTE                   41
        BYTE   W02
        BYTE                   42
        BYTE   W05
        BYTE           N44     An1   v065   gtp3
        BYTE                   Cs2   v086
        BYTE   W13
        BYTE           VOL     41
        BYTE   W12
        BYTE                   40
        BYTE   W12
        BYTE                   39
        BYTE   W09
        BYTE                   38
        BYTE   W02
        BYTE           N23     An1   v061
        BYTE           N23     Cs2   v066
        BYTE   W07
        BYTE           VOL     37
        BYTE   W06
        BYTE                   36
        BYTE   W06
        BYTE                   35
        BYTE   W05
// 011   ----------------------------------------
        BYTE           N23     Cs2   v070
        BYTE   W01
        BYTE           VOL     34
        BYTE   W06
        BYTE                   33
        BYTE   W03
        BYTE                   32
        BYTE   W06
        BYTE                   31
        BYTE   W03
        BYTE                   30
        BYTE   W03
        BYTE                   29
        BYTE   W02
        BYTE                   28
        BYTE           N23     Dn2   v098
        BYTE   W12
        BYTE           VOL     29
        BYTE   W12
        BYTE                   30
        BYTE           N23     En2   v096
        BYTE   W09
        BYTE           VOL     31
        BYTE   W09
        BYTE                   32
        BYTE   W06
        BYTE                   33
        BYTE           N23     Fs2   v097
        BYTE   W06
        BYTE           VOL     34
        BYTE   W03
        BYTE                   35
        BYTE   W06
        BYTE                   36
        BYTE   W03
        BYTE                   37
        BYTE   W03
        BYTE                   38
        BYTE   W03
// 012   ----------------------------------------
        BYTE                   39
        BYTE           N23     Bn2
        BYTE   W03
        BYTE           VOL     40
        BYTE   W03
        BYTE                   41
        BYTE   W02
        BYTE                   42
        BYTE   W06
        BYTE                   41
        BYTE   W03
        BYTE                   40
        BYTE   W03
        BYTE                   39
        BYTE   W01
        BYTE                   38
        BYTE   W02
        BYTE                   37
        BYTE   W01
        BYTE           N80     Cs3   v081   gtp3
        BYTE                   An3   v064
        BYTE           VOL     36
        BYTE   W02
        BYTE                   34
        BYTE   W01
        BYTE                   32
        BYTE   W18
        BYTE                   33
        BYTE   W12
        BYTE                   34
        BYTE   W09
        BYTE                   35
        BYTE   W06
        BYTE                   36
        BYTE   W09
        BYTE                   37
        BYTE   W03
        BYTE                   38
        BYTE   W06
        BYTE                   39
        BYTE   W03
        BYTE                   40
        BYTE   W03
// 013   ----------------------------------------
        BYTE                   41
        BYTE   W12
        BYTE           N05     Bn2   v078
        BYTE           N05     Gs3   v063
        BYTE   W01
        BYTE           VOL     40
        BYTE   W05
        BYTE           N05     Cs3   v083
        BYTE           N05     An3   v068
        BYTE   W06
        BYTE           N44     Bn2   v078   gtp3
        BYTE                   Gs3   v068
        BYTE   W05
        BYTE           VOL     39
        BYTE   W09
        BYTE                   38
        BYTE   W10
        BYTE                   37
        BYTE   W06
        BYTE                   36
        BYTE   W06
        BYTE                   35
        BYTE   W06
        BYTE                   34
        BYTE   W06
        BYTE           N32     En2   v074   gtp2
        BYTE                   Bn2
        BYTE   W01
        BYTE           VOL     35
        BYTE   W06
        BYTE                   36
        BYTE   W06
        BYTE                   37
        BYTE   W03
        BYTE                   38
        BYTE   W03
        BYTE                   39
        BYTE   W03
        BYTE                   40
        BYTE   W02
// 014   ----------------------------------------
        BYTE   W01
        BYTE                   41
        BYTE   W03
        BYTE                   42
        BYTE   W08
        BYTE           N05     Bn1   v078
        BYTE           N05     Gs2
        BYTE   W06
        BYTE                   Cs2   v079
        BYTE           N05     An2
        BYTE   W06
        BYTE                   Dn2   v083
        BYTE           N05     Bn2
        BYTE   W06
        BYTE                   En2   v072
        BYTE           N05     Cs3
        BYTE   W06
        BYTE           N68     Fs2   v074   gtp3
        BYTE                   Dn3
        BYTE   W18
        BYTE           VOL     41
        BYTE   W24
        BYTE                   40
        BYTE   W18
// 015   ----------------------------------------
        BYTE   W01
        BYTE                   39
        BYTE   W11
        BYTE           N05     Gs2   v079
        BYTE           N05     En3
        BYTE   W06
        BYTE                   An2   v072
        BYTE           N05     Fs3
        BYTE   W02
        BYTE           VOL     38
        BYTE   W04
        BYTE           N05     Gs2   v076
        BYTE           N05     En3
        BYTE   W06
        BYTE                   En2
        BYTE           N05     Bn2
        BYTE   W04
        BYTE           VOL     37
        BYTE   W02
        BYTE           N68     Bn1   v081
        BYTE           N68     Gs2
        BYTE   W12
        BYTE           VOL     36
        BYTE   W10
        BYTE                   35
        BYTE   W09
        BYTE                   34
        BYTE   W10
        BYTE                   33
        BYTE   W09
        BYTE                   32
        BYTE   W10
// 016   ----------------------------------------
        BYTE                   31
        BYTE   W04
        BYTE                   30
        BYTE   W08
        BYTE           N05     Bn1   v042
        BYTE           N05     Gs2
        BYTE   W12
        BYTE           N92     Cs2   v067   gtp2
        BYTE           N44     Gs2   v069   gtp3
        BYTE   W08
        BYTE           VOL     31
        BYTE   W12
        BYTE                   32
        BYTE   W12
        BYTE                   33
        BYTE   W09
        BYTE                   34
        BYTE   W07
        BYTE           N44     Fs2   v080   gtp3
        BYTE   W02
        BYTE           VOL     35
        BYTE   W09
        BYTE                   36
        BYTE   W06
        BYTE                   37
        BYTE   W06
        BYTE                   38
        BYTE   W01
// 017   ----------------------------------------
        BYTE   W05
        BYTE                   39
        BYTE   W06
        BYTE                   40
        BYTE   W06
        BYTE                   41
        BYTE   W03
        BYTE                   42
        BYTE   W04
        BYTE           N90     Bn1   v081   gtp1
        BYTE           N92     Gs2   v080   gtp3
        BYTE   W10
        BYTE           VOL     41
        BYTE   W12
        BYTE                   40
        BYTE   W09
        BYTE                   39
        BYTE   W06
        BYTE                   38
        BYTE   W09
        BYTE                   37
        BYTE   W06
        BYTE                   36
        BYTE   W06
        BYTE                   35
        BYTE   W06
        BYTE                   34
        BYTE   W03
        BYTE                   33
        BYTE   W05
// 018   ----------------------------------------
        BYTE   W01
        BYTE                   32
        BYTE   W03
        BYTE                   31
        BYTE   W03
        BYTE                   30
        BYTE   W06
        BYTE                   29
        BYTE   W03
        BYTE                   28
        BYTE   W03
        BYTE                   27
        BYTE   W03
        BYTE                   26
        BYTE   W02
        BYTE                   25
        BYTE           N92     Bn1   v081
        BYTE           N92     En2   v077   gtp3
        BYTE   W30
        BYTE   W01
        BYTE           VOL     26
        BYTE   W24
        BYTE   W01
        BYTE                   27
        BYTE   W16
// 019   ----------------------------------------
        BYTE   W04
        BYTE                   28
        BYTE   W14
        BYTE                   29
        BYTE   W06
        BYTE           N80     Cn2   v074   gtp3
        BYTE           N44     Fs2   v078   gtp3
        BYTE   W08
        BYTE           VOL     30
        BYTE   W14
        BYTE                   31
        BYTE   W10
        BYTE                   32
        BYTE   W07
        BYTE                   33
        BYTE   W07
        BYTE                   34
        BYTE   W02
        BYTE           N23     Gs2
        BYTE   W05
        BYTE           VOL     35
        BYTE   W07
        BYTE                   36
        BYTE   W07
        BYTE                   37
        BYTE   W04
        BYTE                   38
        BYTE   W01
// 020   ----------------------------------------
        BYTE           N23     As2
        BYTE   W06
        BYTE           VOL     39
        BYTE   W03
        BYTE                   40
        BYTE   W04
        BYTE                   41
        BYTE   W03
        BYTE                   42
        BYTE   W08
        BYTE           N44     Cs2   v079   gtp3
        BYTE           N84     Bn2   v076
        BYTE   W02
        BYTE           VOL     41
        BYTE   W06
        BYTE                   40
        BYTE   W09
        BYTE                   39
        BYTE   W06
        BYTE                   38
        BYTE   W06
        BYTE                   37
        BYTE   W06
        BYTE                   36
        BYTE   W03
        BYTE                   35
        BYTE   W06
        BYTE                   34
        BYTE   W03
        BYTE                   33
        BYTE   W01
        BYTE           N44     Bn1   v079   gtp3
        BYTE   W05
        BYTE           VOL     32
        BYTE   W03
        BYTE                   31
        BYTE   W06
        BYTE                   30
        BYTE   W03
        BYTE                   29
        BYTE   W03
        BYTE                   28
        BYTE   W03
        BYTE                   27
        BYTE   W01
// 021   ----------------------------------------
        BYTE   W02
        BYTE                   26
        BYTE   W03
        BYTE                   25
        BYTE   W03
        BYTE                   24
        BYTE   W03
        BYTE                   23
        BYTE   W03
        BYTE                   22
        BYTE   W03
        BYTE                   21
        BYTE   W03
        BYTE                   20
        BYTE   W04
        BYTE           N44     Fs1   v079   gtp3
        BYTE   W22
        BYTE           VOL     21
        BYTE   W24
        BYTE   W02
        BYTE           N44     Bn1   v079   gtp3
        BYTE   W04
        BYTE           VOL     22
        BYTE   W20
// 022   ----------------------------------------
        BYTE   W02
        BYTE                   23
        BYTE   W22
        BYTE           N44     En2   v079   gtp3
        BYTE           VOL     24
        BYTE   W22
        BYTE                   25
        BYTE   W13
        BYTE                   26
        BYTE   W13
        BYTE           N32     Bn1   v079   gtp3
        BYTE   W05
        BYTE           VOL     27
        BYTE   W13
        BYTE                   28
        BYTE   W06
// 023   ----------------------------------------
        BYTE   W03
        BYTE                   29
        BYTE   W09
        BYTE           N05     Cs2
        BYTE   W04
        BYTE           VOL     30
        BYTE   W02
        BYTE           N05     Dn2
        BYTE   W06
        BYTE           N32     En2   v079   gtp3
        BYTE           VOL     31
        BYTE   W09
        BYTE                   32
        BYTE   W09
        BYTE                   33
        BYTE   W04
        BYTE                   34
        BYTE   W09
        BYTE                   35
        BYTE   W04
        BYTE                   36
        BYTE   W01
        BYTE           N05
        BYTE   W04
        BYTE           VOL     37
        BYTE   W02
        BYTE           N05     Fs2
        BYTE   W06
        BYTE           N30     Gs2   v079   gtp1
        BYTE   W01
        BYTE           VOL     39
        BYTE   W06
        BYTE                   38
        BYTE   W06
        BYTE                   37
        BYTE   W06
        BYTE                   36
        BYTE   W05
// 024   ----------------------------------------
        BYTE   W01
        BYTE                   35
        BYTE   W06
        BYTE                   34
        BYTE   W03
        BYTE                   33
        BYTE   W02
        BYTE           N11     Gs2   v090
        BYTE   W01
        BYTE           VOL     32
        BYTE   W06
        BYTE                   30
        BYTE   W03
        BYTE                   29
        BYTE   W02
        BYTE           N23     An1   v084
        BYTE           N23     Fs2   v096
        BYTE   W09
        BYTE           VOL     30
        BYTE   W15
        BYTE           N23     Gn1   v071
        BYTE           N23     En2   v087
        BYTE   W08
        BYTE           VOL     31
        BYTE   W16
        BYTE           N23     Dn2   v084
        BYTE           N23     Bn2   v096
        BYTE   W07
        BYTE           VOL     32
        BYTE   W15
        BYTE                   33
        BYTE   W02
// 025   ----------------------------------------
        BYTE           N23     Cs2   v068
        BYTE           N23     An2   v085
        BYTE   W13
        BYTE           VOL     34
        BYTE   W11
        BYTE           N23     An1   v071
        BYTE           N23     Fs2   v087
        BYTE           VOL     35
        BYTE   W08
        BYTE                   36
        BYTE   W11
        BYTE                   37
        BYTE   W05
        BYTE           N23     Gn1   v063
        BYTE           N23     En2   v081
        BYTE   W03
        BYTE           VOL     38
        BYTE   W04
        BYTE                   39
        BYTE   W07
        BYTE                   40
        BYTE   W04
        BYTE                   41
        BYTE   W06
        BYTE           N32     Dn2   v073   gtp3
        BYTE                   Bn2   v089
        BYTE   W02
        BYTE           VOL     42
        BYTE   W04
        BYTE                   41
        BYTE   W05
        BYTE                   40
        BYTE   W03
        BYTE                   39
        BYTE   W03
        BYTE                   38
        BYTE   W03
        BYTE                   37
        BYTE   W01
        BYTE                   36
        BYTE   W03
// 026   ----------------------------------------
        BYTE                   35
        BYTE   W02
        BYTE                   34
        BYTE   W01
        BYTE                   33
        BYTE   W02
        BYTE                   32
        BYTE   W01
        BYTE                   31
        BYTE   W02
        BYTE                   30
        BYTE   W01
        BYTE                   29
        BYTE   W02
        BYTE                   28
        BYTE   W01
        BYTE           N11     Gn2   v081
        BYTE           N11     En3   v088
        BYTE           VOL     26
        BYTE   W02
        BYTE                   25
        BYTE   W01
        BYTE                   23
        BYTE   W07
        BYTE                   24
        BYTE   W02
        BYTE           N23     Dn3   v068
        BYTE           N23     Fs3   v079
        BYTE   W04
        BYTE           VOL     25
        BYTE   W03
        BYTE                   26
        BYTE   W06
        BYTE                   27
        BYTE   W03
        BYTE                   28
        BYTE   W06
        BYTE                   29
        BYTE   W02
        BYTE           N23     Cs3   v066
        BYTE           N23     En3   v076
        BYTE   W01
        BYTE           VOL     30
        BYTE   W13
        BYTE                   31
        BYTE   W10
        BYTE           N23     Gn3   v068
        BYTE           N23     Bn3   v079
        BYTE   W02
        BYTE           VOL     32
        BYTE   W09
        BYTE                   33
        BYTE   W09
        BYTE                   34
        BYTE   W04
// 027   ----------------------------------------
        BYTE           N23     Fs3   v065
        BYTE           N23     An3   v074
        BYTE   W02
        BYTE           VOL     35
        BYTE   W03
        BYTE                   36
        BYTE   W06
        BYTE                   37
        BYTE   W03
        BYTE                   38
        BYTE   W03
        BYTE                   39
        BYTE   W03
        BYTE                   40
        BYTE   W03
        BYTE                   41
        BYTE   W01
        BYTE           N23     Fs3   v055
        BYTE           N92     En4   v065   gtp3
        BYTE   W02
        BYTE           VOL     42
        BYTE   W01
        BYTE                   41
        BYTE   W02
        BYTE                   40
        BYTE   W01
        BYTE                   39
        BYTE   W01
        BYTE                   38
        BYTE   W01
        BYTE                   37
        BYTE   W01
        BYTE                   35
        BYTE   W01
        BYTE                   34
        BYTE   W01
        BYTE                   33
        BYTE   W01
        BYTE                   30
        BYTE   W01
        BYTE                   28
        BYTE   W01
        BYTE                   25
        BYTE   W06
        BYTE                   26
        BYTE   W04
        BYTE           N23     Bn3   v040
        BYTE   W08
        BYTE           VOL     27
        BYTE   W09
        BYTE                   28
        BYTE   W06
        BYTE                   29
        BYTE   W01
        BYTE           N23     Bn3   v053
        BYTE   W05
        BYTE           VOL     30
        BYTE   W06
        BYTE                   31
        BYTE   W03
        BYTE                   32
        BYTE   W06
        BYTE                   33
        BYTE   W03
        BYTE                   34
        BYTE   W01
// 028   ----------------------------------------
        BYTE   W02
        BYTE                   35
        BYTE   W03
        BYTE                   36
        BYTE   W03
        BYTE                   37
        BYTE   W03
        BYTE                   39
        BYTE   W03
        BYTE                   41
        BYTE   W02
        BYTE                   42
        BYTE   W80
// 029   ----------------------------------------
        BYTE   W96
// 030   ----------------------------------------
        BYTE           N05     Gs2   v100
        BYTE   W06
        BYTE                   En2   v097
        BYTE   W06
        BYTE                   Bn1   v104
        BYTE   W06
        BYTE                   Gs1   v107
        BYTE   W78
// 031   ----------------------------------------
        BYTE   W96
// 032   ----------------------------------------
        BYTE   W24
        BYTE           N07     An1   v097
        BYTE           N07     Cs2   v111
        BYTE   W09
        BYTE           N02     An1   v038
        BYTE           N02     Cs2
        BYTE   W03
        BYTE           N05     Cs2   v099
        BYTE           N05     Fs2   v113
        BYTE   W06
        BYTE                   En2   v096
        BYTE           N05     Gs2   v110
        BYTE   W06
        BYTE           N56     Fs2   v101   gtp3
        BYTE                   An2   v109
        BYTE   W05
        BYTE           VOL     40
        BYTE   W01
        BYTE                   38
        BYTE   W01
        BYTE                   33
        BYTE   W01
        BYTE                   31
        BYTE   W01
        BYTE                   29
        BYTE   W01
        BYTE                   24
        BYTE   W01
        BYTE                   23
        BYTE   W04
        BYTE                   24
        BYTE   W05
        BYTE                   25
        BYTE   W03
        BYTE                   26
        BYTE   W03
        BYTE                   27
        BYTE   W03
        BYTE                   28
        BYTE   W03
        BYTE                   29
        BYTE   W01
        BYTE                   30
        BYTE   W03
        BYTE                   31
        BYTE   W03
        BYTE                   32
        BYTE   W02
        BYTE                   33
        BYTE   W01
        BYTE                   34
        BYTE   W03
        BYTE                   35
        BYTE   W02
        BYTE                   36
        BYTE   W01
// 033   ----------------------------------------
        BYTE                   37
        BYTE   W02
        BYTE                   38
        BYTE   W01
        BYTE                   39
        BYTE   W02
        BYTE                   40
        BYTE   W01
        BYTE                   41
        BYTE   W02
        BYTE                   42
        BYTE   W04
        BYTE           N02     Fs2   v098
        BYTE           N02     An2   v106
        BYTE   W03
        BYTE                   Fs2   v038
        BYTE           N02     An2   v032
        BYTE   W03
        BYTE                   Fs2   v096
        BYTE           N02     An2   v104
        BYTE   W03
        BYTE                   Fs2   v038
        BYTE           N02     An2   v032
        BYTE   W03
        BYTE           N16     Fs2   v098
        BYTE           N16     An2   v106
        BYTE   W18
        BYTE           N05     En2   v094
        BYTE           N05     Gs2   v108
        BYTE   W06
        BYTE           N44     Gs2   v101   gtp3
        BYTE                   Bn2   v109
        BYTE   W01
        BYTE           VOL     41
        BYTE   W01
        BYTE                   39
        BYTE   W01
        BYTE                   35
        BYTE   W01
        BYTE                   34
        BYTE   W01
        BYTE                   32
        BYTE   W01
        BYTE                   28
        BYTE   W01
        BYTE                   26
        BYTE   W01
        BYTE                   23
        BYTE   W02
        BYTE                   24
        BYTE   W04
        BYTE                   25
        BYTE   W03
        BYTE                   26
        BYTE   W03
        BYTE                   27
        BYTE   W03
        BYTE                   28
        BYTE   W03
        BYTE                   29
        BYTE   W03
        BYTE                   30
        BYTE   W02
        BYTE                   31
        BYTE   W01
        BYTE                   32
        BYTE   W03
        BYTE                   33
        BYTE   W02
        BYTE                   34
        BYTE   W01
        BYTE                   35
        BYTE   W02
        BYTE                   36
        BYTE   W01
        BYTE                   38
        BYTE   W02
        BYTE                   39
        BYTE   W01
        BYTE                   40
        BYTE   W02
        BYTE                   42
        BYTE   W02
// 034   ----------------------------------------
        BYTE           N22     Fs2   v099
        BYTE           N22     An2   v107
        BYTE   W24
        BYTE           N18     Gs2   v109
        BYTE   W18
        BYTE           N02     Cs2   v113
        BYTE   W03
        BYTE                   Cs2   v038
        BYTE   W03
        BYTE           N90     Cs2   v114   gtp1
        BYTE   W19
        BYTE           VOL     41
        BYTE   W12
        BYTE                   40
        BYTE   W06
        BYTE                   39
        BYTE   W06
        BYTE                   38
        BYTE   W05
// 035   ----------------------------------------
        BYTE   W01
        BYTE                   37
        BYTE   W06
        BYTE                   36
        BYTE   W06
        BYTE                   35
        BYTE   W03
        BYTE                   34
        BYTE   W03
        BYTE                   33
        BYTE   W03
        BYTE                   32
        BYTE   W03
        BYTE                   31
        BYTE   W16
        BYTE                   32
        BYTE   W04
        BYTE           N02     Cs2   v042
        BYTE   W03
        BYTE           N23     Dn2   v111
        BYTE   W05
        BYTE           VOL     33
        BYTE   W09
        BYTE                   34
        BYTE   W09
        BYTE                   35
        BYTE   W01
        BYTE           N23     En2
        BYTE   W05
        BYTE           VOL     36
        BYTE   W06
        BYTE                   37
        BYTE   W06
        BYTE                   38
        BYTE   W06
        BYTE                   39
        BYTE   W01
// 036   ----------------------------------------
        BYTE           N23     Fs2
        BYTE   W05
        BYTE           VOL     40
        BYTE   W03
        BYTE                   41
        BYTE   W03
        BYTE                   42
        BYTE   W13
        BYTE           N03     Cs2   v082
        BYTE   W06
        BYTE                   Cs2   v029
        BYTE   W18
        BYTE                   An1   v064
        BYTE           N03     Cs2   v072
        BYTE   W06
        BYTE                   An1   v015
        BYTE           N03     Cs2   v022
        BYTE   W18
        BYTE           N04     An1   v069
        BYTE           N03     Cs2
        BYTE   W06
        BYTE           N04     An1   v019
        BYTE           N03     Cs2
        BYTE   W18
// 037   ----------------------------------------
        BYTE           N04     An1   v074
        BYTE           N04     Cs2   v082
        BYTE   W06
        BYTE                   An1   v023
        BYTE           N04     Cs2   v029
        BYTE   W18
        BYTE           N03     Gs1   v062
        BYTE           N04     An1
        BYTE           N04     Cs2   v091
        BYTE   W06
        BYTE           N03     Gs1   v003
        BYTE           N04     An1
        BYTE           N04     Cs2   v032
        BYTE   W18
        BYTE           N02     Gs1   v082
        BYTE           N03     An1   v074
        BYTE           N04     Cs2   v088
        BYTE   W06
        BYTE           N02     Gs1   v023
        BYTE           N03     An1   v015
        BYTE           N04     Cs2   v029
        BYTE   W18
        BYTE           N03     Gs1   v080
        BYTE           N03     An1   v074
        BYTE           N04     Cs2   v097
        BYTE   W06
        BYTE           N03     Gs1   v021
        BYTE           N03     An1   v015
        BYTE           N04     Cs2   v038
        BYTE   W18
// 038   ----------------------------------------
        BYTE           N03     Gs1   v091
        BYTE           N03     An1   v077
        BYTE           N04     Cs2   v097
        BYTE   W06
        BYTE           N03     Gs1   v032
        BYTE           N03     An1   v018
        BYTE           N04     Cs2   v038
        BYTE   W18
        BYTE           N03     Gs1   v080
        BYTE           N03     An1   v072
        BYTE           N03     Cs2   v082
        BYTE   W06
        BYTE                   Gs1   v021
        BYTE           N03     An1   v013
        BYTE           N03     Cs2   v023
        BYTE   W18
        BYTE                   Gs1   v074
        BYTE           N03     An1   v064
        BYTE           N03     Cs2   v072
        BYTE   W06
        BYTE                   Gs1   v015
        BYTE           N03     An1   v005
        BYTE           N03     Cs2   v013
        BYTE   W18
        BYTE           N02     Gs1   v072
        BYTE           N04     An1   v069
        BYTE           N03     Cs2
        BYTE   W06
        BYTE           N02     Gs1   v013
        BYTE           N04     An1   v010
        BYTE           N03     Cs2
        BYTE   W18
// 039   ----------------------------------------
        BYTE           N04     Gs1   v067
        BYTE           N04     An1   v074
        BYTE           N04     Cs2   v082
        BYTE   W06
        BYTE                   Gs1   v008
        BYTE           N04     An1   v015
        BYTE           N04     Cs2   v023
        BYTE   W18
        BYTE           N03     Fs1   v062
        BYTE           N04     Gs1
        BYTE           N04     Bn1   v091
        BYTE   W06
        BYTE           N03     Fs1   v003
        BYTE           N04     Gs1
        BYTE           N04     Bn1   v032
        BYTE   W18
        BYTE           N02     Fs1   v082
        BYTE           N03     Gs1   v074
        BYTE           N04     Bn1   v088
        BYTE   W06
        BYTE           N02     Fs1   v023
        BYTE           N03     Gs1   v015
        BYTE           N04     Bn1   v029
        BYTE   W18
        BYTE           N03     Fs1   v080
        BYTE           N03     Gs1   v074
        BYTE           N04     Bn1   v097
        BYTE   W06
        BYTE           N03     Fs1   v021
        BYTE           N03     Gs1   v015
        BYTE           N04     Bn1   v038
        BYTE   W18
// 040   ----------------------------------------
        BYTE           N03     Fs1   v091
        BYTE           N03     Gs1   v077
        BYTE           N04     Bn1   v097
        BYTE   W06
        BYTE           N03     Fs1   v032
        BYTE           N03     Gs1   v018
        BYTE           N04     Bn1   v038
        BYTE   W18
        BYTE           N23     An1   v073
        BYTE           N23     Dn2
        BYTE   W24
        BYTE                   Gs1   v100
        BYTE           N23     Cs2
        BYTE   W24
        BYTE                   Cs2   v086
        BYTE           N23     Fs2
        BYTE   W24
// 041   ----------------------------------------
        BYTE                   Bn1   v072
        BYTE           N23     En2
        BYTE   W24
        BYTE           N05     Gs2   v062
        BYTE           N05     Bn2   v098
        BYTE   W06
        BYTE                   Fs2   v062
        BYTE           N05     An2   v098
        BYTE   W06
        BYTE                   En2   v062
        BYTE           N05     Gs2   v098
        BYTE   W06
        BYTE                   Bn1   v062
        BYTE           N05     En2   v098
        BYTE   W06
        BYTE                   Bn2   v062
        BYTE           N05     Dn3   v088
        BYTE   W06
        BYTE                   An2   v062
        BYTE           N05     Cs3   v088
        BYTE   W06
        BYTE                   Gs2   v062
        BYTE           N05     Bn2   v098
        BYTE   W06
        BYTE                   En2   v062
        BYTE           N05     Gs2   v098
        BYTE   W06
        BYTE                   Dn3   v052
        BYTE           N05     Fs3   v088
        BYTE   W06
        BYTE                   Cs3   v052
        BYTE           N05     En3   v088
        BYTE   W06
        BYTE                   Bn2   v062
        BYTE           N05     Dn3   v088
        BYTE   W06
        BYTE                   Gs2   v062
        BYTE           N05     Bn2   v098
        BYTE   W06
// 042   ----------------------------------------
        BYTE           N02     Gs1   v080
        BYTE           N02     Bn1
        BYTE   W03
        BYTE                   An1   v090
        BYTE           N02     Cs2
        BYTE   W03
        BYTE                   Bn1   v083
        BYTE           N02     Dn2
        BYTE   W03
        BYTE                   Cs2   v080
        BYTE           N02     En2
        BYTE   W03
        BYTE                   Dn2
        BYTE           N02     Fs2
        BYTE   W03
        BYTE                   En2   v090
        BYTE           N02     Gs2
        BYTE   W03
        BYTE                   Fs2   v083
        BYTE           N02     An2
        BYTE   W03
        BYTE                   Gs2   v080
        BYTE           N02     Bn2
        BYTE   W03
        BYTE           N92     An2   v087   gtp3
        BYTE                   Cs3   v094
        BYTE   W18
        BYTE           VOL     41
        BYTE   W09
        BYTE                   40
        BYTE   W09
        BYTE                   39
        BYTE   W06
        BYTE                   38
        BYTE   W06
        BYTE                   37
        BYTE   W06
        BYTE                   36
        BYTE   W06
        BYTE                   35
        BYTE   W03
        BYTE                   34
        BYTE   W06
        BYTE                   33
        BYTE   W03
// 043   ----------------------------------------
        BYTE                   32
        BYTE   W03
        BYTE                   31
        BYTE   W03
        BYTE                   30
        BYTE   W03
        BYTE                   29
        BYTE   W03
        BYTE                   28
        BYTE   W03
        BYTE                   27
        BYTE   W03
        BYTE                   26
        BYTE   W03
        BYTE                   25
        BYTE   W02
        BYTE                   23
        BYTE   W01
        BYTE           N44     Gs2   v088   gtp3
        BYTE                   Bn2   v103
        BYTE   W05
        BYTE           VOL     24
        BYTE   W09
        BYTE                   25
        BYTE   W09
        BYTE                   26
        BYTE   W06
        BYTE                   27
        BYTE   W06
        BYTE                   28
        BYTE   W06
        BYTE                   29
        BYTE   W06
        BYTE                   30
        BYTE   W01
        BYTE           N32     En2   v086   gtp3
        BYTE                   Gs2   v101
        BYTE   W02
        BYTE           VOL     31
        BYTE   W06
        BYTE                   32
        BYTE   W03
        BYTE                   33
        BYTE   W03
        BYTE                   34
        BYTE   W03
        BYTE                   35
        BYTE   W03
        BYTE                   36
        BYTE   W03
        BYTE                   37
        BYTE   W01
// 044   ----------------------------------------
        BYTE   W02
        BYTE                   39
        BYTE   W03
        BYTE                   40
        BYTE   W03
        BYTE                   42
        BYTE   W04
        BYTE           N05     Dn2   v086
        BYTE           N05     Fs2   v101
        BYTE   W06
        BYTE                   En2   v094
        BYTE           N05     Gs2   v109
        BYTE   W06
        BYTE   GoTo
         POIN2  FootstepsOfFate_4_LOOP
        BYTE   W02
        BYTE   FINE

//****************** Track 5 (Midi-Chn.5) ******************//

FootstepsOfFate_5:
        BYTE   KEYSH   FootstepsOfFate_key+0
// 000   ----------------------------------------
        BYTE   W24
        BYTE           VOICE   68
        BYTE           PAN     c_v+9
        BYTE           VOL     50
        BYTE   W72
// 001   ----------------------------------------
        BYTE   W96
// 002   ----------------------------------------
        BYTE   W12
        BYTE           N05     Fs2   v067
        BYTE   W06
        BYTE                   Gs2   v086
        BYTE   W06
        BYTE           N23     An2   v058
        BYTE   W24
        BYTE                   Gs2   v068
        BYTE   W24
        BYTE                   Cs3   v066
        BYTE   W24
// 003   ----------------------------------------
        BYTE                   Bn2
        BYTE   W24
        BYTE                   Fs3   v068
        BYTE   W24
        BYTE                   En3   v065
        BYTE   W24
        BYTE                   Bn3   v066
        BYTE   W24
// 004   ----------------------------------------
        BYTE                   Gs3   v081
        BYTE   W24
        BYTE           N80     Cs3   v095
        BYTE   W12
        BYTE           VOL     49
        BYTE   W06
        BYTE                   48
        BYTE   W09
        BYTE                   47
        BYTE   W06
        BYTE                   46
        BYTE   W06
        BYTE                   45
        BYTE   W06
        BYTE                   44
        BYTE   W06
        BYTE                   43
        BYTE   W03
        BYTE                   42
        BYTE   W06
        BYTE                   41
        BYTE   W03
        BYTE                   40
        BYTE   W03
        BYTE                   39
        BYTE   W06
// 005   ----------------------------------------
        BYTE                   38
        BYTE   W03
        BYTE                   37
        BYTE   W03
        BYTE                   35
        BYTE   W03
        BYTE                   34
        BYTE           N02     Dn3   v122
        BYTE   W03
        BYTE           VOL     33
        BYTE           N02     En3
        BYTE   W03
        BYTE           VOL     32
        BYTE           N02     Fs3
        BYTE   W03
        BYTE           VOL     30
        BYTE           N02     Gs3
        BYTE   W03
        BYTE           VOL     29
        BYTE           N02     An3
        BYTE   W02
        BYTE           VOL     27
        BYTE   W01
        BYTE           N44     Bn3   v110   gtp3
        BYTE   W05
        BYTE           VOL     28
        BYTE   W15
        BYTE                   29
        BYTE   W06
        BYTE                   30
        BYTE   W09
        BYTE                   31
        BYTE   W06
        BYTE                   32
        BYTE   W07
        BYTE           N32     Gs3   v108   gtp3
        BYTE   W02
        BYTE           VOL     33
        BYTE   W03
        BYTE                   34
        BYTE   W06
        BYTE                   35
        BYTE   W03
        BYTE                   36
        BYTE   W03
        BYTE                   37
        BYTE   W06
        BYTE                   38
        BYTE   W01
// 006   ----------------------------------------
        BYTE   W02
        BYTE                   39
        BYTE   W03
        BYTE                   41
        BYTE   W03
        BYTE                   42
        BYTE   W04
        BYTE           N05     Fs3   v107
        BYTE   W06
        BYTE                   Gs3   v115
        BYTE   W06
FootstepsOfFate_5_LOOP:
        BYTE           N05     Gs3   v101
        BYTE   W06
        BYTE                   An3   v109
        BYTE   W06
        BYTE           N68     Cs3   v113
        BYTE   W08
        BYTE           VOL     41
        BYTE   W13
        BYTE                   40
        BYTE   W10
        BYTE                   39
        BYTE   W10
        BYTE                   38
        BYTE   W06
        BYTE                   37
        BYTE   W10
        BYTE                   36
        BYTE   W03
// 007   ----------------------------------------
        BYTE   W01
        BYTE                   35
        BYTE   W06
        BYTE                   34
        BYTE   W02
        BYTE           N02     Fs3   v127
        BYTE   W03
        BYTE           N05     An3   v097
        BYTE   W02
        BYTE           VOL     33
        BYTE   W03
        BYTE                   32
        BYTE   W01
        BYTE           N05     Gs3   v111
        BYTE   W06
        BYTE           N44     Bn2   v119   gtp3
        BYTE   W10
        BYTE           VOL     33
        BYTE   W11
        BYTE                   34
        BYTE   W17
        BYTE                   35
        BYTE   W10
        BYTE                   36
        BYTE           N44     En3   v106   gtp3
        BYTE   W07
        BYTE           VOL     37
        BYTE   W10
        BYTE                   38
        BYTE   W03
        BYTE                   39
        BYTE   W04
// 008   ----------------------------------------
        BYTE   W03
        BYTE                   40
        BYTE   W04
        BYTE                   41
        BYTE   W07
        BYTE                   42
        BYTE   W10
        BYTE           N92     Cs3   v095   gtp3
        BYTE   W20
        BYTE           VOL     41
        BYTE   W13
        BYTE                   40
        BYTE   W09
        BYTE                   39
        BYTE   W10
        BYTE                   38
        BYTE   W06
        BYTE                   37
        BYTE   W10
        BYTE                   36
        BYTE   W04
// 009   ----------------------------------------
        BYTE   W02
        BYTE                   35
        BYTE   W07
        BYTE                   34
        BYTE   W06
        BYTE                   33
        BYTE   W03
        BYTE                   32
        BYTE   W04
        BYTE                   31
        BYTE   W72
        BYTE   W02
// 010   ----------------------------------------
        BYTE   W24
        BYTE           VOICE   4
        BYTE           PAN     c_v-10
        BYTE           VOL     51
        BYTE   W48
        BYTE           N32     Fs5   v077   gtp3
        BYTE   W03
        BYTE           VOL     48
        BYTE   W01
        BYTE                   42
        BYTE   W01
        BYTE                   39
        BYTE   W01
        BYTE                   36
        BYTE   W01
        BYTE                   30
        BYTE   W01
        BYTE                   27
        BYTE   W01
        BYTE                   23
        BYTE   W01
        BYTE                   24
        BYTE   W01
        BYTE                   25
        BYTE   W01
        BYTE                   26
        BYTE   W01
        BYTE                   27
        BYTE   W01
        BYTE                   28
        BYTE   W01
        BYTE                   29
        BYTE   W01
        BYTE                   30
        BYTE   W01
        BYTE                   33
        BYTE   W01
        BYTE                   34
        BYTE   W01
        BYTE                   35
        BYTE   W01
        BYTE                   39
        BYTE   W01
        BYTE                   40
        BYTE   W01
        BYTE                   43
        BYTE   W01
        BYTE                   47
        BYTE   W01
// 011   ----------------------------------------
        BYTE                   51
        BYTE   W12
        BYTE           N03     Fs5   v069
        BYTE   W04
        BYTE                   Gs5   v074
        BYTE   W04
        BYTE                   An5   v080
        BYTE   W04
        BYTE           N92     Gs5   v096   gtp3
        BYTE   W02
        BYTE           VOL     49
        BYTE   W01
        BYTE                   48
        BYTE   W01
        BYTE                   47
        BYTE   W01
        BYTE                   44
        BYTE   W01
        BYTE                   43
        BYTE   W01
        BYTE                   41
        BYTE   W01
        BYTE                   36
        BYTE   W01
        BYTE                   33
        BYTE   W01
        BYTE                   29
        BYTE   W01
        BYTE                   22
        BYTE   W06
        BYTE                   23
        BYTE   W06
        BYTE                   24
        BYTE   W06
        BYTE                   25
        BYTE   W03
        BYTE                   26
        BYTE   W06
        BYTE                   27
        BYTE   W03
        BYTE                   28
        BYTE   W06
        BYTE                   29
        BYTE   W03
        BYTE                   30
        BYTE   W03
        BYTE                   31
        BYTE   W03
        BYTE                   32
        BYTE   W03
        BYTE                   33
        BYTE   W03
        BYTE                   35
        BYTE   W03
        BYTE                   36
        BYTE   W03
        BYTE                   37
        BYTE   W03
        BYTE                   39
        BYTE   W01
// 012   ----------------------------------------
        BYTE   W02
        BYTE                   41
        BYTE   W03
        BYTE                   43
        BYTE   W03
        BYTE                   45
        BYTE   W03
        BYTE                   48
        BYTE   W03
        BYTE                   51
        BYTE   W10
        BYTE           N12     Gs5   v060
        BYTE   W24
        BYTE           VOICE   1
        BYTE           VOL     29
        BYTE           PAN     c_v-64
        BYTE   W48
// 013   ----------------------------------------
        BYTE   W15
        BYTE           N03     Gs4   v114
        BYTE   W06
        BYTE           N04     An4   v112
        BYTE   W06
        BYTE           N44     Gs4   v112   gtp3
        BYTE   W20
        BYTE           VOL     28
        BYTE   W15
        BYTE                   27
        BYTE   W12
        BYTE                   26
        BYTE   W01
        BYTE           N32     Bn3   v114   gtp2
        BYTE   W08
        BYTE           VOL     25
        BYTE   W09
        BYTE                   24
        BYTE   W04
// 014   ----------------------------------------
        BYTE   W02
        BYTE                   23
        BYTE   W10
        BYTE                   24
        BYTE   W03
        BYTE           N04     Gs3   v112
        BYTE   W03
        BYTE           VOL     25
        BYTE   W03
        BYTE           N03     An3   v114
        BYTE   W03
        BYTE           VOL     26
        BYTE   W03
        BYTE           N04     Bn3   v117
        BYTE   W03
        BYTE           VOL     27
        BYTE   W03
        BYTE           N04     Cs4   v107
        BYTE   W03
        BYTE           VOL     28
        BYTE   W02
        BYTE                   29
        BYTE   W01
        BYTE           N64     Dn4   v109   gtp1
        BYTE   W02
        BYTE           VOL     28
        BYTE   W01
        BYTE                   27
        BYTE   W02
        BYTE                   26
        BYTE   W01
        BYTE                   25
        BYTE   W03
        BYTE                   24
        BYTE   W02
        BYTE                   23
        BYTE   W01
        BYTE                   22
        BYTE   W09
        BYTE                   23
        BYTE   W12
        BYTE                   24
        BYTE   W09
        BYTE                   25
        BYTE   W06
        BYTE                   26
        BYTE   W06
        BYTE                   27
        BYTE   W03
// 015   ----------------------------------------
        BYTE   W03
        BYTE                   28
        BYTE   W03
        BYTE                   29
        BYTE   W03
        BYTE           N01     Bn3   v118
        BYTE   W02
        BYTE                   Cs4
        BYTE   W02
        BYTE                   Dn4
        BYTE   W02
        BYTE           N04     En4   v114
        BYTE   W06
        BYTE                   Fs4   v107
        BYTE   W06
        BYTE                   En4   v108
        BYTE   W06
        BYTE                   Bn3   v106
        BYTE   W06
        BYTE           N68     Gs3   v108
        BYTE   W24
        BYTE   W01
        BYTE           VOL     28
        BYTE   W06
        BYTE                   27
        BYTE   W06
        BYTE                   26
        BYTE   W06
        BYTE                   25
        BYTE   W03
        BYTE                   24
        BYTE   W05
        BYTE                   23
        BYTE   W03
        BYTE                   22
        BYTE   W03
// 016   ----------------------------------------
        BYTE                   21
        BYTE   W03
        BYTE                   20
        BYTE   W03
        BYTE                   19
        BYTE   W01
        BYTE                   18
        BYTE   W03
        BYTE                   17
        BYTE   W01
        BYTE                   18
        BYTE   W04
        BYTE           N05     Fs3   v111
        BYTE   W01
        BYTE           VOL     19
        BYTE   W03
        BYTE                   20
        BYTE   W02
        BYTE           N05     Gs3   v106
        BYTE   W01
        BYTE           VOL     21
        BYTE   W01
        BYTE                   22
        BYTE   W02
        BYTE                   23
        BYTE   W01
        BYTE                   24
        BYTE   W01
        BYTE           N88     An3   v100   gtp1
        BYTE   W01
        BYTE           VOL     25
        BYTE   W01
        BYTE                   27
        BYTE   W01
        BYTE                   28
        BYTE   W18
        BYTE                   27
        BYTE   W15
        BYTE                   26
        BYTE   W15
        BYTE                   25
        BYTE   W09
        BYTE                   24
        BYTE   W06
        BYTE                   23
        BYTE   W03
// 017   ----------------------------------------
        BYTE   W06
        BYTE                   22
        BYTE   W06
        BYTE                   21
        BYTE   W06
        BYTE                   20
        BYTE   W04
        BYTE                   19
        BYTE   W72
        BYTE   W02
// 018   ----------------------------------------
        BYTE   W24
        BYTE           VOICE   11
        BYTE           PAN     c_v+12
        BYTE           VOL     50
        BYTE           N23     An1   v104
        BYTE   W24
        BYTE                   An1   v100
        BYTE   W24
        BYTE                   Cn2   v095
        BYTE   W24
// 019   ----------------------------------------
        BYTE                   En2   v100
        BYTE   W24
        BYTE                   Fs2   v094
        BYTE   W24
        BYTE                   Fs2   v104
        BYTE   W24
        BYTE                   As2   v101
        BYTE   W24
// 020   ----------------------------------------
        BYTE                   Ds2
        BYTE   W96
// 021   ----------------------------------------
        BYTE   W96
// 022   ----------------------------------------
        BYTE   W96
// 023   ----------------------------------------
        BYTE   W96
// 024   ----------------------------------------
        BYTE   W24
        BYTE           N11     Gn1   v029
        BYTE   W12
        BYTE                   Gn1   v044
        BYTE   W12
        BYTE                   Gn1   v033
        BYTE   W12
        BYTE                   Gn1   v012
        BYTE   W12
        BYTE                   Gn1   v068
        BYTE   W12
        BYTE                   Gn1   v020
        BYTE   W12
// 025   ----------------------------------------
        BYTE                   Gn1   v095
        BYTE   W12
        BYTE                   Gn1   v001
        BYTE   W12
        BYTE                   Gn1   v070
        BYTE           N11     En2   v054
        BYTE   W12
        BYTE                   Gn1   v047
        BYTE           N11     En2   v054
        BYTE   W12
        BYTE                   Gn1   v085
        BYTE           N11     En2   v076
        BYTE   W12
        BYTE                   Gn1   v058
        BYTE           N11     En2
        BYTE   W12
        BYTE                   Gn1   v105
        BYTE           N11     En2   v085
        BYTE   W12
        BYTE                   Gn1   v076
        BYTE           N11     En2   v070
        BYTE   W12
// 026   ----------------------------------------
        BYTE                   Gn1   v085
        BYTE           N11     En2   v076
        BYTE   W12
        BYTE                   Gn1   v058
        BYTE           N11     En2   v052
        BYTE   W12
        BYTE                   Gs1   v112
        BYTE           N11     Fs2   v095
        BYTE   W12
        BYTE                   Gs1   v054
        BYTE           N11     Fs2   v063
        BYTE   W12
        BYTE                   Gs1   v088
        BYTE           N11     Fs2   v076
        BYTE   W12
        BYTE                   Gs1   v063
        BYTE           N11     Fs2   v054
        BYTE   W12
        BYTE                   Gs1   v095
        BYTE           N11     Fs2   v063
        BYTE   W12
        BYTE                   Gs1   v068
        BYTE           N11     Fs2   v044
        BYTE   W12
// 027   ----------------------------------------
        BYTE                   Gs1   v085
        BYTE           N11     Fs2   v058
        BYTE   W12
        BYTE                   Gs1   v085
        BYTE           N11     Fs2   v013
        BYTE   W12
        BYTE                   Gs1   v088
        BYTE           N11     Fs2   v076
        BYTE   W12
        BYTE                   Gs1   v060
        BYTE           N11     Fs2   v041
        BYTE   W12
        BYTE                   Gs1   v095
        BYTE           N11     Fs2   v085
        BYTE   W12
        BYTE                   Gs1   v077
        BYTE           N11     Fs2   v050
        BYTE   W12
        BYTE                   Gs1   v095
        BYTE           N11     Fs2   v085
        BYTE   W12
        BYTE                   Gs1   v103
        BYTE           N11     Fs2   v082
        BYTE   W12
// 028   ----------------------------------------
        BYTE                   Gn1   v116
        BYTE           N11     Fs2   v088
        BYTE   W12
        BYTE                   Gn1   v096
        BYTE           N11     Fs2   v092
        BYTE   W12
        BYTE           VOICE   68
        BYTE           PAN     c_v+9
        BYTE           VOL     33
        BYTE           N44     Fs2   v082   gtp3
        BYTE   W21
        BYTE           VOL     34
        BYTE   W22
        BYTE                   35
        BYTE   W05
        BYTE           N44     Cs3   v069   gtp2
        BYTE   W16
        BYTE           VOL     36
        BYTE   W08
// 029   ----------------------------------------
        BYTE   W05
        BYTE                   37
        BYTE   W13
        BYTE                   38
        BYTE   W06
        BYTE           N44     Gs3   v071   gtp3
        BYTE   W07
        BYTE           VOL     39
        BYTE   W13
        BYTE                   40
        BYTE   W09
        BYTE                   41
        BYTE   W09
        BYTE                   42
        BYTE   W10
        BYTE           N44     An3   v078   gtp3
        BYTE   W03
        BYTE           VOL     43
        BYTE   W04
        BYTE                   44
        BYTE   W09
        BYTE                   45
        BYTE   W04
        BYTE                   46
        BYTE   W04
// 030   ----------------------------------------
        BYTE   W05
        BYTE                   47
        BYTE   W04
        BYTE                   48
        BYTE   W08
        BYTE                   49
        BYTE   W01
        BYTE                   50
        BYTE   W06
        BYTE           N44     Gs3   v073   gtp3
        BYTE   W09
        BYTE           VOL     49
        BYTE   W20
        BYTE                   48
        BYTE   W19
        BYTE           N68     Cs3   v077   gtp2
        BYTE   W07
        BYTE           VOL     47
        BYTE   W15
        BYTE                   46
        BYTE   W02
// 031   ----------------------------------------
        BYTE   W19
        BYTE                   45
        BYTE   W10
        BYTE                   44
        BYTE   W16
        BYTE                   43
        BYTE   W03
        BYTE           N23     Dn3   v069
        BYTE   W07
        BYTE           VOL     42
        BYTE   W15
        BYTE                   41
        BYTE   W02
        BYTE           N23     En3   v072
        BYTE   W08
        BYTE           VOL     40
        BYTE   W06
        BYTE                   39
        BYTE   W10
// 032   ----------------------------------------
        BYTE                   38
        BYTE           N20     Dn3   v069
        BYTE   W05
        BYTE           VOL     37
        BYTE   W10
        BYTE                   36
        BYTE   W05
        BYTE                   35
        BYTE   W04
        BYTE           N44     Cs3   v080   gtp3
        BYTE   W02
        BYTE           VOL     34
        BYTE   W24
        BYTE                   35
        BYTE   W22
        BYTE           N23     Fs2   v070
        BYTE   W10
        BYTE           VOL     36
        BYTE   W14
// 033   ----------------------------------------
        BYTE           N23     Cs3   v072
        BYTE   W02
        BYTE           VOL     37
        BYTE   W16
        BYTE                   38
        BYTE   W06
        BYTE           N56     Gs3   v072   gtp3
        BYTE   W02
        BYTE           VOL     39
        BYTE   W11
        BYTE                   40
        BYTE   W06
        BYTE                   41
        BYTE   W11
        BYTE                   42
        BYTE   W10
        BYTE                   43
        BYTE   W07
        BYTE                   44
        BYTE   W10
        BYTE                   45
        BYTE   W03
        BYTE           N05     Fs3   v071
        BYTE   W04
        BYTE           VOL     46
        BYTE   W02
        BYTE           N05     Gs3
        BYTE   W06
// 034   ----------------------------------------
        BYTE                   An3   v076
        BYTE   W02
        BYTE           VOL     47
        BYTE   W04
        BYTE           N05     Gs3
        BYTE   W03
        BYTE           VOL     48
        BYTE   W03
        BYTE           N05     En3
        BYTE   W06
        BYTE                   Bn2
        BYTE   W01
        BYTE           VOL     49
        BYTE   W03
        BYTE                   50
        BYTE   W02
        BYTE           N24     Dn3   v073
        BYTE   W17
        BYTE           VOL     49
        BYTE   W07
        BYTE           N56     Bn2   v083   gtp3
        BYTE   W19
        BYTE           VOL     48
        BYTE   W28
        BYTE   W01
// 035   ----------------------------------------
        BYTE   W09
        BYTE                   47
        BYTE   W03
        BYTE           N05     An2
        BYTE   W06
        BYTE                   Bn2
        BYTE   W03
        BYTE           VOL     46
        BYTE   W03
        BYTE           N22     Cs3   v074
        BYTE   W22
        BYTE           VOL     45
        BYTE   W02
        BYTE           N44     Dn3   v071   gtp3
        BYTE   W11
        BYTE           VOL     44
        BYTE   W19
        BYTE                   43
        BYTE   W06
        BYTE                   42
        BYTE   W12
// 036   ----------------------------------------
        BYTE           N20     En3
        BYTE   W01
        BYTE           VOL     41
        BYTE   W13
        BYTE                   40
        BYTE   W06
        BYTE                   39
        BYTE   W04
        BYTE           N90     Cs3   v067   gtp1
        BYTE   W02
        BYTE           VOL     38
        BYTE   W07
        BYTE                   37
        BYTE   W06
        BYTE                   36
        BYTE   W06
        BYTE                   35
        BYTE   W06
        BYTE                   34
        BYTE   W06
        BYTE                   33
        BYTE   W03
        BYTE                   32
        BYTE   W06
        BYTE                   31
        BYTE   W03
        BYTE                   30
        BYTE   W03
        BYTE                   29
        BYTE   W03
        BYTE                   28
        BYTE   W06
        BYTE                   27
        BYTE   W03
        BYTE                   26
        BYTE   W03
        BYTE                   25
        BYTE   W03
        BYTE                   24
        BYTE   W03
        BYTE                   23
        BYTE   W03
// 037   ----------------------------------------
        BYTE                   22
        BYTE   W03
        BYTE                   20
        BYTE   W03
        BYTE                   19
        BYTE   W03
        BYTE                   18
        BYTE   W03
        BYTE                   16
        BYTE   W03
        BYTE                   15
        BYTE   W03
        BYTE                   13
        BYTE   W02
        BYTE                   12
        BYTE   W76
// 038   ----------------------------------------
        BYTE   W96
// 039   ----------------------------------------
        BYTE   W96
// 040   ----------------------------------------
        BYTE   W24
        BYTE                   50
        BYTE   W72
// 041   ----------------------------------------
        BYTE   W24
        BYTE           N23     Fs3   v068
        BYTE   W24
        BYTE                   En3   v065
        BYTE   W24
        BYTE                   Bn3   v078
        BYTE   W24
// 042   ----------------------------------------
        BYTE                   Gs3   v084
        BYTE   W24
        BYTE           N80     Cs3   v095
        BYTE   W12
        BYTE           VOL     49
        BYTE   W06
        BYTE                   48
        BYTE   W09
        BYTE                   47
        BYTE   W06
        BYTE                   46
        BYTE   W06
        BYTE                   45
        BYTE   W06
        BYTE                   44
        BYTE   W06
        BYTE                   43
        BYTE   W03
        BYTE                   42
        BYTE   W06
        BYTE                   41
        BYTE   W03
        BYTE                   40
        BYTE   W03
        BYTE                   39
        BYTE   W06
// 043   ----------------------------------------
        BYTE                   38
        BYTE   W03
        BYTE                   37
        BYTE   W03
        BYTE                   35
        BYTE   W03
        BYTE                   34
        BYTE           N02     Dn3   v122
        BYTE   W03
        BYTE           VOL     33
        BYTE           N02     En3
        BYTE   W03
        BYTE           VOL     32
        BYTE           N02     Fs3
        BYTE   W03
        BYTE           VOL     30
        BYTE           N02     Gs3
        BYTE   W03
        BYTE           VOL     29
        BYTE           N02     An3
        BYTE   W02
        BYTE           VOL     27
        BYTE   W01
        BYTE           N44     Bn3   v119   gtp3
        BYTE   W05
        BYTE           VOL     28
        BYTE   W15
        BYTE                   29
        BYTE   W09
        BYTE                   30
        BYTE   W09
        BYTE                   31
        BYTE   W06
        BYTE                   32
        BYTE   W04
        BYTE           N32     Gs3   v117   gtp3
        BYTE   W02
        BYTE           VOL     33
        BYTE   W06
        BYTE                   34
        BYTE   W03
        BYTE                   35
        BYTE   W06
        BYTE                   36
        BYTE   W03
        BYTE                   37
        BYTE   W03
        BYTE                   38
        BYTE   W01
// 044   ----------------------------------------
        BYTE   W02
        BYTE                   39
        BYTE   W03
        BYTE                   40
        BYTE   W03
        BYTE                   41
        BYTE   W01
        BYTE                   42
        BYTE   W03
        BYTE           N05     Fs3   v107
        BYTE   W06
        BYTE                   Gs3   v115
        BYTE   W06
        BYTE   GoTo
         POIN2  FootstepsOfFate_5_LOOP
        BYTE   W02
        BYTE   FINE

//****************** Track 6 (Midi-Chn.6) ******************//

FootstepsOfFate_6:
        BYTE   KEYSH   FootstepsOfFate_key+0
// 000   ----------------------------------------
        BYTE           VOICE   77
        BYTE   W96
// 001   ----------------------------------------
        BYTE   W96
// 002   ----------------------------------------
        BYTE   W96
// 003   ----------------------------------------
        BYTE   W24
        BYTE           PAN     c_v-23
        BYTE           VOL     5
        BYTE   W01
        BYTE                   6
        BYTE   W03
        BYTE                   7
        BYTE   W05
        BYTE                   8
        BYTE   W04
        BYTE                   9
        BYTE   W03
        BYTE                   10
        BYTE   W03
        BYTE                   11
        BYTE   W03
        BYTE                   12
        BYTE   W03
        BYTE                   13
        BYTE   W03
        BYTE                   14
        BYTE   W03
        BYTE                   15
        BYTE   W03
        BYTE                   16
        BYTE   W03
        BYTE                   17
        BYTE   W02
        BYTE                   18
        BYTE   W03
        BYTE                   19
        BYTE   W01
        BYTE                   20
        BYTE   W03
        BYTE                   21
        BYTE   W02
        BYTE                   22
        BYTE   W01
        BYTE                   23
        BYTE   W03
        BYTE                   24
        BYTE   W02
        BYTE                   25
        BYTE   W03
        BYTE                   27
        BYTE   W03
        BYTE                   28
        BYTE   W01
        BYTE                   29
        BYTE   W02
        BYTE                   30
        BYTE   W01
        BYTE                   31
        BYTE   W02
        BYTE                   32
        BYTE   W01
        BYTE                   33
        BYTE   W02
        BYTE                   34
        BYTE   W01
        BYTE                   35
        BYTE   W02
// 004   ----------------------------------------
        BYTE                   36
        BYTE   W01
        BYTE                   37
        BYTE   W02
        BYTE                   38
        BYTE   W01
        BYTE                   40
        BYTE   W02
        BYTE                   41
        BYTE   W01
        BYTE                   42
        BYTE   W02
        BYTE                   44
        BYTE   W01
        BYTE                   45
        BYTE   W01
        BYTE                   46
        BYTE   W84
        BYTE   W01
// 005   ----------------------------------------
        BYTE   W96
// 006   ----------------------------------------
        BYTE   W24
FootstepsOfFate_6_LOOP:
        BYTE   W72
// 007   ----------------------------------------
        BYTE   W96
// 008   ----------------------------------------
        BYTE   W24
        BYTE           PAN     c_v-10
        BYTE           N72     An2   v108   gtp3
        BYTE           VOL     57
        BYTE   W01
        BYTE                   55
        BYTE   W01
        BYTE                   53
        BYTE   W01
        BYTE                   50
        BYTE   W01
        BYTE                   48
        BYTE   W01
        BYTE                   46
        BYTE   W01
        BYTE                   42
        BYTE   W01
        BYTE                   41
        BYTE   W01
        BYTE                   39
        BYTE   W01
        BYTE                   35
        BYTE   W03
        BYTE                   36
        BYTE   W06
        BYTE                   37
        BYTE   W03
        BYTE                   38
        BYTE   W03
        BYTE                   39
        BYTE   W03
        BYTE                   40
        BYTE   W03
        BYTE                   41
        BYTE   W06
        BYTE                   42
        BYTE   W03
        BYTE                   43
        BYTE   W03
        BYTE                   45
        BYTE   W03
        BYTE                   46
        BYTE   W03
        BYTE                   47
        BYTE   W03
        BYTE                   49
        BYTE   W03
        BYTE                   50
        BYTE   W03
        BYTE                   52
        BYTE   W03
        BYTE                   54
        BYTE   W03
        BYTE                   56
        BYTE   W03
        BYTE                   59
        BYTE   W06
// 009   ----------------------------------------
        BYTE   W06
        BYTE           N05     An2   v090
        BYTE           N05     Cs3   v107
        BYTE   W06
        BYTE                   Cs3   v091
        BYTE           N05     Fs3   v108
        BYTE   W06
        BYTE                   En3   v092
        BYTE           N05     Gs3   v109
        BYTE   W06
        BYTE                   En3   v091
        BYTE           N05     Gs3   v108
        BYTE   W06
        BYTE                   Fs3   v088
        BYTE           N05     An3   v105
        BYTE   W06
        BYTE           N32     Gs3   v094   gtp3
        BYTE                   Bn3   v111
        BYTE   W02
        BYTE           VOL     56
        BYTE   W01
        BYTE                   53
        BYTE   W01
        BYTE                   47
        BYTE   W01
        BYTE                   45
        BYTE   W01
        BYTE                   42
        BYTE   W01
        BYTE                   36
        BYTE   W03
        BYTE                   37
        BYTE   W06
        BYTE                   38
        BYTE   W03
        BYTE                   39
        BYTE   W03
        BYTE                   40
        BYTE   W03
        BYTE                   41
        BYTE   W06
        BYTE                   42
        BYTE   W03
        BYTE                   43
        BYTE   W02
        BYTE           N32     Cs4   v085
        BYTE           N32     Fs4   v102
        BYTE   W01
        BYTE           VOL     44
        BYTE   W03
        BYTE                   46
        BYTE   W03
        BYTE                   47
        BYTE   W03
        BYTE                   48
        BYTE   W03
        BYTE                   50
        BYTE   W03
        BYTE                   52
        BYTE   W03
        BYTE                   53
        BYTE   W03
        BYTE                   55
        BYTE   W02
// 010   ----------------------------------------
        BYTE   W01
        BYTE                   57
        BYTE   W02
        BYTE                   59
        BYTE   W06
        BYTE           N03     Fs4   v099
        BYTE   W03
        BYTE           N04     En4   v089
        BYTE           N04     Gs4   v106
        BYTE   W06
        BYTE           N05     Fs4   v083
        BYTE           N05     An4   v100
        BYTE   W06
        BYTE                   En4   v084
        BYTE           N05     Gs4   v101
        BYTE   W06
        BYTE                   Gs3   v084
        BYTE           N05     Bn3   v101
        BYTE   W06
        BYTE           N32     An3   v084   gtp3
        BYTE           TIE     Cs4   v101
        BYTE   W02
        BYTE           VOL     56
        BYTE   W01
        BYTE                   53
        BYTE   W01
        BYTE                   48
        BYTE   W01
        BYTE                   45
        BYTE   W01
        BYTE                   42
        BYTE   W01
        BYTE                   37
        BYTE   W15
        BYTE                   38
        BYTE   W12
        BYTE                   39
        BYTE   W02
        BYTE           N23     Gs3   v084
        BYTE   W07
        BYTE           VOL     40
        BYTE   W09
        BYTE                   41
        BYTE   W08
// 011   ----------------------------------------
        BYTE           N23     Fs3
        BYTE   W04
        BYTE           VOL     42
        BYTE   W06
        BYTE                   43
        BYTE   W06
        BYTE                   44
        BYTE   W06
        BYTE                   45
        BYTE   W02
        BYTE           N23     Dn3
        BYTE   W04
        BYTE           VOL     46
        BYTE   W03
        BYTE                   47
        BYTE   W06
        BYTE                   48
        BYTE   W03
        BYTE                   49
        BYTE   W03
        BYTE                   50
        BYTE   W03
        BYTE                   51
        BYTE   W01
        BYTE           EOT     Cs4
        BYTE   W01
        BYTE           N23     En3
        BYTE           N23     Cs4   v101
        BYTE   W01
        BYTE           VOL     52
        BYTE   W03
        BYTE                   53
        BYTE   W03
        BYTE                   54
        BYTE   W03
        BYTE                   55
        BYTE   W03
        BYTE                   56
        BYTE   W03
        BYTE                   58
        BYTE   W01
        BYTE                   59
        BYTE   W07
        BYTE           N04     An3   v084
        BYTE           N04     An4   v101
        BYTE   W06
        BYTE                   Gs3   v084
        BYTE           N04     Gs4   v101
        BYTE   W06
        BYTE                   Fs3   v084
        BYTE           N04     Fs4   v101
        BYTE   W06
        BYTE                   Cs3   v084
        BYTE           N04     Cs4   v101
        BYTE   W06
// 012   ----------------------------------------
        BYTE                   An2   v084
        BYTE           N04     An3   v101
        BYTE   W06
        BYTE                   Gs2   v084
        BYTE           N04     Gs3   v101
        BYTE   W06
        BYTE                   En2   v084
        BYTE           N04     En3   v101
        BYTE   W06
        BYTE                   Bn1   v084
        BYTE           N04     Bn2   v101
        BYTE   W06
        BYTE           VOL     42
        BYTE           PAN     c_v+6
        BYTE           N80     Cs4   v105   gtp3
        BYTE                   An4   v090
        BYTE   W08
        BYTE           VOL     41
        BYTE   W01
        BYTE                   40
        BYTE   W01
        BYTE                   38
        BYTE   W01
        BYTE                   36
        BYTE   W01
        BYTE                   35
        BYTE   W01
        BYTE                   34
        BYTE   W01
        BYTE                   32
        BYTE   W07
        BYTE                   31
        BYTE   W06
        BYTE                   32
        BYTE   W09
        BYTE                   33
        BYTE   W06
        BYTE                   34
        BYTE   W06
        BYTE                   35
        BYTE   W09
        BYTE                   36
        BYTE   W06
        BYTE                   37
        BYTE   W03
        BYTE                   38
        BYTE   W06
// 013   ----------------------------------------
        BYTE                   39
        BYTE   W06
        BYTE                   40
        BYTE   W03
        BYTE                   41
        BYTE   W03
        BYTE                   42
        BYTE           N03     Bn3   v096
        BYTE           N03     Gs4   v082
        BYTE   W06
        BYTE           N04     Cs4   v099
        BYTE           N04     An4   v081
        BYTE   W06
        BYTE           N44     Bn3   v099   gtp3
        BYTE                   Gs4   v079
        BYTE   W11
        BYTE           VOL     41
        BYTE   W12
        BYTE                   40
        BYTE   W12
        BYTE                   39
        BYTE   W09
        BYTE                   38
        BYTE   W04
        BYTE           N32     En3   v114   gtp2
        BYTE                   Bn3
        BYTE   W05
        BYTE           VOL     37
        BYTE   W06
        BYTE                   36
        BYTE   W06
        BYTE                   35
        BYTE   W03
        BYTE                   34
        BYTE   W04
// 014   ----------------------------------------
        BYTE   W02
        BYTE                   33
        BYTE   W10
        BYTE                   34
        BYTE           N04     Gs3   v112
        BYTE   W06
        BYTE           VOL     35
        BYTE           N03     An3   v114
        BYTE   W03
        BYTE           VOL     36
        BYTE   W03
        BYTE           N04     Bn3   v117
        BYTE   W03
        BYTE           VOL     37
        BYTE   W03
        BYTE                   38
        BYTE           N04     Cs4   v107
        BYTE   W03
        BYTE           VOL     39
        BYTE   W03
        BYTE                   40
        BYTE           N64     Dn4   v109   gtp1
        BYTE   W01
        BYTE           MOD     1
        BYTE   W01
        BYTE           VOL     42
        BYTE           MOD     2
        BYTE   W01
        BYTE           VOL     41
        BYTE   W01
        BYTE           MOD     3
        BYTE   W01
        BYTE           VOL     40
        BYTE           MOD     4
        BYTE   W01
        BYTE           VOL     38
        BYTE   W01
        BYTE           MOD     5
        BYTE   W01
        BYTE           VOL     37
        BYTE           MOD     6
        BYTE   W01
        BYTE           VOL     36
        BYTE   W02
        BYTE                   35
        BYTE   W01
        BYTE                   34
        BYTE   W02
        BYTE                   33
        BYTE   W01
        BYTE                   31
        BYTE   W06
        BYTE                   32
        BYTE   W09
        BYTE                   33
        BYTE   W06
        BYTE                   34
        BYTE   W06
        BYTE                   35
        BYTE   W06
        BYTE                   36
        BYTE   W06
        BYTE                   37
        BYTE   W03
        BYTE                   38
        BYTE   W03
// 015   ----------------------------------------
        BYTE                   39
        BYTE   W03
        BYTE           MOD     4
        BYTE           VOL     40
        BYTE   W01
        BYTE           MOD     3
        BYTE   W01
        BYTE                   0
        BYTE   W01
        BYTE           N01     Bn3   v118
        BYTE           VOL     41
        BYTE   W02
        BYTE           N01     Cs4
        BYTE   W01
        BYTE           VOL     42
        BYTE   W01
        BYTE           N01     Dn4
        BYTE   W02
        BYTE           N04     En4   v114
        BYTE   W06
        BYTE                   Fs4   v107
        BYTE   W06
        BYTE                   En4   v108
        BYTE   W06
        BYTE                   Bn3   v106
        BYTE   W06
        BYTE           N68     Gs3   v108
        BYTE   W24
        BYTE           VOL     41
        BYTE   W04
        BYTE                   40
        BYTE   W05
        BYTE                   39
        BYTE   W04
        BYTE                   38
        BYTE   W05
        BYTE                   37
        BYTE   W03
        BYTE                   36
        BYTE   W03
        BYTE                   35
        BYTE   W03
        BYTE                   34
        BYTE   W03
        BYTE                   33
        BYTE   W01
        BYTE                   32
        BYTE   W03
        BYTE                   31
        BYTE   W02
// 016   ----------------------------------------
        BYTE                   30
        BYTE   W03
        BYTE                   29
        BYTE   W01
        BYTE                   28
        BYTE   W02
        BYTE                   27
        BYTE   W01
        BYTE                   26
        BYTE   W02
        BYTE                   25
        BYTE   W03
        BYTE           N05     Fs3   v111
        BYTE   W02
        BYTE           VOL     26
        BYTE   W02
        BYTE                   27
        BYTE   W02
        BYTE           N05     Gs3   v106
        BYTE   W01
        BYTE           VOL     28
        BYTE   W01
        BYTE                   29
        BYTE   W02
        BYTE                   30
        BYTE   W01
        BYTE                   31
        BYTE   W01
        BYTE           N88     An3   v100   gtp1
        BYTE   W01
        BYTE           VOL     32
        BYTE   W01
        BYTE           MOD     1
        BYTE           VOL     34
        BYTE   W01
        BYTE           MOD     2
        BYTE   W01
        BYTE           VOL     36
        BYTE   W01
        BYTE           MOD     3
        BYTE           VOL     38
        BYTE   W01
        BYTE                   40
        BYTE           MOD     4
        BYTE   W02
        BYTE                   5
        BYTE   W01
        BYTE                   6
        BYTE   W12
        BYTE           VOL     39
        BYTE   W12
        BYTE                   38
        BYTE   W09
        BYTE                   37
        BYTE   W09
        BYTE                   36
        BYTE   W06
        BYTE                   35
        BYTE   W09
        BYTE                   34
        BYTE   W03
        BYTE                   33
        BYTE   W03
// 017   ----------------------------------------
        BYTE   W03
        BYTE                   32
        BYTE   W06
        BYTE                   31
        BYTE   W03
        BYTE                   30
        BYTE   W03
        BYTE                   29
        BYTE   W01
        BYTE           MOD     4
        BYTE   W01
        BYTE                   0
        BYTE   W01
        BYTE           N02     Gs3
        BYTE   W03
        BYTE                   An3
        BYTE           VOL     28
        BYTE   W03
        BYTE           N76     Gs3   v100   gtp1
        BYTE   W04
        BYTE           MOD     1
        BYTE   W02
        BYTE                   2
        BYTE   W01
        BYTE                   3
        BYTE   W02
        BYTE                   4
        BYTE   W01
        BYTE           VOL     29
        BYTE           MOD     5
        BYTE   W02
        BYTE                   15
        BYTE   W01
        BYTE                   6
        BYTE   W09
        BYTE           VOL     30
        BYTE   W09
        BYTE                   31
        BYTE   W09
        BYTE                   32
        BYTE   W06
        BYTE                   33
        BYTE   W06
        BYTE                   34
        BYTE   W06
        BYTE                   35
        BYTE   W06
        BYTE                   36
        BYTE   W06
        BYTE                   37
        BYTE   W02
// 018   ----------------------------------------
        BYTE   W01
        BYTE                   38
        BYTE   W06
        BYTE                   39
        BYTE   W02
        BYTE           MOD     5
        BYTE   W01
        BYTE           VOL     40
        BYTE           MOD     3
        BYTE   W01
        BYTE                   2
        BYTE   W01
        BYTE                   0
        BYTE   W01
        BYTE           VOL     41
        BYTE   W03
        BYTE                   42
        BYTE   W80
// 019   ----------------------------------------
        BYTE   W24
        BYTE           PAN     c_v-10
        BYTE           VOL     38
        BYTE   W72
// 020   ----------------------------------------
        BYTE           N05     Gs3   v097
        BYTE   W02
        BYTE           VOL     39
        BYTE   W04
        BYTE           N05     As3   v101
        BYTE   W01
        BYTE           VOL     40
        BYTE   W03
        BYTE                   41
        BYTE   W02
        BYTE           N05     Cn4   v074
        BYTE   W01
        BYTE           VOL     42
        BYTE   W01
        BYTE                   43
        BYTE   W03
        BYTE                   44
        BYTE   W01
        BYTE           N05     Dn4   v082
        BYTE   W02
        BYTE           VOL     45
        BYTE   W02
        BYTE                   46
        BYTE   W01
        BYTE                   47
        BYTE   W01
        BYTE           N44     En4   v091   gtp3
        BYTE   W02
        BYTE           VOL     48
        BYTE   W02
        BYTE                   49
        BYTE   W01
        BYTE                   50
        BYTE   W01
        BYTE                   51
        BYTE   W10
        BYTE                   50
        BYTE   W20
        BYTE                   49
        BYTE   W12
        BYTE           N32     Bn3   v069   gtp3
        BYTE   W14
        BYTE           VOL     48
        BYTE   W10
// 021   ----------------------------------------
        BYTE   W05
        BYTE                   47
        BYTE   W07
        BYTE           N05     An3   v061
        BYTE   W06
        BYTE                   Gn3   v052
        BYTE   W02
        BYTE           VOL     46
        BYTE   W04
        BYTE           N44     Fs3   v081   gtp3
        BYTE   W06
        BYTE           VOL     45
        BYTE   W16
        BYTE                   44
        BYTE   W10
        BYTE                   43
        BYTE   W15
        BYTE                   42
        BYTE   W01
        BYTE           N44     En3   v073   gtp3
        BYTE   W04
        BYTE           VOL     41
        BYTE   W11
        BYTE                   40
        BYTE   W09
// 022   ----------------------------------------
        BYTE   W01
        BYTE                   39
        BYTE   W05
        BYTE                   38
        BYTE   W10
        BYTE                   37
        BYTE   W08
        BYTE           N92     Fs3   v075   gtp3
        BYTE   W01
        BYTE           VOL     38
        BYTE   W06
        BYTE                   39
        BYTE   W06
        BYTE                   40
        BYTE   W03
        BYTE                   41
        BYTE   W03
        BYTE                   42
        BYTE   W03
        BYTE                   43
        BYTE   W06
        BYTE                   45
        BYTE   W06
        BYTE                   47
        BYTE   W03
        BYTE                   48
        BYTE   W03
        BYTE                   50
        BYTE   W02
        BYTE                   51
        BYTE   W03
        BYTE                   50
        BYTE   W06
        BYTE                   49
        BYTE   W09
        BYTE                   48
        BYTE   W03
        BYTE                   47
        BYTE   W06
        BYTE                   46
        BYTE   W03
// 023   ----------------------------------------
        BYTE   W03
        BYTE                   45
        BYTE   W06
        BYTE                   44
        BYTE   W03
        BYTE                   43
        BYTE   W03
        BYTE                   42
        BYTE   W03
        BYTE                   41
        BYTE   W06
        BYTE                   39
        BYTE   W06
        BYTE                   37
        BYTE   W06
        BYTE                   35
        BYTE   W03
        BYTE                   34
        BYTE   W03
        BYTE                   33
        BYTE   W03
        BYTE                   31
        BYTE   W03
        BYTE                   30
        BYTE   W03
        BYTE                   28
        BYTE   W03
        BYTE                   26
        BYTE   W02
        BYTE                   25
        BYTE   W40
// 024   ----------------------------------------
        BYTE   W96
// 025   ----------------------------------------
        BYTE   W96
// 026   ----------------------------------------
        BYTE   W96
// 027   ----------------------------------------
        BYTE   W07
        BYTE                   27
        BYTE   W01
        BYTE                   29
        BYTE   W01
        BYTE                   32
        BYTE   W01
        BYTE                   37
        BYTE   W01
        BYTE                   39
        BYTE   W01
        BYTE                   40
        BYTE   W07
        BYTE                   41
        BYTE   W05
        BYTE           N05     En3   v074
        BYTE   W06
        BYTE                   Fs3   v057
        BYTE   W06
        BYTE                   Gn3   v061
        BYTE   W03
        BYTE           VOL     42
        BYTE   W03
        BYTE           N05     Fs3   v064
        BYTE   W06
        BYTE                   En3   v077
        BYTE   W02
        BYTE           VOL     43
        BYTE   W04
        BYTE           N05     Fs3   v068
        BYTE   W06
        BYTE                   Gn3   v074
        BYTE   W02
        BYTE           VOL     44
        BYTE   W04
        BYTE           N05     Fs3   v068
        BYTE   W04
        BYTE           VOL     45
        BYTE   W02
        BYTE           N05     En3   v070
        BYTE   W06
        BYTE                   Fs3   v057
        BYTE   W03
        BYTE           VOL     46
        BYTE   W03
        BYTE           N05     Gn3   v055
        BYTE   W05
        BYTE           VOL     47
        BYTE   W01
        BYTE           N05     Fs3   v037
        BYTE   W06
// 028   ----------------------------------------
        BYTE                   Fs3   v070
        BYTE   W01
        BYTE           VOL     48
        BYTE   W04
        BYTE                   49
        BYTE   W01
        BYTE           N05     Bn3   v069
        BYTE   W06
        BYTE                   En4   v049
        BYTE           VOL     50
        BYTE   W04
        BYTE                   51
        BYTE   W02
        BYTE           N05     An4   v066
        BYTE   W06
        BYTE           N76     Gs4   v099   gtp1
        BYTE   W03
        BYTE           VOL     45
        BYTE   W01
        BYTE                   39
        BYTE   W01
        BYTE                   33
        BYTE   W01
        BYTE                   22
        BYTE   W01
        BYTE                   14
        BYTE   W06
        BYTE                   15
        BYTE   W03
        BYTE                   16
        BYTE   W03
        BYTE                   17
        BYTE   W03
        BYTE                   18
        BYTE   W03
        BYTE                   19
        BYTE   W03
        BYTE                   20
        BYTE   W02
        BYTE                   21
        BYTE   W03
        BYTE                   22
        BYTE   W01
        BYTE                   23
        BYTE   W02
        BYTE                   24
        BYTE   W03
        BYTE                   26
        BYTE   W03
        BYTE                   28
        BYTE   W03
        BYTE                   29
        BYTE   W01
        BYTE                   31
        BYTE   W02
        BYTE                   32
        BYTE   W01
        BYTE                   34
        BYTE   W02
        BYTE                   35
        BYTE   W01
        BYTE                   37
        BYTE   W02
        BYTE                   39
        BYTE   W01
        BYTE                   41
        BYTE   W02
        BYTE                   43
        BYTE   W01
        BYTE                   46
        BYTE   W02
        BYTE                   49
        BYTE   W01
        BYTE                   51
        BYTE   W11
// 029   ----------------------------------------
        BYTE   W06
        BYTE           N05     Gs4   v062
        BYTE   W06
        BYTE           N03     Bn3   v100
        BYTE   W04
        BYTE                   Cs4   v087
        BYTE   W04
        BYTE                   Dn4   v086
        BYTE   W04
        BYTE           N88     Cs4   v073   gtp1
        BYTE   W72
// 030   ----------------------------------------
        BYTE   W07
        BYTE           VOL     50
        BYTE   W12
        BYTE                   49
        BYTE   W05
        BYTE           N78     Cs3   v085   gtp1
        BYTE   W07
        BYTE           VOL     48
        BYTE   W06
        BYTE                   47
        BYTE   W09
        BYTE                   46
        BYTE   W06
        BYTE                   45
        BYTE   W06
        BYTE                   44
        BYTE   W06
        BYTE                   43
        BYTE   W06
        BYTE                   42
        BYTE   W03
        BYTE                   41
        BYTE   W03
        BYTE                   40
        BYTE   W03
        BYTE                   39
        BYTE   W03
        BYTE                   38
        BYTE   W03
        BYTE                   37
        BYTE   W03
        BYTE                   36
        BYTE   W03
        BYTE                   35
        BYTE   W02
        BYTE                   34
        BYTE   W03
// 031   ----------------------------------------
        BYTE   W09
        BYTE                   35
        BYTE   W03
        BYTE           N05     Bn2   v089
        BYTE           N05     Dn3   v099
        BYTE   W06
        BYTE                   Cs3   v091
        BYTE           N05     En3   v101
        BYTE   W06
        BYTE                   Dn3   v087
        BYTE           N05     Fs3   v097
        BYTE           VOL     36
        BYTE   W06
        BYTE           N05     Cs3   v093
        BYTE           N05     En3   v103
        BYTE           VOL     37
        BYTE   W06
        BYTE           N32     Gs3   v090   gtp3
        BYTE                   Bn3   v100
        BYTE   W06
        BYTE           VOL     38
        BYTE   W06
        BYTE                   39
        BYTE   W09
        BYTE                   40
        BYTE   W06
        BYTE                   41
        BYTE   W06
        BYTE                   42
        BYTE   W03
        BYTE           N05     Gs3   v089
        BYTE           N05     Bn3   v099
        BYTE           VOL     43
        BYTE   W06
        BYTE           N05     Fs3   v085
        BYTE           N05     An3   v095
        BYTE           VOL     44
        BYTE   W06
        BYTE           N22     Cs4   v090
        BYTE           N22     En4   v100
        BYTE           VOL     45
        BYTE   W03
        BYTE                   46
        BYTE   W03
        BYTE                   47
        BYTE   W06
// 032   ----------------------------------------
        BYTE                   48
        BYTE   W03
        BYTE                   49
        BYTE   W03
        BYTE                   50
        BYTE   W01
        BYTE                   51
        BYTE   W05
        BYTE           N03     Bn3   v085
        BYTE           N03     Dn4   v095
        BYTE   W04
        BYTE                   Cs4   v089
        BYTE           N03     En4   v099
        BYTE   W04
        BYTE                   Bn3   v087
        BYTE           N03     Dn4   v097
        BYTE   W04
        BYTE           N90     Cs4   v096   gtp1
        BYTE   W11
        BYTE           VOL     50
        BYTE   W06
        BYTE                   49
        BYTE   W09
        BYTE                   48
        BYTE   W03
        BYTE                   47
        BYTE   W06
        BYTE                   46
        BYTE   W03
        BYTE                   45
        BYTE   W06
        BYTE                   44
        BYTE   W03
        BYTE                   43
        BYTE   W03
        BYTE                   42
        BYTE   W03
        BYTE                   41
        BYTE   W03
        BYTE                   40
        BYTE   W03
        BYTE                   39
        BYTE   W03
        BYTE                   38
        BYTE   W03
        BYTE                   37
        BYTE   W03
        BYTE                   35
        BYTE   W03
        BYTE                   34
        BYTE   W01
// 033   ----------------------------------------
        BYTE   W02
        BYTE                   32
        BYTE   W03
        BYTE                   31
        BYTE   W03
        BYTE                   29
        BYTE   W03
        BYTE                   27
        BYTE   W02
        BYTE                   24
        BYTE   W80
        BYTE   W03
// 034   ----------------------------------------
        BYTE   W96
// 035   ----------------------------------------
        BYTE   W96
// 036   ----------------------------------------
        BYTE   W24
        BYTE                   38
        BYTE   W72
// 037   ----------------------------------------
        BYTE   W08
        BYTE                   51
        BYTE   W10
        BYTE           N02     Gs4   v091
        BYTE   W03
        BYTE                   An4   v101
        BYTE   W03
        BYTE           TIE     Gs4   v084
        BYTE   W04
        BYTE           VOL     49
        BYTE   W01
        BYTE                   48
        BYTE   W01
        BYTE                   46
        BYTE   W01
        BYTE                   43
        BYTE   W01
        BYTE                   41
        BYTE   W01
        BYTE                   40
        BYTE   W01
        BYTE                   37
        BYTE   W01
        BYTE                   35
        BYTE   W01
        BYTE                   34
        BYTE   W01
        BYTE                   31
        BYTE   W12
        BYTE                   32
        BYTE   W06
        BYTE                   33
        BYTE   W09
        BYTE                   34
        BYTE   W03
        BYTE                   35
        BYTE   W06
        BYTE                   36
        BYTE   W03
        BYTE                   37
        BYTE   W06
        BYTE                   38
        BYTE   W03
        BYTE                   39
        BYTE   W03
        BYTE                   41
        BYTE   W03
        BYTE                   42
        BYTE   W03
        BYTE                   43
        BYTE   W02
// 038   ----------------------------------------
        BYTE   W01
        BYTE                   45
        BYTE   W03
        BYTE                   47
        BYTE   W03
        BYTE                   49
        BYTE   W02
        BYTE                   51
        BYTE   W16
        BYTE           EOT
        BYTE   W68
        BYTE   W03
// 039   ----------------------------------------
        BYTE   W96
// 040   ----------------------------------------
        BYTE   W96
// 041   ----------------------------------------
        BYTE   W96
// 042   ----------------------------------------
        BYTE   W96
// 043   ----------------------------------------
        BYTE   W96
// 044   ----------------------------------------
        BYTE   W24
        BYTE           VOL     46
        BYTE           PAN     c_v-23
        BYTE   GoTo
         POIN2  FootstepsOfFate_6_LOOP
        BYTE   W02
        BYTE   FINE

//****************** Track 7 (Midi-Chn.7) ******************//

FootstepsOfFate_7:
        BYTE   KEYSH   FootstepsOfFate_key+0
// 000   ----------------------------------------
        BYTE           VOICE   105
        BYTE   W24
        BYTE           PAN     c_v+63
        BYTE           VOL     33
        BYTE   W03
        BYTE           N44     En2   v075   gtp3
        BYTE                   Cs3   v083
        BYTE   W06
        BYTE           VOL     34
        BYTE   W09
        BYTE                   35
        BYTE   W03
        BYTE                   36
        BYTE   W06
        BYTE                   37
        BYTE   W06
        BYTE                   38
        BYTE   W03
        BYTE                   39
        BYTE   W03
        BYTE                   40
        BYTE   W01
        BYTE                   41
        BYTE   W06
        BYTE                   40
        BYTE   W05
        BYTE           N44     Dn2   v091   gtp3
        BYTE                   Bn2   v077
        BYTE   W10
        BYTE           VOL     39
        BYTE   W09
        BYTE                   38
        BYTE   W02
// 001   ----------------------------------------
        BYTE   W07
        BYTE                   37
        BYTE   W06
        BYTE                   36
        BYTE   W06
        BYTE                   35
        BYTE   W03
        BYTE                   34
        BYTE   W03
        BYTE                   33
        BYTE   W02
        BYTE           N44     En2   v083   gtp3
        BYTE                   An2   v096
        BYTE           N44     Dn3   v093   gtp3
        BYTE   W15
        BYTE           VOL     34
        BYTE   W06
        BYTE                   35
        BYTE   W03
        BYTE                   36
        BYTE   W06
        BYTE                   37
        BYTE   W03
        BYTE                   39
        BYTE   W03
        BYTE                   41
        BYTE   W06
        BYTE                   40
        BYTE   W06
        BYTE           N44     Fs2   v100   gtp3
        BYTE           N23     Cs3   v091
        BYTE   W03
        BYTE           VOL     39
        BYTE   W09
        BYTE                   38
        BYTE   W06
        BYTE                   37
        BYTE   W03
// 002   ----------------------------------------
        BYTE   W03
        BYTE           N23     Bn2   v084
        BYTE           VOL     36
        BYTE   W06
        BYTE                   35
        BYTE   W03
        BYTE                   34
        BYTE   W06
        BYTE                   33
        BYTE   W06
        BYTE                   32
        BYTE   W72
// 003   ----------------------------------------
        BYTE   W96
// 004   ----------------------------------------
FootstepsOfFate_7_4:
        BYTE   W24
        BYTE           PAN     c_v-21
        BYTE           VOL     46
        BYTE           N92     Fs2   v101   gtp2
        BYTE           N92     An2   v088
        BYTE   W72
        BYTE   PEND
// 005   ----------------------------------------
FootstepsOfFate_7_5:
        BYTE   W24
        BYTE           N88     En2   v097   gtp1
        BYTE                   Gs2   v084
        BYTE   W72
        BYTE   PEND
// 006   ----------------------------------------
        BYTE   W24
FootstepsOfFate_7_LOOP:
        BYTE           N90     Fs2   v088
        BYTE           N92     An2   v080   gtp1
        BYTE   W72
// 007   ----------------------------------------
        BYTE   W24
        BYTE           N18     En2
        BYTE           N23     Gs2   v088
        BYTE   W24
        BYTE           N22     Fs2
        BYTE           N20     An2   v084
        BYTE   W24
        BYTE                   Gs2   v094
        BYTE           N15     Bn2   v101
        BYTE   W24
// 008   ----------------------------------------
        BYTE           N22     Bn2   v108
        BYTE           N20     En3   v094
        BYTE   W24
        BYTE           N92     Fs2   v101   gtp2
        BYTE           N92     An2   v088
        BYTE   W72
// 009   ----------------------------------------
        BYTE   PATT
         POIN2  FootstepsOfFate_7_5
// 010   ----------------------------------------
        BYTE   W24
        BYTE           N90     Fs2   v088
        BYTE           N92     An2   v080   gtp1
        BYTE   W72
// 011   ----------------------------------------
        BYTE   W24
        BYTE           N44     An2   v080   gtp1
        BYTE   W24
        BYTE           N21     Fs3
        BYTE   W24
        BYTE           N18     Gs2   v088
        BYTE           N21     En3   v080
        BYTE   W24
// 012   ----------------------------------------
        BYTE           N05     An2   v088
        BYTE   W06
        BYTE                   Gs2
        BYTE   W06
        BYTE                   En2
        BYTE   W06
        BYTE                   Bn1
        BYTE   W06
        BYTE           VOICE   76
        BYTE           N11     Fs4   v105
        BYTE           N11     An4   v085
        BYTE   W12
        BYTE                   Fs4   v056
        BYTE           N11     An4   v046
        BYTE   W12
        BYTE                   Fs4   v087
        BYTE           N11     An4   v075
        BYTE   W12
        BYTE                   Fs4   v047
        BYTE           N11     An4   v040
        BYTE   W12
        BYTE                   Fs4   v086
        BYTE           N11     An4   v070
        BYTE   W12
        BYTE                   Fs4   v046
        BYTE           N11     An4   v038
        BYTE   W12
// 013   ----------------------------------------
        BYTE                   Fs4   v094
        BYTE           N11     An4   v081
        BYTE   W12
        BYTE                   Fs4   v050
        BYTE           N11     An4   v044
        BYTE   W12
        BYTE                   En4   v096
        BYTE           N11     Gs4   v086
        BYTE   W12
        BYTE                   En4   v051
        BYTE           N11     Gs4   v046
        BYTE   W12
        BYTE                   En4   v080
        BYTE           N11     Gs4   v068
        BYTE   W12
        BYTE                   En4   v043
        BYTE           N11     Gs4   v037
        BYTE   W12
        BYTE                   En4   v082
        BYTE           N11     Gs4   v067
        BYTE   W12
        BYTE                   En4   v044
        BYTE           N11     Gs4   v036
        BYTE   W12
// 014   ----------------------------------------
        BYTE                   En4   v079
        BYTE           N11     Gs4   v069
        BYTE   W12
        BYTE                   En4   v042
        BYTE           N11     Gs4   v037
        BYTE   W12
        BYTE                   Fs4   v091
        BYTE           N11     An4   v078
        BYTE   W12
        BYTE                   Fs4   v049
        BYTE           N11     An4   v042
        BYTE   W12
        BYTE                   Fs4   v078
        BYTE           N11     An4   v063
        BYTE   W12
        BYTE                   Fs4   v042
        BYTE           N11     An4   v033
        BYTE   W12
        BYTE                   Fs4   v082
        BYTE           N11     An4   v067
        BYTE   W12
        BYTE                   Fs4   v044
        BYTE           N11     An4   v036
        BYTE   W12
// 015   ----------------------------------------
        BYTE                   Fs4   v082
        BYTE           N11     An4   v072
        BYTE   W12
        BYTE                   Fs4   v044
        BYTE           N11     An4   v039
        BYTE   W12
        BYTE           N17     En2   v096
        BYTE           N17     Gs2   v088
        BYTE   W18
        BYTE           N02     Fs4   v070
        BYTE   W03
        BYTE                   Gs4   v085
        BYTE   W03
        BYTE           N17     Fs2   v091
        BYTE           N17     An2   v097
        BYTE   W18
        BYTE           N02     En4   v076
        BYTE           N02     Gs4
        BYTE   W03
        BYTE                   Fs4   v103
        BYTE           N02     An4   v099
        BYTE   W03
        BYTE           N17     Gs2   v091
        BYTE           N17     Bn2   v101
        BYTE   W18
        BYTE           N02     Fs4   v067
        BYTE           N02     An4
        BYTE   W03
        BYTE                   Gs4   v066
        BYTE           N02     Bn4   v075
        BYTE   W03
// 016   ----------------------------------------
        BYTE           N04     En4   v083
        BYTE           N04     Gs4   v088
        BYTE   W06
        BYTE           N02     Gs4   v086
        BYTE           N02     Bn4   v083
        BYTE   W06
        BYTE           N03     Cs5   v086
        BYTE           N03     En5   v087
        BYTE   W06
        BYTE           N05     En5   v088
        BYTE           N05     Gs5   v087
        BYTE   W06
        BYTE           N11     Fs4   v104
        BYTE           N11     An4   v088
        BYTE   W12
        BYTE                   Fs4   v056
        BYTE           N11     An4   v047
        BYTE   W12
        BYTE                   Fs4   v088
        BYTE           N11     An4   v076
        BYTE   W12
        BYTE                   Fs4   v047
        BYTE           N11     An4   v041
        BYTE   W12
        BYTE                   Fs4   v089
        BYTE           N11     An4   v070
        BYTE   W12
        BYTE                   Fs4   v048
        BYTE           N11     An4   v038
        BYTE   W12
// 017   ----------------------------------------
        BYTE                   Fs4   v085
        BYTE           N11     An4   v079
        BYTE   W12
        BYTE                   Fs4   v046
        BYTE           N11     An4   v042
        BYTE   W12
        BYTE                   En4   v101
        BYTE           N11     Gs4   v084
        BYTE   W12
        BYTE                   En4   v054
        BYTE           N11     Gs4   v045
        BYTE   W12
        BYTE                   En4   v087
        BYTE           N11     Gs4   v076
        BYTE   W12
        BYTE                   En4   v047
        BYTE           N11     Gs4   v041
        BYTE   W12
        BYTE                   En4   v091
        BYTE           N11     Gs4   v073
        BYTE   W12
        BYTE                   En4   v049
        BYTE           N11     Gs4   v039
        BYTE   W12
// 018   ----------------------------------------
        BYTE                   En4   v090
        BYTE           N11     Gs4   v073
        BYTE   W12
        BYTE                   En4   v048
        BYTE           N11     Gs4   v039
        BYTE   W12
        BYTE                   Cn5   v082
        BYTE           N11     En5   v089
        BYTE   W12
        BYTE                   Cn5   v044
        BYTE           N11     En5   v048
        BYTE   W12
        BYTE                   Cn5   v071
        BYTE           N11     En5   v073
        BYTE   W12
        BYTE                   Cn5   v038
        BYTE           N11     En5   v039
        BYTE   W12
        BYTE                   Cn5   v064
        BYTE           N11     En5   v075
        BYTE   W12
        BYTE                   Cn5   v034
        BYTE           N11     En5   v040
        BYTE   W12
// 019   ----------------------------------------
        BYTE                   Cn5   v066
        BYTE           N11     En5   v079
        BYTE   W12
        BYTE                   Cn5   v036
        BYTE           N11     En5   v042
        BYTE   W12
        BYTE                   Cn5   v086
        BYTE           N11     Ds5   v074
        BYTE   W12
        BYTE                   Cn5   v046
        BYTE           N11     Ds5   v040
        BYTE   W12
        BYTE                   Cn5   v076
        BYTE           N11     Ds5   v062
        BYTE   W12
        BYTE                   Cn5   v041
        BYTE           N11     Ds5   v032
        BYTE   W12
        BYTE                   Cn5   v072
        BYTE           N11     Ds5   v068
        BYTE   W12
        BYTE                   Cn5   v039
        BYTE           N11     Ds5   v037
        BYTE   W12
// 020   ----------------------------------------
        BYTE                   Cn5   v076
        BYTE           N11     Ds5   v063
        BYTE   W12
        BYTE                   Cn5   v041
        BYTE           N11     Ds5   v033
        BYTE   W84
// 021   ----------------------------------------
        BYTE   W96
// 022   ----------------------------------------
        BYTE   W48
        BYTE           VOICE   105
        BYTE           N24     Gs2   v068
        BYTE   W24
        BYTE           N23     Fs2   v078
        BYTE           N23     An2   v081
        BYTE   W24
// 023   ----------------------------------------
        BYTE           N19     Gs2   v091
        BYTE           N19     Bn2   v075
        BYTE   W24
        BYTE           N21     An2   v081
        BYTE           N20     Cs3   v078
        BYTE   W24
        BYTE           N23     Gs2   v087
        BYTE           N23     Bn2   v091
        BYTE   W24
        BYTE                   Fs2
        BYTE           N23     An2   v078
        BYTE   W24
// 024   ----------------------------------------
        BYTE                   Gs2   v081
        BYTE   W24
        BYTE           N96     Dn2   v069
        BYTE           N96     Gn2
        BYTE   W72
// 025   ----------------------------------------
        BYTE   W96
// 026   ----------------------------------------
        BYTE   W96
// 027   ----------------------------------------
        BYTE   W96
// 028   ----------------------------------------
        BYTE   W24
        BYTE           VOL     31
        BYTE           N44     Fs2   v093   gtp3
        BYTE   W30
        BYTE           VOL     32
        BYTE   W18
        BYTE           N44     Cs3   v080   gtp2
        BYTE   W03
        BYTE           VOL     33
        BYTE   W18
        BYTE                   34
        BYTE   W03
// 029   ----------------------------------------
        BYTE   W10
        BYTE                   35
        BYTE   W14
        BYTE           N44     Gs3   v082   gtp3
        BYTE   W03
        BYTE           VOL     36
        BYTE   W13
        BYTE                   37
        BYTE   W13
        BYTE                   38
        BYTE   W09
        BYTE                   39
        BYTE   W08
        BYTE                   40
        BYTE   W02
        BYTE           N44     An3   v089   gtp3
        BYTE   W07
        BYTE           VOL     41
        BYTE   W09
        BYTE                   42
        BYTE   W08
// 030   ----------------------------------------
        BYTE                   43
        BYTE   W05
        BYTE                   44
        BYTE   W08
        BYTE                   45
        BYTE   W04
        BYTE                   46
        BYTE   W07
        BYTE           N44     Gs3   v084   gtp3
        BYTE   W19
        BYTE           VOL     45
        BYTE   W24
        BYTE   W02
        BYTE                   44
        BYTE   W03
        BYTE           N68     Cs3   v088   gtp2
        BYTE   W22
        BYTE           VOL     43
        BYTE   W02
// 031   ----------------------------------------
        BYTE   W09
        BYTE                   42
        BYTE   W20
        BYTE                   41
        BYTE   W16
        BYTE                   40
        BYTE   W03
        BYTE           N23     Dn3   v080
        BYTE   W12
        BYTE           VOL     39
        BYTE   W10
        BYTE                   38
        BYTE   W02
        BYTE           N23     En3   v083
        BYTE   W08
        BYTE           VOL     37
        BYTE   W11
        BYTE                   36
        BYTE   W05
// 032   ----------------------------------------
        BYTE           N20     Dn3   v080
        BYTE   W05
        BYTE           VOL     35
        BYTE   W10
        BYTE                   34
        BYTE   W05
        BYTE                   33
        BYTE   W04
        BYTE           N44     Cs3   v091   gtp3
        BYTE   W01
        BYTE           VOL     32
        BYTE   W24
        BYTE   W01
        BYTE                   33
        BYTE   W24
        BYTE                   34
        BYTE   W15
        BYTE                   35
        BYTE   W07
// 033   ----------------------------------------
        BYTE   W12
        BYTE                   36
        BYTE   W84
// 034   ----------------------------------------
        BYTE   W96
// 035   ----------------------------------------
        BYTE   W96
// 036   ----------------------------------------
        BYTE   W24
        BYTE           PAN     c_v+63
        BYTE           VOL     27
        BYTE   W72
// 037   ----------------------------------------
        BYTE   W08
        BYTE                   35
        BYTE   W13
        BYTE           N02     Gs4
        BYTE   W03
        BYTE                   An4   v101
        BYTE   W03
        BYTE           TIE     Gs4   v084
        BYTE   W02
        BYTE           VOL     33
        BYTE   W01
        BYTE                   32
        BYTE   W01
        BYTE                   30
        BYTE   W01
        BYTE                   29
        BYTE   W01
        BYTE                   28
        BYTE   W01
        BYTE                   26
        BYTE   W01
        BYTE                   25
        BYTE   W01
        BYTE                   24
        BYTE   W01
        BYTE                   21
        BYTE   W06
        BYTE                   22
        BYTE   W09
        BYTE                   23
        BYTE   W12
        BYTE                   24
        BYTE   W06
        BYTE                   25
        BYTE   W06
        BYTE                   26
        BYTE   W06
        BYTE                   27
        BYTE   W03
        BYTE                   28
        BYTE   W06
        BYTE                   29
        BYTE   W03
        BYTE                   30
        BYTE   W02
// 038   ----------------------------------------
        BYTE   W01
        BYTE                   31
        BYTE   W03
        BYTE                   33
        BYTE   W03
        BYTE                   34
        BYTE   W02
        BYTE                   35
        BYTE   W19
        BYTE           EOT
        BYTE   W68
// 039   ----------------------------------------
        BYTE   W96
// 040   ----------------------------------------
        BYTE   W96
// 041   ----------------------------------------
        BYTE   W96
// 042   ----------------------------------------
        BYTE   PATT
         POIN2  FootstepsOfFate_7_4
// 043   ----------------------------------------
        BYTE   PATT
         POIN2  FootstepsOfFate_7_5
// 044   ----------------------------------------
        BYTE   W24
        BYTE   GoTo
         POIN2  FootstepsOfFate_7_LOOP
        BYTE   W02
        BYTE   FINE

//****************** Track 8 (Midi-Chn.8) ******************//

FootstepsOfFate_8:
        BYTE   KEYSH   FootstepsOfFate_key+0
// 000   ----------------------------------------
        BYTE           VOICE   46
        BYTE   W24
        BYTE           PAN     c_v+63
        BYTE           VOL     12
        BYTE   W72
// 001   ----------------------------------------
        BYTE   W96
// 002   ----------------------------------------
        BYTE   W30
        BYTE           N92     Cs2   v071   gtp3
        BYTE   W01
        BYTE           VOL     13
        BYTE   W09
        BYTE                   14
        BYTE   W09
        BYTE                   15
        BYTE   W06
        BYTE                   16
        BYTE   W06
        BYTE                   17
        BYTE   W03
        BYTE                   18
        BYTE   W06
        BYTE                   19
        BYTE   W06
        BYTE                   20
        BYTE   W03
        BYTE                   21
        BYTE   W03
        BYTE                   22
        BYTE   W03
        BYTE                   23
        BYTE   W03
        BYTE                   24
        BYTE   W03
        BYTE                   26
        BYTE   W03
        BYTE                   27
        BYTE   W02
// 003   ----------------------------------------
        BYTE   W01
        BYTE                   29
        BYTE   W03
        BYTE                   31
        BYTE   W03
        BYTE                   33
        BYTE   W03
        BYTE                   35
        BYTE   W03
        BYTE                   38
        BYTE   W02
        BYTE                   41
        BYTE   W01
        BYTE                   40
        BYTE   W02
        BYTE                   38
        BYTE   W01
        BYTE                   37
        BYTE   W02
        BYTE                   36
        BYTE   W01
        BYTE                   35
        BYTE   W02
        BYTE                   33
        BYTE   W06
        BYTE           N05     Bn2   v066
        BYTE   W01
        BYTE           VOL     34
        BYTE   W05
        BYTE           N05     An2   v065
        BYTE   W05
        BYTE           VOL     35
        BYTE   W01
        BYTE           N05     Gs2   v072
        BYTE   W06
        BYTE                   En2   v061
        BYTE   W04
        BYTE           VOL     36
        BYTE   W02
        BYTE           N05     Dn3   v049
        BYTE   W06
        BYTE                   Cs3   v055
        BYTE   W02
        BYTE           VOL     37
        BYTE   W04
        BYTE           N05     Bn2   v061
        BYTE   W06
        BYTE                   Gs2   v070
        BYTE   W01
        BYTE           VOL     38
        BYTE   W05
        BYTE           N05     Fs3   v056
        BYTE   W05
        BYTE           VOL     39
        BYTE   W01
        BYTE           N05     En3   v052
        BYTE   W06
        BYTE                   Dn3   v055
        BYTE   W04
        BYTE           VOL     40
        BYTE   W02
// 004   ----------------------------------------
        BYTE           N05     Bn2   v064
        BYTE   W05
        BYTE           VOL     41
        BYTE   W01
        BYTE           N05     An3   v056
        BYTE   W06
        BYTE                   Gs3   v055
        BYTE   W06
        BYTE                   En3   v063
        BYTE   W06
        BYTE                   Bn2   v065
        BYTE   W10
        BYTE           VOL     40
        BYTE   W04
        BYTE                   39
        BYTE   W05
        BYTE                   38
        BYTE   W04
        BYTE                   37
        BYTE   W05
        BYTE                   36
        BYTE   W04
        BYTE                   35
        BYTE   W03
        BYTE                   34
        BYTE   W03
        BYTE                   33
        BYTE   W05
        BYTE                   32
        BYTE   W03
        BYTE                   31
        BYTE   W03
        BYTE                   30
        BYTE   W03
        BYTE                   29
        BYTE   W03
        BYTE                   28
        BYTE   W03
        BYTE                   27
        BYTE   W01
        BYTE                   26
        BYTE   W03
        BYTE                   25
        BYTE   W03
        BYTE                   24
        BYTE   W02
        BYTE                   23
        BYTE   W01
        BYTE                   22
        BYTE   W03
        BYTE                   21
        BYTE   W01
// 005   ----------------------------------------
        BYTE   W01
        BYTE                   20
        BYTE   W01
        BYTE                   19
        BYTE   W02
        BYTE                   18
        BYTE   W01
        BYTE                   17
        BYTE   W02
        BYTE                   16
        BYTE   W01
        BYTE                   15
        BYTE   W02
        BYTE                   14
        BYTE   W01
        BYTE                   13
        BYTE   W02
        BYTE                   12
        BYTE   W01
        BYTE                   11
        BYTE   W02
        BYTE                   10
        BYTE   W01
        BYTE                   9
        BYTE   W78
        BYTE   W01
// 006   ----------------------------------------
        BYTE   W24
FootstepsOfFate_8_LOOP:
        BYTE   W72
// 007   ----------------------------------------
        BYTE   W96
// 008   ----------------------------------------
        BYTE   W96
// 009   ----------------------------------------
        BYTE   W96
// 010   ----------------------------------------
        BYTE   W96
// 011   ----------------------------------------
        BYTE   W96
// 012   ----------------------------------------
        BYTE   W96
// 013   ----------------------------------------
        BYTE   W96
// 014   ----------------------------------------
        BYTE   W96
// 015   ----------------------------------------
        BYTE   W96
// 016   ----------------------------------------
        BYTE   W24
        BYTE           PAN     c_v-17
        BYTE           N48     An1   v087   gtp2
        BYTE           VOL     44
        BYTE   W01
        BYTE                   29
        BYTE   W02
        BYTE                   30
        BYTE   W03
        BYTE                   31
        BYTE   W03
        BYTE                   32
        BYTE   W01
        BYTE                   33
        BYTE   W02
        BYTE                   34
        BYTE   W01
        BYTE                   35
        BYTE   W03
        BYTE                   36
        BYTE   W02
        BYTE                   37
        BYTE   W01
        BYTE                   38
        BYTE   W02
        BYTE                   39
        BYTE   W01
        BYTE                   40
        BYTE   W02
        BYTE                   41
        BYTE   W01
        BYTE                   43
        BYTE   W02
        BYTE                   44
        BYTE   W01
        BYTE                   45
        BYTE   W02
        BYTE                   46
        BYTE   W01
        BYTE                   48
        BYTE   W02
        BYTE                   50
        BYTE   W01
        BYTE                   52
        BYTE   W02
        BYTE                   53
        BYTE   W01
        BYTE                   56
        BYTE   W02
        BYTE                   58
        BYTE   W01
        BYTE                   61
        BYTE   W02
        BYTE                   63
        BYTE   W01
        BYTE                   66
        BYTE   W01
        BYTE                   69
        BYTE   W10
        BYTE           N03     An1   v091
        BYTE   W06
        BYTE                   Cs2   v088
        BYTE   W06
        BYTE           N23     An2   v068
        BYTE   W06
// 017   ----------------------------------------
        BYTE   W18
        BYTE           N02     Gs2   v095
        BYTE   W03
        BYTE                   An2   v096
        BYTE   W03
        BYTE           N23     Gs2   v077
        BYTE   W13
        BYTE           VOL     68
        BYTE   W02
        BYTE                   67
        BYTE   W01
        BYTE                   66
        BYTE   W02
        BYTE                   65
        BYTE   W01
        BYTE                   64
        BYTE   W02
        BYTE                   62
        BYTE   W01
        BYTE                   61
        BYTE   W02
        BYTE                   58
        BYTE           N23     En2   v086
        BYTE   W01
        BYTE           VOL     56
        BYTE   W02
        BYTE                   54
        BYTE   W01
        BYTE                   51
        BYTE   W02
        BYTE                   48
        BYTE   W01
        BYTE                   43
        BYTE   W01
        BYTE                   39
        BYTE   W05
        BYTE                   40
        BYTE   W01
        BYTE                   41
        BYTE   W03
        BYTE                   42
        BYTE   W02
        BYTE                   43
        BYTE   W03
        BYTE                   44
        BYTE   W02
        BYTE           N32     Bn1   v093   gtp3
        BYTE   W01
        BYTE           VOL     45
        BYTE   W01
        BYTE                   46
        BYTE   W03
        BYTE                   48
        BYTE   W03
        BYTE                   49
        BYTE   W02
        BYTE                   50
        BYTE   W01
        BYTE                   51
        BYTE   W02
        BYTE                   52
        BYTE   W01
        BYTE                   53
        BYTE   W02
        BYTE                   54
        BYTE   W01
        BYTE                   56
        BYTE   W02
        BYTE                   57
        BYTE   W01
        BYTE                   58
        BYTE   W02
        BYTE                   59
        BYTE   W01
        BYTE                   61
        BYTE   W01
// 018   ----------------------------------------
        BYTE   W01
        BYTE                   62
        BYTE   W01
        BYTE                   64
        BYTE   W02
        BYTE                   65
        BYTE   W01
        BYTE                   68
        BYTE   W01
        BYTE                   69
        BYTE   W06
        BYTE           N05     En1   v078
        BYTE           N05     Cs2   v079
        BYTE   W06
        BYTE                   Fs1   v084
        BYTE           N05     Dn2   v079
        BYTE   W06
        BYTE           N23     Gn1   v076
        BYTE           N23     En2   v081
        BYTE   W24
        BYTE                   Bn1   v073
        BYTE           N23     Gn2   v092
        BYTE   W01
        BYTE           VOL     68
        BYTE   W09
        BYTE                   67
        BYTE   W03
        BYTE                   66
        BYTE   W06
        BYTE                   65
        BYTE   W05
        BYTE           N44     En2   v075   gtp3
        BYTE           N32     Bn2   v076   gtp3
        BYTE   W01
        BYTE           VOL     64
        BYTE   W06
        BYTE                   63
        BYTE   W03
        BYTE                   62
        BYTE   W06
        BYTE                   61
        BYTE   W03
        BYTE                   59
        BYTE   W03
        BYTE                   58
        BYTE   W02
// 019   ----------------------------------------
        BYTE   W01
        BYTE                   57
        BYTE   W03
        BYTE                   56
        BYTE   W03
        BYTE                   55
        BYTE   W03
        BYTE                   53
        BYTE   W02
        BYTE           N05     An2   v080
        BYTE   W01
        BYTE           VOL     52
        BYTE   W03
        BYTE                   50
        BYTE   W02
        BYTE           N05     Gn2   v096
        BYTE   W01
        BYTE           VOL     48
        BYTE   W03
        BYTE                   45
        BYTE   W02
        BYTE                   44
        BYTE           N23     Gs1   v072
        BYTE           N05     Gs2   v080
        BYTE   W06
        BYTE           N06     As2   v095
        BYTE   W06
        BYTE           VOL     45
        BYTE           N17     Cn3   v075
        BYTE   W09
        BYTE           VOL     46
        BYTE   W03
        BYTE           N23     As1
        BYTE   W03
        BYTE           VOL     47
        BYTE   W03
        BYTE                   48
        BYTE           N05     As2   v090
        BYTE   W06
        BYTE           VOL     49
        BYTE           N05     Cn3   v070
        BYTE   W06
        BYTE           VOL     50
        BYTE           N05     Dn3   v071
        BYTE   W06
        BYTE           VOL     51
        BYTE           N23     Cn2   v077
        BYTE           N44     Ds3   v065   gtp3
        BYTE   W03
        BYTE           VOL     52
        BYTE   W06
        BYTE                   53
        BYTE   W03
        BYTE                   54
        BYTE   W03
        BYTE                   55
        BYTE   W03
        BYTE                   56
        BYTE   W03
        BYTE                   57
        BYTE   W03
// 020   ----------------------------------------
        BYTE                   59
        BYTE           N05     Gs1   v075
        BYTE   W03
        BYTE           VOL     60
        BYTE   W03
        BYTE                   62
        BYTE           N05     As1   v074
        BYTE   W03
        BYTE           VOL     64
        BYTE   W03
        BYTE                   65
        BYTE           N05     Cn2   v070
        BYTE   W03
        BYTE           VOL     68
        BYTE   W01
        BYTE                   69
        BYTE   W02
        BYTE           N05     Dn2
        BYTE   W01
        BYTE           VOL     68
        BYTE   W03
        BYTE                   67
        BYTE   W01
        BYTE                   66
        BYTE   W01
        BYTE           N68     En2   v048   gtp2
        BYTE           N11     Ds3   v034
        BYTE   W04
        BYTE           VOL     65
        BYTE   W03
        BYTE                   64
        BYTE   W03
        BYTE                   63
        BYTE   W03
        BYTE                   62
        BYTE   W03
        BYTE                   61
        BYTE   W03
        BYTE                   60
        BYTE   W01
        BYTE                   59
        BYTE   W02
        BYTE                   58
        BYTE   W03
        BYTE                   57
        BYTE   W01
        BYTE                   56
        BYTE   W03
        BYTE                   55
        BYTE   W02
        BYTE                   54
        BYTE   W01
        BYTE                   53
        BYTE   W02
        BYTE                   52
        BYTE   W03
        BYTE                   51
        BYTE   W01
        BYTE                   50
        BYTE   W02
        BYTE                   49
        BYTE   W01
        BYTE                   48
        BYTE   W02
        BYTE                   47
        BYTE   W01
        BYTE                   46
        BYTE   W02
        BYTE                   45
        BYTE   W01
        BYTE                   44
        BYTE   W02
        BYTE                   43
        BYTE   W01
        BYTE                   42
        BYTE   W02
        BYTE                   41
        BYTE   W01
        BYTE                   39
        BYTE   W02
        BYTE                   38
        BYTE   W01
        BYTE                   37
        BYTE   W02
        BYTE                   36
        BYTE   W01
        BYTE                   34
        BYTE   W02
        BYTE                   32
        BYTE   W01
        BYTE                   31
        BYTE   W02
        BYTE                   29
        BYTE   W01
        BYTE                   28
        BYTE   W02
        BYTE                   26
        BYTE   W01
        BYTE                   24
        BYTE   W02
        BYTE                   22
        BYTE   W01
        BYTE                   20
        BYTE   W01
// 021   ----------------------------------------
        BYTE   W01
        BYTE                   18
        BYTE   W01
        BYTE                   16
        BYTE   W02
        BYTE                   14
        BYTE   W20
        BYTE                   35
        BYTE           N44     Fs1   v087   gtp3
        BYTE   W01
        BYTE           VOL     36
        BYTE   W02
        BYTE                   38
        BYTE   W01
        BYTE                   41
        BYTE   W02
        BYTE                   43
        BYTE   W01
        BYTE                   45
        BYTE   W02
        BYTE                   47
        BYTE   W01
        BYTE                   49
        BYTE   W02
        BYTE                   51
        BYTE   W01
        BYTE                   53
        BYTE   W01
        BYTE                   55
        BYTE   W06
        BYTE                   54
        BYTE   W06
        BYTE                   53
        BYTE   W10
        BYTE                   52
        BYTE   W09
        BYTE                   51
        BYTE   W03
        BYTE           N44     Bn1   v087   gtp3
        BYTE   W07
        BYTE           VOL     50
        BYTE   W06
        BYTE                   49
        BYTE   W06
        BYTE                   48
        BYTE   W05
// 022   ----------------------------------------
        BYTE   W01
        BYTE                   47
        BYTE   W04
        BYTE                   46
        BYTE   W03
        BYTE                   45
        BYTE   W03
        BYTE                   44
        BYTE   W06
        BYTE                   43
        BYTE   W03
        BYTE                   42
        BYTE   W04
        BYTE                   41
        BYTE           N44     Cs2   v087   gtp3
        BYTE   W06
        BYTE           VOL     40
        BYTE   W03
        BYTE                   39
        BYTE   W06
        BYTE                   38
        BYTE   W03
        BYTE                   37
        BYTE   W06
        BYTE                   36
        BYTE   W03
        BYTE                   35
        BYTE   W03
        BYTE                   34
        BYTE   W06
        BYTE                   32
        BYTE   W03
        BYTE                   31
        BYTE   W03
        BYTE                   29
        BYTE   W03
        BYTE                   28
        BYTE   W03
        BYTE           N44     Bn1   v087   gtp3
        BYTE   W01
        BYTE           VOL     29
        BYTE   W05
        BYTE                   30
        BYTE   W03
        BYTE                   31
        BYTE   W03
        BYTE                   32
        BYTE   W03
        BYTE                   33
        BYTE   W01
        BYTE                   34
        BYTE   W03
        BYTE                   35
        BYTE   W02
        BYTE                   36
        BYTE   W03
// 023   ----------------------------------------
        BYTE                   37
        BYTE   W01
        BYTE                   38
        BYTE   W02
        BYTE                   39
        BYTE   W01
        BYTE                   40
        BYTE   W02
        BYTE                   41
        BYTE   W01
        BYTE                   42
        BYTE   W02
        BYTE                   43
        BYTE   W01
        BYTE                   44
        BYTE   W02
        BYTE                   45
        BYTE   W01
        BYTE                   47
        BYTE   W02
        BYTE                   48
        BYTE   W01
        BYTE                   50
        BYTE   W02
        BYTE                   52
        BYTE   W01
        BYTE                   53
        BYTE   W01
        BYTE                   55
        BYTE   W04
        BYTE           N44     Fs2   v087   gtp3
        BYTE   W08
        BYTE           VOL     54
        BYTE   W06
        BYTE                   53
        BYTE   W09
        BYTE                   52
        BYTE   W06
        BYTE                   51
        BYTE   W09
        BYTE                   50
        BYTE   W06
        BYTE                   49
        BYTE   W04
        BYTE           N44     En2   v087   gtp3
        BYTE   W02
        BYTE           VOL     48
        BYTE   W03
        BYTE                   47
        BYTE   W03
        BYTE                   46
        BYTE   W06
        BYTE                   45
        BYTE   W03
        BYTE                   44
        BYTE   W06
        BYTE                   43
        BYTE   W01
// 024   ----------------------------------------
        BYTE   W02
        BYTE                   42
        BYTE   W03
        BYTE                   41
        BYTE   W03
        BYTE                   39
        BYTE   W03
        BYTE                   38
        BYTE   W03
        BYTE                   37
        BYTE   W03
        BYTE                   36
        BYTE   W03
        BYTE                   35
        BYTE   W03
        BYTE                   33
        BYTE   W01
        BYTE                   57
        BYTE           N05     En2   v054
        BYTE   W06
        BYTE                   Fs2   v051
        BYTE   W06
        BYTE                   Gn2   v058
        BYTE   W06
        BYTE                   Fs2   v033
        BYTE   W06
        BYTE                   En2   v055
        BYTE   W06
        BYTE                   Fs2   v038
        BYTE   W06
        BYTE                   Gn2   v044
        BYTE           VOL     58
        BYTE   W06
        BYTE           N05     Fs2   v051
        BYTE   W06
        BYTE                   En2   v058
        BYTE   W06
        BYTE                   Fs2   v053
        BYTE   W06
        BYTE                   Gn2   v065
        BYTE   W06
        BYTE                   Fs2   v053
        BYTE   W06
// 025   ----------------------------------------
        BYTE                   En2   v069
        BYTE   W01
        BYTE           VOL     59
        BYTE   W05
        BYTE           N05     Fs2   v064
        BYTE   W06
        BYTE                   Gn2   v071
        BYTE   W06
        BYTE                   Fs2   v059
        BYTE   W06
        BYTE                   En2   v073
        BYTE   W06
        BYTE                   Fs2   v061
        BYTE   W06
        BYTE                   Gn2
        BYTE   W01
        BYTE           VOL     60
        BYTE   W05
        BYTE           N05     Fs2   v056
        BYTE   W06
        BYTE                   En2   v073
        BYTE   W06
        BYTE                   Fs2   v056
        BYTE   W01
        BYTE           VOL     61
        BYTE   W05
        BYTE           N05     Gn2   v078
        BYTE   W06
        BYTE                   Fs2   v071
        BYTE   W06
        BYTE                   En2   v088
        BYTE   W06
        BYTE                   Fs2   v068
        BYTE   W06
        BYTE                   Gn2   v084
        BYTE   W06
        BYTE                   Fs2   v074
        BYTE   W02
        BYTE           VOL     62
        BYTE   W04
// 026   ----------------------------------------
        BYTE           N05     En2   v088
        BYTE   W06
        BYTE                   Fs2   v082
        BYTE   W06
        BYTE                   Gn2   v091
        BYTE   W06
        BYTE                   Fs2   v087
        BYTE   W06
        BYTE                   En2   v108
        BYTE   W06
        BYTE                   Fs2   v110
        BYTE   W03
        BYTE           VOL     63
        BYTE   W03
        BYTE           N05     Gn2   v091
        BYTE   W06
        BYTE                   Fs2   v100
        BYTE   W06
        BYTE                   En2   v108
        BYTE   W06
        BYTE                   Fs2   v095
        BYTE   W06
        BYTE                   Gn2   v101
        BYTE   W06
        BYTE                   Fs2   v091
        BYTE   W03
        BYTE           VOL     64
        BYTE   W03
        BYTE           N05     En2   v104
        BYTE   W06
        BYTE                   Fs2   v091
        BYTE   W06
        BYTE                   Gn2
        BYTE   W06
        BYTE                   Fs2   v087
        BYTE   W06
// 027   ----------------------------------------
        BYTE                   En2   v097
        BYTE   W06
        BYTE                   Fs2   v091
        BYTE   W04
        BYTE           VOL     65
        BYTE   W02
        BYTE           N05     Gn2
        BYTE   W06
        BYTE                   Fs2   v087
        BYTE   W06
        BYTE                   En2   v101
        BYTE   W06
        BYTE                   Fs2   v084
        BYTE   W06
        BYTE                   Gn2   v088
        BYTE   W06
        BYTE                   Fs2   v091
        BYTE   W04
        BYTE           VOL     66
        BYTE   W02
        BYTE           N05     En2   v104
        BYTE   W06
        BYTE                   Fs2   v095
        BYTE   W06
        BYTE                   Gn2   v101
        BYTE   W06
        BYTE                   Fs2   v095
        BYTE   W06
        BYTE                   En2   v097
        BYTE   W06
        BYTE                   Fs2   v084
        BYTE   W05
        BYTE           VOL     67
        BYTE   W01
        BYTE           N05     Gn2   v082
        BYTE   W06
        BYTE                   Fs2   v064
        BYTE   W06
// 028   ----------------------------------------
        BYTE                   Fs2   v097
        BYTE   W05
        BYTE           VOL     68
        BYTE   W01
        BYTE           N05     Bn2   v084
        BYTE   W06
        BYTE                   En3   v061
        BYTE   W06
        BYTE                   An3   v078
        BYTE   W06
        BYTE           VOL     69
        BYTE           TIE     Fs2   v065
        BYTE           TIE     Cs3   v062
        BYTE           N05     Gs3   v078
        BYTE   W05
        BYTE           VOL     66
        BYTE   W01
        BYTE                   61
        BYTE   W01
        BYTE                   58
        BYTE   W01
        BYTE                   55
        BYTE   W01
        BYTE                   50
        BYTE   W01
        BYTE                   47
        BYTE   W01
        BYTE                   44
        BYTE   W01
        BYTE                   39
        BYTE   W01
        BYTE                   36
        BYTE   W01
        BYTE                   33
        BYTE   W09
        BYTE                   34
        BYTE   W12
        BYTE                   35
        BYTE   W09
        BYTE                   36
        BYTE   W09
        BYTE                   37
        BYTE   W06
        BYTE                   38
        BYTE   W03
        BYTE                   39
        BYTE   W06
        BYTE                   41
        BYTE   W03
        BYTE                   42
        BYTE   W01
// 029   ----------------------------------------
        BYTE   W02
        BYTE                   43
        BYTE   W03
        BYTE                   44
        BYTE   W03
        BYTE                   45
        BYTE   W03
        BYTE                   47
        BYTE   W03
        BYTE                   49
        BYTE   W03
        BYTE                   51
        BYTE   W03
        BYTE                   54
        BYTE   W03
        BYTE                   58
        BYTE   W03
        BYTE                   63
        BYTE   W03
        BYTE                   69
        BYTE   W30
        BYTE           EOT     Fs2
        BYTE                   Cs3
        BYTE   W01
        BYTE           N05     Fs2   v091
        BYTE   W06
        BYTE                   An2   v090
        BYTE   W06
        BYTE                   Gs2   v091
        BYTE   W06
        BYTE                   En2   v095
        BYTE   W06
        BYTE           N32     Bn1   v095   gtp3
        BYTE   W12
// 030   ----------------------------------------
        BYTE   W24
        BYTE           N92     Cs2   v097   gtp3
        BYTE   W09
        BYTE           VOL     68
        BYTE   W06
        BYTE                   66
        BYTE   W06
        BYTE                   65
        BYTE   W03
        BYTE                   64
        BYTE   W03
        BYTE                   63
        BYTE   W03
        BYTE                   62
        BYTE   W06
        BYTE                   61
        BYTE   W03
        BYTE                   59
        BYTE   W03
        BYTE                   58
        BYTE   W03
        BYTE                   57
        BYTE   W03
        BYTE                   56
        BYTE   W03
        BYTE                   55
        BYTE   W03
        BYTE                   53
        BYTE   W03
        BYTE                   52
        BYTE   W03
        BYTE                   51
        BYTE   W03
        BYTE                   50
        BYTE   W03
        BYTE                   48
        BYTE   W03
        BYTE                   47
        BYTE   W03
// 031   ----------------------------------------
        BYTE                   45
        BYTE   W03
        BYTE                   44
        BYTE   W03
        BYTE                   42
        BYTE   W03
        BYTE                   40
        BYTE   W03
        BYTE                   38
        BYTE   W03
        BYTE                   36
        BYTE   W03
        BYTE                   34
        BYTE   W03
        BYTE                   32
        BYTE   W03
        BYTE                   29
        BYTE   W72
// 032   ----------------------------------------
        BYTE   W23
        BYTE                   66
        BYTE   W01
        BYTE                   69
        BYTE   W72
// 033   ----------------------------------------
        BYTE   W96
// 034   ----------------------------------------
        BYTE   W96
// 035   ----------------------------------------
        BYTE   W12
        BYTE           N05     An2   v074
        BYTE   W06
        BYTE                   Bn2
        BYTE   W06
        BYTE                   Cs3
        BYTE   W06
        BYTE                   Bn2
        BYTE   W06
        BYTE           N56     En3   v074   gtp3
        BYTE   W03
        BYTE           VOL     64
        BYTE   W01
        BYTE                   62
        BYTE   W01
        BYTE                   60
        BYTE   W01
        BYTE                   55
        BYTE   W01
        BYTE                   53
        BYTE   W01
        BYTE                   51
        BYTE   W01
        BYTE                   46
        BYTE   W01
        BYTE                   44
        BYTE   W01
        BYTE                   42
        BYTE   W01
        BYTE                   37
        BYTE   W01
        BYTE                   36
        BYTE   W06
        BYTE                   37
        BYTE   W06
        BYTE                   38
        BYTE   W06
        BYTE                   39
        BYTE   W03
        BYTE                   40
        BYTE   W03
        BYTE                   41
        BYTE   W03
        BYTE                   42
        BYTE   W03
        BYTE                   43
        BYTE   W03
        BYTE                   44
        BYTE   W03
        BYTE                   45
        BYTE   W03
        BYTE                   46
        BYTE   W03
        BYTE                   48
        BYTE   W03
        BYTE                   49
        BYTE   W02
// 036   ----------------------------------------
        BYTE           N23     Fs3
        BYTE   W01
        BYTE           VOL     51
        BYTE   W03
        BYTE                   52
        BYTE   W03
        BYTE                   55
        BYTE   W03
        BYTE                   56
        BYTE   W03
        BYTE                   59
        BYTE   W02
        BYTE                   61
        BYTE   W09
        BYTE           TIE     Fs3   v060
        BYTE           TIE     Gs3   v077
        BYTE   W04
        BYTE           VOL     59
        BYTE   W01
        BYTE                   57
        BYTE   W01
        BYTE                   55
        BYTE   W01
        BYTE                   50
        BYTE   W01
        BYTE                   48
        BYTE   W01
        BYTE                   46
        BYTE   W01
        BYTE                   42
        BYTE   W01
        BYTE                   39
        BYTE   W01
        BYTE                   37
        BYTE   W01
        BYTE                   33
        BYTE   W01
        BYTE                   31
        BYTE   W01
        BYTE                   29
        BYTE   W01
        BYTE                   24
        BYTE   W01
        BYTE                   22
        BYTE   W01
        BYTE                   19
        BYTE   W36
        BYTE                   20
        BYTE   W12
        BYTE                   21
        BYTE   W06
// 037   ----------------------------------------
        BYTE   W15
        BYTE                   22
        BYTE   W12
        BYTE                   23
        BYTE   W12
        BYTE                   24
        BYTE   W09
        BYTE                   25
        BYTE   W09
        BYTE                   26
        BYTE   W06
        BYTE                   27
        BYTE   W03
        BYTE                   28
        BYTE   W03
        BYTE                   29
        BYTE   W06
        BYTE                   30
        BYTE   W03
        BYTE                   31
        BYTE   W03
        BYTE                   32
        BYTE   W03
        BYTE                   34
        BYTE   W03
        BYTE                   35
        BYTE   W03
        BYTE                   37
        BYTE   W03
        BYTE                   39
        BYTE   W03
// 038   ----------------------------------------
        BYTE                   42
        BYTE   W03
        BYTE                   44
        BYTE   W03
        BYTE                   48
        BYTE   W03
        BYTE                   52
        BYTE   W03
        BYTE                   59
        BYTE   W01
        BYTE                   61
        BYTE   W10
        BYTE           EOT     Fs3
        BYTE                   Gs3
        BYTE   W01
        BYTE           N92     Dn3   v062   gtp3
        BYTE           TIE     En3   v065
        BYTE   W04
        BYTE           VOL     58
        BYTE   W01
        BYTE                   55
        BYTE   W02
        BYTE                   52
        BYTE   W01
        BYTE                   49
        BYTE   W02
        BYTE                   45
        BYTE   W01
        BYTE                   43
        BYTE   W02
        BYTE                   39
        BYTE   W01
        BYTE                   36
        BYTE   W02
        BYTE                   33
        BYTE   W01
        BYTE                   30
        BYTE   W02
        BYTE                   27
        BYTE   W01
        BYTE                   24
        BYTE   W02
        BYTE                   20
        BYTE   W24
        BYTE   W03
        BYTE                   21
        BYTE   W23
// 039   ----------------------------------------
        BYTE   W13
        BYTE                   22
        BYTE   W11
        BYTE           N44     Dn3   v073   gtp3
        BYTE   W10
        BYTE           VOL     23
        BYTE   W15
        BYTE                   24
        BYTE   W09
        BYTE                   25
        BYTE   W09
        BYTE                   26
        BYTE   W05
        BYTE           TIE     Fs3
        BYTE   W01
        BYTE           VOL     27
        BYTE   W03
        BYTE                   28
        BYTE   W06
        BYTE                   29
        BYTE   W03
        BYTE                   30
        BYTE   W03
        BYTE                   31
        BYTE   W03
        BYTE                   32
        BYTE   W03
        BYTE                   34
        BYTE   W02
// 040   ----------------------------------------
        BYTE   W01
        BYTE                   36
        BYTE   W03
        BYTE                   38
        BYTE   W03
        BYTE                   42
        BYTE   W03
        BYTE                   46
        BYTE   W02
        BYTE                   49
        BYTE   W03
        BYTE                   48
        BYTE   W03
        BYTE                   46
        BYTE   W01
        BYTE                   45
        BYTE   W02
        BYTE                   44
        BYTE   W01
        BYTE                   42
        BYTE   W01
        BYTE           EOT     En3
        BYTE   W01
        BYTE           VOL     39
        BYTE           TIE     En3   v069
        BYTE   W09
        BYTE           VOL     40
        BYTE   W03
        BYTE                   41
        BYTE   W12
        BYTE                   42
        BYTE   W09
        BYTE                   43
        BYTE   W06
        BYTE                   44
        BYTE   W06
        BYTE                   45
        BYTE   W06
        BYTE                   46
        BYTE   W06
        BYTE                   47
        BYTE   W03
        BYTE                   48
        BYTE   W03
        BYTE                   49
        BYTE   W03
        BYTE                   50
        BYTE   W03
        BYTE                   51
        BYTE   W03
// 041   ----------------------------------------
        BYTE                   52
        BYTE   W03
        BYTE                   53
        BYTE   W03
        BYTE                   54
        BYTE   W03
        BYTE                   56
        BYTE   W03
        BYTE                   57
        BYTE   W03
        BYTE                   59
        BYTE   W01
        BYTE                   60
        BYTE   W01
        BYTE                   59
        BYTE   W01
        BYTE                   58
        BYTE   W02
        BYTE                   57
        BYTE   W01
        BYTE                   56
        BYTE   W01
        BYTE                   55
        BYTE   W01
        BYTE                   54
        BYTE   W01
        BYTE                   52
        BYTE   W01
        BYTE                   51
        BYTE   W02
        BYTE                   49
        BYTE   W01
        BYTE                   47
        BYTE   W01
        BYTE                   46
        BYTE   W01
        BYTE                   43
        BYTE   W01
        BYTE                   42
        BYTE   W01
        BYTE                   40
        BYTE   W01
        BYTE                   36
        BYTE   W01
        BYTE                   34
        BYTE   W01
        BYTE                   32
        BYTE   W01
        BYTE                   27
        BYTE   W01
        BYTE                   24
        BYTE   W01
        BYTE                   21
        BYTE   W01
        BYTE                   13
        BYTE   W01
        BYTE                   9
        BYTE   W01
        BYTE                   2
        BYTE   W06
        BYTE           EOT     Fs3
        BYTE                   En3
        BYTE   W48
        BYTE   W01
// 042   ----------------------------------------
        BYTE   W96
// 043   ----------------------------------------
        BYTE   W96
// 044   ----------------------------------------
        BYTE   W24
        BYTE           VOL     9
        BYTE           PAN     c_v+63
        BYTE   GoTo
         POIN2  FootstepsOfFate_8_LOOP
        BYTE   W02
        BYTE   FINE


//********************** End of Song ***********************//

        ALIGN  4
FootstepsOfFate:
        BYTE   9                       // Num Tracks
        BYTE   0                       // Unknown
        BYTE   FootstepsOfFate_pri     // Priority
        BYTE   FootstepsOfFate_rev     // Reverb

        POIN2   FootstepsOfFate_grp    

        POIN2   FootstepsOfFate_0
        POIN2   FootstepsOfFate_1
        POIN2   FootstepsOfFate_2
        POIN2   FootstepsOfFate_3
        POIN2   FootstepsOfFate_4
        POIN2   FootstepsOfFate_5
        POIN2   FootstepsOfFate_6
        POIN2   FootstepsOfFate_7
        POIN2   FootstepsOfFate_8

        
