	.include "MPlayDef.s"

	.equ	song0185_grp, voicegroup000
	.equ	song0185_pri, 0
	.equ	song0185_rev, 0
	.equ	song0185_mvl, 127
	.equ	song0185_key, 0
	.equ	song0185_tbs, 1
	.equ	song0185_exg, 0
	.equ	song0185_cmp, 1

	.section .rodata
	.global	song0185
	.align	2


@**************** Track 1 (Midi-Chn.0) ****************@

song0185_001:
@  #01 @000   ----------------------------------------
 .byte   KEYSH , song0185_key+0
Label_01577A52:
 .byte   TEMPO , 104*song0185_tbs/2
 .byte   VOICE , 4
 .byte   VOL , 55*song0185_mvl/mxv
 .byte   PAN , c_v+0
 .byte   VOL , 22*song0185_mvl/mxv
 .byte   PAN , c_v+53
 .byte   N92 ,Gs3 ,v084
 .byte   W96
@  #01 @001   ----------------------------------------
Label_01577A62:
 .byte   N68 ,Gn3 ,v084
 .byte   W72
 .byte   N23 ,Gs3
 .byte   W24
 .byte   PEND 
@  #01 @002   ----------------------------------------
 .byte   N92 ,Gn3
 .byte   W96
@  #01 @003   ----------------------------------------
 .byte   N80 ,Fn3
 .byte   W84
 .byte   N05
 .byte   W06
 .byte   Gn3
 .byte   W06
@  #01 @004   ----------------------------------------
 .byte   N92 ,Gs3
 .byte   W96
@  #01 @005   ----------------------------------------
 .byte   PATT
  .word Label_01577A62
@  #01 @006   ----------------------------------------
 .byte   N92 ,Gn3 ,v084
 .byte   W96
@  #01 @007   ----------------------------------------
 .byte   Fn3
 .byte   W96
@  #01 @008   ----------------------------------------
 .byte   N80 ,En3 ,v096
 .byte   W84
 .byte   N11 ,Dn3
 .byte   W12
@  #01 @009   ----------------------------------------
 .byte   N92 ,Gn3
 .byte   W96
@  #01 @010   ----------------------------------------
 .byte   N80 ,Gs3
 .byte   W84
 .byte   N11 ,Fn3
 .byte   W12
@  #01 @011   ----------------------------------------
 .byte   N92 ,As3
 .byte   W96
@  #01 @012   ----------------------------------------
 .byte   N80 ,Cn4
 .byte   W84
 .byte   N11 ,As3
 .byte   W12
@  #01 @013   ----------------------------------------
 .byte   N80 ,Ds4
 .byte   W84
 .byte   N11 ,Fn4
 .byte   W12
@  #01 @014   ----------------------------------------
 .byte   TIE ,Cn4
 .byte   W96
@  #01 @015   ----------------------------------------
 .byte   W92
 .byte   W03
 .byte   EOT
 .byte   W01
@  #01 @016   ----------------------------------------
 .byte   W96
@  #01 @017   ----------------------------------------
 .byte   W96
@  #01 @018   ----------------------------------------
 .byte   W96
@  #01 @019   ----------------------------------------
 .byte   W96
@  #01 @020   ----------------------------------------
 .byte   W96
@  #01 @021   ----------------------------------------
 .byte   W96
@  #01 @022   ----------------------------------------
 .byte   W96
@  #01 @023   ----------------------------------------
 .byte   W96
@  #01 @024   ----------------------------------------
 .byte   W96
@  #01 @025   ----------------------------------------
 .byte   W96
@  #01 @026   ----------------------------------------
 .byte   W96
@  #01 @027   ----------------------------------------
 .byte   W96
@  #01 @028   ----------------------------------------
 .byte   W96
@  #01 @029   ----------------------------------------
 .byte   W96
@  #01 @030   ----------------------------------------
 .byte   W96
@  #01 @031   ----------------------------------------
 .byte   W96
@  #01 @032   ----------------------------------------
 .byte   W96
@  #01 @033   ----------------------------------------
 .byte   W96
@  #01 @034   ----------------------------------------
 .byte   W96
@  #01 @035   ----------------------------------------
 .byte   W96
@  #01 @036   ----------------------------------------
 .byte   W96
@  #01 @037   ----------------------------------------
 .byte   W96
@  #01 @038   ----------------------------------------
 .byte   W96
@  #01 @039   ----------------------------------------
 .byte   W96
@  #01 @040   ----------------------------------------
 .byte   W96
@  #01 @041   ----------------------------------------
 .byte   W96
@  #01 @042   ----------------------------------------
 .byte   W96
@  #01 @043   ----------------------------------------
 .byte   W96
@  #01 @044   ----------------------------------------
 .byte   W96
@  #01 @045   ----------------------------------------
 .byte   W96
@  #01 @046   ----------------------------------------
 .byte   W96
@  #01 @047   ----------------------------------------
 .byte   W96
@  #01 @048   ----------------------------------------
 .byte   W96
@  #01 @049   ----------------------------------------
 .byte   W96
@  #01 @050   ----------------------------------------
 .byte   W96
@  #01 @051   ----------------------------------------
 .byte   W96
@  #01 @052   ----------------------------------------
 .byte   W96
@  #01 @053   ----------------------------------------
 .byte   W96
@  #01 @054   ----------------------------------------
 .byte   W96
@  #01 @055   ----------------------------------------
 .byte   W96
@  #01 @056   ----------------------------------------
 .byte   W96
@  #01 @057   ----------------------------------------
 .byte   W96
@  #01 @058   ----------------------------------------
 .byte   W96
@  #01 @059   ----------------------------------------
 .byte   W96
@  #01 @060   ----------------------------------------
 .byte   W96
@  #01 @061   ----------------------------------------
 .byte   W96
@  #01 @062   ----------------------------------------
 .byte   W96
@  #01 @063   ----------------------------------------
 .byte   W96
@  #01 @064   ----------------------------------------
 .byte   W12
 .byte   BEND , c_v+0
 .byte   N92 ,An1 ,v100
 .byte   N17 ,En2 ,v112
 .byte   W12
 .byte   Dn2 ,v108
 .byte   W12
 .byte   Cs2
 .byte   W12
 .byte   N56 ,Dn2 ,v104
 .byte   W48
@  #01 @065   ----------------------------------------
 .byte   W12
 .byte   N92 ,Gn1 ,v100
 .byte   N17 ,Dn2 ,v112
 .byte   W12
 .byte   Cn2 ,v108
 .byte   W12
 .byte   Bn1
 .byte   W12
 .byte   N56 ,Cn2 ,v104
 .byte   W48
@  #01 @066   ----------------------------------------
 .byte   W12
 .byte   N92 ,Fs1 ,v100
 .byte   N17 ,Cn2 ,v112
 .byte   W12
 .byte   Bn1 ,v108
 .byte   W12
 .byte   As1
 .byte   W12
 .byte   N56 ,Bn1 ,v104
 .byte   W24
 .byte   N17 ,Ds1 ,v108
 .byte   W12
 .byte   Dn1
 .byte   W12
@  #01 @067   ----------------------------------------
 .byte   N11 ,Ds1
 .byte   W12
 .byte   TIE ,En1 ,v100
 .byte   N17 ,Cn2 ,v112
 .byte   W12
 .byte   Bn1 ,v108
 .byte   W12
 .byte   As1
 .byte   W12
 .byte   TIE ,Bn1 ,v104
 .byte   W48
@  #01 @068   ----------------------------------------
 .byte   W56
 .byte   W03
 .byte   EOT
 .byte   En1 ,v047
 .byte   W01
 .byte   N28 ,Dn2 ,v100
 .byte   W24
 .byte   N24 ,En2
 .byte   W12
@  #01 @069   ----------------------------------------
 .byte   W12
 .byte   N60 ,Cn3
 .byte   W60
 .byte   N15 ,As2 ,v096
 .byte   W12
 .byte   N13 ,An2
 .byte   W12
@  #01 @070   ----------------------------------------
Label_01577B3E:
 .byte   N14 ,Gn2 ,v096
 .byte   W12
 .byte   N44 ,Dn2
 .byte   W48
 .byte   N23 ,An1
 .byte   W24
 .byte   As1
 .byte   W12
 .byte   PEND 
@  #01 @071   ----------------------------------------
 .byte   W12
 .byte   N32 ,Bn1
 .byte   W36
 .byte   N78 ,Gn2
 .byte   W12
 .byte   N12 ,An3 ,v056
 .byte   W08
 .byte   N13 ,Bn3
 .byte   W08
 .byte   N09 ,Cn4
 .byte   W08
 .byte   N10 ,Dn4 ,v052
 .byte   W08
 .byte   N09 ,Cn4
 .byte   W04
@  #01 @072   ----------------------------------------
 .byte   W04
 .byte   N07 ,Bn3
 .byte   W08
 .byte   N07
 .byte   W08
 .byte   Gn3
 .byte   W08
 .byte   Bn3
 .byte   W08
 .byte   Gn3
 .byte   W08
 .byte   En3
 .byte   W08
 .byte   Gn3
 .byte   W08
 .byte   N23 ,Dn2 ,v096
 .byte   N07 ,En3 ,v052
 .byte   W08
 .byte   Bn2
 .byte   W08
 .byte   En3
 .byte   W08
 .byte   N23 ,En2 ,v096
 .byte   N07 ,Bn2 ,v052
 .byte   W08
 .byte   Gn2
 .byte   W04
@  #01 @073   ----------------------------------------
 .byte   W04
 .byte   Bn2
 .byte   W08
 .byte   N60 ,Cn3 ,v100
 .byte   W60
 .byte   N15 ,As2 ,v096
 .byte   W12
 .byte   N13 ,An2
 .byte   W12
@  #01 @074   ----------------------------------------
 .byte   PATT
  .word Label_01577B3E
@  #01 @075   ----------------------------------------
 .byte   W12
 .byte   N32 ,Cn2 ,v096
 .byte   W36
 .byte   N92 ,Gn1
 .byte   N92 ,Gn2
 .byte   W12
 .byte   N12 ,An3 ,v056
 .byte   W08
 .byte   N13 ,Bn3
 .byte   W08
 .byte   N09 ,Cn4
 .byte   W08
 .byte   N10 ,Dn4 ,v052
 .byte   W08
 .byte   N09 ,Cn4
 .byte   W04
@  #01 @076   ----------------------------------------
 .byte   W04
 .byte   N07 ,Bn3
 .byte   W08
 .byte   N07
 .byte   W08
 .byte   Gn3
 .byte   W08
 .byte   Bn3
 .byte   W08
 .byte   Gn3
 .byte   W08
 .byte   En3
 .byte   W08
 .byte   Gn3
 .byte   W08
 .byte   N24 ,Dn2 ,v084
 .byte   N07 ,En3 ,v052
 .byte   W08
 .byte   Bn2
 .byte   W08
 .byte   En3
 .byte   W08
 .byte   N23 ,En2 ,v100
 .byte   N07 ,Bn2 ,v052
 .byte   N23 ,En3 ,v100
 .byte   W08
 .byte   N07 ,Gn2 ,v052
 .byte   W04
@  #01 @077   ----------------------------------------
 .byte   W04
 .byte   Bn2
 .byte   W08
 .byte   N56 ,Fn2 ,v088
 .byte   N56 ,Fn3
 .byte   W60
 .byte   N11 ,En2 ,v084
 .byte   N11 ,En3
 .byte   W12
 .byte   Dn2 ,v064
 .byte   N11 ,Dn3
 .byte   W12
@  #01 @078   ----------------------------------------
 .byte   An1 ,v060
 .byte   N11 ,An2
 .byte   W12
 .byte   N44 ,Gs1 ,v072
 .byte   N44 ,Gs2
 .byte   W48
 .byte   N23 ,En2 ,v084
 .byte   W24
 .byte   Dn2
 .byte   N23 ,Dn3
 .byte   W12
@  #01 @079   ----------------------------------------
 .byte   W12
 .byte   N56 ,Dn2
 .byte   N56 ,Dn3
 .byte   W60
 .byte   N11 ,Cn2
 .byte   N11 ,Cn3
 .byte   W12
 .byte   Dn2 ,v088
 .byte   N11 ,Dn3
 .byte   W12
@  #01 @080   ----------------------------------------
 .byte   En2 ,v084
 .byte   N11 ,En3
 .byte   W12
 .byte   N44 ,An1 ,v088
 .byte   N44 ,An2
 .byte   W48
 .byte   N23 ,Bn1 ,v064
 .byte   N23 ,Bn2
 .byte   W24
 .byte   Cn2
 .byte   N23 ,Cn3
 .byte   W12
@  #01 @081   ----------------------------------------
 .byte   W12
 .byte   N68 ,An1 ,v088
 .byte   N68 ,An2
 .byte   W72
 .byte   N11 ,Dn2 ,v084
 .byte   N11 ,Dn3
 .byte   W12
@  #01 @082   ----------------------------------------
Label_01577C37:
 .byte   N11 ,Cn2 ,v084
 .byte   N11 ,Cn3
 .byte   W12
 .byte   N44 ,Bn1 ,v088
 .byte   N44 ,Bn2
 .byte   W48
 .byte   Gn1
 .byte   N44 ,Gn2
 .byte   W36
 .byte   PEND 
@  #01 @083   ----------------------------------------
Label_01577C48:
 .byte   W12
 .byte   N92 ,Gn1 ,v088
 .byte   N92 ,Gn2
 .byte   W84
 .byte   PEND 
@  #01 @084   ----------------------------------------
 .byte   W12
 .byte   N68 ,An1
 .byte   N68 ,An2
 .byte   W72
 .byte   N11 ,An1
 .byte   N11 ,An2
 .byte   W12
@  #01 @085   ----------------------------------------
 .byte   Bn1 ,v084
 .byte   N11 ,Bn2
 .byte   W12
 .byte   N32 ,Cn2 ,v088
 .byte   N32 ,Cn3
 .byte   W36
 .byte   An1
 .byte   N32 ,An2
 .byte   W36
 .byte   N11 ,Dn2 ,v084
 .byte   N11 ,Dn3
 .byte   W12
@  #01 @086   ----------------------------------------
 .byte   PATT
  .word Label_01577C37
@  #01 @087   ----------------------------------------
 .byte   PATT
  .word Label_01577C48
@  #01 @088   ----------------------------------------
 .byte   W12
 .byte   N92 ,An1 ,v088
 .byte   N92 ,An2
 .byte   W84
@  #01 @089   ----------------------------------------
 .byte   GOTO
  .word Label_01577A52
@  #01 @090   ----------------------------------------
 .byte   W92
 .byte   W03
 .byte   FINE

@**************** Track 2 (Midi-Chn.1) ****************@

song0185_002:
@  #02 @000   ----------------------------------------
 .byte   KEYSH , song0185_key+0
Label_01577C9E:
 .byte   VOICE , 1
 .byte   VOL , 55*song0185_mvl/mxv
 .byte   PAN , c_v+0
 .byte   N11 ,Gn4 ,v068
 .byte   N11 ,Cn5
 .byte   W12
 .byte   Cn4
 .byte   W12
 .byte   Fn4
 .byte   N11 ,Cn5
 .byte   W12
 .byte   Cn4
 .byte   W12
 .byte   Gn4
 .byte   N11 ,Cn5
 .byte   W12
 .byte   Cn4
 .byte   W12
 .byte   Fn4
 .byte   N11 ,Cn5
 .byte   W12
 .byte   Cn4
 .byte   W12
@  #02 @001   ----------------------------------------
Label_01577CBE:
 .byte   N11 ,Gn4 ,v068
 .byte   N11 ,Cn5
 .byte   W12
 .byte   Cn4
 .byte   W12
 .byte   Fn4
 .byte   N11 ,Cn5
 .byte   W12
 .byte   Cn4
 .byte   W12
 .byte   Gn4
 .byte   N11 ,Cn5
 .byte   W12
 .byte   Cn4
 .byte   W12
 .byte   Fn4
 .byte   N11 ,Cn5
 .byte   W12
 .byte   Cn4
 .byte   W12
 .byte   PEND 
@  #02 @002   ----------------------------------------
 .byte   PATT
  .word Label_01577CBE
@  #02 @003   ----------------------------------------
 .byte   PATT
  .word Label_01577CBE
@  #02 @004   ----------------------------------------
 .byte   PATT
  .word Label_01577CBE
@  #02 @005   ----------------------------------------
 .byte   PATT
  .word Label_01577CBE
@  #02 @006   ----------------------------------------
 .byte   PATT
  .word Label_01577CBE
@  #02 @007   ----------------------------------------
 .byte   PATT
  .word Label_01577CBE
@  #02 @008   ----------------------------------------
Label_01577CF7:
 .byte   N11 ,Gn4 ,v068
 .byte   N11 ,Cn5
 .byte   W12
 .byte   Cn4
 .byte   W12
 .byte   Gn4
 .byte   N11 ,Cn5
 .byte   W12
 .byte   Cn4
 .byte   W12
 .byte   Gn4
 .byte   N11 ,Cn5
 .byte   W12
 .byte   Cn4
 .byte   W12
 .byte   Gn4
 .byte   N11 ,Cn5
 .byte   W12
 .byte   Cn4
 .byte   W12
 .byte   PEND 
@  #02 @009   ----------------------------------------
 .byte   PATT
  .word Label_01577CF7
@  #02 @010   ----------------------------------------
Label_01577D17:
 .byte   N11 ,Fn4 ,v068
 .byte   N11 ,Cn5
 .byte   W12
 .byte   Cn4
 .byte   W12
 .byte   Fn4
 .byte   N11 ,Cn5
 .byte   W12
 .byte   Cn4
 .byte   W12
 .byte   Fn4
 .byte   N11 ,Cn5
 .byte   W12
 .byte   Cn4
 .byte   W12
 .byte   Fn4
 .byte   N11 ,Cn5
 .byte   W12
 .byte   Cn4
 .byte   W12
 .byte   PEND 
@  #02 @011   ----------------------------------------
 .byte   PATT
  .word Label_01577D17
@  #02 @012   ----------------------------------------
Label_01577D37:
 .byte   N11 ,Fn4 ,v068
 .byte   N11 ,Cn5
 .byte   W12
 .byte   As3
 .byte   W12
 .byte   Fn4
 .byte   N11 ,Cn5
 .byte   W12
 .byte   As3
 .byte   W12
 .byte   Fn4
 .byte   N11 ,Cn5
 .byte   W12
 .byte   As3
 .byte   W12
 .byte   Fn4
 .byte   N11 ,Cn5
 .byte   W12
 .byte   As3
 .byte   W12
 .byte   PEND 
@  #02 @013   ----------------------------------------
 .byte   PATT
  .word Label_01577D37
@  #02 @014   ----------------------------------------
 .byte   PATT
  .word Label_01577D17
@  #02 @015   ----------------------------------------
 .byte   PATT
  .word Label_01577D17
@  #02 @016   ----------------------------------------
 .byte   N11 ,Fn4 ,v016
 .byte   N11 ,Cn5
 .byte   W12
 .byte   Cn4
 .byte   W12
 .byte   Fn4
 .byte   N11 ,Cn5
 .byte   W12
 .byte   Cn4
 .byte   W60
@  #02 @017   ----------------------------------------
 .byte   W96
@  #02 @018   ----------------------------------------
 .byte   W96
@  #02 @019   ----------------------------------------
 .byte   W96
@  #02 @020   ----------------------------------------
 .byte   W96
@  #02 @021   ----------------------------------------
 .byte   W96
@  #02 @022   ----------------------------------------
 .byte   W96
@  #02 @023   ----------------------------------------
 .byte   W96
@  #02 @024   ----------------------------------------
 .byte   W96
@  #02 @025   ----------------------------------------
 .byte   W96
@  #02 @026   ----------------------------------------
 .byte   W96
@  #02 @027   ----------------------------------------
 .byte   W96
@  #02 @028   ----------------------------------------
 .byte   W96
@  #02 @029   ----------------------------------------
 .byte   W96
@  #02 @030   ----------------------------------------
 .byte   W96
@  #02 @031   ----------------------------------------
 .byte   W96
@  #02 @032   ----------------------------------------
 .byte   W96
@  #02 @033   ----------------------------------------
 .byte   W96
@  #02 @034   ----------------------------------------
 .byte   W96
@  #02 @035   ----------------------------------------
 .byte   W96
@  #02 @036   ----------------------------------------
 .byte   W96
@  #02 @037   ----------------------------------------
 .byte   W96
@  #02 @038   ----------------------------------------
 .byte   W96
@  #02 @039   ----------------------------------------
 .byte   W96
@  #02 @040   ----------------------------------------
 .byte   W96
@  #02 @041   ----------------------------------------
 .byte   W96
@  #02 @042   ----------------------------------------
 .byte   W96
@  #02 @043   ----------------------------------------
 .byte   W96
@  #02 @044   ----------------------------------------
 .byte   W96
@  #02 @045   ----------------------------------------
 .byte   W96
@  #02 @046   ----------------------------------------
 .byte   W96
@  #02 @047   ----------------------------------------
 .byte   W96
@  #02 @048   ----------------------------------------
 .byte   W96
@  #02 @049   ----------------------------------------
 .byte   W96
@  #02 @050   ----------------------------------------
 .byte   W96
@  #02 @051   ----------------------------------------
 .byte   W96
@  #02 @052   ----------------------------------------
 .byte   W96
@  #02 @053   ----------------------------------------
 .byte   W96
@  #02 @054   ----------------------------------------
 .byte   W96
@  #02 @055   ----------------------------------------
 .byte   W96
@  #02 @056   ----------------------------------------
 .byte   W96
@  #02 @057   ----------------------------------------
 .byte   W96
@  #02 @058   ----------------------------------------
 .byte   W96
@  #02 @059   ----------------------------------------
 .byte   W96
@  #02 @060   ----------------------------------------
 .byte   W96
@  #02 @061   ----------------------------------------
 .byte   W96
@  #02 @062   ----------------------------------------
 .byte   W96
@  #02 @063   ----------------------------------------
 .byte   W96
@  #02 @064   ----------------------------------------
 .byte   W96
@  #02 @065   ----------------------------------------
 .byte   W96
@  #02 @066   ----------------------------------------
 .byte   W96
@  #02 @067   ----------------------------------------
 .byte   W96
@  #02 @068   ----------------------------------------
 .byte   W48
 .byte   N24 ,Dn3 ,v100
 .byte   W24
 .byte   En3
 .byte   W24
@  #02 @069   ----------------------------------------
Label_01577DA9:
 .byte   N60 ,Cn4 ,v100
 .byte   W60
 .byte   N15 ,As3 ,v096
 .byte   W12
 .byte   N13 ,An3
 .byte   W12
 .byte   N14 ,Gn3
 .byte   W12
 .byte   PEND 
@  #02 @070   ----------------------------------------
Label_01577DB8:
 .byte   N44 ,Dn3 ,v096
 .byte   W48
 .byte   N23 ,An2
 .byte   W24
 .byte   As2
 .byte   W24
 .byte   PEND 
@  #02 @071   ----------------------------------------
 .byte   N32 ,Bn2
 .byte   W36
 .byte   N78 ,Gn3
 .byte   W60
@  #02 @072   ----------------------------------------
 .byte   W48
 .byte   N23 ,Dn3
 .byte   W24
 .byte   En3
 .byte   W24
@  #02 @073   ----------------------------------------
 .byte   PATT
  .word Label_01577DA9
@  #02 @074   ----------------------------------------
 .byte   PATT
  .word Label_01577DB8
@  #02 @075   ----------------------------------------
 .byte   N32 ,Cn3 ,v096
 .byte   W36
 .byte   N92 ,Gn3
 .byte   W60
@  #02 @076   ----------------------------------------
 .byte   W48
 .byte   N24 ,Dn4 ,v084
 .byte   W24
 .byte   N23 ,En4 ,v100
 .byte   W24
@  #02 @077   ----------------------------------------
 .byte   N56 ,Fn4 ,v088
 .byte   W60
 .byte   N11 ,En4 ,v084
 .byte   W12
 .byte   Dn4 ,v064
 .byte   W12
 .byte   An3 ,v060
 .byte   W12
@  #02 @078   ----------------------------------------
 .byte   N44 ,Gs3 ,v072
 .byte   W72
 .byte   N23 ,Dn4 ,v084
 .byte   W24
@  #02 @079   ----------------------------------------
 .byte   N56
 .byte   W60
 .byte   N11 ,Cn4
 .byte   W12
 .byte   Dn4 ,v088
 .byte   W12
 .byte   En4 ,v084
 .byte   W12
@  #02 @080   ----------------------------------------
 .byte   N44 ,An3 ,v088
 .byte   W48
 .byte   N23 ,Bn3 ,v064
 .byte   W24
 .byte   Cn4
 .byte   W24
@  #02 @081   ----------------------------------------
 .byte   N68 ,An3 ,v088
 .byte   W72
 .byte   N11 ,Dn4 ,v084
 .byte   W12
 .byte   Cn4
 .byte   W12
@  #02 @082   ----------------------------------------
Label_01577E1D:
 .byte   N44 ,Bn3 ,v088
 .byte   W48
 .byte   Gn3
 .byte   W48
 .byte   PEND 
@  #02 @083   ----------------------------------------
 .byte   N92
 .byte   W96
@  #02 @084   ----------------------------------------
 .byte   N68 ,An3
 .byte   W72
 .byte   N11
 .byte   W12
 .byte   Bn3 ,v084
 .byte   W12
@  #02 @085   ----------------------------------------
 .byte   N32 ,Cn4 ,v088
 .byte   W36
 .byte   An3
 .byte   W36
 .byte   N11 ,Dn4 ,v084
 .byte   W12
 .byte   Cn4
 .byte   W12
@  #02 @086   ----------------------------------------
 .byte   PATT
  .word Label_01577E1D
@  #02 @087   ----------------------------------------
 .byte   N92 ,Gn3 ,v088
 .byte   W96
@  #02 @088   ----------------------------------------
 .byte   TIE ,An3
 .byte   W96
@  #02 @089   ----------------------------------------
 .byte   GOTO
  .word Label_01577C9E
@  #02 @090   ----------------------------------------
 .byte   W92
 .byte   W03
 .byte   EOT
 .byte   An3
 .byte   FINE

@**************** Track 3 (Midi-Chn.2) ****************@

song0185_003:
@  #03 @000   ----------------------------------------
 .byte   VOL , 55*song0185_mvl/mxv
 .byte   KEYSH , song0185_key+0
Label_0171E594:
 .byte   VOICE , 1
 .byte   PAN , c_v+0
 .byte   N92 ,Fn1 ,v080
 .byte   W96
@  #03 @001   ----------------------------------------
 .byte   Gs1
 .byte   W96
@  #03 @002   ----------------------------------------
 .byte   Cs1
 .byte   W96
@  #03 @003   ----------------------------------------
 .byte   As0
 .byte   W96
@  #03 @004   ----------------------------------------
 .byte   Fn1
 .byte   W96
@  #03 @005   ----------------------------------------
 .byte   Gs1
 .byte   W96
@  #03 @006   ----------------------------------------
 .byte   Cs1
 .byte   W96
@  #03 @007   ----------------------------------------
 .byte   As0
 .byte   W96
@  #03 @008   ----------------------------------------
 .byte   W96
@  #03 @009   ----------------------------------------
 .byte   W96
@  #03 @010   ----------------------------------------
 .byte   W96
@  #03 @011   ----------------------------------------
 .byte   W96
@  #03 @012   ----------------------------------------
 .byte   W96
@  #03 @013   ----------------------------------------
 .byte   W96
@  #03 @014   ----------------------------------------
 .byte   W96
@  #03 @015   ----------------------------------------
 .byte   W96
@  #03 @016   ----------------------------------------
 .byte   W96
@  #03 @017   ----------------------------------------
 .byte   W96
@  #03 @018   ----------------------------------------
 .byte   W96
@  #03 @019   ----------------------------------------
 .byte   W96
@  #03 @020   ----------------------------------------
 .byte   W96
@  #03 @021   ----------------------------------------
 .byte   W96
@  #03 @022   ----------------------------------------
 .byte   W96
@  #03 @023   ----------------------------------------
 .byte   W96
@  #03 @024   ----------------------------------------
 .byte   W96
@  #03 @025   ----------------------------------------
 .byte   W96
@  #03 @026   ----------------------------------------
 .byte   W96
@  #03 @027   ----------------------------------------
 .byte   W96
@  #03 @028   ----------------------------------------
 .byte   W96
@  #03 @029   ----------------------------------------
 .byte   W96
@  #03 @030   ----------------------------------------
 .byte   W96
@  #03 @031   ----------------------------------------
 .byte   W96
@  #03 @032   ----------------------------------------
 .byte   W96
@  #03 @033   ----------------------------------------
 .byte   W96
@  #03 @034   ----------------------------------------
 .byte   W96
@  #03 @035   ----------------------------------------
 .byte   W96
@  #03 @036   ----------------------------------------
 .byte   W96
@  #03 @037   ----------------------------------------
 .byte   W96
@  #03 @038   ----------------------------------------
 .byte   W96
@  #03 @039   ----------------------------------------
 .byte   W96
@  #03 @040   ----------------------------------------
 .byte   W96
@  #03 @041   ----------------------------------------
 .byte   W96
@  #03 @042   ----------------------------------------
 .byte   W96
@  #03 @043   ----------------------------------------
 .byte   W96
@  #03 @044   ----------------------------------------
 .byte   W96
@  #03 @045   ----------------------------------------
 .byte   W96
@  #03 @046   ----------------------------------------
 .byte   W96
@  #03 @047   ----------------------------------------
 .byte   W96
@  #03 @048   ----------------------------------------
 .byte   W96
@  #03 @049   ----------------------------------------
 .byte   W96
@  #03 @050   ----------------------------------------
 .byte   W96
@  #03 @051   ----------------------------------------
 .byte   W96
@  #03 @052   ----------------------------------------
 .byte   W96
@  #03 @053   ----------------------------------------
 .byte   W96
@  #03 @054   ----------------------------------------
 .byte   W96
@  #03 @055   ----------------------------------------
 .byte   W96
@  #03 @056   ----------------------------------------
 .byte   W96
@  #03 @057   ----------------------------------------
 .byte   W96
@  #03 @058   ----------------------------------------
 .byte   W96
@  #03 @059   ----------------------------------------
 .byte   W96
@  #03 @060   ----------------------------------------
 .byte   W96
@  #03 @061   ----------------------------------------
 .byte   W96
@  #03 @062   ----------------------------------------
 .byte   W96
@  #03 @063   ----------------------------------------
 .byte   W96
@  #03 @064   ----------------------------------------
 .byte   W96
@  #03 @065   ----------------------------------------
 .byte   W96
@  #03 @066   ----------------------------------------
 .byte   W96
@  #03 @067   ----------------------------------------
 .byte   W96
@  #03 @068   ----------------------------------------
 .byte   W96
@  #03 @069   ----------------------------------------
 .byte   W96
@  #03 @070   ----------------------------------------
 .byte   W96
@  #03 @071   ----------------------------------------
 .byte   W96
@  #03 @072   ----------------------------------------
 .byte   W96
@  #03 @073   ----------------------------------------
 .byte   W96
@  #03 @074   ----------------------------------------
 .byte   W96
@  #03 @075   ----------------------------------------
 .byte   W96
@  #03 @076   ----------------------------------------
 .byte   W96
@  #03 @077   ----------------------------------------
 .byte   W96
@  #03 @078   ----------------------------------------
 .byte   W96
@  #03 @079   ----------------------------------------
 .byte   W96
@  #03 @080   ----------------------------------------
 .byte   W96
@  #03 @081   ----------------------------------------
 .byte   W96
@  #03 @082   ----------------------------------------
 .byte   W96
@  #03 @083   ----------------------------------------
 .byte   W96
@  #03 @084   ----------------------------------------
 .byte   W96
@  #03 @085   ----------------------------------------
 .byte   W96
@  #03 @086   ----------------------------------------
 .byte   W96
@  #03 @087   ----------------------------------------
 .byte   W96
@  #03 @088   ----------------------------------------
 .byte   W96
@  #03 @089   ----------------------------------------
 .byte   GOTO
  .word Label_0171E594
@  #03 @090   ----------------------------------------
 .byte   W92
 .byte   W03
 .byte   FINE

@**************** Track 4 (Midi-Chn.3) ****************@

song0185_004:
@  #04 @000   ----------------------------------------
 .byte   KEYSH , song0185_key+0
Label_01577E62:
 .byte   VOICE , 20
 .byte   VOL , 47*song0185_mvl/mxv
 .byte   PAN , c_v-24
 .byte   W96
@  #04 @001   ----------------------------------------
 .byte   W96
@  #04 @002   ----------------------------------------
 .byte   W96
@  #04 @003   ----------------------------------------
 .byte   W96
@  #04 @004   ----------------------------------------
 .byte   W96
@  #04 @005   ----------------------------------------
 .byte   W96
@  #04 @006   ----------------------------------------
 .byte   W96
@  #04 @007   ----------------------------------------
 .byte   W96
@  #04 @008   ----------------------------------------
 .byte   W96
@  #04 @009   ----------------------------------------
 .byte   W96
@  #04 @010   ----------------------------------------
 .byte   W96
@  #04 @011   ----------------------------------------
 .byte   W96
@  #04 @012   ----------------------------------------
 .byte   W96
@  #04 @013   ----------------------------------------
 .byte   W96
@  #04 @014   ----------------------------------------
 .byte   W96
@  #04 @015   ----------------------------------------
 .byte   W96
@  #04 @016   ----------------------------------------
 .byte   W96
@  #04 @017   ----------------------------------------
Label_01577E79:
 .byte   N44 ,Cn5 ,v088
 .byte   W48
 .byte   N23 ,As4
 .byte   W24
 .byte   N11 ,Gs4
 .byte   W12
 .byte   As4
 .byte   W12
 .byte   PEND 
@  #04 @018   ----------------------------------------
Label_01577E86:
 .byte   N44 ,Fn4 ,v088
 .byte   W48
 .byte   N23 ,Cn4
 .byte   W24
 .byte   N11 ,As3
 .byte   W12
 .byte   Fn4
 .byte   W12
 .byte   PEND 
@  #04 @019   ----------------------------------------
 .byte   N92 ,Cn4
 .byte   W96
@  #04 @020   ----------------------------------------
 .byte   N88 ,Fn3
 .byte   W96
@  #04 @021   ----------------------------------------
 .byte   PATT
  .word Label_01577E79
@  #04 @022   ----------------------------------------
 .byte   PATT
  .word Label_01577E86
@  #04 @023   ----------------------------------------
 .byte   N92 ,Cn4 ,v088
 .byte   W96
@  #04 @024   ----------------------------------------
 .byte   N44 ,Fn3
 .byte   W48
 .byte   N23
 .byte   W24
 .byte   As3
 .byte   W24
@  #04 @025   ----------------------------------------
Label_01577EAE:
 .byte   N92 ,Fn3 ,v072
 .byte   N23 ,Cn4
 .byte   N23 ,Fn4
 .byte   W24
 .byte   Cn4
 .byte   N23 ,Fn4
 .byte   W24
 .byte   Cn4
 .byte   N23 ,Fn4
 .byte   W24
 .byte   Cn4
 .byte   N23 ,Fn4
 .byte   W24
 .byte   PEND 
@  #04 @026   ----------------------------------------
Label_01577EC3:
 .byte   N44 ,Fn3 ,v072
 .byte   N44 ,Cn4
 .byte   W48
 .byte   N23 ,Fn3
 .byte   W24
 .byte   Cn4
 .byte   W24
 .byte   PEND 
@  #04 @027   ----------------------------------------
 .byte   PATT
  .word Label_01577EAE
@  #04 @028   ----------------------------------------
 .byte   PATT
  .word Label_01577EC3
@  #04 @029   ----------------------------------------
 .byte   N23 ,Cn4 ,v072
 .byte   N23 ,Fn4
 .byte   W24
 .byte   Cn4
 .byte   N23 ,Fn4
 .byte   W24
 .byte   Cn4
 .byte   N23 ,Fn4
 .byte   W24
 .byte   Cn4
 .byte   N23 ,Fn4
 .byte   W24
@  #04 @030   ----------------------------------------
 .byte   N44 ,Fn3
 .byte   N92 ,Cn4
 .byte   W48
 .byte   N23 ,Fn3
 .byte   W24
 .byte   Gn3 ,v064
 .byte   W24
@  #04 @031   ----------------------------------------
 .byte   N68 ,An3 ,v072
 .byte   W24
 .byte   N44 ,Dn4
 .byte   W48
 .byte   N23 ,An3
 .byte   W24
@  #04 @032   ----------------------------------------
 .byte   N92 ,Gn3
 .byte   N23 ,Gn4
 .byte   W24
 .byte   N44 ,Dn4
 .byte   W48
 .byte   N23 ,Gn4
 .byte   W24
@  #04 @033   ----------------------------------------
 .byte   TIE ,Gn3
 .byte   TIE ,En4
 .byte   W96
@  #04 @034   ----------------------------------------
 .byte   W96
@  #04 @035   ----------------------------------------
 .byte   W68
 .byte   W03
 .byte   EOT
 .byte   W01
 .byte   N23 ,Cn4 ,v060
 .byte   W23
 .byte   EOT
 .byte   Gn3
 .byte   W01
@  #04 @036   ----------------------------------------
 .byte   PATT
  .word Label_01577E79
@  #04 @037   ----------------------------------------
 .byte   PATT
  .word Label_01577E86
@  #04 @038   ----------------------------------------
 .byte   N92 ,Cn4 ,v088
 .byte   W96
@  #04 @039   ----------------------------------------
 .byte   N88 ,Fn3
 .byte   W96
@  #04 @040   ----------------------------------------
 .byte   PATT
  .word Label_01577E79
@  #04 @041   ----------------------------------------
 .byte   PATT
  .word Label_01577E86
@  #04 @042   ----------------------------------------
 .byte   N92 ,Cn4 ,v088
 .byte   W96
@  #04 @043   ----------------------------------------
 .byte   N44 ,Fn3
 .byte   W48
 .byte   N23
 .byte   W24
 .byte   Cn4
 .byte   W24
@  #04 @044   ----------------------------------------
Label_01577F42:
 .byte   N92 ,Gn3 ,v072
 .byte   N23 ,Cn4
 .byte   N23 ,Gn4
 .byte   W24
 .byte   Cn4
 .byte   N23 ,Gn4
 .byte   W24
 .byte   Cn4
 .byte   N23 ,Gn4
 .byte   W24
 .byte   Cn4
 .byte   N23 ,Gn4
 .byte   W24
 .byte   PEND 
@  #04 @045   ----------------------------------------
Label_01577F57:
 .byte   N44 ,Gn3 ,v072
 .byte   N44 ,Cn4
 .byte   W48
 .byte   N23 ,Gn3
 .byte   W24
 .byte   Cn4
 .byte   W24
 .byte   PEND 
@  #04 @046   ----------------------------------------
 .byte   PATT
  .word Label_01577F42
@  #04 @047   ----------------------------------------
Label_01577F68:
 .byte   N44 ,Gn3 ,v072
 .byte   N44 ,Bn3
 .byte   W48
 .byte   N23 ,Gn3
 .byte   W24
 .byte   Bn3
 .byte   W24
 .byte   PEND 
@  #04 @048   ----------------------------------------
 .byte   Cn4
 .byte   W24
 .byte   Bn3
 .byte   W24
 .byte   Cn4
 .byte   W24
 .byte   Dn4
 .byte   W24
@  #04 @049   ----------------------------------------
 .byte   N23
 .byte   W24
 .byte   Cn4
 .byte   W24
 .byte   Dn4
 .byte   W24
 .byte   Bn3
 .byte   W24
@  #04 @050   ----------------------------------------
 .byte   N92
 .byte   W96
@  #04 @051   ----------------------------------------
 .byte   N44 ,Cn4
 .byte   W48
 .byte   N23 ,An3
 .byte   W24
 .byte   Cn4
 .byte   W24
@  #04 @052   ----------------------------------------
 .byte   PATT
  .word Label_01577F42
@  #04 @053   ----------------------------------------
 .byte   PATT
  .word Label_01577F57
@  #04 @054   ----------------------------------------
 .byte   PATT
  .word Label_01577F42
@  #04 @055   ----------------------------------------
 .byte   PATT
  .word Label_01577F68
@  #04 @056   ----------------------------------------
 .byte   N40 ,Dn4 ,v072
 .byte   N23 ,Bn4
 .byte   W24
 .byte   An4
 .byte   W24
 .byte   N44 ,Fn3
 .byte   N23 ,Dn4
 .byte   W24
 .byte   An3
 .byte   W24
@  #04 @057   ----------------------------------------
 .byte   N44 ,Gn3
 .byte   N44 ,Bn3
 .byte   W48
 .byte   En4
 .byte   W48
@  #04 @058   ----------------------------------------
 .byte   N92 ,An3
 .byte   N44 ,Bn3
 .byte   W48
 .byte   N88 ,Cn4
 .byte   W48
@  #04 @059   ----------------------------------------
 .byte   W96
@  #04 @060   ----------------------------------------
 .byte   W96
@  #04 @061   ----------------------------------------
 .byte   W96
@  #04 @062   ----------------------------------------
 .byte   W96
@  #04 @063   ----------------------------------------
 .byte   W96
@  #04 @064   ----------------------------------------
 .byte   W96
@  #04 @065   ----------------------------------------
 .byte   W96
@  #04 @066   ----------------------------------------
 .byte   W96
@  #04 @067   ----------------------------------------
 .byte   W96
@  #04 @068   ----------------------------------------
 .byte   W96
@  #04 @069   ----------------------------------------
 .byte   W96
@  #04 @070   ----------------------------------------
 .byte   W96
@  #04 @071   ----------------------------------------
 .byte   W96
@  #04 @072   ----------------------------------------
 .byte   W96
@  #04 @073   ----------------------------------------
 .byte   W96
@  #04 @074   ----------------------------------------
 .byte   W96
@  #04 @075   ----------------------------------------
 .byte   W96
@  #04 @076   ----------------------------------------
 .byte   W96
@  #04 @077   ----------------------------------------
 .byte   W96
@  #04 @078   ----------------------------------------
 .byte   W96
@  #04 @079   ----------------------------------------
 .byte   W96
@  #04 @080   ----------------------------------------
 .byte   W96
@  #04 @081   ----------------------------------------
 .byte   W96
@  #04 @082   ----------------------------------------
 .byte   W96
@  #04 @083   ----------------------------------------
 .byte   W96
@  #04 @084   ----------------------------------------
 .byte   W96
@  #04 @085   ----------------------------------------
 .byte   W96
@  #04 @086   ----------------------------------------
 .byte   W96
@  #04 @087   ----------------------------------------
 .byte   W96
@  #04 @088   ----------------------------------------
 .byte   W96
@  #04 @089   ----------------------------------------
 .byte   GOTO
  .word Label_01577E62
@  #04 @090   ----------------------------------------
 .byte   W92
 .byte   W03
 .byte   FINE

@**************** Track 5 (Midi-Chn.4) ****************@

song0185_005:
@  #05 @000   ----------------------------------------
 .byte   KEYSH , song0185_key+0
Label_01577FFA:
 .byte   VOICE , 28
 .byte   VOL , 40*song0185_mvl/mxv
 .byte   PAN , c_v+0
 .byte   W96
@  #05 @001   ----------------------------------------
 .byte   W96
@  #05 @002   ----------------------------------------
 .byte   W96
@  #05 @003   ----------------------------------------
 .byte   W96
@  #05 @004   ----------------------------------------
 .byte   W96
@  #05 @005   ----------------------------------------
 .byte   W96
@  #05 @006   ----------------------------------------
 .byte   W96
@  #05 @007   ----------------------------------------
 .byte   W96
@  #05 @008   ----------------------------------------
 .byte   N05 ,En1 ,v092
 .byte   W06
 .byte   Bn1
 .byte   W06
 .byte   An1
 .byte   W06
 .byte   Bn1
 .byte   W06
 .byte   En2
 .byte   W06
 .byte   Bn2
 .byte   W06
 .byte   An2
 .byte   W06
 .byte   Bn2
 .byte   W06
 .byte   En1
 .byte   W06
 .byte   Bn1
 .byte   W06
 .byte   An1
 .byte   W06
 .byte   Bn1
 .byte   W06
 .byte   En2
 .byte   W06
 .byte   Bn2
 .byte   W06
 .byte   An2
 .byte   W06
 .byte   Bn2
 .byte   W06
@  #05 @009   ----------------------------------------
 .byte   Cn1
 .byte   W06
 .byte   Gn1
 .byte   W06
 .byte   Fn1
 .byte   W06
 .byte   Gn1
 .byte   W06
 .byte   Cn2
 .byte   W06
 .byte   Gn2
 .byte   W06
 .byte   Fn2
 .byte   W06
 .byte   Gn2
 .byte   W06
 .byte   Cn1
 .byte   W06
 .byte   Gn1
 .byte   W06
 .byte   Fn1
 .byte   W06
 .byte   Gn1
 .byte   W06
 .byte   Cn2
 .byte   W06
 .byte   Gn2
 .byte   W06
 .byte   Fn2
 .byte   W06
 .byte   Gn2
 .byte   W06
@  #05 @010   ----------------------------------------
 .byte   Fn1
 .byte   W06
 .byte   Cn2
 .byte   W06
 .byte   As1
 .byte   W06
 .byte   Cn2
 .byte   W06
 .byte   Fn2
 .byte   W06
 .byte   Cn3
 .byte   W06
 .byte   As2
 .byte   W06
 .byte   Cn3
 .byte   W06
 .byte   Fn1
 .byte   W06
 .byte   Cn2
 .byte   W06
 .byte   As1
 .byte   W06
 .byte   Cn2
 .byte   W06
 .byte   Fn2
 .byte   W06
 .byte   Cn3
 .byte   W06
 .byte   As2
 .byte   W06
 .byte   Cn3
 .byte   W06
@  #05 @011   ----------------------------------------
Label_0157806A:
 .byte   N05 ,As1 ,v092
 .byte   W06
 .byte   Fn2
 .byte   W06
 .byte   Ds2
 .byte   W06
 .byte   Fn2
 .byte   W06
 .byte   As2
 .byte   W06
 .byte   Fn3
 .byte   W06
 .byte   Ds3
 .byte   W06
 .byte   Fn3
 .byte   W06
 .byte   As1
 .byte   W06
 .byte   Fn2
 .byte   W06
 .byte   Ds2
 .byte   W06
 .byte   Fn2
 .byte   W06
 .byte   As2
 .byte   W06
 .byte   Fn3
 .byte   W06
 .byte   Ds3
 .byte   W06
 .byte   Fn3
 .byte   W06
 .byte   PEND 
@  #05 @012   ----------------------------------------
 .byte   PATT
  .word Label_0157806A
@  #05 @013   ----------------------------------------
 .byte   PATT
  .word Label_0157806A
@  #05 @014   ----------------------------------------
Label_01578097:
 .byte   N05 ,Cn2 ,v092
 .byte   W06
 .byte   Fn2
 .byte   W06
 .byte   Ds2
 .byte   W06
 .byte   Fn2
 .byte   W06
 .byte   Cn3
 .byte   W06
 .byte   Fn3
 .byte   W06
 .byte   Ds3
 .byte   W06
 .byte   Fn3
 .byte   W06
 .byte   Cn2
 .byte   W06
 .byte   Fn2
 .byte   W06
 .byte   Ds2
 .byte   W06
 .byte   Fn2
 .byte   W06
 .byte   Cn3
 .byte   W06
 .byte   Fn3
 .byte   W06
 .byte   Ds3
 .byte   W06
 .byte   Fn3
 .byte   W06
 .byte   PEND 
@  #05 @015   ----------------------------------------
 .byte   PATT
  .word Label_01578097
@  #05 @016   ----------------------------------------
 .byte   N05 ,Cn2 ,v092
 .byte   W06
 .byte   Fn2 ,v084
 .byte   W06
 .byte   Ds2 ,v076
 .byte   W06
 .byte   Fn2 ,v068
 .byte   W06
 .byte   Cn3 ,v064
 .byte   W06
 .byte   Fn3 ,v056
 .byte   W06
 .byte   Ds3 ,v048
 .byte   W06
 .byte   Fn3 ,v044
 .byte   W06
 .byte   Cn2 ,v040
 .byte   W06
 .byte   Fn2 ,v036
 .byte   W06
 .byte   Ds2 ,v032
 .byte   W06
 .byte   Fn2 ,v028
 .byte   W06
 .byte   Cn3 ,v024
 .byte   W06
 .byte   Fn3
 .byte   W06
 .byte   Ds3 ,v020
 .byte   W06
 .byte   Fn3
 .byte   W06
@  #05 @017   ----------------------------------------
Label_015780EE:
 .byte   N92 ,Fn1 ,v104
 .byte   N92 ,Cn2
 .byte   W24
 .byte   N68 ,Cn1
 .byte   W72
 .byte   PEND 
@  #05 @018   ----------------------------------------
Label_015780F8:
 .byte   N92 ,Cn1 ,v104
 .byte   N92 ,Fn1
 .byte   W24
 .byte   N68 ,Fn0
 .byte   W72
 .byte   PEND 
@  #05 @019   ----------------------------------------
 .byte   PATT
  .word Label_015780F8
@  #05 @020   ----------------------------------------
 .byte   PATT
  .word Label_015780F8
@  #05 @021   ----------------------------------------
 .byte   N92 ,Fn1 ,v104
 .byte   N44 ,Cn2
 .byte   W24
 .byte   N68 ,Cn1
 .byte   W24
 .byte   N44 ,Fn0
 .byte   W48
@  #05 @022   ----------------------------------------
 .byte   PATT
  .word Label_015780F8
@  #05 @023   ----------------------------------------
 .byte   PATT
  .word Label_015780F8
@  #05 @024   ----------------------------------------
 .byte   PATT
  .word Label_015780F8
@  #05 @025   ----------------------------------------
Label_01578127:
 .byte   N23 ,Cn2 ,v088
 .byte   N23 ,Fn2
 .byte   W24
 .byte   Cn2
 .byte   N23 ,Fn2
 .byte   W24
 .byte   Cn2
 .byte   N23 ,Fn2
 .byte   W24
 .byte   Cn2
 .byte   N23 ,Fn2
 .byte   W24
 .byte   PEND 
@  #05 @026   ----------------------------------------
Label_0157813A:
 .byte   N44 ,Fn1 ,v088
 .byte   N44 ,Cn2
 .byte   W48
 .byte   N23 ,Fn1
 .byte   W24
 .byte   Cn2
 .byte   W24
 .byte   PEND 
@  #05 @027   ----------------------------------------
 .byte   PATT
  .word Label_01578127
@  #05 @028   ----------------------------------------
 .byte   PATT
  .word Label_0157813A
@  #05 @029   ----------------------------------------
 .byte   PATT
  .word Label_01578127
@  #05 @030   ----------------------------------------
 .byte   N92 ,Fn1 ,v088
 .byte   N92 ,Cn2
 .byte   W96
@  #05 @031   ----------------------------------------
 .byte   Dn1
 .byte   N68 ,An1
 .byte   N23 ,An2
 .byte   W24
 .byte   N44 ,Dn2
 .byte   W48
 .byte   N23 ,An1
 .byte   W24
@  #05 @032   ----------------------------------------
 .byte   N92 ,Dn1
 .byte   N92 ,Gn1
 .byte   N23 ,Gn2
 .byte   W24
 .byte   N44 ,Dn2
 .byte   W48
 .byte   N23 ,Gn2
 .byte   W24
@  #05 @033   ----------------------------------------
 .byte   N92 ,En1
 .byte   W24
 .byte   N44 ,Gn1 ,v068
 .byte   N44 ,Dn2
 .byte   W24
 .byte   N68 ,Bn1
 .byte   N56 ,Gn2
 .byte   W24
 .byte   N23 ,Gn1
 .byte   N23 ,Dn2
 .byte   W24
@  #05 @034   ----------------------------------------
 .byte   N68 ,Gn1
 .byte   N68 ,Dn2
 .byte   W24
 .byte   N23 ,Dn1
 .byte   N23 ,Bn1
 .byte   W24
 .byte   TIE ,Dn1
 .byte   N23 ,Bn1
 .byte   W24
 .byte   TIE ,Bn0
 .byte   TIE ,Gn1
 .byte   W24
@  #05 @035   ----------------------------------------
 .byte   W92
 .byte   W03
 .byte   EOT
 .byte   Bn0 ,v038
 .byte   Gn1
 .byte   W01
@  #05 @036   ----------------------------------------
 .byte   PATT
  .word Label_015780EE
@  #05 @037   ----------------------------------------
 .byte   PATT
  .word Label_015780F8
@  #05 @038   ----------------------------------------
 .byte   PATT
  .word Label_015780F8
@  #05 @039   ----------------------------------------
 .byte   PATT
  .word Label_015780F8
@  #05 @040   ----------------------------------------
 .byte   PATT
  .word Label_015780EE
@  #05 @041   ----------------------------------------
 .byte   PATT
  .word Label_015780F8
@  #05 @042   ----------------------------------------
 .byte   PATT
  .word Label_015780F8
@  #05 @043   ----------------------------------------
 .byte   PATT
  .word Label_015780F8
@  #05 @044   ----------------------------------------
Label_015781CA:
 .byte   N23 ,Cn2 ,v088
 .byte   N23 ,Gn2
 .byte   W24
 .byte   Cn2
 .byte   N23 ,Gn2
 .byte   W24
 .byte   Cn2
 .byte   N23 ,Gn2
 .byte   W24
 .byte   Cn2
 .byte   N23 ,Gn2
 .byte   W24
 .byte   PEND 
@  #05 @045   ----------------------------------------
Label_015781DD:
 .byte   N44 ,Gn1 ,v088
 .byte   N44 ,Cn2
 .byte   W48
 .byte   N23 ,Gn1
 .byte   W24
 .byte   Cn2
 .byte   W24
 .byte   PEND 
@  #05 @046   ----------------------------------------
 .byte   PATT
  .word Label_015781CA
@  #05 @047   ----------------------------------------
Label_015781EE:
 .byte   N44 ,Gn1 ,v088
 .byte   N44 ,Bn1
 .byte   W48
 .byte   N23 ,Gn1
 .byte   W24
 .byte   Bn1
 .byte   W24
 .byte   PEND 
@  #05 @048   ----------------------------------------
 .byte   Cn2
 .byte   W24
 .byte   Bn1
 .byte   W24
 .byte   Cn2
 .byte   W24
 .byte   Dn2
 .byte   W24
@  #05 @049   ----------------------------------------
 .byte   N23
 .byte   W24
 .byte   Cn2
 .byte   W24
 .byte   Dn2
 .byte   W24
 .byte   Bn1
 .byte   W24
@  #05 @050   ----------------------------------------
 .byte   N92
 .byte   W96
@  #05 @051   ----------------------------------------
 .byte   N44 ,Cn2
 .byte   W48
 .byte   N23 ,An1
 .byte   W24
 .byte   Cn2
 .byte   W24
@  #05 @052   ----------------------------------------
 .byte   PATT
  .word Label_015781CA
@  #05 @053   ----------------------------------------
 .byte   PATT
  .word Label_015781DD
@  #05 @054   ----------------------------------------
 .byte   PATT
  .word Label_015781CA
@  #05 @055   ----------------------------------------
 .byte   PATT
  .word Label_015781EE
@  #05 @056   ----------------------------------------
 .byte   N40 ,Dn2 ,v088
 .byte   N23 ,Bn2
 .byte   W24
 .byte   An2
 .byte   W24
 .byte   N44 ,Fn1
 .byte   N23 ,Dn2
 .byte   W24
 .byte   An1
 .byte   W24
@  #05 @057   ----------------------------------------
 .byte   N44 ,Gn1
 .byte   N44 ,Bn1
 .byte   W48
 .byte   En2
 .byte   W48
@  #05 @058   ----------------------------------------
 .byte   TIE ,En1
 .byte   N44 ,Bn1
 .byte   W48
 .byte   TIE ,Cn2
 .byte   W48
@  #05 @059   ----------------------------------------
 .byte   W92
 .byte   W03
 .byte   EOT
 .byte   En1 ,v048
 .byte   W01
@  #05 @060   ----------------------------------------
 .byte   N92 ,An1 ,v100
 .byte   N17 ,En2 ,v112
 .byte   W12
 .byte   Dn2 ,v108
 .byte   W12
 .byte   Cs2
 .byte   W12
 .byte   N56 ,Dn2 ,v104
 .byte   W24
 .byte   N17 ,Fn1 ,v112
 .byte   W12
 .byte   En1 ,v108
 .byte   W12
 .byte   N11 ,Dn1
 .byte   W12
@  #05 @061   ----------------------------------------
 .byte   N32
 .byte   N32 ,Gn1 ,v100
 .byte   N17 ,Dn2 ,v112
 .byte   W12
 .byte   Cn2 ,v108
 .byte   W12
 .byte   Bn1
 .byte   W12
 .byte   N56 ,Gn1
 .byte   N56 ,Cn2 ,v104
 .byte   W24
 .byte   N17 ,Dn1 ,v112
 .byte   W12
 .byte   Cn1 ,v108
 .byte   W12
 .byte   N11 ,Bn0
 .byte   W12
@  #05 @062   ----------------------------------------
 .byte   N32 ,Cn1
 .byte   N32 ,Fn1 ,v100
 .byte   N17 ,Cn2 ,v112
 .byte   W12
 .byte   Bn1 ,v108
 .byte   W12
 .byte   An1
 .byte   W12
 .byte   N56 ,Fn1
 .byte   N56 ,Bn1 ,v104
 .byte   W24
 .byte   N17 ,Cn1 ,v112
 .byte   W12
 .byte   Bn0 ,v108
 .byte   W12
 .byte   N11 ,An0
 .byte   W12
@  #05 @063   ----------------------------------------
 .byte   N56 ,Bn0
 .byte   N32 ,En1 ,v100
 .byte   N17 ,Cn2 ,v112
 .byte   W12
 .byte   Bn1 ,v104
 .byte   W12
 .byte   N56 ,Gn1
 .byte   W12
 .byte   N32 ,En1
 .byte   W24
 .byte   N11 ,Dn1 ,v112
 .byte   W12
 .byte   En1
 .byte   W12
 .byte   Gn1
 .byte   W12
@  #05 @064   ----------------------------------------
 .byte   N92 ,Dn1 ,v100
 .byte   N92 ,An1
 .byte   N17 ,En2 ,v112
 .byte   W12
 .byte   Dn2 ,v108
 .byte   W12
 .byte   Cs2
 .byte   W12
 .byte   N56 ,Dn2 ,v104
 .byte   W60
@  #05 @065   ----------------------------------------
 .byte   N92 ,Cn1 ,v100
 .byte   N92 ,Gn1
 .byte   N17 ,Dn2 ,v112
 .byte   W12
 .byte   Cn2 ,v108
 .byte   W12
 .byte   Bn1
 .byte   W12
 .byte   N56 ,Cn2 ,v104
 .byte   W60
@  #05 @066   ----------------------------------------
 .byte   N92 ,An0 ,v100
 .byte   N92 ,Fs1
 .byte   N17 ,Cn2 ,v112
 .byte   W12
 .byte   Bn1 ,v108
 .byte   W12
 .byte   As1
 .byte   W12
 .byte   N56 ,Bn1 ,v104
 .byte   W24
 .byte   N17 ,Ds1 ,v108
 .byte   W12
 .byte   Dn1
 .byte   W12
 .byte   N11 ,Ds1
 .byte   W12
@  #05 @067   ----------------------------------------
 .byte   N92 ,Gs0 ,v100
 .byte   TIE ,En1
 .byte   N17 ,Cn2 ,v112
 .byte   W12
 .byte   Bn1 ,v108
 .byte   W12
 .byte   As1
 .byte   W12
 .byte   TIE ,Bn1 ,v104
 .byte   W60
@  #05 @068   ----------------------------------------
 .byte   W44
 .byte   W03
 .byte   EOT
 .byte   En1 ,v047
 .byte   W01
 .byte   N24 ,Dn2
 .byte   W24
 .byte   En2
 .byte   W24
@  #05 @069   ----------------------------------------
Label_01578317:
 .byte   N60 ,Cn3 ,v104
 .byte   W60
 .byte   N15 ,As2
 .byte   W12
 .byte   N13 ,An2
 .byte   W12
 .byte   N14 ,Gn2
 .byte   W12
 .byte   PEND 
@  #05 @070   ----------------------------------------
Label_01578325:
 .byte   N44 ,Dn2 ,v104
 .byte   W48
 .byte   N23 ,An1
 .byte   W24
 .byte   As1 ,v100
 .byte   W24
 .byte   PEND 
@  #05 @071   ----------------------------------------
 .byte   N32 ,Bn1
 .byte   W36
 .byte   N78 ,Gn2
 .byte   W12
 .byte   N12 ,An3 ,v060
 .byte   W08
 .byte   N13 ,Bn3
 .byte   W08
 .byte   N09 ,Cn4
 .byte   W08
 .byte   N10 ,Dn4
 .byte   W08
 .byte   N09 ,Cn4
 .byte   W08
 .byte   N07 ,Bn3
 .byte   W08
@  #05 @072   ----------------------------------------
 .byte   N07
 .byte   W08
 .byte   Gn3
 .byte   W08
 .byte   Bn3
 .byte   W08
 .byte   Gn3
 .byte   W08
 .byte   En3
 .byte   W08
 .byte   Gn3
 .byte   W08
 .byte   N23 ,Dn2 ,v104
 .byte   N07 ,En3 ,v060
 .byte   W08
 .byte   Bn2
 .byte   W08
 .byte   En3
 .byte   W08
 .byte   N23 ,En2 ,v100
 .byte   N07 ,Bn2 ,v060
 .byte   W08
 .byte   Gn2
 .byte   W08
 .byte   Bn2
 .byte   W08
@  #05 @073   ----------------------------------------
 .byte   PATT
  .word Label_01578317
@  #05 @074   ----------------------------------------
 .byte   PATT
  .word Label_01578325
@  #05 @075   ----------------------------------------
 .byte   N32 ,Cn2 ,v100
 .byte   W36
 .byte   N92 ,Gn1
 .byte   N92 ,Gn2
 .byte   W12
 .byte   N12 ,An3 ,v060
 .byte   W08
 .byte   N13 ,Bn3
 .byte   W08
 .byte   N09 ,Cn4
 .byte   W08
 .byte   N10 ,Dn4
 .byte   W08
 .byte   N09 ,Cn4
 .byte   W08
 .byte   N07 ,Bn3
 .byte   W08
@  #05 @076   ----------------------------------------
 .byte   N07
 .byte   W08
 .byte   Gn3
 .byte   W08
 .byte   Bn3
 .byte   W08
 .byte   Gn3
 .byte   W08
 .byte   En3
 .byte   W08
 .byte   Gn3
 .byte   W08
 .byte   N24 ,Dn2 ,v088
 .byte   N07 ,En3 ,v060
 .byte   W08
 .byte   Bn2
 .byte   W08
 .byte   En3
 .byte   W08
 .byte   N23 ,En2 ,v104
 .byte   N07 ,Bn2 ,v060
 .byte   N23 ,En3 ,v104
 .byte   W08
 .byte   N07 ,Gn2 ,v060
 .byte   W08
 .byte   Bn2
 .byte   W08
@  #05 @077   ----------------------------------------
 .byte   N56 ,Fn2 ,v092
 .byte   N56 ,Fn3
 .byte   W60
 .byte   N11 ,En2 ,v088
 .byte   N11 ,En3
 .byte   W12
 .byte   Dn2 ,v072
 .byte   N11 ,Dn3
 .byte   W12
 .byte   An1 ,v068
 .byte   N11 ,An2
 .byte   W12
@  #05 @078   ----------------------------------------
 .byte   N44 ,Gs1 ,v076
 .byte   N44 ,Gs2
 .byte   W48
 .byte   N23 ,En2 ,v088
 .byte   W24
 .byte   Dn2
 .byte   N23 ,Dn3
 .byte   W24
@  #05 @079   ----------------------------------------
 .byte   N56 ,Dn2
 .byte   N56 ,Dn3
 .byte   W60
 .byte   N11 ,Cn2 ,v092
 .byte   N11 ,Cn3
 .byte   W12
 .byte   Dn2
 .byte   N11 ,Dn3
 .byte   W12
 .byte   En2 ,v088
 .byte   N11 ,En3
 .byte   W12
@  #05 @080   ----------------------------------------
 .byte   N44 ,An1 ,v092
 .byte   N44 ,An2
 .byte   W48
 .byte   N23 ,Bn1 ,v072
 .byte   N23 ,Bn2
 .byte   W24
 .byte   Cn2
 .byte   N23 ,Cn3
 .byte   W24
@  #05 @081   ----------------------------------------
 .byte   N68 ,An1 ,v092
 .byte   N68 ,An2
 .byte   W72
 .byte   N11 ,Dn2
 .byte   N11 ,Dn3
 .byte   W12
 .byte   Cn2
 .byte   N11 ,Cn3
 .byte   W12
@  #05 @082   ----------------------------------------
Label_0157840F:
 .byte   N44 ,Bn1 ,v092
 .byte   N44 ,Bn2
 .byte   W48
 .byte   Gn1
 .byte   N44 ,Gn2
 .byte   W48
 .byte   PEND 
@  #05 @083   ----------------------------------------
 .byte   N92 ,Gn1
 .byte   N92 ,Gn2
 .byte   W96
@  #05 @084   ----------------------------------------
 .byte   N68 ,An1
 .byte   N68 ,An2
 .byte   W72
 .byte   N11 ,An1
 .byte   N11 ,An2
 .byte   W12
 .byte   Bn1 ,v088
 .byte   N11 ,Bn2
 .byte   W12
@  #05 @085   ----------------------------------------
 .byte   N32 ,Cn2 ,v092
 .byte   N32 ,Cn3
 .byte   W36
 .byte   An1
 .byte   N32 ,An2
 .byte   W36
 .byte   N11 ,Dn2
 .byte   N11 ,Dn3
 .byte   W12
 .byte   Cn2
 .byte   N11 ,Cn3
 .byte   W12
@  #05 @086   ----------------------------------------
 .byte   PATT
  .word Label_0157840F
@  #05 @087   ----------------------------------------
 .byte   N92 ,Gn1 ,v092
 .byte   N92 ,Gn2
 .byte   W96
@  #05 @088   ----------------------------------------
 .byte   An1
 .byte   N92 ,An2
 .byte   W96
@  #05 @089   ----------------------------------------
 .byte   GOTO
  .word Label_01577FFA
@  #05 @090   ----------------------------------------
 .byte   W92
 .byte   W03
 .byte   FINE

@**************** Track 6 (Midi-Chn.5) ****************@

song0185_006:
@  #06 @000   ----------------------------------------
 .byte   KEYSH , song0185_key+0
Label_0171E262:
 .byte   VOICE , 4
 .byte   VOL , 47*song0185_mvl/mxv
 .byte   PAN , c_v+0
 .byte   W96
@  #06 @001   ----------------------------------------
 .byte   W96
@  #06 @002   ----------------------------------------
 .byte   W96
@  #06 @003   ----------------------------------------
 .byte   W96
@  #06 @004   ----------------------------------------
 .byte   W96
@  #06 @005   ----------------------------------------
 .byte   W96
@  #06 @006   ----------------------------------------
 .byte   W96
@  #06 @007   ----------------------------------------
 .byte   W96
@  #06 @008   ----------------------------------------
 .byte   W96
@  #06 @009   ----------------------------------------
 .byte   W96
@  #06 @010   ----------------------------------------
 .byte   W96
@  #06 @011   ----------------------------------------
 .byte   W96
@  #06 @012   ----------------------------------------
 .byte   W96
@  #06 @013   ----------------------------------------
 .byte   W96
@  #06 @014   ----------------------------------------
 .byte   W96
@  #06 @015   ----------------------------------------
 .byte   W96
@  #06 @016   ----------------------------------------
 .byte   W96
@  #06 @017   ----------------------------------------
 .byte   W96
@  #06 @018   ----------------------------------------
 .byte   W96
@  #06 @019   ----------------------------------------
 .byte   W96
@  #06 @020   ----------------------------------------
 .byte   W96
@  #06 @021   ----------------------------------------
 .byte   W96
@  #06 @022   ----------------------------------------
 .byte   W96
@  #06 @023   ----------------------------------------
 .byte   W96
@  #06 @024   ----------------------------------------
 .byte   W96
@  #06 @025   ----------------------------------------
 .byte   W96
@  #06 @026   ----------------------------------------
 .byte   W96
@  #06 @027   ----------------------------------------
 .byte   W96
@  #06 @028   ----------------------------------------
 .byte   W96
@  #06 @029   ----------------------------------------
 .byte   W96
@  #06 @030   ----------------------------------------
 .byte   W96
@  #06 @031   ----------------------------------------
 .byte   W96
@  #06 @032   ----------------------------------------
 .byte   W96
@  #06 @033   ----------------------------------------
 .byte   W96
@  #06 @034   ----------------------------------------
 .byte   W96
@  #06 @035   ----------------------------------------
 .byte   W96
@  #06 @036   ----------------------------------------
 .byte   W96
@  #06 @037   ----------------------------------------
 .byte   W96
@  #06 @038   ----------------------------------------
 .byte   W96
@  #06 @039   ----------------------------------------
 .byte   W96
@  #06 @040   ----------------------------------------
 .byte   W96
@  #06 @041   ----------------------------------------
 .byte   W96
@  #06 @042   ----------------------------------------
 .byte   W96
@  #06 @043   ----------------------------------------
 .byte   W96
@  #06 @044   ----------------------------------------
 .byte   W96
@  #06 @045   ----------------------------------------
 .byte   W96
@  #06 @046   ----------------------------------------
 .byte   W96
@  #06 @047   ----------------------------------------
 .byte   W96
@  #06 @048   ----------------------------------------
 .byte   W96
@  #06 @049   ----------------------------------------
 .byte   W96
@  #06 @050   ----------------------------------------
 .byte   W96
@  #06 @051   ----------------------------------------
 .byte   W96
@  #06 @052   ----------------------------------------
 .byte   W96
@  #06 @053   ----------------------------------------
 .byte   W96
@  #06 @054   ----------------------------------------
 .byte   W96
@  #06 @055   ----------------------------------------
 .byte   W96
@  #06 @056   ----------------------------------------
 .byte   W96
@  #06 @057   ----------------------------------------
 .byte   W96
@  #06 @058   ----------------------------------------
 .byte   W96
@  #06 @059   ----------------------------------------
 .byte   W96
@  #06 @060   ----------------------------------------
 .byte   W96
@  #06 @061   ----------------------------------------
 .byte   W96
@  #06 @062   ----------------------------------------
 .byte   W96
@  #06 @063   ----------------------------------------
 .byte   W96
@  #06 @064   ----------------------------------------
 .byte   W96
@  #06 @065   ----------------------------------------
 .byte   W96
@  #06 @066   ----------------------------------------
 .byte   W96
@  #06 @067   ----------------------------------------
 .byte   W96
@  #06 @068   ----------------------------------------
 .byte   W96
@  #06 @069   ----------------------------------------
 .byte   N84 ,As0 ,v068
 .byte   N84 ,Fn1
 .byte   W96
@  #06 @070   ----------------------------------------
 .byte   N92 ,As0
 .byte   N92 ,Fn1
 .byte   W96
@  #06 @071   ----------------------------------------
Label_0171E2B8:
 .byte   TIE ,Bn0 ,v068
 .byte   TIE ,En1
 .byte   W96
 .byte   PEND 
@  #06 @072   ----------------------------------------
 .byte   W92
 .byte   W03
 .byte   EOT
 .byte   Bn0 ,v040
 .byte   W01
@  #06 @073   ----------------------------------------
 .byte   N84 ,As0
 .byte   N84 ,Fn1
 .byte   W96
@  #06 @074   ----------------------------------------
 .byte   N92 ,As0
 .byte   N92 ,Fn1
 .byte   W96
@  #06 @075   ----------------------------------------
 .byte   PATT
  .word Label_0171E2B8
@  #06 @076   ----------------------------------------
 .byte   W92
 .byte   W03
 .byte   EOT
 .byte   Bn0 ,v040
 .byte   W01
@  #06 @077   ----------------------------------------
 .byte   N92 ,Cn1 ,v068
 .byte   N92 ,Fn1
 .byte   W96
@  #06 @078   ----------------------------------------
 .byte   N32 ,Cn1
 .byte   N92 ,En1
 .byte   W36
 .byte   N56 ,Bn0
 .byte   W60
@  #06 @079   ----------------------------------------
 .byte   N92
 .byte   N92 ,Gn1
 .byte   W36
 .byte   N56 ,Dn1
 .byte   W60
@  #06 @080   ----------------------------------------
 .byte   N92 ,Cn1
 .byte   N92 ,Fs1
 .byte   W96
@  #06 @081   ----------------------------------------
 .byte   Cn1
 .byte   N92 ,Gn1
 .byte   W96
@  #06 @082   ----------------------------------------
 .byte   An0
 .byte   N92 ,Dn1
 .byte   W96
@  #06 @083   ----------------------------------------
 .byte   Bn0
 .byte   N92 ,En1
 .byte   W96
@  #06 @084   ----------------------------------------
 .byte   Bn0
 .byte   N92 ,En1
 .byte   W96
@  #06 @085   ----------------------------------------
 .byte   Cn1
 .byte   N92 ,Gn1
 .byte   W96
@  #06 @086   ----------------------------------------
 .byte   An0
 .byte   N92 ,Dn1
 .byte   W96
@  #06 @087   ----------------------------------------
 .byte   PATT
  .word Label_0171E2B8
@  #06 @088   ----------------------------------------
 .byte   W80
 .byte   W03
 .byte   EOT
 .byte   Bn0 ,v040
 .byte   W13
@  #06 @089   ----------------------------------------
 .byte   GOTO
  .word Label_0171E262
@  #06 @090   ----------------------------------------
 .byte   W92
 .byte   W03
 .byte   FINE

@**************** Track 7 (Midi-Chn.6) ****************@

song0185_007:
@  #07 @000   ----------------------------------------
 .byte   KEYSH , song0185_key+0
Label_0171DF22:
 .byte   VOICE , 4
 .byte   VOL , 48*song0185_mvl/mxv
 .byte   PAN , c_v+14
 .byte   W96
@  #07 @001   ----------------------------------------
 .byte   W96
@  #07 @002   ----------------------------------------
 .byte   W96
@  #07 @003   ----------------------------------------
 .byte   W96
@  #07 @004   ----------------------------------------
 .byte   W96
@  #07 @005   ----------------------------------------
 .byte   W96
@  #07 @006   ----------------------------------------
 .byte   W96
@  #07 @007   ----------------------------------------
 .byte   W96
@  #07 @008   ----------------------------------------
 .byte   W96
@  #07 @009   ----------------------------------------
 .byte   W96
@  #07 @010   ----------------------------------------
 .byte   W96
@  #07 @011   ----------------------------------------
 .byte   W96
@  #07 @012   ----------------------------------------
 .byte   W96
@  #07 @013   ----------------------------------------
 .byte   W96
@  #07 @014   ----------------------------------------
 .byte   W96
@  #07 @015   ----------------------------------------
 .byte   W96
@  #07 @016   ----------------------------------------
 .byte   W96
@  #07 @017   ----------------------------------------
 .byte   W96
@  #07 @018   ----------------------------------------
 .byte   W96
@  #07 @019   ----------------------------------------
 .byte   W96
@  #07 @020   ----------------------------------------
 .byte   W96
@  #07 @021   ----------------------------------------
 .byte   W96
@  #07 @022   ----------------------------------------
 .byte   W96
@  #07 @023   ----------------------------------------
 .byte   W96
@  #07 @024   ----------------------------------------
 .byte   W96
@  #07 @025   ----------------------------------------
 .byte   W96
@  #07 @026   ----------------------------------------
 .byte   W96
@  #07 @027   ----------------------------------------
 .byte   W96
@  #07 @028   ----------------------------------------
 .byte   W96
@  #07 @029   ----------------------------------------
 .byte   W96
@  #07 @030   ----------------------------------------
 .byte   W96
@  #07 @031   ----------------------------------------
 .byte   W96
@  #07 @032   ----------------------------------------
 .byte   W96
@  #07 @033   ----------------------------------------
 .byte   W96
@  #07 @034   ----------------------------------------
 .byte   W96
@  #07 @035   ----------------------------------------
 .byte   W96
@  #07 @036   ----------------------------------------
 .byte   W96
@  #07 @037   ----------------------------------------
 .byte   W96
@  #07 @038   ----------------------------------------
 .byte   W96
@  #07 @039   ----------------------------------------
 .byte   W96
@  #07 @040   ----------------------------------------
 .byte   W96
@  #07 @041   ----------------------------------------
 .byte   W96
@  #07 @042   ----------------------------------------
 .byte   W96
@  #07 @043   ----------------------------------------
 .byte   W96
@  #07 @044   ----------------------------------------
Label_0171DF54:
 .byte   N11 ,Gn5 ,v056
 .byte   W12
 .byte   Cn5
 .byte   W12
 .byte   Gn5
 .byte   W12
 .byte   Cn5
 .byte   W12
 .byte   Gn5
 .byte   W12
 .byte   Cn5
 .byte   W12
 .byte   Gn5
 .byte   W12
 .byte   Cn5
 .byte   W12
 .byte   PEND 
@  #07 @045   ----------------------------------------
 .byte   Cn5 ,v048
 .byte   W12
 .byte   Gn4
 .byte   W12
 .byte   Cn5 ,v044
 .byte   W12
 .byte   Gn4
 .byte   W12
 .byte   Cn5
 .byte   W12
 .byte   Gn4
 .byte   W12
 .byte   Cn5
 .byte   W12
 .byte   Gn4 ,v040
 .byte   W12
@  #07 @046   ----------------------------------------
 .byte   PATT
  .word Label_0171DF54
@  #07 @047   ----------------------------------------
 .byte   N11 ,Bn4 ,v044
 .byte   W12
 .byte   Gn4 ,v040
 .byte   W12
 .byte   Bn4
 .byte   W12
 .byte   Gn4 ,v036
 .byte   W12
 .byte   Bn4
 .byte   W12
 .byte   Gn4
 .byte   W12
 .byte   Bn4
 .byte   W12
 .byte   Gn4
 .byte   W12
@  #07 @048   ----------------------------------------
 .byte   N23 ,An4 ,v072
 .byte   W24
 .byte   Gn4
 .byte   W24
 .byte   An4
 .byte   W24
 .byte   Bn4
 .byte   W24
@  #07 @049   ----------------------------------------
 .byte   N23
 .byte   W24
 .byte   An4
 .byte   W24
 .byte   Bn4
 .byte   W24
 .byte   Gn4
 .byte   W24
@  #07 @050   ----------------------------------------
 .byte   N68 ,Dn4
 .byte   W72
 .byte   N23 ,Gn4
 .byte   W24
@  #07 @051   ----------------------------------------
 .byte   N44 ,En4
 .byte   W48
 .byte   N23 ,Dn4
 .byte   W24
 .byte   An4
 .byte   W24
@  #07 @052   ----------------------------------------
Label_0171DFB3:
 .byte   N11 ,Gn5 ,v056
 .byte   W12
 .byte   Cn5
 .byte   W12
 .byte   Gn5
 .byte   W12
 .byte   Cn5
 .byte   W12
 .byte   Gn5
 .byte   W12
 .byte   Cn5
 .byte   W12
 .byte   Gn5 ,v028
 .byte   W12
 .byte   Cn5
 .byte   W12
 .byte   PEND 
@  #07 @053   ----------------------------------------
 .byte   N11
 .byte   W12
 .byte   Gn4
 .byte   W12
 .byte   Cn5
 .byte   W12
 .byte   Gn4
 .byte   W12
 .byte   Cn5
 .byte   W12
 .byte   Gn4
 .byte   W12
 .byte   Cn5
 .byte   W12
 .byte   Gn4
 .byte   W12
@  #07 @054   ----------------------------------------
 .byte   PATT
  .word Label_0171DFB3
@  #07 @055   ----------------------------------------
 .byte   N11 ,Bn4 ,v028
 .byte   W12
 .byte   Gn4
 .byte   W12
 .byte   Bn4
 .byte   W12
 .byte   Gn4
 .byte   W12
 .byte   Bn4
 .byte   W12
 .byte   Gn4
 .byte   W12
 .byte   Bn4
 .byte   W12
 .byte   Gn4
 .byte   W12
@  #07 @056   ----------------------------------------
 .byte   W96
@  #07 @057   ----------------------------------------
 .byte   W96
@  #07 @058   ----------------------------------------
 .byte   W96
@  #07 @059   ----------------------------------------
 .byte   W96
@  #07 @060   ----------------------------------------
 .byte   W96
@  #07 @061   ----------------------------------------
 .byte   W96
@  #07 @062   ----------------------------------------
 .byte   W96
@  #07 @063   ----------------------------------------
 .byte   W96
@  #07 @064   ----------------------------------------
 .byte   W96
@  #07 @065   ----------------------------------------
 .byte   W96
@  #07 @066   ----------------------------------------
 .byte   W96
@  #07 @067   ----------------------------------------
 .byte   W96
@  #07 @068   ----------------------------------------
 .byte   W96
@  #07 @069   ----------------------------------------
 .byte   W96
@  #07 @070   ----------------------------------------
 .byte   W96
@  #07 @071   ----------------------------------------
 .byte   W96
@  #07 @072   ----------------------------------------
 .byte   W96
@  #07 @073   ----------------------------------------
 .byte   W96
@  #07 @074   ----------------------------------------
 .byte   W96
@  #07 @075   ----------------------------------------
 .byte   W96
@  #07 @076   ----------------------------------------
 .byte   W96
@  #07 @077   ----------------------------------------
 .byte   W96
@  #07 @078   ----------------------------------------
 .byte   W96
@  #07 @079   ----------------------------------------
 .byte   W96
@  #07 @080   ----------------------------------------
 .byte   W96
@  #07 @081   ----------------------------------------
 .byte   W96
@  #07 @082   ----------------------------------------
 .byte   W96
@  #07 @083   ----------------------------------------
 .byte   W96
@  #07 @084   ----------------------------------------
 .byte   W96
@  #07 @085   ----------------------------------------
 .byte   W96
@  #07 @086   ----------------------------------------
 .byte   W96
@  #07 @087   ----------------------------------------
 .byte   W96
@  #07 @088   ----------------------------------------
 .byte   W96
@  #07 @089   ----------------------------------------
 .byte   GOTO
  .word Label_0171DF22
@  #07 @090   ----------------------------------------
 .byte   W92
 .byte   W03
 .byte   FINE

@**************** Track 8 (Midi-Chn.7) ****************@

song0185_008:
@  #08 @000   ----------------------------------------
 .byte   KEYSH , song0185_key+0
Label_0157846A:
 .byte   VOICE , 105
 .byte   VOL , 51*song0185_mvl/mxv
 .byte   PAN , c_v+0
 .byte   N32 ,Fn2 ,v092
 .byte   W36
 .byte   N56
 .byte   W60
@  #08 @001   ----------------------------------------
Label_01578476:
 .byte   N32 ,Gs2 ,v092
 .byte   W36
 .byte   N56
 .byte   W60
 .byte   PEND 
@  #08 @002   ----------------------------------------
Label_0157847D:
 .byte   N32 ,Cs2 ,v092
 .byte   W36
 .byte   N56
 .byte   W60
 .byte   PEND 
@  #08 @003   ----------------------------------------
Label_01578484:
 .byte   N32 ,As2 ,v092
 .byte   W36
 .byte   N56
 .byte   W60
 .byte   PEND 
@  #08 @004   ----------------------------------------
 .byte   N32 ,Fn2
 .byte   W36
 .byte   N56
 .byte   W60
@  #08 @005   ----------------------------------------
 .byte   PATT
  .word Label_01578476
@  #08 @006   ----------------------------------------
 .byte   PATT
  .word Label_0157847D
@  #08 @007   ----------------------------------------
 .byte   PATT
  .word Label_01578484
@  #08 @008   ----------------------------------------
 .byte   N92 ,An2 ,v092
 .byte   W96
@  #08 @009   ----------------------------------------
 .byte   Fn3
 .byte   W96
@  #08 @010   ----------------------------------------
 .byte   Cs3
 .byte   W96
@  #08 @011   ----------------------------------------
 .byte   As2
 .byte   W96
@  #08 @012   ----------------------------------------
 .byte   TIE ,Fs2
 .byte   W96
@  #08 @013   ----------------------------------------
 .byte   W92
 .byte   W03
 .byte   EOT
 .byte   W01
@  #08 @014   ----------------------------------------
 .byte   TIE ,Gs2
 .byte   W96
@  #08 @015   ----------------------------------------
 .byte   W92
 .byte   W03
 .byte   EOT
 .byte   W01
@  #08 @016   ----------------------------------------
 .byte   N92 ,Gs2 ,v032
 .byte   W96
@  #08 @017   ----------------------------------------
 .byte   As2 ,v092
 .byte   W96
@  #08 @018   ----------------------------------------
 .byte   N92
 .byte   W96
@  #08 @019   ----------------------------------------
 .byte   Fs2
 .byte   W96
@  #08 @020   ----------------------------------------
 .byte   N92
 .byte   W96
@  #08 @021   ----------------------------------------
 .byte   As2
 .byte   W96
@  #08 @022   ----------------------------------------
 .byte   N92
 .byte   W96
@  #08 @023   ----------------------------------------
 .byte   Fs2
 .byte   W96
@  #08 @024   ----------------------------------------
 .byte   N92
 .byte   W96
@  #08 @025   ----------------------------------------
 .byte   Gs2
 .byte   W96
@  #08 @026   ----------------------------------------
 .byte   N92
 .byte   W96
@  #08 @027   ----------------------------------------
 .byte   As2
 .byte   W96
@  #08 @028   ----------------------------------------
 .byte   N92
 .byte   W96
@  #08 @029   ----------------------------------------
 .byte   Fs2
 .byte   W96
@  #08 @030   ----------------------------------------
 .byte   N92
 .byte   W96
@  #08 @031   ----------------------------------------
 .byte   Fn2
 .byte   W96
@  #08 @032   ----------------------------------------
 .byte   Gn2
 .byte   W96
@  #08 @033   ----------------------------------------
 .byte   TIE ,An2
 .byte   W96
@  #08 @034   ----------------------------------------
 .byte   W96
@  #08 @035   ----------------------------------------
 .byte   W92
 .byte   W03
 .byte   EOT
 .byte   W01
@  #08 @036   ----------------------------------------
 .byte   N92 ,As2
 .byte   W96
@  #08 @037   ----------------------------------------
 .byte   N92
 .byte   W96
@  #08 @038   ----------------------------------------
 .byte   Fs2
 .byte   W96
@  #08 @039   ----------------------------------------
 .byte   N92
 .byte   W96
@  #08 @040   ----------------------------------------
 .byte   As2
 .byte   W96
@  #08 @041   ----------------------------------------
 .byte   N92
 .byte   W96
@  #08 @042   ----------------------------------------
 .byte   Fs2
 .byte   W96
@  #08 @043   ----------------------------------------
 .byte   N92
 .byte   W96
@  #08 @044   ----------------------------------------
 .byte   An2
 .byte   W96
@  #08 @045   ----------------------------------------
 .byte   N92
 .byte   W96
@  #08 @046   ----------------------------------------
 .byte   Gn2
 .byte   W96
@  #08 @047   ----------------------------------------
 .byte   N92
 .byte   W96
@  #08 @048   ----------------------------------------
 .byte   Fn2
 .byte   W96
@  #08 @049   ----------------------------------------
 .byte   Gn2
 .byte   W96
@  #08 @050   ----------------------------------------
 .byte   An2
 .byte   W96
@  #08 @051   ----------------------------------------
 .byte   N92
 .byte   W96
@  #08 @052   ----------------------------------------
 .byte   N92
 .byte   W96
@  #08 @053   ----------------------------------------
 .byte   N92
 .byte   W96
@  #08 @054   ----------------------------------------
 .byte   Gn2
 .byte   W96
@  #08 @055   ----------------------------------------
 .byte   N92
 .byte   W96
@  #08 @056   ----------------------------------------
 .byte   Dn2
 .byte   W96
@  #08 @057   ----------------------------------------
 .byte   En2
 .byte   W96
@  #08 @058   ----------------------------------------
 .byte   TIE ,An2
 .byte   W96
@  #08 @059   ----------------------------------------
 .byte   W92
 .byte   W03
 .byte   EOT
 .byte   W01
@  #08 @060   ----------------------------------------
 .byte   W96
@  #08 @061   ----------------------------------------
 .byte   W96
@  #08 @062   ----------------------------------------
 .byte   W96
@  #08 @063   ----------------------------------------
 .byte   W96
@  #08 @064   ----------------------------------------
 .byte   W96
@  #08 @065   ----------------------------------------
 .byte   W96
@  #08 @066   ----------------------------------------
 .byte   W96
@  #08 @067   ----------------------------------------
 .byte   W96
@  #08 @068   ----------------------------------------
 .byte   N92 ,En2 ,v088
 .byte   W96
@  #08 @069   ----------------------------------------
Label_01578524:
 .byte   N32 ,Gn2 ,v088
 .byte   W36
 .byte   N23 ,Dn3
 .byte   W24
 .byte   Gn2
 .byte   W24
 .byte   N11 ,Dn2
 .byte   W12
 .byte   PEND 
@  #08 @070   ----------------------------------------
 .byte   PATT
  .word Label_01578524
@  #08 @071   ----------------------------------------
Label_01578536:
 .byte   N32 ,An2 ,v088
 .byte   W36
 .byte   N23 ,En3
 .byte   W24
 .byte   An2
 .byte   W24
 .byte   N11 ,En2
 .byte   W12
 .byte   PEND 
@  #08 @072   ----------------------------------------
 .byte   PATT
  .word Label_01578536
@  #08 @073   ----------------------------------------
 .byte   PATT
  .word Label_01578524
@  #08 @074   ----------------------------------------
 .byte   PATT
  .word Label_01578524
@  #08 @075   ----------------------------------------
 .byte   PATT
  .word Label_01578536
@  #08 @076   ----------------------------------------
 .byte   PATT
  .word Label_01578536
@  #08 @077   ----------------------------------------
 .byte   N32 ,As2 ,v088
 .byte   W36
 .byte   N23 ,Fn3
 .byte   W24
 .byte   As2
 .byte   W24
 .byte   N11 ,Fn2
 .byte   W12
@  #08 @078   ----------------------------------------
 .byte   N32 ,En2
 .byte   W36
 .byte   N23 ,En3
 .byte   W24
 .byte   En2
 .byte   W24
 .byte   N11
 .byte   W12
@  #08 @079   ----------------------------------------
 .byte   N32 ,An2
 .byte   W36
 .byte   N23 ,En3
 .byte   W24
 .byte   An2
 .byte   W24
 .byte   N11
 .byte   W12
@  #08 @080   ----------------------------------------
 .byte   N32 ,Dn3
 .byte   W36
 .byte   N23 ,An3
 .byte   W24
 .byte   Dn3
 .byte   W24
 .byte   N11 ,An2
 .byte   W12
@  #08 @081   ----------------------------------------
 .byte   N32 ,Fn3
 .byte   W36
 .byte   N23 ,Cn3
 .byte   W24
 .byte   Fn3
 .byte   W24
 .byte   N11 ,Cn3
 .byte   W12
@  #08 @082   ----------------------------------------
 .byte   N32 ,Gn3
 .byte   W36
 .byte   N23 ,Dn3
 .byte   W24
 .byte   Gn3
 .byte   W24
 .byte   N11 ,Dn3
 .byte   W12
@  #08 @083   ----------------------------------------
 .byte   PATT
  .word Label_01578536
@  #08 @084   ----------------------------------------
 .byte   PATT
  .word Label_01578536
@  #08 @085   ----------------------------------------
 .byte   N32 ,Fn2 ,v088
 .byte   W36
 .byte   N23 ,Cn3
 .byte   W24
 .byte   Fn2
 .byte   W24
 .byte   N11 ,Cn3
 .byte   W12
@  #08 @086   ----------------------------------------
 .byte   N32 ,Gn2
 .byte   W36
 .byte   N23 ,Dn3
 .byte   W24
 .byte   Gn2
 .byte   W24
 .byte   N11 ,Dn3
 .byte   W12
@  #08 @087   ----------------------------------------
 .byte   TIE ,An2
 .byte   W96
@  #08 @088   ----------------------------------------
 .byte   W96
@  #08 @089   ----------------------------------------
 .byte   GOTO
  .word Label_0157846A
@  #08 @090   ----------------------------------------
 .byte   W11
 .byte   EOT
 .byte   An2
 .byte   W84
 .byte   FINE

@**************** Track 9 (Midi-Chn.8) ****************@

song0185_009:
@  #09 @000   ----------------------------------------
 .byte   KEYSH , song0185_key+0
Label_015785DE:
 .byte   VOICE , 1
 .byte   VOL , 51*song0185_mvl/mxv
 .byte   PAN , c_v-54
 .byte   W96
@  #09 @001   ----------------------------------------
 .byte   W96
@  #09 @002   ----------------------------------------
 .byte   W96
@  #09 @003   ----------------------------------------
 .byte   W96
@  #09 @004   ----------------------------------------
 .byte   W96
@  #09 @005   ----------------------------------------
 .byte   W96
@  #09 @006   ----------------------------------------
 .byte   W96
@  #09 @007   ----------------------------------------
 .byte   W96
@  #09 @008   ----------------------------------------
 .byte   W96
@  #09 @009   ----------------------------------------
 .byte   W96
@  #09 @010   ----------------------------------------
 .byte   W96
@  #09 @011   ----------------------------------------
 .byte   W96
@  #09 @012   ----------------------------------------
 .byte   W96
@  #09 @013   ----------------------------------------
 .byte   W96
@  #09 @014   ----------------------------------------
 .byte   W96
@  #09 @015   ----------------------------------------
 .byte   W96
@  #09 @016   ----------------------------------------
 .byte   W96
@  #09 @017   ----------------------------------------
Label_015785F5:
 .byte   N80 ,As1 ,v088
 .byte   W12
 .byte   N23 ,Fn2
 .byte   W12
 .byte   N44 ,Gs2
 .byte   W12
 .byte   N23 ,Fn2
 .byte   W12
 .byte   Ds3
 .byte   W12
 .byte   Fn2
 .byte   W12
 .byte   Gs2
 .byte   W12
 .byte   N11 ,Fn2
 .byte   W12
 .byte   PEND 
@  #09 @018   ----------------------------------------
 .byte   PATT
  .word Label_015785F5
@  #09 @019   ----------------------------------------
Label_01578611:
 .byte   N80 ,Fs1 ,v088
 .byte   W12
 .byte   N23 ,Cs2
 .byte   W12
 .byte   N44 ,Fn2
 .byte   W12
 .byte   N23 ,Cs2
 .byte   W12
 .byte   As2
 .byte   W12
 .byte   Cs2
 .byte   W12
 .byte   Fn2
 .byte   W12
 .byte   N11 ,Cs2
 .byte   W12
 .byte   PEND 
@  #09 @020   ----------------------------------------
 .byte   PATT
  .word Label_01578611
@  #09 @021   ----------------------------------------
 .byte   PATT
  .word Label_015785F5
@  #09 @022   ----------------------------------------
 .byte   PATT
  .word Label_015785F5
@  #09 @023   ----------------------------------------
 .byte   PATT
  .word Label_01578611
@  #09 @024   ----------------------------------------
 .byte   PATT
  .word Label_01578611
@  #09 @025   ----------------------------------------
Label_01578641:
 .byte   N92 ,Gs1 ,v092
 .byte   W12
 .byte   N17 ,Fn2
 .byte   W12
 .byte   As2
 .byte   W12
 .byte   Fn2
 .byte   W12
 .byte   Ds3
 .byte   W12
 .byte   As2
 .byte   W12
 .byte   Fn2
 .byte   W12
 .byte   As2
 .byte   W12
 .byte   PEND 
@  #09 @026   ----------------------------------------
 .byte   PATT
  .word Label_01578641
@  #09 @027   ----------------------------------------
Label_0157865A:
 .byte   N92 ,As1 ,v092
 .byte   W12
 .byte   N17 ,Fn2
 .byte   W12
 .byte   Gs2
 .byte   W12
 .byte   Fn2
 .byte   W12
 .byte   Fn3
 .byte   W12
 .byte   Gs2
 .byte   W12
 .byte   Fn2
 .byte   W12
 .byte   Gs2
 .byte   W12
 .byte   PEND 
@  #09 @028   ----------------------------------------
 .byte   PATT
  .word Label_0157865A
@  #09 @029   ----------------------------------------
Label_01578673:
 .byte   N92 ,Fs1 ,v092
 .byte   W12
 .byte   N17 ,Cn2
 .byte   W12
 .byte   Fn2
 .byte   W12
 .byte   Cn2
 .byte   W12
 .byte   As2
 .byte   W12
 .byte   Fn2
 .byte   W12
 .byte   Cn2
 .byte   W12
 .byte   Fn2
 .byte   W12
 .byte   PEND 
@  #09 @030   ----------------------------------------
 .byte   PATT
  .word Label_01578673
@  #09 @031   ----------------------------------------
 .byte   N92 ,Fn1 ,v092
 .byte   W12
 .byte   N17 ,Cn2
 .byte   W12
 .byte   An2
 .byte   W12
 .byte   Cn2
 .byte   W24
 .byte   N17
 .byte   W12
 .byte   An2
 .byte   W12
 .byte   Cn2
 .byte   W12
@  #09 @032   ----------------------------------------
 .byte   N92 ,Gn1
 .byte   W12
 .byte   N17 ,Dn2
 .byte   W12
 .byte   Cn3
 .byte   W12
 .byte   Dn2
 .byte   W24
 .byte   N17
 .byte   W12
 .byte   Cn3
 .byte   W12
 .byte   Dn2
 .byte   W12
@  #09 @033   ----------------------------------------
 .byte   TIE ,An1
 .byte   TIE ,Gn2
 .byte   TIE ,Bn2
 .byte   TIE ,En3
 .byte   W96
@  #09 @034   ----------------------------------------
 .byte   W96
@  #09 @035   ----------------------------------------
 .byte   W88
 .byte   W01
 .byte   EOT
 .byte   An1 ,v055
 .byte   Bn2 ,v064
 .byte   W07
@  #09 @036   ----------------------------------------
 .byte   PATT
  .word Label_015785F5
@  #09 @037   ----------------------------------------
 .byte   PATT
  .word Label_015785F5
@  #09 @038   ----------------------------------------
 .byte   PATT
  .word Label_01578611
@  #09 @039   ----------------------------------------
 .byte   PATT
  .word Label_01578611
@  #09 @040   ----------------------------------------
 .byte   PATT
  .word Label_015785F5
@  #09 @041   ----------------------------------------
 .byte   PATT
  .word Label_015785F5
@  #09 @042   ----------------------------------------
 .byte   PATT
  .word Label_01578611
@  #09 @043   ----------------------------------------
 .byte   PATT
  .word Label_01578611
@  #09 @044   ----------------------------------------
Label_015786E7:
 .byte   N92 ,An1 ,v092
 .byte   W12
 .byte   N17 ,Gn2
 .byte   W12
 .byte   Bn2
 .byte   W12
 .byte   Gn2
 .byte   W12
 .byte   En3
 .byte   W12
 .byte   Bn2
 .byte   W12
 .byte   Gn2
 .byte   W12
 .byte   Bn2
 .byte   W12
 .byte   PEND 
@  #09 @045   ----------------------------------------
 .byte   PATT
  .word Label_015786E7
@  #09 @046   ----------------------------------------
Label_01578700:
 .byte   N92 ,Gn1 ,v092
 .byte   W12
 .byte   N17 ,Dn2
 .byte   W12
 .byte   Gn2
 .byte   W12
 .byte   Dn2
 .byte   W12
 .byte   Cn3
 .byte   W12
 .byte   Gn2
 .byte   W12
 .byte   Dn2
 .byte   W12
 .byte   Gn2
 .byte   W12
 .byte   PEND 
@  #09 @047   ----------------------------------------
Label_01578714:
 .byte   N92 ,Gn1 ,v092
 .byte   W12
 .byte   N17 ,Dn2
 .byte   W12
 .byte   Gn2
 .byte   W12
 .byte   Dn2
 .byte   W12
 .byte   Bn2
 .byte   W12
 .byte   Gn2
 .byte   W12
 .byte   Dn2
 .byte   W12
 .byte   Gn2
 .byte   W12
 .byte   PEND 
@  #09 @048   ----------------------------------------
 .byte   N92 ,Fn1
 .byte   W12
 .byte   N17 ,Cn2
 .byte   W12
 .byte   Gn2
 .byte   W12
 .byte   Dn2
 .byte   W12
 .byte   Dn3
 .byte   W12
 .byte   Gn2
 .byte   W12
 .byte   Dn2
 .byte   W12
 .byte   Gn2
 .byte   W12
@  #09 @049   ----------------------------------------
 .byte   PATT
  .word Label_01578714
@  #09 @050   ----------------------------------------
Label_0157873F:
 .byte   N92 ,An1 ,v092
 .byte   W12
 .byte   N17 ,En2
 .byte   W12
 .byte   Gn2
 .byte   W12
 .byte   En2
 .byte   W12
 .byte   Dn3
 .byte   W12
 .byte   Gn2
 .byte   W12
 .byte   En2
 .byte   W12
 .byte   Gn2
 .byte   W12
 .byte   PEND 
@  #09 @051   ----------------------------------------
 .byte   PATT
  .word Label_0157873F
@  #09 @052   ----------------------------------------
 .byte   PATT
  .word Label_015786E7
@  #09 @053   ----------------------------------------
 .byte   PATT
  .word Label_015786E7
@  #09 @054   ----------------------------------------
 .byte   PATT
  .word Label_01578700
@  #09 @055   ----------------------------------------
 .byte   PATT
  .word Label_01578714
@  #09 @056   ----------------------------------------
 .byte   N92 ,Dn2 ,v092
 .byte   W12
 .byte   N17 ,An2
 .byte   W12
 .byte   Dn3
 .byte   W12
 .byte   An2
 .byte   W12
 .byte   Fn3
 .byte   W12
 .byte   Dn3
 .byte   W12
 .byte   An2
 .byte   W12
 .byte   Dn3
 .byte   W12
@  #09 @057   ----------------------------------------
 .byte   N92 ,En2
 .byte   W12
 .byte   N17 ,Bn2
 .byte   W12
 .byte   Dn3
 .byte   W12
 .byte   Bn2
 .byte   W12
 .byte   Gn3
 .byte   W12
 .byte   Dn3
 .byte   W12
 .byte   Bn2
 .byte   W12
 .byte   Dn3
 .byte   W12
@  #09 @058   ----------------------------------------
 .byte   PATT
  .word Label_015786E7
@  #09 @059   ----------------------------------------
 .byte   N88 ,An1 ,v092
 .byte   W12
 .byte   N17 ,Gn2
 .byte   W12
 .byte   Cn3
 .byte   W12
 .byte   N32 ,En3
 .byte   W24
 .byte   N17 ,Cn3
 .byte   W12
 .byte   En3
 .byte   W12
 .byte   N11 ,An3
 .byte   W12
@  #09 @060   ----------------------------------------
 .byte   N92 ,Fn2
 .byte   N92 ,An2
 .byte   N92 ,En3 ,v084
 .byte   W96
@  #09 @061   ----------------------------------------
 .byte   En2 ,v092
 .byte   N92 ,Gn2
 .byte   N92 ,Dn3 ,v084
 .byte   W96
@  #09 @062   ----------------------------------------
 .byte   Dn2 ,v092
 .byte   N92 ,Fn2
 .byte   N92 ,Cn3 ,v084
 .byte   W96
@  #09 @063   ----------------------------------------
 .byte   Cn2 ,v092
 .byte   N92 ,En2
 .byte   N92 ,Bn2 ,v084
 .byte   W96
@  #09 @064   ----------------------------------------
 .byte   N44 ,Fn3 ,v092
 .byte   N92 ,An3
 .byte   N17 ,En4 ,v104
 .byte   W12
 .byte   Dn4 ,v100
 .byte   W12
 .byte   Cs4 ,v096
 .byte   W12
 .byte   N28 ,Dn4
 .byte   W24
 .byte   N17 ,Fn3 ,v092
 .byte   W12
 .byte   En3
 .byte   W12
 .byte   Dn3
 .byte   W12
@  #09 @065   ----------------------------------------
 .byte   N44 ,Ds3
 .byte   N92 ,Gn3
 .byte   N17 ,Dn4 ,v104
 .byte   W12
 .byte   Cn4 ,v100
 .byte   W12
 .byte   Bn3 ,v096
 .byte   W12
 .byte   N23 ,Cn4
 .byte   W24
 .byte   N17 ,Ds3 ,v092
 .byte   W12
 .byte   Dn3
 .byte   W12
 .byte   Cn3
 .byte   W12
@  #09 @066   ----------------------------------------
 .byte   N92 ,An2
 .byte   N56 ,Ds3
 .byte   N92 ,Fs3
 .byte   N17 ,Cn4 ,v104
 .byte   W12
 .byte   Bn3 ,v100
 .byte   W12
 .byte   As3 ,v096
 .byte   W12
 .byte   N23 ,Bn3
 .byte   W24
 .byte   N17 ,Ds3
 .byte   W12
 .byte   Dn3
 .byte   W12
 .byte   N11 ,Ds3
 .byte   W12
@  #09 @067   ----------------------------------------
 .byte   TIE ,En1 ,v092
 .byte   TIE ,En2
 .byte   TIE ,Gs2
 .byte   TIE ,Dn3
 .byte   TIE ,Fn3
 .byte   N17 ,Cn4 ,v104
 .byte   W12
 .byte   Bn3 ,v100
 .byte   W12
 .byte   As3 ,v096
 .byte   W12
 .byte   TIE ,Bn3
 .byte   W60
@  #09 @068   ----------------------------------------
 .byte   W64
 .byte   W01
 .byte   EOT
 .byte   W24
 .byte   EOT
 .byte   En1 ,v052
 .byte   Gs2 ,v062
 .byte   Fn3
 .byte   W07
@  #09 @069   ----------------------------------------
Label_0157883B:
 .byte   N92 ,Gn1 ,v092
 .byte   W12
 .byte   Dn2
 .byte   W12
 .byte   As2
 .byte   W12
 .byte   Fn3
 .byte   W60
 .byte   PEND 
@  #09 @070   ----------------------------------------
 .byte   PATT
  .word Label_0157883B
@  #09 @071   ----------------------------------------
Label_0157884B:
 .byte   N92 ,An1 ,v092
 .byte   W12
 .byte   En2
 .byte   W12
 .byte   Cn3
 .byte   W12
 .byte   Gn3
 .byte   W60
 .byte   PEND 
@  #09 @072   ----------------------------------------
 .byte   PATT
  .word Label_0157884B
@  #09 @073   ----------------------------------------
 .byte   PATT
  .word Label_0157883B
@  #09 @074   ----------------------------------------
 .byte   PATT
  .word Label_0157883B
@  #09 @075   ----------------------------------------
 .byte   PATT
  .word Label_0157884B
@  #09 @076   ----------------------------------------
 .byte   PATT
  .word Label_0157884B
@  #09 @077   ----------------------------------------
 .byte   N92 ,As1 ,v092
 .byte   W12
 .byte   Fn2 ,v088
 .byte   W12
 .byte   N32 ,Dn3
 .byte   W12
 .byte   N92 ,An3
 .byte   W24
 .byte   N44 ,Dn3
 .byte   W36
@  #09 @078   ----------------------------------------
 .byte   N92 ,Gs2 ,v092
 .byte   W12
 .byte   N44 ,Dn3 ,v088
 .byte   W12
 .byte   N68 ,Fn3
 .byte   W12
 .byte   N92 ,Bn3
 .byte   W24
 .byte   N11 ,Dn3
 .byte   W12
 .byte   Cn3 ,v080
 .byte   W12
 .byte   Dn3 ,v084
 .byte   W12
@  #09 @079   ----------------------------------------
 .byte   N92 ,An2 ,v092
 .byte   W12
 .byte   N44 ,En3 ,v088
 .byte   W12
 .byte   N80 ,Gn3
 .byte   W12
 .byte   N92 ,Cn4
 .byte   W24
 .byte   N56 ,En3
 .byte   W36
@  #09 @080   ----------------------------------------
 .byte   N92 ,Dn2 ,v092
 .byte   W12
 .byte   N68 ,An2 ,v088
 .byte   W12
 .byte   N32 ,Cn3
 .byte   W12
 .byte   N92 ,Fs3
 .byte   W24
 .byte   N32 ,Cn3 ,v084
 .byte   W24
 .byte   N23 ,An2
 .byte   W12
@  #09 @081   ----------------------------------------
Label_015788BC:
 .byte   N92 ,Fn2 ,v092
 .byte   W12
 .byte   Cn3 ,v088
 .byte   W12
 .byte   N32 ,En3
 .byte   W12
 .byte   N92 ,An3
 .byte   W24
 .byte   N56 ,En3 ,v084
 .byte   W36
 .byte   PEND 
@  #09 @082   ----------------------------------------
Label_015788CE:
 .byte   N92 ,Gn2 ,v092
 .byte   W12
 .byte   Dn3 ,v088
 .byte   W12
 .byte   N32 ,En3
 .byte   W12
 .byte   N92 ,Bn3
 .byte   W24
 .byte   N56 ,En3 ,v084
 .byte   W36
 .byte   PEND 
@  #09 @083   ----------------------------------------
Label_015788E0:
 .byte   N92 ,An1 ,v092
 .byte   W12
 .byte   En2 ,v088
 .byte   W12
 .byte   N32 ,Gn2
 .byte   W12
 .byte   N92 ,Dn3
 .byte   W24
 .byte   N56 ,Gn2 ,v084
 .byte   W36
 .byte   PEND 
@  #09 @084   ----------------------------------------
 .byte   N92 ,An1 ,v092
 .byte   W12
 .byte   En2 ,v088
 .byte   W12
 .byte   N32 ,Gn2
 .byte   W12
 .byte   N68 ,Cn3
 .byte   W24
 .byte   N32 ,Gn2 ,v084
 .byte   W36
@  #09 @085   ----------------------------------------
 .byte   PATT
  .word Label_015788BC
@  #09 @086   ----------------------------------------
 .byte   PATT
  .word Label_015788CE
@  #09 @087   ----------------------------------------
 .byte   PATT
  .word Label_015788E0
@  #09 @088   ----------------------------------------
 .byte   TIE ,An1 ,v092
 .byte   W12
 .byte   En2 ,v088
 .byte   W12
 .byte   Gn2
 .byte   W12
 .byte   Cn3
 .byte   W60
@  #09 @089   ----------------------------------------
 .byte   GOTO
  .word Label_015785DE
@  #09 @090   ----------------------------------------
 .byte   W80
 .byte   W03
 .byte   EOT
 .byte   An1 ,v052
 .byte   W12
 .byte   Gn2 ,v060
 .byte   FINE

@**************** Track 10 (Midi-Chn.9) ****************@

song0185_010:
@  #10 @000   ----------------------------------------
 .byte   KEYSH , song0185_key+0
Label_0157893E:
 .byte   VOICE , 124
 .byte   VOL , 55*song0185_mvl/mxv
 .byte   PAN , c_v+0
 .byte   VOL , 55*song0185_mvl/mxv
 .byte   PAN , c_v+0
 .byte   N11 ,Cn1 ,v112
 .byte   N11 ,Gs1 ,v080
 .byte   N11 ,Gs4 ,v072
 .byte   W12
 .byte   Gs1 ,v068
 .byte   N11 ,An3 ,v052
 .byte   W12
 .byte   Gs1 ,v080
 .byte   N11 ,An3 ,v052
 .byte   W12
 .byte   Cn1 ,v084
 .byte   N11 ,Gs1 ,v068
 .byte   N11 ,An3 ,v048
 .byte   W12
 .byte   Cn1 ,v112
 .byte   N11 ,Gs1 ,v080
 .byte   N11 ,An3 ,v048
 .byte   W12
 .byte   Gs1 ,v068
 .byte   N11 ,An3 ,v048
 .byte   W12
 .byte   Gs1 ,v080
 .byte   N11 ,Gs4 ,v076
 .byte   W12
 .byte   Cn1 ,v084
 .byte   N11 ,Gs1 ,v068
 .byte   N11 ,An3 ,v048
 .byte   W12
@  #10 @001   ----------------------------------------
Label_01578985:
 .byte   N11 ,Cn1 ,v112
 .byte   N11 ,Gs1 ,v080
 .byte   N11 ,An3 ,v072
 .byte   W12
 .byte   Gs1 ,v068
 .byte   N11 ,An3 ,v052
 .byte   W12
 .byte   Gs1 ,v080
 .byte   N11 ,An3 ,v052
 .byte   W12
 .byte   Cn1 ,v084
 .byte   N11 ,Gs1 ,v068
 .byte   N11 ,An3 ,v048
 .byte   W12
 .byte   Cn1 ,v112
 .byte   N11 ,Gs1 ,v080
 .byte   N11 ,An3 ,v048
 .byte   W12
 .byte   Gs1 ,v068
 .byte   N11 ,An3 ,v048
 .byte   W12
 .byte   Gs1 ,v080
 .byte   N11 ,Gs4 ,v076
 .byte   W12
 .byte   Cn1 ,v084
 .byte   N11 ,Gs1 ,v068
 .byte   N11 ,An3 ,v048
 .byte   W12
 .byte   PEND 
@  #10 @002   ----------------------------------------
 .byte   PATT
  .word Label_01578985
@  #10 @003   ----------------------------------------
 .byte   PATT
  .word Label_01578985
@  #10 @004   ----------------------------------------
 .byte   PATT
  .word Label_01578985
@  #10 @005   ----------------------------------------
 .byte   PATT
  .word Label_01578985
@  #10 @006   ----------------------------------------
 .byte   PATT
  .word Label_01578985
@  #10 @007   ----------------------------------------
 .byte   PATT
  .word Label_01578985
@  #10 @008   ----------------------------------------
 .byte   N11 ,Cn1 ,v112
 .byte   TIE ,Cs2 ,v084
 .byte   W96
@  #10 @009   ----------------------------------------
 .byte   W23
 .byte   EOT
 .byte   W72
 .byte   W01
@  #10 @010   ----------------------------------------
 .byte   W96
@  #10 @011   ----------------------------------------
 .byte   W96
@  #10 @012   ----------------------------------------
 .byte   W96
@  #10 @013   ----------------------------------------
 .byte   W96
@  #10 @014   ----------------------------------------
 .byte   W96
@  #10 @015   ----------------------------------------
 .byte   W96
@  #10 @016   ----------------------------------------
 .byte   W96
@  #10 @017   ----------------------------------------
Label_015789F3:
 .byte   N11 ,Cn1 ,v112
 .byte   N11 ,Gs1 ,v080
 .byte   N52 ,Cs2 ,v084
 .byte   N11 ,An3 ,v088
 .byte   W12
 .byte   Gs1 ,v068
 .byte   N11 ,An3
 .byte   W12
 .byte   Gs1 ,v080
 .byte   N11 ,An3 ,v064
 .byte   W12
 .byte   Cn1 ,v084
 .byte   N11 ,Gs1 ,v068
 .byte   N11 ,An3 ,v060
 .byte   W12
 .byte   Cn1 ,v112
 .byte   N11 ,Gs1 ,v080
 .byte   N11 ,An3 ,v060
 .byte   W12
 .byte   Gs1 ,v068
 .byte   N11 ,An3 ,v060
 .byte   W12
 .byte   Gs1 ,v080
 .byte   N11 ,Gs4 ,v092
 .byte   W12
 .byte   Cn1 ,v084
 .byte   N11 ,Gs1 ,v068
 .byte   N11 ,An3 ,v060
 .byte   W12
 .byte   PEND 
@  #10 @018   ----------------------------------------
Label_01578A33:
 .byte   N11 ,Cn1 ,v112
 .byte   N11 ,Gs1 ,v080
 .byte   N11 ,An3 ,v088
 .byte   W12
 .byte   Gs1 ,v068
 .byte   N11 ,An3
 .byte   W12
 .byte   Gs1 ,v080
 .byte   N11 ,An3 ,v064
 .byte   W12
 .byte   Cn1 ,v084
 .byte   N11 ,Gs1 ,v068
 .byte   N11 ,An3 ,v060
 .byte   W12
 .byte   Cn1 ,v112
 .byte   N11 ,Gs1 ,v080
 .byte   N11 ,An3 ,v060
 .byte   W12
 .byte   Gs1 ,v068
 .byte   N11 ,An3 ,v060
 .byte   W12
 .byte   Gs1 ,v080
 .byte   N11 ,Gs4 ,v092
 .byte   W12
 .byte   Cn1 ,v084
 .byte   N11 ,Gs1 ,v068
 .byte   N11 ,An3 ,v060
 .byte   W12
 .byte   PEND 
@  #10 @019   ----------------------------------------
 .byte   PATT
  .word Label_01578A33
@  #10 @020   ----------------------------------------
 .byte   PATT
  .word Label_01578A33
@  #10 @021   ----------------------------------------
 .byte   PATT
  .word Label_01578A33
@  #10 @022   ----------------------------------------
 .byte   PATT
  .word Label_01578A33
@  #10 @023   ----------------------------------------
 .byte   PATT
  .word Label_01578A33
@  #10 @024   ----------------------------------------
 .byte   PATT
  .word Label_01578A33
@  #10 @025   ----------------------------------------
 .byte   PATT
  .word Label_01578A33
@  #10 @026   ----------------------------------------
 .byte   PATT
  .word Label_01578A33
@  #10 @027   ----------------------------------------
 .byte   PATT
  .word Label_01578A33
@  #10 @028   ----------------------------------------
 .byte   PATT
  .word Label_01578A33
@  #10 @029   ----------------------------------------
 .byte   PATT
  .word Label_01578A33
@  #10 @030   ----------------------------------------
 .byte   PATT
  .word Label_01578A33
@  #10 @031   ----------------------------------------
 .byte   N11 ,Cn1 ,v112
 .byte   N52 ,Cs2 ,v084
 .byte   N11 ,An3 ,v088
 .byte   W12
 .byte   An3 ,v068
 .byte   W12
 .byte   An3 ,v064
 .byte   W12
 .byte   Cn1 ,v084
 .byte   N11 ,An3 ,v060
 .byte   W12
 .byte   Cn1 ,v112
 .byte   N11 ,An3 ,v060
 .byte   W12
 .byte   N11
 .byte   W12
 .byte   Gs4 ,v092
 .byte   W12
 .byte   An3 ,v060
 .byte   W12
@  #10 @032   ----------------------------------------
 .byte   Cn1 ,v112
 .byte   N11 ,An3 ,v088
 .byte   W12
 .byte   An3 ,v068
 .byte   W12
 .byte   An3 ,v064
 .byte   W12
 .byte   Cn1 ,v084
 .byte   N11 ,An3 ,v060
 .byte   W12
 .byte   Cn1 ,v112
 .byte   N11 ,An3 ,v060
 .byte   W12
 .byte   N11
 .byte   W12
 .byte   Gs4 ,v092
 .byte   W12
 .byte   Cn1 ,v084
 .byte   N11 ,An3 ,v060
 .byte   W12
@  #10 @033   ----------------------------------------
Label_01578AF3:
 .byte   N11 ,Cn1 ,v112
 .byte   N52 ,Cs2 ,v084
 .byte   W96
 .byte   PEND 
@  #10 @034   ----------------------------------------
 .byte   W96
@  #10 @035   ----------------------------------------
 .byte   W96
@  #10 @036   ----------------------------------------
 .byte   PATT
  .word Label_015789F3
@  #10 @037   ----------------------------------------
 .byte   PATT
  .word Label_01578A33
@  #10 @038   ----------------------------------------
 .byte   PATT
  .word Label_01578A33
@  #10 @039   ----------------------------------------
 .byte   PATT
  .word Label_01578A33
@  #10 @040   ----------------------------------------
 .byte   PATT
  .word Label_01578A33
@  #10 @041   ----------------------------------------
 .byte   PATT
  .word Label_01578A33
@  #10 @042   ----------------------------------------
 .byte   PATT
  .word Label_01578A33
@  #10 @043   ----------------------------------------
 .byte   PATT
  .word Label_01578A33
@  #10 @044   ----------------------------------------
 .byte   PATT
  .word Label_01578A33
@  #10 @045   ----------------------------------------
 .byte   PATT
  .word Label_01578A33
@  #10 @046   ----------------------------------------
 .byte   PATT
  .word Label_01578A33
@  #10 @047   ----------------------------------------
 .byte   PATT
  .word Label_01578A33
@  #10 @048   ----------------------------------------
 .byte   PATT
  .word Label_01578A33
@  #10 @049   ----------------------------------------
 .byte   PATT
  .word Label_01578A33
@  #10 @050   ----------------------------------------
 .byte   PATT
  .word Label_01578A33
@  #10 @051   ----------------------------------------
 .byte   PATT
  .word Label_01578A33
@  #10 @052   ----------------------------------------
 .byte   PATT
  .word Label_01578A33
@  #10 @053   ----------------------------------------
 .byte   PATT
  .word Label_01578A33
@  #10 @054   ----------------------------------------
 .byte   PATT
  .word Label_01578A33
@  #10 @055   ----------------------------------------
 .byte   PATT
  .word Label_01578A33
@  #10 @056   ----------------------------------------
 .byte   PATT
  .word Label_01578A33
@  #10 @057   ----------------------------------------
 .byte   PATT
  .word Label_01578A33
@  #10 @058   ----------------------------------------
 .byte   PATT
  .word Label_01578AF3
@  #10 @059   ----------------------------------------
 .byte   W96
@  #10 @060   ----------------------------------------
 .byte   W96
@  #10 @061   ----------------------------------------
 .byte   W96
@  #10 @062   ----------------------------------------
 .byte   W96
@  #10 @063   ----------------------------------------
 .byte   W96
@  #10 @064   ----------------------------------------
 .byte   W96
@  #10 @065   ----------------------------------------
 .byte   W96
@  #10 @066   ----------------------------------------
 .byte   W96
@  #10 @067   ----------------------------------------
 .byte   W96
@  #10 @068   ----------------------------------------
 .byte   W96
@  #10 @069   ----------------------------------------
 .byte   PATT
  .word Label_01578A33
@  #10 @070   ----------------------------------------
 .byte   PATT
  .word Label_01578A33
@  #10 @071   ----------------------------------------
 .byte   PATT
  .word Label_01578A33
@  #10 @072   ----------------------------------------
 .byte   PATT
  .word Label_01578A33
@  #10 @073   ----------------------------------------
 .byte   PATT
  .word Label_01578A33
@  #10 @074   ----------------------------------------
 .byte   PATT
  .word Label_01578A33
@  #10 @075   ----------------------------------------
 .byte   PATT
  .word Label_01578A33
@  #10 @076   ----------------------------------------
 .byte   PATT
  .word Label_01578A33
@  #10 @077   ----------------------------------------
 .byte   PATT
  .word Label_01578A33
@  #10 @078   ----------------------------------------
 .byte   PATT
  .word Label_01578A33
@  #10 @079   ----------------------------------------
 .byte   PATT
  .word Label_01578A33
@  #10 @080   ----------------------------------------
 .byte   PATT
  .word Label_01578A33
@  #10 @081   ----------------------------------------
 .byte   PATT
  .word Label_01578A33
@  #10 @082   ----------------------------------------
 .byte   PATT
  .word Label_01578A33
@  #10 @083   ----------------------------------------
 .byte   PATT
  .word Label_01578A33
@  #10 @084   ----------------------------------------
 .byte   PATT
  .word Label_01578A33
@  #10 @085   ----------------------------------------
 .byte   PATT
  .word Label_01578A33
@  #10 @086   ----------------------------------------
 .byte   PATT
  .word Label_01578A33
@  #10 @087   ----------------------------------------
 .byte   PATT
  .word Label_01578AF3
@  #10 @088   ----------------------------------------
 .byte   W96
@  #10 @089   ----------------------------------------
 .byte   GOTO
  .word Label_0157893E
@  #10 @090   ----------------------------------------
 .byte   W92
 .byte   W03
 .byte   FINE

@**************** Track 11 (Midi-Chn.10) ****************@

song0185_011:
@  #11 @000   ----------------------------------------
 .byte   KEYSH , song0185_key+0
Label_01578BF6:
 .byte   VOICE , 1
 .byte   VOL , 25*song0185_mvl/mxv
 .byte   PAN , c_v+61
 .byte   W12
 .byte   BEND , c_v+0
 .byte   N92 ,Gs3 ,v084
 .byte   W06
 .byte   BEND , c_v+0
 .byte   W78
@  #11 @001   ----------------------------------------
Label_01578C06:
 .byte   W12
 .byte   N68 ,Gn3 ,v084
 .byte   W72
 .byte   N23 ,Gs3
 .byte   W12
 .byte   PEND 
@  #11 @002   ----------------------------------------
 .byte   W12
 .byte   N92 ,Gn3
 .byte   W84
@  #11 @003   ----------------------------------------
 .byte   W12
 .byte   N68 ,Fn3
 .byte   W72
 .byte   N11
 .byte   W12
@  #11 @004   ----------------------------------------
 .byte   Gn3
 .byte   W12
 .byte   N92 ,Gs3
 .byte   W84
@  #11 @005   ----------------------------------------
 .byte   PATT
  .word Label_01578C06
@  #11 @006   ----------------------------------------
 .byte   W12
 .byte   N92 ,Gn3 ,v084
 .byte   W84
@  #11 @007   ----------------------------------------
 .byte   W12
 .byte   Fn3
 .byte   W84
@  #11 @008   ----------------------------------------
 .byte   W96
@  #11 @009   ----------------------------------------
 .byte   W96
@  #11 @010   ----------------------------------------
 .byte   W96
@  #11 @011   ----------------------------------------
 .byte   W96
@  #11 @012   ----------------------------------------
 .byte   W96
@  #11 @013   ----------------------------------------
 .byte   W96
@  #11 @014   ----------------------------------------
 .byte   W96
@  #11 @015   ----------------------------------------
 .byte   W96
@  #11 @016   ----------------------------------------
 .byte   W96
@  #11 @017   ----------------------------------------
 .byte   W96
@  #11 @018   ----------------------------------------
 .byte   W96
@  #11 @019   ----------------------------------------
 .byte   W96
@  #11 @020   ----------------------------------------
 .byte   W96
@  #11 @021   ----------------------------------------
 .byte   W96
@  #11 @022   ----------------------------------------
 .byte   W96
@  #11 @023   ----------------------------------------
 .byte   W96
@  #11 @024   ----------------------------------------
 .byte   W96
@  #11 @025   ----------------------------------------
 .byte   W96
@  #11 @026   ----------------------------------------
 .byte   W96
@  #11 @027   ----------------------------------------
 .byte   W96
@  #11 @028   ----------------------------------------
 .byte   W96
@  #11 @029   ----------------------------------------
 .byte   W96
@  #11 @030   ----------------------------------------
 .byte   W96
@  #11 @031   ----------------------------------------
 .byte   W96
@  #11 @032   ----------------------------------------
 .byte   W96
@  #11 @033   ----------------------------------------
 .byte   W96
@  #11 @034   ----------------------------------------
 .byte   W96
@  #11 @035   ----------------------------------------
 .byte   W96
@  #11 @036   ----------------------------------------
 .byte   W96
@  #11 @037   ----------------------------------------
 .byte   W96
@  #11 @038   ----------------------------------------
 .byte   W96
@  #11 @039   ----------------------------------------
 .byte   W96
@  #11 @040   ----------------------------------------
 .byte   W96
@  #11 @041   ----------------------------------------
 .byte   W96
@  #11 @042   ----------------------------------------
 .byte   W96
@  #11 @043   ----------------------------------------
 .byte   W96
@  #11 @044   ----------------------------------------
 .byte   W96
@  #11 @045   ----------------------------------------
 .byte   W96
@  #11 @046   ----------------------------------------
 .byte   W96
@  #11 @047   ----------------------------------------
 .byte   W96
@  #11 @048   ----------------------------------------
 .byte   W96
@  #11 @049   ----------------------------------------
 .byte   W96
@  #11 @050   ----------------------------------------
 .byte   W96
@  #11 @051   ----------------------------------------
 .byte   W96
@  #11 @052   ----------------------------------------
 .byte   W96
@  #11 @053   ----------------------------------------
 .byte   W96
@  #11 @054   ----------------------------------------
 .byte   W96
@  #11 @055   ----------------------------------------
 .byte   W96
@  #11 @056   ----------------------------------------
 .byte   W96
@  #11 @057   ----------------------------------------
 .byte   W96
@  #11 @058   ----------------------------------------
 .byte   W96
@  #11 @059   ----------------------------------------
 .byte   W96
@  #11 @060   ----------------------------------------
 .byte   W96
@  #11 @061   ----------------------------------------
 .byte   W96
@  #11 @062   ----------------------------------------
 .byte   W96
@  #11 @063   ----------------------------------------
 .byte   W96
@  #11 @064   ----------------------------------------
 .byte   W96
@  #11 @065   ----------------------------------------
 .byte   W96
@  #11 @066   ----------------------------------------
 .byte   W96
@  #11 @067   ----------------------------------------
 .byte   W96
@  #11 @068   ----------------------------------------
 .byte   W96
@  #11 @069   ----------------------------------------
 .byte   W96
@  #11 @070   ----------------------------------------
 .byte   W96
@  #11 @071   ----------------------------------------
 .byte   W96
@  #11 @072   ----------------------------------------
 .byte   W96
@  #11 @073   ----------------------------------------
 .byte   W96
@  #11 @074   ----------------------------------------
 .byte   W96
@  #11 @075   ----------------------------------------
 .byte   W96
@  #11 @076   ----------------------------------------
 .byte   W96
@  #11 @077   ----------------------------------------
 .byte   W96
@  #11 @078   ----------------------------------------
 .byte   W96
@  #11 @079   ----------------------------------------
 .byte   W96
@  #11 @080   ----------------------------------------
 .byte   W96
@  #11 @081   ----------------------------------------
 .byte   W96
@  #11 @082   ----------------------------------------
 .byte   W96
@  #11 @083   ----------------------------------------
 .byte   W96
@  #11 @084   ----------------------------------------
 .byte   W96
@  #11 @085   ----------------------------------------
 .byte   W96
@  #11 @086   ----------------------------------------
 .byte   W96
@  #11 @087   ----------------------------------------
 .byte   W96
@  #11 @088   ----------------------------------------
 .byte   W96
@  #11 @089   ----------------------------------------
 .byte   GOTO
  .word Label_01578BF6
@  #11 @090   ----------------------------------------
 .byte   W92
 .byte   W03
 .byte   FINE

@**************** Track 12 (Midi-Chn.11) ****************@

song0185_012:
@  #12 @000   ----------------------------------------
 .byte   KEYSH , song0185_key+0
Label_01578C96:
 .byte   VOICE , 1
 .byte   VOL , 17*song0185_mvl/mxv
 .byte   PAN , c_v+25
 .byte   W96
@  #12 @001   ----------------------------------------
 .byte   W96
@  #12 @002   ----------------------------------------
 .byte   W96
@  #12 @003   ----------------------------------------
 .byte   W96
@  #12 @004   ----------------------------------------
 .byte   W96
@  #12 @005   ----------------------------------------
 .byte   W96
@  #12 @006   ----------------------------------------
 .byte   W96
@  #12 @007   ----------------------------------------
 .byte   W96
@  #12 @008   ----------------------------------------
 .byte   W96
@  #12 @009   ----------------------------------------
 .byte   W96
@  #12 @010   ----------------------------------------
 .byte   W96
@  #12 @011   ----------------------------------------
 .byte   W96
@  #12 @012   ----------------------------------------
 .byte   W96
@  #12 @013   ----------------------------------------
 .byte   W96
@  #12 @014   ----------------------------------------
 .byte   W96
@  #12 @015   ----------------------------------------
 .byte   W96
@  #12 @016   ----------------------------------------
 .byte   W96
@  #12 @017   ----------------------------------------
 .byte   W06
 .byte   N11 ,Cn4 ,v008
 .byte   W12
 .byte   N44 ,Cn5 ,v088
 .byte   W48
 .byte   N23 ,As4
 .byte   W24
 .byte   N11 ,Gs4
 .byte   W06
@  #12 @018   ----------------------------------------
Label_01578CBC:
 .byte   W06
 .byte   N11 ,As4 ,v088
 .byte   W12
 .byte   N44 ,Fn4
 .byte   W48
 .byte   N23 ,Cn4
 .byte   W24
 .byte   N11 ,As3
 .byte   W06
 .byte   PEND 
@  #12 @019   ----------------------------------------
Label_01578CCB:
 .byte   W06
 .byte   N11 ,Fn4 ,v088
 .byte   W12
 .byte   N92 ,Cn4
 .byte   W78
 .byte   PEND 
@  #12 @020   ----------------------------------------
 .byte   W18
 .byte   N88 ,Fn3
 .byte   W78
@  #12 @021   ----------------------------------------
Label_01578CD8:
 .byte   W18
 .byte   N44 ,Cn5 ,v088
 .byte   W48
 .byte   N23 ,As4
 .byte   W24
 .byte   N11 ,Gs4
 .byte   W06
 .byte   PEND 
@  #12 @022   ----------------------------------------
 .byte   PATT
  .word Label_01578CBC
@  #12 @023   ----------------------------------------
 .byte   PATT
  .word Label_01578CCB
@  #12 @024   ----------------------------------------
 .byte   W18
 .byte   N44 ,Fn3 ,v088
 .byte   W48
 .byte   N23
 .byte   W24
 .byte   As3
 .byte   W06
@  #12 @025   ----------------------------------------
Label_01578CF7:
 .byte   W18
 .byte   N23 ,Fn3 ,v072
 .byte   N23 ,Cn4
 .byte   N23 ,Fn4
 .byte   W24
 .byte   Cn4
 .byte   N23 ,Fn4
 .byte   W24
 .byte   Cn4
 .byte   N23 ,Fn4
 .byte   W24
 .byte   Cn4
 .byte   N23 ,Fn4
 .byte   W06
 .byte   PEND 
@  #12 @026   ----------------------------------------
Label_01578D0D:
 .byte   W18
 .byte   N44 ,Fn3 ,v072
 .byte   N44 ,Cn4
 .byte   W48
 .byte   N23 ,Fn3
 .byte   W24
 .byte   Cn4
 .byte   W06
 .byte   PEND 
@  #12 @027   ----------------------------------------
 .byte   PATT
  .word Label_01578CF7
@  #12 @028   ----------------------------------------
 .byte   PATT
  .word Label_01578D0D
@  #12 @029   ----------------------------------------
 .byte   W18
 .byte   N23 ,Cn4 ,v072
 .byte   N23 ,Fn4
 .byte   W24
 .byte   Cn4
 .byte   N23 ,Fn4
 .byte   W24
 .byte   Cn4
 .byte   N23 ,Fn4
 .byte   W24
 .byte   Cn4
 .byte   N23 ,Fn4
 .byte   W06
@  #12 @030   ----------------------------------------
 .byte   W18
 .byte   N44 ,Fn3
 .byte   N44 ,Cn4
 .byte   W48
 .byte   N23 ,Fn3
 .byte   W24
 .byte   Gn3 ,v064
 .byte   W06
@  #12 @031   ----------------------------------------
 .byte   W18
 .byte   An3 ,v072
 .byte   W24
 .byte   N44 ,Dn4
 .byte   W48
 .byte   N23 ,An3
 .byte   W06
@  #12 @032   ----------------------------------------
 .byte   W18
 .byte   Gn3
 .byte   N23 ,Gn4
 .byte   W24
 .byte   N44 ,Dn4
 .byte   W48
 .byte   N23 ,Gn4
 .byte   W06
@  #12 @033   ----------------------------------------
 .byte   W18
 .byte   TIE ,Gn3
 .byte   TIE ,En4
 .byte   W78
@  #12 @034   ----------------------------------------
 .byte   W96
@  #12 @035   ----------------------------------------
 .byte   W88
 .byte   W01
 .byte   EOT
 .byte   Gn3 ,v076
 .byte   W01
 .byte   N23 ,Cn4 ,v060
 .byte   W06
@  #12 @036   ----------------------------------------
 .byte   PATT
  .word Label_01578CD8
@  #12 @037   ----------------------------------------
 .byte   PATT
  .word Label_01578CBC
@  #12 @038   ----------------------------------------
 .byte   PATT
  .word Label_01578CCB
@  #12 @039   ----------------------------------------
 .byte   W18
 .byte   N88 ,Fn3 ,v088
 .byte   W78
@  #12 @040   ----------------------------------------
 .byte   PATT
  .word Label_01578CD8
@  #12 @041   ----------------------------------------
 .byte   PATT
  .word Label_01578CBC
@  #12 @042   ----------------------------------------
 .byte   PATT
  .word Label_01578CCB
@  #12 @043   ----------------------------------------
 .byte   W18
 .byte   N44 ,Fn3 ,v088
 .byte   W48
 .byte   N23
 .byte   W24
 .byte   Cn4
 .byte   W06
@  #12 @044   ----------------------------------------
Label_01578D95:
 .byte   W18
 .byte   N23 ,Gn3 ,v072
 .byte   N23 ,Cn4
 .byte   N23 ,Gn4
 .byte   W24
 .byte   Cn4
 .byte   N23 ,Gn4
 .byte   W24
 .byte   Cn4
 .byte   N23 ,Gn4
 .byte   W24
 .byte   Cn4
 .byte   N23 ,Gn4
 .byte   W06
 .byte   PEND 
@  #12 @045   ----------------------------------------
Label_01578DAB:
 .byte   W18
 .byte   N44 ,Gn3 ,v072
 .byte   N44 ,Cn4
 .byte   W48
 .byte   N23 ,Gn3
 .byte   W24
 .byte   Cn4
 .byte   W06
 .byte   PEND 
@  #12 @046   ----------------------------------------
 .byte   PATT
  .word Label_01578D95
@  #12 @047   ----------------------------------------
Label_01578DBD:
 .byte   W18
 .byte   N44 ,Gn3 ,v072
 .byte   N44 ,Bn3
 .byte   W48
 .byte   N23 ,Gn3
 .byte   W24
 .byte   Bn3
 .byte   W06
 .byte   PEND 
@  #12 @048   ----------------------------------------
 .byte   W18
 .byte   Cn4
 .byte   W24
 .byte   Bn3
 .byte   W24
 .byte   Cn4
 .byte   W24
 .byte   Dn4
 .byte   W06
@  #12 @049   ----------------------------------------
 .byte   W18
 .byte   N23
 .byte   W24
 .byte   Cn4
 .byte   W24
 .byte   Dn4
 .byte   W24
 .byte   Bn3
 .byte   W06
@  #12 @050   ----------------------------------------
 .byte   W18
 .byte   N92
 .byte   W78
@  #12 @051   ----------------------------------------
 .byte   W18
 .byte   N44 ,Cn4
 .byte   W48
 .byte   N23 ,An3
 .byte   W24
 .byte   Cn4
 .byte   W06
@  #12 @052   ----------------------------------------
 .byte   PATT
  .word Label_01578D95
@  #12 @053   ----------------------------------------
 .byte   PATT
  .word Label_01578DAB
@  #12 @054   ----------------------------------------
 .byte   PATT
  .word Label_01578D95
@  #12 @055   ----------------------------------------
 .byte   PATT
  .word Label_01578DBD
@  #12 @056   ----------------------------------------
 .byte   W18
 .byte   N23 ,Dn4 ,v072
 .byte   N23 ,Bn4
 .byte   W24
 .byte   An4
 .byte   W24
 .byte   Fn3
 .byte   N23 ,Dn4
 .byte   W24
 .byte   An3
 .byte   W06
@  #12 @057   ----------------------------------------
 .byte   W18
 .byte   N44 ,Gn3
 .byte   N44 ,Bn3
 .byte   W48
 .byte   En4
 .byte   W30
@  #12 @058   ----------------------------------------
 .byte   W18
 .byte   An3
 .byte   N44 ,Bn3
 .byte   W48
 .byte   N88 ,Cn4
 .byte   W30
@  #12 @059   ----------------------------------------
 .byte   W96
@  #12 @060   ----------------------------------------
 .byte   W96
@  #12 @061   ----------------------------------------
 .byte   W96
@  #12 @062   ----------------------------------------
 .byte   W96
@  #12 @063   ----------------------------------------
 .byte   W96
@  #12 @064   ----------------------------------------
 .byte   W96
@  #12 @065   ----------------------------------------
 .byte   W96
@  #12 @066   ----------------------------------------
 .byte   W96
@  #12 @067   ----------------------------------------
 .byte   W96
@  #12 @068   ----------------------------------------
 .byte   W96
@  #12 @069   ----------------------------------------
 .byte   W96
@  #12 @070   ----------------------------------------
 .byte   W96
@  #12 @071   ----------------------------------------
 .byte   W96
@  #12 @072   ----------------------------------------
 .byte   W96
@  #12 @073   ----------------------------------------
 .byte   W96
@  #12 @074   ----------------------------------------
 .byte   W96
@  #12 @075   ----------------------------------------
 .byte   W96
@  #12 @076   ----------------------------------------
 .byte   W96
@  #12 @077   ----------------------------------------
 .byte   W96
@  #12 @078   ----------------------------------------
 .byte   W96
@  #12 @079   ----------------------------------------
 .byte   W96
@  #12 @080   ----------------------------------------
 .byte   W96
@  #12 @081   ----------------------------------------
 .byte   W96
@  #12 @082   ----------------------------------------
 .byte   W96
@  #12 @083   ----------------------------------------
 .byte   W96
@  #12 @084   ----------------------------------------
 .byte   W96
@  #12 @085   ----------------------------------------
 .byte   W96
@  #12 @086   ----------------------------------------
 .byte   W96
@  #12 @087   ----------------------------------------
 .byte   W96
@  #12 @088   ----------------------------------------
 .byte   W96
@  #12 @089   ----------------------------------------
 .byte   GOTO
  .word Label_01578C96
@  #12 @090   ----------------------------------------
 .byte   W92
 .byte   W03
 .byte   FINE

@**************** Track 13 (Midi-Chn.12) ****************@

song0185_013:
@  #13 @000   ----------------------------------------
 .byte   KEYSH , song0185_key+0
Label_01578E56:
 .byte   VOICE , 8
 .byte   VOL , 34*song0185_mvl/mxv
 .byte   PAN , c_v+0
 .byte   N92 ,Fn2 ,v100
 .byte   N92 ,Cn3
 .byte   W96
@  #13 @001   ----------------------------------------
 .byte   Fn2
 .byte   N92 ,Cn3
 .byte   W96
@  #13 @002   ----------------------------------------
 .byte   Fn2
 .byte   N92 ,Cn3
 .byte   W96
@  #13 @003   ----------------------------------------
 .byte   Fn2
 .byte   N92 ,As2
 .byte   W96
@  #13 @004   ----------------------------------------
 .byte   Fn2
 .byte   N92 ,Cn3
 .byte   W96
@  #13 @005   ----------------------------------------
 .byte   Fn2
 .byte   N92 ,Cn3
 .byte   W96
@  #13 @006   ----------------------------------------
 .byte   Fn2
 .byte   N92 ,Cn3
 .byte   W96
@  #13 @007   ----------------------------------------
 .byte   Fn2
 .byte   N92 ,As2
 .byte   W96
@  #13 @008   ----------------------------------------
 .byte   En2 ,v112
 .byte   N92 ,Bn2
 .byte   N92 ,Gn3
 .byte   W96
@  #13 @009   ----------------------------------------
 .byte   Gs2
 .byte   N92 ,Cn3
 .byte   N92 ,Gn3
 .byte   W96
@  #13 @010   ----------------------------------------
 .byte   Gs2
 .byte   N92 ,Cn3
 .byte   N92 ,Fn3
 .byte   W96
@  #13 @011   ----------------------------------------
 .byte   Gs2
 .byte   N92 ,Cs3
 .byte   N92 ,Fn3
 .byte   W96
@  #13 @012   ----------------------------------------
 .byte   As2
 .byte   TIE ,Cn3
 .byte   TIE ,Fn3
 .byte   W96
@  #13 @013   ----------------------------------------
 .byte   N92 ,As3
 .byte   W92
 .byte   W03
 .byte   EOT
 .byte   Cn3 ,v065
 .byte   W01
@  #13 @014   ----------------------------------------
 .byte   TIE ,Fn2
 .byte   TIE ,Cn3
 .byte   TIE ,Fn3
 .byte   W96
@  #13 @015   ----------------------------------------
 .byte   W92
 .byte   W03
 .byte   EOT
 .byte   Fn2 ,v060
 .byte   Fn3
 .byte   W01
@  #13 @016   ----------------------------------------
 .byte   W96
@  #13 @017   ----------------------------------------
 .byte   W96
@  #13 @018   ----------------------------------------
 .byte   W96
@  #13 @019   ----------------------------------------
 .byte   W96
@  #13 @020   ----------------------------------------
 .byte   W96
@  #13 @021   ----------------------------------------
 .byte   W96
@  #13 @022   ----------------------------------------
 .byte   W96
@  #13 @023   ----------------------------------------
 .byte   W96
@  #13 @024   ----------------------------------------
 .byte   W96
@  #13 @025   ----------------------------------------
 .byte   W96
@  #13 @026   ----------------------------------------
 .byte   W96
@  #13 @027   ----------------------------------------
 .byte   W96
@  #13 @028   ----------------------------------------
 .byte   W96
@  #13 @029   ----------------------------------------
 .byte   W96
@  #13 @030   ----------------------------------------
 .byte   W96
@  #13 @031   ----------------------------------------
 .byte   W96
@  #13 @032   ----------------------------------------
 .byte   W96
@  #13 @033   ----------------------------------------
 .byte   W96
@  #13 @034   ----------------------------------------
 .byte   W96
@  #13 @035   ----------------------------------------
 .byte   W96
@  #13 @036   ----------------------------------------
 .byte   W96
@  #13 @037   ----------------------------------------
 .byte   W96
@  #13 @038   ----------------------------------------
 .byte   W96
@  #13 @039   ----------------------------------------
 .byte   W96
@  #13 @040   ----------------------------------------
 .byte   W96
@  #13 @041   ----------------------------------------
 .byte   W96
@  #13 @042   ----------------------------------------
 .byte   W96
@  #13 @043   ----------------------------------------
 .byte   W96
@  #13 @044   ----------------------------------------
 .byte   W96
@  #13 @045   ----------------------------------------
 .byte   W96
@  #13 @046   ----------------------------------------
 .byte   W96
@  #13 @047   ----------------------------------------
 .byte   W96
@  #13 @048   ----------------------------------------
 .byte   W96
@  #13 @049   ----------------------------------------
 .byte   W96
@  #13 @050   ----------------------------------------
 .byte   W96
@  #13 @051   ----------------------------------------
 .byte   W96
@  #13 @052   ----------------------------------------
 .byte   W96
@  #13 @053   ----------------------------------------
 .byte   W96
@  #13 @054   ----------------------------------------
 .byte   W96
@  #13 @055   ----------------------------------------
 .byte   W96
@  #13 @056   ----------------------------------------
 .byte   W96
@  #13 @057   ----------------------------------------
 .byte   W96
@  #13 @058   ----------------------------------------
 .byte   W96
@  #13 @059   ----------------------------------------
 .byte   W96
@  #13 @060   ----------------------------------------
 .byte   W96
@  #13 @061   ----------------------------------------
 .byte   W96
@  #13 @062   ----------------------------------------
 .byte   W96
@  #13 @063   ----------------------------------------
 .byte   W96
@  #13 @064   ----------------------------------------
 .byte   W96
@  #13 @065   ----------------------------------------
 .byte   W96
@  #13 @066   ----------------------------------------
 .byte   W96
@  #13 @067   ----------------------------------------
 .byte   W96
@  #13 @068   ----------------------------------------
 .byte   W96
@  #13 @069   ----------------------------------------
 .byte   W96
@  #13 @070   ----------------------------------------
 .byte   W96
@  #13 @071   ----------------------------------------
 .byte   W96
@  #13 @072   ----------------------------------------
 .byte   W96
@  #13 @073   ----------------------------------------
 .byte   W96
@  #13 @074   ----------------------------------------
 .byte   W96
@  #13 @075   ----------------------------------------
 .byte   W96
@  #13 @076   ----------------------------------------
 .byte   W96
@  #13 @077   ----------------------------------------
 .byte   W96
@  #13 @078   ----------------------------------------
 .byte   W96
@  #13 @079   ----------------------------------------
 .byte   W96
@  #13 @080   ----------------------------------------
 .byte   W96
@  #13 @081   ----------------------------------------
 .byte   W96
@  #13 @082   ----------------------------------------
 .byte   W96
@  #13 @083   ----------------------------------------
 .byte   W96
@  #13 @084   ----------------------------------------
 .byte   W96
@  #13 @085   ----------------------------------------
 .byte   W96
@  #13 @086   ----------------------------------------
 .byte   W96
@  #13 @087   ----------------------------------------
 .byte   W96
@  #13 @088   ----------------------------------------
 .byte   W96
@  #13 @089   ----------------------------------------
 .byte   GOTO
  .word Label_01578E56
@  #13 @090   ----------------------------------------
 .byte   W92
 .byte   W03
 .byte   FINE

@**************** Track 14 (Midi-Chn.13) ****************@

song0185_014:
@  #14 @000   ----------------------------------------
 .byte   KEYSH , song0185_key+0
Label_01578F16:
 .byte   VOICE , 74
 .byte   VOL , 45*song0185_mvl/mxv
 .byte   PAN , c_v+0
 .byte   W96
@  #14 @001   ----------------------------------------
 .byte   W96
@  #14 @002   ----------------------------------------
 .byte   W96
@  #14 @003   ----------------------------------------
 .byte   W96
@  #14 @004   ----------------------------------------
 .byte   W96
@  #14 @005   ----------------------------------------
 .byte   W96
@  #14 @006   ----------------------------------------
 .byte   W96
@  #14 @007   ----------------------------------------
 .byte   W96
@  #14 @008   ----------------------------------------
 .byte   BEND , c_v+0
 .byte   W24
 .byte   W12
 .byte   N14 ,En3 ,v108
 .byte   W12
 .byte   N76 ,Bn3
 .byte   W10
 .byte   MOD 3
 .byte   W02
 .byte   MOD 4
 .byte   W01
 .byte   MOD 5
 .byte   W01
 .byte   MOD 6
 .byte   W01
 .byte   MOD 8
 .byte   W01
 .byte   MOD 12
 .byte   W01
 .byte   MOD 13
 .byte   W01
 .byte   MOD 14
 .byte   W01
 .byte   MOD 15
 .byte   W01
 .byte   MOD 16
 .byte   W01
 .byte   MOD 20
 .byte   W01
 .byte   MOD 21
 .byte   W01
 .byte   MOD 22
 .byte   W01
 .byte   MOD 23
 .byte   W01
 .byte   MOD 24
 .byte   W01
 .byte   MOD 28
 .byte   W01
 .byte   MOD 29
 .byte   W01
 .byte   MOD 30
 .byte   W01
 .byte   MOD 31
 .byte   W01
 .byte   MOD 32
 .byte   W01
 .byte   MOD 34
 .byte   W01
 .byte   MOD 35
 .byte   W01
 .byte   MOD 37
 .byte   W01
 .byte   MOD 38
 .byte   W01
 .byte   MOD 43
 .byte   W01
 .byte   MOD 44
 .byte   W01
 .byte   MOD 45
 .byte   W01
 .byte   MOD 47
 .byte   W02
 .byte   MOD 51
 .byte   W01
 .byte   MOD 52
 .byte   W01
 .byte   MOD 54
 .byte   W01
 .byte   MOD 55
 .byte   W01
 .byte   MOD 56
 .byte   W01
 .byte   MOD 57
 .byte   W02
 .byte   MOD 58
 .byte   W01
@  #14 @009   ----------------------------------------
 .byte   W20
 .byte   MOD 54
 .byte   W01
 .byte   MOD 53
 .byte   W01
 .byte   MOD 52
 .byte   W01
 .byte   MOD 48
 .byte   W01
 .byte   MOD 43
 .byte   W01
 .byte   MOD 38
 .byte   W01
 .byte   MOD 31
 .byte   W01
 .byte   MOD 22
 .byte   W01
 .byte   MOD 10
 .byte   W01
 .byte   MOD 0
 .byte   W07
 .byte   N12 ,Cn4 ,v116
 .byte   W12
 .byte   N72 ,Gn3
 .byte   W10
 .byte   MOD 2
 .byte   W01
 .byte   MOD 3
 .byte   W01
 .byte   MOD 4
 .byte   W02
 .byte   MOD 6
 .byte   W01
 .byte   MOD 7
 .byte   W01
 .byte   MOD 8
 .byte   W01
 .byte   MOD 10
 .byte   W01
 .byte   MOD 11
 .byte   W01
 .byte   MOD 12
 .byte   W01
 .byte   MOD 14
 .byte   W01
 .byte   MOD 16
 .byte   W01
 .byte   MOD 17
 .byte   W01
 .byte   MOD 20
 .byte   W01
 .byte   MOD 21
 .byte   W01
 .byte   MOD 23
 .byte   W01
 .byte   MOD 27
 .byte   W01
 .byte   MOD 28
 .byte   W01
 .byte   MOD 29
 .byte   W01
 .byte   MOD 30
 .byte   W01
 .byte   MOD 32
 .byte   W01
 .byte   MOD 35
 .byte   W01
 .byte   MOD 36
 .byte   W02
 .byte   MOD 37
 .byte   W01
 .byte   MOD 38
 .byte   W01
 .byte   MOD 39
 .byte   W01
 .byte   MOD 40
 .byte   W01
 .byte   MOD 42
 .byte   W01
 .byte   MOD 43
 .byte   W01
 .byte   MOD 44
 .byte   W01
 .byte   MOD 45
 .byte   W01
 .byte   MOD 46
 .byte   W01
 .byte   MOD 47
 .byte   W01
 .byte   MOD 48
 .byte   W01
 .byte   MOD 49
 .byte   W02
 .byte   MOD 50
 .byte   W01
@  #14 @010   ----------------------------------------
 .byte   MOD 51
 .byte   W02
 .byte   MOD 52
 .byte   W02
 .byte   MOD 53
 .byte   W02
 .byte   MOD 54
 .byte   W02
 .byte   MOD 55
 .byte   W01
 .byte   MOD 56
 .byte   W01
 .byte   MOD 57
 .byte   W01
 .byte   MOD 58
 .byte   W01
 .byte   MOD 59
 .byte   W02
 .byte   MOD 60
 .byte   W01
 .byte   MOD 61
 .byte   W01
 .byte   MOD 62
 .byte   W01
 .byte   MOD 63
 .byte   W02
 .byte   MOD 64
 .byte   W04
 .byte   MOD 65
 .byte   W09
 .byte   MOD 59
 .byte   W01
 .byte   MOD 45
 .byte   W01
 .byte   MOD 6
 .byte   W01
 .byte   MOD 0
 .byte   W01
 .byte   N14 ,Fn3
 .byte   W12
 .byte   MOD 3
 .byte   N72 ,Cn4
 .byte   W02
 .byte   MOD 4
 .byte   W01
 .byte   MOD 5
 .byte   W02
 .byte   MOD 6
 .byte   W03
 .byte   MOD 7
 .byte   W02
 .byte   MOD 8
 .byte   W01
 .byte   MOD 9
 .byte   W01
 .byte   MOD 10
 .byte   W01
 .byte   MOD 12
 .byte   W01
 .byte   MOD 13
 .byte   W01
 .byte   MOD 14
 .byte   W01
 .byte   MOD 16
 .byte   W01
 .byte   MOD 17
 .byte   W01
 .byte   MOD 18
 .byte   W01
 .byte   MOD 19
 .byte   W02
 .byte   MOD 20
 .byte   W01
 .byte   MOD 21
 .byte   W01
 .byte   MOD 22
 .byte   W02
 .byte   MOD 23
 .byte   W01
 .byte   MOD 24
 .byte   W01
 .byte   MOD 25
 .byte   W01
 .byte   MOD 26
 .byte   W01
 .byte   MOD 27
 .byte   W01
 .byte   MOD 28
 .byte   W01
 .byte   MOD 29
 .byte   W01
 .byte   MOD 30
 .byte   W01
 .byte   MOD 34
 .byte   W01
 .byte   MOD 35
 .byte   W02
 .byte   MOD 37
 .byte   W01
 .byte   MOD 38
 .byte   W01
 .byte   MOD 39
 .byte   W01
 .byte   MOD 40
 .byte   W02
 .byte   MOD 41
 .byte   W01
 .byte   MOD 43
 .byte   W01
 .byte   MOD 44
 .byte   W01
 .byte   MOD 45
 .byte   W01
 .byte   MOD 46
 .byte   W01
 .byte   MOD 47
 .byte   W02
@  #14 @011   ----------------------------------------
 .byte   MOD 48
 .byte   W02
 .byte   MOD 49
 .byte   W03
 .byte   MOD 50
 .byte   W02
 .byte   MOD 51
 .byte   W02
 .byte   MOD 52
 .byte   W03
 .byte   MOD 53
 .byte   W02
 .byte   MOD 54
 .byte   W02
 .byte   MOD 55
 .byte   W02
 .byte   MOD 56
 .byte   W04
 .byte   MOD 57
 .byte   W04
 .byte   MOD 45
 .byte   W01
 .byte   MOD 0
 .byte   W09
 .byte   N14 ,Fn4
 .byte   W12
 .byte   N76 ,As3
 .byte   W14
 .byte   MOD 1
 .byte   W01
 .byte   MOD 3
 .byte   W01
 .byte   MOD 4
 .byte   W01
 .byte   MOD 5
 .byte   W01
 .byte   MOD 6
 .byte   W01
 .byte   MOD 7
 .byte   W01
 .byte   MOD 8
 .byte   W01
 .byte   MOD 9
 .byte   W01
 .byte   MOD 11
 .byte   W01
 .byte   MOD 12
 .byte   W01
 .byte   MOD 13
 .byte   W02
 .byte   MOD 15
 .byte   W01
 .byte   MOD 16
 .byte   W01
 .byte   MOD 17
 .byte   W01
 .byte   MOD 18
 .byte   W01
 .byte   MOD 22
 .byte   W01
 .byte   MOD 23
 .byte   W01
 .byte   MOD 24
 .byte   W01
 .byte   MOD 25
 .byte   W01
 .byte   MOD 27
 .byte   W01
 .byte   MOD 28
 .byte   W01
 .byte   MOD 29
 .byte   W01
 .byte   MOD 30
 .byte   W01
 .byte   MOD 31
 .byte   W01
 .byte   MOD 32
 .byte   W01
 .byte   MOD 33
 .byte   W01
 .byte   MOD 34
 .byte   W01
 .byte   MOD 35
 .byte   W01
 .byte   MOD 37
 .byte   W01
 .byte   MOD 38
 .byte   W01
 .byte   MOD 39
 .byte   W01
 .byte   MOD 40
 .byte   W02
@  #14 @012   ----------------------------------------
 .byte   MOD 41
 .byte   W03
 .byte   MOD 42
 .byte   W04
 .byte   MOD 43
 .byte   W02
 .byte   MOD 44
 .byte   W01
 .byte   MOD 45
 .byte   W01
 .byte   MOD 46
 .byte   W01
 .byte   MOD 47
 .byte   W01
 .byte   MOD 48
 .byte   W01
 .byte   MOD 50
 .byte   W01
 .byte   MOD 51
 .byte   W01
 .byte   MOD 52
 .byte   W01
 .byte   MOD 53
 .byte   W01
 .byte   MOD 54
 .byte   W02
 .byte   MOD 55
 .byte   W01
 .byte   MOD 56
 .byte   W03
 .byte   MOD 57
 .byte   W04
 .byte   MOD 58
 .byte   W06
 .byte   MOD 51
 .byte   W01
 .byte   MOD 27
 .byte   W01
 .byte   MOD 11
 .byte   N14 ,Cn4
 .byte   W01
 .byte   MOD 0
 .byte   W11
 .byte   N76 ,Fn4 ,v120
 .byte   W14
 .byte   MOD 2
 .byte   W01
 .byte   MOD 3
 .byte   W01
 .byte   MOD 4
 .byte   W01
 .byte   MOD 5
 .byte   W01
 .byte   MOD 6
 .byte   W01
 .byte   MOD 7
 .byte   W01
 .byte   MOD 9
 .byte   W01
 .byte   MOD 10
 .byte   W01
 .byte   MOD 11
 .byte   W01
 .byte   MOD 12
 .byte   W01
 .byte   MOD 13
 .byte   W01
 .byte   MOD 14
 .byte   W01
 .byte   MOD 15
 .byte   W02
 .byte   MOD 16
 .byte   W01
 .byte   MOD 17
 .byte   W01
 .byte   MOD 18
 .byte   W01
 .byte   MOD 19
 .byte   W01
 .byte   MOD 23
 .byte   W01
 .byte   MOD 24
 .byte   W01
 .byte   MOD 25
 .byte   W01
 .byte   MOD 29
 .byte   W02
 .byte   MOD 31
 .byte   W01
 .byte   MOD 32
 .byte   W01
 .byte   MOD 35
 .byte   W01
 .byte   MOD 36
 .byte   W01
 .byte   MOD 37
 .byte   W02
 .byte   MOD 38
 .byte   W01
 .byte   MOD 39
 .byte   W02
 .byte   MOD 40
 .byte   W02
@  #14 @013   ----------------------------------------
 .byte   MOD 41
 .byte   W01
 .byte   MOD 42
 .byte   W01
 .byte   MOD 43
 .byte   W01
 .byte   MOD 44
 .byte   W01
 .byte   MOD 45
 .byte   W02
 .byte   MOD 46
 .byte   W01
 .byte   MOD 47
 .byte   W02
 .byte   MOD 48
 .byte   W01
 .byte   MOD 49
 .byte   W01
 .byte   MOD 50
 .byte   W02
 .byte   MOD 51
 .byte   W02
 .byte   MOD 52
 .byte   W01
 .byte   MOD 53
 .byte   W02
 .byte   MOD 54
 .byte   W01
 .byte   MOD 55
 .byte   W01
 .byte   MOD 56
 .byte   W01
 .byte   MOD 58
 .byte   W02
 .byte   MOD 59
 .byte   W03
 .byte   MOD 60
 .byte   W07
 .byte   MOD 48
 .byte   W01
 .byte   MOD 0
 .byte   W02
 .byte   N14 ,Ds4
 .byte   W12
 .byte   N76 ,As4 ,v112
 .byte   W04
 .byte   MOD 3
 .byte   W01
 .byte   MOD 4
 .byte   W01
 .byte   MOD 5
 .byte   W02
 .byte   MOD 6
 .byte   W01
 .byte   MOD 11
 .byte   W02
 .byte   MOD 16
 .byte   W01
 .byte   MOD 17
 .byte   W01
 .byte   MOD 18
 .byte   W01
 .byte   MOD 23
 .byte   W02
 .byte   MOD 24
 .byte   W01
 .byte   MOD 25
 .byte   W01
 .byte   MOD 26
 .byte   W01
 .byte   MOD 27
 .byte   W01
 .byte   MOD 28
 .byte   W01
 .byte   MOD 29
 .byte   W01
 .byte   MOD 30
 .byte   W01
 .byte   MOD 31
 .byte   W02
 .byte   MOD 32
 .byte   W01
 .byte   MOD 33
 .byte   W01
 .byte   MOD 34
 .byte   W01
 .byte   MOD 35
 .byte   W01
 .byte   MOD 37
 .byte   W01
 .byte   MOD 38
 .byte   W01
 .byte   MOD 39
 .byte   W01
 .byte   MOD 41
 .byte   W01
 .byte   MOD 42
 .byte   W01
 .byte   MOD 44
 .byte   W02
 .byte   MOD 46
 .byte   W01
 .byte   MOD 47
 .byte   W01
 .byte   MOD 48
 .byte   W01
 .byte   MOD 49
 .byte   W01
 .byte   MOD 50
 .byte   W01
 .byte   MOD 52
 .byte   W02
 .byte   MOD 53
 .byte   W02
 .byte   MOD 54
 .byte   W02
 .byte   MOD 55
 .byte   W01
@  #14 @014   ----------------------------------------
 .byte   W02
 .byte   MOD 56
 .byte   W02
 .byte   MOD 57
 .byte   W02
 .byte   MOD 58
 .byte   W02
 .byte   MOD 59
 .byte   W03
 .byte   MOD 60
 .byte   W02
 .byte   MOD 61
 .byte   W01
 .byte   MOD 62
 .byte   W02
 .byte   MOD 63
 .byte   W01
 .byte   MOD 64
 .byte   W04
 .byte   MOD 65
 .byte   W10
 .byte   MOD 63
 .byte   W01
 .byte   MOD 55
 .byte   W01
 .byte   MOD 12
 .byte   W01
 .byte   MOD 0
 .byte   W02
 .byte   N14 ,Fn4 ,v120
 .byte   W12
 .byte   N78 ,Cn4 ,v116
 .byte   W09
 .byte   MOD 1
 .byte   W01
 .byte   MOD 2
 .byte   W01
 .byte   MOD 4
 .byte   W01
 .byte   MOD 5
 .byte   W01
 .byte   MOD 9
 .byte   W01
 .byte   MOD 10
 .byte   W01
 .byte   MOD 11
 .byte   W01
 .byte   MOD 12
 .byte   W01
 .byte   MOD 16
 .byte   W01
 .byte   MOD 17
 .byte   W01
 .byte   MOD 19
 .byte   W01
 .byte   MOD 23
 .byte   W01
 .byte   MOD 24
 .byte   W01
 .byte   MOD 25
 .byte   W01
 .byte   MOD 29
 .byte   W02
 .byte   MOD 30
 .byte   W01
 .byte   MOD 31
 .byte   W01
 .byte   MOD 32
 .byte   W01
 .byte   MOD 33
 .byte   W01
 .byte   MOD 34
 .byte   W01
 .byte   MOD 35
 .byte   W01
 .byte   MOD 36
 .byte   W01
 .byte   MOD 37
 .byte   W01
 .byte   MOD 38
 .byte   W02
 .byte   MOD 39
 .byte   W01
 .byte   MOD 40
 .byte   W01
 .byte   MOD 42
 .byte   W01
 .byte   MOD 43
 .byte   W01
 .byte   MOD 44
 .byte   W01
 .byte   MOD 46
 .byte   W01
 .byte   MOD 47
 .byte   W01
 .byte   MOD 48
 .byte   W01
 .byte   MOD 49
 .byte   W01
 .byte   MOD 50
 .byte   W01
 .byte   MOD 51
 .byte   W01
 .byte   MOD 53
 .byte   W01
 .byte   MOD 54
 .byte   W01
@  #14 @015   ----------------------------------------
 .byte   MOD 55
 .byte   W01
 .byte   MOD 56
 .byte   W01
 .byte   MOD 57
 .byte   W02
 .byte   MOD 58
 .byte   W02
 .byte   MOD 59
 .byte   W01
 .byte   MOD 60
 .byte   W01
 .byte   MOD 61
 .byte   W01
 .byte   MOD 62
 .byte   W01
 .byte   MOD 63
 .byte   W01
 .byte   MOD 64
 .byte   W01
 .byte   MOD 65
 .byte   W02
 .byte   MOD 66
 .byte   W01
 .byte   MOD 67
 .byte   W02
 .byte   MOD 68
 .byte   W02
 .byte   MOD 69
 .byte   W02
 .byte   MOD 70
 .byte   W01
 .byte   MOD 71
 .byte   W01
 .byte   MOD 72
 .byte   W01
 .byte   MOD 73
 .byte   W02
 .byte   MOD 74
 .byte   W05
 .byte   MOD 72
 .byte   W01
 .byte   MOD 52
 .byte   W01
 .byte   MOD 8
 .byte   W01
 .byte   MOD 0
 .byte   W02
 .byte   N14 ,Fn3 ,v112
 .byte   W12
 .byte   TIE ,Cn3
 .byte   W17
 .byte   MOD 3
 .byte   W01
 .byte   MOD 4
 .byte   W01
 .byte   MOD 5
 .byte   W01
 .byte   MOD 6
 .byte   W01
 .byte   MOD 7
 .byte   W01
 .byte   MOD 8
 .byte   W01
 .byte   MOD 9
 .byte   W01
 .byte   MOD 13
 .byte   W02
 .byte   MOD 14
 .byte   W01
 .byte   MOD 15
 .byte   W01
 .byte   MOD 17
 .byte   W01
 .byte   MOD 18
 .byte   W01
 .byte   MOD 19
 .byte   W01
 .byte   MOD 23
 .byte   W01
 .byte   MOD 24
 .byte   W02
 .byte   MOD 25
 .byte   W01
 .byte   MOD 26
 .byte   W01
 .byte   MOD 27
 .byte   W01
 .byte   MOD 29
 .byte   W01
 .byte   MOD 30
 .byte   W01
 .byte   MOD 32
 .byte   W01
 .byte   MOD 33
 .byte   W01
 .byte   MOD 34
 .byte   W01
 .byte   MOD 35
 .byte   W02
 .byte   MOD 36
 .byte   W01
 .byte   MOD 37
 .byte   W02
 .byte   MOD 38
 .byte   W01
@  #14 @016   ----------------------------------------
 .byte   MOD 39
 .byte   W01
 .byte   MOD 40
 .byte   W02
 .byte   MOD 41
 .byte   W02
 .byte   MOD 42
 .byte   W02
 .byte   MOD 43
 .byte   W01
 .byte   MOD 44
 .byte   W01
 .byte   MOD 45
 .byte   W02
 .byte   MOD 46
 .byte   W01
 .byte   MOD 47
 .byte   W02
 .byte   W01
 .byte   MOD 48
 .byte   W01
 .byte   MOD 49
 .byte   W01
 .byte   W02
 .byte   MOD 50
 .byte   W01
 .byte   W01
 .byte   W01
 .byte   W02
 .byte   W01
 .byte   W01
 .byte   W02
 .byte   W01
 .byte   W01
 .byte   W01
 .byte   W01
 .byte   W01
 .byte   W02
 .byte   W01
 .byte   W01
 .byte   W01
 .byte   W01
 .byte   W01
 .byte   W01
 .byte   W01
 .byte   W01
 .byte   W01
 .byte   W01
 .byte   W01
 .byte   W01
 .byte   W01
 .byte   W01
 .byte   W01
 .byte   W01
 .byte   W01
 .byte   W01
 .byte   W01
 .byte   W01
 .byte   W01
 .byte   W01
 .byte   W01
 .byte   W01
 .byte   W01
 .byte   W01
 .byte   W01
 .byte   W01
 .byte   W01
 .byte   W01
 .byte   W01
 .byte   W01
 .byte   W01
 .byte   W01
 .byte   W01
 .byte   MOD 44
 .byte   W01
 .byte   EOT
 .byte   MOD 31
 .byte   MOD 16
 .byte   W01
 .byte   MOD 0
 .byte   W01
 .byte   W01
 .byte   W01
 .byte   W21
@  #14 @017   ----------------------------------------
 .byte   W96
@  #14 @018   ----------------------------------------
 .byte   W96
@  #14 @019   ----------------------------------------
 .byte   W96
@  #14 @020   ----------------------------------------
 .byte   W96
@  #14 @021   ----------------------------------------
 .byte   W96
@  #14 @022   ----------------------------------------
 .byte   W96
@  #14 @023   ----------------------------------------
 .byte   W96
@  #14 @024   ----------------------------------------
 .byte   W96
@  #14 @025   ----------------------------------------
 .byte   W96
@  #14 @026   ----------------------------------------
 .byte   W96
@  #14 @027   ----------------------------------------
 .byte   W96
@  #14 @028   ----------------------------------------
 .byte   W96
@  #14 @029   ----------------------------------------
 .byte   W96
@  #14 @030   ----------------------------------------
 .byte   W96
@  #14 @031   ----------------------------------------
 .byte   W96
@  #14 @032   ----------------------------------------
 .byte   W96
@  #14 @033   ----------------------------------------
 .byte   W96
@  #14 @034   ----------------------------------------
 .byte   W96
@  #14 @035   ----------------------------------------
 .byte   W96
@  #14 @036   ----------------------------------------
 .byte   W96
@  #14 @037   ----------------------------------------
 .byte   W96
@  #14 @038   ----------------------------------------
 .byte   W96
@  #14 @039   ----------------------------------------
 .byte   W96
@  #14 @040   ----------------------------------------
 .byte   W96
@  #14 @041   ----------------------------------------
 .byte   W96
@  #14 @042   ----------------------------------------
 .byte   W96
@  #14 @043   ----------------------------------------
 .byte   W96
@  #14 @044   ----------------------------------------
 .byte   W96
@  #14 @045   ----------------------------------------
 .byte   W96
@  #14 @046   ----------------------------------------
 .byte   W96
@  #14 @047   ----------------------------------------
 .byte   W96
@  #14 @048   ----------------------------------------
 .byte   W96
@  #14 @049   ----------------------------------------
 .byte   W96
@  #14 @050   ----------------------------------------
 .byte   W96
@  #14 @051   ----------------------------------------
 .byte   W96
@  #14 @052   ----------------------------------------
 .byte   W96
@  #14 @053   ----------------------------------------
 .byte   W96
@  #14 @054   ----------------------------------------
 .byte   W96
@  #14 @055   ----------------------------------------
 .byte   W96
@  #14 @056   ----------------------------------------
 .byte   W96
@  #14 @057   ----------------------------------------
 .byte   W96
@  #14 @058   ----------------------------------------
 .byte   W96
@  #14 @059   ----------------------------------------
 .byte   W96
@  #14 @060   ----------------------------------------
 .byte   W96
@  #14 @061   ----------------------------------------
 .byte   W96
@  #14 @062   ----------------------------------------
 .byte   W96
@  #14 @063   ----------------------------------------
 .byte   W96
@  #14 @064   ----------------------------------------
 .byte   W96
@  #14 @065   ----------------------------------------
 .byte   W96
@  #14 @066   ----------------------------------------
 .byte   W96
@  #14 @067   ----------------------------------------
 .byte   W96
@  #14 @068   ----------------------------------------
 .byte   W96
@  #14 @069   ----------------------------------------
 .byte   W96
@  #14 @070   ----------------------------------------
 .byte   W96
@  #14 @071   ----------------------------------------
 .byte   W96
@  #14 @072   ----------------------------------------
 .byte   W96
@  #14 @073   ----------------------------------------
 .byte   W96
@  #14 @074   ----------------------------------------
 .byte   W96
@  #14 @075   ----------------------------------------
 .byte   W96
@  #14 @076   ----------------------------------------
 .byte   W96
@  #14 @077   ----------------------------------------
 .byte   W96
@  #14 @078   ----------------------------------------
 .byte   W96
@  #14 @079   ----------------------------------------
 .byte   W96
@  #14 @080   ----------------------------------------
 .byte   W96
@  #14 @081   ----------------------------------------
 .byte   W96
@  #14 @082   ----------------------------------------
 .byte   W96
@  #14 @083   ----------------------------------------
 .byte   W96
@  #14 @084   ----------------------------------------
 .byte   W96
@  #14 @085   ----------------------------------------
 .byte   W96
@  #14 @086   ----------------------------------------
 .byte   W96
@  #14 @087   ----------------------------------------
 .byte   W96
@  #14 @088   ----------------------------------------
 .byte   W96
@  #14 @089   ----------------------------------------
 .byte   GOTO
  .word Label_01578F16
@  #14 @090   ----------------------------------------
 .byte   W92
 .byte   W03
 .byte   FINE

@**************** Track 15 (Midi-Chn.14) ****************@

song0185_015:
@  #15 @000   ----------------------------------------
 .byte   KEYSH , song0185_key+0
Label_0157932E:
 .byte   VOICE , 74
 .byte   VOL , 28*song0185_mvl/mxv
 .byte   PAN , c_v-60
 .byte   W96
@  #15 @001   ----------------------------------------
 .byte   W96
@  #15 @002   ----------------------------------------
 .byte   W96
@  #15 @003   ----------------------------------------
 .byte   W96
@  #15 @004   ----------------------------------------
 .byte   W96
@  #15 @005   ----------------------------------------
 .byte   W96
@  #15 @006   ----------------------------------------
 .byte   W96
@  #15 @007   ----------------------------------------
 .byte   W96
@  #15 @008   ----------------------------------------
 .byte   W06
 .byte   BEND , c_v+1
 .byte   W18
 .byte   W18
 .byte   N14 ,En3 ,v108
 .byte   W12
 .byte   N76 ,Bn3
 .byte   W42
@  #15 @009   ----------------------------------------
 .byte   W42
 .byte   N12 ,Cn4 ,v116
 .byte   W12
 .byte   N72 ,Gn3
 .byte   W42
@  #15 @010   ----------------------------------------
 .byte   W42
 .byte   N14 ,Fn3
 .byte   W12
 .byte   N72 ,Cn4
 .byte   W42
@  #15 @011   ----------------------------------------
 .byte   W42
 .byte   N14 ,Fn4
 .byte   W12
 .byte   N76 ,As3
 .byte   W42
@  #15 @012   ----------------------------------------
 .byte   W42
 .byte   N14 ,Cn4
 .byte   W12
 .byte   N76 ,Fn4 ,v120
 .byte   W42
@  #15 @013   ----------------------------------------
 .byte   W42
 .byte   N14 ,Ds4
 .byte   W12
 .byte   N76 ,As4 ,v112
 .byte   W42
@  #15 @014   ----------------------------------------
 .byte   W42
 .byte   N14 ,Fn4 ,v120
 .byte   W12
 .byte   N78 ,Cn4 ,v116
 .byte   W42
@  #15 @015   ----------------------------------------
 .byte   W42
 .byte   N14 ,Fn3 ,v112
 .byte   W12
 .byte   TIE ,Cn3
 .byte   W40
 .byte   W01
 .byte   W01
@  #15 @016   ----------------------------------------
 .byte   W11
 .byte   W02
 .byte   W01
 .byte   W01
 .byte   W02
 .byte   W01
 .byte   W01
 .byte   W01
 .byte   W02
 .byte   W01
 .byte   W01
 .byte   W01
 .byte   W01
 .byte   W01
 .byte   W01
 .byte   W01
 .byte   W01
 .byte   W01
 .byte   W01
 .byte   W01
 .byte   W01
 .byte   W01
 .byte   W01
 .byte   W01
 .byte   W01
 .byte   W01
 .byte   W01
 .byte   W01
 .byte   W01
 .byte   W01
 .byte   W01
 .byte   W01
 .byte   W01
 .byte   W01
 .byte   W01
 .byte   W01
 .byte   W01
 .byte   W01
 .byte   W01
 .byte   W01
 .byte   W01
 .byte   W01
 .byte   W01
 .byte   W01
 .byte   W01
 .byte   W01
 .byte   W01
 .byte   W01
 .byte   W01
 .byte   W01
 .byte   W01
 .byte   W01
 .byte   W01
 .byte   W01
 .byte   W01
 .byte   W01
 .byte   W01
 .byte   W01
 .byte   W01
 .byte   W01
 .byte   W01
 .byte   W01
 .byte   W01
 .byte   W01
 .byte   EOT
 .byte   W01
 .byte   W01
 .byte   W01
 .byte   W01
 .byte   W01
 .byte   W01
 .byte   W02
 .byte   W02
 .byte   W02
 .byte   W01
 .byte   W02
 .byte   W02
 .byte   W02
@  #15 @017   ----------------------------------------
 .byte   W96
@  #15 @018   ----------------------------------------
 .byte   W96
@  #15 @019   ----------------------------------------
 .byte   W96
@  #15 @020   ----------------------------------------
 .byte   W96
@  #15 @021   ----------------------------------------
 .byte   W96
@  #15 @022   ----------------------------------------
 .byte   W96
@  #15 @023   ----------------------------------------
 .byte   W96
@  #15 @024   ----------------------------------------
 .byte   W96
@  #15 @025   ----------------------------------------
 .byte   W96
@  #15 @026   ----------------------------------------
 .byte   W96
@  #15 @027   ----------------------------------------
 .byte   W96
@  #15 @028   ----------------------------------------
 .byte   W96
@  #15 @029   ----------------------------------------
 .byte   W96
@  #15 @030   ----------------------------------------
 .byte   W96
@  #15 @031   ----------------------------------------
 .byte   W96
@  #15 @032   ----------------------------------------
 .byte   W96
@  #15 @033   ----------------------------------------
 .byte   W96
@  #15 @034   ----------------------------------------
 .byte   W96
@  #15 @035   ----------------------------------------
 .byte   W96
@  #15 @036   ----------------------------------------
 .byte   W96
@  #15 @037   ----------------------------------------
 .byte   W96
@  #15 @038   ----------------------------------------
 .byte   W96
@  #15 @039   ----------------------------------------
 .byte   W96
@  #15 @040   ----------------------------------------
 .byte   W96
@  #15 @041   ----------------------------------------
 .byte   W96
@  #15 @042   ----------------------------------------
 .byte   W96
@  #15 @043   ----------------------------------------
 .byte   W96
@  #15 @044   ----------------------------------------
 .byte   W96
@  #15 @045   ----------------------------------------
 .byte   W96
@  #15 @046   ----------------------------------------
 .byte   W96
@  #15 @047   ----------------------------------------
 .byte   W96
@  #15 @048   ----------------------------------------
 .byte   W96
@  #15 @049   ----------------------------------------
 .byte   W96
@  #15 @050   ----------------------------------------
 .byte   W96
@  #15 @051   ----------------------------------------
 .byte   W96
@  #15 @052   ----------------------------------------
 .byte   W96
@  #15 @053   ----------------------------------------
 .byte   W96
@  #15 @054   ----------------------------------------
 .byte   W96
@  #15 @055   ----------------------------------------
 .byte   W96
@  #15 @056   ----------------------------------------
 .byte   W96
@  #15 @057   ----------------------------------------
 .byte   W96
@  #15 @058   ----------------------------------------
 .byte   W96
@  #15 @059   ----------------------------------------
 .byte   W96
@  #15 @060   ----------------------------------------
 .byte   W96
@  #15 @061   ----------------------------------------
 .byte   W96
@  #15 @062   ----------------------------------------
 .byte   W96
@  #15 @063   ----------------------------------------
 .byte   W96
@  #15 @064   ----------------------------------------
 .byte   W96
@  #15 @065   ----------------------------------------
 .byte   W96
@  #15 @066   ----------------------------------------
 .byte   W96
@  #15 @067   ----------------------------------------
 .byte   W96
@  #15 @068   ----------------------------------------
 .byte   W96
@  #15 @069   ----------------------------------------
 .byte   W96
@  #15 @070   ----------------------------------------
 .byte   W96
@  #15 @071   ----------------------------------------
 .byte   W96
@  #15 @072   ----------------------------------------
 .byte   W96
@  #15 @073   ----------------------------------------
 .byte   W96
@  #15 @074   ----------------------------------------
 .byte   W96
@  #15 @075   ----------------------------------------
 .byte   W96
@  #15 @076   ----------------------------------------
 .byte   W96
@  #15 @077   ----------------------------------------
 .byte   W96
@  #15 @078   ----------------------------------------
 .byte   W96
@  #15 @079   ----------------------------------------
 .byte   W96
@  #15 @080   ----------------------------------------
 .byte   W96
@  #15 @081   ----------------------------------------
 .byte   W96
@  #15 @082   ----------------------------------------
 .byte   W96
@  #15 @083   ----------------------------------------
 .byte   W96
@  #15 @084   ----------------------------------------
 .byte   W96
@  #15 @085   ----------------------------------------
 .byte   W96
@  #15 @086   ----------------------------------------
 .byte   W96
@  #15 @087   ----------------------------------------
 .byte   W96
@  #15 @088   ----------------------------------------
 .byte   W96
@  #15 @089   ----------------------------------------
 .byte   GOTO
  .word Label_0157932E
@  #15 @090   ----------------------------------------
 .byte   W92
 .byte   W03
 .byte   FINE

@******************************************************@
	.align	2

song0185:
	.byte	15	@ NumTrks
	.byte	0	@ NumBlks
	.byte	song0185_pri	@ Priority
	.byte	song0185_rev	@ Reverb.
    
	.word	song0185_grp
    
	.word	song0185_001
	.word	song0185_002
	.word	song0185_003
	.word	song0185_004
	.word	song0185_005
	.word	song0185_006
	.word	song0185_007
	.word	song0185_008
	.word	song0185_009
	.word	song0185_010
	.word	song0185_011
	.word	song0185_012
	.word	song0185_013
	.word	song0185_014
	.word	song0185_015

	.end
