//Event file generated from Sappy .s format.
	#include "MPlayDef.event"

	#define	GameOverTheme_grp  voicegroup000
	#define	GameOverTheme_pri  10
	#define	GameOverTheme_rev  128
	#define	GameOverTheme_mvl  127
	#define	GameOverTheme_key  0
	#define	GameOverTheme_tbs  1
	#define	GameOverTheme_exg  0
	#define	GameOverTheme_cmp  1

	// .rodata
	//	GameOverTheme
	ALIGN 4


//**************** Track 1 (Midi-Chn.0) ****************//

GameOverTheme_001:
//  #01 //000   ----------------------------------------
 BYTE   KEYSH   GameOverTheme_key+0
 BYTE   TEMPO   234*GameOverTheme_tbs/2
 BYTE   VOICE   70
 BYTE   VOL   25*GameOverTheme_mvl/mxv
 BYTE   BENDR  12
 BYTE   W96
//  #01 //001   ----------------------------------------
 BYTE   W48
 BYTE   W96
//  #01 //002   ----------------------------------------
 BYTE   W48
 BYTE   W96
//  #01 //003   ----------------------------------------
 BYTE   W48
 BYTE   W96
//  #01 //004   ----------------------------------------
 BYTE   W48
 BYTE   W96
//  #01 //005   ----------------------------------------
 BYTE   W48
 BYTE   W96
//  #01 //006   ----------------------------------------
 BYTE   W48
 BYTE   W96
//  #01 //007   ----------------------------------------
 BYTE   W48
 BYTE   W96
//  #01 //008   ----------------------------------------
 BYTE   W48
 BYTE   W96
//  #01 //009   ----------------------------------------
 BYTE   W48
 BYTE   W96
//  #01 //010   ----------------------------------------
 BYTE   W48
 BYTE   W96
//  #01 //011   ----------------------------------------
 BYTE   W48
 BYTE   W96
//  #01 //012   ----------------------------------------
 BYTE   W48
 BYTE   W96
//  #01 //013   ----------------------------------------
 BYTE   W48
 BYTE   W96
//  #01 //014   ----------------------------------------
 BYTE   W48
 BYTE   W96
//  #01 //015   ----------------------------------------
 BYTE   W48
 BYTE   W96
//  #01 //016   ----------------------------------------
 BYTE   W48
 BYTE   BEND   c_v+0
 BYTE   TIE  Cn1  v120
 BYTE   W96
//  #01 //017   ----------------------------------------
 BYTE   W48
 BYTE   W96
//  #01 //018   ----------------------------------------
 BYTE   W48
 BYTE   W96
//  #01 //019   ----------------------------------------
 BYTE   W48
 BYTE   W96
//  #01 //020   ----------------------------------------
 BYTE   W48
 BYTE   W96
//  #01 //021   ----------------------------------------
 BYTE   W48
 BYTE   W96
//  #01 //022   ----------------------------------------
 BYTE   W48
 BYTE   W96
//  #01 //023   ----------------------------------------
 BYTE   W48
 BYTE   W96
//  #01 //024   ----------------------------------------
 BYTE   W24
 BYTE   BEND   c_v-3
 BYTE   W06
 BYTE   BEND   c_v-15
 BYTE   W06
 BYTE   BEND   c_v-25
 BYTE   W06
 BYTE   BEND   c_v-34
 BYTE   W06
 BYTE   BEND   c_v-43
 BYTE   W96
//  #01 //025   ----------------------------------------
 BYTE   W48
 BYTE   W96
//  #01 //026   ----------------------------------------
 BYTE   W48
 BYTE   W96
//  #01 //027   ----------------------------------------
 BYTE   W48
 BYTE   W96
//  #01 //028   ----------------------------------------
 BYTE   W48
 BYTE   W96
//  #01 //029   ----------------------------------------
 BYTE   W48
 BYTE   W96
//  #01 //030   ----------------------------------------
 BYTE   W48
 BYTE   W96
//  #01 //031   ----------------------------------------
 BYTE   W48
 BYTE   W96
//  #01 //032   ----------------------------------------
 BYTE   W44
 BYTE   W03
 BYTE   EOT
 BYTE   W01
 BYTE   BEND   c_v+0
 BYTE   TIE  En0
 BYTE   W96
//  #01 //033   ----------------------------------------
 BYTE   W48
 BYTE   W96
//  #01 //034   ----------------------------------------
 BYTE   W48
 BYTE   W96
//  #01 //035   ----------------------------------------
 BYTE   W48
 BYTE   W96
//  #01 //036   ----------------------------------------
 BYTE   W48
 BYTE   W96
//  #01 //037   ----------------------------------------
 BYTE   W48
 BYTE   W96
//  #01 //038   ----------------------------------------
 BYTE   W48
 BYTE   W96
//  #01 //039   ----------------------------------------
 BYTE   W48
Label_014E5932:
 BYTE   W96
//  #01 //040   ----------------------------------------
 BYTE   W44
 BYTE   W02
 BYTE   PEND 
 BYTE   EOT
 BYTE   En0
 BYTE   W01
Label_014E5939:
 BYTE   W01
 BYTE   TIE  En0  v120
 BYTE   W96
//  #01 //041   ----------------------------------------
 BYTE   W48
 BYTE   W96
//  #01 //042   ----------------------------------------
 BYTE   W48
 BYTE   W96
//  #01 //043   ----------------------------------------
 BYTE   W48
 BYTE   W96
//  #01 //044   ----------------------------------------
 BYTE   W48
 BYTE   W96
//  #01 //045   ----------------------------------------
 BYTE   W48
 BYTE   W96
//  #01 //046   ----------------------------------------
 BYTE   W48
 BYTE   W96
//  #01 //047   ----------------------------------------
 BYTE   W48
 BYTE   W96
//  #01 //048   ----------------------------------------
 BYTE   W48
 BYTE   W96
//  #01 //049   ----------------------------------------
 BYTE   W48
 BYTE   W96
//  #01 //050   ----------------------------------------
 BYTE   W48
 BYTE   W96
//  #01 //051   ----------------------------------------
 BYTE   W48
 BYTE   W96
//  #01 //052   ----------------------------------------
 BYTE   W48
 BYTE   W96
//  #01 //053   ----------------------------------------
 BYTE   W48
 BYTE   W96
//  #01 //054   ----------------------------------------
 BYTE   W48
 BYTE   W96
//  #01 //055   ----------------------------------------
 BYTE   W48
 BYTE   W96
//  #01 //056   ----------------------------------------
 BYTE   W48
 BYTE   W96
//  #01 //057   ----------------------------------------
 BYTE   W48
 BYTE   W96
//  #01 //058   ----------------------------------------
 BYTE   W48
 BYTE   W96
//  #01 //059   ----------------------------------------
 BYTE   W48
 BYTE   W96
//  #01 //060   ----------------------------------------
 BYTE   W48
 BYTE   W96
//  #01 //061   ----------------------------------------
 BYTE   W48
 BYTE   W96
//  #01 //062   ----------------------------------------
 BYTE   W48
 BYTE   W96
//  #01 //063   ----------------------------------------
 BYTE   W48
//  #01 //064   ----------------------------------------
 BYTE   PATT
  POIN2 Label_014E5932
//  #01 //065   ----------------------------------------
 BYTE   EOT
 BYTE   En0
 BYTE   W01
 BYTE   GoTo
  POIN2 Label_014E5939
 BYTE   FINE

//**************** Track 2 (Midi-Chn.1) ****************//

GameOverTheme_002:
//  #02 //000   ----------------------------------------
 BYTE   KEYSH   GameOverTheme_key+0
 BYTE   VOICE   70
 BYTE   VOL   20*GameOverTheme_mvl/mxv
 BYTE   BENDR  12
 BYTE   W96
//  #02 //001   ----------------------------------------
 BYTE   W48
 BYTE   W96
//  #02 //002   ----------------------------------------
 BYTE   W48
 BYTE   W96
//  #02 //003   ----------------------------------------
 BYTE   W48
 BYTE   W96
//  #02 //004   ----------------------------------------
 BYTE   W48
 BYTE   W96
//  #02 //005   ----------------------------------------
 BYTE   W48
 BYTE   W96
//  #02 //006   ----------------------------------------
 BYTE   W48
 BYTE   W96
//  #02 //007   ----------------------------------------
 BYTE   W48
 BYTE   W96
//  #02 //008   ----------------------------------------
 BYTE   W48
 BYTE   W96
//  #02 //009   ----------------------------------------
 BYTE   W48
 BYTE   W96
//  #02 //010   ----------------------------------------
 BYTE   W48
 BYTE   W96
//  #02 //011   ----------------------------------------
 BYTE   W48
 BYTE   W96
//  #02 //012   ----------------------------------------
 BYTE   W48
 BYTE   W96
//  #02 //013   ----------------------------------------
 BYTE   W48
 BYTE   W96
//  #02 //014   ----------------------------------------
 BYTE   W48
 BYTE   W96
//  #02 //015   ----------------------------------------
 BYTE   W48
 BYTE   W96
//  #02 //016   ----------------------------------------
 BYTE   W48
 BYTE   W96
//  #02 //017   ----------------------------------------
 BYTE   W48
 BYTE   W96
//  #02 //018   ----------------------------------------
 BYTE   W48
 BYTE   W96
//  #02 //019   ----------------------------------------
 BYTE   W48
 BYTE   W96
//  #02 //020   ----------------------------------------
 BYTE   W48
 BYTE   W96
//  #02 //021   ----------------------------------------
 BYTE   W48
 BYTE   W96
//  #02 //022   ----------------------------------------
 BYTE   W48
 BYTE   W96
//  #02 //023   ----------------------------------------
 BYTE   W48
 BYTE   W96
//  #02 //024   ----------------------------------------
 BYTE   W48
 BYTE   W96
//  #02 //025   ----------------------------------------
 BYTE   W48
 BYTE   W96
//  #02 //026   ----------------------------------------
 BYTE   W48
 BYTE   W96
//  #02 //027   ----------------------------------------
 BYTE   W48
 BYTE   W96
//  #02 //028   ----------------------------------------
 BYTE   W48
 BYTE   W96
//  #02 //029   ----------------------------------------
 BYTE   W48
 BYTE   W96
//  #02 //030   ----------------------------------------
 BYTE   W48
 BYTE   W96
//  #02 //031   ----------------------------------------
 BYTE   W48
 BYTE   W96
//  #02 //032   ----------------------------------------
 BYTE   W48
 BYTE   BEND   c_v+0
 BYTE   TIE  Gn1  v072
 BYTE   W96
//  #02 //033   ----------------------------------------
 BYTE   W48
 BYTE   W96
//  #02 //034   ----------------------------------------
 BYTE   W48
 BYTE   W96
//  #02 //035   ----------------------------------------
 BYTE   W48
 BYTE   W96
//  #02 //036   ----------------------------------------
 BYTE   W48
 BYTE   W96
//  #02 //037   ----------------------------------------
 BYTE   W48
 BYTE   W96
//  #02 //038   ----------------------------------------
 BYTE   W48
 BYTE   W96
//  #02 //039   ----------------------------------------
 BYTE   W48
 BYTE   W96
//  #02 //040   ----------------------------------------
 BYTE   W44
 BYTE   W03
Label_014E5D7A:
 BYTE   W01
 BYTE   EOT
 BYTE   Gn1
 BYTE   BEND   c_v+0
 BYTE   TIE  En1  v072
 BYTE   W96
//  #02 //041   ----------------------------------------
 BYTE   W48
 BYTE   W96
//  #02 //042   ----------------------------------------
 BYTE   W36
 BYTE   BEND   c_v+2
 BYTE   W03
 BYTE   BEND   c_v+8
 BYTE   W03
 BYTE   BEND   c_v+14
 BYTE   W03
 BYTE   BEND   c_v+19
 BYTE   W03
 BYTE   BEND   c_v+26
 BYTE   W96
//  #02 //043   ----------------------------------------
 BYTE   W48
 BYTE   W96
//  #02 //044   ----------------------------------------
 BYTE   W36
 BYTE   BEND   c_v+25
 BYTE   W03
 BYTE   BEND   c_v+21
 BYTE   W03
 BYTE   BEND   c_v+17
 BYTE   W03
 BYTE   BEND   c_v+14
 BYTE   W03
 BYTE   BEND   c_v+10
 BYTE   W96
//  #02 //045   ----------------------------------------
 BYTE   W48
 BYTE   W96
//  #02 //046   ----------------------------------------
 BYTE   W42
 BYTE   BEND   c_v+12
 BYTE   W03
 BYTE   BEND   c_v+14
 BYTE   W03
 BYTE   BEND   c_v+15
 BYTE   W96
//  #02 //047   ----------------------------------------
 BYTE   W48
 BYTE   W96
//  #02 //048   ----------------------------------------
 BYTE   W48
 BYTE   EOT
 BYTE   BEND   c_v+0
 BYTE   TIE  Bn1
 BYTE   W96
//  #02 //049   ----------------------------------------
 BYTE   W48
 BYTE   W96
//  #02 //050   ----------------------------------------
 BYTE   W42
 BYTE   BEND   c_v-2
 BYTE   W03
 BYTE   BEND   c_v-4
 BYTE   W03
 BYTE   BEND   c_v-6
 BYTE   W96
//  #02 //051   ----------------------------------------
 BYTE   W48
 BYTE   W96
//  #02 //052   ----------------------------------------
 BYTE   W42
 BYTE   BEND   c_v-8
 BYTE   W03
 BYTE   BEND   c_v-10
 BYTE   W03
 BYTE   BEND   c_v-11
 BYTE   W96
//  #02 //053   ----------------------------------------
 BYTE   W48
 BYTE   W96
//  #02 //054   ----------------------------------------
 BYTE   W24
 BYTE   W03
 BYTE   BEND   c_v-10
 BYTE   W03
 BYTE   BEND   c_v-3
 BYTE   W03
 BYTE   BEND   c_v+5
 BYTE   W03
 BYTE   BEND   c_v+13
 BYTE   W03
 BYTE   BEND   c_v+20
 BYTE   W03
 BYTE   BEND   c_v+27
 BYTE   W03
 BYTE   BEND   c_v+35
 BYTE   W03
 BYTE   BEND   c_v+42
 BYTE   W96
//  #02 //055   ----------------------------------------
 BYTE   W48
 BYTE   W96
//  #02 //056   ----------------------------------------
 BYTE   W48
 BYTE   EOT
 BYTE   BEND   c_v+0
 BYTE   TIE  Fs2
 BYTE   W96
//  #02 //057   ----------------------------------------
 BYTE   W48
 BYTE   W96
//  #02 //058   ----------------------------------------
 BYTE   W48
 BYTE   EOT
 BYTE   BEND   c_v+0
 BYTE   TIE  Gn2
 BYTE   W96
//  #02 //059   ----------------------------------------
 BYTE   W48
 BYTE   W96
//  #02 //060   ----------------------------------------
 BYTE   W36
 BYTE   W03
 BYTE   BEND   c_v+2
 BYTE   W03
 BYTE   BEND   c_v+4
 BYTE   W03
 BYTE   BEND   c_v+8
 BYTE   W03
 BYTE   BEND   c_v+10
 BYTE   W96
//  #02 //061   ----------------------------------------
 BYTE   W48
 BYTE   W96
//  #02 //062   ----------------------------------------
 BYTE   W09
 BYTE   BEND   c_v+9
 BYTE   W03
 BYTE   BEND   c_v+3
 BYTE   W03
 BYTE   BEND   c_v-3
 BYTE   W03
 BYTE   BEND   c_v-8
 BYTE   W03
 BYTE   BEND   c_v-15
 BYTE   W03
 BYTE   BEND   c_v-19
 BYTE   W03
 BYTE   BEND   c_v-25
 BYTE   W03
 BYTE   BEND   c_v-31
 BYTE   W03
 BYTE   BEND   c_v-37
 BYTE   W03
 BYTE   BEND   c_v-42
 BYTE   W03
 BYTE   BEND   c_v-47
 BYTE   W03
 BYTE   BEND   c_v-53
 BYTE   W03
 BYTE   BEND   c_v-59
 BYTE   W03
 BYTE   BEND   c_v-64
 BYTE   W96
//  #02 //063   ----------------------------------------
 BYTE   W48
 BYTE   W96
//  #02 //064   ----------------------------------------
 BYTE   W44
 BYTE   W02
 BYTE   EOT
 BYTE   W01
 BYTE   GoTo
  POIN2 Label_014E5D7A
 BYTE   FINE

//**************** Track 3 (Midi-Chn.2) ****************//

GameOverTheme_003:
//  #03 //000   ----------------------------------------
 BYTE   KEYSH   GameOverTheme_key+0
 BYTE   VOICE   70
 BYTE   VOL   20*GameOverTheme_mvl/mxv
 BYTE   BENDR  12
 BYTE   W96
//  #03 //001   ----------------------------------------
 BYTE   W48
 BYTE   W96
//  #03 //002   ----------------------------------------
 BYTE   W48
 BYTE   W96
//  #03 //003   ----------------------------------------
 BYTE   W48
 BYTE   W96
//  #03 //004   ----------------------------------------
 BYTE   W48
 BYTE   W96
//  #03 //005   ----------------------------------------
 BYTE   W48
 BYTE   W96
//  #03 //006   ----------------------------------------
 BYTE   W48
 BYTE   W96
//  #03 //007   ----------------------------------------
 BYTE   W48
 BYTE   W96
//  #03 //008   ----------------------------------------
 BYTE   W48
 BYTE   W96
//  #03 //009   ----------------------------------------
 BYTE   W48
 BYTE   W96
//  #03 //010   ----------------------------------------
 BYTE   W48
 BYTE   W96
//  #03 //011   ----------------------------------------
 BYTE   W48
 BYTE   W96
//  #03 //012   ----------------------------------------
 BYTE   W48
 BYTE   W96
//  #03 //013   ----------------------------------------
 BYTE   W48
 BYTE   W96
//  #03 //014   ----------------------------------------
 BYTE   W48
 BYTE   W96
//  #03 //015   ----------------------------------------
 BYTE   W48
 BYTE   W96
//  #03 //016   ----------------------------------------
 BYTE   W48
 BYTE   W96
//  #03 //017   ----------------------------------------
 BYTE   W48
 BYTE   W96
//  #03 //018   ----------------------------------------
 BYTE   W48
 BYTE   W96
//  #03 //019   ----------------------------------------
 BYTE   W48
 BYTE   W96
//  #03 //020   ----------------------------------------
 BYTE   W48
 BYTE   W96
//  #03 //021   ----------------------------------------
 BYTE   W48
 BYTE   W96
//  #03 //022   ----------------------------------------
 BYTE   W48
 BYTE   W96
//  #03 //023   ----------------------------------------
 BYTE   W48
 BYTE   W96
//  #03 //024   ----------------------------------------
 BYTE   W48
 BYTE   W96
//  #03 //025   ----------------------------------------
 BYTE   W48
 BYTE   W96
//  #03 //026   ----------------------------------------
 BYTE   W48
 BYTE   W96
//  #03 //027   ----------------------------------------
 BYTE   W48
 BYTE   W96
//  #03 //028   ----------------------------------------
 BYTE   W48
 BYTE   W96
//  #03 //029   ----------------------------------------
 BYTE   W48
 BYTE   W96
//  #03 //030   ----------------------------------------
 BYTE   W48
 BYTE   W96
//  #03 //031   ----------------------------------------
 BYTE   W48
 BYTE   W96
//  #03 //032   ----------------------------------------
 BYTE   W48
 BYTE   W24
 BYTE   W03
 BYTE   BEND   c_v+1
 BYTE   TIE  Gn1  v072
 BYTE   W96
//  #03 //033   ----------------------------------------
 BYTE   W21
 BYTE   W96
//  #03 //034   ----------------------------------------
 BYTE   W48
 BYTE   W96
//  #03 //035   ----------------------------------------
 BYTE   W48
 BYTE   W96
//  #03 //036   ----------------------------------------
 BYTE   W48
 BYTE   W96
//  #03 //037   ----------------------------------------
 BYTE   W48
 BYTE   W96
//  #03 //038   ----------------------------------------
 BYTE   W48
 BYTE   W96
//  #03 //039   ----------------------------------------
 BYTE   W48
 BYTE   W96
//  #03 //040   ----------------------------------------
 BYTE   W44
 BYTE   EOT
 BYTE   W03
Label_014E5ADD:
 BYTE   W01
 BYTE   W24
 BYTE   W03
 BYTE   BEND   c_v+1
 BYTE   TIE  En1  v072
 BYTE   W96
//  #03 //041   ----------------------------------------
 BYTE   W21
 BYTE   W96
//  #03 //042   ----------------------------------------
 BYTE   W48
 BYTE   W15
 BYTE   BEND   c_v+3
 BYTE   W03
 BYTE   BEND   c_v+9
 BYTE   W03
 BYTE   BEND   c_v+15
 BYTE   W03
 BYTE   BEND   c_v+20
 BYTE   W03
 BYTE   BEND   c_v+27
 BYTE   W96
//  #03 //043   ----------------------------------------
 BYTE   W21
 BYTE   W96
//  #03 //044   ----------------------------------------
 BYTE   W48
 BYTE   W15
 BYTE   BEND   c_v+26
 BYTE   W03
 BYTE   BEND   c_v+22
 BYTE   W03
 BYTE   BEND   c_v+18
 BYTE   W03
 BYTE   BEND   c_v+15
 BYTE   W03
 BYTE   BEND   c_v+11
 BYTE   W96
//  #03 //045   ----------------------------------------
 BYTE   W21
 BYTE   W96
//  #03 //046   ----------------------------------------
 BYTE   W48
 BYTE   W21
 BYTE   BEND   c_v+13
 BYTE   W03
 BYTE   BEND   c_v+15
 BYTE   W03
 BYTE   BEND   c_v+17
 BYTE   W96
//  #03 //047   ----------------------------------------
 BYTE   W21
 BYTE   W96
//  #03 //048   ----------------------------------------
 BYTE   W48
 BYTE   W24
 BYTE   W03
 BYTE   EOT
 BYTE   BEND   c_v+1
 BYTE   TIE  Bn1
 BYTE   W96
//  #03 //049   ----------------------------------------
 BYTE   W21
 BYTE   W96
//  #03 //050   ----------------------------------------
 BYTE   W48
 BYTE   W21
 BYTE   BEND   c_v-1
 BYTE   W03
 BYTE   BEND   c_v-3
 BYTE   W03
 BYTE   BEND   c_v-5
 BYTE   W96
//  #03 //051   ----------------------------------------
 BYTE   W21
 BYTE   W96
//  #03 //052   ----------------------------------------
 BYTE   W48
 BYTE   W21
 BYTE   BEND   c_v-7
 BYTE   W03
 BYTE   BEND   c_v-9
 BYTE   W03
 BYTE   BEND   c_v-10
 BYTE   W96
//  #03 //053   ----------------------------------------
 BYTE   W21
 BYTE   W96
//  #03 //054   ----------------------------------------
 BYTE   W48
 BYTE   W06
 BYTE   BEND   c_v-9
 BYTE   W03
 BYTE   BEND   c_v-2
 BYTE   W03
 BYTE   BEND   c_v+6
 BYTE   W03
 BYTE   BEND   c_v+14
 BYTE   W03
 BYTE   BEND   c_v+21
 BYTE   W03
 BYTE   BEND   c_v+28
 BYTE   W03
 BYTE   BEND   c_v+36
 BYTE   W03
 BYTE   BEND   c_v+43
 BYTE   W96
//  #03 //055   ----------------------------------------
 BYTE   W21
 BYTE   W96
//  #03 //056   ----------------------------------------
 BYTE   W48
 BYTE   W24
 BYTE   W03
 BYTE   EOT
 BYTE   BEND   c_v+1
 BYTE   TIE  Fs2
 BYTE   W96
//  #03 //057   ----------------------------------------
 BYTE   W21
 BYTE   W96
//  #03 //058   ----------------------------------------
 BYTE   W48
 BYTE   W24
 BYTE   W03
 BYTE   EOT
 BYTE   BEND   c_v+1
 BYTE   TIE  Gn2
 BYTE   W96
//  #03 //059   ----------------------------------------
 BYTE   W21
 BYTE   W96
//  #03 //060   ----------------------------------------
 BYTE   W48
 BYTE   W18
 BYTE   BEND   c_v+3
 BYTE   W03
 BYTE   BEND   c_v+5
 BYTE   W03
 BYTE   BEND   c_v+9
 BYTE   W03
 BYTE   BEND   c_v+11
 BYTE   W96
//  #03 //061   ----------------------------------------
 BYTE   W21
 BYTE   W96
//  #03 //062   ----------------------------------------
 BYTE   W36
 BYTE   BEND   c_v+10
 BYTE   W03
 BYTE   BEND   c_v+4
 BYTE   W03
 BYTE   BEND   c_v-2
 BYTE   W03
 BYTE   BEND   c_v-7
 BYTE   W03
 BYTE   BEND   c_v-14
 BYTE   W03
 BYTE   BEND   c_v-18
 BYTE   W03
 BYTE   BEND   c_v-24
 BYTE   W03
 BYTE   BEND   c_v-30
 BYTE   W03
 BYTE   BEND   c_v-36
 BYTE   W03
 BYTE   BEND   c_v-41
 BYTE   W03
 BYTE   BEND   c_v-46
 BYTE   W03
 BYTE   BEND   c_v-52
 BYTE   W03
 BYTE   BEND   c_v-58
 BYTE   W03
 BYTE   BEND   c_v-63
 BYTE   W96
//  #03 //063   ----------------------------------------
 BYTE   W21
 BYTE   W96
//  #03 //064   ----------------------------------------
 BYTE   W44
 BYTE   EOT
 BYTE   W03
 BYTE   GoTo
  POIN2 Label_014E5ADD
 BYTE   FINE

//**************** Track 4 (Midi-Chn.3) ****************//

GameOverTheme_004:
//  #04 //000   ----------------------------------------
 BYTE   KEYSH   GameOverTheme_key+0
 BYTE   VOICE   105
 BYTE   VOL   50*GameOverTheme_mvl/mxv
 BYTE   N05  En3  v060
 BYTE   W24
 BYTE   Gn3
 BYTE   W24
 BYTE   Dn4
 BYTE   W24
 BYTE   En4
 BYTE   W24
//  #04 //001   ----------------------------------------
 BYTE   Dn4
 BYTE   W24
 BYTE   Gn3
 BYTE   W24
Label_01018A7C:
 BYTE   N05  En3  v060
 BYTE   W24
 BYTE   Gn3
 BYTE   W24
//  #04 //002   ----------------------------------------
 BYTE   Dn4
 BYTE   W24
 BYTE   En4
 BYTE   W24
 BYTE   Dn4
 BYTE   W24
 BYTE   Gn3
 BYTE   W24
 BYTE   PEND 
//  #04 //003   ----------------------------------------
Label_01018A8B:
 BYTE   N05  En3  v060
 BYTE   W24
 BYTE   Gn3
 BYTE   W24
 BYTE   Cs4
 BYTE   W24
 BYTE   En4
 BYTE   W24
//  #04 //004   ----------------------------------------
 BYTE   Cs4
 BYTE   W24
 BYTE   Gn3
 BYTE   W24
 BYTE   PEND 
//  #04 //005   ----------------------------------------
 BYTE   PATT
  POIN2 Label_01018A8B
//  #04 //006   ----------------------------------------
Label_01018A9F:
 BYTE   N05  En3  v060
 BYTE   W24
 BYTE   Gn3
 BYTE   W24
 BYTE   Cn4
 BYTE   W24
 BYTE   En4
 BYTE   W24
//  #04 //007   ----------------------------------------
 BYTE   Cn4
 BYTE   W24
 BYTE   Gn3
 BYTE   W24
 BYTE   PEND 
//  #04 //008   ----------------------------------------
 BYTE   PATT
  POIN2 Label_01018A9F
//  #04 //009   ----------------------------------------
Label_01018AB3:
 BYTE   N05  En3  v060
 BYTE   W24
 BYTE   Gn3
 BYTE   W24
 BYTE   Bn3
 BYTE   W24
 BYTE   Dn4
 BYTE   W24
//  #04 //010   ----------------------------------------
 BYTE   Bn3
 BYTE   W24
 BYTE   Gn3
 BYTE   W24
 BYTE   PEND 
//  #04 //011   ----------------------------------------
 BYTE   PATT
  POIN2 Label_01018AB3
//  #04 //012   ----------------------------------------
 BYTE   PATT
  POIN2 Label_01018A7C
//  #04 //013   ----------------------------------------
 BYTE   PATT
  POIN2 Label_01018A7C
//  #04 //014   ----------------------------------------
 BYTE   PATT
  POIN2 Label_01018A8B
//  #04 //015   ----------------------------------------
 BYTE   PATT
  POIN2 Label_01018A8B
//  #04 //016   ----------------------------------------
 BYTE   PATT
  POIN2 Label_01018A9F
//  #04 //017   ----------------------------------------
 BYTE   PATT
  POIN2 Label_01018A9F
//  #04 //018   ----------------------------------------
 BYTE   PATT
  POIN2 Label_01018AB3
//  #04 //019   ----------------------------------------
 BYTE   PATT
  POIN2 Label_01018AB3
//  #04 //020   ----------------------------------------
 BYTE   PATT
  POIN2 Label_01018A7C
//  #04 //021   ----------------------------------------
 BYTE   PATT
  POIN2 Label_01018A7C
//  #04 //022   ----------------------------------------
 BYTE   PATT
  POIN2 Label_01018A8B
//  #04 //023   ----------------------------------------
 BYTE   PATT
  POIN2 Label_01018A8B
//  #04 //024   ----------------------------------------
 BYTE   PATT
  POIN2 Label_01018A9F
//  #04 //025   ----------------------------------------
 BYTE   PATT
  POIN2 Label_01018A9F
//  #04 //026   ----------------------------------------
 BYTE   PATT
  POIN2 Label_01018AB3
//  #04 //027   ----------------------------------------
 BYTE   PATT
  POIN2 Label_01018AB3
//  #04 //028   ----------------------------------------
 BYTE   PATT
  POIN2 Label_01018A7C
//  #04 //029   ----------------------------------------
 BYTE   PATT
  POIN2 Label_01018A7C
//  #04 //030   ----------------------------------------
 BYTE   PATT
  POIN2 Label_01018A8B
//  #04 //031   ----------------------------------------
 BYTE   PATT
  POIN2 Label_01018A8B
//  #04 //032   ----------------------------------------
 BYTE   PATT
  POIN2 Label_01018A9F
//  #04 //033   ----------------------------------------
 BYTE   PATT
  POIN2 Label_01018A9F
//  #04 //034   ----------------------------------------
 BYTE   PATT
  POIN2 Label_01018AB3
//  #04 //035   ----------------------------------------
 BYTE   PATT
  POIN2 Label_01018AB3
//  #04 //036   ----------------------------------------
 BYTE   PATT
  POIN2 Label_01018A7C
//  #04 //037   ----------------------------------------
 BYTE   PATT
  POIN2 Label_01018A7C
//  #04 //038   ----------------------------------------
 BYTE   PATT
  POIN2 Label_01018A8B
//  #04 //039   ----------------------------------------
 BYTE   PATT
  POIN2 Label_01018A8B
//  #04 //040   ----------------------------------------
 BYTE   PATT
  POIN2 Label_01018A9F
//  #04 //041   ----------------------------------------
 BYTE   PATT
  POIN2 Label_01018A9F
//  #04 //042   ----------------------------------------
 BYTE   PATT
  POIN2 Label_01018AB3
//  #04 //043   ----------------------------------------
 BYTE   N05  En3  v060
 BYTE   W24
 BYTE   Gn3
 BYTE   W24
 BYTE   Bn3
 BYTE   W24
 BYTE   Dn4
 BYTE   W24
//  #04 //044   ----------------------------------------
 BYTE   Bn3
 BYTE   W24
 BYTE   Gn3
 BYTE   W23
Label_01018B70:
 BYTE   W01
//  #04 //045   ----------------------------------------
 BYTE   PATT
  POIN2 Label_01018A7C
//  #04 //046   ----------------------------------------
 BYTE   PATT
  POIN2 Label_01018A7C
//  #04 //047   ----------------------------------------
 BYTE   PATT
  POIN2 Label_01018A8B
//  #04 //048   ----------------------------------------
 BYTE   PATT
  POIN2 Label_01018A8B
//  #04 //049   ----------------------------------------
 BYTE   PATT
  POIN2 Label_01018A9F
//  #04 //050   ----------------------------------------
 BYTE   PATT
  POIN2 Label_01018A9F
//  #04 //051   ----------------------------------------
 BYTE   PATT
  POIN2 Label_01018AB3
//  #04 //052   ----------------------------------------
 BYTE   PATT
  POIN2 Label_01018AB3
//  #04 //053   ----------------------------------------
 BYTE   PATT
  POIN2 Label_01018A7C
//  #04 //054   ----------------------------------------
 BYTE   PATT
  POIN2 Label_01018A7C
//  #04 //055   ----------------------------------------
 BYTE   PATT
  POIN2 Label_01018A8B
//  #04 //056   ----------------------------------------
 BYTE   PATT
  POIN2 Label_01018A8B
//  #04 //057   ----------------------------------------
 BYTE   PATT
  POIN2 Label_01018A9F
//  #04 //058   ----------------------------------------
 BYTE   PATT
  POIN2 Label_01018A9F
//  #04 //059   ----------------------------------------
 BYTE   PATT
  POIN2 Label_01018AB3
//  #04 //060   ----------------------------------------
 BYTE   PATT
  POIN2 Label_01018AB3
//  #04 //061   ----------------------------------------
 BYTE   PATT
  POIN2 Label_01018A7C
//  #04 //062   ----------------------------------------
 BYTE   PATT
  POIN2 Label_01018A7C
//  #04 //063   ----------------------------------------
 BYTE   PATT
  POIN2 Label_01018A8B
//  #04 //064   ----------------------------------------
 BYTE   PATT
  POIN2 Label_01018A8B
//  #04 //065   ----------------------------------------
 BYTE   PATT
  POIN2 Label_01018A9F
//  #04 //066   ----------------------------------------
 BYTE   PATT
  POIN2 Label_01018A9F
//  #04 //067   ----------------------------------------
 BYTE   PATT
  POIN2 Label_01018AB3
//  #04 //068   ----------------------------------------
 BYTE   N05  En3  v060
 BYTE   W24
 BYTE   Gn3
 BYTE   W24
 BYTE   Bn3
 BYTE   W24
 BYTE   Dn4
 BYTE   W24
//  #04 //069   ----------------------------------------
 BYTE   Bn3
 BYTE   W24
 BYTE   Gn3
 BYTE   W23
 BYTE   GoTo
  POIN2 Label_01018B70
 BYTE   FINE

//**************** Track 5 (Midi-Chn.4) ****************//

GameOverTheme_005:
//  #05 //000   ----------------------------------------
 BYTE   KEYSH   GameOverTheme_key+0
 BYTE   W15
 BYTE   VOICE   105
 BYTE   VOL   40*GameOverTheme_mvl/mxv
 BYTE   N06  En3  v060
 BYTE   W24
 BYTE   Gn3
 BYTE   W24
 BYTE   Dn4
 BYTE   W24
 BYTE   En4
 BYTE   W24
//  #05 //001   ----------------------------------------
 BYTE   Dn4
 BYTE   W24
 BYTE   Gn3
 BYTE   W09
Label_014E6051:
 BYTE   W15
 BYTE   N06  En3  v060
 BYTE   W24
 BYTE   Gn3
 BYTE   W24
//  #05 //002   ----------------------------------------
 BYTE   Dn4
 BYTE   W24
 BYTE   En4
 BYTE   W24
 BYTE   Dn4
 BYTE   W24
 BYTE   Gn3
 BYTE   W09
 BYTE   PEND 
Label_014E6061:
 BYTE   W15
//  #05 //003   ----------------------------------------
 BYTE   N06  En3  v060
 BYTE   W24
 BYTE   Gn3
 BYTE   W24
 BYTE   Cs4
 BYTE   W24
 BYTE   En4
 BYTE   W24
//  #05 //004   ----------------------------------------
 BYTE   Cs4
 BYTE   W24
 BYTE   Gn3
 BYTE   W09
 BYTE   PEND 
//  #05 //005   ----------------------------------------
 BYTE   PATT
  POIN2 Label_014E6061
//  #05 //006   ----------------------------------------
Label_014E6076:
 BYTE   W15
 BYTE   N06  En3  v060
 BYTE   W24
 BYTE   Gn3
 BYTE   W24
 BYTE   Cn4
 BYTE   W24
 BYTE   En4
 BYTE   W24
//  #05 //007   ----------------------------------------
 BYTE   Cn4
 BYTE   W24
 BYTE   Gn3
 BYTE   W09
 BYTE   PEND 
//  #05 //008   ----------------------------------------
 BYTE   PATT
  POIN2 Label_014E6076
//  #05 //009   ----------------------------------------
Label_014E608B:
 BYTE   W15
 BYTE   N06  En3  v060
 BYTE   W24
 BYTE   Gn3
 BYTE   W24
 BYTE   Bn3
 BYTE   W24
 BYTE   Dn4
 BYTE   W24
//  #05 //010   ----------------------------------------
 BYTE   Bn3
 BYTE   W24
 BYTE   Gn3
 BYTE   W09
 BYTE   PEND 
//  #05 //011   ----------------------------------------
 BYTE   PATT
  POIN2 Label_014E608B
//  #05 //012   ----------------------------------------
 BYTE   PATT
  POIN2 Label_014E6051
//  #05 //013   ----------------------------------------
 BYTE   PATT
  POIN2 Label_014E6051
//  #05 //014   ----------------------------------------
 BYTE   PATT
  POIN2 Label_014E6061
//  #05 //015   ----------------------------------------
 BYTE   PATT
  POIN2 Label_014E6061
//  #05 //016   ----------------------------------------
 BYTE   PATT
  POIN2 Label_014E6076
//  #05 //017   ----------------------------------------
 BYTE   PATT
  POIN2 Label_014E6076
//  #05 //018   ----------------------------------------
 BYTE   PATT
  POIN2 Label_014E608B
//  #05 //019   ----------------------------------------
 BYTE   PATT
  POIN2 Label_014E608B
//  #05 //020   ----------------------------------------
 BYTE   PATT
  POIN2 Label_014E6051
//  #05 //021   ----------------------------------------
 BYTE   PATT
  POIN2 Label_014E6051
//  #05 //022   ----------------------------------------
 BYTE   PATT
  POIN2 Label_014E6061
//  #05 //023   ----------------------------------------
 BYTE   PATT
  POIN2 Label_014E6061
//  #05 //024   ----------------------------------------
 BYTE   PATT
  POIN2 Label_014E6076
//  #05 //025   ----------------------------------------
 BYTE   PATT
  POIN2 Label_014E6076
//  #05 //026   ----------------------------------------
 BYTE   PATT
  POIN2 Label_014E608B
//  #05 //027   ----------------------------------------
 BYTE   PATT
  POIN2 Label_014E608B
//  #05 //028   ----------------------------------------
 BYTE   PATT
  POIN2 Label_014E6051
//  #05 //029   ----------------------------------------
 BYTE   PATT
  POIN2 Label_014E6051
//  #05 //030   ----------------------------------------
 BYTE   PATT
  POIN2 Label_014E6061
//  #05 //031   ----------------------------------------
 BYTE   PATT
  POIN2 Label_014E6061
//  #05 //032   ----------------------------------------
 BYTE   PATT
  POIN2 Label_014E6076
//  #05 //033   ----------------------------------------
 BYTE   PATT
  POIN2 Label_014E6076
//  #05 //034   ----------------------------------------
 BYTE   PATT
  POIN2 Label_014E608B
//  #05 //035   ----------------------------------------
 BYTE   PATT
  POIN2 Label_014E608B
//  #05 //036   ----------------------------------------
 BYTE   PATT
  POIN2 Label_014E6051
//  #05 //037   ----------------------------------------
 BYTE   PATT
  POIN2 Label_014E6051
//  #05 //038   ----------------------------------------
 BYTE   PATT
  POIN2 Label_014E6061
//  #05 //039   ----------------------------------------
 BYTE   PATT
  POIN2 Label_014E6061
//  #05 //040   ----------------------------------------
 BYTE   PATT
  POIN2 Label_014E6076
//  #05 //041   ----------------------------------------
 BYTE   PATT
  POIN2 Label_014E6076
//  #05 //042   ----------------------------------------
 BYTE   PATT
  POIN2 Label_014E608B
//  #05 //043   ----------------------------------------
 BYTE   PATT
  POIN2 Label_014E608B
//  #05 //044   ----------------------------------------
 BYTE   W14
Label_014E6141:
 BYTE   W01
 BYTE   N06  En3  v060
 BYTE   W24
 BYTE   Gn3
 BYTE   W24
 BYTE   Dn4
 BYTE   W24
 BYTE   En4
 BYTE   W24
//  #05 //045   ----------------------------------------
 BYTE   Dn4
 BYTE   W24
 BYTE   Gn3
 BYTE   W09
//  #05 //046   ----------------------------------------
 BYTE   PATT
  POIN2 Label_014E6051
//  #05 //047   ----------------------------------------
 BYTE   PATT
  POIN2 Label_014E6061
//  #05 //048   ----------------------------------------
 BYTE   PATT
  POIN2 Label_014E6061
//  #05 //049   ----------------------------------------
 BYTE   PATT
  POIN2 Label_014E6076
//  #05 //050   ----------------------------------------
 BYTE   PATT
  POIN2 Label_014E6076
//  #05 //051   ----------------------------------------
 BYTE   PATT
  POIN2 Label_014E608B
//  #05 //052   ----------------------------------------
 BYTE   PATT
  POIN2 Label_014E608B
//  #05 //053   ----------------------------------------
 BYTE   PATT
  POIN2 Label_014E6051
//  #05 //054   ----------------------------------------
 BYTE   PATT
  POIN2 Label_014E6051
//  #05 //055   ----------------------------------------
 BYTE   PATT
  POIN2 Label_014E6061
//  #05 //056   ----------------------------------------
 BYTE   PATT
  POIN2 Label_014E6061
//  #05 //057   ----------------------------------------
 BYTE   PATT
  POIN2 Label_014E6076
//  #05 //058   ----------------------------------------
 BYTE   PATT
  POIN2 Label_014E6076
//  #05 //059   ----------------------------------------
 BYTE   PATT
  POIN2 Label_014E608B
//  #05 //060   ----------------------------------------
 BYTE   PATT
  POIN2 Label_014E608B
//  #05 //061   ----------------------------------------
 BYTE   PATT
  POIN2 Label_014E6051
//  #05 //062   ----------------------------------------
 BYTE   PATT
  POIN2 Label_014E6051
//  #05 //063   ----------------------------------------
 BYTE   PATT
  POIN2 Label_014E6061
//  #05 //064   ----------------------------------------
 BYTE   PATT
  POIN2 Label_014E6061
//  #05 //065   ----------------------------------------
 BYTE   PATT
  POIN2 Label_014E6076
//  #05 //066   ----------------------------------------
 BYTE   PATT
  POIN2 Label_014E6076
//  #05 //067   ----------------------------------------
 BYTE   PATT
  POIN2 Label_014E608B
//  #05 //068   ----------------------------------------
 BYTE   PATT
  POIN2 Label_014E608B
//  #05 //069   ----------------------------------------
 BYTE   W14
 BYTE   GoTo
  POIN2 Label_014E6141
 BYTE   FINE

//**************** Track 6 (Midi-Chn.5) ****************//

GameOverTheme_006:
//  #06 //000   ----------------------------------------
 BYTE   KEYSH   GameOverTheme_key+0
 BYTE   VOICE   105
 BYTE   VOL   50*GameOverTheme_mvl/mxv
 BYTE   N11  En2  v104
 BYTE   W24
 BYTE   Gn2
 BYTE   W24
 BYTE   Dn3
 BYTE   W24
 BYTE   En3
 BYTE   W24
//  #06 //001   ----------------------------------------
 BYTE   Dn3
 BYTE   W24
 BYTE   Gn2
 BYTE   W24
Label_01018C1C:
 BYTE   N11  En2  v104
 BYTE   W24
 BYTE   Gn2
 BYTE   W24
//  #06 //002   ----------------------------------------
 BYTE   Dn3
 BYTE   W24
 BYTE   En3
 BYTE   W24
 BYTE   Dn3
 BYTE   W24
 BYTE   Gn2
 BYTE   W24
 BYTE   PEND 
//  #06 //003   ----------------------------------------
Label_01018C2B:
 BYTE   N11  En2  v104
 BYTE   W24
 BYTE   Gn2
 BYTE   W24
 BYTE   Cs3
 BYTE   W24
 BYTE   En3
 BYTE   W24
//  #06 //004   ----------------------------------------
 BYTE   Cs3
 BYTE   W24
 BYTE   Gn2
 BYTE   W24
 BYTE   PEND 
//  #06 //005   ----------------------------------------
 BYTE   PATT
  POIN2 Label_01018C2B
//  #06 //006   ----------------------------------------
Label_01018C3F:
 BYTE   N11  En2  v104
 BYTE   W24
 BYTE   Gn2
 BYTE   W24
 BYTE   Cn3
 BYTE   W24
 BYTE   En3
 BYTE   W24
//  #06 //007   ----------------------------------------
 BYTE   Cn3
 BYTE   W24
 BYTE   Gn2
 BYTE   W24
 BYTE   PEND 
//  #06 //008   ----------------------------------------
 BYTE   PATT
  POIN2 Label_01018C3F
//  #06 //009   ----------------------------------------
Label_01018C53:
 BYTE   N11  En2  v104
 BYTE   W24
 BYTE   Gn2
 BYTE   W24
 BYTE   Bn2
 BYTE   W24
 BYTE   Dn3
 BYTE   W24
//  #06 //010   ----------------------------------------
 BYTE   Bn2
 BYTE   W24
 BYTE   Gn2
 BYTE   W24
 BYTE   PEND 
//  #06 //011   ----------------------------------------
 BYTE   PATT
  POIN2 Label_01018C53
//  #06 //012   ----------------------------------------
 BYTE   PATT
  POIN2 Label_01018C1C
//  #06 //013   ----------------------------------------
 BYTE   PATT
  POIN2 Label_01018C1C
//  #06 //014   ----------------------------------------
 BYTE   PATT
  POIN2 Label_01018C2B
//  #06 //015   ----------------------------------------
 BYTE   PATT
  POIN2 Label_01018C2B
//  #06 //016   ----------------------------------------
 BYTE   PATT
  POIN2 Label_01018C3F
//  #06 //017   ----------------------------------------
 BYTE   PATT
  POIN2 Label_01018C3F
//  #06 //018   ----------------------------------------
 BYTE   PATT
  POIN2 Label_01018C53
//  #06 //019   ----------------------------------------
 BYTE   PATT
  POIN2 Label_01018C53
//  #06 //020   ----------------------------------------
 BYTE   PATT
  POIN2 Label_01018C1C
//  #06 //021   ----------------------------------------
 BYTE   PATT
  POIN2 Label_01018C1C
//  #06 //022   ----------------------------------------
 BYTE   PATT
  POIN2 Label_01018C2B
//  #06 //023   ----------------------------------------
 BYTE   PATT
  POIN2 Label_01018C2B
//  #06 //024   ----------------------------------------
 BYTE   PATT
  POIN2 Label_01018C3F
//  #06 //025   ----------------------------------------
 BYTE   PATT
  POIN2 Label_01018C3F
//  #06 //026   ----------------------------------------
 BYTE   PATT
  POIN2 Label_01018C53
//  #06 //027   ----------------------------------------
 BYTE   PATT
  POIN2 Label_01018C53
//  #06 //028   ----------------------------------------
 BYTE   PATT
  POIN2 Label_01018C1C
//  #06 //029   ----------------------------------------
 BYTE   PATT
  POIN2 Label_01018C1C
//  #06 //030   ----------------------------------------
 BYTE   PATT
  POIN2 Label_01018C2B
//  #06 //031   ----------------------------------------
 BYTE   PATT
  POIN2 Label_01018C2B
//  #06 //032   ----------------------------------------
 BYTE   PATT
  POIN2 Label_01018C3F
//  #06 //033   ----------------------------------------
 BYTE   PATT
  POIN2 Label_01018C3F
//  #06 //034   ----------------------------------------
 BYTE   PATT
  POIN2 Label_01018C53
//  #06 //035   ----------------------------------------
 BYTE   PATT
  POIN2 Label_01018C53
//  #06 //036   ----------------------------------------
 BYTE   PATT
  POIN2 Label_01018C1C
//  #06 //037   ----------------------------------------
 BYTE   PATT
  POIN2 Label_01018C1C
//  #06 //038   ----------------------------------------
 BYTE   PATT
  POIN2 Label_01018C2B
//  #06 //039   ----------------------------------------
 BYTE   PATT
  POIN2 Label_01018C2B
//  #06 //040   ----------------------------------------
 BYTE   PATT
  POIN2 Label_01018C3F
//  #06 //041   ----------------------------------------
 BYTE   PATT
  POIN2 Label_01018C3F
//  #06 //042   ----------------------------------------
 BYTE   PATT
  POIN2 Label_01018C53
//  #06 //043   ----------------------------------------
 BYTE   N11  En2  v104
 BYTE   W24
 BYTE   Gn2
 BYTE   W24
 BYTE   Bn2
 BYTE   W24
 BYTE   Dn3
 BYTE   W24
//  #06 //044   ----------------------------------------
 BYTE   Bn2
 BYTE   W24
 BYTE   Gn2
 BYTE   W23
Label_01018D10:
 BYTE   W01
//  #06 //045   ----------------------------------------
 BYTE   PATT
  POIN2 Label_01018C1C
//  #06 //046   ----------------------------------------
 BYTE   PATT
  POIN2 Label_01018C1C
//  #06 //047   ----------------------------------------
 BYTE   PATT
  POIN2 Label_01018C2B
//  #06 //048   ----------------------------------------
 BYTE   PATT
  POIN2 Label_01018C2B
//  #06 //049   ----------------------------------------
 BYTE   PATT
  POIN2 Label_01018C3F
//  #06 //050   ----------------------------------------
 BYTE   PATT
  POIN2 Label_01018C3F
//  #06 //051   ----------------------------------------
 BYTE   PATT
  POIN2 Label_01018C53
//  #06 //052   ----------------------------------------
 BYTE   PATT
  POIN2 Label_01018C53
//  #06 //053   ----------------------------------------
 BYTE   PATT
  POIN2 Label_01018C1C
//  #06 //054   ----------------------------------------
 BYTE   PATT
  POIN2 Label_01018C1C
//  #06 //055   ----------------------------------------
 BYTE   PATT
  POIN2 Label_01018C2B
//  #06 //056   ----------------------------------------
 BYTE   PATT
  POIN2 Label_01018C2B
//  #06 //057   ----------------------------------------
 BYTE   PATT
  POIN2 Label_01018C3F
//  #06 //058   ----------------------------------------
 BYTE   PATT
  POIN2 Label_01018C3F
//  #06 //059   ----------------------------------------
 BYTE   PATT
  POIN2 Label_01018C53
//  #06 //060   ----------------------------------------
 BYTE   PATT
  POIN2 Label_01018C53
//  #06 //061   ----------------------------------------
 BYTE   PATT
  POIN2 Label_01018C1C
//  #06 //062   ----------------------------------------
 BYTE   PATT
  POIN2 Label_01018C1C
//  #06 //063   ----------------------------------------
 BYTE   PATT
  POIN2 Label_01018C2B
//  #06 //064   ----------------------------------------
 BYTE   PATT
  POIN2 Label_01018C2B
//  #06 //065   ----------------------------------------
 BYTE   PATT
  POIN2 Label_01018C3F
//  #06 //066   ----------------------------------------
 BYTE   PATT
  POIN2 Label_01018C3F
//  #06 //067   ----------------------------------------
 BYTE   PATT
  POIN2 Label_01018C53
//  #06 //068   ----------------------------------------
 BYTE   N11  En2  v104
 BYTE   W24
 BYTE   Gn2
 BYTE   W24
 BYTE   Bn2
 BYTE   W24
 BYTE   Dn3
 BYTE   W24
//  #06 //069   ----------------------------------------
 BYTE   Bn2
 BYTE   W24
 BYTE   Gn2
 BYTE   W23
 BYTE   GoTo
  POIN2 Label_01018D10
 BYTE   FINE

//**************** Track 7 (Midi-Chn.6) ****************//

GameOverTheme_007:
//  #07 //000   ----------------------------------------
 BYTE   KEYSH   GameOverTheme_key+0
 BYTE   W15
 BYTE   VOICE   105
 BYTE   VOL   40*GameOverTheme_mvl/mxv
 BYTE   N11  En2  v104
 BYTE   W24
 BYTE   Gn2
 BYTE   W24
 BYTE   Dn3
 BYTE   W24
 BYTE   En3
 BYTE   W24
//  #07 //001   ----------------------------------------
 BYTE   Dn3
 BYTE   W24
 BYTE   Gn2
 BYTE   W09
Label_01018DBD:
 BYTE   W15
 BYTE   N11  En2  v104
 BYTE   W24
 BYTE   Gn2
 BYTE   W24
//  #07 //002   ----------------------------------------
 BYTE   Dn3
 BYTE   W24
 BYTE   En3
 BYTE   W24
 BYTE   Dn3
 BYTE   W24
 BYTE   Gn2
 BYTE   W09
 BYTE   PEND 
Label_01018DCD:
 BYTE   W15
//  #07 //003   ----------------------------------------
 BYTE   N11  En2  v104
 BYTE   W24
 BYTE   Gn2
 BYTE   W24
 BYTE   Cs3
 BYTE   W24
 BYTE   En3
 BYTE   W24
//  #07 //004   ----------------------------------------
 BYTE   Cs3
 BYTE   W24
 BYTE   Gn2
 BYTE   W09
 BYTE   PEND 
//  #07 //005   ----------------------------------------
 BYTE   PATT
  POIN2 Label_01018DCD
//  #07 //006   ----------------------------------------
Label_01018DE2:
 BYTE   W15
 BYTE   N11  En2  v104
 BYTE   W24
 BYTE   Gn2
 BYTE   W24
 BYTE   Cn3
 BYTE   W24
 BYTE   En3
 BYTE   W24
//  #07 //007   ----------------------------------------
 BYTE   Cn3
 BYTE   W24
 BYTE   Gn2
 BYTE   W09
 BYTE   PEND 
//  #07 //008   ----------------------------------------
 BYTE   PATT
  POIN2 Label_01018DE2
//  #07 //009   ----------------------------------------
Label_01018DF7:
 BYTE   W15
 BYTE   N11  En2  v104
 BYTE   W24
 BYTE   Gn2
 BYTE   W24
 BYTE   Bn2
 BYTE   W24
 BYTE   Dn3
 BYTE   W24
//  #07 //010   ----------------------------------------
 BYTE   Bn2
 BYTE   W24
 BYTE   Gn2
 BYTE   W09
 BYTE   PEND 
//  #07 //011   ----------------------------------------
 BYTE   PATT
  POIN2 Label_01018DF7
//  #07 //012   ----------------------------------------
 BYTE   PATT
  POIN2 Label_01018DBD
//  #07 //013   ----------------------------------------
 BYTE   PATT
  POIN2 Label_01018DBD
//  #07 //014   ----------------------------------------
 BYTE   PATT
  POIN2 Label_01018DCD
//  #07 //015   ----------------------------------------
 BYTE   PATT
  POIN2 Label_01018DCD
//  #07 //016   ----------------------------------------
 BYTE   PATT
  POIN2 Label_01018DE2
//  #07 //017   ----------------------------------------
 BYTE   PATT
  POIN2 Label_01018DE2
//  #07 //018   ----------------------------------------
 BYTE   PATT
  POIN2 Label_01018DF7
//  #07 //019   ----------------------------------------
 BYTE   PATT
  POIN2 Label_01018DF7
//  #07 //020   ----------------------------------------
 BYTE   PATT
  POIN2 Label_01018DBD
//  #07 //021   ----------------------------------------
 BYTE   PATT
  POIN2 Label_01018DBD
//  #07 //022   ----------------------------------------
 BYTE   PATT
  POIN2 Label_01018DCD
//  #07 //023   ----------------------------------------
 BYTE   PATT
  POIN2 Label_01018DCD
//  #07 //024   ----------------------------------------
 BYTE   PATT
  POIN2 Label_01018DE2
//  #07 //025   ----------------------------------------
 BYTE   PATT
  POIN2 Label_01018DE2
//  #07 //026   ----------------------------------------
 BYTE   PATT
  POIN2 Label_01018DF7
//  #07 //027   ----------------------------------------
 BYTE   PATT
  POIN2 Label_01018DF7
//  #07 //028   ----------------------------------------
 BYTE   PATT
  POIN2 Label_01018DBD
//  #07 //029   ----------------------------------------
 BYTE   PATT
  POIN2 Label_01018DBD
//  #07 //030   ----------------------------------------
 BYTE   PATT
  POIN2 Label_01018DCD
//  #07 //031   ----------------------------------------
 BYTE   PATT
  POIN2 Label_01018DCD
//  #07 //032   ----------------------------------------
 BYTE   PATT
  POIN2 Label_01018DE2
//  #07 //033   ----------------------------------------
 BYTE   PATT
  POIN2 Label_01018DE2
//  #07 //034   ----------------------------------------
 BYTE   PATT
  POIN2 Label_01018DF7
//  #07 //035   ----------------------------------------
 BYTE   PATT
  POIN2 Label_01018DF7
//  #07 //036   ----------------------------------------
 BYTE   PATT
  POIN2 Label_01018DBD
//  #07 //037   ----------------------------------------
 BYTE   PATT
  POIN2 Label_01018DBD
//  #07 //038   ----------------------------------------
 BYTE   PATT
  POIN2 Label_01018DCD
//  #07 //039   ----------------------------------------
 BYTE   PATT
  POIN2 Label_01018DCD
//  #07 //040   ----------------------------------------
 BYTE   PATT
  POIN2 Label_01018DE2
//  #07 //041   ----------------------------------------
 BYTE   PATT
  POIN2 Label_01018DE2
//  #07 //042   ----------------------------------------
 BYTE   PATT
  POIN2 Label_01018DF7
//  #07 //043   ----------------------------------------
 BYTE   PATT
  POIN2 Label_01018DF7
//  #07 //044   ----------------------------------------
 BYTE   W14
Label_01018EAD:
 BYTE   W01
 BYTE   N11  En2  v104
 BYTE   W24
 BYTE   Gn2
 BYTE   W24
 BYTE   Dn3
 BYTE   W24
 BYTE   En3
 BYTE   W24
//  #07 //045   ----------------------------------------
 BYTE   Dn3
 BYTE   W24
 BYTE   Gn2
 BYTE   W09
//  #07 //046   ----------------------------------------
 BYTE   PATT
  POIN2 Label_01018DBD
//  #07 //047   ----------------------------------------
 BYTE   PATT
  POIN2 Label_01018DCD
//  #07 //048   ----------------------------------------
 BYTE   PATT
  POIN2 Label_01018DCD
//  #07 //049   ----------------------------------------
 BYTE   PATT
  POIN2 Label_01018DE2
//  #07 //050   ----------------------------------------
 BYTE   PATT
  POIN2 Label_01018DE2
//  #07 //051   ----------------------------------------
 BYTE   PATT
  POIN2 Label_01018DF7
//  #07 //052   ----------------------------------------
 BYTE   PATT
  POIN2 Label_01018DF7
//  #07 //053   ----------------------------------------
 BYTE   PATT
  POIN2 Label_01018DBD
//  #07 //054   ----------------------------------------
 BYTE   PATT
  POIN2 Label_01018DBD
//  #07 //055   ----------------------------------------
 BYTE   PATT
  POIN2 Label_01018DCD
//  #07 //056   ----------------------------------------
 BYTE   PATT
  POIN2 Label_01018DCD
//  #07 //057   ----------------------------------------
 BYTE   PATT
  POIN2 Label_01018DE2
//  #07 //058   ----------------------------------------
 BYTE   PATT
  POIN2 Label_01018DE2
//  #07 //059   ----------------------------------------
 BYTE   PATT
  POIN2 Label_01018DF7
//  #07 //060   ----------------------------------------
 BYTE   PATT
  POIN2 Label_01018DF7
//  #07 //061   ----------------------------------------
 BYTE   PATT
  POIN2 Label_01018DBD
//  #07 //062   ----------------------------------------
 BYTE   PATT
  POIN2 Label_01018DBD
//  #07 //063   ----------------------------------------
 BYTE   PATT
  POIN2 Label_01018DCD
//  #07 //064   ----------------------------------------
 BYTE   PATT
  POIN2 Label_01018DCD
//  #07 //065   ----------------------------------------
 BYTE   PATT
  POIN2 Label_01018DE2
//  #07 //066   ----------------------------------------
 BYTE   PATT
  POIN2 Label_01018DE2
//  #07 //067   ----------------------------------------
 BYTE   PATT
  POIN2 Label_01018DF7
//  #07 //068   ----------------------------------------
 BYTE   PATT
  POIN2 Label_01018DF7
//  #07 //069   ----------------------------------------
 BYTE   W14
 BYTE   GoTo
  POIN2 Label_01018EAD
 BYTE   FINE

//******************************************************//
	ALIGN 4

GameOverTheme:
	BYTE	7	// NumTrks
	BYTE	0	// NumBlks
	BYTE	GameOverTheme_pri	// Priority
	BYTE	GameOverTheme_rev	// Reverb.
    
	POIN2	GameOverTheme_grp
    
	POIN2	GameOverTheme_001
	POIN2	GameOverTheme_002
	POIN2	GameOverTheme_003
	POIN2	GameOverTheme_004
	POIN2	GameOverTheme_005
	POIN2	GameOverTheme_006
	POIN2	GameOverTheme_007

	
