//Event file generated from Sappy .s format.
	#include "MPlayDef.event"

	#define	Glory_grp  voicegroup000
	#define	Glory_pri  0
	#define	Glory_rev  0
	#define	Glory_mvl  127
	#define	Glory_key  0
	#define	Glory_tbs  1
	#define	Glory_exg  0
	#define	Glory_cmp  1

	// .rodata
	//	Glory
	ALIGN 4


//**************** Track 1 (Midi-Chn.0) ****************//

Glory_001:
// 000   ----------------------------------------
 BYTE   KEYSH   Glory_key+0
Label_0_BC34E6:
 BYTE   TEMPO   94*Glory_tbs/2
 BYTE   PAN   c_v+0
 BYTE   VOL   20*Glory_mvl/mxv
 BYTE   MOD 0
 BYTE   MOD 0
 BYTE   BEND   c_v+0
 BYTE   W04
 BYTE   VOICE   48
 BYTE   PAN   c_v-14
 BYTE   VOL   30*Glory_mvl/mxv
 BYTE   N12  Gn4  v127
 BYTE   W12
 BYTE   Cn4
 BYTE   W12
 BYTE   Dn4
 BYTE   W12
 BYTE   Gn4
 BYTE   W12
 BYTE   Cn4
 BYTE   W12
 BYTE   Dn4
 BYTE   W12
 BYTE   Gn4
 BYTE   W12
 BYTE   Cn4
 BYTE   W08
// 001   ----------------------------------------
Label_0_BC350A:
 BYTE   W04
 BYTE   N12  Dn4  v127
 BYTE   W12
 BYTE   Gn4
 BYTE   W12
 BYTE   Cn4
 BYTE   W12
 BYTE   Dn4
 BYTE   W12
 BYTE   Gn4
 BYTE   W12
 BYTE   Cn4
 BYTE   W12
 BYTE   Dn4
 BYTE   W12
 BYTE   Gn4
 BYTE   W08
 BYTE   PEND 
// 002   ----------------------------------------
 BYTE   W04
 BYTE   Cn4
 BYTE   W12
 BYTE   Dn4
 BYTE   W12
 BYTE   Gn4
 BYTE   W12
 BYTE   Cn4
 BYTE   W12
 BYTE   Dn4
 BYTE   W12
 BYTE   Gn4
 BYTE   W12
 BYTE   Cn4
 BYTE   W12
 BYTE   Dn4
 BYTE   W08
// 003   ----------------------------------------
 BYTE   W04
 BYTE   Gn4
 BYTE   W12
 BYTE   Cn4
 BYTE   W12
 BYTE   Dn4
 BYTE   W12
 BYTE   Gn4
 BYTE   W12
 BYTE   Cn4
 BYTE   W12
 BYTE   Dn4
 BYTE   W12
 BYTE   Gn4
 BYTE   W12
 BYTE   Cn4
 BYTE   W08
// 004   ----------------------------------------
 BYTE   PATT
  POIN2 Label_0_BC350A
// 005   ----------------------------------------
 BYTE   W04
 BYTE   N12  Cn4  v127
 BYTE   W12
 BYTE   Dn4
 BYTE   W12
 BYTE   TEMPO   84*Glory_tbs/2
 BYTE   Gn4
 BYTE   W12
 BYTE   Cn4
 BYTE   W12
 BYTE   Dn4
 BYTE   W12
 BYTE   TEMPO   74*Glory_tbs/2
 BYTE   Gn4
 BYTE   W12
 BYTE   Cn4
 BYTE   W12
 BYTE   Dn4
 BYTE   W08
// 006   ----------------------------------------
 BYTE   W04
 BYTE   TEMPO   94*Glory_tbs/2
 BYTE   VOICE   56
 BYTE   PAN   c_v+1
 BYTE   VOL   40*Glory_mvl/mxv
 BYTE   N56  Gn4
 BYTE   W60
 BYTE   N03
 BYTE   W06
 BYTE   N03
 BYTE   W06
 BYTE   N09
 BYTE   W20
// 007   ----------------------------------------
 BYTE   W04
 BYTE   Fn4
 BYTE   W24
 BYTE   As4
 BYTE   W24
 BYTE   TIE  Gn4
 BYTE   W44
// 008   ----------------------------------------
 BYTE   W84
 BYTE   W01
 BYTE   EOT
 BYTE   W11
// 009   ----------------------------------------
 BYTE   W04
 BYTE   VOL   35*Glory_mvl/mxv
 BYTE   N06  Gs2
 BYTE   W12
 BYTE   As2
 BYTE   W12
 BYTE   N10  Cn3
 BYTE   W12
 BYTE   N03  Ds3
 BYTE   W04
 BYTE   Cs3
 BYTE   W04
 BYTE   Cn3
 BYTE   W04
 BYTE   N06  Cs3
 BYTE   W12
 BYTE   As2
 BYTE   W12
 BYTE   Gs2
 BYTE   W12
 BYTE   As2
 BYTE   W08
// 010   ----------------------------------------
 BYTE   W04
 BYTE   N10  Cn3
 BYTE   W12
 BYTE   N05  Cs3
 BYTE   W06
 BYTE   As2
 BYTE   W06
 BYTE   N21  Gs2
 BYTE   W24
 BYTE   N06
 BYTE   W12
 BYTE   As2
 BYTE   W12
 BYTE   N10  Cn3
 BYTE   W12
 BYTE   N03  Ds3
 BYTE   W04
 BYTE   Cs3
 BYTE   W04
// 011   ----------------------------------------
 BYTE   Cn3
 BYTE   W04
 BYTE   N06  Cs3
 BYTE   W12
 BYTE   Fn3
 BYTE   W12
 BYTE   Gs3
 BYTE   W12
 BYTE   As3
 BYTE   W12
 BYTE   N10  Cn4
 BYTE   W12
 BYTE   N05  Cs4
 BYTE   W06
 BYTE   As3
 BYTE   W06
 BYTE   N21  Gs3
 BYTE   W20
// 012   ----------------------------------------
 BYTE   W04
 BYTE   N06  As3
 BYTE   W12
 BYTE   Gs3
 BYTE   W12
 BYTE   Fs3
 BYTE   W12
 BYTE   N10  En3
 BYTE   W12
 BYTE   N05  Fs3
 BYTE   W06
 BYTE   Gs3
 BYTE   W06
 BYTE   N10  As3
 BYTE   W12
 BYTE   Gs3
 BYTE   W12
 BYTE   N03  Fs3
 BYTE   W04
 BYTE   Gs3
 BYTE   W04
// 013   ----------------------------------------
 BYTE   As3
 BYTE   W04
 BYTE   N06  Gs3
 BYTE   W12
 BYTE   Fs3
 BYTE   W12
 BYTE   En3
 BYTE   W12
 BYTE   Gs3
 BYTE   W12
 BYTE   N15  Bn3
 BYTE   W18
 BYTE   N05  As3
 BYTE   W06
 BYTE   N06  Gs3
 BYTE   W12
 BYTE   Fs3
 BYTE   W08
// 014   ----------------------------------------
 BYTE   W04
 BYTE   Gs3
 BYTE   W12
 BYTE   N05  As3
 BYTE   W06
 BYTE   Bn3
 BYTE   W06
 BYTE   N06  Cs4
 BYTE   W12
 BYTE   N05  Ds4
 BYTE   W06
 BYTE   En4
 BYTE   W06
 BYTE   N06  Cs4
 BYTE   W12
 BYTE   Bn3
 BYTE   W12
 BYTE   N21  Cs4
 BYTE   W20
// 015   ----------------------------------------
 BYTE   W04
 BYTE   PAN   c_v-44
 BYTE   N72  Dn0
 BYTE   W92
// 016   ----------------------------------------
 BYTE   W04
 BYTE   N10
 BYTE   W24
 BYTE   N10
 BYTE   W24
 BYTE   N72
 BYTE   W44
// 017   ----------------------------------------
 BYTE   W52
 BYTE   N10
 BYTE   W24
 BYTE   N10
 BYTE   W20
// 018   ----------------------------------------
 BYTE   W04
 BYTE   VOICE   52
 BYTE   PAN   c_v-4
 BYTE   N09  Cn3
 BYTE   W12
 BYTE   N09
 BYTE   W12
 BYTE   Gn2
 BYTE   W12
 BYTE   Cn3
 BYTE   W12
 BYTE   N09
 BYTE   W12
 BYTE   Gn2
 BYTE   W12
 BYTE   Cn3
 BYTE   W12
 BYTE   N09
 BYTE   W08
// 019   ----------------------------------------
 BYTE   W04
 BYTE   Fn3
 BYTE   W12
 BYTE   Cn3
 BYTE   W12
 BYTE   N09
 BYTE   W12
 BYTE   Gn2
 BYTE   W24
 BYTE   Cn3
 BYTE   W24
 BYTE   N09
 BYTE   W08
// 020   ----------------------------------------
 BYTE   W16
 BYTE   Fn3
 BYTE   W24
 BYTE   Cn3
 BYTE   W24
 BYTE   N09
 BYTE   W24
 BYTE   Fn2
 BYTE   W08
// 021   ----------------------------------------
 BYTE   W04
 BYTE   Cn2
 BYTE   W12
 BYTE   Cs2
 BYTE   W12
 BYTE   Ds2
 BYTE   W12
 BYTE   Fn2
 BYTE   W12
 BYTE   N21  Gn2
 BYTE   W24
 BYTE   N09  Fn2
 BYTE   W12
 BYTE   Cn3
 BYTE   W08
// 022   ----------------------------------------
 BYTE   W04
 BYTE   N21  Gn2
 BYTE   W24
 BYTE   N09  Fn2
 BYTE   W12
 BYTE   Cn2
 BYTE   W12
 BYTE   N09
 BYTE   W12
 BYTE   N09
 BYTE   W12
 BYTE   Ds2
 BYTE   W12
 BYTE   Fn2
 BYTE   W08
// 023   ----------------------------------------
 BYTE   W04
 BYTE   N21  Gn2
 BYTE   W24
 BYTE   N09  Fn2
 BYTE   W12
 BYTE   Cn3
 BYTE   W12
 BYTE   N21  Gn2
 BYTE   W24
 BYTE   N09  Fn2
 BYTE   W12
 BYTE   Cn2
 BYTE   W08
// 024   ----------------------------------------
 BYTE   W04
 BYTE   Gs2
 BYTE   W12
 BYTE   Ds2
 BYTE   W12
 BYTE   Ds3
 BYTE   W12
 BYTE   Ds2
 BYTE   W12
 BYTE   Cn3
 BYTE   W12
 BYTE   Ds2
 BYTE   W12
 BYTE   Gs3
 BYTE   W12
 BYTE   Ds2
 BYTE   W08
// 025   ----------------------------------------
 BYTE   W96
// 026   ----------------------------------------
 BYTE   W48
 BYTE   GoTo
  POIN2 Label_0_BC34E6
// 027   ----------------------------------------
 BYTE   W04
 BYTE   VOICE   48
 BYTE   PAN   c_v-14
 BYTE   VOL   30*Glory_mvl/mxv
 BYTE   W07
 BYTE   VOL   0*Glory_mvl/mxv
 BYTE   W06
 BYTE   VOL   0*Glory_mvl/mxv
 BYTE   W07
 BYTE   VOL   0*Glory_mvl/mxv
 BYTE   W06
 BYTE   VOL   0*Glory_mvl/mxv
 BYTE   W06
 BYTE   VOL   0*Glory_mvl/mxv
 BYTE   W07
 BYTE   VOL   0*Glory_mvl/mxv
 BYTE   W05
 BYTE   W01
 BYTE   VOL   0*Glory_mvl/mxv
 BYTE   W07
 BYTE   VOL   0*Glory_mvl/mxv
 BYTE   FINE

//**************** Track 2 (Midi-Chn.1) ****************//

Glory_002:
// 000   ----------------------------------------
 BYTE   KEYSH   Glory_key+0
Label_1_BC36AF:
 BYTE   PAN   c_v+0
 BYTE   VOL   20*Glory_mvl/mxv
 BYTE   MOD 0
 BYTE   MOD 0
 BYTE   BEND   c_v+0
 BYTE   W04
 BYTE   VOICE   48
 BYTE   PAN   c_v-14
 BYTE   VOL   30*Glory_mvl/mxv
 BYTE   N12  Gn3  v127
 BYTE   W12
 BYTE   Cn3
 BYTE   W12
 BYTE   Dn3
 BYTE   W12
 BYTE   Gn3
 BYTE   W12
 BYTE   Cn3
 BYTE   W12
 BYTE   Dn3
 BYTE   W12
 BYTE   Gn3
 BYTE   W12
 BYTE   Cn3
 BYTE   W08
// 001   ----------------------------------------
Label_1_BC36D1:
 BYTE   W04
 BYTE   N12  Dn3  v127
 BYTE   W12
 BYTE   Gn3
 BYTE   W12
 BYTE   Cn3
 BYTE   W12
 BYTE   Dn3
 BYTE   W12
 BYTE   Gn3
 BYTE   W12
 BYTE   Cn3
 BYTE   W12
 BYTE   Dn3
 BYTE   W12
 BYTE   Gn3
 BYTE   W08
 BYTE   PEND 
// 002   ----------------------------------------
Label_1_BC36E5:
 BYTE   W04
 BYTE   N12  Cn3  v127
 BYTE   W12
 BYTE   Dn3
 BYTE   W12
 BYTE   Gn3
 BYTE   W12
 BYTE   Cn3
 BYTE   W12
 BYTE   Dn3
 BYTE   W12
 BYTE   Gn3
 BYTE   W12
 BYTE   Cn3
 BYTE   W12
 BYTE   Dn3
 BYTE   W08
 BYTE   PEND 
// 003   ----------------------------------------
 BYTE   W04
 BYTE   Gn3
 BYTE   W12
 BYTE   Cn3
 BYTE   W12
 BYTE   Dn3
 BYTE   W12
 BYTE   Gn3
 BYTE   W12
 BYTE   Cn3
 BYTE   W12
 BYTE   Dn3
 BYTE   W12
 BYTE   Gn3
 BYTE   W12
 BYTE   Cn3
 BYTE   W08
// 004   ----------------------------------------
 BYTE   PATT
  POIN2 Label_1_BC36D1
// 005   ----------------------------------------
 BYTE   PATT
  POIN2 Label_1_BC36E5
// 006   ----------------------------------------
 BYTE   W96
// 007   ----------------------------------------
 BYTE   W96
// 008   ----------------------------------------
 BYTE   W96
// 009   ----------------------------------------
 BYTE   W96
// 010   ----------------------------------------
 BYTE   W96
// 011   ----------------------------------------
 BYTE   W96
// 012   ----------------------------------------
 BYTE   W96
// 013   ----------------------------------------
 BYTE   W96
// 014   ----------------------------------------
 BYTE   W96
// 015   ----------------------------------------
 BYTE   W04
 BYTE   VOICE   52
 BYTE   VOL   45*Glory_mvl/mxv
 BYTE   N07  Gn4  v127
 BYTE   W12
 BYTE   Cn4
 BYTE   W12
 BYTE   Dn4
 BYTE   W12
 BYTE   Gn4
 BYTE   W12
 BYTE   Cn4
 BYTE   W12
 BYTE   Dn4
 BYTE   W12
 BYTE   Gn4
 BYTE   W12
 BYTE   Cn4
 BYTE   W08
// 016   ----------------------------------------
 BYTE   W04
 BYTE   Dn4
 BYTE   W12
 BYTE   Gn4
 BYTE   W12
 BYTE   Cn4
 BYTE   W12
 BYTE   Dn4
 BYTE   W12
 BYTE   Gn4
 BYTE   W12
 BYTE   Cn4
 BYTE   W12
 BYTE   Dn4
 BYTE   W12
 BYTE   Gn4
 BYTE   W08
// 017   ----------------------------------------
 BYTE   W04
 BYTE   Cn4
 BYTE   W12
 BYTE   Dn4
 BYTE   W12
 BYTE   Gn4
 BYTE   W12
 BYTE   Cn4
 BYTE   W12
 BYTE   Dn4
 BYTE   W12
 BYTE   Gn4
 BYTE   W12
 BYTE   Cn4
 BYTE   W12
 BYTE   Dn4
 BYTE   W08
// 018   ----------------------------------------
 BYTE   W96
// 019   ----------------------------------------
 BYTE   W96
// 020   ----------------------------------------
 BYTE   W96
// 021   ----------------------------------------
 BYTE   W96
// 022   ----------------------------------------
 BYTE   W96
// 023   ----------------------------------------
 BYTE   W96
// 024   ----------------------------------------
 BYTE   W96
// 025   ----------------------------------------
 BYTE   W04
 BYTE   Gn4
 BYTE   W12
 BYTE   Cn4
 BYTE   W12
 BYTE   Dn4
 BYTE   W12
 BYTE   Gn4
 BYTE   W12
 BYTE   Cn4
 BYTE   W12
 BYTE   Dn4
 BYTE   W12
 BYTE   Gn4
 BYTE   W12
 BYTE   Cn4
 BYTE   W08
// 026   ----------------------------------------
 BYTE   W04
 BYTE   Dn4
 BYTE   W12
 BYTE   Gn4
 BYTE   W12
 BYTE   Cn4
 BYTE   W12
 BYTE   Dn4
 BYTE   W08
 BYTE   GoTo
  POIN2 Label_1_BC36AF
// 027   ----------------------------------------
 BYTE   W04
 BYTE   VOICE   48
 BYTE   PAN   c_v-14
 BYTE   VOL   30*Glory_mvl/mxv
 BYTE   W07
 BYTE   VOL   0*Glory_mvl/mxv
 BYTE   W06
 BYTE   VOL   0*Glory_mvl/mxv
 BYTE   W07
 BYTE   VOL   0*Glory_mvl/mxv
 BYTE   W06
 BYTE   VOL   0*Glory_mvl/mxv
 BYTE   W06
 BYTE   VOL   0*Glory_mvl/mxv
 BYTE   W07
 BYTE   VOL   0*Glory_mvl/mxv
 BYTE   W05
 BYTE   W01
 BYTE   VOL   0*Glory_mvl/mxv
 BYTE   W07
 BYTE   VOL   0*Glory_mvl/mxv
 BYTE   FINE

//**************** Track 3 (Midi-Chn.2) ****************//

Glory_003:
// 000   ----------------------------------------
 BYTE   KEYSH   Glory_key+0
Label_2_BC3797:
 BYTE   PAN   c_v+0
 BYTE   VOL   20*Glory_mvl/mxv
 BYTE   MOD 0
 BYTE   MOD 0
 BYTE   BEND   c_v+0
 BYTE   W04
 BYTE   VOICE   48
 BYTE   PAN   c_v-44
 BYTE   VOL   30*Glory_mvl/mxv
 BYTE   N12  Cn3  v127
 BYTE   W12
 BYTE   Fn2
 BYTE   W12
 BYTE   Gn2
 BYTE   W12
 BYTE   Cn3
 BYTE   W12
 BYTE   Fn2
 BYTE   W12
 BYTE   Gn2
 BYTE   W12
 BYTE   Cn3
 BYTE   W12
 BYTE   Fn2
 BYTE   W08
// 001   ----------------------------------------
Label_2_BC37B9:
 BYTE   W04
 BYTE   N12  Gn2  v127
 BYTE   W12
 BYTE   Cn3
 BYTE   W12
 BYTE   Fn2
 BYTE   W12
 BYTE   Gn2
 BYTE   W12
 BYTE   Cn3
 BYTE   W12
 BYTE   Fn2
 BYTE   W12
 BYTE   Gn2
 BYTE   W12
 BYTE   Cn3
 BYTE   W08
 BYTE   PEND 
// 002   ----------------------------------------
Label_2_BC37CD:
 BYTE   W04
 BYTE   N12  Fn2  v127
 BYTE   W12
 BYTE   Gn2
 BYTE   W12
 BYTE   Cn3
 BYTE   W12
 BYTE   Fn2
 BYTE   W12
 BYTE   Gn2
 BYTE   W12
 BYTE   Cn3
 BYTE   W12
 BYTE   Fn2
 BYTE   W12
 BYTE   Gn2
 BYTE   W08
 BYTE   PEND 
// 003   ----------------------------------------
 BYTE   W04
 BYTE   Cn3
 BYTE   W12
 BYTE   Fn2
 BYTE   W12
 BYTE   Gn2
 BYTE   W12
 BYTE   Cn3
 BYTE   W12
 BYTE   Fn2
 BYTE   W12
 BYTE   Gn2
 BYTE   W12
 BYTE   Cn3
 BYTE   W12
 BYTE   Fn2
 BYTE   W08
// 004   ----------------------------------------
 BYTE   PATT
  POIN2 Label_2_BC37B9
// 005   ----------------------------------------
 BYTE   PATT
  POIN2 Label_2_BC37CD
// 006   ----------------------------------------
 BYTE   W96
// 007   ----------------------------------------
 BYTE   W96
// 008   ----------------------------------------
 BYTE   W96
// 009   ----------------------------------------
 BYTE   W96
// 010   ----------------------------------------
 BYTE   W96
// 011   ----------------------------------------
 BYTE   W96
// 012   ----------------------------------------
 BYTE   W96
// 013   ----------------------------------------
 BYTE   W96
// 014   ----------------------------------------
 BYTE   W96
// 015   ----------------------------------------
 BYTE   W04
 BYTE   VOICE   52
 BYTE   VOL   40*Glory_mvl/mxv
 BYTE   N07  Cn4  v127
 BYTE   W12
 BYTE   Fn3
 BYTE   W12
 BYTE   Gn3
 BYTE   W12
 BYTE   Cn4
 BYTE   W12
 BYTE   Fn3
 BYTE   W12
 BYTE   Gn3
 BYTE   W12
 BYTE   Cn4
 BYTE   W12
 BYTE   Fn3
 BYTE   W08
// 016   ----------------------------------------
 BYTE   W04
 BYTE   Gn3
 BYTE   W12
 BYTE   Cn4
 BYTE   W12
 BYTE   Fn3
 BYTE   W12
 BYTE   Gn3
 BYTE   W12
 BYTE   Cn4
 BYTE   W12
 BYTE   Fn3
 BYTE   W12
 BYTE   Gn3
 BYTE   W12
 BYTE   Cn4
 BYTE   W08
// 017   ----------------------------------------
 BYTE   W04
 BYTE   Fn3
 BYTE   W12
 BYTE   Gn3
 BYTE   W12
 BYTE   Cn4
 BYTE   W12
 BYTE   Fn3
 BYTE   W12
 BYTE   Gn3
 BYTE   W12
 BYTE   Cn4
 BYTE   W12
 BYTE   Fn3
 BYTE   W12
 BYTE   Gn3
 BYTE   W08
// 018   ----------------------------------------
 BYTE   W96
// 019   ----------------------------------------
 BYTE   W96
// 020   ----------------------------------------
 BYTE   W96
// 021   ----------------------------------------
 BYTE   W96
// 022   ----------------------------------------
 BYTE   W96
// 023   ----------------------------------------
 BYTE   W96
// 024   ----------------------------------------
 BYTE   W96
// 025   ----------------------------------------
 BYTE   W04
 BYTE   Cn4
 BYTE   W12
 BYTE   Fn3
 BYTE   W12
 BYTE   Gn3
 BYTE   W12
 BYTE   Cn4
 BYTE   W12
 BYTE   Fn3
 BYTE   W12
 BYTE   Gn3
 BYTE   W12
 BYTE   Cn4
 BYTE   W12
 BYTE   Fn3
 BYTE   W08
// 026   ----------------------------------------
 BYTE   W04
 BYTE   Gn3
 BYTE   W12
 BYTE   Cn4
 BYTE   W12
 BYTE   Fn3
 BYTE   W12
 BYTE   Gn3
 BYTE   W08
 BYTE   GoTo
  POIN2 Label_2_BC3797
// 027   ----------------------------------------
 BYTE   W04
 BYTE   VOICE   48
 BYTE   PAN   c_v-44
 BYTE   VOL   30*Glory_mvl/mxv
 BYTE   W07
 BYTE   VOL   0*Glory_mvl/mxv
 BYTE   W06
 BYTE   VOL   0*Glory_mvl/mxv
 BYTE   W07
 BYTE   VOL   0*Glory_mvl/mxv
 BYTE   W06
 BYTE   VOL   0*Glory_mvl/mxv
 BYTE   W06
 BYTE   VOL   0*Glory_mvl/mxv
 BYTE   W07
 BYTE   VOL   0*Glory_mvl/mxv
 BYTE   W05
 BYTE   W01
 BYTE   VOL   0*Glory_mvl/mxv
 BYTE   W07
 BYTE   VOL   0*Glory_mvl/mxv
 BYTE   FINE

//**************** Track 4 (Midi-Chn.3) ****************//

Glory_004:
// 000   ----------------------------------------
 BYTE   KEYSH   Glory_key+0
Label_3_BC387F:
 BYTE   PAN   c_v+0
 BYTE   VOL   20*Glory_mvl/mxv
 BYTE   MOD 0
 BYTE   MOD 0
 BYTE   BEND   c_v+0
 BYTE   W04
 BYTE   VOICE   73
 BYTE   PAN   c_v+26
 BYTE   VOL   35*Glory_mvl/mxv
 BYTE   N24  Gn3  v127
 BYTE   W24
 BYTE   Dn3
 BYTE   W24
 BYTE   Cn3
 BYTE   W24
 BYTE   Gn2
 BYTE   W20
// 001   ----------------------------------------
Label_3_BC3899:
 BYTE   W04
 BYTE   N24  Cn3  v127
 BYTE   W24
 BYTE   Dn3
 BYTE   W24
 BYTE   Gn3
 BYTE   W24
 BYTE   Dn3
 BYTE   W20
 BYTE   PEND 
// 002   ----------------------------------------
Label_3_BC38A5:
 BYTE   W04
 BYTE   N24  Cn3  v127
 BYTE   W24
 BYTE   Gn2
 BYTE   W24
 BYTE   Cn3
 BYTE   W24
 BYTE   Dn3
 BYTE   W20
 BYTE   PEND 
// 003   ----------------------------------------
Label_3_BC38B1:
 BYTE   W04
 BYTE   N24  Gn3  v127
 BYTE   W24
 BYTE   Dn3
 BYTE   W24
 BYTE   Cn3
 BYTE   W24
 BYTE   Gn2
 BYTE   W20
 BYTE   PEND 
// 004   ----------------------------------------
 BYTE   PATT
  POIN2 Label_3_BC3899
// 005   ----------------------------------------
 BYTE   W04
 BYTE   N24  Cn3  v127
 BYTE   W24
 BYTE   Gn2
 BYTE   W24
 BYTE   Cn3
 BYTE   W24
 BYTE   N12  Dn3
 BYTE   W12
 BYTE   Gn3
 BYTE   W08
// 006   ----------------------------------------
 BYTE   W04
 BYTE   N60
 BYTE   W60
 BYTE   N06
 BYTE   W06
 BYTE   N06
 BYTE   W06
 BYTE   N12
 BYTE   W20
// 007   ----------------------------------------
 BYTE   W04
 BYTE   Fn3
 BYTE   W24
 BYTE   As3
 BYTE   W24
 BYTE   TIE  Gn3
 BYTE   W44
// 008   ----------------------------------------
 BYTE   W88
 BYTE   EOT
 BYTE   W08
// 009   ----------------------------------------
 BYTE   W96
// 010   ----------------------------------------
 BYTE   W96
// 011   ----------------------------------------
 BYTE   W96
// 012   ----------------------------------------
 BYTE   W96
// 013   ----------------------------------------
 BYTE   W96
// 014   ----------------------------------------
 BYTE   W96
// 015   ----------------------------------------
 BYTE   PATT
  POIN2 Label_3_BC38B1
// 016   ----------------------------------------
 BYTE   PATT
  POIN2 Label_3_BC3899
// 017   ----------------------------------------
 BYTE   PATT
  POIN2 Label_3_BC38A5
// 018   ----------------------------------------
 BYTE   W96
// 019   ----------------------------------------
 BYTE   W96
// 020   ----------------------------------------
 BYTE   W96
// 021   ----------------------------------------
 BYTE   W96
// 022   ----------------------------------------
 BYTE   W96
// 023   ----------------------------------------
 BYTE   W96
// 024   ----------------------------------------
 BYTE   W96
// 025   ----------------------------------------
 BYTE   PATT
  POIN2 Label_3_BC38B1
// 026   ----------------------------------------
 BYTE   W04
 BYTE   N24  Cn3  v127
 BYTE   W24
 BYTE   Dn3
 BYTE   W20
 BYTE   GoTo
  POIN2 Label_3_BC387F
// 027   ----------------------------------------
 BYTE   W04
 BYTE   VOICE   73
 BYTE   PAN   c_v+26
 BYTE   VOL   35*Glory_mvl/mxv
 BYTE   W07
 BYTE   VOL   0*Glory_mvl/mxv
 BYTE   W06
 BYTE   VOL   0*Glory_mvl/mxv
 BYTE   W07
 BYTE   VOL   0*Glory_mvl/mxv
 BYTE   W06
 BYTE   VOL   0*Glory_mvl/mxv
 BYTE   W06
 BYTE   VOL   0*Glory_mvl/mxv
 BYTE   W07
 BYTE   VOL   0*Glory_mvl/mxv
 BYTE   W05
 BYTE   W01
 BYTE   VOL   0*Glory_mvl/mxv
 BYTE   W07
 BYTE   VOL   0*Glory_mvl/mxv
 BYTE   FINE

//**************** Track 5 (Midi-Chn.4) ****************//

Glory_005:
// 000   ----------------------------------------
 BYTE   KEYSH   Glory_key+0
Label_4_BC392C:
 BYTE   PAN   c_v+0
 BYTE   VOL   20*Glory_mvl/mxv
 BYTE   MOD 0
 BYTE   MOD 0
 BYTE   BEND   c_v+0
 BYTE   W04
 BYTE   VOICE   52
 BYTE   PAN   c_v+16
 BYTE   VOL   50*Glory_mvl/mxv
 BYTE   W92
// 001   ----------------------------------------
 BYTE   W40
 BYTE   N03  Dn3  v127
 BYTE   W06
 BYTE   N03
 BYTE   W06
 BYTE   N68
 BYTE   W44
// 002   ----------------------------------------
 BYTE   W28
 BYTE   N21  Gn2
 BYTE   W24
 BYTE   Cn3
 BYTE   W24
 BYTE   Dn3
 BYTE   W20
// 003   ----------------------------------------
 BYTE   W04
 BYTE   N68  Gn3
 BYTE   W72
 BYTE   N21  Gn2
 BYTE   W20
// 004   ----------------------------------------
 BYTE   W04
 BYTE   Cn3
 BYTE   W24
 BYTE   Dn3
 BYTE   W24
 BYTE   TIE  Gn3
 BYTE   W44
// 005   ----------------------------------------
 BYTE   W96
// 006   ----------------------------------------
 BYTE   W01
 BYTE   EOT
 BYTE   W03
 BYTE   N56  Dn3
 BYTE   W60
 BYTE   N03
 BYTE   W06
 BYTE   N03
 BYTE   W06
 BYTE   N09
 BYTE   W20
// 007   ----------------------------------------
 BYTE   W04
 BYTE   Cn3
 BYTE   W24
 BYTE   Fn3
 BYTE   W24
 BYTE   TIE  Dn3
 BYTE   W44
// 008   ----------------------------------------
 BYTE   W84
 BYTE   W01
 BYTE   EOT
 BYTE   W11
// 009   ----------------------------------------
 BYTE   W04
 BYTE   N06  Gs2
 BYTE   W12
 BYTE   As2
 BYTE   W12
 BYTE   N10  Cn3
 BYTE   W12
 BYTE   N03  Ds3
 BYTE   W04
 BYTE   Cs3
 BYTE   W04
 BYTE   Cn3
 BYTE   W04
 BYTE   N06  Cs3
 BYTE   W12
 BYTE   As2
 BYTE   W12
 BYTE   Gs2
 BYTE   W12
 BYTE   As2
 BYTE   W08
// 010   ----------------------------------------
 BYTE   W04
 BYTE   N10  Cn3
 BYTE   W12
 BYTE   N05  Cs3
 BYTE   W06
 BYTE   As2
 BYTE   W06
 BYTE   N21  Gs2
 BYTE   W24
 BYTE   N06
 BYTE   W12
 BYTE   As2
 BYTE   W12
 BYTE   N10  Cn3
 BYTE   W12
 BYTE   N03  Ds3
 BYTE   W04
 BYTE   Cs3
 BYTE   W04
// 011   ----------------------------------------
 BYTE   Cn3
 BYTE   W04
 BYTE   N06  Cs3
 BYTE   W12
 BYTE   Fn3
 BYTE   W12
 BYTE   Gs3
 BYTE   W12
 BYTE   As3
 BYTE   W12
 BYTE   N10  Cn4
 BYTE   W12
 BYTE   N05  Cs4
 BYTE   W06
 BYTE   As3
 BYTE   W06
 BYTE   N21  Gs3
 BYTE   W20
// 012   ----------------------------------------
 BYTE   W04
 BYTE   N06  As3
 BYTE   W12
 BYTE   Gs3
 BYTE   W12
 BYTE   Fs3
 BYTE   W12
 BYTE   N10  En3
 BYTE   W12
 BYTE   N05  Fs3
 BYTE   W06
 BYTE   Gs3
 BYTE   W06
 BYTE   N10  As3
 BYTE   W12
 BYTE   Gs3
 BYTE   W12
 BYTE   N03  Fs3
 BYTE   W04
 BYTE   Gs3
 BYTE   W04
// 013   ----------------------------------------
 BYTE   As3
 BYTE   W04
 BYTE   N06  Gs3
 BYTE   W12
 BYTE   Fs3
 BYTE   W12
 BYTE   En3
 BYTE   W12
 BYTE   Gs3
 BYTE   W12
 BYTE   N15  Bn3
 BYTE   W18
 BYTE   N05  As3
 BYTE   W06
 BYTE   N06  Gs3
 BYTE   W12
 BYTE   Fs3
 BYTE   W08
// 014   ----------------------------------------
 BYTE   W04
 BYTE   Gs3
 BYTE   W12
 BYTE   N05  As3
 BYTE   W06
 BYTE   Bn3
 BYTE   W06
 BYTE   N06  Cs4
 BYTE   W12
 BYTE   N05  Ds4
 BYTE   W06
 BYTE   En4
 BYTE   W06
 BYTE   N06  Cs4
 BYTE   W12
 BYTE   Bn3
 BYTE   W12
 BYTE   N21  Cs4
 BYTE   W20
// 015   ----------------------------------------
 BYTE   W96
// 016   ----------------------------------------
 BYTE   W96
// 017   ----------------------------------------
 BYTE   W96
// 018   ----------------------------------------
 BYTE   W04
 BYTE   N10  Gn3
 BYTE   W12
 BYTE   Fn3
 BYTE   W12
 BYTE   Cn3
 BYTE   W12
 BYTE   Gn3
 BYTE   W12
 BYTE   Fn3
 BYTE   W12
 BYTE   Cn3
 BYTE   W12
 BYTE   Gn3
 BYTE   W12
 BYTE   Fn3
 BYTE   W08
// 019   ----------------------------------------
 BYTE   W04
 BYTE   Cn4
 BYTE   W12
 BYTE   Gn3
 BYTE   W12
 BYTE   Fn3
 BYTE   W12
 BYTE   Cn3
 BYTE   W24
 BYTE   Gn3
 BYTE   W24
 BYTE   Fn3
 BYTE   W08
// 020   ----------------------------------------
 BYTE   W16
 BYTE   Cn4
 BYTE   W24
 BYTE   Gn3
 BYTE   W24
 BYTE   Fn3
 BYTE   W24
 BYTE   Cn3
 BYTE   W08
// 021   ----------------------------------------
 BYTE   W04
 BYTE   N10
 BYTE   W12
 BYTE   Cs3
 BYTE   W12
 BYTE   Ds3
 BYTE   W12
 BYTE   Fn3
 BYTE   W12
 BYTE   N21  Gn3
 BYTE   W24
 BYTE   N10  Fn3
 BYTE   W12
 BYTE   Cn4
 BYTE   W08
// 022   ----------------------------------------
 BYTE   W04
 BYTE   N21  Gn3
 BYTE   W24
 BYTE   N10  Fn3
 BYTE   W12
 BYTE   Cn3
 BYTE   W12
 BYTE   Ds3
 BYTE   W12
 BYTE   Fn3
 BYTE   W12
 BYTE   Gn3
 BYTE   W12
 BYTE   As3
 BYTE   W08
// 023   ----------------------------------------
 BYTE   W04
 BYTE   N21  Cn4
 BYTE   W24
 BYTE   N10  As3
 BYTE   W12
 BYTE   Fn4
 BYTE   W12
 BYTE   N21  Cn4
 BYTE   W24
 BYTE   N10  As3
 BYTE   W12
 BYTE   Fn3
 BYTE   W08
// 024   ----------------------------------------
 BYTE   W04
 BYTE   Cn3
 BYTE   W12
 BYTE   Gs2
 BYTE   W12
 BYTE   As3
 BYTE   W12
 BYTE   Gs2
 BYTE   W12
 BYTE   Fn3
 BYTE   W12
 BYTE   Gs2
 BYTE   W12
 BYTE   Cn4
 BYTE   W12
 BYTE   Gs2
 BYTE   W08
// 025   ----------------------------------------
 BYTE   W96
// 026   ----------------------------------------
 BYTE   W48
 BYTE   GoTo
  POIN2 Label_4_BC392C
// 027   ----------------------------------------
 BYTE   W04
 BYTE   VOICE   52
 BYTE   PAN   c_v+16
 BYTE   VOL   50*Glory_mvl/mxv
 BYTE   W07
 BYTE   VOL   0*Glory_mvl/mxv
 BYTE   W06
 BYTE   VOL   0*Glory_mvl/mxv
 BYTE   W07
 BYTE   VOL   0*Glory_mvl/mxv
 BYTE   W06
 BYTE   VOL   0*Glory_mvl/mxv
 BYTE   W06
 BYTE   VOL   0*Glory_mvl/mxv
 BYTE   W07
 BYTE   VOL   0*Glory_mvl/mxv
 BYTE   W05
 BYTE   W01
 BYTE   VOL   0*Glory_mvl/mxv
 BYTE   W07
 BYTE   VOL   0*Glory_mvl/mxv
 BYTE   FINE

//**************** Track 6 (Midi-Chn.5) ****************//

Glory_006:
// 000   ----------------------------------------
 BYTE   KEYSH   Glory_key+0
Label_5_BC3A96:
 BYTE   PAN   c_v+0
 BYTE   VOL   20*Glory_mvl/mxv
 BYTE   MOD 0
 BYTE   MOD 0
 BYTE   BEND   c_v+0
 BYTE   W04
 BYTE   VOICE   61
 BYTE   PAN   c_v-24
 BYTE   VOL   50*Glory_mvl/mxv
 BYTE   W92
// 001   ----------------------------------------
 BYTE   W40
 BYTE   N03  Dn3  v124
 BYTE   W06
 BYTE   N03
 BYTE   W06
 BYTE   N68
 BYTE   W44
// 002   ----------------------------------------
 BYTE   W28
 BYTE   N21  Gn2
 BYTE   W24
 BYTE   Cn3
 BYTE   W24
 BYTE   Dn3
 BYTE   W20
// 003   ----------------------------------------
 BYTE   W04
 BYTE   N68  Gn3
 BYTE   W72
 BYTE   N21  Gn2
 BYTE   W20
// 004   ----------------------------------------
 BYTE   W04
 BYTE   Cn3
 BYTE   W24
 BYTE   Dn3
 BYTE   W24
 BYTE   N68  Gn3
 BYTE   W44
// 005   ----------------------------------------
 BYTE   W28
 BYTE   Dn3
 BYTE   W68
// 006   ----------------------------------------
 BYTE   W04
 BYTE   N56  Gn3
 BYTE   W60
 BYTE   N03
 BYTE   W06
 BYTE   N03
 BYTE   W06
 BYTE   N09
 BYTE   W20
// 007   ----------------------------------------
 BYTE   W04
 BYTE   Fn3
 BYTE   W24
 BYTE   As3
 BYTE   W24
 BYTE   TIE  Gn3
 BYTE   W44
// 008   ----------------------------------------
 BYTE   W84
 BYTE   W01
 BYTE   EOT
 BYTE   W11
// 009   ----------------------------------------
 BYTE   W04
 BYTE   N06  Gs2
 BYTE   W12
 BYTE   As2
 BYTE   W12
 BYTE   N10  Cn3
 BYTE   W12
 BYTE   N03  Ds3
 BYTE   W04
 BYTE   Cs3
 BYTE   W04
 BYTE   Cn3
 BYTE   W04
 BYTE   N06  Cs3
 BYTE   W12
 BYTE   As2
 BYTE   W12
 BYTE   Gs2
 BYTE   W12
 BYTE   As2
 BYTE   W08
// 010   ----------------------------------------
 BYTE   W04
 BYTE   N10  Cn3
 BYTE   W12
 BYTE   N05  Cs3
 BYTE   W06
 BYTE   As2
 BYTE   W06
 BYTE   N21  Gs2
 BYTE   W24
 BYTE   N06
 BYTE   W12
 BYTE   As2
 BYTE   W12
 BYTE   N10  Cn3
 BYTE   W12
 BYTE   N03  Ds3
 BYTE   W04
 BYTE   Cs3
 BYTE   W04
// 011   ----------------------------------------
 BYTE   Cn3
 BYTE   W04
 BYTE   N06  Cs3
 BYTE   W12
 BYTE   Fn3
 BYTE   W12
 BYTE   Gs3
 BYTE   W12
 BYTE   As3
 BYTE   W12
 BYTE   N10  Cn4
 BYTE   W12
 BYTE   N05  Cs4
 BYTE   W06
 BYTE   As3
 BYTE   W06
 BYTE   N21  Gs3
 BYTE   W20
// 012   ----------------------------------------
 BYTE   W04
 BYTE   N06  As3
 BYTE   W12
 BYTE   Gs3
 BYTE   W12
 BYTE   Fs3
 BYTE   W12
 BYTE   N10  En3
 BYTE   W12
 BYTE   N05  Fs3
 BYTE   W06
 BYTE   Gs3
 BYTE   W06
 BYTE   N10  As3
 BYTE   W12
 BYTE   Gs3
 BYTE   W12
 BYTE   N03  Fs3
 BYTE   W04
 BYTE   Gs3
 BYTE   W04
// 013   ----------------------------------------
 BYTE   As3
 BYTE   W04
 BYTE   N06  Gs3
 BYTE   W12
 BYTE   Fs3
 BYTE   W12
 BYTE   En3
 BYTE   W12
 BYTE   Gs3
 BYTE   W12
 BYTE   N15  Bn3
 BYTE   W18
 BYTE   N05  As3
 BYTE   W06
 BYTE   N06  Gs3
 BYTE   W12
 BYTE   Fs3
 BYTE   W08
// 014   ----------------------------------------
 BYTE   W04
 BYTE   Gs3
 BYTE   W12
 BYTE   N05  As3
 BYTE   W06
 BYTE   Bn3
 BYTE   W06
 BYTE   N06  Cs4
 BYTE   W12
 BYTE   N05  Ds4
 BYTE   W06
 BYTE   En4
 BYTE   W06
 BYTE   N06  Cs4
 BYTE   W12
 BYTE   Bn3
 BYTE   W12
 BYTE   N21  Cs4
 BYTE   W20
// 015   ----------------------------------------
 BYTE   W04
 BYTE   PAN   c_v-4
 BYTE   VOL   55*Glory_mvl/mxv
 BYTE   N72  Gn2  v108
 BYTE   W92
// 016   ----------------------------------------
 BYTE   W04
 BYTE   N10
 BYTE   W24
 BYTE   N10
 BYTE   W24
 BYTE   N72
 BYTE   W44
// 017   ----------------------------------------
 BYTE   W52
 BYTE   N10
 BYTE   W24
 BYTE   N10
 BYTE   W20
// 018   ----------------------------------------
 BYTE   W04
 BYTE   VOICE   56
 BYTE   TIE  Cn3
 BYTE   W92
// 019   ----------------------------------------
 BYTE   W32
 BYTE   W02
 BYTE   EOT
 BYTE   W18
 BYTE   N10
 BYTE   W24
 BYTE   N10
 BYTE   W20
// 020   ----------------------------------------
 BYTE   W04
 BYTE   N10
 BYTE   W24
 BYTE   N10
 BYTE   W24
 BYTE   N10
 BYTE   W24
 BYTE   N10
 BYTE   W20
// 021   ----------------------------------------
 BYTE   W04
 BYTE   N42  Ds3
 BYTE   W60
 BYTE   N10
 BYTE   W24
 BYTE   N10
 BYTE   W08
// 022   ----------------------------------------
Label_5_BC3BA3:
 BYTE   W16
 BYTE   N10  Ds3  v108
 BYTE   W24
 BYTE   N10
 BYTE   W24
 BYTE   N10
 BYTE   W24
 BYTE   N10
 BYTE   W08
 BYTE   PEND 
// 023   ----------------------------------------
 BYTE   W04
 BYTE   N84  Cn3
 BYTE   W92
// 024   ----------------------------------------
 BYTE   PATT
  POIN2 Label_5_BC3BA3
// 025   ----------------------------------------
 BYTE   W04
 BYTE   TIE  Cn3  v108
 BYTE   W92
// 026   ----------------------------------------
 BYTE   W23
 BYTE   EOT
 BYTE   W24
 BYTE   W01
 BYTE   GoTo
  POIN2 Label_5_BC3A96
// 027   ----------------------------------------
 BYTE   W04
 BYTE   VOICE   61
 BYTE   PAN   c_v-24
 BYTE   VOL   50*Glory_mvl/mxv
 BYTE   W07
 BYTE   VOL   0*Glory_mvl/mxv
 BYTE   W06
 BYTE   VOL   0*Glory_mvl/mxv
 BYTE   W07
 BYTE   VOL   0*Glory_mvl/mxv
 BYTE   W06
 BYTE   VOL   0*Glory_mvl/mxv
 BYTE   W06
 BYTE   VOL   0*Glory_mvl/mxv
 BYTE   W07
 BYTE   VOL   0*Glory_mvl/mxv
 BYTE   W05
 BYTE   W01
 BYTE   VOL   0*Glory_mvl/mxv
 BYTE   W07
 BYTE   VOL   0*Glory_mvl/mxv
 BYTE   FINE

//**************** Track 7 (Midi-Chn.6) ****************//

Glory_007:
// 000   ----------------------------------------
 BYTE   KEYSH   Glory_key+0
Label_6_BC3BE1:
 BYTE   PAN   c_v+0
 BYTE   VOL   20*Glory_mvl/mxv
 BYTE   MOD 0
 BYTE   MOD 0
 BYTE   BEND   c_v+0
 BYTE   W04
 BYTE   VOICE   61
 BYTE   PAN   c_v-54
 BYTE   VOL   50*Glory_mvl/mxv
 BYTE   W92
// 001   ----------------------------------------
 BYTE   W40
 BYTE   N05  Gn1  v108
 BYTE   W06
 BYTE   N05
 BYTE   W06
 BYTE   N60
 BYTE   W44
// 002   ----------------------------------------
 BYTE   W28
 BYTE   N21
 BYTE   W24
 BYTE   N21
 BYTE   W36
 BYTE   N05
 BYTE   W06
 BYTE   N05
 BYTE   W02
// 003   ----------------------------------------
 BYTE   W04
 BYTE   N60
 BYTE   W72
 BYTE   N06
 BYTE   W12
 BYTE   Dn1
 BYTE   W08
// 004   ----------------------------------------
 BYTE   W04
 BYTE   Gn1
 BYTE   W12
 BYTE   Dn1
 BYTE   W12
 BYTE   Gn1
 BYTE   W12
 BYTE   Dn1
 BYTE   W12
 BYTE   N60  Gn1
 BYTE   W44
// 005   ----------------------------------------
 BYTE   W28
 BYTE   N06
 BYTE   W12
 BYTE   N06
 BYTE   W12
 BYTE   N06
 BYTE   W12
 BYTE   N06
 BYTE   W12
 BYTE   N06
 BYTE   W12
 BYTE   N06
 BYTE   W08
// 006   ----------------------------------------
 BYTE   W04
 BYTE   N42  Cn2
 BYTE   W48
 BYTE   N10
 BYTE   W12
 BYTE   N05
 BYTE   W06
 BYTE   N05
 BYTE   W18
 BYTE   N10
 BYTE   W08
// 007   ----------------------------------------
 BYTE   W16
 BYTE   N10
 BYTE   W24
 BYTE   N10
 BYTE   W12
 BYTE   TIE
 BYTE   W44
// 008   ----------------------------------------
 BYTE   W68
 BYTE   W03
 BYTE   EOT
 BYTE   W24
 BYTE   W01
// 009   ----------------------------------------
 BYTE   W04
 BYTE   N72  Cs2
 BYTE   W84
 BYTE   N10
 BYTE   W08
// 010   ----------------------------------------
 BYTE   W16
 BYTE   N10
 BYTE   W24
 BYTE   N10
 BYTE   W12
 BYTE   N72
 BYTE   W44
// 011   ----------------------------------------
 BYTE   W40
 BYTE   N10
 BYTE   W24
 BYTE   N10
 BYTE   W24
 BYTE   N10
 BYTE   W08
// 012   ----------------------------------------
 BYTE   W04
 BYTE   N72  En2
 BYTE   W84
 BYTE   N10
 BYTE   W08
// 013   ----------------------------------------
 BYTE   W16
 BYTE   N10
 BYTE   W24
 BYTE   N10
 BYTE   W12
 BYTE   N72
 BYTE   W44
// 014   ----------------------------------------
 BYTE   W40
 BYTE   N10
 BYTE   W24
 BYTE   N10
 BYTE   W24
 BYTE   N10
 BYTE   W08
// 015   ----------------------------------------
 BYTE   W04
 BYTE   N72  Gn1
 BYTE   W92
// 016   ----------------------------------------
 BYTE   W04
 BYTE   N10
 BYTE   W24
 BYTE   N10
 BYTE   W24
 BYTE   N72
 BYTE   W44
// 017   ----------------------------------------
 BYTE   W52
 BYTE   N10
 BYTE   W24
 BYTE   N10
 BYTE   W20
// 018   ----------------------------------------
 BYTE   W04
 BYTE   TIE  As1
 BYTE   W92
// 019   ----------------------------------------
 BYTE   W32
 BYTE   W02
 BYTE   EOT
 BYTE   W18
 BYTE   N10
 BYTE   W24
 BYTE   N10
 BYTE   W20
// 020   ----------------------------------------
 BYTE   W04
 BYTE   N10
 BYTE   W24
 BYTE   N10
 BYTE   W24
 BYTE   N10
 BYTE   W24
 BYTE   N10
 BYTE   W20
// 021   ----------------------------------------
 BYTE   W04
 BYTE   N42  Cs2
 BYTE   W60
 BYTE   N10
 BYTE   W24
 BYTE   N10
 BYTE   W08
// 022   ----------------------------------------
Label_6_BC3C91:
 BYTE   W16
 BYTE   N10  Cs2  v108
 BYTE   W24
 BYTE   N10
 BYTE   W24
 BYTE   N10
 BYTE   W24
 BYTE   N10
 BYTE   W08
 BYTE   PEND 
// 023   ----------------------------------------
 BYTE   W04
 BYTE   N84  As1
 BYTE   W92
// 024   ----------------------------------------
 BYTE   PATT
  POIN2 Label_6_BC3C91
// 025   ----------------------------------------
 BYTE   W04
 BYTE   TIE  Cn2  v108
 BYTE   W92
// 026   ----------------------------------------
 BYTE   W23
 BYTE   EOT
 BYTE   W24
 BYTE   W01
 BYTE   GoTo
  POIN2 Label_6_BC3BE1
// 027   ----------------------------------------
 BYTE   W04
 BYTE   VOICE   61
 BYTE   PAN   c_v-54
 BYTE   VOL   50*Glory_mvl/mxv
 BYTE   W07
 BYTE   VOL   0*Glory_mvl/mxv
 BYTE   W06
 BYTE   VOL   0*Glory_mvl/mxv
 BYTE   W07
 BYTE   VOL   0*Glory_mvl/mxv
 BYTE   W06
 BYTE   VOL   0*Glory_mvl/mxv
 BYTE   W06
 BYTE   VOL   0*Glory_mvl/mxv
 BYTE   W07
 BYTE   VOL   0*Glory_mvl/mxv
 BYTE   W05
 BYTE   W01
 BYTE   VOL   0*Glory_mvl/mxv
 BYTE   W07
 BYTE   VOL   0*Glory_mvl/mxv
 BYTE   FINE

//******************************************************//
	ALIGN 4

Glory:
	BYTE	7	// NumTrks
	BYTE	0	// NumBlks
	BYTE	Glory_pri	// Priority
	BYTE	Glory_rev	// Reverb.
    
	POIN2	Glory_grp
    
	POIN2	Glory_001
	POIN2	Glory_002
	POIN2	Glory_003
	POIN2	Glory_004
	POIN2	Glory_005
	POIN2	Glory_006
	POIN2	Glory_007

	
