	.include "MPlayDef.s"

	.equ	song04_grp, voicegroup000
	.equ	song04_pri, 0
	.equ	song04_rev, 0
	.equ	song04_mvl, 127
	.equ	song04_key, 0
	.equ	song04_tbs, 1
	.equ	song04_exg, 0
	.equ	song04_cmp, 1

	.section .rodata
	.global	song04
	.align	2


@**************** Track 1 (Midi-Chn.0) ****************@

song04_001:
@  #01 @000   ----------------------------------------
 .byte   KEYSH , song04_key+0
 .byte   TEMPO , 158*song04_tbs/2
 .byte   VOICE , 110
 .byte   PAN , c_v+16
 .byte   VOL , 30*song04_mvl/mxv
 .byte   N68 ,En2 ,v092
 .byte   N68 ,En3
 .byte   W72
 .byte   N11 ,Ds2
 .byte   N11 ,Ds3
 .byte   W12
 .byte   En2
 .byte   N11 ,En3
 .byte   W12
@  #01 @001   ----------------------------------------
 .byte   N44 ,Gn2
 .byte   N44 ,Gn3
 .byte   W48
 .byte   Fs2
 .byte   N44 ,An2
 .byte   N44 ,Fs3
 .byte   W48
@  #01 @002   ----------------------------------------
 .byte   N92 ,Cn2
 .byte   N92 ,Ds2
 .byte   N92 ,Ds3
 .byte   W96
@  #01 @003   ----------------------------------------
 .byte   N44 ,Bn1
 .byte   N44 ,En2
 .byte   N44 ,En3
 .byte   W48
 .byte   Ds2
 .byte   N44 ,Fs2
 .byte   N44 ,Fs3
 .byte   W48
@  #01 @004   ----------------------------------------
 .byte   N92 ,En2
 .byte   N92 ,Gn2
 .byte   N92 ,Gn3
 .byte   W96
@  #01 @005   ----------------------------------------
 .byte   N44 ,Ds2
 .byte   N44 ,An2
 .byte   N44 ,An3
 .byte   W48
 .byte   En2
 .byte   N44 ,Bn2
 .byte   N44 ,Bn3
 .byte   W48
@  #01 @006   ----------------------------------------
 .byte   TIE ,Gn2
 .byte   TIE ,Cn3
 .byte   TIE ,Cn4
 .byte   W96
@  #01 @007   ----------------------------------------
 .byte   W92
 .byte   W03
 .byte   EOT
 .byte   Gn2 ,v060
 .byte   Cn4
 .byte   W01
@  #01 @008   ----------------------------------------
 .byte   TIE ,Fs2
 .byte   TIE ,Bn2
 .byte   TIE ,Bn3
 .byte   W96
@  #01 @009   ----------------------------------------
 .byte   W92
 .byte   W03
 .byte   EOT
 .byte   Fs2 ,v059
 .byte   Bn3
 .byte   W01
@  #01 @010   ----------------------------------------
 .byte   TEMPO , 320*song04_tbs/2
 .byte   TIE ,Bn2
 .byte   TIE ,En3
 .byte   W96
@  #01 @011   ----------------------------------------
 .byte   W92
 .byte   W03
 .byte   EOT
 .byte   Bn2 ,v064
 .byte   W01
@  #01 @012   ----------------------------------------
 .byte   TIE ,Gn3
 .byte   TIE ,Cn4
 .byte   W96
@  #01 @013   ----------------------------------------
 .byte   W92
 .byte   W03
 .byte   EOT
 .byte   Gn3 ,v072
 .byte   W01
@  #01 @014   ----------------------------------------
Label_010054E4:
 .byte   TIE ,Bn2 ,v092
 .byte   TIE ,En3
 .byte   W96
 .byte   PEND 
@  #01 @015   ----------------------------------------
 .byte   N92 ,En4
 .byte   W92
 .byte   W03
 .byte   EOT
 .byte   Bn2 ,v064
 .byte   W01
@  #01 @016   ----------------------------------------
 .byte   N68
 .byte   N68 ,Gn3
 .byte   W72
 .byte   Dn3
 .byte   N68 ,Fs3
 .byte   W24
@  #01 @017   ----------------------------------------
 .byte   W48
 .byte   N44 ,Cn3
 .byte   N44 ,Fn3
 .byte   W48
@  #01 @018   ----------------------------------------
 .byte   PATT
  .word Label_010054E4
@  #01 @019   ----------------------------------------
 .byte   N44 ,Bn4 ,v092
 .byte   W48
 .byte   Gn4
 .byte   W44
 .byte   W03
 .byte   EOT
 .byte   Bn2 ,v064
 .byte   W01
@  #01 @020   ----------------------------------------
 .byte   N92 ,Cn3
 .byte   N92 ,Fn3
 .byte   W96
@  #01 @021   ----------------------------------------
 .byte   Dn3
 .byte   N92 ,Gn3
 .byte   W96
@  #01 @022   ----------------------------------------
Label_0100551A:
 .byte   W96
@  #01 @023   ----------------------------------------
 .byte   W96
@  #01 @024   ----------------------------------------
 .byte   W96
@  #01 @025   ----------------------------------------
 .byte   W96
@  #01 @026   ----------------------------------------
 .byte   W96
@  #01 @027   ----------------------------------------
 .byte   W96
@  #01 @028   ----------------------------------------
 .byte   W96
@  #01 @029   ----------------------------------------
 .byte   W96
@  #01 @030   ----------------------------------------
 .byte   PATT
  .word Label_010054E4
@  #01 @031   ----------------------------------------
 .byte   W92
 .byte   W03
 .byte   EOT
 .byte   Bn2 ,v064
 .byte   W01
@  #01 @032   ----------------------------------------
Label_0100552D:
 .byte   TIE ,En3 ,v092
 .byte   TIE ,Bn3
 .byte   W96
 .byte   PEND 
@  #01 @033   ----------------------------------------
 .byte   W92
 .byte   W03
 .byte   EOT
 .byte   En3 ,v071
 .byte   W01
@  #01 @034   ----------------------------------------
Label_0100553A:
 .byte   TIE ,Gn3 ,v092
 .byte   TIE ,Cs4
 .byte   W96
 .byte   PEND 
@  #01 @035   ----------------------------------------
 .byte   W92
 .byte   W03
 .byte   EOT
 .byte   Gn3 ,v073
 .byte   W01
@  #01 @036   ----------------------------------------
Label_01005547:
 .byte   TIE ,An3 ,v092
 .byte   TIE ,Dn4
 .byte   W96
 .byte   PEND 
@  #01 @037   ----------------------------------------
 .byte   W68
 .byte   W03
 .byte   EOT
 .byte   W24
 .byte   EOT
 .byte   An3
 .byte   W01
@  #01 @038   ----------------------------------------
 .byte   PATT
  .word Label_01005547
@  #01 @039   ----------------------------------------
 .byte   W92
 .byte   W03
 .byte   EOT
 .byte   An3 ,v074
 .byte   W01
@  #01 @040   ----------------------------------------
 .byte   PATT
  .word Label_0100553A
@  #01 @041   ----------------------------------------
 .byte   W92
 .byte   W03
 .byte   EOT
 .byte   Gn3 ,v073
 .byte   W01
@  #01 @042   ----------------------------------------
 .byte   PATT
  .word Label_01005547
@  #01 @043   ----------------------------------------
 .byte   W92
 .byte   W03
 .byte   EOT
 .byte   An3 ,v074
 .byte   W01
@  #01 @044   ----------------------------------------
 .byte   PATT
  .word Label_0100552D
@  #01 @045   ----------------------------------------
 .byte   W92
 .byte   W03
 .byte   EOT
 .byte   En3 ,v071
 .byte   W01
@  #01 @046   ----------------------------------------
 .byte   W96
@  #01 @047   ----------------------------------------
 .byte   W96
@  #01 @048   ----------------------------------------
 .byte   W96
@  #01 @049   ----------------------------------------
 .byte   W96
@  #01 @050   ----------------------------------------
 .byte   W96
@  #01 @051   ----------------------------------------
 .byte   W96
@  #01 @052   ----------------------------------------
Label_01005587:
 .byte   TIE ,Gn2 ,v092
 .byte   TIE ,Bn2
 .byte   W96
 .byte   PEND 
@  #01 @053   ----------------------------------------
 .byte   W92
 .byte   W03
 .byte   EOT
 .byte   Gn2 ,v059
 .byte   W01
@  #01 @054   ----------------------------------------
Label_01005594:
 .byte   TIE ,An2 ,v092
 .byte   TIE ,Cn3
 .byte   W96
 .byte   PEND 
@  #01 @055   ----------------------------------------
 .byte   W92
 .byte   W03
 .byte   EOT
 .byte   An2 ,v060
 .byte   W01
@  #01 @056   ----------------------------------------
Label_010055A1:
 .byte   TIE ,An2 ,v092
 .byte   TIE ,Cs3
 .byte   W96
 .byte   PEND 
@  #01 @057   ----------------------------------------
 .byte   W92
 .byte   W03
 .byte   EOT
 .byte   An2 ,v061
 .byte   W01
@  #01 @058   ----------------------------------------
 .byte   PATT
  .word Label_01005594
@  #01 @059   ----------------------------------------
 .byte   W92
 .byte   W03
 .byte   EOT
 .byte   An2 ,v060
 .byte   W01
@  #01 @060   ----------------------------------------
 .byte   PATT
  .word Label_01005587
@  #01 @061   ----------------------------------------
 .byte   W92
 .byte   W03
 .byte   EOT
 .byte   Gn2 ,v059
 .byte   W01
@  #01 @062   ----------------------------------------
 .byte   PATT
  .word Label_01005594
@  #01 @063   ----------------------------------------
 .byte   W92
 .byte   W03
 .byte   EOT
 .byte   An2 ,v060
 .byte   W01
@  #01 @064   ----------------------------------------
 .byte   PATT
  .word Label_010055A1
@  #01 @065   ----------------------------------------
 .byte   W92
 .byte   W03
 .byte   EOT
 .byte   An2 ,v061
 .byte   W01
@  #01 @066   ----------------------------------------
 .byte   PATT
  .word Label_01005594
@  #01 @067   ----------------------------------------
 .byte   W92
 .byte   W03
 .byte   EOT
 .byte   An2 ,v060
 .byte   W01
@  #01 @068   ----------------------------------------
Label_010055E5:
 .byte   N11 ,En3 ,v092
 .byte   N11 ,Gn3
 .byte   N11 ,Bn3
 .byte   W72
 .byte   En3
 .byte   N11 ,Gn3
 .byte   N11 ,Bn3
 .byte   W24
 .byte   PEND 
@  #01 @069   ----------------------------------------
Label_010055F4:
 .byte   W24
 .byte   N44 ,En3 ,v092
 .byte   N44 ,Gn3
 .byte   N44 ,Bn3
 .byte   W72
 .byte   PEND 
@  #01 @070   ----------------------------------------
Label_010055FE:
 .byte   TIE ,Dn3 ,v092
 .byte   TIE ,Fn3
 .byte   TIE ,An3
 .byte   W96
 .byte   PEND 
@  #01 @071   ----------------------------------------
 .byte   W92
 .byte   W03
 .byte   EOT
 .byte   Dn3 ,v065
 .byte   An3
 .byte   W01
@  #01 @072   ----------------------------------------
Label_0100560E:
 .byte   TIE ,Bn2 ,v092
 .byte   TIE ,Ds3
 .byte   TIE ,Fs3
 .byte   W96
 .byte   PEND 
@  #01 @073   ----------------------------------------
 .byte   W92
 .byte   W03
 .byte   EOT
 .byte   Bn2 ,v063
 .byte   Fs3
 .byte   W01
@  #01 @074   ----------------------------------------
Label_0100561E:
 .byte   TIE ,An2 ,v092
 .byte   TIE ,Cn3
 .byte   TIE ,En3
 .byte   W96
 .byte   PEND 
@  #01 @075   ----------------------------------------
 .byte   W92
 .byte   W03
 .byte   EOT
 .byte   An2 ,v060
 .byte   En3
 .byte   W01
@  #01 @076   ----------------------------------------
 .byte   PATT
  .word Label_010055E5
@  #01 @077   ----------------------------------------
 .byte   PATT
  .word Label_010055F4
@  #01 @078   ----------------------------------------
 .byte   PATT
  .word Label_010055FE
@  #01 @079   ----------------------------------------
 .byte   W92
 .byte   W03
 .byte   EOT
 .byte   Dn3 ,v065
 .byte   An3
 .byte   W01
@  #01 @080   ----------------------------------------
 .byte   PATT
  .word Label_0100560E
@  #01 @081   ----------------------------------------
 .byte   W92
 .byte   W03
 .byte   EOT
 .byte   Bn2 ,v063
 .byte   Fs3
 .byte   W01
@  #01 @082   ----------------------------------------
 .byte   PATT
  .word Label_0100561E
@  #01 @083   ----------------------------------------
 .byte   W92
 .byte   W03
 .byte   EOT
 .byte   An2 ,v060
 .byte   En3
 .byte   W01
@  #01 @084   ----------------------------------------
 .byte   PATT
  .word Label_01005587
@  #01 @085   ----------------------------------------
 .byte   W92
 .byte   W03
 .byte   EOT
 .byte   Gn2 ,v059
 .byte   W01
@  #01 @086   ----------------------------------------
 .byte   PATT
  .word Label_01005594
@  #01 @087   ----------------------------------------
 .byte   W92
 .byte   W03
 .byte   EOT
 .byte   An2 ,v060
 .byte   W01
@  #01 @088   ----------------------------------------
 .byte   PATT
  .word Label_010055A1
@  #01 @089   ----------------------------------------
 .byte   W92
 .byte   W03
 .byte   EOT
 .byte   An2 ,v061
 .byte   W01
@  #01 @090   ----------------------------------------
 .byte   PATT
  .word Label_01005594
@  #01 @091   ----------------------------------------
 .byte   W92
 .byte   W03
 .byte   EOT
 .byte   An2 ,v060
 .byte   W01
@  #01 @092   ----------------------------------------
 .byte   PATT
  .word Label_01005587
@  #01 @093   ----------------------------------------
 .byte   W92
 .byte   W03
 .byte   EOT
 .byte   Gn2 ,v059
 .byte   W01
@  #01 @094   ----------------------------------------
 .byte   PATT
  .word Label_01005594
@  #01 @095   ----------------------------------------
 .byte   W92
 .byte   W03
 .byte   EOT
 .byte   An2 ,v060
 .byte   W01
@  #01 @096   ----------------------------------------
 .byte   PATT
  .word Label_010055A1
@  #01 @097   ----------------------------------------
 .byte   W92
 .byte   W03
 .byte   EOT
 .byte   An2 ,v061
 .byte   W01
@  #01 @098   ----------------------------------------
 .byte   PATT
  .word Label_01005594
@  #01 @099   ----------------------------------------
 .byte   W92
 .byte   W03
 .byte   EOT
 .byte   An2 ,v060
 .byte   W01
@  #01 @100   ----------------------------------------
 .byte   PATT
  .word Label_010055E5
@  #01 @101   ----------------------------------------
 .byte   PATT
  .word Label_010055F4
@  #01 @102   ----------------------------------------
 .byte   PATT
  .word Label_010055FE
@  #01 @103   ----------------------------------------
 .byte   W92
 .byte   W03
 .byte   EOT
 .byte   Dn3 ,v065
 .byte   An3
 .byte   W01
@  #01 @104   ----------------------------------------
 .byte   PATT
  .word Label_0100560E
@  #01 @105   ----------------------------------------
 .byte   W92
 .byte   W03
 .byte   EOT
 .byte   Bn2 ,v063
 .byte   Fs3
 .byte   W01
@  #01 @106   ----------------------------------------
 .byte   PATT
  .word Label_0100561E
@  #01 @107   ----------------------------------------
 .byte   W92
 .byte   W03
 .byte   EOT
 .byte   An2 ,v060
 .byte   En3
 .byte   W01
@  #01 @108   ----------------------------------------
 .byte   PATT
  .word Label_010055E5
@  #01 @109   ----------------------------------------
 .byte   PATT
  .word Label_010055F4
@  #01 @110   ----------------------------------------
 .byte   PATT
  .word Label_010055FE
@  #01 @111   ----------------------------------------
 .byte   W92
 .byte   W03
 .byte   EOT
 .byte   Dn3 ,v065
 .byte   An3
 .byte   W01
@  #01 @112   ----------------------------------------
 .byte   PATT
  .word Label_0100560E
@  #01 @113   ----------------------------------------
 .byte   W92
 .byte   W03
 .byte   EOT
 .byte   Bn2 ,v063
 .byte   Fs3
 .byte   W01
@  #01 @114   ----------------------------------------
 .byte   PATT
  .word Label_0100561E
@  #01 @115   ----------------------------------------
 .byte   W92
 .byte   W03
 .byte   EOT
 .byte   An2 ,v060
 .byte   En3
 .byte   W01
@  #01 @116   ----------------------------------------
 .byte   W96
@  #01 @117   ----------------------------------------
 .byte   W96
@  #01 @118   ----------------------------------------
 .byte   W96
@  #01 @119   ----------------------------------------
 .byte   W96
@  #01 @120   ----------------------------------------
 .byte   W96
@  #01 @121   ----------------------------------------
 .byte   W96
@  #01 @122   ----------------------------------------
 .byte   W96
@  #01 @123   ----------------------------------------
 .byte   W96
@  #01 @124   ----------------------------------------
 .byte   W96
@  #01 @125   ----------------------------------------
 .byte   W96
@  #01 @126   ----------------------------------------
 .byte   W96
@  #01 @127   ----------------------------------------
 .byte   W96
@  #01 @128   ----------------------------------------
 .byte   W96
@  #01 @129   ----------------------------------------
 .byte   W96
@  #01 @130   ----------------------------------------
 .byte   W96
@  #01 @131   ----------------------------------------
 .byte   W96
@  #01 @132   ----------------------------------------
 .byte   W96
@  #01 @133   ----------------------------------------
 .byte   W96
@  #01 @134   ----------------------------------------
 .byte   W96
@  #01 @135   ----------------------------------------
 .byte   W96
@  #01 @136   ----------------------------------------
 .byte   W96
@  #01 @137   ----------------------------------------
 .byte   W96
@  #01 @138   ----------------------------------------
 .byte   W96
@  #01 @139   ----------------------------------------
Label_01005727:
 .byte   N11 ,Bn3 ,v092
 .byte   N11 ,Bn4
 .byte   W12
 .byte   An3
 .byte   N11 ,An4
 .byte   W12
 .byte   Gn3
 .byte   N11 ,Gn4
 .byte   W12
 .byte   Fn3
 .byte   N11 ,Fn4
 .byte   W12
 .byte   En3
 .byte   N11 ,En4
 .byte   W12
 .byte   Ds3
 .byte   N11 ,Ds4
 .byte   W12
 .byte   Cn3
 .byte   N11 ,Cn4
 .byte   W12
 .byte   Bn2
 .byte   N11 ,Bn3
 .byte   W12
 .byte   PEND 
@  #01 @140   ----------------------------------------
Label_0100574A:
 .byte   N68 ,En3 ,v092
 .byte   N68 ,An3
 .byte   W72
 .byte   TIE ,Gn3
 .byte   TIE ,Bn3
 .byte   W24
 .byte   PEND 
@  #01 @141   ----------------------------------------
 .byte   W92
 .byte   W03
 .byte   EOT
 .byte   Gn3 ,v071
 .byte   W01
@  #01 @142   ----------------------------------------
 .byte   N92 ,Gn3
 .byte   N92 ,Bn3
 .byte   W96
@  #01 @143   ----------------------------------------
Label_01005761:
 .byte   N32 ,Bn3 ,v092
 .byte   N32 ,Dn4
 .byte   W36
 .byte   An3
 .byte   N32 ,Cn4
 .byte   W36
 .byte   N23 ,Gn3
 .byte   N23 ,Bn3
 .byte   W24
 .byte   PEND 
@  #01 @144   ----------------------------------------
 .byte   N92 ,En3
 .byte   N92 ,An3
 .byte   W96
@  #01 @145   ----------------------------------------
 .byte   Ds3
 .byte   N92 ,Gn3
 .byte   W96
@  #01 @146   ----------------------------------------
Label_0100577A:
 .byte   TIE ,Gn3 ,v092
 .byte   TIE ,Bn3
 .byte   W96
 .byte   PEND 
@  #01 @147   ----------------------------------------
 .byte   W92
 .byte   W03
 .byte   EOT
 .byte   Gn3 ,v071
 .byte   W01
@  #01 @148   ----------------------------------------
Label_01005787:
 .byte   N11 ,An2 ,v092
 .byte   W12
 .byte   Bn2
 .byte   W12
 .byte   Fs3
 .byte   W12
 .byte   Cn3
 .byte   W12
 .byte   An2
 .byte   W12
 .byte   Bn2
 .byte   W12
 .byte   Cn3
 .byte   W12
 .byte   Bn2
 .byte   W12
 .byte   PEND 
@  #01 @149   ----------------------------------------
Label_0100579A:
 .byte   N11 ,Fs3 ,v092
 .byte   W12
 .byte   Bn2
 .byte   W12
 .byte   An2
 .byte   W12
 .byte   Cn3
 .byte   W12
 .byte   An2
 .byte   W12
 .byte   Bn2
 .byte   W12
 .byte   Cn3
 .byte   W12
 .byte   Bn2
 .byte   W12
 .byte   PEND 
@  #01 @150   ----------------------------------------
Label_010057AD:
 .byte   N11 ,An2 ,v092
 .byte   W12
 .byte   Bn2
 .byte   W12
 .byte   Fs3
 .byte   W12
 .byte   Bn2
 .byte   W12
 .byte   An2
 .byte   W12
 .byte   Bn2
 .byte   W12
 .byte   Cn3
 .byte   W12
 .byte   Bn2
 .byte   W12
 .byte   PEND 
@  #01 @151   ----------------------------------------
 .byte   PATT
  .word Label_0100579A
@  #01 @152   ----------------------------------------
 .byte   W96
@  #01 @153   ----------------------------------------
 .byte   W96
@  #01 @154   ----------------------------------------
Label_010057C7:
 .byte   N11 ,Bn3 ,v092
 .byte   W12
 .byte   En3
 .byte   W12
 .byte   An3
 .byte   W12
 .byte   En3
 .byte   W12
 .byte   N11
 .byte   W12
 .byte   N11
 .byte   W12
 .byte   Cn4
 .byte   W12
 .byte   En3
 .byte   W12
 .byte   PEND 
@  #01 @155   ----------------------------------------
Label_010057DA:
 .byte   N11 ,Fs3 ,v092
 .byte   W12
 .byte   Bn3
 .byte   W12
 .byte   Fs3
 .byte   W12
 .byte   N11
 .byte   W12
 .byte   Cn4
 .byte   W12
 .byte   Bn3
 .byte   W12
 .byte   An3
 .byte   W12
 .byte   Fs3
 .byte   W12
 .byte   PEND 
@  #01 @156   ----------------------------------------
 .byte   PATT
  .word Label_0100574A
@  #01 @157   ----------------------------------------
 .byte   W92
 .byte   W03
 .byte   EOT
 .byte   Gn3 ,v071
 .byte   W01
@  #01 @158   ----------------------------------------
 .byte   N92 ,Gn3 ,v092
 .byte   N92 ,Bn3
 .byte   W96
@  #01 @159   ----------------------------------------
 .byte   PATT
  .word Label_01005761
@  #01 @160   ----------------------------------------
 .byte   N92 ,En3 ,v092
 .byte   N92 ,An3
 .byte   W96
@  #01 @161   ----------------------------------------
 .byte   Ds3
 .byte   N92 ,Gn3
 .byte   W96
@  #01 @162   ----------------------------------------
 .byte   PATT
  .word Label_0100577A
@  #01 @163   ----------------------------------------
 .byte   W92
 .byte   W03
 .byte   EOT
 .byte   Gn3 ,v071
 .byte   W01
@  #01 @164   ----------------------------------------
 .byte   N92 ,An3 ,v092
 .byte   N92 ,Cn4
 .byte   W96
@  #01 @165   ----------------------------------------
 .byte   Gn3
 .byte   N92 ,Bn3
 .byte   W96
@  #01 @166   ----------------------------------------
 .byte   En3
 .byte   N92 ,An3
 .byte   W96
@  #01 @167   ----------------------------------------
 .byte   Gn3
 .byte   N92 ,Bn3
 .byte   W96
@  #01 @168   ----------------------------------------
 .byte   Dn3
 .byte   N92 ,Fs3
 .byte   W96
@  #01 @169   ----------------------------------------
 .byte   N92
 .byte   N92 ,An3
 .byte   W96
@  #01 @170   ----------------------------------------
 .byte   En3
 .byte   N92 ,Gn3
 .byte   W96
@  #01 @171   ----------------------------------------
 .byte   Bn3
 .byte   N92 ,En4
 .byte   W96
@  #01 @172   ----------------------------------------
 .byte   PATT
  .word Label_010054E4
@  #01 @173   ----------------------------------------
 .byte   W92
 .byte   W03
 .byte   EOT
 .byte   Bn2 ,v064
 .byte   W01
@  #01 @174   ----------------------------------------
 .byte   PATT
  .word Label_0100552D
@  #01 @175   ----------------------------------------
 .byte   W92
 .byte   W03
 .byte   EOT
 .byte   En3 ,v071
 .byte   W01
@  #01 @176   ----------------------------------------
 .byte   PATT
  .word Label_0100553A
@  #01 @177   ----------------------------------------
 .byte   W92
 .byte   W03
 .byte   EOT
 .byte   Gn3 ,v073
 .byte   W01
@  #01 @178   ----------------------------------------
 .byte   PATT
  .word Label_01005547
@  #01 @179   ----------------------------------------
 .byte   W68
 .byte   W03
 .byte   EOT
 .byte   Dn4
 .byte   W24
 .byte   An3
 .byte   W01
@  #01 @180   ----------------------------------------
 .byte   PATT
  .word Label_01005547
@  #01 @181   ----------------------------------------
 .byte   W92
 .byte   W03
 .byte   EOT
 .byte   An3 ,v074
 .byte   W01
@  #01 @182   ----------------------------------------
 .byte   PATT
  .word Label_0100553A
@  #01 @183   ----------------------------------------
 .byte   W92
 .byte   W03
 .byte   EOT
 .byte   Gn3 ,v073
 .byte   W01
@  #01 @184   ----------------------------------------
 .byte   PATT
  .word Label_01005547
@  #01 @185   ----------------------------------------
 .byte   W92
 .byte   W03
 .byte   EOT
 .byte   An3 ,v074
 .byte   W01
@  #01 @186   ----------------------------------------
 .byte   PATT
  .word Label_0100552D
@  #01 @187   ----------------------------------------
 .byte   W92
 .byte   W03
 .byte   EOT
 .byte   En3 ,v071
 .byte   W01
@  #01 @188   ----------------------------------------
 .byte   W96
@  #01 @189   ----------------------------------------
 .byte   W96
@  #01 @190   ----------------------------------------
 .byte   W96
@  #01 @191   ----------------------------------------
 .byte   W96
@  #01 @192   ----------------------------------------
 .byte   W96
@  #01 @193   ----------------------------------------
 .byte   W96
@  #01 @194   ----------------------------------------
 .byte   PATT
  .word Label_01005587
@  #01 @195   ----------------------------------------
 .byte   W92
 .byte   W03
 .byte   EOT
 .byte   Gn2 ,v059
 .byte   W01
@  #01 @196   ----------------------------------------
 .byte   PATT
  .word Label_01005594
@  #01 @197   ----------------------------------------
 .byte   W92
 .byte   W03
 .byte   EOT
 .byte   An2 ,v060
 .byte   W01
@  #01 @198   ----------------------------------------
 .byte   PATT
  .word Label_010055A1
@  #01 @199   ----------------------------------------
 .byte   W92
 .byte   W03
 .byte   EOT
 .byte   An2 ,v061
 .byte   W01
@  #01 @200   ----------------------------------------
 .byte   PATT
  .word Label_01005594
@  #01 @201   ----------------------------------------
 .byte   W92
 .byte   W03
 .byte   EOT
 .byte   An2 ,v060
 .byte   W01
@  #01 @202   ----------------------------------------
 .byte   PATT
  .word Label_01005587
@  #01 @203   ----------------------------------------
 .byte   W92
 .byte   W03
 .byte   EOT
 .byte   Gn2 ,v059
 .byte   W01
@  #01 @204   ----------------------------------------
 .byte   PATT
  .word Label_01005594
@  #01 @205   ----------------------------------------
 .byte   W92
 .byte   W03
 .byte   EOT
 .byte   An2 ,v060
 .byte   W01
@  #01 @206   ----------------------------------------
 .byte   PATT
  .word Label_010055A1
@  #01 @207   ----------------------------------------
 .byte   W92
 .byte   W03
 .byte   EOT
 .byte   An2 ,v061
 .byte   W01
@  #01 @208   ----------------------------------------
 .byte   PATT
  .word Label_01005594
@  #01 @209   ----------------------------------------
 .byte   W92
 .byte   W03
 .byte   EOT
 .byte   An2 ,v060
 .byte   W01
@  #01 @210   ----------------------------------------
 .byte   PATT
  .word Label_010055E5
@  #01 @211   ----------------------------------------
 .byte   PATT
  .word Label_010055F4
@  #01 @212   ----------------------------------------
 .byte   PATT
  .word Label_010055FE
@  #01 @213   ----------------------------------------
 .byte   W92
 .byte   W03
 .byte   EOT
 .byte   Dn3 ,v065
 .byte   An3
 .byte   W01
@  #01 @214   ----------------------------------------
 .byte   PATT
  .word Label_0100560E
@  #01 @215   ----------------------------------------
 .byte   W92
 .byte   W03
 .byte   EOT
 .byte   Bn2 ,v063
 .byte   Fs3
 .byte   W01
@  #01 @216   ----------------------------------------
 .byte   PATT
  .word Label_0100561E
@  #01 @217   ----------------------------------------
 .byte   W92
 .byte   W03
 .byte   EOT
 .byte   An2 ,v060
 .byte   En3
 .byte   W01
@  #01 @218   ----------------------------------------
 .byte   PATT
  .word Label_010055E5
@  #01 @219   ----------------------------------------
 .byte   PATT
  .word Label_010055F4
@  #01 @220   ----------------------------------------
 .byte   PATT
  .word Label_010055FE
@  #01 @221   ----------------------------------------
 .byte   W92
 .byte   W03
 .byte   EOT
 .byte   Dn3 ,v065
 .byte   An3
 .byte   W01
@  #01 @222   ----------------------------------------
 .byte   PATT
  .word Label_0100560E
@  #01 @223   ----------------------------------------
 .byte   W92
 .byte   W03
 .byte   EOT
 .byte   Bn2 ,v063
 .byte   Fs3
 .byte   W01
@  #01 @224   ----------------------------------------
 .byte   PATT
  .word Label_0100561E
@  #01 @225   ----------------------------------------
 .byte   W92
 .byte   W03
 .byte   EOT
 .byte   An2 ,v060
 .byte   En3
 .byte   W01
@  #01 @226   ----------------------------------------
 .byte   PATT
  .word Label_01005587
@  #01 @227   ----------------------------------------
 .byte   W92
 .byte   W03
 .byte   EOT
 .byte   Gn2 ,v059
 .byte   W01
@  #01 @228   ----------------------------------------
 .byte   PATT
  .word Label_01005594
@  #01 @229   ----------------------------------------
 .byte   W92
 .byte   W03
 .byte   EOT
 .byte   An2 ,v060
 .byte   W01
@  #01 @230   ----------------------------------------
 .byte   PATT
  .word Label_010055A1
@  #01 @231   ----------------------------------------
 .byte   W92
 .byte   W03
 .byte   EOT
 .byte   An2 ,v061
 .byte   W01
@  #01 @232   ----------------------------------------
 .byte   PATT
  .word Label_01005594
@  #01 @233   ----------------------------------------
 .byte   W92
 .byte   W03
 .byte   EOT
 .byte   An2 ,v060
 .byte   W01
@  #01 @234   ----------------------------------------
 .byte   PATT
  .word Label_01005587
@  #01 @235   ----------------------------------------
 .byte   W92
 .byte   W03
 .byte   EOT
 .byte   Gn2 ,v059
 .byte   W01
@  #01 @236   ----------------------------------------
 .byte   PATT
  .word Label_01005594
@  #01 @237   ----------------------------------------
 .byte   W92
 .byte   W03
 .byte   EOT
 .byte   An2 ,v060
 .byte   W01
@  #01 @238   ----------------------------------------
 .byte   PATT
  .word Label_010055A1
@  #01 @239   ----------------------------------------
 .byte   W92
 .byte   W03
 .byte   EOT
 .byte   An2 ,v061
 .byte   W01
@  #01 @240   ----------------------------------------
 .byte   PATT
  .word Label_01005594
@  #01 @241   ----------------------------------------
 .byte   W92
 .byte   W03
 .byte   EOT
 .byte   An2 ,v060
 .byte   W01
@  #01 @242   ----------------------------------------
 .byte   PATT
  .word Label_010055E5
@  #01 @243   ----------------------------------------
 .byte   PATT
  .word Label_010055F4
@  #01 @244   ----------------------------------------
 .byte   PATT
  .word Label_010055FE
@  #01 @245   ----------------------------------------
 .byte   W92
 .byte   W03
 .byte   EOT
 .byte   Dn3 ,v065
 .byte   An3
 .byte   W01
@  #01 @246   ----------------------------------------
 .byte   PATT
  .word Label_0100560E
@  #01 @247   ----------------------------------------
 .byte   W92
 .byte   W03
 .byte   EOT
 .byte   Bn2 ,v063
 .byte   Fs3
 .byte   W01
@  #01 @248   ----------------------------------------
 .byte   PATT
  .word Label_0100561E
@  #01 @249   ----------------------------------------
 .byte   W92
 .byte   W03
 .byte   EOT
 .byte   An2 ,v060
 .byte   En3
 .byte   W01
@  #01 @250   ----------------------------------------
 .byte   PATT
  .word Label_010055E5
@  #01 @251   ----------------------------------------
 .byte   PATT
  .word Label_010055F4
@  #01 @252   ----------------------------------------
 .byte   PATT
  .word Label_010055FE
@  #01 @253   ----------------------------------------
 .byte   W92
 .byte   W03
 .byte   EOT
 .byte   Dn3 ,v065
 .byte   An3
 .byte   W01
@  #01 @254   ----------------------------------------
 .byte   PATT
  .word Label_0100560E
@  #01 @255   ----------------------------------------
 .byte   W92
 .byte   W03
 .byte   EOT
 .byte   Bn2 ,v063
 .byte   Fs3
 .byte   W01
@  #01 @256   ----------------------------------------
 .byte   PATT
  .word Label_0100561E
@  #01 @257   ----------------------------------------
 .byte   W92
 .byte   W03
 .byte   EOT
 .byte   An2 ,v060
 .byte   En3
 .byte   W01
@  #01 @258   ----------------------------------------
 .byte   W96
@  #01 @259   ----------------------------------------
 .byte   W96
@  #01 @260   ----------------------------------------
 .byte   W96
@  #01 @261   ----------------------------------------
 .byte   W96
@  #01 @262   ----------------------------------------
 .byte   W96
@  #01 @263   ----------------------------------------
 .byte   W96
@  #01 @264   ----------------------------------------
 .byte   W96
@  #01 @265   ----------------------------------------
 .byte   W96
@  #01 @266   ----------------------------------------
 .byte   W96
@  #01 @267   ----------------------------------------
 .byte   W96
@  #01 @268   ----------------------------------------
 .byte   W96
@  #01 @269   ----------------------------------------
 .byte   W96
@  #01 @270   ----------------------------------------
 .byte   W96
@  #01 @271   ----------------------------------------
 .byte   W96
@  #01 @272   ----------------------------------------
 .byte   W96
@  #01 @273   ----------------------------------------
 .byte   W96
@  #01 @274   ----------------------------------------
 .byte   W96
@  #01 @275   ----------------------------------------
 .byte   W96
@  #01 @276   ----------------------------------------
 .byte   W96
@  #01 @277   ----------------------------------------
 .byte   W96
@  #01 @278   ----------------------------------------
 .byte   W96
@  #01 @279   ----------------------------------------
 .byte   W96
@  #01 @280   ----------------------------------------
 .byte   W96
@  #01 @281   ----------------------------------------
 .byte   PATT
  .word Label_01005727
@  #01 @282   ----------------------------------------
 .byte   PATT
  .word Label_0100574A
@  #01 @283   ----------------------------------------
 .byte   W92
 .byte   W03
 .byte   EOT
 .byte   Gn3 ,v071
 .byte   W01
@  #01 @284   ----------------------------------------
 .byte   N92 ,Gn3 ,v092
 .byte   N92 ,Bn3
 .byte   W96
@  #01 @285   ----------------------------------------
 .byte   PATT
  .word Label_01005761
@  #01 @286   ----------------------------------------
 .byte   N92 ,En3 ,v092
 .byte   N92 ,An3
 .byte   W96
@  #01 @287   ----------------------------------------
 .byte   Ds3
 .byte   N92 ,Gn3
 .byte   W96
@  #01 @288   ----------------------------------------
 .byte   PATT
  .word Label_0100577A
@  #01 @289   ----------------------------------------
 .byte   W92
 .byte   W03
 .byte   EOT
 .byte   Gn3 ,v071
 .byte   W01
@  #01 @290   ----------------------------------------
 .byte   PATT
  .word Label_01005787
@  #01 @291   ----------------------------------------
 .byte   PATT
  .word Label_0100579A
@  #01 @292   ----------------------------------------
 .byte   PATT
  .word Label_010057AD
@  #01 @293   ----------------------------------------
 .byte   PATT
  .word Label_0100579A
@  #01 @294   ----------------------------------------
 .byte   W96
@  #01 @295   ----------------------------------------
 .byte   W96
@  #01 @296   ----------------------------------------
 .byte   PATT
  .word Label_010057C7
@  #01 @297   ----------------------------------------
 .byte   PATT
  .word Label_010057DA
@  #01 @298   ----------------------------------------
 .byte   PATT
  .word Label_0100574A
@  #01 @299   ----------------------------------------
 .byte   W92
 .byte   W03
 .byte   EOT
 .byte   Gn3 ,v071
 .byte   W01
@  #01 @300   ----------------------------------------
 .byte   N92 ,Gn3 ,v092
 .byte   N92 ,Bn3
 .byte   W96
@  #01 @301   ----------------------------------------
 .byte   PATT
  .word Label_01005761
@  #01 @302   ----------------------------------------
 .byte   N92 ,En3 ,v092
 .byte   N92 ,An3
 .byte   W96
@  #01 @303   ----------------------------------------
 .byte   Ds3
 .byte   N92 ,Gn3
 .byte   W96
@  #01 @304   ----------------------------------------
 .byte   PATT
  .word Label_0100577A
@  #01 @305   ----------------------------------------
 .byte   W92
 .byte   W03
 .byte   EOT
 .byte   Gn3 ,v071
 .byte   W01
@  #01 @306   ----------------------------------------
 .byte   N92 ,An3 ,v092
 .byte   N92 ,Cn4
 .byte   W96
@  #01 @307   ----------------------------------------
 .byte   Gn3
 .byte   N92 ,Bn3
 .byte   W96
@  #01 @308   ----------------------------------------
 .byte   En3
 .byte   N92 ,An3
 .byte   W96
@  #01 @309   ----------------------------------------
 .byte   Gn3
 .byte   N92 ,Bn3
 .byte   W96
@  #01 @310   ----------------------------------------
 .byte   Dn3
 .byte   N92 ,Fs3
 .byte   W96
@  #01 @311   ----------------------------------------
 .byte   N92
 .byte   N92 ,An3
 .byte   W96
@  #01 @312   ----------------------------------------
 .byte   En3
 .byte   N92 ,Gn3
 .byte   W96
@  #01 @313   ----------------------------------------
 .byte   Bn3
 .byte   N92 ,En4
 .byte   W96
@  #01 @314   ----------------------------------------
 .byte   N68 ,En3
 .byte   N68 ,An3
 .byte   N68 ,An4
 .byte   W72
 .byte   TIE ,Gn3
 .byte   TIE ,Bn3
 .byte   TIE ,Bn4
 .byte   W24
@  #01 @315   ----------------------------------------
 .byte   W92
 .byte   W03
 .byte   EOT
 .byte   Gn3 ,v071
 .byte   Bn4
 .byte   W01
@  #01 @316   ----------------------------------------
Label_01005ACA:
 .byte   N92 ,Gn3 ,v092
 .byte   N92 ,Bn3
 .byte   N92 ,Bn4
 .byte   W96
 .byte   PEND 
@  #01 @317   ----------------------------------------
 .byte   N32 ,Bn3
 .byte   N32 ,Dn4
 .byte   N32 ,Dn5
 .byte   W36
 .byte   An3
 .byte   N32 ,Cn4
 .byte   N32 ,Cn5
 .byte   W36
 .byte   N23 ,Gn3
 .byte   N23 ,Bn3
 .byte   N23 ,Bn4
 .byte   W24
@  #01 @318   ----------------------------------------
 .byte   N92 ,En3
 .byte   N92 ,An3
 .byte   N92 ,An4
 .byte   W96
@  #01 @319   ----------------------------------------
 .byte   Ds3
 .byte   N92 ,Gn3
 .byte   N92 ,Gn4
 .byte   W96
@  #01 @320   ----------------------------------------
 .byte   TIE ,Gn3
 .byte   TIE ,Bn3
 .byte   TIE ,Bn4
 .byte   W96
@  #01 @321   ----------------------------------------
 .byte   W92
 .byte   W03
 .byte   EOT
 .byte   Gn3 ,v071
 .byte   Bn4
 .byte   W01
@  #01 @322   ----------------------------------------
 .byte   N92 ,An3
 .byte   N92 ,Cn4
 .byte   N92 ,Cn5
 .byte   W96
@  #01 @323   ----------------------------------------
 .byte   PATT
  .word Label_01005ACA
@  #01 @324   ----------------------------------------
 .byte   N92 ,En3 ,v092
 .byte   N92 ,An3
 .byte   N92 ,An4
 .byte   W96
@  #01 @325   ----------------------------------------
 .byte   PATT
  .word Label_01005ACA
@  #01 @326   ----------------------------------------
 .byte   N92 ,Dn3 ,v092
 .byte   N92 ,Fs3
 .byte   N92 ,Fs4
 .byte   W96
@  #01 @327   ----------------------------------------
 .byte   Fs3
 .byte   N92 ,An3
 .byte   N92 ,An4
 .byte   W96
@  #01 @328   ----------------------------------------
 .byte   En3
 .byte   N92 ,Gn3
 .byte   N92 ,Gn4
 .byte   W96
@  #01 @329   ----------------------------------------
 .byte   Bn3
 .byte   N92 ,En4
 .byte   N92 ,En5
 .byte   W96
@  #01 @330   ----------------------------------------
 .byte   GOTO
  .word Label_0100551A
@  #01 @331   ----------------------------------------
 .byte   PATT
  .word Label_010054E4
@  #01 @332   ----------------------------------------
 .byte   W92
 .byte   W03
 .byte   EOT
 .byte   Bn2 ,v064
 .byte   W01
@  #01 @333   ----------------------------------------
 .byte   PATT
  .word Label_0100552D
@  #01 @334   ----------------------------------------
 .byte   W92
 .byte   W03
 .byte   EOT
 .byte   En3 ,v071
 .byte   W01
@  #01 @335   ----------------------------------------
 .byte   PATT
  .word Label_0100553A
@  #01 @336   ----------------------------------------
 .byte   W92
 .byte   W03
 .byte   EOT
 .byte   Gn3 ,v073
 .byte   W01
@  #01 @337   ----------------------------------------
 .byte   PATT
  .word Label_01005547
@  #01 @338   ----------------------------------------
 .byte   W68
 .byte   W03
 .byte   EOT
 .byte   Dn4
 .byte   W24
 .byte   An3
 .byte   W01
@  #01 @339   ----------------------------------------
 .byte   PATT
  .word Label_01005547
@  #01 @340   ----------------------------------------
 .byte   W92
 .byte   W03
 .byte   EOT
 .byte   An3 ,v074
 .byte   W01
@  #01 @341   ----------------------------------------
 .byte   PATT
  .word Label_0100553A
@  #01 @342   ----------------------------------------
 .byte   W92
 .byte   W03
 .byte   EOT
 .byte   Gn3 ,v073
 .byte   W01
@  #01 @343   ----------------------------------------
 .byte   PATT
  .word Label_01005547
@  #01 @344   ----------------------------------------
 .byte   W92
 .byte   W03
 .byte   EOT
 .byte   An3 ,v074
 .byte   W01
@  #01 @345   ----------------------------------------
 .byte   PATT
  .word Label_0100552D
@  #01 @346   ----------------------------------------
 .byte   W92
 .byte   W03
 .byte   EOT
 .byte   En3 ,v071
 .byte   W01
@  #01 @347   ----------------------------------------
 .byte   W96
@  #01 @348   ----------------------------------------
 .byte   W96
 .byte   FINE

@**************** Track 2 (Midi-Chn.1) ****************@

song04_002:
@  #02 @000   ----------------------------------------
 .byte   KEYSH , song04_key+0
 .byte   VOICE , 110
 .byte   PAN , c_v-24
 .byte   VOL , 30*song04_mvl/mxv
 .byte   W96
@  #02 @001   ----------------------------------------
 .byte   W96
@  #02 @002   ----------------------------------------
 .byte   W96
@  #02 @003   ----------------------------------------
 .byte   W96
@  #02 @004   ----------------------------------------
 .byte   W96
@  #02 @005   ----------------------------------------
 .byte   W96
@  #02 @006   ----------------------------------------
 .byte   W96
@  #02 @007   ----------------------------------------
 .byte   W96
@  #02 @008   ----------------------------------------
 .byte   W96
@  #02 @009   ----------------------------------------
 .byte   W96
@  #02 @010   ----------------------------------------
 .byte   W96
@  #02 @011   ----------------------------------------
 .byte   W96
@  #02 @012   ----------------------------------------
 .byte   W96
@  #02 @013   ----------------------------------------
 .byte   W96
@  #02 @014   ----------------------------------------
 .byte   W96
@  #02 @015   ----------------------------------------
 .byte   W96
@  #02 @016   ----------------------------------------
 .byte   W96
@  #02 @017   ----------------------------------------
 .byte   W96
@  #02 @018   ----------------------------------------
 .byte   W96
@  #02 @019   ----------------------------------------
 .byte   W96
@  #02 @020   ----------------------------------------
 .byte   W96
@  #02 @021   ----------------------------------------
 .byte   W96
@  #02 @022   ----------------------------------------
Label_01005BC6:
 .byte   W96
@  #02 @023   ----------------------------------------
 .byte   W96
@  #02 @024   ----------------------------------------
 .byte   W96
@  #02 @025   ----------------------------------------
 .byte   W96
@  #02 @026   ----------------------------------------
 .byte   W96
@  #02 @027   ----------------------------------------
 .byte   W96
@  #02 @028   ----------------------------------------
 .byte   W96
@  #02 @029   ----------------------------------------
 .byte   W96
@  #02 @030   ----------------------------------------
 .byte   W96
@  #02 @031   ----------------------------------------
 .byte   W96
@  #02 @032   ----------------------------------------
 .byte   W96
@  #02 @033   ----------------------------------------
 .byte   W96
@  #02 @034   ----------------------------------------
 .byte   W96
@  #02 @035   ----------------------------------------
 .byte   W96
@  #02 @036   ----------------------------------------
 .byte   W96
@  #02 @037   ----------------------------------------
 .byte   W96
@  #02 @038   ----------------------------------------
 .byte   W96
@  #02 @039   ----------------------------------------
 .byte   W96
@  #02 @040   ----------------------------------------
 .byte   W96
@  #02 @041   ----------------------------------------
 .byte   W96
@  #02 @042   ----------------------------------------
 .byte   W96
@  #02 @043   ----------------------------------------
 .byte   W96
@  #02 @044   ----------------------------------------
 .byte   W96
@  #02 @045   ----------------------------------------
 .byte   W96
@  #02 @046   ----------------------------------------
 .byte   W96
@  #02 @047   ----------------------------------------
 .byte   W96
@  #02 @048   ----------------------------------------
 .byte   W96
@  #02 @049   ----------------------------------------
 .byte   W96
@  #02 @050   ----------------------------------------
 .byte   W96
@  #02 @051   ----------------------------------------
 .byte   W96
@  #02 @052   ----------------------------------------
Label_01005BE4:
 .byte   W48
 .byte   N23 ,Fn3 ,v092
 .byte   W24
 .byte   N44 ,En3
 .byte   W24
 .byte   PEND 
@  #02 @053   ----------------------------------------
Label_01005BED:
 .byte   W24
 .byte   N23 ,Dn3 ,v092
 .byte   W24
 .byte   En3
 .byte   W24
 .byte   Fs3
 .byte   W24
 .byte   PEND 
@  #02 @054   ----------------------------------------
Label_01005BF7:
 .byte   N68 ,An3 ,v092
 .byte   W72
 .byte   Fn3
 .byte   W24
 .byte   PEND 
@  #02 @055   ----------------------------------------
 .byte   W48
 .byte   N44 ,Gn3
 .byte   W48
@  #02 @056   ----------------------------------------
 .byte   N92 ,Bn3
 .byte   W96
@  #02 @057   ----------------------------------------
Label_01005C05:
 .byte   N32 ,An3 ,v092
 .byte   W36
 .byte   En3
 .byte   W36
 .byte   N23 ,Fs3
 .byte   W24
 .byte   PEND 
@  #02 @058   ----------------------------------------
 .byte   N92 ,Fn3
 .byte   W96
@  #02 @059   ----------------------------------------
 .byte   Dn3
 .byte   W96
@  #02 @060   ----------------------------------------
 .byte   N68 ,En3
 .byte   W72
 .byte   Bn3
 .byte   W24
@  #02 @061   ----------------------------------------
 .byte   W48
 .byte   N44 ,En3
 .byte   W48
@  #02 @062   ----------------------------------------
Label_01005C1D:
 .byte   N68 ,Fn3 ,v092
 .byte   W72
 .byte   Cn4
 .byte   W24
 .byte   PEND 
@  #02 @063   ----------------------------------------
 .byte   W48
 .byte   N44 ,Fn3
 .byte   W48
@  #02 @064   ----------------------------------------
Label_01005C28:
 .byte   N68 ,Fs3 ,v092
 .byte   W72
 .byte   Cs4
 .byte   W24
 .byte   PEND 
@  #02 @065   ----------------------------------------
 .byte   W48
 .byte   N44 ,Fs3
 .byte   W48
@  #02 @066   ----------------------------------------
Label_01005C33:
 .byte   N68 ,Gn3 ,v092
 .byte   W72
 .byte   Cn4
 .byte   W24
 .byte   PEND 
@  #02 @067   ----------------------------------------
 .byte   W48
 .byte   N44 ,Gn3
 .byte   W48
@  #02 @068   ----------------------------------------
 .byte   W96
@  #02 @069   ----------------------------------------
 .byte   W24
 .byte   En4
 .byte   W72
@  #02 @070   ----------------------------------------
 .byte   W96
@  #02 @071   ----------------------------------------
 .byte   W48
 .byte   N44
 .byte   W48
@  #02 @072   ----------------------------------------
Label_01005C46:
 .byte   N68 ,Ds4 ,v092
 .byte   W72
 .byte   Bn3
 .byte   W24
 .byte   PEND 
@  #02 @073   ----------------------------------------
 .byte   W48
 .byte   N44 ,An3
 .byte   W48
@  #02 @074   ----------------------------------------
 .byte   TIE
 .byte   W96
@  #02 @075   ----------------------------------------
 .byte   W92
 .byte   W03
 .byte   EOT
 .byte   W01
@  #02 @076   ----------------------------------------
 .byte   W96
@  #02 @077   ----------------------------------------
 .byte   W24
 .byte   N44 ,En4
 .byte   W72
@  #02 @078   ----------------------------------------
 .byte   W96
@  #02 @079   ----------------------------------------
 .byte   W48
 .byte   N44
 .byte   W48
@  #02 @080   ----------------------------------------
 .byte   PATT
  .word Label_01005C46
@  #02 @081   ----------------------------------------
 .byte   W48
 .byte   N44 ,An3 ,v092
 .byte   W48
@  #02 @082   ----------------------------------------
 .byte   TIE
 .byte   W96
@  #02 @083   ----------------------------------------
 .byte   W92
 .byte   W03
 .byte   EOT
 .byte   W01
@  #02 @084   ----------------------------------------
 .byte   PATT
  .word Label_01005BE4
@  #02 @085   ----------------------------------------
 .byte   PATT
  .word Label_01005BED
@  #02 @086   ----------------------------------------
 .byte   PATT
  .word Label_01005BF7
@  #02 @087   ----------------------------------------
 .byte   W48
 .byte   N44 ,Gn3 ,v092
 .byte   W48
@  #02 @088   ----------------------------------------
 .byte   N92 ,Bn3
 .byte   W96
@  #02 @089   ----------------------------------------
 .byte   PATT
  .word Label_01005C05
@  #02 @090   ----------------------------------------
 .byte   N92 ,Fn3 ,v092
 .byte   W96
@  #02 @091   ----------------------------------------
 .byte   Dn3
 .byte   W96
@  #02 @092   ----------------------------------------
 .byte   N68 ,En3
 .byte   W72
 .byte   Bn3
 .byte   W24
@  #02 @093   ----------------------------------------
 .byte   W48
 .byte   N44 ,En3
 .byte   W48
@  #02 @094   ----------------------------------------
 .byte   PATT
  .word Label_01005C1D
@  #02 @095   ----------------------------------------
 .byte   W48
 .byte   N44 ,Fn3 ,v092
 .byte   W48
@  #02 @096   ----------------------------------------
 .byte   PATT
  .word Label_01005C28
@  #02 @097   ----------------------------------------
 .byte   W48
 .byte   N44 ,Fs3 ,v092
 .byte   W48
@  #02 @098   ----------------------------------------
 .byte   PATT
  .word Label_01005C33
@  #02 @099   ----------------------------------------
 .byte   W48
 .byte   N44 ,Gn3 ,v092
 .byte   W48
@  #02 @100   ----------------------------------------
 .byte   W96
@  #02 @101   ----------------------------------------
 .byte   W24
 .byte   En4
 .byte   W72
@  #02 @102   ----------------------------------------
 .byte   W96
@  #02 @103   ----------------------------------------
 .byte   W48
 .byte   N44
 .byte   W48
@  #02 @104   ----------------------------------------
 .byte   PATT
  .word Label_01005C46
@  #02 @105   ----------------------------------------
 .byte   W48
 .byte   N44 ,An3 ,v092
 .byte   W48
@  #02 @106   ----------------------------------------
 .byte   TIE
 .byte   W96
@  #02 @107   ----------------------------------------
 .byte   W92
 .byte   W03
 .byte   EOT
 .byte   W01
@  #02 @108   ----------------------------------------
 .byte   W96
@  #02 @109   ----------------------------------------
 .byte   W24
 .byte   N44 ,En4
 .byte   W72
@  #02 @110   ----------------------------------------
 .byte   W96
@  #02 @111   ----------------------------------------
 .byte   W48
 .byte   N44
 .byte   W48
@  #02 @112   ----------------------------------------
 .byte   PATT
  .word Label_01005C46
@  #02 @113   ----------------------------------------
 .byte   W48
 .byte   N44 ,An3 ,v092
 .byte   W48
@  #02 @114   ----------------------------------------
 .byte   TIE
 .byte   W96
@  #02 @115   ----------------------------------------
 .byte   W92
 .byte   W03
 .byte   EOT
 .byte   W01
@  #02 @116   ----------------------------------------
 .byte   W96
@  #02 @117   ----------------------------------------
 .byte   W96
@  #02 @118   ----------------------------------------
 .byte   W96
@  #02 @119   ----------------------------------------
 .byte   W96
@  #02 @120   ----------------------------------------
 .byte   W96
@  #02 @121   ----------------------------------------
 .byte   W96
@  #02 @122   ----------------------------------------
 .byte   W96
@  #02 @123   ----------------------------------------
 .byte   W96
@  #02 @124   ----------------------------------------
 .byte   W96
@  #02 @125   ----------------------------------------
 .byte   W96
@  #02 @126   ----------------------------------------
 .byte   W96
@  #02 @127   ----------------------------------------
 .byte   W96
@  #02 @128   ----------------------------------------
 .byte   W96
@  #02 @129   ----------------------------------------
 .byte   W96
@  #02 @130   ----------------------------------------
 .byte   W96
@  #02 @131   ----------------------------------------
 .byte   W96
@  #02 @132   ----------------------------------------
 .byte   W96
@  #02 @133   ----------------------------------------
 .byte   W96
@  #02 @134   ----------------------------------------
 .byte   W96
@  #02 @135   ----------------------------------------
 .byte   W96
@  #02 @136   ----------------------------------------
 .byte   W96
@  #02 @137   ----------------------------------------
 .byte   W96
@  #02 @138   ----------------------------------------
 .byte   W96
@  #02 @139   ----------------------------------------
 .byte   W96
@  #02 @140   ----------------------------------------
Label_01005D02:
 .byte   N68 ,An2 ,v092
 .byte   N68 ,Cn3
 .byte   W72
 .byte   TIE ,Bn2
 .byte   TIE ,En3
 .byte   W24
 .byte   PEND 
@  #02 @141   ----------------------------------------
 .byte   W92
 .byte   W03
 .byte   EOT
 .byte   Bn2 ,v064
 .byte   W01
@  #02 @142   ----------------------------------------
 .byte   N92 ,Bn2
 .byte   N92 ,Dn3
 .byte   W96
@  #02 @143   ----------------------------------------
Label_01005D19:
 .byte   N32 ,Dn3 ,v092
 .byte   N32 ,Gn3
 .byte   W36
 .byte   Cn3
 .byte   N32 ,En3
 .byte   W36
 .byte   N23 ,Bn2
 .byte   N23 ,Dn3
 .byte   W24
 .byte   PEND 
@  #02 @144   ----------------------------------------
 .byte   N92 ,An2
 .byte   N92 ,Cn3
 .byte   W96
@  #02 @145   ----------------------------------------
 .byte   Gn2
 .byte   N92 ,As2
 .byte   W96
@  #02 @146   ----------------------------------------
Label_01005D32:
 .byte   TIE ,Bn2 ,v092
 .byte   TIE ,En3
 .byte   W96
 .byte   PEND 
@  #02 @147   ----------------------------------------
 .byte   W92
 .byte   W03
 .byte   EOT
 .byte   Bn2 ,v064
 .byte   W01
@  #02 @148   ----------------------------------------
 .byte   TIE ,Bn2
 .byte   W96
@  #02 @149   ----------------------------------------
 .byte   W92
 .byte   W03
 .byte   EOT
 .byte   W01
@  #02 @150   ----------------------------------------
Label_01005D46:
 .byte   TIE ,Bn2 ,v092
 .byte   TIE ,Fs3
 .byte   W96
 .byte   PEND 
@  #02 @151   ----------------------------------------
 .byte   W92
 .byte   W03
 .byte   EOT
 .byte   Bn2 ,v066
 .byte   W01
@  #02 @152   ----------------------------------------
 .byte   N92 ,Cn3
 .byte   N92 ,Gn3
 .byte   W96
@  #02 @153   ----------------------------------------
 .byte   Ds3
 .byte   N92 ,As3
 .byte   W96
@  #02 @154   ----------------------------------------
 .byte   En3
 .byte   N92 ,Bn3
 .byte   W96
@  #02 @155   ----------------------------------------
 .byte   Fs3
 .byte   N92 ,Bn3
 .byte   W96
@  #02 @156   ----------------------------------------
 .byte   PATT
  .word Label_01005D02
@  #02 @157   ----------------------------------------
 .byte   W92
 .byte   W03
 .byte   EOT
 .byte   Bn2 ,v064
 .byte   W01
@  #02 @158   ----------------------------------------
 .byte   N92 ,Bn2 ,v092
 .byte   N92 ,Dn3
 .byte   W96
@  #02 @159   ----------------------------------------
 .byte   PATT
  .word Label_01005D19
@  #02 @160   ----------------------------------------
 .byte   N92 ,An2 ,v092
 .byte   N92 ,Cn3
 .byte   W96
@  #02 @161   ----------------------------------------
 .byte   Gn2
 .byte   N92 ,As2
 .byte   W96
@  #02 @162   ----------------------------------------
 .byte   PATT
  .word Label_01005D32
@  #02 @163   ----------------------------------------
 .byte   W92
 .byte   W03
 .byte   EOT
 .byte   Bn2 ,v064
 .byte   W01
@  #02 @164   ----------------------------------------
 .byte   N92 ,Cn3 ,v092
 .byte   N92 ,En3
 .byte   W96
@  #02 @165   ----------------------------------------
 .byte   Bn2
 .byte   N92 ,Dn3
 .byte   W96
@  #02 @166   ----------------------------------------
 .byte   An2
 .byte   N92 ,Cn3
 .byte   W96
@  #02 @167   ----------------------------------------
 .byte   Bn2
 .byte   N92 ,En3
 .byte   W96
@  #02 @168   ----------------------------------------
 .byte   Fs2
 .byte   N92 ,An2
 .byte   W96
@  #02 @169   ----------------------------------------
 .byte   N92
 .byte   N92 ,Ds3
 .byte   W96
@  #02 @170   ----------------------------------------
 .byte   Gn2
 .byte   N92 ,Bn2
 .byte   W96
@  #02 @171   ----------------------------------------
 .byte   En3
 .byte   N92 ,Gn3
 .byte   W96
@  #02 @172   ----------------------------------------
 .byte   W96
@  #02 @173   ----------------------------------------
 .byte   W96
@  #02 @174   ----------------------------------------
 .byte   W96
@  #02 @175   ----------------------------------------
 .byte   W96
@  #02 @176   ----------------------------------------
 .byte   W96
@  #02 @177   ----------------------------------------
 .byte   W96
@  #02 @178   ----------------------------------------
 .byte   W96
@  #02 @179   ----------------------------------------
 .byte   W96
@  #02 @180   ----------------------------------------
 .byte   W96
@  #02 @181   ----------------------------------------
 .byte   W96
@  #02 @182   ----------------------------------------
 .byte   W96
@  #02 @183   ----------------------------------------
 .byte   W96
@  #02 @184   ----------------------------------------
 .byte   W96
@  #02 @185   ----------------------------------------
 .byte   W96
@  #02 @186   ----------------------------------------
 .byte   W96
@  #02 @187   ----------------------------------------
 .byte   W96
@  #02 @188   ----------------------------------------
 .byte   W96
@  #02 @189   ----------------------------------------
 .byte   W96
@  #02 @190   ----------------------------------------
 .byte   W96
@  #02 @191   ----------------------------------------
 .byte   W96
@  #02 @192   ----------------------------------------
 .byte   W96
@  #02 @193   ----------------------------------------
 .byte   W96
@  #02 @194   ----------------------------------------
 .byte   PATT
  .word Label_01005BE4
@  #02 @195   ----------------------------------------
 .byte   PATT
  .word Label_01005BED
@  #02 @196   ----------------------------------------
 .byte   PATT
  .word Label_01005BF7
@  #02 @197   ----------------------------------------
 .byte   W48
 .byte   N44 ,Gn3 ,v092
 .byte   W48
@  #02 @198   ----------------------------------------
 .byte   N92 ,Bn3
 .byte   W96
@  #02 @199   ----------------------------------------
 .byte   PATT
  .word Label_01005C05
@  #02 @200   ----------------------------------------
 .byte   N92 ,Fn3 ,v092
 .byte   W96
@  #02 @201   ----------------------------------------
 .byte   Dn3
 .byte   W96
@  #02 @202   ----------------------------------------
 .byte   N68 ,En3
 .byte   W72
 .byte   Bn3
 .byte   W24
@  #02 @203   ----------------------------------------
 .byte   W48
 .byte   N44 ,En3
 .byte   W48
@  #02 @204   ----------------------------------------
 .byte   PATT
  .word Label_01005C1D
@  #02 @205   ----------------------------------------
 .byte   W48
 .byte   N44 ,Fn3 ,v092
 .byte   W48
@  #02 @206   ----------------------------------------
 .byte   PATT
  .word Label_01005C28
@  #02 @207   ----------------------------------------
 .byte   W48
 .byte   N44 ,Fs3 ,v092
 .byte   W48
@  #02 @208   ----------------------------------------
 .byte   PATT
  .word Label_01005C33
@  #02 @209   ----------------------------------------
 .byte   W48
 .byte   N44 ,Gn3 ,v092
 .byte   W48
@  #02 @210   ----------------------------------------
 .byte   W96
@  #02 @211   ----------------------------------------
 .byte   W24
 .byte   En4
 .byte   W72
@  #02 @212   ----------------------------------------
 .byte   W96
@  #02 @213   ----------------------------------------
 .byte   W48
 .byte   N44
 .byte   W48
@  #02 @214   ----------------------------------------
 .byte   PATT
  .word Label_01005C46
@  #02 @215   ----------------------------------------
 .byte   W48
 .byte   N44 ,An3 ,v092
 .byte   W48
@  #02 @216   ----------------------------------------
 .byte   TIE
 .byte   W96
@  #02 @217   ----------------------------------------
 .byte   W92
 .byte   W03
 .byte   EOT
 .byte   W01
@  #02 @218   ----------------------------------------
 .byte   W96
@  #02 @219   ----------------------------------------
 .byte   W24
 .byte   N44 ,En4
 .byte   W72
@  #02 @220   ----------------------------------------
 .byte   W96
@  #02 @221   ----------------------------------------
 .byte   W48
 .byte   N44
 .byte   W48
@  #02 @222   ----------------------------------------
 .byte   PATT
  .word Label_01005C46
@  #02 @223   ----------------------------------------
 .byte   W48
 .byte   N44 ,An3 ,v092
 .byte   W48
@  #02 @224   ----------------------------------------
 .byte   TIE
 .byte   W96
@  #02 @225   ----------------------------------------
 .byte   W92
 .byte   W03
 .byte   EOT
 .byte   W01
@  #02 @226   ----------------------------------------
 .byte   PATT
  .word Label_01005BE4
@  #02 @227   ----------------------------------------
 .byte   PATT
  .word Label_01005BED
@  #02 @228   ----------------------------------------
 .byte   PATT
  .word Label_01005BF7
@  #02 @229   ----------------------------------------
 .byte   W48
 .byte   N44 ,Gn3 ,v092
 .byte   W48
@  #02 @230   ----------------------------------------
 .byte   N92 ,Bn3
 .byte   W96
@  #02 @231   ----------------------------------------
 .byte   PATT
  .word Label_01005C05
@  #02 @232   ----------------------------------------
 .byte   N92 ,Fn3 ,v092
 .byte   W96
@  #02 @233   ----------------------------------------
 .byte   Dn3
 .byte   W96
@  #02 @234   ----------------------------------------
 .byte   N68 ,En3
 .byte   W72
 .byte   Bn3
 .byte   W24
@  #02 @235   ----------------------------------------
 .byte   W48
 .byte   N44 ,En3
 .byte   W48
@  #02 @236   ----------------------------------------
 .byte   PATT
  .word Label_01005C1D
@  #02 @237   ----------------------------------------
 .byte   W48
 .byte   N44 ,Fn3 ,v092
 .byte   W48
@  #02 @238   ----------------------------------------
 .byte   PATT
  .word Label_01005C28
@  #02 @239   ----------------------------------------
 .byte   W48
 .byte   N44 ,Fs3 ,v092
 .byte   W48
@  #02 @240   ----------------------------------------
 .byte   PATT
  .word Label_01005C33
@  #02 @241   ----------------------------------------
 .byte   W48
 .byte   N44 ,Gn3 ,v092
 .byte   W48
@  #02 @242   ----------------------------------------
 .byte   W96
@  #02 @243   ----------------------------------------
 .byte   W24
 .byte   En4
 .byte   W72
@  #02 @244   ----------------------------------------
 .byte   W96
@  #02 @245   ----------------------------------------
 .byte   W48
 .byte   N44
 .byte   W48
@  #02 @246   ----------------------------------------
 .byte   PATT
  .word Label_01005C46
@  #02 @247   ----------------------------------------
 .byte   W48
 .byte   N44 ,An3 ,v092
 .byte   W48
@  #02 @248   ----------------------------------------
 .byte   TIE
 .byte   W96
@  #02 @249   ----------------------------------------
 .byte   W92
 .byte   W03
 .byte   EOT
 .byte   W01
@  #02 @250   ----------------------------------------
 .byte   W96
@  #02 @251   ----------------------------------------
 .byte   W24
 .byte   N44 ,En4
 .byte   W72
@  #02 @252   ----------------------------------------
 .byte   W96
@  #02 @253   ----------------------------------------
 .byte   W48
 .byte   N44
 .byte   W48
@  #02 @254   ----------------------------------------
 .byte   PATT
  .word Label_01005C46
@  #02 @255   ----------------------------------------
 .byte   W48
 .byte   N44 ,An3 ,v092
 .byte   W48
@  #02 @256   ----------------------------------------
 .byte   TIE
 .byte   W96
@  #02 @257   ----------------------------------------
 .byte   W92
 .byte   W03
 .byte   EOT
 .byte   W01
@  #02 @258   ----------------------------------------
 .byte   W96
@  #02 @259   ----------------------------------------
 .byte   W96
@  #02 @260   ----------------------------------------
 .byte   W96
@  #02 @261   ----------------------------------------
 .byte   W96
@  #02 @262   ----------------------------------------
 .byte   W96
@  #02 @263   ----------------------------------------
 .byte   W96
@  #02 @264   ----------------------------------------
 .byte   W96
@  #02 @265   ----------------------------------------
 .byte   W96
@  #02 @266   ----------------------------------------
 .byte   W96
@  #02 @267   ----------------------------------------
 .byte   W96
@  #02 @268   ----------------------------------------
 .byte   W96
@  #02 @269   ----------------------------------------
 .byte   W96
@  #02 @270   ----------------------------------------
 .byte   W96
@  #02 @271   ----------------------------------------
 .byte   W96
@  #02 @272   ----------------------------------------
 .byte   W96
@  #02 @273   ----------------------------------------
 .byte   W96
@  #02 @274   ----------------------------------------
 .byte   W96
@  #02 @275   ----------------------------------------
 .byte   W96
@  #02 @276   ----------------------------------------
 .byte   W96
@  #02 @277   ----------------------------------------
 .byte   W96
@  #02 @278   ----------------------------------------
 .byte   W96
@  #02 @279   ----------------------------------------
 .byte   W96
@  #02 @280   ----------------------------------------
 .byte   W96
@  #02 @281   ----------------------------------------
 .byte   W96
@  #02 @282   ----------------------------------------
 .byte   PATT
  .word Label_01005D02
@  #02 @283   ----------------------------------------
 .byte   W92
 .byte   W03
 .byte   EOT
 .byte   Bn2 ,v064
 .byte   W01
@  #02 @284   ----------------------------------------
 .byte   N92 ,Bn2 ,v092
 .byte   N92 ,Dn3
 .byte   W96
@  #02 @285   ----------------------------------------
 .byte   PATT
  .word Label_01005D19
@  #02 @286   ----------------------------------------
 .byte   N92 ,An2 ,v092
 .byte   N92 ,Cn3
 .byte   W96
@  #02 @287   ----------------------------------------
 .byte   Gn2
 .byte   N92 ,As2
 .byte   W96
@  #02 @288   ----------------------------------------
 .byte   PATT
  .word Label_01005D32
@  #02 @289   ----------------------------------------
 .byte   W92
 .byte   W03
 .byte   EOT
 .byte   Bn2 ,v064
 .byte   W01
@  #02 @290   ----------------------------------------
 .byte   TIE ,Bn2 ,v092
 .byte   W96
@  #02 @291   ----------------------------------------
 .byte   W92
 .byte   W03
 .byte   EOT
 .byte   W01
@  #02 @292   ----------------------------------------
 .byte   PATT
  .word Label_01005D46
@  #02 @293   ----------------------------------------
 .byte   W92
 .byte   W03
 .byte   EOT
 .byte   Bn2 ,v066
 .byte   W01
@  #02 @294   ----------------------------------------
 .byte   N92 ,Cn3 ,v092
 .byte   N92 ,Gn3
 .byte   W96
@  #02 @295   ----------------------------------------
 .byte   Ds3
 .byte   N92 ,As3
 .byte   W96
@  #02 @296   ----------------------------------------
 .byte   En3
 .byte   N92 ,Bn3
 .byte   W96
@  #02 @297   ----------------------------------------
 .byte   Fs3
 .byte   N92 ,Bn3
 .byte   W96
@  #02 @298   ----------------------------------------
 .byte   PATT
  .word Label_01005D02
@  #02 @299   ----------------------------------------
 .byte   W92
 .byte   W03
 .byte   EOT
 .byte   Bn2 ,v064
 .byte   W01
@  #02 @300   ----------------------------------------
 .byte   N92 ,Bn2 ,v092
 .byte   N92 ,Dn3
 .byte   W96
@  #02 @301   ----------------------------------------
 .byte   PATT
  .word Label_01005D19
@  #02 @302   ----------------------------------------
 .byte   N92 ,An2 ,v092
 .byte   N92 ,Cn3
 .byte   W96
@  #02 @303   ----------------------------------------
 .byte   Gn2
 .byte   N92 ,As2
 .byte   W96
@  #02 @304   ----------------------------------------
 .byte   PATT
  .word Label_01005D32
@  #02 @305   ----------------------------------------
 .byte   W92
 .byte   W03
 .byte   EOT
 .byte   Bn2 ,v064
 .byte   W01
@  #02 @306   ----------------------------------------
 .byte   N92 ,Cn3 ,v092
 .byte   N92 ,En3
 .byte   W96
@  #02 @307   ----------------------------------------
 .byte   Bn2
 .byte   N92 ,Dn3
 .byte   W96
@  #02 @308   ----------------------------------------
 .byte   An2
 .byte   N92 ,Cn3
 .byte   W96
@  #02 @309   ----------------------------------------
 .byte   Bn2
 .byte   N92 ,En3
 .byte   W96
@  #02 @310   ----------------------------------------
 .byte   Fs2
 .byte   N92 ,An2
 .byte   W96
@  #02 @311   ----------------------------------------
 .byte   N92
 .byte   N92 ,Ds3
 .byte   W96
@  #02 @312   ----------------------------------------
 .byte   Gn2
 .byte   N92 ,Bn2
 .byte   W96
@  #02 @313   ----------------------------------------
 .byte   En3
 .byte   N92 ,Gn3
 .byte   W96
@  #02 @314   ----------------------------------------
 .byte   PATT
  .word Label_01005D02
@  #02 @315   ----------------------------------------
 .byte   W92
 .byte   W03
 .byte   EOT
 .byte   Bn2 ,v064
 .byte   W01
@  #02 @316   ----------------------------------------
 .byte   N92 ,Bn2 ,v092
 .byte   N92 ,Dn3
 .byte   W96
@  #02 @317   ----------------------------------------
 .byte   PATT
  .word Label_01005D19
@  #02 @318   ----------------------------------------
 .byte   N92 ,An2 ,v092
 .byte   N92 ,Cn3
 .byte   W96
@  #02 @319   ----------------------------------------
 .byte   Gn2
 .byte   N92 ,As2
 .byte   W96
@  #02 @320   ----------------------------------------
 .byte   PATT
  .word Label_01005D32
@  #02 @321   ----------------------------------------
 .byte   W92
 .byte   W03
 .byte   EOT
 .byte   Bn2 ,v064
 .byte   W01
@  #02 @322   ----------------------------------------
 .byte   N92 ,Cn3 ,v092
 .byte   N92 ,En3
 .byte   W96
@  #02 @323   ----------------------------------------
 .byte   Bn2
 .byte   N92 ,Dn3
 .byte   W96
@  #02 @324   ----------------------------------------
 .byte   An2
 .byte   N92 ,Cn3
 .byte   W96
@  #02 @325   ----------------------------------------
 .byte   Bn2
 .byte   N92 ,En3
 .byte   W96
@  #02 @326   ----------------------------------------
 .byte   Fs2
 .byte   N92 ,An2
 .byte   W96
@  #02 @327   ----------------------------------------
 .byte   N92
 .byte   N92 ,Ds3
 .byte   W96
@  #02 @328   ----------------------------------------
 .byte   Gn2
 .byte   N92 ,Bn2
 .byte   W96
@  #02 @329   ----------------------------------------
 .byte   En3
 .byte   N92 ,Gn3
 .byte   W96
@  #02 @330   ----------------------------------------
 .byte   GOTO
  .word Label_01005BC6
@  #02 @331   ----------------------------------------
 .byte   W96
@  #02 @332   ----------------------------------------
 .byte   W96
@  #02 @333   ----------------------------------------
 .byte   W96
@  #02 @334   ----------------------------------------
 .byte   W96
@  #02 @335   ----------------------------------------
 .byte   W96
@  #02 @336   ----------------------------------------
 .byte   W96
@  #02 @337   ----------------------------------------
 .byte   W96
@  #02 @338   ----------------------------------------
 .byte   W96
@  #02 @339   ----------------------------------------
 .byte   W96
@  #02 @340   ----------------------------------------
 .byte   W96
@  #02 @341   ----------------------------------------
 .byte   W96
@  #02 @342   ----------------------------------------
 .byte   W96
@  #02 @343   ----------------------------------------
 .byte   W96
@  #02 @344   ----------------------------------------
 .byte   W96
@  #02 @345   ----------------------------------------
 .byte   W96
@  #02 @346   ----------------------------------------
 .byte   W96
@  #02 @347   ----------------------------------------
 .byte   W96
@  #02 @348   ----------------------------------------
 .byte   W96
 .byte   FINE

@**************** Track 3 (Midi-Chn.2) ****************@

song04_003:
@  #03 @000   ----------------------------------------
 .byte   KEYSH , song04_key+0
 .byte   VOICE , 10
 .byte   PAN , c_v-14
 .byte   VOL , 20*song04_mvl/mxv
 .byte   N11 ,En5 ,v092
 .byte   W12
 .byte   Bn5
 .byte   W12
 .byte   En6
 .byte   W12
 .byte   As5
 .byte   W12
 .byte   An5
 .byte   W12
 .byte   Gn5
 .byte   W12
 .byte   En5
 .byte   W12
 .byte   An5
 .byte   W12
@  #03 @001   ----------------------------------------
Label_010051F6:
 .byte   N11 ,En6 ,v092
 .byte   W24
 .byte   Gn6
 .byte   W24
 .byte   Dn6
 .byte   W24
 .byte   Cs6
 .byte   W24
 .byte   PEND 
@  #03 @002   ----------------------------------------
Label_01005201:
 .byte   N07 ,Ds6 ,v092
 .byte   W12
 .byte   N05 ,Bn5
 .byte   W06
 .byte   Ds6
 .byte   W06
 .byte   N11 ,Fs6
 .byte   W12
 .byte   Ds6
 .byte   W12
 .byte   Dn6
 .byte   W12
 .byte   Bn5
 .byte   W12
 .byte   An5
 .byte   W12
 .byte   Fs5
 .byte   W12
 .byte   PEND 
@  #03 @003   ----------------------------------------
Label_01005218:
 .byte   N11 ,Bn5 ,v092
 .byte   W24
 .byte   En5
 .byte   W24
 .byte   Gn5
 .byte   W24
 .byte   Fs5
 .byte   W24
 .byte   PEND 
@  #03 @004   ----------------------------------------
Label_01005223:
 .byte   N11 ,En5 ,v092
 .byte   W12
 .byte   Bn5
 .byte   W12
 .byte   En6
 .byte   W12
 .byte   As5
 .byte   W12
 .byte   An5
 .byte   W12
 .byte   Gn5
 .byte   W12
 .byte   En5
 .byte   W12
 .byte   An5
 .byte   W12
 .byte   PEND 
@  #03 @005   ----------------------------------------
 .byte   PATT
  .word Label_010051F6
@  #03 @006   ----------------------------------------
 .byte   PATT
  .word Label_01005201
@  #03 @007   ----------------------------------------
 .byte   PATT
  .word Label_01005218
@  #03 @008   ----------------------------------------
 .byte   PATT
  .word Label_01005223
@  #03 @009   ----------------------------------------
 .byte   PATT
  .word Label_010051F6
@  #03 @010   ----------------------------------------
 .byte   W96
@  #03 @011   ----------------------------------------
 .byte   W96
@  #03 @012   ----------------------------------------
 .byte   W96
@  #03 @013   ----------------------------------------
 .byte   W96
@  #03 @014   ----------------------------------------
 .byte   W96
@  #03 @015   ----------------------------------------
 .byte   W96
@  #03 @016   ----------------------------------------
 .byte   W96
@  #03 @017   ----------------------------------------
 .byte   W96
@  #03 @018   ----------------------------------------
 .byte   W96
@  #03 @019   ----------------------------------------
 .byte   W96
@  #03 @020   ----------------------------------------
 .byte   W96
@  #03 @021   ----------------------------------------
 .byte   W96
@  #03 @022   ----------------------------------------
Label_0100525B:
 .byte   W96
@  #03 @023   ----------------------------------------
 .byte   W96
@  #03 @024   ----------------------------------------
 .byte   W96
@  #03 @025   ----------------------------------------
 .byte   W96
@  #03 @026   ----------------------------------------
 .byte   W96
@  #03 @027   ----------------------------------------
 .byte   W96
@  #03 @028   ----------------------------------------
 .byte   W96
@  #03 @029   ----------------------------------------
 .byte   W96
@  #03 @030   ----------------------------------------
 .byte   W96
@  #03 @031   ----------------------------------------
 .byte   W96
@  #03 @032   ----------------------------------------
 .byte   W96
@  #03 @033   ----------------------------------------
 .byte   W96
@  #03 @034   ----------------------------------------
 .byte   W96
@  #03 @035   ----------------------------------------
 .byte   W96
@  #03 @036   ----------------------------------------
 .byte   W96
@  #03 @037   ----------------------------------------
 .byte   W96
@  #03 @038   ----------------------------------------
 .byte   W96
@  #03 @039   ----------------------------------------
 .byte   W96
@  #03 @040   ----------------------------------------
 .byte   W96
@  #03 @041   ----------------------------------------
 .byte   W96
@  #03 @042   ----------------------------------------
 .byte   W96
@  #03 @043   ----------------------------------------
 .byte   W96
@  #03 @044   ----------------------------------------
 .byte   W96
@  #03 @045   ----------------------------------------
 .byte   W96
@  #03 @046   ----------------------------------------
 .byte   W96
@  #03 @047   ----------------------------------------
 .byte   W96
@  #03 @048   ----------------------------------------
 .byte   W96
@  #03 @049   ----------------------------------------
 .byte   W96
@  #03 @050   ----------------------------------------
 .byte   W96
@  #03 @051   ----------------------------------------
 .byte   W96
@  #03 @052   ----------------------------------------
 .byte   W96
@  #03 @053   ----------------------------------------
 .byte   W96
@  #03 @054   ----------------------------------------
 .byte   W96
@  #03 @055   ----------------------------------------
 .byte   W96
@  #03 @056   ----------------------------------------
 .byte   W96
@  #03 @057   ----------------------------------------
 .byte   W96
@  #03 @058   ----------------------------------------
 .byte   W96
@  #03 @059   ----------------------------------------
 .byte   W96
@  #03 @060   ----------------------------------------
 .byte   W96
@  #03 @061   ----------------------------------------
 .byte   W96
@  #03 @062   ----------------------------------------
 .byte   W96
@  #03 @063   ----------------------------------------
 .byte   W96
@  #03 @064   ----------------------------------------
 .byte   W96
@  #03 @065   ----------------------------------------
 .byte   W96
@  #03 @066   ----------------------------------------
 .byte   W96
@  #03 @067   ----------------------------------------
 .byte   W96
@  #03 @068   ----------------------------------------
 .byte   W96
@  #03 @069   ----------------------------------------
 .byte   W96
@  #03 @070   ----------------------------------------
 .byte   W96
@  #03 @071   ----------------------------------------
 .byte   W96
@  #03 @072   ----------------------------------------
 .byte   W96
@  #03 @073   ----------------------------------------
 .byte   W96
@  #03 @074   ----------------------------------------
 .byte   W96
@  #03 @075   ----------------------------------------
 .byte   W96
@  #03 @076   ----------------------------------------
 .byte   W96
@  #03 @077   ----------------------------------------
 .byte   W96
@  #03 @078   ----------------------------------------
 .byte   W96
@  #03 @079   ----------------------------------------
 .byte   W96
@  #03 @080   ----------------------------------------
 .byte   W96
@  #03 @081   ----------------------------------------
 .byte   W96
@  #03 @082   ----------------------------------------
 .byte   W96
@  #03 @083   ----------------------------------------
 .byte   W96
@  #03 @084   ----------------------------------------
 .byte   W96
@  #03 @085   ----------------------------------------
 .byte   W96
@  #03 @086   ----------------------------------------
 .byte   W96
@  #03 @087   ----------------------------------------
 .byte   W96
@  #03 @088   ----------------------------------------
 .byte   W96
@  #03 @089   ----------------------------------------
 .byte   W96
@  #03 @090   ----------------------------------------
 .byte   W96
@  #03 @091   ----------------------------------------
 .byte   W96
@  #03 @092   ----------------------------------------
 .byte   W96
@  #03 @093   ----------------------------------------
 .byte   W96
@  #03 @094   ----------------------------------------
 .byte   W96
@  #03 @095   ----------------------------------------
 .byte   W96
@  #03 @096   ----------------------------------------
 .byte   W96
@  #03 @097   ----------------------------------------
 .byte   W96
@  #03 @098   ----------------------------------------
 .byte   W96
@  #03 @099   ----------------------------------------
 .byte   W96
@  #03 @100   ----------------------------------------
 .byte   W96
@  #03 @101   ----------------------------------------
 .byte   W96
@  #03 @102   ----------------------------------------
 .byte   W96
@  #03 @103   ----------------------------------------
 .byte   W96
@  #03 @104   ----------------------------------------
 .byte   W96
@  #03 @105   ----------------------------------------
 .byte   W96
@  #03 @106   ----------------------------------------
 .byte   W96
@  #03 @107   ----------------------------------------
 .byte   W96
@  #03 @108   ----------------------------------------
 .byte   W96
@  #03 @109   ----------------------------------------
 .byte   W96
@  #03 @110   ----------------------------------------
 .byte   W96
@  #03 @111   ----------------------------------------
 .byte   W96
@  #03 @112   ----------------------------------------
 .byte   W96
@  #03 @113   ----------------------------------------
 .byte   W96
@  #03 @114   ----------------------------------------
 .byte   W96
@  #03 @115   ----------------------------------------
 .byte   W96
@  #03 @116   ----------------------------------------
 .byte   W96
@  #03 @117   ----------------------------------------
 .byte   W96
@  #03 @118   ----------------------------------------
 .byte   W96
@  #03 @119   ----------------------------------------
 .byte   W96
@  #03 @120   ----------------------------------------
 .byte   W96
@  #03 @121   ----------------------------------------
 .byte   W96
@  #03 @122   ----------------------------------------
 .byte   W96
@  #03 @123   ----------------------------------------
 .byte   W96
@  #03 @124   ----------------------------------------
 .byte   W96
@  #03 @125   ----------------------------------------
 .byte   W96
@  #03 @126   ----------------------------------------
 .byte   W96
@  #03 @127   ----------------------------------------
 .byte   W96
@  #03 @128   ----------------------------------------
 .byte   W96
@  #03 @129   ----------------------------------------
 .byte   W96
@  #03 @130   ----------------------------------------
 .byte   W96
@  #03 @131   ----------------------------------------
 .byte   W96
@  #03 @132   ----------------------------------------
 .byte   W96
@  #03 @133   ----------------------------------------
 .byte   W96
@  #03 @134   ----------------------------------------
 .byte   W96
@  #03 @135   ----------------------------------------
 .byte   W96
@  #03 @136   ----------------------------------------
 .byte   W96
@  #03 @137   ----------------------------------------
 .byte   W96
@  #03 @138   ----------------------------------------
 .byte   W96
@  #03 @139   ----------------------------------------
 .byte   W96
@  #03 @140   ----------------------------------------
 .byte   W96
@  #03 @141   ----------------------------------------
 .byte   W96
@  #03 @142   ----------------------------------------
 .byte   W96
@  #03 @143   ----------------------------------------
 .byte   W96
@  #03 @144   ----------------------------------------
 .byte   W96
@  #03 @145   ----------------------------------------
 .byte   W96
@  #03 @146   ----------------------------------------
 .byte   W96
@  #03 @147   ----------------------------------------
 .byte   W96
@  #03 @148   ----------------------------------------
 .byte   W96
@  #03 @149   ----------------------------------------
 .byte   W96
@  #03 @150   ----------------------------------------
 .byte   W96
@  #03 @151   ----------------------------------------
 .byte   W96
@  #03 @152   ----------------------------------------
 .byte   W96
@  #03 @153   ----------------------------------------
 .byte   W96
@  #03 @154   ----------------------------------------
 .byte   W96
@  #03 @155   ----------------------------------------
 .byte   W96
@  #03 @156   ----------------------------------------
 .byte   W96
@  #03 @157   ----------------------------------------
 .byte   W96
@  #03 @158   ----------------------------------------
 .byte   W96
@  #03 @159   ----------------------------------------
 .byte   W96
@  #03 @160   ----------------------------------------
 .byte   W96
@  #03 @161   ----------------------------------------
 .byte   W96
@  #03 @162   ----------------------------------------
 .byte   W96
@  #03 @163   ----------------------------------------
 .byte   W96
@  #03 @164   ----------------------------------------
 .byte   W96
@  #03 @165   ----------------------------------------
 .byte   W96
@  #03 @166   ----------------------------------------
 .byte   W96
@  #03 @167   ----------------------------------------
 .byte   W96
@  #03 @168   ----------------------------------------
 .byte   W96
@  #03 @169   ----------------------------------------
 .byte   W96
@  #03 @170   ----------------------------------------
 .byte   W96
@  #03 @171   ----------------------------------------
 .byte   W96
@  #03 @172   ----------------------------------------
 .byte   W96
@  #03 @173   ----------------------------------------
 .byte   W96
@  #03 @174   ----------------------------------------
 .byte   W96
@  #03 @175   ----------------------------------------
 .byte   W96
@  #03 @176   ----------------------------------------
 .byte   W96
@  #03 @177   ----------------------------------------
 .byte   W96
@  #03 @178   ----------------------------------------
 .byte   W96
@  #03 @179   ----------------------------------------
 .byte   W96
@  #03 @180   ----------------------------------------
 .byte   W96
@  #03 @181   ----------------------------------------
 .byte   W96
@  #03 @182   ----------------------------------------
 .byte   W96
@  #03 @183   ----------------------------------------
 .byte   W96
@  #03 @184   ----------------------------------------
 .byte   W96
@  #03 @185   ----------------------------------------
 .byte   W96
@  #03 @186   ----------------------------------------
 .byte   W96
@  #03 @187   ----------------------------------------
 .byte   W96
@  #03 @188   ----------------------------------------
 .byte   W96
@  #03 @189   ----------------------------------------
 .byte   W96
@  #03 @190   ----------------------------------------
 .byte   W96
@  #03 @191   ----------------------------------------
 .byte   W96
@  #03 @192   ----------------------------------------
 .byte   W96
@  #03 @193   ----------------------------------------
 .byte   W96
@  #03 @194   ----------------------------------------
 .byte   W96
@  #03 @195   ----------------------------------------
 .byte   W96
@  #03 @196   ----------------------------------------
 .byte   W96
@  #03 @197   ----------------------------------------
 .byte   W96
@  #03 @198   ----------------------------------------
 .byte   W96
@  #03 @199   ----------------------------------------
 .byte   W96
@  #03 @200   ----------------------------------------
 .byte   W96
@  #03 @201   ----------------------------------------
 .byte   W96
@  #03 @202   ----------------------------------------
 .byte   W96
@  #03 @203   ----------------------------------------
 .byte   W96
@  #03 @204   ----------------------------------------
 .byte   W96
@  #03 @205   ----------------------------------------
 .byte   W96
@  #03 @206   ----------------------------------------
 .byte   W96
@  #03 @207   ----------------------------------------
 .byte   W96
@  #03 @208   ----------------------------------------
 .byte   W96
@  #03 @209   ----------------------------------------
 .byte   W96
@  #03 @210   ----------------------------------------
 .byte   W96
@  #03 @211   ----------------------------------------
 .byte   W96
@  #03 @212   ----------------------------------------
 .byte   W96
@  #03 @213   ----------------------------------------
 .byte   W96
@  #03 @214   ----------------------------------------
 .byte   W96
@  #03 @215   ----------------------------------------
 .byte   W96
@  #03 @216   ----------------------------------------
 .byte   W96
@  #03 @217   ----------------------------------------
 .byte   W96
@  #03 @218   ----------------------------------------
 .byte   W96
@  #03 @219   ----------------------------------------
 .byte   W96
@  #03 @220   ----------------------------------------
 .byte   W96
@  #03 @221   ----------------------------------------
 .byte   W96
@  #03 @222   ----------------------------------------
 .byte   W96
@  #03 @223   ----------------------------------------
 .byte   W96
@  #03 @224   ----------------------------------------
 .byte   W96
@  #03 @225   ----------------------------------------
 .byte   W96
@  #03 @226   ----------------------------------------
 .byte   W96
@  #03 @227   ----------------------------------------
 .byte   W96
@  #03 @228   ----------------------------------------
 .byte   W96
@  #03 @229   ----------------------------------------
 .byte   W96
@  #03 @230   ----------------------------------------
 .byte   W96
@  #03 @231   ----------------------------------------
 .byte   W96
@  #03 @232   ----------------------------------------
 .byte   W96
@  #03 @233   ----------------------------------------
 .byte   W96
@  #03 @234   ----------------------------------------
 .byte   W96
@  #03 @235   ----------------------------------------
 .byte   W96
@  #03 @236   ----------------------------------------
 .byte   W96
@  #03 @237   ----------------------------------------
 .byte   W96
@  #03 @238   ----------------------------------------
 .byte   W96
@  #03 @239   ----------------------------------------
 .byte   W96
@  #03 @240   ----------------------------------------
 .byte   W96
@  #03 @241   ----------------------------------------
 .byte   W96
@  #03 @242   ----------------------------------------
 .byte   W96
@  #03 @243   ----------------------------------------
 .byte   W96
@  #03 @244   ----------------------------------------
 .byte   W96
@  #03 @245   ----------------------------------------
 .byte   W96
@  #03 @246   ----------------------------------------
 .byte   W96
@  #03 @247   ----------------------------------------
 .byte   W96
@  #03 @248   ----------------------------------------
 .byte   W96
@  #03 @249   ----------------------------------------
 .byte   W96
@  #03 @250   ----------------------------------------
 .byte   W96
@  #03 @251   ----------------------------------------
 .byte   W96
@  #03 @252   ----------------------------------------
 .byte   W96
@  #03 @253   ----------------------------------------
 .byte   W96
@  #03 @254   ----------------------------------------
 .byte   W96
@  #03 @255   ----------------------------------------
 .byte   W96
@  #03 @256   ----------------------------------------
 .byte   W96
@  #03 @257   ----------------------------------------
 .byte   W96
@  #03 @258   ----------------------------------------
 .byte   W96
@  #03 @259   ----------------------------------------
 .byte   W96
@  #03 @260   ----------------------------------------
 .byte   W96
@  #03 @261   ----------------------------------------
 .byte   W96
@  #03 @262   ----------------------------------------
 .byte   W96
@  #03 @263   ----------------------------------------
 .byte   W96
@  #03 @264   ----------------------------------------
 .byte   W96
@  #03 @265   ----------------------------------------
 .byte   W96
@  #03 @266   ----------------------------------------
 .byte   W96
@  #03 @267   ----------------------------------------
 .byte   W96
@  #03 @268   ----------------------------------------
 .byte   W96
@  #03 @269   ----------------------------------------
 .byte   W96
@  #03 @270   ----------------------------------------
 .byte   W96
@  #03 @271   ----------------------------------------
 .byte   W96
@  #03 @272   ----------------------------------------
 .byte   W96
@  #03 @273   ----------------------------------------
 .byte   W96
@  #03 @274   ----------------------------------------
 .byte   W96
@  #03 @275   ----------------------------------------
 .byte   W96
@  #03 @276   ----------------------------------------
 .byte   W96
@  #03 @277   ----------------------------------------
 .byte   W96
@  #03 @278   ----------------------------------------
 .byte   W96
@  #03 @279   ----------------------------------------
 .byte   W96
@  #03 @280   ----------------------------------------
 .byte   W96
@  #03 @281   ----------------------------------------
 .byte   W96
@  #03 @282   ----------------------------------------
 .byte   W96
@  #03 @283   ----------------------------------------
 .byte   W96
@  #03 @284   ----------------------------------------
 .byte   W96
@  #03 @285   ----------------------------------------
 .byte   W96
@  #03 @286   ----------------------------------------
 .byte   W96
@  #03 @287   ----------------------------------------
 .byte   W96
@  #03 @288   ----------------------------------------
 .byte   W96
@  #03 @289   ----------------------------------------
 .byte   W96
@  #03 @290   ----------------------------------------
 .byte   W96
@  #03 @291   ----------------------------------------
 .byte   W96
@  #03 @292   ----------------------------------------
 .byte   W96
@  #03 @293   ----------------------------------------
 .byte   W96
@  #03 @294   ----------------------------------------
 .byte   W96
@  #03 @295   ----------------------------------------
 .byte   W96
@  #03 @296   ----------------------------------------
 .byte   W96
@  #03 @297   ----------------------------------------
 .byte   W96
@  #03 @298   ----------------------------------------
 .byte   W96
@  #03 @299   ----------------------------------------
 .byte   W96
@  #03 @300   ----------------------------------------
 .byte   W96
@  #03 @301   ----------------------------------------
 .byte   W96
@  #03 @302   ----------------------------------------
 .byte   W96
@  #03 @303   ----------------------------------------
 .byte   W96
@  #03 @304   ----------------------------------------
 .byte   W96
@  #03 @305   ----------------------------------------
 .byte   W96
@  #03 @306   ----------------------------------------
 .byte   W96
@  #03 @307   ----------------------------------------
 .byte   W96
@  #03 @308   ----------------------------------------
 .byte   W96
@  #03 @309   ----------------------------------------
 .byte   W96
@  #03 @310   ----------------------------------------
 .byte   W96
@  #03 @311   ----------------------------------------
 .byte   W96
@  #03 @312   ----------------------------------------
 .byte   W96
@  #03 @313   ----------------------------------------
 .byte   W96
@  #03 @314   ----------------------------------------
 .byte   W96
@  #03 @315   ----------------------------------------
 .byte   W96
@  #03 @316   ----------------------------------------
 .byte   W96
@  #03 @317   ----------------------------------------
 .byte   W96
@  #03 @318   ----------------------------------------
 .byte   W96
@  #03 @319   ----------------------------------------
 .byte   W96
@  #03 @320   ----------------------------------------
 .byte   W96
@  #03 @321   ----------------------------------------
 .byte   W96
@  #03 @322   ----------------------------------------
 .byte   W96
@  #03 @323   ----------------------------------------
 .byte   W96
@  #03 @324   ----------------------------------------
 .byte   W96
@  #03 @325   ----------------------------------------
 .byte   W96
@  #03 @326   ----------------------------------------
 .byte   W96
@  #03 @327   ----------------------------------------
 .byte   W96
@  #03 @328   ----------------------------------------
 .byte   W96
@  #03 @329   ----------------------------------------
 .byte   W96
@  #03 @330   ----------------------------------------
 .byte   GOTO
  .word Label_0100525B
@  #03 @331   ----------------------------------------
 .byte   W96
@  #03 @332   ----------------------------------------
 .byte   W96
@  #03 @333   ----------------------------------------
 .byte   W96
@  #03 @334   ----------------------------------------
 .byte   W96
@  #03 @335   ----------------------------------------
 .byte   W96
@  #03 @336   ----------------------------------------
 .byte   W96
@  #03 @337   ----------------------------------------
 .byte   W96
@  #03 @338   ----------------------------------------
 .byte   W96
@  #03 @339   ----------------------------------------
 .byte   W96
@  #03 @340   ----------------------------------------
 .byte   W96
@  #03 @341   ----------------------------------------
 .byte   W96
@  #03 @342   ----------------------------------------
 .byte   W96
@  #03 @343   ----------------------------------------
 .byte   W96
@  #03 @344   ----------------------------------------
 .byte   W96
@  #03 @345   ----------------------------------------
 .byte   W96
@  #03 @346   ----------------------------------------
 .byte   W96
@  #03 @347   ----------------------------------------
 .byte   W96
@  #03 @348   ----------------------------------------
 .byte   W96
 .byte   FINE

@**************** Track 4 (Midi-Chn.3) ****************@

song04_004:
@  #04 @000   ----------------------------------------
 .byte   KEYSH , song04_key+0
 .byte   VOICE , 47
 .byte   PAN , c_v+0
 .byte   VOL , 40*song04_mvl/mxv
 .byte   N23 ,En1 ,v092
 .byte   W24
 .byte   N68 ,Bn1
 .byte   W72
@  #04 @001   ----------------------------------------
Label_01005FF7:
 .byte   N23 ,En1 ,v092
 .byte   W24
 .byte   Bn1
 .byte   W24
 .byte   N11 ,En2
 .byte   W12
 .byte   N11
 .byte   W12
 .byte   N23 ,Bn1
 .byte   W24
 .byte   PEND 
@  #04 @002   ----------------------------------------
Label_01006006:
 .byte   N23 ,En1 ,v092
 .byte   W24
 .byte   N68 ,Bn1
 .byte   W72
 .byte   PEND 
@  #04 @003   ----------------------------------------
 .byte   PATT
  .word Label_01005FF7
@  #04 @004   ----------------------------------------
 .byte   PATT
  .word Label_01006006
@  #04 @005   ----------------------------------------
 .byte   PATT
  .word Label_01005FF7
@  #04 @006   ----------------------------------------
 .byte   PATT
  .word Label_01006006
@  #04 @007   ----------------------------------------
 .byte   PATT
  .word Label_01005FF7
@  #04 @008   ----------------------------------------
 .byte   W96
@  #04 @009   ----------------------------------------
 .byte   W96
@  #04 @010   ----------------------------------------
 .byte   W96
@  #04 @011   ----------------------------------------
 .byte   W96
@  #04 @012   ----------------------------------------
 .byte   W96
@  #04 @013   ----------------------------------------
 .byte   W96
@  #04 @014   ----------------------------------------
 .byte   W96
@  #04 @015   ----------------------------------------
 .byte   W96
@  #04 @016   ----------------------------------------
 .byte   W96
@  #04 @017   ----------------------------------------
 .byte   W96
@  #04 @018   ----------------------------------------
 .byte   W96
@  #04 @019   ----------------------------------------
 .byte   W96
@  #04 @020   ----------------------------------------
 .byte   W96
@  #04 @021   ----------------------------------------
 .byte   W96
@  #04 @022   ----------------------------------------
Label_01006035:
 .byte   W96
@  #04 @023   ----------------------------------------
 .byte   W96
@  #04 @024   ----------------------------------------
 .byte   W96
@  #04 @025   ----------------------------------------
 .byte   W96
@  #04 @026   ----------------------------------------
 .byte   W96
@  #04 @027   ----------------------------------------
 .byte   W96
@  #04 @028   ----------------------------------------
 .byte   W96
@  #04 @029   ----------------------------------------
 .byte   W96
@  #04 @030   ----------------------------------------
 .byte   W96
@  #04 @031   ----------------------------------------
 .byte   W96
@  #04 @032   ----------------------------------------
 .byte   W96
@  #04 @033   ----------------------------------------
 .byte   W96
@  #04 @034   ----------------------------------------
 .byte   W96
@  #04 @035   ----------------------------------------
 .byte   W96
@  #04 @036   ----------------------------------------
 .byte   W96
@  #04 @037   ----------------------------------------
 .byte   W96
@  #04 @038   ----------------------------------------
 .byte   W96
@  #04 @039   ----------------------------------------
 .byte   W96
@  #04 @040   ----------------------------------------
 .byte   W96
@  #04 @041   ----------------------------------------
 .byte   W96
@  #04 @042   ----------------------------------------
 .byte   W96
@  #04 @043   ----------------------------------------
 .byte   W96
@  #04 @044   ----------------------------------------
 .byte   W96
@  #04 @045   ----------------------------------------
 .byte   W96
@  #04 @046   ----------------------------------------
 .byte   W96
@  #04 @047   ----------------------------------------
 .byte   W96
@  #04 @048   ----------------------------------------
 .byte   W96
@  #04 @049   ----------------------------------------
 .byte   W96
@  #04 @050   ----------------------------------------
 .byte   W96
@  #04 @051   ----------------------------------------
 .byte   W96
@  #04 @052   ----------------------------------------
 .byte   W96
@  #04 @053   ----------------------------------------
 .byte   W96
@  #04 @054   ----------------------------------------
 .byte   W96
@  #04 @055   ----------------------------------------
 .byte   W96
@  #04 @056   ----------------------------------------
 .byte   W96
@  #04 @057   ----------------------------------------
 .byte   W96
@  #04 @058   ----------------------------------------
 .byte   W96
@  #04 @059   ----------------------------------------
 .byte   W96
@  #04 @060   ----------------------------------------
 .byte   W96
@  #04 @061   ----------------------------------------
 .byte   W96
@  #04 @062   ----------------------------------------
 .byte   W96
@  #04 @063   ----------------------------------------
 .byte   W96
@  #04 @064   ----------------------------------------
 .byte   W96
@  #04 @065   ----------------------------------------
 .byte   W96
@  #04 @066   ----------------------------------------
 .byte   W96
@  #04 @067   ----------------------------------------
 .byte   W96
@  #04 @068   ----------------------------------------
 .byte   W96
@  #04 @069   ----------------------------------------
 .byte   W96
@  #04 @070   ----------------------------------------
 .byte   W96
@  #04 @071   ----------------------------------------
 .byte   W96
@  #04 @072   ----------------------------------------
 .byte   W96
@  #04 @073   ----------------------------------------
 .byte   W96
@  #04 @074   ----------------------------------------
 .byte   W96
@  #04 @075   ----------------------------------------
 .byte   W96
@  #04 @076   ----------------------------------------
 .byte   W96
@  #04 @077   ----------------------------------------
 .byte   W96
@  #04 @078   ----------------------------------------
 .byte   W96
@  #04 @079   ----------------------------------------
 .byte   W96
@  #04 @080   ----------------------------------------
 .byte   W96
@  #04 @081   ----------------------------------------
 .byte   W96
@  #04 @082   ----------------------------------------
 .byte   W96
@  #04 @083   ----------------------------------------
 .byte   W96
@  #04 @084   ----------------------------------------
 .byte   W96
@  #04 @085   ----------------------------------------
 .byte   W96
@  #04 @086   ----------------------------------------
 .byte   W96
@  #04 @087   ----------------------------------------
 .byte   W96
@  #04 @088   ----------------------------------------
 .byte   W96
@  #04 @089   ----------------------------------------
 .byte   W96
@  #04 @090   ----------------------------------------
 .byte   W96
@  #04 @091   ----------------------------------------
 .byte   W96
@  #04 @092   ----------------------------------------
 .byte   W96
@  #04 @093   ----------------------------------------
 .byte   W96
@  #04 @094   ----------------------------------------
 .byte   W96
@  #04 @095   ----------------------------------------
 .byte   W96
@  #04 @096   ----------------------------------------
 .byte   W96
@  #04 @097   ----------------------------------------
 .byte   W96
@  #04 @098   ----------------------------------------
 .byte   W96
@  #04 @099   ----------------------------------------
 .byte   W96
@  #04 @100   ----------------------------------------
 .byte   W96
@  #04 @101   ----------------------------------------
 .byte   W96
@  #04 @102   ----------------------------------------
 .byte   W96
@  #04 @103   ----------------------------------------
 .byte   W96
@  #04 @104   ----------------------------------------
 .byte   W96
@  #04 @105   ----------------------------------------
 .byte   W96
@  #04 @106   ----------------------------------------
 .byte   W96
@  #04 @107   ----------------------------------------
 .byte   W96
@  #04 @108   ----------------------------------------
 .byte   W96
@  #04 @109   ----------------------------------------
 .byte   W96
@  #04 @110   ----------------------------------------
 .byte   W96
@  #04 @111   ----------------------------------------
 .byte   W96
@  #04 @112   ----------------------------------------
 .byte   W96
@  #04 @113   ----------------------------------------
 .byte   W96
@  #04 @114   ----------------------------------------
 .byte   W96
@  #04 @115   ----------------------------------------
 .byte   W96
@  #04 @116   ----------------------------------------
 .byte   W96
@  #04 @117   ----------------------------------------
 .byte   W96
@  #04 @118   ----------------------------------------
 .byte   W96
@  #04 @119   ----------------------------------------
 .byte   W96
@  #04 @120   ----------------------------------------
 .byte   W96
@  #04 @121   ----------------------------------------
 .byte   W96
@  #04 @122   ----------------------------------------
 .byte   W96
@  #04 @123   ----------------------------------------
 .byte   W96
@  #04 @124   ----------------------------------------
 .byte   W96
@  #04 @125   ----------------------------------------
 .byte   W96
@  #04 @126   ----------------------------------------
 .byte   W96
@  #04 @127   ----------------------------------------
 .byte   W96
@  #04 @128   ----------------------------------------
 .byte   W96
@  #04 @129   ----------------------------------------
 .byte   W96
@  #04 @130   ----------------------------------------
 .byte   W96
@  #04 @131   ----------------------------------------
 .byte   W96
@  #04 @132   ----------------------------------------
 .byte   W96
@  #04 @133   ----------------------------------------
 .byte   W96
@  #04 @134   ----------------------------------------
 .byte   W96
@  #04 @135   ----------------------------------------
 .byte   W96
@  #04 @136   ----------------------------------------
 .byte   W96
@  #04 @137   ----------------------------------------
 .byte   W96
@  #04 @138   ----------------------------------------
 .byte   W96
@  #04 @139   ----------------------------------------
 .byte   W96
@  #04 @140   ----------------------------------------
 .byte   W96
@  #04 @141   ----------------------------------------
 .byte   W96
@  #04 @142   ----------------------------------------
 .byte   W96
@  #04 @143   ----------------------------------------
 .byte   W96
@  #04 @144   ----------------------------------------
 .byte   W96
@  #04 @145   ----------------------------------------
 .byte   W96
@  #04 @146   ----------------------------------------
 .byte   W96
@  #04 @147   ----------------------------------------
 .byte   W96
@  #04 @148   ----------------------------------------
 .byte   W96
@  #04 @149   ----------------------------------------
 .byte   W96
@  #04 @150   ----------------------------------------
 .byte   W96
@  #04 @151   ----------------------------------------
 .byte   W96
@  #04 @152   ----------------------------------------
 .byte   W96
@  #04 @153   ----------------------------------------
 .byte   W96
@  #04 @154   ----------------------------------------
 .byte   W96
@  #04 @155   ----------------------------------------
 .byte   W96
@  #04 @156   ----------------------------------------
 .byte   W96
@  #04 @157   ----------------------------------------
 .byte   W96
@  #04 @158   ----------------------------------------
 .byte   W96
@  #04 @159   ----------------------------------------
 .byte   W96
@  #04 @160   ----------------------------------------
 .byte   W96
@  #04 @161   ----------------------------------------
 .byte   W96
@  #04 @162   ----------------------------------------
 .byte   W96
@  #04 @163   ----------------------------------------
 .byte   W96
@  #04 @164   ----------------------------------------
 .byte   W96
@  #04 @165   ----------------------------------------
 .byte   W96
@  #04 @166   ----------------------------------------
 .byte   W96
@  #04 @167   ----------------------------------------
 .byte   W96
@  #04 @168   ----------------------------------------
 .byte   W96
@  #04 @169   ----------------------------------------
 .byte   W96
@  #04 @170   ----------------------------------------
 .byte   W96
@  #04 @171   ----------------------------------------
 .byte   W96
@  #04 @172   ----------------------------------------
 .byte   W96
@  #04 @173   ----------------------------------------
 .byte   W96
@  #04 @174   ----------------------------------------
 .byte   W96
@  #04 @175   ----------------------------------------
 .byte   W96
@  #04 @176   ----------------------------------------
 .byte   W96
@  #04 @177   ----------------------------------------
 .byte   W96
@  #04 @178   ----------------------------------------
 .byte   W96
@  #04 @179   ----------------------------------------
 .byte   W96
@  #04 @180   ----------------------------------------
 .byte   W96
@  #04 @181   ----------------------------------------
 .byte   W96
@  #04 @182   ----------------------------------------
 .byte   W96
@  #04 @183   ----------------------------------------
 .byte   W96
@  #04 @184   ----------------------------------------
 .byte   W96
@  #04 @185   ----------------------------------------
 .byte   W96
@  #04 @186   ----------------------------------------
 .byte   W96
@  #04 @187   ----------------------------------------
 .byte   W96
@  #04 @188   ----------------------------------------
 .byte   W96
@  #04 @189   ----------------------------------------
 .byte   W96
@  #04 @190   ----------------------------------------
 .byte   W96
@  #04 @191   ----------------------------------------
 .byte   W96
@  #04 @192   ----------------------------------------
 .byte   W96
@  #04 @193   ----------------------------------------
 .byte   W96
@  #04 @194   ----------------------------------------
 .byte   W96
@  #04 @195   ----------------------------------------
 .byte   W96
@  #04 @196   ----------------------------------------
 .byte   W96
@  #04 @197   ----------------------------------------
 .byte   W96
@  #04 @198   ----------------------------------------
 .byte   W96
@  #04 @199   ----------------------------------------
 .byte   W96
@  #04 @200   ----------------------------------------
 .byte   W96
@  #04 @201   ----------------------------------------
 .byte   W96
@  #04 @202   ----------------------------------------
 .byte   W96
@  #04 @203   ----------------------------------------
 .byte   W96
@  #04 @204   ----------------------------------------
 .byte   W96
@  #04 @205   ----------------------------------------
 .byte   W96
@  #04 @206   ----------------------------------------
 .byte   W96
@  #04 @207   ----------------------------------------
 .byte   W96
@  #04 @208   ----------------------------------------
 .byte   W96
@  #04 @209   ----------------------------------------
 .byte   W96
@  #04 @210   ----------------------------------------
 .byte   W96
@  #04 @211   ----------------------------------------
 .byte   W96
@  #04 @212   ----------------------------------------
 .byte   W96
@  #04 @213   ----------------------------------------
 .byte   W96
@  #04 @214   ----------------------------------------
 .byte   W96
@  #04 @215   ----------------------------------------
 .byte   W96
@  #04 @216   ----------------------------------------
 .byte   W96
@  #04 @217   ----------------------------------------
 .byte   W96
@  #04 @218   ----------------------------------------
 .byte   W96
@  #04 @219   ----------------------------------------
 .byte   W96
@  #04 @220   ----------------------------------------
 .byte   W96
@  #04 @221   ----------------------------------------
 .byte   W96
@  #04 @222   ----------------------------------------
 .byte   W96
@  #04 @223   ----------------------------------------
 .byte   W96
@  #04 @224   ----------------------------------------
 .byte   W96
@  #04 @225   ----------------------------------------
 .byte   W96
@  #04 @226   ----------------------------------------
 .byte   W96
@  #04 @227   ----------------------------------------
 .byte   W96
@  #04 @228   ----------------------------------------
 .byte   W96
@  #04 @229   ----------------------------------------
 .byte   W96
@  #04 @230   ----------------------------------------
 .byte   W96
@  #04 @231   ----------------------------------------
 .byte   W96
@  #04 @232   ----------------------------------------
 .byte   W96
@  #04 @233   ----------------------------------------
 .byte   W96
@  #04 @234   ----------------------------------------
 .byte   W96
@  #04 @235   ----------------------------------------
 .byte   W96
@  #04 @236   ----------------------------------------
 .byte   W96
@  #04 @237   ----------------------------------------
 .byte   W96
@  #04 @238   ----------------------------------------
 .byte   W96
@  #04 @239   ----------------------------------------
 .byte   W96
@  #04 @240   ----------------------------------------
 .byte   W96
@  #04 @241   ----------------------------------------
 .byte   W96
@  #04 @242   ----------------------------------------
 .byte   W96
@  #04 @243   ----------------------------------------
 .byte   W96
@  #04 @244   ----------------------------------------
 .byte   W96
@  #04 @245   ----------------------------------------
 .byte   W96
@  #04 @246   ----------------------------------------
 .byte   W96
@  #04 @247   ----------------------------------------
 .byte   W96
@  #04 @248   ----------------------------------------
 .byte   W96
@  #04 @249   ----------------------------------------
 .byte   W96
@  #04 @250   ----------------------------------------
 .byte   W96
@  #04 @251   ----------------------------------------
 .byte   W96
@  #04 @252   ----------------------------------------
 .byte   W96
@  #04 @253   ----------------------------------------
 .byte   W96
@  #04 @254   ----------------------------------------
 .byte   W96
@  #04 @255   ----------------------------------------
 .byte   W96
@  #04 @256   ----------------------------------------
 .byte   W96
@  #04 @257   ----------------------------------------
 .byte   W96
@  #04 @258   ----------------------------------------
 .byte   W96
@  #04 @259   ----------------------------------------
 .byte   W96
@  #04 @260   ----------------------------------------
 .byte   W96
@  #04 @261   ----------------------------------------
 .byte   W96
@  #04 @262   ----------------------------------------
 .byte   W96
@  #04 @263   ----------------------------------------
 .byte   W96
@  #04 @264   ----------------------------------------
 .byte   W96
@  #04 @265   ----------------------------------------
 .byte   W96
@  #04 @266   ----------------------------------------
 .byte   W96
@  #04 @267   ----------------------------------------
 .byte   W96
@  #04 @268   ----------------------------------------
 .byte   W96
@  #04 @269   ----------------------------------------
 .byte   W96
@  #04 @270   ----------------------------------------
 .byte   W96
@  #04 @271   ----------------------------------------
 .byte   W96
@  #04 @272   ----------------------------------------
 .byte   W96
@  #04 @273   ----------------------------------------
 .byte   W96
@  #04 @274   ----------------------------------------
 .byte   W96
@  #04 @275   ----------------------------------------
 .byte   W96
@  #04 @276   ----------------------------------------
 .byte   W96
@  #04 @277   ----------------------------------------
 .byte   W96
@  #04 @278   ----------------------------------------
 .byte   W96
@  #04 @279   ----------------------------------------
 .byte   W96
@  #04 @280   ----------------------------------------
 .byte   W96
@  #04 @281   ----------------------------------------
 .byte   W96
@  #04 @282   ----------------------------------------
 .byte   W96
@  #04 @283   ----------------------------------------
 .byte   W96
@  #04 @284   ----------------------------------------
 .byte   W96
@  #04 @285   ----------------------------------------
 .byte   W96
@  #04 @286   ----------------------------------------
 .byte   W96
@  #04 @287   ----------------------------------------
 .byte   W96
@  #04 @288   ----------------------------------------
 .byte   W96
@  #04 @289   ----------------------------------------
 .byte   W96
@  #04 @290   ----------------------------------------
 .byte   W96
@  #04 @291   ----------------------------------------
 .byte   W96
@  #04 @292   ----------------------------------------
 .byte   W96
@  #04 @293   ----------------------------------------
 .byte   W96
@  #04 @294   ----------------------------------------
 .byte   W96
@  #04 @295   ----------------------------------------
 .byte   W96
@  #04 @296   ----------------------------------------
 .byte   W96
@  #04 @297   ----------------------------------------
 .byte   W96
@  #04 @298   ----------------------------------------
 .byte   W96
@  #04 @299   ----------------------------------------
 .byte   W96
@  #04 @300   ----------------------------------------
 .byte   W96
@  #04 @301   ----------------------------------------
 .byte   W96
@  #04 @302   ----------------------------------------
 .byte   W96
@  #04 @303   ----------------------------------------
 .byte   W96
@  #04 @304   ----------------------------------------
 .byte   W96
@  #04 @305   ----------------------------------------
 .byte   W96
@  #04 @306   ----------------------------------------
 .byte   W96
@  #04 @307   ----------------------------------------
 .byte   W96
@  #04 @308   ----------------------------------------
 .byte   W96
@  #04 @309   ----------------------------------------
 .byte   W96
@  #04 @310   ----------------------------------------
 .byte   W96
@  #04 @311   ----------------------------------------
 .byte   W96
@  #04 @312   ----------------------------------------
 .byte   W96
@  #04 @313   ----------------------------------------
 .byte   W96
@  #04 @314   ----------------------------------------
 .byte   W96
@  #04 @315   ----------------------------------------
 .byte   W96
@  #04 @316   ----------------------------------------
 .byte   W96
@  #04 @317   ----------------------------------------
 .byte   W96
@  #04 @318   ----------------------------------------
 .byte   W96
@  #04 @319   ----------------------------------------
 .byte   W96
@  #04 @320   ----------------------------------------
 .byte   W96
@  #04 @321   ----------------------------------------
 .byte   W96
@  #04 @322   ----------------------------------------
 .byte   W96
@  #04 @323   ----------------------------------------
 .byte   W96
@  #04 @324   ----------------------------------------
 .byte   W96
@  #04 @325   ----------------------------------------
 .byte   W96
@  #04 @326   ----------------------------------------
 .byte   W96
@  #04 @327   ----------------------------------------
 .byte   W96
@  #04 @328   ----------------------------------------
 .byte   W96
@  #04 @329   ----------------------------------------
 .byte   W96
@  #04 @330   ----------------------------------------
 .byte   GOTO
  .word Label_01006035
@  #04 @331   ----------------------------------------
 .byte   W96
@  #04 @332   ----------------------------------------
 .byte   W96
@  #04 @333   ----------------------------------------
 .byte   W96
@  #04 @334   ----------------------------------------
 .byte   W96
@  #04 @335   ----------------------------------------
 .byte   W96
@  #04 @336   ----------------------------------------
 .byte   W96
@  #04 @337   ----------------------------------------
 .byte   W96
@  #04 @338   ----------------------------------------
 .byte   W96
@  #04 @339   ----------------------------------------
 .byte   W96
@  #04 @340   ----------------------------------------
 .byte   W96
@  #04 @341   ----------------------------------------
 .byte   W96
@  #04 @342   ----------------------------------------
 .byte   W96
@  #04 @343   ----------------------------------------
 .byte   W96
@  #04 @344   ----------------------------------------
 .byte   W96
@  #04 @345   ----------------------------------------
 .byte   W96
@  #04 @346   ----------------------------------------
 .byte   W96
@  #04 @347   ----------------------------------------
 .byte   W96
@  #04 @348   ----------------------------------------
 .byte   W96
 .byte   FINE

@**************** Track 5 (Midi-Chn.4) ****************@

song04_005:
@  #05 @000   ----------------------------------------
 .byte   KEYSH , song04_key+0
 .byte   VOICE , 124
 .byte   VOL , 21*song04_mvl/mxv
 .byte   N05 ,Ds2 ,v092
 .byte   W06
 .byte   N05
 .byte   W06
 .byte   N05
 .byte   W06
 .byte   N05
 .byte   W06
 .byte   N05
 .byte   W06
 .byte   N05
 .byte   W06
 .byte   N05
 .byte   W06
 .byte   N05
 .byte   W06
 .byte   N05
 .byte   W06
 .byte   N05
 .byte   W06
 .byte   N05
 .byte   W06
 .byte   N05
 .byte   W06
 .byte   N05
 .byte   W06
 .byte   N05
 .byte   W06
 .byte   N05
 .byte   W06
 .byte   N05
 .byte   W06
@  #05 @001   ----------------------------------------
Label_010061BC:
 .byte   N05 ,Ds2 ,v092
 .byte   W06
 .byte   N05
 .byte   W06
 .byte   N05
 .byte   W06
 .byte   N05
 .byte   W06
 .byte   N05
 .byte   W06
 .byte   N05
 .byte   W06
 .byte   N05
 .byte   W06
 .byte   N05
 .byte   W06
 .byte   N05
 .byte   W06
 .byte   N05
 .byte   W06
 .byte   N05
 .byte   W06
 .byte   N05
 .byte   W06
 .byte   N05
 .byte   W06
 .byte   N05
 .byte   W06
 .byte   N05
 .byte   W06
 .byte   N05
 .byte   W06
 .byte   PEND 
@  #05 @002   ----------------------------------------
 .byte   PATT
  .word Label_010061BC
@  #05 @003   ----------------------------------------
 .byte   PATT
  .word Label_010061BC
@  #05 @004   ----------------------------------------
 .byte   PATT
  .word Label_010061BC
@  #05 @005   ----------------------------------------
 .byte   PATT
  .word Label_010061BC
@  #05 @006   ----------------------------------------
 .byte   PATT
  .word Label_010061BC
@  #05 @007   ----------------------------------------
 .byte   PATT
  .word Label_010061BC
@  #05 @008   ----------------------------------------
 .byte   W96
@  #05 @009   ----------------------------------------
 .byte   W96
@  #05 @010   ----------------------------------------
 .byte   VOL , 35*song04_mvl/mxv
 .byte   N11 ,Cn1 ,v092
 .byte   N11 ,Cs2
 .byte   N11 ,Gn2
 .byte   W96
@  #05 @011   ----------------------------------------
 .byte   W72
 .byte   As1
 .byte   W24
@  #05 @012   ----------------------------------------
Label_0100620C:
 .byte   N11 ,Cn1 ,v092
 .byte   N11 ,Gn2
 .byte   N11 ,An2
 .byte   W48
 .byte   Dn1
 .byte   W12
 .byte   N11
 .byte   W12
 .byte   Cn1
 .byte   W12
 .byte   N11
 .byte   W12
 .byte   PEND 
@  #05 @013   ----------------------------------------
 .byte   Dn1
 .byte   W12
 .byte   N11
 .byte   W12
 .byte   Cn1
 .byte   W12
 .byte   N11
 .byte   W12
 .byte   Dn1
 .byte   W12
 .byte   N11
 .byte   W12
 .byte   Cn1
 .byte   N11 ,Dn1
 .byte   W12
 .byte   Cn1
 .byte   N11 ,Dn1
 .byte   W12
@  #05 @014   ----------------------------------------
Label_01006231:
 .byte   N11 ,Cn1 ,v092
 .byte   N11 ,Cs2
 .byte   N11 ,Gn2
 .byte   W96
 .byte   PEND 
@  #05 @015   ----------------------------------------
 .byte   W72
 .byte   As1
 .byte   W24
@  #05 @016   ----------------------------------------
 .byte   Cn1
 .byte   N11 ,Gn2
 .byte   N11 ,An2
 .byte   W48
 .byte   Dn1
 .byte   W12
 .byte   N11
 .byte   W12
 .byte   N11
 .byte   W12
 .byte   N11
 .byte   W12
@  #05 @017   ----------------------------------------
 .byte   Cn1
 .byte   N11 ,Dn1
 .byte   W12
 .byte   Cn1
 .byte   N11 ,Dn1
 .byte   W12
 .byte   Cn1
 .byte   N11 ,Dn1
 .byte   W12
 .byte   Cn1
 .byte   N11 ,Dn1
 .byte   W12
 .byte   Cn1
 .byte   N11 ,Dn1
 .byte   W12
 .byte   Cn1
 .byte   N11 ,Dn1
 .byte   W12
 .byte   Cn1
 .byte   N11 ,Dn1
 .byte   W12
 .byte   Cn1
 .byte   N11 ,Dn1
 .byte   W12
@  #05 @018   ----------------------------------------
 .byte   PATT
  .word Label_01006231
@  #05 @019   ----------------------------------------
 .byte   W72
 .byte   N11 ,As1 ,v092
 .byte   W24
@  #05 @020   ----------------------------------------
 .byte   PATT
  .word Label_0100620C
@  #05 @021   ----------------------------------------
 .byte   N11 ,Dn1 ,v092
 .byte   W12
 .byte   N11
 .byte   W12
 .byte   Cn1
 .byte   W12
 .byte   N11
 .byte   W12
 .byte   Dn1
 .byte   N11 ,Bn1
 .byte   W12
 .byte   Dn1
 .byte   N11 ,An1
 .byte   W12
 .byte   Cn1
 .byte   N11 ,Dn1
 .byte   N11 ,Gn1
 .byte   W12
 .byte   Cn1
 .byte   N11 ,Dn1
 .byte   N11 ,Fn1
 .byte   W12
@  #05 @022   ----------------------------------------
Label_01006298:
 .byte   N11 ,Cn1 ,v092
 .byte   N11 ,As1
 .byte   W96
@  #05 @023   ----------------------------------------
 .byte   N11
 .byte   W96
@  #05 @024   ----------------------------------------
Label_010062A0:
 .byte   N11 ,As1 ,v092
 .byte   W48
 .byte   N11
 .byte   W12
 .byte   Gs1
 .byte   W12
 .byte   Fs1
 .byte   W12
 .byte   Gs1
 .byte   W12
 .byte   PEND 
@  #05 @025   ----------------------------------------
 .byte   Cn1
 .byte   N11 ,Fn1
 .byte   N11 ,As1
 .byte   W36
 .byte   Cn1
 .byte   N11 ,Fn1
 .byte   N11 ,As1
 .byte   W12
 .byte   Cn1
 .byte   N11 ,Fn1
 .byte   N11 ,As1
 .byte   W24
 .byte   Cn1
 .byte   N11 ,Fn1
 .byte   N11 ,As1
 .byte   W24
@  #05 @026   ----------------------------------------
 .byte   Cn1
 .byte   N11 ,Fn1
 .byte   N11 ,As1
 .byte   W96
@  #05 @027   ----------------------------------------
 .byte   N11
 .byte   W96
@  #05 @028   ----------------------------------------
 .byte   PATT
  .word Label_010062A0
@  #05 @029   ----------------------------------------
 .byte   N11 ,As1 ,v092
 .byte   W72
 .byte   Cn1
 .byte   N11 ,Dn1
 .byte   W12
 .byte   Cn1
 .byte   N11 ,Dn1
 .byte   W12
@  #05 @030   ----------------------------------------
Label_010062DE:
 .byte   N11 ,Cn1 ,v092
 .byte   N11 ,Cs2
 .byte   N11 ,Gn2
 .byte   W12
 .byte   Cn1
 .byte   W12
 .byte   Dn1
 .byte   N11 ,As1 ,v076
 .byte   W12
 .byte   Cn1 ,v092
 .byte   W12
 .byte   N11
 .byte   N11 ,As1
 .byte   W12
 .byte   Cn1
 .byte   W12
 .byte   Dn1
 .byte   N11 ,As1 ,v076
 .byte   W12
 .byte   Cn1 ,v092
 .byte   W12
 .byte   PEND 
@  #05 @031   ----------------------------------------
Label_010062FF:
 .byte   N11 ,Cn1 ,v092
 .byte   N11 ,As1
 .byte   W12
 .byte   Cn1
 .byte   W12
 .byte   Dn1
 .byte   N11 ,As1 ,v076
 .byte   W12
 .byte   Cn1 ,v092
 .byte   W12
 .byte   N11
 .byte   N11 ,As1
 .byte   W12
 .byte   Cn1
 .byte   N11 ,Bn1
 .byte   W12
 .byte   Dn1
 .byte   N11 ,An1
 .byte   N11 ,As1 ,v076
 .byte   W12
 .byte   Cn1 ,v092
 .byte   W12
 .byte   PEND 
@  #05 @032   ----------------------------------------
Label_01006322:
 .byte   N11 ,Cn1 ,v092
 .byte   N11 ,Fn1
 .byte   N11 ,As1
 .byte   W12
 .byte   Cn1
 .byte   W12
 .byte   Dn1
 .byte   N11 ,As1 ,v076
 .byte   W12
 .byte   Cn1 ,v092
 .byte   W12
 .byte   N11
 .byte   N11 ,As1
 .byte   W12
 .byte   Cn1
 .byte   W12
 .byte   Dn1
 .byte   N11 ,As1 ,v076
 .byte   W12
 .byte   Cn1 ,v092
 .byte   W12
 .byte   PEND 
@  #05 @033   ----------------------------------------
 .byte   PATT
  .word Label_010062FF
@  #05 @034   ----------------------------------------
Label_01006348:
 .byte   N11 ,Cn1 ,v092
 .byte   N11 ,Fn1
 .byte   N11 ,Cs2
 .byte   N11 ,Gn2
 .byte   W12
 .byte   Cn1
 .byte   W12
 .byte   Dn1
 .byte   N11 ,As1 ,v076
 .byte   W12
 .byte   Cn1 ,v092
 .byte   W12
 .byte   N11
 .byte   N11 ,As1
 .byte   W12
 .byte   Cn1
 .byte   W12
 .byte   Dn1
 .byte   N11 ,As1 ,v076
 .byte   W12
 .byte   Cn1 ,v092
 .byte   W12
 .byte   PEND 
@  #05 @035   ----------------------------------------
 .byte   PATT
  .word Label_010062FF
@  #05 @036   ----------------------------------------
 .byte   PATT
  .word Label_01006322
@  #05 @037   ----------------------------------------
Label_01006375:
 .byte   N11 ,Cn1 ,v092
 .byte   N11 ,As1
 .byte   W12
 .byte   Cn1
 .byte   W12
 .byte   Dn1
 .byte   N11 ,As1 ,v076
 .byte   W12
 .byte   Cn1 ,v092
 .byte   W12
 .byte   N11
 .byte   N11 ,As1
 .byte   W12
 .byte   Cn1
 .byte   N11 ,Bn1
 .byte   W12
 .byte   Cn1
 .byte   N11 ,An1
 .byte   N11 ,As1 ,v076
 .byte   W12
 .byte   Cn1 ,v092
 .byte   W12
 .byte   PEND 
@  #05 @038   ----------------------------------------
 .byte   PATT
  .word Label_010062DE
@  #05 @039   ----------------------------------------
 .byte   PATT
  .word Label_010062FF
@  #05 @040   ----------------------------------------
 .byte   PATT
  .word Label_01006322
@  #05 @041   ----------------------------------------
 .byte   PATT
  .word Label_010062FF
@  #05 @042   ----------------------------------------
 .byte   PATT
  .word Label_01006348
@  #05 @043   ----------------------------------------
 .byte   PATT
  .word Label_010062FF
@  #05 @044   ----------------------------------------
 .byte   PATT
  .word Label_01006322
@  #05 @045   ----------------------------------------
 .byte   PATT
  .word Label_01006375
@  #05 @046   ----------------------------------------
Label_010063C0:
 .byte   N11 ,Cn1 ,v092
 .byte   N11 ,Dn1
 .byte   N11 ,An2
 .byte   W24
 .byte   Cn1
 .byte   W12
 .byte   N11
 .byte   N11 ,Dn1
 .byte   N11 ,Cs2
 .byte   W12
 .byte   Cn1
 .byte   W12
 .byte   N11
 .byte   N11 ,Dn1
 .byte   N11 ,Gn2
 .byte   W24
 .byte   Cn1
 .byte   W12
 .byte   PEND 
@  #05 @047   ----------------------------------------
 .byte   PATT
  .word Label_010063C0
@  #05 @048   ----------------------------------------
 .byte   N11 ,Cn1 ,v092
 .byte   N11 ,Gn2
 .byte   W96
@  #05 @049   ----------------------------------------
 .byte   W96
@  #05 @050   ----------------------------------------
Label_010063E7:
 .byte   N11 ,Cn1 ,v092
 .byte   N11 ,Dn1
 .byte   N11 ,An1
 .byte   N11 ,Cs2
 .byte   W12
 .byte   Cn1
 .byte   N05 ,Gn1
 .byte   W12
 .byte   N11 ,Cn1
 .byte   N05 ,Fn1
 .byte   W12
 .byte   N11 ,Cn1
 .byte   N11 ,Dn1
 .byte   N05 ,Fn1
 .byte   N11 ,Gn2
 .byte   W12
 .byte   Cn1
 .byte   N05 ,An1
 .byte   W12
 .byte   N11 ,Cn1
 .byte   N05 ,Gn1
 .byte   W12
 .byte   N11 ,Cn1
 .byte   N11 ,Dn1
 .byte   N05 ,Fn1
 .byte   N11 ,An2
 .byte   W12
 .byte   Cn1
 .byte   N05 ,Fn1
 .byte   W12
 .byte   PEND 
@  #05 @051   ----------------------------------------
Label_0100641A:
 .byte   N11 ,Cn1 ,v092
 .byte   N11 ,Dn1
 .byte   N05 ,An1
 .byte   N11 ,Cs2
 .byte   W12
 .byte   N05 ,Gn1
 .byte   W12
 .byte   Fn1
 .byte   W12
 .byte   N11 ,Cn1
 .byte   N11 ,Dn1
 .byte   N05 ,Fn1
 .byte   N11 ,Gn2
 .byte   W12
 .byte   N05 ,Fn1
 .byte   W12
 .byte   N05
 .byte   W12
 .byte   N11 ,Cn1
 .byte   N11 ,Dn1
 .byte   N11 ,An2
 .byte   W12
 .byte   Cn1
 .byte   W12
 .byte   PEND 
@  #05 @052   ----------------------------------------
Label_01006441:
 .byte   N11 ,Cn1 ,v092
 .byte   N11 ,Cs2
 .byte   N11 ,Gn2
 .byte   W24
 .byte   Dn1
 .byte   N11 ,Ds2 ,v076
 .byte   W24
 .byte   Cn1 ,v092
 .byte   N11 ,Ds2
 .byte   N11 ,Bn2
 .byte   W24
 .byte   Dn1
 .byte   N11 ,Ds2 ,v076
 .byte   W24
 .byte   PEND 
@  #05 @053   ----------------------------------------
Label_0100645B:
 .byte   N11 ,Cn1 ,v092
 .byte   N11 ,Ds2
 .byte   N11 ,Bn2
 .byte   W24
 .byte   Dn1
 .byte   N11 ,Ds2 ,v076
 .byte   W24
 .byte   Cn1 ,v092
 .byte   N11 ,Ds2
 .byte   N11 ,Bn2
 .byte   W24
 .byte   Dn1
 .byte   N11 ,Ds2 ,v076
 .byte   W12
 .byte   Cn1 ,v092
 .byte   W12
 .byte   PEND 
@  #05 @054   ----------------------------------------
Label_01006478:
 .byte   N11 ,Cn1 ,v092
 .byte   N11 ,Ds2
 .byte   N11 ,Bn2
 .byte   W24
 .byte   Dn1
 .byte   N11 ,Ds2 ,v076
 .byte   W24
 .byte   Cn1 ,v092
 .byte   N11 ,Ds2
 .byte   N11 ,Bn2
 .byte   W24
 .byte   Dn1
 .byte   N11 ,Ds2 ,v076
 .byte   W24
 .byte   PEND 
@  #05 @055   ----------------------------------------
 .byte   PATT
  .word Label_0100645B
@  #05 @056   ----------------------------------------
Label_01006497:
 .byte   N11 ,Cn1 ,v092
 .byte   N11 ,Gn2
 .byte   N11 ,An2
 .byte   W24
 .byte   Dn1
 .byte   N11 ,Ds2 ,v076
 .byte   W24
 .byte   Cn1 ,v092
 .byte   N11 ,Ds2
 .byte   N11 ,Bn2
 .byte   W24
 .byte   Dn1
 .byte   N11 ,Ds2 ,v076
 .byte   W24
 .byte   PEND 
@  #05 @057   ----------------------------------------
 .byte   PATT
  .word Label_0100645B
@  #05 @058   ----------------------------------------
 .byte   PATT
  .word Label_01006478
@  #05 @059   ----------------------------------------
Label_010064BB:
 .byte   N11 ,Cn1 ,v092
 .byte   N11 ,Dn1
 .byte   N11 ,Cs2
 .byte   W12
 .byte   Cn1
 .byte   W12
 .byte   N11
 .byte   W12
 .byte   N11
 .byte   N11 ,Dn1
 .byte   N11 ,Gn2
 .byte   W12
 .byte   Cn1
 .byte   W12
 .byte   N11
 .byte   W12
 .byte   N11
 .byte   N11 ,Dn1
 .byte   N11 ,An2
 .byte   W12
 .byte   Cn1
 .byte   N11 ,Dn1
 .byte   W12
 .byte   PEND 
@  #05 @060   ----------------------------------------
 .byte   PATT
  .word Label_01006441
@  #05 @061   ----------------------------------------
 .byte   PATT
  .word Label_0100645B
@  #05 @062   ----------------------------------------
 .byte   PATT
  .word Label_01006478
@  #05 @063   ----------------------------------------
 .byte   PATT
  .word Label_0100645B
@  #05 @064   ----------------------------------------
 .byte   PATT
  .word Label_01006497
@  #05 @065   ----------------------------------------
 .byte   PATT
  .word Label_0100645B
@  #05 @066   ----------------------------------------
 .byte   PATT
  .word Label_01006478
@  #05 @067   ----------------------------------------
 .byte   PATT
  .word Label_010064BB
@  #05 @068   ----------------------------------------
Label_01006504:
 .byte   N11 ,Cn1 ,v092
 .byte   N11 ,Dn1
 .byte   N11 ,An1
 .byte   N11 ,Cs2
 .byte   W24
 .byte   Cn1
 .byte   N11 ,An1
 .byte   W12
 .byte   Cn1
 .byte   N11 ,Bn1
 .byte   W24
 .byte   Cn1
 .byte   N11 ,An1
 .byte   W12
 .byte   Cn1
 .byte   N11 ,Gn1
 .byte   W12
 .byte   Cn1
 .byte   N11 ,Fn1
 .byte   W12
 .byte   PEND 
@  #05 @069   ----------------------------------------
Label_01006523:
 .byte   N11 ,Cn1 ,v092
 .byte   N11 ,Dn1
 .byte   N11 ,An1
 .byte   N11 ,An2
 .byte   W24
 .byte   Cn1
 .byte   N11 ,An1
 .byte   W12
 .byte   Cn1
 .byte   N11 ,Bn1
 .byte   W24
 .byte   Cn1
 .byte   N11 ,An1
 .byte   W12
 .byte   Cn1
 .byte   N11 ,Gn1
 .byte   W12
 .byte   Cn1
 .byte   N11 ,Fn1
 .byte   W12
 .byte   PEND 
@  #05 @070   ----------------------------------------
 .byte   PATT
  .word Label_01006504
@  #05 @071   ----------------------------------------
 .byte   PATT
  .word Label_01006523
@  #05 @072   ----------------------------------------
 .byte   PATT
  .word Label_01006504
@  #05 @073   ----------------------------------------
 .byte   PATT
  .word Label_01006523
@  #05 @074   ----------------------------------------
 .byte   PATT
  .word Label_01006504
@  #05 @075   ----------------------------------------
Label_0100655B:
 .byte   N11 ,Cn1 ,v092
 .byte   N11 ,Dn1
 .byte   N11 ,An1
 .byte   N11 ,Cs2
 .byte   W24
 .byte   Cn1
 .byte   N11 ,An1
 .byte   W12
 .byte   Cn1
 .byte   N11 ,Dn1
 .byte   N11 ,An2
 .byte   W12
 .byte   Cn2
 .byte   W12
 .byte   Cn1
 .byte   N11 ,Bn1
 .byte   W12
 .byte   Cn1
 .byte   N11 ,Dn1
 .byte   N11 ,An1
 .byte   W12
 .byte   Cn1
 .byte   N11 ,Dn1
 .byte   W12
 .byte   PEND 
@  #05 @076   ----------------------------------------
 .byte   PATT
  .word Label_01006504
@  #05 @077   ----------------------------------------
 .byte   PATT
  .word Label_01006523
@  #05 @078   ----------------------------------------
 .byte   PATT
  .word Label_01006504
@  #05 @079   ----------------------------------------
 .byte   PATT
  .word Label_01006523
@  #05 @080   ----------------------------------------
 .byte   PATT
  .word Label_01006504
@  #05 @081   ----------------------------------------
 .byte   PATT
  .word Label_01006523
@  #05 @082   ----------------------------------------
 .byte   PATT
  .word Label_01006504
@  #05 @083   ----------------------------------------
Label_010065A3:
 .byte   N11 ,Cn1 ,v092
 .byte   N11 ,Dn1
 .byte   N11 ,Cs2
 .byte   W12
 .byte   Cn1
 .byte   W12
 .byte   N11
 .byte   W12
 .byte   N11
 .byte   N11 ,Dn1
 .byte   N11 ,An2
 .byte   W12
 .byte   Cn1
 .byte   W12
 .byte   N11
 .byte   W12
 .byte   N11
 .byte   N11 ,Dn1
 .byte   W12
 .byte   Cn1
 .byte   N11 ,Dn1
 .byte   W12
 .byte   PEND 
@  #05 @084   ----------------------------------------
 .byte   PATT
  .word Label_01006441
@  #05 @085   ----------------------------------------
 .byte   PATT
  .word Label_0100645B
@  #05 @086   ----------------------------------------
 .byte   PATT
  .word Label_01006478
@  #05 @087   ----------------------------------------
 .byte   PATT
  .word Label_0100645B
@  #05 @088   ----------------------------------------
 .byte   PATT
  .word Label_01006497
@  #05 @089   ----------------------------------------
 .byte   PATT
  .word Label_0100645B
@  #05 @090   ----------------------------------------
 .byte   PATT
  .word Label_01006478
@  #05 @091   ----------------------------------------
 .byte   PATT
  .word Label_010064BB
@  #05 @092   ----------------------------------------
 .byte   PATT
  .word Label_01006441
@  #05 @093   ----------------------------------------
 .byte   PATT
  .word Label_0100645B
@  #05 @094   ----------------------------------------
 .byte   PATT
  .word Label_01006478
@  #05 @095   ----------------------------------------
 .byte   PATT
  .word Label_0100645B
@  #05 @096   ----------------------------------------
 .byte   PATT
  .word Label_01006497
@  #05 @097   ----------------------------------------
 .byte   PATT
  .word Label_0100645B
@  #05 @098   ----------------------------------------
 .byte   PATT
  .word Label_01006478
@  #05 @099   ----------------------------------------
 .byte   PATT
  .word Label_010064BB
@  #05 @100   ----------------------------------------
 .byte   PATT
  .word Label_01006504
@  #05 @101   ----------------------------------------
 .byte   PATT
  .word Label_01006523
@  #05 @102   ----------------------------------------
 .byte   PATT
  .word Label_01006504
@  #05 @103   ----------------------------------------
 .byte   PATT
  .word Label_01006523
@  #05 @104   ----------------------------------------
 .byte   PATT
  .word Label_01006504
@  #05 @105   ----------------------------------------
 .byte   PATT
  .word Label_01006523
@  #05 @106   ----------------------------------------
 .byte   PATT
  .word Label_01006504
@  #05 @107   ----------------------------------------
 .byte   PATT
  .word Label_0100655B
@  #05 @108   ----------------------------------------
 .byte   PATT
  .word Label_01006504
@  #05 @109   ----------------------------------------
 .byte   PATT
  .word Label_01006523
@  #05 @110   ----------------------------------------
 .byte   PATT
  .word Label_01006504
@  #05 @111   ----------------------------------------
 .byte   PATT
  .word Label_01006523
@  #05 @112   ----------------------------------------
 .byte   PATT
  .word Label_01006504
@  #05 @113   ----------------------------------------
 .byte   PATT
  .word Label_01006523
@  #05 @114   ----------------------------------------
 .byte   PATT
  .word Label_01006504
@  #05 @115   ----------------------------------------
 .byte   PATT
  .word Label_010065A3
@  #05 @116   ----------------------------------------
 .byte   N11 ,Cn1 ,v092
 .byte   N11 ,Fs1
 .byte   W96
@  #05 @117   ----------------------------------------
 .byte   Cn1
 .byte   W96
@  #05 @118   ----------------------------------------
 .byte   N11
 .byte   W96
@  #05 @119   ----------------------------------------
Label_0100666C:
 .byte   N11 ,Cn1 ,v092
 .byte   W72
 .byte   N05 ,Ds2
 .byte   W12
 .byte   N05
 .byte   W12
 .byte   PEND 
@  #05 @120   ----------------------------------------
 .byte   N11 ,Cn1
 .byte   N11 ,Ds2
 .byte   W96
@  #05 @121   ----------------------------------------
 .byte   Cn1
 .byte   W96
@  #05 @122   ----------------------------------------
 .byte   N11
 .byte   W96
@  #05 @123   ----------------------------------------
Label_0100667F:
 .byte   N11 ,Cn1 ,v092
 .byte   W24
 .byte   N11
 .byte   W24
 .byte   Dn1
 .byte   N11 ,As1
 .byte   W12
 .byte   Cn1
 .byte   W12
 .byte   N11
 .byte   W12
 .byte   N11
 .byte   W12
 .byte   PEND 
@  #05 @124   ----------------------------------------
Label_01006690:
 .byte   N11 ,Dn1 ,v092
 .byte   N11 ,As1
 .byte   N11 ,Gn2
 .byte   N11 ,An2
 .byte   W12
 .byte   Cn1
 .byte   W12
 .byte   N11
 .byte   W12
 .byte   N11
 .byte   W12
 .byte   Dn1
 .byte   N11 ,As1
 .byte   W12
 .byte   Cn1
 .byte   W12
 .byte   N11
 .byte   W12
 .byte   N11
 .byte   W12
 .byte   PEND 
@  #05 @125   ----------------------------------------
Label_010066AB:
 .byte   N11 ,Dn1 ,v092
 .byte   N11 ,As1
 .byte   W12
 .byte   Cn1
 .byte   W12
 .byte   N11
 .byte   W12
 .byte   N11
 .byte   W12
 .byte   Dn1
 .byte   N11 ,As1
 .byte   W12
 .byte   Cn1
 .byte   W12
 .byte   N11
 .byte   W12
 .byte   N11
 .byte   W12
 .byte   PEND 
@  #05 @126   ----------------------------------------
 .byte   PATT
  .word Label_010066AB
@  #05 @127   ----------------------------------------
Label_010066C7:
 .byte   N11 ,Dn1 ,v092
 .byte   N11 ,As1
 .byte   W12
 .byte   Cn1
 .byte   W12
 .byte   N11
 .byte   W12
 .byte   Dn1
 .byte   N11 ,As1
 .byte   W12
 .byte   Cn1
 .byte   W12
 .byte   Dn1
 .byte   N11 ,As1
 .byte   W12
 .byte   Cn1
 .byte   W12
 .byte   N11
 .byte   W12
 .byte   PEND 
@  #05 @128   ----------------------------------------
 .byte   PATT
  .word Label_010066AB
@  #05 @129   ----------------------------------------
 .byte   PATT
  .word Label_010066AB
@  #05 @130   ----------------------------------------
 .byte   PATT
  .word Label_010066AB
@  #05 @131   ----------------------------------------
 .byte   PATT
  .word Label_010066C7
@  #05 @132   ----------------------------------------
 .byte   PATT
  .word Label_010063C0
@  #05 @133   ----------------------------------------
 .byte   PATT
  .word Label_010063C0
@  #05 @134   ----------------------------------------
 .byte   N11 ,Cn1 ,v092
 .byte   N11 ,Gn2
 .byte   W96
@  #05 @135   ----------------------------------------
 .byte   W96
@  #05 @136   ----------------------------------------
 .byte   PATT
  .word Label_010063C0
@  #05 @137   ----------------------------------------
 .byte   PATT
  .word Label_010063C0
@  #05 @138   ----------------------------------------
Label_0100670F:
 .byte   N11 ,Dn1 ,v092
 .byte   N11 ,Gn2
 .byte   W12
 .byte   Dn1
 .byte   W12
 .byte   Cn1
 .byte   W12
 .byte   Dn1
 .byte   W12
 .byte   N11
 .byte   W12
 .byte   N11
 .byte   W12
 .byte   Cn1
 .byte   W12
 .byte   Dn1
 .byte   W12
 .byte   PEND 
@  #05 @139   ----------------------------------------
Label_01006724:
 .byte   N11 ,Cn1 ,v092
 .byte   N11 ,Dn1
 .byte   N11 ,Gn2
 .byte   W24
 .byte   Cn1
 .byte   W12
 .byte   N11
 .byte   N11 ,Dn1
 .byte   N11 ,As1
 .byte   W12
 .byte   Cn1
 .byte   W12
 .byte   N11
 .byte   N11 ,Dn1
 .byte   N11 ,As1
 .byte   W24
 .byte   Cn1
 .byte   N11 ,Dn1
 .byte   W12
 .byte   PEND 
@  #05 @140   ----------------------------------------
Label_01006741:
 .byte   N11 ,Cn1 ,v092
 .byte   N11 ,Dn1
 .byte   N11 ,As1
 .byte   W96
 .byte   PEND 
@  #05 @141   ----------------------------------------
 .byte   W96
@  #05 @142   ----------------------------------------
 .byte   W96
@  #05 @143   ----------------------------------------
 .byte   W96
@  #05 @144   ----------------------------------------
 .byte   W96
@  #05 @145   ----------------------------------------
 .byte   W96
@  #05 @146   ----------------------------------------
 .byte   Cn1
 .byte   N11 ,As1
 .byte   W96
@  #05 @147   ----------------------------------------
 .byte   W96
@  #05 @148   ----------------------------------------
 .byte   W96
@  #05 @149   ----------------------------------------
 .byte   W96
@  #05 @150   ----------------------------------------
 .byte   W96
@  #05 @151   ----------------------------------------
 .byte   W96
@  #05 @152   ----------------------------------------
Label_01006758:
 .byte   N11 ,Cn1 ,v092
 .byte   N11 ,As1
 .byte   W48
 .byte   As1 ,v076
 .byte   W48
 .byte   PEND 
@  #05 @153   ----------------------------------------
Label_01006762:
 .byte   N11 ,As1 ,v092
 .byte   W48
 .byte   As1 ,v076
 .byte   W48
 .byte   PEND 
@  #05 @154   ----------------------------------------
Label_0100676A:
 .byte   N11 ,Cn1 ,v092
 .byte   N11 ,As1
 .byte   W24
 .byte   As1 ,v076
 .byte   W24
 .byte   Cn1 ,v092
 .byte   N11 ,As1
 .byte   W24
 .byte   As1 ,v076
 .byte   W24
 .byte   PEND 
@  #05 @155   ----------------------------------------
Label_0100677C:
 .byte   N11 ,Cn1 ,v092
 .byte   N11 ,As1
 .byte   W24
 .byte   As1 ,v076
 .byte   W24
 .byte   Cn1 ,v092
 .byte   N11 ,As1
 .byte   W12
 .byte   Cn1
 .byte   W12
 .byte   Dn1
 .byte   W12
 .byte   Cn1
 .byte   W12
 .byte   PEND 
@  #05 @156   ----------------------------------------
 .byte   PATT
  .word Label_010062DE
@  #05 @157   ----------------------------------------
Label_01006796:
 .byte   N11 ,Cn1 ,v092
 .byte   N11 ,As1
 .byte   W12
 .byte   Cn1
 .byte   W12
 .byte   Dn1
 .byte   N11 ,As1 ,v076
 .byte   W12
 .byte   Cn1 ,v092
 .byte   W12
 .byte   N11
 .byte   N11 ,As1
 .byte   W12
 .byte   Cn1
 .byte   W12
 .byte   Dn1
 .byte   N11 ,As1 ,v076
 .byte   W12
 .byte   Cn1 ,v092
 .byte   W12
 .byte   PEND 
@  #05 @158   ----------------------------------------
 .byte   PATT
  .word Label_01006796
@  #05 @159   ----------------------------------------
 .byte   PATT
  .word Label_01006796
@  #05 @160   ----------------------------------------
 .byte   PATT
  .word Label_01006796
@  #05 @161   ----------------------------------------
 .byte   PATT
  .word Label_01006796
@  #05 @162   ----------------------------------------
 .byte   PATT
  .word Label_01006796
@  #05 @163   ----------------------------------------
 .byte   PATT
  .word Label_01006796
@  #05 @164   ----------------------------------------
Label_010067D3:
 .byte   N11 ,Cn1 ,v092
 .byte   N11 ,Cs2
 .byte   W12
 .byte   Cn1
 .byte   W12
 .byte   Dn1
 .byte   N11 ,As1 ,v076
 .byte   W12
 .byte   Cn1 ,v092
 .byte   W12
 .byte   N11
 .byte   N11 ,As1
 .byte   W12
 .byte   Cn1
 .byte   W12
 .byte   Dn1
 .byte   N11 ,As1 ,v076
 .byte   W12
 .byte   Cn1 ,v092
 .byte   W12
 .byte   PEND 
@  #05 @165   ----------------------------------------
 .byte   PATT
  .word Label_01006796
@  #05 @166   ----------------------------------------
 .byte   PATT
  .word Label_01006796
@  #05 @167   ----------------------------------------
 .byte   PATT
  .word Label_01006796
@  #05 @168   ----------------------------------------
Label_01006801:
 .byte   N11 ,Cn1 ,v092
 .byte   N11 ,Gn2
 .byte   W12
 .byte   Cn1
 .byte   W12
 .byte   Dn1
 .byte   N11 ,As1 ,v076
 .byte   W12
 .byte   Cn1 ,v092
 .byte   W12
 .byte   N11
 .byte   N11 ,As1
 .byte   W12
 .byte   Cn1
 .byte   W12
 .byte   Dn1
 .byte   N11 ,As1 ,v076
 .byte   W12
 .byte   Cn1 ,v092
 .byte   W12
 .byte   PEND 
@  #05 @169   ----------------------------------------
 .byte   PATT
  .word Label_01006796
@  #05 @170   ----------------------------------------
Label_01006825:
 .byte   N11 ,Cn1 ,v092
 .byte   N11 ,An2
 .byte   W12
 .byte   Cn1
 .byte   W12
 .byte   Dn1
 .byte   N11 ,As1 ,v076
 .byte   W12
 .byte   Cn1 ,v092
 .byte   W12
 .byte   N11
 .byte   N11 ,As1
 .byte   W12
 .byte   Cn1
 .byte   W12
 .byte   Dn1
 .byte   N11 ,As1 ,v076
 .byte   W12
 .byte   Cn1 ,v092
 .byte   W12
 .byte   PEND 
@  #05 @171   ----------------------------------------
 .byte   PATT
  .word Label_01006796
@  #05 @172   ----------------------------------------
 .byte   PATT
  .word Label_010062DE
@  #05 @173   ----------------------------------------
 .byte   PATT
  .word Label_010062FF
@  #05 @174   ----------------------------------------
 .byte   PATT
  .word Label_01006322
@  #05 @175   ----------------------------------------
 .byte   PATT
  .word Label_010062FF
@  #05 @176   ----------------------------------------
 .byte   PATT
  .word Label_01006348
@  #05 @177   ----------------------------------------
 .byte   PATT
  .word Label_010062FF
@  #05 @178   ----------------------------------------
 .byte   PATT
  .word Label_01006322
@  #05 @179   ----------------------------------------
 .byte   PATT
  .word Label_01006375
@  #05 @180   ----------------------------------------
 .byte   PATT
  .word Label_010062DE
@  #05 @181   ----------------------------------------
 .byte   PATT
  .word Label_010062FF
@  #05 @182   ----------------------------------------
 .byte   PATT
  .word Label_01006322
@  #05 @183   ----------------------------------------
 .byte   PATT
  .word Label_010062FF
@  #05 @184   ----------------------------------------
 .byte   PATT
  .word Label_01006348
@  #05 @185   ----------------------------------------
 .byte   PATT
  .word Label_010062FF
@  #05 @186   ----------------------------------------
 .byte   PATT
  .word Label_01006322
@  #05 @187   ----------------------------------------
 .byte   PATT
  .word Label_01006375
@  #05 @188   ----------------------------------------
 .byte   PATT
  .word Label_010063C0
@  #05 @189   ----------------------------------------
 .byte   PATT
  .word Label_010063C0
@  #05 @190   ----------------------------------------
 .byte   N11 ,Cn1 ,v092
 .byte   N11 ,Gn2
 .byte   W96
@  #05 @191   ----------------------------------------
 .byte   W96
@  #05 @192   ----------------------------------------
 .byte   PATT
  .word Label_010063E7
@  #05 @193   ----------------------------------------
 .byte   PATT
  .word Label_0100641A
@  #05 @194   ----------------------------------------
 .byte   PATT
  .word Label_01006441
@  #05 @195   ----------------------------------------
 .byte   PATT
  .word Label_0100645B
@  #05 @196   ----------------------------------------
 .byte   PATT
  .word Label_01006478
@  #05 @197   ----------------------------------------
 .byte   PATT
  .word Label_0100645B
@  #05 @198   ----------------------------------------
 .byte   PATT
  .word Label_01006497
@  #05 @199   ----------------------------------------
 .byte   PATT
  .word Label_0100645B
@  #05 @200   ----------------------------------------
 .byte   PATT
  .word Label_01006478
@  #05 @201   ----------------------------------------
 .byte   PATT
  .word Label_010064BB
@  #05 @202   ----------------------------------------
 .byte   PATT
  .word Label_01006441
@  #05 @203   ----------------------------------------
 .byte   PATT
  .word Label_0100645B
@  #05 @204   ----------------------------------------
 .byte   PATT
  .word Label_01006478
@  #05 @205   ----------------------------------------
 .byte   PATT
  .word Label_0100645B
@  #05 @206   ----------------------------------------
 .byte   PATT
  .word Label_01006497
@  #05 @207   ----------------------------------------
 .byte   PATT
  .word Label_0100645B
@  #05 @208   ----------------------------------------
 .byte   PATT
  .word Label_01006478
@  #05 @209   ----------------------------------------
 .byte   PATT
  .word Label_010064BB
@  #05 @210   ----------------------------------------
 .byte   PATT
  .word Label_01006504
@  #05 @211   ----------------------------------------
 .byte   PATT
  .word Label_01006523
@  #05 @212   ----------------------------------------
 .byte   PATT
  .word Label_01006504
@  #05 @213   ----------------------------------------
 .byte   PATT
  .word Label_01006523
@  #05 @214   ----------------------------------------
 .byte   PATT
  .word Label_01006504
@  #05 @215   ----------------------------------------
 .byte   PATT
  .word Label_01006523
@  #05 @216   ----------------------------------------
 .byte   PATT
  .word Label_01006504
@  #05 @217   ----------------------------------------
 .byte   PATT
  .word Label_0100655B
@  #05 @218   ----------------------------------------
 .byte   PATT
  .word Label_01006504
@  #05 @219   ----------------------------------------
 .byte   PATT
  .word Label_01006523
@  #05 @220   ----------------------------------------
 .byte   PATT
  .word Label_01006504
@  #05 @221   ----------------------------------------
 .byte   PATT
  .word Label_01006523
@  #05 @222   ----------------------------------------
 .byte   PATT
  .word Label_01006504
@  #05 @223   ----------------------------------------
 .byte   PATT
  .word Label_01006523
@  #05 @224   ----------------------------------------
 .byte   PATT
  .word Label_01006504
@  #05 @225   ----------------------------------------
 .byte   PATT
  .word Label_010065A3
@  #05 @226   ----------------------------------------
 .byte   PATT
  .word Label_01006441
@  #05 @227   ----------------------------------------
 .byte   PATT
  .word Label_0100645B
@  #05 @228   ----------------------------------------
 .byte   PATT
  .word Label_01006478
@  #05 @229   ----------------------------------------
 .byte   PATT
  .word Label_0100645B
@  #05 @230   ----------------------------------------
 .byte   PATT
  .word Label_01006497
@  #05 @231   ----------------------------------------
 .byte   PATT
  .word Label_0100645B
@  #05 @232   ----------------------------------------
 .byte   PATT
  .word Label_01006478
@  #05 @233   ----------------------------------------
 .byte   PATT
  .word Label_010064BB
@  #05 @234   ----------------------------------------
 .byte   PATT
  .word Label_01006441
@  #05 @235   ----------------------------------------
 .byte   PATT
  .word Label_0100645B
@  #05 @236   ----------------------------------------
 .byte   PATT
  .word Label_01006478
@  #05 @237   ----------------------------------------
 .byte   PATT
  .word Label_0100645B
@  #05 @238   ----------------------------------------
 .byte   PATT
  .word Label_01006497
@  #05 @239   ----------------------------------------
 .byte   PATT
  .word Label_0100645B
@  #05 @240   ----------------------------------------
 .byte   PATT
  .word Label_01006478
@  #05 @241   ----------------------------------------
 .byte   PATT
  .word Label_010064BB
@  #05 @242   ----------------------------------------
 .byte   PATT
  .word Label_01006504
@  #05 @243   ----------------------------------------
 .byte   PATT
  .word Label_01006523
@  #05 @244   ----------------------------------------
 .byte   PATT
  .word Label_01006504
@  #05 @245   ----------------------------------------
 .byte   PATT
  .word Label_01006523
@  #05 @246   ----------------------------------------
 .byte   PATT
  .word Label_01006504
@  #05 @247   ----------------------------------------
 .byte   PATT
  .word Label_01006523
@  #05 @248   ----------------------------------------
 .byte   PATT
  .word Label_01006504
@  #05 @249   ----------------------------------------
 .byte   PATT
  .word Label_0100655B
@  #05 @250   ----------------------------------------
 .byte   PATT
  .word Label_01006504
@  #05 @251   ----------------------------------------
 .byte   PATT
  .word Label_01006523
@  #05 @252   ----------------------------------------
 .byte   PATT
  .word Label_01006504
@  #05 @253   ----------------------------------------
 .byte   PATT
  .word Label_01006523
@  #05 @254   ----------------------------------------
 .byte   PATT
  .word Label_01006504
@  #05 @255   ----------------------------------------
 .byte   PATT
  .word Label_01006523
@  #05 @256   ----------------------------------------
 .byte   PATT
  .word Label_01006504
@  #05 @257   ----------------------------------------
 .byte   PATT
  .word Label_010065A3
@  #05 @258   ----------------------------------------
 .byte   N11 ,Cn1 ,v092
 .byte   N11 ,Fs1
 .byte   W96
@  #05 @259   ----------------------------------------
 .byte   Cn1
 .byte   W96
@  #05 @260   ----------------------------------------
 .byte   N11
 .byte   W96
@  #05 @261   ----------------------------------------
 .byte   PATT
  .word Label_0100666C
@  #05 @262   ----------------------------------------
 .byte   N11 ,Cn1 ,v092
 .byte   N11 ,Ds2
 .byte   W96
@  #05 @263   ----------------------------------------
 .byte   Cn1
 .byte   W96
@  #05 @264   ----------------------------------------
 .byte   N11
 .byte   W96
@  #05 @265   ----------------------------------------
 .byte   PATT
  .word Label_0100667F
@  #05 @266   ----------------------------------------
 .byte   PATT
  .word Label_01006690
@  #05 @267   ----------------------------------------
 .byte   PATT
  .word Label_010066AB
@  #05 @268   ----------------------------------------
 .byte   PATT
  .word Label_010066AB
@  #05 @269   ----------------------------------------
 .byte   PATT
  .word Label_010066C7
@  #05 @270   ----------------------------------------
 .byte   PATT
  .word Label_010066AB
@  #05 @271   ----------------------------------------
 .byte   PATT
  .word Label_010066AB
@  #05 @272   ----------------------------------------
 .byte   PATT
  .word Label_010066AB
@  #05 @273   ----------------------------------------
 .byte   PATT
  .word Label_010066C7
@  #05 @274   ----------------------------------------
 .byte   PATT
  .word Label_010063C0
@  #05 @275   ----------------------------------------
 .byte   PATT
  .word Label_010063C0
@  #05 @276   ----------------------------------------
 .byte   N11 ,Cn1 ,v092
 .byte   N11 ,Gn2
 .byte   W96
@  #05 @277   ----------------------------------------
 .byte   W96
@  #05 @278   ----------------------------------------
 .byte   PATT
  .word Label_010063C0
@  #05 @279   ----------------------------------------
 .byte   PATT
  .word Label_010063C0
@  #05 @280   ----------------------------------------
 .byte   PATT
  .word Label_0100670F
@  #05 @281   ----------------------------------------
 .byte   PATT
  .word Label_01006724
@  #05 @282   ----------------------------------------
 .byte   PATT
  .word Label_01006741
@  #05 @283   ----------------------------------------
 .byte   W96
@  #05 @284   ----------------------------------------
 .byte   W96
@  #05 @285   ----------------------------------------
 .byte   W96
@  #05 @286   ----------------------------------------
 .byte   W96
@  #05 @287   ----------------------------------------
 .byte   W96
@  #05 @288   ----------------------------------------
 .byte   N11 ,Cn1 ,v092
 .byte   N11 ,As1
 .byte   W96
@  #05 @289   ----------------------------------------
 .byte   W96
@  #05 @290   ----------------------------------------
 .byte   W96
@  #05 @291   ----------------------------------------
 .byte   W96
@  #05 @292   ----------------------------------------
 .byte   W96
@  #05 @293   ----------------------------------------
 .byte   W96
@  #05 @294   ----------------------------------------
 .byte   PATT
  .word Label_01006758
@  #05 @295   ----------------------------------------
 .byte   PATT
  .word Label_01006762
@  #05 @296   ----------------------------------------
 .byte   PATT
  .word Label_0100676A
@  #05 @297   ----------------------------------------
 .byte   PATT
  .word Label_0100677C
@  #05 @298   ----------------------------------------
 .byte   PATT
  .word Label_010062DE
@  #05 @299   ----------------------------------------
 .byte   PATT
  .word Label_01006796
@  #05 @300   ----------------------------------------
 .byte   PATT
  .word Label_01006796
@  #05 @301   ----------------------------------------
 .byte   PATT
  .word Label_01006796
@  #05 @302   ----------------------------------------
 .byte   PATT
  .word Label_01006796
@  #05 @303   ----------------------------------------
 .byte   PATT
  .word Label_01006796
@  #05 @304   ----------------------------------------
 .byte   PATT
  .word Label_01006796
@  #05 @305   ----------------------------------------
 .byte   PATT
  .word Label_01006796
@  #05 @306   ----------------------------------------
 .byte   PATT
  .word Label_010067D3
@  #05 @307   ----------------------------------------
 .byte   PATT
  .word Label_01006796
@  #05 @308   ----------------------------------------
 .byte   PATT
  .word Label_01006796
@  #05 @309   ----------------------------------------
 .byte   PATT
  .word Label_01006796
@  #05 @310   ----------------------------------------
 .byte   PATT
  .word Label_01006801
@  #05 @311   ----------------------------------------
 .byte   PATT
  .word Label_01006796
@  #05 @312   ----------------------------------------
 .byte   PATT
  .word Label_01006825
@  #05 @313   ----------------------------------------
 .byte   PATT
  .word Label_01006796
@  #05 @314   ----------------------------------------
 .byte   PATT
  .word Label_010062DE
@  #05 @315   ----------------------------------------
 .byte   PATT
  .word Label_01006796
@  #05 @316   ----------------------------------------
 .byte   PATT
  .word Label_01006796
@  #05 @317   ----------------------------------------
 .byte   PATT
  .word Label_01006796
@  #05 @318   ----------------------------------------
 .byte   PATT
  .word Label_01006796
@  #05 @319   ----------------------------------------
 .byte   PATT
  .word Label_01006796
@  #05 @320   ----------------------------------------
 .byte   PATT
  .word Label_01006796
@  #05 @321   ----------------------------------------
 .byte   PATT
  .word Label_01006796
@  #05 @322   ----------------------------------------
 .byte   PATT
  .word Label_010067D3
@  #05 @323   ----------------------------------------
 .byte   PATT
  .word Label_01006796
@  #05 @324   ----------------------------------------
 .byte   PATT
  .word Label_01006796
@  #05 @325   ----------------------------------------
 .byte   PATT
  .word Label_01006796
@  #05 @326   ----------------------------------------
 .byte   PATT
  .word Label_01006801
@  #05 @327   ----------------------------------------
 .byte   PATT
  .word Label_01006796
@  #05 @328   ----------------------------------------
 .byte   PATT
  .word Label_01006825
@  #05 @329   ----------------------------------------
 .byte   PATT
  .word Label_01006796
@  #05 @330   ----------------------------------------
 .byte   GOTO
  .word Label_01006298
@  #05 @331   ----------------------------------------
Label_01006B2D:
 .byte   N11 ,Cn1 ,v092
 .byte   W24
 .byte   Dn1
 .byte   N11 ,As1
 .byte   W24
 .byte   Cn1
 .byte   W24
 .byte   Dn1
 .byte   N11 ,As1
 .byte   W24
 .byte   PEND 
@  #05 @332   ----------------------------------------
Label_01006B3C:
 .byte   N11 ,Cn1 ,v092
 .byte   W24
 .byte   Dn1
 .byte   N11 ,As1
 .byte   W24
 .byte   Cn1
 .byte   W24
 .byte   Dn1
 .byte   N11 ,As1
 .byte   W12
 .byte   Cn1
 .byte   W12
 .byte   PEND 
@  #05 @333   ----------------------------------------
 .byte   PATT
  .word Label_01006B2D
@  #05 @334   ----------------------------------------
 .byte   PATT
  .word Label_01006B3C
@  #05 @335   ----------------------------------------
 .byte   PATT
  .word Label_01006B2D
@  #05 @336   ----------------------------------------
 .byte   PATT
  .word Label_01006B3C
@  #05 @337   ----------------------------------------
 .byte   PATT
  .word Label_01006B2D
@  #05 @338   ----------------------------------------
 .byte   PATT
  .word Label_01006B3C
@  #05 @339   ----------------------------------------
 .byte   PATT
  .word Label_01006B2D
@  #05 @340   ----------------------------------------
 .byte   PATT
  .word Label_01006B3C
@  #05 @341   ----------------------------------------
 .byte   PATT
  .word Label_01006B2D
@  #05 @342   ----------------------------------------
 .byte   PATT
  .word Label_01006B3C
@  #05 @343   ----------------------------------------
 .byte   PATT
  .word Label_01006B2D
@  #05 @344   ----------------------------------------
 .byte   PATT
  .word Label_01006B3C
@  #05 @345   ----------------------------------------
 .byte   W01
 .byte   N11 ,Cn1 ,v092
 .byte   W24
 .byte   Dn1
 .byte   N11 ,As1
 .byte   W24
 .byte   Cn1
 .byte   W24
 .byte   Dn1
 .byte   N11 ,As1
 .byte   W23
@  #05 @346   ----------------------------------------
 .byte   W01
 .byte   Cn1
 .byte   W24
 .byte   Dn1
 .byte   N11 ,As1
 .byte   W24
 .byte   Cn1
 .byte   W24
 .byte   Dn1
 .byte   N11 ,As1
 .byte   W12
 .byte   Cn1
 .byte   W11
@  #05 @347   ----------------------------------------
 .byte   PATT
  .word Label_010063C0
@  #05 @348   ----------------------------------------
 .byte   PATT
  .word Label_010063C0
 .byte   FINE

@**************** Track 6 (Midi-Chn.5) ****************@

song04_006:
@  #06 @000   ----------------------------------------
 .byte   KEYSH , song04_key+0
 .byte   VOICE , 36
 .byte   PAN , c_v+0
 .byte   VOL , 50*song04_mvl/mxv
 .byte   W96
@  #06 @001   ----------------------------------------
 .byte   W96
@  #06 @002   ----------------------------------------
 .byte   W96
@  #06 @003   ----------------------------------------
 .byte   W96
@  #06 @004   ----------------------------------------
 .byte   W96
@  #06 @005   ----------------------------------------
 .byte   W96
@  #06 @006   ----------------------------------------
 .byte   W96
@  #06 @007   ----------------------------------------
 .byte   W96
@  #06 @008   ----------------------------------------
 .byte   W96
@  #06 @009   ----------------------------------------
 .byte   W96
@  #06 @010   ----------------------------------------
 .byte   N23 ,En1 ,v092
 .byte   W96
@  #06 @011   ----------------------------------------
 .byte   W96
@  #06 @012   ----------------------------------------
 .byte   TIE ,Fn0
 .byte   W96
@  #06 @013   ----------------------------------------
 .byte   W92
 .byte   W03
 .byte   EOT
 .byte   W01
@  #06 @014   ----------------------------------------
 .byte   N23 ,En1
 .byte   W96
@  #06 @015   ----------------------------------------
 .byte   W96
@  #06 @016   ----------------------------------------
 .byte   TIE ,Cn1
 .byte   W96
@  #06 @017   ----------------------------------------
 .byte   W92
 .byte   W03
 .byte   EOT
 .byte   W01
@  #06 @018   ----------------------------------------
 .byte   N23 ,En1
 .byte   W96
@  #06 @019   ----------------------------------------
 .byte   W96
@  #06 @020   ----------------------------------------
 .byte   TIE ,Fn0
 .byte   W96
@  #06 @021   ----------------------------------------
 .byte   W92
 .byte   W03
 .byte   EOT
 .byte   W01
@  #06 @022   ----------------------------------------
Label_01006BF8:
 .byte   W96
@  #06 @023   ----------------------------------------
 .byte   W96
@  #06 @024   ----------------------------------------
 .byte   W96
@  #06 @025   ----------------------------------------
 .byte   N23 ,En0 ,v092
 .byte   W24
 .byte   N11 ,Fn0
 .byte   W12
 .byte   N11
 .byte   W12
 .byte   Gn0
 .byte   W12
 .byte   N11
 .byte   W12
 .byte   An0
 .byte   W12
 .byte   N11
 .byte   W12
@  #06 @026   ----------------------------------------
 .byte   N23 ,Bn0
 .byte   W96
@  #06 @027   ----------------------------------------
 .byte   W96
@  #06 @028   ----------------------------------------
 .byte   W96
@  #06 @029   ----------------------------------------
 .byte   N11 ,En0
 .byte   W24
 .byte   Fn0
 .byte   W12
 .byte   N11
 .byte   W12
 .byte   Gn0
 .byte   W12
 .byte   N11
 .byte   W12
 .byte   An0
 .byte   W12
 .byte   N11
 .byte   W12
@  #06 @030   ----------------------------------------
Label_01006C20:
 .byte   N05 ,En0 ,v092
 .byte   W12
 .byte   N05
 .byte   W12
 .byte   N05
 .byte   W12
 .byte   N05
 .byte   W12
 .byte   N05
 .byte   W12
 .byte   N05
 .byte   W12
 .byte   N05
 .byte   W12
 .byte   N05
 .byte   W12
 .byte   PEND 
@  #06 @031   ----------------------------------------
 .byte   PATT
  .word Label_01006C20
@  #06 @032   ----------------------------------------
 .byte   PATT
  .word Label_01006C20
@  #06 @033   ----------------------------------------
 .byte   PATT
  .word Label_01006C20
@  #06 @034   ----------------------------------------
 .byte   PATT
  .word Label_01006C20
@  #06 @035   ----------------------------------------
 .byte   PATT
  .word Label_01006C20
@  #06 @036   ----------------------------------------
 .byte   PATT
  .word Label_01006C20
@  #06 @037   ----------------------------------------
Label_01006C51:
 .byte   N05 ,En0 ,v092
 .byte   W12
 .byte   N05
 .byte   W12
 .byte   Fn0
 .byte   W12
 .byte   N05
 .byte   W12
 .byte   Gn0
 .byte   W12
 .byte   N05
 .byte   W12
 .byte   En0
 .byte   W12
 .byte   N05
 .byte   W12
 .byte   PEND 
@  #06 @038   ----------------------------------------
 .byte   PATT
  .word Label_01006C20
@  #06 @039   ----------------------------------------
 .byte   PATT
  .word Label_01006C20
@  #06 @040   ----------------------------------------
 .byte   PATT
  .word Label_01006C20
@  #06 @041   ----------------------------------------
 .byte   PATT
  .word Label_01006C20
@  #06 @042   ----------------------------------------
 .byte   PATT
  .word Label_01006C20
@  #06 @043   ----------------------------------------
 .byte   PATT
  .word Label_01006C20
@  #06 @044   ----------------------------------------
 .byte   PATT
  .word Label_01006C20
@  #06 @045   ----------------------------------------
Label_01006C87:
 .byte   N05 ,En0 ,v092
 .byte   W12
 .byte   N05
 .byte   W12
 .byte   Fn0
 .byte   W12
 .byte   N05
 .byte   W12
 .byte   Gn0
 .byte   W12
 .byte   N05
 .byte   W12
 .byte   An0
 .byte   W12
 .byte   N05
 .byte   W12
 .byte   PEND 
@  #06 @046   ----------------------------------------
Label_01006C9A:
 .byte   N23 ,En0 ,v092
 .byte   W24
 .byte   N11
 .byte   W12
 .byte   N23
 .byte   W24
 .byte   N23
 .byte   W24
 .byte   N11
 .byte   W12
 .byte   PEND 
@  #06 @047   ----------------------------------------
 .byte   PATT
  .word Label_01006C9A
@  #06 @048   ----------------------------------------
 .byte   W96
@  #06 @049   ----------------------------------------
 .byte   W96
@  #06 @050   ----------------------------------------
Label_01006CAE:
 .byte   N32 ,En1 ,v092
 .byte   W36
 .byte   As0
 .byte   W36
 .byte   N23 ,En0
 .byte   W24
 .byte   PEND 
@  #06 @051   ----------------------------------------
Label_01006CB8:
 .byte   N32 ,Bn0 ,v092
 .byte   W36
 .byte   As0
 .byte   W36
 .byte   N23 ,An0
 .byte   W24
 .byte   PEND 
@  #06 @052   ----------------------------------------
Label_01006CC2:
 .byte   N23 ,En0 ,v092
 .byte   W24
 .byte   N23
 .byte   W24
 .byte   N23
 .byte   W24
 .byte   N23
 .byte   W24
 .byte   PEND 
@  #06 @053   ----------------------------------------
 .byte   PATT
  .word Label_01006CC2
@  #06 @054   ----------------------------------------
Label_01006CD2:
 .byte   N23 ,Fn0 ,v092
 .byte   W24
 .byte   N23
 .byte   W24
 .byte   N23
 .byte   W24
 .byte   N23
 .byte   W24
 .byte   PEND 
@  #06 @055   ----------------------------------------
 .byte   PATT
  .word Label_01006CD2
@  #06 @056   ----------------------------------------
Label_01006CE2:
 .byte   N23 ,Fs0 ,v092
 .byte   W24
 .byte   N23
 .byte   W24
 .byte   N23
 .byte   W24
 .byte   N23
 .byte   W24
 .byte   PEND 
@  #06 @057   ----------------------------------------
 .byte   PATT
  .word Label_01006CE2
@  #06 @058   ----------------------------------------
 .byte   PATT
  .word Label_01006CD2
@  #06 @059   ----------------------------------------
Label_01006CF7:
 .byte   N32 ,Dn0 ,v092
 .byte   W36
 .byte   N32
 .byte   W36
 .byte   N23
 .byte   W24
 .byte   PEND 
@  #06 @060   ----------------------------------------
 .byte   PATT
  .word Label_01006CC2
@  #06 @061   ----------------------------------------
 .byte   PATT
  .word Label_01006CC2
@  #06 @062   ----------------------------------------
 .byte   PATT
  .word Label_01006CD2
@  #06 @063   ----------------------------------------
 .byte   PATT
  .word Label_01006CD2
@  #06 @064   ----------------------------------------
 .byte   PATT
  .word Label_01006CE2
@  #06 @065   ----------------------------------------
 .byte   PATT
  .word Label_01006CE2
@  #06 @066   ----------------------------------------
 .byte   PATT
  .word Label_01006CD2
@  #06 @067   ----------------------------------------
 .byte   PATT
  .word Label_01006CD2
@  #06 @068   ----------------------------------------
 .byte   TIE ,An1 ,v092
 .byte   W96
@  #06 @069   ----------------------------------------
 .byte   W92
 .byte   W03
 .byte   EOT
 .byte   W01
@  #06 @070   ----------------------------------------
 .byte   TIE ,Gn1
 .byte   W96
@  #06 @071   ----------------------------------------
 .byte   W92
 .byte   W03
 .byte   EOT
 .byte   W01
@  #06 @072   ----------------------------------------
 .byte   TIE ,Fs1
 .byte   W96
@  #06 @073   ----------------------------------------
 .byte   W92
 .byte   W03
 .byte   EOT
 .byte   W01
@  #06 @074   ----------------------------------------
 .byte   N92 ,Fn1
 .byte   W96
@  #06 @075   ----------------------------------------
Label_01006D41:
 .byte   N32 ,Bn0 ,v092
 .byte   W36
 .byte   Gn0
 .byte   W36
 .byte   N23 ,Fn0
 .byte   W24
 .byte   PEND 
@  #06 @076   ----------------------------------------
 .byte   TIE ,An1
 .byte   W96
@  #06 @077   ----------------------------------------
 .byte   W92
 .byte   W03
 .byte   EOT
 .byte   W01
@  #06 @078   ----------------------------------------
 .byte   TIE ,Gn1
 .byte   W96
@  #06 @079   ----------------------------------------
 .byte   W92
 .byte   W03
 .byte   EOT
 .byte   W01
@  #06 @080   ----------------------------------------
 .byte   TIE ,Fs1
 .byte   W96
@  #06 @081   ----------------------------------------
 .byte   W92
 .byte   W03
 .byte   EOT
 .byte   W01
@  #06 @082   ----------------------------------------
 .byte   TIE ,Fn1
 .byte   W96
@  #06 @083   ----------------------------------------
 .byte   W92
 .byte   W03
 .byte   EOT
 .byte   W01
@  #06 @084   ----------------------------------------
 .byte   PATT
  .word Label_01006CC2
@  #06 @085   ----------------------------------------
 .byte   PATT
  .word Label_01006CC2
@  #06 @086   ----------------------------------------
 .byte   PATT
  .word Label_01006CD2
@  #06 @087   ----------------------------------------
 .byte   PATT
  .word Label_01006CD2
@  #06 @088   ----------------------------------------
 .byte   PATT
  .word Label_01006CE2
@  #06 @089   ----------------------------------------
 .byte   PATT
  .word Label_01006CE2
@  #06 @090   ----------------------------------------
 .byte   PATT
  .word Label_01006CD2
@  #06 @091   ----------------------------------------
 .byte   PATT
  .word Label_01006CF7
@  #06 @092   ----------------------------------------
 .byte   PATT
  .word Label_01006CC2
@  #06 @093   ----------------------------------------
 .byte   PATT
  .word Label_01006CC2
@  #06 @094   ----------------------------------------
 .byte   PATT
  .word Label_01006CD2
@  #06 @095   ----------------------------------------
 .byte   PATT
  .word Label_01006CD2
@  #06 @096   ----------------------------------------
 .byte   PATT
  .word Label_01006CE2
@  #06 @097   ----------------------------------------
 .byte   PATT
  .word Label_01006CE2
@  #06 @098   ----------------------------------------
 .byte   PATT
  .word Label_01006CD2
@  #06 @099   ----------------------------------------
 .byte   PATT
  .word Label_01006CD2
@  #06 @100   ----------------------------------------
 .byte   TIE ,An1 ,v092
 .byte   W96
@  #06 @101   ----------------------------------------
 .byte   W92
 .byte   W03
 .byte   EOT
 .byte   W01
@  #06 @102   ----------------------------------------
 .byte   TIE ,Gn1
 .byte   W96
@  #06 @103   ----------------------------------------
 .byte   W92
 .byte   W03
 .byte   EOT
 .byte   W01
@  #06 @104   ----------------------------------------
 .byte   TIE ,Fs1
 .byte   W96
@  #06 @105   ----------------------------------------
 .byte   W92
 .byte   W03
 .byte   EOT
 .byte   W01
@  #06 @106   ----------------------------------------
 .byte   N92 ,Fn1
 .byte   W96
@  #06 @107   ----------------------------------------
 .byte   PATT
  .word Label_01006D41
@  #06 @108   ----------------------------------------
 .byte   TIE ,An1 ,v092
 .byte   W96
@  #06 @109   ----------------------------------------
 .byte   W92
 .byte   W03
 .byte   EOT
 .byte   W01
@  #06 @110   ----------------------------------------
 .byte   TIE ,Gn1
 .byte   W96
@  #06 @111   ----------------------------------------
 .byte   W92
 .byte   W03
 .byte   EOT
 .byte   W01
@  #06 @112   ----------------------------------------
 .byte   TIE ,Fs1
 .byte   W96
@  #06 @113   ----------------------------------------
 .byte   W92
 .byte   W03
 .byte   EOT
 .byte   W01
@  #06 @114   ----------------------------------------
 .byte   TIE ,Fn1
 .byte   W96
@  #06 @115   ----------------------------------------
 .byte   W92
 .byte   W03
 .byte   EOT
 .byte   W01
@  #06 @116   ----------------------------------------
 .byte   TIE ,En0
 .byte   W96
@  #06 @117   ----------------------------------------
 .byte   W92
 .byte   W03
 .byte   EOT
 .byte   W01
@  #06 @118   ----------------------------------------
 .byte   TIE ,Fn0
 .byte   W96
@  #06 @119   ----------------------------------------
 .byte   W92
 .byte   W03
 .byte   EOT
 .byte   W01
@  #06 @120   ----------------------------------------
 .byte   TIE ,Gn0
 .byte   W96
@  #06 @121   ----------------------------------------
 .byte   W92
 .byte   W03
 .byte   EOT
 .byte   W01
@  #06 @122   ----------------------------------------
 .byte   TIE ,Fn0
 .byte   W96
@  #06 @123   ----------------------------------------
 .byte   W92
 .byte   W03
 .byte   EOT
 .byte   W01
@  #06 @124   ----------------------------------------
 .byte   PATT
  .word Label_01006CC2
@  #06 @125   ----------------------------------------
 .byte   PATT
  .word Label_01006CC2
@  #06 @126   ----------------------------------------
 .byte   PATT
  .word Label_01006CD2
@  #06 @127   ----------------------------------------
 .byte   PATT
  .word Label_01006CD2
@  #06 @128   ----------------------------------------
Label_01006E22:
 .byte   N23 ,Gn0 ,v092
 .byte   W24
 .byte   N23
 .byte   W24
 .byte   N23
 .byte   W24
 .byte   N23
 .byte   W24
 .byte   PEND 
@  #06 @129   ----------------------------------------
 .byte   PATT
  .word Label_01006E22
@  #06 @130   ----------------------------------------
 .byte   PATT
  .word Label_01006CD2
@  #06 @131   ----------------------------------------
 .byte   PATT
  .word Label_01006CD2
@  #06 @132   ----------------------------------------
 .byte   PATT
  .word Label_01006C9A
@  #06 @133   ----------------------------------------
 .byte   PATT
  .word Label_01006C9A
@  #06 @134   ----------------------------------------
 .byte   W96
@  #06 @135   ----------------------------------------
 .byte   W96
@  #06 @136   ----------------------------------------
 .byte   PATT
  .word Label_01006C9A
@  #06 @137   ----------------------------------------
 .byte   PATT
  .word Label_01006C9A
@  #06 @138   ----------------------------------------
 .byte   W96
@  #06 @139   ----------------------------------------
 .byte   W96
@  #06 @140   ----------------------------------------
 .byte   N92 ,En1 ,v092
 .byte   W96
@  #06 @141   ----------------------------------------
 .byte   Cn1
 .byte   W96
@  #06 @142   ----------------------------------------
 .byte   Dn1
 .byte   W96
@  #06 @143   ----------------------------------------
 .byte   Gn0
 .byte   W96
@  #06 @144   ----------------------------------------
 .byte   Cn1
 .byte   W96
@  #06 @145   ----------------------------------------
 .byte   Ds1
 .byte   W96
@  #06 @146   ----------------------------------------
 .byte   TIE ,En1
 .byte   W96
@  #06 @147   ----------------------------------------
 .byte   W92
 .byte   W03
 .byte   EOT
 .byte   W01
@  #06 @148   ----------------------------------------
Label_01006E69:
 .byte   N11 ,Bn0 ,v092
 .byte   W12
 .byte   N11
 .byte   W12
 .byte   N11
 .byte   W12
 .byte   N11
 .byte   W12
 .byte   N11
 .byte   W12
 .byte   N11
 .byte   W12
 .byte   N11
 .byte   W12
 .byte   N11
 .byte   W12
 .byte   PEND 
@  #06 @149   ----------------------------------------
 .byte   PATT
  .word Label_01006E69
@  #06 @150   ----------------------------------------
 .byte   PATT
  .word Label_01006E69
@  #06 @151   ----------------------------------------
 .byte   PATT
  .word Label_01006E69
@  #06 @152   ----------------------------------------
Label_01006E8B:
 .byte   N11 ,Cn1 ,v092
 .byte   W12
 .byte   N11
 .byte   W12
 .byte   N11
 .byte   W12
 .byte   N11
 .byte   W12
 .byte   N11
 .byte   W12
 .byte   N11
 .byte   W12
 .byte   N11
 .byte   W12
 .byte   N11
 .byte   W12
 .byte   PEND 
@  #06 @153   ----------------------------------------
Label_01006E9E:
 .byte   N11 ,Ds1 ,v092
 .byte   W12
 .byte   N11
 .byte   W12
 .byte   N11
 .byte   W12
 .byte   N11
 .byte   W12
 .byte   N11
 .byte   W12
 .byte   N11
 .byte   W12
 .byte   N11
 .byte   W12
 .byte   N11
 .byte   W12
 .byte   PEND 
@  #06 @154   ----------------------------------------
Label_01006EB1:
 .byte   N11 ,En1 ,v092
 .byte   W12
 .byte   N11
 .byte   W12
 .byte   N11
 .byte   W12
 .byte   N11
 .byte   W12
 .byte   N11
 .byte   W12
 .byte   N11
 .byte   W12
 .byte   N11
 .byte   W12
 .byte   N11
 .byte   W12
 .byte   PEND 
@  #06 @155   ----------------------------------------
Label_01006EC4:
 .byte   N11 ,Fs1 ,v092
 .byte   W12
 .byte   N11
 .byte   W12
 .byte   N11
 .byte   W12
 .byte   N11
 .byte   W12
 .byte   N11
 .byte   W12
 .byte   N11
 .byte   W12
 .byte   N11
 .byte   W12
 .byte   N11
 .byte   W12
 .byte   PEND 
@  #06 @156   ----------------------------------------
 .byte   PATT
  .word Label_01006EB1
@  #06 @157   ----------------------------------------
 .byte   PATT
  .word Label_01006E8B
@  #06 @158   ----------------------------------------
Label_01006EE1:
 .byte   N11 ,Dn1 ,v092
 .byte   W12
 .byte   N11
 .byte   W12
 .byte   N11
 .byte   W12
 .byte   N11
 .byte   W12
 .byte   N11
 .byte   W12
 .byte   N11
 .byte   W12
 .byte   N11
 .byte   W12
 .byte   N11
 .byte   W12
 .byte   PEND 
@  #06 @159   ----------------------------------------
Label_01006EF4:
 .byte   N11 ,Gn0 ,v092
 .byte   W12
 .byte   N11
 .byte   W12
 .byte   N11
 .byte   W12
 .byte   N11
 .byte   W12
 .byte   N11
 .byte   W12
 .byte   N11
 .byte   W12
 .byte   N11
 .byte   W12
 .byte   N11
 .byte   W12
 .byte   PEND 
@  #06 @160   ----------------------------------------
 .byte   PATT
  .word Label_01006E8B
@  #06 @161   ----------------------------------------
 .byte   PATT
  .word Label_01006E9E
@  #06 @162   ----------------------------------------
 .byte   PATT
  .word Label_01006EB1
@  #06 @163   ----------------------------------------
 .byte   PATT
  .word Label_01006EB1
@  #06 @164   ----------------------------------------
 .byte   PATT
  .word Label_01006E69
@  #06 @165   ----------------------------------------
 .byte   PATT
  .word Label_01006E69
@  #06 @166   ----------------------------------------
 .byte   PATT
  .word Label_01006E69
@  #06 @167   ----------------------------------------
 .byte   PATT
  .word Label_01006E8B
@  #06 @168   ----------------------------------------
 .byte   PATT
  .word Label_01006EE1
@  #06 @169   ----------------------------------------
 .byte   PATT
  .word Label_01006E9E
@  #06 @170   ----------------------------------------
 .byte   PATT
  .word Label_01006EB1
@  #06 @171   ----------------------------------------
 .byte   PATT
  .word Label_01006EB1
@  #06 @172   ----------------------------------------
 .byte   PATT
  .word Label_01006C20
@  #06 @173   ----------------------------------------
 .byte   PATT
  .word Label_01006C20
@  #06 @174   ----------------------------------------
 .byte   PATT
  .word Label_01006C20
@  #06 @175   ----------------------------------------
 .byte   PATT
  .word Label_01006C20
@  #06 @176   ----------------------------------------
 .byte   PATT
  .word Label_01006C20
@  #06 @177   ----------------------------------------
 .byte   PATT
  .word Label_01006C20
@  #06 @178   ----------------------------------------
 .byte   PATT
  .word Label_01006C20
@  #06 @179   ----------------------------------------
 .byte   PATT
  .word Label_01006C51
@  #06 @180   ----------------------------------------
 .byte   PATT
  .word Label_01006C20
@  #06 @181   ----------------------------------------
 .byte   PATT
  .word Label_01006C20
@  #06 @182   ----------------------------------------
 .byte   PATT
  .word Label_01006C20
@  #06 @183   ----------------------------------------
 .byte   PATT
  .word Label_01006C20
@  #06 @184   ----------------------------------------
 .byte   PATT
  .word Label_01006C20
@  #06 @185   ----------------------------------------
 .byte   PATT
  .word Label_01006C20
@  #06 @186   ----------------------------------------
 .byte   PATT
  .word Label_01006C20
@  #06 @187   ----------------------------------------
 .byte   PATT
  .word Label_01006C87
@  #06 @188   ----------------------------------------
 .byte   PATT
  .word Label_01006C9A
@  #06 @189   ----------------------------------------
 .byte   PATT
  .word Label_01006C9A
@  #06 @190   ----------------------------------------
 .byte   W96
@  #06 @191   ----------------------------------------
 .byte   W96
@  #06 @192   ----------------------------------------
 .byte   PATT
  .word Label_01006CAE
@  #06 @193   ----------------------------------------
 .byte   PATT
  .word Label_01006CB8
@  #06 @194   ----------------------------------------
 .byte   PATT
  .word Label_01006CC2
@  #06 @195   ----------------------------------------
 .byte   PATT
  .word Label_01006CC2
@  #06 @196   ----------------------------------------
 .byte   PATT
  .word Label_01006CD2
@  #06 @197   ----------------------------------------
 .byte   PATT
  .word Label_01006CD2
@  #06 @198   ----------------------------------------
 .byte   PATT
  .word Label_01006CE2
@  #06 @199   ----------------------------------------
 .byte   PATT
  .word Label_01006CE2
@  #06 @200   ----------------------------------------
 .byte   PATT
  .word Label_01006CD2
@  #06 @201   ----------------------------------------
 .byte   PATT
  .word Label_01006CF7
@  #06 @202   ----------------------------------------
 .byte   PATT
  .word Label_01006CC2
@  #06 @203   ----------------------------------------
 .byte   PATT
  .word Label_01006CC2
@  #06 @204   ----------------------------------------
 .byte   PATT
  .word Label_01006CD2
@  #06 @205   ----------------------------------------
 .byte   PATT
  .word Label_01006CD2
@  #06 @206   ----------------------------------------
 .byte   PATT
  .word Label_01006CE2
@  #06 @207   ----------------------------------------
 .byte   PATT
  .word Label_01006CE2
@  #06 @208   ----------------------------------------
 .byte   PATT
  .word Label_01006CD2
@  #06 @209   ----------------------------------------
 .byte   PATT
  .word Label_01006CD2
@  #06 @210   ----------------------------------------
 .byte   TIE ,An1 ,v092
 .byte   W96
@  #06 @211   ----------------------------------------
 .byte   W92
 .byte   W03
 .byte   EOT
 .byte   W01
@  #06 @212   ----------------------------------------
 .byte   TIE ,Gn1
 .byte   W96
@  #06 @213   ----------------------------------------
 .byte   W92
 .byte   W03
 .byte   EOT
 .byte   W01
@  #06 @214   ----------------------------------------
 .byte   TIE ,Fs1
 .byte   W96
@  #06 @215   ----------------------------------------
 .byte   W92
 .byte   W03
 .byte   EOT
 .byte   W01
@  #06 @216   ----------------------------------------
 .byte   N92 ,Fn1
 .byte   W96
@  #06 @217   ----------------------------------------
 .byte   PATT
  .word Label_01006D41
@  #06 @218   ----------------------------------------
 .byte   TIE ,An1 ,v092
 .byte   W96
@  #06 @219   ----------------------------------------
 .byte   W92
 .byte   W03
 .byte   EOT
 .byte   W01
@  #06 @220   ----------------------------------------
 .byte   TIE ,Gn1
 .byte   W96
@  #06 @221   ----------------------------------------
 .byte   W92
 .byte   W03
 .byte   EOT
 .byte   W01
@  #06 @222   ----------------------------------------
 .byte   TIE ,Fs1
 .byte   W96
@  #06 @223   ----------------------------------------
 .byte   W92
 .byte   W03
 .byte   EOT
 .byte   W01
@  #06 @224   ----------------------------------------
 .byte   TIE ,Fn1
 .byte   W96
@  #06 @225   ----------------------------------------
 .byte   W92
 .byte   W03
 .byte   EOT
 .byte   W01
@  #06 @226   ----------------------------------------
 .byte   PATT
  .word Label_01006CC2
@  #06 @227   ----------------------------------------
 .byte   PATT
  .word Label_01006CC2
@  #06 @228   ----------------------------------------
 .byte   PATT
  .word Label_01006CD2
@  #06 @229   ----------------------------------------
 .byte   PATT
  .word Label_01006CD2
@  #06 @230   ----------------------------------------
 .byte   PATT
  .word Label_01006CE2
@  #06 @231   ----------------------------------------
 .byte   PATT
  .word Label_01006CE2
@  #06 @232   ----------------------------------------
 .byte   PATT
  .word Label_01006CD2
@  #06 @233   ----------------------------------------
 .byte   PATT
  .word Label_01006CF7
@  #06 @234   ----------------------------------------
 .byte   PATT
  .word Label_01006CC2
@  #06 @235   ----------------------------------------
 .byte   PATT
  .word Label_01006CC2
@  #06 @236   ----------------------------------------
 .byte   PATT
  .word Label_01006CD2
@  #06 @237   ----------------------------------------
 .byte   PATT
  .word Label_01006CD2
@  #06 @238   ----------------------------------------
 .byte   PATT
  .word Label_01006CE2
@  #06 @239   ----------------------------------------
 .byte   PATT
  .word Label_01006CE2
@  #06 @240   ----------------------------------------
 .byte   PATT
  .word Label_01006CD2
@  #06 @241   ----------------------------------------
 .byte   PATT
  .word Label_01006CD2
@  #06 @242   ----------------------------------------
 .byte   TIE ,An1 ,v092
 .byte   W96
@  #06 @243   ----------------------------------------
 .byte   W92
 .byte   W03
 .byte   EOT
 .byte   W01
@  #06 @244   ----------------------------------------
 .byte   TIE ,Gn1
 .byte   W96
@  #06 @245   ----------------------------------------
 .byte   W92
 .byte   W03
 .byte   EOT
 .byte   W01
@  #06 @246   ----------------------------------------
 .byte   TIE ,Fs1
 .byte   W96
@  #06 @247   ----------------------------------------
 .byte   W92
 .byte   W03
 .byte   EOT
 .byte   W01
@  #06 @248   ----------------------------------------
 .byte   N92 ,Fn1
 .byte   W96
@  #06 @249   ----------------------------------------
 .byte   PATT
  .word Label_01006D41
@  #06 @250   ----------------------------------------
 .byte   TIE ,An1 ,v092
 .byte   W96
@  #06 @251   ----------------------------------------
 .byte   W92
 .byte   W03
 .byte   EOT
 .byte   W01
@  #06 @252   ----------------------------------------
 .byte   TIE ,Gn1
 .byte   W96
@  #06 @253   ----------------------------------------
 .byte   W92
 .byte   W03
 .byte   EOT
 .byte   W01
@  #06 @254   ----------------------------------------
 .byte   TIE ,Fs1
 .byte   W96
@  #06 @255   ----------------------------------------
 .byte   W92
 .byte   W03
 .byte   EOT
 .byte   W01
@  #06 @256   ----------------------------------------
 .byte   TIE ,Fn1
 .byte   W96
@  #06 @257   ----------------------------------------
 .byte   W92
 .byte   W03
 .byte   EOT
 .byte   W01
@  #06 @258   ----------------------------------------
 .byte   TIE ,En0
 .byte   W96
@  #06 @259   ----------------------------------------
 .byte   W92
 .byte   W03
 .byte   EOT
 .byte   W01
@  #06 @260   ----------------------------------------
 .byte   TIE ,Fn0
 .byte   W96
@  #06 @261   ----------------------------------------
 .byte   W92
 .byte   W03
 .byte   EOT
 .byte   W01
@  #06 @262   ----------------------------------------
 .byte   TIE ,Gn0
 .byte   W96
@  #06 @263   ----------------------------------------
 .byte   W92
 .byte   W03
 .byte   EOT
 .byte   W01
@  #06 @264   ----------------------------------------
 .byte   TIE ,Fn0
 .byte   W96
@  #06 @265   ----------------------------------------
 .byte   W92
 .byte   W03
 .byte   EOT
 .byte   W01
@  #06 @266   ----------------------------------------
 .byte   PATT
  .word Label_01006CC2
@  #06 @267   ----------------------------------------
 .byte   PATT
  .word Label_01006CC2
@  #06 @268   ----------------------------------------
 .byte   PATT
  .word Label_01006CD2
@  #06 @269   ----------------------------------------
 .byte   PATT
  .word Label_01006CD2
@  #06 @270   ----------------------------------------
 .byte   PATT
  .word Label_01006E22
@  #06 @271   ----------------------------------------
 .byte   PATT
  .word Label_01006E22
@  #06 @272   ----------------------------------------
 .byte   PATT
  .word Label_01006CD2
@  #06 @273   ----------------------------------------
 .byte   PATT
  .word Label_01006CD2
@  #06 @274   ----------------------------------------
 .byte   PATT
  .word Label_01006C9A
@  #06 @275   ----------------------------------------
 .byte   PATT
  .word Label_01006C9A
@  #06 @276   ----------------------------------------
 .byte   W96
@  #06 @277   ----------------------------------------
 .byte   W96
@  #06 @278   ----------------------------------------
 .byte   PATT
  .word Label_01006C9A
@  #06 @279   ----------------------------------------
 .byte   PATT
  .word Label_01006C9A
@  #06 @280   ----------------------------------------
 .byte   W96
@  #06 @281   ----------------------------------------
 .byte   W96
@  #06 @282   ----------------------------------------
 .byte   N92 ,En1 ,v092
 .byte   W96
@  #06 @283   ----------------------------------------
 .byte   Cn1
 .byte   W96
@  #06 @284   ----------------------------------------
 .byte   Dn1
 .byte   W96
@  #06 @285   ----------------------------------------
 .byte   Gn0
 .byte   W96
@  #06 @286   ----------------------------------------
 .byte   Cn1
 .byte   W96
@  #06 @287   ----------------------------------------
 .byte   Ds1
 .byte   W96
@  #06 @288   ----------------------------------------
 .byte   TIE ,En1
 .byte   W96
@  #06 @289   ----------------------------------------
 .byte   W92
 .byte   W03
 .byte   EOT
 .byte   W01
@  #06 @290   ----------------------------------------
 .byte   PATT
  .word Label_01006E69
@  #06 @291   ----------------------------------------
 .byte   PATT
  .word Label_01006E69
@  #06 @292   ----------------------------------------
 .byte   PATT
  .word Label_01006E69
@  #06 @293   ----------------------------------------
 .byte   PATT
  .word Label_01006E69
@  #06 @294   ----------------------------------------
 .byte   PATT
  .word Label_01006E8B
@  #06 @295   ----------------------------------------
 .byte   PATT
  .word Label_01006E9E
@  #06 @296   ----------------------------------------
 .byte   PATT
  .word Label_01006EB1
@  #06 @297   ----------------------------------------
 .byte   PATT
  .word Label_01006EC4
@  #06 @298   ----------------------------------------
 .byte   PATT
  .word Label_01006EB1
@  #06 @299   ----------------------------------------
 .byte   PATT
  .word Label_01006E8B
@  #06 @300   ----------------------------------------
 .byte   PATT
  .word Label_01006EE1
@  #06 @301   ----------------------------------------
 .byte   PATT
  .word Label_01006EF4
@  #06 @302   ----------------------------------------
 .byte   PATT
  .word Label_01006E8B
@  #06 @303   ----------------------------------------
 .byte   PATT
  .word Label_01006E9E
@  #06 @304   ----------------------------------------
 .byte   PATT
  .word Label_01006EB1
@  #06 @305   ----------------------------------------
 .byte   PATT
  .word Label_01006EB1
@  #06 @306   ----------------------------------------
 .byte   PATT
  .word Label_01006E69
@  #06 @307   ----------------------------------------
 .byte   PATT
  .word Label_01006E69
@  #06 @308   ----------------------------------------
 .byte   PATT
  .word Label_01006E69
@  #06 @309   ----------------------------------------
 .byte   PATT
  .word Label_01006E8B
@  #06 @310   ----------------------------------------
 .byte   PATT
  .word Label_01006EE1
@  #06 @311   ----------------------------------------
 .byte   PATT
  .word Label_01006E9E
@  #06 @312   ----------------------------------------
 .byte   PATT
  .word Label_01006EB1
@  #06 @313   ----------------------------------------
 .byte   PATT
  .word Label_01006EB1
@  #06 @314   ----------------------------------------
 .byte   PATT
  .word Label_01006EB1
@  #06 @315   ----------------------------------------
 .byte   PATT
  .word Label_01006E8B
@  #06 @316   ----------------------------------------
 .byte   PATT
  .word Label_01006EE1
@  #06 @317   ----------------------------------------
 .byte   PATT
  .word Label_01006EF4
@  #06 @318   ----------------------------------------
 .byte   PATT
  .word Label_01006E8B
@  #06 @319   ----------------------------------------
 .byte   PATT
  .word Label_01006E9E
@  #06 @320   ----------------------------------------
 .byte   PATT
  .word Label_01006EB1
@  #06 @321   ----------------------------------------
 .byte   PATT
  .word Label_01006EB1
@  #06 @322   ----------------------------------------
 .byte   PATT
  .word Label_01006E69
@  #06 @323   ----------------------------------------
 .byte   PATT
  .word Label_01006E69
@  #06 @324   ----------------------------------------
 .byte   PATT
  .word Label_01006E69
@  #06 @325   ----------------------------------------
 .byte   PATT
  .word Label_01006E8B
@  #06 @326   ----------------------------------------
 .byte   PATT
  .word Label_01006EE1
@  #06 @327   ----------------------------------------
 .byte   PATT
  .word Label_01006E9E
@  #06 @328   ----------------------------------------
 .byte   PATT
  .word Label_01006EB1
@  #06 @329   ----------------------------------------
 .byte   PATT
  .word Label_01006EB1
@  #06 @330   ----------------------------------------
 .byte   GOTO
  .word Label_01006BF8
@  #06 @331   ----------------------------------------
 .byte   PATT
  .word Label_01006C20
@  #06 @332   ----------------------------------------
 .byte   PATT
  .word Label_01006C20
@  #06 @333   ----------------------------------------
 .byte   PATT
  .word Label_01006C20
@  #06 @334   ----------------------------------------
 .byte   PATT
  .word Label_01006C20
@  #06 @335   ----------------------------------------
 .byte   PATT
  .word Label_01006C20
@  #06 @336   ----------------------------------------
 .byte   PATT
  .word Label_01006C20
@  #06 @337   ----------------------------------------
 .byte   PATT
  .word Label_01006C20
@  #06 @338   ----------------------------------------
 .byte   PATT
  .word Label_01006C51
@  #06 @339   ----------------------------------------
 .byte   PATT
  .word Label_01006C20
@  #06 @340   ----------------------------------------
 .byte   PATT
  .word Label_01006C20
@  #06 @341   ----------------------------------------
 .byte   PATT
  .word Label_01006C20
@  #06 @342   ----------------------------------------
 .byte   PATT
  .word Label_01006C20
@  #06 @343   ----------------------------------------
 .byte   PATT
  .word Label_01006C20
@  #06 @344   ----------------------------------------
 .byte   PATT
  .word Label_01006C20
@  #06 @345   ----------------------------------------
 .byte   PATT
  .word Label_01006C20
@  #06 @346   ----------------------------------------
 .byte   PATT
  .word Label_01006C87
@  #06 @347   ----------------------------------------
 .byte   PATT
  .word Label_01006C9A
@  #06 @348   ----------------------------------------
 .byte   PATT
  .word Label_01006C9A
 .byte   FINE

@**************** Track 7 (Midi-Chn.6) ****************@

song04_007:
@  #07 @000   ----------------------------------------
 .byte   KEYSH , song04_key+0
 .byte   VOICE , 30
 .byte   PAN , c_v-24
 .byte   VOL , 60*song04_mvl/mxv
 .byte   W96
@  #07 @001   ----------------------------------------
 .byte   W96
@  #07 @002   ----------------------------------------
 .byte   W96
@  #07 @003   ----------------------------------------
 .byte   W96
@  #07 @004   ----------------------------------------
 .byte   W96
@  #07 @005   ----------------------------------------
 .byte   W96
@  #07 @006   ----------------------------------------
 .byte   W96
@  #07 @007   ----------------------------------------
 .byte   W96
@  #07 @008   ----------------------------------------
 .byte   W96
@  #07 @009   ----------------------------------------
 .byte   W96
@  #07 @010   ----------------------------------------
Label_0100727A:
 .byte   N11 ,En2 ,v092
 .byte   W12
 .byte   Bn2
 .byte   W12
 .byte   En2
 .byte   W12
 .byte   Bn2
 .byte   W12
 .byte   N11
 .byte   W12
 .byte   En2
 .byte   W12
 .byte   N44 ,An2
 .byte   W24
 .byte   PEND 
@  #07 @011   ----------------------------------------
Label_0100728C:
 .byte   W24
 .byte   N11 ,An2 ,v092
 .byte   W12
 .byte   N11
 .byte   W12
 .byte   N11
 .byte   W12
 .byte   N11
 .byte   W12
 .byte   N11
 .byte   W12
 .byte   N11
 .byte   W12
 .byte   PEND 
@  #07 @012   ----------------------------------------
Label_0100729C:
 .byte   TIE ,Fn2 ,v092
 .byte   TIE ,Cn3
 .byte   W96
 .byte   PEND 
@  #07 @013   ----------------------------------------
 .byte   W92
 .byte   W03
 .byte   EOT
 .byte   Fn2 ,v060
 .byte   W01
@  #07 @014   ----------------------------------------
 .byte   PATT
  .word Label_0100727A
@  #07 @015   ----------------------------------------
 .byte   PATT
  .word Label_0100728C
@  #07 @016   ----------------------------------------
 .byte   TIE ,Fn2 ,v092
 .byte   W96
@  #07 @017   ----------------------------------------
 .byte   W92
 .byte   W03
 .byte   EOT
 .byte   W01
@  #07 @018   ----------------------------------------
 .byte   PATT
  .word Label_0100727A
@  #07 @019   ----------------------------------------
 .byte   PATT
  .word Label_0100728C
@  #07 @020   ----------------------------------------
 .byte   PATT
  .word Label_0100729C
@  #07 @021   ----------------------------------------
 .byte   W92
 .byte   W03
 .byte   EOT
 .byte   Fn2 ,v060
 .byte   W01
@  #07 @022   ----------------------------------------
Label_010072D0:
 .byte   N23 ,En2 ,v092
 .byte   W24
 .byte   N11 ,En1
 .byte   W12
 .byte   N11
 .byte   W12
 .byte   Gn1
 .byte   W12
 .byte   An1
 .byte   W12
 .byte   Gn1
 .byte   W12
 .byte   An1
 .byte   W12
 .byte   PEND 
@  #07 @023   ----------------------------------------
Label_010072E2:
 .byte   N23 ,Dn2 ,v092
 .byte   W24
 .byte   N11 ,En1
 .byte   W12
 .byte   N11
 .byte   W12
 .byte   N23 ,Dn2
 .byte   W24
 .byte   N11
 .byte   W12
 .byte   N11
 .byte   W12
 .byte   PEND 
@  #07 @024   ----------------------------------------
Label_010072F3:
 .byte   N23 ,En2 ,v092
 .byte   W24
 .byte   N11 ,En1
 .byte   W12
 .byte   Gn1
 .byte   W12
 .byte   N23 ,An1
 .byte   W24
 .byte   N11
 .byte   W12
 .byte   N11
 .byte   W12
 .byte   PEND 
@  #07 @025   ----------------------------------------
Label_01007304:
 .byte   N23 ,Gn1 ,v092
 .byte   W24
 .byte   N11
 .byte   W12
 .byte   An1
 .byte   W12
 .byte   N23 ,Dn2
 .byte   W24
 .byte   N23
 .byte   W24
 .byte   PEND 
@  #07 @026   ----------------------------------------
 .byte   PATT
  .word Label_010072D0
@  #07 @027   ----------------------------------------
 .byte   PATT
  .word Label_010072E2
@  #07 @028   ----------------------------------------
 .byte   PATT
  .word Label_010072F3
@  #07 @029   ----------------------------------------
Label_01007321:
 .byte   N23 ,Gn2 ,v092
 .byte   W24
 .byte   N11 ,Gn1
 .byte   W12
 .byte   An1
 .byte   W12
 .byte   N23 ,Dn2
 .byte   W24
 .byte   N23
 .byte   W24
 .byte   PEND 
@  #07 @030   ----------------------------------------
 .byte   PATT
  .word Label_010072D0
@  #07 @031   ----------------------------------------
 .byte   PATT
  .word Label_010072E2
@  #07 @032   ----------------------------------------
 .byte   PATT
  .word Label_010072F3
@  #07 @033   ----------------------------------------
 .byte   PATT
  .word Label_01007304
@  #07 @034   ----------------------------------------
 .byte   PATT
  .word Label_010072D0
@  #07 @035   ----------------------------------------
 .byte   PATT
  .word Label_010072E2
@  #07 @036   ----------------------------------------
 .byte   PATT
  .word Label_010072F3
@  #07 @037   ----------------------------------------
 .byte   PATT
  .word Label_01007321
@  #07 @038   ----------------------------------------
 .byte   PATT
  .word Label_010072D0
@  #07 @039   ----------------------------------------
 .byte   PATT
  .word Label_010072E2
@  #07 @040   ----------------------------------------
 .byte   PATT
  .word Label_010072F3
@  #07 @041   ----------------------------------------
 .byte   PATT
  .word Label_01007304
@  #07 @042   ----------------------------------------
 .byte   PATT
  .word Label_010072D0
@  #07 @043   ----------------------------------------
 .byte   PATT
  .word Label_010072E2
@  #07 @044   ----------------------------------------
 .byte   PATT
  .word Label_010072F3
@  #07 @045   ----------------------------------------
 .byte   PATT
  .word Label_01007321
@  #07 @046   ----------------------------------------
 .byte   W96
@  #07 @047   ----------------------------------------
 .byte   W96
@  #07 @048   ----------------------------------------
 .byte   W96
@  #07 @049   ----------------------------------------
 .byte   W96
@  #07 @050   ----------------------------------------
 .byte   W96
@  #07 @051   ----------------------------------------
 .byte   W96
@  #07 @052   ----------------------------------------
 .byte   W96
@  #07 @053   ----------------------------------------
 .byte   W96
@  #07 @054   ----------------------------------------
 .byte   W96
@  #07 @055   ----------------------------------------
 .byte   W96
@  #07 @056   ----------------------------------------
 .byte   W96
@  #07 @057   ----------------------------------------
 .byte   W96
@  #07 @058   ----------------------------------------
 .byte   W96
@  #07 @059   ----------------------------------------
 .byte   W96
@  #07 @060   ----------------------------------------
 .byte   W96
@  #07 @061   ----------------------------------------
 .byte   W96
@  #07 @062   ----------------------------------------
 .byte   W96
@  #07 @063   ----------------------------------------
 .byte   W96
@  #07 @064   ----------------------------------------
 .byte   W96
@  #07 @065   ----------------------------------------
 .byte   W96
@  #07 @066   ----------------------------------------
 .byte   W96
@  #07 @067   ----------------------------------------
 .byte   W96
@  #07 @068   ----------------------------------------
 .byte   W96
@  #07 @069   ----------------------------------------
 .byte   W96
@  #07 @070   ----------------------------------------
 .byte   W96
@  #07 @071   ----------------------------------------
 .byte   W96
@  #07 @072   ----------------------------------------
 .byte   W96
@  #07 @073   ----------------------------------------
 .byte   W96
@  #07 @074   ----------------------------------------
 .byte   W96
@  #07 @075   ----------------------------------------
 .byte   W96
@  #07 @076   ----------------------------------------
 .byte   W96
@  #07 @077   ----------------------------------------
 .byte   W96
@  #07 @078   ----------------------------------------
 .byte   W96
@  #07 @079   ----------------------------------------
 .byte   W96
@  #07 @080   ----------------------------------------
 .byte   W96
@  #07 @081   ----------------------------------------
 .byte   W96
@  #07 @082   ----------------------------------------
 .byte   W96
@  #07 @083   ----------------------------------------
 .byte   W96
@  #07 @084   ----------------------------------------
 .byte   W96
@  #07 @085   ----------------------------------------
 .byte   W96
@  #07 @086   ----------------------------------------
 .byte   W96
@  #07 @087   ----------------------------------------
 .byte   W96
@  #07 @088   ----------------------------------------
 .byte   W96
@  #07 @089   ----------------------------------------
 .byte   W96
@  #07 @090   ----------------------------------------
 .byte   W96
@  #07 @091   ----------------------------------------
 .byte   W96
@  #07 @092   ----------------------------------------
 .byte   W96
@  #07 @093   ----------------------------------------
 .byte   W96
@  #07 @094   ----------------------------------------
 .byte   W96
@  #07 @095   ----------------------------------------
 .byte   W96
@  #07 @096   ----------------------------------------
 .byte   W96
@  #07 @097   ----------------------------------------
 .byte   W96
@  #07 @098   ----------------------------------------
 .byte   W96
@  #07 @099   ----------------------------------------
 .byte   W96
@  #07 @100   ----------------------------------------
 .byte   W96
@  #07 @101   ----------------------------------------
 .byte   W96
@  #07 @102   ----------------------------------------
 .byte   W96
@  #07 @103   ----------------------------------------
 .byte   W96
@  #07 @104   ----------------------------------------
 .byte   W96
@  #07 @105   ----------------------------------------
 .byte   W96
@  #07 @106   ----------------------------------------
 .byte   W96
@  #07 @107   ----------------------------------------
 .byte   W96
@  #07 @108   ----------------------------------------
 .byte   W96
@  #07 @109   ----------------------------------------
 .byte   W96
@  #07 @110   ----------------------------------------
 .byte   W96
@  #07 @111   ----------------------------------------
 .byte   W96
@  #07 @112   ----------------------------------------
 .byte   W96
@  #07 @113   ----------------------------------------
 .byte   W96
@  #07 @114   ----------------------------------------
 .byte   W96
@  #07 @115   ----------------------------------------
 .byte   W96
@  #07 @116   ----------------------------------------
 .byte   W96
@  #07 @117   ----------------------------------------
 .byte   W96
@  #07 @118   ----------------------------------------
 .byte   W96
@  #07 @119   ----------------------------------------
 .byte   W96
@  #07 @120   ----------------------------------------
 .byte   W96
@  #07 @121   ----------------------------------------
 .byte   W96
@  #07 @122   ----------------------------------------
 .byte   W96
@  #07 @123   ----------------------------------------
 .byte   W96
@  #07 @124   ----------------------------------------
 .byte   W96
@  #07 @125   ----------------------------------------
 .byte   W96
@  #07 @126   ----------------------------------------
 .byte   W96
@  #07 @127   ----------------------------------------
 .byte   W96
@  #07 @128   ----------------------------------------
 .byte   W96
@  #07 @129   ----------------------------------------
 .byte   W96
@  #07 @130   ----------------------------------------
 .byte   W96
@  #07 @131   ----------------------------------------
 .byte   W96
@  #07 @132   ----------------------------------------
 .byte   W96
@  #07 @133   ----------------------------------------
 .byte   W96
@  #07 @134   ----------------------------------------
 .byte   W96
@  #07 @135   ----------------------------------------
 .byte   W96
@  #07 @136   ----------------------------------------
 .byte   W96
@  #07 @137   ----------------------------------------
 .byte   W96
@  #07 @138   ----------------------------------------
 .byte   W96
@  #07 @139   ----------------------------------------
 .byte   W96
@  #07 @140   ----------------------------------------
 .byte   W96
@  #07 @141   ----------------------------------------
 .byte   W96
@  #07 @142   ----------------------------------------
 .byte   W96
@  #07 @143   ----------------------------------------
 .byte   W96
@  #07 @144   ----------------------------------------
 .byte   W96
@  #07 @145   ----------------------------------------
 .byte   W96
@  #07 @146   ----------------------------------------
 .byte   W96
@  #07 @147   ----------------------------------------
 .byte   W96
@  #07 @148   ----------------------------------------
 .byte   W96
@  #07 @149   ----------------------------------------
 .byte   W96
@  #07 @150   ----------------------------------------
 .byte   W96
@  #07 @151   ----------------------------------------
 .byte   W96
@  #07 @152   ----------------------------------------
 .byte   W96
@  #07 @153   ----------------------------------------
 .byte   W96
@  #07 @154   ----------------------------------------
 .byte   W96
@  #07 @155   ----------------------------------------
 .byte   W96
@  #07 @156   ----------------------------------------
 .byte   W96
@  #07 @157   ----------------------------------------
 .byte   W96
@  #07 @158   ----------------------------------------
 .byte   W96
@  #07 @159   ----------------------------------------
 .byte   W96
@  #07 @160   ----------------------------------------
 .byte   W96
@  #07 @161   ----------------------------------------
 .byte   W96
@  #07 @162   ----------------------------------------
 .byte   W96
@  #07 @163   ----------------------------------------
 .byte   W96
@  #07 @164   ----------------------------------------
 .byte   W96
@  #07 @165   ----------------------------------------
 .byte   W96
@  #07 @166   ----------------------------------------
 .byte   W96
@  #07 @167   ----------------------------------------
 .byte   W96
@  #07 @168   ----------------------------------------
 .byte   W96
@  #07 @169   ----------------------------------------
 .byte   W96
@  #07 @170   ----------------------------------------
 .byte   W96
@  #07 @171   ----------------------------------------
 .byte   W96
@  #07 @172   ----------------------------------------
 .byte   PATT
  .word Label_010072D0
@  #07 @173   ----------------------------------------
 .byte   PATT
  .word Label_010072E2
@  #07 @174   ----------------------------------------
 .byte   PATT
  .word Label_010072F3
@  #07 @175   ----------------------------------------
 .byte   PATT
  .word Label_01007304
@  #07 @176   ----------------------------------------
 .byte   PATT
  .word Label_010072D0
@  #07 @177   ----------------------------------------
 .byte   PATT
  .word Label_010072E2
@  #07 @178   ----------------------------------------
 .byte   PATT
  .word Label_010072F3
@  #07 @179   ----------------------------------------
 .byte   PATT
  .word Label_01007321
@  #07 @180   ----------------------------------------
 .byte   PATT
  .word Label_010072D0
@  #07 @181   ----------------------------------------
 .byte   PATT
  .word Label_010072E2
@  #07 @182   ----------------------------------------
 .byte   PATT
  .word Label_010072F3
@  #07 @183   ----------------------------------------
 .byte   PATT
  .word Label_01007304
@  #07 @184   ----------------------------------------
 .byte   PATT
  .word Label_010072D0
@  #07 @185   ----------------------------------------
 .byte   PATT
  .word Label_010072E2
@  #07 @186   ----------------------------------------
 .byte   PATT
  .word Label_010072F3
@  #07 @187   ----------------------------------------
 .byte   PATT
  .word Label_01007321
@  #07 @188   ----------------------------------------
 .byte   W96
@  #07 @189   ----------------------------------------
 .byte   W96
@  #07 @190   ----------------------------------------
 .byte   W96
@  #07 @191   ----------------------------------------
 .byte   W96
@  #07 @192   ----------------------------------------
 .byte   W96
@  #07 @193   ----------------------------------------
 .byte   W96
@  #07 @194   ----------------------------------------
 .byte   W96
@  #07 @195   ----------------------------------------
 .byte   W96
@  #07 @196   ----------------------------------------
 .byte   W96
@  #07 @197   ----------------------------------------
 .byte   W96
@  #07 @198   ----------------------------------------
 .byte   W96
@  #07 @199   ----------------------------------------
 .byte   W96
@  #07 @200   ----------------------------------------
 .byte   W96
@  #07 @201   ----------------------------------------
 .byte   W96
@  #07 @202   ----------------------------------------
 .byte   W96
@  #07 @203   ----------------------------------------
 .byte   W96
@  #07 @204   ----------------------------------------
 .byte   W96
@  #07 @205   ----------------------------------------
 .byte   W96
@  #07 @206   ----------------------------------------
 .byte   W96
@  #07 @207   ----------------------------------------
 .byte   W96
@  #07 @208   ----------------------------------------
 .byte   W96
@  #07 @209   ----------------------------------------
 .byte   W96
@  #07 @210   ----------------------------------------
 .byte   W96
@  #07 @211   ----------------------------------------
 .byte   W96
@  #07 @212   ----------------------------------------
 .byte   W96
@  #07 @213   ----------------------------------------
 .byte   W96
@  #07 @214   ----------------------------------------
 .byte   W96
@  #07 @215   ----------------------------------------
 .byte   W96
@  #07 @216   ----------------------------------------
 .byte   W96
@  #07 @217   ----------------------------------------
 .byte   W96
@  #07 @218   ----------------------------------------
 .byte   W96
@  #07 @219   ----------------------------------------
 .byte   W96
@  #07 @220   ----------------------------------------
 .byte   W96
@  #07 @221   ----------------------------------------
 .byte   W96
@  #07 @222   ----------------------------------------
 .byte   W96
@  #07 @223   ----------------------------------------
 .byte   W96
@  #07 @224   ----------------------------------------
 .byte   W96
@  #07 @225   ----------------------------------------
 .byte   W96
@  #07 @226   ----------------------------------------
 .byte   W96
@  #07 @227   ----------------------------------------
 .byte   W96
@  #07 @228   ----------------------------------------
 .byte   W96
@  #07 @229   ----------------------------------------
 .byte   W96
@  #07 @230   ----------------------------------------
 .byte   W96
@  #07 @231   ----------------------------------------
 .byte   W96
@  #07 @232   ----------------------------------------
 .byte   W96
@  #07 @233   ----------------------------------------
 .byte   W96
@  #07 @234   ----------------------------------------
 .byte   W96
@  #07 @235   ----------------------------------------
 .byte   W96
@  #07 @236   ----------------------------------------
 .byte   W96
@  #07 @237   ----------------------------------------
 .byte   W96
@  #07 @238   ----------------------------------------
 .byte   W96
@  #07 @239   ----------------------------------------
 .byte   W96
@  #07 @240   ----------------------------------------
 .byte   W96
@  #07 @241   ----------------------------------------
 .byte   W96
@  #07 @242   ----------------------------------------
 .byte   W96
@  #07 @243   ----------------------------------------
 .byte   W96
@  #07 @244   ----------------------------------------
 .byte   W96
@  #07 @245   ----------------------------------------
 .byte   W96
@  #07 @246   ----------------------------------------
 .byte   W96
@  #07 @247   ----------------------------------------
 .byte   W96
@  #07 @248   ----------------------------------------
 .byte   W96
@  #07 @249   ----------------------------------------
 .byte   W96
@  #07 @250   ----------------------------------------
 .byte   W96
@  #07 @251   ----------------------------------------
 .byte   W96
@  #07 @252   ----------------------------------------
 .byte   W96
@  #07 @253   ----------------------------------------
 .byte   W96
@  #07 @254   ----------------------------------------
 .byte   W96
@  #07 @255   ----------------------------------------
 .byte   W96
@  #07 @256   ----------------------------------------
 .byte   W96
@  #07 @257   ----------------------------------------
 .byte   W96
@  #07 @258   ----------------------------------------
 .byte   W96
@  #07 @259   ----------------------------------------
 .byte   W96
@  #07 @260   ----------------------------------------
 .byte   W96
@  #07 @261   ----------------------------------------
 .byte   W96
@  #07 @262   ----------------------------------------
 .byte   W96
@  #07 @263   ----------------------------------------
 .byte   W96
@  #07 @264   ----------------------------------------
 .byte   W96
@  #07 @265   ----------------------------------------
 .byte   W96
@  #07 @266   ----------------------------------------
 .byte   W96
@  #07 @267   ----------------------------------------
 .byte   W96
@  #07 @268   ----------------------------------------
 .byte   W96
@  #07 @269   ----------------------------------------
 .byte   W96
@  #07 @270   ----------------------------------------
 .byte   W96
@  #07 @271   ----------------------------------------
 .byte   W96
@  #07 @272   ----------------------------------------
 .byte   W96
@  #07 @273   ----------------------------------------
 .byte   W96
@  #07 @274   ----------------------------------------
 .byte   W96
@  #07 @275   ----------------------------------------
 .byte   W96
@  #07 @276   ----------------------------------------
 .byte   W96
@  #07 @277   ----------------------------------------
 .byte   W96
@  #07 @278   ----------------------------------------
 .byte   W96
@  #07 @279   ----------------------------------------
 .byte   W96
@  #07 @280   ----------------------------------------
 .byte   W96
@  #07 @281   ----------------------------------------
 .byte   W96
@  #07 @282   ----------------------------------------
 .byte   W96
@  #07 @283   ----------------------------------------
 .byte   W96
@  #07 @284   ----------------------------------------
 .byte   W96
@  #07 @285   ----------------------------------------
 .byte   W96
@  #07 @286   ----------------------------------------
 .byte   W96
@  #07 @287   ----------------------------------------
 .byte   W96
@  #07 @288   ----------------------------------------
 .byte   W96
@  #07 @289   ----------------------------------------
 .byte   W96
@  #07 @290   ----------------------------------------
 .byte   W96
@  #07 @291   ----------------------------------------
 .byte   W96
@  #07 @292   ----------------------------------------
 .byte   W96
@  #07 @293   ----------------------------------------
 .byte   W96
@  #07 @294   ----------------------------------------
 .byte   W96
@  #07 @295   ----------------------------------------
 .byte   W96
@  #07 @296   ----------------------------------------
 .byte   W96
@  #07 @297   ----------------------------------------
 .byte   W96
@  #07 @298   ----------------------------------------
 .byte   W96
@  #07 @299   ----------------------------------------
 .byte   W96
@  #07 @300   ----------------------------------------
 .byte   W96
@  #07 @301   ----------------------------------------
 .byte   W96
@  #07 @302   ----------------------------------------
 .byte   W96
@  #07 @303   ----------------------------------------
 .byte   W96
@  #07 @304   ----------------------------------------
 .byte   W96
@  #07 @305   ----------------------------------------
 .byte   W96
@  #07 @306   ----------------------------------------
 .byte   W96
@  #07 @307   ----------------------------------------
 .byte   W96
@  #07 @308   ----------------------------------------
 .byte   W96
@  #07 @309   ----------------------------------------
 .byte   W96
@  #07 @310   ----------------------------------------
 .byte   W96
@  #07 @311   ----------------------------------------
 .byte   W96
@  #07 @312   ----------------------------------------
 .byte   W96
@  #07 @313   ----------------------------------------
 .byte   W96
@  #07 @314   ----------------------------------------
 .byte   W96
@  #07 @315   ----------------------------------------
 .byte   W96
@  #07 @316   ----------------------------------------
 .byte   W96
@  #07 @317   ----------------------------------------
 .byte   W96
@  #07 @318   ----------------------------------------
 .byte   W96
@  #07 @319   ----------------------------------------
 .byte   W96
@  #07 @320   ----------------------------------------
 .byte   W96
@  #07 @321   ----------------------------------------
 .byte   W96
@  #07 @322   ----------------------------------------
 .byte   W96
@  #07 @323   ----------------------------------------
 .byte   W96
@  #07 @324   ----------------------------------------
 .byte   W96
@  #07 @325   ----------------------------------------
 .byte   W96
@  #07 @326   ----------------------------------------
 .byte   W96
@  #07 @327   ----------------------------------------
 .byte   W96
@  #07 @328   ----------------------------------------
 .byte   W96
@  #07 @329   ----------------------------------------
 .byte   W96
@  #07 @330   ----------------------------------------
 .byte   GOTO
  .word Label_010072D0
@  #07 @331   ----------------------------------------
 .byte   PATT
  .word Label_010072D0
@  #07 @332   ----------------------------------------
 .byte   PATT
  .word Label_010072E2
@  #07 @333   ----------------------------------------
 .byte   PATT
  .word Label_010072F3
@  #07 @334   ----------------------------------------
 .byte   PATT
  .word Label_01007304
@  #07 @335   ----------------------------------------
 .byte   PATT
  .word Label_010072D0
@  #07 @336   ----------------------------------------
 .byte   PATT
  .word Label_010072E2
@  #07 @337   ----------------------------------------
 .byte   PATT
  .word Label_010072F3
@  #07 @338   ----------------------------------------
 .byte   PATT
  .word Label_01007321
@  #07 @339   ----------------------------------------
 .byte   PATT
  .word Label_010072D0
@  #07 @340   ----------------------------------------
 .byte   PATT
  .word Label_010072E2
@  #07 @341   ----------------------------------------
 .byte   PATT
  .word Label_010072F3
@  #07 @342   ----------------------------------------
 .byte   PATT
  .word Label_01007304
@  #07 @343   ----------------------------------------
 .byte   PATT
  .word Label_010072D0
@  #07 @344   ----------------------------------------
 .byte   PATT
  .word Label_010072E2
@  #07 @345   ----------------------------------------
 .byte   PATT
  .word Label_010072F3
@  #07 @346   ----------------------------------------
 .byte   PATT
  .word Label_01007321
@  #07 @347   ----------------------------------------
 .byte   W96
@  #07 @348   ----------------------------------------
 .byte   W96
 .byte   FINE

@**************** Track 8 (Midi-Chn.7) ****************@

song04_008:
@  #08 @000   ----------------------------------------
 .byte   KEYSH , song04_key+0
 .byte   VOICE , 30
 .byte   PAN , c_v+16
 .byte   VOL , 50*song04_mvl/mxv
 .byte   W96
@  #08 @001   ----------------------------------------
 .byte   W96
@  #08 @002   ----------------------------------------
 .byte   W96
@  #08 @003   ----------------------------------------
 .byte   W96
@  #08 @004   ----------------------------------------
 .byte   W96
@  #08 @005   ----------------------------------------
 .byte   W96
@  #08 @006   ----------------------------------------
 .byte   W96
@  #08 @007   ----------------------------------------
 .byte   W96
@  #08 @008   ----------------------------------------
 .byte   W96
@  #08 @009   ----------------------------------------
 .byte   W96
@  #08 @010   ----------------------------------------
 .byte   W96
@  #08 @011   ----------------------------------------
 .byte   W96
@  #08 @012   ----------------------------------------
 .byte   W96
@  #08 @013   ----------------------------------------
 .byte   W96
@  #08 @014   ----------------------------------------
 .byte   W96
@  #08 @015   ----------------------------------------
 .byte   W96
@  #08 @016   ----------------------------------------
 .byte   W96
@  #08 @017   ----------------------------------------
 .byte   W96
@  #08 @018   ----------------------------------------
 .byte   W96
@  #08 @019   ----------------------------------------
 .byte   W96
@  #08 @020   ----------------------------------------
 .byte   W96
@  #08 @021   ----------------------------------------
 .byte   W96
@  #08 @022   ----------------------------------------
Label_01007562:
 .byte   W96
@  #08 @023   ----------------------------------------
 .byte   W96
@  #08 @024   ----------------------------------------
 .byte   W96
@  #08 @025   ----------------------------------------
 .byte   W96
@  #08 @026   ----------------------------------------
 .byte   W96
@  #08 @027   ----------------------------------------
 .byte   W96
@  #08 @028   ----------------------------------------
 .byte   W96
@  #08 @029   ----------------------------------------
 .byte   W96
@  #08 @030   ----------------------------------------
Label_0100756A:
 .byte   N23 ,En3 ,v092
 .byte   W24
 .byte   N11 ,En2
 .byte   W12
 .byte   N11
 .byte   W12
 .byte   Gn2
 .byte   W12
 .byte   An2
 .byte   W12
 .byte   Gn2
 .byte   W12
 .byte   An2
 .byte   W12
 .byte   PEND 
@  #08 @031   ----------------------------------------
Label_0100757C:
 .byte   N23 ,Dn3 ,v092
 .byte   W24
 .byte   N11 ,En2
 .byte   W12
 .byte   N11
 .byte   W12
 .byte   N23 ,Dn3
 .byte   W24
 .byte   N11
 .byte   W12
 .byte   N11
 .byte   W12
 .byte   PEND 
@  #08 @032   ----------------------------------------
Label_0100758D:
 .byte   N23 ,En3 ,v092
 .byte   W24
 .byte   N11 ,En2
 .byte   W12
 .byte   Gn2
 .byte   W12
 .byte   N23 ,An2
 .byte   W24
 .byte   N11
 .byte   W12
 .byte   N11
 .byte   W12
 .byte   PEND 
@  #08 @033   ----------------------------------------
Label_0100759E:
 .byte   N23 ,Gn2 ,v092
 .byte   W24
 .byte   N11
 .byte   W12
 .byte   An2
 .byte   W12
 .byte   N23 ,Dn3
 .byte   W24
 .byte   N23
 .byte   W24
 .byte   PEND 
@  #08 @034   ----------------------------------------
 .byte   PATT
  .word Label_0100756A
@  #08 @035   ----------------------------------------
 .byte   PATT
  .word Label_0100757C
@  #08 @036   ----------------------------------------
 .byte   PATT
  .word Label_0100758D
@  #08 @037   ----------------------------------------
Label_010075BB:
 .byte   N23 ,Gn3 ,v092
 .byte   W24
 .byte   N11 ,Gn2
 .byte   W12
 .byte   An2
 .byte   W12
 .byte   N23 ,Dn3
 .byte   W24
 .byte   N23
 .byte   W24
 .byte   PEND 
@  #08 @038   ----------------------------------------
 .byte   PATT
  .word Label_0100756A
@  #08 @039   ----------------------------------------
 .byte   PATT
  .word Label_0100757C
@  #08 @040   ----------------------------------------
 .byte   PATT
  .word Label_0100758D
@  #08 @041   ----------------------------------------
 .byte   PATT
  .word Label_0100759E
@  #08 @042   ----------------------------------------
 .byte   PATT
  .word Label_0100756A
@  #08 @043   ----------------------------------------
 .byte   PATT
  .word Label_0100757C
@  #08 @044   ----------------------------------------
 .byte   PATT
  .word Label_0100758D
@  #08 @045   ----------------------------------------
 .byte   PATT
  .word Label_010075BB
@  #08 @046   ----------------------------------------
Label_010075F2:
 .byte   PAN , c_v-24
 .byte   N23 ,En2 ,v092
 .byte   N23 ,Bn2
 .byte   W24
 .byte   N11 ,En1
 .byte   N11 ,Bn1
 .byte   W12
 .byte   N23 ,En2
 .byte   N23 ,Bn2
 .byte   W24
 .byte   En2
 .byte   N23 ,Bn2
 .byte   W24
 .byte   N11 ,En1
 .byte   N11 ,Bn1
 .byte   W12
 .byte   PEND 
@  #08 @047   ----------------------------------------
Label_0100760E:
 .byte   N23 ,En2 ,v092
 .byte   N23 ,Bn2
 .byte   W24
 .byte   N11 ,En1
 .byte   N11 ,Bn1
 .byte   W12
 .byte   N23 ,En2
 .byte   N23 ,Bn2
 .byte   W24
 .byte   En2
 .byte   N23 ,Bn2
 .byte   W24
 .byte   N11 ,En1
 .byte   N11 ,Bn1
 .byte   W12
 .byte   PEND 
@  #08 @048   ----------------------------------------
Label_01007628:
 .byte   PAN , c_v+16
 .byte   N23 ,Dn2 ,v092
 .byte   N23 ,Dn3
 .byte   W24
 .byte   N11 ,Dn1
 .byte   W12
 .byte   N23 ,Dn2
 .byte   N23 ,Dn3
 .byte   W24
 .byte   Dn2
 .byte   N23 ,Dn3
 .byte   W24
 .byte   N11 ,Dn1
 .byte   W12
 .byte   PEND 
@  #08 @049   ----------------------------------------
Label_01007640:
 .byte   N23 ,Dn2 ,v092
 .byte   N23 ,Dn3
 .byte   W24
 .byte   N11 ,Dn1
 .byte   W12
 .byte   N23 ,Dn2
 .byte   N23 ,Dn3
 .byte   W24
 .byte   Dn2
 .byte   N23 ,Dn3
 .byte   W24
 .byte   N11 ,Dn1
 .byte   W12
 .byte   PEND 
@  #08 @050   ----------------------------------------
Label_01007656:
 .byte   PAN , c_v-19
 .byte   N32 ,En2 ,v092
 .byte   W36
 .byte   As1
 .byte   W36
 .byte   N23 ,En1
 .byte   W24
 .byte   PEND 
@  #08 @051   ----------------------------------------
Label_01007662:
 .byte   N32 ,Bn1 ,v092
 .byte   W36
 .byte   As1
 .byte   W36
 .byte   N23 ,An1
 .byte   W24
 .byte   PEND 
@  #08 @052   ----------------------------------------
Label_0100766C:
 .byte   VOL , 44*song04_mvl/mxv
 .byte   N23 ,En2 ,v092
 .byte   N23 ,En3
 .byte   W24
 .byte   En2
 .byte   W24
 .byte   N23
 .byte   W24
 .byte   En1
 .byte   W24
 .byte   PEND 
@  #08 @053   ----------------------------------------
Label_0100767B:
 .byte   N23 ,En2 ,v092
 .byte   W24
 .byte   En1
 .byte   W24
 .byte   Dn2
 .byte   W24
 .byte   En2
 .byte   W24
 .byte   PEND 
@  #08 @054   ----------------------------------------
Label_01007686:
 .byte   N23 ,Fn2 ,v092
 .byte   W24
 .byte   N23
 .byte   W24
 .byte   N23
 .byte   W24
 .byte   Fn1
 .byte   W24
 .byte   PEND 
@  #08 @055   ----------------------------------------
Label_01007691:
 .byte   N23 ,Fn2 ,v092
 .byte   W24
 .byte   Fn1
 .byte   W24
 .byte   Dn2
 .byte   W24
 .byte   Fn2
 .byte   W24
 .byte   PEND 
@  #08 @056   ----------------------------------------
Label_0100769C:
 .byte   N23 ,Fs2 ,v092
 .byte   W24
 .byte   N23
 .byte   W24
 .byte   N23
 .byte   W24
 .byte   Fs1
 .byte   W24
 .byte   PEND 
@  #08 @057   ----------------------------------------
Label_010076A7:
 .byte   N23 ,Fs2 ,v092
 .byte   W24
 .byte   Fs1
 .byte   W24
 .byte   En2
 .byte   W24
 .byte   Fs2
 .byte   W24
 .byte   PEND 
@  #08 @058   ----------------------------------------
 .byte   PATT
  .word Label_01007686
@  #08 @059   ----------------------------------------
Label_010076B7:
 .byte   N32 ,Dn1 ,v092
 .byte   N32 ,Dn2
 .byte   W36
 .byte   Dn1
 .byte   N32 ,Dn2
 .byte   W36
 .byte   N23 ,Dn1
 .byte   N23 ,Dn2
 .byte   W24
 .byte   PEND 
@  #08 @060   ----------------------------------------
 .byte   PATT
  .word Label_0100766C
@  #08 @061   ----------------------------------------
 .byte   PATT
  .word Label_0100767B
@  #08 @062   ----------------------------------------
 .byte   PATT
  .word Label_01007686
@  #08 @063   ----------------------------------------
 .byte   PATT
  .word Label_01007691
@  #08 @064   ----------------------------------------
 .byte   PATT
  .word Label_0100769C
@  #08 @065   ----------------------------------------
 .byte   PATT
  .word Label_010076A7
@  #08 @066   ----------------------------------------
 .byte   PATT
  .word Label_01007686
@  #08 @067   ----------------------------------------
 .byte   PATT
  .word Label_01007691
@  #08 @068   ----------------------------------------
Label_010076EF:
 .byte   VOL , 50*song04_mvl/mxv
 .byte   TIE ,En2 ,v092
 .byte   TIE ,An2
 .byte   W96
 .byte   PEND 
@  #08 @069   ----------------------------------------
 .byte   W92
 .byte   W03
 .byte   EOT
 .byte   En2 ,v057
 .byte   W01
@  #08 @070   ----------------------------------------
Label_010076FE:
 .byte   TIE ,Dn2 ,v092
 .byte   TIE ,An2
 .byte   W96
 .byte   PEND 
@  #08 @071   ----------------------------------------
 .byte   W92
 .byte   W03
 .byte   EOT
 .byte   Dn2 ,v057
 .byte   W01
@  #08 @072   ----------------------------------------
Label_0100770B:
 .byte   TIE ,Bn1 ,v092
 .byte   TIE ,Fs2
 .byte   W96
 .byte   PEND 
@  #08 @073   ----------------------------------------
 .byte   W92
 .byte   W03
 .byte   EOT
 .byte   Bn1 ,v054
 .byte   W01
@  #08 @074   ----------------------------------------
 .byte   N92 ,An1
 .byte   N92 ,Fn2
 .byte   W96
@  #08 @075   ----------------------------------------
Label_0100771D:
 .byte   N32 ,Bn1 ,v092
 .byte   W36
 .byte   Gn1
 .byte   W36
 .byte   N23 ,Fn1
 .byte   W24
 .byte   PEND 
@  #08 @076   ----------------------------------------
 .byte   PATT
  .word Label_010076EF
@  #08 @077   ----------------------------------------
 .byte   W92
 .byte   W03
 .byte   EOT
 .byte   En2 ,v057
 .byte   W01
@  #08 @078   ----------------------------------------
 .byte   PATT
  .word Label_010076FE
@  #08 @079   ----------------------------------------
 .byte   W92
 .byte   W03
 .byte   EOT
 .byte   Dn2 ,v057
 .byte   W01
@  #08 @080   ----------------------------------------
 .byte   PATT
  .word Label_0100770B
@  #08 @081   ----------------------------------------
 .byte   W92
 .byte   W03
 .byte   EOT
 .byte   Bn1 ,v054
 .byte   W01
@  #08 @082   ----------------------------------------
Label_01007748:
 .byte   TIE ,An1 ,v092
 .byte   TIE ,Fn2
 .byte   W96
 .byte   PEND 
@  #08 @083   ----------------------------------------
 .byte   W92
 .byte   W03
 .byte   EOT
 .byte   An1 ,v053
 .byte   W01
@  #08 @084   ----------------------------------------
 .byte   PATT
  .word Label_0100766C
@  #08 @085   ----------------------------------------
 .byte   PATT
  .word Label_0100767B
@  #08 @086   ----------------------------------------
 .byte   PATT
  .word Label_01007686
@  #08 @087   ----------------------------------------
 .byte   PATT
  .word Label_01007691
@  #08 @088   ----------------------------------------
 .byte   PATT
  .word Label_0100769C
@  #08 @089   ----------------------------------------
 .byte   PATT
  .word Label_010076A7
@  #08 @090   ----------------------------------------
 .byte   PATT
  .word Label_01007686
@  #08 @091   ----------------------------------------
 .byte   PATT
  .word Label_010076B7
@  #08 @092   ----------------------------------------
 .byte   PATT
  .word Label_0100766C
@  #08 @093   ----------------------------------------
 .byte   PATT
  .word Label_0100767B
@  #08 @094   ----------------------------------------
 .byte   PATT
  .word Label_01007686
@  #08 @095   ----------------------------------------
 .byte   PATT
  .word Label_01007691
@  #08 @096   ----------------------------------------
 .byte   PATT
  .word Label_0100769C
@  #08 @097   ----------------------------------------
 .byte   PATT
  .word Label_010076A7
@  #08 @098   ----------------------------------------
 .byte   PATT
  .word Label_01007686
@  #08 @099   ----------------------------------------
 .byte   PATT
  .word Label_01007691
@  #08 @100   ----------------------------------------
 .byte   PATT
  .word Label_010076EF
@  #08 @101   ----------------------------------------
 .byte   W92
 .byte   W03
 .byte   EOT
 .byte   En2 ,v057
 .byte   W01
@  #08 @102   ----------------------------------------
 .byte   PATT
  .word Label_010076FE
@  #08 @103   ----------------------------------------
 .byte   W92
 .byte   W03
 .byte   EOT
 .byte   Dn2 ,v057
 .byte   W01
@  #08 @104   ----------------------------------------
 .byte   PATT
  .word Label_0100770B
@  #08 @105   ----------------------------------------
 .byte   W92
 .byte   W03
 .byte   EOT
 .byte   Bn1 ,v054
 .byte   W01
@  #08 @106   ----------------------------------------
 .byte   N92 ,An1 ,v092
 .byte   N92 ,Fn2
 .byte   W96
@  #08 @107   ----------------------------------------
 .byte   PATT
  .word Label_0100771D
@  #08 @108   ----------------------------------------
 .byte   PATT
  .word Label_010076EF
@  #08 @109   ----------------------------------------
 .byte   W92
 .byte   W03
 .byte   EOT
 .byte   En2 ,v057
 .byte   W01
@  #08 @110   ----------------------------------------
 .byte   PATT
  .word Label_010076FE
@  #08 @111   ----------------------------------------
 .byte   W92
 .byte   W03
 .byte   EOT
 .byte   Dn2 ,v057
 .byte   W01
@  #08 @112   ----------------------------------------
 .byte   PATT
  .word Label_0100770B
@  #08 @113   ----------------------------------------
 .byte   W92
 .byte   W03
 .byte   EOT
 .byte   Bn1 ,v054
 .byte   W01
@  #08 @114   ----------------------------------------
 .byte   PATT
  .word Label_01007748
@  #08 @115   ----------------------------------------
 .byte   W92
 .byte   W03
 .byte   EOT
 .byte   An1 ,v053
 .byte   W01
@  #08 @116   ----------------------------------------
Label_010077FD:
 .byte   TIE ,En1 ,v092
 .byte   TIE ,En2
 .byte   W96
 .byte   PEND 
@  #08 @117   ----------------------------------------
 .byte   W92
 .byte   W03
 .byte   EOT
 .byte   En1 ,v052
 .byte   W01
@  #08 @118   ----------------------------------------
Label_0100780A:
 .byte   TIE ,Fn1 ,v092
 .byte   TIE ,Fn2
 .byte   W96
 .byte   PEND 
@  #08 @119   ----------------------------------------
 .byte   W92
 .byte   W03
 .byte   EOT
 .byte   Fn1 ,v053
 .byte   W01
@  #08 @120   ----------------------------------------
Label_01007817:
 .byte   TIE ,Gn1 ,v092
 .byte   TIE ,Gn2
 .byte   W96
 .byte   PEND 
@  #08 @121   ----------------------------------------
 .byte   W92
 .byte   W03
 .byte   EOT
 .byte   Gn1 ,v055
 .byte   W01
@  #08 @122   ----------------------------------------
 .byte   PATT
  .word Label_0100780A
@  #08 @123   ----------------------------------------
 .byte   W92
 .byte   W03
 .byte   EOT
 .byte   Fn1 ,v053
 .byte   W01
@  #08 @124   ----------------------------------------
Label_0100782F:
 .byte   N11 ,En2 ,v092
 .byte   W12
 .byte   En1 ,v076
 .byte   N11 ,En2
 .byte   W12
 .byte   En2 ,v092
 .byte   W12
 .byte   En1 ,v076
 .byte   N11 ,En2
 .byte   W12
 .byte   En2 ,v092
 .byte   W12
 .byte   En1 ,v076
 .byte   N11 ,En2
 .byte   W12
 .byte   En2 ,v092
 .byte   W12
 .byte   En1 ,v076
 .byte   N11 ,En2
 .byte   W12
 .byte   PEND 
@  #08 @125   ----------------------------------------
 .byte   PATT
  .word Label_0100782F
@  #08 @126   ----------------------------------------
Label_01007856:
 .byte   N11 ,Fn2 ,v092
 .byte   W12
 .byte   Fn1 ,v076
 .byte   N11 ,Fn2
 .byte   W12
 .byte   Fn2 ,v092
 .byte   W12
 .byte   Fn1 ,v076
 .byte   N11 ,Fn2
 .byte   W12
 .byte   Fn2 ,v092
 .byte   W12
 .byte   Fn1 ,v076
 .byte   N11 ,Fn2
 .byte   W12
 .byte   Fn2 ,v092
 .byte   W12
 .byte   Fn1 ,v076
 .byte   N11 ,Fn2
 .byte   W12
 .byte   PEND 
@  #08 @127   ----------------------------------------
 .byte   PATT
  .word Label_01007856
@  #08 @128   ----------------------------------------
Label_0100787D:
 .byte   N11 ,Gn2 ,v092
 .byte   W12
 .byte   Gn1 ,v076
 .byte   N11 ,Gn2
 .byte   W12
 .byte   Gn2 ,v092
 .byte   W12
 .byte   Gn1 ,v076
 .byte   N11 ,Gn2
 .byte   W12
 .byte   Gn2 ,v092
 .byte   W12
 .byte   Gn1 ,v076
 .byte   N11 ,Gn2
 .byte   W12
 .byte   Gn2 ,v092
 .byte   W12
 .byte   Gn1 ,v076
 .byte   N11 ,Gn2
 .byte   W12
 .byte   PEND 
@  #08 @129   ----------------------------------------
 .byte   PATT
  .word Label_0100787D
@  #08 @130   ----------------------------------------
 .byte   PATT
  .word Label_01007856
@  #08 @131   ----------------------------------------
 .byte   PATT
  .word Label_01007856
@  #08 @132   ----------------------------------------
 .byte   PATT
  .word Label_010075F2
@  #08 @133   ----------------------------------------
 .byte   PATT
  .word Label_0100760E
@  #08 @134   ----------------------------------------
 .byte   PATT
  .word Label_01007628
@  #08 @135   ----------------------------------------
 .byte   PATT
  .word Label_01007640
@  #08 @136   ----------------------------------------
 .byte   PATT
  .word Label_010075F2
@  #08 @137   ----------------------------------------
 .byte   PATT
  .word Label_0100760E
@  #08 @138   ----------------------------------------
 .byte   PATT
  .word Label_01007628
@  #08 @139   ----------------------------------------
 .byte   PATT
  .word Label_01007640
@  #08 @140   ----------------------------------------
Label_010078D6:
 .byte   PAN , c_v-19
 .byte   N92 ,En2 ,v092
 .byte   W96
 .byte   PEND 
@  #08 @141   ----------------------------------------
 .byte   Cn2
 .byte   W96
@  #08 @142   ----------------------------------------
 .byte   Dn2
 .byte   W96
@  #08 @143   ----------------------------------------
 .byte   Gn1
 .byte   W96
@  #08 @144   ----------------------------------------
 .byte   Cn2
 .byte   W96
@  #08 @145   ----------------------------------------
 .byte   Ds2
 .byte   W96
@  #08 @146   ----------------------------------------
 .byte   TIE ,En2
 .byte   W96
@  #08 @147   ----------------------------------------
 .byte   W92
 .byte   W03
 .byte   EOT
 .byte   W01
@  #08 @148   ----------------------------------------
 .byte   TIE ,Bn1
 .byte   W96
@  #08 @149   ----------------------------------------
 .byte   W92
 .byte   W03
 .byte   EOT
 .byte   W01
@  #08 @150   ----------------------------------------
 .byte   TIE
 .byte   W96
@  #08 @151   ----------------------------------------
 .byte   W92
 .byte   W03
 .byte   EOT
 .byte   W01
@  #08 @152   ----------------------------------------
 .byte   N92 ,Cn2
 .byte   W96
@  #08 @153   ----------------------------------------
 .byte   Ds2
 .byte   W96
@  #08 @154   ----------------------------------------
 .byte   En2
 .byte   W96
@  #08 @155   ----------------------------------------
 .byte   Fs2
 .byte   W96
@  #08 @156   ----------------------------------------
 .byte   PATT
  .word Label_010078D6
@  #08 @157   ----------------------------------------
 .byte   N92 ,Cn2 ,v092
 .byte   W96
@  #08 @158   ----------------------------------------
 .byte   Dn2
 .byte   W96
@  #08 @159   ----------------------------------------
 .byte   Gn1
 .byte   W96
@  #08 @160   ----------------------------------------
 .byte   Cn2
 .byte   W96
@  #08 @161   ----------------------------------------
 .byte   Ds2
 .byte   W96
@  #08 @162   ----------------------------------------
 .byte   TIE ,En2
 .byte   W96
@  #08 @163   ----------------------------------------
 .byte   W92
 .byte   W03
 .byte   EOT
 .byte   W01
@  #08 @164   ----------------------------------------
 .byte   TIE ,Bn1
 .byte   W96
@  #08 @165   ----------------------------------------
 .byte   W96
@  #08 @166   ----------------------------------------
 .byte   W92
 .byte   W03
 .byte   EOT
 .byte   W01
@  #08 @167   ----------------------------------------
 .byte   N92 ,Cn2
 .byte   W96
@  #08 @168   ----------------------------------------
 .byte   Dn2
 .byte   W96
@  #08 @169   ----------------------------------------
 .byte   Ds2
 .byte   W96
@  #08 @170   ----------------------------------------
 .byte   TIE ,En2
 .byte   W96
@  #08 @171   ----------------------------------------
 .byte   W92
 .byte   W03
 .byte   EOT
 .byte   W01
@  #08 @172   ----------------------------------------
 .byte   PAN , c_v+16
 .byte   N23 ,En3
 .byte   W24
 .byte   N11 ,En2
 .byte   W12
 .byte   N11
 .byte   W12
 .byte   Gn2
 .byte   W12
 .byte   An2
 .byte   W12
 .byte   Gn2
 .byte   W12
 .byte   An2
 .byte   W12
@  #08 @173   ----------------------------------------
 .byte   PATT
  .word Label_0100757C
@  #08 @174   ----------------------------------------
 .byte   PATT
  .word Label_0100758D
@  #08 @175   ----------------------------------------
 .byte   PATT
  .word Label_0100759E
@  #08 @176   ----------------------------------------
 .byte   PATT
  .word Label_0100756A
@  #08 @177   ----------------------------------------
 .byte   PATT
  .word Label_0100757C
@  #08 @178   ----------------------------------------
 .byte   PATT
  .word Label_0100758D
@  #08 @179   ----------------------------------------
 .byte   PATT
  .word Label_010075BB
@  #08 @180   ----------------------------------------
 .byte   PATT
  .word Label_0100756A
@  #08 @181   ----------------------------------------
 .byte   PATT
  .word Label_0100757C
@  #08 @182   ----------------------------------------
 .byte   PATT
  .word Label_0100758D
@  #08 @183   ----------------------------------------
 .byte   PATT
  .word Label_0100759E
@  #08 @184   ----------------------------------------
 .byte   PATT
  .word Label_0100756A
@  #08 @185   ----------------------------------------
 .byte   PATT
  .word Label_0100757C
@  #08 @186   ----------------------------------------
 .byte   PATT
  .word Label_0100758D
@  #08 @187   ----------------------------------------
 .byte   PATT
  .word Label_010075BB
@  #08 @188   ----------------------------------------
 .byte   PATT
  .word Label_010075F2
@  #08 @189   ----------------------------------------
 .byte   PATT
  .word Label_0100760E
@  #08 @190   ----------------------------------------
 .byte   PATT
  .word Label_01007628
@  #08 @191   ----------------------------------------
 .byte   PATT
  .word Label_01007640
@  #08 @192   ----------------------------------------
 .byte   PATT
  .word Label_01007656
@  #08 @193   ----------------------------------------
 .byte   PATT
  .word Label_01007662
@  #08 @194   ----------------------------------------
 .byte   PATT
  .word Label_0100766C
@  #08 @195   ----------------------------------------
 .byte   PATT
  .word Label_0100767B
@  #08 @196   ----------------------------------------
 .byte   PATT
  .word Label_01007686
@  #08 @197   ----------------------------------------
 .byte   PATT
  .word Label_01007691
@  #08 @198   ----------------------------------------
 .byte   PATT
  .word Label_0100769C
@  #08 @199   ----------------------------------------
 .byte   PATT
  .word Label_010076A7
@  #08 @200   ----------------------------------------
 .byte   PATT
  .word Label_01007686
@  #08 @201   ----------------------------------------
 .byte   PATT
  .word Label_010076B7
@  #08 @202   ----------------------------------------
 .byte   PATT
  .word Label_0100766C
@  #08 @203   ----------------------------------------
 .byte   PATT
  .word Label_0100767B
@  #08 @204   ----------------------------------------
 .byte   PATT
  .word Label_01007686
@  #08 @205   ----------------------------------------
 .byte   PATT
  .word Label_01007691
@  #08 @206   ----------------------------------------
 .byte   PATT
  .word Label_0100769C
@  #08 @207   ----------------------------------------
 .byte   PATT
  .word Label_010076A7
@  #08 @208   ----------------------------------------
 .byte   PATT
  .word Label_01007686
@  #08 @209   ----------------------------------------
 .byte   PATT
  .word Label_01007691
@  #08 @210   ----------------------------------------
 .byte   PATT
  .word Label_010076EF
@  #08 @211   ----------------------------------------
 .byte   W92
 .byte   W03
 .byte   EOT
 .byte   En2 ,v057
 .byte   W01
@  #08 @212   ----------------------------------------
 .byte   PATT
  .word Label_010076FE
@  #08 @213   ----------------------------------------
 .byte   W92
 .byte   W03
 .byte   EOT
 .byte   Dn2 ,v057
 .byte   W01
@  #08 @214   ----------------------------------------
 .byte   PATT
  .word Label_0100770B
@  #08 @215   ----------------------------------------
 .byte   W92
 .byte   W03
 .byte   EOT
 .byte   Bn1 ,v054
 .byte   W01
@  #08 @216   ----------------------------------------
 .byte   N92 ,An1 ,v092
 .byte   N92 ,Fn2
 .byte   W96
@  #08 @217   ----------------------------------------
 .byte   PATT
  .word Label_0100771D
@  #08 @218   ----------------------------------------
 .byte   PATT
  .word Label_010076EF
@  #08 @219   ----------------------------------------
 .byte   W92
 .byte   W03
 .byte   EOT
 .byte   En2 ,v057
 .byte   W01
@  #08 @220   ----------------------------------------
 .byte   PATT
  .word Label_010076FE
@  #08 @221   ----------------------------------------
 .byte   W92
 .byte   W03
 .byte   EOT
 .byte   Dn2 ,v057
 .byte   W01
@  #08 @222   ----------------------------------------
 .byte   PATT
  .word Label_0100770B
@  #08 @223   ----------------------------------------
 .byte   W92
 .byte   W03
 .byte   EOT
 .byte   Bn1 ,v054
 .byte   W01
@  #08 @224   ----------------------------------------
 .byte   PATT
  .word Label_01007748
@  #08 @225   ----------------------------------------
 .byte   W92
 .byte   W03
 .byte   EOT
 .byte   An1 ,v053
 .byte   W01
@  #08 @226   ----------------------------------------
 .byte   PATT
  .word Label_0100766C
@  #08 @227   ----------------------------------------
 .byte   PATT
  .word Label_0100767B
@  #08 @228   ----------------------------------------
 .byte   PATT
  .word Label_01007686
@  #08 @229   ----------------------------------------
 .byte   PATT
  .word Label_01007691
@  #08 @230   ----------------------------------------
 .byte   PATT
  .word Label_0100769C
@  #08 @231   ----------------------------------------
 .byte   PATT
  .word Label_010076A7
@  #08 @232   ----------------------------------------
 .byte   PATT
  .word Label_01007686
@  #08 @233   ----------------------------------------
 .byte   PATT
  .word Label_010076B7
@  #08 @234   ----------------------------------------
 .byte   PATT
  .word Label_0100766C
@  #08 @235   ----------------------------------------
 .byte   PATT
  .word Label_0100767B
@  #08 @236   ----------------------------------------
 .byte   PATT
  .word Label_01007686
@  #08 @237   ----------------------------------------
 .byte   PATT
  .word Label_01007691
@  #08 @238   ----------------------------------------
 .byte   PATT
  .word Label_0100769C
@  #08 @239   ----------------------------------------
 .byte   PATT
  .word Label_010076A7
@  #08 @240   ----------------------------------------
 .byte   PATT
  .word Label_01007686
@  #08 @241   ----------------------------------------
 .byte   PATT
  .word Label_01007691
@  #08 @242   ----------------------------------------
 .byte   PATT
  .word Label_010076EF
@  #08 @243   ----------------------------------------
 .byte   W92
 .byte   W03
 .byte   EOT
 .byte   En2 ,v057
 .byte   W01
@  #08 @244   ----------------------------------------
 .byte   PATT
  .word Label_010076FE
@  #08 @245   ----------------------------------------
 .byte   W92
 .byte   W03
 .byte   EOT
 .byte   Dn2 ,v057
 .byte   W01
@  #08 @246   ----------------------------------------
 .byte   PATT
  .word Label_0100770B
@  #08 @247   ----------------------------------------
 .byte   W92
 .byte   W03
 .byte   EOT
 .byte   Bn1 ,v054
 .byte   W01
@  #08 @248   ----------------------------------------
 .byte   N92 ,An1 ,v092
 .byte   N92 ,Fn2
 .byte   W96
@  #08 @249   ----------------------------------------
 .byte   PATT
  .word Label_0100771D
@  #08 @250   ----------------------------------------
 .byte   PATT
  .word Label_010076EF
@  #08 @251   ----------------------------------------
 .byte   W92
 .byte   W03
 .byte   EOT
 .byte   En2 ,v057
 .byte   W01
@  #08 @252   ----------------------------------------
 .byte   PATT
  .word Label_010076FE
@  #08 @253   ----------------------------------------
 .byte   W92
 .byte   W03
 .byte   EOT
 .byte   Dn2 ,v057
 .byte   W01
@  #08 @254   ----------------------------------------
 .byte   PATT
  .word Label_0100770B
@  #08 @255   ----------------------------------------
 .byte   W92
 .byte   W03
 .byte   EOT
 .byte   Bn1 ,v054
 .byte   W01
@  #08 @256   ----------------------------------------
 .byte   PATT
  .word Label_01007748
@  #08 @257   ----------------------------------------
 .byte   W92
 .byte   W03
 .byte   EOT
 .byte   An1 ,v053
 .byte   W01
@  #08 @258   ----------------------------------------
 .byte   PATT
  .word Label_010077FD
@  #08 @259   ----------------------------------------
 .byte   W92
 .byte   W03
 .byte   EOT
 .byte   En1 ,v052
 .byte   W01
@  #08 @260   ----------------------------------------
 .byte   PATT
  .word Label_0100780A
@  #08 @261   ----------------------------------------
 .byte   W92
 .byte   W03
 .byte   EOT
 .byte   Fn1 ,v053
 .byte   W01
@  #08 @262   ----------------------------------------
 .byte   PATT
  .word Label_01007817
@  #08 @263   ----------------------------------------
 .byte   W92
 .byte   W03
 .byte   EOT
 .byte   Gn1 ,v055
 .byte   W01
@  #08 @264   ----------------------------------------
 .byte   PATT
  .word Label_0100780A
@  #08 @265   ----------------------------------------
 .byte   W92
 .byte   W03
 .byte   EOT
 .byte   Fn1 ,v053
 .byte   W01
@  #08 @266   ----------------------------------------
 .byte   PATT
  .word Label_0100782F
@  #08 @267   ----------------------------------------
 .byte   PATT
  .word Label_0100782F
@  #08 @268   ----------------------------------------
 .byte   PATT
  .word Label_01007856
@  #08 @269   ----------------------------------------
 .byte   PATT
  .word Label_01007856
@  #08 @270   ----------------------------------------
 .byte   PATT
  .word Label_0100787D
@  #08 @271   ----------------------------------------
 .byte   PATT
  .word Label_0100787D
@  #08 @272   ----------------------------------------
 .byte   PATT
  .word Label_01007856
@  #08 @273   ----------------------------------------
 .byte   PATT
  .word Label_01007856
@  #08 @274   ----------------------------------------
 .byte   PATT
  .word Label_010075F2
@  #08 @275   ----------------------------------------
 .byte   PATT
  .word Label_0100760E
@  #08 @276   ----------------------------------------
 .byte   PATT
  .word Label_01007628
@  #08 @277   ----------------------------------------
 .byte   PATT
  .word Label_01007640
@  #08 @278   ----------------------------------------
 .byte   PATT
  .word Label_010075F2
@  #08 @279   ----------------------------------------
 .byte   PATT
  .word Label_0100760E
@  #08 @280   ----------------------------------------
 .byte   PATT
  .word Label_01007628
@  #08 @281   ----------------------------------------
 .byte   PATT
  .word Label_01007640
@  #08 @282   ----------------------------------------
 .byte   PATT
  .word Label_010078D6
@  #08 @283   ----------------------------------------
 .byte   N92 ,Cn2 ,v092
 .byte   W96
@  #08 @284   ----------------------------------------
 .byte   Dn2
 .byte   W96
@  #08 @285   ----------------------------------------
 .byte   Gn1
 .byte   W96
@  #08 @286   ----------------------------------------
 .byte   Cn2
 .byte   W96
@  #08 @287   ----------------------------------------
 .byte   Ds2
 .byte   W96
@  #08 @288   ----------------------------------------
 .byte   TIE ,En2
 .byte   W96
@  #08 @289   ----------------------------------------
 .byte   W92
 .byte   W03
 .byte   EOT
 .byte   W01
@  #08 @290   ----------------------------------------
 .byte   TIE ,Bn1
 .byte   W96
@  #08 @291   ----------------------------------------
 .byte   W92
 .byte   W03
 .byte   EOT
 .byte   W01
@  #08 @292   ----------------------------------------
 .byte   TIE
 .byte   W96
@  #08 @293   ----------------------------------------
 .byte   W92
 .byte   W03
 .byte   EOT
 .byte   W01
@  #08 @294   ----------------------------------------
 .byte   N92 ,Cn2
 .byte   W96
@  #08 @295   ----------------------------------------
 .byte   Ds2
 .byte   W96
@  #08 @296   ----------------------------------------
 .byte   En2
 .byte   W96
@  #08 @297   ----------------------------------------
 .byte   Fs2
 .byte   W96
@  #08 @298   ----------------------------------------
 .byte   PATT
  .word Label_010078D6
@  #08 @299   ----------------------------------------
 .byte   N92 ,Cn2 ,v092
 .byte   W96
@  #08 @300   ----------------------------------------
 .byte   Dn2
 .byte   W96
@  #08 @301   ----------------------------------------
 .byte   Gn1
 .byte   W96
@  #08 @302   ----------------------------------------
 .byte   Cn2
 .byte   W96
@  #08 @303   ----------------------------------------
 .byte   Ds2
 .byte   W96
@  #08 @304   ----------------------------------------
 .byte   TIE ,En2
 .byte   W96
@  #08 @305   ----------------------------------------
 .byte   W92
 .byte   W03
 .byte   EOT
 .byte   W01
@  #08 @306   ----------------------------------------
 .byte   TIE ,Bn1
 .byte   W96
@  #08 @307   ----------------------------------------
 .byte   W96
@  #08 @308   ----------------------------------------
 .byte   W92
 .byte   W03
 .byte   EOT
 .byte   W01
@  #08 @309   ----------------------------------------
 .byte   N92 ,Cn2
 .byte   W96
@  #08 @310   ----------------------------------------
 .byte   Dn2
 .byte   W96
@  #08 @311   ----------------------------------------
 .byte   Ds2
 .byte   W96
@  #08 @312   ----------------------------------------
 .byte   TIE ,En2
 .byte   W96
@  #08 @313   ----------------------------------------
 .byte   W92
 .byte   W03
 .byte   EOT
 .byte   W01
@  #08 @314   ----------------------------------------
 .byte   PATT
  .word Label_010078D6
@  #08 @315   ----------------------------------------
 .byte   N92 ,Cn2 ,v092
 .byte   W96
@  #08 @316   ----------------------------------------
 .byte   Dn2
 .byte   W96
@  #08 @317   ----------------------------------------
 .byte   Gn1
 .byte   W96
@  #08 @318   ----------------------------------------
 .byte   Cn2
 .byte   W96
@  #08 @319   ----------------------------------------
 .byte   Ds2
 .byte   W96
@  #08 @320   ----------------------------------------
 .byte   TIE ,En2
 .byte   W96
@  #08 @321   ----------------------------------------
 .byte   W92
 .byte   W03
 .byte   EOT
 .byte   W01
@  #08 @322   ----------------------------------------
 .byte   TIE ,Bn1
 .byte   W96
@  #08 @323   ----------------------------------------
 .byte   W96
@  #08 @324   ----------------------------------------
 .byte   W92
 .byte   W03
 .byte   EOT
 .byte   W01
@  #08 @325   ----------------------------------------
 .byte   N92 ,Cn2
 .byte   W96
@  #08 @326   ----------------------------------------
 .byte   Dn2
 .byte   W96
@  #08 @327   ----------------------------------------
 .byte   Ds2
 .byte   W96
@  #08 @328   ----------------------------------------
 .byte   TIE ,En2
 .byte   W96
@  #08 @329   ----------------------------------------
 .byte   W92
 .byte   W03
 .byte   EOT
 .byte   W01
@  #08 @330   ----------------------------------------
 .byte   GOTO
  .word Label_01007562
@  #08 @331   ----------------------------------------
 .byte   PATT
  .word Label_0100756A
@  #08 @332   ----------------------------------------
 .byte   PATT
  .word Label_0100757C
@  #08 @333   ----------------------------------------
 .byte   PAN , c_v+16
 .byte   N23 ,En3 ,v092
 .byte   W24
 .byte   N11 ,En2
 .byte   W12
 .byte   Gn2
 .byte   W12
 .byte   N23 ,An2
 .byte   W24
 .byte   N11
 .byte   W12
 .byte   N11
 .byte   W12
@  #08 @334   ----------------------------------------
 .byte   PATT
  .word Label_0100759E
@  #08 @335   ----------------------------------------
 .byte   PATT
  .word Label_0100756A
@  #08 @336   ----------------------------------------
 .byte   PATT
  .word Label_0100757C
@  #08 @337   ----------------------------------------
 .byte   PATT
  .word Label_0100758D
@  #08 @338   ----------------------------------------
 .byte   PATT
  .word Label_010075BB
@  #08 @339   ----------------------------------------
 .byte   PATT
  .word Label_0100756A
@  #08 @340   ----------------------------------------
 .byte   PATT
  .word Label_0100757C
@  #08 @341   ----------------------------------------
 .byte   PATT
  .word Label_0100758D
@  #08 @342   ----------------------------------------
 .byte   PATT
  .word Label_0100759E
@  #08 @343   ----------------------------------------
 .byte   PATT
  .word Label_0100756A
@  #08 @344   ----------------------------------------
 .byte   PATT
  .word Label_0100757C
@  #08 @345   ----------------------------------------
 .byte   PATT
  .word Label_0100758D
@  #08 @346   ----------------------------------------
 .byte   PATT
  .word Label_010075BB
@  #08 @347   ----------------------------------------
 .byte   PATT
  .word Label_010075F2
@  #08 @348   ----------------------------------------
 .byte   PATT
  .word Label_0100760E
 .byte   FINE

@**************** Track 9 (Midi-Chn.8) ****************@

song04_009:
@  #09 @000   ----------------------------------------
 .byte   KEYSH , song04_key+0
 .byte   VOICE , 36
 .byte   PAN , c_v+6
 .byte   VOL , 50*song04_mvl/mxv
 .byte   W96
@  #09 @001   ----------------------------------------
 .byte   W96
@  #09 @002   ----------------------------------------
 .byte   W96
@  #09 @003   ----------------------------------------
 .byte   W96
@  #09 @004   ----------------------------------------
 .byte   W96
@  #09 @005   ----------------------------------------
 .byte   W96
@  #09 @006   ----------------------------------------
 .byte   W96
@  #09 @007   ----------------------------------------
 .byte   W96
@  #09 @008   ----------------------------------------
 .byte   W96
@  #09 @009   ----------------------------------------
 .byte   W96
@  #09 @010   ----------------------------------------
Label_01007C92:
 .byte   N11 ,En1 ,v092
 .byte   W12
 .byte   Bn1
 .byte   W12
 .byte   En1
 .byte   W12
 .byte   Bn1
 .byte   W12
 .byte   N11
 .byte   W12
 .byte   En1
 .byte   W12
 .byte   N44 ,An1
 .byte   W24
 .byte   PEND 
@  #09 @011   ----------------------------------------
Label_01007CA4:
 .byte   W24
 .byte   N11 ,An1 ,v092
 .byte   W12
 .byte   N11
 .byte   W12
 .byte   N11
 .byte   W12
 .byte   N11
 .byte   W12
 .byte   N11
 .byte   W12
 .byte   N11
 .byte   W12
 .byte   PEND 
@  #09 @012   ----------------------------------------
 .byte   TIE ,Cn2
 .byte   W96
@  #09 @013   ----------------------------------------
 .byte   W92
 .byte   W03
 .byte   EOT
 .byte   W01
@  #09 @014   ----------------------------------------
 .byte   PATT
  .word Label_01007C92
@  #09 @015   ----------------------------------------
 .byte   PATT
  .word Label_01007CA4
@  #09 @016   ----------------------------------------
 .byte   TIE ,Cn2 ,v092
 .byte   W96
@  #09 @017   ----------------------------------------
 .byte   W92
 .byte   W03
 .byte   EOT
 .byte   W01
@  #09 @018   ----------------------------------------
 .byte   PATT
  .word Label_01007C92
@  #09 @019   ----------------------------------------
 .byte   PATT
  .word Label_01007CA4
@  #09 @020   ----------------------------------------
 .byte   TIE ,Cn2 ,v092
 .byte   W96
@  #09 @021   ----------------------------------------
 .byte   W92
 .byte   W03
 .byte   EOT
 .byte   W01
@  #09 @022   ----------------------------------------
Label_01007CDF:
 .byte   W96
@  #09 @023   ----------------------------------------
 .byte   W96
@  #09 @024   ----------------------------------------
 .byte   W96
@  #09 @025   ----------------------------------------
 .byte   W96
@  #09 @026   ----------------------------------------
 .byte   W96
@  #09 @027   ----------------------------------------
 .byte   W96
@  #09 @028   ----------------------------------------
 .byte   W96
@  #09 @029   ----------------------------------------
 .byte   W96
@  #09 @030   ----------------------------------------
 .byte   W96
@  #09 @031   ----------------------------------------
 .byte   W96
@  #09 @032   ----------------------------------------
 .byte   W96
@  #09 @033   ----------------------------------------
 .byte   W96
@  #09 @034   ----------------------------------------
 .byte   W96
@  #09 @035   ----------------------------------------
 .byte   W96
@  #09 @036   ----------------------------------------
 .byte   W96
@  #09 @037   ----------------------------------------
 .byte   W96
@  #09 @038   ----------------------------------------
 .byte   W96
@  #09 @039   ----------------------------------------
 .byte   W96
@  #09 @040   ----------------------------------------
 .byte   W96
@  #09 @041   ----------------------------------------
 .byte   W96
@  #09 @042   ----------------------------------------
 .byte   W96
@  #09 @043   ----------------------------------------
 .byte   W96
@  #09 @044   ----------------------------------------
 .byte   W96
@  #09 @045   ----------------------------------------
 .byte   W96
@  #09 @046   ----------------------------------------
 .byte   W96
@  #09 @047   ----------------------------------------
 .byte   W96
@  #09 @048   ----------------------------------------
 .byte   W96
@  #09 @049   ----------------------------------------
 .byte   W96
@  #09 @050   ----------------------------------------
 .byte   W96
@  #09 @051   ----------------------------------------
 .byte   W96
@  #09 @052   ----------------------------------------
 .byte   W96
@  #09 @053   ----------------------------------------
 .byte   W96
@  #09 @054   ----------------------------------------
 .byte   W96
@  #09 @055   ----------------------------------------
 .byte   W96
@  #09 @056   ----------------------------------------
 .byte   W96
@  #09 @057   ----------------------------------------
 .byte   W96
@  #09 @058   ----------------------------------------
 .byte   W96
@  #09 @059   ----------------------------------------
 .byte   W96
@  #09 @060   ----------------------------------------
 .byte   W96
@  #09 @061   ----------------------------------------
 .byte   W96
@  #09 @062   ----------------------------------------
 .byte   W96
@  #09 @063   ----------------------------------------
 .byte   W96
@  #09 @064   ----------------------------------------
 .byte   W96
@  #09 @065   ----------------------------------------
 .byte   W96
@  #09 @066   ----------------------------------------
 .byte   W96
@  #09 @067   ----------------------------------------
 .byte   W96
@  #09 @068   ----------------------------------------
 .byte   W96
@  #09 @069   ----------------------------------------
 .byte   W96
@  #09 @070   ----------------------------------------
 .byte   W96
@  #09 @071   ----------------------------------------
 .byte   W96
@  #09 @072   ----------------------------------------
 .byte   W96
@  #09 @073   ----------------------------------------
 .byte   W96
@  #09 @074   ----------------------------------------
 .byte   W96
@  #09 @075   ----------------------------------------
 .byte   W96
@  #09 @076   ----------------------------------------
 .byte   W96
@  #09 @077   ----------------------------------------
 .byte   W96
@  #09 @078   ----------------------------------------
 .byte   W96
@  #09 @079   ----------------------------------------
 .byte   W96
@  #09 @080   ----------------------------------------
 .byte   W96
@  #09 @081   ----------------------------------------
 .byte   W96
@  #09 @082   ----------------------------------------
 .byte   W96
@  #09 @083   ----------------------------------------
 .byte   W96
@  #09 @084   ----------------------------------------
 .byte   W96
@  #09 @085   ----------------------------------------
 .byte   W96
@  #09 @086   ----------------------------------------
 .byte   W96
@  #09 @087   ----------------------------------------
 .byte   W96
@  #09 @088   ----------------------------------------
 .byte   W96
@  #09 @089   ----------------------------------------
 .byte   W96
@  #09 @090   ----------------------------------------
 .byte   W96
@  #09 @091   ----------------------------------------
 .byte   W96
@  #09 @092   ----------------------------------------
 .byte   W96
@  #09 @093   ----------------------------------------
 .byte   W96
@  #09 @094   ----------------------------------------
 .byte   W96
@  #09 @095   ----------------------------------------
 .byte   W96
@  #09 @096   ----------------------------------------
 .byte   W96
@  #09 @097   ----------------------------------------
 .byte   W96
@  #09 @098   ----------------------------------------
 .byte   W96
@  #09 @099   ----------------------------------------
 .byte   W96
@  #09 @100   ----------------------------------------
 .byte   W96
@  #09 @101   ----------------------------------------
 .byte   W96
@  #09 @102   ----------------------------------------
 .byte   W96
@  #09 @103   ----------------------------------------
 .byte   W96
@  #09 @104   ----------------------------------------
 .byte   W96
@  #09 @105   ----------------------------------------
 .byte   W96
@  #09 @106   ----------------------------------------
 .byte   W96
@  #09 @107   ----------------------------------------
 .byte   W96
@  #09 @108   ----------------------------------------
 .byte   W96
@  #09 @109   ----------------------------------------
 .byte   W96
@  #09 @110   ----------------------------------------
 .byte   W96
@  #09 @111   ----------------------------------------
 .byte   W96
@  #09 @112   ----------------------------------------
 .byte   W96
@  #09 @113   ----------------------------------------
 .byte   W96
@  #09 @114   ----------------------------------------
 .byte   W96
@  #09 @115   ----------------------------------------
 .byte   W96
@  #09 @116   ----------------------------------------
 .byte   W96
@  #09 @117   ----------------------------------------
 .byte   W96
@  #09 @118   ----------------------------------------
 .byte   W96
@  #09 @119   ----------------------------------------
 .byte   W96
@  #09 @120   ----------------------------------------
 .byte   W96
@  #09 @121   ----------------------------------------
 .byte   W96
@  #09 @122   ----------------------------------------
 .byte   W96
@  #09 @123   ----------------------------------------
 .byte   W96
@  #09 @124   ----------------------------------------
 .byte   W96
@  #09 @125   ----------------------------------------
 .byte   W96
@  #09 @126   ----------------------------------------
 .byte   W96
@  #09 @127   ----------------------------------------
 .byte   W96
@  #09 @128   ----------------------------------------
 .byte   W96
@  #09 @129   ----------------------------------------
 .byte   W96
@  #09 @130   ----------------------------------------
 .byte   W96
@  #09 @131   ----------------------------------------
 .byte   W96
@  #09 @132   ----------------------------------------
 .byte   W96
@  #09 @133   ----------------------------------------
 .byte   W96
@  #09 @134   ----------------------------------------
 .byte   W96
@  #09 @135   ----------------------------------------
 .byte   W96
@  #09 @136   ----------------------------------------
 .byte   W96
@  #09 @137   ----------------------------------------
 .byte   W96
@  #09 @138   ----------------------------------------
 .byte   W96
@  #09 @139   ----------------------------------------
 .byte   W96
@  #09 @140   ----------------------------------------
 .byte   W96
@  #09 @141   ----------------------------------------
 .byte   W96
@  #09 @142   ----------------------------------------
 .byte   W96
@  #09 @143   ----------------------------------------
 .byte   W96
@  #09 @144   ----------------------------------------
 .byte   W96
@  #09 @145   ----------------------------------------
 .byte   W96
@  #09 @146   ----------------------------------------
 .byte   W96
@  #09 @147   ----------------------------------------
 .byte   W96
@  #09 @148   ----------------------------------------
 .byte   W96
@  #09 @149   ----------------------------------------
 .byte   W96
@  #09 @150   ----------------------------------------
 .byte   W96
@  #09 @151   ----------------------------------------
 .byte   W96
@  #09 @152   ----------------------------------------
 .byte   W96
@  #09 @153   ----------------------------------------
 .byte   W96
@  #09 @154   ----------------------------------------
 .byte   W96
@  #09 @155   ----------------------------------------
 .byte   W96
@  #09 @156   ----------------------------------------
 .byte   W96
@  #09 @157   ----------------------------------------
 .byte   W96
@  #09 @158   ----------------------------------------
 .byte   W96
@  #09 @159   ----------------------------------------
 .byte   W96
@  #09 @160   ----------------------------------------
 .byte   W96
@  #09 @161   ----------------------------------------
 .byte   W96
@  #09 @162   ----------------------------------------
 .byte   W96
@  #09 @163   ----------------------------------------
 .byte   W96
@  #09 @164   ----------------------------------------
 .byte   W96
@  #09 @165   ----------------------------------------
 .byte   W96
@  #09 @166   ----------------------------------------
 .byte   W96
@  #09 @167   ----------------------------------------
 .byte   W96
@  #09 @168   ----------------------------------------
 .byte   W96
@  #09 @169   ----------------------------------------
 .byte   W96
@  #09 @170   ----------------------------------------
 .byte   W96
@  #09 @171   ----------------------------------------
 .byte   W96
@  #09 @172   ----------------------------------------
 .byte   W96
@  #09 @173   ----------------------------------------
 .byte   W96
@  #09 @174   ----------------------------------------
 .byte   W96
@  #09 @175   ----------------------------------------
 .byte   W96
@  #09 @176   ----------------------------------------
 .byte   W96
@  #09 @177   ----------------------------------------
 .byte   W96
@  #09 @178   ----------------------------------------
 .byte   W96
@  #09 @179   ----------------------------------------
 .byte   W96
@  #09 @180   ----------------------------------------
 .byte   W96
@  #09 @181   ----------------------------------------
 .byte   W96
@  #09 @182   ----------------------------------------
 .byte   W96
@  #09 @183   ----------------------------------------
 .byte   W96
@  #09 @184   ----------------------------------------
 .byte   W96
@  #09 @185   ----------------------------------------
 .byte   W96
@  #09 @186   ----------------------------------------
 .byte   W96
@  #09 @187   ----------------------------------------
 .byte   W96
@  #09 @188   ----------------------------------------
 .byte   W96
@  #09 @189   ----------------------------------------
 .byte   W96
@  #09 @190   ----------------------------------------
 .byte   W96
@  #09 @191   ----------------------------------------
 .byte   W96
@  #09 @192   ----------------------------------------
 .byte   W96
@  #09 @193   ----------------------------------------
 .byte   W96
@  #09 @194   ----------------------------------------
 .byte   W96
@  #09 @195   ----------------------------------------
 .byte   W96
@  #09 @196   ----------------------------------------
 .byte   W96
@  #09 @197   ----------------------------------------
 .byte   W96
@  #09 @198   ----------------------------------------
 .byte   W96
@  #09 @199   ----------------------------------------
 .byte   W96
@  #09 @200   ----------------------------------------
 .byte   W96
@  #09 @201   ----------------------------------------
 .byte   W96
@  #09 @202   ----------------------------------------
 .byte   W96
@  #09 @203   ----------------------------------------
 .byte   W96
@  #09 @204   ----------------------------------------
 .byte   W96
@  #09 @205   ----------------------------------------
 .byte   W96
@  #09 @206   ----------------------------------------
 .byte   W96
@  #09 @207   ----------------------------------------
 .byte   W96
@  #09 @208   ----------------------------------------
 .byte   W96
@  #09 @209   ----------------------------------------
 .byte   W96
@  #09 @210   ----------------------------------------
 .byte   W96
@  #09 @211   ----------------------------------------
 .byte   W96
@  #09 @212   ----------------------------------------
 .byte   W96
@  #09 @213   ----------------------------------------
 .byte   W96
@  #09 @214   ----------------------------------------
 .byte   W96
@  #09 @215   ----------------------------------------
 .byte   W96
@  #09 @216   ----------------------------------------
 .byte   W96
@  #09 @217   ----------------------------------------
 .byte   W96
@  #09 @218   ----------------------------------------
 .byte   W96
@  #09 @219   ----------------------------------------
 .byte   W96
@  #09 @220   ----------------------------------------
 .byte   W96
@  #09 @221   ----------------------------------------
 .byte   W96
@  #09 @222   ----------------------------------------
 .byte   W96
@  #09 @223   ----------------------------------------
 .byte   W96
@  #09 @224   ----------------------------------------
 .byte   W96
@  #09 @225   ----------------------------------------
 .byte   W96
@  #09 @226   ----------------------------------------
 .byte   W96
@  #09 @227   ----------------------------------------
 .byte   W96
@  #09 @228   ----------------------------------------
 .byte   W96
@  #09 @229   ----------------------------------------
 .byte   W96
@  #09 @230   ----------------------------------------
 .byte   W96
@  #09 @231   ----------------------------------------
 .byte   W96
@  #09 @232   ----------------------------------------
 .byte   W96
@  #09 @233   ----------------------------------------
 .byte   W96
@  #09 @234   ----------------------------------------
 .byte   W96
@  #09 @235   ----------------------------------------
 .byte   W96
@  #09 @236   ----------------------------------------
 .byte   W96
@  #09 @237   ----------------------------------------
 .byte   W96
@  #09 @238   ----------------------------------------
 .byte   W96
@  #09 @239   ----------------------------------------
 .byte   W96
@  #09 @240   ----------------------------------------
 .byte   W96
@  #09 @241   ----------------------------------------
 .byte   W96
@  #09 @242   ----------------------------------------
 .byte   W96
@  #09 @243   ----------------------------------------
 .byte   W96
@  #09 @244   ----------------------------------------
 .byte   W96
@  #09 @245   ----------------------------------------
 .byte   W96
@  #09 @246   ----------------------------------------
 .byte   W96
@  #09 @247   ----------------------------------------
 .byte   W96
@  #09 @248   ----------------------------------------
 .byte   W96
@  #09 @249   ----------------------------------------
 .byte   W96
@  #09 @250   ----------------------------------------
 .byte   W96
@  #09 @251   ----------------------------------------
 .byte   W96
@  #09 @252   ----------------------------------------
 .byte   W96
@  #09 @253   ----------------------------------------
 .byte   W96
@  #09 @254   ----------------------------------------
 .byte   W96
@  #09 @255   ----------------------------------------
 .byte   W96
@  #09 @256   ----------------------------------------
 .byte   W96
@  #09 @257   ----------------------------------------
 .byte   W96
@  #09 @258   ----------------------------------------
 .byte   W96
@  #09 @259   ----------------------------------------
 .byte   W96
@  #09 @260   ----------------------------------------
 .byte   W96
@  #09 @261   ----------------------------------------
 .byte   W96
@  #09 @262   ----------------------------------------
 .byte   W96
@  #09 @263   ----------------------------------------
 .byte   W96
@  #09 @264   ----------------------------------------
 .byte   W96
@  #09 @265   ----------------------------------------
 .byte   W96
@  #09 @266   ----------------------------------------
 .byte   W96
@  #09 @267   ----------------------------------------
 .byte   W96
@  #09 @268   ----------------------------------------
 .byte   W96
@  #09 @269   ----------------------------------------
 .byte   W96
@  #09 @270   ----------------------------------------
 .byte   W96
@  #09 @271   ----------------------------------------
 .byte   W96
@  #09 @272   ----------------------------------------
 .byte   W96
@  #09 @273   ----------------------------------------
 .byte   W96
@  #09 @274   ----------------------------------------
 .byte   W96
@  #09 @275   ----------------------------------------
 .byte   W96
@  #09 @276   ----------------------------------------
 .byte   W96
@  #09 @277   ----------------------------------------
 .byte   W96
@  #09 @278   ----------------------------------------
 .byte   W96
@  #09 @279   ----------------------------------------
 .byte   W96
@  #09 @280   ----------------------------------------
 .byte   W96
@  #09 @281   ----------------------------------------
 .byte   W96
@  #09 @282   ----------------------------------------
 .byte   W96
@  #09 @283   ----------------------------------------
 .byte   W96
@  #09 @284   ----------------------------------------
 .byte   W96
@  #09 @285   ----------------------------------------
 .byte   W96
@  #09 @286   ----------------------------------------
 .byte   W96
@  #09 @287   ----------------------------------------
 .byte   W96
@  #09 @288   ----------------------------------------
 .byte   W96
@  #09 @289   ----------------------------------------
 .byte   W96
@  #09 @290   ----------------------------------------
 .byte   W96
@  #09 @291   ----------------------------------------
 .byte   W96
@  #09 @292   ----------------------------------------
 .byte   W96
@  #09 @293   ----------------------------------------
 .byte   W96
@  #09 @294   ----------------------------------------
 .byte   W96
@  #09 @295   ----------------------------------------
 .byte   W96
@  #09 @296   ----------------------------------------
 .byte   W96
@  #09 @297   ----------------------------------------
 .byte   W96
@  #09 @298   ----------------------------------------
 .byte   W96
@  #09 @299   ----------------------------------------
 .byte   W96
@  #09 @300   ----------------------------------------
 .byte   W96
@  #09 @301   ----------------------------------------
 .byte   W96
@  #09 @302   ----------------------------------------
 .byte   W96
@  #09 @303   ----------------------------------------
 .byte   W96
@  #09 @304   ----------------------------------------
 .byte   W96
@  #09 @305   ----------------------------------------
 .byte   W96
@  #09 @306   ----------------------------------------
 .byte   W96
@  #09 @307   ----------------------------------------
 .byte   W96
@  #09 @308   ----------------------------------------
 .byte   W96
@  #09 @309   ----------------------------------------
 .byte   W96
@  #09 @310   ----------------------------------------
 .byte   W96
@  #09 @311   ----------------------------------------
 .byte   W96
@  #09 @312   ----------------------------------------
 .byte   W96
@  #09 @313   ----------------------------------------
 .byte   W96
@  #09 @314   ----------------------------------------
 .byte   W96
@  #09 @315   ----------------------------------------
 .byte   W96
@  #09 @316   ----------------------------------------
 .byte   W96
@  #09 @317   ----------------------------------------
 .byte   W96
@  #09 @318   ----------------------------------------
 .byte   W96
@  #09 @319   ----------------------------------------
 .byte   W96
@  #09 @320   ----------------------------------------
 .byte   W96
@  #09 @321   ----------------------------------------
 .byte   W96
@  #09 @322   ----------------------------------------
 .byte   W96
@  #09 @323   ----------------------------------------
 .byte   W96
@  #09 @324   ----------------------------------------
 .byte   W96
@  #09 @325   ----------------------------------------
 .byte   W96
@  #09 @326   ----------------------------------------
 .byte   W96
@  #09 @327   ----------------------------------------
 .byte   W96
@  #09 @328   ----------------------------------------
 .byte   W96
@  #09 @329   ----------------------------------------
 .byte   W96
@  #09 @330   ----------------------------------------
 .byte   GOTO
  .word Label_01007CDF
@  #09 @331   ----------------------------------------
 .byte   W96
@  #09 @332   ----------------------------------------
 .byte   W96
@  #09 @333   ----------------------------------------
 .byte   W96
@  #09 @334   ----------------------------------------
 .byte   W96
@  #09 @335   ----------------------------------------
 .byte   W96
@  #09 @336   ----------------------------------------
 .byte   W96
@  #09 @337   ----------------------------------------
 .byte   W96
@  #09 @338   ----------------------------------------
 .byte   W96
@  #09 @339   ----------------------------------------
 .byte   W96
@  #09 @340   ----------------------------------------
 .byte   W96
@  #09 @341   ----------------------------------------
 .byte   W96
@  #09 @342   ----------------------------------------
 .byte   W96
@  #09 @343   ----------------------------------------
 .byte   W96
@  #09 @344   ----------------------------------------
 .byte   W96
@  #09 @345   ----------------------------------------
 .byte   W96
@  #09 @346   ----------------------------------------
 .byte   W96
@  #09 @347   ----------------------------------------
 .byte   W96
@  #09 @348   ----------------------------------------
 .byte   W96
 .byte   FINE

@**************** Track 10 (Midi-Chn.9) ****************@

song04_010:
@  #10 @000   ----------------------------------------
 .byte   KEYSH , song04_key+0
 .byte   VOICE , 1
 .byte   PAN , c_v+6
 .byte   VOL , 30*song04_mvl/mxv
 .byte   W96
@  #10 @001   ----------------------------------------
 .byte   W96
@  #10 @002   ----------------------------------------
 .byte   W96
@  #10 @003   ----------------------------------------
 .byte   W96
@  #10 @004   ----------------------------------------
 .byte   W96
@  #10 @005   ----------------------------------------
 .byte   W96
@  #10 @006   ----------------------------------------
 .byte   W96
@  #10 @007   ----------------------------------------
 .byte   W96
@  #10 @008   ----------------------------------------
 .byte   W96
@  #10 @009   ----------------------------------------
 .byte   W96
@  #10 @010   ----------------------------------------
 .byte   W96
@  #10 @011   ----------------------------------------
 .byte   W96
@  #10 @012   ----------------------------------------
 .byte   W96
@  #10 @013   ----------------------------------------
 .byte   W96
@  #10 @014   ----------------------------------------
 .byte   W96
@  #10 @015   ----------------------------------------
 .byte   W96
@  #10 @016   ----------------------------------------
 .byte   W96
@  #10 @017   ----------------------------------------
 .byte   W96
@  #10 @018   ----------------------------------------
 .byte   W96
@  #10 @019   ----------------------------------------
 .byte   W96
@  #10 @020   ----------------------------------------
 .byte   W96
@  #10 @021   ----------------------------------------
 .byte   W96
@  #10 @022   ----------------------------------------
Label_01007E5A:
 .byte   W96
@  #10 @023   ----------------------------------------
 .byte   W96
@  #10 @024   ----------------------------------------
 .byte   W96
@  #10 @025   ----------------------------------------
 .byte   W96
@  #10 @026   ----------------------------------------
 .byte   W96
@  #10 @027   ----------------------------------------
 .byte   W96
@  #10 @028   ----------------------------------------
 .byte   W96
@  #10 @029   ----------------------------------------
 .byte   W96
@  #10 @030   ----------------------------------------
 .byte   W96
@  #10 @031   ----------------------------------------
 .byte   W96
@  #10 @032   ----------------------------------------
 .byte   W96
@  #10 @033   ----------------------------------------
 .byte   W96
@  #10 @034   ----------------------------------------
 .byte   W96
@  #10 @035   ----------------------------------------
 .byte   W96
@  #10 @036   ----------------------------------------
 .byte   W96
@  #10 @037   ----------------------------------------
 .byte   W96
@  #10 @038   ----------------------------------------
 .byte   W96
@  #10 @039   ----------------------------------------
 .byte   W96
@  #10 @040   ----------------------------------------
 .byte   W96
@  #10 @041   ----------------------------------------
 .byte   W96
@  #10 @042   ----------------------------------------
 .byte   W96
@  #10 @043   ----------------------------------------
 .byte   W96
@  #10 @044   ----------------------------------------
 .byte   W96
@  #10 @045   ----------------------------------------
 .byte   W96
@  #10 @046   ----------------------------------------
 .byte   W96
@  #10 @047   ----------------------------------------
 .byte   W96
@  #10 @048   ----------------------------------------
 .byte   W96
@  #10 @049   ----------------------------------------
 .byte   W96
@  #10 @050   ----------------------------------------
 .byte   W96
@  #10 @051   ----------------------------------------
 .byte   W96
@  #10 @052   ----------------------------------------
 .byte   W96
@  #10 @053   ----------------------------------------
 .byte   W24
 .byte   N44 ,Bn3 ,v092
 .byte   W72
@  #10 @054   ----------------------------------------
 .byte   Dn4
 .byte   W96
@  #10 @055   ----------------------------------------
 .byte   W48
 .byte   En4
 .byte   W48
@  #10 @056   ----------------------------------------
 .byte   Cs4
 .byte   W96
@  #10 @057   ----------------------------------------
Label_01007E85:
 .byte   N32 ,Dn4 ,v092
 .byte   W36
 .byte   Fn3
 .byte   W36
 .byte   N11 ,En3
 .byte   W12
 .byte   N05 ,Fn3
 .byte   W06
 .byte   Gn3
 .byte   W06
 .byte   PEND 
@  #10 @058   ----------------------------------------
 .byte   N23 ,Fn3
 .byte   W96
@  #10 @059   ----------------------------------------
 .byte   W96
@  #10 @060   ----------------------------------------
 .byte   W96
@  #10 @061   ----------------------------------------
Label_01007E99:
 .byte   W84
 .byte   N05 ,Dn4 ,v092
 .byte   W06
 .byte   En4
 .byte   W06
 .byte   PEND 
@  #10 @062   ----------------------------------------
 .byte   N44 ,Dn4
 .byte   W96
@  #10 @063   ----------------------------------------
 .byte   W48
 .byte   En4
 .byte   W48
@  #10 @064   ----------------------------------------
Label_01007EA7:
 .byte   N44 ,Cs4 ,v092
 .byte   W72
 .byte   N23 ,Dn4
 .byte   W24
 .byte   PEND 
@  #10 @065   ----------------------------------------
Label_01007EAF:
 .byte   W48
 .byte   N44 ,Cs4 ,v092
 .byte   W36
 .byte   N05 ,Gn3
 .byte   W06
 .byte   An3
 .byte   W06
 .byte   PEND 
@  #10 @066   ----------------------------------------
 .byte   N11 ,Gn3
 .byte   W96
@  #10 @067   ----------------------------------------
 .byte   W96
@  #10 @068   ----------------------------------------
 .byte   W96
@  #10 @069   ----------------------------------------
 .byte   W96
@  #10 @070   ----------------------------------------
 .byte   W96
@  #10 @071   ----------------------------------------
 .byte   W96
@  #10 @072   ----------------------------------------
 .byte   W96
@  #10 @073   ----------------------------------------
 .byte   W96
@  #10 @074   ----------------------------------------
 .byte   W90
 .byte   N05 ,Cn4
 .byte   W06
@  #10 @075   ----------------------------------------
Label_01007EC8:
 .byte   N23 ,Dn4 ,v092
 .byte   W24
 .byte   Bn3
 .byte   W72
 .byte   PEND 
@  #10 @076   ----------------------------------------
 .byte   W96
@  #10 @077   ----------------------------------------
 .byte   W96
@  #10 @078   ----------------------------------------
 .byte   W96
@  #10 @079   ----------------------------------------
 .byte   W96
@  #10 @080   ----------------------------------------
 .byte   W96
@  #10 @081   ----------------------------------------
 .byte   W96
@  #10 @082   ----------------------------------------
 .byte   W90
 .byte   N05 ,Cn4
 .byte   W06
@  #10 @083   ----------------------------------------
 .byte   PATT
  .word Label_01007EC8
@  #10 @084   ----------------------------------------
 .byte   W96
@  #10 @085   ----------------------------------------
 .byte   W24
 .byte   N44 ,Bn3 ,v092
 .byte   W72
@  #10 @086   ----------------------------------------
 .byte   Dn4
 .byte   W96
@  #10 @087   ----------------------------------------
 .byte   W48
 .byte   En4
 .byte   W48
@  #10 @088   ----------------------------------------
 .byte   Cs4
 .byte   W96
@  #10 @089   ----------------------------------------
 .byte   PATT
  .word Label_01007E85
@  #10 @090   ----------------------------------------
 .byte   N23 ,Fn3 ,v092
 .byte   W96
@  #10 @091   ----------------------------------------
 .byte   W96
@  #10 @092   ----------------------------------------
 .byte   W96
@  #10 @093   ----------------------------------------
 .byte   PATT
  .word Label_01007E99
@  #10 @094   ----------------------------------------
 .byte   N44 ,Dn4 ,v092
 .byte   W96
@  #10 @095   ----------------------------------------
 .byte   W48
 .byte   En4
 .byte   W48
@  #10 @096   ----------------------------------------
 .byte   PATT
  .word Label_01007EA7
@  #10 @097   ----------------------------------------
 .byte   PATT
  .word Label_01007EAF
@  #10 @098   ----------------------------------------
 .byte   N11 ,Gn3 ,v092
 .byte   W96
@  #10 @099   ----------------------------------------
 .byte   W96
@  #10 @100   ----------------------------------------
 .byte   W96
@  #10 @101   ----------------------------------------
 .byte   W96
@  #10 @102   ----------------------------------------
 .byte   W96
@  #10 @103   ----------------------------------------
 .byte   W96
@  #10 @104   ----------------------------------------
 .byte   W96
@  #10 @105   ----------------------------------------
 .byte   W96
@  #10 @106   ----------------------------------------
 .byte   W90
 .byte   N05 ,Cn4
 .byte   W06
@  #10 @107   ----------------------------------------
 .byte   PATT
  .word Label_01007EC8
@  #10 @108   ----------------------------------------
 .byte   W96
@  #10 @109   ----------------------------------------
 .byte   W96
@  #10 @110   ----------------------------------------
 .byte   W96
@  #10 @111   ----------------------------------------
 .byte   W96
@  #10 @112   ----------------------------------------
 .byte   W96
@  #10 @113   ----------------------------------------
 .byte   W96
@  #10 @114   ----------------------------------------
 .byte   W90
 .byte   N05 ,Cn4 ,v092
 .byte   W06
@  #10 @115   ----------------------------------------
 .byte   PATT
  .word Label_01007EC8
@  #10 @116   ----------------------------------------
Label_01007F30:
 .byte   N23 ,En3 ,v092
 .byte   W24
 .byte   N11
 .byte   W12
 .byte   N23 ,Gn4
 .byte   W24
 .byte   N11 ,En3
 .byte   W12
 .byte   N23 ,Fs4
 .byte   W24
 .byte   PEND 
@  #10 @117   ----------------------------------------
Label_01007F40:
 .byte   N11 ,En3 ,v092
 .byte   W12
 .byte   N23 ,Fn4
 .byte   W24
 .byte   N11 ,Bn3
 .byte   W12
 .byte   En4
 .byte   W12
 .byte   N23 ,Ds4
 .byte   W24
 .byte   N11 ,Bn3
 .byte   W12
 .byte   PEND 
@  #10 @118   ----------------------------------------
Label_01007F53:
 .byte   N23 ,An3 ,v092
 .byte   W24
 .byte   N11 ,Gn3
 .byte   W12
 .byte   N23 ,An3
 .byte   W24
 .byte   An4
 .byte   W24
 .byte   N11 ,Gn4
 .byte   W12
 .byte   PEND 
@  #10 @119   ----------------------------------------
Label_01007F63:
 .byte   N23 ,Ds4 ,v092
 .byte   W24
 .byte   N11
 .byte   W12
 .byte   N23 ,En4
 .byte   W24
 .byte   N11 ,Fn4
 .byte   W12
 .byte   N23 ,Gn4
 .byte   W24
 .byte   PEND 
@  #10 @120   ----------------------------------------
Label_01007F73:
 .byte   N23 ,En5 ,v092
 .byte   W24
 .byte   N11 ,Gn3
 .byte   W12
 .byte   Ds5
 .byte   W12
 .byte   N11
 .byte   W12
 .byte   Gn3
 .byte   W12
 .byte   Dn5
 .byte   W12
 .byte   N11
 .byte   W12
 .byte   PEND 
@  #10 @121   ----------------------------------------
Label_01007F85:
 .byte   N11 ,Gn3 ,v092
 .byte   W12
 .byte   Cs5
 .byte   W12
 .byte   N11
 .byte   W12
 .byte   Gn3
 .byte   W12
 .byte   Cn5
 .byte   W12
 .byte   N11
 .byte   W12
 .byte   An4
 .byte   W12
 .byte   Bn4
 .byte   W12
 .byte   PEND 
@  #10 @122   ----------------------------------------
Label_01007F98:
 .byte   N23 ,An3 ,v092
 .byte   W24
 .byte   N11 ,Gn3
 .byte   W12
 .byte   N23 ,An3
 .byte   W24
 .byte   Bn3
 .byte   W24
 .byte   N11 ,Cn4
 .byte   W12
 .byte   PEND 
@  #10 @123   ----------------------------------------
Label_01007FA8:
 .byte   N23 ,Gn4 ,v092
 .byte   W24
 .byte   N11 ,Gn3
 .byte   W12
 .byte   Gn4
 .byte   W12
 .byte   N23 ,An4
 .byte   W48
 .byte   PEND 
@  #10 @124   ----------------------------------------
 .byte   PATT
  .word Label_01007F30
@  #10 @125   ----------------------------------------
 .byte   PATT
  .word Label_01007F40
@  #10 @126   ----------------------------------------
 .byte   PATT
  .word Label_01007F53
@  #10 @127   ----------------------------------------
 .byte   PATT
  .word Label_01007F63
@  #10 @128   ----------------------------------------
 .byte   PATT
  .word Label_01007F73
@  #10 @129   ----------------------------------------
 .byte   PATT
  .word Label_01007F85
@  #10 @130   ----------------------------------------
 .byte   PATT
  .word Label_01007F98
@  #10 @131   ----------------------------------------
 .byte   PATT
  .word Label_01007FA8
@  #10 @132   ----------------------------------------
 .byte   W96
@  #10 @133   ----------------------------------------
 .byte   W96
@  #10 @134   ----------------------------------------
 .byte   W96
@  #10 @135   ----------------------------------------
 .byte   W96
@  #10 @136   ----------------------------------------
 .byte   W96
@  #10 @137   ----------------------------------------
 .byte   W96
@  #10 @138   ----------------------------------------
 .byte   W96
@  #10 @139   ----------------------------------------
 .byte   W96
@  #10 @140   ----------------------------------------
 .byte   W96
@  #10 @141   ----------------------------------------
 .byte   W96
@  #10 @142   ----------------------------------------
 .byte   W96
@  #10 @143   ----------------------------------------
 .byte   W96
@  #10 @144   ----------------------------------------
 .byte   W96
@  #10 @145   ----------------------------------------
 .byte   W96
@  #10 @146   ----------------------------------------
 .byte   W96
@  #10 @147   ----------------------------------------
 .byte   W96
@  #10 @148   ----------------------------------------
 .byte   W96
@  #10 @149   ----------------------------------------
 .byte   W96
@  #10 @150   ----------------------------------------
 .byte   W96
@  #10 @151   ----------------------------------------
 .byte   W96
@  #10 @152   ----------------------------------------
 .byte   W96
@  #10 @153   ----------------------------------------
 .byte   W96
@  #10 @154   ----------------------------------------
 .byte   W96
@  #10 @155   ----------------------------------------
 .byte   W96
@  #10 @156   ----------------------------------------
 .byte   W96
@  #10 @157   ----------------------------------------
 .byte   W96
@  #10 @158   ----------------------------------------
 .byte   W96
@  #10 @159   ----------------------------------------
 .byte   W96
@  #10 @160   ----------------------------------------
 .byte   W96
@  #10 @161   ----------------------------------------
 .byte   W96
@  #10 @162   ----------------------------------------
 .byte   W96
@  #10 @163   ----------------------------------------
 .byte   W96
@  #10 @164   ----------------------------------------
 .byte   W96
@  #10 @165   ----------------------------------------
 .byte   W96
@  #10 @166   ----------------------------------------
 .byte   W96
@  #10 @167   ----------------------------------------
 .byte   W96
@  #10 @168   ----------------------------------------
 .byte   W96
@  #10 @169   ----------------------------------------
 .byte   W96
@  #10 @170   ----------------------------------------
 .byte   W96
@  #10 @171   ----------------------------------------
 .byte   W96
@  #10 @172   ----------------------------------------
 .byte   W96
@  #10 @173   ----------------------------------------
 .byte   W96
@  #10 @174   ----------------------------------------
 .byte   W96
@  #10 @175   ----------------------------------------
 .byte   W96
@  #10 @176   ----------------------------------------
 .byte   W96
@  #10 @177   ----------------------------------------
 .byte   W96
@  #10 @178   ----------------------------------------
 .byte   W96
@  #10 @179   ----------------------------------------
 .byte   W96
@  #10 @180   ----------------------------------------
 .byte   W96
@  #10 @181   ----------------------------------------
 .byte   W96
@  #10 @182   ----------------------------------------
 .byte   W96
@  #10 @183   ----------------------------------------
 .byte   W96
@  #10 @184   ----------------------------------------
 .byte   W96
@  #10 @185   ----------------------------------------
 .byte   W96
@  #10 @186   ----------------------------------------
 .byte   W96
@  #10 @187   ----------------------------------------
 .byte   W96
@  #10 @188   ----------------------------------------
 .byte   W96
@  #10 @189   ----------------------------------------
 .byte   W96
@  #10 @190   ----------------------------------------
 .byte   W96
@  #10 @191   ----------------------------------------
 .byte   W96
@  #10 @192   ----------------------------------------
 .byte   W96
@  #10 @193   ----------------------------------------
 .byte   W96
@  #10 @194   ----------------------------------------
 .byte   W96
@  #10 @195   ----------------------------------------
 .byte   W24
 .byte   N44 ,Bn3 ,v092
 .byte   W72
@  #10 @196   ----------------------------------------
 .byte   Dn4
 .byte   W96
@  #10 @197   ----------------------------------------
 .byte   W48
 .byte   En4
 .byte   W48
@  #10 @198   ----------------------------------------
 .byte   Cs4
 .byte   W96
@  #10 @199   ----------------------------------------
 .byte   PATT
  .word Label_01007E85
@  #10 @200   ----------------------------------------
 .byte   N23 ,Fn3 ,v092
 .byte   W96
@  #10 @201   ----------------------------------------
 .byte   W96
@  #10 @202   ----------------------------------------
 .byte   W96
@  #10 @203   ----------------------------------------
 .byte   PATT
  .word Label_01007E99
@  #10 @204   ----------------------------------------
 .byte   N44 ,Dn4 ,v092
 .byte   W96
@  #10 @205   ----------------------------------------
 .byte   W48
 .byte   En4
 .byte   W48
@  #10 @206   ----------------------------------------
 .byte   PATT
  .word Label_01007EA7
@  #10 @207   ----------------------------------------
 .byte   PATT
  .word Label_01007EAF
@  #10 @208   ----------------------------------------
 .byte   N11 ,Gn3 ,v092
 .byte   W96
@  #10 @209   ----------------------------------------
 .byte   W96
@  #10 @210   ----------------------------------------
 .byte   W96
@  #10 @211   ----------------------------------------
 .byte   W96
@  #10 @212   ----------------------------------------
 .byte   W96
@  #10 @213   ----------------------------------------
 .byte   W96
@  #10 @214   ----------------------------------------
 .byte   W96
@  #10 @215   ----------------------------------------
 .byte   W96
@  #10 @216   ----------------------------------------
 .byte   W90
 .byte   N05 ,Cn4
 .byte   W06
@  #10 @217   ----------------------------------------
 .byte   PATT
  .word Label_01007EC8
@  #10 @218   ----------------------------------------
 .byte   W96
@  #10 @219   ----------------------------------------
 .byte   W96
@  #10 @220   ----------------------------------------
 .byte   W96
@  #10 @221   ----------------------------------------
 .byte   W96
@  #10 @222   ----------------------------------------
 .byte   W96
@  #10 @223   ----------------------------------------
 .byte   W96
@  #10 @224   ----------------------------------------
 .byte   W90
 .byte   N05 ,Cn4 ,v092
 .byte   W06
@  #10 @225   ----------------------------------------
 .byte   PATT
  .word Label_01007EC8
@  #10 @226   ----------------------------------------
 .byte   W96
@  #10 @227   ----------------------------------------
 .byte   W24
 .byte   N44 ,Bn3 ,v092
 .byte   W72
@  #10 @228   ----------------------------------------
 .byte   Dn4
 .byte   W96
@  #10 @229   ----------------------------------------
 .byte   W48
 .byte   En4
 .byte   W48
@  #10 @230   ----------------------------------------
 .byte   Cs4
 .byte   W96
@  #10 @231   ----------------------------------------
 .byte   PATT
  .word Label_01007E85
@  #10 @232   ----------------------------------------
 .byte   N23 ,Fn3 ,v092
 .byte   W96
@  #10 @233   ----------------------------------------
 .byte   W96
@  #10 @234   ----------------------------------------
 .byte   W96
@  #10 @235   ----------------------------------------
 .byte   PATT
  .word Label_01007E99
@  #10 @236   ----------------------------------------
 .byte   N44 ,Dn4 ,v092
 .byte   W96
@  #10 @237   ----------------------------------------
 .byte   W48
 .byte   En4
 .byte   W48
@  #10 @238   ----------------------------------------
 .byte   PATT
  .word Label_01007EA7
@  #10 @239   ----------------------------------------
 .byte   PATT
  .word Label_01007EAF
@  #10 @240   ----------------------------------------
 .byte   N11 ,Gn3 ,v092
 .byte   W96
@  #10 @241   ----------------------------------------
 .byte   W96
@  #10 @242   ----------------------------------------
 .byte   W96
@  #10 @243   ----------------------------------------
 .byte   W96
@  #10 @244   ----------------------------------------
 .byte   W96
@  #10 @245   ----------------------------------------
 .byte   W96
@  #10 @246   ----------------------------------------
 .byte   W96
@  #10 @247   ----------------------------------------
 .byte   W96
@  #10 @248   ----------------------------------------
 .byte   W90
 .byte   N05 ,Cn4
 .byte   W06
@  #10 @249   ----------------------------------------
 .byte   PATT
  .word Label_01007EC8
@  #10 @250   ----------------------------------------
 .byte   W96
@  #10 @251   ----------------------------------------
 .byte   W96
@  #10 @252   ----------------------------------------
 .byte   W96
@  #10 @253   ----------------------------------------
 .byte   W96
@  #10 @254   ----------------------------------------
 .byte   W96
@  #10 @255   ----------------------------------------
 .byte   W96
@  #10 @256   ----------------------------------------
 .byte   W90
 .byte   N05 ,Cn4 ,v092
 .byte   W06
@  #10 @257   ----------------------------------------
 .byte   PATT
  .word Label_01007EC8
@  #10 @258   ----------------------------------------
 .byte   PATT
  .word Label_01007F30
@  #10 @259   ----------------------------------------
 .byte   PATT
  .word Label_01007F40
@  #10 @260   ----------------------------------------
 .byte   PATT
  .word Label_01007F53
@  #10 @261   ----------------------------------------
 .byte   PATT
  .word Label_01007F63
@  #10 @262   ----------------------------------------
 .byte   PATT
  .word Label_01007F73
@  #10 @263   ----------------------------------------
 .byte   PATT
  .word Label_01007F85
@  #10 @264   ----------------------------------------
 .byte   PATT
  .word Label_01007F98
@  #10 @265   ----------------------------------------
 .byte   PATT
  .word Label_01007FA8
@  #10 @266   ----------------------------------------
 .byte   PATT
  .word Label_01007F30
@  #10 @267   ----------------------------------------
 .byte   PATT
  .word Label_01007F40
@  #10 @268   ----------------------------------------
 .byte   PATT
  .word Label_01007F53
@  #10 @269   ----------------------------------------
 .byte   PATT
  .word Label_01007F63
@  #10 @270   ----------------------------------------
 .byte   PATT
  .word Label_01007F73
@  #10 @271   ----------------------------------------
 .byte   PATT
  .word Label_01007F85
@  #10 @272   ----------------------------------------
 .byte   PATT
  .word Label_01007F98
@  #10 @273   ----------------------------------------
 .byte   PATT
  .word Label_01007FA8
@  #10 @274   ----------------------------------------
 .byte   W96
@  #10 @275   ----------------------------------------
 .byte   W96
@  #10 @276   ----------------------------------------
 .byte   W96
@  #10 @277   ----------------------------------------
 .byte   W96
@  #10 @278   ----------------------------------------
 .byte   W96
@  #10 @279   ----------------------------------------
 .byte   W96
@  #10 @280   ----------------------------------------
 .byte   W96
@  #10 @281   ----------------------------------------
 .byte   W96
@  #10 @282   ----------------------------------------
 .byte   W96
@  #10 @283   ----------------------------------------
 .byte   W96
@  #10 @284   ----------------------------------------
 .byte   W96
@  #10 @285   ----------------------------------------
 .byte   W96
@  #10 @286   ----------------------------------------
 .byte   W96
@  #10 @287   ----------------------------------------
 .byte   W96
@  #10 @288   ----------------------------------------
 .byte   W96
@  #10 @289   ----------------------------------------
 .byte   W96
@  #10 @290   ----------------------------------------
 .byte   W96
@  #10 @291   ----------------------------------------
 .byte   W96
@  #10 @292   ----------------------------------------
 .byte   W96
@  #10 @293   ----------------------------------------
 .byte   W96
@  #10 @294   ----------------------------------------
 .byte   W96
@  #10 @295   ----------------------------------------
 .byte   W96
@  #10 @296   ----------------------------------------
 .byte   W96
@  #10 @297   ----------------------------------------
 .byte   W96
@  #10 @298   ----------------------------------------
 .byte   W96
@  #10 @299   ----------------------------------------
 .byte   W96
@  #10 @300   ----------------------------------------
 .byte   W96
@  #10 @301   ----------------------------------------
 .byte   W96
@  #10 @302   ----------------------------------------
 .byte   W96
@  #10 @303   ----------------------------------------
 .byte   W96
@  #10 @304   ----------------------------------------
 .byte   W96
@  #10 @305   ----------------------------------------
 .byte   W96
@  #10 @306   ----------------------------------------
 .byte   W96
@  #10 @307   ----------------------------------------
 .byte   W96
@  #10 @308   ----------------------------------------
 .byte   W96
@  #10 @309   ----------------------------------------
 .byte   W96
@  #10 @310   ----------------------------------------
 .byte   W96
@  #10 @311   ----------------------------------------
 .byte   W96
@  #10 @312   ----------------------------------------
 .byte   W96
@  #10 @313   ----------------------------------------
 .byte   W96
@  #10 @314   ----------------------------------------
 .byte   W96
@  #10 @315   ----------------------------------------
 .byte   W96
@  #10 @316   ----------------------------------------
 .byte   W96
@  #10 @317   ----------------------------------------
 .byte   W96
@  #10 @318   ----------------------------------------
 .byte   W96
@  #10 @319   ----------------------------------------
 .byte   W96
@  #10 @320   ----------------------------------------
 .byte   W96
@  #10 @321   ----------------------------------------
 .byte   W96
@  #10 @322   ----------------------------------------
 .byte   W96
@  #10 @323   ----------------------------------------
 .byte   W96
@  #10 @324   ----------------------------------------
 .byte   W96
@  #10 @325   ----------------------------------------
 .byte   W96
@  #10 @326   ----------------------------------------
 .byte   W96
@  #10 @327   ----------------------------------------
 .byte   W96
@  #10 @328   ----------------------------------------
 .byte   W96
@  #10 @329   ----------------------------------------
 .byte   W96
@  #10 @330   ----------------------------------------
 .byte   GOTO
  .word Label_01007E5A
@  #10 @331   ----------------------------------------
 .byte   W96
@  #10 @332   ----------------------------------------
 .byte   W96
@  #10 @333   ----------------------------------------
 .byte   W96
@  #10 @334   ----------------------------------------
 .byte   W96
@  #10 @335   ----------------------------------------
 .byte   W96
@  #10 @336   ----------------------------------------
 .byte   W96
@  #10 @337   ----------------------------------------
 .byte   W96
@  #10 @338   ----------------------------------------
 .byte   W96
@  #10 @339   ----------------------------------------
 .byte   W96
@  #10 @340   ----------------------------------------
 .byte   W96
@  #10 @341   ----------------------------------------
 .byte   W96
@  #10 @342   ----------------------------------------
 .byte   W96
@  #10 @343   ----------------------------------------
 .byte   W96
@  #10 @344   ----------------------------------------
 .byte   W96
@  #10 @345   ----------------------------------------
 .byte   W96
@  #10 @346   ----------------------------------------
 .byte   W96
@  #10 @347   ----------------------------------------
 .byte   W96
@  #10 @348   ----------------------------------------
 .byte   W96
 .byte   FINE

@******************************************************@
	.align	2

song04:
	.byte	10	@ NumTrks
	.byte	0	@ NumBlks
	.byte	song04_pri	@ Priority
	.byte	song04_rev	@ Reverb.
    
	.word	song04_grp
    
	.word	song04_001
	.word	song04_002
	.word	song04_003
	.word	song04_004
	.word	song04_005
	.word	song04_006
	.word	song04_007
	.word	song04_008
	.word	song04_009
	.word	song04_010

	.end
