//Event file generated from Sappy .s format.
	#include "MPlayDef.event"

	#define	HipShop_grp  voicegroup000
	#define	HipShop_pri  0
	#define	HipShop_rev  0
	#define	HipShop_mvl  127
	#define	HipShop_key  0
	#define	HipShop_tbs  1
	#define	HipShop_exg  0
	#define	HipShop_cmp  1

	// .rodata
	//	HipShop
	ALIGN 4


//**************** Track 1 (Midi-Chn.0) ****************//

HipShop_001:
//  #01 //000   ----------------------------------------
 BYTE   KEYSH   HipShop_key+0
 BYTE   TEMPO   100*HipShop_tbs/2
 BYTE   VOICE   14
 BYTE   VOL   39*HipShop_mvl/mxv
 BYTE   PAN   c_v+0
 BYTE   W96
//  #01 //001   ----------------------------------------
 BYTE   W96
//  #01 //002   ----------------------------------------
 BYTE   W96
//  #01 //003   ----------------------------------------
 BYTE   W96
//  #01 //004   ----------------------------------------
 BYTE   W96
//  #01 //005   ----------------------------------------
 BYTE   N23  Cs4  v096
 BYTE   W96
//  #01 //006   ----------------------------------------
 BYTE   W96
//  #01 //007   ----------------------------------------
 BYTE   W96
//  #01 //008   ----------------------------------------
Label_F7B5A5:
 BYTE   W36
 BYTE   N11  Cs3  v096
 BYTE   W12
 BYTE   N17  Dn3
 BYTE   W18
 BYTE   An3
 BYTE   W18
 BYTE   N44  Fs3
 BYTE   W12
 BYTE   PEND 
//  #01 //009   ----------------------------------------
 BYTE   W36
 BYTE   Cs4
 BYTE   W60
//  #01 //010   ----------------------------------------
 BYTE   W96
//  #01 //011   ----------------------------------------
 BYTE   W96
//  #01 //012   ----------------------------------------
Label_F7B5B8:
 BYTE   W24
 BYTE   N23  Bn3  v096
 BYTE   W24
 BYTE   Fs3
 BYTE   W24
 BYTE   N11  Cs4
 BYTE   W12
 BYTE   Bn3
 BYTE   W12
 BYTE   PEND 
//  #01 //013   ----------------------------------------
Label_F7B5C5:
 BYTE   W12
 BYTE   N17  Fs3  v096
 BYTE   W18
 BYTE   En3
 BYTE   W18
 BYTE   N23  Dn3
 BYTE   W48
 BYTE   PEND 
//  #01 //014   ----------------------------------------
Label_F7B5D0:
 BYTE   W96
//  #01 //015   ----------------------------------------
 BYTE   W96
//  #01 //016   ----------------------------------------
 BYTE   TEMPO   100*HipShop_tbs/2
 BYTE   W96
//  #01 //017   ----------------------------------------
 BYTE   W96
//  #01 //018   ----------------------------------------
 BYTE   W96
//  #01 //019   ----------------------------------------
 BYTE   W96
//  #01 //020   ----------------------------------------
 BYTE   W96
//  #01 //021   ----------------------------------------
 BYTE   N23  Cs4  v096
 BYTE   W96
//  #01 //022   ----------------------------------------
 BYTE   W96
//  #01 //023   ----------------------------------------
 BYTE   W96
//  #01 //024   ----------------------------------------
 BYTE   PATT
  POIN2 Label_F7B5A5
//  #01 //025   ----------------------------------------
 BYTE   W36
 BYTE   N44  Cs4  v096
 BYTE   W60
//  #01 //026   ----------------------------------------
 BYTE   W96
//  #01 //027   ----------------------------------------
 BYTE   W96
//  #01 //028   ----------------------------------------
 BYTE   PATT
  POIN2 Label_F7B5B8
//  #01 //029   ----------------------------------------
 BYTE   PATT
  POIN2 Label_F7B5C5
//  #01 //030   ----------------------------------------
 BYTE   GoTo
  POIN2 Label_F7B5D0
//  #01 //031   ----------------------------------------
 BYTE   W96
//  #01 //032   ----------------------------------------
 BYTE   W92
 BYTE   W03
 BYTE   FINE

//**************** Track 2 (Midi-Chn.1) ****************//

HipShop_002:
//  #02 //000   ----------------------------------------
 BYTE   KEYSH   HipShop_key+0
 BYTE   VOICE   13
 BYTE   VOL   39*HipShop_mvl/mxv
 BYTE   PAN   c_v+0
 BYTE   N92  Fs5  v096
 BYTE   W96
//  #02 //001   ----------------------------------------
Label_01004A48:
 BYTE   N17  Bn4  v096
 BYTE   W18
 BYTE   Bn4  v052
 BYTE   W18
 BYTE   N11  Cs5  v096
 BYTE   W12
 BYTE   N17  Dn5
 BYTE   W18
 BYTE   An5
 BYTE   W18
 BYTE   Fs5
 BYTE   W12
 BYTE   PEND 
//  #02 //002   ----------------------------------------
Label_01004A5B:
 BYTE   W06
 BYTE   N17  Fs5  v052
 BYTE   W18
 BYTE   Fs5  v036
 BYTE   W60
 BYTE   N05  En5  v096
 BYTE   W06
 BYTE   Dn5
 BYTE   W06
 BYTE   PEND 
//  #02 //003   ----------------------------------------
Label_01004A6A:
 BYTE   N17  Cs5  v096
 BYTE   W18
 BYTE   Cs5  v052
 BYTE   W18
 BYTE   N11  Bn4  v096
 BYTE   W12
 BYTE   N17  Cs5
 BYTE   W18
 BYTE   Dn5
 BYTE   W18
 BYTE   Fs5
 BYTE   W12
 BYTE   PEND 
//  #02 //004   ----------------------------------------
Label_01004A7D:
 BYTE   W06
 BYTE   N17  Fs5  v052
 BYTE   W18
 BYTE   Fs5  v036
 BYTE   W72
 BYTE   PEND 
//  #02 //005   ----------------------------------------
Label_01004A86:
 BYTE   N17  Fs5  v080
 BYTE   W18
 BYTE   Fs5  v052
 BYTE   W18
 BYTE   Fs5  v036
 BYTE   W48
 BYTE   N05  En5  v096
 BYTE   W06
 BYTE   Fs5
 BYTE   W06
 BYTE   PEND 
//  #02 //006   ----------------------------------------
Label_01004A97:
 BYTE   N17  Gn5  v096
 BYTE   W18
 BYTE   Fs5
 BYTE   W18
 BYTE   Dn5  v052
 BYTE   W18
 BYTE   Dn5  v036
 BYTE   W18
 BYTE   Dn5  v016
 BYTE   W24
 BYTE   PEND 
//  #02 //007   ----------------------------------------
Label_01004AA7:
 BYTE   N17  Fs5  v096
 BYTE   W18
 BYTE   En5
 BYTE   W18
 BYTE   N11  Dn5
 BYTE   W12
 BYTE   N17  En5
 BYTE   W18
 BYTE   Fs5
 BYTE   W18
 BYTE   N17
 BYTE   W12
 BYTE   PEND 
//  #02 //008   ----------------------------------------
Label_01004AB8:
 BYTE   W06
 BYTE   N17  Fs5  v052
 BYTE   W18
 BYTE   Fs5  v012
 BYTE   W72
 BYTE   PEND 
//  #02 //009   ----------------------------------------
Label_01004AC1:
 BYTE   W84
 BYTE   N05  En5  v096
 BYTE   W06
 BYTE   Fs5
 BYTE   W06
 BYTE   PEND 
//  #02 //010   ----------------------------------------
Label_01004AC9:
 BYTE   N17  As5  v096
 BYTE   W18
 BYTE   Fs5
 BYTE   W18
 BYTE   En5
 BYTE   W18
 BYTE   En5  v052
 BYTE   W18
 BYTE   En5  v036
 BYTE   W24
 BYTE   PEND 
//  #02 //011   ----------------------------------------
Label_01004AD8:
 BYTE   N17  Fs5  v096
 BYTE   W18
 BYTE   En5
 BYTE   W18
 BYTE   N11  Dn5
 BYTE   W12
 BYTE   N17  As4
 BYTE   W18
 BYTE   En5
 BYTE   W18
 BYTE   N11  Dn5
 BYTE   W12
 BYTE   PEND 
//  #02 //012   ----------------------------------------
 BYTE   W96
//  #02 //013   ----------------------------------------
 BYTE   PATT
  POIN2 Label_01004AC1
//  #02 //014   ----------------------------------------
Label_01004AF0:
 BYTE   N32  Gn5  v096
 BYTE   W36
 BYTE   N11  An5
 BYTE   W12
 BYTE   N17  Bn5
 BYTE   W18
 BYTE   Dn6
 BYTE   W18
 BYTE   N11
 BYTE   W12
 BYTE   PEND 
//  #02 //015   ----------------------------------------
 BYTE   N17  Dn6  v016
 BYTE   W36
 BYTE   N05  An5  v096
 BYTE   W06
 BYTE   Gn5
 BYTE   W06
 BYTE   N17  Fs5
 BYTE   W18
 BYTE   En5
 BYTE   W18
 BYTE   N11  Fs5
 BYTE   W12
//  #02 //016   ----------------------------------------
 BYTE   N92
 BYTE   W96
//  #02 //017   ----------------------------------------
 BYTE   PATT
  POIN2 Label_01004A48
//  #02 //018   ----------------------------------------
 BYTE   PATT
  POIN2 Label_01004A5B
//  #02 //019   ----------------------------------------
 BYTE   PATT
  POIN2 Label_01004A6A
//  #02 //020   ----------------------------------------
 BYTE   PATT
  POIN2 Label_01004A7D
//  #02 //021   ----------------------------------------
 BYTE   PATT
  POIN2 Label_01004A86
//  #02 //022   ----------------------------------------
 BYTE   PATT
  POIN2 Label_01004A97
//  #02 //023   ----------------------------------------
 BYTE   PATT
  POIN2 Label_01004AA7
//  #02 //024   ----------------------------------------
 BYTE   PATT
  POIN2 Label_01004AB8
//  #02 //025   ----------------------------------------
 BYTE   PATT
  POIN2 Label_01004AC1
//  #02 //026   ----------------------------------------
 BYTE   PATT
  POIN2 Label_01004AC9
//  #02 //027   ----------------------------------------
 BYTE   PATT
  POIN2 Label_01004AD8
//  #02 //028   ----------------------------------------
 BYTE   W96
//  #02 //029   ----------------------------------------
 BYTE   PATT
  POIN2 Label_01004AC1
//  #02 //030   ----------------------------------------
 BYTE   GoTo
  POIN2 Label_01004AF0
//  #02 //031   ----------------------------------------
 BYTE   PATT
  POIN2 Label_01004AF0
//  #02 //032   ----------------------------------------
 BYTE   N17  Dn6  v016
 BYTE   W36
 BYTE   N05  An5  v096
 BYTE   W06
 BYTE   Gn5
 BYTE   W06
 BYTE   N17  Fs5
 BYTE   W18
 BYTE   En5
 BYTE   W18
 BYTE   N11  Fs5
 BYTE   W11
 BYTE   FINE

//**************** Track 3 (Midi-Chn.2) ****************//

HipShop_003:
//  #03 //000   ----------------------------------------
 BYTE   KEYSH   HipShop_key+0
 BYTE   VOICE   4
 BYTE   VOL   39*HipShop_mvl/mxv
 BYTE   PAN   c_v+0
 BYTE   TIE  Gn1  v096
 BYTE   W01
 BYTE   Bn1
 BYTE   W01
 BYTE   Dn2
 BYTE   W01
 BYTE   Fs2
 BYTE   W92
 BYTE   W01
//  #03 //001   ----------------------------------------
 BYTE   W92
 BYTE   W03
 BYTE   EOT
 BYTE   Gn1  v047
 BYTE   Dn2  v054
 BYTE   W01
//  #03 //002   ----------------------------------------
Label_F7BA17:
 BYTE   TIE  Fs1  v096
 BYTE   W01
 BYTE   As1
 BYTE   W01
 BYTE   Cs2
 BYTE   W01
 BYTE   En2
 BYTE   W92
 BYTE   W01
 BYTE   PEND 
//  #03 //003   ----------------------------------------
 BYTE   W92
 BYTE   W03
 BYTE   EOT
 BYTE   Fs1  v046
 BYTE   Cs2  v052
 BYTE   W01
//  #03 //004   ----------------------------------------
Label_F7BA2B:
 BYTE   TIE  Bn1  v096
 BYTE   W01
 BYTE   Dn2
 BYTE   W01
 BYTE   Fs2
 BYTE   W01
 BYTE   An2
 BYTE   W92
 BYTE   W01
 BYTE   PEND 
//  #03 //005   ----------------------------------------
 BYTE   W92
 BYTE   W03
 BYTE   EOT
 BYTE   Bn1  v050
 BYTE   Fs2  v057
 BYTE   W01
//  #03 //006   ----------------------------------------
Label_F7BA3F:
 BYTE   N92  An1  v096
 BYTE   W02
 BYTE   Cn2
 BYTE   W03
 BYTE   N90  En2
 BYTE   W02
 BYTE   N84  Gn2
 BYTE   W88
 BYTE   W01
 BYTE   PEND 
//  #03 //007   ----------------------------------------
Label_F7BA4D:
 BYTE   N92  An1  v096
 BYTE   W02
 BYTE   Cn2
 BYTE   W03
 BYTE   N90  Dn2
 BYTE   W02
 BYTE   N84  Fs2
 BYTE   W88
 BYTE   W01
 BYTE   PEND 
//  #03 //008   ----------------------------------------
Label_F7BA5B:
 BYTE   TIE  Gn1  v096
 BYTE   W01
 BYTE   Bn1
 BYTE   W01
 BYTE   Dn2
 BYTE   W01
 BYTE   Fs2
 BYTE   W92
 BYTE   W01
 BYTE   PEND 
//  #03 //009   ----------------------------------------
 BYTE   W92
 BYTE   W03
 BYTE   EOT
 BYTE   Gn1  v047
 BYTE   Dn2  v054
 BYTE   W01
//  #03 //010   ----------------------------------------
 BYTE   PATT
  POIN2 Label_F7BA17
//  #03 //011   ----------------------------------------
 BYTE   W92
 BYTE   W03
 BYTE   EOT
 BYTE   Fs1  v046
 BYTE   Cs2  v052
 BYTE   W01
//  #03 //012   ----------------------------------------
 BYTE   PATT
  POIN2 Label_F7BA2B
//  #03 //013   ----------------------------------------
 BYTE   W92
 BYTE   W03
 BYTE   EOT
 BYTE   Bn1  v050
 BYTE   Fs2  v057
 BYTE   W01
//  #03 //014   ----------------------------------------
Label_F7BA89:
//  #03 //015   ----------------------------------------
 BYTE   PATT
  POIN2 Label_F7BA3F
//  #03 //016   ----------------------------------------
 BYTE   PATT
  POIN2 Label_F7BA4D
//  #03 //017   ----------------------------------------
 BYTE   PATT
  POIN2 Label_F7BA5B
//  #03 //018   ----------------------------------------
 BYTE   W92
 BYTE   W03
 BYTE   EOT
 BYTE   Gn1  v047
 BYTE   Dn2  v054
 BYTE   W01
//  #03 //019   ----------------------------------------
 BYTE   PATT
  POIN2 Label_F7BA17
//  #03 //020   ----------------------------------------
 BYTE   W92
 BYTE   W03
 BYTE   EOT
 BYTE   Fs1  v046
 BYTE   Cs2  v052
 BYTE   W01
//  #03 //021   ----------------------------------------
 BYTE   PATT
  POIN2 Label_F7BA2B
//  #03 //022   ----------------------------------------
 BYTE   W92
 BYTE   W03
 BYTE   EOT
 BYTE   Bn1  v050
 BYTE   Fs2  v057
 BYTE   W01
//  #03 //023   ----------------------------------------
 BYTE   PATT
  POIN2 Label_F7BA3F
//  #03 //024   ----------------------------------------
 BYTE   PATT
  POIN2 Label_F7BA4D
//  #03 //025   ----------------------------------------
 BYTE   PATT
  POIN2 Label_F7BA5B
//  #03 //026   ----------------------------------------
 BYTE   W92
 BYTE   W03
 BYTE   EOT
 BYTE   Gn1  v047
 BYTE   Dn2  v054
 BYTE   W01
//  #03 //027   ----------------------------------------
 BYTE   PATT
  POIN2 Label_F7BA17
//  #03 //028   ----------------------------------------
 BYTE   W92
 BYTE   W03
 BYTE   EOT
 BYTE   Fs1  v046
 BYTE   Cs2  v052
 BYTE   W01
//  #03 //029   ----------------------------------------
 BYTE   PATT
  POIN2 Label_F7BA2B
//  #03 //030   ----------------------------------------
 BYTE   W92
 BYTE   W03
 BYTE   EOT
 BYTE   Bn1  v050
 BYTE   Fs2  v057
 BYTE   W01
//  #03 //031   ----------------------------------------
 BYTE   GoTo
  POIN2 Label_F7BA89
//  #03 //032   ----------------------------------------
 BYTE   PATT
  POIN2 Label_F7BA3F
//  #03 //033   ----------------------------------------
 BYTE   N92  An1  v096
 BYTE   W02
 BYTE   Cn2
 BYTE   W03
 BYTE   N90  Dn2
 BYTE   W02
 BYTE   N84  Fs2
 BYTE   W88
 BYTE   FINE

//**************** Track 4 (Midi-Chn.3) ****************//

HipShop_004:
//  #04 //000   ----------------------------------------
 BYTE   KEYSH   HipShop_key+0
 BYTE   VOICE   33
 BYTE   VOL   39*HipShop_mvl/mxv
 BYTE   PAN   c_v+0
 BYTE   TIE  Fs0  v096
 BYTE   W96
//  #04 //001   ----------------------------------------
 BYTE   W60
 BYTE   W03
 BYTE   EOT
 BYTE   W01
 BYTE   N15  Dn0
 BYTE   W16
 BYTE   En0
 BYTE   W16
//  #04 //002   ----------------------------------------
 BYTE   N92  Fs0
 BYTE   W96
//  #04 //003   ----------------------------------------
Label_01004B98:
 BYTE   N60  Fs0  v096
 BYTE   W64
 BYTE   N15  Gn0
 BYTE   W16
 BYTE   An0
 BYTE   W16
 BYTE   PEND 
//  #04 //004   ----------------------------------------
 BYTE   N92  Bn0
 BYTE   W96
//  #04 //005   ----------------------------------------
 BYTE   N92
 BYTE   W96
//  #04 //006   ----------------------------------------
 BYTE   Cn1
 BYTE   W96
//  #04 //007   ----------------------------------------
Label_01004BA9:
 BYTE   N44  Dn1  v096
 BYTE   W48
 BYTE   Dn3  v080
 BYTE   W48
 BYTE   PEND 
//  #04 //008   ----------------------------------------
 BYTE   N92  Fs0
 BYTE   W96
//  #04 //009   ----------------------------------------
Label_01004BB4:
 BYTE   N60  Fs0  v080
 BYTE   W64
 BYTE   N15  Dn0
 BYTE   W16
 BYTE   En0
 BYTE   W16
 BYTE   PEND 
//  #04 //010   ----------------------------------------
 BYTE   TIE  Fs0
 BYTE   W96
//  #04 //011   ----------------------------------------
 BYTE   W60
 BYTE   W03
 BYTE   EOT
 BYTE   W01
 BYTE   N15  Gn0
 BYTE   W16
 BYTE   An0
 BYTE   W16
//  #04 //012   ----------------------------------------
 BYTE   N92  Bn0
 BYTE   W96
//  #04 //013   ----------------------------------------
 BYTE   N92
 BYTE   W96
//  #04 //014   ----------------------------------------
Label_01004BCF:
 BYTE   N92  An0  v080
 BYTE   W96
//  #04 //015   ----------------------------------------
 BYTE   N44  Dn1
 BYTE   W48
 BYTE   Dn3
 BYTE   W48
//  #04 //016   ----------------------------------------
 BYTE   TIE  Fs0  v096
 BYTE   W96
//  #04 //017   ----------------------------------------
 BYTE   W60
 BYTE   W03
 BYTE   EOT
 BYTE   W01
 BYTE   N15  Dn0
 BYTE   W16
 BYTE   En0
 BYTE   W16
//  #04 //018   ----------------------------------------
 BYTE   N92  Fs0
 BYTE   W96
//  #04 //019   ----------------------------------------
 BYTE   PATT
  POIN2 Label_01004B98
//  #04 //020   ----------------------------------------
 BYTE   N92  Bn0  v096
 BYTE   W96
//  #04 //021   ----------------------------------------
 BYTE   N92
 BYTE   W96
//  #04 //022   ----------------------------------------
 BYTE   Cn1
 BYTE   W96
//  #04 //023   ----------------------------------------
 BYTE   PATT
  POIN2 Label_01004BA9
//  #04 //024   ----------------------------------------
 BYTE   N92  Fs0  v080
 BYTE   W96
//  #04 //025   ----------------------------------------
 BYTE   PATT
  POIN2 Label_01004BB4
//  #04 //026   ----------------------------------------
 BYTE   TIE  Fs0  v080
 BYTE   W96
//  #04 //027   ----------------------------------------
 BYTE   W60
 BYTE   W03
 BYTE   EOT
 BYTE   W01
 BYTE   N15  Gn0
 BYTE   W16
 BYTE   An0
 BYTE   W16
//  #04 //028   ----------------------------------------
 BYTE   N92  Bn0
 BYTE   W96
//  #04 //029   ----------------------------------------
 BYTE   N92
 BYTE   W96
//  #04 //030   ----------------------------------------
 BYTE   GoTo
  POIN2 Label_01004BCF
//  #04 //031   ----------------------------------------
 BYTE   N92  An0  v080
 BYTE   W96
//  #04 //032   ----------------------------------------
 BYTE   N44  Dn1
 BYTE   W48
 BYTE   Dn3
 BYTE   W44
 BYTE   W03
 BYTE   FINE

//**************** Track 5 (Midi-Chn.4) ****************//

HipShop_005:
//  #05 //000   ----------------------------------------
 BYTE   KEYSH   HipShop_key+0
 BYTE   VOICE   112
 BYTE   VOL   39*HipShop_mvl/mxv
 BYTE   PAN   c_v+0
 BYTE   N92  Fs5  v096
 BYTE   W96
//  #05 //001   ----------------------------------------
Label_01004C44:
 BYTE   N17  Bn4  v096
 BYTE   W18
 BYTE   Bn4  v052
 BYTE   W18
 BYTE   N11  Cs5  v096
 BYTE   W12
 BYTE   N17  Dn5
 BYTE   W18
 BYTE   An5
 BYTE   W18
 BYTE   Fs5
 BYTE   W12
 BYTE   PEND 
//  #05 //002   ----------------------------------------
Label_01004C57:
 BYTE   W06
 BYTE   N17  Fs5  v052
 BYTE   W18
 BYTE   N17
 BYTE   W60
 BYTE   N05  En5  v096
 BYTE   W06
 BYTE   Dn5
 BYTE   W06
 BYTE   PEND 
//  #05 //003   ----------------------------------------
Label_01004C65:
 BYTE   N17  Cs5  v096
 BYTE   W18
 BYTE   Cs5  v052
 BYTE   W18
 BYTE   N11  Bn4  v096
 BYTE   W12
 BYTE   N17  Cs5
 BYTE   W18
 BYTE   Dn5
 BYTE   W18
 BYTE   Fs5
 BYTE   W12
 BYTE   PEND 
//  #05 //004   ----------------------------------------
Label_01004C78:
 BYTE   W06
 BYTE   N17  Fs5  v052
 BYTE   W18
 BYTE   Fs5  v036
 BYTE   W72
 BYTE   PEND 
//  #05 //005   ----------------------------------------
Label_01004C81:
 BYTE   N17  Fs5  v080
 BYTE   W18
 BYTE   Fs5  v052
 BYTE   W18
 BYTE   Fs5  v036
 BYTE   W48
 BYTE   N05  En5  v096
 BYTE   W06
 BYTE   Fs5
 BYTE   W06
 BYTE   PEND 
//  #05 //006   ----------------------------------------
Label_01004C92:
 BYTE   N17  Gn5  v096
 BYTE   W18
 BYTE   Fs5
 BYTE   W18
 BYTE   Dn5  v052
 BYTE   W18
 BYTE   Dn5  v036
 BYTE   W18
 BYTE   N17
 BYTE   W24
 BYTE   PEND 
//  #05 //007   ----------------------------------------
Label_01004CA1:
 BYTE   N17  Fs5  v096
 BYTE   W18
 BYTE   En5
 BYTE   W18
 BYTE   N11  Dn5
 BYTE   W12
 BYTE   N17  En5
 BYTE   W18
 BYTE   Fs5
 BYTE   W18
 BYTE   N17
 BYTE   W12
 BYTE   PEND 
//  #05 //008   ----------------------------------------
Label_01004CB2:
 BYTE   W06
 BYTE   N17  Fs5  v052
 BYTE   W18
 BYTE   Fs5  v012
 BYTE   W72
 BYTE   PEND 
//  #05 //009   ----------------------------------------
Label_01004CBB:
 BYTE   W84
 BYTE   N05  En5  v096
 BYTE   W06
 BYTE   Fs5
 BYTE   W06
 BYTE   PEND 
//  #05 //010   ----------------------------------------
Label_01004CC3:
 BYTE   N17  As5  v096
 BYTE   W18
 BYTE   Fs5
 BYTE   W18
 BYTE   En5
 BYTE   W18
 BYTE   En5  v052
 BYTE   W18
 BYTE   En5  v036
 BYTE   W24
 BYTE   PEND 
//  #05 //011   ----------------------------------------
Label_01004CD2:
 BYTE   N17  Fs5  v096
 BYTE   W18
 BYTE   En5
 BYTE   W18
 BYTE   N11  Dn5
 BYTE   W12
 BYTE   N17  As4
 BYTE   W18
 BYTE   En5
 BYTE   W18
 BYTE   N11  Dn5
 BYTE   W12
 BYTE   PEND 
//  #05 //012   ----------------------------------------
 BYTE   W96
//  #05 //013   ----------------------------------------
 BYTE   PATT
  POIN2 Label_01004CBB
//  #05 //014   ----------------------------------------
Label_01004CEA:
 BYTE   N32  Gn5  v096
 BYTE   W36
 BYTE   N11  An5
 BYTE   W12
 BYTE   N17  Bn5
 BYTE   W18
 BYTE   Dn6
 BYTE   W18
 BYTE   N11
 BYTE   W12
 BYTE   PEND 
//  #05 //015   ----------------------------------------
 BYTE   N17  Dn6  v016
 BYTE   W36
 BYTE   N05  An5  v096
 BYTE   W06
 BYTE   Gn5
 BYTE   W06
 BYTE   N17  Fs5
 BYTE   W18
 BYTE   En5
 BYTE   W18
 BYTE   N11  Fs5
 BYTE   W12
//  #05 //016   ----------------------------------------
 BYTE   N92
 BYTE   W96
//  #05 //017   ----------------------------------------
 BYTE   PATT
  POIN2 Label_01004C44
//  #05 //018   ----------------------------------------
 BYTE   PATT
  POIN2 Label_01004C57
//  #05 //019   ----------------------------------------
 BYTE   PATT
  POIN2 Label_01004C65
//  #05 //020   ----------------------------------------
 BYTE   PATT
  POIN2 Label_01004C78
//  #05 //021   ----------------------------------------
 BYTE   PATT
  POIN2 Label_01004C81
//  #05 //022   ----------------------------------------
 BYTE   PATT
  POIN2 Label_01004C92
//  #05 //023   ----------------------------------------
 BYTE   PATT
  POIN2 Label_01004CA1
//  #05 //024   ----------------------------------------
 BYTE   PATT
  POIN2 Label_01004CB2
//  #05 //025   ----------------------------------------
 BYTE   PATT
  POIN2 Label_01004CBB
//  #05 //026   ----------------------------------------
 BYTE   PATT
  POIN2 Label_01004CC3
//  #05 //027   ----------------------------------------
 BYTE   PATT
  POIN2 Label_01004CD2
//  #05 //028   ----------------------------------------
 BYTE   W96
//  #05 //029   ----------------------------------------
 BYTE   PATT
  POIN2 Label_01004CBB
//  #05 //030   ----------------------------------------
 BYTE   GoTo
  POIN2 Label_01004CEA
//  #05 //031   ----------------------------------------
 BYTE   PATT
  POIN2 Label_01004CEA
//  #05 //032   ----------------------------------------
 BYTE   N17  Dn6  v016
 BYTE   W36
 BYTE   N05  An5  v096
 BYTE   W06
 BYTE   Gn5
 BYTE   W06
 BYTE   N17  Fs5
 BYTE   W18
 BYTE   En5
 BYTE   W18
 BYTE   N11  Fs5
 BYTE   W11
 BYTE   FINE

//**************** Track 6 (Midi-Chn.5) ****************//

HipShop_006:
//  #06 //000   ----------------------------------------
 BYTE   KEYSH   HipShop_key+0
 BYTE   VOICE   92
 BYTE   VOL   39*HipShop_mvl/mxv
 BYTE   PAN   c_v+0
 BYTE   N92  Dn4  v064
 BYTE   W96
//  #06 //001   ----------------------------------------
Label_01004D84:
 BYTE   N44  Cs4  v064
 BYTE   W48
 BYTE   Bn3
 BYTE   W48
 BYTE   PEND 
//  #06 //002   ----------------------------------------
 BYTE   N92  En4
 BYTE   W96
//  #06 //003   ----------------------------------------
Label_01004D8E:
 BYTE   N44  Cs4  v064
 BYTE   W48
 BYTE   N23  Bn3
 BYTE   W24
 BYTE   Cs4
 BYTE   W24
 BYTE   PEND 
//  #06 //004   ----------------------------------------
 BYTE   N92  Fs4
 BYTE   W96
//  #06 //005   ----------------------------------------
Label_01004D9B:
 BYTE   N44  Fs4  v064
 BYTE   W48
 BYTE   Gn4
 BYTE   W48
 BYTE   PEND 
//  #06 //006   ----------------------------------------
 BYTE   N92
 BYTE   W96
//  #06 //007   ----------------------------------------
 BYTE   Fs4
 BYTE   W96
//  #06 //008   ----------------------------------------
 BYTE   Dn4
 BYTE   W96
//  #06 //009   ----------------------------------------
 BYTE   PATT
  POIN2 Label_01004D84
//  #06 //010   ----------------------------------------
 BYTE   N92  En4  v064
 BYTE   W96
//  #06 //011   ----------------------------------------
 BYTE   PATT
  POIN2 Label_01004D8E
//  #06 //012   ----------------------------------------
 BYTE   TIE  Fs4  v064
 BYTE   W96
//  #06 //013   ----------------------------------------
 BYTE   W44
 BYTE   W03
 BYTE   EOT
 BYTE   W01
 BYTE   N44  Gn4
 BYTE   W48
//  #06 //014   ----------------------------------------
Label_01004DC1:
 BYTE   N92  Gn4  v064
 BYTE   W96
//  #06 //015   ----------------------------------------
 BYTE   Fs4
 BYTE   W96
//  #06 //016   ----------------------------------------
 BYTE   Dn4
 BYTE   W96
//  #06 //017   ----------------------------------------
 BYTE   PATT
  POIN2 Label_01004D84
//  #06 //018   ----------------------------------------
 BYTE   N92  En4  v064
 BYTE   W96
//  #06 //019   ----------------------------------------
 BYTE   PATT
  POIN2 Label_01004D8E
//  #06 //020   ----------------------------------------
 BYTE   N92  Fs4  v064
 BYTE   W96
//  #06 //021   ----------------------------------------
 BYTE   PATT
  POIN2 Label_01004D9B
//  #06 //022   ----------------------------------------
 BYTE   N92  Gn4  v064
 BYTE   W96
//  #06 //023   ----------------------------------------
 BYTE   Fs4
 BYTE   W96
//  #06 //024   ----------------------------------------
 BYTE   Dn4
 BYTE   W96
//  #06 //025   ----------------------------------------
 BYTE   PATT
  POIN2 Label_01004D84
//  #06 //026   ----------------------------------------
 BYTE   N92  En4  v064
 BYTE   W96
//  #06 //027   ----------------------------------------
 BYTE   PATT
  POIN2 Label_01004D8E
//  #06 //028   ----------------------------------------
 BYTE   TIE  Fs4  v064
 BYTE   W96
//  #06 //029   ----------------------------------------
 BYTE   W44
 BYTE   W03
 BYTE   EOT
 BYTE   W01
 BYTE   N44  Gn4
 BYTE   W48
//  #06 //030   ----------------------------------------
 BYTE   GoTo
  POIN2 Label_01004DC1
//  #06 //031   ----------------------------------------
 BYTE   N92  Gn4  v064
 BYTE   W96
//  #06 //032   ----------------------------------------
 BYTE   Fs4
 BYTE   W92
 BYTE   W03
 BYTE   FINE

//**************** Track 7 (Midi-Chn.6) ****************//

HipShop_007:
//  #07 //000   ----------------------------------------
 BYTE   KEYSH   HipShop_key+0
 BYTE   VOICE   124
 BYTE   VOL   39*HipShop_mvl/mxv
 BYTE   PAN   c_v+0
 BYTE   N17  Cn1  v080
 BYTE   N11  Fs1
 BYTE   W12
 BYTE   N11
 BYTE   W06
 BYTE   N05  Cn1
 BYTE   W06
 BYTE   N11  Dn1
 BYTE   N11  Fs1
 BYTE   W12
 BYTE   N05
 BYTE   W06
 BYTE   N11  Cn1
 BYTE   N05  Fs1
 BYTE   W06
 BYTE   N11
 BYTE   W06
 BYTE   N05  Cn1
 BYTE   W06
 BYTE   N05
 BYTE   N11  Fs1
 BYTE   W12
 BYTE   Dn1
 BYTE   N11  Fs1
 BYTE   W12
 BYTE   N05  Cn1
 BYTE   N11  Fs1
 BYTE   W06
 BYTE   N05  Cn1
 BYTE   W06
//  #07 //001   ----------------------------------------
Label_01004E54:
 BYTE   N17  Cn1  v080
 BYTE   N11  Fs1
 BYTE   W12
 BYTE   N11
 BYTE   W06
 BYTE   N05  Cn1
 BYTE   W06
 BYTE   N11  Dn1
 BYTE   N11  Fs1
 BYTE   W12
 BYTE   N05
 BYTE   W06
 BYTE   N11  Cn1
 BYTE   N05  Fs1
 BYTE   W06
 BYTE   N11
 BYTE   W06
 BYTE   N05  Cn1
 BYTE   W06
 BYTE   N05
 BYTE   N11  Fs1
 BYTE   W12
 BYTE   Dn1
 BYTE   N11  Fs1
 BYTE   W12
 BYTE   N05  Cn1
 BYTE   N11  Fs1
 BYTE   W06
 BYTE   N05  Cn1
 BYTE   W06
 BYTE   PEND 
//  #07 //002   ----------------------------------------
 BYTE   PATT
  POIN2 Label_01004E54
//  #07 //003   ----------------------------------------
 BYTE   PATT
  POIN2 Label_01004E54
//  #07 //004   ----------------------------------------
 BYTE   PATT
  POIN2 Label_01004E54
//  #07 //005   ----------------------------------------
 BYTE   PATT
  POIN2 Label_01004E54
//  #07 //006   ----------------------------------------
 BYTE   PATT
  POIN2 Label_01004E54
//  #07 //007   ----------------------------------------
 BYTE   PATT
  POIN2 Label_01004E54
//  #07 //008   ----------------------------------------
 BYTE   PATT
  POIN2 Label_01004E54
//  #07 //009   ----------------------------------------
 BYTE   PATT
  POIN2 Label_01004E54
//  #07 //010   ----------------------------------------
 BYTE   PATT
  POIN2 Label_01004E54
//  #07 //011   ----------------------------------------
 BYTE   PATT
  POIN2 Label_01004E54
//  #07 //012   ----------------------------------------
 BYTE   PATT
  POIN2 Label_01004E54
//  #07 //013   ----------------------------------------
 BYTE   PATT
  POIN2 Label_01004E54
//  #07 //014   ----------------------------------------
Label_01004EBD:
//  #07 //015   ----------------------------------------
 BYTE   PATT
  POIN2 Label_01004E54
//  #07 //016   ----------------------------------------
 BYTE   PATT
  POIN2 Label_01004E54
//  #07 //017   ----------------------------------------
 BYTE   PATT
  POIN2 Label_01004E54
//  #07 //018   ----------------------------------------
 BYTE   PATT
  POIN2 Label_01004E54
//  #07 //019   ----------------------------------------
 BYTE   PATT
  POIN2 Label_01004E54
//  #07 //020   ----------------------------------------
 BYTE   PATT
  POIN2 Label_01004E54
//  #07 //021   ----------------------------------------
 BYTE   PATT
  POIN2 Label_01004E54
//  #07 //022   ----------------------------------------
 BYTE   PATT
  POIN2 Label_01004E54
//  #07 //023   ----------------------------------------
 BYTE   PATT
  POIN2 Label_01004E54
//  #07 //024   ----------------------------------------
 BYTE   PATT
  POIN2 Label_01004E54
//  #07 //025   ----------------------------------------
 BYTE   PATT
  POIN2 Label_01004E54
//  #07 //026   ----------------------------------------
 BYTE   PATT
  POIN2 Label_01004E54
//  #07 //027   ----------------------------------------
 BYTE   PATT
  POIN2 Label_01004E54
//  #07 //028   ----------------------------------------
 BYTE   PATT
  POIN2 Label_01004E54
//  #07 //029   ----------------------------------------
 BYTE   PATT
  POIN2 Label_01004E54
//  #07 //030   ----------------------------------------
 BYTE   PATT
  POIN2 Label_01004E54
//  #07 //031   ----------------------------------------
 BYTE   GoTo
  POIN2 Label_01004EBD
//  #07 //032   ----------------------------------------
 BYTE   PATT
  POIN2 Label_01004E54
//  #07 //033   ----------------------------------------
 BYTE   N17  Cn1  v080
 BYTE   N11  Fs1
 BYTE   W12
 BYTE   N11
 BYTE   W06
 BYTE   N05  Cn1
 BYTE   W06
 BYTE   N11  Dn1
 BYTE   N11  Fs1
 BYTE   W12
 BYTE   N05
 BYTE   W06
 BYTE   N11  Cn1
 BYTE   N05  Fs1
 BYTE   W06
 BYTE   N11
 BYTE   W06
 BYTE   N05  Cn1
 BYTE   W06
 BYTE   N05
 BYTE   N11  Fs1
 BYTE   W12
 BYTE   Dn1
 BYTE   N11  Fs1
 BYTE   W12
 BYTE   N05  Cn1
 BYTE   N11  Fs1
 BYTE   W06
 BYTE   N05  Cn1
 BYTE   W05
 BYTE   FINE

//******************************************************//
	ALIGN 4

HipShop:
	BYTE	7	// NumTrks
	BYTE	0	// NumBlks
	BYTE	HipShop_pri	// Priority
	BYTE	HipShop_rev	// Reverb.
    
	POIN2	HipShop_grp
    
	POIN2	HipShop_001
	POIN2	HipShop_002
	POIN2	HipShop_003
	POIN2	HipShop_004
	POIN2	HipShop_005
	POIN2	HipShop_006
	POIN2	HipShop_007

	
