//Event file generated from Sappy .s format.
	#include "MPlayDef.event"

	#define	HisWorld_grp  voicegroup000
	#define	HisWorld_pri  0
	#define	HisWorld_rev  0
	#define	HisWorld_mvl  127
	#define	HisWorld_key  0
	#define	HisWorld_tbs  1
	#define	HisWorld_exg  0
	#define	HisWorld_cmp  1

	// .rodata
	//	HisWorld
	ALIGN 4


//**************** Track 1 (Midi-Chn.0) ****************//

HisWorld_001:
//  #01 //000   ----------------------------------------
 BYTE   KEYSH   HisWorld_key+0
 BYTE   TEMPO   170*HisWorld_tbs/2
 BYTE   VOICE   49
 BYTE   PAN   c_v+0
 BYTE   VOL   40*HisWorld_mvl/mxv
 BYTE   PAN   c_v+0
 BYTE   VOL   40*HisWorld_mvl/mxv
 BYTE   PAN   c_v+0
 BYTE   VOL   40*HisWorld_mvl/mxv
 BYTE   PAN   c_v+0
 BYTE   VOL   40*HisWorld_mvl/mxv
 BYTE   BEND   c_v+0
 BYTE   N80  Ds1  v100
 BYTE   N11  Ds2
 BYTE   N80  As2  v084
 BYTE   N11  Ds3  v100
 BYTE   N11  Fs3
 BYTE   W12
 BYTE   N05  As3
 BYTE   W12
 BYTE   Fn4
 BYTE   W12
 BYTE   As3
 BYTE   W12
 BYTE   Fs4
 BYTE   W12
 BYTE   As3
 BYTE   W12
 BYTE   Gs4
 BYTE   W12
 BYTE   TIE  Cs1
 BYTE   N11  Ds2
 BYTE   TIE  Gs2  v072
 BYTE   N11  Ds3  v100
 BYTE   N11  Fs3
 BYTE   N05  As3
 BYTE   N05  Ds4
 BYTE   W12
//  #01 //001   ----------------------------------------
Label_014B85D0:
 BYTE   W12
 BYTE   N05  Gs3  v100
 BYTE   W12
 BYTE   Fn4
 BYTE   W12
 BYTE   Gs3
 BYTE   W12
 BYTE   Fs4
 BYTE   W12
 BYTE   Gs3
 BYTE   W12
 BYTE   Gs4
 BYTE   W12
 BYTE   Gs3
 BYTE   W11
 BYTE   PEND 
 BYTE   EOT
 BYTE   Cs1  v056
 BYTE   W01
//  #01 //002   ----------------------------------------
 BYTE   N80  Bn0
 BYTE   N11  Ds2
 BYTE   N56  As2  v068
 BYTE   N11  Ds3  v100
 BYTE   N11  Fs3
 BYTE   N05  Ds4
 BYTE   W12
 BYTE   As3
 BYTE   W12
 BYTE   Fn4
 BYTE   W12
 BYTE   As3
 BYTE   W12
 BYTE   Fs4
 BYTE   W12
 BYTE   N11  Ds2
 BYTE   N11  Fs2
 BYTE   N11  As2
 BYTE   N11  Ds3
 BYTE   N05  As3
 BYTE   W12
 BYTE   N11  Fn2
 BYTE   N11  Gs2
 BYTE   N11  Bn2
 BYTE   N11  Fn3
 BYTE   N05  Gs4
 BYTE   W12
 BYTE   N44  Gs0
 BYTE   N32  Fs2
 BYTE   N11  As2
 BYTE   N32  Ds3
 BYTE   N32  Fs3
 BYTE   N05  As3
 BYTE   W12
//  #01 //003   ----------------------------------------
Label_014B8620:
 BYTE   N32  As2  v100
 BYTE   N05  Ds4
 BYTE   W24
 BYTE   N11  Fs2
 BYTE   N05  Gs3
 BYTE   N05  Fn4
 BYTE   W12
 BYTE   N56  As0
 BYTE   N05  Ds2
 BYTE   N12  Gs2
 BYTE   N05  Ds3
 BYTE   N05  Ds4
 BYTE   W06
 BYTE   Fn2
 BYTE   N05  Fn3
 BYTE   N05  Fn4
 BYTE   W06
 BYTE   Gs2
 BYTE   N05  Fs3
 BYTE   N05  As3
 BYTE   N05  Fs4
 BYTE   W12
 BYTE   Fn2
 BYTE   N05  Fn3
 BYTE   N05  Gs3
 BYTE   N05  Fn4
 BYTE   W12
 BYTE   Ds2
 BYTE   N05  Ds3
 BYTE   N05  Fs3
 BYTE   N05  Ds4
 BYTE   W12
 BYTE   Cs2
 BYTE   N05  Cs3
 BYTE   N05  Fn3
 BYTE   N05  Cs4
 BYTE   W12
 BYTE   PEND 
//  #01 //004   ----------------------------------------
 BYTE   N80  Ds1
 BYTE   N11  Ds2
 BYTE   N80  As2
 BYTE   N05  Ds3
 BYTE   N05  Fs3
 BYTE   N05  Ds4
 BYTE   W12
 BYTE   As3
 BYTE   W12
 BYTE   Fn4
 BYTE   W12
 BYTE   As3
 BYTE   W12
 BYTE   Fs4
 BYTE   W12
 BYTE   As3
 BYTE   W12
 BYTE   Gs4
 BYTE   W12
 BYTE   N92  Cs1
 BYTE   N11  Ds2
 BYTE   N05  Ds3
 BYTE   N05  Fs3
 BYTE   N05  As3
 BYTE   N05  Ds4
 BYTE   W12
//  #01 //005   ----------------------------------------
 BYTE   W12
 BYTE   Gs3
 BYTE   W12
 BYTE   Fn4
 BYTE   W12
 BYTE   Gs3
 BYTE   W12
 BYTE   N11  Gs1
 BYTE   N11  Fs2
 BYTE   N05  Fs4
 BYTE   W12
 BYTE   N11  As1
 BYTE   N11  Gs2
 BYTE   N05  Gs3
 BYTE   N05  Fn4
 BYTE   W12
 BYTE   N11  Bn1
 BYTE   N11  As2
 BYTE   N05  Ds4
 BYTE   W12
 BYTE   N92  Bn0
 BYTE   TIE  Cs2  v048
 BYTE   N92  Cs3
 BYTE   N11  Gs3  v100
 BYTE   N92  Cs4
 BYTE   W12
//  #01 //006   ----------------------------------------
 BYTE   N80  Fs3
 BYTE   W60
 BYTE   N11  Gs1
 BYTE   W12
 BYTE   As1
 BYTE   W12
 BYTE   N44  Gs0
 BYTE   N11  Bn1
 BYTE   N44  Bn2
 BYTE   N44  Ds3
 BYTE   N44  Fs3
 BYTE   W11
 BYTE   EOT
 BYTE   Cs2
 BYTE   W01
//  #01 //007   ----------------------------------------
 BYTE   N11
 BYTE   N92  As4
 BYTE   W12
 BYTE   N11  Fs2
 BYTE   W12
 BYTE   As2
 BYTE   W12
 BYTE   N56  As0
 BYTE   N56  Cs3
 BYTE   N56  Fn3
 BYTE   N56  Gs3
 BYTE   W12
 BYTE   N11  Gs2
 BYTE   W12
 BYTE   Fs2
 BYTE   W12
 BYTE   Fn2
 BYTE   W12
 BYTE   Cs2
 BYTE   W12
//  #01 //008   ----------------------------------------
 BYTE   N80  Ds1
 BYTE   N11  Ds2
 BYTE   N80  As2
 BYTE   N11  Ds3
 BYTE   N11  Fs3
 BYTE   W12
 BYTE   N05  As3
 BYTE   W12
 BYTE   Fn4
 BYTE   W12
 BYTE   As3
 BYTE   W12
 BYTE   Fs4
 BYTE   W12
 BYTE   As3
 BYTE   W12
 BYTE   Gs4
 BYTE   W12
 BYTE   TIE  Cs1
 BYTE   N11  Ds2
 BYTE   TIE  Gs2
 BYTE   N11  Ds3
 BYTE   N11  Fs3
 BYTE   N05  As3
 BYTE   N05  Ds4
 BYTE   W12
//  #01 //009   ----------------------------------------
 BYTE   PATT
  POIN2 Label_014B85D0
//  #01 //010   ----------------------------------------
 BYTE   EOT
 BYTE   Cs1  v056
 BYTE   W01
 BYTE   N80  Bn0  v100
 BYTE   N11  Ds2
 BYTE   N56  As2
 BYTE   N11  Ds3
 BYTE   N11  Fs3
 BYTE   N05  Ds4
 BYTE   W12
 BYTE   As3
 BYTE   W12
 BYTE   Fn4
 BYTE   W12
 BYTE   As3
 BYTE   W12
 BYTE   Fs4
 BYTE   W12
 BYTE   N11  Ds2
 BYTE   N11  Fs2
 BYTE   N11  As2
 BYTE   N11  Ds3
 BYTE   N05  As3
 BYTE   W12
 BYTE   N11  Fn2
 BYTE   N11  Gs2
 BYTE   N11  Bn2
 BYTE   N11  Fn3
 BYTE   N05  Gs4
 BYTE   W12
 BYTE   N44  Gs0
 BYTE   N32  Fs2
 BYTE   N11  As2
 BYTE   N32  Ds3
 BYTE   N32  Fs3
 BYTE   N05  As3
 BYTE   W12
//  #01 //011   ----------------------------------------
 BYTE   PATT
  POIN2 Label_014B8620
//  #01 //012   ----------------------------------------
 BYTE   N80  Ds1  v100
 BYTE   N11  Ds2
 BYTE   N80  As2
 BYTE   N05  Ds3
 BYTE   N05  Fs3
 BYTE   N05  Ds4
 BYTE   W12
 BYTE   As3
 BYTE   W12
 BYTE   Fn4
 BYTE   W12
 BYTE   As3
 BYTE   W12
 BYTE   Fs4  v096
 BYTE   W12
 BYTE   As3
 BYTE   W12
 BYTE   Gs4
 BYTE   W12
 BYTE   TIE  Cs1
 BYTE   N11  Ds2
 BYTE   TIE  Gs2
 BYTE   N05  Ds3
 BYTE   N05  Fs3
 BYTE   N05  As3
 BYTE   N05  Ds4
 BYTE   W12
//  #01 //013   ----------------------------------------
 BYTE   W12
 BYTE   Gs3
 BYTE   W12
 BYTE   Fn4
 BYTE   W12
 BYTE   Gs3
 BYTE   W12
 BYTE   Fs4
 BYTE   W12
 BYTE   Gs3
 BYTE   W12
 BYTE   Gs4
 BYTE   W12
 BYTE   Gs3
 BYTE   W11
 BYTE   EOT
 BYTE   Cs1  v056
 BYTE   W01
//  #01 //014   ----------------------------------------
 BYTE   N11  Bn0
 BYTE   N11  Ds2
 BYTE   N11  As2
 BYTE   N05  Ds3
 BYTE   N05  Fs3
 BYTE   N05  As4
 BYTE   W12
 BYTE   As3
 BYTE   W12
 BYTE   Gs4
 BYTE   W12
 BYTE   As3
 BYTE   W12
 BYTE   Fs4
 BYTE   W12
 BYTE   As3
 BYTE   W12
 BYTE   Gs4
 BYTE   W12
 BYTE   N11  Gs0
 BYTE   N44  Bn1
 BYTE   N11  Gs2
 BYTE   N05  Ds3
 BYTE   N05  As3
 BYTE   N40  Fs4
 BYTE   W12
//  #01 //015   ----------------------------------------
 BYTE   W24
 BYTE   N11  Gs2
 BYTE   N05  Gs3
 BYTE   W12
 BYTE   N11  As0
 BYTE   N44  Cs2
 BYTE   N05  Ds3
 BYTE   N52  Fn4
 BYTE   W06
 BYTE   N05  Fn3
 BYTE   W06
 BYTE   N11  As2
 BYTE   N05  Fs3
 BYTE   N05  As3
 BYTE   W12
 BYTE   N11  Gs2
 BYTE   N05  Fn3
 BYTE   N05  Gs3
 BYTE   W12
 BYTE   N11  Fs2  v100
 BYTE   N05  Ds3
 BYTE   N05  Fs3
 BYTE   W12
 BYTE   N11  Fn2
 BYTE   N05  Cs3
 BYTE   N05  Fn3
 BYTE   W12
//  #01 //016   ----------------------------------------
Label_014B87E1:
 BYTE   W96
//  #01 //017   ----------------------------------------
 BYTE   W96
//  #01 //018   ----------------------------------------
 BYTE   W96
//  #01 //019   ----------------------------------------
 BYTE   W96
//  #01 //020   ----------------------------------------
 BYTE   W96
//  #01 //021   ----------------------------------------
 BYTE   W96
//  #01 //022   ----------------------------------------
 BYTE   W96
//  #01 //023   ----------------------------------------
 BYTE   W96
//  #01 //024   ----------------------------------------
 BYTE   W96
//  #01 //025   ----------------------------------------
 BYTE   W96
//  #01 //026   ----------------------------------------
 BYTE   W96
//  #01 //027   ----------------------------------------
 BYTE   W96
//  #01 //028   ----------------------------------------
 BYTE   W96
//  #01 //029   ----------------------------------------
 BYTE   W96
//  #01 //030   ----------------------------------------
 BYTE   W96
//  #01 //031   ----------------------------------------
 BYTE   W96
//  #01 //032   ----------------------------------------
 BYTE   W96
//  #01 //033   ----------------------------------------
 BYTE   W96
//  #01 //034   ----------------------------------------
 BYTE   W96
//  #01 //035   ----------------------------------------
Label_014B87F4:
 BYTE   N80  Bn0  v080
 BYTE   N80  Bn1
 BYTE   N80  Ds3
 BYTE   W84
 BYTE   TIE  Cs1
 BYTE   TIE  Cs2
 BYTE   TIE  Fn3
 BYTE   W12
 BYTE   PEND 
//  #01 //036   ----------------------------------------
 BYTE   W92
 BYTE   W03
 BYTE   EOT
 BYTE   Cs1  v049
 BYTE   Fn3
 BYTE   W01
//  #01 //037   ----------------------------------------
Label_014B880B:
 BYTE   N80  Ds1  v080
 BYTE   N80  Ds2
 BYTE   N92  Ds3
 BYTE   N92  Fs3
 BYTE   W84
 BYTE   TIE  Fs0
 BYTE   TIE  Fs2
 BYTE   W12
 BYTE   PEND 
//  #01 //038   ----------------------------------------
Label_014B881B:
 BYTE   N92  Cs3  v080
 BYTE   N92  Fs3
 BYTE   W92
 BYTE   W03
 BYTE   PEND 
 BYTE   EOT
 BYTE   Fs0  v054
 BYTE   W01
//  #01 //039   ----------------------------------------
 BYTE   PATT
  POIN2 Label_014B87F4
//  #01 //040   ----------------------------------------
 BYTE   W92
 BYTE   W03
 BYTE   EOT
 BYTE   Cs1  v049
 BYTE   Fn3
 BYTE   W01
//  #01 //041   ----------------------------------------
 BYTE   PATT
  POIN2 Label_014B880B
//  #01 //042   ----------------------------------------
 BYTE   PATT
  POIN2 Label_014B881B
//  #01 //043   ----------------------------------------
 BYTE   EOT
 BYTE   Fs0  v054
 BYTE   W01
Label_014B8841:
 BYTE   N80  Bn0  v080
 BYTE   N80  Bn1
 BYTE   N80  Bn2
 BYTE   N80  Ds3
 BYTE   W84
 BYTE   TIE  Cs1
 BYTE   TIE  Cs2
 BYTE   TIE  Cs3
 BYTE   TIE  Fn3
 BYTE   W12
 BYTE   PEND 
//  #01 //044   ----------------------------------------
 BYTE   W92
 BYTE   W03
 BYTE   EOT
 BYTE   Cs1  v049
 BYTE   Cs3  v065
 BYTE   W01
//  #01 //045   ----------------------------------------
Label_014B885D:
 BYTE   N44  Ds1  v080
 BYTE   N44  Ds2
 BYTE   N44  Ds3
 BYTE   N44  Fs3
 BYTE   W48
 BYTE   N32  Cs1
 BYTE   N32  Cs2
 BYTE   N32  Cs3
 BYTE   N32  Fn3
 BYTE   W36
 BYTE   TIE  Bn0
 BYTE   TIE  Bn1
 BYTE   TIE  Bn2
 BYTE   TIE  Ds3
 BYTE   W12
 BYTE   PEND 
//  #01 //046   ----------------------------------------
 BYTE   W92
 BYTE   W03
 BYTE   EOT
 BYTE   Bn0  v047
 BYTE   Bn2  v063
 BYTE   W01
//  #01 //047   ----------------------------------------
 BYTE   PATT
  POIN2 Label_014B87F4
//  #01 //048   ----------------------------------------
 BYTE   W92
 BYTE   W03
 BYTE   EOT
 BYTE   Cs1  v049
 BYTE   Fn3
 BYTE   W01
//  #01 //049   ----------------------------------------
 BYTE   PATT
  POIN2 Label_014B880B
//  #01 //050   ----------------------------------------
 BYTE   PATT
  POIN2 Label_014B881B
//  #01 //051   ----------------------------------------
 BYTE   EOT
 BYTE   Fs0  v054
 BYTE   W01
//  #01 //052   ----------------------------------------
 BYTE   PATT
  POIN2 Label_014B87F4
//  #01 //053   ----------------------------------------
 BYTE   W92
 BYTE   W03
 BYTE   EOT
 BYTE   Cs1  v049
 BYTE   Fn3
 BYTE   W01
//  #01 //054   ----------------------------------------
 BYTE   PATT
  POIN2 Label_014B880B
//  #01 //055   ----------------------------------------
 BYTE   PATT
  POIN2 Label_014B881B
//  #01 //056   ----------------------------------------
 BYTE   EOT
 BYTE   Fs0  v054
 BYTE   W01
//  #01 //057   ----------------------------------------
 BYTE   PATT
  POIN2 Label_014B87F4
//  #01 //058   ----------------------------------------
 BYTE   W92
 BYTE   W03
 BYTE   EOT
 BYTE   Cs1  v049
 BYTE   Fn3
 BYTE   W01
//  #01 //059   ----------------------------------------
 BYTE   PATT
  POIN2 Label_014B880B
//  #01 //060   ----------------------------------------
 BYTE   PATT
  POIN2 Label_014B881B
//  #01 //061   ----------------------------------------
 BYTE   EOT
 BYTE   Fs0  v054
 BYTE   W01
//  #01 //062   ----------------------------------------
 BYTE   PATT
  POIN2 Label_014B8841
//  #01 //063   ----------------------------------------
 BYTE   W92
 BYTE   W03
 BYTE   EOT
 BYTE   Cs1  v049
 BYTE   Cs3  v065
 BYTE   W01
//  #01 //064   ----------------------------------------
 BYTE   PATT
  POIN2 Label_014B885D
//  #01 //065   ----------------------------------------
 BYTE   W92
 BYTE   W03
 BYTE   EOT
 BYTE   Bn0  v047
 BYTE   Bn2  v063
 BYTE   W01
//  #01 //066   ----------------------------------------
 BYTE   PATT
  POIN2 Label_014B87F4
//  #01 //067   ----------------------------------------
 BYTE   W92
 BYTE   W03
 BYTE   EOT
 BYTE   Cs1  v049
 BYTE   Fn3
 BYTE   W01
//  #01 //068   ----------------------------------------
 BYTE   PATT
  POIN2 Label_014B880B
//  #01 //069   ----------------------------------------
 BYTE   PATT
  POIN2 Label_014B881B
//  #01 //070   ----------------------------------------
 BYTE   EOT
 BYTE   Fs0  v054
 BYTE   W01
 BYTE   GoTo
  POIN2 Label_014B87E1
//  #01 //071   ----------------------------------------
 BYTE   W96
//  #01 //072   ----------------------------------------
 BYTE   W96
//  #01 //073   ----------------------------------------
 BYTE   W96
//  #01 //074   ----------------------------------------
 BYTE   W96
//  #01 //075   ----------------------------------------
 BYTE   W96
//  #01 //076   ----------------------------------------
 BYTE   W96
//  #01 //077   ----------------------------------------
 BYTE   W96
//  #01 //078   ----------------------------------------
 BYTE   W96
//  #01 //079   ----------------------------------------
 BYTE   W96
//  #01 //080   ----------------------------------------
 BYTE   W96
//  #01 //081   ----------------------------------------
 BYTE   W96
//  #01 //082   ----------------------------------------
 BYTE   W96
//  #01 //083   ----------------------------------------
 BYTE   W96
//  #01 //084   ----------------------------------------
 BYTE   TIE  Ds1  v064
 BYTE   TIE  Ds2
 BYTE   TIE  Fs2
 BYTE   TIE  Cs3
 BYTE   TIE  Fs3
 BYTE   TIE  As3
 BYTE   TIE  Ds4
 BYTE   W96
//  #01 //085   ----------------------------------------
 BYTE   W96
//  #01 //086   ----------------------------------------
 BYTE   W96
//  #01 //087   ----------------------------------------
 BYTE   W92
 BYTE   W03
 BYTE   EOT
 BYTE   Ds1
 BYTE   W01
//  #01 //088   ----------------------------------------
 BYTE   W96
//  #01 //089   ----------------------------------------
 BYTE   W96
//  #01 //090   ----------------------------------------
 BYTE   W96
//  #01 //091   ----------------------------------------
 BYTE   W92
 BYTE   W03
 BYTE   Ds2  v054
 BYTE   Cs3  v066
 BYTE   As3  v075
 BYTE   W01
//  #01 //092   ----------------------------------------
 BYTE   PAN   c_v+0
 BYTE   VOL   40*HisWorld_mvl/mxv
 BYTE   PAN   c_v+0
 BYTE   VOL   40*HisWorld_mvl/mxv
 BYTE   PAN   c_v+0
 BYTE   VOL   40*HisWorld_mvl/mxv
 BYTE   BEND   c_v+0
 BYTE   FINE

//**************** Track 2 (Midi-Chn.1) ****************//

HisWorld_002:
//  #02 //000   ----------------------------------------
 BYTE   KEYSH   HisWorld_key+0
 BYTE   VOICE   36
 BYTE   PAN   c_v+0
 BYTE   VOL   35*HisWorld_mvl/mxv
 BYTE   PAN   c_v+0
 BYTE   VOL   35*HisWorld_mvl/mxv
 BYTE   PAN   c_v+0
 BYTE   VOL   35*HisWorld_mvl/mxv
 BYTE   PAN   c_v+0
 BYTE   VOL   35*HisWorld_mvl/mxv
 BYTE   BEND   c_v+0
 BYTE   W96
//  #02 //001   ----------------------------------------
 BYTE   W96
//  #02 //002   ----------------------------------------
 BYTE   W96
//  #02 //003   ----------------------------------------
 BYTE   W96
//  #02 //004   ----------------------------------------
 BYTE   W96
//  #02 //005   ----------------------------------------
 BYTE   W96
//  #02 //006   ----------------------------------------
 BYTE   W96
//  #02 //007   ----------------------------------------
 BYTE   W96
//  #02 //008   ----------------------------------------
Label_015DADF6:
 BYTE   N92  Ds2  v100
 BYTE   W12
 BYTE   N80  Fs2
 BYTE   W12
 BYTE   N68  As2
 BYTE   W12
 BYTE   N56  Ds3
 BYTE   W60
 BYTE   PEND 
//  #02 //009   ----------------------------------------
Label_015DAE04:
 BYTE   N92  Cs2  v100
 BYTE   W12
 BYTE   N80  Fs2
 BYTE   W12
 BYTE   N68  As2
 BYTE   W12
 BYTE   N56  Ds3
 BYTE   W60
 BYTE   PEND 
//  #02 //010   ----------------------------------------
Label_015DAE12:
 BYTE   N56  Ds2  v100
 BYTE   W12
 BYTE   N44  Fs2
 BYTE   W12
 BYTE   N32  As2
 BYTE   W12
 BYTE   N23  Ds3
 BYTE   W24
 BYTE   N11  Cs2
 BYTE   W01
 BYTE   Fs2
 BYTE   W01
 BYTE   N10  As2
 BYTE   W10
 BYTE   N11  Fn2
 BYTE   W01
 BYTE   Gs2
 BYTE   W01
 BYTE   N10  Bn2
 BYTE   W10
 BYTE   N44  Fs2
 BYTE   W01
 BYTE   As2
 BYTE   W01
 BYTE   Cs3
 BYTE   W10
 BYTE   PEND 
//  #02 //011   ----------------------------------------
Label_015DAE37:
 BYTE   W36
 BYTE   N56  Fn2  v100
 BYTE   W01
 BYTE   Gs2
 BYTE   W01
 BYTE   Cs3
 BYTE   W22
 BYTE   N32  Gs3
 BYTE   W36
 BYTE   PEND 
//  #02 //012   ----------------------------------------
 BYTE   PATT
  POIN2 Label_015DADF6
//  #02 //013   ----------------------------------------
 BYTE   PATT
  POIN2 Label_015DAE04
//  #02 //014   ----------------------------------------
 BYTE   PATT
  POIN2 Label_015DAE12
//  #02 //015   ----------------------------------------
 BYTE   PATT
  POIN2 Label_015DAE37
//  #02 //016   ----------------------------------------
Label_015DAE58:
 BYTE   W96
//  #02 //017   ----------------------------------------
 BYTE   W96
//  #02 //018   ----------------------------------------
 BYTE   W96
//  #02 //019   ----------------------------------------
 BYTE   W96
//  #02 //020   ----------------------------------------
 BYTE   W96
//  #02 //021   ----------------------------------------
 BYTE   W96
//  #02 //022   ----------------------------------------
 BYTE   W96
//  #02 //023   ----------------------------------------
 BYTE   W96
//  #02 //024   ----------------------------------------
 BYTE   W96
//  #02 //025   ----------------------------------------
 BYTE   W96
//  #02 //026   ----------------------------------------
 BYTE   W96
//  #02 //027   ----------------------------------------
 BYTE   W96
//  #02 //028   ----------------------------------------
 BYTE   W96
//  #02 //029   ----------------------------------------
 BYTE   W96
//  #02 //030   ----------------------------------------
 BYTE   W96
//  #02 //031   ----------------------------------------
 BYTE   W96
//  #02 //032   ----------------------------------------
 BYTE   W96
//  #02 //033   ----------------------------------------
 BYTE   W96
//  #02 //034   ----------------------------------------
 BYTE   W96
//  #02 //035   ----------------------------------------
 BYTE   W96
//  #02 //036   ----------------------------------------
 BYTE   W96
//  #02 //037   ----------------------------------------
 BYTE   W96
//  #02 //038   ----------------------------------------
 BYTE   W96
//  #02 //039   ----------------------------------------
 BYTE   W96
//  #02 //040   ----------------------------------------
 BYTE   W96
//  #02 //041   ----------------------------------------
 BYTE   W96
//  #02 //042   ----------------------------------------
 BYTE   W96
//  #02 //043   ----------------------------------------
 BYTE   W96
//  #02 //044   ----------------------------------------
 BYTE   W96
//  #02 //045   ----------------------------------------
 BYTE   W96
//  #02 //046   ----------------------------------------
 BYTE   W96
//  #02 //047   ----------------------------------------
 BYTE   W96
//  #02 //048   ----------------------------------------
 BYTE   W96
//  #02 //049   ----------------------------------------
 BYTE   W96
//  #02 //050   ----------------------------------------
 BYTE   W96
//  #02 //051   ----------------------------------------
 BYTE   W96
//  #02 //052   ----------------------------------------
 BYTE   W96
//  #02 //053   ----------------------------------------
 BYTE   W96
//  #02 //054   ----------------------------------------
 BYTE   W96
//  #02 //055   ----------------------------------------
 BYTE   W96
//  #02 //056   ----------------------------------------
 BYTE   W96
//  #02 //057   ----------------------------------------
 BYTE   W96
//  #02 //058   ----------------------------------------
 BYTE   W96
//  #02 //059   ----------------------------------------
 BYTE   W96
//  #02 //060   ----------------------------------------
 BYTE   W96
//  #02 //061   ----------------------------------------
 BYTE   W96
//  #02 //062   ----------------------------------------
 BYTE   W96
//  #02 //063   ----------------------------------------
 BYTE   W96
//  #02 //064   ----------------------------------------
 BYTE   W96
//  #02 //065   ----------------------------------------
 BYTE   W96
//  #02 //066   ----------------------------------------
 BYTE   W96
//  #02 //067   ----------------------------------------
 BYTE   GoTo
  POIN2 Label_015DAE58
//  #02 //068   ----------------------------------------
 BYTE   W96
//  #02 //069   ----------------------------------------
 BYTE   W96
//  #02 //070   ----------------------------------------
 BYTE   W96
//  #02 //071   ----------------------------------------
 BYTE   W96
//  #02 //072   ----------------------------------------
 BYTE   W96
//  #02 //073   ----------------------------------------
 BYTE   W96
//  #02 //074   ----------------------------------------
 BYTE   W96
//  #02 //075   ----------------------------------------
 BYTE   W96
//  #02 //076   ----------------------------------------
 BYTE   W96
//  #02 //077   ----------------------------------------
 BYTE   W96
//  #02 //078   ----------------------------------------
 BYTE   W96
//  #02 //079   ----------------------------------------
 BYTE   W96
//  #02 //080   ----------------------------------------
 BYTE   W96
//  #02 //081   ----------------------------------------
 BYTE   W96
//  #02 //082   ----------------------------------------
 BYTE   W96
//  #02 //083   ----------------------------------------
 BYTE   W96
//  #02 //084   ----------------------------------------
 BYTE   W96
//  #02 //085   ----------------------------------------
 BYTE   W96
//  #02 //086   ----------------------------------------
 BYTE   W96
//  #02 //087   ----------------------------------------
 BYTE   W96
//  #02 //088   ----------------------------------------
 BYTE   W96
//  #02 //089   ----------------------------------------
 BYTE   PAN   c_v+0
 BYTE   VOL   35*HisWorld_mvl/mxv
 BYTE   PAN   c_v+0
 BYTE   VOL   35*HisWorld_mvl/mxv
 BYTE   PAN   c_v+0
 BYTE   VOL   35*HisWorld_mvl/mxv
 BYTE   BEND   c_v+0
 BYTE   FINE

//**************** Track 3 (Midi-Chn.2) ****************//

HisWorld_003:
//  #03 //000   ----------------------------------------
 BYTE   KEYSH   HisWorld_key+0
 BYTE   VOICE   33
 BYTE   PAN   c_v+0
 BYTE   VOL   43*HisWorld_mvl/mxv
 BYTE   PAN   c_v+0
 BYTE   VOL   43*HisWorld_mvl/mxv
 BYTE   PAN   c_v+0
 BYTE   VOL   43*HisWorld_mvl/mxv
 BYTE   PAN   c_v+0
 BYTE   VOL   43*HisWorld_mvl/mxv
 BYTE   BEND   c_v+0
 BYTE   W96
//  #03 //001   ----------------------------------------
 BYTE   W96
//  #03 //002   ----------------------------------------
 BYTE   W96
//  #03 //003   ----------------------------------------
 BYTE   W96
//  #03 //004   ----------------------------------------
 BYTE   W96
//  #03 //005   ----------------------------------------
 BYTE   W96
//  #03 //006   ----------------------------------------
 BYTE   W96
//  #03 //007   ----------------------------------------
 BYTE   W96
//  #03 //008   ----------------------------------------
Label_015DAF0E:
 BYTE   N80  Ds1  v100
 BYTE   W84
 BYTE   TIE  Cs1
 BYTE   W12
 BYTE   PEND 
//  #03 //009   ----------------------------------------
 BYTE   W92
 BYTE   W03
 BYTE   EOT
 BYTE   W01
//  #03 //010   ----------------------------------------
 BYTE   N56  Bn0
 BYTE   W60
 BYTE   N11  Fs0
 BYTE   W12
 BYTE   Gn0
 BYTE   W12
 BYTE   N44  Gs0
 BYTE   W12
//  #03 //011   ----------------------------------------
 BYTE   W36
 BYTE   N56  As0
 BYTE   W60
//  #03 //012   ----------------------------------------
 BYTE   PATT
  POIN2 Label_015DAF0E
//  #03 //013   ----------------------------------------
 BYTE   W92
 BYTE   W03
 BYTE   EOT
 BYTE   Cs1
 BYTE   W01
//  #03 //014   ----------------------------------------
Label_015DAF33:
 BYTE   N56  Bn0  v100
 BYTE   W60
 BYTE   N11  Fs0
 BYTE   W12
 BYTE   Gn0
 BYTE   W12
 BYTE   N23  Gs0
 BYTE   W12
 BYTE   PEND 
//  #03 //015   ----------------------------------------
 BYTE   W12
 BYTE   N11  Fs0
 BYTE   W12
 BYTE   Gs0
 BYTE   W12
 BYTE   N56  As0
 BYTE   W60
//  #03 //016   ----------------------------------------
Label_015DAF49:
 BYTE   N11  Ds1  v100
 BYTE   W12
 BYTE   N11
 BYTE   W48
 BYTE   Ds0
 BYTE   W12
 BYTE   As0
 BYTE   W12
 BYTE   Ds1
 BYTE   W12
 BYTE   PEND 
//  #03 //017   ----------------------------------------
 BYTE   Cs1
 BYTE   W96
//  #03 //018   ----------------------------------------
Label_015DAF58:
 BYTE   N11  Bn0  v100
 BYTE   W12
 BYTE   N11
 BYTE   W48
 BYTE   Fs0
 BYTE   W12
 BYTE   Gn0
 BYTE   W12
 BYTE   N44  Gs0
 BYTE   W12
 BYTE   PEND 
//  #03 //019   ----------------------------------------
 BYTE   W36
 BYTE   N56  As0
 BYTE   W60
//  #03 //020   ----------------------------------------
 BYTE   PATT
  POIN2 Label_015DAF49
//  #03 //021   ----------------------------------------
 BYTE   N11  Cs1  v100
 BYTE   W96
//  #03 //022   ----------------------------------------
Label_015DAF73:
 BYTE   N44  Gs0  v100
 BYTE   W48
 BYTE   As0
 BYTE   W48
 BYTE   PEND 
//  #03 //023   ----------------------------------------
Label_015DAF7A:
 BYTE   N44  Bn0  v100
 BYTE   W48
 BYTE   Cs1
 BYTE   W48
 BYTE   PEND 
//  #03 //024   ----------------------------------------
 BYTE   N11  Ds1
 BYTE   W12
 BYTE   As0
 BYTE   W12
 BYTE   Ds1
 BYTE   W12
 BYTE   N23
 BYTE   W24
 BYTE   N11  As0
 BYTE   W12
 BYTE   Ds0
 BYTE   W12
 BYTE   Fs0
 BYTE   W12
//  #03 //025   ----------------------------------------
 BYTE   Cs1
 BYTE   W12
 BYTE   Gs0
 BYTE   W12
 BYTE   Cs1
 BYTE   W12
 BYTE   Gs0
 BYTE   W12
 BYTE   Cs1
 BYTE   W12
 BYTE   Gs0
 BYTE   W12
 BYTE   Cs1
 BYTE   W12
 BYTE   Gs0
 BYTE   W12
//  #03 //026   ----------------------------------------
 BYTE   PATT
  POIN2 Label_015DAF33
//  #03 //027   ----------------------------------------
 BYTE   W12
 BYTE   N11  Fs0  v100
 BYTE   W12
 BYTE   Gs0
 BYTE   W12
 BYTE   N23  As0
 BYTE   W24
 BYTE   N11
 BYTE   W12
 BYTE   N11
 BYTE   W12
 BYTE   N11
 BYTE   W12
//  #03 //028   ----------------------------------------
 BYTE   Ds1
 BYTE   W12
 BYTE   As0
 BYTE   W12
 BYTE   Ds1
 BYTE   W12
 BYTE   N23
 BYTE   W24
 BYTE   N11  As0
 BYTE   W12
 BYTE   N23  Ds1
 BYTE   W24
//  #03 //029   ----------------------------------------
 BYTE   N11  Cs1
 BYTE   W12
 BYTE   Fs0
 BYTE   W12
 BYTE   Cs1
 BYTE   W12
 BYTE   N23
 BYTE   W24
 BYTE   N11  Fs0
 BYTE   W12
 BYTE   N23  Cs1
 BYTE   W24
//  #03 //030   ----------------------------------------
 BYTE   PATT
  POIN2 Label_015DAF73
//  #03 //031   ----------------------------------------
 BYTE   PATT
  POIN2 Label_015DAF7A
//  #03 //032   ----------------------------------------
 BYTE   PATT
  POIN2 Label_015DAF73
//  #03 //033   ----------------------------------------
Label_015DAFE2:
 BYTE   N32  Bn0  v100
 BYTE   W36
 BYTE   TIE  Cs1
 BYTE   W60
 BYTE   PEND 
//  #03 //034   ----------------------------------------
 BYTE   W60
 BYTE   N11  As0  v127
 BYTE   W12
 BYTE   N23  Fs1  v124
 BYTE   W23
 BYTE   EOT
 BYTE   Cs1
 BYTE   W01
//  #03 //035   ----------------------------------------
Label_015DAFF6:
 BYTE   N23  Bn0  v080
 BYTE   W24
 BYTE   N23
 BYTE   W24
 BYTE   N11
 BYTE   W12
 BYTE   N11
 BYTE   W12
 BYTE   N11
 BYTE   W12
 BYTE   N23  Cs1
 BYTE   W12
 BYTE   PEND 
//  #03 //036   ----------------------------------------
Label_015DB006:
 BYTE   W12
 BYTE   N11  Gs0  v080
 BYTE   W12
 BYTE   N23  Cs1
 BYTE   W24
 BYTE   N11
 BYTE   W12
 BYTE   Gs0
 BYTE   W12
 BYTE   N23  Cs1
 BYTE   W24
 BYTE   PEND 
//  #03 //037   ----------------------------------------
Label_015DB016:
 BYTE   N11  Ds1  v080
 BYTE   W12
 BYTE   N11
 BYTE   W12
 BYTE   N23  As0
 BYTE   W24
 BYTE   N11  Ds1
 BYTE   W12
 BYTE   N23
 BYTE   W24
 BYTE   Fs0
 BYTE   W12
 BYTE   PEND 
//  #03 //038   ----------------------------------------
Label_015DB027:
 BYTE   W12
 BYTE   N11  Fs0  v080
 BYTE   W12
 BYTE   N23
 BYTE   W24
 BYTE   N11
 BYTE   W12
 BYTE   N11
 BYTE   W12
 BYTE   N11
 BYTE   W12
 BYTE   N11
 BYTE   W12
 BYTE   PEND 
//  #03 //039   ----------------------------------------
 BYTE   PATT
  POIN2 Label_015DAFF6
//  #03 //040   ----------------------------------------
 BYTE   PATT
  POIN2 Label_015DB006
//  #03 //041   ----------------------------------------
Label_015DB041:
 BYTE   N11  Ds1  v080
 BYTE   W12
 BYTE   N11
 BYTE   W12
 BYTE   N23  As0
 BYTE   W24
 BYTE   N11  Ds1
 BYTE   W12
 BYTE   N23
 BYTE   W24
 BYTE   TIE  Fs0
 BYTE   W12
 BYTE   PEND 
//  #03 //042   ----------------------------------------
 BYTE   W92
 BYTE   W03
 BYTE   EOT
 BYTE   W01
//  #03 //043   ----------------------------------------
 BYTE   PATT
  POIN2 Label_015DAFF6
//  #03 //044   ----------------------------------------
 BYTE   PATT
  POIN2 Label_015DB006
//  #03 //045   ----------------------------------------
Label_015DB061:
 BYTE   N44  Ds1  v080
 BYTE   W48
 BYTE   N32  Cs1
 BYTE   W36
 BYTE   N23  Bn0
 BYTE   W12
 BYTE   PEND 
//  #03 //046   ----------------------------------------
Label_015DB06C:
 BYTE   W12
 BYTE   N11  Fs0  v080
 BYTE   W12
 BYTE   Cs1
 BYTE   W12
 BYTE   N56  Bn0
 BYTE   W60
 BYTE   PEND 
//  #03 //047   ----------------------------------------
 BYTE   PATT
  POIN2 Label_015DAFF6
//  #03 //048   ----------------------------------------
 BYTE   PATT
  POIN2 Label_015DB006
//  #03 //049   ----------------------------------------
 BYTE   PATT
  POIN2 Label_015DB016
//  #03 //050   ----------------------------------------
 BYTE   PATT
  POIN2 Label_015DB027
//  #03 //051   ----------------------------------------
 BYTE   PATT
  POIN2 Label_015DAFF6
//  #03 //052   ----------------------------------------
 BYTE   PATT
  POIN2 Label_015DB006
//  #03 //053   ----------------------------------------
 BYTE   PATT
  POIN2 Label_015DB016
//  #03 //054   ----------------------------------------
 BYTE   PATT
  POIN2 Label_015DB027
//  #03 //055   ----------------------------------------
 BYTE   PATT
  POIN2 Label_015DAFF6
//  #03 //056   ----------------------------------------
 BYTE   PATT
  POIN2 Label_015DB006
//  #03 //057   ----------------------------------------
 BYTE   PATT
  POIN2 Label_015DB016
//  #03 //058   ----------------------------------------
 BYTE   PATT
  POIN2 Label_015DB027
//  #03 //059   ----------------------------------------
 BYTE   PATT
  POIN2 Label_015DAFF6
//  #03 //060   ----------------------------------------
 BYTE   PATT
  POIN2 Label_015DB006
//  #03 //061   ----------------------------------------
 BYTE   PATT
  POIN2 Label_015DB061
//  #03 //062   ----------------------------------------
 BYTE   PATT
  POIN2 Label_015DB06C
//  #03 //063   ----------------------------------------
 BYTE   PATT
  POIN2 Label_015DAFF6
//  #03 //064   ----------------------------------------
 BYTE   PATT
  POIN2 Label_015DB006
//  #03 //065   ----------------------------------------
 BYTE   PATT
  POIN2 Label_015DB041
//  #03 //066   ----------------------------------------
 BYTE   W92
 BYTE   W03
 BYTE   EOT
 BYTE   Fs0
 BYTE   W01
//  #03 //067   ----------------------------------------
 BYTE   GoTo
  POIN2 Label_015DAF49
//  #03 //068   ----------------------------------------
 BYTE   PATT
  POIN2 Label_015DAF49
//  #03 //069   ----------------------------------------
 BYTE   N11  Cs1  v100
 BYTE   W96
//  #03 //070   ----------------------------------------
 BYTE   PATT
  POIN2 Label_015DAF58
//  #03 //071   ----------------------------------------
 BYTE   W36
 BYTE   N56  As0  v100
 BYTE   W60
//  #03 //072   ----------------------------------------
 BYTE   PATT
  POIN2 Label_015DAF49
//  #03 //073   ----------------------------------------
 BYTE   N11  Cs1  v100
 BYTE   W96
//  #03 //074   ----------------------------------------
 BYTE   PATT
  POIN2 Label_015DAF73
//  #03 //075   ----------------------------------------
 BYTE   PATT
  POIN2 Label_015DAF7A
//  #03 //076   ----------------------------------------
 BYTE   PATT
  POIN2 Label_015DAF73
//  #03 //077   ----------------------------------------
 BYTE   PATT
  POIN2 Label_015DAF7A
//  #03 //078   ----------------------------------------
 BYTE   PATT
  POIN2 Label_015DAF73
//  #03 //079   ----------------------------------------
 BYTE   PATT
  POIN2 Label_015DAFE2
//  #03 //080   ----------------------------------------
 BYTE   W92
 BYTE   W03
 BYTE   EOT
 BYTE   Cs1
 BYTE   W01
//  #03 //081   ----------------------------------------
 BYTE   W96
//  #03 //082   ----------------------------------------
 BYTE   W96
//  #03 //083   ----------------------------------------
 BYTE   W96
//  #03 //084   ----------------------------------------
 BYTE   W96
//  #03 //085   ----------------------------------------
 BYTE   W96
//  #03 //086   ----------------------------------------
 BYTE   W96
//  #03 //087   ----------------------------------------
 BYTE   W96
//  #03 //088   ----------------------------------------
 BYTE   W96
//  #03 //089   ----------------------------------------
 BYTE   VOICE   33
 BYTE   PAN   c_v+0
 BYTE   VOL   43*HisWorld_mvl/mxv
 BYTE   PAN   c_v+0
 BYTE   VOL   43*HisWorld_mvl/mxv
 BYTE   PAN   c_v+0
 BYTE   VOL   43*HisWorld_mvl/mxv
 BYTE   BEND   c_v+0
 BYTE   FINE

//**************** Track 4 (Midi-Chn.3) ****************//

HisWorld_004:
//  #04 //000   ----------------------------------------
 BYTE   KEYSH   HisWorld_key+0
 BYTE   VOICE   30
 BYTE   PAN   c_v+0
 BYTE   VOL   44*HisWorld_mvl/mxv
 BYTE   PAN   c_v+0
 BYTE   VOL   44*HisWorld_mvl/mxv
 BYTE   PAN   c_v+0
 BYTE   VOL   44*HisWorld_mvl/mxv
 BYTE   PAN   c_v+0
 BYTE   VOL   44*HisWorld_mvl/mxv
 BYTE   BEND   c_v+0
 BYTE   W96
//  #04 //001   ----------------------------------------
 BYTE   W96
//  #04 //002   ----------------------------------------
 BYTE   W96
//  #04 //003   ----------------------------------------
 BYTE   W96
//  #04 //004   ----------------------------------------
 BYTE   W96
//  #04 //005   ----------------------------------------
 BYTE   W96
//  #04 //006   ----------------------------------------
 BYTE   W96
//  #04 //007   ----------------------------------------
 BYTE   W96
//  #04 //008   ----------------------------------------
 BYTE   W96
//  #04 //009   ----------------------------------------
 BYTE   W96
//  #04 //010   ----------------------------------------
 BYTE   W96
//  #04 //011   ----------------------------------------
 BYTE   W96
//  #04 //012   ----------------------------------------
 BYTE   W96
//  #04 //013   ----------------------------------------
 BYTE   W96
//  #04 //014   ----------------------------------------
 BYTE   W96
//  #04 //015   ----------------------------------------
 BYTE   W96
//  #04 //016   ----------------------------------------
Label_015DB292:
 BYTE   N11  Ds2  v100
 BYTE   W12
 BYTE   N11
 BYTE   W72
 BYTE   Cs2
 BYTE   W12
 BYTE   PEND 
//  #04 //017   ----------------------------------------
 BYTE   W96
//  #04 //018   ----------------------------------------
Label_015DB29C:
 BYTE   N11  Ds2  v100
 BYTE   W12
 BYTE   N11
 BYTE   W72
 BYTE   N44  Gs1
 BYTE   W12
 BYTE   PEND 
//  #04 //019   ----------------------------------------
 BYTE   W36
 BYTE   N56  As1
 BYTE   W60
//  #04 //020   ----------------------------------------
 BYTE   PATT
  POIN2 Label_015DB292
//  #04 //021   ----------------------------------------
 BYTE   W96
//  #04 //022   ----------------------------------------
Label_015DB2B0:
 BYTE   N44  Ds2  v100
 BYTE   W48
 BYTE   Fn2
 BYTE   W48
 BYTE   PEND 
//  #04 //023   ----------------------------------------
Label_015DB2B7:
 BYTE   N44  Fs2  v100
 BYTE   W48
 BYTE   Gs2
 BYTE   W48
 BYTE   PEND 
//  #04 //024   ----------------------------------------
Label_015DB2BE:
 BYTE   N11  Ds3  v100
 BYTE   W12
 BYTE   As2
 BYTE   W12
 BYTE   Ds3
 BYTE   W12
 BYTE   As2
 BYTE   W12
 BYTE   Ds3
 BYTE   W12
 BYTE   As2
 BYTE   W12
 BYTE   Ds3
 BYTE   W12
 BYTE   Cs3
 BYTE   W12
 BYTE   PEND 
//  #04 //025   ----------------------------------------
Label_015DB2D1:
 BYTE   N11  Gs2  v100
 BYTE   W12
 BYTE   Cs3
 BYTE   W12
 BYTE   Gs2
 BYTE   W12
 BYTE   Cs3
 BYTE   W12
 BYTE   Gs2
 BYTE   W12
 BYTE   Cs3
 BYTE   W12
 BYTE   Gs2
 BYTE   W12
 BYTE   Cs3
 BYTE   W12
 BYTE   PEND 
//  #04 //026   ----------------------------------------
 BYTE   Bn2
 BYTE   W12
 BYTE   Fs2
 BYTE   W12
 BYTE   Bn2
 BYTE   W12
 BYTE   Fs2
 BYTE   W12
 BYTE   Bn2
 BYTE   W12
 BYTE   Fs2
 BYTE   W12
 BYTE   Bn2
 BYTE   W12
 BYTE   N23  Gs2
 BYTE   W12
//  #04 //027   ----------------------------------------
 BYTE   W12
 BYTE   N11  Fs2
 BYTE   W12
 BYTE   Gs2
 BYTE   W12
 BYTE   As2
 BYTE   W12
 BYTE   Fn2
 BYTE   W12
 BYTE   As2
 BYTE   W12
 BYTE   Fn2
 BYTE   W12
 BYTE   As2
 BYTE   W12
//  #04 //028   ----------------------------------------
 BYTE   PATT
  POIN2 Label_015DB2BE
//  #04 //029   ----------------------------------------
 BYTE   PATT
  POIN2 Label_015DB2D1
//  #04 //030   ----------------------------------------
Label_015DB30F:
 BYTE   N44  Gs2  v100
 BYTE   W48
 BYTE   As2
 BYTE   W48
 BYTE   PEND 
//  #04 //031   ----------------------------------------
 BYTE   Bn2
 BYTE   W48
 BYTE   Cs3
 BYTE   W48
//  #04 //032   ----------------------------------------
 BYTE   PATT
  POIN2 Label_015DB30F
//  #04 //033   ----------------------------------------
 BYTE   N32  Bn2  v100
 BYTE   W36
 BYTE   TIE  Cs3
 BYTE   W60
//  #04 //034   ----------------------------------------
 BYTE   W92
 BYTE   W03
 BYTE   EOT
 BYTE   W01
//  #04 //035   ----------------------------------------
Label_015DB32A:
 BYTE   N23  Bn1  v080
 BYTE   W24
 BYTE   N23
 BYTE   W24
 BYTE   N11
 BYTE   W12
 BYTE   N11
 BYTE   W12
 BYTE   N11
 BYTE   W12
 BYTE   N23  Cs2
 BYTE   W12
 BYTE   PEND 
//  #04 //036   ----------------------------------------
Label_015DB33A:
 BYTE   W12
 BYTE   N11  Cs2  v080
 BYTE   W12
 BYTE   N23
 BYTE   W24
 BYTE   N11
 BYTE   W12
 BYTE   N11
 BYTE   W12
 BYTE   N11
 BYTE   W12
 BYTE   N11
 BYTE   W12
 BYTE   PEND 
//  #04 //037   ----------------------------------------
Label_015DB34A:
 BYTE   N23  Ds2  v080
 BYTE   W24
 BYTE   N23
 BYTE   W24
 BYTE   N11
 BYTE   W24
 BYTE   N11
 BYTE   W12
 BYTE   N23  Fs2
 BYTE   W12
 BYTE   PEND 
//  #04 //038   ----------------------------------------
Label_015DB358:
 BYTE   W12
 BYTE   N11  Fs2  v080
 BYTE   W12
 BYTE   N23
 BYTE   W24
 BYTE   N11
 BYTE   W12
 BYTE   N11
 BYTE   W12
 BYTE   N11
 BYTE   W12
 BYTE   N11
 BYTE   W12
 BYTE   PEND 
//  #04 //039   ----------------------------------------
 BYTE   PATT
  POIN2 Label_015DB32A
//  #04 //040   ----------------------------------------
 BYTE   PATT
  POIN2 Label_015DB33A
//  #04 //041   ----------------------------------------
 BYTE   PATT
  POIN2 Label_015DB34A
//  #04 //042   ----------------------------------------
 BYTE   PATT
  POIN2 Label_015DB358
//  #04 //043   ----------------------------------------
 BYTE   PATT
  POIN2 Label_015DB32A
//  #04 //044   ----------------------------------------
 BYTE   PATT
  POIN2 Label_015DB33A
//  #04 //045   ----------------------------------------
Label_015DB386:
 BYTE   N44  Ds2  v080
 BYTE   W48
 BYTE   N32  Cs2
 BYTE   W36
 BYTE   TIE  Bn1
 BYTE   W12
 BYTE   PEND 
//  #04 //046   ----------------------------------------
 BYTE   W92
 BYTE   W03
 BYTE   EOT
 BYTE   W01
//  #04 //047   ----------------------------------------
 BYTE   PATT
  POIN2 Label_015DB32A
//  #04 //048   ----------------------------------------
 BYTE   PATT
  POIN2 Label_015DB33A
//  #04 //049   ----------------------------------------
 BYTE   PATT
  POIN2 Label_015DB34A
//  #04 //050   ----------------------------------------
 BYTE   PATT
  POIN2 Label_015DB358
//  #04 //051   ----------------------------------------
 BYTE   PATT
  POIN2 Label_015DB32A
//  #04 //052   ----------------------------------------
 BYTE   PATT
  POIN2 Label_015DB33A
//  #04 //053   ----------------------------------------
 BYTE   PATT
  POIN2 Label_015DB34A
//  #04 //054   ----------------------------------------
 BYTE   PATT
  POIN2 Label_015DB358
//  #04 //055   ----------------------------------------
 BYTE   PATT
  POIN2 Label_015DB32A
//  #04 //056   ----------------------------------------
 BYTE   PATT
  POIN2 Label_015DB33A
//  #04 //057   ----------------------------------------
 BYTE   PATT
  POIN2 Label_015DB34A
//  #04 //058   ----------------------------------------
 BYTE   PATT
  POIN2 Label_015DB358
//  #04 //059   ----------------------------------------
 BYTE   PATT
  POIN2 Label_015DB32A
//  #04 //060   ----------------------------------------
 BYTE   PATT
  POIN2 Label_015DB33A
//  #04 //061   ----------------------------------------
 BYTE   PATT
  POIN2 Label_015DB386
//  #04 //062   ----------------------------------------
 BYTE   W92
 BYTE   W03
 BYTE   EOT
 BYTE   Bn1
 BYTE   W01
//  #04 //063   ----------------------------------------
 BYTE   PATT
  POIN2 Label_015DB32A
//  #04 //064   ----------------------------------------
 BYTE   PATT
  POIN2 Label_015DB33A
//  #04 //065   ----------------------------------------
 BYTE   PATT
  POIN2 Label_015DB34A
//  #04 //066   ----------------------------------------
 BYTE   PATT
  POIN2 Label_015DB358
//  #04 //067   ----------------------------------------
 BYTE   GoTo
  POIN2 Label_015DB292
//  #04 //068   ----------------------------------------
 BYTE   PATT
  POIN2 Label_015DB292
//  #04 //069   ----------------------------------------
 BYTE   W96
//  #04 //070   ----------------------------------------
 BYTE   PATT
  POIN2 Label_015DB29C
//  #04 //071   ----------------------------------------
 BYTE   W36
 BYTE   N56  As1  v100
 BYTE   W60
//  #04 //072   ----------------------------------------
 BYTE   PATT
  POIN2 Label_015DB292
//  #04 //073   ----------------------------------------
 BYTE   W96
//  #04 //074   ----------------------------------------
 BYTE   PATT
  POIN2 Label_015DB2B0
//  #04 //075   ----------------------------------------
 BYTE   PATT
  POIN2 Label_015DB2B7
//  #04 //076   ----------------------------------------
 BYTE   PATT
  POIN2 Label_015DB2B0
//  #04 //077   ----------------------------------------
 BYTE   PATT
  POIN2 Label_015DB2B7
//  #04 //078   ----------------------------------------
 BYTE   PATT
  POIN2 Label_015DB2B0
//  #04 //079   ----------------------------------------
 BYTE   N32  Fs2  v100
 BYTE   W36
 BYTE   TIE  Gs2
 BYTE   W60
//  #04 //080   ----------------------------------------
 BYTE   W92
 BYTE   W03
 BYTE   EOT
 BYTE   W01
//  #04 //081   ----------------------------------------
 BYTE   W96
//  #04 //082   ----------------------------------------
 BYTE   W96
//  #04 //083   ----------------------------------------
 BYTE   W96
//  #04 //084   ----------------------------------------
 BYTE   W96
//  #04 //085   ----------------------------------------
 BYTE   W96
//  #04 //086   ----------------------------------------
 BYTE   W96
//  #04 //087   ----------------------------------------
 BYTE   W96
//  #04 //088   ----------------------------------------
 BYTE   W96
//  #04 //089   ----------------------------------------
 BYTE   VOICE   30
 BYTE   PAN   c_v+0
 BYTE   VOL   44*HisWorld_mvl/mxv
 BYTE   PAN   c_v+0
 BYTE   VOL   44*HisWorld_mvl/mxv
 BYTE   PAN   c_v+0
 BYTE   VOL   44*HisWorld_mvl/mxv
 BYTE   BEND   c_v+0
 BYTE   FINE

//**************** Track 5 (Midi-Chn.4) ****************//

HisWorld_005:
//  #05 //000   ----------------------------------------
 BYTE   KEYSH   HisWorld_key+0
 BYTE   VOICE   28
 BYTE   PAN   c_v+0
 BYTE   VOL   45*HisWorld_mvl/mxv
 BYTE   PAN   c_v+0
 BYTE   VOL   45*HisWorld_mvl/mxv
 BYTE   PAN   c_v+0
 BYTE   VOL   45*HisWorld_mvl/mxv
 BYTE   PAN   c_v+0
 BYTE   VOL   45*HisWorld_mvl/mxv
 BYTE   BEND   c_v+0
 BYTE   W96
//  #05 //001   ----------------------------------------
 BYTE   W96
//  #05 //002   ----------------------------------------
 BYTE   W96
//  #05 //003   ----------------------------------------
 BYTE   W96
//  #05 //004   ----------------------------------------
 BYTE   W96
//  #05 //005   ----------------------------------------
 BYTE   W96
//  #05 //006   ----------------------------------------
 BYTE   W96
//  #05 //007   ----------------------------------------
 BYTE   W96
//  #05 //008   ----------------------------------------
 BYTE   W96
//  #05 //009   ----------------------------------------
 BYTE   W96
//  #05 //010   ----------------------------------------
 BYTE   W96
//  #05 //011   ----------------------------------------
 BYTE   W96
//  #05 //012   ----------------------------------------
 BYTE   W96
//  #05 //013   ----------------------------------------
 BYTE   W96
//  #05 //014   ----------------------------------------
 BYTE   W96
//  #05 //015   ----------------------------------------
 BYTE   W96
//  #05 //016   ----------------------------------------
Label_015DB6C6:
 BYTE   N11  As1  v100
 BYTE   W12
 BYTE   N11
 BYTE   W72
 BYTE   N11
 BYTE   W12
 BYTE   PEND 
//  #05 //017   ----------------------------------------
 BYTE   W96
//  #05 //018   ----------------------------------------
Label_015DB6D0:
 BYTE   N11  Bn1  v100
 BYTE   W12
 BYTE   N11
 BYTE   W72
 BYTE   N44  Ds2
 BYTE   W12
 BYTE   PEND 
//  #05 //019   ----------------------------------------
 BYTE   W36
 BYTE   N56  Cs2
 BYTE   W60
//  #05 //020   ----------------------------------------
 BYTE   PATT
  POIN2 Label_015DB6C6
//  #05 //021   ----------------------------------------
 BYTE   W96
//  #05 //022   ----------------------------------------
Label_015DB6E4:
 BYTE   N44  Bn1  v100
 BYTE   W48
 BYTE   Cs2
 BYTE   W48
 BYTE   PEND 
//  #05 //023   ----------------------------------------
Label_015DB6EB:
 BYTE   N44  Ds2  v100
 BYTE   W48
 BYTE   Fn2
 BYTE   W48
 BYTE   PEND 
//  #05 //024   ----------------------------------------
Label_015DB6F2:
 BYTE   N11  Ds2  v100
 BYTE   W12
 BYTE   N11
 BYTE   W12
 BYTE   N11
 BYTE   W12
 BYTE   N11
 BYTE   W12
 BYTE   N11
 BYTE   W12
 BYTE   N11
 BYTE   W12
 BYTE   N11
 BYTE   W12
 BYTE   Cs2
 BYTE   W12
 BYTE   PEND 
//  #05 //025   ----------------------------------------
Label_015DB705:
 BYTE   N11  Cs2  v100
 BYTE   W12
 BYTE   N11
 BYTE   W12
 BYTE   N11
 BYTE   W12
 BYTE   N11
 BYTE   W12
 BYTE   N11
 BYTE   W12
 BYTE   N11
 BYTE   W12
 BYTE   N11
 BYTE   W12
 BYTE   N11
 BYTE   W12
 BYTE   PEND 
//  #05 //026   ----------------------------------------
 BYTE   Bn1
 BYTE   W12
 BYTE   N11
 BYTE   W12
 BYTE   N11
 BYTE   W12
 BYTE   N11
 BYTE   W12
 BYTE   N11
 BYTE   W12
 BYTE   N11
 BYTE   W12
 BYTE   N11
 BYTE   W12
 BYTE   Gs1
 BYTE   W12
//  #05 //027   ----------------------------------------
 BYTE   N11
 BYTE   W12
 BYTE   N11
 BYTE   W12
 BYTE   N11
 BYTE   W12
 BYTE   As1
 BYTE   W12
 BYTE   N11
 BYTE   W12
 BYTE   N11
 BYTE   W12
 BYTE   N11
 BYTE   W12
 BYTE   N11
 BYTE   W12
//  #05 //028   ----------------------------------------
 BYTE   PATT
  POIN2 Label_015DB6F2
//  #05 //029   ----------------------------------------
 BYTE   PATT
  POIN2 Label_015DB705
//  #05 //030   ----------------------------------------
 BYTE   PATT
  POIN2 Label_015DB6E4
//  #05 //031   ----------------------------------------
 BYTE   PATT
  POIN2 Label_015DB6EB
//  #05 //032   ----------------------------------------
 BYTE   PATT
  POIN2 Label_015DB6E4
//  #05 //033   ----------------------------------------
Label_015DB751:
 BYTE   N32  Ds2  v100
 BYTE   W36
 BYTE   TIE  Fn2
 BYTE   W60
 BYTE   PEND 
//  #05 //034   ----------------------------------------
 BYTE   W92
 BYTE   W03
 BYTE   EOT
 BYTE   W01
//  #05 //035   ----------------------------------------
Label_015DB75D:
 BYTE   N23  Bn1  v080
 BYTE   W24
 BYTE   N23
 BYTE   W24
 BYTE   N11
 BYTE   W12
 BYTE   N11
 BYTE   W12
 BYTE   N11
 BYTE   W12
 BYTE   N23  Cs2
 BYTE   W12
 BYTE   PEND 
//  #05 //036   ----------------------------------------
Label_015DB76D:
 BYTE   W12
 BYTE   N11  Cs2  v080
 BYTE   W12
 BYTE   N23
 BYTE   W24
 BYTE   N11
 BYTE   W12
 BYTE   N11
 BYTE   W12
 BYTE   N11
 BYTE   W12
 BYTE   N11
 BYTE   W12
 BYTE   PEND 
//  #05 //037   ----------------------------------------
Label_015DB77D:
 BYTE   N23  Ds2  v080
 BYTE   W24
 BYTE   N23
 BYTE   W24
 BYTE   N11
 BYTE   W24
 BYTE   N11
 BYTE   W12
 BYTE   N23  Fs2
 BYTE   W12
 BYTE   PEND 
//  #05 //038   ----------------------------------------
Label_015DB78B:
 BYTE   W12
 BYTE   N11  Fs2  v080
 BYTE   W12
 BYTE   N23
 BYTE   W24
 BYTE   N11
 BYTE   W12
 BYTE   N11
 BYTE   W12
 BYTE   N11
 BYTE   W12
 BYTE   N11
 BYTE   W12
 BYTE   PEND 
//  #05 //039   ----------------------------------------
 BYTE   PATT
  POIN2 Label_015DB75D
//  #05 //040   ----------------------------------------
 BYTE   PATT
  POIN2 Label_015DB76D
//  #05 //041   ----------------------------------------
 BYTE   PATT
  POIN2 Label_015DB77D
//  #05 //042   ----------------------------------------
 BYTE   PATT
  POIN2 Label_015DB78B
//  #05 //043   ----------------------------------------
 BYTE   PATT
  POIN2 Label_015DB75D
//  #05 //044   ----------------------------------------
 BYTE   PATT
  POIN2 Label_015DB76D
//  #05 //045   ----------------------------------------
Label_015DB7B9:
 BYTE   N44  Ds2  v080
 BYTE   W48
 BYTE   N32  Cs2
 BYTE   W36
 BYTE   TIE  Bn1
 BYTE   W12
 BYTE   PEND 
//  #05 //046   ----------------------------------------
 BYTE   W92
 BYTE   W03
 BYTE   EOT
 BYTE   W01
//  #05 //047   ----------------------------------------
 BYTE   PATT
  POIN2 Label_015DB75D
//  #05 //048   ----------------------------------------
 BYTE   PATT
  POIN2 Label_015DB76D
//  #05 //049   ----------------------------------------
 BYTE   PATT
  POIN2 Label_015DB77D
//  #05 //050   ----------------------------------------
 BYTE   PATT
  POIN2 Label_015DB78B
//  #05 //051   ----------------------------------------
 BYTE   PATT
  POIN2 Label_015DB75D
//  #05 //052   ----------------------------------------
 BYTE   PATT
  POIN2 Label_015DB76D
//  #05 //053   ----------------------------------------
 BYTE   PATT
  POIN2 Label_015DB77D
//  #05 //054   ----------------------------------------
 BYTE   PATT
  POIN2 Label_015DB78B
//  #05 //055   ----------------------------------------
 BYTE   PATT
  POIN2 Label_015DB75D
//  #05 //056   ----------------------------------------
 BYTE   PATT
  POIN2 Label_015DB76D
//  #05 //057   ----------------------------------------
 BYTE   PATT
  POIN2 Label_015DB77D
//  #05 //058   ----------------------------------------
 BYTE   PATT
  POIN2 Label_015DB78B
//  #05 //059   ----------------------------------------
 BYTE   PATT
  POIN2 Label_015DB75D
//  #05 //060   ----------------------------------------
 BYTE   PATT
  POIN2 Label_015DB76D
//  #05 //061   ----------------------------------------
 BYTE   PATT
  POIN2 Label_015DB7B9
//  #05 //062   ----------------------------------------
 BYTE   W92
 BYTE   W03
 BYTE   EOT
 BYTE   Bn1
 BYTE   W01
//  #05 //063   ----------------------------------------
 BYTE   PATT
  POIN2 Label_015DB75D
//  #05 //064   ----------------------------------------
 BYTE   PATT
  POIN2 Label_015DB76D
//  #05 //065   ----------------------------------------
 BYTE   PATT
  POIN2 Label_015DB77D
//  #05 //066   ----------------------------------------
 BYTE   PATT
  POIN2 Label_015DB78B
//  #05 //067   ----------------------------------------
 BYTE   GoTo
  POIN2 Label_015DB6C6
//  #05 //068   ----------------------------------------
 BYTE   PATT
  POIN2 Label_015DB6C6
//  #05 //069   ----------------------------------------
 BYTE   W96
//  #05 //070   ----------------------------------------
 BYTE   PATT
  POIN2 Label_015DB6D0
//  #05 //071   ----------------------------------------
 BYTE   W36
 BYTE   N56  Cs2  v100
 BYTE   W60
//  #05 //072   ----------------------------------------
 BYTE   PATT
  POIN2 Label_015DB6C6
//  #05 //073   ----------------------------------------
 BYTE   W96
//  #05 //074   ----------------------------------------
 BYTE   PATT
  POIN2 Label_015DB6E4
//  #05 //075   ----------------------------------------
 BYTE   PATT
  POIN2 Label_015DB6EB
//  #05 //076   ----------------------------------------
 BYTE   PATT
  POIN2 Label_015DB6E4
//  #05 //077   ----------------------------------------
 BYTE   PATT
  POIN2 Label_015DB6EB
//  #05 //078   ----------------------------------------
 BYTE   PATT
  POIN2 Label_015DB6E4
//  #05 //079   ----------------------------------------
 BYTE   PATT
  POIN2 Label_015DB751
//  #05 //080   ----------------------------------------
 BYTE   W92
 BYTE   W03
 BYTE   EOT
 BYTE   Fn2
 BYTE   W01
//  #05 //081   ----------------------------------------
 BYTE   W96
//  #05 //082   ----------------------------------------
 BYTE   W96
//  #05 //083   ----------------------------------------
 BYTE   W96
//  #05 //084   ----------------------------------------
 BYTE   W96
//  #05 //085   ----------------------------------------
 BYTE   W96
//  #05 //086   ----------------------------------------
 BYTE   W96
//  #05 //087   ----------------------------------------
 BYTE   W96
//  #05 //088   ----------------------------------------
 BYTE   W96
//  #05 //089   ----------------------------------------
 BYTE   PAN   c_v+0
 BYTE   VOL   45*HisWorld_mvl/mxv
 BYTE   PAN   c_v+0
 BYTE   VOL   45*HisWorld_mvl/mxv
 BYTE   PAN   c_v+0
 BYTE   VOL   45*HisWorld_mvl/mxv
 BYTE   BEND   c_v+0
 BYTE   FINE

//**************** Track 6 (Midi-Chn.5) ****************//

HisWorld_006:
//  #06 //000   ----------------------------------------
 BYTE   KEYSH   HisWorld_key+0
 BYTE   VOICE   49
 BYTE   PAN   c_v+0
 BYTE   VOL   38*HisWorld_mvl/mxv
 BYTE   PAN   c_v+0
 BYTE   VOL   38*HisWorld_mvl/mxv
 BYTE   PAN   c_v+0
 BYTE   VOL   38*HisWorld_mvl/mxv
 BYTE   PAN   c_v+0
 BYTE   VOL   38*HisWorld_mvl/mxv
 BYTE   BEND   c_v+0
 BYTE   W96
//  #06 //001   ----------------------------------------
 BYTE   W96
//  #06 //002   ----------------------------------------
 BYTE   W96
//  #06 //003   ----------------------------------------
 BYTE   W96
//  #06 //004   ----------------------------------------
 BYTE   W96
//  #06 //005   ----------------------------------------
 BYTE   W96
//  #06 //006   ----------------------------------------
 BYTE   W96
//  #06 //007   ----------------------------------------
 BYTE   W96
//  #06 //008   ----------------------------------------
 BYTE   W96
//  #06 //009   ----------------------------------------
 BYTE   W96
//  #06 //010   ----------------------------------------
 BYTE   W96
//  #06 //011   ----------------------------------------
 BYTE   W96
//  #06 //012   ----------------------------------------
 BYTE   W96
//  #06 //013   ----------------------------------------
 BYTE   W96
//  #06 //014   ----------------------------------------
 BYTE   W96
//  #06 //015   ----------------------------------------
 BYTE   W96
//  #06 //016   ----------------------------------------
Label_014B897E:
 BYTE   N05  Ds3  v100
 BYTE   N05  Fs3
 BYTE   N05  Ds4
 BYTE   W12
 BYTE   As3
 BYTE   W12
 BYTE   Fn4
 BYTE   W12
 BYTE   As3
 BYTE   W12
 BYTE   Fs4
 BYTE   W12
 BYTE   As3
 BYTE   W12
 BYTE   Gs4
 BYTE   W12
 BYTE   Ds3
 BYTE   N05  Fs3
 BYTE   N05  As3
 BYTE   N05  Ds4
 BYTE   W12
 BYTE   PEND 
//  #06 //017   ----------------------------------------
Label_014B899B:
 BYTE   W12
 BYTE   N05  Gs3  v100
 BYTE   W12
 BYTE   Fn4
 BYTE   W12
 BYTE   Gs3
 BYTE   W12
 BYTE   Fs4
 BYTE   W12
 BYTE   Gs3
 BYTE   W12
 BYTE   Gs4
 BYTE   W12
 BYTE   Gs3
 BYTE   W12
 BYTE   PEND 
//  #06 //018   ----------------------------------------
Label_014B89AD:
 BYTE   N05  Ds3  v100
 BYTE   N05  Fs3
 BYTE   N05  Ds4
 BYTE   W12
 BYTE   As3
 BYTE   W12
 BYTE   Fn4
 BYTE   W12
 BYTE   As3
 BYTE   W12
 BYTE   Fs4
 BYTE   W12
 BYTE   As3
 BYTE   W12
 BYTE   Gs4
 BYTE   W12
 BYTE   Ds3
 BYTE   N05  Fs3
 BYTE   N23  Gs3
 BYTE   N05  As3
 BYTE   W12
 BYTE   PEND 
//  #06 //019   ----------------------------------------
Label_014B89CA:
 BYTE   N05  Ds4  v100
 BYTE   W24
 BYTE   N11  Gs3
 BYTE   N05  Fn4
 BYTE   W12
 BYTE   Ds3
 BYTE   N05  Ds4
 BYTE   W06
 BYTE   Fn3
 BYTE   N05  Fn4
 BYTE   W06
 BYTE   Fs3
 BYTE   N05  As3
 BYTE   N05  Fs4
 BYTE   W12
 BYTE   Fn3
 BYTE   N05  Gs3
 BYTE   N05  Fn4
 BYTE   W12
 BYTE   Ds3
 BYTE   N05  Fs3
 BYTE   N05  Ds4
 BYTE   W12
 BYTE   Cs3
 BYTE   N05  Fn3
 BYTE   N05  Cs4
 BYTE   W12
 BYTE   PEND 
//  #06 //020   ----------------------------------------
 BYTE   PATT
  POIN2 Label_014B897E
//  #06 //021   ----------------------------------------
 BYTE   PATT
  POIN2 Label_014B899B
//  #06 //022   ----------------------------------------
 BYTE   PATT
  POIN2 Label_014B89AD
//  #06 //023   ----------------------------------------
 BYTE   PATT
  POIN2 Label_014B89CA
//  #06 //024   ----------------------------------------
 BYTE   PATT
  POIN2 Label_014B897E
//  #06 //025   ----------------------------------------
 BYTE   PATT
  POIN2 Label_014B899B
//  #06 //026   ----------------------------------------
 BYTE   PATT
  POIN2 Label_014B89AD
//  #06 //027   ----------------------------------------
 BYTE   PATT
  POIN2 Label_014B89CA
//  #06 //028   ----------------------------------------
 BYTE   PATT
  POIN2 Label_014B897E
//  #06 //029   ----------------------------------------
 BYTE   PATT
  POIN2 Label_014B899B
//  #06 //030   ----------------------------------------
Label_014B8A26:
 BYTE   N44  Gs1  v100
 BYTE   N44  Bn1  v088
 BYTE   N44  Ds3
 BYTE   N44  Bn3
 BYTE   N44  Gs4
 BYTE   W48
 BYTE   As1  v100
 BYTE   N44  Cs2  v088
 BYTE   N44  Fn3
 BYTE   N44  Cs4
 BYTE   N44  As4
 BYTE   W48
 BYTE   PEND 
//  #06 //031   ----------------------------------------
 BYTE   Bn1  v100
 BYTE   N44  Ds2  v080
 BYTE   N44  Bn3
 BYTE   N44  Ds4
 BYTE   N44  Bn4
 BYTE   W48
 BYTE   Cs2  v100
 BYTE   N44  Fn2  v080
 BYTE   N44  Cs4
 BYTE   N44  Fn4
 BYTE   N44  Cs5
 BYTE   W48
//  #06 //032   ----------------------------------------
 BYTE   PATT
  POIN2 Label_014B8A26
//  #06 //033   ----------------------------------------
 BYTE   N32  Bn1  v100
 BYTE   N32  Ds2  v080
 BYTE   N32  Bn3
 BYTE   N32  Ds4
 BYTE   N32  Bn4
 BYTE   W36
 BYTE   TIE  Cs2
 BYTE   TIE  Fn2
 BYTE   TIE  Cs4
 BYTE   TIE  Fn4
 BYTE   TIE  Cs5
 BYTE   W60
//  #06 //034   ----------------------------------------
 BYTE   W92
 BYTE   W03
 BYTE   EOT
 BYTE   Cs2  v053
 BYTE   Cs4  v077
 BYTE   Cs5
 BYTE   W01
//  #06 //035   ----------------------------------------
 BYTE   W96
//  #06 //036   ----------------------------------------
Label_014B8A7F:
 BYTE   N11  As3  v124
 BYTE   N11  As4
 BYTE   W12
 BYTE   Gs3  v120
 BYTE   N11  Gs4
 BYTE   W12
 BYTE   Fs3
 BYTE   N11  Fs4
 BYTE   W12
 BYTE   N68  Cs3
 BYTE   N68  Cs4
 BYTE   W60
 BYTE   PEND 
//  #06 //037   ----------------------------------------
Label_014B8A94:
 BYTE   W84
 BYTE   N11  As3  v112
 BYTE   N11  As4
 BYTE   W12
 BYTE   PEND 
//  #06 //038   ----------------------------------------
Label_014B8A9C:
 BYTE   N11  Gs3  v112
 BYTE   N11  Gs4
 BYTE   W12
 BYTE   As3
 BYTE   N11  As4
 BYTE   W12
 BYTE   Fs3
 BYTE   N11  Fs4
 BYTE   W12
 BYTE   As3
 BYTE   N11  As4
 BYTE   W12
 BYTE   Cs3
 BYTE   N11  Cs4
 BYTE   W12
 BYTE   As3
 BYTE   N11  As4
 BYTE   W12
 BYTE   Cs3
 BYTE   N11  Cs4
 BYTE   W12
 BYTE   As3
 BYTE   N11  As4
 BYTE   W12
 BYTE   PEND 
//  #06 //039   ----------------------------------------
 BYTE   W96
//  #06 //040   ----------------------------------------
Label_014B8AC0:
 BYTE   N23  Fn3  v108
 BYTE   N23  Fn4
 BYTE   W24
 BYTE   N11  Ds3
 BYTE   N11  Ds4
 BYTE   W12
 BYTE   Cs3
 BYTE   N11  Cs4
 BYTE   W24
 BYTE   N44  Gs2  v104
 BYTE   N44  Gs3
 BYTE   W36
 BYTE   PEND 
//  #06 //041   ----------------------------------------
 BYTE   W96
//  #06 //042   ----------------------------------------
Label_014B8AD7:
 BYTE   W12
 BYTE   N05  As3  v108
 BYTE   N05  As4
 BYTE   W06
 BYTE   An3
 BYTE   N05  An4
 BYTE   W06
 BYTE   As3  v112
 BYTE   N05  As4
 BYTE   W06
 BYTE   An3
 BYTE   N05  An4
 BYTE   W06
 BYTE   As3
 BYTE   N05  As4
 BYTE   W06
 BYTE   An3
 BYTE   N05  An4
 BYTE   W06
 BYTE   N11  Fs3
 BYTE   N11  Fs4
 BYTE   W12
 BYTE   Fn3
 BYTE   N11  Fn4
 BYTE   W12
 BYTE   Cs3
 BYTE   N11  Cs4
 BYTE   W12
 BYTE   As2
 BYTE   N11  As3
 BYTE   W12
 BYTE   PEND 
//  #06 //043   ----------------------------------------
 BYTE   W96
//  #06 //044   ----------------------------------------
 BYTE   PATT
  POIN2 Label_014B8A7F
//  #06 //045   ----------------------------------------
Label_014B8B0B:
 BYTE   N44  As3  v112
 BYTE   N44  Fs4
 BYTE   W48
 BYTE   N32  Gs3
 BYTE   N32  Fn4
 BYTE   W36
 BYTE   TIE  Fs3
 BYTE   TIE  Ds4
 BYTE   W12
 BYTE   PEND 
//  #06 //046   ----------------------------------------
 BYTE   W92
 BYTE   W03
 BYTE   EOT
 BYTE   Fs3  v075
 BYTE   W01
//  #06 //047   ----------------------------------------
 BYTE   W96
//  #06 //048   ----------------------------------------
Label_014B8B23:
 BYTE   N44  As3  v108
 BYTE   N44  As4
 BYTE   W48
 BYTE   Gs3  v112
 BYTE   N44  Gs4
 BYTE   W48
 BYTE   PEND 
//  #06 //049   ----------------------------------------
Label_014B8B2F:
 BYTE   N92  Ds4  v112
 BYTE   N92  Cs5
 BYTE   W84
 BYTE   N11  As3
 BYTE   N11  As4
 BYTE   W12
 BYTE   PEND 
//  #06 //050   ----------------------------------------
 BYTE   PATT
  POIN2 Label_014B8A9C
//  #06 //051   ----------------------------------------
 BYTE   W96
//  #06 //052   ----------------------------------------
 BYTE   PATT
  POIN2 Label_014B8A7F
//  #06 //053   ----------------------------------------
 BYTE   PATT
  POIN2 Label_014B8A94
//  #06 //054   ----------------------------------------
 BYTE   PATT
  POIN2 Label_014B8A9C
//  #06 //055   ----------------------------------------
 BYTE   W96
//  #06 //056   ----------------------------------------
 BYTE   PATT
  POIN2 Label_014B8AC0
//  #06 //057   ----------------------------------------
 BYTE   W96
//  #06 //058   ----------------------------------------
 BYTE   PATT
  POIN2 Label_014B8AD7
//  #06 //059   ----------------------------------------
 BYTE   W96
//  #06 //060   ----------------------------------------
 BYTE   W96
//  #06 //061   ----------------------------------------
 BYTE   PATT
  POIN2 Label_014B8B0B
//  #06 //062   ----------------------------------------
 BYTE   W92
 BYTE   W03
 BYTE   EOT
 BYTE   Fs3  v075
 BYTE   W01
//  #06 //063   ----------------------------------------
 BYTE   W96
//  #06 //064   ----------------------------------------
 BYTE   PATT
  POIN2 Label_014B8B23
//  #06 //065   ----------------------------------------
 BYTE   PATT
  POIN2 Label_014B8B2F
//  #06 //066   ----------------------------------------
 BYTE   PATT
  POIN2 Label_014B8A9C
//  #06 //067   ----------------------------------------
 BYTE   GoTo
  POIN2 Label_014B897E
//  #06 //068   ----------------------------------------
 BYTE   PATT
  POIN2 Label_014B897E
//  #06 //069   ----------------------------------------
 BYTE   PATT
  POIN2 Label_014B899B
//  #06 //070   ----------------------------------------
 BYTE   PATT
  POIN2 Label_014B89AD
//  #06 //071   ----------------------------------------
 BYTE   PATT
  POIN2 Label_014B89CA
//  #06 //072   ----------------------------------------
 BYTE   PATT
  POIN2 Label_014B897E
//  #06 //073   ----------------------------------------
 BYTE   PATT
  POIN2 Label_014B899B
//  #06 //074   ----------------------------------------
Label_014B8B9C:
 BYTE   N44  Gs1  v100
 BYTE   N44  Bn1  v088
 BYTE   N44  Ds3
 BYTE   N23  As3  v112
 BYTE   N23  As4
 BYTE   W24
 BYTE   Gs3
 BYTE   N23  Gs4
 BYTE   W24
 BYTE   N44  As1  v100
 BYTE   N44  Cs2  v088
 BYTE   N44  Fn3
 BYTE   N23  Fs3  v112
 BYTE   N23  Fs4
 BYTE   W24
 BYTE   N11  Gs3
 BYTE   N11  Gs4
 BYTE   W12
 BYTE   N12  Fs3
 BYTE   TIE  Fs4
 BYTE   W12
 BYTE   PEND 
//  #06 //075   ----------------------------------------
Label_014B8BC7:
 BYTE   N44  Bn1  v100
 BYTE   N44  Ds2  v080
 BYTE   N32  Fs3
 BYTE   W36
 BYTE   N56  Fn3  v112
 BYTE   W12
 BYTE   N44  Cs2  v100
 BYTE   N44  Fn2  v080
 BYTE   N44  Gs3
 BYTE   W44
 BYTE   W03
 BYTE   PEND 
 BYTE   EOT
 BYTE   Fs4
 BYTE   W01
//  #06 //076   ----------------------------------------
 BYTE   PATT
  POIN2 Label_014B8B9C
//  #06 //077   ----------------------------------------
 BYTE   PATT
  POIN2 Label_014B8BC7
//  #06 //078   ----------------------------------------
 BYTE   EOT
 BYTE   Fs4
 BYTE   W01
 BYTE   N44  Gs1  v100
 BYTE   N44  Bn1  v088
 BYTE   N44  Ds3
 BYTE   N23  Ds4  v112
 BYTE   N23  Ds5
 BYTE   W24
 BYTE   Cs4
 BYTE   N23  Cs5
 BYTE   W24
 BYTE   N44  As1  v100
 BYTE   N44  Cs2  v088
 BYTE   N44  Fn3
 BYTE   N23  As3  v112
 BYTE   N23  As4
 BYTE   W24
 BYTE   N11  Cs4
 BYTE   N11  Cs5
 BYTE   W12
 BYTE   TIE  As3
 BYTE   TIE  As4
 BYTE   W12
//  #06 //079   ----------------------------------------
 BYTE   N32  Bn1  v100
 BYTE   N32  Ds2  v080
 BYTE   N32  Fs3
 BYTE   W36
 BYTE   TIE  Cs2
 BYTE   TIE  Fn2
 BYTE   TIE  Gs3
 BYTE   W60
//  #06 //080   ----------------------------------------
 BYTE   W92
 BYTE   W03
 BYTE   EOT
 BYTE   Cs2  v053
 BYTE   Gs3  v070
 BYTE   As4
 BYTE   W01
//  #06 //081   ----------------------------------------
 BYTE   W96
//  #06 //082   ----------------------------------------
 BYTE   W96
//  #06 //083   ----------------------------------------
 BYTE   W96
//  #06 //084   ----------------------------------------
 BYTE   W96
//  #06 //085   ----------------------------------------
 BYTE   W96
//  #06 //086   ----------------------------------------
 BYTE   W96
//  #06 //087   ----------------------------------------
 BYTE   W96
//  #06 //088   ----------------------------------------
 BYTE   W96
//  #06 //089   ----------------------------------------
 BYTE   PAN   c_v+0
 BYTE   VOL   38*HisWorld_mvl/mxv
 BYTE   PAN   c_v+0
 BYTE   VOL   38*HisWorld_mvl/mxv
 BYTE   PAN   c_v+0
 BYTE   VOL   38*HisWorld_mvl/mxv
 BYTE   BEND   c_v+0
 BYTE   FINE

//**************** Track 7 (Midi-Chn.6) ****************//

HisWorld_007:
//  #07 //000   ----------------------------------------
 BYTE   KEYSH   HisWorld_key+0
 BYTE   VOICE   105
 BYTE   PAN   c_v+0
 BYTE   VOL   33*HisWorld_mvl/mxv
 BYTE   PAN   c_v+0
 BYTE   VOL   33*HisWorld_mvl/mxv
 BYTE   PAN   c_v+0
 BYTE   VOL   33*HisWorld_mvl/mxv
 BYTE   PAN   c_v+0
 BYTE   VOL   33*HisWorld_mvl/mxv
 BYTE   W96
//  #07 //001   ----------------------------------------
 BYTE   W96
//  #07 //002   ----------------------------------------
 BYTE   W96
//  #07 //003   ----------------------------------------
 BYTE   W96
//  #07 //004   ----------------------------------------
 BYTE   W96
//  #07 //005   ----------------------------------------
 BYTE   W96
//  #07 //006   ----------------------------------------
 BYTE   W96
//  #07 //007   ----------------------------------------
 BYTE   W96
//  #07 //008   ----------------------------------------
 BYTE   W96
//  #07 //009   ----------------------------------------
 BYTE   W96
//  #07 //010   ----------------------------------------
 BYTE   W96
//  #07 //011   ----------------------------------------
 BYTE   W96
//  #07 //012   ----------------------------------------
 BYTE   W96
//  #07 //013   ----------------------------------------
 BYTE   W96
//  #07 //014   ----------------------------------------
 BYTE   W96
//  #07 //015   ----------------------------------------
 BYTE   W96
//  #07 //016   ----------------------------------------
Label_015DB538:
 BYTE   W96
//  #07 //017   ----------------------------------------
 BYTE   W96
//  #07 //018   ----------------------------------------
 BYTE   W96
//  #07 //019   ----------------------------------------
 BYTE   W96
//  #07 //020   ----------------------------------------
 BYTE   W96
//  #07 //021   ----------------------------------------
 BYTE   W96
//  #07 //022   ----------------------------------------
 BYTE   W96
//  #07 //023   ----------------------------------------
 BYTE   W96
//  #07 //024   ----------------------------------------
 BYTE   W96
//  #07 //025   ----------------------------------------
 BYTE   W96
//  #07 //026   ----------------------------------------
 BYTE   W96
//  #07 //027   ----------------------------------------
 BYTE   W96
//  #07 //028   ----------------------------------------
 BYTE   W96
//  #07 //029   ----------------------------------------
 BYTE   W96
//  #07 //030   ----------------------------------------
 BYTE   W96
//  #07 //031   ----------------------------------------
 BYTE   W96
//  #07 //032   ----------------------------------------
 BYTE   W96
//  #07 //033   ----------------------------------------
 BYTE   W96
//  #07 //034   ----------------------------------------
Label_015DB54A:
 BYTE   W48
 BYTE   N23  Ds3  v127
 BYTE   W24
 BYTE   Ds4
 BYTE   W24
 BYTE   PEND 
//  #07 //035   ----------------------------------------
Label_015DB552:
 BYTE   TIE  Cs4  v127
 BYTE   W24
 BYTE   N23  Cs3
 BYTE   N23  Fs3
 BYTE   W24
 BYTE   N44  Cs3
 BYTE   N44  Fs3
 BYTE   W48
 BYTE   PEND 
//  #07 //036   ----------------------------------------
 BYTE   W68
 BYTE   W03
 BYTE   EOT
 BYTE   Cs4
 BYTE   W13
 BYTE   N11  Ds4
 BYTE   W12
//  #07 //037   ----------------------------------------
Label_015DB569:
 BYTE   N68  Cs4  v127
 BYTE   W72
 BYTE   N11  Bn3
 BYTE   W12
 BYTE   N56  As3
 BYTE   W12
 BYTE   PEND 
//  #07 //038   ----------------------------------------
 BYTE   PATT
  POIN2 Label_015DB54A
//  #07 //039   ----------------------------------------
 BYTE   PATT
  POIN2 Label_015DB552
//  #07 //040   ----------------------------------------
 BYTE   W68
 BYTE   W03
 BYTE   EOT
 BYTE   Cs4
 BYTE   W13
 BYTE   N11  Ds4  v127
 BYTE   W12
//  #07 //041   ----------------------------------------
 BYTE   PATT
  POIN2 Label_015DB569
//  #07 //042   ----------------------------------------
 BYTE   PATT
  POIN2 Label_015DB54A
//  #07 //043   ----------------------------------------
 BYTE   PATT
  POIN2 Label_015DB552
//  #07 //044   ----------------------------------------
 BYTE   W92
 BYTE   W03
 BYTE   EOT
 BYTE   Cs4
 BYTE   W01
//  #07 //045   ----------------------------------------
Label_015DB59B:
 BYTE   N44  Cs4  v127
 BYTE   W48
 BYTE   N32  Bn3
 BYTE   W36
 BYTE   N11  As3
 BYTE   W12
 BYTE   PEND 
//  #07 //046   ----------------------------------------
Label_015DB5A6:
 BYTE   W12
 BYTE   N11  As3  v127
 BYTE   W12
 BYTE   N23
 BYTE   W24
 BYTE   Ds3
 BYTE   W24
 BYTE   Ds4
 BYTE   W24
 BYTE   PEND 
//  #07 //047   ----------------------------------------
Label_015DB5B2:
 BYTE   N80  Cs4  v127
 BYTE   W84
 BYTE   N11  Ds4
 BYTE   W12
 BYTE   PEND 
//  #07 //048   ----------------------------------------
Label_015DB5BA:
 BYTE   N23  Fn4  v127
 BYTE   W24
 BYTE   Cs4
 BYTE   W24
 BYTE   N44  As3
 BYTE   W48
 BYTE   PEND 
//  #07 //049   ----------------------------------------
Label_015DB5C4:
 BYTE   N68  Fs4  v127
 BYTE   W84
 BYTE   N23  As4
 BYTE   W12
 BYTE   PEND 
//  #07 //050   ----------------------------------------
 BYTE   W12
 BYTE   N11  Gs4
 BYTE   W12
 BYTE   N23  Fs4
 BYTE   W24
 BYTE   Ds3
 BYTE   W24
 BYTE   Ds4
 BYTE   W24
//  #07 //051   ----------------------------------------
 BYTE   PATT
  POIN2 Label_015DB552
//  #07 //052   ----------------------------------------
 BYTE   W68
 BYTE   W03
 BYTE   EOT
 BYTE   Cs4
 BYTE   W13
 BYTE   N11  Ds4  v127
 BYTE   W12
//  #07 //053   ----------------------------------------
 BYTE   PATT
  POIN2 Label_015DB569
//  #07 //054   ----------------------------------------
 BYTE   PATT
  POIN2 Label_015DB54A
//  #07 //055   ----------------------------------------
 BYTE   PATT
  POIN2 Label_015DB552
//  #07 //056   ----------------------------------------
 BYTE   W68
 BYTE   W03
 BYTE   EOT
 BYTE   Cs4
 BYTE   W13
 BYTE   N11  Ds4  v127
 BYTE   W12
//  #07 //057   ----------------------------------------
 BYTE   PATT
  POIN2 Label_015DB569
//  #07 //058   ----------------------------------------
 BYTE   PATT
  POIN2 Label_015DB54A
//  #07 //059   ----------------------------------------
 BYTE   PATT
  POIN2 Label_015DB552
//  #07 //060   ----------------------------------------
 BYTE   W92
 BYTE   W03
 BYTE   EOT
 BYTE   Cs4
 BYTE   W01
//  #07 //061   ----------------------------------------
 BYTE   PATT
  POIN2 Label_015DB59B
//  #07 //062   ----------------------------------------
 BYTE   PATT
  POIN2 Label_015DB5A6
//  #07 //063   ----------------------------------------
 BYTE   PATT
  POIN2 Label_015DB5B2
//  #07 //064   ----------------------------------------
 BYTE   PATT
  POIN2 Label_015DB5BA
//  #07 //065   ----------------------------------------
 BYTE   PATT
  POIN2 Label_015DB5C4
//  #07 //066   ----------------------------------------
 BYTE   W12
 BYTE   N11  Gs4  v127
 BYTE   W12
 BYTE   N68  Fs4
 BYTE   W72
//  #07 //067   ----------------------------------------
 BYTE   GoTo
  POIN2 Label_015DB538
//  #07 //068   ----------------------------------------
 BYTE   W96
//  #07 //069   ----------------------------------------
 BYTE   W96
//  #07 //070   ----------------------------------------
 BYTE   W96
//  #07 //071   ----------------------------------------
 BYTE   W96
//  #07 //072   ----------------------------------------
 BYTE   W96
//  #07 //073   ----------------------------------------
 BYTE   W96
//  #07 //074   ----------------------------------------
 BYTE   W96
//  #07 //075   ----------------------------------------
 BYTE   W96
//  #07 //076   ----------------------------------------
 BYTE   W96
//  #07 //077   ----------------------------------------
 BYTE   W96
//  #07 //078   ----------------------------------------
 BYTE   W96
//  #07 //079   ----------------------------------------
 BYTE   W96
//  #07 //080   ----------------------------------------
 BYTE   W96
//  #07 //081   ----------------------------------------
 BYTE   W96
//  #07 //082   ----------------------------------------
 BYTE   W96
//  #07 //083   ----------------------------------------
 BYTE   W96
//  #07 //084   ----------------------------------------
 BYTE   W96
//  #07 //085   ----------------------------------------
 BYTE   W96
//  #07 //086   ----------------------------------------
 BYTE   W96
//  #07 //087   ----------------------------------------
 BYTE   W96
//  #07 //088   ----------------------------------------
 BYTE   W96
//  #07 //089   ----------------------------------------
 BYTE   PAN   c_v+0
 BYTE   VOL   33*HisWorld_mvl/mxv
 BYTE   PAN   c_v+0
 BYTE   VOL   33*HisWorld_mvl/mxv
 BYTE   PAN   c_v+0
 BYTE   VOL   33*HisWorld_mvl/mxv
 BYTE   FINE

//**************** Track 8 (Midi-Chn.7) ****************//

HisWorld_008:
//  #08 //000   ----------------------------------------
 BYTE   KEYSH   HisWorld_key+0
 BYTE   VOICE   124
 BYTE   PAN   c_v+0
 BYTE   VOL   37*HisWorld_mvl/mxv
 BYTE   PAN   c_v+0
 BYTE   VOL   37*HisWorld_mvl/mxv
 BYTE   PAN   c_v+0
 BYTE   VOL   37*HisWorld_mvl/mxv
 BYTE   PAN   c_v+0
 BYTE   VOL   37*HisWorld_mvl/mxv
 BYTE   PAN   c_v+0
 BYTE   VOL   37*HisWorld_mvl/mxv
 BYTE   PAN   c_v+0
 BYTE   VOL   37*HisWorld_mvl/mxv
 BYTE   PAN   c_v+0
 BYTE   VOL   37*HisWorld_mvl/mxv
 BYTE   PAN   c_v+0
 BYTE   VOL   37*HisWorld_mvl/mxv
 BYTE   BEND   c_v+0
 BYTE   TIE  An2  v080
 BYTE   W96
//  #08 //001   ----------------------------------------
 BYTE   W23
 BYTE   EOT
 BYTE   W72
 BYTE   W01
//  #08 //002   ----------------------------------------
 BYTE   W96
//  #08 //003   ----------------------------------------
 BYTE   W96
//  #08 //004   ----------------------------------------
 BYTE   W96
//  #08 //005   ----------------------------------------
 BYTE   W96
//  #08 //006   ----------------------------------------
 BYTE   W96
//  #08 //007   ----------------------------------------
 BYTE   W96
//  #08 //008   ----------------------------------------
 BYTE   N05  Cn1  v120
 BYTE   N05  Fs1
 BYTE   N11  Cs2
 BYTE   W24
 BYTE   N05  Fs1
 BYTE   W24
 BYTE   Cs1  v116
 BYTE   N05  Fs1
 BYTE   W24
 BYTE   N05
 BYTE   W12
 BYTE   Cn1
 BYTE   W12
//  #08 //009   ----------------------------------------
Label_014B8CA4:
 BYTE   N05  Fs1  v116
 BYTE   W12
 BYTE   Cs1
 BYTE   W12
 BYTE   Fs1
 BYTE   W24
 BYTE   Cs1
 BYTE   N05  Fs1
 BYTE   W24
 BYTE   N11  Gs1  v124
 BYTE   W24
 BYTE   PEND 
//  #08 //010   ----------------------------------------
Label_014B8CB5:
 BYTE   N05  Cn1  v120
 BYTE   N05  Fs1
 BYTE   W24
 BYTE   N05
 BYTE   W24
 BYTE   Cs1  v116
 BYTE   N05  Fs1
 BYTE   W24
 BYTE   N05
 BYTE   W12
 BYTE   Cn1
 BYTE   W12
 BYTE   PEND 
//  #08 //011   ----------------------------------------
 BYTE   PATT
  POIN2 Label_014B8CA4
//  #08 //012   ----------------------------------------
 BYTE   PATT
  POIN2 Label_014B8CB5
//  #08 //013   ----------------------------------------
 BYTE   PATT
  POIN2 Label_014B8CA4
//  #08 //014   ----------------------------------------
 BYTE   N05  Cn1  v120
 BYTE   N05  Fs1
 BYTE   N11  Ds2
 BYTE   W24
 BYTE   N05  Fs1
 BYTE   W18
 BYTE   En1  v124
 BYTE   W06
 BYTE   N05
 BYTE   N05  Fs1  v116
 BYTE   W06
 BYTE   En1  v124
 BYTE   W06
 BYTE   N05
 BYTE   W12
 BYTE   Fs1  v116
 BYTE   W12
 BYTE   Cn1  v120
 BYTE   W12
//  #08 //015   ----------------------------------------
 BYTE   N05
 BYTE   N05  Fs1  v116
 BYTE   N11  Ds2  v124
 BYTE   W24
 BYTE   N05  Fs1  v116
 BYTE   W12
 BYTE   Cn1  v120
 BYTE   W12
 BYTE   Fs1  v116
 BYTE   N11  Cs2  v124
 BYTE   W12
 BYTE   N05  Cn1  v120
 BYTE   W12
 BYTE   N11  Gs1  v124
 BYTE   W24
//  #08 //016   ----------------------------------------
Label_014B8D11:
 BYTE   N11  Cn1  v116
 BYTE   N11  Gs1  v127
 BYTE   W24
 BYTE   Fs1  v116
 BYTE   N11  Gs1  v127
 BYTE   W24
 BYTE   En1  v116
 BYTE   N11  Gs1  v127
 BYTE   W24
 BYTE   Fs1  v116
 BYTE   N11  Gs1  v127
 BYTE   W12
 BYTE   Cn1  v116
 BYTE   W12
 BYTE   PEND 
//  #08 //017   ----------------------------------------
Label_014B8D2E:
 BYTE   N11  Gs1  v127
 BYTE   W12
 BYTE   En1  v116
 BYTE   W12
 BYTE   Cn1
 BYTE   N11  Fs1
 BYTE   N11  Gs1  v127
 BYTE   W24
 BYTE   En1  v116
 BYTE   N11  Gs1  v127
 BYTE   W24
 BYTE   Fs1  v116
 BYTE   N11  Gs1  v127
 BYTE   W24
 BYTE   PEND 
//  #08 //018   ----------------------------------------
 BYTE   PATT
  POIN2 Label_014B8D11
//  #08 //019   ----------------------------------------
Label_014B8D4E:
 BYTE   N11  Gs1  v127
 BYTE   W12
 BYTE   En1  v116
 BYTE   W12
 BYTE   Cn1
 BYTE   N11  Fs1
 BYTE   N11  Gs1  v127
 BYTE   W24
 BYTE   En1  v116
 BYTE   N11  Gs1  v127
 BYTE   W24
 BYTE   Fs1  v116
 BYTE   N11  Gs1  v127
 BYTE   N11  Ds2  v116
 BYTE   W24
 BYTE   PEND 
//  #08 //020   ----------------------------------------
 BYTE   PATT
  POIN2 Label_014B8D11
//  #08 //021   ----------------------------------------
Label_014B8D71:
 BYTE   N11  Gs1  v127
 BYTE   W12
 BYTE   En1  v116
 BYTE   W12
 BYTE   Cn1
 BYTE   N11  Fs1
 BYTE   N11  Gs1  v127
 BYTE   W24
 BYTE   En1  v116
 BYTE   N11  Gs1  v127
 BYTE   W24
 BYTE   Fs1  v116
 BYTE   N11  Gs1  v127
 BYTE   N11  Gn2  v116
 BYTE   W24
 BYTE   PEND 
//  #08 //022   ----------------------------------------
Label_014B8D8F:
 BYTE   N11  Cn1  v127
 BYTE   N11  Fs1
 BYTE   N11  Gs1
 BYTE   N11  Cs2
 BYTE   W24
 BYTE   En1
 BYTE   N11  Fs1
 BYTE   N11  Gs1
 BYTE   N11  As1
 BYTE   W24
 BYTE   Cn1
 BYTE   N11  Fs1
 BYTE   N11  Gs1
 BYTE   W12
 BYTE   Cn1
 BYTE   W12
 BYTE   En1
 BYTE   N11  Fs1
 BYTE   N11  Gs1
 BYTE   N11  As1
 BYTE   W24
 BYTE   PEND 
//  #08 //023   ----------------------------------------
 BYTE   PATT
  POIN2 Label_014B8D8F
//  #08 //024   ----------------------------------------
Label_014B8DB7:
 BYTE   N11  Cn1  v127
 BYTE   N11  Gs1
 BYTE   N11  Cs2
 BYTE   W12
 BYTE   Fs1
 BYTE   W12
 BYTE   En1
 BYTE   N11  Gs1
 BYTE   W12
 BYTE   Fs1
 BYTE   W12
 BYTE   Cn1
 BYTE   N11  Gs1
 BYTE   W12
 BYTE   Fs1
 BYTE   W12
 BYTE   En1
 BYTE   N11  Gs1
 BYTE   W12
 BYTE   Cn1
 BYTE   N11  Fs1
 BYTE   W12
 BYTE   PEND 
//  #08 //025   ----------------------------------------
Label_014B8DD6:
 BYTE   N11  Gs1  v127
 BYTE   W12
 BYTE   Cn1
 BYTE   N11  Fs1
 BYTE   W12
 BYTE   En1
 BYTE   N11  Gs1
 BYTE   W12
 BYTE   Fs1
 BYTE   W12
 BYTE   Cn1
 BYTE   N11  Gs1
 BYTE   W12
 BYTE   Cn1
 BYTE   N11  Fs1
 BYTE   W12
 BYTE   En1
 BYTE   N11  Gs1
 BYTE   W12
 BYTE   Fs1
 BYTE   W12
 BYTE   PEND 
//  #08 //026   ----------------------------------------
 BYTE   Cn1
 BYTE   N11  Gs1
 BYTE   W12
 BYTE   Fs1
 BYTE   W12
 BYTE   En1
 BYTE   N11  Gs1
 BYTE   W12
 BYTE   Fs1
 BYTE   W12
 BYTE   Cn1
 BYTE   N11  Gs1
 BYTE   W12
 BYTE   Fs1
 BYTE   W12
 BYTE   En1
 BYTE   N11  Gs1
 BYTE   W12
 BYTE   Cn1
 BYTE   N11  Fs1
 BYTE   N11  Gn2
 BYTE   W12
//  #08 //027   ----------------------------------------
 BYTE   PATT
  POIN2 Label_014B8DD6
//  #08 //028   ----------------------------------------
 BYTE   PATT
  POIN2 Label_014B8DB7
//  #08 //029   ----------------------------------------
 BYTE   N11  Gs1  v127
 BYTE   W12
 BYTE   Cn1
 BYTE   N11  Fs1
 BYTE   W12
 BYTE   En1
 BYTE   N11  Gs1
 BYTE   W12
 BYTE   Fs1
 BYTE   W12
 BYTE   Cn1
 BYTE   N11  Gs1
 BYTE   W12
 BYTE   Cn1
 BYTE   N11  Fs1
 BYTE   W12
 BYTE   N05  En1
 BYTE   W06
 BYTE   N05
 BYTE   W06
 BYTE   N05
 BYTE   W06
 BYTE   N05
 BYTE   W06
//  #08 //030   ----------------------------------------
 BYTE   N11  Cn1
 BYTE   N11  Gs1
 BYTE   N11  Cs2
 BYTE   W12
 BYTE   Fs1
 BYTE   W12
 BYTE   En1
 BYTE   N11  Gs1
 BYTE   W12
 BYTE   Fs1
 BYTE   W12
 BYTE   Cn1
 BYTE   N11  Gs1
 BYTE   W12
 BYTE   Cn1
 BYTE   N11  Fs1
 BYTE   W12
 BYTE   En1
 BYTE   N11  Gs1
 BYTE   W12
 BYTE   Fs1
 BYTE   W12
//  #08 //031   ----------------------------------------
 BYTE   Cn1
 BYTE   N11  Gs1
 BYTE   W12
 BYTE   Cn1
 BYTE   N11  Fs1
 BYTE   W12
 BYTE   En1
 BYTE   N11  Gs1
 BYTE   W12
 BYTE   Fs1
 BYTE   W12
 BYTE   Cn1
 BYTE   N11  Gs1
 BYTE   W12
 BYTE   Cn1
 BYTE   N11  Fs1
 BYTE   W12
 BYTE   En1
 BYTE   N11  Gs1
 BYTE   W12
 BYTE   Fs1
 BYTE   W12
//  #08 //032   ----------------------------------------
 BYTE   Cn1
 BYTE   N11  Gs1
 BYTE   W12
 BYTE   Fs1
 BYTE   W12
 BYTE   En1
 BYTE   N11  Gs1
 BYTE   W12
 BYTE   Fs1
 BYTE   W12
 BYTE   Cn1
 BYTE   N11  Gs1
 BYTE   W12
 BYTE   Cn1
 BYTE   N11  Fs1
 BYTE   W12
 BYTE   En1
 BYTE   N11  Gs1
 BYTE   W12
 BYTE   Fs1
 BYTE   W12
//  #08 //033   ----------------------------------------
Label_014B8E8B:
 BYTE   N11  Cn1  v127
 BYTE   W24
 BYTE   N02  En1
 BYTE   W03
 BYTE   N02
 BYTE   W03
 BYTE   N02
 BYTE   W03
 BYTE   N02
 BYTE   W03
 BYTE   N11  Cn1
 BYTE   W60
 BYTE   PEND 
//  #08 //034   ----------------------------------------
 BYTE   W60
 BYTE   N05
 BYTE   W06
 BYTE   N05
 BYTE   W06
 BYTE   N23  En1
 BYTE   W24
//  #08 //035   ----------------------------------------
Label_014B8EA4:
 BYTE   N11  Cn1  v127
 BYTE   N11  Gs1
 BYTE   N11  Cs2
 BYTE   N11  Ds2
 BYTE   W12
 BYTE   Fs1
 BYTE   W12
 BYTE   En1
 BYTE   N11  Gs1
 BYTE   N11  Ds2
 BYTE   W12
 BYTE   Fs1
 BYTE   W12
 BYTE   Cn1
 BYTE   N11  Gs1
 BYTE   N11  Ds2
 BYTE   W12
 BYTE   Cn1
 BYTE   N11  Fs1
 BYTE   W12
 BYTE   En1
 BYTE   N11  Gs1
 BYTE   N11  Ds2
 BYTE   W12
 BYTE   Cn1
 BYTE   N11  Fs1
 BYTE   N11  Cs2
 BYTE   W12
 BYTE   PEND 
//  #08 //036   ----------------------------------------
Label_014B8ECF:
 BYTE   N11  Gs1  v127
 BYTE   N11  Ds2
 BYTE   W12
 BYTE   Cn1
 BYTE   N11  Fs1
 BYTE   W12
 BYTE   En1
 BYTE   N11  Gs1
 BYTE   N11  Ds2
 BYTE   W12
 BYTE   Fs1
 BYTE   W12
 BYTE   Cn1
 BYTE   N11  Gs1
 BYTE   N11  Ds2
 BYTE   W12
 BYTE   Cn1
 BYTE   N11  Fs1
 BYTE   W12
 BYTE   En1
 BYTE   N11  Gs1
 BYTE   N11  Ds2
 BYTE   W12
 BYTE   Fs1
 BYTE   W12
 BYTE   PEND 
//  #08 //037   ----------------------------------------
Label_014B8EF4:
 BYTE   N11  Cn1  v127
 BYTE   N11  Gs1
 BYTE   N11  Cs2
 BYTE   N11  Ds2
 BYTE   W12
 BYTE   Fs1
 BYTE   W12
 BYTE   En1
 BYTE   N11  Gs1
 BYTE   N11  Ds2
 BYTE   W12
 BYTE   Fs1
 BYTE   W12
 BYTE   Cn1
 BYTE   N11  Gs1
 BYTE   N11  Ds2
 BYTE   W12
 BYTE   Cn1
 BYTE   N11  Fs1
 BYTE   W12
 BYTE   En1
 BYTE   N11  Gs1
 BYTE   N11  Ds2
 BYTE   W12
 BYTE   Cn1
 BYTE   N11  Fs1
 BYTE   W12
 BYTE   PEND 
//  #08 //038   ----------------------------------------
 BYTE   PATT
  POIN2 Label_014B8ECF
//  #08 //039   ----------------------------------------
 BYTE   PATT
  POIN2 Label_014B8EF4
//  #08 //040   ----------------------------------------
 BYTE   PATT
  POIN2 Label_014B8ECF
//  #08 //041   ----------------------------------------
Label_014B8F2C:
 BYTE   N11  Cn1  v127
 BYTE   N11  Gs1
 BYTE   N11  Ds2
 BYTE   W12
 BYTE   Fs1
 BYTE   W12
 BYTE   En1
 BYTE   N11  Gs1
 BYTE   N11  Ds2
 BYTE   W12
 BYTE   Fs1
 BYTE   W12
 BYTE   Cn1
 BYTE   N11  Gs1
 BYTE   N11  Ds2
 BYTE   W12
 BYTE   Cn1
 BYTE   N11  Fs1
 BYTE   W12
 BYTE   En1
 BYTE   N11  Gs1
 BYTE   N11  Ds2
 BYTE   W12
 BYTE   Cn1
 BYTE   N11  Fs1
 BYTE   N11  Cs2
 BYTE   W12
 BYTE   PEND 
//  #08 //042   ----------------------------------------
 BYTE   PATT
  POIN2 Label_014B8ECF
//  #08 //043   ----------------------------------------
 BYTE   PATT
  POIN2 Label_014B8EF4
//  #08 //044   ----------------------------------------
 BYTE   PATT
  POIN2 Label_014B8ECF
//  #08 //045   ----------------------------------------
Label_014B8F64:
 BYTE   N11  Cn1  v127
 BYTE   N11  Gs1
 BYTE   N11  Cs2
 BYTE   N11  Ds2
 BYTE   W12
 BYTE   Fs1
 BYTE   W12
 BYTE   En1
 BYTE   N11  Gs1
 BYTE   N11  Ds2
 BYTE   W12
 BYTE   Fs1
 BYTE   W12
 BYTE   Cn1
 BYTE   N11  Gs1
 BYTE   N11  Ds2
 BYTE   W12
 BYTE   Fs1
 BYTE   W12
 BYTE   N02  En1
 BYTE   N11  Gs1
 BYTE   N11  Ds2
 BYTE   W03
 BYTE   N02  En1
 BYTE   W03
 BYTE   N02
 BYTE   W03
 BYTE   N02
 BYTE   W03
 BYTE   N11  Cn1
 BYTE   N11  Fs1
 BYTE   N11  Cs2
 BYTE   W12
 BYTE   PEND 
//  #08 //046   ----------------------------------------
 BYTE   PATT
  POIN2 Label_014B8ECF
//  #08 //047   ----------------------------------------
 BYTE   PATT
  POIN2 Label_014B8EA4
//  #08 //048   ----------------------------------------
 BYTE   PATT
  POIN2 Label_014B8ECF
//  #08 //049   ----------------------------------------
 BYTE   PATT
  POIN2 Label_014B8F2C
//  #08 //050   ----------------------------------------
 BYTE   N11  Gs1  v127
 BYTE   N11  Ds2
 BYTE   W12
 BYTE   Cn1
 BYTE   N11  Fs1
 BYTE   W12
 BYTE   En1
 BYTE   N11  Gs1
 BYTE   N11  Ds2
 BYTE   W12
 BYTE   Fs1
 BYTE   W12
 BYTE   Cn1
 BYTE   N11  Gs1
 BYTE   N11  Ds2
 BYTE   W12
 BYTE   Cn1
 BYTE   N11  Fs1
 BYTE   W12
 BYTE   N02  En1
 BYTE   N11  Gs1
 BYTE   N11  Ds2
 BYTE   W03
 BYTE   N02  Cn1
 BYTE   W03
 BYTE   En1
 BYTE   W03
 BYTE   Cn1
 BYTE   W03
 BYTE   En1
 BYTE   N11  Fs1
 BYTE   W03
 BYTE   N02  Cn1
 BYTE   W03
 BYTE   En1
 BYTE   W03
 BYTE   Cn1
 BYTE   W03
//  #08 //051   ----------------------------------------
 BYTE   PATT
  POIN2 Label_014B8EA4
//  #08 //052   ----------------------------------------
 BYTE   PATT
  POIN2 Label_014B8ECF
//  #08 //053   ----------------------------------------
 BYTE   PATT
  POIN2 Label_014B8EF4
//  #08 //054   ----------------------------------------
 BYTE   PATT
  POIN2 Label_014B8ECF
//  #08 //055   ----------------------------------------
 BYTE   PATT
  POIN2 Label_014B8EF4
//  #08 //056   ----------------------------------------
 BYTE   PATT
  POIN2 Label_014B8ECF
//  #08 //057   ----------------------------------------
 BYTE   PATT
  POIN2 Label_014B8F2C
//  #08 //058   ----------------------------------------
 BYTE   PATT
  POIN2 Label_014B8ECF
//  #08 //059   ----------------------------------------
 BYTE   PATT
  POIN2 Label_014B8EF4
//  #08 //060   ----------------------------------------
 BYTE   PATT
  POIN2 Label_014B8ECF
//  #08 //061   ----------------------------------------
 BYTE   PATT
  POIN2 Label_014B8F64
//  #08 //062   ----------------------------------------
 BYTE   PATT
  POIN2 Label_014B8ECF
//  #08 //063   ----------------------------------------
 BYTE   PATT
  POIN2 Label_014B8EA4
//  #08 //064   ----------------------------------------
 BYTE   PATT
  POIN2 Label_014B8ECF
//  #08 //065   ----------------------------------------
 BYTE   PATT
  POIN2 Label_014B8F2C
//  #08 //066   ----------------------------------------
 BYTE   N11  Gs1  v127
 BYTE   N11  Ds2
 BYTE   W12
 BYTE   Cn1
 BYTE   N11  Fs1
 BYTE   W12
 BYTE   En1
 BYTE   N11  Gs1
 BYTE   N11  Ds2
 BYTE   W12
 BYTE   Fs1
 BYTE   W12
 BYTE   Cn1
 BYTE   N11  Gs1
 BYTE   N11  Ds2
 BYTE   W12
 BYTE   Cn1
 BYTE   N11  Fs1
 BYTE   W12
 BYTE   Gs1
 BYTE   N02  Cn2
 BYTE   N11  Ds2
 BYTE   W03
 BYTE   N02  Bn1
 BYTE   W03
 BYTE   Cn2
 BYTE   W03
 BYTE   Bn1
 BYTE   W03
 BYTE   N11  Fs1
 BYTE   N02  Cn2
 BYTE   W03
 BYTE   Bn1
 BYTE   W03
 BYTE   An1
 BYTE   W03
 BYTE   N02
 BYTE   W03
//  #08 //067   ----------------------------------------
 BYTE   GoTo
  POIN2 Label_014B8D11
//  #08 //068   ----------------------------------------
 BYTE   PATT
  POIN2 Label_014B8D11
//  #08 //069   ----------------------------------------
 BYTE   PATT
  POIN2 Label_014B8D2E
//  #08 //070   ----------------------------------------
 BYTE   PATT
  POIN2 Label_014B8D11
//  #08 //071   ----------------------------------------
 BYTE   PATT
  POIN2 Label_014B8D4E
//  #08 //072   ----------------------------------------
 BYTE   PATT
  POIN2 Label_014B8D11
//  #08 //073   ----------------------------------------
 BYTE   PATT
  POIN2 Label_014B8D71
//  #08 //074   ----------------------------------------
 BYTE   PATT
  POIN2 Label_014B8D8F
//  #08 //075   ----------------------------------------
 BYTE   PATT
  POIN2 Label_014B8D8F
//  #08 //076   ----------------------------------------
Label_014B908B:
 BYTE   N11  Cn1  v127
 BYTE   N11  Gs1
 BYTE   N11  As1
 BYTE   N11  Cs2
 BYTE   W24
 BYTE   En1
 BYTE   N11  Gs1
 BYTE   N11  As1
 BYTE   W24
 BYTE   Cn1
 BYTE   N11  Gs1
 BYTE   N11  As1
 BYTE   N11  Cs2
 BYTE   W12
 BYTE   Cn1
 BYTE   W12
 BYTE   En1
 BYTE   N11  Gs1
 BYTE   N11  As1
 BYTE   W24
 BYTE   PEND 
//  #08 //077   ----------------------------------------
 BYTE   Cn1
 BYTE   N11  Gs1
 BYTE   N11  As1
 BYTE   N11  Cs2
 BYTE   W12
 BYTE   Cn1
 BYTE   W12
 BYTE   En1
 BYTE   N11  Gs1
 BYTE   N11  As1
 BYTE   W24
 BYTE   Cn1
 BYTE   N11  Gs1
 BYTE   N11  As1
 BYTE   N11  Cs2
 BYTE   W12
 BYTE   Cn1
 BYTE   W12
 BYTE   En1
 BYTE   N11  Gs1
 BYTE   N11  As1
 BYTE   W24
//  #08 //078   ----------------------------------------
 BYTE   PATT
  POIN2 Label_014B908B
//  #08 //079   ----------------------------------------
 BYTE   PATT
  POIN2 Label_014B8E8B
//  #08 //080   ----------------------------------------
 BYTE   W96
//  #08 //081   ----------------------------------------
 BYTE   W96
//  #08 //082   ----------------------------------------
 BYTE   W96
//  #08 //083   ----------------------------------------
 BYTE   W96
//  #08 //084   ----------------------------------------
 BYTE   W96
//  #08 //085   ----------------------------------------
 BYTE   W96
//  #08 //086   ----------------------------------------
 BYTE   W96
//  #08 //087   ----------------------------------------
 BYTE   W96
//  #08 //088   ----------------------------------------
 BYTE   W96
//  #08 //089   ----------------------------------------
 BYTE   PAN   c_v+0
 BYTE   VOL   37*HisWorld_mvl/mxv
 BYTE   PAN   c_v+0
 BYTE   VOL   37*HisWorld_mvl/mxv
 BYTE   PAN   c_v+0
 BYTE   VOL   37*HisWorld_mvl/mxv
 BYTE   PAN   c_v+0
 BYTE   VOL   37*HisWorld_mvl/mxv
 BYTE   PAN   c_v+0
 BYTE   VOL   37*HisWorld_mvl/mxv
 BYTE   PAN   c_v+0
 BYTE   VOL   37*HisWorld_mvl/mxv
 BYTE   BEND   c_v+0
 BYTE   FINE

//******************************************************//
	ALIGN 4

HisWorld:
	BYTE	8	// NumTrks
	BYTE	0	// NumBlks
	BYTE	HisWorld_pri	// Priority
	BYTE	HisWorld_rev	// Reverb.
    
	POIN2	HisWorld_grp
    
	POIN2	HisWorld_001
	POIN2	HisWorld_002
	POIN2	HisWorld_003
	POIN2	HisWorld_004
	POIN2	HisWorld_005
	POIN2	HisWorld_006
	POIN2	HisWorld_007
	POIN2	HisWorld_008

	
