//Event file generated from Sappy .s format.
	#include "MPlayDef.event"

	#define	HolyOrders_grp  voicegroup000
	#define	HolyOrders_pri  0
	#define	HolyOrders_rev  0
	#define	HolyOrders_mvl  127
	#define	HolyOrders_key  0
	#define	HolyOrders_tbs  1
	#define	HolyOrders_exg  0
	#define	HolyOrders_cmp  1

	// .rodata
	//	HolyOrders
	ALIGN 4


//**************** Track 1 (Midi-Chn.0) ****************//

HolyOrders_001:
//  #01 //000   ----------------------------------------
 BYTE   VOL   38*HolyOrders_mvl/mxv
 BYTE   KEYSH   HolyOrders_key+0
 BYTE   TEMPO   244*HolyOrders_tbs/2
 BYTE   VOICE   51
 BYTE   PAN   c_v+45
 BYTE   BEND   c_v+0
 BYTE   W96
//  #01 //001   ----------------------------------------
 BYTE   W96
//  #01 //002   ----------------------------------------
 BYTE   W96
//  #01 //003   ----------------------------------------
 BYTE   W96
//  #01 //004   ----------------------------------------
 BYTE   W96
//  #01 //005   ----------------------------------------
 BYTE   W96
//  #01 //006   ----------------------------------------
 BYTE   W96
//  #01 //007   ----------------------------------------
 BYTE   W96
//  #01 //008   ----------------------------------------
 BYTE   N12  Gn3  v127
 BYTE   W12
 BYTE   Bn2  v096
 BYTE   W12
 BYTE   Fs3
 BYTE   W12
 BYTE   Bn2
 BYTE   W12
 BYTE   En3
 BYTE   W12
 BYTE   Bn2
 BYTE   W12
 BYTE   An3
 BYTE   W12
 BYTE   Bn2
 BYTE   W12
//  #01 //009   ----------------------------------------
Label_E56D33:
 BYTE   N12  Gn3  v096
 BYTE   W12
 BYTE   Bn2
 BYTE   W12
 BYTE   En3
 BYTE   W12
 BYTE   Bn2
 BYTE   W12
 BYTE   Gn3
 BYTE   W12
 BYTE   Bn2
 BYTE   W12
 BYTE   Fs3
 BYTE   W24
 BYTE   PEND 
//  #01 //010   ----------------------------------------
Label_E56D44:
 BYTE   N24  En2  v096
 BYTE   W24
 BYTE   N12  Fs2
 BYTE   W12
 BYTE   Gn2
 BYTE   W12
 BYTE   An2
 BYTE   W12
 BYTE   En2
 BYTE   W12
 BYTE   Bn2
 BYTE   W12
 BYTE   En2
 BYTE   W12
 BYTE   PEND 
//  #01 //011   ----------------------------------------
Label_E56D56:
 BYTE   N12  Bn3  v096
 BYTE   W12
 BYTE   Bn2
 BYTE   W12
 BYTE   An3
 BYTE   W12
 BYTE   Bn2
 BYTE   W12
 BYTE   Gn3
 BYTE   W12
 BYTE   Bn2
 BYTE   W12
 BYTE   Fs3
 BYTE   W24
 BYTE   PEND 
//  #01 //012   ----------------------------------------
Label_E56D67:
 BYTE   N12  Dn4  v096
 BYTE   W12
 BYTE   Cn4
 BYTE   W12
 BYTE   Bn3
 BYTE   W12
 BYTE   Cn4
 BYTE   W12
 BYTE   En4
 BYTE   W12
 BYTE   Dn4
 BYTE   W12
 BYTE   Cn4
 BYTE   W12
 BYTE   Dn4
 BYTE   W12
 BYTE   PEND 
//  #01 //013   ----------------------------------------
Label_E56D7A:
 BYTE   N12  Dn4  v096
 BYTE   W12
 BYTE   En4
 BYTE   W12
 BYTE   Dn4
 BYTE   W12
 BYTE   En4
 BYTE   W12
 BYTE   Cn4
 BYTE   W12
 BYTE   Bn3
 BYTE   W12
 BYTE   An3
 BYTE   W12
 BYTE   Gn3
 BYTE   W12
 BYTE   PEND 
//  #01 //014   ----------------------------------------
Label_E56D8D:
 BYTE   N12  Cn5  v096
 BYTE   W12
 BYTE   N24  Cn4
 BYTE   W24
 BYTE   N12  Cn5
 BYTE   W12
 BYTE   N24  En4
 BYTE   W24
 BYTE   N12  Fs3
 BYTE   W12
 BYTE   En3
 BYTE   W12
 BYTE   PEND 
//  #01 //015   ----------------------------------------
Label_E56DA0:
 BYTE   N12  En3  v096
 BYTE   W12
 BYTE   Fs3
 BYTE   W12
 BYTE   En3
 BYTE   W12
 BYTE   N12
 BYTE   W12
 BYTE   En4
 BYTE   W12
 BYTE   Bn2
 BYTE   W12
 BYTE   Ds4
 BYTE   W12
 BYTE   En4
 BYTE   W12
 BYTE   PEND 
//  #01 //016   ----------------------------------------
Label_E56DB3:
 BYTE   N12  Gn3  v096
 BYTE   W12
 BYTE   Bn2
 BYTE   W12
 BYTE   Fs3
 BYTE   W12
 BYTE   Bn2
 BYTE   W12
 BYTE   En3
 BYTE   W12
 BYTE   Bn2
 BYTE   W12
 BYTE   An3
 BYTE   W12
 BYTE   Bn2
 BYTE   W12
 BYTE   PEND 
//  #01 //017   ----------------------------------------
Label_E56DC6:
 BYTE   N12  Gn3  v096
 BYTE   W12
 BYTE   Bn2
 BYTE   W12
 BYTE   En3
 BYTE   W12
 BYTE   Bn2
 BYTE   W12
 BYTE   Gn3
 BYTE   W12
 BYTE   Bn2
 BYTE   W12
 BYTE   Fs3
 BYTE   W12
 BYTE   Bn2
 BYTE   W12
 BYTE   PEND 
//  #01 //018   ----------------------------------------
 BYTE   PATT
  POIN2 Label_E56DB3
//  #01 //019   ----------------------------------------
 BYTE   N12  Gn3  v096
 BYTE   W12
 BYTE   Bn2
 BYTE   W12
 BYTE   Fs3
 BYTE   W12
 BYTE   Bn2
 BYTE   W12
 BYTE   Cn4
 BYTE   W12
 BYTE   Bn2
 BYTE   W12
 BYTE   Bn3
 BYTE   W12
 BYTE   Bn2
 BYTE   W12
//  #01 //020   ----------------------------------------
 BYTE   PATT
  POIN2 Label_E56DB3
//  #01 //021   ----------------------------------------
 BYTE   PATT
  POIN2 Label_E56DC6
//  #01 //022   ----------------------------------------
 BYTE   PATT
  POIN2 Label_E56DB3
//  #01 //023   ----------------------------------------
Label_E56DFF:
 BYTE   N12  Gn3  v096
 BYTE   W12
 BYTE   Bn2
 BYTE   W12
 BYTE   En3
 BYTE   W12
 BYTE   Bn2
 BYTE   W12
 BYTE   Cn4
 BYTE   W12
 BYTE   Bn2
 BYTE   W12
 BYTE   Bn3
 BYTE   W12
 BYTE   Bn2
 BYTE   W12
 BYTE   PEND 
//  #01 //024   ----------------------------------------
Label_E56E12:
 BYTE   N24  Bn2  v096
 BYTE   W24
 BYTE   N06  An1
 BYTE   W12
 BYTE   N06
 BYTE   W12
 BYTE   N06
 BYTE   W12
 BYTE   N06
 BYTE   W12
 BYTE   N06
 BYTE   W12
 BYTE   N06
 BYTE   W12
 BYTE   PEND 
//  #01 //025   ----------------------------------------
Label_E56E24:
 BYTE   N06  An1  v096
 BYTE   W12
 BYTE   N06
 BYTE   W12
 BYTE   N06
 BYTE   W12
 BYTE   N06
 BYTE   W12
 BYTE   N06
 BYTE   W12
 BYTE   N06
 BYTE   W12
 BYTE   N06
 BYTE   W12
 BYTE   N06
 BYTE   W12
 BYTE   PEND 
//  #01 //026   ----------------------------------------
Label_E56E37:
 BYTE   N24  As2  v096
 BYTE   W24
 BYTE   N06  An1
 BYTE   W12
 BYTE   N06
 BYTE   W12
 BYTE   N06
 BYTE   W12
 BYTE   N06
 BYTE   W12
 BYTE   N06
 BYTE   W12
 BYTE   N06
 BYTE   W12
//  #01 //027   ----------------------------------------
 BYTE   N06
 BYTE   W12
 BYTE   N06
 BYTE   W12
 BYTE   N06
 BYTE   W12
 BYTE   N06
 BYTE   W60
//  #01 //028   ----------------------------------------
Label_E56E50:
 BYTE   N24  Gn2  v096
 BYTE   W24
 BYTE   N06  An1
 BYTE   W12
 BYTE   N06
 BYTE   W12
 BYTE   N06
 BYTE   W12
 BYTE   N06
 BYTE   W12
 BYTE   N06
 BYTE   W12
 BYTE   N06
 BYTE   W12
 BYTE   PEND 
//  #01 //029   ----------------------------------------
Label_E56E62:
 BYTE   N24  Fs2  v096
 BYTE   W24
 BYTE   N06  An1
 BYTE   W12
 BYTE   N06
 BYTE   W12
 BYTE   N06
 BYTE   W12
 BYTE   N06
 BYTE   W12
 BYTE   N06
 BYTE   W12
 BYTE   N06
 BYTE   W12
 BYTE   PEND 
//  #01 //030   ----------------------------------------
 BYTE   N24  En2
 BYTE   W36
 BYTE   N24
 BYTE   W36
 BYTE   Gn2
 BYTE   W24
//  #01 //031   ----------------------------------------
 BYTE   N96  Fs2
 BYTE   W96
//  #01 //032   ----------------------------------------
 BYTE   N24  Bn1
 BYTE   W36
 BYTE   N36
 BYTE   W36
 BYTE   N24  An1
 BYTE   W24
//  #01 //033   ----------------------------------------
 BYTE   Cs2
 BYTE   W36
 BYTE   N36  Dn2
 BYTE   W36
 BYTE   N24  An1
 BYTE   W24
//  #01 //034   ----------------------------------------
 BYTE   Dn2
 BYTE   W36
 BYTE   N36  En2
 BYTE   W36
 BYTE   N24  An1
 BYTE   W24
//  #01 //035   ----------------------------------------
 BYTE   Ds2
 BYTE   W36
 BYTE   N36  Bn1
 BYTE   W36
 BYTE   N24  An1
 BYTE   W24
//  #01 //036   ----------------------------------------
 BYTE   En2
 BYTE   W36
 BYTE   N36
 BYTE   W36
 BYTE   N24  An1
 BYTE   W24
//  #01 //037   ----------------------------------------
 BYTE   Fs2
 BYTE   W36
 BYTE   N36
 BYTE   W60
//  #01 //038   ----------------------------------------
 BYTE   N24  Bn1
 BYTE   W36
 BYTE   N24
 BYTE   W36
 BYTE   N24
 BYTE   W24
//  #01 //039   ----------------------------------------
 BYTE   N96
 BYTE   W96
//  #01 //040   ----------------------------------------
Label_E56EB2:
 BYTE   N36  Cn3  v096
 BYTE   W36
 BYTE   N48  En3
 BYTE   W60
 BYTE   PEND 
//  #01 //041   ----------------------------------------
Label_E56EBA:
 BYTE   N36  Dn3  v096
 BYTE   W36
 BYTE   N48  Fs3
 BYTE   W60
 BYTE   PEND 
//  #01 //042   ----------------------------------------
Label_E56EC2:
 BYTE   N36  En3  v096
 BYTE   W36
 BYTE   Gn3
 BYTE   W36
 BYTE   N24  En1
 BYTE   W24
 BYTE   PEND 
//  #01 //043   ----------------------------------------
Label_E56ECC:
 BYTE   N24  Gn1  v096
 BYTE   W24
 BYTE   N12  En1
 BYTE   W12
 BYTE   N24  An1
 BYTE   W24
 BYTE   N12  En1
 BYTE   W12
 BYTE   N24  Gn1
 BYTE   W24
 BYTE   PEND 
//  #01 //044   ----------------------------------------
Label_E56EDD:
 BYTE   N24  Cs2  v096
 BYTE   W24
 BYTE   N06  En1
 BYTE   W12
 BYTE   N06
 BYTE   W12
 BYTE   N06
 BYTE   W12
 BYTE   N06
 BYTE   W12
 BYTE   N06
 BYTE   W12
 BYTE   N06
 BYTE   W12
 BYTE   PEND 
//  #01 //045   ----------------------------------------
 BYTE   PATT
  POIN2 Label_E56E62
//  #01 //046   ----------------------------------------
 BYTE   N48  En1  v096
 BYTE   W48
 BYTE   Gn1
 BYTE   W48
//  #01 //047   ----------------------------------------
 BYTE   Bn1
 BYTE   W48
 BYTE   En2
 BYTE   W48
//  #01 //048   ----------------------------------------
 BYTE   PATT
  POIN2 Label_E56EB2
//  #01 //049   ----------------------------------------
 BYTE   PATT
  POIN2 Label_E56EBA
//  #01 //050   ----------------------------------------
 BYTE   PATT
  POIN2 Label_E56EC2
//  #01 //051   ----------------------------------------
 BYTE   PATT
  POIN2 Label_E56ECC
//  #01 //052   ----------------------------------------
 BYTE   PATT
  POIN2 Label_E56EDD
//  #01 //053   ----------------------------------------
 BYTE   PATT
  POIN2 Label_E56E62
//  #01 //054   ----------------------------------------
 BYTE   N12  Fs4  v096
 BYTE   W12
 BYTE   Ds4
 BYTE   W12
 BYTE   An3
 BYTE   W12
 BYTE   Ds4
 BYTE   W12
 BYTE   Fs4
 BYTE   W12
 BYTE   Ds4
 BYTE   W12
 BYTE   Bn3
 BYTE   W12
 BYTE   Fs4
 BYTE   W12
//  #01 //055   ----------------------------------------
 BYTE   An4
 BYTE   W12
 BYTE   Fs4
 BYTE   W12
 BYTE   Cn4
 BYTE   W12
 BYTE   An4
 BYTE   W60
//  #01 //056   ----------------------------------------
Label_E56F36:
 BYTE   W48
 BYTE   N24  Fs4  v096
 BYTE   W24
 BYTE   N12  En4
 BYTE   W24
 BYTE   PEND 
//  #01 //057   ----------------------------------------
Label_E56F3F:
 BYTE   W48
 BYTE   N06  Dn2  v096
 BYTE   W12
 BYTE   N06
 BYTE   W12
 BYTE   N06
 BYTE   W12
 BYTE   N06
 BYTE   W12
 BYTE   PEND 
//  #01 //058   ----------------------------------------
Label_E56F4B:
 BYTE   N24  An2  v096
 BYTE   W24
 BYTE   N06  An1
 BYTE   W12
 BYTE   N06
 BYTE   W12
 BYTE   N06
 BYTE   W12
 BYTE   N06
 BYTE   W12
 BYTE   N06
 BYTE   W12
 BYTE   N06
 BYTE   W12
 BYTE   PEND 
//  #01 //059   ----------------------------------------
Label_E56F5D:
 BYTE   N24  Dn2  v096
 BYTE   W24
 BYTE   N06  En1
 BYTE   W12
 BYTE   N06
 BYTE   W12
 BYTE   N06
 BYTE   W12
 BYTE   N06
 BYTE   W12
 BYTE   N06
 BYTE   W12
 BYTE   N06
 BYTE   W12
 BYTE   PEND 
//  #01 //060   ----------------------------------------
 BYTE   PATT
  POIN2 Label_E56E50
//  #01 //061   ----------------------------------------
 BYTE   PATT
  POIN2 Label_E56F4B
//  #01 //062   ----------------------------------------
 BYTE   N24  Dn2  v096
 BYTE   W24
 BYTE   N06  En1
 BYTE   W12
 BYTE   N06
 BYTE   W12
 BYTE   N06
 BYTE   W12
 BYTE   N06
 BYTE   W12
 BYTE   N12  Dn2
 BYTE   W12
 BYTE   N12
 BYTE   W12
//  #01 //063   ----------------------------------------
 BYTE   N24  Cs2
 BYTE   W24
 BYTE   N06  An1
 BYTE   W12
 BYTE   N60  Bn1
 BYTE   W60
//  #01 //064   ----------------------------------------
 BYTE   PATT
  POIN2 Label_E56F36
//  #01 //065   ----------------------------------------
 BYTE   PATT
  POIN2 Label_E56F3F
//  #01 //066   ----------------------------------------
 BYTE   PATT
  POIN2 Label_E56F4B
//  #01 //067   ----------------------------------------
 BYTE   PATT
  POIN2 Label_E56F5D
//  #01 //068   ----------------------------------------
 BYTE   PATT
  POIN2 Label_E56E50
//  #01 //069   ----------------------------------------
 BYTE   PATT
  POIN2 Label_E56E62
//  #01 //070   ----------------------------------------
 BYTE   N24  Bn1  v096
 BYTE   W36
 BYTE   N60
 BYTE   W60
//  #01 //071   ----------------------------------------
 BYTE   W96
//  #01 //072   ----------------------------------------
 BYTE   PATT
  POIN2 Label_E56DB3
//  #01 //073   ----------------------------------------
 BYTE   PATT
  POIN2 Label_E56D33
//  #01 //074   ----------------------------------------
 BYTE   PATT
  POIN2 Label_E56D44
//  #01 //075   ----------------------------------------
 BYTE   PATT
  POIN2 Label_E56D56
//  #01 //076   ----------------------------------------
 BYTE   PATT
  POIN2 Label_E56D67
//  #01 //077   ----------------------------------------
 BYTE   PATT
  POIN2 Label_E56D7A
//  #01 //078   ----------------------------------------
 BYTE   PATT
  POIN2 Label_E56D8D
//  #01 //079   ----------------------------------------
 BYTE   PATT
  POIN2 Label_E56DA0
//  #01 //080   ----------------------------------------
 BYTE   PATT
  POIN2 Label_E56DB3
//  #01 //081   ----------------------------------------
 BYTE   PATT
  POIN2 Label_E56DC6
//  #01 //082   ----------------------------------------
 BYTE   PATT
  POIN2 Label_E56DB3
//  #01 //083   ----------------------------------------
 BYTE   PATT
  POIN2 Label_E56DFF
//  #01 //084   ----------------------------------------
 BYTE   PATT
  POIN2 Label_E56DB3
//  #01 //085   ----------------------------------------
 BYTE   PATT
  POIN2 Label_E56DC6
//  #01 //086   ----------------------------------------
 BYTE   PATT
  POIN2 Label_E56DB3
//  #01 //087   ----------------------------------------
 BYTE   PATT
  POIN2 Label_E56DFF
//  #01 //088   ----------------------------------------
 BYTE   PATT
  POIN2 Label_E56DB3
//  #01 //089   ----------------------------------------
 BYTE   PATT
  POIN2 Label_E56DC6
//  #01 //090   ----------------------------------------
 BYTE   PATT
  POIN2 Label_E56DB3
//  #01 //091   ----------------------------------------
 BYTE   PATT
  POIN2 Label_E56DFF
//  #01 //092   ----------------------------------------
 BYTE   PATT
  POIN2 Label_E56DB3
//  #01 //093   ----------------------------------------
 BYTE   PATT
  POIN2 Label_E56DC6
//  #01 //094   ----------------------------------------
 BYTE   PATT
  POIN2 Label_E56DB3
//  #01 //095   ----------------------------------------
 BYTE   PATT
  POIN2 Label_E56DFF
//  #01 //096   ----------------------------------------
 BYTE   PATT
  POIN2 Label_E56E12
//  #01 //097   ----------------------------------------
 BYTE   PATT
  POIN2 Label_E56E24
//  #01 //098   ----------------------------------------
 BYTE   GoTo
  POIN2 Label_E56E37
//  #01 //099   ----------------------------------------
 BYTE   VOL   25*HolyOrders_mvl/mxv
 BYTE   W96
//  #01 //100   ----------------------------------------
 BYTE   W96
//  #01 //101   ----------------------------------------
 BYTE   W96
//  #01 //102   ----------------------------------------
 BYTE   W96
//  #01 //103   ----------------------------------------
 BYTE   W96
//  #01 //104   ----------------------------------------
 BYTE   W18
 BYTE   FINE

//**************** Track 2 (Midi-Chn.1) ****************//

HolyOrders_002:
//  #02 //000   ----------------------------------------
 BYTE   KEYSH   HolyOrders_key+0
 BYTE   VOICE   30
 BYTE   VOL   33*HolyOrders_mvl/mxv
 BYTE   W96
//  #02 //001   ----------------------------------------
 BYTE   W96
//  #02 //002   ----------------------------------------
 BYTE   W96
//  #02 //003   ----------------------------------------
 BYTE   W96
//  #02 //004   ----------------------------------------
 BYTE   W96
//  #02 //005   ----------------------------------------
 BYTE   W96
//  #02 //006   ----------------------------------------
 BYTE   W96
//  #02 //007   ----------------------------------------
 BYTE   W96
//  #02 //008   ----------------------------------------
 BYTE   W96
//  #02 //009   ----------------------------------------
 BYTE   W96
//  #02 //010   ----------------------------------------
 BYTE   W96
//  #02 //011   ----------------------------------------
 BYTE   W96
//  #02 //012   ----------------------------------------
 BYTE   W96
//  #02 //013   ----------------------------------------
 BYTE   W96
//  #02 //014   ----------------------------------------
 BYTE   W96
//  #02 //015   ----------------------------------------
 BYTE   W96
//  #02 //016   ----------------------------------------
 BYTE   W96
//  #02 //017   ----------------------------------------
 BYTE   W96
//  #02 //018   ----------------------------------------
 BYTE   W96
//  #02 //019   ----------------------------------------
 BYTE   W96
//  #02 //020   ----------------------------------------
 BYTE   W96
//  #02 //021   ----------------------------------------
 BYTE   W96
//  #02 //022   ----------------------------------------
 BYTE   W96
//  #02 //023   ----------------------------------------
 BYTE   W96
//  #02 //024   ----------------------------------------
 BYTE   W96
//  #02 //025   ----------------------------------------
 BYTE   W96
//  #02 //026   ----------------------------------------
Label_56EB64:
 BYTE   W96
//  #02 //027   ----------------------------------------
 BYTE   W48
 BYTE   N48  Ds2  v096
 BYTE   N48  As2  v064
 BYTE   W48
//  #02 //028   ----------------------------------------
 BYTE   W96
//  #02 //029   ----------------------------------------
 BYTE   W96
//  #02 //030   ----------------------------------------
 BYTE   W96
//  #02 //031   ----------------------------------------
 BYTE   W96
//  #02 //032   ----------------------------------------
 BYTE   W96
//  #02 //033   ----------------------------------------
 BYTE   W96
//  #02 //034   ----------------------------------------
 BYTE   W96
//  #02 //035   ----------------------------------------
 BYTE   W96
//  #02 //036   ----------------------------------------
 BYTE   W96
//  #02 //037   ----------------------------------------
 BYTE   W72
 BYTE   N24  Bn1  v096
 BYTE   N24  Fs2
 BYTE   W24
//  #02 //038   ----------------------------------------
 BYTE   W96
//  #02 //039   ----------------------------------------
 BYTE   W96
//  #02 //040   ----------------------------------------
 BYTE   W96
//  #02 //041   ----------------------------------------
 BYTE   W96
//  #02 //042   ----------------------------------------
 BYTE   W96
//  #02 //043   ----------------------------------------
 BYTE   W96
//  #02 //044   ----------------------------------------
 BYTE   W96
//  #02 //045   ----------------------------------------
 BYTE   W96
//  #02 //046   ----------------------------------------
 BYTE   W96
//  #02 //047   ----------------------------------------
 BYTE   W96
//  #02 //048   ----------------------------------------
 BYTE   W96
//  #02 //049   ----------------------------------------
 BYTE   W96
//  #02 //050   ----------------------------------------
 BYTE   W96
//  #02 //051   ----------------------------------------
 BYTE   W96
//  #02 //052   ----------------------------------------
 BYTE   W96
//  #02 //053   ----------------------------------------
 BYTE   W96
//  #02 //054   ----------------------------------------
 BYTE   W96
//  #02 //055   ----------------------------------------
 BYTE   W48
 BYTE   N48  Fs4  v064
 BYTE   N48  Bn4  v096
 BYTE   W48
//  #02 //056   ----------------------------------------
Label_56EB96:
 BYTE   N48  An3  v096
 BYTE   W84
 BYTE   N60  Fs4
 BYTE   W12
 BYTE   PEND 
//  #02 //057   ----------------------------------------
 BYTE   W96
//  #02 //058   ----------------------------------------
 BYTE   W96
//  #02 //059   ----------------------------------------
 BYTE   W96
//  #02 //060   ----------------------------------------
 BYTE   W96
//  #02 //061   ----------------------------------------
 BYTE   W96
//  #02 //062   ----------------------------------------
 BYTE   W96
//  #02 //063   ----------------------------------------
 BYTE   W96
//  #02 //064   ----------------------------------------
 BYTE   PATT
  POIN2 Label_56EB96
//  #02 //065   ----------------------------------------
 BYTE   W96
//  #02 //066   ----------------------------------------
 BYTE   W96
//  #02 //067   ----------------------------------------
 BYTE   W96
//  #02 //068   ----------------------------------------
 BYTE   W96
//  #02 //069   ----------------------------------------
 BYTE   W96
//  #02 //070   ----------------------------------------
 BYTE   W96
//  #02 //071   ----------------------------------------
 BYTE   W96
//  #02 //072   ----------------------------------------
 BYTE   W96
//  #02 //073   ----------------------------------------
 BYTE   W96
//  #02 //074   ----------------------------------------
 BYTE   W96
//  #02 //075   ----------------------------------------
 BYTE   W96
//  #02 //076   ----------------------------------------
 BYTE   W96
//  #02 //077   ----------------------------------------
 BYTE   W96
//  #02 //078   ----------------------------------------
 BYTE   W96
//  #02 //079   ----------------------------------------
 BYTE   W96
//  #02 //080   ----------------------------------------
 BYTE   W96
//  #02 //081   ----------------------------------------
 BYTE   W96
//  #02 //082   ----------------------------------------
 BYTE   W96
//  #02 //083   ----------------------------------------
 BYTE   W96
//  #02 //084   ----------------------------------------
 BYTE   W96
//  #02 //085   ----------------------------------------
 BYTE   W96
//  #02 //086   ----------------------------------------
 BYTE   W96
//  #02 //087   ----------------------------------------
 BYTE   W96
//  #02 //088   ----------------------------------------
 BYTE   W96
//  #02 //089   ----------------------------------------
 BYTE   W96
//  #02 //090   ----------------------------------------
 BYTE   W96
//  #02 //091   ----------------------------------------
 BYTE   W96
//  #02 //092   ----------------------------------------
 BYTE   W96
//  #02 //093   ----------------------------------------
 BYTE   W96
//  #02 //094   ----------------------------------------
 BYTE   W96
//  #02 //095   ----------------------------------------
 BYTE   W96
//  #02 //096   ----------------------------------------
 BYTE   W96
//  #02 //097   ----------------------------------------
 BYTE   W96
//  #02 //098   ----------------------------------------
 BYTE   GoTo
  POIN2 Label_56EB64
//  #02 //099   ----------------------------------------
 BYTE   PAN   c_v-38
 BYTE   BEND   c_v+0
 BYTE   W96
//  #02 //100   ----------------------------------------
 BYTE   W96
//  #02 //101   ----------------------------------------
 BYTE   W96
//  #02 //102   ----------------------------------------
 BYTE   W96
//  #02 //103   ----------------------------------------
 BYTE   W96
//  #02 //104   ----------------------------------------
 BYTE   W18
 BYTE   FINE

//**************** Track 3 (Midi-Chn.2) ****************//

HolyOrders_003:
//  #03 //000   ----------------------------------------
 BYTE   VOL   47*HolyOrders_mvl/mxv
 BYTE   KEYSH   HolyOrders_key+0
 BYTE   VOICE   30
 BYTE   BEND   c_v+0
 BYTE   W96
//  #03 //001   ----------------------------------------
 BYTE   W96
//  #03 //002   ----------------------------------------
 BYTE   W96
//  #03 //003   ----------------------------------------
 BYTE   W96
//  #03 //004   ----------------------------------------
 BYTE   W96
//  #03 //005   ----------------------------------------
 BYTE   W96
//  #03 //006   ----------------------------------------
 BYTE   W96
//  #03 //007   ----------------------------------------
 BYTE   W96
//  #03 //008   ----------------------------------------
 BYTE   N12  En1  v127
 BYTE   N12  Bn1
 BYTE   W12
 BYTE   En1
 BYTE   N12  Bn1
 BYTE   W12
 BYTE   N24  En1
 BYTE   N24  Bn1
 BYTE   W72
//  #03 //009   ----------------------------------------
 BYTE   W96
//  #03 //010   ----------------------------------------
 BYTE   W96
//  #03 //011   ----------------------------------------
 BYTE   W48
 BYTE   N48  En2
 BYTE   N48  Bn2  v096
 BYTE   W48
//  #03 //012   ----------------------------------------
Label_E57300:
 BYTE   N48  Cn2  v127
 BYTE   W48
 BYTE   Bn1
 BYTE   W48
 BYTE   PEND 
//  #03 //013   ----------------------------------------
Label_E57307:
 BYTE   N48  Gs1  v127
 BYTE   W48
 BYTE   An1
 BYTE   W48
 BYTE   PEND 
//  #03 //014   ----------------------------------------
 BYTE   N96  Gn1
 BYTE   N96  Dn2
 BYTE   W96
//  #03 //015   ----------------------------------------
 BYTE   Bn1
 BYTE   N96  Fs2
 BYTE   W96
//  #03 //016   ----------------------------------------
Label_E57317:
 BYTE   N12  Dn2  v127
 BYTE   W12
 BYTE   En2
 BYTE   W12
 BYTE   En1
 BYTE   N06  An1
 BYTE   W12
 BYTE   N12  En1
 BYTE   N06  An1
 BYTE   W12
 BYTE   N12  En1
 BYTE   N06  An1
 BYTE   W12
 BYTE   N12  En1
 BYTE   N06  An1
 BYTE   W12
 BYTE   N12  Dn2
 BYTE   W12
 BYTE   En2
 BYTE   W12
 BYTE   PEND 
//  #03 //017   ----------------------------------------
Label_E57336:
 BYTE   N12  En1  v127
 BYTE   N06  An1
 BYTE   W12
 BYTE   N12  En1
 BYTE   N06  An1
 BYTE   W12
 BYTE   N12  En1
 BYTE   N06  An1
 BYTE   W12
 BYTE   N12  En1
 BYTE   N06  An1
 BYTE   W12
 BYTE   N12  Dn2
 BYTE   W12
 BYTE   En2
 BYTE   W12
 BYTE   En1
 BYTE   N06  An1
 BYTE   W12
 BYTE   N12  En1
 BYTE   N06  An1
 BYTE   W12
 BYTE   PEND 
//  #03 //018   ----------------------------------------
 BYTE   PATT
  POIN2 Label_E57317
//  #03 //019   ----------------------------------------
 BYTE   PATT
  POIN2 Label_E57336
//  #03 //020   ----------------------------------------
 BYTE   PATT
  POIN2 Label_E57317
//  #03 //021   ----------------------------------------
 BYTE   PATT
  POIN2 Label_E57336
//  #03 //022   ----------------------------------------
 BYTE   PATT
  POIN2 Label_E57317
//  #03 //023   ----------------------------------------
 BYTE   PATT
  POIN2 Label_E57336
//  #03 //024   ----------------------------------------
Label_E57378:
 BYTE   N24  En2  v127
 BYTE   W24
 BYTE   N12
 BYTE   W12
 BYTE   N12
 BYTE   W12
 BYTE   N12
 BYTE   W12
 BYTE   N12
 BYTE   W12
 BYTE   N12
 BYTE   W12
 BYTE   N12
 BYTE   W12
 BYTE   PEND 
//  #03 //025   ----------------------------------------
Label_E57389:
 BYTE   N12  En2  v127
 BYTE   W12
 BYTE   N12
 BYTE   W12
 BYTE   N12
 BYTE   W12
 BYTE   N12
 BYTE   W12
 BYTE   N12
 BYTE   W12
 BYTE   N12
 BYTE   W12
 BYTE   N12
 BYTE   W12
 BYTE   N12
 BYTE   W12
 BYTE   PEND 
//  #03 //026   ----------------------------------------
Label_E5739C:
 BYTE   N24  Ds2  v127
 BYTE   W24
 BYTE   N12
 BYTE   W12
 BYTE   N12
 BYTE   W12
 BYTE   N12
 BYTE   W12
 BYTE   N12
 BYTE   W12
 BYTE   N12
 BYTE   W12
 BYTE   N12
 BYTE   W12
//  #03 //027   ----------------------------------------
 BYTE   N12
 BYTE   W12
 BYTE   N12
 BYTE   W12
 BYTE   N12
 BYTE   W12
 BYTE   N12
 BYTE   W12
 BYTE   N12
 BYTE   W12
 BYTE   N12
 BYTE   W12
 BYTE   N12
 BYTE   W12
 BYTE   N12
 BYTE   W12
//  #03 //028   ----------------------------------------
Label_E573BC:
 BYTE   N24  Cn2  v127
 BYTE   W24
 BYTE   N12
 BYTE   W12
 BYTE   N12
 BYTE   W12
 BYTE   N12
 BYTE   W12
 BYTE   N12
 BYTE   W12
 BYTE   N12
 BYTE   W12
 BYTE   N12
 BYTE   W12
 BYTE   PEND 
//  #03 //029   ----------------------------------------
Label_E573CD:
 BYTE   N24  Bn1  v127
 BYTE   W24
 BYTE   N12
 BYTE   W12
 BYTE   N12
 BYTE   W12
 BYTE   N12
 BYTE   W12
 BYTE   N12
 BYTE   W12
 BYTE   N12
 BYTE   W12
 BYTE   N12
 BYTE   W12
 BYTE   PEND 
//  #03 //030   ----------------------------------------
 BYTE   N24  An1
 BYTE   N24  En2
 BYTE   W24
 BYTE   N06  En1
 BYTE   N06  An1
 BYTE   W12
 BYTE   N36
 BYTE   N36  En2
 BYTE   W36
 BYTE   N24  Cn2
 BYTE   W24
//  #03 //031   ----------------------------------------
 BYTE   Bn1
 BYTE   W24
 BYTE   An1
 BYTE   W24
 BYTE   Gn1
 BYTE   W24
 BYTE   Fs1
 BYTE   W24
//  #03 //032   ----------------------------------------
 BYTE   En1
 BYTE   N24  Bn1
 BYTE   W24
 BYTE   N06  En1
 BYTE   N06  An1
 BYTE   W12
 BYTE   N36  En1
 BYTE   N36  Bn1
 BYTE   W36
 BYTE   N06  En1
 BYTE   N06  An1
 BYTE   W24
//  #03 //033   ----------------------------------------
 BYTE   N24  Fs1
 BYTE   N24  Cs2
 BYTE   W24
 BYTE   N06  En1
 BYTE   N06  An1
 BYTE   W12
 BYTE   N36  Fs1
 BYTE   N36  Cs2
 BYTE   W36
 BYTE   N06  En1
 BYTE   N06  An1
 BYTE   W24
//  #03 //034   ----------------------------------------
 BYTE   N24  Gn1
 BYTE   N24  Dn2
 BYTE   W24
 BYTE   N06  En1
 BYTE   N06  An1
 BYTE   W12
 BYTE   N36  Gn1
 BYTE   N36  Dn2
 BYTE   W36
 BYTE   N06  En1
 BYTE   N06  An1
 BYTE   W24
//  #03 //035   ----------------------------------------
 BYTE   N24  Gs1
 BYTE   N24  Ds2
 BYTE   W24
 BYTE   N06  En1
 BYTE   N06  An1
 BYTE   W12
 BYTE   N36  Gs1
 BYTE   N36  Ds2
 BYTE   W36
 BYTE   N06  En1
 BYTE   N06  An1
 BYTE   W24
//  #03 //036   ----------------------------------------
 BYTE   N24
 BYTE   N24  En2
 BYTE   W24
 BYTE   N06  En1
 BYTE   N06  An1
 BYTE   W12
 BYTE   N36
 BYTE   N36  En2
 BYTE   W36
 BYTE   N06  En1
 BYTE   N06  An1
 BYTE   W24
//  #03 //037   ----------------------------------------
 BYTE   N24  Bn1
 BYTE   N24  Fs2
 BYTE   W24
 BYTE   N06  En1
 BYTE   N06  An1
 BYTE   W12
 BYTE   N60  Bn1
 BYTE   N60  Fs2
 BYTE   W60
//  #03 //038   ----------------------------------------
 BYTE   N72  En1
 BYTE   N72  Bn1
 BYTE   W72
 BYTE   N24  Gn1
 BYTE   N24  Dn2
 BYTE   W24
//  #03 //039   ----------------------------------------
 BYTE   N96  En1
 BYTE   N96  Bn1
 BYTE   W96
//  #03 //040   ----------------------------------------
 BYTE   Cn2
 BYTE   N96  Gn2
 BYTE   W96
//  #03 //041   ----------------------------------------
 BYTE   Dn2
 BYTE   N96  An2
 BYTE   W96
//  #03 //042   ----------------------------------------
Label_E5747E:
 BYTE   N24  En1  v127
 BYTE   N24  Bn1
 BYTE   W36
 BYTE   N60  En1
 BYTE   N60  Bn1
 BYTE   W60
 BYTE   PEND 
//  #03 //043   ----------------------------------------
 BYTE   W96
//  #03 //044   ----------------------------------------
 BYTE   N96  Fs1
 BYTE   N96  Cs2
 BYTE   W96
//  #03 //045   ----------------------------------------
 BYTE   Bn1
 BYTE   N96  Fs2
 BYTE   W96
//  #03 //046   ----------------------------------------
 BYTE   W96
//  #03 //047   ----------------------------------------
 BYTE   W96
//  #03 //048   ----------------------------------------
 BYTE   Cn2
 BYTE   N96  Gn2
 BYTE   W96
//  #03 //049   ----------------------------------------
 BYTE   Dn2
 BYTE   N96  An2
 BYTE   W96
//  #03 //050   ----------------------------------------
 BYTE   PATT
  POIN2 Label_E5747E
//  #03 //051   ----------------------------------------
 BYTE   W96
//  #03 //052   ----------------------------------------
 BYTE   N96  Fs1  v127
 BYTE   N96  Cs2
 BYTE   W96
//  #03 //053   ----------------------------------------
 BYTE   Bn1
 BYTE   N96  Fs2
 BYTE   W96
//  #03 //054   ----------------------------------------
 BYTE   Ds2
 BYTE   N96  As2
 BYTE   W96
//  #03 //055   ----------------------------------------
 BYTE   N48  Fs2  v096
 BYTE   W48
 BYTE   Ds2
 BYTE   W48
//  #03 //056   ----------------------------------------
 BYTE   PATT
  POIN2 Label_E57378
//  #03 //057   ----------------------------------------
Label_E574BD:
 BYTE   N24  An1  v127
 BYTE   W24
 BYTE   N12
 BYTE   W12
 BYTE   N12
 BYTE   W12
 BYTE   N12
 BYTE   W12
 BYTE   N12
 BYTE   W12
 BYTE   N12
 BYTE   W12
 BYTE   N12
 BYTE   W12
 BYTE   PEND 
//  #03 //058   ----------------------------------------
Label_E574CE:
 BYTE   N24  Dn2  v127
 BYTE   W24
 BYTE   N12
 BYTE   W12
 BYTE   N12
 BYTE   W12
 BYTE   N12
 BYTE   W12
 BYTE   N12
 BYTE   W12
 BYTE   N12
 BYTE   W12
 BYTE   N12
 BYTE   W12
 BYTE   PEND 
//  #03 //059   ----------------------------------------
Label_E574DF:
 BYTE   N24  Gn1  v127
 BYTE   W24
 BYTE   N12
 BYTE   W12
 BYTE   N12
 BYTE   W12
 BYTE   N12
 BYTE   W12
 BYTE   N12
 BYTE   W12
 BYTE   N12
 BYTE   W12
 BYTE   N12
 BYTE   W12
 BYTE   PEND 
//  #03 //060   ----------------------------------------
 BYTE   PATT
  POIN2 Label_E573BC
//  #03 //061   ----------------------------------------
 BYTE   PATT
  POIN2 Label_E574CE
//  #03 //062   ----------------------------------------
 BYTE   PATT
  POIN2 Label_E574DF
//  #03 //063   ----------------------------------------
 BYTE   N24  Fs1  v127
 BYTE   N24  Cs2
 BYTE   W36
 BYTE   N60  Bn1
 BYTE   N60  Fs2
 BYTE   W60
//  #03 //064   ----------------------------------------
 BYTE   PATT
  POIN2 Label_E57378
//  #03 //065   ----------------------------------------
 BYTE   PATT
  POIN2 Label_E574BD
//  #03 //066   ----------------------------------------
 BYTE   PATT
  POIN2 Label_E574CE
//  #03 //067   ----------------------------------------
 BYTE   PATT
  POIN2 Label_E574DF
//  #03 //068   ----------------------------------------
 BYTE   PATT
  POIN2 Label_E573BC
//  #03 //069   ----------------------------------------
 BYTE   PATT
  POIN2 Label_E573CD
//  #03 //070   ----------------------------------------
 BYTE   N24  En1  v127
 BYTE   N24  Bn1
 BYTE   W36
 BYTE   N36  En1
 BYTE   N36  Bn1
 BYTE   W36
 BYTE   N24  En1
 BYTE   W24
//  #03 //071   ----------------------------------------
 BYTE   N48  Gn1
 BYTE   W48
 BYTE   Fs1
 BYTE   W48
//  #03 //072   ----------------------------------------
 BYTE   TIE  En1
 BYTE   TIE  Bn1
 BYTE   W96
//  #03 //073   ----------------------------------------
 BYTE   W96
//  #03 //074   ----------------------------------------
 BYTE   W96
//  #03 //075   ----------------------------------------
 BYTE   W96
//  #03 //076   ----------------------------------------
 BYTE   EOT
 BYTE   En1  v047
//  #03 //077   ----------------------------------------
 BYTE   PATT
  POIN2 Label_E57300
//  #03 //078   ----------------------------------------
 BYTE   PATT
  POIN2 Label_E57307
//  #03 //079   ----------------------------------------
 BYTE   N96  Gn1  v127
 BYTE   N96  Dn2
 BYTE   W96
//  #03 //080   ----------------------------------------
 BYTE   Bn1
 BYTE   N96  Fs2
 BYTE   W96
//  #03 //081   ----------------------------------------
 BYTE   PATT
  POIN2 Label_E57317
//  #03 //082   ----------------------------------------
 BYTE   PATT
  POIN2 Label_E57336
//  #03 //083   ----------------------------------------
 BYTE   PATT
  POIN2 Label_E57317
//  #03 //084   ----------------------------------------
 BYTE   PATT
  POIN2 Label_E57336
//  #03 //085   ----------------------------------------
 BYTE   PATT
  POIN2 Label_E57317
//  #03 //086   ----------------------------------------
 BYTE   PATT
  POIN2 Label_E57336
//  #03 //087   ----------------------------------------
 BYTE   PATT
  POIN2 Label_E57317
//  #03 //088   ----------------------------------------
 BYTE   PATT
  POIN2 Label_E57336
//  #03 //089   ----------------------------------------
 BYTE   PATT
  POIN2 Label_E57317
//  #03 //090   ----------------------------------------
 BYTE   PATT
  POIN2 Label_E57336
//  #03 //091   ----------------------------------------
 BYTE   PATT
  POIN2 Label_E57317
//  #03 //092   ----------------------------------------
 BYTE   PATT
  POIN2 Label_E57336
//  #03 //093   ----------------------------------------
 BYTE   PATT
  POIN2 Label_E57317
//  #03 //094   ----------------------------------------
 BYTE   PATT
  POIN2 Label_E57336
//  #03 //095   ----------------------------------------
 BYTE   PATT
  POIN2 Label_E57317
//  #03 //096   ----------------------------------------
 BYTE   PATT
  POIN2 Label_E57336
//  #03 //097   ----------------------------------------
 BYTE   PATT
  POIN2 Label_E57378
//  #03 //098   ----------------------------------------
 BYTE   PATT
  POIN2 Label_E57389
//  #03 //099   ----------------------------------------
 BYTE   GoTo
  POIN2 Label_E5739C
//  #03 //100   ----------------------------------------
 BYTE   PAN   c_v-6
 BYTE   VOL   47*HolyOrders_mvl/mxv
 BYTE   W96
//  #03 //101   ----------------------------------------
 BYTE   W96
//  #03 //102   ----------------------------------------
 BYTE   W96
//  #03 //103   ----------------------------------------
 BYTE   W96
//  #03 //104   ----------------------------------------
 BYTE   W96
//  #03 //105   ----------------------------------------
 BYTE   W18
 BYTE   FINE

//**************** Track 4 (Midi-Chn.3) ****************//

HolyOrders_004:
//  #04 //000   ----------------------------------------
 BYTE   KEYSH   HolyOrders_key+0
 BYTE   VOICE   110
 BYTE   PAN   c_v+31
 BYTE   VOL   47*HolyOrders_mvl/mxv
 BYTE   BEND   c_v+0
 BYTE   W96
//  #04 //001   ----------------------------------------
 BYTE   W96
//  #04 //002   ----------------------------------------
 BYTE   W96
//  #04 //003   ----------------------------------------
 BYTE   W96
//  #04 //004   ----------------------------------------
 BYTE   W96
//  #04 //005   ----------------------------------------
 BYTE   W96
//  #04 //006   ----------------------------------------
 BYTE   W96
//  #04 //007   ----------------------------------------
 BYTE   W96
//  #04 //008   ----------------------------------------
 BYTE   N12  Gn3  v127
 BYTE   W12
 BYTE   Bn2  v096
 BYTE   W12
 BYTE   Fs3
 BYTE   W12
 BYTE   Bn2
 BYTE   W12
 BYTE   En3
 BYTE   W12
 BYTE   Bn2
 BYTE   W12
 BYTE   An3
 BYTE   W12
 BYTE   Bn2
 BYTE   W12
//  #04 //009   ----------------------------------------
Label_E57AD9:
 BYTE   N12  Gn3  v096
 BYTE   W12
 BYTE   Bn2
 BYTE   W12
 BYTE   En3
 BYTE   W12
 BYTE   Bn2
 BYTE   W12
 BYTE   Gn3
 BYTE   W12
 BYTE   Bn2
 BYTE   W12
 BYTE   Fs3
 BYTE   W24
 BYTE   PEND 
//  #04 //010   ----------------------------------------
Label_E57AEA:
 BYTE   N24  En2  v096
 BYTE   W24
 BYTE   N12  Fs2
 BYTE   W12
 BYTE   Gn2
 BYTE   W12
 BYTE   An2
 BYTE   W12
 BYTE   En2
 BYTE   W12
 BYTE   Bn2
 BYTE   W12
 BYTE   En2
 BYTE   W12
 BYTE   PEND 
//  #04 //011   ----------------------------------------
Label_E57AFC:
 BYTE   N12  Bn3  v096
 BYTE   W12
 BYTE   Bn2
 BYTE   W12
 BYTE   An3
 BYTE   W12
 BYTE   Bn2
 BYTE   W12
 BYTE   Gn3
 BYTE   W12
 BYTE   Bn2
 BYTE   W12
 BYTE   Fs3
 BYTE   W24
 BYTE   PEND 
//  #04 //012   ----------------------------------------
Label_E57B0D:
 BYTE   N12  Dn4  v096
 BYTE   W12
 BYTE   Cn4
 BYTE   W12
 BYTE   Bn3
 BYTE   W12
 BYTE   Cn4
 BYTE   W12
 BYTE   En4
 BYTE   W12
 BYTE   Dn4
 BYTE   W12
 BYTE   Cn4
 BYTE   W12
 BYTE   Dn4
 BYTE   W12
 BYTE   PEND 
//  #04 //013   ----------------------------------------
Label_E57B20:
 BYTE   N12  Dn4  v096
 BYTE   W12
 BYTE   En4
 BYTE   W12
 BYTE   Dn4
 BYTE   W12
 BYTE   En4
 BYTE   W12
 BYTE   Cn4
 BYTE   W12
 BYTE   Bn3
 BYTE   W12
 BYTE   An3
 BYTE   W12
 BYTE   Gn3
 BYTE   W12
 BYTE   PEND 
//  #04 //014   ----------------------------------------
Label_E57B33:
 BYTE   N12  Cn5  v096
 BYTE   W12
 BYTE   N24  Cn4
 BYTE   W24
 BYTE   N12  Cn5
 BYTE   W12
 BYTE   N24  En4
 BYTE   W24
 BYTE   N12  Fs3
 BYTE   W12
 BYTE   En3
 BYTE   W12
 BYTE   PEND 
//  #04 //015   ----------------------------------------
Label_E57B46:
 BYTE   N12  En3  v096
 BYTE   W12
 BYTE   Fs3
 BYTE   W12
 BYTE   En3
 BYTE   W12
 BYTE   N12
 BYTE   W12
 BYTE   En4
 BYTE   W12
 BYTE   Bn2
 BYTE   W12
 BYTE   Ds4
 BYTE   W12
 BYTE   En4
 BYTE   W12
 BYTE   PEND 
//  #04 //016   ----------------------------------------
Label_E57B59:
 BYTE   N12  Gn3  v096
 BYTE   W12
 BYTE   Bn2
 BYTE   W12
 BYTE   Fs3
 BYTE   W12
 BYTE   Bn2
 BYTE   W12
 BYTE   En3
 BYTE   W12
 BYTE   Bn2
 BYTE   W12
 BYTE   An3
 BYTE   W12
 BYTE   Bn2
 BYTE   W12
 BYTE   PEND 
//  #04 //017   ----------------------------------------
Label_E57B6C:
 BYTE   N12  Gn3  v096
 BYTE   W12
 BYTE   Bn2
 BYTE   W12
 BYTE   En3
 BYTE   W12
 BYTE   Bn2
 BYTE   W12
 BYTE   Gn3
 BYTE   W12
 BYTE   Bn2
 BYTE   W12
 BYTE   Fs3
 BYTE   W12
 BYTE   Bn2
 BYTE   W12
 BYTE   PEND 
//  #04 //018   ----------------------------------------
 BYTE   PATT
  POIN2 Label_E57B59
//  #04 //019   ----------------------------------------
 BYTE   N12  Gn3  v096
 BYTE   W12
 BYTE   Bn2
 BYTE   W12
 BYTE   Fs3
 BYTE   W12
 BYTE   Bn2
 BYTE   W12
 BYTE   Cn4
 BYTE   W12
 BYTE   Bn2
 BYTE   W12
 BYTE   Bn3
 BYTE   W12
 BYTE   Bn2
 BYTE   W12
//  #04 //020   ----------------------------------------
 BYTE   PATT
  POIN2 Label_E57B59
//  #04 //021   ----------------------------------------
 BYTE   PATT
  POIN2 Label_E57B6C
//  #04 //022   ----------------------------------------
 BYTE   PATT
  POIN2 Label_E57B59
//  #04 //023   ----------------------------------------
Label_E57BA5:
 BYTE   N12  Gn3  v096
 BYTE   W12
 BYTE   Bn2
 BYTE   W12
 BYTE   En3
 BYTE   W12
 BYTE   Bn2
 BYTE   W12
 BYTE   Cn4
 BYTE   W12
 BYTE   Bn2
 BYTE   W12
 BYTE   Bn3
 BYTE   W12
 BYTE   Bn2
 BYTE   W12
 BYTE   PEND 
//  #04 //024   ----------------------------------------
Label_E57BB8:
 BYTE   N24  Bn2  v096
 BYTE   W24
 BYTE   N06  An1
 BYTE   W12
 BYTE   N06
 BYTE   W12
 BYTE   N06
 BYTE   W12
 BYTE   N06
 BYTE   W12
 BYTE   N06
 BYTE   W12
 BYTE   N06
 BYTE   W12
 BYTE   PEND 
//  #04 //025   ----------------------------------------
Label_E57BCA:
 BYTE   N06  An1  v096
 BYTE   W12
 BYTE   N06
 BYTE   W12
 BYTE   N06
 BYTE   W12
 BYTE   N06
 BYTE   W12
 BYTE   N06
 BYTE   W12
 BYTE   N06
 BYTE   W12
 BYTE   N06
 BYTE   W12
 BYTE   N06
 BYTE   W12
 BYTE   PEND 
//  #04 //026   ----------------------------------------
Label_E57BDD:
 BYTE   N24  As2  v096
 BYTE   W24
 BYTE   N06  An1
 BYTE   W12
 BYTE   N06
 BYTE   W12
 BYTE   N06
 BYTE   W12
 BYTE   N06
 BYTE   W12
 BYTE   N06
 BYTE   W12
 BYTE   N06
 BYTE   W12
//  #04 //027   ----------------------------------------
 BYTE   N06
 BYTE   W12
 BYTE   N06
 BYTE   W12
 BYTE   N06
 BYTE   W12
 BYTE   N06
 BYTE   W60
//  #04 //028   ----------------------------------------
Label_E57BF6:
 BYTE   N24  Gn2  v096
 BYTE   W24
 BYTE   N06  An1
 BYTE   W12
 BYTE   N06
 BYTE   W12
 BYTE   N06
 BYTE   W12
 BYTE   N06
 BYTE   W12
 BYTE   N06
 BYTE   W12
 BYTE   N06
 BYTE   W12
 BYTE   PEND 
//  #04 //029   ----------------------------------------
Label_E57C08:
 BYTE   N24  Fs2  v096
 BYTE   W24
 BYTE   N06  An1
 BYTE   W12
 BYTE   N06
 BYTE   W12
 BYTE   N06
 BYTE   W12
 BYTE   N06
 BYTE   W12
 BYTE   N06
 BYTE   W12
 BYTE   N06
 BYTE   W12
 BYTE   PEND 
//  #04 //030   ----------------------------------------
 BYTE   N24  En2
 BYTE   W36
 BYTE   N24
 BYTE   W36
 BYTE   Gn2
 BYTE   W24
//  #04 //031   ----------------------------------------
 BYTE   N96  Fs2
 BYTE   W96
//  #04 //032   ----------------------------------------
 BYTE   N24  Bn1
 BYTE   W36
 BYTE   N36
 BYTE   W36
 BYTE   N24  An1
 BYTE   W24
//  #04 //033   ----------------------------------------
 BYTE   Cs2
 BYTE   W36
 BYTE   N36  Dn2
 BYTE   W36
 BYTE   N24  An1
 BYTE   W24
//  #04 //034   ----------------------------------------
 BYTE   Dn2
 BYTE   W36
 BYTE   N36  En2
 BYTE   W36
 BYTE   N24  An1
 BYTE   W24
//  #04 //035   ----------------------------------------
 BYTE   Ds2
 BYTE   W36
 BYTE   N36  Bn1
 BYTE   W36
 BYTE   N24  An1
 BYTE   W24
//  #04 //036   ----------------------------------------
 BYTE   En2
 BYTE   W36
 BYTE   N36
 BYTE   W36
 BYTE   N24  An1
 BYTE   W24
//  #04 //037   ----------------------------------------
 BYTE   Fs2
 BYTE   W36
 BYTE   N36
 BYTE   W60
//  #04 //038   ----------------------------------------
 BYTE   N24  Bn1
 BYTE   W36
 BYTE   N24
 BYTE   W36
 BYTE   N24
 BYTE   W24
//  #04 //039   ----------------------------------------
 BYTE   N96
 BYTE   W96
//  #04 //040   ----------------------------------------
Label_E57C58:
 BYTE   N36  Cn3  v096
 BYTE   W36
 BYTE   N48  En3
 BYTE   W60
 BYTE   PEND 
//  #04 //041   ----------------------------------------
Label_E57C60:
 BYTE   N36  Dn3  v096
 BYTE   W36
 BYTE   N48  Fs3
 BYTE   W60
 BYTE   PEND 
//  #04 //042   ----------------------------------------
Label_E57C68:
 BYTE   N36  En3  v096
 BYTE   W36
 BYTE   Gn3
 BYTE   W36
 BYTE   N24  En1
 BYTE   W24
 BYTE   PEND 
//  #04 //043   ----------------------------------------
Label_E57C72:
 BYTE   N24  Gn1  v096
 BYTE   W24
 BYTE   N12  En1
 BYTE   W12
 BYTE   N24  An1
 BYTE   W24
 BYTE   N12  En1
 BYTE   W12
 BYTE   N24  Gn1
 BYTE   W24
 BYTE   PEND 
//  #04 //044   ----------------------------------------
Label_E57C83:
 BYTE   N24  Cs2  v096
 BYTE   W24
 BYTE   N06  En1
 BYTE   W12
 BYTE   N06
 BYTE   W12
 BYTE   N06
 BYTE   W12
 BYTE   N06
 BYTE   W12
 BYTE   N06
 BYTE   W12
 BYTE   N06
 BYTE   W12
 BYTE   PEND 
//  #04 //045   ----------------------------------------
 BYTE   PATT
  POIN2 Label_E57C08
//  #04 //046   ----------------------------------------
 BYTE   N48  En1  v096
 BYTE   W48
 BYTE   Gn1
 BYTE   W48
//  #04 //047   ----------------------------------------
 BYTE   Bn1
 BYTE   W48
 BYTE   En2
 BYTE   W48
//  #04 //048   ----------------------------------------
 BYTE   PATT
  POIN2 Label_E57C58
//  #04 //049   ----------------------------------------
 BYTE   PATT
  POIN2 Label_E57C60
//  #04 //050   ----------------------------------------
 BYTE   PATT
  POIN2 Label_E57C68
//  #04 //051   ----------------------------------------
 BYTE   PATT
  POIN2 Label_E57C72
//  #04 //052   ----------------------------------------
 BYTE   PATT
  POIN2 Label_E57C83
//  #04 //053   ----------------------------------------
 BYTE   PATT
  POIN2 Label_E57C08
//  #04 //054   ----------------------------------------
 BYTE   N12  Fs4  v096
 BYTE   W12
 BYTE   Ds4
 BYTE   W12
 BYTE   An3
 BYTE   W12
 BYTE   Ds4
 BYTE   W12
 BYTE   Fs4
 BYTE   W12
 BYTE   Ds4
 BYTE   W12
 BYTE   Bn3
 BYTE   W12
 BYTE   Fs4
 BYTE   W12
//  #04 //055   ----------------------------------------
 BYTE   An4
 BYTE   W12
 BYTE   Fs4
 BYTE   W12
 BYTE   Cn4
 BYTE   W12
 BYTE   An4
 BYTE   W60
//  #04 //056   ----------------------------------------
Label_E57CDC:
 BYTE   W48
 BYTE   N24  Fs4  v096
 BYTE   W24
 BYTE   N12  En4
 BYTE   W24
 BYTE   PEND 
//  #04 //057   ----------------------------------------
Label_E57CE5:
 BYTE   W48
 BYTE   N06  Dn2  v096
 BYTE   W12
 BYTE   N06
 BYTE   W12
 BYTE   N06
 BYTE   W12
 BYTE   N06
 BYTE   W12
 BYTE   PEND 
//  #04 //058   ----------------------------------------
Label_E57CF1:
 BYTE   N24  An2  v096
 BYTE   W24
 BYTE   N06  An1
 BYTE   W12
 BYTE   N06
 BYTE   W12
 BYTE   N06
 BYTE   W12
 BYTE   N06
 BYTE   W12
 BYTE   N06
 BYTE   W12
 BYTE   N06
 BYTE   W12
 BYTE   PEND 
//  #04 //059   ----------------------------------------
Label_E57D03:
 BYTE   N24  Dn2  v096
 BYTE   W24
 BYTE   N06  En1
 BYTE   W12
 BYTE   N06
 BYTE   W12
 BYTE   N06
 BYTE   W12
 BYTE   N06
 BYTE   W12
 BYTE   N06
 BYTE   W12
 BYTE   N06
 BYTE   W12
 BYTE   PEND 
//  #04 //060   ----------------------------------------
 BYTE   PATT
  POIN2 Label_E57BF6
//  #04 //061   ----------------------------------------
 BYTE   PATT
  POIN2 Label_E57CF1
//  #04 //062   ----------------------------------------
 BYTE   N24  Dn2  v096
 BYTE   W24
 BYTE   N06  En1
 BYTE   W12
 BYTE   N06
 BYTE   W12
 BYTE   N06
 BYTE   W12
 BYTE   N06
 BYTE   W12
 BYTE   N12  Dn2
 BYTE   W12
 BYTE   N12
 BYTE   W12
//  #04 //063   ----------------------------------------
 BYTE   N24  Cs2
 BYTE   W24
 BYTE   N06  An1
 BYTE   W12
 BYTE   N60  Bn1
 BYTE   W60
//  #04 //064   ----------------------------------------
 BYTE   PATT
  POIN2 Label_E57CDC
//  #04 //065   ----------------------------------------
 BYTE   PATT
  POIN2 Label_E57CE5
//  #04 //066   ----------------------------------------
 BYTE   PATT
  POIN2 Label_E57CF1
//  #04 //067   ----------------------------------------
 BYTE   PATT
  POIN2 Label_E57D03
//  #04 //068   ----------------------------------------
 BYTE   PATT
  POIN2 Label_E57BF6
//  #04 //069   ----------------------------------------
 BYTE   PATT
  POIN2 Label_E57C08
//  #04 //070   ----------------------------------------
 BYTE   N24  Bn1  v096
 BYTE   W36
 BYTE   N60
 BYTE   W60
//  #04 //071   ----------------------------------------
 BYTE   W96
//  #04 //072   ----------------------------------------
 BYTE   PATT
  POIN2 Label_E57B59
//  #04 //073   ----------------------------------------
 BYTE   PATT
  POIN2 Label_E57AD9
//  #04 //074   ----------------------------------------
 BYTE   PATT
  POIN2 Label_E57AEA
//  #04 //075   ----------------------------------------
 BYTE   PATT
  POIN2 Label_E57AFC
//  #04 //076   ----------------------------------------
 BYTE   PATT
  POIN2 Label_E57B0D
//  #04 //077   ----------------------------------------
 BYTE   PATT
  POIN2 Label_E57B20
//  #04 //078   ----------------------------------------
 BYTE   PATT
  POIN2 Label_E57B33
//  #04 //079   ----------------------------------------
 BYTE   PATT
  POIN2 Label_E57B46
//  #04 //080   ----------------------------------------
 BYTE   PATT
  POIN2 Label_E57B59
//  #04 //081   ----------------------------------------
 BYTE   PATT
  POIN2 Label_E57B6C
//  #04 //082   ----------------------------------------
 BYTE   PATT
  POIN2 Label_E57B59
//  #04 //083   ----------------------------------------
 BYTE   PATT
  POIN2 Label_E57BA5
//  #04 //084   ----------------------------------------
 BYTE   PATT
  POIN2 Label_E57B59
//  #04 //085   ----------------------------------------
 BYTE   PATT
  POIN2 Label_E57B6C
//  #04 //086   ----------------------------------------
 BYTE   PATT
  POIN2 Label_E57B59
//  #04 //087   ----------------------------------------
 BYTE   PATT
  POIN2 Label_E57BA5
//  #04 //088   ----------------------------------------
 BYTE   PATT
  POIN2 Label_E57B59
//  #04 //089   ----------------------------------------
 BYTE   PATT
  POIN2 Label_E57B6C
//  #04 //090   ----------------------------------------
 BYTE   PATT
  POIN2 Label_E57B59
//  #04 //091   ----------------------------------------
 BYTE   PATT
  POIN2 Label_E57BA5
//  #04 //092   ----------------------------------------
 BYTE   PATT
  POIN2 Label_E57B59
//  #04 //093   ----------------------------------------
 BYTE   PATT
  POIN2 Label_E57B6C
//  #04 //094   ----------------------------------------
 BYTE   PATT
  POIN2 Label_E57B59
//  #04 //095   ----------------------------------------
 BYTE   PATT
  POIN2 Label_E57BA5
//  #04 //096   ----------------------------------------
 BYTE   PATT
  POIN2 Label_E57BB8
//  #04 //097   ----------------------------------------
 BYTE   PATT
  POIN2 Label_E57BCA
//  #04 //098   ----------------------------------------
 BYTE   GoTo
  POIN2 Label_E57BDD
//  #04 //099   ----------------------------------------
 BYTE   W96
//  #04 //100   ----------------------------------------
 BYTE   W96
//  #04 //101   ----------------------------------------
 BYTE   W96
//  #04 //102   ----------------------------------------
 BYTE   W96
//  #04 //103   ----------------------------------------
 BYTE   W96
//  #04 //104   ----------------------------------------
 BYTE   W18
 BYTE   FINE

//**************** Track 5 (Midi-Chn.4) ****************//

HolyOrders_005:
//  #05 //000   ----------------------------------------
 BYTE   KEYSH   HolyOrders_key+0
 BYTE   VOICE   48
 BYTE   PAN   c_v+9
 BYTE   VOL   47*HolyOrders_mvl/mxv
 BYTE   BEND   c_v+0
 BYTE   W96
//  #05 //001   ----------------------------------------
 BYTE   W96
//  #05 //002   ----------------------------------------
 BYTE   W96
//  #05 //003   ----------------------------------------
 BYTE   W96
//  #05 //004   ----------------------------------------
 BYTE   W96
//  #05 //005   ----------------------------------------
 BYTE   W96
//  #05 //006   ----------------------------------------
 BYTE   W96
//  #05 //007   ----------------------------------------
 BYTE   W96
//  #05 //008   ----------------------------------------
 BYTE   W96
//  #05 //009   ----------------------------------------
 BYTE   W96
//  #05 //010   ----------------------------------------
 BYTE   W96
//  #05 //011   ----------------------------------------
 BYTE   W96
//  #05 //012   ----------------------------------------
 BYTE   W96
//  #05 //013   ----------------------------------------
 BYTE   W96
//  #05 //014   ----------------------------------------
 BYTE   W96
//  #05 //015   ----------------------------------------
 BYTE   W96
//  #05 //016   ----------------------------------------
 BYTE   W96
//  #05 //017   ----------------------------------------
 BYTE   W96
//  #05 //018   ----------------------------------------
 BYTE   W96
//  #05 //019   ----------------------------------------
 BYTE   W96
//  #05 //020   ----------------------------------------
 BYTE   W96
//  #05 //021   ----------------------------------------
 BYTE   W96
//  #05 //022   ----------------------------------------
 BYTE   W96
//  #05 //023   ----------------------------------------
 BYTE   W72
 BYTE   N24  Bn2  v096
 BYTE   W24
//  #05 //024   ----------------------------------------
Label_56F06E:
 BYTE   N72  En3  v096
 BYTE   W72
 BYTE   N24  Bn2
 BYTE   W24
 BYTE   PEND 
//  #05 //025   ----------------------------------------
Label_56F076:
 BYTE   N60  Gn3  v096
 BYTE   W60
 BYTE   N24  Fs3
 BYTE   W24
 BYTE   N12  En3
 BYTE   W12
 BYTE   PEND 
//  #05 //026   ----------------------------------------
Label_56F081:
 BYTE   N60  Ds3  v096
 BYTE   W60
 BYTE   N24
 BYTE   W24
 BYTE   N12  Fs3
 BYTE   W12
//  #05 //027   ----------------------------------------
 BYTE   Ds3  v088
 BYTE   W12
 BYTE   Bn2  v096
 BYTE   W12
 BYTE   Cn3
 BYTE   W12
 BYTE   N36  Bn2
 BYTE   W36
 BYTE   N12
 BYTE   W12
 BYTE   Cn3
 BYTE   W12
//  #05 //028   ----------------------------------------
 BYTE   N48  Dn3
 BYTE   W48
 BYTE   N12  Bn2
 BYTE   W12
 BYTE   Cn3
 BYTE   W12
 BYTE   Bn2
 BYTE   W12
 BYTE   An2
 BYTE   W12
//  #05 //029   ----------------------------------------
 BYTE   N36  Gs2
 BYTE   W36
 BYTE   N60  En2
 BYTE   W60
//  #05 //030   ----------------------------------------
 BYTE   N36  Gs2
 BYTE   W36
 BYTE   Cn3
 BYTE   W36
 BYTE   N24  Gn3
 BYTE   W24
//  #05 //031   ----------------------------------------
 BYTE   Fs3  v088
 BYTE   W24
 BYTE   N12  En3  v096
 BYTE   W12
 BYTE   N36  Ds3
 BYTE   W36
 BYTE   N24  Bn2
 BYTE   W24
//  #05 //032   ----------------------------------------
 BYTE   PATT
  POIN2 Label_56F06E
//  #05 //033   ----------------------------------------
 BYTE   N72  Fs3  v096
 BYTE   W72
 BYTE   N24  Bn2
 BYTE   W24
//  #05 //034   ----------------------------------------
 BYTE   N60  En3
 BYTE   W60
 BYTE   N24  Fn3
 BYTE   W24
 BYTE   N12  Gn3  v088
 BYTE   W12
//  #05 //035   ----------------------------------------
 BYTE   Gs3  v096
 BYTE   W12
 BYTE   En3
 BYTE   W12
 BYTE   Gs3
 BYTE   W12
 BYTE   N36  Bn3
 BYTE   W36
 BYTE   N12  Cn4
 BYTE   W12
 BYTE   Bn3
 BYTE   W12
//  #05 //036   ----------------------------------------
 BYTE   N36  Cn4  v088
 BYTE   W36
 BYTE   N12  Cn4  v096
 BYTE   W12
 BYTE   Bn3
 BYTE   W12
 BYTE   N24  An3
 BYTE   W24
 BYTE   N12  Gn3
 BYTE   W12
//  #05 //037   ----------------------------------------
 BYTE   N48  Fs3
 BYTE   W48
 BYTE   Ds3
 BYTE   W48
//  #05 //038   ----------------------------------------
 BYTE   TIE  En3
 BYTE   W96
//  #05 //039   ----------------------------------------
 BYTE   W96
//  #05 //040   ----------------------------------------
 BYTE   EOT
 BYTE   W96
//  #05 //041   ----------------------------------------
 BYTE   W96
//  #05 //042   ----------------------------------------
 BYTE   W96
//  #05 //043   ----------------------------------------
 BYTE   W96
//  #05 //044   ----------------------------------------
 BYTE   W96
//  #05 //045   ----------------------------------------
 BYTE   W96
//  #05 //046   ----------------------------------------
 BYTE   W96
//  #05 //047   ----------------------------------------
 BYTE   W96
//  #05 //048   ----------------------------------------
 BYTE   W96
//  #05 //049   ----------------------------------------
 BYTE   W96
//  #05 //050   ----------------------------------------
 BYTE   W96
//  #05 //051   ----------------------------------------
 BYTE   W96
//  #05 //052   ----------------------------------------
 BYTE   W96
//  #05 //053   ----------------------------------------
 BYTE   W96
//  #05 //054   ----------------------------------------
 BYTE   W96
//  #05 //055   ----------------------------------------
 BYTE   W96
//  #05 //056   ----------------------------------------
Label_56F10F:
 BYTE   N48  Bn3  v096
 BYTE   W48
 BYTE   N24  Fs4
 BYTE   W24
 BYTE   N12  En4
 BYTE   W12
 BYTE   N60  Gn4
 BYTE   W12
 BYTE   PEND 
//  #05 //057   ----------------------------------------
 BYTE   W48
 BYTE   N12
 BYTE   W12
 BYTE   Fs4
 BYTE   W12
 BYTE   En4
 BYTE   W12
 BYTE   Dn4
 BYTE   W12
//  #05 //058   ----------------------------------------
 BYTE   N48  An3
 BYTE   W48
 BYTE   N12  Gn3  v088
 BYTE   W12
 BYTE   Fs3  v096
 BYTE   W12
 BYTE   En3
 BYTE   W12
 BYTE   Dn3
 BYTE   W12
//  #05 //059   ----------------------------------------
 BYTE   N72  Gn2
 BYTE   W72
 BYTE   N12  Gn3
 BYTE   W12
 BYTE   Fs3
 BYTE   W12
//  #05 //060   ----------------------------------------
 BYTE   N36  Gn3
 BYTE   W36
 BYTE   An3
 BYTE   W36
 BYTE   N24  Bn3
 BYTE   W24
//  #05 //061   ----------------------------------------
 BYTE   N48  Fs3
 BYTE   W48
 BYTE   N12  Dn4
 BYTE   W12
 BYTE   Cn4
 BYTE   W12
 BYTE   Bn3
 BYTE   W12
 BYTE   An3
 BYTE   W12
//  #05 //062   ----------------------------------------
 BYTE   N36  Fs3
 BYTE   W36
 BYTE   N12  Gn3
 BYTE   W12
 BYTE   An3
 BYTE   W12
 BYTE   Gn3
 BYTE   W12
 BYTE   N24  An3
 BYTE   W24
//  #05 //063   ----------------------------------------
 BYTE   N96  Bn3
 BYTE   W96
//  #05 //064   ----------------------------------------
 BYTE   PATT
  POIN2 Label_56F10F
//  #05 //065   ----------------------------------------
 BYTE   W48
 BYTE   N12  Dn5  v096
 BYTE   W12
 BYTE   Cs5
 BYTE   W12
 BYTE   Bn4
 BYTE   W12
 BYTE   Gs4
 BYTE   W12
//  #05 //066   ----------------------------------------
 BYTE   N48  Fs4
 BYTE   W48
 BYTE   N12  Gn4
 BYTE   W12
 BYTE   Fs4
 BYTE   W12
 BYTE   En4
 BYTE   W12
 BYTE   Dn4
 BYTE   W12
//  #05 //067   ----------------------------------------
 BYTE   N36  Cn5
 BYTE   W36
 BYTE   Bn4
 BYTE   W36
 BYTE   N12
 BYTE   W12
 BYTE   Gn4
 BYTE   W12
//  #05 //068   ----------------------------------------
 BYTE   N36  Fs4
 BYTE   W36
 BYTE   En4
 BYTE   W36
 BYTE   N24  Cn5
 BYTE   W24
//  #05 //069   ----------------------------------------
 BYTE   N36  Bn4
 BYTE   W36
 BYTE   N12  Cn5
 BYTE   W12
 BYTE   Bn4
 BYTE   W12
 BYTE   An4
 BYTE   W12
 BYTE   Fs4
 BYTE   W12
 BYTE   Ds4
 BYTE   W12
//  #05 //070   ----------------------------------------
 BYTE   TIE  Bn3
 BYTE   W96
//  #05 //071   ----------------------------------------
 BYTE   W96
//  #05 //072   ----------------------------------------
 BYTE   EOT
 BYTE   W96
//  #05 //073   ----------------------------------------
 BYTE   W96
//  #05 //074   ----------------------------------------
 BYTE   W96
//  #05 //075   ----------------------------------------
 BYTE   W96
//  #05 //076   ----------------------------------------
 BYTE   W96
//  #05 //077   ----------------------------------------
 BYTE   W96
//  #05 //078   ----------------------------------------
 BYTE   W96
//  #05 //079   ----------------------------------------
 BYTE   W96
//  #05 //080   ----------------------------------------
 BYTE   W96
//  #05 //081   ----------------------------------------
 BYTE   W96
//  #05 //082   ----------------------------------------
 BYTE   W96
//  #05 //083   ----------------------------------------
 BYTE   W96
//  #05 //084   ----------------------------------------
 BYTE   W96
//  #05 //085   ----------------------------------------
 BYTE   W96
//  #05 //086   ----------------------------------------
 BYTE   W96
//  #05 //087   ----------------------------------------
 BYTE   W96
//  #05 //088   ----------------------------------------
 BYTE   W96
//  #05 //089   ----------------------------------------
 BYTE   W96
//  #05 //090   ----------------------------------------
 BYTE   W96
//  #05 //091   ----------------------------------------
 BYTE   W96
//  #05 //092   ----------------------------------------
 BYTE   W96
//  #05 //093   ----------------------------------------
 BYTE   W96
//  #05 //094   ----------------------------------------
 BYTE   W96
//  #05 //095   ----------------------------------------
 BYTE   W72
 BYTE   N24  Bn2
 BYTE   W24
//  #05 //096   ----------------------------------------
 BYTE   PATT
  POIN2 Label_56F06E
//  #05 //097   ----------------------------------------
 BYTE   PATT
  POIN2 Label_56F076
//  #05 //098   ----------------------------------------
 BYTE   GoTo
  POIN2 Label_56F081
//  #05 //099   ----------------------------------------
 BYTE   BEND   c_v+0
 BYTE   W96
//  #05 //100   ----------------------------------------
 BYTE   W96
//  #05 //101   ----------------------------------------
 BYTE   W96
//  #05 //102   ----------------------------------------
 BYTE   W96
//  #05 //103   ----------------------------------------
 BYTE   W96
//  #05 //104   ----------------------------------------
 BYTE   W18
 BYTE   FINE

//**************** Track 6 (Midi-Chn.5) ****************//

HolyOrders_006:
//  #06 //000   ----------------------------------------
 BYTE   KEYSH   HolyOrders_key+0
 BYTE   VOICE   124
 BYTE   VOL   31*HolyOrders_mvl/mxv
 BYTE   W96
//  #06 //001   ----------------------------------------
 BYTE   W96
//  #06 //002   ----------------------------------------
 BYTE   W96
//  #06 //003   ----------------------------------------
 BYTE   W96
//  #06 //004   ----------------------------------------
 BYTE   W96
//  #06 //005   ----------------------------------------
 BYTE   W96
//  #06 //006   ----------------------------------------
 BYTE   W96
//  #06 //007   ----------------------------------------
 BYTE   W96
//  #06 //008   ----------------------------------------
 BYTE   N12  Dn1  v127
 BYTE   W12
 BYTE   N12
 BYTE   W12
 BYTE   N72
 BYTE   W72
//  #06 //009   ----------------------------------------
 BYTE   N96  Fs1
 BYTE   W96
//  #06 //010   ----------------------------------------
 BYTE   Gs1
 BYTE   W96
//  #06 //011   ----------------------------------------
 BYTE   N48  Fs1
 BYTE   W48
 BYTE   Cn1
 BYTE   N48  Fn1
 BYTE   W48
//  #06 //012   ----------------------------------------
Label_E57E22:
 BYTE   N12  Cn1  v127
 BYTE   N12  Gs1
 BYTE   N36  Cs2
 BYTE   W48
 BYTE   N24  Cn1
 BYTE   N12  Gs1
 BYTE   N24  An2
 BYTE   W48
 BYTE   PEND 
//  #06 //013   ----------------------------------------
 BYTE   PATT
  POIN2 Label_E57E22
//  #06 //014   ----------------------------------------
 BYTE   N12  Cn1  v127
 BYTE   N12  Gs1
 BYTE   W24
 BYTE   Dn1
 BYTE   W12
 BYTE   N12
 BYTE   W12
 BYTE   N12
 BYTE   N12  Cn2
 BYTE   W12
 BYTE   N18  Dn1
 BYTE   N18  Bn1
 BYTE   W24
 BYTE   N12  Dn1
 BYTE   W12
//  #06 //015   ----------------------------------------
 BYTE   N24  Cn1
 BYTE   N24  Bn1
 BYTE   N24  Cs2
 BYTE   W24
 BYTE   N36  An1
 BYTE   W36
 BYTE   N12  Gn1
 BYTE   W12
 BYTE   N24  Cn1
 BYTE   N24  Fn1
 BYTE   W24
//  #06 //016   ----------------------------------------
 BYTE   N12  Cn1
 BYTE   N12  Cs2
 BYTE   W24
 BYTE   Dn1
 BYTE   N12  As1
 BYTE   W24
 BYTE   Cn1
 BYTE   W12
 BYTE   N12
 BYTE   W12
 BYTE   Dn1
 BYTE   N12  As1
 BYTE   W12
 BYTE   Cn1
 BYTE   W12
//  #06 //017   ----------------------------------------
Label_E57E72:
 BYTE   N12  Cn1  v127
 BYTE   N12  Ds2
 BYTE   W12
 BYTE   Cn1
 BYTE   W12
 BYTE   Dn1
 BYTE   N12  Gn2
 BYTE   W12
 BYTE   Cn1
 BYTE   W12
 BYTE   N12
 BYTE   N12  Gn2
 BYTE   W12
 BYTE   Cn1
 BYTE   W12
 BYTE   Dn1
 BYTE   N12  Gn2
 BYTE   W24
 BYTE   PEND 
//  #06 //018   ----------------------------------------
Label_E57E8B:
 BYTE   N12  Cn1  v127
 BYTE   N12  Gs1
 BYTE   W24
 BYTE   Dn1
 BYTE   N12  As1
 BYTE   W24
 BYTE   Cn1
 BYTE   W12
 BYTE   N12
 BYTE   W12
 BYTE   Dn1
 BYTE   N12  As1
 BYTE   W12
 BYTE   Cn1
 BYTE   W12
 BYTE   PEND 
//  #06 //019   ----------------------------------------
Label_E57EA0:
 BYTE   N12  Cn1  v127
 BYTE   N12  Gn2
 BYTE   W12
 BYTE   Cn1
 BYTE   W12
 BYTE   Dn1
 BYTE   N12  Ds2
 BYTE   W24
 BYTE   Cn1
 BYTE   N12  Gn2
 BYTE   W12
 BYTE   Cn1
 BYTE   W12
 BYTE   Dn1
 BYTE   N12  Ds2
 BYTE   W24
 BYTE   PEND 
//  #06 //020   ----------------------------------------
Label_E57EB7:
 BYTE   N12  Cn1  v127
 BYTE   N12  Cs2
 BYTE   W24
 BYTE   Dn1
 BYTE   N12  As1
 BYTE   W24
 BYTE   Cn1
 BYTE   W12
 BYTE   N12
 BYTE   W12
 BYTE   Dn1
 BYTE   N12  As1
 BYTE   W24
 BYTE   PEND 
//  #06 //021   ----------------------------------------
 BYTE   PATT
  POIN2 Label_E57E72
//  #06 //022   ----------------------------------------
 BYTE   N12  Cn1  v127
 BYTE   N12  Gs1
 BYTE   W24
 BYTE   Dn1
 BYTE   N12  As1
 BYTE   W24
 BYTE   Cn1
 BYTE   W12
 BYTE   N12
 BYTE   W12
 BYTE   Dn1
 BYTE   N12  As1
 BYTE   N12  Gn2
 BYTE   W24
//  #06 //023   ----------------------------------------
 BYTE   N24  Cn1
 BYTE   N12  Gs1
 BYTE   N12  Ds2
 BYTE   W24
 BYTE   N06  Dn1
 BYTE   W06
 BYTE   N06
 BYTE   W06
 BYTE   N12
 BYTE   W12
 BYTE   N12
 BYTE   W12
 BYTE   N12
 BYTE   W12
 BYTE   N12
 BYTE   W12
 BYTE   N12
 BYTE   N24  Gs1
 BYTE   N24  An2
 BYTE   W12
//  #06 //024   ----------------------------------------
Label_E57EFD:
 BYTE   N12  Cn1  v127
 BYTE   W24
 BYTE   Dn1
 BYTE   N12  Gn2
 BYTE   W12
 BYTE   N24  Cn1
 BYTE   W12
 BYTE   N12  Gn2
 BYTE   W12
 BYTE   Cn1
 BYTE   W12
 BYTE   N24  Dn1
 BYTE   N12  Gn2
 BYTE   W24
 BYTE   PEND 
//  #06 //025   ----------------------------------------
 BYTE   N24  Cn1
 BYTE   N12  Gn2
 BYTE   W24
 BYTE   Dn1
 BYTE   N12  Gn2
 BYTE   W12
 BYTE   N24  Cn1
 BYTE   W12
 BYTE   N12  Gn2
 BYTE   W12
 BYTE   Cn1
 BYTE   W12
 BYTE   N24  Dn1
 BYTE   N12  Gn2
 BYTE   W24
//  #06 //026   ----------------------------------------
Label_E57F29:
 BYTE   N24  Cn1  v127
 BYTE   W24
 BYTE   N12  Dn1
 BYTE   N12  Gn2
 BYTE   W12
 BYTE   N24  Cn1
 BYTE   W12
 BYTE   N12  Gn2
 BYTE   W12
 BYTE   Cn1
 BYTE   W12
 BYTE   N24  Dn1
 BYTE   N12  Gn2
 BYTE   W24
 BYTE   PEND 
//  #06 //027   ----------------------------------------
 BYTE   Cn1
 BYTE   N12  Gn2
 BYTE   W12
 BYTE   Cn1
 BYTE   W12
 BYTE   Dn1
 BYTE   N12  Gn2
 BYTE   W12
 BYTE   N24  Cn1
 BYTE   W12
 BYTE   N12  Gn2
 BYTE   W12
 BYTE   Cn1
 BYTE   W12
 BYTE   N24  Dn1
 BYTE   N12  Gn2
 BYTE   W24
//  #06 //028   ----------------------------------------
 BYTE   PATT
  POIN2 Label_E57F29
//  #06 //029   ----------------------------------------
 BYTE   N12  Cn1  v127
 BYTE   W12
 BYTE   N12
 BYTE   W12
 BYTE   Dn1
 BYTE   N12  Gn2
 BYTE   W12
 BYTE   N24  Cn1
 BYTE   W12
 BYTE   N12  Gn2
 BYTE   W12
 BYTE   Cn1
 BYTE   W12
 BYTE   N24  Dn1
 BYTE   N12  Gn2
 BYTE   W24
//  #06 //030   ----------------------------------------
 BYTE   Cn1
 BYTE   N12  Gn2
 BYTE   W24
 BYTE   Dn1
 BYTE   N12  Gn2
 BYTE   W12
 BYTE   Cn1
 BYTE   W12
 BYTE   Gn2
 BYTE   W24
 BYTE   Dn1
 BYTE   N12  Gn2
 BYTE   W24
//  #06 //031   ----------------------------------------
 BYTE   Cn1
 BYTE   N12  Gn2
 BYTE   W12
 BYTE   Cn1
 BYTE   W12
 BYTE   Dn1
 BYTE   N12  Gn2
 BYTE   W24
 BYTE   N24  Cn1
 BYTE   N12  Gn2
 BYTE   W24
 BYTE   N06  Dn1
 BYTE   N12  Gn2
 BYTE   W06
 BYTE   N06  Dn1
 BYTE   W06
 BYTE   N12
 BYTE   W12
//  #06 //032   ----------------------------------------
Label_E57F9C:
 BYTE   N12  Cn1  v127
 BYTE   N24  Cs2
 BYTE   W24
 BYTE   N12  Dn1
 BYTE   W12
 BYTE   N24  Cn1
 BYTE   N24  An2
 BYTE   W24
 BYTE   N12  Cn1
 BYTE   W12
 BYTE   N24  Dn1
 BYTE   W24
 BYTE   PEND 
//  #06 //033   ----------------------------------------
 BYTE   PATT
  POIN2 Label_E57EFD
//  #06 //034   ----------------------------------------
 BYTE   N12  Cn1  v127
 BYTE   W24
 BYTE   Dn1
 BYTE   N12  Gn2
 BYTE   W12
 BYTE   N24  Cn1
 BYTE   W12
 BYTE   N12  Gn2
 BYTE   W12
 BYTE   Cn1
 BYTE   W12
 BYTE   N06  Dn1
 BYTE   N12  Gn2
 BYTE   W06
 BYTE   N06  Dn1
 BYTE   W18
//  #06 //035   ----------------------------------------
 BYTE   PATT
  POIN2 Label_E57F9C
//  #06 //036   ----------------------------------------
 BYTE   N12  Cn1  v127
 BYTE   N12  Gs1
 BYTE   W12
 BYTE   Cn1
 BYTE   W12
 BYTE   Dn1
 BYTE   N12  Gn2
 BYTE   W12
 BYTE   Cn1
 BYTE   W12
 BYTE   N12
 BYTE   N12  Gn2
 BYTE   W12
 BYTE   Cn1
 BYTE   W12
 BYTE   N24  Dn1
 BYTE   N12  Gn2
 BYTE   W24
//  #06 //037   ----------------------------------------
 BYTE   Cn1
 BYTE   N12  Gs1
 BYTE   W24
 BYTE   Dn1
 BYTE   N12  Gn2
 BYTE   W12
 BYTE   Cn1
 BYTE   W12
 BYTE   N12
 BYTE   N12  Gn2
 BYTE   W12
 BYTE   Cn1
 BYTE   W12
 BYTE   N24  Dn1
 BYTE   N12  Gn2
 BYTE   W24
//  #06 //038   ----------------------------------------
 BYTE   Cn1
 BYTE   N12  Gs1
 BYTE   W24
 BYTE   Dn1
 BYTE   N12  Gn2
 BYTE   W12
 BYTE   Cn1
 BYTE   W12
 BYTE   Gn2
 BYTE   W12
 BYTE   Cn1
 BYTE   W12
 BYTE   N24  Dn1
 BYTE   N24  Fs1
 BYTE   N24  Ds2
 BYTE   W24
//  #06 //039   ----------------------------------------
 BYTE   N12  Cn1
 BYTE   W24
 BYTE   N06  Dn1
 BYTE   W06
 BYTE   N06
 BYTE   W06
 BYTE   N12
 BYTE   W12
 BYTE   N12
 BYTE   W12
 BYTE   N12
 BYTE   W12
 BYTE   N12
 BYTE   W12
 BYTE   N12
 BYTE   N24  Gn2
 BYTE   N24  An2
 BYTE   W12
//  #06 //040   ----------------------------------------
 BYTE   N12  Cn1
 BYTE   W24
 BYTE   Dn1
 BYTE   N12  Gn2
 BYTE   W12
 BYTE   Cn1
 BYTE   W12
 BYTE   N12
 BYTE   N12  Gn2
 BYTE   W12
 BYTE   Cn1
 BYTE   W12
 BYTE   N24  Dn1
 BYTE   N12  Gn2
 BYTE   W24
//  #06 //041   ----------------------------------------
Label_E58040:
 BYTE   N12  Cn1  v127
 BYTE   N12  Gn2
 BYTE   W12
 BYTE   Cn1
 BYTE   W12
 BYTE   Dn1
 BYTE   N12  Gn2
 BYTE   W12
 BYTE   Cn1
 BYTE   W12
 BYTE   Gn2
 BYTE   W12
 BYTE   Cn1
 BYTE   W12
 BYTE   N24  Dn1
 BYTE   N12  Gn2
 BYTE   W24
 BYTE   PEND 
//  #06 //042   ----------------------------------------
Label_E58058:
 BYTE   N12  Cn1  v127
 BYTE   N12  Gn2
 BYTE   W24
 BYTE   Dn1
 BYTE   N12  Gn2
 BYTE   W24
 BYTE   N12
 BYTE   W12
 BYTE   Cn1
 BYTE   W12
 BYTE   N12
 BYTE   N24  Dn1
 BYTE   N12  Gn2
 BYTE   W24
 BYTE   PEND 
//  #06 //043   ----------------------------------------
 BYTE   PATT
  POIN2 Label_E58040
//  #06 //044   ----------------------------------------
 BYTE   N12  Cn1  v127
 BYTE   N12  Cs2
 BYTE   W24
 BYTE   Dn1
 BYTE   N12  Gn2
 BYTE   W12
 BYTE   Cn1
 BYTE   W12
 BYTE   Gn2
 BYTE   W12
 BYTE   Cn1
 BYTE   W12
 BYTE   N24  Dn1
 BYTE   N12  Gn2
 BYTE   W24
//  #06 //045   ----------------------------------------
Label_E58087:
 BYTE   N12  Cn1  v127
 BYTE   N12  Gn2
 BYTE   W24
 BYTE   Dn1
 BYTE   N12  Gn2
 BYTE   W12
 BYTE   Cn1
 BYTE   W12
 BYTE   Gn2
 BYTE   W12
 BYTE   Cn1
 BYTE   W12
 BYTE   N24  Dn1
 BYTE   N12  Gn2
 BYTE   W24
 BYTE   PEND 
//  #06 //046   ----------------------------------------
 BYTE   PATT
  POIN2 Label_E58058
//  #06 //047   ----------------------------------------
 BYTE   N12  Cn1  v127
 BYTE   N24  Fs1
 BYTE   N24  Ds2
 BYTE   N24  Gn2
 BYTE   W12
 BYTE   N12  Cn1
 BYTE   W12
 BYTE   Dn1
 BYTE   W12
 BYTE   Cn1
 BYTE   W24
 BYTE   N12
 BYTE   W12
 BYTE   N24  Dn1
 BYTE   W24
//  #06 //048   ----------------------------------------
 BYTE   N12  Cn1
 BYTE   N24  Cs2
 BYTE   W24
 BYTE   N12  Dn1
 BYTE   N12  Gn2
 BYTE   W24
 BYTE   Cn1
 BYTE   N12  Gn2
 BYTE   W12
 BYTE   Cn1
 BYTE   W12
 BYTE   N12
 BYTE   N24  Dn1
 BYTE   N12  Gn2
 BYTE   W24
//  #06 //049   ----------------------------------------
 BYTE   PATT
  POIN2 Label_E58087
//  #06 //050   ----------------------------------------
 BYTE   PATT
  POIN2 Label_E58087
//  #06 //051   ----------------------------------------
 BYTE   PATT
  POIN2 Label_E58087
//  #06 //052   ----------------------------------------
 BYTE   N12  Cn1  v127
 BYTE   N12  Cs2
 BYTE   W24
 BYTE   Dn1
 BYTE   N12  Gn2
 BYTE   W24
 BYTE   N12
 BYTE   W12
 BYTE   Cn1
 BYTE   W12
 BYTE   N12
 BYTE   N24  Dn1
 BYTE   N12  Gn2
 BYTE   W24
//  #06 //053   ----------------------------------------
 BYTE   Cn1
 BYTE   N12  An2
 BYTE   W24
 BYTE   Dn1
 BYTE   N12  Gn2
 BYTE   W24
 BYTE   N12
 BYTE   W12
 BYTE   Cn1
 BYTE   W12
 BYTE   N12
 BYTE   N24  Dn1
 BYTE   N12  Gn2
 BYTE   W24
//  #06 //054   ----------------------------------------
 BYTE   Cn1
 BYTE   N12  Cs2
 BYTE   W24
 BYTE   Dn1
 BYTE   N12  Gn2
 BYTE   W36
 BYTE   Cn1
 BYTE   W12
 BYTE   N12
 BYTE   N24  Dn1
 BYTE   N12  Gn2
 BYTE   W24
//  #06 //055   ----------------------------------------
 BYTE   N06  Dn1
 BYTE   N12  Cs2
 BYTE   W06
 BYTE   N06  Dn1
 BYTE   W06
 BYTE   N24  Cn1
 BYTE   N12  Gn2
 BYTE   W24
 BYTE   N24  Cn1
 BYTE   N24  An2
 BYTE   W24
 BYTE   Cn1
 BYTE   N24  An2
 BYTE   W36
//  #06 //056   ----------------------------------------
 BYTE   N12  Cn1
 BYTE   N24  An2
 BYTE   W24
 BYTE   N12  Dn1
 BYTE   N12  Gn2
 BYTE   W24
 BYTE   Cn1
 BYTE   W12
 BYTE   N12
 BYTE   W12
 BYTE   N24  Dn1
 BYTE   N12  Gn2
 BYTE   W24
//  #06 //057   ----------------------------------------
 BYTE   Cn1
 BYTE   W24
 BYTE   Dn1
 BYTE   N12  Gn2
 BYTE   W12
 BYTE   Cn1
 BYTE   W12
 BYTE   N12
 BYTE   W12
 BYTE   N12
 BYTE   W12
 BYTE   N24  Dn1
 BYTE   N12  Gn2
 BYTE   W24
//  #06 //058   ----------------------------------------
 BYTE   Cn1
 BYTE   N12  Gn2
 BYTE   W24
 BYTE   Dn1
 BYTE   N12  Gn2
 BYTE   W24
 BYTE   Cn1
 BYTE   N12  Gn2
 BYTE   W12
 BYTE   Cn1
 BYTE   W12
 BYTE   N24  Dn1
 BYTE   N12  Gn2
 BYTE   W24
//  #06 //059   ----------------------------------------
Label_E58160:
 BYTE   N12  Cn1  v127
 BYTE   W12
 BYTE   N12
 BYTE   W12
 BYTE   Dn1
 BYTE   N12  Gn2
 BYTE   W12
 BYTE   Cn1
 BYTE   W12
 BYTE   N12
 BYTE   W12
 BYTE   N12
 BYTE   W12
 BYTE   N24  Dn1
 BYTE   N12  Gn2
 BYTE   W24
 BYTE   PEND 
//  #06 //060   ----------------------------------------
 BYTE   Cn1
 BYTE   N24  Cs2
 BYTE   W24
 BYTE   N12  Dn1
 BYTE   N12  Gn2
 BYTE   W24
 BYTE   Cn1
 BYTE   W12
 BYTE   N12
 BYTE   W12
 BYTE   N24  Dn1
 BYTE   N12  Gn2
 BYTE   W24
//  #06 //061   ----------------------------------------
 BYTE   PATT
  POIN2 Label_E58160
//  #06 //062   ----------------------------------------
 BYTE   N12  Cn1  v127
 BYTE   W24
 BYTE   Dn1
 BYTE   N12  Gn2
 BYTE   W24
 BYTE   Cn1
 BYTE   W24
 BYTE   Dn1
 BYTE   N12  Gs1
 BYTE   N12  Gn2
 BYTE   W12
 BYTE   Dn1
 BYTE   W12
//  #06 //063   ----------------------------------------
 BYTE   N24  Cn1
 BYTE   N24  Cs2
 BYTE   W24
 BYTE   N12  Dn1
 BYTE   W12
 BYTE   N24  Cn1
 BYTE   N24  An2
 BYTE   W36
 BYTE   Dn1
 BYTE   N12  Fs1
 BYTE   W24
//  #06 //064   ----------------------------------------
 BYTE   Cn1
 BYTE   W24
 BYTE   Dn1
 BYTE   N12  Gn2
 BYTE   W24
 BYTE   Cn1
 BYTE   W12
 BYTE   N12
 BYTE   W12
 BYTE   N24  Dn1
 BYTE   N12  Gn2
 BYTE   W24
//  #06 //065   ----------------------------------------
 BYTE   Cn1
 BYTE   N12  Gn2
 BYTE   W24
 BYTE   Dn1
 BYTE   N12  Gn2
 BYTE   W12
 BYTE   Cn1
 BYTE   W12
 BYTE   N12
 BYTE   N12  Gn2
 BYTE   W12
 BYTE   Cn1
 BYTE   W12
 BYTE   N24  Dn1
 BYTE   N12  Gn2
 BYTE   W24
//  #06 //066   ----------------------------------------
 BYTE   Cn1
 BYTE   N12  Gn2
 BYTE   W24
 BYTE   Dn1
 BYTE   N12  Gn2
 BYTE   W24
 BYTE   Cn1
 BYTE   W12
 BYTE   N12
 BYTE   W12
 BYTE   N24  Dn1
 BYTE   N12  Gn2
 BYTE   W24
//  #06 //067   ----------------------------------------
 BYTE   Cn1
 BYTE   N12  Gn2
 BYTE   W12
 BYTE   Cn1
 BYTE   W12
 BYTE   Dn1
 BYTE   N12  Gn2
 BYTE   W12
 BYTE   Cn1
 BYTE   W12
 BYTE   N12
 BYTE   N12  Gn2
 BYTE   W12
 BYTE   Cn1
 BYTE   W12
 BYTE   N24  Dn1
 BYTE   N12  Gn2
 BYTE   W24
//  #06 //068   ----------------------------------------
 BYTE   Cn1
 BYTE   N12  An2
 BYTE   W24
 BYTE   Dn1
 BYTE   N12  Gn2
 BYTE   W12
 BYTE   Cn1
 BYTE   W12
 BYTE   N12
 BYTE   N12  Gn2
 BYTE   W12
 BYTE   Cn1
 BYTE   W12
 BYTE   N24  Dn1
 BYTE   N12  Gn2
 BYTE   W24
//  #06 //069   ----------------------------------------
 BYTE   Cn1
 BYTE   W24
 BYTE   Dn1
 BYTE   N12  Gn2
 BYTE   W12
 BYTE   Cn1
 BYTE   W24
 BYTE   N12
 BYTE   W12
 BYTE   N24  Dn1
 BYTE   N12  Gn2
 BYTE   W24
//  #06 //070   ----------------------------------------
 BYTE   Cn1
 BYTE   W24
 BYTE   Dn1
 BYTE   N12  As1
 BYTE   N12  Gn2
 BYTE   W12
 BYTE   Cn1
 BYTE   W12
 BYTE   N12
 BYTE   W12
 BYTE   N12
 BYTE   W12
 BYTE   N24  Dn1
 BYTE   N12  As1
 BYTE   N12  Gn2
 BYTE   W24
//  #06 //071   ----------------------------------------
 BYTE   N09  An1
 BYTE   W09
 BYTE   N06
 BYTE   W06
 BYTE   N09
 BYTE   W09
 BYTE   N09
 BYTE   W09
 BYTE   N06
 BYTE   W06
 BYTE   N09
 BYTE   W09
 BYTE   N06  Fn1
 BYTE   W06
 BYTE   N09
 BYTE   W09
 BYTE   N06
 BYTE   W06
 BYTE   N09
 BYTE   W09
 BYTE   N06
 BYTE   W06
 BYTE   N12
 BYTE   W12
//  #06 //072   ----------------------------------------
 BYTE   N96  Cn1
 BYTE   N96  An2
 BYTE   W48
 BYTE   N12  Fs1
 BYTE   W48
//  #06 //073   ----------------------------------------
Label_E58257:
 BYTE   N12  Gs1  v127
 BYTE   W48
 BYTE   N12
 BYTE   W48
 BYTE   PEND 
//  #06 //074   ----------------------------------------
 BYTE   PATT
  POIN2 Label_E58257
//  #06 //075   ----------------------------------------
 BYTE   N12  Gs1  v127
 BYTE   W48
 BYTE   N48  Fn1
 BYTE   N12  Gs1
 BYTE   W48
//  #06 //076   ----------------------------------------
Label_E5826C:
 BYTE   N12  Cn1  v127
 BYTE   N24  Cs2
 BYTE   W48
 BYTE   Cn1
 BYTE   N24  An2
 BYTE   W48
 BYTE   PEND 
//  #06 //077   ----------------------------------------
 BYTE   PATT
  POIN2 Label_E5826C
//  #06 //078   ----------------------------------------
 BYTE   N06  Cs1  v127
 BYTE   N12  Gn2
 BYTE   W06
 BYTE   N06  Cs1
 BYTE   W18
 BYTE   N12
 BYTE   N12  Dn2
 BYTE   W24
 BYTE   Cs1
 BYTE   N12  Cn2
 BYTE   W12
 BYTE   N24  Cs1
 BYTE   N24  Bn1
 BYTE   W24
 BYTE   N12  Cn2
 BYTE   W12
//  #06 //079   ----------------------------------------
 BYTE   N24  Bn1
 BYTE   W24
 BYTE   An1
 BYTE   W24
 BYTE   Cn1
 BYTE   N12  Cn2
 BYTE   W12
 BYTE   N12
 BYTE   W12
 BYTE   N06  Dn1
 BYTE   W06
 BYTE   N06
 BYTE   W06
 BYTE   N12
 BYTE   W12
//  #06 //080   ----------------------------------------
 BYTE   Cn1
 BYTE   N12  An2
 BYTE   W24
 BYTE   Dn1
 BYTE   N12  As1
 BYTE   W24
 BYTE   Cn1
 BYTE   W12
 BYTE   N12
 BYTE   W12
 BYTE   Dn1
 BYTE   N12  As1
 BYTE   W24
//  #06 //081   ----------------------------------------
 BYTE   PATT
  POIN2 Label_E57E72
//  #06 //082   ----------------------------------------
 BYTE   PATT
  POIN2 Label_E57E8B
//  #06 //083   ----------------------------------------
 BYTE   PATT
  POIN2 Label_E57EA0
//  #06 //084   ----------------------------------------
 BYTE   PATT
  POIN2 Label_E57EB7
//  #06 //085   ----------------------------------------
 BYTE   PATT
  POIN2 Label_E57E72
//  #06 //086   ----------------------------------------
 BYTE   N12  Cn1  v127
 BYTE   N12  Gs1
 BYTE   W24
 BYTE   Dn1
 BYTE   N12  As1
 BYTE   W12
 BYTE   Cn1
 BYTE   W12
 BYTE   N12
 BYTE   W12
 BYTE   N12
 BYTE   W12
 BYTE   Dn1
 BYTE   N12  As1
 BYTE   N12  Gn2
 BYTE   W24
//  #06 //087   ----------------------------------------
 BYTE   Cn1
 BYTE   N12  Gn2
 BYTE   W12
 BYTE   Cn1
 BYTE   W12
 BYTE   Dn1
 BYTE   W12
 BYTE   Cn1
 BYTE   W12
 BYTE   N12
 BYTE   W12
 BYTE   N12
 BYTE   W12
 BYTE   Dn1
 BYTE   N12  Ds2
 BYTE   W24
//  #06 //088   ----------------------------------------
Label_E582F8:
 BYTE   N12  Cn1  v127
 BYTE   W12
 BYTE   N12
 BYTE   W12
 BYTE   Dn1
 BYTE   N12  Gn2
 BYTE   W12
 BYTE   Cn1
 BYTE   W12
 BYTE   N12
 BYTE   N12  Gn2
 BYTE   W12
 BYTE   Cn1
 BYTE   W12
 BYTE   Dn1
 BYTE   N12  Gn2
 BYTE   W12
 BYTE   Cn1
 BYTE   W12
 BYTE   PEND 
//  #06 //089   ----------------------------------------
 BYTE   N12
 BYTE   W12
 BYTE   N12
 BYTE   W12
 BYTE   Dn1
 BYTE   N12  Gn2
 BYTE   W12
 BYTE   Cn1
 BYTE   W12
 BYTE   N12
 BYTE   W12
 BYTE   N12
 BYTE   W12
 BYTE   Dn1
 BYTE   N12  Gn2
 BYTE   W12
 BYTE   Cn1
 BYTE   W12
//  #06 //090   ----------------------------------------
 BYTE   PATT
  POIN2 Label_E582F8
//  #06 //091   ----------------------------------------
 BYTE   N12  Cn1  v127
 BYTE   N12  Ds2
 BYTE   W12
 BYTE   Cn1
 BYTE   W12
 BYTE   Dn1
 BYTE   N12  Gn2
 BYTE   W12
 BYTE   Cn1
 BYTE   W12
 BYTE   N12
 BYTE   W12
 BYTE   N12
 BYTE   W12
 BYTE   Dn1
 BYTE   N12  Gn2
 BYTE   W12
 BYTE   Cn1
 BYTE   W12
//  #06 //092   ----------------------------------------
 BYTE   PATT
  POIN2 Label_E582F8
//  #06 //093   ----------------------------------------
 BYTE   N12  Cn1  v127
 BYTE   W12
 BYTE   N12
 BYTE   W12
 BYTE   Dn1
 BYTE   N12  Gn2
 BYTE   W12
 BYTE   Cn1
 BYTE   W12
 BYTE   N12
 BYTE   N12  Gn2
 BYTE   W12
 BYTE   Cn1
 BYTE   W12
 BYTE   Dn1
 BYTE   N12  Gn2
 BYTE   W24
//  #06 //094   ----------------------------------------
 BYTE   N96  An2
 BYTE   W12
 BYTE   N06  Dn1
 BYTE   W06
 BYTE   N06
 BYTE   W06
 BYTE   N12
 BYTE   W12
 BYTE   N12
 BYTE   N12  An1
 BYTE   W12
 BYTE   Dn1
 BYTE   W12
 BYTE   N12
 BYTE   W12
 BYTE   N12
 BYTE   N12  An1
 BYTE   W12
 BYTE   Dn1
 BYTE   W12
//  #06 //095   ----------------------------------------
 BYTE   N12
 BYTE   W12
 BYTE   N12
 BYTE   N12  An1
 BYTE   W12
 BYTE   Dn1
 BYTE   W12
 BYTE   N12
 BYTE   W12
 BYTE   N12
 BYTE   N12  An1
 BYTE   W12
 BYTE   Dn1
 BYTE   W12
 BYTE   N12
 BYTE   W12
 BYTE   N12
 BYTE   W12
//  #06 //096   ----------------------------------------
 BYTE   Cn1
 BYTE   N12  Cs2
 BYTE   W24
 BYTE   Dn1
 BYTE   N12  Gn2
 BYTE   W24
 BYTE   Cn1
 BYTE   N12  Gn2
 BYTE   W12
 BYTE   Cn1
 BYTE   W12
 BYTE   Dn1
 BYTE   N12  Gn2
 BYTE   W24
//  #06 //097   ----------------------------------------
 BYTE   Cn1
 BYTE   N12  Gn2
 BYTE   W12
 BYTE   Cn1
 BYTE   W12
 BYTE   Dn1
 BYTE   N12  Gn2
 BYTE   W12
 BYTE   Cn1
 BYTE   W12
 BYTE   N12
 BYTE   N12  Gn2
 BYTE   W12
 BYTE   Cn1
 BYTE   W12
 BYTE   Dn1
 BYTE   N12  Gn2
 BYTE   W24
//  #06 //098   ----------------------------------------
 BYTE   GoTo
  POIN2 Label_E57F29
//  #06 //099   ----------------------------------------
 BYTE   PAN   c_v-6
 BYTE   PAN   c_v-6
 BYTE   BEND   c_v+0
 BYTE   W96
//  #06 //100   ----------------------------------------
 BYTE   W96
//  #06 //101   ----------------------------------------
 BYTE   W96
//  #06 //102   ----------------------------------------
 BYTE   W96
//  #06 //103   ----------------------------------------
 BYTE   W96
//  #06 //104   ----------------------------------------
 BYTE   W18
 BYTE   FINE

//**************** Track 7 (Midi-Chn.6) ****************//

HolyOrders_007:
//  #07 //000   ----------------------------------------
 BYTE   KEYSH   HolyOrders_key+0
 BYTE   VOICE   28
 BYTE   VOL   47*HolyOrders_mvl/mxv
 BYTE   W96
//  #07 //001   ----------------------------------------
 BYTE   W96
//  #07 //002   ----------------------------------------
 BYTE   W96
//  #07 //003   ----------------------------------------
 BYTE   W96
//  #07 //004   ----------------------------------------
 BYTE   W96
//  #07 //005   ----------------------------------------
 BYTE   W96
//  #07 //006   ----------------------------------------
 BYTE   W96
//  #07 //007   ----------------------------------------
 BYTE   W96
//  #07 //008   ----------------------------------------
 BYTE   N12  En0  v096
 BYTE   W12
 BYTE   N12
 BYTE   W12
 BYTE   N24
 BYTE   W72
//  #07 //009   ----------------------------------------
 BYTE   W96
//  #07 //010   ----------------------------------------
 BYTE   W96
//  #07 //011   ----------------------------------------
 BYTE   W96
//  #07 //012   ----------------------------------------
Label_E56741:
 BYTE   N48  Cn1  v096
 BYTE   W48
 BYTE   Bn0
 BYTE   W48
 BYTE   PEND 
//  #07 //013   ----------------------------------------
 BYTE   Gs0  v088
 BYTE   W48
 BYTE   An0  v096
 BYTE   W48
//  #07 //014   ----------------------------------------
 BYTE   N96  Gn0
 BYTE   W96
//  #07 //015   ----------------------------------------
 BYTE   W96
//  #07 //016   ----------------------------------------
Label_E56752:
 BYTE   N24  En0  v088
 BYTE   W24
 BYTE   N12  En0  v096
 BYTE   W12
 BYTE   N12
 BYTE   W12
 BYTE   N12
 BYTE   W12
 BYTE   N12
 BYTE   W12
 BYTE   N12
 BYTE   W12
 BYTE   N12
 BYTE   W12
 BYTE   PEND 
//  #07 //017   ----------------------------------------
Label_E56765:
 BYTE   N12  En0  v096
 BYTE   W12
 BYTE   N12
 BYTE   W12
 BYTE   N12
 BYTE   W12
 BYTE   N12
 BYTE   W12
 BYTE   N12
 BYTE   W12
 BYTE   N12
 BYTE   W12
 BYTE   N12
 BYTE   W12
 BYTE   N12
 BYTE   W12
 BYTE   PEND 
//  #07 //018   ----------------------------------------
 BYTE   PATT
  POIN2 Label_E56765
//  #07 //019   ----------------------------------------
 BYTE   PATT
  POIN2 Label_E56765
//  #07 //020   ----------------------------------------
Label_E56782:
 BYTE   N24  En0  v096
 BYTE   W24
 BYTE   N12
 BYTE   W12
 BYTE   N12
 BYTE   W12
 BYTE   N12
 BYTE   W12
 BYTE   N12
 BYTE   W12
 BYTE   N12
 BYTE   W12
 BYTE   N12
 BYTE   W12
 BYTE   PEND 
//  #07 //021   ----------------------------------------
 BYTE   PATT
  POIN2 Label_E56765
//  #07 //022   ----------------------------------------
 BYTE   PATT
  POIN2 Label_E56765
//  #07 //023   ----------------------------------------
Label_E5679D:
 BYTE   N24  En0  v096
 BYTE   W24
 BYTE   N12  En1
 BYTE   W12
 BYTE   N12
 BYTE   W12
 BYTE   N12
 BYTE   W12
 BYTE   N12
 BYTE   W12
 BYTE   N12
 BYTE   W12
 BYTE   N12
 BYTE   W12
 BYTE   PEND 
//  #07 //024   ----------------------------------------
 BYTE   PATT
  POIN2 Label_E5679D
//  #07 //025   ----------------------------------------
Label_E567B4:
 BYTE   N12  En1  v096
 BYTE   W12
 BYTE   N12
 BYTE   W12
 BYTE   N12
 BYTE   W12
 BYTE   N12
 BYTE   W12
 BYTE   N12
 BYTE   W12
 BYTE   N12
 BYTE   W12
 BYTE   N12
 BYTE   W12
 BYTE   N12
 BYTE   W12
 BYTE   PEND 
//  #07 //026   ----------------------------------------
Label_E567C7:
 BYTE   N24  Ds1  v096
 BYTE   W24
 BYTE   N12
 BYTE   W12
 BYTE   N12
 BYTE   W12
 BYTE   N12
 BYTE   W12
 BYTE   N12
 BYTE   W12
 BYTE   N12
 BYTE   W12
 BYTE   N24
 BYTE   W12
//  #07 //027   ----------------------------------------
 BYTE   W12
 BYTE   N12  Cn1
 BYTE   W12
 BYTE   Ds1
 BYTE   W12
 BYTE   Cn1
 BYTE   W12
 BYTE   Bn0
 BYTE   W12
 BYTE   An0
 BYTE   W12
 BYTE   Gn0
 BYTE   W12
 BYTE   Fs0
 BYTE   W12
//  #07 //028   ----------------------------------------
Label_E567E7:
 BYTE   N24  Cn1  v096
 BYTE   W24
 BYTE   N12
 BYTE   W12
 BYTE   N12
 BYTE   W12
 BYTE   N12
 BYTE   W12
 BYTE   N12
 BYTE   W12
 BYTE   N12
 BYTE   W12
 BYTE   N12
 BYTE   W12
 BYTE   PEND 
//  #07 //029   ----------------------------------------
 BYTE   N24  Bn0
 BYTE   W24
 BYTE   N12
 BYTE   W12
 BYTE   N12
 BYTE   W12
 BYTE   N12
 BYTE   W12
 BYTE   N12
 BYTE   W12
 BYTE   N12
 BYTE   W12
 BYTE   N12
 BYTE   W12
//  #07 //030   ----------------------------------------
 BYTE   N24  An0
 BYTE   W24
 BYTE   N12  En0
 BYTE   W12
 BYTE   N36  An0
 BYTE   W36
 BYTE   N24  Cn1
 BYTE   W24
//  #07 //031   ----------------------------------------
 BYTE   Bn0
 BYTE   W24
 BYTE   An0
 BYTE   W72
//  #07 //032   ----------------------------------------
 BYTE   En0  v088
 BYTE   W24
 BYTE   N01  En0  v096
 BYTE   W12
 BYTE   N24
 BYTE   W24
 BYTE   N12
 BYTE   W12
 BYTE   N24
 BYTE   W24
//  #07 //033   ----------------------------------------
 BYTE   Fs0
 BYTE   W24
 BYTE   N01  En0
 BYTE   W12
 BYTE   N36  Fs1
 BYTE   W36
 BYTE   N24  En0
 BYTE   W24
//  #07 //034   ----------------------------------------
 BYTE   Gn0
 BYTE   W36
 BYTE   N24
 BYTE   W24
 BYTE   N12  En0
 BYTE   W12
 BYTE   N24  Gn0
 BYTE   W24
//  #07 //035   ----------------------------------------
 BYTE   Gs0
 BYTE   W60
 BYTE   N12  Bn0  v064
 BYTE   W12
 BYTE   N24  Gs0  v088
 BYTE   W24
//  #07 //036   ----------------------------------------
 BYTE   An0  v096
 BYTE   W36
 BYTE   N36
 BYTE   W36
 BYTE   N24  En0
 BYTE   W24
//  #07 //037   ----------------------------------------
 BYTE   Bn0
 BYTE   W36
 BYTE   N24
 BYTE   W24
 BYTE   N12
 BYTE   W36
//  #07 //038   ----------------------------------------
 BYTE   N24  En0  v088
 BYTE   W36
 BYTE   N36  En0  v096
 BYTE   W36
 BYTE   N24  Gn0
 BYTE   W24
//  #07 //039   ----------------------------------------
 BYTE   N96  En0
 BYTE   W96
//  #07 //040   ----------------------------------------
Label_E5685F:
 BYTE   N24  Cn1  v096
 BYTE   W24
 BYTE   N12
 BYTE   W12
 BYTE   N12
 BYTE   W12
 BYTE   N12
 BYTE   W12
 BYTE   N12
 BYTE   W36
 BYTE   PEND 
//  #07 //041   ----------------------------------------
 BYTE   N24  Dn1  v088
 BYTE   W24
 BYTE   N12  Dn1  v096
 BYTE   W12
 BYTE   N24
 BYTE   W24
 BYTE   N12
 BYTE   W36
//  #07 //042   ----------------------------------------
 BYTE   N36  En0  v088
 BYTE   W36
 BYTE   En0  v096
 BYTE   W36
 BYTE   N24
 BYTE   W24
//  #07 //043   ----------------------------------------
Label_E56881:
 BYTE   N24  Gn0  v096
 BYTE   W24
 BYTE   N12  En0
 BYTE   W12
 BYTE   N24  An0
 BYTE   W24
 BYTE   N12  En0
 BYTE   W12
 BYTE   N24  Gn0
 BYTE   W24
 BYTE   PEND 
//  #07 //044   ----------------------------------------
Label_E56892:
 BYTE   N24  Fs0  v096
 BYTE   W24
 BYTE   N12
 BYTE   W12
 BYTE   N12
 BYTE   W12
 BYTE   N12
 BYTE   W12
 BYTE   N12
 BYTE   W12
 BYTE   N12
 BYTE   W12
 BYTE   N12
 BYTE   W12
 BYTE   PEND 
//  #07 //045   ----------------------------------------
Label_E568A3:
 BYTE   N24  Bn0  v096
 BYTE   W24
 BYTE   N12
 BYTE   W12
 BYTE   N12
 BYTE   W12
 BYTE   N12
 BYTE   W12
 BYTE   N12
 BYTE   W36
 BYTE   PEND 
//  #07 //046   ----------------------------------------
Label_E568B0:
 BYTE   N24  En1  v088
 BYTE   W24
 BYTE   N12  En1  v096
 BYTE   W12
 BYTE   N12
 BYTE   W12
 BYTE   N12
 BYTE   W12
 BYTE   N12
 BYTE   W12
 BYTE   N12
 BYTE   W12
 BYTE   N12
 BYTE   W12
 BYTE   PEND 
//  #07 //047   ----------------------------------------
 BYTE   W12
 BYTE   Dn1  v088
 BYTE   W12
 BYTE   Bn0  v096
 BYTE   W12
 BYTE   Dn1
 BYTE   W12
 BYTE   Bn0
 BYTE   W12
 BYTE   As0
 BYTE   W12
 BYTE   An0
 BYTE   W12
 BYTE   Gn0
 BYTE   W12
//  #07 //048   ----------------------------------------
 BYTE   PATT
  POIN2 Label_E5685F
//  #07 //049   ----------------------------------------
 BYTE   W24
 BYTE   N12  Dn1  v088
 BYTE   W12
 BYTE   Dn1  v096
 BYTE   W12
 BYTE   N12
 BYTE   W12
 BYTE   N12
 BYTE   W36
//  #07 //050   ----------------------------------------
 BYTE   N24  En0  v088
 BYTE   W24
 BYTE   N12  En0  v096
 BYTE   W12
 BYTE   N36
 BYTE   W36
 BYTE   N24
 BYTE   W24
//  #07 //051   ----------------------------------------
 BYTE   PATT
  POIN2 Label_E56881
//  #07 //052   ----------------------------------------
 BYTE   PATT
  POIN2 Label_E56892
//  #07 //053   ----------------------------------------
 BYTE   N24  Bn0  v096
 BYTE   W24
 BYTE   N12
 BYTE   W12
 BYTE   N12
 BYTE   W12
 BYTE   N12
 BYTE   W12
 BYTE   N12
 BYTE   W12
 BYTE   As0
 BYTE   W12
 BYTE   Bn0
 BYTE   W12
//  #07 //054   ----------------------------------------
 BYTE   N24  Ds1
 BYTE   W24
 BYTE   N12
 BYTE   W12
 BYTE   N12
 BYTE   W12
 BYTE   N12
 BYTE   W12
 BYTE   N12
 BYTE   W12
 BYTE   N12
 BYTE   W12
 BYTE   N12
 BYTE   W12
//  #07 //055   ----------------------------------------
 BYTE   Fs0
 BYTE   W12
 BYTE   N24  Gn0
 BYTE   W24
 BYTE   An0
 BYTE   W24
 BYTE   N36  Bn0
 BYTE   W36
//  #07 //056   ----------------------------------------
 BYTE   PATT
  POIN2 Label_E56782
//  #07 //057   ----------------------------------------
 BYTE   N24  An0  v096
 BYTE   W24
 BYTE   Bn0
 BYTE   W24
 BYTE   Cn1
 BYTE   W24
 BYTE   Cs1
 BYTE   W24
//  #07 //058   ----------------------------------------
 BYTE   Dn1
 BYTE   W24
 BYTE   N12
 BYTE   W12
 BYTE   N12
 BYTE   W12
 BYTE   N12
 BYTE   W12
 BYTE   N12
 BYTE   W12
 BYTE   Cs1
 BYTE   W12
 BYTE   Dn1
 BYTE   W12
//  #07 //059   ----------------------------------------
 BYTE   N24  Gn1
 BYTE   W24
 BYTE   Fs1
 BYTE   W24
 BYTE   Dn1
 BYTE   W24
 BYTE   Bn0
 BYTE   W24
//  #07 //060   ----------------------------------------
 BYTE   PATT
  POIN2 Label_E567E7
//  #07 //061   ----------------------------------------
Label_E5694F:
 BYTE   N24  Dn1  v096
 BYTE   W24
 BYTE   N12
 BYTE   W12
 BYTE   N12
 BYTE   W12
 BYTE   N12
 BYTE   W12
 BYTE   N12
 BYTE   W12
 BYTE   N12
 BYTE   W12
 BYTE   N12
 BYTE   W12
 BYTE   PEND 
//  #07 //062   ----------------------------------------
 BYTE   N24  Gn1
 BYTE   W24
 BYTE   N12
 BYTE   W12
 BYTE   N12
 BYTE   W12
 BYTE   N12
 BYTE   W12
 BYTE   N12
 BYTE   W12
 BYTE   N12
 BYTE   W12
 BYTE   N12
 BYTE   W12
//  #07 //063   ----------------------------------------
 BYTE   N24  Fs1
 BYTE   W24
 BYTE   N12
 BYTE   W12
 BYTE   N36  Bn0
 BYTE   W60
//  #07 //064   ----------------------------------------
 BYTE   PATT
  POIN2 Label_E56782
//  #07 //065   ----------------------------------------
 BYTE   N24  An0  v096
 BYTE   W24
 BYTE   N12  En0
 BYTE   W12
 BYTE   N12
 BYTE   W12
 BYTE   N24  Cn1
 BYTE   W24
 BYTE   Cs1
 BYTE   W24
//  #07 //066   ----------------------------------------
 BYTE   PATT
  POIN2 Label_E5694F
//  #07 //067   ----------------------------------------
 BYTE   N24  Gn0  v096
 BYTE   W24
 BYTE   N12
 BYTE   W12
 BYTE   N12
 BYTE   W12
 BYTE   N12
 BYTE   W12
 BYTE   N12
 BYTE   W12
 BYTE   N12
 BYTE   W12
 BYTE   N12
 BYTE   W12
//  #07 //068   ----------------------------------------
 BYTE   PATT
  POIN2 Label_E567E7
//  #07 //069   ----------------------------------------
 BYTE   PATT
  POIN2 Label_E568A3
//  #07 //070   ----------------------------------------
 BYTE   N24  En0  v088
 BYTE   W24
 BYTE   N12  En0  v096
 BYTE   W12
 BYTE   N60
 BYTE   W60
//  #07 //071   ----------------------------------------
 BYTE   W96
//  #07 //072   ----------------------------------------
 BYTE   TIE
 BYTE   W96
//  #07 //073   ----------------------------------------
 BYTE   W96
//  #07 //074   ----------------------------------------
 BYTE   W96
//  #07 //075   ----------------------------------------
 BYTE   W48
 BYTE   EOT
 BYTE   N48
 BYTE   W48
//  #07 //076   ----------------------------------------
 BYTE   PATT
  POIN2 Label_E56741
//  #07 //077   ----------------------------------------
 BYTE   N48  Gs0  v096
 BYTE   W48
 BYTE   An0
 BYTE   W48
//  #07 //078   ----------------------------------------
 BYTE   N96  Gn0
 BYTE   W96
//  #07 //079   ----------------------------------------
 BYTE   W96
//  #07 //080   ----------------------------------------
 BYTE   PATT
  POIN2 Label_E56752
//  #07 //081   ----------------------------------------
 BYTE   PATT
  POIN2 Label_E56765
//  #07 //082   ----------------------------------------
 BYTE   PATT
  POIN2 Label_E56765
//  #07 //083   ----------------------------------------
 BYTE   PATT
  POIN2 Label_E56765
//  #07 //084   ----------------------------------------
 BYTE   PATT
  POIN2 Label_E56765
//  #07 //085   ----------------------------------------
 BYTE   PATT
  POIN2 Label_E56765
//  #07 //086   ----------------------------------------
 BYTE   PATT
  POIN2 Label_E56765
//  #07 //087   ----------------------------------------
 BYTE   N12  En0  v096
 BYTE   W12
 BYTE   N12
 BYTE   W12
 BYTE   N12
 BYTE   W12
 BYTE   N12
 BYTE   W12
 BYTE   N12
 BYTE   W12
 BYTE   N12
 BYTE   W36
//  #07 //088   ----------------------------------------
 BYTE   PATT
  POIN2 Label_E568B0
//  #07 //089   ----------------------------------------
 BYTE   PATT
  POIN2 Label_E567B4
//  #07 //090   ----------------------------------------
 BYTE   PATT
  POIN2 Label_E567B4
//  #07 //091   ----------------------------------------
 BYTE   PATT
  POIN2 Label_E567B4
//  #07 //092   ----------------------------------------
 BYTE   PATT
  POIN2 Label_E567B4
//  #07 //093   ----------------------------------------
 BYTE   PATT
  POIN2 Label_E567B4
//  #07 //094   ----------------------------------------
 BYTE   N12  En1  v096
 BYTE   W12
 BYTE   N12
 BYTE   W12
 BYTE   N12
 BYTE   W12
 BYTE   N12
 BYTE   W12
 BYTE   N12
 BYTE   W12
 BYTE   N12
 BYTE   W12
 BYTE   N12
 BYTE   W12
 BYTE   N24
 BYTE   W12
//  #07 //095   ----------------------------------------
 BYTE   W12
 BYTE   N12
 BYTE   W12
 BYTE   Dn1
 BYTE   W12
 BYTE   Bn0
 BYTE   W12
 BYTE   As0
 BYTE   W12
 BYTE   An0
 BYTE   W12
 BYTE   N24  Gn0
 BYTE   W24
//  #07 //096   ----------------------------------------
 BYTE   PATT
  POIN2 Label_E5679D
//  #07 //097   ----------------------------------------
 BYTE   PATT
  POIN2 Label_E567B4
//  #07 //098   ----------------------------------------
 BYTE   GoTo
  POIN2 Label_E567C7
//  #07 //099   ----------------------------------------
 BYTE   PAN   c_v-6
 BYTE   BEND   c_v+0
 BYTE   W96
//  #07 //100   ----------------------------------------
 BYTE   W96
//  #07 //101   ----------------------------------------
 BYTE   W96
//  #07 //102   ----------------------------------------
 BYTE   W96
//  #07 //103   ----------------------------------------
 BYTE   W96
//  #07 //104   ----------------------------------------
 BYTE   W18
 BYTE   FINE

//**************** Track 8 (Midi-Chn.7) ****************//

HolyOrders_008:
//  #08 //000   ----------------------------------------
 BYTE   KEYSH   HolyOrders_key+0
 BYTE   VOICE   54
 BYTE   VOL   31*HolyOrders_mvl/mxv
 BYTE   BEND   c_v+0
 BYTE   N48  En3  v096
 BYTE   TIE  En4
 BYTE   TIE  Bn4
 BYTE   W48
 BYTE   N48  Bn2
 BYTE   W48
//  #08 //001   ----------------------------------------
 BYTE   Cn3
 BYTE   W48
 BYTE   Gn2
 BYTE   W48
//  #08 //002   ----------------------------------------
 BYTE   Fs2
 BYTE   W48
 BYTE   Ds2
 BYTE   W48
//  #08 //003   ----------------------------------------
 BYTE   N96  En2
 BYTE   W96
//  #08 //004   ----------------------------------------
 BYTE   N48
 BYTE   W48
 BYTE   Dn2
 BYTE   W48
//  #08 //005   ----------------------------------------
 BYTE   Cn2
 BYTE   W48
 BYTE   Gn1
 BYTE   W48
//  #08 //006   ----------------------------------------
 BYTE   N96  Fs1
 BYTE   W96
//  #08 //007   ----------------------------------------
 BYTE   Bn1
 BYTE   W96
//  #08 //008   ----------------------------------------
 BYTE   EOT
 BYTE   En4  v083
 BYTE   W96
//  #08 //009   ----------------------------------------
 BYTE   W96
//  #08 //010   ----------------------------------------
 BYTE   W96
//  #08 //011   ----------------------------------------
 BYTE   W96
//  #08 //012   ----------------------------------------
 BYTE   W96
//  #08 //013   ----------------------------------------
 BYTE   W96
//  #08 //014   ----------------------------------------
 BYTE   W96
//  #08 //015   ----------------------------------------
 BYTE   W96
//  #08 //016   ----------------------------------------
 BYTE   W96
//  #08 //017   ----------------------------------------
 BYTE   W96
//  #08 //018   ----------------------------------------
 BYTE   W96
//  #08 //019   ----------------------------------------
 BYTE   W96
//  #08 //020   ----------------------------------------
 BYTE   W96
//  #08 //021   ----------------------------------------
 BYTE   W96
//  #08 //022   ----------------------------------------
 BYTE   W96
//  #08 //023   ----------------------------------------
 BYTE   W96
//  #08 //024   ----------------------------------------
Label_56E9F6:
 BYTE   TIE  Bn2  v096
 BYTE   TIE  En3
 BYTE   W96
 BYTE   PEND 
//  #08 //025   ----------------------------------------
 BYTE   W96
//  #08 //026   ----------------------------------------
 BYTE   EOT
 BYTE   Bn2  v064
Label_56EA01:
 BYTE   TIE  Bn2  v096
 BYTE   TIE  Ds3
 BYTE   W96
//  #08 //027   ----------------------------------------
 BYTE   W96
//  #08 //028   ----------------------------------------
 BYTE   EOT
 BYTE   Bn2  v063
 BYTE   N96  Cn3
 BYTE   N96  En3
 BYTE   W96
//  #08 //029   ----------------------------------------
 BYTE   Bn2
 BYTE   N96  Ds3
 BYTE   W96
//  #08 //030   ----------------------------------------
 BYTE   En3
 BYTE   N96  An3
 BYTE   W96
//  #08 //031   ----------------------------------------
 BYTE   An2
 BYTE   N96  Ds3
 BYTE   W96
//  #08 //032   ----------------------------------------
 BYTE   Bn2
 BYTE   N96  En3
 BYTE   W96
//  #08 //033   ----------------------------------------
 BYTE   Bn2
 BYTE   N96  Fs3
 BYTE   W96
//  #08 //034   ----------------------------------------
 BYTE   Gn2
 BYTE   N96  Bn2
 BYTE   N96  Gn3
 BYTE   W96
//  #08 //035   ----------------------------------------
 BYTE   Gs2
 BYTE   N96  Bn2
 BYTE   N96  Gs3
 BYTE   W96
//  #08 //036   ----------------------------------------
 BYTE   Cn3
 BYTE   N96  An3
 BYTE   W96
//  #08 //037   ----------------------------------------
 BYTE   Bn2
 BYTE   N96  Ds3
 BYTE   W96
//  #08 //038   ----------------------------------------
 BYTE   PATT
  POIN2 Label_56E9F6
//  #08 //039   ----------------------------------------
 BYTE   W96
//  #08 //040   ----------------------------------------
 BYTE   EOT
 BYTE   Bn2  v064
 BYTE   W96
//  #08 //041   ----------------------------------------
 BYTE   W96
//  #08 //042   ----------------------------------------
 BYTE   W96
//  #08 //043   ----------------------------------------
 BYTE   W96
//  #08 //044   ----------------------------------------
 BYTE   W96
//  #08 //045   ----------------------------------------
 BYTE   W96
//  #08 //046   ----------------------------------------
 BYTE   W96
//  #08 //047   ----------------------------------------
 BYTE   W96
//  #08 //048   ----------------------------------------
 BYTE   W96
//  #08 //049   ----------------------------------------
 BYTE   W96
//  #08 //050   ----------------------------------------
 BYTE   W96
//  #08 //051   ----------------------------------------
 BYTE   W96
//  #08 //052   ----------------------------------------
 BYTE   W96
//  #08 //053   ----------------------------------------
 BYTE   W96
//  #08 //054   ----------------------------------------
 BYTE   W96
//  #08 //055   ----------------------------------------
 BYTE   W96
//  #08 //056   ----------------------------------------
 BYTE   W96
//  #08 //057   ----------------------------------------
 BYTE   W96
//  #08 //058   ----------------------------------------
 BYTE   W96
//  #08 //059   ----------------------------------------
 BYTE   W96
//  #08 //060   ----------------------------------------
 BYTE   W96
//  #08 //061   ----------------------------------------
 BYTE   W96
//  #08 //062   ----------------------------------------
 BYTE   W96
//  #08 //063   ----------------------------------------
 BYTE   W96
//  #08 //064   ----------------------------------------
 BYTE   W96
//  #08 //065   ----------------------------------------
 BYTE   W96
//  #08 //066   ----------------------------------------
 BYTE   W96
//  #08 //067   ----------------------------------------
 BYTE   W96
//  #08 //068   ----------------------------------------
 BYTE   W96
//  #08 //069   ----------------------------------------
 BYTE   W96
//  #08 //070   ----------------------------------------
 BYTE   W96
//  #08 //071   ----------------------------------------
 BYTE   W96
//  #08 //072   ----------------------------------------
 BYTE   W96
//  #08 //073   ----------------------------------------
 BYTE   W96
//  #08 //074   ----------------------------------------
 BYTE   W96
//  #08 //075   ----------------------------------------
 BYTE   W96
//  #08 //076   ----------------------------------------
 BYTE   W96
//  #08 //077   ----------------------------------------
 BYTE   W96
//  #08 //078   ----------------------------------------
 BYTE   W96
//  #08 //079   ----------------------------------------
 BYTE   W96
//  #08 //080   ----------------------------------------
 BYTE   W96
//  #08 //081   ----------------------------------------
 BYTE   W96
//  #08 //082   ----------------------------------------
 BYTE   W96
//  #08 //083   ----------------------------------------
 BYTE   W96
//  #08 //084   ----------------------------------------
 BYTE   W96
//  #08 //085   ----------------------------------------
 BYTE   W96
//  #08 //086   ----------------------------------------
 BYTE   W96
//  #08 //087   ----------------------------------------
 BYTE   W96
//  #08 //088   ----------------------------------------
 BYTE   W96
//  #08 //089   ----------------------------------------
 BYTE   W96
//  #08 //090   ----------------------------------------
 BYTE   W96
//  #08 //091   ----------------------------------------
 BYTE   W96
//  #08 //092   ----------------------------------------
 BYTE   W96
//  #08 //093   ----------------------------------------
 BYTE   W96
//  #08 //094   ----------------------------------------
 BYTE   W96
//  #08 //095   ----------------------------------------
 BYTE   W96
//  #08 //096   ----------------------------------------
 BYTE   PATT
  POIN2 Label_56E9F6
//  #08 //097   ----------------------------------------
 BYTE   W96
//  #08 //098   ----------------------------------------
 BYTE   EOT
 BYTE   Bn2  v064
 BYTE   GoTo
  POIN2 Label_56EA01
//  #08 //099   ----------------------------------------
 BYTE   PAN   c_v-6
 BYTE   W96
//  #08 //100   ----------------------------------------
 BYTE   W96
//  #08 //101   ----------------------------------------
 BYTE   W96
//  #08 //102   ----------------------------------------
 BYTE   W96
//  #08 //103   ----------------------------------------
 BYTE   W96
//  #08 //104   ----------------------------------------
 BYTE   W18
 BYTE   FINE

//**************** Track 9 (Midi-Chn.8) ****************//

HolyOrders_009:
//  #09 //000   ----------------------------------------
 BYTE   KEYSH   HolyOrders_key+0
 BYTE   VOICE   18
 BYTE   PAN   c_v-39
 BYTE   VOL   47*HolyOrders_mvl/mxv
 BYTE   En2  v052
 BYTE   BEND   c_v+0
 BYTE   W96
//  #09 //001   ----------------------------------------
 BYTE   W96
//  #09 //002   ----------------------------------------
 BYTE   W96
//  #09 //003   ----------------------------------------
 BYTE   W96
//  #09 //004   ----------------------------------------
 BYTE   W96
//  #09 //005   ----------------------------------------
 BYTE   W96
//  #09 //006   ----------------------------------------
 BYTE   W96
//  #09 //007   ----------------------------------------
 BYTE   W96
//  #09 //008   ----------------------------------------
 BYTE   W96
//  #09 //009   ----------------------------------------
 BYTE   W96
//  #09 //010   ----------------------------------------
 BYTE   W96
//  #09 //011   ----------------------------------------
 BYTE   W96
//  #09 //012   ----------------------------------------
 BYTE   W96
//  #09 //013   ----------------------------------------
 BYTE   W96
//  #09 //014   ----------------------------------------
 BYTE   W96
//  #09 //015   ----------------------------------------
 BYTE   W96
//  #09 //016   ----------------------------------------
 BYTE   W96
//  #09 //017   ----------------------------------------
 BYTE   W96
//  #09 //018   ----------------------------------------
 BYTE   W96
//  #09 //019   ----------------------------------------
 BYTE   W96
//  #09 //020   ----------------------------------------
 BYTE   W96
//  #09 //021   ----------------------------------------
 BYTE   W96
//  #09 //022   ----------------------------------------
 BYTE   W96
//  #09 //023   ----------------------------------------
 BYTE   W72
 BYTE   N24  Bn2  v096
 BYTE   W24
//  #09 //024   ----------------------------------------
Label_E578D4:
 BYTE   N72  En3  v096
 BYTE   W72
 BYTE   N24  Bn2
 BYTE   W24
 BYTE   PEND 
//  #09 //025   ----------------------------------------
Label_E578DC:
 BYTE   N60  Gn3  v096
 BYTE   W60
 BYTE   N24  Fs3
 BYTE   W24
 BYTE   N12  En3
 BYTE   W12
 BYTE   PEND 
//  #09 //026   ----------------------------------------
Label_E578E7:
 BYTE   N60  Ds3  v096
 BYTE   W60
 BYTE   N24
 BYTE   W24
 BYTE   N12  Fs3
 BYTE   W12
//  #09 //027   ----------------------------------------
 BYTE   Ds3  v088
 BYTE   W12
 BYTE   Bn2  v096
 BYTE   W12
 BYTE   Cn3
 BYTE   W12
 BYTE   N36  Bn2
 BYTE   W36
 BYTE   N12
 BYTE   W12
 BYTE   Cn3
 BYTE   W12
//  #09 //028   ----------------------------------------
 BYTE   N48  Dn3
 BYTE   W48
 BYTE   N12  Bn2
 BYTE   W12
 BYTE   Cn3
 BYTE   W12
 BYTE   Bn2
 BYTE   W12
 BYTE   An2
 BYTE   W12
//  #09 //029   ----------------------------------------
 BYTE   N36  Gs2
 BYTE   W36
 BYTE   N60  En2
 BYTE   W60
//  #09 //030   ----------------------------------------
 BYTE   N36  Gs2
 BYTE   W36
 BYTE   Cn3
 BYTE   W36
 BYTE   N24  Gn3
 BYTE   W24
//  #09 //031   ----------------------------------------
 BYTE   Fs3  v088
 BYTE   W24
 BYTE   N12  En3  v096
 BYTE   W12
 BYTE   N36  Ds3
 BYTE   W36
 BYTE   N24  Bn2
 BYTE   W24
//  #09 //032   ----------------------------------------
 BYTE   PATT
  POIN2 Label_E578D4
//  #09 //033   ----------------------------------------
 BYTE   N72  Fs3  v096
 BYTE   W72
 BYTE   N24  Bn2
 BYTE   W24
//  #09 //034   ----------------------------------------
 BYTE   N60  En3
 BYTE   W60
 BYTE   N24  Fn3
 BYTE   W24
 BYTE   N12  Gn3  v088
 BYTE   W12
//  #09 //035   ----------------------------------------
 BYTE   Gs3  v096
 BYTE   W12
 BYTE   En3
 BYTE   W12
 BYTE   Gs3
 BYTE   W12
 BYTE   N36  Bn3
 BYTE   W36
 BYTE   N12  Cn4
 BYTE   W12
 BYTE   Bn3
 BYTE   W12
//  #09 //036   ----------------------------------------
 BYTE   N36  Cn4  v088
 BYTE   W36
 BYTE   N12  Cn4  v096
 BYTE   W12
 BYTE   Bn3
 BYTE   W12
 BYTE   N24  An3
 BYTE   W24
 BYTE   N12  Gn3
 BYTE   W12
//  #09 //037   ----------------------------------------
 BYTE   N48  Fs3
 BYTE   W48
 BYTE   Ds3
 BYTE   W48
//  #09 //038   ----------------------------------------
 BYTE   TIE  En3
 BYTE   W96
//  #09 //039   ----------------------------------------
 BYTE   W96
//  #09 //040   ----------------------------------------
 BYTE   EOT
 BYTE   W96
//  #09 //041   ----------------------------------------
 BYTE   W96
//  #09 //042   ----------------------------------------
 BYTE   W96
//  #09 //043   ----------------------------------------
 BYTE   W96
//  #09 //044   ----------------------------------------
 BYTE   W96
//  #09 //045   ----------------------------------------
 BYTE   W96
//  #09 //046   ----------------------------------------
 BYTE   W96
//  #09 //047   ----------------------------------------
 BYTE   W96
//  #09 //048   ----------------------------------------
 BYTE   W96
//  #09 //049   ----------------------------------------
 BYTE   W96
//  #09 //050   ----------------------------------------
 BYTE   W96
//  #09 //051   ----------------------------------------
 BYTE   W96
//  #09 //052   ----------------------------------------
 BYTE   W96
//  #09 //053   ----------------------------------------
 BYTE   W96
//  #09 //054   ----------------------------------------
 BYTE   W96
//  #09 //055   ----------------------------------------
 BYTE   W96
//  #09 //056   ----------------------------------------
Label_E57975:
 BYTE   N48  Bn3  v096
 BYTE   W48
 BYTE   N24  Fs4
 BYTE   W24
 BYTE   N12  En4
 BYTE   W12
 BYTE   N60  Gn4
 BYTE   W12
 BYTE   PEND 
//  #09 //057   ----------------------------------------
 BYTE   W48
 BYTE   N12
 BYTE   W12
 BYTE   Fs4
 BYTE   W12
 BYTE   En4
 BYTE   W12
 BYTE   Dn4
 BYTE   W12
//  #09 //058   ----------------------------------------
 BYTE   N48  An3
 BYTE   W48
 BYTE   N12  Gn3  v088
 BYTE   W12
 BYTE   Fs3  v096
 BYTE   W12
 BYTE   En3
 BYTE   W12
 BYTE   Dn3
 BYTE   W12
//  #09 //059   ----------------------------------------
 BYTE   N72  Gn2
 BYTE   W72
 BYTE   N12  Gn3
 BYTE   W12
 BYTE   Fs3
 BYTE   W12
//  #09 //060   ----------------------------------------
 BYTE   N36  Gn3
 BYTE   W36
 BYTE   An3
 BYTE   W36
 BYTE   N24  Bn3
 BYTE   W24
//  #09 //061   ----------------------------------------
 BYTE   N48  Fs3
 BYTE   W48
 BYTE   N12  Dn4
 BYTE   W12
 BYTE   Cn4
 BYTE   W12
 BYTE   Bn3
 BYTE   W12
 BYTE   An3
 BYTE   W12
//  #09 //062   ----------------------------------------
 BYTE   N36  Fs3
 BYTE   W36
 BYTE   N12  Gn3
 BYTE   W12
 BYTE   An3
 BYTE   W12
 BYTE   Gn3
 BYTE   W12
 BYTE   N24  An3
 BYTE   W24
//  #09 //063   ----------------------------------------
 BYTE   N96  Bn3
 BYTE   W96
//  #09 //064   ----------------------------------------
 BYTE   PATT
  POIN2 Label_E57975
//  #09 //065   ----------------------------------------
 BYTE   W48
 BYTE   N12  Dn5  v096
 BYTE   W12
 BYTE   Cs5
 BYTE   W12
 BYTE   Bn4
 BYTE   W12
 BYTE   Gs4
 BYTE   W12
//  #09 //066   ----------------------------------------
 BYTE   N48  Fs4
 BYTE   W48
 BYTE   N12  Gn4
 BYTE   W12
 BYTE   Fs4
 BYTE   W12
 BYTE   En4
 BYTE   W12
 BYTE   Dn4
 BYTE   W12
//  #09 //067   ----------------------------------------
 BYTE   N36  Cn5
 BYTE   W36
 BYTE   Bn4
 BYTE   W36
 BYTE   N12
 BYTE   W12
 BYTE   Gn4
 BYTE   W12
//  #09 //068   ----------------------------------------
 BYTE   N36  Fs4
 BYTE   W36
 BYTE   En4
 BYTE   W36
 BYTE   N24  Cn5
 BYTE   W24
//  #09 //069   ----------------------------------------
 BYTE   N36  Bn4
 BYTE   W36
 BYTE   N12  Cn5
 BYTE   W12
 BYTE   Bn4
 BYTE   W12
 BYTE   An4
 BYTE   W12
 BYTE   Fs4
 BYTE   W12
 BYTE   Ds4
 BYTE   W12
//  #09 //070   ----------------------------------------
 BYTE   TIE  Bn3
 BYTE   W96
//  #09 //071   ----------------------------------------
 BYTE   W96
//  #09 //072   ----------------------------------------
 BYTE   EOT
 BYTE   W96
//  #09 //073   ----------------------------------------
 BYTE   W96
//  #09 //074   ----------------------------------------
 BYTE   W96
//  #09 //075   ----------------------------------------
 BYTE   W96
//  #09 //076   ----------------------------------------
 BYTE   W96
//  #09 //077   ----------------------------------------
 BYTE   W96
//  #09 //078   ----------------------------------------
 BYTE   W96
//  #09 //079   ----------------------------------------
 BYTE   W96
//  #09 //080   ----------------------------------------
 BYTE   W96
//  #09 //081   ----------------------------------------
 BYTE   W96
//  #09 //082   ----------------------------------------
 BYTE   W96
//  #09 //083   ----------------------------------------
 BYTE   W96
//  #09 //084   ----------------------------------------
 BYTE   W96
//  #09 //085   ----------------------------------------
 BYTE   W96
//  #09 //086   ----------------------------------------
 BYTE   W96
//  #09 //087   ----------------------------------------
 BYTE   W96
//  #09 //088   ----------------------------------------
 BYTE   W96
//  #09 //089   ----------------------------------------
 BYTE   W96
//  #09 //090   ----------------------------------------
 BYTE   W96
//  #09 //091   ----------------------------------------
 BYTE   W96
//  #09 //092   ----------------------------------------
 BYTE   W96
//  #09 //093   ----------------------------------------
 BYTE   W96
//  #09 //094   ----------------------------------------
 BYTE   W96
//  #09 //095   ----------------------------------------
 BYTE   W72
 BYTE   N24  Bn2
 BYTE   W24
//  #09 //096   ----------------------------------------
 BYTE   PATT
  POIN2 Label_E578D4
//  #09 //097   ----------------------------------------
 BYTE   PATT
  POIN2 Label_E578DC
//  #09 //098   ----------------------------------------
 BYTE   GoTo
  POIN2 Label_E578E7
//  #09 //099   ----------------------------------------
 BYTE   BEND   c_v+0
 BYTE   W96
//  #09 //100   ----------------------------------------
 BYTE   W96
//  #09 //101   ----------------------------------------
 BYTE   W96
//  #09 //102   ----------------------------------------
 BYTE   W96
//  #09 //103   ----------------------------------------
 BYTE   W96
//  #09 //104   ----------------------------------------
 BYTE   W18
 BYTE   FINE

//**************** Track 10 (Midi-Chn.9) ****************//

HolyOrders_010:
//  #10 //000   ----------------------------------------
 BYTE   KEYSH   HolyOrders_key+0
 BYTE   VOICE   1
 BYTE   VOL   35*HolyOrders_mvl/mxv
 BYTE   PAN   c_v-4
 BYTE   N12  En3  v096
 BYTE   N12  En4
 BYTE   W12
 BYTE   Bn2
 BYTE   N12  Bn3
 BYTE   W12
 BYTE   Gn2
 BYTE   N12  Gn3
 BYTE   W12
 BYTE   En2
 BYTE   N12  En3
 BYTE   W12
 BYTE   Ds3
 BYTE   N12  Ds4
 BYTE   W12
 BYTE   Bn2
 BYTE   N12  Bn3
 BYTE   W12
 BYTE   Fs2
 BYTE   N12  Fs3
 BYTE   W12
 BYTE   Ds2
 BYTE   N12  Ds3
 BYTE   W12
//  #10 //001   ----------------------------------------
 BYTE   En3
 BYTE   N12  En4
 BYTE   W12
 BYTE   Bn2
 BYTE   N12  Bn3
 BYTE   W12
 BYTE   Gn2
 BYTE   N12  Gn3
 BYTE   W12
 BYTE   En2
 BYTE   N12  En3
 BYTE   W12
 BYTE   Dn3
 BYTE   N12  Dn4
 BYTE   W12
 BYTE   Bn2
 BYTE   N12  Bn3
 BYTE   W12
 BYTE   Gn2
 BYTE   N12  Gn3
 BYTE   W12
 BYTE   Dn2
 BYTE   N12  Dn3
 BYTE   W12
//  #10 //002   ----------------------------------------
 BYTE   N24  Ds3
 BYTE   N24  Ds4
 BYTE   W24
 BYTE   Fs2
 BYTE   N24  Fs3
 BYTE   W24
 BYTE   N06  En3
 BYTE   N06  En4
 BYTE   W06
 BYTE   Fs3
 BYTE   N06  Fs4
 BYTE   W12
 BYTE   En3
 BYTE   N06  En4
 BYTE   W06
 BYTE   N24  Ds3
 BYTE   N24  Ds4
 BYTE   W24
//  #10 //003   ----------------------------------------
 BYTE   N12  Bn2
 BYTE   N12  Bn3
 BYTE   W12
 BYTE   Gn2
 BYTE   N12  Gn3
 BYTE   W12
 BYTE   An2
 BYTE   N12  An3
 BYTE   W12
 BYTE   Gn2
 BYTE   N12  Gn3
 BYTE   W12
 BYTE   N24  Bn2
 BYTE   N24  Bn3
 BYTE   W24
 BYTE   An2
 BYTE   N24  An3
 BYTE   W24
//  #10 //004   ----------------------------------------
 BYTE   N06  Bn2
 BYTE   N06  Bn3
 BYTE   W06
 BYTE   Cn3
 BYTE   N06  Cn4
 BYTE   W12
 BYTE   Bn2
 BYTE   N06  Bn3
 BYTE   W06
 BYTE   N24  An2
 BYTE   N24  An3
 BYTE   W24
 BYTE   Bn2
 BYTE   N24  Bn3
 BYTE   W24
 BYTE   Fs2
 BYTE   N24  Fs3
 BYTE   W24
//  #10 //005   ----------------------------------------
 BYTE   Gn2
 BYTE   N24  Gn3
 BYTE   W24
 BYTE   Dn2
 BYTE   N24  Dn3
 BYTE   W24
 BYTE   N12  En2
 BYTE   N12  En3
 BYTE   W12
 BYTE   Dn2
 BYTE   N12  Dn3
 BYTE   W12
 BYTE   Cs2
 BYTE   N12  Cs3
 BYTE   W12
 BYTE   Dn2
 BYTE   N12  Dn3
 BYTE   W12
//  #10 //006   ----------------------------------------
 BYTE   N24  Fs2
 BYTE   N24  Fs3
 BYTE   W24
 BYTE   Cs2
 BYTE   N24  Cs3
 BYTE   W24
 BYTE   Fs2
 BYTE   N24  Fs3
 BYTE   W24
 BYTE   Cs2
 BYTE   N24  Cs3
 BYTE   W24
//  #10 //007   ----------------------------------------
 BYTE   Fs2
 BYTE   N24  Fs3
 BYTE   W24
 BYTE   An1
 BYTE   N24  An2
 BYTE   W24
 BYTE   N06  Fs2
 BYTE   N06  Fs3
 BYTE   W06
 BYTE   Gn2
 BYTE   N06  Gn3
 BYTE   W12
 BYTE   Fs2
 BYTE   N06  Fs3
 BYTE   W06
 BYTE   N24  En2
 BYTE   N24  En3
 BYTE   W24
//  #10 //008   ----------------------------------------
 BYTE   W96
//  #10 //009   ----------------------------------------
 BYTE   W96
//  #10 //010   ----------------------------------------
 BYTE   W96
//  #10 //011   ----------------------------------------
 BYTE   W96
//  #10 //012   ----------------------------------------
Label_E576F1:
 BYTE   N48  Cn4  v096
 BYTE   N48  En4
 BYTE   W48
 BYTE   Cn4
 BYTE   N48  Gn4
 BYTE   W48
 BYTE   PEND 
//  #10 //013   ----------------------------------------
Label_E576FC:
 BYTE   N48  Gn3  v096
 BYTE   N48  Cn4
 BYTE   W48
 BYTE   An3
 BYTE   N48  Dn4
 BYTE   W48
 BYTE   PEND 
//  #10 //014   ----------------------------------------
 BYTE   N96
 BYTE   N96  Gn4
 BYTE   W96
//  #10 //015   ----------------------------------------
 BYTE   Bn3
 BYTE   N96  Ds4
 BYTE   W96
//  #10 //016   ----------------------------------------
Label_E5770F:
 BYTE   TIE  Bn3  v096
 BYTE   TIE  En4
 BYTE   W96
 BYTE   PEND 
//  #10 //017   ----------------------------------------
 BYTE   W96
//  #10 //018   ----------------------------------------
 BYTE   W96
//  #10 //019   ----------------------------------------
 BYTE   W96
//  #10 //020   ----------------------------------------
 BYTE   W96
//  #10 //021   ----------------------------------------
 BYTE   W96
//  #10 //022   ----------------------------------------
 BYTE   W96
//  #10 //023   ----------------------------------------
 BYTE   W96
//  #10 //024   ----------------------------------------
 BYTE   EOT
 BYTE   Bn3  v076
 BYTE   W96
//  #10 //025   ----------------------------------------
 BYTE   W96
//  #10 //026   ----------------------------------------
Label_E57722:
 BYTE   W96
//  #10 //027   ----------------------------------------
 BYTE   W96
//  #10 //028   ----------------------------------------
 BYTE   W96
//  #10 //029   ----------------------------------------
 BYTE   W96
//  #10 //030   ----------------------------------------
 BYTE   W96
//  #10 //031   ----------------------------------------
 BYTE   W96
//  #10 //032   ----------------------------------------
 BYTE   W96
//  #10 //033   ----------------------------------------
 BYTE   W96
//  #10 //034   ----------------------------------------
 BYTE   W96
//  #10 //035   ----------------------------------------
 BYTE   W96
//  #10 //036   ----------------------------------------
 BYTE   W96
//  #10 //037   ----------------------------------------
 BYTE   W96
//  #10 //038   ----------------------------------------
 BYTE   W96
//  #10 //039   ----------------------------------------
 BYTE   W96
//  #10 //040   ----------------------------------------
 BYTE   W96
//  #10 //041   ----------------------------------------
 BYTE   W96
//  #10 //042   ----------------------------------------
 BYTE   W96
//  #10 //043   ----------------------------------------
 BYTE   W96
//  #10 //044   ----------------------------------------
 BYTE   W96
//  #10 //045   ----------------------------------------
 BYTE   W96
//  #10 //046   ----------------------------------------
 BYTE   W96
//  #10 //047   ----------------------------------------
 BYTE   W96
//  #10 //048   ----------------------------------------
 BYTE   W96
//  #10 //049   ----------------------------------------
 BYTE   W96
//  #10 //050   ----------------------------------------
 BYTE   W96
//  #10 //051   ----------------------------------------
 BYTE   W96
//  #10 //052   ----------------------------------------
 BYTE   W96
//  #10 //053   ----------------------------------------
 BYTE   W96
//  #10 //054   ----------------------------------------
 BYTE   W96
//  #10 //055   ----------------------------------------
 BYTE   W96
//  #10 //056   ----------------------------------------
Label_E57740:
 BYTE   N96  Bn3  v064
 BYTE   N96  En4  v096
 BYTE   N96  Gn4
 BYTE   W96
 BYTE   PEND 
//  #10 //057   ----------------------------------------
Label_E5774A:
 BYTE   N96  An3  v064
 BYTE   N96  Cn4  v096
 BYTE   N96  An4
 BYTE   W96
 BYTE   PEND 
//  #10 //058   ----------------------------------------
Label_E57754:
 BYTE   N96  An3  v064
 BYTE   N96  Dn4  v096
 BYTE   N96  Fs4
 BYTE   W96
 BYTE   PEND 
//  #10 //059   ----------------------------------------
Label_E5775E:
 BYTE   N96  Bn3  v064
 BYTE   N96  Dn4  v096
 BYTE   N96  Gn4
 BYTE   W96
 BYTE   PEND 
//  #10 //060   ----------------------------------------
Label_E57768:
 BYTE   N96  Gn3  v064
 BYTE   N96  Cn4  v096
 BYTE   N96  Gn4
 BYTE   W96
 BYTE   PEND 
//  #10 //061   ----------------------------------------
 BYTE   An3  v064
 BYTE   N96  Dn4  v096
 BYTE   N96  An4
 BYTE   W96
//  #10 //062   ----------------------------------------
 BYTE   PATT
  POIN2 Label_E5775E
//  #10 //063   ----------------------------------------
 BYTE   N48  Fs3  v064
 BYTE   N48  Bn3  v096
 BYTE   N48  Fs4
 BYTE   W48
 BYTE   Bn3  v064
 BYTE   N48  Ds4  v096
 BYTE   N48  Bn4
 BYTE   W48
//  #10 //064   ----------------------------------------
 BYTE   PATT
  POIN2 Label_E57740
//  #10 //065   ----------------------------------------
 BYTE   PATT
  POIN2 Label_E5774A
//  #10 //066   ----------------------------------------
 BYTE   PATT
  POIN2 Label_E57754
//  #10 //067   ----------------------------------------
 BYTE   PATT
  POIN2 Label_E5775E
//  #10 //068   ----------------------------------------
 BYTE   PATT
  POIN2 Label_E57768
//  #10 //069   ----------------------------------------
 BYTE   N96  Bn3  v064
 BYTE   N96  Ds4  v096
 BYTE   N96  Fs4
 BYTE   W96
//  #10 //070   ----------------------------------------
 BYTE   PATT
  POIN2 Label_E57740
//  #10 //071   ----------------------------------------
 BYTE   N48  Gn3  v096
 BYTE   N48  Gn4
 BYTE   W48
 BYTE   Fs3
 BYTE   N48  Fs4
 BYTE   W48
//  #10 //072   ----------------------------------------
 BYTE   PATT
  POIN2 Label_E5770F
//  #10 //073   ----------------------------------------
 BYTE   W96
//  #10 //074   ----------------------------------------
 BYTE   TIE  Bn2  v096
 BYTE   W96
//  #10 //075   ----------------------------------------
 BYTE   W96
//  #10 //076   ----------------------------------------
 BYTE   EOT
 BYTE   EOT
 BYTE   Bn3  v076
//  #10 //077   ----------------------------------------
 BYTE   PATT
  POIN2 Label_E576F1
//  #10 //078   ----------------------------------------
 BYTE   PATT
  POIN2 Label_E576FC
//  #10 //079   ----------------------------------------
 BYTE   N96  Dn4  v096
 BYTE   N96  Gn4
 BYTE   W96
//  #10 //080   ----------------------------------------
 BYTE   Bn3
 BYTE   N96  Ds4
 BYTE   W96
//  #10 //081   ----------------------------------------
 BYTE   TIE  Bn2
 BYTE   TIE  Bn3
 BYTE   TIE  En4
 BYTE   W96
//  #10 //082   ----------------------------------------
 BYTE   W96
//  #10 //083   ----------------------------------------
 BYTE   W96
//  #10 //084   ----------------------------------------
 BYTE   W96
//  #10 //085   ----------------------------------------
 BYTE   W96
//  #10 //086   ----------------------------------------
 BYTE   W96
//  #10 //087   ----------------------------------------
 BYTE   W96
//  #10 //088   ----------------------------------------
 BYTE   W96
//  #10 //089   ----------------------------------------
 BYTE   W96
//  #10 //090   ----------------------------------------
 BYTE   W96
//  #10 //091   ----------------------------------------
 BYTE   W96
//  #10 //092   ----------------------------------------
 BYTE   W96
//  #10 //093   ----------------------------------------
 BYTE   W96
//  #10 //094   ----------------------------------------
 BYTE   W96
//  #10 //095   ----------------------------------------
 BYTE   W96
//  #10 //096   ----------------------------------------
 BYTE   W96
//  #10 //097   ----------------------------------------
 BYTE   EOT
 BYTE   Bn2  v071
 BYTE   En4
 BYTE   W96
//  #10 //098   ----------------------------------------
 BYTE   W96
//  #10 //099   ----------------------------------------
 BYTE   GoTo
  POIN2 Label_E57722
//  #10 //100   ----------------------------------------
 BYTE   BEND   c_v+0
 BYTE   W96
//  #10 //101   ----------------------------------------
 BYTE   W96
//  #10 //102   ----------------------------------------
 BYTE   W96
//  #10 //103   ----------------------------------------
 BYTE   W96
//  #10 //104   ----------------------------------------
 BYTE   W96
//  #10 //105   ----------------------------------------
 BYTE   W18
 BYTE   FINE

//**************** Track 11 (Midi-Chn.10) ****************//

HolyOrders_011:
//  #11 //000   ----------------------------------------
 BYTE   KEYSH   HolyOrders_key+0
 BYTE   VOICE   49
 BYTE   VOL   43*HolyOrders_mvl/mxv
 BYTE   PAN   c_v-6
 BYTE   N12  Gn3  v072
 BYTE   N12  Gn4
 BYTE   W12
 BYTE   En3
 BYTE   N12  En4
 BYTE   W12
 BYTE   Bn2
 BYTE   N12  Bn3
 BYTE   W12
 BYTE   Gn2
 BYTE   N12  Gn3
 BYTE   W12
 BYTE   Fs3
 BYTE   N12  Fs4
 BYTE   W12
 BYTE   Ds3
 BYTE   N12  Ds4
 BYTE   W12
 BYTE   Bn2
 BYTE   N12  Bn3
 BYTE   W12
 BYTE   Fs2
 BYTE   N12  Fs3
 BYTE   W12
//  #11 //001   ----------------------------------------
 BYTE   Gn3
 BYTE   N12  Gn4
 BYTE   W12
 BYTE   En3
 BYTE   N12  En4
 BYTE   W12
 BYTE   Cn3
 BYTE   N12  Cn4
 BYTE   W12
 BYTE   Gn2
 BYTE   N12  Gn3
 BYTE   W12
 BYTE   N12
 BYTE   N12  Gn4
 BYTE   W12
 BYTE   Dn3
 BYTE   N12  Dn4
 BYTE   W12
 BYTE   Bn2
 BYTE   N12  Bn3
 BYTE   W12
 BYTE   Gn2
 BYTE   N12  Gn3
 BYTE   W12
//  #11 //002   ----------------------------------------
 BYTE   N24  Fs3
 BYTE   N24  Fs4
 BYTE   W24
 BYTE   Bn2
 BYTE   N24  Bn3
 BYTE   W24
 BYTE   N06  Gn3
 BYTE   N06  Gn4
 BYTE   W06
 BYTE   An3
 BYTE   N06  An4
 BYTE   W12
 BYTE   Gn3
 BYTE   N06  Gn4
 BYTE   W06
 BYTE   N24  Fs3
 BYTE   N24  Fs4
 BYTE   W24
//  #11 //003   ----------------------------------------
 BYTE   N12  En3
 BYTE   N12  En4
 BYTE   W12
 BYTE   Bn2
 BYTE   N12  Bn3
 BYTE   W12
 BYTE   Cn3
 BYTE   N12  Cn4
 BYTE   W12
 BYTE   Bn2
 BYTE   N12  Bn3
 BYTE   W12
 BYTE   N24  En3
 BYTE   N24  En4
 BYTE   W24
 BYTE   Ds3
 BYTE   N24  Ds4
 BYTE   W24
//  #11 //004   ----------------------------------------
 BYTE   N06  En3
 BYTE   N06  En4
 BYTE   W06
 BYTE   Fs3
 BYTE   N06  Fs4
 BYTE   W12
 BYTE   En3
 BYTE   N06  En4
 BYTE   W06
 BYTE   N24  Ds3
 BYTE   N24  Ds4
 BYTE   W24
 BYTE   En3
 BYTE   N24  En4
 BYTE   W24
 BYTE   Bn2
 BYTE   N24  Bn3
 BYTE   W24
//  #11 //005   ----------------------------------------
 BYTE   Cn3
 BYTE   N24  Cn4
 BYTE   W24
 BYTE   Gn2
 BYTE   N24  Gn3
 BYTE   W24
 BYTE   N12  An2
 BYTE   N12  An3
 BYTE   W12
 BYTE   Gn2
 BYTE   N12  Gn3
 BYTE   W12
 BYTE   Fs2
 BYTE   N12  Fs3
 BYTE   W12
 BYTE   Gn2
 BYTE   N12  Gn3
 BYTE   W12
//  #11 //006   ----------------------------------------
 BYTE   N24  As2
 BYTE   N24  As3
 BYTE   W24
 BYTE   Fs2
 BYTE   N24  Fs3
 BYTE   W24
 BYTE   As2
 BYTE   N24  As3
 BYTE   W24
 BYTE   Fs2
 BYTE   N24  Fs3
 BYTE   W24
//  #11 //007   ----------------------------------------
 BYTE   Bn2
 BYTE   N24  Bn3
 BYTE   W24
 BYTE   Ds2
 BYTE   N24  Ds3
 BYTE   W24
 BYTE   N06  An2
 BYTE   N06  An3
 BYTE   W06
 BYTE   Bn2
 BYTE   N06  Bn3
 BYTE   W12
 BYTE   An2
 BYTE   N06  An3
 BYTE   W06
 BYTE   N24  Gn2
 BYTE   N24  Gn3
 BYTE   W24
//  #11 //008   ----------------------------------------
 BYTE   W96
//  #11 //009   ----------------------------------------
 BYTE   W96
//  #11 //010   ----------------------------------------
 BYTE   W96
//  #11 //011   ----------------------------------------
 BYTE   W96
//  #11 //012   ----------------------------------------
 BYTE   W96
//  #11 //013   ----------------------------------------
 BYTE   W96
//  #11 //014   ----------------------------------------
 BYTE   W96
//  #11 //015   ----------------------------------------
 BYTE   W96
//  #11 //016   ----------------------------------------
 BYTE   W96
//  #11 //017   ----------------------------------------
 BYTE   W96
//  #11 //018   ----------------------------------------
 BYTE   W96
//  #11 //019   ----------------------------------------
 BYTE   W96
//  #11 //020   ----------------------------------------
 BYTE   W96
//  #11 //021   ----------------------------------------
 BYTE   W96
//  #11 //022   ----------------------------------------
 BYTE   W96
//  #11 //023   ----------------------------------------
 BYTE   W96
//  #11 //024   ----------------------------------------
 BYTE   W96
//  #11 //025   ----------------------------------------
 BYTE   W96
//  #11 //026   ----------------------------------------
Label_E56B5F:
 BYTE   W96
//  #11 //027   ----------------------------------------
 BYTE   W96
//  #11 //028   ----------------------------------------
 BYTE   W96
//  #11 //029   ----------------------------------------
 BYTE   W96
//  #11 //030   ----------------------------------------
 BYTE   W96
//  #11 //031   ----------------------------------------
 BYTE   W96
//  #11 //032   ----------------------------------------
 BYTE   W96
//  #11 //033   ----------------------------------------
 BYTE   W96
//  #11 //034   ----------------------------------------
 BYTE   W96
//  #11 //035   ----------------------------------------
 BYTE   W96
//  #11 //036   ----------------------------------------
 BYTE   W96
//  #11 //037   ----------------------------------------
 BYTE   W96
//  #11 //038   ----------------------------------------
 BYTE   W96
//  #11 //039   ----------------------------------------
 BYTE   W72
 BYTE   N12  Cn4  v096
 BYTE   W12
 BYTE   Bn3
 BYTE   W12
//  #11 //040   ----------------------------------------
 BYTE   N96  Cn4
 BYTE   W96
//  #11 //041   ----------------------------------------
Label_E56B76:
 BYTE   N72  Bn3  v096
 BYTE   W72
 BYTE   N12  An3
 BYTE   W12
 BYTE   Gn3
 BYTE   W12
 BYTE   PEND 
//  #11 //042   ----------------------------------------
Label_E56B80:
 BYTE   N36  Bn3  v096
 BYTE   W36
 BYTE   En3
 BYTE   W36
 BYTE   N24  Gn3
 BYTE   W24
 BYTE   PEND 
//  #11 //043   ----------------------------------------
Label_E56B8A:
 BYTE   N12  Bn3  v096
 BYTE   W12
 BYTE   En3
 BYTE   W12
 BYTE   Dn4
 BYTE   W12
 BYTE   N60  En4
 BYTE   W60
 BYTE   PEND 
//  #11 //044   ----------------------------------------
 BYTE   N36  Fs3
 BYTE   W36
 BYTE   Ds3
 BYTE   W36
 BYTE   N24  Cn4
 BYTE   W24
//  #11 //045   ----------------------------------------
 BYTE   N36  Bn3
 BYTE   W36
 BYTE   N12  Cn4
 BYTE   W12
 BYTE   Bn3
 BYTE   W12
 BYTE   An3
 BYTE   W12
 BYTE   N24  Ds3
 BYTE   W24
//  #11 //046   ----------------------------------------
 BYTE   N48  En3
 BYTE   W48
 BYTE   Gn3
 BYTE   W48
//  #11 //047   ----------------------------------------
 BYTE   Bn3
 BYTE   W48
 BYTE   En4
 BYTE   W48
//  #11 //048   ----------------------------------------
 BYTE   N96  Cn4
 BYTE   W96
//  #11 //049   ----------------------------------------
 BYTE   PATT
  POIN2 Label_E56B76
//  #11 //050   ----------------------------------------
 BYTE   PATT
  POIN2 Label_E56B80
//  #11 //051   ----------------------------------------
 BYTE   PATT
  POIN2 Label_E56B8A
//  #11 //052   ----------------------------------------
 BYTE   N36  Fs3  v096
 BYTE   W36
 BYTE   Ds3
 BYTE   W36
 BYTE   N24  Bn3
 BYTE   W24
//  #11 //053   ----------------------------------------
 BYTE   Cn4
 BYTE   W24
 BYTE   Bn3
 BYTE   W24
 BYTE   An3
 BYTE   W24
 BYTE   Gn3
 BYTE   W24
//  #11 //054   ----------------------------------------
 BYTE   N48  Fs3
 BYTE   W48
 BYTE   Gn3
 BYTE   W48
//  #11 //055   ----------------------------------------
 BYTE   An3
 BYTE   W48
 BYTE   Cn3
 BYTE   W48
//  #11 //056   ----------------------------------------
 BYTE   W96
//  #11 //057   ----------------------------------------
 BYTE   W96
//  #11 //058   ----------------------------------------
 BYTE   W96
//  #11 //059   ----------------------------------------
 BYTE   W96
//  #11 //060   ----------------------------------------
 BYTE   W96
//  #11 //061   ----------------------------------------
 BYTE   W96
//  #11 //062   ----------------------------------------
 BYTE   W96
//  #11 //063   ----------------------------------------
 BYTE   W96
//  #11 //064   ----------------------------------------
 BYTE   W96
//  #11 //065   ----------------------------------------
 BYTE   W96
//  #11 //066   ----------------------------------------
 BYTE   W96
//  #11 //067   ----------------------------------------
 BYTE   W96
//  #11 //068   ----------------------------------------
 BYTE   W96
//  #11 //069   ----------------------------------------
 BYTE   W96
//  #11 //070   ----------------------------------------
 BYTE   W96
//  #11 //071   ----------------------------------------
 BYTE   W96
//  #11 //072   ----------------------------------------
 BYTE   W96
//  #11 //073   ----------------------------------------
 BYTE   W96
//  #11 //074   ----------------------------------------
 BYTE   W96
//  #11 //075   ----------------------------------------
 BYTE   W96
//  #11 //076   ----------------------------------------
 BYTE   W96
//  #11 //077   ----------------------------------------
 BYTE   W96
//  #11 //078   ----------------------------------------
 BYTE   W96
//  #11 //079   ----------------------------------------
 BYTE   W96
//  #11 //080   ----------------------------------------
 BYTE   W96
//  #11 //081   ----------------------------------------
 BYTE   W96
//  #11 //082   ----------------------------------------
 BYTE   W96
//  #11 //083   ----------------------------------------
 BYTE   W96
//  #11 //084   ----------------------------------------
 BYTE   W96
//  #11 //085   ----------------------------------------
 BYTE   W96
//  #11 //086   ----------------------------------------
 BYTE   W96
//  #11 //087   ----------------------------------------
 BYTE   W96
//  #11 //088   ----------------------------------------
 BYTE   W96
//  #11 //089   ----------------------------------------
 BYTE   W96
//  #11 //090   ----------------------------------------
 BYTE   W96
//  #11 //091   ----------------------------------------
 BYTE   W96
//  #11 //092   ----------------------------------------
 BYTE   W96
//  #11 //093   ----------------------------------------
 BYTE   W96
//  #11 //094   ----------------------------------------
 BYTE   W96
//  #11 //095   ----------------------------------------
 BYTE   W96
//  #11 //096   ----------------------------------------
 BYTE   W96
//  #11 //097   ----------------------------------------
 BYTE   W96
//  #11 //098   ----------------------------------------
 BYTE   GoTo
  POIN2 Label_E56B5F
//  #11 //099   ----------------------------------------
 BYTE   BEND   c_v+0
 BYTE   W96
//  #11 //100   ----------------------------------------
 BYTE   W96
//  #11 //101   ----------------------------------------
 BYTE   W96
//  #11 //102   ----------------------------------------
 BYTE   W96
//  #11 //103   ----------------------------------------
 BYTE   W96
//  #11 //104   ----------------------------------------
 BYTE   W18
 BYTE   FINE

//******************************************************//
	ALIGN 4

HolyOrders:
	BYTE	11	// NumTrks
	BYTE	0	// NumBlks
	BYTE	HolyOrders_pri	// Priority
	BYTE	HolyOrders_rev	// Reverb.
    
	POIN2	HolyOrders_grp
    
	POIN2	HolyOrders_001
	POIN2	HolyOrders_002
	POIN2	HolyOrders_003
	POIN2	HolyOrders_004
	POIN2	HolyOrders_005
	POIN2	HolyOrders_006
	POIN2	HolyOrders_007
	POIN2	HolyOrders_008
	POIN2	HolyOrders_009
	POIN2	HolyOrders_010
	POIN2	HolyOrders_011

	
