	.include "MPlayDef.s"

	.equ	song04_grp, voicegroup000
	.equ	song04_pri, 0
	.equ	song04_rev, 0
	.equ	song04_mvl, 127
	.equ	song04_key, 0
	.equ	song04_tbs, 1
	.equ	song04_exg, 0
	.equ	song04_cmp, 1

	.section .rodata
	.global	song04
	.align	2


@**************** Track 1 (Midi-Chn.0) ****************@

song04_001:
@  #01 @000   ----------------------------------------
 .byte   KEYSH , song04_key+0
 .byte   TEMPO , 132*song04_tbs/2
 .byte   VOICE , 52
 .byte   VOL , 49*song04_mvl/mxv
 .byte   PAN , c_v+0
 .byte   W96
@  #01 @001   ----------------------------------------
 .byte   W96
@  #01 @002   ----------------------------------------
 .byte   W96
@  #01 @003   ----------------------------------------
 .byte   W96
@  #01 @004   ----------------------------------------
 .byte   W96
@  #01 @005   ----------------------------------------
 .byte   W96
@  #01 @006   ----------------------------------------
 .byte   W96
@  #01 @007   ----------------------------------------
 .byte   W96
@  #01 @008   ----------------------------------------
Label_01403786:
 .byte   W96
@  #01 @009   ----------------------------------------
 .byte   W96
@  #01 @010   ----------------------------------------
 .byte   W96
@  #01 @011   ----------------------------------------
 .byte   W96
@  #01 @012   ----------------------------------------
 .byte   W12
 .byte   N11 ,En2 ,v096
 .byte   W12
 .byte   N17 ,Fs2
 .byte   W18
 .byte   N05 ,An2
 .byte   W54
@  #01 @013   ----------------------------------------
 .byte   W12
 .byte   N11 ,En2
 .byte   W12
 .byte   N17 ,Fs2
 .byte   W18
 .byte   N05 ,An2
 .byte   W18
 .byte   N11 ,Bn2
 .byte   W24
 .byte   N11
 .byte   W12
@  #01 @014   ----------------------------------------
 .byte   Cs3
 .byte   W12
 .byte   N23 ,Dn3
 .byte   W24
 .byte   Cs3
 .byte   W24
 .byte   N32 ,Bn2
 .byte   W36
@  #01 @015   ----------------------------------------
 .byte   W96
@  #01 @016   ----------------------------------------
 .byte   W12
 .byte   N11 ,En2
 .byte   W12
 .byte   N17 ,Fs2
 .byte   W18
 .byte   N05 ,An2
 .byte   W54
@  #01 @017   ----------------------------------------
 .byte   N11 ,Fs2
 .byte   W12
 .byte   An2
 .byte   W12
 .byte   N17 ,Bn2
 .byte   W18
 .byte   Cs3
 .byte   W06
 .byte   W12
 .byte   N11 ,Dn3
 .byte   W24
 .byte   N11
 .byte   W12
@  #01 @018   ----------------------------------------
 .byte   En3
 .byte   W12
 .byte   N23 ,Fs3
 .byte   W12
 .byte   W12
 .byte   En3
 .byte   W24
 .byte   N32 ,Dn3
 .byte   W12
 .byte   W24
@  #01 @019   ----------------------------------------
 .byte   W12
 .byte   N11
 .byte   W12
 .byte   N68 ,Cs3
 .byte   W72
@  #01 @020   ----------------------------------------
 .byte   W12
 .byte   N11
 .byte   W12
 .byte   N23 ,Dn3
 .byte   W24
 .byte   N11
 .byte   W12
 .byte   N32 ,An2
 .byte   W12
 .byte   W24
@  #01 @021   ----------------------------------------
Label_014037E7:
 .byte   N11 ,Dn3 ,v096
 .byte   W12
 .byte   En3
 .byte   W12
 .byte   N32
 .byte   W36
 .byte   Dn3
 .byte   W12
 .byte   W24
 .byte   PEND 
@  #01 @022   ----------------------------------------
 .byte   N11 ,Cs3
 .byte   W12
 .byte   Dn3
 .byte   W12
 .byte   N32
 .byte   W36
 .byte   Bn2
 .byte   W12
 .byte   W24
@  #01 @023   ----------------------------------------
 .byte   N23 ,Cs3
 .byte   W24
 .byte   Dn3
 .byte   W24
 .byte   Cs3
 .byte   W24
 .byte   Bn2
 .byte   W24
@  #01 @024   ----------------------------------------
 .byte   W24
 .byte   Dn3
 .byte   W24
 .byte   N11
 .byte   W12
 .byte   N32 ,An2
 .byte   W12
 .byte   W24
@  #01 @025   ----------------------------------------
 .byte   PATT
  .word Label_014037E7
@  #01 @026   ----------------------------------------
 .byte   N11 ,Dn3 ,v096
 .byte   W12
 .byte   TIE ,Bn2
 .byte   W12
 .byte   W72
@  #01 @027   ----------------------------------------
 .byte   W23
 .byte   EOT
 .byte   W36
 .byte   W01
 .byte   N11 ,An2
 .byte   W12
 .byte   N23 ,Dn3
 .byte   W24
@  #01 @028   ----------------------------------------
 .byte   N11
 .byte   W12
 .byte   Dn3 ,v052
 .byte   W12
 .byte   N80 ,Cs3 ,v096
 .byte   W72
@  #01 @029   ----------------------------------------
 .byte   W12
 .byte   N11 ,Dn3
 .byte   W60
 .byte   N23 ,Bn2 ,v112
 .byte   W24
@  #01 @030   ----------------------------------------
Label_01403837:
 .byte   N23 ,Dn3 ,v112
 .byte   W24
 .byte   N11 ,An3
 .byte   W12
 .byte   TIE ,En3
 .byte   W60
 .byte   PEND 
@  #01 @031   ----------------------------------------
 .byte   W24
 .byte   W23
 .byte   EOT
 .byte   W36
 .byte   W01
 .byte   N11 ,Bn2 ,v052
 .byte   W12
@  #01 @032   ----------------------------------------
Label_0140384B:
 .byte   N11 ,Cs3 ,v112
 .byte   W12
 .byte   En3
 .byte   W12
 .byte   Fs3
 .byte   W12
 .byte   N32 ,En3
 .byte   W12
 .byte   W24
 .byte   N11
 .byte   W12
 .byte   Dn3
 .byte   W12
 .byte   PEND 
@  #01 @033   ----------------------------------------
Label_0140385C:
 .byte   N11 ,Cs3 ,v112
 .byte   W12
 .byte   N32 ,Dn3
 .byte   W12
 .byte   W48
 .byte   N23 ,Bn2
 .byte   W24
 .byte   PEND 
@  #01 @034   ----------------------------------------
Label_01403868:
 .byte   N23 ,Dn3 ,v112
 .byte   W24
 .byte   An3
 .byte   W24
 .byte   Bn3
 .byte   W24
 .byte   N44 ,En3
 .byte   W24
 .byte   PEND 
@  #01 @035   ----------------------------------------
Label_01403874:
 .byte   W60
 .byte   N11 ,Dn3 ,v112
 .byte   W12
 .byte   Gn3
 .byte   W12
 .byte   Fs3
 .byte   W12
 .byte   PEND 
@  #01 @036   ----------------------------------------
Label_0140387E:
 .byte   N11 ,En3 ,v112
 .byte   W12
 .byte   Dn3
 .byte   W12
 .byte   N56 ,Cs3
 .byte   W48
 .byte   W12
 .byte   N11 ,Bn2
 .byte   W12
 .byte   PEND 
@  #01 @037   ----------------------------------------
Label_0140388C:
 .byte   N11 ,Cs3 ,v112
 .byte   W12
 .byte   N32 ,Dn3
 .byte   W60
 .byte   N23
 .byte   W24
 .byte   PEND 
@  #01 @038   ----------------------------------------
Label_01403896:
 .byte   N23 ,En3 ,v112
 .byte   W24
 .byte   Fs3
 .byte   W24
 .byte   N23
 .byte   W24
 .byte   N23
 .byte   W24
 .byte   PEND 
@  #01 @039   ----------------------------------------
Label_014038A1:
 .byte   N11 ,Fs3 ,v112
 .byte   W12
 .byte   N32 ,En3
 .byte   W12
 .byte   W36
 .byte   N11 ,Bn2
 .byte   W12
 .byte   En3
 .byte   W12
 .byte   Dn3
 .byte   W12
 .byte   PEND 
@  #01 @040   ----------------------------------------
Label_014038B1:
 .byte   N11 ,Cs3 ,v112
 .byte   W12
 .byte   Dn3
 .byte   W12
 .byte   N23 ,En3
 .byte   W24
 .byte   N23
 .byte   W24
 .byte   N23
 .byte   W24
 .byte   PEND 
@  #01 @041   ----------------------------------------
Label_014038BF:
 .byte   N11 ,En3 ,v112
 .byte   W12
 .byte   Dn3
 .byte   W24
 .byte   Cs3
 .byte   W24
 .byte   N23 ,Bn2
 .byte   W12
 .byte   W12
 .byte   N11
 .byte   W12
 .byte   PEND 
@  #01 @042   ----------------------------------------
Label_014038CE:
 .byte   N11 ,Bn2 ,v112
 .byte   W12
 .byte   Cs3
 .byte   W12
 .byte   N23 ,Dn3
 .byte   W60
 .byte   Bn2
 .byte   W12
 .byte   PEND 
@  #01 @043   ----------------------------------------
Label_014038DA:
 .byte   W12
 .byte   N11 ,Dn3 ,v112
 .byte   W12
 .byte   N17 ,An3
 .byte   W18
 .byte   Bn3
 .byte   W18
 .byte   N32 ,En3
 .byte   W12
 .byte   W24
 .byte   PEND 
@  #01 @044   ----------------------------------------
Label_014038E9:
 .byte   N23 ,Dn3 ,v112
 .byte   W24
 .byte   N44
 .byte   W72
 .byte   PEND 
@  #01 @045   ----------------------------------------
Label_014038F0:
 .byte   W12
 .byte   N11 ,Dn3 ,v112
 .byte   W12
 .byte   Gn3
 .byte   W12
 .byte   Fs3
 .byte   W12
 .byte   En3
 .byte   W12
 .byte   Dn3
 .byte   W12
 .byte   N32 ,Cs3
 .byte   W24
 .byte   PEND 
@  #01 @046   ----------------------------------------
Label_01403901:
 .byte   W12
 .byte   N11 ,Bn2 ,v112
 .byte   W84
 .byte   PEND 
@  #01 @047   ----------------------------------------
 .byte   W96
@  #01 @048   ----------------------------------------
 .byte   W96
@  #01 @049   ----------------------------------------
 .byte   W96
@  #01 @050   ----------------------------------------
 .byte   W96
@  #01 @051   ----------------------------------------
 .byte   W96
@  #01 @052   ----------------------------------------
 .byte   W96
@  #01 @053   ----------------------------------------
 .byte   W96
@  #01 @054   ----------------------------------------
 .byte   W96
@  #01 @055   ----------------------------------------
 .byte   W96
@  #01 @056   ----------------------------------------
 .byte   W96
@  #01 @057   ----------------------------------------
 .byte   W96
@  #01 @058   ----------------------------------------
 .byte   W12
 .byte   En2
 .byte   W12
 .byte   N17 ,Fs2
 .byte   W18
 .byte   N05 ,An2
 .byte   W54
@  #01 @059   ----------------------------------------
 .byte   W12
 .byte   N11 ,En2
 .byte   W12
 .byte   N17 ,Fs2
 .byte   W18
 .byte   N05 ,An2
 .byte   W18
 .byte   N11 ,Bn2
 .byte   W24
 .byte   N11
 .byte   W12
@  #01 @060   ----------------------------------------
 .byte   Cs3
 .byte   W12
 .byte   N23 ,Dn3
 .byte   W24
 .byte   Cs3
 .byte   W24
 .byte   N56 ,Bn2
 .byte   W36
@  #01 @061   ----------------------------------------
 .byte   W96
@  #01 @062   ----------------------------------------
 .byte   W12
 .byte   N11 ,En2
 .byte   W12
 .byte   N17 ,Fs2
 .byte   W18
 .byte   N05 ,An2
 .byte   W54
@  #01 @063   ----------------------------------------
 .byte   N11 ,Fs2
 .byte   W12
 .byte   An2
 .byte   W12
 .byte   N17 ,Bn2
 .byte   W18
 .byte   N05 ,Cs3
 .byte   W06
 .byte   N11
 .byte   W12
 .byte   Dn3
 .byte   W24
 .byte   N23 ,En3
 .byte   W12
@  #01 @064   ----------------------------------------
 .byte   W12
 .byte   Fs3
 .byte   W12
 .byte   W12
 .byte   En3
 .byte   W24
 .byte   N56 ,Dn3
 .byte   W12
 .byte   W24
@  #01 @065   ----------------------------------------
 .byte   W24
 .byte   N68 ,Cs3
 .byte   W72
@  #01 @066   ----------------------------------------
 .byte   W12
 .byte   N11
 .byte   W12
 .byte   N23 ,Dn3
 .byte   W24
 .byte   N11
 .byte   W12
 .byte   N32 ,An2
 .byte   W12
 .byte   W24
@  #01 @067   ----------------------------------------
 .byte   N11 ,Dn3
 .byte   W12
 .byte   En3
 .byte   W12
 .byte   N23
 .byte   W24
 .byte   N11
 .byte   W12
 .byte   N23 ,Dn3
 .byte   W12
 .byte   W12
 .byte   N11 ,Cs3
 .byte   W12
@  #01 @068   ----------------------------------------
 .byte   N11
 .byte   W12
 .byte   Dn3
 .byte   W12
 .byte   N32
 .byte   W36
 .byte   N23 ,Bn2
 .byte   W12
 .byte   W12
 .byte   N11
 .byte   W12
@  #01 @069   ----------------------------------------
 .byte   N23 ,Cs3
 .byte   W24
 .byte   Dn3
 .byte   W24
 .byte   Cs3
 .byte   W24
 .byte   Bn2
 .byte   W24
@  #01 @070   ----------------------------------------
 .byte   W12
 .byte   N11 ,Cs3
 .byte   W12
 .byte   N23 ,Dn3
 .byte   W24
 .byte   N11
 .byte   W12
 .byte   N23 ,An2
 .byte   W12
 .byte   W12
 .byte   N11 ,Bn2
 .byte   W12
@  #01 @071   ----------------------------------------
 .byte   Dn3
 .byte   W12
 .byte   En3
 .byte   W12
 .byte   N23
 .byte   W24
 .byte   N11
 .byte   W12
 .byte   N32 ,Dn3
 .byte   W12
 .byte   W24
@  #01 @072   ----------------------------------------
 .byte   N11
 .byte   W12
 .byte   TIE ,Bn2
 .byte   W12
 .byte   W72
@  #01 @073   ----------------------------------------
 .byte   W23
 .byte   EOT
 .byte   W36
 .byte   W01
 .byte   N11 ,An2
 .byte   W12
 .byte   N23 ,Dn3
 .byte   W24
@  #01 @074   ----------------------------------------
 .byte   N23
 .byte   W24
 .byte   N80 ,Cs3
 .byte   W72
@  #01 @075   ----------------------------------------
 .byte   W12
 .byte   N11 ,Dn3
 .byte   W60
 .byte   N23 ,Bn2
 .byte   W24
@  #01 @076   ----------------------------------------
 .byte   PATT
  .word Label_01403837
@  #01 @077   ----------------------------------------
 .byte   W24
 .byte   W23
 .byte   EOT
 .byte   En3
 .byte   W36
 .byte   W01
 .byte   N11 ,Bn2 ,v052
 .byte   W12
@  #01 @078   ----------------------------------------
 .byte   PATT
  .word Label_0140384B
@  #01 @079   ----------------------------------------
 .byte   PATT
  .word Label_0140385C
@  #01 @080   ----------------------------------------
 .byte   PATT
  .word Label_01403868
@  #01 @081   ----------------------------------------
 .byte   PATT
  .word Label_01403874
@  #01 @082   ----------------------------------------
 .byte   PATT
  .word Label_0140387E
@  #01 @083   ----------------------------------------
 .byte   PATT
  .word Label_0140388C
@  #01 @084   ----------------------------------------
 .byte   PATT
  .word Label_01403896
@  #01 @085   ----------------------------------------
 .byte   PATT
  .word Label_014038A1
@  #01 @086   ----------------------------------------
 .byte   PATT
  .word Label_014038B1
@  #01 @087   ----------------------------------------
 .byte   PATT
  .word Label_014038BF
@  #01 @088   ----------------------------------------
 .byte   PATT
  .word Label_014038CE
@  #01 @089   ----------------------------------------
 .byte   PATT
  .word Label_014038DA
@  #01 @090   ----------------------------------------
 .byte   PATT
  .word Label_014038E9
@  #01 @091   ----------------------------------------
 .byte   PATT
  .word Label_014038F0
@  #01 @092   ----------------------------------------
 .byte   PATT
  .word Label_01403901
@  #01 @093   ----------------------------------------
 .byte   W96
@  #01 @094   ----------------------------------------
 .byte   W96
@  #01 @095   ----------------------------------------
 .byte   W72
 .byte   N23 ,Fs2 ,v080
 .byte   W24
@  #01 @096   ----------------------------------------
 .byte   An2
 .byte   W24
 .byte   N11 ,En3
 .byte   W12
 .byte   N56 ,Dn3
 .byte   W60
@  #01 @097   ----------------------------------------
 .byte   N11
 .byte   W12
 .byte   N23 ,En3
 .byte   W24
 .byte   N80 ,Dn3
 .byte   W60
@  #01 @098   ----------------------------------------
 .byte   W60
 .byte   N11
 .byte   W12
 .byte   Gn3
 .byte   W12
 .byte   Fs3
 .byte   W12
@  #01 @099   ----------------------------------------
 .byte   En3
 .byte   W12
 .byte   Dn3
 .byte   W12
 .byte   N23 ,Cs3
 .byte   W24
 .byte   N11
 .byte   W12
 .byte   N23 ,Bn2
 .byte   W24
 .byte   N11
 .byte   W12
@  #01 @100   ----------------------------------------
 .byte   N23 ,Cs3
 .byte   W24
 .byte   N44 ,Dn3
 .byte   W60
 .byte   N23 ,Bn2
 .byte   W12
@  #01 @101   ----------------------------------------
 .byte   W12
 .byte   N11 ,Dn3
 .byte   W12
 .byte   N23 ,Cs3
 .byte   W24
 .byte   N11 ,An2
 .byte   W12
 .byte   N23 ,Fs2
 .byte   W24
 .byte   An2
 .byte   W12
@  #01 @102   ----------------------------------------
 .byte   W12
 .byte   TIE ,Bn2
 .byte   W84
@  #01 @103   ----------------------------------------
 .byte   W23
 .byte   EOT
 .byte   W48
 .byte   W01
 .byte   N44 ,An2
 .byte   W24
@  #01 @104   ----------------------------------------
 .byte   W24
 .byte   N92 ,Bn2
 .byte   W72
@  #01 @105   ----------------------------------------
 .byte   W60
 .byte   N11 ,Bn2 ,v112
 .byte   W12
 .byte   N23
 .byte   W24
@  #01 @106   ----------------------------------------
 .byte   PATT
  .word Label_01403837
@  #01 @107   ----------------------------------------
 .byte   W24
 .byte   W23
 .byte   EOT
 .byte   En3
 .byte   W36
 .byte   W01
 .byte   N11 ,Bn2 ,v052
 .byte   W12
@  #01 @108   ----------------------------------------
 .byte   PATT
  .word Label_0140384B
@  #01 @109   ----------------------------------------
 .byte   PATT
  .word Label_0140385C
@  #01 @110   ----------------------------------------
 .byte   PATT
  .word Label_01403868
@  #01 @111   ----------------------------------------
 .byte   PATT
  .word Label_01403874
@  #01 @112   ----------------------------------------
 .byte   PATT
  .word Label_0140387E
@  #01 @113   ----------------------------------------
 .byte   PATT
  .word Label_0140388C
@  #01 @114   ----------------------------------------
 .byte   PATT
  .word Label_01403896
@  #01 @115   ----------------------------------------
 .byte   PATT
  .word Label_014038A1
@  #01 @116   ----------------------------------------
 .byte   PATT
  .word Label_014038B1
@  #01 @117   ----------------------------------------
 .byte   PATT
  .word Label_014038BF
@  #01 @118   ----------------------------------------
 .byte   PATT
  .word Label_014038CE
@  #01 @119   ----------------------------------------
 .byte   PATT
  .word Label_014038DA
@  #01 @120   ----------------------------------------
 .byte   PATT
  .word Label_014038E9
@  #01 @121   ----------------------------------------
 .byte   W12
 .byte   N11 ,Dn3 ,v112
 .byte   W12
 .byte   Gn3
 .byte   W12
 .byte   Fs3
 .byte   W12
 .byte   En3
 .byte   W12
 .byte   Dn3
 .byte   W12
 .byte   N23 ,Bn2
 .byte   W24
@  #01 @122   ----------------------------------------
 .byte   PATT
  .word Label_01403837
@  #01 @123   ----------------------------------------
 .byte   W24
 .byte   W23
 .byte   EOT
 .byte   En3
 .byte   W36
 .byte   W01
 .byte   N11 ,Bn2 ,v052
 .byte   W12
@  #01 @124   ----------------------------------------
 .byte   PATT
  .word Label_0140384B
@  #01 @125   ----------------------------------------
 .byte   PATT
  .word Label_0140385C
@  #01 @126   ----------------------------------------
 .byte   PATT
  .word Label_01403868
@  #01 @127   ----------------------------------------
 .byte   PATT
  .word Label_01403874
@  #01 @128   ----------------------------------------
 .byte   PATT
  .word Label_0140387E
@  #01 @129   ----------------------------------------
 .byte   PATT
  .word Label_0140388C
@  #01 @130   ----------------------------------------
 .byte   PATT
  .word Label_01403896
@  #01 @131   ----------------------------------------
 .byte   PATT
  .word Label_014038A1
@  #01 @132   ----------------------------------------
 .byte   PATT
  .word Label_014038B1
@  #01 @133   ----------------------------------------
 .byte   PATT
  .word Label_014038BF
@  #01 @134   ----------------------------------------
 .byte   PATT
  .word Label_014038CE
@  #01 @135   ----------------------------------------
 .byte   PATT
  .word Label_014038DA
@  #01 @136   ----------------------------------------
 .byte   PATT
  .word Label_014038E9
@  #01 @137   ----------------------------------------
 .byte   PATT
  .word Label_014038F0
@  #01 @138   ----------------------------------------
 .byte   PATT
  .word Label_01403901
@  #01 @139   ----------------------------------------
 .byte   W96
@  #01 @140   ----------------------------------------
 .byte   W96
@  #01 @141   ----------------------------------------
 .byte   W96
@  #01 @142   ----------------------------------------
 .byte   W96
@  #01 @143   ----------------------------------------
 .byte   W96
@  #01 @144   ----------------------------------------
 .byte   W96
@  #01 @145   ----------------------------------------
 .byte   W96
@  #01 @146   ----------------------------------------
 .byte   GOTO
  .word Label_01403786
@  #01 @147   ----------------------------------------
 .byte   W23
 .byte   FINE

@**************** Track 2 (Midi-Chn.1) ****************@

song04_002:
@  #02 @000   ----------------------------------------
 .byte   KEYSH , song04_key+0
 .byte   VOICE , 52
 .byte   VOL , 42*song04_mvl/mxv
 .byte   PAN , c_v+0
 .byte   W96
@  #02 @001   ----------------------------------------
 .byte   W96
@  #02 @002   ----------------------------------------
 .byte   W96
@  #02 @003   ----------------------------------------
 .byte   W96
@  #02 @004   ----------------------------------------
 .byte   W96
@  #02 @005   ----------------------------------------
 .byte   W96
@  #02 @006   ----------------------------------------
 .byte   W96
@  #02 @007   ----------------------------------------
 .byte   W96
@  #02 @008   ----------------------------------------
Label_01403B68:
 .byte   W96
@  #02 @009   ----------------------------------------
 .byte   W96
@  #02 @010   ----------------------------------------
 .byte   W96
@  #02 @011   ----------------------------------------
 .byte   W96
@  #02 @012   ----------------------------------------
 .byte   W96
@  #02 @013   ----------------------------------------
 .byte   W96
@  #02 @014   ----------------------------------------
 .byte   W96
@  #02 @015   ----------------------------------------
 .byte   W96
@  #02 @016   ----------------------------------------
 .byte   W96
@  #02 @017   ----------------------------------------
 .byte   W24
 .byte   N17 ,Fs2 ,v080
 .byte   W18
 .byte   N17
 .byte   W06
 .byte   W12
 .byte   N11 ,An2
 .byte   W24
 .byte   Bn2
 .byte   W12
@  #02 @018   ----------------------------------------
 .byte   Cs3
 .byte   W12
 .byte   N23 ,Dn3
 .byte   W12
 .byte   W12
 .byte   Cs3
 .byte   W24
 .byte   N32 ,Bn2
 .byte   W12
 .byte   W24
@  #02 @019   ----------------------------------------
 .byte   W12
 .byte   N11
 .byte   W12
 .byte   N68 ,As2
 .byte   W72
@  #02 @020   ----------------------------------------
Label_01403B90:
 .byte   W24
 .byte   N23 ,Bn2 ,v080
 .byte   W24
 .byte   N11
 .byte   W12
 .byte   N32 ,Fs2
 .byte   W12
 .byte   W24
 .byte   PEND 
@  #02 @021   ----------------------------------------
Label_01403B9C:
 .byte   N11 ,Bn2 ,v080
 .byte   W12
 .byte   Cs3
 .byte   W12
 .byte   N32
 .byte   W36
 .byte   Bn2
 .byte   W12
 .byte   W24
 .byte   PEND 
@  #02 @022   ----------------------------------------
 .byte   N11 ,An2
 .byte   W12
 .byte   Bn2
 .byte   W12
 .byte   N32
 .byte   W36
 .byte   Gn2
 .byte   W12
 .byte   W24
@  #02 @023   ----------------------------------------
Label_01403BB2:
 .byte   N23 ,An2 ,v080
 .byte   W24
 .byte   Bn2
 .byte   W24
 .byte   An2
 .byte   W24
 .byte   Fs2
 .byte   W24
 .byte   PEND 
@  #02 @024   ----------------------------------------
 .byte   PATT
  .word Label_01403B90
@  #02 @025   ----------------------------------------
 .byte   PATT
  .word Label_01403B9C
@  #02 @026   ----------------------------------------
Label_01403BC7:
 .byte   N11 ,Bn2 ,v080
 .byte   W12
 .byte   TIE ,Gn2
 .byte   W12
 .byte   W72
 .byte   PEND 
@  #02 @027   ----------------------------------------
 .byte   W23
 .byte   EOT
 .byte   W36
 .byte   W01
 .byte   N11 ,Fs2
 .byte   W12
 .byte   N23 ,Bn2
 .byte   W24
@  #02 @028   ----------------------------------------
Label_01403BDA:
 .byte   N23 ,Bn2 ,v080
 .byte   W24
 .byte   N80 ,An2
 .byte   W72
 .byte   PEND 
@  #02 @029   ----------------------------------------
Label_01403BE2:
 .byte   W12
 .byte   N11 ,Bn2 ,v080
 .byte   W84
 .byte   PEND 
@  #02 @030   ----------------------------------------
 .byte   W96
@  #02 @031   ----------------------------------------
 .byte   W96
@  #02 @032   ----------------------------------------
Label_01403BEA:
 .byte   W24
 .byte   N11 ,Bn2 ,v080
 .byte   N11 ,Dn3
 .byte   W12
 .byte   N32 ,An2
 .byte   N32 ,Cs3
 .byte   W12
 .byte   W24
 .byte   N11 ,An2
 .byte   N11 ,Cs3
 .byte   W12
 .byte   Gs2
 .byte   N11 ,Bn2
 .byte   W12
 .byte   PEND 
@  #02 @033   ----------------------------------------
Label_01403C01:
 .byte   N11 ,Gn2 ,v080
 .byte   N11 ,An2
 .byte   W12
 .byte   N32 ,Gs2
 .byte   N32 ,Bn2
 .byte   W12
 .byte   W72
 .byte   PEND 
@  #02 @034   ----------------------------------------
 .byte   W96
@  #02 @035   ----------------------------------------
 .byte   W96
@  #02 @036   ----------------------------------------
 .byte   W96
@  #02 @037   ----------------------------------------
 .byte   W96
@  #02 @038   ----------------------------------------
Label_01403C12:
 .byte   W24
 .byte   N23 ,Bn2 ,v080
 .byte   N23 ,Dn3
 .byte   W24
 .byte   Bn2
 .byte   N23 ,Dn3
 .byte   W24
 .byte   Bn2
 .byte   N23 ,Dn3
 .byte   W24
 .byte   PEND 
@  #02 @039   ----------------------------------------
Label_01403C22:
 .byte   N11 ,Bn2 ,v080
 .byte   N11 ,Dn3
 .byte   W12
 .byte   N32 ,An2
 .byte   N32 ,Cs3
 .byte   W12
 .byte   W72
 .byte   PEND 
@  #02 @040   ----------------------------------------
Label_01403C2F:
 .byte   W24
 .byte   N23 ,An2 ,v080
 .byte   N23 ,Cs3
 .byte   W24
 .byte   An2
 .byte   N23 ,Cs3
 .byte   W24
 .byte   An2
 .byte   N23 ,Cs3
 .byte   W24
 .byte   PEND 
@  #02 @041   ----------------------------------------
Label_01403C3F:
 .byte   N11 ,An2 ,v080
 .byte   N11 ,Cs3
 .byte   W12
 .byte   Bn2
 .byte   N11 ,Fs3
 .byte   W24
 .byte   An2
 .byte   N11 ,En3
 .byte   W24
 .byte   N23 ,Fs2
 .byte   N23 ,Dn3
 .byte   W12
 .byte   W12
 .byte   N11 ,Fs2
 .byte   N11 ,Dn3
 .byte   W12
 .byte   PEND 
@  #02 @042   ----------------------------------------
Label_01403C59:
 .byte   N11 ,Fs2 ,v080
 .byte   N11 ,Dn3
 .byte   W12
 .byte   An2
 .byte   N11 ,Fs3
 .byte   W12
 .byte   N23 ,Bn2
 .byte   N23 ,Fs3
 .byte   W72
 .byte   PEND 
@  #02 @043   ----------------------------------------
 .byte   W96
@  #02 @044   ----------------------------------------
 .byte   W96
@  #02 @045   ----------------------------------------
 .byte   W96
@  #02 @046   ----------------------------------------
 .byte   W96
@  #02 @047   ----------------------------------------
 .byte   W96
@  #02 @048   ----------------------------------------
 .byte   W96
@  #02 @049   ----------------------------------------
 .byte   W96
@  #02 @050   ----------------------------------------
 .byte   W96
@  #02 @051   ----------------------------------------
 .byte   W96
@  #02 @052   ----------------------------------------
 .byte   W96
@  #02 @053   ----------------------------------------
 .byte   W96
@  #02 @054   ----------------------------------------
 .byte   W96
@  #02 @055   ----------------------------------------
 .byte   W96
@  #02 @056   ----------------------------------------
 .byte   W96
@  #02 @057   ----------------------------------------
 .byte   W96
@  #02 @058   ----------------------------------------
 .byte   W96
@  #02 @059   ----------------------------------------
 .byte   W96
@  #02 @060   ----------------------------------------
 .byte   W96
@  #02 @061   ----------------------------------------
 .byte   W96
@  #02 @062   ----------------------------------------
 .byte   W96
@  #02 @063   ----------------------------------------
 .byte   W24
 .byte   N17 ,Fs2
 .byte   W18
 .byte   N05
 .byte   W06
 .byte   N11
 .byte   W12
 .byte   An2
 .byte   W24
 .byte   N23 ,Cs3
 .byte   W12
@  #02 @064   ----------------------------------------
 .byte   W12
 .byte   Dn3
 .byte   W12
 .byte   W12
 .byte   Cs3
 .byte   W24
 .byte   N56 ,Bn2
 .byte   W12
 .byte   W24
@  #02 @065   ----------------------------------------
 .byte   W24
 .byte   N68 ,As2
 .byte   W72
@  #02 @066   ----------------------------------------
 .byte   PATT
  .word Label_01403B90
@  #02 @067   ----------------------------------------
 .byte   N11 ,Bn2 ,v080
 .byte   W12
 .byte   Cs3
 .byte   W12
 .byte   N23
 .byte   W24
 .byte   N11
 .byte   W12
 .byte   N23 ,Bn2
 .byte   W12
 .byte   W12
 .byte   N11 ,An2
 .byte   W12
@  #02 @068   ----------------------------------------
 .byte   N11
 .byte   W12
 .byte   Bn2
 .byte   W12
 .byte   N32
 .byte   W36
 .byte   N23 ,Gn2
 .byte   W12
 .byte   W12
 .byte   N11
 .byte   W12
@  #02 @069   ----------------------------------------
 .byte   PATT
  .word Label_01403BB2
@  #02 @070   ----------------------------------------
 .byte   W12
 .byte   N11 ,An2 ,v080
 .byte   W12
 .byte   N23 ,Bn2
 .byte   W24
 .byte   N11
 .byte   W12
 .byte   N23 ,Fs2
 .byte   W12
 .byte   W12
 .byte   N11 ,Gn2
 .byte   W12
@  #02 @071   ----------------------------------------
 .byte   Bn2
 .byte   W12
 .byte   Cs3
 .byte   W12
 .byte   N23
 .byte   W24
 .byte   N11
 .byte   W12
 .byte   N32 ,Bn2
 .byte   W12
 .byte   W24
@  #02 @072   ----------------------------------------
 .byte   PATT
  .word Label_01403BC7
@  #02 @073   ----------------------------------------
 .byte   W23
 .byte   EOT
 .byte   Gn2
 .byte   W36
 .byte   W01
 .byte   N11 ,Fs2 ,v080
 .byte   W12
 .byte   N23 ,Bn2
 .byte   W24
@  #02 @074   ----------------------------------------
 .byte   PATT
  .word Label_01403BDA
@  #02 @075   ----------------------------------------
 .byte   PATT
  .word Label_01403BE2
@  #02 @076   ----------------------------------------
 .byte   W96
@  #02 @077   ----------------------------------------
 .byte   W96
@  #02 @078   ----------------------------------------
 .byte   PATT
  .word Label_01403BEA
@  #02 @079   ----------------------------------------
 .byte   PATT
  .word Label_01403C01
@  #02 @080   ----------------------------------------
 .byte   W96
@  #02 @081   ----------------------------------------
 .byte   W96
@  #02 @082   ----------------------------------------
 .byte   W96
@  #02 @083   ----------------------------------------
 .byte   W96
@  #02 @084   ----------------------------------------
 .byte   PATT
  .word Label_01403C12
@  #02 @085   ----------------------------------------
 .byte   PATT
  .word Label_01403C22
@  #02 @086   ----------------------------------------
 .byte   PATT
  .word Label_01403C2F
@  #02 @087   ----------------------------------------
 .byte   PATT
  .word Label_01403C3F
@  #02 @088   ----------------------------------------
 .byte   PATT
  .word Label_01403C59
@  #02 @089   ----------------------------------------
 .byte   W96
@  #02 @090   ----------------------------------------
 .byte   W96
@  #02 @091   ----------------------------------------
 .byte   W96
@  #02 @092   ----------------------------------------
 .byte   W96
@  #02 @093   ----------------------------------------
 .byte   W96
@  #02 @094   ----------------------------------------
 .byte   W96
@  #02 @095   ----------------------------------------
 .byte   W96
@  #02 @096   ----------------------------------------
 .byte   W96
@  #02 @097   ----------------------------------------
 .byte   W96
@  #02 @098   ----------------------------------------
 .byte   W96
@  #02 @099   ----------------------------------------
 .byte   W96
@  #02 @100   ----------------------------------------
 .byte   W96
@  #02 @101   ----------------------------------------
 .byte   W96
@  #02 @102   ----------------------------------------
 .byte   W96
@  #02 @103   ----------------------------------------
 .byte   W96
@  #02 @104   ----------------------------------------
 .byte   W96
@  #02 @105   ----------------------------------------
 .byte   W96
@  #02 @106   ----------------------------------------
 .byte   W96
@  #02 @107   ----------------------------------------
 .byte   W96
@  #02 @108   ----------------------------------------
 .byte   PATT
  .word Label_01403BEA
@  #02 @109   ----------------------------------------
 .byte   PATT
  .word Label_01403C01
@  #02 @110   ----------------------------------------
 .byte   W96
@  #02 @111   ----------------------------------------
 .byte   W96
@  #02 @112   ----------------------------------------
 .byte   W96
@  #02 @113   ----------------------------------------
 .byte   W96
@  #02 @114   ----------------------------------------
 .byte   PATT
  .word Label_01403C12
@  #02 @115   ----------------------------------------
 .byte   PATT
  .word Label_01403C22
@  #02 @116   ----------------------------------------
 .byte   PATT
  .word Label_01403C2F
@  #02 @117   ----------------------------------------
 .byte   PATT
  .word Label_01403C3F
@  #02 @118   ----------------------------------------
 .byte   PATT
  .word Label_01403C59
@  #02 @119   ----------------------------------------
 .byte   W96
@  #02 @120   ----------------------------------------
 .byte   W96
@  #02 @121   ----------------------------------------
 .byte   W96
@  #02 @122   ----------------------------------------
 .byte   W96
@  #02 @123   ----------------------------------------
 .byte   W96
@  #02 @124   ----------------------------------------
 .byte   PATT
  .word Label_01403BEA
@  #02 @125   ----------------------------------------
 .byte   PATT
  .word Label_01403C01
@  #02 @126   ----------------------------------------
 .byte   W96
@  #02 @127   ----------------------------------------
 .byte   W96
@  #02 @128   ----------------------------------------
 .byte   W96
@  #02 @129   ----------------------------------------
 .byte   W96
@  #02 @130   ----------------------------------------
 .byte   PATT
  .word Label_01403C12
@  #02 @131   ----------------------------------------
 .byte   PATT
  .word Label_01403C22
@  #02 @132   ----------------------------------------
 .byte   PATT
  .word Label_01403C2F
@  #02 @133   ----------------------------------------
 .byte   PATT
  .word Label_01403C3F
@  #02 @134   ----------------------------------------
 .byte   PATT
  .word Label_01403C59
@  #02 @135   ----------------------------------------
 .byte   W96
@  #02 @136   ----------------------------------------
 .byte   W96
@  #02 @137   ----------------------------------------
 .byte   W96
@  #02 @138   ----------------------------------------
 .byte   W96
@  #02 @139   ----------------------------------------
 .byte   W96
@  #02 @140   ----------------------------------------
 .byte   W96
@  #02 @141   ----------------------------------------
 .byte   W96
@  #02 @142   ----------------------------------------
 .byte   W96
@  #02 @143   ----------------------------------------
 .byte   W96
@  #02 @144   ----------------------------------------
 .byte   W96
@  #02 @145   ----------------------------------------
 .byte   W96
@  #02 @146   ----------------------------------------
 .byte   GOTO
  .word Label_01403B68
@  #02 @147   ----------------------------------------
 .byte   W23
 .byte   FINE

@**************** Track 3 (Midi-Chn.2) ****************@

song04_003:
@  #03 @000   ----------------------------------------
 .byte   KEYSH , song04_key+0
 .byte   VOICE , 105
 .byte   VOL , 44*song04_mvl/mxv
 .byte   PAN , c_v+0
 .byte   VOL , 45*song04_mvl/mxv
 .byte   PAN , c_v+0
 .byte   W12
 .byte   N23 ,Bn2 ,v127
 .byte   N23 ,Bn3
 .byte   N23 ,Bn4
 .byte   W02
 .byte   W01
 .byte   W01
 .byte   W01
 .byte   W19
 .byte   N11 ,Bn2 ,v096
 .byte   N11 ,Bn3
 .byte   N11 ,Bn4
 .byte   W12
 .byte   Cs3
 .byte   N11 ,Cs4
 .byte   N11 ,Cs5
 .byte   W24
 .byte   N07 ,Dn3 ,v116
 .byte   N07 ,Dn4
 .byte   N07 ,Dn5
 .byte   W01
 .byte   W01
 .byte   W01
 .byte   W01
 .byte   W01
 .byte   W19
@  #03 @001   ----------------------------------------
Label_01403DE0:
 .byte   W12
 .byte   N23 ,An2 ,v127
 .byte   N23 ,An3
 .byte   N23 ,An4
 .byte   W02
 .byte   W01
 .byte   W01
 .byte   W01
 .byte   W19
 .byte   N11 ,An2 ,v096
 .byte   N11 ,An3
 .byte   N11 ,An4
 .byte   W12
 .byte   Bn2
 .byte   N11 ,Bn3
 .byte   N11 ,Bn4
 .byte   W24
 .byte   N07 ,Cn3 ,v116
 .byte   N07 ,Cn4
 .byte   N07 ,Cn5
 .byte   W01
 .byte   W01
 .byte   W01
 .byte   W01
 .byte   W01
 .byte   W19
 .byte   PEND 
@  #03 @002   ----------------------------------------
Label_01403E09:
 .byte   W12
 .byte   N23 ,Bn2 ,v127
 .byte   N23 ,Bn3
 .byte   N23 ,Bn4
 .byte   W02
 .byte   W01
 .byte   W01
 .byte   W01
 .byte   W19
 .byte   N11 ,Bn2 ,v096
 .byte   N11 ,Bn3
 .byte   N11 ,Bn4
 .byte   W12
 .byte   Cs3
 .byte   N11 ,Cs4
 .byte   N11 ,Cs5
 .byte   W24
 .byte   N05 ,Dn3
 .byte   N05 ,Dn4
 .byte   N05 ,Dn5
 .byte   W12
 .byte   N11 ,Bn2
 .byte   N11 ,Bn3
 .byte   N11 ,Bn4
 .byte   W12
 .byte   PEND 
@  #03 @003   ----------------------------------------
Label_01403E33:
 .byte   N11 ,Fs3 ,v096
 .byte   N11 ,Fs4
 .byte   N11 ,Fs5
 .byte   W12
 .byte   N44 ,En3
 .byte   N44 ,En4
 .byte   N44 ,En5
 .byte   W48
 .byte   N05 ,Fs3
 .byte   N05 ,Fs4
 .byte   N05 ,Fs5
 .byte   W24
 .byte   An2
 .byte   N05 ,An3
 .byte   N05 ,An4
 .byte   W12
 .byte   PEND 
@  #03 @004   ----------------------------------------
Label_01403E50:
 .byte   W12
 .byte   N23 ,Bn2 ,v127
 .byte   N23 ,Bn3
 .byte   N23 ,Bn4
 .byte   W02
 .byte   W01
 .byte   W01
 .byte   W01
 .byte   W19
 .byte   N11 ,Bn2 ,v096
 .byte   N11 ,Bn3
 .byte   N11 ,Bn4
 .byte   W12
 .byte   Cs3
 .byte   N11 ,Cs4
 .byte   N11 ,Cs5
 .byte   W24
 .byte   N07 ,Dn3 ,v116
 .byte   N07 ,Dn4
 .byte   N07 ,Dn5
 .byte   W01
 .byte   W01
 .byte   W01
 .byte   W01
 .byte   W01
 .byte   W19
 .byte   PEND 
@  #03 @005   ----------------------------------------
 .byte   PATT
  .word Label_01403DE0
@  #03 @006   ----------------------------------------
 .byte   PATT
  .word Label_01403E09
@  #03 @007   ----------------------------------------
Label_01403E83:
 .byte   N11 ,Fs3 ,v096
 .byte   N11 ,Fs4
 .byte   N11 ,Fs5
 .byte   W12
 .byte   N44 ,En3
 .byte   N44 ,En4
 .byte   N44 ,En5
 .byte   W48
 .byte   N05 ,Fs3
 .byte   N05 ,Fs4
 .byte   N05 ,Fs5
 .byte   W24
 .byte   N23 ,An2
 .byte   N23 ,An3
 .byte   N23 ,An4
 .byte   W12
 .byte   PEND 
@  #03 @008   ----------------------------------------
Label_01403EA1:
 .byte   W12
 .byte   N11 ,Bn2 ,v127
 .byte   N11 ,Bn3
 .byte   N11 ,Bn4
 .byte   W02
 .byte   W01
 .byte   W01
 .byte   W01
 .byte   W07
 .byte   N05 ,Bn2 ,v080
 .byte   W12
 .byte   N05
 .byte   W06
 .byte   N05
 .byte   W18
 .byte   N05
 .byte   W12
 .byte   N05
 .byte   W06
 .byte   N05
 .byte   W18
@  #03 @009   ----------------------------------------
Label_01403EBC:
 .byte   N05 ,Bn2 ,v080
 .byte   W12
 .byte   N05
 .byte   W06
 .byte   N05
 .byte   W18
 .byte   N05
 .byte   W12
 .byte   N05
 .byte   W06
 .byte   N05
 .byte   W18
 .byte   N05
 .byte   W06
 .byte   N05
 .byte   W18
 .byte   PEND 
@  #03 @010   ----------------------------------------
Label_01403ECF:
 .byte   N05 ,Cn3 ,v080
 .byte   W06
 .byte   N05
 .byte   W18
 .byte   Bn2
 .byte   W12
 .byte   N05
 .byte   W06
 .byte   N05
 .byte   W18
 .byte   N05
 .byte   W12
 .byte   N05
 .byte   W06
 .byte   N05
 .byte   W18
 .byte   PEND 
@  #03 @011   ----------------------------------------
Label_01403EE2:
 .byte   N05 ,Bn2 ,v080
 .byte   W12
 .byte   N05
 .byte   W06
 .byte   N05
 .byte   W18
 .byte   N05
 .byte   W12
 .byte   N05
 .byte   W06
 .byte   N05
 .byte   W42
 .byte   PEND 
@  #03 @012   ----------------------------------------
 .byte   W96
@  #03 @013   ----------------------------------------
 .byte   W96
@  #03 @014   ----------------------------------------
 .byte   W96
@  #03 @015   ----------------------------------------
 .byte   W96
@  #03 @016   ----------------------------------------
 .byte   W96
@  #03 @017   ----------------------------------------
 .byte   W96
@  #03 @018   ----------------------------------------
 .byte   W96
@  #03 @019   ----------------------------------------
 .byte   W96
@  #03 @020   ----------------------------------------
 .byte   W96
@  #03 @021   ----------------------------------------
 .byte   W96
@  #03 @022   ----------------------------------------
 .byte   W96
@  #03 @023   ----------------------------------------
 .byte   W96
@  #03 @024   ----------------------------------------
 .byte   W96
@  #03 @025   ----------------------------------------
 .byte   W96
@  #03 @026   ----------------------------------------
 .byte   W96
@  #03 @027   ----------------------------------------
 .byte   W96
@  #03 @028   ----------------------------------------
 .byte   W96
@  #03 @029   ----------------------------------------
 .byte   W84
 .byte   N02 ,Fs2 ,v096
 .byte   N02 ,Fs3
 .byte   W02
 .byte   Gn2
 .byte   N02 ,Gn3
 .byte   W02
 .byte   Gs2
 .byte   N02 ,Gs3
 .byte   W03
 .byte   An2
 .byte   N02 ,An3
 .byte   W02
 .byte   As2
 .byte   N02 ,As3
 .byte   W02
 .byte   Bn2
 .byte   N02 ,Bn3
 .byte   W01
@  #03 @030   ----------------------------------------
 .byte   W02
 .byte   Cn3
 .byte   N02 ,Cn4
 .byte   W02
 .byte   Cs3
 .byte   N02 ,Cs4
 .byte   W03
 .byte   Dn3
 .byte   N02 ,Dn4
 .byte   W02
 .byte   Ds3
 .byte   N02 ,Ds4
 .byte   W02
 .byte   En3
 .byte   N02 ,En4
 .byte   W03
 .byte   Fn3
 .byte   N02 ,Fn4
 .byte   W02
 .byte   Fs3
 .byte   N02 ,Fs4
 .byte   W03
 .byte   Gn3
 .byte   N02 ,Gn4
 .byte   W02
 .byte   Gs3
 .byte   N02 ,Gs4
 .byte   W03
 .byte   N80 ,Gn2
 .byte   N68 ,An3
 .byte   N68 ,An4
 .byte   W72
@  #03 @031   ----------------------------------------
 .byte   W12
 .byte   TIE ,An2
 .byte   N32 ,An3
 .byte   N32 ,An4
 .byte   W12
 .byte   W36
 .byte   N23 ,An3
 .byte   N23 ,An4
 .byte   W24
 .byte   N11 ,Gn3
 .byte   N11 ,Gn4
 .byte   W12
@  #03 @032   ----------------------------------------
 .byte   Fs3
 .byte   N11 ,Fs4
 .byte   W12
 .byte   En3
 .byte   N11 ,En4
 .byte   W11
 .byte   EOT
 .byte   An2
 .byte   W01
 .byte   N80 ,Bn2
 .byte   N56 ,Fs3
 .byte   N56 ,Fs4
 .byte   W48
 .byte   W24
@  #03 @033   ----------------------------------------
 .byte   W12
 .byte   TIE ,Gs2
 .byte   N23 ,Dn3
 .byte   N23 ,Dn4
 .byte   W12
 .byte   W12
 .byte   N02 ,Dn3
 .byte   N02 ,Dn4
 .byte   W03
 .byte   Ds3
 .byte   N02 ,Ds4
 .byte   W03
 .byte   En3
 .byte   N02 ,En4
 .byte   W03
 .byte   Fn3
 .byte   N02 ,Fn4
 .byte   W03
 .byte   N11 ,Fs3
 .byte   N11 ,Fs4
 .byte   W12
 .byte   Bn2
 .byte   N11 ,Bn3
 .byte   W24
 .byte   TIE ,Dn3
 .byte   TIE ,Dn4
 .byte   W12
@  #03 @034   ----------------------------------------
 .byte   W23
 .byte   EOT
 .byte   Gs2
 .byte   W01
 .byte   N92 ,En2
 .byte   W72
@  #03 @035   ----------------------------------------
 .byte   W11
 .byte   EOT
 .byte   Dn3 ,v074
 .byte   W01
 .byte   N11 ,Dn3
 .byte   N11 ,Dn4
 .byte   W12
 .byte   N92 ,An2
 .byte   N23 ,Cs3
 .byte   N23 ,Cs4
 .byte   W24
 .byte   Dn3
 .byte   N23 ,Dn4
 .byte   W24
 .byte   N44 ,An3
 .byte   N44 ,An4
 .byte   W24
@  #03 @036   ----------------------------------------
 .byte   W24
 .byte   Bn2
 .byte   N44 ,Bn3
 .byte   N44 ,Bn4
 .byte   W48
 .byte   As2
 .byte   N44 ,As3
 .byte   N44 ,As4
 .byte   W24
@  #03 @037   ----------------------------------------
 .byte   W24
 .byte   An2
 .byte   N44 ,An3
 .byte   N44 ,An4
 .byte   W48
 .byte   N24 ,Dn3
 .byte   W12
 .byte   N05 ,Bn2
 .byte   N05 ,Bn3
 .byte   W05
 .byte   Cn3
 .byte   N05 ,Cn4
 .byte   W05
 .byte   Cs3
 .byte   N05 ,Cs4
 .byte   W02
@  #03 @038   ----------------------------------------
 .byte   W03
 .byte   Dn4
 .byte   W05
 .byte   Ds3
 .byte   N05 ,Ds4
 .byte   W05
 .byte   En3
 .byte   N05 ,En4
 .byte   W05
 .byte   Fn3
 .byte   N05 ,Fn4
 .byte   W06
 .byte   TIE ,Gn2
 .byte   N11 ,Fs3
 .byte   N11 ,Fs4
 .byte   W24
 .byte   Fs3
 .byte   N11 ,Fs4
 .byte   W24
 .byte   Fs3
 .byte   N11 ,Fs4
 .byte   W24
@  #03 @039   ----------------------------------------
 .byte   W12
 .byte   N05 ,Fs3
 .byte   N05 ,Fs4
 .byte   W12
 .byte   Gn3
 .byte   N05 ,Gn4
 .byte   W12
 .byte   Fs3
 .byte   N05 ,Fs4
 .byte   W12
 .byte   En3
 .byte   N05 ,En4
 .byte   W12
 .byte   Dn3
 .byte   N05 ,Dn4
 .byte   W36
@  #03 @040   ----------------------------------------
 .byte   W23
 .byte   EOT
 .byte   Gn2
 .byte   W01
 .byte   N80 ,Fs2
 .byte   N11 ,En3
 .byte   N11 ,En4
 .byte   W24
 .byte   En3
 .byte   N11 ,En4
 .byte   W24
 .byte   En3
 .byte   N11 ,En4
 .byte   W24
@  #03 @041   ----------------------------------------
 .byte   W12
 .byte   TIE ,Bn2
 .byte   N05 ,Dn3
 .byte   N05 ,Dn4
 .byte   W24
 .byte   Cs3
 .byte   N05 ,Cs4
 .byte   W24
 .byte   En3
 .byte   N05 ,En4
 .byte   W12
 .byte   Fs3
 .byte   N05 ,Fs4
 .byte   W12
 .byte   En3
 .byte   N05 ,En4
 .byte   W12
@  #03 @042   ----------------------------------------
 .byte   Dn3
 .byte   N05 ,Dn4
 .byte   W12
 .byte   Cs3
 .byte   N05 ,Cs4
 .byte   W11
 .byte   EOT
 .byte   Bn2
 .byte   W01
 .byte   N92 ,En2
 .byte   N92 ,Bn2
 .byte   N92 ,Bn3
 .byte   W72
@  #03 @043   ----------------------------------------
 .byte   W24
 .byte   Fs2
 .byte   N32 ,Cs3
 .byte   N32 ,Cs4
 .byte   W36
 .byte   Bn2
 .byte   N32 ,Bn3
 .byte   W12
 .byte   W24
@  #03 @044   ----------------------------------------
 .byte   N23 ,Cs3
 .byte   N23 ,Cs4
 .byte   W24
 .byte   N92 ,Gn2
 .byte   N68 ,Dn3
 .byte   N68 ,Dn4
 .byte   W72
@  #03 @045   ----------------------------------------
 .byte   W12
 .byte   N11 ,Cs3
 .byte   N11 ,Cs4
 .byte   W12
 .byte   N80 ,An2
 .byte   W12
 .byte   N11 ,Cs3
 .byte   N11 ,Cs4
 .byte   W12
 .byte   Dn3
 .byte   N11 ,Dn4
 .byte   W12
 .byte   Cs3
 .byte   N11 ,Cs4
 .byte   W12
 .byte   N32 ,An3
 .byte   N32 ,An4
 .byte   W24
@  #03 @046   ----------------------------------------
 .byte   PATT
  .word Label_01403E50
@  #03 @047   ----------------------------------------
 .byte   PATT
  .word Label_01403DE0
@  #03 @048   ----------------------------------------
 .byte   PATT
  .word Label_01403E09
@  #03 @049   ----------------------------------------
 .byte   PATT
  .word Label_01403E33
@  #03 @050   ----------------------------------------
 .byte   PATT
  .word Label_01403E50
@  #03 @051   ----------------------------------------
 .byte   PATT
  .word Label_01403DE0
@  #03 @052   ----------------------------------------
 .byte   PATT
  .word Label_01403E09
@  #03 @053   ----------------------------------------
 .byte   PATT
  .word Label_01403E33
@  #03 @054   ----------------------------------------
 .byte   W12
 .byte   N12 ,Bn2 ,v127
 .byte   N32 ,Bn3
 .byte   N32 ,Bn4
 .byte   W02
 .byte   W01
 .byte   W01
 .byte   W01
 .byte   W07
 .byte   N05 ,Bn2 ,v080
 .byte   W12
 .byte   N05
 .byte   W06
 .byte   N05
 .byte   W18
 .byte   N05
 .byte   W12
 .byte   N05
 .byte   W06
 .byte   N05
 .byte   W18
@  #03 @055   ----------------------------------------
 .byte   PATT
  .word Label_01403EBC
@  #03 @056   ----------------------------------------
 .byte   PATT
  .word Label_01403ECF
@  #03 @057   ----------------------------------------
 .byte   PATT
  .word Label_01403EE2
@  #03 @058   ----------------------------------------
 .byte   W96
@  #03 @059   ----------------------------------------
 .byte   W96
@  #03 @060   ----------------------------------------
 .byte   W96
@  #03 @061   ----------------------------------------
 .byte   W96
@  #03 @062   ----------------------------------------
 .byte   W96
@  #03 @063   ----------------------------------------
 .byte   W96
@  #03 @064   ----------------------------------------
 .byte   W96
@  #03 @065   ----------------------------------------
 .byte   W96
@  #03 @066   ----------------------------------------
 .byte   W96
@  #03 @067   ----------------------------------------
 .byte   W96
@  #03 @068   ----------------------------------------
 .byte   W96
@  #03 @069   ----------------------------------------
 .byte   W96
@  #03 @070   ----------------------------------------
 .byte   W96
@  #03 @071   ----------------------------------------
 .byte   W96
@  #03 @072   ----------------------------------------
 .byte   W96
@  #03 @073   ----------------------------------------
 .byte   W96
@  #03 @074   ----------------------------------------
 .byte   W96
@  #03 @075   ----------------------------------------
 .byte   W84
 .byte   N02 ,Fs3 ,v080
 .byte   W02
 .byte   Gn3
 .byte   W02
 .byte   Gs3
 .byte   W03
 .byte   An3
 .byte   W02
 .byte   As3
 .byte   W02
 .byte   Bn3
 .byte   W01
@  #03 @076   ----------------------------------------
 .byte   W02
 .byte   Cn4
 .byte   W02
 .byte   Cs4
 .byte   W03
 .byte   Dn4
 .byte   W02
 .byte   Ds4
 .byte   W02
 .byte   En4
 .byte   W03
 .byte   Fn4
 .byte   W02
 .byte   Fs4
 .byte   W03
 .byte   Gn4
 .byte   W02
 .byte   Gs4
 .byte   W03
 .byte   N80 ,Gn2
 .byte   N68 ,An3
 .byte   N68 ,An4
 .byte   W72
@  #03 @077   ----------------------------------------
Label_0140410C:
 .byte   W12
 .byte   TIE ,An2 ,v080
 .byte   N32 ,An3
 .byte   N32 ,An4
 .byte   W12
 .byte   W36
 .byte   N23 ,An3
 .byte   N23 ,An4
 .byte   W24
 .byte   N11 ,Gn3
 .byte   N11 ,Gn4
 .byte   W12
 .byte   PEND 
@  #03 @078   ----------------------------------------
Label_01404121:
 .byte   N11 ,Fs3 ,v080
 .byte   N11 ,Fs4
 .byte   W12
 .byte   En3
 .byte   N11 ,En4
 .byte   W11
 .byte   PEND 
 .byte   EOT
 .byte   An2
 .byte   W01
 .byte   N80 ,Bn2
 .byte   N56 ,Fs3
 .byte   N56 ,Fs4
 .byte   W48
 .byte   W24
@  #03 @079   ----------------------------------------
Label_01404137:
 .byte   W12
 .byte   TIE ,Gs2 ,v080
 .byte   N23 ,Dn3
 .byte   N23 ,Dn4
 .byte   W12
 .byte   W12
 .byte   N02 ,Dn3
 .byte   N02 ,Dn4
 .byte   W03
 .byte   Ds3
 .byte   N02 ,Ds4
 .byte   W03
 .byte   En3
 .byte   N02 ,En4
 .byte   W03
 .byte   Fn3
 .byte   N02 ,Fn4
 .byte   W03
 .byte   N11 ,Fs3
 .byte   N11 ,Fs4
 .byte   W12
 .byte   N05 ,Bn2
 .byte   N05 ,Bn3
 .byte   W24
 .byte   TIE ,Dn3
 .byte   TIE ,Dn4
 .byte   W12
 .byte   PEND 
@  #03 @080   ----------------------------------------
 .byte   W23
 .byte   EOT
 .byte   Gs2
 .byte   W01
 .byte   N92 ,En2
 .byte   W72
@  #03 @081   ----------------------------------------
 .byte   W11
 .byte   EOT
 .byte   Dn3 ,v074
 .byte   W01
 .byte   N11 ,Dn3
 .byte   N11 ,Dn4
 .byte   W12
 .byte   N92 ,An2
 .byte   N23 ,Cs3
 .byte   N23 ,Cs4
 .byte   W24
 .byte   Dn3
 .byte   N23 ,Dn4
 .byte   W24
 .byte   N44 ,An3
 .byte   N44 ,An4
 .byte   W24
@  #03 @082   ----------------------------------------
Label_01404183:
 .byte   W24
 .byte   N44 ,Bn2 ,v080
 .byte   N44 ,Bn3
 .byte   N44 ,Bn4
 .byte   W48
 .byte   As2
 .byte   N44 ,As3
 .byte   N44 ,As4
 .byte   W24
 .byte   PEND 
@  #03 @083   ----------------------------------------
Label_01404193:
 .byte   W24
 .byte   N44 ,An2 ,v080
 .byte   N44 ,An3
 .byte   N44 ,An4
 .byte   W48
 .byte   N24 ,Dn3
 .byte   W12
 .byte   N05 ,Bn2
 .byte   N05 ,Bn3
 .byte   W05
 .byte   Cn3
 .byte   N05 ,Cn4
 .byte   W05
 .byte   Cs3
 .byte   N05 ,Cs4
 .byte   W02
 .byte   PEND 
@  #03 @084   ----------------------------------------
Label_014041AD:
 .byte   W03
 .byte   N05 ,Dn4 ,v080
 .byte   W05
 .byte   Ds3
 .byte   N05 ,Ds4
 .byte   W05
 .byte   En3
 .byte   N05 ,En4
 .byte   W05
 .byte   Fn3
 .byte   N05 ,Fn4
 .byte   W06
 .byte   TIE ,Gn2
 .byte   N11 ,Fs3
 .byte   N11 ,Fs4
 .byte   W24
 .byte   Fs3
 .byte   N11 ,Fs4
 .byte   W24
 .byte   Fs3
 .byte   N11 ,Fs4
 .byte   W24
 .byte   PEND 
@  #03 @085   ----------------------------------------
Label_014041CE:
 .byte   W12
 .byte   N05 ,Fs3 ,v080
 .byte   N05 ,Fs4
 .byte   W12
 .byte   Gn3
 .byte   N05 ,Gn4
 .byte   W12
 .byte   Fs3
 .byte   N05 ,Fs4
 .byte   W12
 .byte   En3
 .byte   N05 ,En4
 .byte   W12
 .byte   Dn3
 .byte   N05 ,Dn4
 .byte   W36
 .byte   PEND 
@  #03 @086   ----------------------------------------
 .byte   W23
 .byte   EOT
 .byte   Gn2
 .byte   W01
 .byte   N80 ,Fs2
 .byte   N11 ,En3
 .byte   N11 ,En4
 .byte   W24
 .byte   En3
 .byte   N11 ,En4
 .byte   W24
 .byte   En3
 .byte   N11 ,En4
 .byte   W24
@  #03 @087   ----------------------------------------
Label_014041F9:
 .byte   W12
 .byte   TIE ,Bn2 ,v080
 .byte   N05 ,Dn3
 .byte   N05 ,Dn4
 .byte   W24
 .byte   Cs3
 .byte   N05 ,Cs4
 .byte   W24
 .byte   En3
 .byte   N05 ,En4
 .byte   W12
 .byte   Fs3
 .byte   N05 ,Fs4
 .byte   W12
 .byte   En3
 .byte   N05 ,En4
 .byte   W12
 .byte   PEND 
@  #03 @088   ----------------------------------------
Label_01404213:
 .byte   N05 ,Dn3 ,v080
 .byte   N05 ,Dn4
 .byte   W12
 .byte   Cs3
 .byte   N05 ,Cs4
 .byte   W11
 .byte   PEND 
 .byte   EOT
 .byte   Bn2
 .byte   W01
 .byte   N92 ,En2
 .byte   N92 ,Bn2
 .byte   N92 ,Bn3
 .byte   W72
@  #03 @089   ----------------------------------------
Label_01404228:
 .byte   W24
 .byte   N92 ,Fs2 ,v080
 .byte   N32 ,Cs3
 .byte   N32 ,Cs4
 .byte   W36
 .byte   Bn2
 .byte   N32 ,Bn3
 .byte   W12
 .byte   W24
 .byte   PEND 
@  #03 @090   ----------------------------------------
Label_01404237:
 .byte   N23 ,Cs3 ,v080
 .byte   N23 ,Cs4
 .byte   W24
 .byte   N92 ,Gn2
 .byte   N68 ,Dn3
 .byte   N68 ,Dn4
 .byte   W72
 .byte   PEND 
@  #03 @091   ----------------------------------------
 .byte   W12
 .byte   N11 ,Cs3
 .byte   N11 ,Cs4
 .byte   W12
 .byte   N80 ,An2
 .byte   W12
 .byte   N11 ,Cs3
 .byte   N11 ,Cs4
 .byte   W12
 .byte   Dn3
 .byte   N11 ,Dn4
 .byte   W12
 .byte   Cs3
 .byte   N11 ,Cs4
 .byte   W12
 .byte   N32 ,An3
 .byte   N32 ,An4
 .byte   W24
@  #03 @092   ----------------------------------------
 .byte   W12
 .byte   N11 ,Bn2 ,v120
 .byte   N11 ,Bn3
 .byte   N11 ,Bn4
 .byte   W01
 .byte   W01
 .byte   W01
 .byte   W01
 .byte   W01
 .byte   W78
 .byte   W01
@  #03 @093   ----------------------------------------
 .byte   W96
@  #03 @094   ----------------------------------------
 .byte   W96
@  #03 @095   ----------------------------------------
 .byte   W96
@  #03 @096   ----------------------------------------
 .byte   W24
 .byte   N92 ,Gn2 ,v052
 .byte   N92 ,Bn2
 .byte   N92 ,Dn3
 .byte   W72
@  #03 @097   ----------------------------------------
 .byte   W24
 .byte   Fs2
 .byte   N92 ,An2
 .byte   N92 ,Cs3
 .byte   W72
@  #03 @098   ----------------------------------------
 .byte   W24
 .byte   N44 ,En2
 .byte   N44 ,Bn2
 .byte   N92 ,Dn3
 .byte   W48
 .byte   N44 ,An2
 .byte   N44 ,Cs3
 .byte   W24
@  #03 @099   ----------------------------------------
 .byte   W24
 .byte   N92 ,Fs2
 .byte   N92 ,Bn2
 .byte   N44 ,En3
 .byte   W48
 .byte   Dn3
 .byte   W24
@  #03 @100   ----------------------------------------
 .byte   W24
 .byte   N92 ,Gn2
 .byte   N92 ,Bn2
 .byte   N92 ,Gn3
 .byte   W72
@  #03 @101   ----------------------------------------
 .byte   W24
 .byte   Fs2
 .byte   N92 ,Cs3
 .byte   N92 ,Fs3
 .byte   W72
@  #03 @102   ----------------------------------------
 .byte   W24
 .byte   TIE ,En2
 .byte   TIE ,Bn2
 .byte   TIE ,Gs3
 .byte   W72
@  #03 @103   ----------------------------------------
 .byte   W96
@  #03 @104   ----------------------------------------
 .byte   W23
 .byte   EOT
 .byte   En2 ,v059
 .byte   Gs3
 .byte   W01
 .byte   N92 ,Gn2
 .byte   N92 ,Bn2
 .byte   N92 ,Gn3
 .byte   W72
@  #03 @105   ----------------------------------------
 .byte   W84
 .byte   N02 ,Fs2 ,v080
 .byte   N02 ,Fs3
 .byte   W02
 .byte   Gn2
 .byte   N02 ,Gn3
 .byte   W02
 .byte   Gs2
 .byte   N02 ,Gs3
 .byte   W03
 .byte   An2
 .byte   N02 ,An3
 .byte   W02
 .byte   As2
 .byte   N02 ,As3
 .byte   W02
 .byte   Bn2
 .byte   N02 ,Bn3
 .byte   W01
@  #03 @106   ----------------------------------------
 .byte   W02
 .byte   Cn3
 .byte   N02 ,Cn4
 .byte   W02
 .byte   Cs3
 .byte   N02 ,Cs4
 .byte   W03
 .byte   Dn3
 .byte   N02 ,Dn4
 .byte   W02
 .byte   Ds3
 .byte   N02 ,Ds4
 .byte   W02
 .byte   En3
 .byte   N02 ,En4
 .byte   W03
 .byte   Fn3
 .byte   N02 ,Fn4
 .byte   W02
 .byte   Fs3
 .byte   N02 ,Fs4
 .byte   W03
 .byte   Gn3
 .byte   N02 ,Gn4
 .byte   W02
 .byte   Gs3
 .byte   N02 ,Gs4
 .byte   W03
 .byte   N80 ,Gn2
 .byte   N68 ,An3
 .byte   N68 ,An4
 .byte   W72
@  #03 @107   ----------------------------------------
 .byte   PATT
  .word Label_0140410C
@  #03 @108   ----------------------------------------
 .byte   PATT
  .word Label_01404121
@  #03 @109   ----------------------------------------
 .byte   EOT
 .byte   An2
 .byte   W01
 .byte   N80 ,Bn2 ,v080
 .byte   N56 ,Fs3
 .byte   N56 ,Fs4
 .byte   W48
 .byte   W24
@  #03 @110   ----------------------------------------
 .byte   PATT
  .word Label_01404137
@  #03 @111   ----------------------------------------
 .byte   W23
 .byte   EOT
 .byte   Gs2
 .byte   W01
 .byte   N92 ,En2 ,v080
 .byte   W72
@  #03 @112   ----------------------------------------
 .byte   W11
 .byte   EOT
 .byte   Dn3 ,v074
 .byte   W01
 .byte   N11 ,Dn3
 .byte   N11 ,Dn4
 .byte   W12
 .byte   N92 ,An2
 .byte   N23 ,Cs3
 .byte   N23 ,Cs4
 .byte   W24
 .byte   Dn3
 .byte   N23 ,Dn4
 .byte   W24
 .byte   N44 ,An3
 .byte   N44 ,An4
 .byte   W24
@  #03 @113   ----------------------------------------
 .byte   PATT
  .word Label_01404183
@  #03 @114   ----------------------------------------
 .byte   PATT
  .word Label_01404193
@  #03 @115   ----------------------------------------
 .byte   PATT
  .word Label_014041AD
@  #03 @116   ----------------------------------------
 .byte   PATT
  .word Label_014041CE
@  #03 @117   ----------------------------------------
 .byte   W23
 .byte   EOT
 .byte   Gn2
 .byte   W01
 .byte   N80 ,Fs2 ,v080
 .byte   N11 ,En3
 .byte   N11 ,En4
 .byte   W24
 .byte   En3
 .byte   N11 ,En4
 .byte   W24
 .byte   En3
 .byte   N11 ,En4
 .byte   W24
@  #03 @118   ----------------------------------------
 .byte   PATT
  .word Label_014041F9
@  #03 @119   ----------------------------------------
 .byte   PATT
  .word Label_01404213
@  #03 @120   ----------------------------------------
 .byte   EOT
 .byte   Bn2
 .byte   W01
 .byte   N92 ,En2 ,v080
 .byte   N92 ,Bn2
 .byte   N92 ,Bn3
 .byte   W72
@  #03 @121   ----------------------------------------
 .byte   PATT
  .word Label_01404228
@  #03 @122   ----------------------------------------
 .byte   PATT
  .word Label_01404237
@  #03 @123   ----------------------------------------
 .byte   W12
 .byte   N11 ,Cs3 ,v080
 .byte   N11 ,Cs4
 .byte   W12
 .byte   N66 ,An2
 .byte   W12
 .byte   N11 ,Cs3
 .byte   N11 ,Cs4
 .byte   W12
 .byte   Dn3
 .byte   N11 ,Dn4
 .byte   W12
 .byte   Cs3
 .byte   N11 ,Cs4
 .byte   W24
 .byte   N02 ,Fs2
 .byte   N02 ,Fs3
 .byte   W02
 .byte   Gn2
 .byte   N02 ,Gn3
 .byte   W02
 .byte   Gs2
 .byte   N02 ,Gs3
 .byte   W03
 .byte   An3
 .byte   W02
 .byte   As2
 .byte   N02 ,As3
 .byte   W02
 .byte   Bn2
 .byte   N02 ,Bn3
 .byte   W01
@  #03 @124   ----------------------------------------
 .byte   W02
 .byte   Cn3
 .byte   N02 ,Cn4
 .byte   W02
 .byte   Cs3
 .byte   N02 ,Cs4
 .byte   W03
 .byte   Dn3
 .byte   N02 ,Dn4
 .byte   W02
 .byte   Ds3
 .byte   N02 ,Ds4
 .byte   W02
 .byte   En3
 .byte   N02 ,En4
 .byte   W03
 .byte   Fn3
 .byte   N02 ,Fn4
 .byte   W02
 .byte   Fs3
 .byte   N02 ,Fs4
 .byte   W03
 .byte   Gn3
 .byte   N02 ,Gn4
 .byte   W02
 .byte   Gs3
 .byte   N02 ,Gs4
 .byte   W03
 .byte   N92 ,Gn2 ,v064
 .byte   N68 ,An3
 .byte   N68 ,An4
 .byte   W72
@  #03 @125   ----------------------------------------
 .byte   W12
 .byte   N32 ,An3
 .byte   N32 ,An4
 .byte   W12
 .byte   N92 ,An2
 .byte   W36
 .byte   N23 ,An3
 .byte   N23 ,An4
 .byte   W24
 .byte   N11 ,Gn3
 .byte   N11 ,Gn4
 .byte   W12
@  #03 @126   ----------------------------------------
 .byte   Fs3
 .byte   N11 ,Fs4
 .byte   W12
 .byte   En3
 .byte   N11 ,En4
 .byte   W12
 .byte   N80 ,Bn2
 .byte   N56 ,Fs3
 .byte   N56 ,Fs4
 .byte   W48
 .byte   W24
@  #03 @127   ----------------------------------------
 .byte   W12
 .byte   TIE ,Gs2
 .byte   N23 ,Dn3
 .byte   N23 ,Dn4
 .byte   W12
 .byte   W12
 .byte   N02 ,Dn3
 .byte   N02 ,Dn4
 .byte   W03
 .byte   Ds3
 .byte   N02 ,Ds4
 .byte   W03
 .byte   En3
 .byte   N02 ,En4
 .byte   W03
 .byte   Fn3
 .byte   N02 ,Fn4
 .byte   W03
 .byte   N11 ,Fs3
 .byte   N11 ,Fs4
 .byte   W12
 .byte   N05 ,Bn2
 .byte   N05 ,Bn3
 .byte   W24
 .byte   TIE ,Dn3
 .byte   TIE ,Dn4
 .byte   W12
@  #03 @128   ----------------------------------------
 .byte   W23
 .byte   EOT
 .byte   Gs2
 .byte   W01
 .byte   N92 ,En2
 .byte   W72
@  #03 @129   ----------------------------------------
 .byte   W11
 .byte   EOT
 .byte   Dn3 ,v074
 .byte   W01
 .byte   N11 ,Dn3
 .byte   N11 ,Dn4
 .byte   W12
 .byte   N92 ,An2
 .byte   N23 ,Cs3
 .byte   N23 ,Cs4
 .byte   W24
 .byte   Dn3
 .byte   N23 ,Dn4
 .byte   W24
 .byte   N44 ,An3
 .byte   N44 ,An4
 .byte   W24
@  #03 @130   ----------------------------------------
 .byte   W24
 .byte   Bn2
 .byte   N44 ,Bn3
 .byte   N44 ,Bn4
 .byte   W48
 .byte   As2
 .byte   N44 ,As3
 .byte   N44 ,As4
 .byte   W24
@  #03 @131   ----------------------------------------
 .byte   W24
 .byte   An2
 .byte   N44 ,An3
 .byte   N44 ,An4
 .byte   W48
 .byte   N24 ,Dn3
 .byte   W12
 .byte   N05 ,Bn2
 .byte   N05 ,Bn3
 .byte   W05
 .byte   Cn3
 .byte   N05 ,Cn4
 .byte   W05
 .byte   Cs3
 .byte   N05 ,Cs4
 .byte   W02
@  #03 @132   ----------------------------------------
 .byte   W03
 .byte   Dn4
 .byte   W05
 .byte   Ds3
 .byte   N05 ,Ds4
 .byte   W05
 .byte   En3
 .byte   N05 ,En4
 .byte   W05
 .byte   Fn3
 .byte   N05 ,Fn4
 .byte   W06
 .byte   TIE ,Gn2
 .byte   N11 ,Fs3
 .byte   N11 ,Fs4
 .byte   W24
 .byte   Fs3
 .byte   N11 ,Fs4
 .byte   W24
 .byte   Fs3
 .byte   N11 ,Fs4
 .byte   W24
@  #03 @133   ----------------------------------------
 .byte   W12
 .byte   N05 ,Fs3
 .byte   N05 ,Fs4
 .byte   W12
 .byte   Gn3
 .byte   N05 ,Gn4
 .byte   W12
 .byte   Fs3
 .byte   N05 ,Fs4
 .byte   W12
 .byte   En3
 .byte   N05 ,En4
 .byte   W12
 .byte   Dn3
 .byte   N05 ,Dn4
 .byte   W36
@  #03 @134   ----------------------------------------
 .byte   W23
 .byte   EOT
 .byte   Gn2
 .byte   W01
 .byte   N80 ,Fs2
 .byte   N11 ,En3
 .byte   N11 ,En4
 .byte   W24
 .byte   En3
 .byte   N11 ,En4
 .byte   W24
 .byte   En3
 .byte   N11 ,En4
 .byte   W24
@  #03 @135   ----------------------------------------
 .byte   W12
 .byte   TIE ,Bn2
 .byte   N05 ,Dn3
 .byte   N05 ,Dn4
 .byte   W24
 .byte   Cs3
 .byte   N05 ,Cs4
 .byte   W24
 .byte   En3
 .byte   N05 ,En4
 .byte   W12
 .byte   Fs3
 .byte   N05 ,Fs4
 .byte   W12
 .byte   En3
 .byte   N05 ,En4
 .byte   W12
@  #03 @136   ----------------------------------------
 .byte   Dn3
 .byte   N05 ,Dn4
 .byte   W12
 .byte   Cs3
 .byte   N05 ,Cs4
 .byte   W11
 .byte   EOT
 .byte   Bn2
 .byte   W01
 .byte   N92 ,En2
 .byte   N92 ,Bn2
 .byte   N92 ,Bn3
 .byte   W72
@  #03 @137   ----------------------------------------
 .byte   W24
 .byte   Fs2
 .byte   N32 ,Cs3
 .byte   N32 ,Cs4
 .byte   W36
 .byte   Bn2
 .byte   N32 ,Bn3
 .byte   W12
 .byte   W24
@  #03 @138   ----------------------------------------
 .byte   N23 ,Cs3
 .byte   N23 ,Cs4
 .byte   W24
 .byte   N92 ,Gn2
 .byte   N68 ,Dn3
 .byte   N68 ,Dn4
 .byte   W72
@  #03 @139   ----------------------------------------
 .byte   W12
 .byte   N11 ,Cs3
 .byte   N11 ,Cs4
 .byte   W12
 .byte   N68 ,An2
 .byte   W12
 .byte   N11 ,Cs3
 .byte   N11 ,Cs4
 .byte   W12
 .byte   Dn3
 .byte   N11 ,Dn4
 .byte   W12
 .byte   Cs3
 .byte   N11 ,Cs4
 .byte   W12
 .byte   N32 ,An3
 .byte   N32 ,An4
 .byte   W24
@  #03 @140   ----------------------------------------
 .byte   N11 ,An2
 .byte   W12
 .byte   N23 ,Bn2 ,v127
 .byte   N23 ,Bn3
 .byte   N23 ,Bn4
 .byte   W02
 .byte   W01
 .byte   W01
 .byte   W01
 .byte   W19
 .byte   N11 ,Bn2 ,v096
 .byte   N11 ,Bn3
 .byte   N11 ,Bn4
 .byte   W12
 .byte   Cs3
 .byte   N11 ,Cs4
 .byte   N11 ,Cs5
 .byte   W24
 .byte   N07 ,Dn3 ,v116
 .byte   N07 ,Dn4
 .byte   N07 ,Dn5
 .byte   W01
 .byte   W01
 .byte   W01
 .byte   W01
 .byte   W01
 .byte   W19
@  #03 @141   ----------------------------------------
 .byte   PATT
  .word Label_01403DE0
@  #03 @142   ----------------------------------------
 .byte   PATT
  .word Label_01403E09
@  #03 @143   ----------------------------------------
 .byte   PATT
  .word Label_01403E33
@  #03 @144   ----------------------------------------
 .byte   PATT
  .word Label_01403E50
@  #03 @145   ----------------------------------------
 .byte   PATT
  .word Label_01403DE0
@  #03 @146   ----------------------------------------
 .byte   PATT
  .word Label_01403E09
@  #03 @147   ----------------------------------------
 .byte   PATT
  .word Label_01403E83
@  #03 @148   ----------------------------------------
 .byte   GOTO
  .word Label_01403EA1
@  #03 @149   ----------------------------------------
 .byte   W12
 .byte   N11 ,Bn2 ,v127
 .byte   N11 ,Bn3
 .byte   N11 ,Bn4
 .byte   W02
 .byte   W01
 .byte   W01
 .byte   W01
 .byte   W06
 .byte   FINE

@**************** Track 4 (Midi-Chn.3) ****************@

song04_004:
@  #04 @000   ----------------------------------------
 .byte   KEYSH , song04_key+0
 .byte   VOICE , 38
 .byte   VOL , 44*song04_mvl/mxv
 .byte   PAN , c_v+0
 .byte   VOL , 44*song04_mvl/mxv
 .byte   PAN , c_v+0
 .byte   W12
 .byte   N01 ,Bn0 ,v096
 .byte   N01 ,Cn1
 .byte   W01
 .byte   Cs1
 .byte   W02
 .byte   Dn1
 .byte   N01 ,Ds1
 .byte   W01
 .byte   En1
 .byte   W02
 .byte   Fn1
 .byte   N01 ,Fs1
 .byte   W01
 .byte   Gn1
 .byte   W02
 .byte   Gs1
 .byte   N01 ,An1
 .byte   W01
 .byte   As1
 .byte   W02
 .byte   N23 ,Bn1
 .byte   W60
 .byte   N11 ,Bn0
 .byte   W12
@  #04 @001   ----------------------------------------
Label_014045B9:
 .byte   W12
 .byte   N23 ,An0 ,v096
 .byte   W24
 .byte   N11
 .byte   W48
 .byte   N11
 .byte   W12
 .byte   PEND 
@  #04 @002   ----------------------------------------
Label_014045C3:
 .byte   W12
 .byte   N23 ,Bn0 ,v096
 .byte   W24
 .byte   N11
 .byte   W48
 .byte   N11
 .byte   W12
 .byte   PEND 
@  #04 @003   ----------------------------------------
 .byte   W12
 .byte   N23 ,An0
 .byte   W24
 .byte   N11
 .byte   W24
 .byte   Fs0
 .byte   W24
 .byte   An0
 .byte   W12
@  #04 @004   ----------------------------------------
 .byte   W12
 .byte   N01 ,Bn0
 .byte   N01 ,Cn1
 .byte   W01
 .byte   Cs1
 .byte   W02
 .byte   Dn1
 .byte   N01 ,Ds1
 .byte   W01
 .byte   En1
 .byte   W02
 .byte   Fn1
 .byte   N01 ,Fs1
 .byte   W01
 .byte   Gn1
 .byte   W02
 .byte   Gs1
 .byte   N01 ,An1
 .byte   W01
 .byte   As1
 .byte   W02
 .byte   N23 ,Bn1
 .byte   W60
 .byte   N11 ,Bn0
 .byte   W12
@  #04 @005   ----------------------------------------
 .byte   PATT
  .word Label_014045B9
@  #04 @006   ----------------------------------------
 .byte   PATT
  .word Label_014045C3
@  #04 @007   ----------------------------------------
 .byte   W12
 .byte   N23 ,An0 ,v096
 .byte   W24
 .byte   N11
 .byte   W24
 .byte   Fs0
 .byte   W24
 .byte   N23 ,An0
 .byte   W12
@  #04 @008   ----------------------------------------
Label_0140460D:
 .byte   W12
 .byte   N11 ,Bn0 ,v096
 .byte   W12
 .byte   N11
 .byte   W12
 .byte   N11
 .byte   W12
 .byte   N11
 .byte   W12
 .byte   N11
 .byte   W12
 .byte   N11
 .byte   W12
 .byte   N11
 .byte   W12
@  #04 @009   ----------------------------------------
Label_0140461E:
 .byte   N11 ,Bn0 ,v096
 .byte   W12
 .byte   N11
 .byte   W12
 .byte   N11
 .byte   W12
 .byte   N11
 .byte   W12
 .byte   N11
 .byte   W12
 .byte   N11
 .byte   W12
 .byte   N11
 .byte   W12
 .byte   N11
 .byte   W12
 .byte   PEND 
@  #04 @010   ----------------------------------------
 .byte   PATT
  .word Label_0140461E
@  #04 @011   ----------------------------------------
Label_01404636:
 .byte   N11 ,Bn0 ,v096
 .byte   W12
 .byte   N11
 .byte   W12
 .byte   N11
 .byte   W12
 .byte   N11
 .byte   W12
 .byte   N23
 .byte   W48
 .byte   PEND 
@  #04 @012   ----------------------------------------
Label_01404643:
 .byte   W24
 .byte   N11 ,Bn0 ,v096
 .byte   W12
 .byte   N11
 .byte   W12
 .byte   N11
 .byte   W12
 .byte   N11
 .byte   W12
 .byte   N11
 .byte   W12
 .byte   N11
 .byte   W12
 .byte   PEND 
@  #04 @013   ----------------------------------------
Label_01404653:
 .byte   N11 ,Bn0 ,v096
 .byte   W12
 .byte   N11
 .byte   W12
 .byte   Dn1
 .byte   W12
 .byte   N11
 .byte   W12
 .byte   N11
 .byte   W12
 .byte   N11
 .byte   W12
 .byte   N11
 .byte   W12
 .byte   N11
 .byte   W12
 .byte   PEND 
@  #04 @014   ----------------------------------------
Label_01404666:
 .byte   N11 ,Dn1 ,v096
 .byte   W12
 .byte   N05
 .byte   W06
 .byte   Ds1
 .byte   W06
 .byte   N11 ,En1
 .byte   W12
 .byte   N11
 .byte   W12
 .byte   N11
 .byte   W12
 .byte   N11
 .byte   W12
 .byte   N11
 .byte   W12
 .byte   N11
 .byte   W12
 .byte   PEND 
@  #04 @015   ----------------------------------------
Label_0140467C:
 .byte   N11 ,En1 ,v096
 .byte   W12
 .byte   N11
 .byte   W12
 .byte   Fs1
 .byte   W12
 .byte   N11
 .byte   W12
 .byte   N11
 .byte   W12
 .byte   N11
 .byte   W12
 .byte   N11
 .byte   W12
 .byte   An0
 .byte   W12
 .byte   PEND 
@  #04 @016   ----------------------------------------
Label_0140468F:
 .byte   N11 ,Fs0 ,v096
 .byte   W12
 .byte   An0
 .byte   W12
 .byte   Bn0
 .byte   W12
 .byte   N11
 .byte   W12
 .byte   N11
 .byte   W12
 .byte   N11
 .byte   W12
 .byte   N11
 .byte   W12
 .byte   N11
 .byte   W12
 .byte   PEND 
@  #04 @017   ----------------------------------------
 .byte   PATT
  .word Label_01404653
@  #04 @018   ----------------------------------------
 .byte   PATT
  .word Label_01404666
@  #04 @019   ----------------------------------------
Label_014046AC:
 .byte   N11 ,En1 ,v096
 .byte   W12
 .byte   N11
 .byte   W12
 .byte   Fs1
 .byte   W12
 .byte   N11
 .byte   W12
 .byte   N11
 .byte   W12
 .byte   N11
 .byte   W12
 .byte   N11
 .byte   W12
 .byte   N11
 .byte   W12
 .byte   PEND 
@  #04 @020   ----------------------------------------
Label_014046BF:
 .byte   N11 ,Fs1 ,v096
 .byte   W12
 .byte   N01 ,Fn1
 .byte   N01 ,Fs1
 .byte   W01
 .byte   En1
 .byte   W01
 .byte   Ds1
 .byte   W01
 .byte   Dn1
 .byte   W01
 .byte   Cs1
 .byte   W01
 .byte   Bn0
 .byte   N01 ,Cn1
 .byte   W01
 .byte   As0
 .byte   W01
 .byte   An0
 .byte   W01
 .byte   Gs0
 .byte   W01
 .byte   Gn0
 .byte   W01
 .byte   Fs0
 .byte   W01
 .byte   Fn0
 .byte   W01
 .byte   N11 ,En0
 .byte   W12
 .byte   N11
 .byte   W12
 .byte   N11
 .byte   W12
 .byte   N11
 .byte   W12
 .byte   N11
 .byte   W12
 .byte   N11
 .byte   W12
 .byte   PEND 
@  #04 @021   ----------------------------------------
Label_014046EE:
 .byte   N11 ,En0 ,v096
 .byte   W12
 .byte   N11
 .byte   W12
 .byte   Fs0
 .byte   W12
 .byte   N11
 .byte   W12
 .byte   N11
 .byte   W12
 .byte   N11
 .byte   W12
 .byte   N11
 .byte   W12
 .byte   N11
 .byte   W12
 .byte   PEND 
@  #04 @022   ----------------------------------------
Label_01404701:
 .byte   N11 ,Fs0 ,v096
 .byte   W12
 .byte   N11
 .byte   W12
 .byte   Gn0
 .byte   W12
 .byte   N11
 .byte   W12
 .byte   N11
 .byte   W12
 .byte   N11
 .byte   W12
 .byte   N11
 .byte   W12
 .byte   N11
 .byte   W12
 .byte   PEND 
@  #04 @023   ----------------------------------------
Label_01404714:
 .byte   N11 ,Gn0 ,v096
 .byte   W12
 .byte   N11
 .byte   W12
 .byte   Fs0
 .byte   W12
 .byte   N11
 .byte   W12
 .byte   N11
 .byte   W12
 .byte   N11
 .byte   W12
 .byte   N11
 .byte   W12
 .byte   N11
 .byte   W12
 .byte   PEND 
@  #04 @024   ----------------------------------------
Label_01404727:
 .byte   N11 ,Fs0 ,v096
 .byte   W12
 .byte   N11
 .byte   W12
 .byte   En0
 .byte   W12
 .byte   N11
 .byte   W12
 .byte   N11
 .byte   W12
 .byte   N11
 .byte   W12
 .byte   N11
 .byte   W12
 .byte   N11
 .byte   W12
 .byte   PEND 
@  #04 @025   ----------------------------------------
 .byte   PATT
  .word Label_014046EE
@  #04 @026   ----------------------------------------
 .byte   PATT
  .word Label_01404701
@  #04 @027   ----------------------------------------
Label_01404744:
 .byte   N11 ,Gn0 ,v096
 .byte   W12
 .byte   N11
 .byte   W12
 .byte   N11
 .byte   W12
 .byte   N11
 .byte   W12
 .byte   N11
 .byte   W12
 .byte   N11
 .byte   W12
 .byte   N11
 .byte   W12
 .byte   N11
 .byte   W12
 .byte   PEND 
@  #04 @028   ----------------------------------------
Label_01404757:
 .byte   N11 ,Gn0 ,v096
 .byte   W12
 .byte   N11
 .byte   W12
 .byte   Bn0
 .byte   W12
 .byte   N11
 .byte   W12
 .byte   N11
 .byte   W12
 .byte   N11
 .byte   W12
 .byte   N11
 .byte   W12
 .byte   N11
 .byte   W12
 .byte   PEND 
@  #04 @029   ----------------------------------------
Label_0140476A:
 .byte   N11 ,Bn0 ,v096
 .byte   W12
 .byte   N11
 .byte   W84
 .byte   PEND 
@  #04 @030   ----------------------------------------
Label_01404771:
 .byte   W24
 .byte   N11 ,Gn0 ,v096
 .byte   W12
 .byte   N11
 .byte   W12
 .byte   N11
 .byte   W12
 .byte   N11
 .byte   W12
 .byte   N11
 .byte   W12
 .byte   N11
 .byte   W12
 .byte   PEND 
@  #04 @031   ----------------------------------------
Label_01404781:
 .byte   N11 ,Gn0 ,v096
 .byte   W12
 .byte   N23 ,An0
 .byte   W24
 .byte   N11
 .byte   W12
 .byte   N11
 .byte   W12
 .byte   N11
 .byte   W12
 .byte   N11
 .byte   W12
 .byte   N11
 .byte   W12
 .byte   PEND 
@  #04 @032   ----------------------------------------
Label_01404793:
 .byte   N11 ,An0 ,v096
 .byte   W12
 .byte   N11
 .byte   W12
 .byte   Bn0
 .byte   W12
 .byte   N11
 .byte   W12
 .byte   N11
 .byte   W12
 .byte   N11
 .byte   W12
 .byte   N05
 .byte   W12
 .byte   N11 ,An0
 .byte   W12
 .byte   PEND 
@  #04 @033   ----------------------------------------
Label_014047A7:
 .byte   W12
 .byte   N23 ,Gs0 ,v096
 .byte   W24
 .byte   N11
 .byte   W12
 .byte   N11
 .byte   W12
 .byte   N11
 .byte   W12
 .byte   N11
 .byte   W12
 .byte   N11
 .byte   W12
 .byte   PEND 
@  #04 @034   ----------------------------------------
Label_014047B7:
 .byte   N11 ,Gs0 ,v096
 .byte   W12
 .byte   N11
 .byte   W12
 .byte   En0
 .byte   W12
 .byte   N11
 .byte   W12
 .byte   N11
 .byte   W12
 .byte   N11
 .byte   W12
 .byte   N11
 .byte   W12
 .byte   N11
 .byte   W12
 .byte   PEND 
@  #04 @035   ----------------------------------------
Label_014047CA:
 .byte   N11 ,En0 ,v096
 .byte   W12
 .byte   N11
 .byte   W12
 .byte   An0
 .byte   W12
 .byte   N11
 .byte   W12
 .byte   N11
 .byte   W12
 .byte   N11
 .byte   W12
 .byte   N11
 .byte   W12
 .byte   N11
 .byte   W12
 .byte   PEND 
@  #04 @036   ----------------------------------------
Label_014047DD:
 .byte   N11 ,An0 ,v096
 .byte   W12
 .byte   N11
 .byte   W12
 .byte   Bn0
 .byte   W12
 .byte   N11
 .byte   W12
 .byte   N11
 .byte   W12
 .byte   N11
 .byte   W12
 .byte   As0
 .byte   W12
 .byte   N11
 .byte   W12
 .byte   PEND 
@  #04 @037   ----------------------------------------
Label_014047F0:
 .byte   N11 ,As0 ,v096
 .byte   W12
 .byte   N11
 .byte   W12
 .byte   An0
 .byte   W12
 .byte   N11
 .byte   W12
 .byte   N11
 .byte   W12
 .byte   N11
 .byte   W12
 .byte   Dn1
 .byte   W12
 .byte   N11
 .byte   W12
 .byte   PEND 
@  #04 @038   ----------------------------------------
Label_01404803:
 .byte   N11 ,Dn1 ,v096
 .byte   W12
 .byte   N11
 .byte   W12
 .byte   Gn0
 .byte   W12
 .byte   N11
 .byte   W12
 .byte   N11
 .byte   W12
 .byte   N11
 .byte   W12
 .byte   N11
 .byte   W12
 .byte   N11
 .byte   W12
 .byte   PEND 
@  #04 @039   ----------------------------------------
 .byte   PATT
  .word Label_01404744
@  #04 @040   ----------------------------------------
 .byte   PATT
  .word Label_01404714
@  #04 @041   ----------------------------------------
Label_01404820:
 .byte   N11 ,Fs0 ,v096
 .byte   W12
 .byte   Bn0
 .byte   W12
 .byte   N11
 .byte   W12
 .byte   N11
 .byte   W12
 .byte   N11
 .byte   W12
 .byte   N11
 .byte   W12
 .byte   N11
 .byte   W12
 .byte   N11
 .byte   W12
 .byte   PEND 
@  #04 @042   ----------------------------------------
Label_01404833:
 .byte   N11 ,Bn0 ,v096
 .byte   W12
 .byte   N11
 .byte   W12
 .byte   En0
 .byte   W12
 .byte   N11
 .byte   W12
 .byte   N11
 .byte   W12
 .byte   N11
 .byte   W12
 .byte   N11
 .byte   W12
 .byte   N11
 .byte   W12
 .byte   PEND 
@  #04 @043   ----------------------------------------
 .byte   PATT
  .word Label_014046EE
@  #04 @044   ----------------------------------------
 .byte   PATT
  .word Label_01404701
@  #04 @045   ----------------------------------------
Label_01404850:
 .byte   N11 ,Gn0 ,v096
 .byte   W12
 .byte   N11
 .byte   W12
 .byte   An0
 .byte   W12
 .byte   N11
 .byte   W12
 .byte   N11
 .byte   W12
 .byte   N11
 .byte   W12
 .byte   N11
 .byte   W12
 .byte   N11
 .byte   W12
 .byte   PEND 
@  #04 @046   ----------------------------------------
Label_01404863:
 .byte   N11 ,An0 ,v096
 .byte   W12
 .byte   N23 ,Bn0
 .byte   W24
 .byte   N11
 .byte   W12
 .byte   N11
 .byte   W12
 .byte   N11
 .byte   W12
 .byte   N11
 .byte   W12
 .byte   N11
 .byte   W12
 .byte   PEND 
@  #04 @047   ----------------------------------------
Label_01404875:
 .byte   N11 ,Bn0 ,v096
 .byte   W12
 .byte   N23 ,An0
 .byte   W24
 .byte   N11
 .byte   W12
 .byte   N11
 .byte   W12
 .byte   N11
 .byte   W12
 .byte   N11
 .byte   W12
 .byte   N11
 .byte   W12
 .byte   PEND 
@  #04 @048   ----------------------------------------
 .byte   PATT
  .word Label_01404863
@  #04 @049   ----------------------------------------
 .byte   PATT
  .word Label_01404875
@  #04 @050   ----------------------------------------
 .byte   PATT
  .word Label_01404863
@  #04 @051   ----------------------------------------
 .byte   PATT
  .word Label_01404875
@  #04 @052   ----------------------------------------
 .byte   PATT
  .word Label_01404863
@  #04 @053   ----------------------------------------
 .byte   PATT
  .word Label_01404875
@  #04 @054   ----------------------------------------
 .byte   N11 ,An0 ,v096
 .byte   W12
 .byte   Bn0
 .byte   W12
 .byte   N11
 .byte   W12
 .byte   N11
 .byte   W12
 .byte   N11
 .byte   W12
 .byte   N11
 .byte   W12
 .byte   N11
 .byte   W12
 .byte   N11
 .byte   W12
@  #04 @055   ----------------------------------------
 .byte   PATT
  .word Label_0140461E
@  #04 @056   ----------------------------------------
 .byte   PATT
  .word Label_0140461E
@  #04 @057   ----------------------------------------
 .byte   PATT
  .word Label_01404636
@  #04 @058   ----------------------------------------
 .byte   PATT
  .word Label_01404643
@  #04 @059   ----------------------------------------
 .byte   PATT
  .word Label_01404653
@  #04 @060   ----------------------------------------
 .byte   PATT
  .word Label_01404666
@  #04 @061   ----------------------------------------
 .byte   PATT
  .word Label_0140467C
@  #04 @062   ----------------------------------------
 .byte   PATT
  .word Label_0140468F
@  #04 @063   ----------------------------------------
 .byte   PATT
  .word Label_01404653
@  #04 @064   ----------------------------------------
 .byte   PATT
  .word Label_01404666
@  #04 @065   ----------------------------------------
 .byte   PATT
  .word Label_014046AC
@  #04 @066   ----------------------------------------
 .byte   PATT
  .word Label_014046BF
@  #04 @067   ----------------------------------------
 .byte   PATT
  .word Label_014046EE
@  #04 @068   ----------------------------------------
 .byte   PATT
  .word Label_01404701
@  #04 @069   ----------------------------------------
 .byte   PATT
  .word Label_01404714
@  #04 @070   ----------------------------------------
 .byte   PATT
  .word Label_01404727
@  #04 @071   ----------------------------------------
 .byte   PATT
  .word Label_014046EE
@  #04 @072   ----------------------------------------
 .byte   PATT
  .word Label_01404701
@  #04 @073   ----------------------------------------
 .byte   PATT
  .word Label_01404744
@  #04 @074   ----------------------------------------
 .byte   PATT
  .word Label_01404757
@  #04 @075   ----------------------------------------
 .byte   PATT
  .word Label_0140476A
@  #04 @076   ----------------------------------------
 .byte   PATT
  .word Label_01404771
@  #04 @077   ----------------------------------------
 .byte   PATT
  .word Label_01404781
@  #04 @078   ----------------------------------------
 .byte   PATT
  .word Label_01404793
@  #04 @079   ----------------------------------------
 .byte   PATT
  .word Label_014047A7
@  #04 @080   ----------------------------------------
 .byte   PATT
  .word Label_014047B7
@  #04 @081   ----------------------------------------
 .byte   PATT
  .word Label_014047CA
@  #04 @082   ----------------------------------------
 .byte   PATT
  .word Label_014047DD
@  #04 @083   ----------------------------------------
 .byte   PATT
  .word Label_014047F0
@  #04 @084   ----------------------------------------
 .byte   PATT
  .word Label_01404803
@  #04 @085   ----------------------------------------
 .byte   PATT
  .word Label_01404744
@  #04 @086   ----------------------------------------
 .byte   PATT
  .word Label_01404714
@  #04 @087   ----------------------------------------
 .byte   PATT
  .word Label_01404820
@  #04 @088   ----------------------------------------
 .byte   PATT
  .word Label_01404833
@  #04 @089   ----------------------------------------
 .byte   PATT
  .word Label_014046EE
@  #04 @090   ----------------------------------------
 .byte   PATT
  .word Label_01404701
@  #04 @091   ----------------------------------------
 .byte   PATT
  .word Label_01404850
@  #04 @092   ----------------------------------------
 .byte   PATT
  .word Label_01404863
@  #04 @093   ----------------------------------------
 .byte   PATT
  .word Label_0140461E
@  #04 @094   ----------------------------------------
 .byte   PATT
  .word Label_0140461E
@  #04 @095   ----------------------------------------
 .byte   N11 ,Bn0 ,v096
 .byte   W12
 .byte   N11
 .byte   W12
 .byte   N11
 .byte   W12
 .byte   Bn0 ,v092
 .byte   W12
 .byte   Bn0 ,v088
 .byte   W12
 .byte   Bn0 ,v084
 .byte   W12
 .byte   Bn0 ,v080
 .byte   W12
 .byte   Bn0 ,v076
 .byte   W12
@  #04 @096   ----------------------------------------
 .byte   Bn0 ,v072
 .byte   W12
 .byte   Bn0 ,v068
 .byte   W84
@  #04 @097   ----------------------------------------
 .byte   W96
@  #04 @098   ----------------------------------------
 .byte   W96
@  #04 @099   ----------------------------------------
 .byte   W96
@  #04 @100   ----------------------------------------
 .byte   W96
@  #04 @101   ----------------------------------------
 .byte   W96
@  #04 @102   ----------------------------------------
 .byte   W96
@  #04 @103   ----------------------------------------
 .byte   W96
@  #04 @104   ----------------------------------------
 .byte   W96
@  #04 @105   ----------------------------------------
 .byte   W96
@  #04 @106   ----------------------------------------
 .byte   W24
 .byte   Gn0 ,v064
 .byte   W12
 .byte   N11
 .byte   W12
 .byte   N11
 .byte   W12
 .byte   N11
 .byte   W12
 .byte   N11
 .byte   W12
 .byte   N11
 .byte   W12
@  #04 @107   ----------------------------------------
Label_014049B3:
 .byte   N11 ,Gn0 ,v064
 .byte   W12
 .byte   N23 ,An0
 .byte   W24
 .byte   N11
 .byte   W12
 .byte   N11
 .byte   W12
 .byte   N11
 .byte   W12
 .byte   N11
 .byte   W12
 .byte   N11
 .byte   W12
 .byte   PEND 
@  #04 @108   ----------------------------------------
Label_014049C5:
 .byte   N11 ,An0 ,v064
 .byte   W12
 .byte   N11
 .byte   W12
 .byte   Bn0
 .byte   W12
 .byte   N11
 .byte   W12
 .byte   N11
 .byte   W12
 .byte   N11
 .byte   W12
 .byte   N05
 .byte   W12
 .byte   N11 ,An0
 .byte   W12
 .byte   PEND 
@  #04 @109   ----------------------------------------
Label_014049D9:
 .byte   W12
 .byte   N23 ,Gs0 ,v064
 .byte   W24
 .byte   N11
 .byte   W12
 .byte   N11
 .byte   W12
 .byte   N11
 .byte   W12
 .byte   N11
 .byte   W12
 .byte   N11
 .byte   W12
 .byte   PEND 
@  #04 @110   ----------------------------------------
Label_014049E9:
 .byte   N11 ,Gs0 ,v064
 .byte   W12
 .byte   N11
 .byte   W12
 .byte   En0
 .byte   W12
 .byte   N11
 .byte   W12
 .byte   N11
 .byte   W12
 .byte   N11
 .byte   W12
 .byte   N11
 .byte   W12
 .byte   N11
 .byte   W12
 .byte   PEND 
@  #04 @111   ----------------------------------------
Label_014049FC:
 .byte   N11 ,En0 ,v064
 .byte   W12
 .byte   N11
 .byte   W12
 .byte   An0
 .byte   W12
 .byte   N11
 .byte   W12
 .byte   N11
 .byte   W12
 .byte   N11
 .byte   W12
 .byte   N11
 .byte   W12
 .byte   N11
 .byte   W12
 .byte   PEND 
@  #04 @112   ----------------------------------------
Label_01404A0F:
 .byte   N11 ,An0 ,v064
 .byte   W12
 .byte   N11
 .byte   W12
 .byte   Bn0
 .byte   W12
 .byte   N11
 .byte   W12
 .byte   N11
 .byte   W12
 .byte   N11
 .byte   W12
 .byte   As0
 .byte   W12
 .byte   N11
 .byte   W12
 .byte   PEND 
@  #04 @113   ----------------------------------------
Label_01404A22:
 .byte   N11 ,As0 ,v064
 .byte   W12
 .byte   N11
 .byte   W12
 .byte   An0
 .byte   W12
 .byte   N11
 .byte   W12
 .byte   N11
 .byte   W12
 .byte   N11
 .byte   W12
 .byte   Dn1
 .byte   W12
 .byte   N11
 .byte   W12
 .byte   PEND 
@  #04 @114   ----------------------------------------
Label_01404A35:
 .byte   N11 ,Dn1 ,v064
 .byte   W12
 .byte   N11
 .byte   W12
 .byte   Gn0
 .byte   W12
 .byte   N11
 .byte   W12
 .byte   N11
 .byte   W12
 .byte   N11
 .byte   W12
 .byte   N11
 .byte   W12
 .byte   N11
 .byte   W12
 .byte   PEND 
@  #04 @115   ----------------------------------------
Label_01404A48:
 .byte   N11 ,Gn0 ,v064
 .byte   W12
 .byte   N11
 .byte   W12
 .byte   N11
 .byte   W12
 .byte   N11
 .byte   W12
 .byte   N11
 .byte   W12
 .byte   N11
 .byte   W12
 .byte   N11
 .byte   W12
 .byte   N11
 .byte   W12
 .byte   PEND 
@  #04 @116   ----------------------------------------
Label_01404A5B:
 .byte   N11 ,Gn0 ,v064
 .byte   W12
 .byte   N11
 .byte   W12
 .byte   Fs0
 .byte   W12
 .byte   N11
 .byte   W12
 .byte   N11
 .byte   W12
 .byte   N11
 .byte   W12
 .byte   N11
 .byte   W12
 .byte   N11
 .byte   W12
 .byte   PEND 
@  #04 @117   ----------------------------------------
Label_01404A6E:
 .byte   N11 ,Fs0 ,v064
 .byte   W12
 .byte   Bn0
 .byte   W12
 .byte   N11
 .byte   W12
 .byte   N11
 .byte   W12
 .byte   N11
 .byte   W12
 .byte   N11
 .byte   W12
 .byte   N11
 .byte   W12
 .byte   N11
 .byte   W12
 .byte   PEND 
@  #04 @118   ----------------------------------------
Label_01404A81:
 .byte   N11 ,Bn0 ,v064
 .byte   W12
 .byte   N11
 .byte   W12
 .byte   En0
 .byte   W12
 .byte   N11
 .byte   W12
 .byte   N11
 .byte   W12
 .byte   N11
 .byte   W12
 .byte   N11
 .byte   W12
 .byte   N11
 .byte   W12
 .byte   PEND 
@  #04 @119   ----------------------------------------
Label_01404A94:
 .byte   N11 ,En0 ,v064
 .byte   W12
 .byte   N11
 .byte   W12
 .byte   Fs0
 .byte   W12
 .byte   N11
 .byte   W12
 .byte   N11
 .byte   W12
 .byte   N11
 .byte   W12
 .byte   N11
 .byte   W12
 .byte   N11
 .byte   W12
 .byte   PEND 
@  #04 @120   ----------------------------------------
Label_01404AA7:
 .byte   N11 ,Fs0 ,v064
 .byte   W12
 .byte   N11
 .byte   W12
 .byte   Gn0
 .byte   W12
 .byte   N11
 .byte   W12
 .byte   N11
 .byte   W12
 .byte   N11
 .byte   W12
 .byte   N11
 .byte   W12
 .byte   N11
 .byte   W12
 .byte   PEND 
@  #04 @121   ----------------------------------------
Label_01404ABA:
 .byte   N11 ,Gn0 ,v064
 .byte   W12
 .byte   N11
 .byte   W12
 .byte   An0
 .byte   W12
 .byte   N11
 .byte   W12
 .byte   N11
 .byte   W12
 .byte   N11
 .byte   W12
 .byte   N11
 .byte   W12
 .byte   N11
 .byte   W12
 .byte   PEND 
@  #04 @122   ----------------------------------------
 .byte   N11
 .byte   W12
 .byte   N11
 .byte   W12
 .byte   Gn0
 .byte   W12
 .byte   N11
 .byte   W12
 .byte   N11
 .byte   W12
 .byte   N11
 .byte   W12
 .byte   N11
 .byte   W12
 .byte   N11
 .byte   W12
@  #04 @123   ----------------------------------------
 .byte   PATT
  .word Label_014049B3
@  #04 @124   ----------------------------------------
 .byte   PATT
  .word Label_014049C5
@  #04 @125   ----------------------------------------
 .byte   PATT
  .word Label_014049D9
@  #04 @126   ----------------------------------------
 .byte   PATT
  .word Label_014049E9
@  #04 @127   ----------------------------------------
 .byte   PATT
  .word Label_014049FC
@  #04 @128   ----------------------------------------
 .byte   PATT
  .word Label_01404A0F
@  #04 @129   ----------------------------------------
 .byte   PATT
  .word Label_01404A22
@  #04 @130   ----------------------------------------
 .byte   PATT
  .word Label_01404A35
@  #04 @131   ----------------------------------------
 .byte   PATT
  .word Label_01404A48
@  #04 @132   ----------------------------------------
 .byte   PATT
  .word Label_01404A5B
@  #04 @133   ----------------------------------------
 .byte   PATT
  .word Label_01404A6E
@  #04 @134   ----------------------------------------
 .byte   PATT
  .word Label_01404A81
@  #04 @135   ----------------------------------------
 .byte   PATT
  .word Label_01404A94
@  #04 @136   ----------------------------------------
 .byte   PATT
  .word Label_01404AA7
@  #04 @137   ----------------------------------------
 .byte   PATT
  .word Label_01404ABA
@  #04 @138   ----------------------------------------
Label_01404B28:
 .byte   N11 ,An0 ,v064
 .byte   W12
 .byte   N23 ,Bn0
 .byte   W24
 .byte   N11
 .byte   W12
 .byte   N11
 .byte   W12
 .byte   N11
 .byte   W12
 .byte   N11
 .byte   W12
 .byte   N11
 .byte   W12
 .byte   PEND 
@  #04 @139   ----------------------------------------
Label_01404B3A:
 .byte   N11 ,Bn0 ,v064
 .byte   W12
 .byte   N23 ,An0
 .byte   W24
 .byte   N11
 .byte   W12
 .byte   N11
 .byte   W12
 .byte   N11
 .byte   W12
 .byte   N11
 .byte   W12
 .byte   N11
 .byte   W12
 .byte   PEND 
@  #04 @140   ----------------------------------------
 .byte   PATT
  .word Label_01404B28
@  #04 @141   ----------------------------------------
 .byte   PATT
  .word Label_01404B3A
@  #04 @142   ----------------------------------------
 .byte   PATT
  .word Label_01404B28
@  #04 @143   ----------------------------------------
 .byte   PATT
  .word Label_01404B3A
@  #04 @144   ----------------------------------------
 .byte   PATT
  .word Label_01404B28
@  #04 @145   ----------------------------------------
 .byte   PATT
  .word Label_01404B3A
@  #04 @146   ----------------------------------------
 .byte   GOTO
  .word Label_0140460D
@  #04 @147   ----------------------------------------
 .byte   N11 ,An0 ,v064
 .byte   W12
 .byte   Bn0
 .byte   W11
 .byte   FINE

@**************** Track 5 (Midi-Chn.4) ****************@

song04_005:
@  #05 @000   ----------------------------------------
 .byte   KEYSH , song04_key+0
 .byte   VOICE , 30
 .byte   VOL , 38*song04_mvl/mxv
 .byte   PAN , c_v+0
 .byte   VOL , 45*song04_mvl/mxv
 .byte   PAN , c_v-1
 .byte   W12
 .byte   N23 ,Fs2 ,v096
 .byte   N23 ,Bn2
 .byte   W12
 .byte   W12
 .byte   N11 ,Fs2
 .byte   N11 ,Bn2
 .byte   W12
 .byte   N23 ,BnM1
 .byte   W36
 .byte   N11 ,Fs2
 .byte   N11 ,Bn2
 .byte   W12
@  #05 @001   ----------------------------------------
Label_01404BA9:
 .byte   W12
 .byte   N23 ,En2 ,v096
 .byte   N23 ,An2
 .byte   W24
 .byte   N11 ,En2
 .byte   N11 ,An2
 .byte   W48
 .byte   En2
 .byte   N11 ,An2
 .byte   W12
 .byte   PEND 
@  #05 @002   ----------------------------------------
Label_01404BBA:
 .byte   N01 ,BnM1 ,v096
 .byte   N01 ,Cn0
 .byte   W01
 .byte   Cs0
 .byte   W02
 .byte   Dn0
 .byte   N01 ,Ds0
 .byte   W01
 .byte   En0
 .byte   W02
 .byte   Fn0
 .byte   N01 ,Fs0
 .byte   W01
 .byte   Gn0
 .byte   W02
 .byte   Gs0
 .byte   N01 ,An0
 .byte   W01
 .byte   As0
 .byte   W02
 .byte   N23 ,Fs2
 .byte   N23 ,Bn2
 .byte   W12
 .byte   W12
 .byte   N11 ,Fs2
 .byte   N11 ,Bn2
 .byte   W06
 .byte   W06
 .byte   N23 ,BnM1
 .byte   W36
 .byte   N11 ,Fs2
 .byte   N11 ,Bn2
 .byte   W12
 .byte   PEND 
@  #05 @003   ----------------------------------------
 .byte   W12
 .byte   N23 ,En2
 .byte   N23 ,An2
 .byte   W24
 .byte   N11 ,En2
 .byte   N11 ,An2
 .byte   W24
 .byte   Cs2
 .byte   N11 ,Fs2
 .byte   W24
 .byte   En2
 .byte   N11 ,An2
 .byte   W12
@  #05 @004   ----------------------------------------
 .byte   PATT
  .word Label_01404BBA
@  #05 @005   ----------------------------------------
 .byte   PATT
  .word Label_01404BA9
@  #05 @006   ----------------------------------------
 .byte   PATT
  .word Label_01404BBA
@  #05 @007   ----------------------------------------
 .byte   W12
 .byte   N23 ,En2 ,v096
 .byte   N23 ,An2
 .byte   W24
 .byte   N11 ,En2
 .byte   N11 ,An2
 .byte   W24
 .byte   Cs2
 .byte   N11 ,Fs2
 .byte   W24
 .byte   N23 ,En2
 .byte   N23 ,An2
 .byte   W12
@  #05 @008   ----------------------------------------
Label_01404C20:
 .byte   W12
 .byte   N11 ,Fs2 ,v096
 .byte   N11 ,Bn2
 .byte   W12
 .byte   Bn1
 .byte   N11 ,Fs2
 .byte   W12
 .byte   Bn1 ,v064
 .byte   N11 ,Fs2
 .byte   W12
 .byte   Bn1
 .byte   N11 ,Fs2
 .byte   W12
 .byte   Bn1 ,v096
 .byte   N11 ,Fs2
 .byte   W12
 .byte   Bn1 ,v064
 .byte   N11 ,Fs2
 .byte   W12
 .byte   Bn1 ,v096
 .byte   N11 ,Fs2
 .byte   W12
@  #05 @009   ----------------------------------------
Label_01404C43:
 .byte   N11 ,Bn1 ,v064
 .byte   N11 ,Fs2
 .byte   W12
 .byte   Bn1 ,v096
 .byte   N11 ,Fs2
 .byte   W12
 .byte   Bn1
 .byte   N11 ,Fs2
 .byte   W12
 .byte   Bn1 ,v064
 .byte   N11 ,Fs2
 .byte   W12
 .byte   Bn1
 .byte   N11 ,Fs2
 .byte   W12
 .byte   Bn1 ,v096
 .byte   N11 ,Fs2
 .byte   W12
 .byte   Bn1 ,v064
 .byte   N11 ,Fs2
 .byte   W12
 .byte   Bn1 ,v096
 .byte   N11 ,Fs2
 .byte   W12
 .byte   PEND 
@  #05 @010   ----------------------------------------
 .byte   PATT
  .word Label_01404C43
@  #05 @011   ----------------------------------------
Label_01404C70:
 .byte   N11 ,Bn1 ,v064
 .byte   N11 ,Fs2
 .byte   W12
 .byte   Bn1 ,v096
 .byte   N11 ,Fs2
 .byte   W12
 .byte   Bn1
 .byte   N11 ,Fs2
 .byte   W12
 .byte   Bn1 ,v064
 .byte   N11 ,Fs2
 .byte   W12
 .byte   Bn1
 .byte   N11 ,Fs2
 .byte   W12
 .byte   Bn1 ,v096
 .byte   N11 ,Fs2
 .byte   W12
 .byte   Bn1
 .byte   N11 ,Fs2
 .byte   W12
 .byte   Bn1 ,v064
 .byte   N11 ,Fs2
 .byte   W12
 .byte   PEND 
@  #05 @012   ----------------------------------------
Label_01404C97:
 .byte   N23 ,Bn1 ,v064
 .byte   N23 ,Fs2
 .byte   W24
 .byte   N11 ,Bn1
 .byte   N11 ,Fs2
 .byte   W12
 .byte   Bn1
 .byte   N11 ,Fs2
 .byte   W12
 .byte   Bn1
 .byte   N11 ,Fs2
 .byte   W12
 .byte   Bn1
 .byte   N11 ,Fs2
 .byte   W12
 .byte   Bn1
 .byte   N11 ,Fs2
 .byte   W12
 .byte   Bn1
 .byte   N11 ,Fs2
 .byte   W12
 .byte   PEND 
@  #05 @013   ----------------------------------------
Label_01404CB7:
 .byte   N11 ,Bn1 ,v064
 .byte   N11 ,Fs2
 .byte   W12
 .byte   N05 ,Bn1
 .byte   N05 ,Fs2
 .byte   W06
 .byte   Bn1
 .byte   N05 ,Fs2
 .byte   W06
 .byte   N11 ,Dn2
 .byte   N11 ,An2
 .byte   W12
 .byte   Dn2
 .byte   N11 ,An2
 .byte   W12
 .byte   Dn2
 .byte   N11 ,An2
 .byte   W12
 .byte   Dn2
 .byte   N11 ,An2
 .byte   W12
 .byte   Dn2
 .byte   N11 ,An2
 .byte   W12
 .byte   Dn2
 .byte   N11 ,An2
 .byte   W12
 .byte   PEND 
@  #05 @014   ----------------------------------------
Label_01404CE0:
 .byte   N11 ,Dn2 ,v064
 .byte   N11 ,An2
 .byte   W12
 .byte   N05 ,Dn2
 .byte   N05 ,An2
 .byte   W06
 .byte   Dn2
 .byte   N05 ,An2
 .byte   W06
 .byte   N11 ,En2
 .byte   N11 ,Bn2
 .byte   W12
 .byte   En2
 .byte   N11 ,Bn2
 .byte   W12
 .byte   En2
 .byte   N11 ,Bn2
 .byte   W12
 .byte   En2
 .byte   N11 ,Bn2
 .byte   W12
 .byte   En2
 .byte   N11 ,Bn2
 .byte   W12
 .byte   En2
 .byte   N11 ,Bn2
 .byte   W12
 .byte   PEND 
@  #05 @015   ----------------------------------------
Label_01404D09:
 .byte   N11 ,En2 ,v064
 .byte   N11 ,Bn2
 .byte   W12
 .byte   N05 ,En2
 .byte   N05 ,Bn2
 .byte   W06
 .byte   En2
 .byte   N05 ,Bn2
 .byte   W06
 .byte   N11 ,Fs2
 .byte   N11 ,Cs3
 .byte   W12
 .byte   Fs2
 .byte   N11 ,Cs3
 .byte   W12
 .byte   Fs2
 .byte   N11 ,Cs3
 .byte   W12
 .byte   Fs2
 .byte   N11 ,Cs3
 .byte   W12
 .byte   Fs2
 .byte   N11 ,Cs3
 .byte   W12
 .byte   Fs2
 .byte   N11 ,Cs3
 .byte   W12
 .byte   PEND 
@  #05 @016   ----------------------------------------
Label_01404D32:
 .byte   N11 ,Fs2 ,v064
 .byte   N11 ,Cs3
 .byte   W12
 .byte   N05 ,Fs2
 .byte   N05 ,Cs3
 .byte   W06
 .byte   Fs2
 .byte   N05 ,Cs3
 .byte   W06
 .byte   N11 ,Bn1
 .byte   N11 ,Fs2
 .byte   W12
 .byte   Bn1
 .byte   N11 ,Fs2
 .byte   W12
 .byte   Bn1
 .byte   N11 ,Fs2
 .byte   W12
 .byte   Bn1
 .byte   N11 ,Fs2
 .byte   W12
 .byte   Bn1
 .byte   N11 ,Fs2
 .byte   W12
 .byte   Bn1
 .byte   N11 ,Fs2
 .byte   W12
 .byte   PEND 
@  #05 @017   ----------------------------------------
 .byte   PATT
  .word Label_01404CB7
@  #05 @018   ----------------------------------------
 .byte   PATT
  .word Label_01404CE0
@  #05 @019   ----------------------------------------
 .byte   PATT
  .word Label_01404D09
@  #05 @020   ----------------------------------------
Label_01404D6A:
 .byte   N11 ,Fs2 ,v064
 .byte   N11 ,Cs3
 .byte   W12
 .byte   N05 ,Fs2
 .byte   N05 ,Cs3
 .byte   W06
 .byte   Fs2
 .byte   N05 ,Cs3
 .byte   W06
 .byte   N92 ,Bn2
 .byte   N92 ,En3
 .byte   W72
 .byte   PEND 
@  #05 @021   ----------------------------------------
Label_01404D7F:
 .byte   W24
 .byte   N92 ,Cs3 ,v064
 .byte   N92 ,Fs3
 .byte   W72
 .byte   PEND 
@  #05 @022   ----------------------------------------
Label_01404D87:
 .byte   W24
 .byte   N92 ,Dn3 ,v064
 .byte   N92 ,Gn3
 .byte   W72
 .byte   PEND 
@  #05 @023   ----------------------------------------
 .byte   PATT
  .word Label_01404D7F
@  #05 @024   ----------------------------------------
Label_01404D94:
 .byte   W24
 .byte   N92 ,Bn2 ,v064
 .byte   N92 ,En3
 .byte   W72
 .byte   PEND 
@  #05 @025   ----------------------------------------
 .byte   PATT
  .word Label_01404D7F
@  #05 @026   ----------------------------------------
Label_01404DA1:
 .byte   W24
 .byte   N11 ,Dn3 ,v064
 .byte   N11 ,Gn3
 .byte   W12
 .byte   Dn3
 .byte   N11 ,Gn3
 .byte   W24
 .byte   Dn3
 .byte   N11 ,Gn3
 .byte   W12
 .byte   Dn3
 .byte   N11 ,Gn3
 .byte   W12
 .byte   Dn3
 .byte   N11 ,Gn3
 .byte   W12
 .byte   PEND 
@  #05 @027   ----------------------------------------
Label_01404DB9:
 .byte   W12
 .byte   N11 ,Dn3 ,v064
 .byte   N11 ,Gn3
 .byte   W12
 .byte   Dn3
 .byte   N11 ,Gn3
 .byte   W12
 .byte   Dn3
 .byte   N11 ,Gn3
 .byte   W12
 .byte   Dn3
 .byte   N11 ,Gn3
 .byte   W12
 .byte   Dn3
 .byte   N11 ,Gn3
 .byte   W12
 .byte   Dn3
 .byte   N11 ,Gn3
 .byte   W12
 .byte   Dn3
 .byte   N11 ,Gn3
 .byte   W12
 .byte   PEND 
@  #05 @028   ----------------------------------------
Label_01404DD9:
 .byte   N11 ,Dn3 ,v064
 .byte   N11 ,Gn3
 .byte   W12
 .byte   Dn3
 .byte   N11 ,Gn3
 .byte   W12
 .byte   Fs3
 .byte   N11 ,An3
 .byte   W12
 .byte   Fs3
 .byte   N11 ,An3
 .byte   W12
 .byte   Fs3
 .byte   N11 ,An3
 .byte   W12
 .byte   Fs3
 .byte   N11 ,An3
 .byte   W12
 .byte   Fs3
 .byte   N11 ,An3
 .byte   W12
 .byte   Fs3
 .byte   N11 ,An3
 .byte   W12
 .byte   PEND 
@  #05 @029   ----------------------------------------
Label_01404DFC:
 .byte   N11 ,Fs3 ,v064
 .byte   N11 ,An3
 .byte   W12
 .byte   Fs3
 .byte   N11 ,Bn3
 .byte   W84
 .byte   PEND 
@  #05 @030   ----------------------------------------
Label_01404E07:
 .byte   W24
 .byte   N11 ,Dn2 ,v064
 .byte   N11 ,Gn2
 .byte   W12
 .byte   Dn2
 .byte   N11 ,Gn2
 .byte   W12
 .byte   Dn2
 .byte   N11 ,Gn2
 .byte   W12
 .byte   Dn2
 .byte   N11 ,Gn2
 .byte   W12
 .byte   Dn2
 .byte   N11 ,Gn2
 .byte   W12
 .byte   Dn2
 .byte   N11 ,Gn2
 .byte   W12
 .byte   PEND 
@  #05 @031   ----------------------------------------
Label_01404E23:
 .byte   N11 ,Dn2 ,v064
 .byte   N11 ,Gn2
 .byte   W12
 .byte   N23 ,En2
 .byte   N23 ,An2
 .byte   W24
 .byte   N11 ,En2
 .byte   N11 ,An2
 .byte   W12
 .byte   En2
 .byte   N11 ,An2
 .byte   W12
 .byte   En2
 .byte   N11 ,An2
 .byte   W12
 .byte   En2
 .byte   N11 ,An2
 .byte   W12
 .byte   En2
 .byte   N11 ,An2
 .byte   W12
 .byte   PEND 
@  #05 @032   ----------------------------------------
Label_01404E44:
 .byte   N11 ,En2 ,v064
 .byte   N11 ,An2
 .byte   W12
 .byte   En2
 .byte   N11 ,An2
 .byte   W12
 .byte   Fs2
 .byte   N11 ,Bn2
 .byte   W12
 .byte   Fs2
 .byte   N11 ,Bn2
 .byte   W12
 .byte   Fs2
 .byte   N11 ,Bn2
 .byte   W12
 .byte   Fs2
 .byte   N11 ,Bn2
 .byte   W12
 .byte   N05 ,Fs2
 .byte   N05 ,Bn2
 .byte   W12
 .byte   N11 ,En2
 .byte   N11 ,An2
 .byte   W12
 .byte   PEND 
@  #05 @033   ----------------------------------------
Label_01404E69:
 .byte   W12
 .byte   N23 ,Dn2 ,v064
 .byte   N23 ,Gs2
 .byte   W24
 .byte   N11 ,Dn2
 .byte   N11 ,Gs2
 .byte   W12
 .byte   Dn2
 .byte   N11 ,Gs2
 .byte   W12
 .byte   Dn2
 .byte   N11 ,Gs2
 .byte   W12
 .byte   Dn2
 .byte   N11 ,Gs2
 .byte   W12
 .byte   Dn2
 .byte   N11 ,Gs2
 .byte   W12
 .byte   PEND 
@  #05 @034   ----------------------------------------
Label_01404E86:
 .byte   N11 ,Dn2 ,v064
 .byte   N11 ,Gs2
 .byte   W12
 .byte   Dn2
 .byte   N11 ,Gs2
 .byte   W12
 .byte   Bn1
 .byte   N11 ,En2
 .byte   W12
 .byte   Bn1
 .byte   N11 ,En2
 .byte   W12
 .byte   Bn1
 .byte   N11 ,En2
 .byte   W12
 .byte   Bn1
 .byte   N11 ,En2
 .byte   W12
 .byte   Bn1
 .byte   N11 ,En2
 .byte   W12
 .byte   Bn1
 .byte   N11 ,En2
 .byte   W12
 .byte   PEND 
@  #05 @035   ----------------------------------------
Label_01404EA9:
 .byte   N11 ,Bn1 ,v064
 .byte   N11 ,En2
 .byte   W12
 .byte   Bn1
 .byte   N11 ,En2
 .byte   W12
 .byte   N11
 .byte   N11 ,An2
 .byte   W12
 .byte   En2
 .byte   N11 ,An2
 .byte   W12
 .byte   En2
 .byte   N11 ,An2
 .byte   W12
 .byte   En2
 .byte   N11 ,An2
 .byte   W12
 .byte   En2
 .byte   N11 ,An2
 .byte   W12
 .byte   En2
 .byte   N11 ,An2
 .byte   W12
 .byte   PEND 
@  #05 @036   ----------------------------------------
Label_01404ECC:
 .byte   N11 ,En2 ,v064
 .byte   N11 ,An2
 .byte   W12
 .byte   En2
 .byte   N11 ,An2
 .byte   W12
 .byte   Fs2
 .byte   N11 ,Bn2
 .byte   W12
 .byte   Fs2
 .byte   N11 ,Bn2
 .byte   W12
 .byte   Fs2
 .byte   N11 ,Bn2
 .byte   W12
 .byte   Fs2
 .byte   N11 ,Bn2
 .byte   W12
 .byte   Fn2
 .byte   N11 ,As2
 .byte   W12
 .byte   Fn2
 .byte   N11 ,As2
 .byte   W12
 .byte   PEND 
@  #05 @037   ----------------------------------------
Label_01404EEF:
 .byte   N11 ,Fn2 ,v064
 .byte   N11 ,As2
 .byte   W12
 .byte   Fn2
 .byte   N11 ,As2
 .byte   W12
 .byte   En2
 .byte   N11 ,An2
 .byte   W12
 .byte   En2
 .byte   N11 ,An2
 .byte   W12
 .byte   En2
 .byte   N11 ,An2
 .byte   W12
 .byte   En2
 .byte   N11 ,An2
 .byte   W12
 .byte   N11
 .byte   N11 ,Dn3
 .byte   W12
 .byte   An2
 .byte   N11 ,Dn3
 .byte   W12
 .byte   PEND 
@  #05 @038   ----------------------------------------
Label_01404F12:
 .byte   N11 ,An2 ,v064
 .byte   N11 ,Dn3
 .byte   W12
 .byte   An2
 .byte   N11 ,Dn3
 .byte   W12
 .byte   Dn2
 .byte   N11 ,Gn2
 .byte   W12
 .byte   Dn2
 .byte   N11 ,Gn2
 .byte   W12
 .byte   Dn2
 .byte   N11 ,Gn2
 .byte   W12
 .byte   Dn2
 .byte   N11 ,Gn2
 .byte   W12
 .byte   Dn2
 .byte   N11 ,Gn2
 .byte   W12
 .byte   Dn2
 .byte   N11 ,Gn2
 .byte   W12
 .byte   PEND 
@  #05 @039   ----------------------------------------
Label_01404F35:
 .byte   N11 ,Dn2 ,v064
 .byte   N11 ,Gn2
 .byte   W12
 .byte   Dn2
 .byte   N11 ,Gn2
 .byte   W12
 .byte   Dn2
 .byte   N11 ,Gn2
 .byte   W12
 .byte   Dn2
 .byte   N11 ,Gn2
 .byte   W12
 .byte   Dn2
 .byte   N11 ,Gn2
 .byte   W12
 .byte   Dn2
 .byte   N11 ,Gn2
 .byte   W12
 .byte   Dn2
 .byte   N11 ,Gn2
 .byte   W12
 .byte   Dn2
 .byte   N11 ,Gn2
 .byte   W12
 .byte   PEND 
@  #05 @040   ----------------------------------------
Label_01404F58:
 .byte   N11 ,Dn2 ,v064
 .byte   N11 ,Gn2
 .byte   W12
 .byte   Dn2
 .byte   N11 ,Gn2
 .byte   W12
 .byte   Cs2
 .byte   N11 ,Fs2
 .byte   W12
 .byte   Cs2
 .byte   N11 ,Fs2
 .byte   W12
 .byte   Cs2
 .byte   N11 ,Fs2
 .byte   W12
 .byte   Cs2
 .byte   N11 ,Fs2
 .byte   W12
 .byte   Cs2
 .byte   N11 ,Fs2
 .byte   W12
 .byte   Cs2
 .byte   N11 ,Fs2
 .byte   W12
 .byte   PEND 
@  #05 @041   ----------------------------------------
Label_01404F7B:
 .byte   N11 ,Cs2 ,v064
 .byte   N11 ,Fs2
 .byte   W12
 .byte   N11
 .byte   N11 ,Bn2
 .byte   W24
 .byte   Fs2
 .byte   N11 ,Bn2
 .byte   W24
 .byte   Fs2
 .byte   N11 ,Bn2
 .byte   W12
 .byte   Fs2
 .byte   N11 ,Bn2
 .byte   W12
 .byte   Fs2
 .byte   N11 ,Bn2
 .byte   W12
 .byte   PEND 
@  #05 @042   ----------------------------------------
Label_01404F96:
 .byte   N11 ,Fs2 ,v064
 .byte   N11 ,Bn2
 .byte   W12
 .byte   Fs2
 .byte   N11 ,Bn2
 .byte   W12
 .byte   Bn1
 .byte   N11 ,En2
 .byte   W12
 .byte   Bn1
 .byte   N11 ,En2
 .byte   W12
 .byte   Bn1
 .byte   N11 ,En2
 .byte   W12
 .byte   Bn1
 .byte   N11 ,En2
 .byte   W12
 .byte   Bn1
 .byte   N11 ,En2
 .byte   W12
 .byte   Bn1
 .byte   N11 ,En2
 .byte   W12
 .byte   PEND 
@  #05 @043   ----------------------------------------
Label_01404FB9:
 .byte   N11 ,Bn1 ,v064
 .byte   N11 ,En2
 .byte   W12
 .byte   Bn1
 .byte   N11 ,En2
 .byte   W12
 .byte   Cs2
 .byte   N11 ,Fs2
 .byte   W12
 .byte   Cs2
 .byte   N11 ,Fs2
 .byte   W12
 .byte   Cs2
 .byte   N11 ,Fs2
 .byte   W12
 .byte   Cs2
 .byte   N11 ,Fs2
 .byte   W12
 .byte   Cs2
 .byte   N11 ,Fs2
 .byte   W12
 .byte   Cs2
 .byte   N11 ,Fs2
 .byte   W12
 .byte   PEND 
@  #05 @044   ----------------------------------------
Label_01404FDC:
 .byte   N11 ,Cs2 ,v064
 .byte   N11 ,Fs2
 .byte   W12
 .byte   Cs2
 .byte   N11 ,Fs2
 .byte   W12
 .byte   Dn2
 .byte   N11 ,Gn2
 .byte   W12
 .byte   Dn2
 .byte   N11 ,Gn2
 .byte   W12
 .byte   Dn2
 .byte   N11 ,Gn2
 .byte   W12
 .byte   Dn2
 .byte   N11 ,Gn2
 .byte   W12
 .byte   Dn2
 .byte   N11 ,Gn2
 .byte   W12
 .byte   Dn2
 .byte   N11 ,Gn2
 .byte   W12
 .byte   PEND 
@  #05 @045   ----------------------------------------
Label_01404FFF:
 .byte   N11 ,Dn2 ,v064
 .byte   N11 ,Gn2
 .byte   W12
 .byte   Dn2
 .byte   N11 ,Gn2
 .byte   W12
 .byte   En2
 .byte   N11 ,An2
 .byte   W12
 .byte   En2
 .byte   N11 ,An2
 .byte   W12
 .byte   En2
 .byte   N11 ,An2
 .byte   W12
 .byte   En2
 .byte   N11 ,An2
 .byte   W12
 .byte   En2
 .byte   N11 ,An2
 .byte   W12
 .byte   En2
 .byte   N11 ,An2
 .byte   W12
 .byte   PEND 
@  #05 @046   ----------------------------------------
Label_01405022:
 .byte   N11 ,En2 ,v064
 .byte   N11 ,An2
 .byte   W12
 .byte   N23 ,Fs2
 .byte   N23 ,Bn2
 .byte   W12
 .byte   W12
 .byte   N11 ,Fs2
 .byte   N11 ,Bn2
 .byte   W06
 .byte   W06
 .byte   Fs2
 .byte   N11 ,Bn2
 .byte   W12
 .byte   Fs2
 .byte   N11 ,Bn2
 .byte   W12
 .byte   Fs2
 .byte   N11 ,Bn2
 .byte   W12
 .byte   Fs2
 .byte   N11 ,Bn2
 .byte   W12
 .byte   PEND 
@  #05 @047   ----------------------------------------
Label_01405045:
 .byte   N11 ,Fs2 ,v064
 .byte   N11 ,Bn2
 .byte   W12
 .byte   N23 ,En2
 .byte   N23 ,An2
 .byte   W24
 .byte   N11 ,En2
 .byte   N11 ,An2
 .byte   W12
 .byte   En2
 .byte   N11 ,An2
 .byte   W12
 .byte   En2
 .byte   N11 ,An2
 .byte   W12
 .byte   En2
 .byte   N11 ,An2
 .byte   W12
 .byte   En2
 .byte   N11 ,An2
 .byte   W12
 .byte   PEND 
@  #05 @048   ----------------------------------------
 .byte   PATT
  .word Label_01405022
@  #05 @049   ----------------------------------------
 .byte   PATT
  .word Label_01405045
@  #05 @050   ----------------------------------------
 .byte   PATT
  .word Label_01405022
@  #05 @051   ----------------------------------------
 .byte   PATT
  .word Label_01405045
@  #05 @052   ----------------------------------------
 .byte   PATT
  .word Label_01405022
@  #05 @053   ----------------------------------------
 .byte   PATT
  .word Label_01405045
@  #05 @054   ----------------------------------------
 .byte   N11 ,En2 ,v064
 .byte   N11 ,An2
 .byte   W12
 .byte   Fs2
 .byte   N11 ,Bn2
 .byte   W12
 .byte   Bn1 ,v096
 .byte   N11 ,Fs2
 .byte   W12
 .byte   Bn1 ,v064
 .byte   N11 ,Fs2
 .byte   W12
 .byte   Bn1
 .byte   N11 ,Fs2
 .byte   W12
 .byte   Bn1 ,v096
 .byte   N11 ,Fs2
 .byte   W12
 .byte   Bn1 ,v064
 .byte   N11 ,Fs2
 .byte   W12
 .byte   Bn1 ,v096
 .byte   N11 ,Fs2
 .byte   W12
@  #05 @055   ----------------------------------------
 .byte   PATT
  .word Label_01404C43
@  #05 @056   ----------------------------------------
 .byte   PATT
  .word Label_01404C43
@  #05 @057   ----------------------------------------
 .byte   PATT
  .word Label_01404C70
@  #05 @058   ----------------------------------------
 .byte   PATT
  .word Label_01404C97
@  #05 @059   ----------------------------------------
 .byte   PATT
  .word Label_01404CB7
@  #05 @060   ----------------------------------------
 .byte   PATT
  .word Label_01404CE0
@  #05 @061   ----------------------------------------
 .byte   PATT
  .word Label_01404D09
@  #05 @062   ----------------------------------------
 .byte   PATT
  .word Label_01404D32
@  #05 @063   ----------------------------------------
 .byte   PATT
  .word Label_01404CB7
@  #05 @064   ----------------------------------------
 .byte   PATT
  .word Label_01404CE0
@  #05 @065   ----------------------------------------
 .byte   PATT
  .word Label_01404D09
@  #05 @066   ----------------------------------------
 .byte   PATT
  .word Label_01404D6A
@  #05 @067   ----------------------------------------
 .byte   PATT
  .word Label_01404D7F
@  #05 @068   ----------------------------------------
 .byte   PATT
  .word Label_01404D87
@  #05 @069   ----------------------------------------
 .byte   PATT
  .word Label_01404D7F
@  #05 @070   ----------------------------------------
 .byte   PATT
  .word Label_01404D94
@  #05 @071   ----------------------------------------
 .byte   PATT
  .word Label_01404D7F
@  #05 @072   ----------------------------------------
 .byte   PATT
  .word Label_01404DA1
@  #05 @073   ----------------------------------------
 .byte   PATT
  .word Label_01404DB9
@  #05 @074   ----------------------------------------
 .byte   PATT
  .word Label_01404DD9
@  #05 @075   ----------------------------------------
 .byte   PATT
  .word Label_01404DFC
@  #05 @076   ----------------------------------------
 .byte   PATT
  .word Label_01404E07
@  #05 @077   ----------------------------------------
 .byte   PATT
  .word Label_01404E23
@  #05 @078   ----------------------------------------
 .byte   PATT
  .word Label_01404E44
@  #05 @079   ----------------------------------------
 .byte   PATT
  .word Label_01404E69
@  #05 @080   ----------------------------------------
 .byte   PATT
  .word Label_01404E86
@  #05 @081   ----------------------------------------
 .byte   PATT
  .word Label_01404EA9
@  #05 @082   ----------------------------------------
 .byte   PATT
  .word Label_01404ECC
@  #05 @083   ----------------------------------------
 .byte   PATT
  .word Label_01404EEF
@  #05 @084   ----------------------------------------
 .byte   PATT
  .word Label_01404F12
@  #05 @085   ----------------------------------------
 .byte   PATT
  .word Label_01404F35
@  #05 @086   ----------------------------------------
 .byte   PATT
  .word Label_01404F58
@  #05 @087   ----------------------------------------
 .byte   PATT
  .word Label_01404F7B
@  #05 @088   ----------------------------------------
 .byte   PATT
  .word Label_01404F96
@  #05 @089   ----------------------------------------
 .byte   PATT
  .word Label_01404FB9
@  #05 @090   ----------------------------------------
 .byte   PATT
  .word Label_01404FDC
@  #05 @091   ----------------------------------------
 .byte   PATT
  .word Label_01404FFF
@  #05 @092   ----------------------------------------
 .byte   N11 ,En2 ,v064
 .byte   N11 ,An2
 .byte   W12
 .byte   N23 ,Fs2
 .byte   N23 ,Bn2
 .byte   W24
 .byte   N11 ,Fs2
 .byte   N11 ,Bn2
 .byte   W12
 .byte   Fs2
 .byte   N11 ,Bn2
 .byte   W12
 .byte   Fs2
 .byte   N11 ,Bn2
 .byte   W12
 .byte   Fs2
 .byte   N11 ,Bn2
 .byte   W12
 .byte   Fs2
 .byte   N11 ,Bn2
 .byte   W12
@  #05 @093   ----------------------------------------
Label_01405184:
 .byte   N11 ,Fs2 ,v064
 .byte   N11 ,Bn2
 .byte   W12
 .byte   Fs2
 .byte   N11 ,Bn2
 .byte   W12
 .byte   Fs2
 .byte   N11 ,Bn2
 .byte   W12
 .byte   Fs2
 .byte   N11 ,Bn2
 .byte   W12
 .byte   Fs2
 .byte   N11 ,Bn2
 .byte   W12
 .byte   Fs2
 .byte   N11 ,Bn2
 .byte   W12
 .byte   Fs2
 .byte   N11 ,Bn2
 .byte   W12
 .byte   Fs2
 .byte   N11 ,Bn2
 .byte   W12
 .byte   PEND 
@  #05 @094   ----------------------------------------
 .byte   PATT
  .word Label_01405184
@  #05 @095   ----------------------------------------
 .byte   PATT
  .word Label_01405184
@  #05 @096   ----------------------------------------
 .byte   N11 ,Fs2 ,v064
 .byte   N11 ,Bn2
 .byte   W12
 .byte   Fs2
 .byte   N11 ,Bn2
 .byte   W84
@  #05 @097   ----------------------------------------
 .byte   W96
@  #05 @098   ----------------------------------------
 .byte   W96
@  #05 @099   ----------------------------------------
 .byte   W96
@  #05 @100   ----------------------------------------
 .byte   W96
@  #05 @101   ----------------------------------------
 .byte   W96
@  #05 @102   ----------------------------------------
 .byte   W96
@  #05 @103   ----------------------------------------
 .byte   W96
@  #05 @104   ----------------------------------------
 .byte   W96
@  #05 @105   ----------------------------------------
 .byte   W96
@  #05 @106   ----------------------------------------
 .byte   PATT
  .word Label_01404E07
@  #05 @107   ----------------------------------------
 .byte   PATT
  .word Label_01404E23
@  #05 @108   ----------------------------------------
 .byte   PATT
  .word Label_01404E44
@  #05 @109   ----------------------------------------
 .byte   PATT
  .word Label_01404E69
@  #05 @110   ----------------------------------------
 .byte   PATT
  .word Label_01404E86
@  #05 @111   ----------------------------------------
 .byte   PATT
  .word Label_01404EA9
@  #05 @112   ----------------------------------------
 .byte   PATT
  .word Label_01404ECC
@  #05 @113   ----------------------------------------
 .byte   PATT
  .word Label_01404EEF
@  #05 @114   ----------------------------------------
 .byte   PATT
  .word Label_01404F12
@  #05 @115   ----------------------------------------
 .byte   PATT
  .word Label_01404F35
@  #05 @116   ----------------------------------------
 .byte   PATT
  .word Label_01404F58
@  #05 @117   ----------------------------------------
 .byte   PATT
  .word Label_01404F7B
@  #05 @118   ----------------------------------------
 .byte   PATT
  .word Label_01404F96
@  #05 @119   ----------------------------------------
 .byte   PATT
  .word Label_01404FB9
@  #05 @120   ----------------------------------------
 .byte   PATT
  .word Label_01404FDC
@  #05 @121   ----------------------------------------
 .byte   PATT
  .word Label_01404FFF
@  #05 @122   ----------------------------------------
 .byte   N11 ,En2 ,v064
 .byte   N11 ,An2
 .byte   W12
 .byte   En2
 .byte   N11 ,An2
 .byte   W12
 .byte   Dn2
 .byte   N11 ,Gn2
 .byte   W12
 .byte   Dn2
 .byte   N11 ,Gn2
 .byte   W12
 .byte   Dn2
 .byte   N11 ,Gn2
 .byte   W12
 .byte   Dn2
 .byte   N11 ,Gn2
 .byte   W12
 .byte   Dn2
 .byte   N11 ,Gn2
 .byte   W12
 .byte   Dn2
 .byte   N11 ,Gn2
 .byte   W12
@  #05 @123   ----------------------------------------
 .byte   PATT
  .word Label_01404E23
@  #05 @124   ----------------------------------------
 .byte   PATT
  .word Label_01404E44
@  #05 @125   ----------------------------------------
 .byte   PATT
  .word Label_01404E69
@  #05 @126   ----------------------------------------
 .byte   PATT
  .word Label_01404E86
@  #05 @127   ----------------------------------------
 .byte   PATT
  .word Label_01404EA9
@  #05 @128   ----------------------------------------
 .byte   PATT
  .word Label_01404ECC
@  #05 @129   ----------------------------------------
 .byte   PATT
  .word Label_01404EEF
@  #05 @130   ----------------------------------------
 .byte   PATT
  .word Label_01404F12
@  #05 @131   ----------------------------------------
 .byte   PATT
  .word Label_01404F35
@  #05 @132   ----------------------------------------
 .byte   PATT
  .word Label_01404F58
@  #05 @133   ----------------------------------------
 .byte   PATT
  .word Label_01404F7B
@  #05 @134   ----------------------------------------
 .byte   PATT
  .word Label_01404F96
@  #05 @135   ----------------------------------------
 .byte   PATT
  .word Label_01404FB9
@  #05 @136   ----------------------------------------
 .byte   PATT
  .word Label_01404FDC
@  #05 @137   ----------------------------------------
 .byte   PATT
  .word Label_01404FFF
@  #05 @138   ----------------------------------------
 .byte   PATT
  .word Label_01405022
@  #05 @139   ----------------------------------------
 .byte   PATT
  .word Label_01405045
@  #05 @140   ----------------------------------------
 .byte   PATT
  .word Label_01405022
@  #05 @141   ----------------------------------------
 .byte   PATT
  .word Label_01405045
@  #05 @142   ----------------------------------------
 .byte   PATT
  .word Label_01405022
@  #05 @143   ----------------------------------------
 .byte   PATT
  .word Label_01405045
@  #05 @144   ----------------------------------------
 .byte   PATT
  .word Label_01405022
@  #05 @145   ----------------------------------------
 .byte   PATT
  .word Label_01405045
@  #05 @146   ----------------------------------------
 .byte   GOTO
  .word Label_01404C20
@  #05 @147   ----------------------------------------
 .byte   N11 ,En2 ,v064
 .byte   N11 ,An2
 .byte   W12
 .byte   Fs2
 .byte   N11 ,Bn2
 .byte   W11
 .byte   FINE

@**************** Track 6 (Midi-Chn.5) ****************@

song04_006:
@  #06 @000   ----------------------------------------
 .byte   KEYSH , song04_key+0
 .byte   VOICE , 4
 .byte   VOL , 38*song04_mvl/mxv
 .byte   PAN , c_v+0
 .byte   W96
@  #06 @001   ----------------------------------------
 .byte   W96
@  #06 @002   ----------------------------------------
 .byte   W96
@  #06 @003   ----------------------------------------
 .byte   W96
@  #06 @004   ----------------------------------------
 .byte   W96
@  #06 @005   ----------------------------------------
 .byte   W96
@  #06 @006   ----------------------------------------
 .byte   W96
@  #06 @007   ----------------------------------------
 .byte   W96
@  #06 @008   ----------------------------------------
Label_014052DC:
 .byte   W96
@  #06 @009   ----------------------------------------
 .byte   W96
@  #06 @010   ----------------------------------------
 .byte   W96
@  #06 @011   ----------------------------------------
 .byte   W96
@  #06 @012   ----------------------------------------
Label_014052E0:
 .byte   W24
 .byte   N92 ,Dn3 ,v064
 .byte   N92 ,Fs3
 .byte   W72
 .byte   PEND 
@  #06 @013   ----------------------------------------
Label_014052E8:
 .byte   W24
 .byte   N92 ,Fs3 ,v064
 .byte   N92 ,An3
 .byte   W72
 .byte   PEND 
@  #06 @014   ----------------------------------------
Label_014052F0:
 .byte   W24
 .byte   N92 ,Gs3 ,v064
 .byte   N92 ,Bn3
 .byte   W72
 .byte   PEND 
@  #06 @015   ----------------------------------------
Label_014052F8:
 .byte   W24
 .byte   N92 ,As3 ,v064
 .byte   N92 ,Cs4
 .byte   W72
 .byte   PEND 
@  #06 @016   ----------------------------------------
 .byte   PATT
  .word Label_014052E0
@  #06 @017   ----------------------------------------
 .byte   PATT
  .word Label_014052E8
@  #06 @018   ----------------------------------------
 .byte   PATT
  .word Label_014052F0
@  #06 @019   ----------------------------------------
 .byte   PATT
  .word Label_014052F8
@  #06 @020   ----------------------------------------
Label_01405314:
 .byte   W24
 .byte   N92 ,Bn2 ,v064
 .byte   N92 ,En3
 .byte   W72
 .byte   PEND 
@  #06 @021   ----------------------------------------
Label_0140531C:
 .byte   W24
 .byte   N92 ,Cs3 ,v064
 .byte   N92 ,Fs3
 .byte   W72
 .byte   PEND 
@  #06 @022   ----------------------------------------
Label_01405324:
 .byte   W24
 .byte   N92 ,Dn3 ,v064
 .byte   N92 ,Gn3
 .byte   W72
 .byte   PEND 
@  #06 @023   ----------------------------------------
 .byte   PATT
  .word Label_0140531C
@  #06 @024   ----------------------------------------
 .byte   PATT
  .word Label_01405314
@  #06 @025   ----------------------------------------
 .byte   PATT
  .word Label_0140531C
@  #06 @026   ----------------------------------------
Label_0140533B:
 .byte   W24
 .byte   TIE ,Dn3 ,v064
 .byte   TIE ,Gn3
 .byte   W72
 .byte   PEND 
@  #06 @027   ----------------------------------------
 .byte   W96
@  #06 @028   ----------------------------------------
 .byte   W23
 .byte   EOT
 .byte   Dn3 ,v067
 .byte   W01
 .byte   N80 ,Fs3
 .byte   N80 ,An3
 .byte   W72
@  #06 @029   ----------------------------------------
Label_0140534E:
 .byte   W12
 .byte   N11 ,Fs3 ,v064
 .byte   N11 ,Bn3
 .byte   W84
 .byte   PEND 
@  #06 @030   ----------------------------------------
Label_01405356:
 .byte   W24
 .byte   N80 ,Dn3 ,v064
 .byte   N80 ,Gn3
 .byte   W72
 .byte   PEND 
@  #06 @031   ----------------------------------------
Label_0140535E:
 .byte   W12
 .byte   TIE ,En3 ,v064
 .byte   TIE ,An3
 .byte   W84
 .byte   PEND 
@  #06 @032   ----------------------------------------
 .byte   W23
 .byte   EOT
 .byte   En3 ,v069
 .byte   W01
 .byte   N56 ,Fs3
 .byte   N56 ,Bn3
 .byte   W60
 .byte   N05 ,En3
 .byte   N05 ,An3
 .byte   W12
@  #06 @033   ----------------------------------------
Label_01405375:
 .byte   W12
 .byte   TIE ,Dn3 ,v064
 .byte   TIE ,Gs3
 .byte   W84
 .byte   PEND 
@  #06 @034   ----------------------------------------
 .byte   W23
 .byte   EOT
 .byte   Dn3 ,v068
 .byte   W01
 .byte   N92 ,Bn2
 .byte   N92 ,En3
 .byte   W72
@  #06 @035   ----------------------------------------
 .byte   W24
 .byte   N92
 .byte   N92 ,An3
 .byte   W72
@  #06 @036   ----------------------------------------
Label_0140538C:
 .byte   W24
 .byte   N44 ,Fs3 ,v064
 .byte   N44 ,Bn3
 .byte   W48
 .byte   Fn3
 .byte   N44 ,As3
 .byte   W24
 .byte   PEND 
@  #06 @037   ----------------------------------------
Label_01405398:
 .byte   W24
 .byte   N44 ,En3 ,v064
 .byte   N44 ,An3
 .byte   W48
 .byte   N44
 .byte   N44 ,Dn4
 .byte   W24
 .byte   PEND 
@  #06 @038   ----------------------------------------
 .byte   PATT
  .word Label_0140533B
@  #06 @039   ----------------------------------------
 .byte   W96
@  #06 @040   ----------------------------------------
 .byte   W23
 .byte   EOT
 .byte   Dn3 ,v067
 .byte   W01
 .byte   TIE ,Cs3 ,v064
 .byte   TIE ,Fs3
 .byte   W72
@  #06 @041   ----------------------------------------
 .byte   W96
@  #06 @042   ----------------------------------------
 .byte   W23
 .byte   EOT
 .byte   Cs3 ,v066
 .byte   W01
 .byte   N92 ,Bn2
 .byte   N92 ,En3
 .byte   W72
@  #06 @043   ----------------------------------------
 .byte   PATT
  .word Label_0140531C
@  #06 @044   ----------------------------------------
 .byte   PATT
  .word Label_01405324
@  #06 @045   ----------------------------------------
 .byte   W24
 .byte   N92 ,En3 ,v064
 .byte   N92 ,An3
 .byte   W72
@  #06 @046   ----------------------------------------
 .byte   W96
@  #06 @047   ----------------------------------------
 .byte   W96
@  #06 @048   ----------------------------------------
 .byte   W96
@  #06 @049   ----------------------------------------
 .byte   W96
@  #06 @050   ----------------------------------------
 .byte   W96
@  #06 @051   ----------------------------------------
 .byte   W96
@  #06 @052   ----------------------------------------
 .byte   W96
@  #06 @053   ----------------------------------------
 .byte   W96
@  #06 @054   ----------------------------------------
 .byte   W96
@  #06 @055   ----------------------------------------
 .byte   W96
@  #06 @056   ----------------------------------------
 .byte   W96
@  #06 @057   ----------------------------------------
 .byte   W96
@  #06 @058   ----------------------------------------
 .byte   PATT
  .word Label_014052E0
@  #06 @059   ----------------------------------------
 .byte   PATT
  .word Label_014052E8
@  #06 @060   ----------------------------------------
 .byte   PATT
  .word Label_014052F0
@  #06 @061   ----------------------------------------
 .byte   PATT
  .word Label_014052F8
@  #06 @062   ----------------------------------------
 .byte   PATT
  .word Label_014052E0
@  #06 @063   ----------------------------------------
 .byte   PATT
  .word Label_014052E8
@  #06 @064   ----------------------------------------
 .byte   PATT
  .word Label_014052F0
@  #06 @065   ----------------------------------------
 .byte   PATT
  .word Label_014052F8
@  #06 @066   ----------------------------------------
 .byte   PATT
  .word Label_01405314
@  #06 @067   ----------------------------------------
 .byte   PATT
  .word Label_0140531C
@  #06 @068   ----------------------------------------
 .byte   PATT
  .word Label_01405324
@  #06 @069   ----------------------------------------
 .byte   PATT
  .word Label_0140531C
@  #06 @070   ----------------------------------------
 .byte   PATT
  .word Label_01405314
@  #06 @071   ----------------------------------------
 .byte   PATT
  .word Label_0140531C
@  #06 @072   ----------------------------------------
 .byte   PATT
  .word Label_0140533B
@  #06 @073   ----------------------------------------
 .byte   W96
@  #06 @074   ----------------------------------------
 .byte   W23
 .byte   EOT
 .byte   Dn3 ,v067
 .byte   W01
 .byte   N80 ,Fs3 ,v064
 .byte   N80 ,An3
 .byte   W72
@  #06 @075   ----------------------------------------
 .byte   PATT
  .word Label_0140534E
@  #06 @076   ----------------------------------------
 .byte   PATT
  .word Label_01405356
@  #06 @077   ----------------------------------------
 .byte   PATT
  .word Label_0140535E
@  #06 @078   ----------------------------------------
 .byte   W23
 .byte   EOT
 .byte   En3 ,v069
 .byte   W01
 .byte   N56 ,Fs3 ,v064
 .byte   N56 ,Bn3
 .byte   W60
 .byte   N05 ,En3
 .byte   N05 ,An3
 .byte   W12
@  #06 @079   ----------------------------------------
 .byte   PATT
  .word Label_01405375
@  #06 @080   ----------------------------------------
 .byte   W23
 .byte   EOT
 .byte   Dn3 ,v068
 .byte   W01
 .byte   N92 ,Bn2 ,v064
 .byte   N92 ,En3
 .byte   W72
@  #06 @081   ----------------------------------------
 .byte   W24
 .byte   N92
 .byte   N92 ,An3
 .byte   W72
@  #06 @082   ----------------------------------------
 .byte   PATT
  .word Label_0140538C
@  #06 @083   ----------------------------------------
 .byte   PATT
  .word Label_01405398
@  #06 @084   ----------------------------------------
 .byte   PATT
  .word Label_0140533B
@  #06 @085   ----------------------------------------
 .byte   W96
@  #06 @086   ----------------------------------------
 .byte   W23
 .byte   EOT
 .byte   Dn3 ,v067
 .byte   W01
 .byte   TIE ,Cs3 ,v064
 .byte   TIE ,Fs3
 .byte   W72
@  #06 @087   ----------------------------------------
 .byte   W96
@  #06 @088   ----------------------------------------
 .byte   W23
 .byte   EOT
 .byte   Cs3 ,v066
 .byte   W01
 .byte   N92 ,Bn2
 .byte   N92 ,En3
 .byte   W72
@  #06 @089   ----------------------------------------
 .byte   PATT
  .word Label_0140531C
@  #06 @090   ----------------------------------------
 .byte   PATT
  .word Label_01405324
@  #06 @091   ----------------------------------------
 .byte   W24
 .byte   N92 ,En3 ,v064
 .byte   N92 ,An3
 .byte   W72
@  #06 @092   ----------------------------------------
 .byte   W96
@  #06 @093   ----------------------------------------
 .byte   W96
@  #06 @094   ----------------------------------------
 .byte   W96
@  #06 @095   ----------------------------------------
 .byte   W96
@  #06 @096   ----------------------------------------
Label_014054A3:
 .byte   W24
 .byte   N92 ,Bn2 ,v064
 .byte   N92 ,Dn3
 .byte   W72
 .byte   PEND 
@  #06 @097   ----------------------------------------
Label_014054AB:
 .byte   W24
 .byte   N92 ,An2 ,v064
 .byte   N92 ,Cs3
 .byte   W72
 .byte   PEND 
@  #06 @098   ----------------------------------------
 .byte   W24
 .byte   Gn2
 .byte   N92 ,Bn2
 .byte   W72
@  #06 @099   ----------------------------------------
 .byte   W24
 .byte   An2
 .byte   N92 ,Dn3
 .byte   W72
@  #06 @100   ----------------------------------------
 .byte   PATT
  .word Label_014054A3
@  #06 @101   ----------------------------------------
 .byte   PATT
  .word Label_014054AB
@  #06 @102   ----------------------------------------
 .byte   W24
 .byte   TIE ,Gs2 ,v064
 .byte   TIE ,Bn2
 .byte   W72
@  #06 @103   ----------------------------------------
 .byte   W96
@  #06 @104   ----------------------------------------
 .byte   W23
 .byte   EOT
 .byte   Gs2 ,v059
 .byte   W01
 .byte   N92
 .byte   N92 ,Dn3
 .byte   W72
@  #06 @105   ----------------------------------------
 .byte   W96
@  #06 @106   ----------------------------------------
 .byte   W24
 .byte   N80 ,Dn3 ,v080
 .byte   N80 ,Gn3
 .byte   W72
@  #06 @107   ----------------------------------------
 .byte   W12
 .byte   TIE ,En3
 .byte   TIE ,An3
 .byte   W84
@  #06 @108   ----------------------------------------
 .byte   W23
 .byte   EOT
 .byte   En3 ,v069
 .byte   W01
 .byte   N56 ,Fs3
 .byte   N56 ,Bn3
 .byte   W60
 .byte   N05 ,En3
 .byte   N05 ,An3
 .byte   W12
@  #06 @109   ----------------------------------------
Label_014054F5:
 .byte   W12
 .byte   TIE ,Dn3 ,v080
 .byte   TIE ,Gs3
 .byte   W84
 .byte   PEND 
@  #06 @110   ----------------------------------------
 .byte   W23
 .byte   EOT
 .byte   Dn3 ,v068
 .byte   W01
 .byte   N92 ,Bn2
 .byte   N92 ,En3
 .byte   W72
@  #06 @111   ----------------------------------------
 .byte   W24
 .byte   N92
 .byte   N92 ,An3
 .byte   W72
@  #06 @112   ----------------------------------------
Label_0140550C:
 .byte   W24
 .byte   N44 ,Fs3 ,v080
 .byte   N44 ,Bn3
 .byte   W48
 .byte   Fn3
 .byte   N44 ,As3
 .byte   W24
 .byte   PEND 
@  #06 @113   ----------------------------------------
Label_01405518:
 .byte   W24
 .byte   N44 ,En3 ,v080
 .byte   N44 ,An3
 .byte   W48
 .byte   N44
 .byte   N44 ,Dn4
 .byte   W24
 .byte   PEND 
@  #06 @114   ----------------------------------------
Label_01405524:
 .byte   W24
 .byte   TIE ,Dn3 ,v080
 .byte   TIE ,Gn3
 .byte   W72
 .byte   PEND 
@  #06 @115   ----------------------------------------
 .byte   W96
@  #06 @116   ----------------------------------------
 .byte   W23
 .byte   EOT
 .byte   Dn3 ,v067
 .byte   W01
 .byte   TIE ,Cs3
 .byte   TIE ,Fs3
 .byte   W72
@  #06 @117   ----------------------------------------
 .byte   W96
@  #06 @118   ----------------------------------------
 .byte   W23
 .byte   EOT
 .byte   Cs3 ,v066
 .byte   W01
 .byte   N92 ,Bn2
 .byte   N92 ,En3
 .byte   W72
@  #06 @119   ----------------------------------------
Label_01405542:
 .byte   W24
 .byte   N92 ,Cs3 ,v080
 .byte   N92 ,Fs3
 .byte   W72
 .byte   PEND 
@  #06 @120   ----------------------------------------
Label_0140554A:
 .byte   W24
 .byte   N92 ,Dn3 ,v080
 .byte   N92 ,Gn3
 .byte   W72
 .byte   PEND 
@  #06 @121   ----------------------------------------
 .byte   W24
 .byte   En3
 .byte   N92 ,An3
 .byte   W72
@  #06 @122   ----------------------------------------
 .byte   PATT
  .word Label_0140554A
@  #06 @123   ----------------------------------------
 .byte   W24
 .byte   N92 ,En3 ,v080
 .byte   N92 ,An3
 .byte   W72
@  #06 @124   ----------------------------------------
 .byte   W24
 .byte   N56 ,Fs3
 .byte   N56 ,Bn3
 .byte   W60
 .byte   N05 ,En3
 .byte   N05 ,An3
 .byte   W12
@  #06 @125   ----------------------------------------
 .byte   PATT
  .word Label_014054F5
@  #06 @126   ----------------------------------------
 .byte   W23
 .byte   EOT
 .byte   Dn3 ,v068
 .byte   W01
 .byte   N92 ,Bn2 ,v080
 .byte   N92 ,En3
 .byte   W72
@  #06 @127   ----------------------------------------
 .byte   W24
 .byte   N92
 .byte   N92 ,An3
 .byte   W72
@  #06 @128   ----------------------------------------
 .byte   PATT
  .word Label_0140550C
@  #06 @129   ----------------------------------------
 .byte   PATT
  .word Label_01405518
@  #06 @130   ----------------------------------------
 .byte   PATT
  .word Label_01405524
@  #06 @131   ----------------------------------------
 .byte   W96
@  #06 @132   ----------------------------------------
 .byte   W23
 .byte   EOT
 .byte   Dn3 ,v067
 .byte   W01
 .byte   TIE ,Cs3 ,v080
 .byte   TIE ,Fs3
 .byte   W72
@  #06 @133   ----------------------------------------
 .byte   W96
@  #06 @134   ----------------------------------------
 .byte   W23
 .byte   EOT
 .byte   Cs3 ,v066
 .byte   W01
 .byte   N92 ,Bn2
 .byte   N92 ,En3
 .byte   W72
@  #06 @135   ----------------------------------------
 .byte   PATT
  .word Label_01405542
@  #06 @136   ----------------------------------------
 .byte   PATT
  .word Label_0140554A
@  #06 @137   ----------------------------------------
 .byte   W24
 .byte   N92 ,En3 ,v080
 .byte   N92 ,An3
 .byte   W72
@  #06 @138   ----------------------------------------
 .byte   W96
@  #06 @139   ----------------------------------------
 .byte   W96
@  #06 @140   ----------------------------------------
 .byte   W96
@  #06 @141   ----------------------------------------
 .byte   W96
@  #06 @142   ----------------------------------------
 .byte   W96
@  #06 @143   ----------------------------------------
 .byte   W96
@  #06 @144   ----------------------------------------
 .byte   W96
@  #06 @145   ----------------------------------------
 .byte   W96
@  #06 @146   ----------------------------------------
 .byte   GOTO
  .word Label_014052DC
@  #06 @147   ----------------------------------------
 .byte   W23
 .byte   FINE

@**************** Track 7 (Midi-Chn.6) ****************@

song04_007:
@  #07 @000   ----------------------------------------
 .byte   KEYSH , song04_key+0
 .byte   VOICE , 124
 .byte   VOL , 40*song04_mvl/mxv
 .byte   PAN , c_v+0
 .byte   W12
 .byte   N11 ,Cn1 ,v112
 .byte   N07 ,Dn1 ,v127
 .byte   W36
 .byte   N23 ,Cn1 ,v112
 .byte   N23 ,Dn1 ,v127
 .byte   N23 ,As1
 .byte   W36
 .byte   N11 ,Cn1 ,v112
 .byte   N07 ,As1 ,v127
 .byte   W12
@  #07 @001   ----------------------------------------
Label_014055FC:
 .byte   W12
 .byte   N11 ,Cn1 ,v112
 .byte   N07 ,As1 ,v127
 .byte   W36
 .byte   N23 ,Cn1 ,v112
 .byte   N23 ,Dn1 ,v127
 .byte   N23 ,As1
 .byte   W36
 .byte   N11 ,Cn1 ,v112
 .byte   N07 ,As1 ,v127
 .byte   W12
 .byte   PEND 
@  #07 @002   ----------------------------------------
 .byte   PATT
  .word Label_014055FC
@  #07 @003   ----------------------------------------
 .byte   W12
 .byte   N11 ,Cn1 ,v112
 .byte   N07 ,As1 ,v127
 .byte   W24
 .byte   N11 ,Cn1 ,v112
 .byte   W12
 .byte   Dn1
 .byte   W12
 .byte   Cs2
 .byte   W24
 .byte   Cn1
 .byte   N07 ,As1 ,v127
 .byte   W12
@  #07 @004   ----------------------------------------
 .byte   W12
 .byte   N11 ,Cn1 ,v112
 .byte   N07 ,As1 ,v127
 .byte   W12
 .byte   N23 ,Cs2 ,v112
 .byte   W12
 .byte   N11 ,Cn1
 .byte   W12
 .byte   N23 ,Dn1
 .byte   N23 ,As1
 .byte   W24
 .byte   Cn1
 .byte   N23 ,As1
 .byte   W24
@  #07 @005   ----------------------------------------
Label_01405647:
 .byte   N11 ,Dn1 ,v112
 .byte   N11 ,As1
 .byte   W12
 .byte   Cn1
 .byte   N11 ,As1 ,v127
 .byte   W12
 .byte   N23 ,As1 ,v112
 .byte   W12
 .byte   N11 ,Cn1
 .byte   W12
 .byte   N23 ,Dn1
 .byte   N23 ,As1
 .byte   W24
 .byte   Cn1
 .byte   N23 ,As1
 .byte   W24
 .byte   PEND 
@  #07 @006   ----------------------------------------
 .byte   PATT
  .word Label_01405647
@  #07 @007   ----------------------------------------
 .byte   N11 ,Dn1 ,v112
 .byte   N11 ,As1
 .byte   W12
 .byte   As1 ,v127
 .byte   W12
 .byte   N23 ,Cn1 ,v112
 .byte   N23 ,As1
 .byte   W24
 .byte   N11 ,Dn1
 .byte   N11 ,As1
 .byte   W12
 .byte   Cn1
 .byte   N07 ,Dn1 ,v127
 .byte   N07 ,As1
 .byte   W24
 .byte   N11 ,Cn1 ,v112
 .byte   N07 ,Dn1 ,v127
 .byte   N07 ,As1
 .byte   W12
@  #07 @008   ----------------------------------------
Label_0140568C:
 .byte   W12
 .byte   N11 ,Cn1 ,v112
 .byte   N07 ,Dn1 ,v127
 .byte   N07 ,Cs2
 .byte   W12
 .byte   N23 ,Cn1 ,v112
 .byte   W12
 .byte   N11 ,Fs1
 .byte   W12
 .byte   Dn1
 .byte   W12
 .byte   Fs1
 .byte   W12
 .byte   N23 ,Cn1
 .byte   W12
 .byte   N11 ,Fs1
 .byte   W12
@  #07 @009   ----------------------------------------
Label_014056A7:
 .byte   N11 ,Dn1 ,v112
 .byte   W12
 .byte   Fs1
 .byte   W12
 .byte   N23 ,Cn1
 .byte   W12
 .byte   N11 ,Fs1
 .byte   W12
 .byte   Dn1
 .byte   W12
 .byte   Fs1
 .byte   W12
 .byte   N23 ,Cn1
 .byte   W12
 .byte   N11 ,Fs1
 .byte   W12
 .byte   PEND 
@  #07 @010   ----------------------------------------
Label_014056BE:
 .byte   N11 ,Dn1 ,v112
 .byte   W12
 .byte   N05 ,Fs1
 .byte   W06
 .byte   N05
 .byte   W06
 .byte   N23 ,Cn1
 .byte   W12
 .byte   N11 ,Fs1
 .byte   W12
 .byte   Dn1
 .byte   W12
 .byte   Fs1
 .byte   W12
 .byte   N23 ,Cn1
 .byte   W12
 .byte   N11 ,Fs1
 .byte   W12
 .byte   PEND 
@  #07 @011   ----------------------------------------
Label_014056D8:
 .byte   N11 ,Dn1 ,v112
 .byte   W12
 .byte   Fs1
 .byte   W12
 .byte   N23 ,Cn1
 .byte   W12
 .byte   N11 ,Dn1
 .byte   W12
 .byte   N05
 .byte   W06
 .byte   N05
 .byte   W42
 .byte   PEND 
@  #07 @012   ----------------------------------------
Label_014056E9:
 .byte   N05 ,Dn1 ,v112
 .byte   W06
 .byte   Dn2
 .byte   W06
 .byte   N11 ,Bn1
 .byte   W12
 .byte   N23 ,Cn1
 .byte   N11 ,Cs2
 .byte   W12
 .byte   Fs1
 .byte   W12
 .byte   N23 ,Cn1
 .byte   N11 ,Dn1
 .byte   W12
 .byte   Fs1
 .byte   W12
 .byte   N23 ,Cn1
 .byte   W12
 .byte   N11 ,Fs1
 .byte   W12
 .byte   PEND 
@  #07 @013   ----------------------------------------
Label_01405707:
 .byte   N23 ,Cn1 ,v112
 .byte   N11 ,Dn1
 .byte   W12
 .byte   Fs1
 .byte   W12
 .byte   N23 ,Cn1
 .byte   W12
 .byte   N11 ,Fs1
 .byte   W12
 .byte   N23 ,Cn1
 .byte   N11 ,Dn1
 .byte   W12
 .byte   Fs1
 .byte   W12
 .byte   N23 ,Cn1
 .byte   W12
 .byte   N11 ,Fs1
 .byte   W12
 .byte   PEND 
@  #07 @014   ----------------------------------------
Label_01405723:
 .byte   N23 ,Cn1 ,v112
 .byte   N11 ,Dn1
 .byte   W12
 .byte   N05 ,Fs1
 .byte   W06
 .byte   N05
 .byte   W06
 .byte   N23 ,Cn1
 .byte   W12
 .byte   N11 ,Fs1
 .byte   W12
 .byte   N23 ,Cn1
 .byte   N11 ,Dn1
 .byte   W12
 .byte   Fs1
 .byte   W12
 .byte   N23 ,Cn1
 .byte   W12
 .byte   N11 ,Fs1
 .byte   W12
 .byte   PEND 
@  #07 @015   ----------------------------------------
 .byte   PATT
  .word Label_01405707
@  #07 @016   ----------------------------------------
 .byte   PATT
  .word Label_01405723
@  #07 @017   ----------------------------------------
 .byte   PATT
  .word Label_01405707
@  #07 @018   ----------------------------------------
 .byte   PATT
  .word Label_01405723
@  #07 @019   ----------------------------------------
Label_01405756:
 .byte   N23 ,Cn1 ,v112
 .byte   N11 ,Dn1
 .byte   W12
 .byte   Fs1
 .byte   W12
 .byte   N23 ,Cn1
 .byte   W12
 .byte   N11 ,Fs1
 .byte   W12
 .byte   N23 ,Cn1
 .byte   N11 ,Dn1
 .byte   W12
 .byte   Fs1
 .byte   W12
 .byte   N23 ,Cn1
 .byte   W06
 .byte   N05 ,Dn1
 .byte   W06
 .byte   N11 ,Fs1
 .byte   W12
 .byte   PEND 
@  #07 @020   ----------------------------------------
Label_01405775:
 .byte   N23 ,Cn1 ,v112
 .byte   N11 ,Dn1
 .byte   W12
 .byte   Fs1
 .byte   N11 ,Dn2
 .byte   W12
 .byte   N23 ,Cn1
 .byte   N11 ,Cs2
 .byte   W12
 .byte   Dn2
 .byte   W12
 .byte   Dn1
 .byte   W12
 .byte   Dn2
 .byte   W12
 .byte   N23 ,Cn1
 .byte   W12
 .byte   N11 ,Dn2
 .byte   W12
 .byte   PEND 
@  #07 @021   ----------------------------------------
Label_01405791:
 .byte   N11 ,Dn1 ,v112
 .byte   W12
 .byte   Dn2
 .byte   W12
 .byte   N23 ,Cn1
 .byte   W12
 .byte   N11 ,Dn2
 .byte   W12
 .byte   Dn1
 .byte   W12
 .byte   Dn2
 .byte   W12
 .byte   N23 ,Cn1
 .byte   W12
 .byte   N11 ,Dn2
 .byte   W12
 .byte   PEND 
@  #07 @022   ----------------------------------------
 .byte   PATT
  .word Label_01405791
@  #07 @023   ----------------------------------------
 .byte   PATT
  .word Label_01405791
@  #07 @024   ----------------------------------------
 .byte   PATT
  .word Label_01405791
@  #07 @025   ----------------------------------------
 .byte   PATT
  .word Label_01405791
@  #07 @026   ----------------------------------------
 .byte   PATT
  .word Label_01405791
@  #07 @027   ----------------------------------------
 .byte   PATT
  .word Label_01405791
@  #07 @028   ----------------------------------------
Label_014057C6:
 .byte   N11 ,Dn1 ,v112
 .byte   W12
 .byte   Dn2
 .byte   W12
 .byte   N23 ,Cn1
 .byte   W12
 .byte   N11 ,Fs1
 .byte   W12
 .byte   Dn1
 .byte   W12
 .byte   Fs1
 .byte   W12
 .byte   N23 ,Cn1
 .byte   W12
 .byte   N11 ,Fs1
 .byte   W12
 .byte   PEND 
@  #07 @029   ----------------------------------------
Label_014057DD:
 .byte   N11 ,Dn1 ,v112
 .byte   W12
 .byte   N07 ,As1 ,v127
 .byte   W24
 .byte   N11 ,Dn1 ,v112
 .byte   W24
 .byte   Dn2
 .byte   W24
 .byte   An1
 .byte   W12
 .byte   PEND 
@  #07 @030   ----------------------------------------
Label_014057EE:
 .byte   N05 ,Dn1 ,v112
 .byte   W06
 .byte   Dn2
 .byte   W06
 .byte   N11 ,Bn1
 .byte   W12
 .byte   N23 ,Cn1
 .byte   N23 ,Cs2
 .byte   W24
 .byte   Dn1
 .byte   N23 ,As1
 .byte   W24
 .byte   Cn1
 .byte   N23 ,As1
 .byte   W24
 .byte   PEND 
@  #07 @031   ----------------------------------------
Label_01405805:
 .byte   N11 ,Dn1 ,v112
 .byte   N11 ,As1
 .byte   W12
 .byte   Cn1
 .byte   N11 ,Cs2 ,v127
 .byte   W12
 .byte   N23 ,As1 ,v112
 .byte   W12
 .byte   N11 ,Cn1
 .byte   W12
 .byte   N23 ,Dn1
 .byte   N23 ,As1
 .byte   W24
 .byte   Cn1
 .byte   N23 ,As1
 .byte   W24
 .byte   PEND 
@  #07 @032   ----------------------------------------
Label_01405821:
 .byte   N23 ,Dn1 ,v112
 .byte   N23 ,As1
 .byte   W24
 .byte   Cn1
 .byte   N23 ,Cs2
 .byte   W24
 .byte   Dn1
 .byte   N23 ,As1
 .byte   W24
 .byte   Cn1
 .byte   N11 ,As1
 .byte   W12
 .byte   N07 ,Dn1 ,v127
 .byte   N07 ,As1
 .byte   W12
 .byte   PEND 
@  #07 @033   ----------------------------------------
Label_0140583A:
 .byte   W12
 .byte   N11 ,Cn1 ,v112
 .byte   N11 ,Dn1 ,v127
 .byte   N11 ,Cs2
 .byte   W24
 .byte   Cn1 ,v112
 .byte   W12
 .byte   N23 ,Dn1
 .byte   N23 ,As1
 .byte   W24
 .byte   Cn1
 .byte   N23 ,As1
 .byte   W24
 .byte   PEND 
@  #07 @034   ----------------------------------------
Label_01405851:
 .byte   N23 ,Dn1 ,v112
 .byte   N23 ,As1
 .byte   W24
 .byte   Cn1
 .byte   N23 ,Cs2
 .byte   W24
 .byte   Dn1
 .byte   N23 ,As1
 .byte   W24
 .byte   Cn1
 .byte   N23 ,As1
 .byte   W24
 .byte   PEND 
@  #07 @035   ----------------------------------------
Label_01405864:
 .byte   N11 ,Dn1 ,v112
 .byte   N11 ,As1
 .byte   W12
 .byte   Dn2
 .byte   W12
 .byte   N23 ,Cn1
 .byte   N23 ,Cs2
 .byte   W24
 .byte   Dn1
 .byte   N23 ,As1
 .byte   W24
 .byte   Cn1
 .byte   N23 ,As1
 .byte   W24
 .byte   PEND 
@  #07 @036   ----------------------------------------
Label_0140587A:
 .byte   N23 ,Dn1 ,v112
 .byte   N23 ,As1
 .byte   W24
 .byte   Cn1
 .byte   N23 ,Cs2
 .byte   W24
 .byte   Dn1
 .byte   N23 ,As1
 .byte   W24
 .byte   Cn1
 .byte   N23 ,An2
 .byte   W24
 .byte   PEND 
@  #07 @037   ----------------------------------------
Label_0140588D:
 .byte   N23 ,Dn1 ,v112
 .byte   N23 ,As1
 .byte   W24
 .byte   Cn1
 .byte   N11 ,Dn1
 .byte   N11 ,Cs2
 .byte   W12
 .byte   Dn2
 .byte   W12
 .byte   N23 ,An1
 .byte   N23 ,As1
 .byte   W24
 .byte   Cn1
 .byte   N11 ,As1
 .byte   W12
 .byte   An1
 .byte   W12
 .byte   PEND 
@  #07 @038   ----------------------------------------
Label_014058A7:
 .byte   N11 ,Dn1 ,v112
 .byte   N11 ,As1
 .byte   W12
 .byte   N05 ,Dn1
 .byte   W06
 .byte   N05
 .byte   W06
 .byte   N23 ,Cn1
 .byte   N23 ,Cs2
 .byte   W24
 .byte   Dn1
 .byte   N23 ,As1
 .byte   W24
 .byte   Cn1
 .byte   N23 ,As1
 .byte   W24
 .byte   PEND 
@  #07 @039   ----------------------------------------
Label_014058C0:
 .byte   N23 ,Dn1 ,v112
 .byte   N23 ,As1
 .byte   W24
 .byte   Cn1
 .byte   N23 ,As1
 .byte   W24
 .byte   Dn1
 .byte   N23 ,As1
 .byte   W24
 .byte   Cn1
 .byte   N23 ,As1
 .byte   W24
 .byte   PEND 
@  #07 @040   ----------------------------------------
 .byte   PATT
  .word Label_014058C0
@  #07 @041   ----------------------------------------
Label_014058D8:
 .byte   N11 ,Cn1 ,v112
 .byte   W12
 .byte   N07 ,Dn1 ,v127
 .byte   N07 ,As1
 .byte   W24
 .byte   N11 ,Cn1 ,v112
 .byte   N07 ,As1 ,v127
 .byte   N07 ,Dn2
 .byte   W24
 .byte   N11 ,Cn1 ,v112
 .byte   N07 ,Dn1 ,v127
 .byte   N07 ,As1
 .byte   W24
 .byte   N11 ,Dn1 ,v112
 .byte   W12
 .byte   PEND 
@  #07 @042   ----------------------------------------
Label_014058F9:
 .byte   N23 ,Dn1 ,v112
 .byte   W24
 .byte   Cn1
 .byte   N23 ,Cs2
 .byte   W24
 .byte   Dn1
 .byte   N23 ,As1
 .byte   W24
 .byte   Cn1
 .byte   N23 ,As1
 .byte   W24
 .byte   PEND 
@  #07 @043   ----------------------------------------
 .byte   PATT
  .word Label_014058C0
@  #07 @044   ----------------------------------------
 .byte   PATT
  .word Label_014058C0
@  #07 @045   ----------------------------------------
Label_01405914:
 .byte   N23 ,Dn1 ,v112
 .byte   N23 ,As1
 .byte   W24
 .byte   Cn1
 .byte   N23 ,As1
 .byte   W24
 .byte   Dn1
 .byte   N23 ,As1
 .byte   W24
 .byte   Cn1
 .byte   N23 ,Cs2
 .byte   W24
 .byte   PEND 
@  #07 @046   ----------------------------------------
Label_01405927:
 .byte   N11 ,Dn1 ,v112
 .byte   N11 ,As1
 .byte   W12
 .byte   Cs2
 .byte   W12
 .byte   N23 ,Cn1
 .byte   N23 ,As1
 .byte   W24
 .byte   Dn1
 .byte   N23 ,As1
 .byte   W24
 .byte   Cn1
 .byte   N23 ,As1
 .byte   W24
 .byte   PEND 
@  #07 @047   ----------------------------------------
 .byte   PATT
  .word Label_014058C0
@  #07 @048   ----------------------------------------
 .byte   PATT
  .word Label_014058C0
@  #07 @049   ----------------------------------------
 .byte   PATT
  .word Label_014058C0
@  #07 @050   ----------------------------------------
 .byte   PATT
  .word Label_014058C0
@  #07 @051   ----------------------------------------
 .byte   PATT
  .word Label_014058C0
@  #07 @052   ----------------------------------------
 .byte   PATT
  .word Label_014058C0
@  #07 @053   ----------------------------------------
 .byte   PATT
  .word Label_014058C0
@  #07 @054   ----------------------------------------
 .byte   N11 ,Dn1 ,v112
 .byte   N11 ,As1
 .byte   W12
 .byte   Cs2
 .byte   W12
 .byte   N23 ,Cn1
 .byte   W12
 .byte   N11 ,Fs1
 .byte   W12
 .byte   Dn1
 .byte   W12
 .byte   Fs1
 .byte   W12
 .byte   N23 ,Cn1
 .byte   W12
 .byte   N11 ,Fs1
 .byte   W12
@  #07 @055   ----------------------------------------
 .byte   PATT
  .word Label_014056A7
@  #07 @056   ----------------------------------------
 .byte   PATT
  .word Label_014056BE
@  #07 @057   ----------------------------------------
 .byte   PATT
  .word Label_014056D8
@  #07 @058   ----------------------------------------
 .byte   PATT
  .word Label_014056E9
@  #07 @059   ----------------------------------------
 .byte   PATT
  .word Label_01405707
@  #07 @060   ----------------------------------------
 .byte   PATT
  .word Label_01405723
@  #07 @061   ----------------------------------------
 .byte   PATT
  .word Label_01405707
@  #07 @062   ----------------------------------------
 .byte   PATT
  .word Label_01405723
@  #07 @063   ----------------------------------------
 .byte   PATT
  .word Label_01405707
@  #07 @064   ----------------------------------------
 .byte   PATT
  .word Label_01405723
@  #07 @065   ----------------------------------------
 .byte   PATT
  .word Label_01405756
@  #07 @066   ----------------------------------------
 .byte   PATT
  .word Label_01405775
@  #07 @067   ----------------------------------------
 .byte   PATT
  .word Label_01405791
@  #07 @068   ----------------------------------------
 .byte   PATT
  .word Label_01405791
@  #07 @069   ----------------------------------------
 .byte   PATT
  .word Label_01405791
@  #07 @070   ----------------------------------------
 .byte   PATT
  .word Label_01405791
@  #07 @071   ----------------------------------------
 .byte   PATT
  .word Label_01405791
@  #07 @072   ----------------------------------------
 .byte   PATT
  .word Label_01405791
@  #07 @073   ----------------------------------------
 .byte   PATT
  .word Label_01405791
@  #07 @074   ----------------------------------------
 .byte   PATT
  .word Label_014057C6
@  #07 @075   ----------------------------------------
 .byte   PATT
  .word Label_014057DD
@  #07 @076   ----------------------------------------
 .byte   PATT
  .word Label_014057EE
@  #07 @077   ----------------------------------------
 .byte   PATT
  .word Label_01405805
@  #07 @078   ----------------------------------------
 .byte   PATT
  .word Label_01405821
@  #07 @079   ----------------------------------------
 .byte   PATT
  .word Label_0140583A
@  #07 @080   ----------------------------------------
 .byte   PATT
  .word Label_01405851
@  #07 @081   ----------------------------------------
 .byte   PATT
  .word Label_01405864
@  #07 @082   ----------------------------------------
 .byte   PATT
  .word Label_0140587A
@  #07 @083   ----------------------------------------
 .byte   PATT
  .word Label_0140588D
@  #07 @084   ----------------------------------------
 .byte   PATT
  .word Label_014058A7
@  #07 @085   ----------------------------------------
 .byte   PATT
  .word Label_014058C0
@  #07 @086   ----------------------------------------
 .byte   PATT
  .word Label_014058C0
@  #07 @087   ----------------------------------------
 .byte   PATT
  .word Label_014058D8
@  #07 @088   ----------------------------------------
 .byte   PATT
  .word Label_014058F9
@  #07 @089   ----------------------------------------
 .byte   PATT
  .word Label_014058C0
@  #07 @090   ----------------------------------------
 .byte   PATT
  .word Label_014058C0
@  #07 @091   ----------------------------------------
 .byte   PATT
  .word Label_01405914
@  #07 @092   ----------------------------------------
 .byte   PATT
  .word Label_01405927
@  #07 @093   ----------------------------------------
 .byte   PATT
  .word Label_014058C0
@  #07 @094   ----------------------------------------
 .byte   PATT
  .word Label_014058C0
@  #07 @095   ----------------------------------------
 .byte   N23 ,Dn1 ,v112
 .byte   N23 ,As1
 .byte   W24
 .byte   Cn1
 .byte   N23 ,As1
 .byte   W24
 .byte   N11 ,Dn1
 .byte   N11 ,As1
 .byte   W12
 .byte   Dn2
 .byte   W12
 .byte   As1
 .byte   W12
 .byte   An1
 .byte   W12
@  #07 @096   ----------------------------------------
 .byte   N23 ,Dn1
 .byte   N23 ,As1
 .byte   W12
 .byte   N11 ,Cn1
 .byte   W12
 .byte   N23 ,Cn1 ,v080
 .byte   N11 ,Fs1
 .byte   W12
 .byte   N11
 .byte   W12
 .byte   Cs1
 .byte   N11 ,Fs1
 .byte   W12
 .byte   N11
 .byte   W12
 .byte   N11
 .byte   W12
 .byte   N11
 .byte   W12
@  #07 @097   ----------------------------------------
Label_01405A6F:
 .byte   N11 ,Cs1 ,v080
 .byte   N11 ,Fs1
 .byte   W12
 .byte   N11
 .byte   W12
 .byte   N23 ,Cn1
 .byte   N11 ,Fs1
 .byte   W12
 .byte   N11
 .byte   W12
 .byte   Cs1
 .byte   N11 ,Fs1
 .byte   W12
 .byte   N11
 .byte   W12
 .byte   N11
 .byte   W12
 .byte   N11
 .byte   W12
 .byte   PEND 
@  #07 @098   ----------------------------------------
 .byte   PATT
  .word Label_01405A6F
@  #07 @099   ----------------------------------------
 .byte   PATT
  .word Label_01405A6F
@  #07 @100   ----------------------------------------
 .byte   PATT
  .word Label_01405A6F
@  #07 @101   ----------------------------------------
 .byte   PATT
  .word Label_01405A6F
@  #07 @102   ----------------------------------------
 .byte   PATT
  .word Label_01405A6F
@  #07 @103   ----------------------------------------
 .byte   PATT
  .word Label_01405A6F
@  #07 @104   ----------------------------------------
 .byte   N11 ,Cs1 ,v080
 .byte   N11 ,Fs1
 .byte   W12
 .byte   N11
 .byte   W12
 .byte   N23 ,Cn1
 .byte   N23 ,Cs1
 .byte   N23 ,As1
 .byte   W72
@  #07 @105   ----------------------------------------
 .byte   W12
 .byte   N11 ,Dn1 ,v112
 .byte   N11 ,Dn2
 .byte   W24
 .byte   Dn1
 .byte   N11 ,Bn1
 .byte   W24
 .byte   Dn1
 .byte   N11 ,An1
 .byte   W12
 .byte   N23 ,Cn1
 .byte   W12
 .byte   N11 ,An1
 .byte   W12
@  #07 @106   ----------------------------------------
 .byte   PATT
  .word Label_014057EE
@  #07 @107   ----------------------------------------
 .byte   PATT
  .word Label_01405805
@  #07 @108   ----------------------------------------
 .byte   PATT
  .word Label_01405821
@  #07 @109   ----------------------------------------
 .byte   PATT
  .word Label_0140583A
@  #07 @110   ----------------------------------------
 .byte   PATT
  .word Label_01405851
@  #07 @111   ----------------------------------------
 .byte   PATT
  .word Label_01405864
@  #07 @112   ----------------------------------------
 .byte   PATT
  .word Label_0140587A
@  #07 @113   ----------------------------------------
 .byte   PATT
  .word Label_0140588D
@  #07 @114   ----------------------------------------
 .byte   PATT
  .word Label_014058A7
@  #07 @115   ----------------------------------------
 .byte   PATT
  .word Label_014058C0
@  #07 @116   ----------------------------------------
 .byte   PATT
  .word Label_014058C0
@  #07 @117   ----------------------------------------
 .byte   PATT
  .word Label_014058D8
@  #07 @118   ----------------------------------------
 .byte   PATT
  .word Label_014058F9
@  #07 @119   ----------------------------------------
 .byte   PATT
  .word Label_014058C0
@  #07 @120   ----------------------------------------
 .byte   PATT
  .word Label_014058C0
@  #07 @121   ----------------------------------------
 .byte   N23 ,Dn1 ,v112
 .byte   N23 ,As1
 .byte   W24
 .byte   Cn1
 .byte   N23 ,As1
 .byte   W24
 .byte   N11
 .byte   N11 ,Cn2
 .byte   W12
 .byte   Bn1
 .byte   W12
 .byte   N23 ,Cn1
 .byte   N11 ,As1
 .byte   W12
 .byte   An1
 .byte   W12
@  #07 @122   ----------------------------------------
 .byte   Dn1
 .byte   N11 ,As1
 .byte   W12
 .byte   Dn1
 .byte   W12
 .byte   N23 ,Cn1
 .byte   N23 ,Cs2
 .byte   W24
 .byte   Dn1
 .byte   N23 ,As1
 .byte   W24
 .byte   Cn1
 .byte   N23 ,As1
 .byte   W24
@  #07 @123   ----------------------------------------
 .byte   PATT
  .word Label_01405805
@  #07 @124   ----------------------------------------
 .byte   PATT
  .word Label_01405821
@  #07 @125   ----------------------------------------
 .byte   PATT
  .word Label_0140583A
@  #07 @126   ----------------------------------------
 .byte   PATT
  .word Label_01405851
@  #07 @127   ----------------------------------------
 .byte   PATT
  .word Label_01405864
@  #07 @128   ----------------------------------------
 .byte   PATT
  .word Label_0140587A
@  #07 @129   ----------------------------------------
 .byte   PATT
  .word Label_0140588D
@  #07 @130   ----------------------------------------
 .byte   PATT
  .word Label_014058A7
@  #07 @131   ----------------------------------------
 .byte   PATT
  .word Label_014058C0
@  #07 @132   ----------------------------------------
 .byte   PATT
  .word Label_014058C0
@  #07 @133   ----------------------------------------
 .byte   PATT
  .word Label_014058D8
@  #07 @134   ----------------------------------------
 .byte   PATT
  .word Label_014058F9
@  #07 @135   ----------------------------------------
 .byte   PATT
  .word Label_014058C0
@  #07 @136   ----------------------------------------
 .byte   PATT
  .word Label_014058C0
@  #07 @137   ----------------------------------------
 .byte   PATT
  .word Label_01405914
@  #07 @138   ----------------------------------------
 .byte   PATT
  .word Label_01405927
@  #07 @139   ----------------------------------------
 .byte   PATT
  .word Label_014058C0
@  #07 @140   ----------------------------------------
 .byte   PATT
  .word Label_014058C0
@  #07 @141   ----------------------------------------
 .byte   PATT
  .word Label_014058C0
@  #07 @142   ----------------------------------------
 .byte   PATT
  .word Label_014058C0
@  #07 @143   ----------------------------------------
 .byte   PATT
  .word Label_014058C0
@  #07 @144   ----------------------------------------
 .byte   PATT
  .word Label_014058C0
@  #07 @145   ----------------------------------------
 .byte   N23 ,Dn1 ,v112
 .byte   N23 ,As1
 .byte   W24
 .byte   Cn1
 .byte   N23 ,As1
 .byte   W24
 .byte   Dn1
 .byte   N23 ,As1
 .byte   W24
 .byte   Cn1
 .byte   N11 ,As1
 .byte   W12
 .byte   Dn1
 .byte   W12
@  #07 @146   ----------------------------------------
 .byte   GOTO
  .word Label_0140568C
@  #07 @147   ----------------------------------------
 .byte   N11 ,Dn1 ,v112
 .byte   N11 ,As1
 .byte   W12
 .byte   Cs2
 .byte   W11
 .byte   FINE

@******************************************************@
	.align	2

song04:
	.byte	7	@ NumTrks
	.byte	0	@ NumBlks
	.byte	song04_pri	@ Priority
	.byte	song04_rev	@ Reverb.
    
	.word	song04_grp
    
	.word	song04_001
	.word	song04_002
	.word	song04_003
	.word	song04_004
	.word	song04_005
	.word	song04_006
	.word	song04_007

	.end
