	.include "MPlayDef.s"

	.equ	song04_grp, voicegroup000
	.equ	song04_pri, 0
	.equ	song04_rev, 0
	.equ	song04_mvl, 127
	.equ	song04_key, 0
	.equ	song04_tbs, 1
	.equ	song04_exg, 0
	.equ	song04_cmp, 1

	.section .rodata
	.global	song04
	.align	2


@**************** Track 1 (Midi-Chn.0) ****************@

song04_001:
@  #01 @000   ----------------------------------------
 .byte   KEYSH , song04_key+0
 .byte   TEMPO , 160*song04_tbs/2
 .byte   VOICE , 40
 .byte   MODT 0
 .byte   LFOS 44
 .byte   PAN , c_v+0
 .byte   VOL , 33*song04_mvl/mxv
 .byte   BENDR, 12
 .byte   PAN , c_v+0
 .byte   VOL , 33*song04_mvl/mxv
 .byte   BENDR, 12
 .byte   PAN , c_v+0
 .byte   VOL , 33*song04_mvl/mxv
 .byte   BENDR, 12
 .byte   PAN , c_v+0
 .byte   VOL , 33*song04_mvl/mxv
 .byte   BEND , c_v+0
 .byte   W96
@  #01 @001   ----------------------------------------
 .byte   W96
@  #01 @002   ----------------------------------------
 .byte   W96
@  #01 @003   ----------------------------------------
 .byte   W96
@  #01 @004   ----------------------------------------
 .byte   W96
@  #01 @005   ----------------------------------------
 .byte   W96
@  #01 @006   ----------------------------------------
 .byte   W96
@  #01 @007   ----------------------------------------
 .byte   W96
@  #01 @008   ----------------------------------------
 .byte   W96
@  #01 @009   ----------------------------------------
 .byte   W96
@  #01 @010   ----------------------------------------
 .byte   W96
@  #01 @011   ----------------------------------------
 .byte   W96
@  #01 @012   ----------------------------------------
Label_01004CF2:
 .byte   W48
 .byte   N24 ,As3 ,v088
 .byte   W24
 .byte   N12 ,Cs4
 .byte   W12
 .byte   N84 ,Ds4
 .byte   W12
 .byte   PEND 
@  #01 @013   ----------------------------------------
Label_01004CFE:
 .byte   W72
 .byte   N12 ,Fs4 ,v088
 .byte   W12
 .byte   N36 ,Fn4
 .byte   W12
 .byte   PEND 
@  #01 @014   ----------------------------------------
Label_01004D07:
 .byte   W24
 .byte   N24 ,Ds4 ,v088
 .byte   W24
 .byte   Cs4
 .byte   W24
 .byte   N12 ,Ds4
 .byte   W12
 .byte   TIE ,As3
 .byte   W12
 .byte   PEND 
@  #01 @015   ----------------------------------------
 .byte   W96
@  #01 @016   ----------------------------------------
 .byte   W48
 .byte   EOT
 .byte   N24 ,Ds3
 .byte   W24
 .byte   N12 ,Fs3
 .byte   W12
 .byte   N84 ,Gs3
 .byte   W12
@  #01 @017   ----------------------------------------
Label_01004D21:
 .byte   W72
 .byte   N12 ,Fs3 ,v088
 .byte   W12
 .byte   N36 ,Gs3
 .byte   W12
 .byte   PEND 
@  #01 @018   ----------------------------------------
Label_01004D2A:
 .byte   W24
 .byte   N24 ,Fs3 ,v088
 .byte   W24
 .byte   Gs3
 .byte   W24
 .byte   N12 ,Cs4
 .byte   W12
 .byte   TIE ,As3
 .byte   W12
 .byte   PEND 
@  #01 @019   ----------------------------------------
 .byte   W96
@  #01 @020   ----------------------------------------
 .byte   W24
 .byte   EOT
 .byte   W24
 .byte   N24
 .byte   W24
 .byte   N12 ,Cs4
 .byte   W12
 .byte   N84 ,Ds4
 .byte   W12
@  #01 @021   ----------------------------------------
 .byte   PATT
  .word Label_01004CFE
@  #01 @022   ----------------------------------------
 .byte   PATT
  .word Label_01004D07
@  #01 @023   ----------------------------------------
 .byte   W96
@  #01 @024   ----------------------------------------
 .byte   W48
 .byte   EOT
 .byte   As3
 .byte   N24 ,Ds3 ,v088
 .byte   W24
 .byte   N12 ,Fs3
 .byte   W12
 .byte   TIE ,Gs3
 .byte   W12
@  #01 @025   ----------------------------------------
 .byte   W96
@  #01 @026   ----------------------------------------
 .byte   W96
@  #01 @027   ----------------------------------------
 .byte   W48
 .byte   EOT
 .byte   W36
 .byte   N36
 .byte   W12
@  #01 @028   ----------------------------------------
Label_01004D63:
 .byte   W24
 .byte   N24 ,Fs3 ,v088
 .byte   W24
 .byte   Gs3
 .byte   W24
 .byte   N12 ,As3
 .byte   W12
 .byte   TIE ,Fs3
 .byte   W12
 .byte   PEND 
@  #01 @029   ----------------------------------------
 .byte   W96
@  #01 @030   ----------------------------------------
 .byte   W96
@  #01 @031   ----------------------------------------
 .byte   EOT
 .byte   W96
@  #01 @032   ----------------------------------------
 .byte   W96
@  #01 @033   ----------------------------------------
 .byte   W96
@  #01 @034   ----------------------------------------
 .byte   W96
@  #01 @035   ----------------------------------------
 .byte   W96
@  #01 @036   ----------------------------------------
 .byte   W96
@  #01 @037   ----------------------------------------
 .byte   W96
@  #01 @038   ----------------------------------------
 .byte   W96
@  #01 @039   ----------------------------------------
 .byte   W96
@  #01 @040   ----------------------------------------
 .byte   W96
@  #01 @041   ----------------------------------------
 .byte   W96
@  #01 @042   ----------------------------------------
 .byte   W96
@  #01 @043   ----------------------------------------
 .byte   W96
@  #01 @044   ----------------------------------------
 .byte   PATT
  .word Label_01004CF2
@  #01 @045   ----------------------------------------
 .byte   PATT
  .word Label_01004CFE
@  #01 @046   ----------------------------------------
 .byte   PATT
  .word Label_01004D07
@  #01 @047   ----------------------------------------
 .byte   W96
@  #01 @048   ----------------------------------------
 .byte   W48
 .byte   EOT
 .byte   As3
 .byte   N24 ,Ds3 ,v088
 .byte   W24
 .byte   N12 ,Fs3
 .byte   W12
 .byte   N84 ,Gs3
 .byte   W12
@  #01 @049   ----------------------------------------
 .byte   PATT
  .word Label_01004D21
@  #01 @050   ----------------------------------------
 .byte   PATT
  .word Label_01004D2A
@  #01 @051   ----------------------------------------
 .byte   W96
@  #01 @052   ----------------------------------------
 .byte   W24
 .byte   EOT
 .byte   As3
 .byte   W24
 .byte   N24 ,As3 ,v088
 .byte   W24
 .byte   N12 ,Cs4
 .byte   W12
 .byte   N84 ,Ds4
 .byte   W12
@  #01 @053   ----------------------------------------
 .byte   PATT
  .word Label_01004CFE
@  #01 @054   ----------------------------------------
 .byte   PATT
  .word Label_01004D07
@  #01 @055   ----------------------------------------
 .byte   W96
@  #01 @056   ----------------------------------------
 .byte   W48
 .byte   EOT
 .byte   As3
 .byte   N24 ,Ds3 ,v088
 .byte   W24
 .byte   N12 ,Fs3
 .byte   W12
 .byte   TIE ,Gs3
 .byte   W12
@  #01 @057   ----------------------------------------
 .byte   W96
@  #01 @058   ----------------------------------------
 .byte   W96
@  #01 @059   ----------------------------------------
 .byte   W48
 .byte   EOT
 .byte   W36
 .byte   N36
 .byte   W12
@  #01 @060   ----------------------------------------
 .byte   PATT
  .word Label_01004D63
@  #01 @061   ----------------------------------------
 .byte   W96
@  #01 @062   ----------------------------------------
 .byte   W96
@  #01 @063   ----------------------------------------
 .byte   EOT
 .byte   Fs3
 .byte   W96
@  #01 @064   ----------------------------------------
 .byte   W96
@  #01 @065   ----------------------------------------
 .byte   W96
@  #01 @066   ----------------------------------------
 .byte   W96
@  #01 @067   ----------------------------------------
 .byte   W96
@  #01 @068   ----------------------------------------
 .byte   W96
@  #01 @069   ----------------------------------------
 .byte   W96
@  #01 @070   ----------------------------------------
 .byte   W96
@  #01 @071   ----------------------------------------
 .byte   W96
@  #01 @072   ----------------------------------------
 .byte   W96
@  #01 @073   ----------------------------------------
 .byte   W96
@  #01 @074   ----------------------------------------
 .byte   W96
@  #01 @075   ----------------------------------------
 .byte   W96
@  #01 @076   ----------------------------------------
 .byte   PATT
  .word Label_01004CF2
@  #01 @077   ----------------------------------------
Label_01004DF1:
@  #01 @078   ----------------------------------------
 .byte   PATT
  .word Label_01004CFE
@  #01 @079   ----------------------------------------
 .byte   PATT
  .word Label_01004D07
@  #01 @080   ----------------------------------------
 .byte   W96
@  #01 @081   ----------------------------------------
 .byte   W48
 .byte   EOT
 .byte   As3
 .byte   N24 ,Ds3 ,v088
 .byte   W24
 .byte   N12 ,Fs3
 .byte   W12
 .byte   N84 ,Gs3
 .byte   W12
@  #01 @082   ----------------------------------------
 .byte   PATT
  .word Label_01004D21
@  #01 @083   ----------------------------------------
 .byte   PATT
  .word Label_01004D2A
@  #01 @084   ----------------------------------------
 .byte   W96
@  #01 @085   ----------------------------------------
 .byte   W24
 .byte   EOT
 .byte   As3
 .byte   W24
 .byte   N24 ,As3 ,v088
 .byte   W24
 .byte   N12 ,Cs4
 .byte   W12
 .byte   N84 ,Ds4
 .byte   W12
@  #01 @086   ----------------------------------------
 .byte   PATT
  .word Label_01004CFE
@  #01 @087   ----------------------------------------
 .byte   PATT
  .word Label_01004D07
@  #01 @088   ----------------------------------------
 .byte   W96
@  #01 @089   ----------------------------------------
 .byte   W48
 .byte   EOT
 .byte   As3
 .byte   N24 ,Ds3 ,v088
 .byte   W24
 .byte   N12 ,Fs3
 .byte   W12
 .byte   TIE ,Gs3
 .byte   W12
@  #01 @090   ----------------------------------------
 .byte   W96
@  #01 @091   ----------------------------------------
 .byte   W96
@  #01 @092   ----------------------------------------
 .byte   W48
 .byte   EOT
 .byte   W36
 .byte   N36
 .byte   W12
@  #01 @093   ----------------------------------------
 .byte   PATT
  .word Label_01004D63
@  #01 @094   ----------------------------------------
 .byte   W96
@  #01 @095   ----------------------------------------
 .byte   W96
@  #01 @096   ----------------------------------------
 .byte   EOT
 .byte   Fs3
 .byte   W96
@  #01 @097   ----------------------------------------
 .byte   W96
@  #01 @098   ----------------------------------------
 .byte   W96
@  #01 @099   ----------------------------------------
 .byte   W96
@  #01 @100   ----------------------------------------
 .byte   W96
@  #01 @101   ----------------------------------------
 .byte   W96
@  #01 @102   ----------------------------------------
 .byte   W96
@  #01 @103   ----------------------------------------
 .byte   W96
@  #01 @104   ----------------------------------------
 .byte   W96
@  #01 @105   ----------------------------------------
 .byte   W96
@  #01 @106   ----------------------------------------
 .byte   W96
@  #01 @107   ----------------------------------------
 .byte   W96
@  #01 @108   ----------------------------------------
 .byte   W96
@  #01 @109   ----------------------------------------
 .byte   PATT
  .word Label_01004CF2
@  #01 @110   ----------------------------------------
 .byte   GOTO
  .word Label_01004DF1
@  #01 @111   ----------------------------------------
 .byte   W72
 .byte   N12 ,Fs4 ,v088
 .byte   W12
 .byte   BEND , c_v+0
 .byte   FINE

@**************** Track 2 (Midi-Chn.1) ****************@

song04_002:
@  #02 @000   ----------------------------------------
 .byte   KEYSH , song04_key+0
 .byte   VOICE , 40
 .byte   MODT 0
 .byte   LFOS 44
 .byte   PAN , c_v-64
 .byte   VOL , 11*song04_mvl/mxv
 .byte   BENDR, 12
 .byte   VOL , 11*song04_mvl/mxv
 .byte   BENDR, 12
 .byte   VOL , 11*song04_mvl/mxv
 .byte   BENDR, 12
 .byte   VOL , 11*song04_mvl/mxv
 .byte   BEND , c_v+0
 .byte   W96
@  #02 @001   ----------------------------------------
 .byte   W96
@  #02 @002   ----------------------------------------
 .byte   W96
@  #02 @003   ----------------------------------------
 .byte   W96
@  #02 @004   ----------------------------------------
 .byte   W96
@  #02 @005   ----------------------------------------
 .byte   W96
@  #02 @006   ----------------------------------------
 .byte   W96
@  #02 @007   ----------------------------------------
 .byte   W96
@  #02 @008   ----------------------------------------
 .byte   W96
@  #02 @009   ----------------------------------------
 .byte   W96
@  #02 @010   ----------------------------------------
 .byte   W96
@  #02 @011   ----------------------------------------
 .byte   W96
@  #02 @012   ----------------------------------------
Label_01004EA2:
 .byte   W60
 .byte   N24 ,As3 ,v088
 .byte   W24
 .byte   N12 ,Cs4
 .byte   W12
 .byte   PEND 
@  #02 @013   ----------------------------------------
Label_01004EAB:
 .byte   N84 ,Ds4 ,v088
 .byte   W84
 .byte   N12 ,Fs4
 .byte   W12
 .byte   PEND 
@  #02 @014   ----------------------------------------
Label_01004EB3:
 .byte   N36 ,Fn4 ,v088
 .byte   W36
 .byte   N24 ,Ds4
 .byte   W24
 .byte   Cs4
 .byte   W24
 .byte   N12 ,Ds4
 .byte   W12
 .byte   PEND 
@  #02 @015   ----------------------------------------
 .byte   TIE ,As3
 .byte   W96
@  #02 @016   ----------------------------------------
 .byte   W60
 .byte   EOT
 .byte   N24 ,Ds3
 .byte   W24
 .byte   N12 ,Fs3
 .byte   W12
@  #02 @017   ----------------------------------------
Label_01004ECB:
 .byte   N84 ,Gs3 ,v088
 .byte   W84
 .byte   N12 ,Fs3
 .byte   W12
 .byte   PEND 
@  #02 @018   ----------------------------------------
Label_01004ED3:
 .byte   N36 ,Gs3 ,v088
 .byte   W36
 .byte   N24 ,Fs3
 .byte   W24
 .byte   Gs3
 .byte   W24
 .byte   N12 ,Cs4
 .byte   W12
 .byte   PEND 
@  #02 @019   ----------------------------------------
 .byte   TIE ,As3
 .byte   W96
@  #02 @020   ----------------------------------------
 .byte   W36
 .byte   EOT
 .byte   W24
 .byte   N24
 .byte   W24
 .byte   N12 ,Cs4
 .byte   W12
@  #02 @021   ----------------------------------------
 .byte   PATT
  .word Label_01004EAB
@  #02 @022   ----------------------------------------
 .byte   PATT
  .word Label_01004EB3
@  #02 @023   ----------------------------------------
 .byte   TIE ,As3 ,v088
 .byte   W96
@  #02 @024   ----------------------------------------
 .byte   W60
 .byte   EOT
 .byte   N24 ,Ds3
 .byte   W24
 .byte   N12 ,Fs3
 .byte   W12
@  #02 @025   ----------------------------------------
 .byte   TIE ,Gs3
 .byte   W96
@  #02 @026   ----------------------------------------
 .byte   W96
@  #02 @027   ----------------------------------------
 .byte   W60
 .byte   EOT
 .byte   W36
@  #02 @028   ----------------------------------------
Label_01004F08:
 .byte   N36 ,Gs3 ,v088
 .byte   W36
 .byte   N24 ,Fs3
 .byte   W24
 .byte   Gs3
 .byte   W24
 .byte   N12 ,As3
 .byte   W12
 .byte   PEND 
@  #02 @029   ----------------------------------------
 .byte   TIE ,Fs3
 .byte   W96
@  #02 @030   ----------------------------------------
 .byte   W96
@  #02 @031   ----------------------------------------
 .byte   W12
 .byte   EOT
 .byte   W84
@  #02 @032   ----------------------------------------
 .byte   W96
@  #02 @033   ----------------------------------------
 .byte   W96
@  #02 @034   ----------------------------------------
 .byte   W96
@  #02 @035   ----------------------------------------
 .byte   W96
@  #02 @036   ----------------------------------------
 .byte   W96
@  #02 @037   ----------------------------------------
 .byte   W96
@  #02 @038   ----------------------------------------
 .byte   W96
@  #02 @039   ----------------------------------------
 .byte   W96
@  #02 @040   ----------------------------------------
 .byte   W96
@  #02 @041   ----------------------------------------
 .byte   W96
@  #02 @042   ----------------------------------------
 .byte   W96
@  #02 @043   ----------------------------------------
 .byte   W96
@  #02 @044   ----------------------------------------
 .byte   PATT
  .word Label_01004EA2
@  #02 @045   ----------------------------------------
 .byte   PATT
  .word Label_01004EAB
@  #02 @046   ----------------------------------------
 .byte   PATT
  .word Label_01004EB3
@  #02 @047   ----------------------------------------
 .byte   TIE ,As3 ,v088
 .byte   W96
@  #02 @048   ----------------------------------------
 .byte   W60
 .byte   EOT
 .byte   N24 ,Ds3
 .byte   W24
 .byte   N12 ,Fs3
 .byte   W12
@  #02 @049   ----------------------------------------
 .byte   PATT
  .word Label_01004ECB
@  #02 @050   ----------------------------------------
 .byte   PATT
  .word Label_01004ED3
@  #02 @051   ----------------------------------------
 .byte   TIE ,As3 ,v088
 .byte   W96
@  #02 @052   ----------------------------------------
 .byte   W36
 .byte   EOT
 .byte   W24
 .byte   N24
 .byte   W24
 .byte   N12 ,Cs4
 .byte   W12
@  #02 @053   ----------------------------------------
 .byte   PATT
  .word Label_01004EAB
@  #02 @054   ----------------------------------------
 .byte   PATT
  .word Label_01004EB3
@  #02 @055   ----------------------------------------
 .byte   TIE ,As3 ,v088
 .byte   W96
@  #02 @056   ----------------------------------------
 .byte   W60
 .byte   EOT
 .byte   N24 ,Ds3
 .byte   W24
 .byte   N12 ,Fs3
 .byte   W12
@  #02 @057   ----------------------------------------
 .byte   TIE ,Gs3
 .byte   W96
@  #02 @058   ----------------------------------------
 .byte   W96
@  #02 @059   ----------------------------------------
 .byte   W60
 .byte   EOT
 .byte   W36
@  #02 @060   ----------------------------------------
 .byte   PATT
  .word Label_01004F08
@  #02 @061   ----------------------------------------
 .byte   TIE ,Fs3 ,v088
 .byte   W96
@  #02 @062   ----------------------------------------
 .byte   W96
@  #02 @063   ----------------------------------------
 .byte   W12
 .byte   EOT
 .byte   W84
@  #02 @064   ----------------------------------------
 .byte   W96
@  #02 @065   ----------------------------------------
 .byte   W96
@  #02 @066   ----------------------------------------
 .byte   W96
@  #02 @067   ----------------------------------------
 .byte   W96
@  #02 @068   ----------------------------------------
 .byte   W96
@  #02 @069   ----------------------------------------
 .byte   W96
@  #02 @070   ----------------------------------------
 .byte   W96
@  #02 @071   ----------------------------------------
 .byte   W96
@  #02 @072   ----------------------------------------
 .byte   W96
@  #02 @073   ----------------------------------------
 .byte   W96
@  #02 @074   ----------------------------------------
 .byte   W96
@  #02 @075   ----------------------------------------
 .byte   W96
@  #02 @076   ----------------------------------------
 .byte   PATT
  .word Label_01004EA2
@  #02 @077   ----------------------------------------
Label_01004F94:
@  #02 @078   ----------------------------------------
 .byte   PATT
  .word Label_01004EAB
@  #02 @079   ----------------------------------------
 .byte   PATT
  .word Label_01004EB3
@  #02 @080   ----------------------------------------
 .byte   TIE ,As3 ,v088
 .byte   W96
@  #02 @081   ----------------------------------------
 .byte   W60
 .byte   EOT
 .byte   N24 ,Ds3
 .byte   W24
 .byte   N12 ,Fs3
 .byte   W12
@  #02 @082   ----------------------------------------
 .byte   PATT
  .word Label_01004ECB
@  #02 @083   ----------------------------------------
 .byte   PATT
  .word Label_01004ED3
@  #02 @084   ----------------------------------------
 .byte   TIE ,As3 ,v088
 .byte   W96
@  #02 @085   ----------------------------------------
 .byte   W36
 .byte   EOT
 .byte   W24
 .byte   N24
 .byte   W24
 .byte   N12 ,Cs4
 .byte   W12
@  #02 @086   ----------------------------------------
 .byte   PATT
  .word Label_01004EAB
@  #02 @087   ----------------------------------------
 .byte   PATT
  .word Label_01004EB3
@  #02 @088   ----------------------------------------
 .byte   TIE ,As3 ,v088
 .byte   W96
@  #02 @089   ----------------------------------------
 .byte   W60
 .byte   EOT
 .byte   N24 ,Ds3
 .byte   W24
 .byte   N12 ,Fs3
 .byte   W12
@  #02 @090   ----------------------------------------
 .byte   TIE ,Gs3
 .byte   W96
@  #02 @091   ----------------------------------------
 .byte   W96
@  #02 @092   ----------------------------------------
 .byte   W60
 .byte   EOT
 .byte   W36
@  #02 @093   ----------------------------------------
 .byte   PATT
  .word Label_01004F08
@  #02 @094   ----------------------------------------
 .byte   TIE ,Fs3 ,v088
 .byte   W96
@  #02 @095   ----------------------------------------
 .byte   W96
@  #02 @096   ----------------------------------------
 .byte   W12
 .byte   EOT
 .byte   W84
@  #02 @097   ----------------------------------------
 .byte   W96
@  #02 @098   ----------------------------------------
 .byte   W96
@  #02 @099   ----------------------------------------
 .byte   W96
@  #02 @100   ----------------------------------------
 .byte   W96
@  #02 @101   ----------------------------------------
 .byte   W96
@  #02 @102   ----------------------------------------
 .byte   W96
@  #02 @103   ----------------------------------------
 .byte   W96
@  #02 @104   ----------------------------------------
 .byte   W96
@  #02 @105   ----------------------------------------
 .byte   W96
@  #02 @106   ----------------------------------------
 .byte   W96
@  #02 @107   ----------------------------------------
 .byte   W96
@  #02 @108   ----------------------------------------
 .byte   W96
@  #02 @109   ----------------------------------------
 .byte   PATT
  .word Label_01004EA2
@  #02 @110   ----------------------------------------
 .byte   GOTO
  .word Label_01004F94
@  #02 @111   ----------------------------------------
 .byte   PATT
  .word Label_01004EAB
@  #02 @112   ----------------------------------------
 .byte   BEND , c_v+0
 .byte   FINE

@**************** Track 3 (Midi-Chn.2) ****************@

song04_003:
@  #03 @000   ----------------------------------------
 .byte   KEYSH , song04_key+0
 .byte   VOICE , 40
 .byte   MODT 0
 .byte   LFOS 44
 .byte   PAN , c_v+63
 .byte   VOL , 4*song04_mvl/mxv
 .byte   BENDR, 12
 .byte   PAN , c_v+63
 .byte   VOL , 4*song04_mvl/mxv
 .byte   BENDR, 12
 .byte   PAN , c_v+63
 .byte   VOL , 4*song04_mvl/mxv
 .byte   BENDR, 12
 .byte   PAN , c_v+63
 .byte   VOL , 4*song04_mvl/mxv
 .byte   BEND , c_v+0
 .byte   W96
@  #03 @001   ----------------------------------------
 .byte   W96
@  #03 @002   ----------------------------------------
 .byte   W96
@  #03 @003   ----------------------------------------
 .byte   W96
@  #03 @004   ----------------------------------------
 .byte   W96
@  #03 @005   ----------------------------------------
 .byte   W96
@  #03 @006   ----------------------------------------
 .byte   W96
@  #03 @007   ----------------------------------------
 .byte   W96
@  #03 @008   ----------------------------------------
 .byte   W96
@  #03 @009   ----------------------------------------
 .byte   W96
@  #03 @010   ----------------------------------------
 .byte   W96
@  #03 @011   ----------------------------------------
 .byte   W96
@  #03 @012   ----------------------------------------
 .byte   W72
 .byte   N24 ,As3 ,v088
 .byte   W24
@  #03 @013   ----------------------------------------
Label_01005049:
 .byte   N12 ,Cs4 ,v088
 .byte   W12
 .byte   N84 ,Ds4
 .byte   W84
 .byte   PEND 
@  #03 @014   ----------------------------------------
Label_01005051:
 .byte   N12 ,Fs4 ,v088
 .byte   W12
 .byte   N36 ,Fn4
 .byte   W36
 .byte   N24 ,Ds4
 .byte   W24
 .byte   Cs4
 .byte   W24
 .byte   PEND 
@  #03 @015   ----------------------------------------
Label_0100505E:
 .byte   N12 ,Ds4 ,v088
 .byte   W12
 .byte   TIE ,As3
 .byte   W84
 .byte   PEND 
@  #03 @016   ----------------------------------------
 .byte   W72
 .byte   EOT
 .byte   N24 ,Ds3
 .byte   W24
@  #03 @017   ----------------------------------------
Label_0100506B:
 .byte   N12 ,Fs3 ,v088
 .byte   W12
 .byte   N84 ,Gs3
 .byte   W84
 .byte   PEND 
@  #03 @018   ----------------------------------------
Label_01005073:
 .byte   N12 ,Fs3 ,v088
 .byte   W12
 .byte   N36 ,Gs3
 .byte   W36
 .byte   N24 ,Fs3
 .byte   W24
 .byte   Gs3
 .byte   W24
 .byte   PEND 
@  #03 @019   ----------------------------------------
Label_01005080:
 .byte   N12 ,Cs4 ,v088
 .byte   W12
 .byte   TIE ,As3
 .byte   W84
 .byte   PEND 
@  #03 @020   ----------------------------------------
 .byte   W48
 .byte   EOT
 .byte   W24
 .byte   N24
 .byte   W24
@  #03 @021   ----------------------------------------
 .byte   PATT
  .word Label_01005049
@  #03 @022   ----------------------------------------
 .byte   PATT
  .word Label_01005051
@  #03 @023   ----------------------------------------
 .byte   PATT
  .word Label_0100505E
@  #03 @024   ----------------------------------------
 .byte   W72
 .byte   EOT
 .byte   As3
 .byte   N24 ,Ds3 ,v088
 .byte   W24
@  #03 @025   ----------------------------------------
Label_010050A3:
 .byte   N12 ,Fs3 ,v088
 .byte   W12
 .byte   TIE ,Gs3
 .byte   W84
 .byte   PEND 
@  #03 @026   ----------------------------------------
 .byte   W96
@  #03 @027   ----------------------------------------
 .byte   W72
 .byte   EOT
 .byte   W24
@  #03 @028   ----------------------------------------
Label_010050AF:
 .byte   W12
 .byte   N36 ,Gs3 ,v088
 .byte   W36
 .byte   N24 ,Fs3
 .byte   W24
 .byte   Gs3
 .byte   W24
 .byte   PEND 
@  #03 @029   ----------------------------------------
Label_010050BA:
 .byte   N12 ,As3 ,v088
 .byte   W12
 .byte   TIE ,Fs3
 .byte   W84
 .byte   PEND 
@  #03 @030   ----------------------------------------
 .byte   W96
@  #03 @031   ----------------------------------------
 .byte   W24
 .byte   EOT
 .byte   W72
@  #03 @032   ----------------------------------------
 .byte   W96
@  #03 @033   ----------------------------------------
 .byte   W96
@  #03 @034   ----------------------------------------
 .byte   W96
@  #03 @035   ----------------------------------------
 .byte   W96
@  #03 @036   ----------------------------------------
 .byte   W96
@  #03 @037   ----------------------------------------
 .byte   W96
@  #03 @038   ----------------------------------------
 .byte   W96
@  #03 @039   ----------------------------------------
 .byte   W96
@  #03 @040   ----------------------------------------
 .byte   W96
@  #03 @041   ----------------------------------------
 .byte   W96
@  #03 @042   ----------------------------------------
 .byte   W96
@  #03 @043   ----------------------------------------
 .byte   W96
@  #03 @044   ----------------------------------------
 .byte   W72
 .byte   N24 ,As3
 .byte   W24
@  #03 @045   ----------------------------------------
 .byte   PATT
  .word Label_01005049
@  #03 @046   ----------------------------------------
 .byte   PATT
  .word Label_01005051
@  #03 @047   ----------------------------------------
 .byte   PATT
  .word Label_0100505E
@  #03 @048   ----------------------------------------
 .byte   W72
 .byte   EOT
 .byte   As3
 .byte   N24 ,Ds3 ,v088
 .byte   W24
@  #03 @049   ----------------------------------------
 .byte   PATT
  .word Label_0100506B
@  #03 @050   ----------------------------------------
 .byte   PATT
  .word Label_01005073
@  #03 @051   ----------------------------------------
 .byte   PATT
  .word Label_01005080
@  #03 @052   ----------------------------------------
 .byte   W48
 .byte   EOT
 .byte   As3
 .byte   W24
 .byte   N24 ,As3 ,v088
 .byte   W24
@  #03 @053   ----------------------------------------
 .byte   PATT
  .word Label_01005049
@  #03 @054   ----------------------------------------
 .byte   PATT
  .word Label_01005051
@  #03 @055   ----------------------------------------
 .byte   PATT
  .word Label_0100505E
@  #03 @056   ----------------------------------------
 .byte   W72
 .byte   EOT
 .byte   As3
 .byte   N24 ,Ds3 ,v088
 .byte   W24
@  #03 @057   ----------------------------------------
 .byte   PATT
  .word Label_010050A3
@  #03 @058   ----------------------------------------
 .byte   W96
@  #03 @059   ----------------------------------------
 .byte   W72
 .byte   EOT
 .byte   Gs3
 .byte   W24
@  #03 @060   ----------------------------------------
 .byte   PATT
  .word Label_010050AF
@  #03 @061   ----------------------------------------
 .byte   PATT
  .word Label_010050BA
@  #03 @062   ----------------------------------------
 .byte   W96
@  #03 @063   ----------------------------------------
 .byte   W24
 .byte   EOT
 .byte   Fs3
 .byte   W72
@  #03 @064   ----------------------------------------
 .byte   W96
@  #03 @065   ----------------------------------------
 .byte   W96
@  #03 @066   ----------------------------------------
 .byte   W96
@  #03 @067   ----------------------------------------
 .byte   W96
@  #03 @068   ----------------------------------------
 .byte   W96
@  #03 @069   ----------------------------------------
 .byte   W96
@  #03 @070   ----------------------------------------
 .byte   W96
@  #03 @071   ----------------------------------------
 .byte   W96
@  #03 @072   ----------------------------------------
 .byte   W96
@  #03 @073   ----------------------------------------
 .byte   W96
@  #03 @074   ----------------------------------------
 .byte   W96
@  #03 @075   ----------------------------------------
 .byte   W96
@  #03 @076   ----------------------------------------
 .byte   W72
 .byte   N24 ,As3 ,v088
 .byte   W24
@  #03 @077   ----------------------------------------
Label_01005143:
@  #03 @078   ----------------------------------------
 .byte   PATT
  .word Label_01005049
@  #03 @079   ----------------------------------------
 .byte   PATT
  .word Label_01005051
@  #03 @080   ----------------------------------------
 .byte   PATT
  .word Label_0100505E
@  #03 @081   ----------------------------------------
 .byte   W72
 .byte   EOT
 .byte   As3
 .byte   N24 ,Ds3 ,v088
 .byte   W24
@  #03 @082   ----------------------------------------
 .byte   PATT
  .word Label_0100506B
@  #03 @083   ----------------------------------------
 .byte   PATT
  .word Label_01005073
@  #03 @084   ----------------------------------------
 .byte   PATT
  .word Label_01005080
@  #03 @085   ----------------------------------------
 .byte   W48
 .byte   EOT
 .byte   As3
 .byte   W24
 .byte   N24 ,As3 ,v088
 .byte   W24
@  #03 @086   ----------------------------------------
 .byte   PATT
  .word Label_01005049
@  #03 @087   ----------------------------------------
 .byte   PATT
  .word Label_01005051
@  #03 @088   ----------------------------------------
 .byte   PATT
  .word Label_0100505E
@  #03 @089   ----------------------------------------
 .byte   W72
 .byte   EOT
 .byte   As3
 .byte   N24 ,Ds3 ,v088
 .byte   W24
@  #03 @090   ----------------------------------------
 .byte   PATT
  .word Label_010050A3
@  #03 @091   ----------------------------------------
 .byte   W96
@  #03 @092   ----------------------------------------
 .byte   W72
 .byte   EOT
 .byte   Gs3
 .byte   W24
@  #03 @093   ----------------------------------------
 .byte   PATT
  .word Label_010050AF
@  #03 @094   ----------------------------------------
 .byte   PATT
  .word Label_010050BA
@  #03 @095   ----------------------------------------
 .byte   W96
@  #03 @096   ----------------------------------------
 .byte   W24
 .byte   EOT
 .byte   Fs3
 .byte   W72
@  #03 @097   ----------------------------------------
 .byte   W96
@  #03 @098   ----------------------------------------
 .byte   W96
@  #03 @099   ----------------------------------------
 .byte   W96
@  #03 @100   ----------------------------------------
 .byte   W96
@  #03 @101   ----------------------------------------
 .byte   W96
@  #03 @102   ----------------------------------------
 .byte   W96
@  #03 @103   ----------------------------------------
 .byte   W96
@  #03 @104   ----------------------------------------
 .byte   W96
@  #03 @105   ----------------------------------------
 .byte   W96
@  #03 @106   ----------------------------------------
 .byte   W96
@  #03 @107   ----------------------------------------
 .byte   W96
@  #03 @108   ----------------------------------------
 .byte   W96
@  #03 @109   ----------------------------------------
 .byte   W72
 .byte   N24 ,As3 ,v088
 .byte   W24
@  #03 @110   ----------------------------------------
 .byte   GOTO
  .word Label_01005143
@  #03 @111   ----------------------------------------
 .byte   PATT
  .word Label_01005049
@  #03 @112   ----------------------------------------
 .byte   BEND , c_v+0
 .byte   FINE

@**************** Track 4 (Midi-Chn.3) ****************@

song04_004:
@  #04 @000   ----------------------------------------
 .byte   KEYSH , song04_key+0
 .byte   VOICE , 73
 .byte   MODT 0
 .byte   LFOS 44
 .byte   PAN , c_v+0
 .byte   VOL , 17*song04_mvl/mxv
 .byte   BENDR, 12
 .byte   PAN , c_v+0
 .byte   VOL , 17*song04_mvl/mxv
 .byte   BENDR, 12
 .byte   PAN , c_v+0
 .byte   VOL , 17*song04_mvl/mxv
 .byte   BENDR, 12
 .byte   PAN , c_v+0
 .byte   VOL , 17*song04_mvl/mxv
 .byte   BEND , c_v+0
 .byte   W96
@  #04 @001   ----------------------------------------
 .byte   W96
@  #04 @002   ----------------------------------------
 .byte   W96
@  #04 @003   ----------------------------------------
 .byte   W96
@  #04 @004   ----------------------------------------
 .byte   W96
@  #04 @005   ----------------------------------------
 .byte   W96
@  #04 @006   ----------------------------------------
 .byte   W96
@  #04 @007   ----------------------------------------
 .byte   W96
@  #04 @008   ----------------------------------------
 .byte   W96
@  #04 @009   ----------------------------------------
 .byte   W96
@  #04 @010   ----------------------------------------
 .byte   W96
@  #04 @011   ----------------------------------------
 .byte   W96
@  #04 @012   ----------------------------------------
Label_010051FC:
 .byte   W48
 .byte   N24 ,As4 ,v088
 .byte   W24
 .byte   N12 ,Cs5
 .byte   W12
 .byte   N84 ,Ds5
 .byte   W12
 .byte   PEND 
@  #04 @013   ----------------------------------------
Label_01005208:
 .byte   W72
 .byte   N12 ,Fs5 ,v088
 .byte   W12
 .byte   N36 ,Fn5
 .byte   W12
 .byte   PEND 
@  #04 @014   ----------------------------------------
Label_01005211:
 .byte   W24
 .byte   N24 ,Ds5 ,v088
 .byte   W24
 .byte   Cs5
 .byte   W24
 .byte   N12 ,Ds5
 .byte   W12
 .byte   TIE ,As4
 .byte   W12
 .byte   PEND 
@  #04 @015   ----------------------------------------
 .byte   W96
@  #04 @016   ----------------------------------------
 .byte   W48
 .byte   EOT
 .byte   N24 ,Ds4
 .byte   W24
 .byte   N12 ,Fs4
 .byte   W12
 .byte   N84 ,Gs4
 .byte   W12
@  #04 @017   ----------------------------------------
Label_0100522B:
 .byte   W72
 .byte   N12 ,Fs4 ,v088
 .byte   W12
 .byte   N36 ,Gs4
 .byte   W12
 .byte   PEND 
@  #04 @018   ----------------------------------------
Label_01005234:
 .byte   W24
 .byte   N24 ,Fs4 ,v088
 .byte   W24
 .byte   Gs4
 .byte   W24
 .byte   N12 ,Cs5
 .byte   W12
 .byte   TIE ,As4
 .byte   W12
 .byte   PEND 
@  #04 @019   ----------------------------------------
 .byte   W96
@  #04 @020   ----------------------------------------
 .byte   W24
 .byte   EOT
 .byte   W24
 .byte   N24
 .byte   W24
 .byte   N12 ,Cs5
 .byte   W12
 .byte   N84 ,Ds5
 .byte   W12
@  #04 @021   ----------------------------------------
 .byte   PATT
  .word Label_01005208
@  #04 @022   ----------------------------------------
 .byte   PATT
  .word Label_01005211
@  #04 @023   ----------------------------------------
 .byte   W96
@  #04 @024   ----------------------------------------
 .byte   W48
 .byte   EOT
 .byte   As4
 .byte   N24 ,Ds4 ,v088
 .byte   W24
 .byte   N12 ,Fs4
 .byte   W12
 .byte   TIE ,Gs4
 .byte   W12
@  #04 @025   ----------------------------------------
 .byte   W96
@  #04 @026   ----------------------------------------
 .byte   W96
@  #04 @027   ----------------------------------------
 .byte   EOT
 .byte   W96
@  #04 @028   ----------------------------------------
 .byte   W96
@  #04 @029   ----------------------------------------
 .byte   W96
@  #04 @030   ----------------------------------------
 .byte   W96
@  #04 @031   ----------------------------------------
 .byte   W96
@  #04 @032   ----------------------------------------
 .byte   W96
@  #04 @033   ----------------------------------------
 .byte   W96
@  #04 @034   ----------------------------------------
 .byte   W96
@  #04 @035   ----------------------------------------
 .byte   W96
@  #04 @036   ----------------------------------------
 .byte   W96
@  #04 @037   ----------------------------------------
 .byte   W96
@  #04 @038   ----------------------------------------
 .byte   W96
@  #04 @039   ----------------------------------------
 .byte   W96
@  #04 @040   ----------------------------------------
 .byte   W96
@  #04 @041   ----------------------------------------
 .byte   W96
@  #04 @042   ----------------------------------------
 .byte   W96
@  #04 @043   ----------------------------------------
 .byte   W96
@  #04 @044   ----------------------------------------
 .byte   PATT
  .word Label_010051FC
@  #04 @045   ----------------------------------------
 .byte   PATT
  .word Label_01005208
@  #04 @046   ----------------------------------------
 .byte   PATT
  .word Label_01005211
@  #04 @047   ----------------------------------------
 .byte   W96
@  #04 @048   ----------------------------------------
 .byte   W48
 .byte   EOT
 .byte   As4
 .byte   N24 ,Ds4 ,v088
 .byte   W24
 .byte   N12 ,Fs4
 .byte   W12
 .byte   N84 ,Gs4
 .byte   W12
@  #04 @049   ----------------------------------------
 .byte   PATT
  .word Label_0100522B
@  #04 @050   ----------------------------------------
 .byte   PATT
  .word Label_01005234
@  #04 @051   ----------------------------------------
 .byte   W96
@  #04 @052   ----------------------------------------
 .byte   W24
 .byte   EOT
 .byte   As4
 .byte   W24
 .byte   N24 ,As4 ,v088
 .byte   W24
 .byte   N12 ,Cs5
 .byte   W12
 .byte   N84 ,Ds5
 .byte   W12
@  #04 @053   ----------------------------------------
 .byte   PATT
  .word Label_01005208
@  #04 @054   ----------------------------------------
 .byte   PATT
  .word Label_01005211
@  #04 @055   ----------------------------------------
 .byte   W96
@  #04 @056   ----------------------------------------
 .byte   W48
 .byte   EOT
 .byte   As4
 .byte   N24 ,Ds4 ,v088
 .byte   W24
 .byte   N12 ,Fs4
 .byte   W12
 .byte   TIE ,Gs4
 .byte   W12
@  #04 @057   ----------------------------------------
 .byte   W96
@  #04 @058   ----------------------------------------
 .byte   W96
@  #04 @059   ----------------------------------------
 .byte   EOT
 .byte   W96
@  #04 @060   ----------------------------------------
 .byte   W96
@  #04 @061   ----------------------------------------
 .byte   W96
@  #04 @062   ----------------------------------------
 .byte   W96
@  #04 @063   ----------------------------------------
 .byte   W96
@  #04 @064   ----------------------------------------
 .byte   W96
@  #04 @065   ----------------------------------------
 .byte   W96
@  #04 @066   ----------------------------------------
 .byte   W96
@  #04 @067   ----------------------------------------
 .byte   W96
@  #04 @068   ----------------------------------------
 .byte   W96
@  #04 @069   ----------------------------------------
 .byte   W96
@  #04 @070   ----------------------------------------
 .byte   W96
@  #04 @071   ----------------------------------------
 .byte   W96
@  #04 @072   ----------------------------------------
 .byte   W96
@  #04 @073   ----------------------------------------
 .byte   W96
@  #04 @074   ----------------------------------------
 .byte   W96
@  #04 @075   ----------------------------------------
 .byte   W96
@  #04 @076   ----------------------------------------
 .byte   PATT
  .word Label_010051FC
@  #04 @077   ----------------------------------------
Label_010052E1:
@  #04 @078   ----------------------------------------
 .byte   PATT
  .word Label_01005208
@  #04 @079   ----------------------------------------
 .byte   PATT
  .word Label_01005211
@  #04 @080   ----------------------------------------
 .byte   W96
@  #04 @081   ----------------------------------------
 .byte   W48
 .byte   EOT
 .byte   As4
 .byte   N24 ,Ds4 ,v088
 .byte   W24
 .byte   N12 ,Fs4
 .byte   W12
 .byte   N84 ,Gs4
 .byte   W12
@  #04 @082   ----------------------------------------
 .byte   PATT
  .word Label_0100522B
@  #04 @083   ----------------------------------------
 .byte   PATT
  .word Label_01005234
@  #04 @084   ----------------------------------------
 .byte   W96
@  #04 @085   ----------------------------------------
 .byte   W24
 .byte   EOT
 .byte   As4
 .byte   W24
 .byte   N24 ,As4 ,v088
 .byte   W24
 .byte   N12 ,Cs5
 .byte   W12
 .byte   N84 ,Ds5
 .byte   W12
@  #04 @086   ----------------------------------------
 .byte   PATT
  .word Label_01005208
@  #04 @087   ----------------------------------------
 .byte   PATT
  .word Label_01005211
@  #04 @088   ----------------------------------------
 .byte   W96
@  #04 @089   ----------------------------------------
 .byte   W48
 .byte   EOT
 .byte   As4
 .byte   N24 ,Ds4 ,v088
 .byte   W24
 .byte   N12 ,Fs4
 .byte   W12
 .byte   TIE ,Gs4
 .byte   W12
@  #04 @090   ----------------------------------------
 .byte   W96
@  #04 @091   ----------------------------------------
 .byte   W96
@  #04 @092   ----------------------------------------
 .byte   EOT
 .byte   W96
@  #04 @093   ----------------------------------------
 .byte   W96
@  #04 @094   ----------------------------------------
 .byte   W96
@  #04 @095   ----------------------------------------
 .byte   W96
@  #04 @096   ----------------------------------------
 .byte   W96
@  #04 @097   ----------------------------------------
 .byte   W96
@  #04 @098   ----------------------------------------
 .byte   W96
@  #04 @099   ----------------------------------------
 .byte   W96
@  #04 @100   ----------------------------------------
 .byte   W96
@  #04 @101   ----------------------------------------
 .byte   W96
@  #04 @102   ----------------------------------------
 .byte   W96
@  #04 @103   ----------------------------------------
 .byte   W96
@  #04 @104   ----------------------------------------
 .byte   W96
@  #04 @105   ----------------------------------------
 .byte   W96
@  #04 @106   ----------------------------------------
 .byte   W96
@  #04 @107   ----------------------------------------
 .byte   W96
@  #04 @108   ----------------------------------------
 .byte   W96
@  #04 @109   ----------------------------------------
 .byte   PATT
  .word Label_010051FC
@  #04 @110   ----------------------------------------
 .byte   GOTO
  .word Label_010052E1
@  #04 @111   ----------------------------------------
 .byte   W72
 .byte   N12 ,Fs5 ,v088
 .byte   W12
 .byte   BEND , c_v+0
 .byte   FINE

@**************** Track 5 (Midi-Chn.4) ****************@

song04_005:
@  #05 @000   ----------------------------------------
 .byte   KEYSH , song04_key+0
 .byte   VOICE , 10
 .byte   MODT 0
 .byte   LFOS 44
 .byte   PAN , c_v+0
 .byte   VOL , 36*song04_mvl/mxv
 .byte   BENDR, 12
 .byte   PAN , c_v+0
 .byte   VOL , 36*song04_mvl/mxv
 .byte   BENDR, 12
 .byte   PAN , c_v+0
 .byte   VOL , 36*song04_mvl/mxv
 .byte   BENDR, 12
 .byte   PAN , c_v+0
 .byte   VOL , 36*song04_mvl/mxv
 .byte   BEND , c_v+0
 .byte   W96
@  #05 @001   ----------------------------------------
 .byte   W96
@  #05 @002   ----------------------------------------
 .byte   W96
@  #05 @003   ----------------------------------------
 .byte   W96
@  #05 @004   ----------------------------------------
 .byte   W96
@  #05 @005   ----------------------------------------
 .byte   W96
@  #05 @006   ----------------------------------------
 .byte   W96
@  #05 @007   ----------------------------------------
 .byte   W96
@  #05 @008   ----------------------------------------
 .byte   W96
@  #05 @009   ----------------------------------------
 .byte   W96
@  #05 @010   ----------------------------------------
 .byte   W96
@  #05 @011   ----------------------------------------
 .byte   W96
@  #05 @012   ----------------------------------------
 .byte   W96
@  #05 @013   ----------------------------------------
Label_0100538D:
 .byte   W12
 .byte   N06 ,Fn5 ,v048
 .byte   W12
 .byte   Ds5
 .byte   W12
 .byte   As4
 .byte   W12
 .byte   Fn5
 .byte   W12
 .byte   Ds5
 .byte   W12
 .byte   As4
 .byte   W12
 .byte   Fn5
 .byte   W12
 .byte   PEND 
@  #05 @014   ----------------------------------------
Label_0100539F:
 .byte   W12
 .byte   N06 ,Ds5 ,v048
 .byte   W12
 .byte   As4
 .byte   W12
 .byte   Fn5
 .byte   W24
 .byte   Cs5
 .byte   W12
 .byte   As5
 .byte   W24
 .byte   PEND 
@  #05 @015   ----------------------------------------
 .byte   PATT
  .word Label_0100538D
@  #05 @016   ----------------------------------------
Label_010053B2:
 .byte   W12
 .byte   N06 ,Ds5 ,v048
 .byte   W12
 .byte   As5
 .byte   W12
 .byte   Fn5
 .byte   W24
 .byte   Ds5
 .byte   W12
 .byte   Cs5
 .byte   W24
 .byte   PEND 
@  #05 @017   ----------------------------------------
 .byte   PATT
  .word Label_0100538D
@  #05 @018   ----------------------------------------
Label_010053C5:
 .byte   W12
 .byte   N06 ,Ds5 ,v048
 .byte   W12
 .byte   As4
 .byte   W12
 .byte   Fn5
 .byte   W24
 .byte   Ds5
 .byte   W12
 .byte   As5
 .byte   W24
 .byte   PEND 
@  #05 @019   ----------------------------------------
Label_010053D3:
 .byte   W12
 .byte   N06 ,Fn5 ,v048
 .byte   W12
 .byte   Ds5
 .byte   W12
 .byte   As4
 .byte   W12
 .byte   Fn5
 .byte   W12
 .byte   Ds5
 .byte   W12
 .byte   As4
 .byte   W12
 .byte   Fs5
 .byte   N06 ,As5
 .byte   W12
 .byte   PEND 
@  #05 @020   ----------------------------------------
Label_010053E7:
 .byte   W12
 .byte   N06 ,Fn5 ,v048
 .byte   N06 ,Gs5
 .byte   W24
 .byte   Ds5
 .byte   N06 ,Fs5
 .byte   W24
 .byte   Cs5
 .byte   N06 ,Fn5
 .byte   W36
 .byte   PEND 
@  #05 @021   ----------------------------------------
 .byte   PATT
  .word Label_0100538D
@  #05 @022   ----------------------------------------
 .byte   PATT
  .word Label_0100539F
@  #05 @023   ----------------------------------------
 .byte   PATT
  .word Label_0100538D
@  #05 @024   ----------------------------------------
 .byte   PATT
  .word Label_010053B2
@  #05 @025   ----------------------------------------
 .byte   PATT
  .word Label_0100538D
@  #05 @026   ----------------------------------------
 .byte   PATT
  .word Label_010053C5
@  #05 @027   ----------------------------------------
 .byte   N06 ,Fn5 ,v048
 .byte   W96
@  #05 @028   ----------------------------------------
 .byte   W96
@  #05 @029   ----------------------------------------
Label_0100541A:
 .byte   W12
 .byte   N06 ,Fn4 ,v088
 .byte   W12
 .byte   Ds4
 .byte   W12
 .byte   As3
 .byte   W12
 .byte   Fn4
 .byte   W12
 .byte   Ds4
 .byte   W12
 .byte   As3
 .byte   W12
 .byte   Fn4
 .byte   W12
 .byte   PEND 
@  #05 @030   ----------------------------------------
Label_0100542C:
 .byte   W12
 .byte   N06 ,Ds4 ,v088
 .byte   W12
 .byte   As3
 .byte   W12
 .byte   Fn4
 .byte   W24
 .byte   Ds4
 .byte   W12
 .byte   As4
 .byte   W24
 .byte   PEND 
@  #05 @031   ----------------------------------------
 .byte   PATT
  .word Label_0100541A
@  #05 @032   ----------------------------------------
Label_0100543F:
 .byte   W12
 .byte   N06 ,Ds4 ,v088
 .byte   W12
 .byte   As4
 .byte   W12
 .byte   Fn4
 .byte   W24
 .byte   Ds4
 .byte   W12
 .byte   Cs4
 .byte   W24
 .byte   PEND 
@  #05 @033   ----------------------------------------
 .byte   PATT
  .word Label_0100541A
@  #05 @034   ----------------------------------------
 .byte   PATT
  .word Label_0100542C
@  #05 @035   ----------------------------------------
Label_01005457:
 .byte   W12
 .byte   N06 ,Fn4 ,v088
 .byte   W12
 .byte   Ds4
 .byte   W12
 .byte   As3
 .byte   W12
 .byte   Fn4
 .byte   W12
 .byte   Ds4
 .byte   W12
 .byte   As3
 .byte   W12
 .byte   Fs4
 .byte   N06 ,As4
 .byte   W12
 .byte   PEND 
@  #05 @036   ----------------------------------------
Label_0100546B:
 .byte   W12
 .byte   N06 ,Fn4 ,v088
 .byte   N06 ,Gs4
 .byte   W24
 .byte   Ds4
 .byte   N06 ,Fs4
 .byte   W24
 .byte   Cs4
 .byte   N06 ,Fn4
 .byte   W36
 .byte   PEND 
@  #05 @037   ----------------------------------------
 .byte   PATT
  .word Label_0100541A
@  #05 @038   ----------------------------------------
 .byte   PATT
  .word Label_0100542C
@  #05 @039   ----------------------------------------
 .byte   PATT
  .word Label_0100541A
@  #05 @040   ----------------------------------------
 .byte   PATT
  .word Label_0100543F
@  #05 @041   ----------------------------------------
 .byte   PATT
  .word Label_0100541A
@  #05 @042   ----------------------------------------
 .byte   PATT
  .word Label_0100542C
@  #05 @043   ----------------------------------------
Label_01005499:
 .byte   W12
 .byte   N06 ,Fn4 ,v088
 .byte   W12
 .byte   Ds4
 .byte   W12
 .byte   As3
 .byte   W24
 .byte   Cs4
 .byte   W24
 .byte   Ds4
 .byte   W12
 .byte   PEND 
@  #05 @044   ----------------------------------------
 .byte   W96
@  #05 @045   ----------------------------------------
 .byte   PATT
  .word Label_0100538D
@  #05 @046   ----------------------------------------
 .byte   PATT
  .word Label_0100539F
@  #05 @047   ----------------------------------------
 .byte   PATT
  .word Label_0100538D
@  #05 @048   ----------------------------------------
 .byte   PATT
  .word Label_010053B2
@  #05 @049   ----------------------------------------
 .byte   PATT
  .word Label_0100538D
@  #05 @050   ----------------------------------------
 .byte   PATT
  .word Label_010053C5
@  #05 @051   ----------------------------------------
 .byte   PATT
  .word Label_010053D3
@  #05 @052   ----------------------------------------
 .byte   PATT
  .word Label_010053E7
@  #05 @053   ----------------------------------------
 .byte   PATT
  .word Label_0100538D
@  #05 @054   ----------------------------------------
 .byte   PATT
  .word Label_0100539F
@  #05 @055   ----------------------------------------
 .byte   PATT
  .word Label_0100538D
@  #05 @056   ----------------------------------------
 .byte   PATT
  .word Label_010053B2
@  #05 @057   ----------------------------------------
Label_010054E4:
 .byte   W12
 .byte   N06 ,Fn5 ,v048
 .byte   W12
 .byte   Ds5
 .byte   W12
 .byte   As4
 .byte   W12
 .byte   Fn5
 .byte   W24
 .byte   Bn4
 .byte   W12
 .byte   Fn5
 .byte   W12
 .byte   PEND 
@  #05 @058   ----------------------------------------
Label_010054F4:
 .byte   W12
 .byte   N06 ,Ds5 ,v048
 .byte   W12
 .byte   Cn5
 .byte   W12
 .byte   Fn5
 .byte   W24
 .byte   Ds5
 .byte   W12
 .byte   Cn5
 .byte   W24
 .byte   PEND 
@  #05 @059   ----------------------------------------
 .byte   Fn5
 .byte   W96
@  #05 @060   ----------------------------------------
 .byte   W96
@  #05 @061   ----------------------------------------
 .byte   PATT
  .word Label_0100541A
@  #05 @062   ----------------------------------------
 .byte   PATT
  .word Label_0100542C
@  #05 @063   ----------------------------------------
 .byte   PATT
  .word Label_0100541A
@  #05 @064   ----------------------------------------
 .byte   PATT
  .word Label_0100543F
@  #05 @065   ----------------------------------------
 .byte   PATT
  .word Label_0100541A
@  #05 @066   ----------------------------------------
 .byte   PATT
  .word Label_0100542C
@  #05 @067   ----------------------------------------
 .byte   PATT
  .word Label_01005457
@  #05 @068   ----------------------------------------
 .byte   PATT
  .word Label_0100546B
@  #05 @069   ----------------------------------------
 .byte   PATT
  .word Label_0100541A
@  #05 @070   ----------------------------------------
 .byte   PATT
  .word Label_0100542C
@  #05 @071   ----------------------------------------
 .byte   PATT
  .word Label_0100541A
@  #05 @072   ----------------------------------------
 .byte   PATT
  .word Label_0100543F
@  #05 @073   ----------------------------------------
 .byte   PATT
  .word Label_0100541A
@  #05 @074   ----------------------------------------
 .byte   PATT
  .word Label_0100542C
@  #05 @075   ----------------------------------------
 .byte   PATT
  .word Label_01005499
@  #05 @076   ----------------------------------------
 .byte   W96
@  #05 @077   ----------------------------------------
Label_01005551:
@  #05 @078   ----------------------------------------
 .byte   PATT
  .word Label_0100538D
@  #05 @079   ----------------------------------------
 .byte   PATT
  .word Label_0100539F
@  #05 @080   ----------------------------------------
 .byte   PATT
  .word Label_0100538D
@  #05 @081   ----------------------------------------
 .byte   PATT
  .word Label_010053B2
@  #05 @082   ----------------------------------------
 .byte   PATT
  .word Label_0100538D
@  #05 @083   ----------------------------------------
 .byte   PATT
  .word Label_010053C5
@  #05 @084   ----------------------------------------
 .byte   PATT
  .word Label_010053D3
@  #05 @085   ----------------------------------------
 .byte   PATT
  .word Label_010053E7
@  #05 @086   ----------------------------------------
 .byte   PATT
  .word Label_0100538D
@  #05 @087   ----------------------------------------
 .byte   PATT
  .word Label_0100539F
@  #05 @088   ----------------------------------------
 .byte   PATT
  .word Label_0100538D
@  #05 @089   ----------------------------------------
 .byte   PATT
  .word Label_010053B2
@  #05 @090   ----------------------------------------
 .byte   PATT
  .word Label_010054E4
@  #05 @091   ----------------------------------------
 .byte   PATT
  .word Label_010054F4
@  #05 @092   ----------------------------------------
 .byte   N06 ,Fn5 ,v048
 .byte   W96
@  #05 @093   ----------------------------------------
 .byte   W96
@  #05 @094   ----------------------------------------
 .byte   PATT
  .word Label_0100541A
@  #05 @095   ----------------------------------------
 .byte   PATT
  .word Label_0100542C
@  #05 @096   ----------------------------------------
 .byte   PATT
  .word Label_0100541A
@  #05 @097   ----------------------------------------
 .byte   PATT
  .word Label_0100543F
@  #05 @098   ----------------------------------------
 .byte   PATT
  .word Label_0100541A
@  #05 @099   ----------------------------------------
 .byte   PATT
  .word Label_0100542C
@  #05 @100   ----------------------------------------
 .byte   PATT
  .word Label_01005457
@  #05 @101   ----------------------------------------
 .byte   PATT
  .word Label_0100546B
@  #05 @102   ----------------------------------------
 .byte   PATT
  .word Label_0100541A
@  #05 @103   ----------------------------------------
 .byte   PATT
  .word Label_0100542C
@  #05 @104   ----------------------------------------
 .byte   PATT
  .word Label_0100541A
@  #05 @105   ----------------------------------------
 .byte   PATT
  .word Label_0100543F
@  #05 @106   ----------------------------------------
 .byte   PATT
  .word Label_0100541A
@  #05 @107   ----------------------------------------
 .byte   PATT
  .word Label_0100542C
@  #05 @108   ----------------------------------------
 .byte   PATT
  .word Label_01005499
@  #05 @109   ----------------------------------------
 .byte   W96
@  #05 @110   ----------------------------------------
 .byte   GOTO
  .word Label_01005551
@  #05 @111   ----------------------------------------
 .byte   W12
 .byte   N06 ,Fn5 ,v048
 .byte   W12
 .byte   Ds5
 .byte   W12
 .byte   As4
 .byte   W12
 .byte   Fn5
 .byte   W12
 .byte   Ds5
 .byte   W12
 .byte   As4
 .byte   W12
 .byte   Fn5
 .byte   W06
 .byte   BEND , c_v+0
 .byte   FINE

@**************** Track 6 (Midi-Chn.5) ****************@

song04_006:
@  #06 @000   ----------------------------------------
 .byte   KEYSH , song04_key+0
 .byte   VOICE , 46
 .byte   MODT 0
 .byte   LFOS 44
 .byte   PAN , c_v+0
 .byte   VOL , 21*song04_mvl/mxv
 .byte   BENDR, 12
 .byte   PAN , c_v+0
 .byte   VOL , 21*song04_mvl/mxv
 .byte   BENDR, 12
 .byte   PAN , c_v+0
 .byte   VOL , 21*song04_mvl/mxv
 .byte   BENDR, 12
 .byte   PAN , c_v+0
 .byte   VOL , 21*song04_mvl/mxv
 .byte   BEND , c_v+0
 .byte   W96
@  #06 @001   ----------------------------------------
 .byte   W96
@  #06 @002   ----------------------------------------
 .byte   W96
@  #06 @003   ----------------------------------------
 .byte   W96
@  #06 @004   ----------------------------------------
 .byte   W96
@  #06 @005   ----------------------------------------
 .byte   W96
@  #06 @006   ----------------------------------------
 .byte   W96
@  #06 @007   ----------------------------------------
 .byte   W96
@  #06 @008   ----------------------------------------
 .byte   W96
@  #06 @009   ----------------------------------------
 .byte   W42
 .byte   N06 ,Cs4 ,v088
 .byte   W15
 .byte   Ds4
 .byte   W15
 .byte   Gs4
 .byte   W15
 .byte   As4
 .byte   W09
@  #06 @010   ----------------------------------------
 .byte   W06
 .byte   Cs5
 .byte   W15
 .byte   Ds5
 .byte   W21
 .byte   Fs5
 .byte   W54
@  #06 @011   ----------------------------------------
 .byte   Fn5 ,v060
 .byte   W42
 .byte   Fn5 ,v036
 .byte   W18
 .byte   Fs5 ,v028
 .byte   W36
@  #06 @012   ----------------------------------------
 .byte   W96
@  #06 @013   ----------------------------------------
Label_01005659:
 .byte   W24
 .byte   N06 ,As2 ,v088
 .byte   W12
 .byte   Ds3
 .byte   W24
 .byte   As2
 .byte   W24
 .byte   Fn3
 .byte   W12
 .byte   PEND 
@  #06 @014   ----------------------------------------
Label_01005665:
 .byte   W12
 .byte   N06 ,Cs3 ,v088
 .byte   W24
 .byte   As3
 .byte   W60
 .byte   PEND 
@  #06 @015   ----------------------------------------
Label_0100566D:
 .byte   W24
 .byte   N06 ,As2 ,v088
 .byte   W12
 .byte   Cs3
 .byte   W24
 .byte   As2
 .byte   W24
 .byte   Fn3
 .byte   W12
 .byte   PEND 
@  #06 @016   ----------------------------------------
 .byte   PATT
  .word Label_01005665
@  #06 @017   ----------------------------------------
Label_0100567E:
 .byte   W24
 .byte   N06 ,Bn2 ,v088
 .byte   W12
 .byte   Ds3
 .byte   W60
 .byte   PEND 
@  #06 @018   ----------------------------------------
Label_01005686:
 .byte   W24
 .byte   N06 ,Cs3 ,v088
 .byte   W12
 .byte   Fn3
 .byte   W60
 .byte   PEND 
@  #06 @019   ----------------------------------------
Label_0100568E:
 .byte   W24
 .byte   N06 ,As2 ,v088
 .byte   W12
 .byte   Cs3
 .byte   N06 ,Fs3
 .byte   W24
 .byte   Cs3
 .byte   W24
 .byte   Fs3
 .byte   N06 ,As3
 .byte   W12
 .byte   PEND 
@  #06 @020   ----------------------------------------
Label_0100569E:
 .byte   W12
 .byte   N06 ,Fn3 ,v088
 .byte   N06 ,Gs3
 .byte   W24
 .byte   Ds3
 .byte   N06 ,Fs3
 .byte   W24
 .byte   Cs3
 .byte   N06 ,Fn3
 .byte   W36
 .byte   PEND 
@  #06 @021   ----------------------------------------
 .byte   PATT
  .word Label_01005659
@  #06 @022   ----------------------------------------
Label_010056B3:
 .byte   W12
 .byte   N06 ,Ds3 ,v088
 .byte   W24
 .byte   As3
 .byte   W60
 .byte   PEND 
@  #06 @023   ----------------------------------------
 .byte   PATT
  .word Label_0100566D
@  #06 @024   ----------------------------------------
 .byte   PATT
  .word Label_01005665
@  #06 @025   ----------------------------------------
 .byte   W24
 .byte   N06 ,Bn2 ,v088
 .byte   W12
 .byte   Fs3
 .byte   W24
 .byte   Ds3
 .byte   W24
 .byte   As3
 .byte   W12
@  #06 @026   ----------------------------------------
 .byte   W12
 .byte   Fs3
 .byte   W24
 .byte   As3
 .byte   W60
@  #06 @027   ----------------------------------------
 .byte   Fn3
 .byte   W96
@  #06 @028   ----------------------------------------
 .byte   W96
@  #06 @029   ----------------------------------------
 .byte   PATT
  .word Label_01005659
@  #06 @030   ----------------------------------------
 .byte   PATT
  .word Label_01005665
@  #06 @031   ----------------------------------------
 .byte   PATT
  .word Label_0100566D
@  #06 @032   ----------------------------------------
 .byte   PATT
  .word Label_01005665
@  #06 @033   ----------------------------------------
 .byte   PATT
  .word Label_0100567E
@  #06 @034   ----------------------------------------
 .byte   PATT
  .word Label_01005686
@  #06 @035   ----------------------------------------
 .byte   PATT
  .word Label_0100568E
@  #06 @036   ----------------------------------------
 .byte   PATT
  .word Label_0100569E
@  #06 @037   ----------------------------------------
 .byte   PATT
  .word Label_01005659
@  #06 @038   ----------------------------------------
 .byte   PATT
  .word Label_010056B3
@  #06 @039   ----------------------------------------
 .byte   PATT
  .word Label_0100566D
@  #06 @040   ----------------------------------------
 .byte   PATT
  .word Label_01005665
@  #06 @041   ----------------------------------------
 .byte   PATT
  .word Label_0100567E
@  #06 @042   ----------------------------------------
 .byte   PATT
  .word Label_01005686
@  #06 @043   ----------------------------------------
Label_0100571E:
 .byte   W24
 .byte   N06 ,Ds3 ,v088
 .byte   W12
 .byte   As3
 .byte   W24
 .byte   Cs3
 .byte   W24
 .byte   Fs2
 .byte   N06 ,Ds3
 .byte   W12
 .byte   PEND 
@  #06 @044   ----------------------------------------
 .byte   W96
@  #06 @045   ----------------------------------------
 .byte   PATT
  .word Label_01005659
@  #06 @046   ----------------------------------------
 .byte   PATT
  .word Label_01005665
@  #06 @047   ----------------------------------------
 .byte   PATT
  .word Label_0100566D
@  #06 @048   ----------------------------------------
 .byte   PATT
  .word Label_01005665
@  #06 @049   ----------------------------------------
 .byte   PATT
  .word Label_0100567E
@  #06 @050   ----------------------------------------
 .byte   PATT
  .word Label_01005686
@  #06 @051   ----------------------------------------
 .byte   PATT
  .word Label_0100568E
@  #06 @052   ----------------------------------------
 .byte   PATT
  .word Label_0100569E
@  #06 @053   ----------------------------------------
 .byte   PATT
  .word Label_01005659
@  #06 @054   ----------------------------------------
 .byte   PATT
  .word Label_010056B3
@  #06 @055   ----------------------------------------
 .byte   PATT
  .word Label_0100566D
@  #06 @056   ----------------------------------------
 .byte   PATT
  .word Label_01005665
@  #06 @057   ----------------------------------------
Label_01005769:
 .byte   W24
 .byte   N06 ,Cs3 ,v088
 .byte   W12
 .byte   Ds3
 .byte   W60
 .byte   PEND 
@  #06 @058   ----------------------------------------
Label_01005771:
 .byte   W24
 .byte   N06 ,Ds3 ,v088
 .byte   W12
 .byte   Fs3
 .byte   W60
 .byte   PEND 
@  #06 @059   ----------------------------------------
 .byte   Fn3 ,v048
 .byte   W96
@  #06 @060   ----------------------------------------
 .byte   W96
@  #06 @061   ----------------------------------------
 .byte   PATT
  .word Label_01005659
@  #06 @062   ----------------------------------------
 .byte   PATT
  .word Label_01005665
@  #06 @063   ----------------------------------------
 .byte   PATT
  .word Label_0100566D
@  #06 @064   ----------------------------------------
 .byte   PATT
  .word Label_01005665
@  #06 @065   ----------------------------------------
 .byte   PATT
  .word Label_0100567E
@  #06 @066   ----------------------------------------
 .byte   PATT
  .word Label_01005686
@  #06 @067   ----------------------------------------
 .byte   PATT
  .word Label_0100568E
@  #06 @068   ----------------------------------------
 .byte   PATT
  .word Label_0100569E
@  #06 @069   ----------------------------------------
 .byte   PATT
  .word Label_01005659
@  #06 @070   ----------------------------------------
 .byte   PATT
  .word Label_010056B3
@  #06 @071   ----------------------------------------
 .byte   PATT
  .word Label_0100566D
@  #06 @072   ----------------------------------------
 .byte   PATT
  .word Label_01005665
@  #06 @073   ----------------------------------------
 .byte   PATT
  .word Label_0100567E
@  #06 @074   ----------------------------------------
 .byte   PATT
  .word Label_01005686
@  #06 @075   ----------------------------------------
 .byte   PATT
  .word Label_0100571E
@  #06 @076   ----------------------------------------
 .byte   W96
@  #06 @077   ----------------------------------------
Label_010057C9:
@  #06 @078   ----------------------------------------
 .byte   PATT
  .word Label_01005659
@  #06 @079   ----------------------------------------
 .byte   PATT
  .word Label_01005665
@  #06 @080   ----------------------------------------
 .byte   PATT
  .word Label_0100566D
@  #06 @081   ----------------------------------------
 .byte   PATT
  .word Label_01005665
@  #06 @082   ----------------------------------------
 .byte   PATT
  .word Label_0100567E
@  #06 @083   ----------------------------------------
 .byte   PATT
  .word Label_01005686
@  #06 @084   ----------------------------------------
 .byte   PATT
  .word Label_0100568E
@  #06 @085   ----------------------------------------
 .byte   PATT
  .word Label_0100569E
@  #06 @086   ----------------------------------------
 .byte   PATT
  .word Label_01005659
@  #06 @087   ----------------------------------------
 .byte   PATT
  .word Label_010056B3
@  #06 @088   ----------------------------------------
 .byte   PATT
  .word Label_0100566D
@  #06 @089   ----------------------------------------
 .byte   PATT
  .word Label_01005665
@  #06 @090   ----------------------------------------
 .byte   PATT
  .word Label_01005769
@  #06 @091   ----------------------------------------
 .byte   PATT
  .word Label_01005771
@  #06 @092   ----------------------------------------
 .byte   N06 ,Fn3 ,v048
 .byte   W96
@  #06 @093   ----------------------------------------
 .byte   W96
@  #06 @094   ----------------------------------------
 .byte   PATT
  .word Label_01005659
@  #06 @095   ----------------------------------------
 .byte   PATT
  .word Label_01005665
@  #06 @096   ----------------------------------------
 .byte   PATT
  .word Label_0100566D
@  #06 @097   ----------------------------------------
 .byte   PATT
  .word Label_01005665
@  #06 @098   ----------------------------------------
 .byte   PATT
  .word Label_0100567E
@  #06 @099   ----------------------------------------
 .byte   PATT
  .word Label_01005686
@  #06 @100   ----------------------------------------
 .byte   PATT
  .word Label_0100568E
@  #06 @101   ----------------------------------------
 .byte   PATT
  .word Label_0100569E
@  #06 @102   ----------------------------------------
 .byte   PATT
  .word Label_01005659
@  #06 @103   ----------------------------------------
 .byte   PATT
  .word Label_010056B3
@  #06 @104   ----------------------------------------
 .byte   PATT
  .word Label_0100566D
@  #06 @105   ----------------------------------------
 .byte   PATT
  .word Label_01005665
@  #06 @106   ----------------------------------------
 .byte   PATT
  .word Label_0100567E
@  #06 @107   ----------------------------------------
 .byte   PATT
  .word Label_01005686
@  #06 @108   ----------------------------------------
 .byte   PATT
  .word Label_0100571E
@  #06 @109   ----------------------------------------
 .byte   W96
@  #06 @110   ----------------------------------------
 .byte   GOTO
  .word Label_010057C9
@  #06 @111   ----------------------------------------
 .byte   W24
 .byte   N06 ,As2 ,v088
 .byte   W12
 .byte   Ds3
 .byte   W24
 .byte   As2
 .byte   W24
 .byte   Fn3
 .byte   W06
 .byte   BEND , c_v+0
 .byte   FINE

@**************** Track 7 (Midi-Chn.6) ****************@

song04_007:
@  #07 @000   ----------------------------------------
 .byte   KEYSH , song04_key+0
 .byte   VOICE , 45
 .byte   MODT 0
 .byte   LFOS 44
 .byte   PAN , c_v+0
 .byte   VOL , 33*song04_mvl/mxv
 .byte   BENDR, 12
 .byte   PAN , c_v+0
 .byte   VOL , 33*song04_mvl/mxv
 .byte   BENDR, 12
 .byte   PAN , c_v+0
 .byte   VOL , 33*song04_mvl/mxv
 .byte   BENDR, 12
 .byte   PAN , c_v+0
 .byte   VOL , 33*song04_mvl/mxv
 .byte   BEND , c_v+0
 .byte   W96
@  #07 @001   ----------------------------------------
 .byte   W96
@  #07 @002   ----------------------------------------
 .byte   W96
@  #07 @003   ----------------------------------------
 .byte   W96
@  #07 @004   ----------------------------------------
 .byte   W96
@  #07 @005   ----------------------------------------
 .byte   W96
@  #07 @006   ----------------------------------------
 .byte   W96
@  #07 @007   ----------------------------------------
 .byte   W96
@  #07 @008   ----------------------------------------
 .byte   W96
@  #07 @009   ----------------------------------------
 .byte   W96
@  #07 @010   ----------------------------------------
 .byte   W96
@  #07 @011   ----------------------------------------
 .byte   W96
@  #07 @012   ----------------------------------------
 .byte   W96
@  #07 @013   ----------------------------------------
Label_010058B1:
 .byte   N84 ,Bn1 ,v088
 .byte   W84
 .byte   TIE
 .byte   W12
 .byte   PEND 
@  #07 @014   ----------------------------------------
 .byte   W96
@  #07 @015   ----------------------------------------
 .byte   EOT
Label_010058BA:
 .byte   N84 ,As1 ,v088
 .byte   W84
 .byte   TIE
 .byte   W12
 .byte   PEND 
@  #07 @016   ----------------------------------------
 .byte   W96
@  #07 @017   ----------------------------------------
 .byte   EOT
 .byte   N96 ,Bn1
 .byte   W96
@  #07 @018   ----------------------------------------
 .byte   Cs2
 .byte   W96
@  #07 @019   ----------------------------------------
Label_010058C8:
 .byte   N84 ,Fs1 ,v088
 .byte   W84
 .byte   N48
 .byte   W12
 .byte   PEND 
@  #07 @020   ----------------------------------------
 .byte   W36
 .byte   N60 ,As1
 .byte   W60
@  #07 @021   ----------------------------------------
 .byte   PATT
  .word Label_010058B1
@  #07 @022   ----------------------------------------
 .byte   W96
@  #07 @023   ----------------------------------------
 .byte   EOT
 .byte   Bn1
@  #07 @024   ----------------------------------------
 .byte   PATT
  .word Label_010058BA
@  #07 @025   ----------------------------------------
 .byte   W96
@  #07 @026   ----------------------------------------
 .byte   EOT
 .byte   As1
@  #07 @027   ----------------------------------------
 .byte   PATT
  .word Label_010058B1
@  #07 @028   ----------------------------------------
 .byte   W96
@  #07 @029   ----------------------------------------
 .byte   EOT
 .byte   Bn1
 .byte   N84 ,Cs2 ,v088
 .byte   W96
@  #07 @030   ----------------------------------------
 .byte   W96
@  #07 @031   ----------------------------------------
 .byte   PATT
  .word Label_010058B1
@  #07 @032   ----------------------------------------
 .byte   W96
@  #07 @033   ----------------------------------------
 .byte   EOT
 .byte   Bn1
@  #07 @034   ----------------------------------------
 .byte   PATT
  .word Label_010058BA
@  #07 @035   ----------------------------------------
 .byte   W96
@  #07 @036   ----------------------------------------
 .byte   EOT
 .byte   As1
 .byte   N96 ,Bn1 ,v088
 .byte   W96
@  #07 @037   ----------------------------------------
 .byte   Cs2
 .byte   W96
@  #07 @038   ----------------------------------------
 .byte   PATT
  .word Label_010058C8
@  #07 @039   ----------------------------------------
 .byte   W36
 .byte   N60 ,As1 ,v088
 .byte   W60
@  #07 @040   ----------------------------------------
 .byte   PATT
  .word Label_010058B1
@  #07 @041   ----------------------------------------
 .byte   W96
@  #07 @042   ----------------------------------------
 .byte   EOT
 .byte   Bn1
@  #07 @043   ----------------------------------------
 .byte   PATT
  .word Label_010058BA
@  #07 @044   ----------------------------------------
 .byte   W96
@  #07 @045   ----------------------------------------
 .byte   EOT
 .byte   As1
 .byte   N96 ,Bn1 ,v088
 .byte   W96
@  #07 @046   ----------------------------------------
 .byte   Cs2
 .byte   W96
@  #07 @047   ----------------------------------------
Label_01005926:
 .byte   N60 ,Ds2 ,v088
 .byte   W60
 .byte   N24 ,Cs2
 .byte   W24
 .byte   N60 ,Ds2
 .byte   W12
 .byte   PEND 
@  #07 @048   ----------------------------------------
 .byte   W96
@  #07 @049   ----------------------------------------
Label_01005932:
 .byte   N48 ,Bn1 ,v088
 .byte   W48
 .byte   N48
 .byte   W48
 .byte   PEND 
@  #07 @050   ----------------------------------------
Label_01005939:
 .byte   N48 ,Cs2 ,v088
 .byte   W48
 .byte   N48
 .byte   W48
 .byte   PEND 
@  #07 @051   ----------------------------------------
Label_01005940:
 .byte   N48 ,Ds2 ,v088
 .byte   W48
 .byte   N48
 .byte   W48
 .byte   PEND 
@  #07 @052   ----------------------------------------
 .byte   PATT
  .word Label_01005939
@  #07 @053   ----------------------------------------
 .byte   PATT
  .word Label_01005932
@  #07 @054   ----------------------------------------
 .byte   PATT
  .word Label_01005939
@  #07 @055   ----------------------------------------
 .byte   PATT
  .word Label_01005940
@  #07 @056   ----------------------------------------
Label_0100595B:
 .byte   N48 ,Fs1 ,v088
 .byte   W48
 .byte   N48
 .byte   W48
 .byte   PEND 
@  #07 @057   ----------------------------------------
 .byte   PATT
  .word Label_01005932
@  #07 @058   ----------------------------------------
 .byte   PATT
  .word Label_01005939
@  #07 @059   ----------------------------------------
 .byte   PATT
  .word Label_01005940
@  #07 @060   ----------------------------------------
Label_01005971:
 .byte   N48 ,As1 ,v088
 .byte   W48
 .byte   N48
 .byte   W48
 .byte   PEND 
@  #07 @061   ----------------------------------------
Label_01005978:
 .byte   N48 ,Gs1 ,v088
 .byte   W48
 .byte   N48
 .byte   W48
 .byte   PEND 
@  #07 @062   ----------------------------------------
Label_0100597F:
 .byte   N48 ,An1 ,v088
 .byte   W48
 .byte   N48
 .byte   W48
 .byte   PEND 
@  #07 @063   ----------------------------------------
 .byte   N84 ,Cs2
 .byte   W96
@  #07 @064   ----------------------------------------
 .byte   W96
@  #07 @065   ----------------------------------------
 .byte   PATT
  .word Label_010058B1
@  #07 @066   ----------------------------------------
 .byte   W96
@  #07 @067   ----------------------------------------
 .byte   EOT
 .byte   Bn1
@  #07 @068   ----------------------------------------
 .byte   PATT
  .word Label_010058BA
@  #07 @069   ----------------------------------------
 .byte   W96
@  #07 @070   ----------------------------------------
 .byte   EOT
 .byte   As1
 .byte   N96 ,Bn1 ,v088
 .byte   W96
@  #07 @071   ----------------------------------------
 .byte   Cs2
 .byte   W96
@  #07 @072   ----------------------------------------
 .byte   PATT
  .word Label_010058C8
@  #07 @073   ----------------------------------------
 .byte   W36
 .byte   N60 ,As1 ,v088
 .byte   W60
@  #07 @074   ----------------------------------------
 .byte   PATT
  .word Label_010058B1
@  #07 @075   ----------------------------------------
 .byte   W96
@  #07 @076   ----------------------------------------
 .byte   EOT
 .byte   Bn1
@  #07 @077   ----------------------------------------
 .byte   PATT
  .word Label_010058BA
@  #07 @078   ----------------------------------------
 .byte   W96
@  #07 @079   ----------------------------------------
 .byte   EOT
 .byte   As1
 .byte   N96 ,Bn1 ,v088
 .byte   W96
@  #07 @080   ----------------------------------------
 .byte   Cs2
 .byte   W96
@  #07 @081   ----------------------------------------
 .byte   PATT
  .word Label_01005926
@  #07 @082   ----------------------------------------
 .byte   W96
@  #07 @083   ----------------------------------------
Label_010059C6:
@  #07 @084   ----------------------------------------
 .byte   PATT
  .word Label_01005932
@  #07 @085   ----------------------------------------
 .byte   PATT
  .word Label_01005939
@  #07 @086   ----------------------------------------
 .byte   PATT
  .word Label_01005940
@  #07 @087   ----------------------------------------
 .byte   PATT
  .word Label_01005939
@  #07 @088   ----------------------------------------
 .byte   PATT
  .word Label_01005932
@  #07 @089   ----------------------------------------
 .byte   PATT
  .word Label_01005939
@  #07 @090   ----------------------------------------
 .byte   PATT
  .word Label_01005940
@  #07 @091   ----------------------------------------
 .byte   PATT
  .word Label_0100595B
@  #07 @092   ----------------------------------------
 .byte   PATT
  .word Label_01005932
@  #07 @093   ----------------------------------------
 .byte   PATT
  .word Label_01005939
@  #07 @094   ----------------------------------------
 .byte   PATT
  .word Label_01005940
@  #07 @095   ----------------------------------------
 .byte   PATT
  .word Label_01005971
@  #07 @096   ----------------------------------------
 .byte   PATT
  .word Label_01005978
@  #07 @097   ----------------------------------------
 .byte   PATT
  .word Label_0100597F
@  #07 @098   ----------------------------------------
 .byte   N84 ,Cs2 ,v088
 .byte   W96
@  #07 @099   ----------------------------------------
 .byte   W96
@  #07 @100   ----------------------------------------
 .byte   PATT
  .word Label_010058B1
@  #07 @101   ----------------------------------------
 .byte   W96
@  #07 @102   ----------------------------------------
 .byte   EOT
 .byte   Bn1
@  #07 @103   ----------------------------------------
 .byte   PATT
  .word Label_010058BA
@  #07 @104   ----------------------------------------
 .byte   W96
@  #07 @105   ----------------------------------------
 .byte   EOT
 .byte   As1
 .byte   N96 ,Bn1 ,v088
 .byte   W96
@  #07 @106   ----------------------------------------
 .byte   Cs2
 .byte   W96
@  #07 @107   ----------------------------------------
 .byte   PATT
  .word Label_010058C8
@  #07 @108   ----------------------------------------
 .byte   W36
 .byte   N60 ,As1 ,v088
 .byte   W60
@  #07 @109   ----------------------------------------
 .byte   PATT
  .word Label_010058B1
@  #07 @110   ----------------------------------------
 .byte   W96
@  #07 @111   ----------------------------------------
 .byte   EOT
 .byte   Bn1
@  #07 @112   ----------------------------------------
 .byte   PATT
  .word Label_010058BA
@  #07 @113   ----------------------------------------
 .byte   W96
@  #07 @114   ----------------------------------------
 .byte   EOT
 .byte   As1
 .byte   N96 ,Bn1 ,v088
 .byte   W96
@  #07 @115   ----------------------------------------
 .byte   Cs2
 .byte   W96
@  #07 @116   ----------------------------------------
 .byte   PATT
  .word Label_01005926
@  #07 @117   ----------------------------------------
 .byte   W96
@  #07 @118   ----------------------------------------
 .byte   GOTO
  .word Label_010059C6
@  #07 @119   ----------------------------------------
 .byte   PATT
  .word Label_01005932
@  #07 @120   ----------------------------------------
 .byte   BEND , c_v+0
 .byte   FINE

@**************** Track 8 (Midi-Chn.7) ****************@

song04_008:
@  #08 @000   ----------------------------------------
 .byte   KEYSH , song04_key+0
 .byte   VOICE , 40
 .byte   MODT 0
 .byte   LFOS 44
 .byte   PAN , c_v+0
 .byte   VOL , 24*song04_mvl/mxv
 .byte   BENDR, 12
 .byte   PAN , c_v+0
 .byte   VOL , 24*song04_mvl/mxv
 .byte   BENDR, 12
 .byte   PAN , c_v+0
 .byte   VOL , 24*song04_mvl/mxv
 .byte   BENDR, 12
 .byte   PAN , c_v+0
 .byte   VOL , 24*song04_mvl/mxv
 .byte   BEND , c_v+0
 .byte   W24
 .byte   TIE ,Bn1 ,v088
 .byte   TIE ,Fs2
 .byte   TIE ,Cs3
 .byte   TIE ,Fs3
 .byte   TIE ,Gs3
 .byte   W72
@  #08 @001   ----------------------------------------
 .byte   W48
 .byte   EOT
 .byte   TIE ,Ds4
 .byte   W48
@  #08 @002   ----------------------------------------
 .byte   W96
@  #08 @003   ----------------------------------------
 .byte   EOT
 .byte   Bn1 ,v054
 .byte   Cs3 ,v066
 .byte   Ds4
 .byte   TIE ,Cs2
 .byte   TIE ,Gs2
 .byte   TIE ,Ds3
 .byte   TIE ,Gs3
 .byte   TIE ,Cs4
 .byte   W96
@  #08 @004   ----------------------------------------
 .byte   W96
@  #08 @005   ----------------------------------------
 .byte   W96
@  #08 @006   ----------------------------------------
 .byte   EOT
 .byte   Cs2 ,v056
 .byte   Ds3 ,v068
 .byte   Cs4
 .byte   TIE ,En2
 .byte   TIE ,Bn2
 .byte   TIE ,Fs3
 .byte   TIE ,Bn3
 .byte   TIE ,Ds4
 .byte   W96
@  #08 @007   ----------------------------------------
 .byte   W48
 .byte   EOT
 .byte   N96 ,Fs4
 .byte   W48
@  #08 @008   ----------------------------------------
 .byte   W48
 .byte   EOT
 .byte   En2 ,v059
 .byte   Fs3 ,v071
 .byte   TIE ,Fs2
 .byte   TIE ,Cs3
 .byte   TIE ,Gs3
 .byte   TIE ,Cs4
 .byte   TIE ,Fn4
 .byte   W48
@  #08 @009   ----------------------------------------
 .byte   W96
@  #08 @010   ----------------------------------------
 .byte   W96
@  #08 @011   ----------------------------------------
 .byte   W96
@  #08 @012   ----------------------------------------
 .byte   EOT
 .byte   Fs2 ,v061
 .byte   Gs3 ,v073
 .byte   Fn4
 .byte   W96
@  #08 @013   ----------------------------------------
Label_01005AE3:
 .byte   N84 ,Bn1 ,v088
 .byte   TIE ,Ds3 ,v028
 .byte   TIE ,Fs3
 .byte   TIE ,Bn3
 .byte   W84
 .byte   Bn1 ,v088
 .byte   W12
 .byte   PEND 
@  #08 @014   ----------------------------------------
 .byte   W96
@  #08 @015   ----------------------------------------
 .byte   EOT
 .byte   EOT
 .byte   Ds3 ,v066
 .byte   Bn3
Label_01005AF8:
 .byte   N84 ,As1 ,v088
 .byte   TIE ,Cs3 ,v028
 .byte   TIE ,Fn3
 .byte   TIE ,As3
 .byte   W84
 .byte   As1 ,v088
 .byte   W12
 .byte   PEND 
@  #08 @016   ----------------------------------------
 .byte   W96
@  #08 @017   ----------------------------------------
 .byte   EOT
 .byte   EOT
 .byte   Cs3 ,v065
 .byte   As3
Label_01005B0D:
 .byte   N96 ,Bn1 ,v088
 .byte   N96 ,Ds3 ,v028
 .byte   N96 ,Fs3
 .byte   N96 ,Bn3
 .byte   W96
 .byte   PEND 
@  #08 @018   ----------------------------------------
Label_01005B19:
 .byte   N96 ,Cs2 ,v088
 .byte   N96 ,Fn3 ,v028
 .byte   N96 ,Gs3
 .byte   N96 ,Cs4
 .byte   W96
 .byte   PEND 
@  #08 @019   ----------------------------------------
 .byte   N84 ,Fs1 ,v088
 .byte   TIE ,Cs3 ,v028
 .byte   TIE ,Fs3
 .byte   TIE ,As3
 .byte   W84
 .byte   N48 ,Fs1 ,v088
 .byte   W12
@  #08 @020   ----------------------------------------
 .byte   W36
 .byte   N60 ,As1
 .byte   W60
@  #08 @021   ----------------------------------------
 .byte   EOT
 .byte   Cs3 ,v066
 .byte   As3
@  #08 @022   ----------------------------------------
 .byte   PATT
  .word Label_01005AE3
@  #08 @023   ----------------------------------------
 .byte   W96
@  #08 @024   ----------------------------------------
 .byte   EOT
 .byte   Bn1 ,v063
 .byte   Fs3 ,v071
@  #08 @025   ----------------------------------------
 .byte   PATT
  .word Label_01005AF8
@  #08 @026   ----------------------------------------
 .byte   W96
@  #08 @027   ----------------------------------------
 .byte   EOT
 .byte   As1 ,v061
 .byte   Fn3 ,v070
 .byte   N96 ,Bn1 ,v088
 .byte   TIE ,Ds3 ,v028
 .byte   TIE ,Fs3
 .byte   TIE ,Bn3
 .byte   W96
@  #08 @028   ----------------------------------------
 .byte   N96 ,Bn1 ,v088
 .byte   W96
@  #08 @029   ----------------------------------------
 .byte   EOT
 .byte   Ds3 ,v066
 .byte   Bn3
 .byte   N84 ,Cs2
 .byte   N84 ,Fn3 ,v028
 .byte   N84 ,Gs3
 .byte   N84 ,Cs4
 .byte   W96
@  #08 @030   ----------------------------------------
 .byte   W96
@  #08 @031   ----------------------------------------
 .byte   PATT
  .word Label_01005AE3
@  #08 @032   ----------------------------------------
 .byte   W96
@  #08 @033   ----------------------------------------
 .byte   EOT
 .byte   Bn1 ,v063
 .byte   Fs3 ,v071
@  #08 @034   ----------------------------------------
 .byte   PATT
  .word Label_01005AF8
@  #08 @035   ----------------------------------------
 .byte   W96
@  #08 @036   ----------------------------------------
 .byte   EOT
 .byte   As1 ,v061
 .byte   Fn3 ,v070
@  #08 @037   ----------------------------------------
 .byte   PATT
  .word Label_01005B0D
@  #08 @038   ----------------------------------------
Label_01005B8B:
 .byte   N96 ,Cs2 ,v088
 .byte   N96 ,Cs3 ,v028
 .byte   N96 ,Fn3
 .byte   N96 ,Gs3
 .byte   W96
 .byte   PEND 
@  #08 @039   ----------------------------------------
Label_01005B97:
 .byte   N84 ,Fs1 ,v088
 .byte   N96 ,Cs3 ,v028
 .byte   N96 ,Fs3
 .byte   N96 ,As3
 .byte   W84
 .byte   N48 ,Fs1 ,v088
 .byte   W12
 .byte   PEND 
@  #08 @040   ----------------------------------------
Label_01005BA7:
 .byte   N48 ,Fs3 ,v028
 .byte   N48 ,As3
 .byte   N48 ,Cs4
 .byte   W36
 .byte   N60 ,As1 ,v088
 .byte   W12
 .byte   N48 ,Fn3 ,v028
 .byte   N48 ,Gs3
 .byte   N48 ,Bn3
 .byte   W48
 .byte   PEND 
@  #08 @041   ----------------------------------------
Label_01005BBC:
 .byte   N84 ,Bn1 ,v088
 .byte   TIE ,Ds3 ,v028
 .byte   TIE ,Fs3
 .byte   TIE ,As3
 .byte   W84
 .byte   Bn1 ,v088
 .byte   W12
 .byte   PEND 
@  #08 @042   ----------------------------------------
 .byte   W96
@  #08 @043   ----------------------------------------
 .byte   EOT
 .byte   EOT
 .byte   Ds3 ,v066
 .byte   As3
@  #08 @044   ----------------------------------------
 .byte   PATT
  .word Label_01005AF8
@  #08 @045   ----------------------------------------
 .byte   W96
@  #08 @046   ----------------------------------------
 .byte   EOT
 .byte   As1 ,v061
 .byte   Fn3 ,v070
@  #08 @047   ----------------------------------------
 .byte   PATT
  .word Label_01005B0D
@  #08 @048   ----------------------------------------
 .byte   PATT
  .word Label_01005B19
@  #08 @049   ----------------------------------------
Label_01005BE6:
 .byte   N60 ,Ds2 ,v088
 .byte   N48 ,Fs3 ,v028
 .byte   N48 ,As3
 .byte   N48 ,Ds4
 .byte   W60
 .byte   N24 ,Cs2 ,v088
 .byte   W24
 .byte   N60 ,Ds2
 .byte   W12
 .byte   PEND 
@  #08 @050   ----------------------------------------
 .byte   W96
@  #08 @051   ----------------------------------------
Label_01005BFA:
 .byte   N48 ,Bn1 ,v088
 .byte   N96 ,Ds3 ,v028
 .byte   N96 ,Fs3
 .byte   N96 ,Bn3
 .byte   W48
 .byte   N48 ,Bn1 ,v088
 .byte   W48
 .byte   PEND 
@  #08 @052   ----------------------------------------
Label_01005C0A:
 .byte   N48 ,Cs2 ,v088
 .byte   N96 ,Fn3 ,v028
 .byte   N96 ,Gs3
 .byte   N96 ,Cs4
 .byte   W48
 .byte   N48 ,Cs2 ,v088
 .byte   W48
 .byte   PEND 
@  #08 @053   ----------------------------------------
Label_01005C1A:
 .byte   N48 ,Ds2 ,v088
 .byte   N96 ,Fs3 ,v028
 .byte   N96 ,As3
 .byte   N96 ,Ds4
 .byte   W48
 .byte   N48 ,Ds2 ,v088
 .byte   N48 ,Fs4 ,v052
 .byte   W48
 .byte   PEND 
@  #08 @054   ----------------------------------------
Label_01005C2D:
 .byte   N48 ,Cs2 ,v088
 .byte   N96 ,Fn3 ,v028
 .byte   N96 ,Gs3
 .byte   N96 ,Cs4
 .byte   N48 ,Fn4 ,v052
 .byte   W48
 .byte   Cs2 ,v088
 .byte   N48 ,Ds4 ,v052
 .byte   W48
 .byte   PEND 
@  #08 @055   ----------------------------------------
Label_01005C42:
 .byte   N48 ,Bn1 ,v088
 .byte   N96 ,Ds3 ,v028
 .byte   N96 ,Fs3
 .byte   N96 ,Bn3
 .byte   N96 ,Cs4 ,v052
 .byte   W48
 .byte   N48 ,Bn1 ,v088
 .byte   W48
 .byte   PEND 
@  #08 @056   ----------------------------------------
 .byte   PATT
  .word Label_01005C0A
@  #08 @057   ----------------------------------------
Label_01005C5A:
 .byte   N48 ,Ds2 ,v088
 .byte   N96 ,Fs3 ,v028
 .byte   N96 ,As3
 .byte   N96 ,Ds4
 .byte   W48
 .byte   N48 ,Ds2 ,v088
 .byte   W48
 .byte   PEND 
@  #08 @058   ----------------------------------------
Label_01005C6A:
 .byte   N48 ,Fs1 ,v088
 .byte   N96 ,Cs3 ,v028
 .byte   N96 ,Fs3
 .byte   N96 ,As3
 .byte   W48
 .byte   N48 ,Fs1 ,v088
 .byte   W48
 .byte   PEND 
@  #08 @059   ----------------------------------------
 .byte   PATT
  .word Label_01005BFA
@  #08 @060   ----------------------------------------
 .byte   PATT
  .word Label_01005C0A
@  #08 @061   ----------------------------------------
 .byte   PATT
  .word Label_01005C5A
@  #08 @062   ----------------------------------------
Label_01005C89:
 .byte   N48 ,As1 ,v088
 .byte   N96 ,Cs3 ,v028
 .byte   N96 ,Fn3
 .byte   N96 ,As3
 .byte   W48
 .byte   N48 ,As1 ,v088
 .byte   W48
 .byte   PEND 
@  #08 @063   ----------------------------------------
Label_01005C99:
 .byte   N48 ,Gs1 ,v088
 .byte   N96 ,Cn3 ,v028
 .byte   N96 ,Ds3
 .byte   N96 ,Gs3
 .byte   W48
 .byte   N48 ,Gs1 ,v088
 .byte   W48
 .byte   PEND 
@  #08 @064   ----------------------------------------
Label_01005CA9:
 .byte   N48 ,An1 ,v088
 .byte   N96 ,Cs3 ,v028
 .byte   N96 ,En3
 .byte   N96 ,An3
 .byte   W48
 .byte   N48 ,An1 ,v088
 .byte   W48
 .byte   PEND 
@  #08 @065   ----------------------------------------
Label_01005CB9:
 .byte   N84 ,Cs2 ,v088
 .byte   N84 ,Cs3 ,v028
 .byte   N84 ,Fn3
 .byte   N84 ,Gs3
 .byte   W96
 .byte   PEND 
@  #08 @066   ----------------------------------------
 .byte   W96
@  #08 @067   ----------------------------------------
 .byte   PATT
  .word Label_01005AE3
@  #08 @068   ----------------------------------------
 .byte   W96
@  #08 @069   ----------------------------------------
 .byte   EOT
 .byte   Bn1 ,v063
 .byte   Fs3 ,v071
@  #08 @070   ----------------------------------------
 .byte   PATT
  .word Label_01005AF8
@  #08 @071   ----------------------------------------
 .byte   W96
@  #08 @072   ----------------------------------------
 .byte   EOT
 .byte   As1 ,v061
 .byte   Fn3 ,v070
@  #08 @073   ----------------------------------------
 .byte   PATT
  .word Label_01005B0D
@  #08 @074   ----------------------------------------
 .byte   PATT
  .word Label_01005B8B
@  #08 @075   ----------------------------------------
 .byte   PATT
  .word Label_01005B97
@  #08 @076   ----------------------------------------
 .byte   PATT
  .word Label_01005BA7
@  #08 @077   ----------------------------------------
 .byte   PATT
  .word Label_01005BBC
@  #08 @078   ----------------------------------------
 .byte   W96
@  #08 @079   ----------------------------------------
 .byte   EOT
 .byte   Bn1 ,v063
 .byte   Fs3 ,v070
@  #08 @080   ----------------------------------------
 .byte   PATT
  .word Label_01005AF8
@  #08 @081   ----------------------------------------
 .byte   W96
@  #08 @082   ----------------------------------------
 .byte   EOT
 .byte   As1 ,v061
 .byte   Fn3 ,v070
@  #08 @083   ----------------------------------------
 .byte   PATT
  .word Label_01005B0D
@  #08 @084   ----------------------------------------
 .byte   PATT
  .word Label_01005B19
@  #08 @085   ----------------------------------------
 .byte   PATT
  .word Label_01005BE6
@  #08 @086   ----------------------------------------
 .byte   W96
@  #08 @087   ----------------------------------------
Label_01005D16:
@  #08 @088   ----------------------------------------
 .byte   PATT
  .word Label_01005BFA
@  #08 @089   ----------------------------------------
 .byte   PATT
  .word Label_01005C0A
@  #08 @090   ----------------------------------------
 .byte   PATT
  .word Label_01005C1A
@  #08 @091   ----------------------------------------
 .byte   PATT
  .word Label_01005C2D
@  #08 @092   ----------------------------------------
 .byte   PATT
  .word Label_01005C42
@  #08 @093   ----------------------------------------
 .byte   PATT
  .word Label_01005C0A
@  #08 @094   ----------------------------------------
 .byte   PATT
  .word Label_01005C5A
@  #08 @095   ----------------------------------------
 .byte   PATT
  .word Label_01005C6A
@  #08 @096   ----------------------------------------
 .byte   PATT
  .word Label_01005BFA
@  #08 @097   ----------------------------------------
 .byte   PATT
  .word Label_01005C0A
@  #08 @098   ----------------------------------------
 .byte   PATT
  .word Label_01005C5A
@  #08 @099   ----------------------------------------
 .byte   PATT
  .word Label_01005C89
@  #08 @100   ----------------------------------------
 .byte   PATT
  .word Label_01005C99
@  #08 @101   ----------------------------------------
 .byte   PATT
  .word Label_01005CA9
@  #08 @102   ----------------------------------------
 .byte   PATT
  .word Label_01005CB9
@  #08 @103   ----------------------------------------
 .byte   W96
@  #08 @104   ----------------------------------------
 .byte   PATT
  .word Label_01005AE3
@  #08 @105   ----------------------------------------
 .byte   W96
@  #08 @106   ----------------------------------------
 .byte   EOT
 .byte   Bn1 ,v063
 .byte   Fs3 ,v071
@  #08 @107   ----------------------------------------
 .byte   PATT
  .word Label_01005AF8
@  #08 @108   ----------------------------------------
 .byte   W96
@  #08 @109   ----------------------------------------
 .byte   EOT
 .byte   As1 ,v061
 .byte   Fn3 ,v070
@  #08 @110   ----------------------------------------
 .byte   PATT
  .word Label_01005B0D
@  #08 @111   ----------------------------------------
 .byte   PATT
  .word Label_01005B8B
@  #08 @112   ----------------------------------------
 .byte   PATT
  .word Label_01005B97
@  #08 @113   ----------------------------------------
 .byte   PATT
  .word Label_01005BA7
@  #08 @114   ----------------------------------------
 .byte   PATT
  .word Label_01005BBC
@  #08 @115   ----------------------------------------
 .byte   W96
@  #08 @116   ----------------------------------------
 .byte   EOT
 .byte   Bn1 ,v063
 .byte   Fs3 ,v070
@  #08 @117   ----------------------------------------
 .byte   PATT
  .word Label_01005AF8
@  #08 @118   ----------------------------------------
 .byte   W96
@  #08 @119   ----------------------------------------
 .byte   EOT
 .byte   As1 ,v061
 .byte   Fn3 ,v070
@  #08 @120   ----------------------------------------
 .byte   PATT
  .word Label_01005B0D
@  #08 @121   ----------------------------------------
 .byte   PATT
  .word Label_01005B19
@  #08 @122   ----------------------------------------
 .byte   PATT
  .word Label_01005BE6
@  #08 @123   ----------------------------------------
 .byte   W96
@  #08 @124   ----------------------------------------
 .byte   GOTO
  .word Label_01005D16
@  #08 @125   ----------------------------------------
 .byte   PATT
  .word Label_01005BFA
@  #08 @126   ----------------------------------------
 .byte   BEND , c_v+0
 .byte   FINE

@**************** Track 9 (Midi-Chn.8) ****************@

song04_009:
@  #09 @000   ----------------------------------------
 .byte   KEYSH , song04_key+0
 .byte   VOICE , 52
 .byte   MODT 0
 .byte   LFOS 44
 .byte   PAN , c_v+0
 .byte   VOL , 19*song04_mvl/mxv
 .byte   BENDR, 12
 .byte   PAN , c_v+0
 .byte   VOL , 19*song04_mvl/mxv
 .byte   BENDR, 12
 .byte   PAN , c_v+0
 .byte   VOL , 19*song04_mvl/mxv
 .byte   BENDR, 12
 .byte   PAN , c_v+0
 .byte   VOL , 19*song04_mvl/mxv
 .byte   BEND , c_v+0
 .byte   W96
@  #09 @001   ----------------------------------------
 .byte   W96
@  #09 @002   ----------------------------------------
 .byte   W96
@  #09 @003   ----------------------------------------
 .byte   W96
@  #09 @004   ----------------------------------------
 .byte   W96
@  #09 @005   ----------------------------------------
 .byte   W96
@  #09 @006   ----------------------------------------
 .byte   W96
@  #09 @007   ----------------------------------------
 .byte   W96
@  #09 @008   ----------------------------------------
 .byte   W96
@  #09 @009   ----------------------------------------
 .byte   W96
@  #09 @010   ----------------------------------------
 .byte   W96
@  #09 @011   ----------------------------------------
 .byte   W96
@  #09 @012   ----------------------------------------
 .byte   W96
@  #09 @013   ----------------------------------------
 .byte   W96
@  #09 @014   ----------------------------------------
 .byte   W96
@  #09 @015   ----------------------------------------
 .byte   W96
@  #09 @016   ----------------------------------------
 .byte   W96
@  #09 @017   ----------------------------------------
 .byte   W96
@  #09 @018   ----------------------------------------
 .byte   W96
@  #09 @019   ----------------------------------------
 .byte   W96
@  #09 @020   ----------------------------------------
 .byte   W96
@  #09 @021   ----------------------------------------
 .byte   W96
@  #09 @022   ----------------------------------------
 .byte   W96
@  #09 @023   ----------------------------------------
 .byte   W96
@  #09 @024   ----------------------------------------
 .byte   W96
@  #09 @025   ----------------------------------------
 .byte   W96
@  #09 @026   ----------------------------------------
 .byte   W96
@  #09 @027   ----------------------------------------
 .byte   W96
@  #09 @028   ----------------------------------------
 .byte   W96
@  #09 @029   ----------------------------------------
Label_01005E0D:
 .byte   TIE ,Ds3 ,v028
 .byte   TIE ,Fs3
 .byte   TIE ,Bn3
 .byte   W96
 .byte   PEND 
@  #09 @030   ----------------------------------------
 .byte   W96
@  #09 @031   ----------------------------------------
 .byte   EOT
 .byte   Ds3 ,v066
 .byte   Bn3
Label_01005E1B:
 .byte   TIE ,Cs3 ,v028
 .byte   TIE ,Fn3
 .byte   TIE ,As3
 .byte   W96
 .byte   PEND 
@  #09 @032   ----------------------------------------
 .byte   W96
@  #09 @033   ----------------------------------------
 .byte   EOT
 .byte   Cs3 ,v065
 .byte   As3
Label_01005E29:
 .byte   N96 ,Ds3 ,v028
 .byte   N96 ,Fs3
 .byte   N96 ,Bn3
 .byte   W96
 .byte   PEND 
@  #09 @034   ----------------------------------------
Label_01005E32:
 .byte   N96 ,Cs3 ,v028
 .byte   N96 ,Fn3
 .byte   N96 ,Gs3
 .byte   W96
 .byte   PEND 
@  #09 @035   ----------------------------------------
Label_01005E3B:
 .byte   N96 ,Cs3 ,v028
 .byte   N96 ,Fs3
 .byte   N96 ,As3
 .byte   W96
 .byte   PEND 
@  #09 @036   ----------------------------------------
Label_01005E44:
 .byte   N48 ,Fs3 ,v028
 .byte   N48 ,As3
 .byte   N48 ,Cs4
 .byte   W48
 .byte   Fn3
 .byte   N48 ,Gs3
 .byte   N48 ,Bn3
 .byte   W48
 .byte   PEND 
@  #09 @037   ----------------------------------------
Label_01005E53:
 .byte   TIE ,Ds3 ,v028
 .byte   TIE ,Fs3
 .byte   TIE ,As3
 .byte   W96
 .byte   PEND 
@  #09 @038   ----------------------------------------
 .byte   W96
@  #09 @039   ----------------------------------------
 .byte   EOT
 .byte   Ds3 ,v066
 .byte   As3
@  #09 @040   ----------------------------------------
 .byte   PATT
  .word Label_01005E1B
@  #09 @041   ----------------------------------------
 .byte   W96
@  #09 @042   ----------------------------------------
 .byte   EOT
 .byte   Cs3 ,v065
 .byte   As3
@  #09 @043   ----------------------------------------
 .byte   PATT
  .word Label_01005E29
@  #09 @044   ----------------------------------------
Label_01005E70:
 .byte   N96 ,Fn3 ,v028
 .byte   N96 ,Gs3
 .byte   N96 ,Cs4
 .byte   W96
 .byte   PEND 
@  #09 @045   ----------------------------------------
Label_01005E79:
 .byte   N48 ,Fs3 ,v028
 .byte   N48 ,As3
 .byte   N48 ,Ds4
 .byte   W96
 .byte   PEND 
@  #09 @046   ----------------------------------------
 .byte   W96
@  #09 @047   ----------------------------------------
 .byte   W96
@  #09 @048   ----------------------------------------
 .byte   W96
@  #09 @049   ----------------------------------------
 .byte   W96
@  #09 @050   ----------------------------------------
 .byte   W96
@  #09 @051   ----------------------------------------
 .byte   W96
@  #09 @052   ----------------------------------------
 .byte   W96
@  #09 @053   ----------------------------------------
 .byte   W96
@  #09 @054   ----------------------------------------
 .byte   W96
@  #09 @055   ----------------------------------------
 .byte   W96
@  #09 @056   ----------------------------------------
 .byte   W96
@  #09 @057   ----------------------------------------
 .byte   W96
@  #09 @058   ----------------------------------------
 .byte   W96
@  #09 @059   ----------------------------------------
 .byte   W96
@  #09 @060   ----------------------------------------
 .byte   W96
@  #09 @061   ----------------------------------------
 .byte   W96
@  #09 @062   ----------------------------------------
 .byte   W96
@  #09 @063   ----------------------------------------
 .byte   PATT
  .word Label_01005E0D
@  #09 @064   ----------------------------------------
 .byte   W96
@  #09 @065   ----------------------------------------
 .byte   EOT
 .byte   Ds3 ,v066
 .byte   Bn3
@  #09 @066   ----------------------------------------
 .byte   PATT
  .word Label_01005E1B
@  #09 @067   ----------------------------------------
 .byte   W96
@  #09 @068   ----------------------------------------
 .byte   EOT
 .byte   Cs3 ,v065
 .byte   As3
@  #09 @069   ----------------------------------------
 .byte   PATT
  .word Label_01005E29
@  #09 @070   ----------------------------------------
 .byte   PATT
  .word Label_01005E32
@  #09 @071   ----------------------------------------
 .byte   PATT
  .word Label_01005E3B
@  #09 @072   ----------------------------------------
 .byte   PATT
  .word Label_01005E44
@  #09 @073   ----------------------------------------
 .byte   PATT
  .word Label_01005E53
@  #09 @074   ----------------------------------------
 .byte   W96
@  #09 @075   ----------------------------------------
 .byte   EOT
 .byte   Ds3 ,v066
 .byte   As3
@  #09 @076   ----------------------------------------
 .byte   PATT
  .word Label_01005E1B
@  #09 @077   ----------------------------------------
 .byte   W96
@  #09 @078   ----------------------------------------
 .byte   EOT
 .byte   Cs3 ,v065
 .byte   As3
@  #09 @079   ----------------------------------------
 .byte   PATT
  .word Label_01005E29
@  #09 @080   ----------------------------------------
 .byte   PATT
  .word Label_01005E70
@  #09 @081   ----------------------------------------
 .byte   PATT
  .word Label_01005E79
@  #09 @082   ----------------------------------------
 .byte   W96
@  #09 @083   ----------------------------------------
Label_01005EDF:
 .byte   W96
@  #09 @084   ----------------------------------------
 .byte   W96
@  #09 @085   ----------------------------------------
 .byte   W96
@  #09 @086   ----------------------------------------
 .byte   W96
@  #09 @087   ----------------------------------------
 .byte   W96
@  #09 @088   ----------------------------------------
 .byte   W96
@  #09 @089   ----------------------------------------
 .byte   W96
@  #09 @090   ----------------------------------------
 .byte   W96
@  #09 @091   ----------------------------------------
 .byte   W96
@  #09 @092   ----------------------------------------
 .byte   W96
@  #09 @093   ----------------------------------------
 .byte   W96
@  #09 @094   ----------------------------------------
 .byte   W96
@  #09 @095   ----------------------------------------
 .byte   W96
@  #09 @096   ----------------------------------------
 .byte   W96
@  #09 @097   ----------------------------------------
 .byte   W96
@  #09 @098   ----------------------------------------
 .byte   W96
@  #09 @099   ----------------------------------------
 .byte   PATT
  .word Label_01005E0D
@  #09 @100   ----------------------------------------
 .byte   W96
@  #09 @101   ----------------------------------------
 .byte   EOT
 .byte   Ds3 ,v066
 .byte   Bn3
@  #09 @102   ----------------------------------------
 .byte   PATT
  .word Label_01005E1B
@  #09 @103   ----------------------------------------
 .byte   W96
@  #09 @104   ----------------------------------------
 .byte   EOT
 .byte   Cs3 ,v065
 .byte   As3
@  #09 @105   ----------------------------------------
 .byte   PATT
  .word Label_01005E29
@  #09 @106   ----------------------------------------
 .byte   PATT
  .word Label_01005E32
@  #09 @107   ----------------------------------------
 .byte   PATT
  .word Label_01005E3B
@  #09 @108   ----------------------------------------
 .byte   PATT
  .word Label_01005E44
@  #09 @109   ----------------------------------------
 .byte   PATT
  .word Label_01005E53
@  #09 @110   ----------------------------------------
 .byte   W96
@  #09 @111   ----------------------------------------
 .byte   EOT
 .byte   Ds3 ,v066
 .byte   As3
@  #09 @112   ----------------------------------------
 .byte   PATT
  .word Label_01005E1B
@  #09 @113   ----------------------------------------
 .byte   W96
@  #09 @114   ----------------------------------------
 .byte   EOT
 .byte   Cs3 ,v065
 .byte   As3
@  #09 @115   ----------------------------------------
 .byte   PATT
  .word Label_01005E29
@  #09 @116   ----------------------------------------
 .byte   PATT
  .word Label_01005E70
@  #09 @117   ----------------------------------------
 .byte   N48 ,Fs3 ,v028
 .byte   N48 ,As3
 .byte   N48 ,Ds4
 .byte   W48
 .byte   BEND , c_v+0
 .byte   W48
@  #09 @118   ----------------------------------------
 .byte   W96
@  #09 @119   ----------------------------------------
 .byte   GOTO
  .word Label_01005EDF
@  #09 @120   ----------------------------------------
 .byte   W84
 .byte   FINE

@**************** Track 10 (Midi-Chn.9) ****************@

song04_010:
@  #10 @000   ----------------------------------------
 .byte   KEYSH , song04_key+0
 .byte   VOICE , 10
 .byte   MODT 0
 .byte   LFOS 44
 .byte   PAN , c_v+0
 .byte   VOL , 14*song04_mvl/mxv
 .byte   BENDR, 12
 .byte   PAN , c_v+0
 .byte   VOL , 14*song04_mvl/mxv
 .byte   BENDR, 12
 .byte   PAN , c_v+0
 .byte   VOL , 14*song04_mvl/mxv
 .byte   BENDR, 12
 .byte   PAN , c_v+0
 .byte   VOL , 14*song04_mvl/mxv
 .byte   BEND , c_v+0
 .byte   W96
@  #10 @001   ----------------------------------------
 .byte   W96
@  #10 @002   ----------------------------------------
 .byte   W96
@  #10 @003   ----------------------------------------
 .byte   W96
@  #10 @004   ----------------------------------------
 .byte   W96
@  #10 @005   ----------------------------------------
 .byte   W96
@  #10 @006   ----------------------------------------
 .byte   W96
@  #10 @007   ----------------------------------------
 .byte   W96
@  #10 @008   ----------------------------------------
 .byte   W96
@  #10 @009   ----------------------------------------
 .byte   W96
@  #10 @010   ----------------------------------------
 .byte   W96
@  #10 @011   ----------------------------------------
 .byte   W96
@  #10 @012   ----------------------------------------
 .byte   W96
@  #10 @013   ----------------------------------------
 .byte   W96
@  #10 @014   ----------------------------------------
 .byte   W96
@  #10 @015   ----------------------------------------
 .byte   W96
@  #10 @016   ----------------------------------------
 .byte   W96
@  #10 @017   ----------------------------------------
 .byte   W96
@  #10 @018   ----------------------------------------
 .byte   W96
@  #10 @019   ----------------------------------------
 .byte   W96
@  #10 @020   ----------------------------------------
 .byte   W96
@  #10 @021   ----------------------------------------
 .byte   W96
@  #10 @022   ----------------------------------------
 .byte   W96
@  #10 @023   ----------------------------------------
 .byte   W96
@  #10 @024   ----------------------------------------
 .byte   W96
@  #10 @025   ----------------------------------------
 .byte   W96
@  #10 @026   ----------------------------------------
 .byte   W96
@  #10 @027   ----------------------------------------
 .byte   W96
@  #10 @028   ----------------------------------------
 .byte   W96
@  #10 @029   ----------------------------------------
Label_F89D0D:
 .byte   N12 ,Fn4 ,v088
 .byte   W36
 .byte   Ds4
 .byte   W36
 .byte   As4
 .byte   W24
 .byte   PEND 
@  #10 @030   ----------------------------------------
 .byte   W96
@  #10 @031   ----------------------------------------
Label_F89D17:
 .byte   N12 ,Fn4 ,v088
 .byte   W36
 .byte   Ds4
 .byte   W36
 .byte   As3
 .byte   W24
 .byte   PEND 
@  #10 @032   ----------------------------------------
 .byte   W72
 .byte   Cs4
 .byte   W24
@  #10 @033   ----------------------------------------
Label_F89D23:
 .byte   N12 ,Ds4 ,v088
 .byte   W36
 .byte   As4
 .byte   W36
 .byte   N12
 .byte   W24
 .byte   PEND 
@  #10 @034   ----------------------------------------
Label_F89D2C:
 .byte   W24
 .byte   N12 ,Gs4 ,v088
 .byte   W24
 .byte   Fs4
 .byte   W24
 .byte   Cs5
 .byte   W12
 .byte   As4
 .byte   W12
 .byte   PEND 
@  #10 @035   ----------------------------------------
 .byte   W96
@  #10 @036   ----------------------------------------
 .byte   W96
@  #10 @037   ----------------------------------------
 .byte   PATT
  .word Label_F89D0D
@  #10 @038   ----------------------------------------
 .byte   W96
@  #10 @039   ----------------------------------------
 .byte   PATT
  .word Label_F89D17
@  #10 @040   ----------------------------------------
 .byte   W72
 .byte   N12 ,Cs4 ,v088
 .byte   W24
@  #10 @041   ----------------------------------------
 .byte   PATT
  .word Label_F89D23
@  #10 @042   ----------------------------------------
Label_F89D4F:
 .byte   W24
 .byte   N12 ,Gs4 ,v088
 .byte   W24
 .byte   Fs4
 .byte   W24
 .byte   Gs4
 .byte   W12
 .byte   Fs4
 .byte   W12
 .byte   PEND 
@  #10 @043   ----------------------------------------
 .byte   W96
@  #10 @044   ----------------------------------------
 .byte   W96
@  #10 @045   ----------------------------------------
 .byte   W96
@  #10 @046   ----------------------------------------
 .byte   W96
@  #10 @047   ----------------------------------------
 .byte   W96
@  #10 @048   ----------------------------------------
 .byte   W96
@  #10 @049   ----------------------------------------
 .byte   W96
@  #10 @050   ----------------------------------------
 .byte   W96
@  #10 @051   ----------------------------------------
 .byte   W96
@  #10 @052   ----------------------------------------
 .byte   W96
@  #10 @053   ----------------------------------------
 .byte   W96
@  #10 @054   ----------------------------------------
 .byte   W96
@  #10 @055   ----------------------------------------
 .byte   W96
@  #10 @056   ----------------------------------------
 .byte   W96
@  #10 @057   ----------------------------------------
 .byte   W96
@  #10 @058   ----------------------------------------
 .byte   W96
@  #10 @059   ----------------------------------------
 .byte   W96
@  #10 @060   ----------------------------------------
 .byte   W96
@  #10 @061   ----------------------------------------
 .byte   PATT
  .word Label_F89D0D
@  #10 @062   ----------------------------------------
 .byte   W96
@  #10 @063   ----------------------------------------
 .byte   PATT
  .word Label_F89D17
@  #10 @064   ----------------------------------------
 .byte   W72
 .byte   N12 ,Cs4 ,v088
 .byte   W24
@  #10 @065   ----------------------------------------
 .byte   PATT
  .word Label_F89D23
@  #10 @066   ----------------------------------------
 .byte   PATT
  .word Label_F89D2C
@  #10 @067   ----------------------------------------
 .byte   W96
@  #10 @068   ----------------------------------------
 .byte   W96
@  #10 @069   ----------------------------------------
 .byte   PATT
  .word Label_F89D0D
@  #10 @070   ----------------------------------------
 .byte   W96
@  #10 @071   ----------------------------------------
 .byte   PATT
  .word Label_F89D17
@  #10 @072   ----------------------------------------
 .byte   W72
 .byte   N12 ,Cs4 ,v088
 .byte   W24
@  #10 @073   ----------------------------------------
 .byte   PATT
  .word Label_F89D23
@  #10 @074   ----------------------------------------
 .byte   PATT
  .word Label_F89D4F
@  #10 @075   ----------------------------------------
 .byte   W96
@  #10 @076   ----------------------------------------
 .byte   W96
@  #10 @077   ----------------------------------------
Label_F89DA5:
 .byte   W96
@  #10 @078   ----------------------------------------
 .byte   W96
@  #10 @079   ----------------------------------------
 .byte   W96
@  #10 @080   ----------------------------------------
 .byte   W96
@  #10 @081   ----------------------------------------
 .byte   W96
@  #10 @082   ----------------------------------------
 .byte   W96
@  #10 @083   ----------------------------------------
 .byte   W96
@  #10 @084   ----------------------------------------
 .byte   W96
@  #10 @085   ----------------------------------------
 .byte   W96
@  #10 @086   ----------------------------------------
 .byte   W96
@  #10 @087   ----------------------------------------
 .byte   W96
@  #10 @088   ----------------------------------------
 .byte   W96
@  #10 @089   ----------------------------------------
 .byte   W96
@  #10 @090   ----------------------------------------
 .byte   W96
@  #10 @091   ----------------------------------------
 .byte   W96
@  #10 @092   ----------------------------------------
 .byte   W96
@  #10 @093   ----------------------------------------
 .byte   PATT
  .word Label_F89D0D
@  #10 @094   ----------------------------------------
 .byte   W96
@  #10 @095   ----------------------------------------
 .byte   PATT
  .word Label_F89D17
@  #10 @096   ----------------------------------------
 .byte   W72
 .byte   N12 ,Cs4 ,v088
 .byte   W24
@  #10 @097   ----------------------------------------
 .byte   PATT
  .word Label_F89D23
@  #10 @098   ----------------------------------------
 .byte   PATT
  .word Label_F89D2C
@  #10 @099   ----------------------------------------
 .byte   W96
@  #10 @100   ----------------------------------------
 .byte   W96
@  #10 @101   ----------------------------------------
 .byte   PATT
  .word Label_F89D0D
@  #10 @102   ----------------------------------------
 .byte   W96
@  #10 @103   ----------------------------------------
 .byte   PATT
  .word Label_F89D17
@  #10 @104   ----------------------------------------
 .byte   W72
 .byte   N12 ,Cs4 ,v088
 .byte   W24
@  #10 @105   ----------------------------------------
 .byte   PATT
  .word Label_F89D23
@  #10 @106   ----------------------------------------
 .byte   PATT
  .word Label_F89D4F
@  #10 @107   ----------------------------------------
 .byte   BEND , c_v+0
 .byte   W96
@  #10 @108   ----------------------------------------
 .byte   W96
@  #10 @109   ----------------------------------------
 .byte   GOTO
  .word Label_F89DA5
@  #10 @110   ----------------------------------------
 .byte   W84
 .byte   FINE

@******************************************************@
	.align	2

song04:
	.byte	10	@ NumTrks
	.byte	0	@ NumBlks
	.byte	song04_pri	@ Priority
	.byte	song04_rev	@ Reverb.
    
	.word	song04_grp
    
	.word	song04_001
	.word	song04_002
	.word	song04_003
	.word	song04_004
	.word	song04_005
	.word	song04_006
	.word	song04_007
	.word	song04_008
	.word	song04_009
	.word	song04_010

	.end
