//Event file generated from Sappy .s format.
	#include "MPlayDef.event"

	#define	IntoTheMind_grp  voicegroup000
	#define	IntoTheMind_pri  0
	#define	IntoTheMind_rev  0
	#define	IntoTheMind_mvl  127
	#define	IntoTheMind_key  0
	#define	IntoTheMind_tbs  1
	#define	IntoTheMind_exg  0
	#define	IntoTheMind_cmp  1

	// .rodata
	//	IntoTheMind
	ALIGN 4


//**************** Track 1 (Midi-Chn.0) ****************//

IntoTheMind_001:
//  #01 //000   ----------------------------------------
 BYTE   KEYSH   IntoTheMind_key+0
 BYTE   TEMPO   170*IntoTheMind_tbs/2
 BYTE   VOICE   4
 BYTE   PAN   c_v+0
 BYTE   VOL   42*IntoTheMind_mvl/mxv
 BYTE   PAN   c_v+0
 BYTE   VOL   42*IntoTheMind_mvl/mxv
 BYTE   PAN   c_v+0
 BYTE   VOL   42*IntoTheMind_mvl/mxv
 BYTE   PAN   c_v+0
 BYTE   VOL   42*IntoTheMind_mvl/mxv
 BYTE   PAN   c_v+0
 BYTE   VOL   42*IntoTheMind_mvl/mxv
 BYTE   PAN   c_v+0
 BYTE   VOL   42*IntoTheMind_mvl/mxv
 BYTE   BEND   c_v+0
 BYTE   N06  Fs2  v100
 BYTE   N06  An2
 BYTE   W36
 BYTE   Fs2
 BYTE   N06  An2
 BYTE   W36
 BYTE   N12  Fs2
 BYTE   W12
 BYTE   Gs2
 BYTE   W12
//  #01 //001   ----------------------------------------
Label_F8B9A7:
 BYTE   N06  Fs2  v100
 BYTE   N06  An2
 BYTE   W36
 BYTE   Fs2
 BYTE   N06  An2
 BYTE   W36
 BYTE   N12  Fs2
 BYTE   W12
 BYTE   Gs2
 BYTE   W12
 BYTE   PEND 
//  #01 //002   ----------------------------------------
Label_F8B9B7:
 BYTE   N06  An1  v100
 BYTE   N06  En2
 BYTE   W36
 BYTE   An1
 BYTE   N06  Fs2
 BYTE   W36
 BYTE   N12  En2
 BYTE   W12
 BYTE   Fs2
 BYTE   W12
 BYTE   PEND 
//  #01 //003   ----------------------------------------
Label_F8B9C7:
 BYTE   N06  An1  v100
 BYTE   N06  Fs2
 BYTE   W36
 BYTE   An1
 BYTE   N06  En2
 BYTE   W36
 BYTE   N12  Bn1
 BYTE   W12
 BYTE   Cs2
 BYTE   W12
 BYTE   PEND 
//  #01 //004   ----------------------------------------
 BYTE   PATT
  POIN2 Label_F8B9A7
//  #01 //005   ----------------------------------------
 BYTE   PATT
  POIN2 Label_F8B9A7
//  #01 //006   ----------------------------------------
 BYTE   PATT
  POIN2 Label_F8B9B7
//  #01 //007   ----------------------------------------
Label_F8B9E6:
 BYTE   N06  An1  v100
 BYTE   N06  Fs2
 BYTE   W48
 BYTE   An1
 BYTE   N06  En2
 BYTE   W48
 BYTE   PEND 
//  #01 //008   ----------------------------------------
 BYTE   Fs2
 BYTE   W24
 BYTE   N06
 BYTE   W24
 BYTE   N06
 BYTE   W24
 BYTE   N06
 BYTE   W24
//  #01 //009   ----------------------------------------
 BYTE   Gs2
 BYTE   W24
 BYTE   As2
 BYTE   W24
 BYTE   Cs3
 BYTE   W24
 BYTE   Ds3
 BYTE   W24
//  #01 //010   ----------------------------------------
Label_F8BA01:
//  #01 //011   ----------------------------------------
 BYTE   PATT
  POIN2 Label_F8B9A7
//  #01 //012   ----------------------------------------
 BYTE   PATT
  POIN2 Label_F8B9A7
//  #01 //013   ----------------------------------------
 BYTE   PATT
  POIN2 Label_F8B9B7
//  #01 //014   ----------------------------------------
 BYTE   PATT
  POIN2 Label_F8B9C7
//  #01 //015   ----------------------------------------
 BYTE   PATT
  POIN2 Label_F8B9A7
//  #01 //016   ----------------------------------------
 BYTE   PATT
  POIN2 Label_F8B9A7
//  #01 //017   ----------------------------------------
 BYTE   PATT
  POIN2 Label_F8B9B7
//  #01 //018   ----------------------------------------
 BYTE   PATT
  POIN2 Label_F8B9E6
//  #01 //019   ----------------------------------------
 BYTE   W96
//  #01 //020   ----------------------------------------
 BYTE   W96
//  #01 //021   ----------------------------------------
 BYTE   W96
//  #01 //022   ----------------------------------------
 BYTE   W96
//  #01 //023   ----------------------------------------
 BYTE   W96
//  #01 //024   ----------------------------------------
 BYTE   W96
//  #01 //025   ----------------------------------------
 BYTE   W96
//  #01 //026   ----------------------------------------
 BYTE   W96
//  #01 //027   ----------------------------------------
 BYTE   W96
//  #01 //028   ----------------------------------------
 BYTE   W96
//  #01 //029   ----------------------------------------
 BYTE   W96
//  #01 //030   ----------------------------------------
 BYTE   W96
//  #01 //031   ----------------------------------------
 BYTE   W96
//  #01 //032   ----------------------------------------
 BYTE   W96
//  #01 //033   ----------------------------------------
 BYTE   W96
//  #01 //034   ----------------------------------------
 BYTE   W96
//  #01 //035   ----------------------------------------
 BYTE   W96
//  #01 //036   ----------------------------------------
 BYTE   W96
//  #01 //037   ----------------------------------------
 BYTE   W96
//  #01 //038   ----------------------------------------
 BYTE   W96
//  #01 //039   ----------------------------------------
 BYTE   W96
//  #01 //040   ----------------------------------------
 BYTE   W96
//  #01 //041   ----------------------------------------
 BYTE   W96
//  #01 //042   ----------------------------------------
 BYTE   W96
//  #01 //043   ----------------------------------------
 BYTE   W96
//  #01 //044   ----------------------------------------
 BYTE   W96
//  #01 //045   ----------------------------------------
 BYTE   W96
//  #01 //046   ----------------------------------------
 BYTE   W96
//  #01 //047   ----------------------------------------
 BYTE   W96
//  #01 //048   ----------------------------------------
 BYTE   W96
//  #01 //049   ----------------------------------------
 BYTE   W96
//  #01 //050   ----------------------------------------
 BYTE   W96
//  #01 //051   ----------------------------------------
 BYTE   W96
//  #01 //052   ----------------------------------------
 BYTE   W96
//  #01 //053   ----------------------------------------
 BYTE   W96
//  #01 //054   ----------------------------------------
 BYTE   W96
//  #01 //055   ----------------------------------------
 BYTE   W96
//  #01 //056   ----------------------------------------
 BYTE   W96
//  #01 //057   ----------------------------------------
 BYTE   W96
//  #01 //058   ----------------------------------------
 BYTE   W96
//  #01 //059   ----------------------------------------
 BYTE   W96
//  #01 //060   ----------------------------------------
 BYTE   W96
//  #01 //061   ----------------------------------------
 BYTE   W96
//  #01 //062   ----------------------------------------
 BYTE   W96
//  #01 //063   ----------------------------------------
 BYTE   W96
//  #01 //064   ----------------------------------------
 BYTE   W96
//  #01 //065   ----------------------------------------
 BYTE   W96
//  #01 //066   ----------------------------------------
 BYTE   W96
//  #01 //067   ----------------------------------------
 BYTE   W96
//  #01 //068   ----------------------------------------
 BYTE   W96
//  #01 //069   ----------------------------------------
 BYTE   W96
//  #01 //070   ----------------------------------------
 BYTE   W96
//  #01 //071   ----------------------------------------
 BYTE   W96
//  #01 //072   ----------------------------------------
 BYTE   W96
//  #01 //073   ----------------------------------------
 BYTE   W96
//  #01 //074   ----------------------------------------
 BYTE   W96
//  #01 //075   ----------------------------------------
 BYTE   W96
//  #01 //076   ----------------------------------------
 BYTE   W96
//  #01 //077   ----------------------------------------
 BYTE   W96
//  #01 //078   ----------------------------------------
 BYTE   W96
//  #01 //079   ----------------------------------------
 BYTE   W96
//  #01 //080   ----------------------------------------
 BYTE   W96
//  #01 //081   ----------------------------------------
 BYTE   W96
//  #01 //082   ----------------------------------------
 BYTE   W96
//  #01 //083   ----------------------------------------
 BYTE   W96
//  #01 //084   ----------------------------------------
 BYTE   GoTo
  POIN2 Label_F8BA01
//  #01 //085   ----------------------------------------
 BYTE   PAN   c_v+0
 BYTE   VOL   42*IntoTheMind_mvl/mxv
 BYTE   BEND   c_v+0
 BYTE   W32
 BYTE   TEMPO   170*IntoTheMind_tbs/2
 BYTE   PAN   c_v+0
 BYTE   VOL   42*IntoTheMind_mvl/mxv
 BYTE   BEND   c_v+0
 BYTE   W01
 BYTE   PAN   c_v+0
 BYTE   VOL   42*IntoTheMind_mvl/mxv
 BYTE   BEND   c_v+0
 BYTE   FINE

//**************** Track 2 (Midi-Chn.1) ****************//

IntoTheMind_002:
//  #02 //000   ----------------------------------------
 BYTE   KEYSH   IntoTheMind_key+0
 BYTE   VOICE   81
 BYTE   PAN   c_v+0
 BYTE   VOL   42*IntoTheMind_mvl/mxv
 BYTE   PAN   c_v+0
 BYTE   VOL   42*IntoTheMind_mvl/mxv
 BYTE   PAN   c_v+0
 BYTE   VOL   42*IntoTheMind_mvl/mxv
 BYTE   PAN   c_v+0
 BYTE   VOL   42*IntoTheMind_mvl/mxv
 BYTE   PAN   c_v+0
 BYTE   VOL   42*IntoTheMind_mvl/mxv
 BYTE   PAN   c_v+0
 BYTE   VOL   42*IntoTheMind_mvl/mxv
 BYTE   BEND   c_v+0
 BYTE   W96
//  #02 //001   ----------------------------------------
 BYTE   W96
//  #02 //002   ----------------------------------------
 BYTE   W96
//  #02 //003   ----------------------------------------
 BYTE   W96
//  #02 //004   ----------------------------------------
 BYTE   W96
//  #02 //005   ----------------------------------------
 BYTE   W96
//  #02 //006   ----------------------------------------
 BYTE   W96
//  #02 //007   ----------------------------------------
 BYTE   W96
//  #02 //008   ----------------------------------------
 BYTE   W96
//  #02 //009   ----------------------------------------
 BYTE   N06  Gs2  v032
 BYTE   W24
 BYTE   As2  v056
 BYTE   W24
 BYTE   Cs3  v084
 BYTE   W24
 BYTE   Ds3  v100
 BYTE   W24
//  #02 //010   ----------------------------------------
Label_01004D2C:
 BYTE   N12  Fs2  v100
 BYTE   N12  An2
 BYTE   W36
 BYTE   Fs2
 BYTE   N12  An2
 BYTE   W36
 BYTE   Fs2
 BYTE   W12
 BYTE   Gs2
 BYTE   W12
 BYTE   PEND 
//  #02 //011   ----------------------------------------
 BYTE   PATT
  POIN2 Label_01004D2C
//  #02 //012   ----------------------------------------
Label_01004D40:
 BYTE   N12  An1  v100
 BYTE   N12  En2
 BYTE   W36
 BYTE   An1
 BYTE   N12  Fs2
 BYTE   W36
 BYTE   En2
 BYTE   W12
 BYTE   Fs2
 BYTE   W12
 BYTE   PEND 
//  #02 //013   ----------------------------------------
Label_01004D4F:
 BYTE   N12  An1  v100
 BYTE   N12  Fs2
 BYTE   W36
 BYTE   An1
 BYTE   N12  En2
 BYTE   W36
 BYTE   Bn1
 BYTE   W12
 BYTE   Cs2
 BYTE   W12
 BYTE   PEND 
//  #02 //014   ----------------------------------------
 BYTE   PATT
  POIN2 Label_01004D2C
//  #02 //015   ----------------------------------------
 BYTE   PATT
  POIN2 Label_01004D2C
//  #02 //016   ----------------------------------------
 BYTE   PATT
  POIN2 Label_01004D40
//  #02 //017   ----------------------------------------
 BYTE   N12  An1  v100
 BYTE   N12  Fs2
 BYTE   W48
 BYTE   An1
 BYTE   N12  En2
 BYTE   W48
//  #02 //018   ----------------------------------------
 BYTE   PATT
  POIN2 Label_01004D2C
//  #02 //019   ----------------------------------------
 BYTE   PATT
  POIN2 Label_01004D2C
//  #02 //020   ----------------------------------------
 BYTE   PATT
  POIN2 Label_01004D40
//  #02 //021   ----------------------------------------
 BYTE   PATT
  POIN2 Label_01004D4F
//  #02 //022   ----------------------------------------
Label_01004D8B:
 BYTE   N12  Fs2  v100
 BYTE   N12  An2
 BYTE   W36
 BYTE   Fs2
 BYTE   N12  An2
 BYTE   W36
 BYTE   An0
 BYTE   W12
 BYTE   Bn0
 BYTE   W12
 BYTE   PEND 
//  #02 //023   ----------------------------------------
Label_01004D9A:
 BYTE   N12  Cs1  v100
 BYTE   W12
 BYTE   Bn0
 BYTE   W12
 BYTE   Cs1
 BYTE   W12
 BYTE   N36  En1
 BYTE   W36
 BYTE   N24  Fs1
 BYTE   W24
 BYTE   PEND 
//  #02 //024   ----------------------------------------
Label_01004DA9:
 BYTE   N60  Cs1  v100
 BYTE   W60
 BYTE   N12
 BYTE   W12
 BYTE   En1
 BYTE   W12
 BYTE   Fs1
 BYTE   W12
 BYTE   PEND 
//  #02 //025   ----------------------------------------
Label_01004DB4:
 BYTE   N36  Gs1  v100
 BYTE   W36
 BYTE   N60  En1
 BYTE   W60
 BYTE   PEND 
//  #02 //026   ----------------------------------------
 BYTE   PATT
  POIN2 Label_01004D2C
//  #02 //027   ----------------------------------------
 BYTE   PATT
  POIN2 Label_01004D2C
//  #02 //028   ----------------------------------------
 BYTE   PATT
  POIN2 Label_01004D40
//  #02 //029   ----------------------------------------
 BYTE   PATT
  POIN2 Label_01004D4F
//  #02 //030   ----------------------------------------
 BYTE   PATT
  POIN2 Label_01004D8B
//  #02 //031   ----------------------------------------
 BYTE   PATT
  POIN2 Label_01004D9A
//  #02 //032   ----------------------------------------
 BYTE   PATT
  POIN2 Label_01004DA9
//  #02 //033   ----------------------------------------
 BYTE   PATT
  POIN2 Label_01004DB4
//  #02 //034   ----------------------------------------
 BYTE   PATT
  POIN2 Label_01004D2C
//  #02 //035   ----------------------------------------
 BYTE   PATT
  POIN2 Label_01004D2C
//  #02 //036   ----------------------------------------
 BYTE   PATT
  POIN2 Label_01004D40
//  #02 //037   ----------------------------------------
 BYTE   PATT
  POIN2 Label_01004D4F
//  #02 //038   ----------------------------------------
 BYTE   PATT
  POIN2 Label_01004D8B
//  #02 //039   ----------------------------------------
 BYTE   PATT
  POIN2 Label_01004D9A
//  #02 //040   ----------------------------------------
 BYTE   PATT
  POIN2 Label_01004DA9
//  #02 //041   ----------------------------------------
 BYTE   PATT
  POIN2 Label_01004DB4
//  #02 //042   ----------------------------------------
 BYTE   PATT
  POIN2 Label_01004D2C
//  #02 //043   ----------------------------------------
 BYTE   PATT
  POIN2 Label_01004D2C
//  #02 //044   ----------------------------------------
 BYTE   PATT
  POIN2 Label_01004D40
//  #02 //045   ----------------------------------------
 BYTE   PATT
  POIN2 Label_01004D4F
//  #02 //046   ----------------------------------------
 BYTE   PATT
  POIN2 Label_01004D8B
//  #02 //047   ----------------------------------------
 BYTE   PATT
  POIN2 Label_01004D9A
//  #02 //048   ----------------------------------------
 BYTE   PATT
  POIN2 Label_01004DA9
//  #02 //049   ----------------------------------------
 BYTE   PATT
  POIN2 Label_01004DB4
//  #02 //050   ----------------------------------------
 BYTE   N96  An1  v100
 BYTE   N96  An2
 BYTE   W96
//  #02 //051   ----------------------------------------
 BYTE   An1
 BYTE   N96  An2
 BYTE   W96
//  #02 //052   ----------------------------------------
 BYTE   Bn1
 BYTE   N96  Bn2
 BYTE   W96
//  #02 //053   ----------------------------------------
 BYTE   Bn1
 BYTE   N96  Bn2
 BYTE   W96
//  #02 //054   ----------------------------------------
Label_01004E46:
 BYTE   W24
 BYTE   N06  Bn2  v100
 BYTE   W12
 BYTE   An2
 BYTE   W12
 BYTE   Bn2
 BYTE   W12
 BYTE   N06
 BYTE   W12
 BYTE   An2
 BYTE   W12
 BYTE   Bn2
 BYTE   W12
 BYTE   PEND 
//  #02 //055   ----------------------------------------
Label_01004E56:
 BYTE   W12
 BYTE   N06  Bn2  v100
 BYTE   W24
 BYTE   An2
 BYTE   W12
 BYTE   Bn2
 BYTE   W12
 BYTE   Cs3
 BYTE   W36
 BYTE   PEND 
//  #02 //056   ----------------------------------------
 BYTE   PATT
  POIN2 Label_01004E46
//  #02 //057   ----------------------------------------
Label_01004E67:
 BYTE   W12
 BYTE   N06  Bn2  v100
 BYTE   W24
 BYTE   An2
 BYTE   W12
 BYTE   En3
 BYTE   W12
 BYTE   Bn2
 BYTE   W12
 BYTE   N24  Cs3
 BYTE   W24
 BYTE   PEND 
//  #02 //058   ----------------------------------------
 BYTE   N96  An1
 BYTE   N96  An2
 BYTE   W96
//  #02 //059   ----------------------------------------
 BYTE   An1
 BYTE   N96  An2
 BYTE   W96
//  #02 //060   ----------------------------------------
 BYTE   Bn1
 BYTE   N96  Bn2
 BYTE   W96
//  #02 //061   ----------------------------------------
 BYTE   Bn1
 BYTE   N96  Bn2
 BYTE   W96
//  #02 //062   ----------------------------------------
 BYTE   PATT
  POIN2 Label_01004E46
//  #02 //063   ----------------------------------------
 BYTE   PATT
  POIN2 Label_01004E56
//  #02 //064   ----------------------------------------
 BYTE   PATT
  POIN2 Label_01004E46
//  #02 //065   ----------------------------------------
 BYTE   PATT
  POIN2 Label_01004E67
//  #02 //066   ----------------------------------------
 BYTE   W96
//  #02 //067   ----------------------------------------
 BYTE   W96
//  #02 //068   ----------------------------------------
 BYTE   W96
//  #02 //069   ----------------------------------------
 BYTE   W96
//  #02 //070   ----------------------------------------
 BYTE   W96
//  #02 //071   ----------------------------------------
 BYTE   W96
//  #02 //072   ----------------------------------------
 BYTE   W96
//  #02 //073   ----------------------------------------
 BYTE   W60
 BYTE   N12  Cs3  v100
 BYTE   W12
 BYTE   N06  An2
 BYTE   W06
 BYTE   Fs2
 BYTE   W06
 BYTE   En2
 BYTE   W12
//  #02 //074   ----------------------------------------
Label_01004EAE:
 BYTE   N36  An2  v100
 BYTE   W36
 BYTE   N12  Gs2
 BYTE   W12
 BYTE   N36  Ds2
 BYTE   W36
 BYTE   N12  Cs2
 BYTE   W12
 BYTE   PEND 
//  #02 //075   ----------------------------------------
Label_01004EBC:
 BYTE   N12  En2  v100
 BYTE   W12
 BYTE   Fs2
 BYTE   W12
 BYTE   N72
 BYTE   W72
 BYTE   PEND 
//  #02 //076   ----------------------------------------
 BYTE   PATT
  POIN2 Label_01004EAE
//  #02 //077   ----------------------------------------
Label_01004ECA:
 BYTE   N12  Cs3  v100
 BYTE   W12
 BYTE   Bn2
 BYTE   W12
 BYTE   N72
 BYTE   W72
 BYTE   PEND 
//  #02 //078   ----------------------------------------
 BYTE   PATT
  POIN2 Label_01004EAE
//  #02 //079   ----------------------------------------
 BYTE   PATT
  POIN2 Label_01004EBC
//  #02 //080   ----------------------------------------
 BYTE   PATT
  POIN2 Label_01004EAE
//  #02 //081   ----------------------------------------
 BYTE   PATT
  POIN2 Label_01004ECA
//  #02 //082   ----------------------------------------
 BYTE   W96
//  #02 //083   ----------------------------------------
 BYTE   GoTo
  POIN2 Label_01004D2C
//  #02 //084   ----------------------------------------
 BYTE   VOICE   81
 BYTE   PAN   c_v+0
 BYTE   VOL   42*IntoTheMind_mvl/mxv
 BYTE   BEND   c_v+0
 BYTE   W32
 BYTE   VOICE   81
 BYTE   PAN   c_v+0
 BYTE   VOL   42*IntoTheMind_mvl/mxv
 BYTE   BEND   c_v+0
 BYTE   W01
 BYTE   VOICE   81
 BYTE   PAN   c_v+0
 BYTE   VOL   42*IntoTheMind_mvl/mxv
 BYTE   BEND   c_v+0
 BYTE   FINE

//**************** Track 3 (Midi-Chn.2) ****************//

IntoTheMind_003:
//  #03 //000   ----------------------------------------
 BYTE   KEYSH   IntoTheMind_key+0
 BYTE   VOICE   40
 BYTE   PAN   c_v+0
 BYTE   VOL   42*IntoTheMind_mvl/mxv
 BYTE   PAN   c_v+0
 BYTE   VOL   42*IntoTheMind_mvl/mxv
 BYTE   PAN   c_v+0
 BYTE   VOL   42*IntoTheMind_mvl/mxv
 BYTE   PAN   c_v+0
 BYTE   VOL   42*IntoTheMind_mvl/mxv
 BYTE   PAN   c_v+0
 BYTE   VOL   42*IntoTheMind_mvl/mxv
 BYTE   PAN   c_v+0
 BYTE   VOL   42*IntoTheMind_mvl/mxv
 BYTE   BEND   c_v+0
 BYTE   W96
//  #03 //001   ----------------------------------------
 BYTE   W96
//  #03 //002   ----------------------------------------
 BYTE   W96
//  #03 //003   ----------------------------------------
 BYTE   W96
//  #03 //004   ----------------------------------------
 BYTE   W96
//  #03 //005   ----------------------------------------
 BYTE   W96
//  #03 //006   ----------------------------------------
 BYTE   W96
//  #03 //007   ----------------------------------------
 BYTE   W96
//  #03 //008   ----------------------------------------
 BYTE   W96
//  #03 //009   ----------------------------------------
 BYTE   W96
//  #03 //010   ----------------------------------------
Label_01004F40:
 BYTE   N12  Fs2  v100
 BYTE   N12  An2
 BYTE   W36
 BYTE   Fs2
 BYTE   N12  An2
 BYTE   W36
 BYTE   Fs2
 BYTE   W12
 BYTE   Gs2
 BYTE   W12
 BYTE   PEND 
//  #03 //011   ----------------------------------------
 BYTE   PATT
  POIN2 Label_01004F40
//  #03 //012   ----------------------------------------
Label_01004F54:
 BYTE   N12  An1  v100
 BYTE   N12  En2
 BYTE   W36
 BYTE   An1
 BYTE   N12  Fs2
 BYTE   W36
 BYTE   En2
 BYTE   W12
 BYTE   Fs2
 BYTE   W12
 BYTE   PEND 
//  #03 //013   ----------------------------------------
Label_01004F63:
 BYTE   N12  An1  v100
 BYTE   N12  Fs2
 BYTE   W36
 BYTE   An1
 BYTE   N12  En2
 BYTE   W36
 BYTE   Bn1
 BYTE   W12
 BYTE   Cs2
 BYTE   W12
 BYTE   PEND 
//  #03 //014   ----------------------------------------
 BYTE   PATT
  POIN2 Label_01004F40
//  #03 //015   ----------------------------------------
 BYTE   PATT
  POIN2 Label_01004F40
//  #03 //016   ----------------------------------------
 BYTE   PATT
  POIN2 Label_01004F54
//  #03 //017   ----------------------------------------
 BYTE   N12  An1  v100
 BYTE   N12  Fs2
 BYTE   W48
 BYTE   An1
 BYTE   N12  En2
 BYTE   W48
//  #03 //018   ----------------------------------------
 BYTE   PATT
  POIN2 Label_01004F40
//  #03 //019   ----------------------------------------
 BYTE   PATT
  POIN2 Label_01004F40
//  #03 //020   ----------------------------------------
 BYTE   PATT
  POIN2 Label_01004F54
//  #03 //021   ----------------------------------------
 BYTE   PATT
  POIN2 Label_01004F63
//  #03 //022   ----------------------------------------
Label_01004F9F:
 BYTE   N12  Fs2  v100
 BYTE   N12  An2
 BYTE   W36
 BYTE   Fs2
 BYTE   N12  An2
 BYTE   W36
 BYTE   N12
 BYTE   W12
 BYTE   Bn2
 BYTE   W12
 BYTE   PEND 
//  #03 //023   ----------------------------------------
Label_01004FAE:
 BYTE   N12  Cs3  v100
 BYTE   W12
 BYTE   Bn2
 BYTE   W12
 BYTE   Cs3
 BYTE   W12
 BYTE   N36  En3
 BYTE   W36
 BYTE   N24  Fs3
 BYTE   W24
 BYTE   PEND 
//  #03 //024   ----------------------------------------
Label_01004FBD:
 BYTE   N60  Cs3  v100
 BYTE   W60
 BYTE   N12
 BYTE   W12
 BYTE   En3
 BYTE   W12
 BYTE   Fs3
 BYTE   W12
 BYTE   PEND 
//  #03 //025   ----------------------------------------
Label_01004FC8:
 BYTE   N36  Gs3  v100
 BYTE   W36
 BYTE   N60  En3
 BYTE   W60
 BYTE   PEND 
//  #03 //026   ----------------------------------------
 BYTE   PATT
  POIN2 Label_01004F40
//  #03 //027   ----------------------------------------
 BYTE   PATT
  POIN2 Label_01004F40
//  #03 //028   ----------------------------------------
 BYTE   PATT
  POIN2 Label_01004F54
//  #03 //029   ----------------------------------------
 BYTE   PATT
  POIN2 Label_01004F63
//  #03 //030   ----------------------------------------
 BYTE   PATT
  POIN2 Label_01004F9F
//  #03 //031   ----------------------------------------
 BYTE   PATT
  POIN2 Label_01004FAE
//  #03 //032   ----------------------------------------
 BYTE   PATT
  POIN2 Label_01004FBD
//  #03 //033   ----------------------------------------
 BYTE   PATT
  POIN2 Label_01004FC8
//  #03 //034   ----------------------------------------
 BYTE   PATT
  POIN2 Label_01004F40
//  #03 //035   ----------------------------------------
 BYTE   PATT
  POIN2 Label_01004F40
//  #03 //036   ----------------------------------------
 BYTE   PATT
  POIN2 Label_01004F54
//  #03 //037   ----------------------------------------
 BYTE   PATT
  POIN2 Label_01004F63
//  #03 //038   ----------------------------------------
 BYTE   PATT
  POIN2 Label_01004F9F
//  #03 //039   ----------------------------------------
 BYTE   PATT
  POIN2 Label_01004FAE
//  #03 //040   ----------------------------------------
 BYTE   PATT
  POIN2 Label_01004FBD
//  #03 //041   ----------------------------------------
 BYTE   PATT
  POIN2 Label_01004FC8
//  #03 //042   ----------------------------------------
 BYTE   PATT
  POIN2 Label_01004F40
//  #03 //043   ----------------------------------------
 BYTE   PATT
  POIN2 Label_01004F40
//  #03 //044   ----------------------------------------
 BYTE   PATT
  POIN2 Label_01004F54
//  #03 //045   ----------------------------------------
 BYTE   PATT
  POIN2 Label_01004F63
//  #03 //046   ----------------------------------------
 BYTE   PATT
  POIN2 Label_01004F9F
//  #03 //047   ----------------------------------------
 BYTE   PATT
  POIN2 Label_01004FAE
//  #03 //048   ----------------------------------------
 BYTE   PATT
  POIN2 Label_01004FBD
//  #03 //049   ----------------------------------------
 BYTE   PATT
  POIN2 Label_01004FC8
//  #03 //050   ----------------------------------------
 BYTE   N96  An2  v100
 BYTE   N96  An3
 BYTE   W96
//  #03 //051   ----------------------------------------
 BYTE   An2
 BYTE   N96  An3
 BYTE   W96
//  #03 //052   ----------------------------------------
 BYTE   Bn2
 BYTE   N96  Bn3
 BYTE   W96
//  #03 //053   ----------------------------------------
 BYTE   Bn2
 BYTE   N96  Bn3
 BYTE   W96
//  #03 //054   ----------------------------------------
Label_0100505A:
 BYTE   W24
 BYTE   N06  Bn3  v100
 BYTE   W12
 BYTE   An3
 BYTE   W12
 BYTE   Bn3
 BYTE   W12
 BYTE   N06
 BYTE   W12
 BYTE   An3
 BYTE   W12
 BYTE   Bn3
 BYTE   W12
 BYTE   PEND 
//  #03 //055   ----------------------------------------
Label_0100506A:
 BYTE   W12
 BYTE   N06  Bn3  v100
 BYTE   W24
 BYTE   An3
 BYTE   W12
 BYTE   Bn3
 BYTE   W12
 BYTE   Cs4
 BYTE   W36
 BYTE   PEND 
//  #03 //056   ----------------------------------------
 BYTE   PATT
  POIN2 Label_0100505A
//  #03 //057   ----------------------------------------
Label_0100507B:
 BYTE   W12
 BYTE   N06  Bn3  v100
 BYTE   W24
 BYTE   An3
 BYTE   W12
 BYTE   En4
 BYTE   W12
 BYTE   Bn3
 BYTE   W12
 BYTE   N24  Cs4
 BYTE   W24
 BYTE   PEND 
//  #03 //058   ----------------------------------------
 BYTE   N96  An2
 BYTE   N96  An3
 BYTE   W96
//  #03 //059   ----------------------------------------
 BYTE   An2
 BYTE   N96  An3
 BYTE   W96
//  #03 //060   ----------------------------------------
 BYTE   Bn2
 BYTE   N96  Bn3
 BYTE   W96
//  #03 //061   ----------------------------------------
 BYTE   Bn2
 BYTE   N96  Bn3
 BYTE   W96
//  #03 //062   ----------------------------------------
 BYTE   PATT
  POIN2 Label_0100505A
//  #03 //063   ----------------------------------------
 BYTE   PATT
  POIN2 Label_0100506A
//  #03 //064   ----------------------------------------
 BYTE   PATT
  POIN2 Label_0100505A
//  #03 //065   ----------------------------------------
 BYTE   PATT
  POIN2 Label_0100507B
//  #03 //066   ----------------------------------------
 BYTE   W96
//  #03 //067   ----------------------------------------
 BYTE   W96
//  #03 //068   ----------------------------------------
 BYTE   W96
//  #03 //069   ----------------------------------------
 BYTE   W96
//  #03 //070   ----------------------------------------
 BYTE   W96
//  #03 //071   ----------------------------------------
 BYTE   W96
//  #03 //072   ----------------------------------------
 BYTE   W96
//  #03 //073   ----------------------------------------
 BYTE   W60
 BYTE   N12  Cs4  v100
 BYTE   W12
 BYTE   N06  An3
 BYTE   W06
 BYTE   Fs3
 BYTE   W06
 BYTE   En3
 BYTE   W12
//  #03 //074   ----------------------------------------
Label_010050C2:
 BYTE   N36  An3  v100
 BYTE   W36
 BYTE   N12  Gs3
 BYTE   W12
 BYTE   N36  Ds3
 BYTE   W36
 BYTE   N12  Cs3
 BYTE   W12
 BYTE   PEND 
//  #03 //075   ----------------------------------------
Label_010050D0:
 BYTE   N12  En3  v100
 BYTE   W12
 BYTE   Fs3
 BYTE   W12
 BYTE   N72
 BYTE   W72
 BYTE   PEND 
//  #03 //076   ----------------------------------------
 BYTE   PATT
  POIN2 Label_010050C2
//  #03 //077   ----------------------------------------
Label_010050DE:
 BYTE   N12  Cs4  v100
 BYTE   W12
 BYTE   Bn3
 BYTE   W12
 BYTE   N72
 BYTE   W72
 BYTE   PEND 
//  #03 //078   ----------------------------------------
 BYTE   PATT
  POIN2 Label_010050C2
//  #03 //079   ----------------------------------------
 BYTE   PATT
  POIN2 Label_010050D0
//  #03 //080   ----------------------------------------
 BYTE   PATT
  POIN2 Label_010050C2
//  #03 //081   ----------------------------------------
 BYTE   PATT
  POIN2 Label_010050DE
//  #03 //082   ----------------------------------------
 BYTE   W96
//  #03 //083   ----------------------------------------
 BYTE   GoTo
  POIN2 Label_01004F40
//  #03 //084   ----------------------------------------
 BYTE   PAN   c_v+0
 BYTE   VOL   42*IntoTheMind_mvl/mxv
 BYTE   BEND   c_v+0
 BYTE   W32
 BYTE   PAN   c_v+0
 BYTE   VOL   42*IntoTheMind_mvl/mxv
 BYTE   BEND   c_v+0
 BYTE   W01
 BYTE   PAN   c_v+0
 BYTE   VOL   42*IntoTheMind_mvl/mxv
 BYTE   BEND   c_v+0
 BYTE   FINE

//**************** Track 4 (Midi-Chn.3) ****************//

IntoTheMind_004:
//  #04 //000   ----------------------------------------
 BYTE   KEYSH   IntoTheMind_key+0
 BYTE   VOICE   80
 BYTE   PAN   c_v+0
 BYTE   VOL   42*IntoTheMind_mvl/mxv
 BYTE   PAN   c_v+0
 BYTE   VOL   42*IntoTheMind_mvl/mxv
 BYTE   PAN   c_v+0
 BYTE   VOL   42*IntoTheMind_mvl/mxv
 BYTE   PAN   c_v+0
 BYTE   VOL   42*IntoTheMind_mvl/mxv
 BYTE   PAN   c_v+0
 BYTE   VOL   42*IntoTheMind_mvl/mxv
 BYTE   PAN   c_v+0
 BYTE   VOL   42*IntoTheMind_mvl/mxv
 BYTE   BEND   c_v+0
 BYTE   W96
//  #04 //001   ----------------------------------------
 BYTE   W96
//  #04 //002   ----------------------------------------
 BYTE   W96
//  #04 //003   ----------------------------------------
 BYTE   W96
//  #04 //004   ----------------------------------------
 BYTE   W96
//  #04 //005   ----------------------------------------
 BYTE   W96
//  #04 //006   ----------------------------------------
 BYTE   W96
//  #04 //007   ----------------------------------------
 BYTE   W96
//  #04 //008   ----------------------------------------
 BYTE   W96
//  #04 //009   ----------------------------------------
 BYTE   W96
//  #04 //010   ----------------------------------------
Label_01005150:
 BYTE   W96
//  #04 //011   ----------------------------------------
 BYTE   W96
//  #04 //012   ----------------------------------------
 BYTE   W96
//  #04 //013   ----------------------------------------
 BYTE   W96
//  #04 //014   ----------------------------------------
 BYTE   W96
//  #04 //015   ----------------------------------------
 BYTE   W96
//  #04 //016   ----------------------------------------
 BYTE   W96
//  #04 //017   ----------------------------------------
 BYTE   W96
//  #04 //018   ----------------------------------------
Label_01005158:
 BYTE   N36  An3  v100
 BYTE   W36
 BYTE   Cs4
 BYTE   W36
 BYTE   N24  En4
 BYTE   W24
 BYTE   PEND 
//  #04 //019   ----------------------------------------
Label_01005162:
 BYTE   N72  Gs4  v100
 BYTE   W72
 BYTE   N12  En4
 BYTE   W12
 BYTE   N72  Cs4
 BYTE   W12
 BYTE   PEND 
//  #04 //020   ----------------------------------------
Label_0100516D:
 BYTE   W60
 BYTE   N12  Cs4  v100
 BYTE   W12
 BYTE   Bn3
 BYTE   W12
 BYTE   N24  An3
 BYTE   W12
 BYTE   PEND 
//  #04 //021   ----------------------------------------
Label_01005178:
 BYTE   W12
 BYTE   N12  Gs3  v100
 BYTE   W12
 BYTE   Bn3
 BYTE   W12
 BYTE   N36  En4
 BYTE   W36
 BYTE   N24  Dn4
 BYTE   W24
 BYTE   PEND 
//  #04 //022   ----------------------------------------
 BYTE   N96  Cs4
 BYTE   W96
//  #04 //023   ----------------------------------------
 BYTE   Ds4  v040
 BYTE   W96
//  #04 //024   ----------------------------------------
 BYTE   En4
 BYTE   W96
//  #04 //025   ----------------------------------------
 BYTE   Fs4  v044
 BYTE   W96
//  #04 //026   ----------------------------------------
 BYTE   PATT
  POIN2 Label_01005158
//  #04 //027   ----------------------------------------
Label_01005196:
 BYTE   N72  Gs4  v100
 BYTE   W72
 BYTE   N12  En4
 BYTE   W12
 BYTE   N72  An4
 BYTE   W12
 BYTE   PEND 
//  #04 //028   ----------------------------------------
 BYTE   PATT
  POIN2 Label_0100516D
//  #04 //029   ----------------------------------------
 BYTE   PATT
  POIN2 Label_01005178
//  #04 //030   ----------------------------------------
 BYTE   N96  Cs4  v100
 BYTE   W96
//  #04 //031   ----------------------------------------
 BYTE   Ds4  v040
 BYTE   W96
//  #04 //032   ----------------------------------------
 BYTE   En4
 BYTE   W96
//  #04 //033   ----------------------------------------
 BYTE   Fs4  v044
 BYTE   W96
//  #04 //034   ----------------------------------------
 BYTE   PATT
  POIN2 Label_01005158
//  #04 //035   ----------------------------------------
 BYTE   PATT
  POIN2 Label_01005162
//  #04 //036   ----------------------------------------
 BYTE   PATT
  POIN2 Label_0100516D
//  #04 //037   ----------------------------------------
 BYTE   PATT
  POIN2 Label_01005178
//  #04 //038   ----------------------------------------
 BYTE   N96  Cs4  v100
 BYTE   W96
//  #04 //039   ----------------------------------------
 BYTE   Ds4  v040
 BYTE   W96
//  #04 //040   ----------------------------------------
 BYTE   En4
 BYTE   W96
//  #04 //041   ----------------------------------------
 BYTE   Fs4  v044
 BYTE   W96
//  #04 //042   ----------------------------------------
 BYTE   PATT
  POIN2 Label_01005158
//  #04 //043   ----------------------------------------
 BYTE   PATT
  POIN2 Label_01005196
//  #04 //044   ----------------------------------------
 BYTE   PATT
  POIN2 Label_0100516D
//  #04 //045   ----------------------------------------
 BYTE   PATT
  POIN2 Label_01005178
//  #04 //046   ----------------------------------------
 BYTE   N96  Cs4  v100
 BYTE   W96
//  #04 //047   ----------------------------------------
 BYTE   Ds4  v040
 BYTE   W96
//  #04 //048   ----------------------------------------
 BYTE   En4
 BYTE   W96
//  #04 //049   ----------------------------------------
 BYTE   Fs4  v044
 BYTE   W96
//  #04 //050   ----------------------------------------
Label_010051F7:
 BYTE   N36  An3  v100
 BYTE   W36
 BYTE   Cs4
 BYTE   W36
 BYTE   N12  Fs4
 BYTE   W24
 BYTE   PEND 
//  #04 //051   ----------------------------------------
Label_01005201:
 BYTE   N72  En4  v100
 BYTE   W72
 BYTE   N12  An3
 BYTE   W12
 BYTE   N84  Bn3
 BYTE   W12
 BYTE   PEND 
//  #04 //052   ----------------------------------------
 BYTE   W72
 BYTE   N24  An3
 BYTE   W24
//  #04 //053   ----------------------------------------
Label_01005210:
 BYTE   N36  En4  v100
 BYTE   W36
 BYTE   An3
 BYTE   W36
 BYTE   N24  Cs4
 BYTE   W24
 BYTE   PEND 
//  #04 //054   ----------------------------------------
 BYTE   N96  Bn3
 BYTE   W96
//  #04 //055   ----------------------------------------
 BYTE   TIE  Bn3  v008
 BYTE   W96
//  #04 //056   ----------------------------------------
 BYTE   W96
//  #04 //057   ----------------------------------------
 BYTE   W96
//  #04 //058   ----------------------------------------
 BYTE   EOT
//  #04 //059   ----------------------------------------
 BYTE   PATT
  POIN2 Label_010051F7
//  #04 //060   ----------------------------------------
 BYTE   PATT
  POIN2 Label_01005201
//  #04 //061   ----------------------------------------
 BYTE   W72
 BYTE   N24  An3  v100
 BYTE   W24
//  #04 //062   ----------------------------------------
 BYTE   PATT
  POIN2 Label_01005210
//  #04 //063   ----------------------------------------
 BYTE   N96  Bn3  v100
 BYTE   W96
//  #04 //064   ----------------------------------------
 BYTE   TIE  Bn3  v008
 BYTE   W96
//  #04 //065   ----------------------------------------
 BYTE   W96
//  #04 //066   ----------------------------------------
 BYTE   W96
//  #04 //067   ----------------------------------------
 BYTE   EOT
 BYTE   W96
//  #04 //068   ----------------------------------------
 BYTE   W96
//  #04 //069   ----------------------------------------
 BYTE   W96
//  #04 //070   ----------------------------------------
 BYTE   W96
//  #04 //071   ----------------------------------------
 BYTE   W96
//  #04 //072   ----------------------------------------
 BYTE   W96
//  #04 //073   ----------------------------------------
 BYTE   N12  Gs4  v020
 BYTE   W12
 BYTE   Gs4  v036
 BYTE   W12
 BYTE   Gs4  v044
 BYTE   W12
 BYTE   Gs4  v052
 BYTE   W12
 BYTE   Gs4  v056
 BYTE   W12
 BYTE   Gs4  v060
 BYTE   W12
 BYTE   Gs4  v068
 BYTE   W12
 BYTE   Gs4  v084
 BYTE   W12
//  #04 //074   ----------------------------------------
 BYTE   Gs4  v096
 BYTE   W24
 BYTE   N12
 BYTE   W24
 BYTE   N12
 BYTE   W24
 BYTE   N12
 BYTE   W24
//  #04 //075   ----------------------------------------
 BYTE   W96
//  #04 //076   ----------------------------------------
 BYTE   W96
//  #04 //077   ----------------------------------------
 BYTE   W96
//  #04 //078   ----------------------------------------
 BYTE   W96
//  #04 //079   ----------------------------------------
 BYTE   W96
//  #04 //080   ----------------------------------------
 BYTE   W96
//  #04 //081   ----------------------------------------
 BYTE   W96
//  #04 //082   ----------------------------------------
 BYTE   W96
//  #04 //083   ----------------------------------------
 BYTE   W96
//  #04 //084   ----------------------------------------
 BYTE   GoTo
  POIN2 Label_01005150
//  #04 //085   ----------------------------------------
 BYTE   VOICE   80
 BYTE   PAN   c_v+0
 BYTE   VOL   42*IntoTheMind_mvl/mxv
 BYTE   BEND   c_v+0
 BYTE   W32
 BYTE   VOICE   80
 BYTE   PAN   c_v+0
 BYTE   VOL   42*IntoTheMind_mvl/mxv
 BYTE   BEND   c_v+0
 BYTE   W01
 BYTE   VOICE   80
 BYTE   PAN   c_v+0
 BYTE   VOL   42*IntoTheMind_mvl/mxv
 BYTE   BEND   c_v+0
 BYTE   FINE

//**************** Track 5 (Midi-Chn.4) ****************//

IntoTheMind_005:
//  #05 //000   ----------------------------------------
 BYTE   KEYSH   IntoTheMind_key+0
 BYTE   VOICE   57
 BYTE   PAN   c_v+0
 BYTE   VOL   42*IntoTheMind_mvl/mxv
 BYTE   PAN   c_v+0
 BYTE   VOL   42*IntoTheMind_mvl/mxv
 BYTE   PAN   c_v+0
 BYTE   VOL   42*IntoTheMind_mvl/mxv
 BYTE   PAN   c_v+0
 BYTE   VOL   42*IntoTheMind_mvl/mxv
 BYTE   PAN   c_v+0
 BYTE   VOL   42*IntoTheMind_mvl/mxv
 BYTE   PAN   c_v+0
 BYTE   VOL   42*IntoTheMind_mvl/mxv
 BYTE   BEND   c_v+0
 BYTE   W96
//  #05 //001   ----------------------------------------
 BYTE   W96
//  #05 //002   ----------------------------------------
 BYTE   W96
//  #05 //003   ----------------------------------------
 BYTE   W96
//  #05 //004   ----------------------------------------
 BYTE   W96
//  #05 //005   ----------------------------------------
 BYTE   W96
//  #05 //006   ----------------------------------------
 BYTE   W96
//  #05 //007   ----------------------------------------
 BYTE   W96
//  #05 //008   ----------------------------------------
 BYTE   W96
//  #05 //009   ----------------------------------------
 BYTE   W96
//  #05 //010   ----------------------------------------
Label_010052CC:
 BYTE   N06  Cs3  v084
 BYTE   W12
 BYTE   Fs3
 BYTE   W12
 BYTE   An3
 BYTE   W12
 BYTE   Cs3
 BYTE   W12
 BYTE   Fs3
 BYTE   W12
 BYTE   An3
 BYTE   W12
 BYTE   Cs3
 BYTE   W12
 BYTE   An3
 BYTE   W12
 BYTE   PEND 
//  #05 //011   ----------------------------------------
Label_010052DF:
 BYTE   N06  Cs3  v084
 BYTE   W12
 BYTE   En3
 BYTE   W12
 BYTE   Fs3
 BYTE   W12
 BYTE   Cs3
 BYTE   W12
 BYTE   En3
 BYTE   W12
 BYTE   Fs3
 BYTE   W12
 BYTE   Cs3
 BYTE   W12
 BYTE   Fs3
 BYTE   W12
 BYTE   PEND 
//  #05 //012   ----------------------------------------
Label_010052F2:
 BYTE   N06  Bn2  v084
 BYTE   W12
 BYTE   Cs3
 BYTE   W12
 BYTE   En3
 BYTE   W12
 BYTE   Bn2
 BYTE   W12
 BYTE   Cs3
 BYTE   W12
 BYTE   En3
 BYTE   W12
 BYTE   Bn2
 BYTE   W12
 BYTE   En3
 BYTE   W12
 BYTE   PEND 
//  #05 //013   ----------------------------------------
Label_01005305:
 BYTE   N06  An2  v084
 BYTE   W12
 BYTE   Bn2
 BYTE   W12
 BYTE   Cs3
 BYTE   W12
 BYTE   An2
 BYTE   W12
 BYTE   Bn2
 BYTE   W12
 BYTE   Cs3
 BYTE   W12
 BYTE   An2
 BYTE   W12
 BYTE   Cs3
 BYTE   W12
 BYTE   PEND 
//  #05 //014   ----------------------------------------
 BYTE   PATT
  POIN2 Label_010052CC
//  #05 //015   ----------------------------------------
 BYTE   PATT
  POIN2 Label_010052DF
//  #05 //016   ----------------------------------------
 BYTE   PATT
  POIN2 Label_010052F2
//  #05 //017   ----------------------------------------
 BYTE   PATT
  POIN2 Label_01005305
//  #05 //018   ----------------------------------------
 BYTE   PATT
  POIN2 Label_010052CC
//  #05 //019   ----------------------------------------
 BYTE   PATT
  POIN2 Label_010052DF
//  #05 //020   ----------------------------------------
 BYTE   PATT
  POIN2 Label_010052F2
//  #05 //021   ----------------------------------------
 BYTE   PATT
  POIN2 Label_01005305
//  #05 //022   ----------------------------------------
 BYTE   PATT
  POIN2 Label_010052CC
//  #05 //023   ----------------------------------------
 BYTE   PATT
  POIN2 Label_010052DF
//  #05 //024   ----------------------------------------
 BYTE   PATT
  POIN2 Label_010052F2
//  #05 //025   ----------------------------------------
 BYTE   PATT
  POIN2 Label_01005305
//  #05 //026   ----------------------------------------
 BYTE   PATT
  POIN2 Label_010052CC
//  #05 //027   ----------------------------------------
 BYTE   PATT
  POIN2 Label_010052DF
//  #05 //028   ----------------------------------------
 BYTE   PATT
  POIN2 Label_010052F2
//  #05 //029   ----------------------------------------
 BYTE   PATT
  POIN2 Label_01005305
//  #05 //030   ----------------------------------------
 BYTE   PATT
  POIN2 Label_010052CC
//  #05 //031   ----------------------------------------
 BYTE   PATT
  POIN2 Label_010052DF
//  #05 //032   ----------------------------------------
 BYTE   PATT
  POIN2 Label_010052F2
//  #05 //033   ----------------------------------------
 BYTE   PATT
  POIN2 Label_01005305
//  #05 //034   ----------------------------------------
 BYTE   PATT
  POIN2 Label_010052CC
//  #05 //035   ----------------------------------------
 BYTE   PATT
  POIN2 Label_010052DF
//  #05 //036   ----------------------------------------
 BYTE   PATT
  POIN2 Label_010052F2
//  #05 //037   ----------------------------------------
 BYTE   PATT
  POIN2 Label_01005305
//  #05 //038   ----------------------------------------
 BYTE   PATT
  POIN2 Label_010052CC
//  #05 //039   ----------------------------------------
 BYTE   PATT
  POIN2 Label_010052DF
//  #05 //040   ----------------------------------------
 BYTE   PATT
  POIN2 Label_010052F2
//  #05 //041   ----------------------------------------
 BYTE   PATT
  POIN2 Label_01005305
//  #05 //042   ----------------------------------------
 BYTE   PATT
  POIN2 Label_010052CC
//  #05 //043   ----------------------------------------
 BYTE   PATT
  POIN2 Label_010052DF
//  #05 //044   ----------------------------------------
 BYTE   PATT
  POIN2 Label_010052F2
//  #05 //045   ----------------------------------------
 BYTE   PATT
  POIN2 Label_01005305
//  #05 //046   ----------------------------------------
 BYTE   PATT
  POIN2 Label_010052CC
//  #05 //047   ----------------------------------------
 BYTE   PATT
  POIN2 Label_010052DF
//  #05 //048   ----------------------------------------
 BYTE   PATT
  POIN2 Label_010052F2
//  #05 //049   ----------------------------------------
 BYTE   PATT
  POIN2 Label_01005305
//  #05 //050   ----------------------------------------
Label_010053CC:
 BYTE   N12  An2  v084
 BYTE   N12  An3
 BYTE   W36
 BYTE   An2
 BYTE   N12  An3
 BYTE   W36
 BYTE   An2
 BYTE   N12  An3
 BYTE   W24
 BYTE   PEND 
//  #05 //051   ----------------------------------------
 BYTE   PATT
  POIN2 Label_010053CC
//  #05 //052   ----------------------------------------
Label_010053E0:
 BYTE   N12  Bn2  v084
 BYTE   N12  Bn3
 BYTE   W36
 BYTE   Bn2
 BYTE   N12  Bn3
 BYTE   W36
 BYTE   Bn2
 BYTE   N12  Bn3
 BYTE   W24
 BYTE   PEND 
//  #05 //053   ----------------------------------------
 BYTE   PATT
  POIN2 Label_010053E0
//  #05 //054   ----------------------------------------
Label_010053F4:
 BYTE   N12  An2  v084
 BYTE   W12
 BYTE   N12
 BYTE   W12
 BYTE   An3
 BYTE   W12
 BYTE   En3
 BYTE   W12
 BYTE   Bn2
 BYTE   W12
 BYTE   Cs3
 BYTE   W12
 BYTE   An2
 BYTE   W12
 BYTE   Fs2
 BYTE   W12
 BYTE   PEND 
//  #05 //055   ----------------------------------------
Label_01005407:
 BYTE   W12
 BYTE   N12  An2  v084
 BYTE   W24
 BYTE   Fs2
 BYTE   W12
 BYTE   An2
 BYTE   W24
 BYTE   Bn2
 BYTE   W24
 BYTE   PEND 
//  #05 //056   ----------------------------------------
 BYTE   PATT
  POIN2 Label_010053F4
//  #05 //057   ----------------------------------------
 BYTE   PATT
  POIN2 Label_01005407
//  #05 //058   ----------------------------------------
 BYTE   PATT
  POIN2 Label_010053CC
//  #05 //059   ----------------------------------------
 BYTE   PATT
  POIN2 Label_010053CC
//  #05 //060   ----------------------------------------
 BYTE   PATT
  POIN2 Label_010053E0
//  #05 //061   ----------------------------------------
 BYTE   PATT
  POIN2 Label_010053E0
//  #05 //062   ----------------------------------------
 BYTE   PATT
  POIN2 Label_010053F4
//  #05 //063   ----------------------------------------
 BYTE   PATT
  POIN2 Label_01005407
//  #05 //064   ----------------------------------------
 BYTE   PATT
  POIN2 Label_010053F4
//  #05 //065   ----------------------------------------
 BYTE   PATT
  POIN2 Label_01005407
//  #05 //066   ----------------------------------------
 BYTE   W96
//  #05 //067   ----------------------------------------
 BYTE   W96
//  #05 //068   ----------------------------------------
 BYTE   W96
//  #05 //069   ----------------------------------------
 BYTE   W96
//  #05 //070   ----------------------------------------
 BYTE   W96
//  #05 //071   ----------------------------------------
 BYTE   W96
//  #05 //072   ----------------------------------------
 BYTE   W96
//  #05 //073   ----------------------------------------
 BYTE   W96
//  #05 //074   ----------------------------------------
Label_0100544D:
 BYTE   N12  An2  v100
 BYTE   W36
 BYTE   Gs2
 BYTE   W12
 BYTE   Ds2
 BYTE   W36
 BYTE   Cs2
 BYTE   W12
 BYTE   PEND 
//  #05 //075   ----------------------------------------
Label_01005458:
 BYTE   N12  En2  v100
 BYTE   W24
 BYTE   Fs2
 BYTE   W48
 BYTE   Gs2
 BYTE   W24
 BYTE   PEND 
//  #05 //076   ----------------------------------------
 BYTE   PATT
  POIN2 Label_0100544D
//  #05 //077   ----------------------------------------
Label_01005466:
 BYTE   N12  Cs3  v100
 BYTE   W24
 BYTE   Bn2
 BYTE   W48
 BYTE   Gs2
 BYTE   W24
 BYTE   PEND 
//  #05 //078   ----------------------------------------
 BYTE   PATT
  POIN2 Label_0100544D
//  #05 //079   ----------------------------------------
 BYTE   PATT
  POIN2 Label_01005458
//  #05 //080   ----------------------------------------
 BYTE   PATT
  POIN2 Label_0100544D
//  #05 //081   ----------------------------------------
 BYTE   PATT
  POIN2 Label_01005466
//  #05 //082   ----------------------------------------
 BYTE   W96
//  #05 //083   ----------------------------------------
 BYTE   GoTo
  POIN2 Label_010052CC
//  #05 //084   ----------------------------------------
 BYTE   VOICE   57
 BYTE   PAN   c_v+0
 BYTE   VOL   42*IntoTheMind_mvl/mxv
 BYTE   BEND   c_v+0
 BYTE   W32
 BYTE   VOICE   57
 BYTE   PAN   c_v+0
 BYTE   VOL   42*IntoTheMind_mvl/mxv
 BYTE   BEND   c_v+0
 BYTE   W01
 BYTE   VOICE   57
 BYTE   PAN   c_v+0
 BYTE   VOL   42*IntoTheMind_mvl/mxv
 BYTE   BEND   c_v+0
 BYTE   FINE

//**************** Track 6 (Midi-Chn.5) ****************//

IntoTheMind_006:
//  #06 //000   ----------------------------------------
 BYTE   KEYSH   IntoTheMind_key+0
 BYTE   VOICE   38
 BYTE   PAN   c_v+0
 BYTE   VOL   42*IntoTheMind_mvl/mxv
 BYTE   PAN   c_v+0
 BYTE   VOL   42*IntoTheMind_mvl/mxv
 BYTE   PAN   c_v+0
 BYTE   VOL   42*IntoTheMind_mvl/mxv
 BYTE   PAN   c_v+0
 BYTE   VOL   42*IntoTheMind_mvl/mxv
 BYTE   PAN   c_v+0
 BYTE   VOL   42*IntoTheMind_mvl/mxv
 BYTE   PAN   c_v+0
 BYTE   VOL   42*IntoTheMind_mvl/mxv
 BYTE   BEND   c_v+0
 BYTE   W96
//  #06 //001   ----------------------------------------
 BYTE   W96
//  #06 //002   ----------------------------------------
 BYTE   W96
//  #06 //003   ----------------------------------------
 BYTE   W96
//  #06 //004   ----------------------------------------
 BYTE   W96
//  #06 //005   ----------------------------------------
 BYTE   W96
//  #06 //006   ----------------------------------------
 BYTE   W96
//  #06 //007   ----------------------------------------
 BYTE   W96
//  #06 //008   ----------------------------------------
 BYTE   W96
//  #06 //009   ----------------------------------------
 BYTE   W96
//  #06 //010   ----------------------------------------
Label_010054DC:
 BYTE   N06  Cs2  v084
 BYTE   W12
 BYTE   Fs2
 BYTE   W12
 BYTE   An2
 BYTE   W12
 BYTE   Cs2
 BYTE   W12
 BYTE   Fs2
 BYTE   W12
 BYTE   An2
 BYTE   W12
 BYTE   Cs2
 BYTE   W12
 BYTE   An2
 BYTE   W12
 BYTE   PEND 
//  #06 //011   ----------------------------------------
Label_010054EF:
 BYTE   N06  Cs2  v084
 BYTE   W12
 BYTE   En2
 BYTE   W12
 BYTE   Fs2
 BYTE   W12
 BYTE   Cs2
 BYTE   W12
 BYTE   En2
 BYTE   W12
 BYTE   Fs2
 BYTE   W12
 BYTE   Cs2
 BYTE   W12
 BYTE   Fs2
 BYTE   W12
 BYTE   PEND 
//  #06 //012   ----------------------------------------
Label_01005502:
 BYTE   N06  Bn1  v084
 BYTE   W12
 BYTE   Cs2
 BYTE   W12
 BYTE   En2
 BYTE   W12
 BYTE   Bn1
 BYTE   W12
 BYTE   Cs2
 BYTE   W12
 BYTE   En2
 BYTE   W12
 BYTE   Bn1
 BYTE   W12
 BYTE   En2
 BYTE   W12
 BYTE   PEND 
//  #06 //013   ----------------------------------------
Label_01005515:
 BYTE   N06  An1  v084
 BYTE   W12
 BYTE   Bn1
 BYTE   W12
 BYTE   Cs2
 BYTE   W12
 BYTE   An1
 BYTE   W12
 BYTE   Bn1
 BYTE   W12
 BYTE   Cs2
 BYTE   W12
 BYTE   An1
 BYTE   W12
 BYTE   Cs2
 BYTE   W12
 BYTE   PEND 
//  #06 //014   ----------------------------------------
 BYTE   PATT
  POIN2 Label_010054DC
//  #06 //015   ----------------------------------------
 BYTE   PATT
  POIN2 Label_010054EF
//  #06 //016   ----------------------------------------
 BYTE   PATT
  POIN2 Label_01005502
//  #06 //017   ----------------------------------------
 BYTE   PATT
  POIN2 Label_01005515
//  #06 //018   ----------------------------------------
 BYTE   PATT
  POIN2 Label_010054DC
//  #06 //019   ----------------------------------------
 BYTE   PATT
  POIN2 Label_010054EF
//  #06 //020   ----------------------------------------
 BYTE   PATT
  POIN2 Label_01005502
//  #06 //021   ----------------------------------------
 BYTE   PATT
  POIN2 Label_01005515
//  #06 //022   ----------------------------------------
 BYTE   PATT
  POIN2 Label_010054DC
//  #06 //023   ----------------------------------------
 BYTE   PATT
  POIN2 Label_010054EF
//  #06 //024   ----------------------------------------
 BYTE   PATT
  POIN2 Label_01005502
//  #06 //025   ----------------------------------------
 BYTE   PATT
  POIN2 Label_01005515
//  #06 //026   ----------------------------------------
 BYTE   PATT
  POIN2 Label_010054DC
//  #06 //027   ----------------------------------------
 BYTE   PATT
  POIN2 Label_010054EF
//  #06 //028   ----------------------------------------
 BYTE   PATT
  POIN2 Label_01005502
//  #06 //029   ----------------------------------------
 BYTE   PATT
  POIN2 Label_01005515
//  #06 //030   ----------------------------------------
 BYTE   PATT
  POIN2 Label_010054DC
//  #06 //031   ----------------------------------------
 BYTE   PATT
  POIN2 Label_010054EF
//  #06 //032   ----------------------------------------
 BYTE   PATT
  POIN2 Label_01005502
//  #06 //033   ----------------------------------------
 BYTE   PATT
  POIN2 Label_01005515
//  #06 //034   ----------------------------------------
 BYTE   PATT
  POIN2 Label_010054DC
//  #06 //035   ----------------------------------------
 BYTE   PATT
  POIN2 Label_010054EF
//  #06 //036   ----------------------------------------
 BYTE   PATT
  POIN2 Label_01005502
//  #06 //037   ----------------------------------------
 BYTE   PATT
  POIN2 Label_01005515
//  #06 //038   ----------------------------------------
 BYTE   PATT
  POIN2 Label_010054DC
//  #06 //039   ----------------------------------------
 BYTE   PATT
  POIN2 Label_010054EF
//  #06 //040   ----------------------------------------
 BYTE   PATT
  POIN2 Label_01005502
//  #06 //041   ----------------------------------------
 BYTE   PATT
  POIN2 Label_01005515
//  #06 //042   ----------------------------------------
 BYTE   PATT
  POIN2 Label_010054DC
//  #06 //043   ----------------------------------------
 BYTE   PATT
  POIN2 Label_010054EF
//  #06 //044   ----------------------------------------
 BYTE   PATT
  POIN2 Label_01005502
//  #06 //045   ----------------------------------------
 BYTE   PATT
  POIN2 Label_01005515
//  #06 //046   ----------------------------------------
 BYTE   PATT
  POIN2 Label_010054DC
//  #06 //047   ----------------------------------------
 BYTE   PATT
  POIN2 Label_010054EF
//  #06 //048   ----------------------------------------
 BYTE   PATT
  POIN2 Label_01005502
//  #06 //049   ----------------------------------------
 BYTE   PATT
  POIN2 Label_01005515
//  #06 //050   ----------------------------------------
Label_010055DC:
 BYTE   N12  An0  v080
 BYTE   N12  An1
 BYTE   W36
 BYTE   An0
 BYTE   N12  An1
 BYTE   W36
 BYTE   An0
 BYTE   N12  An1
 BYTE   W24
 BYTE   PEND 
//  #06 //051   ----------------------------------------
 BYTE   PATT
  POIN2 Label_010055DC
//  #06 //052   ----------------------------------------
Label_010055F0:
 BYTE   N12  Bn0  v080
 BYTE   N12  Bn1
 BYTE   W36
 BYTE   Bn0
 BYTE   N12  Bn1
 BYTE   W36
 BYTE   Bn0
 BYTE   N12  Bn1
 BYTE   W24
 BYTE   PEND 
//  #06 //053   ----------------------------------------
 BYTE   PATT
  POIN2 Label_010055F0
//  #06 //054   ----------------------------------------
Label_01005604:
 BYTE   N12  An1  v080
 BYTE   W12
 BYTE   N12
 BYTE   W12
 BYTE   An2
 BYTE   W12
 BYTE   En2
 BYTE   W12
 BYTE   Bn1
 BYTE   W12
 BYTE   Cs2
 BYTE   W12
 BYTE   An1
 BYTE   W12
 BYTE   Fs1
 BYTE   W12
 BYTE   PEND 
//  #06 //055   ----------------------------------------
Label_01005617:
 BYTE   W12
 BYTE   N12  An1  v080
 BYTE   W24
 BYTE   Fs1
 BYTE   W12
 BYTE   An1
 BYTE   W24
 BYTE   Bn1
 BYTE   W24
 BYTE   PEND 
//  #06 //056   ----------------------------------------
 BYTE   PATT
  POIN2 Label_01005604
//  #06 //057   ----------------------------------------
 BYTE   PATT
  POIN2 Label_01005617
//  #06 //058   ----------------------------------------
 BYTE   PATT
  POIN2 Label_010055DC
//  #06 //059   ----------------------------------------
 BYTE   PATT
  POIN2 Label_010055DC
//  #06 //060   ----------------------------------------
 BYTE   PATT
  POIN2 Label_010055F0
//  #06 //061   ----------------------------------------
 BYTE   PATT
  POIN2 Label_010055F0
//  #06 //062   ----------------------------------------
 BYTE   PATT
  POIN2 Label_01005604
//  #06 //063   ----------------------------------------
 BYTE   PATT
  POIN2 Label_01005617
//  #06 //064   ----------------------------------------
 BYTE   PATT
  POIN2 Label_01005604
//  #06 //065   ----------------------------------------
 BYTE   PATT
  POIN2 Label_01005617
//  #06 //066   ----------------------------------------
 BYTE   W96
//  #06 //067   ----------------------------------------
 BYTE   W96
//  #06 //068   ----------------------------------------
 BYTE   W96
//  #06 //069   ----------------------------------------
 BYTE   W96
//  #06 //070   ----------------------------------------
 BYTE   W96
//  #06 //071   ----------------------------------------
 BYTE   W96
//  #06 //072   ----------------------------------------
 BYTE   W96
//  #06 //073   ----------------------------------------
 BYTE   W96
//  #06 //074   ----------------------------------------
Label_0100565D:
 BYTE   N12  An1  v100
 BYTE   W36
 BYTE   Gs1
 BYTE   W12
 BYTE   Ds1
 BYTE   W36
 BYTE   Cs1
 BYTE   W12
 BYTE   PEND 
//  #06 //075   ----------------------------------------
Label_01005668:
 BYTE   N12  En1  v100
 BYTE   W24
 BYTE   Fs1
 BYTE   W48
 BYTE   Gs1
 BYTE   W24
 BYTE   PEND 
//  #06 //076   ----------------------------------------
 BYTE   PATT
  POIN2 Label_0100565D
//  #06 //077   ----------------------------------------
Label_01005676:
 BYTE   N12  Cs2  v100
 BYTE   W24
 BYTE   Bn1
 BYTE   W48
 BYTE   Gs1
 BYTE   W24
 BYTE   PEND 
//  #06 //078   ----------------------------------------
 BYTE   PATT
  POIN2 Label_0100565D
//  #06 //079   ----------------------------------------
 BYTE   PATT
  POIN2 Label_01005668
//  #06 //080   ----------------------------------------
 BYTE   PATT
  POIN2 Label_0100565D
//  #06 //081   ----------------------------------------
 BYTE   PATT
  POIN2 Label_01005676
//  #06 //082   ----------------------------------------
 BYTE   W96
//  #06 //083   ----------------------------------------
 BYTE   GoTo
  POIN2 Label_010054DC
//  #06 //084   ----------------------------------------
 BYTE   VOICE   38
 BYTE   PAN   c_v+0
 BYTE   VOL   42*IntoTheMind_mvl/mxv
 BYTE   BEND   c_v+0
 BYTE   W32
 BYTE   VOICE   38
 BYTE   PAN   c_v+0
 BYTE   VOL   42*IntoTheMind_mvl/mxv
 BYTE   BEND   c_v+0
 BYTE   W01
 BYTE   VOICE   38
 BYTE   PAN   c_v+0
 BYTE   VOL   42*IntoTheMind_mvl/mxv
 BYTE   BEND   c_v+0
 BYTE   FINE

//**************** Track 7 (Midi-Chn.6) ****************//

IntoTheMind_007:
//  #07 //000   ----------------------------------------
 BYTE   KEYSH   IntoTheMind_key+0
 BYTE   VOICE   61
 BYTE   PAN   c_v+0
 BYTE   VOL   42*IntoTheMind_mvl/mxv
 BYTE   PAN   c_v+0
 BYTE   VOL   42*IntoTheMind_mvl/mxv
 BYTE   PAN   c_v+0
 BYTE   VOL   42*IntoTheMind_mvl/mxv
 BYTE   PAN   c_v+0
 BYTE   VOL   42*IntoTheMind_mvl/mxv
 BYTE   PAN   c_v+0
 BYTE   VOL   42*IntoTheMind_mvl/mxv
 BYTE   PAN   c_v+0
 BYTE   VOL   42*IntoTheMind_mvl/mxv
 BYTE   BEND   c_v+0
 BYTE   W96
//  #07 //001   ----------------------------------------
 BYTE   W96
//  #07 //002   ----------------------------------------
 BYTE   W96
//  #07 //003   ----------------------------------------
 BYTE   W96
//  #07 //004   ----------------------------------------
 BYTE   W96
//  #07 //005   ----------------------------------------
 BYTE   W96
//  #07 //006   ----------------------------------------
 BYTE   W96
//  #07 //007   ----------------------------------------
 BYTE   W96
//  #07 //008   ----------------------------------------
 BYTE   W96
//  #07 //009   ----------------------------------------
 BYTE   W96
//  #07 //010   ----------------------------------------
Label_010056EC:
 BYTE   W96
//  #07 //011   ----------------------------------------
 BYTE   W96
//  #07 //012   ----------------------------------------
 BYTE   W96
//  #07 //013   ----------------------------------------
 BYTE   W96
//  #07 //014   ----------------------------------------
 BYTE   W96
//  #07 //015   ----------------------------------------
 BYTE   W96
//  #07 //016   ----------------------------------------
 BYTE   W96
//  #07 //017   ----------------------------------------
 BYTE   W96
//  #07 //018   ----------------------------------------
 BYTE   W96
//  #07 //019   ----------------------------------------
 BYTE   W96
//  #07 //020   ----------------------------------------
 BYTE   W96
//  #07 //021   ----------------------------------------
 BYTE   W96
//  #07 //022   ----------------------------------------
Label_010056F8:
 BYTE   W72
 BYTE   N12  An1  v100
 BYTE   N12  An2
 BYTE   W12
 BYTE   Bn1
 BYTE   N12  Bn2
 BYTE   W12
 BYTE   PEND 
//  #07 //023   ----------------------------------------
Label_01005704:
 BYTE   N12  Cs2  v100
 BYTE   N12  Cs3
 BYTE   W12
 BYTE   Bn1
 BYTE   N12  Bn2
 BYTE   W12
 BYTE   Cs2
 BYTE   N12  Cs3
 BYTE   W12
 BYTE   N36  En2
 BYTE   N36  En3
 BYTE   W36
 BYTE   N24  Fs2
 BYTE   N24  Fs3
 BYTE   W24
 BYTE   PEND 
//  #07 //024   ----------------------------------------
Label_0100571D:
 BYTE   N60  Cs2  v100
 BYTE   N60  Cs3
 BYTE   W60
 BYTE   N12  Cs2
 BYTE   N12  Cs3
 BYTE   W12
 BYTE   En2
 BYTE   N12  En3
 BYTE   W12
 BYTE   Fs2
 BYTE   N12  Fs3
 BYTE   W12
 BYTE   PEND 
//  #07 //025   ----------------------------------------
Label_01005731:
 BYTE   N36  Gs2  v100
 BYTE   N36  Gs3
 BYTE   W36
 BYTE   N60  En2
 BYTE   N60  En3
 BYTE   W60
 BYTE   PEND 
//  #07 //026   ----------------------------------------
 BYTE   W96
//  #07 //027   ----------------------------------------
 BYTE   W96
//  #07 //028   ----------------------------------------
 BYTE   W96
//  #07 //029   ----------------------------------------
 BYTE   W96
//  #07 //030   ----------------------------------------
 BYTE   PATT
  POIN2 Label_010056F8
//  #07 //031   ----------------------------------------
 BYTE   PATT
  POIN2 Label_01005704
//  #07 //032   ----------------------------------------
 BYTE   PATT
  POIN2 Label_0100571D
//  #07 //033   ----------------------------------------
 BYTE   PATT
  POIN2 Label_01005731
//  #07 //034   ----------------------------------------
 BYTE   W96
//  #07 //035   ----------------------------------------
 BYTE   W96
//  #07 //036   ----------------------------------------
 BYTE   W96
//  #07 //037   ----------------------------------------
 BYTE   W96
//  #07 //038   ----------------------------------------
 BYTE   PATT
  POIN2 Label_010056F8
//  #07 //039   ----------------------------------------
 BYTE   PATT
  POIN2 Label_01005704
//  #07 //040   ----------------------------------------
 BYTE   PATT
  POIN2 Label_0100571D
//  #07 //041   ----------------------------------------
 BYTE   PATT
  POIN2 Label_01005731
//  #07 //042   ----------------------------------------
 BYTE   W96
//  #07 //043   ----------------------------------------
 BYTE   W96
//  #07 //044   ----------------------------------------
 BYTE   W96
//  #07 //045   ----------------------------------------
 BYTE   W96
//  #07 //046   ----------------------------------------
 BYTE   PATT
  POIN2 Label_010056F8
//  #07 //047   ----------------------------------------
 BYTE   PATT
  POIN2 Label_01005704
//  #07 //048   ----------------------------------------
 BYTE   PATT
  POIN2 Label_0100571D
//  #07 //049   ----------------------------------------
 BYTE   PATT
  POIN2 Label_01005731
//  #07 //050   ----------------------------------------
 BYTE   N96  An1  v100
 BYTE   N96  An2
 BYTE   W96
//  #07 //051   ----------------------------------------
 BYTE   An1
 BYTE   N96  An2
 BYTE   W96
//  #07 //052   ----------------------------------------
 BYTE   Bn1
 BYTE   N96  Bn2
 BYTE   W96
//  #07 //053   ----------------------------------------
 BYTE   Bn1
 BYTE   N96  Bn2
 BYTE   W96
//  #07 //054   ----------------------------------------
Label_01005797:
 BYTE   W24
 BYTE   N06  Bn3  v100
 BYTE   W12
 BYTE   An3
 BYTE   W12
 BYTE   Bn3
 BYTE   W12
 BYTE   N06
 BYTE   W12
 BYTE   An3
 BYTE   W12
 BYTE   Bn3
 BYTE   W12
 BYTE   PEND 
//  #07 //055   ----------------------------------------
Label_010057A7:
 BYTE   W12
 BYTE   N06  Bn3  v100
 BYTE   W24
 BYTE   An3
 BYTE   W12
 BYTE   Bn3
 BYTE   W12
 BYTE   Cs4
 BYTE   W36
 BYTE   PEND 
//  #07 //056   ----------------------------------------
 BYTE   PATT
  POIN2 Label_01005797
//  #07 //057   ----------------------------------------
Label_010057B8:
 BYTE   W12
 BYTE   N06  Bn3  v100
 BYTE   W24
 BYTE   An3
 BYTE   W12
 BYTE   En4
 BYTE   W12
 BYTE   Bn3
 BYTE   W12
 BYTE   N24  Cs4
 BYTE   W24
 BYTE   PEND 
//  #07 //058   ----------------------------------------
 BYTE   N96  An1
 BYTE   N96  An2
 BYTE   W96
//  #07 //059   ----------------------------------------
 BYTE   An1
 BYTE   N96  An2
 BYTE   W96
//  #07 //060   ----------------------------------------
 BYTE   Bn1
 BYTE   N96  Bn2
 BYTE   W96
//  #07 //061   ----------------------------------------
 BYTE   Bn1
 BYTE   N96  Bn2
 BYTE   W96
//  #07 //062   ----------------------------------------
 BYTE   PATT
  POIN2 Label_01005797
//  #07 //063   ----------------------------------------
 BYTE   PATT
  POIN2 Label_010057A7
//  #07 //064   ----------------------------------------
 BYTE   PATT
  POIN2 Label_01005797
//  #07 //065   ----------------------------------------
 BYTE   PATT
  POIN2 Label_010057B8
//  #07 //066   ----------------------------------------
 BYTE   W96
//  #07 //067   ----------------------------------------
 BYTE   W96
//  #07 //068   ----------------------------------------
 BYTE   W96
//  #07 //069   ----------------------------------------
 BYTE   W96
//  #07 //070   ----------------------------------------
 BYTE   W96
//  #07 //071   ----------------------------------------
 BYTE   W96
//  #07 //072   ----------------------------------------
 BYTE   W96
//  #07 //073   ----------------------------------------
 BYTE   W96
//  #07 //074   ----------------------------------------
 BYTE   W96
//  #07 //075   ----------------------------------------
 BYTE   W96
//  #07 //076   ----------------------------------------
 BYTE   W96
//  #07 //077   ----------------------------------------
 BYTE   W96
//  #07 //078   ----------------------------------------
 BYTE   W96
//  #07 //079   ----------------------------------------
 BYTE   W96
//  #07 //080   ----------------------------------------
 BYTE   W96
//  #07 //081   ----------------------------------------
 BYTE   W96
//  #07 //082   ----------------------------------------
 BYTE   W96
//  #07 //083   ----------------------------------------
 BYTE   GoTo
  POIN2 Label_010056EC
//  #07 //084   ----------------------------------------
 BYTE   VOICE   61
 BYTE   PAN   c_v+0
 BYTE   VOL   42*IntoTheMind_mvl/mxv
 BYTE   BEND   c_v+0
 BYTE   W32
 BYTE   VOICE   61
 BYTE   PAN   c_v+0
 BYTE   VOL   42*IntoTheMind_mvl/mxv
 BYTE   BEND   c_v+0
 BYTE   W01
 BYTE   VOICE   61
 BYTE   PAN   c_v+0
 BYTE   VOL   42*IntoTheMind_mvl/mxv
 BYTE   BEND   c_v+0
 BYTE   FINE

//**************** Track 8 (Midi-Chn.7) ****************//

IntoTheMind_008:
//  #08 //000   ----------------------------------------
 BYTE   KEYSH   IntoTheMind_key+0
 BYTE   VOICE   1
 BYTE   PAN   c_v+0
 BYTE   VOL   42*IntoTheMind_mvl/mxv
 BYTE   PAN   c_v+0
 BYTE   VOL   42*IntoTheMind_mvl/mxv
 BYTE   PAN   c_v+0
 BYTE   VOL   42*IntoTheMind_mvl/mxv
 BYTE   PAN   c_v+0
 BYTE   VOL   42*IntoTheMind_mvl/mxv
 BYTE   PAN   c_v+0
 BYTE   VOL   42*IntoTheMind_mvl/mxv
 BYTE   PAN   c_v+0
 BYTE   VOL   42*IntoTheMind_mvl/mxv
 BYTE   BEND   c_v+0
 BYTE   W96
//  #08 //001   ----------------------------------------
 BYTE   W96
//  #08 //002   ----------------------------------------
 BYTE   W96
//  #08 //003   ----------------------------------------
 BYTE   W96
//  #08 //004   ----------------------------------------
 BYTE   W96
//  #08 //005   ----------------------------------------
 BYTE   W96
//  #08 //006   ----------------------------------------
 BYTE   W96
//  #08 //007   ----------------------------------------
 BYTE   W96
//  #08 //008   ----------------------------------------
 BYTE   W96
//  #08 //009   ----------------------------------------
 BYTE   W96
//  #08 //010   ----------------------------------------
Label_01005858:
 BYTE   W96
//  #08 //011   ----------------------------------------
 BYTE   W96
//  #08 //012   ----------------------------------------
 BYTE   W96
//  #08 //013   ----------------------------------------
 BYTE   W96
//  #08 //014   ----------------------------------------
 BYTE   W96
//  #08 //015   ----------------------------------------
 BYTE   W96
//  #08 //016   ----------------------------------------
 BYTE   W96
//  #08 //017   ----------------------------------------
 BYTE   W96
//  #08 //018   ----------------------------------------
Label_01005860:
 BYTE   N06  Cs2  v084
 BYTE   W12
 BYTE   Fs2
 BYTE   W12
 BYTE   An2
 BYTE   W12
 BYTE   Cs2
 BYTE   W12
 BYTE   Fs2
 BYTE   W12
 BYTE   An2
 BYTE   W12
 BYTE   Cs2
 BYTE   W12
 BYTE   An2
 BYTE   W12
 BYTE   PEND 
//  #08 //019   ----------------------------------------
Label_01005873:
 BYTE   N06  Cs2  v084
 BYTE   W12
 BYTE   En2
 BYTE   W12
 BYTE   Fs2
 BYTE   W12
 BYTE   Cs2
 BYTE   W12
 BYTE   En2
 BYTE   W12
 BYTE   Fs2
 BYTE   W12
 BYTE   Cs2
 BYTE   W12
 BYTE   Fs2
 BYTE   W12
 BYTE   PEND 
//  #08 //020   ----------------------------------------
Label_01005886:
 BYTE   N06  Bn1  v084
 BYTE   W12
 BYTE   Cs2
 BYTE   W12
 BYTE   En2
 BYTE   W12
 BYTE   Bn1
 BYTE   W12
 BYTE   Cs2
 BYTE   W12
 BYTE   En2
 BYTE   W12
 BYTE   Bn1
 BYTE   W12
 BYTE   En2
 BYTE   W12
 BYTE   PEND 
//  #08 //021   ----------------------------------------
Label_01005899:
 BYTE   N06  An1  v084
 BYTE   W12
 BYTE   Bn1
 BYTE   W12
 BYTE   Cs2
 BYTE   W12
 BYTE   An1
 BYTE   W12
 BYTE   Bn1
 BYTE   W12
 BYTE   Cs2
 BYTE   W12
 BYTE   An1
 BYTE   W12
 BYTE   Cs2
 BYTE   W12
 BYTE   PEND 
//  #08 //022   ----------------------------------------
 BYTE   PATT
  POIN2 Label_01005860
//  #08 //023   ----------------------------------------
 BYTE   PATT
  POIN2 Label_01005873
//  #08 //024   ----------------------------------------
 BYTE   PATT
  POIN2 Label_01005886
//  #08 //025   ----------------------------------------
 BYTE   PATT
  POIN2 Label_01005899
//  #08 //026   ----------------------------------------
 BYTE   PATT
  POIN2 Label_01005860
//  #08 //027   ----------------------------------------
 BYTE   PATT
  POIN2 Label_01005873
//  #08 //028   ----------------------------------------
 BYTE   PATT
  POIN2 Label_01005886
//  #08 //029   ----------------------------------------
 BYTE   PATT
  POIN2 Label_01005899
//  #08 //030   ----------------------------------------
 BYTE   PATT
  POIN2 Label_01005860
//  #08 //031   ----------------------------------------
 BYTE   PATT
  POIN2 Label_01005873
//  #08 //032   ----------------------------------------
 BYTE   PATT
  POIN2 Label_01005886
//  #08 //033   ----------------------------------------
 BYTE   PATT
  POIN2 Label_01005899
//  #08 //034   ----------------------------------------
 BYTE   PATT
  POIN2 Label_01005860
//  #08 //035   ----------------------------------------
 BYTE   PATT
  POIN2 Label_01005873
//  #08 //036   ----------------------------------------
 BYTE   PATT
  POIN2 Label_01005886
//  #08 //037   ----------------------------------------
 BYTE   PATT
  POIN2 Label_01005899
//  #08 //038   ----------------------------------------
 BYTE   PATT
  POIN2 Label_01005860
//  #08 //039   ----------------------------------------
 BYTE   PATT
  POIN2 Label_01005873
//  #08 //040   ----------------------------------------
 BYTE   PATT
  POIN2 Label_01005886
//  #08 //041   ----------------------------------------
 BYTE   PATT
  POIN2 Label_01005899
//  #08 //042   ----------------------------------------
 BYTE   PATT
  POIN2 Label_01005860
//  #08 //043   ----------------------------------------
 BYTE   PATT
  POIN2 Label_01005873
//  #08 //044   ----------------------------------------
 BYTE   PATT
  POIN2 Label_01005886
//  #08 //045   ----------------------------------------
 BYTE   PATT
  POIN2 Label_01005899
//  #08 //046   ----------------------------------------
 BYTE   PATT
  POIN2 Label_01005860
//  #08 //047   ----------------------------------------
 BYTE   PATT
  POIN2 Label_01005873
//  #08 //048   ----------------------------------------
 BYTE   PATT
  POIN2 Label_01005886
//  #08 //049   ----------------------------------------
 BYTE   PATT
  POIN2 Label_01005899
//  #08 //050   ----------------------------------------
Label_01005938:
 BYTE   N12  An0  v100
 BYTE   N12  An1
 BYTE   W36
 BYTE   An0
 BYTE   N12  An1
 BYTE   W36
 BYTE   An0
 BYTE   N12  An1
 BYTE   W24
 BYTE   PEND 
//  #08 //051   ----------------------------------------
 BYTE   PATT
  POIN2 Label_01005938
//  #08 //052   ----------------------------------------
Label_0100594C:
 BYTE   N12  Bn0  v100
 BYTE   N12  Bn1
 BYTE   W36
 BYTE   Bn0
 BYTE   N12  Bn1
 BYTE   W36
 BYTE   Bn0
 BYTE   N12  Bn1
 BYTE   W24
 BYTE   PEND 
//  #08 //053   ----------------------------------------
 BYTE   PATT
  POIN2 Label_0100594C
//  #08 //054   ----------------------------------------
Label_01005960:
 BYTE   N12  An1  v100
 BYTE   W12
 BYTE   N12
 BYTE   W12
 BYTE   An2
 BYTE   W12
 BYTE   En2
 BYTE   W12
 BYTE   Bn1
 BYTE   W12
 BYTE   Cs2
 BYTE   W12
 BYTE   An1
 BYTE   W12
 BYTE   Fs1
 BYTE   W12
 BYTE   PEND 
//  #08 //055   ----------------------------------------
Label_01005973:
 BYTE   W12
 BYTE   N12  An1  v100
 BYTE   W24
 BYTE   Fs1
 BYTE   W12
 BYTE   An1
 BYTE   W24
 BYTE   Bn1
 BYTE   W24
 BYTE   PEND 
//  #08 //056   ----------------------------------------
 BYTE   PATT
  POIN2 Label_01005960
//  #08 //057   ----------------------------------------
 BYTE   PATT
  POIN2 Label_01005973
//  #08 //058   ----------------------------------------
 BYTE   PATT
  POIN2 Label_01005938
//  #08 //059   ----------------------------------------
 BYTE   PATT
  POIN2 Label_01005938
//  #08 //060   ----------------------------------------
 BYTE   PATT
  POIN2 Label_0100594C
//  #08 //061   ----------------------------------------
 BYTE   PATT
  POIN2 Label_0100594C
//  #08 //062   ----------------------------------------
 BYTE   PATT
  POIN2 Label_01005960
//  #08 //063   ----------------------------------------
 BYTE   PATT
  POIN2 Label_01005973
//  #08 //064   ----------------------------------------
 BYTE   PATT
  POIN2 Label_01005960
//  #08 //065   ----------------------------------------
 BYTE   PATT
  POIN2 Label_01005973
//  #08 //066   ----------------------------------------
Label_010059B1:
 BYTE   N12  An1  v100
 BYTE   N12  An3
 BYTE   W36
 BYTE   Gs1
 BYTE   N12  Gs3
 BYTE   W12
 BYTE   Ds1
 BYTE   N12  Ds3
 BYTE   W36
 BYTE   Cs1
 BYTE   N12  Cs3
 BYTE   W12
 BYTE   PEND 
//  #08 //067   ----------------------------------------
Label_010059C4:
 BYTE   N12  En1  v100
 BYTE   N12  En3
 BYTE   W12
 BYTE   Fs3
 BYTE   W12
 BYTE   Fs1
 BYTE   N12  Fs3
 BYTE   W36
 BYTE   Cs4
 BYTE   W12
 BYTE   Gs1
 BYTE   N06  An3
 BYTE   W06
 BYTE   Fs3
 BYTE   W06
 BYTE   En3
 BYTE   W12
 BYTE   PEND 
//  #08 //068   ----------------------------------------
 BYTE   PATT
  POIN2 Label_010059B1
//  #08 //069   ----------------------------------------
Label_010059E0:
 BYTE   N12  Cs2  v100
 BYTE   N12  Cs4
 BYTE   W12
 BYTE   Bn3
 BYTE   W12
 BYTE   Bn1
 BYTE   N12  Bn3
 BYTE   W36
 BYTE   Cs4
 BYTE   W12
 BYTE   Gs1
 BYTE   N06  An3
 BYTE   W06
 BYTE   Fs3
 BYTE   W06
 BYTE   En3
 BYTE   W12
 BYTE   PEND 
//  #08 //070   ----------------------------------------
 BYTE   PATT
  POIN2 Label_010059B1
//  #08 //071   ----------------------------------------
 BYTE   PATT
  POIN2 Label_010059C4
//  #08 //072   ----------------------------------------
 BYTE   PATT
  POIN2 Label_010059B1
//  #08 //073   ----------------------------------------
 BYTE   PATT
  POIN2 Label_010059E0
//  #08 //074   ----------------------------------------
Label_01005A0B:
 BYTE   N12  An1  v100
 BYTE   N12  An3
 BYTE   N12  An4
 BYTE   W36
 BYTE   Gs1
 BYTE   N12  Gs3
 BYTE   N12  Gs4
 BYTE   W12
 BYTE   Ds1
 BYTE   N12  Ds3
 BYTE   N12  Ds4
 BYTE   W36
 BYTE   Cs1
 BYTE   N12  Cs3
 BYTE   N12  Cs4
 BYTE   W12
 BYTE   PEND 
//  #08 //075   ----------------------------------------
Label_01005A26:
 BYTE   N12  En1  v100
 BYTE   N12  En3
 BYTE   N12  En4
 BYTE   W12
 BYTE   Fs3
 BYTE   N12  Fs4
 BYTE   W12
 BYTE   Fs1
 BYTE   N12  Fs3
 BYTE   N12  Fs4
 BYTE   W36
 BYTE   Cs4
 BYTE   W12
 BYTE   Gs1
 BYTE   N06  An3
 BYTE   W06
 BYTE   Fs3
 BYTE   W06
 BYTE   En3
 BYTE   W12
 BYTE   PEND 
//  #08 //076   ----------------------------------------
 BYTE   PATT
  POIN2 Label_01005A0B
//  #08 //077   ----------------------------------------
Label_01005A48:
 BYTE   N12  Cs2  v100
 BYTE   N12  Cs4
 BYTE   N12  Cs5
 BYTE   W12
 BYTE   Bn3
 BYTE   N12  Bn4
 BYTE   W12
 BYTE   Bn1
 BYTE   N12  Bn3
 BYTE   N12  Bn4
 BYTE   W36
 BYTE   Cs4
 BYTE   W12
 BYTE   Gs1
 BYTE   N06  An3
 BYTE   W06
 BYTE   Fs3
 BYTE   W06
 BYTE   En3
 BYTE   W12
 BYTE   PEND 
//  #08 //078   ----------------------------------------
 BYTE   PATT
  POIN2 Label_01005A0B
//  #08 //079   ----------------------------------------
 BYTE   PATT
  POIN2 Label_01005A26
//  #08 //080   ----------------------------------------
 BYTE   PATT
  POIN2 Label_01005A0B
//  #08 //081   ----------------------------------------
 BYTE   PATT
  POIN2 Label_01005A48
//  #08 //082   ----------------------------------------
 BYTE   N12  En3  v100
 BYTE   N12  En4
 BYTE   W12
 BYTE   Cs3
 BYTE   N12  Cs4
 BYTE   W12
 BYTE   N72  Cs3
 BYTE   N72  Cs4
 BYTE   W72
//  #08 //083   ----------------------------------------
 BYTE   GoTo
  POIN2 Label_01005858
//  #08 //084   ----------------------------------------
 BYTE   PAN   c_v+0
 BYTE   VOL   42*IntoTheMind_mvl/mxv
 BYTE   BEND   c_v+0
 BYTE   W32
 BYTE   PAN   c_v+0
 BYTE   VOL   42*IntoTheMind_mvl/mxv
 BYTE   BEND   c_v+0
 BYTE   W01
 BYTE   PAN   c_v+0
 BYTE   VOL   42*IntoTheMind_mvl/mxv
 BYTE   BEND   c_v+0
 BYTE   FINE

//**************** Track 9 (Midi-Chn.8) ****************//

IntoTheMind_009:
//  #09 //000   ----------------------------------------
 BYTE   KEYSH   IntoTheMind_key+0
 BYTE   VOICE   56
 BYTE   PAN   c_v+0
 BYTE   VOL   42*IntoTheMind_mvl/mxv
 BYTE   PAN   c_v+0
 BYTE   VOL   42*IntoTheMind_mvl/mxv
 BYTE   PAN   c_v+0
 BYTE   VOL   42*IntoTheMind_mvl/mxv
 BYTE   PAN   c_v+0
 BYTE   VOL   42*IntoTheMind_mvl/mxv
 BYTE   PAN   c_v+0
 BYTE   VOL   42*IntoTheMind_mvl/mxv
 BYTE   PAN   c_v+0
 BYTE   VOL   42*IntoTheMind_mvl/mxv
 BYTE   BEND   c_v+0
 BYTE   W96
//  #09 //001   ----------------------------------------
 BYTE   W96
//  #09 //002   ----------------------------------------
 BYTE   W96
//  #09 //003   ----------------------------------------
 BYTE   W96
//  #09 //004   ----------------------------------------
 BYTE   W96
//  #09 //005   ----------------------------------------
 BYTE   W96
//  #09 //006   ----------------------------------------
 BYTE   W96
//  #09 //007   ----------------------------------------
 BYTE   W96
//  #09 //008   ----------------------------------------
 BYTE   W96
//  #09 //009   ----------------------------------------
 BYTE   W96
//  #09 //010   ----------------------------------------
Label_F8B534:
 BYTE   W96
//  #09 //011   ----------------------------------------
 BYTE   W96
//  #09 //012   ----------------------------------------
 BYTE   W96
//  #09 //013   ----------------------------------------
 BYTE   W96
//  #09 //014   ----------------------------------------
 BYTE   W96
//  #09 //015   ----------------------------------------
 BYTE   W96
//  #09 //016   ----------------------------------------
 BYTE   W96
//  #09 //017   ----------------------------------------
 BYTE   W96
//  #09 //018   ----------------------------------------
 BYTE   W96
//  #09 //019   ----------------------------------------
 BYTE   W96
//  #09 //020   ----------------------------------------
 BYTE   W96
//  #09 //021   ----------------------------------------
 BYTE   W96
//  #09 //022   ----------------------------------------
 BYTE   W96
//  #09 //023   ----------------------------------------
 BYTE   W96
//  #09 //024   ----------------------------------------
 BYTE   W96
//  #09 //025   ----------------------------------------
 BYTE   W96
//  #09 //026   ----------------------------------------
 BYTE   W96
//  #09 //027   ----------------------------------------
 BYTE   W96
//  #09 //028   ----------------------------------------
 BYTE   W96
//  #09 //029   ----------------------------------------
 BYTE   W96
//  #09 //030   ----------------------------------------
 BYTE   W96
//  #09 //031   ----------------------------------------
 BYTE   W96
//  #09 //032   ----------------------------------------
 BYTE   W96
//  #09 //033   ----------------------------------------
 BYTE   W96
//  #09 //034   ----------------------------------------
 BYTE   W96
//  #09 //035   ----------------------------------------
 BYTE   W96
//  #09 //036   ----------------------------------------
 BYTE   W96
//  #09 //037   ----------------------------------------
 BYTE   W96
//  #09 //038   ----------------------------------------
 BYTE   W96
//  #09 //039   ----------------------------------------
 BYTE   W96
//  #09 //040   ----------------------------------------
 BYTE   W96
//  #09 //041   ----------------------------------------
 BYTE   W96
//  #09 //042   ----------------------------------------
 BYTE   W96
//  #09 //043   ----------------------------------------
 BYTE   W96
//  #09 //044   ----------------------------------------
 BYTE   W96
//  #09 //045   ----------------------------------------
 BYTE   W96
//  #09 //046   ----------------------------------------
 BYTE   W96
//  #09 //047   ----------------------------------------
 BYTE   W96
//  #09 //048   ----------------------------------------
 BYTE   W96
//  #09 //049   ----------------------------------------
 BYTE   W96
//  #09 //050   ----------------------------------------
 BYTE   W96
//  #09 //051   ----------------------------------------
 BYTE   W96
//  #09 //052   ----------------------------------------
 BYTE   W96
//  #09 //053   ----------------------------------------
 BYTE   W96
//  #09 //054   ----------------------------------------
Label_F8B560:
 BYTE   W24
 BYTE   N06  Bn3  v100
 BYTE   W12
 BYTE   An3
 BYTE   W12
 BYTE   Bn3
 BYTE   W12
 BYTE   N06
 BYTE   W12
 BYTE   An3
 BYTE   W12
 BYTE   Bn3
 BYTE   W12
 BYTE   PEND 
//  #09 //055   ----------------------------------------
Label_F8B570:
 BYTE   W12
 BYTE   N06  Bn3  v100
 BYTE   W24
 BYTE   An3
 BYTE   W12
 BYTE   Bn3
 BYTE   W12
 BYTE   Cs4
 BYTE   W36
 BYTE   PEND 
//  #09 //056   ----------------------------------------
 BYTE   PATT
  POIN2 Label_F8B560
//  #09 //057   ----------------------------------------
Label_F8B581:
 BYTE   W12
 BYTE   N06  Bn3  v100
 BYTE   W24
 BYTE   An3
 BYTE   W12
 BYTE   En4
 BYTE   W12
 BYTE   Bn3
 BYTE   W12
 BYTE   N24  Cs4
 BYTE   W24
 BYTE   PEND 
//  #09 //058   ----------------------------------------
 BYTE   W96
//  #09 //059   ----------------------------------------
 BYTE   W96
//  #09 //060   ----------------------------------------
 BYTE   W96
//  #09 //061   ----------------------------------------
 BYTE   W96
//  #09 //062   ----------------------------------------
 BYTE   PATT
  POIN2 Label_F8B560
//  #09 //063   ----------------------------------------
 BYTE   PATT
  POIN2 Label_F8B570
//  #09 //064   ----------------------------------------
 BYTE   PATT
  POIN2 Label_F8B560
//  #09 //065   ----------------------------------------
 BYTE   PATT
  POIN2 Label_F8B581
//  #09 //066   ----------------------------------------
 BYTE   W96
//  #09 //067   ----------------------------------------
 BYTE   W96
//  #09 //068   ----------------------------------------
 BYTE   W96
//  #09 //069   ----------------------------------------
 BYTE   W96
//  #09 //070   ----------------------------------------
 BYTE   W96
//  #09 //071   ----------------------------------------
 BYTE   W96
//  #09 //072   ----------------------------------------
 BYTE   W96
//  #09 //073   ----------------------------------------
 BYTE   W96
//  #09 //074   ----------------------------------------
 BYTE   W96
//  #09 //075   ----------------------------------------
 BYTE   W96
//  #09 //076   ----------------------------------------
 BYTE   W96
//  #09 //077   ----------------------------------------
 BYTE   W96
//  #09 //078   ----------------------------------------
 BYTE   W96
//  #09 //079   ----------------------------------------
 BYTE   W96
//  #09 //080   ----------------------------------------
 BYTE   W96
//  #09 //081   ----------------------------------------
 BYTE   W96
//  #09 //082   ----------------------------------------
 BYTE   W96
//  #09 //083   ----------------------------------------
 BYTE   GoTo
  POIN2 Label_F8B534
//  #09 //084   ----------------------------------------
 BYTE   VOICE   56
 BYTE   PAN   c_v+0
 BYTE   VOL   42*IntoTheMind_mvl/mxv
 BYTE   BEND   c_v+0
 BYTE   W32
 BYTE   VOICE   56
 BYTE   PAN   c_v+0
 BYTE   VOL   42*IntoTheMind_mvl/mxv
 BYTE   BEND   c_v+0
 BYTE   W01
 BYTE   VOICE   56
 BYTE   PAN   c_v+0
 BYTE   VOL   42*IntoTheMind_mvl/mxv
 BYTE   BEND   c_v+0
 BYTE   FINE

//**************** Track 10 (Midi-Chn.9) ****************//

IntoTheMind_010:
//  #10 //000   ----------------------------------------
 BYTE   KEYSH   IntoTheMind_key+0
 BYTE   VOICE   124
 BYTE   PAN   c_v+0
 BYTE   VOL   42*IntoTheMind_mvl/mxv
 BYTE   PAN   c_v+0
 BYTE   VOL   42*IntoTheMind_mvl/mxv
 BYTE   PAN   c_v+0
 BYTE   VOL   42*IntoTheMind_mvl/mxv
 BYTE   PAN   c_v+0
 BYTE   VOL   42*IntoTheMind_mvl/mxv
 BYTE   PAN   c_v+0
 BYTE   VOL   42*IntoTheMind_mvl/mxv
 BYTE   PAN   c_v+0
 BYTE   VOL   42*IntoTheMind_mvl/mxv
 BYTE   BEND   c_v+0
 BYTE   W96
//  #10 //001   ----------------------------------------
 BYTE   W96
//  #10 //002   ----------------------------------------
 BYTE   W96
//  #10 //003   ----------------------------------------
 BYTE   W96
//  #10 //004   ----------------------------------------
 BYTE   W96
//  #10 //005   ----------------------------------------
 BYTE   W96
//  #10 //006   ----------------------------------------
 BYTE   W96
//  #10 //007   ----------------------------------------
 BYTE   W96
//  #10 //008   ----------------------------------------
 BYTE   W96
//  #10 //009   ----------------------------------------
 BYTE   W48
 BYTE   N12  Cn1  v100
 BYTE   N12  As1  v040
 BYTE   W12
 BYTE   Cn1  v100
 BYTE   N12  As1  v064
 BYTE   W12
 BYTE   Dn1  v100
 BYTE   N12  As1  v080
 BYTE   W12
 BYTE   N06  Dn1  v100
 BYTE   N12  As1
 BYTE   W06
 BYTE   N06  Dn1
 BYTE   W06
//  #10 //010   ----------------------------------------
Label_01005AF8:
 BYTE   N12  Cn1  v100
 BYTE   N96  Cs2
 BYTE   W12
 BYTE   N12  Cn1
 BYTE   W12
 BYTE   Dn1
 BYTE   N12  As1
 BYTE   W12
 BYTE   Cn1
 BYTE   W12
 BYTE   N12
 BYTE   W12
 BYTE   N06
 BYTE   W06
 BYTE   N06
 BYTE   W06
 BYTE   N12  Dn1
 BYTE   N12  As1
 BYTE   W12
 BYTE   Cn1
 BYTE   W12
 BYTE   PEND 
//  #10 //011   ----------------------------------------
Label_01005B15:
 BYTE   N12  Cn1  v100
 BYTE   W12
 BYTE   N12
 BYTE   W12
 BYTE   Dn1
 BYTE   N12  As1
 BYTE   W12
 BYTE   Cn1
 BYTE   W12
 BYTE   N12
 BYTE   W12
 BYTE   N06
 BYTE   W06
 BYTE   N06
 BYTE   W06
 BYTE   N12  Dn1
 BYTE   N12  As1
 BYTE   W12
 BYTE   Cn1
 BYTE   W12
 BYTE   PEND 
//  #10 //012   ----------------------------------------
 BYTE   PATT
  POIN2 Label_01005B15
//  #10 //013   ----------------------------------------
 BYTE   PATT
  POIN2 Label_01005B15
//  #10 //014   ----------------------------------------
 BYTE   PATT
  POIN2 Label_01005B15
//  #10 //015   ----------------------------------------
 BYTE   PATT
  POIN2 Label_01005B15
//  #10 //016   ----------------------------------------
 BYTE   PATT
  POIN2 Label_01005B15
//  #10 //017   ----------------------------------------
 BYTE   PATT
  POIN2 Label_01005B15
//  #10 //018   ----------------------------------------
 BYTE   PATT
  POIN2 Label_01005AF8
//  #10 //019   ----------------------------------------
 BYTE   PATT
  POIN2 Label_01005B15
//  #10 //020   ----------------------------------------
 BYTE   PATT
  POIN2 Label_01005B15
//  #10 //021   ----------------------------------------
 BYTE   PATT
  POIN2 Label_01005B15
//  #10 //022   ----------------------------------------
 BYTE   PATT
  POIN2 Label_01005B15
//  #10 //023   ----------------------------------------
 BYTE   PATT
  POIN2 Label_01005B15
//  #10 //024   ----------------------------------------
 BYTE   PATT
  POIN2 Label_01005B15
//  #10 //025   ----------------------------------------
 BYTE   PATT
  POIN2 Label_01005B15
//  #10 //026   ----------------------------------------
 BYTE   PATT
  POIN2 Label_01005AF8
//  #10 //027   ----------------------------------------
 BYTE   PATT
  POIN2 Label_01005B15
//  #10 //028   ----------------------------------------
 BYTE   PATT
  POIN2 Label_01005B15
//  #10 //029   ----------------------------------------
 BYTE   PATT
  POIN2 Label_01005B15
//  #10 //030   ----------------------------------------
 BYTE   PATT
  POIN2 Label_01005B15
//  #10 //031   ----------------------------------------
 BYTE   PATT
  POIN2 Label_01005B15
//  #10 //032   ----------------------------------------
 BYTE   PATT
  POIN2 Label_01005B15
//  #10 //033   ----------------------------------------
 BYTE   PATT
  POIN2 Label_01005B15
//  #10 //034   ----------------------------------------
 BYTE   PATT
  POIN2 Label_01005AF8
//  #10 //035   ----------------------------------------
 BYTE   PATT
  POIN2 Label_01005B15
//  #10 //036   ----------------------------------------
 BYTE   PATT
  POIN2 Label_01005B15
//  #10 //037   ----------------------------------------
 BYTE   PATT
  POIN2 Label_01005B15
//  #10 //038   ----------------------------------------
 BYTE   PATT
  POIN2 Label_01005B15
//  #10 //039   ----------------------------------------
 BYTE   PATT
  POIN2 Label_01005B15
//  #10 //040   ----------------------------------------
 BYTE   PATT
  POIN2 Label_01005B15
//  #10 //041   ----------------------------------------
 BYTE   PATT
  POIN2 Label_01005B15
//  #10 //042   ----------------------------------------
 BYTE   PATT
  POIN2 Label_01005AF8
//  #10 //043   ----------------------------------------
 BYTE   PATT
  POIN2 Label_01005B15
//  #10 //044   ----------------------------------------
 BYTE   PATT
  POIN2 Label_01005B15
//  #10 //045   ----------------------------------------
 BYTE   PATT
  POIN2 Label_01005B15
//  #10 //046   ----------------------------------------
 BYTE   PATT
  POIN2 Label_01005B15
//  #10 //047   ----------------------------------------
 BYTE   PATT
  POIN2 Label_01005B15
//  #10 //048   ----------------------------------------
 BYTE   PATT
  POIN2 Label_01005B15
//  #10 //049   ----------------------------------------
 BYTE   PATT
  POIN2 Label_01005B15
//  #10 //050   ----------------------------------------
Label_01005BED:
 BYTE   N24  Cn1  v100
 BYTE   W24
 BYTE   N12
 BYTE   W12
 BYTE   Dn1
 BYTE   N12  Fs1
 BYTE   N12  As1
 BYTE   W24
 BYTE   Cn1
 BYTE   W12
 BYTE   Dn1
 BYTE   N12  Fs1
 BYTE   N12  As1
 BYTE   W24
 BYTE   PEND 
//  #10 //051   ----------------------------------------
Label_01005C02:
 BYTE   N24  Cn1  v100
 BYTE   W24
 BYTE   N12
 BYTE   W12
 BYTE   Dn1
 BYTE   N12  Fs1
 BYTE   N12  As1
 BYTE   W24
 BYTE   Cn1
 BYTE   W12
 BYTE   Dn1
 BYTE   N12  Fs1
 BYTE   N12  As1
 BYTE   W12
 BYTE   Cn1
 BYTE   W12
 BYTE   PEND 
//  #10 //052   ----------------------------------------
 BYTE   PATT
  POIN2 Label_01005BED
//  #10 //053   ----------------------------------------
 BYTE   PATT
  POIN2 Label_01005C02
//  #10 //054   ----------------------------------------
 BYTE   PATT
  POIN2 Label_01005B15
//  #10 //055   ----------------------------------------
 BYTE   PATT
  POIN2 Label_01005B15
//  #10 //056   ----------------------------------------
 BYTE   PATT
  POIN2 Label_01005B15
//  #10 //057   ----------------------------------------
 BYTE   PATT
  POIN2 Label_01005B15
//  #10 //058   ----------------------------------------
 BYTE   PATT
  POIN2 Label_01005BED
//  #10 //059   ----------------------------------------
 BYTE   PATT
  POIN2 Label_01005C02
//  #10 //060   ----------------------------------------
 BYTE   PATT
  POIN2 Label_01005BED
//  #10 //061   ----------------------------------------
 BYTE   PATT
  POIN2 Label_01005C02
//  #10 //062   ----------------------------------------
 BYTE   PATT
  POIN2 Label_01005B15
//  #10 //063   ----------------------------------------
 BYTE   PATT
  POIN2 Label_01005B15
//  #10 //064   ----------------------------------------
 BYTE   PATT
  POIN2 Label_01005B15
//  #10 //065   ----------------------------------------
 BYTE   PATT
  POIN2 Label_01005B15
//  #10 //066   ----------------------------------------
Label_01005C5F:
 BYTE   N12  Cn1  v100
 BYTE   W24
 BYTE   Ds1
 BYTE   W12
 BYTE   Cn1
 BYTE   W12
 BYTE   N12
 BYTE   W24
 BYTE   Ds1
 BYTE   W24
 BYTE   PEND 
//  #10 //067   ----------------------------------------
 BYTE   PATT
  POIN2 Label_01005C5F
//  #10 //068   ----------------------------------------
 BYTE   PATT
  POIN2 Label_01005C5F
//  #10 //069   ----------------------------------------
 BYTE   PATT
  POIN2 Label_01005C5F
//  #10 //070   ----------------------------------------
 BYTE   PATT
  POIN2 Label_01005C5F
//  #10 //071   ----------------------------------------
 BYTE   PATT
  POIN2 Label_01005C5F
//  #10 //072   ----------------------------------------
 BYTE   PATT
  POIN2 Label_01005C5F
//  #10 //073   ----------------------------------------
 BYTE   N12  Cn1  v100
 BYTE   W24
 BYTE   Ds1
 BYTE   W12
 BYTE   Cn1
 BYTE   W12
 BYTE   N12
 BYTE   N12  As1  v040
 BYTE   W12
 BYTE   Cn1  v100
 BYTE   N12  As1  v064
 BYTE   W12
 BYTE   Dn1  v100
 BYTE   N12  Ds1
 BYTE   N12  As1  v080
 BYTE   W12
 BYTE   N06  Dn1  v100
 BYTE   N12  As1
 BYTE   W06
 BYTE   N06  Dn1
 BYTE   W06
//  #10 //074   ----------------------------------------
 BYTE   PATT
  POIN2 Label_01005AF8
//  #10 //075   ----------------------------------------
 BYTE   PATT
  POIN2 Label_01005B15
//  #10 //076   ----------------------------------------
 BYTE   PATT
  POIN2 Label_01005B15
//  #10 //077   ----------------------------------------
 BYTE   PATT
  POIN2 Label_01005B15
//  #10 //078   ----------------------------------------
 BYTE   PATT
  POIN2 Label_01005B15
//  #10 //079   ----------------------------------------
 BYTE   PATT
  POIN2 Label_01005B15
//  #10 //080   ----------------------------------------
 BYTE   PATT
  POIN2 Label_01005B15
//  #10 //081   ----------------------------------------
 BYTE   PATT
  POIN2 Label_01005B15
//  #10 //082   ----------------------------------------
 BYTE   W96
//  #10 //083   ----------------------------------------
 BYTE   GoTo
  POIN2 Label_01005AF8
//  #10 //084   ----------------------------------------
 BYTE   PAN   c_v+0
 BYTE   VOL   42*IntoTheMind_mvl/mxv
 BYTE   BEND   c_v+0
 BYTE   W32
 BYTE   PAN   c_v+0
 BYTE   VOL   42*IntoTheMind_mvl/mxv
 BYTE   BEND   c_v+0
 BYTE   W01
 BYTE   PAN   c_v+0
 BYTE   VOL   42*IntoTheMind_mvl/mxv
 BYTE   BEND   c_v+0
 BYTE   FINE

//******************************************************//
	ALIGN 4

IntoTheMind:
	BYTE	10	// NumTrks
	BYTE	0	// NumBlks
	BYTE	IntoTheMind_pri	// Priority
	BYTE	IntoTheMind_rev	// Reverb.
    
	POIN2	IntoTheMind_grp
    
	POIN2	IntoTheMind_001
	POIN2	IntoTheMind_002
	POIN2	IntoTheMind_003
	POIN2	IntoTheMind_004
	POIN2	IntoTheMind_005
	POIN2	IntoTheMind_006
	POIN2	IntoTheMind_007
	POIN2	IntoTheMind_008
	POIN2	IntoTheMind_009
	POIN2	IntoTheMind_010

	
