	.include "MPlayDef.s"

	.equ	song04_grp, voicegroup000
	.equ	song04_pri, 0
	.equ	song04_rev, 0
	.equ	song04_mvl, 127
	.equ	song04_key, 0
	.equ	song04_tbs, 1
	.equ	song04_exg, 0
	.equ	song04_cmp, 1

	.section .rodata
	.global	song04
	.align	2


@**************** Track 1 (Midi-Chn.0) ****************@

song04_001:
@  #01 @000   ----------------------------------------
 .byte   KEYSH , song04_key+0
 .byte   TEMPO , 170*song04_tbs/2
 .byte   VOICE , 4
 .byte   PAN , c_v+0
 .byte   VOL , 42*song04_mvl/mxv
 .byte   PAN , c_v+0
 .byte   VOL , 42*song04_mvl/mxv
 .byte   PAN , c_v+0
 .byte   VOL , 42*song04_mvl/mxv
 .byte   PAN , c_v+0
 .byte   VOL , 42*song04_mvl/mxv
 .byte   PAN , c_v+0
 .byte   VOL , 42*song04_mvl/mxv
 .byte   PAN , c_v+0
 .byte   VOL , 42*song04_mvl/mxv
 .byte   BEND , c_v+0
 .byte   N06 ,Fs2 ,v100
 .byte   N06 ,An2
 .byte   W36
 .byte   Fs2
 .byte   N06 ,An2
 .byte   W36
 .byte   N12 ,Fs2
 .byte   W12
 .byte   Gs2
 .byte   W12
@  #01 @001   ----------------------------------------
Label_F8B9A7:
 .byte   N06 ,Fs2 ,v100
 .byte   N06 ,An2
 .byte   W36
 .byte   Fs2
 .byte   N06 ,An2
 .byte   W36
 .byte   N12 ,Fs2
 .byte   W12
 .byte   Gs2
 .byte   W12
 .byte   PEND 
@  #01 @002   ----------------------------------------
Label_F8B9B7:
 .byte   N06 ,An1 ,v100
 .byte   N06 ,En2
 .byte   W36
 .byte   An1
 .byte   N06 ,Fs2
 .byte   W36
 .byte   N12 ,En2
 .byte   W12
 .byte   Fs2
 .byte   W12
 .byte   PEND 
@  #01 @003   ----------------------------------------
Label_F8B9C7:
 .byte   N06 ,An1 ,v100
 .byte   N06 ,Fs2
 .byte   W36
 .byte   An1
 .byte   N06 ,En2
 .byte   W36
 .byte   N12 ,Bn1
 .byte   W12
 .byte   Cs2
 .byte   W12
 .byte   PEND 
@  #01 @004   ----------------------------------------
 .byte   PATT
  .word Label_F8B9A7
@  #01 @005   ----------------------------------------
 .byte   PATT
  .word Label_F8B9A7
@  #01 @006   ----------------------------------------
 .byte   PATT
  .word Label_F8B9B7
@  #01 @007   ----------------------------------------
Label_F8B9E6:
 .byte   N06 ,An1 ,v100
 .byte   N06 ,Fs2
 .byte   W48
 .byte   An1
 .byte   N06 ,En2
 .byte   W48
 .byte   PEND 
@  #01 @008   ----------------------------------------
 .byte   Fs2
 .byte   W24
 .byte   N06
 .byte   W24
 .byte   N06
 .byte   W24
 .byte   N06
 .byte   W24
@  #01 @009   ----------------------------------------
 .byte   Gs2
 .byte   W24
 .byte   As2
 .byte   W24
 .byte   Cs3
 .byte   W24
 .byte   Ds3
 .byte   W24
@  #01 @010   ----------------------------------------
Label_F8BA01:
@  #01 @011   ----------------------------------------
 .byte   PATT
  .word Label_F8B9A7
@  #01 @012   ----------------------------------------
 .byte   PATT
  .word Label_F8B9A7
@  #01 @013   ----------------------------------------
 .byte   PATT
  .word Label_F8B9B7
@  #01 @014   ----------------------------------------
 .byte   PATT
  .word Label_F8B9C7
@  #01 @015   ----------------------------------------
 .byte   PATT
  .word Label_F8B9A7
@  #01 @016   ----------------------------------------
 .byte   PATT
  .word Label_F8B9A7
@  #01 @017   ----------------------------------------
 .byte   PATT
  .word Label_F8B9B7
@  #01 @018   ----------------------------------------
 .byte   PATT
  .word Label_F8B9E6
@  #01 @019   ----------------------------------------
 .byte   W96
@  #01 @020   ----------------------------------------
 .byte   W96
@  #01 @021   ----------------------------------------
 .byte   W96
@  #01 @022   ----------------------------------------
 .byte   W96
@  #01 @023   ----------------------------------------
 .byte   W96
@  #01 @024   ----------------------------------------
 .byte   W96
@  #01 @025   ----------------------------------------
 .byte   W96
@  #01 @026   ----------------------------------------
 .byte   W96
@  #01 @027   ----------------------------------------
 .byte   W96
@  #01 @028   ----------------------------------------
 .byte   W96
@  #01 @029   ----------------------------------------
 .byte   W96
@  #01 @030   ----------------------------------------
 .byte   W96
@  #01 @031   ----------------------------------------
 .byte   W96
@  #01 @032   ----------------------------------------
 .byte   W96
@  #01 @033   ----------------------------------------
 .byte   W96
@  #01 @034   ----------------------------------------
 .byte   W96
@  #01 @035   ----------------------------------------
 .byte   W96
@  #01 @036   ----------------------------------------
 .byte   W96
@  #01 @037   ----------------------------------------
 .byte   W96
@  #01 @038   ----------------------------------------
 .byte   W96
@  #01 @039   ----------------------------------------
 .byte   W96
@  #01 @040   ----------------------------------------
 .byte   W96
@  #01 @041   ----------------------------------------
 .byte   W96
@  #01 @042   ----------------------------------------
 .byte   W96
@  #01 @043   ----------------------------------------
 .byte   W96
@  #01 @044   ----------------------------------------
 .byte   W96
@  #01 @045   ----------------------------------------
 .byte   W96
@  #01 @046   ----------------------------------------
 .byte   W96
@  #01 @047   ----------------------------------------
 .byte   W96
@  #01 @048   ----------------------------------------
 .byte   W96
@  #01 @049   ----------------------------------------
 .byte   W96
@  #01 @050   ----------------------------------------
 .byte   W96
@  #01 @051   ----------------------------------------
 .byte   W96
@  #01 @052   ----------------------------------------
 .byte   W96
@  #01 @053   ----------------------------------------
 .byte   W96
@  #01 @054   ----------------------------------------
 .byte   W96
@  #01 @055   ----------------------------------------
 .byte   W96
@  #01 @056   ----------------------------------------
 .byte   W96
@  #01 @057   ----------------------------------------
 .byte   W96
@  #01 @058   ----------------------------------------
 .byte   W96
@  #01 @059   ----------------------------------------
 .byte   W96
@  #01 @060   ----------------------------------------
 .byte   W96
@  #01 @061   ----------------------------------------
 .byte   W96
@  #01 @062   ----------------------------------------
 .byte   W96
@  #01 @063   ----------------------------------------
 .byte   W96
@  #01 @064   ----------------------------------------
 .byte   W96
@  #01 @065   ----------------------------------------
 .byte   W96
@  #01 @066   ----------------------------------------
 .byte   W96
@  #01 @067   ----------------------------------------
 .byte   W96
@  #01 @068   ----------------------------------------
 .byte   W96
@  #01 @069   ----------------------------------------
 .byte   W96
@  #01 @070   ----------------------------------------
 .byte   W96
@  #01 @071   ----------------------------------------
 .byte   W96
@  #01 @072   ----------------------------------------
 .byte   W96
@  #01 @073   ----------------------------------------
 .byte   W96
@  #01 @074   ----------------------------------------
 .byte   W96
@  #01 @075   ----------------------------------------
 .byte   W96
@  #01 @076   ----------------------------------------
 .byte   W96
@  #01 @077   ----------------------------------------
 .byte   W96
@  #01 @078   ----------------------------------------
 .byte   W96
@  #01 @079   ----------------------------------------
 .byte   W96
@  #01 @080   ----------------------------------------
 .byte   W96
@  #01 @081   ----------------------------------------
 .byte   W96
@  #01 @082   ----------------------------------------
 .byte   W96
@  #01 @083   ----------------------------------------
 .byte   W96
@  #01 @084   ----------------------------------------
 .byte   GOTO
  .word Label_F8BA01
@  #01 @085   ----------------------------------------
 .byte   PAN , c_v+0
 .byte   VOL , 42*song04_mvl/mxv
 .byte   BEND , c_v+0
 .byte   W32
 .byte   TEMPO , 170*song04_tbs/2
 .byte   PAN , c_v+0
 .byte   VOL , 42*song04_mvl/mxv
 .byte   BEND , c_v+0
 .byte   W01
 .byte   PAN , c_v+0
 .byte   VOL , 42*song04_mvl/mxv
 .byte   BEND , c_v+0
 .byte   FINE

@**************** Track 2 (Midi-Chn.1) ****************@

song04_002:
@  #02 @000   ----------------------------------------
 .byte   KEYSH , song04_key+0
 .byte   VOICE , 81
 .byte   PAN , c_v+0
 .byte   VOL , 42*song04_mvl/mxv
 .byte   PAN , c_v+0
 .byte   VOL , 42*song04_mvl/mxv
 .byte   PAN , c_v+0
 .byte   VOL , 42*song04_mvl/mxv
 .byte   PAN , c_v+0
 .byte   VOL , 42*song04_mvl/mxv
 .byte   PAN , c_v+0
 .byte   VOL , 42*song04_mvl/mxv
 .byte   PAN , c_v+0
 .byte   VOL , 42*song04_mvl/mxv
 .byte   BEND , c_v+0
 .byte   W96
@  #02 @001   ----------------------------------------
 .byte   W96
@  #02 @002   ----------------------------------------
 .byte   W96
@  #02 @003   ----------------------------------------
 .byte   W96
@  #02 @004   ----------------------------------------
 .byte   W96
@  #02 @005   ----------------------------------------
 .byte   W96
@  #02 @006   ----------------------------------------
 .byte   W96
@  #02 @007   ----------------------------------------
 .byte   W96
@  #02 @008   ----------------------------------------
 .byte   W96
@  #02 @009   ----------------------------------------
 .byte   N06 ,Gs2 ,v032
 .byte   W24
 .byte   As2 ,v056
 .byte   W24
 .byte   Cs3 ,v084
 .byte   W24
 .byte   Ds3 ,v100
 .byte   W24
@  #02 @010   ----------------------------------------
Label_01004D2C:
 .byte   N12 ,Fs2 ,v100
 .byte   N12 ,An2
 .byte   W36
 .byte   Fs2
 .byte   N12 ,An2
 .byte   W36
 .byte   Fs2
 .byte   W12
 .byte   Gs2
 .byte   W12
 .byte   PEND 
@  #02 @011   ----------------------------------------
 .byte   PATT
  .word Label_01004D2C
@  #02 @012   ----------------------------------------
Label_01004D40:
 .byte   N12 ,An1 ,v100
 .byte   N12 ,En2
 .byte   W36
 .byte   An1
 .byte   N12 ,Fs2
 .byte   W36
 .byte   En2
 .byte   W12
 .byte   Fs2
 .byte   W12
 .byte   PEND 
@  #02 @013   ----------------------------------------
Label_01004D4F:
 .byte   N12 ,An1 ,v100
 .byte   N12 ,Fs2
 .byte   W36
 .byte   An1
 .byte   N12 ,En2
 .byte   W36
 .byte   Bn1
 .byte   W12
 .byte   Cs2
 .byte   W12
 .byte   PEND 
@  #02 @014   ----------------------------------------
 .byte   PATT
  .word Label_01004D2C
@  #02 @015   ----------------------------------------
 .byte   PATT
  .word Label_01004D2C
@  #02 @016   ----------------------------------------
 .byte   PATT
  .word Label_01004D40
@  #02 @017   ----------------------------------------
 .byte   N12 ,An1 ,v100
 .byte   N12 ,Fs2
 .byte   W48
 .byte   An1
 .byte   N12 ,En2
 .byte   W48
@  #02 @018   ----------------------------------------
 .byte   PATT
  .word Label_01004D2C
@  #02 @019   ----------------------------------------
 .byte   PATT
  .word Label_01004D2C
@  #02 @020   ----------------------------------------
 .byte   PATT
  .word Label_01004D40
@  #02 @021   ----------------------------------------
 .byte   PATT
  .word Label_01004D4F
@  #02 @022   ----------------------------------------
Label_01004D8B:
 .byte   N12 ,Fs2 ,v100
 .byte   N12 ,An2
 .byte   W36
 .byte   Fs2
 .byte   N12 ,An2
 .byte   W36
 .byte   An0
 .byte   W12
 .byte   Bn0
 .byte   W12
 .byte   PEND 
@  #02 @023   ----------------------------------------
Label_01004D9A:
 .byte   N12 ,Cs1 ,v100
 .byte   W12
 .byte   Bn0
 .byte   W12
 .byte   Cs1
 .byte   W12
 .byte   N36 ,En1
 .byte   W36
 .byte   N24 ,Fs1
 .byte   W24
 .byte   PEND 
@  #02 @024   ----------------------------------------
Label_01004DA9:
 .byte   N60 ,Cs1 ,v100
 .byte   W60
 .byte   N12
 .byte   W12
 .byte   En1
 .byte   W12
 .byte   Fs1
 .byte   W12
 .byte   PEND 
@  #02 @025   ----------------------------------------
Label_01004DB4:
 .byte   N36 ,Gs1 ,v100
 .byte   W36
 .byte   N60 ,En1
 .byte   W60
 .byte   PEND 
@  #02 @026   ----------------------------------------
 .byte   PATT
  .word Label_01004D2C
@  #02 @027   ----------------------------------------
 .byte   PATT
  .word Label_01004D2C
@  #02 @028   ----------------------------------------
 .byte   PATT
  .word Label_01004D40
@  #02 @029   ----------------------------------------
 .byte   PATT
  .word Label_01004D4F
@  #02 @030   ----------------------------------------
 .byte   PATT
  .word Label_01004D8B
@  #02 @031   ----------------------------------------
 .byte   PATT
  .word Label_01004D9A
@  #02 @032   ----------------------------------------
 .byte   PATT
  .word Label_01004DA9
@  #02 @033   ----------------------------------------
 .byte   PATT
  .word Label_01004DB4
@  #02 @034   ----------------------------------------
 .byte   PATT
  .word Label_01004D2C
@  #02 @035   ----------------------------------------
 .byte   PATT
  .word Label_01004D2C
@  #02 @036   ----------------------------------------
 .byte   PATT
  .word Label_01004D40
@  #02 @037   ----------------------------------------
 .byte   PATT
  .word Label_01004D4F
@  #02 @038   ----------------------------------------
 .byte   PATT
  .word Label_01004D8B
@  #02 @039   ----------------------------------------
 .byte   PATT
  .word Label_01004D9A
@  #02 @040   ----------------------------------------
 .byte   PATT
  .word Label_01004DA9
@  #02 @041   ----------------------------------------
 .byte   PATT
  .word Label_01004DB4
@  #02 @042   ----------------------------------------
 .byte   PATT
  .word Label_01004D2C
@  #02 @043   ----------------------------------------
 .byte   PATT
  .word Label_01004D2C
@  #02 @044   ----------------------------------------
 .byte   PATT
  .word Label_01004D40
@  #02 @045   ----------------------------------------
 .byte   PATT
  .word Label_01004D4F
@  #02 @046   ----------------------------------------
 .byte   PATT
  .word Label_01004D8B
@  #02 @047   ----------------------------------------
 .byte   PATT
  .word Label_01004D9A
@  #02 @048   ----------------------------------------
 .byte   PATT
  .word Label_01004DA9
@  #02 @049   ----------------------------------------
 .byte   PATT
  .word Label_01004DB4
@  #02 @050   ----------------------------------------
 .byte   N96 ,An1 ,v100
 .byte   N96 ,An2
 .byte   W96
@  #02 @051   ----------------------------------------
 .byte   An1
 .byte   N96 ,An2
 .byte   W96
@  #02 @052   ----------------------------------------
 .byte   Bn1
 .byte   N96 ,Bn2
 .byte   W96
@  #02 @053   ----------------------------------------
 .byte   Bn1
 .byte   N96 ,Bn2
 .byte   W96
@  #02 @054   ----------------------------------------
Label_01004E46:
 .byte   W24
 .byte   N06 ,Bn2 ,v100
 .byte   W12
 .byte   An2
 .byte   W12
 .byte   Bn2
 .byte   W12
 .byte   N06
 .byte   W12
 .byte   An2
 .byte   W12
 .byte   Bn2
 .byte   W12
 .byte   PEND 
@  #02 @055   ----------------------------------------
Label_01004E56:
 .byte   W12
 .byte   N06 ,Bn2 ,v100
 .byte   W24
 .byte   An2
 .byte   W12
 .byte   Bn2
 .byte   W12
 .byte   Cs3
 .byte   W36
 .byte   PEND 
@  #02 @056   ----------------------------------------
 .byte   PATT
  .word Label_01004E46
@  #02 @057   ----------------------------------------
Label_01004E67:
 .byte   W12
 .byte   N06 ,Bn2 ,v100
 .byte   W24
 .byte   An2
 .byte   W12
 .byte   En3
 .byte   W12
 .byte   Bn2
 .byte   W12
 .byte   N24 ,Cs3
 .byte   W24
 .byte   PEND 
@  #02 @058   ----------------------------------------
 .byte   N96 ,An1
 .byte   N96 ,An2
 .byte   W96
@  #02 @059   ----------------------------------------
 .byte   An1
 .byte   N96 ,An2
 .byte   W96
@  #02 @060   ----------------------------------------
 .byte   Bn1
 .byte   N96 ,Bn2
 .byte   W96
@  #02 @061   ----------------------------------------
 .byte   Bn1
 .byte   N96 ,Bn2
 .byte   W96
@  #02 @062   ----------------------------------------
 .byte   PATT
  .word Label_01004E46
@  #02 @063   ----------------------------------------
 .byte   PATT
  .word Label_01004E56
@  #02 @064   ----------------------------------------
 .byte   PATT
  .word Label_01004E46
@  #02 @065   ----------------------------------------
 .byte   PATT
  .word Label_01004E67
@  #02 @066   ----------------------------------------
 .byte   W96
@  #02 @067   ----------------------------------------
 .byte   W96
@  #02 @068   ----------------------------------------
 .byte   W96
@  #02 @069   ----------------------------------------
 .byte   W96
@  #02 @070   ----------------------------------------
 .byte   W96
@  #02 @071   ----------------------------------------
 .byte   W96
@  #02 @072   ----------------------------------------
 .byte   W96
@  #02 @073   ----------------------------------------
 .byte   W60
 .byte   N12 ,Cs3 ,v100
 .byte   W12
 .byte   N06 ,An2
 .byte   W06
 .byte   Fs2
 .byte   W06
 .byte   En2
 .byte   W12
@  #02 @074   ----------------------------------------
Label_01004EAE:
 .byte   N36 ,An2 ,v100
 .byte   W36
 .byte   N12 ,Gs2
 .byte   W12
 .byte   N36 ,Ds2
 .byte   W36
 .byte   N12 ,Cs2
 .byte   W12
 .byte   PEND 
@  #02 @075   ----------------------------------------
Label_01004EBC:
 .byte   N12 ,En2 ,v100
 .byte   W12
 .byte   Fs2
 .byte   W12
 .byte   N72
 .byte   W72
 .byte   PEND 
@  #02 @076   ----------------------------------------
 .byte   PATT
  .word Label_01004EAE
@  #02 @077   ----------------------------------------
Label_01004ECA:
 .byte   N12 ,Cs3 ,v100
 .byte   W12
 .byte   Bn2
 .byte   W12
 .byte   N72
 .byte   W72
 .byte   PEND 
@  #02 @078   ----------------------------------------
 .byte   PATT
  .word Label_01004EAE
@  #02 @079   ----------------------------------------
 .byte   PATT
  .word Label_01004EBC
@  #02 @080   ----------------------------------------
 .byte   PATT
  .word Label_01004EAE
@  #02 @081   ----------------------------------------
 .byte   PATT
  .word Label_01004ECA
@  #02 @082   ----------------------------------------
 .byte   W96
@  #02 @083   ----------------------------------------
 .byte   GOTO
  .word Label_01004D2C
@  #02 @084   ----------------------------------------
 .byte   VOICE , 81
 .byte   PAN , c_v+0
 .byte   VOL , 42*song04_mvl/mxv
 .byte   BEND , c_v+0
 .byte   W32
 .byte   VOICE , 81
 .byte   PAN , c_v+0
 .byte   VOL , 42*song04_mvl/mxv
 .byte   BEND , c_v+0
 .byte   W01
 .byte   VOICE , 81
 .byte   PAN , c_v+0
 .byte   VOL , 42*song04_mvl/mxv
 .byte   BEND , c_v+0
 .byte   FINE

@**************** Track 3 (Midi-Chn.2) ****************@

song04_003:
@  #03 @000   ----------------------------------------
 .byte   KEYSH , song04_key+0
 .byte   VOICE , 40
 .byte   PAN , c_v+0
 .byte   VOL , 42*song04_mvl/mxv
 .byte   PAN , c_v+0
 .byte   VOL , 42*song04_mvl/mxv
 .byte   PAN , c_v+0
 .byte   VOL , 42*song04_mvl/mxv
 .byte   PAN , c_v+0
 .byte   VOL , 42*song04_mvl/mxv
 .byte   PAN , c_v+0
 .byte   VOL , 42*song04_mvl/mxv
 .byte   PAN , c_v+0
 .byte   VOL , 42*song04_mvl/mxv
 .byte   BEND , c_v+0
 .byte   W96
@  #03 @001   ----------------------------------------
 .byte   W96
@  #03 @002   ----------------------------------------
 .byte   W96
@  #03 @003   ----------------------------------------
 .byte   W96
@  #03 @004   ----------------------------------------
 .byte   W96
@  #03 @005   ----------------------------------------
 .byte   W96
@  #03 @006   ----------------------------------------
 .byte   W96
@  #03 @007   ----------------------------------------
 .byte   W96
@  #03 @008   ----------------------------------------
 .byte   W96
@  #03 @009   ----------------------------------------
 .byte   W96
@  #03 @010   ----------------------------------------
Label_01004F40:
 .byte   N12 ,Fs2 ,v100
 .byte   N12 ,An2
 .byte   W36
 .byte   Fs2
 .byte   N12 ,An2
 .byte   W36
 .byte   Fs2
 .byte   W12
 .byte   Gs2
 .byte   W12
 .byte   PEND 
@  #03 @011   ----------------------------------------
 .byte   PATT
  .word Label_01004F40
@  #03 @012   ----------------------------------------
Label_01004F54:
 .byte   N12 ,An1 ,v100
 .byte   N12 ,En2
 .byte   W36
 .byte   An1
 .byte   N12 ,Fs2
 .byte   W36
 .byte   En2
 .byte   W12
 .byte   Fs2
 .byte   W12
 .byte   PEND 
@  #03 @013   ----------------------------------------
Label_01004F63:
 .byte   N12 ,An1 ,v100
 .byte   N12 ,Fs2
 .byte   W36
 .byte   An1
 .byte   N12 ,En2
 .byte   W36
 .byte   Bn1
 .byte   W12
 .byte   Cs2
 .byte   W12
 .byte   PEND 
@  #03 @014   ----------------------------------------
 .byte   PATT
  .word Label_01004F40
@  #03 @015   ----------------------------------------
 .byte   PATT
  .word Label_01004F40
@  #03 @016   ----------------------------------------
 .byte   PATT
  .word Label_01004F54
@  #03 @017   ----------------------------------------
 .byte   N12 ,An1 ,v100
 .byte   N12 ,Fs2
 .byte   W48
 .byte   An1
 .byte   N12 ,En2
 .byte   W48
@  #03 @018   ----------------------------------------
 .byte   PATT
  .word Label_01004F40
@  #03 @019   ----------------------------------------
 .byte   PATT
  .word Label_01004F40
@  #03 @020   ----------------------------------------
 .byte   PATT
  .word Label_01004F54
@  #03 @021   ----------------------------------------
 .byte   PATT
  .word Label_01004F63
@  #03 @022   ----------------------------------------
Label_01004F9F:
 .byte   N12 ,Fs2 ,v100
 .byte   N12 ,An2
 .byte   W36
 .byte   Fs2
 .byte   N12 ,An2
 .byte   W36
 .byte   N12
 .byte   W12
 .byte   Bn2
 .byte   W12
 .byte   PEND 
@  #03 @023   ----------------------------------------
Label_01004FAE:
 .byte   N12 ,Cs3 ,v100
 .byte   W12
 .byte   Bn2
 .byte   W12
 .byte   Cs3
 .byte   W12
 .byte   N36 ,En3
 .byte   W36
 .byte   N24 ,Fs3
 .byte   W24
 .byte   PEND 
@  #03 @024   ----------------------------------------
Label_01004FBD:
 .byte   N60 ,Cs3 ,v100
 .byte   W60
 .byte   N12
 .byte   W12
 .byte   En3
 .byte   W12
 .byte   Fs3
 .byte   W12
 .byte   PEND 
@  #03 @025   ----------------------------------------
Label_01004FC8:
 .byte   N36 ,Gs3 ,v100
 .byte   W36
 .byte   N60 ,En3
 .byte   W60
 .byte   PEND 
@  #03 @026   ----------------------------------------
 .byte   PATT
  .word Label_01004F40
@  #03 @027   ----------------------------------------
 .byte   PATT
  .word Label_01004F40
@  #03 @028   ----------------------------------------
 .byte   PATT
  .word Label_01004F54
@  #03 @029   ----------------------------------------
 .byte   PATT
  .word Label_01004F63
@  #03 @030   ----------------------------------------
 .byte   PATT
  .word Label_01004F9F
@  #03 @031   ----------------------------------------
 .byte   PATT
  .word Label_01004FAE
@  #03 @032   ----------------------------------------
 .byte   PATT
  .word Label_01004FBD
@  #03 @033   ----------------------------------------
 .byte   PATT
  .word Label_01004FC8
@  #03 @034   ----------------------------------------
 .byte   PATT
  .word Label_01004F40
@  #03 @035   ----------------------------------------
 .byte   PATT
  .word Label_01004F40
@  #03 @036   ----------------------------------------
 .byte   PATT
  .word Label_01004F54
@  #03 @037   ----------------------------------------
 .byte   PATT
  .word Label_01004F63
@  #03 @038   ----------------------------------------
 .byte   PATT
  .word Label_01004F9F
@  #03 @039   ----------------------------------------
 .byte   PATT
  .word Label_01004FAE
@  #03 @040   ----------------------------------------
 .byte   PATT
  .word Label_01004FBD
@  #03 @041   ----------------------------------------
 .byte   PATT
  .word Label_01004FC8
@  #03 @042   ----------------------------------------
 .byte   PATT
  .word Label_01004F40
@  #03 @043   ----------------------------------------
 .byte   PATT
  .word Label_01004F40
@  #03 @044   ----------------------------------------
 .byte   PATT
  .word Label_01004F54
@  #03 @045   ----------------------------------------
 .byte   PATT
  .word Label_01004F63
@  #03 @046   ----------------------------------------
 .byte   PATT
  .word Label_01004F9F
@  #03 @047   ----------------------------------------
 .byte   PATT
  .word Label_01004FAE
@  #03 @048   ----------------------------------------
 .byte   PATT
  .word Label_01004FBD
@  #03 @049   ----------------------------------------
 .byte   PATT
  .word Label_01004FC8
@  #03 @050   ----------------------------------------
 .byte   N96 ,An2 ,v100
 .byte   N96 ,An3
 .byte   W96
@  #03 @051   ----------------------------------------
 .byte   An2
 .byte   N96 ,An3
 .byte   W96
@  #03 @052   ----------------------------------------
 .byte   Bn2
 .byte   N96 ,Bn3
 .byte   W96
@  #03 @053   ----------------------------------------
 .byte   Bn2
 .byte   N96 ,Bn3
 .byte   W96
@  #03 @054   ----------------------------------------
Label_0100505A:
 .byte   W24
 .byte   N06 ,Bn3 ,v100
 .byte   W12
 .byte   An3
 .byte   W12
 .byte   Bn3
 .byte   W12
 .byte   N06
 .byte   W12
 .byte   An3
 .byte   W12
 .byte   Bn3
 .byte   W12
 .byte   PEND 
@  #03 @055   ----------------------------------------
Label_0100506A:
 .byte   W12
 .byte   N06 ,Bn3 ,v100
 .byte   W24
 .byte   An3
 .byte   W12
 .byte   Bn3
 .byte   W12
 .byte   Cs4
 .byte   W36
 .byte   PEND 
@  #03 @056   ----------------------------------------
 .byte   PATT
  .word Label_0100505A
@  #03 @057   ----------------------------------------
Label_0100507B:
 .byte   W12
 .byte   N06 ,Bn3 ,v100
 .byte   W24
 .byte   An3
 .byte   W12
 .byte   En4
 .byte   W12
 .byte   Bn3
 .byte   W12
 .byte   N24 ,Cs4
 .byte   W24
 .byte   PEND 
@  #03 @058   ----------------------------------------
 .byte   N96 ,An2
 .byte   N96 ,An3
 .byte   W96
@  #03 @059   ----------------------------------------
 .byte   An2
 .byte   N96 ,An3
 .byte   W96
@  #03 @060   ----------------------------------------
 .byte   Bn2
 .byte   N96 ,Bn3
 .byte   W96
@  #03 @061   ----------------------------------------
 .byte   Bn2
 .byte   N96 ,Bn3
 .byte   W96
@  #03 @062   ----------------------------------------
 .byte   PATT
  .word Label_0100505A
@  #03 @063   ----------------------------------------
 .byte   PATT
  .word Label_0100506A
@  #03 @064   ----------------------------------------
 .byte   PATT
  .word Label_0100505A
@  #03 @065   ----------------------------------------
 .byte   PATT
  .word Label_0100507B
@  #03 @066   ----------------------------------------
 .byte   W96
@  #03 @067   ----------------------------------------
 .byte   W96
@  #03 @068   ----------------------------------------
 .byte   W96
@  #03 @069   ----------------------------------------
 .byte   W96
@  #03 @070   ----------------------------------------
 .byte   W96
@  #03 @071   ----------------------------------------
 .byte   W96
@  #03 @072   ----------------------------------------
 .byte   W96
@  #03 @073   ----------------------------------------
 .byte   W60
 .byte   N12 ,Cs4 ,v100
 .byte   W12
 .byte   N06 ,An3
 .byte   W06
 .byte   Fs3
 .byte   W06
 .byte   En3
 .byte   W12
@  #03 @074   ----------------------------------------
Label_010050C2:
 .byte   N36 ,An3 ,v100
 .byte   W36
 .byte   N12 ,Gs3
 .byte   W12
 .byte   N36 ,Ds3
 .byte   W36
 .byte   N12 ,Cs3
 .byte   W12
 .byte   PEND 
@  #03 @075   ----------------------------------------
Label_010050D0:
 .byte   N12 ,En3 ,v100
 .byte   W12
 .byte   Fs3
 .byte   W12
 .byte   N72
 .byte   W72
 .byte   PEND 
@  #03 @076   ----------------------------------------
 .byte   PATT
  .word Label_010050C2
@  #03 @077   ----------------------------------------
Label_010050DE:
 .byte   N12 ,Cs4 ,v100
 .byte   W12
 .byte   Bn3
 .byte   W12
 .byte   N72
 .byte   W72
 .byte   PEND 
@  #03 @078   ----------------------------------------
 .byte   PATT
  .word Label_010050C2
@  #03 @079   ----------------------------------------
 .byte   PATT
  .word Label_010050D0
@  #03 @080   ----------------------------------------
 .byte   PATT
  .word Label_010050C2
@  #03 @081   ----------------------------------------
 .byte   PATT
  .word Label_010050DE
@  #03 @082   ----------------------------------------
 .byte   W96
@  #03 @083   ----------------------------------------
 .byte   GOTO
  .word Label_01004F40
@  #03 @084   ----------------------------------------
 .byte   PAN , c_v+0
 .byte   VOL , 42*song04_mvl/mxv
 .byte   BEND , c_v+0
 .byte   W32
 .byte   PAN , c_v+0
 .byte   VOL , 42*song04_mvl/mxv
 .byte   BEND , c_v+0
 .byte   W01
 .byte   PAN , c_v+0
 .byte   VOL , 42*song04_mvl/mxv
 .byte   BEND , c_v+0
 .byte   FINE

@**************** Track 4 (Midi-Chn.3) ****************@

song04_004:
@  #04 @000   ----------------------------------------
 .byte   KEYSH , song04_key+0
 .byte   VOICE , 80
 .byte   PAN , c_v+0
 .byte   VOL , 42*song04_mvl/mxv
 .byte   PAN , c_v+0
 .byte   VOL , 42*song04_mvl/mxv
 .byte   PAN , c_v+0
 .byte   VOL , 42*song04_mvl/mxv
 .byte   PAN , c_v+0
 .byte   VOL , 42*song04_mvl/mxv
 .byte   PAN , c_v+0
 .byte   VOL , 42*song04_mvl/mxv
 .byte   PAN , c_v+0
 .byte   VOL , 42*song04_mvl/mxv
 .byte   BEND , c_v+0
 .byte   W96
@  #04 @001   ----------------------------------------
 .byte   W96
@  #04 @002   ----------------------------------------
 .byte   W96
@  #04 @003   ----------------------------------------
 .byte   W96
@  #04 @004   ----------------------------------------
 .byte   W96
@  #04 @005   ----------------------------------------
 .byte   W96
@  #04 @006   ----------------------------------------
 .byte   W96
@  #04 @007   ----------------------------------------
 .byte   W96
@  #04 @008   ----------------------------------------
 .byte   W96
@  #04 @009   ----------------------------------------
 .byte   W96
@  #04 @010   ----------------------------------------
Label_01005150:
 .byte   W96
@  #04 @011   ----------------------------------------
 .byte   W96
@  #04 @012   ----------------------------------------
 .byte   W96
@  #04 @013   ----------------------------------------
 .byte   W96
@  #04 @014   ----------------------------------------
 .byte   W96
@  #04 @015   ----------------------------------------
 .byte   W96
@  #04 @016   ----------------------------------------
 .byte   W96
@  #04 @017   ----------------------------------------
 .byte   W96
@  #04 @018   ----------------------------------------
Label_01005158:
 .byte   N36 ,An3 ,v100
 .byte   W36
 .byte   Cs4
 .byte   W36
 .byte   N24 ,En4
 .byte   W24
 .byte   PEND 
@  #04 @019   ----------------------------------------
Label_01005162:
 .byte   N72 ,Gs4 ,v100
 .byte   W72
 .byte   N12 ,En4
 .byte   W12
 .byte   N72 ,Cs4
 .byte   W12
 .byte   PEND 
@  #04 @020   ----------------------------------------
Label_0100516D:
 .byte   W60
 .byte   N12 ,Cs4 ,v100
 .byte   W12
 .byte   Bn3
 .byte   W12
 .byte   N24 ,An3
 .byte   W12
 .byte   PEND 
@  #04 @021   ----------------------------------------
Label_01005178:
 .byte   W12
 .byte   N12 ,Gs3 ,v100
 .byte   W12
 .byte   Bn3
 .byte   W12
 .byte   N36 ,En4
 .byte   W36
 .byte   N24 ,Dn4
 .byte   W24
 .byte   PEND 
@  #04 @022   ----------------------------------------
 .byte   N96 ,Cs4
 .byte   W96
@  #04 @023   ----------------------------------------
 .byte   Ds4 ,v040
 .byte   W96
@  #04 @024   ----------------------------------------
 .byte   En4
 .byte   W96
@  #04 @025   ----------------------------------------
 .byte   Fs4 ,v044
 .byte   W96
@  #04 @026   ----------------------------------------
 .byte   PATT
  .word Label_01005158
@  #04 @027   ----------------------------------------
Label_01005196:
 .byte   N72 ,Gs4 ,v100
 .byte   W72
 .byte   N12 ,En4
 .byte   W12
 .byte   N72 ,An4
 .byte   W12
 .byte   PEND 
@  #04 @028   ----------------------------------------
 .byte   PATT
  .word Label_0100516D
@  #04 @029   ----------------------------------------
 .byte   PATT
  .word Label_01005178
@  #04 @030   ----------------------------------------
 .byte   N96 ,Cs4 ,v100
 .byte   W96
@  #04 @031   ----------------------------------------
 .byte   Ds4 ,v040
 .byte   W96
@  #04 @032   ----------------------------------------
 .byte   En4
 .byte   W96
@  #04 @033   ----------------------------------------
 .byte   Fs4 ,v044
 .byte   W96
@  #04 @034   ----------------------------------------
 .byte   PATT
  .word Label_01005158
@  #04 @035   ----------------------------------------
 .byte   PATT
  .word Label_01005162
@  #04 @036   ----------------------------------------
 .byte   PATT
  .word Label_0100516D
@  #04 @037   ----------------------------------------
 .byte   PATT
  .word Label_01005178
@  #04 @038   ----------------------------------------
 .byte   N96 ,Cs4 ,v100
 .byte   W96
@  #04 @039   ----------------------------------------
 .byte   Ds4 ,v040
 .byte   W96
@  #04 @040   ----------------------------------------
 .byte   En4
 .byte   W96
@  #04 @041   ----------------------------------------
 .byte   Fs4 ,v044
 .byte   W96
@  #04 @042   ----------------------------------------
 .byte   PATT
  .word Label_01005158
@  #04 @043   ----------------------------------------
 .byte   PATT
  .word Label_01005196
@  #04 @044   ----------------------------------------
 .byte   PATT
  .word Label_0100516D
@  #04 @045   ----------------------------------------
 .byte   PATT
  .word Label_01005178
@  #04 @046   ----------------------------------------
 .byte   N96 ,Cs4 ,v100
 .byte   W96
@  #04 @047   ----------------------------------------
 .byte   Ds4 ,v040
 .byte   W96
@  #04 @048   ----------------------------------------
 .byte   En4
 .byte   W96
@  #04 @049   ----------------------------------------
 .byte   Fs4 ,v044
 .byte   W96
@  #04 @050   ----------------------------------------
Label_010051F7:
 .byte   N36 ,An3 ,v100
 .byte   W36
 .byte   Cs4
 .byte   W36
 .byte   N12 ,Fs4
 .byte   W24
 .byte   PEND 
@  #04 @051   ----------------------------------------
Label_01005201:
 .byte   N72 ,En4 ,v100
 .byte   W72
 .byte   N12 ,An3
 .byte   W12
 .byte   N84 ,Bn3
 .byte   W12
 .byte   PEND 
@  #04 @052   ----------------------------------------
 .byte   W72
 .byte   N24 ,An3
 .byte   W24
@  #04 @053   ----------------------------------------
Label_01005210:
 .byte   N36 ,En4 ,v100
 .byte   W36
 .byte   An3
 .byte   W36
 .byte   N24 ,Cs4
 .byte   W24
 .byte   PEND 
@  #04 @054   ----------------------------------------
 .byte   N96 ,Bn3
 .byte   W96
@  #04 @055   ----------------------------------------
 .byte   TIE ,Bn3 ,v008
 .byte   W96
@  #04 @056   ----------------------------------------
 .byte   W96
@  #04 @057   ----------------------------------------
 .byte   W96
@  #04 @058   ----------------------------------------
 .byte   EOT
@  #04 @059   ----------------------------------------
 .byte   PATT
  .word Label_010051F7
@  #04 @060   ----------------------------------------
 .byte   PATT
  .word Label_01005201
@  #04 @061   ----------------------------------------
 .byte   W72
 .byte   N24 ,An3 ,v100
 .byte   W24
@  #04 @062   ----------------------------------------
 .byte   PATT
  .word Label_01005210
@  #04 @063   ----------------------------------------
 .byte   N96 ,Bn3 ,v100
 .byte   W96
@  #04 @064   ----------------------------------------
 .byte   TIE ,Bn3 ,v008
 .byte   W96
@  #04 @065   ----------------------------------------
 .byte   W96
@  #04 @066   ----------------------------------------
 .byte   W96
@  #04 @067   ----------------------------------------
 .byte   EOT
 .byte   W96
@  #04 @068   ----------------------------------------
 .byte   W96
@  #04 @069   ----------------------------------------
 .byte   W96
@  #04 @070   ----------------------------------------
 .byte   W96
@  #04 @071   ----------------------------------------
 .byte   W96
@  #04 @072   ----------------------------------------
 .byte   W96
@  #04 @073   ----------------------------------------
 .byte   N12 ,Gs4 ,v020
 .byte   W12
 .byte   Gs4 ,v036
 .byte   W12
 .byte   Gs4 ,v044
 .byte   W12
 .byte   Gs4 ,v052
 .byte   W12
 .byte   Gs4 ,v056
 .byte   W12
 .byte   Gs4 ,v060
 .byte   W12
 .byte   Gs4 ,v068
 .byte   W12
 .byte   Gs4 ,v084
 .byte   W12
@  #04 @074   ----------------------------------------
 .byte   Gs4 ,v096
 .byte   W24
 .byte   N12
 .byte   W24
 .byte   N12
 .byte   W24
 .byte   N12
 .byte   W24
@  #04 @075   ----------------------------------------
 .byte   W96
@  #04 @076   ----------------------------------------
 .byte   W96
@  #04 @077   ----------------------------------------
 .byte   W96
@  #04 @078   ----------------------------------------
 .byte   W96
@  #04 @079   ----------------------------------------
 .byte   W96
@  #04 @080   ----------------------------------------
 .byte   W96
@  #04 @081   ----------------------------------------
 .byte   W96
@  #04 @082   ----------------------------------------
 .byte   W96
@  #04 @083   ----------------------------------------
 .byte   W96
@  #04 @084   ----------------------------------------
 .byte   GOTO
  .word Label_01005150
@  #04 @085   ----------------------------------------
 .byte   VOICE , 80
 .byte   PAN , c_v+0
 .byte   VOL , 42*song04_mvl/mxv
 .byte   BEND , c_v+0
 .byte   W32
 .byte   VOICE , 80
 .byte   PAN , c_v+0
 .byte   VOL , 42*song04_mvl/mxv
 .byte   BEND , c_v+0
 .byte   W01
 .byte   VOICE , 80
 .byte   PAN , c_v+0
 .byte   VOL , 42*song04_mvl/mxv
 .byte   BEND , c_v+0
 .byte   FINE

@**************** Track 5 (Midi-Chn.4) ****************@

song04_005:
@  #05 @000   ----------------------------------------
 .byte   KEYSH , song04_key+0
 .byte   VOICE , 86
 .byte   PAN , c_v+0
 .byte   VOL , 42*song04_mvl/mxv
 .byte   PAN , c_v+0
 .byte   VOL , 42*song04_mvl/mxv
 .byte   PAN , c_v+0
 .byte   VOL , 42*song04_mvl/mxv
 .byte   PAN , c_v+0
 .byte   VOL , 42*song04_mvl/mxv
 .byte   PAN , c_v+0
 .byte   VOL , 42*song04_mvl/mxv
 .byte   PAN , c_v+0
 .byte   VOL , 42*song04_mvl/mxv
 .byte   BEND , c_v+0
 .byte   W96
@  #05 @001   ----------------------------------------
 .byte   W96
@  #05 @002   ----------------------------------------
 .byte   W96
@  #05 @003   ----------------------------------------
 .byte   W96
@  #05 @004   ----------------------------------------
 .byte   W96
@  #05 @005   ----------------------------------------
 .byte   W96
@  #05 @006   ----------------------------------------
 .byte   W96
@  #05 @007   ----------------------------------------
 .byte   W96
@  #05 @008   ----------------------------------------
 .byte   W96
@  #05 @009   ----------------------------------------
 .byte   W96
@  #05 @010   ----------------------------------------
Label_010052CC:
 .byte   N06 ,Cs3 ,v084
 .byte   W12
 .byte   Fs3
 .byte   W12
 .byte   An3
 .byte   W12
 .byte   Cs3
 .byte   W12
 .byte   Fs3
 .byte   W12
 .byte   An3
 .byte   W12
 .byte   Cs3
 .byte   W12
 .byte   An3
 .byte   W12
 .byte   PEND 
@  #05 @011   ----------------------------------------
Label_010052DF:
 .byte   N06 ,Cs3 ,v084
 .byte   W12
 .byte   En3
 .byte   W12
 .byte   Fs3
 .byte   W12
 .byte   Cs3
 .byte   W12
 .byte   En3
 .byte   W12
 .byte   Fs3
 .byte   W12
 .byte   Cs3
 .byte   W12
 .byte   Fs3
 .byte   W12
 .byte   PEND 
@  #05 @012   ----------------------------------------
Label_010052F2:
 .byte   N06 ,Bn2 ,v084
 .byte   W12
 .byte   Cs3
 .byte   W12
 .byte   En3
 .byte   W12
 .byte   Bn2
 .byte   W12
 .byte   Cs3
 .byte   W12
 .byte   En3
 .byte   W12
 .byte   Bn2
 .byte   W12
 .byte   En3
 .byte   W12
 .byte   PEND 
@  #05 @013   ----------------------------------------
Label_01005305:
 .byte   N06 ,An2 ,v084
 .byte   W12
 .byte   Bn2
 .byte   W12
 .byte   Cs3
 .byte   W12
 .byte   An2
 .byte   W12
 .byte   Bn2
 .byte   W12
 .byte   Cs3
 .byte   W12
 .byte   An2
 .byte   W12
 .byte   Cs3
 .byte   W12
 .byte   PEND 
@  #05 @014   ----------------------------------------
 .byte   PATT
  .word Label_010052CC
@  #05 @015   ----------------------------------------
 .byte   PATT
  .word Label_010052DF
@  #05 @016   ----------------------------------------
 .byte   PATT
  .word Label_010052F2
@  #05 @017   ----------------------------------------
 .byte   PATT
  .word Label_01005305
@  #05 @018   ----------------------------------------
 .byte   PATT
  .word Label_010052CC
@  #05 @019   ----------------------------------------
 .byte   PATT
  .word Label_010052DF
@  #05 @020   ----------------------------------------
 .byte   PATT
  .word Label_010052F2
@  #05 @021   ----------------------------------------
 .byte   PATT
  .word Label_01005305
@  #05 @022   ----------------------------------------
 .byte   PATT
  .word Label_010052CC
@  #05 @023   ----------------------------------------
 .byte   PATT
  .word Label_010052DF
@  #05 @024   ----------------------------------------
 .byte   PATT
  .word Label_010052F2
@  #05 @025   ----------------------------------------
 .byte   PATT
  .word Label_01005305
@  #05 @026   ----------------------------------------
 .byte   PATT
  .word Label_010052CC
@  #05 @027   ----------------------------------------
 .byte   PATT
  .word Label_010052DF
@  #05 @028   ----------------------------------------
 .byte   PATT
  .word Label_010052F2
@  #05 @029   ----------------------------------------
 .byte   PATT
  .word Label_01005305
@  #05 @030   ----------------------------------------
 .byte   PATT
  .word Label_010052CC
@  #05 @031   ----------------------------------------
 .byte   PATT
  .word Label_010052DF
@  #05 @032   ----------------------------------------
 .byte   PATT
  .word Label_010052F2
@  #05 @033   ----------------------------------------
 .byte   PATT
  .word Label_01005305
@  #05 @034   ----------------------------------------
 .byte   PATT
  .word Label_010052CC
@  #05 @035   ----------------------------------------
 .byte   PATT
  .word Label_010052DF
@  #05 @036   ----------------------------------------
 .byte   PATT
  .word Label_010052F2
@  #05 @037   ----------------------------------------
 .byte   PATT
  .word Label_01005305
@  #05 @038   ----------------------------------------
 .byte   PATT
  .word Label_010052CC
@  #05 @039   ----------------------------------------
 .byte   PATT
  .word Label_010052DF
@  #05 @040   ----------------------------------------
 .byte   PATT
  .word Label_010052F2
@  #05 @041   ----------------------------------------
 .byte   PATT
  .word Label_01005305
@  #05 @042   ----------------------------------------
 .byte   PATT
  .word Label_010052CC
@  #05 @043   ----------------------------------------
 .byte   PATT
  .word Label_010052DF
@  #05 @044   ----------------------------------------
 .byte   PATT
  .word Label_010052F2
@  #05 @045   ----------------------------------------
 .byte   PATT
  .word Label_01005305
@  #05 @046   ----------------------------------------
 .byte   PATT
  .word Label_010052CC
@  #05 @047   ----------------------------------------
 .byte   PATT
  .word Label_010052DF
@  #05 @048   ----------------------------------------
 .byte   PATT
  .word Label_010052F2
@  #05 @049   ----------------------------------------
 .byte   PATT
  .word Label_01005305
@  #05 @050   ----------------------------------------
Label_010053CC:
 .byte   N12 ,An2 ,v084
 .byte   N12 ,An3
 .byte   W36
 .byte   An2
 .byte   N12 ,An3
 .byte   W36
 .byte   An2
 .byte   N12 ,An3
 .byte   W24
 .byte   PEND 
@  #05 @051   ----------------------------------------
 .byte   PATT
  .word Label_010053CC
@  #05 @052   ----------------------------------------
Label_010053E0:
 .byte   N12 ,Bn2 ,v084
 .byte   N12 ,Bn3
 .byte   W36
 .byte   Bn2
 .byte   N12 ,Bn3
 .byte   W36
 .byte   Bn2
 .byte   N12 ,Bn3
 .byte   W24
 .byte   PEND 
@  #05 @053   ----------------------------------------
 .byte   PATT
  .word Label_010053E0
@  #05 @054   ----------------------------------------
Label_010053F4:
 .byte   N12 ,An2 ,v084
 .byte   W12
 .byte   N12
 .byte   W12
 .byte   An3
 .byte   W12
 .byte   En3
 .byte   W12
 .byte   Bn2
 .byte   W12
 .byte   Cs3
 .byte   W12
 .byte   An2
 .byte   W12
 .byte   Fs2
 .byte   W12
 .byte   PEND 
@  #05 @055   ----------------------------------------
Label_01005407:
 .byte   W12
 .byte   N12 ,An2 ,v084
 .byte   W24
 .byte   Fs2
 .byte   W12
 .byte   An2
 .byte   W24
 .byte   Bn2
 .byte   W24
 .byte   PEND 
@  #05 @056   ----------------------------------------
 .byte   PATT
  .word Label_010053F4
@  #05 @057   ----------------------------------------
 .byte   PATT
  .word Label_01005407
@  #05 @058   ----------------------------------------
 .byte   PATT
  .word Label_010053CC
@  #05 @059   ----------------------------------------
 .byte   PATT
  .word Label_010053CC
@  #05 @060   ----------------------------------------
 .byte   PATT
  .word Label_010053E0
@  #05 @061   ----------------------------------------
 .byte   PATT
  .word Label_010053E0
@  #05 @062   ----------------------------------------
 .byte   PATT
  .word Label_010053F4
@  #05 @063   ----------------------------------------
 .byte   PATT
  .word Label_01005407
@  #05 @064   ----------------------------------------
 .byte   PATT
  .word Label_010053F4
@  #05 @065   ----------------------------------------
 .byte   PATT
  .word Label_01005407
@  #05 @066   ----------------------------------------
 .byte   W96
@  #05 @067   ----------------------------------------
 .byte   W96
@  #05 @068   ----------------------------------------
 .byte   W96
@  #05 @069   ----------------------------------------
 .byte   W96
@  #05 @070   ----------------------------------------
 .byte   W96
@  #05 @071   ----------------------------------------
 .byte   W96
@  #05 @072   ----------------------------------------
 .byte   W96
@  #05 @073   ----------------------------------------
 .byte   W96
@  #05 @074   ----------------------------------------
Label_0100544D:
 .byte   N12 ,An2 ,v100
 .byte   W36
 .byte   Gs2
 .byte   W12
 .byte   Ds2
 .byte   W36
 .byte   Cs2
 .byte   W12
 .byte   PEND 
@  #05 @075   ----------------------------------------
Label_01005458:
 .byte   N12 ,En2 ,v100
 .byte   W24
 .byte   Fs2
 .byte   W48
 .byte   Gs2
 .byte   W24
 .byte   PEND 
@  #05 @076   ----------------------------------------
 .byte   PATT
  .word Label_0100544D
@  #05 @077   ----------------------------------------
Label_01005466:
 .byte   N12 ,Cs3 ,v100
 .byte   W24
 .byte   Bn2
 .byte   W48
 .byte   Gs2
 .byte   W24
 .byte   PEND 
@  #05 @078   ----------------------------------------
 .byte   PATT
  .word Label_0100544D
@  #05 @079   ----------------------------------------
 .byte   PATT
  .word Label_01005458
@  #05 @080   ----------------------------------------
 .byte   PATT
  .word Label_0100544D
@  #05 @081   ----------------------------------------
 .byte   PATT
  .word Label_01005466
@  #05 @082   ----------------------------------------
 .byte   W96
@  #05 @083   ----------------------------------------
 .byte   GOTO
  .word Label_010052CC
@  #05 @084   ----------------------------------------
 .byte   VOICE , 86
 .byte   PAN , c_v+0
 .byte   VOL , 42*song04_mvl/mxv
 .byte   BEND , c_v+0
 .byte   W32
 .byte   VOICE , 86
 .byte   PAN , c_v+0
 .byte   VOL , 42*song04_mvl/mxv
 .byte   BEND , c_v+0
 .byte   W01
 .byte   VOICE , 86
 .byte   PAN , c_v+0
 .byte   VOL , 42*song04_mvl/mxv
 .byte   BEND , c_v+0
 .byte   FINE

@**************** Track 6 (Midi-Chn.5) ****************@

song04_006:
@  #06 @000   ----------------------------------------
 .byte   KEYSH , song04_key+0
 .byte   VOICE , 38
 .byte   PAN , c_v+0
 .byte   VOL , 42*song04_mvl/mxv
 .byte   PAN , c_v+0
 .byte   VOL , 42*song04_mvl/mxv
 .byte   PAN , c_v+0
 .byte   VOL , 42*song04_mvl/mxv
 .byte   PAN , c_v+0
 .byte   VOL , 42*song04_mvl/mxv
 .byte   PAN , c_v+0
 .byte   VOL , 42*song04_mvl/mxv
 .byte   PAN , c_v+0
 .byte   VOL , 42*song04_mvl/mxv
 .byte   BEND , c_v+0
 .byte   W96
@  #06 @001   ----------------------------------------
 .byte   W96
@  #06 @002   ----------------------------------------
 .byte   W96
@  #06 @003   ----------------------------------------
 .byte   W96
@  #06 @004   ----------------------------------------
 .byte   W96
@  #06 @005   ----------------------------------------
 .byte   W96
@  #06 @006   ----------------------------------------
 .byte   W96
@  #06 @007   ----------------------------------------
 .byte   W96
@  #06 @008   ----------------------------------------
 .byte   W96
@  #06 @009   ----------------------------------------
 .byte   W96
@  #06 @010   ----------------------------------------
Label_010054DC:
 .byte   N06 ,Cs2 ,v084
 .byte   W12
 .byte   Fs2
 .byte   W12
 .byte   An2
 .byte   W12
 .byte   Cs2
 .byte   W12
 .byte   Fs2
 .byte   W12
 .byte   An2
 .byte   W12
 .byte   Cs2
 .byte   W12
 .byte   An2
 .byte   W12
 .byte   PEND 
@  #06 @011   ----------------------------------------
Label_010054EF:
 .byte   N06 ,Cs2 ,v084
 .byte   W12
 .byte   En2
 .byte   W12
 .byte   Fs2
 .byte   W12
 .byte   Cs2
 .byte   W12
 .byte   En2
 .byte   W12
 .byte   Fs2
 .byte   W12
 .byte   Cs2
 .byte   W12
 .byte   Fs2
 .byte   W12
 .byte   PEND 
@  #06 @012   ----------------------------------------
Label_01005502:
 .byte   N06 ,Bn1 ,v084
 .byte   W12
 .byte   Cs2
 .byte   W12
 .byte   En2
 .byte   W12
 .byte   Bn1
 .byte   W12
 .byte   Cs2
 .byte   W12
 .byte   En2
 .byte   W12
 .byte   Bn1
 .byte   W12
 .byte   En2
 .byte   W12
 .byte   PEND 
@  #06 @013   ----------------------------------------
Label_01005515:
 .byte   N06 ,An1 ,v084
 .byte   W12
 .byte   Bn1
 .byte   W12
 .byte   Cs2
 .byte   W12
 .byte   An1
 .byte   W12
 .byte   Bn1
 .byte   W12
 .byte   Cs2
 .byte   W12
 .byte   An1
 .byte   W12
 .byte   Cs2
 .byte   W12
 .byte   PEND 
@  #06 @014   ----------------------------------------
 .byte   PATT
  .word Label_010054DC
@  #06 @015   ----------------------------------------
 .byte   PATT
  .word Label_010054EF
@  #06 @016   ----------------------------------------
 .byte   PATT
  .word Label_01005502
@  #06 @017   ----------------------------------------
 .byte   PATT
  .word Label_01005515
@  #06 @018   ----------------------------------------
 .byte   PATT
  .word Label_010054DC
@  #06 @019   ----------------------------------------
 .byte   PATT
  .word Label_010054EF
@  #06 @020   ----------------------------------------
 .byte   PATT
  .word Label_01005502
@  #06 @021   ----------------------------------------
 .byte   PATT
  .word Label_01005515
@  #06 @022   ----------------------------------------
 .byte   PATT
  .word Label_010054DC
@  #06 @023   ----------------------------------------
 .byte   PATT
  .word Label_010054EF
@  #06 @024   ----------------------------------------
 .byte   PATT
  .word Label_01005502
@  #06 @025   ----------------------------------------
 .byte   PATT
  .word Label_01005515
@  #06 @026   ----------------------------------------
 .byte   PATT
  .word Label_010054DC
@  #06 @027   ----------------------------------------
 .byte   PATT
  .word Label_010054EF
@  #06 @028   ----------------------------------------
 .byte   PATT
  .word Label_01005502
@  #06 @029   ----------------------------------------
 .byte   PATT
  .word Label_01005515
@  #06 @030   ----------------------------------------
 .byte   PATT
  .word Label_010054DC
@  #06 @031   ----------------------------------------
 .byte   PATT
  .word Label_010054EF
@  #06 @032   ----------------------------------------
 .byte   PATT
  .word Label_01005502
@  #06 @033   ----------------------------------------
 .byte   PATT
  .word Label_01005515
@  #06 @034   ----------------------------------------
 .byte   PATT
  .word Label_010054DC
@  #06 @035   ----------------------------------------
 .byte   PATT
  .word Label_010054EF
@  #06 @036   ----------------------------------------
 .byte   PATT
  .word Label_01005502
@  #06 @037   ----------------------------------------
 .byte   PATT
  .word Label_01005515
@  #06 @038   ----------------------------------------
 .byte   PATT
  .word Label_010054DC
@  #06 @039   ----------------------------------------
 .byte   PATT
  .word Label_010054EF
@  #06 @040   ----------------------------------------
 .byte   PATT
  .word Label_01005502
@  #06 @041   ----------------------------------------
 .byte   PATT
  .word Label_01005515
@  #06 @042   ----------------------------------------
 .byte   PATT
  .word Label_010054DC
@  #06 @043   ----------------------------------------
 .byte   PATT
  .word Label_010054EF
@  #06 @044   ----------------------------------------
 .byte   PATT
  .word Label_01005502
@  #06 @045   ----------------------------------------
 .byte   PATT
  .word Label_01005515
@  #06 @046   ----------------------------------------
 .byte   PATT
  .word Label_010054DC
@  #06 @047   ----------------------------------------
 .byte   PATT
  .word Label_010054EF
@  #06 @048   ----------------------------------------
 .byte   PATT
  .word Label_01005502
@  #06 @049   ----------------------------------------
 .byte   PATT
  .word Label_01005515
@  #06 @050   ----------------------------------------
Label_010055DC:
 .byte   N12 ,An0 ,v080
 .byte   N12 ,An1
 .byte   W36
 .byte   An0
 .byte   N12 ,An1
 .byte   W36
 .byte   An0
 .byte   N12 ,An1
 .byte   W24
 .byte   PEND 
@  #06 @051   ----------------------------------------
 .byte   PATT
  .word Label_010055DC
@  #06 @052   ----------------------------------------
Label_010055F0:
 .byte   N12 ,Bn0 ,v080
 .byte   N12 ,Bn1
 .byte   W36
 .byte   Bn0
 .byte   N12 ,Bn1
 .byte   W36
 .byte   Bn0
 .byte   N12 ,Bn1
 .byte   W24
 .byte   PEND 
@  #06 @053   ----------------------------------------
 .byte   PATT
  .word Label_010055F0
@  #06 @054   ----------------------------------------
Label_01005604:
 .byte   N12 ,An1 ,v080
 .byte   W12
 .byte   N12
 .byte   W12
 .byte   An2
 .byte   W12
 .byte   En2
 .byte   W12
 .byte   Bn1
 .byte   W12
 .byte   Cs2
 .byte   W12
 .byte   An1
 .byte   W12
 .byte   Fs1
 .byte   W12
 .byte   PEND 
@  #06 @055   ----------------------------------------
Label_01005617:
 .byte   W12
 .byte   N12 ,An1 ,v080
 .byte   W24
 .byte   Fs1
 .byte   W12
 .byte   An1
 .byte   W24
 .byte   Bn1
 .byte   W24
 .byte   PEND 
@  #06 @056   ----------------------------------------
 .byte   PATT
  .word Label_01005604
@  #06 @057   ----------------------------------------
 .byte   PATT
  .word Label_01005617
@  #06 @058   ----------------------------------------
 .byte   PATT
  .word Label_010055DC
@  #06 @059   ----------------------------------------
 .byte   PATT
  .word Label_010055DC
@  #06 @060   ----------------------------------------
 .byte   PATT
  .word Label_010055F0
@  #06 @061   ----------------------------------------
 .byte   PATT
  .word Label_010055F0
@  #06 @062   ----------------------------------------
 .byte   PATT
  .word Label_01005604
@  #06 @063   ----------------------------------------
 .byte   PATT
  .word Label_01005617
@  #06 @064   ----------------------------------------
 .byte   PATT
  .word Label_01005604
@  #06 @065   ----------------------------------------
 .byte   PATT
  .word Label_01005617
@  #06 @066   ----------------------------------------
 .byte   W96
@  #06 @067   ----------------------------------------
 .byte   W96
@  #06 @068   ----------------------------------------
 .byte   W96
@  #06 @069   ----------------------------------------
 .byte   W96
@  #06 @070   ----------------------------------------
 .byte   W96
@  #06 @071   ----------------------------------------
 .byte   W96
@  #06 @072   ----------------------------------------
 .byte   W96
@  #06 @073   ----------------------------------------
 .byte   W96
@  #06 @074   ----------------------------------------
Label_0100565D:
 .byte   N12 ,An1 ,v100
 .byte   W36
 .byte   Gs1
 .byte   W12
 .byte   Ds1
 .byte   W36
 .byte   Cs1
 .byte   W12
 .byte   PEND 
@  #06 @075   ----------------------------------------
Label_01005668:
 .byte   N12 ,En1 ,v100
 .byte   W24
 .byte   Fs1
 .byte   W48
 .byte   Gs1
 .byte   W24
 .byte   PEND 
@  #06 @076   ----------------------------------------
 .byte   PATT
  .word Label_0100565D
@  #06 @077   ----------------------------------------
Label_01005676:
 .byte   N12 ,Cs2 ,v100
 .byte   W24
 .byte   Bn1
 .byte   W48
 .byte   Gs1
 .byte   W24
 .byte   PEND 
@  #06 @078   ----------------------------------------
 .byte   PATT
  .word Label_0100565D
@  #06 @079   ----------------------------------------
 .byte   PATT
  .word Label_01005668
@  #06 @080   ----------------------------------------
 .byte   PATT
  .word Label_0100565D
@  #06 @081   ----------------------------------------
 .byte   PATT
  .word Label_01005676
@  #06 @082   ----------------------------------------
 .byte   W96
@  #06 @083   ----------------------------------------
 .byte   GOTO
  .word Label_010054DC
@  #06 @084   ----------------------------------------
 .byte   VOICE , 38
 .byte   PAN , c_v+0
 .byte   VOL , 42*song04_mvl/mxv
 .byte   BEND , c_v+0
 .byte   W32
 .byte   VOICE , 38
 .byte   PAN , c_v+0
 .byte   VOL , 42*song04_mvl/mxv
 .byte   BEND , c_v+0
 .byte   W01
 .byte   VOICE , 38
 .byte   PAN , c_v+0
 .byte   VOL , 42*song04_mvl/mxv
 .byte   BEND , c_v+0
 .byte   FINE

@**************** Track 7 (Midi-Chn.6) ****************@

song04_007:
@  #07 @000   ----------------------------------------
 .byte   KEYSH , song04_key+0
 .byte   VOICE , 61
 .byte   PAN , c_v+0
 .byte   VOL , 42*song04_mvl/mxv
 .byte   PAN , c_v+0
 .byte   VOL , 42*song04_mvl/mxv
 .byte   PAN , c_v+0
 .byte   VOL , 42*song04_mvl/mxv
 .byte   PAN , c_v+0
 .byte   VOL , 42*song04_mvl/mxv
 .byte   PAN , c_v+0
 .byte   VOL , 42*song04_mvl/mxv
 .byte   PAN , c_v+0
 .byte   VOL , 42*song04_mvl/mxv
 .byte   BEND , c_v+0
 .byte   W96
@  #07 @001   ----------------------------------------
 .byte   W96
@  #07 @002   ----------------------------------------
 .byte   W96
@  #07 @003   ----------------------------------------
 .byte   W96
@  #07 @004   ----------------------------------------
 .byte   W96
@  #07 @005   ----------------------------------------
 .byte   W96
@  #07 @006   ----------------------------------------
 .byte   W96
@  #07 @007   ----------------------------------------
 .byte   W96
@  #07 @008   ----------------------------------------
 .byte   W96
@  #07 @009   ----------------------------------------
 .byte   W96
@  #07 @010   ----------------------------------------
Label_010056EC:
 .byte   W96
@  #07 @011   ----------------------------------------
 .byte   W96
@  #07 @012   ----------------------------------------
 .byte   W96
@  #07 @013   ----------------------------------------
 .byte   W96
@  #07 @014   ----------------------------------------
 .byte   W96
@  #07 @015   ----------------------------------------
 .byte   W96
@  #07 @016   ----------------------------------------
 .byte   W96
@  #07 @017   ----------------------------------------
 .byte   W96
@  #07 @018   ----------------------------------------
 .byte   W96
@  #07 @019   ----------------------------------------
 .byte   W96
@  #07 @020   ----------------------------------------
 .byte   W96
@  #07 @021   ----------------------------------------
 .byte   W96
@  #07 @022   ----------------------------------------
Label_010056F8:
 .byte   W72
 .byte   N12 ,An1 ,v100
 .byte   N12 ,An2
 .byte   W12
 .byte   Bn1
 .byte   N12 ,Bn2
 .byte   W12
 .byte   PEND 
@  #07 @023   ----------------------------------------
Label_01005704:
 .byte   N12 ,Cs2 ,v100
 .byte   N12 ,Cs3
 .byte   W12
 .byte   Bn1
 .byte   N12 ,Bn2
 .byte   W12
 .byte   Cs2
 .byte   N12 ,Cs3
 .byte   W12
 .byte   N36 ,En2
 .byte   N36 ,En3
 .byte   W36
 .byte   N24 ,Fs2
 .byte   N24 ,Fs3
 .byte   W24
 .byte   PEND 
@  #07 @024   ----------------------------------------
Label_0100571D:
 .byte   N60 ,Cs2 ,v100
 .byte   N60 ,Cs3
 .byte   W60
 .byte   N12 ,Cs2
 .byte   N12 ,Cs3
 .byte   W12
 .byte   En2
 .byte   N12 ,En3
 .byte   W12
 .byte   Fs2
 .byte   N12 ,Fs3
 .byte   W12
 .byte   PEND 
@  #07 @025   ----------------------------------------
Label_01005731:
 .byte   N36 ,Gs2 ,v100
 .byte   N36 ,Gs3
 .byte   W36
 .byte   N60 ,En2
 .byte   N60 ,En3
 .byte   W60
 .byte   PEND 
@  #07 @026   ----------------------------------------
 .byte   W96
@  #07 @027   ----------------------------------------
 .byte   W96
@  #07 @028   ----------------------------------------
 .byte   W96
@  #07 @029   ----------------------------------------
 .byte   W96
@  #07 @030   ----------------------------------------
 .byte   PATT
  .word Label_010056F8
@  #07 @031   ----------------------------------------
 .byte   PATT
  .word Label_01005704
@  #07 @032   ----------------------------------------
 .byte   PATT
  .word Label_0100571D
@  #07 @033   ----------------------------------------
 .byte   PATT
  .word Label_01005731
@  #07 @034   ----------------------------------------
 .byte   W96
@  #07 @035   ----------------------------------------
 .byte   W96
@  #07 @036   ----------------------------------------
 .byte   W96
@  #07 @037   ----------------------------------------
 .byte   W96
@  #07 @038   ----------------------------------------
 .byte   PATT
  .word Label_010056F8
@  #07 @039   ----------------------------------------
 .byte   PATT
  .word Label_01005704
@  #07 @040   ----------------------------------------
 .byte   PATT
  .word Label_0100571D
@  #07 @041   ----------------------------------------
 .byte   PATT
  .word Label_01005731
@  #07 @042   ----------------------------------------
 .byte   W96
@  #07 @043   ----------------------------------------
 .byte   W96
@  #07 @044   ----------------------------------------
 .byte   W96
@  #07 @045   ----------------------------------------
 .byte   W96
@  #07 @046   ----------------------------------------
 .byte   PATT
  .word Label_010056F8
@  #07 @047   ----------------------------------------
 .byte   PATT
  .word Label_01005704
@  #07 @048   ----------------------------------------
 .byte   PATT
  .word Label_0100571D
@  #07 @049   ----------------------------------------
 .byte   PATT
  .word Label_01005731
@  #07 @050   ----------------------------------------
 .byte   N96 ,An1 ,v100
 .byte   N96 ,An2
 .byte   W96
@  #07 @051   ----------------------------------------
 .byte   An1
 .byte   N96 ,An2
 .byte   W96
@  #07 @052   ----------------------------------------
 .byte   Bn1
 .byte   N96 ,Bn2
 .byte   W96
@  #07 @053   ----------------------------------------
 .byte   Bn1
 .byte   N96 ,Bn2
 .byte   W96
@  #07 @054   ----------------------------------------
Label_01005797:
 .byte   W24
 .byte   N06 ,Bn3 ,v100
 .byte   W12
 .byte   An3
 .byte   W12
 .byte   Bn3
 .byte   W12
 .byte   N06
 .byte   W12
 .byte   An3
 .byte   W12
 .byte   Bn3
 .byte   W12
 .byte   PEND 
@  #07 @055   ----------------------------------------
Label_010057A7:
 .byte   W12
 .byte   N06 ,Bn3 ,v100
 .byte   W24
 .byte   An3
 .byte   W12
 .byte   Bn3
 .byte   W12
 .byte   Cs4
 .byte   W36
 .byte   PEND 
@  #07 @056   ----------------------------------------
 .byte   PATT
  .word Label_01005797
@  #07 @057   ----------------------------------------
Label_010057B8:
 .byte   W12
 .byte   N06 ,Bn3 ,v100
 .byte   W24
 .byte   An3
 .byte   W12
 .byte   En4
 .byte   W12
 .byte   Bn3
 .byte   W12
 .byte   N24 ,Cs4
 .byte   W24
 .byte   PEND 
@  #07 @058   ----------------------------------------
 .byte   N96 ,An1
 .byte   N96 ,An2
 .byte   W96
@  #07 @059   ----------------------------------------
 .byte   An1
 .byte   N96 ,An2
 .byte   W96
@  #07 @060   ----------------------------------------
 .byte   Bn1
 .byte   N96 ,Bn2
 .byte   W96
@  #07 @061   ----------------------------------------
 .byte   Bn1
 .byte   N96 ,Bn2
 .byte   W96
@  #07 @062   ----------------------------------------
 .byte   PATT
  .word Label_01005797
@  #07 @063   ----------------------------------------
 .byte   PATT
  .word Label_010057A7
@  #07 @064   ----------------------------------------
 .byte   PATT
  .word Label_01005797
@  #07 @065   ----------------------------------------
 .byte   PATT
  .word Label_010057B8
@  #07 @066   ----------------------------------------
 .byte   W96
@  #07 @067   ----------------------------------------
 .byte   W96
@  #07 @068   ----------------------------------------
 .byte   W96
@  #07 @069   ----------------------------------------
 .byte   W96
@  #07 @070   ----------------------------------------
 .byte   W96
@  #07 @071   ----------------------------------------
 .byte   W96
@  #07 @072   ----------------------------------------
 .byte   W96
@  #07 @073   ----------------------------------------
 .byte   W96
@  #07 @074   ----------------------------------------
 .byte   W96
@  #07 @075   ----------------------------------------
 .byte   W96
@  #07 @076   ----------------------------------------
 .byte   W96
@  #07 @077   ----------------------------------------
 .byte   W96
@  #07 @078   ----------------------------------------
 .byte   W96
@  #07 @079   ----------------------------------------
 .byte   W96
@  #07 @080   ----------------------------------------
 .byte   W96
@  #07 @081   ----------------------------------------
 .byte   W96
@  #07 @082   ----------------------------------------
 .byte   W96
@  #07 @083   ----------------------------------------
 .byte   GOTO
  .word Label_010056EC
@  #07 @084   ----------------------------------------
 .byte   VOICE , 61
 .byte   PAN , c_v+0
 .byte   VOL , 42*song04_mvl/mxv
 .byte   BEND , c_v+0
 .byte   W32
 .byte   VOICE , 61
 .byte   PAN , c_v+0
 .byte   VOL , 42*song04_mvl/mxv
 .byte   BEND , c_v+0
 .byte   W01
 .byte   VOICE , 61
 .byte   PAN , c_v+0
 .byte   VOL , 42*song04_mvl/mxv
 .byte   BEND , c_v+0
 .byte   FINE

@**************** Track 8 (Midi-Chn.7) ****************@

song04_008:
@  #08 @000   ----------------------------------------
 .byte   KEYSH , song04_key+0
 .byte   VOICE , 1
 .byte   PAN , c_v+0
 .byte   VOL , 42*song04_mvl/mxv
 .byte   PAN , c_v+0
 .byte   VOL , 42*song04_mvl/mxv
 .byte   PAN , c_v+0
 .byte   VOL , 42*song04_mvl/mxv
 .byte   PAN , c_v+0
 .byte   VOL , 42*song04_mvl/mxv
 .byte   PAN , c_v+0
 .byte   VOL , 42*song04_mvl/mxv
 .byte   PAN , c_v+0
 .byte   VOL , 42*song04_mvl/mxv
 .byte   BEND , c_v+0
 .byte   W96
@  #08 @001   ----------------------------------------
 .byte   W96
@  #08 @002   ----------------------------------------
 .byte   W96
@  #08 @003   ----------------------------------------
 .byte   W96
@  #08 @004   ----------------------------------------
 .byte   W96
@  #08 @005   ----------------------------------------
 .byte   W96
@  #08 @006   ----------------------------------------
 .byte   W96
@  #08 @007   ----------------------------------------
 .byte   W96
@  #08 @008   ----------------------------------------
 .byte   W96
@  #08 @009   ----------------------------------------
 .byte   W96
@  #08 @010   ----------------------------------------
Label_01005858:
 .byte   W96
@  #08 @011   ----------------------------------------
 .byte   W96
@  #08 @012   ----------------------------------------
 .byte   W96
@  #08 @013   ----------------------------------------
 .byte   W96
@  #08 @014   ----------------------------------------
 .byte   W96
@  #08 @015   ----------------------------------------
 .byte   W96
@  #08 @016   ----------------------------------------
 .byte   W96
@  #08 @017   ----------------------------------------
 .byte   W96
@  #08 @018   ----------------------------------------
Label_01005860:
 .byte   N06 ,Cs2 ,v084
 .byte   W12
 .byte   Fs2
 .byte   W12
 .byte   An2
 .byte   W12
 .byte   Cs2
 .byte   W12
 .byte   Fs2
 .byte   W12
 .byte   An2
 .byte   W12
 .byte   Cs2
 .byte   W12
 .byte   An2
 .byte   W12
 .byte   PEND 
@  #08 @019   ----------------------------------------
Label_01005873:
 .byte   N06 ,Cs2 ,v084
 .byte   W12
 .byte   En2
 .byte   W12
 .byte   Fs2
 .byte   W12
 .byte   Cs2
 .byte   W12
 .byte   En2
 .byte   W12
 .byte   Fs2
 .byte   W12
 .byte   Cs2
 .byte   W12
 .byte   Fs2
 .byte   W12
 .byte   PEND 
@  #08 @020   ----------------------------------------
Label_01005886:
 .byte   N06 ,Bn1 ,v084
 .byte   W12
 .byte   Cs2
 .byte   W12
 .byte   En2
 .byte   W12
 .byte   Bn1
 .byte   W12
 .byte   Cs2
 .byte   W12
 .byte   En2
 .byte   W12
 .byte   Bn1
 .byte   W12
 .byte   En2
 .byte   W12
 .byte   PEND 
@  #08 @021   ----------------------------------------
Label_01005899:
 .byte   N06 ,An1 ,v084
 .byte   W12
 .byte   Bn1
 .byte   W12
 .byte   Cs2
 .byte   W12
 .byte   An1
 .byte   W12
 .byte   Bn1
 .byte   W12
 .byte   Cs2
 .byte   W12
 .byte   An1
 .byte   W12
 .byte   Cs2
 .byte   W12
 .byte   PEND 
@  #08 @022   ----------------------------------------
 .byte   PATT
  .word Label_01005860
@  #08 @023   ----------------------------------------
 .byte   PATT
  .word Label_01005873
@  #08 @024   ----------------------------------------
 .byte   PATT
  .word Label_01005886
@  #08 @025   ----------------------------------------
 .byte   PATT
  .word Label_01005899
@  #08 @026   ----------------------------------------
 .byte   PATT
  .word Label_01005860
@  #08 @027   ----------------------------------------
 .byte   PATT
  .word Label_01005873
@  #08 @028   ----------------------------------------
 .byte   PATT
  .word Label_01005886
@  #08 @029   ----------------------------------------
 .byte   PATT
  .word Label_01005899
@  #08 @030   ----------------------------------------
 .byte   PATT
  .word Label_01005860
@  #08 @031   ----------------------------------------
 .byte   PATT
  .word Label_01005873
@  #08 @032   ----------------------------------------
 .byte   PATT
  .word Label_01005886
@  #08 @033   ----------------------------------------
 .byte   PATT
  .word Label_01005899
@  #08 @034   ----------------------------------------
 .byte   PATT
  .word Label_01005860
@  #08 @035   ----------------------------------------
 .byte   PATT
  .word Label_01005873
@  #08 @036   ----------------------------------------
 .byte   PATT
  .word Label_01005886
@  #08 @037   ----------------------------------------
 .byte   PATT
  .word Label_01005899
@  #08 @038   ----------------------------------------
 .byte   PATT
  .word Label_01005860
@  #08 @039   ----------------------------------------
 .byte   PATT
  .word Label_01005873
@  #08 @040   ----------------------------------------
 .byte   PATT
  .word Label_01005886
@  #08 @041   ----------------------------------------
 .byte   PATT
  .word Label_01005899
@  #08 @042   ----------------------------------------
 .byte   PATT
  .word Label_01005860
@  #08 @043   ----------------------------------------
 .byte   PATT
  .word Label_01005873
@  #08 @044   ----------------------------------------
 .byte   PATT
  .word Label_01005886
@  #08 @045   ----------------------------------------
 .byte   PATT
  .word Label_01005899
@  #08 @046   ----------------------------------------
 .byte   PATT
  .word Label_01005860
@  #08 @047   ----------------------------------------
 .byte   PATT
  .word Label_01005873
@  #08 @048   ----------------------------------------
 .byte   PATT
  .word Label_01005886
@  #08 @049   ----------------------------------------
 .byte   PATT
  .word Label_01005899
@  #08 @050   ----------------------------------------
Label_01005938:
 .byte   N12 ,An0 ,v100
 .byte   N12 ,An1
 .byte   W36
 .byte   An0
 .byte   N12 ,An1
 .byte   W36
 .byte   An0
 .byte   N12 ,An1
 .byte   W24
 .byte   PEND 
@  #08 @051   ----------------------------------------
 .byte   PATT
  .word Label_01005938
@  #08 @052   ----------------------------------------
Label_0100594C:
 .byte   N12 ,Bn0 ,v100
 .byte   N12 ,Bn1
 .byte   W36
 .byte   Bn0
 .byte   N12 ,Bn1
 .byte   W36
 .byte   Bn0
 .byte   N12 ,Bn1
 .byte   W24
 .byte   PEND 
@  #08 @053   ----------------------------------------
 .byte   PATT
  .word Label_0100594C
@  #08 @054   ----------------------------------------
Label_01005960:
 .byte   N12 ,An1 ,v100
 .byte   W12
 .byte   N12
 .byte   W12
 .byte   An2
 .byte   W12
 .byte   En2
 .byte   W12
 .byte   Bn1
 .byte   W12
 .byte   Cs2
 .byte   W12
 .byte   An1
 .byte   W12
 .byte   Fs1
 .byte   W12
 .byte   PEND 
@  #08 @055   ----------------------------------------
Label_01005973:
 .byte   W12
 .byte   N12 ,An1 ,v100
 .byte   W24
 .byte   Fs1
 .byte   W12
 .byte   An1
 .byte   W24
 .byte   Bn1
 .byte   W24
 .byte   PEND 
@  #08 @056   ----------------------------------------
 .byte   PATT
  .word Label_01005960
@  #08 @057   ----------------------------------------
 .byte   PATT
  .word Label_01005973
@  #08 @058   ----------------------------------------
 .byte   PATT
  .word Label_01005938
@  #08 @059   ----------------------------------------
 .byte   PATT
  .word Label_01005938
@  #08 @060   ----------------------------------------
 .byte   PATT
  .word Label_0100594C
@  #08 @061   ----------------------------------------
 .byte   PATT
  .word Label_0100594C
@  #08 @062   ----------------------------------------
 .byte   PATT
  .word Label_01005960
@  #08 @063   ----------------------------------------
 .byte   PATT
  .word Label_01005973
@  #08 @064   ----------------------------------------
 .byte   PATT
  .word Label_01005960
@  #08 @065   ----------------------------------------
 .byte   PATT
  .word Label_01005973
@  #08 @066   ----------------------------------------
Label_010059B1:
 .byte   N12 ,An1 ,v100
 .byte   N12 ,An3
 .byte   W36
 .byte   Gs1
 .byte   N12 ,Gs3
 .byte   W12
 .byte   Ds1
 .byte   N12 ,Ds3
 .byte   W36
 .byte   Cs1
 .byte   N12 ,Cs3
 .byte   W12
 .byte   PEND 
@  #08 @067   ----------------------------------------
Label_010059C4:
 .byte   N12 ,En1 ,v100
 .byte   N12 ,En3
 .byte   W12
 .byte   Fs3
 .byte   W12
 .byte   Fs1
 .byte   N12 ,Fs3
 .byte   W36
 .byte   Cs4
 .byte   W12
 .byte   Gs1
 .byte   N06 ,An3
 .byte   W06
 .byte   Fs3
 .byte   W06
 .byte   En3
 .byte   W12
 .byte   PEND 
@  #08 @068   ----------------------------------------
 .byte   PATT
  .word Label_010059B1
@  #08 @069   ----------------------------------------
Label_010059E0:
 .byte   N12 ,Cs2 ,v100
 .byte   N12 ,Cs4
 .byte   W12
 .byte   Bn3
 .byte   W12
 .byte   Bn1
 .byte   N12 ,Bn3
 .byte   W36
 .byte   Cs4
 .byte   W12
 .byte   Gs1
 .byte   N06 ,An3
 .byte   W06
 .byte   Fs3
 .byte   W06
 .byte   En3
 .byte   W12
 .byte   PEND 
@  #08 @070   ----------------------------------------
 .byte   PATT
  .word Label_010059B1
@  #08 @071   ----------------------------------------
 .byte   PATT
  .word Label_010059C4
@  #08 @072   ----------------------------------------
 .byte   PATT
  .word Label_010059B1
@  #08 @073   ----------------------------------------
 .byte   PATT
  .word Label_010059E0
@  #08 @074   ----------------------------------------
Label_01005A0B:
 .byte   N12 ,An1 ,v100
 .byte   N12 ,An3
 .byte   N12 ,An4
 .byte   W36
 .byte   Gs1
 .byte   N12 ,Gs3
 .byte   N12 ,Gs4
 .byte   W12
 .byte   Ds1
 .byte   N12 ,Ds3
 .byte   N12 ,Ds4
 .byte   W36
 .byte   Cs1
 .byte   N12 ,Cs3
 .byte   N12 ,Cs4
 .byte   W12
 .byte   PEND 
@  #08 @075   ----------------------------------------
Label_01005A26:
 .byte   N12 ,En1 ,v100
 .byte   N12 ,En3
 .byte   N12 ,En4
 .byte   W12
 .byte   Fs3
 .byte   N12 ,Fs4
 .byte   W12
 .byte   Fs1
 .byte   N12 ,Fs3
 .byte   N12 ,Fs4
 .byte   W36
 .byte   Cs4
 .byte   W12
 .byte   Gs1
 .byte   N06 ,An3
 .byte   W06
 .byte   Fs3
 .byte   W06
 .byte   En3
 .byte   W12
 .byte   PEND 
@  #08 @076   ----------------------------------------
 .byte   PATT
  .word Label_01005A0B
@  #08 @077   ----------------------------------------
Label_01005A48:
 .byte   N12 ,Cs2 ,v100
 .byte   N12 ,Cs4
 .byte   N12 ,Cs5
 .byte   W12
 .byte   Bn3
 .byte   N12 ,Bn4
 .byte   W12
 .byte   Bn1
 .byte   N12 ,Bn3
 .byte   N12 ,Bn4
 .byte   W36
 .byte   Cs4
 .byte   W12
 .byte   Gs1
 .byte   N06 ,An3
 .byte   W06
 .byte   Fs3
 .byte   W06
 .byte   En3
 .byte   W12
 .byte   PEND 
@  #08 @078   ----------------------------------------
 .byte   PATT
  .word Label_01005A0B
@  #08 @079   ----------------------------------------
 .byte   PATT
  .word Label_01005A26
@  #08 @080   ----------------------------------------
 .byte   PATT
  .word Label_01005A0B
@  #08 @081   ----------------------------------------
 .byte   PATT
  .word Label_01005A48
@  #08 @082   ----------------------------------------
 .byte   N12 ,En3 ,v100
 .byte   N12 ,En4
 .byte   W12
 .byte   Cs3
 .byte   N12 ,Cs4
 .byte   W12
 .byte   N72 ,Cs3
 .byte   N72 ,Cs4
 .byte   W72
@  #08 @083   ----------------------------------------
 .byte   GOTO
  .word Label_01005858
@  #08 @084   ----------------------------------------
 .byte   PAN , c_v+0
 .byte   VOL , 42*song04_mvl/mxv
 .byte   BEND , c_v+0
 .byte   W32
 .byte   PAN , c_v+0
 .byte   VOL , 42*song04_mvl/mxv
 .byte   BEND , c_v+0
 .byte   W01
 .byte   PAN , c_v+0
 .byte   VOL , 42*song04_mvl/mxv
 .byte   BEND , c_v+0
 .byte   FINE

@**************** Track 9 (Midi-Chn.8) ****************@

song04_009:
@  #09 @000   ----------------------------------------
 .byte   KEYSH , song04_key+0
 .byte   VOICE , 56
 .byte   PAN , c_v+0
 .byte   VOL , 42*song04_mvl/mxv
 .byte   PAN , c_v+0
 .byte   VOL , 42*song04_mvl/mxv
 .byte   PAN , c_v+0
 .byte   VOL , 42*song04_mvl/mxv
 .byte   PAN , c_v+0
 .byte   VOL , 42*song04_mvl/mxv
 .byte   PAN , c_v+0
 .byte   VOL , 42*song04_mvl/mxv
 .byte   PAN , c_v+0
 .byte   VOL , 42*song04_mvl/mxv
 .byte   BEND , c_v+0
 .byte   W96
@  #09 @001   ----------------------------------------
 .byte   W96
@  #09 @002   ----------------------------------------
 .byte   W96
@  #09 @003   ----------------------------------------
 .byte   W96
@  #09 @004   ----------------------------------------
 .byte   W96
@  #09 @005   ----------------------------------------
 .byte   W96
@  #09 @006   ----------------------------------------
 .byte   W96
@  #09 @007   ----------------------------------------
 .byte   W96
@  #09 @008   ----------------------------------------
 .byte   W96
@  #09 @009   ----------------------------------------
 .byte   W96
@  #09 @010   ----------------------------------------
Label_F8B534:
 .byte   W96
@  #09 @011   ----------------------------------------
 .byte   W96
@  #09 @012   ----------------------------------------
 .byte   W96
@  #09 @013   ----------------------------------------
 .byte   W96
@  #09 @014   ----------------------------------------
 .byte   W96
@  #09 @015   ----------------------------------------
 .byte   W96
@  #09 @016   ----------------------------------------
 .byte   W96
@  #09 @017   ----------------------------------------
 .byte   W96
@  #09 @018   ----------------------------------------
 .byte   W96
@  #09 @019   ----------------------------------------
 .byte   W96
@  #09 @020   ----------------------------------------
 .byte   W96
@  #09 @021   ----------------------------------------
 .byte   W96
@  #09 @022   ----------------------------------------
 .byte   W96
@  #09 @023   ----------------------------------------
 .byte   W96
@  #09 @024   ----------------------------------------
 .byte   W96
@  #09 @025   ----------------------------------------
 .byte   W96
@  #09 @026   ----------------------------------------
 .byte   W96
@  #09 @027   ----------------------------------------
 .byte   W96
@  #09 @028   ----------------------------------------
 .byte   W96
@  #09 @029   ----------------------------------------
 .byte   W96
@  #09 @030   ----------------------------------------
 .byte   W96
@  #09 @031   ----------------------------------------
 .byte   W96
@  #09 @032   ----------------------------------------
 .byte   W96
@  #09 @033   ----------------------------------------
 .byte   W96
@  #09 @034   ----------------------------------------
 .byte   W96
@  #09 @035   ----------------------------------------
 .byte   W96
@  #09 @036   ----------------------------------------
 .byte   W96
@  #09 @037   ----------------------------------------
 .byte   W96
@  #09 @038   ----------------------------------------
 .byte   W96
@  #09 @039   ----------------------------------------
 .byte   W96
@  #09 @040   ----------------------------------------
 .byte   W96
@  #09 @041   ----------------------------------------
 .byte   W96
@  #09 @042   ----------------------------------------
 .byte   W96
@  #09 @043   ----------------------------------------
 .byte   W96
@  #09 @044   ----------------------------------------
 .byte   W96
@  #09 @045   ----------------------------------------
 .byte   W96
@  #09 @046   ----------------------------------------
 .byte   W96
@  #09 @047   ----------------------------------------
 .byte   W96
@  #09 @048   ----------------------------------------
 .byte   W96
@  #09 @049   ----------------------------------------
 .byte   W96
@  #09 @050   ----------------------------------------
 .byte   W96
@  #09 @051   ----------------------------------------
 .byte   W96
@  #09 @052   ----------------------------------------
 .byte   W96
@  #09 @053   ----------------------------------------
 .byte   W96
@  #09 @054   ----------------------------------------
Label_F8B560:
 .byte   W24
 .byte   N06 ,Bn3 ,v100
 .byte   W12
 .byte   An3
 .byte   W12
 .byte   Bn3
 .byte   W12
 .byte   N06
 .byte   W12
 .byte   An3
 .byte   W12
 .byte   Bn3
 .byte   W12
 .byte   PEND 
@  #09 @055   ----------------------------------------
Label_F8B570:
 .byte   W12
 .byte   N06 ,Bn3 ,v100
 .byte   W24
 .byte   An3
 .byte   W12
 .byte   Bn3
 .byte   W12
 .byte   Cs4
 .byte   W36
 .byte   PEND 
@  #09 @056   ----------------------------------------
 .byte   PATT
  .word Label_F8B560
@  #09 @057   ----------------------------------------
Label_F8B581:
 .byte   W12
 .byte   N06 ,Bn3 ,v100
 .byte   W24
 .byte   An3
 .byte   W12
 .byte   En4
 .byte   W12
 .byte   Bn3
 .byte   W12
 .byte   N24 ,Cs4
 .byte   W24
 .byte   PEND 
@  #09 @058   ----------------------------------------
 .byte   W96
@  #09 @059   ----------------------------------------
 .byte   W96
@  #09 @060   ----------------------------------------
 .byte   W96
@  #09 @061   ----------------------------------------
 .byte   W96
@  #09 @062   ----------------------------------------
 .byte   PATT
  .word Label_F8B560
@  #09 @063   ----------------------------------------
 .byte   PATT
  .word Label_F8B570
@  #09 @064   ----------------------------------------
 .byte   PATT
  .word Label_F8B560
@  #09 @065   ----------------------------------------
 .byte   PATT
  .word Label_F8B581
@  #09 @066   ----------------------------------------
 .byte   W96
@  #09 @067   ----------------------------------------
 .byte   W96
@  #09 @068   ----------------------------------------
 .byte   W96
@  #09 @069   ----------------------------------------
 .byte   W96
@  #09 @070   ----------------------------------------
 .byte   W96
@  #09 @071   ----------------------------------------
 .byte   W96
@  #09 @072   ----------------------------------------
 .byte   W96
@  #09 @073   ----------------------------------------
 .byte   W96
@  #09 @074   ----------------------------------------
 .byte   W96
@  #09 @075   ----------------------------------------
 .byte   W96
@  #09 @076   ----------------------------------------
 .byte   W96
@  #09 @077   ----------------------------------------
 .byte   W96
@  #09 @078   ----------------------------------------
 .byte   W96
@  #09 @079   ----------------------------------------
 .byte   W96
@  #09 @080   ----------------------------------------
 .byte   W96
@  #09 @081   ----------------------------------------
 .byte   W96
@  #09 @082   ----------------------------------------
 .byte   W96
@  #09 @083   ----------------------------------------
 .byte   GOTO
  .word Label_F8B534
@  #09 @084   ----------------------------------------
 .byte   VOICE , 56
 .byte   PAN , c_v+0
 .byte   VOL , 42*song04_mvl/mxv
 .byte   BEND , c_v+0
 .byte   W32
 .byte   VOICE , 56
 .byte   PAN , c_v+0
 .byte   VOL , 42*song04_mvl/mxv
 .byte   BEND , c_v+0
 .byte   W01
 .byte   VOICE , 56
 .byte   PAN , c_v+0
 .byte   VOL , 42*song04_mvl/mxv
 .byte   BEND , c_v+0
 .byte   FINE

@**************** Track 10 (Midi-Chn.9) ****************@

song04_010:
@  #10 @000   ----------------------------------------
 .byte   KEYSH , song04_key+0
 .byte   VOICE , 124
 .byte   PAN , c_v+0
 .byte   VOL , 42*song04_mvl/mxv
 .byte   PAN , c_v+0
 .byte   VOL , 42*song04_mvl/mxv
 .byte   PAN , c_v+0
 .byte   VOL , 42*song04_mvl/mxv
 .byte   PAN , c_v+0
 .byte   VOL , 42*song04_mvl/mxv
 .byte   PAN , c_v+0
 .byte   VOL , 42*song04_mvl/mxv
 .byte   PAN , c_v+0
 .byte   VOL , 42*song04_mvl/mxv
 .byte   BEND , c_v+0
 .byte   W96
@  #10 @001   ----------------------------------------
 .byte   W96
@  #10 @002   ----------------------------------------
 .byte   W96
@  #10 @003   ----------------------------------------
 .byte   W96
@  #10 @004   ----------------------------------------
 .byte   W96
@  #10 @005   ----------------------------------------
 .byte   W96
@  #10 @006   ----------------------------------------
 .byte   W96
@  #10 @007   ----------------------------------------
 .byte   W96
@  #10 @008   ----------------------------------------
 .byte   W96
@  #10 @009   ----------------------------------------
 .byte   W48
 .byte   N12 ,Cn1 ,v100
 .byte   N12 ,As1 ,v040
 .byte   W12
 .byte   Cn1 ,v100
 .byte   N12 ,As1 ,v064
 .byte   W12
 .byte   Dn1 ,v100
 .byte   N12 ,As1 ,v080
 .byte   W12
 .byte   N06 ,Dn1 ,v100
 .byte   N12 ,As1
 .byte   W06
 .byte   N06 ,Dn1
 .byte   W06
@  #10 @010   ----------------------------------------
Label_01005AF8:
 .byte   N12 ,Cn1 ,v100
 .byte   N96 ,Cs2
 .byte   W12
 .byte   N12 ,Cn1
 .byte   W12
 .byte   Dn1
 .byte   N12 ,As1
 .byte   W12
 .byte   Cn1
 .byte   W12
 .byte   N12
 .byte   W12
 .byte   N06
 .byte   W06
 .byte   N06
 .byte   W06
 .byte   N12 ,Dn1
 .byte   N12 ,As1
 .byte   W12
 .byte   Cn1
 .byte   W12
 .byte   PEND 
@  #10 @011   ----------------------------------------
Label_01005B15:
 .byte   N12 ,Cn1 ,v100
 .byte   W12
 .byte   N12
 .byte   W12
 .byte   Dn1
 .byte   N12 ,As1
 .byte   W12
 .byte   Cn1
 .byte   W12
 .byte   N12
 .byte   W12
 .byte   N06
 .byte   W06
 .byte   N06
 .byte   W06
 .byte   N12 ,Dn1
 .byte   N12 ,As1
 .byte   W12
 .byte   Cn1
 .byte   W12
 .byte   PEND 
@  #10 @012   ----------------------------------------
 .byte   PATT
  .word Label_01005B15
@  #10 @013   ----------------------------------------
 .byte   PATT
  .word Label_01005B15
@  #10 @014   ----------------------------------------
 .byte   PATT
  .word Label_01005B15
@  #10 @015   ----------------------------------------
 .byte   PATT
  .word Label_01005B15
@  #10 @016   ----------------------------------------
 .byte   PATT
  .word Label_01005B15
@  #10 @017   ----------------------------------------
 .byte   PATT
  .word Label_01005B15
@  #10 @018   ----------------------------------------
 .byte   PATT
  .word Label_01005AF8
@  #10 @019   ----------------------------------------
 .byte   PATT
  .word Label_01005B15
@  #10 @020   ----------------------------------------
 .byte   PATT
  .word Label_01005B15
@  #10 @021   ----------------------------------------
 .byte   PATT
  .word Label_01005B15
@  #10 @022   ----------------------------------------
 .byte   PATT
  .word Label_01005B15
@  #10 @023   ----------------------------------------
 .byte   PATT
  .word Label_01005B15
@  #10 @024   ----------------------------------------
 .byte   PATT
  .word Label_01005B15
@  #10 @025   ----------------------------------------
 .byte   PATT
  .word Label_01005B15
@  #10 @026   ----------------------------------------
 .byte   PATT
  .word Label_01005AF8
@  #10 @027   ----------------------------------------
 .byte   PATT
  .word Label_01005B15
@  #10 @028   ----------------------------------------
 .byte   PATT
  .word Label_01005B15
@  #10 @029   ----------------------------------------
 .byte   PATT
  .word Label_01005B15
@  #10 @030   ----------------------------------------
 .byte   PATT
  .word Label_01005B15
@  #10 @031   ----------------------------------------
 .byte   PATT
  .word Label_01005B15
@  #10 @032   ----------------------------------------
 .byte   PATT
  .word Label_01005B15
@  #10 @033   ----------------------------------------
 .byte   PATT
  .word Label_01005B15
@  #10 @034   ----------------------------------------
 .byte   PATT
  .word Label_01005AF8
@  #10 @035   ----------------------------------------
 .byte   PATT
  .word Label_01005B15
@  #10 @036   ----------------------------------------
 .byte   PATT
  .word Label_01005B15
@  #10 @037   ----------------------------------------
 .byte   PATT
  .word Label_01005B15
@  #10 @038   ----------------------------------------
 .byte   PATT
  .word Label_01005B15
@  #10 @039   ----------------------------------------
 .byte   PATT
  .word Label_01005B15
@  #10 @040   ----------------------------------------
 .byte   PATT
  .word Label_01005B15
@  #10 @041   ----------------------------------------
 .byte   PATT
  .word Label_01005B15
@  #10 @042   ----------------------------------------
 .byte   PATT
  .word Label_01005AF8
@  #10 @043   ----------------------------------------
 .byte   PATT
  .word Label_01005B15
@  #10 @044   ----------------------------------------
 .byte   PATT
  .word Label_01005B15
@  #10 @045   ----------------------------------------
 .byte   PATT
  .word Label_01005B15
@  #10 @046   ----------------------------------------
 .byte   PATT
  .word Label_01005B15
@  #10 @047   ----------------------------------------
 .byte   PATT
  .word Label_01005B15
@  #10 @048   ----------------------------------------
 .byte   PATT
  .word Label_01005B15
@  #10 @049   ----------------------------------------
 .byte   PATT
  .word Label_01005B15
@  #10 @050   ----------------------------------------
Label_01005BED:
 .byte   N24 ,Cn1 ,v100
 .byte   W24
 .byte   N12
 .byte   W12
 .byte   Dn1
 .byte   N12 ,Fs1
 .byte   N12 ,As1
 .byte   W24
 .byte   Cn1
 .byte   W12
 .byte   Dn1
 .byte   N12 ,Fs1
 .byte   N12 ,As1
 .byte   W24
 .byte   PEND 
@  #10 @051   ----------------------------------------
Label_01005C02:
 .byte   N24 ,Cn1 ,v100
 .byte   W24
 .byte   N12
 .byte   W12
 .byte   Dn1
 .byte   N12 ,Fs1
 .byte   N12 ,As1
 .byte   W24
 .byte   Cn1
 .byte   W12
 .byte   Dn1
 .byte   N12 ,Fs1
 .byte   N12 ,As1
 .byte   W12
 .byte   Cn1
 .byte   W12
 .byte   PEND 
@  #10 @052   ----------------------------------------
 .byte   PATT
  .word Label_01005BED
@  #10 @053   ----------------------------------------
 .byte   PATT
  .word Label_01005C02
@  #10 @054   ----------------------------------------
 .byte   PATT
  .word Label_01005B15
@  #10 @055   ----------------------------------------
 .byte   PATT
  .word Label_01005B15
@  #10 @056   ----------------------------------------
 .byte   PATT
  .word Label_01005B15
@  #10 @057   ----------------------------------------
 .byte   PATT
  .word Label_01005B15
@  #10 @058   ----------------------------------------
 .byte   PATT
  .word Label_01005BED
@  #10 @059   ----------------------------------------
 .byte   PATT
  .word Label_01005C02
@  #10 @060   ----------------------------------------
 .byte   PATT
  .word Label_01005BED
@  #10 @061   ----------------------------------------
 .byte   PATT
  .word Label_01005C02
@  #10 @062   ----------------------------------------
 .byte   PATT
  .word Label_01005B15
@  #10 @063   ----------------------------------------
 .byte   PATT
  .word Label_01005B15
@  #10 @064   ----------------------------------------
 .byte   PATT
  .word Label_01005B15
@  #10 @065   ----------------------------------------
 .byte   PATT
  .word Label_01005B15
@  #10 @066   ----------------------------------------
Label_01005C5F:
 .byte   N12 ,Cn1 ,v100
 .byte   W24
 .byte   Ds1
 .byte   W12
 .byte   Cn1
 .byte   W12
 .byte   N12
 .byte   W24
 .byte   Ds1
 .byte   W24
 .byte   PEND 
@  #10 @067   ----------------------------------------
 .byte   PATT
  .word Label_01005C5F
@  #10 @068   ----------------------------------------
 .byte   PATT
  .word Label_01005C5F
@  #10 @069   ----------------------------------------
 .byte   PATT
  .word Label_01005C5F
@  #10 @070   ----------------------------------------
 .byte   PATT
  .word Label_01005C5F
@  #10 @071   ----------------------------------------
 .byte   PATT
  .word Label_01005C5F
@  #10 @072   ----------------------------------------
 .byte   PATT
  .word Label_01005C5F
@  #10 @073   ----------------------------------------
 .byte   N12 ,Cn1 ,v100
 .byte   W24
 .byte   Ds1
 .byte   W12
 .byte   Cn1
 .byte   W12
 .byte   N12
 .byte   N12 ,As1 ,v040
 .byte   W12
 .byte   Cn1 ,v100
 .byte   N12 ,As1 ,v064
 .byte   W12
 .byte   Dn1 ,v100
 .byte   N12 ,Ds1
 .byte   N12 ,As1 ,v080
 .byte   W12
 .byte   N06 ,Dn1 ,v100
 .byte   N12 ,As1
 .byte   W06
 .byte   N06 ,Dn1
 .byte   W06
@  #10 @074   ----------------------------------------
 .byte   PATT
  .word Label_01005AF8
@  #10 @075   ----------------------------------------
 .byte   PATT
  .word Label_01005B15
@  #10 @076   ----------------------------------------
 .byte   PATT
  .word Label_01005B15
@  #10 @077   ----------------------------------------
 .byte   PATT
  .word Label_01005B15
@  #10 @078   ----------------------------------------
 .byte   PATT
  .word Label_01005B15
@  #10 @079   ----------------------------------------
 .byte   PATT
  .word Label_01005B15
@  #10 @080   ----------------------------------------
 .byte   PATT
  .word Label_01005B15
@  #10 @081   ----------------------------------------
 .byte   PATT
  .word Label_01005B15
@  #10 @082   ----------------------------------------
 .byte   W96
@  #10 @083   ----------------------------------------
 .byte   GOTO
  .word Label_01005AF8
@  #10 @084   ----------------------------------------
 .byte   PAN , c_v+0
 .byte   VOL , 42*song04_mvl/mxv
 .byte   BEND , c_v+0
 .byte   W32
 .byte   PAN , c_v+0
 .byte   VOL , 42*song04_mvl/mxv
 .byte   BEND , c_v+0
 .byte   W01
 .byte   PAN , c_v+0
 .byte   VOL , 42*song04_mvl/mxv
 .byte   BEND , c_v+0
 .byte   FINE

@******************************************************@
	.align	2

song04:
	.byte	10	@ NumTrks
	.byte	0	@ NumBlks
	.byte	song04_pri	@ Priority
	.byte	song04_rev	@ Reverb.
    
	.word	song04_grp
    
	.word	song04_001
	.word	song04_002
	.word	song04_003
	.word	song04_004
	.word	song04_005
	.word	song04_006
	.word	song04_007
	.word	song04_008
	.word	song04_009
	.word	song04_010

	.end
