//Event file generated from Sappy .s format.
	#include "MPlayDef.event"

	#define	ItHasToBeThisWay_grp  voicegroup000
	#define	ItHasToBeThisWay_pri  0
	#define	ItHasToBeThisWay_rev  0
	#define	ItHasToBeThisWay_mvl  127
	#define	ItHasToBeThisWay_key  0
	#define	ItHasToBeThisWay_tbs  1
	#define	ItHasToBeThisWay_exg  0
	#define	ItHasToBeThisWay_cmp  1

	// .rodata
	//	ItHasToBeThisWay
	ALIGN 4


//**************** Track 1 (Midi-Chn.0) ****************//

ItHasToBeThisWay_001:
//  #01 //000   ----------------------------------------
 BYTE   KEYSH   ItHasToBeThisWay_key+0
 BYTE   TEMPO   102*ItHasToBeThisWay_tbs/2
 BYTE   VOICE   30
 BYTE   PAN   c_v+32
 BYTE   VOL   25*ItHasToBeThisWay_mvl/mxv
 BYTE   PAN   c_v+32
 BYTE   VOL   25*ItHasToBeThisWay_mvl/mxv
 BYTE   PAN   c_v+32
 BYTE   VOL   25*ItHasToBeThisWay_mvl/mxv
 BYTE   PAN   c_v+32
 BYTE   VOL   25*ItHasToBeThisWay_mvl/mxv
 BYTE   PAN   c_v+32
 BYTE   VOL   25*ItHasToBeThisWay_mvl/mxv
 BYTE   PAN   c_v+32
 BYTE   VOL   25*ItHasToBeThisWay_mvl/mxv
 BYTE   BEND   c_v+0
 BYTE   N12  Dn2  v096
 BYTE   W12
 BYTE   Cs2
 BYTE   W12
 BYTE   N72  Bn1
 BYTE   N72  Fs2
 BYTE   N72  Bn2
 BYTE   W72
//  #01 //001   ----------------------------------------
Label_0100449D:
 BYTE   N12  Dn2  v096
 BYTE   W12
 BYTE   Cs2
 BYTE   W12
 BYTE   N72  An1
 BYTE   N72  En2
 BYTE   N72  An2
 BYTE   W72
 BYTE   PEND 
//  #01 //002   ----------------------------------------
Label_010044AB:
 BYTE   N12  Dn2  v096
 BYTE   W12
 BYTE   Cs2
 BYTE   W12
 BYTE   N96  Gn1
 BYTE   N96  Dn2
 BYTE   N96  Gn2
 BYTE   W72
 BYTE   PEND 
//  #01 //003   ----------------------------------------
 BYTE   W24
 BYTE   N72  En1
 BYTE   N72  Bn1
 BYTE   N72  En2
 BYTE   W72
//  #01 //004   ----------------------------------------
 BYTE   N12  Dn2
 BYTE   W12
 BYTE   Cs2
 BYTE   W12
 BYTE   N72  Bn1
 BYTE   N72  Fs2
 BYTE   N72  Bn2
 BYTE   W72
//  #01 //005   ----------------------------------------
 BYTE   PATT
  POIN2 Label_0100449D
//  #01 //006   ----------------------------------------
 BYTE   PATT
  POIN2 Label_010044AB
//  #01 //007   ----------------------------------------
 BYTE   W24
 BYTE   N96  En1  v096
 BYTE   N96  Bn1
 BYTE   N96  En2
 BYTE   W72
//  #01 //008   ----------------------------------------
 BYTE   W24
 BYTE   N09  Fs1  v076
 BYTE   N09  Bn1
 BYTE   W12
 BYTE   Fs1
 BYTE   N09  Bn1
 BYTE   W12
 BYTE   Fs1
 BYTE   N09  Bn1
 BYTE   W12
 BYTE   Fs1
 BYTE   N09  Bn1
 BYTE   W12
 BYTE   Fs1
 BYTE   N09  Bn1
 BYTE   W12
 BYTE   Fs1
 BYTE   N09  Bn1
 BYTE   W12
//  #01 //009   ----------------------------------------
 BYTE   Fs1
 BYTE   N09  Bn1
 BYTE   W12
 BYTE   Fs1
 BYTE   N09  Bn1
 BYTE   W12
 BYTE   Fs1
 BYTE   N09  Bn1
 BYTE   W12
 BYTE   Fs1
 BYTE   N09  Bn1
 BYTE   W12
 BYTE   Fs1
 BYTE   N09  Bn1
 BYTE   W12
 BYTE   Fs1
 BYTE   N09  Bn1
 BYTE   W12
 BYTE   N12  Fs1  v096
 BYTE   N09  Bn1  v076
 BYTE   W12
 BYTE   N12  Fs1  v096
 BYTE   N09  Bn1  v076
 BYTE   W12
//  #01 //010   ----------------------------------------
 BYTE   N12  Fs1  v096
 BYTE   N09  Bn1  v076
 BYTE   W12
 BYTE   N12  Fs1  v096
 BYTE   N12  Bn1
 BYTE   W12
 BYTE   N06  Fs1
 BYTE   N06  Bn1
 BYTE   W06
 BYTE   N03
 BYTE   W03
 BYTE   N03
 BYTE   W03
 BYTE   N03
 BYTE   W03
 BYTE   N03
 BYTE   W03
 BYTE   N06  Fs1
 BYTE   N06  Bn1
 BYTE   W06
 BYTE   N03
 BYTE   W03
 BYTE   N03
 BYTE   W03
 BYTE   N03
 BYTE   W03
 BYTE   N03
 BYTE   W03
 BYTE   N06  Fs1
 BYTE   N06  Bn1
 BYTE   W06
 BYTE   N03
 BYTE   W03
 BYTE   N03
 BYTE   W03
 BYTE   N03
 BYTE   W03
 BYTE   N03
 BYTE   W03
 BYTE   N06  Fs1
 BYTE   N06  Bn1
 BYTE   W06
 BYTE   N03
 BYTE   W03
 BYTE   N03
 BYTE   W03
 BYTE   N03
 BYTE   W03
 BYTE   N03
 BYTE   W03
//  #01 //011   ----------------------------------------
Label_01004562:
 BYTE   N12  Bn1  v096
 BYTE   W12
 BYTE   An1
 BYTE   W12
 BYTE   N06  Fs1
 BYTE   N06  Bn1
 BYTE   W06
 BYTE   N03
 BYTE   W03
 BYTE   N03
 BYTE   W03
 BYTE   N03
 BYTE   W03
 BYTE   N03
 BYTE   W03
 BYTE   N06  Fs1
 BYTE   N06  Bn1
 BYTE   W06
 BYTE   N03
 BYTE   W03
 BYTE   N03
 BYTE   W03
 BYTE   N03
 BYTE   W03
 BYTE   N03
 BYTE   W03
 BYTE   N06  Fs1
 BYTE   N06  Bn1
 BYTE   W06
 BYTE   N03
 BYTE   W03
 BYTE   N03
 BYTE   W03
 BYTE   N03
 BYTE   W03
 BYTE   N03
 BYTE   W03
 BYTE   N06  Fs1
 BYTE   N06  Bn1
 BYTE   W06
 BYTE   N03
 BYTE   W03
 BYTE   N03
 BYTE   W03
 BYTE   N03
 BYTE   W03
 BYTE   N03
 BYTE   W03
 BYTE   PEND 
//  #01 //012   ----------------------------------------
Label_0100459D:
 BYTE   N12  Dn2  v108
 BYTE   W12
 BYTE   Cs2
 BYTE   W12
 BYTE   N06  Fs1  v096
 BYTE   N06  Bn1
 BYTE   W06
 BYTE   N03
 BYTE   W03
 BYTE   N03
 BYTE   W03
 BYTE   N03
 BYTE   W03
 BYTE   N03
 BYTE   W03
 BYTE   N06  Fs1
 BYTE   N06  Bn1
 BYTE   W06
 BYTE   N03
 BYTE   W03
 BYTE   N03
 BYTE   W03
 BYTE   N03
 BYTE   W03
 BYTE   N03
 BYTE   W03
 BYTE   N06  Fs1
 BYTE   N06  Bn1
 BYTE   W06
 BYTE   N03
 BYTE   W03
 BYTE   N03
 BYTE   W03
 BYTE   N03
 BYTE   W03
 BYTE   N03
 BYTE   W03
 BYTE   N06  Fs1
 BYTE   N06  Bn1
 BYTE   W06
 BYTE   N03
 BYTE   W03
 BYTE   N03
 BYTE   W03
 BYTE   N03
 BYTE   W03
 BYTE   N03
 BYTE   W03
 BYTE   PEND 
//  #01 //013   ----------------------------------------
 BYTE   PATT
  POIN2 Label_01004562
//  #01 //014   ----------------------------------------
 BYTE   PATT
  POIN2 Label_0100459D
//  #01 //015   ----------------------------------------
 BYTE   PATT
  POIN2 Label_01004562
//  #01 //016   ----------------------------------------
Label_010045E8:
 BYTE   N12  Bn1  v096
 BYTE   N12  Bn2  v108
 BYTE   W12
 BYTE   An1  v096
 BYTE   N12  An2  v108
 BYTE   W12
 BYTE   N06  Fs1  v096
 BYTE   N06  Bn1
 BYTE   W06
 BYTE   N03
 BYTE   W03
 BYTE   N03
 BYTE   W03
 BYTE   N03
 BYTE   W03
 BYTE   N03
 BYTE   W03
 BYTE   N06  Fs1
 BYTE   N06  Bn1
 BYTE   W06
 BYTE   N03
 BYTE   W03
 BYTE   N03
 BYTE   W03
 BYTE   N03
 BYTE   W03
 BYTE   N03
 BYTE   W03
 BYTE   N06  Fs1
 BYTE   N06  Bn1
 BYTE   W06
 BYTE   N03
 BYTE   W03
 BYTE   N03
 BYTE   W03
 BYTE   N03
 BYTE   W03
 BYTE   N03
 BYTE   W03
 BYTE   N06  Fs1
 BYTE   N06  Bn1
 BYTE   W06
 BYTE   N03
 BYTE   W03
 BYTE   N03
 BYTE   W03
 BYTE   N03
 BYTE   W03
 BYTE   N03
 BYTE   W03
 BYTE   PEND 
//  #01 //017   ----------------------------------------
 BYTE   N12  Dn2  v108
 BYTE   N12  Dn3
 BYTE   W12
 BYTE   Cs2
 BYTE   N12  Cs3
 BYTE   W12
 BYTE   N06  Fs1  v096
 BYTE   N06  Bn1
 BYTE   W06
 BYTE   N03
 BYTE   W03
 BYTE   N03
 BYTE   W03
 BYTE   N03
 BYTE   W03
 BYTE   N03
 BYTE   W03
 BYTE   N06  Fs1
 BYTE   N06  Bn1
 BYTE   W06
 BYTE   N03
 BYTE   W03
 BYTE   N03
 BYTE   W03
 BYTE   N03
 BYTE   W03
 BYTE   N03
 BYTE   W03
 BYTE   N06  Fs1
 BYTE   N06  Bn1
 BYTE   W06
 BYTE   N03
 BYTE   W03
 BYTE   N03
 BYTE   W03
Label_01004659:
 BYTE   N03  Bn1  v096
 BYTE   W03
 BYTE   N03
 BYTE   W03
 BYTE   N06  Fs1
 BYTE   N06  Bn1
 BYTE   W06
 BYTE   N03
 BYTE   W03
 BYTE   N03
 BYTE   W03
 BYTE   N03
 BYTE   W03
 BYTE   N03
 BYTE   W03
//  #01 //018   ----------------------------------------
 BYTE   N12  Dn2  v108
 BYTE   N12  Dn3
 BYTE   W12
 BYTE   Cs2
 BYTE   N12  Cs3
 BYTE   W12
 BYTE   N06  Fs1  v096
 BYTE   N06  Bn1
 BYTE   W06
 BYTE   N03
 BYTE   W03
 BYTE   N03
 BYTE   W03
 BYTE   N03
 BYTE   W03
 BYTE   N03
 BYTE   W03
 BYTE   N06  Fs1
 BYTE   N06  Bn1
 BYTE   W06
 BYTE   N03
 BYTE   W03
 BYTE   N03
 BYTE   W03
 BYTE   N03
 BYTE   W03
 BYTE   N03
 BYTE   W03
 BYTE   N06  Fs1
 BYTE   N06  Bn1
 BYTE   W06
 BYTE   N03
 BYTE   W03
 BYTE   N03
 BYTE   W03
 BYTE   N03
 BYTE   W03
 BYTE   N03
 BYTE   W03
 BYTE   N06  Fs1
 BYTE   N06  Bn1
 BYTE   W06
 BYTE   N03
 BYTE   W03
 BYTE   N03
 BYTE   W03
 BYTE   N03
 BYTE   W03
 BYTE   N03
 BYTE   W03
//  #01 //019   ----------------------------------------
 BYTE   PATT
  POIN2 Label_010045E8
//  #01 //020   ----------------------------------------
 BYTE   PATT
  POIN2 Label_010045E8
//  #01 //021   ----------------------------------------
 BYTE   N12  Dn2  v096
 BYTE   N12  Dn3  v108
 BYTE   W12
 BYTE   Cs2  v096
 BYTE   N12  Cs3  v108
 BYTE   W12
 BYTE   N18  Fn1  v096
 BYTE   N18  Cn2
 BYTE   N18  Fn2
 BYTE   W18
 BYTE   En1
 BYTE   N18  Bn1
 BYTE   N18  En2
 BYTE   W18
 BYTE   Fn1
 BYTE   N18  Cn2
 BYTE   N18  Fn2
 BYTE   W18
 BYTE   Gn1
 BYTE   N18  Dn2
 BYTE   N18  Gn2
 BYTE   W18
//  #01 //022   ----------------------------------------
 BYTE   N12  Fn1
 BYTE   N12  Cn2
 BYTE   N12  Fn2
 BYTE   W12
 BYTE   En1
 BYTE   N12  Bn1
 BYTE   N12  En2
 BYTE   W12
 BYTE   N06  Dn2
 BYTE   N06  An2
 BYTE   N06  Dn3
 BYTE   W06
 BYTE   Dn2
 BYTE   N06  An2
 BYTE   N06  Dn3
 BYTE   W06
 BYTE   Dn2
 BYTE   N06  An2
 BYTE   N06  Dn3
 BYTE   W06
 BYTE   Dn2
 BYTE   N06  An2
 BYTE   N06  Dn3
 BYTE   W06
 BYTE   Dn2
 BYTE   N06  An2
 BYTE   N06  Dn3
 BYTE   W06
 BYTE   Dn2
 BYTE   N06  An2
 BYTE   N06  Dn3
 BYTE   W06
 BYTE   Dn2
 BYTE   N06  An2
 BYTE   N06  Dn3
 BYTE   W06
 BYTE   Dn2
 BYTE   N06  An2
 BYTE   N06  Dn3
 BYTE   W06
 BYTE   Dn2
 BYTE   N06  An2
 BYTE   N06  Dn3
 BYTE   W06
 BYTE   Dn2
 BYTE   N06  An2
 BYTE   N06  Dn3
 BYTE   W06
 BYTE   Dn2
 BYTE   N06  An2
 BYTE   N06  Dn3
 BYTE   W06
 BYTE   Dn2
 BYTE   N06  An2
 BYTE   N06  Dn3
 BYTE   W06
//  #01 //023   ----------------------------------------
Label_01004732:
 BYTE   N06  Dn2  v096
 BYTE   N06  An2
 BYTE   N06  Dn3
 BYTE   W06
 BYTE   Dn2
 BYTE   N06  An2
 BYTE   N06  Dn3
 BYTE   W06
 BYTE   Dn2
 BYTE   N06  An2
 BYTE   N06  Dn3
 BYTE   W06
 BYTE   Dn2
 BYTE   N06  An2
 BYTE   N06  Dn3
 BYTE   W06
 BYTE   Cn2
 BYTE   N06  Gn2
 BYTE   N06  Cn3
 BYTE   W06
 BYTE   Cn2
 BYTE   N06  Gn2
 BYTE   N06  Cn3
 BYTE   W06
 BYTE   Cn2
 BYTE   N06  Gn2
 BYTE   N06  Cn3
 BYTE   W06
 BYTE   Cn2
 BYTE   N06  Gn2
 BYTE   N06  Cn3
 BYTE   W06
 BYTE   Cn2
 BYTE   N06  Gn2
 BYTE   N06  Cn3
 BYTE   W06
 BYTE   Cn2
 BYTE   N06  Gn2
 BYTE   N06  Cn3
 BYTE   W06
 BYTE   Cn2
 BYTE   N06  Gn2
 BYTE   N06  Cn3
 BYTE   W06
 BYTE   Cn2
 BYTE   N06  Gn2
 BYTE   N06  Cn3
 BYTE   W06
 BYTE   Cn2
 BYTE   N06  Gn2
 BYTE   N06  Cn3
 BYTE   W06
 BYTE   Cn2
 BYTE   N06  Gn2
 BYTE   N06  Cn3
 BYTE   W06
 BYTE   Cn2
 BYTE   N06  Gn2
 BYTE   N06  Cn3
 BYTE   W06
 BYTE   Cn2
 BYTE   N06  Gn2
 BYTE   N06  Cn3
 BYTE   W06
 BYTE   PEND 
//  #01 //024   ----------------------------------------
Label_01004795:
 BYTE   N06  Cn2  v096
 BYTE   N06  Gn2
 BYTE   N06  Cn3
 BYTE   W06
 BYTE   Cn2
 BYTE   N06  Gn2
 BYTE   N06  Cn3
 BYTE   W06
 BYTE   Cn2
 BYTE   N06  Gn2
 BYTE   N06  Cn3
 BYTE   W06
 BYTE   Cn2
 BYTE   N06  Gn2
 BYTE   N06  Cn3
 BYTE   W06
 BYTE   As1
 BYTE   N06  Fn2
 BYTE   N06  As2
 BYTE   W06
 BYTE   As1
 BYTE   N06  Fn2
 BYTE   N06  As2
 BYTE   W06
 BYTE   As1
 BYTE   N06  Fn2
 BYTE   N06  As2
 BYTE   W06
 BYTE   As1
 BYTE   N06  Fn2
 BYTE   N06  As2
 BYTE   W06
 BYTE   As1
 BYTE   N06  Fn2
 BYTE   N06  As2
 BYTE   W06
 BYTE   As1
 BYTE   N06  Fn2
 BYTE   N06  As2
 BYTE   W06
 BYTE   As1
 BYTE   N06  Fn2
 BYTE   N06  As2
 BYTE   W06
 BYTE   As1
 BYTE   N06  Fn2
 BYTE   N06  As2
 BYTE   W06
 BYTE   As1
 BYTE   N06  Fn2
 BYTE   N06  As2
 BYTE   W06
 BYTE   As1
 BYTE   N06  Fn2
 BYTE   N06  As2
 BYTE   W06
 BYTE   As1
 BYTE   N06  Fn2
 BYTE   N06  As2
 BYTE   W06
 BYTE   As1
 BYTE   N06  Fn2
 BYTE   N06  As2
 BYTE   W06
 BYTE   PEND 
//  #01 //025   ----------------------------------------
Label_010047F8:
 BYTE   N06  As1  v096
 BYTE   N06  Fn2
 BYTE   N06  As2
 BYTE   W06
 BYTE   As1
 BYTE   N06  Fn2
 BYTE   N06  As2
 BYTE   W06
 BYTE   As1
 BYTE   N06  Fn2
 BYTE   N06  As2
 BYTE   W06
 BYTE   As1
 BYTE   N06  Fn2
 BYTE   N06  As2
 BYTE   W06
 BYTE   Gn1
 BYTE   N06  Dn2
 BYTE   N06  Gn2
 BYTE   W06
 BYTE   Gn1
 BYTE   N06  Dn2
 BYTE   N06  Gn2
 BYTE   W06
 BYTE   Gn1
 BYTE   N06  Dn2
 BYTE   N06  Gn2
 BYTE   W06
 BYTE   Gn1
 BYTE   N06  Dn2
 BYTE   N06  Gn2
 BYTE   W06
 BYTE   Gn1
 BYTE   N06  Dn2
 BYTE   N06  Gn2
 BYTE   W06
 BYTE   Gn1
 BYTE   N06  Dn2
 BYTE   N06  Gn2
 BYTE   W06
 BYTE   Gn1
 BYTE   N06  Dn2
 BYTE   N06  Gn2
 BYTE   W06
 BYTE   Gn1
 BYTE   N06  Dn2
 BYTE   N06  Gn2
 BYTE   W06
 BYTE   Gn1
 BYTE   N06  Dn2
 BYTE   N06  Gn2
 BYTE   W06
 BYTE   Gn1
 BYTE   N06  Dn2
 BYTE   N06  Gn2
 BYTE   W06
 BYTE   Gn1
 BYTE   N06  Dn2
 BYTE   N06  Gn2
 BYTE   W06
 BYTE   Gn1
 BYTE   N06  Dn2
 BYTE   N06  Gn2
 BYTE   W06
 BYTE   PEND 
//  #01 //026   ----------------------------------------
Label_0100485B:
 BYTE   N06  Gn1  v096
 BYTE   N06  Dn2
 BYTE   N06  Gn2
 BYTE   W06
 BYTE   Gn1
 BYTE   N06  Dn2
 BYTE   N06  Gn2
 BYTE   W06
 BYTE   Gn1
 BYTE   N06  Dn2
 BYTE   N06  Gn2
 BYTE   W06
 BYTE   Gn1
 BYTE   N06  Dn2
 BYTE   N06  Gn2
 BYTE   W06
 BYTE   Dn2
 BYTE   N06  An2
 BYTE   N06  Dn3
 BYTE   W06
 BYTE   Dn2
 BYTE   N06  An2
 BYTE   N06  Dn3
 BYTE   W06
 BYTE   Dn2
 BYTE   N06  An2
 BYTE   N06  Dn3
 BYTE   W06
 BYTE   Dn2
 BYTE   N06  An2
 BYTE   N06  Dn3
 BYTE   W06
 BYTE   Dn2
 BYTE   N06  An2
 BYTE   N06  Dn3
 BYTE   W06
 BYTE   Dn2
 BYTE   N06  An2
 BYTE   N06  Dn3
 BYTE   W06
 BYTE   Dn2
 BYTE   N06  An2
 BYTE   N06  Dn3
 BYTE   W06
 BYTE   Dn2
 BYTE   N06  An2
 BYTE   N06  Dn3
 BYTE   W06
 BYTE   Dn2
 BYTE   N06  An2
 BYTE   N06  Dn3
 BYTE   W06
 BYTE   Dn2
 BYTE   N06  An2
 BYTE   N06  Dn3
 BYTE   W06
 BYTE   Dn2
 BYTE   N06  An2
 BYTE   N06  Dn3
 BYTE   W06
 BYTE   Dn2
 BYTE   N06  An2
 BYTE   N06  Dn3
 BYTE   W06
 BYTE   PEND 
//  #01 //027   ----------------------------------------
 BYTE   PATT
  POIN2 Label_01004732
//  #01 //028   ----------------------------------------
 BYTE   PATT
  POIN2 Label_01004795
//  #01 //029   ----------------------------------------
 BYTE   PATT
  POIN2 Label_010047F8
//  #01 //030   ----------------------------------------
 BYTE   N06  Gn1  v096
 BYTE   N06  Dn2
 BYTE   N06  Gn2
 BYTE   W06
 BYTE   Gn1
 BYTE   N06  Dn2
 BYTE   N06  Gn2
 BYTE   W06
 BYTE   Gn1
 BYTE   N06  Dn2
 BYTE   N06  Gn2
 BYTE   W06
 BYTE   Gn1
 BYTE   N06  Dn2
 BYTE   N06  Gn2
 BYTE   W06
 BYTE   Fn1
 BYTE   N06  Cn2
 BYTE   N06  Fn2
 BYTE   W06
 BYTE   Fn1
 BYTE   N06  Cn2
 BYTE   N06  Fn2
 BYTE   W06
 BYTE   Fn1
 BYTE   N06  Cn2
 BYTE   N06  Fn2
 BYTE   W06
 BYTE   Fn1
 BYTE   N06  Cn2
 BYTE   N06  Fn2
 BYTE   W06
 BYTE   Fn1
 BYTE   N06  Cn2
 BYTE   N06  Fn2
 BYTE   W06
 BYTE   Fn1
 BYTE   N06  Cn2
 BYTE   N06  Fn2
 BYTE   W06
 BYTE   Fn1
 BYTE   N06  Cn2
 BYTE   N06  Fn2
 BYTE   W06
 BYTE   Fn1
 BYTE   N06  Cn2
 BYTE   N06  Fn2
 BYTE   W06
 BYTE   Fn1
 BYTE   N06  Cn2
 BYTE   N06  Fn2
 BYTE   W06
 BYTE   Fn1
 BYTE   N06  Cn2
 BYTE   N06  Fn2
 BYTE   W06
 BYTE   Fn1
 BYTE   N06  Cn2
 BYTE   N06  Fn2
 BYTE   W06
 BYTE   Fn1
 BYTE   N06  Cn2
 BYTE   N06  Fn2
 BYTE   W06
//  #01 //031   ----------------------------------------
 BYTE   Fn1
 BYTE   N06  Cn2
 BYTE   N06  Fn2
 BYTE   W06
 BYTE   Fn1
 BYTE   N06  Cn2
 BYTE   N06  Fn2
 BYTE   W06
 BYTE   Fn1
 BYTE   N06  Cn2
 BYTE   N06  Fn2
 BYTE   W06
 BYTE   Fn1
 BYTE   N06  Cn2
 BYTE   N06  Fn2
 BYTE   W06
 BYTE   Gn1
 BYTE   N06  Dn2
 BYTE   N06  Gn2
 BYTE   W06
 BYTE   Gn1
 BYTE   N06  Dn2
 BYTE   N06  Gn2
 BYTE   W06
 BYTE   Gn1
 BYTE   N06  Dn2
 BYTE   N06  Gn2
 BYTE   W06
 BYTE   Gn1
 BYTE   N06  Dn2
 BYTE   N06  Gn2
 BYTE   W06
 BYTE   Gn1
 BYTE   N06  Dn2
 BYTE   N06  Gn2
 BYTE   W06
 BYTE   Gn1
 BYTE   N06  Dn2
 BYTE   N06  Gn2
 BYTE   W06
 BYTE   Gn1
 BYTE   N06  Dn2
 BYTE   N06  Gn2
 BYTE   W06
 BYTE   Gn1
 BYTE   N06  Dn2
 BYTE   N06  Gn2
 BYTE   W06
 BYTE   Gn1
 BYTE   N06  Dn2
 BYTE   N06  Gn2
 BYTE   W06
 BYTE   Gn1
 BYTE   N06  Dn2
 BYTE   N06  Gn2
 BYTE   W06
 BYTE   Gn1
 BYTE   N06  Dn2
 BYTE   N06  Gn2
 BYTE   W06
 BYTE   Gn1
 BYTE   N06  Dn2
 BYTE   N06  Gn2
 BYTE   W06
//  #01 //032   ----------------------------------------
 BYTE   PATT
  POIN2 Label_0100485B
//  #01 //033   ----------------------------------------
 BYTE   N06  Dn2  v096
 BYTE   N06  An2
 BYTE   N06  Dn3
 BYTE   W06
 BYTE   Dn2
 BYTE   N06  An2
 BYTE   N06  Dn3
 BYTE   W06
 BYTE   Dn2
 BYTE   N06  An2
 BYTE   N06  Dn3
 BYTE   W06
 BYTE   Dn2
 BYTE   N06  An2
 BYTE   N06  Dn3
 BYTE   W06
 BYTE   N18  As1
 BYTE   N18  Fn2
 BYTE   N18  As2
 BYTE   W18
 BYTE   As1
 BYTE   N18  Fn2
 BYTE   N18  As2
 BYTE   W18
 BYTE   As1
 BYTE   N18  Fn2
 BYTE   N18  As2
 BYTE   W18
 BYTE   N42  As1
 BYTE   N42  Fn2
 BYTE   N42  As2
 BYTE   W18
//  #01 //034   ----------------------------------------
Label_010049C8:
 BYTE   W24
 BYTE   N09  An1  v096
 BYTE   N09  En2
 BYTE   N09  An2
 BYTE   W18
 BYTE   An1
 BYTE   N09  En2
 BYTE   N09  An2
 BYTE   W18
 BYTE   An1
 BYTE   N09  En2
 BYTE   N09  An2
 BYTE   W18
 BYTE   An1
 BYTE   N09  En2
 BYTE   N09  An2
 BYTE   W18
 BYTE   PEND 
//  #01 //035   ----------------------------------------
 BYTE   PATT
  POIN2 Label_010049C8
//  #01 //036   ----------------------------------------
 BYTE   PATT
  POIN2 Label_010049C8
//  #01 //037   ----------------------------------------
Label_010049EE:
 BYTE   N06  Dn3  v096
 BYTE   W06
 BYTE   Cn3
 BYTE   W06
 BYTE   As2
 BYTE   W06
 BYTE   An2
 BYTE   W06
 BYTE   N09  An1
 BYTE   N09  En2
 BYTE   N09  An2
 BYTE   W18
 BYTE   An1
 BYTE   N09  En2
 BYTE   N09  An2
 BYTE   W18
 BYTE   An1
 BYTE   N09  En2
 BYTE   N09  An2
 BYTE   W18
 BYTE   An1
 BYTE   N09  En2
 BYTE   N09  An2
 BYTE   W18
 BYTE   PEND 
//  #01 //038   ----------------------------------------
Label_01004A12:
 BYTE   N06  An2  v096
 BYTE   W06
 BYTE   As2
 BYTE   W06
 BYTE   Cn3
 BYTE   W06
 BYTE   Dn3
 BYTE   W06
 BYTE   N09  An1
 BYTE   N09  En2
 BYTE   N09  An2
 BYTE   W18
 BYTE   An1
 BYTE   N09  En2
 BYTE   N09  An2
 BYTE   W18
 BYTE   An1
 BYTE   N09  En2
 BYTE   N09  An2
 BYTE   W18
 BYTE   An1
 BYTE   N09  En2
 BYTE   N09  An2
 BYTE   W18
 BYTE   PEND 
//  #01 //039   ----------------------------------------
 BYTE   N06  Dn3
 BYTE   W06
 BYTE   Cn3
 BYTE   W06
 BYTE   As2
 BYTE   W06
 BYTE   An2
 BYTE   W06
 BYTE   N18  Cn2
 BYTE   N18  Gn2
 BYTE   N18  Cn3
 BYTE   W18
 BYTE   Cn2
 BYTE   N18  Gn2
 BYTE   N18  Cn3
 BYTE   W18
 BYTE   N12  Cn2
 BYTE   N12  Gn2
 BYTE   N12  Cn3
 BYTE   W12
 BYTE   N24  As1
 BYTE   N24  Fn2
 BYTE   N24  As2
 BYTE   W24
//  #01 //040   ----------------------------------------
 BYTE   As1
 BYTE   N24  Fn2
 BYTE   N24  As2
 BYTE   W24
 BYTE   N09  An1
 BYTE   N09  En2
 BYTE   N09  An2
 BYTE   W18
 BYTE   An1
 BYTE   N09  En2
 BYTE   N09  An2
 BYTE   W18
 BYTE   An1
 BYTE   N09  En2
 BYTE   N09  An2
 BYTE   W18
 BYTE   An1
 BYTE   N09  En2
 BYTE   N09  An2
 BYTE   W18
//  #01 //041   ----------------------------------------
 BYTE   PATT
  POIN2 Label_010049EE
//  #01 //042   ----------------------------------------
 BYTE   PATT
  POIN2 Label_01004A12
//  #01 //043   ----------------------------------------
 BYTE   N06  Dn3  v096
 BYTE   W06
 BYTE   Cn3
 BYTE   W06
 BYTE   As2
 BYTE   W06
 BYTE   An2
 BYTE   W06
 BYTE   N18  Cn2
 BYTE   N18  Gn2
 BYTE   N18  Cn3
 BYTE   W18
 BYTE   Cn2
 BYTE   N18  Gn2
 BYTE   N18  Cn3
 BYTE   W18
 BYTE   N12  Cn2
 BYTE   N12  Gn2
 BYTE   N12  Cn3
 BYTE   W12
 BYTE   Dn2
 BYTE   W12
 BYTE   Cn2
 BYTE   W12
//  #01 //044   ----------------------------------------
 BYTE   As1
 BYTE   W12
 BYTE   An1
 BYTE   W12
 BYTE   N06  Gn1
 BYTE   N06  Dn2
 BYTE   N06  Gn2
 BYTE   W06
 BYTE   Gn1
 BYTE   N06  Dn2
 BYTE   N06  Gn2
 BYTE   W06
 BYTE   Gn1
 BYTE   N06  Dn2
 BYTE   N06  Gn2
 BYTE   W06
 BYTE   Gn1
 BYTE   N06  Dn2
 BYTE   N06  Gn2
 BYTE   W06
 BYTE   N12  Gn1
 BYTE   N12  Dn2
 BYTE   N12  Gn2
 BYTE   W12
 BYTE   N06  Gn1
 BYTE   N06  Dn2
 BYTE   N06  Gn2
 BYTE   W06
 BYTE   Gn1
 BYTE   N06  Dn2
 BYTE   N06  Gn2
 BYTE   W06
 BYTE   Gn1
 BYTE   N06  Dn2
 BYTE   N06  Gn2
 BYTE   W06
 BYTE   Gn1
 BYTE   N06  Dn2
 BYTE   N06  Gn2
 BYTE   W06
 BYTE   N12  Gn1
 BYTE   N12  Dn2
 BYTE   N12  Gn2
 BYTE   W12
//  #01 //045   ----------------------------------------
Label_01004AE9:
 BYTE   N06  Gn1  v096
 BYTE   N06  Dn2
 BYTE   N06  Gn2
 BYTE   W06
 BYTE   Gn1
 BYTE   N06  Dn2
 BYTE   N06  Gn2
 BYTE   W06
 BYTE   N12  Gn1
 BYTE   N12  Dn2
 BYTE   N12  Gn2
 BYTE   W12
 BYTE   N06  Fn1
 BYTE   N06  Cn2
 BYTE   N06  Fn2
 BYTE   W06
 BYTE   Fn1
 BYTE   N06  Cn2
 BYTE   N06  Fn2
 BYTE   W06
 BYTE   Fn1
 BYTE   N06  Cn2
 BYTE   N06  Fn2
 BYTE   W06
 BYTE   Fn1
 BYTE   N06  Cn2
 BYTE   N06  Fn2
 BYTE   W06
 BYTE   N12  Fn1
 BYTE   N12  Cn2
 BYTE   N12  Fn2
 BYTE   W12
 BYTE   N06  Fn1
 BYTE   N06  Cn2
 BYTE   N06  Fn2
 BYTE   W06
 BYTE   Fn1
 BYTE   N06  Cn2
 BYTE   N06  Fn2
 BYTE   W06
 BYTE   Fn1
 BYTE   N06  Cn2
 BYTE   N06  Fn2
 BYTE   W06
 BYTE   Fn1
 BYTE   N06  Cn2
 BYTE   N06  Fn2
 BYTE   W06
 BYTE   N12  Fn1
 BYTE   N12  Cn2
 BYTE   N12  Fn2
 BYTE   W12
 BYTE   PEND 
//  #01 //046   ----------------------------------------
Label_01004B3F:
 BYTE   N06  Fn1  v096
 BYTE   N06  Cn2
 BYTE   N06  Fn2
 BYTE   W06
 BYTE   Fn1
 BYTE   N06  Cn2
 BYTE   N06  Fn2
 BYTE   W06
 BYTE   N12  Fn1
 BYTE   N12  Cn2
 BYTE   N12  Fn2
 BYTE   W12
 BYTE   N06  Ds1
 BYTE   N06  As1
 BYTE   N06  Ds2
 BYTE   W06
 BYTE   Ds1
 BYTE   N06  As1
 BYTE   N06  Ds2
 BYTE   W06
 BYTE   Ds1
 BYTE   N06  As1
 BYTE   N06  Ds2
 BYTE   W06
 BYTE   Ds1
 BYTE   N06  As1
 BYTE   N06  Ds2
 BYTE   W06
 BYTE   N12  Ds1
 BYTE   N12  As1
 BYTE   N12  Ds2
 BYTE   W12
 BYTE   N06  Ds1
 BYTE   N06  As1
 BYTE   N06  Ds2
 BYTE   W06
 BYTE   Ds1
 BYTE   N06  As1
 BYTE   N06  Ds2
 BYTE   W06
 BYTE   Ds1
 BYTE   N06  As1
 BYTE   N06  Ds2
 BYTE   W06
 BYTE   Ds1
 BYTE   N06  As1
 BYTE   N06  Ds2
 BYTE   W06
 BYTE   N12  Ds1
 BYTE   N12  As1
 BYTE   N12  Ds2
 BYTE   W12
 BYTE   PEND 
//  #01 //047   ----------------------------------------
Label_01004B95:
 BYTE   N06  Ds1  v096
 BYTE   N06  As1
 BYTE   N06  Ds2
 BYTE   W06
 BYTE   Ds1
 BYTE   N06  As1
 BYTE   N06  Ds2
 BYTE   W06
 BYTE   N12  Ds1
 BYTE   N12  As1
 BYTE   N12  Ds2
 BYTE   W12
 BYTE   N06  Ds1
 BYTE   N06  As1
 BYTE   N06  Ds2
 BYTE   W06
 BYTE   Ds1
 BYTE   N06  As1
 BYTE   N06  Ds2
 BYTE   W06
 BYTE   Ds1
 BYTE   N06  As1
 BYTE   N06  Ds2
 BYTE   W06
 BYTE   Ds1
 BYTE   N06  As1
 BYTE   N06  Ds2
 BYTE   W06
 BYTE   N12  Ds1
 BYTE   N12  As1
 BYTE   N12  Ds2
 BYTE   W12
 BYTE   N06  Ds1
 BYTE   N06  As1
 BYTE   N06  Ds2
 BYTE   W06
 BYTE   Ds1
 BYTE   N06  As1
 BYTE   N06  Ds2
 BYTE   W06
 BYTE   Ds1
 BYTE   N06  As1
 BYTE   N06  Ds2
 BYTE   W06
 BYTE   Ds1
 BYTE   N06  As1
 BYTE   N06  Ds2
 BYTE   W06
 BYTE   N12  Ds1
 BYTE   N12  As1
 BYTE   N12  Ds2
 BYTE   W12
 BYTE   PEND 
//  #01 //048   ----------------------------------------
Label_01004BEB:
 BYTE   N06  Fn1  v096
 BYTE   N06  Cn2
 BYTE   N06  Fn2
 BYTE   W06
 BYTE   Fn1
 BYTE   N06  Cn2
 BYTE   N06  Fn2
 BYTE   W06
 BYTE   N12  Fn1
 BYTE   N12  Cn2
 BYTE   N12  Fn2
 BYTE   W12
 BYTE   N06  Gn1
 BYTE   N06  Dn2
 BYTE   N06  Gn2
 BYTE   W06
 BYTE   Gn1
 BYTE   N06  Dn2
 BYTE   N06  Gn2
 BYTE   W06
 BYTE   Gn1
 BYTE   N06  Dn2
 BYTE   N06  Gn2
 BYTE   W06
 BYTE   Gn1
 BYTE   N06  Dn2
 BYTE   N06  Gn2
 BYTE   W06
 BYTE   N12  Gn1
 BYTE   N12  Dn2
 BYTE   N12  Gn2
 BYTE   W12
 BYTE   N06  Gn1
 BYTE   N06  Dn2
 BYTE   N06  Gn2
 BYTE   W06
 BYTE   Gn1
 BYTE   N06  Dn2
 BYTE   N06  Gn2
 BYTE   W06
 BYTE   Gn1
 BYTE   N06  Dn2
 BYTE   N06  Gn2
 BYTE   W06
 BYTE   Gn1
 BYTE   N06  Dn2
 BYTE   N06  Gn2
 BYTE   W06
 BYTE   N12  Gn1
 BYTE   N12  Dn2
 BYTE   N12  Gn2
 BYTE   W12
 BYTE   PEND 
//  #01 //049   ----------------------------------------
 BYTE   PATT
  POIN2 Label_01004AE9
//  #01 //050   ----------------------------------------
 BYTE   PATT
  POIN2 Label_01004B3F
//  #01 //051   ----------------------------------------
 BYTE   PATT
  POIN2 Label_01004B95
//  #01 //052   ----------------------------------------
 BYTE   N06  Fn1  v096
 BYTE   N06  Cn2
 BYTE   N06  Fn2
 BYTE   W06
 BYTE   Fn1
 BYTE   N06  Cn2
 BYTE   N06  Fn2
 BYTE   W06
 BYTE   N12  Fn1
 BYTE   N12  Cn2
 BYTE   N12  Fn2
 BYTE   W12
 BYTE   N06  Cn1
 BYTE   N06  Gn1
 BYTE   N06  Cn2
 BYTE   W06
 BYTE   Cn1
 BYTE   N06  Gn1
 BYTE   N06  Cn2
 BYTE   W06
 BYTE   Cn1
 BYTE   N06  Gn1
 BYTE   N06  Cn2
 BYTE   W06
 BYTE   Cn1
 BYTE   N06  Gn1
 BYTE   N06  Cn2
 BYTE   W06
 BYTE   N12  Cn1
 BYTE   N12  Gn1
 BYTE   N12  Cn2
 BYTE   W12
 BYTE   N06  Cn1
 BYTE   N06  Gn1
 BYTE   N06  Cn2
 BYTE   W06
 BYTE   Cn1
 BYTE   N06  Gn1
 BYTE   N06  Cn2
 BYTE   W06
 BYTE   Cn1
 BYTE   N06  Gn1
 BYTE   N06  Cn2
 BYTE   W06
 BYTE   Cn1
 BYTE   N06  Gn1
 BYTE   N06  Cn2
 BYTE   W06
 BYTE   N12  Cn1
 BYTE   N12  Gn1
 BYTE   N12  Cn2
 BYTE   W12
//  #01 //053   ----------------------------------------
 BYTE   N06  Cn1
 BYTE   N06  Gn1
 BYTE   N06  Cn2
 BYTE   W06
 BYTE   Cn1
 BYTE   N06  Gn1
 BYTE   N06  Cn2
 BYTE   W06
 BYTE   N12  Cn1
 BYTE   N12  Gn1
 BYTE   N12  Cn2
 BYTE   W12
 BYTE   N06  Dn1
 BYTE   N06  An1
 BYTE   N06  Dn2
 BYTE   W06
 BYTE   Dn1
 BYTE   N06  An1
 BYTE   N06  Dn2
 BYTE   W06
 BYTE   Dn1
 BYTE   N06  An1
 BYTE   N06  Dn2
 BYTE   W06
 BYTE   Dn1
 BYTE   N06  An1
 BYTE   N06  Dn2
 BYTE   W06
 BYTE   N12  Dn1
 BYTE   N12  An1
 BYTE   N12  Dn2
 BYTE   W12
 BYTE   N06  Dn1
 BYTE   N06  An1
 BYTE   N06  Dn2
 BYTE   W06
 BYTE   Dn1
 BYTE   N06  An1
 BYTE   N06  Dn2
 BYTE   W06
 BYTE   Dn1
 BYTE   N06  An1
 BYTE   N06  Dn2
 BYTE   W06
 BYTE   Dn1
 BYTE   N06  An1
 BYTE   N06  Dn2
 BYTE   W06
 BYTE   N12  Dn1
 BYTE   N12  An1
 BYTE   N12  Dn2
 BYTE   W12
//  #01 //054   ----------------------------------------
 BYTE   N06  Dn1
 BYTE   N06  An1
 BYTE   N06  Dn2
 BYTE   W06
 BYTE   Dn1
 BYTE   N06  An1
 BYTE   N06  Dn2
 BYTE   W06
 BYTE   N12  Dn1
 BYTE   N12  An1
 BYTE   N12  Dn2
 BYTE   W12
 BYTE   N06  Ds1
 BYTE   N06  As1
 BYTE   N06  Ds2
 BYTE   W06
 BYTE   Ds1
 BYTE   N06  As1
 BYTE   N06  Ds2
 BYTE   W06
 BYTE   Ds1
 BYTE   N06  As1
 BYTE   N06  Ds2
 BYTE   W06
 BYTE   Ds1
 BYTE   N06  As1
 BYTE   N06  Ds2
 BYTE   W06
 BYTE   N12  Ds1
 BYTE   N12  As1
 BYTE   N12  Ds2
 BYTE   W12
 BYTE   N06  Ds1
 BYTE   N06  As1
 BYTE   N06  Ds2
 BYTE   W06
 BYTE   Ds1
 BYTE   N06  As1
 BYTE   N06  Ds2
 BYTE   W06
 BYTE   Ds1
 BYTE   N06  As1
 BYTE   N06  Ds2
 BYTE   W06
 BYTE   Ds1
 BYTE   N06  As1
 BYTE   N06  Ds2
 BYTE   W06
 BYTE   N12  Ds1
 BYTE   N12  As1
 BYTE   N12  Ds2
 BYTE   W12
//  #01 //055   ----------------------------------------
Label_01004D4D:
 BYTE   N06  Ds1  v096
 BYTE   N06  As1
 BYTE   N06  Ds2
 BYTE   W06
 BYTE   Ds1
 BYTE   N06  As1
 BYTE   N06  Ds2
 BYTE   W06
 BYTE   N12  Ds1
 BYTE   N12  As1
 BYTE   N12  Ds2
 BYTE   W12
 BYTE   N06  Fn1
 BYTE   N06  Cn2
 BYTE   N06  Fn2
 BYTE   W06
 BYTE   Fn1
 BYTE   N06  Cn2
 BYTE   N06  Fn2
 BYTE   W06
 BYTE   Fn1
 BYTE   N06  Cn2
 BYTE   N06  Fn2
 BYTE   W06
 BYTE   Fn1
 BYTE   N06  Cn2
 BYTE   N06  Fn2
 BYTE   W06
 BYTE   N12  Fn1
 BYTE   N12  Cn2
 BYTE   N12  Fn2
 BYTE   W12
 BYTE   N06  Fn1
 BYTE   N06  Cn2
 BYTE   N06  Fn2
 BYTE   W06
 BYTE   Fn1
 BYTE   N06  Cn2
 BYTE   N06  Fn2
 BYTE   W06
 BYTE   Fn1
 BYTE   N06  Cn2
 BYTE   N06  Fn2
 BYTE   W06
 BYTE   Fn1
 BYTE   N06  Cn2
 BYTE   N06  Fn2
 BYTE   W06
 BYTE   N12  Fn1
 BYTE   N12  Cn2
 BYTE   N12  Fn2
 BYTE   W12
 BYTE   PEND 
//  #01 //056   ----------------------------------------
 BYTE   PATT
  POIN2 Label_01004BEB
//  #01 //057   ----------------------------------------
Label_01004DA8:
 BYTE   N06  Gn1  v096
 BYTE   N06  Dn2
 BYTE   N06  Gn2
 BYTE   W06
 BYTE   Gn1
 BYTE   N06  Dn2
 BYTE   N06  Gn2
 BYTE   W06
 BYTE   N12  Gn1
 BYTE   N12  Dn2
 BYTE   N12  Gn2
 BYTE   W12
 BYTE   N06  Ds1
 BYTE   N06  As1
 BYTE   N06  Ds2
 BYTE   W06
 BYTE   Ds1
 BYTE   N06  As1
 BYTE   N06  Ds2
 BYTE   W06
 BYTE   Ds1
 BYTE   N06  As1
 BYTE   N06  Ds2
 BYTE   W06
 BYTE   Ds1
 BYTE   N06  As1
 BYTE   N06  Ds2
 BYTE   W06
 BYTE   N12  Ds1
 BYTE   N12  As1
 BYTE   N12  Ds2
 BYTE   W12
 BYTE   N06  Ds1
 BYTE   N06  As1
 BYTE   N06  Ds2
 BYTE   W06
 BYTE   Ds1
 BYTE   N06  As1
 BYTE   N06  Ds2
 BYTE   W06
 BYTE   Ds1
 BYTE   N06  As1
 BYTE   N06  Ds2
 BYTE   W06
 BYTE   Ds1
 BYTE   N06  As1
 BYTE   N06  Ds2
 BYTE   W06
 BYTE   N12  Ds1
 BYTE   N12  As1
 BYTE   N12  Ds2
 BYTE   W12
 BYTE   PEND 
//  #01 //058   ----------------------------------------
 BYTE   PATT
  POIN2 Label_01004D4D
//  #01 //059   ----------------------------------------
Label_01004E03:
 BYTE   N06  Fn1  v096
 BYTE   N06  Cn2
 BYTE   N06  Fn2
 BYTE   W06
 BYTE   Fn1
 BYTE   N06  Cn2
 BYTE   N06  Fn2
 BYTE   W06
 BYTE   N12  Fn1
 BYTE   N12  Cn2
 BYTE   N12  Fn2
 BYTE   W12
 BYTE   N06  Fn1
 BYTE   N06  Cn2
 BYTE   N06  Fn2
 BYTE   W06
 BYTE   Fn1
 BYTE   N06  Cn2
 BYTE   N06  Fn2
 BYTE   W06
 BYTE   Fn1
 BYTE   N06  Cn2
 BYTE   N06  Fn2
 BYTE   W06
 BYTE   Fn1
 BYTE   N06  Cn2
 BYTE   N06  Fn2
 BYTE   W06
 BYTE   N12  Fn1
 BYTE   N12  Cn2
 BYTE   N12  Fn2
 BYTE   W12
 BYTE   N06  Fn1
 BYTE   N06  Cn2
 BYTE   N06  Fn2
 BYTE   W06
 BYTE   Fn1
 BYTE   N06  Cn2
 BYTE   N06  Fn2
 BYTE   W06
 BYTE   Fn1
 BYTE   N06  Cn2
 BYTE   N06  Fn2
 BYTE   W06
 BYTE   Fn1
 BYTE   N06  Cn2
 BYTE   N06  Fn2
 BYTE   W06
 BYTE   N12  Fn1
 BYTE   N12  Cn2
 BYTE   N12  Fn2
 BYTE   W12
 BYTE   PEND 
//  #01 //060   ----------------------------------------
 BYTE   PATT
  POIN2 Label_01004BEB
//  #01 //061   ----------------------------------------
 BYTE   PATT
  POIN2 Label_01004DA8
//  #01 //062   ----------------------------------------
 BYTE   PATT
  POIN2 Label_01004D4D
//  #01 //063   ----------------------------------------
 BYTE   PATT
  POIN2 Label_01004E03
//  #01 //064   ----------------------------------------
 BYTE   N06  Fn1  v096
 BYTE   N06  Cn2
 BYTE   N06  Fn2
 BYTE   W06
 BYTE   Fn1
 BYTE   N06  Cn2
 BYTE   N06  Fn2
 BYTE   W06
 BYTE   N12  Fn1
 BYTE   N12  Cn2
 BYTE   N12  Fn2
 BYTE   W12
 BYTE   N06  En1
 BYTE   W06
 BYTE   N06
 BYTE   W06
 BYTE   N06
 BYTE   W06
 BYTE   N06
 BYTE   W06
 BYTE   N12
 BYTE   N12  Bn1
 BYTE   N12  En2
 BYTE   W12
 BYTE   En1
 BYTE   W12
 BYTE   N03
 BYTE   W03
 BYTE   N03
 BYTE   W03
 BYTE   N03
 BYTE   W03
 BYTE   N03
 BYTE   W03
 BYTE   N12
 BYTE   N12  Bn1
 BYTE   N12  En2
 BYTE   W12
//  #01 //065   ----------------------------------------
 BYTE   N06  En1
 BYTE   W06
 BYTE   N06
 BYTE   W06
 BYTE   N12
 BYTE   N12  Bn1
 BYTE   N12  En2
 BYTE   W12
 BYTE   N06  En1
 BYTE   W06
 BYTE   N06
 BYTE   W06
 BYTE   N06
 BYTE   W06
 BYTE   N06
 BYTE   W06
 BYTE   N12
 BYTE   N12  Bn1
 BYTE   N12  En2
 BYTE   W12
 BYTE   En1
 BYTE   W12
 BYTE   N03
 BYTE   W03
 BYTE   N03
 BYTE   W03
 BYTE   N03
 BYTE   W03
 BYTE   N03
 BYTE   W03
 BYTE   N12
 BYTE   N12  Bn1
 BYTE   N12  En2
 BYTE   W12
//  #01 //066   ----------------------------------------
 BYTE   N06  En1
 BYTE   W06
 BYTE   N06
 BYTE   W06
 BYTE   N12
 BYTE   N12  Bn1
 BYTE   N12  En2
 BYTE   W12
 BYTE   Fs1
 BYTE   N12  Bn1
 BYTE   W12
 BYTE   N06
 BYTE   W06
 BYTE   N12  Fs1
 BYTE   N12  Bn1
 BYTE   W12
 BYTE   N06
 BYTE   W06
 BYTE   N12  Fs1
 BYTE   N12  Bn1
 BYTE   W12
 BYTE   N06
 BYTE   W06
 BYTE   N18  Fs1
 BYTE   N18  Bn1
 BYTE   W18
//  #01 //067   ----------------------------------------
 BYTE   N06
 BYTE   W06
 BYTE   N06
 BYTE   W06
 BYTE   N06
 BYTE   W06
 BYTE   N06
 BYTE   W06
 BYTE   N18
 BYTE   W18
 BYTE   Cs2
 BYTE   W18
 BYTE   Dn2
 BYTE   W18
 BYTE   En2
 BYTE   W18
//  #01 //068   ----------------------------------------
 BYTE   N12  Dn2
 BYTE   W12
 BYTE   Cs2
 BYTE   W12
 BYTE   Bn1
 BYTE   N12  Fs2
 BYTE   W18
 BYTE   Bn1
 BYTE   N12  Fs2
 BYTE   W18
 BYTE   Bn1
 BYTE   N12  Fs2
 BYTE   W18
 BYTE   N18  Bn1
 BYTE   N18  Fs2
 BYTE   W18
//  #01 //069   ----------------------------------------
 BYTE   N06  Bn1
 BYTE   W06
 BYTE   N06
 BYTE   W06
 BYTE   N06
 BYTE   W06
 BYTE   N06
 BYTE   W06
 BYTE   N12
 BYTE   N12  Fs2
 BYTE   W18
 BYTE   Bn1
 BYTE   N12  Fs2
 BYTE   W18
 BYTE   Bn1
 BYTE   N12  Fs2
 BYTE   W12
 BYTE   GoTo
  POIN2 Label_01004659
//  #01 //070   ----------------------------------------
 BYTE   W06
 BYTE   TIE  Bn1  v096
 BYTE   TIE  Fs2
 BYTE   W18
 BYTE   W96
//  #01 //071   ----------------------------------------
 BYTE   W24
 BYTE   EOT
 BYTE   Bn1  v054
 BYTE   W48
 BYTE   VOICE   30
 BYTE   PAN   c_v+32
 BYTE   VOL   25*ItHasToBeThisWay_mvl/mxv
 BYTE   PAN   c_v+32
 BYTE   VOL   25*ItHasToBeThisWay_mvl/mxv
 BYTE   PAN   c_v+32
 BYTE   VOL   25*ItHasToBeThisWay_mvl/mxv
 BYTE   BEND   c_v+0
 BYTE   FINE

//**************** Track 2 (Midi-Chn.1) ****************//

ItHasToBeThisWay_002:
//  #02 //000   ----------------------------------------
 BYTE   KEYSH   ItHasToBeThisWay_key+0
 BYTE   VOICE   104
 BYTE   PAN   c_v-31
 BYTE   VOL   25*ItHasToBeThisWay_mvl/mxv
 BYTE   PAN   c_v-31
 BYTE   VOL   25*ItHasToBeThisWay_mvl/mxv
 BYTE   PAN   c_v-31
 BYTE   VOL   25*ItHasToBeThisWay_mvl/mxv
 BYTE   PAN   c_v-31
 BYTE   VOL   25*ItHasToBeThisWay_mvl/mxv
 BYTE   PAN   c_v-31
 BYTE   VOL   25*ItHasToBeThisWay_mvl/mxv
 BYTE   PAN   c_v-31
 BYTE   VOL   25*ItHasToBeThisWay_mvl/mxv
 BYTE   BEND   c_v+0
 BYTE   N12  Dn2  v096
 BYTE   W12
 BYTE   Cs2
 BYTE   W12
 BYTE   N72  Bn1
 BYTE   N72  Fs2
 BYTE   N72  Bn2
 BYTE   W72
//  #02 //001   ----------------------------------------
Label_01005AFB:
 BYTE   N12  Dn2  v096
 BYTE   W12
 BYTE   Cs2
 BYTE   W12
 BYTE   N72  An1
 BYTE   N72  En2
 BYTE   N72  An2
 BYTE   W72
 BYTE   PEND 
//  #02 //002   ----------------------------------------
Label_01005B09:
 BYTE   N12  Dn2  v096
 BYTE   W12
 BYTE   Cs2
 BYTE   W12
 BYTE   N96  Gn1
 BYTE   N96  Dn2
 BYTE   N96  Gn2
 BYTE   W72
 BYTE   PEND 
//  #02 //003   ----------------------------------------
 BYTE   W24
 BYTE   N72  En1
 BYTE   N72  Bn1
 BYTE   N72  En2
 BYTE   W72
//  #02 //004   ----------------------------------------
 BYTE   N12  Dn2
 BYTE   W12
 BYTE   Cs2
 BYTE   W12
 BYTE   N72  Bn1
 BYTE   N72  Fs2
 BYTE   N72  Bn2
 BYTE   W72
//  #02 //005   ----------------------------------------
 BYTE   PATT
  POIN2 Label_01005AFB
//  #02 //006   ----------------------------------------
 BYTE   PATT
  POIN2 Label_01005B09
//  #02 //007   ----------------------------------------
 BYTE   W24
 BYTE   N96  En1  v096
 BYTE   N96  Bn1
 BYTE   N96  En2
 BYTE   W72
//  #02 //008   ----------------------------------------
 BYTE   W24
 BYTE   N09  Fs1  v076
 BYTE   N09  Bn1
 BYTE   W12
 BYTE   Fs1
 BYTE   N09  Bn1
 BYTE   W12
 BYTE   Fs1
 BYTE   N09  Bn1
 BYTE   W12
 BYTE   Fs1
 BYTE   N09  Bn1
 BYTE   W12
 BYTE   Fs1
 BYTE   N09  Bn1
 BYTE   W12
 BYTE   Fs1
 BYTE   N09  Bn1
 BYTE   W12
//  #02 //009   ----------------------------------------
 BYTE   Fs1
 BYTE   N09  Bn1
 BYTE   W12
 BYTE   Fs1
 BYTE   N09  Bn1
 BYTE   W12
 BYTE   Fs1
 BYTE   N09  Bn1  v096
 BYTE   W12
 BYTE   Fs1  v076
 BYTE   N09  Bn1  v096
 BYTE   W12
 BYTE   Fs1  v076
 BYTE   N09  Bn1  v096
 BYTE   W12
 BYTE   Fs1  v076
 BYTE   N09  Bn1  v096
 BYTE   W12
 BYTE   N12  Fs1
 BYTE   N09  Bn1
 BYTE   W12
 BYTE   N12  Fs1
 BYTE   N09  Bn1
 BYTE   W12
//  #02 //010   ----------------------------------------
 BYTE   N12  Fs1
 BYTE   N09  Bn1
 BYTE   W12
 BYTE   N12  Fs1
 BYTE   N12  Bn1
 BYTE   W12
 BYTE   N06  Fs1
 BYTE   N06  Bn1
 BYTE   W06
 BYTE   N03
 BYTE   W03
 BYTE   N03
 BYTE   W03
 BYTE   N03
 BYTE   W03
 BYTE   N03
 BYTE   W03
 BYTE   N06  Fs1
 BYTE   N06  Bn1
 BYTE   W06
 BYTE   N03
 BYTE   W03
 BYTE   N03
 BYTE   W03
 BYTE   N03
 BYTE   W03
 BYTE   N03
 BYTE   W03
 BYTE   N06  Fs1
 BYTE   N06  Bn1
 BYTE   W06
 BYTE   N03
 BYTE   W03
 BYTE   N03
 BYTE   W03
 BYTE   N03
 BYTE   W03
 BYTE   N03
 BYTE   W03
 BYTE   N06  Fs1
 BYTE   N06  Bn1
 BYTE   W06
 BYTE   N03
 BYTE   W03
 BYTE   N03
 BYTE   W03
 BYTE   N03
 BYTE   W03
 BYTE   N03
 BYTE   W03
//  #02 //011   ----------------------------------------
Label_01005BC0:
 BYTE   N12  Bn1  v096
 BYTE   W12
 BYTE   An1
 BYTE   W12
 BYTE   N06  Fs1
 BYTE   N06  Bn1
 BYTE   W06
 BYTE   N03
 BYTE   W03
 BYTE   N03
 BYTE   W03
 BYTE   N03
 BYTE   W03
 BYTE   N03
 BYTE   W03
 BYTE   N06  Fs1
 BYTE   N06  Bn1
 BYTE   W06
 BYTE   N03
 BYTE   W03
 BYTE   N03
 BYTE   W03
 BYTE   N03
 BYTE   W03
 BYTE   N03
 BYTE   W03
 BYTE   N06  Fs1
 BYTE   N06  Bn1
 BYTE   W06
 BYTE   N03
 BYTE   W03
 BYTE   N03
 BYTE   W03
 BYTE   N03
 BYTE   W03
 BYTE   N03
 BYTE   W03
 BYTE   N06  Fs1
 BYTE   N06  Bn1
 BYTE   W06
 BYTE   N03
 BYTE   W03
 BYTE   N03
 BYTE   W03
 BYTE   N03
 BYTE   W03
 BYTE   N03
 BYTE   W03
 BYTE   PEND 
//  #02 //012   ----------------------------------------
Label_01005BFB:
 BYTE   N12  Dn2  v120
 BYTE   W12
 BYTE   Cs2
 BYTE   W12
 BYTE   N06  Fs1  v096
 BYTE   N06  Bn1
 BYTE   W06
 BYTE   N03
 BYTE   W03
 BYTE   N03
 BYTE   W03
 BYTE   N03
 BYTE   W03
 BYTE   N03
 BYTE   W03
 BYTE   N06  Fs1
 BYTE   N06  Bn1
 BYTE   W06
 BYTE   N03
 BYTE   W03
 BYTE   N03
 BYTE   W03
 BYTE   N03
 BYTE   W03
 BYTE   N03
 BYTE   W03
 BYTE   N06  Fs1
 BYTE   N06  Bn1
 BYTE   W06
 BYTE   N03
 BYTE   W03
 BYTE   N03
 BYTE   W03
 BYTE   N03
 BYTE   W03
 BYTE   N03
 BYTE   W03
 BYTE   N06  Fs1
 BYTE   N06  Bn1
 BYTE   W06
 BYTE   N03
 BYTE   W03
 BYTE   N03
 BYTE   W03
 BYTE   N03
 BYTE   W03
 BYTE   N03
 BYTE   W03
 BYTE   PEND 
//  #02 //013   ----------------------------------------
 BYTE   PATT
  POIN2 Label_01005BC0
//  #02 //014   ----------------------------------------
 BYTE   PATT
  POIN2 Label_01005BFB
//  #02 //015   ----------------------------------------
Label_01005C41:
 BYTE   N12  Bn1  v096
 BYTE   N12  Bn2  v120
 BYTE   W12
 BYTE   An1  v096
 BYTE   N12  An2  v120
 BYTE   W12
 BYTE   N06  Fs1  v096
 BYTE   N06  Bn1
 BYTE   W06
 BYTE   N03
 BYTE   W03
 BYTE   N03
 BYTE   W03
 BYTE   N03
 BYTE   W03
 BYTE   N03
 BYTE   W03
 BYTE   N06  Fs1
 BYTE   N06  Bn1
 BYTE   W06
 BYTE   N03
 BYTE   W03
 BYTE   N03
 BYTE   W03
 BYTE   N03
 BYTE   W03
 BYTE   N03
 BYTE   W03
 BYTE   N06  Fs1
 BYTE   N06  Bn1
 BYTE   W06
 BYTE   N03
 BYTE   W03
 BYTE   N03
 BYTE   W03
 BYTE   N03
 BYTE   W03
 BYTE   N03
 BYTE   W03
 BYTE   N06  Fs1
 BYTE   N06  Bn1
 BYTE   W06
 BYTE   N03
 BYTE   W03
 BYTE   N03
 BYTE   W03
 BYTE   N03
 BYTE   W03
 BYTE   N03
 BYTE   W03
 BYTE   PEND 
//  #02 //016   ----------------------------------------
 BYTE   PATT
  POIN2 Label_01005C41
//  #02 //017   ----------------------------------------
 BYTE   N12  Dn2  v120
 BYTE   N12  Dn3
 BYTE   W12
 BYTE   Cs2
 BYTE   N12  Cs3
 BYTE   W12
 BYTE   N06  Fs1  v096
 BYTE   N06  Bn1
 BYTE   W06
 BYTE   N03
 BYTE   W03
 BYTE   N03
 BYTE   W03
 BYTE   N03
 BYTE   W03
 BYTE   N03
 BYTE   W03
 BYTE   N06  Fs1
 BYTE   N06  Bn1
 BYTE   W06
 BYTE   N03
 BYTE   W03
 BYTE   N03
 BYTE   W03
 BYTE   N03
 BYTE   W03
 BYTE   N03
 BYTE   W03
 BYTE   N06  Fs1
 BYTE   N06  Bn1
 BYTE   W06
 BYTE   N03
 BYTE   W03
 BYTE   N03
 BYTE   W03
Label_01005CB7:
 BYTE   N03  Bn1  v096
 BYTE   W03
 BYTE   N03
 BYTE   W03
 BYTE   N06  Fs1
 BYTE   N06  Bn1
 BYTE   W06
 BYTE   N03
 BYTE   W03
 BYTE   N03
 BYTE   W03
 BYTE   N03
 BYTE   W03
 BYTE   N03
 BYTE   W03
//  #02 //018   ----------------------------------------
 BYTE   N12  Dn2  v120
 BYTE   N12  Dn3
 BYTE   W12
 BYTE   Cs2
 BYTE   N12  Cs3
 BYTE   W12
 BYTE   N06  Fs1  v096
 BYTE   N06  Bn1
 BYTE   W06
 BYTE   N03
 BYTE   W03
 BYTE   N03
 BYTE   W03
 BYTE   N03
 BYTE   W03
 BYTE   N03
 BYTE   W03
 BYTE   N06  Fs1
 BYTE   N06  Bn1
 BYTE   W06
 BYTE   N03
 BYTE   W03
 BYTE   N03
 BYTE   W03
 BYTE   N03
 BYTE   W03
 BYTE   N03
 BYTE   W03
 BYTE   N06  Fs1
 BYTE   N06  Bn1
 BYTE   W06
 BYTE   N03
 BYTE   W03
 BYTE   N03
 BYTE   W03
 BYTE   N03
 BYTE   W03
 BYTE   N03
 BYTE   W03
 BYTE   N06  Fs1
 BYTE   N06  Bn1
 BYTE   W06
 BYTE   N03
 BYTE   W03
 BYTE   N03
 BYTE   W03
 BYTE   N03
 BYTE   W03
 BYTE   N03
 BYTE   W03
//  #02 //019   ----------------------------------------
 BYTE   PATT
  POIN2 Label_01005C41
//  #02 //020   ----------------------------------------
 BYTE   N12  Bn1  v096
 BYTE   N12  Bn2  v120
 BYTE   W12
 BYTE   An1  v096
 BYTE   N12  An2
 BYTE   W12
 BYTE   N06  Fs1
 BYTE   N06  Bn1
 BYTE   W06
 BYTE   N03
 BYTE   W03
 BYTE   N03
 BYTE   W03
 BYTE   N03
 BYTE   W03
 BYTE   N03
 BYTE   W03
 BYTE   N06  Fs1
 BYTE   N06  Bn1
 BYTE   W06
 BYTE   N03
 BYTE   W03
 BYTE   N03
 BYTE   W03
 BYTE   N03
 BYTE   W03
 BYTE   N03
 BYTE   W03
 BYTE   N06  Fs1
 BYTE   N06  Bn1
 BYTE   W06
 BYTE   N03
 BYTE   W03
 BYTE   N03
 BYTE   W03
 BYTE   N03
 BYTE   W03
 BYTE   N03
 BYTE   W03
 BYTE   N06  Fs1
 BYTE   N06  Bn1
 BYTE   W06
 BYTE   N03
 BYTE   W03
 BYTE   N03
 BYTE   W03
 BYTE   N03
 BYTE   W03
 BYTE   N03
 BYTE   W03
//  #02 //021   ----------------------------------------
 BYTE   N12  Dn2
 BYTE   N12  Dn3  v120
 BYTE   W12
 BYTE   Cs2  v096
 BYTE   N12  Cs3  v120
 BYTE   W12
 BYTE   N18  Fn1  v096
 BYTE   N18  Cn2
 BYTE   N18  Fn2
 BYTE   W18
 BYTE   En1
 BYTE   N18  Bn1
 BYTE   N18  En2
 BYTE   W18
 BYTE   Fn1
 BYTE   N18  Cn2
 BYTE   N18  Fn2
 BYTE   W18
 BYTE   Gn1
 BYTE   N18  Dn2
 BYTE   N18  Gn2
 BYTE   W18
//  #02 //022   ----------------------------------------
 BYTE   N12  Fn1
 BYTE   N12  Cn2
 BYTE   N12  Fn2
 BYTE   W12
 BYTE   En1
 BYTE   N12  Bn1
 BYTE   N12  En2
 BYTE   W12
 BYTE   N06  Dn2
 BYTE   N06  An2
 BYTE   N06  Dn3
 BYTE   W06
 BYTE   Dn2
 BYTE   N06  An2
 BYTE   N06  Dn3
 BYTE   W06
 BYTE   Dn2
 BYTE   N06  An2
 BYTE   N06  Dn3
 BYTE   W06
 BYTE   Dn2
 BYTE   N06  An2
 BYTE   N06  Dn3
 BYTE   W06
 BYTE   Dn2
 BYTE   N06  An2
 BYTE   N06  Dn3
 BYTE   W06
 BYTE   Dn2
 BYTE   N06  An2
 BYTE   N06  Dn3
 BYTE   W06
 BYTE   Dn2
 BYTE   N06  An2
 BYTE   N06  Dn3
 BYTE   W06
 BYTE   Dn2
 BYTE   N06  An2
 BYTE   N06  Dn3
 BYTE   W06
 BYTE   Dn2
 BYTE   N06  An2
 BYTE   N06  Dn3
 BYTE   W06
 BYTE   Dn2
 BYTE   N06  An2
 BYTE   N06  Dn3
 BYTE   W06
 BYTE   Dn2
 BYTE   N06  An2
 BYTE   N06  Dn3
 BYTE   W06
 BYTE   Dn2
 BYTE   N06  An2
 BYTE   N06  Dn3
 BYTE   W06
//  #02 //023   ----------------------------------------
Label_01005DCA:
 BYTE   N06  Dn2  v096
 BYTE   N06  An2
 BYTE   N06  Dn3
 BYTE   W06
 BYTE   Dn2
 BYTE   N06  An2
 BYTE   N06  Dn3
 BYTE   W06
 BYTE   Dn2
 BYTE   N06  An2
 BYTE   N06  Dn3
 BYTE   W06
 BYTE   Dn2
 BYTE   N06  An2
 BYTE   N06  Dn3
 BYTE   W06
 BYTE   Cn2
 BYTE   N06  Gn2
 BYTE   N06  Cn3
 BYTE   W06
 BYTE   Cn2
 BYTE   N06  Gn2
 BYTE   N06  Cn3
 BYTE   W06
 BYTE   Cn2
 BYTE   N06  Gn2
 BYTE   N06  Cn3
 BYTE   W06
 BYTE   Cn2
 BYTE   N06  Gn2
 BYTE   N06  Cn3
 BYTE   W06
 BYTE   Cn2
 BYTE   N06  Gn2
 BYTE   N06  Cn3
 BYTE   W06
 BYTE   Cn2
 BYTE   N06  Gn2
 BYTE   N06  Cn3
 BYTE   W06
 BYTE   Cn2
 BYTE   N06  Gn2
 BYTE   N06  Cn3
 BYTE   W06
 BYTE   Cn2
 BYTE   N06  Gn2
 BYTE   N06  Cn3
 BYTE   W06
 BYTE   Cn2
 BYTE   N06  Gn2
 BYTE   N06  Cn3
 BYTE   W06
 BYTE   Cn2
 BYTE   N06  Gn2
 BYTE   N06  Cn3
 BYTE   W06
 BYTE   Cn2
 BYTE   N06  Gn2
 BYTE   N06  Cn3
 BYTE   W06
 BYTE   Cn2
 BYTE   N06  Gn2
 BYTE   N06  Cn3
 BYTE   W06
 BYTE   PEND 
//  #02 //024   ----------------------------------------
Label_01005E2D:
 BYTE   N06  Cn2  v096
 BYTE   N06  Gn2
 BYTE   N06  Cn3
 BYTE   W06
 BYTE   Cn2
 BYTE   N06  Gn2
 BYTE   N06  Cn3
 BYTE   W06
 BYTE   Cn2
 BYTE   N06  Gn2
 BYTE   N06  Cn3
 BYTE   W06
 BYTE   Cn2
 BYTE   N06  Gn2
 BYTE   N06  Cn3
 BYTE   W06
 BYTE   As1
 BYTE   N06  Fn2
 BYTE   N06  As2
 BYTE   W06
 BYTE   As1
 BYTE   N06  Fn2
 BYTE   N06  As2
 BYTE   W06
 BYTE   As1
 BYTE   N06  Fn2
 BYTE   N06  As2
 BYTE   W06
 BYTE   As1
 BYTE   N06  Fn2
 BYTE   N06  As2
 BYTE   W06
 BYTE   As1
 BYTE   N06  Fn2
 BYTE   N06  As2
 BYTE   W06
 BYTE   As1
 BYTE   N06  Fn2
 BYTE   N06  As2
 BYTE   W06
 BYTE   As1
 BYTE   N06  Fn2
 BYTE   N06  As2
 BYTE   W06
 BYTE   As1
 BYTE   N06  Fn2
 BYTE   N06  As2
 BYTE   W06
 BYTE   As1
 BYTE   N06  Fn2
 BYTE   N06  As2
 BYTE   W06
 BYTE   As1
 BYTE   N06  Fn2
 BYTE   N06  As2
 BYTE   W06
 BYTE   As1
 BYTE   N06  Fn2
 BYTE   N06  As2
 BYTE   W06
 BYTE   As1
 BYTE   N06  Fn2
 BYTE   N06  As2
 BYTE   W06
 BYTE   PEND 
//  #02 //025   ----------------------------------------
Label_01005E90:
 BYTE   N06  As1  v096
 BYTE   N06  Fn2
 BYTE   N06  As2
 BYTE   W06
 BYTE   As1
 BYTE   N06  Fn2
 BYTE   N06  As2
 BYTE   W06
 BYTE   As1
 BYTE   N06  Fn2
 BYTE   N06  As2
 BYTE   W06
 BYTE   As1
 BYTE   N06  Fn2
 BYTE   N06  As2
 BYTE   W06
 BYTE   Gn1
 BYTE   N06  Dn2
 BYTE   N06  Gn2
 BYTE   W06
 BYTE   Gn1
 BYTE   N06  Dn2
 BYTE   N06  Gn2
 BYTE   W06
 BYTE   Gn1
 BYTE   N06  Dn2
 BYTE   N06  Gn2
 BYTE   W06
 BYTE   Gn1
 BYTE   N06  Dn2
 BYTE   N06  Gn2
 BYTE   W06
 BYTE   Gn1
 BYTE   N06  Dn2
 BYTE   N06  Gn2
 BYTE   W06
 BYTE   Gn1
 BYTE   N06  Dn2
 BYTE   N06  Gn2
 BYTE   W06
 BYTE   Gn1
 BYTE   N06  Dn2
 BYTE   N06  Gn2
 BYTE   W06
 BYTE   Gn1
 BYTE   N06  Dn2
 BYTE   N06  Gn2
 BYTE   W06
 BYTE   Gn1
 BYTE   N06  Dn2
 BYTE   N06  Gn2
 BYTE   W06
 BYTE   Gn1
 BYTE   N06  Dn2
 BYTE   N06  Gn2
 BYTE   W06
 BYTE   Gn1
 BYTE   N06  Dn2
 BYTE   N06  Gn2
 BYTE   W06
 BYTE   Gn1
 BYTE   N06  Dn2
 BYTE   N06  Gn2
 BYTE   W06
 BYTE   PEND 
//  #02 //026   ----------------------------------------
Label_01005EF3:
 BYTE   N06  Gn1  v096
 BYTE   N06  Dn2
 BYTE   N06  Gn2
 BYTE   W06
 BYTE   Gn1
 BYTE   N06  Dn2
 BYTE   N06  Gn2
 BYTE   W06
 BYTE   Gn1
 BYTE   N06  Dn2
 BYTE   N06  Gn2
 BYTE   W06
 BYTE   Gn1
 BYTE   N06  Dn2
 BYTE   N06  Gn2
 BYTE   W06
 BYTE   Dn2
 BYTE   N06  An2
 BYTE   N06  Dn3
 BYTE   W06
 BYTE   Dn2
 BYTE   N06  An2
 BYTE   N06  Dn3
 BYTE   W06
 BYTE   Dn2
 BYTE   N06  An2
 BYTE   N06  Dn3
 BYTE   W06
 BYTE   Dn2
 BYTE   N06  An2
 BYTE   N06  Dn3
 BYTE   W06
 BYTE   Dn2
 BYTE   N06  An2
 BYTE   N06  Dn3
 BYTE   W06
 BYTE   Dn2
 BYTE   N06  An2
 BYTE   N06  Dn3
 BYTE   W06
 BYTE   Dn2
 BYTE   N06  An2
 BYTE   N06  Dn3
 BYTE   W06
 BYTE   Dn2
 BYTE   N06  An2
 BYTE   N06  Dn3
 BYTE   W06
 BYTE   Dn2
 BYTE   N06  An2
 BYTE   N06  Dn3
 BYTE   W06
 BYTE   Dn2
 BYTE   N06  An2
 BYTE   N06  Dn3
 BYTE   W06
 BYTE   Dn2
 BYTE   N06  An2
 BYTE   N06  Dn3
 BYTE   W06
 BYTE   Dn2
 BYTE   N06  An2
 BYTE   N06  Dn3
 BYTE   W06
 BYTE   PEND 
//  #02 //027   ----------------------------------------
 BYTE   PATT
  POIN2 Label_01005DCA
//  #02 //028   ----------------------------------------
 BYTE   PATT
  POIN2 Label_01005E2D
//  #02 //029   ----------------------------------------
 BYTE   PATT
  POIN2 Label_01005E90
//  #02 //030   ----------------------------------------
 BYTE   N06  Gn1  v096
 BYTE   N06  Dn2
 BYTE   N06  Gn2
 BYTE   W06
 BYTE   Gn1
 BYTE   N06  Dn2
 BYTE   N06  Gn2
 BYTE   W06
 BYTE   Gn1
 BYTE   N06  Dn2
 BYTE   N06  Gn2
 BYTE   W06
 BYTE   Gn1
 BYTE   N06  Dn2
 BYTE   N06  Gn2
 BYTE   W06
 BYTE   Fn1
 BYTE   N06  Cn2
 BYTE   N06  Fn2
 BYTE   W06
 BYTE   Fn1
 BYTE   N06  Cn2
 BYTE   N06  Fn2
 BYTE   W06
 BYTE   Fn1
 BYTE   N06  Cn2
 BYTE   N06  Fn2
 BYTE   W06
 BYTE   Fn1
 BYTE   N06  Cn2
 BYTE   N06  Fn2
 BYTE   W06
 BYTE   Fn1
 BYTE   N06  Cn2
 BYTE   N06  Fn2
 BYTE   W06
 BYTE   Fn1
 BYTE   N06  Cn2
 BYTE   N06  Fn2
 BYTE   W06
 BYTE   Fn1
 BYTE   N06  Cn2
 BYTE   N06  Fn2
 BYTE   W06
 BYTE   Fn1
 BYTE   N06  Cn2
 BYTE   N06  Fn2
 BYTE   W06
 BYTE   Fn1
 BYTE   N06  Cn2
 BYTE   N06  Fn2
 BYTE   W06
 BYTE   Fn1
 BYTE   N06  Cn2
 BYTE   N06  Fn2
 BYTE   W06
 BYTE   Fn1
 BYTE   N06  Cn2
 BYTE   N06  Fn2
 BYTE   W06
 BYTE   Fn1
 BYTE   N06  Cn2
 BYTE   N06  Fn2
 BYTE   W06
//  #02 //031   ----------------------------------------
 BYTE   Fn1
 BYTE   N06  Cn2
 BYTE   N06  Fn2
 BYTE   W06
 BYTE   Fn1
 BYTE   N06  Cn2
 BYTE   N06  Fn2
 BYTE   W06
 BYTE   Fn1
 BYTE   N06  Cn2
 BYTE   N06  Fn2
 BYTE   W06
 BYTE   Fn1
 BYTE   N06  Cn2
 BYTE   N06  Fn2
 BYTE   W06
 BYTE   Gn1
 BYTE   N06  Dn2
 BYTE   N06  Gn2
 BYTE   W06
 BYTE   Gn1
 BYTE   N06  Dn2
 BYTE   N06  Gn2
 BYTE   W06
 BYTE   Gn1
 BYTE   N06  Dn2
 BYTE   N06  Gn2
 BYTE   W06
 BYTE   Gn1
 BYTE   N06  Dn2
 BYTE   N06  Gn2
 BYTE   W06
 BYTE   Gn1
 BYTE   N06  Dn2
 BYTE   N06  Gn2
 BYTE   W06
 BYTE   Gn1
 BYTE   N06  Dn2
 BYTE   N06  Gn2
 BYTE   W06
 BYTE   Gn1
 BYTE   N06  Dn2
 BYTE   N06  Gn2
 BYTE   W06
 BYTE   Gn1
 BYTE   N06  Dn2
 BYTE   N06  Gn2
 BYTE   W06
 BYTE   Gn1
 BYTE   N06  Dn2
 BYTE   N06  Gn2
 BYTE   W06
 BYTE   Gn1
 BYTE   N06  Dn2
 BYTE   N06  Gn2
 BYTE   W06
 BYTE   Gn1
 BYTE   N06  Dn2
 BYTE   N06  Gn2
 BYTE   W06
 BYTE   Gn1
 BYTE   N06  Dn2
 BYTE   N06  Gn2
 BYTE   W06
//  #02 //032   ----------------------------------------
 BYTE   PATT
  POIN2 Label_01005EF3
//  #02 //033   ----------------------------------------
 BYTE   N06  Dn2  v096
 BYTE   N06  An2
 BYTE   N06  Dn3
 BYTE   W06
 BYTE   Dn2
 BYTE   N06  An2
 BYTE   N06  Dn3
 BYTE   W06
 BYTE   Dn2
 BYTE   N06  An2
 BYTE   N06  Dn3
 BYTE   W06
 BYTE   Dn2
 BYTE   N06  An2
 BYTE   N06  Dn3
 BYTE   W06
 BYTE   N18  As1
 BYTE   N18  Fn2
 BYTE   N18  As2
 BYTE   W18
 BYTE   As1
 BYTE   N18  Fn2
 BYTE   N18  As2
 BYTE   W18
 BYTE   As1
 BYTE   N18  Fn2
 BYTE   N18  As2
 BYTE   W18
 BYTE   N42  As1
 BYTE   N42  Fn2
 BYTE   N42  As2
 BYTE   W18
//  #02 //034   ----------------------------------------
Label_01006060:
 BYTE   W24
 BYTE   N09  An1  v096
 BYTE   N09  En2
 BYTE   N09  An2
 BYTE   W18
 BYTE   An1
 BYTE   N09  En2
 BYTE   N09  An2
 BYTE   W18
 BYTE   An1
 BYTE   N09  En2
 BYTE   N09  An2
 BYTE   W18
 BYTE   An1
 BYTE   N09  En2
 BYTE   N09  An2
 BYTE   W18
 BYTE   PEND 
//  #02 //035   ----------------------------------------
 BYTE   PATT
  POIN2 Label_01006060
//  #02 //036   ----------------------------------------
 BYTE   PATT
  POIN2 Label_01006060
//  #02 //037   ----------------------------------------
Label_01006086:
 BYTE   N06  Dn3  v096
 BYTE   W06
 BYTE   Cn3
 BYTE   W06
 BYTE   As2
 BYTE   W06
 BYTE   An2
 BYTE   W06
 BYTE   N09  An1
 BYTE   N09  En2
 BYTE   N09  An2
 BYTE   W18
 BYTE   An1
 BYTE   N09  En2
 BYTE   N09  An2
 BYTE   W18
 BYTE   An1
 BYTE   N09  En2
 BYTE   N09  An2
 BYTE   W18
 BYTE   An1
 BYTE   N09  En2
 BYTE   N09  An2
 BYTE   W18
 BYTE   PEND 
//  #02 //038   ----------------------------------------
Label_010060AA:
 BYTE   N06  An2  v096
 BYTE   W06
 BYTE   As2
 BYTE   W06
 BYTE   Cn3
 BYTE   W06
 BYTE   Dn3
 BYTE   W06
 BYTE   N09  An1
 BYTE   N09  En2
 BYTE   N09  An2
 BYTE   W18
 BYTE   An1
 BYTE   N09  En2
 BYTE   N09  An2
 BYTE   W18
 BYTE   An1
 BYTE   N09  En2
 BYTE   N09  An2
 BYTE   W18
 BYTE   An1
 BYTE   N09  En2
 BYTE   N09  An2
 BYTE   W18
 BYTE   PEND 
//  #02 //039   ----------------------------------------
 BYTE   N06  Dn3
 BYTE   W06
 BYTE   Cn3
 BYTE   W06
 BYTE   As2
 BYTE   W06
 BYTE   An2
 BYTE   W06
 BYTE   N18  Cn2
 BYTE   N18  Gn2
 BYTE   N18  Cn3
 BYTE   W18
 BYTE   Cn2
 BYTE   N18  Gn2
 BYTE   N18  Cn3
 BYTE   W18
 BYTE   N12  Cn2
 BYTE   N12  Gn2
 BYTE   N12  Cn3
 BYTE   W12
 BYTE   N24  As1
 BYTE   N24  Fn2
 BYTE   N24  As2
 BYTE   W24
//  #02 //040   ----------------------------------------
 BYTE   As1
 BYTE   N24  Fn2
 BYTE   N24  As2
 BYTE   W24
 BYTE   N09  An1
 BYTE   N09  En2
 BYTE   N09  An2
 BYTE   W18
 BYTE   An1
 BYTE   N09  En2
 BYTE   N09  An2
 BYTE   W18
 BYTE   An1
 BYTE   N09  En2
 BYTE   N09  An2
 BYTE   W18
 BYTE   An1
 BYTE   N09  En2
 BYTE   N09  An2
 BYTE   W18
//  #02 //041   ----------------------------------------
 BYTE   PATT
  POIN2 Label_01006086
//  #02 //042   ----------------------------------------
 BYTE   PATT
  POIN2 Label_010060AA
//  #02 //043   ----------------------------------------
 BYTE   N06  Dn3  v096
 BYTE   W06
 BYTE   Cn3
 BYTE   W06
 BYTE   As2
 BYTE   W06
 BYTE   An2
 BYTE   W06
 BYTE   N18  Cn2
 BYTE   N18  Gn2
 BYTE   N18  Cn3
 BYTE   W18
 BYTE   Cn2
 BYTE   N18  Gn2
 BYTE   N18  Cn3
 BYTE   W18
 BYTE   N12  Cn2
 BYTE   N12  Gn2
 BYTE   N12  Cn3
 BYTE   W12
 BYTE   Dn2
 BYTE   W12
 BYTE   Cn2
 BYTE   W12
//  #02 //044   ----------------------------------------
 BYTE   As1
 BYTE   W12
 BYTE   An1
 BYTE   W12
 BYTE   N06  Gn1
 BYTE   N06  Dn2
 BYTE   N06  Gn2
 BYTE   W06
 BYTE   Gn1
 BYTE   N06  Dn2
 BYTE   N06  Gn2
 BYTE   W06
 BYTE   Gn1
 BYTE   N06  Dn2
 BYTE   N06  Gn2
 BYTE   W06
 BYTE   Gn1
 BYTE   N06  Dn2
 BYTE   N06  Gn2
 BYTE   W06
 BYTE   N12  Gn1
 BYTE   N12  Dn2
 BYTE   N12  Gn2
 BYTE   W12
 BYTE   N06  Gn1
 BYTE   N06  Dn2
 BYTE   N06  Gn2
 BYTE   W06
 BYTE   Gn1
 BYTE   N06  Dn2
 BYTE   N06  Gn2
 BYTE   W06
 BYTE   Gn1
 BYTE   N06  Dn2
 BYTE   N06  Gn2
 BYTE   W06
 BYTE   Gn1
 BYTE   N06  Dn2
 BYTE   N06  Gn2
 BYTE   W06
 BYTE   N12  Gn1
 BYTE   N12  Dn2
 BYTE   N12  Gn2
 BYTE   W12
//  #02 //045   ----------------------------------------
Label_01006181:
 BYTE   N06  Gn1  v096
 BYTE   N06  Dn2
 BYTE   N06  Gn2
 BYTE   W06
 BYTE   Gn1
 BYTE   N06  Dn2
 BYTE   N06  Gn2
 BYTE   W06
 BYTE   N12  Gn1
 BYTE   N12  Dn2
 BYTE   N12  Gn2
 BYTE   W12
 BYTE   N06  Fn1
 BYTE   N06  Cn2
 BYTE   N06  Fn2
 BYTE   W06
 BYTE   Fn1
 BYTE   N06  Cn2
 BYTE   N06  Fn2
 BYTE   W06
 BYTE   Fn1
 BYTE   N06  Cn2
 BYTE   N06  Fn2
 BYTE   W06
 BYTE   Fn1
 BYTE   N06  Cn2
 BYTE   N06  Fn2
 BYTE   W06
 BYTE   N12  Fn1
 BYTE   N12  Cn2
 BYTE   N12  Fn2
 BYTE   W12
 BYTE   N06  Fn1
 BYTE   N06  Cn2
 BYTE   N06  Fn2
 BYTE   W06
 BYTE   Fn1
 BYTE   N06  Cn2
 BYTE   N06  Fn2
 BYTE   W06
 BYTE   Fn1
 BYTE   N06  Cn2
 BYTE   N06  Fn2
 BYTE   W06
 BYTE   Fn1
 BYTE   N06  Cn2
 BYTE   N06  Fn2
 BYTE   W06
 BYTE   N12  Fn1
 BYTE   N12  Cn2
 BYTE   N12  Fn2
 BYTE   W12
 BYTE   PEND 
//  #02 //046   ----------------------------------------
Label_010061D7:
 BYTE   N06  Fn1  v096
 BYTE   N06  Cn2
 BYTE   N06  Fn2
 BYTE   W06
 BYTE   Fn1
 BYTE   N06  Cn2
 BYTE   N06  Fn2
 BYTE   W06
 BYTE   N12  Fn1
 BYTE   N12  Cn2
 BYTE   N12  Fn2
 BYTE   W12
 BYTE   N06  Ds1
 BYTE   N06  As1
 BYTE   N06  Ds2
 BYTE   W06
 BYTE   Ds1
 BYTE   N06  As1
 BYTE   N06  Ds2
 BYTE   W06
 BYTE   Ds1
 BYTE   N06  As1
 BYTE   N06  Ds2
 BYTE   W06
 BYTE   Ds1
 BYTE   N06  As1
 BYTE   N06  Ds2
 BYTE   W06
 BYTE   N12  Ds1
 BYTE   N12  As1
 BYTE   N12  Ds2
 BYTE   W12
 BYTE   N06  Ds1
 BYTE   N06  As1
 BYTE   N06  Ds2
 BYTE   W06
 BYTE   Ds1
 BYTE   N06  As1
 BYTE   N06  Ds2
 BYTE   W06
 BYTE   Ds1
 BYTE   N06  As1
 BYTE   N06  Ds2
 BYTE   W06
 BYTE   Ds1
 BYTE   N06  As1
 BYTE   N06  Ds2
 BYTE   W06
 BYTE   N12  Ds1
 BYTE   N12  As1
 BYTE   N12  Ds2
 BYTE   W12
 BYTE   PEND 
//  #02 //047   ----------------------------------------
Label_0100622D:
 BYTE   N06  Ds1  v096
 BYTE   N06  As1
 BYTE   N06  Ds2
 BYTE   W06
 BYTE   Ds1
 BYTE   N06  As1
 BYTE   N06  Ds2
 BYTE   W06
 BYTE   N12  Ds1
 BYTE   N12  As1
 BYTE   N12  Ds2
 BYTE   W12
 BYTE   N06  Ds1
 BYTE   N06  As1
 BYTE   N06  Ds2
 BYTE   W06
 BYTE   Ds1
 BYTE   N06  As1
 BYTE   N06  Ds2
 BYTE   W06
 BYTE   Ds1
 BYTE   N06  As1
 BYTE   N06  Ds2
 BYTE   W06
 BYTE   Ds1
 BYTE   N06  As1
 BYTE   N06  Ds2
 BYTE   W06
 BYTE   N12  Ds1
 BYTE   N12  As1
 BYTE   N12  Ds2
 BYTE   W12
 BYTE   N06  Ds1
 BYTE   N06  As1
 BYTE   N06  Ds2
 BYTE   W06
 BYTE   Ds1
 BYTE   N06  As1
 BYTE   N06  Ds2
 BYTE   W06
 BYTE   Ds1
 BYTE   N06  As1
 BYTE   N06  Ds2
 BYTE   W06
 BYTE   Ds1
 BYTE   N06  As1
 BYTE   N06  Ds2
 BYTE   W06
 BYTE   N12  Ds1
 BYTE   N12  As1
 BYTE   N12  Ds2
 BYTE   W12
 BYTE   PEND 
//  #02 //048   ----------------------------------------
Label_01006283:
 BYTE   N06  Fn1  v096
 BYTE   N06  Cn2
 BYTE   N06  Fn2
 BYTE   W06
 BYTE   Fn1
 BYTE   N06  Cn2
 BYTE   N06  Fn2
 BYTE   W06
 BYTE   N12  Fn1
 BYTE   N12  Cn2
 BYTE   N12  Fn2
 BYTE   W12
 BYTE   N06  Gn1
 BYTE   N06  Dn2
 BYTE   N06  Gn2
 BYTE   W06
 BYTE   Gn1
 BYTE   N06  Dn2
 BYTE   N06  Gn2
 BYTE   W06
 BYTE   Gn1
 BYTE   N06  Dn2
 BYTE   N06  Gn2
 BYTE   W06
 BYTE   Gn1
 BYTE   N06  Dn2
 BYTE   N06  Gn2
 BYTE   W06
 BYTE   N12  Gn1
 BYTE   N12  Dn2
 BYTE   N12  Gn2
 BYTE   W12
 BYTE   N06  Gn1
 BYTE   N06  Dn2
 BYTE   N06  Gn2
 BYTE   W06
 BYTE   Gn1
 BYTE   N06  Dn2
 BYTE   N06  Gn2
 BYTE   W06
 BYTE   Gn1
 BYTE   N06  Dn2
 BYTE   N06  Gn2
 BYTE   W06
 BYTE   Gn1
 BYTE   N06  Dn2
 BYTE   N06  Gn2
 BYTE   W06
 BYTE   N12  Gn1
 BYTE   N12  Dn2
 BYTE   N12  Gn2
 BYTE   W12
 BYTE   PEND 
//  #02 //049   ----------------------------------------
 BYTE   PATT
  POIN2 Label_01006181
//  #02 //050   ----------------------------------------
 BYTE   PATT
  POIN2 Label_010061D7
//  #02 //051   ----------------------------------------
 BYTE   PATT
  POIN2 Label_0100622D
//  #02 //052   ----------------------------------------
 BYTE   N06  Fn1  v096
 BYTE   N06  Cn2
 BYTE   N06  Fn2
 BYTE   W06
 BYTE   Fn1
 BYTE   N06  Cn2
 BYTE   N06  Fn2
 BYTE   W06
 BYTE   N12  Fn1
 BYTE   N12  Cn2
 BYTE   N12  Fn2
 BYTE   W12
 BYTE   N06  Cn1
 BYTE   N06  Gn1
 BYTE   N06  Cn2
 BYTE   W06
 BYTE   Cn1
 BYTE   N06  Gn1
 BYTE   N06  Cn2
 BYTE   W06
 BYTE   Cn1
 BYTE   N06  Gn1
 BYTE   N06  Cn2
 BYTE   W06
 BYTE   Cn1
 BYTE   N06  Gn1
 BYTE   N06  Cn2
 BYTE   W06
 BYTE   N12  Cn1
 BYTE   N12  Gn1
 BYTE   N12  Cn2
 BYTE   W12
 BYTE   N06  Cn1
 BYTE   N06  Gn1
 BYTE   N06  Cn2
 BYTE   W06
 BYTE   Cn1
 BYTE   N06  Gn1
 BYTE   N06  Cn2
 BYTE   W06
 BYTE   Cn1
 BYTE   N06  Gn1
 BYTE   N06  Cn2
 BYTE   W06
 BYTE   Cn1
 BYTE   N06  Gn1
 BYTE   N06  Cn2
 BYTE   W06
 BYTE   N12  Cn1
 BYTE   N12  Gn1
 BYTE   N12  Cn2
 BYTE   W12
//  #02 //053   ----------------------------------------
 BYTE   N06  Cn1
 BYTE   N06  Gn1
 BYTE   N06  Cn2
 BYTE   W06
 BYTE   Cn1
 BYTE   N06  Gn1
 BYTE   N06  Cn2
 BYTE   W06
 BYTE   N12  Cn1
 BYTE   N12  Gn1
 BYTE   N12  Cn2
 BYTE   W12
 BYTE   N06  Dn1
 BYTE   N06  An1
 BYTE   N06  Dn2
 BYTE   W06
 BYTE   Dn1
 BYTE   N06  An1
 BYTE   N06  Dn2
 BYTE   W06
 BYTE   Dn1
 BYTE   N06  An1
 BYTE   N06  Dn2
 BYTE   W06
 BYTE   Dn1
 BYTE   N06  An1
 BYTE   N06  Dn2
 BYTE   W06
 BYTE   N12  Dn1
 BYTE   N12  An1
 BYTE   N12  Dn2
 BYTE   W12
 BYTE   N06  Dn1
 BYTE   N06  An1
 BYTE   N06  Dn2
 BYTE   W06
 BYTE   Dn1
 BYTE   N06  An1
 BYTE   N06  Dn2
 BYTE   W06
 BYTE   Dn1
 BYTE   N06  An1
 BYTE   N06  Dn2
 BYTE   W06
 BYTE   Dn1
 BYTE   N06  An1
 BYTE   N06  Dn2
 BYTE   W06
 BYTE   N12  Dn1
 BYTE   N12  An1
 BYTE   N12  Dn2
 BYTE   W12
//  #02 //054   ----------------------------------------
 BYTE   N06  Dn1
 BYTE   N06  An1
 BYTE   N06  Dn2
 BYTE   W06
 BYTE   Dn1
 BYTE   N06  An1
 BYTE   N06  Dn2
 BYTE   W06
 BYTE   N12  Dn1
 BYTE   N12  An1
 BYTE   N12  Dn2
 BYTE   W12
 BYTE   N06  Ds1
 BYTE   N06  As1
 BYTE   N06  Ds2
 BYTE   W06
 BYTE   Ds1
 BYTE   N06  As1
 BYTE   N06  Ds2
 BYTE   W06
 BYTE   Ds1
 BYTE   N06  As1
 BYTE   N06  Ds2
 BYTE   W06
 BYTE   Ds1
 BYTE   N06  As1
 BYTE   N06  Ds2
 BYTE   W06
 BYTE   N12  Ds1
 BYTE   N12  As1
 BYTE   N12  Ds2
 BYTE   W12
 BYTE   N06  Ds1
 BYTE   N06  As1
 BYTE   N06  Ds2
 BYTE   W06
 BYTE   Ds1
 BYTE   N06  As1
 BYTE   N06  Ds2
 BYTE   W06
 BYTE   Ds1
 BYTE   N06  As1
 BYTE   N06  Ds2
 BYTE   W06
 BYTE   Ds1
 BYTE   N06  As1
 BYTE   N06  Ds2
 BYTE   W06
 BYTE   N12  Ds1
 BYTE   N12  As1
 BYTE   N12  Ds2
 BYTE   W12
//  #02 //055   ----------------------------------------
Label_010063E5:
 BYTE   N06  Ds1  v096
 BYTE   N06  As1
 BYTE   N06  Ds2
 BYTE   W06
 BYTE   Ds1
 BYTE   N06  As1
 BYTE   N06  Ds2
 BYTE   W06
 BYTE   N12  Ds1
 BYTE   N12  As1
 BYTE   N12  Ds2
 BYTE   W12
 BYTE   N06  Fn1
 BYTE   N06  Cn2
 BYTE   N06  Fn2
 BYTE   W06
 BYTE   Fn1
 BYTE   N06  Cn2
 BYTE   N06  Fn2
 BYTE   W06
 BYTE   Fn1
 BYTE   N06  Cn2
 BYTE   N06  Fn2
 BYTE   W06
 BYTE   Fn1
 BYTE   N06  Cn2
 BYTE   N06  Fn2
 BYTE   W06
 BYTE   N12  Fn1
 BYTE   N12  Cn2
 BYTE   N12  Fn2
 BYTE   W12
 BYTE   N06  Fn1
 BYTE   N06  Cn2
 BYTE   N06  Fn2
 BYTE   W06
 BYTE   Fn1
 BYTE   N06  Cn2
 BYTE   N06  Fn2
 BYTE   W06
 BYTE   Fn1
 BYTE   N06  Cn2
 BYTE   N06  Fn2
 BYTE   W06
 BYTE   Fn1
 BYTE   N06  Cn2
 BYTE   N06  Fn2
 BYTE   W06
 BYTE   N12  Fn1
 BYTE   N12  Cn2
 BYTE   N12  Fn2
 BYTE   W12
 BYTE   PEND 
//  #02 //056   ----------------------------------------
 BYTE   PATT
  POIN2 Label_01006283
//  #02 //057   ----------------------------------------
Label_01006440:
 BYTE   N06  Gn1  v096
 BYTE   N06  Dn2
 BYTE   N06  Gn2
 BYTE   W06
 BYTE   Gn1
 BYTE   N06  Dn2
 BYTE   N06  Gn2
 BYTE   W06
 BYTE   N12  Gn1
 BYTE   N12  Dn2
 BYTE   N12  Gn2
 BYTE   W12
 BYTE   N06  Ds1
 BYTE   N06  As1
 BYTE   N06  Ds2
 BYTE   W06
 BYTE   Ds1
 BYTE   N06  As1
 BYTE   N06  Ds2
 BYTE   W06
 BYTE   Ds1
 BYTE   N06  As1
 BYTE   N06  Ds2
 BYTE   W06
 BYTE   Ds1
 BYTE   N06  As1
 BYTE   N06  Ds2
 BYTE   W06
 BYTE   N12  Ds1
 BYTE   N12  As1
 BYTE   N12  Ds2
 BYTE   W12
 BYTE   N06  Ds1
 BYTE   N06  As1
 BYTE   N06  Ds2
 BYTE   W06
 BYTE   Ds1
 BYTE   N06  As1
 BYTE   N06  Ds2
 BYTE   W06
 BYTE   Ds1
 BYTE   N06  As1
 BYTE   N06  Ds2
 BYTE   W06
 BYTE   Ds1
 BYTE   N06  As1
 BYTE   N06  Ds2
 BYTE   W06
 BYTE   N12  Ds1
 BYTE   N12  As1
 BYTE   N12  Ds2
 BYTE   W12
 BYTE   PEND 
//  #02 //058   ----------------------------------------
 BYTE   PATT
  POIN2 Label_010063E5
//  #02 //059   ----------------------------------------
Label_0100649B:
 BYTE   N06  Fn1  v096
 BYTE   N06  Cn2
 BYTE   N06  Fn2
 BYTE   W06
 BYTE   Fn1
 BYTE   N06  Cn2
 BYTE   N06  Fn2
 BYTE   W06
 BYTE   N12  Fn1
 BYTE   N12  Cn2
 BYTE   N12  Fn2
 BYTE   W12
 BYTE   N06  Fn1
 BYTE   N06  Cn2
 BYTE   N06  Fn2
 BYTE   W06
 BYTE   Fn1
 BYTE   N06  Cn2
 BYTE   N06  Fn2
 BYTE   W06
 BYTE   Fn1
 BYTE   N06  Cn2
 BYTE   N06  Fn2
 BYTE   W06
 BYTE   Fn1
 BYTE   N06  Cn2
 BYTE   N06  Fn2
 BYTE   W06
 BYTE   N12  Fn1
 BYTE   N12  Cn2
 BYTE   N12  Fn2
 BYTE   W12
 BYTE   N06  Fn1
 BYTE   N06  Cn2
 BYTE   N06  Fn2
 BYTE   W06
 BYTE   Fn1
 BYTE   N06  Cn2
 BYTE   N06  Fn2
 BYTE   W06
 BYTE   Fn1
 BYTE   N06  Cn2
 BYTE   N06  Fn2
 BYTE   W06
 BYTE   Fn1
 BYTE   N06  Cn2
 BYTE   N06  Fn2
 BYTE   W06
 BYTE   N12  Fn1
 BYTE   N12  Cn2
 BYTE   N12  Fn2
 BYTE   W12
 BYTE   PEND 
//  #02 //060   ----------------------------------------
 BYTE   PATT
  POIN2 Label_01006283
//  #02 //061   ----------------------------------------
 BYTE   PATT
  POIN2 Label_01006440
//  #02 //062   ----------------------------------------
 BYTE   PATT
  POIN2 Label_010063E5
//  #02 //063   ----------------------------------------
 BYTE   PATT
  POIN2 Label_0100649B
//  #02 //064   ----------------------------------------
 BYTE   N06  Fn1  v096
 BYTE   N06  Cn2
 BYTE   N06  Fn2
 BYTE   W06
 BYTE   Fn1
 BYTE   N06  Cn2
 BYTE   N06  Fn2
 BYTE   W06
 BYTE   N12  Fn1
 BYTE   N12  Cn2
 BYTE   N12  Fn2
 BYTE   W12
 BYTE   N06  En1
 BYTE   W06
 BYTE   N06
 BYTE   W06
 BYTE   N06
 BYTE   W06
 BYTE   N06
 BYTE   W06
 BYTE   N12
 BYTE   N12  Bn1
 BYTE   N12  En2
 BYTE   W12
 BYTE   En1
 BYTE   W12
 BYTE   N03
 BYTE   W03
 BYTE   N03
 BYTE   W03
 BYTE   N03
 BYTE   W03
 BYTE   N03
 BYTE   W03
 BYTE   N12
 BYTE   N12  Bn1
 BYTE   N12  En2
 BYTE   W12
//  #02 //065   ----------------------------------------
 BYTE   N06  En1
 BYTE   W06
 BYTE   N06
 BYTE   W06
 BYTE   N12
 BYTE   N12  Bn1
 BYTE   N12  En2
 BYTE   W12
 BYTE   N06  En1
 BYTE   W06
 BYTE   N06
 BYTE   W06
 BYTE   N06
 BYTE   W06
 BYTE   N06
 BYTE   W06
 BYTE   N12
 BYTE   N12  Bn1
 BYTE   N12  En2
 BYTE   W12
 BYTE   En1
 BYTE   W12
 BYTE   N03
 BYTE   W03
 BYTE   N03
 BYTE   W03
 BYTE   N03
 BYTE   W03
 BYTE   N03
 BYTE   W03
 BYTE   N12
 BYTE   N12  Bn1
 BYTE   N12  En2
 BYTE   W12
//  #02 //066   ----------------------------------------
 BYTE   N06  En1
 BYTE   W06
 BYTE   N06
 BYTE   W06
 BYTE   N12
 BYTE   N12  Bn1
 BYTE   N12  En2
 BYTE   W12
 BYTE   Fs1
 BYTE   N12  Bn1
 BYTE   W12
 BYTE   N06
 BYTE   W06
 BYTE   N12  Fs1
 BYTE   N12  Bn1
 BYTE   W12
 BYTE   N06
 BYTE   W06
 BYTE   N12  Fs1
 BYTE   N12  Bn1
 BYTE   W12
 BYTE   N06
 BYTE   W06
 BYTE   N18  Fs1
 BYTE   N18  Bn1
 BYTE   W18
//  #02 //067   ----------------------------------------
 BYTE   N06
 BYTE   W06
 BYTE   N06
 BYTE   W06
 BYTE   N06
 BYTE   W06
 BYTE   N06
 BYTE   W06
 BYTE   N18
 BYTE   W18
 BYTE   Cs2
 BYTE   W18
 BYTE   Dn2
 BYTE   W18
 BYTE   En2
 BYTE   W18
//  #02 //068   ----------------------------------------
 BYTE   N12  Dn2
 BYTE   W12
 BYTE   Cs2
 BYTE   W12
 BYTE   Bn1
 BYTE   N12  Fs2
 BYTE   W18
 BYTE   Bn1
 BYTE   N12  Fs2
 BYTE   W18
 BYTE   Bn1
 BYTE   N12  Fs2
 BYTE   W18
 BYTE   N18  Bn1
 BYTE   N18  Fs2
 BYTE   W18
//  #02 //069   ----------------------------------------
 BYTE   N06  Bn1
 BYTE   W06
 BYTE   N06
 BYTE   W06
 BYTE   N06
 BYTE   W06
 BYTE   N06
 BYTE   W06
 BYTE   N12
 BYTE   N12  Fs2
 BYTE   W18
 BYTE   Bn1
 BYTE   N12  Fs2
 BYTE   W18
 BYTE   Bn1
 BYTE   N12  Fs2
 BYTE   W12
 BYTE   GoTo
  POIN2 Label_01005CB7
//  #02 //070   ----------------------------------------
 BYTE   W06
 BYTE   TIE  Bn1  v096
 BYTE   TIE  Fs2
 BYTE   W18
 BYTE   W96
//  #02 //071   ----------------------------------------
 BYTE   W24
 BYTE   EOT
 BYTE   Bn1  v054
 BYTE   W48
 BYTE   PAN   c_v-31
 BYTE   VOL   25*ItHasToBeThisWay_mvl/mxv
 BYTE   PAN   c_v-31
 BYTE   VOL   25*ItHasToBeThisWay_mvl/mxv
 BYTE   PAN   c_v-31
 BYTE   VOL   25*ItHasToBeThisWay_mvl/mxv
 BYTE   BEND   c_v+0
 BYTE   FINE

//**************** Track 3 (Midi-Chn.2) ****************//

ItHasToBeThisWay_003:
//  #03 //000   ----------------------------------------
 BYTE   KEYSH   ItHasToBeThisWay_key+0
 BYTE   VOICE   36
 BYTE   PAN   c_v+0
 BYTE   VOL   25*ItHasToBeThisWay_mvl/mxv
 BYTE   PAN   c_v+0
 BYTE   VOL   25*ItHasToBeThisWay_mvl/mxv
 BYTE   PAN   c_v+0
 BYTE   VOL   25*ItHasToBeThisWay_mvl/mxv
 BYTE   PAN   c_v+0
 BYTE   VOL   25*ItHasToBeThisWay_mvl/mxv
 BYTE   BEND   c_v+0
 BYTE   N12  Dn1  v096
 BYTE   W12
 BYTE   Cs1
 BYTE   W12
 BYTE   N72  Bn0
 BYTE   N72  Fs1
 BYTE   N72  Bn1
 BYTE   W72
//  #03 //001   ----------------------------------------
Label_01004FA7:
 BYTE   N12  Dn1  v096
 BYTE   W12
 BYTE   Cs1
 BYTE   W12
 BYTE   N72  An0
 BYTE   N72  En1
 BYTE   N72  An1
 BYTE   W72
 BYTE   PEND 
//  #03 //002   ----------------------------------------
Label_01004FB5:
 BYTE   N12  Dn1  v096
 BYTE   W12
 BYTE   Cs1
 BYTE   W12
 BYTE   N96  Gn0
 BYTE   N96  Dn1
 BYTE   N96  Gn1
 BYTE   W72
 BYTE   PEND 
//  #03 //003   ----------------------------------------
 BYTE   W24
 BYTE   N72  En0
 BYTE   N72  Bn0
 BYTE   N72  En1
 BYTE   W72
//  #03 //004   ----------------------------------------
 BYTE   N12  Dn1
 BYTE   W12
 BYTE   Cs1
 BYTE   W12
 BYTE   N72  Bn0
 BYTE   N72  Fs1
 BYTE   N72  Bn1
 BYTE   W72
//  #03 //005   ----------------------------------------
 BYTE   PATT
  POIN2 Label_01004FA7
//  #03 //006   ----------------------------------------
 BYTE   PATT
  POIN2 Label_01004FB5
//  #03 //007   ----------------------------------------
 BYTE   W24
 BYTE   N96  En0  v096
 BYTE   N96  Bn0
 BYTE   N96  En1
 BYTE   W72
//  #03 //008   ----------------------------------------
 BYTE   W24
 BYTE   N09  Fs0  v076
 BYTE   N09  Bn0
 BYTE   W12
 BYTE   Fs0
 BYTE   N09  Bn0
 BYTE   W12
 BYTE   Fs0
 BYTE   N09  Bn0
 BYTE   W12
 BYTE   Fs0
 BYTE   N09  Bn0
 BYTE   W12
 BYTE   Fs0
 BYTE   N09  Bn0
 BYTE   W12
 BYTE   Fs0
 BYTE   N09  Bn0
 BYTE   W12
//  #03 //009   ----------------------------------------
 BYTE   Fs0
 BYTE   N09  Bn0
 BYTE   W12
 BYTE   Fs0
 BYTE   N09  Bn0
 BYTE   W12
 BYTE   Fs0
 BYTE   N09  Bn0
 BYTE   W12
 BYTE   Fs0
 BYTE   N09  Bn0
 BYTE   W12
 BYTE   Fs0
 BYTE   N09  Bn0
 BYTE   W12
 BYTE   Fs0
 BYTE   N09  Bn0
 BYTE   W12
 BYTE   N12  Fs0  v096
 BYTE   N09  Bn0  v076
 BYTE   W12
 BYTE   N12  Fs0  v096
 BYTE   N09  Bn0  v076
 BYTE   W12
//  #03 //010   ----------------------------------------
 BYTE   N12  Fs0  v096
 BYTE   N09  Bn0  v076
 BYTE   W12
 BYTE   N12  Fs0  v096
 BYTE   N12  Bn0
 BYTE   W12
 BYTE   N06  Fs0
 BYTE   N06  Bn0
 BYTE   W06
 BYTE   N03
 BYTE   W03
 BYTE   N03
 BYTE   W03
 BYTE   N03
 BYTE   W03
 BYTE   N03
 BYTE   W03
 BYTE   N06  Fs0
 BYTE   N06  Bn0
 BYTE   W06
 BYTE   N03
 BYTE   W03
 BYTE   N03
 BYTE   W03
 BYTE   N03
 BYTE   W03
 BYTE   N03
 BYTE   W03
 BYTE   N06  Fs0
 BYTE   N06  Bn0
 BYTE   W06
 BYTE   N03
 BYTE   W03
 BYTE   N03
 BYTE   W03
 BYTE   N03
 BYTE   W03
 BYTE   N03
 BYTE   W03
 BYTE   N06  Fs0
 BYTE   N06  Bn0
 BYTE   W06
 BYTE   N03
 BYTE   W03
 BYTE   N03
 BYTE   W03
 BYTE   N03
 BYTE   W03
 BYTE   N03
 BYTE   W03
//  #03 //011   ----------------------------------------
Label_0100506C:
 BYTE   N12  Bn0  v096
 BYTE   W12
 BYTE   An0
 BYTE   W12
 BYTE   N06  Fs0
 BYTE   N06  Bn0
 BYTE   W06
 BYTE   N03
 BYTE   W03
 BYTE   N03
 BYTE   W03
 BYTE   N03
 BYTE   W03
 BYTE   N03
 BYTE   W03
 BYTE   N06  Fs0
 BYTE   N06  Bn0
 BYTE   W06
 BYTE   N03
 BYTE   W03
 BYTE   N03
 BYTE   W03
 BYTE   N03
 BYTE   W03
 BYTE   N03
 BYTE   W03
 BYTE   N06  Fs0
 BYTE   N06  Bn0
 BYTE   W06
 BYTE   N03
 BYTE   W03
 BYTE   N03
 BYTE   W03
 BYTE   N03
 BYTE   W03
 BYTE   N03
 BYTE   W03
 BYTE   N06  Fs0
 BYTE   N06  Bn0
 BYTE   W06
 BYTE   N03
 BYTE   W03
 BYTE   N03
 BYTE   W03
 BYTE   N03
 BYTE   W03
 BYTE   N03
 BYTE   W03
 BYTE   PEND 
//  #03 //012   ----------------------------------------
Label_010050A7:
 BYTE   N12  Dn1  v120
 BYTE   W12
 BYTE   Cs1
 BYTE   W12
 BYTE   N06  Fs0  v096
 BYTE   N06  Bn0
 BYTE   W06
 BYTE   N03
 BYTE   W03
 BYTE   N03
 BYTE   W03
 BYTE   N03
 BYTE   W03
 BYTE   N03
 BYTE   W03
 BYTE   N06  Fs0
 BYTE   N06  Bn0
 BYTE   W06
 BYTE   N03
 BYTE   W03
 BYTE   N03
 BYTE   W03
 BYTE   N03
 BYTE   W03
 BYTE   N03
 BYTE   W03
 BYTE   N06  Fs0
 BYTE   N06  Bn0
 BYTE   W06
 BYTE   N03
 BYTE   W03
 BYTE   N03
 BYTE   W03
 BYTE   N03
 BYTE   W03
 BYTE   N03
 BYTE   W03
 BYTE   N06  Fs0
 BYTE   N06  Bn0
 BYTE   W06
 BYTE   N03
 BYTE   W03
 BYTE   N03
 BYTE   W03
 BYTE   N03
 BYTE   W03
 BYTE   N03
 BYTE   W03
 BYTE   PEND 
//  #03 //013   ----------------------------------------
 BYTE   PATT
  POIN2 Label_0100506C
//  #03 //014   ----------------------------------------
 BYTE   PATT
  POIN2 Label_010050A7
//  #03 //015   ----------------------------------------
Label_010050ED:
 BYTE   N12  Bn0  v096
 BYTE   N12  Bn1  v120
 BYTE   W12
 BYTE   An0  v096
 BYTE   N12  An1  v120
 BYTE   W12
 BYTE   N06  Fs0  v096
 BYTE   N06  Bn0
 BYTE   W06
 BYTE   N03
 BYTE   W03
 BYTE   N03
 BYTE   W03
 BYTE   N03
 BYTE   W03
 BYTE   N03
 BYTE   W03
 BYTE   N06  Fs0
 BYTE   N06  Bn0
 BYTE   W06
 BYTE   N03
 BYTE   W03
 BYTE   N03
 BYTE   W03
 BYTE   N03
 BYTE   W03
 BYTE   N03
 BYTE   W03
 BYTE   N06  Fs0
 BYTE   N06  Bn0
 BYTE   W06
 BYTE   N03
 BYTE   W03
 BYTE   N03
 BYTE   W03
 BYTE   N03
 BYTE   W03
 BYTE   N03
 BYTE   W03
 BYTE   N06  Fs0
 BYTE   N06  Bn0
 BYTE   W06
 BYTE   N03
 BYTE   W03
 BYTE   N03
 BYTE   W03
 BYTE   N03
 BYTE   W03
 BYTE   N03
 BYTE   W03
 BYTE   PEND 
//  #03 //016   ----------------------------------------
 BYTE   PATT
  POIN2 Label_010050ED
//  #03 //017   ----------------------------------------
 BYTE   N12  Dn1  v120
 BYTE   N12  Dn2
 BYTE   W12
 BYTE   Cs1
 BYTE   N12  Cs2
 BYTE   W12
 BYTE   N06  Fs0  v096
 BYTE   N06  Bn0
 BYTE   W06
 BYTE   N03
 BYTE   W03
 BYTE   N03
 BYTE   W03
 BYTE   N03
 BYTE   W03
 BYTE   N03
 BYTE   W03
 BYTE   N06  Fs0
 BYTE   N06  Bn0
 BYTE   W06
 BYTE   N03
 BYTE   W03
 BYTE   N03
 BYTE   W03
 BYTE   N03
 BYTE   W03
 BYTE   N03
 BYTE   W03
 BYTE   N06  Fs0
 BYTE   N06  Bn0
 BYTE   W06
 BYTE   N03
 BYTE   W03
 BYTE   N03
 BYTE   W03
Label_01005163:
 BYTE   N03  Bn0  v096
 BYTE   W03
 BYTE   N03
 BYTE   W03
 BYTE   N06  Fs0
 BYTE   N06  Bn0
 BYTE   W06
 BYTE   N03
 BYTE   W03
 BYTE   N03
 BYTE   W03
 BYTE   N03
 BYTE   W03
 BYTE   N03
 BYTE   W03
//  #03 //018   ----------------------------------------
 BYTE   N12  Dn1  v120
 BYTE   N12  Dn2
 BYTE   W12
 BYTE   Cs1
 BYTE   N12  Cs2
 BYTE   W12
 BYTE   N06  Fs0  v096
 BYTE   N06  Bn0
 BYTE   W06
 BYTE   N03
 BYTE   W03
 BYTE   N03
 BYTE   W03
 BYTE   N03
 BYTE   W03
 BYTE   N03
 BYTE   W03
 BYTE   N06  Fs0
 BYTE   N06  Bn0
 BYTE   W06
 BYTE   N03
 BYTE   W03
 BYTE   N03
 BYTE   W03
 BYTE   N03
 BYTE   W03
 BYTE   N03
 BYTE   W03
 BYTE   N06  Fs0
 BYTE   N06  Bn0
 BYTE   W06
 BYTE   N03
 BYTE   W03
 BYTE   N03
 BYTE   W03
 BYTE   N03
 BYTE   W03
 BYTE   N03
 BYTE   W03
 BYTE   N06  Fs0
 BYTE   N06  Bn0
 BYTE   W06
 BYTE   N03
 BYTE   W03
 BYTE   N03
 BYTE   W03
 BYTE   N03
 BYTE   W03
 BYTE   N03
 BYTE   W03
//  #03 //019   ----------------------------------------
 BYTE   PATT
  POIN2 Label_010050ED
//  #03 //020   ----------------------------------------
 BYTE   N12  Bn0  v096
 BYTE   N12  Bn1  v120
 BYTE   W12
 BYTE   An0  v096
 BYTE   N12  An1
 BYTE   W12
 BYTE   N06  Fs0
 BYTE   N06  Bn0
 BYTE   W06
 BYTE   N03
 BYTE   W03
 BYTE   N03
 BYTE   W03
 BYTE   N03
 BYTE   W03
 BYTE   N03
 BYTE   W03
 BYTE   N06  Fs0
 BYTE   N06  Bn0
 BYTE   W06
 BYTE   N03
 BYTE   W03
 BYTE   N03
 BYTE   W03
 BYTE   N03
 BYTE   W03
 BYTE   N03
 BYTE   W03
 BYTE   N06  Fs0
 BYTE   N06  Bn0
 BYTE   W06
 BYTE   N03
 BYTE   W03
 BYTE   N03
 BYTE   W03
 BYTE   N03
 BYTE   W03
 BYTE   N03
 BYTE   W03
 BYTE   N06  Fs0
 BYTE   N06  Bn0
 BYTE   W06
 BYTE   N03
 BYTE   W03
 BYTE   N03
 BYTE   W03
 BYTE   N03
 BYTE   W03
 BYTE   N03
 BYTE   W03
//  #03 //021   ----------------------------------------
 BYTE   N12  Dn1
 BYTE   N12  Dn2  v120
 BYTE   W12
 BYTE   Cs1  v096
 BYTE   N12  Cs2  v120
 BYTE   W12
 BYTE   N18  Fn0  v096
 BYTE   N18  Cn1
 BYTE   N18  Fn1
 BYTE   W18
 BYTE   En0
 BYTE   N18  Bn0
 BYTE   N18  En1
 BYTE   W18
 BYTE   Fn0
 BYTE   N18  Cn1
 BYTE   N18  Fn1
 BYTE   W18
 BYTE   Gn0
 BYTE   N18  Dn1
 BYTE   N18  Gn1
 BYTE   W18
//  #03 //022   ----------------------------------------
 BYTE   N12  Fn0
 BYTE   N12  Cn1
 BYTE   N12  Fn1
 BYTE   W12
 BYTE   En0
 BYTE   N12  Bn0
 BYTE   N12  En1
 BYTE   W12
 BYTE   N06  Dn1
 BYTE   N06  An1
 BYTE   N06  Dn2
 BYTE   W06
 BYTE   Dn1
 BYTE   N06  An1
 BYTE   N06  Dn2
 BYTE   W06
 BYTE   Dn1
 BYTE   N06  An1
 BYTE   N06  Dn2
 BYTE   W06
 BYTE   Dn1
 BYTE   N06  An1
 BYTE   N06  Dn2
 BYTE   W06
 BYTE   Dn1
 BYTE   N06  An1
 BYTE   N06  Dn2
 BYTE   W06
 BYTE   Dn1
 BYTE   N06  An1
 BYTE   N06  Dn2
 BYTE   W06
 BYTE   Dn1
 BYTE   N06  An1
 BYTE   N06  Dn2
 BYTE   W06
 BYTE   Dn1
 BYTE   N06  An1
 BYTE   N06  Dn2
 BYTE   W06
 BYTE   Dn1
 BYTE   N06  An1
 BYTE   N06  Dn2
 BYTE   W06
 BYTE   Dn1
 BYTE   N06  An1
 BYTE   N06  Dn2
 BYTE   W06
 BYTE   Dn1
 BYTE   N06  An1
 BYTE   N06  Dn2
 BYTE   W06
 BYTE   Dn1
 BYTE   N06  An1
 BYTE   N06  Dn2
 BYTE   W06
//  #03 //023   ----------------------------------------
Label_01005276:
 BYTE   N06  Dn1  v096
 BYTE   N06  An1
 BYTE   N06  Dn2
 BYTE   W06
 BYTE   Dn1
 BYTE   N06  An1
 BYTE   N06  Dn2
 BYTE   W06
 BYTE   Dn1
 BYTE   N06  An1
 BYTE   N06  Dn2
 BYTE   W06
 BYTE   Dn1
 BYTE   N06  An1
 BYTE   N06  Dn2
 BYTE   W06
 BYTE   Cn1
 BYTE   N06  Gn1
 BYTE   N06  Cn2
 BYTE   W06
 BYTE   Cn1
 BYTE   N06  Gn1
 BYTE   N06  Cn2
 BYTE   W06
 BYTE   Cn1
 BYTE   N06  Gn1
 BYTE   N06  Cn2
 BYTE   W06
 BYTE   Cn1
 BYTE   N06  Gn1
 BYTE   N06  Cn2
 BYTE   W06
 BYTE   Cn1
 BYTE   N06  Gn1
 BYTE   N06  Cn2
 BYTE   W06
 BYTE   Cn1
 BYTE   N06  Gn1
 BYTE   N06  Cn2
 BYTE   W06
 BYTE   Cn1
 BYTE   N06  Gn1
 BYTE   N06  Cn2
 BYTE   W06
 BYTE   Cn1
 BYTE   N06  Gn1
 BYTE   N06  Cn2
 BYTE   W06
 BYTE   Cn1
 BYTE   N06  Gn1
 BYTE   N06  Cn2
 BYTE   W06
 BYTE   Cn1
 BYTE   N06  Gn1
 BYTE   N06  Cn2
 BYTE   W06
 BYTE   Cn1
 BYTE   N06  Gn1
 BYTE   N06  Cn2
 BYTE   W06
 BYTE   Cn1
 BYTE   N06  Gn1
 BYTE   N06  Cn2
 BYTE   W06
 BYTE   PEND 
//  #03 //024   ----------------------------------------
Label_010052D9:
 BYTE   N06  Cn1  v096
 BYTE   N06  Gn1
 BYTE   N06  Cn2
 BYTE   W06
 BYTE   Cn1
 BYTE   N06  Gn1
 BYTE   N06  Cn2
 BYTE   W06
 BYTE   Cn1
 BYTE   N06  Gn1
 BYTE   N06  Cn2
 BYTE   W06
 BYTE   Cn1
 BYTE   N06  Gn1
 BYTE   N06  Cn2
 BYTE   W06
 BYTE   As0
 BYTE   N06  Fn1
 BYTE   N06  As1
 BYTE   W06
 BYTE   As0
 BYTE   N06  Fn1
 BYTE   N06  As1
 BYTE   W06
 BYTE   As0
 BYTE   N06  Fn1
 BYTE   N06  As1
 BYTE   W06
 BYTE   As0
 BYTE   N06  Fn1
 BYTE   N06  As1
 BYTE   W06
 BYTE   As0
 BYTE   N06  Fn1
 BYTE   N06  As1
 BYTE   W06
 BYTE   As0
 BYTE   N06  Fn1
 BYTE   N06  As1
 BYTE   W06
 BYTE   As0
 BYTE   N06  Fn1
 BYTE   N06  As1
 BYTE   W06
 BYTE   As0
 BYTE   N06  Fn1
 BYTE   N06  As1
 BYTE   W06
 BYTE   As0
 BYTE   N06  Fn1
 BYTE   N06  As1
 BYTE   W06
 BYTE   As0
 BYTE   N06  Fn1
 BYTE   N06  As1
 BYTE   W06
 BYTE   As0
 BYTE   N06  Fn1
 BYTE   N06  As1
 BYTE   W06
 BYTE   As0
 BYTE   N06  Fn1
 BYTE   N06  As1
 BYTE   W06
 BYTE   PEND 
//  #03 //025   ----------------------------------------
Label_0100533C:
 BYTE   N06  As0  v096
 BYTE   N06  Fn1
 BYTE   N06  As1
 BYTE   W06
 BYTE   As0
 BYTE   N06  Fn1
 BYTE   N06  As1
 BYTE   W06
 BYTE   As0
 BYTE   N06  Fn1
 BYTE   N06  As1
 BYTE   W06
 BYTE   As0
 BYTE   N06  Fn1
 BYTE   N06  As1
 BYTE   W06
 BYTE   Gn0
 BYTE   N06  Dn1
 BYTE   N06  Gn1
 BYTE   W06
 BYTE   Gn0
 BYTE   N06  Dn1
 BYTE   N06  Gn1
 BYTE   W06
 BYTE   Gn0
 BYTE   N06  Dn1
 BYTE   N06  Gn1
 BYTE   W06
 BYTE   Gn0
 BYTE   N06  Dn1
 BYTE   N06  Gn1
 BYTE   W06
 BYTE   Gn0
 BYTE   N06  Dn1
 BYTE   N06  Gn1
 BYTE   W06
 BYTE   Gn0
 BYTE   N06  Dn1
 BYTE   N06  Gn1
 BYTE   W06
 BYTE   Gn0
 BYTE   N06  Dn1
 BYTE   N06  Gn1
 BYTE   W06
 BYTE   Gn0
 BYTE   N06  Dn1
 BYTE   N06  Gn1
 BYTE   W06
 BYTE   Gn0
 BYTE   N06  Dn1
 BYTE   N06  Gn1
 BYTE   W06
 BYTE   Gn0
 BYTE   N06  Dn1
 BYTE   N06  Gn1
 BYTE   W06
 BYTE   Gn0
 BYTE   N06  Dn1
 BYTE   N06  Gn1
 BYTE   W06
 BYTE   Gn0
 BYTE   N06  Dn1
 BYTE   N06  Gn1
 BYTE   W06
 BYTE   PEND 
//  #03 //026   ----------------------------------------
Label_0100539F:
 BYTE   N06  Gn0  v096
 BYTE   N06  Dn1
 BYTE   N06  Gn1
 BYTE   W06
 BYTE   Gn0
 BYTE   N06  Dn1
 BYTE   N06  Gn1
 BYTE   W06
 BYTE   Gn0
 BYTE   N06  Dn1
 BYTE   N06  Gn1
 BYTE   W06
 BYTE   Gn0
 BYTE   N06  Dn1
 BYTE   N06  Gn1
 BYTE   W06
 BYTE   Dn1
 BYTE   N06  An1
 BYTE   N06  Dn2
 BYTE   W06
 BYTE   Dn1
 BYTE   N06  An1
 BYTE   N06  Dn2
 BYTE   W06
 BYTE   Dn1
 BYTE   N06  An1
 BYTE   N06  Dn2
 BYTE   W06
 BYTE   Dn1
 BYTE   N06  An1
 BYTE   N06  Dn2
 BYTE   W06
 BYTE   Dn1
 BYTE   N06  An1
 BYTE   N06  Dn2
 BYTE   W06
 BYTE   Dn1
 BYTE   N06  An1
 BYTE   N06  Dn2
 BYTE   W06
 BYTE   Dn1
 BYTE   N06  An1
 BYTE   N06  Dn2
 BYTE   W06
 BYTE   Dn1
 BYTE   N06  An1
 BYTE   N06  Dn2
 BYTE   W06
 BYTE   Dn1
 BYTE   N06  An1
 BYTE   N06  Dn2
 BYTE   W06
 BYTE   Dn1
 BYTE   N06  An1
 BYTE   N06  Dn2
 BYTE   W06
 BYTE   Dn1
 BYTE   N06  An1
 BYTE   N06  Dn2
 BYTE   W06
 BYTE   Dn1
 BYTE   N06  An1
 BYTE   N06  Dn2
 BYTE   W06
 BYTE   PEND 
//  #03 //027   ----------------------------------------
 BYTE   PATT
  POIN2 Label_01005276
//  #03 //028   ----------------------------------------
 BYTE   PATT
  POIN2 Label_010052D9
//  #03 //029   ----------------------------------------
 BYTE   PATT
  POIN2 Label_0100533C
//  #03 //030   ----------------------------------------
 BYTE   N06  Gn0  v096
 BYTE   N06  Dn1
 BYTE   N06  Gn1
 BYTE   W06
 BYTE   Gn0
 BYTE   N06  Dn1
 BYTE   N06  Gn1
 BYTE   W06
 BYTE   Gn0
 BYTE   N06  Dn1
 BYTE   N06  Gn1
 BYTE   W06
 BYTE   Gn0
 BYTE   N06  Dn1
 BYTE   N06  Gn1
 BYTE   W06
 BYTE   Fn0
 BYTE   N06  Cn1
 BYTE   N06  Fn1
 BYTE   W06
 BYTE   Fn0
 BYTE   N06  Cn1
 BYTE   N06  Fn1
 BYTE   W06
 BYTE   Fn0
 BYTE   N06  Cn1
 BYTE   N06  Fn1
 BYTE   W06
 BYTE   Fn0
 BYTE   N06  Cn1
 BYTE   N06  Fn1
 BYTE   W06
 BYTE   Fn0
 BYTE   N06  Cn1
 BYTE   N06  Fn1
 BYTE   W06
 BYTE   Fn0
 BYTE   N06  Cn1
 BYTE   N06  Fn1
 BYTE   W06
 BYTE   Fn0
 BYTE   N06  Cn1
 BYTE   N06  Fn1
 BYTE   W06
 BYTE   Fn0
 BYTE   N06  Cn1
 BYTE   N06  Fn1
 BYTE   W06
 BYTE   Fn0
 BYTE   N06  Cn1
 BYTE   N06  Fn1
 BYTE   W06
 BYTE   Fn0
 BYTE   N06  Cn1
 BYTE   N06  Fn1
 BYTE   W06
 BYTE   Fn0
 BYTE   N06  Cn1
 BYTE   N06  Fn1
 BYTE   W06
 BYTE   Fn0
 BYTE   N06  Cn1
 BYTE   N06  Fn1
 BYTE   W06
//  #03 //031   ----------------------------------------
 BYTE   Fn0
 BYTE   N06  Cn1
 BYTE   N06  Fn1
 BYTE   W06
 BYTE   Fn0
 BYTE   N06  Cn1
 BYTE   N06  Fn1
 BYTE   W06
 BYTE   Fn0
 BYTE   N06  Cn1
 BYTE   N06  Fn1
 BYTE   W06
 BYTE   Fn0
 BYTE   N06  Cn1
 BYTE   N06  Fn1
 BYTE   W06
 BYTE   Gn0
 BYTE   N06  Dn1
 BYTE   N06  Gn1
 BYTE   W06
 BYTE   Gn0
 BYTE   N06  Dn1
 BYTE   N06  Gn1
 BYTE   W06
 BYTE   Gn0
 BYTE   N06  Dn1
 BYTE   N06  Gn1
 BYTE   W06
 BYTE   Gn0
 BYTE   N06  Dn1
 BYTE   N06  Gn1
 BYTE   W06
 BYTE   Gn0
 BYTE   N06  Dn1
 BYTE   N06  Gn1
 BYTE   W06
 BYTE   Gn0
 BYTE   N06  Dn1
 BYTE   N06  Gn1
 BYTE   W06
 BYTE   Gn0
 BYTE   N06  Dn1
 BYTE   N06  Gn1
 BYTE   W06
 BYTE   Gn0
 BYTE   N06  Dn1
 BYTE   N06  Gn1
 BYTE   W06
 BYTE   Gn0
 BYTE   N06  Dn1
 BYTE   N06  Gn1
 BYTE   W06
 BYTE   Gn0
 BYTE   N06  Dn1
 BYTE   N06  Gn1
 BYTE   W06
 BYTE   Gn0
 BYTE   N06  Dn1
 BYTE   N06  Gn1
 BYTE   W06
 BYTE   Gn0
 BYTE   N06  Dn1
 BYTE   N06  Gn1
 BYTE   W06
//  #03 //032   ----------------------------------------
 BYTE   PATT
  POIN2 Label_0100539F
//  #03 //033   ----------------------------------------
 BYTE   N06  Dn1  v096
 BYTE   N06  An1
 BYTE   N06  Dn2
 BYTE   W06
 BYTE   Dn1
 BYTE   N06  An1
 BYTE   N06  Dn2
 BYTE   W06
 BYTE   Dn1
 BYTE   N06  An1
 BYTE   N06  Dn2
 BYTE   W06
 BYTE   Dn1
 BYTE   N06  An1
 BYTE   N06  Dn2
 BYTE   W06
 BYTE   N18  As0
 BYTE   N18  Fn1
 BYTE   N18  As1
 BYTE   W18
 BYTE   As0
 BYTE   N18  Fn1
 BYTE   N18  As1
 BYTE   W18
 BYTE   As0
 BYTE   N18  Fn1
 BYTE   N18  As1
 BYTE   W18
 BYTE   N42  As0
 BYTE   N42  Fn1
 BYTE   N42  As1
 BYTE   W18
//  #03 //034   ----------------------------------------
Label_0100550C:
 BYTE   W24
 BYTE   N09  An0  v096
 BYTE   N09  En1
 BYTE   N09  An1
 BYTE   W18
 BYTE   An0
 BYTE   N09  En1
 BYTE   N09  An1
 BYTE   W18
 BYTE   An0
 BYTE   N09  En1
 BYTE   N09  An1
 BYTE   W18
 BYTE   An0
 BYTE   N09  En1
 BYTE   N09  An1
 BYTE   W18
 BYTE   PEND 
//  #03 //035   ----------------------------------------
 BYTE   PATT
  POIN2 Label_0100550C
//  #03 //036   ----------------------------------------
 BYTE   PATT
  POIN2 Label_0100550C
//  #03 //037   ----------------------------------------
Label_01005532:
 BYTE   N06  Dn2  v096
 BYTE   W06
 BYTE   Cn2
 BYTE   W06
 BYTE   As1
 BYTE   W06
 BYTE   An1
 BYTE   W06
 BYTE   N09  An0
 BYTE   N09  En1
 BYTE   N09  An1
 BYTE   W18
 BYTE   An0
 BYTE   N09  En1
 BYTE   N09  An1
 BYTE   W18
 BYTE   An0
 BYTE   N09  En1
 BYTE   N09  An1
 BYTE   W18
 BYTE   An0
 BYTE   N09  En1
 BYTE   N09  An1
 BYTE   W18
 BYTE   PEND 
//  #03 //038   ----------------------------------------
Label_01005556:
 BYTE   N06  An1  v096
 BYTE   W06
 BYTE   As1
 BYTE   W06
 BYTE   Cn2
 BYTE   W06
 BYTE   Dn2
 BYTE   W06
 BYTE   N09  An0
 BYTE   N09  En1
 BYTE   N09  An1
 BYTE   W18
 BYTE   An0
 BYTE   N09  En1
 BYTE   N09  An1
 BYTE   W18
 BYTE   An0
 BYTE   N09  En1
 BYTE   N09  An1
 BYTE   W18
 BYTE   An0
 BYTE   N09  En1
 BYTE   N09  An1
 BYTE   W18
 BYTE   PEND 
//  #03 //039   ----------------------------------------
 BYTE   N06  Dn2
 BYTE   W06
 BYTE   Cn2
 BYTE   W06
 BYTE   As1
 BYTE   W06
 BYTE   An1
 BYTE   W06
 BYTE   N18  Cn1
 BYTE   N18  Gn1
 BYTE   N18  Cn2
 BYTE   W18
 BYTE   Cn1
 BYTE   N18  Gn1
 BYTE   N18  Cn2
 BYTE   W18
 BYTE   N12  Cn1
 BYTE   N12  Gn1
 BYTE   N12  Cn2
 BYTE   W12
 BYTE   N24  As0
 BYTE   N24  Fn1
 BYTE   N24  As1
 BYTE   W24
//  #03 //040   ----------------------------------------
 BYTE   As0
 BYTE   N24  Fn1
 BYTE   N24  As1
 BYTE   W24
 BYTE   N09  An0
 BYTE   N09  En1
 BYTE   N09  An1
 BYTE   W18
 BYTE   An0
 BYTE   N09  En1
 BYTE   N09  An1
 BYTE   W18
 BYTE   An0
 BYTE   N09  En1
 BYTE   N09  An1
 BYTE   W18
 BYTE   An0
 BYTE   N09  En1
 BYTE   N09  An1
 BYTE   W18
//  #03 //041   ----------------------------------------
 BYTE   PATT
  POIN2 Label_01005532
//  #03 //042   ----------------------------------------
 BYTE   PATT
  POIN2 Label_01005556
//  #03 //043   ----------------------------------------
 BYTE   N06  Dn2  v096
 BYTE   W06
 BYTE   Cn2
 BYTE   W06
 BYTE   As1
 BYTE   W06
 BYTE   An1
 BYTE   W06
 BYTE   N18  Cn1
 BYTE   N18  Gn1
 BYTE   N18  Cn2
 BYTE   W18
 BYTE   Cn1
 BYTE   N18  Gn1
 BYTE   N18  Cn2
 BYTE   W18
 BYTE   N12  Cn1
 BYTE   N12  Gn1
 BYTE   N12  Cn2
 BYTE   W12
 BYTE   Dn1
 BYTE   W12
 BYTE   Cn1
 BYTE   W12
//  #03 //044   ----------------------------------------
 BYTE   As0
 BYTE   W12
 BYTE   An0
 BYTE   W12
 BYTE   N06  Gn0
 BYTE   N06  Dn1
 BYTE   N06  Gn1
 BYTE   W06
 BYTE   Gn0
 BYTE   N06  Dn1
 BYTE   N06  Gn1
 BYTE   W06
 BYTE   Gn0
 BYTE   N06  Dn1
 BYTE   N06  Gn1
 BYTE   W06
 BYTE   Gn0
 BYTE   N06  Dn1
 BYTE   N06  Gn1
 BYTE   W06
 BYTE   N12  Gn0
 BYTE   N12  Dn1
 BYTE   N12  Gn1
 BYTE   W12
 BYTE   N06  Gn0
 BYTE   N06  Dn1
 BYTE   N06  Gn1
 BYTE   W06
 BYTE   Gn0
 BYTE   N06  Dn1
 BYTE   N06  Gn1
 BYTE   W06
 BYTE   Gn0
 BYTE   N06  Dn1
 BYTE   N06  Gn1
 BYTE   W06
 BYTE   Gn0
 BYTE   N06  Dn1
 BYTE   N06  Gn1
 BYTE   W06
 BYTE   N12  Gn0
 BYTE   N12  Dn1
 BYTE   N12  Gn1
 BYTE   W12
//  #03 //045   ----------------------------------------
Label_0100562D:
 BYTE   N06  Gn0  v096
 BYTE   N06  Dn1
 BYTE   N06  Gn1
 BYTE   W06
 BYTE   Gn0
 BYTE   N06  Dn1
 BYTE   N06  Gn1
 BYTE   W06
 BYTE   N12  Gn0
 BYTE   N12  Dn1
 BYTE   N12  Gn1
 BYTE   W12
 BYTE   N06  Fn0
 BYTE   N06  Cn1
 BYTE   N06  Fn1
 BYTE   W06
 BYTE   Fn0
 BYTE   N06  Cn1
 BYTE   N06  Fn1
 BYTE   W06
 BYTE   Fn0
 BYTE   N06  Cn1
 BYTE   N06  Fn1
 BYTE   W06
 BYTE   Fn0
 BYTE   N06  Cn1
 BYTE   N06  Fn1
 BYTE   W06
 BYTE   N12  Fn0
 BYTE   N12  Cn1
 BYTE   N12  Fn1
 BYTE   W12
 BYTE   N06  Fn0
 BYTE   N06  Cn1
 BYTE   N06  Fn1
 BYTE   W06
 BYTE   Fn0
 BYTE   N06  Cn1
 BYTE   N06  Fn1
 BYTE   W06
 BYTE   Fn0
 BYTE   N06  Cn1
 BYTE   N06  Fn1
 BYTE   W06
 BYTE   Fn0
 BYTE   N06  Cn1
 BYTE   N06  Fn1
 BYTE   W06
 BYTE   N12  Fn0
 BYTE   N12  Cn1
 BYTE   N12  Fn1
 BYTE   W12
 BYTE   PEND 
//  #03 //046   ----------------------------------------
Label_01005683:
 BYTE   N06  Fn0  v096
 BYTE   N06  Cn1
 BYTE   N06  Fn1
 BYTE   W06
 BYTE   Fn0
 BYTE   N06  Cn1
 BYTE   N06  Fn1
 BYTE   W06
 BYTE   N12  Fn0
 BYTE   N12  Cn1
 BYTE   N12  Fn1
 BYTE   W12
 BYTE   N06  Ds0
 BYTE   N06  As0
 BYTE   N06  Ds1
 BYTE   W06
 BYTE   Ds0
 BYTE   N06  As0
 BYTE   N06  Ds1
 BYTE   W06
 BYTE   Ds0
 BYTE   N06  As0
 BYTE   N06  Ds1
 BYTE   W06
 BYTE   Ds0
 BYTE   N06  As0
 BYTE   N06  Ds1
 BYTE   W06
 BYTE   N12  Ds0
 BYTE   N12  As0
 BYTE   N12  Ds1
 BYTE   W12
 BYTE   N06  Ds0
 BYTE   N06  As0
 BYTE   N06  Ds1
 BYTE   W06
 BYTE   Ds0
 BYTE   N06  As0
 BYTE   N06  Ds1
 BYTE   W06
 BYTE   Ds0
 BYTE   N06  As0
 BYTE   N06  Ds1
 BYTE   W06
 BYTE   Ds0
 BYTE   N06  As0
 BYTE   N06  Ds1
 BYTE   W06
 BYTE   N12  Ds0
 BYTE   N12  As0
 BYTE   N12  Ds1
 BYTE   W12
 BYTE   PEND 
//  #03 //047   ----------------------------------------
Label_010056D9:
 BYTE   N06  Ds0  v096
 BYTE   N06  As0
 BYTE   N06  Ds1
 BYTE   W06
 BYTE   Ds0
 BYTE   N06  As0
 BYTE   N06  Ds1
 BYTE   W06
 BYTE   N12  Ds0
 BYTE   N12  As0
 BYTE   N12  Ds1
 BYTE   W12
 BYTE   N06  Ds0
 BYTE   N06  As0
 BYTE   N06  Ds1
 BYTE   W06
 BYTE   Ds0
 BYTE   N06  As0
 BYTE   N06  Ds1
 BYTE   W06
 BYTE   Ds0
 BYTE   N06  As0
 BYTE   N06  Ds1
 BYTE   W06
 BYTE   Ds0
 BYTE   N06  As0
 BYTE   N06  Ds1
 BYTE   W06
 BYTE   N12  Ds0
 BYTE   N12  As0
 BYTE   N12  Ds1
 BYTE   W12
 BYTE   N06  Ds0
 BYTE   N06  As0
 BYTE   N06  Ds1
 BYTE   W06
 BYTE   Ds0
 BYTE   N06  As0
 BYTE   N06  Ds1
 BYTE   W06
 BYTE   Ds0
 BYTE   N06  As0
 BYTE   N06  Ds1
 BYTE   W06
 BYTE   Ds0
 BYTE   N06  As0
 BYTE   N06  Ds1
 BYTE   W06
 BYTE   N12  Ds0
 BYTE   N12  As0
 BYTE   N12  Ds1
 BYTE   W12
 BYTE   PEND 
//  #03 //048   ----------------------------------------
Label_0100572F:
 BYTE   N06  Fn0  v096
 BYTE   N06  Cn1
 BYTE   N06  Fn1
 BYTE   W06
 BYTE   Fn0
 BYTE   N06  Cn1
 BYTE   N06  Fn1
 BYTE   W06
 BYTE   N12  Fn0
 BYTE   N12  Cn1
 BYTE   N12  Fn1
 BYTE   W12
 BYTE   N06  Gn0
 BYTE   N06  Dn1
 BYTE   N06  Gn1
 BYTE   W06
 BYTE   Gn0
 BYTE   N06  Dn1
 BYTE   N06  Gn1
 BYTE   W06
 BYTE   Gn0
 BYTE   N06  Dn1
 BYTE   N06  Gn1
 BYTE   W06
 BYTE   Gn0
 BYTE   N06  Dn1
 BYTE   N06  Gn1
 BYTE   W06
 BYTE   N12  Gn0
 BYTE   N12  Dn1
 BYTE   N12  Gn1
 BYTE   W12
 BYTE   N06  Gn0
 BYTE   N06  Dn1
 BYTE   N06  Gn1
 BYTE   W06
 BYTE   Gn0
 BYTE   N06  Dn1
 BYTE   N06  Gn1
 BYTE   W06
 BYTE   Gn0
 BYTE   N06  Dn1
 BYTE   N06  Gn1
 BYTE   W06
 BYTE   Gn0
 BYTE   N06  Dn1
 BYTE   N06  Gn1
 BYTE   W06
 BYTE   N12  Gn0
 BYTE   N12  Dn1
 BYTE   N12  Gn1
 BYTE   W12
 BYTE   PEND 
//  #03 //049   ----------------------------------------
 BYTE   PATT
  POIN2 Label_0100562D
//  #03 //050   ----------------------------------------
 BYTE   PATT
  POIN2 Label_01005683
//  #03 //051   ----------------------------------------
 BYTE   PATT
  POIN2 Label_010056D9
//  #03 //052   ----------------------------------------
 BYTE   N06  Fn0  v096
 BYTE   N06  Cn1
 BYTE   N06  Fn1
 BYTE   W06
 BYTE   Fn0
 BYTE   N06  Cn1
 BYTE   N06  Fn1
 BYTE   W06
 BYTE   N12  Fn0
 BYTE   N12  Cn1
 BYTE   N12  Fn1
 BYTE   W12
 BYTE   N06  Cn0
 BYTE   N06  Gn0
 BYTE   N06  Cn1
 BYTE   W06
 BYTE   Cn0
 BYTE   N06  Gn0
 BYTE   N06  Cn1
 BYTE   W06
 BYTE   Cn0
 BYTE   N06  Gn0
 BYTE   N06  Cn1
 BYTE   W06
 BYTE   Cn0
 BYTE   N06  Gn0
 BYTE   N06  Cn1
 BYTE   W06
 BYTE   N12  Cn0
 BYTE   N12  Gn0
 BYTE   N12  Cn1
 BYTE   W12
 BYTE   N06  Cn0
 BYTE   N06  Gn0
 BYTE   N06  Cn1
 BYTE   W06
 BYTE   Cn0
 BYTE   N06  Gn0
 BYTE   N06  Cn1
 BYTE   W06
 BYTE   Cn0
 BYTE   N06  Gn0
 BYTE   N06  Cn1
 BYTE   W06
 BYTE   Cn0
 BYTE   N06  Gn0
 BYTE   N06  Cn1
 BYTE   W06
 BYTE   N12  Cn0
 BYTE   N12  Gn0
 BYTE   N12  Cn1
 BYTE   W12
//  #03 //053   ----------------------------------------
 BYTE   N06  Cn0
 BYTE   N06  Gn0
 BYTE   N06  Cn1
 BYTE   W06
 BYTE   Cn0
 BYTE   N06  Gn0
 BYTE   N06  Cn1
 BYTE   W06
 BYTE   N12  Cn0
 BYTE   N12  Gn0
 BYTE   N12  Cn1
 BYTE   W12
 BYTE   N06  Dn0
 BYTE   N06  An0
 BYTE   N06  Dn1
 BYTE   W06
 BYTE   Dn0
 BYTE   N06  An0
 BYTE   N06  Dn1
 BYTE   W06
 BYTE   Dn0
 BYTE   N06  An0
 BYTE   N06  Dn1
 BYTE   W06
 BYTE   Dn0
 BYTE   N06  An0
 BYTE   N06  Dn1
 BYTE   W06
 BYTE   N12  Dn0
 BYTE   N12  An0
 BYTE   N12  Dn1
 BYTE   W12
 BYTE   N06  Dn0
 BYTE   N06  An0
 BYTE   N06  Dn1
 BYTE   W06
 BYTE   Dn0
 BYTE   N06  An0
 BYTE   N06  Dn1
 BYTE   W06
 BYTE   Dn0
 BYTE   N06  An0
 BYTE   N06  Dn1
 BYTE   W06
 BYTE   Dn0
 BYTE   N06  An0
 BYTE   N06  Dn1
 BYTE   W06
 BYTE   N12  Dn0
 BYTE   N12  An0
 BYTE   N12  Dn1
 BYTE   W12
//  #03 //054   ----------------------------------------
 BYTE   N06  Dn0
 BYTE   N06  An0
 BYTE   N06  Dn1
 BYTE   W06
 BYTE   Dn0
 BYTE   N06  An0
 BYTE   N06  Dn1
 BYTE   W06
 BYTE   N12  Dn0
 BYTE   N12  An0
 BYTE   N12  Dn1
 BYTE   W12
 BYTE   N06  Ds0
 BYTE   N06  As0
 BYTE   N06  Ds1
 BYTE   W06
 BYTE   Ds0
 BYTE   N06  As0
 BYTE   N06  Ds1
 BYTE   W06
 BYTE   Ds0
 BYTE   N06  As0
 BYTE   N06  Ds1
 BYTE   W06
 BYTE   Ds0
 BYTE   N06  As0
 BYTE   N06  Ds1
 BYTE   W06
 BYTE   N12  Ds0
 BYTE   N12  As0
 BYTE   N12  Ds1
 BYTE   W12
 BYTE   N06  Ds0
 BYTE   N06  As0
 BYTE   N06  Ds1
 BYTE   W06
 BYTE   Ds0
 BYTE   N06  As0
 BYTE   N06  Ds1
 BYTE   W06
 BYTE   Ds0
 BYTE   N06  As0
 BYTE   N06  Ds1
 BYTE   W06
 BYTE   Ds0
 BYTE   N06  As0
 BYTE   N06  Ds1
 BYTE   W06
 BYTE   N12  Ds0
 BYTE   N12  As0
 BYTE   N12  Ds1
 BYTE   W12
//  #03 //055   ----------------------------------------
Label_01005891:
 BYTE   N06  Ds0  v096
 BYTE   N06  As0
 BYTE   N06  Ds1
 BYTE   W06
 BYTE   Ds0
 BYTE   N06  As0
 BYTE   N06  Ds1
 BYTE   W06
 BYTE   N12  Ds0
 BYTE   N12  As0
 BYTE   N12  Ds1
 BYTE   W12
 BYTE   N06  Fn0
 BYTE   N06  Cn1
 BYTE   N06  Fn1
 BYTE   W06
 BYTE   Fn0
 BYTE   N06  Cn1
 BYTE   N06  Fn1
 BYTE   W06
 BYTE   Fn0
 BYTE   N06  Cn1
 BYTE   N06  Fn1
 BYTE   W06
 BYTE   Fn0
 BYTE   N06  Cn1
 BYTE   N06  Fn1
 BYTE   W06
 BYTE   N12  Fn0
 BYTE   N12  Cn1
 BYTE   N12  Fn1
 BYTE   W12
 BYTE   N06  Fn0
 BYTE   N06  Cn1
 BYTE   N06  Fn1
 BYTE   W06
 BYTE   Fn0
 BYTE   N06  Cn1
 BYTE   N06  Fn1
 BYTE   W06
 BYTE   Fn0
 BYTE   N06  Cn1
 BYTE   N06  Fn1
 BYTE   W06
 BYTE   Fn0
 BYTE   N06  Cn1
 BYTE   N06  Fn1
 BYTE   W06
 BYTE   N12  Fn0
 BYTE   N12  Cn1
 BYTE   N12  Fn1
 BYTE   W12
 BYTE   PEND 
//  #03 //056   ----------------------------------------
 BYTE   PATT
  POIN2 Label_0100572F
//  #03 //057   ----------------------------------------
Label_010058EC:
 BYTE   N06  Gn0  v096
 BYTE   N06  Dn1
 BYTE   N06  Gn1
 BYTE   W06
 BYTE   Gn0
 BYTE   N06  Dn1
 BYTE   N06  Gn1
 BYTE   W06
 BYTE   N12  Gn0
 BYTE   N12  Dn1
 BYTE   N12  Gn1
 BYTE   W12
 BYTE   N06  Ds0
 BYTE   N06  As0
 BYTE   N06  Ds1
 BYTE   W06
 BYTE   Ds0
 BYTE   N06  As0
 BYTE   N06  Ds1
 BYTE   W06
 BYTE   Ds0
 BYTE   N06  As0
 BYTE   N06  Ds1
 BYTE   W06
 BYTE   Ds0
 BYTE   N06  As0
 BYTE   N06  Ds1
 BYTE   W06
 BYTE   N12  Ds0
 BYTE   N12  As0
 BYTE   N12  Ds1
 BYTE   W12
 BYTE   N06  Ds0
 BYTE   N06  As0
 BYTE   N06  Ds1
 BYTE   W06
 BYTE   Ds0
 BYTE   N06  As0
 BYTE   N06  Ds1
 BYTE   W06
 BYTE   Ds0
 BYTE   N06  As0
 BYTE   N06  Ds1
 BYTE   W06
 BYTE   Ds0
 BYTE   N06  As0
 BYTE   N06  Ds1
 BYTE   W06
 BYTE   N12  Ds0
 BYTE   N12  As0
 BYTE   N12  Ds1
 BYTE   W12
 BYTE   PEND 
//  #03 //058   ----------------------------------------
 BYTE   PATT
  POIN2 Label_01005891
//  #03 //059   ----------------------------------------
Label_01005947:
 BYTE   N06  Fn0  v096
 BYTE   N06  Cn1
 BYTE   N06  Fn1
 BYTE   W06
 BYTE   Fn0
 BYTE   N06  Cn1
 BYTE   N06  Fn1
 BYTE   W06
 BYTE   N12  Fn0
 BYTE   N12  Cn1
 BYTE   N12  Fn1
 BYTE   W12
 BYTE   N06  Fn0
 BYTE   N06  Cn1
 BYTE   N06  Fn1
 BYTE   W06
 BYTE   Fn0
 BYTE   N06  Cn1
 BYTE   N06  Fn1
 BYTE   W06
 BYTE   Fn0
 BYTE   N06  Cn1
 BYTE   N06  Fn1
 BYTE   W06
 BYTE   Fn0
 BYTE   N06  Cn1
 BYTE   N06  Fn1
 BYTE   W06
 BYTE   N12  Fn0
 BYTE   N12  Cn1
 BYTE   N12  Fn1
 BYTE   W12
 BYTE   N06  Fn0
 BYTE   N06  Cn1
 BYTE   N06  Fn1
 BYTE   W06
 BYTE   Fn0
 BYTE   N06  Cn1
 BYTE   N06  Fn1
 BYTE   W06
 BYTE   Fn0
 BYTE   N06  Cn1
 BYTE   N06  Fn1
 BYTE   W06
 BYTE   Fn0
 BYTE   N06  Cn1
 BYTE   N06  Fn1
 BYTE   W06
 BYTE   N12  Fn0
 BYTE   N12  Cn1
 BYTE   N12  Fn1
 BYTE   W12
 BYTE   PEND 
//  #03 //060   ----------------------------------------
 BYTE   PATT
  POIN2 Label_0100572F
//  #03 //061   ----------------------------------------
 BYTE   PATT
  POIN2 Label_010058EC
//  #03 //062   ----------------------------------------
 BYTE   PATT
  POIN2 Label_01005891
//  #03 //063   ----------------------------------------
 BYTE   PATT
  POIN2 Label_01005947
//  #03 //064   ----------------------------------------
 BYTE   N06  Fn0  v096
 BYTE   N06  Cn1
 BYTE   N06  Fn1
 BYTE   W06
 BYTE   Fn0
 BYTE   N06  Cn1
 BYTE   N06  Fn1
 BYTE   W06
 BYTE   N12  Fn0
 BYTE   N12  Cn1
 BYTE   N12  Fn1
 BYTE   W12
 BYTE   N06  En0
 BYTE   W06
 BYTE   N06
 BYTE   W06
 BYTE   N06
 BYTE   W06
 BYTE   N06
 BYTE   W06
 BYTE   N12
 BYTE   N12  Bn0
 BYTE   N12  En1
 BYTE   W12
 BYTE   En0
 BYTE   W12
 BYTE   N03
 BYTE   W03
 BYTE   N03
 BYTE   W03
 BYTE   N03
 BYTE   W03
 BYTE   N03
 BYTE   W03
 BYTE   N12
 BYTE   N12  Bn0
 BYTE   N12  En1
 BYTE   W12
//  #03 //065   ----------------------------------------
 BYTE   N06  En0
 BYTE   W06
 BYTE   N06
 BYTE   W06
 BYTE   N12
 BYTE   N12  Bn0
 BYTE   N12  En1
 BYTE   W12
 BYTE   N06  En0
 BYTE   W06
 BYTE   N06
 BYTE   W06
 BYTE   N06
 BYTE   W06
 BYTE   N06
 BYTE   W06
 BYTE   N12
 BYTE   N12  Bn0
 BYTE   N12  En1
 BYTE   W12
 BYTE   En0
 BYTE   W12
 BYTE   N03
 BYTE   W03
 BYTE   N03
 BYTE   W03
 BYTE   N03
 BYTE   W03
 BYTE   N03
 BYTE   W03
 BYTE   N12
 BYTE   N12  Bn0
 BYTE   N12  En1
 BYTE   W12
//  #03 //066   ----------------------------------------
 BYTE   N06  En0
 BYTE   W06
 BYTE   N06
 BYTE   W06
 BYTE   N12
 BYTE   N12  Bn0
 BYTE   N12  En1
 BYTE   W12
 BYTE   Fs0
 BYTE   N12  Bn0
 BYTE   W12
 BYTE   N06
 BYTE   W06
 BYTE   N12  Fs0
 BYTE   N12  Bn0
 BYTE   W12
 BYTE   N06
 BYTE   W06
 BYTE   N12  Fs0
 BYTE   N12  Bn0
 BYTE   W12
 BYTE   N06
 BYTE   W06
 BYTE   N18  Fs0
 BYTE   N18  Bn0
 BYTE   W18
//  #03 //067   ----------------------------------------
 BYTE   N06
 BYTE   W06
 BYTE   N06
 BYTE   W06
 BYTE   N06
 BYTE   W06
 BYTE   N06
 BYTE   W06
 BYTE   N18
 BYTE   W18
 BYTE   Cs1
 BYTE   W18
 BYTE   Dn1
 BYTE   W18
 BYTE   En1
 BYTE   W18
//  #03 //068   ----------------------------------------
 BYTE   N12  Dn1
 BYTE   W12
 BYTE   Cs1
 BYTE   W12
 BYTE   Bn0
 BYTE   N12  Fs1
 BYTE   W18
 BYTE   Bn0
 BYTE   N12  Fs1
 BYTE   W18
 BYTE   Bn0
 BYTE   N12  Fs1
 BYTE   W18
 BYTE   N18  Bn0
 BYTE   N18  Fs1
 BYTE   W18
//  #03 //069   ----------------------------------------
 BYTE   N06  Bn0
 BYTE   W06
 BYTE   N06
 BYTE   W06
 BYTE   N06
 BYTE   W06
 BYTE   N06
 BYTE   W06
 BYTE   N12
 BYTE   N12  Fs1
 BYTE   W18
 BYTE   Bn0
 BYTE   N12  Fs1
 BYTE   W18
 BYTE   Bn0
 BYTE   N12  Fs1
 BYTE   W12
 BYTE   GoTo
  POIN2 Label_01005163
//  #03 //070   ----------------------------------------
 BYTE   W06
 BYTE   TIE  Bn0  v096
 BYTE   TIE  Fs1
 BYTE   W18
 BYTE   W96
//  #03 //071   ----------------------------------------
 BYTE   W24
 BYTE   EOT
 BYTE   Bn0  v042
 BYTE   W48
 BYTE   VOICE   36
 BYTE   PAN   c_v+0
 BYTE   VOL   25*ItHasToBeThisWay_mvl/mxv
 BYTE   PAN   c_v+0
 BYTE   VOL   25*ItHasToBeThisWay_mvl/mxv
 BYTE   PAN   c_v+0
 BYTE   VOL   25*ItHasToBeThisWay_mvl/mxv
 BYTE   BEND   c_v+0
 BYTE   FINE

//**************** Track 4 (Midi-Chn.3) ****************//

ItHasToBeThisWay_004:
//  #04 //000   ----------------------------------------
 BYTE   KEYSH   ItHasToBeThisWay_key+0
 BYTE   VOICE   104
 BYTE   PAN   c_v+0
 BYTE   VOL   28*ItHasToBeThisWay_mvl/mxv
 BYTE   PAN   c_v+0
 BYTE   VOL   28*ItHasToBeThisWay_mvl/mxv
 BYTE   PAN   c_v+0
 BYTE   VOL   28*ItHasToBeThisWay_mvl/mxv
 BYTE   PAN   c_v+0
 BYTE   VOL   28*ItHasToBeThisWay_mvl/mxv
 BYTE   BEND   c_v+0
 BYTE   W24
 BYTE   N96  Bn2  v127
 BYTE   W72
//  #04 //001   ----------------------------------------
 BYTE   W24
 BYTE   N48  Cs3
 BYTE   W48
 BYTE   En3
 BYTE   W24
//  #04 //002   ----------------------------------------
 BYTE   W24
 BYTE   N72  Dn3
 BYTE   W72
//  #04 //003   ----------------------------------------
 BYTE   N12  Cs3
 BYTE   W12
 BYTE   Dn3
 BYTE   W12
 BYTE   N48
 BYTE   W48
 BYTE   Cs3
 BYTE   W24
//  #04 //004   ----------------------------------------
 BYTE   W24
 BYTE   N96  Bn2
 BYTE   W72
//  #04 //005   ----------------------------------------
 BYTE   W24
 BYTE   N72  Cs3
 BYTE   W72
//  #04 //006   ----------------------------------------
 BYTE   N24  En3
 BYTE   W24
 BYTE   N72  Dn3
 BYTE   W72
//  #04 //007   ----------------------------------------
 BYTE   N12  Cs3
 BYTE   W12
 BYTE   Dn3
 BYTE   W12
 BYTE   N48  Fs3
 BYTE   W48
 BYTE   En3
 BYTE   W24
//  #04 //008   ----------------------------------------
 BYTE   W24
 BYTE   N96  Fs3
 BYTE   W72
//  #04 //009   ----------------------------------------
 BYTE   W24
 BYTE   Gn3
 BYTE   W72
//  #04 //010   ----------------------------------------
 BYTE   W96
//  #04 //011   ----------------------------------------
 BYTE   W96
//  #04 //012   ----------------------------------------
 BYTE   W96
//  #04 //013   ----------------------------------------
 BYTE   W24
 BYTE   N18  Bn2
 BYTE   N18  Gn3
 BYTE   W18
 BYTE   Cs3
 BYTE   N18  An3
 BYTE   W18
 BYTE   Dn3
 BYTE   N18  Bn3
 BYTE   W18
 BYTE   En3
 BYTE   N18  Cs4
 BYTE   W18
//  #04 //014   ----------------------------------------
 BYTE   N12  Dn3
 BYTE   N12  Dn4
 BYTE   W12
 BYTE   Cs3
 BYTE   N12  Cs4
 BYTE   W12
 BYTE   N36  Bn2
 BYTE   W36
 BYTE   Fs3
 BYTE   W36
//  #04 //015   ----------------------------------------
Label_01006684:
 BYTE   N24  Bn2  v127
 BYTE   W24
 BYTE   N36  Cs3
 BYTE   W36
 BYTE   Fs3
 BYTE   W36
 BYTE   PEND 
//  #04 //016   ----------------------------------------
 BYTE   N24  Cs3
 BYTE   W24
 BYTE   N36  Dn3
 BYTE   W36
 BYTE   Fs3
 BYTE   W36
//  #04 //017   ----------------------------------------
 BYTE   N24  Dn3
 BYTE   W24
 BYTE   N96  En3
 BYTE   W48
Label_0100669C:
 BYTE   W24
//  #04 //018   ----------------------------------------
 BYTE   W24
 BYTE   N36  Bn2  v127
 BYTE   W36
 BYTE   Fs3
 BYTE   W36
//  #04 //019   ----------------------------------------
 BYTE   PATT
  POIN2 Label_01006684
//  #04 //020   ----------------------------------------
 BYTE   N24  An3  v127
 BYTE   W24
 BYTE   N96  Bn3
 BYTE   W72
//  #04 //021   ----------------------------------------
 BYTE   W24
 BYTE   N18  Fn2
 BYTE   N18  Fn3
 BYTE   W18
 BYTE   En2
 BYTE   N18  En3
 BYTE   W18
 BYTE   Fn2
 BYTE   N18  Fn3
 BYTE   W18
 BYTE   Gn2
 BYTE   N18  Gn3
 BYTE   W18
//  #04 //022   ----------------------------------------
Label_010066C2:
 BYTE   N12  Fn2  v127
 BYTE   N12  Fn3
 BYTE   W12
 BYTE   En2
 BYTE   N12  En3
 BYTE   W12
 BYTE   N72  Dn2
 BYTE   N72  Dn3
 BYTE   W72
 BYTE   PEND 
//  #04 //023   ----------------------------------------
Label_010066D2:
 BYTE   N12  Fn2  v127
 BYTE   N12  Fn3
 BYTE   W12
 BYTE   En2
 BYTE   N12  En3
 BYTE   W12
 BYTE   N72  Cn2
 BYTE   N72  Cn3
 BYTE   W72
 BYTE   PEND 
//  #04 //024   ----------------------------------------
 BYTE   PATT
  POIN2 Label_010066C2
//  #04 //025   ----------------------------------------
Label_010066E7:
 BYTE   N12  Fn2  v127
 BYTE   N12  Fn3
 BYTE   W12
 BYTE   En2
 BYTE   N12  En3
 BYTE   W12
 BYTE   N18  Dn2
 BYTE   N18  Dn3
 BYTE   W18
 BYTE   En2
 BYTE   N18  En3
 BYTE   W18
 BYTE   Fn2
 BYTE   N18  Fn3
 BYTE   W18
 BYTE   Gn2
 BYTE   N18  Gn3
 BYTE   W18
 BYTE   PEND 
//  #04 //026   ----------------------------------------
 BYTE   PATT
  POIN2 Label_010066C2
//  #04 //027   ----------------------------------------
 BYTE   PATT
  POIN2 Label_010066D2
//  #04 //028   ----------------------------------------
 BYTE   PATT
  POIN2 Label_010066C2
//  #04 //029   ----------------------------------------
 BYTE   PATT
  POIN2 Label_010066E7
//  #04 //030   ----------------------------------------
 BYTE   N12  An2  v127
 BYTE   N12  An3
 BYTE   W12
 BYTE   As2
 BYTE   N12  As3
 BYTE   W12
 BYTE   N48  An2
 BYTE   N48  An3
 BYTE   W48
 BYTE   N24  Gn2
 BYTE   N24  Gn3
 BYTE   W24
//  #04 //031   ----------------------------------------
 BYTE   As2
 BYTE   N24  As3
 BYTE   W24
 BYTE   N48  An2
 BYTE   N48  An3
 BYTE   W48
 BYTE   N24  Gn2
 BYTE   N24  Gn3
 BYTE   W24
//  #04 //032   ----------------------------------------
 BYTE   En2
 BYTE   N24  En3
 BYTE   W24
 BYTE   N72  Fn2
 BYTE   N72  Fn3
 BYTE   W72
//  #04 //033   ----------------------------------------
 BYTE   N24  Cn2
 BYTE   N24  Cn3
 BYTE   W24
 BYTE   N18  Dn2
 BYTE   N18  Dn3
 BYTE   W18
 BYTE   En2
 BYTE   N18  En3
 BYTE   W18
 BYTE   Fn2
 BYTE   N18  Fn3
 BYTE   W18
 BYTE   N42  Gn2
 BYTE   N42  Gn3
 BYTE   W18
//  #04 //034   ----------------------------------------
 BYTE   W96
//  #04 //035   ----------------------------------------
 BYTE   N06  Fn3
 BYTE   W06
 BYTE   En3
 BYTE   W06
 BYTE   Dn3
 BYTE   W06
 BYTE   En3
 BYTE   W06
 BYTE   BEND   c_v+0
 BYTE   N18  Dn3
 BYTE   N18  En3
 BYTE   W02
 BYTE   BEND   c_v+3
 BYTE   W01
 BYTE   BEND   c_v+6
 BYTE   W01
 BYTE   BEND   c_v+10
 BYTE   W14
 BYTE   BEND   c_v+0
 BYTE   N18  Dn3
 BYTE   N18  En3
 BYTE   W02
 BYTE   BEND   c_v+3
 BYTE   W01
 BYTE   BEND   c_v+6
 BYTE   W01
 BYTE   BEND   c_v+10
 BYTE   W14
 BYTE   BEND   c_v+0
 BYTE   N18  Dn3
 BYTE   N18  En3
 BYTE   W02
 BYTE   BEND   c_v+3
 BYTE   W01
 BYTE   BEND   c_v+6
 BYTE   W01
 BYTE   BEND   c_v+10
 BYTE   W14
 BYTE   BEND   c_v+0
 BYTE   N42  Dn3
 BYTE   N42  En3
 BYTE   W02
 BYTE   BEND   c_v+0
 BYTE   W02
 BYTE   BEND   c_v+2
 BYTE   W01
 BYTE   BEND   c_v+3
 BYTE   W01
 BYTE   BEND   c_v+4
 BYTE   W01
 BYTE   BEND   c_v+5
 BYTE   W01
 BYTE   BEND   c_v+8
 BYTE   W01
 BYTE   BEND   c_v+9
 BYTE   W01
 BYTE   BEND   c_v+10
 BYTE   W08
//  #04 //036   ----------------------------------------
 BYTE   W24
 BYTE   BEND   c_v+0
 BYTE   N48  An2
 BYTE   W48
 BYTE   N24  Gn2
 BYTE   W24
//  #04 //037   ----------------------------------------
 BYTE   As2
 BYTE   W24
 BYTE   N36  Fn3
 BYTE   W36
 BYTE   En3
 BYTE   W36
//  #04 //038   ----------------------------------------
 BYTE   W60
 BYTE   BEND   c_v+0
 BYTE   N18  Gn3
 BYTE   N18  An3
 BYTE   W02
 BYTE   BEND   c_v+3
 BYTE   W01
 BYTE   BEND   c_v+6
 BYTE   W01
 BYTE   BEND   c_v+10
 BYTE   W14
 BYTE   BEND   c_v+0
 BYTE   N18  Gs3
 BYTE   N18  As3
 BYTE   W02
 BYTE   BEND   c_v+3
 BYTE   W01
 BYTE   BEND   c_v+6
 BYTE   W01
 BYTE   BEND   c_v+10
 BYTE   W14
//  #04 //039   ----------------------------------------
 BYTE   BEND   c_v+0
 BYTE   W24
 BYTE   N18  Cn4
 BYTE   W18
 BYTE   Gn3
 BYTE   W18
 BYTE   N12  Cn4
 BYTE   W12
 BYTE   As3
 BYTE   W12
 BYTE   An3
 BYTE   W12
//  #04 //040   ----------------------------------------
 BYTE   Gn3
 BYTE   W12
 BYTE   Dn3
 BYTE   W12
 BYTE   N48  An2
 BYTE   W48
 BYTE   N24  Gn2
 BYTE   W24
//  #04 //041   ----------------------------------------
 BYTE   As2
 BYTE   W24
 BYTE   N36
 BYTE   W36
 BYTE   An2
 BYTE   W36
//  #04 //042   ----------------------------------------
 BYTE   W60
 BYTE   BEND   c_v+0
 BYTE   N18  As3
 BYTE   N18  Cn4
 BYTE   W02
 BYTE   BEND   c_v+3
 BYTE   W01
 BYTE   BEND   c_v+6
 BYTE   W01
 BYTE   BEND   c_v+10
 BYTE   W14
 BYTE   BEND   c_v+0
 BYTE   N18
 BYTE   N18  Dn4
 BYTE   W02
 BYTE   BEND   c_v+3
 BYTE   W01
 BYTE   BEND   c_v+6
 BYTE   W01
 BYTE   BEND   c_v+10
 BYTE   W14
//  #04 //043   ----------------------------------------
 BYTE   BEND   c_v+0
 BYTE   W24
 BYTE   N18  Cn4
 BYTE   W18
 BYTE   Gn3
 BYTE   W18
 BYTE   N12  Cn4
 BYTE   W12
 BYTE   Dn4
 BYTE   W12
 BYTE   Cn4
 BYTE   W12
//  #04 //044   ----------------------------------------
Label_01006814:
 BYTE   N12  As3  v127
 BYTE   W12
 BYTE   An3
 BYTE   W12
 BYTE   N36  Gn3
 BYTE   W36
 BYTE   As3
 BYTE   W36
 BYTE   PEND 
//  #04 //045   ----------------------------------------
Label_01006820:
 BYTE   N24  An3  v127
 BYTE   W24
 BYTE   N36  Fn3
 BYTE   W36
 BYTE   As3
 BYTE   W36
 BYTE   PEND 
//  #04 //046   ----------------------------------------
Label_0100682A:
 BYTE   N24  An3  v127
 BYTE   W24
 BYTE   N96  Ds3
 BYTE   W72
 BYTE   PEND 
//  #04 //047   ----------------------------------------
 BYTE   W24
 BYTE   N18
 BYTE   W18
 BYTE   Fn3
 BYTE   W18
 BYTE   Gn3
 BYTE   W18
 BYTE   An3
 BYTE   W18
//  #04 //048   ----------------------------------------
 BYTE   PATT
  POIN2 Label_01006814
//  #04 //049   ----------------------------------------
 BYTE   PATT
  POIN2 Label_01006820
//  #04 //050   ----------------------------------------
 BYTE   PATT
  POIN2 Label_0100682A
//  #04 //051   ----------------------------------------
 BYTE   W24
 BYTE   N18  Ds3  v127
 BYTE   W18
 BYTE   Dn3
 BYTE   W18
 BYTE   Ds3
 BYTE   W18
 BYTE   Fn3
 BYTE   W18
//  #04 //052   ----------------------------------------
 BYTE   N12  Ds3
 BYTE   W12
 BYTE   Dn3
 BYTE   W12
 BYTE   N36  Cn4
 BYTE   W36
 BYTE   Gn3
 BYTE   W36
//  #04 //053   ----------------------------------------
 BYTE   N24  As3
 BYTE   W24
 BYTE   N36  An3
 BYTE   W36
 BYTE   Fn3
 BYTE   W36
//  #04 //054   ----------------------------------------
 BYTE   N24  An3
 BYTE   W24
 BYTE   N36  Gn3
 BYTE   W36
 BYTE   As3
 BYTE   W36
//  #04 //055   ----------------------------------------
 BYTE   N24  Dn4
 BYTE   W24
 BYTE   N72  Cn4
 BYTE   W72
//  #04 //056   ----------------------------------------
 BYTE   N12  As3
 BYTE   W12
 BYTE   An3
 BYTE   W12
 BYTE   N36  As3
 BYTE   W36
 BYTE   Gn3
 BYTE   W36
//  #04 //057   ----------------------------------------
Label_0100687F:
 BYTE   N12  Gn3  v127
 BYTE   W12
 BYTE   An3
 BYTE   W12
 BYTE   N36
 BYTE   W02
 BYTE   BEND   c_v+0
 BYTE   W02
 BYTE   BEND   c_v+1
 BYTE   W01
 BYTE   BEND   c_v+2
 BYTE   W01
 BYTE   BEND   c_v+3
 BYTE   W02
 BYTE   BEND   c_v+4
 BYTE   W28
 BYTE   BEND   c_v+0
 BYTE   N36  Gn3
 BYTE   W36
 BYTE   PEND 
//  #04 //058   ----------------------------------------
Label_01006897:
 BYTE   N12  Gn3  v127
 BYTE   W12
 BYTE   As3
 BYTE   W12
 BYTE   N36  Cn4
 BYTE   W01
 BYTE   BEND   c_v+0
 BYTE   W03
 BYTE   BEND   c_v+3
 BYTE   W01
 BYTE   BEND   c_v+4
 BYTE   W01
 BYTE   BEND   c_v+6
 BYTE   W01
 BYTE   BEND   c_v+8
 BYTE   W01
 BYTE   BEND   c_v+10
 BYTE   W28
 BYTE   BEND   c_v+0
 BYTE   N48
 BYTE   W36
 BYTE   PEND 
//  #04 //059   ----------------------------------------
Label_010068B1:
 BYTE   W12
 BYTE   N12  As3  v127
 BYTE   W12
 BYTE   N36
 BYTE   W01
 BYTE   BEND   c_v+0
 BYTE   W03
 BYTE   BEND   c_v+3
 BYTE   W01
 BYTE   BEND   c_v+4
 BYTE   W01
 BYTE   BEND   c_v+6
 BYTE   W01
 BYTE   BEND   c_v+8
 BYTE   W01
 BYTE   BEND   c_v+10
 BYTE   W28
 BYTE   BEND   c_v+0
 BYTE   N36  An3
 BYTE   W36
 BYTE   PEND 
//  #04 //060   ----------------------------------------
 BYTE   N12  Gn3
 BYTE   W12
 BYTE   An3
 BYTE   W12
 BYTE   N36  As3
 BYTE   W36
 BYTE   Gn3
 BYTE   W36
//  #04 //061   ----------------------------------------
 BYTE   PATT
  POIN2 Label_0100687F
//  #04 //062   ----------------------------------------
 BYTE   PATT
  POIN2 Label_01006897
//  #04 //063   ----------------------------------------
 BYTE   PATT
  POIN2 Label_010068B1
//  #04 //064   ----------------------------------------
 BYTE   N24  As3  v127
 BYTE   W01
 BYTE   BEND   c_v+0
 BYTE   W01
 BYTE   BEND   c_v+1
 BYTE   W01
 BYTE   BEND   c_v+3
 BYTE   W01
 BYTE   BEND   c_v+8
 BYTE   W01
 BYTE   BEND   c_v+9
 BYTE   W01
 BYTE   BEND   c_v+10
 BYTE   W18
 BYTE   BEND   c_v+0
 BYTE   N72  Bn3
 BYTE   W72
//  #04 //065   ----------------------------------------
 BYTE   N12  En2
 BYTE   N12  En3
 BYTE   W12
 BYTE   Fs2
 BYTE   N12  Fs3
 BYTE   W12
 BYTE   N36  Gn2
 BYTE   N36  Gn3
 BYTE   W36
 BYTE   Fs2
 BYTE   N36  Fs3
 BYTE   W36
//  #04 //066   ----------------------------------------
 BYTE   N24  Dn2
 BYTE   N24  An3
 BYTE   W24
 BYTE   N96  Bn1
 BYTE   N96  Bn3
 BYTE   W72
//  #04 //067   ----------------------------------------
 BYTE   W24
 BYTE   N18  Bn2
 BYTE   W18
 BYTE   Cs3
 BYTE   W18
 BYTE   Dn3
 BYTE   W18
 BYTE   En3
 BYTE   W18
//  #04 //068   ----------------------------------------
 BYTE   N12  Dn3
 BYTE   W12
 BYTE   Cs3
 BYTE   W12
 BYTE   Bn1
 BYTE   N12  Bn2
 BYTE   W18
 BYTE   Bn1
 BYTE   N12  Bn2
 BYTE   W18
 BYTE   Bn1
 BYTE   N12  Bn2
 BYTE   W18
 BYTE   N18  Bn1
 BYTE   N18  Bn2
 BYTE   W18
//  #04 //069   ----------------------------------------
 BYTE   W24
 BYTE   N12  Bn1
 BYTE   N12  Bn2
 BYTE   W18
 BYTE   Bn1
 BYTE   N12  Bn2
 BYTE   W18
 BYTE   Bn1
 BYTE   N12  Bn2
 BYTE   W12
 BYTE   GoTo
  POIN2 Label_0100669C
//  #04 //070   ----------------------------------------
 BYTE   W06
 BYTE   N18  Bn1  v127
 BYTE   N18  Bn2
 BYTE   W18
 BYTE   W96
//  #04 //071   ----------------------------------------
 BYTE   W72
 BYTE   PAN   c_v+0
 BYTE   VOL   28*ItHasToBeThisWay_mvl/mxv
 BYTE   PAN   c_v+0
 BYTE   VOL   28*ItHasToBeThisWay_mvl/mxv
 BYTE   PAN   c_v+0
 BYTE   VOL   28*ItHasToBeThisWay_mvl/mxv
 BYTE   BEND   c_v+0
 BYTE   FINE

//**************** Track 5 (Midi-Chn.4) ****************//

ItHasToBeThisWay_005:
//  #05 //000   ----------------------------------------
 BYTE   KEYSH   ItHasToBeThisWay_key+0
 BYTE   VOICE   30
 BYTE   PAN   c_v+0
 BYTE   VOL   31*ItHasToBeThisWay_mvl/mxv
 BYTE   PAN   c_v+0
 BYTE   VOL   31*ItHasToBeThisWay_mvl/mxv
 BYTE   PAN   c_v+0
 BYTE   VOL   31*ItHasToBeThisWay_mvl/mxv
 BYTE   PAN   c_v+0
 BYTE   VOL   31*ItHasToBeThisWay_mvl/mxv
 BYTE   BEND   c_v+0
 BYTE   W24
 BYTE   N24  Fs2  v096
 BYTE   N24  Fs3
 BYTE   W24
 BYTE   N12  En2
 BYTE   N12  En3
 BYTE   W12
 BYTE   N36  Fs2
 BYTE   N36  Fs3
 BYTE   W36
//  #05 //001   ----------------------------------------
Label_F51313:
 BYTE   W24
 BYTE   N24  Fs2  v096
 BYTE   N24  Fs3
 BYTE   W24
 BYTE   N12  En2
 BYTE   N12  En3
 BYTE   W12
 BYTE   N36  Fs2
 BYTE   N36  Fs3
 BYTE   W36
 BYTE   PEND 
//  #05 //002   ----------------------------------------
Label_F51325:
 BYTE   W24
 BYTE   N24  Fs2  v096
 BYTE   N24  Fs3
 BYTE   W24
 BYTE   N12  Gn2
 BYTE   N12  Gn3
 BYTE   W12
 BYTE   N36  Gn2
 BYTE   N36  Gn3
 BYTE   W36
 BYTE   PEND 
//  #05 //003   ----------------------------------------
 BYTE   N12  Fs2
 BYTE   N12  Fs3
 BYTE   W12
 BYTE   Gn2
 BYTE   N12  Gn3
 BYTE   W12
 BYTE   N48  Bn2
 BYTE   N48  Bn3
 BYTE   W48
 BYTE   An2
 BYTE   N48  An3
 BYTE   W24
//  #05 //004   ----------------------------------------
 BYTE   PATT
  POIN2 Label_F51313
//  #05 //005   ----------------------------------------
 BYTE   PATT
  POIN2 Label_F51313
//  #05 //006   ----------------------------------------
 BYTE   PATT
  POIN2 Label_F51325
//  #05 //007   ----------------------------------------
 BYTE   N12  Fs2  v096
 BYTE   N12  Fs3
 BYTE   W12
 BYTE   Gn2
 BYTE   N12  Gn3
 BYTE   W12
 BYTE   N48  Bn2
 BYTE   N48  Bn3
 BYTE   W48
 BYTE   Cs3
 BYTE   N48  Cs4
 BYTE   W24
//  #05 //008   ----------------------------------------
 BYTE   W24
 BYTE   N96  Bn2
 BYTE   N96  Bn3
 BYTE   W72
//  #05 //009   ----------------------------------------
Label_F51371:
 BYTE   W24
 BYTE   N96  Gn2  v096
 BYTE   N96  Gn3
 BYTE   W72
 BYTE   PEND 
//  #05 //010   ----------------------------------------
 BYTE   W96
//  #05 //011   ----------------------------------------
 BYTE   W96
//  #05 //012   ----------------------------------------
 BYTE   W96
//  #05 //013   ----------------------------------------
 BYTE   W96
//  #05 //014   ----------------------------------------
 BYTE   W96
//  #05 //015   ----------------------------------------
 BYTE   W96
//  #05 //016   ----------------------------------------
 BYTE   W96
//  #05 //017   ----------------------------------------
 BYTE   W72
Label_F51381:
 BYTE   W24
//  #05 //018   ----------------------------------------
 BYTE   W24
 BYTE   N36  Fs2  v096
 BYTE   N36  Fs3
 BYTE   W36
 BYTE   Bn2
 BYTE   N36  Bn3
 BYTE   W36
//  #05 //019   ----------------------------------------
 BYTE   W24
 BYTE   Fs2
 BYTE   N36  Fs3
 BYTE   W36
 BYTE   An2
 BYTE   N36  An3
 BYTE   W36
//  #05 //020   ----------------------------------------
 BYTE   PATT
  POIN2 Label_F51371
//  #05 //021   ----------------------------------------
 BYTE   W24
 BYTE   N18  Fn2  v096
 BYTE   N18  Fn3
 BYTE   W18
 BYTE   En2
 BYTE   N18  En3
 BYTE   W18
 BYTE   Fn2
 BYTE   N18  Fn3
 BYTE   W18
 BYTE   Gn2
 BYTE   N18  Gn3
 BYTE   W18
//  #05 //022   ----------------------------------------
 BYTE   N12  Fn2
 BYTE   N12  Fn3
 BYTE   W12
 BYTE   En2
 BYTE   N12  En3
 BYTE   W84
//  #05 //023   ----------------------------------------
 BYTE   W96
//  #05 //024   ----------------------------------------
 BYTE   W96
//  #05 //025   ----------------------------------------
 BYTE   W96
//  #05 //026   ----------------------------------------
 BYTE   W96
//  #05 //027   ----------------------------------------
 BYTE   W96
//  #05 //028   ----------------------------------------
 BYTE   W96
//  #05 //029   ----------------------------------------
 BYTE   W96
//  #05 //030   ----------------------------------------
 BYTE   W96
//  #05 //031   ----------------------------------------
 BYTE   W96
//  #05 //032   ----------------------------------------
 BYTE   W96
//  #05 //033   ----------------------------------------
 BYTE   W96
//  #05 //034   ----------------------------------------
 BYTE   W96
//  #05 //035   ----------------------------------------
 BYTE   W96
//  #05 //036   ----------------------------------------
 BYTE   W96
//  #05 //037   ----------------------------------------
 BYTE   W96
//  #05 //038   ----------------------------------------
 BYTE   W96
//  #05 //039   ----------------------------------------
 BYTE   W96
//  #05 //040   ----------------------------------------
 BYTE   W96
//  #05 //041   ----------------------------------------
 BYTE   W96
//  #05 //042   ----------------------------------------
 BYTE   W96
//  #05 //043   ----------------------------------------
 BYTE   W96
//  #05 //044   ----------------------------------------
 BYTE   W96
//  #05 //045   ----------------------------------------
 BYTE   W96
//  #05 //046   ----------------------------------------
 BYTE   W96
//  #05 //047   ----------------------------------------
 BYTE   W96
//  #05 //048   ----------------------------------------
 BYTE   W96
//  #05 //049   ----------------------------------------
 BYTE   W96
//  #05 //050   ----------------------------------------
 BYTE   W96
//  #05 //051   ----------------------------------------
 BYTE   W96
//  #05 //052   ----------------------------------------
 BYTE   W96
//  #05 //053   ----------------------------------------
 BYTE   W96
//  #05 //054   ----------------------------------------
 BYTE   W96
//  #05 //055   ----------------------------------------
 BYTE   W96
//  #05 //056   ----------------------------------------
 BYTE   W96
//  #05 //057   ----------------------------------------
 BYTE   W96
//  #05 //058   ----------------------------------------
 BYTE   W96
//  #05 //059   ----------------------------------------
 BYTE   W96
//  #05 //060   ----------------------------------------
 BYTE   W96
//  #05 //061   ----------------------------------------
 BYTE   W96
//  #05 //062   ----------------------------------------
 BYTE   W96
//  #05 //063   ----------------------------------------
 BYTE   W96
//  #05 //064   ----------------------------------------
 BYTE   W96
//  #05 //065   ----------------------------------------
 BYTE   W96
//  #05 //066   ----------------------------------------
 BYTE   W96
//  #05 //067   ----------------------------------------
 BYTE   W96
//  #05 //068   ----------------------------------------
 BYTE   W96
//  #05 //069   ----------------------------------------
 BYTE   W72
 BYTE   GoTo
  POIN2 Label_F51381
//  #05 //070   ----------------------------------------
 BYTE   W24
 BYTE   W96
//  #05 //071   ----------------------------------------
 BYTE   W72
 BYTE   PAN   c_v+0
 BYTE   VOL   31*ItHasToBeThisWay_mvl/mxv
 BYTE   PAN   c_v+0
 BYTE   VOL   31*ItHasToBeThisWay_mvl/mxv
 BYTE   PAN   c_v+0
 BYTE   VOL   31*ItHasToBeThisWay_mvl/mxv
 BYTE   BEND   c_v+0
 BYTE   FINE

//**************** Track 6 (Midi-Chn.5) ****************//

ItHasToBeThisWay_006:
//  #06 //000   ----------------------------------------
 BYTE   KEYSH   ItHasToBeThisWay_key+0
 BYTE   VOICE   41
 BYTE   VOL   40*ItHasToBeThisWay_mvl/mxv
 BYTE   PAN   c_v+0
 BYTE   VOL   40*ItHasToBeThisWay_mvl/mxv
 BYTE   PAN   c_v+0
 BYTE   VOL   40*ItHasToBeThisWay_mvl/mxv
 BYTE   PAN   c_v+0
 BYTE   VOL   40*ItHasToBeThisWay_mvl/mxv
 BYTE   PAN   c_v+0
 BYTE   VOL   40*ItHasToBeThisWay_mvl/mxv
 BYTE   BEND   c_v+0
 BYTE   W96
//  #06 //001   ----------------------------------------
 BYTE   W96
//  #06 //002   ----------------------------------------
 BYTE   W96
//  #06 //003   ----------------------------------------
 BYTE   W96
//  #06 //004   ----------------------------------------
 BYTE   W96
//  #06 //005   ----------------------------------------
 BYTE   W96
//  #06 //006   ----------------------------------------
 BYTE   W96
//  #06 //007   ----------------------------------------
 BYTE   W96
//  #06 //008   ----------------------------------------
 BYTE   W96
//  #06 //009   ----------------------------------------
 BYTE   W96
//  #06 //010   ----------------------------------------
 BYTE   W96
//  #06 //011   ----------------------------------------
 BYTE   W96
//  #06 //012   ----------------------------------------
 BYTE   W96
//  #06 //013   ----------------------------------------
 BYTE   W96
//  #06 //014   ----------------------------------------
 BYTE   W96
//  #06 //015   ----------------------------------------
 BYTE   W96
//  #06 //016   ----------------------------------------
 BYTE   W96
//  #06 //017   ----------------------------------------
 BYTE   W72
Label_010069C6:
 BYTE   W24
//  #06 //018   ----------------------------------------
 BYTE   W96
//  #06 //019   ----------------------------------------
 BYTE   W96
//  #06 //020   ----------------------------------------
 BYTE   W96
//  #06 //021   ----------------------------------------
 BYTE   W96
//  #06 //022   ----------------------------------------
Label_010069CB:
 BYTE   W22
 BYTE   N01  Cn4  v127
 BYTE   W02
 BYTE   N24  Dn4
 BYTE   W24
 BYTE   N10  Cn4
 BYTE   W10
 BYTE   N01
 BYTE   W02
 BYTE   N48  Dn4
 BYTE   W36
 BYTE   PEND 
//  #06 //023   ----------------------------------------
Label_010069DC:
 BYTE   W12
 BYTE   N10  Fn4  v127
 BYTE   W10
 BYTE   N01
 BYTE   W02
 BYTE   N24  Gn4
 BYTE   W24
 BYTE   N10  Fn4
 BYTE   W10
 BYTE   N01
 BYTE   W02
 BYTE   N36  Gn4
 BYTE   W32
 BYTE   W02
 BYTE   N01  Fs3
 BYTE   W02
 BYTE   PEND 
//  #06 //024   ----------------------------------------
Label_010069F3:
 BYTE   N12  Gn3  v127
 BYTE   W12
 BYTE   An3
 BYTE   W12
 BYTE   N16  As3
 BYTE   W16
 BYTE   N01
 BYTE   W02
 BYTE   N16  Cn4
 BYTE   W16
 BYTE   N01
 BYTE   W02
 BYTE   N18  Dn4
 BYTE   W18
 BYTE   Cn4
 BYTE   W18
 BYTE   PEND 
//  #06 //025   ----------------------------------------
 BYTE   N12  Dn4
 BYTE   W12
 BYTE   N10  En4
 BYTE   W10
 BYTE   N01
 BYTE   W02
 BYTE   N18  Gn4
 BYTE   W18
 BYTE   Fn4
 BYTE   W18
 BYTE   Dn4
 BYTE   W18
 BYTE   N40  Cn4
 BYTE   W18
//  #06 //026   ----------------------------------------
 BYTE   PATT
  POIN2 Label_010069CB
//  #06 //027   ----------------------------------------
 BYTE   PATT
  POIN2 Label_010069DC
//  #06 //028   ----------------------------------------
 BYTE   PATT
  POIN2 Label_010069F3
//  #06 //029   ----------------------------------------
 BYTE   N12  Dn4  v127
 BYTE   W12
 BYTE   N10  En4
 BYTE   W10
 BYTE   N01
 BYTE   W02
 BYTE   N18  Gn4
 BYTE   W18
 BYTE   Fn4
 BYTE   W18
 BYTE   Dn4
 BYTE   W18
 BYTE   N30  Cn4
 BYTE   W18
//  #06 //030   ----------------------------------------
 BYTE   W12
 BYTE   N12  As4
 BYTE   W10
 BYTE   N01  Gn4
 BYTE   W02
 BYTE   N48  An4
 BYTE   W48
 BYTE   N24  Gn4
 BYTE   W24
//  #06 //031   ----------------------------------------
 BYTE   As4
 BYTE   W22
 BYTE   N01  Gn4
 BYTE   W02
 BYTE   N48  An4
 BYTE   W48
 BYTE   N36  Gn4
 BYTE   W24
//  #06 //032   ----------------------------------------
 BYTE   W12
 BYTE   N12  Dn4
 BYTE   W12
 BYTE   N01  En4
 BYTE   N18  Fn4
 BYTE   W18
 BYTE   En4
 BYTE   W18
 BYTE   Fn4
 BYTE   W18
 BYTE   N01  Fs4
 BYTE   N18  Gn4
 BYTE   W18
//  #06 //033   ----------------------------------------
 BYTE   N12  Fn4
 BYTE   W12
 BYTE   Gn4
 BYTE   W12
 BYTE   N01  Gs4
 BYTE   N18  An4
 BYTE   W18
 BYTE   N01  Bn4
 BYTE   N18  Cn5
 BYTE   W18
 BYTE   N01  Cs5
 BYTE   N60  Dn5
 BYTE   W36
//  #06 //034   ----------------------------------------
 BYTE   W96
//  #06 //035   ----------------------------------------
 BYTE   W96
//  #06 //036   ----------------------------------------
 BYTE   W96
//  #06 //037   ----------------------------------------
 BYTE   W96
//  #06 //038   ----------------------------------------
 BYTE   W96
//  #06 //039   ----------------------------------------
 BYTE   W96
//  #06 //040   ----------------------------------------
 BYTE   W96
//  #06 //041   ----------------------------------------
 BYTE   W96
//  #06 //042   ----------------------------------------
 BYTE   W96
//  #06 //043   ----------------------------------------
 BYTE   W96
//  #06 //044   ----------------------------------------
 BYTE   W12
 BYTE   N12  An3
 BYTE   W12
 BYTE   Dn4
 BYTE   W12
 BYTE   Cn4
 BYTE   W12
 BYTE   As3
 BYTE   W12
 BYTE   N48  Dn4
 BYTE   W36
//  #06 //045   ----------------------------------------
Label_01006A92:
 BYTE   W12
 BYTE   N12  As3  v127
 BYTE   W12
 BYTE   Dn4
 BYTE   W12
 BYTE   Cn4
 BYTE   W12
 BYTE   As3
 BYTE   W12
 BYTE   N48  Dn4
 BYTE   W36
 BYTE   PEND 
//  #06 //046   ----------------------------------------
 BYTE   W12
 BYTE   N12  As3
 BYTE   W12
 BYTE   Dn4
 BYTE   W12
 BYTE   Cn4
 BYTE   W12
 BYTE   As3
 BYTE   W12
 BYTE   N12
 BYTE   W24
 BYTE   Cn4
 BYTE   W12
//  #06 //047   ----------------------------------------
 BYTE   W12
 BYTE   N48  Dn4
 BYTE   W48
 BYTE   N06  Cn4
 BYTE   W06
 BYTE   N42  As3
 BYTE   W30
//  #06 //048   ----------------------------------------
 BYTE   PATT
  POIN2 Label_01006A92
//  #06 //049   ----------------------------------------
 BYTE   W12
 BYTE   N12  Fn4  v127
 BYTE   W12
 BYTE   Gn4
 BYTE   W12
 BYTE   Fn4
 BYTE   W12
 BYTE   Dn4
 BYTE   W12
 BYTE   N48  Cn4
 BYTE   W36
//  #06 //050   ----------------------------------------
 BYTE   W12
 BYTE   N12  Ds4
 BYTE   W12
 BYTE   Gn4
 BYTE   W12
 BYTE   Fn4
 BYTE   W12
 BYTE   Ds4
 BYTE   W12
 BYTE   N12
 BYTE   W24
 BYTE   Fn4
 BYTE   W12
//  #06 //051   ----------------------------------------
 BYTE   W12
 BYTE   N96  Gn4
 BYTE   W84
//  #06 //052   ----------------------------------------
 BYTE   W12
 BYTE   N12  As3
 BYTE   W12
 BYTE   Dn4
 BYTE   W12
 BYTE   Cn4
 BYTE   W12
 BYTE   As3
 BYTE   W12
 BYTE   N24  An3
 BYTE   W24
 BYTE   N12  Cn4
 BYTE   W12
//  #06 //053   ----------------------------------------
 BYTE   N12
 BYTE   W12
 BYTE   As3
 BYTE   W12
 BYTE   N24  Dn4
 BYTE   W24
 BYTE   N12  Cn4
 BYTE   W12
 BYTE   N48  Dn4
 BYTE   W36
//  #06 //054   ----------------------------------------
 BYTE   W12
 BYTE   N12  As3
 BYTE   W12
 BYTE   N12
 BYTE   W12
 BYTE   Dn4
 BYTE   W12
 BYTE   Cn4
 BYTE   W12
 BYTE   N24
 BYTE   W24
 BYTE   N12  Dn4
 BYTE   W12
//  #06 //055   ----------------------------------------
 BYTE   Ds4
 BYTE   W12
 BYTE   N12
 BYTE   W12
 BYTE   Fs4
 BYTE   W18
 BYTE   Gn4
 BYTE   W18
 BYTE   N60  As4
 BYTE   W36
//  #06 //056   ----------------------------------------
 BYTE   W24
 BYTE   N48  An4
 BYTE   W48
 BYTE   TIE  Gn4
 BYTE   W24
//  #06 //057   ----------------------------------------
 BYTE   W96
//  #06 //058   ----------------------------------------
 BYTE   W96
//  #06 //059   ----------------------------------------
 BYTE   W30
 BYTE   EOT
 BYTE   W06
 BYTE   N12  Dn4
 BYTE   W12
 BYTE   N12
 BYTE   W12
 BYTE   Ds4
 BYTE   W12
 BYTE   Fs4
 BYTE   W18
 BYTE   Gn4
 BYTE   W06
//  #06 //060   ----------------------------------------
 BYTE   W12
 BYTE   N60  As4
 BYTE   W60
 BYTE   N48  An4
 BYTE   W24
//  #06 //061   ----------------------------------------
 BYTE   W24
 BYTE   TIE  Gn4
 BYTE   W72
//  #06 //062   ----------------------------------------
 BYTE   W96
//  #06 //063   ----------------------------------------
 BYTE   W96
//  #06 //064   ----------------------------------------
 BYTE   W24
 BYTE   EOT
 BYTE   W72
//  #06 //065   ----------------------------------------
 BYTE   W96
//  #06 //066   ----------------------------------------
 BYTE   W96
//  #06 //067   ----------------------------------------
 BYTE   W96
//  #06 //068   ----------------------------------------
 BYTE   W96
//  #06 //069   ----------------------------------------
 BYTE   W72
 BYTE   GoTo
  POIN2 Label_010069C6
//  #06 //070   ----------------------------------------
 BYTE   W24
 BYTE   W96
//  #06 //071   ----------------------------------------
 BYTE   W72
 BYTE   PAN   c_v+0
 BYTE   VOL   40*ItHasToBeThisWay_mvl/mxv
 BYTE   PAN   c_v+0
 BYTE   VOL   40*ItHasToBeThisWay_mvl/mxv
 BYTE   PAN   c_v+0
 BYTE   VOL   40*ItHasToBeThisWay_mvl/mxv
 BYTE   BEND   c_v+0
 BYTE   FINE

//**************** Track 7 (Midi-Chn.6) ****************//

ItHasToBeThisWay_007:
//  #07 //000   ----------------------------------------
 BYTE   KEYSH   ItHasToBeThisWay_key+0
 BYTE   VOICE   123
 BYTE   VOL   35*ItHasToBeThisWay_mvl/mxv
 BYTE   PAN   c_v+0
 BYTE   VOL   35*ItHasToBeThisWay_mvl/mxv
 BYTE   PAN   c_v+0
 BYTE   VOL   35*ItHasToBeThisWay_mvl/mxv
 BYTE   PAN   c_v+0
 BYTE   VOL   35*ItHasToBeThisWay_mvl/mxv
 BYTE   PAN   c_v+0
 BYTE   VOL   35*ItHasToBeThisWay_mvl/mxv
 BYTE   BEND   c_v+0
 BYTE   W24
 BYTE   N60  Cn1  v127
 BYTE   N12  Fs1  v116
 BYTE   N60  Cs2  v096
 BYTE   W12
 BYTE   N12  Fs1  v116
 BYTE   W12
 BYTE   N12
 BYTE   W12
 BYTE   N12
 BYTE   W12
 BYTE   Dn1  v096
 BYTE   N12  Fs1  v116
 BYTE   W12
 BYTE   Dn1  v096
 BYTE   N12  Fs1  v116
 BYTE   N12  As1  v108
 BYTE   W12
//  #07 //001   ----------------------------------------
Label_01007A92:
 BYTE   N12  Fs1  v116
 BYTE   W12
 BYTE   N12
 BYTE   N12  As1  v108
 BYTE   W12
 BYTE   N60  Cn1  v127
 BYTE   N12  Fs1  v116
 BYTE   N60  Cs2  v096
 BYTE   W12
 BYTE   N12  Fs1  v116
 BYTE   W12
 BYTE   N12
 BYTE   W12
 BYTE   N12
 BYTE   W12
 BYTE   Dn1  v096
 BYTE   N12  Fs1  v116
 BYTE   W12
 BYTE   Dn1  v096
 BYTE   N12  Fs1  v116
 BYTE   N12  As1  v108
 BYTE   W12
 BYTE   PEND 
//  #07 //002   ----------------------------------------
 BYTE   PATT
  POIN2 Label_01007A92
//  #07 //003   ----------------------------------------
 BYTE   N12  Fs1  v116
 BYTE   W12
 BYTE   N12
 BYTE   N12  As1  v108
 BYTE   W12
 BYTE   N48  Cn1  v127
 BYTE   N12  Fs1  v116
 BYTE   N48  Cs2  v096
 BYTE   W12
 BYTE   N12  Fs1  v116
 BYTE   W12
 BYTE   N12
 BYTE   W12
 BYTE   N12
 BYTE   W12
 BYTE   N48  Cn1  v127
 BYTE   N12  Dn1  v096
 BYTE   N12  Fs1  v116
 BYTE   N48  Cs2  v096
 BYTE   W12
 BYTE   N12  Dn1
 BYTE   N12  Fs1  v116
 BYTE   N12  As1  v108
 BYTE   W12
//  #07 //004   ----------------------------------------
Label_01007AF3:
 BYTE   N12  Fs1  v116
 BYTE   W12
 BYTE   N12
 BYTE   N12  As1  v108
 BYTE   W12
 BYTE   N48  Cn1  v127
 BYTE   N12  Fs1  v116
 BYTE   N60  Cs2  v096
 BYTE   W12
 BYTE   N12  Fs1  v116
 BYTE   W12
 BYTE   N12
 BYTE   W12
 BYTE   N12
 BYTE   W12
 BYTE   N48  Cn1  v127
 BYTE   N12  Dn1  v096
 BYTE   N12  Fs1  v116
 BYTE   W12
 BYTE   Dn1  v096
 BYTE   N12  Fs1  v116
 BYTE   N12  As1  v108
 BYTE   W12
 BYTE   PEND 
//  #07 //005   ----------------------------------------
 BYTE   PATT
  POIN2 Label_01007AF3
//  #07 //006   ----------------------------------------
 BYTE   N12  Fs1  v116
 BYTE   W12
 BYTE   N12
 BYTE   N12  As1  v108
 BYTE   W12
 BYTE   N24  Cn1  v127
 BYTE   N12  Fs1  v116
 BYTE   N60  Cs2  v096
 BYTE   W12
 BYTE   N12  Dn1
 BYTE   N12  Fs1  v116
 BYTE   W12
 BYTE   N24  Cn1  v127
 BYTE   N12  Fs1  v116
 BYTE   W12
 BYTE   Dn1  v096
 BYTE   N12  Fs1  v116
 BYTE   W12
 BYTE   N24  Cn1  v127
 BYTE   N12  Fs1  v116
 BYTE   W12
 BYTE   Dn1  v096
 BYTE   N12  Fs1  v116
 BYTE   N12  As1  v108
 BYTE   W12
//  #07 //007   ----------------------------------------
 BYTE   N24  Cn1  v127
 BYTE   N12  Fs1  v116
 BYTE   W12
 BYTE   Dn1  v096
 BYTE   N12  Fs1  v116
 BYTE   N12  As1  v108
 BYTE   W12
 BYTE   N24  Cn1  v127
 BYTE   N12  Fs1  v116
 BYTE   N60  Cs2  v096
 BYTE   W12
 BYTE   N12  Dn1
 BYTE   N12  Fs1  v116
 BYTE   W12
 BYTE   N24  Cn1  v127
 BYTE   N12  Fs1  v116
 BYTE   W12
 BYTE   Dn1  v096
 BYTE   N12  Fs1  v116
 BYTE   W12
 BYTE   N24  Cn1  v127
 BYTE   N12  Fs1  v116
 BYTE   W12
 BYTE   Dn1  v096
 BYTE   N12  Fs1  v116
 BYTE   N12  As1  v108
 BYTE   W12
//  #07 //008   ----------------------------------------
 BYTE   N24  Cn1  v127
 BYTE   N12  Fs1  v116
 BYTE   W12
 BYTE   Dn1  v096
 BYTE   N12  Fs1  v116
 BYTE   N12  As1  v108
 BYTE   W12
 BYTE   N24  Cn1  v127
 BYTE   N12  Dn1  v096
 BYTE   N06  Fs1  v116
 BYTE   N48  Cs2  v096
 BYTE   W06
 BYTE   N06  Fs1  v116
 BYTE   W06
 BYTE   N12  Dn1  v096
 BYTE   N06  Fs1  v116
 BYTE   N12  As1  v108
 BYTE   W06
 BYTE   N06  Fs1  v116
 BYTE   W06
 BYTE   N24  Cn1  v127
 BYTE   N12  Dn1  v096
 BYTE   N06  Fs1  v116
 BYTE   W06
 BYTE   N06
 BYTE   W06
 BYTE   N12  Dn1  v096
 BYTE   N06  Fs1  v116
 BYTE   N12  Gs1
 BYTE   W06
 BYTE   N06  Fs1
 BYTE   W06
 BYTE   N24  Cn1  v127
 BYTE   N12  Dn1  v096
 BYTE   N06  Fs1  v116
 BYTE   N48  Cs2  v096
 BYTE   W06
 BYTE   N06  Fs1  v116
 BYTE   W06
 BYTE   N12  Dn1  v096
 BYTE   N06  Fs1  v116
 BYTE   N12  As1  v108
 BYTE   W06
 BYTE   N06  Fs1  v116
 BYTE   W06
//  #07 //009   ----------------------------------------
 BYTE   N24  Cn1  v127
 BYTE   N12  Dn1  v096
 BYTE   N06  Fs1  v116
 BYTE   W06
 BYTE   N06
 BYTE   W06
 BYTE   N12  Dn1  v096
 BYTE   N06  Fs1  v116
 BYTE   N12  Gs1
 BYTE   W06
 BYTE   N06  Fs1
 BYTE   W06
 BYTE   N24  Cn1  v127
 BYTE   N12  Dn1  v096
 BYTE   N06  Fs1  v116
 BYTE   N48  Cs2  v096
 BYTE   W06
 BYTE   N06  Fs1  v116
 BYTE   W06
 BYTE   N12  Dn1  v096
 BYTE   N06  Fs1  v116
 BYTE   N12  As1  v108
 BYTE   W06
 BYTE   N06  Fs1  v116
 BYTE   W06
 BYTE   N24  Cn1  v127
 BYTE   N12  Dn1  v096
 BYTE   N06  Fs1  v116
 BYTE   W06
 BYTE   N06
 BYTE   W06
 BYTE   N12  Dn1  v096
 BYTE   N06  Fs1  v116
 BYTE   N12  Gs1
 BYTE   W06
 BYTE   N06  Fs1
 BYTE   W06
 BYTE   N24  Cn1  v127
 BYTE   N06  Dn1  v096
 BYTE   N06  Fs1  v116
 BYTE   N48  Cs2  v096
 BYTE   W06
 BYTE   N06  Dn1
 BYTE   N06  Fs1  v116
 BYTE   W06
 BYTE   Dn1  v096
 BYTE   N06  Fs1  v116
 BYTE   W06
 BYTE   Dn1  v096
 BYTE   N06  Fs1  v116
 BYTE   W06
//  #07 //010   ----------------------------------------
 BYTE   N24  Cn1  v127
 BYTE   N06  Dn1  v096
 BYTE   N06  Fs1  v116
 BYTE   W06
 BYTE   Dn1  v096
 BYTE   N06  Fs1  v116
 BYTE   W06
 BYTE   N03  Dn1  v096
 BYTE   N06  Fs1  v116
 BYTE   W03
 BYTE   N03  Dn1  v096
 BYTE   W03
 BYTE   N03
 BYTE   N06  Fs1  v116
 BYTE   W03
 BYTE   N03  Dn1  v096
 BYTE   W03
 BYTE   N06  Cn1  v127
 BYTE   W06
 BYTE   N06
 BYTE   W06
 BYTE   N06
 BYTE   N12  Dn1  v096
 BYTE   N06  Cn2  v127
 BYTE   W03
 BYTE   Bn1
 BYTE   W03
 BYTE   Cn1
 BYTE   N06  An1
 BYTE   W03
 BYTE   Fn1
 BYTE   W03
 BYTE   Cn1
 BYTE   N06  Cn2
 BYTE   W03
 BYTE   Bn1
 BYTE   W03
 BYTE   Cn1
 BYTE   N06  An1
 BYTE   W03
 BYTE   Fn1
 BYTE   W03
 BYTE   Cn1
 BYTE   N12  Dn1  v096
 BYTE   N06  Cn2  v127
 BYTE   W03
 BYTE   Bn1
 BYTE   W03
 BYTE   Cn1
 BYTE   N06  An1
 BYTE   W03
 BYTE   Fn1
 BYTE   W03
 BYTE   Cn1
 BYTE   N06  Cn2
 BYTE   W03
 BYTE   Bn1
 BYTE   W03
 BYTE   Cn1
 BYTE   N06  An1
 BYTE   W03
 BYTE   Fn1
 BYTE   W03
 BYTE   Cn1
 BYTE   N12  Dn1  v096
 BYTE   N06  Cn2  v127
 BYTE   W03
 BYTE   Bn1
 BYTE   W03
 BYTE   Cn1
 BYTE   N06  An1
 BYTE   W03
 BYTE   Fn1
 BYTE   W03
//  #07 //011   ----------------------------------------
Label_01007CE0:
 BYTE   N12  Cn1  v127
 BYTE   N06  Dn1  v096
 BYTE   N06  Fs1  v116
 BYTE   N06  Cn2  v127
 BYTE   N12  Cs2  v096
 BYTE   W03
 BYTE   N06  Bn1  v127
 BYTE   W03
 BYTE   Dn1  v096
 BYTE   N06  Fs1  v116
 BYTE   N06  An1  v127
 BYTE   W03
 BYTE   Fn1
 BYTE   W03
 BYTE   N12  Cn1
 BYTE   N12  Dn1  v096
 BYTE   N06  Fs1  v116
 BYTE   N12  Cs2  v096
 BYTE   W06
 BYTE   N06  Fs1  v116
 BYTE   W06
 BYTE   Cn1  v127
 BYTE   W06
 BYTE   N06
 BYTE   W06
 BYTE   N06
 BYTE   N12  Dn1  v096
 BYTE   N06  Cn2  v127
 BYTE   W03
 BYTE   Bn1
 BYTE   W03
 BYTE   Cn1
 BYTE   N06  An1
 BYTE   W03
 BYTE   Fn1
 BYTE   W03
 BYTE   Cn1
 BYTE   N06  Cn2
 BYTE   W03
 BYTE   Bn1
 BYTE   W03
 BYTE   Cn1
 BYTE   N06  An1
 BYTE   W03
 BYTE   Fn1
 BYTE   W03
 BYTE   Cn1
 BYTE   N12  Dn1  v096
 BYTE   N06  Cn2  v127
 BYTE   W03
 BYTE   Bn1
 BYTE   W03
 BYTE   Cn1
 BYTE   N06  An1
 BYTE   W03
 BYTE   Fn1
 BYTE   W03
 BYTE   Cn1
 BYTE   N06  Cn2
 BYTE   W03
 BYTE   Bn1
 BYTE   W03
 BYTE   Cn1
 BYTE   N06  An1
 BYTE   W03
 BYTE   Fn1
 BYTE   W03
 BYTE   Cn1
 BYTE   N12  Dn1  v096
 BYTE   N06  Cn2  v127
 BYTE   W03
 BYTE   Bn1
 BYTE   W03
 BYTE   Cn1
 BYTE   N06  An1
 BYTE   W03
 BYTE   Fn1
 BYTE   W03
 BYTE   PEND 
//  #07 //012   ----------------------------------------
 BYTE   N12  Cn1
 BYTE   N12  Dn1  v096
 BYTE   N06  Gs1  v116
 BYTE   N06  Cn2  v127
 BYTE   N12  Cs2  v096
 BYTE   W03
 BYTE   N06  Bn1  v127
 BYTE   W03
 BYTE   An1
 BYTE   N06  As1  v108
 BYTE   W03
 BYTE   Fn1  v127
 BYTE   W03
 BYTE   N12  Cn1
 BYTE   N06  Dn1  v096
 BYTE   N06  Gs1  v116
 BYTE   N12  Cs2  v096
 BYTE   W06
 BYTE   N06  Dn1
 BYTE   N06  As1  v108
 BYTE   W06
 BYTE   Cn1  v127
 BYTE   W06
 BYTE   N06
 BYTE   W06
 BYTE   N06
 BYTE   N12  Dn1  v096
 BYTE   N06  Cn2  v127
 BYTE   W03
 BYTE   Bn1
 BYTE   W03
 BYTE   Cn1
 BYTE   N06  An1
 BYTE   W03
 BYTE   Fn1
 BYTE   W03
 BYTE   Cn1
 BYTE   N06  Cn2
 BYTE   W03
 BYTE   Bn1
 BYTE   W03
 BYTE   Cn1
 BYTE   N06  An1
 BYTE   W03
 BYTE   Fn1
 BYTE   W03
 BYTE   Cn1
 BYTE   N12  Dn1  v096
 BYTE   N06  Cn2  v127
 BYTE   W03
 BYTE   Bn1
 BYTE   W03
 BYTE   Cn1
 BYTE   N06  An1
 BYTE   W03
 BYTE   Fn1
 BYTE   W03
 BYTE   Cn1
 BYTE   N06  Cn2
 BYTE   W03
 BYTE   Bn1
 BYTE   W03
 BYTE   Cn1
 BYTE   N06  An1
 BYTE   W03
 BYTE   Fn1
 BYTE   W03
 BYTE   Cn1
 BYTE   N12  Dn1  v096
 BYTE   N06  Cn2  v127
 BYTE   W03
 BYTE   Bn1
 BYTE   W03
 BYTE   Cn1
 BYTE   N06  An1
 BYTE   W03
 BYTE   Fn1
 BYTE   W03
//  #07 //013   ----------------------------------------
 BYTE   PATT
  POIN2 Label_01007CE0
//  #07 //014   ----------------------------------------
Label_01007DDC:
 BYTE   N12  Cn1  v127
 BYTE   N12  Dn1  v096
 BYTE   N06  Gs1  v116
 BYTE   N06  Cn2  v127
 BYTE   N12  Cs2  v096
 BYTE   W03
 BYTE   N06  Bn1  v127
 BYTE   W03
 BYTE   An1
 BYTE   N06  As1  v108
 BYTE   W03
 BYTE   Fn1  v127
 BYTE   W03
 BYTE   N12  Cn1
 BYTE   N06  Dn1  v096
 BYTE   N06  Gs1  v116
 BYTE   N12  Cs2  v096
 BYTE   W06
 BYTE   N06  Dn1
 BYTE   N06  As1  v108
 BYTE   W06
 BYTE   Cn1  v127
 BYTE   W06
 BYTE   N06
 BYTE   W06
 BYTE   N06
 BYTE   N12  Dn1  v096
 BYTE   N06  Cn2  v127
 BYTE   W03
 BYTE   Bn1
 BYTE   W03
 BYTE   Cn1
 BYTE   N06  An1
 BYTE   W03
 BYTE   Fn1
 BYTE   W03
 BYTE   Cn1
 BYTE   W06
 BYTE   N06
 BYTE   W06
 BYTE   N06
 BYTE   N12  Dn1  v096
 BYTE   N06  Cn2  v127
 BYTE   W03
 BYTE   Bn1
 BYTE   W03
 BYTE   Cn1
 BYTE   N06  An1
 BYTE   W03
 BYTE   Fn1
 BYTE   W03
 BYTE   Cn1
 BYTE   W06
 BYTE   N06
 BYTE   W06
 BYTE   N06
 BYTE   N12  Dn1  v096
 BYTE   N06  Cn2  v127
 BYTE   W03
 BYTE   Bn1
 BYTE   W03
 BYTE   Cn1
 BYTE   N06  An1
 BYTE   W03
 BYTE   Fn1
 BYTE   W03
 BYTE   PEND 
//  #07 //015   ----------------------------------------
Label_01007E48:
 BYTE   N12  Cn1  v127
 BYTE   N06  Dn1  v096
 BYTE   N06  Fs1  v116
 BYTE   N12  Cs2  v096
 BYTE   W06
 BYTE   N06  Dn1
 BYTE   N06  Fs1  v116
 BYTE   W06
 BYTE   N12  Cn1  v127
 BYTE   N12  Dn1  v096
 BYTE   N06  Fs1  v116
 BYTE   N12  Cs2  v096
 BYTE   W06
 BYTE   N06  Fs1  v116
 BYTE   W06
 BYTE   Cn1  v127
 BYTE   W06
 BYTE   N06
 BYTE   W06
 BYTE   N06
 BYTE   N12  Dn1  v096
 BYTE   N06  Fn1  v127
 BYTE   W03
 BYTE   An1
 BYTE   W03
 BYTE   Cn1
 BYTE   N06  Bn1
 BYTE   W03
 BYTE   Cn2
 BYTE   W03
 BYTE   Cn1
 BYTE   W06
 BYTE   N06
 BYTE   W06
 BYTE   N06
 BYTE   N12  Dn1  v096
 BYTE   N06  Fn1  v127
 BYTE   W03
 BYTE   An1
 BYTE   W03
 BYTE   Cn1
 BYTE   N06  Bn1
 BYTE   W03
 BYTE   Cn2
 BYTE   W03
 BYTE   Cn1
 BYTE   W06
 BYTE   N06
 BYTE   W06
 BYTE   N06
 BYTE   N12  Dn1  v096
 BYTE   N06  Fn1  v127
 BYTE   W03
 BYTE   An1
 BYTE   W03
 BYTE   Cn1
 BYTE   N06  Bn1
 BYTE   W03
 BYTE   Cn2
 BYTE   W03
 BYTE   PEND 
//  #07 //016   ----------------------------------------
Label_01007EAA:
 BYTE   N12  Cn1  v127
 BYTE   N12  Dn1  v096
 BYTE   N06  Gs1  v116
 BYTE   N12  Cs2  v096
 BYTE   W06
 BYTE   N06  As1  v108
 BYTE   W06
 BYTE   N12  Cn1  v127
 BYTE   N06  Dn1  v096
 BYTE   N06  Gs1  v116
 BYTE   N12  Cs2  v096
 BYTE   W06
 BYTE   N06  Dn1
 BYTE   N06  As1  v108
 BYTE   W06
 BYTE   Cn1  v127
 BYTE   W06
 BYTE   N06
 BYTE   W06
 BYTE   N06
 BYTE   N12  Dn1  v096
 BYTE   N06  Cn2  v127
 BYTE   W03
 BYTE   Bn1
 BYTE   W03
 BYTE   Cn1
 BYTE   N06  An1
 BYTE   W03
 BYTE   Fn1
 BYTE   W03
 BYTE   Cn1
 BYTE   W06
 BYTE   N06
 BYTE   W06
 BYTE   N06
 BYTE   N12  Dn1  v096
 BYTE   N06  Cn2  v127
 BYTE   W03
 BYTE   Bn1
 BYTE   W03
 BYTE   Cn1
 BYTE   N06  An1
 BYTE   W03
 BYTE   Fn1
 BYTE   W03
 BYTE   Cn1
 BYTE   W06
 BYTE   N06
 BYTE   W06
 BYTE   N06
 BYTE   N12  Dn1  v096
 BYTE   N06  Cn2  v127
 BYTE   W03
 BYTE   Bn1
 BYTE   W03
 BYTE   Cn1
 BYTE   N06  An1
 BYTE   W03
 BYTE   Fn1
 BYTE   W03
 BYTE   PEND 
//  #07 //017   ----------------------------------------
 BYTE   N12  Cn1
 BYTE   N06  Dn1  v096
 BYTE   N06  Fs1  v116
 BYTE   N12  Cs2  v096
 BYTE   W06
 BYTE   N06  Dn1
 BYTE   N06  Fs1  v116
 BYTE   W06
 BYTE   N12  Cn1  v127
 BYTE   N12  Dn1  v096
 BYTE   N06  Fs1  v116
 BYTE   N12  Cs2  v096
 BYTE   W06
 BYTE   N06  Fs1  v116
 BYTE   W06
 BYTE   Cn1  v127
 BYTE   W06
 BYTE   N06
 BYTE   W06
 BYTE   N06
 BYTE   N12  Dn1  v096
 BYTE   N06  Fn1  v127
 BYTE   W03
 BYTE   An1
 BYTE   W03
 BYTE   Cn1
 BYTE   N06  Bn1
 BYTE   W03
 BYTE   Cn2
 BYTE   W03
 BYTE   Cn1
 BYTE   W06
 BYTE   N06
 BYTE   W06
 BYTE   N06
 BYTE   N12  Dn1  v096
 BYTE   N06  Fn1  v127
 BYTE   W03
 BYTE   An1
 BYTE   W03
 BYTE   Cn1
 BYTE   N06  Bn1
 BYTE   W03
 BYTE   Cn2
 BYTE   W03
Label_01007F58:
 BYTE   N06  Cn1  v127
 BYTE   W06
 BYTE   N06
 BYTE   W06
 BYTE   N06
 BYTE   N12  Dn1  v096
 BYTE   N06  Fn1  v127
 BYTE   W03
 BYTE   An1
 BYTE   W03
 BYTE   Cn1
 BYTE   N06  Bn1
 BYTE   W03
 BYTE   Cn2
 BYTE   W03
//  #07 //018   ----------------------------------------
 BYTE   N12  Cn1
 BYTE   N12  Dn1  v096
 BYTE   N06  Gs1  v116
 BYTE   N12  Cs2  v096
 BYTE   W06
 BYTE   N06  As1  v108
 BYTE   W06
 BYTE   N12  Cn1  v127
 BYTE   N06  Dn1  v096
 BYTE   N06  Gs1  v116
 BYTE   N12  Cs2  v096
 BYTE   W06
 BYTE   N06  Dn1
 BYTE   N06  As1  v108
 BYTE   W06
 BYTE   Cn1  v127
 BYTE   N12  Cs2  v096
 BYTE   W06
 BYTE   N06  Cn1  v127
 BYTE   W06
 BYTE   N06
 BYTE   N12  Dn1  v096
 BYTE   N06  Cn2  v127
 BYTE   W03
 BYTE   Bn1
 BYTE   W03
 BYTE   Cn1
 BYTE   N06  An1
 BYTE   W03
 BYTE   Fn1
 BYTE   W03
 BYTE   Cn1
 BYTE   W06
 BYTE   N06
 BYTE   W06
 BYTE   N06
 BYTE   N12  Dn1  v096
 BYTE   N06  Cn2  v127
 BYTE   W03
 BYTE   Bn1
 BYTE   W03
 BYTE   Cn1
 BYTE   N06  An1
 BYTE   W03
 BYTE   Fn1
 BYTE   W03
 BYTE   Cn1
 BYTE   W06
 BYTE   N06
 BYTE   W06
 BYTE   N06
 BYTE   N12  Dn1  v096
 BYTE   N06  Cn2  v127
 BYTE   W03
 BYTE   Bn1
 BYTE   W03
 BYTE   Cn1
 BYTE   N06  An1
 BYTE   W03
 BYTE   Fn1
 BYTE   W03
//  #07 //019   ----------------------------------------
 BYTE   PATT
  POIN2 Label_01007E48
//  #07 //020   ----------------------------------------
 BYTE   PATT
  POIN2 Label_01007EAA
//  #07 //021   ----------------------------------------
 BYTE   PATT
  POIN2 Label_01007E48
//  #07 //022   ----------------------------------------
 BYTE   N12  Cn1  v127
 BYTE   N12  Dn1  v096
 BYTE   N06  Gs1  v116
 BYTE   N12  Cs2  v096
 BYTE   W06
 BYTE   N06  As1  v108
 BYTE   W06
 BYTE   N12  Cn1  v127
 BYTE   N06  Dn1  v096
 BYTE   N06  Gs1  v116
 BYTE   N12  Cs2  v096
 BYTE   W06
 BYTE   N06  Dn1
 BYTE   N06  As1  v108
 BYTE   W06
 BYTE   N12  Cn1  v127
 BYTE   N06  Fs1  v116
 BYTE   W06
 BYTE   N06
 BYTE   W06
 BYTE   N12  Cn1  v127
 BYTE   N12  Dn1  v096
 BYTE   N06  Gs1  v116
 BYTE   N06  Bn1  v127
 BYTE   W06
 BYTE   Fs1  v116
 BYTE   W06
 BYTE   N12  Cn1  v127
 BYTE   N06  Fs1  v116
 BYTE   W06
 BYTE   N06
 BYTE   W06
 BYTE   N12  Cn1  v127
 BYTE   N06  Dn1  v096
 BYTE   N06  Fn1  v127
 BYTE   N06  As1  v108
 BYTE   W06
 BYTE   Dn1  v096
 BYTE   N06  Gs1  v116
 BYTE   W06
 BYTE   N12  Cn1  v127
 BYTE   N06  Fs1  v116
 BYTE   W06
 BYTE   N06
 BYTE   W06
 BYTE   N12  Cn1  v127
 BYTE   N12  Dn1  v096
 BYTE   N06  As1  v108
 BYTE   N06  Bn1  v127
 BYTE   W06
 BYTE   Fs1  v116
 BYTE   W06
//  #07 //023   ----------------------------------------
Label_01008054:
 BYTE   N12  Cn1  v127
 BYTE   N06  Fs1  v116
 BYTE   W06
 BYTE   N06
 BYTE   W06
 BYTE   N12  Cn1  v127
 BYTE   N06  Dn1  v096
 BYTE   N06  Gs1  v116
 BYTE   N06  Cn2  v127
 BYTE   W06
 BYTE   Dn1  v096
 BYTE   N06  As1  v108
 BYTE   W06
 BYTE   N12  Cn1  v127
 BYTE   N06  Fs1  v116
 BYTE   W06
 BYTE   N06
 BYTE   W06
 BYTE   N12  Cn1  v127
 BYTE   N12  Dn1  v096
 BYTE   N06  Gs1  v116
 BYTE   N06  Bn1  v127
 BYTE   W06
 BYTE   Fs1  v116
 BYTE   W06
 BYTE   N12  Cn1  v127
 BYTE   N06  Fs1  v116
 BYTE   W06
 BYTE   N06
 BYTE   W06
 BYTE   N12  Cn1  v127
 BYTE   N06  Dn1  v096
 BYTE   N06  Fn1  v127
 BYTE   N06  As1  v108
 BYTE   W06
 BYTE   Dn1  v096
 BYTE   N06  Gs1  v116
 BYTE   W06
 BYTE   N12  Cn1  v127
 BYTE   N06  Fs1  v116
 BYTE   W06
 BYTE   N06
 BYTE   W06
 BYTE   N12  Cn1  v127
 BYTE   N12  Dn1  v096
 BYTE   N06  As1  v108
 BYTE   N06  Bn1  v127
 BYTE   W06
 BYTE   Fs1  v116
 BYTE   W06
 BYTE   PEND 
//  #07 //024   ----------------------------------------
 BYTE   PATT
  POIN2 Label_01008054
//  #07 //025   ----------------------------------------
Label_010080C4:
 BYTE   N12  Cn1  v127
 BYTE   N06  Fs1  v116
 BYTE   W06
 BYTE   N06
 BYTE   W06
 BYTE   N12  Cn1  v127
 BYTE   N06  Dn1  v096
 BYTE   N06  Gs1  v116
 BYTE   N06  Cn2  v127
 BYTE   W06
 BYTE   Dn1  v096
 BYTE   N06  As1  v108
 BYTE   W06
 BYTE   Cn1  v127
 BYTE   N06  Dn1  v096
 BYTE   N06  Fs1  v116
 BYTE   W06
 BYTE   Cn1  v127
 BYTE   N06  As1  v108
 BYTE   W06
 BYTE   Cn1  v127
 BYTE   N06  Fs1  v116
 BYTE   W06
 BYTE   Cn1  v127
 BYTE   N06  Dn1  v096
 BYTE   N06  Gs1  v116
 BYTE   W06
 BYTE   N18  Cn1  v127
 BYTE   N06  Fs1  v116
 BYTE   W06
 BYTE   As1  v108
 BYTE   W06
 BYTE   Dn1  v096
 BYTE   N06  Fs1  v116
 BYTE   W06
 BYTE   Cn1  v127
 BYTE   N06  Gs1  v116
 BYTE   W06
 BYTE   Cn1  v127
 BYTE   N06  Fs1  v116
 BYTE   W06
 BYTE   Dn1  v096
 BYTE   N06  As1  v108
 BYTE   W06
 BYTE   Cn1  v127
 BYTE   N06  Fs1  v116
 BYTE   W06
 BYTE   Cn1  v127
 BYTE   N06  Gs1  v116
 BYTE   W06
 BYTE   PEND 
//  #07 //026   ----------------------------------------
 BYTE   Cn1  v127
 BYTE   N06  Fs1  v116
 BYTE   W06
 BYTE   N03  Dn1  v072
 BYTE   N06  As1  v108
 BYTE   W03
 BYTE   N03  Dn1  v076
 BYTE   W03
 BYTE   Dn1  v084
 BYTE   N06  Fs1  v116
 BYTE   W03
 BYTE   N03  Dn1  v088
 BYTE   W03
 BYTE   N06  Dn1  v096
 BYTE   N06  Gs1  v116
 BYTE   W06
 BYTE   N12  Cn1  v127
 BYTE   N06  Fs1  v116
 BYTE   W06
 BYTE   N06
 BYTE   W06
 BYTE   N12  Cn1  v127
 BYTE   N12  Dn1  v096
 BYTE   N06  Gs1  v116
 BYTE   N06  Bn1  v127
 BYTE   W06
 BYTE   Fs1  v116
 BYTE   W06
 BYTE   N12  Cn1  v127
 BYTE   N06  Fs1  v116
 BYTE   W06
 BYTE   N06
 BYTE   W06
 BYTE   N12  Cn1  v127
 BYTE   N06  Dn1  v096
 BYTE   N06  Fn1  v127
 BYTE   N06  As1  v108
 BYTE   W06
 BYTE   Dn1  v096
 BYTE   N06  Gs1  v116
 BYTE   W06
 BYTE   N12  Cn1  v127
 BYTE   N06  Fs1  v116
 BYTE   W06
 BYTE   N06
 BYTE   W06
 BYTE   N12  Cn1  v127
 BYTE   N12  Dn1  v096
 BYTE   N06  As1  v108
 BYTE   N06  Bn1  v127
 BYTE   W06
 BYTE   Fs1  v116
 BYTE   W06
//  #07 //027   ----------------------------------------
 BYTE   PATT
  POIN2 Label_01008054
//  #07 //028   ----------------------------------------
 BYTE   PATT
  POIN2 Label_01008054
//  #07 //029   ----------------------------------------
 BYTE   PATT
  POIN2 Label_010080C4
//  #07 //030   ----------------------------------------
 BYTE   N06  Cn1  v127
 BYTE   N06  Fs1  v116
 BYTE   W06
 BYTE   N03  Dn1  v072
 BYTE   N06  As1  v108
 BYTE   W03
 BYTE   N03  Dn1  v076
 BYTE   W03
 BYTE   Dn1  v084
 BYTE   N06  Fs1  v116
 BYTE   W03
 BYTE   N03  Dn1  v088
 BYTE   W03
 BYTE   N06  Dn1  v096
 BYTE   N06  Gs1  v116
 BYTE   W06
 BYTE   N12  Cn1  v127
 BYTE   W06
 BYTE   N06  Fs1  v116
 BYTE   W06
 BYTE   N12  Dn1  v096
 BYTE   N06  Bn1  v127
 BYTE   W06
 BYTE   Fs1  v116
 BYTE   N06  An1  v127
 BYTE   W06
 BYTE   Cn1
 BYTE   N06  An1
 BYTE   W06
 BYTE   Cn1
 BYTE   N06  Fn1
 BYTE   N06  Fs1  v116
 BYTE   W06
 BYTE   N12  Dn1  v096
 BYTE   N06  Fn1  v127
 BYTE   W06
 BYTE   N06
 BYTE   N06  Fs1  v116
 BYTE   W06
 BYTE   N12  Cn1  v127
 BYTE   N06  An1
 BYTE   W06
 BYTE   Fs1  v116
 BYTE   N06  An1  v127
 BYTE   W06
 BYTE   N12  Dn1  v096
 BYTE   N06  Bn1  v127
 BYTE   W06
 BYTE   Cn1
 BYTE   N06  Fs1  v116
 BYTE   N06  An1  v127
 BYTE   W06
//  #07 //031   ----------------------------------------
Label_01008216:
 BYTE   N06  An1  v127
 BYTE   W06
 BYTE   Cn1
 BYTE   N06  Fn1
 BYTE   N06  Fs1  v116
 BYTE   W06
 BYTE   N12  Dn1  v096
 BYTE   N06  Fn1  v127
 BYTE   W06
 BYTE   N06
 BYTE   N06  Fs1  v116
 BYTE   W06
 BYTE   N12  Cn1  v127
 BYTE   N06  An1
 BYTE   W06
 BYTE   Fs1  v116
 BYTE   N06  An1  v127
 BYTE   W06
 BYTE   N12  Dn1  v096
 BYTE   N06  Bn1  v127
 BYTE   W06
 BYTE   Fs1  v116
 BYTE   N06  An1  v127
 BYTE   W06
 BYTE   Cn1
 BYTE   N06  An1
 BYTE   W06
 BYTE   Cn1
 BYTE   N06  Fn1
 BYTE   N06  Fs1  v116
 BYTE   W06
 BYTE   N12  Dn1  v096
 BYTE   N06  Fn1  v127
 BYTE   W06
 BYTE   N06
 BYTE   N06  Fs1  v116
 BYTE   W06
 BYTE   N12  Cn1  v127
 BYTE   N06  An1
 BYTE   W06
 BYTE   Fs1  v116
 BYTE   N06  An1  v127
 BYTE   W06
 BYTE   N12  Dn1  v096
 BYTE   N06  Bn1  v127
 BYTE   W06
 BYTE   Cn1
 BYTE   N06  Fs1  v116
 BYTE   N06  An1  v127
 BYTE   W06
 BYTE   PEND 
//  #07 //032   ----------------------------------------
 BYTE   PATT
  POIN2 Label_01008216
//  #07 //033   ----------------------------------------
 BYTE   N06  An1  v127
 BYTE   W06
 BYTE   Cn1
 BYTE   N06  Fn1
 BYTE   N06  Fs1  v116
 BYTE   W06
 BYTE   N12  Dn1  v096
 BYTE   N06  Fn1  v127
 BYTE   W06
 BYTE   N06
 BYTE   N06  Fs1  v116
 BYTE   W06
 BYTE   Cn1  v127
 BYTE   N06  Dn1  v096
 BYTE   N06  Fs1  v116
 BYTE   N06  An1  v127
 BYTE   W06
 BYTE   Cn1
 BYTE   N06  An1
 BYTE   N06  As1  v108
 BYTE   W06
 BYTE   Cn1  v127
 BYTE   N06  Fs1  v116
 BYTE   W06
 BYTE   Cn1  v127
 BYTE   N06  Dn1  v096
 BYTE   N06  Gs1  v116
 BYTE   W06
 BYTE   N18  Cn1  v127
 BYTE   N06  Fs1  v116
 BYTE   W06
 BYTE   As1  v108
 BYTE   W06
 BYTE   Dn1  v096
 BYTE   N06  Fs1  v116
 BYTE   W06
 BYTE   Cn1  v127
 BYTE   N06  Gs1  v116
 BYTE   W06
 BYTE   Cn1  v127
 BYTE   N06  Fs1  v116
 BYTE   W06
 BYTE   Dn1  v096
 BYTE   N06  As1  v108
 BYTE   W06
 BYTE   Cn1  v127
 BYTE   N06  Fs1  v116
 BYTE   W06
 BYTE   Cn1  v127
 BYTE   N06  Gs1  v116
 BYTE   W06
//  #07 //034   ----------------------------------------
 BYTE   Cn1  v127
 BYTE   N06  Fs1  v116
 BYTE   W06
 BYTE   N03  Dn1  v072
 BYTE   N06  As1  v108
 BYTE   W03
 BYTE   N03  Dn1  v076
 BYTE   W03
 BYTE   Dn1  v084
 BYTE   N06  Fs1  v116
 BYTE   W03
 BYTE   N03  Dn1  v088
 BYTE   W03
 BYTE   N06  Dn1  v096
 BYTE   N06  Gs1  v116
 BYTE   W06
 BYTE   Cn1  v127
 BYTE   W06
 BYTE   N06
 BYTE   W06
 BYTE   N06
 BYTE   N12  Dn1  v096
 BYTE   N06  Cn2  v127
 BYTE   W03
 BYTE   Bn1
 BYTE   W03
 BYTE   Cn1
 BYTE   N06  An1
 BYTE   W03
 BYTE   Fn1
 BYTE   W03
 BYTE   Cn1
 BYTE   W06
 BYTE   N06
 BYTE   W06
 BYTE   N06
 BYTE   N12  Dn1  v096
 BYTE   N06  Cn2  v127
 BYTE   W03
 BYTE   Bn1
 BYTE   W03
 BYTE   Cn1
 BYTE   N06  An1
 BYTE   W03
 BYTE   Fn1
 BYTE   W03
 BYTE   Cn1
 BYTE   W06
 BYTE   N06
 BYTE   W06
 BYTE   N06
 BYTE   N12  Dn1  v096
 BYTE   N06  Cn2  v127
 BYTE   W03
 BYTE   Bn1
 BYTE   W03
 BYTE   Cn1
 BYTE   N06  An1
 BYTE   W03
 BYTE   Fn1
 BYTE   W03
//  #07 //035   ----------------------------------------
 BYTE   PATT
  POIN2 Label_01007E48
//  #07 //036   ----------------------------------------
 BYTE   PATT
  POIN2 Label_01007EAA
//  #07 //037   ----------------------------------------
 BYTE   PATT
  POIN2 Label_01007E48
//  #07 //038   ----------------------------------------
 BYTE   PATT
  POIN2 Label_01007EAA
//  #07 //039   ----------------------------------------
Label_01008358:
 BYTE   N12  Cn1  v127
 BYTE   N06  Dn1  v096
 BYTE   N06  Fs1  v116
 BYTE   N12  Cs2  v096
 BYTE   W06
 BYTE   N06  Dn1
 BYTE   N06  Fs1  v116
 BYTE   W06
 BYTE   N12  Cn1  v127
 BYTE   N12  Dn1  v096
 BYTE   N06  Fs1  v116
 BYTE   N12  Cs2  v096
 BYTE   W06
 BYTE   N06  Fs1  v116
 BYTE   W06
 BYTE   Cn1  v127
 BYTE   W06
 BYTE   N06
 BYTE   W06
 BYTE   N06
 BYTE   N12  Dn1  v096
 BYTE   N06  Cn2  v127
 BYTE   W03
 BYTE   Bn1
 BYTE   W03
 BYTE   Cn1
 BYTE   N06  An1
 BYTE   W03
 BYTE   Fn1
 BYTE   W03
 BYTE   Cn1
 BYTE   N06  Cn2
 BYTE   W03
 BYTE   Bn1
 BYTE   W03
 BYTE   Cn1
 BYTE   N06  An1
 BYTE   W03
 BYTE   Fn1
 BYTE   W03
 BYTE   Cn1
 BYTE   N12  Dn1  v096
 BYTE   N06  Cn2  v127
 BYTE   W03
 BYTE   Bn1
 BYTE   W03
 BYTE   Cn1
 BYTE   N06  An1
 BYTE   W03
 BYTE   Fn1
 BYTE   W03
 BYTE   Cn1
 BYTE   N06  Cn2
 BYTE   W03
 BYTE   Bn1
 BYTE   W03
 BYTE   Cn1
 BYTE   N06  An1
 BYTE   W03
 BYTE   Fn1
 BYTE   W03
 BYTE   Cn1
 BYTE   N12  Dn1  v096
 BYTE   N06  Cn2  v127
 BYTE   W03
 BYTE   Bn1
 BYTE   W03
 BYTE   Cn1
 BYTE   N06  An1
 BYTE   W03
 BYTE   Fn1
 BYTE   W03
 BYTE   PEND 
//  #07 //040   ----------------------------------------
 BYTE   PATT
  POIN2 Label_01007DDC
//  #07 //041   ----------------------------------------
 BYTE   PATT
  POIN2 Label_01007E48
//  #07 //042   ----------------------------------------
 BYTE   PATT
  POIN2 Label_01007EAA
//  #07 //043   ----------------------------------------
 BYTE   PATT
  POIN2 Label_01008358
//  #07 //044   ----------------------------------------
 BYTE   N12  Cn1  v127
 BYTE   N12  Dn1  v096
 BYTE   N06  Gs1  v116
 BYTE   N06  Cn2  v127
 BYTE   N12  Cs2  v096
 BYTE   W03
 BYTE   N06  Bn1  v127
 BYTE   W03
 BYTE   An1
 BYTE   N06  As1  v108
 BYTE   W03
 BYTE   Fn1  v127
 BYTE   W03
 BYTE   N12  Cn1
 BYTE   N06  Dn1  v096
 BYTE   N06  Gs1  v116
 BYTE   N12  Cs2  v096
 BYTE   W06
 BYTE   N06  Dn1
 BYTE   N06  As1  v108
 BYTE   W06
 BYTE   N12  Cn1  v127
 BYTE   N06  Fs1  v116
 BYTE   N12  Cs2  v096
 BYTE   W06
 BYTE   N06  Fs1  v116
 BYTE   W06
 BYTE   N12  Dn1  v096
 BYTE   N06  Gs1  v116
 BYTE   N06  Bn1  v127
 BYTE   W06
 BYTE   Fs1  v116
 BYTE   W06
 BYTE   Cn1  v127
 BYTE   N06  Fs1  v116
 BYTE   W06
 BYTE   Cn1  v127
 BYTE   N06  Fs1  v116
 BYTE   W06
 BYTE   N12  Dn1  v096
 BYTE   N06  Fn1  v127
 BYTE   N06  As1  v108
 BYTE   W06
 BYTE   Gs1  v116
 BYTE   W06
 BYTE   N12  Cn1  v127
 BYTE   N06  Fs1  v116
 BYTE   W06
 BYTE   N06
 BYTE   W06
 BYTE   N12  Dn1  v096
 BYTE   N06  As1  v108
 BYTE   N06  Bn1  v127
 BYTE   W06
 BYTE   Cn1
 BYTE   N06  Fs1  v116
 BYTE   W06
//  #07 //045   ----------------------------------------
Label_01008458:
 BYTE   N06  Fs1  v116
 BYTE   W06
 BYTE   Cn1  v127
 BYTE   N06  Fs1  v116
 BYTE   W06
 BYTE   N12  Dn1  v096
 BYTE   N06  Gs1  v116
 BYTE   N06  Cn2  v127
 BYTE   W06
 BYTE   As1  v108
 BYTE   W06
 BYTE   N12  Cn1  v127
 BYTE   N06  Fs1  v116
 BYTE   W06
 BYTE   N06
 BYTE   W06
 BYTE   N12  Dn1  v096
 BYTE   N06  Gs1  v116
 BYTE   N06  Bn1  v127
 BYTE   W06
 BYTE   Fs1  v116
 BYTE   W06
 BYTE   Cn1  v127
 BYTE   N06  Fs1  v116
 BYTE   W06
 BYTE   Cn1  v127
 BYTE   N06  Fs1  v116
 BYTE   W06
 BYTE   N12  Dn1  v096
 BYTE   N06  Fn1  v127
 BYTE   N06  As1  v108
 BYTE   W06
 BYTE   Gs1  v116
 BYTE   W06
 BYTE   N12  Cn1  v127
 BYTE   N06  Fs1  v116
 BYTE   W06
 BYTE   N06
 BYTE   W06
 BYTE   N12  Dn1  v096
 BYTE   N06  As1  v108
 BYTE   N06  Bn1  v127
 BYTE   W06
 BYTE   Cn1
 BYTE   N06  Fs1  v116
 BYTE   W06
 BYTE   PEND 
//  #07 //046   ----------------------------------------
 BYTE   PATT
  POIN2 Label_01008458
//  #07 //047   ----------------------------------------
 BYTE   PATT
  POIN2 Label_01008458
//  #07 //048   ----------------------------------------
 BYTE   N06  Fs1  v116
 BYTE   W06
 BYTE   Cn1  v127
 BYTE   N06  Fs1  v116
 BYTE   W06
 BYTE   N12  Dn1  v096
 BYTE   N06  Gs1  v116
 BYTE   N06  Cn2  v127
 BYTE   W06
 BYTE   As1  v108
 BYTE   W06
 BYTE   N12  Cn1  v127
 BYTE   N06  Fs1  v116
 BYTE   N12  Cs2  v096
 BYTE   W06
 BYTE   N06  Fs1  v116
 BYTE   W06
 BYTE   N12  Dn1  v096
 BYTE   N06  Gs1  v116
 BYTE   N06  Bn1  v127
 BYTE   W06
 BYTE   Fs1  v116
 BYTE   W06
 BYTE   Cn1  v127
 BYTE   N06  Fs1  v116
 BYTE   W06
 BYTE   Cn1  v127
 BYTE   N06  Fs1  v116
 BYTE   W06
 BYTE   N12  Dn1  v096
 BYTE   N06  Fn1  v127
 BYTE   N06  As1  v108
 BYTE   W06
 BYTE   Gs1  v116
 BYTE   W06
 BYTE   N12  Cn1  v127
 BYTE   N06  Fs1  v116
 BYTE   W06
 BYTE   N06
 BYTE   W06
 BYTE   N12  Dn1  v096
 BYTE   N06  As1  v108
 BYTE   N06  Bn1  v127
 BYTE   W06
 BYTE   Cn1
 BYTE   N06  Fs1  v116
 BYTE   W06
//  #07 //049   ----------------------------------------
 BYTE   PATT
  POIN2 Label_01008458
//  #07 //050   ----------------------------------------
 BYTE   PATT
  POIN2 Label_01008458
//  #07 //051   ----------------------------------------
 BYTE   PATT
  POIN2 Label_01008458
//  #07 //052   ----------------------------------------
Label_01008533:
 BYTE   N06  Fs1  v116
 BYTE   W06
 BYTE   Cn1  v127
 BYTE   N06  Fs1  v116
 BYTE   W06
 BYTE   N12  Dn1  v096
 BYTE   N06  Gs1  v116
 BYTE   N06  Cn2  v127
 BYTE   W06
 BYTE   As1  v108
 BYTE   W06
 BYTE   N12  Cn1  v127
 BYTE   N12  Cs2  v096
 BYTE   W06
 BYTE   N06  Fs1  v116
 BYTE   W06
 BYTE   N12  Dn1  v096
 BYTE   N06  Bn1  v127
 BYTE   W06
 BYTE   Fs1  v116
 BYTE   N06  An1  v127
 BYTE   W06
 BYTE   Cn1
 BYTE   N06  An1
 BYTE   W06
 BYTE   Cn1
 BYTE   N06  Fn1
 BYTE   N06  Fs1  v116
 BYTE   W06
 BYTE   N12  Dn1  v096
 BYTE   N06  Fn1  v127
 BYTE   W06
 BYTE   N06
 BYTE   N06  Fs1  v116
 BYTE   W06
 BYTE   N12  Cn1  v127
 BYTE   N06  An1
 BYTE   W06
 BYTE   Fs1  v116
 BYTE   N06  An1  v127
 BYTE   W06
 BYTE   N12  Dn1  v096
 BYTE   N06  Bn1  v127
 BYTE   W06
 BYTE   Cn1
 BYTE   N06  Fs1  v116
 BYTE   N06  An1  v127
 BYTE   W06
 BYTE   PEND 
//  #07 //053   ----------------------------------------
Label_01008595:
 BYTE   N06  An1  v127
 BYTE   W06
 BYTE   Cn1
 BYTE   N06  Fn1
 BYTE   N06  Fs1  v116
 BYTE   W06
 BYTE   N12  Dn1  v096
 BYTE   N06  Fn1  v127
 BYTE   W06
 BYTE   N06
 BYTE   N06  Fs1  v116
 BYTE   W06
 BYTE   N12  Cn1  v127
 BYTE   N06  An1
 BYTE   N12  Cs2  v096
 BYTE   W06
 BYTE   N06  Fs1  v116
 BYTE   N06  An1  v127
 BYTE   W06
 BYTE   N12  Dn1  v096
 BYTE   N06  Bn1  v127
 BYTE   W06
 BYTE   Fs1  v116
 BYTE   N06  An1  v127
 BYTE   W06
 BYTE   Cn1
 BYTE   N06  An1
 BYTE   W06
 BYTE   Cn1
 BYTE   N06  Fn1
 BYTE   N06  Fs1  v116
 BYTE   W06
 BYTE   N12  Dn1  v096
 BYTE   N06  Fn1  v127
 BYTE   W06
 BYTE   N06
 BYTE   N06  Fs1  v116
 BYTE   W06
 BYTE   N12  Cn1  v127
 BYTE   N06  An1
 BYTE   W06
 BYTE   Fs1  v116
 BYTE   N06  An1  v127
 BYTE   W06
 BYTE   N12  Dn1  v096
 BYTE   N06  Bn1  v127
 BYTE   W06
 BYTE   Cn1
 BYTE   N06  Fs1  v116
 BYTE   N06  An1  v127
 BYTE   W06
 BYTE   PEND 
//  #07 //054   ----------------------------------------
 BYTE   PATT
  POIN2 Label_01008595
//  #07 //055   ----------------------------------------
 BYTE   PATT
  POIN2 Label_01008595
//  #07 //056   ----------------------------------------
 BYTE   PATT
  POIN2 Label_01008595
//  #07 //057   ----------------------------------------
 BYTE   PATT
  POIN2 Label_01008595
//  #07 //058   ----------------------------------------
 BYTE   PATT
  POIN2 Label_01008595
//  #07 //059   ----------------------------------------
 BYTE   PATT
  POIN2 Label_01008595
//  #07 //060   ----------------------------------------
 BYTE   N06  An1  v127
 BYTE   W06
 BYTE   Cn1
 BYTE   N06  Fn1
 BYTE   N06  Fs1  v116
 BYTE   W06
 BYTE   N12  Dn1  v096
 BYTE   N06  Fn1  v127
 BYTE   W06
 BYTE   N06
 BYTE   N06  Fs1  v116
 BYTE   W06
 BYTE   Cn1  v127
 BYTE   N06  An1
 BYTE   N12  Cs2  v096
 BYTE   W06
 BYTE   N06  Cn1  v127
 BYTE   N06  An1
 BYTE   W06
 BYTE   Cn1
 BYTE   N12  Dn1  v096
 BYTE   N06  Cn2  v127
 BYTE   W03
 BYTE   Bn1
 BYTE   W03
 BYTE   Cn1
 BYTE   N06  An1
 BYTE   W03
 BYTE   Fn1
 BYTE   W03
 BYTE   Cn1
 BYTE   W06
 BYTE   N06
 BYTE   W06
 BYTE   N06
 BYTE   N12  Dn1  v096
 BYTE   N06  Cn2  v127
 BYTE   W03
 BYTE   Bn1
 BYTE   W03
 BYTE   Cn1
 BYTE   N06  An1
 BYTE   W03
 BYTE   Fn1
 BYTE   W03
 BYTE   Cn1
 BYTE   W06
 BYTE   N06
 BYTE   W06
 BYTE   N06
 BYTE   N12  Dn1  v096
 BYTE   N06  Cn2  v127
 BYTE   W03
 BYTE   Bn1
 BYTE   W03
 BYTE   Cn1
 BYTE   N06  An1
 BYTE   W03
 BYTE   Fn1
 BYTE   W03
//  #07 //061   ----------------------------------------
 BYTE   N12  Cn1
 BYTE   N06  Dn1  v096
 BYTE   N06  Fs1  v116
 BYTE   N12  Cs2  v096
 BYTE   W06
 BYTE   N06  Dn1
 BYTE   N06  Fs1  v116
 BYTE   W06
 BYTE   N12  Cn1  v127
 BYTE   N12  Dn1  v096
 BYTE   N06  Fs1  v116
 BYTE   N12  Cs2  v096
 BYTE   W06
 BYTE   N06  Fs1  v116
 BYTE   W06
 BYTE   N12  Cn1  v127
 BYTE   N06  Fs1  v116
 BYTE   W06
 BYTE   N06
 BYTE   W06
 BYTE   N12  Dn1  v096
 BYTE   N06  Gs1  v116
 BYTE   N06  Bn1  v127
 BYTE   W06
 BYTE   Fs1  v116
 BYTE   W06
 BYTE   Cn1  v127
 BYTE   N06  Fs1  v116
 BYTE   W06
 BYTE   Cn1  v127
 BYTE   N06  Fs1  v116
 BYTE   W06
 BYTE   N12  Dn1  v096
 BYTE   N06  Fn1  v127
 BYTE   N06  As1  v108
 BYTE   W06
 BYTE   Gs1  v116
 BYTE   W06
 BYTE   N12  Cn1  v127
 BYTE   N06  Fs1  v116
 BYTE   W06
 BYTE   N06
 BYTE   W06
 BYTE   N12  Dn1  v096
 BYTE   N06  As1  v108
 BYTE   N06  Bn1  v127
 BYTE   W06
 BYTE   Cn1
 BYTE   N06  Fs1  v116
 BYTE   W06
//  #07 //062   ----------------------------------------
 BYTE   PATT
  POIN2 Label_01008533
//  #07 //063   ----------------------------------------
 BYTE   N06  An1  v127
 BYTE   W06
 BYTE   Cn1
 BYTE   N06  Fn1
 BYTE   N06  Fs1  v116
 BYTE   W06
 BYTE   N12  Dn1  v096
 BYTE   N06  Fn1  v127
 BYTE   W06
 BYTE   N06
 BYTE   N06  Fs1  v116
 BYTE   W06
 BYTE   Cn1  v127
 BYTE   N06  An1
 BYTE   W06
 BYTE   Cn1
 BYTE   N06  An1
 BYTE   W06
 BYTE   Cn1
 BYTE   N12  Dn1  v096
 BYTE   N06  Fn1  v127
 BYTE   W03
 BYTE   An1
 BYTE   W03
 BYTE   Cn1
 BYTE   N06  Bn1
 BYTE   W03
 BYTE   Cn2
 BYTE   W03
 BYTE   Cn1
 BYTE   W06
 BYTE   N06
 BYTE   W06
 BYTE   N06
 BYTE   N12  Dn1  v096
 BYTE   N06  Fn1  v127
 BYTE   W03
 BYTE   An1
 BYTE   W03
 BYTE   Cn1
 BYTE   N06  Bn1
 BYTE   W03
 BYTE   Cn2
 BYTE   W03
 BYTE   Cn1
 BYTE   W06
 BYTE   N06
 BYTE   W06
 BYTE   N06
 BYTE   N12  Dn1  v096
 BYTE   N06  Fn1  v127
 BYTE   W03
 BYTE   An1
 BYTE   W03
 BYTE   Cn1
 BYTE   N06  Bn1
 BYTE   W03
 BYTE   Cn2
 BYTE   W03
//  #07 //064   ----------------------------------------
 BYTE   N12  Cn1
 BYTE   N12  Dn1  v096
 BYTE   N06  Gs1  v116
 BYTE   N12  Cs2  v096
 BYTE   W06
 BYTE   N06  As1  v108
 BYTE   W06
 BYTE   N12  Cn1  v127
 BYTE   N06  Dn1  v096
 BYTE   N06  Gs1  v116
 BYTE   N12  Cs2  v096
 BYTE   W06
 BYTE   N06  Dn1
 BYTE   N06  As1  v108
 BYTE   W06
 BYTE   N12  Cn1  v127
 BYTE   N12  Fs1  v116
 BYTE   W12
 BYTE   Cn1  v127
 BYTE   N12  As1  v108
 BYTE   W12
 BYTE   Dn1  v096
 BYTE   N12  Gs1  v116
 BYTE   N06  Bn1  v127
 BYTE   W03
 BYTE   An1
 BYTE   W03
 BYTE   Fn1
 BYTE   W06
 BYTE   N12  Cn1
 BYTE   N12  Fs1  v116
 BYTE   W12
 BYTE   Cn1  v127
 BYTE   N12  Fs1  v116
 BYTE   W12
 BYTE   Dn1  v096
 BYTE   N12  As1  v108
 BYTE   W12
//  #07 //065   ----------------------------------------
 BYTE   N06  Cn1  v127
 BYTE   N12  Gs1  v116
 BYTE   N06  Bn1  v127
 BYTE   W03
 BYTE   An1
 BYTE   W03
 BYTE   Cn1
 BYTE   N06  Fn1
 BYTE   W06
 BYTE   N12  Dn1  v096
 BYTE   N06  Fs1  v116
 BYTE   N06  Bn1  v127
 BYTE   W03
 BYTE   An1
 BYTE   W03
 BYTE   Fn1
 BYTE   N06  Fs1  v116
 BYTE   W06
 BYTE   N12  Cn1  v127
 BYTE   N06  Fs1  v116
 BYTE   N12  Cs2  v096
 BYTE   W06
 BYTE   N06  Fs1  v116
 BYTE   W06
 BYTE   N12  Cn1  v127
 BYTE   N06  Fs1  v116
 BYTE   W06
 BYTE   N06
 BYTE   W06
 BYTE   N12  Dn1  v096
 BYTE   N12  Gs1  v116
 BYTE   N06  Bn1  v127
 BYTE   W03
 BYTE   An1
 BYTE   W03
 BYTE   Fn1
 BYTE   W06
 BYTE   Cn1
 BYTE   N06  Fs1  v116
 BYTE   N06  As1  v108
 BYTE   W06
 BYTE   Cn1  v127
 BYTE   N06  Fs1  v116
 BYTE   N06  Gs1
 BYTE   W06
 BYTE   Cn1  v127
 BYTE   N06  Fs1  v116
 BYTE   N06  As1  v108
 BYTE   W06
 BYTE   Cn1  v127
 BYTE   N06  Fs1  v116
 BYTE   N06  Gs1
 BYTE   W06
 BYTE   N12  Dn1  v096
 BYTE   N06  Fs1  v116
 BYTE   N06  As1  v108
 BYTE   W06
 BYTE   Fs1  v116
 BYTE   N06  Gs1
 BYTE   W06
//  #07 //066   ----------------------------------------
 BYTE   N12  Cn1  v127
 BYTE   N06  Fs1  v116
 BYTE   N06  As1  v108
 BYTE   W06
 BYTE   Fs1  v116
 BYTE   N06  Gs1
 BYTE   W06
 BYTE   N12  Dn1  v096
 BYTE   N06  Fs1  v116
 BYTE   N06  As1  v108
 BYTE   W06
 BYTE   Fs1  v116
 BYTE   N06  Gs1
 BYTE   W06
 BYTE   Cn1  v127
 BYTE   N06  Fs1  v116
 BYTE   N12  Cs2  v096
 BYTE   W06
 BYTE   N06  Cn1  v127
 BYTE   N06  Fs1  v116
 BYTE   W06
 BYTE   N12  Dn1  v096
 BYTE   N06  As1  v108
 BYTE   W06
 BYTE   N06
 BYTE   N12  Cs2  v096
 BYTE   W06
 BYTE   N06  Cn1  v127
 BYTE   N06  Fs1  v116
 BYTE   W06
 BYTE   Cn1  v127
 BYTE   N06  Fs1  v116
 BYTE   W06
 BYTE   N12  Dn1  v096
 BYTE   N06  Gs1  v116
 BYTE   N12  Cs2  v096
 BYTE   W06
 BYTE   N06  Gs1  v116
 BYTE   W06
 BYTE   Cn1  v127
 BYTE   N06  Fs1  v116
 BYTE   W06
 BYTE   Cn1  v127
 BYTE   N06  Fs1  v116
 BYTE   N12  Cs2  v096
 BYTE   W06
 BYTE   Dn1
 BYTE   N06  As1  v108
 BYTE   W06
 BYTE   N06
 BYTE   W06
//  #07 //067   ----------------------------------------
 BYTE   Cn1  v127
 BYTE   N06  Fs1  v116
 BYTE   W06
 BYTE   Cn1  v127
 BYTE   N06  Fs1  v116
 BYTE   W06
 BYTE   N12  Dn1  v096
 BYTE   N06  Gs1  v116
 BYTE   W06
 BYTE   N06
 BYTE   W06
 BYTE   Cn1  v127
 BYTE   N06  Fs1  v116
 BYTE   N12  Cs2  v096
 BYTE   W06
 BYTE   N06  Cn1  v127
 BYTE   N06  Fs1  v116
 BYTE   W06
 BYTE   N12  Dn1  v096
 BYTE   N06  As1  v108
 BYTE   W06
 BYTE   N06
 BYTE   N12  Cs2  v096
 BYTE   W06
 BYTE   N06  Cn1  v127
 BYTE   N06  Fs1  v116
 BYTE   W06
 BYTE   Cn1  v127
 BYTE   N06  Fs1  v116
 BYTE   W06
 BYTE   N12  Dn1  v096
 BYTE   N06  Gs1  v116
 BYTE   N12  Cs2  v096
 BYTE   W06
 BYTE   N06  Gs1  v116
 BYTE   W06
 BYTE   Cn1  v127
 BYTE   N06  Fs1  v116
 BYTE   W06
 BYTE   Cn1  v127
 BYTE   N06  Fs1  v116
 BYTE   N12  Cs2  v096
 BYTE   W06
 BYTE   Dn1
 BYTE   N06  As1  v108
 BYTE   W06
 BYTE   N06
 BYTE   W06
//  #07 //068   ----------------------------------------
 BYTE   Cn1  v127
 BYTE   N06  Fs1  v116
 BYTE   N12  Cs2  v096
 BYTE   W06
 BYTE   N06  Cn1  v127
 BYTE   N06  Fs1  v116
 BYTE   W06
 BYTE   N12  Dn1  v096
 BYTE   N06  Gs1  v116
 BYTE   N12  Cs2  v096
 BYTE   W06
 BYTE   N06  Gs1  v116
 BYTE   W06
 BYTE   Cn1  v127
 BYTE   N06  Fs1  v116
 BYTE   N12  Cs2  v096
 BYTE   W06
 BYTE   N06  Cn1  v127
 BYTE   N06  Fs1  v116
 BYTE   W06
 BYTE   N12  Dn1  v096
 BYTE   N06  As1  v108
 BYTE   W06
 BYTE   N06
 BYTE   N12  Cs2  v096
 BYTE   W06
 BYTE   N06  Cn1  v127
 BYTE   N06  Fs1  v116
 BYTE   W06
 BYTE   Cn1  v127
 BYTE   N06  Fs1  v116
 BYTE   W06
 BYTE   N12  Dn1  v096
 BYTE   N06  Gs1  v116
 BYTE   N12  Cs2  v096
 BYTE   W06
 BYTE   N06  Gs1  v116
 BYTE   W06
 BYTE   Cn1  v127
 BYTE   N06  Fs1  v116
 BYTE   W06
 BYTE   Cn1  v127
 BYTE   N06  Fs1  v116
 BYTE   N12  Cs2  v096
 BYTE   W06
 BYTE   Dn1
 BYTE   N06  As1  v108
 BYTE   W06
 BYTE   N06
 BYTE   W06
//  #07 //069   ----------------------------------------
 BYTE   Cn1  v127
 BYTE   N06  Fs1  v116
 BYTE   W06
 BYTE   Cn1  v127
 BYTE   N06  Fs1  v116
 BYTE   W06
 BYTE   N12  Dn1  v096
 BYTE   N06  Gs1  v116
 BYTE   W06
 BYTE   N06
 BYTE   W06
 BYTE   Cn1  v127
 BYTE   N06  Fs1  v116
 BYTE   N12  Cs2  v096
 BYTE   W06
 BYTE   N06  Cn1  v127
 BYTE   N06  Fs1  v116
 BYTE   W06
 BYTE   N12  Dn1  v096
 BYTE   N06  As1  v108
 BYTE   W06
 BYTE   N06
 BYTE   N12  Cs2  v096
 BYTE   W06
 BYTE   N06  Cn1  v127
 BYTE   N06  Fs1  v116
 BYTE   W06
 BYTE   Cn1  v127
 BYTE   N06  Fs1  v116
 BYTE   W06
 BYTE   N12  Dn1  v096
 BYTE   N06  Gs1  v116
 BYTE   N12  Cs2  v096
 BYTE   W06
 BYTE   N06  Gs1  v116
 BYTE   W06
 BYTE   GoTo
  POIN2 Label_01007F58
//  #07 //070   ----------------------------------------
 BYTE   N06  Cn1  v127
 BYTE   N06  Fs1  v116
 BYTE   W06
 BYTE   Cn1  v127
 BYTE   N06  Fs1  v116
 BYTE   N12  Cs2  v096
 BYTE   W06
 BYTE   Dn1
 BYTE   N06  As1  v108
 BYTE   W06
 BYTE   N06
 BYTE   W06
 BYTE   Cn1  v127
 BYTE   N06  Fs1  v116
 BYTE   W06
 BYTE   Cn1  v127
 BYTE   N06  Fs1  v116
 BYTE   W06
 BYTE   N12  Dn1  v096
 BYTE   N06  Gs1  v116
 BYTE   W06
 BYTE   N06
 BYTE   W78
//  #07 //071   ----------------------------------------
 BYTE   W72
 BYTE   PAN   c_v+0
 BYTE   VOL   35*ItHasToBeThisWay_mvl/mxv
 BYTE   PAN   c_v+0
 BYTE   VOL   35*ItHasToBeThisWay_mvl/mxv
 BYTE   PAN   c_v+0
 BYTE   VOL   35*ItHasToBeThisWay_mvl/mxv
 BYTE   BEND   c_v+0
 BYTE   FINE

//******************************************************//
	ALIGN 4

ItHasToBeThisWay:
	BYTE	7	// NumTrks
	BYTE	0	// NumBlks
	BYTE	ItHasToBeThisWay_pri	// Priority
	BYTE	ItHasToBeThisWay_rev	// Reverb.
    
	POIN2	ItHasToBeThisWay_grp
    
	POIN2	ItHasToBeThisWay_001
	POIN2	ItHasToBeThisWay_002
	POIN2	ItHasToBeThisWay_003
	POIN2	ItHasToBeThisWay_004
	POIN2	ItHasToBeThisWay_005
	POIN2	ItHasToBeThisWay_006
	POIN2	ItHasToBeThisWay_007

	
