//Event file generated from Sappy .s format.
	#include "MPlayDef.event"

	#define	Jaws_grp  voicegroup000
	#define	Jaws_pri  0
	#define	Jaws_rev  148
	#define	Jaws_mvl  127
	#define	Jaws_key  0
	#define	Jaws_tbs  1
	#define	Jaws_exg  0
	#define	Jaws_cmp  1

	// .rodata
	//	Jaws
	ALIGN 4


//**************** Track 1 (Midi-Chn.0) ****************//

Jaws_001:
// 000   ----------------------------------------
 BYTE   KEYSH   Jaws_key+0
 BYTE   TEMPO   150*Jaws_tbs/2
 BYTE   VOICE   47
 BYTE   VOL   62*Jaws_mvl/mxv
 BYTE   PAN   c_v+0
 BYTE   W96
// 001   ----------------------------------------
 BYTE   W96
// 002   ----------------------------------------
 BYTE   W96
// 003   ----------------------------------------
 BYTE   W96
// 004   ----------------------------------------
 BYTE   W96
// 005   ----------------------------------------
 BYTE   W96
// 006   ----------------------------------------
 BYTE   W96
// 007   ----------------------------------------
 BYTE   W96
// 008   ----------------------------------------
Label_0_01023A46:
 BYTE   N11  Cn1  v127
 BYTE   W60
 BYTE   N11
 BYTE   W36
 BYTE   PEND 
// 009   ----------------------------------------
Label_0_01023A4D:
 BYTE   W12
 BYTE   N11  Cn1  v127
 BYTE   W48
 BYTE   N11
 BYTE   W36
 BYTE   PEND 
// 010   ----------------------------------------
 BYTE   PATT
  POIN2 Label_0_01023A46
// 011   ----------------------------------------
 BYTE   PATT
  POIN2 Label_0_01023A4D
// 012   ----------------------------------------
 BYTE   PATT
  POIN2 Label_0_01023A46
// 013   ----------------------------------------
 BYTE   PATT
  POIN2 Label_0_01023A4D
// 014   ----------------------------------------
 BYTE   PATT
  POIN2 Label_0_01023A46
// 015   ----------------------------------------
 BYTE   PATT
  POIN2 Label_0_01023A4D
// 016   ----------------------------------------
 BYTE   PATT
  POIN2 Label_0_01023A46
// 017   ----------------------------------------
 BYTE   PATT
  POIN2 Label_0_01023A4D
// 018   ----------------------------------------
 BYTE   PATT
  POIN2 Label_0_01023A46
// 019   ----------------------------------------
 BYTE   PATT
  POIN2 Label_0_01023A4D
// 020   ----------------------------------------
 BYTE   PATT
  POIN2 Label_0_01023A46
// 021   ----------------------------------------
 BYTE   PATT
  POIN2 Label_0_01023A4D
// 022   ----------------------------------------
 BYTE   PATT
  POIN2 Label_0_01023A46
// 023   ----------------------------------------
 BYTE   PATT
  POIN2 Label_0_01023A4D
// 024   ----------------------------------------
 BYTE   PATT
  POIN2 Label_0_01023A46
// 025   ----------------------------------------
 BYTE   PATT
  POIN2 Label_0_01023A4D
// 026   ----------------------------------------
 BYTE   PATT
  POIN2 Label_0_01023A46
// 027   ----------------------------------------
 BYTE   PATT
  POIN2 Label_0_01023A4D
// 028   ----------------------------------------
 BYTE   PATT
  POIN2 Label_0_01023A46
// 029   ----------------------------------------
 BYTE   PATT
  POIN2 Label_0_01023A4D
// 030   ----------------------------------------
 BYTE   PATT
  POIN2 Label_0_01023A46
// 031   ----------------------------------------
 BYTE   PATT
  POIN2 Label_0_01023A4D
// 032   ----------------------------------------
 BYTE   PATT
  POIN2 Label_0_01023A46
// 033   ----------------------------------------
 BYTE   PATT
  POIN2 Label_0_01023A4D
// 034   ----------------------------------------
 BYTE   PATT
  POIN2 Label_0_01023A46
// 035   ----------------------------------------
 BYTE   PATT
  POIN2 Label_0_01023A4D
// 036   ----------------------------------------
 BYTE   PATT
  POIN2 Label_0_01023A46
// 037   ----------------------------------------
 BYTE   PATT
  POIN2 Label_0_01023A4D
// 038   ----------------------------------------
 BYTE   PATT
  POIN2 Label_0_01023A46
// 039   ----------------------------------------
 BYTE   PATT
  POIN2 Label_0_01023A4D
// 040   ----------------------------------------
 BYTE   PATT
  POIN2 Label_0_01023A46
// 041   ----------------------------------------
 BYTE   PATT
  POIN2 Label_0_01023A4D
// 042   ----------------------------------------
 BYTE   PATT
  POIN2 Label_0_01023A46
// 043   ----------------------------------------
 BYTE   PATT
  POIN2 Label_0_01023A4D
// 044   ----------------------------------------
 BYTE   PATT
  POIN2 Label_0_01023A46
// 045   ----------------------------------------
 BYTE   PATT
  POIN2 Label_0_01023A4D
// 046   ----------------------------------------
 BYTE   PATT
  POIN2 Label_0_01023A46
// 047   ----------------------------------------
 BYTE   PATT
  POIN2 Label_0_01023A4D
// 048   ----------------------------------------
 BYTE   PATT
  POIN2 Label_0_01023A46
// 049   ----------------------------------------
 BYTE   N11  Cn1  v127
 BYTE   W60
 BYTE   N11
 BYTE   W24
 BYTE   N11
 BYTE   W12
// 050   ----------------------------------------
 BYTE   PATT
  POIN2 Label_0_01023A46
// 051   ----------------------------------------
Label_0_01023B25:
 BYTE   W12
 BYTE   N11  Cn1  v127
 BYTE   W36
 BYTE   N11
 BYTE   W48
 BYTE   PEND 
// 052   ----------------------------------------
 BYTE   PATT
  POIN2 Label_0_01023A46
// 053   ----------------------------------------
 BYTE   PATT
  POIN2 Label_0_01023B25
// 054   ----------------------------------------
 BYTE   PATT
  POIN2 Label_0_01023A46
// 055   ----------------------------------------
 BYTE   PATT
  POIN2 Label_0_01023A4D
// 056   ----------------------------------------
 BYTE   PATT
  POIN2 Label_0_01023A46
// 057   ----------------------------------------
 BYTE   PATT
  POIN2 Label_0_01023A46
// 058   ----------------------------------------
 BYTE   PATT
  POIN2 Label_0_01023A46
// 059   ----------------------------------------
 BYTE   PATT
  POIN2 Label_0_01023A46
// 060   ----------------------------------------
 BYTE   PATT
  POIN2 Label_0_01023A4D
// 061   ----------------------------------------
 BYTE   W96
// 062   ----------------------------------------
 BYTE   W96
// 063   ----------------------------------------
 BYTE   W96
// 064   ----------------------------------------
 BYTE   W96
// 065   ----------------------------------------
 BYTE   W96
// 066   ----------------------------------------
 BYTE   W96
// 067   ----------------------------------------
 BYTE   W96
// 068   ----------------------------------------
 BYTE   W96
// 069   ----------------------------------------
 BYTE   GoTo
  POIN2 Label_0_01023A46
 BYTE   FINE

//**************** Track 2 (Midi-Chn.1) ****************//

Jaws_002:
// 000   ----------------------------------------
 BYTE   KEYSH   Jaws_key+0
 BYTE   VOICE   123
 BYTE   VOL   59*Jaws_mvl/mxv
 BYTE   PAN   c_v+0
 BYTE   W96
// 001   ----------------------------------------
 BYTE   W96
// 002   ----------------------------------------
 BYTE   W96
// 003   ----------------------------------------
 BYTE   W96
// 004   ----------------------------------------
 BYTE   W96
// 005   ----------------------------------------
 BYTE   W96
// 006   ----------------------------------------
 BYTE   W96
// 007   ----------------------------------------
 BYTE   W96
// 008   ----------------------------------------
Label_1_01023B7C:
 BYTE   W24
 BYTE   N10  En1  v127
 BYTE   W48
 BYTE   N10
 BYTE   W24
 BYTE   PEND 
// 009   ----------------------------------------
Label_1_01023B84:
 BYTE   W36
 BYTE   N10  En1  v127
 BYTE   W36
 BYTE   N10
 BYTE   W24
 BYTE   PEND 
// 010   ----------------------------------------
 BYTE   PATT
  POIN2 Label_1_01023B7C
// 011   ----------------------------------------
 BYTE   W36
 BYTE   N10  En1  v127
 BYTE   W36
 BYTE   N10
 BYTE   W18
 BYTE   N04  En1  v096
 BYTE   W06
// 012   ----------------------------------------
 BYTE   PATT
  POIN2 Label_1_01023B7C
// 013   ----------------------------------------
 BYTE   PATT
  POIN2 Label_1_01023B84
// 014   ----------------------------------------
 BYTE   PATT
  POIN2 Label_1_01023B7C
// 015   ----------------------------------------
 BYTE   W36
 BYTE   N10  En1  v127
 BYTE   W18
 BYTE   N06  En1  v080
 BYTE   W18
 BYTE   N10  En1  v127
 BYTE   W24
// 016   ----------------------------------------
 BYTE   PATT
  POIN2 Label_1_01023B7C
// 017   ----------------------------------------
 BYTE   PATT
  POIN2 Label_1_01023B84
// 018   ----------------------------------------
 BYTE   PATT
  POIN2 Label_1_01023B7C
// 019   ----------------------------------------
 BYTE   W36
 BYTE   N10  En1  v127
 BYTE   W36
 BYTE   N10
 BYTE   W18
 BYTE   N04  En1  v088
 BYTE   W06
// 020   ----------------------------------------
 BYTE   PATT
  POIN2 Label_1_01023B7C
// 021   ----------------------------------------
 BYTE   PATT
  POIN2 Label_1_01023B84
// 022   ----------------------------------------
 BYTE   PATT
  POIN2 Label_1_01023B7C
// 023   ----------------------------------------
 BYTE   W36
 BYTE   N10  En1  v127
 BYTE   W18
 BYTE   N07  En1  v088
 BYTE   W18
 BYTE   N10  En1  v127
 BYTE   W24
// 024   ----------------------------------------
 BYTE   PATT
  POIN2 Label_1_01023B7C
// 025   ----------------------------------------
 BYTE   PATT
  POIN2 Label_1_01023B84
// 026   ----------------------------------------
 BYTE   PATT
  POIN2 Label_1_01023B7C
// 027   ----------------------------------------
 BYTE   PATT
  POIN2 Label_1_01023B84
// 028   ----------------------------------------
 BYTE   PATT
  POIN2 Label_1_01023B7C
// 029   ----------------------------------------
 BYTE   PATT
  POIN2 Label_1_01023B84
// 030   ----------------------------------------
 BYTE   PATT
  POIN2 Label_1_01023B7C
// 031   ----------------------------------------
 BYTE   PATT
  POIN2 Label_1_01023B84
// 032   ----------------------------------------
 BYTE   PATT
  POIN2 Label_1_01023B7C
// 033   ----------------------------------------
 BYTE   PATT
  POIN2 Label_1_01023B84
// 034   ----------------------------------------
 BYTE   PATT
  POIN2 Label_1_01023B7C
// 035   ----------------------------------------
 BYTE   W36
 BYTE   N10  En1  v127
 BYTE   W36
 BYTE   N10
 BYTE   W18
 BYTE   N06  En1  v096
 BYTE   W06
// 036   ----------------------------------------
 BYTE   PATT
  POIN2 Label_1_01023B7C
// 037   ----------------------------------------
 BYTE   PATT
  POIN2 Label_1_01023B84
// 038   ----------------------------------------
 BYTE   PATT
  POIN2 Label_1_01023B7C
// 039   ----------------------------------------
 BYTE   W36
 BYTE   N10  En1  v127
 BYTE   W30
 BYTE   N04
 BYTE   W06
 BYTE   N10
 BYTE   W12
 BYTE   N12  Gn1
 BYTE   W12
// 040   ----------------------------------------
 BYTE   PATT
  POIN2 Label_1_01023B7C
// 041   ----------------------------------------
 BYTE   PATT
  POIN2 Label_1_01023B84
// 042   ----------------------------------------
 BYTE   PATT
  POIN2 Label_1_01023B7C
// 043   ----------------------------------------
 BYTE   PATT
  POIN2 Label_1_01023B84
// 044   ----------------------------------------
 BYTE   PATT
  POIN2 Label_1_01023B7C
// 045   ----------------------------------------
 BYTE   PATT
  POIN2 Label_1_01023B84
// 046   ----------------------------------------
 BYTE   PATT
  POIN2 Label_1_01023B7C
// 047   ----------------------------------------
 BYTE   PATT
  POIN2 Label_1_01023B84
// 048   ----------------------------------------
 BYTE   W24
 BYTE   N10  En1  v127
 BYTE   W48
 BYTE   N10
 BYTE   W12
 BYTE   N10
 BYTE   W12
// 049   ----------------------------------------
 BYTE   W12
 BYTE   N10
 BYTE   W12
 BYTE   N10
 BYTE   W24
 BYTE   N10
 BYTE   W24
 BYTE   N10
 BYTE   W24
// 050   ----------------------------------------
 BYTE   W96
// 051   ----------------------------------------
 BYTE   W96
// 052   ----------------------------------------
 BYTE   W96
// 053   ----------------------------------------
 BYTE   W96
// 054   ----------------------------------------
 BYTE   PATT
  POIN2 Label_1_01023B7C
// 055   ----------------------------------------
 BYTE   PATT
  POIN2 Label_1_01023B84
// 056   ----------------------------------------
 BYTE   W24
 BYTE   N10  En1  v127
 BYTE   W48
 BYTE   N03
 BYTE   W06
 BYTE   N03
 BYTE   W06
 BYTE   N03
 BYTE   W06
 BYTE   N03
 BYTE   W06
// 057   ----------------------------------------
 BYTE   PATT
  POIN2 Label_1_01023B84
// 058   ----------------------------------------
 BYTE   W36
 BYTE   N10  En1  v127
 BYTE   W36
 BYTE   N10
 BYTE   W12
 BYTE   N04
 BYTE   W06
 BYTE   N04
 BYTE   W06
// 059   ----------------------------------------
 BYTE   PATT
  POIN2 Label_1_01023B7C
// 060   ----------------------------------------
 BYTE   W36
 BYTE   N10  En1  v127
 BYTE   W36
 BYTE   N04
 BYTE   W06
 BYTE   N04
 BYTE   W06
 BYTE   N11  Gn1
 BYTE   W12
// 061   ----------------------------------------
 BYTE   W96
// 062   ----------------------------------------
 BYTE   W96
// 063   ----------------------------------------
 BYTE   W96
// 064   ----------------------------------------
 BYTE   W96
// 065   ----------------------------------------
 BYTE   W96
// 066   ----------------------------------------
 BYTE   W96
// 067   ----------------------------------------
 BYTE   W96
// 068   ----------------------------------------
 BYTE   W96
// 069   ----------------------------------------
 BYTE   GoTo
  POIN2 Label_1_01023B7C
 BYTE   FINE

//**************** Track 3 (Midi-Chn.2) ****************//

Jaws_003:
// 000   ----------------------------------------
 BYTE   KEYSH   Jaws_key+0
 BYTE   VOICE   127
 BYTE   VOL   59*Jaws_mvl/mxv
 BYTE   PAN   c_v+0
 BYTE   N05  En2  v112
 BYTE   W12
 BYTE   N02  Gs1  v068
 BYTE   W12
 BYTE   N05  En2  v112
 BYTE   W12
 BYTE   N02  Gs1  v068
 BYTE   W12
 BYTE   N05  En2  v112
 BYTE   W12
 BYTE   N02  Gs1  v068
 BYTE   W12
 BYTE   N05  En2  v112
 BYTE   W12
 BYTE   N02  Gs1  v068
 BYTE   W12
// 001   ----------------------------------------
Label_2_01023CF8:
 BYTE   N05  En2  v112
 BYTE   W12
 BYTE   N02  Gs1  v068
 BYTE   W12
 BYTE   N05  En2  v112
 BYTE   W12
 BYTE   N02  Gs1  v068
 BYTE   W12
 BYTE   N05  En2  v112
 BYTE   W12
 BYTE   N02  Gs1  v068
 BYTE   W12
 BYTE   N05  En2  v112
 BYTE   W12
 BYTE   N02  Gs1  v068
 BYTE   W12
 BYTE   PEND 
// 002   ----------------------------------------
 BYTE   PATT
  POIN2 Label_2_01023CF8
// 003   ----------------------------------------
Label_2_01023D1E:
 BYTE   N05  En2  v112
 BYTE   W12
 BYTE   N02  Gs1  v068
 BYTE   W12
 BYTE   N05  En2  v112
 BYTE   W12
 BYTE   N02  Gs1  v068
 BYTE   W12
 BYTE   N05  En2  v112
 BYTE   W12
 BYTE   N02  Gs1  v068
 BYTE   W12
 BYTE   N05  En2  v112
 BYTE   W12
 BYTE   N06  As1  v104
 BYTE   W12
 BYTE   PEND 
// 004   ----------------------------------------
Label_2_01023D3F:
 BYTE   N05  En2  v112
 BYTE   W06
 BYTE   N02  Gs1  v088
 BYTE   W06
 BYTE   Gs1  v068
 BYTE   W06
 BYTE   Gs1  v060
 BYTE   W06
 BYTE   N05  En2  v112
 BYTE   W06
 BYTE   N02  Gs1  v088
 BYTE   W06
 BYTE   Gs1  v068
 BYTE   W06
 BYTE   Gs1  v060
 BYTE   W06
 BYTE   N05  En2  v112
 BYTE   W06
 BYTE   N02  Gs1  v088
 BYTE   W06
 BYTE   N06  As1  v104
 BYTE   W06
 BYTE   N02  Gs1  v060
 BYTE   W06
 BYTE   N05  En2  v112
 BYTE   W06
 BYTE   N02  Gs1  v088
 BYTE   W06
 BYTE   Gs1  v068
 BYTE   W06
 BYTE   Gs1  v060
 BYTE   W06
 BYTE   PEND 
// 005   ----------------------------------------
 BYTE   PATT
  POIN2 Label_2_01023D3F
// 006   ----------------------------------------
 BYTE   PATT
  POIN2 Label_2_01023D3F
// 007   ----------------------------------------
 BYTE   PATT
  POIN2 Label_2_01023D3F
// 008   ----------------------------------------
Label_2_01023D89:
// 009   ----------------------------------------
 BYTE   PATT
  POIN2 Label_2_01023D3F
// 010   ----------------------------------------
 BYTE   PATT
  POIN2 Label_2_01023D3F
// 011   ----------------------------------------
 BYTE   PATT
  POIN2 Label_2_01023D3F
// 012   ----------------------------------------
 BYTE   PATT
  POIN2 Label_2_01023D3F
// 013   ----------------------------------------
 BYTE   PATT
  POIN2 Label_2_01023D3F
// 014   ----------------------------------------
 BYTE   PATT
  POIN2 Label_2_01023D3F
// 015   ----------------------------------------
 BYTE   PATT
  POIN2 Label_2_01023D3F
// 016   ----------------------------------------
Label_2_01023DAC:
 BYTE   N05  En2  v112
 BYTE   W06
 BYTE   N02  Gs1  v088
 BYTE   W06
 BYTE   Gs1  v068
 BYTE   W06
 BYTE   Gs1  v060
 BYTE   W06
 BYTE   N05  En2  v112
 BYTE   W06
 BYTE   N02  Gs1  v088
 BYTE   W06
 BYTE   Gs1  v068
 BYTE   W06
 BYTE   Gs1  v060
 BYTE   W06
 BYTE   N05  En2  v112
 BYTE   W06
 BYTE   N02  Gs1  v088
 BYTE   W06
 BYTE   Gs1  v068
 BYTE   N06  As1  v104
 BYTE   W06
 BYTE   N02  Gs1  v060
 BYTE   W06
 BYTE   N05  En2  v112
 BYTE   W06
 BYTE   N02  Gs1  v088
 BYTE   W06
 BYTE   Gs1  v068
 BYTE   W06
 BYTE   Gs1  v060
 BYTE   W06
 BYTE   PEND 
// 017   ----------------------------------------
 BYTE   PATT
  POIN2 Label_2_01023D3F
// 018   ----------------------------------------
 BYTE   PATT
  POIN2 Label_2_01023D3F
// 019   ----------------------------------------
 BYTE   PATT
  POIN2 Label_2_01023D3F
// 020   ----------------------------------------
 BYTE   PATT
  POIN2 Label_2_01023D3F
// 021   ----------------------------------------
 BYTE   PATT
  POIN2 Label_2_01023D3F
// 022   ----------------------------------------
 BYTE   PATT
  POIN2 Label_2_01023D3F
// 023   ----------------------------------------
 BYTE   PATT
  POIN2 Label_2_01023D3F
// 024   ----------------------------------------
 BYTE   PATT
  POIN2 Label_2_01023D3F
// 025   ----------------------------------------
 BYTE   PATT
  POIN2 Label_2_01023D3F
// 026   ----------------------------------------
 BYTE   PATT
  POIN2 Label_2_01023D3F
// 027   ----------------------------------------
 BYTE   PATT
  POIN2 Label_2_01023D3F
// 028   ----------------------------------------
 BYTE   PATT
  POIN2 Label_2_01023D3F
// 029   ----------------------------------------
 BYTE   PATT
  POIN2 Label_2_01023D3F
// 030   ----------------------------------------
 BYTE   PATT
  POIN2 Label_2_01023D3F
// 031   ----------------------------------------
 BYTE   PATT
  POIN2 Label_2_01023D3F
// 032   ----------------------------------------
 BYTE   PATT
  POIN2 Label_2_01023D3F
// 033   ----------------------------------------
 BYTE   PATT
  POIN2 Label_2_01023D3F
// 034   ----------------------------------------
 BYTE   PATT
  POIN2 Label_2_01023D3F
// 035   ----------------------------------------
 BYTE   PATT
  POIN2 Label_2_01023D3F
// 036   ----------------------------------------
 BYTE   PATT
  POIN2 Label_2_01023D3F
// 037   ----------------------------------------
 BYTE   PATT
  POIN2 Label_2_01023D3F
// 038   ----------------------------------------
 BYTE   PATT
  POIN2 Label_2_01023D3F
// 039   ----------------------------------------
 BYTE   PATT
  POIN2 Label_2_01023D3F
// 040   ----------------------------------------
 BYTE   PATT
  POIN2 Label_2_01023D3F
// 041   ----------------------------------------
 BYTE   PATT
  POIN2 Label_2_01023D3F
// 042   ----------------------------------------
 BYTE   PATT
  POIN2 Label_2_01023D3F
// 043   ----------------------------------------
 BYTE   PATT
  POIN2 Label_2_01023D3F
// 044   ----------------------------------------
 BYTE   PATT
  POIN2 Label_2_01023D3F
// 045   ----------------------------------------
 BYTE   PATT
  POIN2 Label_2_01023D3F
// 046   ----------------------------------------
 BYTE   PATT
  POIN2 Label_2_01023D3F
// 047   ----------------------------------------
 BYTE   PATT
  POIN2 Label_2_01023D3F
// 048   ----------------------------------------
 BYTE   N05  En2  v112
 BYTE   W06
 BYTE   N02  Gs1  v088
 BYTE   W06
 BYTE   Gs1  v068
 BYTE   W06
 BYTE   Gs1  v060
 BYTE   W06
 BYTE   N05  En2  v112
 BYTE   W06
 BYTE   N02  Gs1  v088
 BYTE   W06
 BYTE   Gs1  v068
 BYTE   W06
 BYTE   Gs1  v060
 BYTE   W06
 BYTE   N05  En2  v112
 BYTE   W06
 BYTE   N02  Gs1  v088
 BYTE   W06
 BYTE   N06  As1  v104
 BYTE   W06
 BYTE   N02  Gs1  v060
 BYTE   W06
 BYTE   N05  En2  v112
 BYTE   W06
 BYTE   N02  Gs1  v088
 BYTE   W06
 BYTE   Gs1  v068
 BYTE   W06
 BYTE   N05  En2  v088
 BYTE   W06
// 049   ----------------------------------------
 BYTE   En2  v112
 BYTE   W06
 BYTE   N02  Gs1  v088
 BYTE   W06
 BYTE   Gs1  v068
 BYTE   W06
 BYTE   Gs1  v060
 BYTE   W06
 BYTE   N05  En2  v112
 BYTE   W06
 BYTE   N02  Gs1  v088
 BYTE   W06
 BYTE   Gs1  v068
 BYTE   W06
 BYTE   Gs1  v060
 BYTE   W06
 BYTE   N05  En2  v112
 BYTE   W06
 BYTE   N02  Gs1  v088
 BYTE   W06
 BYTE   Gs1  v068
 BYTE   W06
 BYTE   Gs1  v060
 BYTE   W06
 BYTE   N05  En2  v112
 BYTE   W06
 BYTE   N02  Gs1  v088
 BYTE   W06
 BYTE   Gs1  v068
 BYTE   W06
 BYTE   Gs1  v060
 BYTE   W06
// 050   ----------------------------------------
 BYTE   N05  En2  v112
 BYTE   W06
 BYTE   N02  Gs1  v088
 BYTE   W06
 BYTE   Gs1  v068
 BYTE   W06
 BYTE   Gs1  v060
 BYTE   W06
 BYTE   N05  En2  v112
 BYTE   W06
 BYTE   N02  Gs1  v088
 BYTE   W06
 BYTE   Gs1  v068
 BYTE   W06
 BYTE   Gs1  v060
 BYTE   W06
 BYTE   N05  En2  v112
 BYTE   W06
 BYTE   N02  Gs1  v088
 BYTE   W12
 BYTE   Gs1  v060
 BYTE   W06
 BYTE   N05  En2  v112
 BYTE   W06
 BYTE   N02  Gs1  v088
 BYTE   W06
 BYTE   N06  As1  v104
 BYTE   W06
 BYTE   N02  Gs1  v060
 BYTE   W06
// 051   ----------------------------------------
Label_2_01023F2D:
 BYTE   N05  En2  v112
 BYTE   W12
 BYTE   N02  Gs1  v068
 BYTE   W12
 BYTE   N05  En2  v112
 BYTE   W12
 BYTE   N02  Gs1  v068
 BYTE   W12
 BYTE   N05  En2  v112
 BYTE   W12
 BYTE   N06  As1  v104
 BYTE   W12
 BYTE   N05  En2  v112
 BYTE   W12
 BYTE   N02  Gs1  v068
 BYTE   W12
 BYTE   PEND 
// 052   ----------------------------------------
 BYTE   PATT
  POIN2 Label_2_01023F2D
// 053   ----------------------------------------
Label_2_01023F53:
 BYTE   N05  En2  v112
 BYTE   W12
 BYTE   N02  Gs1  v068
 BYTE   W12
 BYTE   N05  En2  v112
 BYTE   W12
 BYTE   N02  Gs1  v068
 BYTE   W12
 BYTE   N05  En2  v112
 BYTE   W12
 BYTE   N02  Gs1  v068
 BYTE   N06  As1  v104
 BYTE   W12
 BYTE   N05  En2  v112
 BYTE   W12
 BYTE   N02  Gs1  v068
 BYTE   W12
 BYTE   PEND 
// 054   ----------------------------------------
 BYTE   PATT
  POIN2 Label_2_01023F53
// 055   ----------------------------------------
 BYTE   PATT
  POIN2 Label_2_01023F53
// 056   ----------------------------------------
 BYTE   PATT
  POIN2 Label_2_01023F53
// 057   ----------------------------------------
 BYTE   PATT
  POIN2 Label_2_01023F53
// 058   ----------------------------------------
 BYTE   PATT
  POIN2 Label_2_01023DAC
// 059   ----------------------------------------
 BYTE   PATT
  POIN2 Label_2_01023DAC
// 060   ----------------------------------------
 BYTE   PATT
  POIN2 Label_2_01023D3F
// 061   ----------------------------------------
 BYTE   PATT
  POIN2 Label_2_01023D3F
// 062   ----------------------------------------
 BYTE   PATT
  POIN2 Label_2_01023CF8
// 063   ----------------------------------------
 BYTE   PATT
  POIN2 Label_2_01023CF8
// 064   ----------------------------------------
 BYTE   PATT
  POIN2 Label_2_01023CF8
// 065   ----------------------------------------
 BYTE   PATT
  POIN2 Label_2_01023D1E
// 066   ----------------------------------------
 BYTE   PATT
  POIN2 Label_2_01023D3F
// 067   ----------------------------------------
 BYTE   PATT
  POIN2 Label_2_01023D3F
// 068   ----------------------------------------
 BYTE   PATT
  POIN2 Label_2_01023D3F
// 069   ----------------------------------------
 BYTE   PATT
  POIN2 Label_2_01023D3F
// 070   ----------------------------------------
 BYTE   GoTo
  POIN2 Label_2_01023D89
 BYTE   FINE

//**************** Track 4 (Midi-Chn.3) ****************//

Jaws_004:
// 000   ----------------------------------------
 BYTE   KEYSH   Jaws_key+0
 BYTE   VOICE   50
 BYTE   VOL   20*Jaws_mvl/mxv
 BYTE   PAN   c_v+0
 BYTE   W96
// 001   ----------------------------------------
 BYTE   W96
// 002   ----------------------------------------
 BYTE   W96
// 003   ----------------------------------------
 BYTE   W96
// 004   ----------------------------------------
 BYTE   W96
// 005   ----------------------------------------
 BYTE   W96
// 006   ----------------------------------------
 BYTE   W96
// 007   ----------------------------------------
 BYTE   W96
// 008   ----------------------------------------
Label_3_01024014:
 BYTE   N28  An0  v127
 BYTE   W36
 BYTE   N28
 BYTE   W36
 BYTE   N28
 BYTE   W24
 BYTE   PEND 
// 009   ----------------------------------------
Label_3_0102401D:
 BYTE   W12
 BYTE   N28  An0  v127
 BYTE   W36
 BYTE   N17
 BYTE   W24
 BYTE   N17
 BYTE   W24
 BYTE   PEND 
// 010   ----------------------------------------
Label_3_01024027:
 BYTE   N28  As0  v127
 BYTE   W36
 BYTE   N28
 BYTE   W36
 BYTE   N28
 BYTE   W24
 BYTE   PEND 
// 011   ----------------------------------------
Label_3_01024030:
 BYTE   W12
 BYTE   N28  As0  v127
 BYTE   W36
 BYTE   N17
 BYTE   W24
 BYTE   N17
 BYTE   W24
 BYTE   PEND 
// 012   ----------------------------------------
 BYTE   PATT
  POIN2 Label_3_01024014
// 013   ----------------------------------------
 BYTE   PATT
  POIN2 Label_3_0102401D
// 014   ----------------------------------------
 BYTE   PATT
  POIN2 Label_3_01024027
// 015   ----------------------------------------
 BYTE   PATT
  POIN2 Label_3_01024030
// 016   ----------------------------------------
Label_3_0102404E:
 BYTE   N32  Cn1  v127
 BYTE   W36
 BYTE   Gn1
 BYTE   W36
 BYTE   Cn1
 BYTE   W24
 BYTE   PEND 
// 017   ----------------------------------------
Label_3_01024057:
 BYTE   W12
 BYTE   N11  Gn1  v127
 BYTE   W12
 BYTE   N10  Fn1
 BYTE   W12
 BYTE   Ds1
 BYTE   W12
 BYTE   N11  Fn1
 BYTE   W12
 BYTE   N10  Ds1
 BYTE   W12
 BYTE   N11  Dn1
 BYTE   W12
 BYTE   N10  Cn1
 BYTE   W12
 BYTE   PEND 
// 018   ----------------------------------------
Label_3_0102406E:
 BYTE   N32  Gs0  v127
 BYTE   W36
 BYTE   Ds1
 BYTE   W36
 BYTE   Gs1
 BYTE   W24
 BYTE   PEND 
// 019   ----------------------------------------
 BYTE   W12
 BYTE   N10  As1
 BYTE   W12
 BYTE   Gs1
 BYTE   W12
 BYTE   Fs1
 BYTE   W12
 BYTE   Gs1
 BYTE   W12
 BYTE   Fs1
 BYTE   W12
 BYTE   N11  Ds1
 BYTE   W12
 BYTE   Cs1
 BYTE   W12
// 020   ----------------------------------------
 BYTE   PATT
  POIN2 Label_3_0102404E
// 021   ----------------------------------------
 BYTE   PATT
  POIN2 Label_3_01024057
// 022   ----------------------------------------
 BYTE   PATT
  POIN2 Label_3_0102406E
// 023   ----------------------------------------
 BYTE   W12
 BYTE   N10  As1  v127
 BYTE   W12
 BYTE   Gs1
 BYTE   W12
 BYTE   Gn1
 BYTE   W12
 BYTE   Gs1
 BYTE   W12
 BYTE   Gn1
 BYTE   W12
 BYTE   N11  Fn1
 BYTE   W12
 BYTE   Bn0
 BYTE   W12
// 024   ----------------------------------------
 BYTE   N28  Cn1
 BYTE   W36
 BYTE   N28
 BYTE   W36
 BYTE   N28
 BYTE   W24
// 025   ----------------------------------------
 BYTE   W12
 BYTE   N28
 BYTE   W36
 BYTE   N17
 BYTE   W24
 BYTE   N23
 BYTE   W24
// 026   ----------------------------------------
Label_3_010240B7:
 BYTE   N28  Bn0  v127
 BYTE   W36
 BYTE   N28
 BYTE   W36
 BYTE   N28
 BYTE   W24
 BYTE   PEND 
// 027   ----------------------------------------
 BYTE   W12
 BYTE   N32
 BYTE   W36
 BYTE   N23  Gn1
 BYTE   W24
 BYTE   Bn0
 BYTE   W24
// 028   ----------------------------------------
 BYTE   PATT
  POIN2 Label_3_01024027
// 029   ----------------------------------------
 BYTE   PATT
  POIN2 Label_3_01024030
// 030   ----------------------------------------
 BYTE   N28  Cs1  v127
 BYTE   W36
 BYTE   N28
 BYTE   W36
 BYTE   N28
 BYTE   W24
// 031   ----------------------------------------
 BYTE   W12
 BYTE   N32
 BYTE   W36
 BYTE   N23  Gs1
 BYTE   W24
 BYTE   Cs1
 BYTE   W24
// 032   ----------------------------------------
 BYTE   Cn1
 BYTE   W36
 BYTE   N11
 BYTE   W24
 BYTE   N11
 BYTE   W24
 BYTE   N11
 BYTE   W12
// 033   ----------------------------------------
 BYTE   W12
 BYTE   N32
 BYTE   W36
 BYTE   N23  Gn1
 BYTE   W24
 BYTE   Cn1
 BYTE   W24
// 034   ----------------------------------------
 BYTE   As0
 BYTE   W36
 BYTE   N23
 BYTE   W36
 BYTE   N23
 BYTE   W24
// 035   ----------------------------------------
 BYTE   W12
 BYTE   N23
 BYTE   W36
 BYTE   N17
 BYTE   W24
 BYTE   N23
 BYTE   W24
// 036   ----------------------------------------
 BYTE   N32  An0
 BYTE   W36
 BYTE   N23  Gn1
 BYTE   W24
 BYTE   Fn1
 BYTE   W24
 BYTE   Cn1
 BYTE   W12
// 037   ----------------------------------------
 BYTE   W12
 BYTE   N32  An0
 BYTE   W36
 BYTE   N23  Gn0
 BYTE   W24
 BYTE   Fn0
 BYTE   W24
// 038   ----------------------------------------
 BYTE   N28  Gs0
 BYTE   W36
 BYTE   N28
 BYTE   W36
 BYTE   N28
 BYTE   W24
// 039   ----------------------------------------
 BYTE   W12
 BYTE   N32
 BYTE   W36
 BYTE   N23  Gn0
 BYTE   W24
 BYTE   Gn1
 BYTE   W24
// 040   ----------------------------------------
 BYTE   PATT
  POIN2 Label_3_0102404E
// 041   ----------------------------------------
 BYTE   W12
 BYTE   N32  Gn1  v127
 BYTE   W36
 BYTE   N23  Cn1
 BYTE   W24
 BYTE   Gn1
 BYTE   W24
// 042   ----------------------------------------
 BYTE   N32  As0
 BYTE   W36
 BYTE   As1
 BYTE   W36
 BYTE   As0
 BYTE   W24
// 043   ----------------------------------------
 BYTE   W12
 BYTE   As1
 BYTE   W36
 BYTE   N23  As0
 BYTE   W24
 BYTE   As1
 BYTE   W24
// 044   ----------------------------------------
 BYTE   N32  Gs0
 BYTE   W36
 BYTE   Gs1
 BYTE   W36
 BYTE   Gs0
 BYTE   W24
// 045   ----------------------------------------
 BYTE   W12
 BYTE   Gs1
 BYTE   W36
 BYTE   N23  Gs0
 BYTE   W24
 BYTE   Gn1
 BYTE   W24
// 046   ----------------------------------------
 BYTE   N32  Fn1
 BYTE   W36
 BYTE   Fn0
 BYTE   W36
 BYTE   Gn1
 BYTE   W24
// 047   ----------------------------------------
 BYTE   W12
 BYTE   Gn0
 BYTE   W36
 BYTE   N16  Gs1
 BYTE   W24
 BYTE   N16
 BYTE   W24
// 048   ----------------------------------------
 BYTE   N28  Gn1
 BYTE   W36
 BYTE   N28
 BYTE   W36
 BYTE   N28
 BYTE   W24
// 049   ----------------------------------------
 BYTE   W12
 BYTE   N23
 BYTE   W36
 BYTE   N11
 BYTE   W24
 BYTE   N11
 BYTE   W24
// 050   ----------------------------------------
 BYTE   Cn1
 BYTE   W12
 BYTE   As0
 BYTE   W12
 BYTE   Cn1
 BYTE   W12
 BYTE   N28  Ds1
 BYTE   W36
 BYTE   N10  As0
 BYTE   W12
 BYTE   N23  Cn1
 BYTE   W12
// 051   ----------------------------------------
 BYTE   W12
 BYTE   N22  Gn0
 BYTE   W24
 BYTE   N11  As0
 BYTE   W12
 BYTE   Fn0
 BYTE   W12
 BYTE   Gn0
 BYTE   W12
 BYTE   Ds1
 BYTE   W12
 BYTE   Fn1
 BYTE   W12
// 052   ----------------------------------------
 BYTE   Gn1
 BYTE   W12
 BYTE   N22  Ds1
 BYTE   W24
 BYTE   N23  Fn1
 BYTE   W24
 BYTE   N11  Dn1
 BYTE   W12
 BYTE   Ds1
 BYTE   W12
 BYTE   N10  Cn1
 BYTE   W12
// 053   ----------------------------------------
 BYTE   W12
 BYTE   N11  As0
 BYTE   W12
 BYTE   Cn1
 BYTE   W12
 BYTE   N16  Ds1
 BYTE   W24
 BYTE   N11  As0
 BYTE   W12
 BYTE   N23  Cn1
 BYTE   W24
// 054   ----------------------------------------
 BYTE   N11  Fn0
 BYTE   W12
 BYTE   N23  Gn0
 BYTE   W24
 BYTE   N11  Fn0
 BYTE   W12
 BYTE   Gn0
 BYTE   W12
 BYTE   As0
 BYTE   W12
 BYTE   Cn1
 BYTE   W12
 BYTE   As0
 BYTE   W12
// 055   ----------------------------------------
 BYTE   Cn1
 BYTE   W12
 BYTE   Ds1
 BYTE   W12
 BYTE   Fn1
 BYTE   W12
 BYTE   Ds1
 BYTE   W12
 BYTE   Fn1
 BYTE   W12
 BYTE   Gn1
 BYTE   W12
 BYTE   As1
 BYTE   W12
 BYTE   Gn1
 BYTE   W12
// 056   ----------------------------------------
 BYTE   As0
 BYTE   W12
 BYTE   Cn1
 BYTE   W12
 BYTE   Ds1
 BYTE   W12
 BYTE   Cn1
 BYTE   W12
 BYTE   Ds1
 BYTE   W12
 BYTE   Fn1
 BYTE   W12
 BYTE   Gn1
 BYTE   W12
 BYTE   Fn1
 BYTE   W12
// 057   ----------------------------------------
 BYTE   PATT
  POIN2 Label_3_010240B7
// 058   ----------------------------------------
 BYTE   W12
 BYTE   N28  Bn0  v127
 BYTE   W36
 BYTE   N11
 BYTE   W24
 BYTE   N11
 BYTE   W24
// 059   ----------------------------------------
 BYTE   N28  Gn0
 BYTE   W36
 BYTE   N28
 BYTE   W36
 BYTE   N28
 BYTE   W24
// 060   ----------------------------------------
 BYTE   W12
 BYTE   N23
 BYTE   W36
 BYTE   N11
 BYTE   W24
 BYTE   N11
 BYTE   W24
// 061   ----------------------------------------
Label_3_010241F5:
 BYTE   N56  An0  v127
 BYTE   W60
 BYTE   N23  En1
 BYTE   W24
 BYTE   N44  An1
 BYTE   W12
 BYTE   PEND 
// 062   ----------------------------------------
 BYTE   W36
 BYTE   N56  An0
 BYTE   W60
// 063   ----------------------------------------
Label_3_01024204:
 BYTE   N56  As0  v127
 BYTE   W60
 BYTE   N23  Fn1
 BYTE   W24
 BYTE   N44  As1
 BYTE   W12
 BYTE   PEND 
// 064   ----------------------------------------
 BYTE   W36
 BYTE   N56  As0
 BYTE   W60
// 065   ----------------------------------------
 BYTE   PATT
  POIN2 Label_3_010241F5
// 066   ----------------------------------------
 BYTE   W36
 BYTE   N56  An0  v127
 BYTE   W60
// 067   ----------------------------------------
 BYTE   PATT
  POIN2 Label_3_01024204
// 068   ----------------------------------------
 BYTE   W36
 BYTE   N56  As0  v127
 BYTE   W60
// 069   ----------------------------------------
 BYTE   GoTo
  POIN2 Label_3_01024014
 BYTE   FINE

//**************** Track 5 (Midi-Chn.4) ****************//

Jaws_005:
// 000   ----------------------------------------
 BYTE   KEYSH   Jaws_key+0
 BYTE   VOICE   1
 BYTE   VOL   54*Jaws_mvl/mxv
 BYTE   PAN   c_v-8
 BYTE   N05  An1  v088
 BYTE   N05  Gn2
 BYTE   N05  An2
 BYTE   N05  Cn3
 BYTE   N05  En3
 BYTE   W24
 BYTE   N28  An1
 BYTE   N28  Gn2
 BYTE   N28  Cn3
 BYTE   N28  En3
 BYTE   N28  Gn3
 BYTE   W36
 BYTE   N05  An1
 BYTE   N05  Gn2
 BYTE   N05  An2
 BYTE   N05  Cn3
 BYTE   N05  En3
 BYTE   W24
 BYTE   N32  An1
 BYTE   N32  Gn2
 BYTE   N32  Cn3
 BYTE   N32  En3
 BYTE   N32  Gn3
 BYTE   W12
// 001   ----------------------------------------
Label_4_01024265:
 BYTE   W36
 BYTE   N05  An1  v088
 BYTE   N05  Gn2
 BYTE   N05  An2
 BYTE   N05  Cn3
 BYTE   N05  En3
 BYTE   W24
 BYTE   N28  An1
 BYTE   N28  Gn2
 BYTE   N28  Cn3
 BYTE   N28  En3
 BYTE   N28  Gn3
 BYTE   W36
 BYTE   PEND 
// 002   ----------------------------------------
Label_4_0102427E:
 BYTE   N05  As1  v088
 BYTE   N05  Gs2
 BYTE   N05  Cn3
 BYTE   N05  Ds3
 BYTE   W24
 BYTE   N28  As1
 BYTE   N28  Gs2
 BYTE   N28  Cn3
 BYTE   N28  Ds3
 BYTE   N28  Gn3
 BYTE   W36
 BYTE   N05  As1
 BYTE   N05  Gs2
 BYTE   N05  Cn3
 BYTE   N05  Ds3
 BYTE   W24
 BYTE   N32  As1
 BYTE   N32  Gs2
 BYTE   N32  Cn3
 BYTE   N32  Ds3
 BYTE   N32  Gn3
 BYTE   W12
 BYTE   PEND 
// 003   ----------------------------------------
Label_4_010242A8:
 BYTE   W36
 BYTE   N05  As1  v088
 BYTE   N05  Gs2
 BYTE   N05  Cn3
 BYTE   N05  Ds3
 BYTE   W24
 BYTE   N28  As1
 BYTE   N28  Gs2
 BYTE   N28  Cn3
 BYTE   N28  Ds3
 BYTE   N28  Gn3
 BYTE   W36
 BYTE   PEND 
// 004   ----------------------------------------
Label_4_010242BF:
 BYTE   N05  An1  v088
 BYTE   N05  Gn2
 BYTE   N05  Cn3
 BYTE   N05  En3
 BYTE   W24
 BYTE   N23  An1
 BYTE   N23  Gn2
 BYTE   N28  Cn3
 BYTE   N28  En3
 BYTE   N28  Gn3
 BYTE   W36
 BYTE   N05  An1
 BYTE   N05  Gn2
 BYTE   N05  Cn3
 BYTE   N05  En3
 BYTE   W24
 BYTE   N32  An1
 BYTE   N32  Gn2
 BYTE   N32  Cn3
 BYTE   N32  En3
 BYTE   N32  Gn3
 BYTE   W12
 BYTE   PEND 
// 005   ----------------------------------------
Label_4_010242E9:
 BYTE   W36
 BYTE   N05  An1  v088
 BYTE   N05  Gn2
 BYTE   N05  Cn3
 BYTE   N05  En3
 BYTE   W24
 BYTE   N28  An1
 BYTE   N28  Gn2
 BYTE   N28  Cn3
 BYTE   N28  En3
 BYTE   N28  Gn3
 BYTE   W36
 BYTE   PEND 
// 006   ----------------------------------------
 BYTE   PATT
  POIN2 Label_4_0102427E
// 007   ----------------------------------------
 BYTE   PATT
  POIN2 Label_4_010242A8
// 008   ----------------------------------------
Label_4_0102430A:
 BYTE   N05  En2  v088
 BYTE   N05  An2
 BYTE   N05  En3
 BYTE   W24
 BYTE   N23  En2
 BYTE   N28  Cn3
 BYTE   N28  Gn3
 BYTE   W36
 BYTE   N05  En2
 BYTE   N05  An2
 BYTE   N05  En3
 BYTE   W24
 BYTE   N32  En2
 BYTE   N32  Cn3
 BYTE   N32  Gn3
 BYTE   W12
 BYTE   PEND 
// 009   ----------------------------------------
Label_4_01024328:
 BYTE   W36
 BYTE   N05  En2  v088
 BYTE   N05  An2
 BYTE   N05  En3
 BYTE   W24
 BYTE   N28  En2
 BYTE   N28  Cn3
 BYTE   N28  Gn3
 BYTE   W36
 BYTE   PEND 
// 010   ----------------------------------------
Label_4_01024339:
 BYTE   N05  Fn2  v088
 BYTE   N05  Gs2
 BYTE   N05  Ds3
 BYTE   W24
 BYTE   N28  Fn2
 BYTE   N28  Cn3
 BYTE   N28  Gn3
 BYTE   W36
 BYTE   N05  Fn2
 BYTE   N05  Gs2
 BYTE   N05  Ds3
 BYTE   W24
 BYTE   N32  Fn2
 BYTE   N32  Cn3
 BYTE   N32  Gn3
 BYTE   W12
 BYTE   PEND 
// 011   ----------------------------------------
Label_4_01024357:
 BYTE   W36
 BYTE   N05  Fn2  v088
 BYTE   N05  Gs2
 BYTE   N05  Ds3
 BYTE   W24
 BYTE   N28  Fn2
 BYTE   N28  Cn3
 BYTE   N28  Gn3
 BYTE   W36
 BYTE   PEND 
// 012   ----------------------------------------
 BYTE   PATT
  POIN2 Label_4_0102430A
// 013   ----------------------------------------
 BYTE   PATT
  POIN2 Label_4_01024328
// 014   ----------------------------------------
 BYTE   PATT
  POIN2 Label_4_01024339
// 015   ----------------------------------------
 BYTE   PATT
  POIN2 Label_4_01024357
// 016   ----------------------------------------
Label_4_0102437C:
 BYTE   N23  Gn2  v088
 BYTE   N23  Cn3
 BYTE   N23  Ds3
 BYTE   W36
 BYTE   Gn2
 BYTE   N23  Cn3
 BYTE   N23  Ds3
 BYTE   W36
 BYTE   Gn2
 BYTE   N23  Cn3
 BYTE   N23  Ds3
 BYTE   W24
 BYTE   PEND 
// 017   ----------------------------------------
 BYTE   W12
 BYTE   N17  Gn2
 BYTE   N17  Cn3
 BYTE   N17  Ds3
 BYTE   W36
 BYTE   N11  Gn2
 BYTE   N11  Cn3
 BYTE   N11  Ds3
 BYTE   W24
 BYTE   Gn2
 BYTE   N11  Cn3
 BYTE   N11  Ds3
 BYTE   W24
// 018   ----------------------------------------
Label_4_010243A6:
 BYTE   N23  Gs2  v088
 BYTE   N23  Bn2
 BYTE   N23  Ds3
 BYTE   W36
 BYTE   Gs2
 BYTE   N23  Bn2
 BYTE   N23  Ds3
 BYTE   W36
 BYTE   Gs2
 BYTE   N23  Bn2
 BYTE   N23  Ds3
 BYTE   W24
 BYTE   PEND 
// 019   ----------------------------------------
Label_4_010243BB:
 BYTE   W12
 BYTE   N23  Gs2  v088
 BYTE   N23  Bn2
 BYTE   N23  Ds3
 BYTE   W36
 BYTE   N11  Gs2
 BYTE   N11  Bn2
 BYTE   N11  Ds3
 BYTE   W24
 BYTE   Gs2
 BYTE   N11  Bn2
 BYTE   N11  Ds3
 BYTE   W24
 BYTE   PEND 
// 020   ----------------------------------------
 BYTE   PATT
  POIN2 Label_4_0102437C
// 021   ----------------------------------------
 BYTE   W12
 BYTE   N23  Gn2  v088
 BYTE   N23  Cn3
 BYTE   N23  Ds3
 BYTE   W36
 BYTE   N14  Gn2
 BYTE   N14  Cn3
 BYTE   N14  Ds3
 BYTE   W24
 BYTE   Gn2
 BYTE   N14  Cn3
 BYTE   N14  Ds3
 BYTE   W24
// 022   ----------------------------------------
 BYTE   PATT
  POIN2 Label_4_010243A6
// 023   ----------------------------------------
 BYTE   PATT
  POIN2 Label_4_010243BB
// 024   ----------------------------------------
 BYTE   N23  Gn2  v088
 BYTE   N23  As2
 BYTE   N23  Ds3
 BYTE   W36
 BYTE   Gn2
 BYTE   N23  As2
 BYTE   N23  Ds3
 BYTE   W36
 BYTE   Gn2
 BYTE   N23  As2
 BYTE   N23  Ds3
 BYTE   W24
// 025   ----------------------------------------
 BYTE   W12
 BYTE   Gn2
 BYTE   N23  As2
 BYTE   N23  Ds3
 BYTE   W36
 BYTE   N11  Gn2
 BYTE   N11  As2
 BYTE   N11  Ds3
 BYTE   W24
 BYTE   Gn2
 BYTE   N11  As2
 BYTE   N11  Ds3
 BYTE   W24
// 026   ----------------------------------------
 BYTE   N23  Gs2
 BYTE   N23  Dn3
 BYTE   W36
 BYTE   Gs2
 BYTE   N23  Dn3
 BYTE   W36
 BYTE   Gs2
 BYTE   N23  Dn3
 BYTE   W24
// 027   ----------------------------------------
 BYTE   W12
 BYTE   Gs2
 BYTE   N23  Dn3
 BYTE   W36
 BYTE   N11  Gs2
 BYTE   N11  Dn3
 BYTE   W24
 BYTE   Gs2
 BYTE   N11  Dn3
 BYTE   W24
// 028   ----------------------------------------
 BYTE   N23  Gn2
 BYTE   N23  Cn3
 BYTE   N23  Ds3
 BYTE   W36
 BYTE   N28  Gn2
 BYTE   N28  Cn3
 BYTE   N28  Ds3
 BYTE   W36
 BYTE   N23  Gn2
 BYTE   N23  Cn3
 BYTE   N23  Ds3
 BYTE   W24
// 029   ----------------------------------------
 BYTE   W12
 BYTE   Gn2
 BYTE   N23  Cn3
 BYTE   N23  Ds3
 BYTE   W36
 BYTE   N11  Gn2
 BYTE   N11  Cn3
 BYTE   N11  Ds3
 BYTE   W24
 BYTE   Gn2
 BYTE   N11  Cn3
 BYTE   N11  Ds3
 BYTE   W24
// 030   ----------------------------------------
 BYTE   N22  Gs2
 BYTE   N23  Bn2
 BYTE   N23  Ds3
 BYTE   W36
 BYTE   N11  Gs2
 BYTE   N11  Bn2
 BYTE   N11  Ds3
 BYTE   W36
 BYTE   N23  Gs2
 BYTE   N23  Bn2
 BYTE   N23  Ds3
 BYTE   W24
// 031   ----------------------------------------
 BYTE   W12
 BYTE   N17  Gs2
 BYTE   N17  Bn2
 BYTE   N17  Ds3
 BYTE   W36
 BYTE   N11  Gs2
 BYTE   N11  Bn2
 BYTE   N11  Ds3
 BYTE   W24
 BYTE   Gs2
 BYTE   N11  Bn2
 BYTE   N11  Ds3
 BYTE   W24
// 032   ----------------------------------------
 BYTE   N23  Cn3
 BYTE   N23  Dn3
 BYTE   N23  Gn3
 BYTE   W36
 BYTE   N11  Cn3
 BYTE   N11  Dn3
 BYTE   N11  Gn3
 BYTE   W24
 BYTE   Cn3
 BYTE   N11  Dn3
 BYTE   N11  Gn3
 BYTE   W24
 BYTE   N09  Cn3
 BYTE   N09  Dn3
 BYTE   N09  Gn3
 BYTE   W12
// 033   ----------------------------------------
 BYTE   W12
 BYTE   N23  Cn3
 BYTE   N23  Dn3
 BYTE   N23  Gn3
 BYTE   W36
 BYTE   N11  Cn3
 BYTE   N11  Dn3
 BYTE   N11  Gn3
 BYTE   W24
 BYTE   Cn3
 BYTE   N11  Dn3
 BYTE   N11  Gn3
 BYTE   W24
// 034   ----------------------------------------
 BYTE   N23  As2
 BYTE   N23  Ds3
 BYTE   N23  Gn3
 BYTE   W36
 BYTE   As2
 BYTE   N23  Ds3
 BYTE   N23  Gn3
 BYTE   W36
 BYTE   As2
 BYTE   N23  Ds3
 BYTE   N23  Gn3
 BYTE   W24
// 035   ----------------------------------------
 BYTE   W12
 BYTE   As2
 BYTE   N23  Ds3
 BYTE   N23  Gn3
 BYTE   W36
 BYTE   N11  As2
 BYTE   N11  Ds3
 BYTE   N11  Gn3
 BYTE   W24
 BYTE   As2
 BYTE   N11  Ds3
 BYTE   N11  Gn3
 BYTE   W24
// 036   ----------------------------------------
 BYTE   N28  Cn3
 BYTE   N28  Ds3
 BYTE   N28  Gn3
 BYTE   W36
 BYTE   N17  Cn3
 BYTE   N17  Ds3
 BYTE   N17  Gn3
 BYTE   W36
 BYTE   N28  Cn3
 BYTE   N28  Ds3
 BYTE   N28  Gn3
 BYTE   W24
// 037   ----------------------------------------
 BYTE   W12
 BYTE   N23  Cn3
 BYTE   N23  Ds3
 BYTE   N23  Gn3
 BYTE   W36
 BYTE   N11  Cn3
 BYTE   N11  Ds3
 BYTE   N11  Gn3
 BYTE   W24
 BYTE   Cn3
 BYTE   N11  Ds3
 BYTE   N11  Gn3
 BYTE   W24
// 038   ----------------------------------------
 BYTE   N28  Bn2
 BYTE   N28  Ds3
 BYTE   N28  Fs3
 BYTE   W36
 BYTE   N16  Bn2
 BYTE   N16  Ds3
 BYTE   N17  Fs3
 BYTE   W36
 BYTE   N23  Bn2
 BYTE   N23  Ds3
 BYTE   N23  Fs3
 BYTE   W24
// 039   ----------------------------------------
 BYTE   W12
 BYTE   Bn2
 BYTE   N23  Ds3
 BYTE   N23  Fs3
 BYTE   W36
 BYTE   N11  Bn2
 BYTE   N11  Fn3
 BYTE   N11  Gn3
 BYTE   W24
 BYTE   Bn2
 BYTE   N11  Fn3
 BYTE   N11  Gn3
 BYTE   W24
// 040   ----------------------------------------
 BYTE   W96
// 041   ----------------------------------------
 BYTE   W96
// 042   ----------------------------------------
 BYTE   W96
// 043   ----------------------------------------
 BYTE   W96
// 044   ----------------------------------------
 BYTE   W96
// 045   ----------------------------------------
 BYTE   W96
// 046   ----------------------------------------
 BYTE   W96
// 047   ----------------------------------------
 BYTE   W96
// 048   ----------------------------------------
 BYTE   W96
// 049   ----------------------------------------
 BYTE   W96
// 050   ----------------------------------------
 BYTE   Cn3
 BYTE   N11  Gn3
 BYTE   N11  Cn4
 BYTE   W12
 BYTE   As2
 BYTE   N11  Fn3
 BYTE   N11  As3
 BYTE   W12
 BYTE   Cn3
 BYTE   N11  Gn3
 BYTE   N11  Cn4
 BYTE   W12
 BYTE   N28  Ds3
 BYTE   N28  As3
 BYTE   N28  Ds4
 BYTE   W36
 BYTE   N11  As2
 BYTE   N11  Fn3
 BYTE   N11  As3
 BYTE   W12
 BYTE   N12  Cn3
 BYTE   N12  Gn3
 BYTE   N12  Cn4
 BYTE   W12
// 051   ----------------------------------------
 BYTE   W12
 BYTE   N17  Gn2
 BYTE   N17  Dn3
 BYTE   N17  Gn3
 BYTE   W24
 BYTE   N11  As2
 BYTE   N11  Fn3
 BYTE   N11  As3
 BYTE   W12
 BYTE   Fn2
 BYTE   N11  Cn3
 BYTE   N11  Fn3
 BYTE   W12
 BYTE   Gn2
 BYTE   N11  Dn3
 BYTE   N11  Gn3
 BYTE   W12
 BYTE   Ds2
 BYTE   N11  As2
 BYTE   N11  Ds3
 BYTE   W12
 BYTE   Fn2
 BYTE   N11  Cn3
 BYTE   N11  Fn3
 BYTE   W12
// 052   ----------------------------------------
 BYTE   Gn2
 BYTE   N11  Dn3
 BYTE   N11  Gn3
 BYTE   W12
 BYTE   N23  Ds2
 BYTE   N23  As2
 BYTE   N23  Ds3
 BYTE   W24
 BYTE   N17  Fn2
 BYTE   N17  Cn3
 BYTE   N17  Fn3
 BYTE   W24
 BYTE   N11  Dn2
 BYTE   N11  An2
 BYTE   N11  Dn3
 BYTE   W12
 BYTE   Ds2
 BYTE   N11  As2
 BYTE   N11  Ds3
 BYTE   W12
 BYTE   Cn2
 BYTE   N11  Gn2
 BYTE   N11  Cn3
 BYTE   W12
// 053   ----------------------------------------
 BYTE   W12
 BYTE   As1
 BYTE   N11  Fn2
 BYTE   N11  As2
 BYTE   W12
 BYTE   Cn2
 BYTE   N11  Gn2
 BYTE   N11  Cn3
 BYTE   W12
 BYTE   N17  Ds2
 BYTE   N17  As2
 BYTE   N17  Ds3
 BYTE   W24
 BYTE   N11  As1
 BYTE   N11  Fn2
 BYTE   N11  As2
 BYTE   W12
 BYTE   N17  Cn2
 BYTE   N17  Gn2
 BYTE   N17  Cn3
 BYTE   W24
// 054   ----------------------------------------
 BYTE   N11  Fn1  v096
 BYTE   N11  Fn2
 BYTE   W12
 BYTE   N23  Gn1
 BYTE   N23  Gn2
 BYTE   W24
 BYTE   N11  Fn1
 BYTE   N11  Fn2
 BYTE   W12
 BYTE   Gn1
 BYTE   N11  Gn2
 BYTE   W12
 BYTE   As1
 BYTE   N11  As2
 BYTE   W12
 BYTE   Cn2
 BYTE   N11  Cn3
 BYTE   W12
 BYTE   As1
 BYTE   N11  As2
 BYTE   W12
// 055   ----------------------------------------
 BYTE   Cn2
 BYTE   N11  Cn3
 BYTE   W12
 BYTE   Ds2
 BYTE   N11  Ds3
 BYTE   W12
 BYTE   Fn2
 BYTE   N11  Fn3
 BYTE   W12
 BYTE   Ds2
 BYTE   N11  Ds3
 BYTE   W12
 BYTE   Fn2
 BYTE   N11  Fn3
 BYTE   W12
 BYTE   Gn2
 BYTE   N11  Gn3
 BYTE   W12
 BYTE   As2
 BYTE   N11  As3
 BYTE   W12
 BYTE   Gn2
 BYTE   N11  Gn3
 BYTE   W12
// 056   ----------------------------------------
 BYTE   As1
 BYTE   N11  As2
 BYTE   W12
 BYTE   Cn2
 BYTE   N11  Cn3
 BYTE   W12
 BYTE   Ds2
 BYTE   N11  Ds3
 BYTE   W12
 BYTE   Cn2
 BYTE   N11  Cn3
 BYTE   W12
 BYTE   Ds2
 BYTE   N11  Ds3
 BYTE   W12
 BYTE   Fn2
 BYTE   N11  Fn3
 BYTE   W12
 BYTE   Gn2
 BYTE   N11  Gn3
 BYTE   W12
 BYTE   Fn2
 BYTE   N11  Fn3
 BYTE   W12
// 057   ----------------------------------------
 BYTE   N23  Gs2
 BYTE   N23  Bn2
 BYTE   N23  Cs3
 BYTE   W36
 BYTE   Gs2
 BYTE   N23  Bn2
 BYTE   N23  Cs3
 BYTE   W36
 BYTE   N24  Gs2
 BYTE   N24  Bn2
 BYTE   N24  Cs3
 BYTE   W24
// 058   ----------------------------------------
 BYTE   W12
 BYTE   N23  Gs2
 BYTE   N23  Bn2
 BYTE   N23  Cs3
 BYTE   W36
 BYTE   N11  Gs2
 BYTE   N11  Bn2
 BYTE   N11  Cs3
 BYTE   W24
 BYTE   Gs2
 BYTE   N11  Bn2
 BYTE   N11  Cs3
 BYTE   W24
// 059   ----------------------------------------
 BYTE   N23  Fn2
 BYTE   N23  Gs2
 BYTE   N23  Bn2
 BYTE   W36
 BYTE   Fn2
 BYTE   N23  Gn2
 BYTE   N23  Bn2
 BYTE   W36
 BYTE   Fn2
 BYTE   N23  Gn2
 BYTE   N23  Bn2
 BYTE   W24
// 060   ----------------------------------------
 BYTE   W12
 BYTE   Fn2
 BYTE   N23  Gn2
 BYTE   N23  Bn2
 BYTE   W36
 BYTE   N11  Fn2
 BYTE   N11  Gn2
 BYTE   N11  Bn2
 BYTE   W24
 BYTE   Fn2
 BYTE   N11  Gn2
 BYTE   N11  Bn2
 BYTE   W24
// 061   ----------------------------------------
 BYTE   N05  An1  v088
 BYTE   N05  Gn2
 BYTE   N05  An2
 BYTE   N05  Cn3
 BYTE   N05  En3
 BYTE   W24
 BYTE   N28  An1
 BYTE   N28  Gn2
 BYTE   N28  Cn3
 BYTE   N28  En3
 BYTE   N28  Gn3
 BYTE   W36
 BYTE   N05  An1
 BYTE   N05  Gn2
 BYTE   N05  An2
 BYTE   N05  Cn3
 BYTE   N05  En3
 BYTE   W24
 BYTE   N32  An1
 BYTE   N32  Gn2
 BYTE   N32  Cn3
 BYTE   N32  En3
 BYTE   N32  Gn3
 BYTE   W12
// 062   ----------------------------------------
 BYTE   PATT
  POIN2 Label_4_01024265
// 063   ----------------------------------------
 BYTE   PATT
  POIN2 Label_4_0102427E
// 064   ----------------------------------------
 BYTE   PATT
  POIN2 Label_4_010242A8
// 065   ----------------------------------------
 BYTE   PATT
  POIN2 Label_4_010242BF
// 066   ----------------------------------------
 BYTE   PATT
  POIN2 Label_4_010242E9
// 067   ----------------------------------------
 BYTE   PATT
  POIN2 Label_4_0102427E
// 068   ----------------------------------------
 BYTE   PATT
  POIN2 Label_4_010242A8
// 069   ----------------------------------------
 BYTE   GoTo
  POIN2 Label_4_0102430A
 BYTE   FINE

//**************** Track 6 (Midi-Chn.5) ****************//

Jaws_006:
// 000   ----------------------------------------
 BYTE   KEYSH   Jaws_key+0
 BYTE   VOICE   1
 BYTE   VOL   54*Jaws_mvl/mxv
 BYTE   PAN   c_v-64
 BYTE   W96
// 001   ----------------------------------------
 BYTE   W96
// 002   ----------------------------------------
 BYTE   W96
// 003   ----------------------------------------
 BYTE   W96
// 004   ----------------------------------------
 BYTE   W96
// 005   ----------------------------------------
 BYTE   W96
// 006   ----------------------------------------
 BYTE   W96
// 007   ----------------------------------------
 BYTE   W96
// 008   ----------------------------------------
Label_5_01024700:
 BYTE   TIE  Bn3  v096
 BYTE   W96
// 009   ----------------------------------------
 BYTE   W88
 BYTE   W01
 BYTE   EOT
 BYTE   W07
// 010   ----------------------------------------
 BYTE   TIE  Cn4
 BYTE   W96
// 011   ----------------------------------------
 BYTE   W88
 BYTE   W01
 BYTE   EOT
 BYTE   W07
// 012   ----------------------------------------
 BYTE   TIE  Bn3
 BYTE   W96
// 013   ----------------------------------------
 BYTE   W88
 BYTE   W01
 BYTE   EOT
 BYTE   W07
// 014   ----------------------------------------
 BYTE   TIE  Cn4
 BYTE   W96
// 015   ----------------------------------------
 BYTE   W88
 BYTE   W01
 BYTE   EOT
 BYTE   W07
// 016   ----------------------------------------
 BYTE   TIE  Ds4
 BYTE   W96
// 017   ----------------------------------------
 BYTE   W88
 BYTE   W01
 BYTE   EOT
 BYTE   W07
// 018   ----------------------------------------
 BYTE   TIE
 BYTE   W96
// 019   ----------------------------------------
 BYTE   W88
 BYTE   W01
 BYTE   EOT
 BYTE   W07
// 020   ----------------------------------------
 BYTE   TIE
 BYTE   W96
// 021   ----------------------------------------
 BYTE   W88
 BYTE   W01
 BYTE   EOT
 BYTE   W07
// 022   ----------------------------------------
 BYTE   TIE
 BYTE   W96
// 023   ----------------------------------------
 BYTE   W88
 BYTE   W01
 BYTE   EOT
 BYTE   W07
// 024   ----------------------------------------
 BYTE   TIE
 BYTE   W96
// 025   ----------------------------------------
 BYTE   W88
 BYTE   W01
 BYTE   EOT
 BYTE   W07
// 026   ----------------------------------------
 BYTE   TIE  Dn4
 BYTE   W96
// 027   ----------------------------------------
 BYTE   W88
 BYTE   W01
 BYTE   EOT
 BYTE   W07
// 028   ----------------------------------------
 BYTE   TIE  Ds4
 BYTE   W96
// 029   ----------------------------------------
 BYTE   W88
 BYTE   W01
 BYTE   EOT
 BYTE   W07
// 030   ----------------------------------------
 BYTE   TIE  Fn4
 BYTE   W96
// 031   ----------------------------------------
 BYTE   W88
 BYTE   W01
 BYTE   EOT
 BYTE   W07
// 032   ----------------------------------------
 BYTE   TIE  Dn4
 BYTE   W96
// 033   ----------------------------------------
 BYTE   W88
 BYTE   W01
 BYTE   EOT
 BYTE   W07
// 034   ----------------------------------------
 BYTE   TIE  Ds4
 BYTE   W96
// 035   ----------------------------------------
 BYTE   W88
 BYTE   W01
 BYTE   EOT
 BYTE   W07
// 036   ----------------------------------------
 BYTE   TIE  Gn4
 BYTE   W96
// 037   ----------------------------------------
 BYTE   W88
 BYTE   W01
 BYTE   EOT
 BYTE   W07
// 038   ----------------------------------------
 BYTE   TIE  Fs4
 BYTE   W96
// 039   ----------------------------------------
 BYTE   W44
 BYTE   W03
 BYTE   EOT
 BYTE   W01
 BYTE   N44  Gn4
 BYTE   W48
// 040   ----------------------------------------
 BYTE   TIE  Ds4
 BYTE   W96
// 041   ----------------------------------------
 BYTE   W96
// 042   ----------------------------------------
 BYTE   W96
// 043   ----------------------------------------
 BYTE   W92
 BYTE   W03
 BYTE   EOT
 BYTE   W01
// 044   ----------------------------------------
 BYTE   TIE
 BYTE   W96
// 045   ----------------------------------------
 BYTE   W92
 BYTE   W03
 BYTE   EOT
 BYTE   W01
// 046   ----------------------------------------
 BYTE   N68
 BYTE   W72
 BYTE   Fn4
 BYTE   W24
// 047   ----------------------------------------
 BYTE   W48
 BYTE   N44  Gn4
 BYTE   W48
// 048   ----------------------------------------
 BYTE   TIE
 BYTE   W96
// 049   ----------------------------------------
 BYTE   W92
 BYTE   W03
 BYTE   EOT
 BYTE   W01
// 050   ----------------------------------------
 BYTE   W96
// 051   ----------------------------------------
 BYTE   W96
// 052   ----------------------------------------
 BYTE   W96
// 053   ----------------------------------------
 BYTE   W96
// 054   ----------------------------------------
 BYTE   W96
// 055   ----------------------------------------
 BYTE   W96
// 056   ----------------------------------------
 BYTE   W96
// 057   ----------------------------------------
Label_5_01024794:
 BYTE   N23  Bn4  v096
 BYTE   W36
 BYTE   N17
 BYTE   W36
 BYTE   N23
 BYTE   W24
 BYTE   PEND 
// 058   ----------------------------------------
Label_5_0102479D:
 BYTE   W12
 BYTE   N23  Bn4  v096
 BYTE   W36
 BYTE   N11
 BYTE   W24
 BYTE   N11
 BYTE   W24
 BYTE   PEND 
// 059   ----------------------------------------
 BYTE   PATT
  POIN2 Label_5_01024794
// 060   ----------------------------------------
 BYTE   PATT
  POIN2 Label_5_0102479D
// 061   ----------------------------------------
 BYTE   W96
// 062   ----------------------------------------
 BYTE   W96
// 063   ----------------------------------------
 BYTE   W96
// 064   ----------------------------------------
 BYTE   W96
// 065   ----------------------------------------
 BYTE   W96
// 066   ----------------------------------------
 BYTE   W96
// 067   ----------------------------------------
 BYTE   W96
// 068   ----------------------------------------
 BYTE   W96
// 069   ----------------------------------------
 BYTE   GoTo
  POIN2 Label_5_01024700
 BYTE   FINE

//**************** Track 7 (Midi-Chn.6) ****************//

Jaws_007:
// 000   ----------------------------------------
 BYTE   KEYSH   Jaws_key+0
 BYTE   VOICE   1
 BYTE   VOL   54*Jaws_mvl/mxv
 BYTE   PAN   c_v+63
 BYTE   W96
// 001   ----------------------------------------
 BYTE   W96
// 002   ----------------------------------------
 BYTE   W96
// 003   ----------------------------------------
 BYTE   W96
// 004   ----------------------------------------
 BYTE   W96
// 005   ----------------------------------------
 BYTE   W96
// 006   ----------------------------------------
 BYTE   W96
// 007   ----------------------------------------
 BYTE   W96
// 008   ----------------------------------------
Label_6_010247D0:
 BYTE   TIE  Gn3  v096
 BYTE   W96
// 009   ----------------------------------------
 BYTE   W88
 BYTE   W01
 BYTE   EOT
 BYTE   W07
// 010   ----------------------------------------
 BYTE   TIE  Gs3
 BYTE   W96
// 011   ----------------------------------------
 BYTE   W88
 BYTE   W01
 BYTE   EOT
 BYTE   W07
// 012   ----------------------------------------
 BYTE   TIE  Gn3
 BYTE   W96
// 013   ----------------------------------------
 BYTE   W88
 BYTE   W01
 BYTE   EOT
 BYTE   W07
// 014   ----------------------------------------
 BYTE   TIE  Gs3
 BYTE   W96
// 015   ----------------------------------------
 BYTE   W88
 BYTE   W01
 BYTE   EOT
 BYTE   W07
// 016   ----------------------------------------
 BYTE   TIE  Cn4
 BYTE   W96
// 017   ----------------------------------------
 BYTE   W88
 BYTE   W01
 BYTE   EOT
 BYTE   W07
// 018   ----------------------------------------
 BYTE   TIE  Bn3
 BYTE   W96
// 019   ----------------------------------------
 BYTE   W88
 BYTE   W01
 BYTE   EOT
 BYTE   W07
// 020   ----------------------------------------
 BYTE   TIE  Cn4
 BYTE   W96
// 021   ----------------------------------------
 BYTE   W88
 BYTE   W01
 BYTE   EOT
 BYTE   W07
// 022   ----------------------------------------
 BYTE   TIE  Bn3
 BYTE   W96
// 023   ----------------------------------------
 BYTE   W88
 BYTE   W01
 BYTE   EOT
 BYTE   W07
// 024   ----------------------------------------
 BYTE   TIE  Cn4
 BYTE   W96
// 025   ----------------------------------------
 BYTE   W88
 BYTE   W01
 BYTE   EOT
 BYTE   W07
// 026   ----------------------------------------
 BYTE   TIE  Bn3
 BYTE   W96
// 027   ----------------------------------------
 BYTE   W88
 BYTE   W01
 BYTE   EOT
 BYTE   W07
// 028   ----------------------------------------
 BYTE   TIE  As3
 BYTE   W96
// 029   ----------------------------------------
 BYTE   W88
 BYTE   W01
 BYTE   EOT
 BYTE   W07
// 030   ----------------------------------------
 BYTE   TIE  Cs4
 BYTE   W96
// 031   ----------------------------------------
 BYTE   W88
 BYTE   W01
 BYTE   EOT
 BYTE   W07
// 032   ----------------------------------------
 BYTE   TIE  Cn4
 BYTE   W96
// 033   ----------------------------------------
 BYTE   W88
 BYTE   W01
 BYTE   EOT
 BYTE   W07
// 034   ----------------------------------------
 BYTE   TIE
 BYTE   W96
// 035   ----------------------------------------
 BYTE   W88
 BYTE   W01
 BYTE   EOT
 BYTE   W07
// 036   ----------------------------------------
 BYTE   TIE
 BYTE   W96
// 037   ----------------------------------------
 BYTE   W88
 BYTE   W01
 BYTE   EOT
 BYTE   W07
// 038   ----------------------------------------
 BYTE   TIE  Ds4
 BYTE   W96
// 039   ----------------------------------------
 BYTE   W44
 BYTE   W03
 BYTE   EOT
 BYTE   W01
 BYTE   N44  Dn4
 BYTE   W48
// 040   ----------------------------------------
 BYTE   TIE  Gn3
 BYTE   W96
// 041   ----------------------------------------
 BYTE   W96
// 042   ----------------------------------------
 BYTE   W96
// 043   ----------------------------------------
 BYTE   W92
 BYTE   W03
 BYTE   EOT
 BYTE   W01
// 044   ----------------------------------------
 BYTE   TIE  Gs3
 BYTE   W96
// 045   ----------------------------------------
 BYTE   W92
 BYTE   W03
 BYTE   EOT
 BYTE   W01
// 046   ----------------------------------------
 BYTE   N68
 BYTE   W72
 BYTE   As3
 BYTE   W24
// 047   ----------------------------------------
 BYTE   W48
 BYTE   N44  Cn4
 BYTE   W48
// 048   ----------------------------------------
 BYTE   N68
 BYTE   W72
 BYTE   TIE  Bn3
 BYTE   W24
// 049   ----------------------------------------
 BYTE   W92
 BYTE   W03
 BYTE   EOT
 BYTE   W01
// 050   ----------------------------------------
 BYTE   W96
// 051   ----------------------------------------
 BYTE   W96
// 052   ----------------------------------------
 BYTE   W96
// 053   ----------------------------------------
 BYTE   W96
// 054   ----------------------------------------
 BYTE   W96
// 055   ----------------------------------------
 BYTE   W96
// 056   ----------------------------------------
 BYTE   W96
// 057   ----------------------------------------
 BYTE   N23  Gs4  v108
 BYTE   W36
 BYTE   N17
 BYTE   W36
 BYTE   N23
 BYTE   W24
// 058   ----------------------------------------
 BYTE   W12
 BYTE   N23
 BYTE   W36
 BYTE   N11
 BYTE   W24
 BYTE   N11
 BYTE   W24
// 059   ----------------------------------------
 BYTE   N23  Fn4
 BYTE   W36
 BYTE   N17
 BYTE   W36
 BYTE   N23
 BYTE   W24
// 060   ----------------------------------------
 BYTE   W12
 BYTE   N23
 BYTE   W36
 BYTE   N11
 BYTE   W24
 BYTE   N11
 BYTE   W24
// 061   ----------------------------------------
 BYTE   W96
// 062   ----------------------------------------
 BYTE   W96
// 063   ----------------------------------------
 BYTE   W96
// 064   ----------------------------------------
 BYTE   W96
// 065   ----------------------------------------
 BYTE   W96
// 066   ----------------------------------------
 BYTE   W96
// 067   ----------------------------------------
 BYTE   W96
// 068   ----------------------------------------
 BYTE   W96
// 069   ----------------------------------------
 BYTE   GoTo
  POIN2 Label_6_010247D0
 BYTE   FINE

//**************** Track 8 (Midi-Chn.7) ****************//

Jaws_008:
// 000   ----------------------------------------
 BYTE   KEYSH   Jaws_key+0
 BYTE   VOICE   46
 BYTE   VOL   41*Jaws_mvl/mxv
 BYTE   PAN   c_v+15
 BYTE   W96
// 001   ----------------------------------------
 BYTE   W96
// 002   ----------------------------------------
 BYTE   W96
// 003   ----------------------------------------
 BYTE   W96
// 004   ----------------------------------------
 BYTE   W96
// 005   ----------------------------------------
 BYTE   W96
// 006   ----------------------------------------
 BYTE   W96
// 007   ----------------------------------------
 BYTE   W96
// 008   ----------------------------------------
Label_7_010248A8:
 BYTE   N10  Bn4  v104
 BYTE   W12
 BYTE   En4
 BYTE   W12
 BYTE   An4
 BYTE   W12
 BYTE   En4
 BYTE   W12
 BYTE   Bn4
 BYTE   W12
 BYTE   En4
 BYTE   W12
 BYTE   Cn5
 BYTE   W12
 BYTE   En4
 BYTE   W12
 BYTE   PEND 
// 009   ----------------------------------------
Label_7_010248BB:
 BYTE   N10  Dn5  v104
 BYTE   W12
 BYTE   En4
 BYTE   W12
 BYTE   Bn4
 BYTE   W12
 BYTE   En4
 BYTE   W12
 BYTE   Cn5
 BYTE   W12
 BYTE   En4
 BYTE   W12
 BYTE   An4
 BYTE   W12
 BYTE   En4
 BYTE   W12
 BYTE   PEND 
// 010   ----------------------------------------
Label_7_010248CE:
 BYTE   N10  Gn4  v104
 BYTE   W12
 BYTE   Cn4
 BYTE   W12
 BYTE   Fn4
 BYTE   W12
 BYTE   Cn4
 BYTE   W12
 BYTE   Gn4
 BYTE   W12
 BYTE   Cn4
 BYTE   W12
 BYTE   Gs4
 BYTE   W12
 BYTE   Cn4
 BYTE   W12
 BYTE   PEND 
// 011   ----------------------------------------
 BYTE   As4
 BYTE   W12
 BYTE   Cn4
 BYTE   W12
 BYTE   Gn4
 BYTE   W12
 BYTE   Cn4
 BYTE   W12
 BYTE   Gs4
 BYTE   W12
 BYTE   Cn4
 BYTE   W12
 BYTE   Fn4
 BYTE   W12
 BYTE   Cn4
 BYTE   W12
// 012   ----------------------------------------
 BYTE   PATT
  POIN2 Label_7_010248A8
// 013   ----------------------------------------
 BYTE   PATT
  POIN2 Label_7_010248BB
// 014   ----------------------------------------
 BYTE   PATT
  POIN2 Label_7_010248CE
// 015   ----------------------------------------
 BYTE   N10  As4  v104
 BYTE   W12
 BYTE   Cn4
 BYTE   W12
 BYTE   Gn4
 BYTE   W12
 BYTE   Cn4
 BYTE   W12
 BYTE   Gs4
 BYTE   W12
 BYTE   Cn4
 BYTE   W12
 BYTE   Fn4
 BYTE   W12
 BYTE   Cn4  v108
 BYTE   W12
// 016   ----------------------------------------
 BYTE   W96
// 017   ----------------------------------------
 BYTE   W96
// 018   ----------------------------------------
 BYTE   W96
// 019   ----------------------------------------
 BYTE   W96
// 020   ----------------------------------------
 BYTE   W96
// 021   ----------------------------------------
 BYTE   W96
// 022   ----------------------------------------
 BYTE   W96
// 023   ----------------------------------------
 BYTE   W96
// 024   ----------------------------------------
 BYTE   W96
// 025   ----------------------------------------
 BYTE   W96
// 026   ----------------------------------------
 BYTE   W96
// 027   ----------------------------------------
 BYTE   W96
// 028   ----------------------------------------
 BYTE   W96
// 029   ----------------------------------------
 BYTE   W96
// 030   ----------------------------------------
 BYTE   W96
// 031   ----------------------------------------
 BYTE   W96
// 032   ----------------------------------------
 BYTE   W96
// 033   ----------------------------------------
 BYTE   W96
// 034   ----------------------------------------
 BYTE   W96
// 035   ----------------------------------------
 BYTE   W96
// 036   ----------------------------------------
 BYTE   W96
// 037   ----------------------------------------
 BYTE   W96
// 038   ----------------------------------------
 BYTE   W96
// 039   ----------------------------------------
 BYTE   W96
// 040   ----------------------------------------
 BYTE   Cn4  v096
 BYTE   N10  Ds4  v104
 BYTE   W12
 BYTE   Gn3
 BYTE   W12
 BYTE   Cn4  v096
 BYTE   N10  Dn4  v104
 BYTE   W12
 BYTE   Gn3
 BYTE   W12
 BYTE   Cn4  v096
 BYTE   N10  Ds4  v104
 BYTE   W12
 BYTE   Gn3
 BYTE   W12
 BYTE   Cn4  v096
 BYTE   N10  Fn4  v104
 BYTE   W12
 BYTE   Gn3
 BYTE   W12
// 041   ----------------------------------------
 BYTE   Cn4  v096
 BYTE   N10  Ds4  v104
 BYTE   W12
 BYTE   Gn3
 BYTE   W12
 BYTE   Bn3  v096
 BYTE   N10  Dn4  v104
 BYTE   W12
 BYTE   Gn3
 BYTE   W12
 BYTE   Cn4  v096
 BYTE   N10  Ds4  v104
 BYTE   W12
 BYTE   Gn3
 BYTE   W12
 BYTE   Dn4  v096
 BYTE   N10  Fn4  v104
 BYTE   W12
 BYTE   Gn3
 BYTE   W12
// 042   ----------------------------------------
 BYTE   Cn4  v096
 BYTE   N10  Ds4  v104
 BYTE   W12
 BYTE   Gn3
 BYTE   W12
 BYTE   Cn4  v096
 BYTE   N10  Dn4  v104
 BYTE   W12
 BYTE   Gn3
 BYTE   W12
 BYTE   Cn4  v096
 BYTE   N10  Ds4  v104
 BYTE   W12
 BYTE   Gn3
 BYTE   W12
 BYTE   Dn4  v096
 BYTE   N10  Fn4  v104
 BYTE   W12
 BYTE   Gn3
 BYTE   W12
// 043   ----------------------------------------
 BYTE   Ds4  v096
 BYTE   N10  Gn4  v104
 BYTE   W12
 BYTE   Gn3
 BYTE   W12
 BYTE   Cn4  v096
 BYTE   N10  Ds4  v104
 BYTE   W12
 BYTE   Gn3
 BYTE   W12
 BYTE   Dn4  v096
 BYTE   N10  Fn4  v104
 BYTE   W12
 BYTE   Gn3
 BYTE   W12
 BYTE   Cn4  v096
 BYTE   N10  Ds4  v104
 BYTE   W12
 BYTE   Gn3
 BYTE   W12
// 044   ----------------------------------------
 BYTE   Gn4  v096
 BYTE   N10  As4  v104
 BYTE   W12
 BYTE   Ds4
 BYTE   W12
 BYTE   Fn4  v096
 BYTE   N10  Gs4  v104
 BYTE   W12
 BYTE   Ds4
 BYTE   W12
 BYTE   Gn4  v096
 BYTE   N10  As4  v104
 BYTE   W12
 BYTE   Ds4
 BYTE   W12
 BYTE   Gs4  v096
 BYTE   N10  Cn5  v104
 BYTE   W12
 BYTE   Ds4
 BYTE   W12
// 045   ----------------------------------------
 BYTE   As4  v096
 BYTE   N10  Dn5  v104
 BYTE   W12
 BYTE   Ds4
 BYTE   W12
 BYTE   Gn4  v096
 BYTE   N10  As4  v104
 BYTE   W12
 BYTE   Ds4
 BYTE   W12
 BYTE   Gs4  v096
 BYTE   N10  Cn5  v104
 BYTE   W12
 BYTE   Ds4
 BYTE   W12
 BYTE   As4  v096
 BYTE   N10  Dn5  v104
 BYTE   W12
 BYTE   Ds4
 BYTE   W12
// 046   ----------------------------------------
 BYTE   Gs4  v096
 BYTE   N10  Ds5  v104
 BYTE   W12
 BYTE   Fn4
 BYTE   W12
 BYTE   Gs4  v096
 BYTE   N10  Dn5  v104
 BYTE   W12
 BYTE   Fn4
 BYTE   W12
 BYTE   Gs4  v096
 BYTE   N10  Ds5  v104
 BYTE   W12
 BYTE   Fn4
 BYTE   W12
 BYTE   As4  v096
 BYTE   N10  Fn5  v104
 BYTE   W12
 BYTE   Gn4
 BYTE   W12
// 047   ----------------------------------------
 BYTE   As4  v096
 BYTE   N10  Ds5  v104
 BYTE   W12
 BYTE   Gn4
 BYTE   W12
 BYTE   As4  v096
 BYTE   N10  Fn5  v104
 BYTE   W12
 BYTE   Gn4
 BYTE   W12
 BYTE   Cn5  v096
 BYTE   N10  Gn5  v104
 BYTE   W12
 BYTE   Gs4
 BYTE   W12
 BYTE   Cn5  v096
 BYTE   N10  Fn5  v104
 BYTE   W12
 BYTE   Gs4
 BYTE   W12
// 048   ----------------------------------------
 BYTE   Cn5  v096
 BYTE   N10  Gn5  v104
 BYTE   W12
 BYTE   Gn4
 BYTE   W12
 BYTE   Cn5  v096
 BYTE   N10  Gn5  v104
 BYTE   W12
 BYTE   Gn4
 BYTE   W12
 BYTE   Cn5  v096
 BYTE   N10  Gn5  v104
 BYTE   W12
 BYTE   Gn4
 BYTE   W12
 BYTE   Bn4  v096
 BYTE   N10  Gn5  v104
 BYTE   W12
 BYTE   Gn4
 BYTE   W12
// 049   ----------------------------------------
 BYTE   Bn4  v096
 BYTE   N10  Gn5  v104
 BYTE   W12
 BYTE   Gn4
 BYTE   W12
 BYTE   Bn4  v096
 BYTE   N10  Gn5  v104
 BYTE   W12
 BYTE   Gn4
 BYTE   W12
 BYTE   Bn4  v096
 BYTE   N10  Gn5  v104
 BYTE   W12
 BYTE   Gn4
 BYTE   W12
 BYTE   Bn4  v096
 BYTE   N10  Gn5  v104
 BYTE   W12
 BYTE   Gn4
 BYTE   W12
// 050   ----------------------------------------
 BYTE   W96
// 051   ----------------------------------------
 BYTE   W96
// 052   ----------------------------------------
 BYTE   W96
// 053   ----------------------------------------
 BYTE   W96
// 054   ----------------------------------------
 BYTE   W96
// 055   ----------------------------------------
 BYTE   W96
// 056   ----------------------------------------
 BYTE   W96
// 057   ----------------------------------------
 BYTE   W96
// 058   ----------------------------------------
 BYTE   W96
// 059   ----------------------------------------
 BYTE   W96
// 060   ----------------------------------------
 BYTE   W96
// 061   ----------------------------------------
 BYTE   W96
// 062   ----------------------------------------
 BYTE   W96
// 063   ----------------------------------------
 BYTE   W96
// 064   ----------------------------------------
 BYTE   W96
// 065   ----------------------------------------
 BYTE   W96
// 066   ----------------------------------------
 BYTE   W96
// 067   ----------------------------------------
 BYTE   W96
// 068   ----------------------------------------
 BYTE   W96
// 069   ----------------------------------------
 BYTE   GoTo
  POIN2 Label_7_010248A8
 BYTE   FINE

//**************** Track 9 (Midi-Chn.8) ****************//

Jaws_009:
// 000   ----------------------------------------
 BYTE   KEYSH   Jaws_key+0
 BYTE   VOICE   46
 BYTE   VOL   21*Jaws_mvl/mxv
 BYTE   PAN   c_v-20
 BYTE   BEND   c_v-2
 BYTE   W96
// 001   ----------------------------------------
 BYTE   W96
// 002   ----------------------------------------
 BYTE   W96
// 003   ----------------------------------------
 BYTE   W96
// 004   ----------------------------------------
 BYTE   W96
// 005   ----------------------------------------
 BYTE   W96
// 006   ----------------------------------------
 BYTE   W96
// 007   ----------------------------------------
 BYTE   W96
// 008   ----------------------------------------
Label_8_01024A9A:
 BYTE   W18
 BYTE   N10  Bn4  v084
 BYTE   W12
 BYTE   En4
 BYTE   W12
 BYTE   An4
 BYTE   W12
 BYTE   En4
 BYTE   W12
 BYTE   Bn4
 BYTE   W12
 BYTE   En4
 BYTE   W12
 BYTE   Cn5
 BYTE   W06
// 009   ----------------------------------------
Label_8_01024AAB:
 BYTE   W06
 BYTE   N10  En4  v084
 BYTE   W12
 BYTE   Dn5
 BYTE   W12
 BYTE   En4
 BYTE   W12
 BYTE   Bn4
 BYTE   W12
 BYTE   En4
 BYTE   W12
 BYTE   Cn5
 BYTE   W12
 BYTE   En4
 BYTE   W12
 BYTE   An4
 BYTE   W06
 BYTE   PEND 
// 010   ----------------------------------------
Label_8_01024ABF:
 BYTE   W06
 BYTE   N10  En4  v084
 BYTE   W12
 BYTE   Gn4
 BYTE   W12
 BYTE   Cn4
 BYTE   W12
 BYTE   Fn4
 BYTE   W12
 BYTE   Cn4
 BYTE   W12
 BYTE   Gn4
 BYTE   W12
 BYTE   Cn4
 BYTE   W12
 BYTE   Gs4
 BYTE   W06
 BYTE   PEND 
// 011   ----------------------------------------
 BYTE   W06
 BYTE   Cn4
 BYTE   W12
 BYTE   As4
 BYTE   W12
 BYTE   Cn4
 BYTE   W12
 BYTE   Gn4
 BYTE   W12
 BYTE   Cn4
 BYTE   W12
 BYTE   Gs4
 BYTE   W12
 BYTE   Cn4
 BYTE   W12
 BYTE   Fn4
 BYTE   W06
// 012   ----------------------------------------
 BYTE   W06
 BYTE   Cn4
 BYTE   W12
 BYTE   Bn4
 BYTE   W12
 BYTE   En4
 BYTE   W12
 BYTE   An4
 BYTE   W12
 BYTE   En4
 BYTE   W12
 BYTE   Bn4
 BYTE   W12
 BYTE   En4
 BYTE   W12
 BYTE   Cn5
 BYTE   W06
// 013   ----------------------------------------
 BYTE   PATT
  POIN2 Label_8_01024AAB
// 014   ----------------------------------------
 BYTE   PATT
  POIN2 Label_8_01024ABF
// 015   ----------------------------------------
 BYTE   W06
 BYTE   N10  Cn4  v084
 BYTE   W12
 BYTE   As4
 BYTE   W12
 BYTE   Cn4
 BYTE   W12
 BYTE   Gn4
 BYTE   W12
 BYTE   Cn4
 BYTE   W12
 BYTE   Gs4
 BYTE   W12
 BYTE   Cn4
 BYTE   W12
 BYTE   N06  Fn4
 BYTE   W06
// 016   ----------------------------------------
 BYTE   W96
// 017   ----------------------------------------
 BYTE   W96
// 018   ----------------------------------------
 BYTE   W96
// 019   ----------------------------------------
 BYTE   W96
// 020   ----------------------------------------
 BYTE   W96
// 021   ----------------------------------------
 BYTE   W96
// 022   ----------------------------------------
 BYTE   W96
// 023   ----------------------------------------
 BYTE   W96
// 024   ----------------------------------------
 BYTE   W96
// 025   ----------------------------------------
 BYTE   W96
// 026   ----------------------------------------
 BYTE   W96
// 027   ----------------------------------------
 BYTE   W96
// 028   ----------------------------------------
 BYTE   W96
// 029   ----------------------------------------
 BYTE   W96
// 030   ----------------------------------------
 BYTE   W96
// 031   ----------------------------------------
 BYTE   W96
// 032   ----------------------------------------
 BYTE   W96
// 033   ----------------------------------------
 BYTE   W96
// 034   ----------------------------------------
 BYTE   W96
// 035   ----------------------------------------
 BYTE   W96
// 036   ----------------------------------------
 BYTE   W96
// 037   ----------------------------------------
 BYTE   W96
// 038   ----------------------------------------
 BYTE   W96
// 039   ----------------------------------------
 BYTE   W96
// 040   ----------------------------------------
 BYTE   W18
 BYTE   N10  Ds4
 BYTE   W12
 BYTE   Gn3
 BYTE   W12
 BYTE   Dn4
 BYTE   W12
 BYTE   Gn3
 BYTE   W12
 BYTE   Ds4
 BYTE   W12
 BYTE   Gn3
 BYTE   W12
 BYTE   Fn4
 BYTE   W06
// 041   ----------------------------------------
Label_8_01024B3B:
 BYTE   W06
 BYTE   N10  Gn3  v084
 BYTE   W12
 BYTE   Ds4
 BYTE   W12
 BYTE   Gn3
 BYTE   W12
 BYTE   Dn4
 BYTE   W12
 BYTE   Gn3
 BYTE   W12
 BYTE   Ds4
 BYTE   W12
 BYTE   Gn3
 BYTE   W12
 BYTE   Fn4
 BYTE   W06
 BYTE   PEND 
// 042   ----------------------------------------
 BYTE   PATT
  POIN2 Label_8_01024B3B
// 043   ----------------------------------------
 BYTE   W06
 BYTE   N10  Gn3  v084
 BYTE   W12
 BYTE   Gn4
 BYTE   W12
 BYTE   Gn3
 BYTE   W12
 BYTE   Ds4
 BYTE   W12
 BYTE   Gn3
 BYTE   W12
 BYTE   Fn4
 BYTE   W12
 BYTE   Gn3
 BYTE   W12
 BYTE   Ds4
 BYTE   W06
// 044   ----------------------------------------
 BYTE   W06
 BYTE   Gn3
 BYTE   W12
 BYTE   As4
 BYTE   W12
 BYTE   Ds4
 BYTE   W12
 BYTE   Gs4
 BYTE   W12
 BYTE   Ds4
 BYTE   W12
 BYTE   As4
 BYTE   W12
 BYTE   Ds4
 BYTE   W12
 BYTE   Cn5
 BYTE   W06
// 045   ----------------------------------------
 BYTE   W06
 BYTE   Ds4
 BYTE   W12
 BYTE   Dn5
 BYTE   W12
 BYTE   Ds4
 BYTE   W12
 BYTE   As4
 BYTE   W12
 BYTE   Ds4
 BYTE   W12
 BYTE   Cn5
 BYTE   W12
 BYTE   Ds4
 BYTE   W12
 BYTE   Dn5
 BYTE   W06
// 046   ----------------------------------------
 BYTE   W06
 BYTE   Ds4
 BYTE   W12
 BYTE   Ds5
 BYTE   W12
 BYTE   Fn4
 BYTE   W12
 BYTE   Dn5
 BYTE   W12
 BYTE   Fn4
 BYTE   W12
 BYTE   Ds5
 BYTE   W12
 BYTE   Fn4
 BYTE   W12
 BYTE   Fn5
 BYTE   W06
// 047   ----------------------------------------
 BYTE   W06
 BYTE   Gn4
 BYTE   W12
 BYTE   Ds5
 BYTE   W12
 BYTE   Gn4
 BYTE   W12
 BYTE   Fn5
 BYTE   W12
 BYTE   Gn4
 BYTE   W12
 BYTE   Gn5
 BYTE   W12
 BYTE   Gs4
 BYTE   W12
 BYTE   Fn5
 BYTE   W06
// 048   ----------------------------------------
 BYTE   W06
 BYTE   Gs4
 BYTE   W12
 BYTE   Gn5
 BYTE   W12
 BYTE   Gn4
 BYTE   W12
 BYTE   Gn5
 BYTE   W12
 BYTE   Gn4
 BYTE   W12
 BYTE   Gn5
 BYTE   W12
 BYTE   Gn4
 BYTE   W12
 BYTE   Gn5
 BYTE   W06
// 049   ----------------------------------------
 BYTE   W06
 BYTE   Gn4
 BYTE   W12
 BYTE   Gn5
 BYTE   W12
 BYTE   Gn4
 BYTE   W12
 BYTE   Gn5
 BYTE   W12
 BYTE   Gn4
 BYTE   W12
 BYTE   Gn5
 BYTE   W12
 BYTE   Gn4
 BYTE   W12
 BYTE   N06  Gn5
 BYTE   W06
// 050   ----------------------------------------
 BYTE   W96
// 051   ----------------------------------------
 BYTE   W96
// 052   ----------------------------------------
 BYTE   W96
// 053   ----------------------------------------
 BYTE   W96
// 054   ----------------------------------------
 BYTE   W96
// 055   ----------------------------------------
 BYTE   W96
// 056   ----------------------------------------
 BYTE   W96
// 057   ----------------------------------------
 BYTE   W96
// 058   ----------------------------------------
 BYTE   W96
// 059   ----------------------------------------
 BYTE   W96
// 060   ----------------------------------------
 BYTE   W96
// 061   ----------------------------------------
 BYTE   W96
// 062   ----------------------------------------
 BYTE   W96
// 063   ----------------------------------------
 BYTE   W96
// 064   ----------------------------------------
 BYTE   W96
// 065   ----------------------------------------
 BYTE   W96
// 066   ----------------------------------------
 BYTE   W96
// 067   ----------------------------------------
 BYTE   W96
// 068   ----------------------------------------
 BYTE   W96
// 069   ----------------------------------------
 BYTE   GoTo
  POIN2 Label_8_01024A9A
 BYTE   FINE

//**************** Track 10 (Midi-Chn.9) ****************//

Jaws_010:
// 000   ----------------------------------------
 BYTE   KEYSH   Jaws_key+0
 BYTE   VOICE   73
 BYTE   VOL   48*Jaws_mvl/mxv
 BYTE   PAN   c_v+0
 BYTE   W96
// 001   ----------------------------------------
 BYTE   W96
// 002   ----------------------------------------
 BYTE   W96
// 003   ----------------------------------------
Label_9_01024BF3:
 BYTE   W32
 BYTE   W02
 BYTE   N01  As4  v100
 BYTE   W02
 BYTE   N21  Bn4  v108
 BYTE   W24
 BYTE   N08  An4  v104
 BYTE   W12
 BYTE   N09  Dn4  v100
 BYTE   W12
 BYTE   N11  En4
 BYTE   W12
 BYTE   PEND 
// 004   ----------------------------------------
 BYTE   W96
// 005   ----------------------------------------
 BYTE   W96
// 006   ----------------------------------------
 BYTE   W96
// 007   ----------------------------------------
Label_9_01024C0C:
 BYTE   W32
 BYTE   W01
 BYTE   N02  As4  v108
 BYTE   W03
 BYTE   N21  Bn4
 BYTE   W24
 BYTE   N11  An4  v104
 BYTE   W12
 BYTE   Dn4  v092
 BYTE   W12
 BYTE   N10  En4  v100
 BYTE   W12
 BYTE   PEND 
// 008   ----------------------------------------
Label_9_01024C21:
 BYTE   W96
// 009   ----------------------------------------
 BYTE   W96
// 010   ----------------------------------------
 BYTE   W96
// 011   ----------------------------------------
 BYTE   W96
// 012   ----------------------------------------
 BYTE   W96
// 013   ----------------------------------------
 BYTE   W96
// 014   ----------------------------------------
 BYTE   W96
// 015   ----------------------------------------
 BYTE   W96
// 016   ----------------------------------------
 BYTE   N44  Gn4  v120
 BYTE   W48
 BYTE   N68  Fn4
 BYTE   W48
// 017   ----------------------------------------
 BYTE   W24
 BYTE   N23  Ds4
 BYTE   W24
 BYTE   Dn4
 BYTE   W24
 BYTE   Cn4
 BYTE   W24
// 018   ----------------------------------------
 BYTE   N44  Ds4
 BYTE   W48
 BYTE   N64  Gs3
 BYTE   W48
// 019   ----------------------------------------
 BYTE   W24
 BYTE   N23  Bn3
 BYTE   W24
 BYTE   Ds4
 BYTE   W24
 BYTE   Gs4
 BYTE   W24
// 020   ----------------------------------------
 BYTE   N44  Gn4
 BYTE   W48
 BYTE   N68  Cn5
 BYTE   W48
// 021   ----------------------------------------
 BYTE   W24
 BYTE   N23  Dn5
 BYTE   W24
 BYTE   Fn5
 BYTE   W24
 BYTE   Ds5
 BYTE   W24
// 022   ----------------------------------------
 BYTE   N44  Fs5
 BYTE   W48
 BYTE   N64  Bn4
 BYTE   W48
// 023   ----------------------------------------
 BYTE   W24
 BYTE   N23  Dn4
 BYTE   W24
 BYTE   Ds4
 BYTE   W24
 BYTE   N32  Gn4
 BYTE   W24
// 024   ----------------------------------------
 BYTE   W12
 BYTE   N05  Cn5  v116
 BYTE   W12
 BYTE   Dn5
 BYTE   W12
 BYTE   N28  Ds5
 BYTE   W36
 BYTE   N11  Dn5
 BYTE   W12
 BYTE   N23  Cn5
 BYTE   W12
// 025   ----------------------------------------
 BYTE   W12
 BYTE   Gn4
 BYTE   W24
 BYTE   N11  Ds4
 BYTE   W12
 BYTE   Dn4
 BYTE   W12
 BYTE   Cn4
 BYTE   W12
 BYTE   Dn4
 BYTE   W12
 BYTE   Ds4
 BYTE   W12
// 026   ----------------------------------------
 BYTE   N44  Dn4
 BYTE   W48
 BYTE   Gn3
 BYTE   W48
// 027   ----------------------------------------
 BYTE   N88  Gn4
 BYTE   W96
// 028   ----------------------------------------
 BYTE   N11
 BYTE   W12
 BYTE   Gs4
 BYTE   W12
 BYTE   Gn4
 BYTE   W12
 BYTE   N28  Cn5
 BYTE   W36
 BYTE   N11  Gn4
 BYTE   W12
 BYTE   Gs4
 BYTE   W12
// 029   ----------------------------------------
 BYTE   Fn4
 BYTE   W12
 BYTE   Gn4
 BYTE   W12
 BYTE   Ds4
 BYTE   W12
 BYTE   Fn4
 BYTE   W12
 BYTE   Dn4
 BYTE   W12
 BYTE   Ds4
 BYTE   W12
 BYTE   Cn4
 BYTE   W12
 BYTE   Gn3
 BYTE   W12
// 030   ----------------------------------------
 BYTE   N32
 BYTE   W36
 BYTE   N23  Fn3
 BYTE   W36
 BYTE   N32  Gn3
 BYTE   W24
// 031   ----------------------------------------
 BYTE   W12
 BYTE   N23  Fn3
 BYTE   W36
 BYTE   N11  Gn3
 BYTE   W24
 BYTE   Ds3
 BYTE   W24
// 032   ----------------------------------------
 BYTE   N23  Dn3
 BYTE   W36
 BYTE   N11
 BYTE   W24
 BYTE   Ds3
 BYTE   W24
 BYTE   N09  Fn3
 BYTE   W12
// 033   ----------------------------------------
 BYTE   W12
 BYTE   N23  Dn3
 BYTE   W36
 BYTE   N11  Ds3
 BYTE   W24
 BYTE   Fn3
 BYTE   W24
// 034   ----------------------------------------
 BYTE   N32  Gn3
 BYTE   W36
 BYTE   Cn4
 BYTE   W36
 BYTE   Dn4
 BYTE   W24
// 035   ----------------------------------------
 BYTE   W12
 BYTE   Cn4
 BYTE   W36
 BYTE   N11  Dn4
 BYTE   W24
 BYTE   Ds4
 BYTE   W24
// 036   ----------------------------------------
 BYTE   N32  Gn4
 BYTE   W36
 BYTE   Fn4
 BYTE   W36
 BYTE   Gn4
 BYTE   W24
// 037   ----------------------------------------
 BYTE   W12
 BYTE   Fn4
 BYTE   W36
 BYTE   N11  Gn4
 BYTE   W24
 BYTE   Fn4
 BYTE   W24
// 038   ----------------------------------------
 BYTE   N32  Fs4
 BYTE   W36
 BYTE   Fn4
 BYTE   W36
 BYTE   Fs4
 BYTE   W24
// 039   ----------------------------------------
 BYTE   W12
 BYTE   Fn4
 BYTE   W36
 BYTE   N11  Ds4
 BYTE   W24
 BYTE   Dn4
 BYTE   W24
// 040   ----------------------------------------
 BYTE   W96
// 041   ----------------------------------------
 BYTE   W96
// 042   ----------------------------------------
 BYTE   W96
// 043   ----------------------------------------
 BYTE   W96
// 044   ----------------------------------------
 BYTE   W96
// 045   ----------------------------------------
 BYTE   W96
// 046   ----------------------------------------
 BYTE   W96
// 047   ----------------------------------------
 BYTE   W96
// 048   ----------------------------------------
 BYTE   W96
// 049   ----------------------------------------
 BYTE   W96
// 050   ----------------------------------------
 BYTE   Cn4  v108
 BYTE   W12
 BYTE   As3
 BYTE   W12
 BYTE   Cn4
 BYTE   W12
 BYTE   N28  Ds4
 BYTE   W36
 BYTE   N11  As3
 BYTE   W12
 BYTE   Cn4
 BYTE   W12
// 051   ----------------------------------------
 BYTE   W12
 BYTE   N17  Gn3
 BYTE   W24
 BYTE   N11  As3
 BYTE   W12
 BYTE   Fn3
 BYTE   W12
 BYTE   Gn3
 BYTE   W12
 BYTE   Ds3
 BYTE   W12
 BYTE   Fn3
 BYTE   W12
// 052   ----------------------------------------
 BYTE   Gn3
 BYTE   W12
 BYTE   N23  Ds3
 BYTE   W24
 BYTE   N17  Fn3
 BYTE   W24
 BYTE   N11  Dn3
 BYTE   W12
 BYTE   Ds3
 BYTE   W12
 BYTE   Cn3
 BYTE   W12
// 053   ----------------------------------------
 BYTE   W12
 BYTE   As2
 BYTE   W12
 BYTE   Cn3
 BYTE   W12
 BYTE   N17  Ds3
 BYTE   W24
 BYTE   N11  As2
 BYTE   W12
 BYTE   N17  Cn3
 BYTE   W24
// 054   ----------------------------------------
 BYTE   N11  Fn2
 BYTE   W12
 BYTE   N23  Gn2
 BYTE   W24
 BYTE   N11  Fn2
 BYTE   W12
 BYTE   Gn2
 BYTE   W12
 BYTE   As2
 BYTE   W12
 BYTE   Cn3
 BYTE   W12
 BYTE   As2
 BYTE   W12
// 055   ----------------------------------------
 BYTE   Cn3
 BYTE   W12
 BYTE   Ds3
 BYTE   W12
 BYTE   Fn3
 BYTE   W12
 BYTE   Ds3
 BYTE   W12
 BYTE   Fn3
 BYTE   W12
 BYTE   Gn3
 BYTE   W12
 BYTE   As3
 BYTE   W12
 BYTE   Gn3
 BYTE   W12
// 056   ----------------------------------------
 BYTE   As3
 BYTE   W12
 BYTE   Cn4
 BYTE   W12
 BYTE   Ds4
 BYTE   W12
 BYTE   Cn4
 BYTE   W12
 BYTE   Ds4
 BYTE   W12
 BYTE   Fn4
 BYTE   W12
 BYTE   Gn4
 BYTE   W12
 BYTE   Fn4
 BYTE   W12
// 057   ----------------------------------------
 BYTE   N32  Gn4
 BYTE   W36
 BYTE   N23  Fn4
 BYTE   W36
 BYTE   N32  Gn4
 BYTE   W24
// 058   ----------------------------------------
 BYTE   W12
 BYTE   N23  Fn4
 BYTE   W36
 BYTE   N11  Gn4
 BYTE   W24
 BYTE   Fn4
 BYTE   W24
// 059   ----------------------------------------
 BYTE   N32  Ds4
 BYTE   W36
 BYTE   N23  Dn4
 BYTE   W36
 BYTE   N32  Ds4
 BYTE   W24
// 060   ----------------------------------------
 BYTE   W12
 BYTE   Dn4
 BYTE   W36
 BYTE   N11  Ds4
 BYTE   W24
 BYTE   Dn4
 BYTE   W24
// 061   ----------------------------------------
 BYTE   W96
// 062   ----------------------------------------
 BYTE   W96
// 063   ----------------------------------------
 BYTE   W96
// 064   ----------------------------------------
 BYTE   PATT
  POIN2 Label_9_01024BF3
// 065   ----------------------------------------
 BYTE   W96
// 066   ----------------------------------------
 BYTE   W96
// 067   ----------------------------------------
 BYTE   W96
// 068   ----------------------------------------
 BYTE   PATT
  POIN2 Label_9_01024C0C
// 069   ----------------------------------------
 BYTE   GoTo
  POIN2 Label_9_01024C21
 BYTE   FINE

//**************** Track 11 (Midi-Chn.10) ****************//

Jaws_011:
// 000   ----------------------------------------
 BYTE   KEYSH   Jaws_key+0
 BYTE   VOICE   73
 BYTE   VOL   15*Jaws_mvl/mxv
 BYTE   PAN   c_v+46
 BYTE   BEND   c_v-2
 BYTE   W96
// 001   ----------------------------------------
 BYTE   W96
// 002   ----------------------------------------
 BYTE   W96
// 003   ----------------------------------------
Label_10_01024DC5:
 BYTE   W56
 BYTE   N02  As4  v100
 BYTE   W04
 BYTE   N17  Bn4  v108
 BYTE   W18
 BYTE   N07  An4  v104
 BYTE   W12
 BYTE   Dn4  v100
 BYTE   W06
 BYTE   PEND 
// 004   ----------------------------------------
 BYTE   W06
 BYTE   N10  En4
 BYTE   W90
// 005   ----------------------------------------
 BYTE   W96
// 006   ----------------------------------------
 BYTE   W96
// 007   ----------------------------------------
Label_10_01024DDC:
 BYTE   W56
 BYTE   W01
 BYTE   N02  As4  v108
 BYTE   W03
 BYTE   N15  Bn4
 BYTE   W18
 BYTE   N09  An4  v104
 BYTE   W12
 BYTE   N06  Dn4  v092
 BYTE   W06
 BYTE   PEND 
// 008   ----------------------------------------
Label_10_01024DEE:
 BYTE   W96
// 009   ----------------------------------------
 BYTE   W96
// 010   ----------------------------------------
 BYTE   W96
// 011   ----------------------------------------
 BYTE   W96
// 012   ----------------------------------------
 BYTE   W96
// 013   ----------------------------------------
 BYTE   W96
// 014   ----------------------------------------
 BYTE   W96
// 015   ----------------------------------------
 BYTE   W96
// 016   ----------------------------------------
 BYTE   W18
 BYTE   N44  Gn4  v120
 BYTE   W48
 BYTE   N68  Fn4
 BYTE   W30
// 017   ----------------------------------------
 BYTE   W42
 BYTE   N23  Ds4
 BYTE   W24
 BYTE   Dn4
 BYTE   W24
 BYTE   Cn4
 BYTE   W06
// 018   ----------------------------------------
 BYTE   W18
 BYTE   N44  Ds4
 BYTE   W48
 BYTE   N64  Gs3
 BYTE   W30
// 019   ----------------------------------------
 BYTE   W42
 BYTE   N23  Bn3
 BYTE   W24
 BYTE   Ds4
 BYTE   W24
 BYTE   Gs4
 BYTE   W06
// 020   ----------------------------------------
 BYTE   W18
 BYTE   N44  Gn4
 BYTE   W48
 BYTE   N68  Cn5
 BYTE   W30
// 021   ----------------------------------------
 BYTE   W42
 BYTE   N23  Dn5
 BYTE   W24
 BYTE   Fn5
 BYTE   W24
 BYTE   Ds5
 BYTE   W06
// 022   ----------------------------------------
 BYTE   W18
 BYTE   N44  Fs5
 BYTE   W48
 BYTE   N64  Bn4
 BYTE   W30
// 023   ----------------------------------------
 BYTE   W42
 BYTE   N23  Dn4
 BYTE   W24
 BYTE   Ds4
 BYTE   W24
 BYTE   N32  Gn4
 BYTE   W06
// 024   ----------------------------------------
 BYTE   W30
 BYTE   N05  Cn5  v116
 BYTE   W12
 BYTE   Dn5
 BYTE   W12
 BYTE   N28  Ds5
 BYTE   W36
 BYTE   N11  Dn5
 BYTE   W06
// 025   ----------------------------------------
 BYTE   W06
 BYTE   N23  Cn5
 BYTE   W24
 BYTE   Gn4
 BYTE   W24
 BYTE   N11  Ds4
 BYTE   W12
 BYTE   Dn4
 BYTE   W12
 BYTE   Cn4
 BYTE   W12
 BYTE   Dn4
 BYTE   W06
// 026   ----------------------------------------
 BYTE   W06
 BYTE   Ds4
 BYTE   W12
 BYTE   N44  Dn4
 BYTE   W48
 BYTE   Gn3
 BYTE   W30
// 027   ----------------------------------------
 BYTE   W18
 BYTE   N88  Gn4
 BYTE   W78
// 028   ----------------------------------------
 BYTE   W18
 BYTE   N11
 BYTE   W12
 BYTE   Gs4
 BYTE   W12
 BYTE   Gn4
 BYTE   W12
 BYTE   N28  Cn5
 BYTE   W36
 BYTE   N11  Gn4
 BYTE   W06
// 029   ----------------------------------------
 BYTE   W06
 BYTE   Gs4
 BYTE   W12
 BYTE   Fn4
 BYTE   W12
 BYTE   Gn4
 BYTE   W12
 BYTE   Ds4
 BYTE   W12
 BYTE   Fn4
 BYTE   W12
 BYTE   Dn4
 BYTE   W12
 BYTE   Ds4
 BYTE   W12
 BYTE   Cn4
 BYTE   W06
// 030   ----------------------------------------
 BYTE   W06
 BYTE   Gn3
 BYTE   W12
 BYTE   N32
 BYTE   W36
 BYTE   N23  Fn3
 BYTE   W36
 BYTE   N32  Gn3
 BYTE   W06
// 031   ----------------------------------------
 BYTE   W30
 BYTE   N23  Fn3
 BYTE   W36
 BYTE   N11  Gn3
 BYTE   W24
 BYTE   Ds3
 BYTE   W06
// 032   ----------------------------------------
 BYTE   W18
 BYTE   N23  Dn3
 BYTE   W36
 BYTE   N11
 BYTE   W24
 BYTE   Ds3
 BYTE   W18
// 033   ----------------------------------------
 BYTE   W06
 BYTE   N09  Fn3
 BYTE   W24
 BYTE   N23  Dn3
 BYTE   W36
 BYTE   N11  Ds3
 BYTE   W24
 BYTE   Fn3
 BYTE   W06
// 034   ----------------------------------------
 BYTE   W18
 BYTE   N32  Gn3
 BYTE   W36
 BYTE   Cn4
 BYTE   W36
 BYTE   Dn4
 BYTE   W06
// 035   ----------------------------------------
 BYTE   W30
 BYTE   Cn4
 BYTE   W36
 BYTE   N11  Dn4
 BYTE   W24
 BYTE   Ds4
 BYTE   W06
// 036   ----------------------------------------
 BYTE   W18
 BYTE   N32  Gn4
 BYTE   W36
 BYTE   Fn4
 BYTE   W36
 BYTE   Gn4
 BYTE   W06
// 037   ----------------------------------------
 BYTE   W30
 BYTE   Fn4
 BYTE   W36
 BYTE   N11  Gn4
 BYTE   W24
 BYTE   Fn4
 BYTE   W06
// 038   ----------------------------------------
 BYTE   W18
 BYTE   N32  Fs4
 BYTE   W36
 BYTE   Fn4
 BYTE   W36
 BYTE   Fs4
 BYTE   W06
// 039   ----------------------------------------
 BYTE   W30
 BYTE   Fn4
 BYTE   W36
 BYTE   N11  Ds4
 BYTE   W24
 BYTE   N06  Dn4
 BYTE   W06
// 040   ----------------------------------------
 BYTE   W96
// 041   ----------------------------------------
 BYTE   W96
// 042   ----------------------------------------
 BYTE   W96
// 043   ----------------------------------------
 BYTE   W96
// 044   ----------------------------------------
 BYTE   W96
// 045   ----------------------------------------
 BYTE   W96
// 046   ----------------------------------------
 BYTE   W96
// 047   ----------------------------------------
 BYTE   W96
// 048   ----------------------------------------
 BYTE   W96
// 049   ----------------------------------------
 BYTE   W96
// 050   ----------------------------------------
 BYTE   W18
 BYTE   N11  Cn4  v108
 BYTE   W12
 BYTE   As3
 BYTE   W12
 BYTE   Cn4
 BYTE   W12
 BYTE   N28  Ds4
 BYTE   W36
 BYTE   N11  As3
 BYTE   W06
// 051   ----------------------------------------
 BYTE   W06
 BYTE   Cn4
 BYTE   W24
 BYTE   N17  Gn3
 BYTE   W24
 BYTE   N11  As3
 BYTE   W12
 BYTE   Fn3
 BYTE   W12
 BYTE   Gn3
 BYTE   W12
 BYTE   Ds3
 BYTE   W06
// 052   ----------------------------------------
 BYTE   W06
 BYTE   Fn3
 BYTE   W12
 BYTE   Gn3
 BYTE   W12
 BYTE   N23  Ds3
 BYTE   W24
 BYTE   N17  Fn3
 BYTE   W24
 BYTE   N11  Dn3
 BYTE   W12
 BYTE   Ds3
 BYTE   W06
// 053   ----------------------------------------
 BYTE   W06
 BYTE   Cn3
 BYTE   W24
 BYTE   As2
 BYTE   W12
 BYTE   Cn3
 BYTE   W12
 BYTE   N17  Ds3
 BYTE   W24
 BYTE   N11  As2
 BYTE   W12
 BYTE   N17  Cn3
 BYTE   W06
// 054   ----------------------------------------
 BYTE   W18
 BYTE   N11  Fn2
 BYTE   W12
 BYTE   N23  Gn2
 BYTE   W24
 BYTE   N11  Fn2
 BYTE   W12
 BYTE   Gn2
 BYTE   W12
 BYTE   As2
 BYTE   W12
 BYTE   Cn3
 BYTE   W06
// 055   ----------------------------------------
 BYTE   W06
 BYTE   As2
 BYTE   W12
 BYTE   Cn3
 BYTE   W12
 BYTE   Ds3
 BYTE   W12
 BYTE   Fn3
 BYTE   W12
 BYTE   Ds3
 BYTE   W12
 BYTE   Fn3
 BYTE   W12
 BYTE   Gn3
 BYTE   W12
 BYTE   As3
 BYTE   W06
// 056   ----------------------------------------
 BYTE   W06
 BYTE   Gn3
 BYTE   W12
 BYTE   As3
 BYTE   W12
 BYTE   Cn4
 BYTE   W12
 BYTE   Ds4
 BYTE   W12
 BYTE   Cn4
 BYTE   W12
 BYTE   Ds4
 BYTE   W12
 BYTE   Fn4
 BYTE   W12
 BYTE   Gn4
 BYTE   W06
// 057   ----------------------------------------
 BYTE   W06
 BYTE   Fn4
 BYTE   W12
 BYTE   N32  Gn4
 BYTE   W36
 BYTE   N23  Fn4
 BYTE   W36
 BYTE   N32  Gn4
 BYTE   W06
// 058   ----------------------------------------
 BYTE   W30
 BYTE   N23  Fn4
 BYTE   W36
 BYTE   N11  Gn4
 BYTE   W24
 BYTE   Fn4
 BYTE   W06
// 059   ----------------------------------------
 BYTE   W18
 BYTE   N32  Ds4
 BYTE   W36
 BYTE   N23  Dn4
 BYTE   W36
 BYTE   N32  Ds4
 BYTE   W06
// 060   ----------------------------------------
 BYTE   W30
 BYTE   Dn4
 BYTE   W36
 BYTE   N11  Ds4
 BYTE   W24
 BYTE   Dn4
 BYTE   W06
// 061   ----------------------------------------
 BYTE   W96
// 062   ----------------------------------------
 BYTE   W96
// 063   ----------------------------------------
 BYTE   W96
// 064   ----------------------------------------
 BYTE   PATT
  POIN2 Label_10_01024DC5
// 065   ----------------------------------------
 BYTE   W06
 BYTE   N10  En4  v100
 BYTE   W90
// 066   ----------------------------------------
 BYTE   W96
// 067   ----------------------------------------
 BYTE   W96
// 068   ----------------------------------------
 BYTE   PATT
  POIN2 Label_10_01024DDC
// 069   ----------------------------------------
 BYTE   GoTo
  POIN2 Label_10_01024DEE
 BYTE   FINE

//**************** Track 12 (Midi-Chn.11) ****************//

Jaws_012:
// 000   ----------------------------------------
 BYTE   KEYSH   Jaws_key+0
 BYTE   VOICE   73
 BYTE   VOL   13*Jaws_mvl/mxv
 BYTE   PAN   c_v-48
 BYTE   BEND   c_v-4
 BYTE   W96
// 001   ----------------------------------------
 BYTE   W96
// 002   ----------------------------------------
 BYTE   W96
// 003   ----------------------------------------
Label_11_01024FA9:
 BYTE   W78
 BYTE   N01  As4  v108
 BYTE   W03
 BYTE   N21  Bn4
 BYTE   W15
 BYTE   PEND 
// 004   ----------------------------------------
Label_11_01024FB2:
 BYTE   W06
 BYTE   N11  An4  v104
 BYTE   W12
 BYTE   Dn4  v092
 BYTE   W12
 BYTE   N10  En4  v100
 BYTE   W66
 BYTE   PEND 
// 005   ----------------------------------------
 BYTE   W96
// 006   ----------------------------------------
 BYTE   W96
// 007   ----------------------------------------
Label_11_01024FC1:
 BYTE   W78
 BYTE   N01  As4  v108
 BYTE   W03
 BYTE   N14  Bn4
 BYTE   W15
 BYTE   PEND 
// 008   ----------------------------------------
Label_11_01024FCA:
 BYTE   W96
// 009   ----------------------------------------
 BYTE   W96
// 010   ----------------------------------------
 BYTE   W96
// 011   ----------------------------------------
 BYTE   W96
// 012   ----------------------------------------
 BYTE   W96
// 013   ----------------------------------------
 BYTE   W96
// 014   ----------------------------------------
 BYTE   W96
// 015   ----------------------------------------
 BYTE   W96
// 016   ----------------------------------------
 BYTE   W96
// 017   ----------------------------------------
 BYTE   W96
// 018   ----------------------------------------
 BYTE   W96
// 019   ----------------------------------------
 BYTE   W96
// 020   ----------------------------------------
 BYTE   W96
// 021   ----------------------------------------
 BYTE   W96
// 022   ----------------------------------------
 BYTE   W96
// 023   ----------------------------------------
 BYTE   W96
// 024   ----------------------------------------
 BYTE   W96
// 025   ----------------------------------------
 BYTE   W96
// 026   ----------------------------------------
 BYTE   W96
// 027   ----------------------------------------
 BYTE   W96
// 028   ----------------------------------------
 BYTE   W96
// 029   ----------------------------------------
 BYTE   W96
// 030   ----------------------------------------
 BYTE   W96
// 031   ----------------------------------------
 BYTE   W96
// 032   ----------------------------------------
 BYTE   W96
// 033   ----------------------------------------
 BYTE   W96
// 034   ----------------------------------------
 BYTE   W96
// 035   ----------------------------------------
 BYTE   W96
// 036   ----------------------------------------
 BYTE   W96
// 037   ----------------------------------------
 BYTE   W96
// 038   ----------------------------------------
 BYTE   W96
// 039   ----------------------------------------
 BYTE   W96
// 040   ----------------------------------------
 BYTE   W96
// 041   ----------------------------------------
 BYTE   W96
// 042   ----------------------------------------
 BYTE   W96
// 043   ----------------------------------------
 BYTE   W96
// 044   ----------------------------------------
 BYTE   W96
// 045   ----------------------------------------
 BYTE   W96
// 046   ----------------------------------------
 BYTE   W96
// 047   ----------------------------------------
 BYTE   W96
// 048   ----------------------------------------
 BYTE   W96
// 049   ----------------------------------------
 BYTE   W96
// 050   ----------------------------------------
 BYTE   W96
// 051   ----------------------------------------
 BYTE   W96
// 052   ----------------------------------------
 BYTE   W96
// 053   ----------------------------------------
 BYTE   W96
// 054   ----------------------------------------
 BYTE   W96
// 055   ----------------------------------------
 BYTE   W96
// 056   ----------------------------------------
 BYTE   W96
// 057   ----------------------------------------
 BYTE   W96
// 058   ----------------------------------------
 BYTE   W96
// 059   ----------------------------------------
 BYTE   W96
// 060   ----------------------------------------
 BYTE   W96
// 061   ----------------------------------------
 BYTE   W96
// 062   ----------------------------------------
 BYTE   W96
// 063   ----------------------------------------
 BYTE   W96
// 064   ----------------------------------------
 BYTE   PATT
  POIN2 Label_11_01024FA9
// 065   ----------------------------------------
 BYTE   PATT
  POIN2 Label_11_01024FB2
// 066   ----------------------------------------
 BYTE   W96
// 067   ----------------------------------------
 BYTE   W96
// 068   ----------------------------------------
 BYTE   PATT
  POIN2 Label_11_01024FC1
// 069   ----------------------------------------
 BYTE   GoTo
  POIN2 Label_11_01024FCA
 BYTE   FINE

//**************** Track 13 (Midi-Chn.12) ****************//

Jaws_013:
// 000   ----------------------------------------
 BYTE   KEYSH   Jaws_key+0
 BYTE   VOICE   23
 BYTE   W96
// 001   ----------------------------------------
 BYTE   W96
// 002   ----------------------------------------
 BYTE   W96
// 003   ----------------------------------------
 BYTE   W96
// 004   ----------------------------------------
 BYTE   W96
// 005   ----------------------------------------
 BYTE   W96
// 006   ----------------------------------------
 BYTE   W96
// 007   ----------------------------------------
 BYTE   W96
// 008   ----------------------------------------
Label_12_01025028:
 BYTE   W96
// 009   ----------------------------------------
 BYTE   W96
// 010   ----------------------------------------
 BYTE   W96
// 011   ----------------------------------------
 BYTE   W96
// 012   ----------------------------------------
 BYTE   W96
// 013   ----------------------------------------
 BYTE   W96
// 014   ----------------------------------------
 BYTE   W96
// 015   ----------------------------------------
 BYTE   W96
// 016   ----------------------------------------
 BYTE   W96
// 017   ----------------------------------------
 BYTE   W96
// 018   ----------------------------------------
 BYTE   W96
// 019   ----------------------------------------
 BYTE   W96
// 020   ----------------------------------------
 BYTE   W96
// 021   ----------------------------------------
 BYTE   W96
// 022   ----------------------------------------
 BYTE   W96
// 023   ----------------------------------------
 BYTE   W96
// 024   ----------------------------------------
 BYTE   W96
// 025   ----------------------------------------
 BYTE   W96
// 026   ----------------------------------------
 BYTE   W96
// 027   ----------------------------------------
 BYTE   W96
// 028   ----------------------------------------
 BYTE   W96
// 029   ----------------------------------------
 BYTE   W96
// 030   ----------------------------------------
 BYTE   W96
// 031   ----------------------------------------
 BYTE   W96
// 032   ----------------------------------------
 BYTE   W96
// 033   ----------------------------------------
 BYTE   W96
// 034   ----------------------------------------
 BYTE   W96
// 035   ----------------------------------------
 BYTE   W96
// 036   ----------------------------------------
 BYTE   W96
// 037   ----------------------------------------
 BYTE   W96
// 038   ----------------------------------------
 BYTE   W96
// 039   ----------------------------------------
 BYTE   W96
// 040   ----------------------------------------
 BYTE   W96
// 041   ----------------------------------------
 BYTE   W96
// 042   ----------------------------------------
 BYTE   W96
// 043   ----------------------------------------
 BYTE   W96
// 044   ----------------------------------------
 BYTE   W96
// 045   ----------------------------------------
 BYTE   W96
// 046   ----------------------------------------
 BYTE   W96
// 047   ----------------------------------------
 BYTE   W96
// 048   ----------------------------------------
 BYTE   W96
// 049   ----------------------------------------
 BYTE   W06
 BYTE   VOL   53*Jaws_mvl/mxv
 BYTE   PAN   c_v+1
 BYTE   W90
// 050   ----------------------------------------
 BYTE   N11  Cn4  v108
 BYTE   W12
 BYTE   As3
 BYTE   W12
 BYTE   Cn4
 BYTE   W12
 BYTE   N28  Ds4
 BYTE   W36
 BYTE   N11  As3
 BYTE   W12
 BYTE   Cn4
 BYTE   W12
// 051   ----------------------------------------
 BYTE   W12
 BYTE   N17  Gn3
 BYTE   W24
 BYTE   N11  As3
 BYTE   W12
 BYTE   Fn3
 BYTE   W12
 BYTE   Gn3
 BYTE   W12
 BYTE   Ds3
 BYTE   W12
 BYTE   Fn3
 BYTE   W12
// 052   ----------------------------------------
 BYTE   Gn3
 BYTE   W12
 BYTE   N23  Ds3
 BYTE   W24
 BYTE   N17  Fn3
 BYTE   W24
 BYTE   N11  Dn3
 BYTE   W12
 BYTE   Ds3
 BYTE   W12
 BYTE   Cn3
 BYTE   W12
// 053   ----------------------------------------
 BYTE   W12
 BYTE   As2
 BYTE   W12
 BYTE   Cn3
 BYTE   W12
 BYTE   N17  Ds3
 BYTE   W24
 BYTE   N11  As2
 BYTE   W12
 BYTE   N17  Cn3
 BYTE   W24
// 054   ----------------------------------------
 BYTE   N11  Fn2
 BYTE   W12
 BYTE   N23  Gn2
 BYTE   W24
 BYTE   N11  Fn2
 BYTE   W12
 BYTE   Gn2
 BYTE   W12
 BYTE   As2
 BYTE   W12
 BYTE   Cn3
 BYTE   W12
 BYTE   As2
 BYTE   W12
// 055   ----------------------------------------
 BYTE   Cn3
 BYTE   W12
 BYTE   Ds3
 BYTE   W12
 BYTE   Fn3
 BYTE   W12
 BYTE   Ds3
 BYTE   W12
 BYTE   Fn3
 BYTE   W12
 BYTE   Gn3
 BYTE   W12
 BYTE   As3
 BYTE   W12
 BYTE   Gn3
 BYTE   W12
// 056   ----------------------------------------
 BYTE   As3
 BYTE   W12
 BYTE   Cn4
 BYTE   W12
 BYTE   Ds4
 BYTE   W12
 BYTE   Cn4
 BYTE   W12
 BYTE   Ds4
 BYTE   W12
 BYTE   Fn4
 BYTE   W12
 BYTE   Gn4
 BYTE   W12
 BYTE   Fn4
 BYTE   W12
// 057   ----------------------------------------
 BYTE   N23  Gn4
 BYTE   W36
 BYTE   N17  Fn4
 BYTE   W36
 BYTE   N23  Gn4
 BYTE   W24
// 058   ----------------------------------------
 BYTE   W12
 BYTE   Fn4
 BYTE   W36
 BYTE   N11  Gn4
 BYTE   W24
 BYTE   Fn4
 BYTE   W24
// 059   ----------------------------------------
 BYTE   N23  Ds4
 BYTE   W36
 BYTE   N17  Dn4
 BYTE   W36
 BYTE   N23  Ds4
 BYTE   W24
// 060   ----------------------------------------
 BYTE   W12
 BYTE   Dn4
 BYTE   W36
 BYTE   N11  Ds4
 BYTE   W24
 BYTE   Dn4
 BYTE   W24
// 061   ----------------------------------------
 BYTE   TIE  An3
 BYTE   W96
// 062   ----------------------------------------
 BYTE   W92
 BYTE   W03
 BYTE   EOT
 BYTE   W01
// 063   ----------------------------------------
 BYTE   TIE  Gn3
 BYTE   W96
// 064   ----------------------------------------
 BYTE   W44
 BYTE   W03
 BYTE   EOT
 BYTE   W01
 BYTE   N44  Fn3
 BYTE   W48
// 065   ----------------------------------------
 BYTE   TIE  En3
 BYTE   W96
// 066   ----------------------------------------
 BYTE   W92
 BYTE   W03
 BYTE   EOT
 BYTE   W01
// 067   ----------------------------------------
 BYTE   TIE  Fn3
 BYTE   W96
// 068   ----------------------------------------
 BYTE   W88
 BYTE   W01
 BYTE   EOT
 BYTE   W07
// 069   ----------------------------------------
 BYTE   GoTo
  POIN2 Label_12_01025028
 BYTE   FINE

//**************** Track 14 (Midi-Chn.13) ****************//

Jaws_014:
// 000   ----------------------------------------
 BYTE   KEYSH   Jaws_key+0
 BYTE   VOICE   1
 BYTE   VOL   22*Jaws_mvl/mxv
 BYTE   PAN   c_v-50
 BYTE   W18
 BYTE   N05  En3  v080
 BYTE   W24
 BYTE   N28  Gn3
 BYTE   W54
// 001   ----------------------------------------
Label_13_0102511C:
 BYTE   W54
 BYTE   N05  En3  v080
 BYTE   W24
 BYTE   N28  Gn3
 BYTE   W18
 BYTE   PEND 
// 002   ----------------------------------------
 BYTE   W78
 BYTE   N05  Ds3
 BYTE   W18
// 003   ----------------------------------------
 BYTE   W06
 BYTE   N32  Gn3
 BYTE   W90
// 004   ----------------------------------------
Label_13_0102512D:
 BYTE   W18
 BYTE   N05  En3  v080
 BYTE   W24
 BYTE   N28  Gn3
 BYTE   W54
 BYTE   PEND 
// 005   ----------------------------------------
 BYTE   PATT
  POIN2 Label_13_0102511C
// 006   ----------------------------------------
 BYTE   W78
 BYTE   N05  Ds3  v080
 BYTE   W18
// 007   ----------------------------------------
 BYTE   W06
 BYTE   N32  Gn3
 BYTE   W90
// 008   ----------------------------------------
Label_13_01025144:
 BYTE   W96
// 009   ----------------------------------------
 BYTE   W96
// 010   ----------------------------------------
 BYTE   W96
// 011   ----------------------------------------
 BYTE   W96
// 012   ----------------------------------------
 BYTE   W96
// 013   ----------------------------------------
 BYTE   W96
// 014   ----------------------------------------
 BYTE   W96
// 015   ----------------------------------------
 BYTE   W96
// 016   ----------------------------------------
 BYTE   W96
// 017   ----------------------------------------
 BYTE   W96
// 018   ----------------------------------------
 BYTE   W96
// 019   ----------------------------------------
 BYTE   W96
// 020   ----------------------------------------
 BYTE   W96
// 021   ----------------------------------------
 BYTE   W96
// 022   ----------------------------------------
 BYTE   W96
// 023   ----------------------------------------
 BYTE   W96
// 024   ----------------------------------------
 BYTE   W96
// 025   ----------------------------------------
 BYTE   W96
// 026   ----------------------------------------
 BYTE   W96
// 027   ----------------------------------------
 BYTE   W96
// 028   ----------------------------------------
 BYTE   W96
// 029   ----------------------------------------
 BYTE   W96
// 030   ----------------------------------------
 BYTE   W96
// 031   ----------------------------------------
 BYTE   W96
// 032   ----------------------------------------
 BYTE   W96
// 033   ----------------------------------------
 BYTE   W96
// 034   ----------------------------------------
 BYTE   W96
// 035   ----------------------------------------
 BYTE   W96
// 036   ----------------------------------------
 BYTE   W96
// 037   ----------------------------------------
 BYTE   W96
// 038   ----------------------------------------
 BYTE   W96
// 039   ----------------------------------------
 BYTE   W96
// 040   ----------------------------------------
 BYTE   W96
// 041   ----------------------------------------
 BYTE   W96
// 042   ----------------------------------------
 BYTE   W96
// 043   ----------------------------------------
 BYTE   W96
// 044   ----------------------------------------
 BYTE   W96
// 045   ----------------------------------------
 BYTE   W96
// 046   ----------------------------------------
 BYTE   W96
// 047   ----------------------------------------
 BYTE   W96
// 048   ----------------------------------------
 BYTE   W96
// 049   ----------------------------------------
 BYTE   W96
// 050   ----------------------------------------
 BYTE   W96
// 051   ----------------------------------------
 BYTE   W96
// 052   ----------------------------------------
 BYTE   W96
// 053   ----------------------------------------
 BYTE   W96
// 054   ----------------------------------------
 BYTE   W96
// 055   ----------------------------------------
 BYTE   W96
// 056   ----------------------------------------
 BYTE   W96
// 057   ----------------------------------------
 BYTE   W96
// 058   ----------------------------------------
 BYTE   W96
// 059   ----------------------------------------
 BYTE   W96
// 060   ----------------------------------------
 BYTE   W96
// 061   ----------------------------------------
 BYTE   PATT
  POIN2 Label_13_0102512D
// 062   ----------------------------------------
 BYTE   PATT
  POIN2 Label_13_0102511C
// 063   ----------------------------------------
 BYTE   W78
 BYTE   N05  Ds3  v080
 BYTE   W18
// 064   ----------------------------------------
 BYTE   W06
 BYTE   N32  Gn3
 BYTE   W90
// 065   ----------------------------------------
 BYTE   PATT
  POIN2 Label_13_0102512D
// 066   ----------------------------------------
 BYTE   PATT
  POIN2 Label_13_0102511C
// 067   ----------------------------------------
 BYTE   W78
 BYTE   N05  Ds3  v080
 BYTE   W18
// 068   ----------------------------------------
 BYTE   W06
 BYTE   N32  Gn3
 BYTE   W90
// 069   ----------------------------------------
 BYTE   GoTo
  POIN2 Label_13_01025144
 BYTE   FINE

//**************** Track 15 (Midi-Chn.14) ****************//

Jaws_015:
// 000   ----------------------------------------
 BYTE   KEYSH   Jaws_key+0
 BYTE   VOICE   1
 BYTE   VOL   22*Jaws_mvl/mxv
 BYTE   PAN   c_v+50
 BYTE   W78
 BYTE   N05  En3  v080
 BYTE   W18
// 001   ----------------------------------------
 BYTE   W06
 BYTE   N32  Gn3
 BYTE   W90
// 002   ----------------------------------------
Label_14_010251B9:
 BYTE   W18
 BYTE   N05  Ds3  v080
 BYTE   W24
 BYTE   N28  Gn3
 BYTE   W54
 BYTE   PEND 
// 003   ----------------------------------------
Label_14_010251C2:
 BYTE   W54
 BYTE   N05  Ds3  v080
 BYTE   W24
 BYTE   N28  Gn3
 BYTE   W18
 BYTE   PEND 
// 004   ----------------------------------------
 BYTE   W78
 BYTE   N05  En3
 BYTE   W18
// 005   ----------------------------------------
 BYTE   W06
 BYTE   N32  Gn3
 BYTE   W90
// 006   ----------------------------------------
 BYTE   PATT
  POIN2 Label_14_010251B9
// 007   ----------------------------------------
 BYTE   W54
 BYTE   N05  Ds3  v080
 BYTE   W24
 BYTE   N14  Gn3
 BYTE   W18
// 008   ----------------------------------------
Label_14_010251E0:
 BYTE   W96
// 009   ----------------------------------------
 BYTE   W96
// 010   ----------------------------------------
 BYTE   W96
// 011   ----------------------------------------
 BYTE   W96
// 012   ----------------------------------------
 BYTE   W96
// 013   ----------------------------------------
 BYTE   W96
// 014   ----------------------------------------
 BYTE   W96
// 015   ----------------------------------------
 BYTE   W96
// 016   ----------------------------------------
 BYTE   W96
// 017   ----------------------------------------
 BYTE   W96
// 018   ----------------------------------------
 BYTE   W96
// 019   ----------------------------------------
 BYTE   W96
// 020   ----------------------------------------
 BYTE   W96
// 021   ----------------------------------------
 BYTE   W96
// 022   ----------------------------------------
 BYTE   W96
// 023   ----------------------------------------
 BYTE   W96
// 024   ----------------------------------------
 BYTE   W96
// 025   ----------------------------------------
 BYTE   W96
// 026   ----------------------------------------
 BYTE   W96
// 027   ----------------------------------------
 BYTE   W96
// 028   ----------------------------------------
 BYTE   W96
// 029   ----------------------------------------
 BYTE   W96
// 030   ----------------------------------------
 BYTE   W96
// 031   ----------------------------------------
 BYTE   W96
// 032   ----------------------------------------
 BYTE   W96
// 033   ----------------------------------------
 BYTE   W96
// 034   ----------------------------------------
 BYTE   W96
// 035   ----------------------------------------
 BYTE   W96
// 036   ----------------------------------------
 BYTE   W96
// 037   ----------------------------------------
 BYTE   W96
// 038   ----------------------------------------
 BYTE   W96
// 039   ----------------------------------------
 BYTE   W96
// 040   ----------------------------------------
 BYTE   W96
// 041   ----------------------------------------
 BYTE   W96
// 042   ----------------------------------------
 BYTE   W96
// 043   ----------------------------------------
 BYTE   W96
// 044   ----------------------------------------
 BYTE   W96
// 045   ----------------------------------------
 BYTE   W96
// 046   ----------------------------------------
 BYTE   W96
// 047   ----------------------------------------
 BYTE   W96
// 048   ----------------------------------------
 BYTE   W96
// 049   ----------------------------------------
 BYTE   W96
// 050   ----------------------------------------
 BYTE   W96
// 051   ----------------------------------------
 BYTE   W96
// 052   ----------------------------------------
 BYTE   W96
// 053   ----------------------------------------
 BYTE   W96
// 054   ----------------------------------------
 BYTE   W96
// 055   ----------------------------------------
 BYTE   W96
// 056   ----------------------------------------
 BYTE   W96
// 057   ----------------------------------------
 BYTE   W96
// 058   ----------------------------------------
 BYTE   W96
// 059   ----------------------------------------
 BYTE   W96
// 060   ----------------------------------------
 BYTE   W96
// 061   ----------------------------------------
 BYTE   W78
 BYTE   N05  En3  v080
 BYTE   W18
// 062   ----------------------------------------
 BYTE   W06
 BYTE   N32  Gn3
 BYTE   W90
// 063   ----------------------------------------
 BYTE   PATT
  POIN2 Label_14_010251B9
// 064   ----------------------------------------
 BYTE   PATT
  POIN2 Label_14_010251C2
// 065   ----------------------------------------
 BYTE   W78
 BYTE   N05  En3  v080
 BYTE   W18
// 066   ----------------------------------------
 BYTE   W06
 BYTE   N32  Gn3
 BYTE   W90
// 067   ----------------------------------------
 BYTE   PATT
  POIN2 Label_14_010251B9
// 068   ----------------------------------------
 BYTE   W54
 BYTE   N05  Ds3  v080
 BYTE   W24
 BYTE   N17  Gn3
 BYTE   W18
// 069   ----------------------------------------
 BYTE   GoTo
  POIN2 Label_14_010251E0
 BYTE   FINE

//******************************************************//
	ALIGN 4

Jaws:
	BYTE	15	// NumTrks
	BYTE	0	// NumBlks
	BYTE	Jaws_pri	// Priority
	BYTE	Jaws_rev	// Reverb.
    
	POIN2	Jaws_grp
    
	POIN2	Jaws_001
	POIN2	Jaws_002
	POIN2	Jaws_003
	POIN2	Jaws_004
	POIN2	Jaws_005
	POIN2	Jaws_006
	POIN2	Jaws_007
	POIN2	Jaws_008
	POIN2	Jaws_009
	POIN2	Jaws_010
	POIN2	Jaws_011
	POIN2	Jaws_012
	POIN2	Jaws_013
	POIN2	Jaws_014
	POIN2	Jaws_015

	
