//Event file generated from Sappy .s format.
	#include "MPlayDef.event"

	#define	JokingMotive_grp  voicegroup000
	#define	JokingMotive_pri  0
	#define	JokingMotive_rev  0
	#define	JokingMotive_mvl  127
	#define	JokingMotive_key  0
	#define	JokingMotive_tbs  1
	#define	JokingMotive_exg  0
	#define	JokingMotive_cmp  1

	// .rodata
	//	JokingMotive
	ALIGN 4


//**************** Track 1 (Midi-Chn.0) ****************//

JokingMotive_001:
//  #01 //000   ----------------------------------------
 BYTE   KEYSH   JokingMotive_key+0
 BYTE   TEMPO   130*JokingMotive_tbs/2
 BYTE   VOICE   124
 BYTE   VOL   40*JokingMotive_mvl/mxv
 BYTE   PAN   c_v+0
 BYTE   BEND   c_v+0
 BYTE   N11  Cn1  v120
 BYTE   W06
 BYTE   N05  Gs1  v036
 BYTE   W06
 BYTE   Gs1  v076
 BYTE   W06
 BYTE   Gs1  v036
 BYTE   W06
 BYTE   N11  Cn1  v120
 BYTE   W06
 BYTE   N05  Gs1  v036
 BYTE   W06
 BYTE   Gs1  v076
 BYTE   W06
 BYTE   Gs1  v036
 BYTE   W06
 BYTE   N11  Cn1  v120
 BYTE   W06
 BYTE   N05  Gs1  v036
 BYTE   W06
 BYTE   Gs1  v076
 BYTE   W06
 BYTE   Gs1  v036
 BYTE   W06
 BYTE   N11  Cn1  v120
 BYTE   W06
 BYTE   N05  Gs1  v036
 BYTE   W06
 BYTE   Gs1  v076
 BYTE   W06
 BYTE   Gs1  v036
 BYTE   W06
//  #01 //001   ----------------------------------------
Label_010064A8:
 BYTE   N11  Cn1  v120
 BYTE   W06
 BYTE   N05  Gs1  v036
 BYTE   W06
 BYTE   Gs1  v076
 BYTE   W06
 BYTE   Gs1  v036
 BYTE   W06
 BYTE   N11  Cn1  v120
 BYTE   W06
 BYTE   N05  Gs1  v036
 BYTE   W06
 BYTE   Gs1  v076
 BYTE   W06
 BYTE   Gs1  v036
 BYTE   W06
 BYTE   N11  Cn1  v120
 BYTE   W06
 BYTE   N05  Gs1  v036
 BYTE   W06
 BYTE   Gs1  v076
 BYTE   W06
 BYTE   Gs1  v036
 BYTE   W06
 BYTE   N11  Cn1  v120
 BYTE   W06
 BYTE   N05  Gs1  v036
 BYTE   W06
 BYTE   Gs1  v076
 BYTE   W06
 BYTE   Gs1  v036
 BYTE   W06
 BYTE   PEND 
//  #01 //002   ----------------------------------------
 BYTE   PATT
  POIN2 Label_010064A8
//  #01 //003   ----------------------------------------
Label_010064E6:
 BYTE   N11  Cn1  v120
 BYTE   N03  Dn1
 BYTE   W04
 BYTE   Dn1  v072
 BYTE   W04
 BYTE   Dn1  v048
 BYTE   W04
 BYTE   Dn1  v032
 BYTE   W04
 BYTE   Dn1  v024
 BYTE   W04
 BYTE   Dn1  v020
 BYTE   W04
 BYTE   N03
 BYTE   W04
 BYTE   N03
 BYTE   W04
 BYTE   N03
 BYTE   W04
 BYTE   Dn1  v016
 BYTE   W04
 BYTE   N03
 BYTE   W04
 BYTE   N09
 BYTE   W52
 BYTE   PEND 
//  #01 //004   ----------------------------------------
Label_01006509:
 BYTE   N11  Cn1  v120
 BYTE   N23  Cs2
 BYTE   W12
 BYTE   N05  Fs1  v076
 BYTE   W12
 BYTE   N18  Dn1  v120
 BYTE   N05  Fs1  v068
 BYTE   W12
 BYTE   Fs1  v060
 BYTE   W12
 BYTE   Fs1  v064
 BYTE   W12
 BYTE   N11  Cn1  v120
 BYTE   N05  Fs1  v052
 BYTE   W12
 BYTE   N18  Dn1  v120
 BYTE   N05  Fs1  v084
 BYTE   W12
 BYTE   Fs1  v048
 BYTE   W12
//  #01 //005   ----------------------------------------
 BYTE   N11  Cn1  v120
 BYTE   N05  Fs1  v064
 BYTE   W12
 BYTE   Fs1  v044
 BYTE   W12
 BYTE   N18  Dn1  v120
 BYTE   N05  Fs1  v084
 BYTE   W12
 BYTE   Fs1  v064
 BYTE   W12
 BYTE   Fs1  v068
 BYTE   W12
 BYTE   N11  Cn1  v120
 BYTE   N05  Fs1  v068
 BYTE   W12
 BYTE   N18  Dn1  v120
 BYTE   N05  Fs1  v092
 BYTE   W12
 BYTE   Fs1  v072
 BYTE   W06
 BYTE   N05
 BYTE   W06
//  #01 //006   ----------------------------------------
 BYTE   N11  Cn1  v120
 BYTE   N05  Fs1  v060
 BYTE   W12
 BYTE   Fs1  v076
 BYTE   W12
 BYTE   N18  Dn1  v120
 BYTE   N05  Fs1  v084
 BYTE   W12
 BYTE   Fs1  v048
 BYTE   W12
 BYTE   Fs1  v064
 BYTE   W12
 BYTE   N11  Cn1  v120
 BYTE   N05  Fs1  v072
 BYTE   W12
 BYTE   N18  Dn1  v120
 BYTE   N05  Fs1  v092
 BYTE   W12
 BYTE   Fs1  v064
 BYTE   W12
//  #01 //007   ----------------------------------------
 BYTE   N11  Cn1  v120
 BYTE   N05  Fs1  v072
 BYTE   W12
 BYTE   Fs1  v068
 BYTE   W12
 BYTE   N18  Dn1  v120
 BYTE   N05  Fs1  v092
 BYTE   W12
 BYTE   Fs1  v060
 BYTE   W12
 BYTE   Fs1  v068
 BYTE   W12
 BYTE   N11  Cn1  v120
 BYTE   N05  Fs1  v076
 BYTE   W12
 BYTE   N18  Dn1  v120
 BYTE   N05  Fs1  v092
 BYTE   W12
 BYTE   Fs1  v076
 BYTE   W06
 BYTE   Fs1  v064
 BYTE   W06
//  #01 //008   ----------------------------------------
 BYTE   N11  Cn1  v120
 BYTE   N05  Fs1  v060
 BYTE   W12
 BYTE   Fs1  v092
 BYTE   W12
 BYTE   N18  Dn1  v120
 BYTE   N05  Fs1  v092
 BYTE   W12
 BYTE   Fs1  v064
 BYTE   W12
 BYTE   Fs1  v076
 BYTE   W12
 BYTE   N11  Cn1  v120
 BYTE   N05  Fs1  v076
 BYTE   W12
 BYTE   N18  Dn1  v120
 BYTE   N05  Fs1  v092
 BYTE   W12
 BYTE   Fs1  v064
 BYTE   W06
 BYTE   N05
 BYTE   W06
//  #01 //009   ----------------------------------------
 BYTE   N11  Cn1  v120
 BYTE   N05  Fs1  v060
 BYTE   W12
 BYTE   Fs1  v084
 BYTE   W12
 BYTE   N18  Dn1  v120
 BYTE   N05  Fs1  v092
 BYTE   W12
 BYTE   Fs1  v060
 BYTE   W12
 BYTE   Fs1  v076
 BYTE   W12
 BYTE   N11  Cn1  v120
 BYTE   N05  Fs1  v064
 BYTE   W12
 BYTE   N18  Dn1  v120
 BYTE   N05  Fs1  v092
 BYTE   W12
 BYTE   Fs1  v056
 BYTE   W12
//  #01 //010   ----------------------------------------
 BYTE   N11  Cn1  v120
 BYTE   N05  Fs1  v072
 BYTE   W12
 BYTE   Fs1  v068
 BYTE   W12
 BYTE   N18  Dn1  v120
 BYTE   N05  Fs1  v092
 BYTE   W12
 BYTE   Fs1  v064
 BYTE   W06
 BYTE   Fs1  v052
 BYTE   W06
 BYTE   Fs1  v060
 BYTE   W12
 BYTE   N11  Cn1  v120
 BYTE   N05  Fs1  v076
 BYTE   W12
 BYTE   N18  Dn1  v120
 BYTE   N05  Fs1  v104
 BYTE   W12
 BYTE   Fs1  v092
 BYTE   W12
//  #01 //011   ----------------------------------------
 BYTE   N03  Dn1  v120
 BYTE   W04
 BYTE   Dn1  v072
 BYTE   W04
 BYTE   Dn1  v048
 BYTE   W04
 BYTE   Dn1  v032
 BYTE   W04
 BYTE   Dn1  v024
 BYTE   W04
 BYTE   Dn1  v020
 BYTE   W04
 BYTE   N03
 BYTE   W04
 BYTE   N03
 BYTE   W04
 BYTE   N03
 BYTE   W04
 BYTE   Dn1  v016
 BYTE   W04
 BYTE   N03
 BYTE   W04
 BYTE   N09
 BYTE   W40
 BYTE   N05  As1  v088
 BYTE   W12
//  #01 //012   ----------------------------------------
 BYTE   N11  Cn1  v120
 BYTE   N05  Fs1  v104
 BYTE   N23  Cs2  v120
 BYTE   W24
 BYTE   N18  Dn1
 BYTE   N05  Fs1  v040
 BYTE   W12
 BYTE   Fs1  v064
 BYTE   W12
 BYTE   Fs1  v060
 BYTE   W12
 BYTE   N11  Cn1  v120
 BYTE   N05  Fs1  v060
 BYTE   W12
 BYTE   N18  Dn1  v120
 BYTE   N05  Fs1  v092
 BYTE   W12
 BYTE   Fs1  v060
 BYTE   W12
//  #01 //013   ----------------------------------------
 BYTE   N11  Cn1  v120
 BYTE   N05  Fs1  v072
 BYTE   W12
 BYTE   Fs1  v064
 BYTE   W12
 BYTE   N18  Dn1  v120
 BYTE   N05  Fs1  v104
 BYTE   W12
 BYTE   Fs1  v060
 BYTE   W12
 BYTE   Fs1  v068
 BYTE   W12
 BYTE   N11  Cn1  v120
 BYTE   N05  Fs1  v064
 BYTE   W12
 BYTE   N18  Dn1  v120
 BYTE   N05  Fs1  v092
 BYTE   W12
 BYTE   Fs1  v068
 BYTE   W06
 BYTE   Fs1  v048
 BYTE   W06
//  #01 //014   ----------------------------------------
 BYTE   N11  Cn1  v120
 BYTE   N05  Fs1  v052
 BYTE   W12
 BYTE   Fs1  v092
 BYTE   W12
 BYTE   N18  Dn1  v120
 BYTE   N05  Fs1  v092
 BYTE   W12
 BYTE   Fs1  v064
 BYTE   W12
 BYTE   Fs1  v068
 BYTE   W12
 BYTE   N11  Cn1  v120
 BYTE   N05  Fs1  v064
 BYTE   W12
 BYTE   N18  Dn1  v120
 BYTE   N05  Fs1  v092
 BYTE   W12
 BYTE   Fs1  v060
 BYTE   W12
//  #01 //015   ----------------------------------------
 BYTE   N11  Cn1  v120
 BYTE   N05  Fs1  v064
 BYTE   W12
 BYTE   N05
 BYTE   W12
 BYTE   N18  Dn1  v120
 BYTE   N05  Fs1  v092
 BYTE   W12
 BYTE   Fs1  v072
 BYTE   W06
 BYTE   Fs1  v060
 BYTE   W06
 BYTE   Fs1  v052
 BYTE   W12
 BYTE   N11  Cn1  v120
 BYTE   N05  Fs1  v072
 BYTE   W12
 BYTE   N18  Dn1  v120
 BYTE   N05  Fs1  v104
 BYTE   W12
 BYTE   Fs1  v064
 BYTE   W12
//  #01 //016   ----------------------------------------
 BYTE   N11  Cn1  v120
 BYTE   N05  Fs1  v072
 BYTE   W12
 BYTE   Fs1  v052
 BYTE   W12
 BYTE   N18  Dn1  v120
 BYTE   N05  Fs1  v092
 BYTE   W12
 BYTE   Fs1  v064
 BYTE   W06
 BYTE   N05
 BYTE   W12
 BYTE   Fs1  v052
 BYTE   W06
 BYTE   N11  Cn1  v120
 BYTE   N05  Fs1  v072
 BYTE   W12
 BYTE   N18  Dn1  v120
 BYTE   N05  Fs1  v092
 BYTE   W12
 BYTE   Fs1  v064
 BYTE   W12
//  #01 //017   ----------------------------------------
 BYTE   N11  Cn1  v120
 BYTE   N05  Fs1  v072
 BYTE   W12
 BYTE   Fs1  v056
 BYTE   W12
 BYTE   N18  Dn1  v120
 BYTE   N05  Fs1  v092
 BYTE   W12
 BYTE   Fs1  v060
 BYTE   W06
 BYTE   Fs1  v052
 BYTE   W06
 BYTE   Fs1  v044
 BYTE   W12
 BYTE   N11  Cn1  v120
 BYTE   N05  Fs1  v076
 BYTE   W12
 BYTE   N18  Dn1  v120
 BYTE   N05  Fs1  v092
 BYTE   W12
 BYTE   Fs1  v068
 BYTE   W12
//  #01 //018   ----------------------------------------
 BYTE   N11  Cn1  v120
 BYTE   N05  Fs1  v084
 BYTE   W12
 BYTE   Fs1  v056
 BYTE   W12
 BYTE   N18  Dn1  v120
 BYTE   N05  Fs1  v084
 BYTE   W12
 BYTE   Fs1  v064
 BYTE   W06
 BYTE   Fs1  v060
 BYTE   W06
 BYTE   Fs1  v064
 BYTE   W12
 BYTE   N11  Cn1  v120
 BYTE   N05  Fs1  v084
 BYTE   W12
 BYTE   N18  Dn1  v120
 BYTE   N05  Fs1  v092
 BYTE   W12
 BYTE   Fs1  v084
 BYTE   W12
//  #01 //019   ----------------------------------------
 BYTE   N03  Dn1  v120
 BYTE   W04
 BYTE   Dn1  v072
 BYTE   W04
 BYTE   Dn1  v048
 BYTE   W04
 BYTE   Dn1  v032
 BYTE   W04
 BYTE   Dn1  v024
 BYTE   W04
 BYTE   Dn1  v020
 BYTE   W04
 BYTE   N03
 BYTE   W04
 BYTE   N03
 BYTE   W04
 BYTE   N03
 BYTE   W03
 BYTE   N01  Cn2  v076
 BYTE   W01
 BYTE   N03  Dn1  v016
 BYTE   N05  Cn2  v120
 BYTE   W04
 BYTE   N03  Dn1  v016
 BYTE   W04
 BYTE   N09
 BYTE   W15
 BYTE   N01  An1  v060
 BYTE   W01
 BYTE   N05  An1  v100
 BYTE   W12
 BYTE   An1  v120
 BYTE   W12
 BYTE   As1  v092
 BYTE   W12
//  #01 //020   ----------------------------------------
 BYTE   N11  Cn1  v120
 BYTE   N05  Fs1  v104
 BYTE   N23  En2  v120
 BYTE   W12
 BYTE   N11  Fn2  v108
 BYTE   W12
 BYTE   N18  Dn1  v120
 BYTE   N18  Ds1
 BYTE   W12
 BYTE   N11  Fn2  v092
 BYTE   W06
 BYTE   N05  Cn1  v100
 BYTE   W06
 BYTE   N11  Cn1  v120
 BYTE   W12
 BYTE   N11
 BYTE   N05  As1  v068
 BYTE   N11  Fn2  v104
 BYTE   W12
 BYTE   N18  Dn1  v120
 BYTE   N18  Ds1
 BYTE   N05  Fs1  v076
 BYTE   W12
 BYTE   As1
 BYTE   N11  Fn2  v096
 BYTE   W12
//  #01 //021   ----------------------------------------
 BYTE   Cn1  v120
 BYTE   N05  Fs1  v076
 BYTE   W12
 BYTE   As1
 BYTE   N11  Fn2  v108
 BYTE   W12
 BYTE   N18  Dn1  v120
 BYTE   N18  Ds1
 BYTE   N05  Fs1  v092
 BYTE   W12
 BYTE   As1  v068
 BYTE   N11  Fn2  v104
 BYTE   W06
 BYTE   N05  Cn1  v100
 BYTE   W06
 BYTE   N11  Cn1  v120
 BYTE   N05  Fs1  v084
 BYTE   W12
 BYTE   N11  Cn1  v120
 BYTE   N05  As1  v060
 BYTE   N11  Fn2  v104
 BYTE   W12
 BYTE   N18  Dn1  v120
 BYTE   N18  Ds1
 BYTE   N05  Fs1  v084
 BYTE   W12
 BYTE   As1  v076
 BYTE   N11  Fn2  v104
 BYTE   W12
//  #01 //022   ----------------------------------------
 BYTE   Cn1  v120
 BYTE   N05  Fs1  v072
 BYTE   W12
 BYTE   As1  v068
 BYTE   N11  Fn2  v100
 BYTE   W12
 BYTE   N18  Dn1  v120
 BYTE   N18  Ds1
 BYTE   N05  Fs1  v084
 BYTE   W12
 BYTE   As1  v068
 BYTE   N11  Fn2  v104
 BYTE   W06
 BYTE   N05  Cn1  v100
 BYTE   W06
 BYTE   N11  Cn1  v120
 BYTE   N05  Fs1  v076
 BYTE   W12
 BYTE   N11  Cn1  v120
 BYTE   N05  As1  v068
 BYTE   N11  Fn2  v104
 BYTE   W12
 BYTE   N18  Dn1  v120
 BYTE   N18  Ds1
 BYTE   N05  Fs1  v076
 BYTE   W12
 BYTE   As1
 BYTE   N11  Fn2  v104
 BYTE   W12
//  #01 //023   ----------------------------------------
 BYTE   Cn1  v120
 BYTE   N05  Fs1  v072
 BYTE   W12
 BYTE   As1  v076
 BYTE   N11  Fn2  v100
 BYTE   W12
 BYTE   N18  Dn1  v120
 BYTE   N18  Ds1
 BYTE   N05  Fs1  v076
 BYTE   W12
 BYTE   As1
 BYTE   N11  Fn2  v108
 BYTE   W06
 BYTE   N05  Cn1  v100
 BYTE   W06
 BYTE   N11  Cn1  v120
 BYTE   N05  Fs1  v072
 BYTE   W12
 BYTE   N11  Cn1  v120
 BYTE   N05  As1  v076
 BYTE   N11  Fn2  v104
 BYTE   W12
 BYTE   N18  Dn1  v120
 BYTE   N18  Ds1
 BYTE   N05  Fs1  v076
 BYTE   W12
 BYTE   As1  v068
 BYTE   N11  Fn2  v096
 BYTE   W12
//  #01 //024   ----------------------------------------
 BYTE   Cn1  v120
 BYTE   N05  Fs1  v076
 BYTE   W12
 BYTE   As1  v068
 BYTE   N11  Fn2  v100
 BYTE   W12
 BYTE   N18  Dn1  v120
 BYTE   N18  Ds1
 BYTE   N05  Fs1  v072
 BYTE   W12
 BYTE   As1  v076
 BYTE   N11  Fn2  v096
 BYTE   W06
 BYTE   N05  Cn1  v100
 BYTE   W06
 BYTE   N11  Cn1  v120
 BYTE   N05  Fs1  v076
 BYTE   W12
 BYTE   N11  Cn1  v120
 BYTE   N05  As1  v076
 BYTE   N11  Fn2  v096
 BYTE   W12
 BYTE   N18  Dn1  v120
 BYTE   N18  Ds1
 BYTE   N05  Fs1  v076
 BYTE   W12
 BYTE   As1
 BYTE   N11  Fn2  v108
 BYTE   W12
//  #01 //025   ----------------------------------------
 BYTE   Cn1  v120
 BYTE   N05  Fs1  v076
 BYTE   W12
 BYTE   As1  v068
 BYTE   N11  Fn2  v104
 BYTE   W12
 BYTE   N18  Dn1  v120
 BYTE   N18  Ds1
 BYTE   N05  Fs1  v084
 BYTE   W12
 BYTE   As1  v076
 BYTE   N11  Fn2  v096
 BYTE   W06
 BYTE   N05  Cn1  v100
 BYTE   W06
 BYTE   N11  Cn1  v120
 BYTE   N05  Fs1  v084
 BYTE   W12
 BYTE   N11  Cn1  v120
 BYTE   N05  As1  v068
 BYTE   N11  Fn2  v108
 BYTE   W12
 BYTE   N18  Dn1  v120
 BYTE   N18  Ds1
 BYTE   N05  Fs1  v084
 BYTE   W12
 BYTE   As1  v056
 BYTE   N11  Fn2  v104
 BYTE   W12
//  #01 //026   ----------------------------------------
 BYTE   Cn1  v120
 BYTE   W12
 BYTE   Dn1
 BYTE   W12
 BYTE   Cn1
 BYTE   N17  Dn1
 BYTE   N05  As1  v036
 BYTE   W24
 BYTE   N11  Cn1  v120
 BYTE   N11  Dn1
 BYTE   N05  As1  v088
 BYTE   W12
 BYTE   N17  Dn1  v120
 BYTE   W12
 BYTE   N11  Cn1
 BYTE   N05  As1  v088
 BYTE   W12
 BYTE   N17  Dn1  v120
 BYTE   W12
//  #01 //027   ----------------------------------------
 BYTE   N11  Cn1
 BYTE   N05  As1  v088
 BYTE   W12
 BYTE   N11  Dn1  v120
 BYTE   W12
 BYTE   Cn1
 BYTE   N17  Dn1
 BYTE   N05  As1  v088
 BYTE   W24
 BYTE   N11  Cn1  v120
 BYTE   N17  Dn1
 BYTE   N05  As1  v088
 BYTE   W12
 BYTE   N11  Cn1  v112
 BYTE   W12
 BYTE   Cn1  v120
 BYTE   N17  Dn1
 BYTE   N05  As1  v088
 BYTE   W12
 BYTE   N11  Cn1  v112
 BYTE   W12
//  #01 //028   ----------------------------------------
 BYTE   Cn1  v120
 BYTE   N05  Fs1  v076
 BYTE   N23  Cs2  v120
 BYTE   W12
 BYTE   N05  Fs1  v076
 BYTE   W12
 BYTE   N18  Dn1  v120
 BYTE   N05  Fs1  v092
 BYTE   W12
 BYTE   Fs1  v064
 BYTE   W12
 BYTE   Fs1  v084
 BYTE   W12
 BYTE   N11  Cn1  v120
 BYTE   N05  Fs1  v076
 BYTE   W12
 BYTE   N18  Dn1  v120
 BYTE   N05  Fs1  v092
 BYTE   W12
 BYTE   Fs1  v084
 BYTE   W06
 BYTE   Fs1  v064
 BYTE   W06
//  #01 //029   ----------------------------------------
 BYTE   N11  Cn1  v120
 BYTE   N05  Fs1  v052
 BYTE   W12
 BYTE   Fs1  v092
 BYTE   W12
 BYTE   N18  Dn1  v120
 BYTE   N05  Fs1  v092
 BYTE   W12
 BYTE   Fs1  v072
 BYTE   W12
 BYTE   Fs1  v076
 BYTE   W12
 BYTE   N11  Cn1  v120
 BYTE   N05  Fs1  v064
 BYTE   W12
 BYTE   N18  Dn1  v120
 BYTE   N05  Fs1  v092
 BYTE   W12
 BYTE   Fs1  v064
 BYTE   W12
//  #01 //030   ----------------------------------------
 BYTE   N11  Cn1  v120
 BYTE   N05  Fs1  v084
 BYTE   W12
 BYTE   Fs1  v068
 BYTE   W12
 BYTE   N18  Dn1  v120
 BYTE   N05  Fs1  v092
 BYTE   W12
 BYTE   Fs1  v084
 BYTE   W12
 BYTE   Fs1  v076
 BYTE   W12
 BYTE   N11  Cn1  v120
 BYTE   N05  Fs1  v084
 BYTE   W12
 BYTE   N18  Dn1  v120
 BYTE   N05  Fs1  v092
 BYTE   W12
 BYTE   Fs1  v084
 BYTE   W06
 BYTE   Fs1  v068
 BYTE   W06
//  #01 //031   ----------------------------------------
 BYTE   N11  Cn1  v120
 BYTE   N05  Fs1  v060
 BYTE   W12
 BYTE   Fs1  v092
 BYTE   W12
 BYTE   N18  Dn1  v120
 BYTE   N05  Fs1  v084
 BYTE   W12
 BYTE   Fs1  v064
 BYTE   W12
 BYTE   Fs1  v072
 BYTE   W12
 BYTE   N11  Cn1  v120
 BYTE   N05  Fs1  v076
 BYTE   W12
 BYTE   N18  Dn1  v120
 BYTE   N05  Fs1  v084
 BYTE   W12
 BYTE   As1  v076
 BYTE   N05  Bn1  v104
 BYTE   W12
//  #01 //032   ----------------------------------------
 BYTE   N11  Cn1  v120
 BYTE   N05  Fs1  v092
 BYTE   W12
 BYTE   Fs1  v084
 BYTE   W12
 BYTE   N18  Dn1  v120
 BYTE   N05  Fs1  v076
 BYTE   W12
 BYTE   Fs1  v072
 BYTE   W06
 BYTE   Fs1  v060
 BYTE   W06
 BYTE   Fs1  v052
 BYTE   W12
 BYTE   N11  Cn1  v120
 BYTE   N05  Fs1  v092
 BYTE   W12
 BYTE   N18  Dn1  v120
 BYTE   N05  Fs1  v092
 BYTE   W12
 BYTE   Fs1  v084
 BYTE   W12
//  #01 //033   ----------------------------------------
 BYTE   N11  Cn1  v120
 BYTE   N05  Fs1  v084
 BYTE   W12
 BYTE   Fs1  v064
 BYTE   W12
 BYTE   N18  Dn1  v120
 BYTE   N05  Fs1  v092
 BYTE   W12
 BYTE   Fs1  v064
 BYTE   W12
 BYTE   Fs1  v072
 BYTE   W12
 BYTE   N11  Cn1  v120
 BYTE   N05  Fs1  v044
 BYTE   W12
 BYTE   N18  Dn1  v120
 BYTE   N05  Fs1  v084
 BYTE   W12
 BYTE   Fs1  v068
 BYTE   W12
//  #01 //034   ----------------------------------------
 BYTE   N11  Cn1  v120
 BYTE   N05  Fs1  v092
 BYTE   W12
 BYTE   Fs1  v048
 BYTE   W12
 BYTE   N18  Dn1  v120
 BYTE   N05  Fs1  v076
 BYTE   W12
 BYTE   Fs1  v060
 BYTE   W12
 BYTE   Fs1  v084
 BYTE   W12
 BYTE   N11  Cn1  v120
 BYTE   N05  Fs1  v084
 BYTE   W12
 BYTE   N18  Dn1  v120
 BYTE   N05  Fs1  v092
 BYTE   W12
 BYTE   Fs1  v104
 BYTE   W12
//  #01 //035   ----------------------------------------
 BYTE   PATT
  POIN2 Label_010064E6
//  #01 //036   ----------------------------------------
 BYTE   N11  Cn1  v120
 BYTE   N23  Cs2
 BYTE   W06
 BYTE   N05  Gs1  v036
 BYTE   W06
 BYTE   Gs1  v076
 BYTE   W06
 BYTE   Gs1  v036
 BYTE   W06
 BYTE   N11  Cn1  v120
 BYTE   W06
 BYTE   N05  Gs1  v036
 BYTE   W06
 BYTE   Gs1  v076
 BYTE   W06
 BYTE   Gs1  v036
 BYTE   W06
 BYTE   N11  Cn1  v120
 BYTE   W06
 BYTE   N05  Gs1  v036
 BYTE   W06
 BYTE   Gs1  v076
 BYTE   W06
 BYTE   Gs1  v036
 BYTE   W06
 BYTE   N11  Cn1  v120
 BYTE   W06
 BYTE   N05  Gs1  v036
 BYTE   W06
 BYTE   Gs1  v076
 BYTE   W06
 BYTE   Gs1  v036
 BYTE   W06
//  #01 //037   ----------------------------------------
 BYTE   PATT
  POIN2 Label_010064A8
//  #01 //038   ----------------------------------------
 BYTE   PATT
  POIN2 Label_010064A8
//  #01 //039   ----------------------------------------
 BYTE   N11  Cn1  v120
 BYTE   N05  Dn1  v012
 BYTE   N05  As1  v076
 BYTE   W06
 BYTE   Dn1  v020
 BYTE   W06
 BYTE   Dn1  v028
 BYTE   W06
 BYTE   Dn1  v032
 BYTE   W06
 BYTE   N11  Cn1  v120
 BYTE   N05  Dn1  v040
 BYTE   N05  As1  v052
 BYTE   W06
 BYTE   Dn1  v048
 BYTE   W06
 BYTE   Dn1  v056
 BYTE   W06
 BYTE   Dn1  v064
 BYTE   W06
 BYTE   N11  Cn1  v120
 BYTE   N05  Dn1  v068
 BYTE   N05  As1  v076
 BYTE   W06
 BYTE   Dn1
 BYTE   W06
 BYTE   N11  Cn1  v112
 BYTE   N05  Dn1  v084
 BYTE   W06
 BYTE   Dn1  v092
 BYTE   W06
 BYTE   N11  Cn1  v120
 BYTE   N05  Dn1  v100
 BYTE   N05  As1  v092
 BYTE   W06
 BYTE   Dn1  v108
 BYTE   W06
 BYTE   N11  Cn1  v112
 BYTE   N05  Dn1
 BYTE   W06
 BYTE   N11  Dn1  v120
 BYTE   W06
//  #01 //040   ----------------------------------------
 BYTE   Cn1
 BYTE   N05  Fs1  v076
 BYTE   N23  Cs2  v120
 BYTE   W12
 BYTE   N05  As1  v076
 BYTE   W12
 BYTE   N18  Dn1  v120
 BYTE   W12
 BYTE   N05  As1  v068
 BYTE   W12
 BYTE   Fs1  v092
 BYTE   W12
 BYTE   N11  Cn1  v120
 BYTE   N05  As1  v068
 BYTE   W12
 BYTE   N17  Dn1  v120
 BYTE   N05  Fs1  v076
 BYTE   W12
 BYTE   N11  Cn1  v112
 BYTE   N05  As1  v060
 BYTE   W06
 BYTE   N18  Dn1  v120
 BYTE   W06
//  #01 //041   ----------------------------------------
 BYTE   N11  Cn1
 BYTE   N05  Fs1  v092
 BYTE   W12
 BYTE   As1  v076
 BYTE   W12
 BYTE   N18  Dn1  v120
 BYTE   N05  Fs1  v092
 BYTE   W12
 BYTE   As1  v068
 BYTE   W12
 BYTE   Fs1  v092
 BYTE   W12
 BYTE   N11  Cn1  v120
 BYTE   N05  As1  v068
 BYTE   W12
 BYTE   N17  Dn1  v120
 BYTE   N05  Fs1  v092
 BYTE   W12
 BYTE   N11  Cn1  v112
 BYTE   N05  As1  v076
 BYTE   W06
 BYTE   N18  Dn1  v120
 BYTE   W06
//  #01 //042   ----------------------------------------
 BYTE   N11  Cn1
 BYTE   N05  Fs1  v104
 BYTE   W12
 BYTE   As1  v088
 BYTE   W12
 BYTE   N18  Dn1  v120
 BYTE   N05  Fs1  v092
 BYTE   W12
 BYTE   As1  v068
 BYTE   W12
 BYTE   Fs1  v092
 BYTE   W12
 BYTE   N11  Cn1  v120
 BYTE   N05  As1  v076
 BYTE   W12
 BYTE   N17  Dn1  v120
 BYTE   N05  Fs1  v084
 BYTE   W12
 BYTE   N11  Cn1  v112
 BYTE   N05  As1  v068
 BYTE   W06
 BYTE   N18  Dn1  v120
 BYTE   W06
//  #01 //043   ----------------------------------------
 BYTE   N11  Cn1
 BYTE   N05  Fs1  v092
 BYTE   W12
 BYTE   As1  v076
 BYTE   W12
 BYTE   N18  Dn1  v120
 BYTE   N05  Fs1  v092
 BYTE   W12
 BYTE   As1  v068
 BYTE   W12
 BYTE   Fs1  v084
 BYTE   W12
 BYTE   N11  Cn1  v120
 BYTE   N05  As1  v088
 BYTE   W12
 BYTE   N10  Dn1  v120
 BYTE   N05  Fs1  v092
 BYTE   W12
 BYTE   N11  Cn1  v112
 BYTE   N05  Dn1  v120
 BYTE   N05  As1  v076
 BYTE   W06
 BYTE   N10  Dn1  v120
 BYTE   W06
//  #01 //044   ----------------------------------------
 BYTE   N11  Cn1
 BYTE   N05  Fs1  v092
 BYTE   N23  En2  v120
 BYTE   W12
 BYTE   N05  As1  v076
 BYTE   W12
 BYTE   N18  Dn1  v120
 BYTE   N05  Fs1  v092
 BYTE   W12
 BYTE   As1  v068
 BYTE   W12
 BYTE   Fs1  v092
 BYTE   W12
 BYTE   N11  Cn1  v120
 BYTE   N05  As1  v076
 BYTE   W12
 BYTE   N17  Dn1  v120
 BYTE   N05  Fs1  v084
 BYTE   W12
 BYTE   N11  Cn1  v112
 BYTE   N05  As1  v068
 BYTE   W06
 BYTE   N18  Dn1  v120
 BYTE   W06
//  #01 //045   ----------------------------------------
 BYTE   N11  Cn1
 BYTE   N05  Fs1  v084
 BYTE   W12
 BYTE   As1  v076
 BYTE   W12
 BYTE   N18  Dn1  v120
 BYTE   N05  Fs1  v084
 BYTE   W12
 BYTE   As1  v076
 BYTE   W12
 BYTE   Fs1  v092
 BYTE   W12
 BYTE   N11  Cn1  v120
 BYTE   N05  As1  v076
 BYTE   W12
 BYTE   N17  Dn1  v120
 BYTE   N05  Fs1  v084
 BYTE   W12
 BYTE   N11  Cn1  v112
 BYTE   N05  As1  v076
 BYTE   W06
 BYTE   N18  Dn1  v120
 BYTE   W06
//  #01 //046   ----------------------------------------
 BYTE   N11  Cn1
 BYTE   N05  Fs1  v092
 BYTE   W12
 BYTE   As1  v076
 BYTE   W12
 BYTE   N18  Dn1  v120
 BYTE   N05  Fs1  v084
 BYTE   W12
 BYTE   As1  v088
 BYTE   W12
 BYTE   Fs1  v084
 BYTE   W12
 BYTE   N11  Cn1  v120
 BYTE   N05  As1  v076
 BYTE   W12
 BYTE   N17  Dn1  v120
 BYTE   N05  Fs1  v092
 BYTE   W12
 BYTE   N11  Cn1  v112
 BYTE   N05  As1  v088
 BYTE   W06
 BYTE   N18  Dn1  v120
 BYTE   W06
//  #01 //047   ----------------------------------------
 BYTE   N11  Cn1
 BYTE   N05  Fs1  v084
 BYTE   N05  Cn2  v080
 BYTE   W06
 BYTE   Dn2  v112
 BYTE   W06
 BYTE   Fs1  v068
 BYTE   N05  Cn2  v104
 BYTE   W12
 BYTE   N18  Dn1  v120
 BYTE   N05  Dn2  v116
 BYTE   W12
 BYTE   Fs1  v084
 BYTE   W06
 BYTE   Cn2  v112
 BYTE   W12
 BYTE   N05
 BYTE   W06
 BYTE   N11  Cn1  v120
 BYTE   N05  Fs1  v076
 BYTE   N05  An1  v124
 BYTE   W12
 BYTE   N17  Dn1  v120
 BYTE   N05  An1  v104
 BYTE   W12
 BYTE   N11  Cn1  v112
 BYTE   N05  Fn1  v116
 BYTE   N05  Fs1  v084
 BYTE   W06
 BYTE   N18  Dn1  v120
 BYTE   W06
//  #01 //048   ----------------------------------------
 BYTE   N11  Cn1
 BYTE   N05  Fs1  v076
 BYTE   N23  Cs2  v120
 BYTE   W12
 BYTE   N05  As1  v076
 BYTE   W12
 BYTE   N18  Dn1  v120
 BYTE   N05  Fs1  v092
 BYTE   W12
 BYTE   As1  v076
 BYTE   W12
 BYTE   Fs1  v084
 BYTE   W12
 BYTE   N11  Cn1  v120
 BYTE   N05  As1  v088
 BYTE   W12
 BYTE   N17  Dn1  v120
 BYTE   N05  Fs1  v092
 BYTE   W12
 BYTE   N11  Cn1  v112
 BYTE   N05  As1  v088
 BYTE   W06
 BYTE   N18  Dn1  v120
 BYTE   W06
//  #01 //049   ----------------------------------------
 BYTE   N11  Cn1
 BYTE   N05  Fs1  v084
 BYTE   W12
 BYTE   As1  v088
 BYTE   W12
 BYTE   N18  Dn1  v120
 BYTE   N05  Fs1  v092
 BYTE   W12
 BYTE   As1  v076
 BYTE   W12
 BYTE   Fs1  v084
 BYTE   W12
 BYTE   N11  Cn1  v120
 BYTE   N05  As1  v076
 BYTE   W12
 BYTE   N17  Dn1  v120
 BYTE   N05  Fs1  v084
 BYTE   W12
 BYTE   N11  Cn1  v112
 BYTE   N05  As1  v076
 BYTE   W06
 BYTE   N18  Dn1  v120
 BYTE   W06
//  #01 //050   ----------------------------------------
 BYTE   N11  Cn1
 BYTE   N05  Fs1  v084
 BYTE   W12
 BYTE   As1  v076
 BYTE   W12
 BYTE   N18  Dn1  v120
 BYTE   N05  Fs1  v076
 BYTE   W12
 BYTE   As1
 BYTE   W12
 BYTE   Fs1  v084
 BYTE   W12
 BYTE   N11  Cn1  v120
 BYTE   N05  As1  v068
 BYTE   W12
 BYTE   N17  Dn1  v120
 BYTE   N05  Fs1  v084
 BYTE   W12
 BYTE   N11  Cn1  v112
 BYTE   N05  As1  v068
 BYTE   W06
 BYTE   N18  Dn1  v120
 BYTE   W06
//  #01 //051   ----------------------------------------
 BYTE   N11  Cn1
 BYTE   N05  Fs1  v076
 BYTE   W12
 BYTE   As1
 BYTE   W12
 BYTE   N18  Dn1  v120
 BYTE   N05  Fs1  v084
 BYTE   W12
 BYTE   As1  v076
 BYTE   W12
 BYTE   Fs1
 BYTE   W12
 BYTE   N11  Cn1  v120
 BYTE   N05  As1  v068
 BYTE   W12
 BYTE   N17  Dn1  v120
 BYTE   N05  Fs1  v084
 BYTE   W12
 BYTE   N11  Cn1  v112
 BYTE   N05  Fn1  v116
 BYTE   N05  As1  v068
 BYTE   W06
 BYTE   N18  Dn1  v120
 BYTE   W06
//  #01 //052   ----------------------------------------
 BYTE   N11  Cn1
 BYTE   N05  Fs1  v084
 BYTE   N23  En2  v120
 BYTE   W12
 BYTE   N05  As1  v076
 BYTE   W12
 BYTE   N18  Dn1  v120
 BYTE   N05  Fs1  v076
 BYTE   W12
 BYTE   As1
 BYTE   W12
 BYTE   Fs1
 BYTE   W12
 BYTE   N11  Cn1  v120
 BYTE   N05  As1  v068
 BYTE   W12
 BYTE   N17  Dn1  v120
 BYTE   N05  Fs1  v076
 BYTE   W12
 BYTE   N11  Cn1  v112
 BYTE   N05  As1  v076
 BYTE   W06
 BYTE   N18  Dn1  v120
 BYTE   W06
//  #01 //053   ----------------------------------------
 BYTE   N11  Cn1
 BYTE   N05  Fs1  v076
 BYTE   W12
 BYTE   As1
 BYTE   W12
 BYTE   N18  Dn1  v120
 BYTE   N05  Fs1  v076
 BYTE   W12
 BYTE   As1
 BYTE   W12
 BYTE   Fs1
 BYTE   W12
 BYTE   N11  Cn1  v120
 BYTE   N05  As1  v068
 BYTE   W12
 BYTE   N17  Dn1  v120
 BYTE   N05  Fs1  v076
 BYTE   W12
 BYTE   N11  Cn1  v112
 BYTE   N05  As1  v068
 BYTE   W06
 BYTE   N18  Dn1  v120
 BYTE   W06
//  #01 //054   ----------------------------------------
 BYTE   N11  Cn1
 BYTE   N05  Fs1  v076
 BYTE   W12
 BYTE   As1
 BYTE   W12
 BYTE   N18  Dn1  v120
 BYTE   N05  Fs1  v084
 BYTE   W12
 BYTE   As1  v068
 BYTE   W12
 BYTE   Fs1  v076
 BYTE   W12
 BYTE   N11  Cn1  v120
 BYTE   N05  As1  v068
 BYTE   W12
 BYTE   N17  Dn1  v120
 BYTE   N05  Fs1  v072
 BYTE   W12
 BYTE   N11  Cn1  v112
 BYTE   N05  As1  v068
 BYTE   W06
 BYTE   Dn1  v120
 BYTE   W06
//  #01 //055   ----------------------------------------
 BYTE   N11  Cn1
 BYTE   N05  Dn1  v020
 BYTE   N05  Fs1  v084
 BYTE   W06
 BYTE   Dn1  v028
 BYTE   W06
 BYTE   Dn1  v032
 BYTE   W06
 BYTE   Dn1  v040
 BYTE   W06
 BYTE   N11  Cn1  v120
 BYTE   N05  Dn1  v044
 BYTE   W06
 BYTE   Dn1  v052
 BYTE   W06
 BYTE   Dn1  v060
 BYTE   N05  Fs1  v068
 BYTE   W06
 BYTE   Dn1
 BYTE   W06
 BYTE   N11  Cn1  v120
 BYTE   N05  Dn1  v072
 BYTE   W06
 BYTE   Dn1  v080
 BYTE   W06
 BYTE   Dn1  v088
 BYTE   N05  Fs1  v084
 BYTE   W06
 BYTE   Dn1  v096
 BYTE   W06
 BYTE   N11  Cn1  v120
 BYTE   N05  Dn1  v104
 BYTE   W06
 BYTE   Dn1  v108
 BYTE   W06
 BYTE   Dn1  v116
 BYTE   N05  Fs1  v072
 BYTE   W06
 BYTE   N11  Dn1  v120
 BYTE   W06
//  #01 //056   ----------------------------------------
 BYTE   Cn1
 BYTE   N05  Fs1  v056
 BYTE   N23  En2  v120
 BYTE   W12
 BYTE   N05  Fs1  v072
 BYTE   N11  Fn2  v108
 BYTE   W12
 BYTE   N18  Dn1  v120
 BYTE   N18  Ds1
 BYTE   N05  Fs1  v076
 BYTE   W12
 BYTE   Fs1  v060
 BYTE   N11  Fn2  v096
 BYTE   W12
 BYTE   N05  Fs1  v072
 BYTE   W12
 BYTE   N11  Cn1  v120
 BYTE   N05  Fs1  v068
 BYTE   N11  Fn2  v104
 BYTE   W12
 BYTE   N18  Dn1  v120
 BYTE   N18  Ds1
 BYTE   N05  Fs1  v068
 BYTE   W12
 BYTE   Fs1  v076
 BYTE   N11  Fn2  v100
 BYTE   W06
 BYTE   N05  Fs1  v060
 BYTE   W06
//  #01 //057   ----------------------------------------
 BYTE   N11  Cn1  v120
 BYTE   N05  Fs1  v060
 BYTE   W12
 BYTE   Fs1  v092
 BYTE   N11  Fn2  v108
 BYTE   W12
 BYTE   N18  Dn1  v120
 BYTE   N18  Ds1
 BYTE   N05  Fs1  v104
 BYTE   W12
 BYTE   Fs1  v068
 BYTE   N11  Fn2  v104
 BYTE   W06
 BYTE   N05  Cn1  v100
 BYTE   W06
 BYTE   N11  Cn1  v120
 BYTE   N05  Fs1  v072
 BYTE   W12
 BYTE   N11  Cn1  v120
 BYTE   N05  Fs1  v064
 BYTE   N11  Fn2  v104
 BYTE   W12
 BYTE   N18  Dn1  v120
 BYTE   N18  Ds1
 BYTE   N05  Fs1  v092
 BYTE   W12
 BYTE   Fs1  v064
 BYTE   N11  Fn2  v104
 BYTE   W12
//  #01 //058   ----------------------------------------
 BYTE   Cn1  v120
 BYTE   N05  Fs1  v084
 BYTE   W12
 BYTE   Fs1  v072
 BYTE   N11  Fn2  v100
 BYTE   W12
 BYTE   N18  Dn1  v120
 BYTE   N18  Ds1
 BYTE   N05  Fs1  v104
 BYTE   W12
 BYTE   Fs1  v068
 BYTE   N11  Fn2  v104
 BYTE   W06
 BYTE   N05  Cn1  v100
 BYTE   W06
 BYTE   N11  Cn1  v120
 BYTE   N05  Fs1  v064
 BYTE   W12
 BYTE   N11  Cn1  v120
 BYTE   N05  Fs1  v076
 BYTE   N11  Fn2  v104
 BYTE   W12
 BYTE   N18  Dn1  v120
 BYTE   N18  Ds1
 BYTE   N05  Fs1  v092
 BYTE   W12
 BYTE   Fs1  v068
 BYTE   N11  Fn2  v104
 BYTE   W06
 BYTE   N05  Fs1  v064
 BYTE   W06
//  #01 //059   ----------------------------------------
 BYTE   N11  Cn1  v120
 BYTE   N05  Fs1  v064
 BYTE   W12
 BYTE   Fs1  v092
 BYTE   N11  Fn2  v100
 BYTE   W12
 BYTE   N18  Dn1  v120
 BYTE   N18  Ds1
 BYTE   N05  Fs1  v092
 BYTE   W12
 BYTE   Fs1  v064
 BYTE   N11  Fn2  v108
 BYTE   W12
 BYTE   Cn1  v120
 BYTE   N05  Fs1  v084
 BYTE   W12
 BYTE   N11  Cn1  v120
 BYTE   N05  Fs1  v068
 BYTE   N11  Fn2  v104
 BYTE   W12
 BYTE   N18  Dn1  v120
 BYTE   N18  Ds1
 BYTE   N05  Fs1  v092
 BYTE   W12
 BYTE   Fs1  v068
 BYTE   N11  Fn2  v096
 BYTE   W12
//  #01 //060   ----------------------------------------
 BYTE   Cn1  v120
 BYTE   N05  Fs1  v084
 BYTE   W12
 BYTE   Fs1  v064
 BYTE   N11  Fn2  v100
 BYTE   W12
 BYTE   N18  Dn1  v120
 BYTE   N18  Ds1
 BYTE   N05  Fs1  v104
 BYTE   W12
 BYTE   Fs1  v060
 BYTE   N11  Fn2  v112
 BYTE   W06
 BYTE   N05  Cn1  v100
 BYTE   N05  Fs1  v064
 BYTE   W06
 BYTE   N11  Cn1  v120
 BYTE   N05  Fs1  v060
 BYTE   W12
 BYTE   N11  Cn1  v120
 BYTE   N05  Fs1  v084
 BYTE   N11  Fn2  v104
 BYTE   W12
 BYTE   N18  Dn1  v120
 BYTE   N18  Ds1
 BYTE   N05  Fs1  v092
 BYTE   W12
 BYTE   Fs1  v064
 BYTE   N11  Fn2  v108
 BYTE   W12
//  #01 //061   ----------------------------------------
 BYTE   Cn1  v120
 BYTE   N05  Fs1  v092
 BYTE   W12
 BYTE   Fs1  v072
 BYTE   N11  Fn2  v104
 BYTE   W12
 BYTE   N18  Dn1  v120
 BYTE   N18  Ds1
 BYTE   N05  Fs1  v104
 BYTE   W12
 BYTE   Fs1  v068
 BYTE   N11  Fn2  v100
 BYTE   W06
 BYTE   N05  Cn1
 BYTE   N05  Fs1  v060
 BYTE   W06
 BYTE   N11  Cn1  v120
 BYTE   N05  Fs1  v064
 BYTE   W12
 BYTE   N11  Cn1  v120
 BYTE   N05  Fs1  v084
 BYTE   N11  Fn2  v108
 BYTE   W12
 BYTE   N18  Dn1  v120
 BYTE   N18  Ds1
 BYTE   N05  Fs1  v092
 BYTE   W12
 BYTE   N05
 BYTE   N11  Fn2  v108
 BYTE   W12
//  #01 //062   ----------------------------------------
 BYTE   Cn1  v120
 BYTE   W12
 BYTE   Dn1
 BYTE   N05  Fs1  v084
 BYTE   W12
 BYTE   N11  Cn1  v120
 BYTE   N17  Dn1
 BYTE   W12
 BYTE   N05  Fs1  v076
 BYTE   W12
 BYTE   N11  Cn1  v120
 BYTE   N11  Dn1
 BYTE   W12
 BYTE   N17
 BYTE   N05  Fs1  v056
 BYTE   W12
 BYTE   N11  Cn1  v120
 BYTE   W12
 BYTE   N17  Dn1
 BYTE   W12
//  #01 //063   ----------------------------------------
 BYTE   N11  Cn1
 BYTE   N05  As1  v068
 BYTE   W12
 BYTE   N11  Dn1  v120
 BYTE   W12
 BYTE   Cn1
 BYTE   N17  Dn1
 BYTE   N05  As1  v068
 BYTE   W24
 BYTE   N11  Cn1  v120
 BYTE   N17  Dn1
 BYTE   N05  As1  v088
 BYTE   W12
 BYTE   N11  Cn1  v112
 BYTE   W12
 BYTE   Cn1  v120
 BYTE   N17  Dn1
 BYTE   N05  As1  v092
 BYTE   W24
//  #01 //064   ----------------------------------------
 BYTE   N11  Cn1  v120
 BYTE   N05  Fs1  v068
 BYTE   N23  Cs2  v120
 BYTE   W12
 BYTE   N05  Fs1  v064
 BYTE   W12
 BYTE   N18  Dn1  v120
 BYTE   N05  Fs1  v092
 BYTE   W12
 BYTE   Fs1  v076
 BYTE   W06
 BYTE   Fs1  v064
 BYTE   W06
 BYTE   N11  Cn1  v120
 BYTE   N05  Fs1  v064
 BYTE   W12
 BYTE   N11  Cn1  v120
 BYTE   N05  Fs1  v076
 BYTE   W12
 BYTE   N17  Dn1  v120
 BYTE   N05  Fs1  v084
 BYTE   W12
 BYTE   N11  Cn1  v112
 BYTE   N05  Fs1  v064
 BYTE   W06
 BYTE   N18  Dn1  v120
 BYTE   W06
//  #01 //065   ----------------------------------------
 BYTE   N11  Cn1
 BYTE   N05  Fs1  v084
 BYTE   W12
 BYTE   Fs1  v068
 BYTE   W12
 BYTE   N18  Dn1  v120
 BYTE   N05  Fs1  v092
 BYTE   W12
 BYTE   Fs1  v064
 BYTE   W12
 BYTE   Fs1  v076
 BYTE   W12
 BYTE   N11  Cn1  v120
 BYTE   N05  Fs1  v072
 BYTE   W12
 BYTE   N17  Dn1  v120
 BYTE   N05  Fs1  v084
 BYTE   W12
 BYTE   N11  Cn1  v112
 BYTE   N05  Fs1  v084
 BYTE   W06
 BYTE   N18  Dn1  v120
 BYTE   W06
//  #01 //066   ----------------------------------------
 BYTE   N11  Cn1
 BYTE   N05  Fs1  v084
 BYTE   W12
 BYTE   Fs1  v076
 BYTE   W12
 BYTE   N18  Dn1  v120
 BYTE   N05  Fs1  v092
 BYTE   W12
 BYTE   Fs1  v064
 BYTE   W12
 BYTE   Fs1  v084
 BYTE   W12
 BYTE   N11  Cn1  v120
 BYTE   N05  Fs1  v072
 BYTE   W12
 BYTE   N17  Dn1  v120
 BYTE   N05  Fs1  v104
 BYTE   W12
 BYTE   N11  Cn1  v112
 BYTE   N05  Fs1  v064
 BYTE   W06
 BYTE   N18  Dn1  v120
 BYTE   W06
//  #01 //067   ----------------------------------------
 BYTE   N11  Cn1
 BYTE   N05  Fs1  v076
 BYTE   W12
 BYTE   Fs1  v064
 BYTE   W12
 BYTE   N18  Dn1  v120
 BYTE   N05  Fs1  v092
 BYTE   W12
 BYTE   Fs1  v064
 BYTE   W12
 BYTE   Fs1  v084
 BYTE   W12
 BYTE   N11  Cn1  v120
 BYTE   N05  Fs1  v076
 BYTE   W12
 BYTE   N17  Dn1  v120
 BYTE   N05  Fs1  v092
 BYTE   W12
 BYTE   N11  Cn1  v112
 BYTE   N05  Fs1  v076
 BYTE   W06
 BYTE   N18  Dn1  v120
 BYTE   N05  Fs1  v060
 BYTE   W06
//  #01 //068   ----------------------------------------
 BYTE   N11  Cn1  v120
 BYTE   N05  Fs1  v072
 BYTE   W12
 BYTE   Fs1  v084
 BYTE   W12
 BYTE   N18  Dn1  v120
 BYTE   N05  Fs1  v084
 BYTE   W12
 BYTE   Fs1  v064
 BYTE   W12
 BYTE   Fs1  v076
 BYTE   W12
 BYTE   N11  Cn1  v120
 BYTE   N05  Fs1  v076
 BYTE   W12
 BYTE   N17  Dn1  v120
 BYTE   N05  Fs1  v092
 BYTE   W12
 BYTE   N11  Cn1  v112
 BYTE   N05  Fs1  v064
 BYTE   W06
 BYTE   N18  Dn1  v120
 BYTE   W06
//  #01 //069   ----------------------------------------
 BYTE   N11  Cn1
 BYTE   N05  Fs1  v092
 BYTE   W12
 BYTE   Fs1  v068
 BYTE   W12
 BYTE   N18  Dn1  v120
 BYTE   N05  Fs1  v092
 BYTE   W12
 BYTE   Fs1  v064
 BYTE   W12
 BYTE   Fs1  v084
 BYTE   W12
 BYTE   N11  Cn1  v120
 BYTE   N05  Fs1  v072
 BYTE   W12
 BYTE   N17  Dn1  v120
 BYTE   N05  Fs1  v076
 BYTE   W12
 BYTE   N11  Cn1  v112
 BYTE   N05  Fs1  v092
 BYTE   W06
 BYTE   N18  Dn1  v120
 BYTE   W06
//  #01 //070   ----------------------------------------
 BYTE   N11  Cn1
 BYTE   N05  Fs1  v084
 BYTE   W12
 BYTE   Fs1  v068
 BYTE   W12
 BYTE   N18  Dn1  v120
 BYTE   N05  Fs1  v092
 BYTE   W12
 BYTE   Fs1  v064
 BYTE   W12
 BYTE   Fs1  v076
 BYTE   W12
 BYTE   N11  Cn1  v120
 BYTE   N05  Fs1  v072
 BYTE   W12
 BYTE   Dn1  v084
 BYTE   N05  As1  v068
 BYTE   W06
 BYTE   Dn1  v092
 BYTE   W06
 BYTE   N11  Cn1  v112
 BYTE   N05  Dn1  v100
 BYTE   N05  Gs1  v056
 BYTE   W06
 BYTE   Dn1  v112
 BYTE   W06
//  #01 //071   ----------------------------------------
 BYTE   N11  Cn1  v120
 BYTE   N23  Dn1
 BYTE   W96
//  #01 //072   ----------------------------------------
 BYTE   PATT
  POIN2 Label_010064A8
//  #01 //073   ----------------------------------------
 BYTE   PATT
  POIN2 Label_010064A8
//  #01 //074   ----------------------------------------
 BYTE   PATT
  POIN2 Label_010064A8
//  #01 //075   ----------------------------------------
 BYTE   PATT
  POIN2 Label_010064E6
//  #01 //076   ----------------------------------------
 BYTE   GoTo
  POIN2 Label_01006509
//  #01 //077   ----------------------------------------
 BYTE   W13
 BYTE   FINE

//**************** Track 2 (Midi-Chn.1) ****************//

JokingMotive_002:
//  #02 //000   ----------------------------------------
 BYTE   KEYSH   JokingMotive_key+0
 BYTE   VOICE   36
 BYTE   VOL   44*JokingMotive_mvl/mxv
 BYTE   PAN   c_v+0
 BYTE   BEND   c_v+0
 BYTE   N12  An1  v120
 BYTE   W12
 BYTE   En1
 BYTE   W12
 BYTE   Gn1
 BYTE   W12
 BYTE   An1
 BYTE   W24
 BYTE   N12
 BYTE   W12
 BYTE   Cn2
 BYTE   W12
 BYTE   Dn2
 BYTE   W12
//  #02 //001   ----------------------------------------
Label_01005146:
 BYTE   W12
 BYTE   N09  Dn2  v120
 BYTE   W24
 BYTE   N05  Cn2
 BYTE   W06
 BYTE   N07  Dn2
 BYTE   W06
 BYTE   N12  En2
 BYTE   W12
 BYTE   Dn2
 BYTE   W12
 BYTE   Cn2
 BYTE   W12
 BYTE   Dn2
 BYTE   W12
 BYTE   PEND 
//  #02 //002   ----------------------------------------
Label_0100515B:
 BYTE   N12  An1  v120
 BYTE   W12
 BYTE   En1
 BYTE   W12
 BYTE   Gn1
 BYTE   W12
 BYTE   An1
 BYTE   W24
 BYTE   N12
 BYTE   W12
 BYTE   Cn2
 BYTE   W12
 BYTE   Dn2
 BYTE   W12
 BYTE   PEND 
//  #02 //003   ----------------------------------------
 BYTE   W84
 BYTE   N13  En2
 BYTE   W12
//  #02 //004   ----------------------------------------
Label_01005170:
 BYTE   N12  An1  v120
 BYTE   W24
 BYTE   N18
 BYTE   W18
 BYTE   N06  En1
 BYTE   W06
 BYTE   N12  Gn1
 BYTE   W12
 BYTE   An1
 BYTE   W24
 BYTE   Gn1
 BYTE   W12
 BYTE   PEND 
//  #02 //005   ----------------------------------------
Label_01005181:
 BYTE   N12  An1  v120
 BYTE   W24
 BYTE   N18
 BYTE   W18
 BYTE   N06  En1
 BYTE   W06
 BYTE   N12  Gn1
 BYTE   W12
 BYTE   An1
 BYTE   W24
 BYTE   N11  Gn1
 BYTE   W12
 BYTE   PEND 
//  #02 //006   ----------------------------------------
 BYTE   PATT
  POIN2 Label_01005170
//  #02 //007   ----------------------------------------
Label_01005198:
 BYTE   N12  An1  v120
 BYTE   W24
 BYTE   N18
 BYTE   W18
 BYTE   N06  En1
 BYTE   W06
 BYTE   N12  Gn1
 BYTE   W12
 BYTE   An1
 BYTE   W24
 BYTE   N12
 BYTE   W12
 BYTE   PEND 
//  #02 //008   ----------------------------------------
Label_010051A9:
 BYTE   N12  Dn2  v120
 BYTE   W24
 BYTE   N18
 BYTE   W18
 BYTE   N06  An1
 BYTE   W06
 BYTE   N12  Cn2
 BYTE   W12
 BYTE   Dn2
 BYTE   W24
 BYTE   Cn2
 BYTE   W12
 BYTE   PEND 
//  #02 //009   ----------------------------------------
Label_010051BA:
 BYTE   N12  Dn2  v120
 BYTE   W24
 BYTE   N18
 BYTE   W18
 BYTE   N06  An1
 BYTE   W06
 BYTE   N12  Cn2
 BYTE   W12
 BYTE   Dn2
 BYTE   W24
 BYTE   N12
 BYTE   W12
 BYTE   PEND 
//  #02 //010   ----------------------------------------
 BYTE   PATT
  POIN2 Label_01005170
//  #02 //011   ----------------------------------------
 BYTE   N12  An1  v120
 BYTE   W84
 BYTE   En2
 BYTE   W12
//  #02 //012   ----------------------------------------
 BYTE   PATT
  POIN2 Label_01005170
//  #02 //013   ----------------------------------------
 BYTE   PATT
  POIN2 Label_01005181
//  #02 //014   ----------------------------------------
 BYTE   PATT
  POIN2 Label_01005170
//  #02 //015   ----------------------------------------
 BYTE   PATT
  POIN2 Label_01005198
//  #02 //016   ----------------------------------------
 BYTE   PATT
  POIN2 Label_010051A9
//  #02 //017   ----------------------------------------
 BYTE   PATT
  POIN2 Label_010051BA
//  #02 //018   ----------------------------------------
 BYTE   PATT
  POIN2 Label_01005170
//  #02 //019   ----------------------------------------
 BYTE   N13  An1  v120
 BYTE   W84
 BYTE   N13
 BYTE   W12
//  #02 //020   ----------------------------------------
 BYTE   PATT
  POIN2 Label_010051A9
//  #02 //021   ----------------------------------------
 BYTE   N12  Dn2  v120
 BYTE   W24
 BYTE   N18
 BYTE   W18
 BYTE   N06  An1
 BYTE   W06
 BYTE   N12  Cn2
 BYTE   W12
 BYTE   N18  Dn2
 BYTE   W18
 BYTE   N06  Cn2
 BYTE   W06
 BYTE   N12  Dn2
 BYTE   W12
//  #02 //022   ----------------------------------------
 BYTE   PATT
  POIN2 Label_01005170
//  #02 //023   ----------------------------------------
 BYTE   N12  An1  v120
 BYTE   W24
 BYTE   N18
 BYTE   W18
 BYTE   N06  En1
 BYTE   W06
 BYTE   N12  Gn1
 BYTE   W12
 BYTE   N11  An1
 BYTE   W12
 BYTE   N12
 BYTE   W12
 BYTE   Gn1
 BYTE   W12
//  #02 //024   ----------------------------------------
 BYTE   Fn1
 BYTE   W24
 BYTE   N18
 BYTE   W18
 BYTE   N06  Cn2
 BYTE   W06
 BYTE   N12  Fn2
 BYTE   W12
 BYTE   Cn2
 BYTE   W24
 BYTE   N06  Bn1
 BYTE   W06
 BYTE   Cn2
 BYTE   W06
//  #02 //025   ----------------------------------------
Label_01005242:
 BYTE   N12  Fn1  v120
 BYTE   W24
 BYTE   N18
 BYTE   W18
 BYTE   N06  Cn2
 BYTE   W06
 BYTE   N12  Fn2
 BYTE   W12
 BYTE   Fn1
 BYTE   W24
 BYTE   N12
 BYTE   W12
 BYTE   PEND 
//  #02 //026   ----------------------------------------
 BYTE   W12
 BYTE   N06  En1
 BYTE   W12
 BYTE   N18
 BYTE   W24
 BYTE   N06
 BYTE   W12
 BYTE   N12
 BYTE   W24
 BYTE   N12
 BYTE   W12
//  #02 //027   ----------------------------------------
 BYTE   W12
 BYTE   N06  En2
 BYTE   W12
 BYTE   N18
 BYTE   W24
 BYTE   N12
 BYTE   W24
 BYTE   N24
 BYTE   W24
//  #02 //028   ----------------------------------------
 BYTE   PATT
  POIN2 Label_01005198
//  #02 //029   ----------------------------------------
 BYTE   N12  Dn2  v120
 BYTE   W24
 BYTE   N18
 BYTE   W18
 BYTE   N06  An1
 BYTE   W06
 BYTE   N12  Cn2
 BYTE   W12
 BYTE   N05  Dn2
 BYTE   W12
 BYTE   N06
 BYTE   W06
 BYTE   Cn2
 BYTE   W06
 BYTE   N12  Dn2
 BYTE   W12
//  #02 //030   ----------------------------------------
 BYTE   PATT
  POIN2 Label_01005198
//  #02 //031   ----------------------------------------
 BYTE   N12  Dn2  v120
 BYTE   W24
 BYTE   N18
 BYTE   W18
 BYTE   N06  An1
 BYTE   W06
 BYTE   N12  Cn2
 BYTE   W12
 BYTE   N05  Dn2
 BYTE   W12
 BYTE   N24
 BYTE   W24
//  #02 //032   ----------------------------------------
 BYTE   N12  Fn1
 BYTE   W24
 BYTE   N16
 BYTE   W18
 BYTE   N06  Cn2
 BYTE   W06
 BYTE   N12  Fn2
 BYTE   W12
 BYTE   Fn1
 BYTE   W24
 BYTE   N12
 BYTE   W12
//  #02 //033   ----------------------------------------
 BYTE   En1
 BYTE   W24
 BYTE   N17
 BYTE   W18
 BYTE   N06  Bn1
 BYTE   W06
 BYTE   N12  En2
 BYTE   W12
 BYTE   En1
 BYTE   W24
 BYTE   N12
 BYTE   W12
//  #02 //034   ----------------------------------------
 BYTE   Fn1
 BYTE   W24
 BYTE   N17
 BYTE   W18
 BYTE   N06  Cn2
 BYTE   W06
 BYTE   N12  Fn2
 BYTE   W12
 BYTE   Fn1
 BYTE   W24
 BYTE   N12
 BYTE   W12
//  #02 //035   ----------------------------------------
 BYTE   N24  En1
 BYTE   W96
//  #02 //036   ----------------------------------------
 BYTE   PATT
  POIN2 Label_0100515B
//  #02 //037   ----------------------------------------
 BYTE   W12
 BYTE   N08  Dn2  v120
 BYTE   W24
 BYTE   N06  Cn2
 BYTE   W06
 BYTE   N07  Dn2
 BYTE   W06
 BYTE   N12  En2
 BYTE   W12
 BYTE   Dn2
 BYTE   W12
 BYTE   Cn2
 BYTE   W12
 BYTE   Dn2
 BYTE   W12
//  #02 //038   ----------------------------------------
 BYTE   PATT
  POIN2 Label_0100515B
//  #02 //039   ----------------------------------------
 BYTE   W12
 BYTE   N06  Ds2  v120
 BYTE   W06
 BYTE   En2
 BYTE   W06
 BYTE   N12  Gn2
 BYTE   W12
 BYTE   An2
 BYTE   W12
 BYTE   N06  Cn3
 BYTE   W06
 BYTE   Dn3
 BYTE   W06
 BYTE   Cn3
 BYTE   W06
 BYTE   An2
 BYTE   W06
 BYTE   N12  Gn2
 BYTE   W12
 BYTE   An2
 BYTE   W12
//  #02 //040   ----------------------------------------
 BYTE   PATT
  POIN2 Label_01005170
//  #02 //041   ----------------------------------------
 BYTE   N12  An1  v120
 BYTE   W24
 BYTE   N18
 BYTE   W18
 BYTE   N06  En1
 BYTE   W06
 BYTE   N12  Gn1
 BYTE   W12
 BYTE   N06  An1
 BYTE   W12
 BYTE   N06
 BYTE   W06
 BYTE   Gn1
 BYTE   W06
 BYTE   En1
 BYTE   W06
 BYTE   Gn1
 BYTE   W06
//  #02 //042   ----------------------------------------
 BYTE   PATT
  POIN2 Label_01005170
//  #02 //043   ----------------------------------------
 BYTE   N12  An1  v120
 BYTE   W24
 BYTE   N18
 BYTE   W18
 BYTE   N06  En1
 BYTE   W06
 BYTE   N12  Gn1
 BYTE   W12
 BYTE   N06  An1
 BYTE   W12
 BYTE   N06
 BYTE   W06
 BYTE   Gn1
 BYTE   W06
 BYTE   An1
 BYTE   W06
 BYTE   Cn2
 BYTE   W06
//  #02 //044   ----------------------------------------
 BYTE   PATT
  POIN2 Label_010051A9
//  #02 //045   ----------------------------------------
Label_0100533D:
 BYTE   N12  Dn2  v120
 BYTE   W24
 BYTE   N18
 BYTE   W18
 BYTE   N06  An1
 BYTE   W06
 BYTE   N12  Cn2
 BYTE   W12
 BYTE   N06  Dn2
 BYTE   W12
 BYTE   N06
 BYTE   W06
 BYTE   Cn2
 BYTE   W06
 BYTE   N12  Dn2
 BYTE   W12
 BYTE   PEND 
//  #02 //046   ----------------------------------------
 BYTE   PATT
  POIN2 Label_01005170
//  #02 //047   ----------------------------------------
 BYTE   N12  An1  v120
 BYTE   W12
 BYTE   N06  Dn2
 BYTE   W06
 BYTE   En2
 BYTE   W06
 BYTE   N12  Cn3
 BYTE   W12
 BYTE   An2
 BYTE   W12
 BYTE   Dn3
 BYTE   W12
 BYTE   Cn3
 BYTE   W12
 BYTE   N06  An2
 BYTE   W06
 BYTE   Gn2
 BYTE   W06
 BYTE   N12  An2
 BYTE   W12
//  #02 //048   ----------------------------------------
 BYTE   PATT
  POIN2 Label_01005170
//  #02 //049   ----------------------------------------
 BYTE   N12  An1  v120
 BYTE   W24
 BYTE   N18
 BYTE   W18
 BYTE   N06  En1
 BYTE   W06
 BYTE   N12  Gn1
 BYTE   W12
 BYTE   N06  An1
 BYTE   W12
 BYTE   N06
 BYTE   W06
 BYTE   Gn1
 BYTE   W06
 BYTE   N12  An1
 BYTE   W12
//  #02 //050   ----------------------------------------
 BYTE   N12
 BYTE   W24
 BYTE   N18
 BYTE   W18
 BYTE   N06  En1
 BYTE   W06
 BYTE   N12  Gn1
 BYTE   W12
 BYTE   An1
 BYTE   W24
 BYTE   N06  Gn1
 BYTE   W06
 BYTE   An1
 BYTE   W06
//  #02 //051   ----------------------------------------
 BYTE   N12  An2
 BYTE   W12
 BYTE   Gn2
 BYTE   W12
 BYTE   En2
 BYTE   W12
 BYTE   Dn2
 BYTE   W12
 BYTE   En2
 BYTE   W12
 BYTE   Dn2
 BYTE   W12
 BYTE   Cn2
 BYTE   W12
 BYTE   An1
 BYTE   W12
//  #02 //052   ----------------------------------------
 BYTE   PATT
  POIN2 Label_010051A9
//  #02 //053   ----------------------------------------
 BYTE   PATT
  POIN2 Label_0100533D
//  #02 //054   ----------------------------------------
 BYTE   PATT
  POIN2 Label_01005170
//  #02 //055   ----------------------------------------
 BYTE   N06  An1  v120
 BYTE   W12
 BYTE   N12
 BYTE   W12
 BYTE   N06  Bn1
 BYTE   W12
 BYTE   N12
 BYTE   W12
 BYTE   N06  Cn2
 BYTE   W12
 BYTE   N12
 BYTE   W12
 BYTE   N06  En2
 BYTE   W12
 BYTE   N12
 BYTE   W12
//  #02 //056   ----------------------------------------
 BYTE   PATT
  POIN2 Label_010051A9
//  #02 //057   ----------------------------------------
 BYTE   N12  Dn2  v120
 BYTE   W24
 BYTE   N18
 BYTE   W18
 BYTE   N06  An1
 BYTE   W06
 BYTE   N12  Cn2
 BYTE   W12
 BYTE   Dn2
 BYTE   W18
 BYTE   N06  Cn2
 BYTE   W06
 BYTE   N12  Dn2
 BYTE   W12
//  #02 //058   ----------------------------------------
 BYTE   PATT
  POIN2 Label_01005170
//  #02 //059   ----------------------------------------
 BYTE   N12  An1  v120
 BYTE   W24
 BYTE   N18
 BYTE   W18
 BYTE   N06  En1
 BYTE   W06
 BYTE   N12  Gn1
 BYTE   W12
 BYTE   N06  An1
 BYTE   W12
 BYTE   N12
 BYTE   W12
 BYTE   Gn1
 BYTE   W12
//  #02 //060   ----------------------------------------
 BYTE   Fn1
 BYTE   W24
 BYTE   N18
 BYTE   W18
 BYTE   N06  Cn2
 BYTE   W06
 BYTE   N12  Fn2
 BYTE   W12
 BYTE   Fn1
 BYTE   W24
 BYTE   N06  Bn1
 BYTE   W06
 BYTE   Cn2
 BYTE   W06
//  #02 //061   ----------------------------------------
 BYTE   PATT
  POIN2 Label_01005242
//  #02 //062   ----------------------------------------
 BYTE   W12
 BYTE   N06  En1  v120
 BYTE   W12
 BYTE   N12
 BYTE   W24
 BYTE   N06
 BYTE   W12
 BYTE   N12
 BYTE   W24
 BYTE   N12
 BYTE   W12
//  #02 //063   ----------------------------------------
 BYTE   W12
 BYTE   N06  En2
 BYTE   W12
 BYTE   N18
 BYTE   W24
 BYTE   N18
 BYTE   W24
 BYTE   N18
 BYTE   W24
//  #02 //064   ----------------------------------------
 BYTE   PATT
  POIN2 Label_01005198
//  #02 //065   ----------------------------------------
 BYTE   PATT
  POIN2 Label_0100533D
//  #02 //066   ----------------------------------------
 BYTE   PATT
  POIN2 Label_01005198
//  #02 //067   ----------------------------------------
 BYTE   N12  Dn2  v120
 BYTE   W24
 BYTE   N18
 BYTE   W18
 BYTE   N06  An1
 BYTE   W06
 BYTE   N12  Cn2
 BYTE   W12
 BYTE   N06  Dn2
 BYTE   W12
 BYTE   N12
 BYTE   W12
 BYTE   En1
 BYTE   W12
//  #02 //068   ----------------------------------------
 BYTE   PATT
  POIN2 Label_01005242
//  #02 //069   ----------------------------------------
 BYTE   N12  En1  v120
 BYTE   W24
 BYTE   N18
 BYTE   W18
 BYTE   N06  Bn1
 BYTE   W06
 BYTE   N12  En2
 BYTE   W12
 BYTE   En1
 BYTE   W24
 BYTE   N12
 BYTE   W12
//  #02 //070   ----------------------------------------
 BYTE   PATT
  POIN2 Label_01005242
//  #02 //071   ----------------------------------------
 BYTE   N24  En1  v120
 BYTE   W96
//  #02 //072   ----------------------------------------
 BYTE   PATT
  POIN2 Label_0100515B
//  #02 //073   ----------------------------------------
 BYTE   PATT
  POIN2 Label_01005146
//  #02 //074   ----------------------------------------
 BYTE   PATT
  POIN2 Label_0100515B
//  #02 //075   ----------------------------------------
 BYTE   W84
 BYTE   N11  En2  v120
 BYTE   W12
//  #02 //076   ----------------------------------------
 BYTE   GoTo
  POIN2 Label_01005170
//  #02 //077   ----------------------------------------
 BYTE   W13
 BYTE   FINE

//**************** Track 3 (Midi-Chn.2) ****************//

JokingMotive_003:
//  #03 //000   ----------------------------------------
 BYTE   KEYSH   JokingMotive_key+0
 BYTE   VOICE   18
 BYTE   VOL   25*JokingMotive_mvl/mxv
 BYTE   PAN   c_v+0
 BYTE   BEND   c_v+0
 BYTE   N12  An0  v096
 BYTE   N12  An2  v108
 BYTE   W12
 BYTE   En0  v084
 BYTE   N12  En2  v080
 BYTE   W12
 BYTE   Gn0
 BYTE   N12  Gn2  v088
 BYTE   W12
 BYTE   An0
 BYTE   N12  An2  v100
 BYTE   W24
 BYTE   An0  v088
 BYTE   N12  An2  v104
 BYTE   W12
 BYTE   Cn1  v080
 BYTE   N12  Cn3  v100
 BYTE   W12
 BYTE   Dn1
 BYTE   N12  Dn3  v104
 BYTE   W12
//  #03 //001   ----------------------------------------
Label_010071DA:
 BYTE   W12
 BYTE   N07  Dn1  v100
 BYTE   N07  Dn3  v108
 BYTE   W24
 BYTE   Cn1  v092
 BYTE   N06  Cn3
 BYTE   W06
 BYTE   N07  Dn1  v080
 BYTE   N06  Dn3  v088
 BYTE   W06
 BYTE   N12  En1  v104
 BYTE   N12  En3
 BYTE   W12
 BYTE   Dn1  v080
 BYTE   N12  Dn3  v096
 BYTE   W12
 BYTE   Cn1  v088
 BYTE   N12  Cn3
 BYTE   W12
 BYTE   Dn1  v080
 BYTE   N12  Dn3  v096
 BYTE   W12
 BYTE   PEND 
//  #03 //002   ----------------------------------------
Label_01007206:
 BYTE   N12  An0  v092
 BYTE   N12  An2  v100
 BYTE   W12
 BYTE   En0
 BYTE   N12  En2  v084
 BYTE   W12
 BYTE   Gn0  v080
 BYTE   N12  Gn2  v100
 BYTE   W12
 BYTE   An0
 BYTE   N12  An2  v104
 BYTE   W24
 BYTE   An0  v088
 BYTE   N12  An2  v100
 BYTE   W12
 BYTE   Cn1  v092
 BYTE   N12  Cn3  v100
 BYTE   W12
 BYTE   Dn1
 BYTE   N12  Dn3  v104
 BYTE   W12
 BYTE   PEND 
//  #03 //003   ----------------------------------------
 BYTE   W96
//  #03 //004   ----------------------------------------
Label_01007230:
 BYTE   N11  Gn2  v100
 BYTE   N11  Cn3
 BYTE   N11  En3  v104
 BYTE   W24
 BYTE   N17  Gn2  v112
 BYTE   N17  Cn3  v104
 BYTE   N17  En3  v108
 BYTE   W18
 BYTE   N05  Gn2  v104
 BYTE   N05  Cn3  v084
 BYTE   N05  En3
 BYTE   W18
 BYTE   N11  Gn2  v104
 BYTE   N11  Cn3  v100
 BYTE   N11  En3  v104
 BYTE   W24
 BYTE   N05  Gn2  v100
 BYTE   N05  Cn3  v092
 BYTE   N05  En3
 BYTE   W12
 BYTE   PEND 
//  #03 //005   ----------------------------------------
Label_01007260:
 BYTE   N11  Gn2  v104
 BYTE   N11  Cn3  v092
 BYTE   N11  En3  v100
 BYTE   W24
 BYTE   N17  Gn2  v112
 BYTE   N17  Cn3  v104
 BYTE   N17  En3  v108
 BYTE   W18
 BYTE   N05  Gn2  v100
 BYTE   N05  Cn3  v088
 BYTE   N05  En3  v096
 BYTE   W18
 BYTE   N11  Gn2  v104
 BYTE   N11  Cn3  v100
 BYTE   N11  En3  v104
 BYTE   W24
 BYTE   N05  Gn2  v088
 BYTE   N05  Cn3  v084
 BYTE   N05  En3  v092
 BYTE   W12
 BYTE   PEND 
//  #03 //006   ----------------------------------------
 BYTE   PATT
  POIN2 Label_01007230
//  #03 //007   ----------------------------------------
 BYTE   PATT
  POIN2 Label_01007260
//  #03 //008   ----------------------------------------
Label_0100729D:
 BYTE   N12  An2  v100
 BYTE   N12  Cn3
 BYTE   N12  Fs3  v092
 BYTE   W24
 BYTE   N17  An2  v104
 BYTE   N17  Cn3
 BYTE   N17  Fs3
 BYTE   W18
 BYTE   N05  An2  v100
 BYTE   N05  Cn3  v088
 BYTE   N05  Fs3  v084
 BYTE   W18
 BYTE   N12  An2  v104
 BYTE   N12  Cn3
 BYTE   N12  Fs3  v100
 BYTE   W24
 BYTE   N05  An2
 BYTE   N05  Cn3  v108
 BYTE   N05  Fs3  v092
 BYTE   W12
 BYTE   PEND 
//  #03 //009   ----------------------------------------
Label_010072CB:
 BYTE   N12  An2  v100
 BYTE   N12  Cn3
 BYTE   N12  Fs3  v092
 BYTE   W24
 BYTE   N17  An2  v104
 BYTE   N17  Cn3
 BYTE   N17  Fs3
 BYTE   W18
 BYTE   N05  An2  v100
 BYTE   N05  Cn3  v088
 BYTE   N05  Fs3  v084
 BYTE   W18
 BYTE   N12  An2  v104
 BYTE   N12  Cn3
 BYTE   N12  Fs3  v100
 BYTE   W24
 BYTE   N05  An2
 BYTE   N05  Cn3  v084
 BYTE   N05  Fs3  v092
 BYTE   W12
 BYTE   PEND 
//  #03 //010   ----------------------------------------
Label_010072F9:
 BYTE   N12  Gn2  v100
 BYTE   N12  Cn3
 BYTE   N12  En3  v104
 BYTE   W24
 BYTE   N17  Gn2  v112
 BYTE   N17  Cn3  v104
 BYTE   N17  En3  v108
 BYTE   W18
 BYTE   N05  Gn2  v104
 BYTE   N05  Cn3  v084
 BYTE   N05  En3
 BYTE   W18
 BYTE   N12  Gn2  v104
 BYTE   N12  Cn3  v100
 BYTE   N12  En3  v104
 BYTE   W24
 BYTE   N05  Gn2  v100
 BYTE   N05  Cn3  v092
 BYTE   N05  En3
 BYTE   W12
 BYTE   PEND 
//  #03 //011   ----------------------------------------
Label_01007329:
 BYTE   N13  Gn2  v112
 BYTE   N11  Cn3  v100
 BYTE   N12  En3  v104
 BYTE   W96
 BYTE   PEND 
//  #03 //012   ----------------------------------------
 BYTE   PATT
  POIN2 Label_01007230
//  #03 //013   ----------------------------------------
 BYTE   PATT
  POIN2 Label_01007260
//  #03 //014   ----------------------------------------
 BYTE   PATT
  POIN2 Label_01007230
//  #03 //015   ----------------------------------------
 BYTE   PATT
  POIN2 Label_01007260
//  #03 //016   ----------------------------------------
 BYTE   PATT
  POIN2 Label_0100729D
//  #03 //017   ----------------------------------------
 BYTE   PATT
  POIN2 Label_010072CB
//  #03 //018   ----------------------------------------
 BYTE   PATT
  POIN2 Label_010072F9
//  #03 //019   ----------------------------------------
 BYTE   PATT
  POIN2 Label_01007329
//  #03 //020   ----------------------------------------
 BYTE   N12  An2  v104
 BYTE   N12  Cn3  v100
 BYTE   N12  Fs3
 BYTE   W24
 BYTE   N17  An2  v096
 BYTE   N17  Cn3  v100
 BYTE   N17  Fs3
 BYTE   W18
 BYTE   N05  An2  v060
 BYTE   N05  Cn3  v080
 BYTE   N05  Fs3  v088
 BYTE   W18
 BYTE   N12  An2  v100
 BYTE   N12  Cn3
 BYTE   N12  Fs3
 BYTE   W24
 BYTE   N05  An2  v104
 BYTE   N05  Cn3  v092
 BYTE   N05  Fs3  v088
 BYTE   W12
//  #03 //021   ----------------------------------------
 BYTE   N12  An2  v104
 BYTE   N12  Cn3  v100
 BYTE   N12  Fs3  v096
 BYTE   W24
 BYTE   N17  An2  v100
 BYTE   N17  Cn3  v096
 BYTE   N17  Fs3  v092
 BYTE   W18
 BYTE   N05  An2  v068
 BYTE   N05  Cn3  v060
 BYTE   N05  Fs3  v088
 BYTE   W18
 BYTE   N12  An2  v104
 BYTE   N12  Cn3  v100
 BYTE   N12  Fs3  v096
 BYTE   W24
 BYTE   N05  An2  v088
 BYTE   N05  Cn3  v084
 BYTE   N05  Fs3  v076
 BYTE   W12
//  #03 //022   ----------------------------------------
 BYTE   N12  Gn2  v100
 BYTE   N12  Cn3  v092
 BYTE   N12  En3  v080
 BYTE   W24
 BYTE   N17  Gn2  v100
 BYTE   N17  Cn3  v096
 BYTE   N17  En3  v092
 BYTE   W18
 BYTE   N05  Gn2
 BYTE   N05  Cn3  v076
 BYTE   N05  En3  v064
 BYTE   W18
 BYTE   N12  Gn2  v104
 BYTE   N12  Cn3
 BYTE   N12  En3  v096
 BYTE   W24
 BYTE   N05  Gn2  v080
 BYTE   N05  Cn3  v084
 BYTE   N05  En3  v088
 BYTE   W12
//  #03 //023   ----------------------------------------
 BYTE   N12  Gn2  v104
 BYTE   N12  Cn3  v100
 BYTE   N12  En3
 BYTE   W24
 BYTE   N17  Gn2  v104
 BYTE   N17  Cn3  v096
 BYTE   N17  En3
 BYTE   W18
 BYTE   N05  Gn2  v100
 BYTE   N05  Cn3  v080
 BYTE   N05  En3  v072
 BYTE   W18
 BYTE   N12  Gn2  v104
 BYTE   N12  Cn3
 BYTE   N12  En3  v096
 BYTE   W24
 BYTE   N05  Gn2  v100
 BYTE   N05  Cn3
 BYTE   N05  En3  v092
 BYTE   W12
//  #03 //024   ----------------------------------------
 BYTE   N12  An2  v104
 BYTE   N12  Cn3  v096
 BYTE   N12  En3  v108
 BYTE   W24
 BYTE   N17  An2  v100
 BYTE   N17  Cn3  v108
 BYTE   N17  En3  v100
 BYTE   W18
 BYTE   N05  An2  v068
 BYTE   N05  Cn3  v072
 BYTE   N05  En3  v076
 BYTE   W18
 BYTE   N12  An2  v108
 BYTE   N12  Cn3  v100
 BYTE   N12  En3
 BYTE   W24
 BYTE   N05  An2  v096
 BYTE   N05  Cn3  v100
 BYTE   N05  En3  v096
 BYTE   W12
//  #03 //025   ----------------------------------------
 BYTE   N12  An2
 BYTE   N12  Cn3  v108
 BYTE   N12  En3  v096
 BYTE   W24
 BYTE   N17  An2  v100
 BYTE   N17  Cn3  v096
 BYTE   N17  En3
 BYTE   W18
 BYTE   N05  An2  v060
 BYTE   N05  Cn3  v080
 BYTE   N05  En3  v060
 BYTE   W18
 BYTE   N12  An2  v100
 BYTE   N12  Cn3  v108
 BYTE   N12  En3  v104
 BYTE   W24
 BYTE   N05  An2
 BYTE   N05  Cn3  v100
 BYTE   N05  En3
 BYTE   W12
//  #03 //026   ----------------------------------------
 BYTE   W12
 BYTE   Gs2  v076
 BYTE   N05  Bn2  v060
 BYTE   N05  Gn3  v072
 BYTE   W12
 BYTE   N17  Gs2  v108
 BYTE   N17  Bn2
 BYTE   N17  Gn3  v104
 BYTE   W24
 BYTE   N05  Gs2  v088
 BYTE   N05  Bn2
 BYTE   N05  Gn3  v104
 BYTE   W12
 BYTE   N12  Gs2
 BYTE   N12  Bn2  v100
 BYTE   N12  Gn3  v092
 BYTE   W24
 BYTE   Gs2  v096
 BYTE   N12  Bn2  v108
 BYTE   N12  Gn3
 BYTE   W12
//  #03 //027   ----------------------------------------
 BYTE   W12
 BYTE   N05  Gs2  v064
 BYTE   N05  Bn2  v080
 BYTE   N05  Gn3  v084
 BYTE   W12
 BYTE   N17  Gs2  v100
 BYTE   N17  Bn2  v108
 BYTE   N17  Gn3
 BYTE   W24
 BYTE   N05  Gs2  v092
 BYTE   N05  Bn2  v100
 BYTE   N05  Gn3  v108
 BYTE   W24
 BYTE   N17  Gs2  v104
 BYTE   N17  Bn2  v108
 BYTE   N17  Gn3  v112
 BYTE   W24
//  #03 //028   ----------------------------------------
 BYTE   N11  Gn2  v100
 BYTE   N11  Cn3  v104
 BYTE   N11  En3  v100
 BYTE   W24
 BYTE   N17  Gn2
 BYTE   N17  Cn3
 BYTE   N17  En3
 BYTE   W18
 BYTE   N05  Gn2  v096
 BYTE   N05  Cn3  v072
 BYTE   N05  En3
 BYTE   W18
 BYTE   N11  Gn2  v100
 BYTE   N11  Cn3
 BYTE   N11  En3
 BYTE   W24
 BYTE   N05  Gn2
 BYTE   N05  Cn3  v108
 BYTE   N05  En3  v096
 BYTE   W12
//  #03 //029   ----------------------------------------
 BYTE   N11  An2  v092
 BYTE   N11  Cn3  v100
 BYTE   N11  Fs3  v088
 BYTE   W24
 BYTE   N17  An2  v096
 BYTE   N17  Cn3  v100
 BYTE   N17  Fs3
 BYTE   W18
 BYTE   N05  An2  v076
 BYTE   N05  Cn3  v088
 BYTE   N05  Fs3  v092
 BYTE   W18
 BYTE   N11  An2  v096
 BYTE   N11  Cn3  v100
 BYTE   N11  Fs3  v104
 BYTE   W24
 BYTE   N05  An2  v076
 BYTE   N05  Cn3  v080
 BYTE   N05  Fs3  v084
 BYTE   W12
//  #03 //030   ----------------------------------------
Label_0100752A:
 BYTE   N11  Gn2  v104
 BYTE   N11  Cn3
 BYTE   N11  En3  v100
 BYTE   W24
 BYTE   N17  Gn2
 BYTE   N17  Cn3  v104
 BYTE   N17  En3  v096
 BYTE   W18
 BYTE   N05  Gn2  v092
 BYTE   N05  Cn3  v072
 BYTE   N05  En3  v064
 BYTE   W18
 BYTE   N11  Gn2  v108
 BYTE   N11  Cn3  v104
 BYTE   N11  En3  v100
 BYTE   W24
 BYTE   N05  Gn2  v088
 BYTE   N05  Cn3  v076
 BYTE   N05  En3  v084
 BYTE   W12
 BYTE   PEND 
//  #03 //031   ----------------------------------------
 BYTE   N11  An2  v100
 BYTE   N11  Cn3  v104
 BYTE   N11  Fs3  v100
 BYTE   W24
 BYTE   N17  An2  v096
 BYTE   N17  Cn3
 BYTE   N17  Fs3  v104
 BYTE   W18
 BYTE   N05  An2  v080
 BYTE   N05  Cn3  v068
 BYTE   N05  Fs3  v076
 BYTE   W18
 BYTE   N11  An2  v096
 BYTE   N11  Cn3  v104
 BYTE   N11  Fs3  v100
 BYTE   W24
 BYTE   N05  An2  v076
 BYTE   N05  Cn3  v084
 BYTE   N05  Fs3  v080
 BYTE   W12
//  #03 //032   ----------------------------------------
 BYTE   N11  Fn2  v104
 BYTE   N11  An2  v100
 BYTE   N11  En3  v104
 BYTE   W24
 BYTE   N17  Fn2  v108
 BYTE   N17  An2  v096
 BYTE   N17  En3  v104
 BYTE   W18
 BYTE   N05  Fn2  v100
 BYTE   N05  An2  v060
 BYTE   N05  En3  v072
 BYTE   W18
 BYTE   N11  Fn2  v108
 BYTE   N11  An2
 BYTE   N11  En3
 BYTE   W24
 BYTE   N05  Fn2  v084
 BYTE   N05  An2  v072
 BYTE   N05  En3  v092
 BYTE   W12
//  #03 //033   ----------------------------------------
Label_010075BC:
 BYTE   N11  Gn2  v108
 BYTE   N11  Bn2  v104
 BYTE   N11  Dn3  v108
 BYTE   W24
 BYTE   N17  Gn2  v104
 BYTE   N17  Bn2  v100
 BYTE   N17  Dn3  v104
 BYTE   W18
 BYTE   N05  Gn2
 BYTE   N05  Bn2  v092
 BYTE   N05  Dn3  v076
 BYTE   W18
 BYTE   N11  Gn2  v104
 BYTE   N11  Bn2  v108
 BYTE   N11  Dn3
 BYTE   W24
 BYTE   N05  Gn2  v092
 BYTE   N05  Bn2  v080
 BYTE   N05  Dn3  v100
 BYTE   W12
 BYTE   PEND 
//  #03 //034   ----------------------------------------
 BYTE   N11  Fn2  v104
 BYTE   N11  An2  v096
 BYTE   N11  En3  v100
 BYTE   W24
 BYTE   N17  Fn2  v112
 BYTE   N17  An2  v100
 BYTE   N17  En3  v104
 BYTE   W18
 BYTE   N05  Fn2  v096
 BYTE   N05  An2  v088
 BYTE   N05  En3
 BYTE   W18
 BYTE   N11  Fn2  v108
 BYTE   N11  An2  v104
 BYTE   N11  En3  v108
 BYTE   W24
 BYTE   N05  Fn2  v100
 BYTE   N05  An2  v084
 BYTE   N05  En3  v092
 BYTE   W12
//  #03 //035   ----------------------------------------
Label_0100761E:
 BYTE   N24  Gs2  v112
 BYTE   N24  Bn2
 BYTE   N24  Gn3  v108
 BYTE   W96
 BYTE   PEND 
//  #03 //036   ----------------------------------------
 BYTE   N12  An0  v096
 BYTE   N12  An2  v108
 BYTE   W12
 BYTE   En0  v092
 BYTE   N12  En2  v088
 BYTE   W12
 BYTE   Gn0  v076
 BYTE   N12  Gn2  v088
 BYTE   W12
 BYTE   An0
 BYTE   N12  An2  v096
 BYTE   W24
 BYTE   An0  v092
 BYTE   N12  An2  v096
 BYTE   W12
 BYTE   Cn1  v088
 BYTE   N12  Cn3  v104
 BYTE   W12
 BYTE   Dn1  v100
 BYTE   N12  Dn3  v104
 BYTE   W12
//  #03 //037   ----------------------------------------
 BYTE   W12
 BYTE   N06  Dn1  v100
 BYTE   N06  Dn3  v112
 BYTE   W24
 BYTE   N07  Cn1  v076
 BYTE   N06  Cn3  v064
 BYTE   W06
 BYTE   N07  Dn1  v072
 BYTE   N07  Dn3  v084
 BYTE   W06
 BYTE   N12  En1
 BYTE   N12  En3  v104
 BYTE   W12
 BYTE   Dn1  v088
 BYTE   N12  Dn3  v100
 BYTE   W12
 BYTE   Cn1  v072
 BYTE   N12  Cn3  v096
 BYTE   W12
 BYTE   Dn1  v084
 BYTE   N12  Dn3  v100
 BYTE   W12
//  #03 //038   ----------------------------------------
 BYTE   An0  v088
 BYTE   N12  An2  v100
 BYTE   W12
 BYTE   En0  v080
 BYTE   N12  En2  v100
 BYTE   W12
 BYTE   Gn0  v080
 BYTE   N12  Gn2  v096
 BYTE   W12
 BYTE   An0
 BYTE   N12  An2  v108
 BYTE   W24
 BYTE   An0  v084
 BYTE   N12  An2  v104
 BYTE   W12
 BYTE   Cn1  v092
 BYTE   N12  Cn3  v108
 BYTE   W12
 BYTE   Dn1
 BYTE   N12  Dn3  v096
 BYTE   W12
//  #03 //039   ----------------------------------------
 BYTE   W32
 BYTE   W03
 BYTE   N21  Dn1  v112
 BYTE   W07
 BYTE   N18  En1  v016
 BYTE   W03
 BYTE   N17  Fn1  v020
 BYTE   W03
 BYTE   Gn1  v044
 BYTE   W03
 BYTE   An1  v028
 BYTE   W03
 BYTE   N16  Bn1  v040
 BYTE   W03
 BYTE   N15  Cn2
 BYTE   W03
 BYTE   N13  Dn2
 BYTE   W03
 BYTE   En2  v064
 BYTE   W03
 BYTE   N12  Fn2  v052
 BYTE   W02
 BYTE   N11  Gn2  v060
 BYTE   W02
 BYTE   N10  An2  v056
 BYTE   W02
 BYTE   Bn2  v068
 BYTE   W02
 BYTE   N09  Cn3  v064
 BYTE   W02
 BYTE   Dn3  v072
 BYTE   W02
 BYTE   En3  v068
 BYTE   W02
 BYTE   N08  Fn3  v080
 BYTE   W01
 BYTE   N07  Gn3  v084
 BYTE   W02
 BYTE   N06  An3  v092
 BYTE   W01
 BYTE   Bn3
 BYTE   W01
 BYTE   N05  Cn4  v104
 BYTE   W01
 BYTE   N04  Dn4  v108
 BYTE   W01
 BYTE   En4
 BYTE   W02
 BYTE   N03  Fn4  v104
 BYTE   W01
 BYTE   N02  Gn4  v052
 BYTE   W06
//  #03 //040   ----------------------------------------
 BYTE   N07  An1  v096
 BYTE   N07  En2  v104
 BYTE   N06  An2  v100
 BYTE   N06  En4  v104
 BYTE   N06  Gn4
 BYTE   N06  Cn5  v112
 BYTE   W12
 BYTE   N03  En4  v020
 BYTE   N04  Gn4  v052
 BYTE   N02  Cn5  v016
 BYTE   W12
 BYTE   N04  En4  v040
 BYTE   N04  Gn4  v064
 BYTE   N03  Cn5  v060
 BYTE   W12
 BYTE   N06  An1  v100
 BYTE   N06  En2
 BYTE   N05  An2
 BYTE   N05  En4  v108
 BYTE   N04  Gn4  v100
 BYTE   N05  Cn5  v112
 BYTE   W12
 BYTE   N02  Gn4  v016
 BYTE   W12
 BYTE   N04  En4  v072
 BYTE   N04  Gn4  v068
 BYTE   N03  Cn5  v076
 BYTE   W12
 BYTE   N04  En4  v092
 BYTE   N04  Gn4
 BYTE   N04  Cn5
 BYTE   W12
 BYTE   N03  En4  v064
 BYTE   N03  Gn4  v060
 BYTE   N04  Cn5  v076
 BYTE   W12
//  #03 //041   ----------------------------------------
 BYTE   N06  An1  v104
 BYTE   N06  En2  v108
 BYTE   N04  An2  v100
 BYTE   N03  En4  v108
 BYTE   N03  Gn4  v104
 BYTE   N05  Cn5  v112
 BYTE   W12
 BYTE   N03  En4  v036
 BYTE   N03  Gn4  v064
 BYTE   N04  Cn5
 BYTE   W12
 BYTE   N03  En4  v028
 BYTE   N04  Gn4  v048
 BYTE   N05  Cn5  v080
 BYTE   W12
 BYTE   N06  An1  v104
 BYTE   N07  En2
 BYTE   N05  An2  v100
 BYTE   N04  En4  v108
 BYTE   N04  Gn4  v104
 BYTE   N05  Cn5  v112
 BYTE   W12
 BYTE   N02  En4  v024
 BYTE   N03  Gn4  v036
 BYTE   N03  Cn5  v060
 BYTE   W12
 BYTE   En4  v068
 BYTE   N03  Gn4  v060
 BYTE   N02  Cn5  v080
 BYTE   W12
 BYTE   N04  En4  v112
 BYTE   N04  Gn4
 BYTE   N05  Cn5  v116
 BYTE   W12
 BYTE   N04  En4  v036
 BYTE   N03  Gn4  v044
 BYTE   N03  Cn5  v060
 BYTE   W12
//  #03 //042   ----------------------------------------
 BYTE   N06  An1  v104
 BYTE   N06  En2
 BYTE   N04  An2  v096
 BYTE   N04  En4  v112
 BYTE   N04  Gn4  v104
 BYTE   N05  Cn5  v112
 BYTE   W12
 BYTE   N02  En4  v040
 BYTE   N03  Gn4  v060
 BYTE   N03  Cn5  v076
 BYTE   W12
 BYTE   En4  v068
 BYTE   N03  Gn4
 BYTE   N02  Cn5  v084
 BYTE   W12
 BYTE   N05  An1  v108
 BYTE   N04  En2  v096
 BYTE   N04  An2
 BYTE   N04  En4  v112
 BYTE   N04  Gn4  v108
 BYTE   N04  Cn5  v116
 BYTE   W12
 BYTE   N03  En4  v056
 BYTE   N03  Gn4  v052
 BYTE   N03  Cn5  v060
 BYTE   W12
 BYTE   En4  v068
 BYTE   N03  Gn4  v076
 BYTE   N03  Cn5  v080
 BYTE   W12
 BYTE   N04  En4  v096
 BYTE   N03  Gn4  v092
 BYTE   N03  Cn5  v096
 BYTE   W12
 BYTE   En4  v064
 BYTE   N02  Gn4
 BYTE   N02  Cn5  v084
 BYTE   W12
//  #03 //043   ----------------------------------------
 BYTE   N07  An1  v104
 BYTE   N06  En2  v108
 BYTE   N05  An2  v104
 BYTE   N04  En4  v112
 BYTE   N04  Gn4  v104
 BYTE   N04  Cn5  v112
 BYTE   W12
 BYTE   N03  En4  v048
 BYTE   N03  Gn4  v056
 BYTE   N03  Cn5  v064
 BYTE   W12
 BYTE   En4  v052
 BYTE   N03  Gn4  v048
 BYTE   N02  Cn5  v068
 BYTE   W12
 BYTE   N06  An1  v104
 BYTE   N07  En2
 BYTE   N05  An2  v100
 BYTE   N04  En4  v112
 BYTE   N04  Gn4
 BYTE   N03  Cn5
 BYTE   W12
 BYTE   En4  v052
 BYTE   N03  Gn4  v048
 BYTE   N03  Cn5  v052
 BYTE   W12
 BYTE   N04  En4  v084
 BYTE   N03  Gn4  v068
 BYTE   N03  Cn5  v088
 BYTE   W12
 BYTE   N04  En4  v100
 BYTE   N04  Gn4
 BYTE   N04  Cn5  v104
 BYTE   W12
 BYTE   N03  En4  v084
 BYTE   N02  Gn4  v064
 BYTE   N04  Cn5  v088
 BYTE   W12
//  #03 //044   ----------------------------------------
 BYTE   N05  Dn2  v100
 BYTE   N05  Fs2  v088
 BYTE   N04  An2  v100
 BYTE   N05  Cn4  v088
 BYTE   N04  Fs4  v092
 BYTE   N04  Cn5  v100
 BYTE   W12
 BYTE   Cn4  v060
 BYTE   N03  Fs4  v052
 BYTE   N03  Cn5  v068
 BYTE   W12
 BYTE   N04  Cn4  v088
 BYTE   N03  Fs4  v080
 BYTE   N04  Cn5  v104
 BYTE   W12
 BYTE   N05  Dn2  v112
 BYTE   N06  Fs2  v096
 BYTE   N05  An2  v100
 BYTE   N04  Cn4  v112
 BYTE   N04  Fs4  v100
 BYTE   N04  Cn5  v116
 BYTE   W12
 BYTE   N03  Cn4  v064
 BYTE   N03  Fs4
 BYTE   N02  Cn5  v072
 BYTE   W12
 BYTE   N04  Cn4  v080
 BYTE   N03  Fs4  v068
 BYTE   N02  Cn5  v088
 BYTE   W12
 BYTE   N03  Cn4  v084
 BYTE   N03  Fs4  v088
 BYTE   N03  Cn5  v096
 BYTE   W12
 BYTE   N04  Cn4  v076
 BYTE   N03  Fs4  v072
 BYTE   N02  Cn5  v092
 BYTE   W12
//  #03 //045   ----------------------------------------
 BYTE   N05  Dn2  v112
 BYTE   N06  Fs2  v100
 BYTE   N04  An2  v104
 BYTE   N04  Cn4
 BYTE   N03  Fs4  v088
 BYTE   N04  Cn5  v112
 BYTE   W12
 BYTE   N03  Cn4  v068
 BYTE   N03  Fs4  v048
 BYTE   N02  Cn5  v052
 BYTE   W12
 BYTE   N04  Cn4  v076
 BYTE   N03  Fs4  v064
 BYTE   N02  Cn5  v080
 BYTE   W12
 BYTE   N03  Dn2  v100
 BYTE   N05  Fs2  v096
 BYTE   N04  An2  v108
 BYTE   N04  Cn4
 BYTE   N04  Fs4  v100
 BYTE   N04  Cn5  v116
 BYTE   W12
 BYTE   N03  Cn4  v052
 BYTE   N03  Fs4  v044
 BYTE   W12
 BYTE   N04  Cn4  v084
 BYTE   N04  Fs4
 BYTE   N02  Cn5  v088
 BYTE   W12
 BYTE   N04  Cn4  v100
 BYTE   N03  Fs4  v080
 BYTE   N04  Cn5  v104
 BYTE   W12
 BYTE   Cn4  v080
 BYTE   N03  Fs4  v072
 BYTE   N04  Cn5  v096
 BYTE   W12
//  #03 //046   ----------------------------------------
 BYTE   N05  An1  v104
 BYTE   N07  En2  v108
 BYTE   N06  An2  v096
 BYTE   N04  En4  v104
 BYTE   N04  Gn4  v100
 BYTE   N05  Cn5  v108
 BYTE   W12
 BYTE   N03  En4  v064
 BYTE   N03  Gn4  v060
 BYTE   N03  Cn5  v064
 BYTE   W12
 BYTE   N04  En4  v084
 BYTE   N02  Gn4  v064
 BYTE   N03  Cn5  v084
 BYTE   W12
 BYTE   N06  An1  v104
 BYTE   N06  En2
 BYTE   N04  An2  v100
 BYTE   N04  En4  v112
 BYTE   N04  Gn4  v100
 BYTE   N04  Cn5  v112
 BYTE   W12
 BYTE   N03  En4  v048
 BYTE   N03  Gn4
 BYTE   N03  Cn5  v060
 BYTE   W12
 BYTE   En4  v072
 BYTE   N02  Gn4  v060
 BYTE   N03  Cn5  v084
 BYTE   W12
 BYTE   En4  v104
 BYTE   N03  Gn4
 BYTE   N04  Cn5  v108
 BYTE   W12
 BYTE   N02  En4  v076
 BYTE   N02  Gn4
 BYTE   N02  Cn5  v084
 BYTE   W12
//  #03 //047   ----------------------------------------
 BYTE   N09  An1  v112
 BYTE   N09  En2  v116
 BYTE   N07  An2  v112
 BYTE   N11  En4  v120
 BYTE   N09  Gn4  v112
 BYTE   N10  Cn5  v116
 BYTE   W72
 BYTE   N21  En3  v112
 BYTE   N05  Dn4  v120
 BYTE   W06
 BYTE   Cn4  v096
 BYTE   W06
 BYTE   N11  An3  v104
 BYTE   W12
//  #03 //048   ----------------------------------------
 BYTE   TIE  An2  v100
 BYTE   TIE  En3  v108
 BYTE   TIE  Gn3  v116
 BYTE   TIE  Cn4
 BYTE   W96
//  #03 //049   ----------------------------------------
 BYTE   W28
 BYTE   W01
 BYTE   EOT
 BYTE   An2
 BYTE   W07
 BYTE   N14  An2  v084
 BYTE   W07
 BYTE   EOT
 BYTE   Cn4
 BYTE   W02
 BYTE   Gn3
 BYTE   W01
 BYTE   En3
 BYTE   W02
 BYTE   N13  Cn3  v116
 BYTE   N18  An3  v120
 BYTE   W06
 BYTE   N36  En3  v072
 BYTE   W06
 BYTE   N11  An2  v048
 BYTE   W06
 BYTE   Cn3  v080
 BYTE   N17  Gn3  v104
 BYTE   W06
 BYTE   N11  An2  v040
 BYTE   W12
 BYTE   Cn3  v100
 BYTE   N12  Gn3  v104
 BYTE   W12
//  #03 //050   ----------------------------------------
 BYTE   TIE  Cn3  v108
 BYTE   TIE  En3  v112
 BYTE   W96
//  #03 //051   ----------------------------------------
 BYTE   W06
 BYTE   EOT
 BYTE   Cn3  v064
 BYTE   W06
 BYTE   N17  Gn2  v104
 BYTE   N17  Dn3
 BYTE   W18
 BYTE   N16  Gn2  v100
 BYTE   N15  Dn3  v088
 BYTE   W18
 BYTE   N11  Gn2  v096
 BYTE   N11  Dn3  v108
 BYTE   W12
 BYTE   Gn2  v068
 BYTE   N11  Cn3  v104
 BYTE   W12
 BYTE   N23  Gn2  v100
 BYTE   N23  Cn3  v096
 BYTE   W24
//  #03 //052   ----------------------------------------
 BYTE   N30  An2  v108
 BYTE   N28  Cn3  v092
 BYTE   N30  En3  v100
 BYTE   W36
 BYTE   TIE  An2  v080
 BYTE   TIE  Dn3  v104
 BYTE   W60
//  #03 //053   ----------------------------------------
 BYTE   W42
 BYTE   W01
 BYTE   EOT
 BYTE   W01
 BYTE   EOT
 BYTE   An2
 BYTE   W04
 BYTE   N23  An2  v100
 BYTE   N23  Dn3  v108
 BYTE   W24
 BYTE   N21  An2  v088
 BYTE   N22  En3  v108
 BYTE   W24
//  #03 //054   ----------------------------------------
 BYTE   N11  Gn2
 BYTE   N11  Cn3  v088
 BYTE   N11  En3  v100
 BYTE   W24
 BYTE   N17  Gn2  v104
 BYTE   N17  Cn3
 BYTE   N17  En3
 BYTE   W18
 BYTE   N05  Gn2  v096
 BYTE   N05  Cn3  v060
 BYTE   N05  En3
 BYTE   W18
 BYTE   N11  Gn2  v108
 BYTE   N11  Cn3  v096
 BYTE   N11  En3  v104
 BYTE   W24
 BYTE   Gn2  v096
 BYTE   N11  Cn3  v084
 BYTE   N11  En3  v092
 BYTE   W12
//  #03 //055   ----------------------------------------
 BYTE   N13  Gn2  v116
 BYTE   N12  Cn3  v100
 BYTE   N13  En3  v104
 BYTE   W12
 BYTE   N04  En6  v120
 BYTE   W01
 BYTE   N03  Dn6  v112
 BYTE   W01
 BYTE   N04  Cn6  v116
 BYTE   W01
 BYTE   N05  Bn5  v108
 BYTE   W03
 BYTE   N04  An5  v020
 BYTE   W02
 BYTE   N03  Gn5  v064
 BYTE   W01
 BYTE   N04  Fn5  v096
 BYTE   W02
 BYTE   N03  En5  v080
 BYTE   W01
 BYTE   N04  Dn5  v084
 BYTE   W02
 BYTE   Cn5  v080
 BYTE   W01
 BYTE   Bn4
 BYTE   W02
 BYTE   An4  v068
 BYTE   W01
 BYTE   Gn4
 BYTE   W02
 BYTE   Fn4  v064
 BYTE   W01
 BYTE   En4  v068
 BYTE   W01
 BYTE   N03  Dn4  v080
 BYTE   W02
 BYTE   N04  Cn4
 BYTE   W01
 BYTE   Bn3  v084
 BYTE   W01
 BYTE   An3
 BYTE   W01
 BYTE   N03  Gn3
 BYTE   W01
 BYTE   Fn3  v100
 BYTE   W02
 BYTE   En3  v088
 BYTE   W01
 BYTE   N04  Dn3  v100
 BYTE   W01
 BYTE   N03  Cn3  v080
 BYTE   W01
 BYTE   N04  Bn2  v104
 BYTE   W01
 BYTE   N03  An2  v088
 BYTE   W01
 BYTE   Gn2  v104
 BYTE   W01
 BYTE   Fn2  v096
 BYTE   W01
 BYTE   En2  v100
 BYTE   W01
 BYTE   Dn2  v092
 BYTE   W01
 BYTE   Cn2  v100
 BYTE   W01
 BYTE   N04  Bn1  v088
 BYTE   W01
 BYTE   N03  An1  v080
 BYTE   W01
 BYTE   Gn1  v096
 BYTE   W01
 BYTE   Fn1  v108
 BYTE   W01
 BYTE   En1  v084
 BYTE   W01
 BYTE   Dn1  v088
 BYTE   W02
 BYTE   N08  Cn1  v092
 BYTE   W01
 BYTE   N05  Bn0  v096
 BYTE   W03
 BYTE   N04  Cs1  v080
 BYTE   W02
 BYTE   N03  Dn1  v016
 BYTE   N03  Ds1  v092
 BYTE   W01
 BYTE   En1  v076
 BYTE   N03  Fs1  v024
 BYTE   W01
 BYTE   Fn1  v092
 BYTE   W01
 BYTE   N04  Gn1  v068
 BYTE   W01
 BYTE   N02  Gs1  v056
 BYTE   N04  An1  v040
 BYTE   W01
 BYTE   N03  Bn1  v028
 BYTE   W01
 BYTE   Cn2  v024
 BYTE   W01
 BYTE   Dn2  v036
 BYTE   W02
 BYTE   En2  v040
 BYTE   W01
 BYTE   Fn2  v068
 BYTE   W01
 BYTE   Gn2  v076
 BYTE   W01
 BYTE   An2  v088
 BYTE   W01
 BYTE   Bn2  v096
 BYTE   W01
 BYTE   Cn3  v080
 BYTE   W01
 BYTE   Dn3  v088
 BYTE   W01
 BYTE   En3  v084
 BYTE   W01
 BYTE   Fn3  v104
 BYTE   W01
 BYTE   Gn3
 BYTE   W01
 BYTE   N02  An3  v092
 BYTE   W01
 BYTE   Bn3  v096
 BYTE   W01
 BYTE   Cn4  v104
 BYTE   W01
 BYTE   Dn4  v108
 BYTE   N02  En4
 BYTE   W01
 BYTE   Fn4  v096
 BYTE   W01
 BYTE   Gn4  v076
 BYTE   W01
 BYTE   An4  v064
 BYTE   N02  Bn4  v072
 BYTE   W06
//  #03 //056   ----------------------------------------
 BYTE   N11  An2  v104
 BYTE   N11  Cn3  v100
 BYTE   N11  Fs3
 BYTE   W24
 BYTE   N17  An2  v096
 BYTE   N17  Cn3  v100
 BYTE   N17  Fs3
 BYTE   W18
 BYTE   N05  An2  v060
 BYTE   N05  Cn3  v080
 BYTE   N05  Fs3  v088
 BYTE   W18
 BYTE   N11  An2  v100
 BYTE   N11  Cn3
 BYTE   N11  Fs3
 BYTE   W24
 BYTE   N05  An2  v104
 BYTE   N05  Cn3  v092
 BYTE   N05  Fs3  v088
 BYTE   W12
//  #03 //057   ----------------------------------------
 BYTE   N11  An2  v104
 BYTE   N11  Cn3  v100
 BYTE   N11  Fs3  v096
 BYTE   W24
 BYTE   N17  An2  v100
 BYTE   N17  Cn3  v096
 BYTE   N17  Fs3  v092
 BYTE   W18
 BYTE   N11  An2  v068
 BYTE   N11  Cn3  v060
 BYTE   N11  Fs3  v088
 BYTE   W18
 BYTE   An2  v104
 BYTE   N11  Cn3  v100
 BYTE   N11  Fs3  v096
 BYTE   W24
 BYTE   N05  An2  v088
 BYTE   N05  Cn3  v084
 BYTE   N05  Fs3  v076
 BYTE   W12
//  #03 //058   ----------------------------------------
 BYTE   N11  Gn2  v100
 BYTE   N11  Cn3  v092
 BYTE   N11  En3  v080
 BYTE   W24
 BYTE   N17  Gn2  v100
 BYTE   N17  Cn3  v096
 BYTE   N17  En3  v092
 BYTE   W18
 BYTE   N05  Gn2
 BYTE   N05  Cn3  v044
 BYTE   N05  En3  v064
 BYTE   W18
 BYTE   N11  Gn2  v104
 BYTE   N11  Cn3
 BYTE   N11  En3  v096
 BYTE   W24
 BYTE   N05  Gn2  v080
 BYTE   N05  Cn3  v084
 BYTE   N05  En3  v088
 BYTE   W12
//  #03 //059   ----------------------------------------
 BYTE   N11  Gn2  v104
 BYTE   N11  Cn3  v100
 BYTE   N11  En3
 BYTE   W24
 BYTE   N17  Gn2  v104
 BYTE   N17  Cn3  v096
 BYTE   N17  En3
 BYTE   W18
 BYTE   N05  Gn2  v100
 BYTE   N05  Cn3  v080
 BYTE   N05  En3  v072
 BYTE   W18
 BYTE   N11  Gn2  v104
 BYTE   N11  Cn3
 BYTE   N11  En3  v096
 BYTE   W24
 BYTE   N05  Gn2  v100
 BYTE   N05  Cn3
 BYTE   N05  En3  v092
 BYTE   W12
//  #03 //060   ----------------------------------------
 BYTE   N11  An2  v104
 BYTE   N11  Cn3  v096
 BYTE   N11  En3  v108
 BYTE   W24
 BYTE   N17  An2  v100
 BYTE   N17  Cn3  v108
 BYTE   N17  En3  v100
 BYTE   W18
 BYTE   N05  An2  v068
 BYTE   N05  Cn3  v072
 BYTE   N05  En3  v076
 BYTE   W18
 BYTE   N11  An2  v108
 BYTE   N11  Cn3  v100
 BYTE   N11  En3
 BYTE   W24
 BYTE   N05  An2  v096
 BYTE   N05  Cn3  v100
 BYTE   N05  En3  v096
 BYTE   W12
//  #03 //061   ----------------------------------------
 BYTE   N11  An2
 BYTE   N11  Cn3  v108
 BYTE   N11  En3  v096
 BYTE   W24
 BYTE   N17  An2  v100
 BYTE   N17  Cn3  v096
 BYTE   N17  En3
 BYTE   W18
 BYTE   N05  An2  v060
 BYTE   N05  Cn3  v080
 BYTE   N05  En3  v060
 BYTE   W18
 BYTE   N11  An2  v100
 BYTE   N11  Cn3  v108
 BYTE   N11  En3  v104
 BYTE   W24
 BYTE   N05  An2
 BYTE   N05  Cn3  v100
 BYTE   N05  En3
 BYTE   W12
//  #03 //062   ----------------------------------------
 BYTE   W12
 BYTE   Gs2  v076
 BYTE   N05  Bn2  v060
 BYTE   N05  Gn3  v072
 BYTE   W12
 BYTE   N11  Gs2  v108
 BYTE   N11  Bn2
 BYTE   N11  Gn3  v104
 BYTE   W24
 BYTE   N05  Gs2  v088
 BYTE   N05  Bn2
 BYTE   N05  Gn3  v104
 BYTE   W12
 BYTE   N11  Gs2
 BYTE   N11  Bn2  v100
 BYTE   N11  Gn3  v092
 BYTE   W24
 BYTE   Gs2  v096
 BYTE   N11  Bn2  v108
 BYTE   N11  Gn3
 BYTE   W12
//  #03 //063   ----------------------------------------
 BYTE   W12
 BYTE   N05  Gs2  v064
 BYTE   N05  Bn2  v080
 BYTE   N05  Gn3  v084
 BYTE   W12
 BYTE   N17  Gs2  v100
 BYTE   N17  Bn2  v108
 BYTE   N17  Gn3
 BYTE   W24
 BYTE   Gs2  v092
 BYTE   N17  Bn2  v100
 BYTE   N17  Gn3  v108
 BYTE   W24
 BYTE   Gs2  v104
 BYTE   N17  Bn2  v108
 BYTE   N17  Gn3  v112
 BYTE   W24
//  #03 //064   ----------------------------------------
 BYTE   N11  Gn2  v100
 BYTE   N11  Cn3  v104
 BYTE   N11  En3  v100
 BYTE   W24
 BYTE   N17  Gn2
 BYTE   N17  Cn3
 BYTE   N17  En3
 BYTE   W18
 BYTE   N05  Gn2  v096
 BYTE   N05  Cn3  v056
 BYTE   N05  En3  v072
 BYTE   W18
 BYTE   N11  Gn2  v100
 BYTE   N11  Cn3
 BYTE   N11  En3
 BYTE   W24
 BYTE   N05  Gn2
 BYTE   N05  Cn3  v108
 BYTE   N05  En3  v096
 BYTE   W12
//  #03 //065   ----------------------------------------
 BYTE   N11  An2  v092
 BYTE   N11  Cn3  v100
 BYTE   N11  Fs3  v088
 BYTE   W24
 BYTE   N17  An2  v096
 BYTE   N17  Cn3  v100
 BYTE   N17  Fs3
 BYTE   W18
 BYTE   N05  An2  v056
 BYTE   N05  Cn3  v088
 BYTE   N05  Fs3  v092
 BYTE   W18
 BYTE   N11  An2  v096
 BYTE   N11  Cn3  v100
 BYTE   N11  Fs3  v104
 BYTE   W24
 BYTE   N05  An2  v076
 BYTE   N05  Cn3  v080
 BYTE   N05  Fs3  v084
 BYTE   W12
//  #03 //066   ----------------------------------------
 BYTE   PATT
  POIN2 Label_0100752A
//  #03 //067   ----------------------------------------
 BYTE   N11  An2  v100
 BYTE   N11  Cn3  v104
 BYTE   N11  Fs3  v100
 BYTE   W24
 BYTE   N17  An2  v096
 BYTE   N17  Cn3
 BYTE   N17  Fs3  v104
 BYTE   W18
 BYTE   N05  An2  v080
 BYTE   N05  Cn3  v056
 BYTE   N05  Fs3  v076
 BYTE   W18
 BYTE   N11  An2  v096
 BYTE   N11  Cn3  v104
 BYTE   N11  Fs3  v100
 BYTE   W24
 BYTE   N05  An2  v076
 BYTE   N05  Cn3  v084
 BYTE   N05  Fs3  v080
 BYTE   W12
//  #03 //068   ----------------------------------------
 BYTE   N11  Fn2  v104
 BYTE   N11  An2  v100
 BYTE   N11  En3  v104
 BYTE   W24
 BYTE   N17  Fn2  v108
 BYTE   N17  An2  v096
 BYTE   N17  En3  v104
 BYTE   W18
 BYTE   N05  Fn2  v100
 BYTE   N05  An2  v060
 BYTE   N05  En3  v072
 BYTE   W18
 BYTE   N11  Fn2  v108
 BYTE   N11  An2
 BYTE   N11  En3
 BYTE   W24
 BYTE   N05  Fn2  v084
 BYTE   N05  An2  v048
 BYTE   N05  En3  v092
 BYTE   W12
//  #03 //069   ----------------------------------------
 BYTE   PATT
  POIN2 Label_010075BC
//  #03 //070   ----------------------------------------
 BYTE   N10  Fn2  v104
 BYTE   N08  An2  v096
 BYTE   N09  En3  v100
 BYTE   W24
 BYTE   N18  Fn2  v112
 BYTE   N17  An2  v100
 BYTE   N17  En3  v104
 BYTE   W18
 BYTE   N01  Fn2  v096
 BYTE   N06  An2  v088
 BYTE   N06  En3
 BYTE   W18
 BYTE   N11  Fn2  v108
 BYTE   N11  An2  v104
 BYTE   N11  En3  v108
 BYTE   W24
 BYTE   N04  Fn2  v100
 BYTE   N04  An2  v084
 BYTE   N04  En3  v092
 BYTE   W12
//  #03 //071   ----------------------------------------
 BYTE   PATT
  POIN2 Label_0100761E
//  #03 //072   ----------------------------------------
 BYTE   N12  An0  v096
 BYTE   N12  An2  v108
 BYTE   W12
 BYTE   En0  v084
 BYTE   N12  En2  v080
 BYTE   W12
 BYTE   Gn0
 BYTE   N12  Gn2  v088
 BYTE   W12
 BYTE   An0
 BYTE   N12  An2  v100
 BYTE   W24
 BYTE   An0  v088
 BYTE   N12  An2  v104
 BYTE   W12
 BYTE   Cn1  v080
 BYTE   N12  Cn3  v100
 BYTE   W12
 BYTE   Dn1
 BYTE   N12  Dn3  v104
 BYTE   W12
//  #03 //073   ----------------------------------------
 BYTE   PATT
  POIN2 Label_010071DA
//  #03 //074   ----------------------------------------
 BYTE   PATT
  POIN2 Label_01007206
//  #03 //075   ----------------------------------------
 BYTE   W96
//  #03 //076   ----------------------------------------
 BYTE   GoTo
  POIN2 Label_01007230
//  #03 //077   ----------------------------------------
 BYTE   W13
 BYTE   FINE

//**************** Track 4 (Midi-Chn.3) ****************//

JokingMotive_004:
//  #04 //000   ----------------------------------------
 BYTE   KEYSH   JokingMotive_key+0
 BYTE   VOICE   18
 BYTE   VOL   40*JokingMotive_mvl/mxv
 BYTE   PAN   c_v+10
 BYTE   BEND   c_v+0
 BYTE   W96
//  #04 //001   ----------------------------------------
 BYTE   W96
//  #04 //002   ----------------------------------------
 BYTE   W96
//  #04 //003   ----------------------------------------
 BYTE   W96
//  #04 //004   ----------------------------------------
Label_01005ADA:
 BYTE   N12  An3  v108
 BYTE   N12  An4  v120
 BYTE   W68
 BYTE   W03
 BYTE   N11  Gn2  v092
 BYTE   W12
 BYTE   N06  An2  v100
 BYTE   W13
//  #04 //005   ----------------------------------------
 BYTE   W96
//  #04 //006   ----------------------------------------
 BYTE   W56
 BYTE   W03
 BYTE   N05  An2  v096
 BYTE   W12
 BYTE   N10  Cn3  v100
 BYTE   W12
 BYTE   N03  Dn3
 BYTE   W03
 BYTE   BEND   c_v-2
 BYTE   W03
 BYTE   BEND   c_v-2
 BYTE   W06
 BYTE   N20
 BYTE   W01
//  #04 //007   ----------------------------------------
 BYTE   W02
 BYTE   BEND   c_v+2
 BYTE   W01
 BYTE   BEND   c_v+11
 BYTE   W01
 BYTE   BEND   c_v+27
 BYTE   W01
 BYTE   BEND   c_v+38
 BYTE   W01
 BYTE   BEND   c_v+44
 BYTE   W03
 BYTE   BEND   c_v+42
 BYTE   W01
 BYTE   BEND   c_v+37
 BYTE   W01
 BYTE   BEND   c_v+0
 BYTE   W12
 BYTE   N05  Cn3  v092
 BYTE   W12
 BYTE   N08  An2
 BYTE   W60
 BYTE   W01
//  #04 //008   ----------------------------------------
 BYTE   W80
 BYTE   W03
 BYTE   An2  v100
 BYTE   N09  An3  v092
 BYTE   W13
//  #04 //009   ----------------------------------------
 BYTE   W96
//  #04 //010   ----------------------------------------
 BYTE   W56
 BYTE   W03
 BYTE   N03  Gn2  v100
 BYTE   W12
 BYTE   N09  An2  v092
 BYTE   W12
 BYTE   N03  Gn2  v108
 BYTE   W12
 BYTE   N12  An3
 BYTE   N12  An4  v120
 BYTE   W01
//  #04 //011   ----------------------------------------
 BYTE   W96
//  #04 //012   ----------------------------------------
 BYTE   W32
 BYTE   W03
 BYTE   N03  An3  v100
 BYTE   W24
 BYTE   Gn3  v108
 BYTE   W24
 BYTE   N18  En3  v100
 BYTE   W13
//  #04 //013   ----------------------------------------
 BYTE   W05
 BYTE   N01  En3  v092
 BYTE   W02
 BYTE   BEND   c_v-8
 BYTE   W01
 BYTE   BEND   c_v-12
 BYTE   W01
 BYTE   BEND   c_v-21
 BYTE   W01
 BYTE   BEND   c_v-27
 BYTE   W01
 BYTE   BEND   c_v-34
 BYTE   W01
 BYTE   BEND   c_v-38
 BYTE   W01
 BYTE   BEND   c_v-45
 BYTE   W01
 BYTE   BEND   c_v-54
 BYTE   W01
 BYTE   BEND   c_v-57
 BYTE   W01
 BYTE   BEND   c_v-59
 BYTE   W05
 BYTE   BEND   c_v-53
 BYTE   W01
 BYTE   BEND   c_v-42
 BYTE   W01
 BYTE   BEND   c_v-33
 BYTE   W01
 BYTE   BEND   c_v-19
 BYTE   W01
 BYTE   BEND   c_v-10
 BYTE   W01
 BYTE   BEND   c_v+0
 BYTE   W68
 BYTE   W02
//  #04 //014   ----------------------------------------
 BYTE   W92
 BYTE   W03
 BYTE   N04  Dn3
 BYTE   W01
//  #04 //015   ----------------------------------------
 BYTE   W05
 BYTE   N05  Ds3
 BYTE   W06
 BYTE   N06  En3  v096
 BYTE   W06
 BYTE   N09  Gn3  v092
 BYTE   W18
 BYTE   N03  En3
 BYTE   W12
 BYTE   N12  Ds3  v108
 BYTE   W01
 BYTE   BEND   c_v-1
 BYTE   W02
 BYTE   BEND   c_v-3
 BYTE   W03
 BYTE   BEND   c_v-1
 BYTE   W01
 BYTE   BEND   c_v+0
 BYTE   W05
 BYTE   N05  Dn3  v096
 BYTE   W12
 BYTE   Cn3
 BYTE   W12
 BYTE   N04  An2  v108
 BYTE   W12
 BYTE   N36  Cn3  v092
 BYTE   W01
//  #04 //016   ----------------------------------------
 BYTE   W32
 BYTE   W03
 BYTE   N05  An2  v100
 BYTE   W60
 BYTE   W01
//  #04 //017   ----------------------------------------
 BYTE   W32
 BYTE   W03
 BYTE   N09
 BYTE   N09  An3
 BYTE   W60
 BYTE   W01
//  #04 //018   ----------------------------------------
 BYTE   W56
 BYTE   W03
 BYTE   N04  An2
 BYTE   W12
 BYTE   N12  Gn2  v108
 BYTE   W12
 BYTE   N03  An2  v096
 BYTE   W12
 BYTE   N12  An3  v108
 BYTE   N12  An4  v120
 BYTE   W01
//  #04 //019   ----------------------------------------
 BYTE   W96
//  #04 //020   ----------------------------------------
 BYTE   W80
 BYTE   BEND   c_v-11
 BYTE   W01
 BYTE   BEND   c_v-19
 BYTE   W01
 BYTE   BEND   c_v-31
 BYTE   W01
 BYTE   BEND   c_v-33
 BYTE   N10  En4  v100
 BYTE   W01
 BYTE   BEND   c_v-37
 BYTE   W03
 BYTE   BEND   c_v-28
 BYTE   W01
 BYTE   BEND   c_v-19
 BYTE   W01
 BYTE   BEND   c_v-8
 BYTE   W01
 BYTE   BEND   c_v-3
 BYTE   W01
 BYTE   BEND   c_v-1
 BYTE   W01
 BYTE   BEND   c_v+0
 BYTE   W04
//  #04 //021   ----------------------------------------
 BYTE   W11
 BYTE   N08  Dn4  v092
 BYTE   W24
 BYTE   N09  Cn4  v100
 BYTE   W24
 BYTE   N10  An3
 BYTE   W24
 BYTE   N04  Gn3
 BYTE   W12
 BYTE   N12  An3
 BYTE   W01
//  #04 //022   ----------------------------------------
 BYTE   W11
 BYTE   N04  Cn4  v108
 BYTE   W84
 BYTE   W01
//  #04 //023   ----------------------------------------
 BYTE   W96
//  #04 //024   ----------------------------------------
 BYTE   W56
 BYTE   W03
 BYTE   N05  Dn3  v096
 BYTE   W06
 BYTE   N07  Ds3  v092
 BYTE   W06
 BYTE   N05  En3  v096
 BYTE   W11
 BYTE   BEND   c_v-10
 BYTE   W01
 BYTE   BEND   c_v-20
 BYTE   N18  An3  v116
 BYTE   W01
 BYTE   BEND   c_v-36
 BYTE   W01
 BYTE   BEND   c_v-44
 BYTE   W02
 BYTE   BEND   c_v-40
 BYTE   W01
 BYTE   BEND   c_v-31
 BYTE   W01
 BYTE   BEND   c_v-14
 BYTE   W01
 BYTE   BEND   c_v+0
 BYTE   W06
//  #04 //025   ----------------------------------------
 BYTE   W11
 BYTE   N05  Gn3  v120
 BYTE   W24
 BYTE   N17  En3  v108
 BYTE   W24
 BYTE   N04  En3  v092
 BYTE   W12
 BYTE   N11  Dn3  v100
 BYTE   W12
 BYTE   N07  Cn3
 BYTE   W13
//  #04 //026   ----------------------------------------
 BYTE   W11
 BYTE   N05  Gs2  v096
 BYTE   N04  Dn3
 BYTE   N05  Gn3
 BYTE   W12
 BYTE   N16  Gs2  v108
 BYTE   N15  Dn3  v112
 BYTE   N15  Gn3
 BYTE   W24
 BYTE   N05  Gs2  v096
 BYTE   N04  Dn3  v112
 BYTE   N05  Gn3  v116
 BYTE   W12
 BYTE   N14  Gs2  v096
 BYTE   N15  Dn3  v116
 BYTE   N14  Gn3  v112
 BYTE   W24
 BYTE   Gs2  v108
 BYTE   N16  Dn3  v112
 BYTE   N14  Gn3  v124
 BYTE   W13
//  #04 //027   ----------------------------------------
Label_01005C58:
 BYTE   W11
 BYTE   N07  En3  v100
 BYTE   N05  Bn3  v104
 BYTE   N06  Gn4  v112
 BYTE   W12
 BYTE   N18  En3
 BYTE   N17  Bn3  v120
 BYTE   N17  Gn4  v112
 BYTE   W24
 BYTE   N07  En3  v116
 BYTE   N08  Bn3  v120
 BYTE   N07  Gn4
 BYTE   W24
 BYTE   N23  En3  v116
 BYTE   N23  Bn3  v120
 BYTE   N22  Gn4
 BYTE   W24
 BYTE   N17  An3  v116
 BYTE   N17  An4  v120
 BYTE   W01
 BYTE   PEND 
//  #04 //028   ----------------------------------------
 BYTE   W56
 BYTE   W03
 BYTE   N05  Gn2  v100
 BYTE   W12
 BYTE   N15  An2  v116
 BYTE   W12
 BYTE   N05  Cn3  v104
 BYTE   W13
//  #04 //029   ----------------------------------------
 BYTE   W32
 BYTE   W03
 BYTE   N04  Dn3  v100
 BYTE   W24
 BYTE   N02
 BYTE   W12
 BYTE   N06  Dn3  v112
 BYTE   W06
 BYTE   N05  Cn3  v096
 BYTE   W06
 BYTE   N06  Dn3
 BYTE   W12
 BYTE   N08  En3  v120
 BYTE   W01
//  #04 //030   ----------------------------------------
 BYTE   W96
//  #04 //031   ----------------------------------------
 BYTE   W11
 BYTE   N04  An3  v108
 BYTE   W24
 BYTE   Gn3  v100
 BYTE   W24
 BYTE   N05  En3  v104
 BYTE   W12
 BYTE   N12  Dn3  v116
 BYTE   W12
 BYTE   N05  En3  v108
 BYTE   W12
 BYTE   N92  Fn2  v080
 BYTE   N92  An2
 BYTE   N92  Cn3
 BYTE   W01
//  #04 //032   ----------------------------------------
Label_01005CC8:
 BYTE   W92
 BYTE   W03
 BYTE   N96  En2  v080
 BYTE   W01
 BYTE   PEND 
//  #04 //033   ----------------------------------------
 BYTE   N92  Gn2
 BYTE   N92  Bn2
 BYTE   W96
//  #04 //034   ----------------------------------------
Label_01005CD4:
 BYTE   N92  Fn2  v080
 BYTE   N92  An2
 BYTE   N92  Cn3
 BYTE   W96
 BYTE   PEND 
//  #04 //035   ----------------------------------------
 BYTE   N18  En3  v120
 BYTE   N19  En4
 BYTE   W96
//  #04 //036   ----------------------------------------
 BYTE   W96
//  #04 //037   ----------------------------------------
 BYTE   W96
//  #04 //038   ----------------------------------------
 BYTE   W96
//  #04 //039   ----------------------------------------
 BYTE   W92
 BYTE   W03
 BYTE   N12  An3  v108
 BYTE   N12  An4  v120
 BYTE   W01
//  #04 //040   ----------------------------------------
 BYTE   W96
//  #04 //041   ----------------------------------------
 BYTE   W96
//  #04 //042   ----------------------------------------
 BYTE   W92
 BYTE   W03
 BYTE   N11  Gn4  v096
 BYTE   W01
//  #04 //043   ----------------------------------------
 BYTE   W02
 BYTE   BEND   c_v+18
 BYTE   W01
 BYTE   BEND   c_v+36
 BYTE   W01
 BYTE   BEND   c_v+53
 BYTE   W01
 BYTE   BEND   c_v+63
 BYTE   W01
 BYTE   BEND   c_v+63
 BYTE   W01
 BYTE   BEND   c_v+46
 BYTE   W01
 BYTE   BEND   c_v+34
 BYTE   W01
 BYTE   BEND   c_v+21
 BYTE   W01
 BYTE   BEND   c_v+6
 BYTE   W01
 BYTE   BEND   c_v+0
 BYTE   W06
 BYTE   N08
 BYTE   W18
 BYTE   N05  En4  v100
 BYTE   W12
 BYTE   N07  Dn4  v096
 BYTE   W12
 BYTE   N04  Cn4
 BYTE   W12
 BYTE   N06  Dn4
 BYTE   W06
 BYTE   N05  Cn4  v092
 BYTE   W06
 BYTE   N03  An3
 BYTE   W12
 BYTE   N12  Gn3  v096
 BYTE   W01
//  #04 //044   ----------------------------------------
 BYTE   W11
 BYTE   N04  An3
 BYTE   W12
 BYTE   N09  An3  v100
 BYTE   W72
 BYTE   W01
//  #04 //045   ----------------------------------------
 BYTE   W56
 BYTE   W03
 BYTE   N05
 BYTE   N04  An4  v096
 BYTE   W24
 BYTE   N06  Gn3
 BYTE   N06  Gn4
 BYTE   W13
//  #04 //046   ----------------------------------------
 BYTE   W11
 BYTE   N05  En3  v100
 BYTE   N06  En4  v096
 BYTE   W24
 BYTE   N03  Dn3  v092
 BYTE   N04  Dn4  v100
 BYTE   W24
 BYTE   N02  Cn3  v092
 BYTE   N02  Cn4  v096
 BYTE   W12
 BYTE   N12  Ds3  v116
 BYTE   N11  Ds4  v096
 BYTE   W12
 BYTE   N09  En3
 BYTE   N14  En4
 BYTE   W12
 BYTE   N12  An3  v108
 BYTE   N12  An4  v120
 BYTE   W01
//  #04 //047   ----------------------------------------
 BYTE   W96
//  #04 //048   ----------------------------------------
 BYTE   W11
 BYTE   N04  Gn3  v096
 BYTE   N03  Gn4  v092
 BYTE   W12
 BYTE   N10  Gn3  v096
 BYTE   N11  Gn4  v092
 BYTE   W12
 BYTE   N05  An3  v100
 BYTE   N04  An4
 BYTE   W60
 BYTE   W01
//  #04 //049   ----------------------------------------
 BYTE   W32
 BYTE   W03
 BYTE   En3
 BYTE   N02  En4
 BYTE   W24
 BYTE   N03  Gn3
 BYTE   N03  Gn4  v092
 BYTE   W24
 BYTE   N19  Cn3  v096
 BYTE   N19  Cn4  v092
 BYTE   W13
//  #04 //050   ----------------------------------------
 BYTE   W11
 BYTE   N04  Ds3  v108
 BYTE   N03  Ds4  v124
 BYTE   W12
 BYTE   N05  En3  v092
 BYTE   N05  En4  v100
 BYTE   W60
 BYTE   Dn4  v096
 BYTE   W06
 BYTE   N06  Cn4  v092
 BYTE   W06
 BYTE   Dn4  v096
 BYTE   W01
//  #04 //051   ----------------------------------------
 BYTE   W05
 BYTE   N07  Cn4  v092
 BYTE   W06
 BYTE   N05  An3  v096
 BYTE   W12
 BYTE   N11  An3  v092
 BYTE   W12
 BYTE   N04  Gn3  v100
 BYTE   W06
 BYTE   An3
 BYTE   W12
 BYTE   N05
 BYTE   W12
 BYTE   N04  An3  v096
 BYTE   W06
 BYTE   N09  Cn4  v092
 BYTE   W12
 BYTE   N05  An3  v116
 BYTE   W13
//  #04 //052   ----------------------------------------
 BYTE   W11
 BYTE   Cn3  v092
 BYTE   N04  Cn4  v096
 BYTE   W12
 BYTE   N11  Cn3  v092
 BYTE   N11  Cn4  v096
 BYTE   W12
 BYTE   N04  Dn3  v100
 BYTE   N04  Dn4  v096
 BYTE   W48
 BYTE   N03  Cn3  v092
 BYTE   N03  Cn4  v096
 BYTE   W13
//  #04 //053   ----------------------------------------
 BYTE   W11
 BYTE   N04  Cn3  v092
 BYTE   N03  Cn4  v096
 BYTE   W12
 BYTE   N11  Dn3  v100
 BYTE   N11  Dn4
 BYTE   W12
 BYTE   N04  Cn3  v092
 BYTE   N04  Cn4  v100
 BYTE   W60
 BYTE   W01
//  #04 //054   ----------------------------------------
 BYTE   W32
 BYTE   W03
 BYTE   En3
 BYTE   N03  En4  v096
 BYTE   W12
 BYTE   N13  An3  v100
 BYTE   N10  An4  v116
 BYTE   W12
 BYTE   N05  Gn3  v096
 BYTE   N04  Gn4  v092
 BYTE   W24
 BYTE   N03  Gn3
 BYTE   N02  Gn4  v100
 BYTE   W12
 BYTE   N12  An3  v108
 BYTE   N12  An4  v120
 BYTE   W01
//  #04 //055   ----------------------------------------
 BYTE   W96
//  #04 //056   ----------------------------------------
 BYTE   W56
 BYTE   W03
 BYTE   N04  An1  v100
 BYTE   N05  An2
 BYTE   W12
 BYTE   N13  Cn2
 BYTE   N15  Cn3  v116
 BYTE   W12
 BYTE   N06  Dn2  v104
 BYTE   N05  Dn3
 BYTE   W13
//  #04 //057   ----------------------------------------
 BYTE   W96
//  #04 //058   ----------------------------------------
 BYTE   W52
 BYTE   BEND   c_v-4
 BYTE   W01
 BYTE   BEND   c_v-14
 BYTE   W01
 BYTE   BEND   c_v-19
 BYTE   W01
 BYTE   BEND   c_v-21
 BYTE   W01
 BYTE   BEND   c_v-32
 BYTE   W01
 BYTE   BEND   c_v-34
 BYTE   W01
 BYTE   BEND   c_v-38
 BYTE   W01
 BYTE   N07  An3  v092
 BYTE   W02
 BYTE   BEND   c_v-28
 BYTE   W01
 BYTE   BEND   c_v-20
 BYTE   W01
 BYTE   BEND   c_v-12
 BYTE   W01
 BYTE   BEND   c_v+0
 BYTE   W07
 BYTE   N05  Gn3
 BYTE   W12
 BYTE   N04  En3
 BYTE   W12
 BYTE   N07  Dn3  v100
 BYTE   W01
//  #04 //059   ----------------------------------------
 BYTE   W05
 BYTE   N05  Ds3  v096
 BYTE   W12
 BYTE   N13  En3
 BYTE   W18
 BYTE   N05  Gn3  v092
 BYTE   W10
 BYTE   BEND   c_v-3
 BYTE   W01
 BYTE   BEND   c_v-11
 BYTE   W01
 BYTE   BEND   c_v-24
 BYTE   N14  Ds3  v108
 BYTE   W01
 BYTE   BEND   c_v-31
 BYTE   W01
 BYTE   BEND   c_v-37
 BYTE   W01
 BYTE   BEND   c_v-40
 BYTE   W01
 BYTE   BEND   c_v-31
 BYTE   W01
 BYTE   BEND   c_v-20
 BYTE   W01
 BYTE   BEND   c_v-11
 BYTE   W01
 BYTE   BEND   c_v+0
 BYTE   W11
 BYTE   N06  Dn3  v092
 BYTE   W06
 BYTE   N07  Cn3  v100
 BYTE   W12
 BYTE   N04  An2  v092
 BYTE   W12
 BYTE   N11  Cn3  v100
 BYTE   W01
//  #04 //060   ----------------------------------------
 BYTE   W56
 BYTE   W03
 BYTE   N09  An2  v108
 BYTE   N09  An3  v116
 BYTE   W36
 BYTE   W01
//  #04 //061   ----------------------------------------
 BYTE   W56
 BYTE   W03
 BYTE   N11  An2
 BYTE   N10  An3  v124
 BYTE   W36
 BYTE   W01
//  #04 //062   ----------------------------------------
 BYTE   W11
 BYTE   N05  Gs2  v096
 BYTE   N04  Dn3
 BYTE   N05  Gn3
 BYTE   W12
 BYTE   N16  Gs2  v108
 BYTE   N15  Dn3  v112
 BYTE   N15  Gn3
 BYTE   W24
 BYTE   N05  Gs2  v096
 BYTE   N04  Dn3  v112
 BYTE   N05  Gn3  v116
 BYTE   W12
 BYTE   N12  Gs2  v096
 BYTE   N12  Dn3  v116
 BYTE   N12  Gn3  v112
 BYTE   W24
 BYTE   Gs2  v108
 BYTE   N12  Dn3  v112
 BYTE   N12  Gn3  v124
 BYTE   W13
//  #04 //063   ----------------------------------------
 BYTE   PATT
  POIN2 Label_01005C58
//  #04 //064   ----------------------------------------
 BYTE   W56
 BYTE   W03
 BYTE   N04  Gn1  v100
 BYTE   N05  Gn2
 BYTE   W12
 BYTE   N13  An1
 BYTE   N15  An2  v116
 BYTE   W12
 BYTE   N06  Cn2  v104
 BYTE   N05  Cn3
 BYTE   W13
//  #04 //065   ----------------------------------------
 BYTE   W32
 BYTE   W03
 BYTE   N04  Dn2
 BYTE   N04  Dn3  v100
 BYTE   W24
 BYTE   N02  Dn2
 BYTE   N02  Dn3
 BYTE   W12
 BYTE   N07  Dn2  v112
 BYTE   N06  Dn3
 BYTE   W06
 BYTE   N07  Cn2  v100
 BYTE   N05  Cn3  v096
 BYTE   W06
 BYTE   Dn2
 BYTE   N06  Dn3
 BYTE   W12
 BYTE   N09  En2  v120
 BYTE   N08  En3
 BYTE   W01
//  #04 //066   ----------------------------------------
 BYTE   W96
//  #04 //067   ----------------------------------------
 BYTE   W11
 BYTE   N04  An2  v108
 BYTE   N04  An3
 BYTE   W24
 BYTE   N05  Gn2  v116
 BYTE   N04  Gn3  v100
 BYTE   W24
 BYTE   Dn2  v104
 BYTE   N05  En3
 BYTE   W12
 BYTE   N12  Dn2  v108
 BYTE   N12  Dn3  v116
 BYTE   W12
 BYTE   N04  En2  v112
 BYTE   N05  En3  v108
 BYTE   W12
 BYTE   N92  Fn2  v080
 BYTE   N92  An2
 BYTE   N92  Cn3
 BYTE   W01
//  #04 //068   ----------------------------------------
 BYTE   PATT
  POIN2 Label_01005CC8
//  #04 //069   ----------------------------------------
 BYTE   N92  Gn2  v080
 BYTE   N92  Bn2
 BYTE   W96
//  #04 //070   ----------------------------------------
 BYTE   PATT
  POIN2 Label_01005CD4
//  #04 //071   ----------------------------------------
 BYTE   N18  En3  v120
 BYTE   N19  En4
 BYTE   W96
//  #04 //072   ----------------------------------------
 BYTE   W96
//  #04 //073   ----------------------------------------
 BYTE   W96
//  #04 //074   ----------------------------------------
 BYTE   W96
//  #04 //075   ----------------------------------------
 BYTE   W96
//  #04 //076   ----------------------------------------
 BYTE   GoTo
  POIN2 Label_01005ADA
//  #04 //077   ----------------------------------------
 BYTE   W13
 BYTE   FINE

//**************** Track 5 (Midi-Chn.4) ****************//

JokingMotive_005:
//  #05 //000   ----------------------------------------
 BYTE   KEYSH   JokingMotive_key+0
 BYTE   VOICE   30
 BYTE   VOL   25*JokingMotive_mvl/mxv
 BYTE   PAN   c_v-30
 BYTE   BEND   c_v+0
 BYTE   N11  An1  v112
 BYTE   W12
 BYTE   En1
 BYTE   W12
 BYTE   Gn1
 BYTE   W12
 BYTE   N12  An1
 BYTE   W24
 BYTE   N11
 BYTE   W12
 BYTE   Cn2
 BYTE   W12
 BYTE   N12  Dn2
 BYTE   W12
//  #05 //001   ----------------------------------------
Label_010055F0:
 BYTE   W12
 BYTE   N09  Dn2  v112
 BYTE   W24
 BYTE   N05  Cn2
 BYTE   W06
 BYTE   Dn2
 BYTE   W06
 BYTE   N11  En2
 BYTE   W12
 BYTE   Dn2
 BYTE   W12
 BYTE   Cn2
 BYTE   W12
 BYTE   Dn2
 BYTE   W12
 BYTE   PEND 
//  #05 //002   ----------------------------------------
Label_01005604:
 BYTE   N11  An1  v112
 BYTE   W12
 BYTE   En1
 BYTE   W12
 BYTE   Gn1
 BYTE   W12
 BYTE   N12  An1
 BYTE   W24
 BYTE   N11
 BYTE   W12
 BYTE   Cn2
 BYTE   W12
 BYTE   N12  Dn2
 BYTE   W12
 BYTE   PEND 
//  #05 //003   ----------------------------------------
 BYTE   W96
//  #05 //004   ----------------------------------------
Label_01005618:
 BYTE   W48
 BYTE   N05  En2  v080
 BYTE   N05  An2  v100
 BYTE   W06
 BYTE   En2  v080
 BYTE   N05  An2  v100
 BYTE   W06
 BYTE   En2  v080
 BYTE   N05  An2  v100
 BYTE   W36
 BYTE   PEND 
//  #05 //005   ----------------------------------------
 BYTE   PATT
  POIN2 Label_01005618
//  #05 //006   ----------------------------------------
 BYTE   PATT
  POIN2 Label_01005618
//  #05 //007   ----------------------------------------
 BYTE   PATT
  POIN2 Label_01005618
//  #05 //008   ----------------------------------------
Label_0100563C:
 BYTE   W48
 BYTE   N05  Fs2  v080
 BYTE   N05  Cn3  v100
 BYTE   W06
 BYTE   Fs2  v080
 BYTE   N05  Cn3  v100
 BYTE   W06
 BYTE   Fs2  v080
 BYTE   N05  Cn3  v100
 BYTE   W36
 BYTE   PEND 
//  #05 //009   ----------------------------------------
 BYTE   PATT
  POIN2 Label_0100563C
//  #05 //010   ----------------------------------------
 BYTE   PATT
  POIN2 Label_01005618
//  #05 //011   ----------------------------------------
 BYTE   W96
//  #05 //012   ----------------------------------------
 BYTE   PATT
  POIN2 Label_01005618
//  #05 //013   ----------------------------------------
 BYTE   PATT
  POIN2 Label_01005618
//  #05 //014   ----------------------------------------
 BYTE   PATT
  POIN2 Label_01005618
//  #05 //015   ----------------------------------------
 BYTE   PATT
  POIN2 Label_01005618
//  #05 //016   ----------------------------------------
 BYTE   PATT
  POIN2 Label_0100563C
//  #05 //017   ----------------------------------------
 BYTE   PATT
  POIN2 Label_0100563C
//  #05 //018   ----------------------------------------
 BYTE   PATT
  POIN2 Label_01005618
//  #05 //019   ----------------------------------------
 BYTE   W96
//  #05 //020   ----------------------------------------
 BYTE   PATT
  POIN2 Label_0100563C
//  #05 //021   ----------------------------------------
 BYTE   PATT
  POIN2 Label_0100563C
//  #05 //022   ----------------------------------------
 BYTE   PATT
  POIN2 Label_01005618
//  #05 //023   ----------------------------------------
 BYTE   PATT
  POIN2 Label_01005618
//  #05 //024   ----------------------------------------
 BYTE   PATT
  POIN2 Label_01005618
//  #05 //025   ----------------------------------------
 BYTE   PATT
  POIN2 Label_01005618
//  #05 //026   ----------------------------------------
 BYTE   W96
//  #05 //027   ----------------------------------------
 BYTE   W96
//  #05 //028   ----------------------------------------
 BYTE   PATT
  POIN2 Label_01005618
//  #05 //029   ----------------------------------------
 BYTE   PATT
  POIN2 Label_0100563C
//  #05 //030   ----------------------------------------
 BYTE   PATT
  POIN2 Label_01005618
//  #05 //031   ----------------------------------------
 BYTE   PATT
  POIN2 Label_0100563C
//  #05 //032   ----------------------------------------
 BYTE   PATT
  POIN2 Label_01005618
//  #05 //033   ----------------------------------------
Label_010056B9:
 BYTE   W48
 BYTE   N05  Gn2  v080
 BYTE   N05  Bn2  v100
 BYTE   W06
 BYTE   Gn2  v080
 BYTE   N05  Bn2  v100
 BYTE   W06
 BYTE   Gn2  v080
 BYTE   N05  Bn2  v100
 BYTE   W36
 BYTE   PEND 
//  #05 //034   ----------------------------------------
 BYTE   PATT
  POIN2 Label_01005618
//  #05 //035   ----------------------------------------
 BYTE   W96
//  #05 //036   ----------------------------------------
 BYTE   PATT
  POIN2 Label_01005604
//  #05 //037   ----------------------------------------
 BYTE   PATT
  POIN2 Label_010055F0
//  #05 //038   ----------------------------------------
 BYTE   PATT
  POIN2 Label_01005604
//  #05 //039   ----------------------------------------
 BYTE   W96
//  #05 //040   ----------------------------------------
 BYTE   PATT
  POIN2 Label_01005618
//  #05 //041   ----------------------------------------
 BYTE   PATT
  POIN2 Label_01005618
//  #05 //042   ----------------------------------------
 BYTE   PATT
  POIN2 Label_01005618
//  #05 //043   ----------------------------------------
 BYTE   PATT
  POIN2 Label_01005618
//  #05 //044   ----------------------------------------
 BYTE   PATT
  POIN2 Label_0100563C
//  #05 //045   ----------------------------------------
 BYTE   PATT
  POIN2 Label_0100563C
//  #05 //046   ----------------------------------------
 BYTE   PATT
  POIN2 Label_01005618
//  #05 //047   ----------------------------------------
 BYTE   W96
//  #05 //048   ----------------------------------------
 BYTE   PATT
  POIN2 Label_01005618
//  #05 //049   ----------------------------------------
 BYTE   PATT
  POIN2 Label_01005618
//  #05 //050   ----------------------------------------
 BYTE   PATT
  POIN2 Label_01005618
//  #05 //051   ----------------------------------------
 BYTE   PATT
  POIN2 Label_01005618
//  #05 //052   ----------------------------------------
 BYTE   PATT
  POIN2 Label_0100563C
//  #05 //053   ----------------------------------------
 BYTE   PATT
  POIN2 Label_0100563C
//  #05 //054   ----------------------------------------
 BYTE   PATT
  POIN2 Label_01005618
//  #05 //055   ----------------------------------------
 BYTE   W96
//  #05 //056   ----------------------------------------
 BYTE   PATT
  POIN2 Label_0100563C
//  #05 //057   ----------------------------------------
 BYTE   PATT
  POIN2 Label_0100563C
//  #05 //058   ----------------------------------------
 BYTE   PATT
  POIN2 Label_01005618
//  #05 //059   ----------------------------------------
 BYTE   PATT
  POIN2 Label_01005618
//  #05 //060   ----------------------------------------
 BYTE   PATT
  POIN2 Label_01005618
//  #05 //061   ----------------------------------------
 BYTE   PATT
  POIN2 Label_01005618
//  #05 //062   ----------------------------------------
 BYTE   W96
//  #05 //063   ----------------------------------------
 BYTE   W96
//  #05 //064   ----------------------------------------
 BYTE   PATT
  POIN2 Label_01005618
//  #05 //065   ----------------------------------------
 BYTE   PATT
  POIN2 Label_0100563C
//  #05 //066   ----------------------------------------
 BYTE   PATT
  POIN2 Label_01005618
//  #05 //067   ----------------------------------------
 BYTE   PATT
  POIN2 Label_0100563C
//  #05 //068   ----------------------------------------
 BYTE   PATT
  POIN2 Label_01005618
//  #05 //069   ----------------------------------------
 BYTE   PATT
  POIN2 Label_010056B9
//  #05 //070   ----------------------------------------
 BYTE   PATT
  POIN2 Label_01005618
//  #05 //071   ----------------------------------------
 BYTE   W96
//  #05 //072   ----------------------------------------
 BYTE   PATT
  POIN2 Label_01005604
//  #05 //073   ----------------------------------------
 BYTE   PATT
  POIN2 Label_010055F0
//  #05 //074   ----------------------------------------
 BYTE   PATT
  POIN2 Label_01005604
//  #05 //075   ----------------------------------------
 BYTE   W96
//  #05 //076   ----------------------------------------
 BYTE   GoTo
  POIN2 Label_01005618
//  #05 //077   ----------------------------------------
 BYTE   W13
 BYTE   FINE

//**************** Track 6 (Midi-Chn.5) ****************//

JokingMotive_006:
//  #06 //000   ----------------------------------------
 BYTE   KEYSH   JokingMotive_key+0
 BYTE   VOICE   74
 BYTE   VOL   41*JokingMotive_mvl/mxv
 BYTE   PAN   c_v+0
 BYTE   BEND   c_v+0
 BYTE   W96
//  #06 //001   ----------------------------------------
 BYTE   W96
//  #06 //002   ----------------------------------------
 BYTE   W96
//  #06 //003   ----------------------------------------
Label_01007E15:
 BYTE   W12
 BYTE   N03  An3  v112
 BYTE   W12
 BYTE   N03
 BYTE   W12
 BYTE   An3  v116
 BYTE   W12
 BYTE   N12  An3  v120
 BYTE   W12
 BYTE   N10  Gn3  v112
 BYTE   W12
 BYTE   N04  An3  v116
 BYTE   W12
 BYTE   N24  As3  v120
 BYTE   W02
 BYTE   BEND   c_v+22
 BYTE   W01
 BYTE   BEND   c_v+37
 BYTE   W01
 BYTE   BEND   c_v+63
 BYTE   W08
 BYTE   PEND 
//  #06 //004   ----------------------------------------
Label_01007E37:
 BYTE   W14
 BYTE   BEND   c_v+58
 BYTE   W01
 BYTE   BEND   c_v+0
 BYTE   W80
 BYTE   W01
 BYTE   PEND 
//  #06 //005   ----------------------------------------
Label_01007E3F:
 BYTE   W12
 BYTE   N03  An3  v112
 BYTE   W12
 BYTE   An3  v116
 BYTE   W12
 BYTE   N03
 BYTE   W12
 BYTE   N11
 BYTE   W12
 BYTE   N12  Gn3  v108
 BYTE   W12
 BYTE   N04  An3  v112
 BYTE   W12
 BYTE   N23  Dn4  v116
 BYTE   W01
 BYTE   BEND   c_v+3
 BYTE   W01
 BYTE   BEND   c_v+17
 BYTE   W01
 BYTE   BEND   c_v+37
 BYTE   W01
 BYTE   BEND   c_v+47
 BYTE   W01
 BYTE   BEND   c_v+55
 BYTE   W01
 BYTE   BEND   c_v+63
 BYTE   W06
 BYTE   PEND 
//  #06 //006   ----------------------------------------
 BYTE   W06
 BYTE   Fn7
 BYTE   W01
 BYTE   Gn3
 BYTE   W01
 BYTE   En3
 BYTE   W04
 BYTE   N15
 BYTE   W24
 BYTE   N23  Cn4  v120
 BYTE   W60
//  #06 //007   ----------------------------------------
 BYTE   W36
 BYTE   N03  An3  v112
 BYTE   W12
 BYTE   N21  Dn4  v116
 BYTE   W02
 BYTE   BEND   c_v+1
 BYTE   W01
 BYTE   BEND   c_v+14
 BYTE   W01
 BYTE   BEND   c_v+38
 BYTE   W01
 BYTE   BEND   c_v+55
 BYTE   W01
 BYTE   BEND   c_v+63
 BYTE   W07
 BYTE   BEND   c_v+62
 BYTE   W01
 BYTE   BEND   c_v+46
 BYTE   W01
 BYTE   BEND   c_v+8
 BYTE   W01
 BYTE   BEND   c_v+0
 BYTE   W08
 BYTE   N16  Cn4  v120
 BYTE   W24
//  #06 //008   ----------------------------------------
 BYTE   N13  Dn4  v116
 BYTE   W12
 BYTE   N04  En4  v112
 BYTE   W12
 BYTE   N03  An3
 BYTE   W12
 BYTE   N23  Cn4  v120
 BYTE   W24
 BYTE   N06  Dn4  v116
 BYTE   W36
//  #06 //009   ----------------------------------------
 BYTE   W17
 BYTE   BEND   c_v-3
 BYTE   W01
 BYTE   BEND   c_v-15
 BYTE   W01
 BYTE   BEND   c_v-34
 BYTE   W01
 BYTE   BEND   c_v-44
 BYTE   W01
 BYTE   BEND   c_v-51
 BYTE   W02
 BYTE   BEND   c_v-48
 BYTE   W01
 BYTE   BEND   c_v-37
 BYTE   N15  En4  v120
 BYTE   W01
 BYTE   BEND   c_v-29
 BYTE   W01
 BYTE   BEND   c_v-19
 BYTE   W01
 BYTE   BEND   c_v-12
 BYTE   W01
 BYTE   BEND   c_v-3
 BYTE   W01
 BYTE   BEND   c_v+0
 BYTE   W19
 BYTE   N10  Gn4  v116
 BYTE   W12
 BYTE   N05  En4
 BYTE   W12
 BYTE   N12  Dn4
 BYTE   W12
 BYTE   N04  Cn4  v108
 BYTE   W08
 BYTE   BEND   c_v-14
 BYTE   W01
 BYTE   BEND   c_v-28
 BYTE   W01
 BYTE   BEND   c_v-42
 BYTE   W01
 BYTE   BEND   c_v-51
 BYTE   W01
//  #06 //010   ----------------------------------------
 BYTE   BEND   c_v-58
 BYTE   N13  Dn4  v116
 BYTE   W01
 BYTE   BEND   c_v-54
 BYTE   W01
 BYTE   BEND   c_v-48
 BYTE   W01
 BYTE   BEND   c_v-44
 BYTE   W01
 BYTE   BEND   c_v-33
 BYTE   W01
 BYTE   BEND   c_v-24
 BYTE   W01
 BYTE   BEND   c_v+0
 BYTE   W06
 BYTE   N04  Cn4  v112
 BYTE   W12
 BYTE   N14  Cn4  v108
 BYTE   W12
 BYTE   N36  An3
 BYTE   W60
//  #06 //011   ----------------------------------------
 BYTE   PATT
  POIN2 Label_01007E15
//  #06 //012   ----------------------------------------
 BYTE   PATT
  POIN2 Label_01007E37
//  #06 //013   ----------------------------------------
 BYTE   PATT
  POIN2 Label_01007E3F
//  #06 //014   ----------------------------------------
 BYTE   W06
 BYTE   BEND   c_v+49
 BYTE   W01
 BYTE   BEND   c_v+3
 BYTE   W01
 BYTE   BEND   c_v+0
 BYTE   W04
 BYTE   N15  Dn4  v116
 BYTE   W24
 BYTE   N22  Cn4
 BYTE   W24
 BYTE   N08  Dn4  v108
 BYTE   W06
 BYTE   N10  En4  v116
 BYTE   W30
//  #06 //015   ----------------------------------------
 BYTE   W12
 BYTE   N03  Gn4  v112
 BYTE   W12
 BYTE   N03
 BYTE   W12
 BYTE   N04  Gn4  v116
 BYTE   W12
 BYTE   N04
 BYTE   W12
 BYTE   N04
 BYTE   W12
 BYTE   N03  Gn4  v120
 BYTE   W12
 BYTE   N24
 BYTE   W12
//  #06 //016   ----------------------------------------
 BYTE   W12
 BYTE   N05  An4  v116
 BYTE   W22
 BYTE   BEND   c_v-4
 BYTE   W01
 BYTE   BEND   c_v-18
 BYTE   W01
 BYTE   BEND   c_v-24
 BYTE   N21  Ds4  v120
 BYTE   W01
 BYTE   BEND   c_v-28
 BYTE   W03
 BYTE   BEND   c_v-21
 BYTE   W01
 BYTE   BEND   c_v-15
 BYTE   W01
 BYTE   BEND   c_v-1
 BYTE   W01
 BYTE   BEND   c_v+0
 BYTE   W17
 BYTE   N05  Dn4  v112
 BYTE   W12
 BYTE   N04  Cn4  v116
 BYTE   W12
 BYTE   N23  Dn4  v120
 BYTE   W03
 BYTE   BEND   c_v-1
 BYTE   W01
 BYTE   BEND   c_v-3
 BYTE   W02
 BYTE   BEND   c_v-1
 BYTE   W01
 BYTE   BEND   c_v+0
 BYTE   W05
//  #06 //017   ----------------------------------------
 BYTE   W12
 BYTE   N05  An3  v108
 BYTE   W24
 BYTE   N05
 BYTE   W12
 BYTE   N06
 BYTE   W12
 BYTE   N04  An3  v112
 BYTE   W12
 BYTE   N14  Cn4  v116
 BYTE   W12
 BYTE   N05  Dn4
 BYTE   W10
 BYTE   BEND   c_v-15
 BYTE   W01
 BYTE   BEND   c_v-36
 BYTE   W01
//  #06 //018   ----------------------------------------
 BYTE   BEND   c_v-46
 BYTE   N13  Ds4  v120
 BYTE   W01
 BYTE   BEND   c_v-49
 BYTE   W02
 BYTE   BEND   c_v-45
 BYTE   W01
 BYTE   BEND   c_v-33
 BYTE   W01
 BYTE   BEND   c_v-24
 BYTE   W01
 BYTE   BEND   c_v-16
 BYTE   W01
 BYTE   BEND   c_v-4
 BYTE   W01
 BYTE   BEND   c_v+0
 BYTE   W04
 BYTE   N09  Dn4  v116
 BYTE   W12
 BYTE   N08  Cn4  v120
 BYTE   W12
 BYTE   N54  An3  v116
 BYTE   W60
//  #06 //019   ----------------------------------------
 BYTE   W12
 BYTE   N04  An3  v112
 BYTE   W12
 BYTE   N13  An3  v116
 BYTE   W12
 BYTE   N05  Cn4  v108
 BYTE   W12
 BYTE   N12  Cn4  v120
 BYTE   W12
 BYTE   N06  Dn4  v112
 BYTE   W12
 BYTE   En4  v120
 BYTE   W12
 BYTE   N05  Gn4
 BYTE   W12
//  #06 //020   ----------------------------------------
Label_01007FB5:
 BYTE   N24  Gn4  v120
 BYTE   W15
 BYTE   BEND   c_v+12
 BYTE   W01
 BYTE   BEND   c_v+28
 BYTE   W01
 BYTE   BEND   c_v+46
 BYTE   W01
 BYTE   BEND   c_v+63
 BYTE   W08
 BYTE   BEND   c_v+62
 BYTE   W01
 BYTE   BEND   c_v+54
 BYTE   W01
 BYTE   BEND   c_v+0
 BYTE   W68
 BYTE   PEND 
//  #06 //021   ----------------------------------------
Label_01007FC9:
 BYTE   W07
 BYTE   BEND   c_v-2
 BYTE   W01
 BYTE   BEND   c_v-11
 BYTE   W01
 BYTE   BEND   c_v-24
 BYTE   W01
 BYTE   BEND   c_v-32
 BYTE   W01
 BYTE   BEND   c_v-37
 BYTE   W01
 BYTE   BEND   c_v-40
 BYTE   N12  Cn5  v120
 BYTE   W02
 BYTE   BEND   c_v-36
 BYTE   W01
 BYTE   BEND   c_v-21
 BYTE   W01
 BYTE   BEND   c_v-2
 BYTE   W01
 BYTE   BEND   c_v+0
 BYTE   W19
 BYTE   N07  An4
 BYTE   W24
 BYTE   N04  Gn4  v116
 BYTE   W12
 BYTE   N12  En4
 BYTE   W12
 BYTE   N04  Dn4  v112
 BYTE   W12
 BYTE   PEND 
//  #06 //022   ----------------------------------------
Label_01007FF2:
 BYTE   N17  En4  v120
 BYTE   W24
 BYTE   N07
 BYTE   W72
 BYTE   PEND 
//  #06 //023   ----------------------------------------
Label_01007FF9:
 BYTE   W12
 BYTE   N18  Dn4  v116
 BYTE   W03
 BYTE   BEND   c_v+22
 BYTE   W01
 BYTE   BEND   c_v+36
 BYTE   W01
 BYTE   BEND   c_v+48
 BYTE   W01
 BYTE   BEND   c_v+63
 BYTE   W05
 BYTE   BEND   c_v+54
 BYTE   W01
 BYTE   BEND   c_v+43
 BYTE   W01
 BYTE   BEND   c_v+23
 BYTE   W01
 BYTE   BEND   c_v+11
 BYTE   W01
 BYTE   BEND   c_v+0
 BYTE   W09
 BYTE   N11  Dn4  v112
 BYTE   W01
 BYTE   BEND   c_v+13
 BYTE   W01
 BYTE   BEND   c_v+28
 BYTE   W01
 BYTE   BEND   c_v+49
 BYTE   W01
 BYTE   BEND   c_v+62
 BYTE   W01
 BYTE   BEND   c_v+63
 BYTE   W06
 BYTE   BEND   c_v+62
 BYTE   W01
 BYTE   BEND   c_v+53
 BYTE   N13
 BYTE   W01
 BYTE   BEND   c_v+0
 BYTE   W11
 BYTE   N05  Cn4
 BYTE   W12
 BYTE   N10  Dn4  v116
 BYTE   W12
 BYTE   N04  Cn4
 BYTE   W12
 BYTE   PEND 
//  #06 //024   ----------------------------------------
Label_01008033:
 BYTE   N12  Dn4  v120
 BYTE   W12
 BYTE   N05  En4  v116
 BYTE   W12
 BYTE   N11  Gn4  v120
 BYTE   W12
 BYTE   N15  An4
 BYTE   W60
 BYTE   PEND 
//  #06 //025   ----------------------------------------
Label_01008043:
 BYTE   W12
 BYTE   N04  Gn4  v108
 BYTE   W12
 BYTE   N09  An4  v116
 BYTE   W12
 BYTE   N04  Gn4
 BYTE   W12
 BYTE   N11  An4  v120
 BYTE   W12
 BYTE   N05  Gn4  v112
 BYTE   W12
 BYTE   An4  v120
 BYTE   W12
 BYTE   TIE  Cn5
 BYTE   W05
 BYTE   BEND   c_v+2
 BYTE   W02
 BYTE   BEND   c_v+4
 BYTE   W04
 BYTE   BEND   c_v+0
 BYTE   W01
 BYTE   PEND 
//  #06 //026   ----------------------------------------
Label_01008065:
 BYTE   W52
 BYTE   W01
 BYTE   MOD 1
 BYTE   W01
 BYTE   MOD 6
 BYTE   W02
 BYTE   MOD 9
 BYTE   W01
 BYTE   MOD 15
 BYTE   W01
 BYTE   MOD 17
 BYTE   W01
 BYTE   MOD 21
 BYTE   W01
 BYTE   MOD 26
 BYTE   W01
 BYTE   MOD 29
 BYTE   W01
 BYTE   MOD 33
 BYTE   W01
 BYTE   MOD 36
 BYTE   W01
 BYTE   MOD 44
 BYTE   W01
 BYTE   MOD 48
 BYTE   W01
 BYTE   MOD 52
 BYTE   W01
 BYTE   MOD 60
 BYTE   W01
 BYTE   MOD 65
 BYTE   W01
 BYTE   MOD 72
 BYTE   W01
 BYTE   MOD 77
 BYTE   W01
 BYTE   MOD 82
 BYTE   W01
 BYTE   MOD 90
 BYTE   W01
 BYTE   MOD 94
 BYTE   W01
 BYTE   MOD 100
 BYTE   W01
 BYTE   MOD 103
 BYTE   W01
 BYTE   MOD 106
 BYTE   W01
 BYTE   MOD 108
 BYTE   W01
 BYTE   MOD 110
 BYTE   W01
 BYTE   MOD 113
 BYTE   W01
 BYTE   MOD 115
 BYTE   W01
 BYTE   MOD 117
 BYTE   W02
 BYTE   MOD 120
 BYTE   W01
 BYTE   MOD 122
 BYTE   W02
 BYTE   MOD 124
 BYTE   W04
 BYTE   MOD 118
 BYTE   W01
 BYTE   MOD 104
 BYTE   W01
 BYTE   MOD 90
 BYTE   W01
 BYTE   MOD 72
 BYTE   W01
 BYTE   MOD 42
 BYTE   W01
 BYTE   MOD 21
 BYTE   W01
 BYTE   PEND 
//  #06 //027   ----------------------------------------
 BYTE   CsM2
 BYTE   W01
 BYTE   CnM2
 BYTE   W05
 BYTE   EOT
 BYTE   Cn5
 BYTE   W03
 BYTE   BEND   c_v-4
 BYTE   W01
 BYTE   BEND   c_v-18
 BYTE   W02
 BYTE   N06  An4  v116
 BYTE   W02
 BYTE   BEND   c_v-8
 BYTE   W01
 BYTE   BEND   c_v+0
 BYTE   W09
 BYTE   N13  Gn4  v120
 BYTE   W12
 BYTE   N04  An4  v116
 BYTE   W08
 BYTE   BEND   c_v-8
 BYTE   W01
 BYTE   BEND   c_v-25
 BYTE   W01
 BYTE   BEND   c_v-42
 BYTE   W01
 BYTE   BEND   c_v-64
 BYTE   W01
 BYTE   N10  Ds4  v120
 BYTE   W02
 BYTE   BEND   c_v-61
 BYTE   W01
 BYTE   BEND   c_v-53
 BYTE   W01
 BYTE   BEND   c_v-36
 BYTE   W01
 BYTE   BEND   c_v-23
 BYTE   W01
 BYTE   BEND   c_v-4
 BYTE   W01
 BYTE   BEND   c_v+0
 BYTE   W05
 BYTE   N06  Dn4  v108
 BYTE   W12
 BYTE   N14  Cn4  v120
 BYTE   W24
//  #06 //028   ----------------------------------------
Label_010080F2:
 BYTE   N05  En4  v116
 BYTE   W12
 BYTE   N04
 BYTE   W12
 BYTE   N04
 BYTE   W12
 BYTE   N04
 BYTE   W12
 BYTE   N09  Gn4  v120
 BYTE   W24
 BYTE   N14  En4  v116
 BYTE   W12
 BYTE   N12  Dn4  v112
 BYTE   W12
 BYTE   PEND 
//  #06 //029   ----------------------------------------
Label_01008109:
 BYTE   W12
 BYTE   N04  Cn4  v116
 BYTE   W12
 BYTE   N12  Dn4
 BYTE   W12
 BYTE   N04  Cn4  v112
 BYTE   W12
 BYTE   N13  Dn4  v116
 BYTE   W12
 BYTE   N08  En4  v120
 BYTE   W36
 BYTE   PEND 
//  #06 //030   ----------------------------------------
Label_0100811E:
 BYTE   N04  En4  v116
 BYTE   W12
 BYTE   N04
 BYTE   W12
 BYTE   N04
 BYTE   W12
 BYTE   En4  v108
 BYTE   W12
 BYTE   N24  Gn4  v120
 BYTE   W14
 BYTE   BEND   c_v+16
 BYTE   W01
 BYTE   BEND   c_v+32
 BYTE   W01
 BYTE   BEND   c_v+53
 BYTE   W01
 BYTE   BEND   c_v+63
 BYTE   W07
 BYTE   BEND   c_v+57
 BYTE   W01
 BYTE   BEND   c_v+44
 BYTE   W01
 BYTE   BEND   c_v+0
 BYTE   W10
 BYTE   N10  En4  v116
 BYTE   W12
 BYTE   PEND 
//  #06 //031   ----------------------------------------
Label_01008141:
 BYTE   W12
 BYTE   N04  Dn4  v112
 BYTE   W12
 BYTE   N12
 BYTE   W12
 BYTE   N05  Cn4
 BYTE   W12
 BYTE   N13  Dn4  v120
 BYTE   W12
 BYTE   N11  Cn4  v116
 BYTE   W36
 BYTE   PEND 
//  #06 //032   ----------------------------------------
Label_01008154:
 BYTE   W36
 BYTE   N03  En4  v112
 BYTE   W12
 BYTE   N36  Gn4  v120
 BYTE   W02
 BYTE   BEND   c_v+14
 BYTE   W01
 BYTE   BEND   c_v+34
 BYTE   W01
 BYTE   BEND   c_v+59
 BYTE   W01
 BYTE   BEND   c_v+63
 BYTE   W14
 BYTE   BEND   c_v+52
 BYTE   W01
 BYTE   BEND   c_v+0
 BYTE   W16
 BYTE   N14  En4
 BYTE   W12
 BYTE   PEND 
//  #06 //033   ----------------------------------------
Label_0100816E:
 BYTE   W12
 BYTE   N04  Dn4  v116
 BYTE   W12
 BYTE   N12  Dn4  v108
 BYTE   W12
 BYTE   N06  Cn4  v112
 BYTE   W12
 BYTE   N12  Dn4  v116
 BYTE   W12
 BYTE   N07  Cn4  v108
 BYTE   W12
 BYTE   N06  Dn4  v116
 BYTE   W12
 BYTE   Dn4  v112
 BYTE   W12
 BYTE   PEND 
//  #06 //034   ----------------------------------------
Label_0100818B:
 BYTE   N15  En4  v120
 BYTE   W12
 BYTE   N05  Dn4  v116
 BYTE   W12
 BYTE   N07  Cn4  v108
 BYTE   W12
 BYTE   N56  An3  v116
 BYTE   W60
 BYTE   PEND 
//  #06 //035   ----------------------------------------
Label_0100819C:
 BYTE   W20
 BYTE   BEND   c_v-4
 BYTE   W01
 BYTE   BEND   c_v-12
 BYTE   W01
 BYTE   BEND   c_v-28
 BYTE   W01
 BYTE   BEND   c_v-38
 BYTE   W01
 BYTE   BEND   c_v-51
 BYTE   N15  En4  v120
 BYTE   W04
 BYTE   BEND   c_v-48
 BYTE   W01
 BYTE   BEND   c_v-41
 BYTE   W01
 BYTE   BEND   c_v-28
 BYTE   W01
 BYTE   BEND   c_v-19
 BYTE   W01
 BYTE   BEND   c_v-8
 BYTE   W01
 BYTE   BEND   c_v-1
 BYTE   W01
 BYTE   BEND   c_v+0
 BYTE   W14
 BYTE   N10  Dn4  v116
 BYTE   W12
 BYTE   N05  Cn4  v108
 BYTE   W12
 BYTE   N11  Dn4  v120
 BYTE   W12
 BYTE   N05  Cn4  v116
 BYTE   W12
 BYTE   PEND 
//  #06 //036   ----------------------------------------
 BYTE   N23  An3
 BYTE   W96
//  #06 //037   ----------------------------------------
 BYTE   W96
//  #06 //038   ----------------------------------------
 BYTE   W96
//  #06 //039   ----------------------------------------
 BYTE   W84
 BYTE   N07  Dn4  v112
 BYTE   W06
 BYTE   N08  Ds4
 BYTE   W06
//  #06 //040   ----------------------------------------
 BYTE   En4
 BYTE   W06
 BYTE   Gn4  v116
 BYTE   W06
 BYTE   N09  En4  v108
 BYTE   W06
 BYTE   N07  Ds4  v112
 BYTE   W06
 BYTE   N08  Dn4
 BYTE   W06
 BYTE   Ds4  v108
 BYTE   W06
 BYTE   En4  v116
 BYTE   W06
 BYTE   N07  Gn4  v120
 BYTE   W06
 BYTE   N08  En4  v100
 BYTE   W06
 BYTE   N06  Ds4  v108
 BYTE   W06
 BYTE   N07  Dn4  v116
 BYTE   W06
 BYTE   N06  Ds4  v104
 BYTE   W06
 BYTE   N09  En4  v112
 BYTE   W06
 BYTE   N07  Gn4  v116
 BYTE   W06
 BYTE   En4  v112
 BYTE   W06
 BYTE   N06  Ds4
 BYTE   W06
//  #06 //041   ----------------------------------------
 BYTE   Dn4
 BYTE   W06
 BYTE   N07  Ds4  v100
 BYTE   W06
 BYTE   En4  v116
 BYTE   W06
 BYTE   N06  Gn4  v120
 BYTE   W06
 BYTE   N08  En4  v108
 BYTE   W06
 BYTE   N05  Ds4  v112
 BYTE   W06
 BYTE   N07  Dn4
 BYTE   W06
 BYTE   Ds4
 BYTE   W06
 BYTE   N08  En4  v116
 BYTE   W06
 BYTE   N07  Gn4  v120
 BYTE   W06
 BYTE   N08  En4  v112
 BYTE   W06
 BYTE   N05  Ds4  v108
 BYTE   W06
 BYTE   N06  Dn4
 BYTE   W06
 BYTE   N07  Ds4  v100
 BYTE   W06
 BYTE   En4  v116
 BYTE   W06
 BYTE   Gn4  v120
 BYTE   W06
//  #06 //042   ----------------------------------------
 BYTE   En4  v108
 BYTE   W06
 BYTE   Ds4  v112
 BYTE   W06
 BYTE   N08  Dn4  v120
 BYTE   W06
 BYTE   N06  Ds4  v112
 BYTE   W06
 BYTE   N08  En4  v116
 BYTE   W06
 BYTE   N07  Gn4  v120
 BYTE   W06
 BYTE   N08  En4  v112
 BYTE   W06
 BYTE   N06  Ds4
 BYTE   W06
 BYTE   N07  Dn4  v120
 BYTE   W06
 BYTE   N06  Ds4  v116
 BYTE   W06
 BYTE   N08  En4
 BYTE   W06
 BYTE   N07  Gn4  v120
 BYTE   W06
 BYTE   N08  En4  v108
 BYTE   W06
 BYTE   N06  Ds4  v112
 BYTE   W06
 BYTE   N07  Dn4  v116
 BYTE   W06
 BYTE   Ds4  v104
 BYTE   W06
//  #06 //043   ----------------------------------------
 BYTE   N08  En4  v120
 BYTE   W06
 BYTE   N04  Gn4
 BYTE   W06
 BYTE   BEND   c_v-1
 BYTE   N40  An4  v124
 BYTE   W01
 BYTE   BEND   c_v-50
 BYTE   W01
 BYTE   BEND   c_v-49
 BYTE   W01
 BYTE   BEND   c_v-52
 BYTE   W01
 BYTE   BEND   c_v-53
 BYTE   W01
 BYTE   BEND   c_v-49
 BYTE   W01
 BYTE   BEND   c_v-39
 BYTE   W01
 BYTE   BEND   c_v-21
 BYTE   W01
 BYTE   BEND   c_v-4
 BYTE   W01
 BYTE   BEND   c_v+0
 BYTE   W12
 BYTE   MOD 6
 BYTE   W01
 BYTE   MOD 18
 BYTE   W02
 BYTE   MOD 32
 BYTE   W02
 BYTE   MOD 49
 BYTE   W02
 BYTE   MOD 57
 BYTE   W01
 BYTE   MOD 66
 BYTE   W01
 BYTE   MOD 74
 BYTE   W01
 BYTE   MOD 85
 BYTE   W03
 BYTE   MOD 93
 BYTE   W04
 BYTE   MOD 100
 BYTE   W03
 BYTE   MOD 90
 BYTE   W01
 BYTE   MOD 27
 BYTE   W01
 BYTE   MOD 0
 BYTE   W05
 BYTE   N02  Gn4  v120
 BYTE   W12
 BYTE   N06  En4
 BYTE   W06
 BYTE   N05  Dn4
 BYTE   W06
 BYTE   N04  Cn4
 BYTE   W12
//  #06 //044   ----------------------------------------
 BYTE   N15  Dn4  v124
 BYTE   W03
 BYTE   MOD 1
 BYTE   W01
 BYTE   MOD 59
 BYTE   W01
 BYTE   MOD 97
 BYTE   W01
 BYTE   MOD 127
 BYTE   W06
 BYTE   N04  Cn4  v120
 BYTE   W01
 BYTE   MOD 111
 BYTE   W01
 BYTE   MOD 25
 BYTE   W01
 BYTE   MOD 0
 BYTE   W09
 BYTE   N11
 BYTE   W12
 BYTE   N05  An3  v124
 BYTE   W48
 BYTE   Gn3  v120
 BYTE   W06
 BYTE   N06  An3  v116
 BYTE   W06
//  #06 //045   ----------------------------------------
 BYTE   N12  Cn4  v124
 BYTE   W12
 BYTE   N04  An3  v116
 BYTE   W12
 BYTE   N12  An3  v127
 BYTE   W12
 BYTE   N02  Gn3  v120
 BYTE   W12
 BYTE   N09  An3  v124
 BYTE   W10
 BYTE   BEND   c_v-6
 BYTE   W01
 BYTE   BEND   c_v-33
 BYTE   W01
 BYTE   BEND   c_v-48
 BYTE   W01
 BYTE   BEND   c_v-52
 BYTE   W01
 BYTE   BEND   c_v-55
 BYTE   W01
 BYTE   BEND   c_v-57
 BYTE   W01
 BYTE   BEND   c_v-56
 BYTE   W01
 BYTE   BEND   c_v-52
 BYTE   W01
 BYTE   BEND   c_v-45
 BYTE   W01
 BYTE   BEND   c_v-34
 BYTE   W01
 BYTE   BEND   c_v-23
 BYTE   W01
 BYTE   BEND   c_v+0
 BYTE   W03
 BYTE   N06  Ds3  v120
 BYTE   W06
 BYTE   N07  Dn3
 BYTE   W06
 BYTE   N04  Cn3  v116
 BYTE   W12
//  #06 //046   ----------------------------------------
 BYTE   N13  Dn3  v124
 BYTE   W09
 BYTE   MOD 13
 BYTE   W01
 BYTE   MOD 23
 BYTE   W01
 BYTE   MOD 30
 BYTE   W01
 BYTE   MOD 8
 BYTE   N04  Cn3  v116
 BYTE   W01
 BYTE   MOD 0
 BYTE   W11
 BYTE   N56  An2  v112
 BYTE   W12
 BYTE   MOD 13
 BYTE   W01
 BYTE   MOD 22
 BYTE   W01
 BYTE   MOD 52
 BYTE   W01
 BYTE   MOD 64
 BYTE   W02
 BYTE   MOD 79
 BYTE   W01
 BYTE   MOD 89
 BYTE   W02
 BYTE   MOD 99
 BYTE   W01
 BYTE   MOD 116
 BYTE   W02
 BYTE   MOD 127
 BYTE   W32
 BYTE   W02
 BYTE   MOD 110
 BYTE   W01
 BYTE   MOD 83
 BYTE   W01
 BYTE   MOD 27
 BYTE   W01
 BYTE   MOD 0
 BYTE   N04  Cn3  v124
 BYTE   W12
//  #06 //047   ----------------------------------------
 BYTE   W12
 BYTE   Dn3
 BYTE   W24
 BYTE   N03  Ds3  v120
 BYTE   W24
 BYTE   N04  En3  v124
 BYTE   W12
 BYTE   N13  Gn3  v127
 BYTE   W12
 BYTE   N03  An3  v124
 BYTE   W07
 BYTE   BEND   c_v-36
 BYTE   W01
 BYTE   BEND   c_v-64
 BYTE   W04
//  #06 //048   ----------------------------------------
 BYTE   N56  Dn4  v127
 BYTE   W01
 BYTE   BEND   c_v-62
 BYTE   W01
 BYTE   BEND   c_v-48
 BYTE   W01
 BYTE   BEND   c_v-32
 BYTE   W01
 BYTE   BEND   c_v-15
 BYTE   W01
 BYTE   BEND   c_v+0
 BYTE   W24
 BYTE   W02
 BYTE   MOD 2
 BYTE   W01
 BYTE   MOD 16
 BYTE   W01
 BYTE   MOD 29
 BYTE   W01
 BYTE   MOD 41
 BYTE   W01
 BYTE   MOD 65
 BYTE   W01
 BYTE   MOD 72
 BYTE   W01
 BYTE   MOD 82
 BYTE   W02
 BYTE   MOD 93
 BYTE   W02
 BYTE   MOD 110
 BYTE   W01
 BYTE   MOD 116
 BYTE   W01
 BYTE   MOD 127
 BYTE   W15
 BYTE   MOD 95
 BYTE   W01
 BYTE   MOD 46
 BYTE   W01
 BYTE   MOD 0
 BYTE   N02  Cn4  v120
 BYTE   W12
 BYTE   N15  Cn4  v127
 BYTE   W12
 BYTE   N05  Dn4  v124
 BYTE   W12
//  #06 //049   ----------------------------------------
 BYTE   W12
 BYTE   An3  v127
 BYTE   W24
 BYTE   N04  En3  v120
 BYTE   W12
 BYTE   N05
 BYTE   W06
 BYTE   N08  Gn3
 BYTE   W06
 BYTE   N03  An3  v124
 BYTE   W12
 BYTE   N13  Cn4
 BYTE   W12
 BYTE   N03  An3
 BYTE   W08
 BYTE   BEND   c_v-34
 BYTE   W01
 BYTE   BEND   c_v-51
 BYTE   W01
 BYTE   BEND   c_v-53
 BYTE   W01
 BYTE   BEND   c_v-52
 BYTE   W01
//  #06 //050   ----------------------------------------
 BYTE   N60  Dn4  v127
 BYTE   W01
 BYTE   BEND   c_v-46
 BYTE   W01
 BYTE   BEND   c_v-27
 BYTE   W01
 BYTE   BEND   c_v-12
 BYTE   W01
 BYTE   BEND   c_v+0
 BYTE   W19
 BYTE   MOD 10
 BYTE   W01
 BYTE   MOD 23
 BYTE   W01
 BYTE   MOD 43
 BYTE   W01
 BYTE   MOD 55
 BYTE   W01
 BYTE   MOD 70
 BYTE   W01
 BYTE   MOD 89
 BYTE   W01
 BYTE   MOD 99
 BYTE   W01
 BYTE   MOD 116
 BYTE   W01
 BYTE   MOD 127
 BYTE   W16
 BYTE   MOD 117
 BYTE   W01
 BYTE   MOD 99
 BYTE   W01
 BYTE   MOD 84
 BYTE   W01
 BYTE   MOD 67
 BYTE   W01
 BYTE   MOD 22
 BYTE   W01
 BYTE   MOD 7
 BYTE   W01
 BYTE   MOD 0
 BYTE   W07
 BYTE   N04  Cn4  v116
 BYTE   W12
 BYTE   N13  Cn4  v124
 BYTE   W12
 BYTE   Dn4
 BYTE   W12
//  #06 //051   ----------------------------------------
 BYTE   W06
 BYTE   BEND   c_v-26
 BYTE   W01
 BYTE   BEND   c_v-43
 BYTE   W01
 BYTE   BEND   c_v-48
 BYTE   W01
 BYTE   BEND   c_v-53
 BYTE   W01
 BYTE   BEND   c_v-57
 BYTE   W01
 BYTE   BEND   c_v-63
 BYTE   W01
 BYTE   BEND   c_v-60
 BYTE   N17  En4  v127
 BYTE   W01
 BYTE   BEND   c_v-56
 BYTE   W01
 BYTE   BEND   c_v-52
 BYTE   W01
 BYTE   BEND   c_v-45
 BYTE   W01
 BYTE   BEND   c_v-39
 BYTE   W01
 BYTE   BEND   c_v-29
 BYTE   W01
 BYTE   BEND   c_v-3
 BYTE   W01
 BYTE   BEND   c_v+0
 BYTE   W17
 BYTE   N03  Dn4  v124
 BYTE   W12
 BYTE   N13  Cn4  v127
 BYTE   W12
 BYTE   N02  Dn4  v120
 BYTE   W12
 BYTE   N12  Dn4  v124
 BYTE   W12
 BYTE   N14  An3
 BYTE   W12
//  #06 //052   ----------------------------------------
 BYTE   W06
 BYTE   BEND   c_v-19
 BYTE   W01
 BYTE   BEND   c_v-54
 BYTE   W01
 BYTE   BEND   c_v-64
 BYTE   W04
 BYTE   BEND   c_v-56
 BYTE   N18  En4
 BYTE   W01
 BYTE   BEND   c_v-46
 BYTE   W01
 BYTE   BEND   c_v-35
 BYTE   W01
 BYTE   BEND   c_v-25
 BYTE   W01
 BYTE   BEND   c_v-6
 BYTE   W01
 BYTE   BEND   c_v+0
 BYTE   W19
 BYTE   N05  Dn4  v120
 BYTE   W12
 BYTE   N13  Cn4  v124
 BYTE   W12
 BYTE   N11  Dn4
 BYTE   W16
 BYTE   BEND   c_v-4
 BYTE   W01
 BYTE   BEND   c_v-41
 BYTE   W01
 BYTE   BEND   c_v-62
 BYTE   W01
 BYTE   BEND   c_v-64
 BYTE   W02
 BYTE   BEND   c_v-64
 BYTE   W01
 BYTE   BEND   c_v-64
 BYTE   W01
 BYTE   BEND   c_v-58
 BYTE   W01
 BYTE   BEND   c_v-52
 BYTE   N16  En4  v127
 BYTE   W01
 BYTE   BEND   c_v-47
 BYTE   W01
 BYTE   BEND   c_v-41
 BYTE   W01
 BYTE   BEND   c_v-31
 BYTE   W01
 BYTE   BEND   c_v-19
 BYTE   W01
 BYTE   BEND   c_v+0
 BYTE   W07
//  #06 //053   ----------------------------------------
 BYTE   W12
 BYTE   N05  Dn4  v124
 BYTE   W12
 BYTE   N07  Cn4  v127
 BYTE   W12
 BYTE   N05  Dn4  v124
 BYTE   W06
 BYTE   BEND   c_v-10
 BYTE   W01
 BYTE   BEND   c_v-56
 BYTE   W01
 BYTE   BEND   c_v-64
 BYTE   W04
 BYTE   N09  En4  v127
 BYTE   W01
 BYTE   BEND   c_v-42
 BYTE   W01
 BYTE   BEND   c_v-18
 BYTE   W01
 BYTE   BEND   c_v+0
 BYTE   W03
 BYTE   N06  Dn4  v124
 BYTE   W06
 BYTE   N04  Cn4  v120
 BYTE   W12
 BYTE   N13  Cn4  v124
 BYTE   W12
 BYTE   N04  Dn4
 BYTE   W08
 BYTE   BEND   c_v-34
 BYTE   W01
 BYTE   BEND   c_v-64
 BYTE   W03
//  #06 //054   ----------------------------------------
 BYTE   N14
 BYTE   W02
 BYTE   BEND   c_v-41
 BYTE   W01
 BYTE   BEND   c_v-20
 BYTE   W01
 BYTE   BEND   c_v+0
 BYTE   W08
 BYTE   N04  Cn4  v116
 BYTE   W12
 BYTE   N11  Cn4  v124
 BYTE   W12
 BYTE   N04  An3
 BYTE   W12
 BYTE   Gn3  v120
 BYTE   W06
 BYTE   N07  An3
 BYTE   W06
 BYTE   N05  Cn4  v124
 BYTE   W12
 BYTE   N12
 BYTE   W12
 BYTE   N05  An3
 BYTE   W12
//  #06 //055   ----------------------------------------
 BYTE   N10  Gn3
 BYTE   W12
 BYTE   N04  An3  v120
 BYTE   W12
 BYTE   N14  En3  v124
 BYTE   W01
 BYTE   BEND   c_v-19
 BYTE   W01
 BYTE   BEND   c_v-41
 BYTE   W01
 BYTE   BEND   c_v-54
 BYTE   W02
 BYTE   BEND   c_v-46
 BYTE   W01
 BYTE   BEND   c_v-28
 BYTE   W01
 BYTE   BEND   c_v+0
 BYTE   W05
 BYTE   N03  Dn3  v120
 BYTE   W12
 BYTE   N11  Cn3  v124
 BYTE   W12
 BYTE   N04  An2  v127
 BYTE   W12
 BYTE   N06  Gn2
 BYTE   W06
 BYTE   Gs2
 BYTE   W06
 BYTE   N12  An2  v124
 BYTE   W12
//  #06 //056   ----------------------------------------
 BYTE   PATT
  POIN2 Label_01007FB5
//  #06 //057   ----------------------------------------
 BYTE   PATT
  POIN2 Label_01007FC9
//  #06 //058   ----------------------------------------
 BYTE   PATT
  POIN2 Label_01007FF2
//  #06 //059   ----------------------------------------
 BYTE   PATT
  POIN2 Label_01007FF9
//  #06 //060   ----------------------------------------
 BYTE   PATT
  POIN2 Label_01008033
//  #06 //061   ----------------------------------------
 BYTE   PATT
  POIN2 Label_01008043
//  #06 //062   ----------------------------------------
 BYTE   PATT
  POIN2 Label_01008065
//  #06 //063   ----------------------------------------
 BYTE   MOD 1
 BYTE   W01
 BYTE   MOD 0
 BYTE   W05
 BYTE   EOT
 BYTE   Cn5
 BYTE   W03
 BYTE   BEND   c_v-4
 BYTE   W01
 BYTE   BEND   c_v-18
 BYTE   W02
 BYTE   N06  An4  v116
 BYTE   W02
 BYTE   BEND   c_v-8
 BYTE   W01
 BYTE   BEND   c_v+0
 BYTE   W09
 BYTE   N13  Gn4  v120
 BYTE   W12
 BYTE   N04  An4  v116
 BYTE   W08
 BYTE   BEND   c_v-8
 BYTE   W01
 BYTE   BEND   c_v-25
 BYTE   W01
 BYTE   BEND   c_v-42
 BYTE   W01
 BYTE   BEND   c_v-64
 BYTE   W01
 BYTE   N10  Ds4  v120
 BYTE   W02
 BYTE   BEND   c_v-61
 BYTE   W01
 BYTE   BEND   c_v-53
 BYTE   W01
 BYTE   BEND   c_v-36
 BYTE   W01
 BYTE   BEND   c_v-23
 BYTE   W01
 BYTE   BEND   c_v-4
 BYTE   W01
 BYTE   BEND   c_v+0
 BYTE   W05
 BYTE   N06  Dn4  v112
 BYTE   W12
 BYTE   N14  Cn4  v120
 BYTE   W24
//  #06 //064   ----------------------------------------
 BYTE   PATT
  POIN2 Label_010080F2
//  #06 //065   ----------------------------------------
 BYTE   PATT
  POIN2 Label_01008109
//  #06 //066   ----------------------------------------
 BYTE   PATT
  POIN2 Label_0100811E
//  #06 //067   ----------------------------------------
 BYTE   PATT
  POIN2 Label_01008141
//  #06 //068   ----------------------------------------
 BYTE   PATT
  POIN2 Label_01008154
//  #06 //069   ----------------------------------------
 BYTE   PATT
  POIN2 Label_0100816E
//  #06 //070   ----------------------------------------
 BYTE   PATT
  POIN2 Label_0100818B
//  #06 //071   ----------------------------------------
 BYTE   PATT
  POIN2 Label_0100819C
//  #06 //072   ----------------------------------------
 BYTE   TIE  An3  v116
 BYTE   W96
//  #06 //073   ----------------------------------------
 BYTE   W92
 BYTE   W03
 BYTE   EOT
 BYTE   W01
//  #06 //074   ----------------------------------------
 BYTE   W96
//  #06 //075   ----------------------------------------
 BYTE   W12
 BYTE   N03  An3  v112
 BYTE   W12
 BYTE   N03
 BYTE   W12
 BYTE   An3  v116
 BYTE   W12
 BYTE   N12  An3  v120
 BYTE   W12
 BYTE   N10  Gn3  v108
 BYTE   W12
 BYTE   N04  An3  v116
 BYTE   W12
 BYTE   N24  As3  v120
 BYTE   W02
 BYTE   BEND   c_v+22
 BYTE   W01
 BYTE   BEND   c_v+37
 BYTE   W01
 BYTE   BEND   c_v+63
 BYTE   W08
//  #06 //076   ----------------------------------------
 BYTE   GoTo
  POIN2 Label_01007E37
//  #06 //077   ----------------------------------------
 BYTE   W13
 BYTE   FINE

//**************** Track 7 (Midi-Chn.6) ****************//

JokingMotive_007:
//  #07 //000   ----------------------------------------
 BYTE   KEYSH   JokingMotive_key+0
 BYTE   VOICE   74
 BYTE   VOL   18*JokingMotive_mvl/mxv
 BYTE   PAN   c_v-54
 BYTE   BEND   c_v+0
 BYTE   W96
//  #07 //001   ----------------------------------------
 BYTE   W96
//  #07 //002   ----------------------------------------
 BYTE   W96
//  #07 //003   ----------------------------------------
Label_010085D9:
 BYTE   W24
 BYTE   N03  An3  v112
 BYTE   W12
 BYTE   N03
 BYTE   W12
 BYTE   An3  v116
 BYTE   W12
 BYTE   N12  An3  v120
 BYTE   W12
 BYTE   N10  Gn3  v112
 BYTE   W12
 BYTE   N04  An3  v116
 BYTE   W02
 BYTE   BEND   c_v+22
 BYTE   W01
 BYTE   BEND   c_v+37
 BYTE   W01
 BYTE   BEND   c_v+63
 BYTE   W08
 BYTE   PEND 
//  #07 //004   ----------------------------------------
Label_010085F7:
 BYTE   N24  As3  v120
 BYTE   W14
 BYTE   BEND   c_v+58
 BYTE   W01
 BYTE   BEND   c_v+0
 BYTE   W80
 BYTE   W01
 BYTE   PEND 
//  #07 //005   ----------------------------------------
Label_01008602:
 BYTE   W24
 BYTE   N03  An3  v112
 BYTE   W12
 BYTE   An3  v116
 BYTE   W12
 BYTE   N03
 BYTE   W12
 BYTE   N11
 BYTE   W12
 BYTE   N12  Gn3  v108
 BYTE   W12
 BYTE   N04  An3  v112
 BYTE   W01
 BYTE   BEND   c_v+3
 BYTE   W01
 BYTE   BEND   c_v+17
 BYTE   W01
 BYTE   BEND   c_v+37
 BYTE   W01
 BYTE   BEND   c_v+47
 BYTE   W01
 BYTE   BEND   c_v+55
 BYTE   W01
 BYTE   BEND   c_v+63
 BYTE   W06
 BYTE   PEND 
//  #07 //006   ----------------------------------------
 BYTE   N23  Dn4  v116
 BYTE   W06
 BYTE   BEND   c_v+49
 BYTE   W01
 BYTE   BEND   c_v+3
 BYTE   W01
 BYTE   BEND   c_v+0
 BYTE   W16
 BYTE   N15
 BYTE   W24
 BYTE   N23  Cn4  v120
 BYTE   W48
//  #07 //007   ----------------------------------------
 BYTE   W48
 BYTE   N03  An3  v112
 BYTE   W02
 BYTE   BEND   c_v+1
 BYTE   W01
 BYTE   BEND   c_v+14
 BYTE   W01
 BYTE   BEND   c_v+38
 BYTE   W01
 BYTE   BEND   c_v+55
 BYTE   W01
 BYTE   BEND   c_v+63
 BYTE   W06
 BYTE   N21  Dn4  v116
 BYTE   W01
 BYTE   BEND   c_v+62
 BYTE   W01
 BYTE   BEND   c_v+46
 BYTE   W01
 BYTE   BEND   c_v+8
 BYTE   W01
 BYTE   BEND   c_v+0
 BYTE   W20
 BYTE   N16  Cn4  v120
 BYTE   W12
//  #07 //008   ----------------------------------------
 BYTE   W12
 BYTE   N13  Dn4  v116
 BYTE   W12
 BYTE   N04  En4  v112
 BYTE   W12
 BYTE   N03  An3
 BYTE   W12
 BYTE   N23  Cn4  v120
 BYTE   W24
 BYTE   N06  Dn4  v116
 BYTE   W24
//  #07 //009   ----------------------------------------
 BYTE   W17
 BYTE   BEND   c_v-3
 BYTE   W01
 BYTE   BEND   c_v-15
 BYTE   W01
 BYTE   BEND   c_v-34
 BYTE   W01
 BYTE   BEND   c_v-44
 BYTE   W01
 BYTE   BEND   c_v-51
 BYTE   W02
 BYTE   BEND   c_v-48
 BYTE   W01
 BYTE   BEND   c_v-37
 BYTE   W01
 BYTE   BEND   c_v-29
 BYTE   W01
 BYTE   BEND   c_v-19
 BYTE   W01
 BYTE   BEND   c_v-12
 BYTE   W01
 BYTE   BEND   c_v-3
 BYTE   W01
 BYTE   BEND   c_v+0
 BYTE   W07
 BYTE   N15  En4  v120
 BYTE   W24
 BYTE   N10  Gn4  v116
 BYTE   W12
 BYTE   N05  En4
 BYTE   W12
 BYTE   N12  Dn4
 BYTE   W08
 BYTE   BEND   c_v-14
 BYTE   W01
 BYTE   BEND   c_v-28
 BYTE   W01
 BYTE   BEND   c_v-42
 BYTE   W01
 BYTE   BEND   c_v-51
 BYTE   W01
//  #07 //010   ----------------------------------------
 BYTE   BEND   c_v-58
 BYTE   N04  Cn4  v108
 BYTE   W01
 BYTE   BEND   c_v-54
 BYTE   W01
 BYTE   BEND   c_v-48
 BYTE   W01
 BYTE   BEND   c_v-44
 BYTE   W01
 BYTE   BEND   c_v-33
 BYTE   W01
 BYTE   BEND   c_v-24
 BYTE   W01
 BYTE   BEND   c_v+0
 BYTE   W06
 BYTE   N13  Dn4  v116
 BYTE   W12
 BYTE   N04  Cn4  v112
 BYTE   W12
 BYTE   N14  Cn4  v108
 BYTE   W12
 BYTE   N36  An3
 BYTE   W48
//  #07 //011   ----------------------------------------
 BYTE   PATT
  POIN2 Label_010085D9
//  #07 //012   ----------------------------------------
 BYTE   PATT
  POIN2 Label_010085F7
//  #07 //013   ----------------------------------------
 BYTE   PATT
  POIN2 Label_01008602
//  #07 //014   ----------------------------------------
 BYTE   N23  Dn4  v116
 BYTE   W06
 BYTE   BEND   c_v+49
 BYTE   W01
 BYTE   BEND   c_v+3
 BYTE   W01
 BYTE   BEND   c_v+0
 BYTE   W16
 BYTE   N15
 BYTE   W24
 BYTE   N22  Cn4
 BYTE   W24
 BYTE   N08  Dn4  v108
 BYTE   W06
 BYTE   N10  En4  v116
 BYTE   W18
//  #07 //015   ----------------------------------------
 BYTE   W24
 BYTE   N03  Gn4  v112
 BYTE   W12
 BYTE   N03
 BYTE   W12
 BYTE   N04  Gn4  v116
 BYTE   W12
 BYTE   N04
 BYTE   W12
 BYTE   N04
 BYTE   W12
 BYTE   N03  Gn4  v120
 BYTE   W12
//  #07 //016   ----------------------------------------
 BYTE   N24
 BYTE   W24
 BYTE   N05  An4  v116
 BYTE   W10
 BYTE   BEND   c_v-4
 BYTE   W01
 BYTE   BEND   c_v-18
 BYTE   W01
 BYTE   BEND   c_v-24
 BYTE   W01
 BYTE   BEND   c_v-28
 BYTE   W03
 BYTE   BEND   c_v-21
 BYTE   W01
 BYTE   BEND   c_v-15
 BYTE   W01
 BYTE   BEND   c_v-1
 BYTE   W01
 BYTE   BEND   c_v+0
 BYTE   W05
 BYTE   N21  Ds4  v120
 BYTE   W24
 BYTE   N05  Dn4  v112
 BYTE   W12
 BYTE   N04  Cn4  v116
 BYTE   W03
 BYTE   BEND   c_v-1
 BYTE   W01
 BYTE   BEND   c_v-3
 BYTE   W02
 BYTE   BEND   c_v-1
 BYTE   W01
 BYTE   BEND   c_v+0
 BYTE   W05
//  #07 //017   ----------------------------------------
 BYTE   N23  Dn4  v120
 BYTE   W24
 BYTE   N05  An3  v108
 BYTE   W24
 BYTE   N05
 BYTE   W12
 BYTE   N06
 BYTE   W12
 BYTE   N04  An3  v112
 BYTE   W12
 BYTE   N14  Cn4  v116
 BYTE   W10
 BYTE   BEND   c_v-15
 BYTE   W01
 BYTE   BEND   c_v-36
 BYTE   W01
//  #07 //018   ----------------------------------------
 BYTE   BEND   c_v-46
 BYTE   N05  Dn4
 BYTE   W01
 BYTE   BEND   c_v-49
 BYTE   W02
 BYTE   BEND   c_v-45
 BYTE   W01
 BYTE   BEND   c_v-33
 BYTE   W01
 BYTE   BEND   c_v-24
 BYTE   W01
 BYTE   BEND   c_v-16
 BYTE   W01
 BYTE   BEND   c_v-4
 BYTE   W01
 BYTE   BEND   c_v+0
 BYTE   W04
 BYTE   N13  Ds4  v120
 BYTE   W12
 BYTE   N09  Dn4  v116
 BYTE   W12
 BYTE   N08  Cn4  v120
 BYTE   W12
 BYTE   N54  An3  v116
 BYTE   W48
//  #07 //019   ----------------------------------------
 BYTE   W24
 BYTE   N04  An3  v112
 BYTE   W12
 BYTE   N13  An3  v116
 BYTE   W12
 BYTE   N05  Cn4  v108
 BYTE   W12
 BYTE   N12  Cn4  v120
 BYTE   W12
 BYTE   N06  Dn4  v112
 BYTE   W12
 BYTE   En4  v120
 BYTE   W12
//  #07 //020   ----------------------------------------
 BYTE   N05  Gn4
 BYTE   W12
 BYTE   N24
 BYTE   W03
 BYTE   BEND   c_v+12
 BYTE   W01
 BYTE   BEND   c_v+28
 BYTE   W01
 BYTE   BEND   c_v+46
 BYTE   W01
 BYTE   BEND   c_v+63
 BYTE   W08
 BYTE   BEND   c_v+62
 BYTE   W01
 BYTE   BEND   c_v+54
 BYTE   W01
 BYTE   BEND   c_v+0
 BYTE   W68
//  #07 //021   ----------------------------------------
Label_0100878A:
 BYTE   W07
 BYTE   BEND   c_v-2
 BYTE   W01
 BYTE   BEND   c_v-11
 BYTE   W01
 BYTE   BEND   c_v-24
 BYTE   W01
 BYTE   BEND   c_v-32
 BYTE   W01
 BYTE   BEND   c_v-37
 BYTE   W01
 BYTE   BEND   c_v-40
 BYTE   W02
 BYTE   BEND   c_v-36
 BYTE   W01
 BYTE   BEND   c_v-21
 BYTE   W01
 BYTE   BEND   c_v-2
 BYTE   W01
 BYTE   BEND   c_v+0
 BYTE   W07
 BYTE   N12  Cn5  v120
 BYTE   W24
 BYTE   N07  An4
 BYTE   W24
 BYTE   N04  Gn4  v116
 BYTE   W12
 BYTE   N12  En4
 BYTE   W12
 BYTE   PEND 
//  #07 //022   ----------------------------------------
Label_010087AF:
 BYTE   N04  Dn4  v112
 BYTE   W12
 BYTE   N17  En4  v120
 BYTE   W24
 BYTE   N07
 BYTE   W60
 BYTE   PEND 
//  #07 //023   ----------------------------------------
Label_010087BA:
 BYTE   W15
 BYTE   BEND   c_v+22
 BYTE   W01
 BYTE   BEND   c_v+36
 BYTE   W01
 BYTE   BEND   c_v+48
 BYTE   W01
 BYTE   BEND   c_v+63
 BYTE   W05
 BYTE   BEND   c_v+54
 BYTE   W01
 BYTE   BEND   c_v+43
 BYTE   N18  Dn4  v116
 BYTE   W01
 BYTE   BEND   c_v+23
 BYTE   W01
 BYTE   BEND   c_v+11
 BYTE   W01
 BYTE   BEND   c_v+0
 BYTE   W10
 BYTE   BEND   c_v+13
 BYTE   W01
 BYTE   BEND   c_v+28
 BYTE   W01
 BYTE   BEND   c_v+49
 BYTE   W01
 BYTE   BEND   c_v+62
 BYTE   W01
 BYTE   BEND   c_v+63
 BYTE   W06
 BYTE   BEND   c_v+62
 BYTE   W01
 BYTE   BEND   c_v+53
 BYTE   N11  Dn4  v112
 BYTE   W01
 BYTE   BEND   c_v+0
 BYTE   W11
 BYTE   N13
 BYTE   W12
 BYTE   N05  Cn4
 BYTE   W12
 BYTE   N10  Dn4  v116
 BYTE   W12
 BYTE   PEND 
//  #07 //024   ----------------------------------------
Label_010087F0:
 BYTE   N04  Cn4  v116
 BYTE   W12
 BYTE   N12  Dn4  v120
 BYTE   W12
 BYTE   N05  En4  v116
 BYTE   W12
 BYTE   N11  Gn4  v120
 BYTE   W12
 BYTE   N15  An4
 BYTE   W48
 BYTE   PEND 
//  #07 //025   ----------------------------------------
Label_01008804:
 BYTE   W24
 BYTE   N04  Gn4  v108
 BYTE   W12
 BYTE   N09  An4  v116
 BYTE   W12
 BYTE   N04  Gn4
 BYTE   W12
 BYTE   N11  An4  v120
 BYTE   W12
 BYTE   N05  Gn4  v112
 BYTE   W12
 BYTE   An4  v120
 BYTE   W05
 BYTE   BEND   c_v+2
 BYTE   W02
 BYTE   BEND   c_v+4
 BYTE   W04
 BYTE   BEND   c_v+0
 BYTE   W01
 BYTE   PEND 
//  #07 //026   ----------------------------------------
Label_01008823:
 BYTE   TIE  Cn5  v120
 BYTE   W52
 BYTE   W01
 BYTE   MOD 1
 BYTE   W01
 BYTE   MOD 6
 BYTE   W02
 BYTE   MOD 9
 BYTE   W01
 BYTE   MOD 15
 BYTE   W01
 BYTE   MOD 17
 BYTE   W01
 BYTE   MOD 21
 BYTE   W01
 BYTE   MOD 26
 BYTE   W01
 BYTE   MOD 29
 BYTE   W01
 BYTE   MOD 33
 BYTE   W01
 BYTE   MOD 36
 BYTE   W01
 BYTE   MOD 44
 BYTE   W01
 BYTE   MOD 48
 BYTE   W01
 BYTE   MOD 52
 BYTE   W01
 BYTE   MOD 60
 BYTE   W01
 BYTE   MOD 65
 BYTE   W01
 BYTE   MOD 72
 BYTE   W01
 BYTE   MOD 77
 BYTE   W01
 BYTE   MOD 82
 BYTE   W01
 BYTE   MOD 90
 BYTE   W01
 BYTE   MOD 94
 BYTE   W01
 BYTE   MOD 100
 BYTE   W01
 BYTE   MOD 103
 BYTE   W01
 BYTE   MOD 106
 BYTE   W01
 BYTE   MOD 108
 BYTE   W01
 BYTE   MOD 110
 BYTE   W01
 BYTE   MOD 113
 BYTE   W01
 BYTE   MOD 115
 BYTE   W01
 BYTE   MOD 117
 BYTE   W02
 BYTE   MOD 120
 BYTE   W01
 BYTE   MOD 122
 BYTE   W02
 BYTE   MOD 124
 BYTE   W04
 BYTE   MOD 118
 BYTE   W01
 BYTE   MOD 104
 BYTE   W01
 BYTE   MOD 90
 BYTE   W01
 BYTE   MOD 72
 BYTE   W01
 BYTE   MOD 42
 BYTE   W01
 BYTE   MOD 21
 BYTE   W01
 BYTE   PEND 
//  #07 //027   ----------------------------------------
Label_01008874:
 BYTE   MOD 1
 BYTE   W01
 BYTE   MOD 0
 BYTE   W08
 BYTE   BEND   c_v-4
 BYTE   W01
 BYTE   BEND   c_v-18
 BYTE   W04
 BYTE   BEND   c_v-8
 BYTE   W01
 BYTE   BEND   c_v+0
 BYTE   W03
 BYTE   PEND 
 BYTE   EOT
 BYTE   Cn5
 BYTE   W06
 BYTE   N06  An4  v116
 BYTE   W12
 BYTE   N13  Gn4  v120
 BYTE   W08
 BYTE   BEND   c_v-8
 BYTE   W01
 BYTE   BEND   c_v-25
 BYTE   W01
 BYTE   BEND   c_v-42
 BYTE   W01
 BYTE   BEND   c_v-64
 BYTE   W01
 BYTE   N04  An4  v116
 BYTE   W02
 BYTE   BEND   c_v-61
 BYTE   W01
 BYTE   BEND   c_v-53
 BYTE   W01
 BYTE   BEND   c_v-36
 BYTE   W01
 BYTE   BEND   c_v-23
 BYTE   W01
 BYTE   BEND   c_v-4
 BYTE   W01
 BYTE   BEND   c_v+0
 BYTE   W05
 BYTE   N10  Ds4  v120
 BYTE   W12
 BYTE   N06  Dn4  v108
 BYTE   W12
 BYTE   N14  Cn4  v120
 BYTE   W12
//  #07 //028   ----------------------------------------
Label_010088B4:
 BYTE   W12
 BYTE   N05  En4  v116
 BYTE   W12
 BYTE   N04
 BYTE   W12
 BYTE   N04
 BYTE   W12
 BYTE   N04
 BYTE   W12
 BYTE   N09  Gn4  v120
 BYTE   W24
 BYTE   N14  En4  v116
 BYTE   W12
 BYTE   PEND 
//  #07 //029   ----------------------------------------
Label_010088C8:
 BYTE   N12  Dn4  v112
 BYTE   W24
 BYTE   N04  Cn4  v116
 BYTE   W12
 BYTE   N12  Dn4
 BYTE   W12
 BYTE   N04  Cn4  v112
 BYTE   W12
 BYTE   N13  Dn4  v116
 BYTE   W12
 BYTE   N08  En4  v120
 BYTE   W24
 BYTE   PEND 
//  #07 //030   ----------------------------------------
Label_010088E0:
 BYTE   W12
 BYTE   N04  En4  v116
 BYTE   W12
 BYTE   N04
 BYTE   W12
 BYTE   N04
 BYTE   W12
 BYTE   En4  v108
 BYTE   W12
 BYTE   N24  Gn4  v120
 BYTE   W02
 BYTE   BEND   c_v+16
 BYTE   W01
 BYTE   BEND   c_v+32
 BYTE   W01
 BYTE   BEND   c_v+53
 BYTE   W01
 BYTE   BEND   c_v+63
 BYTE   W07
 BYTE   BEND   c_v+57
 BYTE   W01
 BYTE   BEND   c_v+44
 BYTE   W01
 BYTE   BEND   c_v+0
 BYTE   W22
 BYTE   PEND 
//  #07 //031   ----------------------------------------
Label_01008900:
 BYTE   N10  En4  v116
 BYTE   W24
 BYTE   N04  Dn4  v112
 BYTE   W12
 BYTE   N12
 BYTE   W12
 BYTE   N05  Cn4
 BYTE   W12
 BYTE   N13  Dn4  v120
 BYTE   W12
 BYTE   N11  Cn4  v116
 BYTE   W24
 BYTE   PEND 
//  #07 //032   ----------------------------------------
Label_01008916:
 BYTE   W48
 BYTE   N03  En4  v112
 BYTE   W02
 BYTE   BEND   c_v+14
 BYTE   W01
 BYTE   BEND   c_v+34
 BYTE   W01
 BYTE   BEND   c_v+59
 BYTE   W01
 BYTE   BEND   c_v+63
 BYTE   W07
 BYTE   N36  Gn4  v120
 BYTE   W07
 BYTE   BEND   c_v+52
 BYTE   W01
 BYTE   BEND   c_v+0
 BYTE   W28
 BYTE   PEND 
//  #07 //033   ----------------------------------------
Label_0100892E:
 BYTE   N14  En4  v120
 BYTE   W24
 BYTE   N04  Dn4  v116
 BYTE   W12
 BYTE   N12  Dn4  v108
 BYTE   W12
 BYTE   N06  Cn4  v112
 BYTE   W12
 BYTE   N12  Dn4  v116
 BYTE   W12
 BYTE   N07  Cn4  v108
 BYTE   W12
 BYTE   N06  Dn4  v116
 BYTE   W12
 BYTE   PEND 
//  #07 //034   ----------------------------------------
Label_0100894B:
 BYTE   N06  Dn4  v112
 BYTE   W12
 BYTE   N15  En4  v120
 BYTE   W12
 BYTE   N05  Dn4  v116
 BYTE   W12
 BYTE   N07  Cn4  v108
 BYTE   W12
 BYTE   N56  An3  v116
 BYTE   W48
 BYTE   PEND 
//  #07 //035   ----------------------------------------
Label_01008960:
 BYTE   W20
 BYTE   BEND   c_v-4
 BYTE   W01
 BYTE   BEND   c_v-12
 BYTE   W01
 BYTE   BEND   c_v-28
 BYTE   W01
 BYTE   BEND   c_v-38
 BYTE   W01
 BYTE   BEND   c_v-51
 BYTE   W04
 BYTE   BEND   c_v-48
 BYTE   W01
 BYTE   BEND   c_v-41
 BYTE   W01
 BYTE   BEND   c_v-28
 BYTE   W01
 BYTE   BEND   c_v-19
 BYTE   W01
 BYTE   BEND   c_v-8
 BYTE   W01
 BYTE   BEND   c_v-1
 BYTE   W01
 BYTE   BEND   c_v+0
 BYTE   W02
 BYTE   N15  En4  v120
 BYTE   W24
 BYTE   N10  Dn4  v116
 BYTE   W12
 BYTE   N05  Cn4  v108
 BYTE   W12
 BYTE   N11  Dn4  v120
 BYTE   W12
 BYTE   PEND 
//  #07 //036   ----------------------------------------
 BYTE   N05  Cn4  v116
 BYTE   W12
 BYTE   N23  An3
 BYTE   W84
//  #07 //037   ----------------------------------------
 BYTE   W96
//  #07 //038   ----------------------------------------
 BYTE   W96
//  #07 //039   ----------------------------------------
 BYTE   W96
//  #07 //040   ----------------------------------------
 BYTE   N07  Dn4  v112
 BYTE   W06
 BYTE   N08  Ds4
 BYTE   W06
 BYTE   En4
 BYTE   W06
 BYTE   Gn4  v116
 BYTE   W06
 BYTE   N09  En4  v108
 BYTE   W06
 BYTE   N07  Ds4  v112
 BYTE   W06
 BYTE   N08  Dn4
 BYTE   W06
 BYTE   Ds4  v108
 BYTE   W06
 BYTE   En4  v116
 BYTE   W06
 BYTE   N07  Gn4  v120
 BYTE   W06
 BYTE   N08  En4  v100
 BYTE   W06
 BYTE   N06  Ds4  v108
 BYTE   W06
 BYTE   N07  Dn4  v116
 BYTE   W06
 BYTE   N06  Ds4  v104
 BYTE   W06
 BYTE   N09  En4  v112
 BYTE   W06
 BYTE   N07  Gn4  v116
 BYTE   W06
//  #07 //041   ----------------------------------------
 BYTE   En4  v112
 BYTE   W06
 BYTE   N06  Ds4
 BYTE   W06
 BYTE   Dn4
 BYTE   W06
 BYTE   N07  Ds4  v100
 BYTE   W06
 BYTE   En4  v116
 BYTE   W06
 BYTE   N06  Gn4  v120
 BYTE   W06
 BYTE   N08  En4  v108
 BYTE   W06
 BYTE   N05  Ds4  v112
 BYTE   W06
 BYTE   N07  Dn4
 BYTE   W06
 BYTE   Ds4
 BYTE   W06
 BYTE   N08  En4  v116
 BYTE   W06
 BYTE   N07  Gn4  v120
 BYTE   W06
 BYTE   N08  En4  v112
 BYTE   W06
 BYTE   N05  Ds4  v108
 BYTE   W06
 BYTE   N06  Dn4
 BYTE   W06
 BYTE   N07  Ds4  v100
 BYTE   W06
//  #07 //042   ----------------------------------------
 BYTE   En4  v116
 BYTE   W06
 BYTE   Gn4  v120
 BYTE   W06
 BYTE   En4  v108
 BYTE   W06
 BYTE   Ds4  v112
 BYTE   W06
 BYTE   N08  Dn4  v120
 BYTE   W06
 BYTE   N06  Ds4  v112
 BYTE   W06
 BYTE   N08  En4  v116
 BYTE   W06
 BYTE   N07  Gn4  v120
 BYTE   W06
 BYTE   N08  En4  v112
 BYTE   W06
 BYTE   N06  Ds4
 BYTE   W06
 BYTE   N07  Dn4  v120
 BYTE   W06
 BYTE   N06  Ds4  v116
 BYTE   W06
 BYTE   N08  En4
 BYTE   W06
 BYTE   N07  Gn4  v120
 BYTE   W06
 BYTE   N08  En4  v108
 BYTE   W06
 BYTE   N06  Ds4  v112
 BYTE   W06
//  #07 //043   ----------------------------------------
 BYTE   N07  Dn4  v116
 BYTE   W06
 BYTE   Ds4  v104
 BYTE   W06
 BYTE   BEND   c_v-1
 BYTE   N08  En4  v120
 BYTE   W01
 BYTE   BEND   c_v-50
 BYTE   W01
 BYTE   BEND   c_v-49
 BYTE   W01
 BYTE   BEND   c_v-52
 BYTE   W01
 BYTE   BEND   c_v-53
 BYTE   W01
 BYTE   BEND   c_v-49
 BYTE   W01
 BYTE   BEND   c_v-39
 BYTE   N04  Gn4
 BYTE   W01
 BYTE   BEND   c_v-21
 BYTE   W01
 BYTE   BEND   c_v-4
 BYTE   W01
 BYTE   BEND   c_v+0
 BYTE   W03
 BYTE   N40  An4  v124
 BYTE   W09
 BYTE   MOD 6
 BYTE   W01
 BYTE   MOD 18
 BYTE   W02
 BYTE   MOD 32
 BYTE   W02
 BYTE   MOD 49
 BYTE   W02
 BYTE   MOD 57
 BYTE   W01
 BYTE   MOD 66
 BYTE   W01
 BYTE   MOD 74
 BYTE   W01
 BYTE   MOD 85
 BYTE   W03
 BYTE   MOD 93
 BYTE   W04
 BYTE   MOD 100
 BYTE   W03
 BYTE   MOD 90
 BYTE   W01
 BYTE   MOD 27
 BYTE   W01
 BYTE   MOD 0
 BYTE   W17
 BYTE   N02  Gn4  v120
 BYTE   W12
 BYTE   N06  En4
 BYTE   W06
 BYTE   N05  Dn4
 BYTE   W06
//  #07 //044   ----------------------------------------
 BYTE   N04  Cn4
 BYTE   W03
 BYTE   MOD 1
 BYTE   W01
 BYTE   MOD 59
 BYTE   W01
 BYTE   MOD 97
 BYTE   W01
 BYTE   MOD 127
 BYTE   W06
 BYTE   N15  Dn4  v124
 BYTE   W01
 BYTE   MOD 111
 BYTE   W01
 BYTE   MOD 25
 BYTE   W01
 BYTE   MOD 0
 BYTE   W09
 BYTE   N04  Cn4  v120
 BYTE   W12
 BYTE   N11
 BYTE   W12
 BYTE   N05  An3  v124
 BYTE   W48
//  #07 //045   ----------------------------------------
 BYTE   Gn3  v120
 BYTE   W06
 BYTE   N06  An3  v116
 BYTE   W06
 BYTE   N12  Cn4  v124
 BYTE   W12
 BYTE   N04  An3  v116
 BYTE   W12
 BYTE   N12  An3  v127
 BYTE   W12
 BYTE   N02  Gn3  v120
 BYTE   W10
 BYTE   BEND   c_v-6
 BYTE   W01
 BYTE   BEND   c_v-33
 BYTE   W01
 BYTE   BEND   c_v-48
 BYTE   N09  An3  v124
 BYTE   W01
 BYTE   BEND   c_v-52
 BYTE   W01
 BYTE   BEND   c_v-55
 BYTE   W01
 BYTE   BEND   c_v-57
 BYTE   W01
 BYTE   BEND   c_v-56
 BYTE   W01
 BYTE   BEND   c_v-52
 BYTE   W01
 BYTE   BEND   c_v-45
 BYTE   W01
 BYTE   BEND   c_v-34
 BYTE   W01
 BYTE   BEND   c_v-23
 BYTE   W01
 BYTE   BEND   c_v+0
 BYTE   W15
 BYTE   N06  Ds3  v120
 BYTE   W06
 BYTE   N07  Dn3
 BYTE   W06
//  #07 //046   ----------------------------------------
 BYTE   N04  Cn3  v116
 BYTE   W09
 BYTE   MOD 13
 BYTE   W01
 BYTE   MOD 23
 BYTE   W01
 BYTE   MOD 30
 BYTE   W01
 BYTE   MOD 8
 BYTE   N13  Dn3  v124
 BYTE   W01
 BYTE   MOD 0
 BYTE   W11
 BYTE   N04  Cn3  v116
 BYTE   W12
 BYTE   MOD 13
 BYTE   N56  An2  v112
 BYTE   W01
 BYTE   MOD 22
 BYTE   W01
 BYTE   MOD 52
 BYTE   W01
 BYTE   MOD 64
 BYTE   W02
 BYTE   MOD 79
 BYTE   W01
 BYTE   MOD 89
 BYTE   W02
 BYTE   MOD 99
 BYTE   W01
 BYTE   MOD 116
 BYTE   W02
 BYTE   MOD 127
 BYTE   W32
 BYTE   W02
 BYTE   MOD 110
 BYTE   W01
 BYTE   MOD 83
 BYTE   W01
 BYTE   MOD 27
 BYTE   W01
 BYTE   MOD 0
 BYTE   W12
//  #07 //047   ----------------------------------------
 BYTE   N04  Cn3  v124
 BYTE   W24
 BYTE   Dn3
 BYTE   W24
 BYTE   N03  Ds3  v120
 BYTE   W24
 BYTE   N04  En3  v124
 BYTE   W12
 BYTE   N13  Gn3  v127
 BYTE   W07
 BYTE   BEND   c_v-36
 BYTE   W01
 BYTE   BEND   c_v-64
 BYTE   W04
//  #07 //048   ----------------------------------------
 BYTE   N03  An3  v124
 BYTE   W01
 BYTE   BEND   c_v-62
 BYTE   W01
 BYTE   BEND   c_v-48
 BYTE   W01
 BYTE   BEND   c_v-32
 BYTE   W01
 BYTE   BEND   c_v-15
 BYTE   W01
 BYTE   BEND   c_v+0
 BYTE   W07
 BYTE   N56  Dn4  v127
 BYTE   W19
 BYTE   MOD 2
 BYTE   W01
 BYTE   MOD 16
 BYTE   W01
 BYTE   MOD 29
 BYTE   W01
 BYTE   MOD 41
 BYTE   W01
 BYTE   MOD 65
 BYTE   W01
 BYTE   MOD 72
 BYTE   W01
 BYTE   MOD 82
 BYTE   W02
 BYTE   MOD 93
 BYTE   W02
 BYTE   MOD 110
 BYTE   W01
 BYTE   MOD 116
 BYTE   W01
 BYTE   MOD 127
 BYTE   W15
 BYTE   MOD 95
 BYTE   W01
 BYTE   MOD 46
 BYTE   W01
 BYTE   MOD 0
 BYTE   W12
 BYTE   N02  Cn4  v120
 BYTE   W12
 BYTE   N15  Cn4  v127
 BYTE   W12
//  #07 //049   ----------------------------------------
 BYTE   N05  Dn4  v124
 BYTE   W24
 BYTE   An3  v127
 BYTE   W24
 BYTE   N04  En3  v120
 BYTE   W12
 BYTE   N05
 BYTE   W06
 BYTE   N08  Gn3
 BYTE   W06
 BYTE   N03  An3  v124
 BYTE   W12
 BYTE   N13  Cn4
 BYTE   W08
 BYTE   BEND   c_v-34
 BYTE   W01
 BYTE   BEND   c_v-51
 BYTE   W01
 BYTE   BEND   c_v-53
 BYTE   W01
 BYTE   BEND   c_v-52
 BYTE   W01
//  #07 //050   ----------------------------------------
 BYTE   N03  An3
 BYTE   W01
 BYTE   BEND   c_v-46
 BYTE   W01
 BYTE   BEND   c_v-27
 BYTE   W01
 BYTE   BEND   c_v-12
 BYTE   W01
 BYTE   BEND   c_v+0
 BYTE   W08
 BYTE   N60  Dn4  v127
 BYTE   W11
 BYTE   MOD 10
 BYTE   W01
 BYTE   MOD 23
 BYTE   W01
 BYTE   MOD 43
 BYTE   W01
 BYTE   MOD 55
 BYTE   W01
 BYTE   MOD 70
 BYTE   W01
 BYTE   MOD 89
 BYTE   W01
 BYTE   MOD 99
 BYTE   W01
 BYTE   MOD 116
 BYTE   W01
 BYTE   MOD 127
 BYTE   W16
 BYTE   MOD 117
 BYTE   W01
 BYTE   MOD 99
 BYTE   W01
 BYTE   MOD 84
 BYTE   W01
 BYTE   MOD 67
 BYTE   W01
 BYTE   MOD 22
 BYTE   W01
 BYTE   MOD 7
 BYTE   W01
 BYTE   MOD 0
 BYTE   W19
 BYTE   N04  Cn4  v116
 BYTE   W12
 BYTE   N13  Cn4  v124
 BYTE   W12
//  #07 //051   ----------------------------------------
 BYTE   Dn4
 BYTE   W06
 BYTE   BEND   c_v-26
 BYTE   W01
 BYTE   BEND   c_v-43
 BYTE   W01
 BYTE   BEND   c_v-48
 BYTE   W01
 BYTE   BEND   c_v-53
 BYTE   W01
 BYTE   BEND   c_v-57
 BYTE   W01
 BYTE   BEND   c_v-63
 BYTE   W01
 BYTE   BEND   c_v-60
 BYTE   W01
 BYTE   BEND   c_v-56
 BYTE   W01
 BYTE   BEND   c_v-52
 BYTE   W01
 BYTE   BEND   c_v-45
 BYTE   W01
 BYTE   BEND   c_v-39
 BYTE   W01
 BYTE   BEND   c_v-29
 BYTE   W01
 BYTE   BEND   c_v-3
 BYTE   W01
 BYTE   BEND   c_v+0
 BYTE   W05
 BYTE   N17  En4  v127
 BYTE   W24
 BYTE   N03  Dn4  v124
 BYTE   W12
 BYTE   N13  Cn4  v127
 BYTE   W12
 BYTE   N02  Dn4  v120
 BYTE   W12
 BYTE   N12  Dn4  v124
 BYTE   W12
//  #07 //052   ----------------------------------------
 BYTE   N14  An3
 BYTE   W06
 BYTE   BEND   c_v-19
 BYTE   W01
 BYTE   BEND   c_v-54
 BYTE   W01
 BYTE   BEND   c_v-64
 BYTE   W04
 BYTE   BEND   c_v-56
 BYTE   W01
 BYTE   BEND   c_v-46
 BYTE   W01
 BYTE   BEND   c_v-35
 BYTE   W01
 BYTE   BEND   c_v-25
 BYTE   W01
 BYTE   BEND   c_v-6
 BYTE   W01
 BYTE   BEND   c_v+0
 BYTE   W07
 BYTE   N18  En4
 BYTE   W24
 BYTE   N05  Dn4  v120
 BYTE   W12
 BYTE   N13  Cn4  v124
 BYTE   W12
 BYTE   N11  Dn4
 BYTE   W04
 BYTE   BEND   c_v-4
 BYTE   W01
 BYTE   BEND   c_v-41
 BYTE   W01
 BYTE   BEND   c_v-62
 BYTE   W01
 BYTE   BEND   c_v-64
 BYTE   W02
 BYTE   BEND   c_v-64
 BYTE   W01
 BYTE   BEND   c_v-64
 BYTE   W01
 BYTE   BEND   c_v-58
 BYTE   W01
 BYTE   BEND   c_v-52
 BYTE   W01
 BYTE   BEND   c_v-47
 BYTE   W01
 BYTE   BEND   c_v-41
 BYTE   W01
 BYTE   BEND   c_v-31
 BYTE   W01
 BYTE   BEND   c_v-19
 BYTE   W01
 BYTE   BEND   c_v+0
 BYTE   W07
//  #07 //053   ----------------------------------------
 BYTE   N16  En4  v127
 BYTE   W24
 BYTE   N05  Dn4  v124
 BYTE   W12
 BYTE   N07  Cn4  v127
 BYTE   W06
 BYTE   BEND   c_v-10
 BYTE   W01
 BYTE   BEND   c_v-56
 BYTE   W01
 BYTE   BEND   c_v-64
 BYTE   W04
 BYTE   N05  Dn4  v124
 BYTE   W01
 BYTE   BEND   c_v-42
 BYTE   W01
 BYTE   BEND   c_v-18
 BYTE   W01
 BYTE   BEND   c_v+0
 BYTE   W09
 BYTE   N09  En4  v127
 BYTE   W06
 BYTE   N06  Dn4  v124
 BYTE   W06
 BYTE   N04  Cn4  v120
 BYTE   W12
 BYTE   N13  Cn4  v124
 BYTE   W08
 BYTE   BEND   c_v-34
 BYTE   W01
 BYTE   BEND   c_v-64
 BYTE   W03
//  #07 //054   ----------------------------------------
 BYTE   N04  Dn4
 BYTE   W02
 BYTE   BEND   c_v-41
 BYTE   W01
 BYTE   BEND   c_v-20
 BYTE   W01
 BYTE   BEND   c_v+0
 BYTE   W08
 BYTE   N14
 BYTE   W12
 BYTE   N04  Cn4  v116
 BYTE   W12
 BYTE   N11  Cn4  v124
 BYTE   W12
 BYTE   N04  An3
 BYTE   W12
 BYTE   Gn3  v120
 BYTE   W06
 BYTE   N07  An3
 BYTE   W06
 BYTE   N05  Cn4  v124
 BYTE   W12
 BYTE   N12
 BYTE   W12
//  #07 //055   ----------------------------------------
 BYTE   N05  An3
 BYTE   W12
 BYTE   N10  Gn3
 BYTE   W12
 BYTE   N04  An3  v120
 BYTE   W01
 BYTE   BEND   c_v-19
 BYTE   W01
 BYTE   BEND   c_v-41
 BYTE   W01
 BYTE   BEND   c_v-54
 BYTE   W02
 BYTE   BEND   c_v-46
 BYTE   W01
 BYTE   BEND   c_v-28
 BYTE   W01
 BYTE   BEND   c_v+0
 BYTE   W05
 BYTE   N14  En3  v124
 BYTE   W12
 BYTE   N03  Dn3  v120
 BYTE   W12
 BYTE   N11  Cn3  v124
 BYTE   W12
 BYTE   N04  An2  v127
 BYTE   W12
 BYTE   N06  Gn2
 BYTE   W06
 BYTE   Gs2
 BYTE   W06
//  #07 //056   ----------------------------------------
 BYTE   N12  An2  v124
 BYTE   W12
 BYTE   N24  Gn4  v120
 BYTE   W03
 BYTE   BEND   c_v+12
 BYTE   W01
 BYTE   BEND   c_v+28
 BYTE   W01
 BYTE   BEND   c_v+46
 BYTE   W01
 BYTE   BEND   c_v+63
 BYTE   W08
 BYTE   BEND   c_v+62
 BYTE   W01
 BYTE   BEND   c_v+54
 BYTE   W01
 BYTE   BEND   c_v+0
 BYTE   W68
//  #07 //057   ----------------------------------------
 BYTE   PATT
  POIN2 Label_0100878A
//  #07 //058   ----------------------------------------
 BYTE   PATT
  POIN2 Label_010087AF
//  #07 //059   ----------------------------------------
 BYTE   PATT
  POIN2 Label_010087BA
//  #07 //060   ----------------------------------------
 BYTE   PATT
  POIN2 Label_010087F0
//  #07 //061   ----------------------------------------
 BYTE   PATT
  POIN2 Label_01008804
//  #07 //062   ----------------------------------------
 BYTE   PATT
  POIN2 Label_01008823
//  #07 //063   ----------------------------------------
 BYTE   PATT
  POIN2 Label_01008874
//  #07 //064   ----------------------------------------
 BYTE   EOT
 BYTE   Cn5
 BYTE   W06
 BYTE   N06  An4  v116
 BYTE   W12
 BYTE   N13  Gn4  v120
 BYTE   W08
 BYTE   BEND   c_v-8
 BYTE   W01
 BYTE   BEND   c_v-25
 BYTE   W01
 BYTE   BEND   c_v-42
 BYTE   W01
 BYTE   BEND   c_v-64
 BYTE   W01
 BYTE   N04  An4  v116
 BYTE   W02
 BYTE   BEND   c_v-61
 BYTE   W01
 BYTE   BEND   c_v-53
 BYTE   W01
 BYTE   BEND   c_v-36
 BYTE   W01
 BYTE   BEND   c_v-23
 BYTE   W01
 BYTE   BEND   c_v-4
 BYTE   W01
 BYTE   BEND   c_v+0
 BYTE   W05
 BYTE   N10  Ds4  v120
 BYTE   W12
 BYTE   N06  Dn4  v112
 BYTE   W12
 BYTE   N14  Cn4  v120
 BYTE   W12
//  #07 //065   ----------------------------------------
 BYTE   PATT
  POIN2 Label_010088B4
//  #07 //066   ----------------------------------------
 BYTE   PATT
  POIN2 Label_010088C8
//  #07 //067   ----------------------------------------
 BYTE   PATT
  POIN2 Label_010088E0
//  #07 //068   ----------------------------------------
 BYTE   PATT
  POIN2 Label_01008900
//  #07 //069   ----------------------------------------
 BYTE   PATT
  POIN2 Label_01008916
//  #07 //070   ----------------------------------------
 BYTE   PATT
  POIN2 Label_0100892E
//  #07 //071   ----------------------------------------
 BYTE   PATT
  POIN2 Label_0100894B
//  #07 //072   ----------------------------------------
 BYTE   PATT
  POIN2 Label_01008960
//  #07 //073   ----------------------------------------
 BYTE   N05  Cn4  v116
 BYTE   W12
 BYTE   TIE  An3
 BYTE   W84
//  #07 //074   ----------------------------------------
 BYTE   W96
//  #07 //075   ----------------------------------------
 BYTE   W11
 BYTE   EOT
 BYTE   W84
 BYTE   W01
//  #07 //076   ----------------------------------------
 BYTE   W24
 BYTE   N03  An3  v112
 BYTE   W12
 BYTE   N03
 BYTE   W12
 BYTE   An3  v116
 BYTE   W12
 BYTE   N12  An3  v120
 BYTE   W12
 BYTE   N10  Gn3  v108
 BYTE   W12
 BYTE   N04  An3  v116
 BYTE   W02
 BYTE   BEND   c_v+22
 BYTE   W01
 BYTE   BEND   c_v+37
 BYTE   W01
 BYTE   BEND   c_v+63
 BYTE   W08
//  #07 //077   ----------------------------------------
 BYTE   GoTo
  POIN2 Label_010085F7
//  #07 //078   ----------------------------------------
 BYTE   W13
 BYTE   FINE

//**************** Track 8 (Midi-Chn.7) ****************//

JokingMotive_008:
//  #08 //000   ----------------------------------------
 BYTE   KEYSH   JokingMotive_key+0
 BYTE   VOICE   74
 BYTE   VOL   16*JokingMotive_mvl/mxv
 BYTE   PAN   c_v+53
 BYTE   BEND   c_v+0
 BYTE   W96
//  #08 //001   ----------------------------------------
 BYTE   W96
//  #08 //002   ----------------------------------------
 BYTE   W96
//  #08 //003   ----------------------------------------
Label_01008D9D:
 BYTE   W36
 BYTE   N03  An3  v112
 BYTE   W12
 BYTE   N03
 BYTE   W12
 BYTE   An3  v116
 BYTE   W12
 BYTE   N12  An3  v120
 BYTE   W12
 BYTE   N10  Gn3  v112
 BYTE   W02
 BYTE   BEND   c_v+22
 BYTE   W01
 BYTE   BEND   c_v+37
 BYTE   W01
 BYTE   BEND   c_v+63
 BYTE   W08
 BYTE   PEND 
//  #08 //004   ----------------------------------------
Label_01008DB7:
 BYTE   N04  An3  v116
 BYTE   W12
 BYTE   N24  As3  v120
 BYTE   W02
 BYTE   BEND   c_v+58
 BYTE   W01
 BYTE   BEND   c_v+0
 BYTE   W80
 BYTE   W01
 BYTE   PEND 
//  #08 //005   ----------------------------------------
Label_01008DC6:
 BYTE   W36
 BYTE   N03  An3  v112
 BYTE   W12
 BYTE   An3  v116
 BYTE   W12
 BYTE   N03
 BYTE   W12
 BYTE   N11
 BYTE   W12
 BYTE   N12  Gn3  v108
 BYTE   W01
 BYTE   BEND   c_v+3
 BYTE   W01
 BYTE   BEND   c_v+17
 BYTE   W01
 BYTE   BEND   c_v+37
 BYTE   W01
 BYTE   BEND   c_v+47
 BYTE   W01
 BYTE   BEND   c_v+55
 BYTE   W01
 BYTE   BEND   c_v+63
 BYTE   W06
 BYTE   PEND 
//  #08 //006   ----------------------------------------
 BYTE   N04  An3  v112
 BYTE   W06
 BYTE   BEND   c_v+49
 BYTE   W01
 BYTE   BEND   c_v+3
 BYTE   W01
 BYTE   BEND   c_v+0
 BYTE   W04
 BYTE   N23  Dn4  v116
 BYTE   W24
 BYTE   N15
 BYTE   W24
 BYTE   N23  Cn4  v120
 BYTE   W36
//  #08 //007   ----------------------------------------
 BYTE   W48
 BYTE   W02
 BYTE   BEND   c_v+1
 BYTE   W01
 BYTE   BEND   c_v+14
 BYTE   W01
 BYTE   BEND   c_v+38
 BYTE   W01
 BYTE   BEND   c_v+55
 BYTE   W01
 BYTE   BEND   c_v+63
 BYTE   W06
 BYTE   N03  An3  v112
 BYTE   W01
 BYTE   BEND   c_v+62
 BYTE   W01
 BYTE   BEND   c_v+46
 BYTE   W01
 BYTE   BEND   c_v+8
 BYTE   W01
 BYTE   BEND   c_v+0
 BYTE   W08
 BYTE   N21  Dn4  v116
 BYTE   W24
//  #08 //008   ----------------------------------------
 BYTE   N16  Cn4  v120
 BYTE   W24
 BYTE   N13  Dn4  v116
 BYTE   W12
 BYTE   N04  En4  v112
 BYTE   W12
 BYTE   N03  An3
 BYTE   W12
 BYTE   N23  Cn4  v120
 BYTE   W24
 BYTE   N06  Dn4  v116
 BYTE   W12
//  #08 //009   ----------------------------------------
 BYTE   W17
 BYTE   BEND   c_v-3
 BYTE   W01
 BYTE   BEND   c_v-15
 BYTE   W01
 BYTE   BEND   c_v-34
 BYTE   W01
 BYTE   BEND   c_v-44
 BYTE   W01
 BYTE   BEND   c_v-51
 BYTE   W02
 BYTE   BEND   c_v-48
 BYTE   W01
 BYTE   BEND   c_v-37
 BYTE   W01
 BYTE   BEND   c_v-29
 BYTE   W01
 BYTE   BEND   c_v-19
 BYTE   W01
 BYTE   BEND   c_v-12
 BYTE   W01
 BYTE   BEND   c_v-3
 BYTE   W01
 BYTE   BEND   c_v+0
 BYTE   W19
 BYTE   N15  En4  v120
 BYTE   W24
 BYTE   N10  Gn4  v116
 BYTE   W12
 BYTE   N05  En4
 BYTE   W08
 BYTE   BEND   c_v-14
 BYTE   W01
 BYTE   BEND   c_v-28
 BYTE   W01
 BYTE   BEND   c_v-42
 BYTE   W01
 BYTE   BEND   c_v-51
 BYTE   W01
//  #08 //010   ----------------------------------------
 BYTE   BEND   c_v-58
 BYTE   N12  Dn4
 BYTE   W01
 BYTE   BEND   c_v-54
 BYTE   W01
 BYTE   BEND   c_v-48
 BYTE   W01
 BYTE   BEND   c_v-44
 BYTE   W01
 BYTE   BEND   c_v-33
 BYTE   W01
 BYTE   BEND   c_v-24
 BYTE   W01
 BYTE   BEND   c_v+0
 BYTE   W06
 BYTE   N04  Cn4  v108
 BYTE   W12
 BYTE   N13  Dn4  v116
 BYTE   W12
 BYTE   N04  Cn4  v112
 BYTE   W12
 BYTE   N14  Cn4  v108
 BYTE   W12
 BYTE   N36  An3
 BYTE   W36
//  #08 //011   ----------------------------------------
 BYTE   PATT
  POIN2 Label_01008D9D
//  #08 //012   ----------------------------------------
 BYTE   PATT
  POIN2 Label_01008DB7
//  #08 //013   ----------------------------------------
 BYTE   PATT
  POIN2 Label_01008DC6
//  #08 //014   ----------------------------------------
 BYTE   N04  An3  v112
 BYTE   W06
 BYTE   BEND   c_v+49
 BYTE   W01
 BYTE   BEND   c_v+3
 BYTE   W01
 BYTE   BEND   c_v+0
 BYTE   W04
 BYTE   N23  Dn4  v116
 BYTE   W24
 BYTE   N15
 BYTE   W24
 BYTE   N22  Cn4
 BYTE   W24
 BYTE   N08  Dn4  v108
 BYTE   W06
 BYTE   N10  En4  v116
 BYTE   W06
//  #08 //015   ----------------------------------------
 BYTE   W36
 BYTE   N03  Gn4  v112
 BYTE   W12
 BYTE   N03
 BYTE   W12
 BYTE   N04  Gn4  v116
 BYTE   W12
 BYTE   N04
 BYTE   W12
 BYTE   N04
 BYTE   W12
//  #08 //016   ----------------------------------------
 BYTE   N03  Gn4  v120
 BYTE   W12
 BYTE   N24
 BYTE   W22
 BYTE   BEND   c_v-4
 BYTE   W01
 BYTE   BEND   c_v-18
 BYTE   W01
 BYTE   BEND   c_v-24
 BYTE   N05  An4  v116
 BYTE   W01
 BYTE   BEND   c_v-28
 BYTE   W03
 BYTE   BEND   c_v-21
 BYTE   W01
 BYTE   BEND   c_v-15
 BYTE   W01
 BYTE   BEND   c_v-1
 BYTE   W01
 BYTE   BEND   c_v+0
 BYTE   W17
 BYTE   N21  Ds4  v120
 BYTE   W24
 BYTE   N05  Dn4  v112
 BYTE   W03
 BYTE   BEND   c_v-1
 BYTE   W01
 BYTE   BEND   c_v-3
 BYTE   W02
 BYTE   BEND   c_v-1
 BYTE   W01
 BYTE   BEND   c_v+0
 BYTE   W05
//  #08 //017   ----------------------------------------
 BYTE   N04  Cn4  v116
 BYTE   W12
 BYTE   N23  Dn4  v120
 BYTE   W24
 BYTE   N05  An3  v108
 BYTE   W24
 BYTE   N05
 BYTE   W12
 BYTE   N06
 BYTE   W12
 BYTE   N04  An3  v112
 BYTE   W10
 BYTE   BEND   c_v-15
 BYTE   W01
 BYTE   BEND   c_v-36
 BYTE   W01
//  #08 //018   ----------------------------------------
 BYTE   BEND   c_v-46
 BYTE   N14  Cn4  v116
 BYTE   W01
 BYTE   BEND   c_v-49
 BYTE   W02
 BYTE   BEND   c_v-45
 BYTE   W01
 BYTE   BEND   c_v-33
 BYTE   W01
 BYTE   BEND   c_v-24
 BYTE   W01
 BYTE   BEND   c_v-16
 BYTE   W01
 BYTE   BEND   c_v-4
 BYTE   W01
 BYTE   BEND   c_v+0
 BYTE   W04
 BYTE   N05  Dn4
 BYTE   W12
 BYTE   N13  Ds4  v120
 BYTE   W12
 BYTE   N09  Dn4  v116
 BYTE   W12
 BYTE   N08  Cn4  v120
 BYTE   W12
 BYTE   N54  An3  v116
 BYTE   W36
//  #08 //019   ----------------------------------------
 BYTE   W36
 BYTE   N04  An3  v112
 BYTE   W12
 BYTE   N13  An3  v116
 BYTE   W12
 BYTE   N05  Cn4  v108
 BYTE   W12
 BYTE   N12  Cn4  v120
 BYTE   W12
 BYTE   N06  Dn4  v112
 BYTE   W12
//  #08 //020   ----------------------------------------
 BYTE   En4  v120
 BYTE   W12
 BYTE   N05  Gn4
 BYTE   W03
 BYTE   BEND   c_v+12
 BYTE   W01
 BYTE   BEND   c_v+28
 BYTE   W01
 BYTE   BEND   c_v+46
 BYTE   W01
 BYTE   BEND   c_v+63
 BYTE   W06
 BYTE   N24
 BYTE   W02
 BYTE   BEND   c_v+62
 BYTE   W01
 BYTE   BEND   c_v+54
 BYTE   W01
 BYTE   BEND   c_v+0
 BYTE   W68
//  #08 //021   ----------------------------------------
Label_01008F53:
 BYTE   W07
 BYTE   BEND   c_v-2
 BYTE   W01
 BYTE   BEND   c_v-11
 BYTE   W01
 BYTE   BEND   c_v-24
 BYTE   W01
 BYTE   BEND   c_v-32
 BYTE   W01
 BYTE   BEND   c_v-37
 BYTE   W01
 BYTE   BEND   c_v-40
 BYTE   W02
 BYTE   BEND   c_v-36
 BYTE   W01
 BYTE   BEND   c_v-21
 BYTE   W01
 BYTE   BEND   c_v-2
 BYTE   W01
 BYTE   BEND   c_v+0
 BYTE   W19
 BYTE   N12  Cn5  v120
 BYTE   W24
 BYTE   N07  An4
 BYTE   W24
 BYTE   N04  Gn4  v116
 BYTE   W12
 BYTE   PEND 
//  #08 //022   ----------------------------------------
Label_01008F75:
 BYTE   N12  En4  v116
 BYTE   W12
 BYTE   N04  Dn4  v112
 BYTE   W12
 BYTE   N17  En4  v120
 BYTE   W24
 BYTE   N07
 BYTE   W48
 BYTE   PEND 
//  #08 //023   ----------------------------------------
Label_01008F84:
 BYTE   W15
 BYTE   BEND   c_v+22
 BYTE   W01
 BYTE   BEND   c_v+36
 BYTE   W01
 BYTE   BEND   c_v+48
 BYTE   W01
 BYTE   BEND   c_v+63
 BYTE   W05
 BYTE   BEND   c_v+54
 BYTE   W01
 BYTE   BEND   c_v+43
 BYTE   W01
 BYTE   BEND   c_v+23
 BYTE   W01
 BYTE   BEND   c_v+11
 BYTE   W01
 BYTE   BEND   c_v+0
 BYTE   W09
 BYTE   N18  Dn4  v116
 BYTE   W01
 BYTE   BEND   c_v+13
 BYTE   W01
 BYTE   BEND   c_v+28
 BYTE   W01
 BYTE   BEND   c_v+49
 BYTE   W01
 BYTE   BEND   c_v+62
 BYTE   W01
 BYTE   BEND   c_v+63
 BYTE   W06
 BYTE   BEND   c_v+62
 BYTE   W01
 BYTE   BEND   c_v+53
 BYTE   W01
 BYTE   BEND   c_v+0
 BYTE   W11
 BYTE   N11  Dn4  v112
 BYTE   W12
 BYTE   N13
 BYTE   W12
 BYTE   N05  Cn4
 BYTE   W12
 BYTE   PEND 
//  #08 //024   ----------------------------------------
Label_01008FB7:
 BYTE   N10  Dn4  v116
 BYTE   W12
 BYTE   N04  Cn4
 BYTE   W12
 BYTE   N12  Dn4  v120
 BYTE   W12
 BYTE   N05  En4  v116
 BYTE   W12
 BYTE   N11  Gn4  v120
 BYTE   W12
 BYTE   N15  An4
 BYTE   W36
 BYTE   PEND 
//  #08 //025   ----------------------------------------
Label_01008FCE:
 BYTE   W36
 BYTE   N04  Gn4  v108
 BYTE   W12
 BYTE   N09  An4  v116
 BYTE   W12
 BYTE   N04  Gn4
 BYTE   W12
 BYTE   N11  An4  v120
 BYTE   W12
 BYTE   N05  Gn4  v112
 BYTE   W05
 BYTE   BEND   c_v+2
 BYTE   W02
 BYTE   BEND   c_v+4
 BYTE   W04
 BYTE   BEND   c_v+0
 BYTE   W01
 BYTE   PEND 
//  #08 //026   ----------------------------------------
Label_01008FEA:
 BYTE   N05  An4  v120
 BYTE   W12
 BYTE   TIE  Cn5
 BYTE   W40
 BYTE   W01
 BYTE   MOD 1
 BYTE   W01
 BYTE   MOD 6
 BYTE   W02
 BYTE   MOD 9
 BYTE   W01
 BYTE   MOD 15
 BYTE   W01
 BYTE   MOD 17
 BYTE   W01
 BYTE   MOD 21
 BYTE   W01
 BYTE   MOD 26
 BYTE   W01
 BYTE   MOD 29
 BYTE   W01
 BYTE   MOD 33
 BYTE   W01
 BYTE   MOD 36
 BYTE   W01
 BYTE   MOD 44
 BYTE   W01
 BYTE   MOD 48
 BYTE   W01
 BYTE   MOD 52
 BYTE   W01
 BYTE   MOD 60
 BYTE   W01
 BYTE   MOD 65
 BYTE   W01
 BYTE   MOD 72
 BYTE   W01
 BYTE   MOD 77
 BYTE   W01
 BYTE   MOD 82
 BYTE   W01
 BYTE   MOD 90
 BYTE   W01
 BYTE   MOD 94
 BYTE   W01
 BYTE   MOD 100
 BYTE   W01
 BYTE   MOD 103
 BYTE   W01
 BYTE   MOD 106
 BYTE   W01
 BYTE   MOD 108
 BYTE   W01
 BYTE   MOD 110
 BYTE   W01
 BYTE   MOD 113
 BYTE   W01
 BYTE   MOD 115
 BYTE   W01
 BYTE   MOD 117
 BYTE   W02
 BYTE   MOD 120
 BYTE   W01
 BYTE   MOD 122
 BYTE   W02
 BYTE   MOD 124
 BYTE   W04
 BYTE   MOD 118
 BYTE   W01
 BYTE   MOD 104
 BYTE   W01
 BYTE   MOD 90
 BYTE   W01
 BYTE   MOD 72
 BYTE   W01
 BYTE   MOD 42
 BYTE   W01
 BYTE   MOD 21
 BYTE   W01
 BYTE   PEND 
//  #08 //027   ----------------------------------------
Label_0100903E:
 BYTE   MOD 1
 BYTE   W01
 BYTE   MOD 0
 BYTE   W08
 BYTE   BEND   c_v-4
 BYTE   W01
 BYTE   BEND   c_v-18
 BYTE   W04
 BYTE   BEND   c_v-8
 BYTE   W01
 BYTE   BEND   c_v+0
 BYTE   W15
 BYTE   PEND 
 BYTE   EOT
 BYTE   Cn5
 BYTE   W06
 BYTE   N06  An4  v116
 BYTE   W08
 BYTE   BEND   c_v-8
 BYTE   W01
 BYTE   BEND   c_v-25
 BYTE   W01
 BYTE   BEND   c_v-42
 BYTE   W01
 BYTE   BEND   c_v-64
 BYTE   W01
 BYTE   N13  Gn4  v120
 BYTE   W02
 BYTE   BEND   c_v-61
 BYTE   W01
 BYTE   BEND   c_v-53
 BYTE   W01
 BYTE   BEND   c_v-36
 BYTE   W01
 BYTE   BEND   c_v-23
 BYTE   W01
 BYTE   BEND   c_v-4
 BYTE   W01
 BYTE   BEND   c_v+0
 BYTE   W05
 BYTE   N04  An4  v116
 BYTE   W12
 BYTE   N10  Ds4  v120
 BYTE   W12
 BYTE   N06  Dn4  v108
 BYTE   W12
//  #08 //028   ----------------------------------------
Label_0100907A:
 BYTE   N14  Cn4  v120
 BYTE   W24
 BYTE   N05  En4  v116
 BYTE   W12
 BYTE   N04
 BYTE   W12
 BYTE   N04
 BYTE   W12
 BYTE   N04
 BYTE   W12
 BYTE   N09  Gn4  v120
 BYTE   W24
 BYTE   PEND 
//  #08 //029   ----------------------------------------
Label_0100908D:
 BYTE   N14  En4  v116
 BYTE   W12
 BYTE   N12  Dn4  v112
 BYTE   W24
 BYTE   N04  Cn4  v116
 BYTE   W12
 BYTE   N12  Dn4
 BYTE   W12
 BYTE   N04  Cn4  v112
 BYTE   W12
 BYTE   N13  Dn4  v116
 BYTE   W12
 BYTE   N08  En4  v120
 BYTE   W12
 BYTE   PEND 
//  #08 //030   ----------------------------------------
Label_010090A9:
 BYTE   W24
 BYTE   N04  En4  v116
 BYTE   W12
 BYTE   N04
 BYTE   W12
 BYTE   N04
 BYTE   W12
 BYTE   En4  v108
 BYTE   W02
 BYTE   BEND   c_v+16
 BYTE   W01
 BYTE   BEND   c_v+32
 BYTE   W01
 BYTE   BEND   c_v+53
 BYTE   W01
 BYTE   BEND   c_v+63
 BYTE   W07
 BYTE   BEND   c_v+57
 BYTE   N24  Gn4  v120
 BYTE   W01
 BYTE   BEND   c_v+44
 BYTE   W01
 BYTE   BEND   c_v+0
 BYTE   W22
 BYTE   PEND 
//  #08 //031   ----------------------------------------
Label_010090C9:
 BYTE   W12
 BYTE   N10  En4  v116
 BYTE   W24
 BYTE   N04  Dn4  v112
 BYTE   W12
 BYTE   N12
 BYTE   W12
 BYTE   N05  Cn4
 BYTE   W12
 BYTE   N13  Dn4  v120
 BYTE   W12
 BYTE   N11  Cn4  v116
 BYTE   W12
 BYTE   PEND 
//  #08 //032   ----------------------------------------
Label_010090E0:
 BYTE   W48
 BYTE   W02
 BYTE   BEND   c_v+14
 BYTE   W01
 BYTE   BEND   c_v+34
 BYTE   W01
 BYTE   BEND   c_v+59
 BYTE   W01
 BYTE   BEND   c_v+63
 BYTE   W07
 BYTE   N03  En4  v112
 BYTE   W07
 BYTE   BEND   c_v+52
 BYTE   W01
 BYTE   BEND   c_v+0
 BYTE   W04
 BYTE   N36  Gn4  v120
 BYTE   W24
 BYTE   PEND 
//  #08 //033   ----------------------------------------
Label_010090F9:
 BYTE   W12
 BYTE   N14  En4  v120
 BYTE   W24
 BYTE   N04  Dn4  v116
 BYTE   W12
 BYTE   N12  Dn4  v108
 BYTE   W12
 BYTE   N06  Cn4  v112
 BYTE   W12
 BYTE   N12  Dn4  v116
 BYTE   W12
 BYTE   N07  Cn4  v108
 BYTE   W12
 BYTE   PEND 
//  #08 //034   ----------------------------------------
Label_01009113:
 BYTE   N06  Dn4  v116
 BYTE   W12
 BYTE   Dn4  v112
 BYTE   W12
 BYTE   N15  En4  v120
 BYTE   W12
 BYTE   N05  Dn4  v116
 BYTE   W12
 BYTE   N07  Cn4  v108
 BYTE   W12
 BYTE   N56  An3  v116
 BYTE   W36
 BYTE   PEND 
//  #08 //035   ----------------------------------------
Label_0100912B:
 BYTE   W20
 BYTE   BEND   c_v-4
 BYTE   W01
 BYTE   BEND   c_v-12
 BYTE   W01
 BYTE   BEND   c_v-28
 BYTE   W01
 BYTE   BEND   c_v-38
 BYTE   W01
 BYTE   BEND   c_v-51
 BYTE   W04
 BYTE   BEND   c_v-48
 BYTE   W01
 BYTE   BEND   c_v-41
 BYTE   W01
 BYTE   BEND   c_v-28
 BYTE   W01
 BYTE   BEND   c_v-19
 BYTE   W01
 BYTE   BEND   c_v-8
 BYTE   W01
 BYTE   BEND   c_v-1
 BYTE   W01
 BYTE   BEND   c_v+0
 BYTE   W14
 BYTE   N15  En4  v120
 BYTE   W24
 BYTE   N10  Dn4  v116
 BYTE   W12
 BYTE   N05  Cn4  v108
 BYTE   W12
 BYTE   PEND 
//  #08 //036   ----------------------------------------
 BYTE   N11  Dn4  v120
 BYTE   W12
 BYTE   N05  Cn4  v116
 BYTE   W12
 BYTE   N23  An3
 BYTE   W72
//  #08 //037   ----------------------------------------
 BYTE   W96
//  #08 //038   ----------------------------------------
 BYTE   W96
//  #08 //039   ----------------------------------------
 BYTE   W96
//  #08 //040   ----------------------------------------
 BYTE   W12
 BYTE   N07  Dn4  v112
 BYTE   W06
 BYTE   N08  Ds4
 BYTE   W06
 BYTE   En4
 BYTE   W06
 BYTE   Gn4  v116
 BYTE   W06
 BYTE   N09  En4  v108
 BYTE   W06
 BYTE   N07  Ds4  v112
 BYTE   W06
 BYTE   N08  Dn4
 BYTE   W06
 BYTE   Ds4  v108
 BYTE   W06
 BYTE   En4  v116
 BYTE   W06
 BYTE   N07  Gn4  v120
 BYTE   W06
 BYTE   N08  En4  v100
 BYTE   W06
 BYTE   N06  Ds4  v108
 BYTE   W06
 BYTE   N07  Dn4  v116
 BYTE   W06
 BYTE   N06  Ds4  v104
 BYTE   W06
//  #08 //041   ----------------------------------------
 BYTE   N09  En4  v112
 BYTE   W06
 BYTE   N07  Gn4  v116
 BYTE   W06
 BYTE   En4  v112
 BYTE   W06
 BYTE   N06  Ds4
 BYTE   W06
 BYTE   Dn4
 BYTE   W06
 BYTE   N07  Ds4  v100
 BYTE   W06
 BYTE   En4  v116
 BYTE   W06
 BYTE   N06  Gn4  v120
 BYTE   W06
 BYTE   N08  En4  v108
 BYTE   W06
 BYTE   N05  Ds4  v112
 BYTE   W06
 BYTE   N07  Dn4
 BYTE   W06
 BYTE   Ds4
 BYTE   W06
 BYTE   N08  En4  v116
 BYTE   W06
 BYTE   N07  Gn4  v120
 BYTE   W06
 BYTE   N08  En4  v112
 BYTE   W06
 BYTE   N05  Ds4  v108
 BYTE   W06
//  #08 //042   ----------------------------------------
 BYTE   N06  Dn4
 BYTE   W06
 BYTE   N07  Ds4  v100
 BYTE   W06
 BYTE   En4  v116
 BYTE   W06
 BYTE   Gn4  v120
 BYTE   W06
 BYTE   En4  v108
 BYTE   W06
 BYTE   Ds4  v112
 BYTE   W06
 BYTE   N08  Dn4  v120
 BYTE   W06
 BYTE   N06  Ds4  v112
 BYTE   W06
 BYTE   N08  En4  v116
 BYTE   W06
 BYTE   N07  Gn4  v120
 BYTE   W06
 BYTE   N08  En4  v112
 BYTE   W06
 BYTE   N06  Ds4
 BYTE   W06
 BYTE   N07  Dn4  v120
 BYTE   W06
 BYTE   N06  Ds4  v116
 BYTE   W06
 BYTE   N08  En4
 BYTE   W06
 BYTE   N07  Gn4  v120
 BYTE   W06
//  #08 //043   ----------------------------------------
 BYTE   N08  En4  v108
 BYTE   W06
 BYTE   N06  Ds4  v112
 BYTE   W06
 BYTE   BEND   c_v-1
 BYTE   N07  Dn4  v116
 BYTE   W01
 BYTE   BEND   c_v-50
 BYTE   W01
 BYTE   BEND   c_v-49
 BYTE   W01
 BYTE   BEND   c_v-52
 BYTE   W01
 BYTE   BEND   c_v-53
 BYTE   W01
 BYTE   BEND   c_v-49
 BYTE   W01
 BYTE   BEND   c_v-39
 BYTE   N07  Ds4  v104
 BYTE   W01
 BYTE   BEND   c_v-21
 BYTE   W01
 BYTE   BEND   c_v-4
 BYTE   W01
 BYTE   BEND   c_v+0
 BYTE   W03
 BYTE   N08  En4  v120
 BYTE   W06
 BYTE   N04  Gn4
 BYTE   W03
 BYTE   MOD 6
 BYTE   W01
 BYTE   MOD 18
 BYTE   W02
 BYTE   MOD 32
 BYTE   N40  An4  v124
 BYTE   W02
 BYTE   MOD 49
 BYTE   W02
 BYTE   MOD 57
 BYTE   W01
 BYTE   MOD 66
 BYTE   W01
 BYTE   MOD 74
 BYTE   W01
 BYTE   MOD 85
 BYTE   W03
 BYTE   MOD 93
 BYTE   W04
 BYTE   MOD 100
 BYTE   W03
 BYTE   MOD 90
 BYTE   W01
 BYTE   MOD 27
 BYTE   W01
 BYTE   MOD 0
 BYTE   W28
 BYTE   W01
 BYTE   N02  Gn4  v120
 BYTE   W12
//  #08 //044   ----------------------------------------
 BYTE   N06  En4
 BYTE   W03
 BYTE   MOD 1
 BYTE   W01
 BYTE   MOD 59
 BYTE   W01
 BYTE   MOD 97
 BYTE   W01
 BYTE   MOD 127
 BYTE   N05  Dn4
 BYTE   W06
 BYTE   N04  Cn4
 BYTE   W01
 BYTE   MOD 111
 BYTE   W01
 BYTE   MOD 25
 BYTE   W01
 BYTE   MOD 0
 BYTE   W09
 BYTE   N15  Dn4  v124
 BYTE   W12
 BYTE   N04  Cn4  v120
 BYTE   W12
 BYTE   N11
 BYTE   W12
 BYTE   N05  An3  v124
 BYTE   W36
//  #08 //045   ----------------------------------------
 BYTE   W12
 BYTE   Gn3  v120
 BYTE   W06
 BYTE   N06  An3  v116
 BYTE   W06
 BYTE   N12  Cn4  v124
 BYTE   W12
 BYTE   N04  An3  v116
 BYTE   W12
 BYTE   N12  An3  v127
 BYTE   W10
 BYTE   BEND   c_v-6
 BYTE   W01
 BYTE   BEND   c_v-33
 BYTE   W01
 BYTE   BEND   c_v-48
 BYTE   N02  Gn3  v120
 BYTE   W01
 BYTE   BEND   c_v-52
 BYTE   W01
 BYTE   BEND   c_v-55
 BYTE   W01
 BYTE   BEND   c_v-57
 BYTE   W01
 BYTE   BEND   c_v-56
 BYTE   W01
 BYTE   BEND   c_v-52
 BYTE   W01
 BYTE   BEND   c_v-45
 BYTE   W01
 BYTE   BEND   c_v-34
 BYTE   W01
 BYTE   BEND   c_v-23
 BYTE   W01
 BYTE   BEND   c_v+0
 BYTE   W03
 BYTE   N09  An3  v124
 BYTE   W24
//  #08 //046   ----------------------------------------
 BYTE   N06  Ds3  v120
 BYTE   W06
 BYTE   N07  Dn3
 BYTE   W03
 BYTE   MOD 13
 BYTE   W01
 BYTE   MOD 23
 BYTE   W01
 BYTE   MOD 30
 BYTE   W01
 BYTE   MOD 8
 BYTE   N04  Cn3  v116
 BYTE   W01
 BYTE   MOD 0
 BYTE   W11
 BYTE   N13  Dn3  v124
 BYTE   W12
 BYTE   MOD 13
 BYTE   N04  Cn3  v116
 BYTE   W01
 BYTE   MOD 22
 BYTE   W01
 BYTE   MOD 52
 BYTE   W01
 BYTE   MOD 64
 BYTE   W02
 BYTE   MOD 79
 BYTE   W01
 BYTE   MOD 89
 BYTE   W02
 BYTE   MOD 99
 BYTE   W01
 BYTE   MOD 116
 BYTE   W02
 BYTE   MOD 127
 BYTE   W01
 BYTE   N56  An2  v112
 BYTE   W32
 BYTE   W01
 BYTE   MOD 110
 BYTE   W01
 BYTE   MOD 83
 BYTE   W01
 BYTE   MOD 27
 BYTE   W01
 BYTE   MOD 0
 BYTE   W12
//  #08 //047   ----------------------------------------
 BYTE   W12
 BYTE   N04  Cn3  v124
 BYTE   W24
 BYTE   Dn3
 BYTE   W24
 BYTE   N03  Ds3  v120
 BYTE   W24
 BYTE   N04  En3  v124
 BYTE   W07
 BYTE   BEND   c_v-36
 BYTE   W01
 BYTE   BEND   c_v-64
 BYTE   W04
//  #08 //048   ----------------------------------------
 BYTE   N13  Gn3  v127
 BYTE   W01
 BYTE   BEND   c_v-62
 BYTE   W01
 BYTE   BEND   c_v-48
 BYTE   W01
 BYTE   BEND   c_v-32
 BYTE   W01
 BYTE   BEND   c_v-15
 BYTE   W01
 BYTE   BEND   c_v+0
 BYTE   W07
 BYTE   N03  An3  v124
 BYTE   W12
 BYTE   N56  Dn4  v127
 BYTE   W07
 BYTE   MOD 2
 BYTE   W01
 BYTE   MOD 16
 BYTE   W01
 BYTE   MOD 29
 BYTE   W01
 BYTE   MOD 41
 BYTE   W01
 BYTE   MOD 65
 BYTE   W01
 BYTE   MOD 72
 BYTE   W01
 BYTE   MOD 82
 BYTE   W02
 BYTE   MOD 93
 BYTE   W02
 BYTE   MOD 110
 BYTE   W01
 BYTE   MOD 116
 BYTE   W01
 BYTE   MOD 127
 BYTE   W15
 BYTE   MOD 95
 BYTE   W01
 BYTE   MOD 46
 BYTE   W01
 BYTE   MOD 0
 BYTE   W24
 BYTE   N02  Cn4  v120
 BYTE   W12
//  #08 //049   ----------------------------------------
 BYTE   N15  Cn4  v127
 BYTE   W12
 BYTE   N05  Dn4  v124
 BYTE   W24
 BYTE   An3  v127
 BYTE   W24
 BYTE   N04  En3  v120
 BYTE   W12
 BYTE   N05
 BYTE   W06
 BYTE   N08  Gn3
 BYTE   W06
 BYTE   N03  An3  v124
 BYTE   W08
 BYTE   BEND   c_v-34
 BYTE   W01
 BYTE   BEND   c_v-51
 BYTE   W01
 BYTE   BEND   c_v-53
 BYTE   W01
 BYTE   BEND   c_v-52
 BYTE   W01
//  #08 //050   ----------------------------------------
 BYTE   N13  Cn4
 BYTE   W01
 BYTE   BEND   c_v-46
 BYTE   W01
 BYTE   BEND   c_v-27
 BYTE   W01
 BYTE   BEND   c_v-12
 BYTE   W01
 BYTE   BEND   c_v+0
 BYTE   W08
 BYTE   N03  An3
 BYTE   W11
 BYTE   MOD 10
 BYTE   W01
 BYTE   MOD 23
 BYTE   N60  Dn4  v127
 BYTE   W01
 BYTE   MOD 43
 BYTE   W01
 BYTE   MOD 55
 BYTE   W01
 BYTE   MOD 70
 BYTE   W01
 BYTE   MOD 89
 BYTE   W01
 BYTE   MOD 99
 BYTE   W01
 BYTE   MOD 116
 BYTE   W01
 BYTE   MOD 127
 BYTE   W16
 BYTE   MOD 117
 BYTE   W01
 BYTE   MOD 99
 BYTE   W01
 BYTE   MOD 84
 BYTE   W01
 BYTE   MOD 67
 BYTE   W01
 BYTE   MOD 22
 BYTE   W01
 BYTE   MOD 7
 BYTE   W01
 BYTE   MOD 0
 BYTE   W30
 BYTE   W01
 BYTE   N04  Cn4  v116
 BYTE   W12
//  #08 //051   ----------------------------------------
 BYTE   N13  Cn4  v124
 BYTE   W06
 BYTE   BEND   c_v-26
 BYTE   W01
 BYTE   BEND   c_v-43
 BYTE   W01
 BYTE   BEND   c_v-48
 BYTE   W01
 BYTE   BEND   c_v-53
 BYTE   W01
 BYTE   BEND   c_v-57
 BYTE   W01
 BYTE   BEND   c_v-63
 BYTE   W01
 BYTE   BEND   c_v-60
 BYTE   N13  Dn4
 BYTE   W01
 BYTE   BEND   c_v-56
 BYTE   W01
 BYTE   BEND   c_v-52
 BYTE   W01
 BYTE   BEND   c_v-45
 BYTE   W01
 BYTE   BEND   c_v-39
 BYTE   W01
 BYTE   BEND   c_v-29
 BYTE   W01
 BYTE   BEND   c_v-3
 BYTE   W01
 BYTE   BEND   c_v+0
 BYTE   W17
 BYTE   N17  En4  v127
 BYTE   W24
 BYTE   N03  Dn4  v124
 BYTE   W12
 BYTE   N13  Cn4  v127
 BYTE   W12
 BYTE   N02  Dn4  v120
 BYTE   W12
//  #08 //052   ----------------------------------------
 BYTE   N12  Dn4  v124
 BYTE   W06
 BYTE   BEND   c_v-19
 BYTE   W01
 BYTE   BEND   c_v-54
 BYTE   W01
 BYTE   BEND   c_v-64
 BYTE   W04
 BYTE   BEND   c_v-56
 BYTE   N14  An3
 BYTE   W01
 BYTE   BEND   c_v-46
 BYTE   W01
 BYTE   BEND   c_v-35
 BYTE   W01
 BYTE   BEND   c_v-25
 BYTE   W01
 BYTE   BEND   c_v-6
 BYTE   W01
 BYTE   BEND   c_v+0
 BYTE   W19
 BYTE   N18  En4
 BYTE   W24
 BYTE   N05  Dn4  v120
 BYTE   W12
 BYTE   N13  Cn4  v124
 BYTE   W04
 BYTE   BEND   c_v-4
 BYTE   W01
 BYTE   BEND   c_v-41
 BYTE   W01
 BYTE   BEND   c_v-62
 BYTE   W01
 BYTE   BEND   c_v-64
 BYTE   W02
 BYTE   BEND   c_v-64
 BYTE   W01
 BYTE   BEND   c_v-64
 BYTE   W01
 BYTE   BEND   c_v-58
 BYTE   W01
 BYTE   BEND   c_v-52
 BYTE   N11  Dn4
 BYTE   W01
 BYTE   BEND   c_v-47
 BYTE   W01
 BYTE   BEND   c_v-41
 BYTE   W01
 BYTE   BEND   c_v-31
 BYTE   W01
 BYTE   BEND   c_v-19
 BYTE   W01
 BYTE   BEND   c_v+0
 BYTE   W07
//  #08 //053   ----------------------------------------
 BYTE   W12
 BYTE   N16  En4  v127
 BYTE   W24
 BYTE   N05  Dn4  v124
 BYTE   W06
 BYTE   BEND   c_v-10
 BYTE   W01
 BYTE   BEND   c_v-56
 BYTE   W01
 BYTE   BEND   c_v-64
 BYTE   W04
 BYTE   N07  Cn4  v127
 BYTE   W01
 BYTE   BEND   c_v-42
 BYTE   W01
 BYTE   BEND   c_v-18
 BYTE   W01
 BYTE   BEND   c_v+0
 BYTE   W09
 BYTE   N05  Dn4  v124
 BYTE   W12
 BYTE   N09  En4  v127
 BYTE   W06
 BYTE   N06  Dn4  v124
 BYTE   W06
 BYTE   N04  Cn4  v120
 BYTE   W08
 BYTE   BEND   c_v-34
 BYTE   W01
 BYTE   BEND   c_v-64
 BYTE   W03
//  #08 //054   ----------------------------------------
 BYTE   N13  Cn4  v124
 BYTE   W02
 BYTE   BEND   c_v-41
 BYTE   W01
 BYTE   BEND   c_v-20
 BYTE   W01
 BYTE   BEND   c_v+0
 BYTE   W08
 BYTE   N04  Dn4
 BYTE   W12
 BYTE   N14
 BYTE   W12
 BYTE   N04  Cn4  v116
 BYTE   W12
 BYTE   N11  Cn4  v124
 BYTE   W12
 BYTE   N04  An3
 BYTE   W12
 BYTE   Gn3  v120
 BYTE   W06
 BYTE   N07  An3
 BYTE   W06
 BYTE   N05  Cn4  v124
 BYTE   W12
//  #08 //055   ----------------------------------------
 BYTE   N12
 BYTE   W12
 BYTE   N05  An3
 BYTE   W12
 BYTE   N10  Gn3
 BYTE   W01
 BYTE   BEND   c_v-19
 BYTE   W01
 BYTE   BEND   c_v-41
 BYTE   W01
 BYTE   BEND   c_v-54
 BYTE   W02
 BYTE   BEND   c_v-46
 BYTE   W01
 BYTE   BEND   c_v-28
 BYTE   W01
 BYTE   BEND   c_v+0
 BYTE   W05
 BYTE   N04  An3  v120
 BYTE   W12
 BYTE   N14  En3  v124
 BYTE   W12
 BYTE   N03  Dn3  v120
 BYTE   W12
 BYTE   N11  Cn3  v124
 BYTE   W12
 BYTE   N04  An2  v127
 BYTE   W12
//  #08 //056   ----------------------------------------
 BYTE   N06  Gn2
 BYTE   W06
 BYTE   Gs2
 BYTE   W06
 BYTE   N12  An2  v124
 BYTE   W03
 BYTE   BEND   c_v+12
 BYTE   W01
 BYTE   BEND   c_v+28
 BYTE   W01
 BYTE   BEND   c_v+46
 BYTE   W01
 BYTE   BEND   c_v+63
 BYTE   W06
 BYTE   N24  Gn4  v120
 BYTE   W02
 BYTE   BEND   c_v+62
 BYTE   W01
 BYTE   BEND   c_v+54
 BYTE   W01
 BYTE   BEND   c_v+0
 BYTE   W68
//  #08 //057   ----------------------------------------
 BYTE   PATT
  POIN2 Label_01008F53
//  #08 //058   ----------------------------------------
 BYTE   PATT
  POIN2 Label_01008F75
//  #08 //059   ----------------------------------------
 BYTE   PATT
  POIN2 Label_01008F84
//  #08 //060   ----------------------------------------
 BYTE   PATT
  POIN2 Label_01008FB7
//  #08 //061   ----------------------------------------
 BYTE   PATT
  POIN2 Label_01008FCE
//  #08 //062   ----------------------------------------
 BYTE   PATT
  POIN2 Label_01008FEA
//  #08 //063   ----------------------------------------
 BYTE   PATT
  POIN2 Label_0100903E
//  #08 //064   ----------------------------------------
 BYTE   EOT
 BYTE   Cn5
 BYTE   W06
 BYTE   N06  An4  v116
 BYTE   W08
 BYTE   BEND   c_v-8
 BYTE   W01
 BYTE   BEND   c_v-25
 BYTE   W01
 BYTE   BEND   c_v-42
 BYTE   W01
 BYTE   BEND   c_v-64
 BYTE   W01
 BYTE   N13  Gn4  v120
 BYTE   W02
 BYTE   BEND   c_v-61
 BYTE   W01
 BYTE   BEND   c_v-53
 BYTE   W01
 BYTE   BEND   c_v-36
 BYTE   W01
 BYTE   BEND   c_v-23
 BYTE   W01
 BYTE   BEND   c_v-4
 BYTE   W01
 BYTE   BEND   c_v+0
 BYTE   W05
 BYTE   N04  An4  v116
 BYTE   W12
 BYTE   N10  Ds4  v120
 BYTE   W12
 BYTE   N06  Dn4  v112
 BYTE   W12
//  #08 //065   ----------------------------------------
 BYTE   PATT
  POIN2 Label_0100907A
//  #08 //066   ----------------------------------------
 BYTE   PATT
  POIN2 Label_0100908D
//  #08 //067   ----------------------------------------
 BYTE   PATT
  POIN2 Label_010090A9
//  #08 //068   ----------------------------------------
 BYTE   PATT
  POIN2 Label_010090C9
//  #08 //069   ----------------------------------------
 BYTE   PATT
  POIN2 Label_010090E0
//  #08 //070   ----------------------------------------
 BYTE   PATT
  POIN2 Label_010090F9
//  #08 //071   ----------------------------------------
 BYTE   PATT
  POIN2 Label_01009113
//  #08 //072   ----------------------------------------
 BYTE   PATT
  POIN2 Label_0100912B
//  #08 //073   ----------------------------------------
 BYTE   N11  Dn4  v120
 BYTE   W12
 BYTE   N05  Cn4  v116
 BYTE   W12
 BYTE   TIE  An3
 BYTE   W72
//  #08 //074   ----------------------------------------
 BYTE   W96
//  #08 //075   ----------------------------------------
 BYTE   W23
 BYTE   EOT
 BYTE   W72
 BYTE   W01
//  #08 //076   ----------------------------------------
 BYTE   W36
 BYTE   N03  An3  v112
 BYTE   W12
 BYTE   N03
 BYTE   W12
 BYTE   An3  v116
 BYTE   W12
 BYTE   N12  An3  v120
 BYTE   W12
 BYTE   N10  Gn3  v108
 BYTE   W02
 BYTE   BEND   c_v+22
 BYTE   W01
 BYTE   BEND   c_v+37
 BYTE   W01
 BYTE   BEND   c_v+63
 BYTE   W08
//  #08 //077   ----------------------------------------
 BYTE   GoTo
  POIN2 Label_01008DB7
//  #08 //078   ----------------------------------------
 BYTE   W13
 BYTE   FINE

//******************************************************//
	ALIGN 4

JokingMotive:
	BYTE	8	// NumTrks
	BYTE	0	// NumBlks
	BYTE	JokingMotive_pri	// Priority
	BYTE	JokingMotive_rev	// Reverb.
    
	POIN2	JokingMotive_grp
    
	POIN2	JokingMotive_001
	POIN2	JokingMotive_002
	POIN2	JokingMotive_003
	POIN2	JokingMotive_004
	POIN2	JokingMotive_005
	POIN2	JokingMotive_006
	POIN2	JokingMotive_007
	POIN2	JokingMotive_008

	
