//Event file generated from Sappy .s format.
	#include "MPlayDef.event"

	#define	KnockYouDown_grp  voicegroup000
	#define	KnockYouDown_pri  0
	#define	KnockYouDown_rev  0
	#define	KnockYouDown_mvl  127
	#define	KnockYouDown_key  0
	#define	KnockYouDown_tbs  1
	#define	KnockYouDown_exg  0
	#define	KnockYouDown_cmp  1

	// .rodata
	//	KnockYouDown
	ALIGN 4


//**************** Track 1 (Midi-Chn.0) ****************//

KnockYouDown_001:
//  #01 //000   ----------------------------------------
 BYTE   VOL   42*KnockYouDown_mvl/mxv
 BYTE   KEYSH   KnockYouDown_key+0
 BYTE   TEMPO   180*KnockYouDown_tbs/2
 BYTE   VOICE   38
 BYTE   N24  Bn0  v127
 BYTE   W24
 BYTE   N12
 BYTE   W12
 BYTE   N24  Bn1
 BYTE   W24
 BYTE   N12  Bn0
 BYTE   W12
 BYTE   N12
 BYTE   W12
 BYTE   Bn1
 BYTE   W12
//  #01 //001   ----------------------------------------
Label_0176F874:
 BYTE   N24  Bn0  v127
 BYTE   W24
 BYTE   N12  An1
 BYTE   W12
 BYTE   Bn1
 BYTE   W12
 BYTE   En1
 BYTE   W12
 BYTE   Fs1
 BYTE   W12
 BYTE   Cs1
 BYTE   W12
 BYTE   Dn1
 BYTE   W12
 BYTE   PEND 
//  #01 //002   ----------------------------------------
 BYTE   N24  Gn0
 BYTE   W24
 BYTE   N12
 BYTE   W12
 BYTE   N24  Gn1
 BYTE   W24
 BYTE   N12  Gn0
 BYTE   W12
 BYTE   N12
 BYTE   W12
 BYTE   Gn1
 BYTE   W12
//  #01 //003   ----------------------------------------
 BYTE   N24  Gn0
 BYTE   W24
 BYTE   N12  Bn0
 BYTE   W12
 BYTE   Cs1
 BYTE   W12
 BYTE   Dn1
 BYTE   W12
 BYTE   En1
 BYTE   W12
 BYTE   Dn1
 BYTE   W12
 BYTE   Cs1
 BYTE   W12
//  #01 //004   ----------------------------------------
Label_0176F8A5:
 BYTE   N24  Bn0  v127
 BYTE   W24
 BYTE   N12
 BYTE   W12
 BYTE   N24  Bn1
 BYTE   W24
 BYTE   N12  Bn0
 BYTE   W12
 BYTE   N12
 BYTE   W12
 BYTE   Bn1
 BYTE   W12
 BYTE   PEND 
//  #01 //005   ----------------------------------------
 BYTE   PATT
  POIN2 Label_0176F874
//  #01 //006   ----------------------------------------
 BYTE   N24  Gn0  v127
 BYTE   W24
 BYTE   N12
 BYTE   W12
 BYTE   N24  Gn1
 BYTE   W36
 BYTE   N12  Gn0
 BYTE   W12
 BYTE   Bn0
 BYTE   W12
//  #01 //007   ----------------------------------------
 BYTE   Cs1
 BYTE   W12
 BYTE   Dn1
 BYTE   W12
 BYTE   Bn0
 BYTE   W24
 BYTE   Cs1
 BYTE   W24
 BYTE   N24  Fs1
 BYTE   W24
//  #01 //008   ----------------------------------------
 BYTE   TIE  Fn1
 BYTE   W96
//  #01 //009   ----------------------------------------
 BYTE   W84
 BYTE   EOT
 BYTE   N12  Fs1
 BYTE   W12
//  #01 //010   ----------------------------------------
Label_0176F8DC:
 BYTE   N24  Bn0  v127
 BYTE   W24
 BYTE   N12
 BYTE   W12
 BYTE   N12
 BYTE   W12
 BYTE   N12
 BYTE   W12
 BYTE   N12
 BYTE   W12
 BYTE   N12
 BYTE   W12
 BYTE   N12
 BYTE   W12
 BYTE   PEND 
//  #01 //011   ----------------------------------------
 BYTE   PATT
  POIN2 Label_0176F8DC
//  #01 //012   ----------------------------------------
Label_0176F8F2:
 BYTE   N24  Gn0  v127
 BYTE   W24
 BYTE   N12
 BYTE   W12
 BYTE   N12
 BYTE   W12
 BYTE   N12
 BYTE   W12
 BYTE   N12
 BYTE   W12
 BYTE   N12
 BYTE   W12
 BYTE   N12
 BYTE   W12
 BYTE   PEND 
//  #01 //013   ----------------------------------------
Label_0176F903:
 BYTE   N24  Gn0  v127
 BYTE   W24
 BYTE   N12
 BYTE   W12
 BYTE   N12
 BYTE   W12
 BYTE   N12
 BYTE   W12
 BYTE   N12
 BYTE   W12
 BYTE   N24
 BYTE   W24
 BYTE   PEND 
//  #01 //014   ----------------------------------------
Label_0176F912:
 BYTE   N24  An0  v127
 BYTE   W24
 BYTE   N12
 BYTE   W12
 BYTE   N12
 BYTE   W12
 BYTE   N12
 BYTE   W12
 BYTE   N12
 BYTE   W12
 BYTE   N12
 BYTE   W12
 BYTE   N12
 BYTE   W12
 BYTE   PEND 
//  #01 //015   ----------------------------------------
 BYTE   PATT
  POIN2 Label_0176F912
//  #01 //016   ----------------------------------------
Label_0176F928:
 BYTE   N24  Bn0  v127
 BYTE   W24
 BYTE   N12
 BYTE   W12
 BYTE   Dn1
 BYTE   W12
 BYTE   Bn0
 BYTE   W12
 BYTE   En1
 BYTE   W12
 BYTE   Fs1
 BYTE   W12
 BYTE   An0
 BYTE   W12
 BYTE   PEND 
//  #01 //017   ----------------------------------------
Label_0176F939:
 BYTE   N24  Bn0  v127
 BYTE   W24
 BYTE   N12
 BYTE   W12
 BYTE   Dn1
 BYTE   W12
 BYTE   Bn0
 BYTE   W12
 BYTE   Fs0
 BYTE   W12
 BYTE   An0
 BYTE   W24
 BYTE   PEND 
//  #01 //018   ----------------------------------------
 BYTE   PATT
  POIN2 Label_0176F8DC
//  #01 //019   ----------------------------------------
 BYTE   PATT
  POIN2 Label_0176F8DC
//  #01 //020   ----------------------------------------
 BYTE   PATT
  POIN2 Label_0176F8F2
//  #01 //021   ----------------------------------------
 BYTE   PATT
  POIN2 Label_0176F903
//  #01 //022   ----------------------------------------
 BYTE   PATT
  POIN2 Label_0176F912
//  #01 //023   ----------------------------------------
Label_0176F961:
 BYTE   N24  Fs0  v127
 BYTE   W24
 BYTE   N12
 BYTE   W12
 BYTE   As0
 BYTE   W12
 BYTE   Fs0
 BYTE   W12
 BYTE   Cs1
 BYTE   W12
 BYTE   Dn1
 BYTE   W12
 BYTE   As0
 BYTE   W12
 BYTE   PEND 
//  #01 //024   ----------------------------------------
 BYTE   PATT
  POIN2 Label_0176F928
//  #01 //025   ----------------------------------------
Label_0176F977:
 BYTE   N24  Bn0  v127
 BYTE   W24
 BYTE   N12
 BYTE   W24
 BYTE   N12
 BYTE   W12
 BYTE   N03
 BYTE   W12
 BYTE   N24  Bn1
 BYTE   W24
 BYTE   PEND 
//  #01 //026   ----------------------------------------
Label_0176F985:
 BYTE   N03  Bn0  v127
 BYTE   W12
 BYTE   N12  Gn0
 BYTE   W24
 BYTE   N03
 BYTE   W12
 BYTE   N60
 BYTE   W48
 BYTE   PEND 
//  #01 //027   ----------------------------------------
Label_0176F991:
 BYTE   W12
 BYTE   N12  An0  v127
 BYTE   W24
 BYTE   N03
 BYTE   W12
 BYTE   N48
 BYTE   W48
 BYTE   PEND 
//  #01 //028   ----------------------------------------
Label_0176F99B:
 BYTE   N24  Bn0  v127
 BYTE   W24
 BYTE   N12  Fs0
 BYTE   W12
 BYTE   Cs1
 BYTE   W12
 BYTE   Fs0
 BYTE   W12
 BYTE   Dn1
 BYTE   W12
 BYTE   En1
 BYTE   W12
 BYTE   Cs1
 BYTE   W12
 BYTE   PEND 
//  #01 //029   ----------------------------------------
Label_0176F9AD:
 BYTE   N24  Bn0  v127
 BYTE   W24
 BYTE   N12
 BYTE   W12
 BYTE   An0
 BYTE   W12
 BYTE   Bn0
 BYTE   W12
 BYTE   Dn1
 BYTE   W12
 BYTE   En1
 BYTE   W12
 BYTE   N24  Cs1
 BYTE   W12
 BYTE   PEND 
//  #01 //030   ----------------------------------------
Label_0176F9BF:
 BYTE   W12
 BYTE   N12  Gn0  v127
 BYTE   W24
 BYTE   N03
 BYTE   W12
 BYTE   N60
 BYTE   W48
 BYTE   PEND 
//  #01 //031   ----------------------------------------
 BYTE   PATT
  POIN2 Label_0176F991
//  #01 //032   ----------------------------------------
Label_0176F9CE:
 BYTE   N24  Fs0  v127
 BYTE   W24
 BYTE   N12  Dn0
 BYTE   W12
 BYTE   Gs0
 BYTE   W12
 BYTE   Dn0
 BYTE   W12
 BYTE   As0
 BYTE   W12
 BYTE   Bn0
 BYTE   W12
 BYTE   Gs0
 BYTE   W12
 BYTE   PEND 
//  #01 //033   ----------------------------------------
Label_0176F9E0:
 BYTE   N24  Fs0  v127
 BYTE   W24
 BYTE   N24
 BYTE   W24
 BYTE   N03
 BYTE   W12
 BYTE   N12
 BYTE   W24
 BYTE   N12
 BYTE   W12
 BYTE   PEND 
//  #01 //034   ----------------------------------------
 BYTE   PATT
  POIN2 Label_0176F8DC
//  #01 //035   ----------------------------------------
 BYTE   PATT
  POIN2 Label_0176F8DC
//  #01 //036   ----------------------------------------
 BYTE   PATT
  POIN2 Label_0176F8F2
//  #01 //037   ----------------------------------------
 BYTE   PATT
  POIN2 Label_0176F8F2
//  #01 //038   ----------------------------------------
Label_0176FA01:
 BYTE   N24  En0  v127
 BYTE   W24
 BYTE   N12
 BYTE   W12
 BYTE   N12
 BYTE   W12
 BYTE   N12
 BYTE   W12
 BYTE   N12
 BYTE   W12
 BYTE   N12
 BYTE   W12
 BYTE   N12
 BYTE   W12
 BYTE   PEND 
//  #01 //039   ----------------------------------------
 BYTE   PATT
  POIN2 Label_0176FA01
//  #01 //040   ----------------------------------------
Label_0176FA17:
 BYTE   N24  As0  v127
 BYTE   W24
 BYTE   N12  Fs0
 BYTE   W12
 BYTE   Bn0
 BYTE   W12
 BYTE   Fs0
 BYTE   W12
 BYTE   Cs1
 BYTE   W12
 BYTE   Fs0
 BYTE   W12
 BYTE   En0
 BYTE   W12
 BYTE   PEND 
//  #01 //041   ----------------------------------------
Label_0176FA29:
 BYTE   N12  Fs0  v127
 BYTE   W24
 BYTE   N06
 BYTE   W12
 BYTE   N03
 BYTE   W12
 BYTE   N24
 BYTE   W24
 BYTE   N06
 BYTE   W12
 BYTE   N12
 BYTE   W12
 BYTE   PEND 
//  #01 //042   ----------------------------------------
 BYTE   PATT
  POIN2 Label_0176F8DC
//  #01 //043   ----------------------------------------
 BYTE   PATT
  POIN2 Label_0176F8DC
//  #01 //044   ----------------------------------------
 BYTE   PATT
  POIN2 Label_0176F8F2
//  #01 //045   ----------------------------------------
 BYTE   PATT
  POIN2 Label_0176F8F2
//  #01 //046   ----------------------------------------
 BYTE   PATT
  POIN2 Label_0176FA01
//  #01 //047   ----------------------------------------
Label_0176FA51:
 BYTE   N24  Fs0  v127
 BYTE   W24
 BYTE   N12
 BYTE   W12
 BYTE   N24  Fs1
 BYTE   W36
 BYTE   N12  Fs0
 BYTE   W12
 BYTE   Fs1
 BYTE   W12
 BYTE   PEND 
//  #01 //048   ----------------------------------------
 BYTE   PATT
  POIN2 Label_0176F8A5
//  #01 //049   ----------------------------------------
Label_0176FA65:
 BYTE   N12  Bn0  v127
 BYTE   W12
 BYTE   En0
 BYTE   W12
 BYTE   N12
 BYTE   W36
 BYTE   Fs0
 BYTE   W12
 BYTE   N12
 BYTE   W24
 BYTE   PEND 
//  #01 //050   ----------------------------------------
 BYTE   PATT
  POIN2 Label_0176F8DC
//  #01 //051   ----------------------------------------
 BYTE   PATT
  POIN2 Label_0176F8DC
//  #01 //052   ----------------------------------------
 BYTE   PATT
  POIN2 Label_0176F8F2
//  #01 //053   ----------------------------------------
 BYTE   PATT
  POIN2 Label_0176F903
//  #01 //054   ----------------------------------------
 BYTE   PATT
  POIN2 Label_0176F912
//  #01 //055   ----------------------------------------
 BYTE   PATT
  POIN2 Label_0176F912
//  #01 //056   ----------------------------------------
 BYTE   PATT
  POIN2 Label_0176F928
//  #01 //057   ----------------------------------------
 BYTE   PATT
  POIN2 Label_0176F939
//  #01 //058   ----------------------------------------
 BYTE   PATT
  POIN2 Label_0176F8DC
//  #01 //059   ----------------------------------------
 BYTE   PATT
  POIN2 Label_0176F8DC
//  #01 //060   ----------------------------------------
 BYTE   PATT
  POIN2 Label_0176F8F2
//  #01 //061   ----------------------------------------
 BYTE   PATT
  POIN2 Label_0176F903
//  #01 //062   ----------------------------------------
 BYTE   PATT
  POIN2 Label_0176F912
//  #01 //063   ----------------------------------------
 BYTE   PATT
  POIN2 Label_0176F961
//  #01 //064   ----------------------------------------
 BYTE   PATT
  POIN2 Label_0176F928
//  #01 //065   ----------------------------------------
 BYTE   PATT
  POIN2 Label_0176F977
//  #01 //066   ----------------------------------------
 BYTE   PATT
  POIN2 Label_0176F985
//  #01 //067   ----------------------------------------
 BYTE   PATT
  POIN2 Label_0176F991
//  #01 //068   ----------------------------------------
 BYTE   PATT
  POIN2 Label_0176F99B
//  #01 //069   ----------------------------------------
 BYTE   PATT
  POIN2 Label_0176F9AD
//  #01 //070   ----------------------------------------
 BYTE   PATT
  POIN2 Label_0176F9BF
//  #01 //071   ----------------------------------------
 BYTE   PATT
  POIN2 Label_0176F991
//  #01 //072   ----------------------------------------
 BYTE   PATT
  POIN2 Label_0176F9CE
//  #01 //073   ----------------------------------------
 BYTE   PATT
  POIN2 Label_0176F9E0
//  #01 //074   ----------------------------------------
 BYTE   PATT
  POIN2 Label_0176F8DC
//  #01 //075   ----------------------------------------
 BYTE   PATT
  POIN2 Label_0176F8DC
//  #01 //076   ----------------------------------------
 BYTE   PATT
  POIN2 Label_0176F8F2
//  #01 //077   ----------------------------------------
 BYTE   PATT
  POIN2 Label_0176F8F2
//  #01 //078   ----------------------------------------
 BYTE   PATT
  POIN2 Label_0176FA01
//  #01 //079   ----------------------------------------
 BYTE   PATT
  POIN2 Label_0176FA01
//  #01 //080   ----------------------------------------
 BYTE   PATT
  POIN2 Label_0176FA17
//  #01 //081   ----------------------------------------
 BYTE   PATT
  POIN2 Label_0176FA29
//  #01 //082   ----------------------------------------
 BYTE   PATT
  POIN2 Label_0176F8DC
//  #01 //083   ----------------------------------------
 BYTE   PATT
  POIN2 Label_0176F8DC
//  #01 //084   ----------------------------------------
 BYTE   PATT
  POIN2 Label_0176F8F2
//  #01 //085   ----------------------------------------
 BYTE   PATT
  POIN2 Label_0176F8F2
//  #01 //086   ----------------------------------------
 BYTE   PATT
  POIN2 Label_0176FA01
//  #01 //087   ----------------------------------------
 BYTE   PATT
  POIN2 Label_0176FA51
//  #01 //088   ----------------------------------------
 BYTE   PATT
  POIN2 Label_0176F8A5
//  #01 //089   ----------------------------------------
 BYTE   GoTo
  POIN2 Label_0176FA65
//  #01 //090   ----------------------------------------
 BYTE   PATT
  POIN2 Label_0176FA65
//  #01 //091   ----------------------------------------
 BYTE   W12
 BYTE   FINE

//**************** Track 2 (Midi-Chn.1) ****************//

KnockYouDown_002:
//  #02 //000   ----------------------------------------
 BYTE   KEYSH   KnockYouDown_key+0
 BYTE   VOICE   30
 BYTE   VOL   27*KnockYouDown_mvl/mxv
 BYTE   PAN   c_v-64
 BYTE   TIE  Fs1  v127
 BYTE   TIE  Bn1
 BYTE   W96
//  #02 //001   ----------------------------------------
 BYTE   W12
 BYTE   EOT
 BYTE   Fs1  v047
 BYTE   N12  Fs1  v052
 BYTE   N12  Bn1
 BYTE   W12
 BYTE   N06  Fs1  v127
 BYTE   N06  Bn1
 BYTE   W06
 BYTE   Fs1  v052
 BYTE   N06  Bn1
 BYTE   W06
 BYTE   N24  Fs1  v127
 BYTE   N24  Bn1
 BYTE   W24
 BYTE   N06  Fs1
 BYTE   N06  Bn1
 BYTE   W06
 BYTE   Fs1  v052
 BYTE   N06  Bn1
 BYTE   W06
 BYTE   N24  Fs1  v127
 BYTE   N24  Bn1
 BYTE   W24
//  #02 //002   ----------------------------------------
Label_0176FB8D:
 BYTE   TIE  Dn1  v127
 BYTE   TIE  Gn1
 BYTE   W96
 BYTE   PEND 
//  #02 //003   ----------------------------------------
 BYTE   W12
 BYTE   EOT
 BYTE   Dn1  v043
 BYTE   N12  Dn1  v052
 BYTE   N12  Gn1
 BYTE   W12
 BYTE   N06  Dn1  v127
 BYTE   N06  Gn1
 BYTE   W06
 BYTE   Dn1  v052
 BYTE   N06  Gn1
 BYTE   W06
 BYTE   N24  Dn1  v127
 BYTE   N24  Gn1
 BYTE   W24
 BYTE   N06  Dn1
 BYTE   N06  Gn1
 BYTE   W06
 BYTE   Dn1  v052
 BYTE   N06  Gn1
 BYTE   W06
 BYTE   N24  Dn1  v127
 BYTE   N24  Gn1
 BYTE   W24
//  #02 //004   ----------------------------------------
Label_0176FBBF:
 BYTE   TIE  Fs1  v127
 BYTE   TIE  Bn1
 BYTE   W96
 BYTE   PEND 
//  #02 //005   ----------------------------------------
 BYTE   W12
 BYTE   EOT
 BYTE   Fs1  v047
 BYTE   N12  Fs1  v052
 BYTE   N12  Bn1
 BYTE   W12
 BYTE   N06  Fs1  v127
 BYTE   N06  Bn1
 BYTE   W06
 BYTE   Fs1  v052
 BYTE   N06  Bn1
 BYTE   W06
 BYTE   N24  Fs1  v127
 BYTE   N24  Bn1
 BYTE   W24
 BYTE   N06  Fs1
 BYTE   N06  Bn1
 BYTE   W06
 BYTE   Fs1  v052
 BYTE   N06  Bn1
 BYTE   W06
 BYTE   N24  Fs1  v127
 BYTE   N24  Bn1
 BYTE   W24
//  #02 //006   ----------------------------------------
 BYTE   N96  Dn1
 BYTE   N96  Gn1
 BYTE   W96
//  #02 //007   ----------------------------------------
 BYTE   N06  Dn1
 BYTE   N06  Gn1
 BYTE   W06
 BYTE   Dn1  v052
 BYTE   N06  Gn1
 BYTE   W06
 BYTE   N12  An1  v127
 BYTE   N12  Dn2
 BYTE   W12
 BYTE   Fs1
 BYTE   N12  Bn1
 BYTE   W12
 BYTE   Fs1  v052
 BYTE   N12  Bn1
 BYTE   W12
 BYTE   Gs1  v127
 BYTE   N12  Cs2
 BYTE   W12
 BYTE   Gs1  v052
 BYTE   N12  Cs2
 BYTE   W12
 BYTE   N24  Cs2  v127
 BYTE   N24  Fs2
 BYTE   W24
//  #02 //008   ----------------------------------------
 BYTE   TIE  Cn2
 BYTE   TIE  Fn2
 BYTE   W96
//  #02 //009   ----------------------------------------
 BYTE   W72
 BYTE   EOT
 BYTE   Cn2  v053
 BYTE   N06  Cs1
 BYTE   N06  Fs1
 BYTE   W06
 BYTE   Cs1  v052
 BYTE   N06  Fs1
 BYTE   W06
 BYTE   N12  Cs1  v127
 BYTE   N12  Fs1
 BYTE   W12
//  #02 //010   ----------------------------------------
Label_0176FC38:
 BYTE   N24  Fs1  v127
 BYTE   N24  Bn1
 BYTE   W24
 BYTE   N06  Fs1
 BYTE   N06  Bn1
 BYTE   W06
 BYTE   Fs1  v052
 BYTE   N06  Bn1
 BYTE   W06
 BYTE   Fs1  v127
 BYTE   N06  Bn1
 BYTE   W06
 BYTE   Fs1  v052
 BYTE   N06  Bn1
 BYTE   W06
 BYTE   N24  Fs1  v127
 BYTE   N24  Bn1
 BYTE   W24
 BYTE   N06  Fs1
 BYTE   N06  Bn1
 BYTE   W06
 BYTE   Fs1  v052
 BYTE   N06  Bn1
 BYTE   W06
 BYTE   Fs1  v127
 BYTE   N06  Bn1
 BYTE   W06
 BYTE   Fs1  v052
 BYTE   N06  Bn1
 BYTE   W06
 BYTE   PEND 
//  #02 //011   ----------------------------------------
Label_0176FC6D:
 BYTE   N24  Fs1  v127
 BYTE   N24  Bn1
 BYTE   W24
 BYTE   N06  Fs1
 BYTE   N06  Bn1
 BYTE   W06
 BYTE   Fs1  v052
 BYTE   N06  Bn1
 BYTE   W06
 BYTE   Fs1  v127
 BYTE   N06  Bn1
 BYTE   W06
 BYTE   Fs1  v052
 BYTE   N06  Bn1
 BYTE   W06
 BYTE   N12  Fs1  v127
 BYTE   N12  Bn1
 BYTE   W12
 BYTE   N06  Fs1
 BYTE   N06  Bn1
 BYTE   W06
 BYTE   Fs1  v052
 BYTE   N06  Bn1
 BYTE   W06
 BYTE   Fs1  v127
 BYTE   N06  Bn1
 BYTE   W06
 BYTE   Fs1  v052
 BYTE   N06  Bn1
 BYTE   W06
 BYTE   N12  Fs1  v127
 BYTE   N12  Bn1
 BYTE   W12
 BYTE   PEND 
//  #02 //012   ----------------------------------------
Label_0176FCA8:
 BYTE   N24  Dn1  v127
 BYTE   N24  Gn1
 BYTE   W24
 BYTE   N06  Dn1
 BYTE   N06  Gn1
 BYTE   W06
 BYTE   Dn1  v052
 BYTE   N06  Gn1
 BYTE   W06
 BYTE   Dn1  v127
 BYTE   N06  Gn1
 BYTE   W06
 BYTE   Dn1  v052
 BYTE   N06  Gn1
 BYTE   W06
 BYTE   N24  Dn1  v127
 BYTE   N24  Gn1
 BYTE   W24
 BYTE   N06  Dn1
 BYTE   N06  Gn1
 BYTE   W06
 BYTE   Dn1  v052
 BYTE   N06  Gn1
 BYTE   W06
 BYTE   Dn1  v127
 BYTE   N06  Gn1
 BYTE   W06
 BYTE   Dn1  v052
 BYTE   N06  Gn1
 BYTE   W06
 BYTE   PEND 
//  #02 //013   ----------------------------------------
Label_0176FCDD:
 BYTE   N24  Dn1  v127
 BYTE   N24  Gn1
 BYTE   W24
 BYTE   N06  Dn1
 BYTE   N06  Gn1
 BYTE   W06
 BYTE   Dn1  v052
 BYTE   N06  Gn1
 BYTE   W06
 BYTE   Dn1  v127
 BYTE   N06  Gn1
 BYTE   W06
 BYTE   Dn1  v052
 BYTE   N06  Gn1
 BYTE   W06
 BYTE   N12  Dn1  v127
 BYTE   N12  Gn1
 BYTE   W12
 BYTE   N06  Dn1
 BYTE   N06  Gn1
 BYTE   W06
 BYTE   Dn1  v052
 BYTE   N06  Gn1
 BYTE   W06
 BYTE   Dn1  v127
 BYTE   N06  Gn1
 BYTE   W06
 BYTE   Dn1  v052
 BYTE   N06  Gn1
 BYTE   W06
 BYTE   N12  Dn1  v127
 BYTE   N12  Gn1
 BYTE   W12
 BYTE   PEND 
//  #02 //014   ----------------------------------------
Label_0176FD18:
 BYTE   N24  En1  v127
 BYTE   N24  An1
 BYTE   W24
 BYTE   N06  En1
 BYTE   N06  An1
 BYTE   W06
 BYTE   En1  v052
 BYTE   N06  An1
 BYTE   W06
 BYTE   En1  v127
 BYTE   N06  An1
 BYTE   W06
 BYTE   En1  v052
 BYTE   N06  An1
 BYTE   W06
 BYTE   N24  En1  v127
 BYTE   N24  An1
 BYTE   W24
 BYTE   N06  En1
 BYTE   N06  An1
 BYTE   W06
 BYTE   En1  v052
 BYTE   N06  An1
 BYTE   W06
 BYTE   En1  v127
 BYTE   N06  An1
 BYTE   W06
 BYTE   En1  v052
 BYTE   N06  An1
 BYTE   W06
 BYTE   PEND 
//  #02 //015   ----------------------------------------
Label_0176FD4D:
 BYTE   N24  En1  v127
 BYTE   N24  An1
 BYTE   W24
 BYTE   N06  En1
 BYTE   N06  An1
 BYTE   W06
 BYTE   En1  v052
 BYTE   N06  An1
 BYTE   W06
 BYTE   En1  v127
 BYTE   N06  An1
 BYTE   W06
 BYTE   En1  v052
 BYTE   N06  An1
 BYTE   W06
 BYTE   N12  En1  v127
 BYTE   N12  An1
 BYTE   W12
 BYTE   N06  En1
 BYTE   N06  An1
 BYTE   W06
 BYTE   En1  v052
 BYTE   N06  An1
 BYTE   W06
 BYTE   En1  v127
 BYTE   N06  An1
 BYTE   W06
 BYTE   En1  v052
 BYTE   N06  An1
 BYTE   W06
 BYTE   N12  En1  v127
 BYTE   N12  An1
 BYTE   W12
 BYTE   PEND 
//  #02 //016   ----------------------------------------
 BYTE   PATT
  POIN2 Label_0176FC38
//  #02 //017   ----------------------------------------
Label_0176FD8D:
 BYTE   N24  Fs1  v127
 BYTE   N24  Bn1
 BYTE   W24
 BYTE   N06  Fs1
 BYTE   N06  Bn1
 BYTE   W06
 BYTE   Fs1  v052
 BYTE   N06  Bn1
 BYTE   W06
 BYTE   Fs1  v127
 BYTE   N06  Bn1
 BYTE   W06
 BYTE   Fs1  v052
 BYTE   N06  Bn1
 BYTE   W06
 BYTE   N12  Fs1  v127
 BYTE   N12  Bn1
 BYTE   W12
 BYTE   N06  Cs1
 BYTE   N06  Fs1
 BYTE   W06
 BYTE   Cs1  v052
 BYTE   N06  Fs1
 BYTE   W06
 BYTE   N24  Cs1  v127
 BYTE   N24  Fs1
 BYTE   W24
 BYTE   PEND 
//  #02 //018   ----------------------------------------
 BYTE   PATT
  POIN2 Label_0176FC38
//  #02 //019   ----------------------------------------
 BYTE   PATT
  POIN2 Label_0176FC6D
//  #02 //020   ----------------------------------------
 BYTE   PATT
  POIN2 Label_0176FCA8
//  #02 //021   ----------------------------------------
 BYTE   PATT
  POIN2 Label_0176FCDD
//  #02 //022   ----------------------------------------
 BYTE   PATT
  POIN2 Label_0176FD18
//  #02 //023   ----------------------------------------
Label_0176FDD7:
 BYTE   N24  Fn1  v127
 BYTE   N24  As1
 BYTE   W24
 BYTE   N06  Fn1
 BYTE   N06  As1
 BYTE   W06
 BYTE   Fn1  v052
 BYTE   N06  As1
 BYTE   W06
 BYTE   Fn1  v127
 BYTE   N06  As1
 BYTE   W06
 BYTE   Fn1  v052
 BYTE   N06  As1
 BYTE   W06
 BYTE   N12  Fn1  v127
 BYTE   N12  As1
 BYTE   W12
 BYTE   N06  Fn1
 BYTE   N06  As1
 BYTE   W06
 BYTE   Fn1  v052
 BYTE   N06  As1
 BYTE   W06
 BYTE   Fn1  v127
 BYTE   N06  As1
 BYTE   W06
 BYTE   Fn1  v052
 BYTE   N06  As1
 BYTE   W06
 BYTE   N12  Fn1  v127
 BYTE   N12  As1
 BYTE   W12
 BYTE   PEND 
//  #02 //024   ----------------------------------------
 BYTE   PATT
  POIN2 Label_0176FC38
//  #02 //025   ----------------------------------------
Label_0176FE17:
 BYTE   N12  Fs1  v127
 BYTE   N12  Bn1
 BYTE   W12
 BYTE   Fs1  v052
 BYTE   N12  Bn1
 BYTE   W12
 BYTE   Fs1  v127
 BYTE   N12  Bn1
 BYTE   W12
 BYTE   Fs1  v052
 BYTE   N12  Bn1
 BYTE   W12
 BYTE   Fs1  v127
 BYTE   N12  Bn1
 BYTE   W12
 BYTE   N06  Fs1
 BYTE   N06  Bn1
 BYTE   W06
 BYTE   Fs1  v052
 BYTE   N06  Bn1
 BYTE   W06
 BYTE   N24  Fs1  v127
 BYTE   N24  Bn1
 BYTE   W24
 BYTE   PEND 
//  #02 //026   ----------------------------------------
Label_0176FE42:
 BYTE   N06  Fs1  v127
 BYTE   N06  Bn1
 BYTE   W06
 BYTE   Fs1  v052
 BYTE   N06  Bn1
 BYTE   W06
 BYTE   N72  Dn1  v127
 BYTE   N72  Gn1
 BYTE   W84
 BYTE   PEND 
//  #02 //027   ----------------------------------------
Label_0176FE54:
 BYTE   N06  Dn1  v127
 BYTE   N06  Gn1
 BYTE   W06
 BYTE   Dn1  v052
 BYTE   N06  Gn1
 BYTE   W06
 BYTE   N72  En1  v127
 BYTE   N72  An1
 BYTE   W72
 BYTE   N06  En1
 BYTE   N06  An1
 BYTE   W06
 BYTE   En1  v052
 BYTE   N06  An1
 BYTE   W06
 BYTE   PEND 
//  #02 //028   ----------------------------------------
 BYTE   PATT
  POIN2 Label_0176FC38
//  #02 //029   ----------------------------------------
 BYTE   PATT
  POIN2 Label_0176FC6D
//  #02 //030   ----------------------------------------
 BYTE   PATT
  POIN2 Label_0176FE42
//  #02 //031   ----------------------------------------
 BYTE   PATT
  POIN2 Label_0176FE54
//  #02 //032   ----------------------------------------
Label_0176FE84:
 BYTE   N24  Cs1  v127
 BYTE   N24  Fs1
 BYTE   W24
 BYTE   N06  Cs1
 BYTE   N06  Fs1
 BYTE   W06
 BYTE   Cs1  v052
 BYTE   N06  Fs1
 BYTE   W06
 BYTE   Cs1  v127
 BYTE   N06  Fs1
 BYTE   W06
 BYTE   Cs1  v052
 BYTE   N06  Fs1
 BYTE   W06
 BYTE   N24  Cs1  v127
 BYTE   N24  Fs1
 BYTE   W24
 BYTE   N06  Cs1
 BYTE   N06  Fs1
 BYTE   W06
 BYTE   Cs1  v052
 BYTE   N06  Fs1
 BYTE   W06
 BYTE   Cs1  v127
 BYTE   N06  Fs1
 BYTE   W06
 BYTE   Cs1  v052
 BYTE   N06  Fs1
 BYTE   W06
 BYTE   PEND 
//  #02 //033   ----------------------------------------
Label_0176FEB9:
 BYTE   N24  Cs1  v127
 BYTE   N24  Fs1
 BYTE   W24
 BYTE   N06  Cs1
 BYTE   N06  Fs1
 BYTE   W06
 BYTE   Cs1  v052
 BYTE   N06  Fs1
 BYTE   W06
 BYTE   Cs1  v127
 BYTE   N06  Fs1
 BYTE   W06
 BYTE   Cs1  v052
 BYTE   N06  Fs1
 BYTE   W06
 BYTE   N12  Cs1  v127
 BYTE   N12  Fs1
 BYTE   W12
 BYTE   N06  Cs1
 BYTE   N06  Fs1
 BYTE   W06
 BYTE   Cs1  v052
 BYTE   N06  Fs1
 BYTE   W06
 BYTE   Cs1  v127
 BYTE   N06  Fs1
 BYTE   W06
 BYTE   Cs1  v052
 BYTE   N06  Fs1
 BYTE   W06
 BYTE   N12  Cs1  v127
 BYTE   N12  Fs1
 BYTE   W12
 BYTE   PEND 
//  #02 //034   ----------------------------------------
 BYTE   PATT
  POIN2 Label_0176FBBF
//  #02 //035   ----------------------------------------
 BYTE   W24
 BYTE   EOT
 BYTE   Fs1  v047
 BYTE   N06  Fs1  v127
 BYTE   N06  Bn1
 BYTE   W06
 BYTE   Fs1  v052
 BYTE   N06  Bn1
 BYTE   W06
 BYTE   N24  Fs1  v127
 BYTE   N24  Bn1
 BYTE   W24
 BYTE   N06  Fs1
 BYTE   N06  Bn1
 BYTE   W06
 BYTE   Fs1  v052
 BYTE   N06  Bn1
 BYTE   W06
 BYTE   N12  Fs1  v127
 BYTE   N12  Bn1
 BYTE   W12
 BYTE   N06  Fs1
 BYTE   N06  Bn1
 BYTE   W06
 BYTE   Fs1  v052
 BYTE   N06  Bn1
 BYTE   W06
//  #02 //036   ----------------------------------------
 BYTE   PATT
  POIN2 Label_0176FB8D
//  #02 //037   ----------------------------------------
 BYTE   W24
 BYTE   EOT
 BYTE   Dn1  v043
 BYTE   N06  Dn1  v127
 BYTE   N06  Gn1
 BYTE   W06
 BYTE   Dn1  v052
 BYTE   N06  Gn1
 BYTE   W06
 BYTE   N24  Dn1  v127
 BYTE   N24  Gn1
 BYTE   W24
 BYTE   N06  Dn1
 BYTE   N06  Gn1
 BYTE   W06
 BYTE   Dn1  v052
 BYTE   N06  Gn1
 BYTE   W06
 BYTE   N12  Dn1  v127
 BYTE   N12  Gn1
 BYTE   W12
 BYTE   N06  Dn1
 BYTE   N06  Gn1
 BYTE   W06
 BYTE   Dn1  v052
 BYTE   N06  Gn1
 BYTE   W06
//  #02 //038   ----------------------------------------
Label_0176FF5C:
 BYTE   TIE  Bn0  v127
 BYTE   TIE  En1
 BYTE   W96
 BYTE   PEND 
//  #02 //039   ----------------------------------------
 BYTE   W24
 BYTE   EOT
 BYTE   Bn0  v040
 BYTE   N12  Bn0
 BYTE   N12  En1
 BYTE   W12
 BYTE   N24  Bn0
 BYTE   N24  En1
 BYTE   W24
 BYTE   N06  Bn0
 BYTE   N06  En1
 BYTE   W06
 BYTE   Bn0  v052
 BYTE   N06  En1
 BYTE   W06
 BYTE   N12  Bn0  v127
 BYTE   N12  En1
 BYTE   W12
 BYTE   N06  Bn0
 BYTE   N06  En1
 BYTE   W06
 BYTE   Bn0  v052
 BYTE   N06  En1
 BYTE   W06
//  #02 //040   ----------------------------------------
Label_0176FF8B:
 BYTE   TIE  Cs1  v127
 BYTE   TIE  Fs1
 BYTE   W96
 BYTE   PEND 
//  #02 //041   ----------------------------------------
 BYTE   W24
 BYTE   EOT
 BYTE   Cs1  v042
 BYTE   N06  Cs1
 BYTE   N06  Fs1
 BYTE   W06
 BYTE   Cs1  v052
 BYTE   N06  Fs1
 BYTE   W06
 BYTE   N24  Cs1  v127
 BYTE   N24  Fs1
 BYTE   W24
 BYTE   N06  Cs1
 BYTE   N06  Fs1
 BYTE   W06
 BYTE   Cs1  v052
 BYTE   N06  Fs1
 BYTE   W06
 BYTE   N24  Cs1  v127
 BYTE   N24  Fs1
 BYTE   W24
//  #02 //042   ----------------------------------------
 BYTE   PATT
  POIN2 Label_0176FBBF
//  #02 //043   ----------------------------------------
 BYTE   W24
 BYTE   EOT
 BYTE   Fs1  v047
 BYTE   N06  Fs1  v127
 BYTE   N06  Bn1
 BYTE   W06
 BYTE   Fs1  v052
 BYTE   N06  Bn1
 BYTE   W06
 BYTE   N24  Fs1  v127
 BYTE   N24  Bn1
 BYTE   W24
 BYTE   N06  Fs1
 BYTE   N06  Bn1
 BYTE   W06
 BYTE   Fs1  v052
 BYTE   N06  Bn1
 BYTE   W06
 BYTE   N12  Fs1  v127
 BYTE   N12  Bn1
 BYTE   W12
 BYTE   N06  Fs1
 BYTE   N06  Bn1
 BYTE   W06
 BYTE   Fs1  v052
 BYTE   N06  Bn1
 BYTE   W06
//  #02 //044   ----------------------------------------
 BYTE   PATT
  POIN2 Label_0176FB8D
//  #02 //045   ----------------------------------------
 BYTE   W24
 BYTE   EOT
 BYTE   Dn1  v043
 BYTE   N06  Dn1  v127
 BYTE   N06  Gn1
 BYTE   W06
 BYTE   Dn1  v052
 BYTE   N06  Gn1
 BYTE   W06
 BYTE   N24  Dn1  v127
 BYTE   N24  Gn1
 BYTE   W24
 BYTE   N06  Dn1
 BYTE   N06  Gn1
 BYTE   W06
 BYTE   Dn1  v052
 BYTE   N06  Gn1
 BYTE   W06
 BYTE   N12  Dn1  v127
 BYTE   N12  Gn1
 BYTE   W12
 BYTE   N06  Dn1
 BYTE   N06  Gn1
 BYTE   W06
 BYTE   Dn1  v052
 BYTE   N06  Gn1
 BYTE   W06
//  #02 //046   ----------------------------------------
Label_0177001E:
 BYTE   N24  Bn0  v127
 BYTE   N24  En1
 BYTE   W24
 BYTE   N06  Bn0
 BYTE   N06  En1
 BYTE   W06
 BYTE   Bn0  v052
 BYTE   N06  En1
 BYTE   W06
 BYTE   Bn0  v127
 BYTE   N06  En1
 BYTE   W06
 BYTE   Bn0  v052
 BYTE   N06  En1
 BYTE   W06
 BYTE   N24  Bn0  v127
 BYTE   N24  En1
 BYTE   W24
 BYTE   N06  Bn0
 BYTE   N06  En1
 BYTE   W06
 BYTE   Bn0  v052
 BYTE   N06  En1
 BYTE   W06
 BYTE   Bn0  v127
 BYTE   N06  En1
 BYTE   W06
 BYTE   Bn0  v052
 BYTE   N06  En1
 BYTE   W06
 BYTE   PEND 
//  #02 //047   ----------------------------------------
Label_01770053:
 BYTE   N24  Cs1  v127
 BYTE   N24  Fs1
 BYTE   W24
 BYTE   N06  Cs1
 BYTE   N06  Fs1
 BYTE   W06
 BYTE   Cs1  v052
 BYTE   N06  Fs1
 BYTE   W06
 BYTE   N36  Cs1  v127
 BYTE   N36  Fs1
 BYTE   W36
 BYTE   N06  Cs1
 BYTE   N06  Fs1
 BYTE   W06
 BYTE   Cs1  v052
 BYTE   N06  Fs1
 BYTE   W06
 BYTE   N12  Cs1  v127
 BYTE   N12  Fs1
 BYTE   W12
 BYTE   PEND 
//  #02 //048   ----------------------------------------
 BYTE   PATT
  POIN2 Label_0176FC38
//  #02 //049   ----------------------------------------
Label_0177007F:
 BYTE   N06  Fs1  v127
 BYTE   N06  Bn1
 BYTE   W06
 BYTE   Fs1  v052
 BYTE   N06  Bn1
 BYTE   W06
 BYTE   N12  Bn0  v127
 BYTE   N12  En1
 BYTE   W12
 BYTE   N06  Bn0
 BYTE   N06  En1
 BYTE   W06
 BYTE   Bn0  v052
 BYTE   N06  En1
 BYTE   W30
 BYTE   N12  Cs1  v127
 BYTE   N12  Fs1
 BYTE   W12
 BYTE   N06  Cs1
 BYTE   N06  Fs1
 BYTE   W06
 BYTE   Cs1  v052
 BYTE   N06  Fs1
 BYTE   W18
 BYTE   PEND 
//  #02 //050   ----------------------------------------
 BYTE   VOL   27*KnockYouDown_mvl/mxv
 BYTE   PAN   c_v-64
 BYTE   N24  Fs1  v127
 BYTE   N24  Bn1
 BYTE   W24
 BYTE   N06  Fs1
 BYTE   N06  Bn1
 BYTE   W06
 BYTE   Fs1  v052
 BYTE   N06  Bn1
 BYTE   W06
 BYTE   Fs1  v127
 BYTE   N06  Bn1
 BYTE   W06
 BYTE   Fs1  v052
 BYTE   N06  Bn1
 BYTE   W06
 BYTE   N24  Fs1  v127
 BYTE   N24  Bn1
 BYTE   W24
 BYTE   N06  Fs1
 BYTE   N06  Bn1
 BYTE   W06
 BYTE   Fs1  v052
 BYTE   N06  Bn1
 BYTE   W06
 BYTE   Fs1  v127
 BYTE   N06  Bn1
 BYTE   W06
 BYTE   Fs1  v052
 BYTE   N06  Bn1
 BYTE   W06
//  #02 //051   ----------------------------------------
 BYTE   PATT
  POIN2 Label_0176FC6D
//  #02 //052   ----------------------------------------
 BYTE   PATT
  POIN2 Label_0176FCA8
//  #02 //053   ----------------------------------------
 BYTE   PATT
  POIN2 Label_0176FCDD
//  #02 //054   ----------------------------------------
 BYTE   PATT
  POIN2 Label_0176FD18
//  #02 //055   ----------------------------------------
 BYTE   PATT
  POIN2 Label_0176FD4D
//  #02 //056   ----------------------------------------
 BYTE   PATT
  POIN2 Label_0176FC38
//  #02 //057   ----------------------------------------
 BYTE   PATT
  POIN2 Label_0176FD8D
//  #02 //058   ----------------------------------------
 BYTE   PATT
  POIN2 Label_0176FC38
//  #02 //059   ----------------------------------------
 BYTE   PATT
  POIN2 Label_0176FC6D
//  #02 //060   ----------------------------------------
 BYTE   PATT
  POIN2 Label_0176FCA8
//  #02 //061   ----------------------------------------
 BYTE   PATT
  POIN2 Label_0176FCDD
//  #02 //062   ----------------------------------------
 BYTE   PATT
  POIN2 Label_0176FD18
//  #02 //063   ----------------------------------------
 BYTE   PATT
  POIN2 Label_0176FDD7
//  #02 //064   ----------------------------------------
 BYTE   PATT
  POIN2 Label_0176FC38
//  #02 //065   ----------------------------------------
 BYTE   PATT
  POIN2 Label_0176FE17
//  #02 //066   ----------------------------------------
 BYTE   PATT
  POIN2 Label_0176FE42
//  #02 //067   ----------------------------------------
 BYTE   PATT
  POIN2 Label_0176FE54
//  #02 //068   ----------------------------------------
 BYTE   PATT
  POIN2 Label_0176FC38
//  #02 //069   ----------------------------------------
 BYTE   PATT
  POIN2 Label_0176FC6D
//  #02 //070   ----------------------------------------
 BYTE   PATT
  POIN2 Label_0176FE42
//  #02 //071   ----------------------------------------
 BYTE   PATT
  POIN2 Label_0176FE54
//  #02 //072   ----------------------------------------
 BYTE   PATT
  POIN2 Label_0176FE84
//  #02 //073   ----------------------------------------
 BYTE   PATT
  POIN2 Label_0176FEB9
//  #02 //074   ----------------------------------------
 BYTE   PATT
  POIN2 Label_0176FBBF
//  #02 //075   ----------------------------------------
 BYTE   W24
 BYTE   EOT
 BYTE   Fs1  v047
 BYTE   N06  Fs1  v127
 BYTE   N06  Bn1
 BYTE   W06
 BYTE   Fs1  v052
 BYTE   N06  Bn1
 BYTE   W06
 BYTE   N24  Fs1  v127
 BYTE   N24  Bn1
 BYTE   W24
 BYTE   N06  Fs1
 BYTE   N06  Bn1
 BYTE   W06
 BYTE   Fs1  v052
 BYTE   N06  Bn1
 BYTE   W06
 BYTE   N12  Fs1  v127
 BYTE   N12  Bn1
 BYTE   W12
 BYTE   N06  Fs1
 BYTE   N06  Bn1
 BYTE   W06
 BYTE   Fs1  v052
 BYTE   N06  Bn1
 BYTE   W06
//  #02 //076   ----------------------------------------
 BYTE   PATT
  POIN2 Label_0176FB8D
//  #02 //077   ----------------------------------------
 BYTE   W24
 BYTE   EOT
 BYTE   Dn1  v043
 BYTE   N06  Dn1  v127
 BYTE   N06  Gn1
 BYTE   W06
 BYTE   Dn1  v052
 BYTE   N06  Gn1
 BYTE   W06
 BYTE   N24  Dn1  v127
 BYTE   N24  Gn1
 BYTE   W24
 BYTE   N06  Dn1
 BYTE   N06  Gn1
 BYTE   W06
 BYTE   Dn1  v052
 BYTE   N06  Gn1
 BYTE   W06
 BYTE   N12  Dn1  v127
 BYTE   N12  Gn1
 BYTE   W12
 BYTE   N06  Dn1
 BYTE   N06  Gn1
 BYTE   W06
 BYTE   Dn1  v052
 BYTE   N06  Gn1
 BYTE   W06
//  #02 //078   ----------------------------------------
 BYTE   PATT
  POIN2 Label_0176FF5C
//  #02 //079   ----------------------------------------
 BYTE   W24
 BYTE   EOT
 BYTE   Bn0  v040
 BYTE   N12  Bn0  v127
 BYTE   N12  En1
 BYTE   W12
 BYTE   N24  Bn0
 BYTE   N24  En1
 BYTE   W24
 BYTE   N06  Bn0
 BYTE   N06  En1
 BYTE   W06
 BYTE   Bn0  v052
 BYTE   N06  En1
 BYTE   W06
 BYTE   N12  Bn0  v127
 BYTE   N12  En1
 BYTE   W12
 BYTE   N06  Bn0
 BYTE   N06  En1
 BYTE   W06
 BYTE   Bn0  v052
 BYTE   N06  En1
 BYTE   W06
//  #02 //080   ----------------------------------------
 BYTE   PATT
  POIN2 Label_0176FF8B
//  #02 //081   ----------------------------------------
 BYTE   W24
 BYTE   EOT
 BYTE   Cs1  v042
 BYTE   N06  Cs1  v127
 BYTE   N06  Fs1
 BYTE   W06
 BYTE   Cs1  v052
 BYTE   N06  Fs1
 BYTE   W06
 BYTE   N24  Cs1  v127
 BYTE   N24  Fs1
 BYTE   W24
 BYTE   N06  Cs1
 BYTE   N06  Fs1
 BYTE   W06
 BYTE   Cs1  v052
 BYTE   N06  Fs1
 BYTE   W06
 BYTE   N24  Cs1  v127
 BYTE   N24  Fs1
 BYTE   W24
//  #02 //082   ----------------------------------------
 BYTE   PATT
  POIN2 Label_0176FBBF
//  #02 //083   ----------------------------------------
 BYTE   W24
 BYTE   EOT
 BYTE   Fs1  v047
 BYTE   N06  Fs1  v127
 BYTE   N06  Bn1
 BYTE   W06
 BYTE   Fs1  v052
 BYTE   N06  Bn1
 BYTE   W06
 BYTE   N24  Fs1  v127
 BYTE   N24  Bn1
 BYTE   W24
 BYTE   N06  Fs1
 BYTE   N06  Bn1
 BYTE   W06
 BYTE   Fs1  v052
 BYTE   N06  Bn1
 BYTE   W06
 BYTE   N12  Fs1  v127
 BYTE   N12  Bn1
 BYTE   W12
 BYTE   N06  Fs1
 BYTE   N06  Bn1
 BYTE   W06
 BYTE   Fs1  v052
 BYTE   N06  Bn1
 BYTE   W06
//  #02 //084   ----------------------------------------
 BYTE   PATT
  POIN2 Label_0176FB8D
//  #02 //085   ----------------------------------------
 BYTE   W24
 BYTE   EOT
 BYTE   Dn1  v043
 BYTE   N06  Dn1  v127
 BYTE   N06  Gn1
 BYTE   W06
 BYTE   Dn1  v052
 BYTE   N06  Gn1
 BYTE   W06
 BYTE   N24  Dn1  v127
 BYTE   N24  Gn1
 BYTE   W24
 BYTE   N06  Dn1
 BYTE   N06  Gn1
 BYTE   W06
 BYTE   Dn1  v052
 BYTE   N06  Gn1
 BYTE   W06
 BYTE   N12  Dn1  v127
 BYTE   N12  Gn1
 BYTE   W12
 BYTE   N06  Dn1
 BYTE   N06  Gn1
 BYTE   W06
 BYTE   Dn1  v052
 BYTE   N06  Gn1
 BYTE   W06
//  #02 //086   ----------------------------------------
 BYTE   PATT
  POIN2 Label_0177001E
//  #02 //087   ----------------------------------------
 BYTE   PATT
  POIN2 Label_01770053
//  #02 //088   ----------------------------------------
 BYTE   PATT
  POIN2 Label_0176FC38
//  #02 //089   ----------------------------------------
 BYTE   GoTo
  POIN2 Label_0177007F
//  #02 //090   ----------------------------------------
 BYTE   PATT
  POIN2 Label_0177007F
//  #02 //091   ----------------------------------------
 BYTE   W12
 BYTE   FINE

//**************** Track 3 (Midi-Chn.2) ****************//

KnockYouDown_003:
//  #03 //000   ----------------------------------------
 BYTE   KEYSH   KnockYouDown_key+0
 BYTE   VOICE   30
 BYTE   VOL   42*KnockYouDown_mvl/mxv
 BYTE   PAN   c_v+63
 BYTE   N18  Bn0  v127
 BYTE   N18  Bn1
 BYTE   W18
 BYTE   N06  Bn0  v052
 BYTE   N06  Bn1
 BYTE   W06
 BYTE   Bn0  v127
 BYTE   N06  Bn1
 BYTE   W06
 BYTE   Bn0  v052
 BYTE   N06  Bn1
 BYTE   W06
 BYTE   N24  Fs2  v127
 BYTE   N24  Bn2
 BYTE   W24
 BYTE   N06  Bn0
 BYTE   N06  Bn1
 BYTE   W06
 BYTE   Bn0  v052
 BYTE   N06  Bn1
 BYTE   W06
 BYTE   Bn0  v127
 BYTE   N06  Bn1
 BYTE   W06
 BYTE   Bn0  v052
 BYTE   N06  Bn1
 BYTE   W06
 BYTE   N12  Fs2  v127
 BYTE   N12  Bn2
 BYTE   W12
//  #03 //001   ----------------------------------------
Label_017702EA:
 BYTE   N24  Bn0  v127
 BYTE   N24  Bn1
 BYTE   W24
 BYTE   N06  Bn0
 BYTE   N06  Bn1
 BYTE   W06
 BYTE   Bn0  v052
 BYTE   N06  Bn1
 BYTE   W06
 BYTE   N24  Fs2  v127
 BYTE   N24  Cs3
 BYTE   W24
 BYTE   N12  Fs2
 BYTE   N12  Cs3
 BYTE   W12
 BYTE   N24  Fs2
 BYTE   N24  Bn2
 BYTE   W24
 BYTE   PEND 
//  #03 //002   ----------------------------------------
Label_0177030B:
 BYTE   N18  Gn0  v127
 BYTE   N18  Gn1
 BYTE   W18
 BYTE   N06  Gn0  v052
 BYTE   N06  Gn1
 BYTE   W06
 BYTE   Gn0  v127
 BYTE   N06  Gn1
 BYTE   W06
 BYTE   Gn0  v052
 BYTE   N06  Gn1
 BYTE   W06
 BYTE   N24  Dn2  v127
 BYTE   N24  Gn2
 BYTE   W24
 BYTE   N06  Gn0
 BYTE   N06  Gn1
 BYTE   W06
 BYTE   Gn0  v052
 BYTE   N06  Gn1
 BYTE   W06
 BYTE   Gn0  v127
 BYTE   N06  Gn1
 BYTE   W06
 BYTE   Gn0  v052
 BYTE   N06  Gn1
 BYTE   W06
 BYTE   N12  Dn2  v127
 BYTE   N12  Gn2
 BYTE   W12
 BYTE   PEND 
//  #03 //003   ----------------------------------------
 BYTE   N24  Gn0
 BYTE   N24  Gn1
 BYTE   W24
 BYTE   N06  Gn0
 BYTE   N06  Gn1
 BYTE   W06
 BYTE   Gn0  v052
 BYTE   N06  Gn1
 BYTE   W06
 BYTE   N24  Dn2  v127
 BYTE   N24  An2
 BYTE   W24
 BYTE   N36  Dn2
 BYTE   N12  An2
 BYTE   W12
 BYTE   N24  Gn2
 BYTE   W24
//  #03 //004   ----------------------------------------
 BYTE   N18  Bn0
 BYTE   N18  Bn1
 BYTE   W18
 BYTE   N06  Bn0  v052
 BYTE   N06  Bn1
 BYTE   W06
 BYTE   Bn0  v127
 BYTE   N06  Bn1
 BYTE   W06
 BYTE   Bn0  v052
 BYTE   N06  Bn1
 BYTE   W06
 BYTE   N24  Fs2  v127
 BYTE   N24  Bn2
 BYTE   W24
 BYTE   N06  Bn0
 BYTE   N06  Bn1
 BYTE   W06
 BYTE   Bn0  v052
 BYTE   N06  Bn1
 BYTE   W06
 BYTE   Bn0  v127
 BYTE   N06  Bn1
 BYTE   W06
 BYTE   Bn0  v052
 BYTE   N06  Bn1
 BYTE   W06
 BYTE   N12  Fs2  v127
 BYTE   N12  Bn2
 BYTE   W12
//  #03 //005   ----------------------------------------
 BYTE   PATT
  POIN2 Label_017702EA
//  #03 //006   ----------------------------------------
 BYTE   PATT
  POIN2 Label_0177030B
//  #03 //007   ----------------------------------------
 BYTE   N12  Gn0  v127
 BYTE   N12  Gn1
 BYTE   W12
 BYTE   N06  Gn0
 BYTE   N06  Fs1
 BYTE   W06
 BYTE   Gn0  v052
 BYTE   N06  Fs1
 BYTE   W06
 BYTE   N12  En2  v127
 BYTE   N12  Bn2
 BYTE   W12
 BYTE   En2  v052
 BYTE   N12  Bn2
 BYTE   W12
 BYTE   Dn2  v127
 BYTE   N12  Gn2
 BYTE   W12
 BYTE   Dn2  v052
 BYTE   N12  Gn2
 BYTE   W12
 BYTE   N24  Cs2  v127
 BYTE   N24  Fs2
 BYTE   W24
//  #03 //008   ----------------------------------------
 BYTE   TIE  Bn1
 BYTE   TIE  Fn2
 BYTE   W96
//  #03 //009   ----------------------------------------
 BYTE   W84
 BYTE   EOT
 BYTE   Bn1  v053
 BYTE   N12  Cs2
 BYTE   N12  Fs2
 BYTE   W12
//  #03 //010   ----------------------------------------
Label_017703D7:
 BYTE   N24  Bn0  v127
 BYTE   N24  Bn1
 BYTE   W24
 BYTE   N06  Bn0
 BYTE   N06  Bn1
 BYTE   W06
 BYTE   Bn0  v052
 BYTE   N06  Bn1
 BYTE   W06
 BYTE   N24  Fs2  v127
 BYTE   N24  Bn2
 BYTE   W24
 BYTE   N06  Bn0
 BYTE   N06  Bn1
 BYTE   W06
 BYTE   Bn0  v052
 BYTE   N06  Bn1
 BYTE   W06
 BYTE   N12  Fs2  v127
 BYTE   N12  Bn2
 BYTE   W12
 BYTE   N06  Bn0
 BYTE   N06  Bn1
 BYTE   W06
 BYTE   Bn0  v052
 BYTE   N06  Bn1
 BYTE   W06
 BYTE   PEND 
//  #03 //011   ----------------------------------------
Label_01770408:
 BYTE   N24  Bn0  v127
 BYTE   N24  Bn1
 BYTE   W24
 BYTE   N06  Bn0
 BYTE   N06  Bn1
 BYTE   W06
 BYTE   Bn0  v052
 BYTE   N06  Bn1
 BYTE   W06
 BYTE   N24  Fs2  v127
 BYTE   N24  Bn2
 BYTE   W24
 BYTE   N06  Bn0
 BYTE   N06  Bn1
 BYTE   W06
 BYTE   Bn0  v052
 BYTE   N06  Bn1
 BYTE   W06
 BYTE   Bn0  v127
 BYTE   N06  Bn1
 BYTE   W06
 BYTE   Bn0  v052
 BYTE   N06  Bn1
 BYTE   W06
 BYTE   N12  Fs2  v127
 BYTE   N12  Bn2
 BYTE   W12
 BYTE   PEND 
//  #03 //012   ----------------------------------------
Label_01770439:
 BYTE   N24  Gn0  v127
 BYTE   N24  Gn1
 BYTE   W24
 BYTE   N06  Gn0
 BYTE   N06  Gn1
 BYTE   W06
 BYTE   Gn0  v052
 BYTE   N06  Gn1
 BYTE   W06
 BYTE   N24  Dn2  v127
 BYTE   N24  Gn2
 BYTE   W24
 BYTE   N06  Gn0
 BYTE   N06  Gn1
 BYTE   W06
 BYTE   Gn0  v052
 BYTE   N06  Gn1
 BYTE   W06
 BYTE   N12  Dn2  v127
 BYTE   N12  Gn2
 BYTE   W12
 BYTE   N06  Gn0
 BYTE   N06  Gn1
 BYTE   W06
 BYTE   Gn0  v052
 BYTE   N06  Gn1
 BYTE   W06
 BYTE   PEND 
//  #03 //013   ----------------------------------------
Label_0177046A:
 BYTE   N24  Gn0  v127
 BYTE   N24  Gn1
 BYTE   W24
 BYTE   N06  Gn0
 BYTE   N06  Gn1
 BYTE   W06
 BYTE   Gn0  v052
 BYTE   N06  Gn1
 BYTE   W06
 BYTE   N24  Dn2  v127
 BYTE   N24  Gn2
 BYTE   W24
 BYTE   N06  Gn0
 BYTE   N06  Gn1
 BYTE   W06
 BYTE   Gn0  v052
 BYTE   N06  Gn1
 BYTE   W06
 BYTE   Gn0  v127
 BYTE   N06  Gn1
 BYTE   W06
 BYTE   Gn0  v052
 BYTE   N06  Gn1
 BYTE   W06
 BYTE   N12  Dn2  v127
 BYTE   N12  Gn2
 BYTE   W12
 BYTE   PEND 
//  #03 //014   ----------------------------------------
Label_0177049B:
 BYTE   N24  An0  v127
 BYTE   N24  An1
 BYTE   W24
 BYTE   N06  An0
 BYTE   N06  An1
 BYTE   W06
 BYTE   An0  v052
 BYTE   N06  An1
 BYTE   W06
 BYTE   N24  En2  v127
 BYTE   N24  An2
 BYTE   W24
 BYTE   N06  An0
 BYTE   N06  An1
 BYTE   W06
 BYTE   An0  v052
 BYTE   N06  An1
 BYTE   W06
 BYTE   N12  En2  v127
 BYTE   N12  An2
 BYTE   W12
 BYTE   N06  An0
 BYTE   N06  An1
 BYTE   W06
 BYTE   An0  v052
 BYTE   N06  An1
 BYTE   W06
 BYTE   PEND 
//  #03 //015   ----------------------------------------
Label_017704CC:
 BYTE   N24  An0  v127
 BYTE   N24  An1
 BYTE   W24
 BYTE   N06  An0
 BYTE   N06  An1
 BYTE   W06
 BYTE   An0  v052
 BYTE   N06  An1
 BYTE   W06
 BYTE   N24  En2  v127
 BYTE   N24  An2
 BYTE   W24
 BYTE   N06  An0
 BYTE   N06  An1
 BYTE   W06
 BYTE   An0  v052
 BYTE   N06  An1
 BYTE   W06
 BYTE   An0  v127
 BYTE   N06  An1
 BYTE   W06
 BYTE   An0  v052
 BYTE   N06  An1
 BYTE   W06
 BYTE   N12  En2  v127
 BYTE   N12  An2
 BYTE   W12
 BYTE   PEND 
//  #03 //016   ----------------------------------------
 BYTE   PATT
  POIN2 Label_01770408
//  #03 //017   ----------------------------------------
Label_01770502:
 BYTE   N24  Bn0  v127
 BYTE   N24  Bn1
 BYTE   W24
 BYTE   N06  Bn0
 BYTE   N06  Bn1
 BYTE   W06
 BYTE   Bn0  v052
 BYTE   N06  Bn1
 BYTE   W06
 BYTE   N24  Fs2  v127
 BYTE   N24  Bn2
 BYTE   W24
 BYTE   N12  Dn2
 BYTE   N36  Fs2
 BYTE   W12
 BYTE   N24  Cs2
 BYTE   W24
 BYTE   PEND 
//  #03 //018   ----------------------------------------
 BYTE   PATT
  POIN2 Label_017703D7
//  #03 //019   ----------------------------------------
 BYTE   PATT
  POIN2 Label_01770408
//  #03 //020   ----------------------------------------
 BYTE   PATT
  POIN2 Label_01770439
//  #03 //021   ----------------------------------------
 BYTE   PATT
  POIN2 Label_0177046A
//  #03 //022   ----------------------------------------
 BYTE   PATT
  POIN2 Label_0177049B
//  #03 //023   ----------------------------------------
Label_0177053A:
 BYTE   N24  Fs0  v127
 BYTE   N24  Fs1
 BYTE   W24
 BYTE   N06  Fs0
 BYTE   N06  Fs1
 BYTE   W06
 BYTE   Fs0  v052
 BYTE   N06  Fs1
 BYTE   W06
 BYTE   N24  Cs2  v127
 BYTE   N24  Fs2
 BYTE   W24
 BYTE   N06  Fs0
 BYTE   N06  Fs1
 BYTE   W06
 BYTE   Fs0  v052
 BYTE   N06  Fs1
 BYTE   W06
 BYTE   Fs0  v127
 BYTE   N06  Fs1
 BYTE   W06
 BYTE   Fs0  v052
 BYTE   N06  Fs1
 BYTE   W06
 BYTE   N12  Cs2  v127
 BYTE   N12  Fs2
 BYTE   W12
 BYTE   PEND 
//  #03 //024   ----------------------------------------
 BYTE   PATT
  POIN2 Label_01770408
//  #03 //025   ----------------------------------------
Label_01770570:
 BYTE   N12  Bn0  v127
 BYTE   N12  Bn1
 BYTE   W12
 BYTE   Bn0  v052
 BYTE   N12  Bn1
 BYTE   W12
 BYTE   Fs2  v127
 BYTE   N12  Bn2
 BYTE   W12
 BYTE   N06  Bn0
 BYTE   N06  Bn1
 BYTE   W06
 BYTE   Bn0  v052
 BYTE   N06  Bn1
 BYTE   W06
 BYTE   N12  Fs2  v127
 BYTE   N12  Bn2
 BYTE   W12
 BYTE   N06  Bn0
 BYTE   N06  Bn1
 BYTE   W06
 BYTE   Bn0  v052
 BYTE   N06  Bn1
 BYTE   W06
 BYTE   N36  Fs2  v127
 BYTE   N36  Bn2
 BYTE   W24
 BYTE   PEND 
//  #03 //026   ----------------------------------------
 BYTE   W96
//  #03 //027   ----------------------------------------
 BYTE   W96
//  #03 //028   ----------------------------------------
 BYTE   PATT
  POIN2 Label_017703D7
//  #03 //029   ----------------------------------------
Label_017705A8:
 BYTE   N24  Bn0  v127
 BYTE   N24  Bn1
 BYTE   W24
 BYTE   N06  Bn0
 BYTE   N06  Bn1
 BYTE   W06
 BYTE   Bn0  v052
 BYTE   N06  Bn1
 BYTE   W06
 BYTE   N24  Fs2  v127
 BYTE   N24  Bn2
 BYTE   W24
 BYTE   N06  Bn0
 BYTE   N06  Bn1
 BYTE   W06
 BYTE   Bn0  v052
 BYTE   N06  Bn1
 BYTE   W06
 BYTE   Bn0  v127
 BYTE   N06  Bn1
 BYTE   W06
 BYTE   Bn0  v052
 BYTE   N06  Bn1
 BYTE   W06
 BYTE   N24  Fs2  v127
 BYTE   N24  Bn2
 BYTE   W12
 BYTE   PEND 
//  #03 //030   ----------------------------------------
 BYTE   W96
//  #03 //031   ----------------------------------------
 BYTE   W96
//  #03 //032   ----------------------------------------
Label_017705DB:
 BYTE   N24  Fs0  v127
 BYTE   N24  Fs1
 BYTE   W24
 BYTE   N06  Fs0
 BYTE   N06  Fs1
 BYTE   W06
 BYTE   Fs0  v052
 BYTE   N06  Fs1
 BYTE   W06
 BYTE   N24  Cs2  v127
 BYTE   N24  Fs2
 BYTE   W24
 BYTE   N06  Fs0
 BYTE   N06  Fs1
 BYTE   W06
 BYTE   Fs0  v052
 BYTE   N06  Fs1
 BYTE   W06
 BYTE   N12  Cs2  v127
 BYTE   N12  Fs2
 BYTE   W12
 BYTE   N06  Fs0
 BYTE   N06  Fs1
 BYTE   W06
 BYTE   Fs0  v052
 BYTE   N06  Fs1
 BYTE   W06
 BYTE   PEND 
//  #03 //033   ----------------------------------------
Label_0177060C:
 BYTE   N18  Fs0  v127
 BYTE   N18  Fs1
 BYTE   W18
 BYTE   N06  Fs0  v052
 BYTE   N06  Fs1
 BYTE   W06
 BYTE   N24  An1  v127
 BYTE   N24  Cs2
 BYTE   W24
 BYTE   N12
 BYTE   N12  En2
 BYTE   W12
 BYTE   Cs2
 BYTE   N12  Fs2
 BYTE   W12
 BYTE   N06  Fs0
 BYTE   N06  Fs1
 BYTE   W06
 BYTE   Fs0  v052
 BYTE   N06  Fs1
 BYTE   W06
 BYTE   N12  Fs2  v127
 BYTE   N12  An2
 BYTE   W12
 BYTE   PEND 
//  #03 //034   ----------------------------------------
 BYTE   PATT
  POIN2 Label_017703D7
//  #03 //035   ----------------------------------------
 BYTE   PATT
  POIN2 Label_01770408
//  #03 //036   ----------------------------------------
 BYTE   PATT
  POIN2 Label_01770439
//  #03 //037   ----------------------------------------
 BYTE   PATT
  POIN2 Label_0177046A
//  #03 //038   ----------------------------------------
Label_0177064B:
 BYTE   N24  En0  v127
 BYTE   N24  En1
 BYTE   W24
 BYTE   N06  En0
 BYTE   N06  En1
 BYTE   W06
 BYTE   En0  v052
 BYTE   N06  En1
 BYTE   W06
 BYTE   N24  Bn1  v127
 BYTE   N24  En2
 BYTE   W24
 BYTE   N06  En0
 BYTE   N06  En1
 BYTE   W06
 BYTE   En0  v052
 BYTE   N06  En1
 BYTE   W06
 BYTE   N12  Bn1  v127
 BYTE   N12  En2
 BYTE   W12
 BYTE   N06  En0
 BYTE   N06  En1
 BYTE   W06
 BYTE   En0  v052
 BYTE   N06  En1
 BYTE   W06
 BYTE   PEND 
//  #03 //039   ----------------------------------------
Label_0177067C:
 BYTE   N24  En0  v127
 BYTE   N24  En1
 BYTE   W24
 BYTE   N06  En0
 BYTE   N06  En1
 BYTE   W06
 BYTE   En0  v052
 BYTE   N06  En1
 BYTE   W06
 BYTE   N24  Bn1  v127
 BYTE   N24  En2
 BYTE   W24
 BYTE   N06  En0
 BYTE   N06  En1
 BYTE   W06
 BYTE   En0  v052
 BYTE   N06  En1
 BYTE   W06
 BYTE   En0  v127
 BYTE   N06  En1
 BYTE   W06
 BYTE   En0  v052
 BYTE   N06  En1
 BYTE   W06
 BYTE   N12  Bn1  v127
 BYTE   N12  En2
 BYTE   W12
 BYTE   PEND 
//  #03 //040   ----------------------------------------
 BYTE   PATT
  POIN2 Label_017705DB
//  #03 //041   ----------------------------------------
Label_017706B2:
 BYTE   N12  Fs0  v127
 BYTE   N12  Fs1
 BYTE   W12
 BYTE   N06  Fs0
 BYTE   N06  Fs1
 BYTE   W06
 BYTE   Fs0  v052
 BYTE   N06  Fs1
 BYTE   W06
 BYTE   N24  Cs2  v127
 BYTE   N24  Fs2
 BYTE   W24
 BYTE   N06  Fs0
 BYTE   N06  Fs1
 BYTE   W06
 BYTE   Fs0  v052
 BYTE   N06  Fs1
 BYTE   W06
 BYTE   N24  Cs2  v127
 BYTE   N24  Fs2
 BYTE   W24
 BYTE   N06  Fs0
 BYTE   N06  Fs1
 BYTE   W06
 BYTE   Fs0  v052
 BYTE   N06  Fs1
 BYTE   W06
 BYTE   PEND 
//  #03 //042   ----------------------------------------
 BYTE   PATT
  POIN2 Label_017703D7
//  #03 //043   ----------------------------------------
 BYTE   PATT
  POIN2 Label_01770408
//  #03 //044   ----------------------------------------
 BYTE   PATT
  POIN2 Label_01770439
//  #03 //045   ----------------------------------------
 BYTE   PATT
  POIN2 Label_0177046A
//  #03 //046   ----------------------------------------
 BYTE   PATT
  POIN2 Label_0177064B
//  #03 //047   ----------------------------------------
Label_017706FC:
 BYTE   N24  FsM1  v127
 BYTE   N24  Fs0
 BYTE   W24
 BYTE   N06  FsM1
 BYTE   N06  Fs0
 BYTE   W06
 BYTE   FsM1  v052
 BYTE   N06  Fs0
 BYTE   W06
 BYTE   N36  Fs1  v127
 BYTE   N36  Cs2
 BYTE   W36
 BYTE   N06  FsM1
 BYTE   N06  Fs0
 BYTE   W06
 BYTE   FsM1  v052
 BYTE   N06  Fs0
 BYTE   W06
 BYTE   N12  Fs1  v127
 BYTE   N12  Cs2
 BYTE   W12
 BYTE   PEND 
//  #03 //048   ----------------------------------------
Label_01770723:
 BYTE   N24  BnM1  v127
 BYTE   N24  Bn0
 BYTE   W24
 BYTE   N06  BnM1
 BYTE   N06  Bn0
 BYTE   W06
 BYTE   BnM1  v052
 BYTE   N06  Bn0
 BYTE   W06
 BYTE   N24  Bn1  v127
 BYTE   N24  Fs2
 BYTE   W24
 BYTE   N06  BnM1
 BYTE   N06  Bn0
 BYTE   W06
 BYTE   BnM1  v052
 BYTE   N06  Bn0
 BYTE   W06
 BYTE   N24  Bn1  v127
 BYTE   N24  Fs2
 BYTE   W24
 BYTE   PEND 
//  #03 //049   ----------------------------------------
Label_0177074A:
 BYTE   N06  BnM1  v127
 BYTE   N06  Bn0
 BYTE   W06
 BYTE   BnM1  v052
 BYTE   N06  Bn0
 BYTE   W06
 BYTE   En0  v127
 BYTE   N06  En1
 BYTE   W06
 BYTE   En0  v052
 BYTE   N06  En1
 BYTE   W06
 BYTE   N12  En2  v127
 BYTE   N12  Bn2
 BYTE   W12
 BYTE   En2  v052
 BYTE   N12  Bn2
 BYTE   W24
 BYTE   N06  Fs0  v127
 BYTE   N06  Fs1
 BYTE   W06
 BYTE   Fs0  v052
 BYTE   N06  Fs1
 BYTE   W06
 BYTE   N12  Cs2  v127
 BYTE   N12  Fs2
 BYTE   W12
 BYTE   VOL   42*KnockYouDown_mvl/mxv
 BYTE   PAN   c_v+63
 BYTE   N12  Cs2
 BYTE   N12  Fs2
 BYTE   W12
//  #03 //050   ----------------------------------------
 BYTE   PATT
  POIN2 Label_017703D7
//  #03 //051   ----------------------------------------
 BYTE   PATT
  POIN2 Label_01770408
//  #03 //052   ----------------------------------------
 BYTE   PATT
  POIN2 Label_01770439
//  #03 //053   ----------------------------------------
 BYTE   PATT
  POIN2 Label_0177046A
//  #03 //054   ----------------------------------------
 BYTE   PATT
  POIN2 Label_0177049B
//  #03 //055   ----------------------------------------
 BYTE   PATT
  POIN2 Label_017704CC
//  #03 //056   ----------------------------------------
 BYTE   PATT
  POIN2 Label_01770408
//  #03 //057   ----------------------------------------
 BYTE   PATT
  POIN2 Label_01770502
//  #03 //058   ----------------------------------------
 BYTE   PATT
  POIN2 Label_017703D7
//  #03 //059   ----------------------------------------
 BYTE   PATT
  POIN2 Label_01770408
//  #03 //060   ----------------------------------------
 BYTE   PATT
  POIN2 Label_01770439
//  #03 //061   ----------------------------------------
 BYTE   PATT
  POIN2 Label_0177046A
//  #03 //062   ----------------------------------------
 BYTE   PATT
  POIN2 Label_0177049B
//  #03 //063   ----------------------------------------
 BYTE   PATT
  POIN2 Label_0177053A
//  #03 //064   ----------------------------------------
 BYTE   PATT
  POIN2 Label_01770408
//  #03 //065   ----------------------------------------
 BYTE   PATT
  POIN2 Label_01770570
//  #03 //066   ----------------------------------------
 BYTE   W96
//  #03 //067   ----------------------------------------
 BYTE   W96
//  #03 //068   ----------------------------------------
 BYTE   PATT
  POIN2 Label_017703D7
//  #03 //069   ----------------------------------------
 BYTE   PATT
  POIN2 Label_017705A8
//  #03 //070   ----------------------------------------
 BYTE   W96
//  #03 //071   ----------------------------------------
 BYTE   W96
//  #03 //072   ----------------------------------------
 BYTE   PATT
  POIN2 Label_017705DB
//  #03 //073   ----------------------------------------
 BYTE   PATT
  POIN2 Label_0177060C
//  #03 //074   ----------------------------------------
 BYTE   PATT
  POIN2 Label_017703D7
//  #03 //075   ----------------------------------------
 BYTE   PATT
  POIN2 Label_01770408
//  #03 //076   ----------------------------------------
 BYTE   PATT
  POIN2 Label_01770439
//  #03 //077   ----------------------------------------
 BYTE   PATT
  POIN2 Label_0177046A
//  #03 //078   ----------------------------------------
 BYTE   PATT
  POIN2 Label_0177064B
//  #03 //079   ----------------------------------------
 BYTE   PATT
  POIN2 Label_0177067C
//  #03 //080   ----------------------------------------
 BYTE   PATT
  POIN2 Label_017705DB
//  #03 //081   ----------------------------------------
 BYTE   PATT
  POIN2 Label_017706B2
//  #03 //082   ----------------------------------------
 BYTE   PATT
  POIN2 Label_017703D7
//  #03 //083   ----------------------------------------
 BYTE   PATT
  POIN2 Label_01770408
//  #03 //084   ----------------------------------------
 BYTE   PATT
  POIN2 Label_01770439
//  #03 //085   ----------------------------------------
 BYTE   PATT
  POIN2 Label_0177046A
//  #03 //086   ----------------------------------------
 BYTE   PATT
  POIN2 Label_0177064B
//  #03 //087   ----------------------------------------
 BYTE   PATT
  POIN2 Label_017706FC
//  #03 //088   ----------------------------------------
 BYTE   PATT
  POIN2 Label_01770723
//  #03 //089   ----------------------------------------
 BYTE   GoTo
  POIN2 Label_0177074A
//  #03 //090   ----------------------------------------
 BYTE   N06  BnM1  v127
 BYTE   N06  Bn0
 BYTE   W06
 BYTE   BnM1  v052
 BYTE   N06  Bn0
 BYTE   W06
 BYTE   En0  v127
 BYTE   N06  En1
 BYTE   W06
 BYTE   En0  v052
 BYTE   N06  En1
 BYTE   W06
 BYTE   N12  En2  v127
 BYTE   N12  Bn2
 BYTE   W12
 BYTE   En2  v052
 BYTE   N12  Bn2
 BYTE   W24
 BYTE   N06  Fs0  v127
 BYTE   N06  Fs1
 BYTE   W06
 BYTE   Fs0  v052
 BYTE   N06  Fs1
 BYTE   W06
 BYTE   N12  Cs2  v127
 BYTE   N12  Fs2
 BYTE   W12
 BYTE   Cs2  v052
 BYTE   N12  Fs2
 BYTE   W12
//  #03 //091   ----------------------------------------
 BYTE   Cs2
 BYTE   N12  Fs2
 BYTE   W12
 BYTE   FINE

//**************** Track 4 (Midi-Chn.3) ****************//

KnockYouDown_004:
//  #04 //000   ----------------------------------------
 BYTE   KEYSH   KnockYouDown_key+0
 BYTE   VOICE   1
 BYTE   VOL   33*KnockYouDown_mvl/mxv
 BYTE   PAN   c_v+63
 BYTE   W96
//  #04 //001   ----------------------------------------
 BYTE   W96
//  #04 //002   ----------------------------------------
 BYTE   W96
//  #04 //003   ----------------------------------------
 BYTE   W96
//  #04 //004   ----------------------------------------
 BYTE   W96
//  #04 //005   ----------------------------------------
 BYTE   W96
//  #04 //006   ----------------------------------------
 BYTE   W96
//  #04 //007   ----------------------------------------
 BYTE   W96
//  #04 //008   ----------------------------------------
 BYTE   W96
//  #04 //009   ----------------------------------------
 BYTE   W96
//  #04 //010   ----------------------------------------
 BYTE   W96
//  #04 //011   ----------------------------------------
 BYTE   W96
//  #04 //012   ----------------------------------------
 BYTE   W96
//  #04 //013   ----------------------------------------
 BYTE   W96
//  #04 //014   ----------------------------------------
 BYTE   W96
//  #04 //015   ----------------------------------------
 BYTE   W96
//  #04 //016   ----------------------------------------
 BYTE   W96
//  #04 //017   ----------------------------------------
 BYTE   W96
//  #04 //018   ----------------------------------------
 BYTE   W96
//  #04 //019   ----------------------------------------
 BYTE   W96
//  #04 //020   ----------------------------------------
 BYTE   W96
//  #04 //021   ----------------------------------------
 BYTE   W96
//  #04 //022   ----------------------------------------
 BYTE   W96
//  #04 //023   ----------------------------------------
 BYTE   W96
//  #04 //024   ----------------------------------------
 BYTE   W96
//  #04 //025   ----------------------------------------
 BYTE   W96
//  #04 //026   ----------------------------------------
Label_0194CC42:
 BYTE   W12
 BYTE   N96  Dn1  v127
 BYTE   W12
 BYTE   N12  Gn1
 BYTE   W12
 BYTE   Dn2
 BYTE   W12
 BYTE   N24  Bn2
 BYTE   W24
 BYTE   N12  Gn2
 BYTE   W12
 BYTE   Bn2
 BYTE   W12
 BYTE   PEND 
//  #04 //027   ----------------------------------------
Label_0194CC55:
 BYTE   N12  Dn2  v127
 BYTE   W12
 BYTE   N84  En1
 BYTE   W12
 BYTE   N12  An1
 BYTE   W12
 BYTE   En2
 BYTE   W12
 BYTE   N24  Cs3
 BYTE   W24
 BYTE   N12  An2
 BYTE   W12
 BYTE   Cs3
 BYTE   W12
 BYTE   PEND 
//  #04 //028   ----------------------------------------
 BYTE   W96
//  #04 //029   ----------------------------------------
 BYTE   W96
//  #04 //030   ----------------------------------------
 BYTE   PATT
  POIN2 Label_0194CC42
//  #04 //031   ----------------------------------------
 BYTE   PATT
  POIN2 Label_0194CC55
//  #04 //032   ----------------------------------------
 BYTE   W96
//  #04 //033   ----------------------------------------
 BYTE   W96
//  #04 //034   ----------------------------------------
 BYTE   W96
//  #04 //035   ----------------------------------------
 BYTE   W96
//  #04 //036   ----------------------------------------
 BYTE   W96
//  #04 //037   ----------------------------------------
 BYTE   W96
//  #04 //038   ----------------------------------------
 BYTE   W96
//  #04 //039   ----------------------------------------
 BYTE   W96
//  #04 //040   ----------------------------------------
 BYTE   W96
//  #04 //041   ----------------------------------------
 BYTE   W96
//  #04 //042   ----------------------------------------
 BYTE   W96
//  #04 //043   ----------------------------------------
 BYTE   W96
//  #04 //044   ----------------------------------------
 BYTE   W96
//  #04 //045   ----------------------------------------
 BYTE   W96
//  #04 //046   ----------------------------------------
 BYTE   W96
//  #04 //047   ----------------------------------------
 BYTE   W96
//  #04 //048   ----------------------------------------
 BYTE   W96
//  #04 //049   ----------------------------------------
Label_0194CC87:
 BYTE   W96
//  #04 //050   ----------------------------------------
 BYTE   W96
//  #04 //051   ----------------------------------------
 BYTE   W96
//  #04 //052   ----------------------------------------
 BYTE   W96
//  #04 //053   ----------------------------------------
 BYTE   W96
//  #04 //054   ----------------------------------------
 BYTE   W96
//  #04 //055   ----------------------------------------
 BYTE   W96
//  #04 //056   ----------------------------------------
 BYTE   W96
//  #04 //057   ----------------------------------------
 BYTE   W96
//  #04 //058   ----------------------------------------
 BYTE   W96
//  #04 //059   ----------------------------------------
 BYTE   W96
//  #04 //060   ----------------------------------------
 BYTE   W96
//  #04 //061   ----------------------------------------
 BYTE   W96
//  #04 //062   ----------------------------------------
 BYTE   W96
//  #04 //063   ----------------------------------------
 BYTE   W96
//  #04 //064   ----------------------------------------
 BYTE   W96
//  #04 //065   ----------------------------------------
 BYTE   W96
//  #04 //066   ----------------------------------------
 BYTE   PATT
  POIN2 Label_0194CC42
//  #04 //067   ----------------------------------------
 BYTE   PATT
  POIN2 Label_0194CC55
//  #04 //068   ----------------------------------------
 BYTE   W96
//  #04 //069   ----------------------------------------
 BYTE   W96
//  #04 //070   ----------------------------------------
 BYTE   PATT
  POIN2 Label_0194CC42
//  #04 //071   ----------------------------------------
 BYTE   PATT
  POIN2 Label_0194CC55
//  #04 //072   ----------------------------------------
 BYTE   W96
//  #04 //073   ----------------------------------------
 BYTE   W96
//  #04 //074   ----------------------------------------
 BYTE   W96
//  #04 //075   ----------------------------------------
 BYTE   W96
//  #04 //076   ----------------------------------------
 BYTE   W96
//  #04 //077   ----------------------------------------
 BYTE   W96
//  #04 //078   ----------------------------------------
 BYTE   W96
//  #04 //079   ----------------------------------------
 BYTE   W96
//  #04 //080   ----------------------------------------
 BYTE   W96
//  #04 //081   ----------------------------------------
 BYTE   W96
//  #04 //082   ----------------------------------------
 BYTE   W96
//  #04 //083   ----------------------------------------
 BYTE   W96
//  #04 //084   ----------------------------------------
 BYTE   W96
//  #04 //085   ----------------------------------------
 BYTE   W96
//  #04 //086   ----------------------------------------
 BYTE   W96
//  #04 //087   ----------------------------------------
 BYTE   W96
//  #04 //088   ----------------------------------------
 BYTE   W96
//  #04 //089   ----------------------------------------
 BYTE   GoTo
  POIN2 Label_0194CC87
//  #04 //090   ----------------------------------------
 BYTE   W96
//  #04 //091   ----------------------------------------
 BYTE   W12
 BYTE   FINE

//**************** Track 5 (Midi-Chn.4) ****************//

KnockYouDown_005:
//  #05 //000   ----------------------------------------
 BYTE   KEYSH   KnockYouDown_key+0
 BYTE   VOICE   61
 BYTE   VOL   29*KnockYouDown_mvl/mxv
 BYTE   W96
//  #05 //001   ----------------------------------------
 BYTE   W96
//  #05 //002   ----------------------------------------
 BYTE   W96
//  #05 //003   ----------------------------------------
 BYTE   W96
//  #05 //004   ----------------------------------------
 BYTE   W96
//  #05 //005   ----------------------------------------
 BYTE   W96
//  #05 //006   ----------------------------------------
 BYTE   W96
//  #05 //007   ----------------------------------------
 BYTE   W96
//  #05 //008   ----------------------------------------
 BYTE   W96
//  #05 //009   ----------------------------------------
 BYTE   W96
//  #05 //010   ----------------------------------------
Label_01770898:
 BYTE   W36
 BYTE   N24  Bn2  v127
 BYTE   N24  Bn3
 BYTE   W36
 BYTE   N12  Bn2
 BYTE   N12  Bn3
 BYTE   W24
 BYTE   PEND 
//  #05 //011   ----------------------------------------
Label_017708A5:
 BYTE   N24  Dn3  v127
 BYTE   N24  Dn4
 BYTE   W24
 BYTE   N12  Dn3
 BYTE   N12  Dn4
 BYTE   W12
 BYTE   Cs3
 BYTE   N12  Cs4
 BYTE   W12
 BYTE   Bn2
 BYTE   N12  Bn3
 BYTE   W12
 BYTE   N24  Cs3
 BYTE   N24  Cs4
 BYTE   W24
 BYTE   N12  Bn2
 BYTE   N12  Bn3
 BYTE   W12
 BYTE   PEND 
//  #05 //012   ----------------------------------------
Label_017708C3:
 BYTE   N24  Gn2  v127
 BYTE   N24  Gn3
 BYTE   W48
 BYTE   N12  Gn2
 BYTE   N12  Gn3
 BYTE   W24
 BYTE   Gn2
 BYTE   N12  Gn3
 BYTE   W24
 BYTE   PEND 
//  #05 //013   ----------------------------------------
Label_017708D3:
 BYTE   N24  Fs3  v127
 BYTE   N24  Fs4
 BYTE   W24
 BYTE   N12  Fs3
 BYTE   N12  Fs4
 BYTE   W12
 BYTE   En3
 BYTE   N12  En4
 BYTE   W12
 BYTE   Dn3
 BYTE   N12  Dn4
 BYTE   W12
 BYTE   N24  En3
 BYTE   N24  En4
 BYTE   W24
 BYTE   N12  Dn3
 BYTE   N12  Dn4
 BYTE   W12
 BYTE   PEND 
//  #05 //014   ----------------------------------------
Label_017708F1:
 BYTE   N48  Cs3  v127
 BYTE   N48  Cs4
 BYTE   W48
 BYTE   N36  Dn3
 BYTE   N36  Dn4
 BYTE   W36
 BYTE   N12  En3
 BYTE   N12  En4
 BYTE   W12
 BYTE   PEND 
//  #05 //015   ----------------------------------------
Label_01770902:
 BYTE   N24  An2  v127
 BYTE   N24  An3
 BYTE   W36
 BYTE   An2
 BYTE   N24  An3
 BYTE   W24
 BYTE   Dn3
 BYTE   N24  Dn4
 BYTE   W24
 BYTE   N12  Cs3
 BYTE   N12  Cs4
 BYTE   W12
 BYTE   PEND 
//  #05 //016   ----------------------------------------
Label_01770916:
 BYTE   TIE  Bn2  v127
 BYTE   TIE  Bn3
 BYTE   W96
 BYTE   PEND 
//  #05 //017   ----------------------------------------
 BYTE   W60
 BYTE   EOT
 BYTE   Bn2  v071
 BYTE   W36
//  #05 //018   ----------------------------------------
Label_01770922:
 BYTE   W36
 BYTE   N24  Bn2  v127
 BYTE   N24  Bn3
 BYTE   W24
 BYTE   N06  Bn2
 BYTE   N06  Bn3
 BYTE   W12
 BYTE   N12  Bn2
 BYTE   N12  Bn3
 BYTE   W24
 BYTE   PEND 
//  #05 //019   ----------------------------------------
 BYTE   PATT
  POIN2 Label_017708A5
//  #05 //020   ----------------------------------------
Label_01770939:
 BYTE   N24  Gn2  v127
 BYTE   N24  Gn3
 BYTE   W36
 BYTE   N06  Gn2
 BYTE   N06  Gn3
 BYTE   W12
 BYTE   N12  Gn2
 BYTE   N12  Gn3
 BYTE   W12
 BYTE   N06  Gn2
 BYTE   N06  Gn3
 BYTE   W12
 BYTE   N12  Gn2
 BYTE   N12  Gn3
 BYTE   W24
 BYTE   PEND 
//  #05 //021   ----------------------------------------
 BYTE   PATT
  POIN2 Label_017708D3
//  #05 //022   ----------------------------------------
 BYTE   PATT
  POIN2 Label_017708F1
//  #05 //023   ----------------------------------------
Label_0177095E:
 BYTE   N36  Fs3  v127
 BYTE   N36  Fs4
 BYTE   W36
 BYTE   N12  En3
 BYTE   N12  En4
 BYTE   W24
 BYTE   N24  Dn3
 BYTE   N24  Dn4
 BYTE   W24
 BYTE   N12  As2
 BYTE   N12  As3
 BYTE   W12
 BYTE   PEND 
//  #05 //024   ----------------------------------------
 BYTE   N96  Bn2
 BYTE   N96  Bn3
 BYTE   W96
//  #05 //025   ----------------------------------------
Label_01770979:
 BYTE   W24
 BYTE   N12  Fs2  v127
 BYTE   N12  Fs3
 BYTE   W24
 BYTE   Bn2
 BYTE   N12  Bn3
 BYTE   W12
 BYTE   N06  Bn2
 BYTE   N06  Bn3
 BYTE   W12
 BYTE   N36  Cs3
 BYTE   N36  Cs4
 BYTE   W24
 BYTE   PEND 
//  #05 //026   ----------------------------------------
Label_0177098F:
 BYTE   W12
 BYTE   N48  Dn3  v127
 BYTE   N48  Dn4
 BYTE   W48
 BYTE   N12  Bn2
 BYTE   N12  Bn3
 BYTE   W12
 BYTE   Cs3
 BYTE   N12  Cs4
 BYTE   W12
 BYTE   Dn3
 BYTE   N12  Dn4
 BYTE   W12
 BYTE   PEND 
//  #05 //027   ----------------------------------------
Label_017709A4:
 BYTE   N48  En3  v127
 BYTE   N48  En4
 BYTE   W60
 BYTE   N24  Cs3
 BYTE   N24  Cs4
 BYTE   W24
 BYTE   N12  Dn3
 BYTE   N12  Dn4
 BYTE   W12
 BYTE   PEND 
//  #05 //028   ----------------------------------------
Label_017709B5:
 BYTE   N24  Cs3  v127
 BYTE   N24  Cs4
 BYTE   W24
 BYTE   N06  Bn2
 BYTE   N06  Bn3
 BYTE   W12
 BYTE   TIE  Bn2
 BYTE   TIE  Bn3
 BYTE   W60
 BYTE   PEND 
//  #05 //029   ----------------------------------------
 BYTE   W60
 BYTE   EOT
 BYTE   Bn2  v071
 BYTE   W36
//  #05 //030   ----------------------------------------
 BYTE   PATT
  POIN2 Label_0177098F
//  #05 //031   ----------------------------------------
Label_017709D0:
 BYTE   N48  En3  v127
 BYTE   N48  En4
 BYTE   W60
 BYTE   N24  Fs3
 BYTE   N24  Fs4
 BYTE   W24
 BYTE   N12  Gn3
 BYTE   N12  Gn4
 BYTE   W12
 BYTE   PEND 
//  #05 //032   ----------------------------------------
Label_017709E1:
 BYTE   TIE  Fs3  v127
 BYTE   TIE  Fs4
 BYTE   W96
 BYTE   PEND 
//  #05 //033   ----------------------------------------
 BYTE   W12
 BYTE   EOT
 BYTE   Fs3  v078
 BYTE   W12
 BYTE   N24  Fs2
 BYTE   N24  Fs3
 BYTE   W24
 BYTE   N12  Gn2
 BYTE   N12  Gn3
 BYTE   W12
 BYTE   An2
 BYTE   N12  An3
 BYTE   W12
 BYTE   N06  An2
 BYTE   N06  An3
 BYTE   W12
 BYTE   N12  Cs3
 BYTE   N12  Cs4
 BYTE   W12
//  #05 //034   ----------------------------------------
Label_01770A05:
 BYTE   N24  Bn2  v127
 BYTE   N24  Bn3
 BYTE   W24
 BYTE   N06  Bn2
 BYTE   N06  Bn3
 BYTE   W12
 BYTE   N12  Cs3
 BYTE   N12  Cs4
 BYTE   W24
 BYTE   Dn3
 BYTE   N12  Dn4
 BYTE   W12
 BYTE   En3
 BYTE   N12  En4
 BYTE   W24
 BYTE   PEND 
//  #05 //035   ----------------------------------------
 BYTE   PATT
  POIN2 Label_01770A05
//  #05 //036   ----------------------------------------
Label_01770A23:
 BYTE   N48  Fs3  v127
 BYTE   N48  Fs4
 BYTE   W48
 BYTE   N36  En3
 BYTE   N36  En4
 BYTE   W36
 BYTE   N12  Dn3
 BYTE   N12  Dn4
 BYTE   W12
 BYTE   PEND 
//  #05 //037   ----------------------------------------
Label_01770A34:
 BYTE   N24  Cs3  v127
 BYTE   N24  Cs4
 BYTE   W24
 BYTE   N12  Dn3
 BYTE   N12  Dn4
 BYTE   W12
 BYTE   Cs3
 BYTE   N12  Cs4
 BYTE   W12
 BYTE   N36  Bn2
 BYTE   N36  Bn3
 BYTE   W48
 BYTE   PEND 
//  #05 //038   ----------------------------------------
Label_01770A49:
 BYTE   N24  Gn2  v127
 BYTE   N24  Gn3
 BYTE   W24
 BYTE   N06  Gn2
 BYTE   N06  Gn3
 BYTE   W12
 BYTE   N12  An2
 BYTE   N12  An3
 BYTE   W24
 BYTE   Bn2
 BYTE   N12  Bn3
 BYTE   W12
 BYTE   En3
 BYTE   N12  En4
 BYTE   W24
 BYTE   PEND 
//  #05 //039   ----------------------------------------
 BYTE   PATT
  POIN2 Label_01770A49
//  #05 //040   ----------------------------------------
Label_01770A67:
 BYTE   N24  Cs3  v127
 BYTE   N24  Cs4
 BYTE   W24
 BYTE   N06  Cs3
 BYTE   N06  Cs4
 BYTE   W12
 BYTE   N12  Dn3
 BYTE   N12  Dn4
 BYTE   W12
 BYTE   En3
 BYTE   N12  En4
 BYTE   W24
 BYTE   As2
 BYTE   N12  As3
 BYTE   W12
 BYTE   Bn2
 BYTE   N12  Bn3
 BYTE   W12
 BYTE   PEND 
//  #05 //041   ----------------------------------------
Label_01770A84:
 BYTE   N12  Cs3  v127
 BYTE   N12  Cs4
 BYTE   W24
 BYTE   Fs2
 BYTE   N12  Fs3
 BYTE   W12
 BYTE   Cs3
 BYTE   N12  Cs4
 BYTE   W12
 BYTE   Dn3
 BYTE   N12  Dn4
 BYTE   W12
 BYTE   Fs3
 BYTE   N12  Fs4
 BYTE   W12
 BYTE   En3
 BYTE   N12  En4
 BYTE   W12
 BYTE   Dn3
 BYTE   N12  Dn4
 BYTE   W12
 BYTE   PEND 
//  #05 //042   ----------------------------------------
 BYTE   PATT
  POIN2 Label_01770A05
//  #05 //043   ----------------------------------------
Label_01770AA8:
 BYTE   N24  Fs3  v127
 BYTE   N24  Fs4
 BYTE   W24
 BYTE   N06  Fs3
 BYTE   N06  Fs4
 BYTE   W12
 BYTE   N12  En3
 BYTE   N12  En4
 BYTE   W24
 BYTE   Gn3
 BYTE   N12  Gn4
 BYTE   W12
 BYTE   Fs3
 BYTE   N12  Fs4
 BYTE   W24
 BYTE   PEND 
//  #05 //044   ----------------------------------------
Label_01770AC1:
 BYTE   N36  Dn3  v127
 BYTE   N36  Dn4
 BYTE   W36
 BYTE   N06  Dn3
 BYTE   N06  Dn4
 BYTE   W12
 BYTE   N24  En3
 BYTE   N24  En4
 BYTE   W24
 BYTE   N12  Dn3
 BYTE   N12  Dn4
 BYTE   W12
 BYTE   Cs3
 BYTE   N12  Cs4
 BYTE   W12
 BYTE   PEND 
//  #05 //045   ----------------------------------------
Label_01770ADB:
 BYTE   N60  Bn2  v127
 BYTE   N60  Bn3
 BYTE   W72
 BYTE   N12  As2
 BYTE   N12  As3
 BYTE   W12
 BYTE   Bn2
 BYTE   N12  Bn3
 BYTE   W12
 BYTE   PEND 
//  #05 //046   ----------------------------------------
 BYTE   PATT
  POIN2 Label_017708F1
//  #05 //047   ----------------------------------------
Label_01770AF0:
 BYTE   N36  Gn3  v127
 BYTE   N36  Gn4
 BYTE   W36
 BYTE   N12  Fs3
 BYTE   N12  Fs4
 BYTE   W24
 BYTE   N24  Cs3
 BYTE   N24  Cs4
 BYTE   W24
 BYTE   N12  Dn3
 BYTE   N12  Dn4
 BYTE   W12
 BYTE   PEND 
//  #05 //048   ----------------------------------------
Label_01770B06:
 BYTE   N48  Cs3  v127
 BYTE   N48  Cs4
 BYTE   W48
 BYTE   N06  Dn3
 BYTE   N06  Dn4
 BYTE   W06
 BYTE   Cs3
 BYTE   N06  Cs4
 BYTE   W06
 BYTE   N96  Bn2
 BYTE   N96  Bn3
 BYTE   W36
 BYTE   PEND 
//  #05 //049   ----------------------------------------
Label_01770B1B:
 BYTE   W96
//  #05 //050   ----------------------------------------
 BYTE   PATT
  POIN2 Label_01770898
//  #05 //051   ----------------------------------------
 BYTE   PATT
  POIN2 Label_017708A5
//  #05 //052   ----------------------------------------
 BYTE   PATT
  POIN2 Label_017708C3
//  #05 //053   ----------------------------------------
 BYTE   PATT
  POIN2 Label_017708D3
//  #05 //054   ----------------------------------------
 BYTE   PATT
  POIN2 Label_017708F1
//  #05 //055   ----------------------------------------
 BYTE   PATT
  POIN2 Label_01770902
//  #05 //056   ----------------------------------------
 BYTE   PATT
  POIN2 Label_01770916
//  #05 //057   ----------------------------------------
 BYTE   W60
 BYTE   EOT
 BYTE   Bn2  v071
 BYTE   W36
//  #05 //058   ----------------------------------------
 BYTE   PATT
  POIN2 Label_01770922
//  #05 //059   ----------------------------------------
 BYTE   PATT
  POIN2 Label_017708A5
//  #05 //060   ----------------------------------------
 BYTE   PATT
  POIN2 Label_01770939
//  #05 //061   ----------------------------------------
 BYTE   PATT
  POIN2 Label_017708D3
//  #05 //062   ----------------------------------------
 BYTE   PATT
  POIN2 Label_017708F1
//  #05 //063   ----------------------------------------
 BYTE   PATT
  POIN2 Label_0177095E
//  #05 //064   ----------------------------------------
 BYTE   N96  Bn2  v127
 BYTE   N96  Bn3
 BYTE   W96
//  #05 //065   ----------------------------------------
 BYTE   PATT
  POIN2 Label_01770979
//  #05 //066   ----------------------------------------
 BYTE   PATT
  POIN2 Label_0177098F
//  #05 //067   ----------------------------------------
 BYTE   PATT
  POIN2 Label_017709A4
//  #05 //068   ----------------------------------------
 BYTE   PATT
  POIN2 Label_017709B5
//  #05 //069   ----------------------------------------
 BYTE   W60
 BYTE   EOT
 BYTE   Bn2  v071
 BYTE   W36
//  #05 //070   ----------------------------------------
 BYTE   PATT
  POIN2 Label_0177098F
//  #05 //071   ----------------------------------------
 BYTE   PATT
  POIN2 Label_017709D0
//  #05 //072   ----------------------------------------
 BYTE   PATT
  POIN2 Label_017709E1
//  #05 //073   ----------------------------------------
 BYTE   W12
 BYTE   EOT
 BYTE   Fs3  v078
 BYTE   W12
 BYTE   N24  Fs2  v127
 BYTE   N24  Fs3
 BYTE   W24
 BYTE   N12  Gn2
 BYTE   N12  Gn3
 BYTE   W12
 BYTE   An2
 BYTE   N12  An3
 BYTE   W12
 BYTE   N06  An2
 BYTE   N06  An3
 BYTE   W12
 BYTE   N12  Cs3
 BYTE   N12  Cs4
 BYTE   W12
//  #05 //074   ----------------------------------------
 BYTE   PATT
  POIN2 Label_01770A05
//  #05 //075   ----------------------------------------
 BYTE   PATT
  POIN2 Label_01770A05
//  #05 //076   ----------------------------------------
 BYTE   PATT
  POIN2 Label_01770A23
//  #05 //077   ----------------------------------------
 BYTE   PATT
  POIN2 Label_01770A34
//  #05 //078   ----------------------------------------
 BYTE   PATT
  POIN2 Label_01770A49
//  #05 //079   ----------------------------------------
 BYTE   PATT
  POIN2 Label_01770A49
//  #05 //080   ----------------------------------------
 BYTE   PATT
  POIN2 Label_01770A67
//  #05 //081   ----------------------------------------
 BYTE   PATT
  POIN2 Label_01770A84
//  #05 //082   ----------------------------------------
 BYTE   PATT
  POIN2 Label_01770A05
//  #05 //083   ----------------------------------------
 BYTE   PATT
  POIN2 Label_01770AA8
//  #05 //084   ----------------------------------------
 BYTE   PATT
  POIN2 Label_01770AC1
//  #05 //085   ----------------------------------------
 BYTE   PATT
  POIN2 Label_01770ADB
//  #05 //086   ----------------------------------------
 BYTE   PATT
  POIN2 Label_017708F1
//  #05 //087   ----------------------------------------
 BYTE   PATT
  POIN2 Label_01770AF0
//  #05 //088   ----------------------------------------
 BYTE   PATT
  POIN2 Label_01770B06
//  #05 //089   ----------------------------------------
 BYTE   GoTo
  POIN2 Label_01770B1B
//  #05 //090   ----------------------------------------
 BYTE   W96
//  #05 //091   ----------------------------------------
 BYTE   W12
 BYTE   FINE

//**************** Track 6 (Midi-Chn.5) ****************//

KnockYouDown_006:
//  #06 //000   ----------------------------------------
 BYTE   KEYSH   KnockYouDown_key+0
 BYTE   VOICE   61
 BYTE   VOL   20*KnockYouDown_mvl/mxv
 BYTE   PAN   c_v-61
 BYTE   W96
//  #06 //001   ----------------------------------------
 BYTE   W96
//  #06 //002   ----------------------------------------
 BYTE   W96
//  #06 //003   ----------------------------------------
 BYTE   W96
//  #06 //004   ----------------------------------------
 BYTE   W96
//  #06 //005   ----------------------------------------
 BYTE   W96
//  #06 //006   ----------------------------------------
 BYTE   W96
//  #06 //007   ----------------------------------------
 BYTE   W96
//  #06 //008   ----------------------------------------
 BYTE   W96
//  #06 //009   ----------------------------------------
 BYTE   W96
//  #06 //010   ----------------------------------------
Label_01770C26:
 BYTE   W48
 BYTE   N24  Bn2  v127
 BYTE   N24  Bn3
 BYTE   W36
 BYTE   N12  Bn2
 BYTE   N12  Bn3
 BYTE   W12
 BYTE   PEND 
//  #06 //011   ----------------------------------------
Label_01770C33:
 BYTE   W12
 BYTE   N24  Dn3  v127
 BYTE   N24  Dn4
 BYTE   W24
 BYTE   N12  Dn3
 BYTE   N12  Dn4
 BYTE   W12
 BYTE   Cs3
 BYTE   N12  Cs4
 BYTE   W12
 BYTE   Bn2
 BYTE   N12  Bn3
 BYTE   W12
 BYTE   N24  Cs3
 BYTE   N24  Cs4
 BYTE   W24
 BYTE   PEND 
//  #06 //012   ----------------------------------------
Label_01770C4D:
 BYTE   N12  Bn2  v127
 BYTE   N12  Bn3
 BYTE   W12
 BYTE   N24  Gn2
 BYTE   N24  Gn3
 BYTE   W48
 BYTE   N12  Gn2
 BYTE   N12  Gn3
 BYTE   W24
 BYTE   Gn2
 BYTE   N12  Gn3
 BYTE   W12
 BYTE   PEND 
//  #06 //013   ----------------------------------------
Label_01770C62:
 BYTE   W12
 BYTE   N24  Fs3  v127
 BYTE   N24  Fs4
 BYTE   W24
 BYTE   N12  Fs3
 BYTE   N12  Fs4
 BYTE   W12
 BYTE   En3
 BYTE   N12  En4
 BYTE   W12
 BYTE   Dn3
 BYTE   N12  Dn4
 BYTE   W12
 BYTE   N24  En3
 BYTE   N24  En4
 BYTE   W24
 BYTE   PEND 
//  #06 //014   ----------------------------------------
Label_01770C7C:
 BYTE   N12  Dn3  v127
 BYTE   N12  Dn4
 BYTE   W12
 BYTE   N48  Cs3
 BYTE   N48  Cs4
 BYTE   W48
 BYTE   N36  Dn3
 BYTE   N36  Dn4
 BYTE   W36
 BYTE   PEND 
//  #06 //015   ----------------------------------------
Label_01770C8D:
 BYTE   N12  En3  v127
 BYTE   N12  En4
 BYTE   W12
 BYTE   N24  An2
 BYTE   N24  An3
 BYTE   W36
 BYTE   An2
 BYTE   N24  An3
 BYTE   W24
 BYTE   Dn3
 BYTE   N24  Dn4
 BYTE   W24
 BYTE   PEND 
//  #06 //016   ----------------------------------------
Label_01770CA1:
 BYTE   N12  Cs3  v127
 BYTE   N12  Cs4
 BYTE   W12
 BYTE   TIE  Bn2
 BYTE   TIE  Bn3
 BYTE   W84
 BYTE   PEND 
//  #06 //017   ----------------------------------------
 BYTE   W72
 BYTE   EOT
 BYTE   Bn2  v071
 BYTE   W24
//  #06 //018   ----------------------------------------
Label_01770CB2:
 BYTE   W48
 BYTE   N24  Bn2  v127
 BYTE   N24  Bn3
 BYTE   W24
 BYTE   N06  Bn2
 BYTE   N06  Bn3
 BYTE   W12
 BYTE   N12  Bn2
 BYTE   N12  Bn3
 BYTE   W12
 BYTE   PEND 
//  #06 //019   ----------------------------------------
 BYTE   PATT
  POIN2 Label_01770C33
//  #06 //020   ----------------------------------------
Label_01770CC9:
 BYTE   N12  Bn2  v127
 BYTE   N12  Bn3
 BYTE   W12
 BYTE   N24  Gn2
 BYTE   N24  Gn3
 BYTE   W36
 BYTE   N06  Gn2
 BYTE   N06  Gn3
 BYTE   W12
 BYTE   N12  Gn2
 BYTE   N12  Gn3
 BYTE   W12
 BYTE   N06  Gn2
 BYTE   N06  Gn3
 BYTE   W12
 BYTE   N12  Gn2
 BYTE   N12  Gn3
 BYTE   W12
 BYTE   PEND 
//  #06 //021   ----------------------------------------
 BYTE   PATT
  POIN2 Label_01770C62
//  #06 //022   ----------------------------------------
 BYTE   PATT
  POIN2 Label_01770C7C
//  #06 //023   ----------------------------------------
Label_01770CF3:
 BYTE   N12  En3  v127
 BYTE   N12  En4
 BYTE   W12
 BYTE   N36  Fs3
 BYTE   N36  Fs4
 BYTE   W36
 BYTE   N12  En3
 BYTE   N12  En4
 BYTE   W24
 BYTE   N24  Dn3
 BYTE   N24  Dn4
 BYTE   W24
 BYTE   PEND 
//  #06 //024   ----------------------------------------
Label_01770D09:
 BYTE   N12  As2  v127
 BYTE   N12  As3
 BYTE   W12
 BYTE   N96  Bn2
 BYTE   N96  Bn3
 BYTE   W84
 BYTE   PEND 
//  #06 //025   ----------------------------------------
Label_01770D15:
 BYTE   W36
 BYTE   N12  Fs2  v127
 BYTE   N12  Fs3
 BYTE   W24
 BYTE   Bn2
 BYTE   N12  Bn3
 BYTE   W12
 BYTE   N06  Bn2
 BYTE   N06  Bn3
 BYTE   W12
 BYTE   N36  Cs3
 BYTE   N36  Cs4
 BYTE   W12
 BYTE   PEND 
//  #06 //026   ----------------------------------------
Label_01770D2B:
 BYTE   W24
 BYTE   N48  Dn3  v127
 BYTE   N48  Dn4
 BYTE   W48
 BYTE   N12  Bn2
 BYTE   N12  Bn3
 BYTE   W12
 BYTE   Cs3
 BYTE   N12  Cs4
 BYTE   W12
 BYTE   PEND 
//  #06 //027   ----------------------------------------
Label_01770D3C:
 BYTE   N12  Dn3  v127
 BYTE   N12  Dn4
 BYTE   W12
 BYTE   N48  En3
 BYTE   N48  En4
 BYTE   W60
 BYTE   N24  Cs3
 BYTE   N24  Cs4
 BYTE   W24
 BYTE   PEND 
//  #06 //028   ----------------------------------------
Label_01770D4D:
 BYTE   N12  Dn3  v127
 BYTE   N12  Dn4
 BYTE   W12
 BYTE   N24  Cs3
 BYTE   N24  Cs4
 BYTE   W24
 BYTE   N06  Bn2
 BYTE   N06  Bn3
 BYTE   W12
 BYTE   TIE  Bn2
 BYTE   TIE  Bn3
 BYTE   W48
 BYTE   PEND 
//  #06 //029   ----------------------------------------
 BYTE   W72
 BYTE   EOT
 BYTE   Bn2  v071
 BYTE   W24
//  #06 //030   ----------------------------------------
 BYTE   PATT
  POIN2 Label_01770D2B
//  #06 //031   ----------------------------------------
Label_01770D6D:
 BYTE   N12  Dn3  v127
 BYTE   N12  Dn4
 BYTE   W12
 BYTE   N48  En3
 BYTE   N48  En4
 BYTE   W60
 BYTE   N24  Fs3
 BYTE   N24  Fs4
 BYTE   W24
 BYTE   PEND 
//  #06 //032   ----------------------------------------
Label_01770D7E:
 BYTE   N12  Gn3  v127
 BYTE   N12  Gn4
 BYTE   W12
 BYTE   TIE  Fs3
 BYTE   TIE  Fs4
 BYTE   W84
 BYTE   PEND 
//  #06 //033   ----------------------------------------
 BYTE   W24
 BYTE   EOT
 BYTE   Fs3  v078
 BYTE   W12
 BYTE   N24  Fs2
 BYTE   N24  Fs3
 BYTE   W24
 BYTE   N12  Gn2
 BYTE   N12  Gn3
 BYTE   W12
 BYTE   An2
 BYTE   N12  An3
 BYTE   W12
 BYTE   N06  An2
 BYTE   N06  An3
 BYTE   W12
//  #06 //034   ----------------------------------------
Label_01770DA2:
 BYTE   N12  Cs3  v127
 BYTE   N12  Cs4
 BYTE   W12
 BYTE   N24  Bn2
 BYTE   N24  Bn3
 BYTE   W24
 BYTE   N06  Bn2
 BYTE   N06  Bn3
 BYTE   W12
 BYTE   N12  Cs3
 BYTE   N12  Cs4
 BYTE   W24
 BYTE   Dn3
 BYTE   N12  Dn4
 BYTE   W12
 BYTE   En3
 BYTE   N12  En4
 BYTE   W12
 BYTE   PEND 
//  #06 //035   ----------------------------------------
Label_01770DC0:
 BYTE   W12
 BYTE   N24  Bn2  v127
 BYTE   N24  Bn3
 BYTE   W24
 BYTE   N06  Bn2
 BYTE   N06  Bn3
 BYTE   W12
 BYTE   N12  Cs3
 BYTE   N12  Cs4
 BYTE   W24
 BYTE   Dn3
 BYTE   N12  Dn4
 BYTE   W12
 BYTE   En3
 BYTE   N12  En4
 BYTE   W12
 BYTE   PEND 
//  #06 //036   ----------------------------------------
Label_01770DDA:
 BYTE   W12
 BYTE   N48  Fs3  v127
 BYTE   N48  Fs4
 BYTE   W48
 BYTE   N36  En3
 BYTE   N36  En4
 BYTE   W36
 BYTE   PEND 
//  #06 //037   ----------------------------------------
Label_01770DE7:
 BYTE   N12  Dn3  v127
 BYTE   N12  Dn4
 BYTE   W12
 BYTE   N24  Cs3
 BYTE   N24  Cs4
 BYTE   W24
 BYTE   N12  Dn3
 BYTE   N12  Dn4
 BYTE   W12
 BYTE   Cs3
 BYTE   N12  Cs4
 BYTE   W12
 BYTE   N36  Bn2
 BYTE   N36  Bn3
 BYTE   W36
 BYTE   PEND 
//  #06 //038   ----------------------------------------
Label_01770E01:
 BYTE   W12
 BYTE   N24  Gn2  v127
 BYTE   N24  Gn3
 BYTE   W24
 BYTE   N06  Gn2
 BYTE   N06  Gn3
 BYTE   W12
 BYTE   N12  An2
 BYTE   N12  An3
 BYTE   W24
 BYTE   Bn2
 BYTE   N12  Bn3
 BYTE   W12
 BYTE   En3
 BYTE   N12  En4
 BYTE   W12
 BYTE   PEND 
//  #06 //039   ----------------------------------------
 BYTE   PATT
  POIN2 Label_01770E01
//  #06 //040   ----------------------------------------
Label_01770E20:
 BYTE   W12
 BYTE   N24  Cs3  v127
 BYTE   N24  Cs4
 BYTE   W24
 BYTE   N06  Cs3
 BYTE   N06  Cs4
 BYTE   W12
 BYTE   N12  Dn3
 BYTE   N12  Dn4
 BYTE   W12
 BYTE   En3
 BYTE   N12  En4
 BYTE   W24
 BYTE   As2
 BYTE   N12  As3
 BYTE   W12
 BYTE   PEND 
//  #06 //041   ----------------------------------------
Label_01770E3A:
 BYTE   N12  Bn2  v127
 BYTE   N12  Bn3
 BYTE   W12
 BYTE   Cs3
 BYTE   N12  Cs4
 BYTE   W24
 BYTE   Fs2
 BYTE   N12  Fs3
 BYTE   W12
 BYTE   Cs3
 BYTE   N12  Cs4
 BYTE   W12
 BYTE   Dn3
 BYTE   N12  Dn4
 BYTE   W12
 BYTE   Fs3
 BYTE   N12  Fs4
 BYTE   W12
 BYTE   En3
 BYTE   N12  En4
 BYTE   W12
 BYTE   PEND 
//  #06 //042   ----------------------------------------
Label_01770E59:
 BYTE   N12  Dn3  v127
 BYTE   N12  Dn4
 BYTE   W12
 BYTE   N24  Bn2
 BYTE   N24  Bn3
 BYTE   W24
 BYTE   N06  Bn2
 BYTE   N06  Bn3
 BYTE   W12
 BYTE   N12  Cs3
 BYTE   N12  Cs4
 BYTE   W24
 BYTE   Dn3
 BYTE   N12  Dn4
 BYTE   W12
 BYTE   En3
 BYTE   N12  En4
 BYTE   W12
 BYTE   PEND 
//  #06 //043   ----------------------------------------
Label_01770E77:
 BYTE   W12
 BYTE   N24  Fs3  v127
 BYTE   N24  Fs4
 BYTE   W24
 BYTE   N06  Fs3
 BYTE   N06  Fs4
 BYTE   W12
 BYTE   N12  En3
 BYTE   N12  En4
 BYTE   W24
 BYTE   Gn3
 BYTE   N12  Gn4
 BYTE   W12
 BYTE   Fs3
 BYTE   N12  Fs4
 BYTE   W12
 BYTE   PEND 
//  #06 //044   ----------------------------------------
Label_01770E91:
 BYTE   W12
 BYTE   N36  Dn3  v127
 BYTE   N36  Dn4
 BYTE   W36
 BYTE   N06  Dn3
 BYTE   N06  Dn4
 BYTE   W12
 BYTE   N24  En3
 BYTE   N24  En4
 BYTE   W24
 BYTE   N12  Dn3
 BYTE   N12  Dn4
 BYTE   W12
 BYTE   PEND 
//  #06 //045   ----------------------------------------
Label_01770EA8:
 BYTE   N12  Cs3  v127
 BYTE   N12  Cs4
 BYTE   W12
 BYTE   N60  Bn2
 BYTE   N60  Bn3
 BYTE   W72
 BYTE   N12  As2
 BYTE   N12  As3
 BYTE   W12
 BYTE   PEND 
//  #06 //046   ----------------------------------------
Label_01770EB9:
 BYTE   N12  Bn2  v127
 BYTE   N12  Bn3
 BYTE   W12
 BYTE   N48  Cs3
 BYTE   N48  Cs4
 BYTE   W48
 BYTE   N36  Dn3
 BYTE   N36  Dn4
 BYTE   W36
 BYTE   PEND 
//  #06 //047   ----------------------------------------
Label_01770ECA:
 BYTE   N12  En3  v127
 BYTE   N12  En4
 BYTE   W12
 BYTE   N36  Gn3
 BYTE   N36  Gn4
 BYTE   W36
 BYTE   N12  Fs3
 BYTE   N12  Fs4
 BYTE   W24
 BYTE   N24  Cs3
 BYTE   N24  Cs4
 BYTE   W24
 BYTE   PEND 
//  #06 //048   ----------------------------------------
Label_01770EE0:
 BYTE   N12  Dn3  v127
 BYTE   N12  Dn4
 BYTE   W12
 BYTE   N48  Cs3
 BYTE   N48  Cs4
 BYTE   W48
 BYTE   N06  Dn3
 BYTE   N06  Dn4
 BYTE   W06
 BYTE   Cs3
 BYTE   N06  Cs4
 BYTE   W06
 BYTE   N96  Bn2
 BYTE   N96  Bn3
 BYTE   W24
 BYTE   PEND 
//  #06 //049   ----------------------------------------
Label_01770EFA:
 BYTE   W96
//  #06 //050   ----------------------------------------
 BYTE   PATT
  POIN2 Label_01770C26
//  #06 //051   ----------------------------------------
 BYTE   PATT
  POIN2 Label_01770C33
//  #06 //052   ----------------------------------------
 BYTE   PATT
  POIN2 Label_01770C4D
//  #06 //053   ----------------------------------------
 BYTE   PATT
  POIN2 Label_01770C62
//  #06 //054   ----------------------------------------
 BYTE   PATT
  POIN2 Label_01770C7C
//  #06 //055   ----------------------------------------
 BYTE   PATT
  POIN2 Label_01770C8D
//  #06 //056   ----------------------------------------
 BYTE   PATT
  POIN2 Label_01770CA1
//  #06 //057   ----------------------------------------
 BYTE   W72
 BYTE   EOT
 BYTE   Bn2  v071
 BYTE   W24
//  #06 //058   ----------------------------------------
 BYTE   PATT
  POIN2 Label_01770CB2
//  #06 //059   ----------------------------------------
 BYTE   PATT
  POIN2 Label_01770C33
//  #06 //060   ----------------------------------------
 BYTE   PATT
  POIN2 Label_01770CC9
//  #06 //061   ----------------------------------------
 BYTE   PATT
  POIN2 Label_01770C62
//  #06 //062   ----------------------------------------
 BYTE   PATT
  POIN2 Label_01770C7C
//  #06 //063   ----------------------------------------
 BYTE   PATT
  POIN2 Label_01770CF3
//  #06 //064   ----------------------------------------
 BYTE   PATT
  POIN2 Label_01770D09
//  #06 //065   ----------------------------------------
 BYTE   PATT
  POIN2 Label_01770D15
//  #06 //066   ----------------------------------------
 BYTE   PATT
  POIN2 Label_01770D2B
//  #06 //067   ----------------------------------------
 BYTE   PATT
  POIN2 Label_01770D3C
//  #06 //068   ----------------------------------------
 BYTE   PATT
  POIN2 Label_01770D4D
//  #06 //069   ----------------------------------------
 BYTE   W72
 BYTE   EOT
 BYTE   Bn2  v071
 BYTE   W24
//  #06 //070   ----------------------------------------
 BYTE   PATT
  POIN2 Label_01770D2B
//  #06 //071   ----------------------------------------
 BYTE   PATT
  POIN2 Label_01770D6D
//  #06 //072   ----------------------------------------
 BYTE   PATT
  POIN2 Label_01770D7E
//  #06 //073   ----------------------------------------
 BYTE   W24
 BYTE   EOT
 BYTE   Fs3  v078
 BYTE   W12
 BYTE   N24  Fs2  v127
 BYTE   N24  Fs3
 BYTE   W24
 BYTE   N12  Gn2
 BYTE   N12  Gn3
 BYTE   W12
 BYTE   An2
 BYTE   N12  An3
 BYTE   W12
 BYTE   N06  An2
 BYTE   N06  An3
 BYTE   W12
//  #06 //074   ----------------------------------------
 BYTE   PATT
  POIN2 Label_01770DA2
//  #06 //075   ----------------------------------------
 BYTE   PATT
  POIN2 Label_01770DC0
//  #06 //076   ----------------------------------------
 BYTE   PATT
  POIN2 Label_01770DDA
//  #06 //077   ----------------------------------------
 BYTE   PATT
  POIN2 Label_01770DE7
//  #06 //078   ----------------------------------------
 BYTE   PATT
  POIN2 Label_01770E01
//  #06 //079   ----------------------------------------
 BYTE   PATT
  POIN2 Label_01770E01
//  #06 //080   ----------------------------------------
 BYTE   PATT
  POIN2 Label_01770E20
//  #06 //081   ----------------------------------------
 BYTE   PATT
  POIN2 Label_01770E3A
//  #06 //082   ----------------------------------------
 BYTE   PATT
  POIN2 Label_01770E59
//  #06 //083   ----------------------------------------
 BYTE   PATT
  POIN2 Label_01770E77
//  #06 //084   ----------------------------------------
 BYTE   PATT
  POIN2 Label_01770E91
//  #06 //085   ----------------------------------------
 BYTE   PATT
  POIN2 Label_01770EA8
//  #06 //086   ----------------------------------------
 BYTE   PATT
  POIN2 Label_01770EB9
//  #06 //087   ----------------------------------------
 BYTE   PATT
  POIN2 Label_01770ECA
//  #06 //088   ----------------------------------------
 BYTE   PATT
  POIN2 Label_01770EE0
//  #06 //089   ----------------------------------------
 BYTE   GoTo
  POIN2 Label_01770EFA
//  #06 //090   ----------------------------------------
 BYTE   W96
//  #06 //091   ----------------------------------------
 BYTE   W12
 BYTE   FINE

//**************** Track 7 (Midi-Chn.6) ****************//

KnockYouDown_007:
//  #07 //000   ----------------------------------------
 BYTE   VOL   42*KnockYouDown_mvl/mxv
 BYTE   KEYSH   KnockYouDown_key+0
 BYTE   VOICE   124
 BYTE   N24  Cn1  v127
 BYTE   N24  Cs2
 BYTE   W24
 BYTE   N12  Cn1
 BYTE   W12
 BYTE   N24  En1
 BYTE   N12  As1
 BYTE   W12
 BYTE   Gs1
 BYTE   W12
 BYTE   Cn1
 BYTE   N12  Gs1
 BYTE   W12
 BYTE   Cn1
 BYTE   N12  Gs1
 BYTE   W12
 BYTE   En1
 BYTE   N12  Gs1
 BYTE   W12
//  #07 //001   ----------------------------------------
Label_0177100E:
 BYTE   N24  Cn1  v127
 BYTE   N12  As1
 BYTE   W12
 BYTE   Gs1
 BYTE   W12
 BYTE   Cn1
 BYTE   N12  Gs1
 BYTE   W12
 BYTE   N24  En1
 BYTE   N12  As1
 BYTE   W12
 BYTE   Gs1
 BYTE   W12
 BYTE   Cn1
 BYTE   N12  Gs1
 BYTE   W12
 BYTE   Cn1
 BYTE   N12  Gs1
 BYTE   W12
 BYTE   En1
 BYTE   N12  Cs2  v076
 BYTE   W12
 BYTE   PEND 
//  #07 //002   ----------------------------------------
Label_0177102F:
 BYTE   N24  Cn1  v127
 BYTE   N24  Cs2
 BYTE   W24
 BYTE   N12  Cn1
 BYTE   W12
 BYTE   N24  En1
 BYTE   N12  As1
 BYTE   W12
 BYTE   Gs1
 BYTE   W12
 BYTE   Cn1
 BYTE   N12  Gs1
 BYTE   W12
 BYTE   Cn1
 BYTE   N12  Gs1
 BYTE   W12
 BYTE   En1
 BYTE   N12  Gs1
 BYTE   W12
 BYTE   PEND 
//  #07 //003   ----------------------------------------
 BYTE   N24  Cn1
 BYTE   N12  As1
 BYTE   W12
 BYTE   Gs1
 BYTE   W12
 BYTE   N03  En1
 BYTE   N12  Gs1
 BYTE   W03
 BYTE   N21  En1
 BYTE   W09
 BYTE   N12  As1
 BYTE   W12
 BYTE   En1
 BYTE   N12  Gs1
 BYTE   W12
 BYTE   En1
 BYTE   N12  Gs1
 BYTE   W12
 BYTE   Cn1
 BYTE   N12  Gs1
 BYTE   W12
 BYTE   En1
 BYTE   N12  Cs2  v076
 BYTE   W12
//  #07 //004   ----------------------------------------
 BYTE   PATT
  POIN2 Label_0177102F
//  #07 //005   ----------------------------------------
 BYTE   N24  Cn1  v127
 BYTE   N12  As1
 BYTE   W12
 BYTE   Gs1
 BYTE   W12
 BYTE   Bn1
 BYTE   N12  Cn2
 BYTE   N12  Dn2
 BYTE   W12
 BYTE   En1
 BYTE   W12
 BYTE   N06  An1
 BYTE   N06  Bn1
 BYTE   N06  Cn2
 BYTE   W06
 BYTE   An1
 BYTE   N06  Bn1
 BYTE   N06  Cn2
 BYTE   W06
 BYTE   N12  Cn1
 BYTE   N12  Gs1
 BYTE   W12
 BYTE   Cn1
 BYTE   N12  Gs1
 BYTE   W12
 BYTE   En1
 BYTE   N12  Cs2  v076
 BYTE   W12
//  #07 //006   ----------------------------------------
 BYTE   N06  En1  v127
 BYTE   N24  An2
 BYTE   W06
 BYTE   N06  En1  v076
 BYTE   W06
 BYTE   N12  En1  v127
 BYTE   W12
 BYTE   Cn1
 BYTE   W12
 BYTE   N24  En1
 BYTE   N12  As1
 BYTE   W12
 BYTE   Gs1
 BYTE   W12
 BYTE   Cn1
 BYTE   N12  Gs1
 BYTE   W12
 BYTE   Cn1
 BYTE   N12  Gs1
 BYTE   W12
 BYTE   N18  En1
 BYTE   N12  Gs1
 BYTE   W12
//  #07 //007   ----------------------------------------
 BYTE   As1
 BYTE   W06
 BYTE   N03  En1
 BYTE   W03
 BYTE   N03
 BYTE   W03
 BYTE   N12  Cn1
 BYTE   N12  Cs2
 BYTE   W12
 BYTE   N24  En1
 BYTE   N24  An2  v076
 BYTE   W24
 BYTE   En1  v127
 BYTE   N24  An2  v076
 BYTE   W24
 BYTE   En1  v127
 BYTE   N24  An2  v076
 BYTE   W24
//  #07 //008   ----------------------------------------
 BYTE   N36  Cn1  v127
 BYTE   N24  Cs2
 BYTE   W36
 BYTE   N48  Cn1
 BYTE   W48
 BYTE   N24
 BYTE   W12
//  #07 //009   ----------------------------------------
 BYTE   W12
 BYTE   N06  Bn1
 BYTE   N06  Cn2
 BYTE   N06  Dn2
 BYTE   W06
 BYTE   Bn1
 BYTE   N06  Cn2
 BYTE   N06  Dn2
 BYTE   W06
 BYTE   An1
 BYTE   N06  Bn1
 BYTE   N06  Cn2
 BYTE   W12
 BYTE   N12  Cn1
 BYTE   W12
 BYTE   N06  An1
 BYTE   N06  Bn1
 BYTE   N06  Cn2
 BYTE   W06
 BYTE   An1
 BYTE   N06  Bn1
 BYTE   N06  Cn2
 BYTE   W06
 BYTE   Gn1
 BYTE   N06  An1
 BYTE   N06  Bn1
 BYTE   W12
 BYTE   N12  Cn1
 BYTE   W12
 BYTE   N03  En1
 BYTE   W03
 BYTE   N09
 BYTE   W09
//  #07 //010   ----------------------------------------
Label_0177111E:
 BYTE   N24  Cn1  v127
 BYTE   N24  Cs2
 BYTE   W24
 BYTE   N12  Cn1
 BYTE   W12
 BYTE   N24  En1
 BYTE   N12  As1
 BYTE   W12
 BYTE   Gs1
 BYTE   W12
 BYTE   N24  Cn1
 BYTE   N12  Gs1
 BYTE   W12
 BYTE   As1
 BYTE   W12
 BYTE   En1
 BYTE   N12  Gs1
 BYTE   W12
 BYTE   PEND 
//  #07 //011   ----------------------------------------
 BYTE   PATT
  POIN2 Label_0177100E
//  #07 //012   ----------------------------------------
Label_0177113F:
 BYTE   N24  Cn1  v127
 BYTE   N24  An2
 BYTE   W24
 BYTE   N12  Cn1
 BYTE   W12
 BYTE   N24  En1
 BYTE   N12  As1
 BYTE   W12
 BYTE   Gs1
 BYTE   W12
 BYTE   N24  Cn1
 BYTE   N12  Gs1
 BYTE   W12
 BYTE   As1
 BYTE   W12
 BYTE   En1
 BYTE   N12  Gs1
 BYTE   W12
 BYTE   PEND 
//  #07 //013   ----------------------------------------
Label_0177115B:
 BYTE   N24  Cn1  v127
 BYTE   N12  As1
 BYTE   W12
 BYTE   Gs1
 BYTE   W12
 BYTE   Cn1
 BYTE   N12  Gs1
 BYTE   W12
 BYTE   N24  En1
 BYTE   N12  As1
 BYTE   W12
 BYTE   Gs1
 BYTE   W12
 BYTE   Cn1
 BYTE   N12  Gs1
 BYTE   W12
 BYTE   Cn1
 BYTE   N12  Gs1
 BYTE   W12
 BYTE   En1
 BYTE   N12  Gs1
 BYTE   W12
 BYTE   PEND 
//  #07 //014   ----------------------------------------
 BYTE   PATT
  POIN2 Label_0177111E
//  #07 //015   ----------------------------------------
 BYTE   PATT
  POIN2 Label_0177100E
//  #07 //016   ----------------------------------------
Label_01771185:
 BYTE   N24  Cn1  v127
 BYTE   N24  An2
 BYTE   W24
 BYTE   N12  En1
 BYTE   W12
 BYTE   N24
 BYTE   N12  As1
 BYTE   W12
 BYTE   Gs1
 BYTE   W12
 BYTE   N06  Cn1
 BYTE   N12  Gs1
 BYTE   W06
 BYTE   N06  En1
 BYTE   W06
 BYTE   N03
 BYTE   N12  As1
 BYTE   W03
 BYTE   N09  Cn1
 BYTE   W09
 BYTE   N12  En1
 BYTE   N12  Gs1
 BYTE   W12
 BYTE   PEND 
//  #07 //017   ----------------------------------------
Label_017711A9:
 BYTE   N24  Cn1  v127
 BYTE   N12  As1
 BYTE   W12
 BYTE   Gs1
 BYTE   W12
 BYTE   Cn1
 BYTE   N12  Gs1
 BYTE   W12
 BYTE   N24  En1
 BYTE   N12  As1
 BYTE   W12
 BYTE   Gs1
 BYTE   W12
 BYTE   Cn1
 BYTE   N24  Cs2
 BYTE   W12
 BYTE   N03  En1
 BYTE   W03
 BYTE   N21
 BYTE   W09
 BYTE   N12  Gs1
 BYTE   W12
 BYTE   PEND 
//  #07 //018   ----------------------------------------
 BYTE   PATT
  POIN2 Label_0177111E
//  #07 //019   ----------------------------------------
 BYTE   PATT
  POIN2 Label_0177100E
//  #07 //020   ----------------------------------------
 BYTE   PATT
  POIN2 Label_0177113F
//  #07 //021   ----------------------------------------
 BYTE   PATT
  POIN2 Label_0177115B
//  #07 //022   ----------------------------------------
 BYTE   PATT
  POIN2 Label_0177111E
//  #07 //023   ----------------------------------------
Label_017711E2:
 BYTE   N24  Cn1  v127
 BYTE   N12  As1
 BYTE   W12
 BYTE   Gs1
 BYTE   W12
 BYTE   Cn1
 BYTE   N12  Gs1
 BYTE   W12
 BYTE   N24  En1
 BYTE   N12  As1
 BYTE   W12
 BYTE   Gs1
 BYTE   W12
 BYTE   Cn1
 BYTE   N12  Gs1
 BYTE   W12
 BYTE   Cn1
 BYTE   N12  Gs1
 BYTE   W12
 BYTE   N12
 BYTE   W12
 BYTE   PEND 
//  #07 //024   ----------------------------------------
Label_01771200:
 BYTE   N24  Cn1  v127
 BYTE   W24
 BYTE   N12  En1
 BYTE   W12
 BYTE   N24
 BYTE   N12  As1
 BYTE   W12
 BYTE   Gs1
 BYTE   W12
 BYTE   N06  En1
 BYTE   N12  Gs1
 BYTE   W06
 BYTE   N18  En1
 BYTE   W06
 BYTE   N12  As1
 BYTE   W12
 BYTE   Cn1
 BYTE   N12  As1
 BYTE   W12
 BYTE   PEND 
//  #07 //025   ----------------------------------------
Label_0177121D:
 BYTE   N06  En1  v127
 BYTE   N12  Gs1
 BYTE   W06
 BYTE   N18  En1
 BYTE   W06
 BYTE   N12  Gs1
 BYTE   W12
 BYTE   En1
 BYTE   N12  As1
 BYTE   W12
 BYTE   Cn1
 BYTE   N12  Gs1
 BYTE   W12
 BYTE   En1
 BYTE   N12  As1
 BYTE   W12
 BYTE   Cn1
 BYTE   N12  Gs1
 BYTE   W12
 BYTE   En1
 BYTE   N24  Cs2
 BYTE   W24
 BYTE   PEND 
//  #07 //026   ----------------------------------------
Label_0177123E:
 BYTE   W06
 BYTE   N03  En1  v076
 BYTE   W03
 BYTE   En1  v127
 BYTE   W03
 BYTE   N36  Cn1
 BYTE   N24  Cs2
 BYTE   W24
 BYTE   N12  Gs1
 BYTE   W12
 BYTE   N36  Cn1
 BYTE   N12  As1
 BYTE   W36
 BYTE   N24  En1
 BYTE   W12
 BYTE   PEND 
//  #07 //027   ----------------------------------------
Label_01771257:
 BYTE   W12
 BYTE   N36  Cn1  v127
 BYTE   W12
 BYTE   N12  Gs1
 BYTE   W12
 BYTE   N12
 BYTE   W12
 BYTE   N24  Cn1
 BYTE   N12  As1
 BYTE   W24
 BYTE   Cn1
 BYTE   W12
 BYTE   En1
 BYTE   W12
 BYTE   PEND 
//  #07 //028   ----------------------------------------
Label_0177126B:
 BYTE   N24  Cn1  v127
 BYTE   N24  Cs2
 BYTE   W24
 BYTE   N12  Cn1
 BYTE   W12
 BYTE   N24  En1
 BYTE   N12  As1
 BYTE   W12
 BYTE   Gs1
 BYTE   W12
 BYTE   N24  Cn1
 BYTE   N12  Gs1
 BYTE   W12
 BYTE   N12
 BYTE   W12
 BYTE   En1
 BYTE   N12  Gs1
 BYTE   W12
 BYTE   PEND 
//  #07 //029   ----------------------------------------
 BYTE   PATT
  POIN2 Label_0177115B
//  #07 //030   ----------------------------------------
Label_0177128C:
 BYTE   N06  Cn1  v127
 BYTE   N12  As1
 BYTE   W06
 BYTE   N03  En1
 BYTE   W03
 BYTE   N03
 BYTE   W03
 BYTE   N36  Cn1
 BYTE   N24  Cs2
 BYTE   W24
 BYTE   N12  Gs1
 BYTE   W12
 BYTE   N36  Cn1
 BYTE   N12  As1
 BYTE   W36
 BYTE   N24  En1
 BYTE   W12
 BYTE   PEND 
//  #07 //031   ----------------------------------------
 BYTE   PATT
  POIN2 Label_01771257
//  #07 //032   ----------------------------------------
 BYTE   PATT
  POIN2 Label_0177126B
//  #07 //033   ----------------------------------------
Label_017712B2:
 BYTE   N24  Cn1  v127
 BYTE   N12  As1
 BYTE   W12
 BYTE   Gs1
 BYTE   W12
 BYTE   Cn1
 BYTE   N12  Bn1
 BYTE   N12  Cn2
 BYTE   N12  Dn2
 BYTE   W12
 BYTE   En1
 BYTE   N12  An1
 BYTE   N12  Bn1
 BYTE   N12  Cn2
 BYTE   W12
 BYTE   N06  An1
 BYTE   N06  Bn1
 BYTE   N06  Cn2
 BYTE   W06
 BYTE   An1
 BYTE   N06  Bn1
 BYTE   N06  Cn2
 BYTE   W06
 BYTE   N12  Cn1
 BYTE   N12  Gs1
 BYTE   W12
 BYTE   Cn1
 BYTE   N12  Gs1
 BYTE   W12
 BYTE   En1
 BYTE   N12  As1
 BYTE   W12
 BYTE   PEND 
//  #07 //034   ----------------------------------------
Label_017712E5:
 BYTE   N24  Cn1  v127
 BYTE   N24  Cs2
 BYTE   W24
 BYTE   N12  Cn1
 BYTE   W12
 BYTE   N24  En1
 BYTE   N12  As1
 BYTE   W12
 BYTE   Gs1
 BYTE   W12
 BYTE   N24  Cn1
 BYTE   N12  Gs1
 BYTE   W12
 BYTE   N12
 BYTE   W12
 BYTE   N24  En1
 BYTE   N12  Gs1
 BYTE   W12
 BYTE   PEND 
//  #07 //035   ----------------------------------------
Label_01771302:
 BYTE   N12  As1  v127
 BYTE   W12
 BYTE   N24  Cn1
 BYTE   N12  Gs1
 BYTE   W12
 BYTE   N12
 BYTE   W12
 BYTE   N24  En1
 BYTE   N12  As1
 BYTE   W12
 BYTE   Gs1
 BYTE   W12
 BYTE   Cn1
 BYTE   N12  Gs1
 BYTE   W12
 BYTE   Cn1
 BYTE   N12  Gs1
 BYTE   W12
 BYTE   En1
 BYTE   N12  Gs1
 BYTE   W12
 BYTE   PEND 
//  #07 //036   ----------------------------------------
Label_01771321:
 BYTE   N24  Cn1  v127
 BYTE   N12  As1
 BYTE   W12
 BYTE   Gs1
 BYTE   W12
 BYTE   Cn1
 BYTE   N12  Gs1
 BYTE   W12
 BYTE   N24  En1
 BYTE   N12  As1
 BYTE   W12
 BYTE   Gs1
 BYTE   W12
 BYTE   N24  Cn1
 BYTE   N12  Gs1
 BYTE   W12
 BYTE   N12
 BYTE   W12
 BYTE   N24  En1
 BYTE   N12  Gs1
 BYTE   W12
 BYTE   PEND 
//  #07 //037   ----------------------------------------
 BYTE   PATT
  POIN2 Label_01771302
//  #07 //038   ----------------------------------------
 BYTE   PATT
  POIN2 Label_01771321
//  #07 //039   ----------------------------------------
 BYTE   PATT
  POIN2 Label_01771302
//  #07 //040   ----------------------------------------
Label_01771350:
 BYTE   N24  Cn1  v127
 BYTE   N12  As1
 BYTE   W12
 BYTE   Gs1
 BYTE   W12
 BYTE   Cn1
 BYTE   N12  Gs1
 BYTE   W12
 BYTE   N24  En1
 BYTE   N12  As1
 BYTE   W12
 BYTE   Gs1
 BYTE   W12
 BYTE   Cn1
 BYTE   N12  Gs1
 BYTE   W12
 BYTE   Cn1
 BYTE   N12  Gs1
 BYTE   W12
 BYTE   N24  Cn1
 BYTE   N12  Gs1
 BYTE   W12
 BYTE   PEND 
//  #07 //041   ----------------------------------------
Label_01771371:
 BYTE   W12
 BYTE   N24  En1  v127
 BYTE   N12  An1
 BYTE   N12  Bn1
 BYTE   N12  Cn2
 BYTE   W24
 BYTE   Cn1
 BYTE   W12
 BYTE   N24  En1
 BYTE   N12  Gn1
 BYTE   N12  An1
 BYTE   N12  Bn1
 BYTE   W24
 BYTE   En1
 BYTE   W12
 BYTE   N12
 BYTE   N12  Fn1
 BYTE   N12  Gn1
 BYTE   N12  An1
 BYTE   W12
 BYTE   PEND 
//  #07 //042   ----------------------------------------
 BYTE   PATT
  POIN2 Label_017712E5
//  #07 //043   ----------------------------------------
 BYTE   PATT
  POIN2 Label_01771302
//  #07 //044   ----------------------------------------
 BYTE   PATT
  POIN2 Label_01771321
//  #07 //045   ----------------------------------------
 BYTE   PATT
  POIN2 Label_01771302
//  #07 //046   ----------------------------------------
Label_017713A6:
 BYTE   N24  Cn1  v127
 BYTE   N12  As1
 BYTE   W12
 BYTE   Gs1
 BYTE   W12
 BYTE   Cn1
 BYTE   N12  Gs1
 BYTE   W12
 BYTE   N24  En1
 BYTE   N12  As1
 BYTE   W12
 BYTE   Gs1
 BYTE   W12
 BYTE   N24  Cn1
 BYTE   N12  Gs1
 BYTE   W12
 BYTE   N12
 BYTE   W12
 BYTE   En1
 BYTE   N12  Cs2  v076
 BYTE   W12
 BYTE   PEND 
//  #07 //047   ----------------------------------------
Label_017713C6:
 BYTE   N24  Cn1  v127
 BYTE   N24  An2
 BYTE   W24
 BYTE   N12  Cn1
 BYTE   W12
 BYTE   N03  En1
 BYTE   W03
 BYTE   N32
 BYTE   W21
 BYTE   N12  As1
 BYTE   W12
 BYTE   Cn1
 BYTE   N12  Gs1
 BYTE   W12
 BYTE   En1
 BYTE   N12  As1
 BYTE   W12
 BYTE   PEND 
//  #07 //048   ----------------------------------------
Label_017713E0:
 BYTE   N24  Cn1  v127
 BYTE   N12  Gs1
 BYTE   W24
 BYTE   Cn1
 BYTE   N12  Gs1
 BYTE   W12
 BYTE   N24  En1
 BYTE   N12  As1
 BYTE   W12
 BYTE   Gs1
 BYTE   W12
 BYTE   Cn1
 BYTE   N12  Gs1
 BYTE   W12
 BYTE   Cn1
 BYTE   N12  Gs1
 BYTE   W12
 BYTE   En1
 BYTE   N12  Gs1
 BYTE   W12
 BYTE   PEND 
//  #07 //049   ----------------------------------------
Label_017713FE:
 BYTE   N12  Cn1  v127
 BYTE   N12  As1
 BYTE   W12
 BYTE   Cn1
 BYTE   W12
 BYTE   N36  En1
 BYTE   N36  An2
 BYTE   W36
 BYTE   N12  En1
 BYTE   N12  Cs2  v076
 BYTE   W12
 BYTE   N24  En1  v127
 BYTE   N24  An2  v076
 BYTE   W24
 BYTE   PEND 
//  #07 //050   ----------------------------------------
 BYTE   PATT
  POIN2 Label_0177111E
//  #07 //051   ----------------------------------------
 BYTE   PATT
  POIN2 Label_0177100E
//  #07 //052   ----------------------------------------
 BYTE   PATT
  POIN2 Label_0177113F
//  #07 //053   ----------------------------------------
 BYTE   PATT
  POIN2 Label_0177115B
//  #07 //054   ----------------------------------------
 BYTE   PATT
  POIN2 Label_0177111E
//  #07 //055   ----------------------------------------
 BYTE   PATT
  POIN2 Label_0177100E
//  #07 //056   ----------------------------------------
 BYTE   PATT
  POIN2 Label_01771185
//  #07 //057   ----------------------------------------
 BYTE   PATT
  POIN2 Label_017711A9
//  #07 //058   ----------------------------------------
 BYTE   PATT
  POIN2 Label_0177111E
//  #07 //059   ----------------------------------------
 BYTE   PATT
  POIN2 Label_0177100E
//  #07 //060   ----------------------------------------
 BYTE   PATT
  POIN2 Label_0177113F
//  #07 //061   ----------------------------------------
 BYTE   PATT
  POIN2 Label_0177115B
//  #07 //062   ----------------------------------------
 BYTE   PATT
  POIN2 Label_0177111E
//  #07 //063   ----------------------------------------
 BYTE   PATT
  POIN2 Label_017711E2
//  #07 //064   ----------------------------------------
 BYTE   PATT
  POIN2 Label_01771200
//  #07 //065   ----------------------------------------
 BYTE   PATT
  POIN2 Label_0177121D
//  #07 //066   ----------------------------------------
 BYTE   PATT
  POIN2 Label_0177123E
//  #07 //067   ----------------------------------------
 BYTE   PATT
  POIN2 Label_01771257
//  #07 //068   ----------------------------------------
 BYTE   PATT
  POIN2 Label_0177126B
//  #07 //069   ----------------------------------------
 BYTE   PATT
  POIN2 Label_0177115B
//  #07 //070   ----------------------------------------
 BYTE   PATT
  POIN2 Label_0177128C
//  #07 //071   ----------------------------------------
 BYTE   PATT
  POIN2 Label_01771257
//  #07 //072   ----------------------------------------
 BYTE   PATT
  POIN2 Label_0177126B
//  #07 //073   ----------------------------------------
 BYTE   PATT
  POIN2 Label_017712B2
//  #07 //074   ----------------------------------------
 BYTE   PATT
  POIN2 Label_017712E5
//  #07 //075   ----------------------------------------
 BYTE   PATT
  POIN2 Label_01771302
//  #07 //076   ----------------------------------------
 BYTE   PATT
  POIN2 Label_01771321
//  #07 //077   ----------------------------------------
 BYTE   PATT
  POIN2 Label_01771302
//  #07 //078   ----------------------------------------
 BYTE   PATT
  POIN2 Label_01771321
//  #07 //079   ----------------------------------------
 BYTE   PATT
  POIN2 Label_01771302
//  #07 //080   ----------------------------------------
 BYTE   PATT
  POIN2 Label_01771350
//  #07 //081   ----------------------------------------
 BYTE   PATT
  POIN2 Label_01771371
//  #07 //082   ----------------------------------------
 BYTE   PATT
  POIN2 Label_017712E5
//  #07 //083   ----------------------------------------
 BYTE   PATT
  POIN2 Label_01771302
//  #07 //084   ----------------------------------------
 BYTE   PATT
  POIN2 Label_01771321
//  #07 //085   ----------------------------------------
 BYTE   PATT
  POIN2 Label_01771302
//  #07 //086   ----------------------------------------
 BYTE   PATT
  POIN2 Label_017713A6
//  #07 //087   ----------------------------------------
 BYTE   PATT
  POIN2 Label_017713C6
//  #07 //088   ----------------------------------------
 BYTE   PATT
  POIN2 Label_017713E0
//  #07 //089   ----------------------------------------
 BYTE   GoTo
  POIN2 Label_017713FE
//  #07 //090   ----------------------------------------
 BYTE   PATT
  POIN2 Label_017713FE
//  #07 //091   ----------------------------------------
 BYTE   W12
 BYTE   FINE

//******************************************************//
	ALIGN 4

KnockYouDown:
	BYTE	7	// NumTrks
	BYTE	0	// NumBlks
	BYTE	KnockYouDown_pri	// Priority
	BYTE	KnockYouDown_rev	// Reverb.
    
	POIN2	KnockYouDown_grp
    
	POIN2	KnockYouDown_001
	POIN2	KnockYouDown_002
	POIN2	KnockYouDown_003
	POIN2	KnockYouDown_004
	POIN2	KnockYouDown_005
	POIN2	KnockYouDown_006
	POIN2	KnockYouDown_007

	
