//Event file generated from Sappy .s format.
	#include "MPlayDef.event"

	#define	Liberation_grp  voicegroup000
	#define	Liberation_pri  0
	#define	Liberation_rev  0
	#define	Liberation_mvl  127
	#define	Liberation_key  0
	#define	Liberation_tbs  1
	#define	Liberation_exg  0
	#define	Liberation_cmp  1

	// .rodata
	//	Liberation
	ALIGN 4


//**************** Track 1 (Midi-Chn.0) ****************//

Liberation_001:
//  #01 //000   ----------------------------------------
 BYTE   KEYSH   Liberation_key+0
Label_0101631E:
 BYTE   TEMPO   116*Liberation_tbs/2
 BYTE   VOICE   104
 BYTE   VOL   30*Liberation_mvl/mxv
 BYTE   PAN   c_v+0
 BYTE   BEND   c_v+0
 BYTE   N23  Fn2  v124
 BYTE   N23  Cn3
 BYTE   W23
 BYTE   W01
 BYTE   An2
 BYTE   N23  Fn3
 BYTE   W02
 BYTE   W03
 BYTE   W03
 BYTE   W03
 BYTE   W03
 BYTE   W03
 BYTE   W03
 BYTE   W01
 BYTE   W03
 BYTE   As2
 BYTE   N23  Gn3
 BYTE   W03
 BYTE   W03
 BYTE   W03
 BYTE   W03
 BYTE   W03
 BYTE   W03
 BYTE   W03
 BYTE   W03
 BYTE   Ds3
 BYTE   N23  As3
 BYTE   W03
 BYTE   W03
 BYTE   W03
 BYTE   W03
 BYTE   W03
 BYTE   W03
 BYTE   W03
 BYTE   W03
//  #01 //001   ----------------------------------------
 BYTE   N30  Cn3
 BYTE   N30  An3
 BYTE   W01
 BYTE   W01
 BYTE   W02
 BYTE   W01
 BYTE   W02
 BYTE   W01
 BYTE   W02
 BYTE   W01
 BYTE   W01
 BYTE   W20
 BYTE   N07  As2
 BYTE   N07  Gn3
 BYTE   W08
 BYTE   An2
 BYTE   N07  Fn3
 BYTE   W08
 BYTE   As2
 BYTE   N07  Gn3
 BYTE   W21
 BYTE   W01
 BYTE   W01
 BYTE   W01
 BYTE   N23  Gn2
 BYTE   N23  Ds3
 BYTE   W02
 BYTE   W01
 BYTE   W02
 BYTE   W01
 BYTE   W02
 BYTE   W16
//  #01 //002   ----------------------------------------
 BYTE   Fn2
 BYTE   N23  Cn3
 BYTE   W02
 BYTE   W09
 BYTE   W09
 BYTE   W04
 BYTE   An2
 BYTE   N23  Fn3
 BYTE   W05
 BYTE   W09
 BYTE   W10
 BYTE   As2
 BYTE   N23  Gn3
 BYTE   W09
 BYTE   W09
 BYTE   W06
 BYTE   Ds3
 BYTE   N23  As3
 BYTE   W03
 BYTE   W03
 BYTE   W03
 BYTE   W03
 BYTE   W03
 BYTE   W03
 BYTE   W03
 BYTE   W03
//  #01 //003   ----------------------------------------
 BYTE   N68  Fn3
 BYTE   N68  Cn4
 BYTE   W01
 BYTE   W02
 BYTE   W01
 BYTE   W02
 BYTE   W01
 BYTE   W01
 BYTE   W28
 BYTE   W01
 BYTE   W03
 BYTE   W03
 BYTE   W03
 BYTE   W03
 BYTE   W03
 BYTE   W03
 BYTE   W03
 BYTE   W03
 BYTE   W03
 BYTE   W03
 BYTE   W03
 BYTE   W03
 BYTE   W03
 BYTE   W02
 BYTE   W18
//  #01 //004   ----------------------------------------
 BYTE   W66
 BYTE   W30
//  #01 //005   ----------------------------------------
 BYTE   W13
 BYTE   W42
 BYTE   W40
 BYTE   W01
//  #01 //006   ----------------------------------------
 BYTE   W02
 BYTE   W42
 BYTE   W42
 BYTE   W01
 BYTE   W09
//  #01 //007   ----------------------------------------
 BYTE   W32
 BYTE   W01
 BYTE   W42
 BYTE   W01
 BYTE   W03
 BYTE   W03
 BYTE   W03
 BYTE   W03
 BYTE   W03
 BYTE   W03
 BYTE   W02
//  #01 //008   ----------------------------------------
Label_010163C8:
 BYTE   N23  Fn2  v127
 BYTE   N23  Cn3
 BYTE   W24
 BYTE   An2
 BYTE   N23  Fn3
 BYTE   W24
 BYTE   As2
 BYTE   N23  Gn3
 BYTE   W24
 BYTE   Ds3
 BYTE   N23  As3
 BYTE   W24
 BYTE   PEND 
//  #01 //009   ----------------------------------------
 BYTE   N30  Cn3
 BYTE   N30  An3
 BYTE   W32
 BYTE   N07  As2
 BYTE   N07  Gn3
 BYTE   W08
 BYTE   An2
 BYTE   N07  Fn3
 BYTE   W08
 BYTE   N23  As2
 BYTE   N23  Gn3
 BYTE   W24
 BYTE   Gn2
 BYTE   N23  Ds3
 BYTE   W24
//  #01 //010   ----------------------------------------
 BYTE   PATT
  POIN2 Label_010163C8
//  #01 //011   ----------------------------------------
 BYTE   N68  Fn3  v127
 BYTE   N68  Cn4
 BYTE   W12
 BYTE   W07
 BYTE   W04
 BYTE   W04
 BYTE   W04
 BYTE   W04
 BYTE   W04
 BYTE   W04
 BYTE   W03
 BYTE   W04
 BYTE   W04
 BYTE   W04
 BYTE   W04
 BYTE   W04
 BYTE   W04
 BYTE   W04
 BYTE   W04
 BYTE   W18
//  #01 //012   ----------------------------------------
 BYTE   W96
//  #01 //013   ----------------------------------------
 BYTE   W96
//  #01 //014   ----------------------------------------
 BYTE   W96
//  #01 //015   ----------------------------------------
 BYTE   W96
//  #01 //016   ----------------------------------------
 BYTE   W96
//  #01 //017   ----------------------------------------
 BYTE   W96
//  #01 //018   ----------------------------------------
 BYTE   W96
//  #01 //019   ----------------------------------------
 BYTE   W96
//  #01 //020   ----------------------------------------
 BYTE   TIE  En2  v100
 BYTE   W03
 BYTE   W03
 BYTE   W03
 BYTE   W03
 BYTE   W03
 BYTE   W03
 BYTE   W03
 BYTE   W03
 BYTE   W03
 BYTE   W03
 BYTE   W03
 BYTE   W03
 BYTE   W03
 BYTE   W03
 BYTE   W03
 BYTE   W03
 BYTE   W03
 BYTE   W03
 BYTE   W03
 BYTE   W03
 BYTE   W03
 BYTE   W03
 BYTE   W03
 BYTE   W03
 BYTE   W03
 BYTE   W03
 BYTE   W03
 BYTE   W03
 BYTE   W03
 BYTE   W03
 BYTE   W03
 BYTE   W03
//  #01 //021   ----------------------------------------
 BYTE   W03
 BYTE   W03
 BYTE   W03
 BYTE   W03
 BYTE   W03
 BYTE   W03
 BYTE   W03
 BYTE   W03
 BYTE   W03
 BYTE   W03
 BYTE   W03
 BYTE   W03
 BYTE   W03
 BYTE   W03
 BYTE   W03
 BYTE   W01
 BYTE   EOT
 BYTE   W02
 BYTE   N44  Ds2
 BYTE   W03
 BYTE   W03
 BYTE   W03
 BYTE   W03
 BYTE   W03
 BYTE   W03
 BYTE   W03
 BYTE   W03
 BYTE   W03
 BYTE   W03
 BYTE   W03
 BYTE   W03
 BYTE   W03
 BYTE   W03
 BYTE   W03
 BYTE   W03
//  #01 //022   ----------------------------------------
 BYTE   Cs2
 BYTE   W03
 BYTE   W03
 BYTE   W03
 BYTE   W03
 BYTE   W03
 BYTE   W03
 BYTE   W03
 BYTE   W03
 BYTE   W03
 BYTE   W03
 BYTE   W03
 BYTE   W03
 BYTE   W03
 BYTE   W03
 BYTE   W03
 BYTE   W03
 BYTE   Ds2
 BYTE   W03
 BYTE   W03
 BYTE   W03
 BYTE   W03
 BYTE   W03
 BYTE   W03
 BYTE   W03
 BYTE   W03
 BYTE   W03
 BYTE   W03
 BYTE   W03
 BYTE   W03
 BYTE   W03
 BYTE   W03
 BYTE   W03
 BYTE   W03
//  #01 //023   ----------------------------------------
 BYTE   N92  En2
 BYTE   W02
 BYTE   W03
 BYTE   W03
 BYTE   W03
 BYTE   W03
 BYTE   W03
 BYTE   W03
 BYTE   W03
 BYTE   W03
 BYTE   W03
 BYTE   W03
 BYTE   W03
 BYTE   W03
 BYTE   W03
 BYTE   W03
 BYTE   W03
 BYTE   W03
 BYTE   W03
 BYTE   W03
 BYTE   W03
 BYTE   W03
 BYTE   W03
 BYTE   W03
 BYTE   W03
 BYTE   W03
 BYTE   W03
 BYTE   W03
 BYTE   W01
 BYTE   W02
 BYTE   W01
 BYTE   W02
 BYTE   W01
 BYTE   W02
 BYTE   W01
 BYTE   W02
 BYTE   W01
 BYTE   W02
 BYTE   W01
//  #01 //024   ----------------------------------------
 BYTE   Fs2
 BYTE   W02
 BYTE   W01
 BYTE   W02
 BYTE   W01
 BYTE   W02
 BYTE   W01
 BYTE   W02
 BYTE   W01
 BYTE   W02
 BYTE   W01
 BYTE   W02
 BYTE   W01
 BYTE   W02
 BYTE   W01
 BYTE   W02
 BYTE   W01
 BYTE   W02
 BYTE   W01
 BYTE   W02
 BYTE   W01
 BYTE   W02
 BYTE   W01
 BYTE   W02
 BYTE   W01
 BYTE   W03
 BYTE   W03
 BYTE   W03
 BYTE   W03
 BYTE   W03
 BYTE   W03
 BYTE   W03
 BYTE   W03
 BYTE   W03
 BYTE   W03
 BYTE   W03
 BYTE   W03
 BYTE   W01
 BYTE   W02
 BYTE   W01
 BYTE   W02
 BYTE   W01
 BYTE   W02
 BYTE   W01
 BYTE   W02
 BYTE   W01
 BYTE   W02
 BYTE   W01
 BYTE   W02
 BYTE   W01
 BYTE   W02
 BYTE   W01
 BYTE   W02
//  #01 //025   ----------------------------------------
 BYTE   W01
 BYTE   W02
 BYTE   W01
 BYTE   W02
 BYTE   W01
 BYTE   W88
 BYTE   W01
//  #01 //026   ----------------------------------------
 BYTE   W96
//  #01 //027   ----------------------------------------
 BYTE   W96
//  #01 //028   ----------------------------------------
 BYTE   W96
//  #01 //029   ----------------------------------------
 BYTE   W96
//  #01 //030   ----------------------------------------
 BYTE   W96
//  #01 //031   ----------------------------------------
 BYTE   W96
//  #01 //032   ----------------------------------------
 BYTE   W96
//  #01 //033   ----------------------------------------
 BYTE   GoTo
  POIN2 Label_0101631E
 BYTE   FINE

//**************** Track 2 (Midi-Chn.1) ****************//

Liberation_002:
//  #02 //000   ----------------------------------------
 BYTE   KEYSH   Liberation_key+0
Label_010168CE:
 BYTE   VOICE   4
 BYTE   VOL   30*Liberation_mvl/mxv
 BYTE   PAN   c_v-64
 BYTE   BEND   c_v+0
 BYTE   N44  Cn2  v116
 BYTE   W03
 BYTE   W03
 BYTE   W03
 BYTE   W03
 BYTE   W03
 BYTE   W03
 BYTE   W03
 BYTE   W03
 BYTE   W03
 BYTE   W03
 BYTE   W03
 BYTE   W03
 BYTE   W03
 BYTE   W03
 BYTE   W03
 BYTE   W03
 BYTE   As1
 BYTE   W03
 BYTE   W03
 BYTE   W03
 BYTE   W03
 BYTE   W03
 BYTE   W03
 BYTE   W03
 BYTE   W03
 BYTE   W03
 BYTE   W03
 BYTE   W03
 BYTE   W03
 BYTE   W03
 BYTE   W03
 BYTE   W03
 BYTE   W01
 BYTE   W02
//  #02 //001   ----------------------------------------
Label_010168FB:
 BYTE   N44  Cn2  v116
 BYTE   W01
 BYTE   W03
 BYTE   W03
 BYTE   W03
 BYTE   W03
 BYTE   W03
 BYTE   W03
 BYTE   W03
 BYTE   W03
 BYTE   W03
 BYTE   W03
 BYTE   W03
 BYTE   W03
 BYTE   W03
 BYTE   W03
 BYTE   W03
 BYTE   W02
 BYTE   As1
 BYTE   W01
 BYTE   W03
 BYTE   W03
 BYTE   W03
 BYTE   W03
 BYTE   W03
 BYTE   W03
 BYTE   W03
 BYTE   W03
 BYTE   W03
 BYTE   W03
 BYTE   W03
 BYTE   W03
 BYTE   W03
 BYTE   W03
 BYTE   W03
 BYTE   W02
 BYTE   PEND 
//  #02 //002   ----------------------------------------
 BYTE   Cn2
 BYTE   W01
 BYTE   W03
 BYTE   W03
 BYTE   W03
 BYTE   W03
 BYTE   W03
 BYTE   W03
 BYTE   W03
 BYTE   W03
 BYTE   W03
 BYTE   W03
 BYTE   W03
 BYTE   W03
 BYTE   W03
 BYTE   W03
 BYTE   W03
 BYTE   W02
 BYTE   As1
 BYTE   W01
 BYTE   W03
 BYTE   W03
 BYTE   W03
 BYTE   W03
 BYTE   W03
 BYTE   W03
 BYTE   W03
 BYTE   W03
 BYTE   W03
 BYTE   W03
 BYTE   W03
 BYTE   W03
 BYTE   W03
 BYTE   W03
 BYTE   W03
 BYTE   W02
//  #02 //003   ----------------------------------------
 BYTE   N92  Cn2
 BYTE   W01
 BYTE   W01
 BYTE   W01
 BYTE   W02
 BYTE   W01
 BYTE   W02
 BYTE   W01
 BYTE   W02
 BYTE   W01
 BYTE   W02
 BYTE   W01
 BYTE   W02
 BYTE   W01
 BYTE   W02
 BYTE   W01
 BYTE   W02
 BYTE   W01
 BYTE   W02
 BYTE   W03
 BYTE   W03
 BYTE   W03
 BYTE   W03
 BYTE   W03
 BYTE   W03
 BYTE   W03
 BYTE   W03
 BYTE   W03
 BYTE   W03
 BYTE   W03
 BYTE   W03
 BYTE   W03
 BYTE   W03
 BYTE   W03
 BYTE   W03
 BYTE   W03
 BYTE   W03
 BYTE   W03
 BYTE   W03
 BYTE   W03
 BYTE   W03
 BYTE   W03
 BYTE   W01
//  #02 //004   ----------------------------------------
 BYTE   W01
 BYTE   W02
 BYTE   W01
 BYTE   W02
 BYTE   W01
 BYTE   W02
 BYTE   W01
 BYTE   W02
 BYTE   W01
 BYTE   W02
 BYTE   W01
 BYTE   W02
 BYTE   W01
 BYTE   W02
 BYTE   W01
 BYTE   W02
 BYTE   N23  Fn2
 BYTE   W03
 BYTE   W04
 BYTE   W05
 BYTE   W04
 BYTE   W05
 BYTE   W03
 BYTE   Gn2
 BYTE   W01
 BYTE   W05
 BYTE   W04
 BYTE   W05
 BYTE   W04
 BYTE   W05
 BYTE   As2
 BYTE   W04
 BYTE   W05
 BYTE   W04
 BYTE   W05
 BYTE   W04
 BYTE   W02
//  #02 //005   ----------------------------------------
 BYTE   W01
 BYTE   W03
 BYTE   W03
 BYTE   W03
 BYTE   W03
 BYTE   W03
 BYTE   W03
 BYTE   W03
 BYTE   W02
 BYTE   Fn2
 BYTE   W01
 BYTE   W03
 BYTE   W03
 BYTE   W03
 BYTE   W03
 BYTE   W03
 BYTE   W03
 BYTE   W03
 BYTE   W02
 BYTE   Gn2
 BYTE   W01
 BYTE   W03
 BYTE   W03
 BYTE   W03
 BYTE   W02
 BYTE   W12
 BYTE   Ds2
 BYTE   W19
 BYTE   W05
//  #02 //006   ----------------------------------------
 BYTE   N07  Cs4
 BYTE   W08
 BYTE   Ds4
 BYTE   W08
 BYTE   N30  Fn2
 BYTE   W03
 BYTE   W01
 BYTE   W02
 BYTE   W01
 BYTE   W02
 BYTE   W01
 BYTE   W02
 BYTE   W01
 BYTE   W01
 BYTE   W01
 BYTE   W02
 BYTE   W01
 BYTE   W02
 BYTE   W01
 BYTE   W02
 BYTE   W01
 BYTE   W02
 BYTE   W01
 BYTE   W02
 BYTE   W01
 BYTE   W02
 BYTE   N07  Ds4
 BYTE   W08
 BYTE   Fn4
 BYTE   W08
 BYTE   N30  Gn2
 BYTE   W02
 BYTE   W01
 BYTE   W02
 BYTE   W01
 BYTE   W02
 BYTE   W01
 BYTE   W01
 BYTE   W03
 BYTE   W03
 BYTE   W03
 BYTE   W03
 BYTE   W03
 BYTE   W03
 BYTE   W03
 BYTE   W01
//  #02 //007   ----------------------------------------
 BYTE   N07  Fn4
 BYTE   W08
 BYTE   Gn4
 BYTE   W08
 BYTE   N30  Gs2
 BYTE   W01
 BYTE   W01
 BYTE   W02
 BYTE   W01
 BYTE   W02
 BYTE   W01
 BYTE   W01
 BYTE   W02
 BYTE   W01
 BYTE   W02
 BYTE   W01
 BYTE   W02
 BYTE   W01
 BYTE   W02
 BYTE   W01
 BYTE   W02
 BYTE   W01
 BYTE   W02
 BYTE   W01
 BYTE   W02
 BYTE   W01
 BYTE   W01
 BYTE   W01
 BYTE   N07  Ds4
 BYTE   W08
 BYTE   Ds4  v068
 BYTE   W08
 BYTE   Ds4  v052
 BYTE   W08
 BYTE   N23  As1  v116
 BYTE   W02
 BYTE   W02
 BYTE   W01
 BYTE   W02
 BYTE   W01
 BYTE   W02
 BYTE   W01
 BYTE   W02
 BYTE   W01
 BYTE   W02
 BYTE   W01
 BYTE   W02
 BYTE   W01
 BYTE   W02
 BYTE   W01
 BYTE   W01
//  #02 //008   ----------------------------------------
 BYTE   N44  Cn2
 BYTE   W03
 BYTE   W03
 BYTE   W03
 BYTE   W03
 BYTE   W03
 BYTE   W03
 BYTE   W03
 BYTE   W03
 BYTE   W03
 BYTE   W03
 BYTE   W03
 BYTE   W03
 BYTE   W03
 BYTE   W03
 BYTE   W03
 BYTE   W03
 BYTE   As1
 BYTE   W03
 BYTE   W03
 BYTE   W03
 BYTE   W03
 BYTE   W03
 BYTE   W03
 BYTE   W03
 BYTE   W03
 BYTE   W03
 BYTE   W03
 BYTE   W03
 BYTE   W03
 BYTE   W03
 BYTE   W03
 BYTE   W03
 BYTE   W01
 BYTE   W02
//  #02 //009   ----------------------------------------
 BYTE   PATT
  POIN2 Label_010168FB
//  #02 //010   ----------------------------------------
 BYTE   N44  Cn2  v116
 BYTE   W01
 BYTE   W03
 BYTE   W03
 BYTE   W03
 BYTE   W03
 BYTE   W03
 BYTE   W03
 BYTE   W03
 BYTE   W03
 BYTE   W03
 BYTE   W03
 BYTE   W03
 BYTE   W03
 BYTE   W03
 BYTE   W03
 BYTE   W03
 BYTE   W02
 BYTE   As1
 BYTE   W01
 BYTE   W03
 BYTE   W03
 BYTE   W03
 BYTE   W03
 BYTE   W03
 BYTE   W03
 BYTE   W03
 BYTE   W03
 BYTE   W03
 BYTE   W03
 BYTE   W03
 BYTE   W03
 BYTE   W03
 BYTE   W03
 BYTE   W03
 BYTE   W02
//  #02 //011   ----------------------------------------
 BYTE   N92  Cn2
 BYTE   W01
 BYTE   W01
 BYTE   W01
 BYTE   W02
 BYTE   W01
 BYTE   W02
 BYTE   W01
 BYTE   W02
 BYTE   W01
 BYTE   W02
 BYTE   W01
 BYTE   W02
 BYTE   W01
 BYTE   W02
 BYTE   W01
 BYTE   W02
 BYTE   W01
 BYTE   W02
 BYTE   W03
 BYTE   W03
 BYTE   W03
 BYTE   W03
 BYTE   W03
 BYTE   W03
 BYTE   W03
 BYTE   W03
 BYTE   W03
 BYTE   W03
 BYTE   W03
 BYTE   W03
 BYTE   W03
 BYTE   W03
 BYTE   W03
 BYTE   W03
 BYTE   W03
 BYTE   W03
 BYTE   W03
 BYTE   W03
 BYTE   W03
 BYTE   W03
 BYTE   W01
 BYTE   W02
 BYTE   W01
//  #02 //012   ----------------------------------------
 BYTE   W02
 BYTE   W01
 BYTE   W02
 BYTE   W01
 BYTE   W02
 BYTE   W01
 BYTE   W01
 BYTE   W02
 BYTE   W01
 BYTE   W02
 BYTE   W01
 BYTE   W02
 BYTE   W06
 BYTE   N23  Fn2
 BYTE   W05
 BYTE   W06
 BYTE   W06
 BYTE   W05
 BYTE   W02
 BYTE   Gn2
 BYTE   W04
 BYTE   W05
 BYTE   W06
 BYTE   W06
 BYTE   W03
 BYTE   As2
 BYTE   W02
 BYTE   W06
 BYTE   W06
 BYTE   W05
 BYTE   W05
//  #02 //013   ----------------------------------------
 BYTE   W01
 BYTE   W03
 BYTE   W03
 BYTE   W03
 BYTE   W03
 BYTE   W03
 BYTE   W03
 BYTE   W03
 BYTE   W02
 BYTE   Fn2
 BYTE   W01
 BYTE   W03
 BYTE   W03
 BYTE   W03
 BYTE   W03
 BYTE   W03
 BYTE   W03
 BYTE   W03
 BYTE   W02
 BYTE   Gn2
 BYTE   W01
 BYTE   W03
 BYTE   W20
 BYTE   Ds2
 BYTE   N23  As2
 BYTE   W24
//  #02 //014   ----------------------------------------
 BYTE   N44  Fn2
 BYTE   W02
 BYTE   W03
 BYTE   W03
 BYTE   W03
 BYTE   W03
 BYTE   W03
 BYTE   W03
 BYTE   W03
 BYTE   W03
 BYTE   W03
 BYTE   W03
 BYTE   W03
 BYTE   W03
 BYTE   W03
 BYTE   W03
 BYTE   W01
 BYTE   W03
 BYTE   En2
 BYTE   W03
 BYTE   W03
 BYTE   W03
 BYTE   W03
 BYTE   W03
 BYTE   W03
 BYTE   W03
 BYTE   W03
 BYTE   W03
 BYTE   W03
 BYTE   W03
 BYTE   W03
 BYTE   W03
 BYTE   W03
 BYTE   W03
 BYTE   W01
 BYTE   W02
//  #02 //015   ----------------------------------------
 BYTE   N23  Ds2
 BYTE   W03
 BYTE   W05
 BYTE   W06
 BYTE   W05
 BYTE   W05
 BYTE   N06  Ds4  v072
 BYTE   W05
 BYTE   W03
 BYTE   N03  Ds4  v088
 BYTE   W03
 BYTE   W01
 BYTE   N03
 BYTE   W04
 BYTE   N06  Gs4  v116
 BYTE   W08
 BYTE   Cn2
 BYTE   W08
 BYTE   Gs4
 BYTE   W07
 BYTE   W01
 BYTE   Ds4  v104
 BYTE   W08
 BYTE   Gs4
 BYTE   W08
 BYTE   Ds4  v084
 BYTE   W05
 BYTE   W03
 BYTE   Cn4  v072
 BYTE   W08
//  #02 //016   ----------------------------------------
 BYTE   W12
 BYTE   W84
//  #02 //017   ----------------------------------------
 BYTE   W96
//  #02 //018   ----------------------------------------
 BYTE   W96
//  #02 //019   ----------------------------------------
 BYTE   W96
//  #02 //020   ----------------------------------------
 BYTE   W96
//  #02 //021   ----------------------------------------
 BYTE   W96
//  #02 //022   ----------------------------------------
 BYTE   W96
//  #02 //023   ----------------------------------------
 BYTE   W96
//  #02 //024   ----------------------------------------
 BYTE   W96
//  #02 //025   ----------------------------------------
 BYTE   W96
//  #02 //026   ----------------------------------------
 BYTE   W96
//  #02 //027   ----------------------------------------
Label_01016B31:
 BYTE   N05  Bn1  v104
 BYTE   W06
 BYTE   N05
 BYTE   W06
 BYTE   N11  Bn1  v124
 BYTE   W84
 BYTE   PEND 
//  #02 //028   ----------------------------------------
 BYTE   W96
//  #02 //029   ----------------------------------------
 BYTE   PATT
  POIN2 Label_01016B31
//  #02 //030   ----------------------------------------
 BYTE   W96
//  #02 //031   ----------------------------------------
Label_01016B43:
 BYTE   N11  Cn2  v104
 BYTE   W12
 BYTE   N05  Cn2  v076
 BYTE   W06
 BYTE   N05
 BYTE   W06
 BYTE   N11  Cn2  v104
 BYTE   W12
 BYTE   N05  Cn2  v076
 BYTE   W06
 BYTE   N05
 BYTE   W06
 BYTE   N11  Cn2  v104
 BYTE   W12
 BYTE   N05  Cn2  v076
 BYTE   W06
 BYTE   N05
 BYTE   W06
 BYTE   N11  Cn2  v104
 BYTE   W12
 BYTE   N05  Cn2  v076
 BYTE   W06
 BYTE   N05
 BYTE   W06
 BYTE   PEND 
//  #02 //032   ----------------------------------------
 BYTE   PATT
  POIN2 Label_01016B43
//  #02 //033   ----------------------------------------
 BYTE   GoTo
  POIN2 Label_010168CE
 BYTE   FINE

//**************** Track 3 (Midi-Chn.2) ****************//

Liberation_003:
//  #03 //000   ----------------------------------------
 BYTE   KEYSH   Liberation_key+0
Label_01015666:
 BYTE   VOICE   4
 BYTE   VOL   28*Liberation_mvl/mxv
 BYTE   PAN   c_v+63
 BYTE   BEND   c_v+0
 BYTE   N44  Fn2  v116
 BYTE   W03
 BYTE   W03
 BYTE   W03
 BYTE   W03
 BYTE   W03
 BYTE   W03
 BYTE   W03
 BYTE   W03
 BYTE   W03
 BYTE   W03
 BYTE   W03
 BYTE   W03
 BYTE   W03
 BYTE   W03
 BYTE   W03
 BYTE   W03
 BYTE   Ds2
 BYTE   W03
 BYTE   W03
 BYTE   W03
 BYTE   W03
 BYTE   W03
 BYTE   W03
 BYTE   W03
 BYTE   W03
 BYTE   W03
 BYTE   W03
 BYTE   W03
 BYTE   W03
 BYTE   W03
 BYTE   W03
 BYTE   W03
 BYTE   W01
 BYTE   W02
//  #03 //001   ----------------------------------------
Label_01015693:
 BYTE   N44  Fn2  v116
 BYTE   W01
 BYTE   W03
 BYTE   W03
 BYTE   W03
 BYTE   W03
 BYTE   W03
 BYTE   W03
 BYTE   W03
 BYTE   W03
 BYTE   W03
 BYTE   W03
 BYTE   W03
 BYTE   W03
 BYTE   W03
 BYTE   W03
 BYTE   W03
 BYTE   W02
 BYTE   Ds2
 BYTE   W01
 BYTE   W03
 BYTE   W03
 BYTE   W03
 BYTE   W03
 BYTE   W03
 BYTE   W03
 BYTE   W03
 BYTE   W03
 BYTE   W03
 BYTE   W03
 BYTE   W03
 BYTE   W03
 BYTE   W03
 BYTE   W03
 BYTE   W03
 BYTE   W02
 BYTE   PEND 
//  #03 //002   ----------------------------------------
Label_010156BA:
 BYTE   N44  Fn2  v116
 BYTE   W01
 BYTE   W03
 BYTE   W03
 BYTE   W03
 BYTE   W03
 BYTE   W03
 BYTE   W03
 BYTE   W03
 BYTE   W03
 BYTE   W03
 BYTE   W03
 BYTE   W03
 BYTE   W03
 BYTE   W03
 BYTE   W03
 BYTE   W03
 BYTE   W02
 BYTE   Ds2
 BYTE   W01
 BYTE   W03
 BYTE   W03
 BYTE   W03
 BYTE   W03
 BYTE   W03
 BYTE   W03
 BYTE   W03
 BYTE   W03
 BYTE   W03
 BYTE   W03
 BYTE   W03
 BYTE   W03
 BYTE   W03
 BYTE   W03
 BYTE   W03
 BYTE   W02
 BYTE   PEND 
//  #03 //003   ----------------------------------------
 BYTE   N92  Fn2
 BYTE   W01
 BYTE   W01
 BYTE   W01
 BYTE   W02
 BYTE   W01
 BYTE   W02
 BYTE   W01
 BYTE   W02
 BYTE   W01
 BYTE   W02
 BYTE   W01
 BYTE   W02
 BYTE   W01
 BYTE   W02
 BYTE   W01
 BYTE   W02
 BYTE   W01
 BYTE   W02
 BYTE   W03
 BYTE   W03
 BYTE   W03
 BYTE   W03
 BYTE   W03
 BYTE   W03
 BYTE   W03
 BYTE   W03
 BYTE   W03
 BYTE   W03
 BYTE   W03
 BYTE   W03
 BYTE   W03
 BYTE   W03
 BYTE   W03
 BYTE   W03
 BYTE   W03
 BYTE   W03
 BYTE   W03
 BYTE   W03
 BYTE   W03
 BYTE   W03
 BYTE   W03
 BYTE   W01
//  #03 //004   ----------------------------------------
 BYTE   W01
 BYTE   W02
 BYTE   W01
 BYTE   W02
 BYTE   W01
 BYTE   W02
 BYTE   W01
 BYTE   W02
 BYTE   W01
 BYTE   W02
 BYTE   W01
 BYTE   W02
 BYTE   W01
 BYTE   W02
 BYTE   W01
 BYTE   W02
 BYTE   N23  Gs2
 BYTE   W03
 BYTE   W04
 BYTE   W05
 BYTE   W04
 BYTE   W05
 BYTE   W03
 BYTE   Ds3
 BYTE   W01
 BYTE   W05
 BYTE   W04
 BYTE   W05
 BYTE   W04
 BYTE   W05
 BYTE   Gn3
 BYTE   W04
 BYTE   W05
 BYTE   W04
 BYTE   W05
 BYTE   W04
 BYTE   W02
//  #03 //005   ----------------------------------------
 BYTE   W01
 BYTE   W03
 BYTE   W03
 BYTE   W03
 BYTE   W03
 BYTE   W03
 BYTE   W03
 BYTE   W03
 BYTE   W02
 BYTE   Gs2
 BYTE   W01
 BYTE   W03
 BYTE   W03
 BYTE   W03
 BYTE   W03
 BYTE   W03
 BYTE   W03
 BYTE   W03
 BYTE   W02
 BYTE   Ds3
 BYTE   W01
 BYTE   W03
 BYTE   W03
 BYTE   W03
 BYTE   W02
 BYTE   W12
 BYTE   As2
 BYTE   W19
 BYTE   W05
//  #03 //006   ----------------------------------------
 BYTE   N07  Fn4
 BYTE   W08
 BYTE   Gn4
 BYTE   W08
 BYTE   N30  Gs2
 BYTE   W03
 BYTE   W01
 BYTE   W02
 BYTE   W01
 BYTE   W02
 BYTE   W01
 BYTE   W02
 BYTE   W01
 BYTE   W01
 BYTE   W01
 BYTE   W02
 BYTE   W01
 BYTE   W02
 BYTE   W01
 BYTE   W02
 BYTE   W01
 BYTE   W02
 BYTE   W01
 BYTE   W02
 BYTE   W01
 BYTE   W02
 BYTE   N07  Gn4
 BYTE   W08
 BYTE   Gs4
 BYTE   W08
 BYTE   N30  As2
 BYTE   W02
 BYTE   W01
 BYTE   W02
 BYTE   W01
 BYTE   W02
 BYTE   W01
 BYTE   W01
 BYTE   W03
 BYTE   W03
 BYTE   W03
 BYTE   W03
 BYTE   W03
 BYTE   W03
 BYTE   W03
 BYTE   W01
//  #03 //007   ----------------------------------------
 BYTE   N07  Gs4
 BYTE   W08
 BYTE   As4
 BYTE   W08
 BYTE   N30  Cn3
 BYTE   W01
 BYTE   W01
 BYTE   W02
 BYTE   W01
 BYTE   W02
 BYTE   W01
 BYTE   W01
 BYTE   W02
 BYTE   W01
 BYTE   W02
 BYTE   W01
 BYTE   W02
 BYTE   W01
 BYTE   W02
 BYTE   W01
 BYTE   W02
 BYTE   W01
 BYTE   W02
 BYTE   W01
 BYTE   W02
 BYTE   W01
 BYTE   W01
 BYTE   W01
 BYTE   N07  As4
 BYTE   W08
 BYTE   As4  v068
 BYTE   W08
 BYTE   As4  v052
 BYTE   W08
 BYTE   N23  Ds2  v116
 BYTE   W02
 BYTE   W02
 BYTE   W01
 BYTE   W02
 BYTE   W01
 BYTE   W02
 BYTE   W01
 BYTE   W02
 BYTE   W01
 BYTE   W02
 BYTE   W01
 BYTE   W02
 BYTE   W01
 BYTE   W02
 BYTE   W01
 BYTE   W01
//  #03 //008   ----------------------------------------
 BYTE   N44  Fn2
 BYTE   W03
 BYTE   W03
 BYTE   W03
 BYTE   W03
 BYTE   W03
 BYTE   W03
 BYTE   W03
 BYTE   W03
 BYTE   W03
 BYTE   W03
 BYTE   W03
 BYTE   W03
 BYTE   W03
 BYTE   W03
 BYTE   W03
 BYTE   W03
 BYTE   Ds2
 BYTE   W03
 BYTE   W03
 BYTE   W03
 BYTE   W03
 BYTE   W03
 BYTE   W03
 BYTE   W03
 BYTE   W03
 BYTE   W03
 BYTE   W03
 BYTE   W03
 BYTE   W03
 BYTE   W03
 BYTE   W03
 BYTE   W03
 BYTE   W01
 BYTE   W02
//  #03 //009   ----------------------------------------
 BYTE   PATT
  POIN2 Label_01015693
//  #03 //010   ----------------------------------------
 BYTE   PATT
  POIN2 Label_010156BA
//  #03 //011   ----------------------------------------
 BYTE   N92  Fn2  v116
 BYTE   W01
 BYTE   W01
 BYTE   W01
 BYTE   W02
 BYTE   W01
 BYTE   W02
 BYTE   W01
 BYTE   W02
 BYTE   W01
 BYTE   W02
 BYTE   W01
 BYTE   W02
 BYTE   W01
 BYTE   W02
 BYTE   W01
 BYTE   W02
 BYTE   W01
 BYTE   W02
 BYTE   W03
 BYTE   W03
 BYTE   W03
 BYTE   W03
 BYTE   W03
 BYTE   W03
 BYTE   W03
 BYTE   W03
 BYTE   W03
 BYTE   W03
 BYTE   W03
 BYTE   W03
 BYTE   W03
 BYTE   W03
 BYTE   W03
 BYTE   W03
 BYTE   W03
 BYTE   W03
 BYTE   W03
 BYTE   W03
 BYTE   W03
 BYTE   W03
 BYTE   W01
 BYTE   W02
 BYTE   W01
//  #03 //012   ----------------------------------------
 BYTE   W02
 BYTE   W01
 BYTE   W02
 BYTE   W01
 BYTE   W02
 BYTE   W01
 BYTE   W01
 BYTE   W02
 BYTE   W01
 BYTE   W02
 BYTE   W01
 BYTE   W02
 BYTE   W06
 BYTE   N23  Gs2
 BYTE   W05
 BYTE   W06
 BYTE   W06
 BYTE   W05
 BYTE   W02
 BYTE   Ds3
 BYTE   W04
 BYTE   W05
 BYTE   W06
 BYTE   W06
 BYTE   W03
 BYTE   Gn3
 BYTE   W02
 BYTE   W06
 BYTE   W06
 BYTE   W05
 BYTE   W05
//  #03 //013   ----------------------------------------
 BYTE   W01
 BYTE   W03
 BYTE   W03
 BYTE   W03
 BYTE   W03
 BYTE   W03
 BYTE   W03
 BYTE   W03
 BYTE   W02
 BYTE   Gs2
 BYTE   W01
 BYTE   W03
 BYTE   W03
 BYTE   W03
 BYTE   W03
 BYTE   W03
 BYTE   W03
 BYTE   W03
 BYTE   W02
 BYTE   Ds3
 BYTE   W01
 BYTE   W03
 BYTE   W20
 BYTE   As2
 BYTE   W24
//  #03 //014   ----------------------------------------
 BYTE   N44  Cs3
 BYTE   W02
 BYTE   W03
 BYTE   W03
 BYTE   W03
 BYTE   W03
 BYTE   W03
 BYTE   W03
 BYTE   W03
 BYTE   W03
 BYTE   W03
 BYTE   W03
 BYTE   W03
 BYTE   W03
 BYTE   W03
 BYTE   W03
 BYTE   W01
 BYTE   W03
 BYTE   N07
 BYTE   W03
 BYTE   W03
 BYTE   W02
 BYTE   Ds3
 BYTE   W01
 BYTE   W03
 BYTE   W03
 BYTE   W01
 BYTE   Cs3
 BYTE   W02
 BYTE   W03
 BYTE   W03
 BYTE   N23
 BYTE   W03
 BYTE   W03
 BYTE   W03
 BYTE   W03
 BYTE   W03
 BYTE   W03
 BYTE   W03
 BYTE   W01
 BYTE   W02
//  #03 //015   ----------------------------------------
 BYTE   Cn3
 BYTE   W03
 BYTE   W05
 BYTE   W06
 BYTE   W05
 BYTE   W05
 BYTE   N06  Cn5  v072
 BYTE   W05
 BYTE   W03
 BYTE   N03  Cn5  v088
 BYTE   W03
 BYTE   W01
 BYTE   N03
 BYTE   W04
 BYTE   N06  Ds5  v116
 BYTE   W08
 BYTE   Gs5
 BYTE   W08
 BYTE   Ds5
 BYTE   W07
 BYTE   W01
 BYTE   Cn5  v104
 BYTE   W08
 BYTE   Ds5
 BYTE   W08
 BYTE   Cn5  v084
 BYTE   W05
 BYTE   W03
 BYTE   Gs4  v072
 BYTE   W08
//  #03 //016   ----------------------------------------
 BYTE   W12
 BYTE   W84
//  #03 //017   ----------------------------------------
 BYTE   W96
//  #03 //018   ----------------------------------------
 BYTE   W96
//  #03 //019   ----------------------------------------
 BYTE   W96
//  #03 //020   ----------------------------------------
 BYTE   W96
//  #03 //021   ----------------------------------------
 BYTE   W96
//  #03 //022   ----------------------------------------
 BYTE   W96
//  #03 //023   ----------------------------------------
 BYTE   W96
//  #03 //024   ----------------------------------------
 BYTE   W96
//  #03 //025   ----------------------------------------
 BYTE   W96
//  #03 //026   ----------------------------------------
 BYTE   W96
//  #03 //027   ----------------------------------------
Label_010158AE:
 BYTE   N05  En2  v104
 BYTE   W06
 BYTE   N05
 BYTE   W06
 BYTE   N11  En2  v124
 BYTE   W84
 BYTE   PEND 
//  #03 //028   ----------------------------------------
 BYTE   W96
//  #03 //029   ----------------------------------------
 BYTE   PATT
  POIN2 Label_010158AE
//  #03 //030   ----------------------------------------
 BYTE   W96
//  #03 //031   ----------------------------------------
Label_010158C0:
 BYTE   N11  Gn2  v104
 BYTE   W12
 BYTE   N05  Gn2  v076
 BYTE   W06
 BYTE   N05
 BYTE   W06
 BYTE   N11  Gn2  v104
 BYTE   W12
 BYTE   N05  Gn2  v076
 BYTE   W06
 BYTE   N05
 BYTE   W06
 BYTE   N11  Gn2  v104
 BYTE   W12
 BYTE   N05  Gn2  v076
 BYTE   W06
 BYTE   N05
 BYTE   W06
 BYTE   N11  Gn2  v104
 BYTE   W12
 BYTE   N05  Gn2  v076
 BYTE   W06
 BYTE   N05
 BYTE   W06
 BYTE   PEND 
//  #03 //032   ----------------------------------------
 BYTE   PATT
  POIN2 Label_010158C0
//  #03 //033   ----------------------------------------
 BYTE   GoTo
  POIN2 Label_01015666
 BYTE   FINE

//**************** Track 4 (Midi-Chn.3) ****************//

Liberation_004:
//  #04 //000   ----------------------------------------
 BYTE   KEYSH   Liberation_key+0
Label_0101601E:
 BYTE   VOICE   18
 BYTE   VOL   29*Liberation_mvl/mxv
 BYTE   PAN   c_v+0
 BYTE   BEND   c_v+0
 BYTE   W96
//  #04 //001   ----------------------------------------
 BYTE   W96
//  #04 //002   ----------------------------------------
 BYTE   W96
//  #04 //003   ----------------------------------------
 BYTE   W96
//  #04 //004   ----------------------------------------
 BYTE   W96
//  #04 //005   ----------------------------------------
 BYTE   W96
//  #04 //006   ----------------------------------------
 BYTE   W96
//  #04 //007   ----------------------------------------
 BYTE   W96
//  #04 //008   ----------------------------------------
 BYTE   W96
//  #04 //009   ----------------------------------------
 BYTE   W96
//  #04 //010   ----------------------------------------
 BYTE   W96
//  #04 //011   ----------------------------------------
 BYTE   W96
//  #04 //012   ----------------------------------------
 BYTE   W96
//  #04 //013   ----------------------------------------
 BYTE   W96
//  #04 //014   ----------------------------------------
 BYTE   W96
//  #04 //015   ----------------------------------------
 BYTE   W96
//  #04 //016   ----------------------------------------
 BYTE   N22  An3  v124
 BYTE   N22  En4
 BYTE   W24
 BYTE   N07  An3  v084
 BYTE   N07  En4
 BYTE   W08
 BYTE   An3  v096
 BYTE   N07  En4
 BYTE   W08
 BYTE   An3  v100
 BYTE   N07  En4
 BYTE   W08
 BYTE   N22  An3  v124
 BYTE   N22  En4
 BYTE   W24
 BYTE   N07  An3  v084
 BYTE   N07  En4
 BYTE   W08
 BYTE   An3  v096
 BYTE   N07  En4
 BYTE   W08
 BYTE   An3  v100
 BYTE   N07  En4
 BYTE   W08
//  #04 //017   ----------------------------------------
 BYTE   N22  Gs3  v124
 BYTE   N22  En4
 BYTE   W24
 BYTE   N07  Gs3  v084
 BYTE   N07  En4
 BYTE   W08
 BYTE   Gs3  v096
 BYTE   N07  En4
 BYTE   W08
 BYTE   Gs3  v100
 BYTE   N07  En4
 BYTE   W08
 BYTE   N22  Gs3  v124
 BYTE   N22  Ds4
 BYTE   W24
 BYTE   N07  Gs3  v084
 BYTE   N07  Ds4
 BYTE   W08
 BYTE   Gs3  v096
 BYTE   N07  Ds4
 BYTE   W08
 BYTE   Gs3  v100
 BYTE   N07  Ds4
 BYTE   W08
//  #04 //018   ----------------------------------------
 BYTE   N22  Fs3  v124
 BYTE   N22  Cs4
 BYTE   W24
 BYTE   N07  Fs3  v084
 BYTE   N07  Cs4
 BYTE   W08
 BYTE   Fs3  v096
 BYTE   N07  Cs4
 BYTE   W08
 BYTE   Fs3  v100
 BYTE   N07  Cs4
 BYTE   W08
 BYTE   N22  Fs3  v124
 BYTE   N22  Cs4
 BYTE   W24
 BYTE   N07  Fs3  v084
 BYTE   N07  Cs4
 BYTE   W08
 BYTE   Fs3  v096
 BYTE   N07  Cs4
 BYTE   W08
 BYTE   Fs3  v100
 BYTE   N07  Cs4
 BYTE   W08
//  #04 //019   ----------------------------------------
 BYTE   N22  Gs3  v124
 BYTE   N22  Ds4
 BYTE   W24
 BYTE   N07  Gs3  v084
 BYTE   N07  Ds4
 BYTE   W08
 BYTE   Gs3  v096
 BYTE   N07  Ds4
 BYTE   W08
 BYTE   Gs3  v100
 BYTE   N07  Ds4
 BYTE   W08
 BYTE   N22  Gs3  v124
 BYTE   N22  Ds4
 BYTE   W24
 BYTE   N07  Gs3  v084
 BYTE   N07  Ds4
 BYTE   W08
 BYTE   Gs3  v096
 BYTE   N07  Ds4
 BYTE   W08
 BYTE   Gs3  v100
 BYTE   N07  Ds4
 BYTE   W08
//  #04 //020   ----------------------------------------
 BYTE   N92  An1  v112
 BYTE   W01
 BYTE   W03
 BYTE   W03
 BYTE   W03
 BYTE   W03
 BYTE   W03
 BYTE   W03
 BYTE   W03
 BYTE   W03
 BYTE   W03
 BYTE   W03
 BYTE   W03
 BYTE   W03
 BYTE   W03
 BYTE   W03
 BYTE   W03
 BYTE   W03
 BYTE   W03
 BYTE   W03
 BYTE   W03
 BYTE   W03
 BYTE   W08
 BYTE   W09
 BYTE   W08
 BYTE   W08
 BYTE   W02
//  #04 //021   ----------------------------------------
 BYTE   Gs1
 BYTE   W01
 BYTE   W03
 BYTE   W03
 BYTE   W03
 BYTE   W03
 BYTE   W03
 BYTE   W03
 BYTE   W03
 BYTE   W02
 BYTE   W06
 BYTE   W03
 BYTE   W04
 BYTE   W03
 BYTE   W03
 BYTE   W04
 BYTE   W03
 BYTE   W03
 BYTE   W04
 BYTE   W03
 BYTE   W03
 BYTE   W04
 BYTE   W03
 BYTE   W03
 BYTE   W04
 BYTE   W03
 BYTE   W03
 BYTE   W03
 BYTE   W04
 BYTE   W03
 BYTE   W03
//  #04 //022   ----------------------------------------
 BYTE   N44  Fs1
 BYTE   W05
 BYTE   W04
 BYTE   W04
 BYTE   W04
 BYTE   W03
 BYTE   W04
 BYTE   W04
 BYTE   W04
 BYTE   W04
 BYTE   W04
 BYTE   W04
 BYTE   W04
 BYTE   Gs1
 BYTE   W04
 BYTE   W03
 BYTE   W04
 BYTE   W04
 BYTE   W04
 BYTE   W04
 BYTE   W04
 BYTE   W04
 BYTE   W04
 BYTE   W04
 BYTE   W03
 BYTE   W04
 BYTE   W02
//  #04 //023   ----------------------------------------
 BYTE   N92  An1
 BYTE   W09
 BYTE   W05
 BYTE   W06
 BYTE   W05
 BYTE   W05
 BYTE   W06
 BYTE   W05
 BYTE   W05
 BYTE   W06
 BYTE   W05
 BYTE   W05
 BYTE   W06
 BYTE   W05
 BYTE   W05
 BYTE   W06
 BYTE   W05
 BYTE   W05
 BYTE   W02
//  #04 //024   ----------------------------------------
 BYTE   As1
 BYTE   W07
 BYTE   W05
 BYTE   W05
 BYTE   W04
 BYTE   W05
 BYTE   W04
 BYTE   W05
 BYTE   W04
 BYTE   W05
 BYTE   W05
 BYTE   W04
 BYTE   W05
 BYTE   W04
 BYTE   W05
 BYTE   W04
 BYTE   W05
 BYTE   W05
 BYTE   W04
 BYTE   W05
 BYTE   W04
 BYTE   W02
//  #04 //025   ----------------------------------------
Label_01016168:
 BYTE   N22  Bn3  v124
 BYTE   N22  Fs4
 BYTE   W24
 BYTE   N07  Bn3  v084
 BYTE   N07  Fs4
 BYTE   W08
 BYTE   Bn3  v096
 BYTE   N07  Fs4
 BYTE   W08
 BYTE   Bn3  v100
 BYTE   N07  Fs4
 BYTE   W08
 BYTE   N22  Bn3  v124
 BYTE   N22  Fs4
 BYTE   W24
 BYTE   N07  Bn3  v084
 BYTE   N07  Fs4
 BYTE   W08
 BYTE   Bn3  v096
 BYTE   N07  Fs4
 BYTE   W08
 BYTE   Bn3  v100
 BYTE   N07  Fs4
 BYTE   W08
 BYTE   PEND 
//  #04 //026   ----------------------------------------
 BYTE   PATT
  POIN2 Label_01016168
//  #04 //027   ----------------------------------------
Label_0101619A:
 BYTE   N11  En3  v104
 BYTE   N11  Bn3
 BYTE   W12
 BYTE   En3  v040
 BYTE   N11  Bn3
 BYTE   W12
 BYTE   En3  v060
 BYTE   N11  Bn3
 BYTE   W12
 BYTE   En3  v076
 BYTE   N11  Bn3
 BYTE   W12
 BYTE   En3
 BYTE   N11  Bn3
 BYTE   W12
 BYTE   En3  v084
 BYTE   N11  Bn3
 BYTE   W12
 BYTE   En3  v092
 BYTE   N11  Bn3
 BYTE   W12
 BYTE   En3  v100
 BYTE   N11  Bn3
 BYTE   W12
 BYTE   PEND 
//  #04 //028   ----------------------------------------
Label_010161C3:
 BYTE   N11  En3  v127
 BYTE   N11  Bn3
 BYTE   W12
 BYTE   Bn3  v060
 BYTE   N11  Fs4
 BYTE   W12
 BYTE   Bn3  v052
 BYTE   N11  Fs4
 BYTE   W12
 BYTE   Bn3  v076
 BYTE   N11  Fs4
 BYTE   W12
 BYTE   Bn3  v064
 BYTE   N11  Fs4
 BYTE   W12
 BYTE   Bn3  v092
 BYTE   N11  Fs4
 BYTE   W12
 BYTE   Bn3  v072
 BYTE   N11  Fs4
 BYTE   W12
 BYTE   Bn3  v112
 BYTE   N11  Fs4
 BYTE   W12
 BYTE   PEND 
//  #04 //029   ----------------------------------------
 BYTE   PATT
  POIN2 Label_0101619A
//  #04 //030   ----------------------------------------
 BYTE   PATT
  POIN2 Label_010161C3
//  #04 //031   ----------------------------------------
 BYTE   N23  Cn4  v116
 BYTE   N23  Gn4
 BYTE   W24
 BYTE   Cn4  v064
 BYTE   N23  Gn4
 BYTE   W24
 BYTE   Cn4  v048
 BYTE   N23  Gn4
 BYTE   W24
 BYTE   Cn4  v032
 BYTE   N23  Gn4
 BYTE   W24
//  #04 //032   ----------------------------------------
 BYTE   Cn4  v104
 BYTE   N23  Gn4
 BYTE   W24
 BYTE   Cn4  v084
 BYTE   N23  Gn4
 BYTE   W24
 BYTE   Cn4  v092
 BYTE   N23  Gn4
 BYTE   W24
 BYTE   N07  Cn4  v068
 BYTE   N07  Gn4
 BYTE   W08
 BYTE   Cn4  v084
 BYTE   N07  Gn4
 BYTE   W08
 BYTE   Cn4  v104
 BYTE   N07  Gn4
 BYTE   W08
//  #04 //033   ----------------------------------------
 BYTE   GoTo
  POIN2 Label_0101601E
 BYTE   FINE

//**************** Track 5 (Midi-Chn.4) ****************//

Liberation_005:
//  #05 //000   ----------------------------------------
 BYTE   KEYSH   Liberation_key+0
Label_0101517E:
 BYTE   VOICE   40
 BYTE   W96
//  #05 //001   ----------------------------------------
 BYTE   VOL   41*Liberation_mvl/mxv
 BYTE   PAN   c_v+32
 BYTE   BEND   c_v+0
 BYTE   W96
//  #05 //002   ----------------------------------------
 BYTE   W96
//  #05 //003   ----------------------------------------
 BYTE   W42
 BYTE   W01
 BYTE   W01
 BYTE   W02
 BYTE   W01
 BYTE   W02
 BYTE   W01
 BYTE   W02
 BYTE   W01
 BYTE   W02
 BYTE   W01
 BYTE   W02
 BYTE   W01
 BYTE   W02
 BYTE   W01
 BYTE   W02
 BYTE   W01
 BYTE   W02
 BYTE   W03
 BYTE   W02
 BYTE   N03  Dn3  v116
 BYTE   W01
 BYTE   W03
 BYTE   Ds3
 BYTE   W03
 BYTE   W01
 BYTE   Fn3
 BYTE   W02
 BYTE   W02
 BYTE   Gn3
 BYTE   W01
 BYTE   W03
 BYTE   Gs3
 BYTE   W03
 BYTE   W01
 BYTE   As3
 BYTE   W02
 BYTE   W02
//  #05 //004   ----------------------------------------
 BYTE   N30  Cn4  v104
 BYTE   W01
 BYTE   W01
 BYTE   W01
 BYTE   W01
 BYTE   W01
 BYTE   W01
 BYTE   W01
 BYTE   W01
 BYTE   W01
 BYTE   W02
 BYTE   W01
 BYTE   W02
 BYTE   W01
 BYTE   W02
 BYTE   W01
 BYTE   W02
 BYTE   W01
 BYTE   W02
 BYTE   W01
 BYTE   W02
 BYTE   W01
 BYTE   W01
 BYTE   W04
 BYTE   N07  As3
 BYTE   W08
 BYTE   Cn4
 BYTE   W08
 BYTE   N23  As3
 BYTE   W01
 BYTE   W02
 BYTE   W01
 BYTE   W02
 BYTE   W01
 BYTE   W02
 BYTE   W01
 BYTE   W02
 BYTE   W01
 BYTE   W04
 BYTE   W05
 BYTE   W02
 BYTE   Ds4
 BYTE   W03
 BYTE   W05
 BYTE   W05
 BYTE   W01
 BYTE   W02
 BYTE   W01
 BYTE   W02
 BYTE   W01
 BYTE   W02
 BYTE   W01
 BYTE   W01
//  #05 //005   ----------------------------------------
 BYTE   N30  Cn4
 BYTE   W01
 BYTE   W02
 BYTE   W01
 BYTE   W02
 BYTE   W01
 BYTE   W02
 BYTE   W01
 BYTE   W02
 BYTE   W01
 BYTE   W02
 BYTE   W01
 BYTE   W02
 BYTE   W01
 BYTE   W02
 BYTE   W01
 BYTE   W02
 BYTE   W01
 BYTE   W02
 BYTE   W01
 BYTE   W02
 BYTE   W02
 BYTE   N07  As3
 BYTE   W06
 BYTE   W02
 BYTE   Cn4
 BYTE   W07
 BYTE   W01
 BYTE   N23  As3
 BYTE   W02
 BYTE   W01
 BYTE   W02
 BYTE   W01
 BYTE   W02
 BYTE   W01
 BYTE   W01
 BYTE   W02
 BYTE   W01
 BYTE   W02
 BYTE   W01
 BYTE   W02
 BYTE   W01
 BYTE   W02
 BYTE   W01
 BYTE   W02
 BYTE   N11  Gn3
 BYTE   W01
 BYTE   W02
 BYTE   W01
 BYTE   W01
 BYTE   W02
 BYTE   W01
 BYTE   W02
 BYTE   W01
 BYTE   W01
 BYTE   N03  Gn3  v124
 BYTE   W04
 BYTE   Gs3
 BYTE   W04
 BYTE   As3
 BYTE   W04
//  #05 //006   ----------------------------------------
 BYTE   N30  Cn4  v104
 BYTE   W02
 BYTE   W01
 BYTE   W02
 BYTE   W01
 BYTE   W02
 BYTE   W03
 BYTE   W03
 BYTE   W03
 BYTE   W03
 BYTE   W03
 BYTE   W03
 BYTE   W03
 BYTE   W02
 BYTE   W01
 BYTE   N05  As3  v124
 BYTE   W05
 BYTE   W03
 BYTE   Gs3
 BYTE   W01
 BYTE   W03
 BYTE   W03
 BYTE   W01
 BYTE   N30  As3  v104
 BYTE   W01
 BYTE   W01
 BYTE   W02
 BYTE   W01
 BYTE   W02
 BYTE   W01
 BYTE   W02
 BYTE   W01
 BYTE   W02
 BYTE   W01
 BYTE   W02
 BYTE   W01
 BYTE   W02
 BYTE   W01
 BYTE   W02
 BYTE   W01
 BYTE   W02
 BYTE   W01
 BYTE   W02
 BYTE   W01
 BYTE   W02
 BYTE   W01
 BYTE   N05  Gs3  v124
 BYTE   W07
 BYTE   W01
 BYTE   Gn3
 BYTE   W07
 BYTE   W01
//  #05 //007   ----------------------------------------
 BYTE   N30  Gs3  v104
 BYTE   W01
 BYTE   W01
 BYTE   W01
 BYTE   W01
 BYTE   W01
 BYTE   W01
 BYTE   W01
 BYTE   W02
 BYTE   W01
 BYTE   W02
 BYTE   W01
 BYTE   W02
 BYTE   W01
 BYTE   W02
 BYTE   W01
 BYTE   W02
 BYTE   W01
 BYTE   W02
 BYTE   W01
 BYTE   W02
 BYTE   W01
 BYTE   W01
 BYTE   W03
 BYTE   N05  Gn3  v124
 BYTE   W04
 BYTE   W04
 BYTE   Fn3
 BYTE   W04
 BYTE   W03
 BYTE   W01
 BYTE   N30  Gn3  v104
 BYTE   W01
 BYTE   W01
 BYTE   W02
 BYTE   W01
 BYTE   W02
 BYTE   W01
 BYTE   W01
 BYTE   W02
 BYTE   W01
 BYTE   W02
 BYTE   W01
 BYTE   W02
 BYTE   W01
 BYTE   W02
 BYTE   W01
 BYTE   W02
 BYTE   W01
 BYTE   W02
 BYTE   W01
 BYTE   W02
 BYTE   W01
 BYTE   W02
 BYTE   N05  Fn3  v124
 BYTE   W01
 BYTE   W02
 BYTE   W01
 BYTE   W02
 BYTE   W01
 BYTE   W01
 BYTE   Ds3
 BYTE   W02
 BYTE   W03
 BYTE   W03
//  #05 //008   ----------------------------------------
 BYTE   N92  Cn3  v112
 BYTE   W02
 BYTE   W03
 BYTE   W03
 BYTE   W03
 BYTE   W03
 BYTE   W03
 BYTE   W03
 BYTE   W03
 BYTE   W03
 BYTE   W03
 BYTE   W03
 BYTE   W03
 BYTE   W03
 BYTE   W03
 BYTE   W03
 BYTE   W03
 BYTE   W03
 BYTE   W03
 BYTE   W03
 BYTE   W03
 BYTE   W03
 BYTE   W03
 BYTE   W03
 BYTE   W03
 BYTE   W03
 BYTE   W03
 BYTE   W03
 BYTE   W03
 BYTE   W03
 BYTE   W03
 BYTE   W03
 BYTE   W03
 BYTE   W01
//  #05 //009   ----------------------------------------
 BYTE   W01
 BYTE   W92
 BYTE   W03
//  #05 //010   ----------------------------------------
 BYTE   W96
//  #05 //011   ----------------------------------------
 BYTE   W66
 BYTE   W01
 BYTE   W01
 BYTE   W01
 BYTE   W01
 BYTE   W01
 BYTE   W01
 BYTE   N03  Dn3  v116
 BYTE   W02
 BYTE   W02
 BYTE   Ds3
 BYTE   W01
 BYTE   W03
 BYTE   Fn3
 BYTE   W03
 BYTE   W01
 BYTE   Gn3
 BYTE   W02
 BYTE   W02
 BYTE   Gs3
 BYTE   W01
 BYTE   W03
 BYTE   As3
 BYTE   W03
 BYTE   W01
//  #05 //012   ----------------------------------------
 BYTE   N30  Cn4  v104
 BYTE   W02
 BYTE   W01
 BYTE   W01
 BYTE   W01
 BYTE   W01
 BYTE   W01
 BYTE   W01
 BYTE   W01
 BYTE   W01
 BYTE   W01
 BYTE   W02
 BYTE   W01
 BYTE   W02
 BYTE   W01
 BYTE   W02
 BYTE   W01
 BYTE   W02
 BYTE   W01
 BYTE   W02
 BYTE   W01
 BYTE   W02
 BYTE   W01
 BYTE   W03
 BYTE   N07  As3
 BYTE   W08
 BYTE   Cn4
 BYTE   W06
 BYTE   W01
 BYTE   W01
 BYTE   N23  As3
 BYTE   W01
 BYTE   W01
 BYTE   W02
 BYTE   W01
 BYTE   W02
 BYTE   W01
 BYTE   W02
 BYTE   W01
 BYTE   W04
 BYTE   W03
 BYTE   W03
 BYTE   W03
 BYTE   Ds4
 BYTE   W03
 BYTE   W04
 BYTE   W03
 BYTE   W03
 BYTE   W03
 BYTE   W02
 BYTE   W01
 BYTE   W02
 BYTE   W01
 BYTE   W01
 BYTE   W01
//  #05 //013   ----------------------------------------
 BYTE   N30  Cn4
 BYTE   W01
 BYTE   W01
 BYTE   W02
 BYTE   W01
 BYTE   W02
 BYTE   W01
 BYTE   W02
 BYTE   W01
 BYTE   W01
 BYTE   W02
 BYTE   W01
 BYTE   W02
 BYTE   W01
 BYTE   W02
 BYTE   W01
 BYTE   W02
 BYTE   W01
 BYTE   W02
 BYTE   W01
 BYTE   W02
 BYTE   W01
 BYTE   W02
 BYTE   N07  As3
 BYTE   W01
 BYTE   W07
 BYTE   Cn4
 BYTE   W08
 BYTE   N23  As3
 BYTE   W08
 BYTE   W07
 BYTE   W04
 BYTE   W04
 BYTE   W01
 BYTE   Gn3
 BYTE   W02
 BYTE   W04
 BYTE   W04
 BYTE   W01
 BYTE   W02
 BYTE   W01
 BYTE   W02
 BYTE   W01
 BYTE   W02
 BYTE   W01
 BYTE   W02
 BYTE   W01
 BYTE   W01
//  #05 //014   ----------------------------------------
 BYTE   N30  Gs3
 BYTE   W02
 BYTE   W01
 BYTE   W02
 BYTE   W01
 BYTE   W02
 BYTE   W01
 BYTE   W02
 BYTE   W01
 BYTE   W02
 BYTE   W01
 BYTE   W02
 BYTE   W01
 BYTE   W02
 BYTE   W01
 BYTE   W02
 BYTE   W01
 BYTE   W01
 BYTE   W01
 BYTE   W02
 BYTE   W01
 BYTE   W02
 BYTE   W01
 BYTE   N06  Gn3  v116
 BYTE   W02
 BYTE   W01
 BYTE   W02
 BYTE   W01
 BYTE   W02
 BYTE   Fn3
 BYTE   W01
 BYTE   W02
 BYTE   W01
 BYTE   W02
 BYTE   W01
 BYTE   W01
 BYTE   N30  Gs3  v104
 BYTE   W01
 BYTE   W01
 BYTE   W02
 BYTE   W01
 BYTE   W02
 BYTE   W01
 BYTE   W02
 BYTE   W01
 BYTE   W02
 BYTE   W01
 BYTE   W02
 BYTE   W01
 BYTE   W02
 BYTE   W01
 BYTE   W02
 BYTE   W01
 BYTE   W01
 BYTE   W02
 BYTE   W01
 BYTE   W02
 BYTE   W01
 BYTE   W02
 BYTE   N06  Fs3  v116
 BYTE   W01
 BYTE   W02
 BYTE   W01
 BYTE   W02
 BYTE   W01
 BYTE   W01
 BYTE   En3
 BYTE   W01
 BYTE   W01
 BYTE   W02
 BYTE   W01
 BYTE   W02
 BYTE   W01
//  #05 //015   ----------------------------------------
 BYTE   N80  Gs3  v104
 BYTE   W01
 BYTE   W02
 BYTE   W01
 BYTE   W02
 BYTE   W01
 BYTE   W02
 BYTE   W01
 BYTE   W02
 BYTE   W01
 BYTE   W02
 BYTE   W01
 BYTE   W01
 BYTE   W05
 BYTE   W05
 BYTE   W03
 BYTE   W03
 BYTE   W03
 BYTE   W03
 BYTE   W03
 BYTE   W03
 BYTE   W03
 BYTE   W03
 BYTE   W03
 BYTE   W03
 BYTE   W03
 BYTE   W03
 BYTE   W03
 BYTE   W03
 BYTE   W03
 BYTE   W03
 BYTE   W03
 BYTE   W03
 BYTE   W02
 BYTE   W02
 BYTE   W01
 BYTE   W02
 BYTE   W01
 BYTE   W02
 BYTE   W01
 BYTE   W02
 BYTE   W01
 BYTE   VOL   31*Liberation_mvl/mxv
 BYTE   PAN   c_v-32
 BYTE   BEND   c_v+0
 BYTE   W01
//  #05 //016   ----------------------------------------
 BYTE   N44  Fs3
 BYTE   W01
 BYTE   W02
 BYTE   W03
 BYTE   W03
 BYTE   W03
 BYTE   W03
 BYTE   W03
 BYTE   W03
 BYTE   W03
 BYTE   W03
 BYTE   W03
 BYTE   W03
 BYTE   W03
 BYTE   W03
 BYTE   W03
 BYTE   W03
 BYTE   W03
 BYTE   En3
 BYTE   W03
 BYTE   W03
 BYTE   W03
 BYTE   W03
 BYTE   W03
 BYTE   W03
 BYTE   W03
 BYTE   W03
 BYTE   W03
 BYTE   W03
 BYTE   W03
 BYTE   W03
 BYTE   W03
 BYTE   W03
 BYTE   W03
 BYTE   W03
//  #05 //017   ----------------------------------------
 BYTE   Fs3
 BYTE   W03
 BYTE   W03
 BYTE   W03
 BYTE   W03
 BYTE   W03
 BYTE   W03
 BYTE   W03
 BYTE   W03
 BYTE   W01
 BYTE   W13
 BYTE   W10
 BYTE   Ds3
 BYTE   W03
 BYTE   W03
 BYTE   W03
 BYTE   W03
 BYTE   W03
 BYTE   W03
 BYTE   W03
 BYTE   W03
 BYTE   W03
 BYTE   W03
 BYTE   W03
 BYTE   W03
 BYTE   W03
 BYTE   W03
 BYTE   W01
 BYTE   W05
//  #05 //018   ----------------------------------------
 BYTE   N23  Cs3
 BYTE   W02
 BYTE   W03
 BYTE   W03
 BYTE   W03
 BYTE   W03
 BYTE   W03
 BYTE   W03
 BYTE   W03
 BYTE   W01
 BYTE   N44  An2
 BYTE   W02
 BYTE   W03
 BYTE   W04
 BYTE   W03
 BYTE   W03
 BYTE   W03
 BYTE   W03
 BYTE   W03
 BYTE   W03
 BYTE   W03
 BYTE   W03
 BYTE   W03
 BYTE   W04
 BYTE   W03
 BYTE   W03
 BYTE   W02
 BYTE   N23  En2
 BYTE   W01
 BYTE   W03
 BYTE   W03
 BYTE   W03
 BYTE   W03
 BYTE   W03
 BYTE   W04
 BYTE   W04
//  #05 //019   ----------------------------------------
 BYTE   Fs2
 BYTE   W24
 BYTE   Gs2
 BYTE   W19
 BYTE   W05
 BYTE   Fs2
 BYTE   W24
 BYTE   Ds2
 BYTE   W18
 BYTE   W02
 BYTE   W01
 BYTE   W02
 BYTE   W01
//  #05 //020   ----------------------------------------
 BYTE   En2
 BYTE   W02
 BYTE   W01
 BYTE   W02
 BYTE   W01
 BYTE   W02
 BYTE   W01
 BYTE   W02
 BYTE   W01
 BYTE   W02
 BYTE   W01
 BYTE   W02
 BYTE   W01
 BYTE   W02
 BYTE   W01
 BYTE   W02
 BYTE   W01
 BYTE   N44  An2
 BYTE   W01
 BYTE   W06
 BYTE   W03
 BYTE   W03
 BYTE   W03
 BYTE   W03
 BYTE   W03
 BYTE   W03
 BYTE   W03
 BYTE   W03
 BYTE   W03
 BYTE   W03
 BYTE   W03
 BYTE   W03
 BYTE   W04
 BYTE   W01
 BYTE   N23  Cs3
 BYTE   W02
 BYTE   W03
 BYTE   W03
 BYTE   W03
 BYTE   W03
 BYTE   W03
 BYTE   W03
 BYTE   W03
 BYTE   W01
//  #05 //021   ----------------------------------------
 BYTE   N44  Fs3
 BYTE   W09
 BYTE   W05
 BYTE   W05
 BYTE   W05
 BYTE   W05
 BYTE   W05
 BYTE   W05
 BYTE   W05
 BYTE   W04
 BYTE   Ds3
 BYTE   W01
 BYTE   W05
 BYTE   W05
 BYTE   W05
 BYTE   W05
 BYTE   W05
 BYTE   W05
 BYTE   W05
 BYTE   W05
 BYTE   W05
 BYTE   W02
//  #05 //022   ----------------------------------------
 BYTE   N48  Cs3
 BYTE   W04
 BYTE   W03
 BYTE   W03
 BYTE   W03
 BYTE   W03
 BYTE   W03
 BYTE   W03
 BYTE   W03
 BYTE   W03
 BYTE   W03
 BYTE   W03
 BYTE   W03
 BYTE   W03
 BYTE   W03
 BYTE   W03
 BYTE   W02
 BYTE   N44  Bn2
 BYTE   W01
 BYTE   W03
 BYTE   W03
 BYTE   W03
 BYTE   W03
 BYTE   W03
 BYTE   W03
 BYTE   W03
 BYTE   W03
 BYTE   W03
 BYTE   W03
 BYTE   W03
 BYTE   W03
 BYTE   W03
 BYTE   W03
 BYTE   W03
 BYTE   W02
//  #05 //023   ----------------------------------------
 BYTE   An2
 BYTE   W07
 BYTE   W04
 BYTE   W03
 BYTE   W04
 BYTE   W03
 BYTE   W04
 BYTE   W03
 BYTE   W04
 BYTE   W03
 BYTE   W04
 BYTE   W03
 BYTE   W04
 BYTE   W02
 BYTE   Gs2
 BYTE   W01
 BYTE   W04
 BYTE   W03
 BYTE   W04
 BYTE   W03
 BYTE   W04
 BYTE   W03
 BYTE   W04
 BYTE   W03
 BYTE   W04
 BYTE   W03
 BYTE   W04
 BYTE   W03
 BYTE   W04
 BYTE   W01
//  #05 //024   ----------------------------------------
 BYTE   N23  As2
 BYTE   W17
 BYTE   W07
 BYTE   N44  Fs2
 BYTE   W02
 BYTE   W09
 BYTE   W08
 BYTE   W09
 BYTE   W09
 BYTE   W09
 BYTE   W09
 BYTE   W09
 BYTE   W08
//  #05 //025   ----------------------------------------
 BYTE   N44
 BYTE   W01
 BYTE   W44
 BYTE   W03
 BYTE   An2
 BYTE   W48
//  #05 //026   ----------------------------------------
 BYTE   N92  Bn2
 BYTE   W03
 BYTE   W03
 BYTE   W03
 BYTE   W03
 BYTE   W03
 BYTE   W03
 BYTE   W03
 BYTE   W03
 BYTE   W03
 BYTE   W03
 BYTE   W03
 BYTE   W03
 BYTE   W03
 BYTE   W03
 BYTE   W03
 BYTE   W03
 BYTE   W03
 BYTE   W03
 BYTE   W01
 BYTE   W02
 BYTE   W01
 BYTE   W02
 BYTE   W01
 BYTE   W02
 BYTE   W01
 BYTE   W02
 BYTE   W01
 BYTE   W02
 BYTE   W01
 BYTE   W02
 BYTE   W01
 BYTE   W02
 BYTE   W01
 BYTE   W02
 BYTE   W01
 BYTE   W02
 BYTE   W01
 BYTE   W02
 BYTE   W01
 BYTE   W02
 BYTE   W01
 BYTE   W02
 BYTE   W01
 BYTE   W02
 BYTE   W01
 BYTE   W02
//  #05 //027   ----------------------------------------
 BYTE   W01
 BYTE   W02
 BYTE   W01
 BYTE   W02
 BYTE   W01
 BYTE   W88
 BYTE   W01
//  #05 //028   ----------------------------------------
 BYTE   W96
//  #05 //029   ----------------------------------------
 BYTE   W96
//  #05 //030   ----------------------------------------
 BYTE   W96
//  #05 //031   ----------------------------------------
 BYTE   W96
//  #05 //032   ----------------------------------------
 BYTE   W96
//  #05 //033   ----------------------------------------
 BYTE   GoTo
  POIN2 Label_0101517E
 BYTE   FINE

//**************** Track 6 (Midi-Chn.5) ****************//

Liberation_006:
//  #06 //000   ----------------------------------------
 BYTE   KEYSH   Liberation_key+0
Label_01015B1E:
 BYTE   VOICE   40
 BYTE   W96
//  #06 //001   ----------------------------------------
 BYTE   VOL   29*Liberation_mvl/mxv
 BYTE   PAN   c_v-32
 BYTE   BEND   c_v+0
 BYTE   W96
//  #06 //002   ----------------------------------------
 BYTE   W96
//  #06 //003   ----------------------------------------
 BYTE   W48
 BYTE   W01
 BYTE   W01
 BYTE   W02
 BYTE   W01
 BYTE   W02
 BYTE   W01
 BYTE   W02
 BYTE   W01
 BYTE   W02
 BYTE   W01
 BYTE   W02
 BYTE   W01
 BYTE   W02
 BYTE   W01
 BYTE   W02
 BYTE   W01
 BYTE   W02
 BYTE   W03
 BYTE   W02
 BYTE   N03  Dn3  v116
 BYTE   W01
 BYTE   W03
 BYTE   Ds3
 BYTE   W03
 BYTE   W01
 BYTE   Fn3
 BYTE   W02
 BYTE   W02
 BYTE   Gn3
 BYTE   W01
 BYTE   W03
 BYTE   Gs3
 BYTE   W02
//  #06 //004   ----------------------------------------
 BYTE   W01
 BYTE   W01
 BYTE   As3
 BYTE   W02
 BYTE   W02
 BYTE   N30  Cn4  v104
 BYTE   W01
 BYTE   W01
 BYTE   W01
 BYTE   W01
 BYTE   W01
 BYTE   W01
 BYTE   W01
 BYTE   W01
 BYTE   W01
 BYTE   W02
 BYTE   W01
 BYTE   W02
 BYTE   W01
 BYTE   W02
 BYTE   W01
 BYTE   W02
 BYTE   W01
 BYTE   W02
 BYTE   W01
 BYTE   W02
 BYTE   W01
 BYTE   W01
 BYTE   W04
 BYTE   N07  As3
 BYTE   W08
 BYTE   Cn4
 BYTE   W08
 BYTE   N23  As3
 BYTE   W01
 BYTE   W02
 BYTE   W01
 BYTE   W02
 BYTE   W01
 BYTE   W02
 BYTE   W01
 BYTE   W02
 BYTE   W01
 BYTE   W04
 BYTE   W05
 BYTE   W02
 BYTE   Ds4
 BYTE   W03
 BYTE   W05
 BYTE   W05
 BYTE   W01
 BYTE   W02
 BYTE   W01
 BYTE   W01
//  #06 //005   ----------------------------------------
 BYTE   W01
 BYTE   W01
 BYTE   W02
 BYTE   W01
 BYTE   W01
 BYTE   N30  Cn4
 BYTE   W01
 BYTE   W02
 BYTE   W01
 BYTE   W02
 BYTE   W01
 BYTE   W02
 BYTE   W01
 BYTE   W02
 BYTE   W01
 BYTE   W02
 BYTE   W01
 BYTE   W02
 BYTE   W01
 BYTE   W02
 BYTE   W01
 BYTE   W02
 BYTE   W01
 BYTE   W02
 BYTE   W01
 BYTE   W02
 BYTE   W02
 BYTE   N07  As3
 BYTE   W06
 BYTE   W02
 BYTE   Cn4
 BYTE   W07
 BYTE   W01
 BYTE   N23  As3
 BYTE   W02
 BYTE   W01
 BYTE   W02
 BYTE   W01
 BYTE   W02
 BYTE   W01
 BYTE   W01
 BYTE   W02
 BYTE   W01
 BYTE   W02
 BYTE   W01
 BYTE   W02
 BYTE   W01
 BYTE   W02
 BYTE   W01
 BYTE   W02
 BYTE   N11  Gn3
 BYTE   W01
 BYTE   W02
 BYTE   W01
 BYTE   W01
 BYTE   W02
 BYTE   W01
 BYTE   W02
 BYTE   W01
 BYTE   W01
 BYTE   N03  Gn3  v124
 BYTE   W04
 BYTE   Gs3
 BYTE   W02
//  #06 //006   ----------------------------------------
 BYTE   W02
 BYTE   As3
 BYTE   W04
 BYTE   N30  Cn4  v104
 BYTE   W02
 BYTE   W01
 BYTE   W02
 BYTE   W01
 BYTE   W02
 BYTE   W03
 BYTE   W03
 BYTE   W03
 BYTE   W03
 BYTE   W03
 BYTE   W03
 BYTE   W03
 BYTE   W02
 BYTE   W01
 BYTE   N05  As3  v124
 BYTE   W05
 BYTE   W03
 BYTE   Gs3
 BYTE   W01
 BYTE   W03
 BYTE   W03
 BYTE   W01
 BYTE   N30  As3  v104
 BYTE   W01
 BYTE   W01
 BYTE   W02
 BYTE   W01
 BYTE   W02
 BYTE   W01
 BYTE   W02
 BYTE   W01
 BYTE   W02
 BYTE   W01
 BYTE   W02
 BYTE   W01
 BYTE   W02
 BYTE   W01
 BYTE   W02
 BYTE   W01
 BYTE   W02
 BYTE   W01
 BYTE   W02
 BYTE   W01
 BYTE   W02
 BYTE   W01
 BYTE   N05  Gs3  v124
 BYTE   W07
 BYTE   W01
 BYTE   Gn3
 BYTE   W02
//  #06 //007   ----------------------------------------
 BYTE   W05
 BYTE   W01
 BYTE   N30  Gs3  v104
 BYTE   W01
 BYTE   W01
 BYTE   W01
 BYTE   W01
 BYTE   W01
 BYTE   W01
 BYTE   W01
 BYTE   W02
 BYTE   W01
 BYTE   W02
 BYTE   W01
 BYTE   W02
 BYTE   W01
 BYTE   W02
 BYTE   W01
 BYTE   W02
 BYTE   W01
 BYTE   W02
 BYTE   W01
 BYTE   W02
 BYTE   W01
 BYTE   W01
 BYTE   W03
 BYTE   N05  Gn3  v124
 BYTE   W04
 BYTE   W04
 BYTE   Fn3
 BYTE   W04
 BYTE   W03
 BYTE   W01
 BYTE   N30  Gn3  v104
 BYTE   W01
 BYTE   W01
 BYTE   W02
 BYTE   W01
 BYTE   W02
 BYTE   W01
 BYTE   W01
 BYTE   W02
 BYTE   W01
 BYTE   W02
 BYTE   W01
 BYTE   W02
 BYTE   W01
 BYTE   W02
 BYTE   W01
 BYTE   W02
 BYTE   W01
 BYTE   W02
 BYTE   W01
 BYTE   W02
 BYTE   W01
 BYTE   W02
 BYTE   N05  Fn3  v124
 BYTE   W01
 BYTE   W02
 BYTE   W01
 BYTE   W02
 BYTE   W01
 BYTE   W03
//  #06 //008   ----------------------------------------
 BYTE   W03
 BYTE   W03
 BYTE   W02
 BYTE   W03
 BYTE   W03
 BYTE   W03
 BYTE   W03
 BYTE   W03
 BYTE   W03
 BYTE   W03
 BYTE   W03
 BYTE   W03
 BYTE   W03
 BYTE   W03
 BYTE   W03
 BYTE   W03
 BYTE   W03
 BYTE   W03
 BYTE   W03
 BYTE   W03
 BYTE   W03
 BYTE   W03
 BYTE   W03
 BYTE   W03
 BYTE   W03
 BYTE   W03
 BYTE   W03
 BYTE   W03
 BYTE   W03
 BYTE   W03
 BYTE   W03
 BYTE   W03
 BYTE   W01
//  #06 //009   ----------------------------------------
 BYTE   W02
 BYTE   W03
 BYTE   W02
 BYTE   W88
 BYTE   W01
//  #06 //010   ----------------------------------------
 BYTE   W96
//  #06 //011   ----------------------------------------
 BYTE   W72
 BYTE   W01
 BYTE   W01
 BYTE   W01
 BYTE   W01
 BYTE   W01
 BYTE   W01
 BYTE   N03  Dn3  v116
 BYTE   W02
 BYTE   W02
 BYTE   Ds3
 BYTE   W01
 BYTE   W03
 BYTE   Fn3
 BYTE   W03
 BYTE   W01
 BYTE   Gn3
 BYTE   W02
 BYTE   W02
 BYTE   Gs3
 BYTE   W01
 BYTE   W01
//  #06 //012   ----------------------------------------
 BYTE   W02
 BYTE   As3
 BYTE   W03
 BYTE   W01
 BYTE   N30  Cn4  v104
 BYTE   W02
 BYTE   W01
 BYTE   W01
 BYTE   W01
 BYTE   W01
 BYTE   W01
 BYTE   W01
 BYTE   W01
 BYTE   W01
 BYTE   W01
 BYTE   W02
 BYTE   W01
 BYTE   W02
 BYTE   W01
 BYTE   W02
 BYTE   W01
 BYTE   W02
 BYTE   W01
 BYTE   W02
 BYTE   W01
 BYTE   W02
 BYTE   W01
 BYTE   W03
 BYTE   N07  As3
 BYTE   W08
 BYTE   Cn4
 BYTE   W06
 BYTE   W01
 BYTE   W01
 BYTE   N23  As3
 BYTE   W01
 BYTE   W01
 BYTE   W02
 BYTE   W01
 BYTE   W02
 BYTE   W01
 BYTE   W02
 BYTE   W01
 BYTE   W04
 BYTE   W03
 BYTE   W03
 BYTE   W03
 BYTE   Ds4
 BYTE   W03
 BYTE   W04
 BYTE   W03
 BYTE   W03
 BYTE   W03
 BYTE   W02
//  #06 //013   ----------------------------------------
 BYTE   W01
 BYTE   W02
 BYTE   W01
 BYTE   W01
 BYTE   W01
 BYTE   N30  Cn4
 BYTE   W01
 BYTE   W01
 BYTE   W02
 BYTE   W01
 BYTE   W02
 BYTE   W01
 BYTE   W02
 BYTE   W01
 BYTE   W01
 BYTE   W02
 BYTE   W01
 BYTE   W02
 BYTE   W01
 BYTE   W02
 BYTE   W01
 BYTE   W02
 BYTE   W01
 BYTE   W02
 BYTE   W01
 BYTE   W02
 BYTE   W01
 BYTE   W02
 BYTE   N07  As3
 BYTE   W01
 BYTE   W07
 BYTE   Cn4
 BYTE   W08
 BYTE   N23  As3
 BYTE   W08
 BYTE   W07
 BYTE   W04
 BYTE   W04
 BYTE   W01
 BYTE   Gn3
 BYTE   W02
 BYTE   W04
 BYTE   W04
 BYTE   W01
 BYTE   W02
 BYTE   W01
 BYTE   W02
 BYTE   W01
 BYTE   W01
//  #06 //014   ----------------------------------------
 BYTE   W01
 BYTE   W01
 BYTE   W02
 BYTE   W01
 BYTE   W01
 BYTE   N30  Gs3
 BYTE   W02
 BYTE   W01
 BYTE   W02
 BYTE   W01
 BYTE   W02
 BYTE   W01
 BYTE   W02
 BYTE   W01
 BYTE   W02
 BYTE   W01
 BYTE   W02
 BYTE   W01
 BYTE   W02
 BYTE   W01
 BYTE   W02
 BYTE   W01
 BYTE   W01
 BYTE   W01
 BYTE   W02
 BYTE   W01
 BYTE   W02
 BYTE   W01
 BYTE   N06  Gn3  v116
 BYTE   W02
 BYTE   W01
 BYTE   W02
 BYTE   W01
 BYTE   W02
 BYTE   Fn3
 BYTE   W01
 BYTE   W02
 BYTE   W01
 BYTE   W02
 BYTE   W01
 BYTE   W01
 BYTE   N30  Gs3  v104
 BYTE   W01
 BYTE   W01
 BYTE   W02
 BYTE   W01
 BYTE   W02
 BYTE   W01
 BYTE   W02
 BYTE   W01
 BYTE   W02
 BYTE   W01
 BYTE   W02
 BYTE   W01
 BYTE   W02
 BYTE   W01
 BYTE   W02
 BYTE   W01
 BYTE   W01
 BYTE   W02
 BYTE   W01
 BYTE   W02
 BYTE   W01
 BYTE   W02
 BYTE   N06  Fs3  v116
 BYTE   W01
 BYTE   W02
 BYTE   W01
 BYTE   W02
 BYTE   W01
 BYTE   W01
 BYTE   En3
 BYTE   W01
 BYTE   W01
//  #06 //015   ----------------------------------------
 BYTE   W02
 BYTE   W01
 BYTE   W02
 BYTE   W01
 BYTE   N60  Gs3  v104
 BYTE   W01
 BYTE   W02
 BYTE   W01
 BYTE   W02
 BYTE   W01
 BYTE   W02
 BYTE   W01
 BYTE   W02
 BYTE   W01
 BYTE   W02
 BYTE   W01
 BYTE   W01
 BYTE   W05
 BYTE   W05
 BYTE   W02
 BYTE   W01
 BYTE   W02
 BYTE   W01
 BYTE   W02
 BYTE   W01
 BYTE   W02
 BYTE   W01
 BYTE   W02
 BYTE   W01
 BYTE   W02
 BYTE   W01
 BYTE   W02
 BYTE   W01
 BYTE   W02
 BYTE   W01
 BYTE   W02
 BYTE   W01
 BYTE   W02
 BYTE   W01
 BYTE   W02
 BYTE   W01
 BYTE   W02
 BYTE   W01
 BYTE   W02
 BYTE   W24
 BYTE   VOL   35*Liberation_mvl/mxv
 BYTE   PAN   c_v+32
 BYTE   BEND   c_v+0
 BYTE   W01
//  #06 //016   ----------------------------------------
 BYTE   N72  Bn3
 BYTE   W03
 BYTE   W03
 BYTE   W03
 BYTE   W03
 BYTE   W03
 BYTE   W03
 BYTE   W03
 BYTE   W03
 BYTE   W03
 BYTE   W03
 BYTE   W03
 BYTE   W03
 BYTE   W03
 BYTE   W03
 BYTE   W03
 BYTE   W03
 BYTE   W03
 BYTE   W03
 BYTE   W03
 BYTE   W03
 BYTE   W03
 BYTE   W03
 BYTE   W03
 BYTE   W03
 BYTE   N23  An3
 BYTE   W03
 BYTE   W03
 BYTE   W03
 BYTE   W03
 BYTE   W03
 BYTE   W03
 BYTE   W03
 BYTE   W03
//  #06 //017   ----------------------------------------
 BYTE   N44  Bn3
 BYTE   W03
 BYTE   W03
 BYTE   W03
 BYTE   W03
 BYTE   W03
 BYTE   W03
 BYTE   W03
 BYTE   W03
 BYTE   W01
 BYTE   W13
 BYTE   W10
 BYTE   N92  Fs3
 BYTE   W03
 BYTE   W03
 BYTE   W03
 BYTE   W03
 BYTE   W03
 BYTE   W03
 BYTE   W03
 BYTE   W03
 BYTE   W03
 BYTE   W03
 BYTE   W03
 BYTE   W03
 BYTE   W03
 BYTE   W03
 BYTE   W01
 BYTE   W05
//  #06 //018   ----------------------------------------
 BYTE   W02
 BYTE   W03
 BYTE   W03
 BYTE   W03
 BYTE   W03
 BYTE   W03
 BYTE   W03
 BYTE   W03
 BYTE   W03
 BYTE   W03
 BYTE   W04
 BYTE   W03
 BYTE   W03
 BYTE   W03
 BYTE   W03
 BYTE   W03
 BYTE   N44  Cs3
 BYTE   W03
 BYTE   W03
 BYTE   W03
 BYTE   W03
 BYTE   W04
 BYTE   W03
 BYTE   W03
 BYTE   W03
 BYTE   W03
 BYTE   W03
 BYTE   W03
 BYTE   W03
 BYTE   W03
 BYTE   W04
 BYTE   W04
//  #06 //019   ----------------------------------------
 BYTE   N23  Ds3
 BYTE   W24
 BYTE   En3
 BYTE   W19
 BYTE   W05
 BYTE   Ds3
 BYTE   W24
 BYTE   Bn2
 BYTE   W18
 BYTE   W02
 BYTE   W01
 BYTE   W02
 BYTE   W01
//  #06 //020   ----------------------------------------
 BYTE   Cs3
 BYTE   W02
 BYTE   W01
 BYTE   W02
 BYTE   W01
 BYTE   W02
 BYTE   W01
 BYTE   W02
 BYTE   W01
 BYTE   W02
 BYTE   W01
 BYTE   W02
 BYTE   W01
 BYTE   W02
 BYTE   W01
 BYTE   W02
 BYTE   W01
 BYTE   N44  En3
 BYTE   W01
 BYTE   W03
 BYTE   W03
 BYTE   W03
 BYTE   W03
 BYTE   W03
 BYTE   W03
 BYTE   W03
 BYTE   W03
 BYTE   W03
 BYTE   W03
 BYTE   W03
 BYTE   W03
 BYTE   W03
 BYTE   W03
 BYTE   W03
 BYTE   W02
 BYTE   N24  An3
 BYTE   W01
 BYTE   W03
 BYTE   W03
 BYTE   W03
 BYTE   W03
 BYTE   W03
 BYTE   W03
 BYTE   W03
 BYTE   W01
 BYTE   W01
//  #06 //021   ----------------------------------------
 BYTE   N44  Bn3
 BYTE   W06
 BYTE   W04
 BYTE   W04
 BYTE   W04
 BYTE   W03
 BYTE   W04
 BYTE   W04
 BYTE   W03
 BYTE   W04
 BYTE   W04
 BYTE   W04
 BYTE   W03
 BYTE   W01
 BYTE   Fs3
 BYTE   W03
 BYTE   W04
 BYTE   W04
 BYTE   W03
 BYTE   W04
 BYTE   W04
 BYTE   W03
 BYTE   W04
 BYTE   W04
 BYTE   W04
 BYTE   W03
 BYTE   W04
 BYTE   W04
//  #06 //022   ----------------------------------------
 BYTE   N92  En3
 BYTE   W04
 BYTE   W01
 BYTE   W02
 BYTE   W01
 BYTE   W02
 BYTE   W01
 BYTE   W02
 BYTE   W03
 BYTE   W03
 BYTE   W03
 BYTE   W03
 BYTE   W03
 BYTE   W03
 BYTE   W03
 BYTE   W03
 BYTE   W03
 BYTE   W03
 BYTE   W03
 BYTE   W03
 BYTE   W03
 BYTE   W03
 BYTE   W03
 BYTE   W03
 BYTE   W03
 BYTE   W03
 BYTE   W03
 BYTE   W03
 BYTE   W03
 BYTE   W03
 BYTE   W03
 BYTE   W03
 BYTE   W03
 BYTE   W03
 BYTE   W03
 BYTE   W02
//  #06 //023   ----------------------------------------
 BYTE   Cs3
 BYTE   W03
 BYTE   W03
 BYTE   W03
 BYTE   W03
 BYTE   W03
 BYTE   W03
 BYTE   W03
 BYTE   W03
 BYTE   W03
 BYTE   W03
 BYTE   W03
 BYTE   W03
 BYTE   W03
 BYTE   W03
 BYTE   W03
 BYTE   W03
 BYTE   W03
 BYTE   W03
 BYTE   W03
 BYTE   W03
 BYTE   W03
 BYTE   W03
 BYTE   W02
 BYTE   W03
 BYTE   W03
 BYTE   W03
 BYTE   W03
 BYTE   W03
 BYTE   W03
 BYTE   W03
 BYTE   W03
 BYTE   W03
 BYTE   W01
//  #06 //024   ----------------------------------------
 BYTE   N44
 BYTE   W17
 BYTE   W09
 BYTE   W09
 BYTE   W08
 BYTE   W05
 BYTE   As2
 BYTE   W04
 BYTE   W09
 BYTE   W09
 BYTE   W09
 BYTE   W09
 BYTE   W08
//  #06 //025   ----------------------------------------
 BYTE   N22  An2
 BYTE   W01
 BYTE   W23
 BYTE   N44  Cs3
 BYTE   W24
 BYTE   W24
 BYTE   N22  En3
 BYTE   W24
//  #06 //026   ----------------------------------------
 BYTE   N92  Ds3
 BYTE   W06
 BYTE   W03
 BYTE   W03
 BYTE   W03
 BYTE   W03
 BYTE   W03
 BYTE   W03
 BYTE   W03
 BYTE   W03
 BYTE   W04
 BYTE   W03
 BYTE   W03
 BYTE   W03
 BYTE   W03
 BYTE   W01
 BYTE   W02
 BYTE   W01
 BYTE   W02
 BYTE   W01
 BYTE   W02
 BYTE   W01
 BYTE   W02
 BYTE   W01
 BYTE   W02
 BYTE   W01
 BYTE   W02
 BYTE   W01
 BYTE   W02
 BYTE   W01
 BYTE   W02
 BYTE   W01
 BYTE   W02
 BYTE   W01
 BYTE   W02
 BYTE   W01
 BYTE   W02
 BYTE   W01
 BYTE   W02
 BYTE   W01
 BYTE   W02
 BYTE   W01
 BYTE   W02
 BYTE   W01
 BYTE   W02
 BYTE   W01
 BYTE   W02
 BYTE   W01
 BYTE   W01
//  #06 //027   ----------------------------------------
 BYTE   W01
 BYTE   W01
 BYTE   W01
 BYTE   W92
 BYTE   W01
//  #06 //028   ----------------------------------------
 BYTE   W96
//  #06 //029   ----------------------------------------
 BYTE   W96
//  #06 //030   ----------------------------------------
 BYTE   W96
//  #06 //031   ----------------------------------------
 BYTE   W96
//  #06 //032   ----------------------------------------
 BYTE   W96
//  #06 //033   ----------------------------------------
 BYTE   GoTo
  POIN2 Label_01015B1E
 BYTE   FINE

//**************** Track 7 (Midi-Chn.6) ****************//

Liberation_007:
//  #07 //000   ----------------------------------------
 BYTE   KEYSH   Liberation_key+0
Label_0128342A:
 BYTE   VOICE   8
 BYTE   VOL   24*Liberation_mvl/mxv
 BYTE   PAN   c_v+0
 BYTE   BEND   c_v+0
 BYTE   W96
//  #07 //001   ----------------------------------------
 BYTE   W96
//  #07 //002   ----------------------------------------
 BYTE   W96
//  #07 //003   ----------------------------------------
 BYTE   W96
//  #07 //004   ----------------------------------------
Label_01283436:
 BYTE   W12
 BYTE   N03  As2  v127
 BYTE   W04
 BYTE   Ds3
 BYTE   W04
 BYTE   Fn3
 BYTE   W04
 BYTE   As3
 BYTE   W04
 BYTE   Ds4
 BYTE   W04
 BYTE   Fn4
 BYTE   W04
 BYTE   As4
 BYTE   W04
 BYTE   Ds5
 BYTE   W04
 BYTE   Fn5
 BYTE   W04
 BYTE   As5
 BYTE   W04
 BYTE   Gn5
 BYTE   W04
 BYTE   Ds5
 BYTE   W04
 BYTE   As4
 BYTE   W04
 BYTE   Gn4
 BYTE   W04
 BYTE   Ds4
 BYTE   W04
 BYTE   As3
 BYTE   W04
 BYTE   Gn3
 BYTE   W04
 BYTE   Ds3
 BYTE   W16
 BYTE   PEND 
//  #07 //005   ----------------------------------------
Label_0128345E:
 BYTE   W12
 BYTE   N03  Cn3  v127
 BYTE   W04
 BYTE   Fn3
 BYTE   W04
 BYTE   As3
 BYTE   W04
 BYTE   Cn4
 BYTE   W04
 BYTE   Fn4
 BYTE   W04
 BYTE   As4
 BYTE   W04
 BYTE   Cn5
 BYTE   W04
 BYTE   Fn5
 BYTE   W04
 BYTE   As5
 BYTE   W04
 BYTE   Cn6
 BYTE   W04
 BYTE   Gn5
 BYTE   W04
 BYTE   Fn5
 BYTE   W04
 BYTE   Cn5
 BYTE   W04
 BYTE   Gn4
 BYTE   W04
 BYTE   Fn4
 BYTE   W04
 BYTE   Cn4
 BYTE   W04
 BYTE   Gn3
 BYTE   W04
 BYTE   Fn3
 BYTE   W16
 BYTE   PEND 
//  #07 //006   ----------------------------------------
 BYTE   W96
//  #07 //007   ----------------------------------------
 BYTE   W96
//  #07 //008   ----------------------------------------
 BYTE   W96
//  #07 //009   ----------------------------------------
 BYTE   W96
//  #07 //010   ----------------------------------------
 BYTE   W96
//  #07 //011   ----------------------------------------
 BYTE   W96
//  #07 //012   ----------------------------------------
 BYTE   PATT
  POIN2 Label_01283436
//  #07 //013   ----------------------------------------
 BYTE   PATT
  POIN2 Label_0128345E
//  #07 //014   ----------------------------------------
 BYTE   W96
//  #07 //015   ----------------------------------------
 BYTE   W96
//  #07 //016   ----------------------------------------
 BYTE   W96
//  #07 //017   ----------------------------------------
 BYTE   W96
//  #07 //018   ----------------------------------------
 BYTE   W96
//  #07 //019   ----------------------------------------
 BYTE   W96
//  #07 //020   ----------------------------------------
 BYTE   W96
//  #07 //021   ----------------------------------------
 BYTE   W96
//  #07 //022   ----------------------------------------
 BYTE   W96
//  #07 //023   ----------------------------------------
 BYTE   W96
//  #07 //024   ----------------------------------------
 BYTE   W96
//  #07 //025   ----------------------------------------
 BYTE   W96
//  #07 //026   ----------------------------------------
 BYTE   W96
//  #07 //027   ----------------------------------------
 BYTE   W96
//  #07 //028   ----------------------------------------
 BYTE   W96
//  #07 //029   ----------------------------------------
 BYTE   W96
//  #07 //030   ----------------------------------------
 BYTE   W96
//  #07 //031   ----------------------------------------
 BYTE   W96
//  #07 //032   ----------------------------------------
 BYTE   W96
//  #07 //033   ----------------------------------------
 BYTE   GoTo
  POIN2 Label_0128342A
 BYTE   FINE

//**************** Track 8 (Midi-Chn.7) ****************//

Liberation_008:
//  #08 //000   ----------------------------------------
 BYTE   KEYSH   Liberation_key+0
Label_0101716A:
 BYTE   VOICE   41
 BYTE   VOL   36*Liberation_mvl/mxv
 BYTE   PAN   c_v-23
 BYTE   BEND   c_v+0
 BYTE   N23  Cn2  v104
 BYTE   W01
 BYTE   W02
 BYTE   W01
 BYTE   W02
 BYTE   W01
 BYTE   W01
 BYTE   W01
 BYTE   W02
 BYTE   W01
 BYTE   W02
 BYTE   W01
 BYTE   W02
 BYTE   W01
 BYTE   W02
 BYTE   W01
 BYTE   W02
 BYTE   W01
 BYTE   Fn2
 BYTE   W04
 BYTE   W04
 BYTE   W03
 BYTE   W04
 BYTE   W04
 BYTE   W04
 BYTE   W01
 BYTE   Gn2
 BYTE   W03
 BYTE   W04
 BYTE   W06
 BYTE   W04
 BYTE   W03
 BYTE   W04
 BYTE   As2
 BYTE   W01
 BYTE   W02
 BYTE   W01
 BYTE   W02
 BYTE   W01
 BYTE   W01
 BYTE   W02
 BYTE   W01
 BYTE   W02
 BYTE   W01
 BYTE   W02
 BYTE   W01
 BYTE   W02
 BYTE   W01
 BYTE   W02
 BYTE   W01
 BYTE   W01
//  #08 //001   ----------------------------------------
Label_010171A7:
 BYTE   N30  An2  v104
 BYTE   W03
 BYTE   W03
 BYTE   W02
 BYTE   W01
 BYTE   W01
 BYTE   W01
 BYTE   W08
 BYTE   W04
 BYTE   W04
 BYTE   W04
 BYTE   W01
 BYTE   N07  Gn2
 BYTE   W03
 BYTE   W05
 BYTE   Fn2
 BYTE   W04
 BYTE   W04
 BYTE   N23  Gn2  v124
 BYTE   W04
 BYTE   W04
 BYTE   W04
 BYTE   W04
 BYTE   W04
 BYTE   W01
 BYTE   W02
 BYTE   W01
 BYTE   Ds2  v104
 BYTE   W02
 BYTE   W01
 BYTE   W01
 BYTE   W03
 BYTE   W03
 BYTE   W03
 BYTE   W03
 BYTE   W03
 BYTE   W03
 BYTE   W02
 BYTE   PEND 
//  #08 //002   ----------------------------------------
Label_010171D4:
 BYTE   N23  Cn2  v104
 BYTE   W01
 BYTE   W03
 BYTE   W01
 BYTE   W01
 BYTE   W01
 BYTE   W01
 BYTE   W01
 BYTE   W01
 BYTE   W01
 BYTE   W01
 BYTE   W02
 BYTE   W01
 BYTE   W02
 BYTE   W01
 BYTE   W02
 BYTE   W01
 BYTE   W02
 BYTE   W01
 BYTE   Fn2
 BYTE   W02
 BYTE   W01
 BYTE   W01
 BYTE   W13
 BYTE   W07
 BYTE   Gn2
 BYTE   W07
 BYTE   W07
 BYTE   W07
 BYTE   W02
 BYTE   W01
 BYTE   As2
 BYTE   W02
 BYTE   W01
 BYTE   W02
 BYTE   W02
 BYTE   W01
 BYTE   W02
 BYTE   W01
 BYTE   W02
 BYTE   W01
 BYTE   W02
 BYTE   W01
 BYTE   W02
 BYTE   W01
 BYTE   W02
 BYTE   W01
 BYTE   W01
 BYTE   PEND 
//  #08 //003   ----------------------------------------
Label_01017207:
 BYTE   N92  Cn3  v104
 BYTE   W03
 BYTE   W03
 BYTE   W01
 BYTE   W01
 BYTE   W02
 BYTE   W01
 BYTE   W02
 BYTE   W01
 BYTE   W02
 BYTE   W05
 BYTE   W05
 BYTE   W04
 BYTE   W05
 BYTE   W03
 BYTE   W03
 BYTE   W03
 BYTE   W03
 BYTE   W03
 BYTE   W03
 BYTE   W03
 BYTE   W02
 BYTE   W01
 BYTE   W02
 BYTE   W01
 BYTE   W02
 BYTE   W01
 BYTE   W02
 BYTE   W01
 BYTE   W02
 BYTE   W01
 BYTE   W02
 BYTE   W01
 BYTE   W02
 BYTE   W01
 BYTE   W01
 BYTE   W01
 BYTE   W02
 BYTE   W01
 BYTE   W02
 BYTE   W01
 BYTE   W02
 BYTE   W01
 BYTE   W02
 BYTE   W01
 BYTE   W02
 BYTE   W01
 BYTE   W02
 BYTE   PEND 
//  #08 //004   ----------------------------------------
Label_0101723A:
 BYTE   W03
 BYTE   W03
 BYTE   W03
 BYTE   W03
 BYTE   W03
 BYTE   W03
 BYTE   W03
 BYTE   W03
 BYTE   W03
 BYTE   W03
 BYTE   W02
 BYTE   W64
 BYTE   PEND 
//  #08 //005   ----------------------------------------
 BYTE   W96
//  #08 //006   ----------------------------------------
 BYTE   W96
//  #08 //007   ----------------------------------------
 BYTE   W96
//  #08 //008   ----------------------------------------
 BYTE   N23  Cn2  v104
 BYTE   W01
 BYTE   W02
 BYTE   W01
 BYTE   W02
 BYTE   W01
 BYTE   W01
 BYTE   W01
 BYTE   W02
 BYTE   W01
 BYTE   W02
 BYTE   W01
 BYTE   W02
 BYTE   W01
 BYTE   W02
 BYTE   W01
 BYTE   W02
 BYTE   W01
 BYTE   Fn2
 BYTE   W04
 BYTE   W04
 BYTE   W03
 BYTE   W04
 BYTE   W04
 BYTE   W04
 BYTE   W01
 BYTE   Gn2
 BYTE   W03
 BYTE   W04
 BYTE   W06
 BYTE   W04
 BYTE   W03
 BYTE   W04
 BYTE   As2
 BYTE   W01
 BYTE   W02
 BYTE   W01
 BYTE   W02
 BYTE   W01
 BYTE   W01
 BYTE   W02
 BYTE   W01
 BYTE   W02
 BYTE   W01
 BYTE   W02
 BYTE   W01
 BYTE   W02
 BYTE   W01
 BYTE   W02
 BYTE   W01
 BYTE   W01
//  #08 //009   ----------------------------------------
 BYTE   PATT
  POIN2 Label_010171A7
//  #08 //010   ----------------------------------------
 BYTE   PATT
  POIN2 Label_010171D4
//  #08 //011   ----------------------------------------
 BYTE   PATT
  POIN2 Label_01017207
//  #08 //012   ----------------------------------------
 BYTE   PATT
  POIN2 Label_0101723A
//  #08 //013   ----------------------------------------
 BYTE   W96
//  #08 //014   ----------------------------------------
 BYTE   W96
//  #08 //015   ----------------------------------------
 BYTE   W96
//  #08 //016   ----------------------------------------
 BYTE   W96
//  #08 //017   ----------------------------------------
 BYTE   W96
//  #08 //018   ----------------------------------------
 BYTE   W96
//  #08 //019   ----------------------------------------
 BYTE   W96
//  #08 //020   ----------------------------------------
 BYTE   W96
//  #08 //021   ----------------------------------------
 BYTE   W96
//  #08 //022   ----------------------------------------
 BYTE   W96
//  #08 //023   ----------------------------------------
 BYTE   W96
//  #08 //024   ----------------------------------------
 BYTE   W96
//  #08 //025   ----------------------------------------
 BYTE   W96
//  #08 //026   ----------------------------------------
 BYTE   W20
 BYTE   W76
//  #08 //027   ----------------------------------------
Label_010172A2:
 BYTE   N05  Gs2  v104
 BYTE   N05  En3
 BYTE   W06
 BYTE   Gs2
 BYTE   N05  En3
 BYTE   W06
 BYTE   N11  Gs2  v116
 BYTE   N11  En3
 BYTE   W12
 BYTE   Gs2  v052
 BYTE   N11  En3
 BYTE   W12
 BYTE   Gs2  v044
 BYTE   N11  En3  v040
 BYTE   W12
 BYTE   Gs2  v036
 BYTE   N11  En3
 BYTE   W48
 BYTE   PEND 
//  #08 //028   ----------------------------------------
 BYTE   W12
 BYTE   Fs2  v092
 BYTE   N11  Dn3
 BYTE   W12
 BYTE   Fs2  v040
 BYTE   N11  Dn3
 BYTE   W12
 BYTE   An2  v092
 BYTE   N11  Fs3
 BYTE   W12
 BYTE   An2  v040
 BYTE   N11  Fs3
 BYTE   W12
 BYTE   Bn2  v092
 BYTE   N11  Gs3
 BYTE   W12
 BYTE   Bn2  v040
 BYTE   N11  Gs3
 BYTE   W12
 BYTE   An2  v092
 BYTE   N11  Fs3
 BYTE   W12
//  #08 //029   ----------------------------------------
 BYTE   PATT
  POIN2 Label_010172A2
//  #08 //030   ----------------------------------------
 BYTE   W12
 BYTE   N11  Fs2  v092
 BYTE   N11  Dn3
 BYTE   W12
 BYTE   Fs2  v040
 BYTE   N11  Dn3
 BYTE   W12
 BYTE   An2  v092
 BYTE   N11  Fs3
 BYTE   W12
 BYTE   An2  v040
 BYTE   N11  Fs3
 BYTE   W12
 BYTE   Bn2  v092
 BYTE   N11  Gs3
 BYTE   W12
 BYTE   Bn2  v040
 BYTE   N11  Gs3
 BYTE   W12
 BYTE   Fs2  v092
 BYTE   N11  En3
 BYTE   W12
//  #08 //031   ----------------------------------------
 BYTE   Gn2  v120
 BYTE   N11  Fn3  v116
 BYTE   W12
 BYTE   N05  Gn2  v080
 BYTE   N05  Fn3
 BYTE   W06
 BYTE   Gn2  v092
 BYTE   N05  Fn3
 BYTE   W06
 BYTE   N11  Gn2  v104
 BYTE   N11  Fn3
 BYTE   W12
 BYTE   N05  Gn2  v080
 BYTE   N05  Fn3
 BYTE   W06
 BYTE   Gn2  v092
 BYTE   N05  Fn3
 BYTE   W06
 BYTE   N11  Gn2  v104
 BYTE   N11  Fn3
 BYTE   W12
 BYTE   N05  Gn2  v080
 BYTE   N05  Fn3
 BYTE   W06
 BYTE   Gn2  v092
 BYTE   N05  Fn3
 BYTE   W06
 BYTE   N11  Gn2  v104
 BYTE   N11  Fn3
 BYTE   W12
 BYTE   N05  Gn2  v080
 BYTE   N05  Fn3
 BYTE   W06
 BYTE   Gn2  v092
 BYTE   N05  Fn3
 BYTE   W06
//  #08 //032   ----------------------------------------
 BYTE   N11  Gn2  v120
 BYTE   N11  En3  v116
 BYTE   W12
 BYTE   N05  Gn2  v080
 BYTE   N05  En3
 BYTE   W06
 BYTE   Gn2  v092
 BYTE   N05  En3
 BYTE   W06
 BYTE   N11  Gn2  v104
 BYTE   N11  En3
 BYTE   W12
 BYTE   N05  Gn2  v080
 BYTE   N05  En3
 BYTE   W06
 BYTE   Gn2  v092
 BYTE   N05  En3
 BYTE   W06
 BYTE   N11  Gn2  v104
 BYTE   N11  En3
 BYTE   W12
 BYTE   N05  Gn2  v080
 BYTE   N05  En3
 BYTE   W06
 BYTE   Gn2  v092
 BYTE   N05  En3
 BYTE   W06
 BYTE   N11  Gn2  v104
 BYTE   N11  En3
 BYTE   W12
 BYTE   N05  Gn2  v080
 BYTE   N05  En3
 BYTE   W06
 BYTE   Gn2  v092
 BYTE   N05  En3
 BYTE   W06
//  #08 //033   ----------------------------------------
 BYTE   GoTo
  POIN2 Label_0101716A
 BYTE   FINE

//**************** Track 9 (Midi-Chn.8) ****************//

Liberation_009:
//  #09 //000   ----------------------------------------
 BYTE   KEYSH   Liberation_key+0
Label_01015946:
 BYTE   VOICE   41
 BYTE   VOL   36*Liberation_mvl/mxv
 BYTE   PAN   c_v+49
 BYTE   BEND   c_v+0
 BYTE   W09
 BYTE   N23  Cn2  v072
 BYTE   W01
 BYTE   W02
 BYTE   W01
 BYTE   W02
 BYTE   W01
 BYTE   W01
 BYTE   W01
 BYTE   W02
 BYTE   W01
 BYTE   W02
 BYTE   W01
 BYTE   W02
 BYTE   W01
 BYTE   W02
 BYTE   W01
 BYTE   W02
 BYTE   W01
 BYTE   Fn2
 BYTE   W04
 BYTE   W04
 BYTE   W03
 BYTE   W04
 BYTE   W04
 BYTE   W04
 BYTE   W01
 BYTE   Gn2
 BYTE   W03
 BYTE   W04
 BYTE   W06
 BYTE   W04
 BYTE   W03
 BYTE   W04
 BYTE   As2
 BYTE   W01
 BYTE   W02
 BYTE   W01
 BYTE   W02
 BYTE   W01
 BYTE   W01
 BYTE   W02
 BYTE   W01
 BYTE   W02
 BYTE   W01
 BYTE   W01
//  #09 //001   ----------------------------------------
Label_0101597E:
 BYTE   W01
 BYTE   W01
 BYTE   W02
 BYTE   W01
 BYTE   W02
 BYTE   W01
 BYTE   W01
 BYTE   N30  An2  v072
 BYTE   W03
 BYTE   W03
 BYTE   W02
 BYTE   W01
 BYTE   W01
 BYTE   W01
 BYTE   W08
 BYTE   W04
 BYTE   W04
 BYTE   W04
 BYTE   W01
 BYTE   N07  Gn2
 BYTE   W03
 BYTE   W05
 BYTE   Fn2
 BYTE   W04
 BYTE   W04
 BYTE   N23  Gn2  v088
 BYTE   W04
 BYTE   W04
 BYTE   W04
 BYTE   W04
 BYTE   W04
 BYTE   W01
 BYTE   W02
 BYTE   W01
 BYTE   Ds2  v072
 BYTE   W02
 BYTE   W01
 BYTE   W01
 BYTE   W03
 BYTE   W03
 BYTE   W03
 BYTE   W02
 BYTE   PEND 
//  #09 //002   ----------------------------------------
Label_010159AF:
 BYTE   W01
 BYTE   W03
 BYTE   W03
 BYTE   W02
 BYTE   N23  Cn2  v072
 BYTE   W01
 BYTE   W03
 BYTE   W01
 BYTE   W01
 BYTE   W01
 BYTE   W01
 BYTE   W01
 BYTE   W01
 BYTE   W01
 BYTE   W01
 BYTE   W02
 BYTE   W01
 BYTE   W02
 BYTE   W01
 BYTE   W02
 BYTE   W01
 BYTE   W02
 BYTE   W01
 BYTE   Fn2
 BYTE   W02
 BYTE   W01
 BYTE   W01
 BYTE   W13
 BYTE   W07
 BYTE   Gn2
 BYTE   W07
 BYTE   W07
 BYTE   W07
 BYTE   W02
 BYTE   W01
 BYTE   As2
 BYTE   W02
 BYTE   W01
 BYTE   W02
 BYTE   W02
 BYTE   W01
 BYTE   W02
 BYTE   W01
 BYTE   W02
 BYTE   W01
 BYTE   W01
 BYTE   PEND 
//  #09 //003   ----------------------------------------
Label_010159E0:
 BYTE   W01
 BYTE   W01
 BYTE   W02
 BYTE   W01
 BYTE   W02
 BYTE   W01
 BYTE   W01
 BYTE   N92  Cn3  v072
 BYTE   W03
 BYTE   W03
 BYTE   W01
 BYTE   W01
 BYTE   W02
 BYTE   W01
 BYTE   W02
 BYTE   W01
 BYTE   W02
 BYTE   W05
 BYTE   W05
 BYTE   W04
 BYTE   W05
 BYTE   W03
 BYTE   W03
 BYTE   W03
 BYTE   W03
 BYTE   W03
 BYTE   W03
 BYTE   W03
 BYTE   W02
 BYTE   W01
 BYTE   W02
 BYTE   W01
 BYTE   W02
 BYTE   W01
 BYTE   W02
 BYTE   W01
 BYTE   W02
 BYTE   W01
 BYTE   W02
 BYTE   W01
 BYTE   W02
 BYTE   W01
 BYTE   W01
 BYTE   W01
 BYTE   W02
 BYTE   W01
 BYTE   W02
 BYTE   W01
 BYTE   W02
 BYTE   PEND 
//  #09 //004   ----------------------------------------
Label_01015A14:
 BYTE   W01
 BYTE   W02
 BYTE   W01
 BYTE   W02
 BYTE   W01
 BYTE   W02
 BYTE   W03
 BYTE   W03
 BYTE   W03
 BYTE   W03
 BYTE   W03
 BYTE   W03
 BYTE   W03
 BYTE   W03
 BYTE   W03
 BYTE   W03
 BYTE   W02
 BYTE   W54
 BYTE   W01
 BYTE   PEND 
//  #09 //005   ----------------------------------------
 BYTE   W96
//  #09 //006   ----------------------------------------
 BYTE   W96
//  #09 //007   ----------------------------------------
 BYTE   W96
//  #09 //008   ----------------------------------------
 BYTE   W09
 BYTE   N23  Cn2  v072
 BYTE   W01
 BYTE   W02
 BYTE   W01
 BYTE   W02
 BYTE   W01
 BYTE   W01
 BYTE   W01
 BYTE   W02
 BYTE   W01
 BYTE   W02
 BYTE   W01
 BYTE   W02
 BYTE   W01
 BYTE   W02
 BYTE   W01
 BYTE   W02
 BYTE   W01
 BYTE   Fn2
 BYTE   W04
 BYTE   W04
 BYTE   W03
 BYTE   W04
 BYTE   W04
 BYTE   W04
 BYTE   W01
 BYTE   Gn2
 BYTE   W03
 BYTE   W04
 BYTE   W06
 BYTE   W04
 BYTE   W03
 BYTE   W04
 BYTE   As2
 BYTE   W01
 BYTE   W02
 BYTE   W01
 BYTE   W02
 BYTE   W01
 BYTE   W01
 BYTE   W02
 BYTE   W01
 BYTE   W02
 BYTE   W01
 BYTE   W01
//  #09 //009   ----------------------------------------
 BYTE   PATT
  POIN2 Label_0101597E
//  #09 //010   ----------------------------------------
 BYTE   PATT
  POIN2 Label_010159AF
//  #09 //011   ----------------------------------------
 BYTE   PATT
  POIN2 Label_010159E0
//  #09 //012   ----------------------------------------
 BYTE   PATT
  POIN2 Label_01015A14
//  #09 //013   ----------------------------------------
 BYTE   W96
//  #09 //014   ----------------------------------------
 BYTE   W96
//  #09 //015   ----------------------------------------
 BYTE   W96
//  #09 //016   ----------------------------------------
 BYTE   W96
//  #09 //017   ----------------------------------------
 BYTE   W96
//  #09 //018   ----------------------------------------
 BYTE   W96
//  #09 //019   ----------------------------------------
 BYTE   W96
//  #09 //020   ----------------------------------------
 BYTE   W96
//  #09 //021   ----------------------------------------
 BYTE   W96
//  #09 //022   ----------------------------------------
 BYTE   W96
//  #09 //023   ----------------------------------------
 BYTE   W96
//  #09 //024   ----------------------------------------
 BYTE   W96
//  #09 //025   ----------------------------------------
 BYTE   W96
//  #09 //026   ----------------------------------------
 BYTE   W20
 BYTE   W76
//  #09 //027   ----------------------------------------
Label_01015A7E:
 BYTE   N05  Bn2  v104
 BYTE   W06
 BYTE   N05
 BYTE   W06
 BYTE   N11  Bn2  v116
 BYTE   W12
 BYTE   Bn2  v052
 BYTE   W12
 BYTE   Bn2  v044
 BYTE   W12
 BYTE   Bn2  v036
 BYTE   W48
 BYTE   PEND 
//  #09 //028   ----------------------------------------
 BYTE   W12
 BYTE   An2  v092
 BYTE   W12
 BYTE   An2  v040
 BYTE   W12
 BYTE   Dn3  v092
 BYTE   W12
 BYTE   Dn3  v040
 BYTE   W12
 BYTE   En3  v092
 BYTE   W12
 BYTE   En3  v040
 BYTE   W12
 BYTE   Dn3  v092
 BYTE   W12
//  #09 //029   ----------------------------------------
 BYTE   PATT
  POIN2 Label_01015A7E
//  #09 //030   ----------------------------------------
 BYTE   W12
 BYTE   N11  An2  v092
 BYTE   W12
 BYTE   An2  v040
 BYTE   W12
 BYTE   Dn3  v092
 BYTE   W12
 BYTE   Dn3  v040
 BYTE   W12
 BYTE   En3  v092
 BYTE   W12
 BYTE   En3  v040
 BYTE   W12
 BYTE   An2  v092
 BYTE   W12
//  #09 //031   ----------------------------------------
 BYTE   As2  v120
 BYTE   W12
 BYTE   N05  As2  v080
 BYTE   W06
 BYTE   As2  v092
 BYTE   W06
 BYTE   N11  As2  v104
 BYTE   W12
 BYTE   N05  As2  v080
 BYTE   W06
 BYTE   As2  v092
 BYTE   W06
 BYTE   N11  As2  v104
 BYTE   W12
 BYTE   N05  As2  v080
 BYTE   W06
 BYTE   As2  v092
 BYTE   W06
 BYTE   N11  As2  v104
 BYTE   W12
 BYTE   N05  As2  v080
 BYTE   W06
 BYTE   As2  v092
 BYTE   W06
//  #09 //032   ----------------------------------------
 BYTE   N11  As2  v120
 BYTE   W24
 BYTE   As2  v104
 BYTE   W24
 BYTE   N11
 BYTE   W24
 BYTE   N11
 BYTE   W24
//  #09 //033   ----------------------------------------
 BYTE   GoTo
  POIN2 Label_01015946
 BYTE   FINE

//**************** Track 10 (Midi-Chn.9) ****************//

Liberation_010:
//  #10 //000   ----------------------------------------
 BYTE   KEYSH   Liberation_key+0
Label_0101653E:
 BYTE   VOICE   34
 BYTE   VOL   29*Liberation_mvl/mxv
 BYTE   PAN   c_v+0
 BYTE   BEND   c_v+0
 BYTE   N10  Fn0  v104
 BYTE   W12
 BYTE   Fn0  v116
 BYTE   W24
 BYTE   Fn0  v104
 BYTE   W24
 BYTE   N14
 BYTE   W24
 BYTE   N05  Cn1
 BYTE   W06
 BYTE   Fn1
 BYTE   W06
//  #10 //001   ----------------------------------------
Label_01016557:
 BYTE   W06
 BYTE   N01  Cn1  v104
 BYTE   W06
 BYTE   N10  Fn0
 BYTE   W12
 BYTE   Fn0  v116
 BYTE   W18
 BYTE   N05  Fn0  v104
 BYTE   W06
 BYTE   As0
 BYTE   W06
 BYTE   Cn1
 BYTE   W06
 BYTE   N14  Fn0
 BYTE   W24
 BYTE   N10  Ds0
 BYTE   W12
 BYTE   PEND 
//  #10 //002   ----------------------------------------
Label_01016571:
 BYTE   N10  Fn0  v104
 BYTE   W12
 BYTE   Fn0  v116
 BYTE   W24
 BYTE   Fn0  v104
 BYTE   W24
 BYTE   N14
 BYTE   W24
 BYTE   N05  Cn1
 BYTE   W06
 BYTE   Fn1
 BYTE   W06
 BYTE   PEND 
//  #10 //003   ----------------------------------------
Label_01016583:
 BYTE   W06
 BYTE   N01  Cn1  v104
 BYTE   W06
 BYTE   N10  Fn0
 BYTE   W12
 BYTE   Fn0  v116
 BYTE   W18
 BYTE   N05  Fn0  v104
 BYTE   W06
 BYTE   As0
 BYTE   W06
 BYTE   Cn1
 BYTE   W06
 BYTE   N11  Fn0
 BYTE   W12
 BYTE   N06  Fn1
 BYTE   W08
 BYTE   En1
 BYTE   W08
 BYTE   Ds1
 BYTE   W08
 BYTE   PEND 
//  #10 //004   ----------------------------------------
Label_010165A1:
 BYTE   W24
 BYTE   N22  Cs1  v124
 BYTE   W24
 BYTE   N06  Cn1
 BYTE   W08
 BYTE   Cn1  v096
 BYTE   W08
 BYTE   Cn1  v076
 BYTE   W08
 BYTE   N22  Cn1  v124
 BYTE   W24
 BYTE   PEND 
//  #10 //005   ----------------------------------------
Label_010165B4:
 BYTE   W24
 BYTE   N22  Cs0  v124
 BYTE   W24
 BYTE   N06  Cn0
 BYTE   W08
 BYTE   Cn0  v096
 BYTE   W08
 BYTE   Cn0  v076
 BYTE   W08
 BYTE   N22  Cn1  v124
 BYTE   W24
 BYTE   PEND 
//  #10 //006   ----------------------------------------
 BYTE   N30  Cs1
 BYTE   W36
 BYTE   N04  Cs1  v104
 BYTE   W06
 BYTE   N04
 BYTE   W06
 BYTE   N30  Cn1  v127
 BYTE   W36
 BYTE   N04  Cn1  v104
 BYTE   W06
 BYTE   Cn1  v108
 BYTE   W06
//  #10 //007   ----------------------------------------
 BYTE   N30  Cs1  v124
 BYTE   W36
 BYTE   N04  Gs0  v108
 BYTE   W06
 BYTE   N04
 BYTE   W06
 BYTE   N10  Ds0  v116
 BYTE   W12
 BYTE   N01  Ds0  v104
 BYTE   W06
 BYTE   N05
 BYTE   W06
 BYTE   As0
 BYTE   W06
 BYTE   Fn1
 BYTE   W06
 BYTE   Ds1
 BYTE   W06
 BYTE   Ds0
 BYTE   W06
//  #10 //008   ----------------------------------------
 BYTE   PATT
  POIN2 Label_01016571
//  #10 //009   ----------------------------------------
 BYTE   PATT
  POIN2 Label_01016557
//  #10 //010   ----------------------------------------
 BYTE   PATT
  POIN2 Label_01016571
//  #10 //011   ----------------------------------------
 BYTE   PATT
  POIN2 Label_01016583
//  #10 //012   ----------------------------------------
 BYTE   PATT
  POIN2 Label_010165A1
//  #10 //013   ----------------------------------------
 BYTE   PATT
  POIN2 Label_010165B4
//  #10 //014   ----------------------------------------
 BYTE   N22  As0  v116
 BYTE   W24
 BYTE   As0  v104
 BYTE   W24
 BYTE   An0  v116
 BYTE   W24
 BYTE   An0  v104
 BYTE   W24
//  #10 //015   ----------------------------------------
 BYTE   Gs0  v112
 BYTE   W24
 BYTE   Gs0  v104
 BYTE   W24
 BYTE   Gs0  v116
 BYTE   W24
 BYTE   Gs0  v104
 BYTE   W24
//  #10 //016   ----------------------------------------
 BYTE   N07  An0  v116
 BYTE   W08
 BYTE   An0  v072
 BYTE   W08
 BYTE   An0  v052
 BYTE   W08
 BYTE   An0  v116
 BYTE   W08
 BYTE   N07
 BYTE   W08
 BYTE   N07
 BYTE   W08
 BYTE   N07
 BYTE   W08
 BYTE   An0  v072
 BYTE   W08
 BYTE   An0  v052
 BYTE   W08
 BYTE   An0  v116
 BYTE   W08
 BYTE   N07
 BYTE   W08
 BYTE   N07
 BYTE   W08
//  #10 //017   ----------------------------------------
Label_0101664E:
 BYTE   N07  Gs0  v116
 BYTE   W08
 BYTE   Gs0  v072
 BYTE   W08
 BYTE   Gs0  v052
 BYTE   W08
 BYTE   Gs0  v116
 BYTE   W08
 BYTE   N07
 BYTE   W08
 BYTE   N07
 BYTE   W08
 BYTE   N07
 BYTE   W08
 BYTE   Gs0  v072
 BYTE   W08
 BYTE   Gs0  v052
 BYTE   W08
 BYTE   Gs0  v116
 BYTE   W08
 BYTE   N07
 BYTE   W08
 BYTE   N07
 BYTE   W08
 BYTE   PEND 
//  #10 //018   ----------------------------------------
 BYTE   Fs0
 BYTE   W08
 BYTE   Fs0  v072
 BYTE   W08
 BYTE   Fs0  v052
 BYTE   W08
 BYTE   Fs0  v116
 BYTE   W08
 BYTE   N07
 BYTE   W08
 BYTE   N07
 BYTE   W08
 BYTE   N07
 BYTE   W08
 BYTE   Fs0  v072
 BYTE   W08
 BYTE   Fs0  v052
 BYTE   W08
 BYTE   Fs0  v116
 BYTE   W08
 BYTE   N07
 BYTE   W08
 BYTE   N07
 BYTE   W08
//  #10 //019   ----------------------------------------
 BYTE   PATT
  POIN2 Label_0101664E
//  #10 //020   ----------------------------------------
Label_01016692:
 BYTE   N11  An0  v104
 BYTE   W12
 BYTE   N17  An0  v112
 BYTE   W24
 BYTE   N05  En0  v104
 BYTE   W06
 BYTE   An0
 BYTE   W12
 BYTE   N03
 BYTE   W06
 BYTE   N16
 BYTE   W18
 BYTE   N02  En1
 BYTE   W06
 BYTE   N10  An0
 BYTE   W12
 BYTE   PEND 
//  #10 //021   ----------------------------------------
 BYTE   N11  Gs0
 BYTE   W12
 BYTE   N17  Gs0  v112
 BYTE   W24
 BYTE   N05  En1  v104
 BYTE   W06
 BYTE   Gs0
 BYTE   W12
 BYTE   N03
 BYTE   W06
 BYTE   N10
 BYTE   W12
 BYTE   N05  Gs1
 BYTE   W06
 BYTE   Fs1
 BYTE   W06
 BYTE   Ds1
 BYTE   W06
 BYTE   Bn0
 BYTE   W06
//  #10 //022   ----------------------------------------
 BYTE   N11  Fs0
 BYTE   W12
 BYTE   N17  Fs0  v112
 BYTE   W24
 BYTE   N05  Fs0  v104
 BYTE   W06
 BYTE   N05
 BYTE   W06
 BYTE   N11  Gs0
 BYTE   W12
 BYTE   N17  Gs0  v112
 BYTE   W24
 BYTE   N05  Gs0  v104
 BYTE   W06
 BYTE   N05
 BYTE   W06
//  #10 //023   ----------------------------------------
 BYTE   PATT
  POIN2 Label_01016692
//  #10 //024   ----------------------------------------
 BYTE   N11  As0  v104
 BYTE   W12
 BYTE   N17  As0  v112
 BYTE   W24
 BYTE   N05  Fs0  v104
 BYTE   W06
 BYTE   As0
 BYTE   W12
 BYTE   N03
 BYTE   W06
 BYTE   N10
 BYTE   W12
 BYTE   N05
 BYTE   W08
 BYTE   N05
 BYTE   W08
 BYTE   N05
 BYTE   W08
//  #10 //025   ----------------------------------------
Label_010166FC:
 BYTE   N20  Bn0  v104
 BYTE   W24
 BYTE   N04
 BYTE   W08
 BYTE   N04
 BYTE   W08
 BYTE   N04
 BYTE   W08
 BYTE   N20
 BYTE   W24
 BYTE   N04
 BYTE   W08
 BYTE   N04
 BYTE   W08
 BYTE   N04
 BYTE   W08
 BYTE   PEND 
//  #10 //026   ----------------------------------------
 BYTE   PATT
  POIN2 Label_010166FC
//  #10 //027   ----------------------------------------
 BYTE   W96
//  #10 //028   ----------------------------------------
Label_01016715:
 BYTE   W12
 BYTE   N05  Bn0  v100
 BYTE   W06
 BYTE   Bn0  v064
 BYTE   W06
 BYTE   Bn0  v100
 BYTE   W06
 BYTE   Bn0  v064
 BYTE   W06
 BYTE   Bn0  v100
 BYTE   W06
 BYTE   Bn0  v064
 BYTE   W06
 BYTE   Bn0  v100
 BYTE   W06
 BYTE   Bn0  v064
 BYTE   W06
 BYTE   Bn0  v100
 BYTE   W06
 BYTE   Bn0  v064
 BYTE   W06
 BYTE   Bn0  v100
 BYTE   W06
 BYTE   Bn0  v064
 BYTE   W06
 BYTE   Bn0  v100
 BYTE   W06
 BYTE   Bn0  v064
 BYTE   W06
 BYTE   PEND 
//  #10 //029   ----------------------------------------
 BYTE   W96
//  #10 //030   ----------------------------------------
 BYTE   PATT
  POIN2 Label_01016715
//  #10 //031   ----------------------------------------
 BYTE   N23  Cn1  v104
 BYTE   W96
//  #10 //032   ----------------------------------------
 BYTE   N23
 BYTE   W24
 BYTE   N23
 BYTE   W24
 BYTE   N23
 BYTE   W24
 BYTE   N07
 BYTE   W08
 BYTE   N07
 BYTE   W08
 BYTE   N07
 BYTE   W08
//  #10 //033   ----------------------------------------
 BYTE   GoTo
  POIN2 Label_0101653E
 BYTE   FINE

//**************** Track 11 (Midi-Chn.10) ****************//

Liberation_011:
//  #11 //000   ----------------------------------------
 BYTE   KEYSH   Liberation_key+0
Label_01016BAE:
 BYTE   VOICE   121
 BYTE   VOL   38*Liberation_mvl/mxv
 BYTE   PAN   c_v+0
 BYTE   BEND   c_v+0
 BYTE   N05  Dn1  v084
 BYTE   N44  Cs2  v048
 BYTE   W06
 BYTE   N05  Dn1  v012
 BYTE   W06
 BYTE   En1  v104
 BYTE   W06
 BYTE   En1  v032
 BYTE   W06
 BYTE   En1  v012
 BYTE   W06
 BYTE   Dn1  v040
 BYTE   W06
 BYTE   En1  v064
 BYTE   W06
 BYTE   Dn1  v084
 BYTE   W06
 BYTE   En1  v048
 BYTE   W06
 BYTE   Dn1  v028
 BYTE   W06
 BYTE   Dn1  v068
 BYTE   W06
 BYTE   Dn1  v028
 BYTE   W06
 BYTE   En1  v076
 BYTE   W06
 BYTE   Dn1  v028
 BYTE   W06
 BYTE   N03  Dn1  v032
 BYTE   W04
 BYTE   En1  v044
 BYTE   W04
 BYTE   Dn1  v080
 BYTE   W04
//  #11 //001   ----------------------------------------
Label_01016BEF:
 BYTE   N05  En1  v036
 BYTE   W06
 BYTE   Dn1  v032
 BYTE   W06
 BYTE   Dn1  v084
 BYTE   W06
 BYTE   Dn1  v012
 BYTE   W06
 BYTE   En1  v104
 BYTE   W06
 BYTE   En1  v032
 BYTE   W06
 BYTE   En1  v064
 BYTE   W06
 BYTE   Dn1  v084
 BYTE   W06
 BYTE   En1  v076
 BYTE   W06
 BYTE   Dn1  v028
 BYTE   W06
 BYTE   N03  Dn1  v032
 BYTE   W04
 BYTE   En1  v044
 BYTE   W04
 BYTE   Dn1  v080
 BYTE   W04
 BYTE   N05  En1  v076
 BYTE   W06
 BYTE   Dn1  v036
 BYTE   W06
 BYTE   En1  v044
 BYTE   W06
 BYTE   Dn1  v092
 BYTE   W06
 BYTE   PEND 
//  #11 //002   ----------------------------------------
Label_01016C26:
 BYTE   N05  Dn1  v084
 BYTE   W06
 BYTE   Dn1  v012
 BYTE   W06
 BYTE   En1  v104
 BYTE   W06
 BYTE   En1  v032
 BYTE   W06
 BYTE   En1  v012
 BYTE   W06
 BYTE   Dn1  v040
 BYTE   W06
 BYTE   En1  v064
 BYTE   W06
 BYTE   Dn1  v084
 BYTE   W06
 BYTE   En1  v048
 BYTE   W06
 BYTE   Dn1  v028
 BYTE   W06
 BYTE   Dn1  v068
 BYTE   W06
 BYTE   Dn1  v028
 BYTE   W06
 BYTE   En1  v076
 BYTE   W06
 BYTE   Dn1  v028
 BYTE   W06
 BYTE   N03  Dn1  v032
 BYTE   W04
 BYTE   En1  v044
 BYTE   W04
 BYTE   Dn1  v080
 BYTE   W04
 BYTE   PEND 
//  #11 //003   ----------------------------------------
Label_01016C5C:
 BYTE   N05  En1  v036
 BYTE   W06
 BYTE   Dn1  v032
 BYTE   W06
 BYTE   Dn1  v084
 BYTE   W06
 BYTE   Dn1  v012
 BYTE   W06
 BYTE   En1  v104
 BYTE   W06
 BYTE   En1  v032
 BYTE   W06
 BYTE   En1  v064
 BYTE   W06
 BYTE   Dn1  v084
 BYTE   W06
 BYTE   En1  v076
 BYTE   W06
 BYTE   Dn1  v028
 BYTE   W06
 BYTE   N03  Dn1  v032
 BYTE   W04
 BYTE   En1  v044
 BYTE   W04
 BYTE   Dn1  v080
 BYTE   W04
 BYTE   N05  En1  v076
 BYTE   W08
 BYTE   Dn1  v092
 BYTE   W08
 BYTE   En1  v100
 BYTE   W08
 BYTE   PEND 
//  #11 //004   ----------------------------------------
 BYTE   Dn1  v084
 BYTE   N44  Cs2  v068
 BYTE   W06
 BYTE   N05  Dn1  v036
 BYTE   W06
 BYTE   Dn1  v024
 BYTE   W12
 BYTE   Dn1  v088
 BYTE   W08
 BYTE   En1  v084
 BYTE   W08
 BYTE   Dn1
 BYTE   W08
 BYTE   En1  v076
 BYTE   W06
 BYTE   Dn1  v032
 BYTE   W06
 BYTE   Dn1  v084
 BYTE   W06
 BYTE   Dn1  v012
 BYTE   W06
 BYTE   N03  Dn1  v032
 BYTE   W04
 BYTE   En1  v044
 BYTE   W04
 BYTE   Dn1  v056
 BYTE   W04
 BYTE   N03
 BYTE   W04
 BYTE   En1  v076
 BYTE   W04
 BYTE   Dn1  v084
 BYTE   W04
//  #11 //005   ----------------------------------------
 BYTE   N05  En1  v036
 BYTE   N44  En2  v068
 BYTE   W06
 BYTE   N05  Dn1  v032
 BYTE   W06
 BYTE   Dn1  v084
 BYTE   W06
 BYTE   Dn1  v012
 BYTE   W06
 BYTE   En1  v104
 BYTE   W08
 BYTE   En1  v064
 BYTE   W08
 BYTE   Dn1  v084
 BYTE   W08
 BYTE   En1  v076
 BYTE   W06
 BYTE   Dn1  v028
 BYTE   W06
 BYTE   N03  Dn1  v032
 BYTE   W04
 BYTE   En1  v044
 BYTE   W04
 BYTE   Dn1  v080
 BYTE   W04
 BYTE   N05  En1  v092
 BYTE   W06
 BYTE   Dn1  v036
 BYTE   W06
 BYTE   En1  v044
 BYTE   W06
 BYTE   Dn1  v092
 BYTE   W06
//  #11 //006   ----------------------------------------
 BYTE   PATT
  POIN2 Label_01016C26
//  #11 //007   ----------------------------------------
 BYTE   N05  En1  v036
 BYTE   W06
 BYTE   Dn1  v032
 BYTE   W06
 BYTE   Dn1  v084
 BYTE   W06
 BYTE   Dn1  v012
 BYTE   W06
 BYTE   En1  v104
 BYTE   W06
 BYTE   En1  v032
 BYTE   W06
 BYTE   En1  v064
 BYTE   W06
 BYTE   Dn1  v084
 BYTE   W06
 BYTE   En1  v076
 BYTE   W06
 BYTE   Dn1  v028
 BYTE   W06
 BYTE   Dn1  v020
 BYTE   W06
 BYTE   En1  v096
 BYTE   W06
 BYTE   En1  v028
 BYTE   W06
 BYTE   Dn1  v096
 BYTE   W06
 BYTE   En1  v112
 BYTE   W06
 BYTE   Dn1  v036
 BYTE   W06
//  #11 //008   ----------------------------------------
 BYTE   Dn1  v084
 BYTE   N44  Cs2  v048
 BYTE   W06
 BYTE   N05  Dn1  v012
 BYTE   W06
 BYTE   En1  v104
 BYTE   W06
 BYTE   En1  v032
 BYTE   W06
 BYTE   En1  v012
 BYTE   W06
 BYTE   Dn1  v040
 BYTE   W06
 BYTE   En1  v064
 BYTE   W06
 BYTE   Dn1  v084
 BYTE   W06
 BYTE   En1  v048
 BYTE   W06
 BYTE   Dn1  v028
 BYTE   W06
 BYTE   Dn1  v068
 BYTE   W06
 BYTE   Dn1  v028
 BYTE   W06
 BYTE   En1  v076
 BYTE   W06
 BYTE   Dn1  v028
 BYTE   W06
 BYTE   N03  Dn1  v032
 BYTE   W04
 BYTE   En1  v044
 BYTE   W04
 BYTE   Dn1  v080
 BYTE   W04
//  #11 //009   ----------------------------------------
 BYTE   PATT
  POIN2 Label_01016BEF
//  #11 //010   ----------------------------------------
 BYTE   PATT
  POIN2 Label_01016C26
//  #11 //011   ----------------------------------------
 BYTE   PATT
  POIN2 Label_01016C5C
//  #11 //012   ----------------------------------------
 BYTE   N05  Dn1  v084
 BYTE   W06
 BYTE   Dn1  v036
 BYTE   W06
 BYTE   Dn1  v024
 BYTE   W12
 BYTE   Dn1  v088
 BYTE   W08
 BYTE   En1  v084
 BYTE   W08
 BYTE   Dn1
 BYTE   W08
 BYTE   En1  v076
 BYTE   W06
 BYTE   Dn1  v032
 BYTE   W06
 BYTE   Dn1  v084
 BYTE   W06
 BYTE   Dn1  v012
 BYTE   W06
 BYTE   N03  Dn1  v032
 BYTE   W04
 BYTE   En1  v044
 BYTE   W04
 BYTE   Dn1  v056
 BYTE   W04
 BYTE   N03
 BYTE   W04
 BYTE   En1  v076
 BYTE   W04
 BYTE   Dn1  v084
 BYTE   W04
//  #11 //013   ----------------------------------------
 BYTE   N05  En1  v036
 BYTE   W06
 BYTE   Dn1  v032
 BYTE   W06
 BYTE   Dn1  v084
 BYTE   W06
 BYTE   Dn1  v012
 BYTE   W06
 BYTE   En1  v104
 BYTE   W08
 BYTE   En1  v064
 BYTE   W08
 BYTE   Dn1  v084
 BYTE   W08
 BYTE   En1  v076
 BYTE   W06
 BYTE   Dn1  v028
 BYTE   W06
 BYTE   N03  Dn1  v032
 BYTE   W04
 BYTE   En1  v044
 BYTE   W04
 BYTE   Dn1  v080
 BYTE   W04
 BYTE   N05  En1  v092
 BYTE   W06
 BYTE   Dn1  v036
 BYTE   W06
 BYTE   En1  v044
 BYTE   W06
 BYTE   Dn1  v092
 BYTE   W06
//  #11 //014   ----------------------------------------
 BYTE   PATT
  POIN2 Label_01016C26
//  #11 //015   ----------------------------------------
 BYTE   N05  En1  v036
 BYTE   W06
 BYTE   Dn1  v032
 BYTE   W06
 BYTE   Dn1  v084
 BYTE   W06
 BYTE   Dn1  v012
 BYTE   W06
 BYTE   En1  v104
 BYTE   W06
 BYTE   En1  v032
 BYTE   W06
 BYTE   En1  v064
 BYTE   W06
 BYTE   Dn1  v084
 BYTE   W06
 BYTE   En1  v076
 BYTE   W06
 BYTE   Dn1  v028
 BYTE   W06
 BYTE   Dn1  v020
 BYTE   W06
 BYTE   En1  v096
 BYTE   W06
 BYTE   En1  v028
 BYTE   W06
 BYTE   Dn1  v096
 BYTE   W03
 BYTE   N02  Cs2  v008
 BYTE   W03
 BYTE   N05  En1  v112
 BYTE   N02  Cs2  v024
 BYTE   W03
 BYTE   Cs2  v032
 BYTE   W03
 BYTE   N05  Dn1  v036
 BYTE   N02  Cs2  v040
 BYTE   W03
 BYTE   Cs2  v056
 BYTE   W03
//  #11 //016   ----------------------------------------
 BYTE   N05  Dn1  v064
 BYTE   TIE  Cs2  v068
 BYTE   W01
 BYTE   N05  En1  v064
 BYTE   W23
 BYTE   Dn1
 BYTE   W01
 BYTE   En1
 BYTE   W07
 BYTE   Dn1  v048
 BYTE   W01
 BYTE   En1
 BYTE   W07
 BYTE   Dn1  v040
 BYTE   W01
 BYTE   En1
 BYTE   W07
 BYTE   Dn1  v064
 BYTE   W01
 BYTE   En1
 BYTE   W23
 BYTE   Dn1
 BYTE   W01
 BYTE   En1
 BYTE   W07
 BYTE   Dn1  v048
 BYTE   W01
 BYTE   En1
 BYTE   W07
 BYTE   Dn1  v040
 BYTE   W01
 BYTE   En1
 BYTE   W07
//  #11 //017   ----------------------------------------
 BYTE   Dn1  v064
 BYTE   W01
 BYTE   En1
 BYTE   W23
 BYTE   Dn1
 BYTE   W01
 BYTE   En1
 BYTE   W07
 BYTE   Dn1  v048
 BYTE   W01
 BYTE   En1
 BYTE   W07
 BYTE   EOT
 BYTE   Cs2
 BYTE   N05  Dn1  v040
 BYTE   W01
 BYTE   En1
 BYTE   W07
 BYTE   Dn1  v064
 BYTE   W01
 BYTE   En1
 BYTE   W23
 BYTE   Dn1
 BYTE   W01
 BYTE   En1
 BYTE   W07
 BYTE   Dn1  v048
 BYTE   W01
 BYTE   En1
 BYTE   W07
 BYTE   Dn1  v040
 BYTE   W01
 BYTE   En1
 BYTE   W07
//  #11 //018   ----------------------------------------
Label_01016E77:
 BYTE   N05  Dn1  v064
 BYTE   W01
 BYTE   En1
 BYTE   W23
 BYTE   Dn1
 BYTE   W01
 BYTE   En1
 BYTE   W07
 BYTE   Dn1  v048
 BYTE   W01
 BYTE   En1
 BYTE   W07
 BYTE   Dn1  v040
 BYTE   W01
 BYTE   En1
 BYTE   W07
 BYTE   Dn1  v064
 BYTE   W01
 BYTE   En1
 BYTE   W23
 BYTE   Dn1
 BYTE   W01
 BYTE   En1
 BYTE   W07
 BYTE   Dn1  v048
 BYTE   W01
 BYTE   En1
 BYTE   W07
 BYTE   Dn1  v040
 BYTE   W01
 BYTE   En1
 BYTE   W07
 BYTE   PEND 
//  #11 //019   ----------------------------------------
 BYTE   PATT
  POIN2 Label_01016E77
//  #11 //020   ----------------------------------------
 BYTE   N05  Dn1  v084
 BYTE   N44  En2  v060
 BYTE   W06
 BYTE   N05  En1  v088
 BYTE   W06
 BYTE   Dn1  v104
 BYTE   W06
 BYTE   En1  v032
 BYTE   W06
 BYTE   N02  Dn1  v076
 BYTE   W03
 BYTE   En1  v064
 BYTE   W03
 BYTE   Dn1  v060
 BYTE   W03
 BYTE   En1  v052
 BYTE   W03
 BYTE   N05  En1  v064
 BYTE   W06
 BYTE   Dn1  v084
 BYTE   W06
 BYTE   En1  v048
 BYTE   W06
 BYTE   Dn1  v028
 BYTE   W06
 BYTE   Dn1  v068
 BYTE   W06
 BYTE   Dn1  v028
 BYTE   W06
 BYTE   En1  v076
 BYTE   W06
 BYTE   En1  v032
 BYTE   W06
 BYTE   Dn1  v072
 BYTE   W06
 BYTE   En1
 BYTE   W06
//  #11 //021   ----------------------------------------
 BYTE   En1  v036
 BYTE   W06
 BYTE   Dn1  v032
 BYTE   W06
 BYTE   Dn1  v084
 BYTE   W06
 BYTE   Dn1  v012
 BYTE   W06
 BYTE   En1  v104
 BYTE   W06
 BYTE   En1  v032
 BYTE   W06
 BYTE   En1  v064
 BYTE   W06
 BYTE   Dn1  v084
 BYTE   W06
 BYTE   En1  v076
 BYTE   W06
 BYTE   Dn1  v028
 BYTE   W06
 BYTE   N03  Dn1  v032
 BYTE   W04
 BYTE   En1  v044
 BYTE   W04
 BYTE   Dn1  v080
 BYTE   W04
 BYTE   N05  En1  v092
 BYTE   W06
 BYTE   Dn1  v052
 BYTE   W06
 BYTE   En1  v084
 BYTE   W06
 BYTE   Dn1
 BYTE   W06
//  #11 //022   ----------------------------------------
 BYTE   En1  v072
 BYTE   W06
 BYTE   Dn1  v088
 BYTE   W06
 BYTE   Dn1  v048
 BYTE   W06
 BYTE   En1  v052
 BYTE   W06
 BYTE   Dn1  v032
 BYTE   W06
 BYTE   En1  v048
 BYTE   W06
 BYTE   Dn1  v080
 BYTE   W06
 BYTE   En1  v016
 BYTE   W06
 BYTE   Dn1  v044
 BYTE   W06
 BYTE   En1  v108
 BYTE   W06
 BYTE   Dn1  v080
 BYTE   W06
 BYTE   En1  v036
 BYTE   W06
 BYTE   En1  v076
 BYTE   W06
 BYTE   Dn1  v036
 BYTE   W06
 BYTE   En1  v044
 BYTE   W06
 BYTE   Dn1  v092
 BYTE   W06
//  #11 //023   ----------------------------------------
 BYTE   En1  v096
 BYTE   W06
 BYTE   Dn1
 BYTE   W06
 BYTE   En1
 BYTE   W06
 BYTE   Dn1  v040
 BYTE   W06
 BYTE   En1  v100
 BYTE   W06
 BYTE   Dn1  v060
 BYTE   W06
 BYTE   En1  v040
 BYTE   W06
 BYTE   Dn1
 BYTE   W06
 BYTE   En1  v088
 BYTE   W06
 BYTE   Dn1
 BYTE   W06
 BYTE   En1  v052
 BYTE   W06
 BYTE   Dn1  v048
 BYTE   W06
 BYTE   N02  En1  v028
 BYTE   W04
 BYTE   Dn1  v044
 BYTE   W04
 BYTE   En1  v056
 BYTE   W04
 BYTE   Dn1  v060
 BYTE   W04
 BYTE   En1  v064
 BYTE   W04
 BYTE   Dn1  v080
 BYTE   W04
//  #11 //024   ----------------------------------------
 BYTE   N05  Dn1  v084
 BYTE   W06
 BYTE   En1  v088
 BYTE   W06
 BYTE   Dn1  v104
 BYTE   W06
 BYTE   En1  v032
 BYTE   W06
 BYTE   N02  Dn1  v044
 BYTE   W03
 BYTE   En1
 BYTE   W03
 BYTE   Dn1
 BYTE   W03
 BYTE   En1
 BYTE   W03
 BYTE   N05  En1  v064
 BYTE   W06
 BYTE   Dn1  v084
 BYTE   W06
 BYTE   En1  v048
 BYTE   W06
 BYTE   Dn1  v028
 BYTE   W06
 BYTE   Dn1  v068
 BYTE   W06
 BYTE   Dn1  v028
 BYTE   W06
 BYTE   En1  v076
 BYTE   W08
 BYTE   Dn1  v084
 BYTE   W08
 BYTE   En1  v108
 BYTE   W08
//  #11 //025   ----------------------------------------
 BYTE   N07  En1  v100
 BYTE   W08
 BYTE   Dn1  v052
 BYTE   W08
 BYTE   En1  v040
 BYTE   W08
 BYTE   Dn1  v088
 BYTE   W08
 BYTE   En1  v076
 BYTE   W08
 BYTE   Dn1  v092
 BYTE   W08
 BYTE   En1  v100
 BYTE   W08
 BYTE   Dn1  v052
 BYTE   W08
 BYTE   En1  v040
 BYTE   W08
 BYTE   Dn1  v088
 BYTE   W08
 BYTE   En1  v076
 BYTE   W08
 BYTE   Dn1  v092
 BYTE   W08
//  #11 //026   ----------------------------------------
 BYTE   En1  v100
 BYTE   W08
 BYTE   Dn1  v052
 BYTE   W08
 BYTE   En1  v040
 BYTE   W08
 BYTE   Dn1  v088
 BYTE   W08
 BYTE   En1  v076
 BYTE   W08
 BYTE   Dn1  v092
 BYTE   W08
 BYTE   En1  v100
 BYTE   W08
 BYTE   Dn1  v052
 BYTE   W08
 BYTE   En1  v040
 BYTE   W08
 BYTE   N02  En1  v028
 BYTE   W04
 BYTE   Dn1  v044
 BYTE   W04
 BYTE   En1  v056
 BYTE   W04
 BYTE   Dn1  v060
 BYTE   W04
 BYTE   En1  v064
 BYTE   W04
 BYTE   Dn1  v080
 BYTE   W04
//  #11 //027   ----------------------------------------
Label_01016FFD:
 BYTE   N05  Dn1  v084
 BYTE   W06
 BYTE   En1  v088
 BYTE   W06
 BYTE   Dn1  v116
 BYTE   N19  An2  v056
 BYTE   W06
 BYTE   N05  En1  v032
 BYTE   W06
 BYTE   En1  v076
 BYTE   W06
 BYTE   Dn1  v048
 BYTE   W06
 BYTE   En1  v068
 BYTE   N19  An2  v040
 BYTE   W06
 BYTE   N05  Dn1
 BYTE   W06
 BYTE   En1  v032
 BYTE   W06
 BYTE   Dn1  v024
 BYTE   W06
 BYTE   Dn1  v068
 BYTE   N19  An2  v052
 BYTE   W06
 BYTE   N05  Dn1  v028
 BYTE   W06
 BYTE   N02  En1  v072
 BYTE   W03
 BYTE   Dn1  v044
 BYTE   W03
 BYTE   En1
 BYTE   W03
 BYTE   Dn1
 BYTE   W03
 BYTE   N05  En1  v076
 BYTE   N19  An2  v028
 BYTE   W06
 BYTE   N05  Dn1  v080
 BYTE   W06
 BYTE   PEND 
//  #11 //028   ----------------------------------------
 BYTE   En1  v056
 BYTE   W06
 BYTE   Dn1  v032
 BYTE   W06
 BYTE   Dn1  v084
 BYTE   N19  An2  v056
 BYTE   W06
 BYTE   N05  Dn1  v012
 BYTE   W06
 BYTE   En1  v056
 BYTE   W06
 BYTE   Dn1  v032
 BYTE   W06
 BYTE   Dn1  v084
 BYTE   N19  An2  v040
 BYTE   W06
 BYTE   N05  Dn1  v012
 BYTE   W06
 BYTE   En1  v040
 BYTE   W06
 BYTE   Dn1  v092
 BYTE   W06
 BYTE   En1  v036
 BYTE   N19  An2  v052
 BYTE   W06
 BYTE   N05  Dn1  v044
 BYTE   W06
 BYTE   N02  En1  v076
 BYTE   W03
 BYTE   Dn1  v056
 BYTE   W03
 BYTE   En1
 BYTE   W03
 BYTE   Dn1
 BYTE   W03
 BYTE   N05  En1  v044
 BYTE   N19  An2  v028
 BYTE   W06
 BYTE   N05  Dn1  v092
 BYTE   W06
//  #11 //029   ----------------------------------------
 BYTE   PATT
  POIN2 Label_01016FFD
//  #11 //030   ----------------------------------------
 BYTE   N05  En1  v056
 BYTE   W06
 BYTE   Dn1  v032
 BYTE   W06
 BYTE   Dn1  v084
 BYTE   N19  An2  v056
 BYTE   W06
 BYTE   N05  Dn1  v012
 BYTE   W06
 BYTE   En1  v056
 BYTE   W06
 BYTE   Dn1  v032
 BYTE   W06
 BYTE   Dn1  v084
 BYTE   N19  An2  v040
 BYTE   W06
 BYTE   N05  Dn1  v012
 BYTE   W06
 BYTE   En1  v040
 BYTE   W06
 BYTE   Dn1  v092
 BYTE   W06
 BYTE   En1  v036
 BYTE   N19  An2  v052
 BYTE   W06
 BYTE   N05  Dn1  v044
 BYTE   W06
 BYTE   N02  En1  v076
 BYTE   W03
 BYTE   Dn1  v056
 BYTE   W03
 BYTE   En1
 BYTE   W03
 BYTE   Dn1
 BYTE   W03
 BYTE   N05  En1  v044
 BYTE   N11  An2  v028
 BYTE   W06
 BYTE   N05  Dn1  v092
 BYTE   W06
//  #11 //031   ----------------------------------------
 BYTE   Dn1  v104
 BYTE   N76  Cs2  v052
 BYTE   W06
 BYTE   N05  Dn1  v012
 BYTE   W06
 BYTE   En1  v080
 BYTE   W06
 BYTE   Dn1  v064
 BYTE   W06
 BYTE   En1  v012
 BYTE   W06
 BYTE   Dn1  v040
 BYTE   W06
 BYTE   En1  v064
 BYTE   W06
 BYTE   Dn1  v084
 BYTE   W06
 BYTE   En1  v048
 BYTE   W06
 BYTE   Dn1  v028
 BYTE   W06
 BYTE   Dn1  v068
 BYTE   W06
 BYTE   Dn1  v028
 BYTE   W06
 BYTE   En1  v076
 BYTE   W06
 BYTE   Dn1  v028
 BYTE   W06
 BYTE   N03  Dn1  v032
 BYTE   W04
 BYTE   En1  v044
 BYTE   W04
 BYTE   Dn1  v080
 BYTE   W04
//  #11 //032   ----------------------------------------
 BYTE   N05  En1  v036
 BYTE   N76  En2  v040
 BYTE   W06
 BYTE   N05  Dn1  v032
 BYTE   W06
 BYTE   Dn1  v084
 BYTE   W06
 BYTE   Dn1  v012
 BYTE   W06
 BYTE   En1  v104
 BYTE   W06
 BYTE   En1  v032
 BYTE   W06
 BYTE   En1  v064
 BYTE   W06
 BYTE   Dn1  v084
 BYTE   W06
 BYTE   En1  v076
 BYTE   W06
 BYTE   Dn1  v028
 BYTE   W06
 BYTE   N03  Dn1  v032
 BYTE   W04
 BYTE   En1  v044
 BYTE   W04
 BYTE   Dn1  v080
 BYTE   W04
 BYTE   N05  En1  v084
 BYTE   W08
 BYTE   Dn1  v096
 BYTE   W08
 BYTE   En1  v116
 BYTE   W08
//  #11 //033   ----------------------------------------
 BYTE   GoTo
  POIN2 Label_01016BAE
 BYTE   FINE

//**************** Track 12 (Midi-Chn.11) ****************//

Liberation_012:
//  #12 //000   ----------------------------------------
 BYTE   KEYSH   Liberation_key+0
Label_01014AF6:
 BYTE   VOICE   34
 BYTE   VOL   24*Liberation_mvl/mxv
 BYTE   PAN   c_v+0
 BYTE   BEND   c_v+0
 BYTE   N11  Fn1  v092
 BYTE   W12
 BYTE   Fn1  v112
 BYTE   W12
 BYTE   Fn1  v060
 BYTE   W12
 BYTE   Fn1  v052
 BYTE   W12
 BYTE   Fn1  v036
 BYTE   W12
 BYTE   Fn1  v080
 BYTE   W12
 BYTE   Fn1  v036
 BYTE   W12
 BYTE   Cn2  v096
 BYTE   W12
//  #12 //001   ----------------------------------------
Label_01014B17:
 BYTE   N11  Cn2  v052
 BYTE   W12
 BYTE   Fn1  v092
 BYTE   W12
 BYTE   Fn1  v112
 BYTE   W12
 BYTE   Fn1  v060
 BYTE   W12
 BYTE   Fn1  v052
 BYTE   W12
 BYTE   Fn1  v036
 BYTE   W12
 BYTE   N23  Ds3  v100
 BYTE   W24
 BYTE   PEND 
//  #12 //002   ----------------------------------------
Label_01014B2F:
 BYTE   N11  Fn1  v092
 BYTE   W12
 BYTE   Fn1  v112
 BYTE   W12
 BYTE   Fn1  v060
 BYTE   W12
 BYTE   Fn1  v052
 BYTE   W12
 BYTE   Fn1  v036
 BYTE   W12
 BYTE   Fn1  v080
 BYTE   W12
 BYTE   Fn1  v036
 BYTE   W12
 BYTE   Cn2  v096
 BYTE   W12
 BYTE   PEND 
//  #12 //003   ----------------------------------------
Label_01014B49:
 BYTE   N11  Cn2  v052
 BYTE   W12
 BYTE   Fn1  v092
 BYTE   W12
 BYTE   Fn1  v112
 BYTE   W12
 BYTE   Fn1  v060
 BYTE   W12
 BYTE   Fn1  v052
 BYTE   W12
 BYTE   Fn1  v080
 BYTE   W12
 BYTE   N07  Fn1  v104
 BYTE   W08
 BYTE   En1
 BYTE   W08
 BYTE   Ds1
 BYTE   W08
 BYTE   PEND 
//  #12 //004   ----------------------------------------
Label_01014B65:
 BYTE   W24
 BYTE   N23  Cs2  v116
 BYTE   W24
 BYTE   Cn2
 BYTE   W24
 BYTE   Cn4  v104
 BYTE   W24
 BYTE   PEND 
//  #12 //005   ----------------------------------------
 BYTE   PATT
  POIN2 Label_01014B65
//  #12 //006   ----------------------------------------
 BYTE   N23  Cs2  v104
 BYTE   W36
 BYTE   N05  Cs2  v060
 BYTE   W06
 BYTE   Cs2  v080
 BYTE   W06
 BYTE   N23  Cn2  v104
 BYTE   W36
 BYTE   N05  Cn2  v056
 BYTE   W06
 BYTE   Cn2  v072
 BYTE   W06
//  #12 //007   ----------------------------------------
 BYTE   N23  Cs2  v104
 BYTE   W24
 BYTE   Cs2  v056
 BYTE   W24
 BYTE   Cs2  v040
 BYTE   W24
 BYTE   N11  Ds1  v104
 BYTE   W12
 BYTE   N03  Ds1  v076
 BYTE   W04
 BYTE   Ds1  v092
 BYTE   W04
 BYTE   Ds1  v104
 BYTE   W04
//  #12 //008   ----------------------------------------
 BYTE   N11  Fn1  v108
 BYTE   W12
 BYTE   Fn1  v112
 BYTE   W12
 BYTE   Fn1  v060
 BYTE   W12
 BYTE   Fn1  v052
 BYTE   W12
 BYTE   Fn1  v036
 BYTE   W12
 BYTE   Fn1  v080
 BYTE   W12
 BYTE   Fn1  v036
 BYTE   W12
 BYTE   Cn2  v096
 BYTE   W12
//  #12 //009   ----------------------------------------
 BYTE   PATT
  POIN2 Label_01014B17
//  #12 //010   ----------------------------------------
 BYTE   PATT
  POIN2 Label_01014B2F
//  #12 //011   ----------------------------------------
 BYTE   PATT
  POIN2 Label_01014B49
//  #12 //012   ----------------------------------------
 BYTE   PATT
  POIN2 Label_01014B65
//  #12 //013   ----------------------------------------
 BYTE   PATT
  POIN2 Label_01014B65
//  #12 //014   ----------------------------------------
 BYTE   N23  As1  v072
 BYTE   W24
 BYTE   As3  v104
 BYTE   W24
 BYTE   An1  v072
 BYTE   W24
 BYTE   An3  v104
 BYTE   W24
//  #12 //015   ----------------------------------------
 BYTE   Gs1
 BYTE   W24
 BYTE   Gs1  v072
 BYTE   W24
 BYTE   N21  Gs1  v092
 BYTE   W24
 BYTE   Gs1  v076
 BYTE   W24
//  #12 //016   ----------------------------------------
 BYTE   W96
//  #12 //017   ----------------------------------------
 BYTE   W96
//  #12 //018   ----------------------------------------
 BYTE   W96
//  #12 //019   ----------------------------------------
 BYTE   W96
//  #12 //020   ----------------------------------------
 BYTE   N11  An1  v096
 BYTE   W12
 BYTE   An1  v112
 BYTE   W12
 BYTE   An1  v060
 BYTE   W12
 BYTE   An1  v052
 BYTE   W12
 BYTE   An1  v036
 BYTE   W12
 BYTE   An1  v080
 BYTE   W12
 BYTE   An1  v036
 BYTE   W24
//  #12 //021   ----------------------------------------
 BYTE   Gs1  v092
 BYTE   W12
 BYTE   Gs1  v112
 BYTE   W12
 BYTE   Gs1  v060
 BYTE   W12
 BYTE   Gs1  v052
 BYTE   W12
 BYTE   Gs1  v036
 BYTE   W12
 BYTE   Gs1  v080
 BYTE   W12
 BYTE   Gs1  v036
 BYTE   W24
//  #12 //022   ----------------------------------------
 BYTE   Fs1  v096
 BYTE   W12
 BYTE   Fs1  v112
 BYTE   W12
 BYTE   Fs1  v060
 BYTE   W12
 BYTE   Fs1  v052
 BYTE   W12
 BYTE   Gs1  v096
 BYTE   W12
 BYTE   Gs1  v112
 BYTE   W12
 BYTE   Gs1  v060
 BYTE   W12
 BYTE   Gs1  v052
 BYTE   W12
//  #12 //023   ----------------------------------------
 BYTE   An1  v092
 BYTE   W12
 BYTE   An1  v112
 BYTE   W12
 BYTE   An1  v060
 BYTE   W12
 BYTE   An1  v052
 BYTE   W12
 BYTE   An1  v036
 BYTE   W12
 BYTE   An1  v080
 BYTE   W12
 BYTE   An1  v036
 BYTE   W24
//  #12 //024   ----------------------------------------
 BYTE   As1  v092
 BYTE   W12
 BYTE   As1  v112
 BYTE   W12
 BYTE   As1  v060
 BYTE   W12
 BYTE   As1  v052
 BYTE   W12
 BYTE   As1  v036
 BYTE   W12
 BYTE   As1  v080
 BYTE   W12
 BYTE   N07
 BYTE   W08
 BYTE   As1  v096
 BYTE   W08
 BYTE   As1  v108
 BYTE   W08
//  #12 //025   ----------------------------------------
 BYTE   N23  Bn1  v116
 BYTE   W24
 BYTE   N07  Bn1  v056
 BYTE   W08
 BYTE   Bn1  v052
 BYTE   W08
 BYTE   Bn1  v064
 BYTE   W08
 BYTE   N23  Bn1  v084
 BYTE   W24
 BYTE   N07  Bn1  v044
 BYTE   W08
 BYTE   Bn1  v064
 BYTE   W08
 BYTE   Bn1  v076
 BYTE   W08
//  #12 //026   ----------------------------------------
 BYTE   N23  Bn1  v096
 BYTE   W24
 BYTE   N07  Bn1  v060
 BYTE   W08
 BYTE   Bn1  v076
 BYTE   W08
 BYTE   Bn1  v088
 BYTE   W08
 BYTE   N23  Bn1  v116
 BYTE   W24
 BYTE   Bn3  v104
 BYTE   W24
//  #12 //027   ----------------------------------------
Label_01014C95:
 BYTE   N11  En1  v104
 BYTE   W12
 BYTE   En1  v040
 BYTE   W12
 BYTE   En1  v060
 BYTE   W12
 BYTE   En1  v076
 BYTE   W12
 BYTE   N11
 BYTE   W12
 BYTE   En1  v084
 BYTE   W12
 BYTE   En1  v092
 BYTE   W12
 BYTE   En1  v100
 BYTE   W12
 BYTE   PEND 
//  #12 //028   ----------------------------------------
Label_01014CAE:
 BYTE   N11  En1  v127
 BYTE   W12
 BYTE   Bn1  v060
 BYTE   W12
 BYTE   Bn1  v052
 BYTE   W12
 BYTE   Bn1  v076
 BYTE   W12
 BYTE   Bn1  v064
 BYTE   W12
 BYTE   Bn1  v092
 BYTE   W12
 BYTE   Bn1  v072
 BYTE   W12
 BYTE   Bn1  v112
 BYTE   W12
 BYTE   PEND 
//  #12 //029   ----------------------------------------
 BYTE   PATT
  POIN2 Label_01014C95
//  #12 //030   ----------------------------------------
 BYTE   PATT
  POIN2 Label_01014CAE
//  #12 //031   ----------------------------------------
 BYTE   N23  Cn2  v116
 BYTE   W24
 BYTE   Cn2  v064
 BYTE   W24
 BYTE   Cn2  v048
 BYTE   W24
 BYTE   Cn2  v032
 BYTE   W24
//  #12 //032   ----------------------------------------
 BYTE   Cn2  v104
 BYTE   W24
 BYTE   Cn2  v084
 BYTE   W24
 BYTE   Cn2  v092
 BYTE   W24
 BYTE   N07  Cn2  v068
 BYTE   W08
 BYTE   Cn2  v084
 BYTE   W08
 BYTE   Cn2  v104
 BYTE   W08
//  #12 //033   ----------------------------------------
 BYTE   GoTo
  POIN2 Label_01014AF6
 BYTE   FINE

//**************** Track 13 (Midi-Chn.12) ****************//

Liberation_013:
//  #13 //000   ----------------------------------------
 BYTE   KEYSH   Liberation_key+0
Label_01014CFA:
 BYTE   VOICE   10
 BYTE   VOL   38*Liberation_mvl/mxv
 BYTE   PAN   c_v-32
 BYTE   BEND   c_v+0
 BYTE   W96
//  #13 //001   ----------------------------------------
 BYTE   W96
//  #13 //002   ----------------------------------------
 BYTE   W96
//  #13 //003   ----------------------------------------
 BYTE   W96
//  #13 //004   ----------------------------------------
 BYTE   W96
//  #13 //005   ----------------------------------------
 BYTE   W96
//  #13 //006   ----------------------------------------
 BYTE   W96
//  #13 //007   ----------------------------------------
 BYTE   W96
//  #13 //008   ----------------------------------------
 BYTE   W96
//  #13 //009   ----------------------------------------
 BYTE   W96
//  #13 //010   ----------------------------------------
 BYTE   W96
//  #13 //011   ----------------------------------------
 BYTE   W96
//  #13 //012   ----------------------------------------
 BYTE   W96
//  #13 //013   ----------------------------------------
 BYTE   W96
//  #13 //014   ----------------------------------------
 BYTE   W96
//  #13 //015   ----------------------------------------
 BYTE   W96
//  #13 //016   ----------------------------------------
 BYTE   N44  Ds4  v104
 BYTE   W03
 BYTE   W03
 BYTE   W03
 BYTE   W03
 BYTE   W03
 BYTE   W03
 BYTE   W03
 BYTE   W03
 BYTE   W03
 BYTE   W03
 BYTE   W03
 BYTE   W03
 BYTE   W03
 BYTE   W03
 BYTE   W03
 BYTE   W03
 BYTE   Cs4
 BYTE   W03
 BYTE   W03
 BYTE   W03
 BYTE   W03
 BYTE   W03
 BYTE   W03
 BYTE   W03
 BYTE   W03
 BYTE   W03
 BYTE   W03
 BYTE   W03
 BYTE   W03
 BYTE   W03
 BYTE   W03
 BYTE   W03
 BYTE   W01
 BYTE   W02
//  #13 //017   ----------------------------------------
 BYTE   En4
 BYTE   W01
 BYTE   W03
 BYTE   W03
 BYTE   W03
 BYTE   W03
 BYTE   W03
 BYTE   W03
 BYTE   W03
 BYTE   W03
 BYTE   W03
 BYTE   W03
 BYTE   W03
 BYTE   W03
 BYTE   W03
 BYTE   W03
 BYTE   W02
 BYTE   W03
 BYTE   Bn3
 BYTE   W03
 BYTE   W03
 BYTE   W03
 BYTE   W03
 BYTE   W03
 BYTE   W03
 BYTE   W03
 BYTE   W03
 BYTE   W03
 BYTE   W03
 BYTE   W03
 BYTE   W03
 BYTE   W03
 BYTE   W03
 BYTE   W03
 BYTE   W03
//  #13 //018   ----------------------------------------
 BYTE   N44
 BYTE   W03
 BYTE   W01
 BYTE   W03
 BYTE   W03
 BYTE   W03
 BYTE   W03
 BYTE   W03
 BYTE   W03
 BYTE   W03
 BYTE   W03
 BYTE   W03
 BYTE   W03
 BYTE   W03
 BYTE   W03
 BYTE   W03
 BYTE   W03
 BYTE   W02
 BYTE   An3
 BYTE   W01
 BYTE   W01
 BYTE   W03
 BYTE   W03
 BYTE   W03
 BYTE   W03
 BYTE   W03
 BYTE   W03
 BYTE   W03
 BYTE   W02
 BYTE   W03
 BYTE   W03
 BYTE   W03
 BYTE   W03
 BYTE   W03
 BYTE   W03
 BYTE   W03
 BYTE   W02
//  #13 //019   ----------------------------------------
 BYTE   N68  Gs3
 BYTE   W03
 BYTE   W03
 BYTE   W03
 BYTE   W03
 BYTE   W03
 BYTE   W03
 BYTE   W03
 BYTE   W03
 BYTE   W03
 BYTE   W03
 BYTE   W03
 BYTE   W03
 BYTE   W03
 BYTE   W03
 BYTE   W03
 BYTE   W03
 BYTE   W03
 BYTE   W03
 BYTE   W03
 BYTE   W03
 BYTE   W03
 BYTE   W03
 BYTE   W01
 BYTE   W02
 BYTE   W01
 BYTE   W02
 BYTE   W01
 BYTE   W02
 BYTE   W01
 BYTE   N03  Fs3  v120
 BYTE   W02
 BYTE   W01
 BYTE   W01
 BYTE   Gs3
 BYTE   W01
 BYTE   W01
 BYTE   W02
 BYTE   An3
 BYTE   W01
 BYTE   W02
 BYTE   W01
 BYTE   Bn3
 BYTE   W02
 BYTE   W01
 BYTE   W01
 BYTE   Cs4
 BYTE   W01
 BYTE   W01
 BYTE   W02
//  #13 //020   ----------------------------------------
 BYTE   N44  Ds4  v104
 BYTE   W03
 BYTE   W03
 BYTE   W03
 BYTE   W03
 BYTE   W03
 BYTE   W03
 BYTE   W03
 BYTE   W03
 BYTE   W03
 BYTE   W03
 BYTE   W03
 BYTE   W03
 BYTE   W03
 BYTE   W03
 BYTE   W03
 BYTE   W03
 BYTE   Cs4
 BYTE   W07
 BYTE   W04
 BYTE   W03
 BYTE   W04
 BYTE   W04
 BYTE   W03
 BYTE   W04
 BYTE   W04
 BYTE   W04
 BYTE   W03
 BYTE   W04
 BYTE   W04
//  #13 //021   ----------------------------------------
 BYTE   En4
 BYTE   W03
 BYTE   W04
 BYTE   W04
 BYTE   W03
 BYTE   W04
 BYTE   W04
 BYTE   W03
 BYTE   W04
 BYTE   W04
 BYTE   W04
 BYTE   W03
 BYTE   W04
 BYTE   W03
 BYTE   W01
 BYTE   Bn3
 BYTE   W02
 BYTE   W03
 BYTE   W03
 BYTE   W03
 BYTE   W03
 BYTE   W03
 BYTE   W03
 BYTE   W03
 BYTE   W03
 BYTE   W03
 BYTE   W03
 BYTE   W03
 BYTE   W03
 BYTE   W03
 BYTE   W03
 BYTE   W03
 BYTE   W01
//  #13 //022   ----------------------------------------
 BYTE   N23
 BYTE   W01
 BYTE   W03
 BYTE   W03
 BYTE   W03
 BYTE   W03
 BYTE   W03
 BYTE   W03
 BYTE   W03
 BYTE   W02
 BYTE   An3
 BYTE   W01
 BYTE   W02
 BYTE   W03
 BYTE   W03
 BYTE   W03
 BYTE   W03
 BYTE   W03
 BYTE   W03
 BYTE   W03
 BYTE   N23
 BYTE   W03
 BYTE   W02
 BYTE   W01
 BYTE   W02
 BYTE   W01
 BYTE   W02
 BYTE   W01
 BYTE   W02
 BYTE   W01
 BYTE   W02
 BYTE   W01
 BYTE   W02
 BYTE   W01
 BYTE   W02
 BYTE   W01
 BYTE   Gs3
 BYTE   W01
 BYTE   W01
 BYTE   W02
 BYTE   W01
 BYTE   W02
 BYTE   W01
 BYTE   W02
 BYTE   W01
 BYTE   W02
 BYTE   W01
 BYTE   W02
 BYTE   W01
 BYTE   W02
 BYTE   W01
 BYTE   W02
 BYTE   W01
 BYTE   W01
//  #13 //023   ----------------------------------------
 BYTE   N44  Fs3
 BYTE   W03
 BYTE   W03
 BYTE   W03
 BYTE   W03
 BYTE   W03
 BYTE   W03
 BYTE   W03
 BYTE   W03
 BYTE   W03
 BYTE   W03
 BYTE   W03
 BYTE   W03
 BYTE   W03
 BYTE   W03
 BYTE   W03
 BYTE   W03
 BYTE   En3
 BYTE   W01
 BYTE   W03
 BYTE   W03
 BYTE   W03
 BYTE   W03
 BYTE   W03
 BYTE   W03
 BYTE   W03
 BYTE   W03
 BYTE   W03
 BYTE   W03
 BYTE   W03
 BYTE   W03
 BYTE   W03
 BYTE   W03
 BYTE   W03
 BYTE   W02
//  #13 //024   ----------------------------------------
 BYTE   N44
 BYTE   W01
 BYTE   W01
 BYTE   W03
 BYTE   W03
 BYTE   W03
 BYTE   W03
 BYTE   W03
 BYTE   W03
 BYTE   W03
 BYTE   W03
 BYTE   W03
 BYTE   W03
 BYTE   W03
 BYTE   W03
 BYTE   W03
 BYTE   W03
 BYTE   W03
 BYTE   W01
 BYTE   N23  Ds3
 BYTE   W02
 BYTE   W03
 BYTE   W01
 BYTE   W05
 BYTE   W06
 BYTE   W06
 BYTE   W01
 BYTE   En3
 BYTE   W04
 BYTE   W06
 BYTE   W06
 BYTE   W05
 BYTE   W03
//  #13 //025   ----------------------------------------
 BYTE   N92  Gs3
 BYTE   W03
 BYTE   W07
 BYTE   W03
 BYTE   W03
 BYTE   W03
 BYTE   W04
 BYTE   W03
 BYTE   W03
 BYTE   W03
 BYTE   W04
 BYTE   W03
 BYTE   W03
 BYTE   W03
 BYTE   W04
 BYTE   W03
 BYTE   W03
 BYTE   W03
 BYTE   W04
 BYTE   W03
 BYTE   W03
 BYTE   W04
 BYTE   W03
 BYTE   W03
 BYTE   W03
 BYTE   W04
 BYTE   W03
 BYTE   W03
 BYTE   W03
 BYTE   W02
//  #13 //026   ----------------------------------------
 BYTE   Fs3
 BYTE   W01
 BYTE   W03
 BYTE   W03
 BYTE   W03
 BYTE   W03
 BYTE   W03
 BYTE   W03
 BYTE   W03
 BYTE   W03
 BYTE   W02
 BYTE   W06
 BYTE   W06
 BYTE   W05
 BYTE   W06
 BYTE   W06
 BYTE   W05
 BYTE   W06
 BYTE   W06
 BYTE   W01
 BYTE   W02
 BYTE   W01
 BYTE   W02
 BYTE   W01
 BYTE   W02
 BYTE   W01
 BYTE   W02
 BYTE   W01
 BYTE   W02
 BYTE   W01
 BYTE   W02
 BYTE   W01
 BYTE   W02
 BYTE   W01
 BYTE   W01
//  #13 //027   ----------------------------------------
 BYTE   W01
 BYTE   W01
 BYTE   W92
 BYTE   W02
//  #13 //028   ----------------------------------------
 BYTE   W96
//  #13 //029   ----------------------------------------
 BYTE   W96
//  #13 //030   ----------------------------------------
 BYTE   W96
//  #13 //031   ----------------------------------------
 BYTE   W96
//  #13 //032   ----------------------------------------
 BYTE   W96
//  #13 //033   ----------------------------------------
 BYTE   GoTo
  POIN2 Label_01014CFA
 BYTE   FINE

//**************** Track 14 (Midi-Chn.13) ****************//

Liberation_014:
//  #14 //000   ----------------------------------------
 BYTE   KEYSH   Liberation_key+0
Label_01014EC6:
 BYTE   VOICE   10
 BYTE   VOL   27*Liberation_mvl/mxv
 BYTE   PAN   c_v+34
 BYTE   BEND   c_v+0
 BYTE   W96
//  #14 //001   ----------------------------------------
 BYTE   W96
//  #14 //002   ----------------------------------------
 BYTE   W96
//  #14 //003   ----------------------------------------
 BYTE   W96
//  #14 //004   ----------------------------------------
 BYTE   W96
//  #14 //005   ----------------------------------------
 BYTE   W96
//  #14 //006   ----------------------------------------
 BYTE   W96
//  #14 //007   ----------------------------------------
 BYTE   W96
//  #14 //008   ----------------------------------------
 BYTE   W96
//  #14 //009   ----------------------------------------
 BYTE   W96
//  #14 //010   ----------------------------------------
 BYTE   W96
//  #14 //011   ----------------------------------------
 BYTE   W96
//  #14 //012   ----------------------------------------
 BYTE   W96
//  #14 //013   ----------------------------------------
 BYTE   W96
//  #14 //014   ----------------------------------------
 BYTE   W96
//  #14 //015   ----------------------------------------
 BYTE   W96
//  #14 //016   ----------------------------------------
 BYTE   W12
 BYTE   N44  Ds4  v104
 BYTE   W03
 BYTE   W03
 BYTE   W03
 BYTE   W03
 BYTE   W03
 BYTE   W03
 BYTE   W03
 BYTE   W03
 BYTE   W03
 BYTE   W03
 BYTE   W03
 BYTE   W03
 BYTE   W03
 BYTE   W03
 BYTE   W03
 BYTE   W03
 BYTE   Cs4
 BYTE   W03
 BYTE   W03
 BYTE   W03
 BYTE   W03
 BYTE   W03
 BYTE   W03
 BYTE   W03
 BYTE   W03
 BYTE   W03
 BYTE   W03
 BYTE   W03
 BYTE   W03
//  #14 //017   ----------------------------------------
 BYTE   W03
 BYTE   W03
 BYTE   W03
 BYTE   W01
 BYTE   W02
 BYTE   En4
 BYTE   W01
 BYTE   W03
 BYTE   W03
 BYTE   W03
 BYTE   W03
 BYTE   W03
 BYTE   W03
 BYTE   W03
 BYTE   W03
 BYTE   W03
 BYTE   W03
 BYTE   W03
 BYTE   W03
 BYTE   W03
 BYTE   W03
 BYTE   W02
 BYTE   W03
 BYTE   Bn3
 BYTE   W03
 BYTE   W03
 BYTE   W03
 BYTE   W03
 BYTE   W03
 BYTE   W03
 BYTE   W03
 BYTE   W03
 BYTE   W03
 BYTE   W03
 BYTE   W03
 BYTE   W03
//  #14 //018   ----------------------------------------
 BYTE   W03
 BYTE   W03
 BYTE   W03
 BYTE   W03
 BYTE   N44
 BYTE   W03
 BYTE   W01
 BYTE   W03
 BYTE   W03
 BYTE   W03
 BYTE   W03
 BYTE   W03
 BYTE   W03
 BYTE   W03
 BYTE   W03
 BYTE   W03
 BYTE   W03
 BYTE   W03
 BYTE   W03
 BYTE   W03
 BYTE   W03
 BYTE   W02
 BYTE   An3
 BYTE   W01
 BYTE   W01
 BYTE   W03
 BYTE   W03
 BYTE   W03
 BYTE   W03
 BYTE   W03
 BYTE   W03
 BYTE   W03
 BYTE   W02
 BYTE   W03
 BYTE   W03
 BYTE   W03
 BYTE   W02
//  #14 //019   ----------------------------------------
 BYTE   W01
 BYTE   W03
 BYTE   W03
 BYTE   W03
 BYTE   W02
 BYTE   N68  Gs3
 BYTE   W03
 BYTE   W03
 BYTE   W03
 BYTE   W03
 BYTE   W03
 BYTE   W03
 BYTE   W03
 BYTE   W03
 BYTE   W03
 BYTE   W03
 BYTE   W03
 BYTE   W03
 BYTE   W03
 BYTE   W03
 BYTE   W03
 BYTE   W03
 BYTE   W03
 BYTE   W03
 BYTE   W03
 BYTE   W03
 BYTE   W03
 BYTE   W03
 BYTE   W01
 BYTE   W02
 BYTE   W01
 BYTE   W02
 BYTE   W01
 BYTE   W02
 BYTE   W01
 BYTE   N03  Fs3  v120
 BYTE   W02
 BYTE   W01
 BYTE   W01
 BYTE   Gs3
 BYTE   W01
 BYTE   W01
 BYTE   W02
//  #14 //020   ----------------------------------------
 BYTE   An3
 BYTE   W01
 BYTE   W02
 BYTE   W01
 BYTE   Bn3
 BYTE   W02
 BYTE   W01
 BYTE   W01
 BYTE   Cs4
 BYTE   W01
 BYTE   W01
 BYTE   W02
 BYTE   N44  Ds4  v104
 BYTE   W03
 BYTE   W03
 BYTE   W03
 BYTE   W03
 BYTE   W03
 BYTE   W03
 BYTE   W03
 BYTE   W03
 BYTE   W03
 BYTE   W03
 BYTE   W03
 BYTE   W03
 BYTE   W03
 BYTE   W03
 BYTE   W03
 BYTE   W03
 BYTE   Cs4
 BYTE   W07
 BYTE   W04
 BYTE   W03
 BYTE   W04
 BYTE   W04
 BYTE   W03
 BYTE   W04
 BYTE   W04
 BYTE   W03
//  #14 //021   ----------------------------------------
 BYTE   W01
 BYTE   W03
 BYTE   W04
 BYTE   W04
 BYTE   En4
 BYTE   W03
 BYTE   W04
 BYTE   W04
 BYTE   W03
 BYTE   W04
 BYTE   W04
 BYTE   W03
 BYTE   W04
 BYTE   W04
 BYTE   W04
 BYTE   W03
 BYTE   W04
 BYTE   W03
 BYTE   W01
 BYTE   Bn3
 BYTE   W02
 BYTE   W03
 BYTE   W03
 BYTE   W03
 BYTE   W03
 BYTE   W03
 BYTE   W03
 BYTE   W03
 BYTE   W03
 BYTE   W03
 BYTE   W03
 BYTE   W03
 BYTE   W01
//  #14 //022   ----------------------------------------
 BYTE   W02
 BYTE   W03
 BYTE   W03
 BYTE   W03
 BYTE   W01
 BYTE   N23
 BYTE   W01
 BYTE   W03
 BYTE   W03
 BYTE   W03
 BYTE   W03
 BYTE   W03
 BYTE   W03
 BYTE   W03
 BYTE   W02
 BYTE   An3
 BYTE   W01
 BYTE   W02
 BYTE   W03
 BYTE   W03
 BYTE   W03
 BYTE   W03
 BYTE   W03
 BYTE   W03
 BYTE   W03
 BYTE   N23
 BYTE   W03
 BYTE   W02
 BYTE   W01
 BYTE   W02
 BYTE   W01
 BYTE   W02
 BYTE   W01
 BYTE   W02
 BYTE   W01
 BYTE   W02
 BYTE   W01
 BYTE   W02
 BYTE   W01
 BYTE   W02
 BYTE   W01
 BYTE   Gs3
 BYTE   W01
 BYTE   W01
 BYTE   W02
 BYTE   W01
 BYTE   W02
 BYTE   W01
 BYTE   W02
 BYTE   W01
 BYTE   W01
//  #14 //023   ----------------------------------------
 BYTE   W01
 BYTE   W01
 BYTE   W02
 BYTE   W01
 BYTE   W02
 BYTE   W01
 BYTE   W02
 BYTE   W01
 BYTE   W01
 BYTE   N44  Fs3
 BYTE   W03
 BYTE   W03
 BYTE   W03
 BYTE   W03
 BYTE   W03
 BYTE   W03
 BYTE   W03
 BYTE   W03
 BYTE   W03
 BYTE   W03
 BYTE   W03
 BYTE   W03
 BYTE   W03
 BYTE   W03
 BYTE   W03
 BYTE   W03
 BYTE   En3
 BYTE   W01
 BYTE   W03
 BYTE   W03
 BYTE   W03
 BYTE   W03
 BYTE   W03
 BYTE   W03
 BYTE   W03
 BYTE   W03
 BYTE   W03
 BYTE   W03
 BYTE   W03
 BYTE   W02
//  #14 //024   ----------------------------------------
 BYTE   W01
 BYTE   W03
 BYTE   W03
 BYTE   W03
 BYTE   W02
 BYTE   N44
 BYTE   W01
 BYTE   W01
 BYTE   W03
 BYTE   W03
 BYTE   W03
 BYTE   W03
 BYTE   W03
 BYTE   W03
 BYTE   W03
 BYTE   W03
 BYTE   W03
 BYTE   W03
 BYTE   W03
 BYTE   W03
 BYTE   W03
 BYTE   W03
 BYTE   W03
 BYTE   W01
 BYTE   N23  Ds3
 BYTE   W02
 BYTE   W03
 BYTE   W01
 BYTE   W05
 BYTE   W06
 BYTE   W06
 BYTE   W01
 BYTE   En3
 BYTE   W04
 BYTE   W06
 BYTE   W02
//  #14 //025   ----------------------------------------
 BYTE   W04
 BYTE   W05
 BYTE   W03
 BYTE   N92  Gs3
 BYTE   W03
 BYTE   W07
 BYTE   W03
 BYTE   W03
 BYTE   W03
 BYTE   W04
 BYTE   W03
 BYTE   W03
 BYTE   W03
 BYTE   W04
 BYTE   W03
 BYTE   W03
 BYTE   W03
 BYTE   W04
 BYTE   W03
 BYTE   W03
 BYTE   W03
 BYTE   W04
 BYTE   W03
 BYTE   W03
 BYTE   W04
 BYTE   W03
 BYTE   W03
 BYTE   W03
 BYTE   W03
//  #14 //026   ----------------------------------------
 BYTE   W01
 BYTE   W03
 BYTE   W03
 BYTE   W03
 BYTE   W02
 BYTE   Fs3
 BYTE   W01
 BYTE   W03
 BYTE   W03
 BYTE   W03
 BYTE   W03
 BYTE   W03
 BYTE   W03
 BYTE   W03
 BYTE   W03
 BYTE   W02
 BYTE   W06
 BYTE   W06
 BYTE   W05
 BYTE   W06
 BYTE   W06
 BYTE   W05
 BYTE   W06
 BYTE   W06
 BYTE   W01
 BYTE   W02
 BYTE   W01
 BYTE   W02
 BYTE   W01
 BYTE   W02
 BYTE   W01
 BYTE   W01
//  #14 //027   ----------------------------------------
 BYTE   W01
 BYTE   W01
 BYTE   W02
 BYTE   W01
 BYTE   W02
 BYTE   W01
 BYTE   W02
 BYTE   W01
 BYTE   W02
 BYTE   W01
 BYTE   W80
 BYTE   W02
//  #14 //028   ----------------------------------------
 BYTE   W96
//  #14 //029   ----------------------------------------
 BYTE   W96
//  #14 //030   ----------------------------------------
 BYTE   W96
//  #14 //031   ----------------------------------------
 BYTE   W96
//  #14 //032   ----------------------------------------
 BYTE   W96
//  #14 //033   ----------------------------------------
 BYTE   GoTo
  POIN2 Label_01014EC6
 BYTE   FINE

//**************** Track 15 (Midi-Chn.14) ****************//

Liberation_015:
//  #15 //000   ----------------------------------------
 BYTE   KEYSH   Liberation_key+0
Label_0101809A:
 BYTE   VOICE   18
 BYTE   VOL   34*Liberation_mvl/mxv
 BYTE   PAN   c_v+24
 BYTE   BEND   c_v+0
 BYTE   W96
//  #15 //001   ----------------------------------------
 BYTE   W96
//  #15 //002   ----------------------------------------
 BYTE   W96
//  #15 //003   ----------------------------------------
 BYTE   W96
//  #15 //004   ----------------------------------------
 BYTE   W96
//  #15 //005   ----------------------------------------
 BYTE   W96
//  #15 //006   ----------------------------------------
 BYTE   W96
//  #15 //007   ----------------------------------------
 BYTE   W30
 BYTE   W01
 BYTE   W01
 BYTE   W02
 BYTE   W01
 BYTE   W02
 BYTE   W01
 BYTE   W01
 BYTE   N02  Ds5  v127
 BYTE   W01
 BYTE   W01
 BYTE   W01
 BYTE   Fn5
 BYTE   W01
 BYTE   W01
 BYTE   W01
 BYTE   Ds5
 BYTE   W01
 BYTE   W01
 BYTE   W01
 BYTE   Fn5
 BYTE   W01
 BYTE   W01
 BYTE   W01
 BYTE   Ds5
 BYTE   W01
 BYTE   W01
 BYTE   W01
 BYTE   Fn5
 BYTE   W01
 BYTE   W01
 BYTE   W01
 BYTE   Ds5
 BYTE   W01
 BYTE   W01
 BYTE   W01
 BYTE   Fn5
 BYTE   W01
 BYTE   W01
 BYTE   W01
 BYTE   Ds5
 BYTE   W01
 BYTE   W01
 BYTE   W01
 BYTE   Fn5
 BYTE   W01
 BYTE   W01
 BYTE   W01
 BYTE   Ds5
 BYTE   W01
 BYTE   W01
 BYTE   W01
 BYTE   Fn5
 BYTE   W01
 BYTE   W01
 BYTE   W01
 BYTE   Ds5
 BYTE   W01
 BYTE   W01
 BYTE   W01
 BYTE   Fn5
 BYTE   W01
 BYTE   W01
 BYTE   W01
 BYTE   Ds5
 BYTE   W01
 BYTE   W01
 BYTE   W01
 BYTE   Fn5
 BYTE   W01
 BYTE   W01
 BYTE   W01
 BYTE   Ds5
 BYTE   W01
 BYTE   W01
 BYTE   W01
 BYTE   Fn5
 BYTE   W01
 BYTE   W01
 BYTE   W01
 BYTE   Ds5
 BYTE   W01
 BYTE   W01
 BYTE   W01
//  #15 //008   ----------------------------------------
 BYTE   N04  Fn5
 BYTE   W06
 BYTE   Fn5  v080
 BYTE   W06
 BYTE   Fn5  v060
 BYTE   W06
 BYTE   Fn5  v044
 BYTE   W78
//  #15 //009   ----------------------------------------
 BYTE   W96
//  #15 //010   ----------------------------------------
 BYTE   W96
//  #15 //011   ----------------------------------------
 BYTE   W96
//  #15 //012   ----------------------------------------
 BYTE   W96
//  #15 //013   ----------------------------------------
 BYTE   W96
//  #15 //014   ----------------------------------------
 BYTE   W96
//  #15 //015   ----------------------------------------
 BYTE   W96
//  #15 //016   ----------------------------------------
 BYTE   W96
//  #15 //017   ----------------------------------------
 BYTE   W13
 BYTE   W07
 BYTE   W07
 BYTE   W06
 BYTE   W07
 BYTE   W07
 BYTE   W07
 BYTE   W06
 BYTE   W07
 BYTE   W03
 BYTE   W02
 BYTE   N07  Fs3  v127
 BYTE   W01
 BYTE   W03
 BYTE   W03
 BYTE   W01
 BYTE   Bn3
 BYTE   W02
 BYTE   W03
 BYTE   W03
 BYTE   Ds4
 BYTE   W03
 BYTE   W03
 BYTE   W02
//  #15 //018   ----------------------------------------
 BYTE   N23  Fs4
 BYTE   W01
 BYTE   W01
 BYTE   W22
 BYTE   Cs4
 BYTE   W24
 BYTE   N32  Cs5
 BYTE   W02
 BYTE   W03
 BYTE   W03
 BYTE   W03
 BYTE   W03
 BYTE   W03
 BYTE   W03
 BYTE   W03
 BYTE   W03
 BYTE   W03
 BYTE   W03
 BYTE   W03
 BYTE   W01
 BYTE   N03  Bn4
 BYTE   W04
 BYTE   As4
 BYTE   W04
 BYTE   An4
 BYTE   W01
 BYTE   W03
//  #15 //019   ----------------------------------------
 BYTE   Gs4
 BYTE   W02
 BYTE   W01
 BYTE   An4
 BYTE   W03
 BYTE   N88  Gs4
 BYTE   W02
 BYTE   W03
 BYTE   W03
 BYTE   W03
 BYTE   W03
 BYTE   W03
 BYTE   W01
 BYTE   W03
 BYTE   W03
 BYTE   W03
 BYTE   W03
 BYTE   W03
 BYTE   W03
 BYTE   W03
 BYTE   W03
 BYTE   W03
 BYTE   W03
 BYTE   W03
 BYTE   W03
 BYTE   W03
 BYTE   W03
 BYTE   W03
 BYTE   W03
 BYTE   W03
 BYTE   W03
 BYTE   W03
 BYTE   W03
 BYTE   W03
 BYTE   W03
 BYTE   W03
 BYTE   W03
//  #15 //020   ----------------------------------------
 BYTE   W03
 BYTE   W03
 BYTE   W03
 BYTE   W03
 BYTE   W03
 BYTE   W03
 BYTE   W03
 BYTE   W03
 BYTE   W03
 BYTE   W03
 BYTE   W03
 BYTE   W03
 BYTE   W03
 BYTE   W03
 BYTE   W03
 BYTE   W01
 BYTE   W48
 BYTE   W02
//  #15 //021   ----------------------------------------
 BYTE   W96
//  #15 //022   ----------------------------------------
 BYTE   W96
//  #15 //023   ----------------------------------------
 BYTE   W42
 BYTE   W01
 BYTE   W01
 BYTE   W02
 BYTE   W01
 BYTE   W02
 BYTE   W01
 BYTE   W02
 BYTE   W01
 BYTE   W02
 BYTE   W01
 BYTE   W02
 BYTE   W01
 BYTE   W02
 BYTE   W01
 BYTE   W02
 BYTE   W01
 BYTE   W02
 BYTE   W01
 BYTE   W02
 BYTE   W01
 BYTE   W02
 BYTE   W01
 BYTE   W02
 BYTE   W01
 BYTE   W02
 BYTE   W01
 BYTE   W03
 BYTE   W01
 BYTE   N02  Fs3
 BYTE   W02
 BYTE   W01
 BYTE   Gn3
 BYTE   W02
 BYTE   W01
 BYTE   Gs3
 BYTE   W02
 BYTE   W01
 BYTE   An3
 BYTE   W02
 BYTE   W01
//  #15 //024   ----------------------------------------
 BYTE   N44  As3
 BYTE   W01
 BYTE   W03
 BYTE   W06
 BYTE   W03
 BYTE   W03
 BYTE   W03
 BYTE   W03
 BYTE   W03
 BYTE   W03
 BYTE   W04
 BYTE   W03
 BYTE   W03
 BYTE   W03
 BYTE   W03
 BYTE   W03
 BYTE   W01
 BYTE   Fs3
 BYTE   W02
 BYTE   W03
 BYTE   W03
 BYTE   W03
 BYTE   W03
 BYTE   W03
 BYTE   W04
 BYTE   W03
 BYTE   W03
 BYTE   W03
 BYTE   W03
 BYTE   W03
 BYTE   W03
 BYTE   W03
 BYTE   W03
 BYTE   W03
//  #15 //025   ----------------------------------------
 BYTE   N23  Bn3
 BYTE   W03
 BYTE   W03
 BYTE   W03
 BYTE   W03
 BYTE   W03
 BYTE   W03
 BYTE   W03
 BYTE   W03
 BYTE   Fs3
 BYTE   W03
 BYTE   W03
 BYTE   W03
 BYTE   W03
 BYTE   W03
 BYTE   W03
 BYTE   W03
 BYTE   W03
 BYTE   Bn3
 BYTE   W03
 BYTE   W03
 BYTE   W03
 BYTE   W03
 BYTE   W03
 BYTE   W03
 BYTE   W03
 BYTE   W03
 BYTE   En4
 BYTE   W03
 BYTE   W03
 BYTE   W03
 BYTE   W03
 BYTE   W03
 BYTE   W03
 BYTE   W03
 BYTE   W03
//  #15 //026   ----------------------------------------
 BYTE   N44  Ds4
 BYTE   W01
 BYTE   W01
 BYTE   W02
 BYTE   W01
 BYTE   W02
 BYTE   W01
 BYTE   W02
 BYTE   W01
 BYTE   W02
 BYTE   W01
 BYTE   W02
 BYTE   W01
 BYTE   W01
 BYTE   W03
 BYTE   W03
 BYTE   W03
 BYTE   W03
 BYTE   W03
 BYTE   W03
 BYTE   W03
 BYTE   W03
 BYTE   W03
 BYTE   W03
 BYTE   N02  Bn4
 BYTE   W02
 BYTE   W01
 BYTE   Ds5
 BYTE   W02
 BYTE   W01
 BYTE   Bn4
 BYTE   W02
 BYTE   W01
 BYTE   Bn4  v076
 BYTE   W02
 BYTE   W01
 BYTE   Fs4  v127
 BYTE   W02
 BYTE   W01
 BYTE   Fs4  v076
 BYTE   W02
 BYTE   W01
 BYTE   Ds4  v127
 BYTE   W02
 BYTE   W01
 BYTE   Ds4  v076
 BYTE   W02
 BYTE   W01
 BYTE   Fs4  v127
 BYTE   W02
 BYTE   W01
 BYTE   Bn4
 BYTE   W02
 BYTE   W01
 BYTE   Fs4
 BYTE   W02
 BYTE   W01
 BYTE   Fs4  v076
 BYTE   W02
 BYTE   W01
 BYTE   Ds4  v127
 BYTE   W02
 BYTE   W01
 BYTE   Ds4  v076
 BYTE   W02
 BYTE   W01
 BYTE   Bn3  v127
 BYTE   W02
 BYTE   W01
 BYTE   Bn3  v076
 BYTE   W02
 BYTE   W01
//  #15 //027   ----------------------------------------
 BYTE   W02
 BYTE   W02
 BYTE   W92
//  #15 //028   ----------------------------------------
 BYTE   W96
//  #15 //029   ----------------------------------------
 BYTE   W96
//  #15 //030   ----------------------------------------
 BYTE   W96
//  #15 //031   ----------------------------------------
 BYTE   W96
//  #15 //032   ----------------------------------------
 BYTE   W96
//  #15 //033   ----------------------------------------
 BYTE   GoTo
  POIN2 Label_0101809A
 BYTE   FINE

//******************************************************//
	ALIGN 4

Liberation:
	BYTE	15	// NumTrks
	BYTE	0	// NumBlks
	BYTE	Liberation_pri	// Priority
	BYTE	Liberation_rev	// Reverb.
    
	POIN2	Liberation_grp
    
	POIN2	Liberation_001
	POIN2	Liberation_002
	POIN2	Liberation_003
	POIN2	Liberation_004
	POIN2	Liberation_005
	POIN2	Liberation_006
	POIN2	Liberation_007
	POIN2	Liberation_008
	POIN2	Liberation_009
	POIN2	Liberation_010
	POIN2	Liberation_011
	POIN2	Liberation_012
	POIN2	Liberation_013
	POIN2	Liberation_014
	POIN2	Liberation_015

	
