//Event file generated from Sappy .s format.
	#include "MPlayDef.event"

	#define	LifeWillChange_grp  voicegroup000
	#define	LifeWillChange_pri  0
	#define	LifeWillChange_rev  0
	#define	LifeWillChange_mvl  127
	#define	LifeWillChange_key  0
	#define	LifeWillChange_tbs  1
	#define	LifeWillChange_exg  0
	#define	LifeWillChange_cmp  1

	// .rodata
	//	LifeWillChange
	ALIGN 4


//**************** Track 1 (Midi-Chn.0) ****************//

LifeWillChange_001:
//  #01 //000   ----------------------------------------
 BYTE   KEYSH   LifeWillChange_key+0
 BYTE   TEMPO   132*LifeWillChange_tbs/2
 BYTE   VOICE   30
 BYTE   VOL   47*LifeWillChange_mvl/mxv
 BYTE   PAN   c_v+0
 BYTE   VOL   47*LifeWillChange_mvl/mxv
 BYTE   PAN   c_v+0
 BYTE   VOL   50*LifeWillChange_mvl/mxv
 BYTE   PAN   c_v+0
 BYTE   W96
//  #01 //001   ----------------------------------------
 BYTE   W96
//  #01 //002   ----------------------------------------
 BYTE   W96
//  #01 //003   ----------------------------------------
 BYTE   W96
//  #01 //004   ----------------------------------------
 BYTE   W96
//  #01 //005   ----------------------------------------
 BYTE   W96
//  #01 //006   ----------------------------------------
 BYTE   W96
//  #01 //007   ----------------------------------------
 BYTE   W96
//  #01 //008   ----------------------------------------
 BYTE   W96
//  #01 //009   ----------------------------------------
 BYTE   W96
//  #01 //010   ----------------------------------------
 BYTE   W96
//  #01 //011   ----------------------------------------
 BYTE   W96
//  #01 //012   ----------------------------------------
 BYTE   W96
//  #01 //013   ----------------------------------------
 BYTE   W96
//  #01 //014   ----------------------------------------
 BYTE   W96
//  #01 //015   ----------------------------------------
Label_01005D4D:
 BYTE   W36
 BYTE   N11  Gs2  v080
 BYTE   W12
 BYTE   N17
 BYTE   W18
 BYTE   As2
 BYTE   W18
 BYTE   N23  Fn2
 BYTE   W12
 BYTE   PEND 
//  #01 //016   ----------------------------------------
Label_01005D5A:
 BYTE   W36
 BYTE   N11  Gs2  v080
 BYTE   W12
 BYTE   N17
 BYTE   W18
 BYTE   As2
 BYTE   W18
 BYTE   N23  Cn3
 BYTE   W12
 BYTE   PEND 
//  #01 //017   ----------------------------------------
 BYTE   W12
 BYTE   N11  Ds3
 BYTE   W24
 BYTE   N23  Fn3
 BYTE   W24
 BYTE   Gs3
 BYTE   W24
 BYTE   N03
 BYTE   W03
 BYTE   N32  As3
 BYTE   W09
//  #01 //018   ----------------------------------------
Label_01005D75:
 BYTE   W24
 BYTE   N11  As3  v080
 BYTE   W12
 BYTE   N23  Gs3
 BYTE   W24
 BYTE   N32  Fn3
 BYTE   W36
 BYTE   PEND 
//  #01 //019   ----------------------------------------
 BYTE   W36
 BYTE   N05
 BYTE   W12
 BYTE   N17  Ds3
 BYTE   W18
 BYTE   N05  Fn3
 BYTE   W18
 BYTE   N23  Gs3
 BYTE   W12
//  #01 //020   ----------------------------------------
 BYTE   W12
 BYTE   N11
 BYTE   W24
 BYTE   N05  Fn3
 BYTE   W12
 BYTE   N17  Ds3
 BYTE   W18
 BYTE   N05  Fn3
 BYTE   W18
 BYTE   N23  As3
 BYTE   W12
//  #01 //021   ----------------------------------------
 BYTE   W12
 BYTE   N11
 BYTE   W24
 BYTE   N05  Fn3
 BYTE   W12
 BYTE   N17  Ds3
 BYTE   W18
 BYTE   N05  Fn3
 BYTE   W18
 BYTE   N23  Cn4
 BYTE   W12
//  #01 //022   ----------------------------------------
Label_01005DAB:
 BYTE   W12
 BYTE   N11  Ds4  v080
 BYTE   W24
 BYTE   N03  Gs3
 BYTE   W03
 BYTE   TIE  As3
 BYTE   W56
 BYTE   W01
 BYTE   PEND 
//  #01 //023   ----------------------------------------
 BYTE   W44
 BYTE   W03
 BYTE   EOT
 BYTE   W36
 BYTE   W01
 BYTE   N23  Cn4
 BYTE   W12
//  #01 //024   ----------------------------------------
Label_01005DC0:
 BYTE   W12
 BYTE   N11  Gs3  v080
 BYTE   W12
 BYTE   As3
 BYTE   W12
 BYTE   Fn3
 BYTE   W12
 BYTE   N92  Gs3
 BYTE   W48
 BYTE   PEND 
//  #01 //025   ----------------------------------------
 BYTE   W84
 BYTE   N23  Cn4
 BYTE   W12
//  #01 //026   ----------------------------------------
 BYTE   PATT
  POIN2 Label_01005DC0
//  #01 //027   ----------------------------------------
 BYTE   W84
 BYTE   N23  Cn4  v080
 BYTE   W12
//  #01 //028   ----------------------------------------
 BYTE   PATT
  POIN2 Label_01005DC0
//  #01 //029   ----------------------------------------
 BYTE   W60
 BYTE   N32  As3  v080
 BYTE   W36
//  #01 //030   ----------------------------------------
 BYTE   TIE  Gn3
 BYTE   W96
//  #01 //031   ----------------------------------------
 BYTE   W44
 BYTE   W03
 BYTE   EOT
 BYTE   W36
 BYTE   W01
 BYTE   N23  Cn4
 BYTE   W12
//  #01 //032   ----------------------------------------
 BYTE   PATT
  POIN2 Label_01005DC0
//  #01 //033   ----------------------------------------
 BYTE   W84
 BYTE   N23  Cn4  v080
 BYTE   W12
//  #01 //034   ----------------------------------------
Label_01005DFA:
 BYTE   W12
 BYTE   N11  Ds4  v080
 BYTE   W12
 BYTE   As3
 BYTE   W12
 BYTE   Fn3
 BYTE   W12
 BYTE   N92  Gs3
 BYTE   W48
 BYTE   PEND 
//  #01 //035   ----------------------------------------
 BYTE   W84
 BYTE   N23  Cn4
 BYTE   W12
//  #01 //036   ----------------------------------------
 BYTE   PATT
  POIN2 Label_01005DC0
//  #01 //037   ----------------------------------------
 BYTE   W60
 BYTE   N32  As3  v080
 BYTE   W36
//  #01 //038   ----------------------------------------
 BYTE   TIE  Gn3
 BYTE   W96
//  #01 //039   ----------------------------------------
 BYTE   W44
 BYTE   W03
 BYTE   EOT
 BYTE   W48
 BYTE   W01
//  #01 //040   ----------------------------------------
 BYTE   W96
//  #01 //041   ----------------------------------------
 BYTE   W96
//  #01 //042   ----------------------------------------
 BYTE   W96
//  #01 //043   ----------------------------------------
 BYTE   W96
//  #01 //044   ----------------------------------------
 BYTE   W96
//  #01 //045   ----------------------------------------
 BYTE   W96
//  #01 //046   ----------------------------------------
 BYTE   W96
//  #01 //047   ----------------------------------------
Label_01005E24:
 BYTE   W12
 BYTE   N17  As3  v112
 BYTE   W18
 BYTE   Gs3
 BYTE   W18
 BYTE   As3
 BYTE   W18
 BYTE   Gs3
 BYTE   W18
 BYTE   N11  As3
 BYTE   W12
 BYTE   PEND 
//  #01 //048   ----------------------------------------
Label_01005E33:
 BYTE   N17  Fn3  v112
 BYTE   W18
 BYTE   Gs3
 BYTE   W78
 BYTE   PEND 
//  #01 //049   ----------------------------------------
Label_01005E3A:
 BYTE   W12
 BYTE   N17  Gs3  v112
 BYTE   W18
 BYTE   N17
 BYTE   W18
 BYTE   N17
 BYTE   W18
 BYTE   N17
 BYTE   W18
 BYTE   N11  As3
 BYTE   W12
 BYTE   PEND 
//  #01 //050   ----------------------------------------
Label_01005E49:
 BYTE   N17  Gs3  v112
 BYTE   W18
 BYTE   Fn3
 BYTE   W78
 BYTE   PEND 
//  #01 //051   ----------------------------------------
 BYTE   PATT
  POIN2 Label_01005E3A
//  #01 //052   ----------------------------------------
Label_01005E55:
 BYTE   N17  Fn3  v112
 BYTE   W18
 BYTE   Gs3
 BYTE   W54
 BYTE   N11  Fn3
 BYTE   W12
 BYTE   N11
 BYTE   W12
 BYTE   PEND 
//  #01 //053   ----------------------------------------
Label_01005E61:
 BYTE   N17  Cn4  v112
 BYTE   W18
 BYTE   As3
 BYTE   W18
 BYTE   N23  Gs3
 BYTE   W24
 BYTE   As3
 BYTE   W24
 BYTE   N32  Fn3
 BYTE   W12
 BYTE   PEND 
//  #01 //054   ----------------------------------------
 BYTE   W96
//  #01 //055   ----------------------------------------
 BYTE   PATT
  POIN2 Label_01005E24
//  #01 //056   ----------------------------------------
 BYTE   PATT
  POIN2 Label_01005E33
//  #01 //057   ----------------------------------------
 BYTE   PATT
  POIN2 Label_01005E3A
//  #01 //058   ----------------------------------------
 BYTE   PATT
  POIN2 Label_01005E49
//  #01 //059   ----------------------------------------
 BYTE   PATT
  POIN2 Label_01005E3A
//  #01 //060   ----------------------------------------
 BYTE   PATT
  POIN2 Label_01005E55
//  #01 //061   ----------------------------------------
Label_01005E8F:
 BYTE   N17  Cn4  v112
 BYTE   W18
 BYTE   Ds4
 BYTE   W18
 BYTE   N23  As3
 BYTE   W24
 BYTE   N03  Gs3
 BYTE   W03
 BYTE   N20  As3
 BYTE   W21
 BYTE   N23  Gs3
 BYTE   W12
 BYTE   PEND 
//  #01 //062   ----------------------------------------
 BYTE   W12
 BYTE   N32  Fn3
 BYTE   W84
//  #01 //063   ----------------------------------------
 BYTE   W96
//  #01 //064   ----------------------------------------
 BYTE   W96
//  #01 //065   ----------------------------------------
 BYTE   W96
//  #01 //066   ----------------------------------------
 BYTE   W96
//  #01 //067   ----------------------------------------
 BYTE   W96
//  #01 //068   ----------------------------------------
 BYTE   W96
//  #01 //069   ----------------------------------------
 BYTE   W96
//  #01 //070   ----------------------------------------
 BYTE   W96
//  #01 //071   ----------------------------------------
 BYTE   W96
//  #01 //072   ----------------------------------------
 BYTE   W96
//  #01 //073   ----------------------------------------
 BYTE   W96
//  #01 //074   ----------------------------------------
 BYTE   W96
//  #01 //075   ----------------------------------------
 BYTE   W96
//  #01 //076   ----------------------------------------
 BYTE   W96
//  #01 //077   ----------------------------------------
 BYTE   W96
//  #01 //078   ----------------------------------------
 BYTE   W96
//  #01 //079   ----------------------------------------
 BYTE   PATT
  POIN2 Label_01005D4D
//  #01 //080   ----------------------------------------
 BYTE   PATT
  POIN2 Label_01005D5A
//  #01 //081   ----------------------------------------
 BYTE   W12
 BYTE   N03  Cs3  v080
 BYTE   W03
 BYTE   N08  Ds3
 BYTE   W21
 BYTE   N23  Fn3
 BYTE   W24
 BYTE   Gs3
 BYTE   W24
 BYTE   N03
 BYTE   W03
 BYTE   N32  As3
 BYTE   W09
//  #01 //082   ----------------------------------------
 BYTE   PATT
  POIN2 Label_01005D75
//  #01 //083   ----------------------------------------
 BYTE   W36
 BYTE   N05  Fn3  v080
 BYTE   W12
 BYTE   N17  Ds3
 BYTE   W18
 BYTE   Fn3
 BYTE   W18
 BYTE   N23  Gs3
 BYTE   W12
//  #01 //084   ----------------------------------------
 BYTE   W12
 BYTE   N11
 BYTE   W24
 BYTE   N05  Fn3
 BYTE   W12
 BYTE   N17  Ds3
 BYTE   W18
 BYTE   Fn3
 BYTE   W18
 BYTE   N23  As3
 BYTE   W12
//  #01 //085   ----------------------------------------
 BYTE   W12
 BYTE   N11
 BYTE   W24
 BYTE   N05  Fn3
 BYTE   W12
 BYTE   N17  Ds3
 BYTE   W18
 BYTE   Fn3
 BYTE   W18
 BYTE   N23  Cn4
 BYTE   W12
//  #01 //086   ----------------------------------------
 BYTE   PATT
  POIN2 Label_01005DAB
//  #01 //087   ----------------------------------------
 BYTE   W44
 BYTE   W03
 BYTE   EOT
 BYTE   As3
 BYTE   W24
 BYTE   W01
 BYTE   N11  Fn3  v080
 BYTE   W12
 BYTE   N23  Cn4
 BYTE   W12
//  #01 //088   ----------------------------------------
 BYTE   PATT
  POIN2 Label_01005DC0
//  #01 //089   ----------------------------------------
 BYTE   W84
 BYTE   N23  Cn4  v080
 BYTE   W12
//  #01 //090   ----------------------------------------
 BYTE   PATT
  POIN2 Label_01005DC0
//  #01 //091   ----------------------------------------
 BYTE   W84
 BYTE   N23  Cn4  v080
 BYTE   W12
//  #01 //092   ----------------------------------------
 BYTE   PATT
  POIN2 Label_01005DC0
//  #01 //093   ----------------------------------------
 BYTE   W60
 BYTE   N32  As3  v080
 BYTE   W36
//  #01 //094   ----------------------------------------
 BYTE   TIE  Gn3
 BYTE   W96
//  #01 //095   ----------------------------------------
 BYTE   W44
 BYTE   W03
 BYTE   EOT
 BYTE   W24
 BYTE   W01
 BYTE   N11  Fn3
 BYTE   W12
 BYTE   N23  Cn4
 BYTE   W12
//  #01 //096   ----------------------------------------
 BYTE   PATT
  POIN2 Label_01005DC0
//  #01 //097   ----------------------------------------
 BYTE   W84
 BYTE   N23  Cn4  v080
 BYTE   W12
//  #01 //098   ----------------------------------------
 BYTE   PATT
  POIN2 Label_01005DFA
//  #01 //099   ----------------------------------------
 BYTE   W84
 BYTE   N23  Cn4  v080
 BYTE   W12
//  #01 //100   ----------------------------------------
 BYTE   PATT
  POIN2 Label_01005DC0
//  #01 //101   ----------------------------------------
 BYTE   W60
 BYTE   N32  As3  v080
 BYTE   W36
//  #01 //102   ----------------------------------------
 BYTE   TIE  Gn3
 BYTE   W96
//  #01 //103   ----------------------------------------
 BYTE   W44
 BYTE   W03
 BYTE   EOT
 BYTE   W48
 BYTE   W01
//  #01 //104   ----------------------------------------
 BYTE   W96
//  #01 //105   ----------------------------------------
 BYTE   W96
//  #01 //106   ----------------------------------------
 BYTE   W96
//  #01 //107   ----------------------------------------
 BYTE   W96
//  #01 //108   ----------------------------------------
 BYTE   W96
//  #01 //109   ----------------------------------------
 BYTE   W96
//  #01 //110   ----------------------------------------
 BYTE   W96
//  #01 //111   ----------------------------------------
 BYTE   GoTo
  POIN2 Label_01005E24
//  #01 //112   ----------------------------------------
 BYTE   PATT
  POIN2 Label_01005E24
//  #01 //113   ----------------------------------------
 BYTE   PATT
  POIN2 Label_01005E33
//  #01 //114   ----------------------------------------
 BYTE   PATT
  POIN2 Label_01005E3A
//  #01 //115   ----------------------------------------
 BYTE   PATT
  POIN2 Label_01005E49
//  #01 //116   ----------------------------------------
 BYTE   PATT
  POIN2 Label_01005E3A
//  #01 //117   ----------------------------------------
 BYTE   PATT
  POIN2 Label_01005E55
//  #01 //118   ----------------------------------------
 BYTE   PATT
  POIN2 Label_01005E61
//  #01 //119   ----------------------------------------
 BYTE   W96
//  #01 //120   ----------------------------------------
 BYTE   PATT
  POIN2 Label_01005E24
//  #01 //121   ----------------------------------------
 BYTE   PATT
  POIN2 Label_01005E33
//  #01 //122   ----------------------------------------
 BYTE   PATT
  POIN2 Label_01005E3A
//  #01 //123   ----------------------------------------
 BYTE   PATT
  POIN2 Label_01005E49
//  #01 //124   ----------------------------------------
 BYTE   PATT
  POIN2 Label_01005E3A
//  #01 //125   ----------------------------------------
 BYTE   PATT
  POIN2 Label_01005E55
//  #01 //126   ----------------------------------------
 BYTE   PATT
  POIN2 Label_01005E8F
//  #01 //127   ----------------------------------------
 BYTE   W12
 BYTE   N32  Fn3  v112
 BYTE   W84
//  #01 //128   ----------------------------------------
 BYTE   W96
//  #01 //129   ----------------------------------------
 BYTE   W96
//  #01 //130   ----------------------------------------
 BYTE   W96
//  #01 //131   ----------------------------------------
 BYTE   W96
//  #01 //132   ----------------------------------------
 BYTE   W96
//  #01 //133   ----------------------------------------
 BYTE   W96
//  #01 //134   ----------------------------------------
 BYTE   W96
//  #01 //135   ----------------------------------------
 BYTE   W96
//  #01 //136   ----------------------------------------
 BYTE   W96
//  #01 //137   ----------------------------------------
 BYTE   W96
//  #01 //138   ----------------------------------------
 BYTE   W96
//  #01 //139   ----------------------------------------
 BYTE   W96
//  #01 //140   ----------------------------------------
 BYTE   W96
//  #01 //141   ----------------------------------------
 BYTE   W96
//  #01 //142   ----------------------------------------
 BYTE   W96
//  #01 //143   ----------------------------------------
 BYTE   W96
//  #01 //144   ----------------------------------------
 BYTE   W92
 BYTE   W03
 BYTE   FINE

//**************** Track 2 (Midi-Chn.1) ****************//

LifeWillChange_002:
//  #02 //000   ----------------------------------------
 BYTE   KEYSH   LifeWillChange_key+0
 BYTE   VOICE   30
 BYTE   VOL   24*LifeWillChange_mvl/mxv
 BYTE   PAN   c_v-1
 BYTE   VOL   32*LifeWillChange_mvl/mxv
 BYTE   PAN   c_v+0
 BYTE   VOL   23*LifeWillChange_mvl/mxv
 BYTE   PAN   c_v+0
 BYTE   N05  Fn2  v080
 BYTE   N05  Cn3
 BYTE   N05  Fn3
 BYTE   W12
 BYTE   Fn2
 BYTE   N05  Cn3
 BYTE   N05  Fn3
 BYTE   W06
 BYTE   Fn2
 BYTE   N05  Cn3
 BYTE   N05  Fn3
 BYTE   W18
 BYTE   Fn2
 BYTE   N05  Cn3
 BYTE   N05  Fn3
 BYTE   W12
 BYTE   Fn2
 BYTE   N05  Cn3
 BYTE   N05  Fn3
 BYTE   W06
 BYTE   Fn2
 BYTE   N05  Cn3
 BYTE   N05  Fn3
 BYTE   W18
 BYTE   Fn2
 BYTE   N05  Cn3
 BYTE   N05  Fn3
 BYTE   W12
 BYTE   Fn2
 BYTE   N05  Cn3
 BYTE   N05  Fn3
 BYTE   W06
 BYTE   Fn2
 BYTE   N05  Cn3
 BYTE   N05  Fn3
 BYTE   W06
//  #02 //001   ----------------------------------------
Label_01006040:
 BYTE   W12
 BYTE   N05  Fn2  v080
 BYTE   N05  Cn3
 BYTE   N05  Fn3
 BYTE   W12
 BYTE   Fn2
 BYTE   N05  Cn3
 BYTE   N05  Fn3
 BYTE   W06
 BYTE   Fn2
 BYTE   N05  Cn3
 BYTE   N05  Fn3
 BYTE   W18
 BYTE   Fn2
 BYTE   N05  Cn3
 BYTE   N05  Fn3
 BYTE   W06
 BYTE   Fn2
 BYTE   N05  Cn3
 BYTE   N05  Fn3
 BYTE   W18
 BYTE   Fs2
 BYTE   N05  Cs3
 BYTE   N05  Fs3
 BYTE   W06
 BYTE   Fs2
 BYTE   N05  Cs3
 BYTE   N05  Fs3
 BYTE   W18
 BYTE   PEND 
//  #02 //002   ----------------------------------------
Label_0100606E:
 BYTE   N05  Fn2  v080
 BYTE   N05  Cn3
 BYTE   N05  Fn3
 BYTE   W12
 BYTE   Fn2
 BYTE   N05  Cn3
 BYTE   N05  Fn3
 BYTE   W06
 BYTE   Fn2
 BYTE   N05  Cn3
 BYTE   N05  Fn3
 BYTE   W18
 BYTE   Fn2
 BYTE   N05  Cn3
 BYTE   N05  Fn3
 BYTE   W12
 BYTE   Fn2
 BYTE   N05  Cn3
 BYTE   N05  Fn3
 BYTE   W06
 BYTE   Fn2
 BYTE   N05  Cn3
 BYTE   N05  Fn3
 BYTE   W18
 BYTE   Fn2
 BYTE   N05  Cn3
 BYTE   N05  Fn3
 BYTE   W12
 BYTE   Fn2
 BYTE   N05  Cn3
 BYTE   N05  Fn3
 BYTE   W06
 BYTE   Fn2
 BYTE   N05  Cn3
 BYTE   N05  Fn3
 BYTE   W06
 BYTE   PEND 
//  #02 //003   ----------------------------------------
 BYTE   PATT
  POIN2 Label_01006040
//  #02 //004   ----------------------------------------
 BYTE   PATT
  POIN2 Label_0100606E
//  #02 //005   ----------------------------------------
 BYTE   PATT
  POIN2 Label_01006040
//  #02 //006   ----------------------------------------
 BYTE   PATT
  POIN2 Label_0100606E
//  #02 //007   ----------------------------------------
 BYTE   PATT
  POIN2 Label_01006040
//  #02 //008   ----------------------------------------
 BYTE   PATT
  POIN2 Label_0100606E
//  #02 //009   ----------------------------------------
 BYTE   PATT
  POIN2 Label_01006040
//  #02 //010   ----------------------------------------
 BYTE   PATT
  POIN2 Label_0100606E
//  #02 //011   ----------------------------------------
 BYTE   PATT
  POIN2 Label_01006040
//  #02 //012   ----------------------------------------
 BYTE   PATT
  POIN2 Label_0100606E
//  #02 //013   ----------------------------------------
 BYTE   PATT
  POIN2 Label_01006040
//  #02 //014   ----------------------------------------
 BYTE   PATT
  POIN2 Label_0100606E
//  #02 //015   ----------------------------------------
 BYTE   W12
 BYTE   N05  Fn2  v080
 BYTE   N05  Cn3
 BYTE   N05  Fn3
 BYTE   W12
 BYTE   Fn2
 BYTE   N05  Cn3
 BYTE   N05  Fn3
 BYTE   W06
 BYTE   Fn2
 BYTE   N05  Cn3
 BYTE   N05  Fn3
 BYTE   W66
//  #02 //016   ----------------------------------------
Label_010060F8:
 BYTE   N05  Gs2  v064
 BYTE   N05  Cn3
 BYTE   N05  Fn3
 BYTE   W12
 BYTE   Gs2
 BYTE   N05  Cn3
 BYTE   N05  Fn3
 BYTE   W12
 BYTE   N11  Gs2
 BYTE   N11  Cn3
 BYTE   N11  Fn3
 BYTE   W12
 BYTE   N02  Gs2
 BYTE   N02  Cn3
 BYTE   N02  Fn3
 BYTE   W06
 BYTE   Gs2
 BYTE   N02  Cn3
 BYTE   N02  Fn3
 BYTE   W12
 BYTE   Gs2
 BYTE   N02  Cn3
 BYTE   N02  Fn3
 BYTE   W06
 BYTE   N05  Gs2
 BYTE   N05  Cn3
 BYTE   N05  Fn3
 BYTE   W12
 BYTE   N02  Gs2
 BYTE   N02  Cn3
 BYTE   N02  Fn3
 BYTE   W06
 BYTE   Gs2
 BYTE   N02  Cn3
 BYTE   N02  Fn3
 BYTE   W06
 BYTE   N05  Gs2
 BYTE   N05  Cn3
 BYTE   N05  Fn3
 BYTE   W12
 BYTE   PEND 
//  #02 //017   ----------------------------------------
Label_0100613C:
 BYTE   N05  Gs2  v064
 BYTE   N05  Cn3
 BYTE   N05  Ds3
 BYTE   W12
 BYTE   Gs2
 BYTE   N05  Cn3
 BYTE   N05  Ds3
 BYTE   W12
 BYTE   N11  Gs2
 BYTE   N11  Cn3
 BYTE   N11  Ds3
 BYTE   W12
 BYTE   N02  Gs2
 BYTE   N02  Cn3
 BYTE   N02  Ds3
 BYTE   W06
 BYTE   Gs2
 BYTE   N02  Cn3
 BYTE   N02  Ds3
 BYTE   W12
 BYTE   Gs2
 BYTE   N02  Cn3
 BYTE   N02  Ds3
 BYTE   W06
 BYTE   N05  Gs2
 BYTE   N05  Cn3
 BYTE   N05  Ds3
 BYTE   W12
 BYTE   N02  Gs2
 BYTE   N02  Cn3
 BYTE   N02  Ds3
 BYTE   W06
 BYTE   Gs2
 BYTE   N02  Cn3
 BYTE   N02  Ds3
 BYTE   W06
 BYTE   N05  Gs2
 BYTE   N05  Cn3
 BYTE   N05  Ds3
 BYTE   W12
 BYTE   PEND 
//  #02 //018   ----------------------------------------
Label_01006180:
 BYTE   N05  As2  v064
 BYTE   N05  Dn3
 BYTE   N05  Fn3
 BYTE   W12
 BYTE   As2
 BYTE   N05  Dn3
 BYTE   N05  Fn3
 BYTE   W12
 BYTE   N11  As2
 BYTE   N11  Dn3
 BYTE   N11  Fn3
 BYTE   W12
 BYTE   N02  As2
 BYTE   N02  Dn3
 BYTE   N02  Fn3
 BYTE   W06
 BYTE   As2
 BYTE   N02  Dn3
 BYTE   N02  Fn3
 BYTE   W12
 BYTE   As2
 BYTE   N02  Dn3
 BYTE   N02  Fn3
 BYTE   W06
 BYTE   N05  As2
 BYTE   N05  Dn3
 BYTE   N05  Fn3
 BYTE   W12
 BYTE   N02  As2
 BYTE   N02  Dn3
 BYTE   N02  Fn3
 BYTE   W06
 BYTE   As2
 BYTE   N02  Dn3
 BYTE   N02  Fn3
 BYTE   W06
 BYTE   N05  As2
 BYTE   N05  Dn3
 BYTE   N05  Fn3
 BYTE   W12
 BYTE   PEND 
//  #02 //019   ----------------------------------------
Label_010061C4:
 BYTE   N05  Gn2  v064
 BYTE   N05  Cn3
 BYTE   N05  Fn3
 BYTE   W12
 BYTE   Gn2
 BYTE   N05  Cn3
 BYTE   N05  Fn3
 BYTE   W12
 BYTE   N11  Gn2
 BYTE   N11  Cn3
 BYTE   N11  Fn3
 BYTE   W12
 BYTE   N02  Gn2
 BYTE   N02  Cn3
 BYTE   N02  Fn3
 BYTE   W06
 BYTE   Gn2
 BYTE   N02  Cn3
 BYTE   N02  Fn3
 BYTE   W12
 BYTE   Gn2
 BYTE   N02  Cn3
 BYTE   N02  Fn3
 BYTE   W06
 BYTE   N05  Gn2
 BYTE   N05  Cn3
 BYTE   N05  Fn3
 BYTE   W12
 BYTE   N02  Gn2
 BYTE   N02  Cn3
 BYTE   N02  Fn3
 BYTE   W06
 BYTE   Gn2
 BYTE   N02  Cn3
 BYTE   N02  Fn3
 BYTE   W06
 BYTE   N05  Gn2
 BYTE   N05  Cn3
 BYTE   N05  Fn3
 BYTE   W12
 BYTE   PEND 
//  #02 //020   ----------------------------------------
 BYTE   PATT
  POIN2 Label_010060F8
//  #02 //021   ----------------------------------------
 BYTE   PATT
  POIN2 Label_0100613C
//  #02 //022   ----------------------------------------
 BYTE   PATT
  POIN2 Label_01006180
//  #02 //023   ----------------------------------------
 BYTE   PATT
  POIN2 Label_010061C4
//  #02 //024   ----------------------------------------
Label_0100621C:
 BYTE   TIE  Gs2  v080
 BYTE   TIE  Cn3
 BYTE   TIE  Fn3
 BYTE   W96
 BYTE   PEND 
//  #02 //025   ----------------------------------------
 BYTE   W92
 BYTE   W03
 BYTE   EOT
 BYTE   Gs2  v060
 BYTE   Fn3
 BYTE   W01
//  #02 //026   ----------------------------------------
Label_0100622C:
 BYTE   TIE  Gs2  v080
 BYTE   TIE  Cn3
 BYTE   TIE  Ds3
 BYTE   W96
 BYTE   PEND 
//  #02 //027   ----------------------------------------
 BYTE   W92
 BYTE   W03
 BYTE   EOT
 BYTE   Gs2  v060
 BYTE   Ds3
 BYTE   W01
//  #02 //028   ----------------------------------------
Label_0100623C:
 BYTE   TIE  As2  v080
 BYTE   TIE  Dn3
 BYTE   TIE  Fn3
 BYTE   W96
 BYTE   PEND 
//  #02 //029   ----------------------------------------
 BYTE   W92
 BYTE   W03
 BYTE   EOT
 BYTE   As2  v062
 BYTE   Fn3
 BYTE   W01
//  #02 //030   ----------------------------------------
Label_0100624C:
 BYTE   N92  As2  v080
 BYTE   N92  Dn3
 BYTE   N92  Gn3
 BYTE   W96
 BYTE   PEND 
//  #02 //031   ----------------------------------------
Label_01006255:
 BYTE   N92  Cn3  v080
 BYTE   N92  En3
 BYTE   N92  Gn3
 BYTE   W96
 BYTE   PEND 
//  #02 //032   ----------------------------------------
 BYTE   PATT
  POIN2 Label_0100621C
//  #02 //033   ----------------------------------------
 BYTE   W92
 BYTE   W03
 BYTE   EOT
 BYTE   Gs2  v060
 BYTE   Fn3
 BYTE   W01
//  #02 //034   ----------------------------------------
 BYTE   PATT
  POIN2 Label_0100622C
//  #02 //035   ----------------------------------------
 BYTE   W92
 BYTE   W03
 BYTE   EOT
 BYTE   Gs2  v060
 BYTE   Ds3
 BYTE   W01
//  #02 //036   ----------------------------------------
 BYTE   PATT
  POIN2 Label_0100623C
//  #02 //037   ----------------------------------------
 BYTE   W92
 BYTE   W03
 BYTE   EOT
 BYTE   As2  v062
 BYTE   Fn3
 BYTE   W01
//  #02 //038   ----------------------------------------
 BYTE   PATT
  POIN2 Label_0100624C
//  #02 //039   ----------------------------------------
 BYTE   PATT
  POIN2 Label_01006255
//  #02 //040   ----------------------------------------
Label_0100628C:
 BYTE   N05  Fn2  v052
 BYTE   N05  Cn3
 BYTE   N05  Fn3
 BYTE   W12
 BYTE   Fn2
 BYTE   N05  Cn3
 BYTE   N05  Fn3
 BYTE   W06
 BYTE   Fn2
 BYTE   N05  Cn3
 BYTE   N05  Fn3
 BYTE   W18
 BYTE   Fn2
 BYTE   N05  Cn3
 BYTE   N05  Fn3
 BYTE   W12
 BYTE   Fn2
 BYTE   N05  Cn3
 BYTE   N05  Fn3
 BYTE   W06
 BYTE   Fn2
 BYTE   N05  Cn3
 BYTE   N05  Fn3
 BYTE   W18
 BYTE   Fn2
 BYTE   N05  Cn3
 BYTE   N05  Fn3
 BYTE   W12
 BYTE   Fn2
 BYTE   N05  Cn3
 BYTE   N05  Fn3
 BYTE   W06
 BYTE   Fn2
 BYTE   N05  Cn3
 BYTE   N05  Fn3
 BYTE   W06
 BYTE   PEND 
//  #02 //041   ----------------------------------------
Label_010062C5:
 BYTE   W12
 BYTE   N05  Fn2  v052
 BYTE   N05  Cn3
 BYTE   N05  Fn3
 BYTE   W12
 BYTE   Fn2
 BYTE   N05  Cn3
 BYTE   N05  Fn3
 BYTE   W06
 BYTE   Fn2
 BYTE   N05  Cn3
 BYTE   N05  Fn3
 BYTE   W18
 BYTE   Fn2
 BYTE   N05  Cn3
 BYTE   N05  Fn3
 BYTE   W06
 BYTE   Fn2
 BYTE   N05  Cn3
 BYTE   N05  Fn3
 BYTE   W18
 BYTE   Fn2
 BYTE   N05  Cn3
 BYTE   N05  Fn3
 BYTE   W06
 BYTE   Fn2
 BYTE   N05  Cn3
 BYTE   N05  Fn3
 BYTE   W18
 BYTE   PEND 
//  #02 //042   ----------------------------------------
 BYTE   PATT
  POIN2 Label_0100628C
//  #02 //043   ----------------------------------------
 BYTE   PATT
  POIN2 Label_010062C5
//  #02 //044   ----------------------------------------
 BYTE   PATT
  POIN2 Label_0100628C
//  #02 //045   ----------------------------------------
 BYTE   PATT
  POIN2 Label_010062C5
//  #02 //046   ----------------------------------------
 BYTE   PATT
  POIN2 Label_0100628C
//  #02 //047   ----------------------------------------
Label_0100630C:
 BYTE   W96
//  #02 //048   ----------------------------------------
 BYTE   PATT
  POIN2 Label_0100621C
//  #02 //049   ----------------------------------------
 BYTE   W92
 BYTE   W03
 BYTE   EOT
 BYTE   Gs2  v060
 BYTE   Fn3
 BYTE   W01
//  #02 //050   ----------------------------------------
 BYTE   PATT
  POIN2 Label_0100622C
//  #02 //051   ----------------------------------------
 BYTE   W92
 BYTE   W03
 BYTE   EOT
 BYTE   Gs2  v060
 BYTE   Ds3
 BYTE   W01
//  #02 //052   ----------------------------------------
 BYTE   PATT
  POIN2 Label_0100623C
//  #02 //053   ----------------------------------------
 BYTE   W92
 BYTE   W03
 BYTE   EOT
 BYTE   As2  v062
 BYTE   Fn3
 BYTE   W01
//  #02 //054   ----------------------------------------
Label_01006331:
 BYTE   N92  Fn2  v080
 BYTE   N92  Cn3
 BYTE   N92  Fn3
 BYTE   W96
 BYTE   PEND 
//  #02 //055   ----------------------------------------
Label_0100633A:
 BYTE   N92  Cn3  v080
 BYTE   N92  Gn3
 BYTE   N92  Cn4
 BYTE   W96
 BYTE   PEND 
//  #02 //056   ----------------------------------------
 BYTE   PATT
  POIN2 Label_0100621C
//  #02 //057   ----------------------------------------
 BYTE   W92
 BYTE   W03
 BYTE   EOT
 BYTE   Gs2  v060
 BYTE   Fn3
 BYTE   W01
//  #02 //058   ----------------------------------------
 BYTE   PATT
  POIN2 Label_0100622C
//  #02 //059   ----------------------------------------
 BYTE   W92
 BYTE   W03
 BYTE   EOT
 BYTE   Gs2  v060
 BYTE   Ds3
 BYTE   W01
//  #02 //060   ----------------------------------------
 BYTE   PATT
  POIN2 Label_0100623C
//  #02 //061   ----------------------------------------
 BYTE   W92
 BYTE   W03
 BYTE   EOT
 BYTE   As2  v062
 BYTE   Fn3
 BYTE   W01
//  #02 //062   ----------------------------------------
Label_01006367:
 BYTE   TIE  Fn2  v080
 BYTE   TIE  Cn3
 BYTE   TIE  Fn3
 BYTE   W96
 BYTE   PEND 
//  #02 //063   ----------------------------------------
 BYTE   W92
 BYTE   W03
 BYTE   EOT
 BYTE   Fn2  v060
 BYTE   Fn3
 BYTE   W01
//  #02 //064   ----------------------------------------
Label_01006377:
 BYTE   N11  Fn1  v080
 BYTE   N11  Cn2
 BYTE   W12
 BYTE   Fn1
 BYTE   N11  Cn2
 BYTE   W12
 BYTE   Fn1
 BYTE   N11  Cn2
 BYTE   W12
 BYTE   N05  Fn1
 BYTE   N05  Cn2
 BYTE   W06
 BYTE   Fn1
 BYTE   N05  Cn2
 BYTE   W06
 BYTE   N11  Fn1
 BYTE   N11  Cn2
 BYTE   W12
 BYTE   Fn1
 BYTE   N11  Cn2
 BYTE   W12
 BYTE   Fn1
 BYTE   N11  Cn2
 BYTE   W12
 BYTE   N05  Fn1
 BYTE   N05  Cn2
 BYTE   W06
 BYTE   Fn1
 BYTE   N05  Cn2
 BYTE   W06
 BYTE   PEND 
//  #02 //065   ----------------------------------------
 BYTE   PATT
  POIN2 Label_01006377
//  #02 //066   ----------------------------------------
Label_010063AA:
 BYTE   N11  Gs1  v080
 BYTE   N11  Ds2
 BYTE   W12
 BYTE   Gs1
 BYTE   N11  Ds2
 BYTE   W12
 BYTE   Gs1
 BYTE   N11  Ds2
 BYTE   W12
 BYTE   N05  Gs1
 BYTE   N05  Ds2
 BYTE   W06
 BYTE   Gs1
 BYTE   N05  Ds2
 BYTE   W06
 BYTE   N11  Gs1
 BYTE   N11  Ds2
 BYTE   W12
 BYTE   Gs1
 BYTE   N11  Ds2
 BYTE   W12
 BYTE   Gs1
 BYTE   N11  Ds2
 BYTE   W12
 BYTE   N05  Gs1
 BYTE   N05  Ds2
 BYTE   W06
 BYTE   Gs1
 BYTE   N05  Ds2
 BYTE   W06
 BYTE   PEND 
//  #02 //067   ----------------------------------------
 BYTE   PATT
  POIN2 Label_010063AA
//  #02 //068   ----------------------------------------
Label_010063DD:
 BYTE   N11  As1  v080
 BYTE   N11  Fn2
 BYTE   W12
 BYTE   As1
 BYTE   N11  Fn2
 BYTE   W12
 BYTE   As1
 BYTE   N11  Fn2
 BYTE   W12
 BYTE   N05  As1
 BYTE   N05  Fn2
 BYTE   W06
 BYTE   As1
 BYTE   N05  Fn2
 BYTE   W06
 BYTE   N11  As1
 BYTE   N11  Fn2
 BYTE   W12
 BYTE   As1
 BYTE   N11  Fn2
 BYTE   W12
 BYTE   As1
 BYTE   N11  Fn2
 BYTE   W12
 BYTE   N05  As1
 BYTE   N05  Fn2
 BYTE   W06
 BYTE   As1
 BYTE   N05  Fn2
 BYTE   W06
 BYTE   PEND 
//  #02 //069   ----------------------------------------
 BYTE   PATT
  POIN2 Label_010063DD
//  #02 //070   ----------------------------------------
Label_01006410:
 BYTE   N11  Fn1  v080
 BYTE   N11  Cn2
 BYTE   W12
 BYTE   Fn1
 BYTE   N11  Cn2
 BYTE   W24
 BYTE   N23  Fs1
 BYTE   N23  Cs2
 BYTE   W24
 BYTE   N05  Fs1
 BYTE   N05  Cs2
 BYTE   W06
 BYTE   Fs1
 BYTE   N05  Cs2
 BYTE   W06
 BYTE   N11  Fs1
 BYTE   N11  Cs2
 BYTE   W12
 BYTE   Fs1
 BYTE   N11  Cs2
 BYTE   W12
 BYTE   PEND 
//  #02 //071   ----------------------------------------
Label_01006432:
 BYTE   N11  Gn1  v080
 BYTE   N11  Dn2
 BYTE   W12
 BYTE   Gn1
 BYTE   N11  Dn2
 BYTE   W24
 BYTE   N23  Cn2
 BYTE   N23  Gn2
 BYTE   W24
 BYTE   N05  Cn2
 BYTE   N05  Gn2
 BYTE   W06
 BYTE   Cn2
 BYTE   N05  Gn2
 BYTE   W06
 BYTE   N11  Cn2
 BYTE   N11  Gn2
 BYTE   W12
 BYTE   Cn2
 BYTE   N11  Gn2
 BYTE   W12
 BYTE   PEND 
//  #02 //072   ----------------------------------------
 BYTE   PATT
  POIN2 Label_01006377
//  #02 //073   ----------------------------------------
 BYTE   PATT
  POIN2 Label_01006377
//  #02 //074   ----------------------------------------
 BYTE   PATT
  POIN2 Label_010063AA
//  #02 //075   ----------------------------------------
 BYTE   PATT
  POIN2 Label_010063AA
//  #02 //076   ----------------------------------------
 BYTE   PATT
  POIN2 Label_010063DD
//  #02 //077   ----------------------------------------
 BYTE   PATT
  POIN2 Label_010063DD
//  #02 //078   ----------------------------------------
 BYTE   PATT
  POIN2 Label_01006377
//  #02 //079   ----------------------------------------
 BYTE   PATT
  POIN2 Label_01006377
//  #02 //080   ----------------------------------------
Label_0100647C:
 BYTE   N05  Gs2  v052
 BYTE   N05  Cn3
 BYTE   N05  Fn3
 BYTE   W12
 BYTE   Gs2
 BYTE   N05  Cn3
 BYTE   N05  Fn3
 BYTE   W12
 BYTE   N11  Gs2
 BYTE   N11  Cn3
 BYTE   N11  Fn3
 BYTE   W12
 BYTE   N02  Gs2
 BYTE   N02  Cn3
 BYTE   N02  Fn3
 BYTE   W06
 BYTE   Gs2
 BYTE   N02  Cn3
 BYTE   N02  Fn3
 BYTE   W12
 BYTE   Gs2
 BYTE   N02  Cn3
 BYTE   N02  Fn3
 BYTE   W06
 BYTE   N05  Gs2
 BYTE   N05  Cn3
 BYTE   N05  Fn3
 BYTE   W12
 BYTE   N02  Gs2
 BYTE   N02  Cn3
 BYTE   N02  Fn3
 BYTE   W06
 BYTE   Gs2
 BYTE   N02  Cn3
 BYTE   N02  Fn3
 BYTE   W06
 BYTE   N05  Gs2
 BYTE   N05  Cn3
 BYTE   N05  Fn3
 BYTE   W12
 BYTE   PEND 
//  #02 //081   ----------------------------------------
Label_010064C0:
 BYTE   N05  Gs2  v052
 BYTE   N05  Cn3
 BYTE   N05  Ds3
 BYTE   W12
 BYTE   Gs2
 BYTE   N05  Cn3
 BYTE   N05  Ds3
 BYTE   W12
 BYTE   N11  Gs2
 BYTE   N11  Cn3
 BYTE   N11  Ds3
 BYTE   W12
 BYTE   N02  Gs2
 BYTE   N02  Cn3
 BYTE   N02  Ds3
 BYTE   W06
 BYTE   Gs2
 BYTE   N02  Cn3
 BYTE   N02  Ds3
 BYTE   W12
 BYTE   Gs2
 BYTE   N02  Cn3
 BYTE   N02  Ds3
 BYTE   W06
 BYTE   N05  Gs2
 BYTE   N05  Cn3
 BYTE   N05  Ds3
 BYTE   W12
 BYTE   N02  Gs2
 BYTE   N02  Cn3
 BYTE   N02  Ds3
 BYTE   W06
 BYTE   Gs2
 BYTE   N02  Cn3
 BYTE   N02  Ds3
 BYTE   W06
 BYTE   N05  Gs2
 BYTE   N05  Cn3
 BYTE   N05  Ds3
 BYTE   W12
 BYTE   PEND 
//  #02 //082   ----------------------------------------
Label_01006504:
 BYTE   N05  As2  v052
 BYTE   N05  Dn3
 BYTE   N05  Fn3
 BYTE   W12
 BYTE   As2
 BYTE   N05  Dn3
 BYTE   N05  Fn3
 BYTE   W12
 BYTE   N11  As2
 BYTE   N11  Dn3
 BYTE   N11  Fn3
 BYTE   W12
 BYTE   N02  As2
 BYTE   N02  Dn3
 BYTE   N02  Fn3
 BYTE   W06
 BYTE   As2
 BYTE   N02  Dn3
 BYTE   N02  Fn3
 BYTE   W12
 BYTE   As2
 BYTE   N02  Dn3
 BYTE   N02  Fn3
 BYTE   W06
 BYTE   N05  As2
 BYTE   N05  Dn3
 BYTE   N05  Fn3
 BYTE   W12
 BYTE   N02  As2
 BYTE   N02  Dn3
 BYTE   N02  Fn3
 BYTE   W06
 BYTE   As2
 BYTE   N02  Dn3
 BYTE   N02  Fn3
 BYTE   W06
 BYTE   N05  As2
 BYTE   N05  Dn3
 BYTE   N05  Fn3
 BYTE   W12
 BYTE   PEND 
//  #02 //083   ----------------------------------------
Label_01006548:
 BYTE   N05  Gn2  v052
 BYTE   N05  Cn3
 BYTE   N05  Fn3
 BYTE   W12
 BYTE   Gn2
 BYTE   N05  Cn3
 BYTE   N05  Fn3
 BYTE   W12
 BYTE   N11  Gn2
 BYTE   N11  Cn3
 BYTE   N11  Fn3
 BYTE   W12
 BYTE   N02  Gn2
 BYTE   N02  Cn3
 BYTE   N02  Fn3
 BYTE   W06
 BYTE   Gn2
 BYTE   N02  Cn3
 BYTE   N02  Fn3
 BYTE   W12
 BYTE   Gn2
 BYTE   N02  Cn3
 BYTE   N02  Fn3
 BYTE   W06
 BYTE   N05  Gn2
 BYTE   N05  Cn3
 BYTE   N05  Fn3
 BYTE   W12
 BYTE   N02  Gn2
 BYTE   N02  Cn3
 BYTE   N02  Fn3
 BYTE   W06
 BYTE   Gn2
 BYTE   N02  Cn3
 BYTE   N02  Fn3
 BYTE   W06
 BYTE   N05  Gn2
 BYTE   N05  Cn3
 BYTE   N05  Fn3
 BYTE   W12
 BYTE   PEND 
//  #02 //084   ----------------------------------------
 BYTE   PATT
  POIN2 Label_0100647C
//  #02 //085   ----------------------------------------
 BYTE   PATT
  POIN2 Label_010064C0
//  #02 //086   ----------------------------------------
 BYTE   PATT
  POIN2 Label_01006504
//  #02 //087   ----------------------------------------
 BYTE   PATT
  POIN2 Label_01006548
//  #02 //088   ----------------------------------------
 BYTE   PATT
  POIN2 Label_0100621C
//  #02 //089   ----------------------------------------
 BYTE   W92
 BYTE   W03
 BYTE   EOT
 BYTE   Gs2  v060
 BYTE   Fn3
 BYTE   W01
//  #02 //090   ----------------------------------------
 BYTE   PATT
  POIN2 Label_0100622C
//  #02 //091   ----------------------------------------
 BYTE   W92
 BYTE   W03
 BYTE   EOT
 BYTE   Gs2  v060
 BYTE   Ds3
 BYTE   W01
//  #02 //092   ----------------------------------------
 BYTE   PATT
  POIN2 Label_0100623C
//  #02 //093   ----------------------------------------
 BYTE   W92
 BYTE   W03
 BYTE   EOT
 BYTE   As2  v062
 BYTE   Fn3
 BYTE   W01
//  #02 //094   ----------------------------------------
 BYTE   PATT
  POIN2 Label_0100624C
//  #02 //095   ----------------------------------------
 BYTE   PATT
  POIN2 Label_01006255
//  #02 //096   ----------------------------------------
 BYTE   PATT
  POIN2 Label_0100621C
//  #02 //097   ----------------------------------------
 BYTE   W92
 BYTE   W03
 BYTE   EOT
 BYTE   Gs2  v060
 BYTE   Fn3
 BYTE   W01
//  #02 //098   ----------------------------------------
 BYTE   PATT
  POIN2 Label_0100622C
//  #02 //099   ----------------------------------------
 BYTE   W92
 BYTE   W03
 BYTE   EOT
 BYTE   Gs2  v060
 BYTE   Ds3
 BYTE   W01
//  #02 //100   ----------------------------------------
 BYTE   PATT
  POIN2 Label_0100623C
//  #02 //101   ----------------------------------------
 BYTE   W92
 BYTE   W03
 BYTE   EOT
 BYTE   As2  v062
 BYTE   Fn3
 BYTE   W01
//  #02 //102   ----------------------------------------
 BYTE   PATT
  POIN2 Label_0100624C
//  #02 //103   ----------------------------------------
 BYTE   PATT
  POIN2 Label_01006255
//  #02 //104   ----------------------------------------
 BYTE   PATT
  POIN2 Label_0100628C
//  #02 //105   ----------------------------------------
 BYTE   PATT
  POIN2 Label_010062C5
//  #02 //106   ----------------------------------------
 BYTE   PATT
  POIN2 Label_0100628C
//  #02 //107   ----------------------------------------
 BYTE   PATT
  POIN2 Label_010062C5
//  #02 //108   ----------------------------------------
 BYTE   PATT
  POIN2 Label_0100628C
//  #02 //109   ----------------------------------------
 BYTE   PATT
  POIN2 Label_010062C5
//  #02 //110   ----------------------------------------
 BYTE   PATT
  POIN2 Label_0100628C
//  #02 //111   ----------------------------------------
 BYTE   GoTo
  POIN2 Label_0100630C
//  #02 //112   ----------------------------------------
 BYTE   W96
//  #02 //113   ----------------------------------------
 BYTE   PATT
  POIN2 Label_0100621C
//  #02 //114   ----------------------------------------
 BYTE   W92
 BYTE   W03
 BYTE   EOT
 BYTE   Gs2  v060
 BYTE   Fn3
 BYTE   W01
//  #02 //115   ----------------------------------------
 BYTE   PATT
  POIN2 Label_0100622C
//  #02 //116   ----------------------------------------
 BYTE   W92
 BYTE   W03
 BYTE   EOT
 BYTE   Gs2  v060
 BYTE   Ds3
 BYTE   W01
//  #02 //117   ----------------------------------------
 BYTE   PATT
  POIN2 Label_0100623C
//  #02 //118   ----------------------------------------
 BYTE   W92
 BYTE   W03
 BYTE   EOT
 BYTE   As2  v062
 BYTE   Fn3
 BYTE   W01
//  #02 //119   ----------------------------------------
 BYTE   PATT
  POIN2 Label_01006331
//  #02 //120   ----------------------------------------
 BYTE   PATT
  POIN2 Label_0100633A
//  #02 //121   ----------------------------------------
 BYTE   PATT
  POIN2 Label_0100621C
//  #02 //122   ----------------------------------------
 BYTE   W92
 BYTE   W03
 BYTE   EOT
 BYTE   Gs2  v060
 BYTE   Fn3
 BYTE   W01
//  #02 //123   ----------------------------------------
 BYTE   PATT
  POIN2 Label_0100622C
//  #02 //124   ----------------------------------------
 BYTE   W92
 BYTE   W03
 BYTE   EOT
 BYTE   Gs2  v060
 BYTE   Ds3
 BYTE   W01
//  #02 //125   ----------------------------------------
 BYTE   PATT
  POIN2 Label_0100623C
//  #02 //126   ----------------------------------------
 BYTE   W92
 BYTE   W03
 BYTE   EOT
 BYTE   As2  v062
 BYTE   Fn3
 BYTE   W01
//  #02 //127   ----------------------------------------
 BYTE   PATT
  POIN2 Label_01006367
//  #02 //128   ----------------------------------------
 BYTE   W92
 BYTE   W03
 BYTE   EOT
 BYTE   Fn2  v060
 BYTE   Fn3
 BYTE   W01
//  #02 //129   ----------------------------------------
 BYTE   PATT
  POIN2 Label_01006377
//  #02 //130   ----------------------------------------
 BYTE   PATT
  POIN2 Label_01006377
//  #02 //131   ----------------------------------------
 BYTE   PATT
  POIN2 Label_010063AA
//  #02 //132   ----------------------------------------
 BYTE   PATT
  POIN2 Label_010063AA
//  #02 //133   ----------------------------------------
 BYTE   PATT
  POIN2 Label_010063DD
//  #02 //134   ----------------------------------------
 BYTE   PATT
  POIN2 Label_010063DD
//  #02 //135   ----------------------------------------
 BYTE   PATT
  POIN2 Label_01006410
//  #02 //136   ----------------------------------------
 BYTE   PATT
  POIN2 Label_01006432
//  #02 //137   ----------------------------------------
 BYTE   PATT
  POIN2 Label_01006377
//  #02 //138   ----------------------------------------
 BYTE   PATT
  POIN2 Label_01006377
//  #02 //139   ----------------------------------------
 BYTE   PATT
  POIN2 Label_010063AA
//  #02 //140   ----------------------------------------
 BYTE   PATT
  POIN2 Label_010063AA
//  #02 //141   ----------------------------------------
 BYTE   PATT
  POIN2 Label_010063DD
//  #02 //142   ----------------------------------------
 BYTE   PATT
  POIN2 Label_010063DD
//  #02 //143   ----------------------------------------
 BYTE   PATT
  POIN2 Label_01006377
//  #02 //144   ----------------------------------------
 BYTE   N11  Fn1  v080
 BYTE   N11  Cn2
 BYTE   W12
 BYTE   Fn1
 BYTE   N11  Cn2
 BYTE   W12
 BYTE   Fn1
 BYTE   N11  Cn2
 BYTE   W12
 BYTE   N05  Fn1
 BYTE   N05  Cn2
 BYTE   W06
 BYTE   Fn1
 BYTE   N05  Cn2
 BYTE   W06
 BYTE   N11  Fn1
 BYTE   N11  Cn2
 BYTE   W12
 BYTE   Fn1
 BYTE   N11  Cn2
 BYTE   W12
 BYTE   Fn1
 BYTE   N11  Cn2
 BYTE   W12
 BYTE   N05  Fn1
 BYTE   N05  Cn2
 BYTE   W06
 BYTE   Fn1
 BYTE   N05  Cn2
 BYTE   W05
 BYTE   FINE

//**************** Track 3 (Midi-Chn.2) ****************//

LifeWillChange_003:
//  #03 //000   ----------------------------------------
 BYTE   KEYSH   LifeWillChange_key+0
 BYTE   VOICE   40
 BYTE   VOL   32*LifeWillChange_mvl/mxv
 BYTE   PAN   c_v+0
 BYTE   VOL   23*LifeWillChange_mvl/mxv
 BYTE   PAN   c_v+0
 BYTE   VOL   35*LifeWillChange_mvl/mxv
 BYTE   PAN   c_v+0
 BYTE   W96
//  #03 //001   ----------------------------------------
 BYTE   W96
//  #03 //002   ----------------------------------------
 BYTE   W96
//  #03 //003   ----------------------------------------
 BYTE   W96
//  #03 //004   ----------------------------------------
 BYTE   W96
//  #03 //005   ----------------------------------------
 BYTE   W96
//  #03 //006   ----------------------------------------
 BYTE   W96
//  #03 //007   ----------------------------------------
 BYTE   W96
//  #03 //008   ----------------------------------------
 BYTE   W96
//  #03 //009   ----------------------------------------
 BYTE   W96
//  #03 //010   ----------------------------------------
 BYTE   W96
//  #03 //011   ----------------------------------------
 BYTE   W96
//  #03 //012   ----------------------------------------
 BYTE   W96
//  #03 //013   ----------------------------------------
 BYTE   W96
//  #03 //014   ----------------------------------------
 BYTE   W96
//  #03 //015   ----------------------------------------
 BYTE   W96
//  #03 //016   ----------------------------------------
 BYTE   W96
//  #03 //017   ----------------------------------------
 BYTE   W96
//  #03 //018   ----------------------------------------
 BYTE   W96
//  #03 //019   ----------------------------------------
 BYTE   W96
//  #03 //020   ----------------------------------------
 BYTE   W96
//  #03 //021   ----------------------------------------
 BYTE   W96
//  #03 //022   ----------------------------------------
Label_010059CE:
 BYTE   W48
 BYTE   N92  Fn4  v052
 BYTE   W48
 BYTE   PEND 
//  #03 //023   ----------------------------------------
Label_010059D4:
 BYTE   W48
 BYTE   N44  En4  v052
 BYTE   W48
 BYTE   PEND 
//  #03 //024   ----------------------------------------
Label_010059DA:
 BYTE   N11  Fn4  v112
 BYTE   W60
 BYTE   N05  Ds4
 BYTE   W06
 BYTE   Fn4
 BYTE   W18
 BYTE   As3
 BYTE   W06
 BYTE   Cn4
 BYTE   W06
 BYTE   PEND 
//  #03 //025   ----------------------------------------
Label_010059E8:
 BYTE   W30
 BYTE   N05  Ds3  v112
 BYTE   W06
 BYTE   Fn3
 BYTE   W06
 BYTE   Ds3
 BYTE   W06
 BYTE   Cn3
 BYTE   W06
 BYTE   N11  As2
 BYTE   W12
 BYTE   Gs2
 BYTE   W12
 BYTE   N17  Fn2
 BYTE   W18
 BYTE   PEND 
//  #03 //026   ----------------------------------------
Label_010059FC:
 BYTE   W60
 BYTE   N05  Ds4  v112
 BYTE   W06
 BYTE   Fn4
 BYTE   W18
 BYTE   As3
 BYTE   W06
 BYTE   Cn4
 BYTE   W06
 BYTE   PEND 
//  #03 //027   ----------------------------------------
Label_01005A08:
 BYTE   W30
 BYTE   N05  Fn3  v112
 BYTE   W06
 BYTE   Ds3
 BYTE   W06
 BYTE   Fn3
 BYTE   W06
 BYTE   Gs3
 BYTE   W06
 BYTE   N11  As3
 BYTE   W12
 BYTE   Cn4
 BYTE   W12
 BYTE   N17  Ds4
 BYTE   W18
 BYTE   PEND 
//  #03 //028   ----------------------------------------
Label_01005A1C:
 BYTE   N11  Fn4  v112
 BYTE   W60
 BYTE   N05  Ds5
 BYTE   W06
 BYTE   Fn5
 BYTE   W18
 BYTE   As4
 BYTE   W06
 BYTE   Cn5
 BYTE   W06
 BYTE   PEND 
//  #03 //029   ----------------------------------------
Label_01005A2A:
 BYTE   W12
 BYTE   N05  Ds4  v112
 BYTE   W06
 BYTE   Fn4
 BYTE   W18
 BYTE   As3
 BYTE   W06
 BYTE   Cn4
 BYTE   W54
 BYTE   PEND 
//  #03 //030   ----------------------------------------
Label_01005A36:
 BYTE   W24
 BYTE   N23  Gn3  v112
 BYTE   W24
 BYTE   As3
 BYTE   W24
 BYTE   Dn4
 BYTE   W24
 BYTE   PEND 
//  #03 //031   ----------------------------------------
 BYTE   N44  Ds4
 BYTE   W48
 BYTE   En4
 BYTE   W48
//  #03 //032   ----------------------------------------
 BYTE   PATT
  POIN2 Label_010059DA
//  #03 //033   ----------------------------------------
 BYTE   PATT
  POIN2 Label_010059E8
//  #03 //034   ----------------------------------------
 BYTE   PATT
  POIN2 Label_010059FC
//  #03 //035   ----------------------------------------
 BYTE   PATT
  POIN2 Label_01005A08
//  #03 //036   ----------------------------------------
 BYTE   PATT
  POIN2 Label_01005A1C
//  #03 //037   ----------------------------------------
 BYTE   PATT
  POIN2 Label_01005A2A
//  #03 //038   ----------------------------------------
 BYTE   PATT
  POIN2 Label_01005A36
//  #03 //039   ----------------------------------------
 BYTE   N92  En4  v112
 BYTE   W96
//  #03 //040   ----------------------------------------
 BYTE   W96
//  #03 //041   ----------------------------------------
 BYTE   W96
//  #03 //042   ----------------------------------------
 BYTE   W96
//  #03 //043   ----------------------------------------
 BYTE   W96
//  #03 //044   ----------------------------------------
 BYTE   W96
//  #03 //045   ----------------------------------------
 BYTE   W96
//  #03 //046   ----------------------------------------
 BYTE   W96
//  #03 //047   ----------------------------------------
Label_01005A73:
 BYTE   W96
//  #03 //048   ----------------------------------------
Label_01005A74:
 BYTE   N11  Fn4  v112
 BYTE   W60
 BYTE   N05  Ds4
 BYTE   W06
 BYTE   Fn4
 BYTE   W18
 BYTE   As3
 BYTE   W06
 BYTE   Cn4
 BYTE   W06
 BYTE   PEND 
//  #03 //049   ----------------------------------------
Label_01005A82:
 BYTE   W30
 BYTE   N05  Ds3  v112
 BYTE   W06
 BYTE   Fn3
 BYTE   W06
 BYTE   Ds3
 BYTE   W06
 BYTE   Cn3
 BYTE   W06
 BYTE   N11  As2
 BYTE   W12
 BYTE   Gs2
 BYTE   W06
 BYTE   W06
 BYTE   N17  Fn2
 BYTE   W18
 BYTE   PEND 
//  #03 //050   ----------------------------------------
Label_01005A97:
 BYTE   W60
 BYTE   N05  Ds4  v112
 BYTE   W06
 BYTE   Fn4
 BYTE   W18
 BYTE   As3
 BYTE   W06
 BYTE   Cn4
 BYTE   W06
 BYTE   PEND 
//  #03 //051   ----------------------------------------
Label_01005AA3:
 BYTE   W30
 BYTE   N05  Fn3  v112
 BYTE   W06
 BYTE   Ds3
 BYTE   W06
 BYTE   Fn3
 BYTE   W06
 BYTE   Gs3
 BYTE   W06
 BYTE   N11  As3
 BYTE   W12
 BYTE   Cn4
 BYTE   W06
 BYTE   W06
 BYTE   N17  Ds4
 BYTE   W18
 BYTE   PEND 
//  #03 //052   ----------------------------------------
Label_01005AB8:
 BYTE   N11  Fn4  v112
 BYTE   W60
 BYTE   N05  Ds5
 BYTE   W06
 BYTE   Fn5
 BYTE   W18
 BYTE   As4
 BYTE   W06
 BYTE   Cn5
 BYTE   W06
 BYTE   PEND 
//  #03 //053   ----------------------------------------
Label_01005AC6:
 BYTE   W12
 BYTE   N05  Ds4  v112
 BYTE   W06
 BYTE   Fn4
 BYTE   W18
 BYTE   As3
 BYTE   W06
 BYTE   Cn4
 BYTE   W54
 BYTE   PEND 
//  #03 //054   ----------------------------------------
 BYTE   W96
//  #03 //055   ----------------------------------------
 BYTE   W96
//  #03 //056   ----------------------------------------
 BYTE   PATT
  POIN2 Label_01005A74
//  #03 //057   ----------------------------------------
 BYTE   PATT
  POIN2 Label_01005A82
//  #03 //058   ----------------------------------------
 BYTE   PATT
  POIN2 Label_01005A97
//  #03 //059   ----------------------------------------
 BYTE   PATT
  POIN2 Label_01005AA3
//  #03 //060   ----------------------------------------
 BYTE   PATT
  POIN2 Label_01005AB8
//  #03 //061   ----------------------------------------
 BYTE   PATT
  POIN2 Label_01005AC6
//  #03 //062   ----------------------------------------
 BYTE   W96
//  #03 //063   ----------------------------------------
 BYTE   W96
//  #03 //064   ----------------------------------------
 BYTE   W96
//  #03 //065   ----------------------------------------
 BYTE   W96
//  #03 //066   ----------------------------------------
 BYTE   W96
//  #03 //067   ----------------------------------------
 BYTE   W96
//  #03 //068   ----------------------------------------
 BYTE   W96
//  #03 //069   ----------------------------------------
 BYTE   W96
//  #03 //070   ----------------------------------------
 BYTE   W96
//  #03 //071   ----------------------------------------
 BYTE   W96
//  #03 //072   ----------------------------------------
 BYTE   W96
//  #03 //073   ----------------------------------------
 BYTE   W96
//  #03 //074   ----------------------------------------
 BYTE   W96
//  #03 //075   ----------------------------------------
 BYTE   W96
//  #03 //076   ----------------------------------------
 BYTE   W96
//  #03 //077   ----------------------------------------
 BYTE   W96
//  #03 //078   ----------------------------------------
 BYTE   W96
//  #03 //079   ----------------------------------------
 BYTE   W96
//  #03 //080   ----------------------------------------
 BYTE   W96
//  #03 //081   ----------------------------------------
 BYTE   W96
//  #03 //082   ----------------------------------------
 BYTE   W96
//  #03 //083   ----------------------------------------
 BYTE   W96
//  #03 //084   ----------------------------------------
 BYTE   W96
//  #03 //085   ----------------------------------------
 BYTE   W96
//  #03 //086   ----------------------------------------
 BYTE   PATT
  POIN2 Label_010059CE
//  #03 //087   ----------------------------------------
 BYTE   PATT
  POIN2 Label_010059D4
//  #03 //088   ----------------------------------------
 BYTE   N11  Fn4  v052
 BYTE   W60
 BYTE   N05  Ds4  v096
 BYTE   W06
 BYTE   Fn4
 BYTE   W18
 BYTE   As3
 BYTE   W06
 BYTE   Cn4
 BYTE   W06
//  #03 //089   ----------------------------------------
Label_01005B22:
 BYTE   W30
 BYTE   N05  Ds3  v096
 BYTE   W06
 BYTE   Fn3
 BYTE   W06
 BYTE   Ds3
 BYTE   W06
 BYTE   Cn3
 BYTE   W06
 BYTE   N11  As2
 BYTE   W12
 BYTE   Gs2
 BYTE   W12
 BYTE   N17  Fn2
 BYTE   W18
 BYTE   PEND 
//  #03 //090   ----------------------------------------
Label_01005B36:
 BYTE   W60
 BYTE   N05  Ds4  v096
 BYTE   W06
 BYTE   Fn4
 BYTE   W18
 BYTE   As3
 BYTE   W06
 BYTE   Cn4
 BYTE   W06
 BYTE   PEND 
//  #03 //091   ----------------------------------------
Label_01005B42:
 BYTE   W30
 BYTE   N05  Fn3  v096
 BYTE   W06
 BYTE   Ds3
 BYTE   W06
 BYTE   Fn3
 BYTE   W06
 BYTE   Gs3
 BYTE   W06
 BYTE   N11  As3
 BYTE   W12
 BYTE   Cn4
 BYTE   W12
 BYTE   N17  Ds4
 BYTE   W18
 BYTE   PEND 
//  #03 //092   ----------------------------------------
Label_01005B56:
 BYTE   N11  Fn4  v096
 BYTE   W60
 BYTE   N05  Ds5
 BYTE   W06
 BYTE   Fn5
 BYTE   W18
 BYTE   As4
 BYTE   W06
 BYTE   Cn5
 BYTE   W06
 BYTE   PEND 
//  #03 //093   ----------------------------------------
Label_01005B64:
 BYTE   W12
 BYTE   N05  Ds4  v096
 BYTE   W06
 BYTE   Fn4
 BYTE   W18
 BYTE   As3
 BYTE   W06
 BYTE   Cn4
 BYTE   W54
 BYTE   PEND 
//  #03 //094   ----------------------------------------
Label_01005B70:
 BYTE   W24
 BYTE   N23  Gn3  v096
 BYTE   W24
 BYTE   As3
 BYTE   W24
 BYTE   Dn4
 BYTE   W24
 BYTE   PEND 
//  #03 //095   ----------------------------------------
 BYTE   N44  Ds4
 BYTE   W48
 BYTE   En4
 BYTE   W48
//  #03 //096   ----------------------------------------
 BYTE   N11  Fn4
 BYTE   W60
 BYTE   N05  Ds4
 BYTE   W06
 BYTE   Fn4
 BYTE   W18
 BYTE   As3
 BYTE   W06
 BYTE   Cn4
 BYTE   W06
//  #03 //097   ----------------------------------------
 BYTE   PATT
  POIN2 Label_01005B22
//  #03 //098   ----------------------------------------
 BYTE   PATT
  POIN2 Label_01005B36
//  #03 //099   ----------------------------------------
 BYTE   PATT
  POIN2 Label_01005B42
//  #03 //100   ----------------------------------------
 BYTE   PATT
  POIN2 Label_01005B56
//  #03 //101   ----------------------------------------
 BYTE   PATT
  POIN2 Label_01005B64
//  #03 //102   ----------------------------------------
 BYTE   PATT
  POIN2 Label_01005B70
//  #03 //103   ----------------------------------------
 BYTE   N92  En4  v096
 BYTE   W96
//  #03 //104   ----------------------------------------
 BYTE   W96
//  #03 //105   ----------------------------------------
 BYTE   W96
//  #03 //106   ----------------------------------------
 BYTE   W96
//  #03 //107   ----------------------------------------
 BYTE   W96
//  #03 //108   ----------------------------------------
 BYTE   W96
//  #03 //109   ----------------------------------------
 BYTE   W96
//  #03 //110   ----------------------------------------
 BYTE   W96
//  #03 //111   ----------------------------------------
 BYTE   GoTo
  POIN2 Label_01005A73
//  #03 //112   ----------------------------------------
 BYTE   W96
//  #03 //113   ----------------------------------------
Label_01005BBA:
 BYTE   N11  Fn4  v096
 BYTE   W60
 BYTE   N05  Ds4
 BYTE   W06
 BYTE   Fn4
 BYTE   W18
 BYTE   As3
 BYTE   W06
 BYTE   Cn4
 BYTE   W06
 BYTE   PEND 
//  #03 //114   ----------------------------------------
Label_01005BC8:
 BYTE   W30
 BYTE   N05  Ds3  v096
 BYTE   W06
 BYTE   Fn3
 BYTE   W06
 BYTE   Ds3
 BYTE   W06
 BYTE   Cn3
 BYTE   W06
 BYTE   N11  As2
 BYTE   W12
 BYTE   Gs2
 BYTE   W06
 BYTE   W06
 BYTE   N17  Fn2
 BYTE   W18
 BYTE   PEND 
//  #03 //115   ----------------------------------------
Label_01005BDD:
 BYTE   W60
 BYTE   N05  Ds4  v096
 BYTE   W06
 BYTE   Fn4
 BYTE   W18
 BYTE   As3
 BYTE   W06
 BYTE   Cn4
 BYTE   W06
 BYTE   PEND 
//  #03 //116   ----------------------------------------
Label_01005BE9:
 BYTE   W30
 BYTE   N05  Fn3  v096
 BYTE   W06
 BYTE   Ds3
 BYTE   W06
 BYTE   Fn3
 BYTE   W06
 BYTE   Gs3
 BYTE   W06
 BYTE   N11  As3
 BYTE   W12
 BYTE   Cn4
 BYTE   W06
 BYTE   W06
 BYTE   N17  Ds4
 BYTE   W18
 BYTE   PEND 
//  #03 //117   ----------------------------------------
Label_01005BFE:
 BYTE   N11  Fn4  v096
 BYTE   W60
 BYTE   N05  Ds5
 BYTE   W06
 BYTE   Fn5
 BYTE   W18
 BYTE   As4
 BYTE   W06
 BYTE   Cn5
 BYTE   W06
 BYTE   PEND 
//  #03 //118   ----------------------------------------
Label_01005C0C:
 BYTE   W12
 BYTE   N05  Ds4  v096
 BYTE   W06
 BYTE   Fn4
 BYTE   W18
 BYTE   As3
 BYTE   W06
 BYTE   Cn4
 BYTE   W54
 BYTE   PEND 
//  #03 //119   ----------------------------------------
 BYTE   W96
//  #03 //120   ----------------------------------------
 BYTE   W96
//  #03 //121   ----------------------------------------
 BYTE   PATT
  POIN2 Label_01005BBA
//  #03 //122   ----------------------------------------
 BYTE   PATT
  POIN2 Label_01005BC8
//  #03 //123   ----------------------------------------
 BYTE   PATT
  POIN2 Label_01005BDD
//  #03 //124   ----------------------------------------
 BYTE   PATT
  POIN2 Label_01005BE9
//  #03 //125   ----------------------------------------
 BYTE   PATT
  POIN2 Label_01005BFE
//  #03 //126   ----------------------------------------
 BYTE   PATT
  POIN2 Label_01005C0C
//  #03 //127   ----------------------------------------
 BYTE   W96
//  #03 //128   ----------------------------------------
 BYTE   W96
//  #03 //129   ----------------------------------------
 BYTE   W96
//  #03 //130   ----------------------------------------
 BYTE   W96
//  #03 //131   ----------------------------------------
 BYTE   W96
//  #03 //132   ----------------------------------------
 BYTE   W96
//  #03 //133   ----------------------------------------
 BYTE   W96
//  #03 //134   ----------------------------------------
 BYTE   W96
//  #03 //135   ----------------------------------------
 BYTE   W96
//  #03 //136   ----------------------------------------
 BYTE   W96
//  #03 //137   ----------------------------------------
 BYTE   W96
//  #03 //138   ----------------------------------------
 BYTE   W96
//  #03 //139   ----------------------------------------
 BYTE   W96
//  #03 //140   ----------------------------------------
 BYTE   W96
//  #03 //141   ----------------------------------------
 BYTE   W96
//  #03 //142   ----------------------------------------
 BYTE   W96
//  #03 //143   ----------------------------------------
 BYTE   W96
//  #03 //144   ----------------------------------------
 BYTE   W92
 BYTE   W03
 BYTE   FINE

//**************** Track 4 (Midi-Chn.3) ****************//

LifeWillChange_004:
//  #04 //000   ----------------------------------------
 BYTE   KEYSH   LifeWillChange_key+0
 BYTE   VOICE   18
 BYTE   VOL   35*LifeWillChange_mvl/mxv
 BYTE   PAN   c_v+0
 BYTE   VOL   27*LifeWillChange_mvl/mxv
 BYTE   PAN   c_v+0
 BYTE   VOL   23*LifeWillChange_mvl/mxv
 BYTE   PAN   c_v+0
 BYTE   W96
//  #04 //001   ----------------------------------------
 BYTE   W96
//  #04 //002   ----------------------------------------
 BYTE   W96
//  #04 //003   ----------------------------------------
 BYTE   W96
//  #04 //004   ----------------------------------------
 BYTE   W96
//  #04 //005   ----------------------------------------
 BYTE   W96
//  #04 //006   ----------------------------------------
 BYTE   W96
//  #04 //007   ----------------------------------------
 BYTE   W96
//  #04 //008   ----------------------------------------
 BYTE   W96
//  #04 //009   ----------------------------------------
 BYTE   W96
//  #04 //010   ----------------------------------------
 BYTE   W96
//  #04 //011   ----------------------------------------
 BYTE   W96
//  #04 //012   ----------------------------------------
 BYTE   W96
//  #04 //013   ----------------------------------------
 BYTE   W96
//  #04 //014   ----------------------------------------
 BYTE   W96
//  #04 //015   ----------------------------------------
 BYTE   W96
//  #04 //016   ----------------------------------------
 BYTE   W96
//  #04 //017   ----------------------------------------
 BYTE   W96
//  #04 //018   ----------------------------------------
 BYTE   W96
//  #04 //019   ----------------------------------------
 BYTE   W96
//  #04 //020   ----------------------------------------
 BYTE   W96
//  #04 //021   ----------------------------------------
 BYTE   W96
//  #04 //022   ----------------------------------------
 BYTE   W96
//  #04 //023   ----------------------------------------
 BYTE   W96
//  #04 //024   ----------------------------------------
Label_01007050:
 BYTE   TIE  Fn4  v036
 BYTE   TIE  Gs4
 BYTE   TIE  Cn5
 BYTE   W96
 BYTE   PEND 
//  #04 //025   ----------------------------------------
Label_01007059:
 BYTE   W92
 BYTE   W03
 BYTE   PEND 
 BYTE   EOT
 BYTE   Fn4  v080
 BYTE   Cn5
 BYTE   W01
//  #04 //026   ----------------------------------------
Label_01007061:
 BYTE   TIE  Gs4  v036
 BYTE   TIE  Cn5
 BYTE   TIE  Ds5
 BYTE   W96
 BYTE   PEND 
//  #04 //027   ----------------------------------------
 BYTE   PATT
  POIN2 Label_01007059
//  #04 //028   ----------------------------------------
 BYTE   EOT
 BYTE   Gs4  v084
 BYTE   Ds5
 BYTE   W01
Label_01007074:
 BYTE   TIE  As4  v036
 BYTE   TIE  Dn5
 BYTE   TIE  Fn5
 BYTE   W96
 BYTE   PEND 
//  #04 //029   ----------------------------------------
 BYTE   PATT
  POIN2 Label_01007059
//  #04 //030   ----------------------------------------
 BYTE   EOT
 BYTE   As4  v086
 BYTE   Fn5
 BYTE   W01
Label_01007087:
 BYTE   N92  As3  v036
 BYTE   N92  Dn4
 BYTE   N92  Gn4
 BYTE   W96
 BYTE   PEND 
//  #04 //031   ----------------------------------------
Label_01007090:
 BYTE   N92  En4  v036
 BYTE   N92  Gn4
 BYTE   N92  Cn5
 BYTE   W96
 BYTE   PEND 
//  #04 //032   ----------------------------------------
Label_01007099:
 BYTE   TIE  Gs4  v064
 BYTE   TIE  Cn5
 BYTE   TIE  Fn5
 BYTE   W96
 BYTE   PEND 
//  #04 //033   ----------------------------------------
 BYTE   W96
//  #04 //034   ----------------------------------------
 BYTE   W96
//  #04 //035   ----------------------------------------
Label_010070A4:
 BYTE   W92
 BYTE   W03
 BYTE   PEND 
 BYTE   EOT
 BYTE   Gs4  v084
 BYTE   Fn5
 BYTE   W01
//  #04 //036   ----------------------------------------
Label_010070AC:
 BYTE   TIE  As4  v064
 BYTE   TIE  Dn5
 BYTE   W96
 BYTE   PEND 
//  #04 //037   ----------------------------------------
 BYTE   PATT
  POIN2 Label_010070A4
//  #04 //038   ----------------------------------------
 BYTE   EOT
 BYTE   As4  v086
 BYTE   W01
Label_010070BC:
 BYTE   N92  Gn4  v064
 BYTE   N92  As4
 BYTE   N92  Dn5
 BYTE   W96
 BYTE   PEND 
//  #04 //039   ----------------------------------------
Label_010070C5:
 BYTE   N92  Gn4  v064
 BYTE   N92  Cn5
 BYTE   N92  En5
 BYTE   W96
 BYTE   PEND 
//  #04 //040   ----------------------------------------
 BYTE   W96
//  #04 //041   ----------------------------------------
 BYTE   W96
//  #04 //042   ----------------------------------------
 BYTE   W96
//  #04 //043   ----------------------------------------
 BYTE   W96
//  #04 //044   ----------------------------------------
Label_010070D2:
 BYTE   N03  Fn3  v096
 BYTE   W03
 BYTE   TIE  Fn4
 BYTE   W92
 BYTE   W01
 BYTE   PEND 
//  #04 //045   ----------------------------------------
 BYTE   W11
 BYTE   EOT
 BYTE   W01
 BYTE   N03  Ds4
 BYTE   W03
 BYTE   N14  Fn4
 BYTE   W15
 BYTE   N03  Ds4
 BYTE   W03
 BYTE   N14  Fn4
 BYTE   W15
 BYTE   N03  Ds4
 BYTE   W03
 BYTE   N14  Fn4
 BYTE   W15
 BYTE   N02  Ds4
 BYTE   W03
 BYTE   N14  Fn4
 BYTE   W15
 BYTE   N03  Ds4
 BYTE   W03
 BYTE   N08  Fn4
 BYTE   W09
//  #04 //046   ----------------------------------------
Label_010070FC:
 BYTE   N03  Ds4  v096
 BYTE   W03
 BYTE   N92  Fn4
 BYTE   N92  Gs4
 BYTE   W92
 BYTE   W01
 BYTE   PEND 
//  #04 //047   ----------------------------------------
Label_01007107:
 BYTE   N01  Gn4  v096
 BYTE   N01  Gs4
 BYTE   W01
 BYTE   Fs4
 BYTE   W02
 BYTE   En4
 BYTE   N08  Fn4
 BYTE   W01
 BYTE   N01  Ds4
 BYTE   W02
 BYTE   Cs4
 BYTE   N01  Dn4
 BYTE   W01
 BYTE   Cn4
 BYTE   W02
 BYTE   As3
 BYTE   N01  Bn3
 BYTE   W01
 BYTE   An3
 BYTE   W02
 BYTE   N11  Gs3
 BYTE   W84
 BYTE   PEND 
//  #04 //048   ----------------------------------------
Label_01007126:
 BYTE   N80  Cn5  v080
 BYTE   W72
 BYTE   W12
 BYTE   N11
 BYTE   W12
 BYTE   PEND 
//  #04 //049   ----------------------------------------
Label_0100712E:
 BYTE   N23  Ds5  v080
 BYTE   W24
 BYTE   N11  Cn5
 BYTE   W12
 BYTE   N23  Ds5
 BYTE   W12
 BYTE   W12
 BYTE   N17  Cn5
 BYTE   W12
 BYTE   W06
 BYTE   Ds5
 BYTE   W18
 BYTE   PEND 
//  #04 //050   ----------------------------------------
Label_01007140:
 BYTE   N80  Fn5  v080
 BYTE   W72
 BYTE   W12
 BYTE   N11  Cn5
 BYTE   W12
 BYTE   PEND 
//  #04 //051   ----------------------------------------
 BYTE   PATT
  POIN2 Label_0100712E
//  #04 //052   ----------------------------------------
Label_0100714E:
 BYTE   N32  Dn5  v080
 BYTE   W36
 BYTE   N92  Fn5
 BYTE   W60
 BYTE   PEND 
//  #04 //053   ----------------------------------------
Label_01007156:
 BYTE   W36
 BYTE   N03  Gn5  v080
 BYTE   W03
 BYTE   N20  Gs5
 BYTE   W09
 BYTE   W12
 BYTE   N03  Gn5
 BYTE   W03
 BYTE   N32  Gs5
 BYTE   W32
 BYTE   W01
 BYTE   PEND 
//  #04 //054   ----------------------------------------
Label_01007167:
 BYTE   N32  Cn5  v080
 BYTE   W36
 BYTE   N56  Cs5
 BYTE   W60
 BYTE   PEND 
//  #04 //055   ----------------------------------------
Label_0100716F:
 BYTE   N32  Dn5  v080
 BYTE   W36
 BYTE   N56  En5
 BYTE   W12
 BYTE   W48
 BYTE   PEND 
//  #04 //056   ----------------------------------------
 BYTE   PATT
  POIN2 Label_01007126
//  #04 //057   ----------------------------------------
 BYTE   PATT
  POIN2 Label_0100712E
//  #04 //058   ----------------------------------------
 BYTE   PATT
  POIN2 Label_01007140
//  #04 //059   ----------------------------------------
 BYTE   PATT
  POIN2 Label_0100712E
//  #04 //060   ----------------------------------------
Label_0100718C:
 BYTE   N80  Fn5  v080
 BYTE   W72
 BYTE   W12
 BYTE   N11
 BYTE   W12
 BYTE   PEND 
//  #04 //061   ----------------------------------------
Label_01007194:
 BYTE   N23  Gs5  v080
 BYTE   W24
 BYTE   N11  Fn5
 BYTE   W12
 BYTE   N23  Gs5
 BYTE   W12
 BYTE   W12
 BYTE   Fn5
 BYTE   W24
 BYTE   N11  Gs5
 BYTE   W12
 BYTE   PEND 
//  #04 //062   ----------------------------------------
Label_010071A5:
 BYTE   N23  Gs5  v080
 BYTE   W24
 BYTE   N11  Cn5
 BYTE   W12
 BYTE   N56
 BYTE   W60
 BYTE   PEND 
//  #04 //063   ----------------------------------------
Label_010071AF:
 BYTE   W12
 BYTE   N17  Cn5  v080
 BYTE   W18
 BYTE   As4
 BYTE   W18
 BYTE   N23  Gs4
 BYTE   W48
 BYTE   PEND 
//  #04 //064   ----------------------------------------
Label_010071BA:
 BYTE   N80  Cn5  v080
 BYTE   W72
 BYTE   W12
 BYTE   N11
 BYTE   W12
 BYTE   PEND 
//  #04 //065   ----------------------------------------
Label_010071C2:
 BYTE   N23  Ds5  v080
 BYTE   W24
 BYTE   N11  Cn5
 BYTE   W12
 BYTE   N23  Ds5
 BYTE   W24
 BYTE   N17  Cn5
 BYTE   W18
 BYTE   Ds5
 BYTE   W18
 BYTE   PEND 
//  #04 //066   ----------------------------------------
Label_010071D2:
 BYTE   N80  Fn5  v080
 BYTE   W72
 BYTE   W12
 BYTE   N11  Cn5
 BYTE   W12
 BYTE   PEND 
//  #04 //067   ----------------------------------------
 BYTE   PATT
  POIN2 Label_010071C2
//  #04 //068   ----------------------------------------
Label_010071E0:
 BYTE   N32  Dn5  v080
 BYTE   W36
 BYTE   N92  Fn5
 BYTE   W60
 BYTE   PEND 
//  #04 //069   ----------------------------------------
Label_010071E8:
 BYTE   W36
 BYTE   N03  Gn5  v080
 BYTE   W03
 BYTE   N20  Gs5
 BYTE   W21
 BYTE   N03  Gn5
 BYTE   W03
 BYTE   N32  Gs5
 BYTE   W32
 BYTE   W01
 BYTE   PEND 
//  #04 //070   ----------------------------------------
Label_010071F8:
 BYTE   N32  Cn5  v080
 BYTE   W36
 BYTE   N56  Cs5
 BYTE   W60
 BYTE   PEND 
//  #04 //071   ----------------------------------------
Label_01007200:
 BYTE   N32  Dn5  v080
 BYTE   W36
 BYTE   N56  En5
 BYTE   W60
 BYTE   PEND 
//  #04 //072   ----------------------------------------
 BYTE   PATT
  POIN2 Label_010071BA
//  #04 //073   ----------------------------------------
 BYTE   PATT
  POIN2 Label_010071C2
//  #04 //074   ----------------------------------------
 BYTE   PATT
  POIN2 Label_010071D2
//  #04 //075   ----------------------------------------
 BYTE   PATT
  POIN2 Label_010071C2
//  #04 //076   ----------------------------------------
Label_0100721C:
 BYTE   N80  Fn5  v080
 BYTE   W72
 BYTE   W12
 BYTE   N03  Ds5
 BYTE   W03
 BYTE   N08  Fn5
 BYTE   W09
 BYTE   PEND 
//  #04 //077   ----------------------------------------
Label_01007228:
 BYTE   N23  Gs5  v080
 BYTE   W24
 BYTE   N03  Ds5
 BYTE   W03
 BYTE   N08  Fn5
 BYTE   W09
 BYTE   N23  Gs5
 BYTE   W24
 BYTE   N03  Ds5
 BYTE   W03
 BYTE   N20  Fn5
 BYTE   W21
 BYTE   N11  Gs5
 BYTE   W12
 BYTE   PEND 
//  #04 //078   ----------------------------------------
Label_0100723F:
 BYTE   N03  Gn5  v080
 BYTE   W03
 BYTE   N20  Gs5
 BYTE   W21
 BYTE   N11  Cn5
 BYTE   W12
 BYTE   N56
 BYTE   W60
 BYTE   PEND 
//  #04 //079   ----------------------------------------
 BYTE   W12
 BYTE   N17
 BYTE   W18
 BYTE   As4
 BYTE   W18
 BYTE   N23  Gs4
 BYTE   W48
//  #04 //080   ----------------------------------------
 BYTE   W96
//  #04 //081   ----------------------------------------
 BYTE   W96
//  #04 //082   ----------------------------------------
 BYTE   W96
//  #04 //083   ----------------------------------------
 BYTE   W96
//  #04 //084   ----------------------------------------
 BYTE   W96
//  #04 //085   ----------------------------------------
 BYTE   W96
//  #04 //086   ----------------------------------------
 BYTE   W96
//  #04 //087   ----------------------------------------
 BYTE   W96
//  #04 //088   ----------------------------------------
 BYTE   PATT
  POIN2 Label_01007050
//  #04 //089   ----------------------------------------
 BYTE   PATT
  POIN2 Label_01007059
//  #04 //090   ----------------------------------------
 BYTE   EOT
 BYTE   Fn4  v080
 BYTE   Cn5
 BYTE   W01
//  #04 //091   ----------------------------------------
 BYTE   PATT
  POIN2 Label_01007061
//  #04 //092   ----------------------------------------
 BYTE   PATT
  POIN2 Label_01007059
//  #04 //093   ----------------------------------------
 BYTE   EOT
 BYTE   Gs4  v084
 BYTE   Ds5
 BYTE   W01
//  #04 //094   ----------------------------------------
 BYTE   PATT
  POIN2 Label_01007074
//  #04 //095   ----------------------------------------
 BYTE   PATT
  POIN2 Label_01007059
//  #04 //096   ----------------------------------------
 BYTE   EOT
 BYTE   As4  v086
 BYTE   Fn5
 BYTE   W01
//  #04 //097   ----------------------------------------
 BYTE   PATT
  POIN2 Label_01007087
//  #04 //098   ----------------------------------------
 BYTE   PATT
  POIN2 Label_01007090
//  #04 //099   ----------------------------------------
 BYTE   PATT
  POIN2 Label_01007099
//  #04 //100   ----------------------------------------
 BYTE   W96
//  #04 //101   ----------------------------------------
 BYTE   W96
//  #04 //102   ----------------------------------------
 BYTE   PATT
  POIN2 Label_010070A4
//  #04 //103   ----------------------------------------
 BYTE   EOT
 BYTE   Gs4  v084
 BYTE   Fn5
 BYTE   W01
//  #04 //104   ----------------------------------------
 BYTE   PATT
  POIN2 Label_010070AC
//  #04 //105   ----------------------------------------
 BYTE   PATT
  POIN2 Label_010070A4
//  #04 //106   ----------------------------------------
 BYTE   EOT
 BYTE   As4  v086
 BYTE   W01
//  #04 //107   ----------------------------------------
 BYTE   PATT
  POIN2 Label_010070BC
//  #04 //108   ----------------------------------------
 BYTE   PATT
  POIN2 Label_010070C5
//  #04 //109   ----------------------------------------
 BYTE   W96
//  #04 //110   ----------------------------------------
 BYTE   W96
//  #04 //111   ----------------------------------------
 BYTE   W96
//  #04 //112   ----------------------------------------
 BYTE   W96
//  #04 //113   ----------------------------------------
 BYTE   PATT
  POIN2 Label_010070D2
//  #04 //114   ----------------------------------------
 BYTE   W11
 BYTE   EOT
 BYTE   Fn4
 BYTE   W01
 BYTE   N03  Ds4  v096
 BYTE   W03
 BYTE   N14  Fn4
 BYTE   W15
 BYTE   N03  Ds4
 BYTE   W03
 BYTE   N14  Fn4
 BYTE   W15
 BYTE   N03  Ds4
 BYTE   W03
 BYTE   N14  Fn4
 BYTE   W15
 BYTE   N02  Ds4
 BYTE   W03
 BYTE   N14  Fn4
 BYTE   W15
 BYTE   N03  Ds4
 BYTE   W03
 BYTE   N08  Fn4
 BYTE   W09
//  #04 //115   ----------------------------------------
 BYTE   PATT
  POIN2 Label_010070FC
//  #04 //116   ----------------------------------------
 BYTE   GoTo
  POIN2 Label_01007107
//  #04 //117   ----------------------------------------
 BYTE   PATT
  POIN2 Label_01007107
//  #04 //118   ----------------------------------------
 BYTE   PATT
  POIN2 Label_01007126
//  #04 //119   ----------------------------------------
 BYTE   PATT
  POIN2 Label_0100712E
//  #04 //120   ----------------------------------------
 BYTE   PATT
  POIN2 Label_01007140
//  #04 //121   ----------------------------------------
 BYTE   PATT
  POIN2 Label_0100712E
//  #04 //122   ----------------------------------------
 BYTE   PATT
  POIN2 Label_0100714E
//  #04 //123   ----------------------------------------
 BYTE   PATT
  POIN2 Label_01007156
//  #04 //124   ----------------------------------------
 BYTE   PATT
  POIN2 Label_01007167
//  #04 //125   ----------------------------------------
 BYTE   PATT
  POIN2 Label_0100716F
//  #04 //126   ----------------------------------------
 BYTE   PATT
  POIN2 Label_01007126
//  #04 //127   ----------------------------------------
 BYTE   PATT
  POIN2 Label_0100712E
//  #04 //128   ----------------------------------------
 BYTE   PATT
  POIN2 Label_01007140
//  #04 //129   ----------------------------------------
 BYTE   PATT
  POIN2 Label_0100712E
//  #04 //130   ----------------------------------------
 BYTE   PATT
  POIN2 Label_0100718C
//  #04 //131   ----------------------------------------
 BYTE   PATT
  POIN2 Label_01007194
//  #04 //132   ----------------------------------------
 BYTE   PATT
  POIN2 Label_010071A5
//  #04 //133   ----------------------------------------
 BYTE   PATT
  POIN2 Label_010071AF
//  #04 //134   ----------------------------------------
 BYTE   PATT
  POIN2 Label_010071BA
//  #04 //135   ----------------------------------------
 BYTE   PATT
  POIN2 Label_010071C2
//  #04 //136   ----------------------------------------
 BYTE   PATT
  POIN2 Label_010071D2
//  #04 //137   ----------------------------------------
 BYTE   PATT
  POIN2 Label_010071C2
//  #04 //138   ----------------------------------------
 BYTE   PATT
  POIN2 Label_010071E0
//  #04 //139   ----------------------------------------
 BYTE   PATT
  POIN2 Label_010071E8
//  #04 //140   ----------------------------------------
 BYTE   PATT
  POIN2 Label_010071F8
//  #04 //141   ----------------------------------------
 BYTE   PATT
  POIN2 Label_01007200
//  #04 //142   ----------------------------------------
 BYTE   PATT
  POIN2 Label_010071BA
//  #04 //143   ----------------------------------------
 BYTE   PATT
  POIN2 Label_010071C2
//  #04 //144   ----------------------------------------
 BYTE   PATT
  POIN2 Label_010071D2
//  #04 //145   ----------------------------------------
 BYTE   PATT
  POIN2 Label_010071C2
//  #04 //146   ----------------------------------------
 BYTE   PATT
  POIN2 Label_0100721C
//  #04 //147   ----------------------------------------
 BYTE   PATT
  POIN2 Label_01007228
//  #04 //148   ----------------------------------------
 BYTE   PATT
  POIN2 Label_0100723F
//  #04 //149   ----------------------------------------
 BYTE   W12
 BYTE   N17  Cn5  v080
 BYTE   W18
 BYTE   As4
 BYTE   W18
 BYTE   N23  Gs4
 BYTE   W44
 BYTE   W03
 BYTE   FINE

//**************** Track 5 (Midi-Chn.4) ****************//

LifeWillChange_005:
//  #05 //000   ----------------------------------------
 BYTE   KEYSH   LifeWillChange_key+0
 BYTE   VOICE   40
 BYTE   VOL   23*LifeWillChange_mvl/mxv
 BYTE   PAN   c_v+0
 BYTE   VOL   24*LifeWillChange_mvl/mxv
 BYTE   PAN   c_v+0
 BYTE   W96
//  #05 //001   ----------------------------------------
 BYTE   W96
//  #05 //002   ----------------------------------------
 BYTE   W96
//  #05 //003   ----------------------------------------
 BYTE   W96
//  #05 //004   ----------------------------------------
 BYTE   W96
//  #05 //005   ----------------------------------------
 BYTE   W96
//  #05 //006   ----------------------------------------
 BYTE   W96
//  #05 //007   ----------------------------------------
 BYTE   W96
//  #05 //008   ----------------------------------------
 BYTE   TIE  Fn3  v016
 BYTE   TIE  As3
 BYTE   W96
//  #05 //009   ----------------------------------------
 BYTE   W92
 BYTE   W03
 BYTE   EOT
 BYTE   Fn3  v070
 BYTE   W01
//  #05 //010   ----------------------------------------
 BYTE   TIE  Fn3  v052
 BYTE   TIE  As3
 BYTE   W96
//  #05 //011   ----------------------------------------
 BYTE   W06
 BYTE   W06
 BYTE   W06
 BYTE   W06
 BYTE   W06
 BYTE   W06
 BYTE   W06
 BYTE   W06
 BYTE   W06
 BYTE   W07
 BYTE   W06
 BYTE   W06
 BYTE   W06
 BYTE   W06
 BYTE   W06
 BYTE   W05
//  #05 //012   ----------------------------------------
 BYTE   W01
 BYTE   W06
 BYTE   W06
 BYTE   W06
 BYTE   W06
 BYTE   W07
 BYTE   W06
 BYTE   W06
 BYTE   W06
 BYTE   W06
 BYTE   W06
 BYTE   W06
 BYTE   W06
 BYTE   W06
 BYTE   W06
 BYTE   W07
 BYTE   W03
//  #05 //013   ----------------------------------------
 BYTE   W03
 BYTE   W06
 BYTE   W06
 BYTE   W06
 BYTE   W06
 BYTE   W06
 BYTE   W06
 BYTE   W06
 BYTE   W06
 BYTE   W06
 BYTE   W07
 BYTE   W06
 BYTE   W06
 BYTE   W06
 BYTE   W06
 BYTE   W06
 BYTE   W02
//  #05 //014   ----------------------------------------
 BYTE   W04
 BYTE   W06
 BYTE   W06
 BYTE   W06
 BYTE   W07
 BYTE   W06
 BYTE   W06
 BYTE   W06
 BYTE   W06
 BYTE   W06
 BYTE   W06
 BYTE   W06
 BYTE   W06
 BYTE   W06
 BYTE   W06
 BYTE   W07
//  #05 //015   ----------------------------------------
 BYTE   W11
 BYTE   EOT
 BYTE   Fn3  v070
 BYTE   W84
 BYTE   W01
//  #05 //016   ----------------------------------------
 BYTE   W96
//  #05 //017   ----------------------------------------
 BYTE   W96
//  #05 //018   ----------------------------------------
 BYTE   W96
//  #05 //019   ----------------------------------------
 BYTE   W96
//  #05 //020   ----------------------------------------
 BYTE   W96
//  #05 //021   ----------------------------------------
 BYTE   W96
//  #05 //022   ----------------------------------------
 BYTE   W96
//  #05 //023   ----------------------------------------
 BYTE   W96
//  #05 //024   ----------------------------------------
Label_01006CF2:
 BYTE   TIE  Cn3  v036
 BYTE   TIE  Fn3
 BYTE   W96
 BYTE   PEND 
//  #05 //025   ----------------------------------------
Label_01006CF9:
 BYTE   W92
 BYTE   W03
 BYTE   PEND 
 BYTE   EOT
 BYTE   Cn3  v065
 BYTE   W01
//  #05 //026   ----------------------------------------
Label_01006D00:
 BYTE   TIE  Ds3  v036
 BYTE   TIE  Gs3
 BYTE   W96
 BYTE   PEND 
//  #05 //027   ----------------------------------------
 BYTE   PATT
  POIN2 Label_01006CF9
//  #05 //028   ----------------------------------------
 BYTE   EOT
 BYTE   Ds3  v068
 BYTE   W01
Label_01006D10:
 BYTE   TIE  Fn3  v036
 BYTE   TIE  As3
 BYTE   W96
 BYTE   PEND 
//  #05 //029   ----------------------------------------
 BYTE   PATT
  POIN2 Label_01006CF9
//  #05 //030   ----------------------------------------
 BYTE   EOT
 BYTE   Fn3  v070
 BYTE   W01
Label_01006D20:
 BYTE   N92  Dn3  v036
 BYTE   N92  Gn3
 BYTE   W96
 BYTE   PEND 
//  #05 //031   ----------------------------------------
Label_01006D27:
 BYTE   N92  Gn3  v036
 BYTE   N92  Cn4
 BYTE   W96
 BYTE   PEND 
//  #05 //032   ----------------------------------------
 BYTE   PATT
  POIN2 Label_01006CF2
//  #05 //033   ----------------------------------------
 BYTE   PATT
  POIN2 Label_01006CF9
//  #05 //034   ----------------------------------------
 BYTE   EOT
 BYTE   Cn3  v065
 BYTE   W01
//  #05 //035   ----------------------------------------
 BYTE   PATT
  POIN2 Label_01006D00
//  #05 //036   ----------------------------------------
 BYTE   PATT
  POIN2 Label_01006CF9
//  #05 //037   ----------------------------------------
 BYTE   EOT
 BYTE   Ds3  v068
 BYTE   W01
//  #05 //038   ----------------------------------------
 BYTE   PATT
  POIN2 Label_01006D10
//  #05 //039   ----------------------------------------
 BYTE   PATT
  POIN2 Label_01006CF9
//  #05 //040   ----------------------------------------
 BYTE   EOT
 BYTE   Fn3  v070
 BYTE   W01
//  #05 //041   ----------------------------------------
 BYTE   PATT
  POIN2 Label_01006D20
//  #05 //042   ----------------------------------------
 BYTE   PATT
  POIN2 Label_01006D27
//  #05 //043   ----------------------------------------
 BYTE   W96
//  #05 //044   ----------------------------------------
 BYTE   W96
//  #05 //045   ----------------------------------------
 BYTE   W96
//  #05 //046   ----------------------------------------
 BYTE   W96
//  #05 //047   ----------------------------------------
 BYTE   W96
//  #05 //048   ----------------------------------------
 BYTE   W96
//  #05 //049   ----------------------------------------
 BYTE   W96
//  #05 //050   ----------------------------------------
Label_01006D69:
 BYTE   W96
//  #05 //051   ----------------------------------------
 BYTE   PATT
  POIN2 Label_01006CF2
//  #05 //052   ----------------------------------------
 BYTE   PATT
  POIN2 Label_01006CF9
//  #05 //053   ----------------------------------------
 BYTE   EOT
 BYTE   Cn3  v065
 BYTE   W01
//  #05 //054   ----------------------------------------
 BYTE   PATT
  POIN2 Label_01006D00
//  #05 //055   ----------------------------------------
 BYTE   PATT
  POIN2 Label_01006CF9
//  #05 //056   ----------------------------------------
 BYTE   EOT
 BYTE   Ds3  v068
 BYTE   W01
//  #05 //057   ----------------------------------------
 BYTE   PATT
  POIN2 Label_01006D10
//  #05 //058   ----------------------------------------
 BYTE   PATT
  POIN2 Label_01006CF9
//  #05 //059   ----------------------------------------
 BYTE   EOT
 BYTE   Fn3  v070
 BYTE   W01
Label_01006D94:
 BYTE   N92  Cn3  v036
 BYTE   N92  Fn3
 BYTE   W96
 BYTE   PEND 
//  #05 //060   ----------------------------------------
 BYTE   PATT
  POIN2 Label_01006D27
//  #05 //061   ----------------------------------------
 BYTE   PATT
  POIN2 Label_01006CF2
//  #05 //062   ----------------------------------------
 BYTE   PATT
  POIN2 Label_01006CF9
//  #05 //063   ----------------------------------------
 BYTE   EOT
 BYTE   Cn3  v065
 BYTE   W01
//  #05 //064   ----------------------------------------
 BYTE   PATT
  POIN2 Label_01006D00
//  #05 //065   ----------------------------------------
 BYTE   PATT
  POIN2 Label_01006CF9
//  #05 //066   ----------------------------------------
 BYTE   EOT
 BYTE   Ds3  v068
 BYTE   W01
//  #05 //067   ----------------------------------------
 BYTE   PATT
  POIN2 Label_01006D10
//  #05 //068   ----------------------------------------
 BYTE   PATT
  POIN2 Label_01006CF9
//  #05 //069   ----------------------------------------
 BYTE   EOT
 BYTE   Fn3  v070
 BYTE   W01
//  #05 //070   ----------------------------------------
 BYTE   PATT
  POIN2 Label_01006CF2
//  #05 //071   ----------------------------------------
 BYTE   PATT
  POIN2 Label_01006CF9
//  #05 //072   ----------------------------------------
 BYTE   EOT
 BYTE   Cn3  v065
 BYTE   W01
//  #05 //073   ----------------------------------------
 BYTE   PATT
  POIN2 Label_01006CF2
//  #05 //074   ----------------------------------------
 BYTE   PATT
  POIN2 Label_01006CF9
//  #05 //075   ----------------------------------------
 BYTE   EOT
 BYTE   Cn3  v065
 BYTE   W01
//  #05 //076   ----------------------------------------
 BYTE   PATT
  POIN2 Label_01006D00
//  #05 //077   ----------------------------------------
 BYTE   PATT
  POIN2 Label_01006CF9
//  #05 //078   ----------------------------------------
 BYTE   EOT
 BYTE   Ds3  v068
 BYTE   W01
//  #05 //079   ----------------------------------------
 BYTE   PATT
  POIN2 Label_01006D10
//  #05 //080   ----------------------------------------
 BYTE   PATT
  POIN2 Label_01006CF9
//  #05 //081   ----------------------------------------
 BYTE   EOT
 BYTE   Fn3  v070
 BYTE   W01
//  #05 //082   ----------------------------------------
 BYTE   PATT
  POIN2 Label_01006D94
//  #05 //083   ----------------------------------------
 BYTE   PATT
  POIN2 Label_01006D27
//  #05 //084   ----------------------------------------
 BYTE   PATT
  POIN2 Label_01006CF2
//  #05 //085   ----------------------------------------
 BYTE   PATT
  POIN2 Label_01006CF9
//  #05 //086   ----------------------------------------
 BYTE   EOT
 BYTE   Cn3  v065
 BYTE   W01
//  #05 //087   ----------------------------------------
 BYTE   PATT
  POIN2 Label_01006D00
//  #05 //088   ----------------------------------------
 BYTE   PATT
  POIN2 Label_01006CF9
//  #05 //089   ----------------------------------------
 BYTE   EOT
 BYTE   Ds3  v068
 BYTE   W01
//  #05 //090   ----------------------------------------
 BYTE   PATT
  POIN2 Label_01006D10
//  #05 //091   ----------------------------------------
 BYTE   PATT
  POIN2 Label_01006CF9
//  #05 //092   ----------------------------------------
 BYTE   EOT
 BYTE   Fn3  v070
 BYTE   W01
//  #05 //093   ----------------------------------------
 BYTE   PATT
  POIN2 Label_01006D94
//  #05 //094   ----------------------------------------
 BYTE   PATT
  POIN2 Label_01006D27
//  #05 //095   ----------------------------------------
 BYTE   W96
//  #05 //096   ----------------------------------------
 BYTE   W96
//  #05 //097   ----------------------------------------
 BYTE   W96
//  #05 //098   ----------------------------------------
 BYTE   W96
//  #05 //099   ----------------------------------------
 BYTE   W96
//  #05 //100   ----------------------------------------
 BYTE   W96
//  #05 //101   ----------------------------------------
 BYTE   W96
//  #05 //102   ----------------------------------------
 BYTE   W96
//  #05 //103   ----------------------------------------
 BYTE   PATT
  POIN2 Label_01006CF2
//  #05 //104   ----------------------------------------
 BYTE   PATT
  POIN2 Label_01006CF9
//  #05 //105   ----------------------------------------
 BYTE   EOT
 BYTE   Cn3  v065
 BYTE   W01
//  #05 //106   ----------------------------------------
 BYTE   PATT
  POIN2 Label_01006D00
//  #05 //107   ----------------------------------------
 BYTE   PATT
  POIN2 Label_01006CF9
//  #05 //108   ----------------------------------------
 BYTE   EOT
 BYTE   Ds3  v068
 BYTE   W01
//  #05 //109   ----------------------------------------
 BYTE   PATT
  POIN2 Label_01006D10
//  #05 //110   ----------------------------------------
 BYTE   PATT
  POIN2 Label_01006CF9
//  #05 //111   ----------------------------------------
 BYTE   EOT
 BYTE   Fn3  v070
 BYTE   W01
//  #05 //112   ----------------------------------------
 BYTE   PATT
  POIN2 Label_01006D20
//  #05 //113   ----------------------------------------
 BYTE   PATT
  POIN2 Label_01006D27
//  #05 //114   ----------------------------------------
 BYTE   PATT
  POIN2 Label_01006CF2
//  #05 //115   ----------------------------------------
 BYTE   PATT
  POIN2 Label_01006CF9
//  #05 //116   ----------------------------------------
 BYTE   EOT
 BYTE   Cn3  v065
 BYTE   W01
//  #05 //117   ----------------------------------------
 BYTE   PATT
  POIN2 Label_01006D00
//  #05 //118   ----------------------------------------
 BYTE   PATT
  POIN2 Label_01006CF9
//  #05 //119   ----------------------------------------
 BYTE   EOT
 BYTE   Ds3  v068
 BYTE   W01
//  #05 //120   ----------------------------------------
 BYTE   PATT
  POIN2 Label_01006D10
//  #05 //121   ----------------------------------------
 BYTE   PATT
  POIN2 Label_01006CF9
//  #05 //122   ----------------------------------------
 BYTE   EOT
 BYTE   Fn3  v070
 BYTE   W01
//  #05 //123   ----------------------------------------
 BYTE   PATT
  POIN2 Label_01006D20
//  #05 //124   ----------------------------------------
 BYTE   PATT
  POIN2 Label_01006D27
//  #05 //125   ----------------------------------------
 BYTE   W96
//  #05 //126   ----------------------------------------
 BYTE   W96
//  #05 //127   ----------------------------------------
 BYTE   W96
//  #05 //128   ----------------------------------------
 BYTE   W96
//  #05 //129   ----------------------------------------
 BYTE   W96
//  #05 //130   ----------------------------------------
 BYTE   W96
//  #05 //131   ----------------------------------------
 BYTE   W96
//  #05 //132   ----------------------------------------
 BYTE   GoTo
  POIN2 Label_01006D69
//  #05 //133   ----------------------------------------
 BYTE   W96
//  #05 //134   ----------------------------------------
 BYTE   PATT
  POIN2 Label_01006CF2
//  #05 //135   ----------------------------------------
 BYTE   PATT
  POIN2 Label_01006CF9
//  #05 //136   ----------------------------------------
 BYTE   EOT
 BYTE   Cn3  v065
 BYTE   W01
//  #05 //137   ----------------------------------------
 BYTE   PATT
  POIN2 Label_01006D00
//  #05 //138   ----------------------------------------
 BYTE   PATT
  POIN2 Label_01006CF9
//  #05 //139   ----------------------------------------
 BYTE   EOT
 BYTE   Ds3  v068
 BYTE   W01
//  #05 //140   ----------------------------------------
 BYTE   PATT
  POIN2 Label_01006D10
//  #05 //141   ----------------------------------------
 BYTE   PATT
  POIN2 Label_01006CF9
//  #05 //142   ----------------------------------------
 BYTE   EOT
 BYTE   Fn3  v070
 BYTE   W01
//  #05 //143   ----------------------------------------
 BYTE   PATT
  POIN2 Label_01006D94
//  #05 //144   ----------------------------------------
 BYTE   PATT
  POIN2 Label_01006D27
//  #05 //145   ----------------------------------------
 BYTE   PATT
  POIN2 Label_01006CF2
//  #05 //146   ----------------------------------------
 BYTE   PATT
  POIN2 Label_01006CF9
//  #05 //147   ----------------------------------------
 BYTE   EOT
 BYTE   Cn3  v065
 BYTE   W01
//  #05 //148   ----------------------------------------
 BYTE   PATT
  POIN2 Label_01006D00
//  #05 //149   ----------------------------------------
 BYTE   PATT
  POIN2 Label_01006CF9
//  #05 //150   ----------------------------------------
 BYTE   EOT
 BYTE   Ds3  v068
 BYTE   W01
//  #05 //151   ----------------------------------------
 BYTE   PATT
  POIN2 Label_01006D10
//  #05 //152   ----------------------------------------
 BYTE   PATT
  POIN2 Label_01006CF9
//  #05 //153   ----------------------------------------
 BYTE   EOT
 BYTE   Fn3  v070
 BYTE   W01
//  #05 //154   ----------------------------------------
 BYTE   PATT
  POIN2 Label_01006D94
//  #05 //155   ----------------------------------------
 BYTE   PATT
  POIN2 Label_01006D27
//  #05 //156   ----------------------------------------
 BYTE   PATT
  POIN2 Label_01006CF2
//  #05 //157   ----------------------------------------
 BYTE   PATT
  POIN2 Label_01006CF9
//  #05 //158   ----------------------------------------
 BYTE   EOT
 BYTE   Cn3  v065
 BYTE   W01
//  #05 //159   ----------------------------------------
 BYTE   PATT
  POIN2 Label_01006D00
//  #05 //160   ----------------------------------------
 BYTE   PATT
  POIN2 Label_01006CF9
//  #05 //161   ----------------------------------------
 BYTE   EOT
 BYTE   Ds3  v068
 BYTE   W01
//  #05 //162   ----------------------------------------
 BYTE   PATT
  POIN2 Label_01006D10
//  #05 //163   ----------------------------------------
 BYTE   PATT
  POIN2 Label_01006CF9
//  #05 //164   ----------------------------------------
 BYTE   EOT
 BYTE   Fn3  v070
 BYTE   W01
//  #05 //165   ----------------------------------------
 BYTE   PATT
  POIN2 Label_01006D94
//  #05 //166   ----------------------------------------
 BYTE   PATT
  POIN2 Label_01006D27
//  #05 //167   ----------------------------------------
 BYTE   PATT
  POIN2 Label_01006CF2
//  #05 //168   ----------------------------------------
 BYTE   PATT
  POIN2 Label_01006CF9
//  #05 //169   ----------------------------------------
 BYTE   EOT
 BYTE   Cn3  v065
 BYTE   W01
//  #05 //170   ----------------------------------------
 BYTE   PATT
  POIN2 Label_01006D00
//  #05 //171   ----------------------------------------
 BYTE   PATT
  POIN2 Label_01006CF9
//  #05 //172   ----------------------------------------
 BYTE   EOT
 BYTE   Ds3  v068
 BYTE   W01
//  #05 //173   ----------------------------------------
 BYTE   PATT
  POIN2 Label_01006D10
//  #05 //174   ----------------------------------------
 BYTE   PATT
  POIN2 Label_01006CF9
//  #05 //175   ----------------------------------------
 BYTE   EOT
 BYTE   Fn3  v070
 BYTE   W01
//  #05 //176   ----------------------------------------
 BYTE   PATT
  POIN2 Label_01006D94
//  #05 //177   ----------------------------------------
 BYTE   N92  Gn3  v036
 BYTE   N92  Cn4
 BYTE   W92
 BYTE   W03
 BYTE   FINE

//**************** Track 6 (Midi-Chn.5) ****************//

LifeWillChange_006:
//  #06 //000   ----------------------------------------
 BYTE   KEYSH   LifeWillChange_key+0
 BYTE   VOICE   30
 BYTE   VOL   27*LifeWillChange_mvl/mxv
 BYTE   PAN   c_v+0
 BYTE   VOL   24*LifeWillChange_mvl/mxv
 BYTE   PAN   c_v+0
 BYTE   W96
//  #06 //001   ----------------------------------------
 BYTE   W96
//  #06 //002   ----------------------------------------
 BYTE   W96
//  #06 //003   ----------------------------------------
 BYTE   W96
//  #06 //004   ----------------------------------------
 BYTE   W96
//  #06 //005   ----------------------------------------
 BYTE   W96
//  #06 //006   ----------------------------------------
 BYTE   W96
//  #06 //007   ----------------------------------------
 BYTE   W96
//  #06 //008   ----------------------------------------
 BYTE   W96
//  #06 //009   ----------------------------------------
 BYTE   W96
//  #06 //010   ----------------------------------------
 BYTE   W96
//  #06 //011   ----------------------------------------
 BYTE   W96
//  #06 //012   ----------------------------------------
 BYTE   W96
//  #06 //013   ----------------------------------------
 BYTE   W96
//  #06 //014   ----------------------------------------
 BYTE   W96
//  #06 //015   ----------------------------------------
 BYTE   W96
//  #06 //016   ----------------------------------------
 BYTE   W84
 BYTE   N23  Gs2  v080
 BYTE   W12
//  #06 //017   ----------------------------------------
 BYTE   W12
 BYTE   N11
 BYTE   W24
 BYTE   N23  Cn3
 BYTE   W24
 BYTE   Ds3
 BYTE   W24
 BYTE   N32  Fn3
 BYTE   W12
//  #06 //018   ----------------------------------------
 BYTE   W24
 BYTE   N11
 BYTE   W12
 BYTE   N23
 BYTE   W24
 BYTE   N32  Dn3
 BYTE   W36
//  #06 //019   ----------------------------------------
 BYTE   W84
 BYTE   N23  Cn3
 BYTE   W12
//  #06 //020   ----------------------------------------
 BYTE   W12
 BYTE   N11
 BYTE   W72
 BYTE   N23
 BYTE   W12
//  #06 //021   ----------------------------------------
 BYTE   W12
 BYTE   N11
 BYTE   W72
 BYTE   N23  Gs3
 BYTE   W12
//  #06 //022   ----------------------------------------
 BYTE   W12
 BYTE   N11  As3
 BYTE   W24
 BYTE   TIE  Fn3
 BYTE   W60
//  #06 //023   ----------------------------------------
 BYTE   W44
 BYTE   W03
 BYTE   EOT
 BYTE   W48
 BYTE   W01
//  #06 //024   ----------------------------------------
 BYTE   W96
//  #06 //025   ----------------------------------------
 BYTE   W96
//  #06 //026   ----------------------------------------
 BYTE   W96
//  #06 //027   ----------------------------------------
 BYTE   W96
//  #06 //028   ----------------------------------------
 BYTE   W96
//  #06 //029   ----------------------------------------
 BYTE   W96
//  #06 //030   ----------------------------------------
 BYTE   W96
//  #06 //031   ----------------------------------------
 BYTE   W84
 BYTE   N23  Gs3
 BYTE   W12
//  #06 //032   ----------------------------------------
Label_0100575A:
 BYTE   W12
 BYTE   N11  Fn3  v080
 BYTE   W12
 BYTE   Gn3
 BYTE   W12
 BYTE   Cn3
 BYTE   W12
 BYTE   N92  Fn3
 BYTE   W48
 BYTE   PEND 
//  #06 //033   ----------------------------------------
 BYTE   W84
 BYTE   N23  Gs3
 BYTE   W12
//  #06 //034   ----------------------------------------
 BYTE   W12
 BYTE   N11  Cn4
 BYTE   W12
 BYTE   Gn3
 BYTE   W12
 BYTE   Cn3
 BYTE   W12
 BYTE   N92  Fn3
 BYTE   W48
//  #06 //035   ----------------------------------------
 BYTE   W84
 BYTE   N23  Gs3
 BYTE   W12
//  #06 //036   ----------------------------------------
 BYTE   PATT
  POIN2 Label_0100575A
//  #06 //037   ----------------------------------------
 BYTE   W60
 BYTE   N32  Gn3  v080
 BYTE   W36
//  #06 //038   ----------------------------------------
 BYTE   TIE  Dn3
 BYTE   W96
//  #06 //039   ----------------------------------------
 BYTE   W44
 BYTE   W03
 BYTE   EOT
 BYTE   W48
 BYTE   W01
//  #06 //040   ----------------------------------------
 BYTE   W96
//  #06 //041   ----------------------------------------
 BYTE   W96
//  #06 //042   ----------------------------------------
 BYTE   W96
//  #06 //043   ----------------------------------------
 BYTE   W96
//  #06 //044   ----------------------------------------
 BYTE   W96
//  #06 //045   ----------------------------------------
 BYTE   W96
//  #06 //046   ----------------------------------------
 BYTE   W96
//  #06 //047   ----------------------------------------
Label_01005793:
 BYTE   W12
 BYTE   N17  Fn3  v112
 BYTE   W18
 BYTE   N17
 BYTE   W18
 BYTE   N17
 BYTE   W18
 BYTE   N17
 BYTE   W18
 BYTE   N11
 BYTE   W12
 BYTE   PEND 
//  #06 //048   ----------------------------------------
Label_010057A1:
 BYTE   N17  Cn3  v112
 BYTE   W18
 BYTE   Fn3
 BYTE   W78
 BYTE   PEND 
//  #06 //049   ----------------------------------------
 BYTE   PATT
  POIN2 Label_01005793
//  #06 //050   ----------------------------------------
Label_010057AD:
 BYTE   N17  Cn3  v112
 BYTE   W18
 BYTE   N17
 BYTE   W78
 BYTE   PEND 
//  #06 //051   ----------------------------------------
Label_010057B4:
 BYTE   W12
 BYTE   N17  Fn3  v112
 BYTE   W18
 BYTE   N17
 BYTE   W18
 BYTE   N17
 BYTE   W18
 BYTE   Ds3
 BYTE   W18
 BYTE   N11  Fn3
 BYTE   W12
 BYTE   PEND 
//  #06 //052   ----------------------------------------
Label_010057C3:
 BYTE   N17  Dn3  v112
 BYTE   W18
 BYTE   N17
 BYTE   W54
 BYTE   N11  Cn3
 BYTE   W12
 BYTE   N11
 BYTE   W12
 BYTE   PEND 
//  #06 //053   ----------------------------------------
Label_010057CF:
 BYTE   N17  Gs3  v112
 BYTE   W18
 BYTE   Gn3
 BYTE   W18
 BYTE   N23  Fn3
 BYTE   W24
 BYTE   Gn3
 BYTE   W24
 BYTE   N32  Cn3
 BYTE   W12
 BYTE   PEND 
//  #06 //054   ----------------------------------------
 BYTE   W96
//  #06 //055   ----------------------------------------
 BYTE   PATT
  POIN2 Label_01005793
//  #06 //056   ----------------------------------------
 BYTE   PATT
  POIN2 Label_010057A1
//  #06 //057   ----------------------------------------
 BYTE   PATT
  POIN2 Label_01005793
//  #06 //058   ----------------------------------------
 BYTE   PATT
  POIN2 Label_010057AD
//  #06 //059   ----------------------------------------
 BYTE   PATT
  POIN2 Label_010057B4
//  #06 //060   ----------------------------------------
 BYTE   PATT
  POIN2 Label_010057C3
//  #06 //061   ----------------------------------------
Label_010057FD:
 BYTE   N17  Gs3  v112
 BYTE   W18
 BYTE   Cn4
 BYTE   W18
 BYTE   N23  Gn3
 BYTE   W24
 BYTE   N03  Fn3
 BYTE   W03
 BYTE   N20  Gn3
 BYTE   W21
 BYTE   N23  Fn3
 BYTE   W12
 BYTE   PEND 
//  #06 //062   ----------------------------------------
 BYTE   W12
 BYTE   N32  Cn3
 BYTE   W84
//  #06 //063   ----------------------------------------
 BYTE   W96
//  #06 //064   ----------------------------------------
 BYTE   W96
//  #06 //065   ----------------------------------------
 BYTE   W96
//  #06 //066   ----------------------------------------
 BYTE   W96
//  #06 //067   ----------------------------------------
 BYTE   W96
//  #06 //068   ----------------------------------------
 BYTE   W96
//  #06 //069   ----------------------------------------
 BYTE   W96
//  #06 //070   ----------------------------------------
 BYTE   W96
//  #06 //071   ----------------------------------------
 BYTE   W96
//  #06 //072   ----------------------------------------
 BYTE   W96
//  #06 //073   ----------------------------------------
 BYTE   W96
//  #06 //074   ----------------------------------------
 BYTE   W96
//  #06 //075   ----------------------------------------
 BYTE   W96
//  #06 //076   ----------------------------------------
 BYTE   W96
//  #06 //077   ----------------------------------------
 BYTE   W96
//  #06 //078   ----------------------------------------
 BYTE   W96
//  #06 //079   ----------------------------------------
 BYTE   W96
//  #06 //080   ----------------------------------------
 BYTE   W84
 BYTE   N23  Gs2
 BYTE   W12
//  #06 //081   ----------------------------------------
 BYTE   W12
 BYTE   N11
 BYTE   W24
 BYTE   N23  Cn3
 BYTE   W24
 BYTE   Ds3
 BYTE   W24
 BYTE   N32  Fn3
 BYTE   W12
//  #06 //082   ----------------------------------------
 BYTE   W24
 BYTE   N11
 BYTE   W12
 BYTE   N23
 BYTE   W24
 BYTE   N32  Dn3
 BYTE   W36
//  #06 //083   ----------------------------------------
 BYTE   W84
 BYTE   N23  Cn3
 BYTE   W12
//  #06 //084   ----------------------------------------
 BYTE   W12
 BYTE   N11
 BYTE   W72
 BYTE   N23
 BYTE   W12
//  #06 //085   ----------------------------------------
 BYTE   W12
 BYTE   N11
 BYTE   W72
 BYTE   N23  Gs3
 BYTE   W12
//  #06 //086   ----------------------------------------
 BYTE   W12
 BYTE   N11  As3
 BYTE   W24
 BYTE   TIE  Fn3
 BYTE   W60
//  #06 //087   ----------------------------------------
 BYTE   W44
 BYTE   W03
 BYTE   EOT
 BYTE   W48
 BYTE   W01
//  #06 //088   ----------------------------------------
 BYTE   W96
//  #06 //089   ----------------------------------------
 BYTE   W96
//  #06 //090   ----------------------------------------
 BYTE   W96
//  #06 //091   ----------------------------------------
 BYTE   W96
//  #06 //092   ----------------------------------------
 BYTE   W96
//  #06 //093   ----------------------------------------
 BYTE   W96
//  #06 //094   ----------------------------------------
 BYTE   W96
//  #06 //095   ----------------------------------------
 BYTE   W72
 BYTE   N11  Cn3
 BYTE   W12
 BYTE   N23  Gs3
 BYTE   W12
//  #06 //096   ----------------------------------------
Label_01005865:
 BYTE   W12
 BYTE   N11  Fn3  v112
 BYTE   W12
 BYTE   Gn3
 BYTE   W12
 BYTE   Cn3
 BYTE   W12
 BYTE   N92  Fn3
 BYTE   W48
 BYTE   PEND 
//  #06 //097   ----------------------------------------
 BYTE   W84
 BYTE   N23  Gs3
 BYTE   W12
//  #06 //098   ----------------------------------------
 BYTE   W12
 BYTE   N11  Cn4
 BYTE   W12
 BYTE   Gn3
 BYTE   W12
 BYTE   Cn3
 BYTE   W12
 BYTE   N92  Fn3
 BYTE   W48
//  #06 //099   ----------------------------------------
 BYTE   W84
 BYTE   N23  Gs3
 BYTE   W12
//  #06 //100   ----------------------------------------
 BYTE   PATT
  POIN2 Label_01005865
//  #06 //101   ----------------------------------------
 BYTE   W60
 BYTE   N32  Gn3  v112
 BYTE   W36
//  #06 //102   ----------------------------------------
 BYTE   TIE  Dn3
 BYTE   W96
//  #06 //103   ----------------------------------------
 BYTE   W44
 BYTE   W03
 BYTE   EOT
 BYTE   W48
 BYTE   W01
//  #06 //104   ----------------------------------------
 BYTE   W96
//  #06 //105   ----------------------------------------
 BYTE   W96
//  #06 //106   ----------------------------------------
 BYTE   W96
//  #06 //107   ----------------------------------------
 BYTE   W96
//  #06 //108   ----------------------------------------
 BYTE   W96
//  #06 //109   ----------------------------------------
 BYTE   W96
//  #06 //110   ----------------------------------------
 BYTE   W96
//  #06 //111   ----------------------------------------
 BYTE   GoTo
  POIN2 Label_01005793
//  #06 //112   ----------------------------------------
 BYTE   PATT
  POIN2 Label_01005793
//  #06 //113   ----------------------------------------
 BYTE   PATT
  POIN2 Label_010057A1
//  #06 //114   ----------------------------------------
 BYTE   PATT
  POIN2 Label_01005793
//  #06 //115   ----------------------------------------
 BYTE   PATT
  POIN2 Label_010057AD
//  #06 //116   ----------------------------------------
 BYTE   PATT
  POIN2 Label_010057B4
//  #06 //117   ----------------------------------------
 BYTE   PATT
  POIN2 Label_010057C3
//  #06 //118   ----------------------------------------
 BYTE   PATT
  POIN2 Label_010057CF
//  #06 //119   ----------------------------------------
 BYTE   W96
//  #06 //120   ----------------------------------------
 BYTE   PATT
  POIN2 Label_01005793
//  #06 //121   ----------------------------------------
 BYTE   PATT
  POIN2 Label_010057A1
//  #06 //122   ----------------------------------------
 BYTE   PATT
  POIN2 Label_01005793
//  #06 //123   ----------------------------------------
 BYTE   PATT
  POIN2 Label_010057AD
//  #06 //124   ----------------------------------------
 BYTE   PATT
  POIN2 Label_010057B4
//  #06 //125   ----------------------------------------
 BYTE   PATT
  POIN2 Label_010057C3
//  #06 //126   ----------------------------------------
 BYTE   PATT
  POIN2 Label_010057FD
//  #06 //127   ----------------------------------------
 BYTE   W12
 BYTE   N32  Cn3  v112
 BYTE   W84
//  #06 //128   ----------------------------------------
 BYTE   W96
//  #06 //129   ----------------------------------------
 BYTE   W96
//  #06 //130   ----------------------------------------
 BYTE   W96
//  #06 //131   ----------------------------------------
 BYTE   W96
//  #06 //132   ----------------------------------------
 BYTE   W96
//  #06 //133   ----------------------------------------
 BYTE   W96
//  #06 //134   ----------------------------------------
 BYTE   W96
//  #06 //135   ----------------------------------------
 BYTE   W96
//  #06 //136   ----------------------------------------
 BYTE   W96
//  #06 //137   ----------------------------------------
 BYTE   W96
//  #06 //138   ----------------------------------------
 BYTE   W96
//  #06 //139   ----------------------------------------
 BYTE   W96
//  #06 //140   ----------------------------------------
 BYTE   W96
//  #06 //141   ----------------------------------------
 BYTE   W96
//  #06 //142   ----------------------------------------
 BYTE   W96
//  #06 //143   ----------------------------------------
 BYTE   W96
//  #06 //144   ----------------------------------------
 BYTE   W92
 BYTE   W03
 BYTE   FINE

//**************** Track 7 (Midi-Chn.6) ****************//

LifeWillChange_007:
//  #07 //000   ----------------------------------------
 BYTE   KEYSH   LifeWillChange_key+0
 BYTE   VOICE   38
 BYTE   VOL   35*LifeWillChange_mvl/mxv
 BYTE   PAN   c_v+0
 BYTE   VOL   24*LifeWillChange_mvl/mxv
 BYTE   PAN   c_v+0
 BYTE   W96
//  #07 //001   ----------------------------------------
 BYTE   W96
//  #07 //002   ----------------------------------------
 BYTE   W96
//  #07 //003   ----------------------------------------
 BYTE   W96
//  #07 //004   ----------------------------------------
 BYTE   W96
//  #07 //005   ----------------------------------------
 BYTE   W96
//  #07 //006   ----------------------------------------
 BYTE   W96
//  #07 //007   ----------------------------------------
 BYTE   W96
//  #07 //008   ----------------------------------------
Label_010076D4:
 BYTE   N05  Fn0  v096
 BYTE   W06
 BYTE   Gs0
 BYTE   W06
 BYTE   N05
 BYTE   W06
 BYTE   Fn0
 BYTE   W06
 BYTE   N05
 BYTE   W06
 BYTE   Ds0
 BYTE   W12
 BYTE   N05
 BYTE   W12
 BYTE   N08
 BYTE   W18
 BYTE   N05
 BYTE   W12
 BYTE   N05
 BYTE   W06
 BYTE   N11  Fn0
 BYTE   W06
 BYTE   PEND 
//  #07 //009   ----------------------------------------
Label_010076EE:
 BYTE   W06
 BYTE   N05  Fn0  v096
 BYTE   W18
 BYTE   Ds0
 BYTE   W12
 BYTE   N05
 BYTE   W06
 BYTE   N11  Fn0
 BYTE   W12
 BYTE   N05
 BYTE   W18
 BYTE   N23  Fs0
 BYTE   W24
 BYTE   PEND 
//  #07 //010   ----------------------------------------
 BYTE   N08  Fn0
 BYTE   W18
 BYTE   N05
 BYTE   W06
 BYTE   Gs0
 BYTE   W06
 BYTE   Fn0
 BYTE   W12
 BYTE   Ds0
 BYTE   W12
 BYTE   N08
 BYTE   W18
 BYTE   N11
 BYTE   W12
 BYTE   N05
 BYTE   W06
 BYTE   N11  Fn0
 BYTE   W06
//  #07 //011   ----------------------------------------
 BYTE   W06
 BYTE   N05
 BYTE   W18
 BYTE   Cn1
 BYTE   W06
 BYTE   N11  As0
 BYTE   W12
 BYTE   N05  Gs0
 BYTE   W12
 BYTE   Fs0
 BYTE   W12
 BYTE   Fn0
 BYTE   W12
 BYTE   Ds0
 BYTE   W12
 BYTE   N05
 BYTE   W06
//  #07 //012   ----------------------------------------
 BYTE   PATT
  POIN2 Label_010076D4
//  #07 //013   ----------------------------------------
 BYTE   PATT
  POIN2 Label_010076EE
//  #07 //014   ----------------------------------------
 BYTE   N08  Fn0  v096
 BYTE   W18
 BYTE   N05
 BYTE   W06
 BYTE   Gs0
 BYTE   W06
 BYTE   Fn0
 BYTE   W12
 BYTE   Ds0
 BYTE   W12
 BYTE   N08
 BYTE   W18
 BYTE   N11
 BYTE   W12
 BYTE   N05
 BYTE   W06
 BYTE   N17  Fn0
 BYTE   W06
//  #07 //015   ----------------------------------------
 BYTE   W96
//  #07 //016   ----------------------------------------
Label_01007747:
 BYTE   N11  Fn0  v096
 BYTE   W12
 BYTE   N11
 BYTE   W12
 BYTE   N11
 BYTE   W12
 BYTE   N05
 BYTE   W06
 BYTE   N05
 BYTE   W06
 BYTE   N05
 BYTE   W06
 BYTE   N05
 BYTE   W06
 BYTE   N11
 BYTE   W12
 BYTE   N11
 BYTE   W12
 BYTE   N05
 BYTE   W06
 BYTE   N05
 BYTE   W06
 BYTE   PEND 
//  #07 //017   ----------------------------------------
Label_01007760:
 BYTE   N11  Gs0  v096
 BYTE   W12
 BYTE   N11
 BYTE   W12
 BYTE   N11
 BYTE   W12
 BYTE   N05
 BYTE   W06
 BYTE   N05
 BYTE   W06
 BYTE   N05
 BYTE   W06
 BYTE   N05
 BYTE   W06
 BYTE   N11
 BYTE   W12
 BYTE   N11
 BYTE   W12
 BYTE   N05
 BYTE   W06
 BYTE   N05
 BYTE   W06
 BYTE   PEND 
//  #07 //018   ----------------------------------------
Label_01007779:
 BYTE   N11  As0  v096
 BYTE   W12
 BYTE   N11
 BYTE   W12
 BYTE   N11
 BYTE   W12
 BYTE   N05
 BYTE   W06
 BYTE   N05
 BYTE   W06
 BYTE   N05
 BYTE   W06
 BYTE   N05
 BYTE   W06
 BYTE   N11
 BYTE   W12
 BYTE   N11
 BYTE   W12
 BYTE   N05
 BYTE   W06
 BYTE   N05
 BYTE   W06
 BYTE   PEND 
//  #07 //019   ----------------------------------------
Label_01007792:
 BYTE   N11  Cn1  v096
 BYTE   W12
 BYTE   N11
 BYTE   W12
 BYTE   N11
 BYTE   W12
 BYTE   N05
 BYTE   W06
 BYTE   N05
 BYTE   W06
 BYTE   N05
 BYTE   W06
 BYTE   N05
 BYTE   W06
 BYTE   N11
 BYTE   W12
 BYTE   N11
 BYTE   W12
 BYTE   N05
 BYTE   W06
 BYTE   N05
 BYTE   W06
 BYTE   PEND 
//  #07 //020   ----------------------------------------
 BYTE   PATT
  POIN2 Label_01007747
//  #07 //021   ----------------------------------------
 BYTE   PATT
  POIN2 Label_01007760
//  #07 //022   ----------------------------------------
 BYTE   PATT
  POIN2 Label_01007779
//  #07 //023   ----------------------------------------
 BYTE   PATT
  POIN2 Label_01007792
//  #07 //024   ----------------------------------------
 BYTE   PATT
  POIN2 Label_01007747
//  #07 //025   ----------------------------------------
 BYTE   PATT
  POIN2 Label_01007747
//  #07 //026   ----------------------------------------
 BYTE   PATT
  POIN2 Label_01007760
//  #07 //027   ----------------------------------------
 BYTE   PATT
  POIN2 Label_01007760
//  #07 //028   ----------------------------------------
 BYTE   PATT
  POIN2 Label_01007779
//  #07 //029   ----------------------------------------
 BYTE   PATT
  POIN2 Label_01007779
//  #07 //030   ----------------------------------------
 BYTE   N11  Gn0  v096
 BYTE   W12
 BYTE   N11
 BYTE   W12
 BYTE   N11
 BYTE   W12
 BYTE   N05
 BYTE   W06
 BYTE   N05
 BYTE   W06
 BYTE   N05
 BYTE   W06
 BYTE   N05
 BYTE   W06
 BYTE   N11
 BYTE   W12
 BYTE   N11
 BYTE   W12
 BYTE   N05
 BYTE   W06
 BYTE   N05
 BYTE   W06
//  #07 //031   ----------------------------------------
 BYTE   PATT
  POIN2 Label_01007792
//  #07 //032   ----------------------------------------
 BYTE   PATT
  POIN2 Label_01007747
//  #07 //033   ----------------------------------------
 BYTE   PATT
  POIN2 Label_01007747
//  #07 //034   ----------------------------------------
 BYTE   PATT
  POIN2 Label_01007760
//  #07 //035   ----------------------------------------
 BYTE   PATT
  POIN2 Label_01007760
//  #07 //036   ----------------------------------------
 BYTE   PATT
  POIN2 Label_01007779
//  #07 //037   ----------------------------------------
 BYTE   PATT
  POIN2 Label_01007779
//  #07 //038   ----------------------------------------
 BYTE   PATT
  POIN2 Label_01007792
//  #07 //039   ----------------------------------------
 BYTE   PATT
  POIN2 Label_01007792
//  #07 //040   ----------------------------------------
Label_01007822:
 BYTE   N05  Fn0  v096
 BYTE   W06
 BYTE   N05
 BYTE   W06
 BYTE   Fn1
 BYTE   W06
 BYTE   N05
 BYTE   W06
 BYTE   En1
 BYTE   W12
 BYTE   N11
 BYTE   W12
 BYTE   N05  Ds1
 BYTE   W12
 BYTE   N11
 BYTE   W12
 BYTE   N05  Dn1
 BYTE   W12
 BYTE   N05
 BYTE   W06
 BYTE   Cs1
 BYTE   W06
 BYTE   PEND 
//  #07 //041   ----------------------------------------
Label_0100783D:
 BYTE   N05  Cn1  v096
 BYTE   W12
 BYTE   N11
 BYTE   W12
 BYTE   N05  Bn0
 BYTE   W12
 BYTE   N11
 BYTE   W12
 BYTE   N05  As0
 BYTE   W12
 BYTE   N11
 BYTE   W12
 BYTE   Gs0
 BYTE   W12
 BYTE   Fn0
 BYTE   W12
 BYTE   PEND 
//  #07 //042   ----------------------------------------
 BYTE   PATT
  POIN2 Label_01007822
//  #07 //043   ----------------------------------------
 BYTE   PATT
  POIN2 Label_0100783D
//  #07 //044   ----------------------------------------
 BYTE   PATT
  POIN2 Label_01007822
//  #07 //045   ----------------------------------------
 BYTE   PATT
  POIN2 Label_0100783D
//  #07 //046   ----------------------------------------
 BYTE   PATT
  POIN2 Label_01007822
//  #07 //047   ----------------------------------------
Label_0100786B:
//  #07 //048   ----------------------------------------
 BYTE   PATT
  POIN2 Label_0100783D
//  #07 //049   ----------------------------------------
Label_01007870:
 BYTE   N11  Fn0  v112
 BYTE   W12
 BYTE   N11
 BYTE   W12
 BYTE   N11
 BYTE   W12
 BYTE   N05
 BYTE   W06
 BYTE   N05
 BYTE   W06
 BYTE   N11
 BYTE   W12
 BYTE   N11
 BYTE   W12
 BYTE   N11
 BYTE   W12
 BYTE   N05
 BYTE   W06
 BYTE   N05
 BYTE   W06
 BYTE   PEND 
//  #07 //050   ----------------------------------------
 BYTE   PATT
  POIN2 Label_01007870
//  #07 //051   ----------------------------------------
Label_0100788C:
 BYTE   N11  Gs0  v112
 BYTE   W12
 BYTE   N11
 BYTE   W12
 BYTE   N11
 BYTE   W12
 BYTE   N05
 BYTE   W06
 BYTE   N05
 BYTE   W06
 BYTE   N11
 BYTE   W12
 BYTE   N11
 BYTE   W12
 BYTE   N11
 BYTE   W12
 BYTE   N05
 BYTE   W06
 BYTE   N05
 BYTE   W06
 BYTE   PEND 
//  #07 //052   ----------------------------------------
 BYTE   PATT
  POIN2 Label_0100788C
//  #07 //053   ----------------------------------------
Label_010078A8:
 BYTE   N11  As0  v112
 BYTE   W12
 BYTE   N11
 BYTE   W12
 BYTE   N11
 BYTE   W12
 BYTE   N05
 BYTE   W06
 BYTE   N05
 BYTE   W06
 BYTE   N11
 BYTE   W12
 BYTE   N11
 BYTE   W12
 BYTE   N11
 BYTE   W12
 BYTE   N05
 BYTE   W06
 BYTE   N05
 BYTE   W06
 BYTE   PEND 
//  #07 //054   ----------------------------------------
 BYTE   PATT
  POIN2 Label_010078A8
//  #07 //055   ----------------------------------------
Label_010078C4:
 BYTE   N11  Fn0  v112
 BYTE   W12
 BYTE   N11
 BYTE   W24
 BYTE   N23  Fs0
 BYTE   W24
 BYTE   N05
 BYTE   W06
 BYTE   N05
 BYTE   W06
 BYTE   N11
 BYTE   W12
 BYTE   N11
 BYTE   W12
 BYTE   PEND 
//  #07 //056   ----------------------------------------
Label_010078D6:
 BYTE   N11  Gn0  v112
 BYTE   W12
 BYTE   N11
 BYTE   W24
 BYTE   N23  Cn1
 BYTE   W24
 BYTE   N05
 BYTE   W06
 BYTE   N05
 BYTE   W06
 BYTE   N11
 BYTE   W12
 BYTE   N11
 BYTE   W12
 BYTE   PEND 
//  #07 //057   ----------------------------------------
 BYTE   PATT
  POIN2 Label_01007870
//  #07 //058   ----------------------------------------
 BYTE   PATT
  POIN2 Label_01007870
//  #07 //059   ----------------------------------------
 BYTE   PATT
  POIN2 Label_0100788C
//  #07 //060   ----------------------------------------
 BYTE   PATT
  POIN2 Label_0100788C
//  #07 //061   ----------------------------------------
 BYTE   PATT
  POIN2 Label_010078A8
//  #07 //062   ----------------------------------------
 BYTE   PATT
  POIN2 Label_010078A8
//  #07 //063   ----------------------------------------
 BYTE   PATT
  POIN2 Label_01007870
//  #07 //064   ----------------------------------------
 BYTE   PATT
  POIN2 Label_01007870
//  #07 //065   ----------------------------------------
 BYTE   PATT
  POIN2 Label_01007870
//  #07 //066   ----------------------------------------
 BYTE   PATT
  POIN2 Label_01007870
//  #07 //067   ----------------------------------------
 BYTE   PATT
  POIN2 Label_0100788C
//  #07 //068   ----------------------------------------
 BYTE   PATT
  POIN2 Label_0100788C
//  #07 //069   ----------------------------------------
 BYTE   PATT
  POIN2 Label_010078A8
//  #07 //070   ----------------------------------------
 BYTE   PATT
  POIN2 Label_010078A8
//  #07 //071   ----------------------------------------
 BYTE   PATT
  POIN2 Label_010078C4
//  #07 //072   ----------------------------------------
 BYTE   PATT
  POIN2 Label_010078D6
//  #07 //073   ----------------------------------------
 BYTE   PATT
  POIN2 Label_01007870
//  #07 //074   ----------------------------------------
 BYTE   PATT
  POIN2 Label_01007870
//  #07 //075   ----------------------------------------
 BYTE   PATT
  POIN2 Label_0100788C
//  #07 //076   ----------------------------------------
 BYTE   PATT
  POIN2 Label_0100788C
//  #07 //077   ----------------------------------------
 BYTE   PATT
  POIN2 Label_010078A8
//  #07 //078   ----------------------------------------
 BYTE   PATT
  POIN2 Label_010078A8
//  #07 //079   ----------------------------------------
 BYTE   PATT
  POIN2 Label_01007870
//  #07 //080   ----------------------------------------
 BYTE   PATT
  POIN2 Label_01007870
//  #07 //081   ----------------------------------------
Label_01007960:
 BYTE   N11  Fn0  v112
 BYTE   W12
 BYTE   N11
 BYTE   W12
 BYTE   N11
 BYTE   W12
 BYTE   N05
 BYTE   W06
 BYTE   N05
 BYTE   W06
 BYTE   N05
 BYTE   W06
 BYTE   N05
 BYTE   W06
 BYTE   N11
 BYTE   W12
 BYTE   N11
 BYTE   W12
 BYTE   N05
 BYTE   W06
 BYTE   N05
 BYTE   W06
 BYTE   PEND 
//  #07 //082   ----------------------------------------
Label_01007979:
 BYTE   N11  Gs0  v112
 BYTE   W12
 BYTE   N11
 BYTE   W12
 BYTE   N11
 BYTE   W12
 BYTE   N05
 BYTE   W06
 BYTE   N05
 BYTE   W06
 BYTE   N05
 BYTE   W06
 BYTE   N05
 BYTE   W06
 BYTE   N11
 BYTE   W12
 BYTE   N11
 BYTE   W12
 BYTE   N05
 BYTE   W06
 BYTE   N05
 BYTE   W06
 BYTE   PEND 
//  #07 //083   ----------------------------------------
Label_01007992:
 BYTE   N11  As0  v112
 BYTE   W12
 BYTE   N11
 BYTE   W12
 BYTE   N11
 BYTE   W12
 BYTE   N05
 BYTE   W06
 BYTE   N05
 BYTE   W06
 BYTE   N05
 BYTE   W06
 BYTE   N05
 BYTE   W06
 BYTE   N11
 BYTE   W12
 BYTE   N11
 BYTE   W12
 BYTE   N05
 BYTE   W06
 BYTE   N05
 BYTE   W06
 BYTE   PEND 
//  #07 //084   ----------------------------------------
Label_010079AB:
 BYTE   N11  Cn1  v112
 BYTE   W12
 BYTE   N11
 BYTE   W12
 BYTE   N11
 BYTE   W12
 BYTE   N05
 BYTE   W06
 BYTE   N05
 BYTE   W06
 BYTE   N05
 BYTE   W06
 BYTE   N05
 BYTE   W06
 BYTE   N11
 BYTE   W12
 BYTE   N11
 BYTE   W12
 BYTE   N05
 BYTE   W06
 BYTE   N05
 BYTE   W06
 BYTE   PEND 
//  #07 //085   ----------------------------------------
 BYTE   PATT
  POIN2 Label_01007960
//  #07 //086   ----------------------------------------
 BYTE   PATT
  POIN2 Label_01007979
//  #07 //087   ----------------------------------------
 BYTE   PATT
  POIN2 Label_01007992
//  #07 //088   ----------------------------------------
 BYTE   PATT
  POIN2 Label_010079AB
//  #07 //089   ----------------------------------------
 BYTE   PATT
  POIN2 Label_01007960
//  #07 //090   ----------------------------------------
 BYTE   PATT
  POIN2 Label_01007960
//  #07 //091   ----------------------------------------
 BYTE   PATT
  POIN2 Label_01007979
//  #07 //092   ----------------------------------------
 BYTE   PATT
  POIN2 Label_01007979
//  #07 //093   ----------------------------------------
 BYTE   PATT
  POIN2 Label_01007992
//  #07 //094   ----------------------------------------
 BYTE   PATT
  POIN2 Label_01007992
//  #07 //095   ----------------------------------------
 BYTE   N11  Gn0  v112
 BYTE   W12
 BYTE   N11
 BYTE   W12
 BYTE   N11
 BYTE   W12
 BYTE   N05
 BYTE   W06
 BYTE   N05
 BYTE   W06
 BYTE   N05
 BYTE   W06
 BYTE   N05
 BYTE   W06
 BYTE   N11
 BYTE   W12
 BYTE   N11
 BYTE   W12
 BYTE   N05
 BYTE   W06
 BYTE   N05
 BYTE   W06
//  #07 //096   ----------------------------------------
 BYTE   PATT
  POIN2 Label_010079AB
//  #07 //097   ----------------------------------------
 BYTE   PATT
  POIN2 Label_01007960
//  #07 //098   ----------------------------------------
 BYTE   PATT
  POIN2 Label_01007960
//  #07 //099   ----------------------------------------
 BYTE   PATT
  POIN2 Label_01007979
//  #07 //100   ----------------------------------------
 BYTE   PATT
  POIN2 Label_01007979
//  #07 //101   ----------------------------------------
 BYTE   PATT
  POIN2 Label_01007992
//  #07 //102   ----------------------------------------
 BYTE   PATT
  POIN2 Label_01007992
//  #07 //103   ----------------------------------------
 BYTE   PATT
  POIN2 Label_010079AB
//  #07 //104   ----------------------------------------
 BYTE   PATT
  POIN2 Label_010079AB
//  #07 //105   ----------------------------------------
 BYTE   PATT
  POIN2 Label_01007822
//  #07 //106   ----------------------------------------
 BYTE   PATT
  POIN2 Label_0100783D
//  #07 //107   ----------------------------------------
 BYTE   PATT
  POIN2 Label_01007822
//  #07 //108   ----------------------------------------
 BYTE   PATT
  POIN2 Label_0100783D
//  #07 //109   ----------------------------------------
 BYTE   PATT
  POIN2 Label_01007822
//  #07 //110   ----------------------------------------
 BYTE   PATT
  POIN2 Label_0100783D
//  #07 //111   ----------------------------------------
 BYTE   PATT
  POIN2 Label_01007822
//  #07 //112   ----------------------------------------
 BYTE   GoTo
  POIN2 Label_0100786B
//  #07 //113   ----------------------------------------
 BYTE   PATT
  POIN2 Label_0100783D
//  #07 //114   ----------------------------------------
 BYTE   PATT
  POIN2 Label_01007870
//  #07 //115   ----------------------------------------
 BYTE   PATT
  POIN2 Label_01007870
//  #07 //116   ----------------------------------------
 BYTE   PATT
  POIN2 Label_0100788C
//  #07 //117   ----------------------------------------
 BYTE   PATT
  POIN2 Label_0100788C
//  #07 //118   ----------------------------------------
 BYTE   PATT
  POIN2 Label_010078A8
//  #07 //119   ----------------------------------------
 BYTE   PATT
  POIN2 Label_010078A8
//  #07 //120   ----------------------------------------
 BYTE   PATT
  POIN2 Label_010078C4
//  #07 //121   ----------------------------------------
 BYTE   PATT
  POIN2 Label_010078D6
//  #07 //122   ----------------------------------------
 BYTE   PATT
  POIN2 Label_01007870
//  #07 //123   ----------------------------------------
 BYTE   PATT
  POIN2 Label_01007870
//  #07 //124   ----------------------------------------
 BYTE   PATT
  POIN2 Label_0100788C
//  #07 //125   ----------------------------------------
 BYTE   PATT
  POIN2 Label_0100788C
//  #07 //126   ----------------------------------------
 BYTE   PATT
  POIN2 Label_010078A8
//  #07 //127   ----------------------------------------
 BYTE   PATT
  POIN2 Label_010078A8
//  #07 //128   ----------------------------------------
 BYTE   PATT
  POIN2 Label_01007870
//  #07 //129   ----------------------------------------
 BYTE   PATT
  POIN2 Label_01007870
//  #07 //130   ----------------------------------------
 BYTE   PATT
  POIN2 Label_01007870
//  #07 //131   ----------------------------------------
 BYTE   PATT
  POIN2 Label_01007870
//  #07 //132   ----------------------------------------
 BYTE   PATT
  POIN2 Label_0100788C
//  #07 //133   ----------------------------------------
 BYTE   PATT
  POIN2 Label_0100788C
//  #07 //134   ----------------------------------------
 BYTE   PATT
  POIN2 Label_010078A8
//  #07 //135   ----------------------------------------
 BYTE   PATT
  POIN2 Label_010078A8
//  #07 //136   ----------------------------------------
 BYTE   PATT
  POIN2 Label_010078C4
//  #07 //137   ----------------------------------------
 BYTE   PATT
  POIN2 Label_010078D6
//  #07 //138   ----------------------------------------
 BYTE   PATT
  POIN2 Label_01007870
//  #07 //139   ----------------------------------------
 BYTE   PATT
  POIN2 Label_01007870
//  #07 //140   ----------------------------------------
 BYTE   PATT
  POIN2 Label_0100788C
//  #07 //141   ----------------------------------------
 BYTE   PATT
  POIN2 Label_0100788C
//  #07 //142   ----------------------------------------
 BYTE   PATT
  POIN2 Label_010078A8
//  #07 //143   ----------------------------------------
 BYTE   PATT
  POIN2 Label_010078A8
//  #07 //144   ----------------------------------------
 BYTE   PATT
  POIN2 Label_01007870
//  #07 //145   ----------------------------------------
 BYTE   N11  Fn0  v112
 BYTE   W12
 BYTE   N11
 BYTE   W12
 BYTE   N11
 BYTE   W12
 BYTE   N05
 BYTE   W06
 BYTE   N05
 BYTE   W06
 BYTE   N11
 BYTE   W12
 BYTE   N11
 BYTE   W12
 BYTE   N11
 BYTE   W12
 BYTE   N05
 BYTE   W06
 BYTE   N05
 BYTE   W05
 BYTE   FINE

//**************** Track 8 (Midi-Chn.7) ****************//

LifeWillChange_008:
//  #08 //000   ----------------------------------------
 BYTE   KEYSH   LifeWillChange_key+0
 BYTE   VOICE   124
 BYTE   VOL   28*LifeWillChange_mvl/mxv
 BYTE   PAN   c_v+0
 BYTE   N23  Cn1  v080
 BYTE   N05  Fs1  v120
 BYTE   W06
 BYTE   Fs1  v080
 BYTE   W06
 BYTE   N05
 BYTE   W06
 BYTE   N05
 BYTE   W06
 BYTE   N23  Cn1
 BYTE   N05  Fs1  v120
 BYTE   W06
 BYTE   Fs1  v080
 BYTE   W06
 BYTE   N05
 BYTE   W06
 BYTE   N05
 BYTE   W06
 BYTE   N23  Cn1
 BYTE   N05  Fs1  v120
 BYTE   W06
 BYTE   Fs1  v080
 BYTE   W06
 BYTE   N05
 BYTE   W06
 BYTE   N05
 BYTE   W06
 BYTE   N23  Cn1
 BYTE   N05  Fs1  v120
 BYTE   W06
 BYTE   Fs1  v080
 BYTE   W06
 BYTE   N05
 BYTE   W06
 BYTE   N05
 BYTE   W06
//  #08 //001   ----------------------------------------
Label_01007B69:
 BYTE   N23  Cn1  v080
 BYTE   N05  Fs1  v120
 BYTE   W06
 BYTE   Fs1  v080
 BYTE   W06
 BYTE   N05
 BYTE   W06
 BYTE   N05
 BYTE   W06
 BYTE   N23  Cn1
 BYTE   N05  Fs1  v120
 BYTE   W06
 BYTE   Fs1  v080
 BYTE   W06
 BYTE   N05
 BYTE   W06
 BYTE   N05
 BYTE   W06
 BYTE   N23  Cn1
 BYTE   N05  Fs1  v120
 BYTE   W06
 BYTE   Fs1  v080
 BYTE   W06
 BYTE   N05
 BYTE   W06
 BYTE   N05
 BYTE   W06
 BYTE   N23  Cn1
 BYTE   N05  Fs1  v120
 BYTE   W06
 BYTE   Fs1  v080
 BYTE   W06
 BYTE   N05
 BYTE   W06
 BYTE   N05
 BYTE   W06
 BYTE   PEND 
//  #08 //002   ----------------------------------------
 BYTE   PATT
  POIN2 Label_01007B69
//  #08 //003   ----------------------------------------
 BYTE   PATT
  POIN2 Label_01007B69
//  #08 //004   ----------------------------------------
 BYTE   PATT
  POIN2 Label_01007B69
//  #08 //005   ----------------------------------------
 BYTE   PATT
  POIN2 Label_01007B69
//  #08 //006   ----------------------------------------
 BYTE   PATT
  POIN2 Label_01007B69
//  #08 //007   ----------------------------------------
 BYTE   N23  Cn1  v080
 BYTE   N05  Fs1  v120
 BYTE   W06
 BYTE   Fs1  v080
 BYTE   W06
 BYTE   N05
 BYTE   W06
 BYTE   N05
 BYTE   W06
 BYTE   N17  Cn1  v120
 BYTE   N05  Fs1
 BYTE   W06
 BYTE   Fs1  v080
 BYTE   W06
 BYTE   N05
 BYTE   W06
 BYTE   Cn1  v120
 BYTE   N05  Fs1  v080
 BYTE   W06
 BYTE   N11  Cn1  v120
 BYTE   N05  Fs1
 BYTE   W06
 BYTE   Fs1  v080
 BYTE   W06
 BYTE   N11  Cn1  v120
 BYTE   N05  Fs1  v080
 BYTE   W06
 BYTE   N05
 BYTE   W06
 BYTE   Cn1  v120
 BYTE   N05  Fs1
 BYTE   W06
 BYTE   N11  Cn1
 BYTE   N05  Fs1  v080
 BYTE   W06
 BYTE   N05
 BYTE   W06
 BYTE   Cn1  v120
 BYTE   N05  Fs1  v080
 BYTE   W06
//  #08 //008   ----------------------------------------
Label_01007BFC:
 BYTE   N23  Cn1  v080
 BYTE   N05  Cs2  v120
 BYTE   W06
 BYTE   Fs1  v080
 BYTE   W06
 BYTE   N05
 BYTE   W06
 BYTE   N05
 BYTE   W06
 BYTE   N23  Cn1
 BYTE   N05  Fs1  v120
 BYTE   W06
 BYTE   Fs1  v080
 BYTE   W06
 BYTE   N05
 BYTE   W06
 BYTE   N05
 BYTE   W06
 BYTE   N23  Cn1
 BYTE   N05  Fs1  v120
 BYTE   W06
 BYTE   Fs1  v080
 BYTE   W06
 BYTE   N05
 BYTE   W06
 BYTE   N05
 BYTE   W06
 BYTE   N23  Cn1
 BYTE   N05  Fs1  v120
 BYTE   W06
 BYTE   Fs1  v080
 BYTE   W06
 BYTE   N05
 BYTE   W06
 BYTE   N05
 BYTE   W06
 BYTE   PEND 
//  #08 //009   ----------------------------------------
 BYTE   PATT
  POIN2 Label_01007B69
//  #08 //010   ----------------------------------------
 BYTE   PATT
  POIN2 Label_01007B69
//  #08 //011   ----------------------------------------
 BYTE   PATT
  POIN2 Label_01007B69
//  #08 //012   ----------------------------------------
 BYTE   PATT
  POIN2 Label_01007B69
//  #08 //013   ----------------------------------------
 BYTE   PATT
  POIN2 Label_01007B69
//  #08 //014   ----------------------------------------
 BYTE   PATT
  POIN2 Label_01007B69
//  #08 //015   ----------------------------------------
 BYTE   N23  Cn1  v080
 BYTE   N23  Fs1  v120
 BYTE   W48
 BYTE   N11  Cn1  v096
 BYTE   W12
 BYTE   N11
 BYTE   W12
 BYTE   N05  Dn1
 BYTE   W06
 BYTE   N05
 BYTE   W06
 BYTE   N05
 BYTE   W06
 BYTE   N05
 BYTE   W06
//  #08 //016   ----------------------------------------
Label_01007C66:
 BYTE   N23  Cn1  v096
 BYTE   N11  Cs2
 BYTE   W12
 BYTE   Fs1
 BYTE   W12
 BYTE   Dn1
 BYTE   W12
 BYTE   Fs1
 BYTE   W12
 BYTE   N23  Cn1
 BYTE   W12
 BYTE   N11  Fs1
 BYTE   W12
 BYTE   Dn1
 BYTE   W12
 BYTE   Fs1
 BYTE   W12
 BYTE   PEND 
//  #08 //017   ----------------------------------------
Label_01007C7D:
 BYTE   N23  Cn1  v096
 BYTE   W12
 BYTE   N11  Fs1
 BYTE   W12
 BYTE   Dn1
 BYTE   W12
 BYTE   Fs1
 BYTE   W12
 BYTE   N23  Cn1
 BYTE   W12
 BYTE   N11  Fs1
 BYTE   W12
 BYTE   Dn1
 BYTE   W12
 BYTE   N05  Fs1
 BYTE   W06
 BYTE   N05
 BYTE   W06
 BYTE   PEND 
//  #08 //018   ----------------------------------------
Label_01007C96:
 BYTE   N23  Cn1  v096
 BYTE   W12
 BYTE   N11  Fs1
 BYTE   W12
 BYTE   Dn1
 BYTE   W12
 BYTE   Fs1
 BYTE   W12
 BYTE   N23  Cn1
 BYTE   W12
 BYTE   N11  Fs1
 BYTE   W12
 BYTE   Dn1
 BYTE   W12
 BYTE   Fs1
 BYTE   W12
 BYTE   PEND 
//  #08 //019   ----------------------------------------
 BYTE   PATT
  POIN2 Label_01007C7D
//  #08 //020   ----------------------------------------
 BYTE   PATT
  POIN2 Label_01007C66
//  #08 //021   ----------------------------------------
 BYTE   PATT
  POIN2 Label_01007C7D
//  #08 //022   ----------------------------------------
 BYTE   PATT
  POIN2 Label_01007C96
//  #08 //023   ----------------------------------------
 BYTE   PATT
  POIN2 Label_01007C7D
//  #08 //024   ----------------------------------------
 BYTE   PATT
  POIN2 Label_01007C66
//  #08 //025   ----------------------------------------
 BYTE   PATT
  POIN2 Label_01007C7D
//  #08 //026   ----------------------------------------
 BYTE   PATT
  POIN2 Label_01007C96
//  #08 //027   ----------------------------------------
 BYTE   PATT
  POIN2 Label_01007C7D
//  #08 //028   ----------------------------------------
 BYTE   PATT
  POIN2 Label_01007C66
//  #08 //029   ----------------------------------------
 BYTE   PATT
  POIN2 Label_01007C7D
//  #08 //030   ----------------------------------------
 BYTE   PATT
  POIN2 Label_01007C96
//  #08 //031   ----------------------------------------
 BYTE   PATT
  POIN2 Label_01007C7D
//  #08 //032   ----------------------------------------
 BYTE   PATT
  POIN2 Label_01007C66
//  #08 //033   ----------------------------------------
 BYTE   PATT
  POIN2 Label_01007C7D
//  #08 //034   ----------------------------------------
 BYTE   PATT
  POIN2 Label_01007C96
//  #08 //035   ----------------------------------------
 BYTE   PATT
  POIN2 Label_01007C7D
//  #08 //036   ----------------------------------------
 BYTE   PATT
  POIN2 Label_01007C66
//  #08 //037   ----------------------------------------
 BYTE   PATT
  POIN2 Label_01007C7D
//  #08 //038   ----------------------------------------
 BYTE   PATT
  POIN2 Label_01007C96
//  #08 //039   ----------------------------------------
 BYTE   PATT
  POIN2 Label_01007C7D
//  #08 //040   ----------------------------------------
 BYTE   PATT
  POIN2 Label_01007BFC
//  #08 //041   ----------------------------------------
 BYTE   PATT
  POIN2 Label_01007B69
//  #08 //042   ----------------------------------------
 BYTE   PATT
  POIN2 Label_01007B69
//  #08 //043   ----------------------------------------
 BYTE   PATT
  POIN2 Label_01007B69
//  #08 //044   ----------------------------------------
 BYTE   PATT
  POIN2 Label_01007B69
//  #08 //045   ----------------------------------------
 BYTE   PATT
  POIN2 Label_01007B69
//  #08 //046   ----------------------------------------
 BYTE   PATT
  POIN2 Label_01007B69
//  #08 //047   ----------------------------------------
Label_01007D38:
 BYTE   N23  Cn1  v080
 BYTE   N23  Fs1  v120
 BYTE   W42
 BYTE   N05  Dn1  v112
 BYTE   W06
 BYTE   N23  Cn1
 BYTE   N11  Dn1
 BYTE   W12
 BYTE   N11
 BYTE   W12
 BYTE   N23  Cn1
 BYTE   N05  Dn1
 BYTE   W06
 BYTE   N05
 BYTE   W06
 BYTE   N05
 BYTE   W06
 BYTE   N05
 BYTE   W06
 BYTE   PEND 
//  #08 //048   ----------------------------------------
Label_01007D56:
 BYTE   N23  Cn1  v112
 BYTE   N11  Cs2
 BYTE   W12
 BYTE   Fs1
 BYTE   W12
 BYTE   Dn1
 BYTE   W12
 BYTE   Fs1
 BYTE   W12
 BYTE   N23  Cn1
 BYTE   W12
 BYTE   N11  Fs1
 BYTE   W12
 BYTE   Dn1
 BYTE   W12
 BYTE   Fs1
 BYTE   W12
 BYTE   PEND 
//  #08 //049   ----------------------------------------
Label_01007D6D:
 BYTE   N23  Cn1  v112
 BYTE   W12
 BYTE   N11  Fs1
 BYTE   W12
 BYTE   Dn1
 BYTE   W12
 BYTE   Fs1
 BYTE   W12
 BYTE   N23  Cn1
 BYTE   W12
 BYTE   N11  Fs1
 BYTE   W12
 BYTE   Dn1
 BYTE   W12
 BYTE   N05  Fs1
 BYTE   W06
 BYTE   N05
 BYTE   W06
 BYTE   PEND 
//  #08 //050   ----------------------------------------
Label_01007D86:
 BYTE   N23  Cn1  v112
 BYTE   W12
 BYTE   N11  Fs1
 BYTE   W12
 BYTE   Dn1
 BYTE   W12
 BYTE   Fs1
 BYTE   W12
 BYTE   N23  Cn1
 BYTE   W12
 BYTE   N11  Fs1
 BYTE   W12
 BYTE   Dn1
 BYTE   W12
 BYTE   Fs1
 BYTE   W12
 BYTE   PEND 
//  #08 //051   ----------------------------------------
 BYTE   PATT
  POIN2 Label_01007D6D
//  #08 //052   ----------------------------------------
 BYTE   PATT
  POIN2 Label_01007D56
//  #08 //053   ----------------------------------------
 BYTE   PATT
  POIN2 Label_01007D6D
//  #08 //054   ----------------------------------------
 BYTE   PATT
  POIN2 Label_01007D86
//  #08 //055   ----------------------------------------
 BYTE   PATT
  POIN2 Label_01007D6D
//  #08 //056   ----------------------------------------
 BYTE   PATT
  POIN2 Label_01007D56
//  #08 //057   ----------------------------------------
 BYTE   PATT
  POIN2 Label_01007D6D
//  #08 //058   ----------------------------------------
 BYTE   PATT
  POIN2 Label_01007D86
//  #08 //059   ----------------------------------------
 BYTE   PATT
  POIN2 Label_01007D6D
//  #08 //060   ----------------------------------------
 BYTE   PATT
  POIN2 Label_01007D56
//  #08 //061   ----------------------------------------
 BYTE   PATT
  POIN2 Label_01007D6D
//  #08 //062   ----------------------------------------
 BYTE   PATT
  POIN2 Label_01007D86
//  #08 //063   ----------------------------------------
Label_01007DD8:
 BYTE   N23  Cn1  v112
 BYTE   W12
 BYTE   N11  Fs1
 BYTE   W12
 BYTE   Dn1
 BYTE   W12
 BYTE   N05  Cn1
 BYTE   N11  Fs1
 BYTE   W06
 BYTE   N05  Cn1
 BYTE   W06
 BYTE   N11
 BYTE   N11  Gn1
 BYTE   W12
 BYTE   Fs1
 BYTE   N11  Gn1
 BYTE   W12
 BYTE   Dn1
 BYTE   W12
 BYTE   N05
 BYTE   N05  Fs1
 BYTE   W06
 BYTE   Dn1
 BYTE   W06
 BYTE   PEND 
//  #08 //064   ----------------------------------------
 BYTE   PATT
  POIN2 Label_01007D56
//  #08 //065   ----------------------------------------
 BYTE   PATT
  POIN2 Label_01007D6D
//  #08 //066   ----------------------------------------
 BYTE   PATT
  POIN2 Label_01007D86
//  #08 //067   ----------------------------------------
 BYTE   PATT
  POIN2 Label_01007D6D
//  #08 //068   ----------------------------------------
 BYTE   PATT
  POIN2 Label_01007D56
//  #08 //069   ----------------------------------------
 BYTE   PATT
  POIN2 Label_01007D6D
//  #08 //070   ----------------------------------------
 BYTE   PATT
  POIN2 Label_01007D86
//  #08 //071   ----------------------------------------
 BYTE   PATT
  POIN2 Label_01007D6D
//  #08 //072   ----------------------------------------
 BYTE   PATT
  POIN2 Label_01007D56
//  #08 //073   ----------------------------------------
 BYTE   PATT
  POIN2 Label_01007D6D
//  #08 //074   ----------------------------------------
 BYTE   PATT
  POIN2 Label_01007D86
//  #08 //075   ----------------------------------------
 BYTE   PATT
  POIN2 Label_01007D6D
//  #08 //076   ----------------------------------------
 BYTE   PATT
  POIN2 Label_01007D56
//  #08 //077   ----------------------------------------
 BYTE   PATT
  POIN2 Label_01007D6D
//  #08 //078   ----------------------------------------
 BYTE   PATT
  POIN2 Label_01007D86
//  #08 //079   ----------------------------------------
 BYTE   N23  Cn1  v112
 BYTE   W12
 BYTE   N11  Fs1
 BYTE   W12
 BYTE   Dn1
 BYTE   W12
 BYTE   Fs1
 BYTE   W12
 BYTE   Cn1
 BYTE   N11  Gn1
 BYTE   W12
 BYTE   Fs1
 BYTE   N11  Gn1
 BYTE   W12
 BYTE   Dn1
 BYTE   W12
 BYTE   N05
 BYTE   N05  Fs1
 BYTE   W06
 BYTE   Dn1
 BYTE   W06
//  #08 //080   ----------------------------------------
 BYTE   PATT
  POIN2 Label_01007D56
//  #08 //081   ----------------------------------------
 BYTE   PATT
  POIN2 Label_01007D6D
//  #08 //082   ----------------------------------------
 BYTE   PATT
  POIN2 Label_01007D86
//  #08 //083   ----------------------------------------
 BYTE   PATT
  POIN2 Label_01007D6D
//  #08 //084   ----------------------------------------
 BYTE   PATT
  POIN2 Label_01007D56
//  #08 //085   ----------------------------------------
 BYTE   PATT
  POIN2 Label_01007D6D
//  #08 //086   ----------------------------------------
 BYTE   PATT
  POIN2 Label_01007D86
//  #08 //087   ----------------------------------------
 BYTE   PATT
  POIN2 Label_01007D6D
//  #08 //088   ----------------------------------------
 BYTE   PATT
  POIN2 Label_01007D56
//  #08 //089   ----------------------------------------
 BYTE   PATT
  POIN2 Label_01007D6D
//  #08 //090   ----------------------------------------
 BYTE   PATT
  POIN2 Label_01007D86
//  #08 //091   ----------------------------------------
 BYTE   PATT
  POIN2 Label_01007D6D
//  #08 //092   ----------------------------------------
 BYTE   PATT
  POIN2 Label_01007D56
//  #08 //093   ----------------------------------------
 BYTE   PATT
  POIN2 Label_01007D6D
//  #08 //094   ----------------------------------------
 BYTE   PATT
  POIN2 Label_01007D86
//  #08 //095   ----------------------------------------
 BYTE   PATT
  POIN2 Label_01007D6D
//  #08 //096   ----------------------------------------
 BYTE   PATT
  POIN2 Label_01007D56
//  #08 //097   ----------------------------------------
 BYTE   PATT
  POIN2 Label_01007D6D
//  #08 //098   ----------------------------------------
 BYTE   PATT
  POIN2 Label_01007D86
//  #08 //099   ----------------------------------------
 BYTE   PATT
  POIN2 Label_01007D6D
//  #08 //100   ----------------------------------------
 BYTE   PATT
  POIN2 Label_01007D56
//  #08 //101   ----------------------------------------
 BYTE   PATT
  POIN2 Label_01007D6D
//  #08 //102   ----------------------------------------
 BYTE   PATT
  POIN2 Label_01007D86
//  #08 //103   ----------------------------------------
 BYTE   PATT
  POIN2 Label_01007D6D
//  #08 //104   ----------------------------------------
 BYTE   PATT
  POIN2 Label_01007BFC
//  #08 //105   ----------------------------------------
 BYTE   PATT
  POIN2 Label_01007B69
//  #08 //106   ----------------------------------------
 BYTE   PATT
  POIN2 Label_01007B69
//  #08 //107   ----------------------------------------
 BYTE   PATT
  POIN2 Label_01007B69
//  #08 //108   ----------------------------------------
 BYTE   PATT
  POIN2 Label_01007B69
//  #08 //109   ----------------------------------------
 BYTE   PATT
  POIN2 Label_01007B69
//  #08 //110   ----------------------------------------
 BYTE   PATT
  POIN2 Label_01007B69
//  #08 //111   ----------------------------------------
 BYTE   GoTo
  POIN2 Label_01007D38
//  #08 //112   ----------------------------------------
 BYTE   PATT
  POIN2 Label_01007D38
//  #08 //113   ----------------------------------------
 BYTE   PATT
  POIN2 Label_01007D56
//  #08 //114   ----------------------------------------
 BYTE   PATT
  POIN2 Label_01007D6D
//  #08 //115   ----------------------------------------
 BYTE   PATT
  POIN2 Label_01007D86
//  #08 //116   ----------------------------------------
 BYTE   PATT
  POIN2 Label_01007D6D
//  #08 //117   ----------------------------------------
 BYTE   PATT
  POIN2 Label_01007D56
//  #08 //118   ----------------------------------------
 BYTE   PATT
  POIN2 Label_01007D6D
//  #08 //119   ----------------------------------------
 BYTE   PATT
  POIN2 Label_01007D86
//  #08 //120   ----------------------------------------
 BYTE   PATT
  POIN2 Label_01007D6D
//  #08 //121   ----------------------------------------
 BYTE   PATT
  POIN2 Label_01007D56
//  #08 //122   ----------------------------------------
 BYTE   PATT
  POIN2 Label_01007D6D
//  #08 //123   ----------------------------------------
 BYTE   PATT
  POIN2 Label_01007D86
//  #08 //124   ----------------------------------------
 BYTE   PATT
  POIN2 Label_01007D6D
//  #08 //125   ----------------------------------------
 BYTE   PATT
  POIN2 Label_01007D56
//  #08 //126   ----------------------------------------
 BYTE   PATT
  POIN2 Label_01007D6D
//  #08 //127   ----------------------------------------
 BYTE   PATT
  POIN2 Label_01007D86
//  #08 //128   ----------------------------------------
 BYTE   PATT
  POIN2 Label_01007DD8
//  #08 //129   ----------------------------------------
 BYTE   PATT
  POIN2 Label_01007D56
//  #08 //130   ----------------------------------------
 BYTE   PATT
  POIN2 Label_01007D6D
//  #08 //131   ----------------------------------------
 BYTE   PATT
  POIN2 Label_01007D86
//  #08 //132   ----------------------------------------
 BYTE   PATT
  POIN2 Label_01007D6D
//  #08 //133   ----------------------------------------
 BYTE   PATT
  POIN2 Label_01007D56
//  #08 //134   ----------------------------------------
 BYTE   PATT
  POIN2 Label_01007D6D
//  #08 //135   ----------------------------------------
 BYTE   PATT
  POIN2 Label_01007D86
//  #08 //136   ----------------------------------------
 BYTE   PATT
  POIN2 Label_01007D6D
//  #08 //137   ----------------------------------------
 BYTE   PATT
  POIN2 Label_01007D56
//  #08 //138   ----------------------------------------
 BYTE   PATT
  POIN2 Label_01007D6D
//  #08 //139   ----------------------------------------
 BYTE   PATT
  POIN2 Label_01007D86
//  #08 //140   ----------------------------------------
 BYTE   PATT
  POIN2 Label_01007D6D
//  #08 //141   ----------------------------------------
 BYTE   PATT
  POIN2 Label_01007D56
//  #08 //142   ----------------------------------------
 BYTE   PATT
  POIN2 Label_01007D6D
//  #08 //143   ----------------------------------------
 BYTE   PATT
  POIN2 Label_01007D86
//  #08 //144   ----------------------------------------
 BYTE   N23  Cn1  v112
 BYTE   W12
 BYTE   N11  Fs1
 BYTE   W12
 BYTE   Dn1
 BYTE   W12
 BYTE   Fs1
 BYTE   W12
 BYTE   Cn1
 BYTE   N11  Gn1
 BYTE   W12
 BYTE   Fs1
 BYTE   N11  Gn1
 BYTE   W12
 BYTE   Dn1
 BYTE   W12
 BYTE   N05
 BYTE   N05  Fs1
 BYTE   W06
 BYTE   Dn1
 BYTE   W05
 BYTE   FINE

//******************************************************//
	ALIGN 4

LifeWillChange:
	BYTE	8	// NumTrks
	BYTE	0	// NumBlks
	BYTE	LifeWillChange_pri	// Priority
	BYTE	LifeWillChange_rev	// Reverb.
    
	POIN2	LifeWillChange_grp
    
	POIN2	LifeWillChange_001
	POIN2	LifeWillChange_002
	POIN2	LifeWillChange_003
	POIN2	LifeWillChange_004
	POIN2	LifeWillChange_005
	POIN2	LifeWillChange_006
	POIN2	LifeWillChange_007
	POIN2	LifeWillChange_008

	
