//Event file generated from Sappy .s format.
	#include "MPlayDef.event"

	#define	LiveALive_grp  voicegroup000
	#define	LiveALive_pri  0
	#define	LiveALive_rev  0
	#define	LiveALive_mvl  127
	#define	LiveALive_key  0
	#define	LiveALive_tbs  1
	#define	LiveALive_exg  0
	#define	LiveALive_cmp  1

	// .rodata
	//	LiveALive
	ALIGN 4


//**************** Track 1 (Midi-Chn.0) ****************//

LiveALive_001:
//  #01 //000   ----------------------------------------
 BYTE   KEYSH   LiveALive_key+0
 BYTE   TEMPO   134*LiveALive_tbs/2
 BYTE   VOICE   60
 BYTE   VOL   23*LiveALive_mvl/mxv
 BYTE   PAN   c_v-40
 BYTE   W96
//  #01 //001   ----------------------------------------
 BYTE   W96
//  #01 //002   ----------------------------------------
 BYTE   W96
//  #01 //003   ----------------------------------------
 BYTE   W96
//  #01 //004   ----------------------------------------
 BYTE   W96
//  #01 //005   ----------------------------------------
 BYTE   W96
//  #01 //006   ----------------------------------------
 BYTE   W96
//  #01 //007   ----------------------------------------
 BYTE   W96
//  #01 //008   ----------------------------------------
 BYTE   W96
//  #01 //009   ----------------------------------------
 BYTE   W96
//  #01 //010   ----------------------------------------
 BYTE   W96
//  #01 //011   ----------------------------------------
 BYTE   W96
//  #01 //012   ----------------------------------------
 BYTE   W96
//  #01 //013   ----------------------------------------
 BYTE   W96
//  #01 //014   ----------------------------------------
 BYTE   W96
//  #01 //015   ----------------------------------------
 BYTE   W96
//  #01 //016   ----------------------------------------
 BYTE   W96
//  #01 //017   ----------------------------------------
 BYTE   W96
//  #01 //018   ----------------------------------------
 BYTE   W96
//  #01 //019   ----------------------------------------
 BYTE   W96
//  #01 //020   ----------------------------------------
 BYTE   W96
//  #01 //021   ----------------------------------------
 BYTE   W96
//  #01 //022   ----------------------------------------
 BYTE   W96
//  #01 //023   ----------------------------------------
 BYTE   W96
//  #01 //024   ----------------------------------------
 BYTE   W96
//  #01 //025   ----------------------------------------
 BYTE   W96
//  #01 //026   ----------------------------------------
 BYTE   W96
//  #01 //027   ----------------------------------------
 BYTE   W96
//  #01 //028   ----------------------------------------
 BYTE   W96
//  #01 //029   ----------------------------------------
 BYTE   W96
//  #01 //030   ----------------------------------------
 BYTE   W96
//  #01 //031   ----------------------------------------
 BYTE   W96
//  #01 //032   ----------------------------------------
Label_0188CAAA:
 BYTE   N44  Cs4  v100
 BYTE   W48
 BYTE   N15
 BYTE   W16
 BYTE   Cn4
 BYTE   W16
 BYTE   As3
 BYTE   W16
 BYTE   PEND 
//  #01 //033   ----------------------------------------
 BYTE   N92  Fs3
 BYTE   W96
//  #01 //034   ----------------------------------------
Label_0188CAB8:
 BYTE   N44  Gs3  v100
 BYTE   W48
 BYTE   N15  Cn4
 BYTE   W16
 BYTE   As3
 BYTE   W16
 BYTE   Gs3
 BYTE   W16
 BYTE   PEND 
//  #01 //035   ----------------------------------------
Label_0188CAC4:
 BYTE   N44  Fs3  v100
 BYTE   W48
 BYTE   Gs3
 BYTE   W48
 BYTE   PEND 
//  #01 //036   ----------------------------------------
 BYTE   N92  As3  v080
 BYTE   W96
//  #01 //037   ----------------------------------------
Label_0188CACF:
 BYTE   W96
//  #01 //038   ----------------------------------------
 BYTE   W96
//  #01 //039   ----------------------------------------
 BYTE   W96
//  #01 //040   ----------------------------------------
 BYTE   W96
//  #01 //041   ----------------------------------------
 BYTE   W96
//  #01 //042   ----------------------------------------
 BYTE   W96
//  #01 //043   ----------------------------------------
 BYTE   W96
//  #01 //044   ----------------------------------------
 BYTE   W96
//  #01 //045   ----------------------------------------
 BYTE   W96
//  #01 //046   ----------------------------------------
 BYTE   W96
//  #01 //047   ----------------------------------------
 BYTE   W96
//  #01 //048   ----------------------------------------
 BYTE   W96
//  #01 //049   ----------------------------------------
 BYTE   W96
//  #01 //050   ----------------------------------------
 BYTE   W96
//  #01 //051   ----------------------------------------
 BYTE   W96
//  #01 //052   ----------------------------------------
 BYTE   W96
//  #01 //053   ----------------------------------------
 BYTE   W96
//  #01 //054   ----------------------------------------
 BYTE   W96
//  #01 //055   ----------------------------------------
 BYTE   W96
//  #01 //056   ----------------------------------------
 BYTE   W96
//  #01 //057   ----------------------------------------
 BYTE   W96
//  #01 //058   ----------------------------------------
 BYTE   W96
//  #01 //059   ----------------------------------------
 BYTE   W96
//  #01 //060   ----------------------------------------
 BYTE   PATT
  POIN2 Label_0188CAAA
//  #01 //061   ----------------------------------------
 BYTE   N92  Fs3  v100
 BYTE   W96
//  #01 //062   ----------------------------------------
 BYTE   PATT
  POIN2 Label_0188CAB8
//  #01 //063   ----------------------------------------
 BYTE   PATT
  POIN2 Label_0188CAC4
//  #01 //064   ----------------------------------------
 BYTE   N92  As3  v080
 BYTE   W96
//  #01 //065   ----------------------------------------
 BYTE   GoTo
  POIN2 Label_0188CACF
//  #01 //066   ----------------------------------------
 BYTE   W96
//  #01 //067   ----------------------------------------
 BYTE   W96
//  #01 //068   ----------------------------------------
 BYTE   W96
//  #01 //069   ----------------------------------------
 BYTE   W96
//  #01 //070   ----------------------------------------
 BYTE   W96
//  #01 //071   ----------------------------------------
 BYTE   W48
 BYTE   FINE

//**************** Track 2 (Midi-Chn.1) ****************//

LiveALive_002:
//  #02 //000   ----------------------------------------
 BYTE   KEYSH   LiveALive_key+0
 BYTE   VOICE   60
 BYTE   VOL   23*LiveALive_mvl/mxv
 BYTE   PAN   c_v+40
 BYTE   W96
//  #02 //001   ----------------------------------------
 BYTE   W96
//  #02 //002   ----------------------------------------
 BYTE   W96
//  #02 //003   ----------------------------------------
 BYTE   W96
//  #02 //004   ----------------------------------------
 BYTE   W96
//  #02 //005   ----------------------------------------
 BYTE   W96
//  #02 //006   ----------------------------------------
 BYTE   W96
//  #02 //007   ----------------------------------------
 BYTE   W96
//  #02 //008   ----------------------------------------
 BYTE   W96
//  #02 //009   ----------------------------------------
 BYTE   W96
//  #02 //010   ----------------------------------------
 BYTE   W96
//  #02 //011   ----------------------------------------
 BYTE   W96
//  #02 //012   ----------------------------------------
 BYTE   W96
//  #02 //013   ----------------------------------------
 BYTE   W96
//  #02 //014   ----------------------------------------
 BYTE   W96
//  #02 //015   ----------------------------------------
 BYTE   W96
//  #02 //016   ----------------------------------------
 BYTE   W96
//  #02 //017   ----------------------------------------
 BYTE   W96
//  #02 //018   ----------------------------------------
 BYTE   W96
//  #02 //019   ----------------------------------------
 BYTE   W96
//  #02 //020   ----------------------------------------
 BYTE   W96
//  #02 //021   ----------------------------------------
 BYTE   W96
//  #02 //022   ----------------------------------------
 BYTE   W96
//  #02 //023   ----------------------------------------
 BYTE   W96
//  #02 //024   ----------------------------------------
 BYTE   W96
//  #02 //025   ----------------------------------------
 BYTE   W96
//  #02 //026   ----------------------------------------
 BYTE   W96
//  #02 //027   ----------------------------------------
 BYTE   W96
//  #02 //028   ----------------------------------------
 BYTE   W96
//  #02 //029   ----------------------------------------
 BYTE   W96
//  #02 //030   ----------------------------------------
 BYTE   W96
//  #02 //031   ----------------------------------------
 BYTE   W96
//  #02 //032   ----------------------------------------
Label_0188C7E4:
 BYTE   N44  Fs4  v100
 BYTE   W48
 BYTE   N15  Fn4
 BYTE   W16
 BYTE   Ds4
 BYTE   W16
 BYTE   Cs4
 BYTE   W16
 BYTE   PEND 
//  #02 //033   ----------------------------------------
 BYTE   N92  As3
 BYTE   W96
//  #02 //034   ----------------------------------------
Label_0188C7F3:
 BYTE   N44  Cn4  v100
 BYTE   W48
 BYTE   N15  Ds4
 BYTE   W16
 BYTE   Cs4
 BYTE   W16
 BYTE   Cn4
 BYTE   W16
 BYTE   PEND 
//  #02 //035   ----------------------------------------
Label_0188C7FF:
 BYTE   N44  As3  v100
 BYTE   W48
 BYTE   Cn4
 BYTE   W48
 BYTE   PEND 
//  #02 //036   ----------------------------------------
 BYTE   N92  Dn4  v080
 BYTE   W96
//  #02 //037   ----------------------------------------
Label_0188C80A:
 BYTE   W96
//  #02 //038   ----------------------------------------
 BYTE   W96
//  #02 //039   ----------------------------------------
 BYTE   W96
//  #02 //040   ----------------------------------------
 BYTE   W96
//  #02 //041   ----------------------------------------
 BYTE   W96
//  #02 //042   ----------------------------------------
 BYTE   W96
//  #02 //043   ----------------------------------------
 BYTE   W96
//  #02 //044   ----------------------------------------
 BYTE   W96
//  #02 //045   ----------------------------------------
 BYTE   W96
//  #02 //046   ----------------------------------------
 BYTE   W96
//  #02 //047   ----------------------------------------
 BYTE   W96
//  #02 //048   ----------------------------------------
 BYTE   W96
//  #02 //049   ----------------------------------------
 BYTE   W96
//  #02 //050   ----------------------------------------
 BYTE   W96
//  #02 //051   ----------------------------------------
 BYTE   W96
//  #02 //052   ----------------------------------------
 BYTE   W96
//  #02 //053   ----------------------------------------
 BYTE   W96
//  #02 //054   ----------------------------------------
 BYTE   W96
//  #02 //055   ----------------------------------------
 BYTE   W96
//  #02 //056   ----------------------------------------
 BYTE   W96
//  #02 //057   ----------------------------------------
 BYTE   W96
//  #02 //058   ----------------------------------------
 BYTE   W96
//  #02 //059   ----------------------------------------
 BYTE   W96
//  #02 //060   ----------------------------------------
 BYTE   PATT
  POIN2 Label_0188C7E4
//  #02 //061   ----------------------------------------
 BYTE   N92  As3  v100
 BYTE   W96
//  #02 //062   ----------------------------------------
 BYTE   PATT
  POIN2 Label_0188C7F3
//  #02 //063   ----------------------------------------
 BYTE   PATT
  POIN2 Label_0188C7FF
//  #02 //064   ----------------------------------------
 BYTE   N92  Dn4  v080
 BYTE   W96
//  #02 //065   ----------------------------------------
 BYTE   GoTo
  POIN2 Label_0188C80A
//  #02 //066   ----------------------------------------
 BYTE   W96
//  #02 //067   ----------------------------------------
 BYTE   W96
//  #02 //068   ----------------------------------------
 BYTE   W96
//  #02 //069   ----------------------------------------
 BYTE   W96
//  #02 //070   ----------------------------------------
 BYTE   W96
//  #02 //071   ----------------------------------------
 BYTE   W48
 BYTE   FINE

//**************** Track 3 (Midi-Chn.2) ****************//

LiveALive_003:
//  #03 //000   ----------------------------------------
 BYTE   KEYSH   LiveALive_key+0
 BYTE   VOICE   61
 BYTE   VOL   23*LiveALive_mvl/mxv
 BYTE   PAN   c_v-40
 BYTE   N10  Fs2  v127
 BYTE   W12
 BYTE   N04
 BYTE   W06
 BYTE   Gs2
 BYTE   W06
 BYTE   N32  As2
 BYTE   W36
 BYTE   N04  Fs2
 BYTE   W06
 BYTE   Gs2
 BYTE   W06
 BYTE   N10  As2
 BYTE   W12
 BYTE   Gs2
 BYTE   W12
//  #03 //001   ----------------------------------------
 BYTE   N92  As2
 BYTE   W96
//  #03 //002   ----------------------------------------
 BYTE   N10  Fs2
 BYTE   W12
 BYTE   N04
 BYTE   W06
 BYTE   Gs2
 BYTE   W06
 BYTE   N32  As2
 BYTE   W36
 BYTE   N04  Fs2
 BYTE   W06
 BYTE   Gs2
 BYTE   W06
 BYTE   N10  As2
 BYTE   W12
 BYTE   Gs2
 BYTE   W12
//  #03 //003   ----------------------------------------
 BYTE   N92  As2
 BYTE   W96
//  #03 //004   ----------------------------------------
 BYTE   N10  Gs2
 BYTE   W12
 BYTE   N04
 BYTE   W06
 BYTE   As2
 BYTE   W06
 BYTE   N32  Cn3
 BYTE   W36
 BYTE   N04  Gs2
 BYTE   W06
 BYTE   As2
 BYTE   W06
 BYTE   N10  Cn3
 BYTE   W12
 BYTE   Fs2
 BYTE   W12
//  #03 //005   ----------------------------------------
 BYTE   N92  Gs2
 BYTE   W96
//  #03 //006   ----------------------------------------
 BYTE   N10
 BYTE   W12
 BYTE   N04
 BYTE   W06
 BYTE   As2
 BYTE   W06
 BYTE   N32  Cn3
 BYTE   W36
 BYTE   N04  Gs2
 BYTE   W06
 BYTE   As2
 BYTE   W06
 BYTE   N10  Fs2
 BYTE   W12
 BYTE   Gs2
 BYTE   W12
//  #03 //007   ----------------------------------------
 BYTE   N32  As2
 BYTE   W36
 BYTE   N04  Gs2
 BYTE   W06
 BYTE   Fs2
 BYTE   W06
 BYTE   N10  Cs3
 BYTE   W12
 BYTE   N04  Cn3
 BYTE   W06
 BYTE   As2
 BYTE   W06
 BYTE   N10  Gs2
 BYTE   W12
 BYTE   Fn2
 BYTE   W12
//  #03 //008   ----------------------------------------
 BYTE   N10
 BYTE   W12
 BYTE   N22
 BYTE   W24
 BYTE   N22
 BYTE   W24
 BYTE   N22
 BYTE   W24
 BYTE   N10
 BYTE   W12
//  #03 //009   ----------------------------------------
 BYTE   N04
 BYTE   W06
 BYTE   N04
 BYTE   W06
 BYTE   N10
 BYTE   W24
 BYTE   N22
 BYTE   W24
 BYTE   N22
 BYTE   W24
 BYTE   N10
 BYTE   W12
//  #03 //010   ----------------------------------------
Label_01004FD0:
 BYTE   N80  Fn2  v127
 BYTE   W84
 BYTE   N04  Cs2
 BYTE   W06
 BYTE   Fn2
 BYTE   W06
 BYTE   PEND 
//  #03 //011   ----------------------------------------
Label_01004FDA:
 BYTE   N06  Gs2  v127
 BYTE   W12
 BYTE   N04  Gn2
 BYTE   W06
 BYTE   Fn2
 BYTE   W06
 BYTE   N44  Gn2
 BYTE   W48
 BYTE   N22  Ds2
 BYTE   W24
 BYTE   PEND 
//  #03 //012   ----------------------------------------
Label_01004FEA:
 BYTE   N44  Fn2  v127
 BYTE   W48
 BYTE   N06
 BYTE   W16
 BYTE   Cn3
 BYTE   W08
 BYTE   N56
 BYTE   W24
 BYTE   PEND 
//  #03 //013   ----------------------------------------
Label_01004FF5:
 BYTE   W36
 BYTE   N22  Cn3  v127
 BYTE   W24
 BYTE   N22
 BYTE   W24
 BYTE   N10
 BYTE   W12
 BYTE   PEND 
//  #03 //014   ----------------------------------------
Label_01004FFF:
 BYTE   W06
 BYTE   N04  Cs3  v127
 BYTE   W06
 BYTE   N10
 BYTE   W12
 BYTE   N06
 BYTE   W08
 BYTE   N06
 BYTE   W08
 BYTE   N06
 BYTE   W08
 BYTE   N44
 BYTE   W48
 BYTE   PEND 
//  #03 //015   ----------------------------------------
Label_0100500F:
 BYTE   N06  As2  v127
 BYTE   W12
 BYTE   N04  Gn2
 BYTE   W06
 BYTE   As2
 BYTE   W06
 BYTE   N68  Cs3
 BYTE   W72
 BYTE   PEND 
//  #03 //016   ----------------------------------------
Label_0100501C:
 BYTE   W06
 BYTE   N04  Ds3  v127
 BYTE   W06
 BYTE   N10
 BYTE   W12
 BYTE   N06
 BYTE   W08
 BYTE   N06
 BYTE   W08
 BYTE   N06
 BYTE   W08
 BYTE   N44
 BYTE   W48
 BYTE   PEND 
//  #03 //017   ----------------------------------------
Label_0100502C:
 BYTE   N06  Cn3  v127
 BYTE   W12
 BYTE   N04  Gs2
 BYTE   W06
 BYTE   Cn3
 BYTE   W06
 BYTE   N44  Ds3
 BYTE   W48
 BYTE   N22
 BYTE   W24
 BYTE   PEND 
//  #03 //018   ----------------------------------------
Label_0100503B:
 BYTE   N80  Cs3  v127
 BYTE   W84
 BYTE   N04  Cs2
 BYTE   W06
 BYTE   Fn2
 BYTE   W06
 BYTE   PEND 
//  #03 //019   ----------------------------------------
 BYTE   PATT
  POIN2 Label_01004FDA
//  #03 //020   ----------------------------------------
 BYTE   PATT
  POIN2 Label_01004FEA
//  #03 //021   ----------------------------------------
 BYTE   PATT
  POIN2 Label_01004FF5
//  #03 //022   ----------------------------------------
 BYTE   PATT
  POIN2 Label_01004FFF
//  #03 //023   ----------------------------------------
 BYTE   PATT
  POIN2 Label_0100500F
//  #03 //024   ----------------------------------------
 BYTE   PATT
  POIN2 Label_0100501C
//  #03 //025   ----------------------------------------
 BYTE   PATT
  POIN2 Label_0100502C
//  #03 //026   ----------------------------------------
Label_01005068:
 BYTE   N04  Cs3  v127
 BYTE   W06
 BYTE   N04
 BYTE   W06
 BYTE   N06
 BYTE   W24
 BYTE   N10  Cn3
 BYTE   W12
 BYTE   N06  Cs3
 BYTE   W12
 BYTE   N04
 BYTE   W06
 BYTE   N04
 BYTE   W06
 BYTE   N04
 BYTE   W06
 BYTE   N04
 BYTE   W06
 BYTE   Cn3
 BYTE   W06
 BYTE   N04
 BYTE   W06
 BYTE   PEND 
//  #03 //027   ----------------------------------------
Label_01005083:
 BYTE   N04  Cs3  v127
 BYTE   W06
 BYTE   N04
 BYTE   W06
 BYTE   N06
 BYTE   W24
 BYTE   N04  Cn3
 BYTE   W06
 BYTE   N04
 BYTE   W06
 BYTE   N06  Cs3
 BYTE   W12
 BYTE   N04
 BYTE   W06
 BYTE   N04
 BYTE   W06
 BYTE   N04
 BYTE   W06
 BYTE   Ds3
 BYTE   W06
 BYTE   Fn3
 BYTE   W06
 BYTE   Cs3
 BYTE   W06
 BYTE   PEND 
//  #03 //028   ----------------------------------------
Label_010050A0:
 BYTE   N08  Cs3  v127
 BYTE   W12
 BYTE   N22
 BYTE   W24
 BYTE   N22
 BYTE   W24
 BYTE   Ds3
 BYTE   W24
 BYTE   N10  Cs3
 BYTE   W12
 BYTE   PEND 
//  #03 //029   ----------------------------------------
Label_010050AE:
 BYTE   N04  Cs3  v127
 BYTE   W06
 BYTE   N04
 BYTE   W06
 BYTE   N08
 BYTE   W24
 BYTE   N22
 BYTE   W24
 BYTE   Ds3
 BYTE   W24
 BYTE   N10  Fn3
 BYTE   W12
 BYTE   PEND 
//  #03 //030   ----------------------------------------
 BYTE   PATT
  POIN2 Label_01005068
//  #03 //031   ----------------------------------------
Label_010050C3:
 BYTE   N04  Cs3  v127
 BYTE   W06
 BYTE   N04
 BYTE   W06
 BYTE   N06
 BYTE   W24
 BYTE   Cn3
 BYTE   W12
 BYTE   N10
 BYTE   W16
 BYTE   N06
 BYTE   W08
 BYTE   N04  Cs3
 BYTE   W06
 BYTE   Ds3
 BYTE   W06
 BYTE   Fn3
 BYTE   W06
 BYTE   Fs3
 BYTE   W06
 BYTE   PEND 
//  #03 //032   ----------------------------------------
 BYTE   W96
//  #03 //033   ----------------------------------------
 BYTE   W96
//  #03 //034   ----------------------------------------
 BYTE   W96
//  #03 //035   ----------------------------------------
 BYTE   W96
//  #03 //036   ----------------------------------------
 BYTE   W96
//  #03 //037   ----------------------------------------
Label_010050E0:
 BYTE   N10  Fn2  v116
 BYTE   W12
 BYTE   N10
 BYTE   W24
 BYTE   N10
 BYTE   W12
 BYTE   N10
 BYTE   W12
 BYTE   N22  Fn2  v127
 BYTE   W24
 BYTE   N10
 BYTE   W12
 BYTE   PEND 
//  #03 //038   ----------------------------------------
 BYTE   PATT
  POIN2 Label_01004FD0
//  #03 //039   ----------------------------------------
 BYTE   PATT
  POIN2 Label_01004FDA
//  #03 //040   ----------------------------------------
 BYTE   PATT
  POIN2 Label_01004FEA
//  #03 //041   ----------------------------------------
 BYTE   PATT
  POIN2 Label_01004FF5
//  #03 //042   ----------------------------------------
 BYTE   PATT
  POIN2 Label_01004FFF
//  #03 //043   ----------------------------------------
 BYTE   PATT
  POIN2 Label_0100500F
//  #03 //044   ----------------------------------------
 BYTE   PATT
  POIN2 Label_0100501C
//  #03 //045   ----------------------------------------
 BYTE   PATT
  POIN2 Label_0100502C
//  #03 //046   ----------------------------------------
 BYTE   PATT
  POIN2 Label_0100503B
//  #03 //047   ----------------------------------------
 BYTE   PATT
  POIN2 Label_01004FDA
//  #03 //048   ----------------------------------------
 BYTE   PATT
  POIN2 Label_01004FEA
//  #03 //049   ----------------------------------------
 BYTE   PATT
  POIN2 Label_01004FF5
//  #03 //050   ----------------------------------------
 BYTE   PATT
  POIN2 Label_01004FFF
//  #03 //051   ----------------------------------------
 BYTE   PATT
  POIN2 Label_0100500F
//  #03 //052   ----------------------------------------
 BYTE   PATT
  POIN2 Label_0100501C
//  #03 //053   ----------------------------------------
 BYTE   PATT
  POIN2 Label_0100502C
//  #03 //054   ----------------------------------------
 BYTE   PATT
  POIN2 Label_01005068
//  #03 //055   ----------------------------------------
 BYTE   PATT
  POIN2 Label_01005083
//  #03 //056   ----------------------------------------
 BYTE   PATT
  POIN2 Label_010050A0
//  #03 //057   ----------------------------------------
 BYTE   PATT
  POIN2 Label_010050AE
//  #03 //058   ----------------------------------------
 BYTE   PATT
  POIN2 Label_01005068
//  #03 //059   ----------------------------------------
 BYTE   PATT
  POIN2 Label_010050C3
//  #03 //060   ----------------------------------------
 BYTE   W96
//  #03 //061   ----------------------------------------
 BYTE   W96
//  #03 //062   ----------------------------------------
 BYTE   W96
//  #03 //063   ----------------------------------------
 BYTE   W96
//  #03 //064   ----------------------------------------
 BYTE   W96
//  #03 //065   ----------------------------------------
 BYTE   GoTo
  POIN2 Label_010050E0
//  #03 //066   ----------------------------------------
 BYTE   PATT
  POIN2 Label_010050E0
//  #03 //067   ----------------------------------------
 BYTE   N80  Fn2  v127
 BYTE   W16
 BYTE   W16
 BYTE   W16
 BYTE   W16
 BYTE   W16
 BYTE   W04
 BYTE   N04  Cs2
 BYTE   W06
 BYTE   Fn2
 BYTE   W06
//  #03 //068   ----------------------------------------
 BYTE   N06  Gs2
 BYTE   W12
 BYTE   N04  Gn2
 BYTE   W04
 BYTE   W02
 BYTE   Fn2
 BYTE   W06
 BYTE   N44  Gn2
 BYTE   W08
 BYTE   W16
 BYTE   W16
 BYTE   W08
 BYTE   N22  Ds2
 BYTE   W08
 BYTE   W16
//  #03 //069   ----------------------------------------
 BYTE   N44  Fn2
 BYTE   W08
 BYTE   W08
 BYTE   W08
 BYTE   W08
 BYTE   W08
 BYTE   W08
 BYTE   N06
 BYTE   W08
 BYTE   W08
 BYTE   Cn3
 BYTE   W08
 BYTE   N56
 BYTE   W08
 BYTE   W08
 BYTE   W08
//  #03 //070   ----------------------------------------
 BYTE   W08
 BYTE   W08
 BYTE   W08
 BYTE   W08
 BYTE   W04
 BYTE   N22
 BYTE   W04
 BYTE   W08
 BYTE   W08
 BYTE   W04
 BYTE   N22
 BYTE   W04
 BYTE   W08
 BYTE   W08
 BYTE   W04
 BYTE   N10
 BYTE   W04
 BYTE   W08
//  #03 //071   ----------------------------------------
 BYTE   W48
 BYTE   FINE

//**************** Track 4 (Midi-Chn.3) ****************//

LiveALive_004:
//  #04 //000   ----------------------------------------
 BYTE   KEYSH   LiveALive_key+0
 BYTE   VOICE   61
 BYTE   VOL   23*LiveALive_mvl/mxv
 BYTE   PAN   c_v+40
 BYTE   N10  As2  v127
 BYTE   W12
 BYTE   N04
 BYTE   W06
 BYTE   Cn3
 BYTE   W06
 BYTE   N32  Cs3
 BYTE   W36
 BYTE   N04  As2
 BYTE   W06
 BYTE   Cn3
 BYTE   W06
 BYTE   N10  Cs3
 BYTE   W12
 BYTE   Cn3
 BYTE   W12
//  #04 //001   ----------------------------------------
 BYTE   N92  Cs3
 BYTE   W96
//  #04 //002   ----------------------------------------
 BYTE   N10  As2
 BYTE   W12
 BYTE   N04
 BYTE   W06
 BYTE   Cn3
 BYTE   W06
 BYTE   N32  Cs3
 BYTE   W36
 BYTE   N04  As2
 BYTE   W06
 BYTE   Cn3
 BYTE   W06
 BYTE   N10  Cs3
 BYTE   W12
 BYTE   Cn3
 BYTE   W12
//  #04 //003   ----------------------------------------
 BYTE   N92  Cs3
 BYTE   W96
//  #04 //004   ----------------------------------------
 BYTE   N10  Cn3
 BYTE   W12
 BYTE   N04
 BYTE   W06
 BYTE   Cs3
 BYTE   W06
 BYTE   N32  Ds3
 BYTE   W36
 BYTE   N04  Cn3
 BYTE   W06
 BYTE   Cs3
 BYTE   W06
 BYTE   N10  Ds3
 BYTE   W12
 BYTE   As2
 BYTE   W12
//  #04 //005   ----------------------------------------
 BYTE   N92  Cn3
 BYTE   W96
//  #04 //006   ----------------------------------------
 BYTE   N10
 BYTE   W12
 BYTE   N04
 BYTE   W06
 BYTE   Cs3
 BYTE   W06
 BYTE   N32  Ds3
 BYTE   W36
 BYTE   N04  Cn3
 BYTE   W06
 BYTE   Cs3
 BYTE   W06
 BYTE   N10  As2
 BYTE   W12
 BYTE   Cn3
 BYTE   W12
//  #04 //007   ----------------------------------------
 BYTE   N32  Cs3
 BYTE   W36
 BYTE   N04  Cn3
 BYTE   W06
 BYTE   As2
 BYTE   W06
 BYTE   N10  Fn3
 BYTE   W12
 BYTE   N04  Ds3
 BYTE   W06
 BYTE   Cs3
 BYTE   W06
 BYTE   N10  Cn3
 BYTE   W12
 BYTE   Gs2
 BYTE   W12
//  #04 //008   ----------------------------------------
 BYTE   As2
 BYTE   W12
 BYTE   N22
 BYTE   W24
 BYTE   N22
 BYTE   W24
 BYTE   N22
 BYTE   W24
 BYTE   N10
 BYTE   W12
//  #04 //009   ----------------------------------------
 BYTE   N04
 BYTE   W06
 BYTE   N04
 BYTE   W06
 BYTE   N10
 BYTE   W24
 BYTE   N22
 BYTE   W24
 BYTE   N22
 BYTE   W24
 BYTE   N10
 BYTE   W12
//  #04 //010   ----------------------------------------
Label_01005250:
 BYTE   N80  Gs2  v127
 BYTE   W84
 BYTE   N04  Fn2
 BYTE   W06
 BYTE   Gs2
 BYTE   W06
 BYTE   PEND 
//  #04 //011   ----------------------------------------
Label_0100525A:
 BYTE   N06  Cn3  v127
 BYTE   W12
 BYTE   N04  As2
 BYTE   W06
 BYTE   Gs2
 BYTE   W06
 BYTE   N44  As2
 BYTE   W48
 BYTE   N22  Gn2
 BYTE   W24
 BYTE   PEND 
//  #04 //012   ----------------------------------------
Label_0100526A:
 BYTE   N44  Gs2  v127
 BYTE   W48
 BYTE   N06
 BYTE   W16
 BYTE   Ds3
 BYTE   W08
 BYTE   N56
 BYTE   W24
 BYTE   PEND 
//  #04 //013   ----------------------------------------
Label_01005275:
 BYTE   W36
 BYTE   N22  Ds3  v127
 BYTE   W24
 BYTE   N22
 BYTE   W24
 BYTE   N10
 BYTE   W12
 BYTE   PEND 
//  #04 //014   ----------------------------------------
Label_0100527F:
 BYTE   W06
 BYTE   N04  Fn3  v127
 BYTE   W06
 BYTE   N10
 BYTE   W12
 BYTE   N06
 BYTE   W08
 BYTE   N06
 BYTE   W08
 BYTE   N06
 BYTE   W08
 BYTE   N44
 BYTE   W48
 BYTE   PEND 
//  #04 //015   ----------------------------------------
Label_0100528F:
 BYTE   N06  Cs3  v127
 BYTE   W12
 BYTE   N04  As2
 BYTE   W06
 BYTE   Cs3
 BYTE   W06
 BYTE   N68  Fs3
 BYTE   W72
 BYTE   PEND 
//  #04 //016   ----------------------------------------
Label_0100529C:
 BYTE   W06
 BYTE   N04  Fs3  v127
 BYTE   W06
 BYTE   N10
 BYTE   W12
 BYTE   N06
 BYTE   W08
 BYTE   N06
 BYTE   W08
 BYTE   N06
 BYTE   W08
 BYTE   N44
 BYTE   W48
 BYTE   PEND 
//  #04 //017   ----------------------------------------
Label_010052AC:
 BYTE   N06  Ds3  v127
 BYTE   W12
 BYTE   N04  Cn3
 BYTE   W06
 BYTE   Ds3
 BYTE   W06
 BYTE   N44  Gs3
 BYTE   W48
 BYTE   N22  Fs3
 BYTE   W24
 BYTE   PEND 
//  #04 //018   ----------------------------------------
Label_010052BC:
 BYTE   N80  Fn3  v127
 BYTE   W84
 BYTE   N04  Fn2
 BYTE   W06
 BYTE   Gs2
 BYTE   W06
 BYTE   PEND 
//  #04 //019   ----------------------------------------
 BYTE   PATT
  POIN2 Label_0100525A
//  #04 //020   ----------------------------------------
 BYTE   PATT
  POIN2 Label_0100526A
//  #04 //021   ----------------------------------------
 BYTE   PATT
  POIN2 Label_01005275
//  #04 //022   ----------------------------------------
 BYTE   PATT
  POIN2 Label_0100527F
//  #04 //023   ----------------------------------------
 BYTE   PATT
  POIN2 Label_0100528F
//  #04 //024   ----------------------------------------
 BYTE   PATT
  POIN2 Label_0100529C
//  #04 //025   ----------------------------------------
 BYTE   PATT
  POIN2 Label_010052AC
//  #04 //026   ----------------------------------------
Label_010052E9:
 BYTE   N04  Fn3  v127
 BYTE   W06
 BYTE   N04
 BYTE   W06
 BYTE   N06
 BYTE   W24
 BYTE   N10  Ds3
 BYTE   W12
 BYTE   N06  Fn3
 BYTE   W12
 BYTE   N04
 BYTE   W06
 BYTE   N04
 BYTE   W06
 BYTE   N04
 BYTE   W06
 BYTE   N04
 BYTE   W06
 BYTE   Ds3
 BYTE   W06
 BYTE   N04
 BYTE   W06
 BYTE   PEND 
//  #04 //027   ----------------------------------------
Label_01005304:
 BYTE   N04  Fn3  v127
 BYTE   W06
 BYTE   N04
 BYTE   W06
 BYTE   N06
 BYTE   W24
 BYTE   N04  Cs3
 BYTE   W06
 BYTE   Ds3
 BYTE   W06
 BYTE   N06  Fn3
 BYTE   W12
 BYTE   N04
 BYTE   W06
 BYTE   N04
 BYTE   W06
 BYTE   N04
 BYTE   W06
 BYTE   Gn3
 BYTE   W06
 BYTE   Gs3
 BYTE   W06
 BYTE   Fn3
 BYTE   W06
 BYTE   PEND 
//  #04 //028   ----------------------------------------
Label_01005321:
 BYTE   N08  Gn3  v127
 BYTE   W12
 BYTE   N22
 BYTE   W24
 BYTE   N22
 BYTE   W24
 BYTE   Gs3
 BYTE   W24
 BYTE   N10  Gn3
 BYTE   W12
 BYTE   PEND 
//  #04 //029   ----------------------------------------
Label_0100532F:
 BYTE   N04  Gn3  v127
 BYTE   W06
 BYTE   N04
 BYTE   W06
 BYTE   N08
 BYTE   W24
 BYTE   N22
 BYTE   W24
 BYTE   Gs3
 BYTE   W24
 BYTE   N10  As3
 BYTE   W12
 BYTE   PEND 
//  #04 //030   ----------------------------------------
 BYTE   PATT
  POIN2 Label_010052E9
//  #04 //031   ----------------------------------------
Label_01005344:
 BYTE   N04  Fn3  v127
 BYTE   W06
 BYTE   N04
 BYTE   W06
 BYTE   N06
 BYTE   W24
 BYTE   Ds3
 BYTE   W12
 BYTE   N10
 BYTE   W16
 BYTE   N06
 BYTE   W08
 BYTE   N04  Fn3
 BYTE   W06
 BYTE   Fs3
 BYTE   W06
 BYTE   Gs3
 BYTE   W06
 BYTE   As3
 BYTE   W06
 BYTE   PEND 
//  #04 //032   ----------------------------------------
 BYTE   W96
//  #04 //033   ----------------------------------------
 BYTE   W96
//  #04 //034   ----------------------------------------
 BYTE   W96
//  #04 //035   ----------------------------------------
 BYTE   W96
//  #04 //036   ----------------------------------------
 BYTE   W96
//  #04 //037   ----------------------------------------
Label_01005361:
 BYTE   N10  As2  v116
 BYTE   W12
 BYTE   N10
 BYTE   W24
 BYTE   N10
 BYTE   W12
 BYTE   N10
 BYTE   W12
 BYTE   N22  As2  v127
 BYTE   W24
 BYTE   N10
 BYTE   W12
 BYTE   PEND 
//  #04 //038   ----------------------------------------
 BYTE   PATT
  POIN2 Label_01005250
//  #04 //039   ----------------------------------------
 BYTE   PATT
  POIN2 Label_0100525A
//  #04 //040   ----------------------------------------
 BYTE   PATT
  POIN2 Label_0100526A
//  #04 //041   ----------------------------------------
 BYTE   PATT
  POIN2 Label_01005275
//  #04 //042   ----------------------------------------
 BYTE   PATT
  POIN2 Label_0100527F
//  #04 //043   ----------------------------------------
 BYTE   PATT
  POIN2 Label_0100528F
//  #04 //044   ----------------------------------------
 BYTE   PATT
  POIN2 Label_0100529C
//  #04 //045   ----------------------------------------
 BYTE   PATT
  POIN2 Label_010052AC
//  #04 //046   ----------------------------------------
 BYTE   PATT
  POIN2 Label_010052BC
//  #04 //047   ----------------------------------------
 BYTE   PATT
  POIN2 Label_0100525A
//  #04 //048   ----------------------------------------
 BYTE   PATT
  POIN2 Label_0100526A
//  #04 //049   ----------------------------------------
 BYTE   PATT
  POIN2 Label_01005275
//  #04 //050   ----------------------------------------
 BYTE   PATT
  POIN2 Label_0100527F
//  #04 //051   ----------------------------------------
 BYTE   PATT
  POIN2 Label_0100528F
//  #04 //052   ----------------------------------------
 BYTE   PATT
  POIN2 Label_0100529C
//  #04 //053   ----------------------------------------
 BYTE   PATT
  POIN2 Label_010052AC
//  #04 //054   ----------------------------------------
 BYTE   PATT
  POIN2 Label_010052E9
//  #04 //055   ----------------------------------------
 BYTE   PATT
  POIN2 Label_01005304
//  #04 //056   ----------------------------------------
 BYTE   PATT
  POIN2 Label_01005321
//  #04 //057   ----------------------------------------
 BYTE   PATT
  POIN2 Label_0100532F
//  #04 //058   ----------------------------------------
 BYTE   PATT
  POIN2 Label_010052E9
//  #04 //059   ----------------------------------------
 BYTE   PATT
  POIN2 Label_01005344
//  #04 //060   ----------------------------------------
 BYTE   W96
//  #04 //061   ----------------------------------------
 BYTE   W96
//  #04 //062   ----------------------------------------
 BYTE   W96
//  #04 //063   ----------------------------------------
 BYTE   W96
//  #04 //064   ----------------------------------------
 BYTE   W96
//  #04 //065   ----------------------------------------
 BYTE   GoTo
  POIN2 Label_01005361
//  #04 //066   ----------------------------------------
 BYTE   PATT
  POIN2 Label_01005361
//  #04 //067   ----------------------------------------
 BYTE   N80  Gs2  v127
 BYTE   W16
 BYTE   W16
 BYTE   W16
 BYTE   W16
 BYTE   W16
 BYTE   W04
 BYTE   N04  Fn2
 BYTE   W06
 BYTE   Gs2
 BYTE   W06
//  #04 //068   ----------------------------------------
 BYTE   N06  Cn3
 BYTE   W12
 BYTE   N04  As2
 BYTE   W04
 BYTE   W02
 BYTE   Gs2
 BYTE   W06
 BYTE   N44  As2
 BYTE   W08
 BYTE   W16
 BYTE   W16
 BYTE   W08
 BYTE   N22  Gn2
 BYTE   W08
 BYTE   W16
//  #04 //069   ----------------------------------------
 BYTE   N44  Gs2
 BYTE   W08
 BYTE   W08
 BYTE   W08
 BYTE   W08
 BYTE   W08
 BYTE   W08
 BYTE   N06
 BYTE   W08
 BYTE   W08
 BYTE   Ds3
 BYTE   W08
 BYTE   N56
 BYTE   W08
 BYTE   W08
 BYTE   W08
//  #04 //070   ----------------------------------------
 BYTE   W08
 BYTE   W08
 BYTE   W08
 BYTE   W08
 BYTE   W04
 BYTE   N22
 BYTE   W04
 BYTE   W08
 BYTE   W08
 BYTE   W04
 BYTE   N22
 BYTE   W04
 BYTE   W08
 BYTE   W08
 BYTE   W04
 BYTE   N10
 BYTE   W04
 BYTE   W08
//  #04 //071   ----------------------------------------
 BYTE   W48
 BYTE   FINE

//**************** Track 5 (Midi-Chn.4) ****************//

LiveALive_005:
//  #05 //000   ----------------------------------------
 BYTE   KEYSH   LiveALive_key+0
 BYTE   VOICE   40
 BYTE   VOL   14*LiveALive_mvl/mxv
 BYTE   PAN   c_v-20
 BYTE   N32  Fn5  v127
 BYTE   W36
 BYTE   N05  Ds5
 BYTE   W06
 BYTE   Cs5
 BYTE   W06
 BYTE   N11  Cn5
 BYTE   W12
 BYTE   Cs5
 BYTE   W12
 BYTE   N23  Ds5
 BYTE   W24
//  #05 //001   ----------------------------------------
Label_010056F1:
 BYTE   N23  As4  v127
 BYTE   W24
 BYTE   Cn5
 BYTE   W24
 BYTE   Cs5
 BYTE   W24
 BYTE   Ds5
 BYTE   W24
 BYTE   PEND 
//  #05 //002   ----------------------------------------
Label_010056FC:
 BYTE   N32  Fn5  v127
 BYTE   W36
 BYTE   N05  Ds5
 BYTE   W06
 BYTE   Cs5
 BYTE   W06
 BYTE   N11  Cn5
 BYTE   W12
 BYTE   Cs5
 BYTE   W12
 BYTE   N23  Ds5
 BYTE   W24
 BYTE   PEND 
//  #05 //003   ----------------------------------------
 BYTE   PATT
  POIN2 Label_010056F1
//  #05 //004   ----------------------------------------
 BYTE   PATT
  POIN2 Label_010056FC
//  #05 //005   ----------------------------------------
 BYTE   PATT
  POIN2 Label_010056F1
//  #05 //006   ----------------------------------------
 BYTE   N32  Fn5  v127
 BYTE   W36
 BYTE   N05  Ds5
 BYTE   W06
 BYTE   Cs5
 BYTE   W06
 BYTE   N11  Cn5
 BYTE   W12
 BYTE   Cs5
 BYTE   W12
 BYTE   N17  Ds5
 BYTE   W18
 BYTE   N05  Fn5
 BYTE   W06
//  #05 //007   ----------------------------------------
 BYTE   N32  Fs5
 BYTE   W36
 BYTE   Fn5
 BYTE   W36
 BYTE   N23  Ds5
 BYTE   W24
//  #05 //008   ----------------------------------------
 BYTE   TIE  Cs5
 BYTE   W96
//  #05 //009   ----------------------------------------
 BYTE   W92
 BYTE   W03
 BYTE   EOT
 BYTE   W01
//  #05 //010   ----------------------------------------
Label_01005740:
 BYTE   W12
 BYTE   N23  Cn4  v127
 BYTE   W24
 BYTE   Cs4
 BYTE   W24
 BYTE   N56  Gs4
 BYTE   W36
 BYTE   PEND 
//  #05 //011   ----------------------------------------
Label_0100574B:
 BYTE   W36
 BYTE   N05  Gn4  v127
 BYTE   W06
 BYTE   Gs4
 BYTE   W06
 BYTE   N23  Gn4
 BYTE   W24
 BYTE   N11  Fn4
 BYTE   W12
 BYTE   Ds4
 BYTE   W12
 BYTE   PEND 
//  #05 //012   ----------------------------------------
Label_0100575B:
 BYTE   N11  Fn4  v127
 BYTE   W18
 BYTE   N05  Cn5
 BYTE   W06
 BYTE   N92
 BYTE   W72
 BYTE   PEND 
//  #05 //013   ----------------------------------------
Label_01005765:
 BYTE   W36
 BYTE   N23  Ds5  v127
 BYTE   W24
 BYTE   Cs5
 BYTE   W24
 BYTE   N11  Cn5
 BYTE   W12
 BYTE   PEND 
//  #05 //014   ----------------------------------------
 BYTE   TIE  As4
 BYTE   W96
//  #05 //015   ----------------------------------------
 BYTE   W23
 BYTE   EOT
 BYTE   W13
 BYTE   N23  Ds5
 BYTE   W24
 BYTE   Cs5
 BYTE   W24
 BYTE   N11  Cn5
 BYTE   W12
//  #05 //016   ----------------------------------------
Label_0100577E:
 BYTE   N05  As4  v127
 BYTE   W06
 BYTE   Cn5
 BYTE   W06
 BYTE   Cs5
 BYTE   W06
 BYTE   Ds5
 BYTE   W06
 BYTE   N92  Cs5
 BYTE   W72
 BYTE   PEND 
//  #05 //017   ----------------------------------------
Label_0100578C:
 BYTE   W24
 BYTE   N23  Cn5  v127
 BYTE   W24
 BYTE   N05  As4
 BYTE   W06
 BYTE   Cn5
 BYTE   W06
 BYTE   As4
 BYTE   W06
 BYTE   Gs4
 BYTE   W06
 BYTE   Fs4
 BYTE   W06
 BYTE   Fn4
 BYTE   W06
 BYTE   Ds4
 BYTE   W06
 BYTE   Cs4
 BYTE   W06
 BYTE   PEND 
//  #05 //018   ----------------------------------------
 BYTE   PATT
  POIN2 Label_01005740
//  #05 //019   ----------------------------------------
 BYTE   PATT
  POIN2 Label_0100574B
//  #05 //020   ----------------------------------------
 BYTE   PATT
  POIN2 Label_0100575B
//  #05 //021   ----------------------------------------
 BYTE   PATT
  POIN2 Label_01005765
//  #05 //022   ----------------------------------------
 BYTE   TIE  As4  v127
 BYTE   W96
//  #05 //023   ----------------------------------------
 BYTE   W23
 BYTE   EOT
 BYTE   W13
 BYTE   N23  Ds5
 BYTE   W24
 BYTE   Cs5
 BYTE   W24
 BYTE   N11  Cn5
 BYTE   W12
//  #05 //024   ----------------------------------------
 BYTE   PATT
  POIN2 Label_0100577E
//  #05 //025   ----------------------------------------
Label_010057CB:
 BYTE   W24
 BYTE   N23  Cn4  v127
 BYTE   W24
 BYTE   Cs4
 BYTE   W24
 BYTE   N11  Ds4
 BYTE   W12
 BYTE   N05  Fn4
 BYTE   W06
 BYTE   Gn4
 BYTE   W06
 BYTE   PEND 
//  #05 //026   ----------------------------------------
Label_010057DB:
 BYTE   N11  Gs4  v127
 BYTE   W12
 BYTE   N05  Gn4
 BYTE   W06
 BYTE   Fn4
 BYTE   W06
 BYTE   Gn4
 BYTE   W12
 BYTE   N11  Ds4
 BYTE   W12
 BYTE   Fn4
 BYTE   W12
 BYTE   N23  Cn5
 BYTE   W24
 BYTE   N11  As4
 BYTE   W12
 BYTE   PEND 
//  #05 //027   ----------------------------------------
Label_010057F2:
 BYTE   N11  Gs4  v127
 BYTE   W12
 BYTE   Gn4
 BYTE   W12
 BYTE   Gs4
 BYTE   W12
 BYTE   Fn4
 BYTE   W12
 BYTE   Ds4
 BYTE   W12
 BYTE   Fn4
 BYTE   W12
 BYTE   Cs4
 BYTE   W12
 BYTE   Cn4
 BYTE   W12
 BYTE   PEND 
//  #05 //028   ----------------------------------------
Label_01005805:
 BYTE   N56  Cs4  v127
 BYTE   W60
 BYTE   N05  Cn4
 BYTE   W06
 BYTE   Cs4
 BYTE   W06
 BYTE   N11  Ds4
 BYTE   W12
 BYTE   Cn4
 BYTE   W12
 BYTE   PEND 
//  #05 //029   ----------------------------------------
Label_01005814:
 BYTE   N76  As3  v127
 BYTE   W78
 BYTE   N05  Cn4
 BYTE   W06
 BYTE   Cs4
 BYTE   W06
 BYTE   Ds4
 BYTE   W06
 BYTE   PEND 
//  #05 //030   ----------------------------------------
 BYTE   PATT
  POIN2 Label_010057DB
//  #05 //031   ----------------------------------------
Label_01005825:
 BYTE   N11  Cs5  v127
 BYTE   W12
 BYTE   N05  Cn5
 BYTE   W06
 BYTE   As4
 BYTE   W06
 BYTE   Cn5
 BYTE   W12
 BYTE   N11  Gs4
 BYTE   W12
 BYTE   N07  Gn4
 BYTE   W08
 BYTE   Gs4
 BYTE   W08
 BYTE   As4
 BYTE   W08
 BYTE   Cn5
 BYTE   W08
 BYTE   Cs5
 BYTE   W08
 BYTE   Ds5
 BYTE   W08
 BYTE   PEND 
//  #05 //032   ----------------------------------------
Label_01005841:
 BYTE   N15  Fn5  v127
 BYTE   W16
 BYTE   Ds5
 BYTE   W16
 BYTE   Cs5
 BYTE   W16
 BYTE   N68  As4
 BYTE   W48
 BYTE   PEND 
//  #05 //033   ----------------------------------------
Label_0100584D:
 BYTE   W24
 BYTE   N23  Fn5  v127
 BYTE   W24
 BYTE   Ds5
 BYTE   W24
 BYTE   Cs5
 BYTE   W24
 BYTE   PEND 
//  #05 //034   ----------------------------------------
Label_01005857:
 BYTE   N15  Ds5  v127
 BYTE   W16
 BYTE   Cs5
 BYTE   W16
 BYTE   Cn5
 BYTE   W16
 BYTE   N68  As4
 BYTE   W48
 BYTE   PEND 
//  #05 //035   ----------------------------------------
Label_01005863:
 BYTE   W24
 BYTE   N23  Ds5  v127
 BYTE   W24
 BYTE   Cs5
 BYTE   W24
 BYTE   Cn5
 BYTE   W24
 BYTE   PEND 
//  #05 //036   ----------------------------------------
 BYTE   TIE  As4
 BYTE   W96
//  #05 //037   ----------------------------------------
Label_01005870:
 BYTE   W92
 BYTE   W03
 BYTE   EOT
 BYTE   As4
 BYTE   W01
//  #05 //038   ----------------------------------------
 BYTE   PATT
  POIN2 Label_01005740
//  #05 //039   ----------------------------------------
 BYTE   PATT
  POIN2 Label_0100574B
//  #05 //040   ----------------------------------------
 BYTE   PATT
  POIN2 Label_0100575B
//  #05 //041   ----------------------------------------
 BYTE   PATT
  POIN2 Label_01005765
//  #05 //042   ----------------------------------------
 BYTE   TIE  As4  v127
 BYTE   W96
//  #05 //043   ----------------------------------------
 BYTE   W23
 BYTE   EOT
 BYTE   W13
 BYTE   N23  Ds5
 BYTE   W24
 BYTE   Cs5
 BYTE   W24
 BYTE   N11  Cn5
 BYTE   W12
//  #05 //044   ----------------------------------------
 BYTE   PATT
  POIN2 Label_0100577E
//  #05 //045   ----------------------------------------
 BYTE   PATT
  POIN2 Label_0100578C
//  #05 //046   ----------------------------------------
 BYTE   PATT
  POIN2 Label_01005740
//  #05 //047   ----------------------------------------
 BYTE   PATT
  POIN2 Label_0100574B
//  #05 //048   ----------------------------------------
 BYTE   PATT
  POIN2 Label_0100575B
//  #05 //049   ----------------------------------------
 BYTE   PATT
  POIN2 Label_01005765
//  #05 //050   ----------------------------------------
 BYTE   TIE  As4  v127
 BYTE   W96
//  #05 //051   ----------------------------------------
 BYTE   W23
 BYTE   EOT
 BYTE   W13
 BYTE   N23  Ds5
 BYTE   W24
 BYTE   Cs5
 BYTE   W24
 BYTE   N11  Cn5
 BYTE   W12
//  #05 //052   ----------------------------------------
 BYTE   PATT
  POIN2 Label_0100577E
//  #05 //053   ----------------------------------------
 BYTE   PATT
  POIN2 Label_010057CB
//  #05 //054   ----------------------------------------
 BYTE   PATT
  POIN2 Label_010057DB
//  #05 //055   ----------------------------------------
 BYTE   PATT
  POIN2 Label_010057F2
//  #05 //056   ----------------------------------------
 BYTE   PATT
  POIN2 Label_01005805
//  #05 //057   ----------------------------------------
 BYTE   PATT
  POIN2 Label_01005814
//  #05 //058   ----------------------------------------
 BYTE   PATT
  POIN2 Label_010057DB
//  #05 //059   ----------------------------------------
 BYTE   PATT
  POIN2 Label_01005825
//  #05 //060   ----------------------------------------
 BYTE   PATT
  POIN2 Label_01005841
//  #05 //061   ----------------------------------------
 BYTE   PATT
  POIN2 Label_0100584D
//  #05 //062   ----------------------------------------
 BYTE   PATT
  POIN2 Label_01005857
//  #05 //063   ----------------------------------------
 BYTE   PATT
  POIN2 Label_01005863
//  #05 //064   ----------------------------------------
 BYTE   TIE  As4  v127
 BYTE   W96
//  #05 //065   ----------------------------------------
 BYTE   GoTo
  POIN2 Label_01005870
//  #05 //066   ----------------------------------------
 BYTE   W92
 BYTE   W03
 BYTE   EOT
 BYTE   As4
 BYTE   W01
//  #05 //067   ----------------------------------------
 BYTE   W12
 BYTE   N23  Cn4  v127
 BYTE   W04
 BYTE   W16
 BYTE   W04
 BYTE   Cs4
 BYTE   W12
 BYTE   W12
 BYTE   N56  Gs4
 BYTE   W04
 BYTE   W16
 BYTE   W16
//  #05 //068   ----------------------------------------
 BYTE   W16
 BYTE   W16
 BYTE   W04
 BYTE   N05  Gn4
 BYTE   W06
 BYTE   Gs4
 BYTE   W06
 BYTE   N23  Gn4
 BYTE   W16
 BYTE   W08
 BYTE   N11  Fn4
 BYTE   W08
 BYTE   W04
 BYTE   Ds4
 BYTE   W12
//  #05 //069   ----------------------------------------
 BYTE   Fn4
 BYTE   W08
 BYTE   W08
 BYTE   W02
 BYTE   N05  Cn5
 BYTE   W06
 BYTE   N92
 BYTE   W08
 BYTE   W08
 BYTE   W08
 BYTE   W08
 BYTE   W08
 BYTE   W08
 BYTE   W08
 BYTE   W08
 BYTE   W08
//  #05 //070   ----------------------------------------
 BYTE   W08
 BYTE   W08
 BYTE   W08
 BYTE   W08
 BYTE   W04
 BYTE   N23  Ds5
 BYTE   W04
 BYTE   W08
 BYTE   W08
 BYTE   W04
 BYTE   Cs5
 BYTE   W04
 BYTE   W08
 BYTE   W08
 BYTE   W04
 BYTE   N11  Cn5
 BYTE   W04
 BYTE   W08
//  #05 //071   ----------------------------------------
 BYTE   W48
 BYTE   FINE

//**************** Track 6 (Midi-Chn.5) ****************//

LiveALive_006:
//  #06 //000   ----------------------------------------
 BYTE   KEYSH   LiveALive_key+0
 BYTE   VOICE   40
 BYTE   VOL   23*LiveALive_mvl/mxv
 BYTE   PAN   c_v-20
 BYTE   N32  Fn4  v127
 BYTE   W36
 BYTE   N05  Ds4
 BYTE   W06
 BYTE   Cs4
 BYTE   W06
 BYTE   N11  Cn4
 BYTE   W12
 BYTE   Cs4
 BYTE   W12
 BYTE   N23  Ds4
 BYTE   W24
//  #06 //001   ----------------------------------------
Label_01005461:
 BYTE   N23  As3  v127
 BYTE   W24
 BYTE   Cn4
 BYTE   W24
 BYTE   Cs4
 BYTE   W24
 BYTE   Ds4
 BYTE   W24
 BYTE   PEND 
//  #06 //002   ----------------------------------------
Label_0100546C:
 BYTE   N32  Fn4  v127
 BYTE   W36
 BYTE   N05  Ds4
 BYTE   W06
 BYTE   Cs4
 BYTE   W06
 BYTE   N11  Cn4
 BYTE   W12
 BYTE   Cs4
 BYTE   W12
 BYTE   N23  Ds4
 BYTE   W24
 BYTE   PEND 
//  #06 //003   ----------------------------------------
 BYTE   PATT
  POIN2 Label_01005461
//  #06 //004   ----------------------------------------
 BYTE   PATT
  POIN2 Label_0100546C
//  #06 //005   ----------------------------------------
 BYTE   PATT
  POIN2 Label_01005461
//  #06 //006   ----------------------------------------
 BYTE   N32  Fn4  v127
 BYTE   W36
 BYTE   N05  Ds4
 BYTE   W06
 BYTE   Cs4
 BYTE   W06
 BYTE   N11  Cn4
 BYTE   W12
 BYTE   Cs4
 BYTE   W12
 BYTE   N17  Ds4
 BYTE   W18
 BYTE   N05  Fn4
 BYTE   W06
//  #06 //007   ----------------------------------------
 BYTE   N32  Fs4
 BYTE   W36
 BYTE   Fn4
 BYTE   W36
 BYTE   N23  Ds4
 BYTE   W24
//  #06 //008   ----------------------------------------
 BYTE   TIE  Cs4
 BYTE   W96
//  #06 //009   ----------------------------------------
 BYTE   W92
 BYTE   W03
 BYTE   EOT
 BYTE   W01
//  #06 //010   ----------------------------------------
Label_010054B0:
 BYTE   W12
 BYTE   N23  Cn3  v127
 BYTE   W24
 BYTE   Cs3
 BYTE   W24
 BYTE   N56  Gs3
 BYTE   W36
 BYTE   PEND 
//  #06 //011   ----------------------------------------
Label_010054BB:
 BYTE   W36
 BYTE   N05  Gn3  v127
 BYTE   W06
 BYTE   Gs3
 BYTE   W06
 BYTE   N23  Gn3
 BYTE   W24
 BYTE   N11  Fn3
 BYTE   W12
 BYTE   Ds3
 BYTE   W12
 BYTE   PEND 
//  #06 //012   ----------------------------------------
Label_010054CB:
 BYTE   N11  Fn3  v127
 BYTE   W18
 BYTE   N05  Cn4
 BYTE   W06
 BYTE   N92
 BYTE   W72
 BYTE   PEND 
//  #06 //013   ----------------------------------------
Label_010054D5:
 BYTE   W36
 BYTE   N23  Ds4  v127
 BYTE   W24
 BYTE   Cs4
 BYTE   W24
 BYTE   N11  Cn4
 BYTE   W12
 BYTE   PEND 
//  #06 //014   ----------------------------------------
 BYTE   TIE  As3
 BYTE   W96
//  #06 //015   ----------------------------------------
 BYTE   W23
 BYTE   EOT
 BYTE   W13
 BYTE   N23  Ds4
 BYTE   W24
 BYTE   Cs4
 BYTE   W24
 BYTE   N11  Cn4
 BYTE   W12
//  #06 //016   ----------------------------------------
Label_010054EE:
 BYTE   N05  As3  v127
 BYTE   W06
 BYTE   Cn4
 BYTE   W06
 BYTE   Cs4
 BYTE   W06
 BYTE   Ds4
 BYTE   W06
 BYTE   N92  Cs4
 BYTE   W72
 BYTE   PEND 
//  #06 //017   ----------------------------------------
Label_010054FC:
 BYTE   W24
 BYTE   N23  Cn4  v127
 BYTE   W24
 BYTE   N05  As3
 BYTE   W06
 BYTE   Cn4
 BYTE   W06
 BYTE   As3
 BYTE   W06
 BYTE   Gs3
 BYTE   W06
 BYTE   Fs3
 BYTE   W06
 BYTE   Fn3
 BYTE   W06
 BYTE   Ds3
 BYTE   W06
 BYTE   Cs3
 BYTE   W06
 BYTE   PEND 
//  #06 //018   ----------------------------------------
 BYTE   PATT
  POIN2 Label_010054B0
//  #06 //019   ----------------------------------------
 BYTE   PATT
  POIN2 Label_010054BB
//  #06 //020   ----------------------------------------
 BYTE   PATT
  POIN2 Label_010054CB
//  #06 //021   ----------------------------------------
 BYTE   PATT
  POIN2 Label_010054D5
//  #06 //022   ----------------------------------------
 BYTE   TIE  As3  v127
 BYTE   W96
//  #06 //023   ----------------------------------------
 BYTE   W23
 BYTE   EOT
 BYTE   W13
 BYTE   N23  Ds4
 BYTE   W24
 BYTE   Cs4
 BYTE   W24
 BYTE   N11  Cn4
 BYTE   W12
//  #06 //024   ----------------------------------------
 BYTE   PATT
  POIN2 Label_010054EE
//  #06 //025   ----------------------------------------
Label_0100553B:
 BYTE   W24
 BYTE   N23  Cn3  v127
 BYTE   W24
 BYTE   Cs3
 BYTE   W24
 BYTE   N11  Ds3
 BYTE   W12
 BYTE   N05  Fn3
 BYTE   W06
 BYTE   Gn3
 BYTE   W06
 BYTE   PEND 
//  #06 //026   ----------------------------------------
Label_0100554B:
 BYTE   N11  Gs3  v127
 BYTE   W12
 BYTE   N05  Gn3
 BYTE   W06
 BYTE   Fn3
 BYTE   W06
 BYTE   Gn3
 BYTE   W12
 BYTE   N11  Ds3
 BYTE   W12
 BYTE   Fn3
 BYTE   W12
 BYTE   N23  Cn4
 BYTE   W24
 BYTE   N11  As3
 BYTE   W12
 BYTE   PEND 
//  #06 //027   ----------------------------------------
Label_01005562:
 BYTE   N11  Gs3  v127
 BYTE   W12
 BYTE   Gn3
 BYTE   W12
 BYTE   Gs3
 BYTE   W12
 BYTE   Fn3
 BYTE   W12
 BYTE   Ds3
 BYTE   W12
 BYTE   Fn3
 BYTE   W12
 BYTE   Cs3
 BYTE   W12
 BYTE   Cn3
 BYTE   W12
 BYTE   PEND 
//  #06 //028   ----------------------------------------
Label_01005575:
 BYTE   N56  Cs3  v127
 BYTE   W60
 BYTE   N05  Cn3
 BYTE   W06
 BYTE   Cs3
 BYTE   W06
 BYTE   N11  Ds3
 BYTE   W12
 BYTE   Cn3
 BYTE   W12
 BYTE   PEND 
//  #06 //029   ----------------------------------------
Label_01005584:
 BYTE   N76  As2  v127
 BYTE   W78
 BYTE   N05  Cn3
 BYTE   W06
 BYTE   Cs3
 BYTE   W06
 BYTE   Ds3
 BYTE   W06
 BYTE   PEND 
//  #06 //030   ----------------------------------------
 BYTE   PATT
  POIN2 Label_0100554B
//  #06 //031   ----------------------------------------
Label_01005595:
 BYTE   N11  Cs4  v127
 BYTE   W12
 BYTE   N05  Cn4
 BYTE   W06
 BYTE   As3
 BYTE   W06
 BYTE   Cn4
 BYTE   W12
 BYTE   N11  Gs3
 BYTE   W12
 BYTE   N07  Gn3
 BYTE   W08
 BYTE   Gs3
 BYTE   W08
 BYTE   As3
 BYTE   W08
 BYTE   Cn4
 BYTE   W08
 BYTE   Cs4
 BYTE   W08
 BYTE   Ds4
 BYTE   W08
 BYTE   PEND 
//  #06 //032   ----------------------------------------
Label_010055B1:
 BYTE   N15  Fn4  v127
 BYTE   W16
 BYTE   Ds4
 BYTE   W16
 BYTE   Cs4
 BYTE   W16
 BYTE   N68  As3
 BYTE   W48
 BYTE   PEND 
//  #06 //033   ----------------------------------------
Label_010055BD:
 BYTE   W24
 BYTE   N23  Fn4  v127
 BYTE   W24
 BYTE   Ds4
 BYTE   W24
 BYTE   Cs4
 BYTE   W24
 BYTE   PEND 
//  #06 //034   ----------------------------------------
Label_010055C7:
 BYTE   N15  Ds4  v127
 BYTE   W16
 BYTE   Cs4
 BYTE   W16
 BYTE   Cn4
 BYTE   W16
 BYTE   N68  As3
 BYTE   W48
 BYTE   PEND 
//  #06 //035   ----------------------------------------
Label_010055D3:
 BYTE   W24
 BYTE   N23  Ds4  v127
 BYTE   W24
 BYTE   Cs4
 BYTE   W24
 BYTE   Cn4
 BYTE   W24
 BYTE   PEND 
//  #06 //036   ----------------------------------------
 BYTE   TIE  As3
 BYTE   W96
//  #06 //037   ----------------------------------------
Label_010055E0:
 BYTE   W92
 BYTE   W03
 BYTE   EOT
 BYTE   As3
 BYTE   W01
//  #06 //038   ----------------------------------------
 BYTE   PATT
  POIN2 Label_010054B0
//  #06 //039   ----------------------------------------
 BYTE   PATT
  POIN2 Label_010054BB
//  #06 //040   ----------------------------------------
 BYTE   PATT
  POIN2 Label_010054CB
//  #06 //041   ----------------------------------------
 BYTE   PATT
  POIN2 Label_010054D5
//  #06 //042   ----------------------------------------
 BYTE   TIE  As3  v127
 BYTE   W96
//  #06 //043   ----------------------------------------
 BYTE   W23
 BYTE   EOT
 BYTE   W13
 BYTE   N23  Ds4
 BYTE   W24
 BYTE   Cs4
 BYTE   W24
 BYTE   N11  Cn4
 BYTE   W12
//  #06 //044   ----------------------------------------
 BYTE   PATT
  POIN2 Label_010054EE
//  #06 //045   ----------------------------------------
 BYTE   PATT
  POIN2 Label_010054FC
//  #06 //046   ----------------------------------------
 BYTE   PATT
  POIN2 Label_010054B0
//  #06 //047   ----------------------------------------
 BYTE   PATT
  POIN2 Label_010054BB
//  #06 //048   ----------------------------------------
 BYTE   PATT
  POIN2 Label_010054CB
//  #06 //049   ----------------------------------------
 BYTE   PATT
  POIN2 Label_010054D5
//  #06 //050   ----------------------------------------
 BYTE   TIE  As3  v127
 BYTE   W96
//  #06 //051   ----------------------------------------
 BYTE   W23
 BYTE   EOT
 BYTE   W13
 BYTE   N23  Ds4
 BYTE   W24
 BYTE   Cs4
 BYTE   W24
 BYTE   N11  Cn4
 BYTE   W12
//  #06 //052   ----------------------------------------
 BYTE   PATT
  POIN2 Label_010054EE
//  #06 //053   ----------------------------------------
 BYTE   PATT
  POIN2 Label_0100553B
//  #06 //054   ----------------------------------------
 BYTE   PATT
  POIN2 Label_0100554B
//  #06 //055   ----------------------------------------
 BYTE   PATT
  POIN2 Label_01005562
//  #06 //056   ----------------------------------------
 BYTE   PATT
  POIN2 Label_01005575
//  #06 //057   ----------------------------------------
 BYTE   PATT
  POIN2 Label_01005584
//  #06 //058   ----------------------------------------
 BYTE   PATT
  POIN2 Label_0100554B
//  #06 //059   ----------------------------------------
 BYTE   PATT
  POIN2 Label_01005595
//  #06 //060   ----------------------------------------
 BYTE   PATT
  POIN2 Label_010055B1
//  #06 //061   ----------------------------------------
 BYTE   PATT
  POIN2 Label_010055BD
//  #06 //062   ----------------------------------------
 BYTE   PATT
  POIN2 Label_010055C7
//  #06 //063   ----------------------------------------
 BYTE   PATT
  POIN2 Label_010055D3
//  #06 //064   ----------------------------------------
 BYTE   TIE  As3  v127
 BYTE   W96
//  #06 //065   ----------------------------------------
 BYTE   GoTo
  POIN2 Label_010055E0
//  #06 //066   ----------------------------------------
 BYTE   W92
 BYTE   W03
 BYTE   EOT
 BYTE   As3
 BYTE   W01
//  #06 //067   ----------------------------------------
 BYTE   W12
 BYTE   N23  Cn3  v127
 BYTE   W04
 BYTE   W16
 BYTE   W04
 BYTE   Cs3
 BYTE   W12
 BYTE   W12
 BYTE   N56  Gs3
 BYTE   W04
 BYTE   W16
 BYTE   W16
//  #06 //068   ----------------------------------------
 BYTE   W16
 BYTE   W16
 BYTE   W04
 BYTE   N05  Gn3
 BYTE   W06
 BYTE   Gs3
 BYTE   W06
 BYTE   N23  Gn3
 BYTE   W16
 BYTE   W08
 BYTE   N11  Fn3
 BYTE   W08
 BYTE   W04
 BYTE   Ds3
 BYTE   W12
//  #06 //069   ----------------------------------------
 BYTE   Fn3
 BYTE   W08
 BYTE   W08
 BYTE   W02
 BYTE   N05  Cn4
 BYTE   W06
 BYTE   N92
 BYTE   W08
 BYTE   W08
 BYTE   W08
 BYTE   W08
 BYTE   W08
 BYTE   W08
 BYTE   W08
 BYTE   W08
 BYTE   W08
//  #06 //070   ----------------------------------------
 BYTE   W08
 BYTE   W08
 BYTE   W08
 BYTE   W08
 BYTE   W04
 BYTE   N23  Ds4
 BYTE   W04
 BYTE   W08
 BYTE   W08
 BYTE   W04
 BYTE   Cs4
 BYTE   W04
 BYTE   W08
 BYTE   W08
 BYTE   W04
 BYTE   N11  Cn4
 BYTE   W04
 BYTE   W08
//  #06 //071   ----------------------------------------
 BYTE   W48
 BYTE   FINE

//**************** Track 7 (Midi-Chn.6) ****************//

LiveALive_007:
//  #07 //000   ----------------------------------------
 BYTE   KEYSH   LiveALive_key+0
 BYTE   VOICE   41
 BYTE   VOL   18*LiveALive_mvl/mxv
 BYTE   PAN   c_v+20
 BYTE   N32  Cs4  v127
 BYTE   W36
 BYTE   N05  Cn4
 BYTE   W06
 BYTE   As3
 BYTE   W06
 BYTE   N11  Gs3
 BYTE   W12
 BYTE   As3
 BYTE   W12
 BYTE   N23  Cn4
 BYTE   W24
//  #07 //001   ----------------------------------------
Label_01005981:
 BYTE   N23  Fs3  v127
 BYTE   W24
 BYTE   Gs3
 BYTE   W24
 BYTE   As3
 BYTE   W24
 BYTE   Cn4
 BYTE   W24
 BYTE   PEND 
//  #07 //002   ----------------------------------------
Label_0100598C:
 BYTE   N32  Cs4  v127
 BYTE   W36
 BYTE   N05  Cn4
 BYTE   W06
 BYTE   As3
 BYTE   W06
 BYTE   N11  Gs3
 BYTE   W12
 BYTE   As3
 BYTE   W12
 BYTE   N23  Cn4
 BYTE   W24
 BYTE   PEND 
//  #07 //003   ----------------------------------------
 BYTE   PATT
  POIN2 Label_01005981
//  #07 //004   ----------------------------------------
 BYTE   PATT
  POIN2 Label_0100598C
//  #07 //005   ----------------------------------------
 BYTE   PATT
  POIN2 Label_01005981
//  #07 //006   ----------------------------------------
 BYTE   N32  Cs4  v127
 BYTE   W36
 BYTE   N05  Cn4
 BYTE   W06
 BYTE   As3
 BYTE   W06
 BYTE   N11  Gs3
 BYTE   W12
 BYTE   As3
 BYTE   W12
 BYTE   N17  Cn4
 BYTE   W18
 BYTE   N05  Cs4
 BYTE   W06
//  #07 //007   ----------------------------------------
 BYTE   N32  Ds4
 BYTE   W36
 BYTE   Cs4
 BYTE   W36
 BYTE   N23  Cn4
 BYTE   W24
//  #07 //008   ----------------------------------------
 BYTE   TIE  As3
 BYTE   W96
//  #07 //009   ----------------------------------------
 BYTE   W92
 BYTE   W03
 BYTE   EOT
 BYTE   W01
//  #07 //010   ----------------------------------------
 BYTE   W96
//  #07 //011   ----------------------------------------
 BYTE   W96
//  #07 //012   ----------------------------------------
 BYTE   W96
//  #07 //013   ----------------------------------------
 BYTE   W96
//  #07 //014   ----------------------------------------
 BYTE   W96
//  #07 //015   ----------------------------------------
 BYTE   W96
//  #07 //016   ----------------------------------------
 BYTE   W96
//  #07 //017   ----------------------------------------
 BYTE   W96
//  #07 //018   ----------------------------------------
 BYTE   W96
//  #07 //019   ----------------------------------------
 BYTE   W96
//  #07 //020   ----------------------------------------
 BYTE   W96
//  #07 //021   ----------------------------------------
 BYTE   W96
//  #07 //022   ----------------------------------------
 BYTE   W96
//  #07 //023   ----------------------------------------
 BYTE   W96
//  #07 //024   ----------------------------------------
 BYTE   W96
//  #07 //025   ----------------------------------------
 BYTE   W96
//  #07 //026   ----------------------------------------
Label_010059E0:
 BYTE   N11  Fn3  v127
 BYTE   W12
 BYTE   N05  Ds3
 BYTE   W06
 BYTE   Cs3
 BYTE   W06
 BYTE   Ds3
 BYTE   W12
 BYTE   N11  Cn3
 BYTE   W12
 BYTE   Cs3
 BYTE   W12
 BYTE   N23  Gs3
 BYTE   W24
 BYTE   N11  Gn3
 BYTE   W12
 BYTE   PEND 
//  #07 //027   ----------------------------------------
Label_010059F7:
 BYTE   N11  Fn3  v127
 BYTE   W12
 BYTE   Ds3
 BYTE   W12
 BYTE   Fn3
 BYTE   W12
 BYTE   Cs3
 BYTE   W12
 BYTE   Cn3
 BYTE   W12
 BYTE   Cs3
 BYTE   W12
 BYTE   As2
 BYTE   W12
 BYTE   Gs2
 BYTE   W12
 BYTE   PEND 
//  #07 //028   ----------------------------------------
Label_01005A0A:
 BYTE   N56  As2  v127
 BYTE   W60
 BYTE   N05  Gs2
 BYTE   W06
 BYTE   As2
 BYTE   W06
 BYTE   N11  Cn3
 BYTE   W12
 BYTE   Gs2
 BYTE   W12
 BYTE   PEND 
//  #07 //029   ----------------------------------------
Label_01005A19:
 BYTE   N76  Gn2  v127
 BYTE   W78
 BYTE   N05  Gs2
 BYTE   W06
 BYTE   As2
 BYTE   W06
 BYTE   Cn3
 BYTE   W06
 BYTE   PEND 
//  #07 //030   ----------------------------------------
 BYTE   PATT
  POIN2 Label_010059E0
//  #07 //031   ----------------------------------------
Label_01005A2A:
 BYTE   N11  As3  v127
 BYTE   W12
 BYTE   N05  Gs3
 BYTE   W06
 BYTE   Gn3
 BYTE   W06
 BYTE   Gs3
 BYTE   W12
 BYTE   N11  Fn3
 BYTE   W12
 BYTE   N07  Ds3
 BYTE   W08
 BYTE   Fn3
 BYTE   W08
 BYTE   Gn3
 BYTE   W08
 BYTE   Gs3
 BYTE   W08
 BYTE   As3
 BYTE   W08
 BYTE   Cn4
 BYTE   W08
 BYTE   PEND 
//  #07 //032   ----------------------------------------
Label_01005A46:
 BYTE   N15  Cs4  v127
 BYTE   W16
 BYTE   Cn4
 BYTE   W16
 BYTE   As3
 BYTE   W16
 BYTE   N68  Fs3
 BYTE   W48
 BYTE   PEND 
//  #07 //033   ----------------------------------------
Label_01005A52:
 BYTE   W24
 BYTE   N23  Cs4  v127
 BYTE   W24
 BYTE   Cn4
 BYTE   W24
 BYTE   As3
 BYTE   W24
 BYTE   PEND 
//  #07 //034   ----------------------------------------
Label_01005A5C:
 BYTE   N15  Cn4  v127
 BYTE   W16
 BYTE   As3
 BYTE   W16
 BYTE   Gs3
 BYTE   W16
 BYTE   N68  Fs3
 BYTE   W48
 BYTE   PEND 
//  #07 //035   ----------------------------------------
Label_01005A68:
 BYTE   W24
 BYTE   N23  Cn4  v127
 BYTE   W24
 BYTE   As3
 BYTE   W24
 BYTE   Gs3
 BYTE   W24
 BYTE   PEND 
//  #07 //036   ----------------------------------------
 BYTE   TIE  Fn3
 BYTE   W96
//  #07 //037   ----------------------------------------
Label_01005A75:
 BYTE   W92
 BYTE   W03
 BYTE   EOT
 BYTE   Fn3
 BYTE   W01
//  #07 //038   ----------------------------------------
 BYTE   W96
//  #07 //039   ----------------------------------------
 BYTE   W96
//  #07 //040   ----------------------------------------
 BYTE   W96
//  #07 //041   ----------------------------------------
 BYTE   W96
//  #07 //042   ----------------------------------------
 BYTE   W96
//  #07 //043   ----------------------------------------
 BYTE   W96
//  #07 //044   ----------------------------------------
 BYTE   W96
//  #07 //045   ----------------------------------------
 BYTE   W96
//  #07 //046   ----------------------------------------
 BYTE   W96
//  #07 //047   ----------------------------------------
 BYTE   W96
//  #07 //048   ----------------------------------------
 BYTE   W96
//  #07 //049   ----------------------------------------
 BYTE   W96
//  #07 //050   ----------------------------------------
 BYTE   W96
//  #07 //051   ----------------------------------------
 BYTE   W96
//  #07 //052   ----------------------------------------
 BYTE   W96
//  #07 //053   ----------------------------------------
 BYTE   W96
//  #07 //054   ----------------------------------------
 BYTE   PATT
  POIN2 Label_010059E0
//  #07 //055   ----------------------------------------
 BYTE   PATT
  POIN2 Label_010059F7
//  #07 //056   ----------------------------------------
 BYTE   PATT
  POIN2 Label_01005A0A
//  #07 //057   ----------------------------------------
 BYTE   PATT
  POIN2 Label_01005A19
//  #07 //058   ----------------------------------------
 BYTE   PATT
  POIN2 Label_010059E0
//  #07 //059   ----------------------------------------
 BYTE   PATT
  POIN2 Label_01005A2A
//  #07 //060   ----------------------------------------
 BYTE   PATT
  POIN2 Label_01005A46
//  #07 //061   ----------------------------------------
 BYTE   PATT
  POIN2 Label_01005A52
//  #07 //062   ----------------------------------------
 BYTE   PATT
  POIN2 Label_01005A5C
//  #07 //063   ----------------------------------------
 BYTE   PATT
  POIN2 Label_01005A68
//  #07 //064   ----------------------------------------
 BYTE   TIE  Fn3  v127
 BYTE   W96
//  #07 //065   ----------------------------------------
 BYTE   GoTo
  POIN2 Label_01005A75
//  #07 //066   ----------------------------------------
 BYTE   W92
 BYTE   W03
 BYTE   EOT
 BYTE   Fn3
 BYTE   W01
//  #07 //067   ----------------------------------------
 BYTE   W96
//  #07 //068   ----------------------------------------
 BYTE   W96
//  #07 //069   ----------------------------------------
 BYTE   W96
//  #07 //070   ----------------------------------------
 BYTE   W96
//  #07 //071   ----------------------------------------
 BYTE   W48
 BYTE   FINE

//**************** Track 8 (Midi-Chn.7) ****************//

LiveALive_008:
//  #08 //000   ----------------------------------------
 BYTE   KEYSH   LiveALive_key+0
 BYTE   VOICE   60
 BYTE   VOL   14*LiveALive_mvl/mxv
 BYTE   PAN   c_v+20
 BYTE   W96
//  #08 //001   ----------------------------------------
 BYTE   W96
//  #08 //002   ----------------------------------------
 BYTE   W96
//  #08 //003   ----------------------------------------
 BYTE   W96
//  #08 //004   ----------------------------------------
 BYTE   W96
//  #08 //005   ----------------------------------------
 BYTE   W96
//  #08 //006   ----------------------------------------
 BYTE   W96
//  #08 //007   ----------------------------------------
 BYTE   W96
//  #08 //008   ----------------------------------------
 BYTE   W96
//  #08 //009   ----------------------------------------
 BYTE   W96
//  #08 //010   ----------------------------------------
 BYTE   W96
//  #08 //011   ----------------------------------------
 BYTE   W96
//  #08 //012   ----------------------------------------
 BYTE   W96
//  #08 //013   ----------------------------------------
 BYTE   W96
//  #08 //014   ----------------------------------------
 BYTE   W96
//  #08 //015   ----------------------------------------
 BYTE   W96
//  #08 //016   ----------------------------------------
 BYTE   W96
//  #08 //017   ----------------------------------------
 BYTE   W96
//  #08 //018   ----------------------------------------
 BYTE   W96
//  #08 //019   ----------------------------------------
 BYTE   W96
//  #08 //020   ----------------------------------------
 BYTE   W96
//  #08 //021   ----------------------------------------
 BYTE   W96
//  #08 //022   ----------------------------------------
 BYTE   W96
//  #08 //023   ----------------------------------------
 BYTE   W96
//  #08 //024   ----------------------------------------
 BYTE   W96
//  #08 //025   ----------------------------------------
 BYTE   W96
//  #08 //026   ----------------------------------------
Label_0188CC4A:
 BYTE   N11  Fn3  v092
 BYTE   W12
 BYTE   N05  Ds3
 BYTE   W06
 BYTE   Cs3
 BYTE   W06
 BYTE   Ds3
 BYTE   W12
 BYTE   N11  Cn3
 BYTE   W12
 BYTE   Cs3
 BYTE   W12
 BYTE   N23  Gs3
 BYTE   W24
 BYTE   N11  Gn3
 BYTE   W12
 BYTE   PEND 
//  #08 //027   ----------------------------------------
Label_0188CC61:
 BYTE   N11  Fn3  v092
 BYTE   W12
 BYTE   Ds3
 BYTE   W12
 BYTE   Fn3
 BYTE   W12
 BYTE   Cs3
 BYTE   W12
 BYTE   Cn3
 BYTE   W12
 BYTE   Cs3
 BYTE   W12
 BYTE   As2
 BYTE   W12
 BYTE   Gs2
 BYTE   W12
 BYTE   PEND 
//  #08 //028   ----------------------------------------
Label_0188CC74:
 BYTE   N56  As2  v092
 BYTE   W60
 BYTE   N05  Gs2
 BYTE   W06
 BYTE   As2
 BYTE   W06
 BYTE   N11  Cn3
 BYTE   W12
 BYTE   Gs2
 BYTE   W12
 BYTE   PEND 
//  #08 //029   ----------------------------------------
Label_0188CC83:
 BYTE   N76  Gn2  v092
 BYTE   W78
 BYTE   N05  Gs2
 BYTE   W06
 BYTE   As2
 BYTE   W06
 BYTE   Cn3
 BYTE   W06
 BYTE   PEND 
//  #08 //030   ----------------------------------------
 BYTE   PATT
  POIN2 Label_0188CC4A
//  #08 //031   ----------------------------------------
Label_0188CC94:
 BYTE   N11  As3  v092
 BYTE   W12
 BYTE   N05  Gs3
 BYTE   W06
 BYTE   Gn3
 BYTE   W06
 BYTE   Gs3
 BYTE   W12
 BYTE   N11  Fn3
 BYTE   W12
 BYTE   N07  Ds3
 BYTE   W08
 BYTE   Fn3
 BYTE   W08
 BYTE   Gn3
 BYTE   W08
 BYTE   Gs3
 BYTE   W08
 BYTE   As3
 BYTE   W08
 BYTE   Cn4
 BYTE   W08
 BYTE   PEND 
//  #08 //032   ----------------------------------------
Label_0188CCB0:
 BYTE   N15  Cs4  v092
 BYTE   W16
 BYTE   Cn4
 BYTE   W16
 BYTE   As3
 BYTE   W16
 BYTE   N68  Fs3
 BYTE   W48
 BYTE   PEND 
//  #08 //033   ----------------------------------------
Label_0188CCBC:
 BYTE   W24
 BYTE   N23  Cs4  v092
 BYTE   W24
 BYTE   Cn4
 BYTE   W24
 BYTE   As3
 BYTE   W24
 BYTE   PEND 
//  #08 //034   ----------------------------------------
Label_0188CCC6:
 BYTE   N15  Cn4  v092
 BYTE   W16
 BYTE   As3
 BYTE   W16
 BYTE   Gs3
 BYTE   W16
 BYTE   N68  Fs3
 BYTE   W48
 BYTE   PEND 
//  #08 //035   ----------------------------------------
Label_0188CCD2:
 BYTE   W24
 BYTE   N23  Cn4  v092
 BYTE   W24
 BYTE   As3
 BYTE   W24
 BYTE   Gs3
 BYTE   W24
 BYTE   PEND 
//  #08 //036   ----------------------------------------
 BYTE   TIE  Fn3
 BYTE   W96
//  #08 //037   ----------------------------------------
Label_0188CCDF:
 BYTE   W92
 BYTE   W03
 BYTE   EOT
 BYTE   Fn3
 BYTE   W01
//  #08 //038   ----------------------------------------
 BYTE   W96
//  #08 //039   ----------------------------------------
 BYTE   W96
//  #08 //040   ----------------------------------------
 BYTE   W96
//  #08 //041   ----------------------------------------
 BYTE   W96
//  #08 //042   ----------------------------------------
 BYTE   W96
//  #08 //043   ----------------------------------------
 BYTE   W96
//  #08 //044   ----------------------------------------
 BYTE   W96
//  #08 //045   ----------------------------------------
 BYTE   W96
//  #08 //046   ----------------------------------------
 BYTE   W96
//  #08 //047   ----------------------------------------
 BYTE   W96
//  #08 //048   ----------------------------------------
 BYTE   W96
//  #08 //049   ----------------------------------------
 BYTE   W96
//  #08 //050   ----------------------------------------
 BYTE   W96
//  #08 //051   ----------------------------------------
 BYTE   W96
//  #08 //052   ----------------------------------------
 BYTE   W96
//  #08 //053   ----------------------------------------
 BYTE   W96
//  #08 //054   ----------------------------------------
 BYTE   PATT
  POIN2 Label_0188CC4A
//  #08 //055   ----------------------------------------
 BYTE   PATT
  POIN2 Label_0188CC61
//  #08 //056   ----------------------------------------
 BYTE   PATT
  POIN2 Label_0188CC74
//  #08 //057   ----------------------------------------
 BYTE   PATT
  POIN2 Label_0188CC83
//  #08 //058   ----------------------------------------
 BYTE   PATT
  POIN2 Label_0188CC4A
//  #08 //059   ----------------------------------------
 BYTE   PATT
  POIN2 Label_0188CC94
//  #08 //060   ----------------------------------------
 BYTE   PATT
  POIN2 Label_0188CCB0
//  #08 //061   ----------------------------------------
 BYTE   PATT
  POIN2 Label_0188CCBC
//  #08 //062   ----------------------------------------
 BYTE   PATT
  POIN2 Label_0188CCC6
//  #08 //063   ----------------------------------------
 BYTE   PATT
  POIN2 Label_0188CCD2
//  #08 //064   ----------------------------------------
 BYTE   TIE  Fn3  v092
 BYTE   W96
//  #08 //065   ----------------------------------------
 BYTE   GoTo
  POIN2 Label_0188CCDF
//  #08 //066   ----------------------------------------
 BYTE   W92
 BYTE   W03
 BYTE   EOT
 BYTE   Fn3
 BYTE   W01
//  #08 //067   ----------------------------------------
 BYTE   W96
//  #08 //068   ----------------------------------------
 BYTE   W96
//  #08 //069   ----------------------------------------
 BYTE   W96
//  #08 //070   ----------------------------------------
 BYTE   W96
//  #08 //071   ----------------------------------------
 BYTE   W48
 BYTE   FINE

//**************** Track 9 (Midi-Chn.8) ****************//

LiveALive_009:
//  #09 //000   ----------------------------------------
 BYTE   KEYSH   LiveALive_key+0
 BYTE   VOICE   60
 BYTE   VOL   18*LiveALive_mvl/mxv
 BYTE   PAN   c_v+20
 BYTE   W96
//  #09 //001   ----------------------------------------
 BYTE   W96
//  #09 //002   ----------------------------------------
 BYTE   W96
//  #09 //003   ----------------------------------------
 BYTE   W96
//  #09 //004   ----------------------------------------
 BYTE   W96
//  #09 //005   ----------------------------------------
 BYTE   W96
//  #09 //006   ----------------------------------------
 BYTE   W96
//  #09 //007   ----------------------------------------
 BYTE   W96
//  #09 //008   ----------------------------------------
 BYTE   W96
//  #09 //009   ----------------------------------------
 BYTE   W96
//  #09 //010   ----------------------------------------
Label_01005AF2:
 BYTE   W12
 BYTE   N23  Gs2  v092
 BYTE   W24
 BYTE   As2
 BYTE   W24
 BYTE   N56  Fn3
 BYTE   W36
 BYTE   PEND 
//  #09 //011   ----------------------------------------
Label_01005AFD:
 BYTE   W36
 BYTE   N05  Ds3  v092
 BYTE   W06
 BYTE   Fn3
 BYTE   W06
 BYTE   N23  Ds3
 BYTE   W24
 BYTE   N11  Cs3
 BYTE   W12
 BYTE   Cn3
 BYTE   W12
 BYTE   PEND 
//  #09 //012   ----------------------------------------
Label_01005B0D:
 BYTE   N11  Cs3  v092
 BYTE   W18
 BYTE   N05  Gs3
 BYTE   W06
 BYTE   N92
 BYTE   W72
 BYTE   PEND 
//  #09 //013   ----------------------------------------
Label_01005B17:
 BYTE   W36
 BYTE   N23  Cn4  v092
 BYTE   W24
 BYTE   As3
 BYTE   W24
 BYTE   N11  Gs3
 BYTE   W12
 BYTE   PEND 
//  #09 //014   ----------------------------------------
 BYTE   TIE  Fs3
 BYTE   W96
//  #09 //015   ----------------------------------------
 BYTE   W23
 BYTE   EOT
 BYTE   W13
 BYTE   N23  Cn4
 BYTE   W24
 BYTE   As3
 BYTE   W24
 BYTE   N11  Gs3
 BYTE   W12
//  #09 //016   ----------------------------------------
Label_01005B30:
 BYTE   N05  Fs3  v092
 BYTE   W06
 BYTE   Gs3
 BYTE   W06
 BYTE   As3
 BYTE   W06
 BYTE   Cn4
 BYTE   W06
 BYTE   N92  As3
 BYTE   W72
 BYTE   PEND 
//  #09 //017   ----------------------------------------
Label_01005B3E:
 BYTE   W24
 BYTE   N23  Gs3  v092
 BYTE   W24
 BYTE   N05  Fs3
 BYTE   W06
 BYTE   Gs3
 BYTE   W06
 BYTE   Fs3
 BYTE   W06
 BYTE   Fn3
 BYTE   W06
 BYTE   Ds3
 BYTE   W06
 BYTE   Cs3
 BYTE   W06
 BYTE   Cn3
 BYTE   W06
 BYTE   As2
 BYTE   W06
 BYTE   PEND 
//  #09 //018   ----------------------------------------
 BYTE   PATT
  POIN2 Label_01005AF2
//  #09 //019   ----------------------------------------
 BYTE   PATT
  POIN2 Label_01005AFD
//  #09 //020   ----------------------------------------
 BYTE   PATT
  POIN2 Label_01005B0D
//  #09 //021   ----------------------------------------
 BYTE   PATT
  POIN2 Label_01005B17
//  #09 //022   ----------------------------------------
 BYTE   TIE  Fs3  v092
 BYTE   W96
//  #09 //023   ----------------------------------------
 BYTE   W23
 BYTE   EOT
 BYTE   W13
 BYTE   N23  Cn4
 BYTE   W24
 BYTE   As3
 BYTE   W24
 BYTE   N11  Gs3
 BYTE   W12
//  #09 //024   ----------------------------------------
 BYTE   PATT
  POIN2 Label_01005B30
//  #09 //025   ----------------------------------------
Label_01005B7D:
 BYTE   W24
 BYTE   N23  Gs2  v092
 BYTE   W24
 BYTE   As2
 BYTE   W24
 BYTE   N11  Cn3
 BYTE   W12
 BYTE   N05  Cs3
 BYTE   W06
 BYTE   Ds3
 BYTE   W06
 BYTE   PEND 
//  #09 //026   ----------------------------------------
 BYTE   W96
//  #09 //027   ----------------------------------------
 BYTE   W96
//  #09 //028   ----------------------------------------
 BYTE   W96
//  #09 //029   ----------------------------------------
 BYTE   W96
//  #09 //030   ----------------------------------------
 BYTE   W96
//  #09 //031   ----------------------------------------
 BYTE   W96
//  #09 //032   ----------------------------------------
 BYTE   W96
//  #09 //033   ----------------------------------------
 BYTE   W96
//  #09 //034   ----------------------------------------
 BYTE   W96
//  #09 //035   ----------------------------------------
 BYTE   W96
//  #09 //036   ----------------------------------------
 BYTE   W96
//  #09 //037   ----------------------------------------
Label_01005B98:
 BYTE   W96
//  #09 //038   ----------------------------------------
 BYTE   PATT
  POIN2 Label_01005AF2
//  #09 //039   ----------------------------------------
 BYTE   PATT
  POIN2 Label_01005AFD
//  #09 //040   ----------------------------------------
 BYTE   PATT
  POIN2 Label_01005B0D
//  #09 //041   ----------------------------------------
 BYTE   PATT
  POIN2 Label_01005B17
//  #09 //042   ----------------------------------------
 BYTE   TIE  Fs3  v092
 BYTE   W96
//  #09 //043   ----------------------------------------
 BYTE   W23
 BYTE   EOT
 BYTE   W13
 BYTE   N23  Cn4
 BYTE   W24
 BYTE   As3
 BYTE   W24
 BYTE   N11  Gs3
 BYTE   W12
//  #09 //044   ----------------------------------------
 BYTE   PATT
  POIN2 Label_01005B30
//  #09 //045   ----------------------------------------
 BYTE   PATT
  POIN2 Label_01005B3E
//  #09 //046   ----------------------------------------
 BYTE   PATT
  POIN2 Label_01005AF2
//  #09 //047   ----------------------------------------
 BYTE   PATT
  POIN2 Label_01005AFD
//  #09 //048   ----------------------------------------
 BYTE   PATT
  POIN2 Label_01005B0D
//  #09 //049   ----------------------------------------
 BYTE   PATT
  POIN2 Label_01005B17
//  #09 //050   ----------------------------------------
 BYTE   TIE  Fs3  v092
 BYTE   W96
//  #09 //051   ----------------------------------------
 BYTE   W23
 BYTE   EOT
 BYTE   W13
 BYTE   N23  Cn4
 BYTE   W24
 BYTE   As3
 BYTE   W24
 BYTE   N11  Gs3
 BYTE   W12
//  #09 //052   ----------------------------------------
 BYTE   PATT
  POIN2 Label_01005B30
//  #09 //053   ----------------------------------------
 BYTE   PATT
  POIN2 Label_01005B7D
//  #09 //054   ----------------------------------------
 BYTE   W96
//  #09 //055   ----------------------------------------
 BYTE   W96
//  #09 //056   ----------------------------------------
 BYTE   W96
//  #09 //057   ----------------------------------------
 BYTE   W96
//  #09 //058   ----------------------------------------
 BYTE   W96
//  #09 //059   ----------------------------------------
 BYTE   W96
//  #09 //060   ----------------------------------------
 BYTE   W96
//  #09 //061   ----------------------------------------
 BYTE   W96
//  #09 //062   ----------------------------------------
 BYTE   W96
//  #09 //063   ----------------------------------------
 BYTE   W96
//  #09 //064   ----------------------------------------
 BYTE   W96
//  #09 //065   ----------------------------------------
 BYTE   GoTo
  POIN2 Label_01005B98
//  #09 //066   ----------------------------------------
 BYTE   W96
//  #09 //067   ----------------------------------------
 BYTE   W12
 BYTE   N23  Gs2  v092
 BYTE   W04
 BYTE   W16
 BYTE   W04
 BYTE   As2
 BYTE   W12
 BYTE   W12
 BYTE   N56  Fn3
 BYTE   W04
 BYTE   W16
 BYTE   W16
//  #09 //068   ----------------------------------------
 BYTE   W16
 BYTE   W16
 BYTE   W04
 BYTE   N05  Ds3
 BYTE   W06
 BYTE   Fn3
 BYTE   W06
 BYTE   N23  Ds3
 BYTE   W16
 BYTE   W08
 BYTE   N11  Cs3
 BYTE   W08
 BYTE   W04
 BYTE   Cn3
 BYTE   W12
//  #09 //069   ----------------------------------------
 BYTE   Cs3
 BYTE   W08
 BYTE   W08
 BYTE   W02
 BYTE   N05  Gs3
 BYTE   W06
 BYTE   N92
 BYTE   W08
 BYTE   W08
 BYTE   W08
 BYTE   W08
 BYTE   W08
 BYTE   W08
 BYTE   W08
 BYTE   W08
 BYTE   W08
//  #09 //070   ----------------------------------------
 BYTE   W08
 BYTE   W08
 BYTE   W08
 BYTE   W08
 BYTE   W04
 BYTE   N23  Cn4
 BYTE   W04
 BYTE   W08
 BYTE   W08
 BYTE   W04
 BYTE   As3
 BYTE   W04
 BYTE   W08
 BYTE   W08
 BYTE   W04
 BYTE   N11  Gs3
 BYTE   W04
 BYTE   W08
//  #09 //071   ----------------------------------------
 BYTE   W48
 BYTE   FINE

//**************** Track 10 (Midi-Chn.9) ****************//

LiveALive_010:
//  #10 //000   ----------------------------------------
 BYTE   KEYSH   LiveALive_key+0
 BYTE   VOICE   124
 BYTE   VOL   46*LiveALive_mvl/mxv
 BYTE   PAN   c_v+0
 BYTE   N03  En1  v088
 BYTE   W12
 BYTE   N03
 BYTE   W24
 BYTE   N02
 BYTE   W03
 BYTE   N02
 BYTE   W04
 BYTE   N02
 BYTE   W05
 BYTE   N03
 BYTE   W12
 BYTE   N03
 BYTE   W24
 BYTE   N02  En1  v072
 BYTE   W03
 BYTE   N02
 BYTE   W04
 BYTE   N02
 BYTE   W05
//  #10 //001   ----------------------------------------
Label_01005C7C:
 BYTE   N03  En1  v088
 BYTE   W24
 BYTE   N02
 BYTE   W03
 BYTE   En1  v072
 BYTE   W09
 BYTE   En1  v088
 BYTE   W03
 BYTE   N02
 BYTE   W04
 BYTE   N02
 BYTE   W05
 BYTE   N03
 BYTE   W12
 BYTE   N03
 BYTE   W06
 BYTE   N03
 BYTE   W06
 BYTE   N02  En1  v072
 BYTE   W03
 BYTE   N02
 BYTE   W04
 BYTE   N02
 BYTE   W05
 BYTE   N03
 BYTE   W06
 BYTE   N03
 BYTE   W06
 BYTE   PEND 
//  #10 //002   ----------------------------------------
Label_01005C9F:
 BYTE   N03  En1  v088
 BYTE   W12
 BYTE   N03
 BYTE   W24
 BYTE   N02
 BYTE   W03
 BYTE   N02
 BYTE   W04
 BYTE   N02
 BYTE   W05
 BYTE   N03
 BYTE   W12
 BYTE   N03
 BYTE   W24
 BYTE   N02  En1  v072
 BYTE   W03
 BYTE   N02
 BYTE   W04
 BYTE   N02
 BYTE   W05
 BYTE   PEND 
//  #10 //003   ----------------------------------------
 BYTE   PATT
  POIN2 Label_01005C7C
//  #10 //004   ----------------------------------------
 BYTE   PATT
  POIN2 Label_01005C9F
//  #10 //005   ----------------------------------------
 BYTE   PATT
  POIN2 Label_01005C7C
//  #10 //006   ----------------------------------------
 BYTE   N03  En1  v088
 BYTE   W12
 BYTE   N03
 BYTE   W24
 BYTE   N02
 BYTE   W03
 BYTE   N02
 BYTE   W04
 BYTE   N02
 BYTE   W05
 BYTE   N02
 BYTE   W03
 BYTE   N02
 BYTE   W04
 BYTE   N02
 BYTE   W05
 BYTE   N03
 BYTE   W06
 BYTE   N03
 BYTE   W06
 BYTE   N03
 BYTE   W06
 BYTE   N03
 BYTE   W06
 BYTE   N03
 BYTE   W06
 BYTE   N03
 BYTE   W06
//  #10 //007   ----------------------------------------
 BYTE   W96
//  #10 //008   ----------------------------------------
 BYTE   Cn1  v120
 BYTE   N03  Cs1  v080
 BYTE   N03  En1  v088
 BYTE   W12
 BYTE   Cn1  v120
 BYTE   N03  Cs1  v080
 BYTE   N03  En1  v088
 BYTE   W06
 BYTE   N03
 BYTE   W06
 BYTE   N03
 BYTE   W12
 BYTE   Cn1  v120
 BYTE   N03  Cs1  v080
 BYTE   N03  En1  v088
 BYTE   W06
 BYTE   N03
 BYTE   W06
 BYTE   N03
 BYTE   W12
 BYTE   Cn1  v120
 BYTE   N03  Cs1  v080
 BYTE   N03  En1  v088
 BYTE   W06
 BYTE   N03
 BYTE   W06
 BYTE   N02  En1  v072
 BYTE   W03
 BYTE   N02
 BYTE   W04
 BYTE   N02
 BYTE   W05
 BYTE   N03  Cn1  v120
 BYTE   N03  Cs1  v080
 BYTE   N03  En1  v088
 BYTE   W06
 BYTE   N03
 BYTE   W06
//  #10 //009   ----------------------------------------
Label_01005D28:
 BYTE   N03  Cn1  v120
 BYTE   N03  Cs1  v080
 BYTE   N03  En1  v088
 BYTE   W06
 BYTE   Cn1  v120
 BYTE   N03  Cs1  v080
 BYTE   W06
 BYTE   Cn1  v120
 BYTE   N03  Cs1  v080
 BYTE   N03  En1  v088
 BYTE   W06
 BYTE   N03
 BYTE   W06
 BYTE   N03
 BYTE   W12
 BYTE   Cn1  v120
 BYTE   N03  Cs1  v080
 BYTE   N03  En1  v088
 BYTE   W06
 BYTE   N03
 BYTE   W06
 BYTE   N02  En1  v072
 BYTE   W03
 BYTE   N02
 BYTE   W04
 BYTE   N02
 BYTE   W05
 BYTE   N03  Cn1  v120
 BYTE   N03  Cs1  v080
 BYTE   N03  En1  v088
 BYTE   W06
 BYTE   N03
 BYTE   W06
 BYTE   N03
 BYTE   W12
 BYTE   Cn1  v120
 BYTE   N03  Cs1  v080
 BYTE   N03  En1  v088
 BYTE   W06
 BYTE   N03
 BYTE   W06
 BYTE   PEND 
//  #10 //010   ----------------------------------------
Label_01005D72:
 BYTE   N03  Cn1  v120
 BYTE   N03  Cs1  v080
 BYTE   N03  En1  v088
 BYTE   W04
 BYTE   N02  En1  v072
 BYTE   W08
 BYTE   N03  Cn1  v120
 BYTE   N03  Cs1  v080
 BYTE   N03  En1  v088
 BYTE   W06
 BYTE   N03
 BYTE   W06
 BYTE   N03
 BYTE   W12
 BYTE   Cn1  v120
 BYTE   N03  Cs1  v080
 BYTE   N03  En1  v088
 BYTE   W06
 BYTE   N03
 BYTE   W06
 BYTE   N03
 BYTE   W12
 BYTE   Cn1  v120
 BYTE   N03  Cs1  v080
 BYTE   N03  En1  v088
 BYTE   W06
 BYTE   N03
 BYTE   W06
 BYTE   N02  En1  v072
 BYTE   W03
 BYTE   N02
 BYTE   W04
 BYTE   N02
 BYTE   W05
 BYTE   N03  Cn1  v120
 BYTE   N03  Cs1  v080
 BYTE   N03  En1  v088
 BYTE   W06
 BYTE   N03
 BYTE   W06
 BYTE   PEND 
//  #10 //011   ----------------------------------------
 BYTE   PATT
  POIN2 Label_01005D28
//  #10 //012   ----------------------------------------
 BYTE   PATT
  POIN2 Label_01005D72
//  #10 //013   ----------------------------------------
 BYTE   PATT
  POIN2 Label_01005D28
//  #10 //014   ----------------------------------------
 BYTE   PATT
  POIN2 Label_01005D72
//  #10 //015   ----------------------------------------
 BYTE   PATT
  POIN2 Label_01005D28
//  #10 //016   ----------------------------------------
 BYTE   PATT
  POIN2 Label_01005D72
//  #10 //017   ----------------------------------------
 BYTE   PATT
  POIN2 Label_01005D28
//  #10 //018   ----------------------------------------
 BYTE   PATT
  POIN2 Label_01005D72
//  #10 //019   ----------------------------------------
 BYTE   PATT
  POIN2 Label_01005D28
//  #10 //020   ----------------------------------------
 BYTE   PATT
  POIN2 Label_01005D72
//  #10 //021   ----------------------------------------
 BYTE   PATT
  POIN2 Label_01005D28
//  #10 //022   ----------------------------------------
 BYTE   PATT
  POIN2 Label_01005D72
//  #10 //023   ----------------------------------------
 BYTE   PATT
  POIN2 Label_01005D28
//  #10 //024   ----------------------------------------
 BYTE   PATT
  POIN2 Label_01005D72
//  #10 //025   ----------------------------------------
 BYTE   PATT
  POIN2 Label_01005D28
//  #10 //026   ----------------------------------------
Label_01005E06:
 BYTE   N03  En1  v100
 BYTE   W12
 BYTE   N03
 BYTE   W24
 BYTE   N02  En1  v088
 BYTE   W03
 BYTE   N02
 BYTE   W04
 BYTE   N02
 BYTE   W05
 BYTE   N03  En1  v100
 BYTE   W12
 BYTE   N03
 BYTE   W24
 BYTE   N02  En1  v088
 BYTE   W03
 BYTE   N02
 BYTE   W04
 BYTE   N02
 BYTE   W05
 BYTE   PEND 
//  #10 //027   ----------------------------------------
Label_01005E23:
 BYTE   N03  En1  v100
 BYTE   W12
 BYTE   N03
 BYTE   W24
 BYTE   N02  En1  v088
 BYTE   W03
 BYTE   N02
 BYTE   W04
 BYTE   N02
 BYTE   W05
 BYTE   N03  En1  v100
 BYTE   W12
 BYTE   N03
 BYTE   W06
 BYTE   N03
 BYTE   W06
 BYTE   N02  En1  v088
 BYTE   W03
 BYTE   N02
 BYTE   W04
 BYTE   N02
 BYTE   W05
 BYTE   N03  En1  v100
 BYTE   W06
 BYTE   N03
 BYTE   W06
 BYTE   PEND 
//  #10 //028   ----------------------------------------
 BYTE   PATT
  POIN2 Label_01005D72
//  #10 //029   ----------------------------------------
Label_01005E4D:
 BYTE   N03  Cn1  v120
 BYTE   N03  Cs1  v080
 BYTE   N03  En1  v088
 BYTE   W06
 BYTE   Cn1  v120
 BYTE   N03  Cs1  v080
 BYTE   W06
 BYTE   Cn1  v120
 BYTE   N03  Cs1  v080
 BYTE   N03  En1  v088
 BYTE   W06
 BYTE   N03
 BYTE   W06
 BYTE   N03
 BYTE   W12
 BYTE   Cn1  v120
 BYTE   N03  Cs1  v080
 BYTE   N03  En1  v088
 BYTE   W06
 BYTE   N03
 BYTE   W06
 BYTE   Cn1  v120
 BYTE   N03  Cs1  v080
 BYTE   N02  En1  v072
 BYTE   W03
 BYTE   N02
 BYTE   W04
 BYTE   N02
 BYTE   W05
 BYTE   N03  En1  v088
 BYTE   W06
 BYTE   N03
 BYTE   W06
 BYTE   Cn1  v120
 BYTE   N03  Cs1  v080
 BYTE   N03  En1  v088
 BYTE   W12
 BYTE   N03
 BYTE   W06
 BYTE   N03
 BYTE   W06
 BYTE   PEND 
//  #10 //030   ----------------------------------------
 BYTE   PATT
  POIN2 Label_01005E06
//  #10 //031   ----------------------------------------
 BYTE   PATT
  POIN2 Label_01005E23
//  #10 //032   ----------------------------------------
 BYTE   PATT
  POIN2 Label_01005D72
//  #10 //033   ----------------------------------------
 BYTE   PATT
  POIN2 Label_01005E4D
//  #10 //034   ----------------------------------------
 BYTE   PATT
  POIN2 Label_01005D72
//  #10 //035   ----------------------------------------
 BYTE   PATT
  POIN2 Label_01005E4D
//  #10 //036   ----------------------------------------
Label_01005EB4:
 BYTE   N03  En1  v088
 BYTE   W04
 BYTE   N02  En1  v072
 BYTE   W92
 BYTE   PEND 
//  #10 //037   ----------------------------------------
Label_01005EBD:
 BYTE   N03  En1  v088
 BYTE   W12
 BYTE   N03
 BYTE   W06
 BYTE   N03
 BYTE   W06
 BYTE   N03
 BYTE   W12
 BYTE   N03
 BYTE   W06
 BYTE   N03
 BYTE   W06
 BYTE   N02  En1  v072
 BYTE   W03
 BYTE   N02
 BYTE   W04
 BYTE   N02
 BYTE   W05
 BYTE   N03  En1  v088
 BYTE   W06
 BYTE   N03
 BYTE   W06
 BYTE   N03
 BYTE   W12
 BYTE   N03
 BYTE   W06
 BYTE   N03
 BYTE   W06
 BYTE   PEND 
//  #10 //038   ----------------------------------------
 BYTE   PATT
  POIN2 Label_01005D72
//  #10 //039   ----------------------------------------
 BYTE   PATT
  POIN2 Label_01005D28
//  #10 //040   ----------------------------------------
 BYTE   PATT
  POIN2 Label_01005D72
//  #10 //041   ----------------------------------------
 BYTE   PATT
  POIN2 Label_01005D28
//  #10 //042   ----------------------------------------
 BYTE   PATT
  POIN2 Label_01005D72
//  #10 //043   ----------------------------------------
 BYTE   PATT
  POIN2 Label_01005D28
//  #10 //044   ----------------------------------------
 BYTE   PATT
  POIN2 Label_01005D72
//  #10 //045   ----------------------------------------
 BYTE   PATT
  POIN2 Label_01005D28
//  #10 //046   ----------------------------------------
 BYTE   PATT
  POIN2 Label_01005D72
//  #10 //047   ----------------------------------------
 BYTE   PATT
  POIN2 Label_01005D28
//  #10 //048   ----------------------------------------
 BYTE   PATT
  POIN2 Label_01005D72
//  #10 //049   ----------------------------------------
 BYTE   PATT
  POIN2 Label_01005D28
//  #10 //050   ----------------------------------------
 BYTE   PATT
  POIN2 Label_01005D72
//  #10 //051   ----------------------------------------
 BYTE   PATT
  POIN2 Label_01005D28
//  #10 //052   ----------------------------------------
 BYTE   PATT
  POIN2 Label_01005D72
//  #10 //053   ----------------------------------------
 BYTE   PATT
  POIN2 Label_01005D28
//  #10 //054   ----------------------------------------
 BYTE   PATT
  POIN2 Label_01005E06
//  #10 //055   ----------------------------------------
 BYTE   PATT
  POIN2 Label_01005E23
//  #10 //056   ----------------------------------------
 BYTE   PATT
  POIN2 Label_01005D72
//  #10 //057   ----------------------------------------
 BYTE   PATT
  POIN2 Label_01005E4D
//  #10 //058   ----------------------------------------
 BYTE   PATT
  POIN2 Label_01005E06
//  #10 //059   ----------------------------------------
 BYTE   PATT
  POIN2 Label_01005E23
//  #10 //060   ----------------------------------------
 BYTE   PATT
  POIN2 Label_01005D72
//  #10 //061   ----------------------------------------
 BYTE   PATT
  POIN2 Label_01005E4D
//  #10 //062   ----------------------------------------
 BYTE   PATT
  POIN2 Label_01005D72
//  #10 //063   ----------------------------------------
 BYTE   PATT
  POIN2 Label_01005E4D
//  #10 //064   ----------------------------------------
 BYTE   PATT
  POIN2 Label_01005EB4
//  #10 //065   ----------------------------------------
 BYTE   GoTo
  POIN2 Label_01005EBD
//  #10 //066   ----------------------------------------
 BYTE   PATT
  POIN2 Label_01005EBD
//  #10 //067   ----------------------------------------
 BYTE   N03  Cn1  v120
 BYTE   N03  Cs1  v080
 BYTE   N03  En1  v088
 BYTE   W04
 BYTE   N02  En1  v072
 BYTE   W08
 BYTE   N03  Cn1  v120
 BYTE   N03  Cs1  v080
 BYTE   N03  En1  v088
 BYTE   W04
 BYTE   W02
 BYTE   N03
 BYTE   W06
 BYTE   N03
 BYTE   W08
 BYTE   W04
 BYTE   Cn1  v120
 BYTE   N03  Cs1  v080
 BYTE   N03  En1  v088
 BYTE   W06
 BYTE   N03
 BYTE   W06
 BYTE   N03
 BYTE   W12
 BYTE   Cn1  v120
 BYTE   N03  Cs1  v080
 BYTE   N03  En1  v088
 BYTE   W04
 BYTE   W02
 BYTE   N03
 BYTE   W06
 BYTE   N02  En1  v072
 BYTE   W03
 BYTE   N02
 BYTE   W04
 BYTE   N02
 BYTE   W01
 BYTE   W04
 BYTE   N03  Cn1  v120
 BYTE   N03  Cs1  v080
 BYTE   N03  En1  v088
 BYTE   W06
 BYTE   N03
 BYTE   W06
//  #10 //068   ----------------------------------------
 BYTE   Cn1  v120
 BYTE   N03  Cs1  v080
 BYTE   N03  En1  v088
 BYTE   W06
 BYTE   Cn1  v120
 BYTE   N03  Cs1  v080
 BYTE   W06
 BYTE   Cn1  v120
 BYTE   N03  Cs1  v080
 BYTE   N03  En1  v088
 BYTE   W04
 BYTE   W02
 BYTE   N03
 BYTE   W06
 BYTE   N03
 BYTE   W08
 BYTE   W04
 BYTE   Cn1  v120
 BYTE   N03  Cs1  v080
 BYTE   N03  En1  v088
 BYTE   W06
 BYTE   N03
 BYTE   W06
 BYTE   N02  En1  v072
 BYTE   W03
 BYTE   N02
 BYTE   W04
 BYTE   N02
 BYTE   W05
 BYTE   N03  Cn1  v120
 BYTE   N03  Cs1  v080
 BYTE   N03  En1  v088
 BYTE   W04
 BYTE   W02
 BYTE   N03
 BYTE   W06
 BYTE   N03
 BYTE   W08
 BYTE   W04
 BYTE   Cn1  v120
 BYTE   N03  Cs1  v080
 BYTE   N03  En1  v088
 BYTE   W06
 BYTE   N03
 BYTE   W06
//  #10 //069   ----------------------------------------
 BYTE   Cn1  v120
 BYTE   N03  Cs1  v080
 BYTE   N03  En1  v088
 BYTE   W04
 BYTE   N02  En1  v072
 BYTE   W04
 BYTE   W04
 BYTE   N03  Cn1  v120
 BYTE   N03  Cs1  v080
 BYTE   N03  En1  v088
 BYTE   W04
 BYTE   W02
 BYTE   N03
 BYTE   W06
 BYTE   N03
 BYTE   W08
 BYTE   W04
 BYTE   Cn1  v120
 BYTE   N03  Cs1  v080
 BYTE   N03  En1  v088
 BYTE   W04
 BYTE   W02
 BYTE   N03
 BYTE   W06
 BYTE   N03
 BYTE   W08
 BYTE   W04
 BYTE   Cn1  v120
 BYTE   N03  Cs1  v080
 BYTE   N03  En1  v088
 BYTE   W04
 BYTE   W02
 BYTE   N03
 BYTE   W06
 BYTE   N02  En1  v072
 BYTE   W03
 BYTE   N02
 BYTE   W04
 BYTE   N02
 BYTE   W01
 BYTE   W04
 BYTE   N03  Cn1  v120
 BYTE   N03  Cs1  v080
 BYTE   N03  En1  v088
 BYTE   W04
 BYTE   W02
 BYTE   N03
 BYTE   W06
//  #10 //070   ----------------------------------------
 BYTE   Cn1  v120
 BYTE   N03  Cs1  v080
 BYTE   N03  En1  v088
 BYTE   W06
 BYTE   Cn1  v120
 BYTE   N03  Cs1  v080
 BYTE   W02
 BYTE   W04
 BYTE   Cn1  v120
 BYTE   N03  Cs1  v080
 BYTE   N03  En1  v088
 BYTE   W04
 BYTE   W02
 BYTE   N03
 BYTE   W06
 BYTE   N03
 BYTE   W08
 BYTE   W04
 BYTE   Cn1  v120
 BYTE   N03  Cs1  v080
 BYTE   N03  En1  v088
 BYTE   W04
 BYTE   W02
 BYTE   N03
 BYTE   W06
 BYTE   N02  En1  v072
 BYTE   W03
 BYTE   N02
 BYTE   W04
 BYTE   N02
 BYTE   W01
 BYTE   W04
 BYTE   N03  Cn1  v120
 BYTE   N03  Cs1  v080
 BYTE   N03  En1  v088
 BYTE   W04
 BYTE   W02
 BYTE   N03
 BYTE   W06
 BYTE   N03
 BYTE   W08
 BYTE   W04
 BYTE   Cn1  v120
 BYTE   N03  Cs1  v080
 BYTE   N03  En1  v088
 BYTE   W04
 BYTE   W02
 BYTE   N03
 BYTE   W06
//  #10 //071   ----------------------------------------
 BYTE   W48
 BYTE   FINE

//**************** Track 11 (Midi-Chn.10) ****************//

LiveALive_011:
//  #11 //000   ----------------------------------------
 BYTE   KEYSH   LiveALive_key+0
 BYTE   VOICE   1
 BYTE   VOL   23*LiveALive_mvl/mxv
 BYTE   PAN   c_v+0
 BYTE   W96
//  #11 //001   ----------------------------------------
 BYTE   W96
//  #11 //002   ----------------------------------------
 BYTE   W96
//  #11 //003   ----------------------------------------
 BYTE   W96
//  #11 //004   ----------------------------------------
 BYTE   W96
//  #11 //005   ----------------------------------------
 BYTE   W96
//  #11 //006   ----------------------------------------
 BYTE   W68
 BYTE   W03
 BYTE   W01
 BYTE   N01  An2  v052
 BYTE   W03
 BYTE   An2  v060
 BYTE   W04
 BYTE   An2  v068
 BYTE   W05
 BYTE   An2  v076
 BYTE   W03
 BYTE   An2  v084
 BYTE   W04
 BYTE   An2  v092
 BYTE   W05
//  #11 //007   ----------------------------------------
 BYTE   N02  An2  v100
 BYTE   W32
 BYTE   W03
 BYTE   W01
 BYTE   N02
 BYTE   W32
 BYTE   W03
 BYTE   W01
 BYTE   N02
 BYTE   W23
 BYTE   W01
//  #11 //008   ----------------------------------------
 BYTE   N02
 BYTE   W96
//  #11 //009   ----------------------------------------
 BYTE   W96
//  #11 //010   ----------------------------------------
 BYTE   W96
//  #11 //011   ----------------------------------------
 BYTE   W96
//  #11 //012   ----------------------------------------
 BYTE   W96
//  #11 //013   ----------------------------------------
 BYTE   W96
//  #11 //014   ----------------------------------------
 BYTE   W96
//  #11 //015   ----------------------------------------
 BYTE   W96
//  #11 //016   ----------------------------------------
 BYTE   W96
//  #11 //017   ----------------------------------------
 BYTE   W96
//  #11 //018   ----------------------------------------
 BYTE   W96
//  #11 //019   ----------------------------------------
 BYTE   W96
//  #11 //020   ----------------------------------------
 BYTE   W96
//  #11 //021   ----------------------------------------
 BYTE   W96
//  #11 //022   ----------------------------------------
 BYTE   W96
//  #11 //023   ----------------------------------------
 BYTE   W96
//  #11 //024   ----------------------------------------
 BYTE   W96
//  #11 //025   ----------------------------------------
 BYTE   W96
//  #11 //026   ----------------------------------------
 BYTE   W96
//  #11 //027   ----------------------------------------
 BYTE   W96
//  #11 //028   ----------------------------------------
 BYTE   W96
//  #11 //029   ----------------------------------------
 BYTE   W96
//  #11 //030   ----------------------------------------
 BYTE   W96
//  #11 //031   ----------------------------------------
 BYTE   W96
//  #11 //032   ----------------------------------------
 BYTE   W96
//  #11 //033   ----------------------------------------
 BYTE   W96
//  #11 //034   ----------------------------------------
 BYTE   W96
//  #11 //035   ----------------------------------------
 BYTE   W96
//  #11 //036   ----------------------------------------
 BYTE   W96
//  #11 //037   ----------------------------------------
Label_0100610B:
 BYTE   W96
//  #11 //038   ----------------------------------------
 BYTE   W96
//  #11 //039   ----------------------------------------
 BYTE   W96
//  #11 //040   ----------------------------------------
 BYTE   W96
//  #11 //041   ----------------------------------------
 BYTE   W96
//  #11 //042   ----------------------------------------
 BYTE   W96
//  #11 //043   ----------------------------------------
 BYTE   W96
//  #11 //044   ----------------------------------------
 BYTE   W96
//  #11 //045   ----------------------------------------
 BYTE   W96
//  #11 //046   ----------------------------------------
 BYTE   W96
//  #11 //047   ----------------------------------------
 BYTE   W96
//  #11 //048   ----------------------------------------
 BYTE   W96
//  #11 //049   ----------------------------------------
 BYTE   W96
//  #11 //050   ----------------------------------------
 BYTE   W96
//  #11 //051   ----------------------------------------
 BYTE   W96
//  #11 //052   ----------------------------------------
 BYTE   W96
//  #11 //053   ----------------------------------------
 BYTE   W96
//  #11 //054   ----------------------------------------
 BYTE   W96
//  #11 //055   ----------------------------------------
 BYTE   W96
//  #11 //056   ----------------------------------------
 BYTE   W96
//  #11 //057   ----------------------------------------
 BYTE   W96
//  #11 //058   ----------------------------------------
 BYTE   W96
//  #11 //059   ----------------------------------------
 BYTE   W96
//  #11 //060   ----------------------------------------
 BYTE   W96
//  #11 //061   ----------------------------------------
 BYTE   W96
//  #11 //062   ----------------------------------------
 BYTE   W96
//  #11 //063   ----------------------------------------
 BYTE   W96
//  #11 //064   ----------------------------------------
 BYTE   W96
//  #11 //065   ----------------------------------------
 BYTE   GoTo
  POIN2 Label_0100610B
//  #11 //066   ----------------------------------------
 BYTE   W96
//  #11 //067   ----------------------------------------
 BYTE   W96
//  #11 //068   ----------------------------------------
 BYTE   W96
//  #11 //069   ----------------------------------------
 BYTE   W96
//  #11 //070   ----------------------------------------
 BYTE   W96
//  #11 //071   ----------------------------------------
 BYTE   W48
 BYTE   FINE

//**************** Track 12 (Midi-Chn.11) ****************//

LiveALive_012:
//  #12 //000   ----------------------------------------
 BYTE   KEYSH   LiveALive_key+0
 BYTE   VOICE   47
 BYTE   VOL   27*LiveALive_mvl/mxv
 BYTE   PAN   c_v+0
 BYTE   N02  Fs1  v100
 BYTE   W36
 BYTE   N02
 BYTE   W06
 BYTE   N02
 BYTE   W06
 BYTE   N02
 BYTE   W12
 BYTE   N02
 BYTE   W36
//  #12 //001   ----------------------------------------
Label_01006158:
 BYTE   N02  Fs1  v100
 BYTE   W24
 BYTE   Cs1
 BYTE   W12
 BYTE   Fs1
 BYTE   W24
 BYTE   Cs1
 BYTE   W12
 BYTE   Fs1
 BYTE   W12
 BYTE   Cs1
 BYTE   W12
 BYTE   PEND 
//  #12 //002   ----------------------------------------
 BYTE   Fs1
 BYTE   W36
 BYTE   N02
 BYTE   W06
 BYTE   N02
 BYTE   W06
 BYTE   N02
 BYTE   W12
 BYTE   N02
 BYTE   W36
//  #12 //003   ----------------------------------------
 BYTE   PATT
  POIN2 Label_01006158
//  #12 //004   ----------------------------------------
 BYTE   N02  Gs1  v100
 BYTE   W36
 BYTE   N02
 BYTE   W06
 BYTE   N02
 BYTE   W06
 BYTE   N02
 BYTE   W12
 BYTE   N02
 BYTE   W36
//  #12 //005   ----------------------------------------
 BYTE   N02
 BYTE   W24
 BYTE   Ds1
 BYTE   W12
 BYTE   Gs1
 BYTE   W24
 BYTE   Ds1
 BYTE   W12
 BYTE   Gs1
 BYTE   W12
 BYTE   Ds1
 BYTE   W12
//  #12 //006   ----------------------------------------
 BYTE   Gs1
 BYTE   W36
 BYTE   N02
 BYTE   W06
 BYTE   N02
 BYTE   W06
 BYTE   N02
 BYTE   W12
 BYTE   N02
 BYTE   W24
 BYTE   N02
 BYTE   W06
 BYTE   N02
 BYTE   W06
//  #12 //007   ----------------------------------------
 BYTE   As1
 BYTE   W24
 BYTE   N02
 BYTE   W12
 BYTE   Gs1
 BYTE   W24
 BYTE   Ds2
 BYTE   W12
 BYTE   Gs1
 BYTE   W06
 BYTE   N02
 BYTE   W06
 BYTE   N02
 BYTE   W12
//  #12 //008   ----------------------------------------
 BYTE   As1
 BYTE   W12
 BYTE   Fn1
 BYTE   W24
 BYTE   As1
 BYTE   W24
 BYTE   Fn1
 BYTE   W06
 BYTE   N02
 BYTE   W06
 BYTE   As1
 BYTE   W12
 BYTE   Fn1
 BYTE   W12
//  #12 //009   ----------------------------------------
 BYTE   As1
 BYTE   W06
 BYTE   N02
 BYTE   W06
 BYTE   N02
 BYTE   W12
 BYTE   Fn1
 BYTE   W12
 BYTE   As1
 BYTE   W12
 BYTE   Fn1
 BYTE   W06
 BYTE   N02
 BYTE   W06
 BYTE   N02
 BYTE   W06
 BYTE   N02
 BYTE   W06
 BYTE   N02
 BYTE   W06
 BYTE   N02
 BYTE   W06
 BYTE   N02
 BYTE   W06
 BYTE   N02
 BYTE   W06
//  #12 //010   ----------------------------------------
 BYTE   W96
//  #12 //011   ----------------------------------------
 BYTE   W96
//  #12 //012   ----------------------------------------
 BYTE   W96
//  #12 //013   ----------------------------------------
 BYTE   W96
//  #12 //014   ----------------------------------------
 BYTE   W96
//  #12 //015   ----------------------------------------
 BYTE   W96
//  #12 //016   ----------------------------------------
 BYTE   W96
//  #12 //017   ----------------------------------------
 BYTE   W96
//  #12 //018   ----------------------------------------
 BYTE   W96
//  #12 //019   ----------------------------------------
 BYTE   W96
//  #12 //020   ----------------------------------------
 BYTE   W96
//  #12 //021   ----------------------------------------
 BYTE   W96
//  #12 //022   ----------------------------------------
 BYTE   W96
//  #12 //023   ----------------------------------------
 BYTE   W96
//  #12 //024   ----------------------------------------
 BYTE   W96
//  #12 //025   ----------------------------------------
Label_010061E1:
 BYTE   W48
 BYTE   N02  Gs1  v100
 BYTE   W06
 BYTE   N02
 BYTE   W06
 BYTE   N02
 BYTE   W06
 BYTE   N02
 BYTE   W06
 BYTE   N02
 BYTE   W04
 BYTE   N02
 BYTE   W04
 BYTE   N02
 BYTE   W04
 BYTE   N02
 BYTE   W04
 BYTE   N02
 BYTE   W04
 BYTE   N02
 BYTE   W04
 BYTE   PEND 
//  #12 //026   ----------------------------------------
Label_010061F9:
 BYTE   N02  As1  v100
 BYTE   W36
 BYTE   Fn1
 BYTE   W06
 BYTE   N02
 BYTE   W06
 BYTE   N02
 BYTE   W12
 BYTE   As1
 BYTE   W24
 BYTE   Fn1
 BYTE   W06
 BYTE   N02
 BYTE   W06
 BYTE   PEND 
//  #12 //027   ----------------------------------------
Label_0100620A:
 BYTE   N02  As1  v100
 BYTE   W12
 BYTE   N02
 BYTE   W24
 BYTE   Fn1
 BYTE   W06
 BYTE   N02
 BYTE   W06
 BYTE   As1
 BYTE   W12
 BYTE   Fn1
 BYTE   W12
 BYTE   As1
 BYTE   W12
 BYTE   Fn1
 BYTE   W12
 BYTE   PEND 
//  #12 //028   ----------------------------------------
Label_0100621D:
 BYTE   N02  Ds1  v100
 BYTE   W12
 BYTE   N02
 BYTE   W06
 BYTE   N02
 BYTE   W06
 BYTE   As1
 BYTE   W36
 BYTE   Ds1
 BYTE   W06
 BYTE   N02
 BYTE   W06
 BYTE   As1
 BYTE   W12
 BYTE   Ds1
 BYTE   W12
 BYTE   PEND 
//  #12 //029   ----------------------------------------
Label_01006230:
 BYTE   N02  Ds1  v100
 BYTE   W24
 BYTE   N02
 BYTE   W12
 BYTE   As1
 BYTE   W24
 BYTE   Ds1
 BYTE   W06
 BYTE   N02
 BYTE   W06
 BYTE   N02
 BYTE   W04
 BYTE   N02
 BYTE   W04
 BYTE   N02
 BYTE   W04
 BYTE   N02
 BYTE   W04
 BYTE   N02
 BYTE   W04
 BYTE   N02
 BYTE   W04
 BYTE   PEND 
//  #12 //030   ----------------------------------------
 BYTE   PATT
  POIN2 Label_010061F9
//  #12 //031   ----------------------------------------
 BYTE   PATT
  POIN2 Label_0100620A
//  #12 //032   ----------------------------------------
Label_01006253:
 BYTE   N02  Cs1  v100
 BYTE   W12
 BYTE   N02
 BYTE   W06
 BYTE   N02
 BYTE   W06
 BYTE   Fs1
 BYTE   W36
 BYTE   Cs1
 BYTE   W06
 BYTE   N02
 BYTE   W06
 BYTE   Fs1
 BYTE   W12
 BYTE   Cs1
 BYTE   W12
 BYTE   PEND 
//  #12 //033   ----------------------------------------
Label_01006266:
 BYTE   N02  Cs1  v100
 BYTE   W24
 BYTE   N02
 BYTE   W12
 BYTE   Fs1
 BYTE   W24
 BYTE   Cs1
 BYTE   W12
 BYTE   Fs1
 BYTE   W12
 BYTE   Cs1
 BYTE   W12
 BYTE   PEND 
//  #12 //034   ----------------------------------------
Label_01006275:
 BYTE   N02  Ds1  v100
 BYTE   W12
 BYTE   N02
 BYTE   W06
 BYTE   N02
 BYTE   W06
 BYTE   Gs1
 BYTE   W36
 BYTE   Ds1
 BYTE   W06
 BYTE   N02
 BYTE   W06
 BYTE   Gs1
 BYTE   W12
 BYTE   Ds1
 BYTE   W12
 BYTE   PEND 
//  #12 //035   ----------------------------------------
Label_01006288:
 BYTE   N02  Ds1  v100
 BYTE   W24
 BYTE   N02
 BYTE   W12
 BYTE   Gs1
 BYTE   W24
 BYTE   Ds1
 BYTE   W12
 BYTE   Gs1
 BYTE   W12
 BYTE   Ds1
 BYTE   W12
 BYTE   PEND 
//  #12 //036   ----------------------------------------
 BYTE   W96
//  #12 //037   ----------------------------------------
Label_01006298:
 BYTE   W96
//  #12 //038   ----------------------------------------
 BYTE   W96
//  #12 //039   ----------------------------------------
 BYTE   W96
//  #12 //040   ----------------------------------------
 BYTE   W96
//  #12 //041   ----------------------------------------
 BYTE   W96
//  #12 //042   ----------------------------------------
 BYTE   W96
//  #12 //043   ----------------------------------------
 BYTE   W96
//  #12 //044   ----------------------------------------
 BYTE   W96
//  #12 //045   ----------------------------------------
 BYTE   W96
//  #12 //046   ----------------------------------------
 BYTE   W96
//  #12 //047   ----------------------------------------
 BYTE   W96
//  #12 //048   ----------------------------------------
 BYTE   W96
//  #12 //049   ----------------------------------------
 BYTE   W96
//  #12 //050   ----------------------------------------
 BYTE   W96
//  #12 //051   ----------------------------------------
 BYTE   W96
//  #12 //052   ----------------------------------------
 BYTE   W96
//  #12 //053   ----------------------------------------
 BYTE   PATT
  POIN2 Label_010061E1
//  #12 //054   ----------------------------------------
 BYTE   PATT
  POIN2 Label_010061F9
//  #12 //055   ----------------------------------------
 BYTE   PATT
  POIN2 Label_0100620A
//  #12 //056   ----------------------------------------
 BYTE   PATT
  POIN2 Label_0100621D
//  #12 //057   ----------------------------------------
 BYTE   PATT
  POIN2 Label_01006230
//  #12 //058   ----------------------------------------
 BYTE   PATT
  POIN2 Label_010061F9
//  #12 //059   ----------------------------------------
 BYTE   PATT
  POIN2 Label_0100620A
//  #12 //060   ----------------------------------------
 BYTE   PATT
  POIN2 Label_01006253
//  #12 //061   ----------------------------------------
 BYTE   PATT
  POIN2 Label_01006266
//  #12 //062   ----------------------------------------
 BYTE   PATT
  POIN2 Label_01006275
//  #12 //063   ----------------------------------------
 BYTE   PATT
  POIN2 Label_01006288
//  #12 //064   ----------------------------------------
 BYTE   W96
//  #12 //065   ----------------------------------------
 BYTE   GoTo
  POIN2 Label_01006298
//  #12 //066   ----------------------------------------
 BYTE   W96
//  #12 //067   ----------------------------------------
 BYTE   W96
//  #12 //068   ----------------------------------------
 BYTE   W96
//  #12 //069   ----------------------------------------
 BYTE   W96
//  #12 //070   ----------------------------------------
 BYTE   W96
//  #12 //071   ----------------------------------------
 BYTE   W48
 BYTE   FINE

//**************** Track 13 (Midi-Chn.12) ****************//

LiveALive_013:
//  #13 //000   ----------------------------------------
 BYTE   KEYSH   LiveALive_key+0
 BYTE   VOICE   14
 BYTE   VOL   30*LiveALive_mvl/mxv
 BYTE   PAN   c_v+0
 BYTE   N24  As2  v127
 BYTE   W24
 BYTE   Fs3
 BYTE   W24
 BYTE   Cn3
 BYTE   W24
 BYTE   Cs3
 BYTE   W24
//  #13 //001   ----------------------------------------
Label_0100630E:
 BYTE   N24  As2  v127
 BYTE   W24
 BYTE   N72  Fs3
 BYTE   W72
 BYTE   PEND 
//  #13 //002   ----------------------------------------
 BYTE   N24  As2
 BYTE   W24
 BYTE   Fs3
 BYTE   W24
 BYTE   Cn3
 BYTE   W24
 BYTE   Cs3
 BYTE   W24
//  #13 //003   ----------------------------------------
 BYTE   PATT
  POIN2 Label_0100630E
//  #13 //004   ----------------------------------------
Label_01006324:
 BYTE   N24  Cn3  v127
 BYTE   W24
 BYTE   Gs3
 BYTE   W24
 BYTE   Cs3
 BYTE   W24
 BYTE   Ds3
 BYTE   W24
 BYTE   PEND 
//  #13 //005   ----------------------------------------
 BYTE   Cn3
 BYTE   W24
 BYTE   N72  Gs3
 BYTE   W72
//  #13 //006   ----------------------------------------
 BYTE   PATT
  POIN2 Label_01006324
//  #13 //007   ----------------------------------------
 BYTE   W96
//  #13 //008   ----------------------------------------
 BYTE   W96
//  #13 //009   ----------------------------------------
 BYTE   W96
//  #13 //010   ----------------------------------------
 BYTE   W96
//  #13 //011   ----------------------------------------
 BYTE   W96
//  #13 //012   ----------------------------------------
 BYTE   W96
//  #13 //013   ----------------------------------------
 BYTE   W96
//  #13 //014   ----------------------------------------
 BYTE   W96
//  #13 //015   ----------------------------------------
 BYTE   W96
//  #13 //016   ----------------------------------------
 BYTE   W96
//  #13 //017   ----------------------------------------
 BYTE   W96
//  #13 //018   ----------------------------------------
 BYTE   W96
//  #13 //019   ----------------------------------------
 BYTE   W96
//  #13 //020   ----------------------------------------
 BYTE   W96
//  #13 //021   ----------------------------------------
 BYTE   W96
//  #13 //022   ----------------------------------------
 BYTE   W96
//  #13 //023   ----------------------------------------
 BYTE   W96
//  #13 //024   ----------------------------------------
 BYTE   W96
//  #13 //025   ----------------------------------------
 BYTE   W96
//  #13 //026   ----------------------------------------
 BYTE   W96
//  #13 //027   ----------------------------------------
 BYTE   W96
//  #13 //028   ----------------------------------------
 BYTE   W96
//  #13 //029   ----------------------------------------
 BYTE   W96
//  #13 //030   ----------------------------------------
 BYTE   W96
//  #13 //031   ----------------------------------------
 BYTE   W96
//  #13 //032   ----------------------------------------
 BYTE   W96
//  #13 //033   ----------------------------------------
 BYTE   W96
//  #13 //034   ----------------------------------------
 BYTE   W96
//  #13 //035   ----------------------------------------
 BYTE   W96
//  #13 //036   ----------------------------------------
Label_01006356:
 BYTE   W24
 BYTE   N24  Fn3  v127
 BYTE   W24
 BYTE   Cn3
 BYTE   W24
 BYTE   Dn3
 BYTE   W24
 BYTE   PEND 
//  #13 //037   ----------------------------------------
Label_01006360:
 BYTE   N24  As2  v127
 BYTE   W24
 BYTE   Fn3
 BYTE   W24
 BYTE   Cn3
 BYTE   W24
 BYTE   Dn3
 BYTE   W24
 BYTE   PEND 
//  #13 //038   ----------------------------------------
 BYTE   W96
//  #13 //039   ----------------------------------------
 BYTE   W96
//  #13 //040   ----------------------------------------
 BYTE   W96
//  #13 //041   ----------------------------------------
 BYTE   W96
//  #13 //042   ----------------------------------------
 BYTE   W96
//  #13 //043   ----------------------------------------
 BYTE   W96
//  #13 //044   ----------------------------------------
 BYTE   W96
//  #13 //045   ----------------------------------------
 BYTE   W96
//  #13 //046   ----------------------------------------
 BYTE   W96
//  #13 //047   ----------------------------------------
 BYTE   W96
//  #13 //048   ----------------------------------------
 BYTE   W96
//  #13 //049   ----------------------------------------
 BYTE   W96
//  #13 //050   ----------------------------------------
 BYTE   W96
//  #13 //051   ----------------------------------------
 BYTE   W96
//  #13 //052   ----------------------------------------
 BYTE   W96
//  #13 //053   ----------------------------------------
 BYTE   W96
//  #13 //054   ----------------------------------------
 BYTE   W96
//  #13 //055   ----------------------------------------
 BYTE   W96
//  #13 //056   ----------------------------------------
 BYTE   W96
//  #13 //057   ----------------------------------------
 BYTE   W96
//  #13 //058   ----------------------------------------
 BYTE   W96
//  #13 //059   ----------------------------------------
 BYTE   W96
//  #13 //060   ----------------------------------------
 BYTE   W96
//  #13 //061   ----------------------------------------
 BYTE   W96
//  #13 //062   ----------------------------------------
 BYTE   W96
//  #13 //063   ----------------------------------------
 BYTE   W96
//  #13 //064   ----------------------------------------
 BYTE   PATT
  POIN2 Label_01006356
//  #13 //065   ----------------------------------------
 BYTE   GoTo
  POIN2 Label_01006360
//  #13 //066   ----------------------------------------
 BYTE   PATT
  POIN2 Label_01006360
//  #13 //067   ----------------------------------------
 BYTE   W96
//  #13 //068   ----------------------------------------
 BYTE   W96
//  #13 //069   ----------------------------------------
 BYTE   W96
//  #13 //070   ----------------------------------------
 BYTE   W96
//  #13 //071   ----------------------------------------
 BYTE   W48
 BYTE   FINE

//**************** Track 14 (Midi-Chn.13) ****************//

LiveALive_014:
//  #14 //000   ----------------------------------------
 BYTE   KEYSH   LiveALive_key+0
 BYTE   VOICE   38
 BYTE   VOL   30*LiveALive_mvl/mxv
 BYTE   PAN   c_v+0
 BYTE   N32  Fs0  v127
 BYTE   W36
 BYTE   N05
 BYTE   W06
 BYTE   N05
 BYTE   W06
 BYTE   N11
 BYTE   W12
 BYTE   N32
 BYTE   W36
//  #14 //001   ----------------------------------------
Label_010063C0:
 BYTE   N23  Fs0  v127
 BYTE   W24
 BYTE   N11
 BYTE   W12
 BYTE   N23
 BYTE   W24
 BYTE   N11
 BYTE   W12
 BYTE   N11
 BYTE   W12
 BYTE   N11
 BYTE   W12
 BYTE   PEND 
//  #14 //002   ----------------------------------------
 BYTE   N32
 BYTE   W36
 BYTE   N05
 BYTE   W06
 BYTE   N05
 BYTE   W06
 BYTE   N11
 BYTE   W12
 BYTE   N32
 BYTE   W36
//  #14 //003   ----------------------------------------
 BYTE   PATT
  POIN2 Label_010063C0
//  #14 //004   ----------------------------------------
Label_010063DE:
 BYTE   N32  Gs0  v127
 BYTE   W36
 BYTE   N05
 BYTE   W06
 BYTE   N05
 BYTE   W06
 BYTE   N11
 BYTE   W12
 BYTE   N32
 BYTE   W36
 BYTE   PEND 
//  #14 //005   ----------------------------------------
 BYTE   N23
 BYTE   W24
 BYTE   N11
 BYTE   W12
 BYTE   N23
 BYTE   W24
 BYTE   N11
 BYTE   W12
 BYTE   N11
 BYTE   W12
 BYTE   N11
 BYTE   W12
//  #14 //006   ----------------------------------------
 BYTE   PATT
  POIN2 Label_010063DE
//  #14 //007   ----------------------------------------
 BYTE   N11  Ds0  v127
 BYTE   W12
 BYTE   Fs0
 BYTE   W12
 BYTE   As0
 BYTE   W12
 BYTE   N23  Cs0
 BYTE   W24
 BYTE   N11  Ds1
 BYTE   W12
 BYTE   N23  Gs0
 BYTE   W24
//  #14 //008   ----------------------------------------
Label_0100640D:
 BYTE   N11  As0  v127
 BYTE   W12
 BYTE   N23
 BYTE   W24
 BYTE   N23
 BYTE   W24
 BYTE   N23
 BYTE   W24
 BYTE   N11
 BYTE   W12
 BYTE   PEND 
//  #14 //009   ----------------------------------------
Label_0100641A:
 BYTE   N05  As0  v127
 BYTE   W06
 BYTE   N05
 BYTE   W06
 BYTE   N23
 BYTE   W24
 BYTE   N23
 BYTE   W24
 BYTE   N23
 BYTE   W24
 BYTE   N11
 BYTE   W12
 BYTE   PEND 
//  #14 //010   ----------------------------------------
 BYTE   PATT
  POIN2 Label_0100640D
//  #14 //011   ----------------------------------------
 BYTE   PATT
  POIN2 Label_0100641A
//  #14 //012   ----------------------------------------
 BYTE   PATT
  POIN2 Label_0100640D
//  #14 //013   ----------------------------------------
 BYTE   PATT
  POIN2 Label_0100641A
//  #14 //014   ----------------------------------------
Label_0100643D:
 BYTE   N11  Fs0  v127
 BYTE   W12
 BYTE   N23
 BYTE   W24
 BYTE   N23
 BYTE   W24
 BYTE   N23
 BYTE   W24
 BYTE   N11
 BYTE   W12
 BYTE   PEND 
//  #14 //015   ----------------------------------------
Label_0100644A:
 BYTE   N05  Fs0  v127
 BYTE   W06
 BYTE   N05
 BYTE   W06
 BYTE   N23
 BYTE   W24
 BYTE   N23
 BYTE   W24
 BYTE   N23
 BYTE   W24
 BYTE   N11
 BYTE   W12
 BYTE   PEND 
//  #14 //016   ----------------------------------------
Label_01006459:
 BYTE   N11  Gs0  v127
 BYTE   W12
 BYTE   N23
 BYTE   W24
 BYTE   N23
 BYTE   W24
 BYTE   N23
 BYTE   W24
 BYTE   N11
 BYTE   W12
 BYTE   PEND 
//  #14 //017   ----------------------------------------
Label_01006466:
 BYTE   N05  Gs0  v127
 BYTE   W06
 BYTE   N05
 BYTE   W06
 BYTE   N23
 BYTE   W24
 BYTE   N11
 BYTE   W12
 BYTE   N23
 BYTE   W24
 BYTE   N23
 BYTE   W24
 BYTE   PEND 
//  #14 //018   ----------------------------------------
 BYTE   PATT
  POIN2 Label_0100640D
//  #14 //019   ----------------------------------------
 BYTE   PATT
  POIN2 Label_0100641A
//  #14 //020   ----------------------------------------
 BYTE   PATT
  POIN2 Label_0100640D
//  #14 //021   ----------------------------------------
 BYTE   PATT
  POIN2 Label_0100641A
//  #14 //022   ----------------------------------------
 BYTE   PATT
  POIN2 Label_0100643D
//  #14 //023   ----------------------------------------
 BYTE   PATT
  POIN2 Label_0100644A
//  #14 //024   ----------------------------------------
 BYTE   PATT
  POIN2 Label_01006459
//  #14 //025   ----------------------------------------
 BYTE   PATT
  POIN2 Label_01006466
//  #14 //026   ----------------------------------------
Label_0100649D:
 BYTE   N17  As0  v127
 BYTE   W36
 BYTE   N05  Fn0
 BYTE   W06
 BYTE   N05
 BYTE   W06
 BYTE   N05
 BYTE   W12
 BYTE   N23  As0
 BYTE   W24
 BYTE   N11  Fn0
 BYTE   W12
 BYTE   PEND 
//  #14 //027   ----------------------------------------
Label_010064AF:
 BYTE   N11  As0  v127
 BYTE   W12
 BYTE   N05
 BYTE   W24
 BYTE   Fn0
 BYTE   W06
 BYTE   N05
 BYTE   W06
 BYTE   N11  As0
 BYTE   W12
 BYTE   Fn0
 BYTE   W12
 BYTE   As0
 BYTE   W12
 BYTE   Fn0
 BYTE   W12
 BYTE   PEND 
//  #14 //028   ----------------------------------------
Label_010064C3:
 BYTE   N23  Ds0  v127
 BYTE   W24
 BYTE   N11
 BYTE   W12
 BYTE   N23
 BYTE   W24
 BYTE   N23
 BYTE   W24
 BYTE   N11
 BYTE   W12
 BYTE   PEND 
//  #14 //029   ----------------------------------------
 BYTE   PATT
  POIN2 Label_010064C3
//  #14 //030   ----------------------------------------
 BYTE   PATT
  POIN2 Label_0100649D
//  #14 //031   ----------------------------------------
 BYTE   PATT
  POIN2 Label_010064AF
//  #14 //032   ----------------------------------------
Label_010064DF:
 BYTE   N11  Fs0  v127
 BYTE   W12
 BYTE   Cs0
 BYTE   W12
 BYTE   N32  Fs0
 BYTE   W36
 BYTE   N11  Cs0
 BYTE   W12
 BYTE   Fs0
 BYTE   W12
 BYTE   Cs0
 BYTE   W12
 BYTE   PEND 
//  #14 //033   ----------------------------------------
Label_010064F0:
 BYTE   N11  Fs0  v127
 BYTE   W12
 BYTE   N11
 BYTE   W12
 BYTE   Cs0
 BYTE   W12
 BYTE   N23  Fs0
 BYTE   W24
 BYTE   N11  Cs0
 BYTE   W12
 BYTE   Fs0
 BYTE   W12
 BYTE   Cs0
 BYTE   W12
 BYTE   PEND 
//  #14 //034   ----------------------------------------
Label_01006503:
 BYTE   N11  Gs0  v127
 BYTE   W12
 BYTE   Ds0
 BYTE   W12
 BYTE   N32  Gs0
 BYTE   W36
 BYTE   N11  Ds0
 BYTE   W12
 BYTE   Gs0
 BYTE   W12
 BYTE   Ds0
 BYTE   W12
 BYTE   PEND 
//  #14 //035   ----------------------------------------
Label_01006514:
 BYTE   N11  Gs0  v127
 BYTE   W12
 BYTE   N11
 BYTE   W12
 BYTE   Ds0
 BYTE   W12
 BYTE   N23  Gs0
 BYTE   W24
 BYTE   N11  Ds0
 BYTE   W12
 BYTE   Gs0
 BYTE   W12
 BYTE   Ds0
 BYTE   W12
 BYTE   PEND 
//  #14 //036   ----------------------------------------
 BYTE   TIE  As0
 BYTE   W96
//  #14 //037   ----------------------------------------
Label_0100652A:
 BYTE   W56
 BYTE   W03
 BYTE   EOT
 BYTE   As0
 BYTE   W01
 BYTE   N23  As0  v127
 BYTE   W24
 BYTE   N11
 BYTE   W12
//  #14 //038   ----------------------------------------
 BYTE   PATT
  POIN2 Label_0100640D
//  #14 //039   ----------------------------------------
 BYTE   PATT
  POIN2 Label_0100641A
//  #14 //040   ----------------------------------------
 BYTE   PATT
  POIN2 Label_0100640D
//  #14 //041   ----------------------------------------
 BYTE   PATT
  POIN2 Label_0100641A
//  #14 //042   ----------------------------------------
 BYTE   PATT
  POIN2 Label_0100643D
//  #14 //043   ----------------------------------------
 BYTE   PATT
  POIN2 Label_0100644A
//  #14 //044   ----------------------------------------
 BYTE   PATT
  POIN2 Label_01006459
//  #14 //045   ----------------------------------------
 BYTE   PATT
  POIN2 Label_01006466
//  #14 //046   ----------------------------------------
 BYTE   PATT
  POIN2 Label_0100640D
//  #14 //047   ----------------------------------------
 BYTE   PATT
  POIN2 Label_0100641A
//  #14 //048   ----------------------------------------
 BYTE   PATT
  POIN2 Label_0100640D
//  #14 //049   ----------------------------------------
 BYTE   PATT
  POIN2 Label_0100641A
//  #14 //050   ----------------------------------------
 BYTE   PATT
  POIN2 Label_0100643D
//  #14 //051   ----------------------------------------
 BYTE   PATT
  POIN2 Label_0100644A
//  #14 //052   ----------------------------------------
 BYTE   PATT
  POIN2 Label_01006459
//  #14 //053   ----------------------------------------
 BYTE   PATT
  POIN2 Label_01006466
//  #14 //054   ----------------------------------------
 BYTE   PATT
  POIN2 Label_0100649D
//  #14 //055   ----------------------------------------
 BYTE   PATT
  POIN2 Label_010064AF
//  #14 //056   ----------------------------------------
 BYTE   PATT
  POIN2 Label_010064C3
//  #14 //057   ----------------------------------------
 BYTE   PATT
  POIN2 Label_010064C3
//  #14 //058   ----------------------------------------
 BYTE   PATT
  POIN2 Label_0100649D
//  #14 //059   ----------------------------------------
 BYTE   PATT
  POIN2 Label_010064AF
//  #14 //060   ----------------------------------------
 BYTE   PATT
  POIN2 Label_010064DF
//  #14 //061   ----------------------------------------
 BYTE   PATT
  POIN2 Label_010064F0
//  #14 //062   ----------------------------------------
 BYTE   PATT
  POIN2 Label_01006503
//  #14 //063   ----------------------------------------
 BYTE   PATT
  POIN2 Label_01006514
//  #14 //064   ----------------------------------------
 BYTE   TIE  As0  v127
 BYTE   W96
//  #14 //065   ----------------------------------------
 BYTE   GoTo
  POIN2 Label_0100652A
//  #14 //066   ----------------------------------------
 BYTE   W56
 BYTE   W03
 BYTE   EOT
 BYTE   As0
 BYTE   W01
 BYTE   N23  As0  v127
 BYTE   W24
 BYTE   N11
 BYTE   W12
//  #14 //067   ----------------------------------------
 BYTE   N11
 BYTE   W12
 BYTE   N23
 BYTE   W04
 BYTE   W16
 BYTE   W04
 BYTE   N23
 BYTE   W12
 BYTE   W12
 BYTE   N23
 BYTE   W04
 BYTE   W16
 BYTE   W04
 BYTE   N11
 BYTE   W12
//  #14 //068   ----------------------------------------
 BYTE   N05
 BYTE   W06
 BYTE   N05
 BYTE   W06
 BYTE   N23
 BYTE   W04
 BYTE   W16
 BYTE   W04
 BYTE   N23
 BYTE   W12
 BYTE   W12
 BYTE   N23
 BYTE   W04
 BYTE   W16
 BYTE   W04
 BYTE   N11
 BYTE   W12
//  #14 //069   ----------------------------------------
 BYTE   N11
 BYTE   W08
 BYTE   W04
 BYTE   N23
 BYTE   W04
 BYTE   W08
 BYTE   W08
 BYTE   W04
 BYTE   N23
 BYTE   W04
 BYTE   W08
 BYTE   W08
 BYTE   W04
 BYTE   N23
 BYTE   W04
 BYTE   W08
 BYTE   W08
 BYTE   W04
 BYTE   N11
 BYTE   W04
 BYTE   W08
//  #14 //070   ----------------------------------------
 BYTE   N05
 BYTE   W06
 BYTE   N05
 BYTE   W02
 BYTE   W04
 BYTE   N23
 BYTE   W04
 BYTE   W08
 BYTE   W08
 BYTE   W04
 BYTE   N23
 BYTE   W04
 BYTE   W08
 BYTE   W08
 BYTE   W04
 BYTE   N23
 BYTE   W04
 BYTE   W08
 BYTE   W08
 BYTE   W04
 BYTE   N11
 BYTE   W04
 BYTE   W08
//  #14 //071   ----------------------------------------
 BYTE   W48
 BYTE   FINE

//**************** Track 15 (Midi-Chn.14) ****************//

LiveALive_015:
//  #15 //000   ----------------------------------------
 BYTE   KEYSH   LiveALive_key+0
 BYTE   VOICE   73
 BYTE   VOL   23*LiveALive_mvl/mxv
 BYTE   PAN   c_v+0
 BYTE   W96
//  #15 //001   ----------------------------------------
 BYTE   W96
//  #15 //002   ----------------------------------------
 BYTE   W96
//  #15 //003   ----------------------------------------
 BYTE   W96
//  #15 //004   ----------------------------------------
 BYTE   W96
//  #15 //005   ----------------------------------------
 BYTE   W96
//  #15 //006   ----------------------------------------
 BYTE   W96
//  #15 //007   ----------------------------------------
 BYTE   W96
//  #15 //008   ----------------------------------------
 BYTE   W96
//  #15 //009   ----------------------------------------
 BYTE   W96
//  #15 //010   ----------------------------------------
 BYTE   W96
//  #15 //011   ----------------------------------------
 BYTE   W96
//  #15 //012   ----------------------------------------
 BYTE   W96
//  #15 //013   ----------------------------------------
 BYTE   W96
//  #15 //014   ----------------------------------------
Label_0100679A:
 BYTE   N06  Fs4  v100
 BYTE   W06
 BYTE   Gs4
 BYTE   W06
 BYTE   As4
 BYTE   W06
 BYTE   Cs5
 BYTE   W06
 BYTE   Fs5
 BYTE   W06
 BYTE   Gs5
 BYTE   W06
 BYTE   As5
 BYTE   W06
 BYTE   Cs6
 BYTE   W06
 BYTE   N04  Fn6
 BYTE   W04
 BYTE   Fs6
 BYTE   W04
 BYTE   Fn6
 BYTE   W04
 BYTE   N06  Ds6
 BYTE   W06
 BYTE   Cs6
 BYTE   W06
 BYTE   Cn6
 BYTE   W06
 BYTE   As5
 BYTE   W06
 BYTE   Gs5
 BYTE   W06
 BYTE   Cn6
 BYTE   W06
 BYTE   PEND 
//  #15 //015   ----------------------------------------
Label_010067C1:
 BYTE   N06  As5  v100
 BYTE   W06
 BYTE   Gs5
 BYTE   W06
 BYTE   Fs5
 BYTE   W06
 BYTE   Gs5
 BYTE   W06
 BYTE   N30  Fs5
 BYTE   W30
 BYTE   N06  Fn5
 BYTE   W06
 BYTE   Ds5
 BYTE   W06
 BYTE   Fn5
 BYTE   W06
 BYTE   N24  Ds5
 BYTE   W24
 BYTE   PEND 
//  #15 //016   ----------------------------------------
Label_010067D9:
 BYTE   N06  Gs4  v100
 BYTE   W06
 BYTE   As4
 BYTE   W06
 BYTE   Cn5
 BYTE   W06
 BYTE   Ds5
 BYTE   W06
 BYTE   Gs5
 BYTE   W06
 BYTE   As5
 BYTE   W06
 BYTE   Cn6
 BYTE   W06
 BYTE   Ds6
 BYTE   W06
 BYTE   N04  Fs6
 BYTE   W04
 BYTE   Gs6
 BYTE   W04
 BYTE   Fs6
 BYTE   W04
 BYTE   N06  Fn6
 BYTE   W06
 BYTE   Ds6
 BYTE   W06
 BYTE   Cs6
 BYTE   W06
 BYTE   Cn6
 BYTE   W06
 BYTE   As5
 BYTE   W06
 BYTE   Cs6
 BYTE   W06
 BYTE   PEND 
//  #15 //017   ----------------------------------------
Label_01006800:
 BYTE   N06  Cn6  v100
 BYTE   W06
 BYTE   As5
 BYTE   W06
 BYTE   Gs5
 BYTE   W06
 BYTE   As5
 BYTE   W06
 BYTE   N30  Gs5
 BYTE   W30
 BYTE   N06  Fs5
 BYTE   W06
 BYTE   Fn5
 BYTE   W06
 BYTE   Fs5
 BYTE   W06
 BYTE   N24  Fn5
 BYTE   W24
 BYTE   PEND 
//  #15 //018   ----------------------------------------
 BYTE   W96
//  #15 //019   ----------------------------------------
 BYTE   W96
//  #15 //020   ----------------------------------------
 BYTE   W96
//  #15 //021   ----------------------------------------
 BYTE   W96
//  #15 //022   ----------------------------------------
 BYTE   PATT
  POIN2 Label_0100679A
//  #15 //023   ----------------------------------------
 BYTE   PATT
  POIN2 Label_010067C1
//  #15 //024   ----------------------------------------
 BYTE   PATT
  POIN2 Label_010067D9
//  #15 //025   ----------------------------------------
 BYTE   PATT
  POIN2 Label_01006800
//  #15 //026   ----------------------------------------
 BYTE   W96
//  #15 //027   ----------------------------------------
 BYTE   W96
//  #15 //028   ----------------------------------------
 BYTE   W96
//  #15 //029   ----------------------------------------
 BYTE   W96
//  #15 //030   ----------------------------------------
 BYTE   W96
//  #15 //031   ----------------------------------------
 BYTE   W96
//  #15 //032   ----------------------------------------
 BYTE   W96
//  #15 //033   ----------------------------------------
 BYTE   W96
//  #15 //034   ----------------------------------------
 BYTE   W96
//  #15 //035   ----------------------------------------
 BYTE   W96
//  #15 //036   ----------------------------------------
Label_0100683A:
 BYTE   W06
 BYTE   N06  Dn5  v100
 BYTE   W06
 BYTE   Fn5
 BYTE   W06
 BYTE   An5
 BYTE   W06
 BYTE   Cn6
 BYTE   W06
 BYTE   An5
 BYTE   W06
 BYTE   N60  Dn6
 BYTE   W36
 BYTE   BEND   c_v+0
 BYTE   W04
 BYTE   BEND   c_v+32
 BYTE   W04
 BYTE   BEND   c_v+0
 BYTE   W04
 BYTE   BEND   c_v+32
 BYTE   W04
 BYTE   BEND   c_v+0
 BYTE   W04
 BYTE   BEND   c_v+32
 BYTE   W04
 BYTE   PEND 
//  #15 //037   ----------------------------------------
Label_0100685D:
 BYTE   BEND   c_v+0
 BYTE   N06  Dn6  v100
 BYTE   W06
 BYTE   Ds6
 BYTE   W06
 BYTE   Dn6
 BYTE   W06
 BYTE   As5
 BYTE   W06
 BYTE   Fn5
 BYTE   W06
 BYTE   Gn5
 BYTE   W06
 BYTE   Fn5
 BYTE   W06
 BYTE   Dn5
 BYTE   W06
 BYTE   As4
 BYTE   W06
 BYTE   Cn5
 BYTE   W06
 BYTE   As4
 BYTE   W06
 BYTE   Fn4
 BYTE   W06
 BYTE   Dn4
 BYTE   W06
 BYTE   Ds4
 BYTE   W06
 BYTE   Dn4
 BYTE   W06
 BYTE   As3
 BYTE   W06
 BYTE   PEND 
//  #15 //038   ----------------------------------------
 BYTE   W96
//  #15 //039   ----------------------------------------
 BYTE   W96
//  #15 //040   ----------------------------------------
 BYTE   W96
//  #15 //041   ----------------------------------------
 BYTE   W96
//  #15 //042   ----------------------------------------
 BYTE   PATT
  POIN2 Label_0100679A
//  #15 //043   ----------------------------------------
 BYTE   PATT
  POIN2 Label_010067C1
//  #15 //044   ----------------------------------------
 BYTE   PATT
  POIN2 Label_010067D9
//  #15 //045   ----------------------------------------
 BYTE   PATT
  POIN2 Label_01006800
//  #15 //046   ----------------------------------------
 BYTE   W96
//  #15 //047   ----------------------------------------
 BYTE   W96
//  #15 //048   ----------------------------------------
 BYTE   W96
//  #15 //049   ----------------------------------------
 BYTE   W96
//  #15 //050   ----------------------------------------
 BYTE   PATT
  POIN2 Label_0100679A
//  #15 //051   ----------------------------------------
 BYTE   PATT
  POIN2 Label_010067C1
//  #15 //052   ----------------------------------------
 BYTE   PATT
  POIN2 Label_010067D9
//  #15 //053   ----------------------------------------
 BYTE   PATT
  POIN2 Label_01006800
//  #15 //054   ----------------------------------------
 BYTE   W96
//  #15 //055   ----------------------------------------
 BYTE   W96
//  #15 //056   ----------------------------------------
 BYTE   W96
//  #15 //057   ----------------------------------------
 BYTE   W96
//  #15 //058   ----------------------------------------
 BYTE   W96
//  #15 //059   ----------------------------------------
 BYTE   W96
//  #15 //060   ----------------------------------------
 BYTE   W96
//  #15 //061   ----------------------------------------
 BYTE   W96
//  #15 //062   ----------------------------------------
 BYTE   W96
//  #15 //063   ----------------------------------------
 BYTE   W96
//  #15 //064   ----------------------------------------
 BYTE   PATT
  POIN2 Label_0100683A
//  #15 //065   ----------------------------------------
 BYTE   GoTo
  POIN2 Label_0100685D
//  #15 //066   ----------------------------------------
 BYTE   PATT
  POIN2 Label_0100685D
//  #15 //067   ----------------------------------------
 BYTE   W96
//  #15 //068   ----------------------------------------
 BYTE   W96
//  #15 //069   ----------------------------------------
 BYTE   W96
//  #15 //070   ----------------------------------------
 BYTE   W96
//  #15 //071   ----------------------------------------
 BYTE   W48
 BYTE   FINE

//**************** Track 16 (Midi-Chn.15) ****************//

LiveALive_016:
//  #16 //000   ----------------------------------------
 BYTE   KEYSH   LiveALive_key+0
 BYTE   VOICE   60
 BYTE   VOL   30*LiveALive_mvl/mxv
 BYTE   PAN   c_v+0
 BYTE   W96
//  #16 //001   ----------------------------------------
 BYTE   W96
//  #16 //002   ----------------------------------------
 BYTE   W96
//  #16 //003   ----------------------------------------
 BYTE   W96
//  #16 //004   ----------------------------------------
 BYTE   W96
//  #16 //005   ----------------------------------------
 BYTE   W96
//  #16 //006   ----------------------------------------
 BYTE   W96
//  #16 //007   ----------------------------------------
 BYTE   W96
//  #16 //008   ----------------------------------------
 BYTE   W96
//  #16 //009   ----------------------------------------
 BYTE   W96
//  #16 //010   ----------------------------------------
 BYTE   TIE  Fn3  v080
 BYTE   W96
//  #16 //011   ----------------------------------------
 BYTE   W11
 BYTE   EOT
 BYTE   W01
 BYTE   N11  Cs3
 BYTE   W12
 BYTE   Fn3
 BYTE   W12
 BYTE   Gs3
 BYTE   W12
 BYTE   Cn4
 BYTE   W12
 BYTE   N05  As3
 BYTE   W06
 BYTE   Gs3
 BYTE   W06
 BYTE   N11  As3
 BYTE   W12
 BYTE   N05  Gn3
 BYTE   W06
 BYTE   N05
 BYTE   W06
//  #16 //012   ----------------------------------------
 BYTE   TIE  Fn3
 BYTE   W96
//  #16 //013   ----------------------------------------
 BYTE   W11
 BYTE   EOT
 BYTE   W01
 BYTE   N11  Cs3
 BYTE   W12
 BYTE   Fn3
 BYTE   W12
 BYTE   Gs3
 BYTE   W12
 BYTE   Cn4
 BYTE   W12
 BYTE   N23  As3
 BYTE   W24
 BYTE   N11  Gs3
 BYTE   W12
//  #16 //014   ----------------------------------------
 BYTE   W96
//  #16 //015   ----------------------------------------
 BYTE   W96
//  #16 //016   ----------------------------------------
 BYTE   W96
//  #16 //017   ----------------------------------------
 BYTE   W96
//  #16 //018   ----------------------------------------
 BYTE   TIE  Fn3
 BYTE   W96
//  #16 //019   ----------------------------------------
 BYTE   W11
 BYTE   EOT
 BYTE   W01
 BYTE   N11  Cs3
 BYTE   W12
 BYTE   Fn3
 BYTE   W12
 BYTE   Gs3
 BYTE   W12
 BYTE   Cn4
 BYTE   W12
 BYTE   N05  As3
 BYTE   W06
 BYTE   Gs3
 BYTE   W06
 BYTE   N11  As3
 BYTE   W12
 BYTE   N05  Gn3
 BYTE   W06
 BYTE   N05
 BYTE   W06
//  #16 //020   ----------------------------------------
 BYTE   TIE  Fn3
 BYTE   W96
//  #16 //021   ----------------------------------------
 BYTE   W11
 BYTE   EOT
 BYTE   W01
 BYTE   N11  Cs3
 BYTE   W12
 BYTE   Fn3
 BYTE   W12
 BYTE   Gs3
 BYTE   W12
 BYTE   Cn4
 BYTE   W12
 BYTE   N23  As3
 BYTE   W24
 BYTE   N11  Gs3
 BYTE   W12
//  #16 //022   ----------------------------------------
 BYTE   W96
//  #16 //023   ----------------------------------------
 BYTE   W96
//  #16 //024   ----------------------------------------
 BYTE   W96
//  #16 //025   ----------------------------------------
 BYTE   W96
//  #16 //026   ----------------------------------------
 BYTE   W96
//  #16 //027   ----------------------------------------
 BYTE   W96
//  #16 //028   ----------------------------------------
 BYTE   W96
//  #16 //029   ----------------------------------------
 BYTE   W96
//  #16 //030   ----------------------------------------
 BYTE   W96
//  #16 //031   ----------------------------------------
 BYTE   W96
//  #16 //032   ----------------------------------------
 BYTE   W96
//  #16 //033   ----------------------------------------
 BYTE   W96
//  #16 //034   ----------------------------------------
 BYTE   W96
//  #16 //035   ----------------------------------------
 BYTE   W96
//  #16 //036   ----------------------------------------
 BYTE   W96
//  #16 //037   ----------------------------------------
Label_01006974:
 BYTE   W96
//  #16 //038   ----------------------------------------
 BYTE   TIE  Fn3  v080
 BYTE   W96
//  #16 //039   ----------------------------------------
 BYTE   W11
 BYTE   EOT
 BYTE   W01
 BYTE   N11  Cs3
 BYTE   W12
 BYTE   Fn3
 BYTE   W12
 BYTE   Gs3
 BYTE   W12
 BYTE   Cn4
 BYTE   W12
 BYTE   N05  As3
 BYTE   W06
 BYTE   Gs3
 BYTE   W06
 BYTE   N11  As3
 BYTE   W12
 BYTE   N05  Gn3
 BYTE   W06
 BYTE   N05
 BYTE   W06
//  #16 //040   ----------------------------------------
 BYTE   TIE  Fn3
 BYTE   W96
//  #16 //041   ----------------------------------------
 BYTE   W11
 BYTE   EOT
 BYTE   W01
 BYTE   N11  Cs3
 BYTE   W12
 BYTE   Fn3
 BYTE   W12
 BYTE   Gs3
 BYTE   W12
 BYTE   Cn4
 BYTE   W12
 BYTE   N23  As3
 BYTE   W24
 BYTE   N11  Gs3
 BYTE   W12
//  #16 //042   ----------------------------------------
 BYTE   W96
//  #16 //043   ----------------------------------------
 BYTE   W96
//  #16 //044   ----------------------------------------
 BYTE   W96
//  #16 //045   ----------------------------------------
 BYTE   W96
//  #16 //046   ----------------------------------------
 BYTE   TIE  Fn3
 BYTE   W96
//  #16 //047   ----------------------------------------
 BYTE   W11
 BYTE   EOT
 BYTE   W01
 BYTE   N11  Cs3
 BYTE   W12
 BYTE   Fn3
 BYTE   W12
 BYTE   Gs3
 BYTE   W12
 BYTE   Cn4
 BYTE   W12
 BYTE   N05  As3
 BYTE   W06
 BYTE   Gs3
 BYTE   W06
 BYTE   N11  As3
 BYTE   W12
 BYTE   N05  Gn3
 BYTE   W06
 BYTE   N05
 BYTE   W06
//  #16 //048   ----------------------------------------
 BYTE   TIE  Fn3
 BYTE   W96
//  #16 //049   ----------------------------------------
 BYTE   W11
 BYTE   EOT
 BYTE   W01
 BYTE   N11  Cs3
 BYTE   W12
 BYTE   Fn3
 BYTE   W12
 BYTE   Gs3
 BYTE   W12
 BYTE   Cn4
 BYTE   W12
 BYTE   N23  As3
 BYTE   W24
 BYTE   N11  Gs3
 BYTE   W12
//  #16 //050   ----------------------------------------
 BYTE   W96
//  #16 //051   ----------------------------------------
 BYTE   W96
//  #16 //052   ----------------------------------------
 BYTE   W96
//  #16 //053   ----------------------------------------
 BYTE   W96
//  #16 //054   ----------------------------------------
 BYTE   W96
//  #16 //055   ----------------------------------------
 BYTE   W96
//  #16 //056   ----------------------------------------
 BYTE   W96
//  #16 //057   ----------------------------------------
 BYTE   W96
//  #16 //058   ----------------------------------------
 BYTE   W96
//  #16 //059   ----------------------------------------
 BYTE   W96
//  #16 //060   ----------------------------------------
 BYTE   W96
//  #16 //061   ----------------------------------------
 BYTE   W96
//  #16 //062   ----------------------------------------
 BYTE   W96
//  #16 //063   ----------------------------------------
 BYTE   W96
//  #16 //064   ----------------------------------------
 BYTE   W96
//  #16 //065   ----------------------------------------
 BYTE   GoTo
  POIN2 Label_01006974
//  #16 //066   ----------------------------------------
 BYTE   W96
//  #16 //067   ----------------------------------------
 BYTE   TIE  Fn3  v080
 BYTE   W16
 BYTE   W16
 BYTE   W16
 BYTE   W16
 BYTE   W16
 BYTE   W16
//  #16 //068   ----------------------------------------
 BYTE   W11
 BYTE   EOT
 BYTE   W01
 BYTE   N11  Cs3
 BYTE   W04
 BYTE   W08
 BYTE   Fn3
 BYTE   W08
 BYTE   W04
 BYTE   Gs3
 BYTE   W12
 BYTE   Cn4
 BYTE   W12
 BYTE   N05  As3
 BYTE   W04
 BYTE   W02
 BYTE   Gs3
 BYTE   W06
 BYTE   N11  As3
 BYTE   W08
 BYTE   W04
 BYTE   N05  Gn3
 BYTE   W06
 BYTE   N05
 BYTE   W06
//  #16 //069   ----------------------------------------
 BYTE   TIE  Fn3
 BYTE   W08
 BYTE   W08
 BYTE   W08
 BYTE   W08
 BYTE   W08
 BYTE   W08
 BYTE   W08
 BYTE   W08
 BYTE   W08
 BYTE   W08
 BYTE   W08
 BYTE   W08
//  #16 //070   ----------------------------------------
 BYTE   W08
 BYTE   W03
 BYTE   EOT
 BYTE   W01
 BYTE   N11  Cs3
 BYTE   W04
 BYTE   W08
 BYTE   Fn3
 BYTE   W08
 BYTE   W04
 BYTE   Gs3
 BYTE   W04
 BYTE   W08
 BYTE   Cn4
 BYTE   W08
 BYTE   W04
 BYTE   N23  As3
 BYTE   W04
 BYTE   W08
 BYTE   W08
 BYTE   W04
 BYTE   N11  Gs3
 BYTE   W04
 BYTE   W08
//  #16 //071   ----------------------------------------
 BYTE   W48
 BYTE   FINE

//******************************************************//
	ALIGN 4

LiveALive:
	BYTE	16	// NumTrks
	BYTE	0	// NumBlks
	BYTE	LiveALive_pri	// Priority
	BYTE	LiveALive_rev	// Reverb.
    
	POIN2	LiveALive_grp
    
	POIN2	LiveALive_001
	POIN2	LiveALive_002
	POIN2	LiveALive_003
	POIN2	LiveALive_004
	POIN2	LiveALive_005
	POIN2	LiveALive_006
	POIN2	LiveALive_007
	POIN2	LiveALive_008
	POIN2	LiveALive_009
	POIN2	LiveALive_010
	POIN2	LiveALive_011
	POIN2	LiveALive_012
	POIN2	LiveALive_013
	POIN2	LiveALive_014
	POIN2	LiveALive_015
	POIN2	LiveALive_016

	
