	.include "MPlayDef.s"

	.equ	song33_grp, voicegroup000
	.equ	song33_pri, 0
	.equ	song33_rev, 0
	.equ	song33_mvl, 127
	.equ	song33_key, 0
	.equ	song33_tbs, 1
	.equ	song33_exg, 0
	.equ	song33_cmp, 1

	.section .rodata
	.global	song33
	.align	2


@**************** Track 1 (Midi-Chn.0) ****************@

song33_001:
@  #01 @000   ----------------------------------------
 .byte   KEYSH , song33_key+0
Label_015576A2:
 .byte   TEMPO , 148*song33_tbs/2
 .byte   VOICE , 30
 .byte   VOL , 37*song33_mvl/mxv
 .byte   PAN , c_v+0
 .byte   VOL , 34*song33_mvl/mxv
 .byte   PAN , c_v+0
 .byte   TIE ,Cn4 ,v056
 .byte   TIE ,En4
 .byte   W96
@  #01 @001   ----------------------------------------
 .byte   W96
@  #01 @002   ----------------------------------------
 .byte   W92
 .byte   W03
 .byte   EOT
 .byte   Cn4 ,v076
 .byte   W01
@  #01 @003   ----------------------------------------
Label_015576BB:
 .byte   N68 ,Cn4 ,v056
 .byte   TIE ,En4
 .byte   W72
 .byte   N68 ,Bn3
 .byte   W24
 .byte   PEND 
@  #01 @004   ----------------------------------------
 .byte   W48
 .byte   An3
 .byte   W48
@  #01 @005   ----------------------------------------
 .byte   W24
 .byte   Bn3
 .byte   W68
 .byte   W03
 .byte   EOT
 .byte   En4
 .byte   W01
@  #01 @006   ----------------------------------------
 .byte   PATT
  .word Label_015576BB
@  #01 @007   ----------------------------------------
 .byte   W48
 .byte   N68 ,An3 ,v056
 .byte   W48
@  #01 @008   ----------------------------------------
 .byte   W23
 .byte   EOT
 .byte   En4
 .byte   W01
 .byte   TIE ,Bn3
 .byte   TIE ,En4
 .byte   W72
@  #01 @009   ----------------------------------------
 .byte   W96
@  #01 @010   ----------------------------------------
 .byte   W44
 .byte   W03
 .byte   EOT
 .byte   Bn3 ,v076
 .byte   W01
 .byte   TIE ,Bn3 ,v044
 .byte   TIE ,En4
 .byte   W48
@  #01 @011   ----------------------------------------
 .byte   W96
@  #01 @012   ----------------------------------------
 .byte   W68
 .byte   W03
 .byte   EOT
 .byte   Bn3 ,v076
 .byte   W13
 .byte   N32 ,En4 ,v032
 .byte   W12
@  #01 @013   ----------------------------------------
Label_015576FA:
 .byte   W24
 .byte   N11 ,Dn4 ,v032
 .byte   W12
 .byte   Cn4
 .byte   W12
 .byte   Bn3
 .byte   W12
 .byte   N44 ,Cn4
 .byte   W36
 .byte   PEND 
@  #01 @014   ----------------------------------------
Label_01557707:
 .byte   W12
 .byte   N23 ,Bn3 ,v032
 .byte   W24
 .byte   N44 ,An3
 .byte   W48
 .byte   N11 ,Gn3
 .byte   W12
 .byte   PEND 
@  #01 @015   ----------------------------------------
Label_01557713:
 .byte   N11 ,An3 ,v032
 .byte   W12
 .byte   N44 ,En3
 .byte   W48
 .byte   N11 ,Cn4
 .byte   W12
 .byte   Dn4
 .byte   W12
 .byte   N32 ,En4
 .byte   W12
 .byte   PEND 
@  #01 @016   ----------------------------------------
 .byte   PATT
  .word Label_015576FA
@  #01 @017   ----------------------------------------
Label_01557728:
 .byte   W12
 .byte   N23 ,Bn3 ,v032
 .byte   W24
 .byte   N44 ,An3
 .byte   W48
 .byte   N23 ,Gn3
 .byte   W12
 .byte   PEND 
@  #01 @018   ----------------------------------------
 .byte   W12
 .byte   N44 ,An3
 .byte   W72
 .byte   N32 ,En4
 .byte   W12
@  #01 @019   ----------------------------------------
 .byte   PATT
  .word Label_015576FA
@  #01 @020   ----------------------------------------
 .byte   PATT
  .word Label_01557707
@  #01 @021   ----------------------------------------
 .byte   PATT
  .word Label_01557713
@  #01 @022   ----------------------------------------
 .byte   PATT
  .word Label_015576FA
@  #01 @023   ----------------------------------------
 .byte   PATT
  .word Label_01557728
@  #01 @024   ----------------------------------------
 .byte   W12
 .byte   TIE ,An3 ,v032
 .byte   W84
@  #01 @025   ----------------------------------------
 .byte   W32
 .byte   W03
 .byte   EOT
 .byte   W13
 .byte   BEND , c_v+2
 .byte   W12
 .byte   N32 ,Gn3
 .byte   W36
@  #01 @026   ----------------------------------------
Label_01557763:
 .byte   N11 ,Dn3 ,v032
 .byte   W12
 .byte   En3
 .byte   W12
 .byte   Fn3
 .byte   W12
 .byte   N23
 .byte   W24
 .byte   N40 ,En3
 .byte   W36
 .byte   PEND 
@  #01 @027   ----------------------------------------
 .byte   W12
 .byte   N32
 .byte   W36
 .byte   N11 ,Fn3
 .byte   W12
 .byte   En3
 .byte   W12
 .byte   Dn3
 .byte   W12
 .byte   N23
 .byte   W12
@  #01 @028   ----------------------------------------
 .byte   W12
 .byte   N40 ,Cn3
 .byte   W48
 .byte   N32
 .byte   W36
@  #01 @029   ----------------------------------------
 .byte   N11 ,Bn2
 .byte   W12
 .byte   Cn3
 .byte   W12
 .byte   Dn3
 .byte   W12
 .byte   N23 ,Cn3
 .byte   W24
 .byte   Bn2
 .byte   W24
 .byte   Dn3
 .byte   W12
@  #01 @030   ----------------------------------------
 .byte   W12
 .byte   N44
 .byte   W48
 .byte   N23 ,En3
 .byte   W24
 .byte   N32
 .byte   W12
@  #01 @031   ----------------------------------------
 .byte   W36
 .byte   N11
 .byte   W12
 .byte   Fn3
 .byte   W12
 .byte   N32 ,Gn3
 .byte   W36
@  #01 @032   ----------------------------------------
 .byte   PATT
  .word Label_01557763
@  #01 @033   ----------------------------------------
 .byte   W12
 .byte   N32 ,Gs3 ,v032
 .byte   W36
 .byte   N11 ,An3
 .byte   W12
 .byte   Bn3
 .byte   W12
 .byte   En3
 .byte   W12
 .byte   N23 ,Bn3
 .byte   W12
@  #01 @034   ----------------------------------------
 .byte   W12
 .byte   Cn4
 .byte   W24
 .byte   Dn4
 .byte   W24
 .byte   N32 ,Cn4
 .byte   W36
@  #01 @035   ----------------------------------------
 .byte   N11 ,Bn3
 .byte   W12
 .byte   An3
 .byte   W12
 .byte   Bn3
 .byte   W12
 .byte   N23 ,Cn4
 .byte   W24
 .byte   Gn3
 .byte   W24
 .byte   Cn4
 .byte   W12
@  #01 @036   ----------------------------------------
 .byte   W12
 .byte   N32 ,Fn4
 .byte   W36
 .byte   N11 ,Ds4
 .byte   W12
 .byte   Dn4
 .byte   W12
 .byte   Cn4
 .byte   W12
 .byte   N44
 .byte   W12
@  #01 @037   ----------------------------------------
 .byte   W36
 .byte   N23 ,As3
 .byte   W24
 .byte   TIE ,Cn4
 .byte   W36
@  #01 @038   ----------------------------------------
 .byte   W96
@  #01 @039   ----------------------------------------
 .byte   W80
 .byte   W03
 .byte   EOT
 .byte   W13
@  #01 @040   ----------------------------------------
 .byte   W42
 .byte   N05 ,As2 ,v052
 .byte   W24
 .byte   Ds3
 .byte   W30
@  #01 @041   ----------------------------------------
 .byte   W06
 .byte   Dn3
 .byte   W12
 .byte   Ds3
 .byte   W12
 .byte   Fn3
 .byte   W12
 .byte   Ds3
 .byte   W48
 .byte   As2
 .byte   W06
@  #01 @042   ----------------------------------------
 .byte   W18
 .byte   Ds3
 .byte   W36
 .byte   Dn3
 .byte   W12
 .byte   Ds3
 .byte   W12
 .byte   Fn3
 .byte   W12
 .byte   Gn3
 .byte   W06
@  #01 @043   ----------------------------------------
 .byte   W42
 .byte   N05
 .byte   W12
 .byte   Gs3
 .byte   W12
 .byte   As3
 .byte   W30
@  #01 @044   ----------------------------------------
 .byte   W18
 .byte   Gs3
 .byte   W12
 .byte   Gn3
 .byte   W12
 .byte   Gs3
 .byte   W54
@  #01 @045   ----------------------------------------
 .byte   W18
 .byte   N05
 .byte   W48
 .byte   Gn3
 .byte   W12
 .byte   Fn3
 .byte   W12
 .byte   Gn3
 .byte   W06
@  #01 @046   ----------------------------------------
 .byte   W66
 .byte   Ds3
 .byte   W30
@  #01 @047   ----------------------------------------
 .byte   W06
 .byte   Dn3
 .byte   W12
 .byte   Ds3
 .byte   W12
 .byte   Fn3
 .byte   W12
 .byte   Ds3
 .byte   W48
 .byte   Dn3
 .byte   W06
@  #01 @048   ----------------------------------------
 .byte   W18
 .byte   Ds3
 .byte   W36
 .byte   Dn3
 .byte   W12
 .byte   Ds3
 .byte   W12
 .byte   Gn3
 .byte   W12
 .byte   Dn4
 .byte   W06
@  #01 @049   ----------------------------------------
 .byte   W18
 .byte   Cn4
 .byte   W24
 .byte   Gn3
 .byte   W24
 .byte   As3
 .byte   W30
@  #01 @050   ----------------------------------------
 .byte   W06
 .byte   Gs3
 .byte   W12
 .byte   Gn3
 .byte   W12
 .byte   Fn3
 .byte   W12
 .byte   Gn3
 .byte   W48
 .byte   Cn3
 .byte   W06
@  #01 @051   ----------------------------------------
 .byte   W18
 .byte   Gn3
 .byte   W78
@  #01 @052   ----------------------------------------
 .byte   W96
@  #01 @053   ----------------------------------------
 .byte   W96
@  #01 @054   ----------------------------------------
 .byte   W96
@  #01 @055   ----------------------------------------
 .byte   W96
@  #01 @056   ----------------------------------------
 .byte   W96
@  #01 @057   ----------------------------------------
 .byte   W96
@  #01 @058   ----------------------------------------
 .byte   W96
@  #01 @059   ----------------------------------------
 .byte   W96
@  #01 @060   ----------------------------------------
 .byte   TIE ,Gs3 ,v056
 .byte   TIE ,Cn4
 .byte   W96
@  #01 @061   ----------------------------------------
 .byte   W96
@  #01 @062   ----------------------------------------
 .byte   W92
 .byte   W03
 .byte   EOT
 .byte   Gs3 ,v072
 .byte   W01
@  #01 @063   ----------------------------------------
 .byte   N68 ,Gs3
 .byte   TIE ,Cn4
 .byte   W72
 .byte   N68 ,Gn3
 .byte   W24
@  #01 @064   ----------------------------------------
 .byte   W48
 .byte   Fn3
 .byte   W48
@  #01 @065   ----------------------------------------
 .byte   W24
 .byte   Gn3
 .byte   W68
 .byte   W03
 .byte   EOT
 .byte   Cn4
 .byte   W01
@  #01 @066   ----------------------------------------
 .byte   GOTO
  .word Label_015576A2
@  #01 @067   ----------------------------------------
 .byte   W05
 .byte   FINE

@**************** Track 2 (Midi-Chn.1) ****************@

song33_002:
@  #02 @000   ----------------------------------------
 .byte   KEYSH , song33_key+0
Label_01726AA6:
 .byte   VOICE , 11
 .byte   VOL , 37*song33_mvl/mxv
 .byte   PAN , c_v+0
 .byte   W96
@  #02 @001   ----------------------------------------
 .byte   W96
@  #02 @002   ----------------------------------------
 .byte   W96
@  #02 @003   ----------------------------------------
 .byte   W96
@  #02 @004   ----------------------------------------
 .byte   W96
@  #02 @005   ----------------------------------------
 .byte   W96
@  #02 @006   ----------------------------------------
 .byte   W96
@  #02 @007   ----------------------------------------
 .byte   W96
@  #02 @008   ----------------------------------------
 .byte   W96
@  #02 @009   ----------------------------------------
 .byte   W96
@  #02 @010   ----------------------------------------
 .byte   W48
 .byte   TIE ,En4 ,v084
 .byte   W48
@  #02 @011   ----------------------------------------
 .byte   W96
@  #02 @012   ----------------------------------------
 .byte   W44
 .byte   W03
 .byte   EOT
 .byte   W48
 .byte   W01
@  #02 @013   ----------------------------------------
 .byte   W96
@  #02 @014   ----------------------------------------
 .byte   W96
@  #02 @015   ----------------------------------------
 .byte   W96
@  #02 @016   ----------------------------------------
 .byte   W96
@  #02 @017   ----------------------------------------
 .byte   W96
@  #02 @018   ----------------------------------------
 .byte   W96
@  #02 @019   ----------------------------------------
 .byte   W96
@  #02 @020   ----------------------------------------
 .byte   W96
@  #02 @021   ----------------------------------------
 .byte   W96
@  #02 @022   ----------------------------------------
 .byte   W96
@  #02 @023   ----------------------------------------
 .byte   W96
@  #02 @024   ----------------------------------------
 .byte   W96
@  #02 @025   ----------------------------------------
 .byte   W96
@  #02 @026   ----------------------------------------
 .byte   W96
@  #02 @027   ----------------------------------------
 .byte   W96
@  #02 @028   ----------------------------------------
 .byte   W96
@  #02 @029   ----------------------------------------
 .byte   W96
@  #02 @030   ----------------------------------------
 .byte   W96
@  #02 @031   ----------------------------------------
 .byte   W96
@  #02 @032   ----------------------------------------
 .byte   W96
@  #02 @033   ----------------------------------------
 .byte   W96
@  #02 @034   ----------------------------------------
 .byte   W96
@  #02 @035   ----------------------------------------
 .byte   W96
@  #02 @036   ----------------------------------------
 .byte   W96
@  #02 @037   ----------------------------------------
 .byte   W96
@  #02 @038   ----------------------------------------
 .byte   W96
@  #02 @039   ----------------------------------------
 .byte   W96
@  #02 @040   ----------------------------------------
 .byte   W96
@  #02 @041   ----------------------------------------
 .byte   W96
@  #02 @042   ----------------------------------------
 .byte   W96
@  #02 @043   ----------------------------------------
 .byte   W96
@  #02 @044   ----------------------------------------
 .byte   W96
@  #02 @045   ----------------------------------------
 .byte   W96
@  #02 @046   ----------------------------------------
 .byte   W96
@  #02 @047   ----------------------------------------
 .byte   W96
@  #02 @048   ----------------------------------------
 .byte   W96
@  #02 @049   ----------------------------------------
 .byte   W96
@  #02 @050   ----------------------------------------
 .byte   W96
@  #02 @051   ----------------------------------------
 .byte   W96
@  #02 @052   ----------------------------------------
 .byte   W96
@  #02 @053   ----------------------------------------
 .byte   W96
@  #02 @054   ----------------------------------------
 .byte   W96
@  #02 @055   ----------------------------------------
 .byte   W96
@  #02 @056   ----------------------------------------
 .byte   W96
@  #02 @057   ----------------------------------------
 .byte   W68
 .byte   W03
 .byte   TIE ,As4 ,v076
 .byte   W13
 .byte   Fn4 ,v072
 .byte   W12
@  #02 @058   ----------------------------------------
 .byte   Cn4
 .byte   W96
@  #02 @059   ----------------------------------------
 .byte   W68
 .byte   W02
 .byte   EOT
 .byte   As4
 .byte   W13
 .byte   Fn4
 .byte   W13
@  #02 @060   ----------------------------------------
 .byte   W23
 .byte   Cn4
 .byte   W72
 .byte   W01
@  #02 @061   ----------------------------------------
 .byte   W96
@  #02 @062   ----------------------------------------
 .byte   W96
@  #02 @063   ----------------------------------------
 .byte   W96
@  #02 @064   ----------------------------------------
 .byte   W96
@  #02 @065   ----------------------------------------
 .byte   W96
@  #02 @066   ----------------------------------------
 .byte   GOTO
  .word Label_01726AA6
@  #02 @067   ----------------------------------------
 .byte   W05
 .byte   FINE

@**************** Track 3 (Midi-Chn.2) ****************@

song33_003:
@  #03 @000   ----------------------------------------
 .byte   KEYSH , song33_key+0
Label_01557F7A:
 .byte   VOICE , 1
 .byte   VOL , 29*song33_mvl/mxv
 .byte   PAN , c_v-60
 .byte   W96
@  #03 @001   ----------------------------------------
 .byte   W96
@  #03 @002   ----------------------------------------
 .byte   W96
@  #03 @003   ----------------------------------------
 .byte   W96
@  #03 @004   ----------------------------------------
 .byte   W96
@  #03 @005   ----------------------------------------
 .byte   W96
@  #03 @006   ----------------------------------------
 .byte   W96
@  #03 @007   ----------------------------------------
 .byte   W96
@  #03 @008   ----------------------------------------
 .byte   W96
@  #03 @009   ----------------------------------------
 .byte   W96
@  #03 @010   ----------------------------------------
 .byte   W96
@  #03 @011   ----------------------------------------
 .byte   W96
@  #03 @012   ----------------------------------------
 .byte   W96
@  #03 @013   ----------------------------------------
 .byte   W96
@  #03 @014   ----------------------------------------
 .byte   W96
@  #03 @015   ----------------------------------------
 .byte   W96
@  #03 @016   ----------------------------------------
 .byte   W96
@  #03 @017   ----------------------------------------
 .byte   W96
@  #03 @018   ----------------------------------------
 .byte   W96
@  #03 @019   ----------------------------------------
 .byte   W96
@  #03 @020   ----------------------------------------
 .byte   W96
@  #03 @021   ----------------------------------------
 .byte   W96
@  #03 @022   ----------------------------------------
 .byte   W96
@  #03 @023   ----------------------------------------
 .byte   W96
@  #03 @024   ----------------------------------------
 .byte   W96
@  #03 @025   ----------------------------------------
 .byte   W96
@  #03 @026   ----------------------------------------
 .byte   W44
 .byte   W03
 .byte   N04 ,Gn4 ,v068
 .byte   W19
 .byte   Gn4 ,v028
 .byte   W06
 .byte   N05 ,Cn5 ,v068
 .byte   W18
 .byte   Cn5 ,v044
 .byte   W06
@  #03 @027   ----------------------------------------
 .byte   W12
 .byte   Cn5 ,v028
 .byte   W84
@  #03 @028   ----------------------------------------
 .byte   N06 ,En4 ,v064
 .byte   W18
 .byte   N05 ,En4 ,v028
 .byte   W05
 .byte   An4 ,v064
 .byte   W19
 .byte   An4 ,v044
 .byte   W18
 .byte   An4 ,v028
 .byte   W36
@  #03 @029   ----------------------------------------
 .byte   W96
@  #03 @030   ----------------------------------------
 .byte   W96
@  #03 @031   ----------------------------------------
 .byte   W96
@  #03 @032   ----------------------------------------
 .byte   W48
 .byte   N04 ,Gn4 ,v068
 .byte   W18
 .byte   Gn4 ,v028
 .byte   W06
 .byte   N05 ,Cn5 ,v068
 .byte   W18
 .byte   Cn5 ,v044
 .byte   W06
@  #03 @033   ----------------------------------------
 .byte   W12
 .byte   Cn5 ,v028
 .byte   W84
@  #03 @034   ----------------------------------------
 .byte   N03 ,Cn5 ,v064
 .byte   W18
 .byte   N05 ,Cn5 ,v036
 .byte   W06
 .byte   N03 ,Bn4 ,v068
 .byte   W18
 .byte   N05 ,Bn4 ,v024
 .byte   W06
 .byte   N64 ,An4 ,v076
 .byte   W48
@  #03 @035   ----------------------------------------
 .byte   W24
 .byte   N60 ,Gn4
 .byte   W68
 .byte   W03
 .byte   N66 ,Fn4
 .byte   W01
@  #03 @036   ----------------------------------------
 .byte   W68
 .byte   W03
 .byte   N56 ,Gn4
 .byte   W24
 .byte   W01
@  #03 @037   ----------------------------------------
 .byte   W48
 .byte   TIE ,Cn4
 .byte   W48
@  #03 @038   ----------------------------------------
 .byte   W96
@  #03 @039   ----------------------------------------
 .byte   W06
 .byte   EOT
 .byte   W90
@  #03 @040   ----------------------------------------
 .byte   W96
@  #03 @041   ----------------------------------------
 .byte   W23
 .byte   N10 ,Ds4 ,v080
 .byte   W13
 .byte   Ds4 ,v048
 .byte   W24
 .byte   N05 ,Dn4 ,v080
 .byte   W12
 .byte   Dn4 ,v048
 .byte   N06 ,Ds4 ,v080
 .byte   W11
 .byte   N05 ,Fn4 ,v084
 .byte   W01
 .byte   N06 ,Ds4 ,v048
 .byte   W11
 .byte   Ds4 ,v092
 .byte   W01
@  #03 @042   ----------------------------------------
 .byte   N05 ,Fn4 ,v048
 .byte   W12
 .byte   N06 ,Ds4
 .byte   W60
 .byte   Ds4 ,v084
 .byte   W12
 .byte   Ds4 ,v048
 .byte   W12
@  #03 @043   ----------------------------------------
 .byte   W12
 .byte   N05 ,Dn4 ,v088
 .byte   W12
 .byte   Dn4 ,v048
 .byte   N05 ,Ds4 ,v088
 .byte   W11
 .byte   Fn4 ,v084
 .byte   W01
 .byte   Ds4 ,v048
 .byte   W12
 .byte   Fn4
 .byte   N07 ,Gn4 ,v080
 .byte   W12
 .byte   Gn4 ,v048
 .byte   W32
 .byte   W03
 .byte   Fn4 ,v076
 .byte   W01
@  #03 @044   ----------------------------------------
 .byte   W12
 .byte   Fn4 ,v052
 .byte   W12
 .byte   N09 ,Cn5 ,v076
 .byte   W11
 .byte   N06 ,Gs4
 .byte   W01
 .byte   N09 ,Cn5 ,v052
 .byte   W12
 .byte   N06 ,Gs4
 .byte   N05 ,Fn5 ,v084
 .byte   W11
 .byte   N04 ,Cn5 ,v076
 .byte   W01
 .byte   N05 ,Fn5 ,v052
 .byte   W12
 .byte   N04 ,Gs4 ,v080
 .byte   N04 ,Cn5 ,v052
 .byte   W11
 .byte   N03 ,Fn4 ,v072
 .byte   W01
 .byte   N04 ,Gs4 ,v052
 .byte   W12
@  #03 @045   ----------------------------------------
 .byte   N03 ,Dn4 ,v068
 .byte   N03 ,Fn4 ,v048
 .byte   W12
 .byte   Dn4
 .byte   W60
 .byte   N06 ,Bn4 ,v068
 .byte   W11
 .byte   N05 ,Gn4
 .byte   W01
 .byte   N06 ,Bn4 ,v044
 .byte   W11
 .byte   N05 ,Gn4
 .byte   W01
@  #03 @046   ----------------------------------------
 .byte   N04 ,Dn5 ,v080
 .byte   W12
 .byte   N05 ,Bn4 ,v068
 .byte   N05 ,Dn5 ,v044
 .byte   W11
 .byte   N04 ,Gn5 ,v072
 .byte   W01
 .byte   N05 ,Bn4 ,v044
 .byte   W11
 .byte   N04 ,Gn5
 .byte   W01
 .byte   Dn5 ,v076
 .byte   W11
 .byte   Dn5 ,v044
 .byte   W01
 .byte   N13 ,Ds5 ,v080
 .byte   W32
 .byte   W03
 .byte   N05 ,Dn5 ,v072
 .byte   W12
 .byte   Dn5 ,v044
 .byte   W01
@  #03 @047   ----------------------------------------
 .byte   Cn5 ,v072
 .byte   W12
 .byte   As4 ,v080
 .byte   N05 ,Cn5 ,v044
 .byte   W11
 .byte   N07 ,Cn5 ,v076
 .byte   W01
 .byte   N05 ,As4 ,v044
 .byte   N06 ,Ds5 ,v092
 .byte   W11
 .byte   N07 ,Cn5 ,v044
 .byte   W01
 .byte   N06 ,Ds5
 .byte   W11
 .byte   Gn4 ,v080
 .byte   W12
 .byte   Gn4 ,v044
 .byte   W01
 .byte   N05 ,Dn5 ,v076
 .byte   W12
 .byte   Dn5 ,v044
 .byte   N07 ,Ds5 ,v080
 .byte   W12
 .byte   Ds5 ,v044
 .byte   N05 ,Fn5 ,v080
 .byte   W11
 .byte   N01 ,Ds5 ,v096
 .byte   W01
@  #03 @048   ----------------------------------------
 .byte   N06 ,Ds5 ,v084
 .byte   N05 ,Fn5 ,v044
 .byte   W32
 .byte   W03
 .byte   N04 ,Dn5 ,v068
 .byte   W12
 .byte   N05 ,Cn5 ,v072
 .byte   N04 ,Dn5 ,v044
 .byte   W12
 .byte   N05 ,Cn5
 .byte   W01
 .byte   As4 ,v080
 .byte   W11
 .byte   N07 ,Ds5 ,v092
 .byte   W01
 .byte   N05 ,As4 ,v044
 .byte   N06 ,Cn5 ,v068
 .byte   W11
 .byte   N07 ,Ds5 ,v044
 .byte   W01
 .byte   N06 ,Cn5
 .byte   W11
 .byte   Gn4 ,v088
 .byte   W01
@  #03 @049   ----------------------------------------
 .byte   W11
 .byte   Gn4 ,v044
 .byte   N05 ,Dn5 ,v076
 .byte   W12
 .byte   Dn5 ,v044
 .byte   N06 ,Ds5 ,v084
 .byte   W12
 .byte   Ds5 ,v044
 .byte   W01
 .byte   Fn5 ,v076
 .byte   W12
 .byte   N05 ,Fn4 ,v088
 .byte   N04 ,Fn5 ,v092
 .byte   W12
 .byte   N05 ,Fn4 ,v044
 .byte   N04 ,Fn5
 .byte   W11
 .byte   N08 ,As3 ,v076
 .byte   W12
 .byte   As3 ,v044
 .byte   W01
 .byte   N05 ,Fn5 ,v072
 .byte   W11
 .byte   N06 ,Fn4 ,v088
 .byte   W01
@  #03 @050   ----------------------------------------
 .byte   As4 ,v072
 .byte   N05 ,Fn5 ,v044
 .byte   W11
 .byte   N06 ,Fn4
 .byte   W01
 .byte   As4
 .byte   N06 ,Fn5 ,v076
 .byte   W12
 .byte   Gn4 ,v080
 .byte   N06 ,Fn5 ,v044
 .byte   N06 ,Gn5 ,v088
 .byte   W11
 .byte   Gn5 ,v044
 .byte   W01
 .byte   Gn4
 .byte   W11
 .byte   N08 ,Cn4 ,v072
 .byte   W12
 .byte   Cn4 ,v044
 .byte   N06 ,Fn5 ,v076
 .byte   W12
 .byte   N07 ,Gn4 ,v068
 .byte   N06 ,Cn5 ,v072
 .byte   N06 ,Fn5 ,v044
 .byte   W12
 .byte   N07 ,Gn4
 .byte   N06 ,Cn5
 .byte   N06 ,Fn5 ,v072
 .byte   W12
 .byte   Fn5 ,v044
 .byte   W01
@  #03 @051   ----------------------------------------
 .byte   N07 ,Gn5 ,v076
 .byte   W12
 .byte   Gn5 ,v044
 .byte   W36
 .byte   N05 ,An4 ,v076
 .byte   W11
 .byte   An4 ,v044
 .byte   W13
 .byte   N07 ,Bn4 ,v068
 .byte   W12
 .byte   Bn4 ,v044
 .byte   W12
@  #03 @052   ----------------------------------------
 .byte   W96
@  #03 @053   ----------------------------------------
 .byte   W96
@  #03 @054   ----------------------------------------
 .byte   W96
@  #03 @055   ----------------------------------------
 .byte   W96
@  #03 @056   ----------------------------------------
 .byte   W96
@  #03 @057   ----------------------------------------
 .byte   W96
@  #03 @058   ----------------------------------------
 .byte   W96
@  #03 @059   ----------------------------------------
 .byte   W96
@  #03 @060   ----------------------------------------
 .byte   W96
@  #03 @061   ----------------------------------------
 .byte   W96
@  #03 @062   ----------------------------------------
 .byte   W96
@  #03 @063   ----------------------------------------
 .byte   W96
@  #03 @064   ----------------------------------------
 .byte   W96
@  #03 @065   ----------------------------------------
 .byte   W96
@  #03 @066   ----------------------------------------
 .byte   GOTO
  .word Label_01557F7A
@  #03 @067   ----------------------------------------
 .byte   W05
 .byte   FINE

@**************** Track 4 (Midi-Chn.3) ****************@

song33_004:
@  #04 @000   ----------------------------------------
 .byte   KEYSH , song33_key+0
Label_01558E4E:
 .byte   VOICE , 38
 .byte   VOL , 37*song33_mvl/mxv
 .byte   PAN , c_v+0
 .byte   W96
@  #04 @001   ----------------------------------------
 .byte   W96
@  #04 @002   ----------------------------------------
 .byte   W96
@  #04 @003   ----------------------------------------
 .byte   W96
@  #04 @004   ----------------------------------------
 .byte   W96
@  #04 @005   ----------------------------------------
 .byte   W96
@  #04 @006   ----------------------------------------
 .byte   W96
@  #04 @007   ----------------------------------------
 .byte   W96
@  #04 @008   ----------------------------------------
 .byte   W96
@  #04 @009   ----------------------------------------
 .byte   W96
@  #04 @010   ----------------------------------------
 .byte   W96
@  #04 @011   ----------------------------------------
 .byte   W96
@  #04 @012   ----------------------------------------
 .byte   W72
 .byte   N68 ,An1 ,v088
 .byte   W12
 .byte   N56 ,En2
 .byte   W12
@  #04 @013   ----------------------------------------
Label_01558E68:
 .byte   N44 ,Cn3 ,v088
 .byte   W48
 .byte   N68 ,Gn1
 .byte   W12
 .byte   N56 ,Dn2
 .byte   W12
 .byte   N44 ,Bn2
 .byte   W24
 .byte   PEND 
@  #04 @014   ----------------------------------------
Label_01558E76:
 .byte   W24
 .byte   N68 ,Fn1 ,v088
 .byte   W12
 .byte   N56 ,Cn2
 .byte   W12
 .byte   N44 ,An2
 .byte   W48
 .byte   PEND 
@  #04 @015   ----------------------------------------
Label_01558E82:
 .byte   N68 ,Cn2 ,v088
 .byte   W12
 .byte   N56 ,Gn2
 .byte   W12
 .byte   N23 ,Dn3
 .byte   W24
 .byte   Cn3
 .byte   W24
 .byte   N68 ,An1
 .byte   W12
 .byte   N56 ,En2
 .byte   W12
 .byte   PEND 
@  #04 @016   ----------------------------------------
 .byte   PATT
  .word Label_01558E68
@  #04 @017   ----------------------------------------
Label_01558E9A:
 .byte   W24
 .byte   N44 ,Fn1 ,v088
 .byte   W12
 .byte   N32 ,Cn2
 .byte   W12
 .byte   N23 ,An2
 .byte   W24
 .byte   Gn1
 .byte   N23 ,Dn2
 .byte   N23 ,Bn2
 .byte   W24
 .byte   PEND 
@  #04 @018   ----------------------------------------
 .byte   N64 ,An1
 .byte   W12
 .byte   N32 ,En2
 .byte   W12
 .byte   N23 ,Cn3
 .byte   W12
 .byte   Bn2
 .byte   W12
 .byte   An2
 .byte   W12
 .byte   N11 ,En2
 .byte   W12
 .byte   N68 ,An1
 .byte   W12
 .byte   N56 ,En2
 .byte   W12
@  #04 @019   ----------------------------------------
 .byte   PATT
  .word Label_01558E68
@  #04 @020   ----------------------------------------
 .byte   PATT
  .word Label_01558E76
@  #04 @021   ----------------------------------------
 .byte   PATT
  .word Label_01558E82
@  #04 @022   ----------------------------------------
 .byte   PATT
  .word Label_01558E68
@  #04 @023   ----------------------------------------
 .byte   PATT
  .word Label_01558E9A
@  #04 @024   ----------------------------------------
 .byte   N64 ,An1 ,v088
 .byte   W12
 .byte   N32 ,En2
 .byte   W12
 .byte   N23 ,Cn3
 .byte   W12
 .byte   Bn2
 .byte   W12
 .byte   An2
 .byte   W12
 .byte   En2
 .byte   W12
 .byte   N64 ,An1
 .byte   W12
 .byte   N23 ,En2
 .byte   W12
@  #04 @025   ----------------------------------------
 .byte   An2
 .byte   W12
 .byte   Bn2
 .byte   W12
 .byte   Cn3
 .byte   W12
 .byte   N11 ,En3
 .byte   W12
 .byte   N56 ,Gn1 ,v084
 .byte   W12
 .byte   Dn2
 .byte   W12
 .byte   N44 ,Bn2
 .byte   W24
@  #04 @026   ----------------------------------------
Label_01558F03:
 .byte   W24
 .byte   N56 ,Cn2 ,v084
 .byte   W12
 .byte   Gn2
 .byte   W12
 .byte   N23 ,Dn3
 .byte   W24
 .byte   Cn3
 .byte   W24
 .byte   PEND 
@  #04 @027   ----------------------------------------
 .byte   N56 ,En1
 .byte   W12
 .byte   Bn1
 .byte   W12
 .byte   N44 ,Gs2
 .byte   W48
 .byte   N56 ,An1
 .byte   W12
 .byte   En2
 .byte   W12
@  #04 @028   ----------------------------------------
 .byte   N23 ,Bn2
 .byte   W24
 .byte   An2
 .byte   W24
 .byte   N56 ,Fn1
 .byte   W12
 .byte   Cn2
 .byte   W12
 .byte   N44 ,An2
 .byte   W24
@  #04 @029   ----------------------------------------
 .byte   W24
 .byte   N56 ,Gn1
 .byte   W12
 .byte   Dn2
 .byte   W12
 .byte   N44 ,Gn2
 .byte   W48
@  #04 @030   ----------------------------------------
 .byte   N56 ,Cn2
 .byte   W12
 .byte   Gn2
 .byte   W12
 .byte   N44 ,Cn3
 .byte   W48
 .byte   N56 ,Cn2
 .byte   W12
 .byte   Gn2
 .byte   W12
@  #04 @031   ----------------------------------------
 .byte   N23 ,Dn3
 .byte   W24
 .byte   Cn3
 .byte   W24
 .byte   N56 ,Gn1
 .byte   W12
 .byte   Dn2
 .byte   W12
 .byte   N44 ,Bn2
 .byte   W24
@  #04 @032   ----------------------------------------
 .byte   PATT
  .word Label_01558F03
@  #04 @033   ----------------------------------------
 .byte   N56 ,Bn1 ,v084
 .byte   W12
 .byte   Gs2
 .byte   W12
 .byte   N44 ,Dn3
 .byte   W48
 .byte   An1
 .byte   W12
 .byte   En2
 .byte   W12
@  #04 @034   ----------------------------------------
 .byte   N23 ,Cn3
 .byte   W24
 .byte   Gn1
 .byte   W24
 .byte   N56 ,Fn1
 .byte   W12
 .byte   Cn2
 .byte   W12
 .byte   N44 ,An2
 .byte   W24
@  #04 @035   ----------------------------------------
 .byte   W24
 .byte   N56 ,En1
 .byte   W12
 .byte   Cn2
 .byte   W12
 .byte   N44 ,Gn2
 .byte   W48
@  #04 @036   ----------------------------------------
 .byte   N56 ,Gs1
 .byte   W12
 .byte   Ds2
 .byte   W12
 .byte   N44 ,Cn3
 .byte   W48
 .byte   N56 ,As1
 .byte   W12
 .byte   Fn2
 .byte   W12
@  #04 @037   ----------------------------------------
 .byte   N44 ,Cn3
 .byte   W48
 .byte   N56 ,Cn2
 .byte   W12
 .byte   Gn2
 .byte   W12
 .byte   N23 ,Dn3
 .byte   W24
@  #04 @038   ----------------------------------------
 .byte   Cn3
 .byte   W24
 .byte   N56 ,Cn2
 .byte   W12
 .byte   Gn2
 .byte   W12
 .byte   N23 ,Dn3
 .byte   W24
 .byte   Cn3
 .byte   W24
@  #04 @039   ----------------------------------------
 .byte   N56 ,Fn1
 .byte   W12
 .byte   Cn2
 .byte   W12
 .byte   N23 ,Gn2
 .byte   W24
 .byte   Fn2
 .byte   W24
 .byte   N56 ,As1
 .byte   W12
 .byte   Fn2
 .byte   W12
@  #04 @040   ----------------------------------------
 .byte   N23 ,Cn3
 .byte   W24
 .byte   As2
 .byte   W72
@  #04 @041   ----------------------------------------
 .byte   W96
@  #04 @042   ----------------------------------------
 .byte   W96
@  #04 @043   ----------------------------------------
 .byte   W96
@  #04 @044   ----------------------------------------
 .byte   W96
@  #04 @045   ----------------------------------------
 .byte   W96
@  #04 @046   ----------------------------------------
 .byte   W96
@  #04 @047   ----------------------------------------
 .byte   W96
@  #04 @048   ----------------------------------------
 .byte   W96
@  #04 @049   ----------------------------------------
 .byte   W96
@  #04 @050   ----------------------------------------
 .byte   W96
@  #04 @051   ----------------------------------------
 .byte   W96
@  #04 @052   ----------------------------------------
 .byte   W96
@  #04 @053   ----------------------------------------
 .byte   W96
@  #04 @054   ----------------------------------------
 .byte   W96
@  #04 @055   ----------------------------------------
 .byte   W96
@  #04 @056   ----------------------------------------
 .byte   W96
@  #04 @057   ----------------------------------------
 .byte   W96
@  #04 @058   ----------------------------------------
 .byte   W96
@  #04 @059   ----------------------------------------
 .byte   W96
@  #04 @060   ----------------------------------------
 .byte   W96
@  #04 @061   ----------------------------------------
 .byte   W96
@  #04 @062   ----------------------------------------
 .byte   W96
@  #04 @063   ----------------------------------------
 .byte   W96
@  #04 @064   ----------------------------------------
 .byte   W96
@  #04 @065   ----------------------------------------
 .byte   W96
@  #04 @066   ----------------------------------------
 .byte   GOTO
  .word Label_01558E4E
@  #04 @067   ----------------------------------------
 .byte   W05
 .byte   FINE

@**************** Track 5 (Midi-Chn.4) ****************@

song33_005:
@  #05 @000   ----------------------------------------
 .byte   KEYSH , song33_key+0
Label_01556EFE:
 .byte   VOICE , 30
 .byte   VOL , 37*song33_mvl/mxv
 .byte   PAN , c_v+0
 .byte   W96
@  #05 @001   ----------------------------------------
 .byte   W96
@  #05 @002   ----------------------------------------
 .byte   W96
@  #05 @003   ----------------------------------------
 .byte   W96
@  #05 @004   ----------------------------------------
 .byte   W96
@  #05 @005   ----------------------------------------
 .byte   W96
@  #05 @006   ----------------------------------------
 .byte   W96
@  #05 @007   ----------------------------------------
 .byte   W96
@  #05 @008   ----------------------------------------
 .byte   W96
@  #05 @009   ----------------------------------------
 .byte   W96
@  #05 @010   ----------------------------------------
 .byte   W96
@  #05 @011   ----------------------------------------
 .byte   W96
@  #05 @012   ----------------------------------------
 .byte   W72
 .byte   N32 ,En4 ,v100
 .byte   W24
@  #05 @013   ----------------------------------------
Label_01556F15:
 .byte   W12
 .byte   N11 ,Dn4 ,v100
 .byte   W12
 .byte   Cn4
 .byte   W12
 .byte   Bn3
 .byte   W12
 .byte   N44 ,Cn4
 .byte   W48
 .byte   PEND 
@  #05 @014   ----------------------------------------
Label_01556F22:
 .byte   N23 ,Bn3 ,v100
 .byte   W24
 .byte   N44 ,An3
 .byte   W48
 .byte   N11 ,Gn3
 .byte   W12
 .byte   An3
 .byte   W12
 .byte   PEND 
@  #05 @015   ----------------------------------------
Label_01556F2F:
 .byte   N44 ,En3 ,v100
 .byte   W48
 .byte   N11 ,Cn4
 .byte   W12
 .byte   Dn4
 .byte   W12
 .byte   N32 ,En4
 .byte   W24
 .byte   PEND 
@  #05 @016   ----------------------------------------
 .byte   PATT
  .word Label_01556F15
@  #05 @017   ----------------------------------------
Label_01556F41:
 .byte   N23 ,Bn3 ,v100
 .byte   W24
 .byte   N44 ,An3
 .byte   W48
 .byte   N23 ,Gn3
 .byte   W24
 .byte   PEND 
@  #05 @018   ----------------------------------------
 .byte   N44 ,An3
 .byte   W72
 .byte   N32 ,En4
 .byte   W24
@  #05 @019   ----------------------------------------
 .byte   PATT
  .word Label_01556F15
@  #05 @020   ----------------------------------------
 .byte   PATT
  .word Label_01556F22
@  #05 @021   ----------------------------------------
 .byte   PATT
  .word Label_01556F2F
@  #05 @022   ----------------------------------------
 .byte   PATT
  .word Label_01556F15
@  #05 @023   ----------------------------------------
 .byte   PATT
  .word Label_01556F41
@  #05 @024   ----------------------------------------
 .byte   TIE ,An3 ,v100
 .byte   W96
@  #05 @025   ----------------------------------------
 .byte   W23
 .byte   EOT
 .byte   W24
 .byte   W01
 .byte   N32 ,Gn3
 .byte   W36
 .byte   N11 ,Dn3
 .byte   W12
@  #05 @026   ----------------------------------------
Label_01556F79:
 .byte   N11 ,En3 ,v100
 .byte   W12
 .byte   Fn3
 .byte   W12
 .byte   N23
 .byte   W24
 .byte   N40 ,En3
 .byte   W48
 .byte   PEND 
@  #05 @027   ----------------------------------------
 .byte   N32
 .byte   W36
 .byte   N11 ,Fn3
 .byte   W12
 .byte   En3
 .byte   W12
 .byte   Dn3
 .byte   W12
 .byte   N23
 .byte   W24
@  #05 @028   ----------------------------------------
 .byte   N40 ,Cn3
 .byte   W48
 .byte   N32
 .byte   W36
 .byte   N11 ,Bn2
 .byte   W12
@  #05 @029   ----------------------------------------
 .byte   Cn3
 .byte   W12
 .byte   Dn3
 .byte   W12
 .byte   N23 ,Cn3
 .byte   W24
 .byte   Bn2
 .byte   W24
 .byte   Dn3
 .byte   W24
@  #05 @030   ----------------------------------------
 .byte   N44
 .byte   W48
 .byte   N23 ,En3
 .byte   W24
 .byte   N32
 .byte   W24
@  #05 @031   ----------------------------------------
 .byte   W24
 .byte   N11
 .byte   W12
 .byte   Fn3
 .byte   W12
 .byte   N32 ,Gn3
 .byte   W36
 .byte   N11 ,Dn3
 .byte   W12
@  #05 @032   ----------------------------------------
 .byte   PATT
  .word Label_01556F79
@  #05 @033   ----------------------------------------
 .byte   N32 ,Gs3 ,v100
 .byte   W36
 .byte   N11 ,An3
 .byte   W12
 .byte   Bn3
 .byte   W12
 .byte   En3
 .byte   W12
 .byte   N23 ,Bn3
 .byte   W24
@  #05 @034   ----------------------------------------
 .byte   Cn4
 .byte   W24
 .byte   Dn4
 .byte   W24
 .byte   N32 ,Cn4
 .byte   W36
 .byte   N11 ,Bn3
 .byte   W12
@  #05 @035   ----------------------------------------
 .byte   An3
 .byte   W12
 .byte   Bn3
 .byte   W12
 .byte   N23 ,Cn4
 .byte   W24
 .byte   Gn3
 .byte   W24
 .byte   Cn4
 .byte   W24
@  #05 @036   ----------------------------------------
 .byte   N32 ,Fn4
 .byte   W36
 .byte   N11 ,Ds4
 .byte   W12
 .byte   Dn4
 .byte   W12
 .byte   Cn4
 .byte   W12
 .byte   N44
 .byte   W24
@  #05 @037   ----------------------------------------
 .byte   W24
 .byte   N23 ,As3
 .byte   W24
 .byte   TIE ,Cn4
 .byte   W48
@  #05 @038   ----------------------------------------
 .byte   W96
@  #05 @039   ----------------------------------------
 .byte   W68
 .byte   W03
 .byte   EOT
 .byte   W24
 .byte   W01
@  #05 @040   ----------------------------------------
 .byte   W24
 .byte   N23 ,As3
 .byte   W24
 .byte   N11 ,Ds2 ,v084
 .byte   N64 ,Gn3
 .byte   TIE ,As3
 .byte   N32 ,Ds4 ,v100
 .byte   W12
 .byte   N11 ,As2 ,v084
 .byte   W12
 .byte   Fn3
 .byte   W12
 .byte   As2
 .byte   N11 ,Dn4 ,v100
 .byte   W12
@  #05 @041   ----------------------------------------
 .byte   Ds3 ,v084
 .byte   N11 ,Ds4 ,v100
 .byte   W12
 .byte   Fn2 ,v084
 .byte   N11 ,Fn4 ,v100
 .byte   W12
 .byte   Gn3 ,v084
 .byte   N32 ,Ds4 ,v100
 .byte   W12
 .byte   N11 ,Fn3 ,v084
 .byte   W12
 .byte   Ds3
 .byte   W11
 .byte   EOT
 .byte   As3
 .byte   W01
 .byte   N11 ,Dn3
 .byte   W12
 .byte   Ds3
 .byte   N23 ,As3 ,v100
 .byte   W12
 .byte   N11 ,As2 ,v084
 .byte   W12
@  #05 @042   ----------------------------------------
 .byte   Cn2
 .byte   N24 ,Gn3
 .byte   N68 ,Cn4
 .byte   N32 ,Ds4 ,v100
 .byte   W12
 .byte   N11 ,As2 ,v084
 .byte   W12
 .byte   Gn3
 .byte   W12
 .byte   As2
 .byte   N11 ,Dn4 ,v100
 .byte   W12
 .byte   Ds3 ,v084
 .byte   N11 ,Ds4 ,v100
 .byte   W12
 .byte   Fn2 ,v084
 .byte   N11 ,Fn4 ,v100
 .byte   W12
 .byte   Cn3 ,v084
 .byte   N68 ,Gn3
 .byte   N68 ,Cn4
 .byte   N32 ,Gn4 ,v100
 .byte   W12
 .byte   N11 ,Gn2 ,v084
 .byte   W12
@  #05 @043   ----------------------------------------
 .byte   Cn3
 .byte   W12
 .byte   Dn3
 .byte   W12
 .byte   Ds3
 .byte   N11 ,Gn4 ,v100
 .byte   W12
 .byte   Cn3 ,v084
 .byte   N11 ,Gs4 ,v100
 .byte   W12
 .byte   Fn2 ,v084
 .byte   N68 ,Cn4
 .byte   N68 ,Ds4
 .byte   N44 ,As4 ,v100
 .byte   W12
 .byte   N11 ,Cn3 ,v084
 .byte   W12
 .byte   Gn3
 .byte   W12
 .byte   Cn3
 .byte   W12
@  #05 @044   ----------------------------------------
 .byte   Fn3
 .byte   N11 ,Gs4 ,v100
 .byte   W12
 .byte   Cn3 ,v084
 .byte   N11 ,Gn4 ,v100
 .byte   W12
 .byte   Fn2 ,v084
 .byte   N56 ,Cn4
 .byte   N56 ,Ds4
 .byte   N56 ,Gs4 ,v100
 .byte   W12
 .byte   N11 ,Cn3 ,v084
 .byte   W12
 .byte   Gn3
 .byte   W12
 .byte   Cn3
 .byte   W12
 .byte   Fn3
 .byte   W12
 .byte   Cn3
 .byte   W12
@  #05 @045   ----------------------------------------
 .byte   As1
 .byte   N68 ,As3
 .byte   N68 ,Dn4
 .byte   N44 ,Gs4 ,v100
 .byte   W12
 .byte   N11 ,Fn2 ,v084
 .byte   W12
 .byte   Dn3
 .byte   W12
 .byte   Fn2
 .byte   W12
 .byte   Cn3
 .byte   N11 ,Gn4 ,v100
 .byte   W12
 .byte   Fn2 ,v084
 .byte   N11 ,Fn4 ,v100
 .byte   W12
 .byte   Gn1 ,v084
 .byte   N68 ,Bn3
 .byte   N68 ,Dn4
 .byte   N44 ,Gn4 ,v100
 .byte   W12
 .byte   N11 ,Dn2 ,v084
 .byte   W12
@  #05 @046   ----------------------------------------
 .byte   An2
 .byte   W12
 .byte   Dn2
 .byte   W12
 .byte   An2
 .byte   W12
 .byte   Bn2
 .byte   W12
 .byte   Cn2
 .byte   N68 ,Gn3
 .byte   N56 ,Cn4
 .byte   N32 ,Ds4 ,v100
 .byte   W12
 .byte   N11 ,Gn2 ,v084
 .byte   W12
 .byte   Dn3
 .byte   W12
 .byte   Gn2
 .byte   N11 ,Dn4 ,v100
 .byte   W12
@  #05 @047   ----------------------------------------
 .byte   Cn3 ,v084
 .byte   N11 ,Ds4 ,v100
 .byte   W12
 .byte   Gn2 ,v084
 .byte   N11 ,Fn4 ,v100
 .byte   W12
 .byte   As1 ,v084
 .byte   N68 ,Gn3
 .byte   N68 ,Cn4
 .byte   N32 ,Ds4 ,v100
 .byte   W12
 .byte   N11 ,Gn2 ,v084
 .byte   W12
 .byte   Dn3
 .byte   W12
 .byte   Gn2
 .byte   W12
 .byte   Cn3
 .byte   N11 ,Dn4 ,v100
 .byte   W12
 .byte   Gn2 ,v084
 .byte   W12
@  #05 @048   ----------------------------------------
 .byte   An1
 .byte   N68 ,Gn3
 .byte   N44 ,Cn4
 .byte   N32 ,Ds4 ,v100
 .byte   W12
 .byte   N11 ,Gn2 ,v084
 .byte   W12
 .byte   Dn3
 .byte   W12
 .byte   Gn2
 .byte   N11 ,Dn4 ,v100
 .byte   W12
 .byte   Cn3 ,v084
 .byte   N11 ,Ds4 ,v100
 .byte   W12
 .byte   Gn2 ,v084
 .byte   N11 ,Gn4 ,v100
 .byte   W12
 .byte   Gs1 ,v084
 .byte   N68 ,Ds4
 .byte   N44 ,Gn4
 .byte   N23 ,Dn5 ,v100
 .byte   W12
 .byte   N11 ,Gn2 ,v084
 .byte   W12
@  #05 @049   ----------------------------------------
 .byte   Gn3
 .byte   N23 ,Cn5 ,v100
 .byte   W12
 .byte   N11 ,Gn2 ,v084
 .byte   W12
 .byte   Ds3
 .byte   N23 ,Gn4 ,v100
 .byte   W12
 .byte   N11 ,Gn2 ,v084
 .byte   W12
 .byte   Cs2
 .byte   N68 ,Gs3
 .byte   N56 ,Cs4
 .byte   N32 ,As4 ,v100
 .byte   W12
 .byte   N11 ,Gs2 ,v084
 .byte   W12
 .byte   Ds3
 .byte   W12
 .byte   Gs2
 .byte   N11 ,Gs4 ,v100
 .byte   W12
@  #05 @050   ----------------------------------------
 .byte   Ds3 ,v084
 .byte   N11 ,Gn4 ,v100
 .byte   W12
 .byte   Gs2 ,v084
 .byte   N11 ,Fn4 ,v100
 .byte   W12
 .byte   Dn2 ,v084
 .byte   N44 ,An3
 .byte   N44 ,Dn4
 .byte   N44 ,Gn4 ,v100
 .byte   W12
 .byte   N11 ,An2 ,v084
 .byte   W12
 .byte   Fn3
 .byte   W12
 .byte   An2
 .byte   W12
 .byte   Cn3
 .byte   N23 ,Cn4 ,v100
 .byte   W12
 .byte   N11 ,An2 ,v084
 .byte   W12
@  #05 @051   ----------------------------------------
 .byte   Gn1
 .byte   TIE ,Gn3
 .byte   N68 ,Cn4
 .byte   TIE ,Gn4 ,v100
 .byte   W12
 .byte   N11 ,Dn2 ,v084
 .byte   W12
 .byte   Cn3
 .byte   W12
 .byte   Dn2
 .byte   W12
 .byte   An2
 .byte   W12
 .byte   Dn2
 .byte   W12
 .byte   Gn1
 .byte   N64 ,Bn3
 .byte   W12
 .byte   N11 ,Dn2
 .byte   W12
@  #05 @052   ----------------------------------------
 .byte   An2
 .byte   W12
 .byte   Dn2
 .byte   W11
 .byte   EOT
 .byte   Gn4
 .byte   W01
 .byte   N11 ,Bn2
 .byte   W12
 .byte   Dn2
 .byte   W05
 .byte   EOT
 .byte   Gn3
 .byte   W07
 .byte   TIE ,Cn2
 .byte   N40 ,Dn3
 .byte   N40 ,Fn3 ,v096
 .byte   W48
@  #05 @053   ----------------------------------------
 .byte   N11 ,Cn3 ,v084
 .byte   N11 ,Ds3 ,v096
 .byte   W12
 .byte   Dn3 ,v084
 .byte   N11 ,Fn3 ,v096
 .byte   W12
 .byte   N23 ,Ds3 ,v084
 .byte   N23 ,Gn3 ,v096
 .byte   W24
 .byte   Dn3 ,v084
 .byte   N23 ,Fn3 ,v096
 .byte   W24
 .byte   Cn3 ,v084
 .byte   N23 ,Ds3 ,v096
 .byte   W23
 .byte   EOT
 .byte   Cn2
 .byte   W01
@  #05 @054   ----------------------------------------
 .byte   N68 ,As1 ,v084
 .byte   N23 ,As2
 .byte   N23 ,Dn3 ,v096
 .byte   W24
 .byte   Cn3 ,v084
 .byte   N23 ,Ds3 ,v096
 .byte   W24
 .byte   As2 ,v084
 .byte   N23 ,Dn3 ,v096
 .byte   W24
 .byte   N68 ,Gs1 ,v084
 .byte   N44 ,Gs2
 .byte   N44 ,Cn3 ,v096
 .byte   W24
@  #05 @055   ----------------------------------------
 .byte   W24
 .byte   N11 ,Dn3
 .byte   W12
 .byte   Ds3
 .byte   W12
 .byte   TIE ,Cn2 ,v084
 .byte   N40 ,Dn3
 .byte   N40 ,Fn3 ,v096
 .byte   W48
@  #05 @056   ----------------------------------------
 .byte   N11 ,Cn3 ,v084
 .byte   N11 ,Ds3 ,v096
 .byte   W12
 .byte   Dn3 ,v084
 .byte   N11 ,Fn3 ,v096
 .byte   W12
 .byte   N23 ,Ds3 ,v084
 .byte   N23 ,Gn3 ,v096
 .byte   W24
 .byte   Gn3 ,v084
 .byte   N23 ,Cn4 ,v096
 .byte   W24
 .byte   Ds3 ,v084
 .byte   N23 ,Gn3 ,v096
 .byte   W23
 .byte   EOT
 .byte   Cn2
 .byte   W01
@  #05 @057   ----------------------------------------
 .byte   N68 ,As1 ,v084
 .byte   N23 ,As2
 .byte   N23 ,Dn3 ,v096
 .byte   W24
 .byte   Ds3 ,v084
 .byte   N23 ,Gn3 ,v096
 .byte   W24
 .byte   Fn3 ,v084
 .byte   N23 ,As3 ,v096
 .byte   W24
 .byte   TIE ,Gs1 ,v084
 .byte   TIE ,Cn4
 .byte   TIE ,Ds4 ,v096
 .byte   W24
@  #05 @058   ----------------------------------------
 .byte   W96
@  #05 @059   ----------------------------------------
 .byte   W92
 .byte   W03
 .byte   EOT
 .byte   Gs1 ,v072
 .byte   Ds4
 .byte   W01
@  #05 @060   ----------------------------------------
 .byte   TIE ,Fn1 ,v084
 .byte   W96
@  #05 @061   ----------------------------------------
 .byte   W96
@  #05 @062   ----------------------------------------
 .byte   W92
 .byte   W03
 .byte   EOT
 .byte   W01
@  #05 @063   ----------------------------------------
 .byte   W96
@  #05 @064   ----------------------------------------
 .byte   W96
@  #05 @065   ----------------------------------------
 .byte   W96
@  #05 @066   ----------------------------------------
 .byte   GOTO
  .word Label_01556EFE
@  #05 @067   ----------------------------------------
 .byte   W05
 .byte   FINE

@**************** Track 6 (Midi-Chn.5) ****************@

song33_006:
@  #06 @000   ----------------------------------------
 .byte   KEYSH , song33_key+0
Label_0155820A:
 .byte   VOICE , 4
 .byte   VOL , 34*song33_mvl/mxv
 .byte   PAN , c_v+0
 .byte   TIE ,An0 ,v092
 .byte   W96
@  #06 @001   ----------------------------------------
 .byte   W96
@  #06 @002   ----------------------------------------
 .byte   W92
 .byte   W03
 .byte   EOT
 .byte   W01
@  #06 @003   ----------------------------------------
Label_01558219:
 .byte   N68 ,An0 ,v092
 .byte   W72
 .byte   Gn0
 .byte   W24
 .byte   PEND 
@  #06 @004   ----------------------------------------
 .byte   W48
 .byte   Fn0
 .byte   W48
@  #06 @005   ----------------------------------------
 .byte   W24
 .byte   En0
 .byte   W72
@  #06 @006   ----------------------------------------
 .byte   PATT
  .word Label_01558219
@  #06 @007   ----------------------------------------
 .byte   W48
 .byte   N68 ,Fn0 ,v092
 .byte   W48
@  #06 @008   ----------------------------------------
 .byte   W24
 .byte   TIE ,En0
 .byte   W72
@  #06 @009   ----------------------------------------
 .byte   W96
@  #06 @010   ----------------------------------------
 .byte   W44
 .byte   W03
 .byte   EOT
 .byte   W01
 .byte   TIE ,En0 ,v076
 .byte   W48
@  #06 @011   ----------------------------------------
 .byte   W96
@  #06 @012   ----------------------------------------
 .byte   W68
 .byte   W03
 .byte   EOT
 .byte   W24
 .byte   W01
@  #06 @013   ----------------------------------------
 .byte   W96
@  #06 @014   ----------------------------------------
 .byte   W96
@  #06 @015   ----------------------------------------
 .byte   W96
@  #06 @016   ----------------------------------------
 .byte   W96
@  #06 @017   ----------------------------------------
 .byte   W96
@  #06 @018   ----------------------------------------
 .byte   W96
@  #06 @019   ----------------------------------------
 .byte   W96
@  #06 @020   ----------------------------------------
 .byte   W96
@  #06 @021   ----------------------------------------
 .byte   W96
@  #06 @022   ----------------------------------------
 .byte   W96
@  #06 @023   ----------------------------------------
 .byte   W96
@  #06 @024   ----------------------------------------
 .byte   W96
@  #06 @025   ----------------------------------------
 .byte   W96
@  #06 @026   ----------------------------------------
 .byte   W96
@  #06 @027   ----------------------------------------
 .byte   W96
@  #06 @028   ----------------------------------------
 .byte   W96
@  #06 @029   ----------------------------------------
 .byte   W96
@  #06 @030   ----------------------------------------
 .byte   W96
@  #06 @031   ----------------------------------------
 .byte   W96
@  #06 @032   ----------------------------------------
 .byte   W96
@  #06 @033   ----------------------------------------
 .byte   W96
@  #06 @034   ----------------------------------------
 .byte   W96
@  #06 @035   ----------------------------------------
 .byte   W96
@  #06 @036   ----------------------------------------
 .byte   W96
@  #06 @037   ----------------------------------------
 .byte   W96
@  #06 @038   ----------------------------------------
 .byte   W96
@  #06 @039   ----------------------------------------
 .byte   W96
@  #06 @040   ----------------------------------------
 .byte   W24
 .byte   N23 ,As2 ,v092
 .byte   W24
 .byte   TIE ,Ds2 ,v080
 .byte   N32 ,Ds3 ,v092
 .byte   W36
 .byte   N11 ,Dn3
 .byte   W12
@  #06 @041   ----------------------------------------
 .byte   Ds3
 .byte   W12
 .byte   Fn3
 .byte   W12
 .byte   N44 ,Ds3
 .byte   W48
 .byte   N23 ,As2
 .byte   W23
 .byte   EOT
 .byte   Ds2
 .byte   W01
@  #06 @042   ----------------------------------------
 .byte   TIE ,Cn2 ,v080
 .byte   N32 ,Ds3 ,v092
 .byte   W36
 .byte   N11 ,Dn3
 .byte   W12
 .byte   Ds3
 .byte   W12
 .byte   Fn3
 .byte   W12
 .byte   N40 ,Gn3
 .byte   W24
@  #06 @043   ----------------------------------------
 .byte   W24
 .byte   N11
 .byte   W12
 .byte   Gs3
 .byte   W11
 .byte   EOT
 .byte   Cn2
 .byte   W01
 .byte   TIE ,Fn1 ,v080
 .byte   N44 ,As3 ,v092
 .byte   W48
@  #06 @044   ----------------------------------------
 .byte   N11 ,Gs3
 .byte   W12
 .byte   Gn3
 .byte   W12
 .byte   N56 ,Gs3
 .byte   W68
 .byte   W03
 .byte   EOT
 .byte   Fn1
 .byte   W01
@  #06 @045   ----------------------------------------
 .byte   N68 ,As1 ,v080
 .byte   N44 ,Gs3 ,v092
 .byte   W48
 .byte   N11 ,Gn3
 .byte   W12
 .byte   Fn3
 .byte   W12
 .byte   N68 ,Gn1 ,v080
 .byte   N56 ,Gn3 ,v092
 .byte   W24
@  #06 @046   ----------------------------------------
 .byte   W48
 .byte   N68 ,Cn2 ,v080
 .byte   N32 ,Ds3 ,v092
 .byte   W36
 .byte   N11 ,Dn3
 .byte   W12
@  #06 @047   ----------------------------------------
 .byte   Ds3
 .byte   W12
 .byte   Fn3
 .byte   W12
 .byte   N68 ,As1 ,v080
 .byte   N40 ,Ds3 ,v092
 .byte   W48
 .byte   N23 ,Dn3
 .byte   W24
@  #06 @048   ----------------------------------------
 .byte   N68 ,An1 ,v080
 .byte   N32 ,Ds3 ,v092
 .byte   W36
 .byte   N11 ,Dn3
 .byte   W12
 .byte   Ds3
 .byte   W12
 .byte   Gn3
 .byte   W12
 .byte   N68 ,Gs1 ,v080
 .byte   N23 ,Dn4 ,v092
 .byte   W24
@  #06 @049   ----------------------------------------
 .byte   Cn4
 .byte   W24
 .byte   Gn3
 .byte   W24
 .byte   N68 ,Cs2 ,v080
 .byte   N32 ,As3 ,v092
 .byte   W36
 .byte   N11 ,Gs3
 .byte   W12
@  #06 @050   ----------------------------------------
 .byte   Gn3
 .byte   W12
 .byte   Fn3
 .byte   W12
 .byte   N68 ,Dn2 ,v080
 .byte   N40 ,Gn3 ,v092
 .byte   W48
 .byte   N23 ,Cn3
 .byte   W24
@  #06 @051   ----------------------------------------
 .byte   TIE ,Gn1 ,v080
 .byte   TIE ,Gn3 ,v092
 .byte   W96
@  #06 @052   ----------------------------------------
 .byte   W32
 .byte   W03
 .byte   EOT
 .byte   W12
 .byte   EOT
 .byte   Gn1
 .byte   W48
 .byte   W01
@  #06 @053   ----------------------------------------
 .byte   W96
@  #06 @054   ----------------------------------------
 .byte   W96
@  #06 @055   ----------------------------------------
 .byte   W96
@  #06 @056   ----------------------------------------
 .byte   W96
@  #06 @057   ----------------------------------------
 .byte   W96
@  #06 @058   ----------------------------------------
 .byte   W96
@  #06 @059   ----------------------------------------
 .byte   W96
@  #06 @060   ----------------------------------------
 .byte   TIE ,Fn1
 .byte   W96
@  #06 @061   ----------------------------------------
 .byte   W96
@  #06 @062   ----------------------------------------
 .byte   W92
 .byte   W03
 .byte   EOT
 .byte   W01
@  #06 @063   ----------------------------------------
 .byte   N68
 .byte   W72
 .byte   Ds1
 .byte   W24
@  #06 @064   ----------------------------------------
 .byte   W48
 .byte   Cs1
 .byte   W48
@  #06 @065   ----------------------------------------
 .byte   W24
 .byte   Cn1
 .byte   W72
@  #06 @066   ----------------------------------------
 .byte   GOTO
  .word Label_0155820A
@  #06 @067   ----------------------------------------
 .byte   W05
 .byte   FINE

@**************** Track 7 (Midi-Chn.6) ****************@

song33_007:
@  #07 @000   ----------------------------------------
 .byte   KEYSH , song33_key+0
Label_015572D2:
 .byte   VOICE , 38
 .byte   VOL , 34*song33_mvl/mxv
 .byte   PAN , c_v+0
 .byte   W96
@  #07 @001   ----------------------------------------
 .byte   W96
@  #07 @002   ----------------------------------------
 .byte   W96
@  #07 @003   ----------------------------------------
 .byte   W96
@  #07 @004   ----------------------------------------
 .byte   W96
@  #07 @005   ----------------------------------------
 .byte   W96
@  #07 @006   ----------------------------------------
 .byte   W96
@  #07 @007   ----------------------------------------
 .byte   W96
@  #07 @008   ----------------------------------------
 .byte   W96
@  #07 @009   ----------------------------------------
 .byte   W96
@  #07 @010   ----------------------------------------
 .byte   W96
@  #07 @011   ----------------------------------------
 .byte   W96
@  #07 @012   ----------------------------------------
 .byte   W72
 .byte   N28 ,An1 ,v127
 .byte   W24
@  #07 @013   ----------------------------------------
Label_015572E9:
 .byte   W12
 .byte   N11 ,An1 ,v120
 .byte   W12
 .byte   N11
 .byte   W24
 .byte   N28 ,Gn1 ,v127
 .byte   W36
 .byte   N11 ,Gn1 ,v120
 .byte   W12
 .byte   PEND 
@  #07 @014   ----------------------------------------
Label_015572F9:
 .byte   N11 ,Gn1 ,v120
 .byte   W24
 .byte   N28 ,Fn1 ,v127
 .byte   W36
 .byte   N11 ,Fn1 ,v120
 .byte   W12
 .byte   N11
 .byte   W24
 .byte   PEND 
@  #07 @015   ----------------------------------------
Label_01557308:
 .byte   N28 ,Cn2 ,v127
 .byte   W36
 .byte   N11 ,Cn2 ,v120
 .byte   W12
 .byte   N11
 .byte   W24
 .byte   N28 ,An1 ,v127
 .byte   W24
 .byte   PEND 
@  #07 @016   ----------------------------------------
 .byte   PATT
  .word Label_015572E9
@  #07 @017   ----------------------------------------
Label_0155731C:
 .byte   N11 ,Gn1 ,v120
 .byte   W24
 .byte   N28 ,Fn1 ,v127
 .byte   W36
 .byte   N11 ,Fn1 ,v120
 .byte   W12
 .byte   Gn1
 .byte   W24
 .byte   PEND 
@  #07 @018   ----------------------------------------
 .byte   N28 ,An1 ,v127
 .byte   W36
 .byte   N11 ,En2 ,v120
 .byte   W12
 .byte   An2
 .byte   W12
 .byte   En2
 .byte   W12
 .byte   N28 ,An1 ,v127
 .byte   W24
@  #07 @019   ----------------------------------------
 .byte   PATT
  .word Label_015572E9
@  #07 @020   ----------------------------------------
 .byte   PATT
  .word Label_015572F9
@  #07 @021   ----------------------------------------
 .byte   PATT
  .word Label_01557308
@  #07 @022   ----------------------------------------
 .byte   PATT
  .word Label_015572E9
@  #07 @023   ----------------------------------------
 .byte   PATT
  .word Label_0155731C
@  #07 @024   ----------------------------------------
 .byte   N28 ,An1 ,v127
 .byte   W36
 .byte   N11 ,An1 ,v120
 .byte   W12
 .byte   N11
 .byte   W24
 .byte   N28 ,An1 ,v127
 .byte   W24
@  #07 @025   ----------------------------------------
 .byte   W12
 .byte   N11 ,En1 ,v120
 .byte   W12
 .byte   An1
 .byte   W12
 .byte   En1
 .byte   W12
 .byte   N28 ,Gn1 ,v127
 .byte   W36
 .byte   N11 ,Gn1 ,v120
 .byte   W12
@  #07 @026   ----------------------------------------
Label_01557373:
 .byte   N11 ,Dn2 ,v120
 .byte   W12
 .byte   Gn1
 .byte   W12
 .byte   N23 ,Cn2 ,v127
 .byte   W24
 .byte   N11 ,Cn2 ,v120
 .byte   W48
 .byte   PEND 
@  #07 @027   ----------------------------------------
 .byte   N28 ,En2 ,v127
 .byte   W36
 .byte   N11 ,En2 ,v120
 .byte   W12
 .byte   Bn1
 .byte   W12
 .byte   En2
 .byte   W12
 .byte   N23 ,An1 ,v127
 .byte   W24
@  #07 @028   ----------------------------------------
 .byte   N11 ,An1 ,v120
 .byte   W48
 .byte   N32 ,Fn1 ,v127
 .byte   W36
 .byte   N11 ,Cn2 ,v120
 .byte   W12
@  #07 @029   ----------------------------------------
 .byte   Fn2
 .byte   W12
 .byte   Cn2
 .byte   W12
 .byte   N32 ,Gn1 ,v127
 .byte   W36
 .byte   N11 ,Dn2 ,v120
 .byte   W12
 .byte   Gn2
 .byte   W12
 .byte   Dn2
 .byte   W12
@  #07 @030   ----------------------------------------
 .byte   N28 ,Cn2 ,v127
 .byte   W36
 .byte   N11 ,Cn2 ,v120
 .byte   W12
 .byte   Gn1
 .byte   W12
 .byte   Cn2
 .byte   W12
 .byte   N23 ,Cn2 ,v127
 .byte   W24
@  #07 @031   ----------------------------------------
 .byte   N11 ,Cn2 ,v120
 .byte   W48
 .byte   N28 ,Gn1 ,v127
 .byte   W36
 .byte   N11 ,Gn1 ,v120
 .byte   W12
@  #07 @032   ----------------------------------------
 .byte   PATT
  .word Label_01557373
@  #07 @033   ----------------------------------------
 .byte   N32 ,Bn1 ,v127
 .byte   W36
 .byte   N11 ,En2 ,v120
 .byte   W12
 .byte   Bn1
 .byte   W12
 .byte   En2
 .byte   W12
 .byte   N23 ,An1 ,v127
 .byte   W24
@  #07 @034   ----------------------------------------
 .byte   N11 ,An1 ,v120
 .byte   W24
 .byte   Gn1
 .byte   W24
 .byte   N28 ,Fn2 ,v127
 .byte   W36
 .byte   N11 ,Cn2 ,v120
 .byte   W12
@  #07 @035   ----------------------------------------
 .byte   Fn2
 .byte   W12
 .byte   Cn2
 .byte   W12
 .byte   N28 ,En2 ,v127
 .byte   W36
 .byte   N11 ,Cn2 ,v120
 .byte   W12
 .byte   Gn2
 .byte   W12
 .byte   Cn2
 .byte   W12
@  #07 @036   ----------------------------------------
 .byte   N28 ,Gs1 ,v127
 .byte   W36
 .byte   N11 ,Ds2 ,v120
 .byte   W12
 .byte   Gs1
 .byte   W12
 .byte   Ds2
 .byte   W12
 .byte   N28 ,As1 ,v127
 .byte   W24
@  #07 @037   ----------------------------------------
 .byte   W12
 .byte   N11 ,Fn2 ,v120
 .byte   W12
 .byte   As1
 .byte   W12
 .byte   Fn2
 .byte   W12
 .byte   N28 ,Cn2 ,v127
 .byte   W36
 .byte   N11 ,Cn2 ,v120
 .byte   W12
@  #07 @038   ----------------------------------------
 .byte   Gn1
 .byte   W12
 .byte   Cn2
 .byte   W12
 .byte   N28 ,Cn2 ,v127
 .byte   W36
 .byte   N11 ,Cn2 ,v120
 .byte   W12
 .byte   Gn1
 .byte   W12
 .byte   Cn2
 .byte   W12
@  #07 @039   ----------------------------------------
 .byte   N28 ,Fn1 ,v127
 .byte   W36
 .byte   N11 ,Fn1 ,v120
 .byte   W12
 .byte   Cn2
 .byte   W12
 .byte   Fn2
 .byte   W12
 .byte   N28 ,As1 ,v127
 .byte   W24
@  #07 @040   ----------------------------------------
 .byte   W12
 .byte   N11 ,Fn1 ,v120
 .byte   W12
 .byte   As1
 .byte   W12
 .byte   Fn2
 .byte   W60
@  #07 @041   ----------------------------------------
 .byte   W96
@  #07 @042   ----------------------------------------
 .byte   W96
@  #07 @043   ----------------------------------------
 .byte   W96
@  #07 @044   ----------------------------------------
 .byte   W96
@  #07 @045   ----------------------------------------
 .byte   W96
@  #07 @046   ----------------------------------------
 .byte   W96
@  #07 @047   ----------------------------------------
 .byte   W96
@  #07 @048   ----------------------------------------
 .byte   W96
@  #07 @049   ----------------------------------------
 .byte   W96
@  #07 @050   ----------------------------------------
 .byte   W96
@  #07 @051   ----------------------------------------
 .byte   W96
@  #07 @052   ----------------------------------------
 .byte   W48
 .byte   TIE ,Cn2 ,v127
 .byte   W48
@  #07 @053   ----------------------------------------
 .byte   W92
 .byte   W03
 .byte   EOT
 .byte   W01
@  #07 @054   ----------------------------------------
 .byte   N32 ,As1
 .byte   W36
 .byte   N11 ,As1 ,v120
 .byte   W12
 .byte   Fn1
 .byte   W12
 .byte   As1
 .byte   W12
 .byte   Gs1
 .byte   W12
 .byte   Ds1
 .byte   W12
@  #07 @055   ----------------------------------------
 .byte   W12
 .byte   Gs1
 .byte   W12
 .byte   Ds1
 .byte   W12
 .byte   As1
 .byte   W12
 .byte   TIE ,Cn2 ,v127
 .byte   W48
@  #07 @056   ----------------------------------------
 .byte   W92
 .byte   W03
 .byte   EOT
 .byte   W01
@  #07 @057   ----------------------------------------
 .byte   N68 ,As1
 .byte   W72
 .byte   TIE ,Gs1
 .byte   W24
@  #07 @058   ----------------------------------------
 .byte   W96
@  #07 @059   ----------------------------------------
 .byte   W23
 .byte   EOT
 .byte   W72
 .byte   W01
@  #07 @060   ----------------------------------------
 .byte   W96
@  #07 @061   ----------------------------------------
 .byte   W96
@  #07 @062   ----------------------------------------
 .byte   W96
@  #07 @063   ----------------------------------------
 .byte   W96
@  #07 @064   ----------------------------------------
 .byte   W96
@  #07 @065   ----------------------------------------
 .byte   W96
@  #07 @066   ----------------------------------------
 .byte   GOTO
  .word Label_015572D2
@  #07 @067   ----------------------------------------
 .byte   W05
 .byte   FINE

@**************** Track 8 (Midi-Chn.7) ****************@

song33_008:
@  #08 @000   ----------------------------------------
 .byte   KEYSH , song33_key+0
Label_01558B3A:
 .byte   VOICE , 1
 .byte   VOL , 31*song33_mvl/mxv
 .byte   PAN , c_v+0
 .byte   N11 ,Cn3 ,v092
 .byte   N11 ,En3
 .byte   W12
 .byte   En2
 .byte   W12
 .byte   Bn2
 .byte   N11 ,Dn3
 .byte   W12
 .byte   En2
 .byte   W12
 .byte   Cn3
 .byte   N11 ,En3
 .byte   W12
 .byte   En2
 .byte   W12
 .byte   Dn3
 .byte   N11 ,Fn3
 .byte   W12
 .byte   En2
 .byte   W12
@  #08 @001   ----------------------------------------
 .byte   Cn3
 .byte   N11 ,En3
 .byte   W12
 .byte   En2
 .byte   W12
 .byte   Bn2
 .byte   N11 ,Dn3
 .byte   W12
 .byte   En2
 .byte   W12
 .byte   Cn3
 .byte   N11 ,En3
 .byte   W12
 .byte   En2
 .byte   W12
 .byte   Bn2
 .byte   N11 ,Dn3
 .byte   W12
 .byte   En2
 .byte   W12
@  #08 @002   ----------------------------------------
 .byte   Cn3
 .byte   N11 ,En3
 .byte   W12
 .byte   En2
 .byte   W12
 .byte   Dn3
 .byte   N11 ,Fn3
 .byte   W12
 .byte   En2
 .byte   W12
 .byte   Cn3
 .byte   N11 ,En3
 .byte   W12
 .byte   En2
 .byte   W12
 .byte   Bn2
 .byte   N11 ,Dn3
 .byte   W12
 .byte   En2
 .byte   W12
@  #08 @003   ----------------------------------------
Label_01558B8A:
 .byte   N11 ,Cn3 ,v092
 .byte   N11 ,En3
 .byte   W12
 .byte   En2
 .byte   W12
 .byte   En3
 .byte   N11 ,Gn3
 .byte   W12
 .byte   En2
 .byte   W12
 .byte   Cn3
 .byte   N11 ,En3
 .byte   W12
 .byte   En2
 .byte   W12
 .byte   Bn2
 .byte   N11 ,Dn3
 .byte   W12
 .byte   En2
 .byte   W12
 .byte   PEND 
@  #08 @004   ----------------------------------------
Label_01558BA5:
 .byte   N11 ,Cn3 ,v092
 .byte   N11 ,En3
 .byte   W12
 .byte   En2
 .byte   W12
 .byte   Bn2
 .byte   N11 ,Dn3
 .byte   W12
 .byte   En2
 .byte   W12
 .byte   An2
 .byte   N11 ,Cn3
 .byte   W12
 .byte   En2
 .byte   W12
 .byte   Bn2
 .byte   N11 ,Dn3
 .byte   W12
 .byte   En2
 .byte   W12
 .byte   PEND 
@  #08 @005   ----------------------------------------
 .byte   An2
 .byte   N11 ,Cn3
 .byte   W12
 .byte   En2
 .byte   W12
 .byte   Gs2
 .byte   N11 ,Bn2
 .byte   W12
 .byte   En2
 .byte   W12
 .byte   An2
 .byte   N11 ,Cn3
 .byte   W12
 .byte   En2
 .byte   W12
 .byte   Bn2
 .byte   N11 ,Dn3
 .byte   W12
 .byte   En2
 .byte   W12
@  #08 @006   ----------------------------------------
 .byte   PATT
  .word Label_01558B8A
@  #08 @007   ----------------------------------------
 .byte   PATT
  .word Label_01558BA5
@  #08 @008   ----------------------------------------
 .byte   N11 ,An2 ,v092
 .byte   N11 ,Cn3
 .byte   W12
 .byte   En2
 .byte   W12
 .byte   Gs2
 .byte   N11 ,Bn2
 .byte   W12
 .byte   En2
 .byte   W12
 .byte   Gs2
 .byte   W12
 .byte   An2
 .byte   W12
 .byte   Bn2
 .byte   W12
 .byte   En2
 .byte   W12
@  #08 @009   ----------------------------------------
 .byte   An2
 .byte   N11 ,Cn3
 .byte   W12
 .byte   En2
 .byte   W12
 .byte   An2
 .byte   W12
 .byte   Bn2
 .byte   W12
 .byte   Cn3
 .byte   W12
 .byte   En2
 .byte   W12
 .byte   Bn2
 .byte   N11 ,Dn3
 .byte   W12
 .byte   Fn2
 .byte   W12
@  #08 @010   ----------------------------------------
 .byte   An2
 .byte   W12
 .byte   Bn2
 .byte   W12
 .byte   Dn3
 .byte   W12
 .byte   Fn2
 .byte   W12
 .byte   TIE ,En2
 .byte   W04
 .byte   Gs2
 .byte   W01
 .byte   Bn2
 .byte   W03
 .byte   En3
 .byte   W40
@  #08 @011   ----------------------------------------
 .byte   W88
 .byte   W01
 .byte   EOT
 .byte   Bn2
 .byte   W01
 .byte   En2 ,v064
 .byte   W01
 .byte   Gs2
 .byte   W05
@  #08 @012   ----------------------------------------
 .byte   W96
@  #08 @013   ----------------------------------------
 .byte   W96
@  #08 @014   ----------------------------------------
 .byte   W96
@  #08 @015   ----------------------------------------
 .byte   W96
@  #08 @016   ----------------------------------------
 .byte   W96
@  #08 @017   ----------------------------------------
 .byte   W96
@  #08 @018   ----------------------------------------
 .byte   W96
@  #08 @019   ----------------------------------------
 .byte   W96
@  #08 @020   ----------------------------------------
 .byte   W96
@  #08 @021   ----------------------------------------
 .byte   W96
@  #08 @022   ----------------------------------------
 .byte   W96
@  #08 @023   ----------------------------------------
 .byte   W96
@  #08 @024   ----------------------------------------
 .byte   W96
@  #08 @025   ----------------------------------------
 .byte   W96
@  #08 @026   ----------------------------------------
 .byte   W96
@  #08 @027   ----------------------------------------
 .byte   W96
@  #08 @028   ----------------------------------------
 .byte   W96
@  #08 @029   ----------------------------------------
 .byte   W96
@  #08 @030   ----------------------------------------
 .byte   W96
@  #08 @031   ----------------------------------------
 .byte   W96
@  #08 @032   ----------------------------------------
 .byte   W96
@  #08 @033   ----------------------------------------
 .byte   W96
@  #08 @034   ----------------------------------------
 .byte   W96
@  #08 @035   ----------------------------------------
 .byte   W96
@  #08 @036   ----------------------------------------
 .byte   W96
@  #08 @037   ----------------------------------------
 .byte   W96
@  #08 @038   ----------------------------------------
 .byte   W96
@  #08 @039   ----------------------------------------
 .byte   W96
@  #08 @040   ----------------------------------------
 .byte   W96
@  #08 @041   ----------------------------------------
 .byte   W96
@  #08 @042   ----------------------------------------
 .byte   W96
@  #08 @043   ----------------------------------------
 .byte   W96
@  #08 @044   ----------------------------------------
 .byte   W96
@  #08 @045   ----------------------------------------
 .byte   W96
@  #08 @046   ----------------------------------------
 .byte   W96
@  #08 @047   ----------------------------------------
 .byte   W96
@  #08 @048   ----------------------------------------
 .byte   W96
@  #08 @049   ----------------------------------------
 .byte   W96
@  #08 @050   ----------------------------------------
 .byte   W96
@  #08 @051   ----------------------------------------
 .byte   W96
@  #08 @052   ----------------------------------------
 .byte   W96
@  #08 @053   ----------------------------------------
 .byte   W96
@  #08 @054   ----------------------------------------
 .byte   W96
@  #08 @055   ----------------------------------------
 .byte   W96
@  #08 @056   ----------------------------------------
 .byte   W96
@  #08 @057   ----------------------------------------
 .byte   W96
@  #08 @058   ----------------------------------------
 .byte   W96
@  #08 @059   ----------------------------------------
 .byte   W96
@  #08 @060   ----------------------------------------
 .byte   N11
 .byte   N11 ,Cn3
 .byte   W12
 .byte   Cn2
 .byte   W12
 .byte   Gn2
 .byte   N11 ,As2
 .byte   W12
 .byte   Cn2
 .byte   W12
 .byte   Gs2
 .byte   N11 ,Cn3
 .byte   W12
 .byte   Cn2
 .byte   W12
 .byte   As2
 .byte   N11 ,Cs3
 .byte   W12
 .byte   Cn2
 .byte   W12
@  #08 @061   ----------------------------------------
 .byte   Gs2
 .byte   N11 ,Cn3
 .byte   W12
 .byte   Cn2
 .byte   W12
 .byte   Gn2
 .byte   N11 ,As2
 .byte   W12
 .byte   Cn2
 .byte   W12
 .byte   Gs2
 .byte   N11 ,Cn3
 .byte   W12
 .byte   Cn2
 .byte   W12
 .byte   Gn2
 .byte   N11 ,As2
 .byte   W12
 .byte   Cn2
 .byte   W12
@  #08 @062   ----------------------------------------
 .byte   Gs2
 .byte   N11 ,Cn3
 .byte   W12
 .byte   Cn2
 .byte   W12
 .byte   As2
 .byte   N11 ,Cs3
 .byte   W12
 .byte   Cn2
 .byte   W12
 .byte   Gs2
 .byte   N11 ,Cn3
 .byte   W12
 .byte   Cn2
 .byte   W12
 .byte   Gn2
 .byte   N11 ,As2
 .byte   W12
 .byte   Cn2
 .byte   W12
@  #08 @063   ----------------------------------------
 .byte   Gs2
 .byte   N11 ,Cn3
 .byte   W12
 .byte   Cn2
 .byte   W12
 .byte   Cn3
 .byte   N11 ,Ds3
 .byte   W12
 .byte   Cn2
 .byte   W12
 .byte   Gs2
 .byte   N11 ,Cn3
 .byte   W12
 .byte   Cn2
 .byte   W12
 .byte   Gn2
 .byte   N11 ,As2
 .byte   W12
 .byte   Cn2
 .byte   W12
@  #08 @064   ----------------------------------------
 .byte   Gs2
 .byte   N11 ,Cn3
 .byte   W12
 .byte   Cn2
 .byte   W12
 .byte   Gn2
 .byte   N11 ,As2
 .byte   W12
 .byte   Cn2
 .byte   W12
 .byte   Fn2
 .byte   N11 ,Gs2
 .byte   W12
 .byte   Cn2
 .byte   W12
 .byte   Gn2
 .byte   N11 ,As2
 .byte   W12
 .byte   Cn2
 .byte   W12
@  #08 @065   ----------------------------------------
 .byte   Fn2
 .byte   N11 ,Gs2
 .byte   W12
 .byte   Cn2
 .byte   W12
 .byte   En2
 .byte   N11 ,Gn2
 .byte   W12
 .byte   Cn2
 .byte   W12
 .byte   Fn2
 .byte   N11 ,Gs2
 .byte   W12
 .byte   Cn2
 .byte   W12
 .byte   Gn2
 .byte   N11 ,As2
 .byte   W12
 .byte   Cn2
 .byte   W12
@  #08 @066   ----------------------------------------
 .byte   GOTO
  .word Label_01558B3A
@  #08 @067   ----------------------------------------
 .byte   W05
 .byte   FINE

@**************** Track 9 (Midi-Chn.8) ****************@

song33_009:
@  #09 @000   ----------------------------------------
 .byte   KEYSH , song33_key+0
Label_01557A52:
 .byte   VOICE , 28
 .byte   VOL , 37*song33_mvl/mxv
 .byte   PAN , c_v-40
 .byte   W96
@  #09 @001   ----------------------------------------
 .byte   W96
@  #09 @002   ----------------------------------------
 .byte   W96
@  #09 @003   ----------------------------------------
 .byte   W96
@  #09 @004   ----------------------------------------
 .byte   W96
@  #09 @005   ----------------------------------------
 .byte   W96
@  #09 @006   ----------------------------------------
 .byte   W96
@  #09 @007   ----------------------------------------
 .byte   W96
@  #09 @008   ----------------------------------------
 .byte   W96
@  #09 @009   ----------------------------------------
 .byte   W96
@  #09 @010   ----------------------------------------
 .byte   W96
@  #09 @011   ----------------------------------------
 .byte   W96
@  #09 @012   ----------------------------------------
 .byte   W72
 .byte   N11 ,Cn3 ,v096
 .byte   N11 ,En3
 .byte   W24
@  #09 @013   ----------------------------------------
Label_01557A6B:
 .byte   N11 ,Cn3 ,v104
 .byte   N11 ,En3
 .byte   W24
 .byte   N23 ,Cn3 ,v096
 .byte   N23 ,En3
 .byte   W24
 .byte   N11 ,Bn2 ,v092
 .byte   N11 ,En3
 .byte   W24
 .byte   Bn2 ,v104
 .byte   N11 ,En3
 .byte   W24
 .byte   PEND 
@  #09 @014   ----------------------------------------
Label_01557A83:
 .byte   N23 ,Bn2 ,v096
 .byte   N23 ,En3
 .byte   W24
 .byte   N11 ,An2
 .byte   N11 ,En3
 .byte   W24
 .byte   An2 ,v104
 .byte   N11 ,En3
 .byte   W24
 .byte   N23 ,An2
 .byte   N23 ,En3
 .byte   W24
 .byte   PEND 
@  #09 @015   ----------------------------------------
Label_01557A99:
 .byte   N11 ,Gn2 ,v100
 .byte   N11 ,En3
 .byte   W24
 .byte   Gn2 ,v104
 .byte   N11 ,En3
 .byte   W24
 .byte   N23 ,Gn2 ,v100
 .byte   N23 ,En3
 .byte   W24
 .byte   N11 ,Bn2 ,v096
 .byte   N11 ,En3
 .byte   W24
 .byte   PEND 
@  #09 @016   ----------------------------------------
Label_01557AB1:
 .byte   N11 ,Bn2 ,v104
 .byte   N11 ,En3
 .byte   W24
 .byte   N23 ,Bn2 ,v096
 .byte   N23 ,En3
 .byte   W24
 .byte   N11 ,Gn2
 .byte   N11 ,En3
 .byte   W24
 .byte   Gn2 ,v104
 .byte   N11 ,En3
 .byte   W24
 .byte   PEND 
@  #09 @017   ----------------------------------------
Label_01557AC8:
 .byte   N23 ,Gn2 ,v100
 .byte   N23 ,En3
 .byte   W24
 .byte   N11 ,An2 ,v096
 .byte   N11 ,En3
 .byte   W24
 .byte   An2 ,v104
 .byte   N11 ,En3
 .byte   W24
 .byte   N23 ,Dn3 ,v100
 .byte   N23 ,Gn3
 .byte   W24
 .byte   PEND 
@  #09 @018   ----------------------------------------
 .byte   N11 ,Bn2 ,v096
 .byte   N11 ,En3
 .byte   W24
 .byte   Bn2 ,v076
 .byte   N11 ,En3
 .byte   W12
 .byte   N23 ,Bn2 ,v100
 .byte   N23 ,En3
 .byte   W24
 .byte   N11 ,Bn2 ,v080
 .byte   N11 ,En3
 .byte   W12
 .byte   Cn3 ,v096
 .byte   N11 ,En3
 .byte   W24
@  #09 @019   ----------------------------------------
 .byte   PATT
  .word Label_01557A6B
@  #09 @020   ----------------------------------------
 .byte   PATT
  .word Label_01557A83
@  #09 @021   ----------------------------------------
 .byte   PATT
  .word Label_01557A99
@  #09 @022   ----------------------------------------
 .byte   PATT
  .word Label_01557AB1
@  #09 @023   ----------------------------------------
 .byte   PATT
  .word Label_01557AC8
@  #09 @024   ----------------------------------------
 .byte   N23 ,Bn2 ,v096
 .byte   N23 ,En3
 .byte   W24
 .byte   N11 ,Bn2 ,v076
 .byte   N11 ,En3
 .byte   W12
 .byte   N23 ,Bn2 ,v100
 .byte   N23 ,En3
 .byte   W24
 .byte   N11 ,Bn2 ,v080
 .byte   N11 ,En3
 .byte   W12
 .byte   Bn2 ,v076
 .byte   N11 ,En3
 .byte   W12
 .byte   N23 ,Bn2 ,v100
 .byte   N23 ,En3
 .byte   W12
@  #09 @025   ----------------------------------------
 .byte   W12
 .byte   N11 ,Bn2 ,v080
 .byte   N11 ,En3
 .byte   W12
 .byte   Bn2
 .byte   N11 ,En3
 .byte   W12
 .byte   Bn2
 .byte   N11 ,En3
 .byte   W12
 .byte   Bn2 ,v076
 .byte   N11 ,Gn3
 .byte   W12
 .byte   N23 ,Bn2 ,v100
 .byte   N23 ,Gn3
 .byte   W24
 .byte   N11 ,Bn2 ,v080
 .byte   N11 ,Gn3
 .byte   W12
@  #09 @026   ----------------------------------------
Label_01557B58:
 .byte   N11 ,Bn2 ,v080
 .byte   N11 ,Gn3
 .byte   W12
 .byte   Bn2
 .byte   N11 ,Gn3
 .byte   W12
 .byte   N23 ,Dn3 ,v100
 .byte   N23 ,Gn3
 .byte   W24
 .byte   Cn3
 .byte   N23 ,Gn3
 .byte   W48
 .byte   PEND 
@  #09 @027   ----------------------------------------
Label_01557B6D:
 .byte   N11 ,Bn2 ,v076
 .byte   N11 ,En3
 .byte   W12
 .byte   N23 ,Bn2 ,v100
 .byte   N23 ,En3
 .byte   W24
 .byte   N11 ,Bn2 ,v080
 .byte   N11 ,En3
 .byte   W12
 .byte   Bn2
 .byte   N23 ,Gs3
 .byte   W12
 .byte   N11 ,Bn2
 .byte   N11 ,En3
 .byte   W12
 .byte   N23 ,Bn2 ,v100
 .byte   N23 ,En3
 .byte   W24
 .byte   PEND 
@  #09 @028   ----------------------------------------
 .byte   An2
 .byte   N23 ,En3
 .byte   W48
 .byte   N11 ,An2 ,v076
 .byte   N11 ,Fn3
 .byte   W12
 .byte   N32 ,An2 ,v100
 .byte   N32 ,Fn3
 .byte   W24
 .byte   Cn4 ,v084
 .byte   W12
@  #09 @029   ----------------------------------------
 .byte   N23 ,An2 ,v100
 .byte   W12
 .byte   Dn3 ,v084
 .byte   W12
 .byte   Bn2 ,v100
 .byte   N23 ,Gn3
 .byte   W24
 .byte   N32 ,Bn2
 .byte   N23 ,Gn3
 .byte   W36
 .byte   N11 ,Bn2
 .byte   N23 ,Dn3 ,v084
 .byte   W12
@  #09 @030   ----------------------------------------
 .byte   N11 ,Cn3 ,v076
 .byte   N11 ,Gn3
 .byte   W12
 .byte   N32 ,Cn3 ,v100
 .byte   N32 ,Gn3
 .byte   W24
 .byte   Dn4 ,v084
 .byte   W12
 .byte   N23 ,Cn3 ,v100
 .byte   W12
 .byte   N11 ,Gn3 ,v084
 .byte   W12
 .byte   N23 ,Dn3 ,v100
 .byte   N23 ,Gn3
 .byte   W24
@  #09 @031   ----------------------------------------
 .byte   Cn3
 .byte   N23 ,Gn3
 .byte   W48
 .byte   N11 ,Bn2 ,v076
 .byte   N11 ,Gn3
 .byte   W12
 .byte   N23 ,Bn2 ,v100
 .byte   N23 ,Gn3
 .byte   W24
 .byte   N11 ,Bn2 ,v080
 .byte   N11 ,Gn3
 .byte   W12
@  #09 @032   ----------------------------------------
 .byte   PATT
  .word Label_01557B58
@  #09 @033   ----------------------------------------
 .byte   PATT
  .word Label_01557B6D
@  #09 @034   ----------------------------------------
 .byte   N23 ,Cn3 ,v100
 .byte   N23 ,En3
 .byte   W24
 .byte   Bn2
 .byte   N23 ,En3
 .byte   W24
 .byte   N11 ,Fn2 ,v076
 .byte   N11 ,Dn3
 .byte   W12
 .byte   N23 ,Fn2 ,v100
 .byte   N23 ,Dn3
 .byte   W24
 .byte   N11 ,Fn2 ,v080
 .byte   N11 ,Dn3
 .byte   W12
@  #09 @035   ----------------------------------------
 .byte   Fn2
 .byte   N11 ,Dn3
 .byte   W12
 .byte   Fn2
 .byte   N11 ,Dn3
 .byte   W12
 .byte   N23 ,Gn2 ,v100
 .byte   N23 ,Cn3
 .byte   W24
 .byte   Gn2 ,v096
 .byte   N23 ,Cn3
 .byte   W24
 .byte   Gn2
 .byte   N23 ,Cn3
 .byte   W24
@  #09 @036   ----------------------------------------
 .byte   N11 ,As2 ,v088
 .byte   W12
 .byte   N23 ,As2 ,v100
 .byte   N23 ,Fn3
 .byte   W24
 .byte   N32 ,Cn3
 .byte   W24
 .byte   N11 ,Fn2 ,v076
 .byte   W12
 .byte   As2 ,v096
 .byte   W12
 .byte   N23 ,As2 ,v100
 .byte   N23 ,Gn3
 .byte   W12
@  #09 @037   ----------------------------------------
 .byte   W12
 .byte   N32 ,Dn3
 .byte   W36
 .byte   N23 ,Cn3
 .byte   W12
 .byte   Gn3
 .byte   W12
 .byte   Cn4 ,v088
 .byte   W12
 .byte   Cn3 ,v096
 .byte   W12
@  #09 @038   ----------------------------------------
 .byte   Fn3 ,v100
 .byte   W12
 .byte   As2 ,v088
 .byte   W12
 .byte   Cn3 ,v100
 .byte   W12
 .byte   Gn3
 .byte   W12
 .byte   Cn4 ,v088
 .byte   W12
 .byte   Dn3 ,v100
 .byte   W12
 .byte   Fn3 ,v096
 .byte   W12
 .byte   As2 ,v088
 .byte   W12
@  #09 @039   ----------------------------------------
 .byte   Fn2 ,v100
 .byte   W12
 .byte   Ds3
 .byte   W12
 .byte   Gn3 ,v088
 .byte   W12
 .byte   Fn2 ,v100
 .byte   W12
 .byte   Cn3
 .byte   W12
 .byte   Ds3 ,v088
 .byte   W12
 .byte   As2 ,v100
 .byte   W12
 .byte   Fn3
 .byte   W12
@  #09 @040   ----------------------------------------
 .byte   Cn4 ,v088
 .byte   W12
 .byte   As2 ,v100
 .byte   W12
 .byte   Fn3
 .byte   W12
 .byte   As2 ,v088
 .byte   W60
@  #09 @041   ----------------------------------------
 .byte   W96
@  #09 @042   ----------------------------------------
 .byte   W96
@  #09 @043   ----------------------------------------
 .byte   W96
@  #09 @044   ----------------------------------------
 .byte   W96
@  #09 @045   ----------------------------------------
 .byte   W96
@  #09 @046   ----------------------------------------
 .byte   W96
@  #09 @047   ----------------------------------------
 .byte   W96
@  #09 @048   ----------------------------------------
 .byte   W96
@  #09 @049   ----------------------------------------
 .byte   W96
@  #09 @050   ----------------------------------------
 .byte   W96
@  #09 @051   ----------------------------------------
 .byte   W96
@  #09 @052   ----------------------------------------
 .byte   W96
@  #09 @053   ----------------------------------------
 .byte   W96
@  #09 @054   ----------------------------------------
 .byte   W96
@  #09 @055   ----------------------------------------
 .byte   W96
@  #09 @056   ----------------------------------------
 .byte   W96
@  #09 @057   ----------------------------------------
 .byte   W96
@  #09 @058   ----------------------------------------
 .byte   W96
@  #09 @059   ----------------------------------------
 .byte   W96
@  #09 @060   ----------------------------------------
 .byte   W96
@  #09 @061   ----------------------------------------
 .byte   W96
@  #09 @062   ----------------------------------------
 .byte   W96
@  #09 @063   ----------------------------------------
 .byte   W96
@  #09 @064   ----------------------------------------
 .byte   W96
@  #09 @065   ----------------------------------------
 .byte   W96
@  #09 @066   ----------------------------------------
 .byte   GOTO
  .word Label_01557A52
@  #09 @067   ----------------------------------------
 .byte   W05
 .byte   FINE

@**************** Track 10 (Midi-Chn.9) ****************@

song33_010:
@  #10 @000   ----------------------------------------
 .byte   KEYSH , song33_key+0
Label_0155858A:
 .byte   VOICE , 124
 .byte   VOL , 37*song33_mvl/mxv
 .byte   PAN , c_v+0
 .byte   W96
@  #10 @001   ----------------------------------------
 .byte   W96
@  #10 @002   ----------------------------------------
 .byte   W96
@  #10 @003   ----------------------------------------
 .byte   W96
@  #10 @004   ----------------------------------------
 .byte   W96
@  #10 @005   ----------------------------------------
 .byte   W96
@  #10 @006   ----------------------------------------
 .byte   W96
@  #10 @007   ----------------------------------------
 .byte   W96
@  #10 @008   ----------------------------------------
 .byte   W96
@  #10 @009   ----------------------------------------
 .byte   W96
@  #10 @010   ----------------------------------------
 .byte   W96
@  #10 @011   ----------------------------------------
 .byte   W96
@  #10 @012   ----------------------------------------
 .byte   W96
@  #10 @013   ----------------------------------------
 .byte   W96
@  #10 @014   ----------------------------------------
 .byte   W96
@  #10 @015   ----------------------------------------
 .byte   W96
@  #10 @016   ----------------------------------------
 .byte   W96
@  #10 @017   ----------------------------------------
 .byte   W96
@  #10 @018   ----------------------------------------
 .byte   W96
@  #10 @019   ----------------------------------------
 .byte   W96
@  #10 @020   ----------------------------------------
 .byte   W96
@  #10 @021   ----------------------------------------
 .byte   W96
@  #10 @022   ----------------------------------------
 .byte   W96
@  #10 @023   ----------------------------------------
 .byte   W96
@  #10 @024   ----------------------------------------
 .byte   W96
@  #10 @025   ----------------------------------------
 .byte   W96
@  #10 @026   ----------------------------------------
 .byte   W96
@  #10 @027   ----------------------------------------
 .byte   W96
@  #10 @028   ----------------------------------------
 .byte   W96
@  #10 @029   ----------------------------------------
 .byte   W96
@  #10 @030   ----------------------------------------
 .byte   W96
@  #10 @031   ----------------------------------------
 .byte   W96
@  #10 @032   ----------------------------------------
 .byte   W96
@  #10 @033   ----------------------------------------
 .byte   W96
@  #10 @034   ----------------------------------------
 .byte   W96
@  #10 @035   ----------------------------------------
 .byte   W96
@  #10 @036   ----------------------------------------
 .byte   W96
@  #10 @037   ----------------------------------------
 .byte   W48
 .byte   N11 ,Gs1 ,v108
 .byte   W12
 .byte   Gs1 ,v064
 .byte   W12
 .byte   Gs1 ,v092
 .byte   W12
 .byte   Gs1 ,v064
 .byte   W12
@  #10 @038   ----------------------------------------
 .byte   Gs1 ,v092
 .byte   W12
 .byte   Gs1 ,v064
 .byte   W12
 .byte   Gs1 ,v108
 .byte   W12
 .byte   Gs1 ,v064
 .byte   W12
 .byte   Gs1 ,v092
 .byte   W12
 .byte   Gs1 ,v064
 .byte   W12
 .byte   Gs1 ,v092
 .byte   W23
 .byte   N03 ,Fs3 ,v112
 .byte   W01
@  #10 @039   ----------------------------------------
 .byte   N11 ,Cn1 ,v104
 .byte   N11 ,Gs1 ,v108
 .byte   W12
 .byte   Cn1 ,v072
 .byte   N11 ,Gs1 ,v064
 .byte   N04 ,Fs3 ,v088
 .byte   W12
 .byte   N11 ,Gs1 ,v092
 .byte   W11
 .byte   N04 ,Fs3 ,v112
 .byte   W01
 .byte   N11 ,Cn1 ,v100
 .byte   N11 ,Gs1 ,v064
 .byte   W12
 .byte   Gs1 ,v092
 .byte   W12
 .byte   As1
 .byte   N04 ,Fs3
 .byte   W12
 .byte   N11 ,Gs1
 .byte   N07 ,Dn2 ,v100
 .byte   W08
 .byte   N07
 .byte   W08
 .byte   N07
 .byte   W08
@  #10 @040   ----------------------------------------
 .byte   An1
 .byte   W08
 .byte   N07
 .byte   W08
 .byte   N07
 .byte   W08
 .byte   Fn1
 .byte   W08
 .byte   N07
 .byte   W08
 .byte   N07
 .byte   W08
 .byte   N11 ,Cn1 ,v104
 .byte   N11 ,Gs1 ,v108
 .byte   W12
 .byte   Cn1 ,v072
 .byte   N11 ,Gs1 ,v064
 .byte   W12
 .byte   Gs1 ,v092
 .byte   W12
 .byte   Cn1 ,v100
 .byte   N11 ,Gs1 ,v064
 .byte   W12
@  #10 @041   ----------------------------------------
Label_0155862E:
 .byte   N11 ,Dn1 ,v104
 .byte   N11 ,Gs1 ,v092
 .byte   W12
 .byte   Gs1 ,v064
 .byte   W12
 .byte   Cn1 ,v104
 .byte   N11 ,Gs1 ,v108
 .byte   W12
 .byte   Gs1 ,v064
 .byte   W12
 .byte   Gs1 ,v092
 .byte   W12
 .byte   Cn1 ,v100
 .byte   N11 ,Gs1 ,v064
 .byte   W12
 .byte   Dn1 ,v104
 .byte   N11 ,Gs1 ,v092
 .byte   W12
 .byte   As1
 .byte   W12
 .byte   PEND 
@  #10 @042   ----------------------------------------
Label_01558653:
 .byte   N11 ,Cn1 ,v104
 .byte   N11 ,Gs1 ,v108
 .byte   W12
 .byte   Cn1 ,v072
 .byte   N11 ,Gs1 ,v064
 .byte   W12
 .byte   Gs1 ,v092
 .byte   W12
 .byte   Cn1 ,v100
 .byte   N11 ,As1 ,v092
 .byte   W12
 .byte   Dn1 ,v104
 .byte   N11 ,Gs1 ,v092
 .byte   W12
 .byte   Gs1 ,v064
 .byte   W12
 .byte   Cn1 ,v104
 .byte   N11 ,Gs1 ,v108
 .byte   W12
 .byte   Gs1 ,v064
 .byte   W12
 .byte   PEND 
@  #10 @043   ----------------------------------------
Label_0155867C:
 .byte   N11 ,Gs1 ,v092
 .byte   W12
 .byte   Cn1 ,v100
 .byte   N11 ,Gs1 ,v064
 .byte   W12
 .byte   Dn1 ,v100
 .byte   N11 ,Gs1 ,v092
 .byte   W12
 .byte   As1
 .byte   W12
 .byte   Cn1 ,v104
 .byte   N11 ,Gs1 ,v108
 .byte   W12
 .byte   Cn1 ,v072
 .byte   N11 ,Gs1 ,v064
 .byte   W12
 .byte   Gs1 ,v092
 .byte   W12
 .byte   Cn1 ,v100
 .byte   N11 ,Gs1 ,v064
 .byte   W12
 .byte   PEND 
@  #10 @044   ----------------------------------------
Label_015586A4:
 .byte   N11 ,Dn1 ,v104
 .byte   N11 ,Gs1 ,v092
 .byte   W12
 .byte   Gs1 ,v064
 .byte   W12
 .byte   Cn1 ,v104
 .byte   N11 ,Gs1 ,v108
 .byte   W12
 .byte   Gs1 ,v064
 .byte   W12
 .byte   Gs1 ,v092
 .byte   W12
 .byte   Gs1 ,v064
 .byte   W12
 .byte   Dn1 ,v104
 .byte   N11 ,Gs1 ,v092
 .byte   W12
 .byte   As1
 .byte   W12
 .byte   PEND 
@  #10 @045   ----------------------------------------
 .byte   Cn1 ,v104
 .byte   N11 ,Gs1 ,v108
 .byte   W12
 .byte   Cn1 ,v072
 .byte   N11 ,En1 ,v084
 .byte   N11 ,Gs1 ,v064
 .byte   W12
 .byte   Gs1 ,v092
 .byte   W12
 .byte   Cn1 ,v100
 .byte   N11 ,Bn1 ,v112
 .byte   W12
 .byte   Dn1 ,v104
 .byte   N11 ,Gs1 ,v092
 .byte   W12
 .byte   Fn1
 .byte   N11 ,Gs1 ,v064
 .byte   W12
 .byte   Cn1 ,v104
 .byte   N11 ,Gs1 ,v108
 .byte   W12
 .byte   Fn1 ,v092
 .byte   N11 ,Gs1 ,v064
 .byte   W12
@  #10 @046   ----------------------------------------
 .byte   Gs1 ,v092
 .byte   N07 ,Dn2 ,v100
 .byte   W08
 .byte   N07
 .byte   W08
 .byte   N07
 .byte   W08
 .byte   N11 ,Gs1 ,v092
 .byte   N07 ,An1 ,v100
 .byte   W08
 .byte   An1 ,v092
 .byte   W08
 .byte   N07
 .byte   W08
 .byte   N11 ,Cn1 ,v104
 .byte   N11 ,Gs1 ,v108
 .byte   W12
 .byte   Cn1 ,v072
 .byte   N11 ,Gs1 ,v064
 .byte   W12
 .byte   Gs1 ,v092
 .byte   W12
 .byte   Cn1 ,v100
 .byte   N11 ,Gs1 ,v064
 .byte   W12
@  #10 @047   ----------------------------------------
 .byte   PATT
  .word Label_0155862E
@  #10 @048   ----------------------------------------
 .byte   PATT
  .word Label_01558653
@  #10 @049   ----------------------------------------
 .byte   PATT
  .word Label_0155867C
@  #10 @050   ----------------------------------------
 .byte   PATT
  .word Label_015586A4
@  #10 @051   ----------------------------------------
 .byte   N11 ,Cn1 ,v104
 .byte   N11 ,Gs1 ,v108
 .byte   W12
 .byte   Cn1 ,v072
 .byte   N11 ,Gs1 ,v064
 .byte   W12
 .byte   Gs1 ,v092
 .byte   W12
 .byte   Cn1 ,v100
 .byte   N11 ,Gs1 ,v064
 .byte   W12
 .byte   Dn1 ,v104
 .byte   N11 ,Gs1 ,v092
 .byte   W12
 .byte   Gs1 ,v064
 .byte   W12
 .byte   Cn1 ,v104
 .byte   N11 ,Gs1 ,v108
 .byte   W12
 .byte   En1 ,v080
 .byte   N11 ,Gs1 ,v064
 .byte   W12
@  #10 @052   ----------------------------------------
 .byte   Gs1 ,v092
 .byte   W12
 .byte   Cn1 ,v072
 .byte   N11 ,Gs1 ,v064
 .byte   W12
 .byte   N07 ,Dn1 ,v096
 .byte   W08
 .byte   Dn1 ,v092
 .byte   W08
 .byte   Cn1 ,v064
 .byte   W56
@  #10 @053   ----------------------------------------
 .byte   W96
@  #10 @054   ----------------------------------------
 .byte   W72
 .byte   N05 ,Gs4 ,v076
 .byte   W11
 .byte   N06
 .byte   W13
@  #10 @055   ----------------------------------------
 .byte   W11
 .byte   N04 ,Gs4 ,v084
 .byte   W12
 .byte   N20 ,An4 ,v080
 .byte   W72
 .byte   W01
@  #10 @056   ----------------------------------------
 .byte   W96
@  #10 @057   ----------------------------------------
 .byte   W96
@  #10 @058   ----------------------------------------
 .byte   W96
@  #10 @059   ----------------------------------------
 .byte   W96
@  #10 @060   ----------------------------------------
 .byte   W96
@  #10 @061   ----------------------------------------
 .byte   W96
@  #10 @062   ----------------------------------------
 .byte   W96
@  #10 @063   ----------------------------------------
 .byte   W96
@  #10 @064   ----------------------------------------
 .byte   W96
@  #10 @065   ----------------------------------------
 .byte   W96
@  #10 @066   ----------------------------------------
 .byte   GOTO
  .word Label_0155858A
@  #10 @067   ----------------------------------------
 .byte   W05
 .byte   FINE

@**************** Track 11 (Midi-Chn.10) ****************@

song33_011:
@  #11 @000   ----------------------------------------
 .byte   KEYSH , song33_key+0
Label_01726B12:
 .byte   VOICE , 73
 .byte   VOL , 29*song33_mvl/mxv
 .byte   PAN , c_v-10
 .byte   TIE ,En4 ,v100
 .byte   W96
@  #11 @001   ----------------------------------------
 .byte   W92
 .byte   W03
 .byte   EOT
 .byte   W01
@  #11 @002   ----------------------------------------
 .byte   W96
@  #11 @003   ----------------------------------------
 .byte   W96
@  #11 @004   ----------------------------------------
 .byte   W96
@  #11 @005   ----------------------------------------
 .byte   W96
@  #11 @006   ----------------------------------------
 .byte   W96
@  #11 @007   ----------------------------------------
 .byte   W96
@  #11 @008   ----------------------------------------
 .byte   W96
@  #11 @009   ----------------------------------------
 .byte   W96
@  #11 @010   ----------------------------------------
 .byte   W96
@  #11 @011   ----------------------------------------
 .byte   W96
@  #11 @012   ----------------------------------------
 .byte   W72
 .byte   TIE
 .byte   W24
@  #11 @013   ----------------------------------------
 .byte   W96
@  #11 @014   ----------------------------------------
 .byte   W68
 .byte   W03
 .byte   EOT
 .byte   W24
 .byte   W01
@  #11 @015   ----------------------------------------
 .byte   W96
@  #11 @016   ----------------------------------------
 .byte   W96
@  #11 @017   ----------------------------------------
 .byte   W96
@  #11 @018   ----------------------------------------
 .byte   W96
@  #11 @019   ----------------------------------------
 .byte   W96
@  #11 @020   ----------------------------------------
 .byte   W96
@  #11 @021   ----------------------------------------
 .byte   W96
@  #11 @022   ----------------------------------------
 .byte   W96
@  #11 @023   ----------------------------------------
 .byte   W96
@  #11 @024   ----------------------------------------
 .byte   W96
@  #11 @025   ----------------------------------------
 .byte   W96
@  #11 @026   ----------------------------------------
 .byte   W96
@  #11 @027   ----------------------------------------
 .byte   W96
@  #11 @028   ----------------------------------------
 .byte   W96
@  #11 @029   ----------------------------------------
 .byte   W96
@  #11 @030   ----------------------------------------
 .byte   W96
@  #11 @031   ----------------------------------------
 .byte   W96
@  #11 @032   ----------------------------------------
 .byte   W96
@  #11 @033   ----------------------------------------
 .byte   W96
@  #11 @034   ----------------------------------------
 .byte   W96
@  #11 @035   ----------------------------------------
 .byte   W96
@  #11 @036   ----------------------------------------
 .byte   W96
@  #11 @037   ----------------------------------------
 .byte   W96
@  #11 @038   ----------------------------------------
 .byte   W96
@  #11 @039   ----------------------------------------
 .byte   W96
@  #11 @040   ----------------------------------------
 .byte   W96
@  #11 @041   ----------------------------------------
 .byte   W96
@  #11 @042   ----------------------------------------
 .byte   W96
@  #11 @043   ----------------------------------------
 .byte   W96
@  #11 @044   ----------------------------------------
 .byte   W96
@  #11 @045   ----------------------------------------
 .byte   W96
@  #11 @046   ----------------------------------------
 .byte   W96
@  #11 @047   ----------------------------------------
 .byte   W96
@  #11 @048   ----------------------------------------
 .byte   W96
@  #11 @049   ----------------------------------------
 .byte   W96
@  #11 @050   ----------------------------------------
 .byte   W96
@  #11 @051   ----------------------------------------
 .byte   W96
@  #11 @052   ----------------------------------------
 .byte   W96
@  #11 @053   ----------------------------------------
 .byte   W96
@  #11 @054   ----------------------------------------
 .byte   W96
@  #11 @055   ----------------------------------------
 .byte   W96
@  #11 @056   ----------------------------------------
 .byte   W96
@  #11 @057   ----------------------------------------
 .byte   W96
@  #11 @058   ----------------------------------------
 .byte   W96
@  #11 @059   ----------------------------------------
 .byte   W96
@  #11 @060   ----------------------------------------
 .byte   W96
@  #11 @061   ----------------------------------------
 .byte   W96
@  #11 @062   ----------------------------------------
 .byte   W96
@  #11 @063   ----------------------------------------
 .byte   W96
@  #11 @064   ----------------------------------------
 .byte   W96
@  #11 @065   ----------------------------------------
 .byte   W96
@  #11 @066   ----------------------------------------
 .byte   GOTO
  .word Label_01726B12
@  #11 @067   ----------------------------------------
 .byte   W05
 .byte   FINE

@**************** Track 12 (Midi-Chn.11) ****************@

song33_012:
@  #12 @000   ----------------------------------------
 .byte   KEYSH , song33_key+0
Label_01557CAE:
 .byte   VOICE , 47
 .byte   VOL , 37*song33_mvl/mxv
 .byte   PAN , c_v+0
 .byte   N92 ,An1 ,v108
 .byte   W96
@  #12 @001   ----------------------------------------
 .byte   W96
@  #12 @002   ----------------------------------------
 .byte   W96
@  #12 @003   ----------------------------------------
 .byte   W96
@  #12 @004   ----------------------------------------
 .byte   W96
@  #12 @005   ----------------------------------------
 .byte   W96
@  #12 @006   ----------------------------------------
 .byte   W96
@  #12 @007   ----------------------------------------
 .byte   W96
@  #12 @008   ----------------------------------------
 .byte   W96
@  #12 @009   ----------------------------------------
 .byte   W96
@  #12 @010   ----------------------------------------
 .byte   W96
@  #12 @011   ----------------------------------------
 .byte   W24
 .byte   N03 ,En1 ,v016
 .byte   W04
 .byte   N03
 .byte   W04
 .byte   N03
 .byte   W04
 .byte   N03
 .byte   W04
 .byte   N03
 .byte   W04
 .byte   N03
 .byte   W04
 .byte   En1 ,v020
 .byte   W04
 .byte   N03
 .byte   W04
 .byte   N03
 .byte   W04
 .byte   N03
 .byte   W04
 .byte   En1 ,v024
 .byte   W04
 .byte   N03
 .byte   W04
 .byte   En1 ,v028
 .byte   W04
 .byte   N03
 .byte   W04
 .byte   En1 ,v032
 .byte   W04
 .byte   N03
 .byte   W04
 .byte   En1 ,v036
 .byte   W04
 .byte   N03
 .byte   W04
@  #12 @012   ----------------------------------------
 .byte   En1 ,v040
 .byte   W04
 .byte   N03
 .byte   W04
 .byte   En1 ,v044
 .byte   W04
 .byte   En1 ,v048
 .byte   W04
 .byte   En1 ,v052
 .byte   W04
 .byte   En1 ,v056
 .byte   W04
 .byte   N03
 .byte   W04
 .byte   En1 ,v060
 .byte   W04
 .byte   En1 ,v064
 .byte   W04
 .byte   En1 ,v068
 .byte   W04
 .byte   En1 ,v072
 .byte   W04
 .byte   En1 ,v076
 .byte   W04
 .byte   En1 ,v080
 .byte   W04
 .byte   En1 ,v084
 .byte   W04
 .byte   En1 ,v088
 .byte   W04
 .byte   En1 ,v096
 .byte   W04
 .byte   En1 ,v100
 .byte   W04
 .byte   En1 ,v104
 .byte   W28
@  #12 @013   ----------------------------------------
 .byte   W96
@  #12 @014   ----------------------------------------
 .byte   W96
@  #12 @015   ----------------------------------------
 .byte   W96
@  #12 @016   ----------------------------------------
 .byte   W96
@  #12 @017   ----------------------------------------
 .byte   W96
@  #12 @018   ----------------------------------------
 .byte   W96
@  #12 @019   ----------------------------------------
 .byte   W96
@  #12 @020   ----------------------------------------
 .byte   W96
@  #12 @021   ----------------------------------------
 .byte   W96
@  #12 @022   ----------------------------------------
 .byte   W96
@  #12 @023   ----------------------------------------
 .byte   W96
@  #12 @024   ----------------------------------------
 .byte   W96
@  #12 @025   ----------------------------------------
 .byte   W96
@  #12 @026   ----------------------------------------
 .byte   W96
@  #12 @027   ----------------------------------------
 .byte   W96
@  #12 @028   ----------------------------------------
 .byte   W96
@  #12 @029   ----------------------------------------
 .byte   W96
@  #12 @030   ----------------------------------------
 .byte   W96
@  #12 @031   ----------------------------------------
 .byte   W96
@  #12 @032   ----------------------------------------
 .byte   W96
@  #12 @033   ----------------------------------------
 .byte   W96
@  #12 @034   ----------------------------------------
 .byte   W96
@  #12 @035   ----------------------------------------
 .byte   W96
@  #12 @036   ----------------------------------------
 .byte   W96
@  #12 @037   ----------------------------------------
 .byte   W96
@  #12 @038   ----------------------------------------
 .byte   W24
 .byte   Cn2 ,v024
 .byte   W04
 .byte   N03
 .byte   W04
 .byte   N03
 .byte   W04
 .byte   N03
 .byte   W04
 .byte   N03
 .byte   W04
 .byte   N03
 .byte   W04
 .byte   N03
 .byte   W04
 .byte   N03
 .byte   W04
 .byte   N03
 .byte   W04
 .byte   Cn2 ,v028
 .byte   W04
 .byte   N03
 .byte   W04
 .byte   N03
 .byte   W04
 .byte   N03
 .byte   W04
 .byte   N03
 .byte   W04
 .byte   N03
 .byte   W04
 .byte   Cn2 ,v032
 .byte   W04
 .byte   N03
 .byte   W04
 .byte   N03
 .byte   W04
@  #12 @039   ----------------------------------------
 .byte   N03
 .byte   W04
 .byte   Cn2 ,v036
 .byte   W04
 .byte   N03
 .byte   W04
 .byte   N03
 .byte   W04
 .byte   N03
 .byte   W04
 .byte   Cn2 ,v040
 .byte   W04
 .byte   N03
 .byte   W04
 .byte   N03
 .byte   W04
 .byte   Cn2 ,v044
 .byte   W04
 .byte   N03
 .byte   W04
 .byte   Cn2 ,v048
 .byte   W04
 .byte   N03
 .byte   W04
 .byte   N03
 .byte   W04
 .byte   Cn2 ,v052
 .byte   W04
 .byte   N03
 .byte   W04
 .byte   N03
 .byte   W04
 .byte   Cn2 ,v056
 .byte   W04
 .byte   N03
 .byte   W04
 .byte   As1
 .byte   W04
 .byte   N03
 .byte   W04
 .byte   N03
 .byte   W04
 .byte   N03
 .byte   W04
 .byte   N03
 .byte   W04
 .byte   As1 ,v060
 .byte   W04
@  #12 @040   ----------------------------------------
 .byte   N03
 .byte   W04
 .byte   As1 ,v064
 .byte   W04
 .byte   N03
 .byte   W04
 .byte   As1 ,v068
 .byte   W04
 .byte   As1 ,v072
 .byte   W04
 .byte   As1 ,v076
 .byte   W04
 .byte   N03
 .byte   W04
 .byte   As1 ,v084
 .byte   W04
 .byte   As1 ,v088
 .byte   W04
 .byte   As1 ,v092
 .byte   W04
 .byte   As1 ,v096
 .byte   W04
 .byte   As1 ,v100
 .byte   W04
 .byte   As1 ,v108
 .byte   W48
@  #12 @041   ----------------------------------------
 .byte   W96
@  #12 @042   ----------------------------------------
 .byte   W96
@  #12 @043   ----------------------------------------
 .byte   W96
@  #12 @044   ----------------------------------------
 .byte   W96
@  #12 @045   ----------------------------------------
Label_01557DC2:
 .byte   W72
 .byte   N03 ,Gn1 ,v056
 .byte   W04
 .byte   N03
 .byte   W04
 .byte   N03
 .byte   W04
 .byte   N03
 .byte   W04
 .byte   N03
 .byte   W04
 .byte   Gn1 ,v060
 .byte   W04
 .byte   PEND 
@  #12 @046   ----------------------------------------
Label_01557DD3:
 .byte   N03 ,Gn1 ,v060
 .byte   W04
 .byte   Gn1 ,v064
 .byte   W04
 .byte   N03
 .byte   W04
 .byte   Gn1 ,v068
 .byte   W04
 .byte   Gn1 ,v072
 .byte   W04
 .byte   Gn1 ,v076
 .byte   W04
 .byte   N03
 .byte   W04
 .byte   Gn1 ,v084
 .byte   W04
 .byte   Gn1 ,v088
 .byte   W04
 .byte   Gn1 ,v092
 .byte   W04
 .byte   Gn1 ,v096
 .byte   W04
 .byte   Gn1 ,v100
 .byte   W04
 .byte   Gn1 ,v108
 .byte   W48
 .byte   PEND 
@  #12 @047   ----------------------------------------
 .byte   W96
@  #12 @048   ----------------------------------------
 .byte   W96
@  #12 @049   ----------------------------------------
 .byte   W96
@  #12 @050   ----------------------------------------
 .byte   W96
@  #12 @051   ----------------------------------------
 .byte   PATT
  .word Label_01557DC2
@  #12 @052   ----------------------------------------
 .byte   PATT
  .word Label_01557DD3
@  #12 @053   ----------------------------------------
 .byte   W96
@  #12 @054   ----------------------------------------
 .byte   W96
@  #12 @055   ----------------------------------------
 .byte   W96
@  #12 @056   ----------------------------------------
 .byte   W96
@  #12 @057   ----------------------------------------
 .byte   W96
@  #12 @058   ----------------------------------------
 .byte   W96
@  #12 @059   ----------------------------------------
 .byte   W96
@  #12 @060   ----------------------------------------
 .byte   W96
@  #12 @061   ----------------------------------------
 .byte   W96
@  #12 @062   ----------------------------------------
 .byte   W96
@  #12 @063   ----------------------------------------
 .byte   W96
@  #12 @064   ----------------------------------------
 .byte   W48
 .byte   N03 ,Cn2 ,v016
 .byte   W04
 .byte   N03
 .byte   W04
 .byte   N03
 .byte   W04
 .byte   N03
 .byte   W04
 .byte   N03
 .byte   W04
 .byte   N03
 .byte   W04
 .byte   Cn2 ,v020
 .byte   W04
 .byte   N03
 .byte   W04
 .byte   N03
 .byte   W04
 .byte   N03
 .byte   W04
 .byte   Cn2 ,v024
 .byte   W04
 .byte   N03
 .byte   W04
@  #12 @065   ----------------------------------------
 .byte   Cn2 ,v028
 .byte   W04
 .byte   N03
 .byte   W04
 .byte   Cn2 ,v032
 .byte   W04
 .byte   N03
 .byte   W04
 .byte   Cn2 ,v036
 .byte   W04
 .byte   N03
 .byte   W04
 .byte   Cn2 ,v040
 .byte   W04
 .byte   N03
 .byte   W04
 .byte   Cn2 ,v044
 .byte   W04
 .byte   Cn2 ,v048
 .byte   W04
 .byte   Cn2 ,v052
 .byte   W04
 .byte   Cn2 ,v056
 .byte   W04
 .byte   N03
 .byte   W04
 .byte   Cn2 ,v060
 .byte   W04
 .byte   Cn2 ,v064
 .byte   W04
 .byte   Cn2 ,v068
 .byte   W04
 .byte   Cn2 ,v072
 .byte   W04
 .byte   Cn2 ,v076
 .byte   W04
 .byte   Cn2 ,v080
 .byte   W04
 .byte   Cn2 ,v084
 .byte   W04
 .byte   Cn2 ,v088
 .byte   W04
 .byte   Cn2 ,v096
 .byte   W04
 .byte   Cn2 ,v100
 .byte   W04
 .byte   Cn2 ,v104
 .byte   W04
@  #12 @066   ----------------------------------------
 .byte   GOTO
  .word Label_01557CAE
@  #12 @067   ----------------------------------------
 .byte   W05
 .byte   FINE

@**************** Track 13 (Midi-Chn.12) ****************@

song33_013:
@  #13 @000   ----------------------------------------
 .byte   KEYSH , song33_key+0
Label_01558FD2:
 .byte   VOICE , 10
 .byte   VOL , 25*song33_mvl/mxv
 .byte   PAN , c_v-25
 .byte   TIE ,Cn2 ,v112
 .byte   W96
@  #13 @001   ----------------------------------------
 .byte   W44
 .byte   W03
 .byte   EOT
 .byte   W48
 .byte   W01
@  #13 @002   ----------------------------------------
 .byte   W96
@  #13 @003   ----------------------------------------
 .byte   W96
@  #13 @004   ----------------------------------------
 .byte   W96
@  #13 @005   ----------------------------------------
 .byte   W96
@  #13 @006   ----------------------------------------
 .byte   W96
@  #13 @007   ----------------------------------------
 .byte   W96
@  #13 @008   ----------------------------------------
 .byte   W96
@  #13 @009   ----------------------------------------
 .byte   W96
@  #13 @010   ----------------------------------------
 .byte   W96
@  #13 @011   ----------------------------------------
 .byte   W96
@  #13 @012   ----------------------------------------
 .byte   W72
 .byte   TIE
 .byte   W24
@  #13 @013   ----------------------------------------
 .byte   W96
@  #13 @014   ----------------------------------------
 .byte   W23
 .byte   EOT
 .byte   W72
 .byte   W01
@  #13 @015   ----------------------------------------
 .byte   W96
@  #13 @016   ----------------------------------------
 .byte   W96
@  #13 @017   ----------------------------------------
 .byte   W96
@  #13 @018   ----------------------------------------
 .byte   W96
@  #13 @019   ----------------------------------------
 .byte   W96
@  #13 @020   ----------------------------------------
 .byte   W96
@  #13 @021   ----------------------------------------
 .byte   W96
@  #13 @022   ----------------------------------------
 .byte   W96
@  #13 @023   ----------------------------------------
 .byte   W96
@  #13 @024   ----------------------------------------
 .byte   W96
@  #13 @025   ----------------------------------------
 .byte   W96
@  #13 @026   ----------------------------------------
 .byte   W96
@  #13 @027   ----------------------------------------
 .byte   W96
@  #13 @028   ----------------------------------------
 .byte   W96
@  #13 @029   ----------------------------------------
 .byte   W96
@  #13 @030   ----------------------------------------
 .byte   W96
@  #13 @031   ----------------------------------------
 .byte   W96
@  #13 @032   ----------------------------------------
 .byte   W96
@  #13 @033   ----------------------------------------
 .byte   W96
@  #13 @034   ----------------------------------------
 .byte   W96
@  #13 @035   ----------------------------------------
 .byte   W96
@  #13 @036   ----------------------------------------
 .byte   W96
@  #13 @037   ----------------------------------------
 .byte   W96
@  #13 @038   ----------------------------------------
 .byte   W96
@  #13 @039   ----------------------------------------
 .byte   W96
@  #13 @040   ----------------------------------------
Label_0155900C:
 .byte   W48
 .byte   TIE ,Cn2 ,v112
 .byte   W48
 .byte   PEND 
@  #13 @041   ----------------------------------------
 .byte   W92
 .byte   W03
 .byte   EOT
 .byte   W01
@  #13 @042   ----------------------------------------
 .byte   W96
@  #13 @043   ----------------------------------------
 .byte   W96
@  #13 @044   ----------------------------------------
 .byte   W96
@  #13 @045   ----------------------------------------
 .byte   W96
@  #13 @046   ----------------------------------------
 .byte   PATT
  .word Label_0155900C
@  #13 @047   ----------------------------------------
 .byte   W92
 .byte   W03
 .byte   EOT
 .byte   Cn2
 .byte   W01
@  #13 @048   ----------------------------------------
 .byte   W96
@  #13 @049   ----------------------------------------
 .byte   W96
@  #13 @050   ----------------------------------------
 .byte   W96
@  #13 @051   ----------------------------------------
 .byte   W96
@  #13 @052   ----------------------------------------
 .byte   PATT
  .word Label_0155900C
@  #13 @053   ----------------------------------------
 .byte   W92
 .byte   W03
 .byte   EOT
 .byte   Cn2
 .byte   W01
@  #13 @054   ----------------------------------------
 .byte   W96
@  #13 @055   ----------------------------------------
 .byte   W96
@  #13 @056   ----------------------------------------
 .byte   W96
@  #13 @057   ----------------------------------------
 .byte   W96
@  #13 @058   ----------------------------------------
 .byte   W96
@  #13 @059   ----------------------------------------
 .byte   W96
@  #13 @060   ----------------------------------------
 .byte   W96
@  #13 @061   ----------------------------------------
 .byte   W96
@  #13 @062   ----------------------------------------
 .byte   W96
@  #13 @063   ----------------------------------------
 .byte   W96
@  #13 @064   ----------------------------------------
 .byte   W96
@  #13 @065   ----------------------------------------
 .byte   W96
@  #13 @066   ----------------------------------------
 .byte   GOTO
  .word Label_01558FD2
@  #13 @067   ----------------------------------------
 .byte   W05
 .byte   FINE

@**************** Track 14 (Midi-Chn.13) ****************@

song33_014:
@  #14 @000   ----------------------------------------
 .byte   KEYSH , song33_key+0
Label_0155879A:
 .byte   VOICE , 1
 .byte   VOL , 9*song33_mvl/mxv
 .byte   PAN , c_v+0
 .byte   W06
 .byte   N11 ,Cn3 ,v092
 .byte   N11 ,En3
 .byte   W12
 .byte   En2
 .byte   W12
 .byte   Bn2
 .byte   N11 ,Dn3
 .byte   W12
 .byte   En2
 .byte   W12
 .byte   Cn3
 .byte   N11 ,En3
 .byte   W12
 .byte   En2
 .byte   W12
 .byte   Dn3
 .byte   N11 ,Fn3
 .byte   W12
 .byte   En2
 .byte   W06
@  #14 @001   ----------------------------------------
 .byte   W06
 .byte   Cn3
 .byte   N11 ,En3
 .byte   W12
 .byte   En2
 .byte   W12
 .byte   Bn2
 .byte   N11 ,Dn3
 .byte   W12
 .byte   En2
 .byte   W12
 .byte   Cn3
 .byte   N11 ,En3
 .byte   W12
 .byte   En2
 .byte   W12
 .byte   Bn2
 .byte   N11 ,Dn3
 .byte   W12
 .byte   En2
 .byte   W06
@  #14 @002   ----------------------------------------
 .byte   W06
 .byte   Cn3
 .byte   N11 ,En3
 .byte   W12
 .byte   En2
 .byte   W12
 .byte   Dn3
 .byte   N11 ,Fn3
 .byte   W12
 .byte   En2
 .byte   W12
 .byte   Cn3
 .byte   N11 ,En3
 .byte   W12
 .byte   En2
 .byte   W12
 .byte   Bn2
 .byte   N11 ,Dn3
 .byte   W12
 .byte   En2
 .byte   W06
@  #14 @003   ----------------------------------------
Label_015587ED:
 .byte   W06
 .byte   N11 ,Cn3 ,v092
 .byte   N11 ,En3
 .byte   W12
 .byte   En2
 .byte   W12
 .byte   En3
 .byte   N11 ,Gn3
 .byte   W12
 .byte   En2
 .byte   W12
 .byte   Cn3
 .byte   N11 ,En3
 .byte   W12
 .byte   En2
 .byte   W12
 .byte   Bn2
 .byte   N11 ,Dn3
 .byte   W12
 .byte   En2
 .byte   W06
 .byte   PEND 
@  #14 @004   ----------------------------------------
Label_01558809:
 .byte   W06
 .byte   N11 ,Cn3 ,v092
 .byte   N11 ,En3
 .byte   W12
 .byte   En2
 .byte   W12
 .byte   Bn2
 .byte   N11 ,Dn3
 .byte   W12
 .byte   En2
 .byte   W12
 .byte   An2
 .byte   N11 ,Cn3
 .byte   W12
 .byte   En2
 .byte   W12
 .byte   Bn2
 .byte   N11 ,Dn3
 .byte   W12
 .byte   En2
 .byte   W06
 .byte   PEND 
@  #14 @005   ----------------------------------------
 .byte   W06
 .byte   An2
 .byte   N11 ,Cn3
 .byte   W12
 .byte   En2
 .byte   W12
 .byte   Gs2
 .byte   N11 ,Bn2
 .byte   W12
 .byte   En2
 .byte   W12
 .byte   An2
 .byte   N11 ,Cn3
 .byte   W12
 .byte   En2
 .byte   W12
 .byte   Bn2
 .byte   N11 ,Dn3
 .byte   W12
 .byte   En2
 .byte   W06
@  #14 @006   ----------------------------------------
 .byte   PATT
  .word Label_015587ED
@  #14 @007   ----------------------------------------
 .byte   PATT
  .word Label_01558809
@  #14 @008   ----------------------------------------
 .byte   W06
 .byte   N11 ,An2 ,v092
 .byte   N11 ,Cn3
 .byte   W12
 .byte   En2
 .byte   W12
 .byte   Gs2
 .byte   N11 ,Bn2
 .byte   W12
 .byte   En2
 .byte   W12
 .byte   Gs2
 .byte   W12
 .byte   An2
 .byte   W12
 .byte   Bn2
 .byte   W12
 .byte   En2
 .byte   W06
@  #14 @009   ----------------------------------------
 .byte   W06
 .byte   An2
 .byte   N11 ,Cn3
 .byte   W12
 .byte   En2
 .byte   W12
 .byte   An2
 .byte   W12
 .byte   Bn2
 .byte   W12
 .byte   Cn3
 .byte   W12
 .byte   En2
 .byte   W12
 .byte   Bn2
 .byte   N11 ,Dn3
 .byte   W12
 .byte   Fn2
 .byte   W06
@  #14 @010   ----------------------------------------
 .byte   W06
 .byte   An2
 .byte   W12
 .byte   Bn2
 .byte   W12
 .byte   Dn3
 .byte   W12
 .byte   Fn2
 .byte   W12
 .byte   TIE ,En2
 .byte   W04
 .byte   Gs2
 .byte   W01
 .byte   Bn2
 .byte   W03
 .byte   En3
 .byte   W32
 .byte   W02
@  #14 @011   ----------------------------------------
 .byte   W92
 .byte   W03
 .byte   EOT
 .byte   Bn2
 .byte   W01
@  #14 @012   ----------------------------------------
 .byte   En2 ,v064
 .byte   W01
 .byte   Gs2
 .byte   W92
 .byte   W03
@  #14 @013   ----------------------------------------
 .byte   W96
@  #14 @014   ----------------------------------------
 .byte   W96
@  #14 @015   ----------------------------------------
 .byte   W96
@  #14 @016   ----------------------------------------
 .byte   W96
@  #14 @017   ----------------------------------------
 .byte   W96
@  #14 @018   ----------------------------------------
 .byte   W96
@  #14 @019   ----------------------------------------
 .byte   W96
@  #14 @020   ----------------------------------------
 .byte   W96
@  #14 @021   ----------------------------------------
 .byte   W96
@  #14 @022   ----------------------------------------
 .byte   W96
@  #14 @023   ----------------------------------------
 .byte   W96
@  #14 @024   ----------------------------------------
 .byte   W96
@  #14 @025   ----------------------------------------
 .byte   W96
@  #14 @026   ----------------------------------------
 .byte   W96
@  #14 @027   ----------------------------------------
 .byte   W96
@  #14 @028   ----------------------------------------
 .byte   W96
@  #14 @029   ----------------------------------------
 .byte   W96
@  #14 @030   ----------------------------------------
 .byte   W96
@  #14 @031   ----------------------------------------
 .byte   W96
@  #14 @032   ----------------------------------------
 .byte   W96
@  #14 @033   ----------------------------------------
 .byte   W96
@  #14 @034   ----------------------------------------
 .byte   W96
@  #14 @035   ----------------------------------------
 .byte   W96
@  #14 @036   ----------------------------------------
 .byte   W96
@  #14 @037   ----------------------------------------
 .byte   W96
@  #14 @038   ----------------------------------------
 .byte   W96
@  #14 @039   ----------------------------------------
 .byte   W96
@  #14 @040   ----------------------------------------
 .byte   W96
@  #14 @041   ----------------------------------------
 .byte   W96
@  #14 @042   ----------------------------------------
 .byte   W96
@  #14 @043   ----------------------------------------
 .byte   W96
@  #14 @044   ----------------------------------------
 .byte   W96
@  #14 @045   ----------------------------------------
 .byte   W96
@  #14 @046   ----------------------------------------
 .byte   W96
@  #14 @047   ----------------------------------------
 .byte   W96
@  #14 @048   ----------------------------------------
 .byte   W96
@  #14 @049   ----------------------------------------
 .byte   W96
@  #14 @050   ----------------------------------------
 .byte   W96
@  #14 @051   ----------------------------------------
 .byte   W96
@  #14 @052   ----------------------------------------
 .byte   W96
@  #14 @053   ----------------------------------------
 .byte   W96
@  #14 @054   ----------------------------------------
 .byte   W96
@  #14 @055   ----------------------------------------
 .byte   W96
@  #14 @056   ----------------------------------------
 .byte   W96
@  #14 @057   ----------------------------------------
 .byte   W96
@  #14 @058   ----------------------------------------
 .byte   W96
@  #14 @059   ----------------------------------------
 .byte   W96
@  #14 @060   ----------------------------------------
 .byte   W06
 .byte   N11
 .byte   N11 ,Cn3
 .byte   W12
 .byte   Cn2
 .byte   W12
 .byte   Gn2
 .byte   N11 ,As2
 .byte   W12
 .byte   Cn2
 .byte   W12
 .byte   Gs2
 .byte   N11 ,Cn3
 .byte   W12
 .byte   Cn2
 .byte   W12
 .byte   As2
 .byte   N11 ,Cs3
 .byte   W12
 .byte   Cn2
 .byte   W06
@  #14 @061   ----------------------------------------
 .byte   W06
 .byte   Gs2
 .byte   N11 ,Cn3
 .byte   W12
 .byte   Cn2
 .byte   W12
 .byte   Gn2
 .byte   N11 ,As2
 .byte   W12
 .byte   Cn2
 .byte   W12
 .byte   Gs2
 .byte   N11 ,Cn3
 .byte   W12
 .byte   Cn2
 .byte   W12
 .byte   Gn2
 .byte   N11 ,As2
 .byte   W12
 .byte   Cn2
 .byte   W06
@  #14 @062   ----------------------------------------
 .byte   W06
 .byte   Gs2
 .byte   N11 ,Cn3
 .byte   W12
 .byte   Cn2
 .byte   W12
 .byte   As2
 .byte   N11 ,Cs3
 .byte   W12
 .byte   Cn2
 .byte   W12
 .byte   Gs2
 .byte   N11 ,Cn3
 .byte   W12
 .byte   Cn2
 .byte   W12
 .byte   Gn2
 .byte   N11 ,As2
 .byte   W12
 .byte   Cn2
 .byte   W06
@  #14 @063   ----------------------------------------
 .byte   W06
 .byte   Gs2
 .byte   N11 ,Cn3
 .byte   W12
 .byte   Cn2
 .byte   W12
 .byte   Cn3
 .byte   N11 ,Ds3
 .byte   W12
 .byte   Cn2
 .byte   W12
 .byte   Gs2
 .byte   N11 ,Cn3
 .byte   W12
 .byte   Cn2
 .byte   W12
 .byte   Gn2
 .byte   N11 ,As2
 .byte   W12
 .byte   Cn2
 .byte   W06
@  #14 @064   ----------------------------------------
 .byte   W06
 .byte   Gs2
 .byte   N11 ,Cn3
 .byte   W12
 .byte   Cn2
 .byte   W12
 .byte   Gn2
 .byte   N11 ,As2
 .byte   W12
 .byte   Cn2
 .byte   W12
 .byte   Fn2
 .byte   N11 ,Gs2
 .byte   W12
 .byte   Cn2
 .byte   W12
 .byte   Gn2
 .byte   N11 ,As2
 .byte   W12
 .byte   Cn2
 .byte   W06
@  #14 @065   ----------------------------------------
 .byte   W06
 .byte   Fn2
 .byte   N11 ,Gs2
 .byte   W12
 .byte   Cn2
 .byte   W12
 .byte   En2
 .byte   N11 ,Gn2
 .byte   W12
 .byte   Cn2
 .byte   W12
 .byte   Fn2
 .byte   N11 ,Gs2
 .byte   W12
 .byte   Cn2
 .byte   W12
 .byte   Gn2
 .byte   N11 ,As2
 .byte   W12
 .byte   Cn2
 .byte   W06
@  #14 @066   ----------------------------------------
 .byte   GOTO
  .word Label_0155879A
@  #14 @067   ----------------------------------------
 .byte   W05
 .byte   FINE

@**************** Track 15 (Midi-Chn.14) ****************@

song33_015:
@  #15 @000   ----------------------------------------
 .byte   KEYSH , song33_key+0
Label_01558962:
 .byte   VOICE , 18
 .byte   VOL , 8*song33_mvl/mxv
 .byte   PAN , c_v+0
 .byte   W96
@  #15 @001   ----------------------------------------
 .byte   W96
@  #15 @002   ----------------------------------------
 .byte   W96
@  #15 @003   ----------------------------------------
 .byte   W96
@  #15 @004   ----------------------------------------
 .byte   W96
@  #15 @005   ----------------------------------------
 .byte   W96
@  #15 @006   ----------------------------------------
 .byte   W96
@  #15 @007   ----------------------------------------
 .byte   W96
@  #15 @008   ----------------------------------------
 .byte   W96
@  #15 @009   ----------------------------------------
 .byte   W96
@  #15 @010   ----------------------------------------
 .byte   W96
@  #15 @011   ----------------------------------------
 .byte   W96
@  #15 @012   ----------------------------------------
 .byte   W78
 .byte   BEND , c_v+3
 .byte   W12
 .byte   N32 ,En4 ,v092
 .byte   W06
@  #15 @013   ----------------------------------------
Label_0155897C:
 .byte   W30
 .byte   N11 ,Dn4 ,v092
 .byte   W12
 .byte   Cn4
 .byte   W12
 .byte   Bn3
 .byte   W12
 .byte   N44 ,Cn4
 .byte   W30
 .byte   PEND 
@  #15 @014   ----------------------------------------
Label_01558989:
 .byte   W18
 .byte   N23 ,Bn3 ,v092
 .byte   W24
 .byte   N44 ,An3
 .byte   W48
 .byte   N11 ,Gn3
 .byte   W06
 .byte   PEND 
@  #15 @015   ----------------------------------------
Label_01558995:
 .byte   W06
 .byte   N11 ,An3 ,v092
 .byte   W12
 .byte   N44 ,En3
 .byte   W48
 .byte   N11 ,Cn4
 .byte   W12
 .byte   Dn4
 .byte   W12
 .byte   N32 ,En4
 .byte   W06
 .byte   PEND 
@  #15 @016   ----------------------------------------
 .byte   PATT
  .word Label_0155897C
@  #15 @017   ----------------------------------------
Label_015589AB:
 .byte   W18
 .byte   N23 ,Bn3 ,v092
 .byte   W24
 .byte   N44 ,An3
 .byte   W48
 .byte   N23 ,Gn3
 .byte   W06
 .byte   PEND 
@  #15 @018   ----------------------------------------
 .byte   W18
 .byte   N44 ,An3
 .byte   W72
 .byte   N32 ,En4
 .byte   W06
@  #15 @019   ----------------------------------------
 .byte   PATT
  .word Label_0155897C
@  #15 @020   ----------------------------------------
 .byte   PATT
  .word Label_01558989
@  #15 @021   ----------------------------------------
 .byte   PATT
  .word Label_01558995
@  #15 @022   ----------------------------------------
 .byte   PATT
  .word Label_0155897C
@  #15 @023   ----------------------------------------
 .byte   PATT
  .word Label_015589AB
@  #15 @024   ----------------------------------------
 .byte   W18
 .byte   TIE ,An3 ,v092
 .byte   W78
@  #15 @025   ----------------------------------------
 .byte   W40
 .byte   W01
 .byte   EOT
 .byte   W24
 .byte   W01
 .byte   N32 ,Gn3
 .byte   W30
@  #15 @026   ----------------------------------------
Label_015589E4:
 .byte   W06
 .byte   N11 ,Dn3 ,v092
 .byte   W12
 .byte   En3
 .byte   W12
 .byte   Fn3
 .byte   W12
 .byte   N23
 .byte   W24
 .byte   N40 ,En3
 .byte   W30
 .byte   PEND 
@  #15 @027   ----------------------------------------
 .byte   W18
 .byte   N32
 .byte   W36
 .byte   N11 ,Fn3
 .byte   W12
 .byte   En3
 .byte   W12
 .byte   Dn3
 .byte   W12
 .byte   N23
 .byte   W06
@  #15 @028   ----------------------------------------
 .byte   W18
 .byte   N40 ,Cn3
 .byte   W48
 .byte   N32
 .byte   W30
@  #15 @029   ----------------------------------------
 .byte   W06
 .byte   N11 ,Bn2
 .byte   W12
 .byte   Cn3
 .byte   W12
 .byte   Dn3
 .byte   W12
 .byte   N23 ,Cn3
 .byte   W24
 .byte   Bn2
 .byte   W24
 .byte   Dn3
 .byte   W06
@  #15 @030   ----------------------------------------
 .byte   W18
 .byte   N44
 .byte   W48
 .byte   N23 ,En3
 .byte   W24
 .byte   N32
 .byte   W06
@  #15 @031   ----------------------------------------
 .byte   W42
 .byte   N11
 .byte   W12
 .byte   Fn3
 .byte   W12
 .byte   N32 ,Gn3
 .byte   W30
@  #15 @032   ----------------------------------------
 .byte   PATT
  .word Label_015589E4
@  #15 @033   ----------------------------------------
 .byte   W18
 .byte   N32 ,Gs3 ,v092
 .byte   W36
 .byte   N11 ,An3
 .byte   W12
 .byte   Bn3
 .byte   W12
 .byte   En3
 .byte   W12
 .byte   N23 ,Bn3
 .byte   W06
@  #15 @034   ----------------------------------------
 .byte   W18
 .byte   Cn4
 .byte   W24
 .byte   Dn4
 .byte   W24
 .byte   N32 ,Cn4
 .byte   W30
@  #15 @035   ----------------------------------------
 .byte   W06
 .byte   N11 ,Bn3
 .byte   W12
 .byte   An3
 .byte   W12
 .byte   Bn3
 .byte   W12
 .byte   N23 ,Cn4
 .byte   W24
 .byte   Gn3
 .byte   W24
 .byte   Cn4
 .byte   W06
@  #15 @036   ----------------------------------------
 .byte   W18
 .byte   N32 ,Fn4
 .byte   W36
 .byte   N11 ,Ds4
 .byte   W12
 .byte   Dn4
 .byte   W12
 .byte   Cn4
 .byte   W12
 .byte   N44
 .byte   W06
@  #15 @037   ----------------------------------------
 .byte   W42
 .byte   N23 ,As3
 .byte   W24
 .byte   TIE ,Cn4
 .byte   W30
@  #15 @038   ----------------------------------------
 .byte   W96
@  #15 @039   ----------------------------------------
 .byte   W88
 .byte   W01
 .byte   EOT
 .byte   W07
@  #15 @040   ----------------------------------------
 .byte   W42
 .byte   N23 ,As3
 .byte   W54
@  #15 @041   ----------------------------------------
 .byte   W96
@  #15 @042   ----------------------------------------
 .byte   W96
@  #15 @043   ----------------------------------------
 .byte   W96
@  #15 @044   ----------------------------------------
 .byte   W96
@  #15 @045   ----------------------------------------
 .byte   W96
@  #15 @046   ----------------------------------------
 .byte   W96
@  #15 @047   ----------------------------------------
 .byte   W96
@  #15 @048   ----------------------------------------
 .byte   W96
@  #15 @049   ----------------------------------------
 .byte   W96
@  #15 @050   ----------------------------------------
 .byte   W96
@  #15 @051   ----------------------------------------
 .byte   W96
@  #15 @052   ----------------------------------------
 .byte   W66
 .byte   N40 ,Dn3 ,v080
 .byte   N40 ,Fn3 ,v088
 .byte   W30
@  #15 @053   ----------------------------------------
 .byte   W18
 .byte   N11 ,Cn3 ,v080
 .byte   N11 ,Ds3 ,v088
 .byte   W12
 .byte   Dn3 ,v080
 .byte   N11 ,Fn3 ,v088
 .byte   W12
 .byte   N23 ,Ds3 ,v080
 .byte   N23 ,Gn3 ,v088
 .byte   W24
 .byte   Dn3 ,v080
 .byte   N23 ,Fn3 ,v088
 .byte   W24
 .byte   Cn3 ,v080
 .byte   N23 ,Ds3 ,v088
 .byte   W06
@  #15 @054   ----------------------------------------
 .byte   W18
 .byte   As2 ,v080
 .byte   N23 ,Dn3 ,v088
 .byte   W24
 .byte   Cn3 ,v080
 .byte   N23 ,Ds3 ,v088
 .byte   W24
 .byte   As2 ,v080
 .byte   N23 ,Dn3 ,v088
 .byte   W24
 .byte   N44 ,Gs2 ,v080
 .byte   N44 ,Cn3 ,v088
 .byte   W06
@  #15 @055   ----------------------------------------
 .byte   W42
 .byte   N11 ,Dn3
 .byte   W12
 .byte   Ds3
 .byte   W12
 .byte   N40 ,Dn3 ,v080
 .byte   N40 ,Fn3 ,v088
 .byte   W30
@  #15 @056   ----------------------------------------
 .byte   W18
 .byte   N11 ,Cn3 ,v080
 .byte   N11 ,Ds3 ,v088
 .byte   W12
 .byte   Dn3 ,v080
 .byte   N11 ,Fn3 ,v088
 .byte   W12
 .byte   N23 ,Ds3 ,v080
 .byte   N23 ,Gn3 ,v088
 .byte   W24
 .byte   Gn3 ,v080
 .byte   N23 ,Cn4 ,v088
 .byte   W24
 .byte   Ds3 ,v080
 .byte   N23 ,Gn3 ,v088
 .byte   W06
@  #15 @057   ----------------------------------------
 .byte   W18
 .byte   As2 ,v080
 .byte   N23 ,Dn3 ,v088
 .byte   W24
 .byte   Ds3 ,v080
 .byte   N23 ,Gn3 ,v088
 .byte   W24
 .byte   Fn3 ,v080
 .byte   N23 ,As3 ,v088
 .byte   W24
 .byte   TIE ,Cn4 ,v080
 .byte   TIE ,Ds4 ,v088
 .byte   W06
@  #15 @058   ----------------------------------------
 .byte   W96
@  #15 @059   ----------------------------------------
 .byte   W96
@  #15 @060   ----------------------------------------
 .byte   W17
 .byte   EOT
 .byte   Cn4 ,v075
 .byte   W78
 .byte   W01
@  #15 @061   ----------------------------------------
 .byte   W96
@  #15 @062   ----------------------------------------
 .byte   W96
@  #15 @063   ----------------------------------------
 .byte   W96
@  #15 @064   ----------------------------------------
 .byte   W96
@  #15 @065   ----------------------------------------
 .byte   W96
@  #15 @066   ----------------------------------------
 .byte   GOTO
  .word Label_01558962
@  #15 @067   ----------------------------------------
 .byte   W05
 .byte   FINE

@******************************************************@
	.align	2

song33:
	.byte	15	@ NumTrks
	.byte	0	@ NumBlks
	.byte	song33_pri	@ Priority
	.byte	song33_rev	@ Reverb.
    
	.word	song33_grp
    
	.word	song33_001
	.word	song33_002
	.word	song33_003
	.word	song33_004
	.word	song33_005
	.word	song33_006
	.word	song33_007
	.word	song33_008
	.word	song33_009
	.word	song33_010
	.word	song33_011
	.word	song33_012
	.word	song33_013
	.word	song33_014
	.word	song33_015

	.end
