//Event file generated from Sappy .s format.
	#include "MPlayDef.event"

	#define	LussariaDestiny_grp  voicegroup000
	#define	LussariaDestiny_pri  0
	#define	LussariaDestiny_rev  0
	#define	LussariaDestiny_mvl  127
	#define	LussariaDestiny_key  0
	#define	LussariaDestiny_tbs  1
	#define	LussariaDestiny_exg  0
	#define	LussariaDestiny_cmp  1

	// .rodata
	//	LussariaDestiny
	ALIGN 4


//**************** Track 1 (Midi-Chn.0) ****************//

LussariaDestiny_001:
//  #01 //000   ----------------------------------------
 BYTE   KEYSH   LussariaDestiny_key+0
Label_0180196E:
 BYTE   TEMPO   124*LussariaDestiny_tbs/2
 BYTE   VOICE   1
 BYTE   PAN   c_v+0
 BYTE   VOL   29*LussariaDestiny_mvl/mxv
 BYTE   PAN   c_v+0
 BYTE   VOL   29*LussariaDestiny_mvl/mxv
 BYTE   PAN   c_v+0
 BYTE   VOL   29*LussariaDestiny_mvl/mxv
 BYTE   PAN   c_v+0
 BYTE   VOL   29*LussariaDestiny_mvl/mxv
 BYTE   PAN   c_v+0
 BYTE   VOL   29*LussariaDestiny_mvl/mxv
 BYTE   BEND   c_v+0
 BYTE   W96
//  #01 //001   ----------------------------------------
 BYTE   W96
//  #01 //002   ----------------------------------------
 BYTE   W96
//  #01 //003   ----------------------------------------
 BYTE   W96
//  #01 //004   ----------------------------------------
 BYTE   W96
//  #01 //005   ----------------------------------------
 BYTE   W96
//  #01 //006   ----------------------------------------
 BYTE   W96
//  #01 //007   ----------------------------------------
 BYTE   W96
//  #01 //008   ----------------------------------------
 BYTE   VOICE   20
 BYTE   N92  Dn2  v100
 BYTE   W96
//  #01 //009   ----------------------------------------
 BYTE   Cn2
 BYTE   W96
//  #01 //010   ----------------------------------------
 BYTE   As1
 BYTE   W96
//  #01 //011   ----------------------------------------
 BYTE   Cn2
 BYTE   W96
//  #01 //012   ----------------------------------------
Label_0180199C:
 BYTE   N44  Dn2  v100
 BYTE   W48
 BYTE   N23  Fn2
 BYTE   W24
 BYTE   N11  En2
 BYTE   W12
 BYTE   Dn2
 BYTE   W12
 BYTE   PEND 
//  #01 //013   ----------------------------------------
Label_018019A9:
 BYTE   N44  Cn2  v100
 BYTE   W48
 BYTE   N23  Fn2
 BYTE   W24
 BYTE   N11  En2
 BYTE   W12
 BYTE   Dn2
 BYTE   W12
 BYTE   PEND 
//  #01 //014   ----------------------------------------
Label_018019B6:
 BYTE   N44  As1  v100
 BYTE   W48
 BYTE   N23  Fn2
 BYTE   W24
 BYTE   N11  En2
 BYTE   W12
 BYTE   Dn2
 BYTE   W12
 BYTE   PEND 
//  #01 //015   ----------------------------------------
 BYTE   N92  Cs2
 BYTE   W96
//  #01 //016   ----------------------------------------
 BYTE   Dn2
 BYTE   W96
//  #01 //017   ----------------------------------------
 BYTE   Cn2
 BYTE   W96
//  #01 //018   ----------------------------------------
 BYTE   As1
 BYTE   W96
//  #01 //019   ----------------------------------------
 BYTE   Cn2
 BYTE   W96
//  #01 //020   ----------------------------------------
 BYTE   PATT
  POIN2 Label_0180199C
//  #01 //021   ----------------------------------------
 BYTE   PATT
  POIN2 Label_018019A9
//  #01 //022   ----------------------------------------
 BYTE   PATT
  POIN2 Label_018019B6
//  #01 //023   ----------------------------------------
 BYTE   N92  Cn2  v100
 BYTE   W96
//  #01 //024   ----------------------------------------
 BYTE   VOICE   40
 BYTE   W24
 BYTE   N23  An2
 BYTE   W24
 BYTE   Dn3
 BYTE   W24
 BYTE   En3
 BYTE   W24
//  #01 //025   ----------------------------------------
 BYTE   N44  Fn3
 BYTE   W48
 BYTE   En3
 BYTE   W48
//  #01 //026   ----------------------------------------
 BYTE   An3
 BYTE   W48
 BYTE   Fn3
 BYTE   W48
//  #01 //027   ----------------------------------------
 BYTE   En3
 BYTE   W48
 BYTE   Cn3
 BYTE   W48
//  #01 //028   ----------------------------------------
 BYTE   An2
 BYTE   N44  Dn3
 BYTE   W48
 BYTE   N44
 BYTE   N44  An3
 BYTE   W48
//  #01 //029   ----------------------------------------
 BYTE   N44
 BYTE   N44  Dn4
 BYTE   W48
 BYTE   Dn3
 BYTE   N44  An3
 BYTE   W48
//  #01 //030   ----------------------------------------
 BYTE   N44
 BYTE   N44  Fn4
 BYTE   W48
 BYTE   Fn3
 BYTE   N44  Dn4
 BYTE   W48
//  #01 //031   ----------------------------------------
 BYTE   N92
 BYTE   N92  An4
 BYTE   W24
 BYTE   VOL   23*LussariaDestiny_mvl/mxv
 BYTE   W24
 BYTE   VOL   18*LussariaDestiny_mvl/mxv
 BYTE   W24
 BYTE   VOL   14*LussariaDestiny_mvl/mxv
 BYTE   W24
//  #01 //032   ----------------------------------------
 BYTE   VOL   29*LussariaDestiny_mvl/mxv
 BYTE   W96
//  #01 //033   ----------------------------------------
 BYTE   W72
 BYTE   N11  Dn3
 BYTE   N11  Dn4
 BYTE   W12
 BYTE   En3
 BYTE   N11  En4
 BYTE   W12
//  #01 //034   ----------------------------------------
Label_01801A27:
 BYTE   N23  Fn3  v100
 BYTE   N23  Fn4
 BYTE   W24
 BYTE   Dn3
 BYTE   N23  Dn4
 BYTE   W24
 BYTE   En3
 BYTE   N23  En4
 BYTE   W24
 BYTE   Cn3
 BYTE   N23  Cn4
 BYTE   W24
 BYTE   PEND 
//  #01 //035   ----------------------------------------
 BYTE   N56  An2
 BYTE   N56  An3
 BYTE   W60
 BYTE   N11  Fn2
 BYTE   N11  Fn3
 BYTE   W12
 BYTE   As2
 BYTE   N11  As3
 BYTE   W12
 BYTE   An2
 BYTE   N11  An3
 BYTE   W12
//  #01 //036   ----------------------------------------
 BYTE   N23  As2
 BYTE   N23  As3
 BYTE   W24
 BYTE   An2
 BYTE   N23  An3
 BYTE   W24
 BYTE   Fn2
 BYTE   N23  Fn3
 BYTE   W24
 BYTE   An2
 BYTE   N23  An3
 BYTE   W24
//  #01 //037   ----------------------------------------
 BYTE   N68  Gn2
 BYTE   N68  Gn3
 BYTE   W72
 BYTE   N11  Fn2
 BYTE   N11  Fn3
 BYTE   W12
 BYTE   En2
 BYTE   N11  En3
 BYTE   W12
//  #01 //038   ----------------------------------------
 BYTE   N23  Fn2
 BYTE   N23  Fn3
 BYTE   W24
 BYTE   Dn2
 BYTE   N23  Dn3
 BYTE   W24
 BYTE   An2
 BYTE   N23  An3
 BYTE   W24
 BYTE   Fn2
 BYTE   N23  Fn3
 BYTE   W24
//  #01 //039   ----------------------------------------
 BYTE   Cn3
 BYTE   N23  Cn4
 BYTE   W24
 BYTE   An2
 BYTE   N23  An3
 BYTE   W24
 BYTE   Dn3
 BYTE   N23  Dn4
 BYTE   W24
 BYTE   N11  Dn3
 BYTE   N11  Dn4
 BYTE   W12
 BYTE   En3
 BYTE   N11  En4
 BYTE   W12
//  #01 //040   ----------------------------------------
 BYTE   PATT
  POIN2 Label_01801A27
//  #01 //041   ----------------------------------------
 BYTE   N32  En3  v100
 BYTE   N32  En4
 BYTE   W36
 BYTE   N11  Dn3
 BYTE   N11  Dn4
 BYTE   W12
 BYTE   Dn3
 BYTE   N11  Dn4
 BYTE   W12
 BYTE   VOICE   48
 BYTE   VOL   23*LussariaDestiny_mvl/mxv
 BYTE   N11  Bn3
 BYTE   N11  En4
 BYTE   W12
 BYTE   N11
 BYTE   N11  Gn4
 BYTE   W12
 BYTE   Fs4
 BYTE   N11  An4
 BYTE   W12
//  #01 //042   ----------------------------------------
Label_01801AB6:
 BYTE   N23  Gn4  v100
 BYTE   N23  Bn4
 BYTE   W24
 BYTE   En4
 BYTE   N23  Gn4
 BYTE   W24
 BYTE   Fs4
 BYTE   N23  An4
 BYTE   W24
 BYTE   Dn4
 BYTE   N23  Fs4
 BYTE   W24
 BYTE   PEND 
//  #01 //043   ----------------------------------------
 BYTE   N56  Cn4
 BYTE   N56  En4
 BYTE   W60
 BYTE   N11  Gn3
 BYTE   N11  Cn4
 BYTE   W12
 BYTE   N11
 BYTE   N11  En4
 BYTE   W12
 BYTE   Bn3
 BYTE   N11  Dn4
 BYTE   W12
//  #01 //044   ----------------------------------------
 BYTE   N23  Cn4
 BYTE   N23  En4
 BYTE   W24
 BYTE   Bn3
 BYTE   N23  Gn4
 BYTE   W24
 BYTE   Gn3
 BYTE   N23  Gn4
 BYTE   W24
 BYTE   Bn3
 BYTE   N23  Bn4
 BYTE   W24
//  #01 //045   ----------------------------------------
 BYTE   N68  An3
 BYTE   N44  An4
 BYTE   W48
 BYTE   N23  Dn4
 BYTE   W24
 BYTE   N11  Gn3
 BYTE   N11  Bn3
 BYTE   W12
 BYTE   Fs3
 BYTE   N11  An3
 BYTE   W12
//  #01 //046   ----------------------------------------
 BYTE   N23  Gn3
 BYTE   N23  Bn3
 BYTE   W24
 BYTE   En3
 BYTE   N23  Gn3
 BYTE   W24
 BYTE   Bn3
 BYTE   N23  Dn4
 BYTE   W24
 BYTE   Gn3
 BYTE   N23  Bn3
 BYTE   W24
//  #01 //047   ----------------------------------------
 BYTE   Dn4
 BYTE   N23  Fs4
 BYTE   W24
 BYTE   Bn3
 BYTE   N23  Dn4
 BYTE   W24
 BYTE   En4
 BYTE   N23  Gn4
 BYTE   W24
 BYTE   N11  En4
 BYTE   N11  Gn4
 BYTE   W12
 BYTE   Fs4
 BYTE   N11  An4
 BYTE   W12
//  #01 //048   ----------------------------------------
 BYTE   PATT
  POIN2 Label_01801AB6
//  #01 //049   ----------------------------------------
 BYTE   N32  Fs4  v100
 BYTE   N32  An4
 BYTE   W36
 BYTE   N11  Cn4
 BYTE   N11  Gn4
 BYTE   W12
 BYTE   TIE  Cn4
 BYTE   TIE  Gn4
 BYTE   W48
//  #01 //050   ----------------------------------------
 BYTE   W96
//  #01 //051   ----------------------------------------
 BYTE   W44
 BYTE   W03
 BYTE   EOT
 BYTE   Cn4  v079
 BYTE   W01
 BYTE   TIE  Dn4
 BYTE   TIE  An4
 BYTE   W48
//  #01 //052   ----------------------------------------
 BYTE   W96
//  #01 //053   ----------------------------------------
 BYTE   W44
 BYTE   W03
 BYTE   EOT
 BYTE   Dn4  v081
 BYTE   W01
 BYTE   VOICE   40
 BYTE   VOL   29*LussariaDestiny_mvl/mxv
 BYTE   N92  Bn2
 BYTE   N92  Dn3
 BYTE   W48
//  #01 //054   ----------------------------------------
 BYTE   W48
 BYTE   Gn2
 BYTE   N92  Bn2
 BYTE   W48
//  #01 //055   ----------------------------------------
 BYTE   W48
 BYTE   TIE  En2
 BYTE   N44  Cn3
 BYTE   W48
//  #01 //056   ----------------------------------------
 BYTE   Bn2
 BYTE   W48
 BYTE   An2
 BYTE   W48
//  #01 //057   ----------------------------------------
 BYTE   Gn2
 BYTE   W44
 BYTE   W03
 BYTE   EOT
 BYTE   En2
 BYTE   W01
 BYTE   N92  Ds2
 BYTE   N92  Bn2
 BYTE   W48
//  #01 //058   ----------------------------------------
 BYTE   W48
 BYTE   Ds2
 BYTE   N92  Fs2
 BYTE   W48
//  #01 //059   ----------------------------------------
 BYTE   W48
 BYTE   GoTo
  POIN2 Label_0180196E
//  #01 //060   ----------------------------------------
 BYTE   W42
 BYTE   VOICE   1
 BYTE   W06
 BYTE   CsM2
 BYTE   PAN   c_v+0
 BYTE   VOL   29*LussariaDestiny_mvl/mxv
 BYTE   PAN   c_v+0
 BYTE   VOL   29*LussariaDestiny_mvl/mxv
 BYTE   PAN   c_v+0
 BYTE   VOL   29*LussariaDestiny_mvl/mxv
 BYTE   BEND   c_v+0
 BYTE   FINE

//**************** Track 2 (Midi-Chn.1) ****************//

LussariaDestiny_002:
//  #02 //000   ----------------------------------------
 BYTE   KEYSH   LussariaDestiny_key+0
Label_01801B92:
 BYTE   VOICE   52
 BYTE   PAN   c_v+0
 BYTE   VOL   29*LussariaDestiny_mvl/mxv
 BYTE   PAN   c_v+0
 BYTE   VOL   29*LussariaDestiny_mvl/mxv
 BYTE   PAN   c_v+0
 BYTE   VOL   29*LussariaDestiny_mvl/mxv
 BYTE   PAN   c_v+0
 BYTE   VOL   29*LussariaDestiny_mvl/mxv
 BYTE   PAN   c_v+0
 BYTE   VOL   29*LussariaDestiny_mvl/mxv
 BYTE   BEND   c_v+0
 BYTE   W12
 BYTE   N11  Dn3  v100
 BYTE   W12
 BYTE   Fn3
 BYTE   W12
 BYTE   Dn3
 BYTE   W12
 BYTE   An3
 BYTE   W12
 BYTE   Fn3
 BYTE   W12
 BYTE   Dn3
 BYTE   W12
 BYTE   Fn3
 BYTE   W12
//  #02 //001   ----------------------------------------
Label_01801BBB:
 BYTE   W12
 BYTE   N11  Dn3  v100
 BYTE   W12
 BYTE   Fn3
 BYTE   W12
 BYTE   Dn3
 BYTE   W12
 BYTE   Fn3
 BYTE   N11  An3
 BYTE   W12
 BYTE   Dn3
 BYTE   N11  Fn3
 BYTE   W12
 BYTE   An3
 BYTE   N11  Dn4
 BYTE   W12
 BYTE   Gn3
 BYTE   N11  Cn4
 BYTE   W12
 BYTE   PEND 
//  #02 //002   ----------------------------------------
Label_01801BD5:
 BYTE   W12
 BYTE   N11  Dn3  v100
 BYTE   W12
 BYTE   Fn3
 BYTE   W12
 BYTE   Dn3
 BYTE   W12
 BYTE   An3
 BYTE   W12
 BYTE   Fn3
 BYTE   W12
 BYTE   Dn3
 BYTE   W12
 BYTE   Fn3
 BYTE   W12
 BYTE   PEND 
//  #02 //003   ----------------------------------------
 BYTE   PATT
  POIN2 Label_01801BBB
//  #02 //004   ----------------------------------------
 BYTE   PATT
  POIN2 Label_01801BD5
//  #02 //005   ----------------------------------------
 BYTE   PATT
  POIN2 Label_01801BBB
//  #02 //006   ----------------------------------------
 BYTE   PATT
  POIN2 Label_01801BD5
//  #02 //007   ----------------------------------------
 BYTE   PATT
  POIN2 Label_01801BBB
//  #02 //008   ----------------------------------------
 BYTE   W96
//  #02 //009   ----------------------------------------
 BYTE   W96
//  #02 //010   ----------------------------------------
 BYTE   W96
//  #02 //011   ----------------------------------------
 BYTE   W96
//  #02 //012   ----------------------------------------
 BYTE   W96
//  #02 //013   ----------------------------------------
 BYTE   W96
//  #02 //014   ----------------------------------------
 BYTE   W96
//  #02 //015   ----------------------------------------
 BYTE   W96
//  #02 //016   ----------------------------------------
 BYTE   VOICE   68
 BYTE   N68  Fn3  v100
 BYTE   W72
 BYTE   N23
 BYTE   W24
//  #02 //017   ----------------------------------------
 BYTE   N23
 BYTE   W24
 BYTE   N44  En3
 BYTE   W48
 BYTE   N11  Dn3
 BYTE   W12
 BYTE   En3
 BYTE   W12
//  #02 //018   ----------------------------------------
 BYTE   N68  Fn3
 BYTE   W72
 BYTE   N23  An3
 BYTE   W24
//  #02 //019   ----------------------------------------
 BYTE   Cn4
 BYTE   W24
 BYTE   N44  Gn3
 BYTE   W48
 BYTE   N11  Fn3
 BYTE   W12
 BYTE   En3
 BYTE   W12
//  #02 //020   ----------------------------------------
 BYTE   N23
 BYTE   W24
 BYTE   N44  Fn3
 BYTE   W48
 BYTE   N23  Dn3
 BYTE   W24
//  #02 //021   ----------------------------------------
 BYTE   Fn3
 BYTE   W24
 BYTE   N44  An3
 BYTE   W48
 BYTE   N23  Fn3
 BYTE   W24
//  #02 //022   ----------------------------------------
 BYTE   An3
 BYTE   W24
 BYTE   N44  As3
 BYTE   W48
 BYTE   N23  Fn3
 BYTE   W24
//  #02 //023   ----------------------------------------
 BYTE   N56  Cn4
 BYTE   W96
//  #02 //024   ----------------------------------------
 BYTE   VOICE   1
 BYTE   N05  Fn4
 BYTE   W12
 BYTE   An3
 BYTE   W12
 BYTE   Dn4
 BYTE   W12
 BYTE   An3
 BYTE   W12
 BYTE   Fn4
 BYTE   W12
 BYTE   An3
 BYTE   W12
 BYTE   Dn4
 BYTE   W12
 BYTE   An3
 BYTE   W12
//  #02 //025   ----------------------------------------
Label_01801C58:
 BYTE   N05  An4  v100
 BYTE   W12
 BYTE   An3
 BYTE   W12
 BYTE   Fn4
 BYTE   W12
 BYTE   Dn4
 BYTE   W12
 BYTE   An4
 BYTE   W12
 BYTE   An3
 BYTE   W12
 BYTE   Fn4
 BYTE   W12
 BYTE   Dn4
 BYTE   W12
 BYTE   PEND 
//  #02 //026   ----------------------------------------
Label_01801C6B:
 BYTE   N05  Fn4  v100
 BYTE   W12
 BYTE   An3
 BYTE   W12
 BYTE   Dn4
 BYTE   W12
 BYTE   An3
 BYTE   W12
 BYTE   Fn4
 BYTE   W12
 BYTE   An3
 BYTE   W12
 BYTE   Dn4
 BYTE   W12
 BYTE   An3
 BYTE   W12
 BYTE   PEND 
//  #02 //027   ----------------------------------------
 BYTE   Fn4
 BYTE   W12
 BYTE   An3
 BYTE   W12
 BYTE   Dn4
 BYTE   W12
 BYTE   Fn4
 BYTE   W12
 BYTE   En4
 BYTE   W12
 BYTE   An3
 BYTE   W12
 BYTE   Cn4
 BYTE   W12
 BYTE   En4
 BYTE   W12
//  #02 //028   ----------------------------------------
 BYTE   PATT
  POIN2 Label_01801C6B
//  #02 //029   ----------------------------------------
 BYTE   PATT
  POIN2 Label_01801C58
//  #02 //030   ----------------------------------------
 BYTE   PATT
  POIN2 Label_01801C6B
//  #02 //031   ----------------------------------------
 BYTE   W96
//  #02 //032   ----------------------------------------
 BYTE   N11  As2  v076
 BYTE   N11  Dn3
 BYTE   W12
 BYTE   An2
 BYTE   N11  Cn3
 BYTE   W12
 BYTE   Dn3  v080
 BYTE   N11  Fn3
 BYTE   W12
 BYTE   Cn3
 BYTE   N11  En3
 BYTE   W12
 BYTE   Fn3  v084
 BYTE   N11  An3
 BYTE   W12
 BYTE   En3
 BYTE   N11  Gn3
 BYTE   W12
 BYTE   An3  v088
 BYTE   N11  Dn4
 BYTE   W12
 BYTE   Gn3  v092
 BYTE   N11  Cn4
 BYTE   W12
//  #02 //033   ----------------------------------------
 BYTE   Dn4
 BYTE   N11  Fn4
 BYTE   W12
 BYTE   Cn4  v096
 BYTE   N11  En4
 BYTE   W12
 BYTE   Fn4
 BYTE   N11  An4
 BYTE   W12
 BYTE   En4  v100
 BYTE   N11  Gn4
 BYTE   W12
 BYTE   An4
 BYTE   N11  Dn5
 BYTE   W12
 BYTE   Gn4  v104
 BYTE   N11  Cn5
 BYTE   W36
//  #02 //034   ----------------------------------------
 BYTE   W96
//  #02 //035   ----------------------------------------
 BYTE   W96
//  #02 //036   ----------------------------------------
 BYTE   W96
//  #02 //037   ----------------------------------------
 BYTE   W96
//  #02 //038   ----------------------------------------
 BYTE   W96
//  #02 //039   ----------------------------------------
 BYTE   W96
//  #02 //040   ----------------------------------------
 BYTE   W96
//  #02 //041   ----------------------------------------
 BYTE   W96
//  #02 //042   ----------------------------------------
 BYTE   VOICE   68
 BYTE   W96
//  #02 //043   ----------------------------------------
 BYTE   W12
 BYTE   N11  Gn4  v100
 BYTE   W12
 BYTE   N11
 BYTE   W12
 BYTE   Fs4
 BYTE   W12
 BYTE   Gn4
 BYTE   W12
 BYTE   Fs4
 BYTE   W12
 BYTE   En4
 BYTE   W12
 BYTE   Dn4
 BYTE   W12
//  #02 //044   ----------------------------------------
 BYTE   N68  Cn4
 BYTE   W72
 BYTE   N23  En4
 BYTE   W24
//  #02 //045   ----------------------------------------
 BYTE   Dn4
 BYTE   W24
 BYTE   N05  Dn5
 BYTE   W06
 BYTE   Cn5
 BYTE   W06
 BYTE   An4
 BYTE   W06
 BYTE   Fs4
 BYTE   W06
 BYTE   N44  Dn4
 BYTE   W48
//  #02 //046   ----------------------------------------
 BYTE   N23  Gn3
 BYTE   W24
 BYTE   En3
 BYTE   W24
 BYTE   Bn3
 BYTE   W24
 BYTE   Gn3
 BYTE   W24
//  #02 //047   ----------------------------------------
 BYTE   Dn4
 BYTE   W24
 BYTE   Bn3
 BYTE   W24
 BYTE   Gn4
 BYTE   W24
 BYTE   N11
 BYTE   W12
 BYTE   Fs4
 BYTE   W12
//  #02 //048   ----------------------------------------
 BYTE   N23  Gn4
 BYTE   W24
 BYTE   En4
 BYTE   W24
 BYTE   Fs4
 BYTE   W24
 BYTE   Dn4
 BYTE   W24
//  #02 //049   ----------------------------------------
 BYTE   Fs4
 BYTE   W24
 BYTE   N05  Cn4
 BYTE   W06
 BYTE   Dn4
 BYTE   W06
 BYTE   En4
 BYTE   W06
 BYTE   Fs4
 BYTE   W06
 BYTE   N23  Gn4
 BYTE   W24
 BYTE   Fs4
 BYTE   W24
//  #02 //050   ----------------------------------------
 BYTE   En4
 BYTE   W24
 BYTE   Dn4
 BYTE   W24
 BYTE   Cn4
 BYTE   W24
 BYTE   Bn3
 BYTE   W24
//  #02 //051   ----------------------------------------
 BYTE   An3
 BYTE   W24
 BYTE   Gn3
 BYTE   W24
 BYTE   An4
 BYTE   W24
 BYTE   Gn4
 BYTE   W24
//  #02 //052   ----------------------------------------
 BYTE   Fs4
 BYTE   W24
 BYTE   En4
 BYTE   W24
 BYTE   Dn4
 BYTE   W24
 BYTE   Cn4
 BYTE   W24
//  #02 //053   ----------------------------------------
 BYTE   Bn3
 BYTE   W24
 BYTE   An3
 BYTE   W24
 BYTE   VOICE   73
 BYTE   VOL   15*LussariaDestiny_mvl/mxv
 BYTE   N80  Fs4
 BYTE   N80  Fs5
 BYTE   W48
//  #02 //054   ----------------------------------------
 BYTE   W36
 BYTE   N11  En4
 BYTE   N11  En5
 BYTE   W12
 BYTE   N68  En4
 BYTE   N68  En5
 BYTE   W48
//  #02 //055   ----------------------------------------
 BYTE   W24
 BYTE   N23  Dn4
 BYTE   N23  Dn5
 BYTE   W24
 BYTE   N44  Cn4
 BYTE   N44  Cn5
 BYTE   W48
//  #02 //056   ----------------------------------------
 BYTE   TIE  Bn3
 BYTE   TIE  Bn4
 BYTE   W96
//  #02 //057   ----------------------------------------
 BYTE   W23
 BYTE   EOT
 BYTE   Bn3  v083
 BYTE   W01
 BYTE   N23  An3
 BYTE   N23  An4
 BYTE   W24
 BYTE   N92  Bn3
 BYTE   N92  Bn4
 BYTE   W48
//  #02 //058   ----------------------------------------
 BYTE   W24
 BYTE   VOL   13*LussariaDestiny_mvl/mxv
 BYTE   W24
 BYTE   VOL   10*LussariaDestiny_mvl/mxv
 BYTE   W24
 BYTE   VOL   6*LussariaDestiny_mvl/mxv
 BYTE   W24
//  #02 //059   ----------------------------------------
 BYTE   VOL   0*LussariaDestiny_mvl/mxv
 BYTE   W48
 BYTE   GoTo
  POIN2 Label_01801B92
//  #02 //060   ----------------------------------------
 BYTE   W42
 BYTE   VOL   29*LussariaDestiny_mvl/mxv
 BYTE   W06
 BYTE   VOICE   73
 BYTE   PAN   c_v+0
 BYTE   VOL   29*LussariaDestiny_mvl/mxv
 BYTE   PAN   c_v+0
 BYTE   VOL   29*LussariaDestiny_mvl/mxv
 BYTE   PAN   c_v+0
 BYTE   VOL   29*LussariaDestiny_mvl/mxv
 BYTE   BEND   c_v+0
 BYTE   FINE

//**************** Track 3 (Midi-Chn.2) ****************//

LussariaDestiny_003:
//  #03 //000   ----------------------------------------
 BYTE   KEYSH   LussariaDestiny_key+0
Label_0170A45E:
 BYTE   VOICE   19
 BYTE   PAN   c_v+0
 BYTE   VOL   29*LussariaDestiny_mvl/mxv
 BYTE   PAN   c_v+0
 BYTE   VOL   29*LussariaDestiny_mvl/mxv
 BYTE   PAN   c_v+0
 BYTE   VOL   29*LussariaDestiny_mvl/mxv
 BYTE   PAN   c_v+0
 BYTE   VOL   29*LussariaDestiny_mvl/mxv
 BYTE   PAN   c_v+0
 BYTE   VOL   29*LussariaDestiny_mvl/mxv
 BYTE   BEND   c_v+0
 BYTE   N32  An1  v100
 BYTE   N32  Dn2
 BYTE   W36
 BYTE   N56  An1
 BYTE   N56  Dn2
 BYTE   W60
//  #03 //001   ----------------------------------------
Label_0170A481:
 BYTE   N32  An1  v100
 BYTE   N32  Dn2
 BYTE   W36
 BYTE   N23  An1
 BYTE   N23  Dn2
 BYTE   W24
 BYTE   N11  An1
 BYTE   N11  Dn2
 BYTE   W12
 BYTE   Gn1
 BYTE   N11  Cn2
 BYTE   W12
 BYTE   Gn1
 BYTE   N11  Cn2
 BYTE   W12
 BYTE   PEND 
//  #03 //002   ----------------------------------------
 BYTE   N32  An1
 BYTE   N32  Dn2
 BYTE   W36
 BYTE   N56  An1
 BYTE   N56  Dn2
 BYTE   W60
//  #03 //003   ----------------------------------------
 BYTE   PATT
  POIN2 Label_0170A481
//  #03 //004   ----------------------------------------
 BYTE   VOICE   30
 BYTE   N32  An1  v100
 BYTE   N32  Dn2
 BYTE   W36
 BYTE   An1
 BYTE   N32  Dn2
 BYTE   W36
 BYTE   N23  An1
 BYTE   N23  Dn2
 BYTE   W24
//  #03 //005   ----------------------------------------
 BYTE   PATT
  POIN2 Label_0170A481
//  #03 //006   ----------------------------------------
 BYTE   N32  An1  v100
 BYTE   N32  Dn2
 BYTE   W36
 BYTE   An1
 BYTE   N32  Dn2
 BYTE   W36
 BYTE   N23  An1
 BYTE   N23  Dn2
 BYTE   W24
//  #03 //007   ----------------------------------------
 BYTE   PATT
  POIN2 Label_0170A481
//  #03 //008   ----------------------------------------
 BYTE   VOICE   20
 BYTE   N68  An2  v100
 BYTE   W72
 BYTE   N23
 BYTE   W24
//  #03 //009   ----------------------------------------
 BYTE   N23
 BYTE   W24
 BYTE   N44  Gn2
 BYTE   W48
 BYTE   N11  Fn2
 BYTE   W12
 BYTE   Gn2
 BYTE   W12
//  #03 //010   ----------------------------------------
 BYTE   N68  Fn2
 BYTE   W72
 BYTE   N23  An2
 BYTE   W24
//  #03 //011   ----------------------------------------
 BYTE   N44  Gn2
 BYTE   W48
 BYTE   N23  Fn2
 BYTE   W24
 BYTE   N11
 BYTE   W12
 BYTE   Gn2
 BYTE   W12
//  #03 //012   ----------------------------------------
 BYTE   N23  An2
 BYTE   W24
 BYTE   N44  Dn3
 BYTE   W48
 BYTE   N23  Fn2
 BYTE   W24
//  #03 //013   ----------------------------------------
 BYTE   An2
 BYTE   W24
 BYTE   N44  Dn3
 BYTE   W48
 BYTE   N23  An2
 BYTE   W24
//  #03 //014   ----------------------------------------
 BYTE   Fn3
 BYTE   W24
 BYTE   N44  Dn3
 BYTE   W48
 BYTE   N23
 BYTE   W24
//  #03 //015   ----------------------------------------
 BYTE   N92  En3
 BYTE   W96
//  #03 //016   ----------------------------------------
 BYTE   VOICE   30
 BYTE   N92  An2
 BYTE   W96
//  #03 //017   ----------------------------------------
 BYTE   Gn2
 BYTE   W96
//  #03 //018   ----------------------------------------
 BYTE   Fn2
 BYTE   W96
//  #03 //019   ----------------------------------------
 BYTE   Gn2
 BYTE   W96
//  #03 //020   ----------------------------------------
 BYTE   An2
 BYTE   W96
//  #03 //021   ----------------------------------------
 BYTE   Gn2
 BYTE   W96
//  #03 //022   ----------------------------------------
 BYTE   N44  Fn2
 BYTE   W96
//  #03 //023   ----------------------------------------
 BYTE   N92  Gn2
 BYTE   W96
//  #03 //024   ----------------------------------------
 BYTE   An1
 BYTE   N92  Dn2
 BYTE   W96
//  #03 //025   ----------------------------------------
 BYTE   Gn1
 BYTE   N92  Cn2
 BYTE   W96
//  #03 //026   ----------------------------------------
 BYTE   Fn1
 BYTE   N92  As1
 BYTE   W96
//  #03 //027   ----------------------------------------
 BYTE   Gn1
 BYTE   N92  Cn2
 BYTE   W96
//  #03 //028   ----------------------------------------
 BYTE   An1
 BYTE   N92  Dn2
 BYTE   W96
//  #03 //029   ----------------------------------------
 BYTE   Gn1
 BYTE   N92  Cn2
 BYTE   W96
//  #03 //030   ----------------------------------------
 BYTE   Fn1
 BYTE   N92  As1
 BYTE   W96
//  #03 //031   ----------------------------------------
 BYTE   TIE  Gn1
 BYTE   TIE  Cn2
 BYTE   W96
//  #03 //032   ----------------------------------------
 BYTE   W96
//  #03 //033   ----------------------------------------
 BYTE   W92
 BYTE   W03
 BYTE   EOT
 BYTE   Gn1  v048
 BYTE   W01
//  #03 //034   ----------------------------------------
 BYTE   W96
//  #03 //035   ----------------------------------------
 BYTE   W96
//  #03 //036   ----------------------------------------
 BYTE   W96
//  #03 //037   ----------------------------------------
 BYTE   W96
//  #03 //038   ----------------------------------------
 BYTE   W96
//  #03 //039   ----------------------------------------
 BYTE   W96
//  #03 //040   ----------------------------------------
 BYTE   W96
//  #03 //041   ----------------------------------------
 BYTE   W96
//  #03 //042   ----------------------------------------
 BYTE   N44  En2
 BYTE   N44  Bn2
 BYTE   W48
 BYTE   Dn2
 BYTE   N44  An2
 BYTE   W48
//  #03 //043   ----------------------------------------
 BYTE   N92  Cn2
 BYTE   N92  Gn2
 BYTE   W96
//  #03 //044   ----------------------------------------
 BYTE   Cn2
 BYTE   N92  Gn2
 BYTE   W96
//  #03 //045   ----------------------------------------
 BYTE   Dn2
 BYTE   N92  An2
 BYTE   W96
//  #03 //046   ----------------------------------------
 BYTE   N44  Bn1
 BYTE   N44  En2
 BYTE   W48
 BYTE   Dn2
 BYTE   N44  Gn2
 BYTE   W48
//  #03 //047   ----------------------------------------
 BYTE   Fs2
 BYTE   N44  Bn2
 BYTE   W48
 BYTE   Cn3
 BYTE   N44  En3
 BYTE   W48
//  #03 //048   ----------------------------------------
 BYTE   En2
 BYTE   N44  Gn2
 BYTE   W48
 BYTE   N44
 BYTE   N44  Bn2
 BYTE   W48
//  #03 //049   ----------------------------------------
 BYTE   Dn2
 BYTE   N44  Fs2
 BYTE   W48
 BYTE   TIE  Cn2
 BYTE   TIE  Gn2
 BYTE   W48
//  #03 //050   ----------------------------------------
 BYTE   W96
//  #03 //051   ----------------------------------------
 BYTE   W44
 BYTE   W03
 BYTE   EOT
 BYTE   Cn2  v055
 BYTE   W01
 BYTE   TIE  Dn2
 BYTE   TIE  An2
 BYTE   W48
//  #03 //052   ----------------------------------------
 BYTE   W96
//  #03 //053   ----------------------------------------
 BYTE   W44
 BYTE   W03
 BYTE   EOT
 BYTE   Dn2  v057
 BYTE   W01
 BYTE   VOICE   19
 BYTE   W48
//  #03 //054   ----------------------------------------
 BYTE   W96
//  #03 //055   ----------------------------------------
 BYTE   W96
//  #03 //056   ----------------------------------------
 BYTE   W96
//  #03 //057   ----------------------------------------
 BYTE   W96
//  #03 //058   ----------------------------------------
 BYTE   W96
//  #03 //059   ----------------------------------------
 BYTE   W48
 BYTE   GoTo
  POIN2 Label_0170A45E
//  #03 //060   ----------------------------------------
 BYTE   W48
 BYTE   VOICE   19
 BYTE   PAN   c_v+0
 BYTE   VOL   29*LussariaDestiny_mvl/mxv
 BYTE   PAN   c_v+0
 BYTE   VOL   29*LussariaDestiny_mvl/mxv
 BYTE   PAN   c_v+0
 BYTE   VOL   29*LussariaDestiny_mvl/mxv
 BYTE   BEND   c_v+0
 BYTE   FINE

//**************** Track 4 (Midi-Chn.3) ****************//

LussariaDestiny_004:
//  #04 //000   ----------------------------------------
 BYTE   KEYSH   LussariaDestiny_key+0
Label_01801DB2:
 BYTE   VOICE   14
 BYTE   PAN   c_v+0
 BYTE   VOL   29*LussariaDestiny_mvl/mxv
 BYTE   PAN   c_v+0
 BYTE   VOL   29*LussariaDestiny_mvl/mxv
 BYTE   PAN   c_v+0
 BYTE   VOL   29*LussariaDestiny_mvl/mxv
 BYTE   PAN   c_v+0
 BYTE   VOL   29*LussariaDestiny_mvl/mxv
 BYTE   PAN   c_v+0
 BYTE   VOL   29*LussariaDestiny_mvl/mxv
 BYTE   BEND   c_v+0
 BYTE   N32  Dn3  v100
 BYTE   W36
 BYTE   N56
 BYTE   W60
//  #04 //001   ----------------------------------------
Label_01801DD0:
 BYTE   N32  Dn3  v100
 BYTE   W36
 BYTE   N56
 BYTE   W60
 BYTE   PEND 
//  #04 //002   ----------------------------------------
 BYTE   PATT
  POIN2 Label_01801DD0
//  #04 //003   ----------------------------------------
 BYTE   PATT
  POIN2 Label_01801DD0
//  #04 //004   ----------------------------------------
 BYTE   W96
//  #04 //005   ----------------------------------------
 BYTE   W96
//  #04 //006   ----------------------------------------
 BYTE   W96
//  #04 //007   ----------------------------------------
 BYTE   W96
//  #04 //008   ----------------------------------------
 BYTE   VOICE   48
 BYTE   N68  Fn3  v100
 BYTE   W72
 BYTE   N23
 BYTE   W24
//  #04 //009   ----------------------------------------
 BYTE   N23
 BYTE   W24
 BYTE   N44  En3
 BYTE   W48
 BYTE   N11  Dn3
 BYTE   W12
 BYTE   En3
 BYTE   W12
//  #04 //010   ----------------------------------------
 BYTE   N68  Fn3
 BYTE   W72
 BYTE   N23  An3
 BYTE   W24
//  #04 //011   ----------------------------------------
 BYTE   Cn4
 BYTE   W24
 BYTE   N44  Gn3
 BYTE   W48
 BYTE   N11  Fn3
 BYTE   W12
 BYTE   En3
 BYTE   W12
//  #04 //012   ----------------------------------------
 BYTE   N23
 BYTE   N23  Gn3
 BYTE   W24
 BYTE   N44  Fn3
 BYTE   N44  An3
 BYTE   W48
 BYTE   N23  Dn3
 BYTE   N23  Fn3
 BYTE   W24
//  #04 //013   ----------------------------------------
 BYTE   N23
 BYTE   N23  An3
 BYTE   W24
 BYTE   N44
 BYTE   N44  Dn4
 BYTE   W48
 BYTE   N23  Fn3
 BYTE   N23  An3
 BYTE   W24
//  #04 //014   ----------------------------------------
 BYTE   As3
 BYTE   N23  Fn4
 BYTE   W24
 BYTE   N44  As3
 BYTE   N44  Dn4
 BYTE   W48
 BYTE   N23  Gn3
 BYTE   N23  Dn4
 BYTE   W24
//  #04 //015   ----------------------------------------
 BYTE   N56  An3
 BYTE   N56  En4
 BYTE   W60
 BYTE   N11  An2
 BYTE   N11  An3
 BYTE   W12
 BYTE   Dn3
 BYTE   N11  Dn4
 BYTE   W12
 BYTE   En3
 BYTE   N11  En4
 BYTE   W12
//  #04 //016   ----------------------------------------
 BYTE   N68  An3
 BYTE   N68  Fn4
 BYTE   W72
 BYTE   N23  An3
 BYTE   N23  Fn4
 BYTE   W24
//  #04 //017   ----------------------------------------
 BYTE   An3
 BYTE   N23  Fn4
 BYTE   W24
 BYTE   N44  Gn3
 BYTE   N44  En4
 BYTE   W48
 BYTE   N11  Fn3
 BYTE   N11  Dn4
 BYTE   W12
 BYTE   Gn3
 BYTE   N11  En4
 BYTE   W12
//  #04 //018   ----------------------------------------
 BYTE   N68  An3
 BYTE   N68  Fn4
 BYTE   W72
 BYTE   N23  Cn4
 BYTE   N23  An4
 BYTE   W24
//  #04 //019   ----------------------------------------
 BYTE   En4
 BYTE   N23  Cn5
 BYTE   W24
 BYTE   N44  Cn4
 BYTE   N44  Gn4
 BYTE   W48
 BYTE   N11  An3
 BYTE   N11  Fn4
 BYTE   W12
 BYTE   Gn3
 BYTE   N11  En4
 BYTE   W12
//  #04 //020   ----------------------------------------
 BYTE   N23  Gn3
 BYTE   N23  Dn4
 BYTE   W24
 BYTE   N44
 BYTE   N44  An4
 BYTE   W48
 BYTE   N11  An3
 BYTE   N11  Fn4
 BYTE   W12
 BYTE   An3
 BYTE   N11  En4
 BYTE   W12
//  #04 //021   ----------------------------------------
 BYTE   N23  An3
 BYTE   N23  Dn4
 BYTE   W24
 BYTE   N44
 BYTE   N44  An4
 BYTE   W48
 BYTE   N23  An3
 BYTE   N23  Dn4
 BYTE   W24
//  #04 //022   ----------------------------------------
 BYTE   Fn4
 BYTE   N23  An4
 BYTE   W24
 BYTE   N44  Dn4
 BYTE   N44  Gn4
 BYTE   W48
 BYTE   N23  Cn4
 BYTE   N23  Fn4
 BYTE   W24
//  #04 //023   ----------------------------------------
 BYTE   N56  En4
 BYTE   N56  Gn4
 BYTE   W60
 BYTE   VOICE   68
 BYTE   VOL   23*LussariaDestiny_mvl/mxv
 BYTE   N11  An4
 BYTE   N11  Fn5
 BYTE   W12
 BYTE   Fn4
 BYTE   N11  Dn5
 BYTE   W12
 BYTE   Dn4
 BYTE   N11  An4
 BYTE   W12
//  #04 //024   ----------------------------------------
 BYTE   VOICE   48
 BYTE   VOL   29*LussariaDestiny_mvl/mxv
 BYTE   W96
//  #04 //025   ----------------------------------------
 BYTE   W96
//  #04 //026   ----------------------------------------
 BYTE   W96
//  #04 //027   ----------------------------------------
 BYTE   W96
//  #04 //028   ----------------------------------------
 BYTE   W96
//  #04 //029   ----------------------------------------
 BYTE   W96
//  #04 //030   ----------------------------------------
 BYTE   W96
//  #04 //031   ----------------------------------------
 BYTE   W96
//  #04 //032   ----------------------------------------
 BYTE   W96
//  #04 //033   ----------------------------------------
 BYTE   W96
//  #04 //034   ----------------------------------------
 BYTE   N44  Dn2
 BYTE   N44  An2
 BYTE   W48
 BYTE   Cn2
 BYTE   N44  Gn2
 BYTE   W48
//  #04 //035   ----------------------------------------
 BYTE   N92  As1
 BYTE   N92  Fn2
 BYTE   W96
//  #04 //036   ----------------------------------------
 BYTE   As1
 BYTE   N92  Fn2
 BYTE   W96
//  #04 //037   ----------------------------------------
 BYTE   Cn2
 BYTE   N92  Gn2
 BYTE   W96
//  #04 //038   ----------------------------------------
 BYTE   N44  An1
 BYTE   N44  Dn2
 BYTE   W48
 BYTE   Cn2
 BYTE   N44  Fn2
 BYTE   W48
//  #04 //039   ----------------------------------------
 BYTE   En2
 BYTE   N44  An2
 BYTE   W48
 BYTE   As2
 BYTE   N44  Dn3
 BYTE   W48
//  #04 //040   ----------------------------------------
 BYTE   Dn2
 BYTE   N44  Fn2
 BYTE   W48
 BYTE   En2
 BYTE   N44  An2
 BYTE   W48
//  #04 //041   ----------------------------------------
 BYTE   Cn2
 BYTE   N44  En2
 BYTE   W48
 BYTE   Dn2
 BYTE   N44  Fn2
 BYTE   W48
//  #04 //042   ----------------------------------------
 BYTE   W96
//  #04 //043   ----------------------------------------
 BYTE   W96
//  #04 //044   ----------------------------------------
 BYTE   W96
//  #04 //045   ----------------------------------------
 BYTE   W96
//  #04 //046   ----------------------------------------
 BYTE   W96
//  #04 //047   ----------------------------------------
 BYTE   W96
//  #04 //048   ----------------------------------------
 BYTE   W96
//  #04 //049   ----------------------------------------
 BYTE   W90
 BYTE   VOICE   14
 BYTE   W06
//  #04 //050   ----------------------------------------
 BYTE   W96
//  #04 //051   ----------------------------------------
 BYTE   W96
//  #04 //052   ----------------------------------------
 BYTE   W96
//  #04 //053   ----------------------------------------
 BYTE   W96
//  #04 //054   ----------------------------------------
 BYTE   W96
//  #04 //055   ----------------------------------------
 BYTE   W96
//  #04 //056   ----------------------------------------
 BYTE   W96
//  #04 //057   ----------------------------------------
 BYTE   W96
//  #04 //058   ----------------------------------------
 BYTE   W96
//  #04 //059   ----------------------------------------
 BYTE   W48
 BYTE   GoTo
  POIN2 Label_01801DB2
//  #04 //060   ----------------------------------------
 BYTE   W48
 BYTE   VOICE   14
 BYTE   PAN   c_v+0
 BYTE   VOL   29*LussariaDestiny_mvl/mxv
 BYTE   PAN   c_v+0
 BYTE   VOL   29*LussariaDestiny_mvl/mxv
 BYTE   PAN   c_v+0
 BYTE   VOL   29*LussariaDestiny_mvl/mxv
 BYTE   BEND   c_v+0
 BYTE   FINE

//**************** Track 5 (Midi-Chn.4) ****************//

LussariaDestiny_005:
//  #05 //000   ----------------------------------------
 BYTE   KEYSH   LussariaDestiny_key+0
Label_01801F32:
 BYTE   VOICE   33
 BYTE   PAN   c_v+0
 BYTE   VOL   29*LussariaDestiny_mvl/mxv
 BYTE   PAN   c_v+0
 BYTE   VOL   29*LussariaDestiny_mvl/mxv
 BYTE   PAN   c_v+0
 BYTE   VOL   29*LussariaDestiny_mvl/mxv
 BYTE   PAN   c_v+0
 BYTE   VOL   29*LussariaDestiny_mvl/mxv
 BYTE   PAN   c_v+0
 BYTE   VOL   29*LussariaDestiny_mvl/mxv
 BYTE   BEND   c_v+0
 BYTE   W96
//  #05 //001   ----------------------------------------
 BYTE   W96
//  #05 //002   ----------------------------------------
 BYTE   W96
//  #05 //003   ----------------------------------------
 BYTE   W96
//  #05 //004   ----------------------------------------
Label_01801F4E:
 BYTE   N32  Dn2  v100
 BYTE   W36
 BYTE   N32
 BYTE   W36
 BYTE   N23
 BYTE   W24
 BYTE   PEND 
//  #05 //005   ----------------------------------------
Label_01801F57:
 BYTE   N32  Dn2  v100
 BYTE   W36
 BYTE   N23
 BYTE   W24
 BYTE   N11
 BYTE   W12
 BYTE   Cn2
 BYTE   W12
 BYTE   N11
 BYTE   W12
 BYTE   PEND 
//  #05 //006   ----------------------------------------
 BYTE   PATT
  POIN2 Label_01801F4E
//  #05 //007   ----------------------------------------
 BYTE   PATT
  POIN2 Label_01801F57
//  #05 //008   ----------------------------------------
 BYTE   N92  Dn2  v100
 BYTE   W96
//  #05 //009   ----------------------------------------
 BYTE   Cn2
 BYTE   W96
//  #05 //010   ----------------------------------------
 BYTE   As1
 BYTE   W96
//  #05 //011   ----------------------------------------
 BYTE   Cn2
 BYTE   W96
//  #05 //012   ----------------------------------------
 BYTE   Dn2
 BYTE   W96
//  #05 //013   ----------------------------------------
 BYTE   Cn2
 BYTE   W96
//  #05 //014   ----------------------------------------
 BYTE   As1
 BYTE   W96
//  #05 //015   ----------------------------------------
 BYTE   Cs2
 BYTE   W96
//  #05 //016   ----------------------------------------
 BYTE   Dn2
 BYTE   W96
//  #05 //017   ----------------------------------------
 BYTE   Cn2
 BYTE   W96
//  #05 //018   ----------------------------------------
 BYTE   As1
 BYTE   W96
//  #05 //019   ----------------------------------------
 BYTE   Cn2
 BYTE   W96
//  #05 //020   ----------------------------------------
 BYTE   Dn2
 BYTE   W96
//  #05 //021   ----------------------------------------
 BYTE   Cn2
 BYTE   W96
//  #05 //022   ----------------------------------------
 BYTE   As1
 BYTE   W96
//  #05 //023   ----------------------------------------
 BYTE   Cn2
 BYTE   W96
//  #05 //024   ----------------------------------------
 BYTE   Dn2
 BYTE   W96
//  #05 //025   ----------------------------------------
 BYTE   Cn2
 BYTE   W96
//  #05 //026   ----------------------------------------
 BYTE   As1
 BYTE   W96
//  #05 //027   ----------------------------------------
 BYTE   Cn2
 BYTE   W96
//  #05 //028   ----------------------------------------
 BYTE   Dn2
 BYTE   W96
//  #05 //029   ----------------------------------------
 BYTE   Cn2
 BYTE   W96
//  #05 //030   ----------------------------------------
 BYTE   As1
 BYTE   W96
//  #05 //031   ----------------------------------------
 BYTE   TIE  Cn2
 BYTE   W96
//  #05 //032   ----------------------------------------
 BYTE   W96
//  #05 //033   ----------------------------------------
 BYTE   W92
 BYTE   W03
 BYTE   EOT
 BYTE   W01
//  #05 //034   ----------------------------------------
Label_01801FA6:
 BYTE   N44  Dn2  v100
 BYTE   W48
 BYTE   Cn2
 BYTE   W48
 BYTE   PEND 
//  #05 //035   ----------------------------------------
 BYTE   N92  As1
 BYTE   W96
//  #05 //036   ----------------------------------------
 BYTE   N92
 BYTE   W96
//  #05 //037   ----------------------------------------
 BYTE   Cn2
 BYTE   W96
//  #05 //038   ----------------------------------------
 BYTE   PATT
  POIN2 Label_01801FA6
//  #05 //039   ----------------------------------------
 BYTE   N44  Cn2  v100
 BYTE   W48
 BYTE   As1
 BYTE   W48
//  #05 //040   ----------------------------------------
 BYTE   PATT
  POIN2 Label_01801FA6
//  #05 //041   ----------------------------------------
 BYTE   N44  Cn2  v100
 BYTE   W48
 BYTE   Dn2
 BYTE   W48
//  #05 //042   ----------------------------------------
Label_01801FCA:
 BYTE   N44  En2  v100
 BYTE   W48
 BYTE   Dn2
 BYTE   W48
 BYTE   PEND 
//  #05 //043   ----------------------------------------
 BYTE   N92  Cn2
 BYTE   W96
//  #05 //044   ----------------------------------------
 BYTE   N92
 BYTE   W96
//  #05 //045   ----------------------------------------
 BYTE   Dn2
 BYTE   W96
//  #05 //046   ----------------------------------------
 BYTE   PATT
  POIN2 Label_01801FCA
//  #05 //047   ----------------------------------------
 BYTE   PATT
  POIN2 Label_01801FA6
//  #05 //048   ----------------------------------------
 BYTE   PATT
  POIN2 Label_01801FCA
//  #05 //049   ----------------------------------------
 BYTE   N44  Dn2  v100
 BYTE   W48
 BYTE   TIE  Cn2
 BYTE   W48
//  #05 //050   ----------------------------------------
 BYTE   W96
//  #05 //051   ----------------------------------------
 BYTE   W44
 BYTE   W03
 BYTE   EOT
 BYTE   W01
 BYTE   TIE  Dn2
 BYTE   W48
//  #05 //052   ----------------------------------------
 BYTE   W96
//  #05 //053   ----------------------------------------
 BYTE   W44
 BYTE   W03
 BYTE   EOT
 BYTE   W01
 BYTE   N92
 BYTE   W48
//  #05 //054   ----------------------------------------
 BYTE   W48
 BYTE   En2
 BYTE   W48
//  #05 //055   ----------------------------------------
 BYTE   W48
 BYTE   Cn2
 BYTE   W48
//  #05 //056   ----------------------------------------
 BYTE   W48
 BYTE   N92
 BYTE   W48
//  #05 //057   ----------------------------------------
 BYTE   W48
 BYTE   Bn1
 BYTE   W48
//  #05 //058   ----------------------------------------
 BYTE   W48
 BYTE   N92
 BYTE   W48
//  #05 //059   ----------------------------------------
 BYTE   W48
 BYTE   GoTo
  POIN2 Label_01801F32
//  #05 //060   ----------------------------------------
 BYTE   W48
 BYTE   VOICE   33
 BYTE   PAN   c_v+0
 BYTE   VOL   29*LussariaDestiny_mvl/mxv
 BYTE   PAN   c_v+0
 BYTE   VOL   29*LussariaDestiny_mvl/mxv
 BYTE   PAN   c_v+0
 BYTE   VOL   29*LussariaDestiny_mvl/mxv
 BYTE   BEND   c_v+0
 BYTE   FINE

//**************** Track 6 (Midi-Chn.5) ****************//

LussariaDestiny_006:
//  #06 //000   ----------------------------------------
 BYTE   KEYSH   LussariaDestiny_key+0
Label_0170A662:
 BYTE   VOICE   121
 BYTE   PAN   c_v+0
 BYTE   VOL   29*LussariaDestiny_mvl/mxv
 BYTE   PAN   c_v+0
 BYTE   VOL   29*LussariaDestiny_mvl/mxv
 BYTE   PAN   c_v+0
 BYTE   VOL   29*LussariaDestiny_mvl/mxv
 BYTE   PAN   c_v+0
 BYTE   VOL   29*LussariaDestiny_mvl/mxv
 BYTE   PAN   c_v+0
 BYTE   VOL   29*LussariaDestiny_mvl/mxv
 BYTE   BEND   c_v+0
 BYTE   N92  An2  v100
 BYTE   W96
//  #06 //001   ----------------------------------------
 BYTE   W96
//  #06 //002   ----------------------------------------
 BYTE   W96
//  #06 //003   ----------------------------------------
 BYTE   W96
//  #06 //004   ----------------------------------------
 BYTE   W96
//  #06 //005   ----------------------------------------
 BYTE   W96
//  #06 //006   ----------------------------------------
 BYTE   W96
//  #06 //007   ----------------------------------------
 BYTE   W96
//  #06 //008   ----------------------------------------
 BYTE   N92
 BYTE   W96
//  #06 //009   ----------------------------------------
 BYTE   W96
//  #06 //010   ----------------------------------------
 BYTE   W96
//  #06 //011   ----------------------------------------
 BYTE   W96
//  #06 //012   ----------------------------------------
 BYTE   W96
//  #06 //013   ----------------------------------------
 BYTE   W96
//  #06 //014   ----------------------------------------
 BYTE   W96
//  #06 //015   ----------------------------------------
 BYTE   W96
//  #06 //016   ----------------------------------------
 BYTE   W96
//  #06 //017   ----------------------------------------
 BYTE   W96
//  #06 //018   ----------------------------------------
 BYTE   W96
//  #06 //019   ----------------------------------------
 BYTE   W96
//  #06 //020   ----------------------------------------
 BYTE   W96
//  #06 //021   ----------------------------------------
 BYTE   W96
//  #06 //022   ----------------------------------------
 BYTE   W96
//  #06 //023   ----------------------------------------
 BYTE   W96
//  #06 //024   ----------------------------------------
 BYTE   N92
 BYTE   W96
//  #06 //025   ----------------------------------------
 BYTE   W96
//  #06 //026   ----------------------------------------
 BYTE   W96
//  #06 //027   ----------------------------------------
 BYTE   W96
//  #06 //028   ----------------------------------------
 BYTE   W96
//  #06 //029   ----------------------------------------
 BYTE   W96
//  #06 //030   ----------------------------------------
 BYTE   W96
//  #06 //031   ----------------------------------------
 BYTE   N92
 BYTE   W96
//  #06 //032   ----------------------------------------
 BYTE   W96
//  #06 //033   ----------------------------------------
 BYTE   W96
//  #06 //034   ----------------------------------------
 BYTE   N92
 BYTE   W96
//  #06 //035   ----------------------------------------
 BYTE   W96
//  #06 //036   ----------------------------------------
 BYTE   W96
//  #06 //037   ----------------------------------------
 BYTE   W96
//  #06 //038   ----------------------------------------
 BYTE   W96
//  #06 //039   ----------------------------------------
 BYTE   W96
//  #06 //040   ----------------------------------------
 BYTE   W96
//  #06 //041   ----------------------------------------
 BYTE   W96
//  #06 //042   ----------------------------------------
 BYTE   N92
 BYTE   W96
//  #06 //043   ----------------------------------------
 BYTE   W96
//  #06 //044   ----------------------------------------
 BYTE   W96
//  #06 //045   ----------------------------------------
 BYTE   W96
//  #06 //046   ----------------------------------------
 BYTE   W96
//  #06 //047   ----------------------------------------
 BYTE   W96
//  #06 //048   ----------------------------------------
 BYTE   W96
//  #06 //049   ----------------------------------------
 BYTE   W96
//  #06 //050   ----------------------------------------
 BYTE   W96
//  #06 //051   ----------------------------------------
 BYTE   W96
//  #06 //052   ----------------------------------------
 BYTE   W96
//  #06 //053   ----------------------------------------
 BYTE   W48
 BYTE   N92
 BYTE   W48
//  #06 //054   ----------------------------------------
 BYTE   W96
//  #06 //055   ----------------------------------------
 BYTE   W96
//  #06 //056   ----------------------------------------
 BYTE   W96
//  #06 //057   ----------------------------------------
 BYTE   W96
//  #06 //058   ----------------------------------------
 BYTE   W96
//  #06 //059   ----------------------------------------
 BYTE   W48
 BYTE   GoTo
  POIN2 Label_0170A662
//  #06 //060   ----------------------------------------
 BYTE   W48
 BYTE   VOICE   121
 BYTE   PAN   c_v+0
 BYTE   VOL   29*LussariaDestiny_mvl/mxv
 BYTE   PAN   c_v+0
 BYTE   VOL   29*LussariaDestiny_mvl/mxv
 BYTE   PAN   c_v+0
 BYTE   VOL   29*LussariaDestiny_mvl/mxv
 BYTE   BEND   c_v+0
 BYTE   FINE

//**************** Track 7 (Midi-Chn.6) ****************//

LussariaDestiny_007:
//  #07 //000   ----------------------------------------
 BYTE   KEYSH   LussariaDestiny_key+0
Label_01802026:
 BYTE   VOICE   122
 BYTE   PAN   c_v+0
 BYTE   VOL   40*LussariaDestiny_mvl/mxv
 BYTE   PAN   c_v+0
 BYTE   VOL   40*LussariaDestiny_mvl/mxv
 BYTE   PAN   c_v+0
 BYTE   VOL   40*LussariaDestiny_mvl/mxv
 BYTE   PAN   c_v+0
 BYTE   VOL   40*LussariaDestiny_mvl/mxv
 BYTE   PAN   c_v+0
 BYTE   VOL   40*LussariaDestiny_mvl/mxv
 BYTE   BEND   c_v+0
 BYTE   W96
//  #07 //001   ----------------------------------------
 BYTE   W96
//  #07 //002   ----------------------------------------
 BYTE   W96
//  #07 //003   ----------------------------------------
 BYTE   W72
 BYTE   N02  Dn1  v048
 BYTE   W03
 BYTE   Dn1  v052
 BYTE   W03
 BYTE   Dn1  v056
 BYTE   W03
 BYTE   Dn1  v064
 BYTE   W03
 BYTE   Dn1  v072
 BYTE   W03
 BYTE   Dn1  v076
 BYTE   W03
 BYTE   Dn1  v084
 BYTE   W03
 BYTE   Dn1  v092
 BYTE   W03
//  #07 //004   ----------------------------------------
Label_0180205B:
 BYTE   N09  Dn1  v100
 BYTE   W12
 BYTE   Cn1
 BYTE   W12
 BYTE   N09
 BYTE   W12
 BYTE   Dn1
 BYTE   W12
 BYTE   Cn1
 BYTE   W12
 BYTE   N09
 BYTE   W12
 BYTE   Dn1
 BYTE   W12
 BYTE   Cn1
 BYTE   W12
 BYTE   PEND 
//  #07 //005   ----------------------------------------
 BYTE   PATT
  POIN2 Label_0180205B
//  #07 //006   ----------------------------------------
 BYTE   PATT
  POIN2 Label_0180205B
//  #07 //007   ----------------------------------------
 BYTE   N09  Dn1  v100
 BYTE   W12
 BYTE   Cn1
 BYTE   W12
 BYTE   N09
 BYTE   W12
 BYTE   Dn1
 BYTE   W12
 BYTE   Cn1
 BYTE   W12
 BYTE   Dn1
 BYTE   W12
 BYTE   N09
 BYTE   W12
 BYTE   N09
 BYTE   W12
//  #07 //008   ----------------------------------------
 BYTE   PATT
  POIN2 Label_0180205B
//  #07 //009   ----------------------------------------
 BYTE   PATT
  POIN2 Label_0180205B
//  #07 //010   ----------------------------------------
 BYTE   PATT
  POIN2 Label_0180205B
//  #07 //011   ----------------------------------------
 BYTE   PATT
  POIN2 Label_0180205B
//  #07 //012   ----------------------------------------
 BYTE   PATT
  POIN2 Label_0180205B
//  #07 //013   ----------------------------------------
 BYTE   PATT
  POIN2 Label_0180205B
//  #07 //014   ----------------------------------------
 BYTE   PATT
  POIN2 Label_0180205B
//  #07 //015   ----------------------------------------
 BYTE   PATT
  POIN2 Label_0180205B
//  #07 //016   ----------------------------------------
 BYTE   PATT
  POIN2 Label_0180205B
//  #07 //017   ----------------------------------------
 BYTE   PATT
  POIN2 Label_0180205B
//  #07 //018   ----------------------------------------
 BYTE   PATT
  POIN2 Label_0180205B
//  #07 //019   ----------------------------------------
 BYTE   PATT
  POIN2 Label_0180205B
//  #07 //020   ----------------------------------------
 BYTE   PATT
  POIN2 Label_0180205B
//  #07 //021   ----------------------------------------
 BYTE   PATT
  POIN2 Label_0180205B
//  #07 //022   ----------------------------------------
 BYTE   PATT
  POIN2 Label_0180205B
//  #07 //023   ----------------------------------------
 BYTE   PATT
  POIN2 Label_0180205B
//  #07 //024   ----------------------------------------
 BYTE   PATT
  POIN2 Label_0180205B
//  #07 //025   ----------------------------------------
 BYTE   PATT
  POIN2 Label_0180205B
//  #07 //026   ----------------------------------------
 BYTE   PATT
  POIN2 Label_0180205B
//  #07 //027   ----------------------------------------
 BYTE   PATT
  POIN2 Label_0180205B
//  #07 //028   ----------------------------------------
Label_018020EE:
 BYTE   N09  Dn1  v100
 BYTE   W12
 BYTE   N03  Cn1
 BYTE   W06
 BYTE   N03
 BYTE   W06
 BYTE   N09  Dn1
 BYTE   W12
 BYTE   N03  Cn1
 BYTE   W06
 BYTE   N03
 BYTE   W06
 BYTE   N09  Dn1
 BYTE   W12
 BYTE   N03  Cn1
 BYTE   W06
 BYTE   N03
 BYTE   W06
 BYTE   N09  Dn1
 BYTE   W12
 BYTE   N03  Cn1
 BYTE   W06
 BYTE   N03
 BYTE   W06
 BYTE   PEND 
//  #07 //029   ----------------------------------------
 BYTE   PATT
  POIN2 Label_018020EE
//  #07 //030   ----------------------------------------
 BYTE   PATT
  POIN2 Label_018020EE
//  #07 //031   ----------------------------------------
 BYTE   N09  Dn1  v100
 BYTE   W96
//  #07 //032   ----------------------------------------
 BYTE   Dn1  v072
 BYTE   W12
 BYTE   Dn1  v076
 BYTE   W12
 BYTE   N09
 BYTE   W12
 BYTE   Dn1  v080
 BYTE   W12
 BYTE   N09
 BYTE   W12
 BYTE   Dn1  v084
 BYTE   W12
 BYTE   Dn1  v088
 BYTE   W12
 BYTE   N09
 BYTE   W12
//  #07 //033   ----------------------------------------
 BYTE   Dn1  v092
 BYTE   W12
 BYTE   N09
 BYTE   W12
 BYTE   Dn1  v096
 BYTE   W12
 BYTE   N09
 BYTE   W12
 BYTE   Dn1  v100
 BYTE   W24
 BYTE   N03  Dn1  v040
 BYTE   W06
 BYTE   Dn1  v060
 BYTE   W06
 BYTE   Dn1  v072
 BYTE   W06
 BYTE   Dn1  v084
 BYTE   W06
//  #07 //034   ----------------------------------------
 BYTE   PATT
  POIN2 Label_0180205B
//  #07 //035   ----------------------------------------
 BYTE   PATT
  POIN2 Label_0180205B
//  #07 //036   ----------------------------------------
 BYTE   PATT
  POIN2 Label_0180205B
//  #07 //037   ----------------------------------------
 BYTE   PATT
  POIN2 Label_0180205B
//  #07 //038   ----------------------------------------
 BYTE   PATT
  POIN2 Label_0180205B
//  #07 //039   ----------------------------------------
 BYTE   PATT
  POIN2 Label_0180205B
//  #07 //040   ----------------------------------------
 BYTE   PATT
  POIN2 Label_0180205B
//  #07 //041   ----------------------------------------
 BYTE   PATT
  POIN2 Label_0180205B
//  #07 //042   ----------------------------------------
 BYTE   PATT
  POIN2 Label_0180205B
//  #07 //043   ----------------------------------------
 BYTE   PATT
  POIN2 Label_0180205B
//  #07 //044   ----------------------------------------
 BYTE   PATT
  POIN2 Label_0180205B
//  #07 //045   ----------------------------------------
 BYTE   PATT
  POIN2 Label_0180205B
//  #07 //046   ----------------------------------------
 BYTE   PATT
  POIN2 Label_0180205B
//  #07 //047   ----------------------------------------
 BYTE   PATT
  POIN2 Label_0180205B
//  #07 //048   ----------------------------------------
 BYTE   PATT
  POIN2 Label_0180205B
//  #07 //049   ----------------------------------------
 BYTE   N09  Dn1  v100
 BYTE   W12
 BYTE   Cn1
 BYTE   W12
 BYTE   N05  Dn1
 BYTE   W06
 BYTE   N05
 BYTE   W06
 BYTE   N05
 BYTE   W06
 BYTE   N05
 BYTE   W06
 BYTE   N09
 BYTE   W12
 BYTE   Cn1
 BYTE   W12
 BYTE   N09
 BYTE   W12
 BYTE   Dn1
 BYTE   W12
//  #07 //050   ----------------------------------------
Label_018021AF:
 BYTE   N09  Cn1  v100
 BYTE   W12
 BYTE   N09
 BYTE   W12
 BYTE   Dn1
 BYTE   W12
 BYTE   Cn1
 BYTE   W12
 BYTE   Dn1
 BYTE   W12
 BYTE   Cn1
 BYTE   W12
 BYTE   N09
 BYTE   W12
 BYTE   Dn1
 BYTE   W12
 BYTE   PEND 
//  #07 //051   ----------------------------------------
 BYTE   PATT
  POIN2 Label_018021AF
//  #07 //052   ----------------------------------------
 BYTE   PATT
  POIN2 Label_018021AF
//  #07 //053   ----------------------------------------
 BYTE   N09  Cn1  v100
 BYTE   W12
 BYTE   N09
 BYTE   W12
 BYTE   N02  Dn1  v048
 BYTE   W03
 BYTE   Dn1  v052
 BYTE   W03
 BYTE   Dn1  v056
 BYTE   W03
 BYTE   Dn1  v064
 BYTE   W03
 BYTE   Dn1  v072
 BYTE   W03
 BYTE   Dn1  v076
 BYTE   W03
 BYTE   Dn1  v084
 BYTE   W03
 BYTE   Dn1  v092
 BYTE   W03
 BYTE   N09  Dn1  v100
 BYTE   W12
 BYTE   Cn1
 BYTE   W12
 BYTE   N09
 BYTE   W12
 BYTE   Dn1
 BYTE   W12
//  #07 //054   ----------------------------------------
 BYTE   PATT
  POIN2 Label_018021AF
//  #07 //055   ----------------------------------------
 BYTE   PATT
  POIN2 Label_018021AF
//  #07 //056   ----------------------------------------
 BYTE   PATT
  POIN2 Label_018021AF
//  #07 //057   ----------------------------------------
 BYTE   PATT
  POIN2 Label_018021AF
//  #07 //058   ----------------------------------------
 BYTE   PATT
  POIN2 Label_018021AF
//  #07 //059   ----------------------------------------
 BYTE   N09  Cn1  v100
 BYTE   W12
 BYTE   N09
 BYTE   W12
 BYTE   N02  Dn1  v048
 BYTE   W03
 BYTE   Dn1  v052
 BYTE   W03
 BYTE   Dn1  v056
 BYTE   W03
 BYTE   Dn1  v064
 BYTE   W03
 BYTE   Dn1  v072
 BYTE   W03
 BYTE   Dn1  v076
 BYTE   W03
 BYTE   Dn1  v084
 BYTE   W03
 BYTE   Dn1  v092
 BYTE   W03
 BYTE   GoTo
  POIN2 Label_01802026
//  #07 //060   ----------------------------------------
 BYTE   W48
 BYTE   VOICE   122
 BYTE   PAN   c_v+0
 BYTE   VOL   40*LussariaDestiny_mvl/mxv
 BYTE   PAN   c_v+0
 BYTE   VOL   40*LussariaDestiny_mvl/mxv
 BYTE   PAN   c_v+0
 BYTE   VOL   40*LussariaDestiny_mvl/mxv
 BYTE   BEND   c_v+0
 BYTE   FINE

//******************************************************//
	ALIGN 4

LussariaDestiny:
	BYTE	7	// NumTrks
	BYTE	0	// NumBlks
	BYTE	LussariaDestiny_pri	// Priority
	BYTE	LussariaDestiny_rev	// Reverb.
    
	POIN2	LussariaDestiny_grp
    
	POIN2	LussariaDestiny_001
	POIN2	LussariaDestiny_002
	POIN2	LussariaDestiny_003
	POIN2	LussariaDestiny_004
	POIN2	LussariaDestiny_005
	POIN2	LussariaDestiny_006
	POIN2	LussariaDestiny_007

	
