//Event file generated from Sappy .s format.
	#include "MPlayDef.event"

	#define	MainTheme_grp  voicegroup000
	#define	MainTheme_pri  0
	#define	MainTheme_rev  0
	#define	MainTheme_mvl  127
	#define	MainTheme_key  0
	#define	MainTheme_tbs  1
	#define	MainTheme_exg  0
	#define	MainTheme_cmp  1

	// .rodata
	//	MainTheme
	ALIGN 4


//**************** Track 1 (Midi-Chn.0) ****************//

MainTheme_001:
//  #01 //000   ----------------------------------------
 BYTE   KEYSH   MainTheme_key+0
 BYTE   TEMPO   76*MainTheme_tbs/2
 BYTE   VOICE   55
 BYTE   VOL   55*MainTheme_mvl/mxv
 BYTE   PAN   c_v+0
 BYTE   W96
//  #01 //001   ----------------------------------------
 BYTE   W96
//  #01 //002   ----------------------------------------
 BYTE   W96
//  #01 //003   ----------------------------------------
 BYTE   W96
//  #01 //004   ----------------------------------------
 BYTE   W96
//  #01 //005   ----------------------------------------
 BYTE   W96
//  #01 //006   ----------------------------------------
 BYTE   W96
//  #01 //007   ----------------------------------------
 BYTE   W96
//  #01 //008   ----------------------------------------
 BYTE   W88
Label_010054E3:
 BYTE   W08
//  #01 //009   ----------------------------------------
 BYTE   W96
//  #01 //010   ----------------------------------------
 BYTE   W96
//  #01 //011   ----------------------------------------
 BYTE   W96
//  #01 //012   ----------------------------------------
 BYTE   W96
//  #01 //013   ----------------------------------------
Label_010054E8:
 BYTE   W24
 BYTE   N11  Dn4  v080
 BYTE   W12
 BYTE   N11
 BYTE   W36
 BYTE   N11
 BYTE   W12
 BYTE   N11
 BYTE   W12
 BYTE   PEND 
//  #01 //014   ----------------------------------------
 BYTE   PATT
  POIN2 Label_010054E8
//  #01 //015   ----------------------------------------
 BYTE   PATT
  POIN2 Label_010054E8
//  #01 //016   ----------------------------------------
 BYTE   W24
 BYTE   N11  Dn4  v080
 BYTE   W12
 BYTE   N11
 BYTE   W36
 BYTE   N11
 BYTE   W12
 BYTE   N05
 BYTE   W06
 BYTE   N06  En4
 BYTE   W06
//  #01 //017   ----------------------------------------
 BYTE   N23  Fn4  v096
 BYTE   W30
 BYTE   N05  En4  v080
 BYTE   W06
 BYTE   N06  Dn4
 BYTE   W06
 BYTE   Cn4
 BYTE   W06
 BYTE   N23  Dn4  v096
 BYTE   W30
 BYTE   N05  Cn4  v080
 BYTE   W06
 BYTE   N06  As3
 BYTE   W06
 BYTE   An3
 BYTE   W06
//  #01 //018   ----------------------------------------
 BYTE   N11  Gn3  v096
 BYTE   W12
 BYTE   N56  An3  v080
 BYTE   W72
 BYTE   N05  Dn4
 BYTE   W06
 BYTE   N06  En4
 BYTE   W06
//  #01 //019   ----------------------------------------
 BYTE   N23  Fn4  v096
 BYTE   W30
 BYTE   N05  En4  v080
 BYTE   W06
 BYTE   N06  Dn4
 BYTE   W06
 BYTE   Cn4
 BYTE   W06
 BYTE   N23  Dn4  v096
 BYTE   W30
 BYTE   N05  En4  v080
 BYTE   W06
 BYTE   N06  Fn4
 BYTE   W06
 BYTE   Gn4
 BYTE   W06
//  #01 //020   ----------------------------------------
 BYTE   N11  En4  v096
 BYTE   W12
 BYTE   N56  Cn4  v080
 BYTE   W72
 BYTE   N05  Dn5
 BYTE   W06
 BYTE   N06  En5
 BYTE   W06
//  #01 //021   ----------------------------------------
 BYTE   N23  Fn5  v096
 BYTE   W30
 BYTE   N05  En5  v080
 BYTE   W06
 BYTE   N06  Dn5
 BYTE   W06
 BYTE   Cn5
 BYTE   W06
 BYTE   N23  Dn5  v096
 BYTE   W30
 BYTE   N05  Cn5  v080
 BYTE   W06
 BYTE   N06  As4
 BYTE   W06
 BYTE   An4
 BYTE   W06
//  #01 //022   ----------------------------------------
 BYTE   N11  Gn4  v096
 BYTE   W12
 BYTE   N56  An4  v080
 BYTE   W72
 BYTE   N05
 BYTE   W06
 BYTE   N06  As4
 BYTE   W06
//  #01 //023   ----------------------------------------
 BYTE   N11  Cn5
 BYTE   W12
 BYTE   N22  As4
 BYTE   W24
 BYTE   N11  An4
 BYTE   W12
 BYTE   N11
 BYTE   W12
 BYTE   N17
 BYTE   W18
 BYTE   N11  Gn4
 BYTE   W12
 BYTE   N05  Fn4
 BYTE   W06
//  #01 //024   ----------------------------------------
 BYTE   N11  Gn4
 BYTE   W12
 BYTE   N12  An4
 BYTE   W12
 BYTE   N22
 BYTE   W72
//  #01 //025   ----------------------------------------
 BYTE   W96
//  #01 //026   ----------------------------------------
 BYTE   W96
//  #01 //027   ----------------------------------------
 BYTE   W96
//  #01 //028   ----------------------------------------
 BYTE   W96
//  #01 //029   ----------------------------------------
 BYTE   W96
//  #01 //030   ----------------------------------------
 BYTE   W96
//  #01 //031   ----------------------------------------
 BYTE   W96
//  #01 //032   ----------------------------------------
 BYTE   W96
//  #01 //033   ----------------------------------------
 BYTE   W96
//  #01 //034   ----------------------------------------
 BYTE   W96
//  #01 //035   ----------------------------------------
 BYTE   W96
//  #01 //036   ----------------------------------------
 BYTE   W48
 BYTE   N11  Fn4  v096
 BYTE   W12
 BYTE   N05
 BYTE   W06
 BYTE   N17  Gn4
 BYTE   W18
 BYTE   N11  En4
 BYTE   W12
//  #01 //037   ----------------------------------------
 BYTE   N44  Fn4
 BYTE   W48
 BYTE   N17
 BYTE   W18
 BYTE   N18  Gn4
 BYTE   W18
 BYTE   N11  En4
 BYTE   W12
//  #01 //038   ----------------------------------------
 BYTE   N22  Cn4
 BYTE   W24
 BYTE   N24  Cn5
 BYTE   W24
 BYTE   N11
 BYTE   W12
 BYTE   N12  As4
 BYTE   W12
 BYTE   An4
 BYTE   W12
 BYTE   Gn4
 BYTE   W12
//  #01 //039   ----------------------------------------
 BYTE   N22  Fn4
 BYTE   W24
 BYTE   N24  An4
 BYTE   W24
 BYTE   Gn4
 BYTE   W24
 BYTE   Fn4
 BYTE   W24
//  #01 //040   ----------------------------------------
 BYTE   N17  En4
 BYTE   W18
 BYTE   N72  Dn4
 BYTE   W72
 BYTE   W02
 BYTE   GoTo
  POIN2 Label_010054E3
//  #01 //041   ----------------------------------------
 BYTE   W04
 BYTE   W96
//  #01 //042   ----------------------------------------
 BYTE   W92
 BYTE   W02
 BYTE   FINE

//**************** Track 2 (Midi-Chn.1) ****************//

MainTheme_002:
//  #02 //000   ----------------------------------------
 BYTE   KEYSH   MainTheme_key+0
 BYTE   VOICE   70
 BYTE   VOL   20*MainTheme_mvl/mxv
 BYTE   PAN   c_v+0
 BYTE   W96
//  #02 //001   ----------------------------------------
 BYTE   W96
//  #02 //002   ----------------------------------------
 BYTE   W96
//  #02 //003   ----------------------------------------
 BYTE   W96
//  #02 //004   ----------------------------------------
 BYTE   W96
//  #02 //005   ----------------------------------------
 BYTE   W96
//  #02 //006   ----------------------------------------
 BYTE   W96
//  #02 //007   ----------------------------------------
 BYTE   W96
//  #02 //008   ----------------------------------------
 BYTE   W88
Label_01005199:
 BYTE   W08
//  #02 //009   ----------------------------------------
 BYTE   W96
//  #02 //010   ----------------------------------------
 BYTE   W96
//  #02 //011   ----------------------------------------
 BYTE   W96
//  #02 //012   ----------------------------------------
 BYTE   W96
//  #02 //013   ----------------------------------------
 BYTE   W96
//  #02 //014   ----------------------------------------
 BYTE   W96
//  #02 //015   ----------------------------------------
 BYTE   W96
//  #02 //016   ----------------------------------------
 BYTE   W96
//  #02 //017   ----------------------------------------
 BYTE   W96
//  #02 //018   ----------------------------------------
 BYTE   W96
//  #02 //019   ----------------------------------------
 BYTE   W96
//  #02 //020   ----------------------------------------
 BYTE   W96
//  #02 //021   ----------------------------------------
 BYTE   W96
//  #02 //022   ----------------------------------------
 BYTE   W96
//  #02 //023   ----------------------------------------
 BYTE   W96
//  #02 //024   ----------------------------------------
Label_010051A9:
 BYTE   W48
 BYTE   N17  Fn2  v112
 BYTE   W18
 BYTE   N18  Gn2
 BYTE   W18
 BYTE   N11  En2
 BYTE   W12
 BYTE   PEND 
//  #02 //025   ----------------------------------------
Label_010051B5:
 BYTE   N44  Fn2  v112
 BYTE   W48
 BYTE   N17
 BYTE   W18
 BYTE   N18  Gn2
 BYTE   W18
 BYTE   N11  En2
 BYTE   W12
 BYTE   PEND 
//  #02 //026   ----------------------------------------
 BYTE   N44  Cn2
 BYTE   W48
 BYTE   N17  Fn2
 BYTE   W18
 BYTE   N18  Gn2
 BYTE   W18
 BYTE   N11  En2
 BYTE   W12
//  #02 //027   ----------------------------------------
 BYTE   N23  Fn2
 BYTE   W24
 BYTE   N24  Cn3
 BYTE   W24
 BYTE   N11
 BYTE   W12
 BYTE   N12  As2
 BYTE   W12
 BYTE   An2
 BYTE   W12
 BYTE   N05  Gn2
 BYTE   W06
 BYTE   TIE  An2
 BYTE   W06
//  #02 //028   ----------------------------------------
 BYTE   PATT
  POIN2 Label_010051A9
//  #02 //029   ----------------------------------------
 BYTE   PATT
  POIN2 Label_010051B5
//  #02 //030   ----------------------------------------
 BYTE   EOT
 BYTE   An2
 BYTE   N23  Cn2  v112
 BYTE   N23  An2
 BYTE   W24
 BYTE   N24  Cn3
 BYTE   W24
 BYTE   N11
 BYTE   W12
 BYTE   N12  As2
 BYTE   W12
 BYTE   An2
 BYTE   W12
 BYTE   Gn2
 BYTE   W12
//  #02 //031   ----------------------------------------
 BYTE   N23  Fn2
 BYTE   W24
 BYTE   N24  An2
 BYTE   W24
 BYTE   Gn2
 BYTE   W24
 BYTE   Fn2
 BYTE   W24
//  #02 //032   ----------------------------------------
 BYTE   N17  En2
 BYTE   W18
 BYTE   N05  Dn2
 BYTE   W06
 BYTE   N05
 BYTE   W06
 BYTE   N05
 BYTE   W06
 BYTE   N05
 BYTE   W60
//  #02 //033   ----------------------------------------
 BYTE   W96
//  #02 //034   ----------------------------------------
 BYTE   W96
//  #02 //035   ----------------------------------------
 BYTE   W96
//  #02 //036   ----------------------------------------
 BYTE   W96
//  #02 //037   ----------------------------------------
 BYTE   W96
//  #02 //038   ----------------------------------------
 BYTE   W96
//  #02 //039   ----------------------------------------
 BYTE   W96
//  #02 //040   ----------------------------------------
 BYTE   W92
 BYTE   GoTo
  POIN2 Label_01005199
//  #02 //041   ----------------------------------------
 BYTE   W04
 BYTE   W96
//  #02 //042   ----------------------------------------
 BYTE   W92
 BYTE   W02
 BYTE   FINE

//**************** Track 3 (Midi-Chn.2) ****************//

MainTheme_003:
//  #03 //000   ----------------------------------------
 BYTE   KEYSH   MainTheme_key+0
 BYTE   VOICE   18
 BYTE   VOL   20*MainTheme_mvl/mxv
 BYTE   PAN   c_v+0
 BYTE   N44  Dn4  v064
 BYTE   W48
 BYTE   N22  Fn4
 BYTE   W24
 BYTE   N24  An4
 BYTE   W24
//  #03 //001   ----------------------------------------
 BYTE   N44
 BYTE   W48
 BYTE   N48  Dn4
 BYTE   W48
//  #03 //002   ----------------------------------------
Label_010060AF:
 BYTE   N44  Dn4  v064
 BYTE   W60
 BYTE   N11  En4
 BYTE   W12
 BYTE   N12  Fn4
 BYTE   W12
 BYTE   Gn4
 BYTE   W12
 BYTE   PEND 
//  #03 //003   ----------------------------------------
 BYTE   N44  Fn4
 BYTE   W48
 BYTE   N48  En4
 BYTE   W48
//  #03 //004   ----------------------------------------
 BYTE   Dn4
 BYTE   W48
 BYTE   N22  Fn4
 BYTE   W24
 BYTE   N24  An4
 BYTE   W24
//  #03 //005   ----------------------------------------
 BYTE   N44  Cn5
 BYTE   W48
 BYTE   N22  As4
 BYTE   W24
 BYTE   N24  An4
 BYTE   W24
//  #03 //006   ----------------------------------------
 BYTE   PATT
  POIN2 Label_010060AF
//  #03 //007   ----------------------------------------
 BYTE   TIE  Gn4  v064
 BYTE   W96
//  #03 //008   ----------------------------------------
 BYTE   W84
 BYTE   W02
 BYTE   EOT
 BYTE   W02
Label_010060E0:
 BYTE   W08
//  #03 //009   ----------------------------------------
Label_010060E1:
 BYTE   N44  An2  v116
 BYTE   N44  Dn3
 BYTE   N44  Fn3
 BYTE   W48
 BYTE   As2
 BYTE   N44  Dn3
 BYTE   N44  Gn3
 BYTE   W48
 BYTE   PEND 
//  #03 //010   ----------------------------------------
Label_010060F0:
 BYTE   N44  Gn2  v116
 BYTE   N44  As2
 BYTE   N44  En3
 BYTE   W48
 BYTE   As2
 BYTE   N44  Dn3
 BYTE   N44  Gn3
 BYTE   W48
 BYTE   PEND 
//  #03 //011   ----------------------------------------
Label_010060FF:
 BYTE   N44  An2  v116
 BYTE   N44  Dn3
 BYTE   N44  Fn3
 BYTE   W48
 BYTE   As2
 BYTE   N44  Cn3
 BYTE   N44  Fn3
 BYTE   W48
 BYTE   PEND 
//  #03 //012   ----------------------------------------
Label_0100610E:
 BYTE   N44  Gn2  v116
 BYTE   N44  As2
 BYTE   N44  En3
 BYTE   W48
 BYTE   Cs2
 BYTE   N44  En2
 BYTE   N44  An2
 BYTE   W48
 BYTE   PEND 
//  #03 //013   ----------------------------------------
 BYTE   PATT
  POIN2 Label_010060E1
//  #03 //014   ----------------------------------------
 BYTE   PATT
  POIN2 Label_010060F0
//  #03 //015   ----------------------------------------
 BYTE   PATT
  POIN2 Label_010060FF
//  #03 //016   ----------------------------------------
 BYTE   PATT
  POIN2 Label_0100610E
//  #03 //017   ----------------------------------------
Label_01006131:
 BYTE   N44  Fn3  v116
 BYTE   N44  An3
 BYTE   N44  Dn4
 BYTE   W48
 BYTE   Dn3
 BYTE   N44  Fn3
 BYTE   N44  As3
 BYTE   W48
 BYTE   PEND 
//  #03 //018   ----------------------------------------
 BYTE   Gn2
 BYTE   N44  Cn3
 BYTE   N44  En3
 BYTE   W48
 BYTE   As2
 BYTE   N44  Dn3
 BYTE   N44  Fn3
 BYTE   W48
//  #03 //019   ----------------------------------------
 BYTE   PATT
  POIN2 Label_01006131
//  #03 //020   ----------------------------------------
 BYTE   N92  En3  v116
 BYTE   N92  Gn3
 BYTE   W96
//  #03 //021   ----------------------------------------
 BYTE   N44  An4
 BYTE   N44  Dn5
 BYTE   W48
 BYTE   Fn4
 BYTE   N44  As4
 BYTE   W48
//  #03 //022   ----------------------------------------
 BYTE   Cn4
 BYTE   N44  En4
 BYTE   W48
 BYTE   As3
 BYTE   N44  Dn4
 BYTE   N44  Fn4
 BYTE   W48
//  #03 //023   ----------------------------------------
 BYTE   W96
//  #03 //024   ----------------------------------------
 BYTE   W96
//  #03 //025   ----------------------------------------
 BYTE   N90  An3  v096
 BYTE   N90  Dn4
 BYTE   W96
//  #03 //026   ----------------------------------------
 BYTE   N44  Fn3
 BYTE   N44  Gn3
 BYTE   W48
 BYTE   En3
 BYTE   N44  Gn3
 BYTE   N44  Cn4
 BYTE   N44  En4
 BYTE   W48
//  #03 //027   ----------------------------------------
 BYTE   An3
 BYTE   N44  Cn4
 BYTE   W48
 BYTE   N36  En4
 BYTE   N36  Gn4
 BYTE   W42
 BYTE   N48  Dn4
 BYTE   N48  Fn4
 BYTE   W06
//  #03 //028   ----------------------------------------
 BYTE   W48
 BYTE   N44  An3
 BYTE   N44  Dn4
 BYTE   W48
//  #03 //029   ----------------------------------------
 BYTE   N90  An3
 BYTE   N90  Dn4
 BYTE   W96
//  #03 //030   ----------------------------------------
 BYTE   N44  Fn3
 BYTE   N44  Gn3
 BYTE   W48
 BYTE   N22  En4
 BYTE   N22  Gn4
 BYTE   W24
 BYTE   Cn4
 BYTE   N22  En4
 BYTE   W24
//  #03 //031   ----------------------------------------
 BYTE   N44  Gn3
 BYTE   N44  As3
 BYTE   N44  Dn4
 BYTE   W48
 BYTE   An3
 BYTE   N44  Cs4
 BYTE   W48
//  #03 //032   ----------------------------------------
 BYTE   N22  Gn3
 BYTE   N22  Cn4
 BYTE   W24
 BYTE   N05  Fn3
 BYTE   N05  An3
 BYTE   W24
 BYTE   N17  Fn5  v052
 BYTE   W18
 BYTE   N18  Gn5
 BYTE   W18
 BYTE   N11  En5
 BYTE   W12
//  #03 //033   ----------------------------------------
 BYTE   N44  Fn5
 BYTE   W48
 BYTE   N17
 BYTE   W18
 BYTE   N18  Gn5
 BYTE   W18
 BYTE   N11  En5
 BYTE   W12
//  #03 //034   ----------------------------------------
 BYTE   N44  Cn5
 BYTE   W48
 BYTE   N17  Fn5
 BYTE   W18
 BYTE   N18  Gn5
 BYTE   W18
 BYTE   N11  En5
 BYTE   W12
//  #03 //035   ----------------------------------------
 BYTE   N22  Fn5
 BYTE   W24
 BYTE   N24  Cn6
 BYTE   W24
 BYTE   N11
 BYTE   W12
 BYTE   N12  As5
 BYTE   W12
 BYTE   An5
 BYTE   W12
 BYTE   N05  Gn5
 BYTE   W06
 BYTE   N48  An5
 BYTE   W06
//  #03 //036   ----------------------------------------
 BYTE   W96
//  #03 //037   ----------------------------------------
 BYTE   N44  An3  v112
 BYTE   N44  Dn4
 BYTE   W48
 BYTE   As3
 BYTE   N44  Dn4
 BYTE   W48
//  #03 //038   ----------------------------------------
 BYTE   N22  En3
 BYTE   N22  An3
 BYTE   W24
 BYTE   En4
 BYTE   N22  An4
 BYTE   W24
 BYTE   Fn4
 BYTE   N22  An4
 BYTE   W24
 BYTE   Cn4
 BYTE   N22  Fn4
 BYTE   W24
//  #03 //039   ----------------------------------------
 BYTE   N44  As3
 BYTE   N44  Dn4
 BYTE   W48
 BYTE   An3
 BYTE   N44  Cs4
 BYTE   W48
//  #03 //040   ----------------------------------------
 BYTE   N90  Fn3
 BYTE   N90  An3
 BYTE   W92
 BYTE   GoTo
  POIN2 Label_010060E0
//  #03 //041   ----------------------------------------
 BYTE   W04
 BYTE   N30  Fn4  v112
 BYTE   N36  An4
 BYTE   N42  Cn5
 BYTE   N48  En5
 BYTE   W24
 BYTE   N05  Dn4  v052
 BYTE   W06
 BYTE   N60  Fn4
 BYTE   W06
 BYTE   N15  An4
 BYTE   W06
 BYTE   N06  Cn5
 BYTE   W06
 BYTE   N21  En5
 BYTE   W03
 BYTE   N40  An4
 BYTE   W03
 BYTE   N02  Fn5
 BYTE   W03
 BYTE   N32  Cn5
 BYTE   W03
 BYTE   N02  Gn5
 BYTE   W03
 BYTE   N03  Dn5
 BYTE   W03
 BYTE   An5
 BYTE   W03
 BYTE   N22  En5
 BYTE   W03
 BYTE   N02  Cn6
 BYTE   W03
 BYTE   N03  Fn5
 BYTE   W03
 BYTE   N17  Bn5
 BYTE   W18
//  #03 //042   ----------------------------------------
 BYTE   N22  En5
 BYTE   W24
 BYTE   N24  Bn4
 BYTE   W24
 BYTE   An4
 BYTE   W24
 BYTE   N22  Gn4
 BYTE   W22
 BYTE   FINE

//**************** Track 4 (Midi-Chn.3) ****************//

MainTheme_004:
//  #04 //000   ----------------------------------------
 BYTE   KEYSH   MainTheme_key+0
 BYTE   VOL   20*MainTheme_mvl/mxv
 BYTE   N11  Dn2  v064
 BYTE   W12
 BYTE   N11
 BYTE   W12
 BYTE   N11
 BYTE   W12
 BYTE   N11
 BYTE   W12
 BYTE   N11
 BYTE   W12
 BYTE   N11
 BYTE   W12
 BYTE   N11
 BYTE   W12
 BYTE   N11
 BYTE   W12
//  #04 //001   ----------------------------------------
Label_0100695E:
 BYTE   N11  Dn2  v064
 BYTE   W12
 BYTE   N11
 BYTE   W12
 BYTE   N11
 BYTE   W12
 BYTE   N11
 BYTE   W12
 BYTE   N11
 BYTE   W12
 BYTE   N11
 BYTE   W12
 BYTE   N11
 BYTE   W12
 BYTE   N11
 BYTE   W12
 BYTE   PEND 
//  #04 //002   ----------------------------------------
 BYTE   PATT
  POIN2 Label_0100695E
//  #04 //003   ----------------------------------------
 BYTE   PATT
  POIN2 Label_0100695E
//  #04 //004   ----------------------------------------
 BYTE   PATT
  POIN2 Label_0100695E
//  #04 //005   ----------------------------------------
 BYTE   PATT
  POIN2 Label_0100695E
//  #04 //006   ----------------------------------------
 BYTE   PATT
  POIN2 Label_0100695E
//  #04 //007   ----------------------------------------
 BYTE   PATT
  POIN2 Label_0100695E
//  #04 //008   ----------------------------------------
 BYTE   N11  Dn2  v064
 BYTE   W12
 BYTE   N11
 BYTE   W12
 BYTE   N12  Dn2  v060
 BYTE   W12
 BYTE   Dn2  v056
 BYTE   W12
 BYTE   N44  Dn2  v052
 BYTE   W40
Label_010069A0:
 BYTE   W08
//  #04 //009   ----------------------------------------
Label_010069A1:
 BYTE   N05  Dn0  v116
 BYTE   W06
 BYTE   N06  Dn1  v096
 BYTE   W06
 BYTE   Dn0  v116
 BYTE   W06
 BYTE   Dn1  v096
 BYTE   W06
 BYTE   Dn2  v116
 BYTE   W06
 BYTE   An1  v096
 BYTE   W06
 BYTE   Dn1
 BYTE   W06
 BYTE   N05
 BYTE   W06
 BYTE   N06  Dn0  v116
 BYTE   W06
 BYTE   Dn1  v096
 BYTE   W06
 BYTE   Dn0  v116
 BYTE   W06
 BYTE   Dn1  v096
 BYTE   W06
 BYTE   Dn2  v116
 BYTE   W06
 BYTE   An1  v096
 BYTE   W06
 BYTE   Dn1
 BYTE   W06
 BYTE   N05
 BYTE   W06
 BYTE   PEND 
//  #04 //010   ----------------------------------------
 BYTE   PATT
  POIN2 Label_010069A1
//  #04 //011   ----------------------------------------
 BYTE   PATT
  POIN2 Label_010069A1
//  #04 //012   ----------------------------------------
 BYTE   PATT
  POIN2 Label_010069A1
//  #04 //013   ----------------------------------------
 BYTE   PATT
  POIN2 Label_010069A1
//  #04 //014   ----------------------------------------
 BYTE   PATT
  POIN2 Label_010069A1
//  #04 //015   ----------------------------------------
 BYTE   PATT
  POIN2 Label_010069A1
//  #04 //016   ----------------------------------------
 BYTE   PATT
  POIN2 Label_010069A1
//  #04 //017   ----------------------------------------
Label_010069F4:
 BYTE   N05  Dn0  v096
 BYTE   N05  Dn1
 BYTE   W06
 BYTE   Dn0
 BYTE   N05  Dn1
 BYTE   W12
 BYTE   Dn0
 BYTE   N05  Dn1
 BYTE   W06
 BYTE   Dn0
 BYTE   N05  Dn1
 BYTE   W12
 BYTE   Dn0
 BYTE   N05  Dn1
 BYTE   W06
 BYTE   Dn0
 BYTE   N05  Dn1
 BYTE   W12
 BYTE   Dn0
 BYTE   N05  Dn1
 BYTE   W06
 BYTE   Dn0
 BYTE   N05  Dn1
 BYTE   W12
 BYTE   Dn0
 BYTE   N05  Dn1
 BYTE   W06
 BYTE   Dn0
 BYTE   N05  Dn1
 BYTE   W06
 BYTE   Dn0
 BYTE   N05  Dn1
 BYTE   W12
 BYTE   PEND 
//  #04 //018   ----------------------------------------
 BYTE   PATT
  POIN2 Label_010069F4
//  #04 //019   ----------------------------------------
 BYTE   PATT
  POIN2 Label_010069F4
//  #04 //020   ----------------------------------------
 BYTE   PATT
  POIN2 Label_010069F4
//  #04 //021   ----------------------------------------
Label_01006A32:
 BYTE   N05  Dn1  v096
 BYTE   N05  Dn2
 BYTE   W06
 BYTE   Dn1
 BYTE   N05  Dn2
 BYTE   W12
 BYTE   Dn1
 BYTE   N05  Dn2
 BYTE   W06
 BYTE   Dn1
 BYTE   N05  Dn2
 BYTE   W12
 BYTE   Dn1
 BYTE   N05  Dn2
 BYTE   W06
 BYTE   Dn1
 BYTE   N05  Dn2
 BYTE   W12
 BYTE   Dn1
 BYTE   N05  Dn2
 BYTE   W06
 BYTE   Dn1
 BYTE   N05  Dn2
 BYTE   W12
 BYTE   Dn1
 BYTE   N05  Dn2
 BYTE   W06
 BYTE   Dn1
 BYTE   N05  Dn2
 BYTE   W06
 BYTE   Dn1
 BYTE   N05  Dn2
 BYTE   W12
 BYTE   PEND 
//  #04 //022   ----------------------------------------
 BYTE   PATT
  POIN2 Label_01006A32
//  #04 //023   ----------------------------------------
 BYTE   W18
 BYTE   N17  Fn2  v096
 BYTE   N17  As2
 BYTE   N17  Dn3
 BYTE   W18
 BYTE   N11  Fn2
 BYTE   N11  As2
 BYTE   N11  Dn3
 BYTE   W36
 BYTE   N17  Fn2
 BYTE   N17  As2
 BYTE   N17  Dn3
 BYTE   W18
 BYTE   N05  Fn2
 BYTE   N05  As2
 BYTE   N05  Dn3
 BYTE   W06
//  #04 //024   ----------------------------------------
 BYTE   W18
 BYTE   N17  Gn2
 BYTE   N17  Cn3
 BYTE   N17  Fn3
 BYTE   W18
 BYTE   N11  Gn2
 BYTE   N11  Cn3
 BYTE   N11  Fn3
 BYTE   W60
//  #04 //025   ----------------------------------------
Label_01006A93:
 BYTE   N05  As0  v096
 BYTE   N05  As1
 BYTE   W06
 BYTE   As0
 BYTE   N05  As1
 BYTE   W12
 BYTE   As0
 BYTE   N05  As1
 BYTE   W06
 BYTE   As0
 BYTE   N05  As1
 BYTE   W12
 BYTE   As0
 BYTE   N05  As1
 BYTE   W06
 BYTE   As0
 BYTE   N05  As1
 BYTE   W12
 BYTE   As0
 BYTE   N05  As1
 BYTE   W18
 BYTE   As0
 BYTE   N05  As1
 BYTE   W12
 BYTE   As0
 BYTE   N05  As1
 BYTE   W12
 BYTE   PEND 
//  #04 //026   ----------------------------------------
Label_01006ABA:
 BYTE   N05  Cn1  v096
 BYTE   N05  Cn2
 BYTE   W06
 BYTE   Cn1
 BYTE   N05  Cn2
 BYTE   W12
 BYTE   Cn1
 BYTE   N05  Cn2
 BYTE   W06
 BYTE   Cn1
 BYTE   N05  Cn2
 BYTE   W12
 BYTE   Cn1
 BYTE   N05  Cn2
 BYTE   W06
 BYTE   Cn1
 BYTE   N05  Cn2
 BYTE   W12
 BYTE   Cn1
 BYTE   N05  Cn2
 BYTE   W06
 BYTE   Cn1
 BYTE   N05  Cn2
 BYTE   W12
 BYTE   Cn1
 BYTE   N05  Cn2
 BYTE   W06
 BYTE   Cn1
 BYTE   N05  Cn2
 BYTE   W06
 BYTE   Cn1
 BYTE   N05  Cn2
 BYTE   W06
 BYTE   Cn1
 BYTE   N05  Cn2
 BYTE   W06
 BYTE   PEND 
//  #04 //027   ----------------------------------------
Label_01006AED:
 BYTE   N05  Dn1  v096
 BYTE   N05  Dn2
 BYTE   W06
 BYTE   Dn1
 BYTE   N05  Dn2
 BYTE   W12
 BYTE   Dn1
 BYTE   N05  Dn2
 BYTE   W06
 BYTE   Dn1
 BYTE   N05  Dn2
 BYTE   W12
 BYTE   Dn1
 BYTE   N05  Dn2
 BYTE   W06
 BYTE   Dn1
 BYTE   N05  Dn2
 BYTE   W12
 BYTE   Dn1
 BYTE   N05  Dn2
 BYTE   W18
 BYTE   Dn1
 BYTE   N05  Dn2
 BYTE   W12
 BYTE   Dn1
 BYTE   N05  Dn2
 BYTE   W12
 BYTE   PEND 
//  #04 //028   ----------------------------------------
 BYTE   PATT
  POIN2 Label_01006AED
//  #04 //029   ----------------------------------------
 BYTE   PATT
  POIN2 Label_01006A93
//  #04 //030   ----------------------------------------
 BYTE   PATT
  POIN2 Label_01006ABA
//  #04 //031   ----------------------------------------
 BYTE   N05  Gn0  v096
 BYTE   N05  Gn1
 BYTE   W06
 BYTE   Gn0
 BYTE   N05  Gn1
 BYTE   W12
 BYTE   Gn0
 BYTE   N05  Gn1
 BYTE   W06
 BYTE   Gn0
 BYTE   N05  Gn1
 BYTE   W12
 BYTE   Gn0
 BYTE   N05  Gn1
 BYTE   W06
 BYTE   An0
 BYTE   N05  An1
 BYTE   W12
 BYTE   An0
 BYTE   N05  An1
 BYTE   W06
 BYTE   An0
 BYTE   N05  An1
 BYTE   W12
 BYTE   An0
 BYTE   N05  An1
 BYTE   W06
 BYTE   An0
 BYTE   N05  An1
 BYTE   W06
 BYTE   An0
 BYTE   N05  An1
 BYTE   W06
 BYTE   An0
 BYTE   N05  An1
 BYTE   W06
//  #04 //032   ----------------------------------------
 BYTE   Dn1
 BYTE   N05  Dn2
 BYTE   W06
 BYTE   Dn1
 BYTE   N05  Dn2
 BYTE   W12
 BYTE   Dn1
 BYTE   N05  Dn2
 BYTE   W06
 BYTE   Dn1
 BYTE   N05  Dn2
 BYTE   W06
 BYTE   Dn1
 BYTE   N05  Dn2
 BYTE   W06
 BYTE   Dn1
 BYTE   N05  Dn2
 BYTE   W60
//  #04 //033   ----------------------------------------
 BYTE   N92  As3  v052
 BYTE   W03
 BYTE   N03  Dn4
 BYTE   W03
 BYTE   N88  Fn4
 BYTE   W03
 BYTE   N84  An4
 BYTE   W84
 BYTE   W03
//  #04 //034   ----------------------------------------
 BYTE   N44  An3
 BYTE   N44  Cn4
 BYTE   N44  En4
 BYTE   N44  Gn4
 BYTE   W48
 BYTE   Dn3
 BYTE   N44  Fn3
 BYTE   N44  An3
 BYTE   N44  Cn4
 BYTE   W48
//  #04 //035   ----------------------------------------
 BYTE   Gn3
 BYTE   N44  As3
 BYTE   N44  Dn4
 BYTE   N44  Fn4
 BYTE   W48
 BYTE   N03  Gn3
 BYTE   W03
 BYTE   An3
 BYTE   W03
 BYTE   N40  Cs4
 BYTE   W03
 BYTE   N36  Fn4
 BYTE   W36
 BYTE   W03
//  #04 //036   ----------------------------------------
 BYTE   N90  Dn3
 BYTE   N90  Fn3
 BYTE   N90  An3
 BYTE   N90  En4
 BYTE   W96
//  #04 //037   ----------------------------------------
 BYTE   W12
 BYTE   N05  As1  v112
 BYTE   W06
 BYTE   N11  Dn2
 BYTE   N11  Fn2
 BYTE   N11  An2
 BYTE   W12
 BYTE   N05  As1
 BYTE   W06
 BYTE   N11  Dn2
 BYTE   N11  Fn2
 BYTE   N11  An2
 BYTE   W24
 BYTE   N05  Cn2
 BYTE   W06
 BYTE   N11  En2
 BYTE   N11  Gn2
 BYTE   N11  Cn3
 BYTE   W12
 BYTE   N05  Cn2
 BYTE   W06
 BYTE   N11  En2
 BYTE   N11  Gn2
 BYTE   N11  Cn3
 BYTE   W12
//  #04 //038   ----------------------------------------
 BYTE   W12
 BYTE   N05  An1
 BYTE   W06
 BYTE   N11  Cn2
 BYTE   N11  En2
 BYTE   N11  Gn2
 BYTE   W12
 BYTE   N05  An1
 BYTE   W06
 BYTE   N11  Cn2
 BYTE   N11  En2
 BYTE   N11  Gn2
 BYTE   W24
 BYTE   N05  Dn2
 BYTE   W06
 BYTE   N11  Fn2
 BYTE   N11  An2
 BYTE   N11  Cn3
 BYTE   W12
 BYTE   N05  Dn2
 BYTE   W06
 BYTE   N11  Fn2
 BYTE   N11  An2
 BYTE   N11  Cn3
 BYTE   W12
//  #04 //039   ----------------------------------------
 BYTE   W12
 BYTE   N05  Gn2
 BYTE   W06
 BYTE   N11  As2
 BYTE   N11  Dn3
 BYTE   N11  Fn3
 BYTE   W12
 BYTE   N05  Gn2
 BYTE   W06
 BYTE   N11  As2
 BYTE   N11  Dn3
 BYTE   N11  Fn3
 BYTE   W24
 BYTE   N05  An2
 BYTE   W06
 BYTE   N11  Cs3
 BYTE   N11  En3
 BYTE   W12
 BYTE   N05  An2
 BYTE   W06
 BYTE   N11  Cs3
 BYTE   N11  En3
 BYTE   W12
//  #04 //040   ----------------------------------------
 BYTE   W12
 BYTE   N05  Dn2
 BYTE   W06
 BYTE   N11  Fn2
 BYTE   N11  An2
 BYTE   N11  Cn3
 BYTE   W12
 BYTE   N05  Dn2
 BYTE   W06
 BYTE   N11  Fn2
 BYTE   N11  An2
 BYTE   N11  Cn3
 BYTE   W12
 BYTE   N17  Dn0
 BYTE   N17  Dn1
 BYTE   W18
 BYTE   Dn0
 BYTE   N17  Dn1
 BYTE   W18
 BYTE   N11  Dn0
 BYTE   N11  Dn1
 BYTE   W08
 BYTE   GoTo
  POIN2 Label_010069A0
//  #04 //041   ----------------------------------------
 BYTE   W04
 BYTE   TIE  Dn0  v112
 BYTE   TIE  Dn1
 BYTE   W96
//  #04 //042   ----------------------------------------
 BYTE   W84
 BYTE   W02
 BYTE   EOT
 BYTE   Dn0  v038
 BYTE   W08
 BYTE   FINE

//**************** Track 5 (Midi-Chn.4) ****************//

MainTheme_005:
//  #05 //000   ----------------------------------------
 BYTE   KEYSH   MainTheme_key+0
 BYTE   VOICE   74
 BYTE   VOL   20*MainTheme_mvl/mxv
 BYTE   PAN   c_v+0
 BYTE   N11  Dn4  v016
 BYTE   W12
 BYTE   N11
 BYTE   W12
 BYTE   N12  Dn4  v020
 BYTE   W12
 BYTE   N11
 BYTE   W12
 BYTE   N11
 BYTE   W12
 BYTE   N11
 BYTE   W12
 BYTE   N11
 BYTE   W12
 BYTE   N12  Dn4  v024
 BYTE   W12
//  #05 //001   ----------------------------------------
 BYTE   N11
 BYTE   W12
 BYTE   N11
 BYTE   W12
 BYTE   N11
 BYTE   W12
 BYTE   N11
 BYTE   W12
 BYTE   N12  Dn4  v028
 BYTE   W12
 BYTE   N11
 BYTE   W12
 BYTE   N11
 BYTE   W12
 BYTE   N11
 BYTE   W12
//  #05 //002   ----------------------------------------
 BYTE   N11
 BYTE   W12
 BYTE   N11
 BYTE   W12
 BYTE   N12  Dn4  v032
 BYTE   W12
 BYTE   N11
 BYTE   W12
 BYTE   N11
 BYTE   W12
 BYTE   N11
 BYTE   W12
 BYTE   N11
 BYTE   W12
 BYTE   N12  Dn4  v036
 BYTE   W12
//  #05 //003   ----------------------------------------
 BYTE   N11
 BYTE   W12
 BYTE   N11
 BYTE   W12
 BYTE   N11
 BYTE   W12
 BYTE   N11
 BYTE   W12
 BYTE   N12  Dn4  v040
 BYTE   W12
 BYTE   N11
 BYTE   W12
 BYTE   N11
 BYTE   W12
 BYTE   N11
 BYTE   W12
//  #05 //004   ----------------------------------------
 BYTE   N11
 BYTE   W12
 BYTE   N12  Dn4  v044
 BYTE   W12
 BYTE   N11
 BYTE   W12
 BYTE   N11
 BYTE   W12
 BYTE   N11
 BYTE   W12
 BYTE   N11
 BYTE   W12
 BYTE   N11
 BYTE   W12
 BYTE   N12  Dn4  v048
 BYTE   W12
//  #05 //005   ----------------------------------------
 BYTE   N11
 BYTE   W12
 BYTE   N11
 BYTE   W12
 BYTE   N11
 BYTE   W12
 BYTE   N11
 BYTE   W12
 BYTE   N12  Dn4  v052
 BYTE   W12
 BYTE   N11
 BYTE   W12
 BYTE   N11
 BYTE   W12
 BYTE   N11
 BYTE   W12
//  #05 //006   ----------------------------------------
 BYTE   N11
 BYTE   W12
 BYTE   N12  Dn4  v056
 BYTE   W12
 BYTE   N11
 BYTE   W12
 BYTE   N11
 BYTE   W12
 BYTE   N11
 BYTE   W12
 BYTE   N11
 BYTE   W12
 BYTE   N12  Dn4  v060
 BYTE   W12
 BYTE   N11
 BYTE   W12
//  #05 //007   ----------------------------------------
 BYTE   N11
 BYTE   W12
 BYTE   N11
 BYTE   W12
 BYTE   N11
 BYTE   W12
 BYTE   N11
 BYTE   W12
 BYTE   N12  Dn4  v064
 BYTE   W12
 BYTE   N11
 BYTE   W12
 BYTE   N11
 BYTE   W12
 BYTE   N11
 BYTE   W12
//  #05 //008   ----------------------------------------
 BYTE   N12  Dn4  v036
 BYTE   W12
 BYTE   N11
 BYTE   W12
 BYTE   N11
 BYTE   W12
 BYTE   N11
 BYTE   W12
 BYTE   N44
 BYTE   W40
Label_01006D42:
 BYTE   W08
//  #05 //009   ----------------------------------------
Label_01006D43:
 BYTE   N11  Dn3  v096
 BYTE   W12
 BYTE   N12  Dn3  v080
 BYTE   W12
 BYTE   N11
 BYTE   W12
 BYTE   N11
 BYTE   W12
 BYTE   N12  Dn3  v096
 BYTE   W12
 BYTE   Dn3  v080
 BYTE   W12
 BYTE   N11
 BYTE   W12
 BYTE   N11
 BYTE   W12
 BYTE   PEND 
//  #05 //010   ----------------------------------------
 BYTE   PATT
  POIN2 Label_01006D43
//  #05 //011   ----------------------------------------
 BYTE   PATT
  POIN2 Label_01006D43
//  #05 //012   ----------------------------------------
 BYTE   PATT
  POIN2 Label_01006D43
//  #05 //013   ----------------------------------------
 BYTE   PATT
  POIN2 Label_01006D43
//  #05 //014   ----------------------------------------
 BYTE   PATT
  POIN2 Label_01006D43
//  #05 //015   ----------------------------------------
 BYTE   PATT
  POIN2 Label_01006D43
//  #05 //016   ----------------------------------------
 BYTE   N11  Dn3  v096
 BYTE   W12
 BYTE   N12  Dn3  v080
 BYTE   W12
 BYTE   N11
 BYTE   W12
 BYTE   N11
 BYTE   W12
 BYTE   N12  Dn3  v096
 BYTE   W12
 BYTE   Dn3  v080
 BYTE   W12
 BYTE   N11
 BYTE   W24
//  #05 //017   ----------------------------------------
 BYTE   W96
//  #05 //018   ----------------------------------------
 BYTE   W96
//  #05 //019   ----------------------------------------
 BYTE   W96
//  #05 //020   ----------------------------------------
 BYTE   W84
 BYTE   N05  Dn4
 BYTE   W06
 BYTE   N06  En4
 BYTE   W06
//  #05 //021   ----------------------------------------
 BYTE   N23  Fn4  v096
 BYTE   W30
 BYTE   N05  En4  v080
 BYTE   W06
 BYTE   N06  Dn4
 BYTE   W06
 BYTE   Cn4
 BYTE   W06
 BYTE   N23  Dn4  v096
 BYTE   W30
 BYTE   N05  Cn4  v080
 BYTE   W06
 BYTE   N06  As3
 BYTE   W06
 BYTE   An3
 BYTE   W06
//  #05 //022   ----------------------------------------
 BYTE   N11  Gn3  v096
 BYTE   W12
 BYTE   N56  An3  v080
 BYTE   W72
 BYTE   N05
 BYTE   W06
 BYTE   N06  As3
 BYTE   W06
//  #05 //023   ----------------------------------------
 BYTE   N11  Cn4
 BYTE   W12
 BYTE   N23  As3
 BYTE   W24
 BYTE   N11  An3
 BYTE   W12
 BYTE   N11
 BYTE   W12
 BYTE   N17
 BYTE   W18
 BYTE   N11  Gn3
 BYTE   W12
 BYTE   N05  Fn3
 BYTE   W06
//  #05 //024   ----------------------------------------
 BYTE   N11  Gn3
 BYTE   W12
 BYTE   N12  An3
 BYTE   W12
 BYTE   N23
 BYTE   W24
 BYTE   N17  Fn3
 BYTE   W18
 BYTE   N18  Gn3
 BYTE   W18
 BYTE   N11  En3
 BYTE   W12
//  #05 //025   ----------------------------------------
Label_01006DE3:
 BYTE   N44  Fn3  v080
 BYTE   W48
 BYTE   N17
 BYTE   W18
 BYTE   N18  Gn3
 BYTE   W18
 BYTE   N11  En3
 BYTE   W12
 BYTE   PEND 
//  #05 //026   ----------------------------------------
 BYTE   N44  Cn3
 BYTE   W48
 BYTE   N17  Fn3
 BYTE   W18
 BYTE   N18  Gn3
 BYTE   W18
 BYTE   N11  En3
 BYTE   W12
//  #05 //027   ----------------------------------------
 BYTE   N23  Fn3
 BYTE   W24
 BYTE   N24  Cn4
 BYTE   W24
 BYTE   N11
 BYTE   W12
 BYTE   N12  As3
 BYTE   W12
 BYTE   An3
 BYTE   W12
 BYTE   N05  Gn3
 BYTE   W06
 BYTE   N52  An3
 BYTE   W06
//  #05 //028   ----------------------------------------
 BYTE   W48
 BYTE   N17  Fn3
 BYTE   W18
 BYTE   N18  Gn3
 BYTE   W18
 BYTE   N11  En3
 BYTE   W12
//  #05 //029   ----------------------------------------
 BYTE   PATT
  POIN2 Label_01006DE3
//  #05 //030   ----------------------------------------
 BYTE   N23  Cn3  v080
 BYTE   W24
 BYTE   N24  Cn4
 BYTE   W24
 BYTE   N11
 BYTE   W12
 BYTE   N12  As3
 BYTE   W12
 BYTE   An3
 BYTE   W12
 BYTE   Gn3
 BYTE   W12
//  #05 //031   ----------------------------------------
 BYTE   N23  Fn3
 BYTE   W24
 BYTE   N24  An3
 BYTE   W24
 BYTE   Gn3
 BYTE   W24
 BYTE   Fn3
 BYTE   W24
//  #05 //032   ----------------------------------------
 BYTE   N17  En3
 BYTE   W18
 BYTE   N05  Dn3
 BYTE   W06
 BYTE   N05
 BYTE   W06
 BYTE   N05
 BYTE   W06
 BYTE   N05
 BYTE   W60
//  #05 //033   ----------------------------------------
 BYTE   W96
//  #05 //034   ----------------------------------------
 BYTE   W96
//  #05 //035   ----------------------------------------
 BYTE   W96
//  #05 //036   ----------------------------------------
 BYTE   W48
 BYTE   N11  Fn3  v096
 BYTE   W12
 BYTE   N05
 BYTE   W06
 BYTE   N17  Gn3
 BYTE   W18
 BYTE   N11  En3
 BYTE   W12
//  #05 //037   ----------------------------------------
 BYTE   N44  Fn3
 BYTE   W48
 BYTE   N17
 BYTE   W18
 BYTE   N18  Gn3
 BYTE   W18
 BYTE   N11  En3
 BYTE   W12
//  #05 //038   ----------------------------------------
 BYTE   N23  Cn3
 BYTE   W24
 BYTE   N24  Cn4
 BYTE   W24
 BYTE   N11
 BYTE   W12
 BYTE   N12  As3
 BYTE   W12
 BYTE   An3
 BYTE   W12
 BYTE   Gn3
 BYTE   W12
//  #05 //039   ----------------------------------------
 BYTE   N23  Fn3
 BYTE   W24
 BYTE   N24  An3
 BYTE   W24
 BYTE   Gn3
 BYTE   W24
 BYTE   Fn3
 BYTE   W24
//  #05 //040   ----------------------------------------
 BYTE   N17  En3
 BYTE   W18
 BYTE   N76  Dn3
 BYTE   W72
 BYTE   W02
 BYTE   GoTo
  POIN2 Label_01006D42
//  #05 //041   ----------------------------------------
 BYTE   W04
 BYTE   W96
//  #05 //042   ----------------------------------------
 BYTE   W92
 BYTE   W02
 BYTE   FINE

//**************** Track 6 (Midi-Chn.5) ****************//

MainTheme_006:
//  #06 //000   ----------------------------------------
 BYTE   KEYSH   MainTheme_key+0
 BYTE   VOICE   52
 BYTE   VOL   20*MainTheme_mvl/mxv
 BYTE   PAN   c_v+0
 BYTE   TIE  Dn1  v052
 BYTE   W96
//  #06 //001   ----------------------------------------
 BYTE   W92
 BYTE   W03
 BYTE   EOT
 BYTE   W01
//  #06 //002   ----------------------------------------
 BYTE   TIE
 BYTE   W96
//  #06 //003   ----------------------------------------
 BYTE   W92
 BYTE   W03
 BYTE   EOT
 BYTE   W01
//  #06 //004   ----------------------------------------
 BYTE   N92
 BYTE   W96
//  #06 //005   ----------------------------------------
 BYTE   N96  As1
 BYTE   W96
//  #06 //006   ----------------------------------------
 BYTE   Gn1
 BYTE   W96
//  #06 //007   ----------------------------------------
 BYTE   TIE  An1
 BYTE   W96
//  #06 //008   ----------------------------------------
 BYTE   W88
Label_01005249:
 BYTE   W07
 BYTE   EOT
 BYTE   An1
 BYTE   W01
//  #06 //009   ----------------------------------------
 BYTE   W96
//  #06 //010   ----------------------------------------
 BYTE   W96
//  #06 //011   ----------------------------------------
 BYTE   W96
//  #06 //012   ----------------------------------------
 BYTE   W96
//  #06 //013   ----------------------------------------
 BYTE   W96
//  #06 //014   ----------------------------------------
 BYTE   W96
//  #06 //015   ----------------------------------------
 BYTE   W96
//  #06 //016   ----------------------------------------
 BYTE   W96
//  #06 //017   ----------------------------------------
 BYTE   W96
//  #06 //018   ----------------------------------------
 BYTE   W96
//  #06 //019   ----------------------------------------
 BYTE   W96
//  #06 //020   ----------------------------------------
 BYTE   W96
//  #06 //021   ----------------------------------------
 BYTE   N44  An2  v060
 BYTE   N44  Dn3
 BYTE   N44  Fn3
 BYTE   W48
 BYTE   As2
 BYTE   N44  Dn3
 BYTE   N44  Fn3
 BYTE   W48
//  #06 //022   ----------------------------------------
 BYTE   Gn2
 BYTE   N44  Cn3
 BYTE   N44  En3
 BYTE   W48
 BYTE   As2
 BYTE   N44  Dn3
 BYTE   N44  Fn3
 BYTE   W48
//  #06 //023   ----------------------------------------
 BYTE   As0  v052
 BYTE   N44  As1
 BYTE   W48
 BYTE   As0
 BYTE   N44  As1
 BYTE   W48
//  #06 //024   ----------------------------------------
 BYTE   Cn1
 BYTE   N44  Cn2
 BYTE   W96
//  #06 //025   ----------------------------------------
 BYTE   W96
//  #06 //026   ----------------------------------------
 BYTE   W96
//  #06 //027   ----------------------------------------
 BYTE   W96
//  #06 //028   ----------------------------------------
 BYTE   W96
//  #06 //029   ----------------------------------------
 BYTE   W96
//  #06 //030   ----------------------------------------
 BYTE   W96
//  #06 //031   ----------------------------------------
 BYTE   W96
//  #06 //032   ----------------------------------------
 BYTE   W96
//  #06 //033   ----------------------------------------
 BYTE   W96
//  #06 //034   ----------------------------------------
 BYTE   W96
//  #06 //035   ----------------------------------------
 BYTE   W96
//  #06 //036   ----------------------------------------
 BYTE   W96
//  #06 //037   ----------------------------------------
 BYTE   N48  As0  v116
 BYTE   W48
 BYTE   Cn1
 BYTE   W48
//  #06 //038   ----------------------------------------
 BYTE   An0
 BYTE   W48
 BYTE   Dn1
 BYTE   W48
//  #06 //039   ----------------------------------------
 BYTE   Gn1
 BYTE   W48
 BYTE   An1
 BYTE   W48
//  #06 //040   ----------------------------------------
 BYTE   N92  Dn2
 BYTE   W92
 BYTE   GoTo
  POIN2 Label_01005249
//  #06 //041   ----------------------------------------
 BYTE   W04
 BYTE   W96
//  #06 //042   ----------------------------------------
 BYTE   W92
 BYTE   W02
 BYTE   FINE

//******************************************************//
	ALIGN 4

MainTheme:
	BYTE	6	// NumTrks
	BYTE	0	// NumBlks
	BYTE	MainTheme_pri	// Priority
	BYTE	MainTheme_rev	// Reverb.
    
	POIN2	MainTheme_grp
    
	POIN2	MainTheme_001
	POIN2	MainTheme_002
	POIN2	MainTheme_003
	POIN2	MainTheme_004
	POIN2	MainTheme_005
	POIN2	MainTheme_006

	
