//Event file generated from Sappy .s format.
	#include "MPlayDef.event"

	#define	MechanicalRhythm_grp  voicegroup000
	#define	MechanicalRhythm_pri  0
	#define	MechanicalRhythm_rev  0
	#define	MechanicalRhythm_mvl  127
	#define	MechanicalRhythm_key  0
	#define	MechanicalRhythm_tbs  1
	#define	MechanicalRhythm_exg  0
	#define	MechanicalRhythm_cmp  1

	// .rodata
	//	MechanicalRhythm
	ALIGN 4


//**************** Track 1 (Midi-Chn.0) ****************//

MechanicalRhythm_001:
//  #01 //000   ----------------------------------------
 BYTE   KEYSH   MechanicalRhythm_key+0
 BYTE   TEMPO   135*MechanicalRhythm_tbs/2
 BYTE   VOICE   40
 BYTE   MODT 0
 BYTE   LFOS 44
 BYTE   VOL   40*MechanicalRhythm_mvl/mxv
 BYTE   PAN   c_v+0
 BYTE   W96
//  #01 //001   ----------------------------------------
 BYTE   W96
//  #01 //002   ----------------------------------------
 BYTE   W96
//  #01 //003   ----------------------------------------
 BYTE   W96
//  #01 //004   ----------------------------------------
 BYTE   W96
//  #01 //005   ----------------------------------------
 BYTE   W96
//  #01 //006   ----------------------------------------
Label_01004CEC:
 BYTE   N92  Dn4  v044
 BYTE   W96
//  #01 //007   ----------------------------------------
 BYTE   As3
 BYTE   W96
//  #01 //008   ----------------------------------------
Label_01004CF2:
 BYTE   N44  Dn4  v044
 BYTE   W48
 BYTE   N23  En4
 BYTE   W24
 BYTE   Fn4
 BYTE   W24
 BYTE   PEND 
//  #01 //009   ----------------------------------------
Label_01004CFC:
 BYTE   N23  Gn4  v044
 BYTE   W24
 BYTE   En4
 BYTE   W24
 BYTE   N44  Cs4
 BYTE   W48
 BYTE   PEND 
//  #01 //010   ----------------------------------------
 BYTE   N92  Dn4
 BYTE   W96
//  #01 //011   ----------------------------------------
 BYTE   As3
 BYTE   W96
//  #01 //012   ----------------------------------------
 BYTE   PATT
  POIN2 Label_01004CF2
//  #01 //013   ----------------------------------------
 BYTE   PATT
  POIN2 Label_01004CFC
//  #01 //014   ----------------------------------------
Label_01004D15:
 BYTE   W12
 BYTE   N11  Fn3  v080
 BYTE   W12
 BYTE   Dn3
 BYTE   W24
 BYTE   En3
 BYTE   W12
 BYTE   Fn3
 BYTE   W36
 BYTE   PEND 
//  #01 //015   ----------------------------------------
Label_01004D21:
 BYTE   W12
 BYTE   N11  Fn3  v080
 BYTE   W12
 BYTE   Dn3
 BYTE   W24
 BYTE   Gn3
 BYTE   W12
 BYTE   En3
 BYTE   W12
 BYTE   An3
 BYTE   W12
 BYTE   Fn3
 BYTE   W12
 BYTE   PEND 
//  #01 //016   ----------------------------------------
Label_01004D31:
 BYTE   W12
 BYTE   N11  Fn3  v080
 BYTE   W12
 BYTE   Dn3
 BYTE   W24
 BYTE   En3
 BYTE   W12
 BYTE   Fn3
 BYTE   W24
 BYTE   N23  Dn4
 BYTE   W12
 BYTE   PEND 
//  #01 //017   ----------------------------------------
Label_01004D40:
 BYTE   W12
 BYTE   N11  Cs4  v080
 BYTE   W12
 BYTE   An3
 BYTE   W12
 BYTE   Cn4
 BYTE   W24
 BYTE   Bn3
 BYTE   W24
 BYTE   En3
 BYTE   W12
 BYTE   PEND 
//  #01 //018   ----------------------------------------
Label_01004D4E:
 BYTE   W12
 BYTE   N11  Fn3  v080
 BYTE   N11  An3
 BYTE   W12
 BYTE   Dn3
 BYTE   N11  Fn3
 BYTE   W24
 BYTE   En3
 BYTE   N11  Gn3
 BYTE   W12
 BYTE   Fn3
 BYTE   N11  An3
 BYTE   W36
 BYTE   PEND 
//  #01 //019   ----------------------------------------
Label_01004D62:
 BYTE   W12
 BYTE   N11  Fn3  v080
 BYTE   N11  An3
 BYTE   W12
 BYTE   Dn3
 BYTE   N11  Fn3
 BYTE   W24
 BYTE   Gn3
 BYTE   N11  As3
 BYTE   W12
 BYTE   En3
 BYTE   N11  Gn3
 BYTE   W12
 BYTE   An3
 BYTE   N11  Cn4
 BYTE   W12
 BYTE   Fn3
 BYTE   N11  An3
 BYTE   W12
 BYTE   PEND 
//  #01 //020   ----------------------------------------
Label_01004D7E:
 BYTE   N05  An3  v080
 BYTE   N05  Dn4
 BYTE   W06
 BYTE   An3
 BYTE   N05  Dn4
 BYTE   W06
 BYTE   An3
 BYTE   N05  Dn4
 BYTE   W06
 BYTE   An3
 BYTE   N05  Dn4
 BYTE   W18
 BYTE   An3
 BYTE   N05  Dn4
 BYTE   W06
 BYTE   An3
 BYTE   N05  Dn4
 BYTE   W06
 BYTE   An3
 BYTE   N05  Dn4
 BYTE   W06
 BYTE   An3
 BYTE   N05  Dn4
 BYTE   W42
 BYTE   PEND 
//  #01 //021   ----------------------------------------
Label_01004DA1:
 BYTE   W12
 BYTE   N05  An4  v080
 BYTE   N05  Dn5
 BYTE   W06
 BYTE   An4
 BYTE   N05  Dn5
 BYTE   W06
 BYTE   An4
 BYTE   N05  Dn5
 BYTE   W06
 BYTE   An4
 BYTE   N05  Dn5
 BYTE   W18
 BYTE   N11  Fn3
 BYTE   W12
 BYTE   Gn3
 BYTE   W12
 BYTE   Gs3
 BYTE   W12
 BYTE   As3
 BYTE   W12
 BYTE   PEND 
//  #01 //022   ----------------------------------------
 BYTE   N80  Cn4
 BYTE   W84
 BYTE   N05  As3
 BYTE   W06
 BYTE   Gs3
 BYTE   W06
//  #01 //023   ----------------------------------------
Label_01004DC6:
 BYTE   N44  Gn3  v080
 BYTE   W48
 BYTE   N17
 BYTE   W18
 BYTE   As3
 BYTE   W18
 BYTE   N11  Ds4
 BYTE   W12
 BYTE   PEND 
//  #01 //024   ----------------------------------------
Label_01004DD2:
 BYTE   N56  Gn4  v080
 BYTE   W60
 BYTE   N11
 BYTE   W12
 BYTE   Gs4
 BYTE   W12
 BYTE   As4
 BYTE   W12
 BYTE   PEND 
//  #01 //025   ----------------------------------------
Label_01004DDD:
 BYTE   N23  Gs4  v080
 BYTE   W24
 BYTE   Gn4
 BYTE   W24
 BYTE   Fn4
 BYTE   W24
 BYTE   Cn4
 BYTE   W24
 BYTE   PEND 
//  #01 //026   ----------------------------------------
Label_01004DE8:
 BYTE   N05  Cs4  v080
 BYTE   W06
 BYTE   Ds4
 BYTE   W06
 BYTE   Fn4
 BYTE   W06
 BYTE   Gn4
 BYTE   W06
 BYTE   N23  Gs4
 BYTE   W24
 BYTE   N05  Ds4
 BYTE   W06
 BYTE   Fn4
 BYTE   W06
 BYTE   Gn4
 BYTE   W06
 BYTE   Gs4
 BYTE   W06
 BYTE   N23  Gn4
 BYTE   N23  As4
 BYTE   W24
 BYTE   PEND 
//  #01 //027   ----------------------------------------
Label_01004E04:
 BYTE   N05  Fn4  v080
 BYTE   W06
 BYTE   Gn4
 BYTE   W06
 BYTE   Gs4
 BYTE   W06
 BYTE   As4
 BYTE   W06
 BYTE   N23  Gs4
 BYTE   N23  Cn5
 BYTE   W24
 BYTE   N05  Gn4
 BYTE   W06
 BYTE   Gs4
 BYTE   W06
 BYTE   As4
 BYTE   W06
 BYTE   Cn5
 BYTE   W06
 BYTE   N23  As4
 BYTE   N23  Ds5
 BYTE   W24
 BYTE   PEND 
//  #01 //028   ----------------------------------------
Label_01004E22:
 BYTE   N16  Gs4  v108
 BYTE   N16  Cn5
 BYTE   N16  Fn5
 BYTE   W03
 BYTE   W01
 BYTE   W01
 BYTE   W84
 BYTE   W01
 BYTE   N17  Fn4  v080
 BYTE   W06
 BYTE   PEND 
//  #01 //029   ----------------------------------------
Label_01004E33:
 BYTE   W12
 BYTE   N05  Fn4  v080
 BYTE   W06
 BYTE   N05
 BYTE   W06
 BYTE   Gs4
 BYTE   W06
 BYTE   Fn4
 BYTE   W06
 BYTE   N05
 BYTE   W06
 BYTE   N11  Ds5
 BYTE   W12
 BYTE   N05  Fn5
 BYTE   W06
 BYTE   As4
 BYTE   W06
 BYTE   Cn5
 BYTE   W06
 BYTE   Gs4
 BYTE   W06
 BYTE   As4
 BYTE   W06
 BYTE   Gn4
 BYTE   W06
 BYTE   Gs4
 BYTE   W06
 BYTE   PEND 
//  #01 //030   ----------------------------------------
Label_01004E53:
 BYTE   N80  Fn4  v080
 BYTE   W84
 BYTE   N05  Ds4
 BYTE   W06
 BYTE   Cs4
 BYTE   W06
 BYTE   PEND 
//  #01 //031   ----------------------------------------
Label_01004E5D:
 BYTE   N44  Cn4  v080
 BYTE   W48
 BYTE   N17
 BYTE   W18
 BYTE   Ds4
 BYTE   W18
 BYTE   N11  Gs4
 BYTE   W12
 BYTE   PEND 
//  #01 //032   ----------------------------------------
Label_01004E69:
 BYTE   N56  As4  v080
 BYTE   W60
 BYTE   N11
 BYTE   W12
 BYTE   Ds5
 BYTE   W12
 BYTE   Cs5
 BYTE   W12
 BYTE   PEND 
//  #01 //033   ----------------------------------------
Label_01004E74:
 BYTE   N23  Cn5  v080
 BYTE   W24
 BYTE   As4
 BYTE   W24
 BYTE   Cn5
 BYTE   W24
 BYTE   Ds5
 BYTE   W24
 BYTE   PEND 
//  #01 //034   ----------------------------------------
Label_01004E7F:
 BYTE   N32  Fn5  v080
 BYTE   W36
 BYTE   N05  Ds5
 BYTE   W06
 BYTE   Cs5
 BYTE   W06
 BYTE   N32  Cn5
 BYTE   W36
 BYTE   N05  As4
 BYTE   W06
 BYTE   Gs4
 BYTE   W06
 BYTE   PEND 
//  #01 //035   ----------------------------------------
Label_01004E91:
 BYTE   N32  Gn4  v080
 BYTE   W36
 BYTE   N05  Gs4
 BYTE   W06
 BYTE   As4
 BYTE   W06
 BYTE   N23  Gn4
 BYTE   W24
 BYTE   Ds4
 BYTE   W24
 BYTE   PEND 
//  #01 //036   ----------------------------------------
 BYTE   N92  Fn4
 BYTE   W96
//  #01 //037   ----------------------------------------
 BYTE   Fn5
 BYTE   W96
//  #01 //038   ----------------------------------------
 BYTE   Ds4
 BYTE   W96
//  #01 //039   ----------------------------------------
 BYTE   Fn4
 BYTE   W96
//  #01 //040   ----------------------------------------
 BYTE   An4
 BYTE   W96
//  #01 //041   ----------------------------------------
 BYTE   As3
 BYTE   W96
//  #01 //042   ----------------------------------------
 BYTE   Cn4
 BYTE   W96
//  #01 //043   ----------------------------------------
 BYTE   N44  As3
 BYTE   W48
 BYTE   N23  En4
 BYTE   W24
 BYTE   Fn4
 BYTE   W24
//  #01 //044   ----------------------------------------
 BYTE   N92  Dn4  v044
 BYTE   W96
//  #01 //045   ----------------------------------------
 BYTE   As3
 BYTE   W96
//  #01 //046   ----------------------------------------
 BYTE   PATT
  POIN2 Label_01004CF2
//  #01 //047   ----------------------------------------
 BYTE   PATT
  POIN2 Label_01004CFC
//  #01 //048   ----------------------------------------
 BYTE   N92  Dn4  v044
 BYTE   W96
//  #01 //049   ----------------------------------------
 BYTE   As3
 BYTE   W96
//  #01 //050   ----------------------------------------
 BYTE   PATT
  POIN2 Label_01004CF2
//  #01 //051   ----------------------------------------
 BYTE   PATT
  POIN2 Label_01004CFC
//  #01 //052   ----------------------------------------
 BYTE   PATT
  POIN2 Label_01004D15
//  #01 //053   ----------------------------------------
 BYTE   PATT
  POIN2 Label_01004D21
//  #01 //054   ----------------------------------------
 BYTE   PATT
  POIN2 Label_01004D31
//  #01 //055   ----------------------------------------
 BYTE   PATT
  POIN2 Label_01004D40
//  #01 //056   ----------------------------------------
 BYTE   PATT
  POIN2 Label_01004D4E
//  #01 //057   ----------------------------------------
 BYTE   PATT
  POIN2 Label_01004D62
//  #01 //058   ----------------------------------------
 BYTE   PATT
  POIN2 Label_01004D7E
//  #01 //059   ----------------------------------------
 BYTE   PATT
  POIN2 Label_01004DA1
//  #01 //060   ----------------------------------------
 BYTE   N68  Cn4  v080
 BYTE   W72
 BYTE   N11  As3
 BYTE   W12
 BYTE   Gs3
 BYTE   W12
//  #01 //061   ----------------------------------------
 BYTE   PATT
  POIN2 Label_01004DC6
//  #01 //062   ----------------------------------------
 BYTE   PATT
  POIN2 Label_01004DD2
//  #01 //063   ----------------------------------------
 BYTE   PATT
  POIN2 Label_01004DDD
//  #01 //064   ----------------------------------------
 BYTE   PATT
  POIN2 Label_01004DE8
//  #01 //065   ----------------------------------------
 BYTE   PATT
  POIN2 Label_01004E04
//  #01 //066   ----------------------------------------
 BYTE   PATT
  POIN2 Label_01004E22
//  #01 //067   ----------------------------------------
 BYTE   PATT
  POIN2 Label_01004E33
//  #01 //068   ----------------------------------------
 BYTE   PATT
  POIN2 Label_01004E53
//  #01 //069   ----------------------------------------
 BYTE   PATT
  POIN2 Label_01004E5D
//  #01 //070   ----------------------------------------
 BYTE   PATT
  POIN2 Label_01004E69
//  #01 //071   ----------------------------------------
 BYTE   PATT
  POIN2 Label_01004E74
//  #01 //072   ----------------------------------------
 BYTE   PATT
  POIN2 Label_01004E7F
//  #01 //073   ----------------------------------------
 BYTE   PATT
  POIN2 Label_01004E91
//  #01 //074   ----------------------------------------
 BYTE   N92  Fn4  v080
 BYTE   W96
//  #01 //075   ----------------------------------------
 BYTE   Fn5
 BYTE   W96
//  #01 //076   ----------------------------------------
 BYTE   Ds4
 BYTE   W96
//  #01 //077   ----------------------------------------
 BYTE   Fn4
 BYTE   W96
//  #01 //078   ----------------------------------------
 BYTE   W96
//  #01 //079   ----------------------------------------
 BYTE   W96
//  #01 //080   ----------------------------------------
 BYTE   W96
//  #01 //081   ----------------------------------------
 BYTE   W96
//  #01 //082   ----------------------------------------
 BYTE   W96
//  #01 //083   ----------------------------------------
 BYTE   W96
//  #01 //084   ----------------------------------------
 BYTE   W96
//  #01 //085   ----------------------------------------
 BYTE   W96
//  #01 //086   ----------------------------------------
 BYTE   W96
//  #01 //087   ----------------------------------------
 BYTE   W96
//  #01 //088   ----------------------------------------
 BYTE   W96
//  #01 //089   ----------------------------------------
 BYTE   W96
//  #01 //090   ----------------------------------------
 BYTE   GoTo
  POIN2 Label_01004CEC
//  #01 //091   ----------------------------------------
 BYTE   N92  Dn4  v044
 BYTE   W96
//  #01 //092   ----------------------------------------
 BYTE   As3
 BYTE   W96
 BYTE   FINE

//**************** Track 2 (Midi-Chn.1) ****************//

MechanicalRhythm_002:
//  #02 //000   ----------------------------------------
 BYTE   KEYSH   MechanicalRhythm_key+0
 BYTE   VOICE   41
 BYTE   MODT 0
 BYTE   LFOS 44
 BYTE   VOL   48*MechanicalRhythm_mvl/mxv
 BYTE   PAN   c_v+0
 BYTE   W96
//  #02 //001   ----------------------------------------
 BYTE   W96
//  #02 //002   ----------------------------------------
 BYTE   W96
//  #02 //003   ----------------------------------------
 BYTE   W96
//  #02 //004   ----------------------------------------
 BYTE   W96
//  #02 //005   ----------------------------------------
 BYTE   W96
//  #02 //006   ----------------------------------------
Label_01004F8E:
 BYTE   N92  An2  v044
 BYTE   W96
//  #02 //007   ----------------------------------------
 BYTE   Fn2
 BYTE   W96
//  #02 //008   ----------------------------------------
Label_01004F94:
 BYTE   N44  An2  v044
 BYTE   W48
 BYTE   N23  Bn2
 BYTE   W24
 BYTE   Cn3
 BYTE   W24
 BYTE   PEND 
//  #02 //009   ----------------------------------------
Label_01004F9E:
 BYTE   N23  Dn3  v044
 BYTE   W24
 BYTE   Bn2
 BYTE   W24
 BYTE   N44  Gs2
 BYTE   W48
 BYTE   PEND 
//  #02 //010   ----------------------------------------
 BYTE   N92  An2
 BYTE   W96
//  #02 //011   ----------------------------------------
 BYTE   Fn2
 BYTE   W96
//  #02 //012   ----------------------------------------
 BYTE   PATT
  POIN2 Label_01004F94
//  #02 //013   ----------------------------------------
 BYTE   PATT
  POIN2 Label_01004F9E
//  #02 //014   ----------------------------------------
Label_01004FB7:
 BYTE   N11  Dn2  v080
 BYTE   W36
 BYTE   N11
 BYTE   W36
 BYTE   Cn2
 BYTE   W12
 BYTE   Cs2
 BYTE   W12
 BYTE   PEND 
//  #02 //015   ----------------------------------------
Label_01004FC2:
 BYTE   N11  Dn2  v080
 BYTE   W36
 BYTE   N11
 BYTE   W36
 BYTE   N23  Ds2
 BYTE   W24
 BYTE   PEND 
//  #02 //016   ----------------------------------------
Label_01004FCC:
 BYTE   N11  Dn2  v080
 BYTE   W36
 BYTE   N11
 BYTE   W48
 BYTE   N23  Dn4
 BYTE   W12
 BYTE   PEND 
//  #02 //017   ----------------------------------------
Label_01004FD6:
 BYTE   W12
 BYTE   N11  Cs4  v080
 BYTE   W12
 BYTE   An3
 BYTE   W12
 BYTE   Cn4
 BYTE   W24
 BYTE   Bn3
 BYTE   W24
 BYTE   En3
 BYTE   W12
 BYTE   PEND 
//  #02 //018   ----------------------------------------
 BYTE   PATT
  POIN2 Label_01004FB7
//  #02 //019   ----------------------------------------
 BYTE   PATT
  POIN2 Label_01004FC2
//  #02 //020   ----------------------------------------
Label_01004FEE:
 BYTE   N05  Dn2  v080
 BYTE   W06
 BYTE   N05
 BYTE   W06
 BYTE   N05
 BYTE   W06
 BYTE   N05
 BYTE   W18
 BYTE   N05
 BYTE   W06
 BYTE   N05
 BYTE   W06
 BYTE   N05
 BYTE   W06
 BYTE   N05
 BYTE   W42
 BYTE   PEND 
//  #02 //021   ----------------------------------------
Label_01005001:
 BYTE   W12
 BYTE   N05  Dn2  v080
 BYTE   W06
 BYTE   N05
 BYTE   W06
 BYTE   N05
 BYTE   W06
 BYTE   N05
 BYTE   W18
 BYTE   N11  Fn2
 BYTE   W12
 BYTE   Gn2
 BYTE   W12
 BYTE   Gs2
 BYTE   W12
 BYTE   As2
 BYTE   W12
 BYTE   PEND 
//  #02 //022   ----------------------------------------
 BYTE   N80  Cn3
 BYTE   W84
 BYTE   N05  As2
 BYTE   W06
 BYTE   Gs2
 BYTE   W06
//  #02 //023   ----------------------------------------
Label_0100501E:
 BYTE   N44  Gn2  v080
 BYTE   W48
 BYTE   N17
 BYTE   W18
 BYTE   As2
 BYTE   W18
 BYTE   N11  Ds3
 BYTE   W12
 BYTE   PEND 
//  #02 //024   ----------------------------------------
Label_0100502A:
 BYTE   N56  Gn3  v080
 BYTE   W60
 BYTE   N11
 BYTE   W12
 BYTE   Gs3
 BYTE   W12
 BYTE   As3
 BYTE   W12
 BYTE   PEND 
//  #02 //025   ----------------------------------------
Label_01005035:
 BYTE   N23  Gs3  v080
 BYTE   W24
 BYTE   Gn3
 BYTE   W24
 BYTE   Fn3
 BYTE   W24
 BYTE   Cn3
 BYTE   W24
 BYTE   PEND 
//  #02 //026   ----------------------------------------
 BYTE   W96
//  #02 //027   ----------------------------------------
 BYTE   W96
//  #02 //028   ----------------------------------------
Label_01005042:
 BYTE   N11  Fn2  v060
 BYTE   W12
 BYTE   N05
 BYTE   W06
 BYTE   N05
 BYTE   W06
 BYTE   Gs2
 BYTE   W06
 BYTE   Fn2
 BYTE   W06
 BYTE   N05
 BYTE   W06
 BYTE   N05
 BYTE   W06
 BYTE   Cn3
 BYTE   W06
 BYTE   Gs2
 BYTE   W06
 BYTE   Fn2
 BYTE   W06
 BYTE   N11  Cs3
 BYTE   W12
 BYTE   N05  Cn3
 BYTE   W06
 BYTE   Bn2
 BYTE   W06
 BYTE   N17  Fn3
 BYTE   W06
 BYTE   PEND 
//  #02 //029   ----------------------------------------
Label_01005064:
 BYTE   W12
 BYTE   N05  Fn3  v060
 BYTE   W06
 BYTE   N05
 BYTE   W06
 BYTE   Gs3
 BYTE   W06
 BYTE   Fn3
 BYTE   W06
 BYTE   N05
 BYTE   W06
 BYTE   N11  Ds4
 BYTE   W12
 BYTE   N05  Fn4
 BYTE   W06
 BYTE   As3
 BYTE   W06
 BYTE   Cn4
 BYTE   W06
 BYTE   Gs3
 BYTE   W06
 BYTE   As3
 BYTE   W06
 BYTE   Gn3
 BYTE   W06
 BYTE   Gs3
 BYTE   W06
 BYTE   PEND 
//  #02 //030   ----------------------------------------
Label_01005084:
 BYTE   N80  Cn3  v060
 BYTE   W84
 BYTE   N05  As2
 BYTE   W06
 BYTE   Gs2
 BYTE   W06
 BYTE   PEND 
//  #02 //031   ----------------------------------------
Label_0100508E:
 BYTE   N44  Gn2  v060
 BYTE   W48
 BYTE   N17
 BYTE   W18
 BYTE   As2
 BYTE   W18
 BYTE   N11  Ds3
 BYTE   W12
 BYTE   PEND 
//  #02 //032   ----------------------------------------
Label_0100509A:
 BYTE   N56  Gn3  v060
 BYTE   W60
 BYTE   N11
 BYTE   W12
 BYTE   Cn4
 BYTE   W12
 BYTE   As3
 BYTE   W12
 BYTE   PEND 
//  #02 //033   ----------------------------------------
Label_010050A5:
 BYTE   N23  Gs3  v060
 BYTE   W24
 BYTE   Gn3
 BYTE   W24
 BYTE   Gs3
 BYTE   W24
 BYTE   As3
 BYTE   W24
 BYTE   PEND 
//  #02 //034   ----------------------------------------
Label_010050B0:
 BYTE   N32  Cn4  v060
 BYTE   W36
 BYTE   N05  As3
 BYTE   W06
 BYTE   Gs3
 BYTE   W06
 BYTE   N32  Gn3
 BYTE   W36
 BYTE   N05  Fn3
 BYTE   W06
 BYTE   Ds3
 BYTE   W06
 BYTE   PEND 
//  #02 //035   ----------------------------------------
Label_010050C2:
 BYTE   N32  Fn3  v060
 BYTE   W36
 BYTE   N05
 BYTE   W06
 BYTE   Gn3
 BYTE   W06
 BYTE   N23  Ds3
 BYTE   W24
 BYTE   As2
 BYTE   W24
 BYTE   PEND 
//  #02 //036   ----------------------------------------
 BYTE   N92  Cn3
 BYTE   W96
//  #02 //037   ----------------------------------------
 BYTE   Gs3
 BYTE   W96
//  #02 //038   ----------------------------------------
 BYTE   As3
 BYTE   W96
//  #02 //039   ----------------------------------------
 BYTE   Gs3
 BYTE   W96
//  #02 //040   ----------------------------------------
 BYTE   An2
 BYTE   W96
//  #02 //041   ----------------------------------------
 BYTE   As2
 BYTE   W96
//  #02 //042   ----------------------------------------
 BYTE   Cn3
 BYTE   W96
//  #02 //043   ----------------------------------------
 BYTE   As2
 BYTE   W96
//  #02 //044   ----------------------------------------
 BYTE   An2  v044
 BYTE   W96
//  #02 //045   ----------------------------------------
 BYTE   Fn2
 BYTE   W96
//  #02 //046   ----------------------------------------
 BYTE   PATT
  POIN2 Label_01004F94
//  #02 //047   ----------------------------------------
 BYTE   PATT
  POIN2 Label_01004F9E
//  #02 //048   ----------------------------------------
 BYTE   N92  An2  v044
 BYTE   W96
//  #02 //049   ----------------------------------------
 BYTE   Fn2
 BYTE   W96
//  #02 //050   ----------------------------------------
 BYTE   PATT
  POIN2 Label_01004F94
//  #02 //051   ----------------------------------------
 BYTE   PATT
  POIN2 Label_01004F9E
//  #02 //052   ----------------------------------------
 BYTE   PATT
  POIN2 Label_01004FB7
//  #02 //053   ----------------------------------------
 BYTE   PATT
  POIN2 Label_01004FC2
//  #02 //054   ----------------------------------------
 BYTE   PATT
  POIN2 Label_01004FCC
//  #02 //055   ----------------------------------------
 BYTE   PATT
  POIN2 Label_01004FD6
//  #02 //056   ----------------------------------------
 BYTE   PATT
  POIN2 Label_01004FB7
//  #02 //057   ----------------------------------------
 BYTE   PATT
  POIN2 Label_01004FC2
//  #02 //058   ----------------------------------------
 BYTE   PATT
  POIN2 Label_01004FEE
//  #02 //059   ----------------------------------------
 BYTE   PATT
  POIN2 Label_01005001
//  #02 //060   ----------------------------------------
 BYTE   N68  Cn3  v080
 BYTE   W72
 BYTE   N11  As2
 BYTE   W12
 BYTE   Gs2
 BYTE   W12
//  #02 //061   ----------------------------------------
 BYTE   PATT
  POIN2 Label_0100501E
//  #02 //062   ----------------------------------------
 BYTE   PATT
  POIN2 Label_0100502A
//  #02 //063   ----------------------------------------
 BYTE   PATT
  POIN2 Label_01005035
//  #02 //064   ----------------------------------------
 BYTE   N44  Cs2  v044
 BYTE   W48
 BYTE   Ds2
 BYTE   W48
//  #02 //065   ----------------------------------------
 BYTE   Fn2
 BYTE   W48
 BYTE   Gn2
 BYTE   W48
//  #02 //066   ----------------------------------------
 BYTE   PATT
  POIN2 Label_01005042
//  #02 //067   ----------------------------------------
 BYTE   PATT
  POIN2 Label_01005064
//  #02 //068   ----------------------------------------
 BYTE   PATT
  POIN2 Label_01005084
//  #02 //069   ----------------------------------------
 BYTE   PATT
  POIN2 Label_0100508E
//  #02 //070   ----------------------------------------
 BYTE   PATT
  POIN2 Label_0100509A
//  #02 //071   ----------------------------------------
 BYTE   PATT
  POIN2 Label_010050A5
//  #02 //072   ----------------------------------------
 BYTE   PATT
  POIN2 Label_010050B0
//  #02 //073   ----------------------------------------
 BYTE   PATT
  POIN2 Label_010050C2
//  #02 //074   ----------------------------------------
 BYTE   N92  Cn3  v060
 BYTE   W96
//  #02 //075   ----------------------------------------
 BYTE   Gs3
 BYTE   W96
//  #02 //076   ----------------------------------------
 BYTE   As3
 BYTE   W96
//  #02 //077   ----------------------------------------
 BYTE   Gs3
 BYTE   W96
//  #02 //078   ----------------------------------------
 BYTE   W96
//  #02 //079   ----------------------------------------
 BYTE   W96
//  #02 //080   ----------------------------------------
 BYTE   W96
//  #02 //081   ----------------------------------------
 BYTE   W96
//  #02 //082   ----------------------------------------
 BYTE   W96
//  #02 //083   ----------------------------------------
 BYTE   W96
//  #02 //084   ----------------------------------------
 BYTE   W96
//  #02 //085   ----------------------------------------
 BYTE   W96
//  #02 //086   ----------------------------------------
 BYTE   W96
//  #02 //087   ----------------------------------------
 BYTE   W96
//  #02 //088   ----------------------------------------
 BYTE   W96
//  #02 //089   ----------------------------------------
 BYTE   W96
//  #02 //090   ----------------------------------------
 BYTE   GoTo
  POIN2 Label_01004F8E
//  #02 //091   ----------------------------------------
 BYTE   N92  An2  v044
 BYTE   W96
//  #02 //092   ----------------------------------------
 BYTE   Fn2
 BYTE   W96
 BYTE   FINE

//**************** Track 3 (Midi-Chn.2) ****************//

MechanicalRhythm_003:
//  #03 //000   ----------------------------------------
 BYTE   KEYSH   MechanicalRhythm_key+0
 BYTE   VOICE   30
 BYTE   MODT 0
 BYTE   LFOS 44
 BYTE   VOL   55*MechanicalRhythm_mvl/mxv
 BYTE   PAN   c_v+0
 BYTE   N05  Dn2  v060
 BYTE   W06
 BYTE   N05
 BYTE   W06
 BYTE   N05
 BYTE   W06
 BYTE   N05
 BYTE   W06
 BYTE   Fn2
 BYTE   W06
 BYTE   Dn2
 BYTE   W06
 BYTE   N05
 BYTE   W06
 BYTE   N05
 BYTE   W06
 BYTE   An2
 BYTE   W06
 BYTE   Fn2
 BYTE   W06
 BYTE   Dn2
 BYTE   W06
 BYTE   N11  As2
 BYTE   W12
 BYTE   N05  An2
 BYTE   W06
 BYTE   Gs2
 BYTE   W06
 BYTE   N11  Dn2
 BYTE   W06
//  #03 //001   ----------------------------------------
 BYTE   W06
 BYTE   N05
 BYTE   W06
 BYTE   N05
 BYTE   W06
 BYTE   N05
 BYTE   W06
 BYTE   Fn2
 BYTE   W06
 BYTE   Dn2
 BYTE   W06
 BYTE   N05
 BYTE   W06
 BYTE   N05
 BYTE   W06
 BYTE   Dn3
 BYTE   W06
 BYTE   Cn3
 BYTE   W06
 BYTE   Gn2
 BYTE   W06
 BYTE   N11  An2
 BYTE   W12
 BYTE   N17  Fn2
 BYTE   W18
//  #03 //002   ----------------------------------------
Label_010051EE:
 BYTE   N11  Dn2  v080
 BYTE   W12
 BYTE   N05
 BYTE   W06
 BYTE   N05
 BYTE   W06
 BYTE   Fn2
 BYTE   W06
 BYTE   Dn2
 BYTE   W06
 BYTE   N05
 BYTE   W06
 BYTE   N05
 BYTE   W06
 BYTE   An2
 BYTE   W06
 BYTE   Fn2
 BYTE   W06
 BYTE   Dn2
 BYTE   W06
 BYTE   N11  As2
 BYTE   W12
 BYTE   N05  An2
 BYTE   W06
 BYTE   Gs2
 BYTE   W06
 BYTE   N17  Dn2
 BYTE   W06
 BYTE   PEND 
//  #03 //003   ----------------------------------------
Label_01005210:
 BYTE   W12
 BYTE   N05  Dn2  v080
 BYTE   W06
 BYTE   N05
 BYTE   W06
 BYTE   Fn2
 BYTE   W06
 BYTE   Dn2
 BYTE   W06
 BYTE   N05
 BYTE   W06
 BYTE   N05
 BYTE   W06
 BYTE   Dn3
 BYTE   W06
 BYTE   Cn3
 BYTE   W06
 BYTE   Gn2
 BYTE   W06
 BYTE   N11  An2
 BYTE   W12
 BYTE   N17  Fn2
 BYTE   W18
 BYTE   PEND 
//  #03 //004   ----------------------------------------
 BYTE   PATT
  POIN2 Label_010051EE
//  #03 //005   ----------------------------------------
Label_01005231:
 BYTE   W12
 BYTE   N05  Dn2  v080
 BYTE   W06
 BYTE   N05
 BYTE   W06
 BYTE   Fn2
 BYTE   W06
 BYTE   Dn2
 BYTE   W06
 BYTE   N05
 BYTE   W06
 BYTE   N11  Cn3
 BYTE   W12
 BYTE   N05  Dn3
 BYTE   W06
 BYTE   Gn2
 BYTE   W06
 BYTE   An2
 BYTE   W06
 BYTE   Fn2
 BYTE   W06
 BYTE   Gn2
 BYTE   W06
 BYTE   En2
 BYTE   W06
 BYTE   Fn2
 BYTE   W06
 BYTE   PEND 
//  #03 //006   ----------------------------------------
Label_01005251:
 BYTE   N11  Dn2  v116
 BYTE   W03
 BYTE   W01
 BYTE   W01
 BYTE   W07
 BYTE   N05  Dn2  v060
 BYTE   W06
 BYTE   N05
 BYTE   W06
 BYTE   Fn2  v116
 BYTE   W03
 BYTE   W01
 BYTE   W01
 BYTE   W01
 BYTE   Dn2  v060
 BYTE   W06
 BYTE   N05
 BYTE   W06
 BYTE   N05
 BYTE   W06
 BYTE   Gn2  v116
 BYTE   W03
 BYTE   W01
 BYTE   W01
 BYTE   W01
 BYTE   Dn2  v060
 BYTE   W06
 BYTE   N05
 BYTE   W06
 BYTE   Fn2  v116
 BYTE   W03
 BYTE   W01
 BYTE   W01
 BYTE   W01
 BYTE   Dn2  v060
 BYTE   W06
 BYTE   N05
 BYTE   W06
 BYTE   En2  v116
 BYTE   W03
 BYTE   W01
 BYTE   W01
 BYTE   W01
 BYTE   Dn2  v060
 BYTE   W06
 BYTE   PEND 
//  #03 //007   ----------------------------------------
Label_0100528B:
 BYTE   N11  Dn2  v116
 BYTE   W03
 BYTE   W01
 BYTE   W01
 BYTE   W07
 BYTE   N05  Dn2  v060
 BYTE   W06
 BYTE   N05
 BYTE   W06
 BYTE   Fn2  v116
 BYTE   W03
 BYTE   W01
 BYTE   W01
 BYTE   W01
 BYTE   Dn2  v060
 BYTE   W06
 BYTE   N05
 BYTE   W06
 BYTE   N05
 BYTE   W06
 BYTE   Gn2  v116
 BYTE   W03
 BYTE   W01
 BYTE   W01
 BYTE   W01
 BYTE   Dn2  v060
 BYTE   W06
 BYTE   N05
 BYTE   W06
 BYTE   Gs2  v116
 BYTE   W03
 BYTE   W01
 BYTE   W01
 BYTE   W01
 BYTE   Dn2  v060
 BYTE   W06
 BYTE   N05
 BYTE   W06
 BYTE   An2  v116
 BYTE   W03
 BYTE   W01
 BYTE   W01
 BYTE   W01
 BYTE   Dn2  v060
 BYTE   W06
 BYTE   PEND 
//  #03 //008   ----------------------------------------
Label_010052C5:
 BYTE   N11  Dn2  v116
 BYTE   W03
 BYTE   W01
 BYTE   W01
 BYTE   W07
 BYTE   N05  Dn2  v060
 BYTE   W06
 BYTE   N05
 BYTE   W06
 BYTE   Fn2  v116
 BYTE   W03
 BYTE   W01
 BYTE   W01
 BYTE   W01
 BYTE   Dn2  v060
 BYTE   W06
 BYTE   N05
 BYTE   W06
 BYTE   N05
 BYTE   W06
 BYTE   Gn2  v116
 BYTE   W03
 BYTE   W01
 BYTE   W01
 BYTE   W01
 BYTE   Dn2  v060
 BYTE   W06
 BYTE   N05
 BYTE   W06
 BYTE   Fn2  v116
 BYTE   W03
 BYTE   W01
 BYTE   W01
 BYTE   W01
 BYTE   Dn2  v060
 BYTE   W06
 BYTE   N05
 BYTE   W06
 BYTE   N23  En2  v116
 BYTE   W03
 BYTE   W01
 BYTE   W01
 BYTE   W07
 BYTE   PEND 
//  #03 //009   ----------------------------------------
Label_010052FD:
 BYTE   W12
 BYTE   N11  As2  v060
 BYTE   N11  En3
 BYTE   N11  Gn3
 BYTE   W12
 BYTE   N05  En2
 BYTE   W06
 BYTE   N17  As2
 BYTE   N17  En3
 BYTE   N17  Gn3
 BYTE   W18
 BYTE   N11  Dn2
 BYTE   W12
 BYTE   En2
 BYTE   N11  An2
 BYTE   N11  Cs3
 BYTE   W12
 BYTE   N05  Dn2
 BYTE   W06
 BYTE   N17  En2
 BYTE   N17  An2
 BYTE   N17  Cs3
 BYTE   W18
 BYTE   PEND 
//  #03 //010   ----------------------------------------
 BYTE   PATT
  POIN2 Label_01005251
//  #03 //011   ----------------------------------------
 BYTE   PATT
  POIN2 Label_0100528B
//  #03 //012   ----------------------------------------
 BYTE   PATT
  POIN2 Label_010052C5
//  #03 //013   ----------------------------------------
Label_01005333:
 BYTE   W12
 BYTE   N11  An2  v060
 BYTE   W12
 BYTE   En3
 BYTE   W12
 BYTE   N23  Ds3
 BYTE   W24
 BYTE   N11  En2
 BYTE   W12
 BYTE   N23  Ds2
 BYTE   W24
 BYTE   PEND 
//  #03 //014   ----------------------------------------
 BYTE   TIE  Dn2
 BYTE   W96
//  #03 //015   ----------------------------------------
 BYTE   W92
 BYTE   W03
 BYTE   EOT
 BYTE   W01
//  #03 //016   ----------------------------------------
 BYTE   W84
 BYTE   N23  Dn4
 BYTE   W12
//  #03 //017   ----------------------------------------
Label_0100534F:
 BYTE   W12
 BYTE   N11  Cs4  v060
 BYTE   W12
 BYTE   An3
 BYTE   W12
 BYTE   Cn4
 BYTE   W24
 BYTE   Bn3
 BYTE   W24
 BYTE   En3
 BYTE   W12
 BYTE   PEND 
//  #03 //018   ----------------------------------------
Label_0100535D:
 BYTE   W12
 BYTE   N11  Fn3  v060
 BYTE   N11  An3
 BYTE   W12
 BYTE   Dn3
 BYTE   N11  Fn3
 BYTE   W24
 BYTE   En3
 BYTE   N11  Gn3
 BYTE   W12
 BYTE   Fn3
 BYTE   N11  An3
 BYTE   W36
 BYTE   PEND 
//  #03 //019   ----------------------------------------
Label_01005371:
 BYTE   W12
 BYTE   N11  Fn3  v060
 BYTE   N11  An3
 BYTE   W12
 BYTE   Dn3
 BYTE   N11  Fn3
 BYTE   W24
 BYTE   Gn3
 BYTE   N11  As3
 BYTE   W12
 BYTE   En3
 BYTE   N11  Gn3
 BYTE   W12
 BYTE   An3
 BYTE   N11  Cn4
 BYTE   W12
 BYTE   Fn3
 BYTE   N11  An3
 BYTE   W12
 BYTE   PEND 
//  #03 //020   ----------------------------------------
Label_0100538D:
 BYTE   N05  An3  v060
 BYTE   N05  Dn4
 BYTE   W06
 BYTE   An3
 BYTE   N05  Dn4
 BYTE   W06
 BYTE   An3
 BYTE   N05  Dn4
 BYTE   W06
 BYTE   An3
 BYTE   N05  Dn4
 BYTE   W18
 BYTE   An3
 BYTE   N05  Dn4
 BYTE   W06
 BYTE   An3
 BYTE   N05  Dn4
 BYTE   W06
 BYTE   An3
 BYTE   N05  Dn4
 BYTE   W06
 BYTE   An3
 BYTE   N05  Dn4
 BYTE   W42
 BYTE   PEND 
//  #03 //021   ----------------------------------------
 BYTE   W12
 BYTE   An3
 BYTE   N05  Dn4
 BYTE   W06
 BYTE   An3
 BYTE   N05  Dn4
 BYTE   W06
 BYTE   An3
 BYTE   N05  Dn4
 BYTE   W06
 BYTE   An3
 BYTE   N05  Dn4
 BYTE   W66
//  #03 //022   ----------------------------------------
 BYTE   W96
//  #03 //023   ----------------------------------------
 BYTE   W96
//  #03 //024   ----------------------------------------
 BYTE   W96
//  #03 //025   ----------------------------------------
 BYTE   W96
//  #03 //026   ----------------------------------------
 BYTE   N44  Cs2  v028
 BYTE   W48
 BYTE   Ds2
 BYTE   W48
//  #03 //027   ----------------------------------------
 BYTE   Fn2
 BYTE   W48
 BYTE   Gn2
 BYTE   W48
//  #03 //028   ----------------------------------------
 BYTE   N11  Fn2  v060
 BYTE   W12
 BYTE   N05
 BYTE   W06
 BYTE   N05
 BYTE   W06
 BYTE   Gs2
 BYTE   W06
 BYTE   Fn2
 BYTE   W06
 BYTE   N05
 BYTE   W06
 BYTE   N05
 BYTE   W06
 BYTE   Cn3
 BYTE   W06
 BYTE   Gs2
 BYTE   W06
 BYTE   Fn2
 BYTE   W06
 BYTE   N11  Cs3
 BYTE   W12
 BYTE   N05  Cn3
 BYTE   W06
 BYTE   Bn2
 BYTE   W06
 BYTE   N17  Fn2
 BYTE   W06
//  #03 //029   ----------------------------------------
 BYTE   W12
 BYTE   N05
 BYTE   W06
 BYTE   N05
 BYTE   W06
 BYTE   Gs2
 BYTE   W06
 BYTE   Fn2
 BYTE   W06
 BYTE   N05
 BYTE   W06
 BYTE   N11  Ds3
 BYTE   W12
 BYTE   N05  Fn3
 BYTE   W06
 BYTE   As2
 BYTE   W06
 BYTE   Cn3
 BYTE   W06
 BYTE   Gs2
 BYTE   W06
 BYTE   As2
 BYTE   W06
 BYTE   Gn2
 BYTE   W06
 BYTE   Gs2
 BYTE   W06
//  #03 //030   ----------------------------------------
 BYTE   W96
//  #03 //031   ----------------------------------------
 BYTE   W96
//  #03 //032   ----------------------------------------
 BYTE   W96
//  #03 //033   ----------------------------------------
 BYTE   W96
//  #03 //034   ----------------------------------------
 BYTE   W96
//  #03 //035   ----------------------------------------
 BYTE   W96
//  #03 //036   ----------------------------------------
Label_01005413:
 BYTE   N05  Cn2  v060
 BYTE   N05  Fn2
 BYTE   W06
 BYTE   Cn2
 BYTE   N05  Fn2
 BYTE   W06
 BYTE   Cn2
 BYTE   N05  Fn2
 BYTE   W06
 BYTE   Cn2
 BYTE   N05  Fn2
 BYTE   W18
 BYTE   Cn2
 BYTE   N05  Fn2
 BYTE   W06
 BYTE   Cn2
 BYTE   N05  Fn2
 BYTE   W06
 BYTE   Cn2
 BYTE   N05  Fn2
 BYTE   W06
 BYTE   Cn2
 BYTE   N05  Fn2
 BYTE   W06
 BYTE   Cn2
 BYTE   N05  Fn2
 BYTE   W36
 BYTE   PEND 
//  #03 //037   ----------------------------------------
Label_0100543A:
 BYTE   W12
 BYTE   N05  Cn2  v060
 BYTE   N05  Fn2
 BYTE   W06
 BYTE   Cn2
 BYTE   N05  Fn2
 BYTE   W06
 BYTE   Cn2
 BYTE   N05  Fn2
 BYTE   W06
 BYTE   Cn2
 BYTE   N05  Fn2
 BYTE   W18
 BYTE   Cn2
 BYTE   N05  Fn2
 BYTE   W06
 BYTE   Cn2
 BYTE   N05  Fn2
 BYTE   W06
 BYTE   Cn2
 BYTE   N05  Fn2
 BYTE   W06
 BYTE   Cn2
 BYTE   N05  Fn2
 BYTE   W06
 BYTE   N23  Ds2
 BYTE   N23  Gs2
 BYTE   W24
 BYTE   PEND 
//  #03 //038   ----------------------------------------
 BYTE   PATT
  POIN2 Label_01005413
//  #03 //039   ----------------------------------------
Label_01005468:
 BYTE   W12
 BYTE   N05  Cn2  v060
 BYTE   N05  Fn2
 BYTE   W06
 BYTE   Cn2
 BYTE   N05  Fn2
 BYTE   W06
 BYTE   Cn2
 BYTE   N05  Fn2
 BYTE   W06
 BYTE   Cn2
 BYTE   N05  Fn2
 BYTE   W12
 BYTE   N11  Ds3
 BYTE   W12
 BYTE   N05  Fn3
 BYTE   W06
 BYTE   As2
 BYTE   W06
 BYTE   Cn3
 BYTE   W06
 BYTE   Gs2
 BYTE   W06
 BYTE   As2
 BYTE   W06
 BYTE   Gn2
 BYTE   W06
 BYTE   Gs2
 BYTE   W06
 BYTE   PEND 
//  #03 //040   ----------------------------------------
Label_0100548E:
 BYTE   N05  An1  v060
 BYTE   N05  Dn2
 BYTE   W06
 BYTE   An1
 BYTE   N05  Dn2
 BYTE   W06
 BYTE   An1
 BYTE   N05  Dn2
 BYTE   W06
 BYTE   An1
 BYTE   N05  Dn2
 BYTE   W18
 BYTE   An1
 BYTE   N05  Dn2
 BYTE   W06
 BYTE   An1
 BYTE   N05  Dn2
 BYTE   W06
 BYTE   An1
 BYTE   N05  Dn2
 BYTE   W06
 BYTE   An1
 BYTE   N05  Dn2
 BYTE   W06
 BYTE   An1
 BYTE   N05  Dn2
 BYTE   W36
 BYTE   PEND 
//  #03 //041   ----------------------------------------
 BYTE   W12
 BYTE   An1
 BYTE   N05  Dn2
 BYTE   W06
 BYTE   An1
 BYTE   N05  Dn2
 BYTE   W06
 BYTE   An1
 BYTE   N05  Dn2
 BYTE   W06
 BYTE   An1
 BYTE   N05  Dn2
 BYTE   W18
 BYTE   An1
 BYTE   N05  Dn2
 BYTE   W06
 BYTE   An1
 BYTE   N05  Dn2
 BYTE   W06
 BYTE   An1
 BYTE   N05  Dn2
 BYTE   W06
 BYTE   An1
 BYTE   N05  Dn2
 BYTE   W06
 BYTE   N23  Cn2
 BYTE   N23  Fn2
 BYTE   W24
//  #03 //042   ----------------------------------------
 BYTE   PATT
  POIN2 Label_0100548E
//  #03 //043   ----------------------------------------
 BYTE   W12
 BYTE   N05  An1  v060
 BYTE   N05  Dn2
 BYTE   W06
 BYTE   An1
 BYTE   N05  Dn2
 BYTE   W06
 BYTE   An1
 BYTE   N05  Dn2
 BYTE   W06
 BYTE   An1
 BYTE   N05  Dn2
 BYTE   W12
 BYTE   N11  Cn3
 BYTE   W12
 BYTE   N05  Dn3
 BYTE   W06
 BYTE   Gn2
 BYTE   W06
 BYTE   An2
 BYTE   W06
 BYTE   Fn2
 BYTE   W06
 BYTE   Gn2
 BYTE   W06
 BYTE   En2
 BYTE   W06
 BYTE   Fn2
 BYTE   W06
//  #03 //044   ----------------------------------------
 BYTE   PATT
  POIN2 Label_01005251
//  #03 //045   ----------------------------------------
 BYTE   PATT
  POIN2 Label_0100528B
//  #03 //046   ----------------------------------------
 BYTE   PATT
  POIN2 Label_010052C5
//  #03 //047   ----------------------------------------
 BYTE   PATT
  POIN2 Label_010052FD
//  #03 //048   ----------------------------------------
 BYTE   PATT
  POIN2 Label_01005251
//  #03 //049   ----------------------------------------
 BYTE   PATT
  POIN2 Label_0100528B
//  #03 //050   ----------------------------------------
 BYTE   N11  Dn2  v116
 BYTE   W03
 BYTE   W01
 BYTE   W01
 BYTE   W07
 BYTE   N05  Dn2  v060
 BYTE   W06
 BYTE   N05
 BYTE   W06
 BYTE   Fn2  v116
 BYTE   W03
 BYTE   W01
 BYTE   W01
 BYTE   W01
 BYTE   Dn2  v060
 BYTE   W06
 BYTE   N05
 BYTE   W06
 BYTE   N05
 BYTE   W06
 BYTE   Cn3  v116
 BYTE   W03
 BYTE   W01
 BYTE   W01
 BYTE   W01
 BYTE   Dn3  v060
 BYTE   W06
 BYTE   Dn2
 BYTE   W06
 BYTE   Fn2  v116
 BYTE   W03
 BYTE   W01
 BYTE   W01
 BYTE   W01
 BYTE   Dn2  v060
 BYTE   W06
 BYTE   N05
 BYTE   W06
 BYTE   N23  En3  v116
 BYTE   W03
 BYTE   W01
 BYTE   W01
 BYTE   W07
//  #03 //051   ----------------------------------------
 BYTE   PATT
  POIN2 Label_01005333
//  #03 //052   ----------------------------------------
 BYTE   TIE  Dn2  v060
 BYTE   W96
//  #03 //053   ----------------------------------------
 BYTE   W92
 BYTE   W03
 BYTE   EOT
 BYTE   W01
//  #03 //054   ----------------------------------------
 BYTE   W84
 BYTE   N23  Dn4
 BYTE   W12
//  #03 //055   ----------------------------------------
 BYTE   PATT
  POIN2 Label_0100534F
//  #03 //056   ----------------------------------------
 BYTE   PATT
  POIN2 Label_0100535D
//  #03 //057   ----------------------------------------
 BYTE   PATT
  POIN2 Label_01005371
//  #03 //058   ----------------------------------------
 BYTE   PATT
  POIN2 Label_0100538D
//  #03 //059   ----------------------------------------
 BYTE   W12
 BYTE   N05  An3  v060
 BYTE   N05  Dn4
 BYTE   W06
 BYTE   An3
 BYTE   N05  Dn4
 BYTE   W06
 BYTE   An3
 BYTE   N05  Dn4
 BYTE   W06
 BYTE   An3
 BYTE   N05  Dn4
 BYTE   W18
 BYTE   N11  Fn3  v104
 BYTE   W12
 BYTE   Gn3
 BYTE   W12
 BYTE   Gs3
 BYTE   W12
 BYTE   As3
 BYTE   W12
//  #03 //060   ----------------------------------------
 BYTE   N68  Gs3
 BYTE   N68  Cn4
 BYTE   W72
 BYTE   N11  Gn3
 BYTE   N11  As3
 BYTE   W12
 BYTE   Fn3
 BYTE   N11  Gs3
 BYTE   W12
//  #03 //061   ----------------------------------------
 BYTE   N44  Cs3
 BYTE   N44  Gn3
 BYTE   W48
 BYTE   N05
 BYTE   W06
 BYTE   Gs3
 BYTE   W06
 BYTE   As3
 BYTE   W06
 BYTE   N11  Gn3
 BYTE   W12
 BYTE   N05  Gs3
 BYTE   W06
 BYTE   Gn3
 BYTE   W06
 BYTE   Ds3
 BYTE   W06
//  #03 //062   ----------------------------------------
 BYTE   N44
 BYTE   N56  Gn3
 BYTE   W60
 BYTE   N11  Fn3
 BYTE   W12
 BYTE   Ds3
 BYTE   W12
 BYTE   Cn3
 BYTE   W12
//  #03 //063   ----------------------------------------
 BYTE   N17  Fn3
 BYTE   N17  Gs3
 BYTE   W18
 BYTE   Gn3
 BYTE   N17  As3
 BYTE   W18
 BYTE   N11  Fn3
 BYTE   N11  Gs3
 BYTE   W12
 BYTE   N17  Ds3
 BYTE   N17  Gn3
 BYTE   W18
 BYTE   Fn3
 BYTE   N17  Gs3
 BYTE   W18
 BYTE   N11  Cn3
 BYTE   N11  Fn3
 BYTE   W12
//  #03 //064   ----------------------------------------
 BYTE   Gs3
 BYTE   W12
 BYTE   Cn4
 BYTE   W12
 BYTE   Fn4
 BYTE   W12
 BYTE   N05  Ds4
 BYTE   W06
 BYTE   N17  Fn4
 BYTE   W18
 BYTE   N11  Gs4
 BYTE   W12
 BYTE   As4
 BYTE   W12
 BYTE   BEND   c_v+0
 BYTE   N44
 BYTE   W01
 BYTE   BEND   c_v+1
 BYTE   W01
 BYTE   BEND   c_v+2
 BYTE   W01
 BYTE   BEND   c_v+2
 BYTE   W01
 BYTE   BEND   c_v+4
 BYTE   W01
 BYTE   BEND   c_v+4
 BYTE   W01
 BYTE   BEND   c_v+5
 BYTE   W01
 BYTE   BEND   c_v+6
 BYTE   W01
 BYTE   BEND   c_v+7
 BYTE   W01
 BYTE   BEND   c_v+8
 BYTE   W01
 BYTE   BEND   c_v+9
 BYTE   W01
 BYTE   BEND   c_v+9
 BYTE   W01
//  #03 //065   ----------------------------------------
 BYTE   BEND   c_v+10
 BYTE   W36
 BYTE   BEND   c_v+0
 BYTE   N05  Gs4
 BYTE   W06
 BYTE   Fn4
 BYTE   W06
 BYTE   Gs4
 BYTE   W06
 BYTE   N17  Fn4
 BYTE   W18
 BYTE   N23  As3
 BYTE   W24
//  #03 //066   ----------------------------------------
 BYTE   N02  Ds4
 BYTE   W03
 BYTE   Cn4
 BYTE   W03
 BYTE   As3
 BYTE   W03
 BYTE   Cn4
 BYTE   W03
 BYTE   Ds4
 BYTE   W03
 BYTE   Cn4
 BYTE   W03
 BYTE   As3
 BYTE   W03
 BYTE   Cn4
 BYTE   W03
 BYTE   Ds4
 BYTE   W03
 BYTE   Cn4
 BYTE   W03
 BYTE   As3
 BYTE   W03
 BYTE   Cn4
 BYTE   W03
 BYTE   Ds4
 BYTE   W03
 BYTE   Cn4
 BYTE   W03
 BYTE   As3
 BYTE   W03
 BYTE   Cn4
 BYTE   W03
 BYTE   Ds4
 BYTE   W03
 BYTE   Cn4
 BYTE   W03
 BYTE   As3
 BYTE   W03
 BYTE   Cn4
 BYTE   W03
 BYTE   Ds4
 BYTE   W03
 BYTE   Cn4
 BYTE   W03
 BYTE   As3
 BYTE   W03
 BYTE   Cn4
 BYTE   W03
 BYTE   Ds4
 BYTE   W03
 BYTE   Cn4
 BYTE   W03
 BYTE   As3
 BYTE   W03
 BYTE   Cn4
 BYTE   W03
 BYTE   Ds4
 BYTE   W03
 BYTE   Cn4
 BYTE   W03
 BYTE   As3
 BYTE   W03
 BYTE   Cn4
 BYTE   W03
//  #03 //067   ----------------------------------------
 BYTE   Ds4
 BYTE   W03
 BYTE   Cn4
 BYTE   W03
 BYTE   As3
 BYTE   W03
 BYTE   Cn4
 BYTE   W03
 BYTE   Ds4
 BYTE   W03
 BYTE   Cn4
 BYTE   W03
 BYTE   As3
 BYTE   W03
 BYTE   Cn4
 BYTE   W03
 BYTE   N02
 BYTE   W03
 BYTE   Gs3
 BYTE   W03
 BYTE   Gn3
 BYTE   W03
 BYTE   Gs3
 BYTE   W03
 BYTE   Cn4
 BYTE   W03
 BYTE   Gs3
 BYTE   W03
 BYTE   Gn3
 BYTE   W03
 BYTE   Gs3
 BYTE   W03
 BYTE   BEND   c_v+0
 BYTE   N44  Fn4
 BYTE   W01
 BYTE   BEND   c_v+1
 BYTE   W01
 BYTE   BEND   c_v+2
 BYTE   W01
 BYTE   BEND   c_v+2
 BYTE   W01
 BYTE   BEND   c_v+4
 BYTE   W01
 BYTE   BEND   c_v+4
 BYTE   W01
 BYTE   BEND   c_v+5
 BYTE   W01
 BYTE   BEND   c_v+6
 BYTE   W01
 BYTE   BEND   c_v+7
 BYTE   W01
 BYTE   BEND   c_v+8
 BYTE   W01
 BYTE   BEND   c_v+9
 BYTE   W01
 BYTE   BEND   c_v+9
 BYTE   W01
 BYTE   BEND   c_v+10
 BYTE   W01
 BYTE   BEND   c_v+9
 BYTE   W01
 BYTE   BEND   c_v+9
 BYTE   W01
 BYTE   BEND   c_v+9
 BYTE   W01
 BYTE   BEND   c_v+8
 BYTE   W01
 BYTE   BEND   c_v+8
 BYTE   W01
 BYTE   BEND   c_v+7
 BYTE   W01
 BYTE   BEND   c_v+7
 BYTE   W01
 BYTE   BEND   c_v+6
 BYTE   W01
 BYTE   BEND   c_v+6
 BYTE   W01
 BYTE   BEND   c_v+5
 BYTE   W01
 BYTE   BEND   c_v+5
 BYTE   W01
 BYTE   BEND   c_v+4
 BYTE   W01
 BYTE   BEND   c_v+4
 BYTE   W01
 BYTE   BEND   c_v+4
 BYTE   W01
 BYTE   BEND   c_v+3
 BYTE   W01
 BYTE   BEND   c_v+3
 BYTE   W01
 BYTE   BEND   c_v+2
 BYTE   W01
 BYTE   BEND   c_v+2
 BYTE   W01
 BYTE   BEND   c_v+2
 BYTE   W01
 BYTE   BEND   c_v+1
 BYTE   W01
 BYTE   BEND   c_v+1
 BYTE   W01
 BYTE   BEND   c_v+0
 BYTE   W01
 BYTE   BEND   c_v+0
 BYTE   W01
 BYTE   BEND   c_v+0
 BYTE   W12
//  #03 //068   ----------------------------------------
 BYTE   BEND   c_v+0
 BYTE   W96
//  #03 //069   ----------------------------------------
 BYTE   W96
//  #03 //070   ----------------------------------------
 BYTE   W96
//  #03 //071   ----------------------------------------
 BYTE   W96
//  #03 //072   ----------------------------------------
 BYTE   W96
//  #03 //073   ----------------------------------------
 BYTE   N15
 BYTE   W16
 BYTE   Gn4
 BYTE   W16
 BYTE   Gs4
 BYTE   W16
 BYTE   As4
 BYTE   W16
 BYTE   Gs4
 BYTE   W16
 BYTE   Gn4
 BYTE   W16
//  #03 //074   ----------------------------------------
 BYTE   N05  Cn2
 BYTE   N05  Fn2
 BYTE   N92  Fn4
 BYTE   W06
 BYTE   N05  Cn2
 BYTE   N05  Fn2
 BYTE   W06
 BYTE   Cn2
 BYTE   N05  Fn2
 BYTE   W06
 BYTE   Cn2
 BYTE   N05  Fn2
 BYTE   W18
 BYTE   Cn2
 BYTE   N05  Fn2
 BYTE   W06
 BYTE   Cn2
 BYTE   N05  Fn2
 BYTE   W06
 BYTE   Cn2
 BYTE   N05  Fn2
 BYTE   W06
 BYTE   Cn2
 BYTE   N05  Fn2
 BYTE   W06
 BYTE   Cn2
 BYTE   N05  Fn2
 BYTE   W36
//  #03 //075   ----------------------------------------
 BYTE   PATT
  POIN2 Label_0100543A
//  #03 //076   ----------------------------------------
 BYTE   PATT
  POIN2 Label_01005413
//  #03 //077   ----------------------------------------
 BYTE   PATT
  POIN2 Label_01005468
//  #03 //078   ----------------------------------------
Label_0100571A:
 BYTE   N11  Dn2  v060
 BYTE   W12
 BYTE   Fn2
 BYTE   W12
 BYTE   Fn3
 BYTE   W12
 BYTE   Cn3
 BYTE   W12
 BYTE   En3
 BYTE   W12
 BYTE   N23  Fn3
 BYTE   W24
 BYTE   Dn2
 BYTE   W12
 BYTE   PEND 
//  #03 //079   ----------------------------------------
Label_0100572C:
 BYTE   W12
 BYTE   N11  Fn2  v060
 BYTE   W12
 BYTE   Gn3
 BYTE   W12
 BYTE   Dn3
 BYTE   W12
 BYTE   Fn3
 BYTE   W12
 BYTE   N23  Gn3
 BYTE   W24
 BYTE   Dn2
 BYTE   W12
 BYTE   PEND 
//  #03 //080   ----------------------------------------
Label_0100573D:
 BYTE   W12
 BYTE   N11  Fn3  v060
 BYTE   W12
 BYTE   An3
 BYTE   W12
 BYTE   Fn3
 BYTE   W12
 BYTE   Fn2
 BYTE   W12
 BYTE   N23  Gn3
 BYTE   W24
 BYTE   N11  En3
 BYTE   W12
 BYTE   PEND 
//  #03 //081   ----------------------------------------
Label_0100574F:
 BYTE   N11  Dn2  v060
 BYTE   W12
 BYTE   Fn2
 BYTE   W12
 BYTE   Gn3
 BYTE   W12
 BYTE   Dn3
 BYTE   W12
 BYTE   Fn3
 BYTE   W12
 BYTE   N32  Gn3
 BYTE   W36
 BYTE   PEND 
//  #03 //082   ----------------------------------------
 BYTE   PATT
  POIN2 Label_0100571A
//  #03 //083   ----------------------------------------
 BYTE   PATT
  POIN2 Label_0100572C
//  #03 //084   ----------------------------------------
 BYTE   PATT
  POIN2 Label_0100573D
//  #03 //085   ----------------------------------------
 BYTE   PATT
  POIN2 Label_0100574F
//  #03 //086   ----------------------------------------
 BYTE   PATT
  POIN2 Label_010051EE
//  #03 //087   ----------------------------------------
 BYTE   PATT
  POIN2 Label_01005210
//  #03 //088   ----------------------------------------
 BYTE   PATT
  POIN2 Label_010051EE
//  #03 //089   ----------------------------------------
 BYTE   PATT
  POIN2 Label_01005231
//  #03 //090   ----------------------------------------
 BYTE   GoTo
  POIN2 Label_01005251
//  #03 //091   ----------------------------------------
 BYTE   PATT
  POIN2 Label_01005251
//  #03 //092   ----------------------------------------
 BYTE   N11  Dn2  v116
 BYTE   W03
 BYTE   W01
 BYTE   W01
 BYTE   W07
 BYTE   N05  Dn2  v060
 BYTE   W06
 BYTE   N05
 BYTE   W06
 BYTE   Fn2  v116
 BYTE   W03
 BYTE   W01
 BYTE   W01
 BYTE   W01
 BYTE   Dn2  v060
 BYTE   W06
 BYTE   N05
 BYTE   W06
 BYTE   N05
 BYTE   W06
 BYTE   Gn2  v116
 BYTE   W03
 BYTE   W01
 BYTE   W01
 BYTE   W01
 BYTE   Dn2  v060
 BYTE   W06
 BYTE   N05
 BYTE   W06
 BYTE   Gs2  v116
 BYTE   W03
 BYTE   W01
 BYTE   W01
 BYTE   W01
 BYTE   Dn2  v060
 BYTE   W06
 BYTE   N05
 BYTE   W06
 BYTE   An2  v116
 BYTE   W03
 BYTE   W01
 BYTE   W01
 BYTE   W01
 BYTE   Dn2  v060
 BYTE   W05
 BYTE   BEND   c_v+0
 BYTE   W01
 BYTE   FINE

//**************** Track 4 (Midi-Chn.3) ****************//

MechanicalRhythm_004:
//  #04 //000   ----------------------------------------
 BYTE   KEYSH   MechanicalRhythm_key+0
 BYTE   VOICE   38
 BYTE   MODT 0
 BYTE   LFOS 44
 BYTE   VOL   47*MechanicalRhythm_mvl/mxv
 BYTE   PAN   c_v+0
 BYTE   W96
//  #04 //001   ----------------------------------------
 BYTE   W96
//  #04 //002   ----------------------------------------
Label_010057EE:
 BYTE   N11  Dn1  v060
 BYTE   W12
 BYTE   N05
 BYTE   W06
 BYTE   N05
 BYTE   W06
 BYTE   Fn1
 BYTE   W06
 BYTE   Dn1
 BYTE   W06
 BYTE   N05
 BYTE   W06
 BYTE   N05
 BYTE   W06
 BYTE   An1
 BYTE   W06
 BYTE   Fn1
 BYTE   W06
 BYTE   Dn1
 BYTE   W06
 BYTE   N11  As1
 BYTE   W12
 BYTE   N05  An1
 BYTE   W06
 BYTE   Gs1
 BYTE   W06
 BYTE   N17  Dn1
 BYTE   W06
 BYTE   PEND 
//  #04 //003   ----------------------------------------
 BYTE   W12
 BYTE   N05
 BYTE   W06
 BYTE   N05
 BYTE   W06
 BYTE   Fn1
 BYTE   W06
 BYTE   Dn1
 BYTE   W06
 BYTE   N05
 BYTE   W06
 BYTE   N05
 BYTE   W06
 BYTE   Dn2
 BYTE   W06
 BYTE   Cn2
 BYTE   W06
 BYTE   Gn1
 BYTE   W06
 BYTE   N11  An1
 BYTE   W12
 BYTE   N17  Fn1
 BYTE   W18
//  #04 //004   ----------------------------------------
 BYTE   PATT
  POIN2 Label_010057EE
//  #04 //005   ----------------------------------------
 BYTE   W12
 BYTE   N05  Dn1  v060
 BYTE   W06
 BYTE   N05
 BYTE   W06
 BYTE   Fn1
 BYTE   W06
 BYTE   Dn1
 BYTE   W06
 BYTE   N05
 BYTE   W06
 BYTE   N11  Cn2
 BYTE   W12
 BYTE   N05  Dn2
 BYTE   W06
 BYTE   Gn1
 BYTE   W06
 BYTE   An1
 BYTE   W06
 BYTE   Fn1
 BYTE   W06
 BYTE   Gn1
 BYTE   W06
 BYTE   En1
 BYTE   W06
 BYTE   Fn1
 BYTE   W06
//  #04 //006   ----------------------------------------
Label_0100584D:
 BYTE   N11  Dn1  v116
 BYTE   W03
 BYTE   W01
 BYTE   W01
 BYTE   W07
 BYTE   N05  Dn1  v060
 BYTE   W06
 BYTE   N05
 BYTE   W06
 BYTE   Fn1  v116
 BYTE   W03
 BYTE   W01
 BYTE   W01
 BYTE   W01
 BYTE   Dn1  v060
 BYTE   W06
 BYTE   N05
 BYTE   W06
 BYTE   N05
 BYTE   W06
 BYTE   Gn1  v116
 BYTE   W03
 BYTE   W01
 BYTE   W01
 BYTE   W01
 BYTE   Dn1  v060
 BYTE   W06
 BYTE   N05
 BYTE   W06
 BYTE   Fn1  v116
 BYTE   W03
 BYTE   W01
 BYTE   W01
 BYTE   W01
 BYTE   Dn1  v060
 BYTE   W06
 BYTE   N05
 BYTE   W06
 BYTE   En1  v116
 BYTE   W03
 BYTE   W01
 BYTE   W01
 BYTE   W01
 BYTE   Dn1  v060
 BYTE   W06
 BYTE   PEND 
//  #04 //007   ----------------------------------------
Label_01005887:
 BYTE   N11  Dn1  v116
 BYTE   W03
 BYTE   W01
 BYTE   W01
 BYTE   W07
 BYTE   N05  Dn1  v060
 BYTE   W06
 BYTE   N05
 BYTE   W06
 BYTE   Fn1  v116
 BYTE   W03
 BYTE   W01
 BYTE   W01
 BYTE   W01
 BYTE   Dn1  v060
 BYTE   W06
 BYTE   N05
 BYTE   W06
 BYTE   N05
 BYTE   W06
 BYTE   Gn1  v116
 BYTE   W03
 BYTE   W01
 BYTE   W01
 BYTE   W01
 BYTE   Dn1  v060
 BYTE   W06
 BYTE   N05
 BYTE   W06
 BYTE   Gs1  v116
 BYTE   W03
 BYTE   W01
 BYTE   W01
 BYTE   W01
 BYTE   Dn1  v060
 BYTE   W06
 BYTE   N05
 BYTE   W06
 BYTE   An1
 BYTE   W06
 BYTE   Dn1
 BYTE   W06
 BYTE   PEND 
//  #04 //008   ----------------------------------------
Label_010058BC:
 BYTE   N11  Dn1  v116
 BYTE   W03
 BYTE   W01
 BYTE   W01
 BYTE   W07
 BYTE   N05  Dn1  v060
 BYTE   W06
 BYTE   N05
 BYTE   W06
 BYTE   Fn1  v116
 BYTE   W03
 BYTE   W01
 BYTE   W01
 BYTE   W01
 BYTE   Dn1  v060
 BYTE   W06
 BYTE   N05
 BYTE   W06
 BYTE   N05
 BYTE   W06
 BYTE   Gn1  v116
 BYTE   W03
 BYTE   W01
 BYTE   W01
 BYTE   W01
 BYTE   Dn1  v060
 BYTE   W06
 BYTE   N05
 BYTE   W06
 BYTE   Fn1  v116
 BYTE   W03
 BYTE   W01
 BYTE   W01
 BYTE   W01
 BYTE   Dn1  v060
 BYTE   W06
 BYTE   N05
 BYTE   W06
 BYTE   N23  En1  v116
 BYTE   W03
 BYTE   W01
 BYTE   W01
 BYTE   W07
 BYTE   PEND 
//  #04 //009   ----------------------------------------
 BYTE   W12
 BYTE   N11  En1  v060
 BYTE   W12
 BYTE   N05
 BYTE   W06
 BYTE   N17
 BYTE   W18
 BYTE   N11  Fn0
 BYTE   W12
 BYTE   Dn1
 BYTE   W12
 BYTE   N05
 BYTE   W06
 BYTE   N17
 BYTE   W18
//  #04 //010   ----------------------------------------
 BYTE   PATT
  POIN2 Label_0100584D
//  #04 //011   ----------------------------------------
 BYTE   N11  Dn1  v116
 BYTE   W03
 BYTE   W01
 BYTE   W01
 BYTE   W07
 BYTE   N05  Dn1  v060
 BYTE   W06
 BYTE   N05
 BYTE   W06
 BYTE   Fn1  v116
 BYTE   W03
 BYTE   W01
 BYTE   W01
 BYTE   W01
 BYTE   Dn1  v060
 BYTE   W06
 BYTE   N05
 BYTE   W06
 BYTE   N05
 BYTE   W06
 BYTE   Gn1  v116
 BYTE   W03
 BYTE   W01
 BYTE   W01
 BYTE   W01
 BYTE   Dn1  v060
 BYTE   W06
 BYTE   N05
 BYTE   W06
 BYTE   Gs1  v116
 BYTE   W03
 BYTE   W01
 BYTE   W01
 BYTE   W01
 BYTE   Dn1  v060
 BYTE   W06
 BYTE   N05
 BYTE   W06
 BYTE   An1  v116
 BYTE   W03
 BYTE   W01
 BYTE   W01
 BYTE   W01
 BYTE   Dn1  v060
 BYTE   W06
//  #04 //012   ----------------------------------------
 BYTE   PATT
  POIN2 Label_010058BC
//  #04 //013   ----------------------------------------
 BYTE   W12
 BYTE   N11  En1  v060
 BYTE   W12
 BYTE   N11
 BYTE   W12
 BYTE   N23  Ds1
 BYTE   W24
 BYTE   N11
 BYTE   W12
 BYTE   N11
 BYTE   W12
 BYTE   N11
 BYTE   W12
//  #04 //014   ----------------------------------------
 BYTE   TIE  Dn1
 BYTE   W96
//  #04 //015   ----------------------------------------
 BYTE   W92
 BYTE   W03
 BYTE   EOT
 BYTE   W01
//  #04 //016   ----------------------------------------
 BYTE   TIE
 BYTE   W96
//  #04 //017   ----------------------------------------
 BYTE   W92
 BYTE   W03
 BYTE   EOT
 BYTE   W01
//  #04 //018   ----------------------------------------
Label_01005966:
 BYTE   N11  Dn1  v080
 BYTE   W36
 BYTE   N11
 BYTE   W36
 BYTE   Cn1
 BYTE   W12
 BYTE   Cs1
 BYTE   W12
 BYTE   PEND 
//  #04 //019   ----------------------------------------
Label_01005971:
 BYTE   N11  Dn1  v080
 BYTE   W36
 BYTE   N11
 BYTE   W36
 BYTE   N23  Ds1
 BYTE   W24
 BYTE   PEND 
//  #04 //020   ----------------------------------------
Label_0100597B:
 BYTE   N05  Dn1  v080
 BYTE   W06
 BYTE   N05
 BYTE   W06
 BYTE   N05
 BYTE   W06
 BYTE   N05
 BYTE   W18
 BYTE   N05
 BYTE   W06
 BYTE   N05
 BYTE   W06
 BYTE   N05
 BYTE   W06
 BYTE   N05
 BYTE   W42
 BYTE   PEND 
//  #04 //021   ----------------------------------------
Label_0100598E:
 BYTE   W12
 BYTE   N05  Dn1  v080
 BYTE   W06
 BYTE   N05
 BYTE   W06
 BYTE   N05
 BYTE   W06
 BYTE   N05
 BYTE   W66
 BYTE   PEND 
//  #04 //022   ----------------------------------------
Label_0100599A:
 BYTE   N11  Cs1  v028
 BYTE   W12
 BYTE   N05
 BYTE   W06
 BYTE   N05
 BYTE   W06
 BYTE   N11
 BYTE   W12
 BYTE   N05
 BYTE   W06
 BYTE   N05
 BYTE   W06
 BYTE   N11
 BYTE   W12
 BYTE   N05
 BYTE   W06
 BYTE   N05
 BYTE   W06
 BYTE   N11
 BYTE   W12
 BYTE   N05
 BYTE   W06
 BYTE   N05
 BYTE   W06
 BYTE   PEND 
//  #04 //023   ----------------------------------------
 BYTE   PATT
  POIN2 Label_0100599A
//  #04 //024   ----------------------------------------
Label_010059BA:
 BYTE   N11  Cn1  v044
 BYTE   W12
 BYTE   N05
 BYTE   W06
 BYTE   N05
 BYTE   W06
 BYTE   N11
 BYTE   W12
 BYTE   N05
 BYTE   W06
 BYTE   N05
 BYTE   W06
 BYTE   N11
 BYTE   W12
 BYTE   N05
 BYTE   W06
 BYTE   N05
 BYTE   W06
 BYTE   N11
 BYTE   W12
 BYTE   N05
 BYTE   W06
 BYTE   N05
 BYTE   W06
 BYTE   PEND 
//  #04 //025   ----------------------------------------
Label_010059D5:
 BYTE   N11  Fn1  v044
 BYTE   W12
 BYTE   N05
 BYTE   W06
 BYTE   N05
 BYTE   W06
 BYTE   N11
 BYTE   W12
 BYTE   N05
 BYTE   W06
 BYTE   N05
 BYTE   W06
 BYTE   N11
 BYTE   W12
 BYTE   N05
 BYTE   W06
 BYTE   N05
 BYTE   W06
 BYTE   N11
 BYTE   W12
 BYTE   N05
 BYTE   W06
 BYTE   N05
 BYTE   W06
 BYTE   PEND 
//  #04 //026   ----------------------------------------
Label_010059F0:
 BYTE   N17  Cs1  v044
 BYTE   W18
 BYTE   N05  Gs1
 BYTE   W06
 BYTE   N23  Cs2
 BYTE   W24
 BYTE   N17  Ds1
 BYTE   W18
 BYTE   N05  As1
 BYTE   W06
 BYTE   N23  Ds2
 BYTE   W24
 BYTE   PEND 
//  #04 //027   ----------------------------------------
Label_01005A04:
 BYTE   N17  Fn1  v044
 BYTE   W18
 BYTE   N05  Cn2
 BYTE   W06
 BYTE   N23  Fn2
 BYTE   W24
 BYTE   N17  Gn1
 BYTE   W18
 BYTE   N05  Cs1
 BYTE   W06
 BYTE   N23  Gn1
 BYTE   W24
 BYTE   PEND 
//  #04 //028   ----------------------------------------
 BYTE   PATT
  POIN2 Label_010059D5
//  #04 //029   ----------------------------------------
 BYTE   PATT
  POIN2 Label_010059D5
//  #04 //030   ----------------------------------------
 BYTE   PATT
  POIN2 Label_0100599A
//  #04 //031   ----------------------------------------
 BYTE   PATT
  POIN2 Label_0100599A
//  #04 //032   ----------------------------------------
 BYTE   PATT
  POIN2 Label_010059BA
//  #04 //033   ----------------------------------------
 BYTE   PATT
  POIN2 Label_010059D5
//  #04 //034   ----------------------------------------
 BYTE   PATT
  POIN2 Label_010059F0
//  #04 //035   ----------------------------------------
 BYTE   PATT
  POIN2 Label_01005A04
//  #04 //036   ----------------------------------------
Label_01005A40:
 BYTE   N05  Fn1  v044
 BYTE   W06
 BYTE   N05
 BYTE   W06
 BYTE   N05
 BYTE   W06
 BYTE   N05
 BYTE   W18
 BYTE   N05
 BYTE   W06
 BYTE   N05
 BYTE   W06
 BYTE   N05
 BYTE   W06
 BYTE   N05
 BYTE   W06
 BYTE   N05
 BYTE   W36
 BYTE   PEND 
//  #04 //037   ----------------------------------------
Label_01005A55:
 BYTE   W12
 BYTE   N05  Fn1  v044
 BYTE   W06
 BYTE   N05
 BYTE   W06
 BYTE   N05
 BYTE   W06
 BYTE   N05
 BYTE   W18
 BYTE   N05
 BYTE   W06
 BYTE   N05
 BYTE   W06
 BYTE   N05
 BYTE   W06
 BYTE   N05
 BYTE   W06
 BYTE   N23  Gs1
 BYTE   W24
 BYTE   PEND 
//  #04 //038   ----------------------------------------
 BYTE   PATT
  POIN2 Label_01005A40
//  #04 //039   ----------------------------------------
Label_01005A71:
 BYTE   W12
 BYTE   N05  Fn1  v044
 BYTE   W06
 BYTE   N05
 BYTE   W06
 BYTE   N05
 BYTE   W06
 BYTE   N05
 BYTE   W12
 BYTE   N11  Ds1
 BYTE   W12
 BYTE   N05  Fn1
 BYTE   W06
 BYTE   As0
 BYTE   W06
 BYTE   Cn1
 BYTE   W06
 BYTE   Gs0
 BYTE   W06
 BYTE   As0
 BYTE   W06
 BYTE   Gn0
 BYTE   W06
 BYTE   Gs0
 BYTE   W06
 BYTE   PEND 
//  #04 //040   ----------------------------------------
Label_01005A8F:
 BYTE   N05  Dn1  v044
 BYTE   W06
 BYTE   N05
 BYTE   W06
 BYTE   N05
 BYTE   W06
 BYTE   N05
 BYTE   W18
 BYTE   N05
 BYTE   W06
 BYTE   N05
 BYTE   W06
 BYTE   N05
 BYTE   W06
 BYTE   N05
 BYTE   W06
 BYTE   N05
 BYTE   W36
 BYTE   PEND 
//  #04 //041   ----------------------------------------
 BYTE   W12
 BYTE   N05
 BYTE   W06
 BYTE   N05
 BYTE   W06
 BYTE   N05
 BYTE   W06
 BYTE   N05
 BYTE   W18
 BYTE   N05
 BYTE   W06
 BYTE   N05
 BYTE   W06
 BYTE   N05
 BYTE   W06
 BYTE   N05
 BYTE   W06
 BYTE   N23  Fn1
 BYTE   W24
//  #04 //042   ----------------------------------------
 BYTE   PATT
  POIN2 Label_01005A8F
//  #04 //043   ----------------------------------------
 BYTE   W12
 BYTE   N05  Dn1  v044
 BYTE   W06
 BYTE   N05
 BYTE   W06
 BYTE   N05
 BYTE   W06
 BYTE   N05
 BYTE   W12
 BYTE   N11  Cn1
 BYTE   W12
 BYTE   N05  Dn1
 BYTE   W06
 BYTE   Gn0
 BYTE   W06
 BYTE   An0
 BYTE   W06
 BYTE   Fn0
 BYTE   W06
 BYTE   Gn0
 BYTE   W06
 BYTE   En0
 BYTE   W06
 BYTE   Fn0
 BYTE   W06
//  #04 //044   ----------------------------------------
Label_01005ADA:
 BYTE   N11  Dn1  v080
 BYTE   W03
 BYTE   W01
 BYTE   W01
 BYTE   W07
 BYTE   N05  Dn1  v044
 BYTE   W06
 BYTE   N05
 BYTE   W06
 BYTE   Fn1  v080
 BYTE   W03
 BYTE   W01
 BYTE   W01
 BYTE   W01
 BYTE   Dn1  v044
 BYTE   W06
 BYTE   N05
 BYTE   W06
 BYTE   N05
 BYTE   W06
 BYTE   Gn1  v080
 BYTE   W03
 BYTE   W01
 BYTE   W01
 BYTE   W01
 BYTE   Dn1  v044
 BYTE   W06
 BYTE   N05
 BYTE   W06
 BYTE   Fn1  v080
 BYTE   W03
 BYTE   W01
 BYTE   W01
 BYTE   W01
 BYTE   Dn1  v044
 BYTE   W06
 BYTE   N05
 BYTE   W06
 BYTE   En1  v080
 BYTE   W03
 BYTE   W01
 BYTE   W01
 BYTE   W01
 BYTE   Dn1  v044
 BYTE   W06
 BYTE   PEND 
//  #04 //045   ----------------------------------------
 BYTE   N11  Dn1  v080
 BYTE   W03
 BYTE   W01
 BYTE   W01
 BYTE   W07
 BYTE   N05  Dn1  v044
 BYTE   W06
 BYTE   N05
 BYTE   W06
 BYTE   Fn1  v080
 BYTE   W03
 BYTE   W01
 BYTE   W01
 BYTE   W01
 BYTE   Dn1  v044
 BYTE   W06
 BYTE   N05
 BYTE   W06
 BYTE   N05
 BYTE   W06
 BYTE   Gn1  v080
 BYTE   W03
 BYTE   W01
 BYTE   W01
 BYTE   W01
 BYTE   Dn1  v044
 BYTE   W06
 BYTE   N05
 BYTE   W06
 BYTE   Gs1  v080
 BYTE   W03
 BYTE   W01
 BYTE   W01
 BYTE   W01
 BYTE   Dn1  v044
 BYTE   W06
 BYTE   N05
 BYTE   W06
 BYTE   An1
 BYTE   W06
 BYTE   Dn1
 BYTE   W06
//  #04 //046   ----------------------------------------
Label_01005B48:
 BYTE   N11  Dn1  v080
 BYTE   W03
 BYTE   W01
 BYTE   W01
 BYTE   W07
 BYTE   N05  Dn1  v044
 BYTE   W06
 BYTE   N05
 BYTE   W06
 BYTE   Fn1  v080
 BYTE   W03
 BYTE   W01
 BYTE   W01
 BYTE   W01
 BYTE   Dn1  v044
 BYTE   W06
 BYTE   N05
 BYTE   W06
 BYTE   N05
 BYTE   W06
 BYTE   Gn1  v080
 BYTE   W03
 BYTE   W01
 BYTE   W01
 BYTE   W01
 BYTE   Dn1  v044
 BYTE   W06
 BYTE   N05
 BYTE   W06
 BYTE   Fn1  v080
 BYTE   W03
 BYTE   W01
 BYTE   W01
 BYTE   W01
 BYTE   Dn1  v044
 BYTE   W06
 BYTE   N05
 BYTE   W06
 BYTE   N23  En1  v080
 BYTE   W03
 BYTE   W01
 BYTE   W01
 BYTE   W07
 BYTE   PEND 
//  #04 //047   ----------------------------------------
 BYTE   W12
 BYTE   N11  En1  v044
 BYTE   W12
 BYTE   N05
 BYTE   W06
 BYTE   N17
 BYTE   W18
 BYTE   N11  Fn0
 BYTE   W12
 BYTE   Dn1
 BYTE   W12
 BYTE   N05
 BYTE   W06
 BYTE   N17
 BYTE   W18
//  #04 //048   ----------------------------------------
 BYTE   PATT
  POIN2 Label_01005ADA
//  #04 //049   ----------------------------------------
 BYTE   N11  Dn1  v080
 BYTE   W03
 BYTE   W01
 BYTE   W01
 BYTE   W07
 BYTE   N05  Dn1  v044
 BYTE   W06
 BYTE   N05
 BYTE   W06
 BYTE   Fn1  v080
 BYTE   W03
 BYTE   W01
 BYTE   W01
 BYTE   W01
 BYTE   Dn1  v044
 BYTE   W06
 BYTE   N05
 BYTE   W06
 BYTE   N05
 BYTE   W06
 BYTE   Gn1  v080
 BYTE   W03
 BYTE   W01
 BYTE   W01
 BYTE   W01
 BYTE   Dn1  v044
 BYTE   W06
 BYTE   N05
 BYTE   W06
 BYTE   Gs1  v080
 BYTE   W03
 BYTE   W01
 BYTE   W01
 BYTE   W01
 BYTE   Dn1  v044
 BYTE   W06
 BYTE   N05
 BYTE   W06
 BYTE   An1  v080
 BYTE   W03
 BYTE   W01
 BYTE   W01
 BYTE   W01
 BYTE   Dn1  v044
 BYTE   W06
//  #04 //050   ----------------------------------------
 BYTE   PATT
  POIN2 Label_01005B48
//  #04 //051   ----------------------------------------
 BYTE   W12
 BYTE   N11  En1  v044
 BYTE   W12
 BYTE   N11
 BYTE   W12
 BYTE   N23  Ds1
 BYTE   W24
 BYTE   N11
 BYTE   W12
 BYTE   N11
 BYTE   W12
 BYTE   N11
 BYTE   W12
//  #04 //052   ----------------------------------------
 BYTE   TIE  Dn1
 BYTE   W96
//  #04 //053   ----------------------------------------
 BYTE   W92
 BYTE   W03
 BYTE   EOT
 BYTE   W01
//  #04 //054   ----------------------------------------
 BYTE   TIE
 BYTE   W96
//  #04 //055   ----------------------------------------
 BYTE   W92
 BYTE   W03
 BYTE   EOT
 BYTE   W01
//  #04 //056   ----------------------------------------
 BYTE   PATT
  POIN2 Label_01005966
//  #04 //057   ----------------------------------------
 BYTE   PATT
  POIN2 Label_01005971
//  #04 //058   ----------------------------------------
 BYTE   PATT
  POIN2 Label_0100597B
//  #04 //059   ----------------------------------------
 BYTE   PATT
  POIN2 Label_0100598E
//  #04 //060   ----------------------------------------
 BYTE   PATT
  POIN2 Label_0100599A
//  #04 //061   ----------------------------------------
 BYTE   PATT
  POIN2 Label_0100599A
//  #04 //062   ----------------------------------------
 BYTE   PATT
  POIN2 Label_010059BA
//  #04 //063   ----------------------------------------
 BYTE   PATT
  POIN2 Label_010059D5
//  #04 //064   ----------------------------------------
 BYTE   PATT
  POIN2 Label_010059F0
//  #04 //065   ----------------------------------------
 BYTE   PATT
  POIN2 Label_01005A04
//  #04 //066   ----------------------------------------
 BYTE   PATT
  POIN2 Label_010059D5
//  #04 //067   ----------------------------------------
 BYTE   PATT
  POIN2 Label_010059D5
//  #04 //068   ----------------------------------------
 BYTE   PATT
  POIN2 Label_0100599A
//  #04 //069   ----------------------------------------
 BYTE   PATT
  POIN2 Label_0100599A
//  #04 //070   ----------------------------------------
 BYTE   PATT
  POIN2 Label_010059BA
//  #04 //071   ----------------------------------------
 BYTE   PATT
  POIN2 Label_010059D5
//  #04 //072   ----------------------------------------
 BYTE   PATT
  POIN2 Label_010059F0
//  #04 //073   ----------------------------------------
 BYTE   PATT
  POIN2 Label_01005A04
//  #04 //074   ----------------------------------------
 BYTE   PATT
  POIN2 Label_01005A40
//  #04 //075   ----------------------------------------
 BYTE   PATT
  POIN2 Label_01005A55
//  #04 //076   ----------------------------------------
 BYTE   PATT
  POIN2 Label_01005A40
//  #04 //077   ----------------------------------------
 BYTE   PATT
  POIN2 Label_01005A71
//  #04 //078   ----------------------------------------
 BYTE   N92  Dn1  v044
 BYTE   W96
//  #04 //079   ----------------------------------------
 BYTE   N92
 BYTE   W96
//  #04 //080   ----------------------------------------
 BYTE   N92
 BYTE   W96
//  #04 //081   ----------------------------------------
Label_01005C68:
 BYTE   N32  Dn2  v044
 BYTE   W36
 BYTE   N11  Cn2
 BYTE   W12
 BYTE   Gn1
 BYTE   W12
 BYTE   An1
 BYTE   W12
 BYTE   Fn1
 BYTE   W12
 BYTE   Gn1
 BYTE   W12
 BYTE   PEND 
//  #04 //082   ----------------------------------------
 BYTE   N92  Dn1
 BYTE   W96
//  #04 //083   ----------------------------------------
 BYTE   N92
 BYTE   W96
//  #04 //084   ----------------------------------------
 BYTE   N92
 BYTE   W96
//  #04 //085   ----------------------------------------
 BYTE   PATT
  POIN2 Label_01005C68
//  #04 //086   ----------------------------------------
 BYTE   W96
//  #04 //087   ----------------------------------------
 BYTE   W96
//  #04 //088   ----------------------------------------
 BYTE   W96
//  #04 //089   ----------------------------------------
 BYTE   W96
//  #04 //090   ----------------------------------------
 BYTE   GoTo
  POIN2 Label_0100584D
//  #04 //091   ----------------------------------------
 BYTE   PATT
  POIN2 Label_0100584D
//  #04 //092   ----------------------------------------
 BYTE   PATT
  POIN2 Label_01005887
 BYTE   FINE

//**************** Track 5 (Midi-Chn.4) ****************//

MechanicalRhythm_005:
//  #05 //000   ----------------------------------------
 BYTE   KEYSH   MechanicalRhythm_key+0
 BYTE   VOICE   124
 BYTE   MODT 0
 BYTE   LFOS 44
 BYTE   VOL   39*MechanicalRhythm_mvl/mxv
 BYTE   PAN   c_v+0
 BYTE   W96
//  #05 //001   ----------------------------------------
 BYTE   W96
//  #05 //002   ----------------------------------------
Label_01005CB6:
 BYTE   N23  Cn1  v080
 BYTE   N05  Fn1
 BYTE   W06
 BYTE   N05
 BYTE   W06
 BYTE   Dn1
 BYTE   N05  As1
 BYTE   W06
 BYTE   Fn1
 BYTE   W06
 BYTE   N23  Cn1
 BYTE   N05  Fn1
 BYTE   W06
 BYTE   N05
 BYTE   W06
 BYTE   Dn1
 BYTE   N05  As1
 BYTE   W06
 BYTE   Fn1
 BYTE   W06
 BYTE   N23  Cn1
 BYTE   N05  Fn1
 BYTE   W06
 BYTE   N05
 BYTE   W06
 BYTE   Dn1
 BYTE   N05  As1
 BYTE   W06
 BYTE   Fn1
 BYTE   W06
 BYTE   N23  Cn1
 BYTE   N05  Fn1
 BYTE   W06
 BYTE   N05
 BYTE   W06
 BYTE   Dn1
 BYTE   N05  As1
 BYTE   W06
 BYTE   Fn1
 BYTE   W06
 BYTE   PEND 
//  #05 //003   ----------------------------------------
 BYTE   PATT
  POIN2 Label_01005CB6
//  #05 //004   ----------------------------------------
 BYTE   PATT
  POIN2 Label_01005CB6
//  #05 //005   ----------------------------------------
Label_01005CF6:
 BYTE   N23  Cn1  v080
 BYTE   N05  Fn1
 BYTE   W06
 BYTE   N05
 BYTE   W06
 BYTE   Dn1
 BYTE   N05  As1
 BYTE   W06
 BYTE   Fn1
 BYTE   W06
 BYTE   N23  Cn1
 BYTE   N05  Fn1
 BYTE   W06
 BYTE   N05
 BYTE   W06
 BYTE   Dn1
 BYTE   N05  As1
 BYTE   W06
 BYTE   Fn1
 BYTE   W06
 BYTE   N23  Cn1
 BYTE   N05  Bn1
 BYTE   W06
 BYTE   N05
 BYTE   W06
 BYTE   As1
 BYTE   N05  Bn1
 BYTE   W06
 BYTE   N05
 BYTE   W06
 BYTE   N23  Cn1
 BYTE   N05  An1
 BYTE   W06
 BYTE   N05
 BYTE   W06
 BYTE   N05
 BYTE   N05  As1
 BYTE   W06
 BYTE   An1
 BYTE   W06
 BYTE   PEND 
//  #05 //006   ----------------------------------------
Label_01005D2C:
 BYTE   N23  Cn1  v080
 BYTE   N05  Fn1
 BYTE   N05  Cs2
 BYTE   W06
 BYTE   Fn1
 BYTE   W06
 BYTE   Dn1
 BYTE   N05  As1
 BYTE   W06
 BYTE   Fn1
 BYTE   W06
 BYTE   N23  Cn1
 BYTE   N05  Fn1
 BYTE   W06
 BYTE   N05
 BYTE   W06
 BYTE   Dn1
 BYTE   N05  As1
 BYTE   W06
 BYTE   Fn1
 BYTE   W06
 BYTE   N23  Cn1
 BYTE   N05  Fn1
 BYTE   W06
 BYTE   N05
 BYTE   W06
 BYTE   Dn1
 BYTE   N05  As1
 BYTE   W06
 BYTE   Fn1
 BYTE   W06
 BYTE   N23  Cn1
 BYTE   N05  Fn1
 BYTE   W06
 BYTE   N05
 BYTE   W06
 BYTE   Dn1
 BYTE   N05  As1
 BYTE   W06
 BYTE   Fn1
 BYTE   W06
 BYTE   PEND 
//  #05 //007   ----------------------------------------
 BYTE   PATT
  POIN2 Label_01005CB6
//  #05 //008   ----------------------------------------
 BYTE   PATT
  POIN2 Label_01005CB6
//  #05 //009   ----------------------------------------
 BYTE   PATT
  POIN2 Label_01005CF6
//  #05 //010   ----------------------------------------
 BYTE   PATT
  POIN2 Label_01005D2C
//  #05 //011   ----------------------------------------
 BYTE   PATT
  POIN2 Label_01005CB6
//  #05 //012   ----------------------------------------
 BYTE   PATT
  POIN2 Label_01005CB6
//  #05 //013   ----------------------------------------
 BYTE   PATT
  POIN2 Label_01005CF6
//  #05 //014   ----------------------------------------
Label_01005D87:
 BYTE   N23  Cn1  v060
 BYTE   N11  Cs2
 BYTE   W12
 BYTE   Fn1
 BYTE   W12
 BYTE   N23  Cn1
 BYTE   N11  Dn1
 BYTE   N11  As1
 BYTE   W12
 BYTE   Fn1
 BYTE   W12
 BYTE   N23  Cn1
 BYTE   N11  As1
 BYTE   W12
 BYTE   Fn1
 BYTE   W12
 BYTE   N23  Cn1
 BYTE   N11  Dn1
 BYTE   N11  As1
 BYTE   W12
 BYTE   Fn1
 BYTE   W12
 BYTE   PEND 
//  #05 //015   ----------------------------------------
Label_01005DA9:
 BYTE   N23  Cn1  v060
 BYTE   N11  As1
 BYTE   W12
 BYTE   Fn1
 BYTE   W12
 BYTE   N23  Cn1
 BYTE   N11  Dn1
 BYTE   N11  As1
 BYTE   W12
 BYTE   Fn1
 BYTE   W12
 BYTE   N23  Cn1
 BYTE   N11  As1
 BYTE   W12
 BYTE   Fn1
 BYTE   W12
 BYTE   N23  Cn1
 BYTE   N11  Dn1
 BYTE   N11  As1
 BYTE   W12
 BYTE   Fn1
 BYTE   W12
 BYTE   PEND 
//  #05 //016   ----------------------------------------
Label_01005DCB:
 BYTE   N23  Cn1  v060
 BYTE   N11  As1
 BYTE   W12
 BYTE   Fn1
 BYTE   W12
 BYTE   N23  Cn1
 BYTE   N11  Dn1
 BYTE   N11  As1
 BYTE   W12
 BYTE   Fn1
 BYTE   W12
 BYTE   N23  Cn1
 BYTE   N11  As1
 BYTE   W12
 BYTE   Fn1
 BYTE   W12
 BYTE   Cn1
 BYTE   N11  Dn1
 BYTE   N11  As1
 BYTE   W12
 BYTE   N23  Cn1
 BYTE   N11  Cs2
 BYTE   W12
 BYTE   PEND 
//  #05 //017   ----------------------------------------
Label_01005DEF:
 BYTE   W12
 BYTE   N11  Fn1  v060
 BYTE   W12
 BYTE   Dn1
 BYTE   N11  Cs2
 BYTE   W12
 BYTE   N23  Cn1
 BYTE   N23  Cs2
 BYTE   W24
 BYTE   Fn1
 BYTE   N23  Cs2
 BYTE   W24
 BYTE   N11  Dn1
 BYTE   N11  Cs2
 BYTE   W12
 BYTE   PEND 
//  #05 //018   ----------------------------------------
 BYTE   PATT
  POIN2 Label_01005DA9
//  #05 //019   ----------------------------------------
 BYTE   PATT
  POIN2 Label_01005DA9
//  #05 //020   ----------------------------------------
Label_01005E11:
 BYTE   N05  Dn1  v060
 BYTE   N05  Fn1
 BYTE   W06
 BYTE   Dn1
 BYTE   N05  Fn1
 BYTE   W06
 BYTE   Dn1
 BYTE   N05  Fn1
 BYTE   W06
 BYTE   Dn1
 BYTE   N05  Fn1
 BYTE   W18
 BYTE   Dn1
 BYTE   N05  Fn1
 BYTE   W06
 BYTE   Dn1
 BYTE   N05  Fn1
 BYTE   W06
 BYTE   Dn1
 BYTE   N05  Fn1
 BYTE   W06
 BYTE   Dn1
 BYTE   N05  Fn1
 BYTE   W18
 BYTE   N11  As1
 BYTE   N11  Bn1
 BYTE   W12
 BYTE   An1
 BYTE   N11  As1
 BYTE   W12
 BYTE   PEND 
//  #05 //021   ----------------------------------------
Label_01005E3D:
 BYTE   N23  Cn1  v060
 BYTE   N11  Fn1
 BYTE   W12
 BYTE   N05  Dn1
 BYTE   N05  Fn1
 BYTE   W06
 BYTE   Dn1
 BYTE   N05  Fn1
 BYTE   W06
 BYTE   Dn1
 BYTE   N05  Fn1
 BYTE   W06
 BYTE   Dn1
 BYTE   N05  Fn1
 BYTE   W18
 BYTE   Dn1  v080
 BYTE   W06
 BYTE   N05
 BYTE   W06
 BYTE   Fn1
 BYTE   W06
 BYTE   N05
 BYTE   W06
 BYTE   Dn1
 BYTE   W06
 BYTE   Fn1
 BYTE   W06
 BYTE   Dn1
 BYTE   W06
 BYTE   N05
 BYTE   W06
 BYTE   PEND 
//  #05 //022   ----------------------------------------
Label_01005E66:
 BYTE   N23  Cn1  v080
 BYTE   N11  Cs2
 BYTE   W12
 BYTE   Dn1
 BYTE   N11  As1
 BYTE   W12
 BYTE   N23  Cn1
 BYTE   W12
 BYTE   N11  Dn1
 BYTE   N11  As1
 BYTE   W12
 BYTE   N23  Cn1
 BYTE   W12
 BYTE   N11  Dn1
 BYTE   N11  As1
 BYTE   W12
 BYTE   N23  Cn1
 BYTE   W12
 BYTE   N11  Dn1
 BYTE   N11  As1
 BYTE   W12
 BYTE   PEND 
//  #05 //023   ----------------------------------------
Label_01005E89:
 BYTE   N23  Cn1  v080
 BYTE   W12
 BYTE   N11  Dn1
 BYTE   N11  As1
 BYTE   W12
 BYTE   N23  Cn1
 BYTE   W12
 BYTE   N11  Dn1
 BYTE   N11  As1
 BYTE   W12
 BYTE   N23  Cn1
 BYTE   W12
 BYTE   N11  Dn1
 BYTE   N11  As1
 BYTE   W12
 BYTE   N23  Cn1
 BYTE   W12
 BYTE   N11  Dn1
 BYTE   N11  As1
 BYTE   W12
 BYTE   PEND 
//  #05 //024   ----------------------------------------
 BYTE   PATT
  POIN2 Label_01005E89
//  #05 //025   ----------------------------------------
 BYTE   PATT
  POIN2 Label_01005E89
//  #05 //026   ----------------------------------------
Label_01005EB5:
 BYTE   N23  Cn1  v080
 BYTE   N11  Cs2
 BYTE   W12
 BYTE   Dn1
 BYTE   N11  As1
 BYTE   W12
 BYTE   N23  Cn1
 BYTE   W12
 BYTE   N11  Dn1
 BYTE   N11  As1
 BYTE   W12
 BYTE   N23  Cn1
 BYTE   N11  Cs2
 BYTE   W12
 BYTE   Dn1
 BYTE   N11  As1
 BYTE   W12
 BYTE   N23  Cn1
 BYTE   W12
 BYTE   N11  Dn1
 BYTE   N11  As1
 BYTE   W12
 BYTE   PEND 
//  #05 //027   ----------------------------------------
 BYTE   PATT
  POIN2 Label_01005EB5
//  #05 //028   ----------------------------------------
 BYTE   PATT
  POIN2 Label_01005E66
//  #05 //029   ----------------------------------------
 BYTE   PATT
  POIN2 Label_01005E89
//  #05 //030   ----------------------------------------
 BYTE   PATT
  POIN2 Label_01005E66
//  #05 //031   ----------------------------------------
 BYTE   PATT
  POIN2 Label_01005E89
//  #05 //032   ----------------------------------------
 BYTE   PATT
  POIN2 Label_01005E89
//  #05 //033   ----------------------------------------
 BYTE   PATT
  POIN2 Label_01005E89
//  #05 //034   ----------------------------------------
 BYTE   PATT
  POIN2 Label_01005E89
//  #05 //035   ----------------------------------------
Label_01005F01:
 BYTE   N23  Cn1  v080
 BYTE   W12
 BYTE   N11  Dn1
 BYTE   N11  As1
 BYTE   W12
 BYTE   N23  Cn1
 BYTE   W12
 BYTE   N11  Dn1
 BYTE   N11  As1
 BYTE   W12
 BYTE   N23  Cn1
 BYTE   N05  Bn1
 BYTE   W06
 BYTE   N05
 BYTE   W06
 BYTE   As1
 BYTE   N05  Bn1
 BYTE   W06
 BYTE   N05
 BYTE   W06
 BYTE   N23  Cn1
 BYTE   N05  An1
 BYTE   W06
 BYTE   N05
 BYTE   W06
 BYTE   N05
 BYTE   N05  As1
 BYTE   W06
 BYTE   An1
 BYTE   W06
 BYTE   PEND 
//  #05 //036   ----------------------------------------
Label_01005F2D:
 BYTE   N23  Cn1  v080
 BYTE   W12
 BYTE   N11  Dn1
 BYTE   N11  As1
 BYTE   W24
 BYTE   N05  Dn1
 BYTE   N05  As1
 BYTE   W06
 BYTE   Dn1
 BYTE   W06
 BYTE   N23  Cn1
 BYTE   W12
 BYTE   N11  Dn1
 BYTE   N11  As1
 BYTE   W24
 BYTE   N05  Dn1
 BYTE   N05  As1
 BYTE   W06
 BYTE   Dn1
 BYTE   W06
 BYTE   PEND 
//  #05 //037   ----------------------------------------
Label_01005F4D:
 BYTE   N23  Cn1  v080
 BYTE   W12
 BYTE   N11  Dn1
 BYTE   N11  As1
 BYTE   W24
 BYTE   N05  Dn1
 BYTE   N05  As1
 BYTE   W06
 BYTE   Dn1
 BYTE   W06
 BYTE   N23  Cn1
 BYTE   W12
 BYTE   N11  Dn1
 BYTE   N11  As1
 BYTE   W12
 BYTE   Cn1
 BYTE   W12
 BYTE   N05  Dn1
 BYTE   N05  As1
 BYTE   W06
 BYTE   Dn1
 BYTE   W06
 BYTE   PEND 
//  #05 //038   ----------------------------------------
 BYTE   PATT
  POIN2 Label_01005F2D
//  #05 //039   ----------------------------------------
 BYTE   PATT
  POIN2 Label_01005F4D
//  #05 //040   ----------------------------------------
Label_01005F79:
 BYTE   N23  Cn1  v080
 BYTE   N11  Dn1
 BYTE   N11  As1
 BYTE   W12
 BYTE   N05  Fn1
 BYTE   W06
 BYTE   N05
 BYTE   W06
 BYTE   N23  Cn1
 BYTE   N11  Dn1
 BYTE   N11  As1
 BYTE   W12
 BYTE   N05  Fn1
 BYTE   W06
 BYTE   N05
 BYTE   W06
 BYTE   N23  Cn1
 BYTE   N11  Dn1
 BYTE   N11  As1
 BYTE   W12
 BYTE   N05  Fn1
 BYTE   W06
 BYTE   N05
 BYTE   W06
 BYTE   N23  Cn1
 BYTE   N11  Dn1
 BYTE   N11  As1
 BYTE   W12
 BYTE   N05  Fn1
 BYTE   W06
 BYTE   N05
 BYTE   W06
 BYTE   PEND 
//  #05 //041   ----------------------------------------
 BYTE   PATT
  POIN2 Label_01005F79
//  #05 //042   ----------------------------------------
 BYTE   PATT
  POIN2 Label_01005F79
//  #05 //043   ----------------------------------------
 BYTE   PATT
  POIN2 Label_01005F79
//  #05 //044   ----------------------------------------
 BYTE   PATT
  POIN2 Label_01005D2C
//  #05 //045   ----------------------------------------
 BYTE   PATT
  POIN2 Label_01005CB6
//  #05 //046   ----------------------------------------
 BYTE   PATT
  POIN2 Label_01005CB6
//  #05 //047   ----------------------------------------
 BYTE   PATT
  POIN2 Label_01005CF6
//  #05 //048   ----------------------------------------
 BYTE   N23  Cn1  v080
 BYTE   N23  Fn1
 BYTE   N23  Cs2
 BYTE   W84
 BYTE   N05  Dn1
 BYTE   N05  As1
 BYTE   W06
 BYTE   Fn1
 BYTE   W06
//  #05 //049   ----------------------------------------
 BYTE   PATT
  POIN2 Label_01005CB6
//  #05 //050   ----------------------------------------
 BYTE   PATT
  POIN2 Label_01005CB6
//  #05 //051   ----------------------------------------
 BYTE   PATT
  POIN2 Label_01005CF6
//  #05 //052   ----------------------------------------
 BYTE   PATT
  POIN2 Label_01005D87
//  #05 //053   ----------------------------------------
 BYTE   PATT
  POIN2 Label_01005DA9
//  #05 //054   ----------------------------------------
 BYTE   PATT
  POIN2 Label_01005DCB
//  #05 //055   ----------------------------------------
 BYTE   PATT
  POIN2 Label_01005DEF
//  #05 //056   ----------------------------------------
 BYTE   PATT
  POIN2 Label_01005DA9
//  #05 //057   ----------------------------------------
 BYTE   PATT
  POIN2 Label_01005DA9
//  #05 //058   ----------------------------------------
 BYTE   PATT
  POIN2 Label_01005E11
//  #05 //059   ----------------------------------------
 BYTE   PATT
  POIN2 Label_01005E3D
//  #05 //060   ----------------------------------------
 BYTE   PATT
  POIN2 Label_01005E66
//  #05 //061   ----------------------------------------
 BYTE   PATT
  POIN2 Label_01005E89
//  #05 //062   ----------------------------------------
 BYTE   PATT
  POIN2 Label_01005E89
//  #05 //063   ----------------------------------------
 BYTE   PATT
  POIN2 Label_01005E89
//  #05 //064   ----------------------------------------
 BYTE   PATT
  POIN2 Label_01005EB5
//  #05 //065   ----------------------------------------
 BYTE   PATT
  POIN2 Label_01005EB5
//  #05 //066   ----------------------------------------
 BYTE   PATT
  POIN2 Label_01005E66
//  #05 //067   ----------------------------------------
 BYTE   PATT
  POIN2 Label_01005E89
//  #05 //068   ----------------------------------------
 BYTE   PATT
  POIN2 Label_01005E66
//  #05 //069   ----------------------------------------
 BYTE   PATT
  POIN2 Label_01005E89
//  #05 //070   ----------------------------------------
 BYTE   PATT
  POIN2 Label_01005E89
//  #05 //071   ----------------------------------------
 BYTE   PATT
  POIN2 Label_01005E89
//  #05 //072   ----------------------------------------
 BYTE   PATT
  POIN2 Label_01005E89
//  #05 //073   ----------------------------------------
 BYTE   PATT
  POIN2 Label_01005F01
//  #05 //074   ----------------------------------------
 BYTE   PATT
  POIN2 Label_01005F2D
//  #05 //075   ----------------------------------------
 BYTE   PATT
  POIN2 Label_01005F4D
//  #05 //076   ----------------------------------------
 BYTE   PATT
  POIN2 Label_01005F2D
//  #05 //077   ----------------------------------------
 BYTE   PATT
  POIN2 Label_01005F4D
//  #05 //078   ----------------------------------------
Label_0100606E:
 BYTE   N17  Cn1  v080
 BYTE   N17  As1
 BYTE   W18
 BYTE   Cn1
 BYTE   N17  Ds2
 BYTE   W18
 BYTE   N11  Cn1
 BYTE   N11  Ds2
 BYTE   W12
 BYTE   N23  Dn1
 BYTE   N23  Fs1
 BYTE   W36
 BYTE   N11  Cn1
 BYTE   W12
 BYTE   PEND 
//  #05 //079   ----------------------------------------
Label_01006086:
 BYTE   N17  Cn1  v080
 BYTE   N17  As1
 BYTE   W18
 BYTE   Cn1
 BYTE   N17  Ds2
 BYTE   W18
 BYTE   N11  Cn1
 BYTE   N11  Ds2
 BYTE   W12
 BYTE   N05  Dn1
 BYTE   W06
 BYTE   N17  Fn1
 BYTE   W18
 BYTE   N23  Dn1
 BYTE   W24
 BYTE   PEND 
//  #05 //080   ----------------------------------------
 BYTE   PATT
  POIN2 Label_0100606E
//  #05 //081   ----------------------------------------
 BYTE   PATT
  POIN2 Label_01006086
//  #05 //082   ----------------------------------------
 BYTE   PATT
  POIN2 Label_0100606E
//  #05 //083   ----------------------------------------
 BYTE   PATT
  POIN2 Label_01006086
//  #05 //084   ----------------------------------------
 BYTE   PATT
  POIN2 Label_0100606E
//  #05 //085   ----------------------------------------
 BYTE   PATT
  POIN2 Label_01006086
//  #05 //086   ----------------------------------------
 BYTE   W96
//  #05 //087   ----------------------------------------
 BYTE   W78
 BYTE   N17  Cn1  v080
 BYTE   N17  Dn1
 BYTE   N17  Cs2
 BYTE   W18
//  #05 //088   ----------------------------------------
 BYTE   N11  Cn1
 BYTE   N11  Dn1
 BYTE   N11  Cs2
 BYTE   W96
//  #05 //089   ----------------------------------------
 BYTE   Cn1
 BYTE   N05  Dn1
 BYTE   W06
 BYTE   N05
 BYTE   W06
 BYTE   N11  Cn1
 BYTE   N11  Dn1
 BYTE   W12
 BYTE   Cn1
 BYTE   W12
 BYTE   N11
 BYTE   W12
 BYTE   N11
 BYTE   N05  Dn1
 BYTE   W06
 BYTE   N05
 BYTE   W06
 BYTE   N11  Cn1
 BYTE   N11  Dn1
 BYTE   W12
 BYTE   Cn1
 BYTE   W12
 BYTE   N11
 BYTE   W12
//  #05 //090   ----------------------------------------
 BYTE   GoTo
  POIN2 Label_01005D2C
//  #05 //091   ----------------------------------------
 BYTE   PATT
  POIN2 Label_01005D2C
//  #05 //092   ----------------------------------------
 BYTE   PATT
  POIN2 Label_01005CB6
 BYTE   FINE

//******************************************************//
	ALIGN 4

MechanicalRhythm:
	BYTE	5	// NumTrks
	BYTE	0	// NumBlks
	BYTE	MechanicalRhythm_pri	// Priority
	BYTE	MechanicalRhythm_rev	// Reverb.
    
	POIN2	MechanicalRhythm_grp
    
	POIN2	MechanicalRhythm_001
	POIN2	MechanicalRhythm_002
	POIN2	MechanicalRhythm_003
	POIN2	MechanicalRhythm_004
	POIN2	MechanicalRhythm_005

	
