//Event file generated from Sappy .s format.
	#include "MPlayDef.event"

	#define	ModernDayOuroboros_grp  voicegroup000
	#define	ModernDayOuroboros_pri  0
	#define	ModernDayOuroboros_rev  0
	#define	ModernDayOuroboros_mvl  127
	#define	ModernDayOuroboros_key  0
	#define	ModernDayOuroboros_tbs  1
	#define	ModernDayOuroboros_exg  0
	#define	ModernDayOuroboros_cmp  1

	// .rodata
	//	ModernDayOuroboros
	ALIGN 4


//**************** Track 1 (Midi-Chn.0) ****************//

ModernDayOuroboros_001:
//  #01 //000   ----------------------------------------
 BYTE   KEYSH   ModernDayOuroboros_key+0
Label_01EF858E:
 BYTE   TEMPO   134*ModernDayOuroboros_tbs/2
 BYTE   VOICE   36
 BYTE   MODT 0
 BYTE   LFOS 44
 BYTE   VOL   50*ModernDayOuroboros_mvl/mxv
 BYTE   W96
//  #01 //001   ----------------------------------------
 BYTE   W96
//  #01 //002   ----------------------------------------
Label_01EF859A:
 BYTE   N36  Gs2  v100
 BYTE   W36
 BYTE   N36
 BYTE   W36
 BYTE   N24
 BYTE   W24
 BYTE   PEND 
//  #01 //003   ----------------------------------------
Label_01EF85A3:
 BYTE   N06  Gs2  v100
 BYTE   W06
 BYTE   N06
 BYTE   W06
 BYTE   N06
 BYTE   W06
 BYTE   N06
 BYTE   W06
 BYTE   N06
 BYTE   W06
 BYTE   N06
 BYTE   W06
 BYTE   N06
 BYTE   W06
 BYTE   N06
 BYTE   W06
 BYTE   N06
 BYTE   W06
 BYTE   N12
 BYTE   W18
 BYTE   N06
 BYTE   W06
 BYTE   N06
 BYTE   W18
 BYTE   PEND 
//  #01 //004   ----------------------------------------
Label_01EF85BE:
 BYTE   N12  Gs2  v100
 BYTE   W12
 BYTE   N06
 BYTE   W06
 BYTE   N12
 BYTE   W12
 BYTE   N06
 BYTE   W06
 BYTE   N12
 BYTE   W12
 BYTE   N06
 BYTE   W06
 BYTE   N12
 BYTE   W12
 BYTE   N06
 BYTE   W06
 BYTE   N12
 BYTE   W12
 BYTE   N12
 BYTE   W12
 BYTE   PEND 
//  #01 //005   ----------------------------------------
 BYTE   PATT
  POIN2 Label_01EF85BE
//  #01 //006   ----------------------------------------
Label_01EF85DA:
 BYTE   N12  Bn2  v100
 BYTE   W12
 BYTE   N06
 BYTE   W06
 BYTE   N12
 BYTE   W12
 BYTE   N06
 BYTE   W06
 BYTE   N12
 BYTE   W12
 BYTE   N06
 BYTE   W06
 BYTE   N12
 BYTE   W12
 BYTE   N06
 BYTE   W06
 BYTE   N12
 BYTE   W12
 BYTE   N12
 BYTE   W12
 BYTE   PEND 
//  #01 //007   ----------------------------------------
Label_01EF85F1:
 BYTE   N12  Ds3  v100
 BYTE   W12
 BYTE   N06
 BYTE   W06
 BYTE   N12
 BYTE   W12
 BYTE   N06
 BYTE   W06
 BYTE   N12
 BYTE   W12
 BYTE   N06
 BYTE   W06
 BYTE   N12
 BYTE   W12
 BYTE   N06
 BYTE   W06
 BYTE   N12
 BYTE   W12
 BYTE   N12
 BYTE   W12
 BYTE   PEND 
//  #01 //008   ----------------------------------------
 BYTE   PATT
  POIN2 Label_01EF85BE
//  #01 //009   ----------------------------------------
 BYTE   PATT
  POIN2 Label_01EF85BE
//  #01 //010   ----------------------------------------
 BYTE   PATT
  POIN2 Label_01EF85DA
//  #01 //011   ----------------------------------------
 BYTE   PATT
  POIN2 Label_01EF85F1
//  #01 //012   ----------------------------------------
 BYTE   PATT
  POIN2 Label_01EF85BE
//  #01 //013   ----------------------------------------
 BYTE   PATT
  POIN2 Label_01EF85BE
//  #01 //014   ----------------------------------------
 BYTE   PATT
  POIN2 Label_01EF85DA
//  #01 //015   ----------------------------------------
 BYTE   PATT
  POIN2 Label_01EF85F1
//  #01 //016   ----------------------------------------
 BYTE   PATT
  POIN2 Label_01EF85BE
//  #01 //017   ----------------------------------------
 BYTE   PATT
  POIN2 Label_01EF85BE
//  #01 //018   ----------------------------------------
 BYTE   PATT
  POIN2 Label_01EF85DA
//  #01 //019   ----------------------------------------
 BYTE   PATT
  POIN2 Label_01EF85F1
//  #01 //020   ----------------------------------------
Label_01EF8644:
 BYTE   N12  Gs2  v100
 BYTE   W12
 BYTE   N12
 BYTE   W12
 BYTE   N12
 BYTE   W12
 BYTE   N12
 BYTE   W12
 BYTE   N24
 BYTE   W24
 BYTE   N24
 BYTE   W24
 BYTE   PEND 
//  #01 //021   ----------------------------------------
 BYTE   PATT
  POIN2 Label_01EF8644
//  #01 //022   ----------------------------------------
Label_01EF8658:
 BYTE   N12  Bn2  v100
 BYTE   W12
 BYTE   N12
 BYTE   W12
 BYTE   N12
 BYTE   W12
 BYTE   N12
 BYTE   W12
 BYTE   N24
 BYTE   W24
 BYTE   N24
 BYTE   W24
 BYTE   PEND 
//  #01 //023   ----------------------------------------
Label_01EF8667:
 BYTE   N12  Ds3  v100
 BYTE   W12
 BYTE   N12
 BYTE   W12
 BYTE   N12
 BYTE   W12
 BYTE   N12
 BYTE   W12
 BYTE   N24
 BYTE   W24
 BYTE   N24
 BYTE   W24
 BYTE   PEND 
//  #01 //024   ----------------------------------------
 BYTE   PATT
  POIN2 Label_01EF8644
//  #01 //025   ----------------------------------------
 BYTE   PATT
  POIN2 Label_01EF8644
//  #01 //026   ----------------------------------------
 BYTE   PATT
  POIN2 Label_01EF8658
//  #01 //027   ----------------------------------------
 BYTE   PATT
  POIN2 Label_01EF8667
//  #01 //028   ----------------------------------------
 BYTE   PATT
  POIN2 Label_01EF85BE
//  #01 //029   ----------------------------------------
 BYTE   PATT
  POIN2 Label_01EF85F1
//  #01 //030   ----------------------------------------
Label_01EF8694:
 BYTE   N12  Fs2  v100
 BYTE   W12
 BYTE   N06
 BYTE   W06
 BYTE   N12
 BYTE   W12
 BYTE   N06
 BYTE   W06
 BYTE   N12
 BYTE   W12
 BYTE   N06
 BYTE   W06
 BYTE   N12
 BYTE   W12
 BYTE   N06
 BYTE   W06
 BYTE   N12
 BYTE   W12
 BYTE   N12
 BYTE   W12
 BYTE   PEND 
//  #01 //031   ----------------------------------------
Label_01EF86AB:
 BYTE   N12  Ds2  v100
 BYTE   W12
 BYTE   N06
 BYTE   W06
 BYTE   N12
 BYTE   W12
 BYTE   N06
 BYTE   W06
 BYTE   N12
 BYTE   W12
 BYTE   N06
 BYTE   W06
 BYTE   N12
 BYTE   W12
 BYTE   N06
 BYTE   W06
 BYTE   N12
 BYTE   W12
 BYTE   N12
 BYTE   W12
 BYTE   PEND 
//  #01 //032   ----------------------------------------
 BYTE   PATT
  POIN2 Label_01EF85BE
//  #01 //033   ----------------------------------------
 BYTE   PATT
  POIN2 Label_01EF85F1
//  #01 //034   ----------------------------------------
 BYTE   PATT
  POIN2 Label_01EF8694
//  #01 //035   ----------------------------------------
 BYTE   PATT
  POIN2 Label_01EF86AB
//  #01 //036   ----------------------------------------
 BYTE   PATT
  POIN2 Label_01EF85BE
//  #01 //037   ----------------------------------------
 BYTE   PATT
  POIN2 Label_01EF85F1
//  #01 //038   ----------------------------------------
 BYTE   PATT
  POIN2 Label_01EF8694
//  #01 //039   ----------------------------------------
 BYTE   PATT
  POIN2 Label_01EF86AB
//  #01 //040   ----------------------------------------
 BYTE   PATT
  POIN2 Label_01EF85BE
//  #01 //041   ----------------------------------------
 BYTE   PATT
  POIN2 Label_01EF85F1
//  #01 //042   ----------------------------------------
 BYTE   PATT
  POIN2 Label_01EF8694
//  #01 //043   ----------------------------------------
 BYTE   PATT
  POIN2 Label_01EF86AB
//  #01 //044   ----------------------------------------
 BYTE   W96
//  #01 //045   ----------------------------------------
 BYTE   W96
//  #01 //046   ----------------------------------------
 BYTE   W96
//  #01 //047   ----------------------------------------
 BYTE   W96
//  #01 //048   ----------------------------------------
 BYTE   PATT
  POIN2 Label_01EF85BE
//  #01 //049   ----------------------------------------
 BYTE   PATT
  POIN2 Label_01EF85BE
//  #01 //050   ----------------------------------------
 BYTE   PATT
  POIN2 Label_01EF85DA
//  #01 //051   ----------------------------------------
 BYTE   PATT
  POIN2 Label_01EF85F1
//  #01 //052   ----------------------------------------
 BYTE   PATT
  POIN2 Label_01EF85BE
//  #01 //053   ----------------------------------------
 BYTE   PATT
  POIN2 Label_01EF85BE
//  #01 //054   ----------------------------------------
 BYTE   PATT
  POIN2 Label_01EF85DA
//  #01 //055   ----------------------------------------
 BYTE   PATT
  POIN2 Label_01EF85F1
//  #01 //056   ----------------------------------------
 BYTE   W96
//  #01 //057   ----------------------------------------
 BYTE   W96
//  #01 //058   ----------------------------------------
 BYTE   PATT
  POIN2 Label_01EF859A
//  #01 //059   ----------------------------------------
 BYTE   PATT
  POIN2 Label_01EF85A3
//  #01 //060   ----------------------------------------
 BYTE   PATT
  POIN2 Label_01EF85BE
//  #01 //061   ----------------------------------------
 BYTE   PATT
  POIN2 Label_01EF85BE
//  #01 //062   ----------------------------------------
 BYTE   PATT
  POIN2 Label_01EF85DA
//  #01 //063   ----------------------------------------
 BYTE   PATT
  POIN2 Label_01EF85F1
//  #01 //064   ----------------------------------------
 BYTE   PATT
  POIN2 Label_01EF85BE
//  #01 //065   ----------------------------------------
 BYTE   PATT
  POIN2 Label_01EF85BE
//  #01 //066   ----------------------------------------
 BYTE   PATT
  POIN2 Label_01EF85DA
//  #01 //067   ----------------------------------------
 BYTE   PATT
  POIN2 Label_01EF85F1
//  #01 //068   ----------------------------------------
 BYTE   PATT
  POIN2 Label_01EF85BE
//  #01 //069   ----------------------------------------
 BYTE   PATT
  POIN2 Label_01EF85F1
//  #01 //070   ----------------------------------------
 BYTE   PATT
  POIN2 Label_01EF8694
//  #01 //071   ----------------------------------------
 BYTE   PATT
  POIN2 Label_01EF86AB
//  #01 //072   ----------------------------------------
 BYTE   PATT
  POIN2 Label_01EF85BE
//  #01 //073   ----------------------------------------
 BYTE   PATT
  POIN2 Label_01EF85F1
//  #01 //074   ----------------------------------------
 BYTE   PATT
  POIN2 Label_01EF8694
//  #01 //075   ----------------------------------------
 BYTE   PATT
  POIN2 Label_01EF86AB
//  #01 //076   ----------------------------------------
 BYTE   W96
//  #01 //077   ----------------------------------------
 BYTE   W96
//  #01 //078   ----------------------------------------
 BYTE   W96
//  #01 //079   ----------------------------------------
 BYTE   W96
//  #01 //080   ----------------------------------------
 BYTE   W96
//  #01 //081   ----------------------------------------
 BYTE   W96
//  #01 //082   ----------------------------------------
 BYTE   W96
//  #01 //083   ----------------------------------------
 BYTE   W96
//  #01 //084   ----------------------------------------
Label_01EF878E:
 BYTE   N06  Gs2  v100
 BYTE   W06
 BYTE   N06
 BYTE   W06
 BYTE   N06
 BYTE   W06
 BYTE   N06
 BYTE   W06
 BYTE   N06
 BYTE   W06
 BYTE   N06
 BYTE   W06
 BYTE   N06
 BYTE   W06
 BYTE   N06
 BYTE   W06
 BYTE   N06
 BYTE   W06
 BYTE   N06
 BYTE   W06
 BYTE   N06
 BYTE   W06
 BYTE   N06
 BYTE   W06
 BYTE   N06
 BYTE   W06
 BYTE   N06
 BYTE   W06
 BYTE   N06
 BYTE   W06
 BYTE   N06
 BYTE   W06
 BYTE   PEND 
//  #01 //085   ----------------------------------------
 BYTE   PATT
  POIN2 Label_01EF878E
//  #01 //086   ----------------------------------------
Label_01EF87B6:
 BYTE   N06  Bn2  v100
 BYTE   W06
 BYTE   N06
 BYTE   W06
 BYTE   N06
 BYTE   W06
 BYTE   N06
 BYTE   W06
 BYTE   N06
 BYTE   W06
 BYTE   N06
 BYTE   W06
 BYTE   N06
 BYTE   W06
 BYTE   N06
 BYTE   W06
 BYTE   N06
 BYTE   W06
 BYTE   N06
 BYTE   W06
 BYTE   N06
 BYTE   W06
 BYTE   N06
 BYTE   W06
 BYTE   N06
 BYTE   W06
 BYTE   N06
 BYTE   W06
 BYTE   N06
 BYTE   W06
 BYTE   N06
 BYTE   W06
 BYTE   PEND 
//  #01 //087   ----------------------------------------
 BYTE   Fs2
 BYTE   W06
 BYTE   N06
 BYTE   W06
 BYTE   N06
 BYTE   W06
 BYTE   N06
 BYTE   W06
 BYTE   N06
 BYTE   W06
 BYTE   N06
 BYTE   W06
 BYTE   N06
 BYTE   W06
 BYTE   N06
 BYTE   W06
 BYTE   Ds2
 BYTE   W06
 BYTE   N06
 BYTE   W06
 BYTE   N06
 BYTE   W06
 BYTE   N06
 BYTE   W06
 BYTE   N06
 BYTE   W06
 BYTE   N06
 BYTE   W06
 BYTE   N06
 BYTE   W06
 BYTE   N06
 BYTE   W06
//  #01 //088   ----------------------------------------
 BYTE   PATT
  POIN2 Label_01EF878E
//  #01 //089   ----------------------------------------
 BYTE   PATT
  POIN2 Label_01EF878E
//  #01 //090   ----------------------------------------
 BYTE   PATT
  POIN2 Label_01EF87B6
//  #01 //091   ----------------------------------------
Label_01EF8808:
 BYTE   N06  Ds3  v100
 BYTE   W06
 BYTE   N06
 BYTE   W06
 BYTE   N06
 BYTE   W06
 BYTE   N06
 BYTE   W06
 BYTE   N06
 BYTE   W06
 BYTE   N06
 BYTE   W06
 BYTE   N06
 BYTE   W06
 BYTE   N06
 BYTE   W06
 BYTE   N06
 BYTE   W06
 BYTE   N06
 BYTE   W06
 BYTE   N06
 BYTE   W06
 BYTE   N06
 BYTE   W06
 BYTE   N06
 BYTE   W06
 BYTE   N06
 BYTE   W06
 BYTE   N06
 BYTE   W06
 BYTE   N06
 BYTE   W06
 BYTE   PEND 
//  #01 //092   ----------------------------------------
 BYTE   PATT
  POIN2 Label_01EF878E
//  #01 //093   ----------------------------------------
 BYTE   PATT
  POIN2 Label_01EF878E
//  #01 //094   ----------------------------------------
 BYTE   PATT
  POIN2 Label_01EF87B6
//  #01 //095   ----------------------------------------
 BYTE   PATT
  POIN2 Label_01EF8808
//  #01 //096   ----------------------------------------
 BYTE   PATT
  POIN2 Label_01EF878E
//  #01 //097   ----------------------------------------
 BYTE   PATT
  POIN2 Label_01EF878E
//  #01 //098   ----------------------------------------
 BYTE   PATT
  POIN2 Label_01EF87B6
//  #01 //099   ----------------------------------------
 BYTE   PATT
  POIN2 Label_01EF8808
//  #01 //100   ----------------------------------------
 BYTE   W96
//  #01 //101   ----------------------------------------
 BYTE   W96
//  #01 //102   ----------------------------------------
 BYTE   W96
//  #01 //103   ----------------------------------------
 BYTE   W96
//  #01 //104   ----------------------------------------
 BYTE   W96
//  #01 //105   ----------------------------------------
 BYTE   W96
//  #01 //106   ----------------------------------------
 BYTE   W96
//  #01 //107   ----------------------------------------
 BYTE   W96
//  #01 //108   ----------------------------------------
 BYTE   W96
//  #01 //109   ----------------------------------------
 BYTE   W96
//  #01 //110   ----------------------------------------
 BYTE   W96
//  #01 //111   ----------------------------------------
 BYTE   W96
//  #01 //112   ----------------------------------------
 BYTE   W96
//  #01 //113   ----------------------------------------
 BYTE   W96
//  #01 //114   ----------------------------------------
 BYTE   W96
//  #01 //115   ----------------------------------------
 BYTE   W96
//  #01 //116   ----------------------------------------
 BYTE   W96
//  #01 //117   ----------------------------------------
 BYTE   W96
//  #01 //118   ----------------------------------------
 BYTE   W96
//  #01 //119   ----------------------------------------
 BYTE   W96
//  #01 //120   ----------------------------------------
 BYTE   W96
//  #01 //121   ----------------------------------------
 BYTE   W96
//  #01 //122   ----------------------------------------
 BYTE   W96
//  #01 //123   ----------------------------------------
 BYTE   W96
//  #01 //124   ----------------------------------------
 BYTE   GoTo
  POIN2 Label_01EF858E
 BYTE   FINE

//**************** Track 2 (Midi-Chn.1) ****************//

ModernDayOuroboros_002:
//  #02 //000   ----------------------------------------
 BYTE   VOL   65*ModernDayOuroboros_mvl/mxv
 BYTE   KEYSH   ModernDayOuroboros_key+0
Label_01782F3C:
 BYTE   VOICE   30
 BYTE   MODT 0
 BYTE   LFOS 44
 BYTE   W96
//  #02 //001   ----------------------------------------
 BYTE   W96
//  #02 //002   ----------------------------------------
Label_01782F44:
 BYTE   N36  Gs1  v100
 BYTE   W36
 BYTE   N36
 BYTE   W36
 BYTE   N24
 BYTE   W24
 BYTE   PEND 
//  #02 //003   ----------------------------------------
Label_01782F4D:
 BYTE   N06  Gs1  v100
 BYTE   W06
 BYTE   N06
 BYTE   W06
 BYTE   N06
 BYTE   W06
 BYTE   N06
 BYTE   W06
 BYTE   N06
 BYTE   W06
 BYTE   N06
 BYTE   W06
 BYTE   N06
 BYTE   W06
 BYTE   N06
 BYTE   W06
 BYTE   N06
 BYTE   W06
 BYTE   N12
 BYTE   W18
 BYTE   N06
 BYTE   W06
 BYTE   N06
 BYTE   W18
 BYTE   PEND 
//  #02 //004   ----------------------------------------
 BYTE   PATT
  POIN2 Label_01782F44
//  #02 //005   ----------------------------------------
Label_01782F6D:
 BYTE   N24  Gs1  v100
 BYTE   W24
 BYTE   N12  As1
 BYTE   W12
 BYTE   N24  Bn1
 BYTE   W24
 BYTE   N12  Ds2
 BYTE   W12
 BYTE   N24  Gs1
 BYTE   W24
 BYTE   PEND 
//  #02 //006   ----------------------------------------
 BYTE   PATT
  POIN2 Label_01782F44
//  #02 //007   ----------------------------------------
Label_01782F83:
 BYTE   N24  Gs1  v100
 BYTE   W24
 BYTE   N12  As1
 BYTE   W12
 BYTE   N24  Bn1
 BYTE   W24
 BYTE   N12  Ds2
 BYTE   W12
 BYTE   N24  Bn1
 BYTE   W24
 BYTE   PEND 
//  #02 //008   ----------------------------------------
 BYTE   PATT
  POIN2 Label_01782F44
//  #02 //009   ----------------------------------------
 BYTE   PATT
  POIN2 Label_01782F6D
//  #02 //010   ----------------------------------------
 BYTE   PATT
  POIN2 Label_01782F44
//  #02 //011   ----------------------------------------
 BYTE   PATT
  POIN2 Label_01782F83
//  #02 //012   ----------------------------------------
 BYTE   W96
//  #02 //013   ----------------------------------------
 BYTE   W96
//  #02 //014   ----------------------------------------
 BYTE   W96
//  #02 //015   ----------------------------------------
 BYTE   W96
//  #02 //016   ----------------------------------------
 BYTE   W96
//  #02 //017   ----------------------------------------
 BYTE   W96
//  #02 //018   ----------------------------------------
 BYTE   W96
//  #02 //019   ----------------------------------------
 BYTE   W96
//  #02 //020   ----------------------------------------
 BYTE   W96
//  #02 //021   ----------------------------------------
 BYTE   W96
//  #02 //022   ----------------------------------------
 BYTE   W96
//  #02 //023   ----------------------------------------
 BYTE   W96
//  #02 //024   ----------------------------------------
 BYTE   W96
//  #02 //025   ----------------------------------------
 BYTE   W96
//  #02 //026   ----------------------------------------
 BYTE   W96
//  #02 //027   ----------------------------------------
 BYTE   W96
//  #02 //028   ----------------------------------------
Label_01782FB8:
 BYTE   N36  Gs2  v064
 BYTE   W36
 BYTE   N36
 BYTE   W36
 BYTE   N24  Bn2
 BYTE   W24
 BYTE   PEND 
//  #02 //029   ----------------------------------------
Label_01782FC2:
 BYTE   N24  Ds3  v064
 BYTE   W24
 BYTE   Bn2
 BYTE   W24
 BYTE   Ds3
 BYTE   W24
 BYTE   Bn2
 BYTE   W24
 BYTE   PEND 
//  #02 //030   ----------------------------------------
 BYTE   PATT
  POIN2 Label_01782FC2
//  #02 //031   ----------------------------------------
Label_01782FD2:
 BYTE   N24  As2  v064
 BYTE   W24
 BYTE   Gs2
 BYTE   W24
 BYTE   N12  As2
 BYTE   W12
 BYTE   Bn2
 BYTE   W12
 BYTE   As2
 BYTE   W12
 BYTE   Ds3
 BYTE   W12
 BYTE   PEND 
//  #02 //032   ----------------------------------------
 BYTE   PATT
  POIN2 Label_01782FB8
//  #02 //033   ----------------------------------------
 BYTE   PATT
  POIN2 Label_01782FC2
//  #02 //034   ----------------------------------------
 BYTE   PATT
  POIN2 Label_01782FC2
//  #02 //035   ----------------------------------------
 BYTE   PATT
  POIN2 Label_01782FD2
//  #02 //036   ----------------------------------------
 BYTE   W96
//  #02 //037   ----------------------------------------
 BYTE   W96
//  #02 //038   ----------------------------------------
 BYTE   W96
//  #02 //039   ----------------------------------------
 BYTE   W96
//  #02 //040   ----------------------------------------
 BYTE   W96
//  #02 //041   ----------------------------------------
 BYTE   W96
//  #02 //042   ----------------------------------------
 BYTE   W96
//  #02 //043   ----------------------------------------
 BYTE   W96
//  #02 //044   ----------------------------------------
 BYTE   W96
//  #02 //045   ----------------------------------------
 BYTE   W96
//  #02 //046   ----------------------------------------
 BYTE   W96
//  #02 //047   ----------------------------------------
 BYTE   W96
//  #02 //048   ----------------------------------------
 BYTE   W96
//  #02 //049   ----------------------------------------
 BYTE   W96
//  #02 //050   ----------------------------------------
 BYTE   W96
//  #02 //051   ----------------------------------------
 BYTE   W96
//  #02 //052   ----------------------------------------
 BYTE   W96
//  #02 //053   ----------------------------------------
 BYTE   W96
//  #02 //054   ----------------------------------------
 BYTE   W96
//  #02 //055   ----------------------------------------
 BYTE   W96
//  #02 //056   ----------------------------------------
 BYTE   W96
//  #02 //057   ----------------------------------------
 BYTE   W96
//  #02 //058   ----------------------------------------
 BYTE   PATT
  POIN2 Label_01782F44
//  #02 //059   ----------------------------------------
 BYTE   PATT
  POIN2 Label_01782F4D
//  #02 //060   ----------------------------------------
 BYTE   PATT
  POIN2 Label_01782F44
//  #02 //061   ----------------------------------------
 BYTE   PATT
  POIN2 Label_01782F6D
//  #02 //062   ----------------------------------------
 BYTE   PATT
  POIN2 Label_01782F44
//  #02 //063   ----------------------------------------
 BYTE   PATT
  POIN2 Label_01782F83
//  #02 //064   ----------------------------------------
 BYTE   PATT
  POIN2 Label_01782F44
//  #02 //065   ----------------------------------------
 BYTE   PATT
  POIN2 Label_01782F6D
//  #02 //066   ----------------------------------------
 BYTE   PATT
  POIN2 Label_01782F44
//  #02 //067   ----------------------------------------
 BYTE   PATT
  POIN2 Label_01782F83
//  #02 //068   ----------------------------------------
 BYTE   PATT
  POIN2 Label_01782FB8
//  #02 //069   ----------------------------------------
 BYTE   PATT
  POIN2 Label_01782FC2
//  #02 //070   ----------------------------------------
 BYTE   PATT
  POIN2 Label_01782FC2
//  #02 //071   ----------------------------------------
 BYTE   PATT
  POIN2 Label_01782FD2
//  #02 //072   ----------------------------------------
 BYTE   PATT
  POIN2 Label_01782FB8
//  #02 //073   ----------------------------------------
 BYTE   PATT
  POIN2 Label_01782FC2
//  #02 //074   ----------------------------------------
 BYTE   PATT
  POIN2 Label_01782FC2
//  #02 //075   ----------------------------------------
 BYTE   PATT
  POIN2 Label_01782FD2
//  #02 //076   ----------------------------------------
 BYTE   W96
//  #02 //077   ----------------------------------------
 BYTE   W96
//  #02 //078   ----------------------------------------
 BYTE   W96
//  #02 //079   ----------------------------------------
 BYTE   W96
//  #02 //080   ----------------------------------------
 BYTE   W96
//  #02 //081   ----------------------------------------
 BYTE   W96
//  #02 //082   ----------------------------------------
 BYTE   W96
//  #02 //083   ----------------------------------------
 BYTE   W96
//  #02 //084   ----------------------------------------
 BYTE   W96
//  #02 //085   ----------------------------------------
 BYTE   W96
//  #02 //086   ----------------------------------------
 BYTE   W96
//  #02 //087   ----------------------------------------
 BYTE   W96
//  #02 //088   ----------------------------------------
 BYTE   W96
//  #02 //089   ----------------------------------------
 BYTE   W96
//  #02 //090   ----------------------------------------
 BYTE   W96
//  #02 //091   ----------------------------------------
 BYTE   W96
//  #02 //092   ----------------------------------------
 BYTE   W96
//  #02 //093   ----------------------------------------
 BYTE   W96
//  #02 //094   ----------------------------------------
 BYTE   W96
//  #02 //095   ----------------------------------------
 BYTE   W96
//  #02 //096   ----------------------------------------
 BYTE   W96
//  #02 //097   ----------------------------------------
 BYTE   W96
//  #02 //098   ----------------------------------------
 BYTE   W96
//  #02 //099   ----------------------------------------
 BYTE   W96
//  #02 //100   ----------------------------------------
 BYTE   N96  Gs2  v100
 BYTE   W96
//  #02 //101   ----------------------------------------
 BYTE   Bn2
 BYTE   W96
//  #02 //102   ----------------------------------------
Label_01783084:
 BYTE   N36  Ds3  v100
 BYTE   W36
 BYTE   Bn2
 BYTE   W36
 BYTE   N24  Ds3
 BYTE   W24
 BYTE   PEND 
//  #02 //103   ----------------------------------------
Label_0178308E:
 BYTE   N72  As2  v100
 BYTE   W72
 BYTE   N24  Gs2
 BYTE   W24
 BYTE   PEND 
//  #02 //104   ----------------------------------------
 BYTE   N96
 BYTE   W96
//  #02 //105   ----------------------------------------
 BYTE   Bn2
 BYTE   W96
//  #02 //106   ----------------------------------------
 BYTE   PATT
  POIN2 Label_01783084
//  #02 //107   ----------------------------------------
 BYTE   PATT
  POIN2 Label_0178308E
//  #02 //108   ----------------------------------------
 BYTE   W96
//  #02 //109   ----------------------------------------
 BYTE   W96
//  #02 //110   ----------------------------------------
 BYTE   W96
//  #02 //111   ----------------------------------------
 BYTE   W96
//  #02 //112   ----------------------------------------
 BYTE   W96
//  #02 //113   ----------------------------------------
 BYTE   W96
//  #02 //114   ----------------------------------------
 BYTE   W96
//  #02 //115   ----------------------------------------
 BYTE   W96
//  #02 //116   ----------------------------------------
 BYTE   W96
//  #02 //117   ----------------------------------------
 BYTE   W96
//  #02 //118   ----------------------------------------
 BYTE   W96
//  #02 //119   ----------------------------------------
 BYTE   W96
//  #02 //120   ----------------------------------------
 BYTE   W96
//  #02 //121   ----------------------------------------
 BYTE   W96
//  #02 //122   ----------------------------------------
 BYTE   W96
//  #02 //123   ----------------------------------------
 BYTE   W96
//  #02 //124   ----------------------------------------
 BYTE   GoTo
  POIN2 Label_01782F3C
 BYTE   FINE

//**************** Track 3 (Midi-Chn.2) ****************//

ModernDayOuroboros_003:
//  #03 //000   ----------------------------------------
 BYTE   KEYSH   ModernDayOuroboros_key+0
Label_01EF8876:
 BYTE   VOICE   104
 BYTE   MODT 0
 BYTE   LFOS 44
 BYTE   VOL   45*ModernDayOuroboros_mvl/mxv
 BYTE   W96
//  #03 //001   ----------------------------------------
 BYTE   W96
//  #03 //002   ----------------------------------------
 BYTE   W96
//  #03 //003   ----------------------------------------
 BYTE   W96
//  #03 //004   ----------------------------------------
 BYTE   W96
//  #03 //005   ----------------------------------------
 BYTE   W96
//  #03 //006   ----------------------------------------
 BYTE   W96
//  #03 //007   ----------------------------------------
 BYTE   W96
//  #03 //008   ----------------------------------------
 BYTE   W96
//  #03 //009   ----------------------------------------
 BYTE   W96
//  #03 //010   ----------------------------------------
 BYTE   W96
//  #03 //011   ----------------------------------------
 BYTE   W96
//  #03 //012   ----------------------------------------
 BYTE   W96
//  #03 //013   ----------------------------------------
 BYTE   W96
//  #03 //014   ----------------------------------------
 BYTE   W96
//  #03 //015   ----------------------------------------
 BYTE   W96
//  #03 //016   ----------------------------------------
 BYTE   W96
//  #03 //017   ----------------------------------------
 BYTE   W96
//  #03 //018   ----------------------------------------
 BYTE   W96
//  #03 //019   ----------------------------------------
 BYTE   W96
//  #03 //020   ----------------------------------------
Label_01EF8892:
 BYTE   N12  Gs2  v100
 BYTE   W12
 BYTE   N12
 BYTE   W12
 BYTE   N12
 BYTE   W12
 BYTE   N12
 BYTE   W12
 BYTE   N24
 BYTE   W24
 BYTE   As2
 BYTE   W24
 BYTE   PEND 
//  #03 //021   ----------------------------------------
 BYTE   N12  Bn2
 BYTE   W12
 BYTE   N12
 BYTE   W12
 BYTE   N12
 BYTE   W12
 BYTE   N12
 BYTE   W12
 BYTE   N24
 BYTE   W24
 BYTE   N24
 BYTE   W24
//  #03 //022   ----------------------------------------
 BYTE   N18  Ds3
 BYTE   W18
 BYTE   Bn2
 BYTE   W18
 BYTE   Ds3
 BYTE   W18
 BYTE   Bn2
 BYTE   W18
 BYTE   N12
 BYTE   W12
 BYTE   Ds3
 BYTE   W12
//  #03 //023   ----------------------------------------
 BYTE   As2
 BYTE   W12
 BYTE   N12
 BYTE   W12
 BYTE   N12
 BYTE   W12
 BYTE   N12
 BYTE   W12
 BYTE   N24
 BYTE   W24
 BYTE   N12  Bn2
 BYTE   W12
 BYTE   As2
 BYTE   W12
//  #03 //024   ----------------------------------------
 BYTE   PATT
  POIN2 Label_01EF8892
//  #03 //025   ----------------------------------------
 BYTE   N12  Bn2  v100
 BYTE   W12
 BYTE   N12
 BYTE   W12
 BYTE   N06  Ds3
 BYTE   W06
 BYTE   Fs3
 BYTE   W06
 BYTE   Ds3
 BYTE   W06
 BYTE   Bn2
 BYTE   W06
 BYTE   N24  Ds3
 BYTE   W24
 BYTE   Bn2
 BYTE   W24
//  #03 //026   ----------------------------------------
 BYTE   N18  Ds3
 BYTE   W18
 BYTE   Bn2
 BYTE   W18
 BYTE   Ds3
 BYTE   W18
 BYTE   Bn2
 BYTE   W18
 BYTE   N12  Ds3
 BYTE   W12
 BYTE   N12
 BYTE   W12
//  #03 //027   ----------------------------------------
 BYTE   Fs3
 BYTE   W12
 BYTE   N12
 BYTE   W12
 BYTE   N12
 BYTE   W12
 BYTE   N12
 BYTE   W12
 BYTE   N24
 BYTE   W24
 BYTE   N12
 BYTE   W12
 BYTE   N12
 BYTE   W12
//  #03 //028   ----------------------------------------
 BYTE   W96
//  #03 //029   ----------------------------------------
 BYTE   W96
//  #03 //030   ----------------------------------------
 BYTE   W96
//  #03 //031   ----------------------------------------
 BYTE   W96
//  #03 //032   ----------------------------------------
 BYTE   W96
//  #03 //033   ----------------------------------------
 BYTE   W96
//  #03 //034   ----------------------------------------
 BYTE   W96
//  #03 //035   ----------------------------------------
 BYTE   W96
//  #03 //036   ----------------------------------------
Label_01EF8907:
 BYTE   N12  Gs2  v064
 BYTE   W12
 BYTE   N12
 BYTE   W12
 BYTE   N12
 BYTE   W12
 BYTE   N12
 BYTE   W12
 BYTE   N24
 BYTE   W24
 BYTE   As2
 BYTE   W24
 BYTE   PEND 
//  #03 //037   ----------------------------------------
 BYTE   N12  Bn2
 BYTE   W12
 BYTE   N12
 BYTE   W12
 BYTE   N12
 BYTE   W12
 BYTE   N12
 BYTE   W12
 BYTE   N24
 BYTE   W24
 BYTE   N24
 BYTE   W24
//  #03 //038   ----------------------------------------
 BYTE   N18  Ds3
 BYTE   W18
 BYTE   Bn2
 BYTE   W18
 BYTE   Ds3
 BYTE   W18
 BYTE   Bn2
 BYTE   W18
 BYTE   N12
 BYTE   W12
 BYTE   Ds3
 BYTE   W12
//  #03 //039   ----------------------------------------
 BYTE   As2
 BYTE   W12
 BYTE   N12
 BYTE   W12
 BYTE   N12
 BYTE   W12
 BYTE   N12
 BYTE   W12
 BYTE   N24
 BYTE   W24
 BYTE   N12  Bn2
 BYTE   W12
 BYTE   As2
 BYTE   W12
//  #03 //040   ----------------------------------------
 BYTE   PATT
  POIN2 Label_01EF8907
//  #03 //041   ----------------------------------------
 BYTE   N12  Bn2  v064
 BYTE   W12
 BYTE   N12
 BYTE   W12
 BYTE   N06  Ds3
 BYTE   W06
 BYTE   Fs3
 BYTE   W06
 BYTE   Ds3
 BYTE   W06
 BYTE   Bn2
 BYTE   W06
 BYTE   N24  Ds3
 BYTE   W24
 BYTE   Bn2
 BYTE   W24
//  #03 //042   ----------------------------------------
 BYTE   N18  Ds3
 BYTE   W18
 BYTE   Bn2
 BYTE   W18
 BYTE   Ds3
 BYTE   W18
 BYTE   Bn2
 BYTE   W18
 BYTE   N12  Ds3
 BYTE   W12
 BYTE   N12
 BYTE   W12
//  #03 //043   ----------------------------------------
 BYTE   Fs3
 BYTE   W12
 BYTE   N12
 BYTE   W12
 BYTE   N12
 BYTE   W12
 BYTE   N12
 BYTE   W12
 BYTE   N24
 BYTE   W24
 BYTE   N12
 BYTE   W12
 BYTE   N12
 BYTE   W12
//  #03 //044   ----------------------------------------
 BYTE   W96
//  #03 //045   ----------------------------------------
 BYTE   W96
//  #03 //046   ----------------------------------------
 BYTE   W96
//  #03 //047   ----------------------------------------
 BYTE   W96
//  #03 //048   ----------------------------------------
Label_01EF8978:
 BYTE   N12  Gs2  v100
 BYTE   W12
 BYTE   N06
 BYTE   W06
 BYTE   N12
 BYTE   W12
 BYTE   N06
 BYTE   W06
 BYTE   N12
 BYTE   W12
 BYTE   N06
 BYTE   W06
 BYTE   N12
 BYTE   W12
 BYTE   N06
 BYTE   W06
 BYTE   N12
 BYTE   W12
 BYTE   N12
 BYTE   W12
 BYTE   PEND 
//  #03 //049   ----------------------------------------
 BYTE   PATT
  POIN2 Label_01EF8978
//  #03 //050   ----------------------------------------
Label_01EF8994:
 BYTE   N12  Bn2  v100
 BYTE   W12
 BYTE   N06
 BYTE   W06
 BYTE   N12
 BYTE   W12
 BYTE   N06
 BYTE   W06
 BYTE   N12
 BYTE   W12
 BYTE   N06
 BYTE   W06
 BYTE   N12
 BYTE   W12
 BYTE   N06
 BYTE   W06
 BYTE   N12
 BYTE   W12
 BYTE   N12
 BYTE   W12
 BYTE   PEND 
//  #03 //051   ----------------------------------------
Label_01EF89AB:
 BYTE   N12  Ds3  v100
 BYTE   W12
 BYTE   N06
 BYTE   W06
 BYTE   N12
 BYTE   W12
 BYTE   N06
 BYTE   W06
 BYTE   N12
 BYTE   W12
 BYTE   N06
 BYTE   W06
 BYTE   N12
 BYTE   W12
 BYTE   N06
 BYTE   W06
 BYTE   N12
 BYTE   W12
 BYTE   N12
 BYTE   W12
 BYTE   PEND 
//  #03 //052   ----------------------------------------
 BYTE   PATT
  POIN2 Label_01EF8978
//  #03 //053   ----------------------------------------
 BYTE   PATT
  POIN2 Label_01EF8978
//  #03 //054   ----------------------------------------
 BYTE   PATT
  POIN2 Label_01EF8994
//  #03 //055   ----------------------------------------
 BYTE   PATT
  POIN2 Label_01EF89AB
//  #03 //056   ----------------------------------------
 BYTE   W96
//  #03 //057   ----------------------------------------
 BYTE   W96
//  #03 //058   ----------------------------------------
 BYTE   W96
//  #03 //059   ----------------------------------------
 BYTE   W96
//  #03 //060   ----------------------------------------
 BYTE   W96
//  #03 //061   ----------------------------------------
 BYTE   W96
//  #03 //062   ----------------------------------------
 BYTE   W96
//  #03 //063   ----------------------------------------
 BYTE   W96
//  #03 //064   ----------------------------------------
 BYTE   W96
//  #03 //065   ----------------------------------------
 BYTE   W96
//  #03 //066   ----------------------------------------
 BYTE   W96
//  #03 //067   ----------------------------------------
 BYTE   W96
//  #03 //068   ----------------------------------------
 BYTE   W96
//  #03 //069   ----------------------------------------
 BYTE   W96
//  #03 //070   ----------------------------------------
 BYTE   W96
//  #03 //071   ----------------------------------------
 BYTE   W96
//  #03 //072   ----------------------------------------
 BYTE   W96
//  #03 //073   ----------------------------------------
 BYTE   W96
//  #03 //074   ----------------------------------------
 BYTE   W96
//  #03 //075   ----------------------------------------
 BYTE   W96
//  #03 //076   ----------------------------------------
Label_01EF89EA:
 BYTE   N36  Gs2  v100
 BYTE   W36
 BYTE   N36
 BYTE   W36
 BYTE   N24  Bn2
 BYTE   W24
 BYTE   PEND 
//  #03 //077   ----------------------------------------
Label_01EF89F4:
 BYTE   N24  Ds3  v100
 BYTE   W24
 BYTE   Bn2
 BYTE   W24
 BYTE   Ds3
 BYTE   W24
 BYTE   Bn2
 BYTE   W24
 BYTE   PEND 
//  #03 //078   ----------------------------------------
 BYTE   PATT
  POIN2 Label_01EF89F4
//  #03 //079   ----------------------------------------
Label_01EF8A04:
 BYTE   N24  As2  v100
 BYTE   W24
 BYTE   Gs2
 BYTE   W24
 BYTE   N12  As2
 BYTE   W12
 BYTE   Bn2
 BYTE   W12
 BYTE   As2
 BYTE   W12
 BYTE   Ds3
 BYTE   W12
 BYTE   PEND 
//  #03 //080   ----------------------------------------
 BYTE   PATT
  POIN2 Label_01EF89EA
//  #03 //081   ----------------------------------------
 BYTE   PATT
  POIN2 Label_01EF89F4
//  #03 //082   ----------------------------------------
 BYTE   PATT
  POIN2 Label_01EF89F4
//  #03 //083   ----------------------------------------
 BYTE   PATT
  POIN2 Label_01EF8A04
//  #03 //084   ----------------------------------------
 BYTE   PATT
  POIN2 Label_01EF89EA
//  #03 //085   ----------------------------------------
 BYTE   PATT
  POIN2 Label_01EF89F4
//  #03 //086   ----------------------------------------
 BYTE   PATT
  POIN2 Label_01EF89F4
//  #03 //087   ----------------------------------------
 BYTE   PATT
  POIN2 Label_01EF8A04
//  #03 //088   ----------------------------------------
 BYTE   PATT
  POIN2 Label_01EF89EA
//  #03 //089   ----------------------------------------
 BYTE   PATT
  POIN2 Label_01EF89F4
//  #03 //090   ----------------------------------------
 BYTE   PATT
  POIN2 Label_01EF89F4
//  #03 //091   ----------------------------------------
 BYTE   PATT
  POIN2 Label_01EF8A04
//  #03 //092   ----------------------------------------
Label_01EF8A50:
 BYTE   N72  Gs3  v100
 BYTE   W72
 BYTE   Ds4
 BYTE   W24
 BYTE   PEND 
//  #03 //093   ----------------------------------------
 BYTE   W48
 BYTE   N48  Bn3
 BYTE   W48
//  #03 //094   ----------------------------------------
Label_01EF8A5B:
 BYTE   N72  Bn3  v100
 BYTE   W72
 BYTE   N24  Fs4
 BYTE   W24
 BYTE   PEND 
//  #03 //095   ----------------------------------------
Label_01EF8A63:
 BYTE   N72  Ds4  v100
 BYTE   W72
 BYTE   N24  As4
 BYTE   W24
 BYTE   PEND 
//  #03 //096   ----------------------------------------
 BYTE   PATT
  POIN2 Label_01EF8A50
//  #03 //097   ----------------------------------------
 BYTE   W48
 BYTE   N48  Bn3  v100
 BYTE   W48
//  #03 //098   ----------------------------------------
 BYTE   PATT
  POIN2 Label_01EF8A5B
//  #03 //099   ----------------------------------------
 BYTE   PATT
  POIN2 Label_01EF8A63
//  #03 //100   ----------------------------------------
 BYTE   W96
//  #03 //101   ----------------------------------------
 BYTE   W96
//  #03 //102   ----------------------------------------
 BYTE   W96
//  #03 //103   ----------------------------------------
 BYTE   W96
//  #03 //104   ----------------------------------------
 BYTE   W96
//  #03 //105   ----------------------------------------
 BYTE   W96
//  #03 //106   ----------------------------------------
 BYTE   W96
//  #03 //107   ----------------------------------------
 BYTE   W96
//  #03 //108   ----------------------------------------
 BYTE   PATT
  POIN2 Label_01EF89EA
//  #03 //109   ----------------------------------------
 BYTE   PATT
  POIN2 Label_01EF89F4
//  #03 //110   ----------------------------------------
 BYTE   PATT
  POIN2 Label_01EF89F4
//  #03 //111   ----------------------------------------
 BYTE   PATT
  POIN2 Label_01EF8A04
//  #03 //112   ----------------------------------------
 BYTE   PATT
  POIN2 Label_01EF89EA
//  #03 //113   ----------------------------------------
 BYTE   PATT
  POIN2 Label_01EF89F4
//  #03 //114   ----------------------------------------
 BYTE   PATT
  POIN2 Label_01EF89F4
//  #03 //115   ----------------------------------------
 BYTE   PATT
  POIN2 Label_01EF8A04
//  #03 //116   ----------------------------------------
 BYTE   PATT
  POIN2 Label_01EF89EA
//  #03 //117   ----------------------------------------
 BYTE   PATT
  POIN2 Label_01EF89F4
//  #03 //118   ----------------------------------------
 BYTE   PATT
  POIN2 Label_01EF89F4
//  #03 //119   ----------------------------------------
 BYTE   PATT
  POIN2 Label_01EF8A04
//  #03 //120   ----------------------------------------
 BYTE   PATT
  POIN2 Label_01EF89EA
//  #03 //121   ----------------------------------------
 BYTE   PATT
  POIN2 Label_01EF89F4
//  #03 //122   ----------------------------------------
 BYTE   PATT
  POIN2 Label_01EF89F4
//  #03 //123   ----------------------------------------
 BYTE   PATT
  POIN2 Label_01EF8A04
//  #03 //124   ----------------------------------------
 BYTE   GoTo
  POIN2 Label_01EF8876
 BYTE   FINE

//**************** Track 4 (Midi-Chn.3) ****************//

ModernDayOuroboros_004:
//  #04 //000   ----------------------------------------
 BYTE   VOL   65*ModernDayOuroboros_mvl/mxv
 BYTE   KEYSH   ModernDayOuroboros_key+0
Label_01782A84:
 BYTE   VOICE   19
 BYTE   MODT 0
 BYTE   LFOS 44
 BYTE   W96
//  #04 //001   ----------------------------------------
 BYTE   W96
//  #04 //002   ----------------------------------------
 BYTE   W96
//  #04 //003   ----------------------------------------
 BYTE   W96
//  #04 //004   ----------------------------------------
Label_01782A8E:
 BYTE   N36  Gs1  v100
 BYTE   W36
 BYTE   N36
 BYTE   W36
 BYTE   N24
 BYTE   W24
 BYTE   PEND 
//  #04 //005   ----------------------------------------
Label_01782A97:
 BYTE   N24  Gs1  v100
 BYTE   W24
 BYTE   N12  As1
 BYTE   W12
 BYTE   N24  Bn1
 BYTE   W24
 BYTE   N12  Ds2
 BYTE   W12
 BYTE   N24  Gs1
 BYTE   W24
 BYTE   PEND 
//  #04 //006   ----------------------------------------
 BYTE   PATT
  POIN2 Label_01782A8E
//  #04 //007   ----------------------------------------
Label_01782AAD:
 BYTE   N24  Gs1  v100
 BYTE   W24
 BYTE   N12  As1
 BYTE   W12
 BYTE   N24  Bn1
 BYTE   W24
 BYTE   N12  Ds2
 BYTE   W12
 BYTE   N24  Bn1
 BYTE   W24
 BYTE   PEND 
//  #04 //008   ----------------------------------------
 BYTE   PATT
  POIN2 Label_01782A8E
//  #04 //009   ----------------------------------------
 BYTE   PATT
  POIN2 Label_01782A97
//  #04 //010   ----------------------------------------
 BYTE   PATT
  POIN2 Label_01782A8E
//  #04 //011   ----------------------------------------
 BYTE   PATT
  POIN2 Label_01782AAD
//  #04 //012   ----------------------------------------
 BYTE   W96
//  #04 //013   ----------------------------------------
 BYTE   W96
//  #04 //014   ----------------------------------------
 BYTE   W96
//  #04 //015   ----------------------------------------
 BYTE   W96
//  #04 //016   ----------------------------------------
 BYTE   W96
//  #04 //017   ----------------------------------------
 BYTE   W96
//  #04 //018   ----------------------------------------
 BYTE   W96
//  #04 //019   ----------------------------------------
 BYTE   W96
//  #04 //020   ----------------------------------------
 BYTE   W96
//  #04 //021   ----------------------------------------
 BYTE   W96
//  #04 //022   ----------------------------------------
 BYTE   W96
//  #04 //023   ----------------------------------------
 BYTE   W96
//  #04 //024   ----------------------------------------
 BYTE   W96
//  #04 //025   ----------------------------------------
 BYTE   W96
//  #04 //026   ----------------------------------------
 BYTE   W96
//  #04 //027   ----------------------------------------
 BYTE   W96
//  #04 //028   ----------------------------------------
Label_01782AE2:
 BYTE   N36  Gs2  v064
 BYTE   W36
 BYTE   N36
 BYTE   W36
 BYTE   N24  Bn2
 BYTE   W24
 BYTE   PEND 
//  #04 //029   ----------------------------------------
Label_01782AEC:
 BYTE   N24  Ds3  v064
 BYTE   W24
 BYTE   Bn2
 BYTE   W24
 BYTE   Ds3
 BYTE   W24
 BYTE   Bn2
 BYTE   W24
 BYTE   PEND 
//  #04 //030   ----------------------------------------
 BYTE   PATT
  POIN2 Label_01782AEC
//  #04 //031   ----------------------------------------
Label_01782AFC:
 BYTE   N24  As2  v064
 BYTE   W24
 BYTE   Gs2
 BYTE   W24
 BYTE   N12  As2
 BYTE   W12
 BYTE   Bn2
 BYTE   W12
 BYTE   As2
 BYTE   W12
 BYTE   Ds3
 BYTE   W12
 BYTE   PEND 
//  #04 //032   ----------------------------------------
 BYTE   PATT
  POIN2 Label_01782AE2
//  #04 //033   ----------------------------------------
 BYTE   PATT
  POIN2 Label_01782AEC
//  #04 //034   ----------------------------------------
 BYTE   PATT
  POIN2 Label_01782AEC
//  #04 //035   ----------------------------------------
 BYTE   PATT
  POIN2 Label_01782AFC
//  #04 //036   ----------------------------------------
Label_01782B20:
 BYTE   N36  Gs2  v100
 BYTE   W36
 BYTE   N36
 BYTE   W36
 BYTE   N24  Bn2
 BYTE   W24
 BYTE   PEND 
//  #04 //037   ----------------------------------------
Label_01782B2A:
 BYTE   N24  Ds3  v100
 BYTE   W24
 BYTE   Bn2
 BYTE   W24
 BYTE   Ds3
 BYTE   W24
 BYTE   Bn2
 BYTE   W24
 BYTE   PEND 
//  #04 //038   ----------------------------------------
 BYTE   PATT
  POIN2 Label_01782B2A
//  #04 //039   ----------------------------------------
Label_01782B3A:
 BYTE   N24  As2  v100
 BYTE   W24
 BYTE   Gs2
 BYTE   W24
 BYTE   N12  As2
 BYTE   W12
 BYTE   Bn2
 BYTE   W12
 BYTE   As2
 BYTE   W12
 BYTE   Ds3
 BYTE   W12
 BYTE   PEND 
//  #04 //040   ----------------------------------------
 BYTE   PATT
  POIN2 Label_01782B20
//  #04 //041   ----------------------------------------
 BYTE   PATT
  POIN2 Label_01782B2A
//  #04 //042   ----------------------------------------
 BYTE   PATT
  POIN2 Label_01782B2A
//  #04 //043   ----------------------------------------
 BYTE   PATT
  POIN2 Label_01782B3A
//  #04 //044   ----------------------------------------
 BYTE   W96
//  #04 //045   ----------------------------------------
 BYTE   W96
//  #04 //046   ----------------------------------------
 BYTE   W96
//  #04 //047   ----------------------------------------
 BYTE   W96
//  #04 //048   ----------------------------------------
 BYTE   W96
//  #04 //049   ----------------------------------------
 BYTE   W96
//  #04 //050   ----------------------------------------
 BYTE   W96
//  #04 //051   ----------------------------------------
 BYTE   W96
//  #04 //052   ----------------------------------------
 BYTE   W96
//  #04 //053   ----------------------------------------
 BYTE   W96
//  #04 //054   ----------------------------------------
 BYTE   W96
//  #04 //055   ----------------------------------------
 BYTE   W96
//  #04 //056   ----------------------------------------
 BYTE   W96
//  #04 //057   ----------------------------------------
 BYTE   W96
//  #04 //058   ----------------------------------------
 BYTE   W96
//  #04 //059   ----------------------------------------
 BYTE   W96
//  #04 //060   ----------------------------------------
Label_01782B6E:
 BYTE   N36  Gs1  v127
 BYTE   W36
 BYTE   N36
 BYTE   W36
 BYTE   N24
 BYTE   W24
 BYTE   PEND 
//  #04 //061   ----------------------------------------
Label_01782B77:
 BYTE   N24  Gs1  v127
 BYTE   W24
 BYTE   N12  As1
 BYTE   W12
 BYTE   N24  Bn1
 BYTE   W24
 BYTE   N12  Ds2
 BYTE   W12
 BYTE   N24  Gs1
 BYTE   W24
 BYTE   PEND 
//  #04 //062   ----------------------------------------
 BYTE   PATT
  POIN2 Label_01782B6E
//  #04 //063   ----------------------------------------
 BYTE   PATT
  POIN2 Label_01782AAD
//  #04 //064   ----------------------------------------
 BYTE   PATT
  POIN2 Label_01782B6E
//  #04 //065   ----------------------------------------
 BYTE   PATT
  POIN2 Label_01782B77
//  #04 //066   ----------------------------------------
 BYTE   PATT
  POIN2 Label_01782B6E
//  #04 //067   ----------------------------------------
 BYTE   N24  Gs1  v127
 BYTE   W24
 BYTE   N12  As1
 BYTE   W12
 BYTE   N24  Bn1
 BYTE   W24
 BYTE   N12  Ds2
 BYTE   W12
 BYTE   N24  Bn1
 BYTE   W24
//  #04 //068   ----------------------------------------
 BYTE   PATT
  POIN2 Label_01782B20
//  #04 //069   ----------------------------------------
 BYTE   PATT
  POIN2 Label_01782B2A
//  #04 //070   ----------------------------------------
 BYTE   PATT
  POIN2 Label_01782B2A
//  #04 //071   ----------------------------------------
 BYTE   PATT
  POIN2 Label_01782B3A
//  #04 //072   ----------------------------------------
 BYTE   PATT
  POIN2 Label_01782B20
//  #04 //073   ----------------------------------------
 BYTE   PATT
  POIN2 Label_01782B2A
//  #04 //074   ----------------------------------------
 BYTE   PATT
  POIN2 Label_01782B2A
//  #04 //075   ----------------------------------------
 BYTE   PATT
  POIN2 Label_01782B3A
//  #04 //076   ----------------------------------------
 BYTE   PATT
  POIN2 Label_01782B20
//  #04 //077   ----------------------------------------
 BYTE   PATT
  POIN2 Label_01782B2A
//  #04 //078   ----------------------------------------
 BYTE   PATT
  POIN2 Label_01782B2A
//  #04 //079   ----------------------------------------
 BYTE   PATT
  POIN2 Label_01782B3A
//  #04 //080   ----------------------------------------
 BYTE   PATT
  POIN2 Label_01782B20
//  #04 //081   ----------------------------------------
 BYTE   PATT
  POIN2 Label_01782B2A
//  #04 //082   ----------------------------------------
 BYTE   PATT
  POIN2 Label_01782B2A
//  #04 //083   ----------------------------------------
 BYTE   PATT
  POIN2 Label_01782B3A
//  #04 //084   ----------------------------------------
 BYTE   PATT
  POIN2 Label_01782B20
//  #04 //085   ----------------------------------------
 BYTE   PATT
  POIN2 Label_01782B2A
//  #04 //086   ----------------------------------------
 BYTE   PATT
  POIN2 Label_01782B2A
//  #04 //087   ----------------------------------------
 BYTE   PATT
  POIN2 Label_01782B3A
//  #04 //088   ----------------------------------------
 BYTE   PATT
  POIN2 Label_01782B20
//  #04 //089   ----------------------------------------
 BYTE   PATT
  POIN2 Label_01782B2A
//  #04 //090   ----------------------------------------
 BYTE   PATT
  POIN2 Label_01782B2A
//  #04 //091   ----------------------------------------
 BYTE   PATT
  POIN2 Label_01782B3A
//  #04 //092   ----------------------------------------
 BYTE   W96
//  #04 //093   ----------------------------------------
 BYTE   W96
//  #04 //094   ----------------------------------------
 BYTE   W96
//  #04 //095   ----------------------------------------
 BYTE   W96
//  #04 //096   ----------------------------------------
 BYTE   W96
//  #04 //097   ----------------------------------------
 BYTE   W96
//  #04 //098   ----------------------------------------
 BYTE   W96
//  #04 //099   ----------------------------------------
 BYTE   W96
//  #04 //100   ----------------------------------------
 BYTE   N96  Gs2  v100
 BYTE   W96
//  #04 //101   ----------------------------------------
 BYTE   Bn2
 BYTE   W96
//  #04 //102   ----------------------------------------
Label_01782C37:
 BYTE   N36  Ds3  v100
 BYTE   W36
 BYTE   Bn2
 BYTE   W36
 BYTE   N24  Ds3
 BYTE   W24
 BYTE   PEND 
//  #04 //103   ----------------------------------------
Label_01782C41:
 BYTE   N72  As2  v100
 BYTE   W72
 BYTE   N24  Gs2
 BYTE   W24
 BYTE   PEND 
//  #04 //104   ----------------------------------------
 BYTE   N96
 BYTE   W96
//  #04 //105   ----------------------------------------
 BYTE   Bn2
 BYTE   W96
//  #04 //106   ----------------------------------------
 BYTE   PATT
  POIN2 Label_01782C37
//  #04 //107   ----------------------------------------
 BYTE   PATT
  POIN2 Label_01782C41
//  #04 //108   ----------------------------------------
 BYTE   W96
//  #04 //109   ----------------------------------------
 BYTE   W96
//  #04 //110   ----------------------------------------
 BYTE   W96
//  #04 //111   ----------------------------------------
 BYTE   W96
//  #04 //112   ----------------------------------------
 BYTE   W96
//  #04 //113   ----------------------------------------
 BYTE   W96
//  #04 //114   ----------------------------------------
 BYTE   W96
//  #04 //115   ----------------------------------------
 BYTE   W96
//  #04 //116   ----------------------------------------
 BYTE   W96
//  #04 //117   ----------------------------------------
 BYTE   W96
//  #04 //118   ----------------------------------------
 BYTE   W96
//  #04 //119   ----------------------------------------
 BYTE   W96
//  #04 //120   ----------------------------------------
 BYTE   W96
//  #04 //121   ----------------------------------------
 BYTE   W96
//  #04 //122   ----------------------------------------
 BYTE   W96
//  #04 //123   ----------------------------------------
 BYTE   W96
//  #04 //124   ----------------------------------------
 BYTE   GoTo
  POIN2 Label_01782A84
 BYTE   FINE

//**************** Track 5 (Midi-Chn.4) ****************//

ModernDayOuroboros_005:
//  #05 //000   ----------------------------------------
 BYTE   KEYSH   ModernDayOuroboros_key+0
Label_01782C9A:
 BYTE   VOICE   81
 BYTE   MODT 0
 BYTE   LFOS 44
 BYTE   VOL   65*ModernDayOuroboros_mvl/mxv
 BYTE   W96
//  #05 //001   ----------------------------------------
 BYTE   W96
//  #05 //002   ----------------------------------------
 BYTE   W96
//  #05 //003   ----------------------------------------
 BYTE   W96
//  #05 //004   ----------------------------------------
 BYTE   W96
//  #05 //005   ----------------------------------------
 BYTE   W96
//  #05 //006   ----------------------------------------
 BYTE   W96
//  #05 //007   ----------------------------------------
 BYTE   W96
//  #05 //008   ----------------------------------------
 BYTE   W96
//  #05 //009   ----------------------------------------
 BYTE   W96
//  #05 //010   ----------------------------------------
 BYTE   W96
//  #05 //011   ----------------------------------------
 BYTE   W96
//  #05 //012   ----------------------------------------
 BYTE   W96
//  #05 //013   ----------------------------------------
 BYTE   W96
//  #05 //014   ----------------------------------------
 BYTE   W96
//  #05 //015   ----------------------------------------
 BYTE   W96
//  #05 //016   ----------------------------------------
 BYTE   W96
//  #05 //017   ----------------------------------------
 BYTE   W96
//  #05 //018   ----------------------------------------
 BYTE   W96
//  #05 //019   ----------------------------------------
 BYTE   W96
//  #05 //020   ----------------------------------------
 BYTE   W96
//  #05 //021   ----------------------------------------
 BYTE   W96
//  #05 //022   ----------------------------------------
 BYTE   W96
//  #05 //023   ----------------------------------------
 BYTE   W96
//  #05 //024   ----------------------------------------
 BYTE   W96
//  #05 //025   ----------------------------------------
 BYTE   W96
//  #05 //026   ----------------------------------------
 BYTE   W96
//  #05 //027   ----------------------------------------
 BYTE   W96
//  #05 //028   ----------------------------------------
 BYTE   W96
//  #05 //029   ----------------------------------------
 BYTE   W96
//  #05 //030   ----------------------------------------
 BYTE   W96
//  #05 //031   ----------------------------------------
 BYTE   W96
//  #05 //032   ----------------------------------------
 BYTE   W96
//  #05 //033   ----------------------------------------
 BYTE   W96
//  #05 //034   ----------------------------------------
 BYTE   W96
//  #05 //035   ----------------------------------------
 BYTE   W96
//  #05 //036   ----------------------------------------
 BYTE   W96
//  #05 //037   ----------------------------------------
 BYTE   W96
//  #05 //038   ----------------------------------------
 BYTE   W96
//  #05 //039   ----------------------------------------
 BYTE   W96
//  #05 //040   ----------------------------------------
 BYTE   W96
//  #05 //041   ----------------------------------------
 BYTE   W96
//  #05 //042   ----------------------------------------
 BYTE   W96
//  #05 //043   ----------------------------------------
 BYTE   W96
//  #05 //044   ----------------------------------------
Label_01782CCE:
 BYTE   W12
 BYTE   N12  Fs2  v064
 BYTE   W24
 BYTE   Bn2
 BYTE   W24
 BYTE   As2
 BYTE   W24
 BYTE   Gs2
 BYTE   W12
 BYTE   PEND 
//  #05 //045   ----------------------------------------
 BYTE   PATT
  POIN2 Label_01782CCE
//  #05 //046   ----------------------------------------
 BYTE   PATT
  POIN2 Label_01782CCE
//  #05 //047   ----------------------------------------
 BYTE   PATT
  POIN2 Label_01782CCE
//  #05 //048   ----------------------------------------
 BYTE   PATT
  POIN2 Label_01782CCE
//  #05 //049   ----------------------------------------
 BYTE   PATT
  POIN2 Label_01782CCE
//  #05 //050   ----------------------------------------
 BYTE   PATT
  POIN2 Label_01782CCE
//  #05 //051   ----------------------------------------
 BYTE   PATT
  POIN2 Label_01782CCE
//  #05 //052   ----------------------------------------
 BYTE   PATT
  POIN2 Label_01782CCE
//  #05 //053   ----------------------------------------
 BYTE   PATT
  POIN2 Label_01782CCE
//  #05 //054   ----------------------------------------
 BYTE   PATT
  POIN2 Label_01782CCE
//  #05 //055   ----------------------------------------
 BYTE   PATT
  POIN2 Label_01782CCE
//  #05 //056   ----------------------------------------
 BYTE   PATT
  POIN2 Label_01782CCE
//  #05 //057   ----------------------------------------
 BYTE   PATT
  POIN2 Label_01782CCE
//  #05 //058   ----------------------------------------
 BYTE   PATT
  POIN2 Label_01782CCE
//  #05 //059   ----------------------------------------
 BYTE   PATT
  POIN2 Label_01782CCE
//  #05 //060   ----------------------------------------
 BYTE   PATT
  POIN2 Label_01782CCE
//  #05 //061   ----------------------------------------
 BYTE   PATT
  POIN2 Label_01782CCE
//  #05 //062   ----------------------------------------
 BYTE   PATT
  POIN2 Label_01782CCE
//  #05 //063   ----------------------------------------
 BYTE   PATT
  POIN2 Label_01782CCE
//  #05 //064   ----------------------------------------
 BYTE   PATT
  POIN2 Label_01782CCE
//  #05 //065   ----------------------------------------
 BYTE   PATT
  POIN2 Label_01782CCE
//  #05 //066   ----------------------------------------
 BYTE   PATT
  POIN2 Label_01782CCE
//  #05 //067   ----------------------------------------
 BYTE   PATT
  POIN2 Label_01782CCE
//  #05 //068   ----------------------------------------
 BYTE   PATT
  POIN2 Label_01782CCE
//  #05 //069   ----------------------------------------
 BYTE   PATT
  POIN2 Label_01782CCE
//  #05 //070   ----------------------------------------
 BYTE   PATT
  POIN2 Label_01782CCE
//  #05 //071   ----------------------------------------
 BYTE   PATT
  POIN2 Label_01782CCE
//  #05 //072   ----------------------------------------
 BYTE   PATT
  POIN2 Label_01782CCE
//  #05 //073   ----------------------------------------
 BYTE   PATT
  POIN2 Label_01782CCE
//  #05 //074   ----------------------------------------
 BYTE   PATT
  POIN2 Label_01782CCE
//  #05 //075   ----------------------------------------
 BYTE   PATT
  POIN2 Label_01782CCE
//  #05 //076   ----------------------------------------
 BYTE   W96
//  #05 //077   ----------------------------------------
 BYTE   W96
//  #05 //078   ----------------------------------------
 BYTE   W96
//  #05 //079   ----------------------------------------
 BYTE   W96
//  #05 //080   ----------------------------------------
 BYTE   W96
//  #05 //081   ----------------------------------------
 BYTE   W96
//  #05 //082   ----------------------------------------
 BYTE   W96
//  #05 //083   ----------------------------------------
 BYTE   W96
//  #05 //084   ----------------------------------------
 BYTE   W96
//  #05 //085   ----------------------------------------
 BYTE   W96
//  #05 //086   ----------------------------------------
 BYTE   W96
//  #05 //087   ----------------------------------------
 BYTE   W96
//  #05 //088   ----------------------------------------
 BYTE   W96
//  #05 //089   ----------------------------------------
 BYTE   W96
//  #05 //090   ----------------------------------------
 BYTE   W96
//  #05 //091   ----------------------------------------
 BYTE   W96
//  #05 //092   ----------------------------------------
 BYTE   PATT
  POIN2 Label_01782CCE
//  #05 //093   ----------------------------------------
 BYTE   PATT
  POIN2 Label_01782CCE
//  #05 //094   ----------------------------------------
 BYTE   PATT
  POIN2 Label_01782CCE
//  #05 //095   ----------------------------------------
 BYTE   PATT
  POIN2 Label_01782CCE
//  #05 //096   ----------------------------------------
 BYTE   PATT
  POIN2 Label_01782CCE
//  #05 //097   ----------------------------------------
 BYTE   PATT
  POIN2 Label_01782CCE
//  #05 //098   ----------------------------------------
 BYTE   PATT
  POIN2 Label_01782CCE
//  #05 //099   ----------------------------------------
 BYTE   PATT
  POIN2 Label_01782CCE
//  #05 //100   ----------------------------------------
 BYTE   W96
//  #05 //101   ----------------------------------------
 BYTE   W96
//  #05 //102   ----------------------------------------
 BYTE   W96
//  #05 //103   ----------------------------------------
 BYTE   W96
//  #05 //104   ----------------------------------------
 BYTE   W96
//  #05 //105   ----------------------------------------
 BYTE   W96
//  #05 //106   ----------------------------------------
 BYTE   W96
//  #05 //107   ----------------------------------------
 BYTE   W96
//  #05 //108   ----------------------------------------
 BYTE   W96
//  #05 //109   ----------------------------------------
 BYTE   W96
//  #05 //110   ----------------------------------------
 BYTE   W96
//  #05 //111   ----------------------------------------
 BYTE   W96
//  #05 //112   ----------------------------------------
 BYTE   W96
//  #05 //113   ----------------------------------------
 BYTE   W96
//  #05 //114   ----------------------------------------
 BYTE   W96
//  #05 //115   ----------------------------------------
 BYTE   W96
//  #05 //116   ----------------------------------------
Label_01782DBD:
 BYTE   N12  Gs2  v064
 BYTE   W36
 BYTE   N12
 BYTE   W36
 BYTE   N12
 BYTE   W24
 BYTE   PEND 
//  #05 //117   ----------------------------------------
Label_01782DC6:
 BYTE   N12  Bn2  v064
 BYTE   W36
 BYTE   N12
 BYTE   W36
 BYTE   N12
 BYTE   W24
 BYTE   PEND 
//  #05 //118   ----------------------------------------
Label_01782DCF:
 BYTE   N12  Fs2  v064
 BYTE   W36
 BYTE   N12
 BYTE   W36
 BYTE   N12
 BYTE   W24
 BYTE   PEND 
//  #05 //119   ----------------------------------------
Label_01782DD8:
 BYTE   N12  Ds2  v064
 BYTE   W36
 BYTE   N12
 BYTE   W36
 BYTE   N12
 BYTE   W24
 BYTE   PEND 
//  #05 //120   ----------------------------------------
 BYTE   PATT
  POIN2 Label_01782DBD
//  #05 //121   ----------------------------------------
 BYTE   PATT
  POIN2 Label_01782DC6
//  #05 //122   ----------------------------------------
 BYTE   PATT
  POIN2 Label_01782DCF
//  #05 //123   ----------------------------------------
 BYTE   PATT
  POIN2 Label_01782DD8
//  #05 //124   ----------------------------------------
 BYTE   GoTo
  POIN2 Label_01782C9A
 BYTE   FINE

//**************** Track 6 (Midi-Chn.5) ****************//

ModernDayOuroboros_006:
//  #06 //000   ----------------------------------------
 BYTE   VOL   65*ModernDayOuroboros_mvl/mxv
 BYTE   KEYSH   ModernDayOuroboros_key+0
Label_017830C0:
 BYTE   VOICE   81
 BYTE   MODT 0
 BYTE   LFOS 44
 BYTE   W96
//  #06 //001   ----------------------------------------
 BYTE   W96
//  #06 //002   ----------------------------------------
 BYTE   W96
//  #06 //003   ----------------------------------------
 BYTE   W96
//  #06 //004   ----------------------------------------
 BYTE   W96
//  #06 //005   ----------------------------------------
 BYTE   W96
//  #06 //006   ----------------------------------------
 BYTE   W96
//  #06 //007   ----------------------------------------
 BYTE   W96
//  #06 //008   ----------------------------------------
 BYTE   W96
//  #06 //009   ----------------------------------------
 BYTE   W96
//  #06 //010   ----------------------------------------
 BYTE   W96
//  #06 //011   ----------------------------------------
 BYTE   W96
//  #06 //012   ----------------------------------------
 BYTE   W96
//  #06 //013   ----------------------------------------
 BYTE   W96
//  #06 //014   ----------------------------------------
 BYTE   W96
//  #06 //015   ----------------------------------------
 BYTE   W96
//  #06 //016   ----------------------------------------
 BYTE   W96
//  #06 //017   ----------------------------------------
 BYTE   W96
//  #06 //018   ----------------------------------------
 BYTE   W96
//  #06 //019   ----------------------------------------
 BYTE   W96
//  #06 //020   ----------------------------------------
 BYTE   W96
//  #06 //021   ----------------------------------------
 BYTE   W96
//  #06 //022   ----------------------------------------
 BYTE   W96
//  #06 //023   ----------------------------------------
 BYTE   W96
//  #06 //024   ----------------------------------------
 BYTE   W96
//  #06 //025   ----------------------------------------
 BYTE   W96
//  #06 //026   ----------------------------------------
 BYTE   W96
//  #06 //027   ----------------------------------------
 BYTE   W96
//  #06 //028   ----------------------------------------
 BYTE   W96
//  #06 //029   ----------------------------------------
 BYTE   W96
//  #06 //030   ----------------------------------------
 BYTE   W96
//  #06 //031   ----------------------------------------
 BYTE   W96
//  #06 //032   ----------------------------------------
 BYTE   W96
//  #06 //033   ----------------------------------------
 BYTE   W96
//  #06 //034   ----------------------------------------
 BYTE   W96
//  #06 //035   ----------------------------------------
 BYTE   W96
//  #06 //036   ----------------------------------------
 BYTE   W96
//  #06 //037   ----------------------------------------
 BYTE   W96
//  #06 //038   ----------------------------------------
 BYTE   W96
//  #06 //039   ----------------------------------------
 BYTE   W96
//  #06 //040   ----------------------------------------
 BYTE   W96
//  #06 //041   ----------------------------------------
 BYTE   W96
//  #06 //042   ----------------------------------------
 BYTE   W96
//  #06 //043   ----------------------------------------
 BYTE   W96
//  #06 //044   ----------------------------------------
Label_017830F2:
 BYTE   W24
 BYTE   N24  Gs1  v100
 BYTE   W24
 BYTE   N12  As1
 BYTE   W12
 BYTE   N36  Bn1
 BYTE   W36
 BYTE   PEND 
//  #06 //045   ----------------------------------------
Label_017830FE:
 BYTE   N12  En2  v100
 BYTE   W12
 BYTE   N24  Ds2
 BYTE   W24
 BYTE   Cs2
 BYTE   W24
 BYTE   TIE  Bn1
 BYTE   W36
 BYTE   PEND 
//  #06 //046   ----------------------------------------
 BYTE   W72
 BYTE   EOT
 BYTE   N96  As1
 BYTE   W24
//  #06 //047   ----------------------------------------
 BYTE   W72
 BYTE   N24  Gs1  v127
 BYTE   W24
//  #06 //048   ----------------------------------------
 BYTE   PATT
  POIN2 Label_017830F2
//  #06 //049   ----------------------------------------
 BYTE   PATT
  POIN2 Label_017830FE
//  #06 //050   ----------------------------------------
 BYTE   W72
 BYTE   EOT
 BYTE   Bn1
 BYTE   N96  As1  v100
 BYTE   W24
//  #06 //051   ----------------------------------------
 BYTE   W72
 BYTE   N24  Gs1  v127
 BYTE   W24
//  #06 //052   ----------------------------------------
 BYTE   PATT
  POIN2 Label_017830F2
//  #06 //053   ----------------------------------------
 BYTE   PATT
  POIN2 Label_017830FE
//  #06 //054   ----------------------------------------
 BYTE   W72
 BYTE   EOT
 BYTE   Bn1
 BYTE   N96  As1  v100
 BYTE   W24
//  #06 //055   ----------------------------------------
 BYTE   W72
 BYTE   N24  Gs1  v127
 BYTE   W24
//  #06 //056   ----------------------------------------
 BYTE   PATT
  POIN2 Label_017830F2
//  #06 //057   ----------------------------------------
 BYTE   PATT
  POIN2 Label_017830FE
//  #06 //058   ----------------------------------------
 BYTE   W72
 BYTE   EOT
 BYTE   Bn1
 BYTE   N96  As1  v100
 BYTE   W24
//  #06 //059   ----------------------------------------
 BYTE   W72
 BYTE   N24  Gs1  v127
 BYTE   W24
//  #06 //060   ----------------------------------------
 BYTE   W96
//  #06 //061   ----------------------------------------
 BYTE   W96
//  #06 //062   ----------------------------------------
 BYTE   W96
//  #06 //063   ----------------------------------------
 BYTE   W96
//  #06 //064   ----------------------------------------
 BYTE   W96
//  #06 //065   ----------------------------------------
 BYTE   W96
//  #06 //066   ----------------------------------------
 BYTE   W96
//  #06 //067   ----------------------------------------
 BYTE   W96
//  #06 //068   ----------------------------------------
 BYTE   W96
//  #06 //069   ----------------------------------------
 BYTE   W96
//  #06 //070   ----------------------------------------
 BYTE   W96
//  #06 //071   ----------------------------------------
 BYTE   W96
//  #06 //072   ----------------------------------------
 BYTE   W96
//  #06 //073   ----------------------------------------
 BYTE   W96
//  #06 //074   ----------------------------------------
 BYTE   W96
//  #06 //075   ----------------------------------------
 BYTE   W96
//  #06 //076   ----------------------------------------
Label_01783167:
 BYTE   N12  Gs2  v064
 BYTE   W36
 BYTE   N12
 BYTE   W36
 BYTE   N12
 BYTE   W24
 BYTE   PEND 
//  #06 //077   ----------------------------------------
Label_01783170:
 BYTE   N12  Bn2  v064
 BYTE   W36
 BYTE   N12
 BYTE   W36
 BYTE   N12
 BYTE   W24
 BYTE   PEND 
//  #06 //078   ----------------------------------------
Label_01783179:
 BYTE   N12  Fs2  v064
 BYTE   W36
 BYTE   N12
 BYTE   W36
 BYTE   N12
 BYTE   W24
 BYTE   PEND 
//  #06 //079   ----------------------------------------
Label_01783182:
 BYTE   N12  Ds2  v064
 BYTE   W36
 BYTE   N12
 BYTE   W36
 BYTE   N12
 BYTE   W24
 BYTE   PEND 
//  #06 //080   ----------------------------------------
 BYTE   PATT
  POIN2 Label_01783167
//  #06 //081   ----------------------------------------
 BYTE   PATT
  POIN2 Label_01783170
//  #06 //082   ----------------------------------------
 BYTE   PATT
  POIN2 Label_01783179
//  #06 //083   ----------------------------------------
 BYTE   PATT
  POIN2 Label_01783182
//  #06 //084   ----------------------------------------
 BYTE   PATT
  POIN2 Label_01783167
//  #06 //085   ----------------------------------------
 BYTE   PATT
  POIN2 Label_01783170
//  #06 //086   ----------------------------------------
 BYTE   PATT
  POIN2 Label_01783179
//  #06 //087   ----------------------------------------
 BYTE   PATT
  POIN2 Label_01783182
//  #06 //088   ----------------------------------------
 BYTE   PATT
  POIN2 Label_01783167
//  #06 //089   ----------------------------------------
 BYTE   PATT
  POIN2 Label_01783170
//  #06 //090   ----------------------------------------
 BYTE   PATT
  POIN2 Label_01783179
//  #06 //091   ----------------------------------------
 BYTE   PATT
  POIN2 Label_01783182
//  #06 //092   ----------------------------------------
 BYTE   W96
//  #06 //093   ----------------------------------------
 BYTE   W96
//  #06 //094   ----------------------------------------
 BYTE   W96
//  #06 //095   ----------------------------------------
 BYTE   W96
//  #06 //096   ----------------------------------------
 BYTE   W96
//  #06 //097   ----------------------------------------
 BYTE   W96
//  #06 //098   ----------------------------------------
 BYTE   W96
//  #06 //099   ----------------------------------------
 BYTE   W96
//  #06 //100   ----------------------------------------
 BYTE   W96
//  #06 //101   ----------------------------------------
 BYTE   W96
//  #06 //102   ----------------------------------------
 BYTE   W96
//  #06 //103   ----------------------------------------
 BYTE   W96
//  #06 //104   ----------------------------------------
 BYTE   W96
//  #06 //105   ----------------------------------------
 BYTE   W96
//  #06 //106   ----------------------------------------
 BYTE   W96
//  #06 //107   ----------------------------------------
 BYTE   W96
//  #06 //108   ----------------------------------------
 BYTE   W96
//  #06 //109   ----------------------------------------
 BYTE   W96
//  #06 //110   ----------------------------------------
 BYTE   W96
//  #06 //111   ----------------------------------------
 BYTE   W96
//  #06 //112   ----------------------------------------
 BYTE   W96
//  #06 //113   ----------------------------------------
 BYTE   W96
//  #06 //114   ----------------------------------------
 BYTE   W96
//  #06 //115   ----------------------------------------
 BYTE   W96
//  #06 //116   ----------------------------------------
 BYTE   W96
//  #06 //117   ----------------------------------------
 BYTE   W96
//  #06 //118   ----------------------------------------
 BYTE   W96
//  #06 //119   ----------------------------------------
 BYTE   W96
//  #06 //120   ----------------------------------------
 BYTE   W96
//  #06 //121   ----------------------------------------
 BYTE   W96
//  #06 //122   ----------------------------------------
 BYTE   W96
//  #06 //123   ----------------------------------------
 BYTE   W96
//  #06 //124   ----------------------------------------
 BYTE   GoTo
  POIN2 Label_017830C0
 BYTE   FINE

//**************** Track 7 (Midi-Chn.6) ****************//

ModernDayOuroboros_007:
//  #07 //000   ----------------------------------------
 BYTE   VOL  65*ModernDayOuroboros_mvl/mxv
 BYTE   KEYSH   ModernDayOuroboros_key+0
Label_01783220:
 BYTE   VOICE   100
 BYTE   MODT 0
 BYTE   LFOS 44
 BYTE   W96
//  #07 //001   ----------------------------------------
 BYTE   W96
//  #07 //002   ----------------------------------------
 BYTE   W96
//  #07 //003   ----------------------------------------
 BYTE   W96
//  #07 //004   ----------------------------------------
 BYTE   W96
//  #07 //005   ----------------------------------------
 BYTE   W96
//  #07 //006   ----------------------------------------
 BYTE   W96
//  #07 //007   ----------------------------------------
 BYTE   W96
//  #07 //008   ----------------------------------------
 BYTE   W96
//  #07 //009   ----------------------------------------
 BYTE   W96
//  #07 //010   ----------------------------------------
 BYTE   W96
//  #07 //011   ----------------------------------------
 BYTE   W96
//  #07 //012   ----------------------------------------
 BYTE   W96
//  #07 //013   ----------------------------------------
 BYTE   W96
//  #07 //014   ----------------------------------------
 BYTE   W96
//  #07 //015   ----------------------------------------
 BYTE   W96
//  #07 //016   ----------------------------------------
 BYTE   W96
//  #07 //017   ----------------------------------------
 BYTE   W96
//  #07 //018   ----------------------------------------
 BYTE   W96
//  #07 //019   ----------------------------------------
 BYTE   W96
//  #07 //020   ----------------------------------------
 BYTE   W96
//  #07 //021   ----------------------------------------
 BYTE   W96
//  #07 //022   ----------------------------------------
 BYTE   W96
//  #07 //023   ----------------------------------------
 BYTE   W96
//  #07 //024   ----------------------------------------
 BYTE   W96
//  #07 //025   ----------------------------------------
 BYTE   W96
//  #07 //026   ----------------------------------------
 BYTE   W96
//  #07 //027   ----------------------------------------
 BYTE   W96
//  #07 //028   ----------------------------------------
 BYTE   W96
//  #07 //029   ----------------------------------------
 BYTE   W96
//  #07 //030   ----------------------------------------
 BYTE   W96
//  #07 //031   ----------------------------------------
 BYTE   W96
//  #07 //032   ----------------------------------------
 BYTE   W96
//  #07 //033   ----------------------------------------
 BYTE   W96
//  #07 //034   ----------------------------------------
 BYTE   W96
//  #07 //035   ----------------------------------------
 BYTE   W96
//  #07 //036   ----------------------------------------
 BYTE   W96
//  #07 //037   ----------------------------------------
 BYTE   W96
//  #07 //038   ----------------------------------------
 BYTE   W96
//  #07 //039   ----------------------------------------
 BYTE   W96
//  #07 //040   ----------------------------------------
 BYTE   W96
//  #07 //041   ----------------------------------------
 BYTE   W96
//  #07 //042   ----------------------------------------
 BYTE   W96
//  #07 //043   ----------------------------------------
 BYTE   W96
//  #07 //044   ----------------------------------------
 BYTE   W96
//  #07 //045   ----------------------------------------
 BYTE   W96
//  #07 //046   ----------------------------------------
 BYTE   W96
//  #07 //047   ----------------------------------------
 BYTE   W96
//  #07 //048   ----------------------------------------
 BYTE   W96
//  #07 //049   ----------------------------------------
 BYTE   W96
//  #07 //050   ----------------------------------------
 BYTE   W96
//  #07 //051   ----------------------------------------
 BYTE   W96
//  #07 //052   ----------------------------------------
 BYTE   W96
//  #07 //053   ----------------------------------------
 BYTE   W96
//  #07 //054   ----------------------------------------
 BYTE   W96
//  #07 //055   ----------------------------------------
 BYTE   W96
//  #07 //056   ----------------------------------------
 BYTE   W96
//  #07 //057   ----------------------------------------
 BYTE   W96
//  #07 //058   ----------------------------------------
 BYTE   W96
//  #07 //059   ----------------------------------------
 BYTE   W96
//  #07 //060   ----------------------------------------
Label_01783262:
 BYTE   N36  Gs1  v100
 BYTE   W36
 BYTE   N36
 BYTE   W36
 BYTE   N24
 BYTE   W24
 BYTE   PEND 
//  #07 //061   ----------------------------------------
Label_0178326B:
 BYTE   N24  Gs1  v100
 BYTE   W24
 BYTE   N12  As1
 BYTE   W12
 BYTE   N24  Bn1
 BYTE   W24
 BYTE   N12  Ds2
 BYTE   W12
 BYTE   N24  Gs1
 BYTE   W24
 BYTE   PEND 
//  #07 //062   ----------------------------------------
 BYTE   PATT
  POIN2 Label_01783262
//  #07 //063   ----------------------------------------
Label_01783281:
 BYTE   N24  Gs1  v100
 BYTE   W24
 BYTE   N12  As1
 BYTE   W12
 BYTE   N24  Bn1
 BYTE   W24
 BYTE   N12  Ds2
 BYTE   W12
 BYTE   N24  Bn1
 BYTE   W24
 BYTE   PEND 
//  #07 //064   ----------------------------------------
 BYTE   PATT
  POIN2 Label_01783262
//  #07 //065   ----------------------------------------
 BYTE   PATT
  POIN2 Label_0178326B
//  #07 //066   ----------------------------------------
 BYTE   PATT
  POIN2 Label_01783262
//  #07 //067   ----------------------------------------
 BYTE   PATT
  POIN2 Label_01783281
//  #07 //068   ----------------------------------------
 BYTE   W96
//  #07 //069   ----------------------------------------
 BYTE   W96
//  #07 //070   ----------------------------------------
 BYTE   W96
//  #07 //071   ----------------------------------------
 BYTE   W96
//  #07 //072   ----------------------------------------
 BYTE   W96
//  #07 //073   ----------------------------------------
 BYTE   W96
//  #07 //074   ----------------------------------------
 BYTE   W96
//  #07 //075   ----------------------------------------
 BYTE   W96
//  #07 //076   ----------------------------------------
 BYTE   W96
//  #07 //077   ----------------------------------------
 BYTE   W96
//  #07 //078   ----------------------------------------
 BYTE   W96
//  #07 //079   ----------------------------------------
 BYTE   W96
//  #07 //080   ----------------------------------------
 BYTE   W96
//  #07 //081   ----------------------------------------
 BYTE   W96
//  #07 //082   ----------------------------------------
 BYTE   W96
//  #07 //083   ----------------------------------------
 BYTE   W96
//  #07 //084   ----------------------------------------
 BYTE   W96
//  #07 //085   ----------------------------------------
 BYTE   W96
//  #07 //086   ----------------------------------------
 BYTE   W96
//  #07 //087   ----------------------------------------
 BYTE   W96
//  #07 //088   ----------------------------------------
 BYTE   W96
//  #07 //089   ----------------------------------------
 BYTE   W96
//  #07 //090   ----------------------------------------
 BYTE   W96
//  #07 //091   ----------------------------------------
 BYTE   W96
//  #07 //092   ----------------------------------------
 BYTE   W96
//  #07 //093   ----------------------------------------
 BYTE   W96
//  #07 //094   ----------------------------------------
 BYTE   W96
//  #07 //095   ----------------------------------------
 BYTE   W96
//  #07 //096   ----------------------------------------
 BYTE   W96
//  #07 //097   ----------------------------------------
 BYTE   W96
//  #07 //098   ----------------------------------------
 BYTE   W96
//  #07 //099   ----------------------------------------
 BYTE   W96
//  #07 //100   ----------------------------------------
 BYTE   W96
//  #07 //101   ----------------------------------------
 BYTE   W96
//  #07 //102   ----------------------------------------
 BYTE   W96
//  #07 //103   ----------------------------------------
 BYTE   W96
//  #07 //104   ----------------------------------------
 BYTE   W96
//  #07 //105   ----------------------------------------
 BYTE   W96
//  #07 //106   ----------------------------------------
 BYTE   W96
//  #07 //107   ----------------------------------------
 BYTE   W96
//  #07 //108   ----------------------------------------
 BYTE   W96
//  #07 //109   ----------------------------------------
 BYTE   W96
//  #07 //110   ----------------------------------------
 BYTE   W96
//  #07 //111   ----------------------------------------
 BYTE   W96
//  #07 //112   ----------------------------------------
 BYTE   W96
//  #07 //113   ----------------------------------------
 BYTE   W96
//  #07 //114   ----------------------------------------
 BYTE   W96
//  #07 //115   ----------------------------------------
 BYTE   W96
//  #07 //116   ----------------------------------------
 BYTE   W96
//  #07 //117   ----------------------------------------
 BYTE   W96
//  #07 //118   ----------------------------------------
 BYTE   W96
//  #07 //119   ----------------------------------------
 BYTE   W96
//  #07 //120   ----------------------------------------
 BYTE   W96
//  #07 //121   ----------------------------------------
 BYTE   W96
//  #07 //122   ----------------------------------------
 BYTE   W96
//  #07 //123   ----------------------------------------
 BYTE   W96
//  #07 //124   ----------------------------------------
 BYTE   GoTo
  POIN2 Label_01783220
 BYTE   FINE

//**************** Track 8 (Midi-Chn.7) ****************//

ModernDayOuroboros_008:
//  #08 //000   ----------------------------------------
 BYTE   KEYSH   ModernDayOuroboros_key+0
Label_01EF8AE2:
 BYTE   VOICE   10
 BYTE   MODT 0
 BYTE   LFOS 44
 BYTE   VOL   34*ModernDayOuroboros_mvl/mxv
 BYTE   W96
//  #08 //001   ----------------------------------------
 BYTE   W96
//  #08 //002   ----------------------------------------
 BYTE   W96
//  #08 //003   ----------------------------------------
 BYTE   W96
//  #08 //004   ----------------------------------------
 BYTE   W96
//  #08 //005   ----------------------------------------
 BYTE   W96
//  #08 //006   ----------------------------------------
 BYTE   W96
//  #08 //007   ----------------------------------------
 BYTE   W96
//  #08 //008   ----------------------------------------
 BYTE   W96
//  #08 //009   ----------------------------------------
 BYTE   W96
//  #08 //010   ----------------------------------------
 BYTE   W96
//  #08 //011   ----------------------------------------
 BYTE   W96
//  #08 //012   ----------------------------------------
 BYTE   W96
//  #08 //013   ----------------------------------------
 BYTE   W96
//  #08 //014   ----------------------------------------
 BYTE   W96
//  #08 //015   ----------------------------------------
 BYTE   W96
//  #08 //016   ----------------------------------------
 BYTE   W96
//  #08 //017   ----------------------------------------
 BYTE   W96
//  #08 //018   ----------------------------------------
 BYTE   W96
//  #08 //019   ----------------------------------------
 BYTE   W96
//  #08 //020   ----------------------------------------
 BYTE   W96
//  #08 //021   ----------------------------------------
 BYTE   W96
//  #08 //022   ----------------------------------------
 BYTE   W96
//  #08 //023   ----------------------------------------
 BYTE   W96
//  #08 //024   ----------------------------------------
 BYTE   W96
//  #08 //025   ----------------------------------------
 BYTE   W96
//  #08 //026   ----------------------------------------
 BYTE   W96
//  #08 //027   ----------------------------------------
 BYTE   W96
//  #08 //028   ----------------------------------------
 BYTE   W96
//  #08 //029   ----------------------------------------
 BYTE   W96
//  #08 //030   ----------------------------------------
 BYTE   W96
//  #08 //031   ----------------------------------------
 BYTE   W96
//  #08 //032   ----------------------------------------
 BYTE   W96
//  #08 //033   ----------------------------------------
 BYTE   W96
//  #08 //034   ----------------------------------------
 BYTE   W96
//  #08 //035   ----------------------------------------
 BYTE   W96
//  #08 //036   ----------------------------------------
 BYTE   W96
//  #08 //037   ----------------------------------------
 BYTE   W96
//  #08 //038   ----------------------------------------
 BYTE   W96
//  #08 //039   ----------------------------------------
 BYTE   W96
//  #08 //040   ----------------------------------------
 BYTE   W96
//  #08 //041   ----------------------------------------
 BYTE   W96
//  #08 //042   ----------------------------------------
 BYTE   W96
//  #08 //043   ----------------------------------------
 BYTE   W96
//  #08 //044   ----------------------------------------
 BYTE   W96
//  #08 //045   ----------------------------------------
 BYTE   W96
//  #08 //046   ----------------------------------------
 BYTE   W96
//  #08 //047   ----------------------------------------
 BYTE   W96
//  #08 //048   ----------------------------------------
 BYTE   W96
//  #08 //049   ----------------------------------------
 BYTE   W96
//  #08 //050   ----------------------------------------
 BYTE   W96
//  #08 //051   ----------------------------------------
 BYTE   W96
//  #08 //052   ----------------------------------------
 BYTE   W96
//  #08 //053   ----------------------------------------
 BYTE   W96
//  #08 //054   ----------------------------------------
 BYTE   W96
//  #08 //055   ----------------------------------------
 BYTE   W96
//  #08 //056   ----------------------------------------
 BYTE   W96
//  #08 //057   ----------------------------------------
 BYTE   W96
//  #08 //058   ----------------------------------------
 BYTE   W96
//  #08 //059   ----------------------------------------
 BYTE   W96
//  #08 //060   ----------------------------------------
 BYTE   W96
//  #08 //061   ----------------------------------------
 BYTE   W96
//  #08 //062   ----------------------------------------
 BYTE   W96
//  #08 //063   ----------------------------------------
 BYTE   W96
//  #08 //064   ----------------------------------------
 BYTE   W96
//  #08 //065   ----------------------------------------
 BYTE   W96
//  #08 //066   ----------------------------------------
 BYTE   W96
//  #08 //067   ----------------------------------------
 BYTE   W96
//  #08 //068   ----------------------------------------
 BYTE   W96
//  #08 //069   ----------------------------------------
 BYTE   W96
//  #08 //070   ----------------------------------------
 BYTE   W96
//  #08 //071   ----------------------------------------
 BYTE   W96
//  #08 //072   ----------------------------------------
 BYTE   W96
//  #08 //073   ----------------------------------------
 BYTE   W96
//  #08 //074   ----------------------------------------
 BYTE   W96
//  #08 //075   ----------------------------------------
 BYTE   W96
//  #08 //076   ----------------------------------------
 BYTE   W96
//  #08 //077   ----------------------------------------
 BYTE   W96
//  #08 //078   ----------------------------------------
 BYTE   W96
//  #08 //079   ----------------------------------------
 BYTE   W96
//  #08 //080   ----------------------------------------
 BYTE   W96
//  #08 //081   ----------------------------------------
 BYTE   W96
//  #08 //082   ----------------------------------------
 BYTE   W96
//  #08 //083   ----------------------------------------
 BYTE   W96
//  #08 //084   ----------------------------------------
 BYTE   W96
//  #08 //085   ----------------------------------------
 BYTE   W96
//  #08 //086   ----------------------------------------
 BYTE   W96
//  #08 //087   ----------------------------------------
 BYTE   W96
//  #08 //088   ----------------------------------------
 BYTE   W96
//  #08 //089   ----------------------------------------
 BYTE   W96
//  #08 //090   ----------------------------------------
 BYTE   W96
//  #08 //091   ----------------------------------------
 BYTE   W96
//  #08 //092   ----------------------------------------
 BYTE   W96
//  #08 //093   ----------------------------------------
 BYTE   W96
//  #08 //094   ----------------------------------------
 BYTE   W96
//  #08 //095   ----------------------------------------
 BYTE   W96
//  #08 //096   ----------------------------------------
 BYTE   W96
//  #08 //097   ----------------------------------------
 BYTE   W96
//  #08 //098   ----------------------------------------
 BYTE   W96
//  #08 //099   ----------------------------------------
 BYTE   W96
//  #08 //100   ----------------------------------------
 BYTE   W96
//  #08 //101   ----------------------------------------
 BYTE   W96
//  #08 //102   ----------------------------------------
 BYTE   W96
//  #08 //103   ----------------------------------------
 BYTE   W96
//  #08 //104   ----------------------------------------
 BYTE   W96
//  #08 //105   ----------------------------------------
 BYTE   W96
//  #08 //106   ----------------------------------------
 BYTE   W96
//  #08 //107   ----------------------------------------
 BYTE   W96
//  #08 //108   ----------------------------------------
Label_01EF8B56:
 BYTE   N36  Gs3  v064
 BYTE   W36
 BYTE   N36
 BYTE   W36
 BYTE   N24
 BYTE   W24
 BYTE   PEND 
//  #08 //109   ----------------------------------------
Label_01EF8B5F:
 BYTE   N24  Gs3  v064
 BYTE   W24
 BYTE   N12  As3
 BYTE   W12
 BYTE   N24  Bn3
 BYTE   W24
 BYTE   N12  Ds4
 BYTE   W12
 BYTE   N24  Gs3
 BYTE   W24
 BYTE   PEND 
//  #08 //110   ----------------------------------------
 BYTE   PATT
  POIN2 Label_01EF8B56
//  #08 //111   ----------------------------------------
Label_01EF8B75:
 BYTE   N24  Gs3  v064
 BYTE   W24
 BYTE   N12  As3
 BYTE   W12
 BYTE   N24  Bn3
 BYTE   W24
 BYTE   N12  Ds4
 BYTE   W12
 BYTE   N24  Bn3
 BYTE   W24
 BYTE   PEND 
//  #08 //112   ----------------------------------------
 BYTE   PATT
  POIN2 Label_01EF8B56
//  #08 //113   ----------------------------------------
 BYTE   PATT
  POIN2 Label_01EF8B5F
//  #08 //114   ----------------------------------------
 BYTE   PATT
  POIN2 Label_01EF8B56
//  #08 //115   ----------------------------------------
 BYTE   PATT
  POIN2 Label_01EF8B75
//  #08 //116   ----------------------------------------
 BYTE   W96
//  #08 //117   ----------------------------------------
 BYTE   W96
//  #08 //118   ----------------------------------------
 BYTE   W96
//  #08 //119   ----------------------------------------
 BYTE   W96
//  #08 //120   ----------------------------------------
 BYTE   W96
//  #08 //121   ----------------------------------------
 BYTE   W96
//  #08 //122   ----------------------------------------
 BYTE   W96
//  #08 //123   ----------------------------------------
 BYTE   W96
//  #08 //124   ----------------------------------------
 BYTE   GoTo
  POIN2 Label_01EF8AE2
 BYTE   FINE

//**************** Track 9 (Midi-Chn.8) ****************//

ModernDayOuroboros_009:
//  #09 //000   ----------------------------------------
 BYTE   VOL   65*ModernDayOuroboros_mvl/mxv
 BYTE   KEYSH   ModernDayOuroboros_key+0
Label_01EF8BAC:
 BYTE   VOICE   124
 BYTE   MODT 0
 BYTE   LFOS 44
 BYTE   N24  Cn1  v100
 BYTE   W24
 BYTE   N12
 BYTE   W12
 BYTE   N24
 BYTE   W24
 BYTE   N12
 BYTE   W12
 BYTE   N24  Cs1
 BYTE   N24  Ds1
 BYTE   N24  Fs1
 BYTE   W24
//  #09 //001   ----------------------------------------
Label_01EF8BC3:
 BYTE   N24  Cn1  v100
 BYTE   W24
 BYTE   N12
 BYTE   W12
 BYTE   N24
 BYTE   W24
 BYTE   N12
 BYTE   W12
 BYTE   N24  Cs1
 BYTE   N24  Ds1
 BYTE   N24  Fs1
 BYTE   W24
 BYTE   PEND 
//  #09 //002   ----------------------------------------
 BYTE   PATT
  POIN2 Label_01EF8BC3
//  #09 //003   ----------------------------------------
Label_01EF8BDA:
 BYTE   N24  Cn1  v100
 BYTE   W24
 BYTE   N12
 BYTE   W12
 BYTE   N24
 BYTE   W36
 BYTE   Ds1
 BYTE   W24
 BYTE   PEND 
//  #09 //004   ----------------------------------------
Label_01EF8BE5:
 BYTE   N18  Cn1  v100
 BYTE   W18
 BYTE   N06
 BYTE   W06
 BYTE   N12  Dn1
 BYTE   W12
 BYTE   N24  Cn1
 BYTE   W24
 BYTE   N12
 BYTE   W12
 BYTE   Dn1
 BYTE   W12
 BYTE   Cn1
 BYTE   W12
 BYTE   PEND 
//  #09 //005   ----------------------------------------
 BYTE   PATT
  POIN2 Label_01EF8BE5
//  #09 //006   ----------------------------------------
 BYTE   PATT
  POIN2 Label_01EF8BE5
//  #09 //007   ----------------------------------------
 BYTE   PATT
  POIN2 Label_01EF8BE5
//  #09 //008   ----------------------------------------
 BYTE   PATT
  POIN2 Label_01EF8BE5
//  #09 //009   ----------------------------------------
 BYTE   PATT
  POIN2 Label_01EF8BE5
//  #09 //010   ----------------------------------------
 BYTE   PATT
  POIN2 Label_01EF8BE5
//  #09 //011   ----------------------------------------
 BYTE   PATT
  POIN2 Label_01EF8BE5
//  #09 //012   ----------------------------------------
 BYTE   PATT
  POIN2 Label_01EF8BE5
//  #09 //013   ----------------------------------------
 BYTE   PATT
  POIN2 Label_01EF8BE5
//  #09 //014   ----------------------------------------
 BYTE   PATT
  POIN2 Label_01EF8BE5
//  #09 //015   ----------------------------------------
 BYTE   PATT
  POIN2 Label_01EF8BE5
//  #09 //016   ----------------------------------------
Label_01EF8C2F:
 BYTE   N12  Cn1  v100
 BYTE   W12
 BYTE   Fs1
 BYTE   W12
 BYTE   Cn1
 BYTE   W12
 BYTE   Fs1
 BYTE   W12
 BYTE   Cn1
 BYTE   W12
 BYTE   Fs1
 BYTE   W12
 BYTE   Cn1
 BYTE   W12
 BYTE   Fs1
 BYTE   W12
 BYTE   PEND 
//  #09 //017   ----------------------------------------
 BYTE   PATT
  POIN2 Label_01EF8C2F
//  #09 //018   ----------------------------------------
 BYTE   PATT
  POIN2 Label_01EF8C2F
//  #09 //019   ----------------------------------------
 BYTE   PATT
  POIN2 Label_01EF8C2F
//  #09 //020   ----------------------------------------
 BYTE   PATT
  POIN2 Label_01EF8BE5
//  #09 //021   ----------------------------------------
 BYTE   PATT
  POIN2 Label_01EF8BE5
//  #09 //022   ----------------------------------------
 BYTE   PATT
  POIN2 Label_01EF8BE5
//  #09 //023   ----------------------------------------
 BYTE   PATT
  POIN2 Label_01EF8BE5
//  #09 //024   ----------------------------------------
 BYTE   PATT
  POIN2 Label_01EF8BE5
//  #09 //025   ----------------------------------------
 BYTE   PATT
  POIN2 Label_01EF8BE5
//  #09 //026   ----------------------------------------
 BYTE   PATT
  POIN2 Label_01EF8BE5
//  #09 //027   ----------------------------------------
 BYTE   PATT
  POIN2 Label_01EF8BE5
//  #09 //028   ----------------------------------------
Label_01EF8C79:
 BYTE   N12  Cn1  v064
 BYTE   W12
 BYTE   Fs1
 BYTE   W12
 BYTE   Ds1
 BYTE   W12
 BYTE   Fs1
 BYTE   W12
 BYTE   Cn1
 BYTE   W12
 BYTE   Fs1
 BYTE   W12
 BYTE   Ds1
 BYTE   W12
 BYTE   Fs1
 BYTE   W12
 BYTE   PEND 
//  #09 //029   ----------------------------------------
 BYTE   PATT
  POIN2 Label_01EF8C79
//  #09 //030   ----------------------------------------
 BYTE   PATT
  POIN2 Label_01EF8C79
//  #09 //031   ----------------------------------------
Label_01EF8C96:
 BYTE   N12  Cn1  v064
 BYTE   W12
 BYTE   Fs1
 BYTE   W12
 BYTE   Ds1
 BYTE   W12
 BYTE   Fs1
 BYTE   W12
 BYTE   Cn1
 BYTE   W12
 BYTE   Fs1
 BYTE   W12
 BYTE   Cn1
 BYTE   W12
 BYTE   Fs1
 BYTE   W12
 BYTE   PEND 
//  #09 //032   ----------------------------------------
 BYTE   PATT
  POIN2 Label_01EF8C79
//  #09 //033   ----------------------------------------
 BYTE   PATT
  POIN2 Label_01EF8C79
//  #09 //034   ----------------------------------------
 BYTE   PATT
  POIN2 Label_01EF8C79
//  #09 //035   ----------------------------------------
 BYTE   PATT
  POIN2 Label_01EF8C96
//  #09 //036   ----------------------------------------
Label_01EF8CBD:
 BYTE   N24  Cn1  v100
 BYTE   W36
 BYTE   N12
 BYTE   W12
 BYTE   Dn1
 BYTE   W36
 BYTE   Cn1
 BYTE   W12
 BYTE   PEND 
//  #09 //037   ----------------------------------------
 BYTE   PATT
  POIN2 Label_01EF8CBD
//  #09 //038   ----------------------------------------
 BYTE   PATT
  POIN2 Label_01EF8CBD
//  #09 //039   ----------------------------------------
 BYTE   PATT
  POIN2 Label_01EF8CBD
//  #09 //040   ----------------------------------------
 BYTE   PATT
  POIN2 Label_01EF8CBD
//  #09 //041   ----------------------------------------
 BYTE   PATT
  POIN2 Label_01EF8CBD
//  #09 //042   ----------------------------------------
 BYTE   PATT
  POIN2 Label_01EF8CBD
//  #09 //043   ----------------------------------------
 BYTE   PATT
  POIN2 Label_01EF8CBD
//  #09 //044   ----------------------------------------
 BYTE   W96
//  #09 //045   ----------------------------------------
 BYTE   W96
//  #09 //046   ----------------------------------------
 BYTE   W96
//  #09 //047   ----------------------------------------
 BYTE   W96
//  #09 //048   ----------------------------------------
 BYTE   PATT
  POIN2 Label_01EF8BE5
//  #09 //049   ----------------------------------------
 BYTE   PATT
  POIN2 Label_01EF8BE5
//  #09 //050   ----------------------------------------
 BYTE   PATT
  POIN2 Label_01EF8BE5
//  #09 //051   ----------------------------------------
 BYTE   PATT
  POIN2 Label_01EF8BE5
//  #09 //052   ----------------------------------------
 BYTE   PATT
  POIN2 Label_01EF8BE5
//  #09 //053   ----------------------------------------
 BYTE   PATT
  POIN2 Label_01EF8BE5
//  #09 //054   ----------------------------------------
 BYTE   PATT
  POIN2 Label_01EF8BE5
//  #09 //055   ----------------------------------------
 BYTE   PATT
  POIN2 Label_01EF8BE5
//  #09 //056   ----------------------------------------
 BYTE   PATT
  POIN2 Label_01EF8BC3
//  #09 //057   ----------------------------------------
 BYTE   PATT
  POIN2 Label_01EF8BC3
//  #09 //058   ----------------------------------------
 BYTE   PATT
  POIN2 Label_01EF8BC3
//  #09 //059   ----------------------------------------
 BYTE   PATT
  POIN2 Label_01EF8BDA
//  #09 //060   ----------------------------------------
Label_01EF8D2B:
 BYTE   N18  Cn1  v100
 BYTE   N18  An1
 BYTE   W18
 BYTE   N06  Cn1
 BYTE   N18  An1
 BYTE   W06
 BYTE   N12  Dn1
 BYTE   N12  Ds1
 BYTE   W12
 BYTE   N24  Cn1
 BYTE   N18  An1
 BYTE   W24
 BYTE   N12  Cn1
 BYTE   N18  An1
 BYTE   W12
 BYTE   N12  Dn1
 BYTE   N12  Ds1
 BYTE   W12
 BYTE   Cn1
 BYTE   N12  An1
 BYTE   W12
 BYTE   PEND 
//  #09 //061   ----------------------------------------
 BYTE   PATT
  POIN2 Label_01EF8D2B
//  #09 //062   ----------------------------------------
 BYTE   PATT
  POIN2 Label_01EF8D2B
//  #09 //063   ----------------------------------------
 BYTE   PATT
  POIN2 Label_01EF8D2B
//  #09 //064   ----------------------------------------
 BYTE   PATT
  POIN2 Label_01EF8D2B
//  #09 //065   ----------------------------------------
 BYTE   PATT
  POIN2 Label_01EF8D2B
//  #09 //066   ----------------------------------------
 BYTE   PATT
  POIN2 Label_01EF8D2B
//  #09 //067   ----------------------------------------
 BYTE   PATT
  POIN2 Label_01EF8D2B
//  #09 //068   ----------------------------------------
 BYTE   PATT
  POIN2 Label_01EF8D2B
//  #09 //069   ----------------------------------------
 BYTE   PATT
  POIN2 Label_01EF8D2B
//  #09 //070   ----------------------------------------
 BYTE   PATT
  POIN2 Label_01EF8D2B
//  #09 //071   ----------------------------------------
 BYTE   PATT
  POIN2 Label_01EF8D2B
//  #09 //072   ----------------------------------------
 BYTE   PATT
  POIN2 Label_01EF8D2B
//  #09 //073   ----------------------------------------
 BYTE   PATT
  POIN2 Label_01EF8D2B
//  #09 //074   ----------------------------------------
 BYTE   PATT
  POIN2 Label_01EF8D2B
//  #09 //075   ----------------------------------------
 BYTE   PATT
  POIN2 Label_01EF8D2B
//  #09 //076   ----------------------------------------
 BYTE   W96
//  #09 //077   ----------------------------------------
 BYTE   W96
//  #09 //078   ----------------------------------------
 BYTE   W96
//  #09 //079   ----------------------------------------
 BYTE   W96
//  #09 //080   ----------------------------------------
 BYTE   W96
//  #09 //081   ----------------------------------------
 BYTE   W96
//  #09 //082   ----------------------------------------
 BYTE   W96
//  #09 //083   ----------------------------------------
 BYTE   W96
//  #09 //084   ----------------------------------------
 BYTE   W96
//  #09 //085   ----------------------------------------
 BYTE   W96
//  #09 //086   ----------------------------------------
 BYTE   W96
//  #09 //087   ----------------------------------------
 BYTE   W96
//  #09 //088   ----------------------------------------
 BYTE   W96
//  #09 //089   ----------------------------------------
 BYTE   W96
//  #09 //090   ----------------------------------------
 BYTE   W96
//  #09 //091   ----------------------------------------
 BYTE   W96
//  #09 //092   ----------------------------------------
Label_01EF8DAA:
 BYTE   N12  Cn1  v100
 BYTE   W12
 BYTE   Fs1
 BYTE   W12
 BYTE   Cs1
 BYTE   N12  Dn1
 BYTE   W12
 BYTE   Fs1
 BYTE   W12
 BYTE   Cn1
 BYTE   W12
 BYTE   Fs1
 BYTE   W12
 BYTE   Cs1
 BYTE   N12  Dn1
 BYTE   W12
 BYTE   Fs1
 BYTE   W12
 BYTE   PEND 
//  #09 //093   ----------------------------------------
 BYTE   PATT
  POIN2 Label_01EF8DAA
//  #09 //094   ----------------------------------------
 BYTE   PATT
  POIN2 Label_01EF8DAA
//  #09 //095   ----------------------------------------
 BYTE   PATT
  POIN2 Label_01EF8DAA
//  #09 //096   ----------------------------------------
 BYTE   PATT
  POIN2 Label_01EF8DAA
//  #09 //097   ----------------------------------------
 BYTE   PATT
  POIN2 Label_01EF8DAA
//  #09 //098   ----------------------------------------
 BYTE   PATT
  POIN2 Label_01EF8DAA
//  #09 //099   ----------------------------------------
 BYTE   PATT
  POIN2 Label_01EF8DAA
//  #09 //100   ----------------------------------------
 BYTE   W96
//  #09 //101   ----------------------------------------
 BYTE   W96
//  #09 //102   ----------------------------------------
 BYTE   W96
//  #09 //103   ----------------------------------------
 BYTE   W96
//  #09 //104   ----------------------------------------
 BYTE   W96
//  #09 //105   ----------------------------------------
 BYTE   W96
//  #09 //106   ----------------------------------------
 BYTE   W96
//  #09 //107   ----------------------------------------
 BYTE   W96
//  #09 //108   ----------------------------------------
 BYTE   W96
//  #09 //109   ----------------------------------------
 BYTE   W96
//  #09 //110   ----------------------------------------
 BYTE   W96
//  #09 //111   ----------------------------------------
 BYTE   W96
//  #09 //112   ----------------------------------------
 BYTE   W96
//  #09 //113   ----------------------------------------
 BYTE   W96
//  #09 //114   ----------------------------------------
 BYTE   W96
//  #09 //115   ----------------------------------------
 BYTE   W96
//  #09 //116   ----------------------------------------
 BYTE   W96
//  #09 //117   ----------------------------------------
 BYTE   W96
//  #09 //118   ----------------------------------------
 BYTE   W96
//  #09 //119   ----------------------------------------
 BYTE   W96
//  #09 //120   ----------------------------------------
 BYTE   W96
//  #09 //121   ----------------------------------------
 BYTE   W96
//  #09 //122   ----------------------------------------
 BYTE   W96
//  #09 //123   ----------------------------------------
 BYTE   W96
//  #09 //124   ----------------------------------------
 BYTE   GoTo
  POIN2 Label_01EF8BAC
 BYTE   FINE

//******************************************************//
	ALIGN 4

ModernDayOuroboros:
	BYTE	9	// NumTrks
	BYTE	0	// NumBlks
	BYTE	ModernDayOuroboros_pri	// Priority
	BYTE	ModernDayOuroboros_rev	// Reverb.
    
	POIN2	ModernDayOuroboros_grp
    
	POIN2	ModernDayOuroboros_001
	POIN2	ModernDayOuroboros_002
	POIN2	ModernDayOuroboros_003
	POIN2	ModernDayOuroboros_004
	POIN2	ModernDayOuroboros_005
	POIN2	ModernDayOuroboros_006
	POIN2	ModernDayOuroboros_007
	POIN2	ModernDayOuroboros_008
	POIN2	ModernDayOuroboros_009

	
