//Event file generated from Sappy .s format.
	#include "MPlayDef.event"

	#define	MrExplorer_grp  voicegroup000
	#define	MrExplorer_pri  0
	#define	MrExplorer_rev  0
	#define	MrExplorer_mvl  127
	#define	MrExplorer_key  0
	#define	MrExplorer_tbs  1
	#define	MrExplorer_exg  0
	#define	MrExplorer_cmp  1

	// .rodata
	//	MrExplorer
	ALIGN 4


//**************** Track 1 (Midi-Chn.0) ****************//

MrExplorer_001:
//  #01 //000   ----------------------------------------
 BYTE   KEYSH   MrExplorer_key+0
 BYTE   TEMPO   200*MrExplorer_tbs/2
 BYTE   VOICE   6
 BYTE   VOL   47*MrExplorer_mvl/mxv
 BYTE   PAN   c_v+0
 BYTE   VOL   46*MrExplorer_mvl/mxv
 BYTE   PAN   c_v+0
 BYTE   W24
 BYTE   TEMPO   132*MrExplorer_tbs/2
 BYTE   N05  As2  v060
 BYTE   W06
 BYTE   Fn2
 BYTE   W06
 BYTE   N44  Gs1
 BYTE   N05  Cs2
 BYTE   W06
 BYTE   Fn2
 BYTE   W06
 BYTE   As2
 BYTE   W06
 BYTE   Fn2
 BYTE   W06
 BYTE   As2
 BYTE   W06
 BYTE   Cs3
 BYTE   W06
 BYTE   As2
 BYTE   W06
 BYTE   Cn3
 BYTE   W06
 BYTE   N17  Gs1
 BYTE   N05  As2
 BYTE   W06
 BYTE   Cs3
 BYTE   W06
//  #01 //001   ----------------------------------------
 BYTE   Fn3
 BYTE   W06
 BYTE   N17  As1
 BYTE   N05  Cs3
 BYTE   W06
 BYTE   Ds3
 BYTE   W06
 BYTE   As2
 BYTE   W06
 BYTE   N11  Cn2
 BYTE   N05  Cn3
 BYTE   W06
 BYTE   Ds2
 BYTE   W06
 BYTE   N44  As1
 BYTE   N05  Gs2
 BYTE   W06
 BYTE   As2
 BYTE   W06
 BYTE   Cn3
 BYTE   W06
 BYTE   Cs3
 BYTE   W06
 BYTE   Ds3
 BYTE   W06
 BYTE   Fn3
 BYTE   W06
 BYTE   Cn3
 BYTE   W06
 BYTE   Ds3
 BYTE   W06
 BYTE   N17  Cs2
 BYTE   N05  Cn3
 BYTE   W06
 BYTE   Fn3
 BYTE   W06
//  #01 //002   ----------------------------------------
 BYTE   Gs3
 BYTE   W06
 BYTE   N17  As1
 BYTE   N05  Fs3
 BYTE   W06
 BYTE   Cs3
 BYTE   W06
 BYTE   Ds3
 BYTE   W06
 BYTE   N11  Cs2
 BYTE   N05  Fn3
 BYTE   W06
 BYTE   Gs2
 BYTE   W06
 BYTE   N11  Ds2
 BYTE   N05  Cn3
 BYTE   W06
 BYTE   Gs2
 BYTE   W06
 BYTE   Fn3
 BYTE   W06
 BYTE   As1
 BYTE   N05  Cn3
 BYTE   W06
 BYTE   N44  Ds2
 BYTE   N05  Fn3
 BYTE   W06
 BYTE   Gs2
 BYTE   W06
 BYTE   Fn2
 BYTE   W06
 BYTE   Gs2
 BYTE   W06
 BYTE   Cn3
 BYTE   W06
 BYTE   Gs2
 BYTE   W06
//  #01 //003   ----------------------------------------
 BYTE   Cn3
 BYTE   W06
 BYTE   Gs2
 BYTE   W06
 BYTE   N07  Ds2
 BYTE   N05  Fn3
 BYTE   W06
 BYTE   Gs3
 BYTE   W02
 BYTE   N09  Cs2
 BYTE   W04
 BYTE   N05  Fs3
 BYTE   W06
 BYTE   Ds2
 BYTE   N05  Cs3
 BYTE   W06
 BYTE   N44  Fn2
 BYTE   N05  As2
 BYTE   W06
 BYTE   Cs3
 BYTE   W06
 BYTE   Fs3
 BYTE   W06
 BYTE   Cs3
 BYTE   W06
 BYTE   Fs3
 BYTE   W06
 BYTE   As3
 BYTE   W06
 BYTE   Gs3
 BYTE   W06
 BYTE   Ds3
 BYTE   W06
 BYTE   N23  Fs2
 BYTE   N05  Cn3
 BYTE   W06
 BYTE   Gs2
 BYTE   W06
//  #01 //004   ----------------------------------------
 BYTE   Cn3
 BYTE   W06
 BYTE   Ds3
 BYTE   W06
 BYTE   N23  As2
 BYTE   N05  Gs3
 BYTE   W06
 BYTE   Cn4
 BYTE   W06
 BYTE   W12
 BYTE   N32  Gs1  v060
 BYTE   W36
 BYTE   N05  Fs2
 BYTE   W06
 BYTE   Gs2
 BYTE   W06
 BYTE   N17  Fs2
 BYTE   W12
//  #01 //005   ----------------------------------------
Label_01572DD2:
 BYTE   W06
 BYTE   N17  Ds2  v060
 BYTE   W18
 BYTE   N11  Cs2
 BYTE   W12
 BYTE   Ds2
 BYTE   W18
 BYTE   N05  Cs2
 BYTE   W06
 BYTE   N68  Ds2
 BYTE   W12
 BYTE   W24
 BYTE   PEND 
//  #01 //006   ----------------------------------------
Label_01572DE4:
 BYTE   W24
 BYTE   W12
 BYTE   N32  Cs2  v060
 BYTE   W36
 BYTE   N05  Ds2
 BYTE   W06
 BYTE   Fn2
 BYTE   W06
 BYTE   N17  Ds2
 BYTE   W12
 BYTE   PEND 
//  #01 //007   ----------------------------------------
Label_01572DF3:
 BYTE   W06
 BYTE   N17  Cs2  v060
 BYTE   W18
 BYTE   N11  As1
 BYTE   W12
 BYTE   N23  Cn2
 BYTE   W24
 BYTE   Cs2
 BYTE   W24
 BYTE   N44  Ds2
 BYTE   W12
 BYTE   PEND 
//  #01 //008   ----------------------------------------
Label_01572E04:
 BYTE   W24
 BYTE   W12
 BYTE   N32  Gs1  v060
 BYTE   W36
 BYTE   N05  Fs2
 BYTE   W06
 BYTE   Gs2
 BYTE   W06
 BYTE   N17  Fs2
 BYTE   W12
 BYTE   PEND 
//  #01 //009   ----------------------------------------
 BYTE   PATT
  POIN2 Label_01572DD2
//  #01 //010   ----------------------------------------
Label_01572E18:
 BYTE   W24
 BYTE   W12
 BYTE   N32  Cn2  v060
 BYTE   W36
 BYTE   N05  Cs2
 BYTE   W06
 BYTE   Ds2
 BYTE   W06
 BYTE   N11  Cs2
 BYTE   W12
 BYTE   PEND 
//  #01 //011   ----------------------------------------
Label_01572E27:
 BYTE   N23  Cn2  v060
 BYTE   W24
 BYTE   N11  As1
 BYTE   W12
 BYTE   N92  Gs1
 BYTE   W60
 BYTE   PEND 
//  #01 //012   ----------------------------------------
 BYTE   PATT
  POIN2 Label_01572E04
//  #01 //013   ----------------------------------------
Label_01572E37:
 BYTE   W06
 BYTE   N17  Ds2  v060
 BYTE   W18
 BYTE   N11  Cs2
 BYTE   W12
 BYTE   Ds2
 BYTE   W18
 BYTE   N05  Cs2
 BYTE   W06
 BYTE   N68  Ds2
 BYTE   W12
 BYTE   W24
 BYTE   PEND 
//  #01 //014   ----------------------------------------
 BYTE   PATT
  POIN2 Label_01572DE4
//  #01 //015   ----------------------------------------
 BYTE   PATT
  POIN2 Label_01572DF3
//  #01 //016   ----------------------------------------
 BYTE   PATT
  POIN2 Label_01572E04
//  #01 //017   ----------------------------------------
Label_01572E58:
 BYTE   W06
 BYTE   N17  Gs2  v060
 BYTE   W18
 BYTE   N11  As2
 BYTE   W12
 BYTE   Gs2
 BYTE   W18
 BYTE   N05  Ds2
 BYTE   W06
 BYTE   N68
 BYTE   W12
 BYTE   W24
 BYTE   PEND 
//  #01 //018   ----------------------------------------
Label_01572E69:
 BYTE   W24
 BYTE   W12
 BYTE   N17  Cs2  v060
 BYTE   W12
 BYTE   W06
 BYTE   Gs2
 BYTE   W18
 BYTE   N11  Fn2
 BYTE   W12
 BYTE   N17  Fs2
 BYTE   W12
 BYTE   PEND 
//  #01 //019   ----------------------------------------
Label_01572E79:
 BYTE   W06
 BYTE   N17  Gs2  v060
 BYTE   W18
 BYTE   N11  As2
 BYTE   W12
 BYTE   N92  Gs2
 BYTE   W12
 BYTE   W48
 BYTE   PEND 
//  #01 //020   ----------------------------------------
Label_01572E86:
 BYTE   W24
 BYTE   W12
 BYTE   N44  Fn2  v060
 BYTE   W48
 BYTE   N11
 BYTE   W12
 BYTE   PEND 
//  #01 //021   ----------------------------------------
Label_01572E8F:
 BYTE   N23  Fs2  v060
 BYTE   W24
 BYTE   N11  Gs2
 BYTE   W12
 BYTE   N44  As2
 BYTE   W48
 BYTE   Fs2
 BYTE   W12
 BYTE   PEND 
//  #01 //022   ----------------------------------------
Label_01572E9C:
 BYTE   W24
 BYTE   W12
 BYTE   N44  Ds2  v060
 BYTE   W48
 BYTE   N11
 BYTE   W12
 BYTE   PEND 
//  #01 //023   ----------------------------------------
Label_01572EA5:
 BYTE   N23  Fn2  v060
 BYTE   W24
 BYTE   N11  Fs2
 BYTE   W12
 BYTE   N44  Fn2
 BYTE   W48
 BYTE   Ds2
 BYTE   W12
 BYTE   PEND 
//  #01 //024   ----------------------------------------
Label_01572EB2:
 BYTE   W24
 BYTE   W12
 BYTE   N80  Cs2  v060
 BYTE   W60
 BYTE   PEND 
//  #01 //025   ----------------------------------------
Label_01572EB9:
 BYTE   W24
 BYTE   N03  Cn2  v060
 BYTE   W04
 BYTE   N07  As1
 BYTE   W08
 BYTE   N44  Dn2
 BYTE   W48
 BYTE   As1
 BYTE   W12
 BYTE   PEND 
//  #01 //026   ----------------------------------------
Label_01572EC7:
 BYTE   W24
 BYTE   W12
 BYTE   TIE  Ds2  v060
 BYTE   W60
 BYTE   PEND 
//  #01 //027   ----------------------------------------
 BYTE   W24
 BYTE   W72
//  #01 //028   ----------------------------------------
 BYTE   W11
 BYTE   EOT
 BYTE   W24
 BYTE   W01
 BYTE   N32  Gs1
 BYTE   W36
 BYTE   N05  Fs2
 BYTE   W06
 BYTE   Gs2
 BYTE   W06
 BYTE   N17  Fs2
 BYTE   W12
//  #01 //029   ----------------------------------------
 BYTE   PATT
  POIN2 Label_01572DD2
//  #01 //030   ----------------------------------------
 BYTE   PATT
  POIN2 Label_01572DE4
//  #01 //031   ----------------------------------------
 BYTE   PATT
  POIN2 Label_01572DF3
//  #01 //032   ----------------------------------------
 BYTE   PATT
  POIN2 Label_01572E04
//  #01 //033   ----------------------------------------
 BYTE   PATT
  POIN2 Label_01572DD2
//  #01 //034   ----------------------------------------
 BYTE   PATT
  POIN2 Label_01572E18
//  #01 //035   ----------------------------------------
Label_01572EFD:
 BYTE   N23  Cn2  v060
 BYTE   W24
 BYTE   N11  As1
 BYTE   W12
 BYTE   N92  Gs1
 BYTE   W36
 BYTE   N44  As3
 BYTE   W24
 BYTE   PEND 
//  #01 //036   ----------------------------------------
Label_01572F0B:
 BYTE   W24
 BYTE   N68  Fn3  v060
 BYTE   W12
 BYTE   N32  Gs1
 BYTE   W36
 BYTE   N05  Fs2
 BYTE   W06
 BYTE   Gs2
 BYTE   W06
 BYTE   N17  Fs2
 BYTE   W12
 BYTE   PEND 
//  #01 //037   ----------------------------------------
 BYTE   PATT
  POIN2 Label_01572E37
//  #01 //038   ----------------------------------------
 BYTE   PATT
  POIN2 Label_01572DE4
//  #01 //039   ----------------------------------------
Label_01572F26:
 BYTE   W06
 BYTE   N17  Cs2  v060
 BYTE   W18
 BYTE   N11  As1
 BYTE   N23  Cs3
 BYTE   W12
 BYTE   Cn2
 BYTE   W12
 BYTE   Ds3
 BYTE   W12
 BYTE   Cs2
 BYTE   W12
 BYTE   N32  Fn3
 BYTE   W12
 BYTE   N44  Ds2
 BYTE   W12
 BYTE   PEND 
//  #01 //040   ----------------------------------------
 BYTE   PATT
  POIN2 Label_01572E04
//  #01 //041   ----------------------------------------
 BYTE   PATT
  POIN2 Label_01572E58
//  #01 //042   ----------------------------------------
 BYTE   PATT
  POIN2 Label_01572E69
//  #01 //043   ----------------------------------------
Label_01572F4C:
 BYTE   W06
 BYTE   N17  Gs2  v060
 BYTE   W18
 BYTE   N11  As2
 BYTE   W12
 BYTE   N92  Gs2
 BYTE   W12
 BYTE   W24
 BYTE   N32  As3
 BYTE   W24
 BYTE   PEND 
//  #01 //044   ----------------------------------------
Label_01572F5C:
 BYTE   W24
 BYTE   N32  Fs3  v060
 BYTE   W12
 BYTE   N44  Fn2
 BYTE   W48
 BYTE   N11
 BYTE   W12
 BYTE   PEND 
//  #01 //045   ----------------------------------------
 BYTE   PATT
  POIN2 Label_01572E8F
//  #01 //046   ----------------------------------------
 BYTE   PATT
  POIN2 Label_01572E9C
//  #01 //047   ----------------------------------------
 BYTE   PATT
  POIN2 Label_01572EA5
//  #01 //048   ----------------------------------------
 BYTE   PATT
  POIN2 Label_01572EB2
//  #01 //049   ----------------------------------------
Label_01572F7B:
 BYTE   W24
 BYTE   N03  Cn2  v060
 BYTE   W04
 BYTE   N07  As1
 BYTE   W08
 BYTE   N44  Dn2
 BYTE   W12
 BYTE   W36
 BYTE   As1
 BYTE   W12
 BYTE   PEND 
//  #01 //050   ----------------------------------------
Label_01572F8A:
 BYTE   W24
 BYTE   W12
 BYTE   N11  Ds2  v060
 BYTE   W12
 BYTE   TIE
 BYTE   W48
 BYTE   PEND 
//  #01 //051   ----------------------------------------
 BYTE   W24
 BYTE   W72
//  #01 //052   ----------------------------------------
 BYTE   W11
 BYTE   EOT
 BYTE   W01
 BYTE   N05
 BYTE   W06
 BYTE   Fn2
 BYTE   W06
 BYTE   Fs2
 BYTE   N07  As3
 BYTE   W06
 BYTE   N05  Ds2
 BYTE   W02
 BYTE   N07  Fn3
 BYTE   W04
 BYTE   N32  Gs2
 BYTE   W04
 BYTE   N07  Cs3
 BYTE   W08
 BYTE   As3
 BYTE   W08
 BYTE   Fn3
 BYTE   W08
 BYTE   Cs3
 BYTE   W08
 BYTE   N05  Ds2
 BYTE   N07  As3
 BYTE   W06
 BYTE   N05  Fs2
 BYTE   W02
 BYTE   N07  Fn3
 BYTE   W04
 BYTE   N23  Gs2
 BYTE   W04
 BYTE   N07  Cs3
 BYTE   W08
//  #01 //053   ----------------------------------------
Label_01572FC3:
 BYTE   N07  As3  v060
 BYTE   W08
 BYTE   Fn3
 BYTE   W04
 BYTE   N23  Cn3
 BYTE   W04
 BYTE   N07  Cs3
 BYTE   W08
 BYTE   Gs3
 BYTE   W08
 BYTE   Ds3
 BYTE   W04
 BYTE   N32  As2
 BYTE   W04
 BYTE   N07  Cn3
 BYTE   W08
 BYTE   Gs3
 BYTE   W08
 BYTE   Ds3
 BYTE   W08
 BYTE   Cn3
 BYTE   W08
 BYTE   N05
 BYTE   N07  Gs3
 BYTE   W06
 BYTE   N05  Cs3
 BYTE   W02
 BYTE   N07  Ds3
 BYTE   W04
 BYTE   N44  Fs2
 BYTE   W04
 BYTE   N07  Cn3
 BYTE   W08
 BYTE   PEND 
//  #01 //054   ----------------------------------------
Label_01572FF0:
 BYTE   N07  Gs3  v060
 BYTE   W08
 BYTE   Ds3
 BYTE   W08
 BYTE   Cn3
 BYTE   W08
 BYTE   Fs3
 BYTE   W08
 BYTE   Cs3
 BYTE   W04
 BYTE   N44  Fn2
 BYTE   W04
 BYTE   N07  As2
 BYTE   W08
 BYTE   Fs3
 BYTE   W08
 BYTE   Cs3
 BYTE   W08
 BYTE   As2
 BYTE   W08
 BYTE   Fs3
 BYTE   W08
 BYTE   Cs3
 BYTE   W04
 BYTE   N11  Fn2
 BYTE   W04
 BYTE   N07  As2
 BYTE   W08
 BYTE   PEND 
//  #01 //055   ----------------------------------------
Label_01573013:
 BYTE   N23  Gs2  v060
 BYTE   N07  Fs3
 BYTE   W08
 BYTE   Cs3
 BYTE   W08
 BYTE   As2
 BYTE   W08
 BYTE   N11  Cn3
 BYTE   N07  Gs3
 BYTE   W08
 BYTE   Ds3
 BYTE   W04
 BYTE   N11  As2
 BYTE   W04
 BYTE   N07  Cn3
 BYTE   W08
 BYTE   N16
 BYTE   N07  Gs3
 BYTE   W08
 BYTE   Ds3
 BYTE   W08
 BYTE   Cn3
 BYTE   W08
 BYTE   N11  As2
 BYTE   N07  Gs3
 BYTE   W08
 BYTE   Ds3
 BYTE   W04
 BYTE   N23  Fs2
 BYTE   W04
 BYTE   N07  Cn3
 BYTE   W08
 BYTE   PEND 
//  #01 //056   ----------------------------------------
Label_01573040:
 BYTE   N07  Gs3  v060
 BYTE   W08
 BYTE   Ds3
 BYTE   W04
 BYTE   N23  Ds2
 BYTE   W04
 BYTE   N07  Cn3
 BYTE   W08
 BYTE   As3
 BYTE   W08
 BYTE   Fn3
 BYTE   W04
 BYTE   N32  Gs2
 BYTE   W04
 BYTE   N07  Cs3
 BYTE   W08
 BYTE   As3
 BYTE   W08
 BYTE   Fn3
 BYTE   W08
 BYTE   Cs3
 BYTE   W08
 BYTE   N05  Ds2
 BYTE   N07  As3
 BYTE   W06
 BYTE   N05  Fs2
 BYTE   W02
 BYTE   N07  Fn3
 BYTE   W04
 BYTE   N23  Gs2
 BYTE   W04
 BYTE   N07  Cs3
 BYTE   W08
 BYTE   PEND 
//  #01 //057   ----------------------------------------
Label_0157306E:
 BYTE   N07  As3  v060
 BYTE   W08
 BYTE   Fn3
 BYTE   W04
 BYTE   N20  Ds3
 BYTE   W04
 BYTE   N07  Cs3
 BYTE   W08
 BYTE   Gs3
 BYTE   W08
 BYTE   N03  Ds3
 BYTE   W04
 BYTE   N32  Cs3
 BYTE   W04
 BYTE   N07  Cn3
 BYTE   W08
 BYTE   Gs3
 BYTE   W08
 BYTE   Ds3
 BYTE   W08
 BYTE   Cn3
 BYTE   W08
 BYTE   N05
 BYTE   N07  Gs3
 BYTE   W06
 BYTE   N05  Cs3
 BYTE   W02
 BYTE   N07  Ds3
 BYTE   W04
 BYTE   N44  As2
 BYTE   W04
 BYTE   N07  Cn3
 BYTE   W08
 BYTE   PEND 
//  #01 //058   ----------------------------------------
Label_0157309C:
 BYTE   N07  Gs3  v060
 BYTE   W08
 BYTE   Ds3
 BYTE   W08
 BYTE   Cn3
 BYTE   W08
 BYTE   Fs3
 BYTE   W08
 BYTE   As3
 BYTE   W04
 BYTE   N11  Fn2
 BYTE   W04
 BYTE   N07  Cs4
 BYTE   W08
 BYTE   N23  Ds3
 BYTE   N07  Cn4
 BYTE   W08
 BYTE   Cs4
 BYTE   W08
 BYTE   Ds4
 BYTE   W08
 BYTE   N11  Cs3
 BYTE   N07  Fn4
 BYTE   W08
 BYTE   Ds4
 BYTE   W04
 BYTE   N11  Cn3
 BYTE   W04
 BYTE   N07  Cs4
 BYTE   W08
 BYTE   PEND 
//  #01 //059   ----------------------------------------
Label_015730C5:
 BYTE   N23  As2  v060
 BYTE   N07  Ds4
 BYTE   W08
 BYTE   Cs4
 BYTE   W08
 BYTE   Cn4
 BYTE   W08
 BYTE   N11  Cs3
 BYTE   N07  As3
 BYTE   W08
 BYTE   Fn3
 BYTE   W04
 BYTE   TIE  Gs2
 BYTE   W04
 BYTE   N07  Cs3
 BYTE   W08
 BYTE   As2
 BYTE   W08
 BYTE   Cs3
 BYTE   W08
 BYTE   Fn3
 BYTE   W08
 BYTE   As3
 BYTE   W08
 BYTE   Fn3
 BYTE   W08
 BYTE   Cs3
 BYTE   W08
 BYTE   PEND 
//  #01 //060   ----------------------------------------
Label_015730E9:
 BYTE   N07  As2  v060
 BYTE   W08
 BYTE   Cs3
 BYTE   W08
 BYTE   Fn3
 BYTE   W08
 BYTE   As3
 BYTE   W08
 BYTE   Fn3
 BYTE   W08
 BYTE   Cs3
 BYTE   W08
 BYTE   As2
 BYTE   W08
 BYTE   Cs3
 BYTE   W08
 BYTE   Fn3
 BYTE   W08
 BYTE   As3
 BYTE   W08
 BYTE   Fn3
 BYTE   W08
 BYTE   Cs3
 BYTE   W08
 BYTE   PEND 
//  #01 //061   ----------------------------------------
Label_01573104:
 BYTE   N07  As2  v060
 BYTE   W08
 BYTE   Cs3
 BYTE   W08
 BYTE   Fn3
 BYTE   W07
 BYTE   PEND 
 BYTE   EOT
 BYTE   Gs2
 BYTE   W01
 BYTE   W12
 BYTE   N32  Gs1
 BYTE   W36
 BYTE   N05  Fs2
 BYTE   W06
 BYTE   Gs2
 BYTE   W06
 BYTE   N17  Fs2
 BYTE   W12
//  #01 //062   ----------------------------------------
 BYTE   PATT
  POIN2 Label_01572DD2
//  #01 //063   ----------------------------------------
 BYTE   PATT
  POIN2 Label_01572DE4
//  #01 //064   ----------------------------------------
 BYTE   PATT
  POIN2 Label_01572DF3
//  #01 //065   ----------------------------------------
 BYTE   PATT
  POIN2 Label_01572E04
//  #01 //066   ----------------------------------------
 BYTE   PATT
  POIN2 Label_01572DD2
//  #01 //067   ----------------------------------------
 BYTE   PATT
  POIN2 Label_01572E18
//  #01 //068   ----------------------------------------
 BYTE   PATT
  POIN2 Label_01572E27
//  #01 //069   ----------------------------------------
 BYTE   PATT
  POIN2 Label_01572E04
//  #01 //070   ----------------------------------------
 BYTE   PATT
  POIN2 Label_01572E37
//  #01 //071   ----------------------------------------
 BYTE   PATT
  POIN2 Label_01572DE4
//  #01 //072   ----------------------------------------
 BYTE   PATT
  POIN2 Label_01572DF3
//  #01 //073   ----------------------------------------
 BYTE   PATT
  POIN2 Label_01572E04
//  #01 //074   ----------------------------------------
 BYTE   PATT
  POIN2 Label_01572E58
//  #01 //075   ----------------------------------------
 BYTE   PATT
  POIN2 Label_01572E69
//  #01 //076   ----------------------------------------
 BYTE   PATT
  POIN2 Label_01572E79
//  #01 //077   ----------------------------------------
 BYTE   PATT
  POIN2 Label_01572E86
//  #01 //078   ----------------------------------------
 BYTE   PATT
  POIN2 Label_01572E8F
//  #01 //079   ----------------------------------------
 BYTE   PATT
  POIN2 Label_01572E9C
//  #01 //080   ----------------------------------------
 BYTE   PATT
  POIN2 Label_01572EA5
//  #01 //081   ----------------------------------------
 BYTE   PATT
  POIN2 Label_01572EB2
//  #01 //082   ----------------------------------------
 BYTE   PATT
  POIN2 Label_01572EB9
//  #01 //083   ----------------------------------------
 BYTE   PATT
  POIN2 Label_01572EC7
//  #01 //084   ----------------------------------------
 BYTE   W24
 BYTE   W72
//  #01 //085   ----------------------------------------
 BYTE   W11
 BYTE   EOT
 BYTE   Ds2
 BYTE   W24
 BYTE   W01
 BYTE   N32  Gs1  v060
 BYTE   W36
 BYTE   N05  Fs2
 BYTE   W06
 BYTE   Gs2
 BYTE   W06
 BYTE   N17  Fs2
 BYTE   W12
//  #01 //086   ----------------------------------------
 BYTE   PATT
  POIN2 Label_01572DD2
//  #01 //087   ----------------------------------------
 BYTE   PATT
  POIN2 Label_01572DE4
//  #01 //088   ----------------------------------------
 BYTE   PATT
  POIN2 Label_01572DF3
//  #01 //089   ----------------------------------------
 BYTE   PATT
  POIN2 Label_01572E04
//  #01 //090   ----------------------------------------
 BYTE   PATT
  POIN2 Label_01572DD2
//  #01 //091   ----------------------------------------
 BYTE   PATT
  POIN2 Label_01572E18
//  #01 //092   ----------------------------------------
 BYTE   PATT
  POIN2 Label_01572EFD
//  #01 //093   ----------------------------------------
 BYTE   PATT
  POIN2 Label_01572F0B
//  #01 //094   ----------------------------------------
 BYTE   PATT
  POIN2 Label_01572E37
//  #01 //095   ----------------------------------------
 BYTE   PATT
  POIN2 Label_01572DE4
//  #01 //096   ----------------------------------------
 BYTE   PATT
  POIN2 Label_01572F26
//  #01 //097   ----------------------------------------
 BYTE   PATT
  POIN2 Label_01572E04
//  #01 //098   ----------------------------------------
 BYTE   PATT
  POIN2 Label_01572E58
//  #01 //099   ----------------------------------------
 BYTE   PATT
  POIN2 Label_01572E69
//  #01 //100   ----------------------------------------
 BYTE   PATT
  POIN2 Label_01572F4C
//  #01 //101   ----------------------------------------
 BYTE   PATT
  POIN2 Label_01572F5C
//  #01 //102   ----------------------------------------
 BYTE   PATT
  POIN2 Label_01572E8F
//  #01 //103   ----------------------------------------
 BYTE   PATT
  POIN2 Label_01572E9C
//  #01 //104   ----------------------------------------
 BYTE   PATT
  POIN2 Label_01572EA5
//  #01 //105   ----------------------------------------
 BYTE   PATT
  POIN2 Label_01572EB2
//  #01 //106   ----------------------------------------
 BYTE   PATT
  POIN2 Label_01572F7B
//  #01 //107   ----------------------------------------
 BYTE   PATT
  POIN2 Label_01572F8A
//  #01 //108   ----------------------------------------
 BYTE   W24
 BYTE   W72
//  #01 //109   ----------------------------------------
 BYTE   W11
 BYTE   EOT
 BYTE   Ds2
 BYTE   W01
 BYTE   N05  Ds2  v060
 BYTE   W06
 BYTE   Fn2
 BYTE   W06
 BYTE   Fs2
 BYTE   N07  As3
 BYTE   W06
 BYTE   N05  Ds2
 BYTE   W02
 BYTE   N07  Fn3
 BYTE   W04
 BYTE   N32  Gs2
 BYTE   W04
 BYTE   N07  Cs3
 BYTE   W08
 BYTE   As3
 BYTE   W08
 BYTE   Fn3
 BYTE   W08
 BYTE   Cs3
 BYTE   W08
 BYTE   N05  Ds2
 BYTE   N07  As3
 BYTE   W06
 BYTE   N05  Fs2
 BYTE   W02
 BYTE   N07  Fn3
 BYTE   W04
 BYTE   N23  Gs2
 BYTE   W04
 BYTE   N07  Cs3
 BYTE   W08
//  #01 //110   ----------------------------------------
 BYTE   PATT
  POIN2 Label_01572FC3
//  #01 //111   ----------------------------------------
 BYTE   PATT
  POIN2 Label_01572FF0
//  #01 //112   ----------------------------------------
 BYTE   PATT
  POIN2 Label_01573013
//  #01 //113   ----------------------------------------
 BYTE   PATT
  POIN2 Label_01573040
//  #01 //114   ----------------------------------------
 BYTE   PATT
  POIN2 Label_0157306E
//  #01 //115   ----------------------------------------
 BYTE   PATT
  POIN2 Label_0157309C
//  #01 //116   ----------------------------------------
 BYTE   PATT
  POIN2 Label_015730C5
//  #01 //117   ----------------------------------------
 BYTE   PATT
  POIN2 Label_015730E9
//  #01 //118   ----------------------------------------
 BYTE   PATT
  POIN2 Label_01573104
//  #01 //119   ----------------------------------------
 BYTE   EOT
 BYTE   Gs2
 BYTE   W01
 BYTE   N11  As2  v060
 BYTE   W12
 BYTE   N32  Gs1
 BYTE   W36
 BYTE   N05  Fs2
 BYTE   W06
 BYTE   Gs2
 BYTE   W06
 BYTE   N17  Fs2
 BYTE   W12
//  #01 //120   ----------------------------------------
 BYTE   PATT
  POIN2 Label_01572DD2
//  #01 //121   ----------------------------------------
 BYTE   PATT
  POIN2 Label_01572DE4
//  #01 //122   ----------------------------------------
 BYTE   PATT
  POIN2 Label_01572DF3
//  #01 //123   ----------------------------------------
 BYTE   W24
 BYTE   W07
 BYTE   W05
 BYTE   N32  Gs1  v060
 BYTE   W02
 BYTE   W07
 BYTE   W07
 BYTE   W08
 BYTE   W07
 BYTE   W05
 BYTE   N05  Fs2  v056
 BYTE   W02
 BYTE   W04
 BYTE   Gs2
 BYTE   W03
 BYTE   W03
 BYTE   N17  Fs2
 BYTE   W04
 BYTE   W08
//  #01 //124   ----------------------------------------
 BYTE   W06
 BYTE   Ds2  v052
 BYTE   W01
 BYTE   W07
 BYTE   W07
 BYTE   W03
 BYTE   N11  Cs2
 BYTE   W04
 BYTE   W08
 BYTE   Ds2  v048
 BYTE   W07
 BYTE   W07
 BYTE   W04
 BYTE   N05  Cs2
 BYTE   W03
 BYTE   W03
 BYTE   N68  Ds2
 BYTE   W04
 BYTE   W08
 BYTE   W07
 BYTE   W07
 BYTE   W07
 BYTE   W03
//  #01 //125   ----------------------------------------
 BYTE   W04
 BYTE   W08
 BYTE   W07
 BYTE   W05
 BYTE   W02
 BYTE   W07
 BYTE   W03
 BYTE   N32  Cn2  v040
 BYTE   W04
 BYTE   W08
 BYTE   W07
 BYTE   W07
 BYTE   W07
 BYTE   W03
 BYTE   N05  Cs2  v036
 BYTE   W04
 BYTE   W02
 BYTE   Ds2
 BYTE   W06
 BYTE   N11  Cs2
 BYTE   W07
 BYTE   W05
//  #01 //126   ----------------------------------------
 BYTE   N23  Cn2
 BYTE   W02
 BYTE   W07
 BYTE   W07
 BYTE   W08
 BYTE   N11  As1  v032
 BYTE   W07
 BYTE   W05
 BYTE   N92  Gs1
 BYTE   W02
 BYTE   W07
 BYTE   W03
 BYTE   W04
 BYTE   W08
 BYTE   W07
 BYTE   W07
 BYTE   W07
 BYTE   W07
 BYTE   W08
//  #01 //127   ----------------------------------------
 BYTE   W07
 BYTE   W07
 BYTE   W07
 BYTE   W03
 BYTE   W04
 BYTE   W08
 BYTE   N32  Gs1  v020
 BYTE   W07
 BYTE   W07
 BYTE   W07
 BYTE   W07
 BYTE   W08
 BYTE   N05  Fs2  v016
 BYTE   W06
 BYTE   Gs2
 BYTE   W01
 BYTE   W05
 BYTE   N17  Fs2
 BYTE   W02
 BYTE   W07
 BYTE   W03
//  #01 //128   ----------------------------------------
 BYTE   W04
 BYTE   W02
 BYTE   Ds2  v012
 BYTE   W06
 BYTE   W07
 BYTE   W05
 BYTE   N11  Cs2
 BYTE   W02
 BYTE   W07
 BYTE   W03
 BYTE   Ds2
 BYTE   W04
 BYTE   W08
 BYTE   W06
 BYTE   N05  Cs2  v008
 BYTE   W01
 BYTE   W05
 BYTE   N56  Ds2
 BYTE   W02
 BYTE   W07
 BYTE   W03
 BYTE   W04
 BYTE   W08
 BYTE   W07
 BYTE   W05
//  #01 //129   ----------------------------------------
 BYTE   W02
 BYTE   W07
 BYTE   W07
 BYTE   W08
 BYTE   FINE

//**************** Track 2 (Midi-Chn.1) ****************//

MrExplorer_002:
//  #02 //000   ----------------------------------------
 BYTE   KEYSH   MrExplorer_key+0
 BYTE   VOICE   59
 BYTE   VOL   32*MrExplorer_mvl/mxv
 BYTE   PAN   c_v+0
 BYTE   VOL   36*MrExplorer_mvl/mxv
 BYTE   PAN   c_v+0
 BYTE   W24
 BYTE   N44  As1  v080
 BYTE   W48
 BYTE   N17
 BYTE   W18
 BYTE   N17
 BYTE   W06
//  #02 //001   ----------------------------------------
 BYTE   W12
 BYTE   N11
 BYTE   W12
 BYTE   N44  Cn2
 BYTE   W48
 BYTE   N17
 BYTE   W18
 BYTE   Cs2
 BYTE   W06
//  #02 //002   ----------------------------------------
 BYTE   W12
 BYTE   N11  Ds2
 BYTE   W12
 BYTE   Fn2
 BYTE   W12
 BYTE   N05
 BYTE   W06
 BYTE   N05
 BYTE   W06
 BYTE   N11  Ds2
 BYTE   W12
 BYTE   N05
 BYTE   W06
 BYTE   N05
 BYTE   W06
 BYTE   N11  Cs2
 BYTE   W12
 BYTE   N05
 BYTE   W06
 BYTE   N05
 BYTE   W06
//  #02 //003   ----------------------------------------
 BYTE   N11  Cn2
 BYTE   W12
 BYTE   N05
 BYTE   W06
 BYTE   N05
 BYTE   W06
 BYTE   N11  Fs2
 BYTE   W12
 BYTE   N05
 BYTE   W06
 BYTE   N05
 BYTE   W06
 BYTE   N11  Ds2
 BYTE   W12
 BYTE   N05
 BYTE   W06
 BYTE   N05
 BYTE   W06
 BYTE   N11  Gs2
 BYTE   W12
 BYTE   N05
 BYTE   W06
 BYTE   N05
 BYTE   W06
//  #02 //004   ----------------------------------------
 BYTE   N11  Cn3
 BYTE   W12
 BYTE   N05
 BYTE   W06
 BYTE   N05
 BYTE   W06
 BYTE   N17  As1  v080
 BYTE   W18
 BYTE   N05
 BYTE   W06
 BYTE   N11  As2
 BYTE   W12
 BYTE   As1
 BYTE   W12
 BYTE   As2
 BYTE   W12
 BYTE   Gs2
 BYTE   W12
//  #02 //005   ----------------------------------------
Label_015733A9:
 BYTE   N11  Fn2  v080
 BYTE   W12
 BYTE   As2
 BYTE   W12
 BYTE   N17  Gs1
 BYTE   W18
 BYTE   N05
 BYTE   W06
 BYTE   N11  Gs2
 BYTE   W12
 BYTE   Gs1
 BYTE   W12
 BYTE   Gs2
 BYTE   W12
 BYTE   Fs2
 BYTE   W12
 BYTE   PEND 
//  #02 //006   ----------------------------------------
Label_015733BE:
 BYTE   N11  Fn2  v080
 BYTE   W12
 BYTE   Gs2
 BYTE   W12
 BYTE   N17  Fs1
 BYTE   W18
 BYTE   N05
 BYTE   W06
 BYTE   N11  Fs2
 BYTE   W12
 BYTE   Fs1
 BYTE   W12
 BYTE   Fs2
 BYTE   W12
 BYTE   Fn2
 BYTE   W12
 BYTE   PEND 
//  #02 //007   ----------------------------------------
Label_015733D3:
 BYTE   N11  Ds2  v080
 BYTE   W12
 BYTE   Fs2
 BYTE   W12
 BYTE   N17  Gs1
 BYTE   W18
 BYTE   N05
 BYTE   W06
 BYTE   N11  Gs2
 BYTE   W12
 BYTE   Gs1
 BYTE   W12
 BYTE   Gs2
 BYTE   W12
 BYTE   As2
 BYTE   W12
 BYTE   PEND 
//  #02 //008   ----------------------------------------
Label_015733E8:
 BYTE   N11  Cn3  v080
 BYTE   W12
 BYTE   Gs2
 BYTE   W12
 BYTE   N17  As1
 BYTE   W18
 BYTE   N05
 BYTE   W06
 BYTE   N11  As2
 BYTE   W12
 BYTE   As1
 BYTE   W12
 BYTE   As2
 BYTE   W12
 BYTE   Gs2
 BYTE   W12
 BYTE   PEND 
//  #02 //009   ----------------------------------------
 BYTE   PATT
  POIN2 Label_015733A9
//  #02 //010   ----------------------------------------
 BYTE   PATT
  POIN2 Label_015733BE
//  #02 //011   ----------------------------------------
Label_01573407:
 BYTE   N11  Ds2  v080
 BYTE   W12
 BYTE   Fs2
 BYTE   W12
 BYTE   N17  As1
 BYTE   W18
 BYTE   N05
 BYTE   W06
 BYTE   N11  As2
 BYTE   W12
 BYTE   As1
 BYTE   W12
 BYTE   As2
 BYTE   W12
 BYTE   Cn3
 BYTE   W12
 BYTE   PEND 
//  #02 //012   ----------------------------------------
Label_0157341C:
 BYTE   N11  Cs3  v080
 BYTE   W12
 BYTE   As2
 BYTE   W12
 BYTE   N17  As1
 BYTE   W18
 BYTE   N05
 BYTE   W06
 BYTE   N11  As2
 BYTE   W12
 BYTE   As1
 BYTE   W12
 BYTE   As2
 BYTE   W12
 BYTE   Gs2
 BYTE   W12
 BYTE   PEND 
//  #02 //013   ----------------------------------------
 BYTE   PATT
  POIN2 Label_015733A9
//  #02 //014   ----------------------------------------
 BYTE   PATT
  POIN2 Label_015733BE
//  #02 //015   ----------------------------------------
 BYTE   PATT
  POIN2 Label_015733D3
//  #02 //016   ----------------------------------------
 BYTE   PATT
  POIN2 Label_015733E8
//  #02 //017   ----------------------------------------
Label_01573445:
 BYTE   N11  Ds2  v080
 BYTE   W12
 BYTE   As2
 BYTE   W12
 BYTE   N17  Gs1
 BYTE   W18
 BYTE   N05
 BYTE   W06
 BYTE   N11  Gs2
 BYTE   W12
 BYTE   Gs1
 BYTE   W12
 BYTE   Gs2
 BYTE   W12
 BYTE   Fs2
 BYTE   W12
 BYTE   PEND 
//  #02 //018   ----------------------------------------
Label_0157345A:
 BYTE   N11  Fn2  v080
 BYTE   W12
 BYTE   Gs2
 BYTE   W12
 BYTE   N17  Fs1
 BYTE   W18
 BYTE   N05
 BYTE   W06
 BYTE   N11  Fs2
 BYTE   W12
 BYTE   Fs1
 BYTE   W12
 BYTE   N17  Gs1
 BYTE   W18
 BYTE   N05
 BYTE   W06
 BYTE   PEND 
//  #02 //019   ----------------------------------------
Label_01573470:
 BYTE   N11  Gs2  v080
 BYTE   W12
 BYTE   Gs1
 BYTE   W12
 BYTE   N17  As1
 BYTE   W18
 BYTE   N05
 BYTE   W06
 BYTE   N11  As2
 BYTE   W12
 BYTE   As1
 BYTE   W12
 BYTE   As2
 BYTE   W12
 BYTE   Fn2
 BYTE   W12
 BYTE   PEND 
//  #02 //020   ----------------------------------------
Label_01573485:
 BYTE   N11  Gs2  v080
 BYTE   W12
 BYTE   Fn2
 BYTE   W12
 BYTE   N05
 BYTE   W06
 BYTE   Fs2
 BYTE   W06
 BYTE   N17
 BYTE   W18
 BYTE   N05  Fn2
 BYTE   W06
 BYTE   N11  Fs2
 BYTE   W36
 BYTE   PEND 
//  #02 //021   ----------------------------------------
Label_01573498:
 BYTE   W24
 BYTE   N15  Gs2  v080
 BYTE   W16
 BYTE   As2
 BYTE   W16
 BYTE   Cn3
 BYTE   W16
 BYTE   Cs3
 BYTE   W16
 BYTE   Cn3
 BYTE   W08
 BYTE   PEND 
//  #02 //022   ----------------------------------------
Label_015734A6:
 BYTE   W08
 BYTE   N15  Gs2  v080
 BYTE   W16
 BYTE   N05  Ds2
 BYTE   W06
 BYTE   Fn2
 BYTE   W06
 BYTE   N17
 BYTE   W18
 BYTE   N05  Ds2
 BYTE   W06
 BYTE   N11  Fn2
 BYTE   W36
 BYTE   PEND 
//  #02 //023   ----------------------------------------
Label_015734B9:
 BYTE   W24
 BYTE   N11  Fs2  v080
 BYTE   W12
 BYTE   Cs2
 BYTE   W12
 BYTE   Fn2
 BYTE   W12
 BYTE   Fs2
 BYTE   W12
 BYTE   Fn2
 BYTE   W12
 BYTE   Cs2
 BYTE   W12
 BYTE   PEND 
//  #02 //024   ----------------------------------------
Label_015734C9:
 BYTE   N11  Ds2  v080
 BYTE   W12
 BYTE   Fn2
 BYTE   W12
 BYTE   N17  Ds2
 BYTE   W18
 BYTE   N17
 BYTE   W18
 BYTE   N23
 BYTE   W24
 BYTE   N11  Cs2
 BYTE   W12
 BYTE   PEND 
//  #02 //025   ----------------------------------------
Label_015734DA:
 BYTE   N11  Cn2  v080
 BYTE   W12
 BYTE   Ds2
 BYTE   W12
 BYTE   N17  En2
 BYTE   W18
 BYTE   N17
 BYTE   W18
 BYTE   N23
 BYTE   W24
 BYTE   N11  Cs2
 BYTE   W12
 BYTE   PEND 
//  #02 //026   ----------------------------------------
Label_015734EB:
 BYTE   N11  Cn2  v080
 BYTE   W12
 BYTE   En2
 BYTE   W12
 BYTE   Fn2
 BYTE   W12
 BYTE   N05
 BYTE   W06
 BYTE   N05
 BYTE   W06
 BYTE   N11
 BYTE   W12
 BYTE   N05
 BYTE   W06
 BYTE   N05
 BYTE   W06
 BYTE   N11
 BYTE   W12
 BYTE   N05
 BYTE   W06
 BYTE   N05
 BYTE   W06
 BYTE   PEND 
//  #02 //027   ----------------------------------------
Label_01573504:
 BYTE   N11  Fn2  v080
 BYTE   W12
 BYTE   N05
 BYTE   W06
 BYTE   N05
 BYTE   W06
 BYTE   N11
 BYTE   W12
 BYTE   N05
 BYTE   W06
 BYTE   N05
 BYTE   W06
 BYTE   N11  Ds2
 BYTE   W12
 BYTE   N05
 BYTE   W06
 BYTE   N05
 BYTE   W06
 BYTE   N11  Cs2
 BYTE   W12
 BYTE   N05
 BYTE   W06
 BYTE   N05
 BYTE   W06
 BYTE   PEND 
//  #02 //028   ----------------------------------------
Label_01573521:
 BYTE   N11  Cn2  v080
 BYTE   W12
 BYTE   N05
 BYTE   W06
 BYTE   N05
 BYTE   W06
 BYTE   N17  As1
 BYTE   W18
 BYTE   N05
 BYTE   W06
 BYTE   N11  As2
 BYTE   W12
 BYTE   As1
 BYTE   W12
 BYTE   As2
 BYTE   W12
 BYTE   Gs2
 BYTE   W12
 BYTE   PEND 
//  #02 //029   ----------------------------------------
 BYTE   PATT
  POIN2 Label_015733A9
//  #02 //030   ----------------------------------------
 BYTE   PATT
  POIN2 Label_015733BE
//  #02 //031   ----------------------------------------
 BYTE   PATT
  POIN2 Label_015733D3
//  #02 //032   ----------------------------------------
 BYTE   PATT
  POIN2 Label_015733E8
//  #02 //033   ----------------------------------------
 BYTE   PATT
  POIN2 Label_015733A9
//  #02 //034   ----------------------------------------
 BYTE   PATT
  POIN2 Label_015733BE
//  #02 //035   ----------------------------------------
 BYTE   PATT
  POIN2 Label_01573407
//  #02 //036   ----------------------------------------
 BYTE   PATT
  POIN2 Label_0157341C
//  #02 //037   ----------------------------------------
 BYTE   PATT
  POIN2 Label_015733A9
//  #02 //038   ----------------------------------------
 BYTE   PATT
  POIN2 Label_015733BE
//  #02 //039   ----------------------------------------
 BYTE   PATT
  POIN2 Label_015733D3
//  #02 //040   ----------------------------------------
 BYTE   PATT
  POIN2 Label_015733E8
//  #02 //041   ----------------------------------------
 BYTE   PATT
  POIN2 Label_015733A9
//  #02 //042   ----------------------------------------
 BYTE   PATT
  POIN2 Label_0157345A
//  #02 //043   ----------------------------------------
 BYTE   PATT
  POIN2 Label_01573470
//  #02 //044   ----------------------------------------
 BYTE   PATT
  POIN2 Label_01573485
//  #02 //045   ----------------------------------------
 BYTE   PATT
  POIN2 Label_01573498
//  #02 //046   ----------------------------------------
 BYTE   PATT
  POIN2 Label_015734A6
//  #02 //047   ----------------------------------------
 BYTE   PATT
  POIN2 Label_015734B9
//  #02 //048   ----------------------------------------
 BYTE   PATT
  POIN2 Label_015734C9
//  #02 //049   ----------------------------------------
 BYTE   PATT
  POIN2 Label_015734DA
//  #02 //050   ----------------------------------------
 BYTE   PATT
  POIN2 Label_015734EB
//  #02 //051   ----------------------------------------
 BYTE   PATT
  POIN2 Label_01573504
//  #02 //052   ----------------------------------------
Label_015735AB:
 BYTE   N23  Fn2  v080
 BYTE   W24
 BYTE   N17  As1
 BYTE   W18
 BYTE   N05
 BYTE   W06
 BYTE   N11  As2
 BYTE   W12
 BYTE   As1
 BYTE   W12
 BYTE   As2
 BYTE   W12
 BYTE   Gs2
 BYTE   W12
 BYTE   PEND 
//  #02 //053   ----------------------------------------
 BYTE   PATT
  POIN2 Label_015733A9
//  #02 //054   ----------------------------------------
 BYTE   PATT
  POIN2 Label_015733BE
//  #02 //055   ----------------------------------------
 BYTE   PATT
  POIN2 Label_015733D3
//  #02 //056   ----------------------------------------
 BYTE   PATT
  POIN2 Label_015733E8
//  #02 //057   ----------------------------------------
Label_015735D2:
 BYTE   N11  Fn2  v080
 BYTE   W12
 BYTE   As2
 BYTE   W12
 BYTE   N17  Gs1
 BYTE   W18
 BYTE   N05
 BYTE   W06
 BYTE   N11  Gs2
 BYTE   W12
 BYTE   Gs1
 BYTE   W12
 BYTE   Gs2
 BYTE   W12
 BYTE   As2
 BYTE   W12
 BYTE   PEND 
//  #02 //058   ----------------------------------------
Label_015735E7:
 BYTE   N11  Cn3  v080
 BYTE   W12
 BYTE   Gs2
 BYTE   W12
 BYTE   N15  Fs1
 BYTE   W16
 BYTE   N15
 BYTE   W16
 BYTE   N15
 BYTE   W16
 BYTE   Gs1
 BYTE   W16
 BYTE   Fn1
 BYTE   W08
 BYTE   PEND 
//  #02 //059   ----------------------------------------
Label_015735F9:
 BYTE   W08
 BYTE   N15  Gs1  v080
 BYTE   W16
 BYTE   N17  As1
 BYTE   W18
 BYTE   N05
 BYTE   W06
 BYTE   N11  As2
 BYTE   W12
 BYTE   As1
 BYTE   W12
 BYTE   N17
 BYTE   W18
 BYTE   N05
 BYTE   W06
 BYTE   PEND 
//  #02 //060   ----------------------------------------
Label_0157360D:
 BYTE   N11  As2  v080
 BYTE   W12
 BYTE   As1
 BYTE   W12
 BYTE   N17
 BYTE   W18
 BYTE   N05
 BYTE   W06
 BYTE   N11  As2
 BYTE   W12
 BYTE   As1
 BYTE   W12
 BYTE   As2
 BYTE   W12
 BYTE   Gs2
 BYTE   W12
 BYTE   PEND 
//  #02 //061   ----------------------------------------
Label_01573621:
 BYTE   N11  Fn2  v080
 BYTE   W12
 BYTE   As2
 BYTE   W12
 BYTE   N17  As1
 BYTE   W18
 BYTE   N05
 BYTE   W06
 BYTE   N11  As2
 BYTE   W12
 BYTE   As1
 BYTE   W12
 BYTE   As2
 BYTE   W12
 BYTE   Gs2
 BYTE   W12
 BYTE   PEND 
//  #02 //062   ----------------------------------------
 BYTE   PATT
  POIN2 Label_015733A9
//  #02 //063   ----------------------------------------
 BYTE   PATT
  POIN2 Label_015733BE
//  #02 //064   ----------------------------------------
 BYTE   PATT
  POIN2 Label_015733D3
//  #02 //065   ----------------------------------------
 BYTE   PATT
  POIN2 Label_015733E8
//  #02 //066   ----------------------------------------
 BYTE   PATT
  POIN2 Label_015733A9
//  #02 //067   ----------------------------------------
 BYTE   PATT
  POIN2 Label_015733BE
//  #02 //068   ----------------------------------------
 BYTE   PATT
  POIN2 Label_01573407
//  #02 //069   ----------------------------------------
 BYTE   PATT
  POIN2 Label_0157341C
//  #02 //070   ----------------------------------------
 BYTE   PATT
  POIN2 Label_015733A9
//  #02 //071   ----------------------------------------
 BYTE   PATT
  POIN2 Label_015733BE
//  #02 //072   ----------------------------------------
 BYTE   PATT
  POIN2 Label_015733D3
//  #02 //073   ----------------------------------------
 BYTE   PATT
  POIN2 Label_015733E8
//  #02 //074   ----------------------------------------
 BYTE   PATT
  POIN2 Label_01573445
//  #02 //075   ----------------------------------------
 BYTE   PATT
  POIN2 Label_0157345A
//  #02 //076   ----------------------------------------
 BYTE   PATT
  POIN2 Label_01573470
//  #02 //077   ----------------------------------------
 BYTE   PATT
  POIN2 Label_01573485
//  #02 //078   ----------------------------------------
 BYTE   PATT
  POIN2 Label_01573498
//  #02 //079   ----------------------------------------
 BYTE   PATT
  POIN2 Label_015734A6
//  #02 //080   ----------------------------------------
 BYTE   PATT
  POIN2 Label_015734B9
//  #02 //081   ----------------------------------------
 BYTE   PATT
  POIN2 Label_015734C9
//  #02 //082   ----------------------------------------
 BYTE   PATT
  POIN2 Label_015734DA
//  #02 //083   ----------------------------------------
 BYTE   PATT
  POIN2 Label_015734EB
//  #02 //084   ----------------------------------------
 BYTE   PATT
  POIN2 Label_01573504
//  #02 //085   ----------------------------------------
 BYTE   PATT
  POIN2 Label_01573521
//  #02 //086   ----------------------------------------
 BYTE   PATT
  POIN2 Label_015733A9
//  #02 //087   ----------------------------------------
 BYTE   PATT
  POIN2 Label_015733BE
//  #02 //088   ----------------------------------------
 BYTE   PATT
  POIN2 Label_015733D3
//  #02 //089   ----------------------------------------
 BYTE   PATT
  POIN2 Label_015733E8
//  #02 //090   ----------------------------------------
 BYTE   PATT
  POIN2 Label_015733A9
//  #02 //091   ----------------------------------------
 BYTE   PATT
  POIN2 Label_015733BE
//  #02 //092   ----------------------------------------
 BYTE   PATT
  POIN2 Label_01573407
//  #02 //093   ----------------------------------------
 BYTE   PATT
  POIN2 Label_0157341C
//  #02 //094   ----------------------------------------
 BYTE   PATT
  POIN2 Label_015733A9
//  #02 //095   ----------------------------------------
 BYTE   PATT
  POIN2 Label_015733BE
//  #02 //096   ----------------------------------------
 BYTE   PATT
  POIN2 Label_015733D3
//  #02 //097   ----------------------------------------
 BYTE   PATT
  POIN2 Label_015733E8
//  #02 //098   ----------------------------------------
 BYTE   PATT
  POIN2 Label_015733A9
//  #02 //099   ----------------------------------------
 BYTE   PATT
  POIN2 Label_0157345A
//  #02 //100   ----------------------------------------
 BYTE   PATT
  POIN2 Label_01573470
//  #02 //101   ----------------------------------------
 BYTE   PATT
  POIN2 Label_01573485
//  #02 //102   ----------------------------------------
 BYTE   PATT
  POIN2 Label_01573498
//  #02 //103   ----------------------------------------
 BYTE   PATT
  POIN2 Label_015734A6
//  #02 //104   ----------------------------------------
 BYTE   PATT
  POIN2 Label_015734B9
//  #02 //105   ----------------------------------------
 BYTE   PATT
  POIN2 Label_015734C9
//  #02 //106   ----------------------------------------
 BYTE   PATT
  POIN2 Label_015734DA
//  #02 //107   ----------------------------------------
 BYTE   PATT
  POIN2 Label_015734EB
//  #02 //108   ----------------------------------------
 BYTE   PATT
  POIN2 Label_01573504
//  #02 //109   ----------------------------------------
 BYTE   PATT
  POIN2 Label_015735AB
//  #02 //110   ----------------------------------------
 BYTE   PATT
  POIN2 Label_015733A9
//  #02 //111   ----------------------------------------
 BYTE   PATT
  POIN2 Label_015733BE
//  #02 //112   ----------------------------------------
 BYTE   PATT
  POIN2 Label_015733D3
//  #02 //113   ----------------------------------------
 BYTE   PATT
  POIN2 Label_015733E8
//  #02 //114   ----------------------------------------
 BYTE   PATT
  POIN2 Label_015735D2
//  #02 //115   ----------------------------------------
 BYTE   PATT
  POIN2 Label_015735E7
//  #02 //116   ----------------------------------------
 BYTE   PATT
  POIN2 Label_015735F9
//  #02 //117   ----------------------------------------
 BYTE   PATT
  POIN2 Label_0157360D
//  #02 //118   ----------------------------------------
 BYTE   PATT
  POIN2 Label_01573621
//  #02 //119   ----------------------------------------
 BYTE   PATT
  POIN2 Label_015733A9
//  #02 //120   ----------------------------------------
 BYTE   PATT
  POIN2 Label_015733BE
//  #02 //121   ----------------------------------------
 BYTE   PATT
  POIN2 Label_015733D3
//  #02 //122   ----------------------------------------
 BYTE   N11  Cn3  v080
 BYTE   W12
 BYTE   Gs2
 BYTE   W12
 BYTE   N17  As1
 BYTE   W18
 BYTE   N05
 BYTE   W06
 BYTE   N11  As2
 BYTE   W12
 BYTE   As1  v076
 BYTE   W12
 BYTE   As2
 BYTE   W12
 BYTE   Gs2  v072
 BYTE   W12
//  #02 //123   ----------------------------------------
 BYTE   Fn2
 BYTE   W12
 BYTE   As2
 BYTE   W12
 BYTE   N17  Gs1  v068
 BYTE   W18
 BYTE   N05
 BYTE   W06
 BYTE   N11  Gs2  v064
 BYTE   W12
 BYTE   Gs1
 BYTE   W12
 BYTE   Gs2  v060
 BYTE   W12
 BYTE   Fs2
 BYTE   W12
//  #02 //124   ----------------------------------------
 BYTE   Fn2
 BYTE   W12
 BYTE   Gs2  v056
 BYTE   W12
 BYTE   N17  Fs1
 BYTE   W18
 BYTE   N05  Fs1  v052
 BYTE   W06
 BYTE   N11  Fs2
 BYTE   W12
 BYTE   Fs1
 BYTE   W12
 BYTE   Fs2  v048
 BYTE   W12
 BYTE   Fn2
 BYTE   W12
//  #02 //125   ----------------------------------------
 BYTE   Ds2  v044
 BYTE   W12
 BYTE   Fs2
 BYTE   W12
 BYTE   N17  As1  v040
 BYTE   W18
 BYTE   N05
 BYTE   W06
 BYTE   N11  As2
 BYTE   W12
 BYTE   As1  v036
 BYTE   W12
 BYTE   As2
 BYTE   W12
 BYTE   Cn3  v032
 BYTE   W12
//  #02 //126   ----------------------------------------
 BYTE   Cs3
 BYTE   W12
 BYTE   As2
 BYTE   W12
 BYTE   N17  As1  v028
 BYTE   W18
 BYTE   N05
 BYTE   W06
 BYTE   N11  As2  v024
 BYTE   W12
 BYTE   As1
 BYTE   W12
 BYTE   As2  v020
 BYTE   W12
 BYTE   Gs2
 BYTE   W12
//  #02 //127   ----------------------------------------
 BYTE   Fn2
 BYTE   W12
 BYTE   As2  v016
 BYTE   W12
 BYTE   N17  Gs1
 BYTE   W18
 BYTE   N05  Gs1  v012
 BYTE   W06
 BYTE   N11  Gs2
 BYTE   W12
 BYTE   Gs1
 BYTE   W12
 BYTE   Gs2  v008
 BYTE   W12
 BYTE   Fs2
 BYTE   W12
//  #02 //128   ----------------------------------------
 BYTE   Fn2  v004
 BYTE   W12
 BYTE   Gs2
 BYTE   W12
 BYTE   FINE

//**************** Track 3 (Midi-Chn.2) ****************//

MrExplorer_003:
//  #03 //000   ----------------------------------------
 BYTE   KEYSH   MrExplorer_key+0
 BYTE   VOICE   18
 BYTE   VOL   51*MrExplorer_mvl/mxv
 BYTE   PAN   c_v+0
 BYTE   VOL   40*MrExplorer_mvl/mxv
 BYTE   PAN   c_v+0
 BYTE   W24
 BYTE   N44  As3  v108
 BYTE   W48
 BYTE   N17
 BYTE   W18
 BYTE   Cn4
 BYTE   W06
//  #03 //001   ----------------------------------------
 BYTE   W12
 BYTE   N11  Cs4
 BYTE   W12
 BYTE   N44  Cn4
 BYTE   W48
 BYTE   N17  Ds4
 BYTE   W18
 BYTE   Cn4
 BYTE   W06
//  #03 //002   ----------------------------------------
 BYTE   W12
 BYTE   N11  Ds4
 BYTE   W12
 BYTE   Fn4
 BYTE   W18
 BYTE   N05  Cn4
 BYTE   W06
 BYTE   N44  Fn4
 BYTE   W48
//  #03 //003   ----------------------------------------
 BYTE   N07
 BYTE   W08
 BYTE   Ds4
 BYTE   W08
 BYTE   Fn4
 BYTE   W08
 BYTE   N44  Fs4
 BYTE   W48
 BYTE   N23  Gs4
 BYTE   W24
//  #03 //004   ----------------------------------------
 BYTE   Cn5
 BYTE   W24
 BYTE   N32  As3  v108
 BYTE   W36
 BYTE   N05  Gs4
 BYTE   W06
 BYTE   As4
 BYTE   W06
 BYTE   N17  Gs4
 BYTE   W18
 BYTE   Fn4
 BYTE   W06
//  #03 //005   ----------------------------------------
Label_01573845:
 BYTE   W12
 BYTE   N11  Ds4  v108
 BYTE   W12
 BYTE   Fn4
 BYTE   W18
 BYTE   N05  Ds4
 BYTE   W06
 BYTE   N68  Fn4
 BYTE   W48
 BYTE   PEND 
//  #03 //006   ----------------------------------------
Label_01573853:
 BYTE   W24
 BYTE   N32  Ds4  v108
 BYTE   W36
 BYTE   N05  Fn4
 BYTE   W06
 BYTE   Fs4
 BYTE   W06
 BYTE   N17  Fn4
 BYTE   W18
 BYTE   Ds4
 BYTE   W06
 BYTE   PEND 
//  #03 //007   ----------------------------------------
Label_01573863:
 BYTE   W12
 BYTE   N11  Cn4  v108
 BYTE   W12
 BYTE   N23  Cs4
 BYTE   W24
 BYTE   Ds4
 BYTE   W24
 BYTE   N44  Fn4
 BYTE   W24
 BYTE   PEND 
//  #03 //008   ----------------------------------------
Label_01573871:
 BYTE   W24
 BYTE   N32  As3  v108
 BYTE   W36
 BYTE   N05  Gs4
 BYTE   W06
 BYTE   As4
 BYTE   W06
 BYTE   N17  Gs4
 BYTE   W18
 BYTE   Fn4
 BYTE   W06
 BYTE   PEND 
//  #03 //009   ----------------------------------------
Label_01573881:
 BYTE   W12
 BYTE   N11  Ds4  v108
 BYTE   W12
 BYTE   N11
 BYTE   W18
 BYTE   N05  Cs4
 BYTE   W06
 BYTE   N68  Ds4
 BYTE   W48
 BYTE   PEND 
//  #03 //010   ----------------------------------------
Label_0157388F:
 BYTE   W24
 BYTE   N32  Cn4  v108
 BYTE   W36
 BYTE   N03  Cs4
 BYTE   W03
 BYTE   N08  Ds4
 BYTE   W09
 BYTE   N15  Cs4
 BYTE   W16
 BYTE   Cn4
 BYTE   W08
 BYTE   PEND 
//  #03 //011   ----------------------------------------
Label_015738A0:
 BYTE   W08
 BYTE   N15  As3  v108
 BYTE   W16
 BYTE   N92  Gs3
 BYTE   W72
 BYTE   PEND 
//  #03 //012   ----------------------------------------
Label_015738A9:
 BYTE   W24
 BYTE   N32  Gs3  v108
 BYTE   W36
 BYTE   N05  Fs4
 BYTE   W06
 BYTE   Gs4
 BYTE   W06
 BYTE   N17  Fs4
 BYTE   W18
 BYTE   Ds4
 BYTE   W06
 BYTE   PEND 
//  #03 //013   ----------------------------------------
Label_015738B9:
 BYTE   W12
 BYTE   N11  Cs4  v108
 BYTE   W12
 BYTE   Ds4
 BYTE   W18
 BYTE   N05  Cs4
 BYTE   W06
 BYTE   N68  Ds4
 BYTE   W48
 BYTE   PEND 
//  #03 //014   ----------------------------------------
Label_015738C7:
 BYTE   W24
 BYTE   N32  Cs4  v108
 BYTE   W36
 BYTE   N05  Ds4
 BYTE   W06
 BYTE   Fn4
 BYTE   W06
 BYTE   N17  Ds4
 BYTE   W18
 BYTE   Cs4
 BYTE   W06
 BYTE   PEND 
//  #03 //015   ----------------------------------------
Label_015738D7:
 BYTE   W12
 BYTE   N11  As3  v108
 BYTE   W12
 BYTE   N23  Cs4
 BYTE   W24
 BYTE   Ds4
 BYTE   W24
 BYTE   N44  Fn4
 BYTE   W24
 BYTE   PEND 
//  #03 //016   ----------------------------------------
Label_015738E5:
 BYTE   W24
 BYTE   N32  As3  v108
 BYTE   W36
 BYTE   N05  Gs4
 BYTE   W06
 BYTE   As4
 BYTE   W06
 BYTE   N17  Gs4
 BYTE   W18
 BYTE   As4
 BYTE   W06
 BYTE   PEND 
//  #03 //017   ----------------------------------------
Label_015738F5:
 BYTE   W12
 BYTE   N11  Cn5  v108
 BYTE   W12
 BYTE   As4
 BYTE   W18
 BYTE   N05  Fn4
 BYTE   W06
 BYTE   N68
 BYTE   W48
 BYTE   PEND 
//  #03 //018   ----------------------------------------
Label_01573902:
 BYTE   W24
 BYTE   N17  Ds4  v108
 BYTE   W18
 BYTE   As4
 BYTE   W06
 BYTE   W12
 BYTE   N11  Fs4
 BYTE   W12
 BYTE   N17  Gs4
 BYTE   W18
 BYTE   As4
 BYTE   W06
 BYTE   PEND 
//  #03 //019   ----------------------------------------
Label_01573913:
 BYTE   W12
 BYTE   N11  Cn5  v108
 BYTE   W12
 BYTE   N92  As4
 BYTE   W72
 BYTE   PEND 
//  #03 //020   ----------------------------------------
Label_0157391C:
 BYTE   W24
 BYTE   N44  Fs4  v108
 BYTE   W48
 BYTE   N15
 BYTE   W16
 BYTE   Gs4
 BYTE   W08
 BYTE   PEND 
//  #03 //021   ----------------------------------------
Label_01573926:
 BYTE   W08
 BYTE   N15  As4  v108
 BYTE   W16
 BYTE   N44  Cn5
 BYTE   W48
 BYTE   Gs4
 BYTE   W24
 BYTE   PEND 
//  #03 //022   ----------------------------------------
Label_01573931:
 BYTE   W24
 BYTE   N44  Fn4  v108
 BYTE   W48
 BYTE   N15
 BYTE   W16
 BYTE   Fs4
 BYTE   W08
 BYTE   PEND 
//  #03 //023   ----------------------------------------
Label_0157393B:
 BYTE   W08
 BYTE   N15  Gs4  v108
 BYTE   W16
 BYTE   N44  Fs4
 BYTE   W48
 BYTE   Fn4
 BYTE   W24
 BYTE   PEND 
//  #03 //024   ----------------------------------------
Label_01573946:
 BYTE   W24
 BYTE   N80  Ds4  v108
 BYTE   W72
 BYTE   PEND 
//  #03 //025   ----------------------------------------
Label_0157394C:
 BYTE   W12
 BYTE   N03  Cs4  v108
 BYTE   W04
 BYTE   N07  Cn4
 BYTE   W08
 BYTE   N44  En4
 BYTE   W48
 BYTE   Cn4
 BYTE   W24
 BYTE   PEND 
//  #03 //026   ----------------------------------------
Label_0157395A:
 BYTE   W24
 BYTE   TIE  Fn4  v108
 BYTE   W72
 BYTE   PEND 
//  #03 //027   ----------------------------------------
Label_01573960:
 BYTE   W24
 BYTE   W68
 BYTE   W03
 BYTE   PEND 
 BYTE   EOT
 BYTE   Fn4
 BYTE   W01
//  #03 //028   ----------------------------------------
 BYTE   PATT
  POIN2 Label_01573871
//  #03 //029   ----------------------------------------
 BYTE   PATT
  POIN2 Label_01573845
//  #03 //030   ----------------------------------------
 BYTE   PATT
  POIN2 Label_01573853
//  #03 //031   ----------------------------------------
 BYTE   PATT
  POIN2 Label_01573863
//  #03 //032   ----------------------------------------
 BYTE   PATT
  POIN2 Label_01573871
//  #03 //033   ----------------------------------------
 BYTE   PATT
  POIN2 Label_01573845
//  #03 //034   ----------------------------------------
Label_01573985:
 BYTE   W24
 BYTE   N32  Cs4  v108
 BYTE   W36
 BYTE   N03  Ds4
 BYTE   W03
 BYTE   N08  Fn4
 BYTE   W09
 BYTE   N15  Ds4
 BYTE   W16
 BYTE   Cs4
 BYTE   W08
 BYTE   PEND 
//  #03 //035   ----------------------------------------
Label_01573996:
 BYTE   W08
 BYTE   N15  Cn4  v108
 BYTE   W16
 BYTE   N92  As3
 BYTE   W72
 BYTE   PEND 
//  #03 //036   ----------------------------------------
 BYTE   PATT
  POIN2 Label_01573871
//  #03 //037   ----------------------------------------
 BYTE   PATT
  POIN2 Label_01573845
//  #03 //038   ----------------------------------------
 BYTE   PATT
  POIN2 Label_01573853
//  #03 //039   ----------------------------------------
 BYTE   PATT
  POIN2 Label_01573863
//  #03 //040   ----------------------------------------
 BYTE   PATT
  POIN2 Label_015738E5
//  #03 //041   ----------------------------------------
 BYTE   PATT
  POIN2 Label_015738F5
//  #03 //042   ----------------------------------------
 BYTE   PATT
  POIN2 Label_01573902
//  #03 //043   ----------------------------------------
 BYTE   PATT
  POIN2 Label_01573913
//  #03 //044   ----------------------------------------
 BYTE   PATT
  POIN2 Label_0157391C
//  #03 //045   ----------------------------------------
 BYTE   PATT
  POIN2 Label_01573926
//  #03 //046   ----------------------------------------
 BYTE   PATT
  POIN2 Label_01573931
//  #03 //047   ----------------------------------------
 BYTE   PATT
  POIN2 Label_0157393B
//  #03 //048   ----------------------------------------
 BYTE   PATT
  POIN2 Label_01573946
//  #03 //049   ----------------------------------------
 BYTE   PATT
  POIN2 Label_0157394C
//  #03 //050   ----------------------------------------
 BYTE   PATT
  POIN2 Label_0157395A
//  #03 //051   ----------------------------------------
 BYTE   PATT
  POIN2 Label_01573960
//  #03 //052   ----------------------------------------
 BYTE   EOT
 BYTE   Fn4
 BYTE   W01
Label_015739F2:
 BYTE   N05  Fn4  v108
 BYTE   W06
 BYTE   Fs4
 BYTE   W06
 BYTE   Gs4
 BYTE   W06
 BYTE   Fn4
 BYTE   W06
 BYTE   N32  As4
 BYTE   W36
 BYTE   N05  Fn4
 BYTE   W06
 BYTE   Gs4
 BYTE   W06
 BYTE   N23  As4
 BYTE   W24
 BYTE   PEND 
//  #03 //053   ----------------------------------------
Label_01573A08:
 BYTE   N23  Cs5  v108
 BYTE   W24
 BYTE   N32  Cn5
 BYTE   W36
 BYTE   N05  Cs5
 BYTE   W06
 BYTE   Ds5
 BYTE   W06
 BYTE   N44  Gs4
 BYTE   W24
 BYTE   PEND 
//  #03 //054   ----------------------------------------
Label_01573A18:
 BYTE   W24
 BYTE   N44  Fs4  v108
 BYTE   W48
 BYTE   N15
 BYTE   W16
 BYTE   As4
 BYTE   W08
 BYTE   PEND 
//  #03 //055   ----------------------------------------
Label_01573A22:
 BYTE   W08
 BYTE   N15  Cs5  v108
 BYTE   W16
 BYTE   Cn5
 BYTE   W16
 BYTE   Cs5
 BYTE   W16
 BYTE   Cn5
 BYTE   W16
 BYTE   N23  Gs4
 BYTE   W24
 BYTE   PEND 
//  #03 //056   ----------------------------------------
Label_01573A31:
 BYTE   N23  Fn4  v108
 BYTE   W24
 BYTE   N32  As4
 BYTE   W36
 BYTE   N05  Fn4
 BYTE   W06
 BYTE   Gs4
 BYTE   W06
 BYTE   N23  As4
 BYTE   W24
 BYTE   PEND 
//  #03 //057   ----------------------------------------
Label_01573A41:
 BYTE   N23  Fn5  v108
 BYTE   W24
 BYTE   N32  Ds5
 BYTE   W36
 BYTE   N05  Cs5
 BYTE   W06
 BYTE   Ds5
 BYTE   W06
 BYTE   N44  Cn5
 BYTE   W24
 BYTE   PEND 
//  #03 //058   ----------------------------------------
Label_01573A51:
 BYTE   W24
 BYTE   N15  Fs4  v108
 BYTE   W16
 BYTE   Fn5
 BYTE   W16
 BYTE   Ds5
 BYTE   W16
 BYTE   Cs5
 BYTE   W16
 BYTE   Cn5
 BYTE   W08
 BYTE   PEND 
//  #03 //059   ----------------------------------------
Label_01573A5F:
 BYTE   W08
 BYTE   N15  Ds5  v108
 BYTE   W16
 BYTE   TIE  As4
 BYTE   W72
 BYTE   PEND 
//  #03 //060   ----------------------------------------
 BYTE   W24
 BYTE   W72
//  #03 //061   ----------------------------------------
 BYTE   W23
 BYTE   EOT
 BYTE   W01
 BYTE   N32  As3
 BYTE   W36
 BYTE   N05  Gs4
 BYTE   W06
 BYTE   As4
 BYTE   W06
 BYTE   N17  Gs4
 BYTE   W18
 BYTE   Fn4
 BYTE   W06
//  #03 //062   ----------------------------------------
 BYTE   PATT
  POIN2 Label_01573845
//  #03 //063   ----------------------------------------
 BYTE   PATT
  POIN2 Label_01573853
//  #03 //064   ----------------------------------------
 BYTE   PATT
  POIN2 Label_01573863
//  #03 //065   ----------------------------------------
 BYTE   PATT
  POIN2 Label_01573871
//  #03 //066   ----------------------------------------
 BYTE   PATT
  POIN2 Label_01573881
//  #03 //067   ----------------------------------------
 BYTE   PATT
  POIN2 Label_0157388F
//  #03 //068   ----------------------------------------
 BYTE   PATT
  POIN2 Label_015738A0
//  #03 //069   ----------------------------------------
 BYTE   PATT
  POIN2 Label_015738A9
//  #03 //070   ----------------------------------------
 BYTE   PATT
  POIN2 Label_015738B9
//  #03 //071   ----------------------------------------
 BYTE   PATT
  POIN2 Label_015738C7
//  #03 //072   ----------------------------------------
 BYTE   PATT
  POIN2 Label_015738D7
//  #03 //073   ----------------------------------------
 BYTE   PATT
  POIN2 Label_015738E5
//  #03 //074   ----------------------------------------
 BYTE   PATT
  POIN2 Label_015738F5
//  #03 //075   ----------------------------------------
 BYTE   PATT
  POIN2 Label_01573902
//  #03 //076   ----------------------------------------
 BYTE   PATT
  POIN2 Label_01573913
//  #03 //077   ----------------------------------------
 BYTE   PATT
  POIN2 Label_0157391C
//  #03 //078   ----------------------------------------
 BYTE   PATT
  POIN2 Label_01573926
//  #03 //079   ----------------------------------------
 BYTE   PATT
  POIN2 Label_01573931
//  #03 //080   ----------------------------------------
 BYTE   PATT
  POIN2 Label_0157393B
//  #03 //081   ----------------------------------------
 BYTE   PATT
  POIN2 Label_01573946
//  #03 //082   ----------------------------------------
 BYTE   PATT
  POIN2 Label_0157394C
//  #03 //083   ----------------------------------------
 BYTE   PATT
  POIN2 Label_0157395A
//  #03 //084   ----------------------------------------
 BYTE   PATT
  POIN2 Label_01573960
//  #03 //085   ----------------------------------------
 BYTE   EOT
 BYTE   Fn4
 BYTE   W01
//  #03 //086   ----------------------------------------
 BYTE   PATT
  POIN2 Label_01573871
//  #03 //087   ----------------------------------------
 BYTE   PATT
  POIN2 Label_01573845
//  #03 //088   ----------------------------------------
 BYTE   PATT
  POIN2 Label_01573853
//  #03 //089   ----------------------------------------
 BYTE   PATT
  POIN2 Label_01573863
//  #03 //090   ----------------------------------------
 BYTE   PATT
  POIN2 Label_01573871
//  #03 //091   ----------------------------------------
 BYTE   PATT
  POIN2 Label_01573845
//  #03 //092   ----------------------------------------
 BYTE   PATT
  POIN2 Label_01573985
//  #03 //093   ----------------------------------------
 BYTE   PATT
  POIN2 Label_01573996
//  #03 //094   ----------------------------------------
 BYTE   PATT
  POIN2 Label_01573871
//  #03 //095   ----------------------------------------
 BYTE   PATT
  POIN2 Label_01573845
//  #03 //096   ----------------------------------------
 BYTE   PATT
  POIN2 Label_01573853
//  #03 //097   ----------------------------------------
 BYTE   PATT
  POIN2 Label_01573863
//  #03 //098   ----------------------------------------
 BYTE   PATT
  POIN2 Label_015738E5
//  #03 //099   ----------------------------------------
 BYTE   PATT
  POIN2 Label_015738F5
//  #03 //100   ----------------------------------------
 BYTE   PATT
  POIN2 Label_01573902
//  #03 //101   ----------------------------------------
 BYTE   PATT
  POIN2 Label_01573913
//  #03 //102   ----------------------------------------
 BYTE   PATT
  POIN2 Label_0157391C
//  #03 //103   ----------------------------------------
 BYTE   PATT
  POIN2 Label_01573926
//  #03 //104   ----------------------------------------
 BYTE   PATT
  POIN2 Label_01573931
//  #03 //105   ----------------------------------------
 BYTE   PATT
  POIN2 Label_0157393B
//  #03 //106   ----------------------------------------
 BYTE   PATT
  POIN2 Label_01573946
//  #03 //107   ----------------------------------------
 BYTE   PATT
  POIN2 Label_0157394C
//  #03 //108   ----------------------------------------
 BYTE   PATT
  POIN2 Label_0157395A
//  #03 //109   ----------------------------------------
 BYTE   PATT
  POIN2 Label_01573960
//  #03 //110   ----------------------------------------
 BYTE   EOT
 BYTE   Fn4
 BYTE   W01
//  #03 //111   ----------------------------------------
 BYTE   PATT
  POIN2 Label_015739F2
//  #03 //112   ----------------------------------------
 BYTE   PATT
  POIN2 Label_01573A08
//  #03 //113   ----------------------------------------
 BYTE   PATT
  POIN2 Label_01573A18
//  #03 //114   ----------------------------------------
 BYTE   PATT
  POIN2 Label_01573A22
//  #03 //115   ----------------------------------------
 BYTE   PATT
  POIN2 Label_01573A31
//  #03 //116   ----------------------------------------
 BYTE   PATT
  POIN2 Label_01573A41
//  #03 //117   ----------------------------------------
 BYTE   PATT
  POIN2 Label_01573A51
//  #03 //118   ----------------------------------------
 BYTE   PATT
  POIN2 Label_01573A5F
//  #03 //119   ----------------------------------------
 BYTE   W24
 BYTE   W72
//  #03 //120   ----------------------------------------
 BYTE   W23
 BYTE   EOT
 BYTE   As4
 BYTE   W01
 BYTE   N32  As3  v108
 BYTE   W36
 BYTE   N05  Gs4
 BYTE   W06
 BYTE   As4
 BYTE   W06
 BYTE   N17  Gs4
 BYTE   W18
 BYTE   Fn4
 BYTE   W06
//  #03 //121   ----------------------------------------
 BYTE   PATT
  POIN2 Label_01573845
//  #03 //122   ----------------------------------------
 BYTE   PATT
  POIN2 Label_01573853
//  #03 //123   ----------------------------------------
 BYTE   PATT
  POIN2 Label_01573863
//  #03 //124   ----------------------------------------
 BYTE   W24
 BYTE   N32  As3  v108
 BYTE   W07
 BYTE   W07
 BYTE   W07
 BYTE   W07
 BYTE   W08
 BYTE   N05  Gs4  v100
 BYTE   W06
 BYTE   As4
 BYTE   W01
 BYTE   W05
 BYTE   N17  Gs4
 BYTE   W02
 BYTE   W07
 BYTE   W07
 BYTE   W02
 BYTE   Fn4  v096
 BYTE   W06
//  #03 //125   ----------------------------------------
 BYTE   W07
 BYTE   W05
 BYTE   N11  Ds4  v092
 BYTE   W02
 BYTE   W07
 BYTE   W03
 BYTE   N11
 BYTE   W04
 BYTE   W08
 BYTE   W06
 BYTE   N05  Cs4  v088
 BYTE   W01
 BYTE   W05
 BYTE   N68  Ds4
 BYTE   W02
 BYTE   W07
 BYTE   W07
 BYTE   W08
 BYTE   W07
 BYTE   W07
 BYTE   W07
 BYTE   W03
//  #03 //126   ----------------------------------------
 BYTE   W04
 BYTE   W08
 BYTE   W07
 BYTE   W05
 BYTE   N32  Cn4  v072
 BYTE   W02
 BYTE   W07
 BYTE   W07
 BYTE   W08
 BYTE   W07
 BYTE   W05
 BYTE   N03  Cs4  v068
 BYTE   W02
 BYTE   W01
 BYTE   N08  Ds4  v064
 BYTE   W06
 BYTE   W03
 BYTE   N15  Cs4
 BYTE   W04
 BYTE   W08
 BYTE   W04
 BYTE   Cn4  v060
 BYTE   W03
 BYTE   W05
//  #03 //127   ----------------------------------------
 BYTE   W02
 BYTE   W06
 BYTE   As3
 BYTE   W01
 BYTE   W07
 BYTE   W08
 BYTE   N92  Gs3  v056
 BYTE   W07
 BYTE   W07
 BYTE   W07
 BYTE   W07
 BYTE   W08
 BYTE   W07
 BYTE   W07
 BYTE   W07
 BYTE   W07
 BYTE   W08
//  #03 //128   ----------------------------------------
 BYTE   W07
 BYTE   W07
 BYTE   W07
 BYTE   W03
 BYTE   N32  Gs3  v036
 BYTE   W04
 BYTE   W08
 BYTE   W07
 BYTE   W07
 BYTE   W07
 BYTE   W03
 BYTE   N05  Fs4  v032
 BYTE   W04
 BYTE   W02
 BYTE   Gs4  v028
 BYTE   W06
 BYTE   N17  Fs4
 BYTE   W07
 BYTE   W07
 BYTE   W04
 BYTE   Ds4  v024
 BYTE   W03
 BYTE   W03
//  #03 //129   ----------------------------------------
 BYTE   W04
 BYTE   W08
 BYTE   N11  Cs4  v020
 BYTE   W07
 BYTE   W05
 BYTE   Ds4
 BYTE   W02
 BYTE   W07
 BYTE   W07
 BYTE   W02
 BYTE   N05  Cs4  v016
 BYTE   W06
 BYTE   N68  Ds4
 BYTE   W07
 BYTE   W07
 BYTE   W07
 BYTE   W07
 BYTE   W08
 BYTE   W07
 BYTE   W05
//  #03 //130   ----------------------------------------
 BYTE   W02
 BYTE   W07
 BYTE   W07
 BYTE   W08
 BYTE   FINE

//**************** Track 4 (Midi-Chn.3) ****************//

MrExplorer_004:
//  #04 //000   ----------------------------------------
 BYTE   KEYSH   MrExplorer_key+0
 BYTE   VOICE   124
 BYTE   VOL   41*MrExplorer_mvl/mxv
 BYTE   PAN   c_v+0
 BYTE   W24
 BYTE   N11  Dn1  v080
 BYTE   N11  Cs2
 BYTE   W48
 BYTE   Cn2
 BYTE   W18
 BYTE   N05  An1
 BYTE   W06
//  #04 //001   ----------------------------------------
 BYTE   Fs1
 BYTE   W06
 BYTE   N05
 BYTE   W06
 BYTE   Fn1
 BYTE   W06
 BYTE   Fs1
 BYTE   W06
 BYTE   N11  Dn1
 BYTE   N11  Cs2
 BYTE   W48
 BYTE   N05  Dn2
 BYTE   W06
 BYTE   N11
 BYTE   W12
 BYTE   N05  Bn1
 BYTE   W06
//  #04 //002   ----------------------------------------
 BYTE   Fs1
 BYTE   W06
 BYTE   N05
 BYTE   N05  Bn1
 BYTE   W06
 BYTE   N11  Gn1
 BYTE   N11  As1
 BYTE   W12
 BYTE   Cn1
 BYTE   N11  Ds2
 BYTE   W24
 BYTE   Cn1
 BYTE   N11  Ds2
 BYTE   W24
 BYTE   Cn1
 BYTE   N11  Ds2
 BYTE   W24
//  #04 //003   ----------------------------------------
 BYTE   Cn1
 BYTE   N11  Ds2
 BYTE   W24
 BYTE   Cn1
 BYTE   N11  Ds2
 BYTE   W18
 BYTE   N05
 BYTE   W06
 BYTE   N11  Cn1
 BYTE   W12
 BYTE   Ds2
 BYTE   W12
 BYTE   N05  Cn1
 BYTE   W06
 BYTE   Ds2
 BYTE   W06
 BYTE   N11  Cn1
 BYTE   W12
//  #04 //004   ----------------------------------------
 BYTE   N11
 BYTE   N11  Ds2
 BYTE   W12
 BYTE   N11
 BYTE   W12
 BYTE   N11  Cn1  v080
 BYTE   N11  Fs1
 BYTE   W12
 BYTE   N05
 BYTE   W06
 BYTE   Cn1
 BYTE   W06
 BYTE   N11  Dn1
 BYTE   W12
 BYTE   N05  Cn1
 BYTE   N05  Fs1
 BYTE   W06
 BYTE   N05
 BYTE   W06
 BYTE   N11  Cn1
 BYTE   N11  Fs1
 BYTE   W12
 BYTE   N05
 BYTE   W06
 BYTE   Cn1
 BYTE   W06
//  #04 //005   ----------------------------------------
Label_01573CE6:
 BYTE   N11  Dn1  v080
 BYTE   W12
 BYTE   Cn1
 BYTE   W12
 BYTE   N11
 BYTE   N11  Fs1
 BYTE   W12
 BYTE   N05
 BYTE   W06
 BYTE   Cn1
 BYTE   W06
 BYTE   N11  Dn1
 BYTE   W12
 BYTE   N05  Cn1
 BYTE   N05  Fs1
 BYTE   W06
 BYTE   N05
 BYTE   W06
 BYTE   N11  Cn1
 BYTE   N11  Fs1
 BYTE   W12
 BYTE   N05  Cn1
 BYTE   N05  Fs1
 BYTE   W06
 BYTE   Cn1
 BYTE   W06
 BYTE   PEND 
//  #04 //006   ----------------------------------------
Label_01573D0B:
 BYTE   N11  Dn1  v080
 BYTE   W24
 BYTE   Cn1
 BYTE   N11  Fs1
 BYTE   W12
 BYTE   N05
 BYTE   W06
 BYTE   Cn1
 BYTE   W06
 BYTE   N11  Dn1
 BYTE   W12
 BYTE   N05  Cn1
 BYTE   N05  Fs1
 BYTE   W06
 BYTE   N05
 BYTE   W06
 BYTE   N11  Cn1
 BYTE   N11  Fs1
 BYTE   W12
 BYTE   N05
 BYTE   W06
 BYTE   Cn1
 BYTE   W06
 BYTE   PEND 
//  #04 //007   ----------------------------------------
 BYTE   PATT
  POIN2 Label_01573CE6
//  #04 //008   ----------------------------------------
Label_01573D30:
 BYTE   N11  Dn1  v080
 BYTE   N11  As1
 BYTE   W24
 BYTE   Cn1
 BYTE   N11  Fs1
 BYTE   W12
 BYTE   N05
 BYTE   W06
 BYTE   Cn1
 BYTE   W06
 BYTE   N11  Dn1
 BYTE   W12
 BYTE   N05  Cn1
 BYTE   N05  Fs1
 BYTE   W06
 BYTE   N05
 BYTE   W06
 BYTE   N11  Cn1
 BYTE   N11  Fs1
 BYTE   W12
 BYTE   N05
 BYTE   W06
 BYTE   Cn1
 BYTE   W06
 BYTE   PEND 
//  #04 //009   ----------------------------------------
 BYTE   PATT
  POIN2 Label_01573CE6
//  #04 //010   ----------------------------------------
Label_01573D57:
 BYTE   N11  Dn1  v080
 BYTE   W24
 BYTE   Cn1
 BYTE   N11  Fs1
 BYTE   W12
 BYTE   N05
 BYTE   W06
 BYTE   Cn1
 BYTE   W06
 BYTE   N11  Dn1
 BYTE   W12
 BYTE   N05  Cn1
 BYTE   N05  Fs1
 BYTE   W06
 BYTE   N05
 BYTE   W06
 BYTE   N11  Cn1
 BYTE   N11  Fs1
 BYTE   W12
 BYTE   Cn1
 BYTE   N11  Fs1
 BYTE   W12
 BYTE   PEND 
//  #04 //011   ----------------------------------------
Label_01573D77:
 BYTE   N11  Dn1  v080
 BYTE   W24
 BYTE   Cn1
 BYTE   N11  Fs1
 BYTE   W12
 BYTE   N05
 BYTE   W06
 BYTE   Cn1
 BYTE   W06
 BYTE   N11  Dn1
 BYTE   W12
 BYTE   N05  Cn1
 BYTE   N05  Fs1
 BYTE   W06
 BYTE   N05
 BYTE   W06
 BYTE   N05
 BYTE   N05  Dn2
 BYTE   W06
 BYTE   N05
 BYTE   W06
 BYTE   Fs1
 BYTE   W06
 BYTE   Bn1
 BYTE   W06
 BYTE   PEND 
//  #04 //012   ----------------------------------------
Label_01573D98:
 BYTE   N05  As1  v080
 BYTE   W06
 BYTE   Bn1
 BYTE   W06
 BYTE   N11  Gn1
 BYTE   W12
 BYTE   Cn1
 BYTE   N11  Fs1
 BYTE   W12
 BYTE   N05
 BYTE   W06
 BYTE   Cn1
 BYTE   W06
 BYTE   N11  Dn1
 BYTE   W12
 BYTE   N05  Cn1
 BYTE   N05  Fs1
 BYTE   W06
 BYTE   N05
 BYTE   W06
 BYTE   N11  Cn1
 BYTE   N11  Fs1
 BYTE   W12
 BYTE   N05
 BYTE   W06
 BYTE   Cn1
 BYTE   W06
 BYTE   PEND 
//  #04 //013   ----------------------------------------
 BYTE   PATT
  POIN2 Label_01573CE6
//  #04 //014   ----------------------------------------
 BYTE   PATT
  POIN2 Label_01573D0B
//  #04 //015   ----------------------------------------
 BYTE   PATT
  POIN2 Label_01573CE6
//  #04 //016   ----------------------------------------
 BYTE   PATT
  POIN2 Label_01573D30
//  #04 //017   ----------------------------------------
 BYTE   PATT
  POIN2 Label_01573CE6
//  #04 //018   ----------------------------------------
Label_01573DD6:
 BYTE   N11  Dn1  v080
 BYTE   W24
 BYTE   Fs1
 BYTE   N11  Dn2
 BYTE   W18
 BYTE   N05  Fs1
 BYTE   N05  Bn1
 BYTE   W18
 BYTE   N11  Gn1
 BYTE   N11  As1
 BYTE   W12
 BYTE   Fs1
 BYTE   N11  Cn2
 BYTE   W18
 BYTE   N05  Fs1
 BYTE   N05  An1
 BYTE   W06
 BYTE   PEND 
//  #04 //019   ----------------------------------------
Label_01573DF2:
 BYTE   W12
 BYTE   N11  Fn1  v080
 BYTE   N11  As1
 BYTE   W12
 BYTE   Cn1
 BYTE   N11  Fs1
 BYTE   W12
 BYTE   N05
 BYTE   W06
 BYTE   Cn1
 BYTE   W06
 BYTE   N11  Dn1
 BYTE   W12
 BYTE   N05  Cn1
 BYTE   N05  Fs1
 BYTE   W06
 BYTE   N05
 BYTE   W06
 BYTE   N05
 BYTE   N05  Dn2
 BYTE   W06
 BYTE   N05
 BYTE   W06
 BYTE   Fs1
 BYTE   W06
 BYTE   Dn2
 BYTE   W06
 BYTE   PEND 
//  #04 //020   ----------------------------------------
Label_01573E16:
 BYTE   N05  As1  v080
 BYTE   W06
 BYTE   Dn2
 BYTE   W06
 BYTE   Bn1
 BYTE   W06
 BYTE   Gn1
 BYTE   W06
 BYTE   Cn1
 BYTE   N05  Fs1
 BYTE   W06
 BYTE   Cn1
 BYTE   N05  Fs1
 BYTE   W06
 BYTE   N11  Dn1
 BYTE   N11  As1
 BYTE   W18
 BYTE   N05  Cn1
 BYTE   N05  Fs1
 BYTE   W06
 BYTE   N11  Dn1
 BYTE   N11  Fs1
 BYTE   W18
 BYTE   N05
 BYTE   W06
 BYTE   Cn1
 BYTE   W06
 BYTE   N05
 BYTE   N05  Fs1
 BYTE   W06
 BYTE   PEND 
//  #04 //021   ----------------------------------------
Label_01573E40:
 BYTE   N11  Dn1  v080
 BYTE   N11  Fs1
 BYTE   W12
 BYTE   Cn1
 BYTE   W12
 BYTE   N11
 BYTE   N11  Fs1
 BYTE   W18
 BYTE   N05  Dn1
 BYTE   N05  As1
 BYTE   W18
 BYTE   N11  Cn1
 BYTE   N11  Fs1
 BYTE   W12
 BYTE   Cn1
 BYTE   N11  Fs1
 BYTE   W18
 BYTE   N05  Dn1
 BYTE   N05  As1
 BYTE   W06
 BYTE   PEND 
//  #04 //022   ----------------------------------------
Label_01573E60:
 BYTE   W12
 BYTE   N11  Cn1  v080
 BYTE   N11  Fs1
 BYTE   W12
 BYTE   N05  Cn1
 BYTE   N05  Fs1
 BYTE   W06
 BYTE   Cn1
 BYTE   N05  Fs1
 BYTE   W06
 BYTE   N11  Dn1
 BYTE   N11  As1
 BYTE   W18
 BYTE   N05  Cn1
 BYTE   N05  Fs1
 BYTE   W06
 BYTE   N11  Dn1
 BYTE   N11  Fs1
 BYTE   W18
 BYTE   N05
 BYTE   W06
 BYTE   Cn1
 BYTE   W06
 BYTE   N05
 BYTE   N05  Fs1
 BYTE   W06
 BYTE   PEND 
//  #04 //023   ----------------------------------------
Label_01573E88:
 BYTE   N11  Dn1  v080
 BYTE   N11  As1
 BYTE   W12
 BYTE   Cn1
 BYTE   N11  Fs1
 BYTE   W12
 BYTE   N11
 BYTE   N11  Dn2
 BYTE   W18
 BYTE   N05  As1
 BYTE   N05  Bn1
 BYTE   W18
 BYTE   N11  Fs1
 BYTE   N11  Gn1
 BYTE   W12
 BYTE   Fs1
 BYTE   N11  Cn2
 BYTE   W18
 BYTE   N05  An1
 BYTE   N05  As1
 BYTE   W06
 BYTE   PEND 
//  #04 //024   ----------------------------------------
Label_01573EAA:
 BYTE   W12
 BYTE   N11  Fn1  v080
 BYTE   N11  Fs1
 BYTE   W12
 BYTE   Cn1
 BYTE   N11  Fs1
 BYTE   W18
 BYTE   N05  Cn1
 BYTE   N05  Fs1
 BYTE   W18
 BYTE   N11  Dn1
 BYTE   N11  As1
 BYTE   W24
 BYTE   Fs1
 BYTE   N11  Cn2
 BYTE   W12
 BYTE   PEND 
//  #04 //025   ----------------------------------------
Label_01573EC4:
 BYTE   N11  As1  v080
 BYTE   N11  Bn1
 BYTE   W12
 BYTE   Fn1
 BYTE   N11  Fs1
 BYTE   W12
 BYTE   Cn1
 BYTE   N11  Fs1
 BYTE   W18
 BYTE   N05  Cn1
 BYTE   N05  Fs1
 BYTE   W18
 BYTE   N11  Dn1
 BYTE   N11  As1
 BYTE   W24
 BYTE   N05  Cn1
 BYTE   N05  Fs1
 BYTE   W06
 BYTE   Cn1
 BYTE   W06
 BYTE   PEND 
//  #04 //026   ----------------------------------------
Label_01573EE4:
 BYTE   N11  Dn1  v080
 BYTE   N11  As1
 BYTE   W12
 BYTE   Fs1
 BYTE   W12
 BYTE   Cn1
 BYTE   N11  Fs1
 BYTE   W24
 BYTE   Cn1
 BYTE   N11  Fs1
 BYTE   W24
 BYTE   Cn1
 BYTE   N11  Fs1
 BYTE   W24
 BYTE   PEND 
//  #04 //027   ----------------------------------------
Label_01573EF9:
 BYTE   N11  Cn1  v080
 BYTE   N11  Fs1
 BYTE   W24
 BYTE   Cn1
 BYTE   N11  Fs1
 BYTE   W12
 BYTE   Dn2
 BYTE   W12
 BYTE   N05  Cn1
 BYTE   N05  Fs1
 BYTE   W06
 BYTE   Bn1
 BYTE   W18
 BYTE   Fs1
 BYTE   N05  Cn2
 BYTE   W06
 BYTE   N11
 BYTE   W12
 BYTE   N05  An1
 BYTE   W06
 BYTE   PEND 
//  #04 //028   ----------------------------------------
Label_01573F16:
 BYTE   N05  Fs1  v080
 BYTE   W06
 BYTE   Cn1
 BYTE   N05  Fs1
 BYTE   W06
 BYTE   N11  Dn1
 BYTE   N11  As1
 BYTE   W12
 BYTE   Cn1
 BYTE   N11  Fs1
 BYTE   W12
 BYTE   N05
 BYTE   W06
 BYTE   Cn1
 BYTE   W06
 BYTE   N11  Dn1
 BYTE   W12
 BYTE   N05  Cn1
 BYTE   N05  Fs1
 BYTE   W06
 BYTE   N05
 BYTE   W06
 BYTE   N11  Cn1
 BYTE   N11  Fs1
 BYTE   W12
 BYTE   N05
 BYTE   W06
 BYTE   Cn1
 BYTE   W06
 BYTE   PEND 
//  #04 //029   ----------------------------------------
 BYTE   PATT
  POIN2 Label_01573CE6
//  #04 //030   ----------------------------------------
 BYTE   PATT
  POIN2 Label_01573D0B
//  #04 //031   ----------------------------------------
 BYTE   PATT
  POIN2 Label_01573CE6
//  #04 //032   ----------------------------------------
 BYTE   PATT
  POIN2 Label_01573D0B
//  #04 //033   ----------------------------------------
 BYTE   PATT
  POIN2 Label_01573CE6
//  #04 //034   ----------------------------------------
 BYTE   PATT
  POIN2 Label_01573D57
//  #04 //035   ----------------------------------------
 BYTE   PATT
  POIN2 Label_01573D77
//  #04 //036   ----------------------------------------
 BYTE   PATT
  POIN2 Label_01573D98
//  #04 //037   ----------------------------------------
 BYTE   PATT
  POIN2 Label_01573CE6
//  #04 //038   ----------------------------------------
 BYTE   PATT
  POIN2 Label_01573D0B
//  #04 //039   ----------------------------------------
 BYTE   PATT
  POIN2 Label_01573CE6
//  #04 //040   ----------------------------------------
 BYTE   PATT
  POIN2 Label_01573D30
//  #04 //041   ----------------------------------------
 BYTE   PATT
  POIN2 Label_01573CE6
//  #04 //042   ----------------------------------------
 BYTE   PATT
  POIN2 Label_01573DD6
//  #04 //043   ----------------------------------------
 BYTE   PATT
  POIN2 Label_01573DF2
//  #04 //044   ----------------------------------------
 BYTE   PATT
  POIN2 Label_01573E16
//  #04 //045   ----------------------------------------
 BYTE   PATT
  POIN2 Label_01573E40
//  #04 //046   ----------------------------------------
 BYTE   PATT
  POIN2 Label_01573E60
//  #04 //047   ----------------------------------------
 BYTE   PATT
  POIN2 Label_01573E88
//  #04 //048   ----------------------------------------
 BYTE   PATT
  POIN2 Label_01573EAA
//  #04 //049   ----------------------------------------
Label_01573FA3:
 BYTE   N11  An1  v080
 BYTE   N11  As1
 BYTE   W12
 BYTE   Fn1
 BYTE   N11  Fs1
 BYTE   W12
 BYTE   Cn1
 BYTE   N11  Fs1
 BYTE   W18
 BYTE   N05  Cn1
 BYTE   N05  Fs1
 BYTE   W18
 BYTE   N11  Dn1
 BYTE   N11  As1
 BYTE   W24
 BYTE   N05  Cn1
 BYTE   N05  Fs1
 BYTE   W06
 BYTE   Cn1
 BYTE   W06
 BYTE   PEND 
//  #04 //050   ----------------------------------------
 BYTE   PATT
  POIN2 Label_01573EE4
//  #04 //051   ----------------------------------------
 BYTE   PATT
  POIN2 Label_01573EF9
//  #04 //052   ----------------------------------------
Label_01573FCD:
 BYTE   N05  Fs1  v080
 BYTE   W06
 BYTE   Cn1
 BYTE   N05  Fs1
 BYTE   W06
 BYTE   N11  Dn1
 BYTE   N11  As1
 BYTE   W12
 BYTE   Cn1
 BYTE   N11  Cs2
 BYTE   W18
 BYTE   N05  Cn1
 BYTE   N05  Fs1
 BYTE   W06
 BYTE   N11  Dn1
 BYTE   N11  As1
 BYTE   W12
 BYTE   Cn1
 BYTE   N11  Fs1
 BYTE   W12
 BYTE   Cn1
 BYTE   N11  Fs1
 BYTE   W12
 BYTE   Cn1
 BYTE   N11  Fs1
 BYTE   W12
 BYTE   PEND 
//  #04 //053   ----------------------------------------
Label_01573FF5:
 BYTE   N11  Dn1  v080
 BYTE   N11  As1
 BYTE   W24
 BYTE   Cn1
 BYTE   N11  Fs1
 BYTE   W18
 BYTE   N05  Cn1
 BYTE   N05  Fs1
 BYTE   W06
 BYTE   N11  Dn1
 BYTE   N11  As1
 BYTE   W12
 BYTE   Cn1
 BYTE   N11  Fs1
 BYTE   W12
 BYTE   Cn1
 BYTE   N11  Fs1
 BYTE   W12
 BYTE   Cn1
 BYTE   N11  Fs1
 BYTE   W12
 BYTE   PEND 
//  #04 //054   ----------------------------------------
 BYTE   PATT
  POIN2 Label_01573FF5
//  #04 //055   ----------------------------------------
 BYTE   PATT
  POIN2 Label_01573FF5
//  #04 //056   ----------------------------------------
Label_01574020:
 BYTE   N11  As1  v080
 BYTE   N11  Cn2
 BYTE   W12
 BYTE   Fn1
 BYTE   W12
 BYTE   Cn1
 BYTE   N11  Fs1
 BYTE   W18
 BYTE   N05  Cn1
 BYTE   N05  Fs1
 BYTE   W06
 BYTE   N11  Dn1
 BYTE   N11  As1
 BYTE   W12
 BYTE   Cn1
 BYTE   N11  Fs1
 BYTE   W12
 BYTE   Cn1
 BYTE   N11  Fs1
 BYTE   W12
 BYTE   Cn1
 BYTE   N11  Fs1
 BYTE   W12
 BYTE   PEND 
//  #04 //057   ----------------------------------------
 BYTE   PATT
  POIN2 Label_01573FF5
//  #04 //058   ----------------------------------------
Label_01574048:
 BYTE   N05  As1  v080
 BYTE   N05  Dn2
 BYTE   W06
 BYTE   N05
 BYTE   W06
 BYTE   Bn1
 BYTE   W06
 BYTE   Gn1
 BYTE   W06
 BYTE   N15  Cn1
 BYTE   N15  Fs1
 BYTE   W16
 BYTE   Cn1
 BYTE   N15  Fs1
 BYTE   W16
 BYTE   Dn1
 BYTE   N15  Fs1
 BYTE   W16
 BYTE   Cn1
 BYTE   N15  Fs1
 BYTE   W16
 BYTE   Cn1
 BYTE   N15  Fs1
 BYTE   W08
 BYTE   PEND 
//  #04 //059   ----------------------------------------
Label_0157406A:
 BYTE   W08
 BYTE   N15  Dn1  v080
 BYTE   N15  As1
 BYTE   W16
 BYTE   N11  Cn1
 BYTE   N11  Fs1
 BYTE   W18
 BYTE   N05  Cn1
 BYTE   N05  Fs1
 BYTE   W06
 BYTE   N11  Dn1
 BYTE   N11  As1
 BYTE   W12
 BYTE   Cn1
 BYTE   W12
 BYTE   N11
 BYTE   N11  Fs1
 BYTE   W18
 BYTE   N05  Cn1
 BYTE   N05  Fs1
 BYTE   W06
 BYTE   PEND 
//  #04 //060   ----------------------------------------
Label_0157408C:
 BYTE   N11  Dn1  v080
 BYTE   N11  As1
 BYTE   W12
 BYTE   Cn1
 BYTE   W12
 BYTE   N11
 BYTE   N11  Fs1
 BYTE   W18
 BYTE   N05  Cn1
 BYTE   N05  Fs1
 BYTE   W06
 BYTE   N11  Dn1
 BYTE   N11  As1
 BYTE   W12
 BYTE   Cn1
 BYTE   N11  Fs1
 BYTE   W12
 BYTE   N05
 BYTE   N05  Dn2
 BYTE   W06
 BYTE   N05
 BYTE   W06
 BYTE   N11  Fs1
 BYTE   N11  Bn1
 BYTE   W12
 BYTE   PEND 
//  #04 //061   ----------------------------------------
Label_015740B2:
 BYTE   N11  As1  v080
 BYTE   N11  Cn2
 BYTE   W12
 BYTE   An1
 BYTE   W12
 BYTE   Cn1
 BYTE   N11  Fs1
 BYTE   W12
 BYTE   N05
 BYTE   W06
 BYTE   Cn1
 BYTE   W06
 BYTE   N11  Dn1
 BYTE   W12
 BYTE   N05  Cn1
 BYTE   N05  Fs1
 BYTE   W06
 BYTE   N05
 BYTE   W06
 BYTE   N11  Cn1
 BYTE   N11  Fs1
 BYTE   W12
 BYTE   N05
 BYTE   W06
 BYTE   Cn1
 BYTE   W06
 BYTE   PEND 
//  #04 //062   ----------------------------------------
 BYTE   PATT
  POIN2 Label_01573CE6
//  #04 //063   ----------------------------------------
 BYTE   PATT
  POIN2 Label_01573D0B
//  #04 //064   ----------------------------------------
 BYTE   PATT
  POIN2 Label_01573CE6
//  #04 //065   ----------------------------------------
 BYTE   PATT
  POIN2 Label_01573D30
//  #04 //066   ----------------------------------------
 BYTE   PATT
  POIN2 Label_01573CE6
//  #04 //067   ----------------------------------------
 BYTE   PATT
  POIN2 Label_01573D57
//  #04 //068   ----------------------------------------
 BYTE   PATT
  POIN2 Label_01573D77
//  #04 //069   ----------------------------------------
 BYTE   PATT
  POIN2 Label_01573D98
//  #04 //070   ----------------------------------------
 BYTE   PATT
  POIN2 Label_01573CE6
//  #04 //071   ----------------------------------------
 BYTE   PATT
  POIN2 Label_01573D0B
//  #04 //072   ----------------------------------------
 BYTE   PATT
  POIN2 Label_01573CE6
//  #04 //073   ----------------------------------------
 BYTE   PATT
  POIN2 Label_01573D30
//  #04 //074   ----------------------------------------
 BYTE   PATT
  POIN2 Label_01573CE6
//  #04 //075   ----------------------------------------
 BYTE   PATT
  POIN2 Label_01573DD6
//  #04 //076   ----------------------------------------
 BYTE   PATT
  POIN2 Label_01573DF2
//  #04 //077   ----------------------------------------
 BYTE   PATT
  POIN2 Label_01573E16
//  #04 //078   ----------------------------------------
 BYTE   PATT
  POIN2 Label_01573E40
//  #04 //079   ----------------------------------------
 BYTE   PATT
  POIN2 Label_01573E60
//  #04 //080   ----------------------------------------
 BYTE   PATT
  POIN2 Label_01573E88
//  #04 //081   ----------------------------------------
 BYTE   PATT
  POIN2 Label_01573EAA
//  #04 //082   ----------------------------------------
 BYTE   PATT
  POIN2 Label_01573EC4
//  #04 //083   ----------------------------------------
 BYTE   PATT
  POIN2 Label_01573EE4
//  #04 //084   ----------------------------------------
 BYTE   PATT
  POIN2 Label_01573EF9
//  #04 //085   ----------------------------------------
 BYTE   PATT
  POIN2 Label_01573F16
//  #04 //086   ----------------------------------------
 BYTE   PATT
  POIN2 Label_01573CE6
//  #04 //087   ----------------------------------------
 BYTE   PATT
  POIN2 Label_01573D0B
//  #04 //088   ----------------------------------------
 BYTE   PATT
  POIN2 Label_01573CE6
//  #04 //089   ----------------------------------------
 BYTE   PATT
  POIN2 Label_01573D0B
//  #04 //090   ----------------------------------------
 BYTE   PATT
  POIN2 Label_01573CE6
//  #04 //091   ----------------------------------------
 BYTE   PATT
  POIN2 Label_01573D57
//  #04 //092   ----------------------------------------
 BYTE   PATT
  POIN2 Label_01573D77
//  #04 //093   ----------------------------------------
 BYTE   PATT
  POIN2 Label_01573D98
//  #04 //094   ----------------------------------------
 BYTE   PATT
  POIN2 Label_01573CE6
//  #04 //095   ----------------------------------------
 BYTE   PATT
  POIN2 Label_01573D0B
//  #04 //096   ----------------------------------------
 BYTE   PATT
  POIN2 Label_01573CE6
//  #04 //097   ----------------------------------------
 BYTE   PATT
  POIN2 Label_01573D30
//  #04 //098   ----------------------------------------
 BYTE   PATT
  POIN2 Label_01573CE6
//  #04 //099   ----------------------------------------
 BYTE   PATT
  POIN2 Label_01573DD6
//  #04 //100   ----------------------------------------
 BYTE   PATT
  POIN2 Label_01573DF2
//  #04 //101   ----------------------------------------
 BYTE   PATT
  POIN2 Label_01573E16
//  #04 //102   ----------------------------------------
 BYTE   PATT
  POIN2 Label_01573E40
//  #04 //103   ----------------------------------------
 BYTE   PATT
  POIN2 Label_01573E60
//  #04 //104   ----------------------------------------
 BYTE   PATT
  POIN2 Label_01573E88
//  #04 //105   ----------------------------------------
 BYTE   PATT
  POIN2 Label_01573EAA
//  #04 //106   ----------------------------------------
 BYTE   PATT
  POIN2 Label_01573FA3
//  #04 //107   ----------------------------------------
 BYTE   PATT
  POIN2 Label_01573EE4
//  #04 //108   ----------------------------------------
 BYTE   PATT
  POIN2 Label_01573EF9
//  #04 //109   ----------------------------------------
 BYTE   PATT
  POIN2 Label_01573FCD
//  #04 //110   ----------------------------------------
 BYTE   PATT
  POIN2 Label_01573FF5
//  #04 //111   ----------------------------------------
 BYTE   PATT
  POIN2 Label_01573FF5
//  #04 //112   ----------------------------------------
 BYTE   PATT
  POIN2 Label_01573FF5
//  #04 //113   ----------------------------------------
 BYTE   PATT
  POIN2 Label_01574020
//  #04 //114   ----------------------------------------
 BYTE   PATT
  POIN2 Label_01573FF5
//  #04 //115   ----------------------------------------
 BYTE   PATT
  POIN2 Label_01574048
//  #04 //116   ----------------------------------------
 BYTE   PATT
  POIN2 Label_0157406A
//  #04 //117   ----------------------------------------
 BYTE   PATT
  POIN2 Label_0157408C
//  #04 //118   ----------------------------------------
 BYTE   PATT
  POIN2 Label_015740B2
//  #04 //119   ----------------------------------------
 BYTE   PATT
  POIN2 Label_01573CE6
//  #04 //120   ----------------------------------------
 BYTE   PATT
  POIN2 Label_01573D0B
//  #04 //121   ----------------------------------------
 BYTE   PATT
  POIN2 Label_01573CE6
//  #04 //122   ----------------------------------------
 BYTE   N11  Dn1  v080
 BYTE   N11  As1
 BYTE   W24
 BYTE   Cn1
 BYTE   N11  Fs1
 BYTE   W12
 BYTE   N05
 BYTE   W06
 BYTE   Cn1
 BYTE   W06
 BYTE   N11  Dn1
 BYTE   W12
 BYTE   N05  Cn1  v076
 BYTE   N05  Fs1
 BYTE   W06
 BYTE   N05
 BYTE   W06
 BYTE   N11  Cn1
 BYTE   N11  Fs1
 BYTE   W12
 BYTE   N05  Fs1  v072
 BYTE   W06
 BYTE   Cn1
 BYTE   W06
//  #04 //123   ----------------------------------------
 BYTE   N11  Dn1
 BYTE   W12
 BYTE   Cn1
 BYTE   W12
 BYTE   Cn1  v068
 BYTE   N11  Fs1
 BYTE   W12
 BYTE   N05
 BYTE   W06
 BYTE   Cn1
 BYTE   W06
 BYTE   N11  Dn1  v064
 BYTE   W12
 BYTE   N05  Cn1
 BYTE   N05  Fs1
 BYTE   W06
 BYTE   N05
 BYTE   W06
 BYTE   N11  Cn1  v060
 BYTE   N11  Fs1
 BYTE   W12
 BYTE   N05  Cn1
 BYTE   N05  Fs1
 BYTE   W06
 BYTE   Cn1
 BYTE   W06
//  #04 //124   ----------------------------------------
 BYTE   N11  Dn1
 BYTE   W24
 BYTE   Cn1  v056
 BYTE   N11  Fs1
 BYTE   W12
 BYTE   N05  Fs1  v052
 BYTE   W06
 BYTE   Cn1
 BYTE   W06
 BYTE   N11  Dn1
 BYTE   W12
 BYTE   N05  Cn1
 BYTE   N05  Fs1
 BYTE   W06
 BYTE   Fs1  v048
 BYTE   W06
 BYTE   N11  Cn1
 BYTE   N11  Fs1
 BYTE   W12
 BYTE   Cn1
 BYTE   N11  Fs1
 BYTE   W12
//  #04 //125   ----------------------------------------
 BYTE   Dn1  v044
 BYTE   W24
 BYTE   Cn1  v040
 BYTE   N11  Fs1
 BYTE   W12
 BYTE   N05
 BYTE   W06
 BYTE   Cn1
 BYTE   W06
 BYTE   N11  Dn1
 BYTE   W12
 BYTE   N05  Cn1  v036
 BYTE   N05  Fs1
 BYTE   W06
 BYTE   N05
 BYTE   W06
 BYTE   N05
 BYTE   N05  Dn2
 BYTE   W06
 BYTE   N05
 BYTE   W06
 BYTE   Fs1  v032
 BYTE   W06
 BYTE   Bn1
 BYTE   W06
//  #04 //126   ----------------------------------------
 BYTE   As1
 BYTE   W06
 BYTE   Bn1
 BYTE   W06
 BYTE   N11  Gn1
 BYTE   W12
 BYTE   Cn1  v028
 BYTE   N11  Fs1
 BYTE   W12
 BYTE   N05
 BYTE   W06
 BYTE   Cn1
 BYTE   W06
 BYTE   N11  Dn1  v024
 BYTE   W12
 BYTE   N05  Cn1
 BYTE   N05  Fs1
 BYTE   W06
 BYTE   N05
 BYTE   W06
 BYTE   N11  Cn1  v020
 BYTE   N11  Fs1
 BYTE   W12
 BYTE   N05
 BYTE   W06
 BYTE   Cn1
 BYTE   W06
//  #04 //127   ----------------------------------------
 BYTE   N11  Dn1
 BYTE   W12
 BYTE   Cn1  v016
 BYTE   W12
 BYTE   N11
 BYTE   N11  Fs1
 BYTE   W12
 BYTE   N05  Fs1  v012
 BYTE   W06
 BYTE   Cn1
 BYTE   W06
 BYTE   N11  Dn1
 BYTE   W12
 BYTE   N05  Cn1
 BYTE   N05  Fs1
 BYTE   W06
 BYTE   Fs1  v008
 BYTE   W06
 BYTE   N11  Cn1
 BYTE   N11  Fs1
 BYTE   W12
 BYTE   N05  Cn1
 BYTE   N05  Fs1
 BYTE   W06
 BYTE   Cn1
 BYTE   W06
//  #04 //128   ----------------------------------------
 BYTE   N11  Dn1  v004
 BYTE   W24
 BYTE   FINE

//**************** Track 5 (Midi-Chn.4) ****************//

MrExplorer_005:
//  #05 //000   ----------------------------------------
 BYTE   KEYSH   MrExplorer_key+0
 BYTE   VOICE   81
 BYTE   VOL   53*MrExplorer_mvl/mxv
 BYTE   PAN   c_v+0
 BYTE   W24
 BYTE   W48
 BYTE   W18
 BYTE   W06
//  #05 //001   ----------------------------------------
 BYTE   W12
 BYTE   W12
 BYTE   W48
 BYTE   W18
 BYTE   W06
//  #05 //002   ----------------------------------------
 BYTE   W12
 BYTE   W12
 BYTE   W18
 BYTE   W06
 BYTE   W48
//  #05 //003   ----------------------------------------
 BYTE   W08
 BYTE   W08
 BYTE   W08
 BYTE   W48
 BYTE   W24
//  #05 //004   ----------------------------------------
 BYTE   W24
 BYTE   W72
//  #05 //005   ----------------------------------------
 BYTE   W96
//  #05 //006   ----------------------------------------
 BYTE   W96
//  #05 //007   ----------------------------------------
 BYTE   W96
//  #05 //008   ----------------------------------------
 BYTE   W96
//  #05 //009   ----------------------------------------
 BYTE   W96
//  #05 //010   ----------------------------------------
 BYTE   W96
//  #05 //011   ----------------------------------------
 BYTE   W96
//  #05 //012   ----------------------------------------
 BYTE   W96
//  #05 //013   ----------------------------------------
Label_01574319:
 BYTE   W60
 BYTE   N05  Gs2  v080
 BYTE   W06
 BYTE   Cn3
 BYTE   W06
 BYTE   N11  Fs3
 BYTE   W12
 BYTE   Ds3
 BYTE   W12
 BYTE   PEND 
//  #05 //014   ----------------------------------------
Label_01574326:
 BYTE   N11  Cn3  v080
 BYTE   W12
 BYTE   Ds3
 BYTE   W12
 BYTE   N92  Cs3
 BYTE   W72
 BYTE   PEND 
//  #05 //015   ----------------------------------------
Label_01574330:
 BYTE   W24
 BYTE   N23  Gs2  v080
 BYTE   W24
 BYTE   As2
 BYTE   W24
 BYTE   N44  Cn3
 BYTE   W24
 BYTE   PEND 
//  #05 //016   ----------------------------------------
 BYTE   W96
//  #05 //017   ----------------------------------------
Label_0157433C:
 BYTE   W72
 BYTE   N05  Gs2  v080
 BYTE   W06
 BYTE   Cn3
 BYTE   W06
 BYTE   Cs3
 BYTE   W06
 BYTE   Ds3
 BYTE   W06
 BYTE   PEND 
//  #05 //018   ----------------------------------------
Label_01574348:
 BYTE   N05  Gs3  v080
 BYTE   W06
 BYTE   Fs3
 BYTE   W06
 BYTE   Fn3
 BYTE   W06
 BYTE   Ds3
 BYTE   W06
 BYTE   N17  Gs2
 BYTE   W18
 BYTE   Ds3
 BYTE   W06
 BYTE   W12
 BYTE   N11  Cs3
 BYTE   W12
 BYTE   N17  Ds3
 BYTE   W18
 BYTE   N17
 BYTE   W06
 BYTE   PEND 
//  #05 //019   ----------------------------------------
Label_01574361:
 BYTE   W12
 BYTE   N11  Fs3  v080
 BYTE   W12
 BYTE   N92  Ds3
 BYTE   W72
 BYTE   PEND 
//  #05 //020   ----------------------------------------
 BYTE   W96
//  #05 //021   ----------------------------------------
 BYTE   W96
//  #05 //022   ----------------------------------------
 BYTE   W96
//  #05 //023   ----------------------------------------
 BYTE   W96
//  #05 //024   ----------------------------------------
 BYTE   W96
//  #05 //025   ----------------------------------------
 BYTE   W96
//  #05 //026   ----------------------------------------
 BYTE   W96
//  #05 //027   ----------------------------------------
 BYTE   W96
//  #05 //028   ----------------------------------------
 BYTE   W96
//  #05 //029   ----------------------------------------
 BYTE   W96
//  #05 //030   ----------------------------------------
 BYTE   W96
//  #05 //031   ----------------------------------------
 BYTE   W96
//  #05 //032   ----------------------------------------
 BYTE   W96
//  #05 //033   ----------------------------------------
 BYTE   W96
//  #05 //034   ----------------------------------------
 BYTE   W96
//  #05 //035   ----------------------------------------
 BYTE   W96
//  #05 //036   ----------------------------------------
 BYTE   W96
//  #05 //037   ----------------------------------------
 BYTE   PATT
  POIN2 Label_01574319
//  #05 //038   ----------------------------------------
 BYTE   PATT
  POIN2 Label_01574326
//  #05 //039   ----------------------------------------
 BYTE   PATT
  POIN2 Label_01574330
//  #05 //040   ----------------------------------------
 BYTE   W96
//  #05 //041   ----------------------------------------
 BYTE   PATT
  POIN2 Label_0157433C
//  #05 //042   ----------------------------------------
 BYTE   PATT
  POIN2 Label_01574348
//  #05 //043   ----------------------------------------
 BYTE   PATT
  POIN2 Label_01574361
//  #05 //044   ----------------------------------------
 BYTE   W96
//  #05 //045   ----------------------------------------
 BYTE   W96
//  #05 //046   ----------------------------------------
 BYTE   W96
//  #05 //047   ----------------------------------------
 BYTE   W96
//  #05 //048   ----------------------------------------
 BYTE   W96
//  #05 //049   ----------------------------------------
Label_0157439F:
 BYTE   W24
 BYTE   N68  An2  v080
 BYTE   W72
 BYTE   PEND 
//  #05 //050   ----------------------------------------
Label_015743A5:
 BYTE   N23  Fs2  v080
 BYTE   W24
 BYTE   TIE  Ds2
 BYTE   W72
 BYTE   PEND 
//  #05 //051   ----------------------------------------
 BYTE   W24
 BYTE   W72
//  #05 //052   ----------------------------------------
 BYTE   W23
 BYTE   EOT
 BYTE   W72
 BYTE   W01
//  #05 //053   ----------------------------------------
 BYTE   W96
//  #05 //054   ----------------------------------------
 BYTE   W96
//  #05 //055   ----------------------------------------
 BYTE   W96
//  #05 //056   ----------------------------------------
 BYTE   W96
//  #05 //057   ----------------------------------------
Label_015743B7:
 BYTE   W72
 BYTE   N11  As3  v080
 BYTE   W12
 BYTE   Ds4
 BYTE   W12
 BYTE   PEND 
//  #05 //058   ----------------------------------------
Label_015743BF:
 BYTE   N11  Cs4  v080
 BYTE   W12
 BYTE   Cn4
 BYTE   W12
 BYTE   N15  Cn3
 BYTE   W16
 BYTE   Cn4
 BYTE   W16
 BYTE   As3
 BYTE   W16
 BYTE   Gs3
 BYTE   W16
 BYTE   Fs3
 BYTE   W08
 BYTE   PEND 
//  #05 //059   ----------------------------------------
Label_015743D1:
 BYTE   W08
 BYTE   N15  As3  v080
 BYTE   W16
 BYTE   TIE  Ds3
 BYTE   W72
 BYTE   PEND 
//  #05 //060   ----------------------------------------
 BYTE   W24
 BYTE   W72
//  #05 //061   ----------------------------------------
 BYTE   W23
 BYTE   EOT
 BYTE   W72
 BYTE   W01
//  #05 //062   ----------------------------------------
 BYTE   W96
//  #05 //063   ----------------------------------------
 BYTE   W96
//  #05 //064   ----------------------------------------
 BYTE   W96
//  #05 //065   ----------------------------------------
 BYTE   W96
//  #05 //066   ----------------------------------------
 BYTE   W96
//  #05 //067   ----------------------------------------
 BYTE   W96
//  #05 //068   ----------------------------------------
 BYTE   W96
//  #05 //069   ----------------------------------------
 BYTE   W96
//  #05 //070   ----------------------------------------
 BYTE   PATT
  POIN2 Label_01574319
//  #05 //071   ----------------------------------------
 BYTE   PATT
  POIN2 Label_01574326
//  #05 //072   ----------------------------------------
 BYTE   PATT
  POIN2 Label_01574330
//  #05 //073   ----------------------------------------
 BYTE   W96
//  #05 //074   ----------------------------------------
 BYTE   PATT
  POIN2 Label_0157433C
//  #05 //075   ----------------------------------------
 BYTE   PATT
  POIN2 Label_01574348
//  #05 //076   ----------------------------------------
 BYTE   PATT
  POIN2 Label_01574361
//  #05 //077   ----------------------------------------
 BYTE   W96
//  #05 //078   ----------------------------------------
 BYTE   W96
//  #05 //079   ----------------------------------------
 BYTE   W96
//  #05 //080   ----------------------------------------
 BYTE   W96
//  #05 //081   ----------------------------------------
 BYTE   W96
//  #05 //082   ----------------------------------------
 BYTE   W96
//  #05 //083   ----------------------------------------
 BYTE   W96
//  #05 //084   ----------------------------------------
 BYTE   W96
//  #05 //085   ----------------------------------------
 BYTE   W96
//  #05 //086   ----------------------------------------
 BYTE   W96
//  #05 //087   ----------------------------------------
 BYTE   W96
//  #05 //088   ----------------------------------------
 BYTE   W96
//  #05 //089   ----------------------------------------
 BYTE   W96
//  #05 //090   ----------------------------------------
 BYTE   W96
//  #05 //091   ----------------------------------------
 BYTE   W96
//  #05 //092   ----------------------------------------
 BYTE   W96
//  #05 //093   ----------------------------------------
 BYTE   W96
//  #05 //094   ----------------------------------------
 BYTE   PATT
  POIN2 Label_01574319
//  #05 //095   ----------------------------------------
 BYTE   PATT
  POIN2 Label_01574326
//  #05 //096   ----------------------------------------
 BYTE   PATT
  POIN2 Label_01574330
//  #05 //097   ----------------------------------------
 BYTE   W96
//  #05 //098   ----------------------------------------
 BYTE   PATT
  POIN2 Label_0157433C
//  #05 //099   ----------------------------------------
 BYTE   PATT
  POIN2 Label_01574348
//  #05 //100   ----------------------------------------
 BYTE   PATT
  POIN2 Label_01574361
//  #05 //101   ----------------------------------------
 BYTE   W96
//  #05 //102   ----------------------------------------
 BYTE   W96
//  #05 //103   ----------------------------------------
 BYTE   W96
//  #05 //104   ----------------------------------------
 BYTE   W96
//  #05 //105   ----------------------------------------
 BYTE   W96
//  #05 //106   ----------------------------------------
 BYTE   PATT
  POIN2 Label_0157439F
//  #05 //107   ----------------------------------------
 BYTE   PATT
  POIN2 Label_015743A5
//  #05 //108   ----------------------------------------
 BYTE   W24
 BYTE   W72
//  #05 //109   ----------------------------------------
 BYTE   W23
 BYTE   EOT
 BYTE   Ds2
 BYTE   W72
 BYTE   W01
//  #05 //110   ----------------------------------------
 BYTE   W96
//  #05 //111   ----------------------------------------
 BYTE   W96
//  #05 //112   ----------------------------------------
 BYTE   W96
//  #05 //113   ----------------------------------------
 BYTE   W96
//  #05 //114   ----------------------------------------
 BYTE   PATT
  POIN2 Label_015743B7
//  #05 //115   ----------------------------------------
 BYTE   PATT
  POIN2 Label_015743BF
//  #05 //116   ----------------------------------------
 BYTE   PATT
  POIN2 Label_015743D1
//  #05 //117   ----------------------------------------
 BYTE   W24
 BYTE   W72
//  #05 //118   ----------------------------------------
 BYTE   W23
 BYTE   EOT
 BYTE   Ds3
 BYTE   W72
 BYTE   W01
//  #05 //119   ----------------------------------------
 BYTE   W96
//  #05 //120   ----------------------------------------
 BYTE   W96
//  #05 //121   ----------------------------------------
 BYTE   W96
//  #05 //122   ----------------------------------------
 BYTE   W96
//  #05 //123   ----------------------------------------
 BYTE   W96
//  #05 //124   ----------------------------------------
 BYTE   W96
//  #05 //125   ----------------------------------------
 BYTE   W96
//  #05 //126   ----------------------------------------
 BYTE   W96
//  #05 //127   ----------------------------------------
 BYTE   W60
 BYTE   N05  Gs2  v012
 BYTE   W02
 BYTE   W04
 BYTE   Cn3  v008
 BYTE   W03
 BYTE   W03
 BYTE   N11  Fs3
 BYTE   W04
 BYTE   W08
 BYTE   Ds3
 BYTE   W07
 BYTE   W05
//  #05 //128   ----------------------------------------
 BYTE   Cn3  v004
 BYTE   W02
 BYTE   W07
 BYTE   W03
 BYTE   Ds3
 BYTE   W04
 BYTE   W08
 BYTE   FINE

//**************** Track 6 (Midi-Chn.5) ****************//

MrExplorer_006:
//  #06 //000   ----------------------------------------
 BYTE   KEYSH   MrExplorer_key+0
 BYTE   VOICE   40
 BYTE   VOL   44*MrExplorer_mvl/mxv
 BYTE   PAN   c_v+0
 BYTE   W24
 BYTE   N44  As2  v060
 BYTE   W48
 BYTE   N17  Fn2
 BYTE   W18
 BYTE   Gs2
 BYTE   W06
//  #06 //001   ----------------------------------------
 BYTE   W12
 BYTE   N11  As2
 BYTE   W12
 BYTE   N44  Cn3
 BYTE   W48
 BYTE   N17
 BYTE   W18
 BYTE   Cs3
 BYTE   W06
//  #06 //002   ----------------------------------------
 BYTE   W12
 BYTE   N11  Ds3
 BYTE   W12
 BYTE   N44  Fn3
 BYTE   W48
 BYTE   Cs3
 BYTE   W24
//  #06 //003   ----------------------------------------
 BYTE   W24
 BYTE   Fs3
 BYTE   W48
 BYTE   Gs3
 BYTE   W24
//  #06 //004   ----------------------------------------
 BYTE   W24
 BYTE   N44  As2  v060
 BYTE   W48
 BYTE   N17
 BYTE   W18
 BYTE   As3
 BYTE   W06
//  #06 //005   ----------------------------------------
Label_015744D0:
 BYTE   W12
 BYTE   N11  Fn3  v060
 BYTE   W12
 BYTE   N44  Gs3
 BYTE   W48
 BYTE   Ds3
 BYTE   W24
 BYTE   PEND 
//  #06 //006   ----------------------------------------
Label_015744DB:
 BYTE   W24
 BYTE   N44  Cs3  v060
 BYTE   W48
 BYTE   As2
 BYTE   W24
 BYTE   PEND 
//  #06 //007   ----------------------------------------
Label_015744E3:
 BYTE   W24
 BYTE   N44  Gs3  v060
 BYTE   W48
 BYTE   Ds3
 BYTE   W24
 BYTE   PEND 
//  #06 //008   ----------------------------------------
Label_015744EB:
 BYTE   W24
 BYTE   N44  As2  v060
 BYTE   W48
 BYTE   N17
 BYTE   W18
 BYTE   As3
 BYTE   W06
 BYTE   PEND 
//  #06 //009   ----------------------------------------
 BYTE   PATT
  POIN2 Label_015744D0
//  #06 //010   ----------------------------------------
Label_015744FA:
 BYTE   W24
 BYTE   N32  Cs3  v060
 BYTE   W36
 BYTE   N05  Ds3
 BYTE   W06
 BYTE   Fn3
 BYTE   W06
 BYTE   N17  Ds3
 BYTE   W18
 BYTE   Cs3
 BYTE   W06
 BYTE   PEND 
//  #06 //011   ----------------------------------------
Label_0157450A:
 BYTE   W12
 BYTE   N11  Cn3  v060
 BYTE   W12
 BYTE   N92  As2
 BYTE   W72
 BYTE   PEND 
//  #06 //012   ----------------------------------------
 BYTE   PATT
  POIN2 Label_015744EB
//  #06 //013   ----------------------------------------
 BYTE   PATT
  POIN2 Label_015744D0
//  #06 //014   ----------------------------------------
 BYTE   PATT
  POIN2 Label_015744DB
//  #06 //015   ----------------------------------------
 BYTE   PATT
  POIN2 Label_015744E3
//  #06 //016   ----------------------------------------
 BYTE   PATT
  POIN2 Label_015744EB
//  #06 //017   ----------------------------------------
Label_0157452C:
 BYTE   W12
 BYTE   N11  Fn3  v060
 BYTE   W12
 BYTE   N44  Gs3
 BYTE   W48
 BYTE   Cn4
 BYTE   W24
 BYTE   PEND 
//  #06 //018   ----------------------------------------
Label_01574537:
 BYTE   W24
 BYTE   N17  Fs3  v060
 BYTE   W18
 BYTE   As3
 BYTE   W06
 BYTE   W12
 BYTE   N11  Fs3
 BYTE   W12
 BYTE   N17  Gs3
 BYTE   W18
 BYTE   As3
 BYTE   W06
 BYTE   PEND 
//  #06 //019   ----------------------------------------
Label_01574548:
 BYTE   W12
 BYTE   N11  Cn4  v060
 BYTE   W12
 BYTE   N92  As3
 BYTE   W72
 BYTE   PEND 
//  #06 //020   ----------------------------------------
Label_01574551:
 BYTE   W24
 BYTE   N44  Fs3  v060
 BYTE   W48
 BYTE   Ds3
 BYTE   W24
 BYTE   PEND 
//  #06 //021   ----------------------------------------
Label_01574559:
 BYTE   W24
 BYTE   N44  Gs3  v060
 BYTE   W48
 BYTE   Cn4
 BYTE   W24
 BYTE   PEND 
//  #06 //022   ----------------------------------------
Label_01574561:
 BYTE   W24
 BYTE   N44  Fn3  v060
 BYTE   W48
 BYTE   Cs3
 BYTE   W24
 BYTE   PEND 
//  #06 //023   ----------------------------------------
Label_01574569:
 BYTE   W24
 BYTE   N44  Fs3  v060
 BYTE   W48
 BYTE   Fn3
 BYTE   W24
 BYTE   PEND 
//  #06 //024   ----------------------------------------
Label_01574571:
 BYTE   W24
 BYTE   N56  Ds3  v060
 BYTE   W48
 BYTE   W12
 BYTE   N11  Cs3
 BYTE   W12
 BYTE   PEND 
//  #06 //025   ----------------------------------------
Label_0157457B:
 BYTE   N11  Cn3  v060
 BYTE   W12
 BYTE   As2
 BYTE   W12
 BYTE   N56  En3
 BYTE   W48
 BYTE   W12
 BYTE   N11  Cn3
 BYTE   W12
 BYTE   PEND 
//  #06 //026   ----------------------------------------
Label_01574589:
 BYTE   N11  Bn2  v060
 BYTE   W12
 BYTE   Cn3
 BYTE   W12
 BYTE   TIE  Fn3
 BYTE   W72
 BYTE   PEND 
//  #06 //027   ----------------------------------------
 BYTE   W24
 BYTE   W72
//  #06 //028   ----------------------------------------
 BYTE   W23
 BYTE   EOT
 BYTE   W01
 BYTE   N44  As2
 BYTE   W48
 BYTE   N17
 BYTE   W18
 BYTE   As3
 BYTE   W06
//  #06 //029   ----------------------------------------
 BYTE   PATT
  POIN2 Label_015744D0
//  #06 //030   ----------------------------------------
 BYTE   PATT
  POIN2 Label_015744DB
//  #06 //031   ----------------------------------------
 BYTE   PATT
  POIN2 Label_015744E3
//  #06 //032   ----------------------------------------
 BYTE   PATT
  POIN2 Label_015744EB
//  #06 //033   ----------------------------------------
 BYTE   PATT
  POIN2 Label_015744D0
//  #06 //034   ----------------------------------------
 BYTE   PATT
  POIN2 Label_015744FA
//  #06 //035   ----------------------------------------
 BYTE   PATT
  POIN2 Label_0157450A
//  #06 //036   ----------------------------------------
 BYTE   PATT
  POIN2 Label_015744EB
//  #06 //037   ----------------------------------------
 BYTE   PATT
  POIN2 Label_015744D0
//  #06 //038   ----------------------------------------
 BYTE   PATT
  POIN2 Label_015744DB
//  #06 //039   ----------------------------------------
 BYTE   PATT
  POIN2 Label_015744E3
//  #06 //040   ----------------------------------------
 BYTE   PATT
  POIN2 Label_015744EB
//  #06 //041   ----------------------------------------
 BYTE   PATT
  POIN2 Label_0157452C
//  #06 //042   ----------------------------------------
 BYTE   PATT
  POIN2 Label_01574537
//  #06 //043   ----------------------------------------
 BYTE   PATT
  POIN2 Label_01574548
//  #06 //044   ----------------------------------------
 BYTE   PATT
  POIN2 Label_01574551
//  #06 //045   ----------------------------------------
 BYTE   PATT
  POIN2 Label_01574559
//  #06 //046   ----------------------------------------
 BYTE   PATT
  POIN2 Label_01574561
//  #06 //047   ----------------------------------------
 BYTE   PATT
  POIN2 Label_01574569
//  #06 //048   ----------------------------------------
 BYTE   PATT
  POIN2 Label_01574571
//  #06 //049   ----------------------------------------
 BYTE   PATT
  POIN2 Label_0157457B
//  #06 //050   ----------------------------------------
 BYTE   PATT
  POIN2 Label_01574589
//  #06 //051   ----------------------------------------
 BYTE   W24
 BYTE   W72
//  #06 //052   ----------------------------------------
 BYTE   W23
 BYTE   EOT
 BYTE   Fn3
 BYTE   W01
 BYTE   N44  As3  v060
 BYTE   W48
 BYTE   N23  Fn3
 BYTE   W24
//  #06 //053   ----------------------------------------
Label_0157461A:
 BYTE   N23  Cs4  v060
 BYTE   W24
 BYTE   N44  Cn4
 BYTE   W48
 BYTE   Gs3
 BYTE   W24
 BYTE   PEND 
//  #06 //054   ----------------------------------------
Label_01574624:
 BYTE   W24
 BYTE   N44  Fs3  v060
 BYTE   W48
 BYTE   N23  Ds3
 BYTE   W24
 BYTE   PEND 
//  #06 //055   ----------------------------------------
Label_0157462D:
 BYTE   N23  Fs3  v060
 BYTE   W24
 BYTE   N44  Gs3
 BYTE   W48
 BYTE   N23  Ds3
 BYTE   W24
 BYTE   PEND 
//  #06 //056   ----------------------------------------
Label_01574638:
 BYTE   N23  Gs3  v060
 BYTE   W24
 BYTE   N44  As3
 BYTE   W48
 BYTE   N23  Fn3
 BYTE   W24
 BYTE   PEND 
//  #06 //057   ----------------------------------------
Label_01574643:
 BYTE   N23  Fn4  v060
 BYTE   W24
 BYTE   N44  Ds4
 BYTE   W48
 BYTE   Cn4
 BYTE   W24
 BYTE   PEND 
//  #06 //058   ----------------------------------------
Label_0157464D:
 BYTE   W24
 BYTE   N15  Fs3  v060
 BYTE   W16
 BYTE   Fn4
 BYTE   W16
 BYTE   Ds4
 BYTE   W16
 BYTE   Cs4
 BYTE   W16
 BYTE   Cn4
 BYTE   W08
 BYTE   PEND 
//  #06 //059   ----------------------------------------
Label_0157465B:
 BYTE   W08
 BYTE   N15  Ds4  v060
 BYTE   W16
 BYTE   TIE  As3
 BYTE   W72
 BYTE   PEND 
//  #06 //060   ----------------------------------------
 BYTE   W24
 BYTE   W72
//  #06 //061   ----------------------------------------
 BYTE   W23
 BYTE   EOT
 BYTE   W01
 BYTE   N44  As2
 BYTE   W48
 BYTE   N17
 BYTE   W18
 BYTE   As3
 BYTE   W06
//  #06 //062   ----------------------------------------
 BYTE   PATT
  POIN2 Label_015744D0
//  #06 //063   ----------------------------------------
 BYTE   PATT
  POIN2 Label_015744DB
//  #06 //064   ----------------------------------------
 BYTE   PATT
  POIN2 Label_015744E3
//  #06 //065   ----------------------------------------
 BYTE   PATT
  POIN2 Label_015744EB
//  #06 //066   ----------------------------------------
 BYTE   PATT
  POIN2 Label_015744D0
//  #06 //067   ----------------------------------------
 BYTE   PATT
  POIN2 Label_015744FA
//  #06 //068   ----------------------------------------
 BYTE   PATT
  POIN2 Label_0157450A
//  #06 //069   ----------------------------------------
 BYTE   PATT
  POIN2 Label_015744EB
//  #06 //070   ----------------------------------------
 BYTE   PATT
  POIN2 Label_015744D0
//  #06 //071   ----------------------------------------
 BYTE   PATT
  POIN2 Label_015744DB
//  #06 //072   ----------------------------------------
 BYTE   PATT
  POIN2 Label_015744E3
//  #06 //073   ----------------------------------------
 BYTE   PATT
  POIN2 Label_015744EB
//  #06 //074   ----------------------------------------
 BYTE   PATT
  POIN2 Label_0157452C
//  #06 //075   ----------------------------------------
 BYTE   PATT
  POIN2 Label_01574537
//  #06 //076   ----------------------------------------
 BYTE   PATT
  POIN2 Label_01574548
//  #06 //077   ----------------------------------------
 BYTE   PATT
  POIN2 Label_01574551
//  #06 //078   ----------------------------------------
 BYTE   PATT
  POIN2 Label_01574559
//  #06 //079   ----------------------------------------
 BYTE   PATT
  POIN2 Label_01574561
//  #06 //080   ----------------------------------------
 BYTE   PATT
  POIN2 Label_01574569
//  #06 //081   ----------------------------------------
 BYTE   PATT
  POIN2 Label_01574571
//  #06 //082   ----------------------------------------
 BYTE   PATT
  POIN2 Label_0157457B
//  #06 //083   ----------------------------------------
 BYTE   PATT
  POIN2 Label_01574589
//  #06 //084   ----------------------------------------
 BYTE   W24
 BYTE   W72
//  #06 //085   ----------------------------------------
 BYTE   W23
 BYTE   EOT
 BYTE   Fn3
 BYTE   W01
 BYTE   N44  As2  v060
 BYTE   W48
 BYTE   N17
 BYTE   W18
 BYTE   As3
 BYTE   W06
//  #06 //086   ----------------------------------------
 BYTE   PATT
  POIN2 Label_015744D0
//  #06 //087   ----------------------------------------
 BYTE   PATT
  POIN2 Label_015744DB
//  #06 //088   ----------------------------------------
 BYTE   PATT
  POIN2 Label_015744E3
//  #06 //089   ----------------------------------------
 BYTE   PATT
  POIN2 Label_015744EB
//  #06 //090   ----------------------------------------
 BYTE   PATT
  POIN2 Label_015744D0
//  #06 //091   ----------------------------------------
 BYTE   PATT
  POIN2 Label_015744FA
//  #06 //092   ----------------------------------------
 BYTE   PATT
  POIN2 Label_0157450A
//  #06 //093   ----------------------------------------
 BYTE   PATT
  POIN2 Label_015744EB
//  #06 //094   ----------------------------------------
 BYTE   PATT
  POIN2 Label_015744D0
//  #06 //095   ----------------------------------------
 BYTE   PATT
  POIN2 Label_015744DB
//  #06 //096   ----------------------------------------
 BYTE   PATT
  POIN2 Label_015744E3
//  #06 //097   ----------------------------------------
 BYTE   PATT
  POIN2 Label_015744EB
//  #06 //098   ----------------------------------------
 BYTE   PATT
  POIN2 Label_0157452C
//  #06 //099   ----------------------------------------
 BYTE   PATT
  POIN2 Label_01574537
//  #06 //100   ----------------------------------------
 BYTE   PATT
  POIN2 Label_01574548
//  #06 //101   ----------------------------------------
 BYTE   PATT
  POIN2 Label_01574551
//  #06 //102   ----------------------------------------
 BYTE   PATT
  POIN2 Label_01574559
//  #06 //103   ----------------------------------------
 BYTE   PATT
  POIN2 Label_01574561
//  #06 //104   ----------------------------------------
 BYTE   PATT
  POIN2 Label_01574569
//  #06 //105   ----------------------------------------
 BYTE   PATT
  POIN2 Label_01574571
//  #06 //106   ----------------------------------------
 BYTE   PATT
  POIN2 Label_0157457B
//  #06 //107   ----------------------------------------
 BYTE   PATT
  POIN2 Label_01574589
//  #06 //108   ----------------------------------------
 BYTE   W24
 BYTE   W72
//  #06 //109   ----------------------------------------
 BYTE   W23
 BYTE   EOT
 BYTE   Fn3
 BYTE   W01
 BYTE   N44  As3  v060
 BYTE   W48
 BYTE   N23  Fn3
 BYTE   W24
//  #06 //110   ----------------------------------------
 BYTE   PATT
  POIN2 Label_0157461A
//  #06 //111   ----------------------------------------
 BYTE   PATT
  POIN2 Label_01574624
//  #06 //112   ----------------------------------------
 BYTE   PATT
  POIN2 Label_0157462D
//  #06 //113   ----------------------------------------
 BYTE   PATT
  POIN2 Label_01574638
//  #06 //114   ----------------------------------------
 BYTE   PATT
  POIN2 Label_01574643
//  #06 //115   ----------------------------------------
 BYTE   PATT
  POIN2 Label_0157464D
//  #06 //116   ----------------------------------------
 BYTE   PATT
  POIN2 Label_0157465B
//  #06 //117   ----------------------------------------
 BYTE   W24
 BYTE   W72
//  #06 //118   ----------------------------------------
 BYTE   W23
 BYTE   EOT
 BYTE   As3
 BYTE   W01
 BYTE   N44  As2  v060
 BYTE   W48
 BYTE   N17
 BYTE   W18
 BYTE   As3
 BYTE   W06
//  #06 //119   ----------------------------------------
 BYTE   PATT
  POIN2 Label_015744D0
//  #06 //120   ----------------------------------------
 BYTE   PATT
  POIN2 Label_015744DB
//  #06 //121   ----------------------------------------
 BYTE   PATT
  POIN2 Label_015744E3
//  #06 //122   ----------------------------------------
 BYTE   W24
 BYTE   N44  As2  v060
 BYTE   W07
 BYTE   W07
 BYTE   W07
 BYTE   W07
 BYTE   W08
 BYTE   W07
 BYTE   W05
 BYTE   N17  As2  v056
 BYTE   W02
 BYTE   W07
 BYTE   W07
 BYTE   W02
 BYTE   As3
 BYTE   W06
//  #06 //123   ----------------------------------------
 BYTE   W07
 BYTE   W05
 BYTE   N11  Fn3  v052
 BYTE   W02
 BYTE   W07
 BYTE   W03
 BYTE   N44  Gs3
 BYTE   W04
 BYTE   W08
 BYTE   W07
 BYTE   W07
 BYTE   W07
 BYTE   W07
 BYTE   W08
 BYTE   Ds3  v048
 BYTE   W07
 BYTE   W07
 BYTE   W07
 BYTE   W03
//  #06 //124   ----------------------------------------
 BYTE   W04
 BYTE   W08
 BYTE   W07
 BYTE   W05
 BYTE   N32  Cs3  v040
 BYTE   W02
 BYTE   W07
 BYTE   W07
 BYTE   W08
 BYTE   W07
 BYTE   W05
 BYTE   N05  Ds3  v036
 BYTE   W02
 BYTE   W04
 BYTE   Fn3
 BYTE   W03
 BYTE   W03
 BYTE   N17  Ds3
 BYTE   W04
 BYTE   W08
 BYTE   W06
 BYTE   Cs3
 BYTE   W01
 BYTE   W05
//  #06 //125   ----------------------------------------
 BYTE   W02
 BYTE   W07
 BYTE   W03
 BYTE   N11  Cn3  v032
 BYTE   W04
 BYTE   W08
 BYTE   N92  As2
 BYTE   W07
 BYTE   W07
 BYTE   W07
 BYTE   W07
 BYTE   W08
 BYTE   W07
 BYTE   W07
 BYTE   W07
 BYTE   W07
 BYTE   W08
//  #06 //126   ----------------------------------------
 BYTE   W07
 BYTE   W07
 BYTE   W07
 BYTE   W03
 BYTE   N44  As2  v020
 BYTE   W04
 BYTE   W08
 BYTE   W07
 BYTE   W07
 BYTE   W07
 BYTE   W07
 BYTE   W08
 BYTE   N17  As2  v016
 BYTE   W07
 BYTE   W07
 BYTE   W04
 BYTE   As3
 BYTE   W03
 BYTE   W03
//  #06 //127   ----------------------------------------
 BYTE   W04
 BYTE   W08
 BYTE   N11  Fn3  v012
 BYTE   W07
 BYTE   W05
 BYTE   N44  Gs3
 BYTE   W02
 BYTE   W07
 BYTE   W07
 BYTE   W08
 BYTE   W07
 BYTE   W07
 BYTE   W07
 BYTE   W03
 BYTE   Ds3  v008
 BYTE   W04
 BYTE   W08
 BYTE   W07
 BYTE   W05
//  #06 //128   ----------------------------------------
 BYTE   W02
 BYTE   W07
 BYTE   W07
 BYTE   W08
 BYTE   FINE

//**************** Track 7 (Midi-Chn.6) ****************//

MrExplorer_007:
//  #07 //000   ----------------------------------------
 BYTE   KEYSH   MrExplorer_key+0
 BYTE   VOICE   34
 BYTE   VOL   40*MrExplorer_mvl/mxv
 BYTE   PAN   c_v+0
 BYTE   W24
 BYTE   N44  As1  v080
 BYTE   W48
 BYTE   N17
 BYTE   W18
 BYTE   N17
 BYTE   W06
//  #07 //001   ----------------------------------------
 BYTE   W12
 BYTE   N11
 BYTE   W12
 BYTE   N44  Cn2
 BYTE   W48
 BYTE   N17
 BYTE   W18
 BYTE   Cs2
 BYTE   W06
//  #07 //002   ----------------------------------------
 BYTE   W12
 BYTE   N11  Ds2
 BYTE   W12
 BYTE   Fn2
 BYTE   W12
 BYTE   N05
 BYTE   W06
 BYTE   N05
 BYTE   W06
 BYTE   N11  Ds2
 BYTE   W12
 BYTE   N05
 BYTE   W06
 BYTE   N05
 BYTE   W06
 BYTE   N11  Cs2
 BYTE   W12
 BYTE   N05
 BYTE   W06
 BYTE   N05
 BYTE   W06
//  #07 //003   ----------------------------------------
 BYTE   N11  Cn2
 BYTE   W12
 BYTE   N05
 BYTE   W06
 BYTE   N05
 BYTE   W06
 BYTE   N11  Fs2
 BYTE   W12
 BYTE   N05
 BYTE   W06
 BYTE   N05
 BYTE   W06
 BYTE   N11  Ds2
 BYTE   W12
 BYTE   N05
 BYTE   W06
 BYTE   N05
 BYTE   W06
 BYTE   N11  Gs2
 BYTE   W12
 BYTE   N05
 BYTE   W06
 BYTE   N05
 BYTE   W06
//  #07 //004   ----------------------------------------
 BYTE   N11  Cn3
 BYTE   W12
 BYTE   N05
 BYTE   W06
 BYTE   N05
 BYTE   W06
 BYTE   N17  As1  v080
 BYTE   W18
 BYTE   N05
 BYTE   W06
 BYTE   N11  As2
 BYTE   W12
 BYTE   As1
 BYTE   W12
 BYTE   As2
 BYTE   W12
 BYTE   Gs2
 BYTE   W12
//  #07 //005   ----------------------------------------
Label_015748AD:
 BYTE   N11  Fn2  v080
 BYTE   W12
 BYTE   As2
 BYTE   W12
 BYTE   N17  Gs1
 BYTE   W18
 BYTE   N05
 BYTE   W06
 BYTE   N11  Gs2
 BYTE   W12
 BYTE   Gs1
 BYTE   W12
 BYTE   Gs2
 BYTE   W12
 BYTE   Fs2
 BYTE   W12
 BYTE   PEND 
//  #07 //006   ----------------------------------------
Label_015748C2:
 BYTE   N11  Fn2  v080
 BYTE   W12
 BYTE   Gs2
 BYTE   W12
 BYTE   N17  Fs1
 BYTE   W18
 BYTE   N05
 BYTE   W06
 BYTE   N11  Fs2
 BYTE   W12
 BYTE   Fs1
 BYTE   W12
 BYTE   Fs2
 BYTE   W12
 BYTE   Fn2
 BYTE   W12
 BYTE   PEND 
//  #07 //007   ----------------------------------------
Label_015748D7:
 BYTE   N11  Ds2  v080
 BYTE   W12
 BYTE   Fs2
 BYTE   W12
 BYTE   N17  Gs1
 BYTE   W18
 BYTE   N05
 BYTE   W06
 BYTE   N11  Gs2
 BYTE   W12
 BYTE   Gs1
 BYTE   W12
 BYTE   Gs2
 BYTE   W12
 BYTE   As2
 BYTE   W12
 BYTE   PEND 
//  #07 //008   ----------------------------------------
Label_015748EC:
 BYTE   N11  Cn3  v080
 BYTE   W12
 BYTE   Gs2
 BYTE   W12
 BYTE   N17  As1
 BYTE   W18
 BYTE   N05
 BYTE   W06
 BYTE   N11  As2
 BYTE   W12
 BYTE   As1
 BYTE   W12
 BYTE   As2
 BYTE   W12
 BYTE   Gs2
 BYTE   W12
 BYTE   PEND 
//  #07 //009   ----------------------------------------
 BYTE   PATT
  POIN2 Label_015748AD
//  #07 //010   ----------------------------------------
 BYTE   PATT
  POIN2 Label_015748C2
//  #07 //011   ----------------------------------------
Label_0157490B:
 BYTE   N11  Ds2  v080
 BYTE   W12
 BYTE   Fs2
 BYTE   W12
 BYTE   N17  As1
 BYTE   W18
 BYTE   N05
 BYTE   W06
 BYTE   N11  As2
 BYTE   W12
 BYTE   As1
 BYTE   W12
 BYTE   As2
 BYTE   W12
 BYTE   Cn3
 BYTE   W12
 BYTE   PEND 
//  #07 //012   ----------------------------------------
Label_01574920:
 BYTE   N11  Cs3  v080
 BYTE   W12
 BYTE   As2
 BYTE   W12
 BYTE   N17  As1
 BYTE   W18
 BYTE   N05
 BYTE   W06
 BYTE   N11  As2
 BYTE   W12
 BYTE   As1
 BYTE   W12
 BYTE   As2
 BYTE   W12
 BYTE   Gs2
 BYTE   W12
 BYTE   PEND 
//  #07 //013   ----------------------------------------
 BYTE   PATT
  POIN2 Label_015748AD
//  #07 //014   ----------------------------------------
 BYTE   PATT
  POIN2 Label_015748C2
//  #07 //015   ----------------------------------------
 BYTE   PATT
  POIN2 Label_015748D7
//  #07 //016   ----------------------------------------
 BYTE   PATT
  POIN2 Label_015748EC
//  #07 //017   ----------------------------------------
Label_01574949:
 BYTE   N11  Ds2  v080
 BYTE   W12
 BYTE   As2
 BYTE   W12
 BYTE   N17  Gs1
 BYTE   W18
 BYTE   N05
 BYTE   W06
 BYTE   N11  Gs2
 BYTE   W12
 BYTE   Gs1
 BYTE   W12
 BYTE   Gs2
 BYTE   W12
 BYTE   Fs2
 BYTE   W12
 BYTE   PEND 
//  #07 //018   ----------------------------------------
Label_0157495E:
 BYTE   N11  Fn2  v080
 BYTE   W12
 BYTE   Gs2
 BYTE   W12
 BYTE   N17  Fs1
 BYTE   W18
 BYTE   N05
 BYTE   W06
 BYTE   N11  Fs2
 BYTE   W12
 BYTE   Fs1
 BYTE   W12
 BYTE   N17  Gs1
 BYTE   W18
 BYTE   N05
 BYTE   W06
 BYTE   PEND 
//  #07 //019   ----------------------------------------
Label_01574974:
 BYTE   N11  Gs2  v080
 BYTE   W12
 BYTE   Gs1
 BYTE   W12
 BYTE   N17  As1
 BYTE   W18
 BYTE   N05
 BYTE   W06
 BYTE   N11  As2
 BYTE   W12
 BYTE   As1
 BYTE   W12
 BYTE   As2
 BYTE   W12
 BYTE   Fn2
 BYTE   W12
 BYTE   PEND 
//  #07 //020   ----------------------------------------
Label_01574989:
 BYTE   N11  Gs2  v080
 BYTE   W12
 BYTE   Fn2
 BYTE   W12
 BYTE   N05
 BYTE   W06
 BYTE   Fs2
 BYTE   W06
 BYTE   N17
 BYTE   W18
 BYTE   N05  Fn2
 BYTE   W06
 BYTE   N11  Fs2
 BYTE   W36
 BYTE   PEND 
//  #07 //021   ----------------------------------------
Label_0157499C:
 BYTE   W24
 BYTE   N15  Gs2  v080
 BYTE   W16
 BYTE   As2
 BYTE   W16
 BYTE   Cn3
 BYTE   W16
 BYTE   Cs3
 BYTE   W16
 BYTE   Cn3
 BYTE   W08
 BYTE   PEND 
//  #07 //022   ----------------------------------------
Label_015749AA:
 BYTE   W08
 BYTE   N15  Gs2  v080
 BYTE   W16
 BYTE   N05  Ds2
 BYTE   W06
 BYTE   Fn2
 BYTE   W06
 BYTE   N17
 BYTE   W18
 BYTE   N05  Ds2
 BYTE   W06
 BYTE   N11  Fn2
 BYTE   W36
 BYTE   PEND 
//  #07 //023   ----------------------------------------
Label_015749BD:
 BYTE   W24
 BYTE   N11  Fs2  v080
 BYTE   W12
 BYTE   Cs2
 BYTE   W12
 BYTE   Fn2
 BYTE   W12
 BYTE   Fs2
 BYTE   W12
 BYTE   Fn2
 BYTE   W12
 BYTE   Cs2
 BYTE   W12
 BYTE   PEND 
//  #07 //024   ----------------------------------------
Label_015749CD:
 BYTE   N11  Ds2  v080
 BYTE   W12
 BYTE   Fn2
 BYTE   W12
 BYTE   N17  Ds2
 BYTE   W18
 BYTE   N17
 BYTE   W18
 BYTE   N23
 BYTE   W24
 BYTE   N11  Cs2
 BYTE   W12
 BYTE   PEND 
//  #07 //025   ----------------------------------------
Label_015749DE:
 BYTE   N11  Cn2  v080
 BYTE   W12
 BYTE   Ds2
 BYTE   W12
 BYTE   N17  En2
 BYTE   W18
 BYTE   N17
 BYTE   W18
 BYTE   N23
 BYTE   W24
 BYTE   N11  Cs2
 BYTE   W12
 BYTE   PEND 
//  #07 //026   ----------------------------------------
Label_015749EF:
 BYTE   N11  Cn2  v080
 BYTE   W12
 BYTE   En2
 BYTE   W12
 BYTE   Fn2
 BYTE   W12
 BYTE   N05
 BYTE   W06
 BYTE   N05
 BYTE   W06
 BYTE   N11
 BYTE   W12
 BYTE   N05
 BYTE   W06
 BYTE   N05
 BYTE   W06
 BYTE   N11
 BYTE   W12
 BYTE   N05
 BYTE   W06
 BYTE   N05
 BYTE   W06
 BYTE   PEND 
//  #07 //027   ----------------------------------------
Label_01574A08:
 BYTE   N11  Fn2  v080
 BYTE   W12
 BYTE   N05
 BYTE   W06
 BYTE   N05
 BYTE   W06
 BYTE   N11
 BYTE   W12
 BYTE   N05
 BYTE   W06
 BYTE   N05
 BYTE   W06
 BYTE   N11  Ds2
 BYTE   W12
 BYTE   N05
 BYTE   W06
 BYTE   N05
 BYTE   W06
 BYTE   N11  Cs2
 BYTE   W12
 BYTE   N05
 BYTE   W06
 BYTE   N05
 BYTE   W06
 BYTE   PEND 
//  #07 //028   ----------------------------------------
Label_01574A25:
 BYTE   N11  Cn2  v080
 BYTE   W12
 BYTE   N05
 BYTE   W06
 BYTE   N05
 BYTE   W06
 BYTE   N17  As1
 BYTE   W18
 BYTE   N05
 BYTE   W06
 BYTE   N11  As2
 BYTE   W12
 BYTE   As1
 BYTE   W12
 BYTE   As2
 BYTE   W12
 BYTE   Gs2
 BYTE   W12
 BYTE   PEND 
//  #07 //029   ----------------------------------------
 BYTE   PATT
  POIN2 Label_015748AD
//  #07 //030   ----------------------------------------
 BYTE   PATT
  POIN2 Label_015748C2
//  #07 //031   ----------------------------------------
 BYTE   PATT
  POIN2 Label_015748D7
//  #07 //032   ----------------------------------------
 BYTE   PATT
  POIN2 Label_015748EC
//  #07 //033   ----------------------------------------
 BYTE   PATT
  POIN2 Label_015748AD
//  #07 //034   ----------------------------------------
 BYTE   PATT
  POIN2 Label_015748C2
//  #07 //035   ----------------------------------------
 BYTE   PATT
  POIN2 Label_0157490B
//  #07 //036   ----------------------------------------
 BYTE   PATT
  POIN2 Label_01574920
//  #07 //037   ----------------------------------------
 BYTE   PATT
  POIN2 Label_015748AD
//  #07 //038   ----------------------------------------
 BYTE   PATT
  POIN2 Label_015748C2
//  #07 //039   ----------------------------------------
 BYTE   PATT
  POIN2 Label_015748D7
//  #07 //040   ----------------------------------------
 BYTE   PATT
  POIN2 Label_015748EC
//  #07 //041   ----------------------------------------
 BYTE   PATT
  POIN2 Label_015748AD
//  #07 //042   ----------------------------------------
 BYTE   PATT
  POIN2 Label_0157495E
//  #07 //043   ----------------------------------------
 BYTE   PATT
  POIN2 Label_01574974
//  #07 //044   ----------------------------------------
 BYTE   PATT
  POIN2 Label_01574989
//  #07 //045   ----------------------------------------
 BYTE   PATT
  POIN2 Label_0157499C
//  #07 //046   ----------------------------------------
 BYTE   PATT
  POIN2 Label_015749AA
//  #07 //047   ----------------------------------------
 BYTE   PATT
  POIN2 Label_015749BD
//  #07 //048   ----------------------------------------
 BYTE   PATT
  POIN2 Label_015749CD
//  #07 //049   ----------------------------------------
 BYTE   PATT
  POIN2 Label_015749DE
//  #07 //050   ----------------------------------------
 BYTE   PATT
  POIN2 Label_015749EF
//  #07 //051   ----------------------------------------
 BYTE   PATT
  POIN2 Label_01574A08
//  #07 //052   ----------------------------------------
Label_01574AAF:
 BYTE   N23  Fn2  v080
 BYTE   W24
 BYTE   N17  As1
 BYTE   W18
 BYTE   N05
 BYTE   W06
 BYTE   N11  As2
 BYTE   W12
 BYTE   As1
 BYTE   W12
 BYTE   As2
 BYTE   W12
 BYTE   Gs2
 BYTE   W12
 BYTE   PEND 
//  #07 //053   ----------------------------------------
 BYTE   PATT
  POIN2 Label_015748AD
//  #07 //054   ----------------------------------------
 BYTE   PATT
  POIN2 Label_015748C2
//  #07 //055   ----------------------------------------
 BYTE   PATT
  POIN2 Label_015748D7
//  #07 //056   ----------------------------------------
 BYTE   PATT
  POIN2 Label_015748EC
//  #07 //057   ----------------------------------------
Label_01574AD6:
 BYTE   N11  Fn2  v080
 BYTE   W12
 BYTE   As2
 BYTE   W12
 BYTE   N17  Gs1
 BYTE   W18
 BYTE   N05
 BYTE   W06
 BYTE   N11  Gs2
 BYTE   W12
 BYTE   Gs1
 BYTE   W12
 BYTE   Gs2
 BYTE   W12
 BYTE   As2
 BYTE   W12
 BYTE   PEND 
//  #07 //058   ----------------------------------------
Label_01574AEB:
 BYTE   N11  Cn3  v080
 BYTE   W12
 BYTE   Gs2
 BYTE   W12
 BYTE   N15  Fs1
 BYTE   W16
 BYTE   N15
 BYTE   W16
 BYTE   N15
 BYTE   W16
 BYTE   Gs1
 BYTE   W16
 BYTE   Fn1
 BYTE   W08
 BYTE   PEND 
//  #07 //059   ----------------------------------------
Label_01574AFD:
 BYTE   W08
 BYTE   N15  Gs1  v080
 BYTE   W16
 BYTE   N17  As1
 BYTE   W18
 BYTE   N05
 BYTE   W06
 BYTE   N11  As2
 BYTE   W12
 BYTE   As1
 BYTE   W12
 BYTE   N17
 BYTE   W18
 BYTE   N05
 BYTE   W06
 BYTE   PEND 
//  #07 //060   ----------------------------------------
Label_01574B11:
 BYTE   N11  As2  v080
 BYTE   W12
 BYTE   As1
 BYTE   W12
 BYTE   N17
 BYTE   W18
 BYTE   N05
 BYTE   W06
 BYTE   N11  As2
 BYTE   W12
 BYTE   As1
 BYTE   W12
 BYTE   As2
 BYTE   W12
 BYTE   Gs2
 BYTE   W12
 BYTE   PEND 
//  #07 //061   ----------------------------------------
Label_01574B25:
 BYTE   N11  Fn2  v080
 BYTE   W12
 BYTE   As2
 BYTE   W12
 BYTE   N17  As1
 BYTE   W18
 BYTE   N05
 BYTE   W06
 BYTE   N11  As2
 BYTE   W12
 BYTE   As1
 BYTE   W12
 BYTE   As2
 BYTE   W12
 BYTE   Gs2
 BYTE   W12
 BYTE   PEND 
//  #07 //062   ----------------------------------------
 BYTE   PATT
  POIN2 Label_015748AD
//  #07 //063   ----------------------------------------
 BYTE   PATT
  POIN2 Label_015748C2
//  #07 //064   ----------------------------------------
 BYTE   PATT
  POIN2 Label_015748D7
//  #07 //065   ----------------------------------------
 BYTE   PATT
  POIN2 Label_015748EC
//  #07 //066   ----------------------------------------
 BYTE   PATT
  POIN2 Label_015748AD
//  #07 //067   ----------------------------------------
 BYTE   PATT
  POIN2 Label_015748C2
//  #07 //068   ----------------------------------------
 BYTE   PATT
  POIN2 Label_0157490B
//  #07 //069   ----------------------------------------
 BYTE   PATT
  POIN2 Label_01574920
//  #07 //070   ----------------------------------------
 BYTE   PATT
  POIN2 Label_015748AD
//  #07 //071   ----------------------------------------
 BYTE   PATT
  POIN2 Label_015748C2
//  #07 //072   ----------------------------------------
 BYTE   PATT
  POIN2 Label_015748D7
//  #07 //073   ----------------------------------------
 BYTE   PATT
  POIN2 Label_015748EC
//  #07 //074   ----------------------------------------
 BYTE   PATT
  POIN2 Label_01574949
//  #07 //075   ----------------------------------------
 BYTE   PATT
  POIN2 Label_0157495E
//  #07 //076   ----------------------------------------
 BYTE   PATT
  POIN2 Label_01574974
//  #07 //077   ----------------------------------------
 BYTE   PATT
  POIN2 Label_01574989
//  #07 //078   ----------------------------------------
 BYTE   PATT
  POIN2 Label_0157499C
//  #07 //079   ----------------------------------------
 BYTE   PATT
  POIN2 Label_015749AA
//  #07 //080   ----------------------------------------
 BYTE   PATT
  POIN2 Label_015749BD
//  #07 //081   ----------------------------------------
 BYTE   PATT
  POIN2 Label_015749CD
//  #07 //082   ----------------------------------------
 BYTE   PATT
  POIN2 Label_015749DE
//  #07 //083   ----------------------------------------
 BYTE   PATT
  POIN2 Label_015749EF
//  #07 //084   ----------------------------------------
 BYTE   PATT
  POIN2 Label_01574A08
//  #07 //085   ----------------------------------------
 BYTE   PATT
  POIN2 Label_01574A25
//  #07 //086   ----------------------------------------
 BYTE   PATT
  POIN2 Label_015748AD
//  #07 //087   ----------------------------------------
 BYTE   PATT
  POIN2 Label_015748C2
//  #07 //088   ----------------------------------------
 BYTE   PATT
  POIN2 Label_015748D7
//  #07 //089   ----------------------------------------
 BYTE   PATT
  POIN2 Label_015748EC
//  #07 //090   ----------------------------------------
 BYTE   PATT
  POIN2 Label_015748AD
//  #07 //091   ----------------------------------------
 BYTE   PATT
  POIN2 Label_015748C2
//  #07 //092   ----------------------------------------
 BYTE   PATT
  POIN2 Label_0157490B
//  #07 //093   ----------------------------------------
 BYTE   PATT
  POIN2 Label_01574920
//  #07 //094   ----------------------------------------
 BYTE   PATT
  POIN2 Label_015748AD
//  #07 //095   ----------------------------------------
 BYTE   PATT
  POIN2 Label_015748C2
//  #07 //096   ----------------------------------------
 BYTE   PATT
  POIN2 Label_015748D7
//  #07 //097   ----------------------------------------
 BYTE   PATT
  POIN2 Label_015748EC
//  #07 //098   ----------------------------------------
 BYTE   PATT
  POIN2 Label_015748AD
//  #07 //099   ----------------------------------------
 BYTE   PATT
  POIN2 Label_0157495E
//  #07 //100   ----------------------------------------
 BYTE   PATT
  POIN2 Label_01574974
//  #07 //101   ----------------------------------------
 BYTE   PATT
  POIN2 Label_01574989
//  #07 //102   ----------------------------------------
 BYTE   PATT
  POIN2 Label_0157499C
//  #07 //103   ----------------------------------------
 BYTE   PATT
  POIN2 Label_015749AA
//  #07 //104   ----------------------------------------
 BYTE   PATT
  POIN2 Label_015749BD
//  #07 //105   ----------------------------------------
 BYTE   PATT
  POIN2 Label_015749CD
//  #07 //106   ----------------------------------------
 BYTE   PATT
  POIN2 Label_015749DE
//  #07 //107   ----------------------------------------
 BYTE   PATT
  POIN2 Label_015749EF
//  #07 //108   ----------------------------------------
 BYTE   PATT
  POIN2 Label_01574A08
//  #07 //109   ----------------------------------------
 BYTE   PATT
  POIN2 Label_01574AAF
//  #07 //110   ----------------------------------------
 BYTE   PATT
  POIN2 Label_015748AD
//  #07 //111   ----------------------------------------
 BYTE   PATT
  POIN2 Label_015748C2
//  #07 //112   ----------------------------------------
 BYTE   PATT
  POIN2 Label_015748D7
//  #07 //113   ----------------------------------------
 BYTE   PATT
  POIN2 Label_015748EC
//  #07 //114   ----------------------------------------
 BYTE   PATT
  POIN2 Label_01574AD6
//  #07 //115   ----------------------------------------
 BYTE   PATT
  POIN2 Label_01574AEB
//  #07 //116   ----------------------------------------
 BYTE   PATT
  POIN2 Label_01574AFD
//  #07 //117   ----------------------------------------
 BYTE   PATT
  POIN2 Label_01574B11
//  #07 //118   ----------------------------------------
 BYTE   PATT
  POIN2 Label_01574B25
//  #07 //119   ----------------------------------------
 BYTE   PATT
  POIN2 Label_015748AD
//  #07 //120   ----------------------------------------
 BYTE   PATT
  POIN2 Label_015748C2
//  #07 //121   ----------------------------------------
 BYTE   PATT
  POIN2 Label_015748D7
//  #07 //122   ----------------------------------------
 BYTE   N11  Cn3  v080
 BYTE   W12
 BYTE   Gs2
 BYTE   W12
 BYTE   N17  As1
 BYTE   W18
 BYTE   N05
 BYTE   W06
 BYTE   N11  As2
 BYTE   W12
 BYTE   As1  v076
 BYTE   W12
 BYTE   As2
 BYTE   W12
 BYTE   Gs2  v072
 BYTE   W12
//  #07 //123   ----------------------------------------
 BYTE   Fn2
 BYTE   W12
 BYTE   As2
 BYTE   W12
 BYTE   N17  Gs1  v068
 BYTE   W18
 BYTE   N05
 BYTE   W06
 BYTE   N11  Gs2  v064
 BYTE   W12
 BYTE   Gs1
 BYTE   W12
 BYTE   Gs2  v060
 BYTE   W12
 BYTE   Fs2
 BYTE   W12
//  #07 //124   ----------------------------------------
 BYTE   Fn2
 BYTE   W12
 BYTE   Gs2  v056
 BYTE   W12
 BYTE   N17  Fs1
 BYTE   W18
 BYTE   N05  Fs1  v052
 BYTE   W06
 BYTE   N11  Fs2
 BYTE   W12
 BYTE   Fs1
 BYTE   W12
 BYTE   Fs2  v048
 BYTE   W12
 BYTE   Fn2
 BYTE   W12
//  #07 //125   ----------------------------------------
 BYTE   Ds2  v044
 BYTE   W12
 BYTE   Fs2
 BYTE   W12
 BYTE   N17  As1  v040
 BYTE   W18
 BYTE   N05
 BYTE   W06
 BYTE   N11  As2
 BYTE   W12
 BYTE   As1  v036
 BYTE   W12
 BYTE   As2
 BYTE   W12
 BYTE   Cn3  v032
 BYTE   W12
//  #07 //126   ----------------------------------------
 BYTE   Cs3
 BYTE   W12
 BYTE   As2
 BYTE   W12
 BYTE   N17  As1  v028
 BYTE   W18
 BYTE   N05
 BYTE   W06
 BYTE   N11  As2  v024
 BYTE   W12
 BYTE   As1
 BYTE   W12
 BYTE   As2  v020
 BYTE   W12
 BYTE   Gs2
 BYTE   W12
//  #07 //127   ----------------------------------------
 BYTE   Fn2
 BYTE   W12
 BYTE   As2  v016
 BYTE   W12
 BYTE   N17  Gs1
 BYTE   W18
 BYTE   N05  Gs1  v012
 BYTE   W06
 BYTE   N11  Gs2
 BYTE   W12
 BYTE   Gs1
 BYTE   W12
 BYTE   Gs2  v008
 BYTE   W12
 BYTE   Fs2
 BYTE   W12
//  #07 //128   ----------------------------------------
 BYTE   Fn2  v004
 BYTE   W12
 BYTE   Gs2
 BYTE   W12
 BYTE   FINE

//******************************************************//
	ALIGN 4

MrExplorer:
	BYTE	7	// NumTrks
	BYTE	0	// NumBlks
	BYTE	MrExplorer_pri	// Priority
	BYTE	MrExplorer_rev	// Reverb.
    
	POIN2	MrExplorer_grp
    
	POIN2	MrExplorer_001
	POIN2	MrExplorer_002
	POIN2	MrExplorer_003
	POIN2	MrExplorer_004
	POIN2	MrExplorer_005
	POIN2	MrExplorer_006
	POIN2	MrExplorer_007

	
