//Event file generated from Sappy .s format.
	#include "MPlayDef.event"

	#define	MyNameIsJonas_grp  voicegroup000
	#define	MyNameIsJonas_pri  0
	#define	MyNameIsJonas_rev  0
	#define	MyNameIsJonas_mvl  127
	#define	MyNameIsJonas_key  0
	#define	MyNameIsJonas_tbs  1
	#define	MyNameIsJonas_exg  0
	#define	MyNameIsJonas_cmp  1

	// .rodata
	//	MyNameIsJonas
	ALIGN 4


//**************** Track 1 (Midi-Chn.0) ****************//

MyNameIsJonas_001:
//  #01 //000   ----------------------------------------
 BYTE   VOL   65*MyNameIsJonas_mvl/mxv
 BYTE   KEYSH   MyNameIsJonas_key+0
Label_0161DFDC:
 BYTE   TEMPO   92*MyNameIsJonas_tbs/2
 BYTE   VOICE   28
 BYTE   N18  Bn1  v080
 BYTE   W06
 BYTE   Bn2
 BYTE   W06
 BYTE   N24  Fs2
 BYTE   W06
 BYTE   N06  Bn1
 BYTE   W06
 BYTE   Bn2
 BYTE   W06
 BYTE   N24  Ds2
 BYTE   W06
 BYTE   N18  As1
 BYTE   W06
 BYTE   N24  As2
 BYTE   W06
 BYTE   Fs2
 BYTE   W06
 BYTE   N06  As1
 BYTE   N24  Ds2
 BYTE   W06
 BYTE   Ds3
 BYTE   W06
 BYTE   As2
 BYTE   W06
 BYTE   N18  Gs1
 BYTE   W06
 BYTE   Bn2
 BYTE   W06
 BYTE   N24  Fs2
 BYTE   W06
 BYTE   N06  Gs1
 BYTE   W06
//  #01 //001   ----------------------------------------
Label_0161E00D:
 BYTE   N06  Bn2  v080
 BYTE   W06
 BYTE   N24  Ds2
 BYTE   W06
 BYTE   N18  As1
 BYTE   W06
 BYTE   N24  As2
 BYTE   W06
 BYTE   Fs2
 BYTE   W06
 BYTE   N06  As1
 BYTE   N24  Ds2
 BYTE   W06
 BYTE   Ds3
 BYTE   W06
 BYTE   As2
 BYTE   W06
 BYTE   N18  Bn1
 BYTE   W06
 BYTE   Bn2
 BYTE   W06
 BYTE   N24  Fs2
 BYTE   W06
 BYTE   N06  Bn1
 BYTE   W06
 BYTE   Bn2
 BYTE   W06
 BYTE   N24  Ds2
 BYTE   W06
 BYTE   N18  As1
 BYTE   W06
 BYTE   N24  As2
 BYTE   W06
 BYTE   PEND 
//  #01 //002   ----------------------------------------
Label_0161E03C:
 BYTE   N24  Fs2  v080
 BYTE   W06
 BYTE   N06  As1
 BYTE   N24  Ds2
 BYTE   W06
 BYTE   Ds3
 BYTE   W06
 BYTE   As2
 BYTE   W06
 BYTE   N18  Gs1
 BYTE   W06
 BYTE   Bn2
 BYTE   W06
 BYTE   N24  Fs2
 BYTE   W06
 BYTE   N06  Gs1
 BYTE   W06
 BYTE   Bn2
 BYTE   W06
 BYTE   N24  Ds2
 BYTE   W06
 BYTE   N18  As1
 BYTE   W06
 BYTE   N24  As2
 BYTE   W06
 BYTE   Fs2
 BYTE   W06
 BYTE   N06  As1
 BYTE   N24  Ds2
 BYTE   W06
 BYTE   Ds3
 BYTE   W06
 BYTE   As2
 BYTE   W06
 BYTE   PEND 
//  #01 //003   ----------------------------------------
 BYTE   W96
//  #01 //004   ----------------------------------------
Label_0161E06C:
 BYTE   W48
 BYTE   N18  Bn1  v080
 BYTE   W06
 BYTE   Bn2
 BYTE   W06
 BYTE   N24  Fs2
 BYTE   W06
 BYTE   N06  Bn1
 BYTE   W06
 BYTE   Bn2
 BYTE   W06
 BYTE   N24  Ds2
 BYTE   W06
 BYTE   N18  As1
 BYTE   W06
 BYTE   N24  As2
 BYTE   W06
 BYTE   PEND 
//  #01 //005   ----------------------------------------
 BYTE   PATT
  POIN2 Label_0161E03C
//  #01 //006   ----------------------------------------
 BYTE   W96
//  #01 //007   ----------------------------------------
 BYTE   W96
//  #01 //008   ----------------------------------------
 BYTE   W96
//  #01 //009   ----------------------------------------
 BYTE   W96
//  #01 //010   ----------------------------------------
 BYTE   W96
//  #01 //011   ----------------------------------------
 BYTE   W96
//  #01 //012   ----------------------------------------
 BYTE   W96
//  #01 //013   ----------------------------------------
 BYTE   W96
//  #01 //014   ----------------------------------------
 BYTE   W96
//  #01 //015   ----------------------------------------
 BYTE   W96
//  #01 //016   ----------------------------------------
 BYTE   W96
//  #01 //017   ----------------------------------------
 BYTE   W96
//  #01 //018   ----------------------------------------
 BYTE   W96
//  #01 //019   ----------------------------------------
 BYTE   W96
//  #01 //020   ----------------------------------------
 BYTE   W96
//  #01 //021   ----------------------------------------
 BYTE   N18  Bn1  v080
 BYTE   W06
 BYTE   Bn2
 BYTE   W06
 BYTE   N24  Fs2
 BYTE   W06
 BYTE   N06  Bn1
 BYTE   W06
 BYTE   Bn2
 BYTE   W06
 BYTE   N24  Ds2
 BYTE   W06
 BYTE   N18  As1
 BYTE   W06
 BYTE   N24  As2
 BYTE   W06
 BYTE   Fs2
 BYTE   W06
 BYTE   N06  As1
 BYTE   N24  Ds2
 BYTE   W06
 BYTE   Ds3
 BYTE   W06
 BYTE   As2
 BYTE   W06
 BYTE   N18  Gs1
 BYTE   W06
 BYTE   Bn2
 BYTE   W06
 BYTE   N24  Fs2
 BYTE   W06
 BYTE   N06  Gs1
 BYTE   W06
//  #01 //022   ----------------------------------------
 BYTE   PATT
  POIN2 Label_0161E00D
//  #01 //023   ----------------------------------------
 BYTE   PATT
  POIN2 Label_0161E03C
//  #01 //024   ----------------------------------------
 BYTE   W96
//  #01 //025   ----------------------------------------
 BYTE   PATT
  POIN2 Label_0161E06C
//  #01 //026   ----------------------------------------
 BYTE   PATT
  POIN2 Label_0161E03C
//  #01 //027   ----------------------------------------
 BYTE   W96
//  #01 //028   ----------------------------------------
 BYTE   W96
//  #01 //029   ----------------------------------------
 BYTE   W96
//  #01 //030   ----------------------------------------
 BYTE   W96
//  #01 //031   ----------------------------------------
 BYTE   W96
//  #01 //032   ----------------------------------------
 BYTE   W96
//  #01 //033   ----------------------------------------
 BYTE   W96
//  #01 //034   ----------------------------------------
 BYTE   W96
//  #01 //035   ----------------------------------------
 BYTE   W96
//  #01 //036   ----------------------------------------
 BYTE   W96
//  #01 //037   ----------------------------------------
 BYTE   W96
//  #01 //038   ----------------------------------------
 BYTE   W96
//  #01 //039   ----------------------------------------
 BYTE   W96
//  #01 //040   ----------------------------------------
 BYTE   W96
//  #01 //041   ----------------------------------------
 BYTE   W96
//  #01 //042   ----------------------------------------
 BYTE   W96
//  #01 //043   ----------------------------------------
 BYTE   W96
//  #01 //044   ----------------------------------------
 BYTE   W96
//  #01 //045   ----------------------------------------
 BYTE   W96
//  #01 //046   ----------------------------------------
 BYTE   W96
//  #01 //047   ----------------------------------------
 BYTE   W96
//  #01 //048   ----------------------------------------
 BYTE   W96
//  #01 //049   ----------------------------------------
 BYTE   W96
//  #01 //050   ----------------------------------------
 BYTE   W96
//  #01 //051   ----------------------------------------
 BYTE   W96
//  #01 //052   ----------------------------------------
 BYTE   W96
//  #01 //053   ----------------------------------------
 BYTE   W96
//  #01 //054   ----------------------------------------
 BYTE   W96
//  #01 //055   ----------------------------------------
 BYTE   W96
//  #01 //056   ----------------------------------------
 BYTE   W96
//  #01 //057   ----------------------------------------
 BYTE   W96
//  #01 //058   ----------------------------------------
 BYTE   W96
//  #01 //059   ----------------------------------------
 BYTE   W96
//  #01 //060   ----------------------------------------
 BYTE   W96
//  #01 //061   ----------------------------------------
 BYTE   W96
//  #01 //062   ----------------------------------------
 BYTE   W96
//  #01 //063   ----------------------------------------
 BYTE   W96
//  #01 //064   ----------------------------------------
 BYTE   W96
//  #01 //065   ----------------------------------------
 BYTE   W96
//  #01 //066   ----------------------------------------
 BYTE   W96
//  #01 //067   ----------------------------------------
 BYTE   W96
//  #01 //068   ----------------------------------------
 BYTE   W96
//  #01 //069   ----------------------------------------
 BYTE   W96
//  #01 //070   ----------------------------------------
 BYTE   W96
//  #01 //071   ----------------------------------------
 BYTE   W96
//  #01 //072   ----------------------------------------
 BYTE   W36
 BYTE   N12  Fs1  v080
 BYTE   W12
 BYTE   Gs1
 BYTE   W12
 BYTE   As1
 BYTE   W12
 BYTE   N18  Bn1
 BYTE   W06
 BYTE   Bn2
 BYTE   W06
 BYTE   N24  Fs2
 BYTE   W06
 BYTE   N06  Bn1
 BYTE   W06
//  #01 //073   ----------------------------------------
 BYTE   Bn2
 BYTE   W06
 BYTE   N24  Ds2
 BYTE   W06
 BYTE   N18  As1
 BYTE   W06
 BYTE   N24  As2
 BYTE   W06
 BYTE   Fs2
 BYTE   W06
 BYTE   N06  As1
 BYTE   N24  Ds2
 BYTE   W06
 BYTE   Ds3
 BYTE   W06
 BYTE   As2
 BYTE   W06
 BYTE   N18  Gs1
 BYTE   W06
 BYTE   Bn2
 BYTE   W06
 BYTE   N24  Fs2
 BYTE   W06
 BYTE   N06  Gs1
 BYTE   W06
 BYTE   Bn2
 BYTE   W06
 BYTE   N24  Ds2
 BYTE   W06
 BYTE   N18  As1
 BYTE   W06
 BYTE   N24  As2
 BYTE   W06
//  #01 //074   ----------------------------------------
 BYTE   Fs2
 BYTE   W06
 BYTE   N06  As1
 BYTE   N24  Ds2
 BYTE   W06
 BYTE   Ds3
 BYTE   W06
 BYTE   As2
 BYTE   W06
 BYTE   N18  Bn1
 BYTE   W06
 BYTE   Bn2
 BYTE   W06
 BYTE   N24  Fs2
 BYTE   W06
 BYTE   N06  Bn1
 BYTE   W06
 BYTE   Bn2
 BYTE   W06
 BYTE   N24  Ds2
 BYTE   W06
 BYTE   N18  As1
 BYTE   W06
 BYTE   N24  As2
 BYTE   W06
 BYTE   Fs2
 BYTE   W06
 BYTE   N06  As1
 BYTE   N24  Ds2
 BYTE   W06
 BYTE   Ds3
 BYTE   W06
 BYTE   As2
 BYTE   W06
//  #01 //075   ----------------------------------------
 BYTE   N18  Gs1
 BYTE   W06
 BYTE   Bn2
 BYTE   W06
 BYTE   N24  Fs2
 BYTE   W06
 BYTE   N06  Gs1
 BYTE   W06
 BYTE   Bn2
 BYTE   W06
 BYTE   N24  Ds2
 BYTE   W06
 BYTE   N18  As1
 BYTE   W06
 BYTE   N24  As2
 BYTE   W06
 BYTE   Fs2
 BYTE   W06
 BYTE   N06  As1
 BYTE   N24  Ds2
 BYTE   W06
 BYTE   Ds3
 BYTE   W06
 BYTE   As2
 BYTE   W12
 BYTE   N60  Bn1
 BYTE   N60  Ds2
 BYTE   N60  Fs2
 BYTE   N60  Bn2
 BYTE   W18
//  #01 //076   ----------------------------------------
 BYTE   W48
 BYTE   GoTo
  POIN2 Label_0161DFDC
//  #01 //077   ----------------------------------------
 BYTE   W06
 BYTE   FINE

//**************** Track 2 (Midi-Chn.1) ****************//

MyNameIsJonas_002:
//  #02 //000   ----------------------------------------
 BYTE   VOL   55*MyNameIsJonas_mvl/mxv
 BYTE   KEYSH   MyNameIsJonas_key+0
Label_0161E1BC:
 BYTE   VOICE   30
 BYTE   W96
//  #02 //001   ----------------------------------------
 BYTE   W96
//  #02 //002   ----------------------------------------
 BYTE   W72
 BYTE   N24  As1  v068
 BYTE   N24  Ds2
 BYTE   N24  Fs2
 BYTE   N24  As2
 BYTE   W24
//  #02 //003   ----------------------------------------
Label_0161E1CB:
 BYTE   N12  Bn1  v068
 BYTE   N12  Ds2
 BYTE   N12  Fs2
 BYTE   N12  Bn2
 BYTE   W12
 BYTE   Bn1
 BYTE   N12  Ds2
 BYTE   N12  Fs2
 BYTE   N12  Bn2
 BYTE   W12
 BYTE   Bn1
 BYTE   N12  Ds2
 BYTE   N12  Fs2
 BYTE   N12  Bn2
 BYTE   W12
 BYTE   Fs1
 BYTE   N12  As1
 BYTE   N12  Cs2
 BYTE   N12  Fs2
 BYTE   W12
 BYTE   Fs1
 BYTE   N12  As1
 BYTE   N12  Cs2
 BYTE   N12  Fs2
 BYTE   W12
 BYTE   Fs1
 BYTE   N12  As1
 BYTE   N12  Cs2
 BYTE   N12  Fs2
 BYTE   W12
 BYTE   Gs1
 BYTE   N12  Bn1
 BYTE   N12  Ds2
 BYTE   N12  Gs2
 BYTE   W12
 BYTE   Gs1
 BYTE   N12  Bn1
 BYTE   N12  Ds2
 BYTE   N12  Gs2
 BYTE   W12
 BYTE   PEND 
//  #02 //004   ----------------------------------------
Label_0161E20E:
 BYTE   N12  Gs1  v068
 BYTE   N12  Bn1
 BYTE   N12  Ds2
 BYTE   N12  Gs2
 BYTE   W12
 BYTE   En1
 BYTE   N12  Gs1
 BYTE   N12  Bn1
 BYTE   N12  En2
 BYTE   W12
 BYTE   En1
 BYTE   N12  Gs1
 BYTE   N12  Bn1
 BYTE   N12  En2
 BYTE   W12
 BYTE   En1
 BYTE   N12  Gs1
 BYTE   N12  Bn1
 BYTE   N12  En2
 BYTE   W12
 BYTE   TIE  Fs2  v080
 BYTE   TIE  Bn2
 BYTE   W48
 BYTE   PEND 
//  #02 //005   ----------------------------------------
 BYTE   W72
 BYTE   EOT
 BYTE   Fs2  v085
 BYTE   N24  Fs1  v068
 BYTE   N24  As1
 BYTE   N24  Ds2
 BYTE   N24  Fs2
 BYTE   W24
//  #02 //006   ----------------------------------------
 BYTE   PATT
  POIN2 Label_0161E1CB
//  #02 //007   ----------------------------------------
Label_0161E24A:
 BYTE   N12  Gs1  v068
 BYTE   N12  Bn1
 BYTE   N12  Ds2
 BYTE   N12  Gs2
 BYTE   W12
 BYTE   En1
 BYTE   N12  Gs1
 BYTE   N12  Bn1
 BYTE   N12  En2
 BYTE   W12
 BYTE   En1
 BYTE   N12  Gs1
 BYTE   N12  Bn1
 BYTE   N12  En2
 BYTE   W12
 BYTE   En1
 BYTE   N12  Gs1
 BYTE   N12  Bn1
 BYTE   N12  En2
 BYTE   W12
 BYTE   Bn1
 BYTE   N12  Ds2
 BYTE   N12  Fs2
 BYTE   N12  Bn2
 BYTE   W12
 BYTE   Bn1
 BYTE   N12  Ds2
 BYTE   N12  Fs2
 BYTE   N12  Bn2
 BYTE   W12
 BYTE   Bn1
 BYTE   N12  Ds2
 BYTE   N12  Fs2
 BYTE   N12  Bn2
 BYTE   W12
 BYTE   Fs1
 BYTE   N12  As1
 BYTE   N12  Cs2
 BYTE   N12  Fs2
 BYTE   W12
 BYTE   PEND 
//  #02 //008   ----------------------------------------
Label_0161E28D:
 BYTE   N12  Fs1  v068
 BYTE   N12  As1
 BYTE   N12  Cs2
 BYTE   N12  Fs2
 BYTE   W12
 BYTE   Fs1
 BYTE   N12  As1
 BYTE   N12  Cs2
 BYTE   N12  Fs2
 BYTE   W12
 BYTE   Gs1
 BYTE   N12  Bn1
 BYTE   N12  Ds2
 BYTE   N12  Gs2
 BYTE   W12
 BYTE   Gs1
 BYTE   N12  Bn1
 BYTE   N12  Ds2
 BYTE   N12  Gs2
 BYTE   W12
 BYTE   Gs1
 BYTE   N12  Bn1
 BYTE   N12  Ds2
 BYTE   N12  Gs2
 BYTE   W12
 BYTE   En1
 BYTE   N12  Gs1
 BYTE   N12  Bn1
 BYTE   N12  En2
 BYTE   W12
 BYTE   En1
 BYTE   N12  Gs1
 BYTE   N12  Bn1
 BYTE   N12  En2
 BYTE   W12
 BYTE   En1
 BYTE   N12  Gs1
 BYTE   N12  Bn1
 BYTE   N12  En2
 BYTE   W12
 BYTE   PEND 
//  #02 //009   ----------------------------------------
 BYTE   PATT
  POIN2 Label_0161E1CB
//  #02 //010   ----------------------------------------
 BYTE   PATT
  POIN2 Label_0161E24A
//  #02 //011   ----------------------------------------
 BYTE   PATT
  POIN2 Label_0161E28D
//  #02 //012   ----------------------------------------
 BYTE   PATT
  POIN2 Label_0161E1CB
//  #02 //013   ----------------------------------------
 BYTE   PATT
  POIN2 Label_0161E24A
//  #02 //014   ----------------------------------------
 BYTE   PATT
  POIN2 Label_0161E28D
//  #02 //015   ----------------------------------------
 BYTE   PATT
  POIN2 Label_0161E1CB
//  #02 //016   ----------------------------------------
 BYTE   PATT
  POIN2 Label_0161E24A
//  #02 //017   ----------------------------------------
 BYTE   PATT
  POIN2 Label_0161E28D
//  #02 //018   ----------------------------------------
 BYTE   PATT
  POIN2 Label_0161E1CB
//  #02 //019   ----------------------------------------
 BYTE   PATT
  POIN2 Label_0161E24A
//  #02 //020   ----------------------------------------
 BYTE   PATT
  POIN2 Label_0161E28D
//  #02 //021   ----------------------------------------
 BYTE   N72  Bn1  v080
 BYTE   TIE  Ds2
 BYTE   TIE  Fs2
 BYTE   TIE  Bn2
 BYTE   W48
 BYTE   Bn3
 BYTE   W30
 BYTE   As4
 BYTE   W18
//  #02 //022   ----------------------------------------
 BYTE   W96
//  #02 //023   ----------------------------------------
 BYTE   W48
 BYTE   EOT
 BYTE   W24
 BYTE   EOT
 BYTE   Ds2  v080
 BYTE   Bn2
 BYTE   N24  Fs1  v068
 BYTE   N24  As1
 BYTE   N24  Ds2
 BYTE   N24  Fs2
 BYTE   W24
//  #02 //024   ----------------------------------------
 BYTE   EOT
 BYTE   Bn3
//  #02 //025   ----------------------------------------
 BYTE   PATT
  POIN2 Label_0161E1CB
//  #02 //026   ----------------------------------------
 BYTE   PATT
  POIN2 Label_0161E20E
//  #02 //027   ----------------------------------------
 BYTE   W72
 BYTE   EOT
 BYTE   Fs2
 BYTE   N24  Fs1  v068
 BYTE   N24  As1
 BYTE   N24  Ds2
 BYTE   N24  Fs2
 BYTE   W24
//  #02 //028   ----------------------------------------
 BYTE   EOT
 BYTE   Bn2
//  #02 //029   ----------------------------------------
 BYTE   PATT
  POIN2 Label_0161E1CB
//  #02 //030   ----------------------------------------
 BYTE   PATT
  POIN2 Label_0161E24A
//  #02 //031   ----------------------------------------
 BYTE   PATT
  POIN2 Label_0161E28D
//  #02 //032   ----------------------------------------
 BYTE   PATT
  POIN2 Label_0161E1CB
//  #02 //033   ----------------------------------------
 BYTE   PATT
  POIN2 Label_0161E24A
//  #02 //034   ----------------------------------------
 BYTE   PATT
  POIN2 Label_0161E28D
//  #02 //035   ----------------------------------------
 BYTE   PATT
  POIN2 Label_0161E1CB
//  #02 //036   ----------------------------------------
 BYTE   PATT
  POIN2 Label_0161E24A
//  #02 //037   ----------------------------------------
 BYTE   PATT
  POIN2 Label_0161E28D
//  #02 //038   ----------------------------------------
 BYTE   PATT
  POIN2 Label_0161E1CB
//  #02 //039   ----------------------------------------
 BYTE   PATT
  POIN2 Label_0161E24A
//  #02 //040   ----------------------------------------
 BYTE   PATT
  POIN2 Label_0161E28D
//  #02 //041   ----------------------------------------
 BYTE   PATT
  POIN2 Label_0161E1CB
//  #02 //042   ----------------------------------------
 BYTE   PATT
  POIN2 Label_0161E24A
//  #02 //043   ----------------------------------------
 BYTE   PATT
  POIN2 Label_0161E28D
//  #02 //044   ----------------------------------------
Label_0161E392:
 BYTE   N12  Gs1  v068
 BYTE   N12  Bn1
 BYTE   N12  En2
 BYTE   N12  Gs2
 BYTE   W12
 BYTE   Gs1
 BYTE   N12  Bn1
 BYTE   N12  En2
 BYTE   N12  Gs2
 BYTE   W12
 BYTE   Gs1
 BYTE   N12  Bn1
 BYTE   N12  En2
 BYTE   N12  Gs2
 BYTE   W12
 BYTE   Gs1
 BYTE   N12  Bn1
 BYTE   N12  En2
 BYTE   N12  Gs2
 BYTE   W12
 BYTE   Gs1
 BYTE   N12  Bn1
 BYTE   N12  En2
 BYTE   N12  Gs2
 BYTE   W12
 BYTE   Gs1
 BYTE   N12  Bn1
 BYTE   N12  En2
 BYTE   N12  Gs2
 BYTE   W12
 BYTE   As1
 BYTE   N12  Cs2
 BYTE   N12  Fs2
 BYTE   N12  As2
 BYTE   W12
 BYTE   As1
 BYTE   N12  Cs2
 BYTE   N12  Fs2
 BYTE   N12  As2
 BYTE   W12
 BYTE   PEND 
//  #02 //045   ----------------------------------------
Label_0161E3D5:
 BYTE   N12  As1  v068
 BYTE   N12  Cs2
 BYTE   N12  Fs2
 BYTE   N12  As2
 BYTE   W12
 BYTE   As1
 BYTE   N12  Cs2
 BYTE   N12  Fs2
 BYTE   N12  As2
 BYTE   W12
 BYTE   As1
 BYTE   N12  Cs2
 BYTE   N12  Fs2
 BYTE   N12  As2
 BYTE   W12
 BYTE   As1
 BYTE   N12  Cs2
 BYTE   N12  Fs2
 BYTE   N12  As2
 BYTE   W12
 BYTE   Gs1
 BYTE   N12  Bn1
 BYTE   N12  En2
 BYTE   N12  Gs2
 BYTE   W12
 BYTE   Gs1
 BYTE   N12  Bn1
 BYTE   N12  En2
 BYTE   N12  Gs2
 BYTE   W12
 BYTE   Gs1
 BYTE   N12  Bn1
 BYTE   N12  En2
 BYTE   N12  Gs2
 BYTE   W12
 BYTE   Gs1
 BYTE   N12  Bn1
 BYTE   N12  En2
 BYTE   N12  Gs2
 BYTE   W12
 BYTE   PEND 
//  #02 //046   ----------------------------------------
Label_0161E418:
 BYTE   N12  Gs1  v068
 BYTE   N12  Bn1
 BYTE   N12  En2
 BYTE   N12  Gs2
 BYTE   W12
 BYTE   Gs1
 BYTE   N12  Bn1
 BYTE   N12  En2
 BYTE   N12  Gs2
 BYTE   W12
 BYTE   As1
 BYTE   N12  Cs2
 BYTE   N12  Fs2
 BYTE   N12  As2
 BYTE   W12
 BYTE   As1
 BYTE   N12  Cs2
 BYTE   N12  Fs2
 BYTE   N12  As2
 BYTE   W12
 BYTE   As1
 BYTE   N12  Cs2
 BYTE   N12  Fs2
 BYTE   N12  As2
 BYTE   W12
 BYTE   As1
 BYTE   N12  Cs2
 BYTE   N12  Fs2
 BYTE   N12  As2
 BYTE   W12
 BYTE   As1
 BYTE   N12  Cs2
 BYTE   N12  Fs2
 BYTE   N12  As2
 BYTE   W12
 BYTE   As1
 BYTE   N12  Cs2
 BYTE   N12  Fs2
 BYTE   N12  As2
 BYTE   W12
 BYTE   PEND 
//  #02 //047   ----------------------------------------
 BYTE   PATT
  POIN2 Label_0161E392
//  #02 //048   ----------------------------------------
 BYTE   PATT
  POIN2 Label_0161E3D5
//  #02 //049   ----------------------------------------
 BYTE   PATT
  POIN2 Label_0161E418
//  #02 //050   ----------------------------------------
Label_0161E46A:
 BYTE   N06  Bn1  v068
 BYTE   N06  Ds2
 BYTE   N06  Fs2
 BYTE   N06  Bn2
 BYTE   W06
 BYTE   Bn1
 BYTE   N06  Ds2
 BYTE   N06  Fs2
 BYTE   N06  Bn2
 BYTE   W06
 BYTE   Bn1
 BYTE   N06  Ds2
 BYTE   N06  Fs2
 BYTE   N06  Bn2
 BYTE   W06
 BYTE   Bn1
 BYTE   N06  Ds2
 BYTE   N06  Fs2
 BYTE   N06  Bn2
 BYTE   W06
 BYTE   Bn1
 BYTE   N06  Ds2
 BYTE   N06  Fs2
 BYTE   N06  Bn2
 BYTE   W06
 BYTE   Bn1
 BYTE   N06  Ds2
 BYTE   N06  Fs2
 BYTE   N06  Bn2
 BYTE   W06
 BYTE   Bn1
 BYTE   N06  Ds2
 BYTE   N06  Fs2
 BYTE   N06  Bn2
 BYTE   W06
 BYTE   Bn1
 BYTE   N06  Ds2
 BYTE   N06  Fs2
 BYTE   N06  Bn2
 BYTE   W06
 BYTE   Bn1
 BYTE   N06  Ds2
 BYTE   N06  Fs2
 BYTE   N06  Bn2
 BYTE   W06
 BYTE   Bn1
 BYTE   N06  Ds2
 BYTE   N06  Fs2
 BYTE   N06  Bn2
 BYTE   W06
 BYTE   Bn1
 BYTE   N06  Ds2
 BYTE   N06  Fs2
 BYTE   N06  Bn2
 BYTE   W06
 BYTE   Bn1
 BYTE   N06  Ds2
 BYTE   N06  Fs2
 BYTE   N06  Bn2
 BYTE   W06
 BYTE   Bn1
 BYTE   N06  Ds2
 BYTE   N06  Fs2
 BYTE   N06  Bn2
 BYTE   W06
 BYTE   Bn1
 BYTE   N06  Ds2
 BYTE   N06  Fs2
 BYTE   N06  Bn2
 BYTE   W06
 BYTE   Bn1
 BYTE   N06  Ds2
 BYTE   N06  Fs2
 BYTE   N06  Bn2
 BYTE   W06
 BYTE   Bn1
 BYTE   N06  Ds2
 BYTE   N06  Fs2
 BYTE   N06  Bn2
 BYTE   W06
 BYTE   PEND 
//  #02 //051   ----------------------------------------
 BYTE   PATT
  POIN2 Label_0161E46A
//  #02 //052   ----------------------------------------
 BYTE   PATT
  POIN2 Label_0161E46A
//  #02 //053   ----------------------------------------
Label_0161E4F7:
 BYTE   N06  Bn1  v068
 BYTE   N06  Ds2
 BYTE   N06  Fs2
 BYTE   N06  Bn2  v080
 BYTE   W06
 BYTE   Bn1  v068
 BYTE   N06  Ds2
 BYTE   N06  Fs2
 BYTE   N06  Bn2
 BYTE   N06  Bn3  v080
 BYTE   W06
 BYTE   Bn1  v068
 BYTE   N06  Ds2
 BYTE   N06  Fs2
 BYTE   N06  Bn2
 BYTE   N06  Fs3  v080
 BYTE   W06
 BYTE   Bn1  v068
 BYTE   N06  Ds2
 BYTE   N06  Fs2
 BYTE   N06  Bn2  v080
 BYTE   W06
 BYTE   Bn1  v068
 BYTE   N06  Ds2
 BYTE   N06  Fs2
 BYTE   N06  Bn2
 BYTE   N06  Bn3  v080
 BYTE   W06
 BYTE   Bn1  v068
 BYTE   N06  Ds2
 BYTE   N06  Fs2
 BYTE   N06  Bn2
 BYTE   N06  Ds3  v080
 BYTE   W06
 BYTE   Fs1  v068
 BYTE   N06  As1
 BYTE   N06  Cs2
 BYTE   N06  Fs2
 BYTE   N06  As2  v080
 BYTE   W06
 BYTE   Fs1  v068
 BYTE   N06  As1
 BYTE   N06  Cs2
 BYTE   N06  Fs2
 BYTE   N06  As3  v080
 BYTE   W06
 BYTE   Fs1  v068
 BYTE   N06  As1
 BYTE   N06  Cs2
 BYTE   N06  Fs2
 BYTE   N06  Fs3  v080
 BYTE   W06
 BYTE   Fs1  v068
 BYTE   N06  As1
 BYTE   N06  Cs2
 BYTE   N06  Fs2
 BYTE   N06  As2  v080
 BYTE   N06  Ds3
 BYTE   W06
 BYTE   Fs1  v068
 BYTE   N06  As1
 BYTE   N06  Cs2
 BYTE   N06  Fs2
 BYTE   N06  Ds4  v080
 BYTE   W06
 BYTE   Fs1  v068
 BYTE   N06  As1
 BYTE   N06  Cs2
 BYTE   N06  Fs2
 BYTE   N06  As3  v080
 BYTE   W06
 BYTE   Gs1  v068
 BYTE   N06  Bn1
 BYTE   N06  Ds2
 BYTE   N06  Gs2  v080
 BYTE   W06
 BYTE   Gs1  v068
 BYTE   N06  Bn1
 BYTE   N06  Ds2
 BYTE   N06  Gs2
 BYTE   N06  Bn3  v080
 BYTE   W06
 BYTE   Gs1  v068
 BYTE   N06  Bn1
 BYTE   N06  Ds2
 BYTE   N06  Gs2
 BYTE   N06  Fs3  v080
 BYTE   W06
 BYTE   Gs1  v068
 BYTE   N06  Bn1
 BYTE   N06  Ds2
 BYTE   N06  Gs2  v080
 BYTE   W06
 BYTE   PEND 
//  #02 //054   ----------------------------------------
Label_0161E5B3:
 BYTE   N06  Gs1  v068
 BYTE   N06  Bn1
 BYTE   N06  Ds2
 BYTE   N06  Gs2
 BYTE   N06  Bn3  v080
 BYTE   W06
 BYTE   Gs1  v068
 BYTE   N06  Bn1
 BYTE   N06  Ds2
 BYTE   N06  Gs2
 BYTE   N06  Ds3  v080
 BYTE   W06
 BYTE   En1  v068
 BYTE   N06  Gs1
 BYTE   N06  En2
 BYTE   N06  As2  v080
 BYTE   W06
 BYTE   En1  v068
 BYTE   N06  Gs1
 BYTE   N06  En2
 BYTE   N06  As3  v080
 BYTE   W06
 BYTE   En1  v068
 BYTE   N06  Gs1
 BYTE   N06  Bn1
 BYTE   N06  En2
 BYTE   N06  Fs3  v080
 BYTE   W06
 BYTE   En1  v068
 BYTE   N06  Gs1
 BYTE   N06  Bn1
 BYTE   N06  En2
 BYTE   N06  As2  v080
 BYTE   N06  Ds3
 BYTE   W06
 BYTE   En1  v068
 BYTE   N06  Gs1
 BYTE   N06  Bn1
 BYTE   N06  En2
 BYTE   N06  Ds4  v080
 BYTE   W06
 BYTE   En1  v068
 BYTE   N06  Gs1
 BYTE   N06  Bn1
 BYTE   N06  En2
 BYTE   N06  As3  v080
 BYTE   W06
 BYTE   Bn1  v068
 BYTE   N06  Ds2
 BYTE   N06  Fs2
 BYTE   N06  Bn2  v080
 BYTE   W06
 BYTE   Bn1  v068
 BYTE   N06  Ds2
 BYTE   N06  Fs2
 BYTE   N06  Bn2
 BYTE   N06  Bn3  v080
 BYTE   W06
 BYTE   Bn1  v068
 BYTE   N06  Ds2
 BYTE   N06  Fs2
 BYTE   N06  Bn2
 BYTE   N06  Fs3  v080
 BYTE   W06
 BYTE   Bn1  v068
 BYTE   N06  Ds2
 BYTE   N06  Fs2
 BYTE   N06  Bn2  v080
 BYTE   W06
 BYTE   Bn1  v068
 BYTE   N06  Ds2
 BYTE   N06  Fs2
 BYTE   N06  Bn2
 BYTE   N06  Bn3  v080
 BYTE   W06
 BYTE   Bn1  v068
 BYTE   N06  Ds2
 BYTE   N06  Fs2
 BYTE   N06  Bn2
 BYTE   N06  Ds3  v080
 BYTE   W06
 BYTE   Fs1  v068
 BYTE   N06  As1
 BYTE   N06  Cs2
 BYTE   N06  Fs2
 BYTE   N06  As2  v080
 BYTE   W06
 BYTE   Fs1  v068
 BYTE   N06  As1
 BYTE   N06  Cs2
 BYTE   N06  Fs2
 BYTE   N06  As3  v080
 BYTE   W06
 BYTE   PEND 
//  #02 //055   ----------------------------------------
Label_0161E66F:
 BYTE   N06  Fs1  v068
 BYTE   N06  As1
 BYTE   N06  Cs2
 BYTE   N06  Fs2
 BYTE   N06  Fs3  v080
 BYTE   W06
 BYTE   Fs1  v068
 BYTE   N06  As1
 BYTE   N06  Cs2
 BYTE   N06  Fs2
 BYTE   N06  As2  v080
 BYTE   N06  Ds3
 BYTE   W06
 BYTE   Fs1  v068
 BYTE   N06  As1
 BYTE   N06  Cs2
 BYTE   N06  Fs2
 BYTE   N06  Ds4  v080
 BYTE   W06
 BYTE   Fs1  v068
 BYTE   N06  As1
 BYTE   N06  Cs2
 BYTE   N06  Fs2
 BYTE   N06  As3  v080
 BYTE   W06
 BYTE   Gs1  v068
 BYTE   N06  Bn1
 BYTE   N06  Ds2
 BYTE   N06  Gs2  v080
 BYTE   W06
 BYTE   Gs1  v068
 BYTE   N06  Bn1
 BYTE   N06  Ds2
 BYTE   N06  Gs2
 BYTE   N06  Bn3  v080
 BYTE   W06
 BYTE   Gs1  v068
 BYTE   N06  Bn1
 BYTE   N06  Ds2
 BYTE   N06  Gs2
 BYTE   N06  Fs3  v080
 BYTE   W06
 BYTE   Gs1  v068
 BYTE   N06  Bn1
 BYTE   N06  Ds2
 BYTE   N06  Gs2  v080
 BYTE   W06
 BYTE   Gs1  v068
 BYTE   N06  Bn1
 BYTE   N06  Ds2
 BYTE   N06  Gs2
 BYTE   N06  Bn3  v080
 BYTE   W06
 BYTE   Gs1  v068
 BYTE   N06  Bn1
 BYTE   N06  Ds2
 BYTE   N06  Gs2
 BYTE   N06  Ds3  v080
 BYTE   W06
 BYTE   En1  v068
 BYTE   N06  Gs1
 BYTE   N06  En2
 BYTE   N06  As2  v080
 BYTE   W06
 BYTE   En1  v068
 BYTE   N06  Gs1
 BYTE   N06  En2
 BYTE   N06  As3  v080
 BYTE   W06
 BYTE   En1  v068
 BYTE   N06  Gs1
 BYTE   N06  Bn1
 BYTE   N06  En2
 BYTE   N06  Fs3  v080
 BYTE   W06
 BYTE   En1  v068
 BYTE   N06  Gs1
 BYTE   N06  Bn1
 BYTE   N06  En2
 BYTE   N06  As2  v080
 BYTE   N06  Ds3
 BYTE   W06
 BYTE   En1  v068
 BYTE   N06  Gs1
 BYTE   N06  Bn1
 BYTE   N06  En2
 BYTE   N06  Ds4  v080
 BYTE   W06
 BYTE   En1  v068
 BYTE   N06  Gs1
 BYTE   N06  Bn1
 BYTE   N06  En2
 BYTE   N06  As3  v080
 BYTE   W06
 BYTE   PEND 
//  #02 //056   ----------------------------------------
 BYTE   PATT
  POIN2 Label_0161E4F7
//  #02 //057   ----------------------------------------
 BYTE   PATT
  POIN2 Label_0161E5B3
//  #02 //058   ----------------------------------------
 BYTE   PATT
  POIN2 Label_0161E66F
//  #02 //059   ----------------------------------------
 BYTE   PATT
  POIN2 Label_0161E4F7
//  #02 //060   ----------------------------------------
 BYTE   PATT
  POIN2 Label_0161E5B3
//  #02 //061   ----------------------------------------
 BYTE   PATT
  POIN2 Label_0161E66F
//  #02 //062   ----------------------------------------
 BYTE   PATT
  POIN2 Label_0161E4F7
//  #02 //063   ----------------------------------------
 BYTE   PATT
  POIN2 Label_0161E5B3
//  #02 //064   ----------------------------------------
 BYTE   PATT
  POIN2 Label_0161E66F
//  #02 //065   ----------------------------------------
Label_0161E75A:
 BYTE   N06  Bn1  v068
 BYTE   N06  Ds2
 BYTE   N06  Fs2
 BYTE   N06  Bn2  v080
 BYTE   N12  Gs3
 BYTE   N12  Ds4
 BYTE   W06
 BYTE   N06  Bn1  v068
 BYTE   N06  Ds2
 BYTE   N06  Fs2
 BYTE   N06  Bn2
 BYTE   N06  Bn3  v080
 BYTE   W06
 BYTE   Bn1  v068
 BYTE   N06  Ds2
 BYTE   N06  Fs2
 BYTE   N06  Bn2
 BYTE   N06  Fs3  v080
 BYTE   N12  Gs3
 BYTE   N12  Ds4
 BYTE   W06
 BYTE   N06  Bn1  v068
 BYTE   N06  Ds2
 BYTE   N06  Fs2
 BYTE   N06  Bn2  v080
 BYTE   W06
 BYTE   Bn1  v068
 BYTE   N06  Ds2
 BYTE   N06  Fs2
 BYTE   N06  Bn2
 BYTE   N12  Gs3  v080
 BYTE   N06  Bn3
 BYTE   N12  Ds4
 BYTE   W06
 BYTE   N06  Bn1  v068
 BYTE   N06  Ds2
 BYTE   N06  Fs2
 BYTE   N06  Bn2
 BYTE   N06  Ds3  v080
 BYTE   W06
 BYTE   Fs1  v068
 BYTE   N06  As1
 BYTE   N06  Cs2
 BYTE   N06  Fs2
 BYTE   N06  As2  v080
 BYTE   N24  Gs3
 BYTE   N24  Ds4
 BYTE   W06
 BYTE   N06  Fs1  v068
 BYTE   N06  As1
 BYTE   N06  Cs2
 BYTE   N06  Fs2
 BYTE   N06  As3  v080
 BYTE   W06
 BYTE   Fs1  v068
 BYTE   N06  As1
 BYTE   N06  Cs2
 BYTE   N06  Fs2
 BYTE   N06  Fs3  v080
 BYTE   W06
 BYTE   Fs1  v068
 BYTE   N06  As1
 BYTE   N06  Cs2
 BYTE   N06  Fs2
 BYTE   N06  As2  v080
 BYTE   N06  Ds3
 BYTE   W06
 BYTE   Fs1  v068
 BYTE   N06  As1
 BYTE   N06  Cs2
 BYTE   N06  Fs2
 BYTE   N12  Gs3  v080
 BYTE   N06  Ds4
 BYTE   N12  En4
 BYTE   W06
 BYTE   N06  Fs1  v068
 BYTE   N06  As1
 BYTE   N06  Cs2
 BYTE   N06  Fs2
 BYTE   N06  As3  v080
 BYTE   W06
 BYTE   Gs1  v068
 BYTE   N06  Bn1
 BYTE   N06  Ds2
 BYTE   N06  Gs2  v080
 BYTE   N06  Gs3
 BYTE   N06  Ds4
 BYTE   W06
 BYTE   Gs1  v068
 BYTE   N06  Bn1
 BYTE   N06  Ds2
 BYTE   N06  Gs2
 BYTE   N06  Fs3  v080
 BYTE   N06  Bn3
 BYTE   N24  Cs4
 BYTE   W06
 BYTE   N06  Gs1  v068
 BYTE   N06  Bn1
 BYTE   N06  Ds2
 BYTE   N06  Gs2
 BYTE   N06  Fs3  v080
 BYTE   W06
 BYTE   Gs1  v068
 BYTE   N06  Bn1
 BYTE   N06  Ds2
 BYTE   N06  Gs2  v080
 BYTE   W06
 BYTE   PEND 
//  #02 //066   ----------------------------------------
Label_0161E838:
 BYTE   N06  Gs1  v068
 BYTE   N06  Bn1
 BYTE   N06  Ds2
 BYTE   N06  Gs2
 BYTE   N06  Bn3  v080
 BYTE   W06
 BYTE   Gs1  v068
 BYTE   N06  Bn1
 BYTE   N06  Ds2
 BYTE   N06  Gs2
 BYTE   N06  Ds3  v080
 BYTE   W06
 BYTE   En1  v068
 BYTE   N06  Gs1
 BYTE   N06  En2
 BYTE   N06  As2  v080
 BYTE   W06
 BYTE   En1  v068
 BYTE   N06  Gs1
 BYTE   N06  En2
 BYTE   N06  As3  v080
 BYTE   W06
 BYTE   En1  v068
 BYTE   N06  Gs1
 BYTE   N06  Bn1
 BYTE   N06  En2
 BYTE   N06  Fs3  v080
 BYTE   W06
 BYTE   En1  v068
 BYTE   N06  Gs1
 BYTE   N06  Bn1
 BYTE   N06  En2
 BYTE   N06  As2  v080
 BYTE   N06  Ds3
 BYTE   W06
 BYTE   En1  v068
 BYTE   N06  Gs1
 BYTE   N06  Bn1
 BYTE   N06  En2
 BYTE   N06  Ds4  v080
 BYTE   W06
 BYTE   En1  v068
 BYTE   N06  Gs1
 BYTE   N06  Bn1
 BYTE   N06  En2
 BYTE   N06  Fs3  v080
 BYTE   N06  As3
 BYTE   N06  Cs4
 BYTE   W06
 BYTE   Bn1  v068
 BYTE   N06  Ds2
 BYTE   N06  Fs2
 BYTE   N06  Bn2  v080
 BYTE   N12  Gs3
 BYTE   N12  Ds4
 BYTE   W06
 BYTE   N06  Bn1  v068
 BYTE   N06  Ds2
 BYTE   N06  Fs2
 BYTE   N06  Bn2
 BYTE   N06  Bn3  v080
 BYTE   W06
 BYTE   Bn1  v068
 BYTE   N06  Ds2
 BYTE   N06  Fs2
 BYTE   N06  Bn2
 BYTE   N06  Fs3  v080
 BYTE   N12  Bn3
 BYTE   N12  Fs4
 BYTE   W06
 BYTE   N06  Bn1  v068
 BYTE   N06  Ds2
 BYTE   N06  Fs2
 BYTE   N06  Bn2  v080
 BYTE   W06
 BYTE   Bn1  v068
 BYTE   N06  Ds2
 BYTE   N06  Fs2
 BYTE   N06  Bn2
 BYTE   N06  Bn3  v080
 BYTE   N12  Cs4
 BYTE   N12  Gs4
 BYTE   W06
 BYTE   N06  Bn1  v068
 BYTE   N06  Ds2
 BYTE   N06  Fs2
 BYTE   N06  Bn2
 BYTE   N06  Ds3  v080
 BYTE   W06
 BYTE   Fs1  v068
 BYTE   N06  As1
 BYTE   N06  Cs2
 BYTE   N06  Fs2
 BYTE   N06  As2  v080
 BYTE   N24  Gs3
 BYTE   N24  Ds4
 BYTE   W06
 BYTE   N06  Fs1  v068
 BYTE   N06  As1
 BYTE   N06  Cs2
 BYTE   N06  Fs2
 BYTE   N06  As3  v080
 BYTE   W06
 BYTE   PEND 
//  #02 //067   ----------------------------------------
Label_0161E90C:
 BYTE   N06  Fs1  v068
 BYTE   N06  As1
 BYTE   N06  Cs2
 BYTE   N06  Fs2
 BYTE   N06  Fs3  v080
 BYTE   W06
 BYTE   Fs1  v068
 BYTE   N06  As1
 BYTE   N06  Cs2
 BYTE   N06  Fs2
 BYTE   N06  As2  v080
 BYTE   N06  Ds3
 BYTE   W06
 BYTE   Fs1  v068
 BYTE   N06  As1
 BYTE   N06  Cs2
 BYTE   N06  Fs2
 BYTE   N12  Gs3  v080
 BYTE   N06  Ds4
 BYTE   N12  En4
 BYTE   W06
 BYTE   N06  Fs1  v068
 BYTE   N06  As1
 BYTE   N06  Cs2
 BYTE   N06  Fs2
 BYTE   N06  As3  v080
 BYTE   W06
 BYTE   Gs1  v068
 BYTE   N06  Bn1
 BYTE   N06  Ds2
 BYTE   N06  Gs2  v080
 BYTE   N06  Gs3
 BYTE   N06  Ds4
 BYTE   W06
 BYTE   Gs1  v068
 BYTE   N06  Bn1
 BYTE   N06  Ds2
 BYTE   N06  Gs2
 BYTE   N06  Fs3  v080
 BYTE   N06  Bn3
 BYTE   N24  Cs4
 BYTE   W06
 BYTE   N06  Gs1  v068
 BYTE   N06  Bn1
 BYTE   N06  Ds2
 BYTE   N06  Gs2
 BYTE   N06  Fs3  v080
 BYTE   W06
 BYTE   Gs1  v068
 BYTE   N06  Bn1
 BYTE   N06  Ds2
 BYTE   N06  Gs2  v080
 BYTE   W06
 BYTE   Gs1  v068
 BYTE   N06  Bn1
 BYTE   N06  Ds2
 BYTE   N06  Gs2
 BYTE   N06  Bn3  v080
 BYTE   W06
 BYTE   Gs1  v068
 BYTE   N06  Bn1
 BYTE   N06  Ds2
 BYTE   N06  Gs2
 BYTE   N06  Ds3  v080
 BYTE   W06
 BYTE   En1  v068
 BYTE   N06  Gs1
 BYTE   N06  En2
 BYTE   N06  As2  v080
 BYTE   W06
 BYTE   En1  v068
 BYTE   N06  Gs1
 BYTE   N06  En2
 BYTE   N06  As3  v080
 BYTE   W06
 BYTE   En1  v068
 BYTE   N06  Gs1
 BYTE   N06  Bn1
 BYTE   N06  En2
 BYTE   N06  Fs3  v080
 BYTE   W06
 BYTE   En1  v068
 BYTE   N06  Gs1
 BYTE   N06  Bn1
 BYTE   N06  En2
 BYTE   N06  As2  v080
 BYTE   N06  Ds3
 BYTE   W06
 BYTE   En1  v068
 BYTE   N06  Gs1
 BYTE   N06  Bn1
 BYTE   N06  En2
 BYTE   N06  Ds4  v080
 BYTE   W06
 BYTE   En1  v068
 BYTE   N06  Gs1
 BYTE   N06  Bn1
 BYTE   N06  En2
 BYTE   N06  As3  v080
 BYTE   W06
 BYTE   PEND 
//  #02 //068   ----------------------------------------
 BYTE   PATT
  POIN2 Label_0161E75A
//  #02 //069   ----------------------------------------
 BYTE   PATT
  POIN2 Label_0161E838
//  #02 //070   ----------------------------------------
 BYTE   PATT
  POIN2 Label_0161E90C
//  #02 //071   ----------------------------------------
 BYTE   N06  Ds1  v070
 BYTE   N06  Gn1
 BYTE   N06  As1
 BYTE   N06  Ds2
 BYTE   W06
 BYTE   N12  Ds1
 BYTE   N12  Gn1
 BYTE   N12  As1
 BYTE   N12  Ds2
 BYTE   W12
 BYTE   N06  Ds1
 BYTE   N06  Gn1
 BYTE   N06  As1
 BYTE   N06  Ds2
 BYTE   W06
 BYTE   N12  Ds1
 BYTE   N12  Gn1
 BYTE   N12  As1
 BYTE   N12  Ds2
 BYTE   W12
 BYTE   En1
 BYTE   N12  Gs1
 BYTE   N12  Bn1
 BYTE   N12  En2
 BYTE   W12
 BYTE   En1
 BYTE   N12  Gs1
 BYTE   N12  Bn1
 BYTE   N12  En2
 BYTE   W12
 BYTE   En1
 BYTE   N12  Gs1
 BYTE   N12  Bn1
 BYTE   N12  En2
 BYTE   W12
 BYTE   N06  Fs1
 BYTE   N06  As1
 BYTE   N06  Cs2
 BYTE   N06  Fs2
 BYTE   W06
 BYTE   N12  Fs1
 BYTE   N12  As1
 BYTE   N12  Cs2
 BYTE   N12  Fs2
 BYTE   W12
 BYTE   N06  Fs1
 BYTE   N06  As1
 BYTE   N06  Cs2
 BYTE   N06  Fs2
 BYTE   W06
//  #02 //072   ----------------------------------------
 BYTE   N12  Fs1
 BYTE   N12  As1
 BYTE   N12  Cs2
 BYTE   N12  Fs2
 BYTE   W12
 BYTE   Fs1
 BYTE   N12  As1
 BYTE   N12  Cs2
 BYTE   N12  Fs2
 BYTE   W12
 BYTE   Fs1
 BYTE   N12  As1
 BYTE   N12  Cs2
 BYTE   N12  Fs2
 BYTE   W12
 BYTE   Fs1
 BYTE   N12  As1
 BYTE   N12  Cs2
 BYTE   N12  Fs2
 BYTE   W12
 BYTE   N06  Ds1
 BYTE   N06  Gn1
 BYTE   N06  As1
 BYTE   N06  Ds2
 BYTE   W06
 BYTE   N12  Ds1
 BYTE   N12  Gn1
 BYTE   N12  As1
 BYTE   N12  Ds2
 BYTE   W12
 BYTE   N06  Ds1
 BYTE   N06  Gn1
 BYTE   N06  As1
 BYTE   N06  Ds2
 BYTE   W06
 BYTE   N12  Ds1
 BYTE   N12  Gn1
 BYTE   N12  As1
 BYTE   N12  Ds2
 BYTE   W12
 BYTE   En1
 BYTE   N12  Gs1
 BYTE   N12  Bn1
 BYTE   N12  En2
 BYTE   W12
//  #02 //073   ----------------------------------------
 BYTE   En1
 BYTE   N12  Gs1
 BYTE   N12  Bn1
 BYTE   N12  En2
 BYTE   W12
 BYTE   En1
 BYTE   N12  Gs1
 BYTE   N12  Bn1
 BYTE   N12  En2
 BYTE   W12
 BYTE   TIE  Fs1
 BYTE   TIE  As1
 BYTE   TIE  Cs2
 BYTE   TIE  Fs2
 BYTE   W72
//  #02 //074   ----------------------------------------
 BYTE   W96
//  #02 //075   ----------------------------------------
 BYTE   W96
//  #02 //076   ----------------------------------------
 BYTE   W96
//  #02 //077   ----------------------------------------
 BYTE   W96
//  #02 //078   ----------------------------------------
 BYTE   W48
 BYTE   EOT
 BYTE   Fs1  v072
 BYTE   Cs2  v080
 BYTE   GoTo
  POIN2 Label_0161E1BC
//  #02 //079   ----------------------------------------
 BYTE   W06
 BYTE   FINE

//**************** Track 3 (Midi-Chn.2) ****************//

MyNameIsJonas_003:
//  #03 //000   ----------------------------------------
 BYTE   VOL   55*MyNameIsJonas_mvl/mxv
 BYTE   KEYSH   MyNameIsJonas_key+0
Label_0161EACC:
 BYTE   VOICE   4
 BYTE   W96
//  #03 //001   ----------------------------------------
 BYTE   W96
//  #03 //002   ----------------------------------------
 BYTE   W72
 BYTE   N06  Bn3  v080
 BYTE   W06
 BYTE   N12  Cs4
 BYTE   W12
 BYTE   N06  Bn3
 BYTE   W06
//  #03 //003   ----------------------------------------
Label_0161EADB:
 BYTE   N12  Ds4  v080
 BYTE   W12
 BYTE   N36  Bn3
 BYTE   W84
 BYTE   PEND 
//  #03 //004   ----------------------------------------
 BYTE   N12  Ds3
 BYTE   W12
 BYTE   N06  Ds4
 BYTE   W06
 BYTE   N06
 BYTE   W06
 BYTE   N12
 BYTE   W12
 BYTE   Cs4
 BYTE   W12
 BYTE   N36  Bn3
 BYTE   W48
//  #03 //005   ----------------------------------------
 BYTE   W60
 BYTE   N12  Cs4
 BYTE   W12
 BYTE   N06  Bn3
 BYTE   W06
 BYTE   N12  Cs4
 BYTE   W12
 BYTE   N06  Bn3
 BYTE   W06
//  #03 //006   ----------------------------------------
 BYTE   PATT
  POIN2 Label_0161EADB
//  #03 //007   ----------------------------------------
 BYTE   N12  Ds3  v080
 BYTE   W12
 BYTE   N06  Cs4
 BYTE   W06
 BYTE   N12  Bn3
 BYTE   W12
 BYTE   Ds4
 BYTE   W12
 BYTE   N18  Cs4
 BYTE   W18
 BYTE   N36  Bn3
 BYTE   W36
//  #03 //008   ----------------------------------------
 BYTE   W96
//  #03 //009   ----------------------------------------
Label_0161EB17:
 BYTE   W12
 BYTE   N12  Bn3  v080
 BYTE   W12
 BYTE   Cs4
 BYTE   W12
 BYTE   Ds4
 BYTE   W12
 BYTE   Fs4
 BYTE   W12
 BYTE   N12
 BYTE   W24
 BYTE   Bn3
 BYTE   W12
 BYTE   PEND 
//  #03 //010   ----------------------------------------
 BYTE   Cs4
 BYTE   W12
 BYTE   Ds4
 BYTE   W12
 BYTE   Bn3
 BYTE   W12
 BYTE   N12
 BYTE   W24
 BYTE   N12
 BYTE   W12
 BYTE   Cs4
 BYTE   W12
 BYTE   Ds4
 BYTE   W12
//  #03 //011   ----------------------------------------
 BYTE   Fs4
 BYTE   W12
 BYTE   N12
 BYTE   W12
 BYTE   N18  Cs4
 BYTE   W18
 BYTE   N06  Bn3
 BYTE   W06
 BYTE   Cs4
 BYTE   W06
 BYTE   Bn3
 BYTE   W06
 BYTE   N12  Ds4
 BYTE   W12
 BYTE   N24  Bn3
 BYTE   W24
//  #03 //012   ----------------------------------------
 BYTE   PATT
  POIN2 Label_0161EB17
//  #03 //013   ----------------------------------------
 BYTE   N12  Cs4  v080
 BYTE   W12
 BYTE   N06  Ds4
 BYTE   W06
 BYTE   Bn3
 BYTE   W06
 BYTE   N12
 BYTE   W12
 BYTE   N12
 BYTE   W24
 BYTE   N12
 BYTE   W12
 BYTE   Cs4
 BYTE   W12
 BYTE   Ds4
 BYTE   W12
//  #03 //014   ----------------------------------------
 BYTE   Fs4
 BYTE   W12
 BYTE   N12
 BYTE   W12
 BYTE   N18  Cs4
 BYTE   W18
 BYTE   N06  Bn3
 BYTE   W06
 BYTE   Cs4
 BYTE   W06
 BYTE   Bn3
 BYTE   W06
 BYTE   Ds4
 BYTE   W06
 BYTE   N24  Bn3
 BYTE   W30
//  #03 //015   ----------------------------------------
 BYTE   N12  Ds3
 BYTE   N12  Bn3
 BYTE   W12
 BYTE   Ds3
 BYTE   N12  Bn3
 BYTE   W12
 BYTE   Ds3
 BYTE   N12  Bn3
 BYTE   W12
 BYTE   Cs3
 BYTE   N12  Gs3
 BYTE   W12
 BYTE   Cs3
 BYTE   N12  Gs3
 BYTE   W12
 BYTE   Cs3
 BYTE   N12  Gs3
 BYTE   W12
 BYTE   N48  Bn2
 BYTE   N48  Fs3
 BYTE   W24
//  #03 //016   ----------------------------------------
Label_0161EB92:
 BYTE   W42
 BYTE   N06  Ds3  v080
 BYTE   N06  As3
 BYTE   W06
 BYTE   N12  Ds3
 BYTE   N12  Bn3
 BYTE   W12
 BYTE   Ds3
 BYTE   N12  Bn3
 BYTE   W12
 BYTE   Ds3
 BYTE   N12  Bn3
 BYTE   W12
 BYTE   Cs3
 BYTE   N12  Gs3
 BYTE   W12
 BYTE   PEND 
//  #03 //017   ----------------------------------------
 BYTE   Cs3
 BYTE   N12  Gs3
 BYTE   W12
 BYTE   Cs3
 BYTE   N12  Gs3
 BYTE   W12
 BYTE   N48  Bn2
 BYTE   N48  Fs3
 BYTE   W66
 BYTE   N06  Ds3
 BYTE   N06  As3
 BYTE   W06
//  #03 //018   ----------------------------------------
 BYTE   N12  Ds3
 BYTE   N12  Bn3
 BYTE   W12
 BYTE   Ds3
 BYTE   N12  Bn3
 BYTE   W12
 BYTE   Ds3
 BYTE   N12  Bn3
 BYTE   W12
 BYTE   N06  Gs3
 BYTE   N06  Ds4
 BYTE   W06
 BYTE   N12  Gs3
 BYTE   N12  Ds4
 BYTE   W12
 BYTE   Gs3
 BYTE   N12  Ds4
 BYTE   W12
 BYTE   N06  Gs3
 BYTE   N06  Ds4
 BYTE   W06
 BYTE   N12  Gs3
 BYTE   N12  Ds4
 BYTE   W12
 BYTE   N06  Fs3
 BYTE   N06  Cs4
 BYTE   W06
 BYTE   N12  Fs3
 BYTE   N12  Cs4
 BYTE   W06
//  #03 //019   ----------------------------------------
 BYTE   W42
 BYTE   N06  As3
 BYTE   N06  Fn4
 BYTE   W06
 BYTE   N12  Bn3
 BYTE   N12  Fs4
 BYTE   W12
 BYTE   Bn3
 BYTE   N12  Fs4
 BYTE   W12
 BYTE   Bn3
 BYTE   N12  Fs4
 BYTE   W12
 BYTE   Bn3
 BYTE   N12  Fs4
 BYTE   W12
//  #03 //020   ----------------------------------------
 BYTE   Bn3
 BYTE   N12  Fs4
 BYTE   W12
 BYTE   Bn3
 BYTE   N12  Fs4
 BYTE   W12
 BYTE   N48  As3
 BYTE   N48  Fs4
 BYTE   W72
//  #03 //021   ----------------------------------------
 BYTE   W96
//  #03 //022   ----------------------------------------
 BYTE   W96
//  #03 //023   ----------------------------------------
 BYTE   W72
 BYTE   N06
 BYTE   W06
 BYTE   N12
 BYTE   W12
 BYTE   N06
 BYTE   W06
//  #03 //024   ----------------------------------------
 BYTE   N12
 BYTE   W12
 BYTE   N36  Bn3
 BYTE   W84
//  #03 //025   ----------------------------------------
 BYTE   N06  Ds4
 BYTE   W06
 BYTE   N06
 BYTE   W06
 BYTE   N12
 BYTE   W12
 BYTE   N06
 BYTE   W06
 BYTE   N06
 BYTE   W06
 BYTE   N12
 BYTE   W12
 BYTE   N36
 BYTE   W48
//  #03 //026   ----------------------------------------
 BYTE   W54
 BYTE   N06  Bn3
 BYTE   W06
 BYTE   N12  Cs4
 BYTE   W12
 BYTE   N12
 BYTE   W12
 BYTE   Ds4
 BYTE   W12
//  #03 //027   ----------------------------------------
 BYTE   N06
 BYTE   W06
 BYTE   Bn3
 BYTE   W06
 BYTE   N24
 BYTE   W84
//  #03 //028   ----------------------------------------
 BYTE   N06  Fs4
 BYTE   W06
 BYTE   N06
 BYTE   W06
 BYTE   N12
 BYTE   W12
 BYTE   N12
 BYTE   W12
 BYTE   N12
 BYTE   W12
 BYTE   N48
 BYTE   W48
//  #03 //029   ----------------------------------------
 BYTE   N12
 BYTE   W12
 BYTE   N12
 BYTE   W12
 BYTE   N06
 BYTE   W06
 BYTE   N48  Ds4
 BYTE   W48
 BYTE   N06  Cs4
 BYTE   W06
 BYTE   N12  Bn3
 BYTE   W12
//  #03 //030   ----------------------------------------
Label_0161EC5A:
 BYTE   W12
 BYTE   N12  Fs3  v080
 BYTE   N12  Bn3
 BYTE   W12
 BYTE   Gs3
 BYTE   N12  Cs4
 BYTE   W12
 BYTE   As3
 BYTE   N12  Ds4
 BYTE   W12
 BYTE   Cs4
 BYTE   N12  Fs4
 BYTE   W12
 BYTE   Cs4
 BYTE   N12  Fs4
 BYTE   W24
 BYTE   Fs3
 BYTE   N12  Bn3
 BYTE   W12
 BYTE   PEND 
//  #03 //031   ----------------------------------------
Label_0161EC76:
 BYTE   N12  Gs3  v080
 BYTE   N12  Cs4
 BYTE   W12
 BYTE   As3
 BYTE   N12  Ds4
 BYTE   W12
 BYTE   Fs3
 BYTE   N12  Bn3
 BYTE   W12
 BYTE   Fs3
 BYTE   N12  Bn3
 BYTE   W24
 BYTE   Fs3
 BYTE   N12  Bn3
 BYTE   W12
 BYTE   Gs3
 BYTE   N12  Cs4
 BYTE   W12
 BYTE   As3
 BYTE   N12  Ds4
 BYTE   W12
 BYTE   PEND 
//  #03 //032   ----------------------------------------
 BYTE   Cs4
 BYTE   N12  Fs4
 BYTE   W12
 BYTE   Cs4
 BYTE   N12  Fs4
 BYTE   W24
 BYTE   Cs4
 BYTE   N12  Fs4
 BYTE   W12
 BYTE   Cs4
 BYTE   N12  Fs4
 BYTE   W12
 BYTE   Cs4
 BYTE   N12  Fs4
 BYTE   W12
 BYTE   Cs4
 BYTE   N12  Fs4
 BYTE   W12
 BYTE   Cs4
 BYTE   N12  Fs4
 BYTE   W12
//  #03 //033   ----------------------------------------
 BYTE   PATT
  POIN2 Label_0161EC5A
//  #03 //034   ----------------------------------------
 BYTE   PATT
  POIN2 Label_0161EC76
//  #03 //035   ----------------------------------------
 BYTE   N12  Cs4  v080
 BYTE   N12  Fs4
 BYTE   W12
 BYTE   Cs4
 BYTE   N12  Fs4
 BYTE   W12
 BYTE   N18  Gs3
 BYTE   N18  Cs4
 BYTE   W18
 BYTE   N06  Fs3
 BYTE   N06  Bn3
 BYTE   W06
 BYTE   Gs3
 BYTE   N06  Cs4
 BYTE   W06
 BYTE   Fs3
 BYTE   N06  Bn3
 BYTE   W06
 BYTE   As3
 BYTE   N06  Ds4
 BYTE   W06
 BYTE   N12  Fs3
 BYTE   N12  Bn3
 BYTE   W30
//  #03 //036   ----------------------------------------
 BYTE   Ds3
 BYTE   N12  Bn3
 BYTE   W12
 BYTE   Ds3
 BYTE   N12  Bn3
 BYTE   W12
 BYTE   Ds3
 BYTE   N12  Bn3
 BYTE   W12
 BYTE   N06  Cs3
 BYTE   N06  Gs3
 BYTE   W06
 BYTE   Cs3
 BYTE   N06  Gs3
 BYTE   W06
 BYTE   N12  Cs3
 BYTE   N12  Gs3
 BYTE   W12
 BYTE   Cs3
 BYTE   N12  Gs3
 BYTE   W12
 BYTE   N48  Bn2
 BYTE   N48  Fs3
 BYTE   W24
//  #03 //037   ----------------------------------------
 BYTE   PATT
  POIN2 Label_0161EB92
//  #03 //038   ----------------------------------------
 BYTE   N12  Cs3  v080
 BYTE   N12  Gs3
 BYTE   W12
 BYTE   Cs3
 BYTE   N12  Gs3
 BYTE   W12
 BYTE   N48  Bn2
 BYTE   N48  Fs3
 BYTE   W66
 BYTE   N06  Ds3
 BYTE   N06  As3
 BYTE   N06  Dn4
 BYTE   W06
//  #03 //039   ----------------------------------------
 BYTE   N12  Ds3
 BYTE   N12  Bn3
 BYTE   N12  Ds4
 BYTE   W12
 BYTE   Ds3
 BYTE   N12  Bn3
 BYTE   N12  Ds4
 BYTE   W12
 BYTE   Ds3
 BYTE   N12  Bn3
 BYTE   N12  Ds4
 BYTE   W12
 BYTE   Cs3
 BYTE   N12  Gs3
 BYTE   N12  Ds4
 BYTE   W12
 BYTE   Cs3
 BYTE   N12  Gs3
 BYTE   N12  Ds4
 BYTE   W12
 BYTE   Cs3
 BYTE   N12  Gs3
 BYTE   N12  Ds4
 BYTE   W12
 BYTE   N48  Bn2
 BYTE   N48  Fs3
 BYTE   N48  Cs4
 BYTE   W24
//  #03 //040   ----------------------------------------
 BYTE   W42
 BYTE   N06  Ds3
 BYTE   N06  As3
 BYTE   N06  Fn4
 BYTE   W06
 BYTE   N12  Ds3
 BYTE   N12  Bn3
 BYTE   N12  Fs4
 BYTE   W12
 BYTE   Ds3
 BYTE   N12  Bn3
 BYTE   N12  Fs4
 BYTE   W12
 BYTE   Ds3
 BYTE   N12  Bn3
 BYTE   N12  Fs4
 BYTE   W12
 BYTE   Cs3
 BYTE   N12  Gs3
 BYTE   N12  Fs4
 BYTE   W12
//  #03 //041   ----------------------------------------
 BYTE   Cs3
 BYTE   N12  Gs3
 BYTE   N12  Fs4
 BYTE   W12
 BYTE   Cs3
 BYTE   N12  Gs3
 BYTE   N12  Fs4
 BYTE   W12
 BYTE   N48  Bn2
 BYTE   N48  Fs3
 BYTE   N72  Fs4
 BYTE   W66
 BYTE   N06  Ds3
 BYTE   N06  As3
 BYTE   W06
//  #03 //042   ----------------------------------------
Label_0161ED83:
 BYTE   N12  En3  v080
 BYTE   N12  Bn3
 BYTE   W12
 BYTE   En3
 BYTE   N12  Bn3
 BYTE   W12
 BYTE   En3
 BYTE   N12  Bn3
 BYTE   W12
 BYTE   N24  En3
 BYTE   N24  Bn3
 BYTE   W24
 BYTE   N12  Fs3
 BYTE   N12  Bn3
 BYTE   W12
 BYTE   N48  Ds3
 BYTE   N48  As3
 BYTE   W24
 BYTE   PEND 
//  #03 //043   ----------------------------------------
 BYTE   W42
 BYTE   N06  Ds3
 BYTE   N06  As3
 BYTE   W06
 BYTE   N12  En3
 BYTE   N12  Bn3
 BYTE   W12
 BYTE   En3
 BYTE   N12  Bn3
 BYTE   W12
 BYTE   En3
 BYTE   N12  Bn3
 BYTE   W12
 BYTE   N24  En3
 BYTE   N24  Bn3
 BYTE   W12
//  #03 //044   ----------------------------------------
 BYTE   W12
 BYTE   N12  Fs3
 BYTE   N12  Bn3
 BYTE   W12
 BYTE   N48  Ds3
 BYTE   N48  As3
 BYTE   W66
 BYTE   N06  Ds3
 BYTE   N06  As3
 BYTE   W06
//  #03 //045   ----------------------------------------
 BYTE   PATT
  POIN2 Label_0161ED83
//  #03 //046   ----------------------------------------
 BYTE   W42
 BYTE   N06  Ds3  v080
 BYTE   N06  As3
 BYTE   N06  Fn4
 BYTE   W06
 BYTE   N12  En3
 BYTE   N12  Bn3
 BYTE   N12  Fs4
 BYTE   W12
 BYTE   En3
 BYTE   N12  Bn3
 BYTE   N12  Fs4
 BYTE   W12
 BYTE   En3
 BYTE   N12  Bn3
 BYTE   N12  Fs4
 BYTE   W12
 BYTE   N24  En3
 BYTE   N24  Bn3
 BYTE   N24  Fs4
 BYTE   W12
//  #03 //047   ----------------------------------------
 BYTE   W12
 BYTE   N12  Fs3
 BYTE   N12  Bn3
 BYTE   N12  Fs4
 BYTE   W12
 BYTE   N48  Ds3
 BYTE   N48  As3
 BYTE   N48  Fs4
 BYTE   W72
//  #03 //048   ----------------------------------------
 BYTE   TIE  Ds3
 BYTE   TIE  Fs3
 BYTE   TIE  As3
 BYTE   TIE  Ds4
 BYTE   TIE  Fs4
 BYTE   W96
//  #03 //049   ----------------------------------------
 BYTE   W48
 BYTE   EOT
 BYTE   Ds3  v066
 BYTE   As3  v090
 BYTE   Fs4
 BYTE   W48
//  #03 //050   ----------------------------------------
 BYTE   W96
//  #03 //051   ----------------------------------------
 BYTE   W96
//  #03 //052   ----------------------------------------
 BYTE   W96
//  #03 //053   ----------------------------------------
 BYTE   W96
//  #03 //054   ----------------------------------------
 BYTE   W96
//  #03 //055   ----------------------------------------
 BYTE   W96
//  #03 //056   ----------------------------------------
 BYTE   W90
 BYTE   N06  Fs3
 BYTE   N06  Cs4
 BYTE   W06
//  #03 //057   ----------------------------------------
Label_0161EE1F:
 BYTE   N12  Gs3  v080
 BYTE   N12  Ds4
 BYTE   W12
 BYTE   Gs3
 BYTE   N12  Ds4
 BYTE   W12
 BYTE   Gs3
 BYTE   N12  Ds4
 BYTE   W12
 BYTE   N24  Gs3
 BYTE   N24  Ds4
 BYTE   W24
 BYTE   N12  Gs3
 BYTE   N12  En4
 BYTE   W12
 BYTE   N06  Gs3
 BYTE   N06  Ds4
 BYTE   W06
 BYTE   N24  Fs3
 BYTE   N24  Cs4
 BYTE   W18
 BYTE   PEND 
//  #03 //058   ----------------------------------------
 BYTE   W42
 BYTE   N06  Fs3
 BYTE   N06  Cs4
 BYTE   W06
 BYTE   N12  Gs3
 BYTE   N12  Ds4
 BYTE   W12
 BYTE   Bn3
 BYTE   N12  Fs4
 BYTE   W12
 BYTE   Cs4
 BYTE   N12  Gs4
 BYTE   W12
 BYTE   N24  Gs3
 BYTE   N24  Ds4
 BYTE   W12
//  #03 //059   ----------------------------------------
 BYTE   W12
 BYTE   N12  Gs3
 BYTE   N12  En4
 BYTE   W12
 BYTE   N06  Gs3
 BYTE   N06  Ds4
 BYTE   W06
 BYTE   N24  Fs3
 BYTE   N24  Cs4
 BYTE   W60
 BYTE   N06  Fs3
 BYTE   N06  Cs4
 BYTE   W06
//  #03 //060   ----------------------------------------
 BYTE   PATT
  POIN2 Label_0161EE1F
//  #03 //061   ----------------------------------------
 BYTE   W48
 BYTE   N36  Ds4  v080
 BYTE   N36  Gs4
 BYTE   W36
 BYTE   Ds4
 BYTE   N36  Gs4
 BYTE   W12
//  #03 //062   ----------------------------------------
 BYTE   W24
 BYTE   N06  Ds4
 BYTE   N06  Gs4
 BYTE   W06
 BYTE   N24  Cs4
 BYTE   N24  Fs4
 BYTE   W66
//  #03 //063   ----------------------------------------
 BYTE   N36  Bn3
 BYTE   N36  Bn4
 BYTE   N36  Bn5
 BYTE   W36
 BYTE   Gs3
 BYTE   N36  Gs4
 BYTE   N36  Gs5
 BYTE   W36
 BYTE   Fs3
 BYTE   N36  Fs4
 BYTE   N36  Fs5
 BYTE   W24
//  #03 //064   ----------------------------------------
 BYTE   W24
 BYTE   N06  Fs3
 BYTE   N06  Fs4
 BYTE   N06  Fs5
 BYTE   W06
 BYTE   Gs3
 BYTE   N06  Gs4
 BYTE   N06  Gs5
 BYTE   W06
 BYTE   Bn3
 BYTE   N06  Bn4
 BYTE   N06  Bn5
 BYTE   W06
 BYTE   Gs3
 BYTE   N06  Gs4
 BYTE   N06  Gs5
 BYTE   W06
 BYTE   N36  Bn3
 BYTE   N36  Bn4
 BYTE   N36  Bn5
 BYTE   W36
 BYTE   N12  Ds4
 BYTE   N12  Ds5
 BYTE   W12
//  #03 //065   ----------------------------------------
 BYTE   Cs4
 BYTE   N12  Cs5
 BYTE   W18
 BYTE   N06  Bn3
 BYTE   N06  Bn4
 BYTE   N06  Bn5
 BYTE   W06
 BYTE   N24  Cs4
 BYTE   N24  Cs5
 BYTE   W72
//  #03 //066   ----------------------------------------
 BYTE   N36  Bn3
 BYTE   N36  Bn4
 BYTE   N36  Bn5
 BYTE   W36
 BYTE   Ds4
 BYTE   N36  Ds5
 BYTE   W36
 BYTE   Fs4
 BYTE   N36  Fs5
 BYTE   W24
//  #03 //067   ----------------------------------------
 BYTE   W12
 BYTE   En4
 BYTE   N36  En5
 BYTE   W36
 BYTE   Ds4
 BYTE   N36  Ds5
 BYTE   W36
 BYTE   Cs4
 BYTE   N36  Cs5
 BYTE   W12
//  #03 //068   ----------------------------------------
 BYTE   W24
 BYTE   Bn3
 BYTE   N36  Bn4
 BYTE   N36  Bn5
 BYTE   W36
 BYTE   Fs3
 BYTE   N36  Fs4
 BYTE   N36  Fs5
 BYTE   W36
//  #03 //069   ----------------------------------------
 BYTE   N72  Bn3
 BYTE   N72  Bn4
 BYTE   N72  Bn5
 BYTE   W96
//  #03 //070   ----------------------------------------
 BYTE   W96
//  #03 //071   ----------------------------------------
 BYTE   W96
//  #03 //072   ----------------------------------------
 BYTE   W96
//  #03 //073   ----------------------------------------
 BYTE   W96
//  #03 //074   ----------------------------------------
 BYTE   W96
//  #03 //075   ----------------------------------------
 BYTE   W48
 BYTE   N06  Bn3
 BYTE   W06
 BYTE   N12  Cs4
 BYTE   W12
 BYTE   Bn3
 BYTE   W12
 BYTE   N18  Ds4
 BYTE   W18
//  #03 //076   ----------------------------------------
 BYTE   N54  Bn3
 BYTE   W48
 BYTE   GoTo
  POIN2 Label_0161EACC
//  #03 //077   ----------------------------------------
 BYTE   W06
 BYTE   FINE

//**************** Track 4 (Midi-Chn.3) ****************//

MyNameIsJonas_004:
//  #04 //000   ----------------------------------------
 BYTE   VOL   55*MyNameIsJonas_mvl/mxv
 BYTE   KEYSH   MyNameIsJonas_key+0
Label_0161EF34:
 BYTE   VOICE   38
 BYTE   W96
//  #04 //001   ----------------------------------------
 BYTE   W96
//  #04 //002   ----------------------------------------
 BYTE   W96
//  #04 //003   ----------------------------------------
Label_0161EF39:
 BYTE   N36  Bn1  v080
 BYTE   W36
 BYTE   Fs1
 BYTE   W36
 BYTE   Gs1
 BYTE   W24
 BYTE   PEND 
//  #04 //004   ----------------------------------------
 BYTE   W12
 BYTE   En1
 BYTE   W36
 BYTE   TIE  Bn0
 BYTE   W48
//  #04 //005   ----------------------------------------
 BYTE   W96
//  #04 //006   ----------------------------------------
 BYTE   EOT
//  #04 //007   ----------------------------------------
 BYTE   PATT
  POIN2 Label_0161EF39
//  #04 //008   ----------------------------------------
Label_0161EF4F:
 BYTE   W12
 BYTE   N36  En1  v080
 BYTE   W36
 BYTE   Bn0
 BYTE   W36
 BYTE   Fs1
 BYTE   W12
 BYTE   PEND 
//  #04 //009   ----------------------------------------
Label_0161EF59:
 BYTE   W24
 BYTE   N36  En1  v080
 BYTE   W36
 BYTE   Cs1
 BYTE   W36
 BYTE   PEND 
//  #04 //010   ----------------------------------------
Label_0161EF61:
 BYTE   N36  Bn0  v080
 BYTE   W36
 BYTE   Fs1
 BYTE   W36
 BYTE   En1
 BYTE   W24
 BYTE   PEND 
//  #04 //011   ----------------------------------------
Label_0161EF6A:
 BYTE   W12
 BYTE   N36  Cs1  v080
 BYTE   W36
 BYTE   Bn0
 BYTE   W36
 BYTE   Fs1
 BYTE   W12
 BYTE   PEND 
//  #04 //012   ----------------------------------------
 BYTE   PATT
  POIN2 Label_0161EF59
//  #04 //013   ----------------------------------------
 BYTE   PATT
  POIN2 Label_0161EF61
//  #04 //014   ----------------------------------------
 BYTE   PATT
  POIN2 Label_0161EF6A
//  #04 //015   ----------------------------------------
 BYTE   PATT
  POIN2 Label_0161EF59
//  #04 //016   ----------------------------------------
 BYTE   PATT
  POIN2 Label_0161EF61
//  #04 //017   ----------------------------------------
 BYTE   PATT
  POIN2 Label_0161EF6A
//  #04 //018   ----------------------------------------
 BYTE   PATT
  POIN2 Label_0161EF59
//  #04 //019   ----------------------------------------
 BYTE   PATT
  POIN2 Label_0161EF61
//  #04 //020   ----------------------------------------
 BYTE   PATT
  POIN2 Label_0161EF6A
//  #04 //021   ----------------------------------------
 BYTE   PATT
  POIN2 Label_0161EF59
//  #04 //022   ----------------------------------------
 BYTE   TIE  Bn1  v080
 BYTE   W96
//  #04 //023   ----------------------------------------
 BYTE   W96
//  #04 //024   ----------------------------------------
 BYTE   W96
//  #04 //025   ----------------------------------------
 BYTE   EOT
//  #04 //026   ----------------------------------------
 BYTE   PATT
  POIN2 Label_0161EF39
//  #04 //027   ----------------------------------------
 BYTE   W12
 BYTE   N36  En1  v080
 BYTE   W36
 BYTE   TIE  Bn1
 BYTE   W48
//  #04 //028   ----------------------------------------
 BYTE   W96
//  #04 //029   ----------------------------------------
 BYTE   EOT
//  #04 //030   ----------------------------------------
 BYTE   PATT
  POIN2 Label_0161EF39
//  #04 //031   ----------------------------------------
 BYTE   PATT
  POIN2 Label_0161EF4F
//  #04 //032   ----------------------------------------
Label_0161EFC6:
 BYTE   W24
 BYTE   N36  Gs1  v080
 BYTE   W36
 BYTE   En1
 BYTE   W36
 BYTE   PEND 
//  #04 //033   ----------------------------------------
Label_0161EFCE:
 BYTE   N36  Bn0  v080
 BYTE   W36
 BYTE   Fs1
 BYTE   W36
 BYTE   Gs1
 BYTE   W24
 BYTE   PEND 
//  #04 //034   ----------------------------------------
 BYTE   PATT
  POIN2 Label_0161EF4F
//  #04 //035   ----------------------------------------
 BYTE   PATT
  POIN2 Label_0161EFC6
//  #04 //036   ----------------------------------------
 BYTE   PATT
  POIN2 Label_0161EFCE
//  #04 //037   ----------------------------------------
 BYTE   PATT
  POIN2 Label_0161EF4F
//  #04 //038   ----------------------------------------
 BYTE   PATT
  POIN2 Label_0161EFC6
//  #04 //039   ----------------------------------------
 BYTE   PATT
  POIN2 Label_0161EFCE
//  #04 //040   ----------------------------------------
 BYTE   PATT
  POIN2 Label_0161EF4F
//  #04 //041   ----------------------------------------
 BYTE   PATT
  POIN2 Label_0161EFC6
//  #04 //042   ----------------------------------------
 BYTE   PATT
  POIN2 Label_0161EFCE
//  #04 //043   ----------------------------------------
 BYTE   PATT
  POIN2 Label_0161EF4F
//  #04 //044   ----------------------------------------
 BYTE   PATT
  POIN2 Label_0161EFC6
//  #04 //045   ----------------------------------------
 BYTE   W96
//  #04 //046   ----------------------------------------
 BYTE   W96
//  #04 //047   ----------------------------------------
 BYTE   W96
//  #04 //048   ----------------------------------------
 BYTE   W96
//  #04 //049   ----------------------------------------
 BYTE   W96
//  #04 //050   ----------------------------------------
 BYTE   W96
//  #04 //051   ----------------------------------------
 BYTE   N72  Bn0  v080
 BYTE   W72
 BYTE   N72
 BYTE   W24
//  #04 //052   ----------------------------------------
 BYTE   W48
 BYTE   N72
 BYTE   W48
//  #04 //053   ----------------------------------------
 BYTE   W24
 BYTE   N72
 BYTE   W72
//  #04 //054   ----------------------------------------
 BYTE   PATT
  POIN2 Label_0161EFCE
//  #04 //055   ----------------------------------------
 BYTE   W12
 BYTE   N36  Cs2  v080
 BYTE   W36
 BYTE   Gs1
 BYTE   W36
 BYTE   Fs1
 BYTE   W12
//  #04 //056   ----------------------------------------
 BYTE   PATT
  POIN2 Label_0161EF59
//  #04 //057   ----------------------------------------
 BYTE   PATT
  POIN2 Label_0161EFCE
//  #04 //058   ----------------------------------------
 BYTE   W12
 BYTE   N36  Cs2  v080
 BYTE   W36
 BYTE   Bn1
 BYTE   W36
 BYTE   Fs1
 BYTE   W12
//  #04 //059   ----------------------------------------
 BYTE   PATT
  POIN2 Label_0161EF59
//  #04 //060   ----------------------------------------
 BYTE   PATT
  POIN2 Label_0161EFCE
//  #04 //061   ----------------------------------------
 BYTE   PATT
  POIN2 Label_0161EF4F
//  #04 //062   ----------------------------------------
Label_0161F050:
 BYTE   W24
 BYTE   N36  Gs1  v080
 BYTE   W36
 BYTE   Cs2
 BYTE   W36
 BYTE   PEND 
//  #04 //063   ----------------------------------------
 BYTE   PATT
  POIN2 Label_0161EF39
//  #04 //064   ----------------------------------------
 BYTE   PATT
  POIN2 Label_0161EF4F
//  #04 //065   ----------------------------------------
 BYTE   PATT
  POIN2 Label_0161F050
//  #04 //066   ----------------------------------------
 BYTE   PATT
  POIN2 Label_0161EFCE
//  #04 //067   ----------------------------------------
 BYTE   PATT
  POIN2 Label_0161EF4F
//  #04 //068   ----------------------------------------
 BYTE   PATT
  POIN2 Label_0161F050
//  #04 //069   ----------------------------------------
 BYTE   PATT
  POIN2 Label_0161EF39
//  #04 //070   ----------------------------------------
 BYTE   PATT
  POIN2 Label_0161EF4F
//  #04 //071   ----------------------------------------
 BYTE   PATT
  POIN2 Label_0161EFC6
//  #04 //072   ----------------------------------------
 BYTE   TIE  Ds1  v080
 BYTE   W96
//  #04 //073   ----------------------------------------
 BYTE   W48
 BYTE   EOT
 BYTE   W48
//  #04 //074   ----------------------------------------
 BYTE   W96
//  #04 //075   ----------------------------------------
 BYTE   W96
//  #04 //076   ----------------------------------------
 BYTE   W96
//  #04 //077   ----------------------------------------
 BYTE   W96
//  #04 //078   ----------------------------------------
 BYTE   W96
//  #04 //079   ----------------------------------------
 BYTE   W48
 BYTE   GoTo
  POIN2 Label_0161EF34
//  #04 //080   ----------------------------------------
 BYTE   W06
 BYTE   FINE

//**************** Track 5 (Midi-Chn.4) ****************//

MyNameIsJonas_005:
//  #05 //000   ----------------------------------------
 BYTE   VOL   55*MyNameIsJonas_mvl/mxv
 BYTE   KEYSH   MyNameIsJonas_key+0
Label_0161F0B0:
 BYTE   VOICE   121
 BYTE   N06  Gs2  v080
 BYTE   W12
 BYTE   N06
 BYTE   W12
 BYTE   N06
 BYTE   W12
 BYTE   N06
 BYTE   W12
 BYTE   N06
 BYTE   W12
 BYTE   N06
 BYTE   W12
 BYTE   N06
 BYTE   W12
 BYTE   N06
 BYTE   W12
//  #05 //001   ----------------------------------------
Label_0161F0C4:
 BYTE   N06  Gs2  v080
 BYTE   W12
 BYTE   N06
 BYTE   W12
 BYTE   N06
 BYTE   W12
 BYTE   N06
 BYTE   W12
 BYTE   N06
 BYTE   W12
 BYTE   N06
 BYTE   W12
 BYTE   N06
 BYTE   W12
 BYTE   N06
 BYTE   W12
 BYTE   PEND 
//  #05 //002   ----------------------------------------
 BYTE   PATT
  POIN2 Label_0161F0C4
//  #05 //003   ----------------------------------------
Label_0161F0DC:
 BYTE   N06  Bn0  v080
 BYTE   N06  Cs2  v072
 BYTE   W12
 BYTE   Bn0  v080
 BYTE   N06  Cs2  v072
 BYTE   W12
 BYTE   Bn0  v080
 BYTE   N06  Cs2  v072
 BYTE   W12
 BYTE   En1  v080
 BYTE   N06  Cs2  v072
 BYTE   W12
 BYTE   Bn0  v080
 BYTE   N06  Cs2  v072
 BYTE   W12
 BYTE   En1  v080
 BYTE   N06  Cs2  v072
 BYTE   W12
 BYTE   Bn0  v080
 BYTE   N06  Cs2  v072
 BYTE   W12
 BYTE   Bn0  v080
 BYTE   N06  Cs2  v072
 BYTE   W12
 BYTE   PEND 
//  #05 //004   ----------------------------------------
Label_0161F10E:
 BYTE   N06  Bn0  v080
 BYTE   N06  Cs2  v072
 BYTE   W12
 BYTE   En1  v080
 BYTE   N06  Cs2  v072
 BYTE   W12
 BYTE   Bn0  v080
 BYTE   N06  Cs2  v072
 BYTE   W12
 BYTE   En1  v080
 BYTE   N06  Cs2  v072
 BYTE   W12
 BYTE   Bn0  v080
 BYTE   N06  Cs2  v072
 BYTE   N06  Gs2  v080
 BYTE   W12
 BYTE   N06
 BYTE   W12
 BYTE   N06
 BYTE   W12
 BYTE   N06
 BYTE   W12
 BYTE   PEND 
//  #05 //005   ----------------------------------------
 BYTE   PATT
  POIN2 Label_0161F0C4
//  #05 //006   ----------------------------------------
 BYTE   PATT
  POIN2 Label_0161F0DC
//  #05 //007   ----------------------------------------
 BYTE   N06  Bn0  v080
 BYTE   N06  Cs2  v072
 BYTE   W12
 BYTE   En1  v080
 BYTE   N06  Cs2  v072
 BYTE   W06
 BYTE   En1  v080
 BYTE   W06
 BYTE   Bn0
 BYTE   N06  Cs2  v072
 BYTE   W06
 BYTE   An1  v080
 BYTE   W06
 BYTE   Gn1
 BYTE   N06  Cs2  v072
 BYTE   W06
 BYTE   Fn1  v080
 BYTE   W06
 BYTE   Bn0
 BYTE   N06  Gs1
 BYTE   N06  Cs2  v072
 BYTE   W12
 BYTE   Gs1  v080
 BYTE   W12
 BYTE   Bn0
 BYTE   N06  Gs1
 BYTE   W12
 BYTE   En1
 BYTE   N06  Gs1
 BYTE   W12
//  #05 //008   ----------------------------------------
Label_0161F173:
 BYTE   N06  Bn0  v080
 BYTE   N06  Gs1
 BYTE   W12
 BYTE   N06
 BYTE   W12
 BYTE   Bn0
 BYTE   N06  Gs1
 BYTE   W12
 BYTE   Bn0
 BYTE   N06  Gs1
 BYTE   W12
 BYTE   Bn0
 BYTE   N06  Gs1
 BYTE   W12
 BYTE   En1
 BYTE   N06  Gs1
 BYTE   W12
 BYTE   Bn0
 BYTE   N06  Gs1
 BYTE   W12
 BYTE   Bn0
 BYTE   N06  Gs1
 BYTE   W12
 BYTE   PEND 
//  #05 //009   ----------------------------------------
Label_0161F194:
 BYTE   N06  Bn0  v080
 BYTE   N06  Gs1
 BYTE   W12
 BYTE   Bn0
 BYTE   N06  Gs1
 BYTE   W12
 BYTE   Bn0
 BYTE   N06  Gs1
 BYTE   W12
 BYTE   En1
 BYTE   N06  Gs1
 BYTE   W12
 BYTE   Bn0
 BYTE   N06  Gs1
 BYTE   W12
 BYTE   N06
 BYTE   W12
 BYTE   Bn0
 BYTE   N06  Gs1
 BYTE   W12
 BYTE   Bn0
 BYTE   N06  Gs1
 BYTE   W12
 BYTE   PEND 
//  #05 //010   ----------------------------------------
Label_0161F1B5:
 BYTE   N06  Bn0  v080
 BYTE   N06  Gs1
 BYTE   W12
 BYTE   En1
 BYTE   N06  Gs1
 BYTE   W12
 BYTE   Bn0
 BYTE   N06  Gs1
 BYTE   W12
 BYTE   Bn0
 BYTE   N06  Gs1
 BYTE   W12
 BYTE   Bn0
 BYTE   N06  Gs1
 BYTE   W12
 BYTE   Bn0
 BYTE   N06  Gs1
 BYTE   W12
 BYTE   Bn0
 BYTE   N06  Gs1
 BYTE   W12
 BYTE   En1
 BYTE   N06  Gs1
 BYTE   W12
 BYTE   PEND 
//  #05 //011   ----------------------------------------
 BYTE   PATT
  POIN2 Label_0161F173
//  #05 //012   ----------------------------------------
 BYTE   PATT
  POIN2 Label_0161F194
//  #05 //013   ----------------------------------------
 BYTE   PATT
  POIN2 Label_0161F1B5
//  #05 //014   ----------------------------------------
 BYTE   N06  Bn0  v080
 BYTE   N06  Gs1
 BYTE   W12
 BYTE   N06
 BYTE   W12
 BYTE   Bn0
 BYTE   N06  Gs1
 BYTE   W12
 BYTE   Bn0
 BYTE   N06  Gs1
 BYTE   W12
 BYTE   Bn0
 BYTE   N06  Gs1
 BYTE   W12
 BYTE   En1
 BYTE   N06  Gs1
 BYTE   W12
 BYTE   Bn0
 BYTE   N06  Gs1
 BYTE   W06
 BYTE   Dn1
 BYTE   W06
 BYTE   Bn0
 BYTE   N06  En1
 BYTE   N06  Gs1
 BYTE   W06
 BYTE   An1
 BYTE   W06
//  #05 //015   ----------------------------------------
 BYTE   Bn0
 BYTE   N06  Gs1
 BYTE   N06  Cs2  v072
 BYTE   W12
 BYTE   Bn0  v080
 BYTE   N06  Gs1
 BYTE   W12
 BYTE   Bn0
 BYTE   N06  Gs1
 BYTE   W12
 BYTE   En1
 BYTE   N06  Gs1
 BYTE   W12
 BYTE   Bn0
 BYTE   N06  Gs1
 BYTE   W12
 BYTE   N06
 BYTE   W12
 BYTE   Bn0
 BYTE   N06  Gs1
 BYTE   W12
 BYTE   Bn0
 BYTE   N06  Gs1
 BYTE   W12
//  #05 //016   ----------------------------------------
 BYTE   PATT
  POIN2 Label_0161F1B5
//  #05 //017   ----------------------------------------
 BYTE   PATT
  POIN2 Label_0161F173
//  #05 //018   ----------------------------------------
 BYTE   PATT
  POIN2 Label_0161F194
//  #05 //019   ----------------------------------------
 BYTE   PATT
  POIN2 Label_0161F1B5
//  #05 //020   ----------------------------------------
 BYTE   PATT
  POIN2 Label_0161F173
//  #05 //021   ----------------------------------------
 BYTE   PATT
  POIN2 Label_0161F0C4
//  #05 //022   ----------------------------------------
 BYTE   PATT
  POIN2 Label_0161F0C4
//  #05 //023   ----------------------------------------
 BYTE   PATT
  POIN2 Label_0161F0C4
//  #05 //024   ----------------------------------------
 BYTE   PATT
  POIN2 Label_0161F0DC
//  #05 //025   ----------------------------------------
 BYTE   PATT
  POIN2 Label_0161F10E
//  #05 //026   ----------------------------------------
 BYTE   PATT
  POIN2 Label_0161F0C4
//  #05 //027   ----------------------------------------
 BYTE   PATT
  POIN2 Label_0161F0DC
//  #05 //028   ----------------------------------------
 BYTE   N06  Bn0  v080
 BYTE   N06  Cs2  v072
 BYTE   W12
 BYTE   En1  v080
 BYTE   N06  Cs2  v072
 BYTE   W06
 BYTE   En1  v080
 BYTE   W06
 BYTE   Bn0
 BYTE   N06  Cs2  v072
 BYTE   W06
 BYTE   En1  v080
 BYTE   W06
 BYTE   Gn1
 BYTE   N06  Cs2  v072
 BYTE   W06
 BYTE   Fn1  v080
 BYTE   W06
 BYTE   Bn0
 BYTE   N06  Gs1
 BYTE   N06  Cs2  v072
 BYTE   W12
 BYTE   Bn0  v080
 BYTE   N06  Gs1
 BYTE   W12
 BYTE   Bn0
 BYTE   N06  Gs1
 BYTE   W12
 BYTE   En1
 BYTE   N06  Gs1
 BYTE   W12
//  #05 //029   ----------------------------------------
 BYTE   Bn0
 BYTE   N06  Gs1
 BYTE   W12
 BYTE   N06
 BYTE   W12
 BYTE   Bn0
 BYTE   N06  Gs1
 BYTE   W12
 BYTE   Bn0
 BYTE   N06  Gs1
 BYTE   W12
 BYTE   Bn0
 BYTE   N06  Gs1
 BYTE   W12
 BYTE   En1
 BYTE   N06  Gs1
 BYTE   W12
 BYTE   Bn0
 BYTE   N06  Gs1
 BYTE   W12
 BYTE   N06
 BYTE   W12
//  #05 //030   ----------------------------------------
 BYTE   PATT
  POIN2 Label_0161F194
//  #05 //031   ----------------------------------------
 BYTE   PATT
  POIN2 Label_0161F1B5
//  #05 //032   ----------------------------------------
 BYTE   PATT
  POIN2 Label_0161F173
//  #05 //033   ----------------------------------------
 BYTE   PATT
  POIN2 Label_0161F194
//  #05 //034   ----------------------------------------
 BYTE   PATT
  POIN2 Label_0161F1B5
//  #05 //035   ----------------------------------------
 BYTE   N06  Bn0  v080
 BYTE   N06  Gs1
 BYTE   W12
 BYTE   N06
 BYTE   W12
 BYTE   Bn0
 BYTE   N06  Gs1
 BYTE   W12
 BYTE   Bn0
 BYTE   N06  Gs1
 BYTE   W12
 BYTE   Bn0
 BYTE   N06  Gs1
 BYTE   W12
 BYTE   En1
 BYTE   N06  Gs1
 BYTE   W12
 BYTE   Bn0
 BYTE   N06  Gs1
 BYTE   W06
 BYTE   En1
 BYTE   W06
 BYTE   An1
 BYTE   W06
 BYTE   Gn1
 BYTE   W06
//  #05 //036   ----------------------------------------
 BYTE   Bn0
 BYTE   N06  Gs1
 BYTE   N06  Cs2  v076
 BYTE   W12
 BYTE   Bn0  v080
 BYTE   N06  Gs1
 BYTE   W12
 BYTE   Bn0
 BYTE   N06  Gs1
 BYTE   W12
 BYTE   En1
 BYTE   N06  Gs1
 BYTE   W12
 BYTE   Bn0
 BYTE   N06  Gs1
 BYTE   W12
 BYTE   N06
 BYTE   W12
 BYTE   Bn0
 BYTE   N06  Gs1
 BYTE   W12
 BYTE   Bn0
 BYTE   N06  Gs1
 BYTE   W12
//  #05 //037   ----------------------------------------
 BYTE   PATT
  POIN2 Label_0161F1B5
//  #05 //038   ----------------------------------------
 BYTE   PATT
  POIN2 Label_0161F173
//  #05 //039   ----------------------------------------
 BYTE   PATT
  POIN2 Label_0161F194
//  #05 //040   ----------------------------------------
 BYTE   PATT
  POIN2 Label_0161F1B5
//  #05 //041   ----------------------------------------
 BYTE   PATT
  POIN2 Label_0161F173
//  #05 //042   ----------------------------------------
 BYTE   W96
//  #05 //043   ----------------------------------------
 BYTE   W96
//  #05 //044   ----------------------------------------
 BYTE   W96
//  #05 //045   ----------------------------------------
 BYTE   W96
//  #05 //046   ----------------------------------------
 BYTE   W96
//  #05 //047   ----------------------------------------
 BYTE   W96
//  #05 //048   ----------------------------------------
 BYTE   N06  En1  v080
 BYTE   N06  Cs2  v076
 BYTE   W12
 BYTE   En1  v080
 BYTE   N06  Cs2  v076
 BYTE   W06
 BYTE   Cn1  v080
 BYTE   W06
 BYTE   En1
 BYTE   N06  Cs2  v076
 BYTE   W06
 BYTE   Cn1  v080
 BYTE   W06
 BYTE   En1
 BYTE   N06  Cs2  v076
 BYTE   W12
 BYTE   En1  v080
 BYTE   N06  Cs2  v076
 BYTE   W06
 BYTE   Cn1  v080
 BYTE   W06
 BYTE   En1
 BYTE   N06  Cs2  v076
 BYTE   W06
 BYTE   Cn1  v080
 BYTE   W06
 BYTE   En1
 BYTE   N06  Cs2  v076
 BYTE   W12
 BYTE   En1  v080
 BYTE   N06  Cs2  v076
 BYTE   W06
 BYTE   Cn1  v080
 BYTE   W06
//  #05 //049   ----------------------------------------
 BYTE   En1
 BYTE   N06  Cs2  v076
 BYTE   W06
 BYTE   Cn1  v080
 BYTE   W06
 BYTE   En1
 BYTE   N06  Cs2  v076
 BYTE   W12
 BYTE   En1  v080
 BYTE   N06  Cs2  v076
 BYTE   W06
 BYTE   Cn1  v080
 BYTE   W06
 BYTE   En1
 BYTE   N06  Cs2  v076
 BYTE   W06
 BYTE   Cn1  v080
 BYTE   W06
 BYTE   En1
 BYTE   N06  Cs2  v076
 BYTE   W12
 BYTE   En1  v080
 BYTE   N06  Cs2  v076
 BYTE   W06
 BYTE   Cn1  v080
 BYTE   W06
 BYTE   En1
 BYTE   N06  Cs2  v076
 BYTE   W06
 BYTE   Cn1  v080
 BYTE   W06
 BYTE   En1
 BYTE   N06  Cs2  v076
 BYTE   W12
//  #05 //050   ----------------------------------------
 BYTE   En1  v080
 BYTE   N06  Cs2  v076
 BYTE   W06
 BYTE   Cn1  v080
 BYTE   W06
 BYTE   En1
 BYTE   N06  Cs2  v076
 BYTE   W06
 BYTE   Cn1  v080
 BYTE   W06
 BYTE   En1
 BYTE   N06  Cs2  v076
 BYTE   W12
 BYTE   En1  v080
 BYTE   N06  Cs2  v076
 BYTE   W06
 BYTE   Cn1  v080
 BYTE   W06
 BYTE   En1
 BYTE   N06  Cs2  v076
 BYTE   W06
 BYTE   Cn1  v080
 BYTE   W06
 BYTE   Cs2  v076
 BYTE   N06  Dn2  v080
 BYTE   W06
 BYTE   Cn1
 BYTE   N06  Cn2
 BYTE   W06
 BYTE   Bn1
 BYTE   N06  Cs2  v076
 BYTE   W06
 BYTE   Cn1  v080
 BYTE   N06  An1
 BYTE   W06
 BYTE   Gn1
 BYTE   N06  Cs2  v076
 BYTE   W06
 BYTE   Cn1  v080
 BYTE   N06  Fn1
 BYTE   W06
//  #05 //051   ----------------------------------------
 BYTE   PATT
  POIN2 Label_0161F0DC
//  #05 //052   ----------------------------------------
Label_0161F3F6:
 BYTE   N06  Bn0  v080
 BYTE   N06  Cs2  v072
 BYTE   W12
 BYTE   En1  v080
 BYTE   N06  Cs2  v072
 BYTE   W12
 BYTE   Bn0  v080
 BYTE   N06  Cs2  v072
 BYTE   W12
 BYTE   Bn0  v080
 BYTE   N06  Cs2  v072
 BYTE   W12
 BYTE   Bn0  v080
 BYTE   N06  Cs2  v072
 BYTE   W12
 BYTE   Bn0  v080
 BYTE   N06  Cs2  v072
 BYTE   W12
 BYTE   Bn0  v080
 BYTE   N06  Cs2  v072
 BYTE   W12
 BYTE   En1  v080
 BYTE   N06  Cs2  v072
 BYTE   W12
 BYTE   PEND 
//  #05 //053   ----------------------------------------
Label_0161F428:
 BYTE   N06  Bn0  v080
 BYTE   N06  Cs2  v072
 BYTE   W12
 BYTE   En1  v080
 BYTE   N06  Cs2  v072
 BYTE   W12
 BYTE   Bn0  v080
 BYTE   N06  Cs2  v072
 BYTE   W12
 BYTE   Bn0  v080
 BYTE   N06  Cs2  v072
 BYTE   W12
 BYTE   Bn0  v080
 BYTE   N06  Cs2  v072
 BYTE   W12
 BYTE   En1  v080
 BYTE   N06  Cs2  v072
 BYTE   W12
 BYTE   Bn0  v080
 BYTE   N06  Cs2  v072
 BYTE   W12
 BYTE   Bn0  v080
 BYTE   N06  Cs2  v072
 BYTE   W12
 BYTE   PEND 
//  #05 //054   ----------------------------------------
 BYTE   PATT
  POIN2 Label_0161F0DC
//  #05 //055   ----------------------------------------
 BYTE   PATT
  POIN2 Label_0161F3F6
//  #05 //056   ----------------------------------------
 BYTE   PATT
  POIN2 Label_0161F428
//  #05 //057   ----------------------------------------
 BYTE   PATT
  POIN2 Label_0161F0DC
//  #05 //058   ----------------------------------------
 BYTE   PATT
  POIN2 Label_0161F3F6
//  #05 //059   ----------------------------------------
 BYTE   PATT
  POIN2 Label_0161F428
//  #05 //060   ----------------------------------------
 BYTE   PATT
  POIN2 Label_0161F0DC
//  #05 //061   ----------------------------------------
 BYTE   PATT
  POIN2 Label_0161F3F6
//  #05 //062   ----------------------------------------
 BYTE   PATT
  POIN2 Label_0161F428
//  #05 //063   ----------------------------------------
Label_0161F487:
 BYTE   N06  Bn0  v080
 BYTE   N06  En1
 BYTE   N06  Cs2  v072
 BYTE   W12
 BYTE   Bn0  v080
 BYTE   N06  En1
 BYTE   N06  Cs2  v072
 BYTE   W12
 BYTE   Bn0  v080
 BYTE   N06  En1
 BYTE   N06  Cs2  v072
 BYTE   W12
 BYTE   En1  v080
 BYTE   N06  Cs2  v072
 BYTE   W12
 BYTE   Bn0  v080
 BYTE   N06  En1
 BYTE   N06  Cs2  v072
 BYTE   W12
 BYTE   En1  v080
 BYTE   N06  Cs2  v072
 BYTE   W12
 BYTE   Bn0  v080
 BYTE   N06  En1
 BYTE   N06  Cs2  v072
 BYTE   W12
 BYTE   Bn0  v080
 BYTE   N06  En1
 BYTE   N06  Cs2  v072
 BYTE   W12
 BYTE   PEND 
//  #05 //064   ----------------------------------------
Label_0161F4C5:
 BYTE   N06  Bn0  v080
 BYTE   N06  En1
 BYTE   N06  Cs2  v072
 BYTE   W12
 BYTE   En1  v080
 BYTE   N06  Cs2  v072
 BYTE   W12
 BYTE   Bn0  v080
 BYTE   N06  En1
 BYTE   N06  Cs2  v072
 BYTE   W12
 BYTE   En1  v080
 BYTE   N06  Cs2  v072
 BYTE   W12
 BYTE   Bn0  v080
 BYTE   N06  En1
 BYTE   N06  Cs2  v072
 BYTE   W12
 BYTE   Bn0  v080
 BYTE   N06  En1
 BYTE   N06  Cs2  v072
 BYTE   W12
 BYTE   Bn0  v080
 BYTE   N06  En1
 BYTE   N06  Cs2  v072
 BYTE   W12
 BYTE   En1  v080
 BYTE   N06  Cs2  v072
 BYTE   W12
 BYTE   PEND 
//  #05 //065   ----------------------------------------
Label_0161F501:
 BYTE   N06  Bn0  v080
 BYTE   N06  En1
 BYTE   N06  Cs2  v072
 BYTE   W12
 BYTE   En1  v080
 BYTE   N06  Cs2  v072
 BYTE   W12
 BYTE   Bn0  v080
 BYTE   N06  En1
 BYTE   N06  Cs2  v072
 BYTE   W12
 BYTE   Bn0  v080
 BYTE   N06  En1
 BYTE   N06  Cs2  v072
 BYTE   W12
 BYTE   Bn0  v080
 BYTE   N06  En1
 BYTE   N06  Cs2  v072
 BYTE   W12
 BYTE   En1  v080
 BYTE   N06  Cs2  v072
 BYTE   W12
 BYTE   Bn0  v080
 BYTE   N06  En1
 BYTE   N06  Cs2  v072
 BYTE   W12
 BYTE   En1  v080
 BYTE   N06  Cs2  v072
 BYTE   W12
 BYTE   PEND 
//  #05 //066   ----------------------------------------
 BYTE   PATT
  POIN2 Label_0161F487
//  #05 //067   ----------------------------------------
 BYTE   PATT
  POIN2 Label_0161F4C5
//  #05 //068   ----------------------------------------
 BYTE   PATT
  POIN2 Label_0161F501
//  #05 //069   ----------------------------------------
 BYTE   N06  Bn0  v080
 BYTE   N06  En1
 BYTE   N06  Cs2  v064
 BYTE   W06
 BYTE   Bn0  v080
 BYTE   W12
 BYTE   N06
 BYTE   N06  En1
 BYTE   W06
 BYTE   Bn0
 BYTE   W12
 BYTE   N06
 BYTE   N06  En1
 BYTE   W12
 BYTE   Bn0
 BYTE   N06  En1
 BYTE   W12
 BYTE   Bn0
 BYTE   N06  En1
 BYTE   W12
 BYTE   Bn0
 BYTE   N06  En1
 BYTE   N06  Cs2  v064
 BYTE   W06
 BYTE   Bn0  v080
 BYTE   W12
 BYTE   N06
 BYTE   N06  En1
 BYTE   W06
//  #05 //070   ----------------------------------------
 BYTE   Bn0
 BYTE   W12
 BYTE   N06
 BYTE   N06  En1
 BYTE   W12
 BYTE   Bn0
 BYTE   N06  En1
 BYTE   W12
 BYTE   Bn0
 BYTE   N06  En1
 BYTE   W12
 BYTE   Bn0
 BYTE   N06  En1
 BYTE   N06  Cs2  v064
 BYTE   W06
 BYTE   Bn0  v080
 BYTE   W12
 BYTE   N06
 BYTE   N06  En1
 BYTE   W06
 BYTE   Bn0
 BYTE   W12
 BYTE   N06
 BYTE   N06  En1
 BYTE   W12
//  #05 //071   ----------------------------------------
 BYTE   Bn0
 BYTE   N06  En1
 BYTE   W12
 BYTE   Bn0
 BYTE   N06  En1
 BYTE   W12
 BYTE   Bn0
 BYTE   N06  En1
 BYTE   N06  Cs2  v064
 BYTE   W72
//  #05 //072   ----------------------------------------
 BYTE   W96
//  #05 //073   ----------------------------------------
 BYTE   W96
//  #05 //074   ----------------------------------------
 BYTE   W96
//  #05 //075   ----------------------------------------
 BYTE   W96
//  #05 //076   ----------------------------------------
 BYTE   W48
 BYTE   GoTo
  POIN2 Label_0161F0B0
//  #05 //077   ----------------------------------------
 BYTE   W06
 BYTE   FINE

//******************************************************//
	ALIGN 4

MyNameIsJonas:
	BYTE	5	// NumTrks
	BYTE	0	// NumBlks
	BYTE	MyNameIsJonas_pri	// Priority
	BYTE	MyNameIsJonas_rev	// Reverb.
    
	POIN2	MyNameIsJonas_grp
    
	POIN2	MyNameIsJonas_001
	POIN2	MyNameIsJonas_002
	POIN2	MyNameIsJonas_003
	POIN2	MyNameIsJonas_004
	POIN2	MyNameIsJonas_005

	
