//Event file generated from Sappy .s format.
	#include "MPlayDef.event"

	#define	NeonMixtape_grp  voicegroup000
	#define	NeonMixtape_pri  0
	#define	NeonMixtape_rev  0
	#define	NeonMixtape_mvl  127
	#define	NeonMixtape_key  0
	#define	NeonMixtape_tbs  1
	#define	NeonMixtape_exg  0
	#define	NeonMixtape_cmp  1

	// .rodata
	//	NeonMixtape
	ALIGN 4


//**************** Track 1 (Midi-Chn.0) ****************//

NeonMixtape_001:
//  #01 //000   ----------------------------------------
 BYTE   KEYSH   NeonMixtape_key+0
 BYTE   TEMPO   94*NeonMixtape_tbs/2
 BYTE   VOICE   4
 BYTE   VOL   50*NeonMixtape_mvl/mxv
 BYTE   PAN   c_v+0
 BYTE   N11  Cn3  v080
 BYTE   W12
 BYTE   Cs3
 BYTE   W12
 BYTE   Fs3
 BYTE   W12
 BYTE   An3
 BYTE   W12
 BYTE   N92  Cs4
 BYTE   W96
//  #01 //001   ----------------------------------------
Label_56D31B:
 BYTE   W48
 BYTE   N23  Cn4  v080
 BYTE   W24
 BYTE   N11  Cs4
 BYTE   W12
 BYTE   N23  An3
 BYTE   W12
 BYTE   PEND 
//  #01 //002   ----------------------------------------
Label_56D327:
 BYTE   W12
 BYTE   N23  An3  v080
 BYTE   W24
 BYTE   N11
 BYTE   W60
 BYTE   PEND 
//  #01 //003   ----------------------------------------
 BYTE   W84
 BYTE   N11
 BYTE   W12
//  #01 //004   ----------------------------------------
Label_56D332:
 BYTE   N11  En4  v080
 BYTE   W12
 BYTE   An3
 BYTE   W24
 BYTE   N11
 BYTE   W12
 BYTE   En4
 BYTE   W12
 BYTE   An3
 BYTE   W24
 BYTE   N11
 BYTE   W12
 BYTE   PEND 
//  #01 //005   ----------------------------------------
Label_56D341:
 BYTE   N11  En4  v080
 BYTE   W12
 BYTE   An3
 BYTE   W12
 BYTE   Gs3
 BYTE   W12
 BYTE   N44  An3
 BYTE   W60
 BYTE   PEND 
//  #01 //006   ----------------------------------------
 BYTE   W96
//  #01 //007   ----------------------------------------
Label_56D34E:
 BYTE   N05  An3  v080
 BYTE   W12
 BYTE   Fs3
 BYTE   W36
 BYTE   N11  Fs4
 BYTE   W12
 BYTE   N05  Cs4
 BYTE   W06
 BYTE   An3
 BYTE   W06
 BYTE   Fs3
 BYTE   W12
 BYTE   N11  En4
 BYTE   W12
 BYTE   PEND 
//  #01 //008   ----------------------------------------
Label_56D362:
 BYTE   N44  Dn4  v080
 BYTE   W48
 BYTE   N32  Cs4
 BYTE   W36
 BYTE   N56  An3
 BYTE   W12
 BYTE   PEND 
//  #01 //009   ----------------------------------------
Label_56D36D:
 BYTE   W48
 BYTE   N32  Bn3  v080
 BYTE   W36
 BYTE   N56  En3
 BYTE   W12
 BYTE   PEND 
//  #01 //010   ----------------------------------------
 BYTE   W96
//  #01 //011   ----------------------------------------
Label_56D377:
 BYTE   W48
 BYTE   N11  Cs3  v080
 BYTE   W12
 BYTE   Dn3
 BYTE   W12
 BYTE   Fs3
 BYTE   W12
 BYTE   An3
 BYTE   W12
 BYTE   PEND 
//  #01 //012   ----------------------------------------
 BYTE   N92  Cs4
 BYTE   W96
//  #01 //013   ----------------------------------------
 BYTE   PATT
  POIN2 Label_56D31B
//  #01 //014   ----------------------------------------
 BYTE   PATT
  POIN2 Label_56D327
//  #01 //015   ----------------------------------------
 BYTE   W84
 BYTE   N11  An3  v080
 BYTE   W12
//  #01 //016   ----------------------------------------
 BYTE   PATT
  POIN2 Label_56D332
//  #01 //017   ----------------------------------------
 BYTE   PATT
  POIN2 Label_56D341
//  #01 //018   ----------------------------------------
 BYTE   W96
//  #01 //019   ----------------------------------------
 BYTE   PATT
  POIN2 Label_56D34E
//  #01 //020   ----------------------------------------
 BYTE   PATT
  POIN2 Label_56D362
//  #01 //021   ----------------------------------------
 BYTE   PATT
  POIN2 Label_56D36D
//  #01 //022   ----------------------------------------
 BYTE   W96
//  #01 //023   ----------------------------------------
 BYTE   PATT
  POIN2 Label_56D377
//  #01 //024   ----------------------------------------
 BYTE   N92  Cs4  v080
 BYTE   W96
//  #01 //025   ----------------------------------------
 BYTE   GoTo
  POIN2 Label_56D31B
//  #01 //026   ----------------------------------------
 BYTE   N92  Fs3  v080
 BYTE   W92
 BYTE   W03
 BYTE   FINE

//**************** Track 2 (Midi-Chn.1) ****************//

NeonMixtape_002:
//  #02 //000   ----------------------------------------
 BYTE   KEYSH   NeonMixtape_key+0
 BYTE   VOICE   4
 BYTE   VOL   50*NeonMixtape_mvl/mxv
 BYTE   PAN   c_v+0
 BYTE   W48
 BYTE   N44  Dn2  v052
 BYTE   N44  Fs2
 BYTE   N44  An2
 BYTE   N44  Cs3
 BYTE   W48
//  #02 //001   ----------------------------------------
 BYTE   En2
 BYTE   N44  Gs2
 BYTE   N44  Bn2
 BYTE   N44  En3
 BYTE   W48
Label_01010DD7:
 BYTE   N44  Fs2  v052
 BYTE   N44  Cs3
 BYTE   N44  Fs3
 BYTE   N44  An3
 BYTE   W48
//  #02 //002   ----------------------------------------
 BYTE   En2
 BYTE   N44  Gs2
 BYTE   N44  Bn2
 BYTE   N44  En3
 BYTE   W48
 BYTE   PEND 
Label_01010DEA:
 BYTE   N44  En2  v052
 BYTE   N44  Fs2
 BYTE   N44  An2
 BYTE   N44  Dn3
 BYTE   W48
//  #02 //003   ----------------------------------------
 BYTE   N32  En2
 BYTE   N44  Gs2
 BYTE   N44  Cn3
 BYTE   N44  En3
 BYTE   W36
 BYTE   N11  En2
 BYTE   W12
 BYTE   PEND 
Label_01010E01:
 BYTE   N32  Fs2  v052
 BYTE   N44  Cs3
 BYTE   N44  Fs3
 BYTE   N44  An3
 BYTE   W36
 BYTE   N11  Fs2
 BYTE   W12
//  #02 //004   ----------------------------------------
 BYTE   N44  Bn2
 BYTE   N44  En3
 BYTE   W24
 BYTE   N23  An2
 BYTE   W24
 BYTE   PEND 
Label_01010E17:
 BYTE   N32  Dn2  v052
 BYTE   N44  Fs2
 BYTE   N44  An2
 BYTE   N44  Dn3
 BYTE   W36
 BYTE   N11  Dn2
 BYTE   W12
//  #02 //005   ----------------------------------------
 BYTE   N32  En2
 BYTE   N44  Gs2
 BYTE   N44  Bn2
 BYTE   N44  En3
 BYTE   W36
 BYTE   N11  En2
 BYTE   W12
 BYTE   PEND 
Label_01010E31:
 BYTE   N32  Fs2  v052
 BYTE   N44  Cs3
 BYTE   N44  Fs3
 BYTE   N44  An3
 BYTE   W36
 BYTE   N11  Fs2
 BYTE   W12
//  #02 //006   ----------------------------------------
 BYTE   En2
 BYTE   N44  Gs2
 BYTE   N44  Bn2
 BYTE   N44  En3
 BYTE   W12
 BYTE   N11  Fs2
 BYTE   W12
 BYTE   N23  En2
 BYTE   W24
 BYTE   PEND 
Label_01010E4D:
 BYTE   N44  Dn2  v052
 BYTE   N44  Fs2
 BYTE   N44  An2
 BYTE   N44  Dn3
 BYTE   W48
//  #02 //007   ----------------------------------------
 BYTE   En2
 BYTE   N44  Gs2
 BYTE   N44  Cn3
 BYTE   N44  En3
 BYTE   W48
 BYTE   PEND 
Label_01010E60:
 BYTE   N11  Fs2  v052
 BYTE   N11  Cs3
 BYTE   N11  Fs3
 BYTE   N11  An3
 BYTE   W96
 BYTE   PEND 
//  #02 //008   ----------------------------------------
Label_01010E6B:
 BYTE   N44  Dn2  v052
 BYTE   N44  Dn3
 BYTE   W36
 BYTE   N11  Fs2
 BYTE   W12
 BYTE   N44  En2
 BYTE   N44  En3
 BYTE   W24
 BYTE   N23  An2
 BYTE   W24
 BYTE   PEND 
//  #02 //009   ----------------------------------------
Label_01010E7D:
 BYTE   N32  Fs2  v052
 BYTE   N44  An2
 BYTE   N44  Cs3
 BYTE   N44  An3
 BYTE   W36
 BYTE   N11  Fs2
 BYTE   W12
 BYTE   N23  En2
 BYTE   N44  Gs2
 BYTE   N44  Bn2
 BYTE   N44  Gs3
 BYTE   W24
 BYTE   N23  En2
 BYTE   W24
 BYTE   PEND 
//  #02 //010   ----------------------------------------
Label_01010E97:
 BYTE   N32  Dn2  v052
 BYTE   N44  Fs2
 BYTE   N44  An2
 BYTE   N44  Fs3
 BYTE   W36
 BYTE   N11  Dn2
 BYTE   W12
 BYTE   N32  En2
 BYTE   N44  Gs2
 BYTE   N44  Cn3
 BYTE   N44  Gs3
 BYTE   W36
 BYTE   N11  En2
 BYTE   W12
 BYTE   PEND 
//  #02 //011   ----------------------------------------
Label_01010EB1:
 BYTE   N32  Fs2  v052
 BYTE   N44  An2
 BYTE   N44  Cs3
 BYTE   N44  An3
 BYTE   W36
 BYTE   N11  Fs2
 BYTE   W12
 BYTE   N23  Gs2
 BYTE   N44  Cs3
 BYTE   N44  En3
 BYTE   N44  Cs4
 BYTE   W24
 BYTE   N23  An2
 BYTE   W24
 BYTE   PEND 
//  #02 //012   ----------------------------------------
 BYTE   PATT
  POIN2 Label_01010E17
//  #02 //013   ----------------------------------------
 BYTE   PATT
  POIN2 Label_01010DD7
//  #02 //014   ----------------------------------------
 BYTE   PATT
  POIN2 Label_01010DEA
//  #02 //015   ----------------------------------------
 BYTE   PATT
  POIN2 Label_01010E01
//  #02 //016   ----------------------------------------
 BYTE   PATT
  POIN2 Label_01010E17
//  #02 //017   ----------------------------------------
 BYTE   PATT
  POIN2 Label_01010E31
//  #02 //018   ----------------------------------------
 BYTE   PATT
  POIN2 Label_01010E4D
//  #02 //019   ----------------------------------------
 BYTE   PATT
  POIN2 Label_01010E60
//  #02 //020   ----------------------------------------
 BYTE   PATT
  POIN2 Label_01010E6B
//  #02 //021   ----------------------------------------
 BYTE   PATT
  POIN2 Label_01010E7D
//  #02 //022   ----------------------------------------
 BYTE   PATT
  POIN2 Label_01010E97
//  #02 //023   ----------------------------------------
 BYTE   PATT
  POIN2 Label_01010EB1
//  #02 //024   ----------------------------------------
 BYTE   PATT
  POIN2 Label_01010E17
//  #02 //025   ----------------------------------------
 BYTE   GoTo
  POIN2 Label_01010DD7
//  #02 //026   ----------------------------------------
 BYTE   N92  Fs1  v052
 BYTE   N92  Fs2
 BYTE   N92  Cs3
 BYTE   N92  Fs3
 BYTE   N92  An3
 BYTE   W92
 BYTE   W03
 BYTE   FINE

//**************** Track 3 (Midi-Chn.2) ****************//

NeonMixtape_003:
//  #03 //000   ----------------------------------------
 BYTE   KEYSH   NeonMixtape_key+0
 BYTE   VOICE   45
 BYTE   VOL   50*NeonMixtape_mvl/mxv
 BYTE   PAN   c_v+0
 BYTE   W48
 BYTE   W96
//  #03 //001   ----------------------------------------
Label_56D0DA:
 BYTE   W96
//  #03 //002   ----------------------------------------
Label_56D0DB:
 BYTE   W48
 BYTE   N23  Cn3  v080
 BYTE   N23  Cn4
 BYTE   W24
 BYTE   N11  Cs3
 BYTE   N11  Cs4
 BYTE   W12
 BYTE   An2
 BYTE   N11  An3
 BYTE   W12
 BYTE   PEND 
//  #03 //003   ----------------------------------------
 BYTE   W96
//  #03 //004   ----------------------------------------
 BYTE   W96
//  #03 //005   ----------------------------------------
 BYTE   W96
//  #03 //006   ----------------------------------------
Label_56D0EF:
 BYTE   W48
 BYTE   N23  Cn3  v080
 BYTE   N23  Cn4
 BYTE   W24
 BYTE   N11  Cs3
 BYTE   N11  Cs4
 BYTE   W12
 BYTE   An2
 BYTE   N11  An3
 BYTE   W12
 BYTE   PEND 
//  #03 //007   ----------------------------------------
 BYTE   W96
//  #03 //008   ----------------------------------------
 BYTE   W96
//  #03 //009   ----------------------------------------
 BYTE   W96
//  #03 //010   ----------------------------------------
Label_56D103:
 BYTE   W48
 BYTE   N32  Cn3  v080
 BYTE   N32  Cn4
 BYTE   W36
 BYTE   N11  Cs3
 BYTE   N11  Cs4
 BYTE   W12
 BYTE   PEND 
//  #03 //011   ----------------------------------------
 BYTE   W96
//  #03 //012   ----------------------------------------
 BYTE   W96
//  #03 //013   ----------------------------------------
 BYTE   W96
//  #03 //014   ----------------------------------------
 BYTE   PATT
  POIN2 Label_56D0DB
//  #03 //015   ----------------------------------------
 BYTE   W96
//  #03 //016   ----------------------------------------
 BYTE   W96
//  #03 //017   ----------------------------------------
 BYTE   W96
//  #03 //018   ----------------------------------------
 BYTE   PATT
  POIN2 Label_56D0EF
//  #03 //019   ----------------------------------------
 BYTE   W96
//  #03 //020   ----------------------------------------
 BYTE   W96
//  #03 //021   ----------------------------------------
 BYTE   W96
//  #03 //022   ----------------------------------------
 BYTE   PATT
  POIN2 Label_56D103
//  #03 //023   ----------------------------------------
 BYTE   W96
//  #03 //024   ----------------------------------------
 BYTE   W96
//  #03 //025   ----------------------------------------
 BYTE   GoTo
  POIN2 Label_56D0DA
//  #03 //026   ----------------------------------------
 BYTE   W92
 BYTE   W03
 BYTE   FINE

//**************** Track 4 (Midi-Chn.3) ****************//

NeonMixtape_004:
//  #04 //000   ----------------------------------------
 BYTE   KEYSH   NeonMixtape_key+0
 BYTE   VOICE   33
 BYTE   VOL   50*NeonMixtape_mvl/mxv
 BYTE   PAN   c_v+0
 BYTE   W48
Label_01010F29:
 BYTE   N44  Dn1  v080
 BYTE   W48
//  #04 //001   ----------------------------------------
 BYTE   En1
 BYTE   W48
 BYTE   PEND 
Label_01010F30:
 BYTE   N44  Fs1  v080
 BYTE   W48
//  #04 //002   ----------------------------------------
 BYTE   En1
 BYTE   W48
 BYTE   PEND 
Label_01010F37:
 BYTE   N44  En1  v080
 BYTE   W48
//  #04 //003   ----------------------------------------
 BYTE   N32
 BYTE   W36
 BYTE   N11
 BYTE   W12
 BYTE   PEND 
Label_01010F40:
 BYTE   N32  Fs1  v080
 BYTE   W36
 BYTE   N11
 BYTE   W12
//  #04 //004   ----------------------------------------
 BYTE   N23  Gs1
 BYTE   W24
 BYTE   An1
 BYTE   W24
 BYTE   PEND 
Label_01010F4C:
 BYTE   N32  Dn1  v080
 BYTE   W36
 BYTE   N11
 BYTE   W12
//  #04 //005   ----------------------------------------
 BYTE   N32  En1
 BYTE   W36
 BYTE   N11
 BYTE   W12
 BYTE   PEND 
Label_01010F58:
 BYTE   N32  Fs1  v080
 BYTE   W36
 BYTE   N11
 BYTE   W12
//  #04 //006   ----------------------------------------
 BYTE   En1
 BYTE   W12
 BYTE   Fs1
 BYTE   W12
 BYTE   N23  En1
 BYTE   W24
 BYTE   PEND 
//  #04 //007   ----------------------------------------
 BYTE   PATT
  POIN2 Label_01010F29
//  #04 //008   ----------------------------------------
 BYTE   N11  Fs1  v080
 BYTE   W96
//  #04 //009   ----------------------------------------
 BYTE   PATT
  POIN2 Label_01010F40
//  #04 //010   ----------------------------------------
Label_01010F74:
 BYTE   N32  Fs1  v080
 BYTE   W36
 BYTE   N11
 BYTE   W12
 BYTE   N23  En1
 BYTE   W24
 BYTE   N23
 BYTE   W24
 BYTE   PEND 
//  #04 //011   ----------------------------------------
 BYTE   PATT
  POIN2 Label_01010F4C
//  #04 //012   ----------------------------------------
 BYTE   PATT
  POIN2 Label_01010F40
//  #04 //013   ----------------------------------------
 BYTE   PATT
  POIN2 Label_01010F4C
//  #04 //014   ----------------------------------------
 BYTE   PATT
  POIN2 Label_01010F30
//  #04 //015   ----------------------------------------
 BYTE   PATT
  POIN2 Label_01010F37
//  #04 //016   ----------------------------------------
 BYTE   PATT
  POIN2 Label_01010F40
//  #04 //017   ----------------------------------------
 BYTE   PATT
  POIN2 Label_01010F4C
//  #04 //018   ----------------------------------------
 BYTE   PATT
  POIN2 Label_01010F58
//  #04 //019   ----------------------------------------
 BYTE   PATT
  POIN2 Label_01010F29
//  #04 //020   ----------------------------------------
 BYTE   N11  Fs1  v080
 BYTE   W96
//  #04 //021   ----------------------------------------
 BYTE   PATT
  POIN2 Label_01010F40
//  #04 //022   ----------------------------------------
 BYTE   PATT
  POIN2 Label_01010F74
//  #04 //023   ----------------------------------------
 BYTE   PATT
  POIN2 Label_01010F4C
//  #04 //024   ----------------------------------------
 BYTE   PATT
  POIN2 Label_01010F40
//  #04 //025   ----------------------------------------
 BYTE   PATT
  POIN2 Label_01010F4C
//  #04 //026   ----------------------------------------
 BYTE   GoTo
  POIN2 Label_01010F30
//  #04 //027   ----------------------------------------
 BYTE   N92  Fs0  v080
 BYTE   N92  Fs1
 BYTE   W92
 BYTE   W03
 BYTE   FINE

//**************** Track 5 (Midi-Chn.4) ****************//

NeonMixtape_005:
//  #05 //000   ----------------------------------------
 BYTE   KEYSH   NeonMixtape_key+0
 BYTE   VOICE   80
 BYTE   VOL   50*NeonMixtape_mvl/mxv
 BYTE   PAN   c_v+0
 BYTE   N11  Cn3  v016
 BYTE   W12
 BYTE   Cs3
 BYTE   W36
 BYTE   W96
//  #05 //001   ----------------------------------------
Label_56D5A7:
 BYTE   W96
//  #05 //002   ----------------------------------------
 BYTE   W48
 BYTE   N11  Cn4  v016
 BYTE   W12
 BYTE   Cn3
 BYTE   W36
//  #05 //003   ----------------------------------------
 BYTE   W96
//  #05 //004   ----------------------------------------
Label_56D5B0:
 BYTE   N11  En4  v016
 BYTE   W12
 BYTE   N23  An3
 BYTE   W36
 BYTE   N11  En4
 BYTE   W12
 BYTE   N23  An3
 BYTE   W36
 BYTE   PEND 
//  #05 //005   ----------------------------------------
 BYTE   W96
//  #05 //006   ----------------------------------------
 BYTE   W96
//  #05 //007   ----------------------------------------
Label_56D5C0:
 BYTE   N23  Fs3  v016
 BYTE   W48
 BYTE   Fs4
 BYTE   W24
 BYTE   Fs3
 BYTE   W24
 BYTE   PEND 
//  #05 //008   ----------------------------------------
 BYTE   W96
//  #05 //009   ----------------------------------------
 BYTE   W96
//  #05 //010   ----------------------------------------
 BYTE   W96
//  #05 //011   ----------------------------------------
 BYTE   W96
//  #05 //012   ----------------------------------------
 BYTE   W96
//  #05 //013   ----------------------------------------
 BYTE   W96
//  #05 //014   ----------------------------------------
 BYTE   W48
 BYTE   N11  Cn4
 BYTE   W12
 BYTE   Cn3
 BYTE   W36
//  #05 //015   ----------------------------------------
 BYTE   W96
//  #05 //016   ----------------------------------------
 BYTE   PATT
  POIN2 Label_56D5B0
//  #05 //017   ----------------------------------------
 BYTE   W96
//  #05 //018   ----------------------------------------
 BYTE   W96
//  #05 //019   ----------------------------------------
 BYTE   PATT
  POIN2 Label_56D5C0
//  #05 //020   ----------------------------------------
 BYTE   W96
//  #05 //021   ----------------------------------------
 BYTE   W96
//  #05 //022   ----------------------------------------
 BYTE   W96
//  #05 //023   ----------------------------------------
 BYTE   W96
//  #05 //024   ----------------------------------------
 BYTE   W96
//  #05 //025   ----------------------------------------
 BYTE   GoTo
  POIN2 Label_56D5A7
//  #05 //026   ----------------------------------------
 BYTE   N92  Fs3  v016
 BYTE   W92
 BYTE   W03
 BYTE   FINE

//**************** Track 6 (Midi-Chn.5) ****************//

NeonMixtape_006:
//  #06 //000   ----------------------------------------
 BYTE   KEYSH   NeonMixtape_key+0
 BYTE   VOICE   121
 BYTE   VOL   50*NeonMixtape_mvl/mxv
 BYTE   PAN   c_v+0
 BYTE   W48
Label_01010FE1:
 BYTE   N23  Cn1  v080
 BYTE   W24
 BYTE   Fs1
 BYTE   W24
//  #06 //001   ----------------------------------------
 BYTE   Cn1
 BYTE   W24
 BYTE   Cs1
 BYTE   N23  Ds2
 BYTE   W24
 BYTE   PEND 
Label_01010FEE:
 BYTE   N23  Cn1  v080
 BYTE   W24
 BYTE   Fs1
 BYTE   W24
//  #06 //002   ----------------------------------------
 BYTE   Cn1
 BYTE   W24
 BYTE   Cs1
 BYTE   W24
 BYTE   PEND 
//  #06 //003   ----------------------------------------
 BYTE   PATT
  POIN2 Label_01010FE1
//  #06 //004   ----------------------------------------
Label_01010FFE:
 BYTE   N23  Cn1  v080
 BYTE   W24
 BYTE   Fs1
 BYTE   W24
 BYTE   Cn1
 BYTE   W24
 BYTE   Cs1
 BYTE   W24
 BYTE   PEND 
//  #06 //005   ----------------------------------------
 BYTE   PATT
  POIN2 Label_01010FE1
//  #06 //006   ----------------------------------------
 BYTE   PATT
  POIN2 Label_01010FEE
//  #06 //007   ----------------------------------------
 BYTE   PATT
  POIN2 Label_01010FE1
//  #06 //008   ----------------------------------------
Label_01011018:
 BYTE   N23  As1  v080
 BYTE   N23  Ds2
 BYTE   W48
 BYTE   Cn1
 BYTE   W24
 BYTE   Cs1
 BYTE   W24
 BYTE   PEND 
//  #06 //009   ----------------------------------------
 BYTE   PATT
  POIN2 Label_01010FE1
//  #06 //010   ----------------------------------------
 BYTE   PATT
  POIN2 Label_01010FEE
//  #06 //011   ----------------------------------------
 BYTE   PATT
  POIN2 Label_01010FE1
//  #06 //012   ----------------------------------------
 BYTE   PATT
  POIN2 Label_01010FE1
//  #06 //013   ----------------------------------------
Label_01011037:
 BYTE   N23  Cn1  v080
 BYTE   W24
 BYTE   Fs1  v064
 BYTE   W24
 BYTE   Cn1  v048
 BYTE   W24
 BYTE   N03  Dn1  v032
 BYTE   W04
 BYTE   Dn1  v028
 BYTE   W04
 BYTE   N03
 BYTE   W04
 BYTE   Dn1  v024
 BYTE   W04
 BYTE   Dn1  v020
 BYTE   W04
 BYTE   Dn1  v016
 BYTE   W04
 BYTE   PEND 
//  #06 //014   ----------------------------------------
 BYTE   PATT
  POIN2 Label_01010FEE
//  #06 //015   ----------------------------------------
 BYTE   PATT
  POIN2 Label_01010FE1
//  #06 //016   ----------------------------------------
 BYTE   PATT
  POIN2 Label_01010FFE
//  #06 //017   ----------------------------------------
 BYTE   PATT
  POIN2 Label_01010FE1
//  #06 //018   ----------------------------------------
 BYTE   PATT
  POIN2 Label_01010FEE
//  #06 //019   ----------------------------------------
 BYTE   PATT
  POIN2 Label_01010FE1
//  #06 //020   ----------------------------------------
 BYTE   PATT
  POIN2 Label_01011018
//  #06 //021   ----------------------------------------
 BYTE   PATT
  POIN2 Label_01010FE1
//  #06 //022   ----------------------------------------
 BYTE   PATT
  POIN2 Label_01010FEE
//  #06 //023   ----------------------------------------
 BYTE   PATT
  POIN2 Label_01010FE1
//  #06 //024   ----------------------------------------
 BYTE   PATT
  POIN2 Label_01010FE1
//  #06 //025   ----------------------------------------
 BYTE   PATT
  POIN2 Label_01011037
//  #06 //026   ----------------------------------------
 BYTE   GoTo
  POIN2 Label_01010FEE
//  #06 //027   ----------------------------------------
 BYTE   N92  As1  v096
 BYTE   W92
 BYTE   W03
 BYTE   FINE

//******************************************************//
	ALIGN 4

NeonMixtape:
	BYTE	6	// NumTrks
	BYTE	0	// NumBlks
	BYTE	NeonMixtape_pri	// Priority
	BYTE	NeonMixtape_rev	// Reverb.
    
	POIN2	NeonMixtape_grp
    
	POIN2	NeonMixtape_001
	POIN2	NeonMixtape_002
	POIN2	NeonMixtape_003
	POIN2	NeonMixtape_004
	POIN2	NeonMixtape_005
	POIN2	NeonMixtape_006

	
