//Event file generated from Sappy .s format.
	#include "MPlayDef.event"

	#define	NormalBattle_grp  voicegroup000
	#define	NormalBattle_pri  0
	#define	NormalBattle_rev  101
	#define	NormalBattle_mvl  127
	#define	NormalBattle_key  0
	#define	NormalBattle_tbs  1
	#define	NormalBattle_exg  0
	#define	NormalBattle_cmp  1

	// .rodata
	//	NormalBattle
	ALIGN 4


//**************** Track 1 (Midi-Chn.0) ****************//

NormalBattle_001:
//  #01 //000   ----------------------------------------
 BYTE   VOL   48*NormalBattle_mvl/mxv
 BYTE   KEYSH   NormalBattle_key+0
Label_01727768:
 BYTE   TEMPO   160*NormalBattle_tbs/2
 BYTE   VOICE   100
 BYTE   N12  Dn3  v100
 BYTE   W12
 BYTE   En3
 BYTE   W12
 BYTE   N12
 BYTE   W12
 BYTE   Dn3
 BYTE   W12
 BYTE   En3
 BYTE   W12
 BYTE   N12
 BYTE   W12
 BYTE   Dn3
 BYTE   W12
 BYTE   En3
 BYTE   W12
//  #01 //001   ----------------------------------------
Label_0172777E:
 BYTE   N12  En3  v100
 BYTE   W12
 BYTE   Dn3
 BYTE   W12
 BYTE   En3
 BYTE   W12
 BYTE   N12
 BYTE   W12
 BYTE   Dn3
 BYTE   W12
 BYTE   En3
 BYTE   W12
 BYTE   Gn3
 BYTE   W12
 BYTE   An3
 BYTE   W12
 BYTE   PEND 
//  #01 //002   ----------------------------------------
Label_01727791:
 BYTE   N12  Dn3  v100
 BYTE   W12
 BYTE   En3
 BYTE   W12
 BYTE   N12
 BYTE   W12
 BYTE   Dn3
 BYTE   W12
 BYTE   En3
 BYTE   W12
 BYTE   N12
 BYTE   W12
 BYTE   Dn3
 BYTE   W12
 BYTE   En3
 BYTE   W12
 BYTE   PEND 
//  #01 //003   ----------------------------------------
Label_017277A4:
 BYTE   N12  En3  v100
 BYTE   W12
 BYTE   Dn3
 BYTE   W12
 BYTE   Gn3
 BYTE   W12
 BYTE   Bn3
 BYTE   W12
 BYTE   Gn3
 BYTE   W12
 BYTE   En3
 BYTE   W12
 BYTE   Dn3
 BYTE   W12
 BYTE   Bn2
 BYTE   W12
 BYTE   PEND 
//  #01 //004   ----------------------------------------
 BYTE   PATT
  POIN2 Label_01727791
//  #01 //005   ----------------------------------------
 BYTE   PATT
  POIN2 Label_0172777E
//  #01 //006   ----------------------------------------
 BYTE   PATT
  POIN2 Label_01727791
//  #01 //007   ----------------------------------------
 BYTE   PATT
  POIN2 Label_017277A4
//  #01 //008   ----------------------------------------
 BYTE   PATT
  POIN2 Label_01727791
//  #01 //009   ----------------------------------------
 BYTE   PATT
  POIN2 Label_0172777E
//  #01 //010   ----------------------------------------
 BYTE   PATT
  POIN2 Label_01727791
//  #01 //011   ----------------------------------------
 BYTE   PATT
  POIN2 Label_017277A4
//  #01 //012   ----------------------------------------
 BYTE   PATT
  POIN2 Label_01727791
//  #01 //013   ----------------------------------------
 BYTE   PATT
  POIN2 Label_0172777E
//  #01 //014   ----------------------------------------
 BYTE   PATT
  POIN2 Label_01727791
//  #01 //015   ----------------------------------------
 BYTE   PATT
  POIN2 Label_017277A4
//  #01 //016   ----------------------------------------
 BYTE   PATT
  POIN2 Label_01727791
//  #01 //017   ----------------------------------------
 BYTE   PATT
  POIN2 Label_0172777E
//  #01 //018   ----------------------------------------
 BYTE   PATT
  POIN2 Label_01727791
//  #01 //019   ----------------------------------------
 BYTE   PATT
  POIN2 Label_017277A4
//  #01 //020   ----------------------------------------
 BYTE   PATT
  POIN2 Label_01727791
//  #01 //021   ----------------------------------------
 BYTE   PATT
  POIN2 Label_0172777E
//  #01 //022   ----------------------------------------
 BYTE   PATT
  POIN2 Label_01727791
//  #01 //023   ----------------------------------------
 BYTE   PATT
  POIN2 Label_017277A4
//  #01 //024   ----------------------------------------
 BYTE   PATT
  POIN2 Label_01727791
//  #01 //025   ----------------------------------------
 BYTE   PATT
  POIN2 Label_0172777E
//  #01 //026   ----------------------------------------
 BYTE   PATT
  POIN2 Label_01727791
//  #01 //027   ----------------------------------------
 BYTE   PATT
  POIN2 Label_017277A4
//  #01 //028   ----------------------------------------
 BYTE   PATT
  POIN2 Label_01727791
//  #01 //029   ----------------------------------------
 BYTE   PATT
  POIN2 Label_0172777E
//  #01 //030   ----------------------------------------
 BYTE   PATT
  POIN2 Label_01727791
//  #01 //031   ----------------------------------------
 BYTE   PATT
  POIN2 Label_017277A4
//  #01 //032   ----------------------------------------
Label_01727843:
 BYTE   N06  En3  v100
 BYTE   W06
 BYTE   Dn3
 BYTE   W06
 BYTE   N12  Bn2
 BYTE   W12
 BYTE   N12
 BYTE   W12
 BYTE   N06  En3
 BYTE   W06
 BYTE   Dn3
 BYTE   W06
 BYTE   N12  Bn2
 BYTE   W12
 BYTE   N12
 BYTE   W12
 BYTE   N06  En3
 BYTE   W06
 BYTE   Dn3
 BYTE   W06
 BYTE   N12  Bn2
 BYTE   W12
 BYTE   PEND 
//  #01 //033   ----------------------------------------
Label_01727861:
 BYTE   N12  Bn2  v100
 BYTE   W12
 BYTE   N06  En3
 BYTE   W06
 BYTE   Dn3
 BYTE   W06
 BYTE   N12  Bn2
 BYTE   W12
 BYTE   N12
 BYTE   W12
 BYTE   N06  En3
 BYTE   W06
 BYTE   Dn3
 BYTE   W06
 BYTE   N12  Bn2
 BYTE   W12
 BYTE   N12
 BYTE   W12
 BYTE   N06  En3
 BYTE   W06
 BYTE   Dn3
 BYTE   W06
 BYTE   PEND 
//  #01 //034   ----------------------------------------
Label_0172787F:
 BYTE   N12  Bn2  v100
 BYTE   W12
 BYTE   N12
 BYTE   W12
 BYTE   N06  En3
 BYTE   W06
 BYTE   Dn3
 BYTE   W06
 BYTE   N12  Bn2
 BYTE   W12
 BYTE   N12
 BYTE   W12
 BYTE   N06  En3
 BYTE   W06
 BYTE   Dn3
 BYTE   W06
 BYTE   N12  Bn2
 BYTE   W12
 BYTE   N12
 BYTE   W12
 BYTE   PEND 
//  #01 //035   ----------------------------------------
 BYTE   PATT
  POIN2 Label_01727843
//  #01 //036   ----------------------------------------
 BYTE   PATT
  POIN2 Label_01727861
//  #01 //037   ----------------------------------------
 BYTE   PATT
  POIN2 Label_0172787F
//  #01 //038   ----------------------------------------
 BYTE   PATT
  POIN2 Label_01727843
//  #01 //039   ----------------------------------------
 BYTE   PATT
  POIN2 Label_01727861
//  #01 //040   ----------------------------------------
 BYTE   PATT
  POIN2 Label_0172787F
//  #01 //041   ----------------------------------------
 BYTE   PATT
  POIN2 Label_01727843
//  #01 //042   ----------------------------------------
 BYTE   PATT
  POIN2 Label_01727861
//  #01 //043   ----------------------------------------
 BYTE   PATT
  POIN2 Label_0172787F
//  #01 //044   ----------------------------------------
 BYTE   PATT
  POIN2 Label_01727843
//  #01 //045   ----------------------------------------
 BYTE   PATT
  POIN2 Label_01727791
//  #01 //046   ----------------------------------------
 BYTE   PATT
  POIN2 Label_0172777E
//  #01 //047   ----------------------------------------
 BYTE   PATT
  POIN2 Label_01727791
//  #01 //048   ----------------------------------------
 BYTE   PATT
  POIN2 Label_017277A4
//  #01 //049   ----------------------------------------
 BYTE   PATT
  POIN2 Label_01727791
//  #01 //050   ----------------------------------------
 BYTE   PATT
  POIN2 Label_0172777E
//  #01 //051   ----------------------------------------
 BYTE   PATT
  POIN2 Label_01727791
//  #01 //052   ----------------------------------------
 BYTE   PATT
  POIN2 Label_017277A4
//  #01 //053   ----------------------------------------
 BYTE   PATT
  POIN2 Label_01727791
//  #01 //054   ----------------------------------------
 BYTE   PATT
  POIN2 Label_0172777E
//  #01 //055   ----------------------------------------
 BYTE   PATT
  POIN2 Label_01727791
//  #01 //056   ----------------------------------------
 BYTE   PATT
  POIN2 Label_017277A4
//  #01 //057   ----------------------------------------
 BYTE   PATT
  POIN2 Label_01727791
//  #01 //058   ----------------------------------------
 BYTE   PATT
  POIN2 Label_0172777E
//  #01 //059   ----------------------------------------
 BYTE   PATT
  POIN2 Label_01727791
//  #01 //060   ----------------------------------------
 BYTE   PATT
  POIN2 Label_017277A4
//  #01 //061   ----------------------------------------
 BYTE   GoTo
  POIN2 Label_01727768
 BYTE   FINE

//**************** Track 2 (Midi-Chn.1) ****************//

NormalBattle_002:
//  #02 //000   ----------------------------------------
 BYTE   VOL   48*NormalBattle_mvl/mxv
 BYTE   KEYSH   NormalBattle_key+0
Label_017285D8:
 BYTE   VOICE   48
 BYTE   W96
//  #02 //001   ----------------------------------------
 BYTE   W96
//  #02 //002   ----------------------------------------
 BYTE   W96
//  #02 //003   ----------------------------------------
 BYTE   W96
//  #02 //004   ----------------------------------------
 BYTE   W96
//  #02 //005   ----------------------------------------
 BYTE   W96
//  #02 //006   ----------------------------------------
 BYTE   W96
//  #02 //007   ----------------------------------------
Label_017285E1:
 BYTE   N48  Gn2  v100
 BYTE   N48  Cn3
 BYTE   W48
 BYTE   An2
 BYTE   N48  Dn3
 BYTE   W48
 BYTE   PEND 
//  #02 //008   ----------------------------------------
 BYTE   W96
//  #02 //009   ----------------------------------------
 BYTE   W96
//  #02 //010   ----------------------------------------
 BYTE   W96
//  #02 //011   ----------------------------------------
 BYTE   W96
//  #02 //012   ----------------------------------------
 BYTE   W96
//  #02 //013   ----------------------------------------
 BYTE   W96
//  #02 //014   ----------------------------------------
 BYTE   W96
//  #02 //015   ----------------------------------------
 BYTE   PATT
  POIN2 Label_017285E1
//  #02 //016   ----------------------------------------
 BYTE   W96
//  #02 //017   ----------------------------------------
 BYTE   W96
//  #02 //018   ----------------------------------------
 BYTE   W96
//  #02 //019   ----------------------------------------
 BYTE   W96
//  #02 //020   ----------------------------------------
 BYTE   W96
//  #02 //021   ----------------------------------------
 BYTE   W96
//  #02 //022   ----------------------------------------
 BYTE   W96
//  #02 //023   ----------------------------------------
 BYTE   PATT
  POIN2 Label_017285E1
//  #02 //024   ----------------------------------------
 BYTE   W48
 BYTE   N48  En2  v100
 BYTE   W48
//  #02 //025   ----------------------------------------
 BYTE   W96
//  #02 //026   ----------------------------------------
 BYTE   W48
 BYTE   N24  Gn2
 BYTE   W24
 BYTE   Bn2
 BYTE   W24
//  #02 //027   ----------------------------------------
 BYTE   N48  An2
 BYTE   W96
//  #02 //028   ----------------------------------------
 BYTE   W48
 BYTE   En2
 BYTE   W48
//  #02 //029   ----------------------------------------
 BYTE   W96
//  #02 //030   ----------------------------------------
 BYTE   W48
 BYTE   N18  Gn2
 BYTE   W18
 BYTE   An2
 BYTE   W18
 BYTE   N12  Bn2
 BYTE   W12
//  #02 //031   ----------------------------------------
 BYTE   N48  Gn2
 BYTE   N48  Bn2
 BYTE   N48  En3
 BYTE   W48
 BYTE   Bn2
 BYTE   N48  Dn3
 BYTE   N48  Gn3
 BYTE   W48
//  #02 //032   ----------------------------------------
Label_0172862D:
 BYTE   N72  Bn2  v100
 BYTE   N72  En3
 BYTE   W72
 BYTE   Dn3
 BYTE   N72  Gn3
 BYTE   W24
 BYTE   PEND 
//  #02 //033   ----------------------------------------
 BYTE   W48
 BYTE   En3
 BYTE   N72  An3
 BYTE   W48
//  #02 //034   ----------------------------------------
 BYTE   W24
 BYTE   N48  Gn3
 BYTE   N48  Cn4
 BYTE   W48
 BYTE   N24  Gn3
 BYTE   N24  Bn3
 BYTE   W24
//  #02 //035   ----------------------------------------
 BYTE   PATT
  POIN2 Label_0172862D
//  #02 //036   ----------------------------------------
 BYTE   W48
 BYTE   N72  En3  v100
 BYTE   N72  An3
 BYTE   W48
//  #02 //037   ----------------------------------------
 BYTE   W24
 BYTE   N48  Gn3
 BYTE   N48  Cn4
 BYTE   W48
 BYTE   N24  An3
 BYTE   N24  Dn4
 BYTE   W24
//  #02 //038   ----------------------------------------
 BYTE   PATT
  POIN2 Label_0172862D
//  #02 //039   ----------------------------------------
 BYTE   W48
 BYTE   N72  En3  v100
 BYTE   N72  An3
 BYTE   W48
//  #02 //040   ----------------------------------------
 BYTE   W24
 BYTE   N48  Gn3
 BYTE   N48  Cn4
 BYTE   W48
 BYTE   N24  Bn3
 BYTE   W24
//  #02 //041   ----------------------------------------
 BYTE   PATT
  POIN2 Label_0172862D
//  #02 //042   ----------------------------------------
 BYTE   W48
 BYTE   N72  En3  v100
 BYTE   N72  An3
 BYTE   W48
//  #02 //043   ----------------------------------------
 BYTE   W24
 BYTE   Gn3
 BYTE   N72  Cn4
 BYTE   W72
//  #02 //044   ----------------------------------------
 BYTE   N96  An3
 BYTE   N96  Dn4
 BYTE   W96
//  #02 //045   ----------------------------------------
 BYTE   W96
//  #02 //046   ----------------------------------------
 BYTE   W96
//  #02 //047   ----------------------------------------
 BYTE   W96
//  #02 //048   ----------------------------------------
 BYTE   W96
//  #02 //049   ----------------------------------------
 BYTE   W96
//  #02 //050   ----------------------------------------
 BYTE   W96
//  #02 //051   ----------------------------------------
 BYTE   W96
//  #02 //052   ----------------------------------------
 BYTE   W96
//  #02 //053   ----------------------------------------
 BYTE   W96
//  #02 //054   ----------------------------------------
 BYTE   W96
//  #02 //055   ----------------------------------------
 BYTE   W96
//  #02 //056   ----------------------------------------
 BYTE   W96
//  #02 //057   ----------------------------------------
 BYTE   W96
//  #02 //058   ----------------------------------------
 BYTE   W96
//  #02 //059   ----------------------------------------
 BYTE   W96
//  #02 //060   ----------------------------------------
 BYTE   W96
//  #02 //061   ----------------------------------------
 BYTE   GoTo
  POIN2 Label_017285D8
 BYTE   FINE

//**************** Track 3 (Midi-Chn.2) ****************//

NormalBattle_003:
//  #03 //000   ----------------------------------------
 BYTE   VOL   48*NormalBattle_mvl/mxv
 BYTE   KEYSH   NormalBattle_key+0
Label_017275E8:
 BYTE   VOICE   51
 BYTE   W96
//  #03 //001   ----------------------------------------
 BYTE   W96
//  #03 //002   ----------------------------------------
 BYTE   W96
//  #03 //003   ----------------------------------------
 BYTE   W96
//  #03 //004   ----------------------------------------
 BYTE   W96
//  #03 //005   ----------------------------------------
 BYTE   W96
//  #03 //006   ----------------------------------------
 BYTE   W96
//  #03 //007   ----------------------------------------
 BYTE   W48
 BYTE   N06  Fs3  v100
 BYTE   W06
 BYTE   Dn3
 BYTE   W06
 BYTE   An3
 BYTE   W06
 BYTE   Fs3
 BYTE   W06
 BYTE   Dn3
 BYTE   W06
 BYTE   An2
 BYTE   W06
 BYTE   Fs3
 BYTE   W06
 BYTE   Dn3
 BYTE   W06
//  #03 //008   ----------------------------------------
 BYTE   TIE  En3
 BYTE   W96
//  #03 //009   ----------------------------------------
 BYTE   W48
 BYTE   EOT
 BYTE   N24  Gn3
 BYTE   W24
 BYTE   Bn3
 BYTE   W24
//  #03 //010   ----------------------------------------
 BYTE   TIE  An3
 BYTE   W96
//  #03 //011   ----------------------------------------
 BYTE   W48
 BYTE   EOT
 BYTE   N44  Dn3
 BYTE   W44
 BYTE   W01
 BYTE   N03  Ds3
 BYTE   W03
//  #03 //012   ----------------------------------------
 BYTE   TIE  En3
 BYTE   W96
//  #03 //013   ----------------------------------------
 BYTE   W48
 BYTE   EOT
 BYTE   N18  Gn3
 BYTE   W18
 BYTE   An3
 BYTE   W18
 BYTE   N12  Bn3
 BYTE   W12
//  #03 //014   ----------------------------------------
Label_01727627:
 BYTE   N36  En4  v100
 BYTE   W36
 BYTE   N06  An3
 BYTE   W06
 BYTE   Bn3
 BYTE   W06
 BYTE   N48  An3
 BYTE   W48
 BYTE   PEND 
//  #03 //015   ----------------------------------------
 BYTE   N18  Cn4
 BYTE   W18
 BYTE   N18
 BYTE   W18
 BYTE   N12
 BYTE   W12
 BYTE   N18
 BYTE   W18
 BYTE   Bn3
 BYTE   W18
 BYTE   N12  An3
 BYTE   W12
//  #03 //016   ----------------------------------------
 BYTE   En3
 BYTE   W96
//  #03 //017   ----------------------------------------
 BYTE   W96
//  #03 //018   ----------------------------------------
 BYTE   W96
//  #03 //019   ----------------------------------------
 BYTE   W96
//  #03 //020   ----------------------------------------
 BYTE   W96
//  #03 //021   ----------------------------------------
 BYTE   W96
//  #03 //022   ----------------------------------------
 BYTE   W96
//  #03 //023   ----------------------------------------
 BYTE   W96
//  #03 //024   ----------------------------------------
 BYTE   TIE
 BYTE   W96
//  #03 //025   ----------------------------------------
 BYTE   W48
 BYTE   EOT
 BYTE   N24  Gn3
 BYTE   W24
 BYTE   Bn3
 BYTE   W24
//  #03 //026   ----------------------------------------
 BYTE   TIE  An3
 BYTE   W96
//  #03 //027   ----------------------------------------
 BYTE   W48
 BYTE   EOT
 BYTE   N44  Dn3
 BYTE   W44
 BYTE   W01
 BYTE   N03  Ds3
 BYTE   W03
//  #03 //028   ----------------------------------------
 BYTE   TIE  En3
 BYTE   W96
//  #03 //029   ----------------------------------------
 BYTE   W48
 BYTE   EOT
 BYTE   N18  Gn3
 BYTE   W18
 BYTE   An3
 BYTE   W18
 BYTE   N12  Bn3
 BYTE   W12
//  #03 //030   ----------------------------------------
 BYTE   PATT
  POIN2 Label_01727627
//  #03 //031   ----------------------------------------
 BYTE   W96
//  #03 //032   ----------------------------------------
 BYTE   W96
//  #03 //033   ----------------------------------------
 BYTE   W96
//  #03 //034   ----------------------------------------
 BYTE   W96
//  #03 //035   ----------------------------------------
 BYTE   W96
//  #03 //036   ----------------------------------------
 BYTE   W96
//  #03 //037   ----------------------------------------
 BYTE   W96
//  #03 //038   ----------------------------------------
 BYTE   W96
//  #03 //039   ----------------------------------------
 BYTE   W96
//  #03 //040   ----------------------------------------
 BYTE   W96
//  #03 //041   ----------------------------------------
 BYTE   W96
//  #03 //042   ----------------------------------------
 BYTE   W96
//  #03 //043   ----------------------------------------
 BYTE   W96
//  #03 //044   ----------------------------------------
 BYTE   W96
//  #03 //045   ----------------------------------------
 BYTE   N96  En4  v100
 BYTE   W96
//  #03 //046   ----------------------------------------
 BYTE   N36  Dn4
 BYTE   W36
 BYTE   Gn3
 BYTE   W36
 BYTE   N24  An3
 BYTE   W24
//  #03 //047   ----------------------------------------
 BYTE   N06  Bn3
 BYTE   W06
 BYTE   Dn4
 BYTE   W06
 BYTE   TIE  Bn3
 BYTE   W84
//  #03 //048   ----------------------------------------
 BYTE   W48
 BYTE   EOT
 BYTE   N24  En3
 BYTE   W24
 BYTE   Gn3
 BYTE   W24
//  #03 //049   ----------------------------------------
 BYTE   N48  Bn3
 BYTE   W48
 BYTE   N24  An3
 BYTE   W24
 BYTE   Gn3
 BYTE   W24
//  #03 //050   ----------------------------------------
 BYTE   N48  An3
 BYTE   W48
 BYTE   N36  Dn4
 BYTE   W36
 BYTE   N06  Bn3
 BYTE   W06
 BYTE   Dn4
 BYTE   W06
//  #03 //051   ----------------------------------------
 BYTE   N96  Bn3
 BYTE   W96
//  #03 //052   ----------------------------------------
 BYTE   An3
 BYTE   W96
//  #03 //053   ----------------------------------------
 BYTE   En4
 BYTE   W96
//  #03 //054   ----------------------------------------
 BYTE   N36  Dn4
 BYTE   W36
 BYTE   Bn3
 BYTE   W36
 BYTE   N24  Dn4
 BYTE   W24
//  #03 //055   ----------------------------------------
 BYTE   N48  An3
 BYTE   W48
 BYTE   Bn3
 BYTE   W48
//  #03 //056   ----------------------------------------
 BYTE   Gn3
 BYTE   W48
 BYTE   An3
 BYTE   W48
//  #03 //057   ----------------------------------------
 BYTE   TIE  En3
 BYTE   W96
//  #03 //058   ----------------------------------------
 BYTE   W48
 BYTE   EOT
 BYTE   N44  Dn3
 BYTE   W44
 BYTE   W01
 BYTE   N03  Ds3
 BYTE   W03
//  #03 //059   ----------------------------------------
 BYTE   TIE  En3
 BYTE   W96
//  #03 //060   ----------------------------------------
 BYTE   W96
//  #03 //061   ----------------------------------------
 BYTE   EOT
 BYTE   GoTo
  POIN2 Label_017275E8
 BYTE   FINE

//**************** Track 4 (Midi-Chn.3) ****************//

NormalBattle_004:
//  #04 //000   ----------------------------------------
 BYTE   VOL   33*NormalBattle_mvl/mxv
 BYTE   KEYSH   NormalBattle_key+0
Label_01726AA8:
 BYTE   VOICE   80
 BYTE   W96
//  #04 //001   ----------------------------------------
 BYTE   W96
//  #04 //002   ----------------------------------------
 BYTE   W96
//  #04 //003   ----------------------------------------
 BYTE   W96
//  #04 //004   ----------------------------------------
 BYTE   W96
//  #04 //005   ----------------------------------------
 BYTE   W96
//  #04 //006   ----------------------------------------
 BYTE   W96
//  #04 //007   ----------------------------------------
 BYTE   W96
//  #04 //008   ----------------------------------------
 BYTE   W96
//  #04 //009   ----------------------------------------
 BYTE   W96
//  #04 //010   ----------------------------------------
 BYTE   W96
//  #04 //011   ----------------------------------------
 BYTE   W96
//  #04 //012   ----------------------------------------
 BYTE   W96
//  #04 //013   ----------------------------------------
 BYTE   W96
//  #04 //014   ----------------------------------------
 BYTE   W96
//  #04 //015   ----------------------------------------
 BYTE   W96
//  #04 //016   ----------------------------------------
Label_01726ABA:
 BYTE   N06  Gn2  v100
 BYTE   W06
 BYTE   An2
 BYTE   W06
 BYTE   Bn2
 BYTE   W06
 BYTE   Dn3
 BYTE   W06
 BYTE   En3
 BYTE   W06
 BYTE   Gn3
 BYTE   W06
 BYTE   An3
 BYTE   W06
 BYTE   Bn3
 BYTE   W06
 BYTE   Dn4
 BYTE   W06
 BYTE   En4
 BYTE   W06
 BYTE   Gn4
 BYTE   W06
 BYTE   An4
 BYTE   W06
 BYTE   Bn4
 BYTE   W06
 BYTE   Dn5
 BYTE   W06
 BYTE   En5
 BYTE   W06
 BYTE   Dn5
 BYTE   W06
 BYTE   PEND 
//  #04 //017   ----------------------------------------
Label_01726ADD:
 BYTE   N06  Bn4  v100
 BYTE   W06
 BYTE   An4
 BYTE   W06
 BYTE   Gn4
 BYTE   W06
 BYTE   En4
 BYTE   W06
 BYTE   Dn4
 BYTE   W06
 BYTE   Bn3
 BYTE   W06
 BYTE   An3
 BYTE   W06
 BYTE   Gn3
 BYTE   W06
 BYTE   En3
 BYTE   W06
 BYTE   Dn3
 BYTE   W06
 BYTE   Bn2
 BYTE   W06
 BYTE   An2
 BYTE   W06
 BYTE   Gn2
 BYTE   W06
 BYTE   An2
 BYTE   W06
 BYTE   Bn2
 BYTE   W06
 BYTE   Dn3
 BYTE   W06
 BYTE   PEND 
//  #04 //018   ----------------------------------------
 BYTE   PATT
  POIN2 Label_01726ABA
//  #04 //019   ----------------------------------------
 BYTE   PATT
  POIN2 Label_01726ADD
//  #04 //020   ----------------------------------------
 BYTE   PATT
  POIN2 Label_01726ABA
//  #04 //021   ----------------------------------------
 BYTE   PATT
  POIN2 Label_01726ADD
//  #04 //022   ----------------------------------------
 BYTE   PATT
  POIN2 Label_01726ABA
//  #04 //023   ----------------------------------------
 BYTE   PATT
  POIN2 Label_01726ADD
//  #04 //024   ----------------------------------------
Label_01726B1E:
 BYTE   N24  En3  v100
 BYTE   W24
 BYTE   N12  En2
 BYTE   W12
 BYTE   N24  En3
 BYTE   W24
 BYTE   N12  En2
 BYTE   W12
 BYTE   N24  En3
 BYTE   W24
 BYTE   PEND 
//  #04 //025   ----------------------------------------
Label_01726B2F:
 BYTE   N12  En2  v100
 BYTE   W12
 BYTE   N24  En3
 BYTE   W24
 BYTE   N12  En2
 BYTE   W12
 BYTE   N24  En3
 BYTE   W24
 BYTE   N24
 BYTE   W24
 BYTE   PEND 
//  #04 //026   ----------------------------------------
 BYTE   PATT
  POIN2 Label_01726B1E
//  #04 //027   ----------------------------------------
 BYTE   PATT
  POIN2 Label_01726B2F
//  #04 //028   ----------------------------------------
 BYTE   PATT
  POIN2 Label_01726B1E
//  #04 //029   ----------------------------------------
 BYTE   PATT
  POIN2 Label_01726B2F
//  #04 //030   ----------------------------------------
 BYTE   PATT
  POIN2 Label_01726B1E
//  #04 //031   ----------------------------------------
 BYTE   PATT
  POIN2 Label_01726B2F
//  #04 //032   ----------------------------------------
Label_01726B5D:
 BYTE   W42
 BYTE   N06  En3  v100
 BYTE   W06
 BYTE   Gn3
 BYTE   W06
 BYTE   An3
 BYTE   W06
 BYTE   Bn3
 BYTE   W06
 BYTE   Dn4
 BYTE   W30
 BYTE   PEND 
//  #04 //033   ----------------------------------------
Label_01726B6B:
 BYTE   W18
 BYTE   N06  En3  v100
 BYTE   W06
 BYTE   Gn3
 BYTE   W06
 BYTE   An3
 BYTE   W06
 BYTE   Bn3
 BYTE   W06
 BYTE   Dn4
 BYTE   W48
 BYTE   En3
 BYTE   W06
 BYTE   PEND 
//  #04 //034   ----------------------------------------
Label_01726B7B:
 BYTE   N06  Gn3  v100
 BYTE   W06
 BYTE   An3
 BYTE   W06
 BYTE   Bn3
 BYTE   W06
 BYTE   Dn4
 BYTE   W48
 BYTE   En3
 BYTE   W06
 BYTE   Gn3
 BYTE   W06
 BYTE   An3
 BYTE   W06
 BYTE   Bn3
 BYTE   W06
 BYTE   Dn4
 BYTE   W06
 BYTE   PEND 
//  #04 //035   ----------------------------------------
 BYTE   PATT
  POIN2 Label_01726B5D
//  #04 //036   ----------------------------------------
 BYTE   PATT
  POIN2 Label_01726B6B
//  #04 //037   ----------------------------------------
 BYTE   PATT
  POIN2 Label_01726B7B
//  #04 //038   ----------------------------------------
Label_01726B9F:
 BYTE   W36
 BYTE   N06  En3  v100
 BYTE   W06
 BYTE   Gn3
 BYTE   W06
 BYTE   An3
 BYTE   W06
 BYTE   Bn3
 BYTE   W06
 BYTE   Dn4
 BYTE   W36
 BYTE   PEND 
//  #04 //039   ----------------------------------------
Label_01726BAD:
 BYTE   W12
 BYTE   N06  En3  v100
 BYTE   W06
 BYTE   Gn3
 BYTE   W06
 BYTE   An3
 BYTE   W06
 BYTE   Bn3
 BYTE   W06
 BYTE   Dn4
 BYTE   W48
 BYTE   En3
 BYTE   W06
 BYTE   Gn3
 BYTE   W06
 BYTE   PEND 
//  #04 //040   ----------------------------------------
Label_01726BBF:
 BYTE   N06  An3  v100
 BYTE   W06
 BYTE   Bn3
 BYTE   W06
 BYTE   Dn4
 BYTE   W48
 BYTE   En3
 BYTE   W06
 BYTE   Gn3
 BYTE   W06
 BYTE   An3
 BYTE   W06
 BYTE   Bn3
 BYTE   W06
 BYTE   Dn4
 BYTE   W12
 BYTE   PEND 
//  #04 //041   ----------------------------------------
 BYTE   PATT
  POIN2 Label_01726B9F
//  #04 //042   ----------------------------------------
 BYTE   PATT
  POIN2 Label_01726BAD
//  #04 //043   ----------------------------------------
 BYTE   PATT
  POIN2 Label_01726BBF
//  #04 //044   ----------------------------------------
 BYTE   PATT
  POIN2 Label_01726B9F
//  #04 //045   ----------------------------------------
 BYTE   W96
//  #04 //046   ----------------------------------------
 BYTE   W96
//  #04 //047   ----------------------------------------
 BYTE   W96
//  #04 //048   ----------------------------------------
 BYTE   W96
//  #04 //049   ----------------------------------------
 BYTE   W96
//  #04 //050   ----------------------------------------
 BYTE   W96
//  #04 //051   ----------------------------------------
 BYTE   W96
//  #04 //052   ----------------------------------------
 BYTE   W96
//  #04 //053   ----------------------------------------
 BYTE   W96
//  #04 //054   ----------------------------------------
 BYTE   W96
//  #04 //055   ----------------------------------------
 BYTE   W96
//  #04 //056   ----------------------------------------
 BYTE   W96
//  #04 //057   ----------------------------------------
 BYTE   W96
//  #04 //058   ----------------------------------------
 BYTE   W96
//  #04 //059   ----------------------------------------
 BYTE   W96
//  #04 //060   ----------------------------------------
 BYTE   W96
//  #04 //061   ----------------------------------------
 BYTE   GoTo
  POIN2 Label_01726AA8
 BYTE   FINE

//**************** Track 5 (Midi-Chn.4) ****************//

NormalBattle_005:
//  #05 //000   ----------------------------------------
 BYTE   VOL   48*NormalBattle_mvl/mxv
 BYTE   KEYSH   NormalBattle_key+0
Label_017271CC:
 BYTE   VOICE   81
 BYTE   N12  Bn2  v100
 BYTE   N12  En3
 BYTE   W24
 BYTE   Bn2
 BYTE   N12  En3
 BYTE   W12
 BYTE   Bn2
 BYTE   N12  En3
 BYTE   W24
 BYTE   Bn2
 BYTE   N12  En3
 BYTE   W24
 BYTE   Dn3
 BYTE   N12  Gn3
 BYTE   W12
//  #05 //001   ----------------------------------------
Label_017271E4:
 BYTE   W12
 BYTE   N12  Dn3  v100
 BYTE   N12  Gn3
 BYTE   W12
 BYTE   Dn3
 BYTE   N12  Gn3
 BYTE   W24
 BYTE   Dn3
 BYTE   N12  Gn3
 BYTE   W24
 BYTE   Dn3
 BYTE   N12  Gn3
 BYTE   W24
 BYTE   PEND 
//  #05 //002   ----------------------------------------
Label_017271F8:
 BYTE   N12  En3  v100
 BYTE   N12  An3
 BYTE   W24
 BYTE   En3
 BYTE   N12  An3
 BYTE   W12
 BYTE   En3
 BYTE   N12  An3
 BYTE   W24
 BYTE   En3
 BYTE   N12  An3
 BYTE   W24
 BYTE   Cn3
 BYTE   N12  En3
 BYTE   W12
 BYTE   PEND 
//  #05 //003   ----------------------------------------
Label_0172720F:
 BYTE   W12
 BYTE   N12  Cn3  v100
 BYTE   N12  En3
 BYTE   W12
 BYTE   Cn3
 BYTE   N12  En3
 BYTE   W24
 BYTE   Dn3
 BYTE   N12  Fs3
 BYTE   W24
 BYTE   Dn3
 BYTE   N12  Fs3
 BYTE   W24
 BYTE   PEND 
//  #05 //004   ----------------------------------------
Label_01727223:
 BYTE   N12  Bn2  v100
 BYTE   N12  En3
 BYTE   W24
 BYTE   Bn2
 BYTE   N12  En3
 BYTE   W12
 BYTE   Bn2
 BYTE   N12  En3
 BYTE   W24
 BYTE   Bn2
 BYTE   N12  En3
 BYTE   W24
 BYTE   Dn3
 BYTE   N12  Gn3
 BYTE   W12
 BYTE   PEND 
//  #05 //005   ----------------------------------------
 BYTE   PATT
  POIN2 Label_017271E4
//  #05 //006   ----------------------------------------
 BYTE   PATT
  POIN2 Label_017271F8
//  #05 //007   ----------------------------------------
 BYTE   PATT
  POIN2 Label_0172720F
//  #05 //008   ----------------------------------------
 BYTE   PATT
  POIN2 Label_01727223
//  #05 //009   ----------------------------------------
 BYTE   PATT
  POIN2 Label_017271E4
//  #05 //010   ----------------------------------------
 BYTE   PATT
  POIN2 Label_017271F8
//  #05 //011   ----------------------------------------
 BYTE   PATT
  POIN2 Label_0172720F
//  #05 //012   ----------------------------------------
 BYTE   PATT
  POIN2 Label_01727223
//  #05 //013   ----------------------------------------
 BYTE   PATT
  POIN2 Label_017271E4
//  #05 //014   ----------------------------------------
 BYTE   PATT
  POIN2 Label_017271F8
//  #05 //015   ----------------------------------------
 BYTE   PATT
  POIN2 Label_0172720F
//  #05 //016   ----------------------------------------
 BYTE   PATT
  POIN2 Label_01727223
//  #05 //017   ----------------------------------------
 BYTE   PATT
  POIN2 Label_017271E4
//  #05 //018   ----------------------------------------
 BYTE   PATT
  POIN2 Label_017271F8
//  #05 //019   ----------------------------------------
 BYTE   PATT
  POIN2 Label_0172720F
//  #05 //020   ----------------------------------------
 BYTE   PATT
  POIN2 Label_01727223
//  #05 //021   ----------------------------------------
 BYTE   PATT
  POIN2 Label_017271E4
//  #05 //022   ----------------------------------------
 BYTE   PATT
  POIN2 Label_017271F8
//  #05 //023   ----------------------------------------
 BYTE   PATT
  POIN2 Label_0172720F
//  #05 //024   ----------------------------------------
 BYTE   W96
//  #05 //025   ----------------------------------------
 BYTE   W96
//  #05 //026   ----------------------------------------
 BYTE   W96
//  #05 //027   ----------------------------------------
 BYTE   W96
//  #05 //028   ----------------------------------------
 BYTE   W96
//  #05 //029   ----------------------------------------
 BYTE   W96
//  #05 //030   ----------------------------------------
 BYTE   W96
//  #05 //031   ----------------------------------------
 BYTE   W96
//  #05 //032   ----------------------------------------
 BYTE   W96
//  #05 //033   ----------------------------------------
 BYTE   W96
//  #05 //034   ----------------------------------------
 BYTE   W96
//  #05 //035   ----------------------------------------
 BYTE   W96
//  #05 //036   ----------------------------------------
 BYTE   W96
//  #05 //037   ----------------------------------------
 BYTE   W96
//  #05 //038   ----------------------------------------
 BYTE   W96
//  #05 //039   ----------------------------------------
 BYTE   W96
//  #05 //040   ----------------------------------------
 BYTE   W96
//  #05 //041   ----------------------------------------
 BYTE   W96
//  #05 //042   ----------------------------------------
 BYTE   W96
//  #05 //043   ----------------------------------------
 BYTE   W96
//  #05 //044   ----------------------------------------
 BYTE   W96
//  #05 //045   ----------------------------------------
Label_017272AE:
 BYTE   N12  Dn3  v100
 BYTE   N12  Gn3
 BYTE   W24
 BYTE   Dn3
 BYTE   N12  Gn3
 BYTE   W12
 BYTE   Dn3
 BYTE   N12  Gn3
 BYTE   W24
 BYTE   Dn3
 BYTE   N12  Gn3
 BYTE   W24
 BYTE   En3
 BYTE   N12  An3
 BYTE   W12
 BYTE   PEND 
//  #05 //046   ----------------------------------------
Label_017272C5:
 BYTE   W12
 BYTE   N12  En3  v100
 BYTE   N12  An3
 BYTE   W12
 BYTE   En3
 BYTE   N12  An3
 BYTE   W24
 BYTE   En3
 BYTE   N12  An3
 BYTE   W24
 BYTE   En3
 BYTE   N12  An3
 BYTE   W24
 BYTE   PEND 
//  #05 //047   ----------------------------------------
Label_017272D9:
 BYTE   N12  Dn3  v100
 BYTE   N12  Gn3
 BYTE   W24
 BYTE   Dn3
 BYTE   N12  Gn3
 BYTE   W12
 BYTE   Dn3
 BYTE   N12  Gn3
 BYTE   W24
 BYTE   Dn3
 BYTE   N12  Gn3
 BYTE   W24
 BYTE   Dn3
 BYTE   N12  Fs3
 BYTE   W12
 BYTE   PEND 
//  #05 //048   ----------------------------------------
Label_017272F0:
 BYTE   W12
 BYTE   N12  Dn3  v100
 BYTE   N12  Fs3
 BYTE   W12
 BYTE   Dn3
 BYTE   N12  Fs3
 BYTE   W24
 BYTE   Dn3
 BYTE   N12  Fs3
 BYTE   W24
 BYTE   Dn3
 BYTE   N12  Fs3
 BYTE   W24
 BYTE   PEND 
//  #05 //049   ----------------------------------------
Label_01727304:
 BYTE   N12  Cn3  v100
 BYTE   N12  En3
 BYTE   W24
 BYTE   Cn3
 BYTE   N12  En3
 BYTE   W12
 BYTE   Cn3
 BYTE   N12  En3
 BYTE   W24
 BYTE   Cn3
 BYTE   N12  En3
 BYTE   W24
 BYTE   Dn3
 BYTE   N12  Fs3
 BYTE   W12
 BYTE   PEND 
//  #05 //050   ----------------------------------------
 BYTE   PATT
  POIN2 Label_017272F0
//  #05 //051   ----------------------------------------
 BYTE   PATT
  POIN2 Label_017272AE
//  #05 //052   ----------------------------------------
 BYTE   PATT
  POIN2 Label_017272C5
//  #05 //053   ----------------------------------------
 BYTE   PATT
  POIN2 Label_017272AE
//  #05 //054   ----------------------------------------
 BYTE   PATT
  POIN2 Label_017272C5
//  #05 //055   ----------------------------------------
 BYTE   PATT
  POIN2 Label_017272D9
//  #05 //056   ----------------------------------------
 BYTE   W12
 BYTE   N12  Dn3  v100
 BYTE   N12  Fs3
 BYTE   W12
 BYTE   Dn3
 BYTE   W24
 BYTE   N12
 BYTE   N12  Fs3
 BYTE   W24
 BYTE   Dn3
 BYTE   N12  Fs3
 BYTE   W24
//  #05 //057   ----------------------------------------
 BYTE   PATT
  POIN2 Label_01727304
//  #05 //058   ----------------------------------------
 BYTE   PATT
  POIN2 Label_017272F0
//  #05 //059   ----------------------------------------
 BYTE   PATT
  POIN2 Label_017272AE
//  #05 //060   ----------------------------------------
 BYTE   PATT
  POIN2 Label_017272C5
//  #05 //061   ----------------------------------------
 BYTE   GoTo
  POIN2 Label_017271CC
 BYTE   FINE

//**************** Track 6 (Midi-Chn.5) ****************//

NormalBattle_006:
//  #06 //000   ----------------------------------------
 BYTE   VOL   48*NormalBattle_mvl/mxv
 BYTE   KEYSH   NormalBattle_key+0
Label_01727A8C:
 BYTE   VOICE   124
 BYTE   N06  Cn1  v127
 BYTE   W48
 BYTE   N06
 BYTE   W24
 BYTE   N06
 BYTE   W24
//  #06 //001   ----------------------------------------
Label_01727A96:
 BYTE   N06  Cn1  v127
 BYTE   W48
 BYTE   N06
 BYTE   W24
 BYTE   N06
 BYTE   W24
 BYTE   PEND 
//  #06 //002   ----------------------------------------
 BYTE   PATT
  POIN2 Label_01727A96
//  #06 //003   ----------------------------------------
 BYTE   PATT
  POIN2 Label_01727A96
//  #06 //004   ----------------------------------------
 BYTE   PATT
  POIN2 Label_01727A96
//  #06 //005   ----------------------------------------
 BYTE   PATT
  POIN2 Label_01727A96
//  #06 //006   ----------------------------------------
 BYTE   PATT
  POIN2 Label_01727A96
//  #06 //007   ----------------------------------------
 BYTE   PATT
  POIN2 Label_01727A96
//  #06 //008   ----------------------------------------
Label_01727ABD:
 BYTE   N06  Cn1  v127
 BYTE   W12
 BYTE   N06
 BYTE   W12
 BYTE   Dn1
 BYTE   W12
 BYTE   Cn1
 BYTE   W12
 BYTE   N06
 BYTE   W12
 BYTE   N06
 BYTE   W12
 BYTE   Dn1
 BYTE   W12
 BYTE   Cn1
 BYTE   W12
 BYTE   PEND 
//  #06 //009   ----------------------------------------
 BYTE   PATT
  POIN2 Label_01727ABD
//  #06 //010   ----------------------------------------
 BYTE   PATT
  POIN2 Label_01727ABD
//  #06 //011   ----------------------------------------
 BYTE   PATT
  POIN2 Label_01727ABD
//  #06 //012   ----------------------------------------
 BYTE   PATT
  POIN2 Label_01727ABD
//  #06 //013   ----------------------------------------
 BYTE   PATT
  POIN2 Label_01727ABD
//  #06 //014   ----------------------------------------
 BYTE   PATT
  POIN2 Label_01727ABD
//  #06 //015   ----------------------------------------
 BYTE   PATT
  POIN2 Label_01727ABD
//  #06 //016   ----------------------------------------
 BYTE   PATT
  POIN2 Label_01727ABD
//  #06 //017   ----------------------------------------
 BYTE   PATT
  POIN2 Label_01727ABD
//  #06 //018   ----------------------------------------
 BYTE   PATT
  POIN2 Label_01727ABD
//  #06 //019   ----------------------------------------
 BYTE   PATT
  POIN2 Label_01727ABD
//  #06 //020   ----------------------------------------
 BYTE   PATT
  POIN2 Label_01727ABD
//  #06 //021   ----------------------------------------
 BYTE   PATT
  POIN2 Label_01727ABD
//  #06 //022   ----------------------------------------
 BYTE   PATT
  POIN2 Label_01727ABD
//  #06 //023   ----------------------------------------
 BYTE   PATT
  POIN2 Label_01727ABD
//  #06 //024   ----------------------------------------
 BYTE   PATT
  POIN2 Label_01727ABD
//  #06 //025   ----------------------------------------
 BYTE   PATT
  POIN2 Label_01727ABD
//  #06 //026   ----------------------------------------
 BYTE   PATT
  POIN2 Label_01727ABD
//  #06 //027   ----------------------------------------
 BYTE   PATT
  POIN2 Label_01727ABD
//  #06 //028   ----------------------------------------
 BYTE   PATT
  POIN2 Label_01727ABD
//  #06 //029   ----------------------------------------
 BYTE   PATT
  POIN2 Label_01727ABD
//  #06 //030   ----------------------------------------
 BYTE   PATT
  POIN2 Label_01727ABD
//  #06 //031   ----------------------------------------
 BYTE   N06  Cn1  v127
 BYTE   W12
 BYTE   N06
 BYTE   W12
 BYTE   Dn1
 BYTE   W12
 BYTE   Cn1
 BYTE   W12
 BYTE   N06
 BYTE   W12
 BYTE   Dn1
 BYTE   W06
 BYTE   Cn1
 BYTE   W06
 BYTE   Dn1
 BYTE   W12
 BYTE   N06
 BYTE   W06
 BYTE   Cn1
 BYTE   W06
//  #06 //032   ----------------------------------------
Label_01727B54:
 BYTE   N06  Dn1  v127
 BYTE   W12
 BYTE   Cn1
 BYTE   W12
 BYTE   Dn1
 BYTE   W12
 BYTE   N06
 BYTE   W12
 BYTE   Cn1
 BYTE   W12
 BYTE   Dn1
 BYTE   W12
 BYTE   N06
 BYTE   W12
 BYTE   Cn1
 BYTE   W12
 BYTE   PEND 
//  #06 //033   ----------------------------------------
Label_01727B67:
 BYTE   N06  Dn1  v127
 BYTE   W12
 BYTE   N06
 BYTE   W12
 BYTE   Cn1
 BYTE   W12
 BYTE   Dn1
 BYTE   W12
 BYTE   N06
 BYTE   W12
 BYTE   Cn1
 BYTE   W12
 BYTE   Dn1
 BYTE   W12
 BYTE   N06
 BYTE   W12
 BYTE   PEND 
//  #06 //034   ----------------------------------------
Label_01727B7A:
 BYTE   N06  Cn1  v127
 BYTE   W12
 BYTE   Dn1
 BYTE   W12
 BYTE   N06
 BYTE   W12
 BYTE   Cn1
 BYTE   W12
 BYTE   Dn1
 BYTE   W12
 BYTE   N06
 BYTE   W12
 BYTE   Cn1
 BYTE   W12
 BYTE   Dn1
 BYTE   W12
 BYTE   PEND 
//  #06 //035   ----------------------------------------
 BYTE   PATT
  POIN2 Label_01727B54
//  #06 //036   ----------------------------------------
 BYTE   PATT
  POIN2 Label_01727B67
//  #06 //037   ----------------------------------------
 BYTE   PATT
  POIN2 Label_01727B7A
//  #06 //038   ----------------------------------------
 BYTE   PATT
  POIN2 Label_01727B7A
//  #06 //039   ----------------------------------------
 BYTE   PATT
  POIN2 Label_01727B7A
//  #06 //040   ----------------------------------------
 BYTE   PATT
  POIN2 Label_01727B7A
//  #06 //041   ----------------------------------------
 BYTE   PATT
  POIN2 Label_01727B7A
//  #06 //042   ----------------------------------------
 BYTE   PATT
  POIN2 Label_01727B7A
//  #06 //043   ----------------------------------------
 BYTE   PATT
  POIN2 Label_01727B7A
//  #06 //044   ----------------------------------------
 BYTE   PATT
  POIN2 Label_01727B7A
//  #06 //045   ----------------------------------------
 BYTE   PATT
  POIN2 Label_01727ABD
//  #06 //046   ----------------------------------------
 BYTE   PATT
  POIN2 Label_01727ABD
//  #06 //047   ----------------------------------------
 BYTE   PATT
  POIN2 Label_01727ABD
//  #06 //048   ----------------------------------------
 BYTE   PATT
  POIN2 Label_01727ABD
//  #06 //049   ----------------------------------------
 BYTE   PATT
  POIN2 Label_01727ABD
//  #06 //050   ----------------------------------------
 BYTE   PATT
  POIN2 Label_01727ABD
//  #06 //051   ----------------------------------------
 BYTE   PATT
  POIN2 Label_01727ABD
//  #06 //052   ----------------------------------------
 BYTE   PATT
  POIN2 Label_01727ABD
//  #06 //053   ----------------------------------------
 BYTE   PATT
  POIN2 Label_01727ABD
//  #06 //054   ----------------------------------------
 BYTE   PATT
  POIN2 Label_01727ABD
//  #06 //055   ----------------------------------------
 BYTE   PATT
  POIN2 Label_01727ABD
//  #06 //056   ----------------------------------------
 BYTE   PATT
  POIN2 Label_01727ABD
//  #06 //057   ----------------------------------------
 BYTE   PATT
  POIN2 Label_01727ABD
//  #06 //058   ----------------------------------------
 BYTE   PATT
  POIN2 Label_01727ABD
//  #06 //059   ----------------------------------------
 BYTE   PATT
  POIN2 Label_01727ABD
//  #06 //060   ----------------------------------------
 BYTE   PATT
  POIN2 Label_01727ABD
//  #06 //061   ----------------------------------------
 BYTE   GoTo
  POIN2 Label_01727A8C
 BYTE   FINE

//******************************************************//
	ALIGN 4

NormalBattle:
	BYTE	6	// NumTrks
	BYTE	0	// NumBlks
	BYTE	NormalBattle_pri	// Priority
	BYTE	NormalBattle_rev	// Reverb.
    
	POIN2	NormalBattle_grp
    
	POIN2	NormalBattle_001
	POIN2	NormalBattle_002
	POIN2	NormalBattle_003
	POIN2	NormalBattle_004
	POIN2	NormalBattle_005
	POIN2	NormalBattle_006

	
