//Event file generated from Sappy .s format.
	#include "MPlayDef.event"

	#define	NorthernHemispheres_grp  voicegroup000
	#define	NorthernHemispheres_pri  0
	#define	NorthernHemispheres_rev  0
	#define	NorthernHemispheres_mvl  127
	#define	NorthernHemispheres_key  0
	#define	NorthernHemispheres_tbs  1
	#define	NorthernHemispheres_exg  0
	#define	NorthernHemispheres_cmp  1

	// .rodata
	//	NorthernHemispheres
	ALIGN 4


//**************** Track 1 (Midi-Chn.0) ****************//

NorthernHemispheres_001:
//  #01 //000   ----------------------------------------
 BYTE   KEYSH   NorthernHemispheres_key+0
 BYTE   TEMPO   60*NorthernHemispheres_tbs/2
 BYTE   VOICE   105
 BYTE   VOL   32*NorthernHemispheres_mvl/mxv
 BYTE   PAN   c_v+0
 BYTE   TIE  Cn0  v112
 BYTE   TIE  Cn1
 BYTE   W96
//  #01 //001   ----------------------------------------
 BYTE   W96
//  #01 //002   ----------------------------------------
 BYTE   W96
//  #01 //003   ----------------------------------------
 BYTE   W96
//  #01 //004   ----------------------------------------
 BYTE   W96
//  #01 //005   ----------------------------------------
 BYTE   W96
//  #01 //006   ----------------------------------------
 BYTE   W96
//  #01 //007   ----------------------------------------
 BYTE   W96
//  #01 //008   ----------------------------------------
 BYTE   W96
//  #01 //009   ----------------------------------------
 BYTE   EOT
 BYTE   Cn0  v036
Label_0141EED3:
 BYTE   TEMPO   64*NorthernHemispheres_tbs/2
 BYTE   W96
//  #01 //010   ----------------------------------------
 BYTE   W96
//  #01 //011   ----------------------------------------
 BYTE   W96
//  #01 //012   ----------------------------------------
 BYTE   W96
//  #01 //013   ----------------------------------------
 BYTE   W96
//  #01 //014   ----------------------------------------
 BYTE   W96
//  #01 //015   ----------------------------------------
 BYTE   W96
//  #01 //016   ----------------------------------------
 BYTE   W96
//  #01 //017   ----------------------------------------
 BYTE   W96
//  #01 //018   ----------------------------------------
 BYTE   W96
//  #01 //019   ----------------------------------------
 BYTE   W96
//  #01 //020   ----------------------------------------
 BYTE   W96
//  #01 //021   ----------------------------------------
 BYTE   W96
//  #01 //022   ----------------------------------------
 BYTE   W96
//  #01 //023   ----------------------------------------
 BYTE   W96
//  #01 //024   ----------------------------------------
 BYTE   W96
//  #01 //025   ----------------------------------------
 BYTE   W96
//  #01 //026   ----------------------------------------
 BYTE   W96
//  #01 //027   ----------------------------------------
 BYTE   W96
//  #01 //028   ----------------------------------------
 BYTE   TIE  Cn0  v112
 BYTE   TIE  Cn1
 BYTE   W96
//  #01 //029   ----------------------------------------
 BYTE   W96
//  #01 //030   ----------------------------------------
 BYTE   TEMPO   60*NorthernHemispheres_tbs/2
 BYTE   W96
//  #01 //031   ----------------------------------------
 BYTE   W96
//  #01 //032   ----------------------------------------
 BYTE   W96
//  #01 //033   ----------------------------------------
 BYTE   W96
//  #01 //034   ----------------------------------------
 BYTE   W96
//  #01 //035   ----------------------------------------
 BYTE   W96
//  #01 //036   ----------------------------------------
 BYTE   W96
//  #01 //037   ----------------------------------------
 BYTE   EOT
 BYTE   Cn0  v036
 BYTE   GoTo
  POIN2 Label_0141EED3
//  #01 //038   ----------------------------------------
 BYTE   W96
//  #01 //039   ----------------------------------------
 BYTE   W96
//  #01 //040   ----------------------------------------
 BYTE   W96
//  #01 //041   ----------------------------------------
 BYTE   W96
//  #01 //042   ----------------------------------------
 BYTE   W96
//  #01 //043   ----------------------------------------
 BYTE   W96
//  #01 //044   ----------------------------------------
 BYTE   W96
//  #01 //045   ----------------------------------------
 BYTE   W96
//  #01 //046   ----------------------------------------
 BYTE   W96
//  #01 //047   ----------------------------------------
 BYTE   W96
//  #01 //048   ----------------------------------------
 BYTE   W96
//  #01 //049   ----------------------------------------
 BYTE   W96
//  #01 //050   ----------------------------------------
 BYTE   W96
//  #01 //051   ----------------------------------------
 BYTE   W96
//  #01 //052   ----------------------------------------
 BYTE   W96
//  #01 //053   ----------------------------------------
 BYTE   W96
//  #01 //054   ----------------------------------------
 BYTE   W96
//  #01 //055   ----------------------------------------
 BYTE   W96
//  #01 //056   ----------------------------------------
 BYTE   W96
 BYTE   FINE

//**************** Track 2 (Midi-Chn.1) ****************//

NorthernHemispheres_002:
//  #02 //000   ----------------------------------------
 BYTE   KEYSH   NorthernHemispheres_key+0
 BYTE   VOICE   28
 BYTE   VOL   56*NorthernHemispheres_mvl/mxv
 BYTE   PAN   c_v+0
 BYTE   W96
//  #02 //001   ----------------------------------------
Label_0141E6C5:
 BYTE   N06  Cn2  v092
 BYTE   W06
 BYTE   Ds2
 BYTE   W06
 BYTE   Dn2
 BYTE   W06
 BYTE   Ds2
 BYTE   W06
 BYTE   Cn2
 BYTE   W06
 BYTE   Ds2
 BYTE   W06
 BYTE   Dn2
 BYTE   W06
 BYTE   Ds2
 BYTE   W06
 BYTE   Cn2
 BYTE   W06
 BYTE   Ds2
 BYTE   W06
 BYTE   Dn2
 BYTE   W06
 BYTE   Ds2
 BYTE   W06
 BYTE   Cn2
 BYTE   W06
 BYTE   Ds2
 BYTE   W06
 BYTE   Dn2
 BYTE   W06
 BYTE   Ds2
 BYTE   W06
 BYTE   PEND 
//  #02 //002   ----------------------------------------
 BYTE   W96
//  #02 //003   ----------------------------------------
Label_0141E6E9:
 BYTE   N06  Cn2  v092
 BYTE   W06
 BYTE   Fn2
 BYTE   W06
 BYTE   Gn2
 BYTE   W06
 BYTE   Fn2
 BYTE   W06
 BYTE   Cn2
 BYTE   W06
 BYTE   Fn2
 BYTE   W06
 BYTE   Gn2
 BYTE   W06
 BYTE   Fn2
 BYTE   W06
 BYTE   Cn2
 BYTE   W06
 BYTE   Fn2
 BYTE   W06
 BYTE   Gn2
 BYTE   W06
 BYTE   Fn2
 BYTE   W06
 BYTE   Cn2
 BYTE   W06
 BYTE   Fn2
 BYTE   W06
 BYTE   Gn2
 BYTE   W06
 BYTE   Fn2
 BYTE   W06
 BYTE   PEND 
//  #02 //004   ----------------------------------------
 BYTE   W96
//  #02 //005   ----------------------------------------
 BYTE   PATT
  POIN2 Label_0141E6C5
//  #02 //006   ----------------------------------------
 BYTE   W96
//  #02 //007   ----------------------------------------
 BYTE   W96
//  #02 //008   ----------------------------------------
 BYTE   W96
//  #02 //009   ----------------------------------------
Label_0141E715:
 BYTE   W96
//  #02 //010   ----------------------------------------
 BYTE   W96
//  #02 //011   ----------------------------------------
 BYTE   W96
//  #02 //012   ----------------------------------------
Label_0141E718:
 BYTE   N03  Cn2  v092
 BYTE   N03  Gn2
 BYTE   W03
 BYTE   Cn2
 BYTE   N03  Gn2
 BYTE   W03
 BYTE   Cn3
 BYTE   N03  Ds3
 BYTE   W03
 BYTE   Cn3
 BYTE   N03  Ds3
 BYTE   W03
 BYTE   As2
 BYTE   N03  Dn3
 BYTE   W03
 BYTE   As2
 BYTE   N03  Dn3
 BYTE   W03
 BYTE   Cn3
 BYTE   N03  Ds3
 BYTE   W03
 BYTE   Cn3
 BYTE   N03  Ds3
 BYTE   W03
 BYTE   Cs2
 BYTE   N03  Gs2
 BYTE   W03
 BYTE   Cs2
 BYTE   N03  Gs2
 BYTE   W03
 BYTE   Cn3
 BYTE   N03  Ds3
 BYTE   W03
 BYTE   Cn3
 BYTE   N03  Ds3
 BYTE   W03
 BYTE   As2
 BYTE   N03  Dn3
 BYTE   W03
 BYTE   As2
 BYTE   N03  Dn3
 BYTE   W03
 BYTE   Cn3
 BYTE   N03  Ds3
 BYTE   W03
 BYTE   Cn3
 BYTE   N03  Ds3
 BYTE   W03
 BYTE   Cn2
 BYTE   N03  Gn2
 BYTE   W03
 BYTE   Cn2
 BYTE   N03  Gn2
 BYTE   W03
 BYTE   Cn3
 BYTE   N03  Ds3
 BYTE   W03
 BYTE   Cn3
 BYTE   N03  Ds3
 BYTE   W03
 BYTE   As2
 BYTE   N03  Dn3
 BYTE   W03
 BYTE   As2
 BYTE   N03  Dn3
 BYTE   W03
 BYTE   Cn3
 BYTE   N03  Ds3
 BYTE   W03
 BYTE   Cn3
 BYTE   N03  Ds3
 BYTE   W03
 BYTE   Cs2
 BYTE   N03  Gs2
 BYTE   W03
 BYTE   Cs2
 BYTE   N03  Gs2
 BYTE   W03
 BYTE   Cn3
 BYTE   N03  Ds3
 BYTE   W03
 BYTE   Cn3
 BYTE   N03  Ds3
 BYTE   W03
 BYTE   As2
 BYTE   N03  Dn3
 BYTE   W03
 BYTE   As2
 BYTE   N03  Dn3
 BYTE   W03
 BYTE   Cn3
 BYTE   N03  Ds3
 BYTE   W03
 BYTE   Cn3
 BYTE   N03  Ds3
 BYTE   W03
 BYTE   PEND 
//  #02 //013   ----------------------------------------
 BYTE   PATT
  POIN2 Label_0141E718
//  #02 //014   ----------------------------------------
 BYTE   W96
//  #02 //015   ----------------------------------------
 BYTE   W96
//  #02 //016   ----------------------------------------
Label_0141E7A2:
 BYTE   N06  Gn2  v092
 BYTE   W06
 BYTE   Gs2
 BYTE   W06
 BYTE   Ds3
 BYTE   W84
 BYTE   PEND 
//  #02 //017   ----------------------------------------
Label_0141E7AB:
 BYTE   N06  Fn2  v092
 BYTE   W06
 BYTE   Gn2
 BYTE   W06
 BYTE   Dn3
 BYTE   W84
 BYTE   PEND 
//  #02 //018   ----------------------------------------
Label_0141E7B4:
 BYTE   N04  Cn2  v092
 BYTE   W04
 BYTE   Ds2
 BYTE   W05
 BYTE   N03  Dn2  v088
 BYTE   W03
 BYTE   N04  Cn2  v084
 BYTE   W04
 BYTE   Ds2
 BYTE   W05
 BYTE   N03  Dn2  v080
 BYTE   W03
 BYTE   N04  Cn2  v076
 BYTE   W04
 BYTE   Ds2  v072
 BYTE   W05
 BYTE   N03  Dn2  v068
 BYTE   W03
 BYTE   N04  Cn2
 BYTE   W04
 BYTE   Ds2  v064
 BYTE   W05
 BYTE   N03  Dn2  v060
 BYTE   W03
 BYTE   N04  Cn2  v056
 BYTE   W04
 BYTE   Ds2  v052
 BYTE   W05
 BYTE   N03  Dn2  v048
 BYTE   W03
 BYTE   N04  Cn2
 BYTE   W04
 BYTE   Ds2  v044
 BYTE   W05
 BYTE   N03  Dn2  v040
 BYTE   W03
 BYTE   N04  Cn2  v036
 BYTE   W04
 BYTE   Ds2  v032
 BYTE   W05
 BYTE   N03  Dn2  v028
 BYTE   W03
 BYTE   N04  Cn2  v024
 BYTE   W04
 BYTE   Ds2  v020
 BYTE   W05
 BYTE   N03  Dn2  v016
 BYTE   W03
 BYTE   PEND 
//  #02 //019   ----------------------------------------
 BYTE   PATT
  POIN2 Label_0141E7B4
//  #02 //020   ----------------------------------------
Label_0141E80E:
 BYTE   N04  Cn2  v092
 BYTE   W04
 BYTE   Ds2
 BYTE   W05
 BYTE   N03  Dn2
 BYTE   W03
 BYTE   N04  Cn2
 BYTE   W04
 BYTE   Ds2
 BYTE   W05
 BYTE   N03  Dn2
 BYTE   W03
 BYTE   N04  Cn2
 BYTE   W04
 BYTE   Fn2
 BYTE   W05
 BYTE   N03  As2
 BYTE   W03
 BYTE   N04  Cn3
 BYTE   W04
 BYTE   As2
 BYTE   W05
 BYTE   N03  Fn2
 BYTE   W03
 BYTE   N04  Cn2
 BYTE   W04
 BYTE   Ds2
 BYTE   W05
 BYTE   N03  Dn2
 BYTE   W03
 BYTE   N04  Cn2
 BYTE   W04
 BYTE   Ds2
 BYTE   W05
 BYTE   N03  Dn2
 BYTE   W03
 BYTE   N04  Cn2
 BYTE   W04
 BYTE   Fn2
 BYTE   W05
 BYTE   N03  As2
 BYTE   W03
 BYTE   N04  Cn3
 BYTE   W04
 BYTE   As2
 BYTE   W05
 BYTE   N03  Fn2
 BYTE   W03
 BYTE   PEND 
//  #02 //021   ----------------------------------------
Label_0141E850:
 BYTE   N04  Cn2  v092
 BYTE   W04
 BYTE   Gs2
 BYTE   W05
 BYTE   N03  Gn2
 BYTE   W03
 BYTE   N04  Cn2
 BYTE   W04
 BYTE   Gs2
 BYTE   W05
 BYTE   N03  Gn2
 BYTE   W03
 BYTE   N04  Cn2
 BYTE   W04
 BYTE   Gs2
 BYTE   W05
 BYTE   N03  As2
 BYTE   W03
 BYTE   N04  Cn3
 BYTE   W04
 BYTE   Ds3
 BYTE   W05
 BYTE   N03  Fn3
 BYTE   W03
 BYTE   N04  Cn3
 BYTE   W04
 BYTE   Gn3
 BYTE   W05
 BYTE   N03  Fn3
 BYTE   W03
 BYTE   N04  Cn3
 BYTE   W04
 BYTE   Gn3
 BYTE   W05
 BYTE   N03  As3
 BYTE   W03
 BYTE   N04  Cn4
 BYTE   W04
 BYTE   As3
 BYTE   W05
 BYTE   N03  Gn3
 BYTE   W03
 BYTE   N04  Fn3
 BYTE   W04
 BYTE   Ds3
 BYTE   W05
 BYTE   N03  As2
 BYTE   W03
 BYTE   PEND 
//  #02 //022   ----------------------------------------
 BYTE   PATT
  POIN2 Label_0141E80E
//  #02 //023   ----------------------------------------
 BYTE   PATT
  POIN2 Label_0141E80E
//  #02 //024   ----------------------------------------
Label_0141E89C:
 BYTE   N04  Ds2  v092
 BYTE   W04
 BYTE   Fs2
 BYTE   W05
 BYTE   N03  Fn2
 BYTE   W03
 BYTE   N04  Ds2
 BYTE   W04
 BYTE   Fs2
 BYTE   W05
 BYTE   N03  Fn2
 BYTE   W03
 BYTE   N04  Ds2
 BYTE   W04
 BYTE   Fs2
 BYTE   W05
 BYTE   N03  Cs3
 BYTE   W03
 BYTE   N04  Ds3
 BYTE   W04
 BYTE   As2
 BYTE   W05
 BYTE   N03  Fs2
 BYTE   W03
 BYTE   N04  Cs2
 BYTE   W04
 BYTE   Fs2
 BYTE   W05
 BYTE   N03  Fn2
 BYTE   W03
 BYTE   N04  Cs2
 BYTE   W04
 BYTE   Fs2
 BYTE   W05
 BYTE   N03  Fn2
 BYTE   W03
 BYTE   N04  Cs2
 BYTE   W04
 BYTE   Fs2
 BYTE   W05
 BYTE   N03  Cs3
 BYTE   W03
 BYTE   N04  Ds3
 BYTE   W04
 BYTE   As2
 BYTE   W05
 BYTE   N03  Fs2
 BYTE   W03
 BYTE   PEND 
//  #02 //025   ----------------------------------------
Label_0141E8DE:
 BYTE   N04  Bn1  v092
 BYTE   W04
 BYTE   Fs2
 BYTE   W05
 BYTE   N03  Fn2
 BYTE   W03
 BYTE   N04  Bn1
 BYTE   W04
 BYTE   Fs2
 BYTE   W05
 BYTE   N03  Fn2
 BYTE   W03
 BYTE   N04  Bn1
 BYTE   W04
 BYTE   Fs2
 BYTE   W05
 BYTE   N03  Bn2
 BYTE   W03
 BYTE   N04  Ds3
 BYTE   W04
 BYTE   Fs3
 BYTE   W05
 BYTE   N03  Gs3
 BYTE   W03
 BYTE   N04  Ds3
 BYTE   W04
 BYTE   As3
 BYTE   W05
 BYTE   N03  Gs3
 BYTE   W03
 BYTE   N04  Ds3
 BYTE   W04
 BYTE   As3
 BYTE   W05
 BYTE   N03  Cs4
 BYTE   W03
 BYTE   N04  Ds4
 BYTE   W04
 BYTE   Cs4
 BYTE   W05
 BYTE   N03  As3
 BYTE   W03
 BYTE   N04  Gs3
 BYTE   W04
 BYTE   Fs3
 BYTE   W05
 BYTE   N03  Cs3
 BYTE   W03
 BYTE   PEND 
//  #02 //026   ----------------------------------------
Label_0141E920:
 BYTE   N04  Gn2  v092
 BYTE   N04  Cn3
 BYTE   W04
 BYTE   N04
 BYTE   N04  Ds3
 BYTE   W05
 BYTE   N03  As2
 BYTE   N03  Dn3
 BYTE   W03
 BYTE   N04  Gn2
 BYTE   N04  Cn3
 BYTE   W04
 BYTE   N04
 BYTE   N04  Ds3
 BYTE   W05
 BYTE   N03  As2
 BYTE   N03  Dn3
 BYTE   W03
 BYTE   N04  Gn2
 BYTE   N04  Cn3
 BYTE   W04
 BYTE   Ds3
 BYTE   N04  Gn3
 BYTE   W05
 BYTE   N03  Fn3
 BYTE   N03  As3
 BYTE   W03
 BYTE   N04  Gn3
 BYTE   N04  Cn4
 BYTE   W04
 BYTE   Fn3
 BYTE   N04  As3
 BYTE   W05
 BYTE   N03  Ds3
 BYTE   N03  Gn3
 BYTE   W03
 BYTE   N04  Fn2
 BYTE   N04  As2
 BYTE   W04
 BYTE   Cn3
 BYTE   N04  Ds3
 BYTE   W05
 BYTE   N03  As2
 BYTE   N03  Dn3
 BYTE   W03
 BYTE   N04  Fn2
 BYTE   N04  As2
 BYTE   W04
 BYTE   Cn3
 BYTE   N04  Ds3
 BYTE   W05
 BYTE   N03  As2
 BYTE   N03  Dn3
 BYTE   W03
 BYTE   N04  Fn2
 BYTE   N04  As2
 BYTE   W04
 BYTE   Ds3
 BYTE   N04  Gn3
 BYTE   W05
 BYTE   N03  Fn3
 BYTE   N03  As3
 BYTE   W03
 BYTE   N04  Gn3
 BYTE   N04  Cn4
 BYTE   W04
 BYTE   Fn3
 BYTE   N04  As3
 BYTE   W05
 BYTE   N03  Ds3
 BYTE   N03  Gn3
 BYTE   W03
 BYTE   PEND 
//  #02 //027   ----------------------------------------
Label_0141E992:
 BYTE   N04  Ds2  v092
 BYTE   N04  Gs2
 BYTE   W04
 BYTE   Cn3
 BYTE   N04  Ds3
 BYTE   W05
 BYTE   N03  As2
 BYTE   N03  Dn3
 BYTE   W03
 BYTE   N04  Ds2
 BYTE   N04  Gs2
 BYTE   W04
 BYTE   Cn3
 BYTE   N04  Ds3
 BYTE   W05
 BYTE   N03  As2
 BYTE   N03  Dn3
 BYTE   W03
 BYTE   N04  Ds2
 BYTE   N04  Gs2
 BYTE   W04
 BYTE   Cn3
 BYTE   N04  Ds3
 BYTE   W05
 BYTE   N03
 BYTE   N03  Gn3
 BYTE   W03
 BYTE   N04  Fn3
 BYTE   N04  As3
 BYTE   W04
 BYTE   Gn3
 BYTE   N04  Cn4
 BYTE   W05
 BYTE   N03
 BYTE   N03  Fn4
 BYTE   W03
 BYTE   N04  Gn3
 BYTE   N04  Cn4
 BYTE   W04
 BYTE   Ds4
 BYTE   N04  Gn4
 BYTE   W05
 BYTE   N03  Dn4
 BYTE   N03  Fn4
 BYTE   W03
 BYTE   N04  Gn3
 BYTE   N04  Cn4
 BYTE   W04
 BYTE   Ds4
 BYTE   N04  Gn4
 BYTE   W05
 BYTE   N03  Fn4
 BYTE   N03  As4
 BYTE   W03
 BYTE   N04  Gn4
 BYTE   N04  Cn5
 BYTE   W04
 BYTE   Fn4
 BYTE   N04  As4
 BYTE   W05
 BYTE   N03  Ds4
 BYTE   N03  Gn4
 BYTE   W03
 BYTE   N04  Cn4
 BYTE   N04  Fn4
 BYTE   W04
 BYTE   As3
 BYTE   N04  Ds4
 BYTE   W05
 BYTE   N03  Fn3
 BYTE   N03  As3
 BYTE   W03
 BYTE   PEND 
//  #02 //028   ----------------------------------------
 BYTE   W96
//  #02 //029   ----------------------------------------
 BYTE   PATT
  POIN2 Label_0141E6C5
//  #02 //030   ----------------------------------------
 BYTE   W96
//  #02 //031   ----------------------------------------
 BYTE   PATT
  POIN2 Label_0141E6E9
//  #02 //032   ----------------------------------------
 BYTE   W96
//  #02 //033   ----------------------------------------
 BYTE   PATT
  POIN2 Label_0141E6C5
//  #02 //034   ----------------------------------------
 BYTE   W96
//  #02 //035   ----------------------------------------
 BYTE   W96
//  #02 //036   ----------------------------------------
 BYTE   W96
//  #02 //037   ----------------------------------------
 BYTE   GoTo
  POIN2 Label_0141E715
//  #02 //038   ----------------------------------------
 BYTE   W96
//  #02 //039   ----------------------------------------
 BYTE   W96
//  #02 //040   ----------------------------------------
 BYTE   W96
//  #02 //041   ----------------------------------------
 BYTE   PATT
  POIN2 Label_0141E718
//  #02 //042   ----------------------------------------
 BYTE   PATT
  POIN2 Label_0141E718
//  #02 //043   ----------------------------------------
 BYTE   W96
//  #02 //044   ----------------------------------------
 BYTE   W96
//  #02 //045   ----------------------------------------
 BYTE   PATT
  POIN2 Label_0141E7A2
//  #02 //046   ----------------------------------------
 BYTE   PATT
  POIN2 Label_0141E7AB
//  #02 //047   ----------------------------------------
 BYTE   PATT
  POIN2 Label_0141E7B4
//  #02 //048   ----------------------------------------
 BYTE   PATT
  POIN2 Label_0141E7B4
//  #02 //049   ----------------------------------------
 BYTE   PATT
  POIN2 Label_0141E80E
//  #02 //050   ----------------------------------------
 BYTE   PATT
  POIN2 Label_0141E850
//  #02 //051   ----------------------------------------
 BYTE   PATT
  POIN2 Label_0141E80E
//  #02 //052   ----------------------------------------
 BYTE   PATT
  POIN2 Label_0141E80E
//  #02 //053   ----------------------------------------
 BYTE   PATT
  POIN2 Label_0141E89C
//  #02 //054   ----------------------------------------
 BYTE   PATT
  POIN2 Label_0141E8DE
//  #02 //055   ----------------------------------------
 BYTE   PATT
  POIN2 Label_0141E920
//  #02 //056   ----------------------------------------
 BYTE   PATT
  POIN2 Label_0141E992
 BYTE   FINE

//**************** Track 3 (Midi-Chn.2) ****************//

NorthernHemispheres_003:
//  #03 //000   ----------------------------------------
 BYTE   KEYSH   NorthernHemispheres_key+0
 BYTE   VOICE   105
 BYTE   VOL   50*NorthernHemispheres_mvl/mxv
 BYTE   PAN   c_v+0
 BYTE   VOL   29*NorthernHemispheres_mvl/mxv
 BYTE   W96
//  #03 //001   ----------------------------------------
 BYTE   N96  Gn3  v127
 BYTE   N96  Cn4
 BYTE   W96
//  #03 //002   ----------------------------------------
 BYTE   Ds4
 BYTE   N96  Gn4
 BYTE   W96
//  #03 //003   ----------------------------------------
Label_0141F221:
 BYTE   TIE  Dn4  v127
 BYTE   TIE  Fn4
 BYTE   W96
 BYTE   PEND 
//  #03 //004   ----------------------------------------
Label_0141F228:
 BYTE   VOL   29*NorthernHemispheres_mvl/mxv
 BYTE   W01
 BYTE   VOL   28*NorthernHemispheres_mvl/mxv
 BYTE   W01
 BYTE   VOL   28*NorthernHemispheres_mvl/mxv
 BYTE   W01
 BYTE   VOL   27*NorthernHemispheres_mvl/mxv
 BYTE   W01
 BYTE   VOL   27*NorthernHemispheres_mvl/mxv
 BYTE   W01
 BYTE   VOL   27*NorthernHemispheres_mvl/mxv
 BYTE   W01
 BYTE   VOL   26*NorthernHemispheres_mvl/mxv
 BYTE   W01
 BYTE   VOL   26*NorthernHemispheres_mvl/mxv
 BYTE   W01
 BYTE   VOL   25*NorthernHemispheres_mvl/mxv
 BYTE   W01
 BYTE   VOL   25*NorthernHemispheres_mvl/mxv
 BYTE   W01
 BYTE   VOL   25*NorthernHemispheres_mvl/mxv
 BYTE   W01
 BYTE   VOL   24*NorthernHemispheres_mvl/mxv
 BYTE   W01
 BYTE   VOL   24*NorthernHemispheres_mvl/mxv
 BYTE   W01
 BYTE   VOL   24*NorthernHemispheres_mvl/mxv
 BYTE   W01
 BYTE   VOL   23*NorthernHemispheres_mvl/mxv
 BYTE   W01
 BYTE   VOL   23*NorthernHemispheres_mvl/mxv
 BYTE   W01
 BYTE   VOL   22*NorthernHemispheres_mvl/mxv
 BYTE   W01
 BYTE   VOL   22*NorthernHemispheres_mvl/mxv
 BYTE   W01
 BYTE   VOL   22*NorthernHemispheres_mvl/mxv
 BYTE   W01
 BYTE   VOL   21*NorthernHemispheres_mvl/mxv
 BYTE   W01
 BYTE   VOL   21*NorthernHemispheres_mvl/mxv
 BYTE   W01
 BYTE   VOL   20*NorthernHemispheres_mvl/mxv
 BYTE   W01
 BYTE   VOL   20*NorthernHemispheres_mvl/mxv
 BYTE   W01
 BYTE   VOL   19*NorthernHemispheres_mvl/mxv
 BYTE   W01
 BYTE   VOL   19*NorthernHemispheres_mvl/mxv
 BYTE   W01
 BYTE   VOL   18*NorthernHemispheres_mvl/mxv
 BYTE   W01
 BYTE   VOL   18*NorthernHemispheres_mvl/mxv
 BYTE   W01
 BYTE   VOL   18*NorthernHemispheres_mvl/mxv
 BYTE   W01
 BYTE   VOL   17*NorthernHemispheres_mvl/mxv
 BYTE   W01
 BYTE   VOL   17*NorthernHemispheres_mvl/mxv
 BYTE   W01
 BYTE   VOL   16*NorthernHemispheres_mvl/mxv
 BYTE   W01
 BYTE   VOL   16*NorthernHemispheres_mvl/mxv
 BYTE   W01
 BYTE   VOL   16*NorthernHemispheres_mvl/mxv
 BYTE   W01
 BYTE   VOL   15*NorthernHemispheres_mvl/mxv
 BYTE   W01
 BYTE   VOL   15*NorthernHemispheres_mvl/mxv
 BYTE   W01
 BYTE   VOL   14*NorthernHemispheres_mvl/mxv
 BYTE   W01
 BYTE   VOL   14*NorthernHemispheres_mvl/mxv
 BYTE   W01
 BYTE   VOL   14*NorthernHemispheres_mvl/mxv
 BYTE   W01
 BYTE   VOL   13*NorthernHemispheres_mvl/mxv
 BYTE   W01
 BYTE   VOL   13*NorthernHemispheres_mvl/mxv
 BYTE   W01
 BYTE   VOL   12*NorthernHemispheres_mvl/mxv
 BYTE   W01
 BYTE   VOL   12*NorthernHemispheres_mvl/mxv
 BYTE   W01
 BYTE   VOL   12*NorthernHemispheres_mvl/mxv
 BYTE   W01
 BYTE   VOL   11*NorthernHemispheres_mvl/mxv
 BYTE   W01
 BYTE   VOL   11*NorthernHemispheres_mvl/mxv
 BYTE   W01
 BYTE   VOL   11*NorthernHemispheres_mvl/mxv
 BYTE   W01
 BYTE   VOL   10*NorthernHemispheres_mvl/mxv
 BYTE   W01
 BYTE   VOL   9*NorthernHemispheres_mvl/mxv
 BYTE   W01
 BYTE   VOL   9*NorthernHemispheres_mvl/mxv
 BYTE   W01
 BYTE   VOL   9*NorthernHemispheres_mvl/mxv
 BYTE   W01
 BYTE   VOL   8*NorthernHemispheres_mvl/mxv
 BYTE   W01
 BYTE   VOL   8*NorthernHemispheres_mvl/mxv
 BYTE   W01
 BYTE   VOL   7*NorthernHemispheres_mvl/mxv
 BYTE   W01
 BYTE   VOL   7*NorthernHemispheres_mvl/mxv
 BYTE   W01
 BYTE   VOL   7*NorthernHemispheres_mvl/mxv
 BYTE   W01
 BYTE   VOL   6*NorthernHemispheres_mvl/mxv
 BYTE   W01
 BYTE   VOL   6*NorthernHemispheres_mvl/mxv
 BYTE   W01
 BYTE   VOL   5*NorthernHemispheres_mvl/mxv
 BYTE   W01
 BYTE   VOL   5*NorthernHemispheres_mvl/mxv
 BYTE   W01
 BYTE   VOL   5*NorthernHemispheres_mvl/mxv
 BYTE   W01
 BYTE   VOL   4*NorthernHemispheres_mvl/mxv
 BYTE   W01
 BYTE   VOL   4*NorthernHemispheres_mvl/mxv
 BYTE   W01
 BYTE   VOL   3*NorthernHemispheres_mvl/mxv
 BYTE   W01
 BYTE   VOL   3*NorthernHemispheres_mvl/mxv
 BYTE   W01
 BYTE   VOL   3*NorthernHemispheres_mvl/mxv
 BYTE   W01
 BYTE   VOL   2*NorthernHemispheres_mvl/mxv
 BYTE   W01
 BYTE   VOL   2*NorthernHemispheres_mvl/mxv
 BYTE   W01
 BYTE   VOL   1*NorthernHemispheres_mvl/mxv
 BYTE   W01
 BYTE   VOL   1*NorthernHemispheres_mvl/mxv
 BYTE   W01
 BYTE   VOL   1*NorthernHemispheres_mvl/mxv
 BYTE   W01
 BYTE   VOL   0*NorthernHemispheres_mvl/mxv
 BYTE   W01
 BYTE   VOL   0*NorthernHemispheres_mvl/mxv
 BYTE   W01
 BYTE   PEND 
 BYTE   EOT
 BYTE   Dn4  v077
 BYTE   VOL   0*NorthernHemispheres_mvl/mxv
 BYTE   W24
//  #03 //005   ----------------------------------------
Label_0141F307:
 BYTE   VOL   29*NorthernHemispheres_mvl/mxv
 BYTE   N96  As3  v127
 BYTE   N96  Fn4
 BYTE   W96
 BYTE   PEND 
//  #03 //006   ----------------------------------------
 BYTE   Cn4
 BYTE   N96  Ds4
 BYTE   W96
//  #03 //007   ----------------------------------------
Label_0141F314:
 BYTE   TIE  Fs3  v127
 BYTE   TIE  Cn4
 BYTE   TIE  Cn5
 BYTE   W96
 BYTE   PEND 
//  #03 //008   ----------------------------------------
 BYTE   W96
//  #03 //009   ----------------------------------------
 BYTE   EOT
 BYTE   Fs3  v072
 BYTE   Cn5
Label_0141F322:
 BYTE   TIE  Cn3  v127
 BYTE   TIE  Gn3
 BYTE   W96
 BYTE   PEND 
//  #03 //010   ----------------------------------------
 BYTE   W48
 BYTE   EOT
 BYTE   TIE  Gs3
 BYTE   W48
//  #03 //011   ----------------------------------------
 BYTE   Fs4
 BYTE   W96
//  #03 //012   ----------------------------------------
 BYTE   W96
//  #03 //013   ----------------------------------------
 BYTE   EOT
 BYTE   Cn3  v068
 BYTE   Fs4
 BYTE   W96
//  #03 //014   ----------------------------------------
 BYTE   W96
//  #03 //015   ----------------------------------------
 BYTE   W96
//  #03 //016   ----------------------------------------
 BYTE   W96
//  #03 //017   ----------------------------------------
 BYTE   W96
//  #03 //018   ----------------------------------------
 BYTE   W96
//  #03 //019   ----------------------------------------
 BYTE   W96
//  #03 //020   ----------------------------------------
 BYTE   W96
//  #03 //021   ----------------------------------------
 BYTE   W96
//  #03 //022   ----------------------------------------
Label_0141F33E:
 BYTE   VOL   50*NorthernHemispheres_mvl/mxv
 BYTE   N48  Ds4  v127
 BYTE   W48
 BYTE   N24  Dn4
 BYTE   W24
 BYTE   As3
 BYTE   W24
 BYTE   PEND 
//  #03 //023   ----------------------------------------
Label_0141F34A:
 BYTE   VOL   50*NorthernHemispheres_mvl/mxv
 BYTE   N96  Cn4  v127
 BYTE   W01
 BYTE   VOL   49*NorthernHemispheres_mvl/mxv
 BYTE   W01
 BYTE   VOL   49*NorthernHemispheres_mvl/mxv
 BYTE   W01
 BYTE   VOL   48*NorthernHemispheres_mvl/mxv
 BYTE   W01
 BYTE   VOL   48*NorthernHemispheres_mvl/mxv
 BYTE   W01
 BYTE   VOL   48*NorthernHemispheres_mvl/mxv
 BYTE   W01
 BYTE   VOL   47*NorthernHemispheres_mvl/mxv
 BYTE   W01
 BYTE   VOL   47*NorthernHemispheres_mvl/mxv
 BYTE   W01
 BYTE   VOL   46*NorthernHemispheres_mvl/mxv
 BYTE   W01
 BYTE   VOL   46*NorthernHemispheres_mvl/mxv
 BYTE   W01
 BYTE   VOL   46*NorthernHemispheres_mvl/mxv
 BYTE   W01
 BYTE   VOL   45*NorthernHemispheres_mvl/mxv
 BYTE   W01
 BYTE   VOL   45*NorthernHemispheres_mvl/mxv
 BYTE   W01
 BYTE   VOL   44*NorthernHemispheres_mvl/mxv
 BYTE   W01
 BYTE   VOL   44*NorthernHemispheres_mvl/mxv
 BYTE   W01
 BYTE   VOL   44*NorthernHemispheres_mvl/mxv
 BYTE   W01
 BYTE   VOL   43*NorthernHemispheres_mvl/mxv
 BYTE   W01
 BYTE   VOL   43*NorthernHemispheres_mvl/mxv
 BYTE   W01
 BYTE   VOL   42*NorthernHemispheres_mvl/mxv
 BYTE   W01
 BYTE   VOL   42*NorthernHemispheres_mvl/mxv
 BYTE   W01
 BYTE   VOL   42*NorthernHemispheres_mvl/mxv
 BYTE   W01
 BYTE   VOL   41*NorthernHemispheres_mvl/mxv
 BYTE   W01
 BYTE   VOL   41*NorthernHemispheres_mvl/mxv
 BYTE   W01
 BYTE   VOL   40*NorthernHemispheres_mvl/mxv
 BYTE   W01
 BYTE   VOL   40*NorthernHemispheres_mvl/mxv
 BYTE   W01
 BYTE   VOL   40*NorthernHemispheres_mvl/mxv
 BYTE   W01
 BYTE   VOL   39*NorthernHemispheres_mvl/mxv
 BYTE   W01
 BYTE   VOL   39*NorthernHemispheres_mvl/mxv
 BYTE   W01
 BYTE   VOL   38*NorthernHemispheres_mvl/mxv
 BYTE   W01
 BYTE   VOL   38*NorthernHemispheres_mvl/mxv
 BYTE   W01
 BYTE   VOL   38*NorthernHemispheres_mvl/mxv
 BYTE   W01
 BYTE   VOL   37*NorthernHemispheres_mvl/mxv
 BYTE   W01
 BYTE   VOL   37*NorthernHemispheres_mvl/mxv
 BYTE   W01
 BYTE   VOL   37*NorthernHemispheres_mvl/mxv
 BYTE   W01
 BYTE   VOL   36*NorthernHemispheres_mvl/mxv
 BYTE   W01
 BYTE   VOL   36*NorthernHemispheres_mvl/mxv
 BYTE   W01
 BYTE   VOL   35*NorthernHemispheres_mvl/mxv
 BYTE   W01
 BYTE   VOL   35*NorthernHemispheres_mvl/mxv
 BYTE   W01
 BYTE   VOL   35*NorthernHemispheres_mvl/mxv
 BYTE   W01
 BYTE   VOL   34*NorthernHemispheres_mvl/mxv
 BYTE   W01
 BYTE   VOL   34*NorthernHemispheres_mvl/mxv
 BYTE   W01
 BYTE   VOL   33*NorthernHemispheres_mvl/mxv
 BYTE   W01
 BYTE   VOL   33*NorthernHemispheres_mvl/mxv
 BYTE   W01
 BYTE   VOL   33*NorthernHemispheres_mvl/mxv
 BYTE   W01
 BYTE   VOL   32*NorthernHemispheres_mvl/mxv
 BYTE   W01
 BYTE   VOL   32*NorthernHemispheres_mvl/mxv
 BYTE   W01
 BYTE   VOL   31*NorthernHemispheres_mvl/mxv
 BYTE   W01
 BYTE   VOL   31*NorthernHemispheres_mvl/mxv
 BYTE   W01
 BYTE   VOL   31*NorthernHemispheres_mvl/mxv
 BYTE   W01
 BYTE   VOL   30*NorthernHemispheres_mvl/mxv
 BYTE   W01
 BYTE   VOL   30*NorthernHemispheres_mvl/mxv
 BYTE   W01
 BYTE   VOL   29*NorthernHemispheres_mvl/mxv
 BYTE   W01
 BYTE   VOL   29*NorthernHemispheres_mvl/mxv
 BYTE   W01
 BYTE   VOL   29*NorthernHemispheres_mvl/mxv
 BYTE   W01
 BYTE   VOL   28*NorthernHemispheres_mvl/mxv
 BYTE   W01
 BYTE   VOL   28*NorthernHemispheres_mvl/mxv
 BYTE   W01
 BYTE   VOL   27*NorthernHemispheres_mvl/mxv
 BYTE   W01
 BYTE   VOL   27*NorthernHemispheres_mvl/mxv
 BYTE   W01
 BYTE   VOL   27*NorthernHemispheres_mvl/mxv
 BYTE   W01
 BYTE   VOL   26*NorthernHemispheres_mvl/mxv
 BYTE   W01
 BYTE   VOL   26*NorthernHemispheres_mvl/mxv
 BYTE   W01
 BYTE   VOL   25*NorthernHemispheres_mvl/mxv
 BYTE   W01
 BYTE   VOL   25*NorthernHemispheres_mvl/mxv
 BYTE   W01
 BYTE   VOL   25*NorthernHemispheres_mvl/mxv
 BYTE   W01
 BYTE   VOL   24*NorthernHemispheres_mvl/mxv
 BYTE   W01
 BYTE   VOL   24*NorthernHemispheres_mvl/mxv
 BYTE   W01
 BYTE   VOL   24*NorthernHemispheres_mvl/mxv
 BYTE   W01
 BYTE   VOL   23*NorthernHemispheres_mvl/mxv
 BYTE   W01
 BYTE   VOL   23*NorthernHemispheres_mvl/mxv
 BYTE   W01
 BYTE   VOL   22*NorthernHemispheres_mvl/mxv
 BYTE   W01
 BYTE   VOL   22*NorthernHemispheres_mvl/mxv
 BYTE   W01
 BYTE   VOL   22*NorthernHemispheres_mvl/mxv
 BYTE   W01
 BYTE   VOL   21*NorthernHemispheres_mvl/mxv
 BYTE   W01
 BYTE   VOL   21*NorthernHemispheres_mvl/mxv
 BYTE   W01
 BYTE   VOL   20*NorthernHemispheres_mvl/mxv
 BYTE   W01
 BYTE   VOL   20*NorthernHemispheres_mvl/mxv
 BYTE   W01
 BYTE   VOL   20*NorthernHemispheres_mvl/mxv
 BYTE   W01
 BYTE   VOL   19*NorthernHemispheres_mvl/mxv
 BYTE   W01
 BYTE   VOL   19*NorthernHemispheres_mvl/mxv
 BYTE   W01
 BYTE   VOL   18*NorthernHemispheres_mvl/mxv
 BYTE   W01
 BYTE   VOL   18*NorthernHemispheres_mvl/mxv
 BYTE   W01
 BYTE   VOL   18*NorthernHemispheres_mvl/mxv
 BYTE   W01
 BYTE   VOL   17*NorthernHemispheres_mvl/mxv
 BYTE   W01
 BYTE   VOL   17*NorthernHemispheres_mvl/mxv
 BYTE   W01
 BYTE   VOL   16*NorthernHemispheres_mvl/mxv
 BYTE   W01
 BYTE   VOL   16*NorthernHemispheres_mvl/mxv
 BYTE   W01
 BYTE   VOL   16*NorthernHemispheres_mvl/mxv
 BYTE   W01
 BYTE   VOL   15*NorthernHemispheres_mvl/mxv
 BYTE   W01
 BYTE   VOL   15*NorthernHemispheres_mvl/mxv
 BYTE   W01
 BYTE   VOL   14*NorthernHemispheres_mvl/mxv
 BYTE   W01
 BYTE   VOL   14*NorthernHemispheres_mvl/mxv
 BYTE   W01
 BYTE   VOL   14*NorthernHemispheres_mvl/mxv
 BYTE   W01
 BYTE   VOL   13*NorthernHemispheres_mvl/mxv
 BYTE   W01
 BYTE   VOL   13*NorthernHemispheres_mvl/mxv
 BYTE   W01
 BYTE   VOL   12*NorthernHemispheres_mvl/mxv
 BYTE   W01
 BYTE   VOL   12*NorthernHemispheres_mvl/mxv
 BYTE   W01
 BYTE   PEND 
//  #03 //024   ----------------------------------------
 BYTE   CnM1
 BYTE   W96
//  #03 //025   ----------------------------------------
 BYTE   W96
//  #03 //026   ----------------------------------------
 BYTE   PATT
  POIN2 Label_0141F34A
//  #03 //027   ----------------------------------------
 BYTE   VOL   12*NorthernHemispheres_mvl/mxv
 BYTE   W96
//  #03 //028   ----------------------------------------
 BYTE   VOL   29*NorthernHemispheres_mvl/mxv
 BYTE   W96
//  #03 //029   ----------------------------------------
 BYTE   N96  Gn3  v127
 BYTE   N96  Cn4
 BYTE   W96
//  #03 //030   ----------------------------------------
 BYTE   Ds4
 BYTE   N96  Gn4
 BYTE   W96
//  #03 //031   ----------------------------------------
 BYTE   PATT
  POIN2 Label_0141F221
//  #03 //032   ----------------------------------------
 BYTE   PATT
  POIN2 Label_0141F228
//  #03 //033   ----------------------------------------
 BYTE   EOT
 BYTE   Dn4  v077
 BYTE   VOL   0*NorthernHemispheres_mvl/mxv
 BYTE   W24
//  #03 //034   ----------------------------------------
 BYTE   PATT
  POIN2 Label_0141F307
//  #03 //035   ----------------------------------------
 BYTE   N96  Cn4  v127
 BYTE   N96  Ds4
 BYTE   W96
//  #03 //036   ----------------------------------------
 BYTE   PATT
  POIN2 Label_0141F314
//  #03 //037   ----------------------------------------
 BYTE   W96
//  #03 //038   ----------------------------------------
 BYTE   EOT
 BYTE   Fs3  v072
 BYTE   Cn5
 BYTE   GoTo
  POIN2 Label_0141F322
//  #03 //039   ----------------------------------------
 BYTE   PATT
  POIN2 Label_0141F322
//  #03 //040   ----------------------------------------
 BYTE   W48
 BYTE   EOT
 BYTE   Gn3
 BYTE   TIE  Gs3  v127
 BYTE   W48
//  #03 //041   ----------------------------------------
 BYTE   Fs4
 BYTE   W96
//  #03 //042   ----------------------------------------
 BYTE   W96
//  #03 //043   ----------------------------------------
 BYTE   EOT
 BYTE   Cn3  v068
 BYTE   Fs4
 BYTE   W96
//  #03 //044   ----------------------------------------
 BYTE   W96
//  #03 //045   ----------------------------------------
 BYTE   W96
//  #03 //046   ----------------------------------------
 BYTE   W96
//  #03 //047   ----------------------------------------
 BYTE   W96
//  #03 //048   ----------------------------------------
 BYTE   W96
//  #03 //049   ----------------------------------------
 BYTE   W96
//  #03 //050   ----------------------------------------
 BYTE   W96
//  #03 //051   ----------------------------------------
 BYTE   W96
//  #03 //052   ----------------------------------------
 BYTE   PATT
  POIN2 Label_0141F33E
//  #03 //053   ----------------------------------------
 BYTE   PATT
  POIN2 Label_0141F34A
//  #03 //054   ----------------------------------------
 BYTE   VOL   12*NorthernHemispheres_mvl/mxv
 BYTE   W96
//  #03 //055   ----------------------------------------
 BYTE   W96
//  #03 //056   ----------------------------------------
 BYTE   PATT
  POIN2 Label_0141F34A
//  #03 //057   ----------------------------------------
 BYTE   VOL   12*NorthernHemispheres_mvl/mxv
 BYTE   W96
 BYTE   FINE

//**************** Track 4 (Midi-Chn.3) ****************//

NorthernHemispheres_004:
//  #04 //000   ----------------------------------------
 BYTE   KEYSH   NorthernHemispheres_key+0
 BYTE   VOICE   1
 BYTE   VOL   23*NorthernHemispheres_mvl/mxv
 BYTE   PAN   c_v+0
 BYTE   W96
//  #04 //001   ----------------------------------------
Label_0156DDC5:
 BYTE   W48
 BYTE   N06  Gn5  v127
 BYTE   W18
 BYTE   Gn5  v108
 BYTE   W18
 BYTE   Gn5  v092
 BYTE   W12
 BYTE   PEND 
//  #04 //002   ----------------------------------------
 BYTE   W06
 BYTE   Gn5  v076
 BYTE   W90
//  #04 //003   ----------------------------------------
Label_0156DDD5:
 BYTE   N06  Fn5  v127
 BYTE   W18
 BYTE   Fn5  v108
 BYTE   W18
 BYTE   Fn5  v092
 BYTE   W18
 BYTE   Fn5  v076
 BYTE   W42
 BYTE   PEND 
//  #04 //004   ----------------------------------------
 BYTE   W96
//  #04 //005   ----------------------------------------
Label_0156DDE4:
 BYTE   W48
 BYTE   N06  Ds5  v127
 BYTE   W18
 BYTE   Ds5  v108
 BYTE   W18
 BYTE   Ds5  v092
 BYTE   W12
 BYTE   PEND 
//  #04 //006   ----------------------------------------
 BYTE   W06
 BYTE   Ds5  v076
 BYTE   W90
//  #04 //007   ----------------------------------------
Label_0156DDF4:
 BYTE   N06  Cn5  v127
 BYTE   N05  Cs5
 BYTE   W18
 BYTE   N06  Cn5  v108
 BYTE   N05  Cs5
 BYTE   W18
 BYTE   N06  Cn5  v092
 BYTE   N05  Cs5
 BYTE   W18
 BYTE   N06  Cn5  v076
 BYTE   N05  Cs5
 BYTE   W42
 BYTE   PEND 
//  #04 //008   ----------------------------------------
 BYTE   W96
//  #04 //009   ----------------------------------------
Label_0156DE0E:
 BYTE   W96
//  #04 //010   ----------------------------------------
 BYTE   W96
//  #04 //011   ----------------------------------------
 BYTE   W96
//  #04 //012   ----------------------------------------
 BYTE   W96
//  #04 //013   ----------------------------------------
Label_0156DE12:
 BYTE   N03  Cn5  v127
 BYTE   W03
 BYTE   Gn5
 BYTE   W03
 BYTE   Gs5
 BYTE   W03
 BYTE   Gn5
 BYTE   W03
 BYTE   Cn5
 BYTE   W03
 BYTE   Gn5
 BYTE   W03
 BYTE   Gs5
 BYTE   W03
 BYTE   Gn5
 BYTE   W03
 BYTE   Cn5
 BYTE   W03
 BYTE   Gn5
 BYTE   W03
 BYTE   Gs5
 BYTE   W03
 BYTE   Gn5
 BYTE   W03
 BYTE   Cn5
 BYTE   W03
 BYTE   Gn5
 BYTE   W03
 BYTE   Fn5
 BYTE   W03
 BYTE   Gn5
 BYTE   W03
 BYTE   Cn5
 BYTE   W03
 BYTE   Gn5
 BYTE   W03
 BYTE   Gs5
 BYTE   W03
 BYTE   Gn5
 BYTE   W03
 BYTE   Cn5
 BYTE   W03
 BYTE   Gn5
 BYTE   W03
 BYTE   Gs5
 BYTE   W03
 BYTE   Gn5
 BYTE   W03
 BYTE   Cn5
 BYTE   W03
 BYTE   Gn5
 BYTE   W03
 BYTE   Gs5
 BYTE   W03
 BYTE   Gn5
 BYTE   W03
 BYTE   Cn5
 BYTE   W03
 BYTE   Gn5
 BYTE   W03
 BYTE   Fn5
 BYTE   W03
 BYTE   Gn5
 BYTE   W03
 BYTE   PEND 
//  #04 //014   ----------------------------------------
 BYTE   W96
//  #04 //015   ----------------------------------------
 BYTE   W96
//  #04 //016   ----------------------------------------
 BYTE   W96
//  #04 //017   ----------------------------------------
 BYTE   W96
//  #04 //018   ----------------------------------------
 BYTE   W96
//  #04 //019   ----------------------------------------
 BYTE   W96
//  #04 //020   ----------------------------------------
 BYTE   W96
//  #04 //021   ----------------------------------------
 BYTE   W96
//  #04 //022   ----------------------------------------
 BYTE   W96
//  #04 //023   ----------------------------------------
 BYTE   W96
//  #04 //024   ----------------------------------------
 BYTE   W96
//  #04 //025   ----------------------------------------
 BYTE   W96
//  #04 //026   ----------------------------------------
 BYTE   W96
//  #04 //027   ----------------------------------------
 BYTE   W96
//  #04 //028   ----------------------------------------
 BYTE   W96
//  #04 //029   ----------------------------------------
 BYTE   PATT
  POIN2 Label_0156DDC5
//  #04 //030   ----------------------------------------
 BYTE   W06
 BYTE   N06  Gn5  v076
 BYTE   W90
//  #04 //031   ----------------------------------------
 BYTE   PATT
  POIN2 Label_0156DDD5
//  #04 //032   ----------------------------------------
 BYTE   W96
//  #04 //033   ----------------------------------------
 BYTE   PATT
  POIN2 Label_0156DDE4
//  #04 //034   ----------------------------------------
 BYTE   W06
 BYTE   N06  Ds5  v076
 BYTE   W90
//  #04 //035   ----------------------------------------
 BYTE   PATT
  POIN2 Label_0156DDF4
//  #04 //036   ----------------------------------------
 BYTE   W96
//  #04 //037   ----------------------------------------
 BYTE   GoTo
  POIN2 Label_0156DE0E
//  #04 //038   ----------------------------------------
 BYTE   W96
//  #04 //039   ----------------------------------------
 BYTE   W96
//  #04 //040   ----------------------------------------
 BYTE   W96
//  #04 //041   ----------------------------------------
 BYTE   W96
//  #04 //042   ----------------------------------------
 BYTE   PATT
  POIN2 Label_0156DE12
//  #04 //043   ----------------------------------------
 BYTE   W96
//  #04 //044   ----------------------------------------
 BYTE   W96
//  #04 //045   ----------------------------------------
 BYTE   W96
//  #04 //046   ----------------------------------------
 BYTE   W96
//  #04 //047   ----------------------------------------
 BYTE   W96
//  #04 //048   ----------------------------------------
 BYTE   W96
//  #04 //049   ----------------------------------------
 BYTE   W96
//  #04 //050   ----------------------------------------
 BYTE   W96
//  #04 //051   ----------------------------------------
 BYTE   W96
//  #04 //052   ----------------------------------------
 BYTE   W96
//  #04 //053   ----------------------------------------
 BYTE   W96
//  #04 //054   ----------------------------------------
 BYTE   W96
//  #04 //055   ----------------------------------------
 BYTE   W96
//  #04 //056   ----------------------------------------
 BYTE   W96
 BYTE   FINE

//**************** Track 5 (Midi-Chn.4) ****************//

NorthernHemispheres_005:
//  #05 //000   ----------------------------------------
 BYTE   KEYSH   NorthernHemispheres_key+0
 BYTE   VOICE   38
 BYTE   VOL   50*NorthernHemispheres_mvl/mxv
 BYTE   PAN   c_v+0
 BYTE   W96
//  #05 //001   ----------------------------------------
 BYTE   W96
//  #05 //002   ----------------------------------------
 BYTE   W96
//  #05 //003   ----------------------------------------
 BYTE   W96
//  #05 //004   ----------------------------------------
 BYTE   W96
//  #05 //005   ----------------------------------------
 BYTE   W96
//  #05 //006   ----------------------------------------
 BYTE   W96
//  #05 //007   ----------------------------------------
 BYTE   W96
//  #05 //008   ----------------------------------------
 BYTE   W96
//  #05 //009   ----------------------------------------
Label_0141ECCD:
 BYTE   W96
//  #05 //010   ----------------------------------------
 BYTE   W96
//  #05 //011   ----------------------------------------
 BYTE   W96
//  #05 //012   ----------------------------------------
 BYTE   W96
//  #05 //013   ----------------------------------------
Label_0141ECD1:
 BYTE   N03  Cn1  v112
 BYTE   W06
 BYTE   N03
 BYTE   W06
 BYTE   N03
 BYTE   W06
 BYTE   N03
 BYTE   W06
 BYTE   Cs1
 BYTE   W06
 BYTE   N03
 BYTE   W06
 BYTE   N03
 BYTE   W06
 BYTE   N03
 BYTE   W06
 BYTE   Cn1
 BYTE   W06
 BYTE   N03
 BYTE   W06
 BYTE   N03
 BYTE   W06
 BYTE   N03
 BYTE   W06
 BYTE   Cs1
 BYTE   W06
 BYTE   N03
 BYTE   W06
 BYTE   N03
 BYTE   W06
 BYTE   N03
 BYTE   W06
 BYTE   PEND 
//  #05 //014   ----------------------------------------
Label_0141ECF4:
 BYTE   N03  Cn1  v112
 BYTE   W06
 BYTE   N03
 BYTE   W06
 BYTE   N03
 BYTE   W06
 BYTE   N03
 BYTE   W06
 BYTE   N03
 BYTE   W06
 BYTE   N03
 BYTE   W06
 BYTE   N03
 BYTE   W06
 BYTE   N03
 BYTE   W06
 BYTE   N03
 BYTE   W06
 BYTE   N03
 BYTE   W06
 BYTE   N03
 BYTE   W06
 BYTE   N03
 BYTE   W06
 BYTE   N03
 BYTE   W06
 BYTE   N03
 BYTE   W06
 BYTE   N03
 BYTE   W06
 BYTE   N03
 BYTE   W06
 BYTE   PEND 
//  #05 //015   ----------------------------------------
Label_0141ED17:
 BYTE   N03  As0  v112
 BYTE   W06
 BYTE   N03
 BYTE   W06
 BYTE   N03
 BYTE   W06
 BYTE   N03
 BYTE   W06
 BYTE   N03
 BYTE   W06
 BYTE   N03
 BYTE   W06
 BYTE   N03
 BYTE   W06
 BYTE   N03
 BYTE   W06
 BYTE   N03
 BYTE   W06
 BYTE   N03
 BYTE   W06
 BYTE   N03
 BYTE   W06
 BYTE   N03
 BYTE   W06
 BYTE   N03
 BYTE   W06
 BYTE   N03
 BYTE   W06
 BYTE   N03
 BYTE   W06
 BYTE   N03
 BYTE   W06
 BYTE   PEND 
//  #05 //016   ----------------------------------------
Label_0141ED3A:
 BYTE   N03  Gs0  v112
 BYTE   W06
 BYTE   N03
 BYTE   W06
 BYTE   N03
 BYTE   W06
 BYTE   N03
 BYTE   W06
 BYTE   N03
 BYTE   W06
 BYTE   N03
 BYTE   W06
 BYTE   N03
 BYTE   W06
 BYTE   N03
 BYTE   W06
 BYTE   N03
 BYTE   W06
 BYTE   N03
 BYTE   W06
 BYTE   N03
 BYTE   W06
 BYTE   N03
 BYTE   W06
 BYTE   N03
 BYTE   W06
 BYTE   N03
 BYTE   W06
 BYTE   N03
 BYTE   W06
 BYTE   N03
 BYTE   W06
 BYTE   PEND 
//  #05 //017   ----------------------------------------
Label_0141ED5D:
 BYTE   N03  Gn0  v112
 BYTE   W06
 BYTE   N03
 BYTE   W06
 BYTE   N03
 BYTE   W06
 BYTE   N03
 BYTE   W06
 BYTE   N03
 BYTE   W06
 BYTE   N03
 BYTE   W06
 BYTE   N03
 BYTE   W06
 BYTE   N03
 BYTE   W06
 BYTE   N03
 BYTE   W06
 BYTE   N03
 BYTE   W06
 BYTE   N03
 BYTE   W06
 BYTE   N03
 BYTE   W06
 BYTE   N03
 BYTE   W06
 BYTE   N03
 BYTE   W06
 BYTE   N03
 BYTE   W06
 BYTE   N03
 BYTE   W06
 BYTE   PEND 
//  #05 //018   ----------------------------------------
Label_0141ED80:
 BYTE   N03  Cn0  v112
 BYTE   W06
 BYTE   N03
 BYTE   W06
 BYTE   N03
 BYTE   W06
 BYTE   N03
 BYTE   W06
 BYTE   N03
 BYTE   W06
 BYTE   N03
 BYTE   W06
 BYTE   N03
 BYTE   W06
 BYTE   N03
 BYTE   W06
 BYTE   N03
 BYTE   W06
 BYTE   N03
 BYTE   W06
 BYTE   N03
 BYTE   W06
 BYTE   N03
 BYTE   W06
 BYTE   N03
 BYTE   W06
 BYTE   N03
 BYTE   W06
 BYTE   N03
 BYTE   W06
 BYTE   N03
 BYTE   W06
 BYTE   PEND 
//  #05 //019   ----------------------------------------
 BYTE   PATT
  POIN2 Label_0141ED80
//  #05 //020   ----------------------------------------
 BYTE   PATT
  POIN2 Label_0141ED17
//  #05 //021   ----------------------------------------
 BYTE   PATT
  POIN2 Label_0141ED3A
//  #05 //022   ----------------------------------------
Label_0141EDB2:
 BYTE   N03  Cn0  v112
 BYTE   W06
 BYTE   N03
 BYTE   W06
 BYTE   N03
 BYTE   W06
 BYTE   N03
 BYTE   W06
 BYTE   N03
 BYTE   W06
 BYTE   N03
 BYTE   W06
 BYTE   N03
 BYTE   W06
 BYTE   N03
 BYTE   W06
 BYTE   As0
 BYTE   W06
 BYTE   N03
 BYTE   W06
 BYTE   N03
 BYTE   W06
 BYTE   N03
 BYTE   W06
 BYTE   N03
 BYTE   W06
 BYTE   N03
 BYTE   W06
 BYTE   N03
 BYTE   W06
 BYTE   N03
 BYTE   W06
 BYTE   PEND 
//  #05 //023   ----------------------------------------
 BYTE   PATT
  POIN2 Label_0141ED3A
//  #05 //024   ----------------------------------------
Label_0141EDDA:
 BYTE   N03  Ds0  v112
 BYTE   W06
 BYTE   N03
 BYTE   W06
 BYTE   N03
 BYTE   W06
 BYTE   N03
 BYTE   W06
 BYTE   N03
 BYTE   W06
 BYTE   N03
 BYTE   W06
 BYTE   N03
 BYTE   W06
 BYTE   N03
 BYTE   W06
 BYTE   Cs1
 BYTE   W06
 BYTE   N03
 BYTE   W06
 BYTE   N03
 BYTE   W06
 BYTE   N03
 BYTE   W06
 BYTE   N03
 BYTE   W06
 BYTE   N03
 BYTE   W06
 BYTE   N03
 BYTE   W06
 BYTE   N03
 BYTE   W06
 BYTE   PEND 
//  #05 //025   ----------------------------------------
Label_0141EDFD:
 BYTE   N03  Bn0  v112
 BYTE   W06
 BYTE   N03
 BYTE   W06
 BYTE   N03
 BYTE   W06
 BYTE   N03
 BYTE   W06
 BYTE   N03
 BYTE   W06
 BYTE   N03
 BYTE   W06
 BYTE   N03
 BYTE   W06
 BYTE   N03
 BYTE   W06
 BYTE   N03
 BYTE   W06
 BYTE   N03
 BYTE   W06
 BYTE   N03
 BYTE   W06
 BYTE   N03
 BYTE   W06
 BYTE   N03
 BYTE   W06
 BYTE   N03
 BYTE   W06
 BYTE   N03
 BYTE   W06
 BYTE   N03
 BYTE   W06
 BYTE   PEND 
//  #05 //026   ----------------------------------------
 BYTE   PATT
  POIN2 Label_0141EDB2
//  #05 //027   ----------------------------------------
Label_0141EE25:
 BYTE   N03  Gs0  v112
 BYTE   W06
 BYTE   N03
 BYTE   W06
 BYTE   N03
 BYTE   W06
 BYTE   N03
 BYTE   W06
 BYTE   N03
 BYTE   W06
 BYTE   N03
 BYTE   W06
 BYTE   N03
 BYTE   W06
 BYTE   N03
 BYTE   W06
 BYTE   Ds1
 BYTE   W06
 BYTE   N03
 BYTE   W06
 BYTE   N03
 BYTE   W06
 BYTE   N03
 BYTE   W06
 BYTE   Fn1
 BYTE   W06
 BYTE   N03
 BYTE   W06
 BYTE   N03
 BYTE   W06
 BYTE   N03
 BYTE   W06
 BYTE   PEND 
//  #05 //028   ----------------------------------------
 BYTE   W96
//  #05 //029   ----------------------------------------
 BYTE   W96
//  #05 //030   ----------------------------------------
 BYTE   W96
//  #05 //031   ----------------------------------------
 BYTE   W96
//  #05 //032   ----------------------------------------
 BYTE   W96
//  #05 //033   ----------------------------------------
 BYTE   W96
//  #05 //034   ----------------------------------------
 BYTE   W96
//  #05 //035   ----------------------------------------
 BYTE   W96
//  #05 //036   ----------------------------------------
 BYTE   W96
//  #05 //037   ----------------------------------------
 BYTE   GoTo
  POIN2 Label_0141ECCD
//  #05 //038   ----------------------------------------
 BYTE   W96
//  #05 //039   ----------------------------------------
 BYTE   W96
//  #05 //040   ----------------------------------------
 BYTE   W96
//  #05 //041   ----------------------------------------
 BYTE   W96
//  #05 //042   ----------------------------------------
 BYTE   PATT
  POIN2 Label_0141ECD1
//  #05 //043   ----------------------------------------
 BYTE   PATT
  POIN2 Label_0141ECF4
//  #05 //044   ----------------------------------------
 BYTE   PATT
  POIN2 Label_0141ED17
//  #05 //045   ----------------------------------------
 BYTE   PATT
  POIN2 Label_0141ED3A
//  #05 //046   ----------------------------------------
 BYTE   PATT
  POIN2 Label_0141ED5D
//  #05 //047   ----------------------------------------
 BYTE   PATT
  POIN2 Label_0141ED80
//  #05 //048   ----------------------------------------
 BYTE   PATT
  POIN2 Label_0141ED80
//  #05 //049   ----------------------------------------
 BYTE   PATT
  POIN2 Label_0141ED17
//  #05 //050   ----------------------------------------
 BYTE   PATT
  POIN2 Label_0141ED3A
//  #05 //051   ----------------------------------------
 BYTE   PATT
  POIN2 Label_0141EDB2
//  #05 //052   ----------------------------------------
 BYTE   PATT
  POIN2 Label_0141ED3A
//  #05 //053   ----------------------------------------
 BYTE   PATT
  POIN2 Label_0141EDDA
//  #05 //054   ----------------------------------------
 BYTE   PATT
  POIN2 Label_0141EDFD
//  #05 //055   ----------------------------------------
 BYTE   PATT
  POIN2 Label_0141EDB2
//  #05 //056   ----------------------------------------
 BYTE   PATT
  POIN2 Label_0141EE25
 BYTE   FINE

//**************** Track 6 (Midi-Chn.5) ****************//

NorthernHemispheres_006:
//  #06 //000   ----------------------------------------
 BYTE   KEYSH   NorthernHemispheres_key+0
 BYTE   VOICE   106
 BYTE   VOL   32*NorthernHemispheres_mvl/mxv
 BYTE   PAN   c_v+0
 BYTE   W96
//  #06 //001   ----------------------------------------
 BYTE   W96
//  #06 //002   ----------------------------------------
 BYTE   W96
//  #06 //003   ----------------------------------------
 BYTE   W96
//  #06 //004   ----------------------------------------
 BYTE   W96
//  #06 //005   ----------------------------------------
 BYTE   W96
//  #06 //006   ----------------------------------------
 BYTE   W96
//  #06 //007   ----------------------------------------
 BYTE   W96
//  #06 //008   ----------------------------------------
 BYTE   W96
//  #06 //009   ----------------------------------------
Label_0156E239:
 BYTE   W96
//  #06 //010   ----------------------------------------
 BYTE   W96
//  #06 //011   ----------------------------------------
 BYTE   W96
//  #06 //012   ----------------------------------------
 BYTE   W96
//  #06 //013   ----------------------------------------
Label_0156E23D:
 BYTE   N24  Cn1  v112
 BYTE   N24  Cn2
 BYTE   W24
 BYTE   Cs1
 BYTE   N24  Cs2
 BYTE   W24
 BYTE   Cn1
 BYTE   N24  Cn2
 BYTE   W24
 BYTE   Cs1
 BYTE   N24  Cs2
 BYTE   W24
 BYTE   PEND 
//  #06 //014   ----------------------------------------
 BYTE   N96  Cn1
 BYTE   N96  Cn2
 BYTE   W96
//  #06 //015   ----------------------------------------
 BYTE   As0
 BYTE   N96  As1
 BYTE   W96
//  #06 //016   ----------------------------------------
 BYTE   Gs0
 BYTE   N96  Gs1
 BYTE   W96
//  #06 //017   ----------------------------------------
 BYTE   Gn0
 BYTE   N96  Gn1
 BYTE   W96
//  #06 //018   ----------------------------------------
Label_0156E261:
 BYTE   TIE  Cn0  v112
 BYTE   TIE  Cn1
 BYTE   W96
 BYTE   PEND 
//  #06 //019   ----------------------------------------
 BYTE   W96
//  #06 //020   ----------------------------------------
 BYTE   EOT
 BYTE   Cn0  v036
 BYTE   N96  AsM1
 BYTE   N96  As0
 BYTE   W96
//  #06 //021   ----------------------------------------
 BYTE   GsM1
 BYTE   N96  Gs0
 BYTE   W96
//  #06 //022   ----------------------------------------
Label_0156E275:
 BYTE   N48  Cn1  v112
 BYTE   N48  Cn2
 BYTE   W48
 BYTE   As0
 BYTE   N48  As1
 BYTE   W48
 BYTE   PEND 
//  #06 //023   ----------------------------------------
 BYTE   N96  Gs0
 BYTE   N96  Gs1
 BYTE   W96
//  #06 //024   ----------------------------------------
Label_0156E285:
 BYTE   N48  Ds1  v112
 BYTE   N48  Ds2
 BYTE   W48
 BYTE   Cs1
 BYTE   N48  Cs2
 BYTE   W48
 BYTE   PEND 
//  #06 //025   ----------------------------------------
 BYTE   N96  Bn0
 BYTE   N96  Bn1
 BYTE   W96
//  #06 //026   ----------------------------------------
 BYTE   PATT
  POIN2 Label_0156E275
//  #06 //027   ----------------------------------------
Label_0156E29A:
 BYTE   N48  Gs0  v112
 BYTE   N48  Gs1
 BYTE   W48
 BYTE   N24  Ds1
 BYTE   N24  Ds2
 BYTE   W24
 BYTE   Fn1
 BYTE   N24  Fn2
 BYTE   W24
 BYTE   PEND 
//  #06 //028   ----------------------------------------
 BYTE   W96
//  #06 //029   ----------------------------------------
 BYTE   W96
//  #06 //030   ----------------------------------------
 BYTE   W96
//  #06 //031   ----------------------------------------
 BYTE   W96
//  #06 //032   ----------------------------------------
 BYTE   W96
//  #06 //033   ----------------------------------------
 BYTE   W96
//  #06 //034   ----------------------------------------
 BYTE   W96
//  #06 //035   ----------------------------------------
 BYTE   W96
//  #06 //036   ----------------------------------------
 BYTE   W96
//  #06 //037   ----------------------------------------
 BYTE   GoTo
  POIN2 Label_0156E239
//  #06 //038   ----------------------------------------
 BYTE   W96
//  #06 //039   ----------------------------------------
 BYTE   W96
//  #06 //040   ----------------------------------------
 BYTE   W96
//  #06 //041   ----------------------------------------
 BYTE   W96
//  #06 //042   ----------------------------------------
 BYTE   PATT
  POIN2 Label_0156E23D
//  #06 //043   ----------------------------------------
 BYTE   N96  Cn1  v112
 BYTE   N96  Cn2
 BYTE   W96
//  #06 //044   ----------------------------------------
 BYTE   As0
 BYTE   N96  As1
 BYTE   W96
//  #06 //045   ----------------------------------------
 BYTE   Gs0
 BYTE   N96  Gs1
 BYTE   W96
//  #06 //046   ----------------------------------------
 BYTE   Gn0
 BYTE   N96  Gn1
 BYTE   W96
//  #06 //047   ----------------------------------------
 BYTE   PATT
  POIN2 Label_0156E261
//  #06 //048   ----------------------------------------
 BYTE   W96
//  #06 //049   ----------------------------------------
 BYTE   EOT
 BYTE   Cn0  v036
 BYTE   N96  AsM1  v112
 BYTE   N96  As0
 BYTE   W96
//  #06 //050   ----------------------------------------
 BYTE   GsM1
 BYTE   N96  Gs0
 BYTE   W96
//  #06 //051   ----------------------------------------
 BYTE   PATT
  POIN2 Label_0156E275
//  #06 //052   ----------------------------------------
 BYTE   N96  Gs0  v112
 BYTE   N96  Gs1
 BYTE   W96
//  #06 //053   ----------------------------------------
 BYTE   PATT
  POIN2 Label_0156E285
//  #06 //054   ----------------------------------------
 BYTE   N96  Bn0  v112
 BYTE   N96  Bn1
 BYTE   W96
//  #06 //055   ----------------------------------------
 BYTE   PATT
  POIN2 Label_0156E275
//  #06 //056   ----------------------------------------
 BYTE   PATT
  POIN2 Label_0156E29A
 BYTE   FINE

//**************** Track 7 (Midi-Chn.6) ****************//

NorthernHemispheres_007:
//  #07 //000   ----------------------------------------
 BYTE   KEYSH   NorthernHemispheres_key+0
 BYTE   VOICE   106
 BYTE   VOL   29*NorthernHemispheres_mvl/mxv
 BYTE   PAN   c_v+0
 BYTE   W96
//  #07 //001   ----------------------------------------
 BYTE   W96
//  #07 //002   ----------------------------------------
 BYTE   W96
//  #07 //003   ----------------------------------------
 BYTE   W96
//  #07 //004   ----------------------------------------
 BYTE   W96
//  #07 //005   ----------------------------------------
 BYTE   W96
//  #07 //006   ----------------------------------------
 BYTE   W96
//  #07 //007   ----------------------------------------
 BYTE   W96
//  #07 //008   ----------------------------------------
 BYTE   W96
//  #07 //009   ----------------------------------------
Label_0141EFB9:
 BYTE   W96
//  #07 //010   ----------------------------------------
 BYTE   W96
//  #07 //011   ----------------------------------------
 BYTE   W96
//  #07 //012   ----------------------------------------
 BYTE   W96
//  #07 //013   ----------------------------------------
 BYTE   W96
//  #07 //014   ----------------------------------------
Label_0141EFBE:
 BYTE   N06  Cn4  v112
 BYTE   N06  Ds4
 BYTE   W12
 BYTE   Cn4
 BYTE   N06  Ds4
 BYTE   W12
 BYTE   Cn4
 BYTE   N06  Ds4
 BYTE   W12
 BYTE   Cn4
 BYTE   N06  Ds4
 BYTE   W12
 BYTE   Cn4
 BYTE   N06  Ds4
 BYTE   W12
 BYTE   Cn4
 BYTE   N06  Ds4
 BYTE   W12
 BYTE   Cn4
 BYTE   N06  Ds4
 BYTE   W12
 BYTE   Cn4
 BYTE   N06  Ds4
 BYTE   W12
 BYTE   PEND 
//  #07 //015   ----------------------------------------
Label_0141EFE1:
 BYTE   N06  As3  v112
 BYTE   N06  Dn4
 BYTE   W12
 BYTE   As3
 BYTE   N06  Dn4
 BYTE   W12
 BYTE   As3
 BYTE   N06  Dn4
 BYTE   W12
 BYTE   As3
 BYTE   N06  Dn4
 BYTE   W12
 BYTE   As3
 BYTE   N06  Dn4
 BYTE   W12
 BYTE   As3
 BYTE   N06  Dn4
 BYTE   W12
 BYTE   As3
 BYTE   N06  Dn4
 BYTE   W12
 BYTE   As3
 BYTE   N06  Dn4
 BYTE   W12
 BYTE   PEND 
//  #07 //016   ----------------------------------------
Label_0141F004:
 BYTE   N06  Gs3  v112
 BYTE   N06  Ds4
 BYTE   W12
 BYTE   Gs3
 BYTE   N06  Ds4
 BYTE   W12
 BYTE   Gs3
 BYTE   N06  Ds4
 BYTE   W12
 BYTE   Gs3
 BYTE   N06  Ds4
 BYTE   W12
 BYTE   Gs3
 BYTE   N06  Ds4
 BYTE   W12
 BYTE   Gs3
 BYTE   N06  Ds4
 BYTE   W12
 BYTE   Gs3
 BYTE   N06  Ds4
 BYTE   W12
 BYTE   Gs3
 BYTE   N06  Ds4
 BYTE   W12
 BYTE   PEND 
//  #07 //017   ----------------------------------------
Label_0141F027:
 BYTE   N06  Gn3  v112
 BYTE   N06  Dn4
 BYTE   W12
 BYTE   Gn3
 BYTE   N06  Dn4
 BYTE   W12
 BYTE   Gn3
 BYTE   N06  Dn4
 BYTE   W12
 BYTE   Gn3
 BYTE   N06  Dn4
 BYTE   W12
 BYTE   Gn3
 BYTE   N06  Dn4
 BYTE   W12
 BYTE   Gn3
 BYTE   N06  Dn4
 BYTE   W12
 BYTE   Gn3
 BYTE   N06  Dn4
 BYTE   W12
 BYTE   Gn3
 BYTE   N06  Dn4
 BYTE   W12
 BYTE   PEND 
//  #07 //018   ----------------------------------------
 BYTE   W96
//  #07 //019   ----------------------------------------
 BYTE   W96
//  #07 //020   ----------------------------------------
 BYTE   W96
//  #07 //021   ----------------------------------------
 BYTE   W96
//  #07 //022   ----------------------------------------
 BYTE   W96
//  #07 //023   ----------------------------------------
 BYTE   W96
//  #07 //024   ----------------------------------------
 BYTE   W96
//  #07 //025   ----------------------------------------
 BYTE   W96
//  #07 //026   ----------------------------------------
 BYTE   W96
//  #07 //027   ----------------------------------------
 BYTE   W96
//  #07 //028   ----------------------------------------
 BYTE   W96
//  #07 //029   ----------------------------------------
 BYTE   W96
//  #07 //030   ----------------------------------------
 BYTE   W96
//  #07 //031   ----------------------------------------
 BYTE   W96
//  #07 //032   ----------------------------------------
 BYTE   W96
//  #07 //033   ----------------------------------------
 BYTE   W96
//  #07 //034   ----------------------------------------
 BYTE   W96
//  #07 //035   ----------------------------------------
 BYTE   W96
//  #07 //036   ----------------------------------------
 BYTE   W96
//  #07 //037   ----------------------------------------
 BYTE   GoTo
  POIN2 Label_0141EFB9
//  #07 //038   ----------------------------------------
 BYTE   W96
//  #07 //039   ----------------------------------------
 BYTE   W96
//  #07 //040   ----------------------------------------
 BYTE   W96
//  #07 //041   ----------------------------------------
 BYTE   W96
//  #07 //042   ----------------------------------------
 BYTE   W96
//  #07 //043   ----------------------------------------
 BYTE   PATT
  POIN2 Label_0141EFBE
//  #07 //044   ----------------------------------------
 BYTE   PATT
  POIN2 Label_0141EFE1
//  #07 //045   ----------------------------------------
 BYTE   PATT
  POIN2 Label_0141F004
//  #07 //046   ----------------------------------------
 BYTE   PATT
  POIN2 Label_0141F027
//  #07 //047   ----------------------------------------
 BYTE   W96
//  #07 //048   ----------------------------------------
 BYTE   W96
//  #07 //049   ----------------------------------------
 BYTE   W96
//  #07 //050   ----------------------------------------
 BYTE   W96
//  #07 //051   ----------------------------------------
 BYTE   W96
//  #07 //052   ----------------------------------------
 BYTE   W96
//  #07 //053   ----------------------------------------
 BYTE   W96
//  #07 //054   ----------------------------------------
 BYTE   W96
//  #07 //055   ----------------------------------------
 BYTE   W96
//  #07 //056   ----------------------------------------
 BYTE   W96
 BYTE   FINE

//**************** Track 8 (Midi-Chn.7) ****************//

NorthernHemispheres_008:
//  #08 //000   ----------------------------------------
 BYTE   KEYSH   NorthernHemispheres_key+0
 BYTE   VOICE   106
 BYTE   VOL   32*NorthernHemispheres_mvl/mxv
 BYTE   PAN   c_v+0
 BYTE   VOL   32*NorthernHemispheres_mvl/mxv
 BYTE   W96
//  #08 //001   ----------------------------------------
 BYTE   W96
//  #08 //002   ----------------------------------------
 BYTE   W96
//  #08 //003   ----------------------------------------
 BYTE   W96
//  #08 //004   ----------------------------------------
 BYTE   W96
//  #08 //005   ----------------------------------------
 BYTE   W96
//  #08 //006   ----------------------------------------
 BYTE   W96
//  #08 //007   ----------------------------------------
 BYTE   W96
//  #08 //008   ----------------------------------------
 BYTE   W96
//  #08 //009   ----------------------------------------
Label_0141EA8B:
 BYTE   W96
//  #08 //010   ----------------------------------------
 BYTE   W96
//  #08 //011   ----------------------------------------
 BYTE   W96
//  #08 //012   ----------------------------------------
 BYTE   W96
//  #08 //013   ----------------------------------------
 BYTE   W96
//  #08 //014   ----------------------------------------
 BYTE   W96
//  #08 //015   ----------------------------------------
Label_0141EA91:
 BYTE   N06  As4  v127
 BYTE   W06
 BYTE   N01  Bn4
 BYTE   W01
 BYTE   N40  Cn5
 BYTE   W40
 BYTE   W01
 BYTE   N48  Cn4
 BYTE   W48
 BYTE   PEND 
//  #08 //016   ----------------------------------------
Label_0141EAA0:
 BYTE   N06  As3  v127
 BYTE   W06
 BYTE   N01  Bn3
 BYTE   W01
 BYTE   N88  Cn4
 BYTE   W01
 BYTE   VOL   31*NorthernHemispheres_mvl/mxv
 BYTE   W01
 BYTE   VOL   31*NorthernHemispheres_mvl/mxv
 BYTE   W01
 BYTE   VOL   30*NorthernHemispheres_mvl/mxv
 BYTE   W01
 BYTE   VOL   30*NorthernHemispheres_mvl/mxv
 BYTE   W01
 BYTE   VOL   30*NorthernHemispheres_mvl/mxv
 BYTE   W01
 BYTE   VOL   29*NorthernHemispheres_mvl/mxv
 BYTE   W01
 BYTE   VOL   28*NorthernHemispheres_mvl/mxv
 BYTE   W01
 BYTE   VOL   28*NorthernHemispheres_mvl/mxv
 BYTE   W01
 BYTE   VOL   28*NorthernHemispheres_mvl/mxv
 BYTE   W01
 BYTE   VOL   27*NorthernHemispheres_mvl/mxv
 BYTE   W01
 BYTE   VOL   27*NorthernHemispheres_mvl/mxv
 BYTE   W01
 BYTE   VOL   26*NorthernHemispheres_mvl/mxv
 BYTE   W01
 BYTE   VOL   26*NorthernHemispheres_mvl/mxv
 BYTE   W01
 BYTE   VOL   26*NorthernHemispheres_mvl/mxv
 BYTE   W01
 BYTE   VOL   25*NorthernHemispheres_mvl/mxv
 BYTE   W01
 BYTE   VOL   25*NorthernHemispheres_mvl/mxv
 BYTE   W01
 BYTE   VOL   24*NorthernHemispheres_mvl/mxv
 BYTE   W01
 BYTE   VOL   24*NorthernHemispheres_mvl/mxv
 BYTE   W01
 BYTE   VOL   24*NorthernHemispheres_mvl/mxv
 BYTE   W01
 BYTE   VOL   23*NorthernHemispheres_mvl/mxv
 BYTE   W01
 BYTE   VOL   22*NorthernHemispheres_mvl/mxv
 BYTE   W01
 BYTE   VOL   22*NorthernHemispheres_mvl/mxv
 BYTE   W01
 BYTE   VOL   22*NorthernHemispheres_mvl/mxv
 BYTE   W01
 BYTE   VOL   21*NorthernHemispheres_mvl/mxv
 BYTE   W01
 BYTE   VOL   21*NorthernHemispheres_mvl/mxv
 BYTE   W01
 BYTE   VOL   20*NorthernHemispheres_mvl/mxv
 BYTE   W01
 BYTE   VOL   20*NorthernHemispheres_mvl/mxv
 BYTE   W01
 BYTE   VOL   20*NorthernHemispheres_mvl/mxv
 BYTE   W01
 BYTE   VOL   19*NorthernHemispheres_mvl/mxv
 BYTE   W01
 BYTE   VOL   19*NorthernHemispheres_mvl/mxv
 BYTE   W01
 BYTE   VOL   19*NorthernHemispheres_mvl/mxv
 BYTE   W01
 BYTE   VOL   18*NorthernHemispheres_mvl/mxv
 BYTE   W01
 BYTE   VOL   18*NorthernHemispheres_mvl/mxv
 BYTE   W01
 BYTE   VOL   17*NorthernHemispheres_mvl/mxv
 BYTE   W01
 BYTE   VOL   17*NorthernHemispheres_mvl/mxv
 BYTE   W01
 BYTE   VOL   16*NorthernHemispheres_mvl/mxv
 BYTE   W01
 BYTE   VOL   16*NorthernHemispheres_mvl/mxv
 BYTE   W01
 BYTE   VOL   15*NorthernHemispheres_mvl/mxv
 BYTE   W01
 BYTE   VOL   15*NorthernHemispheres_mvl/mxv
 BYTE   W01
 BYTE   VOL   15*NorthernHemispheres_mvl/mxv
 BYTE   W01
 BYTE   VOL   14*NorthernHemispheres_mvl/mxv
 BYTE   W01
 BYTE   VOL   14*NorthernHemispheres_mvl/mxv
 BYTE   W01
 BYTE   VOL   13*NorthernHemispheres_mvl/mxv
 BYTE   W01
 BYTE   VOL   13*NorthernHemispheres_mvl/mxv
 BYTE   W01
 BYTE   VOL   13*NorthernHemispheres_mvl/mxv
 BYTE   W01
 BYTE   VOL   12*NorthernHemispheres_mvl/mxv
 BYTE   W01
 BYTE   VOL   12*NorthernHemispheres_mvl/mxv
 BYTE   W01
 BYTE   VOL   11*NorthernHemispheres_mvl/mxv
 BYTE   W01
 BYTE   VOL   11*NorthernHemispheres_mvl/mxv
 BYTE   W01
 BYTE   VOL   10*NorthernHemispheres_mvl/mxv
 BYTE   W01
 BYTE   VOL   10*NorthernHemispheres_mvl/mxv
 BYTE   W01
 BYTE   VOL   9*NorthernHemispheres_mvl/mxv
 BYTE   W01
 BYTE   VOL   9*NorthernHemispheres_mvl/mxv
 BYTE   W01
 BYTE   VOL   9*NorthernHemispheres_mvl/mxv
 BYTE   W01
 BYTE   VOL   8*NorthernHemispheres_mvl/mxv
 BYTE   W01
 BYTE   VOL   8*NorthernHemispheres_mvl/mxv
 BYTE   W01
 BYTE   VOL   7*NorthernHemispheres_mvl/mxv
 BYTE   W01
 BYTE   VOL   7*NorthernHemispheres_mvl/mxv
 BYTE   W01
 BYTE   VOL   7*NorthernHemispheres_mvl/mxv
 BYTE   W01
 BYTE   VOL   6*NorthernHemispheres_mvl/mxv
 BYTE   W01
 BYTE   VOL   6*NorthernHemispheres_mvl/mxv
 BYTE   W01
 BYTE   VOL   5*NorthernHemispheres_mvl/mxv
 BYTE   W01
 BYTE   VOL   5*NorthernHemispheres_mvl/mxv
 BYTE   W01
 BYTE   VOL   4*NorthernHemispheres_mvl/mxv
 BYTE   W01
 BYTE   VOL   4*NorthernHemispheres_mvl/mxv
 BYTE   W01
 BYTE   VOL   4*NorthernHemispheres_mvl/mxv
 BYTE   W01
 BYTE   VOL   3*NorthernHemispheres_mvl/mxv
 BYTE   W01
 BYTE   VOL   3*NorthernHemispheres_mvl/mxv
 BYTE   W01
 BYTE   VOL   2*NorthernHemispheres_mvl/mxv
 BYTE   W01
 BYTE   VOL   2*NorthernHemispheres_mvl/mxv
 BYTE   W01
 BYTE   VOL   2*NorthernHemispheres_mvl/mxv
 BYTE   W01
 BYTE   VOL   1*NorthernHemispheres_mvl/mxv
 BYTE   W01
 BYTE   VOL   1*NorthernHemispheres_mvl/mxv
 BYTE   W01
 BYTE   VOL   0*NorthernHemispheres_mvl/mxv
 BYTE   W01
 BYTE   VOL   0*NorthernHemispheres_mvl/mxv
 BYTE   W01
 BYTE   VOL   0*NorthernHemispheres_mvl/mxv
 BYTE   W01
 BYTE   VOL   0*NorthernHemispheres_mvl/mxv
 BYTE   W01
 BYTE   VOL   0*NorthernHemispheres_mvl/mxv
 BYTE   W01
 BYTE   VOL   0*NorthernHemispheres_mvl/mxv
 BYTE   W01
 BYTE   VOL   0*NorthernHemispheres_mvl/mxv
 BYTE   W01
 BYTE   VOL   0*NorthernHemispheres_mvl/mxv
 BYTE   W01
 BYTE   VOL   0*NorthernHemispheres_mvl/mxv
 BYTE   W01
 BYTE   VOL   0*NorthernHemispheres_mvl/mxv
 BYTE   W01
 BYTE   VOL   0*NorthernHemispheres_mvl/mxv
 BYTE   W01
 BYTE   VOL   0*NorthernHemispheres_mvl/mxv
 BYTE   W01
 BYTE   VOL   0*NorthernHemispheres_mvl/mxv
 BYTE   W01
 BYTE   VOL   0*NorthernHemispheres_mvl/mxv
 BYTE   W01
 BYTE   VOL   0*NorthernHemispheres_mvl/mxv
 BYTE   W01
 BYTE   PEND 
//  #08 //017   ----------------------------------------
 BYTE   CnM1
 BYTE   W96
//  #08 //018   ----------------------------------------
 BYTE   W96
//  #08 //019   ----------------------------------------
 BYTE   W96
//  #08 //020   ----------------------------------------
 BYTE   W96
//  #08 //021   ----------------------------------------
 BYTE   W96
//  #08 //022   ----------------------------------------
 BYTE   W96
//  #08 //023   ----------------------------------------
 BYTE   W96
//  #08 //024   ----------------------------------------
 BYTE   W96
//  #08 //025   ----------------------------------------
 BYTE   W96
//  #08 //026   ----------------------------------------
 BYTE   W96
//  #08 //027   ----------------------------------------
 BYTE   W96
//  #08 //028   ----------------------------------------
 BYTE   Dn2
 BYTE   W96
//  #08 //029   ----------------------------------------
 BYTE   W96
//  #08 //030   ----------------------------------------
 BYTE   W96
//  #08 //031   ----------------------------------------
 BYTE   W96
//  #08 //032   ----------------------------------------
 BYTE   W96
//  #08 //033   ----------------------------------------
 BYTE   W96
//  #08 //034   ----------------------------------------
 BYTE   W96
//  #08 //035   ----------------------------------------
 BYTE   W96
//  #08 //036   ----------------------------------------
 BYTE   W96
//  #08 //037   ----------------------------------------
 BYTE   GoTo
  POIN2 Label_0141EA8B
//  #08 //038   ----------------------------------------
 BYTE   W96
//  #08 //039   ----------------------------------------
 BYTE   W96
//  #08 //040   ----------------------------------------
 BYTE   W96
//  #08 //041   ----------------------------------------
 BYTE   W96
//  #08 //042   ----------------------------------------
 BYTE   W96
//  #08 //043   ----------------------------------------
 BYTE   W96
//  #08 //044   ----------------------------------------
 BYTE   PATT
  POIN2 Label_0141EA91
//  #08 //045   ----------------------------------------
 BYTE   PATT
  POIN2 Label_0141EAA0
//  #08 //046   ----------------------------------------
 BYTE   VOL   0*NorthernHemispheres_mvl/mxv
 BYTE   W96
//  #08 //047   ----------------------------------------
 BYTE   W96
//  #08 //048   ----------------------------------------
 BYTE   W96
//  #08 //049   ----------------------------------------
 BYTE   W96
//  #08 //050   ----------------------------------------
 BYTE   W96
//  #08 //051   ----------------------------------------
 BYTE   W96
//  #08 //052   ----------------------------------------
 BYTE   W96
//  #08 //053   ----------------------------------------
 BYTE   W96
//  #08 //054   ----------------------------------------
 BYTE   W96
//  #08 //055   ----------------------------------------
 BYTE   W96
//  #08 //056   ----------------------------------------
 BYTE   W96
 BYTE   FINE

//**************** Track 9 (Midi-Chn.8) ****************//

NorthernHemispheres_009:
//  #09 //000   ----------------------------------------
 BYTE   KEYSH   NorthernHemispheres_key+0
 BYTE   VOICE   105
 BYTE   VOL   32*NorthernHemispheres_mvl/mxv
 BYTE   PAN   c_v+0
 BYTE   VOL   32*NorthernHemispheres_mvl/mxv
 BYTE   W96
//  #09 //001   ----------------------------------------
 BYTE   W96
//  #09 //002   ----------------------------------------
 BYTE   W96
//  #09 //003   ----------------------------------------
 BYTE   W96
//  #09 //004   ----------------------------------------
 BYTE   W96
//  #09 //005   ----------------------------------------
 BYTE   W96
//  #09 //006   ----------------------------------------
 BYTE   W96
//  #09 //007   ----------------------------------------
 BYTE   W96
//  #09 //008   ----------------------------------------
 BYTE   W96
//  #09 //009   ----------------------------------------
Label_0141F653:
 BYTE   W96
//  #09 //010   ----------------------------------------
 BYTE   W96
//  #09 //011   ----------------------------------------
 BYTE   W96
//  #09 //012   ----------------------------------------
 BYTE   W96
//  #09 //013   ----------------------------------------
 BYTE   W96
//  #09 //014   ----------------------------------------
 BYTE   W96
//  #09 //015   ----------------------------------------
 BYTE   W96
//  #09 //016   ----------------------------------------
 BYTE   W96
//  #09 //017   ----------------------------------------
 BYTE   W96
//  #09 //018   ----------------------------------------
 BYTE   W96
//  #09 //019   ----------------------------------------
 BYTE   W96
//  #09 //020   ----------------------------------------
 BYTE   W96
//  #09 //021   ----------------------------------------
 BYTE   W96
//  #09 //022   ----------------------------------------
 BYTE   W96
//  #09 //023   ----------------------------------------
 BYTE   W96
//  #09 //024   ----------------------------------------
Label_0141F662:
 BYTE   VOL   32*NorthernHemispheres_mvl/mxv
 BYTE   N48  Ds4  v127
 BYTE   W48
 BYTE   N24  Fn4
 BYTE   W24
 BYTE   Fs4
 BYTE   W24
 BYTE   PEND 
//  #09 //025   ----------------------------------------
Label_0141F66E:
 BYTE   VOL   32*NorthernHemispheres_mvl/mxv
 BYTE   N96  Ds4  v127
 BYTE   W01
 BYTE   VOL   31*NorthernHemispheres_mvl/mxv
 BYTE   W01
 BYTE   VOL   31*NorthernHemispheres_mvl/mxv
 BYTE   W01
 BYTE   VOL   30*NorthernHemispheres_mvl/mxv
 BYTE   W01
 BYTE   VOL   30*NorthernHemispheres_mvl/mxv
 BYTE   W01
 BYTE   VOL   30*NorthernHemispheres_mvl/mxv
 BYTE   W01
 BYTE   VOL   29*NorthernHemispheres_mvl/mxv
 BYTE   W01
 BYTE   VOL   29*NorthernHemispheres_mvl/mxv
 BYTE   W01
 BYTE   VOL   28*NorthernHemispheres_mvl/mxv
 BYTE   W01
 BYTE   VOL   28*NorthernHemispheres_mvl/mxv
 BYTE   W01
 BYTE   VOL   28*NorthernHemispheres_mvl/mxv
 BYTE   W01
 BYTE   VOL   27*NorthernHemispheres_mvl/mxv
 BYTE   W01
 BYTE   VOL   27*NorthernHemispheres_mvl/mxv
 BYTE   W01
 BYTE   VOL   26*NorthernHemispheres_mvl/mxv
 BYTE   W01
 BYTE   VOL   26*NorthernHemispheres_mvl/mxv
 BYTE   W01
 BYTE   VOL   26*NorthernHemispheres_mvl/mxv
 BYTE   W01
 BYTE   VOL   25*NorthernHemispheres_mvl/mxv
 BYTE   W01
 BYTE   VOL   25*NorthernHemispheres_mvl/mxv
 BYTE   W01
 BYTE   VOL   24*NorthernHemispheres_mvl/mxv
 BYTE   W01
 BYTE   VOL   24*NorthernHemispheres_mvl/mxv
 BYTE   W01
 BYTE   VOL   24*NorthernHemispheres_mvl/mxv
 BYTE   W01
 BYTE   VOL   23*NorthernHemispheres_mvl/mxv
 BYTE   W01
 BYTE   VOL   23*NorthernHemispheres_mvl/mxv
 BYTE   W01
 BYTE   VOL   22*NorthernHemispheres_mvl/mxv
 BYTE   W01
 BYTE   VOL   22*NorthernHemispheres_mvl/mxv
 BYTE   W01
 BYTE   VOL   22*NorthernHemispheres_mvl/mxv
 BYTE   W01
 BYTE   VOL   21*NorthernHemispheres_mvl/mxv
 BYTE   W01
 BYTE   VOL   21*NorthernHemispheres_mvl/mxv
 BYTE   W01
 BYTE   VOL   20*NorthernHemispheres_mvl/mxv
 BYTE   W01
 BYTE   VOL   20*NorthernHemispheres_mvl/mxv
 BYTE   W01
 BYTE   VOL   20*NorthernHemispheres_mvl/mxv
 BYTE   W01
 BYTE   VOL   19*NorthernHemispheres_mvl/mxv
 BYTE   W01
 BYTE   VOL   19*NorthernHemispheres_mvl/mxv
 BYTE   W01
 BYTE   VOL   19*NorthernHemispheres_mvl/mxv
 BYTE   W01
 BYTE   VOL   18*NorthernHemispheres_mvl/mxv
 BYTE   W01
 BYTE   VOL   18*NorthernHemispheres_mvl/mxv
 BYTE   W01
 BYTE   VOL   17*NorthernHemispheres_mvl/mxv
 BYTE   W01
 BYTE   VOL   17*NorthernHemispheres_mvl/mxv
 BYTE   W01
 BYTE   VOL   17*NorthernHemispheres_mvl/mxv
 BYTE   W01
 BYTE   VOL   16*NorthernHemispheres_mvl/mxv
 BYTE   W01
 BYTE   VOL   16*NorthernHemispheres_mvl/mxv
 BYTE   W01
 BYTE   VOL   15*NorthernHemispheres_mvl/mxv
 BYTE   W01
 BYTE   VOL   15*NorthernHemispheres_mvl/mxv
 BYTE   W01
 BYTE   VOL   15*NorthernHemispheres_mvl/mxv
 BYTE   W01
 BYTE   VOL   14*NorthernHemispheres_mvl/mxv
 BYTE   W01
 BYTE   VOL   14*NorthernHemispheres_mvl/mxv
 BYTE   W01
 BYTE   VOL   13*NorthernHemispheres_mvl/mxv
 BYTE   W01
 BYTE   VOL   13*NorthernHemispheres_mvl/mxv
 BYTE   W01
 BYTE   VOL   13*NorthernHemispheres_mvl/mxv
 BYTE   W01
 BYTE   VOL   12*NorthernHemispheres_mvl/mxv
 BYTE   W01
 BYTE   VOL   12*NorthernHemispheres_mvl/mxv
 BYTE   W01
 BYTE   VOL   11*NorthernHemispheres_mvl/mxv
 BYTE   W01
 BYTE   VOL   11*NorthernHemispheres_mvl/mxv
 BYTE   W01
 BYTE   VOL   11*NorthernHemispheres_mvl/mxv
 BYTE   W01
 BYTE   VOL   10*NorthernHemispheres_mvl/mxv
 BYTE   W01
 BYTE   VOL   10*NorthernHemispheres_mvl/mxv
 BYTE   W01
 BYTE   VOL   9*NorthernHemispheres_mvl/mxv
 BYTE   W01
 BYTE   VOL   9*NorthernHemispheres_mvl/mxv
 BYTE   W01
 BYTE   VOL   9*NorthernHemispheres_mvl/mxv
 BYTE   W01
 BYTE   VOL   8*NorthernHemispheres_mvl/mxv
 BYTE   W01
 BYTE   VOL   8*NorthernHemispheres_mvl/mxv
 BYTE   W01
 BYTE   VOL   7*NorthernHemispheres_mvl/mxv
 BYTE   W01
 BYTE   VOL   7*NorthernHemispheres_mvl/mxv
 BYTE   W01
 BYTE   VOL   7*NorthernHemispheres_mvl/mxv
 BYTE   W01
 BYTE   VOL   6*NorthernHemispheres_mvl/mxv
 BYTE   W01
 BYTE   VOL   6*NorthernHemispheres_mvl/mxv
 BYTE   W01
 BYTE   VOL   6*NorthernHemispheres_mvl/mxv
 BYTE   W01
 BYTE   VOL   5*NorthernHemispheres_mvl/mxv
 BYTE   W01
 BYTE   VOL   5*NorthernHemispheres_mvl/mxv
 BYTE   W01
 BYTE   VOL   4*NorthernHemispheres_mvl/mxv
 BYTE   W01
 BYTE   VOL   4*NorthernHemispheres_mvl/mxv
 BYTE   W01
 BYTE   VOL   4*NorthernHemispheres_mvl/mxv
 BYTE   W01
 BYTE   VOL   3*NorthernHemispheres_mvl/mxv
 BYTE   W01
 BYTE   VOL   3*NorthernHemispheres_mvl/mxv
 BYTE   W01
 BYTE   VOL   2*NorthernHemispheres_mvl/mxv
 BYTE   W01
 BYTE   VOL   2*NorthernHemispheres_mvl/mxv
 BYTE   W01
 BYTE   VOL   2*NorthernHemispheres_mvl/mxv
 BYTE   W01
 BYTE   VOL   1*NorthernHemispheres_mvl/mxv
 BYTE   W01
 BYTE   VOL   1*NorthernHemispheres_mvl/mxv
 BYTE   W01
 BYTE   VOL   0*NorthernHemispheres_mvl/mxv
 BYTE   W01
 BYTE   VOL   0*NorthernHemispheres_mvl/mxv
 BYTE   W01
 BYTE   VOL   0*NorthernHemispheres_mvl/mxv
 BYTE   W01
 BYTE   VOL   0*NorthernHemispheres_mvl/mxv
 BYTE   W01
 BYTE   VOL   0*NorthernHemispheres_mvl/mxv
 BYTE   W01
 BYTE   VOL   0*NorthernHemispheres_mvl/mxv
 BYTE   W01
 BYTE   VOL   0*NorthernHemispheres_mvl/mxv
 BYTE   W01
 BYTE   VOL   0*NorthernHemispheres_mvl/mxv
 BYTE   W01
 BYTE   VOL   0*NorthernHemispheres_mvl/mxv
 BYTE   W01
 BYTE   VOL   0*NorthernHemispheres_mvl/mxv
 BYTE   W01
 BYTE   VOL   0*NorthernHemispheres_mvl/mxv
 BYTE   W01
 BYTE   VOL   0*NorthernHemispheres_mvl/mxv
 BYTE   W01
 BYTE   VOL   0*NorthernHemispheres_mvl/mxv
 BYTE   W01
 BYTE   VOL   0*NorthernHemispheres_mvl/mxv
 BYTE   W01
 BYTE   VOL   0*NorthernHemispheres_mvl/mxv
 BYTE   W01
 BYTE   VOL   0*NorthernHemispheres_mvl/mxv
 BYTE   W01
 BYTE   VOL   0*NorthernHemispheres_mvl/mxv
 BYTE   W01
 BYTE   PEND 
//  #09 //026   ----------------------------------------
 BYTE   CnM1
 BYTE   W96
//  #09 //027   ----------------------------------------
 BYTE   W96
//  #09 //028   ----------------------------------------
 BYTE   Dn2
 BYTE   W96
//  #09 //029   ----------------------------------------
 BYTE   W96
//  #09 //030   ----------------------------------------
 BYTE   W96
//  #09 //031   ----------------------------------------
 BYTE   W96
//  #09 //032   ----------------------------------------
 BYTE   W96
//  #09 //033   ----------------------------------------
 BYTE   W96
//  #09 //034   ----------------------------------------
 BYTE   W96
//  #09 //035   ----------------------------------------
 BYTE   W96
//  #09 //036   ----------------------------------------
 BYTE   W96
//  #09 //037   ----------------------------------------
 BYTE   GoTo
  POIN2 Label_0141F653
//  #09 //038   ----------------------------------------
 BYTE   W96
//  #09 //039   ----------------------------------------
 BYTE   W96
//  #09 //040   ----------------------------------------
 BYTE   W96
//  #09 //041   ----------------------------------------
 BYTE   W96
//  #09 //042   ----------------------------------------
 BYTE   W96
//  #09 //043   ----------------------------------------
 BYTE   W96
//  #09 //044   ----------------------------------------
 BYTE   W96
//  #09 //045   ----------------------------------------
 BYTE   W96
//  #09 //046   ----------------------------------------
 BYTE   W96
//  #09 //047   ----------------------------------------
 BYTE   W96
//  #09 //048   ----------------------------------------
 BYTE   W96
//  #09 //049   ----------------------------------------
 BYTE   W96
//  #09 //050   ----------------------------------------
 BYTE   W96
//  #09 //051   ----------------------------------------
 BYTE   W96
//  #09 //052   ----------------------------------------
 BYTE   W96
//  #09 //053   ----------------------------------------
 BYTE   PATT
  POIN2 Label_0141F662
//  #09 //054   ----------------------------------------
 BYTE   PATT
  POIN2 Label_0141F66E
//  #09 //055   ----------------------------------------
 BYTE   VOL   0*NorthernHemispheres_mvl/mxv
 BYTE   W96
//  #09 //056   ----------------------------------------
 BYTE   W96
 BYTE   FINE

//**************** Track 10 (Midi-Chn.9) ****************//

NorthernHemispheres_010:
//  #10 //000   ----------------------------------------
 BYTE   KEYSH   NorthernHemispheres_key+0
 BYTE   VOICE   124
 BYTE   VOL   35*NorthernHemispheres_mvl/mxv
 BYTE   PAN   c_v+0
 BYTE   VOL   35*NorthernHemispheres_mvl/mxv
 BYTE   PAN   c_v+0
 BYTE   VOL   35*NorthernHemispheres_mvl/mxv
 BYTE   PAN   c_v+0
 BYTE   VOL   35*NorthernHemispheres_mvl/mxv
 BYTE   PAN   c_v+0
 BYTE   W96
//  #10 //001   ----------------------------------------
 BYTE   W96
//  #10 //002   ----------------------------------------
 BYTE   W96
//  #10 //003   ----------------------------------------
 BYTE   W96
//  #10 //004   ----------------------------------------
 BYTE   W96
//  #10 //005   ----------------------------------------
 BYTE   W96
//  #10 //006   ----------------------------------------
 BYTE   W96
//  #10 //007   ----------------------------------------
 BYTE   W96
//  #10 //008   ----------------------------------------
 BYTE   W96
//  #10 //009   ----------------------------------------
Label_0141F7F1:
 BYTE   N12  Cn1  v112
 BYTE   N06  Fs1
 BYTE   W06
 BYTE   Fs1  v076
 BYTE   W06
 BYTE   N12  Cn1  v112
 BYTE   N06  Fs1
 BYTE   W06
 BYTE   Fs1  v076
 BYTE   W06
 BYTE   N12  Cn1  v112
 BYTE   N06  Fs1
 BYTE   W06
 BYTE   Fs1  v076
 BYTE   W06
 BYTE   N12  Cn1  v112
 BYTE   N06  Fs1
 BYTE   W06
 BYTE   Fs1  v076
 BYTE   W06
 BYTE   N12  Cn1  v112
 BYTE   N06  Fs1
 BYTE   N03  An3  v127
 BYTE   W03
 BYTE   An3  v120
 BYTE   W03
 BYTE   N06  Fs1  v076
 BYTE   N03  An3  v116
 BYTE   W03
 BYTE   An3  v108
 BYTE   W03
 BYTE   N12  Cn1  v112
 BYTE   N06  Fs1
 BYTE   N03  An3  v100
 BYTE   W03
 BYTE   An3  v092
 BYTE   W03
 BYTE   N06  Fs1  v076
 BYTE   N03  An3  v088
 BYTE   W03
 BYTE   An3  v080
 BYTE   W03
 BYTE   N12  Cn1  v112
 BYTE   N06  Fs1
 BYTE   N03  An3  v072
 BYTE   W03
 BYTE   An3  v064
 BYTE   W03
 BYTE   N06  Fs1  v076
 BYTE   N03  An3  v060
 BYTE   W03
 BYTE   An3  v052
 BYTE   W03
 BYTE   N12  Cn1  v112
 BYTE   N06  Fs1
 BYTE   N03  An3  v044
 BYTE   W03
 BYTE   An3  v036
 BYTE   W03
 BYTE   N06  Fs1  v076
 BYTE   N03  An3  v028
 BYTE   W03
 BYTE   An3  v020
 BYTE   W03
 BYTE   PEND 
//  #10 //010   ----------------------------------------
Label_0141F86E:
 BYTE   N12  Cn1  v112
 BYTE   N06  Fs1
 BYTE   W06
 BYTE   Fs1  v076
 BYTE   W06
 BYTE   N12  Cn1  v112
 BYTE   N06  Fs1
 BYTE   W06
 BYTE   Fs1  v076
 BYTE   W06
 BYTE   N12  Cn1  v112
 BYTE   N06  Fs1
 BYTE   W06
 BYTE   Fs1  v076
 BYTE   W06
 BYTE   N12  Cn1  v112
 BYTE   N06  Fs1
 BYTE   W06
 BYTE   Fs1  v076
 BYTE   W06
 BYTE   N12  Cn1  v112
 BYTE   N06  Fs1
 BYTE   W06
 BYTE   Fs1  v076
 BYTE   W06
 BYTE   N12  Cn1  v112
 BYTE   N06  Fs1
 BYTE   W06
 BYTE   Fs1  v076
 BYTE   W06
 BYTE   N12  Cn1  v112
 BYTE   N06  Fs1
 BYTE   W06
 BYTE   Fs1  v076
 BYTE   W06
 BYTE   N12  Cn1  v112
 BYTE   N06  Fs1
 BYTE   W06
 BYTE   Fs1  v076
 BYTE   W06
 BYTE   PEND 
//  #10 //011   ----------------------------------------
 BYTE   PATT
  POIN2 Label_0141F7F1
//  #10 //012   ----------------------------------------
Label_0141F8BC:
 BYTE   N12  Cn1  v112
 BYTE   N06  Fs1
 BYTE   W06
 BYTE   Fs1  v076
 BYTE   W06
 BYTE   N12  Cn1  v112
 BYTE   N06  Fs1
 BYTE   W06
 BYTE   Fs1  v076
 BYTE   W06
 BYTE   N12  Cn1  v112
 BYTE   N06  Fs1
 BYTE   W06
 BYTE   Fs1  v076
 BYTE   W06
 BYTE   N12  Cn1  v112
 BYTE   N06  Fs1
 BYTE   W06
 BYTE   Fs1  v076
 BYTE   W06
 BYTE   N12  Cn1  v112
 BYTE   N06  Fs1
 BYTE   W06
 BYTE   Fs1  v076
 BYTE   W06
 BYTE   N12  Cn1  v112
 BYTE   N06  Fs1
 BYTE   W06
 BYTE   Fs1  v076
 BYTE   W06
 BYTE   N12  Cn1  v112
 BYTE   N06  Fs1
 BYTE   W06
 BYTE   Fs1  v076
 BYTE   W06
 BYTE   Dn1  v112
 BYTE   N06  Fs1
 BYTE   W06
 BYTE   Cn1
 BYTE   N06  Fs1  v076
 BYTE   W06
 BYTE   PEND 
//  #10 //013   ----------------------------------------
Label_0141F906:
 BYTE   N06  Cn1  v112
 BYTE   N06  Fs1
 BYTE   N12  Cs2
 BYTE   W06
 BYTE   N06  Cn1
 BYTE   N03  Fs1  v076
 BYTE   W03
 BYTE   N03
 BYTE   W03
 BYTE   N06  Fs1  v112
 BYTE   W06
 BYTE   Cn1
 BYTE   N03  Fs1  v076
 BYTE   W03
 BYTE   N03
 BYTE   W03
 BYTE   N06  Dn1  v112
 BYTE   N06  Fs1
 BYTE   W06
 BYTE   Cn1
 BYTE   N03  Fs1  v076
 BYTE   W03
 BYTE   N03
 BYTE   W03
 BYTE   N06  Fs1  v112
 BYTE   W06
 BYTE   Cn1
 BYTE   N03  Fs1  v076
 BYTE   W03
 BYTE   N03
 BYTE   W03
 BYTE   N06  Cn1  v112
 BYTE   N06  Fs1
 BYTE   W06
 BYTE   Cn1
 BYTE   N03  Fs1  v076
 BYTE   W03
 BYTE   N03
 BYTE   W03
 BYTE   N06  Fs1  v112
 BYTE   W06
 BYTE   Cn1
 BYTE   N03  Fs1  v076
 BYTE   W03
 BYTE   N03
 BYTE   W03
 BYTE   N06  Dn1  v112
 BYTE   N06  Fs1
 BYTE   W06
 BYTE   Cn1
 BYTE   N03  Fs1  v076
 BYTE   W03
 BYTE   N03
 BYTE   W03
 BYTE   N06  Fs1  v112
 BYTE   W06
 BYTE   Dn1
 BYTE   N03  Fs1  v076
 BYTE   W03
 BYTE   N03
 BYTE   W03
 BYTE   PEND 
//  #10 //014   ----------------------------------------
 BYTE   PATT
  POIN2 Label_0141F906
//  #10 //015   ----------------------------------------
Label_0141F96F:
 BYTE   N06  Cn1  v112
 BYTE   N06  Fs1
 BYTE   W06
 BYTE   Cn1
 BYTE   N03  Fs1  v076
 BYTE   W03
 BYTE   N03
 BYTE   W03
 BYTE   N06  Fs1  v112
 BYTE   W06
 BYTE   Cn1
 BYTE   N03  Fs1  v076
 BYTE   W03
 BYTE   N03
 BYTE   W03
 BYTE   N06  Dn1  v112
 BYTE   N06  Fs1
 BYTE   W06
 BYTE   Cn1
 BYTE   N03  Fs1  v076
 BYTE   W03
 BYTE   N03
 BYTE   W03
 BYTE   N06  Fs1  v112
 BYTE   W06
 BYTE   Cn1
 BYTE   N03  Fs1  v076
 BYTE   W03
 BYTE   N03
 BYTE   W03
 BYTE   N06  Cn1  v112
 BYTE   N06  Fs1
 BYTE   W06
 BYTE   Cn1
 BYTE   N03  Fs1  v076
 BYTE   W03
 BYTE   N03
 BYTE   W03
 BYTE   N06  Fs1  v112
 BYTE   W06
 BYTE   Cn1
 BYTE   N03  Fs1  v076
 BYTE   W03
 BYTE   N03
 BYTE   W03
 BYTE   N06  Dn1  v112
 BYTE   N06  Fs1
 BYTE   W06
 BYTE   Cn1
 BYTE   N03  Fs1  v076
 BYTE   W03
 BYTE   N03
 BYTE   W03
 BYTE   N06  Fs1  v112
 BYTE   W06
 BYTE   Dn1
 BYTE   N03  Fs1  v076
 BYTE   W03
 BYTE   N03
 BYTE   W03
 BYTE   PEND 
//  #10 //016   ----------------------------------------
 BYTE   PATT
  POIN2 Label_0141F906
//  #10 //017   ----------------------------------------
Label_0141F9D5:
 BYTE   N06  Cn1  v112
 BYTE   N06  Fs1
 BYTE   W06
 BYTE   Cn1
 BYTE   N03  Fs1  v076
 BYTE   W03
 BYTE   N03
 BYTE   W03
 BYTE   N06  Fs1  v112
 BYTE   W06
 BYTE   Cn1
 BYTE   N03  Fs1  v076
 BYTE   W03
 BYTE   N03
 BYTE   W03
 BYTE   N06  Dn1  v112
 BYTE   N06  Fs1
 BYTE   W06
 BYTE   Cn1
 BYTE   N03  Fs1  v076
 BYTE   W03
 BYTE   N03
 BYTE   W03
 BYTE   N06  Fs1  v112
 BYTE   W06
 BYTE   Cn1
 BYTE   N03  Fs1  v076
 BYTE   W03
 BYTE   N03
 BYTE   W03
 BYTE   N06  Cn1  v112
 BYTE   N06  Fs1
 BYTE   W06
 BYTE   Cn1
 BYTE   N03  Fs1  v076
 BYTE   W03
 BYTE   N03
 BYTE   W03
 BYTE   N06  Fs1  v112
 BYTE   W06
 BYTE   Cn1
 BYTE   N03  Fs1  v076
 BYTE   W03
 BYTE   N03
 BYTE   W03
 BYTE   N06  Dn1  v112
 BYTE   N06  Fs1
 BYTE   W06
 BYTE   Cn1
 BYTE   N03  Fs1  v076
 BYTE   W03
 BYTE   N03
 BYTE   W03
 BYTE   N06  Dn1  v112
 BYTE   N06  Fs1
 BYTE   W06
 BYTE   Dn1
 BYTE   N03  Fs1  v076
 BYTE   W03
 BYTE   N03
 BYTE   W03
 BYTE   PEND 
//  #10 //018   ----------------------------------------
Label_0141FA38:
 BYTE   N06  Cn1  v112
 BYTE   N06  Fs1
 BYTE   N12  Cs2
 BYTE   W06
 BYTE   N06  Cn1
 BYTE   N03  Fs1  v076
 BYTE   W03
 BYTE   N03
 BYTE   W03
 BYTE   N06  Fs1  v112
 BYTE   W06
 BYTE   Cn1
 BYTE   N03  Fs1  v076
 BYTE   W03
 BYTE   N03
 BYTE   W03
 BYTE   N06  Cn1  v112
 BYTE   N06  Fs1
 BYTE   W06
 BYTE   Cn1
 BYTE   N03  Fs1  v076
 BYTE   W03
 BYTE   N03
 BYTE   W03
 BYTE   N06  Fs1  v112
 BYTE   W06
 BYTE   Cn1
 BYTE   N03  Fs1  v076
 BYTE   W03
 BYTE   N03
 BYTE   W03
 BYTE   N06  Cn1  v112
 BYTE   N06  Fs1
 BYTE   W06
 BYTE   Cn1
 BYTE   N03  Fs1  v076
 BYTE   W03
 BYTE   N03
 BYTE   W03
 BYTE   N06  Fs1  v112
 BYTE   W06
 BYTE   Cn1
 BYTE   N03  Fs1  v076
 BYTE   W03
 BYTE   N03
 BYTE   W03
 BYTE   N06  Cn1  v112
 BYTE   N06  Fs1
 BYTE   W06
 BYTE   Cn1
 BYTE   N03  Fs1  v076
 BYTE   W03
 BYTE   N03
 BYTE   W03
 BYTE   N06  Fs1  v112
 BYTE   W06
 BYTE   Cn1
 BYTE   N03  Fs1  v076
 BYTE   W03
 BYTE   N03
 BYTE   W03
 BYTE   PEND 
//  #10 //019   ----------------------------------------
Label_0141FA9C:
 BYTE   N06  Cn1  v112
 BYTE   N06  Fs1
 BYTE   W06
 BYTE   Cn1
 BYTE   N03  Fs1  v076
 BYTE   W03
 BYTE   N03
 BYTE   W03
 BYTE   N06  Fs1  v112
 BYTE   W06
 BYTE   Cn1
 BYTE   N03  Fs1  v076
 BYTE   W03
 BYTE   N03
 BYTE   W03
 BYTE   N06  Cn1  v112
 BYTE   N06  Fs1
 BYTE   W06
 BYTE   Cn1
 BYTE   N03  Fs1  v076
 BYTE   W03
 BYTE   N03
 BYTE   W03
 BYTE   N06  Fs1  v112
 BYTE   W06
 BYTE   Cn1
 BYTE   N03  Fs1  v076
 BYTE   W03
 BYTE   N03
 BYTE   W03
 BYTE   N06  Cn1  v112
 BYTE   N06  Fs1
 BYTE   W06
 BYTE   Cn1
 BYTE   N03  Fs1  v076
 BYTE   W03
 BYTE   N03
 BYTE   W03
 BYTE   N06  Fs1  v112
 BYTE   W06
 BYTE   Cn1
 BYTE   N03  Fs1  v076
 BYTE   W03
 BYTE   N03
 BYTE   W03
 BYTE   N06  Cn1  v112
 BYTE   N06  Fs1
 BYTE   W06
 BYTE   Cn1
 BYTE   N03  Fs1  v076
 BYTE   W03
 BYTE   N03
 BYTE   W03
 BYTE   N06  Fs1  v112
 BYTE   W06
 BYTE   Cn1
 BYTE   N03  Fs1  v076
 BYTE   W03
 BYTE   N03
 BYTE   W03
 BYTE   PEND 
//  #10 //020   ----------------------------------------
 BYTE   PATT
  POIN2 Label_0141FA9C
//  #10 //021   ----------------------------------------
Label_0141FB02:
 BYTE   N06  Cn1  v112
 BYTE   N06  Fs1
 BYTE   W06
 BYTE   Cn1
 BYTE   N03  Fs1  v076
 BYTE   W03
 BYTE   N03
 BYTE   W03
 BYTE   N06  Fs1  v112
 BYTE   W06
 BYTE   Cn1
 BYTE   N03  Fs1  v076
 BYTE   W03
 BYTE   N03
 BYTE   W03
 BYTE   N06  Cn1  v112
 BYTE   N06  Fs1
 BYTE   W06
 BYTE   Cn1
 BYTE   N03  Fs1  v076
 BYTE   W03
 BYTE   N03
 BYTE   W03
 BYTE   N06  Fs1  v112
 BYTE   W06
 BYTE   Cn1
 BYTE   N03  Fs1  v076
 BYTE   W03
 BYTE   N03
 BYTE   W03
 BYTE   N06  Cn1  v112
 BYTE   N06  Fs1
 BYTE   W06
 BYTE   Cn1
 BYTE   N03  Fs1  v076
 BYTE   W03
 BYTE   N03
 BYTE   W03
 BYTE   N06  Fs1  v112
 BYTE   W06
 BYTE   Cn1
 BYTE   N03  Fs1  v076
 BYTE   W03
 BYTE   N03
 BYTE   W03
 BYTE   N06  Cn1  v112
 BYTE   N06  Fs1
 BYTE   W06
 BYTE   Cn1
 BYTE   N03  Fs1  v076
 BYTE   W03
 BYTE   N03
 BYTE   W03
 BYTE   N06  Dn1  v112
 BYTE   N06  Fs1
 BYTE   W06
 BYTE   N03  Dn1
 BYTE   N03  Fs1  v076
 BYTE   W03
 BYTE   Dn1  v112
 BYTE   N03  Fs1  v076
 BYTE   W03
 BYTE   PEND 
//  #10 //022   ----------------------------------------
 BYTE   PATT
  POIN2 Label_0141F906
//  #10 //023   ----------------------------------------
 BYTE   PATT
  POIN2 Label_0141F96F
//  #10 //024   ----------------------------------------
 BYTE   PATT
  POIN2 Label_0141F906
//  #10 //025   ----------------------------------------
 BYTE   PATT
  POIN2 Label_0141F96F
//  #10 //026   ----------------------------------------
 BYTE   PATT
  POIN2 Label_0141F906
//  #10 //027   ----------------------------------------
 BYTE   PATT
  POIN2 Label_0141F9D5
//  #10 //028   ----------------------------------------
 BYTE   W96
//  #10 //029   ----------------------------------------
 BYTE   W96
//  #10 //030   ----------------------------------------
 BYTE   W96
//  #10 //031   ----------------------------------------
 BYTE   W96
//  #10 //032   ----------------------------------------
 BYTE   W96
//  #10 //033   ----------------------------------------
 BYTE   W96
//  #10 //034   ----------------------------------------
 BYTE   W96
//  #10 //035   ----------------------------------------
 BYTE   W96
//  #10 //036   ----------------------------------------
 BYTE   W96
//  #10 //037   ----------------------------------------
 BYTE   GoTo
  POIN2 Label_0141F7F1
//  #10 //038   ----------------------------------------
 BYTE   PATT
  POIN2 Label_0141F7F1
//  #10 //039   ----------------------------------------
 BYTE   PATT
  POIN2 Label_0141F86E
//  #10 //040   ----------------------------------------
 BYTE   PATT
  POIN2 Label_0141F7F1
//  #10 //041   ----------------------------------------
 BYTE   PATT
  POIN2 Label_0141F8BC
//  #10 //042   ----------------------------------------
 BYTE   PATT
  POIN2 Label_0141F906
//  #10 //043   ----------------------------------------
 BYTE   PATT
  POIN2 Label_0141F906
//  #10 //044   ----------------------------------------
 BYTE   PATT
  POIN2 Label_0141F96F
//  #10 //045   ----------------------------------------
 BYTE   PATT
  POIN2 Label_0141F906
//  #10 //046   ----------------------------------------
 BYTE   PATT
  POIN2 Label_0141F9D5
//  #10 //047   ----------------------------------------
 BYTE   PATT
  POIN2 Label_0141FA38
//  #10 //048   ----------------------------------------
 BYTE   PATT
  POIN2 Label_0141FA9C
//  #10 //049   ----------------------------------------
 BYTE   PATT
  POIN2 Label_0141FA9C
//  #10 //050   ----------------------------------------
 BYTE   PATT
  POIN2 Label_0141FB02
//  #10 //051   ----------------------------------------
 BYTE   PATT
  POIN2 Label_0141F906
//  #10 //052   ----------------------------------------
 BYTE   PATT
  POIN2 Label_0141F96F
//  #10 //053   ----------------------------------------
 BYTE   PATT
  POIN2 Label_0141F906
//  #10 //054   ----------------------------------------
 BYTE   PATT
  POIN2 Label_0141F96F
//  #10 //055   ----------------------------------------
 BYTE   PATT
  POIN2 Label_0141F906
//  #10 //056   ----------------------------------------
 BYTE   PATT
  POIN2 Label_0141F9D5
 BYTE   FINE

//******************************************************//
	ALIGN 4

NorthernHemispheres:
	BYTE	10	// NumTrks
	BYTE	0	// NumBlks
	BYTE	NorthernHemispheres_pri	// Priority
	BYTE	NorthernHemispheres_rev	// Reverb.
    
	POIN2	NorthernHemispheres_grp
    
	POIN2	NorthernHemispheres_001
	POIN2	NorthernHemispheres_002
	POIN2	NorthernHemispheres_003
	POIN2	NorthernHemispheres_004
	POIN2	NorthernHemispheres_005
	POIN2	NorthernHemispheres_006
	POIN2	NorthernHemispheres_007
	POIN2	NorthernHemispheres_008
	POIN2	NorthernHemispheres_009
	POIN2	NorthernHemispheres_010

	
