//Event file generated from Sappy .s format.
	#include "MPlayDef.event"

	#define	OurLight_grp  voicegroup000
	#define	OurLight_pri  0
	#define	OurLight_rev  0
	#define	OurLight_mvl  127
	#define	OurLight_key  0
	#define	OurLight_tbs  1
	#define	OurLight_exg  0
	#define	OurLight_cmp  1

	// .rodata
	//	OurLight
	ALIGN 4


//**************** Track 1 (Midi-Chn.0) ****************//

OurLight_001:
//  #01 //000   ----------------------------------------
 BYTE   KEYSH   OurLight_key+0
Label_0140F2FA:
 BYTE   TEMPO   30*OurLight_tbs/2
 BYTE   VOICE   52
 BYTE   VOL   40*OurLight_mvl/mxv
 BYTE   PAN   c_v+0
 BYTE   VOL   51*OurLight_mvl/mxv
 BYTE   PAN   c_v+0
 BYTE   W06
 BYTE   TEMPO   52*OurLight_tbs/2
 BYTE   W42
 BYTE   TEMPO   54*OurLight_tbs/2
 BYTE   W48
//  #01 //001   ----------------------------------------
 BYTE   TEMPO   58*OurLight_tbs/2
 BYTE   W96
//  #01 //002   ----------------------------------------
 BYTE   TEMPO   36*OurLight_tbs/2
 BYTE   W06
 BYTE   TEMPO   50*OurLight_tbs/2
 BYTE   W18
 BYTE   TEMPO   54*OurLight_tbs/2
 BYTE   W24
 BYTE   TEMPO   42*OurLight_tbs/2
 BYTE   W24
 BYTE   TEMPO   38*OurLight_tbs/2
 BYTE   W24
//  #01 //003   ----------------------------------------
 BYTE   TEMPO   42*OurLight_tbs/2
 BYTE   W96
//  #01 //004   ----------------------------------------
 BYTE   TEMPO   30*OurLight_tbs/2
 BYTE   W06
 BYTE   TEMPO   52*OurLight_tbs/2
 BYTE   W18
 BYTE   TEMPO   54*OurLight_tbs/2
 BYTE   W24
 BYTE   TEMPO   60*OurLight_tbs/2
 BYTE   W48
//  #01 //005   ----------------------------------------
 BYTE   TEMPO   48*OurLight_tbs/2
 BYTE   W48
 BYTE   TEMPO   64*OurLight_tbs/2
 BYTE   W48
//  #01 //006   ----------------------------------------
 BYTE   TEMPO   30*OurLight_tbs/2
 BYTE   W06
 BYTE   TEMPO   50*OurLight_tbs/2
 BYTE   W42
 BYTE   TEMPO   40*OurLight_tbs/2
 BYTE   W24
 BYTE   TEMPO   32*OurLight_tbs/2
 BYTE   W24
//  #01 //007   ----------------------------------------
 BYTE   TEMPO   70*OurLight_tbs/2
 BYTE   W96
//  #01 //008   ----------------------------------------
 BYTE   W72
 BYTE   N11  Fn2  v064
 BYTE   W12
 BYTE   Ds3
 BYTE   W12
//  #01 //009   ----------------------------------------
Label_0140F34A:
 BYTE   N44  As2  v064
 BYTE   W72
 BYTE   N11  Cn3
 BYTE   W12
 BYTE   Gn3
 BYTE   W12
 BYTE   PEND 
//  #01 //010   ----------------------------------------
 BYTE   N44  Ds3
 BYTE   W84
 BYTE   N11  As2
 BYTE   W12
//  #01 //011   ----------------------------------------
 BYTE   Cn3
 BYTE   W12
 BYTE   Ds3
 BYTE   W12
 BYTE   N44
 BYTE   W60
 BYTE   N11  As2
 BYTE   W12
//  #01 //012   ----------------------------------------
 BYTE   N44  Cn3
 BYTE   W72
 BYTE   N11  Fn2
 BYTE   W12
 BYTE   Ds3
 BYTE   W12
//  #01 //013   ----------------------------------------
 BYTE   PATT
  POIN2 Label_0140F34A
//  #01 //014   ----------------------------------------
 BYTE   N32  Gn3  v064
 BYTE   W36
 BYTE   N11  Gs3
 BYTE   W12
 BYTE   Gn3
 BYTE   W12
 BYTE   Ds3
 BYTE   W12
 BYTE   As2
 BYTE   W12
 BYTE   Gs2
 BYTE   W12
//  #01 //015   ----------------------------------------
 BYTE   N92  Gn2
 BYTE   W96
//  #01 //016   ----------------------------------------
 BYTE   N44  Fn2
 BYTE   W72
 BYTE   N11
 BYTE   W12
 BYTE   Cn3
 BYTE   W12
//  #01 //017   ----------------------------------------
Label_0140F389:
 BYTE   N11  Ds3  v064
 BYTE   W12
 BYTE   Cn3
 BYTE   W12
 BYTE   N32  As2
 BYTE   W54
 BYTE   N05  Gs2
 BYTE   W06
 BYTE   Gn2
 BYTE   W06
 BYTE   Gs2
 BYTE   W06
 BYTE   PEND 
//  #01 //018   ----------------------------------------
Label_0140F39A:
 BYTE   N11  Ds3  v064
 BYTE   W12
 BYTE   Cn3
 BYTE   W12
 BYTE   N32  As2
 BYTE   W48
 BYTE   N11  Cn3
 BYTE   W12
 BYTE   Gn3
 BYTE   W12
 BYTE   PEND 
//  #01 //019   ----------------------------------------
 BYTE   N92
 BYTE   W96
//  #01 //020   ----------------------------------------
 BYTE   W72
 BYTE   N11  Fn2
 BYTE   W12
 BYTE   Cn3
 BYTE   W12
//  #01 //021   ----------------------------------------
 BYTE   PATT
  POIN2 Label_0140F389
//  #01 //022   ----------------------------------------
 BYTE   PATT
  POIN2 Label_0140F39A
//  #01 //023   ----------------------------------------
 BYTE   N92  Gn3  v064
 BYTE   W96
//  #01 //024   ----------------------------------------
 BYTE   W36
 BYTE   N05  Fn3  v112
 BYTE   W06
 BYTE   Gn3
 BYTE   W06
 BYTE   N11  Gs3
 BYTE   W12
 BYTE   Ds3
 BYTE   W12
 BYTE   Gs3
 BYTE   W12
 BYTE   TIE  Fn3  v080
 BYTE   TIE  As3  v112
 BYTE   W12
//  #01 //025   ----------------------------------------
 BYTE   TEMPO   72*OurLight_tbs/2
 BYTE   W92
 BYTE   W03
 BYTE   EOT
 BYTE   Fn3  v070
 BYTE   W01
//  #01 //026   ----------------------------------------
Label_0140F3DC:
 BYTE   N92  Ds3  v080
 BYTE   N44  Gs3  v112
 BYTE   W72
 BYTE   N11
 BYTE   W12
 BYTE   Ds4
 BYTE   W12
 BYTE   PEND 
//  #01 //027   ----------------------------------------
Label_0140F3E8:
 BYTE   N44  Cs3  v080
 BYTE   N11  Ds4  v112
 BYTE   W12
 BYTE   N05  Cs4
 BYTE   W06
 BYTE   Cn4
 BYTE   W06
 BYTE   N44  As3
 BYTE   W24
 BYTE   Ds3  v080
 BYTE   W24
 BYTE   N11  Cn4  v112
 BYTE   W12
 BYTE   N23  Gn3
 BYTE   W12
 BYTE   PEND 
//  #01 //028   ----------------------------------------
Label_0140F402:
 BYTE   N44  Fn3  v080
 BYTE   W12
 BYTE   N32  Gs3  v112
 BYTE   W36
 BYTE   N44  Ds3  v080
 BYTE   N11  Cn4  v112
 BYTE   W12
 BYTE   N23  Gn3
 BYTE   W24
 BYTE   N80  Gs3
 BYTE   W12
 BYTE   PEND 
//  #01 //029   ----------------------------------------
Label_0140F418:
 BYTE   N92  Dn3  v080
 BYTE   W84
 BYTE   N05  Fn3  v112
 BYTE   W06
 BYTE   Gn3
 BYTE   W06
 BYTE   PEND 
//  #01 //030   ----------------------------------------
Label_0140F423:
 BYTE   N44  As2  v080
 BYTE   N11  Gs3  v112
 BYTE   W12
 BYTE   Ds3
 BYTE   W12
 BYTE   Gs3
 BYTE   W12
 BYTE   As3
 BYTE   W12
 BYTE   N44  Cn3  v080
 BYTE   N11  Gs3  v112
 BYTE   W12
 BYTE   N23  Gn3
 BYTE   W24
 BYTE   N32  Gs3
 BYTE   W12
 BYTE   PEND 
//  #01 //031   ----------------------------------------
Label_0140F43E:
 BYTE   N44  Cs3  v080
 BYTE   W36
 BYTE   N05  Fn3  v112
 BYTE   W06
 BYTE   Gn3
 BYTE   W06
 BYTE   N12  Ds3  v080
 BYTE   N11  Gs3  v112
 BYTE   W12
 BYTE   Ds3
 BYTE   W12
 BYTE   Gs3
 BYTE   W12
 BYTE   TIE  As3
 BYTE   W12
 BYTE   PEND 
//  #01 //032   ----------------------------------------
Label_0140F457:
 BYTE   N92  Fn3  v080
 BYTE   W92
 BYTE   W03
 BYTE   PEND 
 BYTE   EOT
 BYTE   As3
 BYTE   W01
//  #01 //033   ----------------------------------------
 BYTE   PATT
  POIN2 Label_0140F3DC
//  #01 //034   ----------------------------------------
 BYTE   PATT
  POIN2 Label_0140F3E8
//  #01 //035   ----------------------------------------
 BYTE   PATT
  POIN2 Label_0140F402
//  #01 //036   ----------------------------------------
Label_0140F46F:
 BYTE   N92  Dn3  v080
 BYTE   W96
 BYTE   PEND 
//  #01 //037   ----------------------------------------
 BYTE   TEMPO   72*OurLight_tbs/2
 BYTE   N44  Cs3
 BYTE   N44  Fn3  v112
 BYTE   W48
 BYTE   N23  Ds3  v080
 BYTE   N23  Gn3  v112
 BYTE   W24
 BYTE   Fn3  v080
 BYTE   N23  Gs3  v112
 BYTE   W24
//  #01 //038   ----------------------------------------
Label_0140F489:
 BYTE   N72  As2  v080
 BYTE   N44  Ds3  v112
 BYTE   W48
 BYTE   N11  Cs3
 BYTE   W12
 BYTE   Cn3
 BYTE   W12
 BYTE   N23  As2
 BYTE   W24
 BYTE   PEND 
//  #01 //039   ----------------------------------------
Label_0140F499:
 BYTE   N12  Gs2  v080
 BYTE   W12
 BYTE   N80  Gs2  v112
 BYTE   W12
 BYTE   W72
 BYTE   PEND 
//  #01 //040   ----------------------------------------
 BYTE   W96
//  #01 //041   ----------------------------------------
 BYTE   W96
//  #01 //042   ----------------------------------------
 BYTE   W96
//  #01 //043   ----------------------------------------
 BYTE   W96
//  #01 //044   ----------------------------------------
 BYTE   W96
//  #01 //045   ----------------------------------------
 BYTE   W96
//  #01 //046   ----------------------------------------
 BYTE   W96
//  #01 //047   ----------------------------------------
 BYTE   W96
//  #01 //048   ----------------------------------------
 BYTE   W96
//  #01 //049   ----------------------------------------
 BYTE   W72
 BYTE   N11  Fn2  v080
 BYTE   W12
 BYTE   Ds3
 BYTE   W12
//  #01 //050   ----------------------------------------
 BYTE   TEMPO   70*OurLight_tbs/2
 BYTE   N44  As2
 BYTE   W72
 BYTE   N11  Cn3
 BYTE   W12
 BYTE   Gn3
 BYTE   W12
//  #01 //051   ----------------------------------------
 BYTE   N44  Ds3
 BYTE   W84
 BYTE   N11  As2
 BYTE   W12
//  #01 //052   ----------------------------------------
 BYTE   Cn3
 BYTE   W12
 BYTE   Ds3
 BYTE   W12
 BYTE   N44
 BYTE   W60
 BYTE   N11  As2
 BYTE   W12
//  #01 //053   ----------------------------------------
 BYTE   N44  Cn3
 BYTE   W72
 BYTE   N11  Fn2
 BYTE   W12
 BYTE   Ds3
 BYTE   W12
//  #01 //054   ----------------------------------------
 BYTE   N44  As2
 BYTE   W72
 BYTE   N11  Cn3
 BYTE   W12
 BYTE   Gn3
 BYTE   W12
//  #01 //055   ----------------------------------------
 BYTE   N32
 BYTE   W36
 BYTE   N11  Gs3
 BYTE   W12
 BYTE   Gn3
 BYTE   W12
 BYTE   Ds3
 BYTE   W12
 BYTE   As2
 BYTE   W12
 BYTE   Gs2
 BYTE   W12
//  #01 //056   ----------------------------------------
 BYTE   N92  Gn2
 BYTE   W96
//  #01 //057   ----------------------------------------
 BYTE   N44  Fn2
 BYTE   W72
 BYTE   N11
 BYTE   W12
 BYTE   Cn3
 BYTE   W12
//  #01 //058   ----------------------------------------
Label_0140F4F3:
 BYTE   N11  Ds3  v080
 BYTE   W12
 BYTE   Cn3
 BYTE   W12
 BYTE   N32  As2
 BYTE   W54
 BYTE   N05  Gs2
 BYTE   W06
 BYTE   Gn2
 BYTE   W06
 BYTE   Gs2
 BYTE   W06
 BYTE   PEND 
//  #01 //059   ----------------------------------------
Label_0140F504:
 BYTE   N11  Ds3  v080
 BYTE   W12
 BYTE   Cn3
 BYTE   W12
 BYTE   N32  As2
 BYTE   W48
 BYTE   N11  Cn3
 BYTE   W12
 BYTE   Gn3
 BYTE   W12
 BYTE   PEND 
//  #01 //060   ----------------------------------------
Label_0140F513:
 BYTE   N92  Gn3  v080
 BYTE   W96
 BYTE   PEND 
//  #01 //061   ----------------------------------------
 BYTE   W72
 BYTE   N11  Fn2
 BYTE   W12
 BYTE   Cn3
 BYTE   W12
//  #01 //062   ----------------------------------------
 BYTE   PATT
  POIN2 Label_0140F4F3
//  #01 //063   ----------------------------------------
 BYTE   PATT
  POIN2 Label_0140F504
//  #01 //064   ----------------------------------------
 BYTE   PATT
  POIN2 Label_0140F513
//  #01 //065   ----------------------------------------
 BYTE   W36
 BYTE   TEMPO   72*OurLight_tbs/2
 BYTE   N05  Fn3  v112
 BYTE   W06
 BYTE   Gn3
 BYTE   W06
 BYTE   N11  Gs3
 BYTE   W12
 BYTE   Ds3
 BYTE   W12
 BYTE   Gs3
 BYTE   W12
 BYTE   TIE  Fn3  v080
 BYTE   TIE  As3  v112
 BYTE   W12
//  #01 //066   ----------------------------------------
Label_0140F544:
 BYTE   W92
 BYTE   W03
 BYTE   PEND 
 BYTE   EOT
 BYTE   Fn3  v070
 BYTE   W01
//  #01 //067   ----------------------------------------
 BYTE   PATT
  POIN2 Label_0140F3DC
//  #01 //068   ----------------------------------------
 BYTE   PATT
  POIN2 Label_0140F3E8
//  #01 //069   ----------------------------------------
 BYTE   PATT
  POIN2 Label_0140F402
//  #01 //070   ----------------------------------------
 BYTE   PATT
  POIN2 Label_0140F418
//  #01 //071   ----------------------------------------
 BYTE   PATT
  POIN2 Label_0140F423
//  #01 //072   ----------------------------------------
 BYTE   PATT
  POIN2 Label_0140F43E
//  #01 //073   ----------------------------------------
 BYTE   PATT
  POIN2 Label_0140F457
//  #01 //074   ----------------------------------------
 BYTE   EOT
 BYTE   As3
 BYTE   W01
//  #01 //075   ----------------------------------------
 BYTE   PATT
  POIN2 Label_0140F3DC
//  #01 //076   ----------------------------------------
 BYTE   PATT
  POIN2 Label_0140F3E8
//  #01 //077   ----------------------------------------
 BYTE   PATT
  POIN2 Label_0140F402
//  #01 //078   ----------------------------------------
 BYTE   PATT
  POIN2 Label_0140F46F
//  #01 //079   ----------------------------------------
 BYTE   N44  Cs3  v080
 BYTE   N44  Fn3  v112
 BYTE   W48
 BYTE   N23  Ds3  v080
 BYTE   N23  Gn3  v112
 BYTE   W24
 BYTE   Fn3  v080
 BYTE   N23  Gs3  v112
 BYTE   W24
//  #01 //080   ----------------------------------------
 BYTE   PATT
  POIN2 Label_0140F489
//  #01 //081   ----------------------------------------
 BYTE   PATT
  POIN2 Label_0140F499
//  #01 //082   ----------------------------------------
 BYTE   W96
//  #01 //083   ----------------------------------------
 BYTE   W96
//  #01 //084   ----------------------------------------
 BYTE   W96
//  #01 //085   ----------------------------------------
 BYTE   W96
//  #01 //086   ----------------------------------------
 BYTE   W96
//  #01 //087   ----------------------------------------
 BYTE   W96
//  #01 //088   ----------------------------------------
 BYTE   W96
//  #01 //089   ----------------------------------------
 BYTE   W96
//  #01 //090   ----------------------------------------
 BYTE   W96
//  #01 //091   ----------------------------------------
 BYTE   N11  Cs3  v052
 BYTE   N11  Fn3  v080
 BYTE   W12
 BYTE   Ds3  v052
 BYTE   N11  Gn3  v080
 BYTE   W12
 BYTE   N23  Fn3  v052
 BYTE   N23  Gs3  v080
 BYTE   W24
 BYTE   N32  Cn3  v052
 BYTE   N32  Ds3  v080
 BYTE   W36
 BYTE   N11  Cs3
 BYTE   W12
//  #01 //092   ----------------------------------------
 BYTE   N05
 BYTE   W06
 BYTE   Cn3
 BYTE   W06
 BYTE   N23  As2
 BYTE   W24
 BYTE   N11  Cs3
 BYTE   W12
 BYTE   N23  Cn3
 BYTE   W36
 BYTE   N11  Cn3  v052
 BYTE   N11  Ds3  v080
 BYTE   W12
//  #01 //093   ----------------------------------------
 BYTE   Cs3  v052
 BYTE   N11  Fn3  v080
 BYTE   W12
 BYTE   Ds3  v052
 BYTE   N11  Gn3  v080
 BYTE   W12
 BYTE   N23  Fn3  v052
 BYTE   N23  Gs3  v080
 BYTE   W24
 BYTE   Ds3  v052
 BYTE   N23  Gn3  v080
 BYTE   W24
 BYTE   Gn3  v052
 BYTE   N23  As3  v080
 BYTE   W24
//  #01 //094   ----------------------------------------
 BYTE   N68  As2  v052
 BYTE   N68  Cs3  v080
 BYTE   W84
 BYTE   N11  Cn3  v052
 BYTE   N11  Ds3  v080
 BYTE   W12
//  #01 //095   ----------------------------------------
 BYTE   Cs3  v052
 BYTE   N11  Fn3  v080
 BYTE   W12
 BYTE   Ds3  v052
 BYTE   N11  Gn3  v080
 BYTE   W12
 BYTE   N23  Fn3  v052
 BYTE   N23  Gs3  v080
 BYTE   W24
 BYTE   N32  Cn3  v052
 BYTE   N32  Ds3  v080
 BYTE   W36
 BYTE   N05  Cs3
 BYTE   W06
 BYTE   Cn3
 BYTE   W06
//  #01 //096   ----------------------------------------
 BYTE   Cs3
 BYTE   W06
 BYTE   Cn3
 BYTE   W06
 BYTE   N23  As2
 BYTE   W24
 BYTE   N11  Cs3
 BYTE   W12
 BYTE   N23  Cn3
 BYTE   W36
 BYTE   N05
 BYTE   W06
 BYTE   Cs3
 BYTE   W06
//  #01 //097   ----------------------------------------
 BYTE   N32  Ds3
 BYTE   W36
 BYTE   N05  Cs3
 BYTE   W06
 BYTE   Cn3
 BYTE   W06
 BYTE   Cs3
 BYTE   W06
 BYTE   Cn3
 BYTE   W06
 BYTE   N32  As2
 BYTE   W12
 BYTE   W24
//  #01 //098   ----------------------------------------
 BYTE   W36
 BYTE   N05  Fn3  v112
 BYTE   W06
 BYTE   Gn3
 BYTE   W06
 BYTE   N11  Gs3
 BYTE   W12
 BYTE   Ds3
 BYTE   W12
 BYTE   Gs3
 BYTE   W12
 BYTE   TIE  Fn3  v052
 BYTE   TIE  As3  v112
 BYTE   W12
//  #01 //099   ----------------------------------------
 BYTE   PATT
  POIN2 Label_0140F544
//  #01 //100   ----------------------------------------
 BYTE   EOT
 BYTE   Fn3  v070
 BYTE   W01
Label_0140F669:
 BYTE   N92  Ds3  v052
 BYTE   N44  Gs3  v112
 BYTE   W72
 BYTE   N11
 BYTE   W12
 BYTE   Ds4
 BYTE   W12
 BYTE   PEND 
//  #01 //101   ----------------------------------------
Label_0140F675:
 BYTE   N44  Cs3  v052
 BYTE   N11  Ds4  v112
 BYTE   W12
 BYTE   N05  Cs4
 BYTE   W06
 BYTE   Cn4
 BYTE   W06
 BYTE   N44  As3
 BYTE   W24
 BYTE   Ds3  v052
 BYTE   W24
 BYTE   N11  Cn4  v112
 BYTE   W12
 BYTE   N23  Gn3
 BYTE   W12
 BYTE   PEND 
//  #01 //102   ----------------------------------------
Label_0140F68F:
 BYTE   N44  Fn3  v052
 BYTE   W12
 BYTE   N32  Gs3  v112
 BYTE   W36
 BYTE   N44  Ds3  v052
 BYTE   N11  Cn4  v112
 BYTE   W12
 BYTE   N23  Gn3
 BYTE   W24
 BYTE   N80  Gs3
 BYTE   W12
 BYTE   PEND 
//  #01 //103   ----------------------------------------
Label_0140F6A5:
 BYTE   N92  Dn3  v052
 BYTE   W84
 BYTE   N05  Fn3  v112
 BYTE   W06
 BYTE   Gn3
 BYTE   W06
 BYTE   PEND 
//  #01 //104   ----------------------------------------
Label_0140F6B0:
 BYTE   N44  As2  v052
 BYTE   N11  Gs3  v112
 BYTE   W12
 BYTE   Ds3
 BYTE   W12
 BYTE   Gs3
 BYTE   W12
 BYTE   As3
 BYTE   W12
 BYTE   N44  Cn3  v052
 BYTE   N11  Gs3  v112
 BYTE   W12
 BYTE   N23  Gn3
 BYTE   W24
 BYTE   N32  Gs3
 BYTE   W12
 BYTE   PEND 
//  #01 //105   ----------------------------------------
Label_0140F6CB:
 BYTE   N44  Cs3  v052
 BYTE   W36
 BYTE   N05  Fn3  v112
 BYTE   W06
 BYTE   Gn3
 BYTE   W06
 BYTE   N12  Ds3  v052
 BYTE   N11  Gs3  v112
 BYTE   W12
 BYTE   Ds3
 BYTE   W12
 BYTE   Gs3
 BYTE   W12
 BYTE   TIE  As3
 BYTE   W12
 BYTE   PEND 
//  #01 //106   ----------------------------------------
Label_0140F6E4:
 BYTE   N92  Fn3  v052
 BYTE   W92
 BYTE   W03
 BYTE   PEND 
 BYTE   EOT
 BYTE   As3
 BYTE   W01
//  #01 //107   ----------------------------------------
 BYTE   PATT
  POIN2 Label_0140F669
//  #01 //108   ----------------------------------------
 BYTE   PATT
  POIN2 Label_0140F675
//  #01 //109   ----------------------------------------
 BYTE   PATT
  POIN2 Label_0140F68F
//  #01 //110   ----------------------------------------
 BYTE   PATT
  POIN2 Label_0140F6A5
//  #01 //111   ----------------------------------------
 BYTE   PATT
  POIN2 Label_0140F6B0
//  #01 //112   ----------------------------------------
 BYTE   PATT
  POIN2 Label_0140F6CB
//  #01 //113   ----------------------------------------
 BYTE   PATT
  POIN2 Label_0140F6E4
//  #01 //114   ----------------------------------------
 BYTE   EOT
 BYTE   As3
 BYTE   W01
//  #01 //115   ----------------------------------------
 BYTE   PATT
  POIN2 Label_0140F669
//  #01 //116   ----------------------------------------
 BYTE   PATT
  POIN2 Label_0140F675
//  #01 //117   ----------------------------------------
 BYTE   PATT
  POIN2 Label_0140F68F
//  #01 //118   ----------------------------------------
 BYTE   N92  Dn3  v052
 BYTE   W96
//  #01 //119   ----------------------------------------
 BYTE   N44  Cs3
 BYTE   N44  Fn3  v112
 BYTE   W48
 BYTE   N23  Ds3  v052
 BYTE   N23  Gn3  v112
 BYTE   W24
 BYTE   Fn3  v052
 BYTE   N23  Gs3  v112
 BYTE   W24
//  #01 //120   ----------------------------------------
 BYTE   N72  As2  v052
 BYTE   N44  Ds3  v112
 BYTE   W48
 BYTE   N11  Cs3
 BYTE   W12
 BYTE   Cn3
 BYTE   W12
 BYTE   N23  As2
 BYTE   W24
//  #01 //121   ----------------------------------------
 BYTE   N12  Gs2  v052
 BYTE   W12
 BYTE   N80  Gs2  v112
 BYTE   W12
 BYTE   W72
//  #01 //122   ----------------------------------------
 BYTE   W96
//  #01 //123   ----------------------------------------
 BYTE   W96
//  #01 //124   ----------------------------------------
 BYTE   W96
//  #01 //125   ----------------------------------------
 BYTE   GoTo
  POIN2 Label_0140F2FA
//  #01 //126   ----------------------------------------
 BYTE   W23
 BYTE   FINE

//**************** Track 2 (Midi-Chn.1) ****************//

OurLight_002:
//  #02 //000   ----------------------------------------
 BYTE   KEYSH   OurLight_key+0
Label_0140F772:
 BYTE   VOICE   1
 BYTE   VOL   40*OurLight_mvl/mxv
 BYTE   PAN   c_v+0
 BYTE   VOL   40*OurLight_mvl/mxv
 BYTE   PAN   c_v+0
 BYTE   TIE  Fn1  v080
 BYTE   TIE  Fn2
 BYTE   N05  Gn4
 BYTE   W06
 BYTE   Fn4
 BYTE   W06
 BYTE   Ds4
 BYTE   W06
 BYTE   Cn4
 BYTE   W06
 BYTE   As3
 BYTE   W06
 BYTE   Gs3
 BYTE   W06
 BYTE   Gn3
 BYTE   W06
 BYTE   Gs3
 BYTE   W06
 BYTE   Gn3
 BYTE   W06
 BYTE   Fn3
 BYTE   W06
 BYTE   Ds3
 BYTE   W06
 BYTE   Cn3
 BYTE   W06
 BYTE   N07  As2
 BYTE   W08
 BYTE   Gs2
 BYTE   W08
 BYTE   Gn2
 BYTE   W08
//  #02 //001   ----------------------------------------
 BYTE   N90  Cn3
 BYTE   W84
 BYTE   W02
 BYTE   EOT
 BYTE   Fn1  v053
 BYTE   W10
//  #02 //002   ----------------------------------------
 BYTE   N68  Cs2
 BYTE   N05  Ds3
 BYTE   N05  Gs3
 BYTE   N05  Ds4
 BYTE   W06
 BYTE   Cn4
 BYTE   W06
 BYTE   As3
 BYTE   W06
 BYTE   Gs3
 BYTE   W06
 BYTE   Gn3
 BYTE   W06
 BYTE   Gs3
 BYTE   W06
 BYTE   Gn3
 BYTE   W06
 BYTE   Fn3
 BYTE   W06
 BYTE   Ds3
 BYTE   W06
 BYTE   Cn3
 BYTE   W06
 BYTE   As2
 BYTE   W06
 BYTE   Gs2
 BYTE   W06
 BYTE   N22  Ds1
 BYTE   N22  Ds2
 BYTE   N07  Gn2
 BYTE   W08
 BYTE   Gs2
 BYTE   W08
 BYTE   Gn2
 BYTE   W08
//  #02 //003   ----------------------------------------
 BYTE   N90  Fn1
 BYTE   N90  Fn2
 BYTE   W96
//  #02 //004   ----------------------------------------
 BYTE   TIE
 BYTE   N05  Cn4
 BYTE   N05  Ds4
 BYTE   N05  Gn4
 BYTE   W06
 BYTE   Fn4
 BYTE   W06
 BYTE   Ds4
 BYTE   W06
 BYTE   Cn4
 BYTE   W06
 BYTE   As3
 BYTE   W06
 BYTE   Gs3
 BYTE   W06
 BYTE   Gn3
 BYTE   W06
 BYTE   Gs3
 BYTE   W06
 BYTE   Gn3
 BYTE   W06
 BYTE   Fn3
 BYTE   W06
 BYTE   Ds3
 BYTE   W06
 BYTE   Cn3
 BYTE   W06
 BYTE   N07  As2
 BYTE   W08
 BYTE   Gs2
 BYTE   W08
 BYTE   Gn2
 BYTE   W08
//  #02 //005   ----------------------------------------
 BYTE   N90  Cn3
 BYTE   W40
 BYTE   EOT
 BYTE   Fn2
 BYTE   W08
 BYTE   N44  Ds1
 BYTE   W48
//  #02 //006   ----------------------------------------
 BYTE   N68  Cs2
 BYTE   N05  Fn3
 BYTE   N05  Gs3
 BYTE   N05  Ds4
 BYTE   W06
 BYTE   Cn4
 BYTE   W06
 BYTE   As3
 BYTE   W06
 BYTE   Gs3
 BYTE   W06
 BYTE   Gn3
 BYTE   W06
 BYTE   Gs3
 BYTE   W06
 BYTE   Gn3
 BYTE   W06
 BYTE   Fn3
 BYTE   W06
 BYTE   Ds3
 BYTE   W06
 BYTE   Cn3
 BYTE   W06
 BYTE   As2
 BYTE   W06
 BYTE   Gs2
 BYTE   W06
 BYTE   N22  Ds1
 BYTE   N22  Ds2
 BYTE   N07  Gn2
 BYTE   W08
 BYTE   Gs2
 BYTE   W08
 BYTE   Gn2
 BYTE   W08
//  #02 //007   ----------------------------------------
 BYTE   N44  Fn1
 BYTE   N44  Fn2
 BYTE   W48
 BYTE   Fn0
 BYTE   N44  Fn1
 BYTE   W48
//  #02 //008   ----------------------------------------
Label_0140F839:
 BYTE   N44  Fn0  v080
 BYTE   N44  Fn1
 BYTE   W48
 BYTE   Fn0
 BYTE   N44  Fn1
 BYTE   W48
 BYTE   PEND 
//  #02 //009   ----------------------------------------
Label_0140F844:
 BYTE   N44  Fn0  v080
 BYTE   N44  Fn1
 BYTE   W48
 BYTE   Fn0
 BYTE   N44  Fn1
 BYTE   W48
 BYTE   PEND 
//  #02 //010   ----------------------------------------
 BYTE   PATT
  POIN2 Label_0140F844
//  #02 //011   ----------------------------------------
 BYTE   PATT
  POIN2 Label_0140F844
//  #02 //012   ----------------------------------------
 BYTE   PATT
  POIN2 Label_0140F844
//  #02 //013   ----------------------------------------
 BYTE   PATT
  POIN2 Label_0140F844
//  #02 //014   ----------------------------------------
 BYTE   PATT
  POIN2 Label_0140F844
//  #02 //015   ----------------------------------------
 BYTE   PATT
  POIN2 Label_0140F844
//  #02 //016   ----------------------------------------
 BYTE   N44  Fn0  v080
 BYTE   N44  Fn1
 BYTE   W48
 BYTE   Ds0
 BYTE   N44  Ds1
 BYTE   W48
//  #02 //017   ----------------------------------------
Label_0140F877:
 BYTE   N44  Cs0  v080
 BYTE   N44  Cs1
 BYTE   W48
 BYTE   Cs0
 BYTE   N44  Cs1
 BYTE   W48
 BYTE   PEND 
//  #02 //018   ----------------------------------------
 BYTE   PATT
  POIN2 Label_0140F877
//  #02 //019   ----------------------------------------
 BYTE   PATT
  POIN2 Label_0140F844
//  #02 //020   ----------------------------------------
 BYTE   PATT
  POIN2 Label_0140F839
//  #02 //021   ----------------------------------------
 BYTE   PATT
  POIN2 Label_0140F877
//  #02 //022   ----------------------------------------
 BYTE   PATT
  POIN2 Label_0140F877
//  #02 //023   ----------------------------------------
 BYTE   PATT
  POIN2 Label_0140F844
//  #02 //024   ----------------------------------------
 BYTE   N44  Fn0  v080
 BYTE   N44  Fn1
 BYTE   W84
 BYTE   N22  As1
 BYTE   TIE  Fn3
 BYTE   TIE  As3
 BYTE   W12
//  #02 //025   ----------------------------------------
Label_0140F8AD:
 BYTE   W12
 BYTE   N11  As1  v080
 BYTE   W12
 BYTE   N11
 BYTE   W12
 BYTE   N11
 BYTE   W12
 BYTE   N11
 BYTE   W12
 BYTE   N11
 BYTE   W12
 BYTE   N11
 BYTE   W12
 BYTE   N11
 BYTE   W06
 BYTE   PEND 
 BYTE   EOT
 BYTE   Fn3  v070
 BYTE   W06
//  #02 //026   ----------------------------------------
Label_0140F8C3:
 BYTE   N11  Cn2  v080
 BYTE   N90  Gn3
 BYTE   N90  Cn4
 BYTE   W12
 BYTE   N11  Cn2
 BYTE   W12
 BYTE   N11
 BYTE   W12
 BYTE   N11
 BYTE   W12
 BYTE   N11
 BYTE   W12
 BYTE   N11
 BYTE   W12
 BYTE   N11
 BYTE   W12
 BYTE   N11
 BYTE   W12
 BYTE   PEND 
//  #02 //027   ----------------------------------------
Label_0140F8DB:
 BYTE   N11  Cs2  v080
 BYTE   N44  Gs3
 BYTE   N44  Cs4
 BYTE   W12
 BYTE   N11  Cs2
 BYTE   W12
 BYTE   N11
 BYTE   W12
 BYTE   N11
 BYTE   W12
 BYTE   Ds2
 BYTE   N44  As3
 BYTE   N44  Ds4
 BYTE   W12
 BYTE   N11  Ds2
 BYTE   W12
 BYTE   N11
 BYTE   W12
 BYTE   N11
 BYTE   W12
 BYTE   PEND 
//  #02 //028   ----------------------------------------
Label_0140F8F8:
 BYTE   N11  Fn2  v080
 BYTE   N44  Cn4
 BYTE   N44  Fn4
 BYTE   W12
 BYTE   N11  Fn2
 BYTE   W12
 BYTE   N11
 BYTE   W12
 BYTE   N11
 BYTE   W12
 BYTE   Ds2
 BYTE   N44  As3
 BYTE   N44  Ds4
 BYTE   W12
 BYTE   N11  Ds2
 BYTE   W12
 BYTE   N11
 BYTE   W12
 BYTE   N11
 BYTE   W12
 BYTE   PEND 
//  #02 //029   ----------------------------------------
Label_0140F915:
 BYTE   N11  Dn2  v080
 BYTE   N90  Gs3
 BYTE   N90  Dn4
 BYTE   W12
 BYTE   N11  Dn2
 BYTE   W12
 BYTE   N11
 BYTE   W12
 BYTE   N11
 BYTE   W12
 BYTE   N11
 BYTE   W12
 BYTE   N11
 BYTE   W12
 BYTE   N11
 BYTE   W12
 BYTE   N11
 BYTE   W12
 BYTE   PEND 
//  #02 //030   ----------------------------------------
Label_0140F92D:
 BYTE   N11  As1  v080
 BYTE   N44  Fn3
 BYTE   N44  As3
 BYTE   W12
 BYTE   N11  As1
 BYTE   W12
 BYTE   N11
 BYTE   W12
 BYTE   N11
 BYTE   W12
 BYTE   Cn2
 BYTE   N44  Gn3
 BYTE   N44  Cn4
 BYTE   W12
 BYTE   N11  Cn2
 BYTE   W12
 BYTE   N11
 BYTE   W12
 BYTE   N11
 BYTE   W12
 BYTE   PEND 
//  #02 //031   ----------------------------------------
Label_0140F94A:
 BYTE   N11  Cs2  v080
 BYTE   N44  Gs3
 BYTE   N44  Cs4
 BYTE   W12
 BYTE   N11  Cs2
 BYTE   W12
 BYTE   N11
 BYTE   W12
 BYTE   N11
 BYTE   W12
 BYTE   Ds2
 BYTE   N32  As3
 BYTE   N32  Ds4
 BYTE   W12
 BYTE   N11  Ds2
 BYTE   W12
 BYTE   N11
 BYTE   W12
 BYTE   N22  As1
 BYTE   TIE  Fn3
 BYTE   TIE  As3
 BYTE   W12
 BYTE   PEND 
//  #02 //032   ----------------------------------------
 BYTE   PATT
  POIN2 Label_0140F8AD
//  #02 //033   ----------------------------------------
 BYTE   EOT
 BYTE   Fn3  v070
 BYTE   W06
//  #02 //034   ----------------------------------------
 BYTE   PATT
  POIN2 Label_0140F8C3
//  #02 //035   ----------------------------------------
 BYTE   PATT
  POIN2 Label_0140F8DB
//  #02 //036   ----------------------------------------
 BYTE   PATT
  POIN2 Label_0140F8F8
//  #02 //037   ----------------------------------------
 BYTE   PATT
  POIN2 Label_0140F915
//  #02 //038   ----------------------------------------
Label_0140F989:
 BYTE   N11  Cs2  v080
 BYTE   N44  Gs3
 BYTE   N44  Cs4
 BYTE   W12
 BYTE   N11  Cs2
 BYTE   W12
 BYTE   N11
 BYTE   W12
 BYTE   N11
 BYTE   W12
 BYTE   Cn2
 BYTE   N44  Gn3
 BYTE   N44  Cn4
 BYTE   W12
 BYTE   N11  Cn2
 BYTE   W12
 BYTE   N11
 BYTE   W12
 BYTE   N11
 BYTE   W12
 BYTE   PEND 
//  #02 //039   ----------------------------------------
 BYTE   N44  Fn3
 BYTE   N44  As3
 BYTE   W12
 BYTE   N23  Gn3
 BYTE   W12
 BYTE   W12
 BYTE   N12  Ds3
 BYTE   W12
 BYTE   N11  Ds2
 BYTE   N44  As3
 BYTE   N44  Ds4
 BYTE   W12
 BYTE   N11  Ds2
 BYTE   W12
 BYTE   N11
 BYTE   N23  Gn3
 BYTE   W12
 BYTE   N11  Ds2
 BYTE   W12
//  #02 //040   ----------------------------------------
 BYTE   N36  Ds3
 BYTE   TIE  Gs3
 BYTE   W12
 BYTE   N23  Gn3
 BYTE   W12
 BYTE   W12
 BYTE   N11  Gs1
 BYTE   N32  Ds3
 BYTE   W12
 BYTE   N11  Gs1
 BYTE   W12
 BYTE   N11
 BYTE   W12
 BYTE   N11
 BYTE   N23  Gn3
 BYTE   W12
 BYTE   N11  Gs1
 BYTE   W12
//  #02 //041   ----------------------------------------
 BYTE   N11
 BYTE   W12
 BYTE   N11
 BYTE   N23  Gn3
 BYTE   W12
 BYTE   N11  Gs1
 BYTE   W12
 BYTE   N11
 BYTE   N32  Ds3
 BYTE   W12
 BYTE   N11  Gs1
 BYTE   W12
 BYTE   N11
 BYTE   W12
 BYTE   N11
 BYTE   N23  Gn3
 BYTE   W12
 BYTE   N11  Gs1
 BYTE   W02
 BYTE   EOT
 BYTE   Gs3
 BYTE   W10
//  #02 //042   ----------------------------------------
 BYTE   N11  As1
 BYTE   N90  Fn3
 BYTE   N90  As3
 BYTE   W12
 BYTE   N11  As1
 BYTE   W12
 BYTE   N11
 BYTE   W12
 BYTE   N11
 BYTE   W12
 BYTE   N11
 BYTE   W12
 BYTE   N11
 BYTE   W12
 BYTE   N11
 BYTE   W12
 BYTE   N11
 BYTE   W12
//  #02 //043   ----------------------------------------
 BYTE   Cn2
 BYTE   N90  Gn3
 BYTE   N90  Cn4
 BYTE   W12
 BYTE   N11  Cn2
 BYTE   W12
 BYTE   N11
 BYTE   W12
 BYTE   N11
 BYTE   W12
 BYTE   N11
 BYTE   W12
 BYTE   N11
 BYTE   W12
 BYTE   N11
 BYTE   W12
 BYTE   N11
 BYTE   W12
//  #02 //044   ----------------------------------------
 BYTE   Cs2
 BYTE   N44  Gs3
 BYTE   N44  Cs4
 BYTE   W12
 BYTE   N11  Cs2
 BYTE   W12
 BYTE   N11
 BYTE   W12
 BYTE   N11
 BYTE   W12
 BYTE   Ds2
 BYTE   N44  As3
 BYTE   N44  Ds4
 BYTE   W12
 BYTE   N11  Ds2
 BYTE   W12
 BYTE   N11
 BYTE   W12
 BYTE   N11
 BYTE   W12
//  #02 //045   ----------------------------------------
 BYTE   PATT
  POIN2 Label_0140F8F8
//  #02 //046   ----------------------------------------
 BYTE   PATT
  POIN2 Label_0140F915
//  #02 //047   ----------------------------------------
 BYTE   PATT
  POIN2 Label_0140F989
//  #02 //048   ----------------------------------------
 BYTE   N11  As1  v080
 BYTE   N44  Fn3
 BYTE   N44  As3
 BYTE   W12
 BYTE   N11  As1
 BYTE   W12
 BYTE   N11
 BYTE   W12
 BYTE   N11
 BYTE   W12
 BYTE   Ds2
 BYTE   N44  As3
 BYTE   N44  Ds4
 BYTE   W12
 BYTE   N11  Ds2
 BYTE   W12
 BYTE   N11
 BYTE   W12
 BYTE   N11
 BYTE   W12
//  #02 //049   ----------------------------------------
 BYTE   Gs1
 BYTE   TIE  Ds3
 BYTE   TIE  Gs3
 BYTE   W12
 BYTE   N11  Gs1
 BYTE   W12
 BYTE   N11
 BYTE   W12
 BYTE   N11
 BYTE   W12
 BYTE   N11
 BYTE   W12
 BYTE   N11
 BYTE   W12
 BYTE   N11
 BYTE   W12
 BYTE   N11
 BYTE   W12
//  #02 //050   ----------------------------------------
 BYTE   N11
 BYTE   W06
 BYTE   W06
 BYTE   N11
 BYTE   W06
 BYTE   W06
 BYTE   Gs1  v076
 BYTE   W06
 BYTE   W06
 BYTE   N11
 BYTE   W06
 BYTE   W06
 BYTE   Gs1  v072
 BYTE   W06
 BYTE   W06
 BYTE   N11
 BYTE   W06
 BYTE   W06
 BYTE   Gs1  v068
 BYTE   W06
 BYTE   W06
 BYTE   N11
 BYTE   W02
 BYTE   EOT
 BYTE   Ds3  v068
 BYTE   W04
 BYTE   W06
//  #02 //051   ----------------------------------------
Label_0140FA9D:
 BYTE   N44  Fn0  v064
 BYTE   N44  Fn1
 BYTE   W48
 BYTE   Fn0
 BYTE   N44  Fn1
 BYTE   W48
 BYTE   PEND 
//  #02 //052   ----------------------------------------
 BYTE   PATT
  POIN2 Label_0140FA9D
//  #02 //053   ----------------------------------------
 BYTE   PATT
  POIN2 Label_0140FA9D
//  #02 //054   ----------------------------------------
 BYTE   PATT
  POIN2 Label_0140FA9D
//  #02 //055   ----------------------------------------
 BYTE   PATT
  POIN2 Label_0140FA9D
//  #02 //056   ----------------------------------------
 BYTE   PATT
  POIN2 Label_0140FA9D
//  #02 //057   ----------------------------------------
 BYTE   PATT
  POIN2 Label_0140FA9D
//  #02 //058   ----------------------------------------
 BYTE   N44  Fn0  v064
 BYTE   N44  Fn1
 BYTE   W48
 BYTE   Ds0
 BYTE   N44  Ds1
 BYTE   W48
//  #02 //059   ----------------------------------------
Label_0140FAD0:
 BYTE   N44  Cs0  v064
 BYTE   N44  Cs1
 BYTE   W48
 BYTE   Cs0
 BYTE   N44  Cs1
 BYTE   W48
 BYTE   PEND 
//  #02 //060   ----------------------------------------
 BYTE   PATT
  POIN2 Label_0140FAD0
//  #02 //061   ----------------------------------------
 BYTE   PATT
  POIN2 Label_0140FA9D
//  #02 //062   ----------------------------------------
 BYTE   PATT
  POIN2 Label_0140FA9D
//  #02 //063   ----------------------------------------
 BYTE   PATT
  POIN2 Label_0140FAD0
//  #02 //064   ----------------------------------------
 BYTE   PATT
  POIN2 Label_0140FAD0
//  #02 //065   ----------------------------------------
 BYTE   PATT
  POIN2 Label_0140FA9D
//  #02 //066   ----------------------------------------
 BYTE   N44  Fn0  v064
 BYTE   N44  Fn1
 BYTE   W84
 BYTE   N22  As1
 BYTE   TIE  Fn3
 BYTE   TIE  As3
 BYTE   W12
//  #02 //067   ----------------------------------------
Label_0140FB06:
 BYTE   W12
 BYTE   N11  As1  v064
 BYTE   W12
 BYTE   N11
 BYTE   W12
 BYTE   N11
 BYTE   W12
 BYTE   N11
 BYTE   W12
 BYTE   N11
 BYTE   W12
 BYTE   N11
 BYTE   W12
 BYTE   N11
 BYTE   W06
 BYTE   PEND 
 BYTE   EOT
 BYTE   Fn3  v070
 BYTE   W06
//  #02 //068   ----------------------------------------
Label_0140FB1C:
 BYTE   N11  Cn2  v064
 BYTE   N90  Gn3
 BYTE   N90  Cn4
 BYTE   W12
 BYTE   N11  Cn2
 BYTE   W12
 BYTE   N11
 BYTE   W12
 BYTE   N11
 BYTE   W12
 BYTE   N11
 BYTE   W12
 BYTE   N11
 BYTE   W12
 BYTE   N11
 BYTE   W12
 BYTE   N11
 BYTE   W12
 BYTE   PEND 
//  #02 //069   ----------------------------------------
Label_0140FB34:
 BYTE   N11  Cs2  v064
 BYTE   N44  Gs3
 BYTE   N44  Cs4
 BYTE   W12
 BYTE   N11  Cs2
 BYTE   W12
 BYTE   N11
 BYTE   W12
 BYTE   N11
 BYTE   W12
 BYTE   Ds2
 BYTE   N44  As3
 BYTE   N44  Ds4
 BYTE   W12
 BYTE   N11  Ds2
 BYTE   W12
 BYTE   N11
 BYTE   W12
 BYTE   N11
 BYTE   W12
 BYTE   PEND 
//  #02 //070   ----------------------------------------
Label_0140FB51:
 BYTE   N11  Fn2  v064
 BYTE   N44  Cn4
 BYTE   N44  Fn4
 BYTE   W12
 BYTE   N11  Fn2
 BYTE   W12
 BYTE   N11
 BYTE   W12
 BYTE   N11
 BYTE   W12
 BYTE   Ds2
 BYTE   N44  As3
 BYTE   N44  Ds4
 BYTE   W12
 BYTE   N11  Ds2
 BYTE   W12
 BYTE   N11
 BYTE   W12
 BYTE   N11
 BYTE   W12
 BYTE   PEND 
//  #02 //071   ----------------------------------------
Label_0140FB6E:
 BYTE   N11  Dn2  v064
 BYTE   N90  Gs3
 BYTE   N90  Dn4
 BYTE   W12
 BYTE   N11  Dn2
 BYTE   W12
 BYTE   N11
 BYTE   W12
 BYTE   N11
 BYTE   W12
 BYTE   N11
 BYTE   W12
 BYTE   N11
 BYTE   W12
 BYTE   N11
 BYTE   W12
 BYTE   N11
 BYTE   W12
 BYTE   PEND 
//  #02 //072   ----------------------------------------
 BYTE   As1
 BYTE   N44  Fn3
 BYTE   N44  As3
 BYTE   W12
 BYTE   N11  As1
 BYTE   W12
 BYTE   N11
 BYTE   W12
 BYTE   N11
 BYTE   W12
 BYTE   Cn2
 BYTE   N44  Gn3
 BYTE   N44  Cn4
 BYTE   W12
 BYTE   N11  Cn2
 BYTE   W12
 BYTE   N11
 BYTE   W12
 BYTE   N11
 BYTE   W12
//  #02 //073   ----------------------------------------
 BYTE   Cs2
 BYTE   N44  Gs3
 BYTE   N44  Cs4
 BYTE   W12
 BYTE   N11  Cs2
 BYTE   W12
 BYTE   N11
 BYTE   W12
 BYTE   N11
 BYTE   W12
 BYTE   Ds2
 BYTE   N32  As3
 BYTE   N32  Ds4
 BYTE   W12
 BYTE   N11  Ds2
 BYTE   W12
 BYTE   N11
 BYTE   W12
 BYTE   N22  As1
 BYTE   TIE  Fn3
 BYTE   TIE  As3
 BYTE   W12
//  #02 //074   ----------------------------------------
 BYTE   PATT
  POIN2 Label_0140FB06
//  #02 //075   ----------------------------------------
 BYTE   EOT
 BYTE   Fn3  v070
 BYTE   W06
//  #02 //076   ----------------------------------------
 BYTE   PATT
  POIN2 Label_0140FB1C
//  #02 //077   ----------------------------------------
 BYTE   PATT
  POIN2 Label_0140FB34
//  #02 //078   ----------------------------------------
 BYTE   PATT
  POIN2 Label_0140FB51
//  #02 //079   ----------------------------------------
 BYTE   PATT
  POIN2 Label_0140FB6E
//  #02 //080   ----------------------------------------
 BYTE   N11  Cs2  v064
 BYTE   N44  Gs3
 BYTE   N44  Cs4
 BYTE   W12
 BYTE   N11  Cs2
 BYTE   W12
 BYTE   N11
 BYTE   W12
 BYTE   N11
 BYTE   W12
 BYTE   Cn2
 BYTE   N44  Gn3
 BYTE   N44  Cn4
 BYTE   W12
 BYTE   N11  Cn2
 BYTE   W12
 BYTE   N11
 BYTE   W12
 BYTE   N11
 BYTE   W12
//  #02 //081   ----------------------------------------
 BYTE   N44  Fn3
 BYTE   N44  As3
 BYTE   W12
 BYTE   N23  Gn3  v080
 BYTE   W12
 BYTE   W12
 BYTE   N12  Ds3
 BYTE   W12
 BYTE   N11  Ds2  v064
 BYTE   N23  Ds3
 BYTE   N44  As3
 BYTE   N44  Ds4
 BYTE   W12
 BYTE   N11  Ds2
 BYTE   W12
 BYTE   N11
 BYTE   N23  Gn3  v080
 BYTE   W12
 BYTE   N11  Ds2  v064
 BYTE   W12
//  #02 //082   ----------------------------------------
 BYTE   N36  Ds3
 BYTE   TIE  Gs3
 BYTE   W12
 BYTE   N23  Gn3  v080
 BYTE   W12
 BYTE   W12
 BYTE   N11  Gs1  v064
 BYTE   N32  Ds3  v080
 BYTE   W12
 BYTE   N11  Gs1  v064
 BYTE   W12
 BYTE   N11
 BYTE   W12
 BYTE   N11
 BYTE   N23  Gn3  v080
 BYTE   W12
 BYTE   N11  Gs1  v064
 BYTE   W12
//  #02 //083   ----------------------------------------
 BYTE   N11
 BYTE   W12
 BYTE   N11
 BYTE   N23  Gn3  v080
 BYTE   W12
 BYTE   N11  Gs1  v064
 BYTE   W12
 BYTE   N11
 BYTE   N32  Ds3  v080
 BYTE   W12
 BYTE   N11  Gs1  v064
 BYTE   W12
 BYTE   N11
 BYTE   W12
 BYTE   N11
 BYTE   N23  Gn3  v080
 BYTE   W12
 BYTE   N11  Gs1  v064
 BYTE   W02
 BYTE   EOT
 BYTE   Gs3
 BYTE   W10
//  #02 //084   ----------------------------------------
 BYTE   N11  As1
 BYTE   N90  Fn3
 BYTE   N90  As3
 BYTE   W12
 BYTE   N11  As1
 BYTE   W12
 BYTE   N11
 BYTE   W12
 BYTE   N11
 BYTE   W12
 BYTE   N11
 BYTE   W12
 BYTE   N11
 BYTE   W12
 BYTE   N11
 BYTE   W12
 BYTE   N11
 BYTE   W12
//  #02 //085   ----------------------------------------
 BYTE   Cn2
 BYTE   N90  Gn3
 BYTE   N90  Cn4
 BYTE   W12
 BYTE   N11  Cn2
 BYTE   W12
 BYTE   N11
 BYTE   W12
 BYTE   N11
 BYTE   W12
 BYTE   N11
 BYTE   W12
 BYTE   N11
 BYTE   W12
 BYTE   N11
 BYTE   W12
 BYTE   N11
 BYTE   W12
//  #02 //086   ----------------------------------------
 BYTE   Bn1
 BYTE   N90  Fs3
 BYTE   N90  Bn3
 BYTE   W12
 BYTE   N11  Bn1
 BYTE   W12
 BYTE   N11
 BYTE   W12
 BYTE   N11
 BYTE   W12
 BYTE   N11
 BYTE   W12
 BYTE   N11
 BYTE   W12
 BYTE   N11
 BYTE   W12
 BYTE   N11
 BYTE   W12
//  #02 //087   ----------------------------------------
 BYTE   En2
 BYTE   N90  Bn3
 BYTE   N90  En4
 BYTE   W12
 BYTE   N11  En2
 BYTE   W12
 BYTE   N11
 BYTE   W12
 BYTE   N11
 BYTE   W12
 BYTE   N11
 BYTE   W12
 BYTE   N11
 BYTE   W12
 BYTE   N11
 BYTE   W12
 BYTE   N11
 BYTE   W12
//  #02 //088   ----------------------------------------
 BYTE   As1
 BYTE   N90  Fn3
 BYTE   N90  As3
 BYTE   W12
 BYTE   N11  As1
 BYTE   W12
 BYTE   N11
 BYTE   W12
 BYTE   N11
 BYTE   W12
 BYTE   N11
 BYTE   W12
 BYTE   N11
 BYTE   W12
 BYTE   N11
 BYTE   W12
 BYTE   N11
 BYTE   W12
//  #02 //089   ----------------------------------------
 BYTE   Gs1
 BYTE   N90  En3
 BYTE   N90  An3
 BYTE   W12
 BYTE   N11  Gs1
 BYTE   W12
 BYTE   N11
 BYTE   W12
 BYTE   N11
 BYTE   W12
 BYTE   N11
 BYTE   W12
 BYTE   N11
 BYTE   W12
 BYTE   N11
 BYTE   W12
 BYTE   N11
 BYTE   W12
//  #02 //090   ----------------------------------------
 BYTE   TIE
 BYTE   TIE  Ds3
 BYTE   TIE  Gs3
 BYTE   W96
//  #02 //091   ----------------------------------------
 BYTE   W84
 BYTE   W02
 BYTE   EOT
 BYTE   Gs1  v063
 BYTE   Gs3
 BYTE   W10
//  #02 //092   ----------------------------------------
 BYTE   N44  Fn2  v080
 BYTE   N44  Gs2
 BYTE   W12
 BYTE   N11  Ds3
 BYTE   W12
 BYTE   N22  Fn3
 BYTE   N22  Cn4
 BYTE   W24
 BYTE   N44  Gs2
 BYTE   N44  Cn3
 BYTE   N44  Ds3
 BYTE   N44  As3
 BYTE   W48
//  #02 //093   ----------------------------------------
 BYTE   Fn2
 BYTE   N44  As2
 BYTE   N44  Cs3
 BYTE   N44  Gs3
 BYTE   W48
 BYTE   N11  Cn2
 BYTE   N36  Cn3
 BYTE   N44  Gn3
 BYTE   W12
 BYTE   N11  Ds2
 BYTE   W12
 BYTE   Gn2
 BYTE   N11  Gs2
 BYTE   W12
 BYTE   W12
//  #02 //094   ----------------------------------------
 BYTE   Cs2
 BYTE   N11  Cs3
 BYTE   W12
 BYTE   Gs2
 BYTE   N11  Ds3
 BYTE   W12
 BYTE   N22  Cs3
 BYTE   N22  Fn3
 BYTE   N22  Cn4
 BYTE   W24
 BYTE   Gs2
 BYTE   N22  Cn3
 BYTE   N22  Ds3
 BYTE   N22  As3
 BYTE   W24
 BYTE   Cn3
 BYTE   N22  As3
 BYTE   N22  Ds4
 BYTE   W24
//  #02 //095   ----------------------------------------
 BYTE   N32  Fn2
 BYTE   N32  As2
 BYTE   N60  Cs3
 BYTE   N68  Gs3
 BYTE   W36
 BYTE   N11  Gs2
 BYTE   W12
 BYTE   As2
 BYTE   W12
 BYTE   W12
 BYTE   N22  Cn3
 BYTE   N22  Ds3
 BYTE   N22  Gn3
 BYTE   W24
//  #02 //096   ----------------------------------------
 BYTE   N44  Cs2
 BYTE   N44  Gs2
 BYTE   W12
 BYTE   N11  Ds3
 BYTE   W12
 BYTE   N22  Fn3
 BYTE   N22  Cn4
 BYTE   W24
 BYTE   N44  Gs2
 BYTE   N44  Cn3
 BYTE   N44  Ds3
 BYTE   N44  As3
 BYTE   W48
//  #02 //097   ----------------------------------------
 BYTE   Fn2
 BYTE   N44  As2
 BYTE   N44  Cs3
 BYTE   N44  Gs3
 BYTE   W48
 BYTE   Ds2
 BYTE   N44  Gs2
 BYTE   N44  Cn3
 BYTE   N44  Gn3
 BYTE   W48
//  #02 //098   ----------------------------------------
 BYTE   N68  Cn3
 BYTE   N68  Ds3
 BYTE   N68  Gs3
 BYTE   W36
 BYTE   W12
 BYTE   N11  As2
 BYTE   W12
 BYTE   Cs3
 BYTE   W12
 BYTE   N22  Ds3
 BYTE   N11  Fn3
 BYTE   N22  Gs3
 BYTE   W12
 BYTE   N11  As2
 BYTE   W12
//  #02 //099   ----------------------------------------
 BYTE   N22  Cs3
 BYTE   N22  Fn3
 BYTE   N22  Gs3
 BYTE   N22  Cn4
 BYTE   W24
 BYTE   As3
 BYTE   W60
 BYTE   As1
 BYTE   TIE  Fn3
 BYTE   TIE  As3
 BYTE   W12
//  #02 //100   ----------------------------------------
 BYTE   PATT
  POIN2 Label_0140F8AD
//  #02 //101   ----------------------------------------
 BYTE   EOT
 BYTE   Fn3  v070
 BYTE   W06
//  #02 //102   ----------------------------------------
 BYTE   PATT
  POIN2 Label_0140F8C3
//  #02 //103   ----------------------------------------
 BYTE   PATT
  POIN2 Label_0140F8DB
//  #02 //104   ----------------------------------------
 BYTE   PATT
  POIN2 Label_0140F8F8
//  #02 //105   ----------------------------------------
 BYTE   PATT
  POIN2 Label_0140F915
//  #02 //106   ----------------------------------------
 BYTE   PATT
  POIN2 Label_0140F92D
//  #02 //107   ----------------------------------------
 BYTE   PATT
  POIN2 Label_0140F94A
//  #02 //108   ----------------------------------------
 BYTE   PATT
  POIN2 Label_0140F8AD
//  #02 //109   ----------------------------------------
 BYTE   EOT
 BYTE   Fn3  v070
 BYTE   W06
//  #02 //110   ----------------------------------------
 BYTE   PATT
  POIN2 Label_0140F8C3
//  #02 //111   ----------------------------------------
 BYTE   PATT
  POIN2 Label_0140F8DB
//  #02 //112   ----------------------------------------
 BYTE   PATT
  POIN2 Label_0140F8F8
//  #02 //113   ----------------------------------------
 BYTE   PATT
  POIN2 Label_0140F915
//  #02 //114   ----------------------------------------
 BYTE   PATT
  POIN2 Label_0140F92D
//  #02 //115   ----------------------------------------
 BYTE   PATT
  POIN2 Label_0140F94A
//  #02 //116   ----------------------------------------
 BYTE   PATT
  POIN2 Label_0140F8AD
//  #02 //117   ----------------------------------------
 BYTE   EOT
 BYTE   Fn3  v070
 BYTE   W06
//  #02 //118   ----------------------------------------
 BYTE   PATT
  POIN2 Label_0140F8C3
//  #02 //119   ----------------------------------------
 BYTE   PATT
  POIN2 Label_0140F8DB
//  #02 //120   ----------------------------------------
 BYTE   PATT
  POIN2 Label_0140F8F8
//  #02 //121   ----------------------------------------
 BYTE   N11  Dn2  v080
 BYTE   N90  Gs3
 BYTE   N90  Dn4
 BYTE   W12
 BYTE   N11  Dn2
 BYTE   W12
 BYTE   N11
 BYTE   W12
 BYTE   N11
 BYTE   W12
 BYTE   N11
 BYTE   W12
 BYTE   N11
 BYTE   W12
 BYTE   N11
 BYTE   W12
 BYTE   N11
 BYTE   W12
//  #02 //122   ----------------------------------------
 BYTE   PATT
  POIN2 Label_0140F989
//  #02 //123   ----------------------------------------
 BYTE   N44  Fn3  v080
 BYTE   N44  As3
 BYTE   W12
 BYTE   N23  Gn3
 BYTE   W12
 BYTE   W12
 BYTE   N12  Ds3
 BYTE   W12
 BYTE   N11  Ds2
 BYTE   N11  Ds3
 BYTE   N44  As3
 BYTE   N44  Ds4
 BYTE   W12
 BYTE   N11  Ds2
 BYTE   N32  Cn3
 BYTE   W12
 BYTE   N11  Ds2
 BYTE   W12
 BYTE   N11
 BYTE   W12
//  #02 //124   ----------------------------------------
 BYTE   N36  Ds3
 BYTE   TIE  Gs3
 BYTE   W12
 BYTE   N23  Gn3
 BYTE   W12
 BYTE   W12
 BYTE   N11  Gs1
 BYTE   N23  Ds3
 BYTE   W12
 BYTE   N11  Gs1  v076
 BYTE   W12
 BYTE   N11
 BYTE   N32  Cn3  v080
 BYTE   W12
 BYTE   N11  Gs1  v076
 BYTE   W12
 BYTE   N11
 BYTE   W12
//  #02 //125   ----------------------------------------
 BYTE   Gs1  v072
 BYTE   W12
 BYTE   N11
 BYTE   N23  Gn3  v080
 BYTE   W12
 BYTE   N11  Gs1  v072
 BYTE   W12
 BYTE   N11
 BYTE   N23  Ds3  v080
 BYTE   W12
 BYTE   N11  Gs1  v068
 BYTE   W12
 BYTE   N11
 BYTE   N32  Cn3  v080
 BYTE   W12
 BYTE   N11  Gs1  v068
 BYTE   W12
 BYTE   N11
 BYTE   W02
 BYTE   EOT
 BYTE   Gs3
 BYTE   W10
//  #02 //126   ----------------------------------------
 BYTE   N92  Gs2  v080
 BYTE   W01
 BYTE   Cn3
 BYTE   W02
 BYTE   Ds3
 BYTE   W02
 BYTE   N90  Gn3
 BYTE   W90
 BYTE   W01
//  #02 //127   ----------------------------------------
 BYTE   W96
//  #02 //128   ----------------------------------------
 BYTE   GoTo
  POIN2 Label_0140F772
//  #02 //129   ----------------------------------------
 BYTE   W23
 BYTE   FINE

//**************** Track 3 (Midi-Chn.2) ****************//

OurLight_003:
//  #03 //000   ----------------------------------------
 BYTE   KEYSH   OurLight_key+0
Label_0140FEA2:
 BYTE   VOICE   104
 BYTE   VOL   40*OurLight_mvl/mxv
 BYTE   PAN   c_v+0
 BYTE   VOL   40*OurLight_mvl/mxv
 BYTE   PAN   c_v+0
 BYTE   W96
//  #03 //001   ----------------------------------------
 BYTE   W96
//  #03 //002   ----------------------------------------
 BYTE   W96
//  #03 //003   ----------------------------------------
 BYTE   W96
//  #03 //004   ----------------------------------------
 BYTE   W96
//  #03 //005   ----------------------------------------
 BYTE   W96
//  #03 //006   ----------------------------------------
 BYTE   W96
//  #03 //007   ----------------------------------------
 BYTE   W96
//  #03 //008   ----------------------------------------
 BYTE   W96
//  #03 //009   ----------------------------------------
 BYTE   W96
//  #03 //010   ----------------------------------------
 BYTE   W96
//  #03 //011   ----------------------------------------
 BYTE   W96
//  #03 //012   ----------------------------------------
 BYTE   W96
//  #03 //013   ----------------------------------------
 BYTE   W96
//  #03 //014   ----------------------------------------
 BYTE   W96
//  #03 //015   ----------------------------------------
 BYTE   W96
//  #03 //016   ----------------------------------------
 BYTE   W96
//  #03 //017   ----------------------------------------
 BYTE   W96
//  #03 //018   ----------------------------------------
 BYTE   W96
//  #03 //019   ----------------------------------------
 BYTE   W96
//  #03 //020   ----------------------------------------
 BYTE   W96
//  #03 //021   ----------------------------------------
 BYTE   W96
//  #03 //022   ----------------------------------------
 BYTE   W96
//  #03 //023   ----------------------------------------
 BYTE   W96
//  #03 //024   ----------------------------------------
Label_0140FEC4:
 BYTE   W84
 BYTE   N23  Cs3  v080
 BYTE   N23  Cs4
 BYTE   W12
 BYTE   PEND 
//  #03 //025   ----------------------------------------
Label_0140FECC:
 BYTE   W12
 BYTE   N11  Cs3  v080
 BYTE   N11  Cs4
 BYTE   W12
 BYTE   N05  Fn3
 BYTE   N05  Fn4
 BYTE   W12
 BYTE   N11  Cs3
 BYTE   N11  Cs4
 BYTE   W12
 BYTE   N05  Fn3
 BYTE   N05  Fn4
 BYTE   W12
 BYTE   N11  Cs3
 BYTE   N11  Cs4
 BYTE   W12
 BYTE   N05  Fn3
 BYTE   N05  Fn4
 BYTE   W12
 BYTE   N11  Cs3
 BYTE   N11  Cs4
 BYTE   W12
 BYTE   PEND 
//  #03 //026   ----------------------------------------
Label_0140FEF2:
 BYTE   N11  Ds3  v080
 BYTE   N11  Ds4
 BYTE   W12
 BYTE   Ds3
 BYTE   N11  Ds4
 BYTE   W12
 BYTE   N05  Gn3
 BYTE   N05  Gn4
 BYTE   W12
 BYTE   N11  Ds3
 BYTE   N11  Ds4
 BYTE   W12
 BYTE   N05  Gn3
 BYTE   N05  Gn4
 BYTE   W12
 BYTE   N11  Ds3
 BYTE   N11  Ds4
 BYTE   W12
 BYTE   N05  Gn3
 BYTE   N05  Gn4
 BYTE   W12
 BYTE   N11  Ds3
 BYTE   N11  Ds4
 BYTE   W12
 BYTE   PEND 
//  #03 //027   ----------------------------------------
Label_0140FF1B:
 BYTE   N44  Gs3  v080
 BYTE   N44  Cs4
 BYTE   W48
 BYTE   As3
 BYTE   N44  Ds4
 BYTE   W48
 BYTE   PEND 
//  #03 //028   ----------------------------------------
Label_0140FF26:
 BYTE   W12
 BYTE   N05  Fn3  v080
 BYTE   N05  Fn4
 BYTE   W06
 BYTE   Gn3
 BYTE   N05  Gn4
 BYTE   W06
 BYTE   N68  Gs4
 BYTE   W12
 BYTE   W06
 BYTE   W06
 BYTE   W12
 BYTE   W06
 BYTE   W06
 BYTE   W12
 BYTE   W12
 BYTE   PEND 
//  #03 //029   ----------------------------------------
Label_0140FF3C:
 BYTE   N92  Dn4  v080
 BYTE   N92  Fn4
 BYTE   W96
 BYTE   PEND 
//  #03 //030   ----------------------------------------
 BYTE   N23  Cs3
 BYTE   N23  Gs3
 BYTE   N23  Cs4
 BYTE   W36
 BYTE   N05  Cn3
 BYTE   N05  Cn4
 BYTE   W06
 BYTE   Cs3
 BYTE   N05  Cs4
 BYTE   W06
 BYTE   N11  Ds3
 BYTE   N11  Ds4
 BYTE   W12
 BYTE   N05  Cs3
 BYTE   N05  Cs4
 BYTE   W12
 BYTE   N11  Cn3
 BYTE   N11  Cn4
 BYTE   W12
 BYTE   N32  Cs3
 BYTE   N32  Cs4
 BYTE   W12
//  #03 //031   ----------------------------------------
Label_0140FF67:
 BYTE   W36
 BYTE   N05  Cn3  v080
 BYTE   N05  Cn4
 BYTE   W06
 BYTE   Cs3
 BYTE   N05  Cs4
 BYTE   W06
 BYTE   N11  Ds3
 BYTE   N11  Ds4
 BYTE   W12
 BYTE   N05  Cs3
 BYTE   N05  Cs4
 BYTE   W12
 BYTE   N11  Cn3
 BYTE   N11  Cn4
 BYTE   W12
 BYTE   N23  Fn3  v120
 BYTE   N23  As3
 BYTE   W12
 BYTE   PEND 
//  #03 //032   ----------------------------------------
 BYTE   PATT
  POIN2 Label_0140FECC
//  #03 //033   ----------------------------------------
 BYTE   PATT
  POIN2 Label_0140FEF2
//  #03 //034   ----------------------------------------
 BYTE   PATT
  POIN2 Label_0140FF1B
//  #03 //035   ----------------------------------------
 BYTE   PATT
  POIN2 Label_0140FF26
//  #03 //036   ----------------------------------------
 BYTE   PATT
  POIN2 Label_0140FF3C
//  #03 //037   ----------------------------------------
Label_0140FFA1:
 BYTE   N44  Gs3  v080
 BYTE   N44  Cs4
 BYTE   W48
 BYTE   N23  Gn3
 BYTE   N23  Cn4
 BYTE   W24
 BYTE   As3
 BYTE   N23  Ds4
 BYTE   W24
 BYTE   PEND 
//  #03 //038   ----------------------------------------
Label_0140FFB1:
 BYTE   N92  Gs3  v080
 BYTE   N92  Cs4
 BYTE   W96
 BYTE   PEND 
//  #03 //039   ----------------------------------------
Label_0140FFB8:
 BYTE   TIE  Gs3  v080
 BYTE   TIE  Cn4
 BYTE   W96
 BYTE   PEND 
//  #03 //040   ----------------------------------------
Label_0140FFBF:
 BYTE   W92
 BYTE   W03
 BYTE   PEND 
 BYTE   EOT
 BYTE   Gs3  v072
 BYTE   W01
//  #03 //041   ----------------------------------------
 BYTE   N92  Fn3  v080
 BYTE   N92  As3
 BYTE   W96
//  #03 //042   ----------------------------------------
Label_0140FFCC:
 BYTE   N92  Gn3  v080
 BYTE   N92  Cn4
 BYTE   W96
 BYTE   PEND 
//  #03 //043   ----------------------------------------
 BYTE   PATT
  POIN2 Label_0140FF1B
//  #03 //044   ----------------------------------------
 BYTE   PATT
  POIN2 Label_0140FF26
//  #03 //045   ----------------------------------------
 BYTE   PATT
  POIN2 Label_0140FF3C
//  #03 //046   ----------------------------------------
 BYTE   N44  Gs3  v080
 BYTE   N44  Cs4
 BYTE   N44  Fn4
 BYTE   W48
 BYTE   N23  Cn4
 BYTE   N23  Gn4
 BYTE   W24
 BYTE   Ds4
 BYTE   N23  Gs4
 BYTE   W24
//  #03 //047   ----------------------------------------
 BYTE   N44  Fn3
 BYTE   N44  As3
 BYTE   N44  Ds4
 BYTE   W48
 BYTE   N24  As3
 BYTE   N11  Cs4
 BYTE   N44  Ds4
 BYTE   W12
 BYTE   N11  Cn4
 BYTE   W12
 BYTE   N32  As3
 BYTE   W24
//  #03 //048   ----------------------------------------
 BYTE   TIE  Ds3
 BYTE   N12  Gs3
 BYTE   W12
 BYTE   TIE
 BYTE   W12
 BYTE   W72
//  #03 //049   ----------------------------------------
 BYTE   W03
 BYTE   W03
 BYTE   W03
 BYTE   W03
 BYTE   W03
 BYTE   W03
 BYTE   W03
 BYTE   W03
 BYTE   W03
 BYTE   W04
 BYTE   W03
 BYTE   W03
 BYTE   W03
 BYTE   W03
 BYTE   W03
 BYTE   W03
 BYTE   W03
 BYTE   W03
 BYTE   W03
 BYTE   W03
 BYTE   W04
 BYTE   W03
 BYTE   W03
 BYTE   W03
 BYTE   W03
 BYTE   W03
 BYTE   W03
 BYTE   W03
 BYTE   W03
 BYTE   W03
 BYTE   W03
 BYTE   EOT
 BYTE   Ds3  v068
 BYTE   W01
//  #03 //050   ----------------------------------------
 BYTE   W96
//  #03 //051   ----------------------------------------
 BYTE   W96
//  #03 //052   ----------------------------------------
 BYTE   W96
//  #03 //053   ----------------------------------------
 BYTE   W96
//  #03 //054   ----------------------------------------
 BYTE   W96
//  #03 //055   ----------------------------------------
 BYTE   W96
//  #03 //056   ----------------------------------------
 BYTE   W96
//  #03 //057   ----------------------------------------
 BYTE   W96
//  #03 //058   ----------------------------------------
 BYTE   W96
//  #03 //059   ----------------------------------------
 BYTE   W96
//  #03 //060   ----------------------------------------
 BYTE   W96
//  #03 //061   ----------------------------------------
 BYTE   W96
//  #03 //062   ----------------------------------------
 BYTE   W96
//  #03 //063   ----------------------------------------
 BYTE   W96
//  #03 //064   ----------------------------------------
 BYTE   W96
//  #03 //065   ----------------------------------------
 BYTE   PATT
  POIN2 Label_0140FEC4
//  #03 //066   ----------------------------------------
 BYTE   PATT
  POIN2 Label_0140FECC
//  #03 //067   ----------------------------------------
 BYTE   PATT
  POIN2 Label_0140FEF2
//  #03 //068   ----------------------------------------
 BYTE   PATT
  POIN2 Label_0140FF1B
//  #03 //069   ----------------------------------------
 BYTE   PATT
  POIN2 Label_0140FF26
//  #03 //070   ----------------------------------------
 BYTE   PATT
  POIN2 Label_0140FF3C
//  #03 //071   ----------------------------------------
Label_0141005F:
 BYTE   N23  Gs3  v080
 BYTE   N23  Cs4
 BYTE   W36
 BYTE   N05  Cn3
 BYTE   N05  Cn4
 BYTE   W06
 BYTE   Cs3
 BYTE   N05  Cs4
 BYTE   W06
 BYTE   N11  Ds3
 BYTE   N11  Ds4
 BYTE   W12
 BYTE   N05  Cs3
 BYTE   N05  Cs4
 BYTE   W12
 BYTE   N11  Cn3
 BYTE   N11  Cn4
 BYTE   W12
 BYTE   N32  Cs3
 BYTE   N32  Cs4
 BYTE   W12
 BYTE   PEND 
//  #03 //072   ----------------------------------------
 BYTE   PATT
  POIN2 Label_0140FF67
//  #03 //073   ----------------------------------------
 BYTE   PATT
  POIN2 Label_0140FECC
//  #03 //074   ----------------------------------------
 BYTE   PATT
  POIN2 Label_0140FEF2
//  #03 //075   ----------------------------------------
 BYTE   PATT
  POIN2 Label_0140FF1B
//  #03 //076   ----------------------------------------
 BYTE   W12
 BYTE   N05  Fn3  v080
 BYTE   N05  Fn4
 BYTE   W06
 BYTE   Gn4
 BYTE   W06
 BYTE   N68  Gs4
 BYTE   W12
 BYTE   W06
 BYTE   W06
 BYTE   W12
 BYTE   W06
 BYTE   W06
 BYTE   W12
 BYTE   W12
//  #03 //077   ----------------------------------------
 BYTE   PATT
  POIN2 Label_0140FF3C
//  #03 //078   ----------------------------------------
 BYTE   PATT
  POIN2 Label_0140FFA1
//  #03 //079   ----------------------------------------
 BYTE   PATT
  POIN2 Label_0140FFB1
//  #03 //080   ----------------------------------------
 BYTE   PATT
  POIN2 Label_0140FFB8
//  #03 //081   ----------------------------------------
 BYTE   PATT
  POIN2 Label_0140FFBF
//  #03 //082   ----------------------------------------
 BYTE   EOT
 BYTE   Gs3  v072
 BYTE   W01
 BYTE   N92  Fn3  v080
 BYTE   N44  Gs3
 BYTE   W48
 BYTE   As3
 BYTE   W48
//  #03 //083   ----------------------------------------
 BYTE   PATT
  POIN2 Label_0140FFCC
//  #03 //084   ----------------------------------------
 BYTE   N92  Bn3  v080
 BYTE   N44  Ds4
 BYTE   W48
 BYTE   Gs4
 BYTE   W48
//  #03 //085   ----------------------------------------
 BYTE   Bn3
 BYTE   N44  Ds4
 BYTE   W48
 BYTE   Gs3
 BYTE   N44  Cs4
 BYTE   W48
//  #03 //086   ----------------------------------------
 BYTE   N92  Fn3
 BYTE   N92  Cn4
 BYTE   W96
//  #03 //087   ----------------------------------------
 BYTE   En3
 BYTE   N92  Bn3
 BYTE   W96
//  #03 //088   ----------------------------------------
 BYTE   TIE  Ds3
 BYTE   TIE  Gs3
 BYTE   TIE  Cn4
 BYTE   W06
 BYTE   W06
 BYTE   W06
 BYTE   W06
 BYTE   W07
 BYTE   W06
 BYTE   W06
 BYTE   W06
 BYTE   W06
 BYTE   W06
 BYTE   W07
 BYTE   W06
 BYTE   W06
 BYTE   W06
 BYTE   W06
 BYTE   W04
//  #03 //089   ----------------------------------------
 BYTE   W03
 BYTE   W06
 BYTE   W06
 BYTE   W06
 BYTE   W06
 BYTE   W07
 BYTE   W06
 BYTE   W06
 BYTE   W06
 BYTE   W06
 BYTE   W07
 BYTE   W06
 BYTE   W06
 BYTE   W06
 BYTE   W06
 BYTE   W06
 BYTE   EOT
 BYTE   Ds3  v068
 BYTE   Cn4
 BYTE   W01
//  #03 //090   ----------------------------------------
 BYTE   W96
//  #03 //091   ----------------------------------------
 BYTE   W96
//  #03 //092   ----------------------------------------
 BYTE   W96
//  #03 //093   ----------------------------------------
 BYTE   W96
//  #03 //094   ----------------------------------------
 BYTE   W96
//  #03 //095   ----------------------------------------
 BYTE   W96
//  #03 //096   ----------------------------------------
 BYTE   W96
//  #03 //097   ----------------------------------------
 BYTE   PATT
  POIN2 Label_0140FEC4
//  #03 //098   ----------------------------------------
 BYTE   PATT
  POIN2 Label_0140FECC
//  #03 //099   ----------------------------------------
 BYTE   PATT
  POIN2 Label_0140FEF2
//  #03 //100   ----------------------------------------
 BYTE   PATT
  POIN2 Label_0140FF1B
//  #03 //101   ----------------------------------------
 BYTE   PATT
  POIN2 Label_0140FF26
//  #03 //102   ----------------------------------------
 BYTE   PATT
  POIN2 Label_0140FF3C
//  #03 //103   ----------------------------------------
 BYTE   PATT
  POIN2 Label_0141005F
//  #03 //104   ----------------------------------------
 BYTE   PATT
  POIN2 Label_0140FF67
//  #03 //105   ----------------------------------------
 BYTE   PATT
  POIN2 Label_0140FECC
//  #03 //106   ----------------------------------------
 BYTE   PATT
  POIN2 Label_0140FEF2
//  #03 //107   ----------------------------------------
 BYTE   PATT
  POIN2 Label_0140FF1B
//  #03 //108   ----------------------------------------
 BYTE   PATT
  POIN2 Label_0140FF26
//  #03 //109   ----------------------------------------
 BYTE   PATT
  POIN2 Label_0140FF3C
//  #03 //110   ----------------------------------------
 BYTE   PATT
  POIN2 Label_0141005F
//  #03 //111   ----------------------------------------
 BYTE   PATT
  POIN2 Label_0140FF67
//  #03 //112   ----------------------------------------
 BYTE   W12
 BYTE   N11  Cs3  v080
 BYTE   N11  Cs4
 BYTE   W06
 BYTE   N02  Cn4
 BYTE   W06
 BYTE   Cs4
 BYTE   N05  Fn4
 BYTE   W06
 BYTE   N02  Cn4
 BYTE   W06
 BYTE   As3
 BYTE   N11  Cs4
 BYTE   W06
 BYTE   N02  Gs3
 BYTE   W06
 BYTE   Gn3
 BYTE   N05  Fn4
 BYTE   W06
 BYTE   N02  Gs3
 BYTE   W06
 BYTE   Gn3
 BYTE   N11  Cs4
 BYTE   W06
 BYTE   W06
 BYTE   N02  Ds3
 BYTE   N05  Fn4
 BYTE   W06
 BYTE   W06
 BYTE   N02  Cn3
 BYTE   N11  Cs4
 BYTE   W06
 BYTE   N05  Cs3
 BYTE   W06
//  #03 //113   ----------------------------------------
 BYTE   N11  Cn3
 BYTE   N11  Ds4
 BYTE   W12
 BYTE   Ds3
 BYTE   N11  Ds4
 BYTE   W06
 BYTE   N02  Cs4
 BYTE   W06
 BYTE   Ds4
 BYTE   N05  Gn4
 BYTE   W06
 BYTE   N02  Fn4
 BYTE   W06
 BYTE   N11  Ds4
 BYTE   W06
 BYTE   N02  Cs4
 BYTE   W06
 BYTE   Cn4
 BYTE   N05  Gn4
 BYTE   W06
 BYTE   N02  As3
 BYTE   W06
 BYTE   Gs3
 BYTE   N11  Ds4
 BYTE   W06
 BYTE   W06
 BYTE   N02  Fn3
 BYTE   N05  Gn4
 BYTE   W06
 BYTE   W06
 BYTE   N02  Cs3
 BYTE   N11  Ds4
 BYTE   W06
 BYTE   N05  Ds3
 BYTE   W06
//  #03 //114   ----------------------------------------
 BYTE   N44  Gs3
 BYTE   N44  Cs4
 BYTE   W24
 BYTE   N23  Ds4
 BYTE   W24
 BYTE   N44  As3
 BYTE   N44  Ds4
 BYTE   N23  Fn4
 BYTE   W24
 BYTE   Gn4
 BYTE   W24
//  #03 //115   ----------------------------------------
 BYTE   N12  Gs4
 BYTE   W12
 BYTE   N30
 BYTE   W06
 BYTE   N05  As4
 BYTE   W06
 BYTE   Cn5
 BYTE   W12
 BYTE   Gn4
 BYTE   W06
 BYTE   N52  Gs4
 BYTE   W06
 BYTE   N05  As4
 BYTE   W12
 BYTE   Cs4
 BYTE   W06
 BYTE   Ds4
 BYTE   W06
 BYTE   Fn4
 BYTE   W12
 BYTE   N11  Cn4
 BYTE   W12
//  #03 //116   ----------------------------------------
 BYTE   N92  Gs3
 BYTE   N92  Dn4
 BYTE   N92  Fn4
 BYTE   W96
//  #03 //117   ----------------------------------------
 BYTE   PATT
  POIN2 Label_0140FFA1
//  #03 //118   ----------------------------------------
 BYTE   PATT
  POIN2 Label_0140FFB1
//  #03 //119   ----------------------------------------
 BYTE   TIE  Gs3  v080
 BYTE   TIE  Cn4
 BYTE   W04
 BYTE   W04
 BYTE   W04
 BYTE   W04
 BYTE   W04
 BYTE   W04
 BYTE   W04
 BYTE   W04
 BYTE   W04
 BYTE   W04
 BYTE   W04
 BYTE   W05
 BYTE   W04
 BYTE   W04
 BYTE   W04
 BYTE   W04
 BYTE   W04
 BYTE   W04
 BYTE   W04
 BYTE   W04
 BYTE   W04
 BYTE   W04
 BYTE   W05
 BYTE   W02
//  #03 //120   ----------------------------------------
 BYTE   W02
 BYTE   W04
 BYTE   W04
 BYTE   W04
 BYTE   W04
 BYTE   W04
 BYTE   W04
 BYTE   W04
 BYTE   W04
 BYTE   W04
 BYTE   W04
 BYTE   W05
 BYTE   W04
 BYTE   W04
 BYTE   W04
 BYTE   W04
 BYTE   W04
 BYTE   W04
 BYTE   W04
 BYTE   W04
 BYTE   W04
 BYTE   W04
 BYTE   W04
 BYTE   W04
 BYTE   EOT
 BYTE   Gs3  v072
 BYTE   W01
//  #03 //121   ----------------------------------------
 BYTE   W96
//  #03 //122   ----------------------------------------
 BYTE   W96
//  #03 //123   ----------------------------------------
 BYTE   GoTo
  POIN2 Label_0140FEA2
//  #03 //124   ----------------------------------------
 BYTE   W23
 BYTE   FINE

//**************** Track 4 (Midi-Chn.3) ****************//

OurLight_004:
//  #04 //000   ----------------------------------------
 BYTE   KEYSH   OurLight_key+0
Label_0141028E:
 BYTE   VOICE   30
 BYTE   VOL   40*OurLight_mvl/mxv
 BYTE   PAN   c_v+0
 BYTE   VOL   40*OurLight_mvl/mxv
 BYTE   PAN   c_v+0
 BYTE   W96
//  #04 //001   ----------------------------------------
 BYTE   W96
//  #04 //002   ----------------------------------------
 BYTE   W96
//  #04 //003   ----------------------------------------
 BYTE   W96
//  #04 //004   ----------------------------------------
 BYTE   W96
//  #04 //005   ----------------------------------------
 BYTE   W96
//  #04 //006   ----------------------------------------
 BYTE   W96
//  #04 //007   ----------------------------------------
 BYTE   W96
//  #04 //008   ----------------------------------------
 BYTE   W96
//  #04 //009   ----------------------------------------
 BYTE   W96
//  #04 //010   ----------------------------------------
 BYTE   W96
//  #04 //011   ----------------------------------------
 BYTE   W96
//  #04 //012   ----------------------------------------
 BYTE   W96
//  #04 //013   ----------------------------------------
 BYTE   W96
//  #04 //014   ----------------------------------------
 BYTE   W96
//  #04 //015   ----------------------------------------
 BYTE   W96
//  #04 //016   ----------------------------------------
 BYTE   W96
//  #04 //017   ----------------------------------------
 BYTE   W96
//  #04 //018   ----------------------------------------
 BYTE   W96
//  #04 //019   ----------------------------------------
 BYTE   W96
//  #04 //020   ----------------------------------------
 BYTE   W96
//  #04 //021   ----------------------------------------
 BYTE   W96
//  #04 //022   ----------------------------------------
 BYTE   W96
//  #04 //023   ----------------------------------------
 BYTE   W96
//  #04 //024   ----------------------------------------
Label_014102B0:
 BYTE   W84
 BYTE   TIE  Fn2  v096
 BYTE   TIE  As2
 BYTE   W12
 BYTE   PEND 
//  #04 //025   ----------------------------------------
Label_014102B8:
 BYTE   W92
 BYTE   W03
 BYTE   PEND 
 BYTE   EOT
 BYTE   Fn2  v058
 BYTE   W01
//  #04 //026   ----------------------------------------
Label_014102BF:
 BYTE   N92  Gn2  v064
 BYTE   N92  Cn3
 BYTE   W96
 BYTE   PEND 
//  #04 //027   ----------------------------------------
Label_014102C6:
 BYTE   N44  Gs2  v064
 BYTE   N44  Cs3
 BYTE   W48
 BYTE   As2
 BYTE   N44  Ds3
 BYTE   W48
 BYTE   PEND 
//  #04 //028   ----------------------------------------
Label_014102D1:
 BYTE   N44  Cn3  v064
 BYTE   N44  Fn3
 BYTE   W48
 BYTE   As2
 BYTE   N44  Ds3
 BYTE   W48
 BYTE   PEND 
//  #04 //029   ----------------------------------------
Label_014102DC:
 BYTE   N92  Gs2  v064
 BYTE   N92  Dn3
 BYTE   W96
 BYTE   PEND 
//  #04 //030   ----------------------------------------
Label_014102E3:
 BYTE   N44  Fn2  v064
 BYTE   N44  As2
 BYTE   W48
 BYTE   Gn2
 BYTE   N44  Cn3
 BYTE   W48
 BYTE   PEND 
//  #04 //031   ----------------------------------------
Label_014102EE:
 BYTE   N44  Gs2  v064
 BYTE   N44  Cs3
 BYTE   W48
 BYTE   N32  As2
 BYTE   N32  Ds3
 BYTE   W36
 BYTE   TIE  Fn2  v096
 BYTE   TIE  As2
 BYTE   W12
 BYTE   PEND 
//  #04 //032   ----------------------------------------
 BYTE   PATT
  POIN2 Label_014102B8
//  #04 //033   ----------------------------------------
 BYTE   EOT
 BYTE   Fn2  v058
 BYTE   W01
//  #04 //034   ----------------------------------------
 BYTE   PATT
  POIN2 Label_014102BF
//  #04 //035   ----------------------------------------
 BYTE   PATT
  POIN2 Label_014102C6
//  #04 //036   ----------------------------------------
 BYTE   PATT
  POIN2 Label_014102D1
//  #04 //037   ----------------------------------------
 BYTE   PATT
  POIN2 Label_014102DC
//  #04 //038   ----------------------------------------
Label_0141031D:
 BYTE   N44  Gs2  v064
 BYTE   N44  Cs3
 BYTE   W48
 BYTE   Gn2
 BYTE   N44  Cn3
 BYTE   W48
 BYTE   PEND 
//  #04 //039   ----------------------------------------
Label_01410328:
 BYTE   N44  Fn2  v064
 BYTE   N44  As2
 BYTE   W48
 BYTE   N44
 BYTE   N44  Ds3
 BYTE   W48
 BYTE   PEND 
//  #04 //040   ----------------------------------------
Label_01410333:
 BYTE   TIE  Ds2  v064
 BYTE   TIE  Gs2
 BYTE   W96
 BYTE   PEND 
//  #04 //041   ----------------------------------------
 BYTE   PATT
  POIN2 Label_014102B8
//  #04 //042   ----------------------------------------
 BYTE   EOT
 BYTE   Ds2  v056
 BYTE   W01
Label_01410343:
 BYTE   N92  Fn2  v064
 BYTE   N92  As2
 BYTE   W96
 BYTE   PEND 
//  #04 //043   ----------------------------------------
 BYTE   PATT
  POIN2 Label_014102BF
//  #04 //044   ----------------------------------------
 BYTE   PATT
  POIN2 Label_014102C6
//  #04 //045   ----------------------------------------
 BYTE   PATT
  POIN2 Label_014102D1
//  #04 //046   ----------------------------------------
 BYTE   PATT
  POIN2 Label_014102DC
//  #04 //047   ----------------------------------------
 BYTE   PATT
  POIN2 Label_0141031D
//  #04 //048   ----------------------------------------
 BYTE   PATT
  POIN2 Label_01410328
//  #04 //049   ----------------------------------------
 BYTE   PATT
  POIN2 Label_01410333
//  #04 //050   ----------------------------------------
 BYTE   PATT
  POIN2 Label_014102B8
//  #04 //051   ----------------------------------------
 BYTE   EOT
 BYTE   Ds2  v056
 BYTE   W01
 BYTE   W96
//  #04 //052   ----------------------------------------
 BYTE   W96
//  #04 //053   ----------------------------------------
 BYTE   W96
//  #04 //054   ----------------------------------------
 BYTE   W96
//  #04 //055   ----------------------------------------
 BYTE   W96
//  #04 //056   ----------------------------------------
 BYTE   W96
//  #04 //057   ----------------------------------------
 BYTE   W96
//  #04 //058   ----------------------------------------
 BYTE   W96
//  #04 //059   ----------------------------------------
 BYTE   W96
//  #04 //060   ----------------------------------------
 BYTE   W96
//  #04 //061   ----------------------------------------
 BYTE   W96
//  #04 //062   ----------------------------------------
 BYTE   W96
//  #04 //063   ----------------------------------------
 BYTE   W96
//  #04 //064   ----------------------------------------
 BYTE   W96
//  #04 //065   ----------------------------------------
 BYTE   W96
//  #04 //066   ----------------------------------------
 BYTE   PATT
  POIN2 Label_014102B0
//  #04 //067   ----------------------------------------
 BYTE   PATT
  POIN2 Label_014102B8
//  #04 //068   ----------------------------------------
 BYTE   EOT
 BYTE   Fn2  v058
 BYTE   W01
//  #04 //069   ----------------------------------------
 BYTE   PATT
  POIN2 Label_014102BF
//  #04 //070   ----------------------------------------
 BYTE   PATT
  POIN2 Label_014102C6
//  #04 //071   ----------------------------------------
 BYTE   PATT
  POIN2 Label_014102D1
//  #04 //072   ----------------------------------------
 BYTE   PATT
  POIN2 Label_014102DC
//  #04 //073   ----------------------------------------
 BYTE   PATT
  POIN2 Label_014102E3
//  #04 //074   ----------------------------------------
 BYTE   PATT
  POIN2 Label_014102EE
//  #04 //075   ----------------------------------------
 BYTE   PATT
  POIN2 Label_014102B8
//  #04 //076   ----------------------------------------
 BYTE   EOT
 BYTE   Fn2  v058
 BYTE   W01
//  #04 //077   ----------------------------------------
 BYTE   PATT
  POIN2 Label_014102BF
//  #04 //078   ----------------------------------------
 BYTE   PATT
  POIN2 Label_014102C6
//  #04 //079   ----------------------------------------
 BYTE   PATT
  POIN2 Label_014102D1
//  #04 //080   ----------------------------------------
 BYTE   PATT
  POIN2 Label_014102DC
//  #04 //081   ----------------------------------------
 BYTE   PATT
  POIN2 Label_0141031D
//  #04 //082   ----------------------------------------
 BYTE   PATT
  POIN2 Label_01410328
//  #04 //083   ----------------------------------------
 BYTE   PATT
  POIN2 Label_01410333
//  #04 //084   ----------------------------------------
 BYTE   PATT
  POIN2 Label_014102B8
//  #04 //085   ----------------------------------------
 BYTE   EOT
 BYTE   Ds2  v056
 BYTE   W01
//  #04 //086   ----------------------------------------
 BYTE   PATT
  POIN2 Label_01410343
//  #04 //087   ----------------------------------------
 BYTE   PATT
  POIN2 Label_014102BF
//  #04 //088   ----------------------------------------
 BYTE   N92  Fs2  v064
 BYTE   N92  Bn2
 BYTE   W96
//  #04 //089   ----------------------------------------
 BYTE   N92
 BYTE   N92  En3
 BYTE   W96
//  #04 //090   ----------------------------------------
 BYTE   PATT
  POIN2 Label_01410343
//  #04 //091   ----------------------------------------
 BYTE   N92  En2  v064
 BYTE   N92  An2
 BYTE   W96
//  #04 //092   ----------------------------------------
 BYTE   PATT
  POIN2 Label_01410333
//  #04 //093   ----------------------------------------
 BYTE   PATT
  POIN2 Label_014102B8
//  #04 //094   ----------------------------------------
 BYTE   EOT
 BYTE   Ds2  v056
 BYTE   W01
 BYTE   W96
//  #04 //095   ----------------------------------------
 BYTE   W96
//  #04 //096   ----------------------------------------
 BYTE   W96
//  #04 //097   ----------------------------------------
 BYTE   W96
//  #04 //098   ----------------------------------------
 BYTE   W96
//  #04 //099   ----------------------------------------
 BYTE   W96
//  #04 //100   ----------------------------------------
 BYTE   W96
//  #04 //101   ----------------------------------------
 BYTE   PATT
  POIN2 Label_014102B0
//  #04 //102   ----------------------------------------
 BYTE   PATT
  POIN2 Label_014102B8
//  #04 //103   ----------------------------------------
 BYTE   EOT
 BYTE   Fn2  v058
 BYTE   W01
//  #04 //104   ----------------------------------------
 BYTE   PATT
  POIN2 Label_014102BF
//  #04 //105   ----------------------------------------
 BYTE   PATT
  POIN2 Label_014102C6
//  #04 //106   ----------------------------------------
 BYTE   PATT
  POIN2 Label_014102D1
//  #04 //107   ----------------------------------------
 BYTE   PATT
  POIN2 Label_014102DC
//  #04 //108   ----------------------------------------
 BYTE   PATT
  POIN2 Label_014102E3
//  #04 //109   ----------------------------------------
 BYTE   PATT
  POIN2 Label_014102EE
//  #04 //110   ----------------------------------------
 BYTE   PATT
  POIN2 Label_014102B8
//  #04 //111   ----------------------------------------
 BYTE   EOT
 BYTE   Fn2  v058
 BYTE   W01
//  #04 //112   ----------------------------------------
 BYTE   PATT
  POIN2 Label_014102BF
//  #04 //113   ----------------------------------------
 BYTE   PATT
  POIN2 Label_014102C6
//  #04 //114   ----------------------------------------
 BYTE   PATT
  POIN2 Label_014102D1
//  #04 //115   ----------------------------------------
 BYTE   PATT
  POIN2 Label_014102DC
//  #04 //116   ----------------------------------------
 BYTE   PATT
  POIN2 Label_014102E3
//  #04 //117   ----------------------------------------
 BYTE   PATT
  POIN2 Label_014102EE
//  #04 //118   ----------------------------------------
 BYTE   PATT
  POIN2 Label_014102B8
//  #04 //119   ----------------------------------------
 BYTE   EOT
 BYTE   Fn2  v058
 BYTE   W01
//  #04 //120   ----------------------------------------
 BYTE   PATT
  POIN2 Label_014102BF
//  #04 //121   ----------------------------------------
 BYTE   PATT
  POIN2 Label_014102C6
//  #04 //122   ----------------------------------------
 BYTE   PATT
  POIN2 Label_014102D1
//  #04 //123   ----------------------------------------
 BYTE   PATT
  POIN2 Label_014102DC
//  #04 //124   ----------------------------------------
 BYTE   PATT
  POIN2 Label_0141031D
//  #04 //125   ----------------------------------------
 BYTE   PATT
  POIN2 Label_01410328
//  #04 //126   ----------------------------------------
 BYTE   TIE  Ds2  v064
 BYTE   TIE  Gs2
 BYTE   W12
 BYTE   W13
 BYTE   W13
 BYTE   W13
 BYTE   W13
 BYTE   W12
 BYTE   W13
 BYTE   W07
//  #04 //127   ----------------------------------------
 BYTE   W06
 BYTE   W13
 BYTE   W13
 BYTE   W12
 BYTE   W13
 BYTE   W13
 BYTE   W13
 BYTE   W12
 BYTE   EOT
 BYTE   Ds2  v056
 BYTE   W01
//  #04 //128   ----------------------------------------
 BYTE   W96
//  #04 //129   ----------------------------------------
 BYTE   W96
//  #04 //130   ----------------------------------------
 BYTE   GoTo
  POIN2 Label_0141028E
//  #04 //131   ----------------------------------------
 BYTE   W23
 BYTE   FINE

//**************** Track 5 (Midi-Chn.4) ****************//

OurLight_005:
//  #05 //000   ----------------------------------------
 BYTE   KEYSH   OurLight_key+0
Label_014104CA:
 BYTE   VOICE   38
 BYTE   VOL   40*OurLight_mvl/mxv
 BYTE   PAN   c_v+0
 BYTE   W96
//  #05 //001   ----------------------------------------
 BYTE   W96
//  #05 //002   ----------------------------------------
 BYTE   W96
//  #05 //003   ----------------------------------------
 BYTE   W96
//  #05 //004   ----------------------------------------
 BYTE   W96
//  #05 //005   ----------------------------------------
 BYTE   W96
//  #05 //006   ----------------------------------------
 BYTE   W96
//  #05 //007   ----------------------------------------
 BYTE   W96
//  #05 //008   ----------------------------------------
 BYTE   W96
//  #05 //009   ----------------------------------------
 BYTE   W96
//  #05 //010   ----------------------------------------
 BYTE   W96
//  #05 //011   ----------------------------------------
 BYTE   W96
//  #05 //012   ----------------------------------------
 BYTE   W96
//  #05 //013   ----------------------------------------
 BYTE   W96
//  #05 //014   ----------------------------------------
 BYTE   W96
//  #05 //015   ----------------------------------------
 BYTE   W96
//  #05 //016   ----------------------------------------
 BYTE   W96
//  #05 //017   ----------------------------------------
 BYTE   W96
//  #05 //018   ----------------------------------------
 BYTE   W96
//  #05 //019   ----------------------------------------
 BYTE   W96
//  #05 //020   ----------------------------------------
 BYTE   W96
//  #05 //021   ----------------------------------------
 BYTE   W96
//  #05 //022   ----------------------------------------
 BYTE   W96
//  #05 //023   ----------------------------------------
 BYTE   W96
//  #05 //024   ----------------------------------------
 BYTE   W84
 BYTE   N23  As0  v127
 BYTE   W12
//  #05 //025   ----------------------------------------
Label_014104ED:
 BYTE   W12
 BYTE   N11  As0  v096
 BYTE   W12
 BYTE   N11
 BYTE   W12
 BYTE   N11
 BYTE   W12
 BYTE   N11
 BYTE   W12
 BYTE   N11
 BYTE   W12
 BYTE   N11
 BYTE   W12
 BYTE   N11
 BYTE   W12
 BYTE   PEND 
//  #05 //026   ----------------------------------------
Label_014104FF:
 BYTE   N11  Cn1  v096
 BYTE   W12
 BYTE   N11
 BYTE   W12
 BYTE   N11
 BYTE   W12
 BYTE   N11
 BYTE   W12
 BYTE   N11
 BYTE   W12
 BYTE   N11
 BYTE   W12
 BYTE   N11
 BYTE   W12
 BYTE   N11
 BYTE   W12
 BYTE   PEND 
//  #05 //027   ----------------------------------------
Label_01410512:
 BYTE   N11  Cs1  v096
 BYTE   W12
 BYTE   N11
 BYTE   W12
 BYTE   N11
 BYTE   W12
 BYTE   N11
 BYTE   W12
 BYTE   Ds1
 BYTE   W12
 BYTE   N11
 BYTE   W12
 BYTE   N11
 BYTE   W12
 BYTE   Ds0
 BYTE   W12
 BYTE   PEND 
//  #05 //028   ----------------------------------------
Label_01410525:
 BYTE   N11  Fn0  v096
 BYTE   W12
 BYTE   N11
 BYTE   W12
 BYTE   N11
 BYTE   W12
 BYTE   N11
 BYTE   W12
 BYTE   Ds0
 BYTE   W12
 BYTE   N11
 BYTE   W12
 BYTE   N11
 BYTE   W12
 BYTE   N11
 BYTE   W12
 BYTE   PEND 
//  #05 //029   ----------------------------------------
Label_01410538:
 BYTE   N11  Dn0  v096
 BYTE   W12
 BYTE   N11
 BYTE   W12
 BYTE   N11
 BYTE   W12
 BYTE   Dn1
 BYTE   W12
 BYTE   N11
 BYTE   W12
 BYTE   N11
 BYTE   W12
 BYTE   N11
 BYTE   W12
 BYTE   N11
 BYTE   W12
 BYTE   PEND 
//  #05 //030   ----------------------------------------
Label_0141054B:
 BYTE   N11  As0  v096
 BYTE   W12
 BYTE   N11
 BYTE   W12
 BYTE   N11
 BYTE   W12
 BYTE   N11
 BYTE   W12
 BYTE   Cn1
 BYTE   W12
 BYTE   N11
 BYTE   W12
 BYTE   N11
 BYTE   W12
 BYTE   N11
 BYTE   W12
 BYTE   PEND 
//  #05 //031   ----------------------------------------
Label_0141055E:
 BYTE   N11  Cs1  v096
 BYTE   W12
 BYTE   N11
 BYTE   W12
 BYTE   N11
 BYTE   W12
 BYTE   N11
 BYTE   W12
 BYTE   Ds1
 BYTE   W12
 BYTE   N11
 BYTE   W12
 BYTE   N11
 BYTE   W12
 BYTE   N23  As0  v127
 BYTE   W12
 BYTE   PEND 
//  #05 //032   ----------------------------------------
 BYTE   PATT
  POIN2 Label_014104ED
//  #05 //033   ----------------------------------------
 BYTE   PATT
  POIN2 Label_014104FF
//  #05 //034   ----------------------------------------
 BYTE   PATT
  POIN2 Label_01410512
//  #05 //035   ----------------------------------------
 BYTE   PATT
  POIN2 Label_01410525
//  #05 //036   ----------------------------------------
 BYTE   PATT
  POIN2 Label_01410538
//  #05 //037   ----------------------------------------
Label_0141058C:
 BYTE   N11  Cs1  v096
 BYTE   W12
 BYTE   N11
 BYTE   W12
 BYTE   N11
 BYTE   W12
 BYTE   N11
 BYTE   W12
 BYTE   Cn1
 BYTE   W12
 BYTE   N11
 BYTE   W12
 BYTE   N11
 BYTE   W12
 BYTE   N11
 BYTE   W12
 BYTE   PEND 
//  #05 //038   ----------------------------------------
Label_0141059F:
 BYTE   N11  As0  v096
 BYTE   W12
 BYTE   N11
 BYTE   W12
 BYTE   N11
 BYTE   W12
 BYTE   N11
 BYTE   W12
 BYTE   Ds1
 BYTE   W12
 BYTE   N11
 BYTE   W12
 BYTE   N11
 BYTE   W12
 BYTE   N11
 BYTE   W12
 BYTE   PEND 
//  #05 //039   ----------------------------------------
Label_014105B2:
 BYTE   N11  Gs0  v096
 BYTE   W12
 BYTE   N11
 BYTE   W12
 BYTE   N11
 BYTE   W12
 BYTE   N11
 BYTE   W12
 BYTE   N11
 BYTE   W12
 BYTE   N11
 BYTE   W12
 BYTE   N11
 BYTE   W12
 BYTE   N11
 BYTE   W12
 BYTE   PEND 
//  #05 //040   ----------------------------------------
 BYTE   PATT
  POIN2 Label_014105B2
//  #05 //041   ----------------------------------------
Label_014105CA:
 BYTE   N11  As0  v096
 BYTE   W12
 BYTE   N11
 BYTE   W12
 BYTE   N11
 BYTE   W12
 BYTE   N11
 BYTE   W12
 BYTE   N11
 BYTE   W12
 BYTE   N11
 BYTE   W12
 BYTE   N11
 BYTE   W12
 BYTE   N11
 BYTE   W12
 BYTE   PEND 
//  #05 //042   ----------------------------------------
 BYTE   PATT
  POIN2 Label_014104FF
//  #05 //043   ----------------------------------------
 BYTE   PATT
  POIN2 Label_01410512
//  #05 //044   ----------------------------------------
 BYTE   PATT
  POIN2 Label_01410525
//  #05 //045   ----------------------------------------
 BYTE   PATT
  POIN2 Label_01410538
//  #05 //046   ----------------------------------------
 BYTE   PATT
  POIN2 Label_0141058C
//  #05 //047   ----------------------------------------
 BYTE   N11  As0  v096
 BYTE   W12
 BYTE   N11
 BYTE   W12
 BYTE   N11
 BYTE   W12
 BYTE   N11
 BYTE   W12
 BYTE   Ds0
 BYTE   W12
 BYTE   N11
 BYTE   W12
 BYTE   N11
 BYTE   W12
 BYTE   N11
 BYTE   W12
//  #05 //048   ----------------------------------------
 BYTE   PATT
  POIN2 Label_014105B2
//  #05 //049   ----------------------------------------
 BYTE   PATT
  POIN2 Label_014105B2
//  #05 //050   ----------------------------------------
Label_01410612:
 BYTE   N44  Fn0  v064
 BYTE   W48
 BYTE   N44
 BYTE   W48
 BYTE   PEND 
//  #05 //051   ----------------------------------------
 BYTE   PATT
  POIN2 Label_01410612
//  #05 //052   ----------------------------------------
 BYTE   PATT
  POIN2 Label_01410612
//  #05 //053   ----------------------------------------
 BYTE   PATT
  POIN2 Label_01410612
//  #05 //054   ----------------------------------------
 BYTE   PATT
  POIN2 Label_01410612
//  #05 //055   ----------------------------------------
 BYTE   PATT
  POIN2 Label_01410612
//  #05 //056   ----------------------------------------
 BYTE   PATT
  POIN2 Label_01410612
//  #05 //057   ----------------------------------------
 BYTE   N44  Fn0  v064
 BYTE   W48
 BYTE   Ds0
 BYTE   W48
//  #05 //058   ----------------------------------------
Label_0141063D:
 BYTE   N44  Cs0  v064
 BYTE   W48
 BYTE   N44
 BYTE   W48
 BYTE   PEND 
//  #05 //059   ----------------------------------------
 BYTE   PATT
  POIN2 Label_0141063D
//  #05 //060   ----------------------------------------
 BYTE   PATT
  POIN2 Label_01410612
//  #05 //061   ----------------------------------------
 BYTE   PATT
  POIN2 Label_01410612
//  #05 //062   ----------------------------------------
 BYTE   PATT
  POIN2 Label_0141063D
//  #05 //063   ----------------------------------------
 BYTE   PATT
  POIN2 Label_0141063D
//  #05 //064   ----------------------------------------
 BYTE   PATT
  POIN2 Label_01410612
//  #05 //065   ----------------------------------------
 BYTE   W84
 BYTE   N23  As0  v127
 BYTE   W12
//  #05 //066   ----------------------------------------
 BYTE   PATT
  POIN2 Label_014104ED
//  #05 //067   ----------------------------------------
 BYTE   PATT
  POIN2 Label_014104FF
//  #05 //068   ----------------------------------------
 BYTE   PATT
  POIN2 Label_01410512
//  #05 //069   ----------------------------------------
 BYTE   PATT
  POIN2 Label_01410525
//  #05 //070   ----------------------------------------
 BYTE   PATT
  POIN2 Label_01410538
//  #05 //071   ----------------------------------------
 BYTE   PATT
  POIN2 Label_0141054B
//  #05 //072   ----------------------------------------
 BYTE   PATT
  POIN2 Label_0141055E
//  #05 //073   ----------------------------------------
 BYTE   PATT
  POIN2 Label_014104ED
//  #05 //074   ----------------------------------------
 BYTE   PATT
  POIN2 Label_014104FF
//  #05 //075   ----------------------------------------
 BYTE   PATT
  POIN2 Label_01410512
//  #05 //076   ----------------------------------------
 BYTE   PATT
  POIN2 Label_01410525
//  #05 //077   ----------------------------------------
 BYTE   PATT
  POIN2 Label_01410538
//  #05 //078   ----------------------------------------
 BYTE   PATT
  POIN2 Label_0141058C
//  #05 //079   ----------------------------------------
 BYTE   PATT
  POIN2 Label_0141059F
//  #05 //080   ----------------------------------------
 BYTE   PATT
  POIN2 Label_014105B2
//  #05 //081   ----------------------------------------
 BYTE   PATT
  POIN2 Label_014105B2
//  #05 //082   ----------------------------------------
 BYTE   PATT
  POIN2 Label_014105CA
//  #05 //083   ----------------------------------------
 BYTE   PATT
  POIN2 Label_014104FF
//  #05 //084   ----------------------------------------
 BYTE   N11  Bn0  v096
 BYTE   W12
 BYTE   N11
 BYTE   W12
 BYTE   N11
 BYTE   W12
 BYTE   N11
 BYTE   W12
 BYTE   N11
 BYTE   W12
 BYTE   N11
 BYTE   W12
 BYTE   N11
 BYTE   W12
 BYTE   N11
 BYTE   W12
//  #05 //085   ----------------------------------------
 BYTE   En1
 BYTE   W12
 BYTE   N11
 BYTE   W12
 BYTE   N11
 BYTE   W12
 BYTE   N11
 BYTE   W12
 BYTE   N11
 BYTE   W12
 BYTE   N11
 BYTE   W12
 BYTE   N11
 BYTE   W12
 BYTE   N11
 BYTE   W12
//  #05 //086   ----------------------------------------
 BYTE   PATT
  POIN2 Label_014105CA
//  #05 //087   ----------------------------------------
 BYTE   N11  An0  v096
 BYTE   W12
 BYTE   N11
 BYTE   W12
 BYTE   N11
 BYTE   W12
 BYTE   N11
 BYTE   W12
 BYTE   N11
 BYTE   W12
 BYTE   N11
 BYTE   W12
 BYTE   N11
 BYTE   W12
 BYTE   N11
 BYTE   W12
//  #05 //088   ----------------------------------------
 BYTE   TIE  Gs0
 BYTE   W96
//  #05 //089   ----------------------------------------
 BYTE   W92
 BYTE   W03
 BYTE   EOT
 BYTE   W01
//  #05 //090   ----------------------------------------
 BYTE   W96
//  #05 //091   ----------------------------------------
 BYTE   W96
//  #05 //092   ----------------------------------------
 BYTE   W96
//  #05 //093   ----------------------------------------
 BYTE   W96
//  #05 //094   ----------------------------------------
 BYTE   W96
//  #05 //095   ----------------------------------------
 BYTE   W96
//  #05 //096   ----------------------------------------
 BYTE   W96
//  #05 //097   ----------------------------------------
 BYTE   W84
 BYTE   N23  As0  v127
 BYTE   W12
//  #05 //098   ----------------------------------------
 BYTE   PATT
  POIN2 Label_014104ED
//  #05 //099   ----------------------------------------
 BYTE   PATT
  POIN2 Label_014104FF
//  #05 //100   ----------------------------------------
 BYTE   PATT
  POIN2 Label_01410512
//  #05 //101   ----------------------------------------
 BYTE   PATT
  POIN2 Label_01410525
//  #05 //102   ----------------------------------------
 BYTE   PATT
  POIN2 Label_01410538
//  #05 //103   ----------------------------------------
 BYTE   PATT
  POIN2 Label_0141054B
//  #05 //104   ----------------------------------------
 BYTE   PATT
  POIN2 Label_0141055E
//  #05 //105   ----------------------------------------
 BYTE   PATT
  POIN2 Label_014104ED
//  #05 //106   ----------------------------------------
 BYTE   PATT
  POIN2 Label_014104FF
//  #05 //107   ----------------------------------------
 BYTE   PATT
  POIN2 Label_01410512
//  #05 //108   ----------------------------------------
 BYTE   PATT
  POIN2 Label_01410525
//  #05 //109   ----------------------------------------
 BYTE   PATT
  POIN2 Label_01410538
//  #05 //110   ----------------------------------------
 BYTE   PATT
  POIN2 Label_0141054B
//  #05 //111   ----------------------------------------
 BYTE   PATT
  POIN2 Label_0141055E
//  #05 //112   ----------------------------------------
 BYTE   PATT
  POIN2 Label_014104ED
//  #05 //113   ----------------------------------------
 BYTE   PATT
  POIN2 Label_014104FF
//  #05 //114   ----------------------------------------
 BYTE   PATT
  POIN2 Label_01410512
//  #05 //115   ----------------------------------------
 BYTE   PATT
  POIN2 Label_01410525
//  #05 //116   ----------------------------------------
 BYTE   PATT
  POIN2 Label_01410538
//  #05 //117   ----------------------------------------
 BYTE   PATT
  POIN2 Label_0141058C
//  #05 //118   ----------------------------------------
 BYTE   PATT
  POIN2 Label_0141059F
//  #05 //119   ----------------------------------------
 BYTE   PATT
  POIN2 Label_014105B2
//  #05 //120   ----------------------------------------
 BYTE   PATT
  POIN2 Label_014105B2
//  #05 //121   ----------------------------------------
 BYTE   TIE  Gs0  v096
 BYTE   W96
//  #05 //122   ----------------------------------------
 BYTE   W92
 BYTE   W03
 BYTE   EOT
 BYTE   W01
//  #05 //123   ----------------------------------------
 BYTE   GoTo
  POIN2 Label_014104CA
//  #05 //124   ----------------------------------------
 BYTE   W23
 BYTE   FINE

//**************** Track 6 (Midi-Chn.5) ****************//

OurLight_006:
//  #06 //000   ----------------------------------------
 BYTE   KEYSH   OurLight_key+0
Label_014107A2:
 BYTE   VOICE   91
 BYTE   VOL   40*OurLight_mvl/mxv
 BYTE   PAN   c_v+0
 BYTE   TIE  Fn3  v064
 BYTE   W96
//  #06 //001   ----------------------------------------
Label_014107AC:
 BYTE   W92
 BYTE   W03
 BYTE   PEND 
 BYTE   EOT
 BYTE   Fn3
 BYTE   W01
//  #06 //002   ----------------------------------------
 BYTE   N68  Cs3  v064
 BYTE   W72
 BYTE   N23  Ds3
 BYTE   W24
//  #06 //003   ----------------------------------------
Label_014107B9:
 BYTE   N92  Fn3  v064
 BYTE   W96
 BYTE   PEND 
//  #06 //004   ----------------------------------------
 BYTE   TIE
 BYTE   TIE  Cn4
 BYTE   W96
//  #06 //005   ----------------------------------------
Label_014107C2:
 BYTE   W44
 BYTE   W03
 BYTE   PEND 
 BYTE   EOT
 BYTE   Fn3  v072
 BYTE   W01
 BYTE   N44  Ds3  v064
 BYTE   N44  As3
 BYTE   W48
//  #06 //006   ----------------------------------------
 BYTE   N68  Cs3
 BYTE   N68  Gs3
 BYTE   W72
 BYTE   N23  Ds3
 BYTE   N23  Gn3
 BYTE   W24
//  #06 //007   ----------------------------------------
 BYTE   TIE  Fn3
 BYTE   W96
//  #06 //008   ----------------------------------------
 BYTE   W72
 BYTE   Cn3
 BYTE   W24
//  #06 //009   ----------------------------------------
 BYTE   PATT
  POIN2 Label_014107AC
//  #06 //010   ----------------------------------------
 BYTE   EOT
 BYTE   Cn3
 BYTE   W01
Label_014107E7:
 BYTE   TIE  Ds3  v064
 BYTE   W96
 BYTE   PEND 
//  #06 //011   ----------------------------------------
 BYTE   PATT
  POIN2 Label_014107AC
//  #06 //012   ----------------------------------------
 BYTE   EOT
 BYTE   Ds3
 BYTE   W01
Label_014107F4:
 BYTE   N44  Cn3  v064
 BYTE   W48
 BYTE   TIE  Gn3
 BYTE   W48
 BYTE   PEND 
//  #06 //013   ----------------------------------------
 BYTE   W96
//  #06 //014   ----------------------------------------
 BYTE   PATT
  POIN2 Label_014107C2
//  #06 //015   ----------------------------------------
 BYTE   EOT
 BYTE   Gn3
 BYTE   W01
 BYTE   N44  Ds3  v064
 BYTE   W48
Label_01410809:
 BYTE   TIE  Cn4  v064
 BYTE   W92
//  #06 //016   ----------------------------------------
 BYTE   W03
 BYTE   PEND 
 BYTE   EOT
 BYTE   Fn3
 BYTE   W01
Label_01410812:
 BYTE   N92  Fn3  v064
 BYTE   W44
 BYTE   W03
 BYTE   PEND 
 BYTE   EOT
 BYTE   Cn4
 BYTE   W01
 BYTE   N44  Ds3
 BYTE   W48
//  #06 //017   ----------------------------------------
Label_0141081E:
 BYTE   TIE  Cn3  v064
 BYTE   TIE  Gs3
 BYTE   W96
 BYTE   PEND 
//  #06 //018   ----------------------------------------
 BYTE   PATT
  POIN2 Label_014107C2
//  #06 //019   ----------------------------------------
 BYTE   EOT
 BYTE   Gs3
 BYTE   W01
 BYTE   N44  Gn3  v064
 BYTE   W48
Label_01410831:
 BYTE   TIE  Cn4  v064
 BYTE   W96
 BYTE   PEND 
//  #06 //020   ----------------------------------------
 BYTE   PATT
  POIN2 Label_014107AC
//  #06 //021   ----------------------------------------
 BYTE   EOT
 BYTE   Cn3  v072
 BYTE   W01
Label_0141083F:
 BYTE   TIE  Cs3  v064
 BYTE   N92  Gs3
 BYTE   W96
 BYTE   PEND 
//  #06 //022   ----------------------------------------
Label_01410846:
 BYTE   N44  Gn3  v064
 BYTE   W48
 BYTE   Ds3
 BYTE   W48
 BYTE   PEND 
//  #06 //023   ----------------------------------------
 BYTE   PATT
  POIN2 Label_01410831
//  #06 //024   ----------------------------------------
 BYTE   W23
 BYTE   EOT
 BYTE   Cs3  v072
 BYTE   W60
 BYTE   W01
 BYTE   TIE  Fn3  v064
 BYTE   W12
//  #06 //025   ----------------------------------------
 BYTE   PATT
  POIN2 Label_014107AC
//  #06 //026   ----------------------------------------
 BYTE   EOT
 BYTE   Fn3
 BYTE   W01
Label_01410864:
 BYTE   N92  Ds3  v064
 BYTE   W96
 BYTE   PEND 
//  #06 //027   ----------------------------------------
Label_01410869:
 BYTE   N44  Cs3  v064
 BYTE   W48
 BYTE   Ds3
 BYTE   W48
 BYTE   PEND 
//  #06 //028   ----------------------------------------
Label_01410870:
 BYTE   N44  Fn3  v064
 BYTE   W48
 BYTE   Ds3
 BYTE   W48
 BYTE   PEND 
//  #06 //029   ----------------------------------------
Label_01410877:
 BYTE   N92  Dn3  v064
 BYTE   W96
 BYTE   PEND 
//  #06 //030   ----------------------------------------
Label_0141087C:
 BYTE   N44  As2  v064
 BYTE   W48
 BYTE   Cn3
 BYTE   W48
 BYTE   PEND 
//  #06 //031   ----------------------------------------
 BYTE   PATT
  POIN2 Label_01410869
//  #06 //032   ----------------------------------------
 BYTE   PATT
  POIN2 Label_014107B9
//  #06 //033   ----------------------------------------
 BYTE   PATT
  POIN2 Label_01410864
//  #06 //034   ----------------------------------------
 BYTE   PATT
  POIN2 Label_01410869
//  #06 //035   ----------------------------------------
 BYTE   PATT
  POIN2 Label_01410870
//  #06 //036   ----------------------------------------
 BYTE   PATT
  POIN2 Label_01410877
//  #06 //037   ----------------------------------------
Label_014108A1:
 BYTE   N44  Cs3  v064
 BYTE   W48
 BYTE   Cn3
 BYTE   W48
 BYTE   PEND 
//  #06 //038   ----------------------------------------
Label_014108A8:
 BYTE   N44  As2  v064
 BYTE   W48
 BYTE   Ds3
 BYTE   W48
 BYTE   PEND 
//  #06 //039   ----------------------------------------
Label_014108AF:
 BYTE   TIE  Gs2  v064
 BYTE   W96
 BYTE   PEND 
//  #06 //040   ----------------------------------------
 BYTE   PATT
  POIN2 Label_014107AC
//  #06 //041   ----------------------------------------
 BYTE   EOT
 BYTE   Gs2
 BYTE   W01
//  #06 //042   ----------------------------------------
 BYTE   PATT
  POIN2 Label_014107B9
//  #06 //043   ----------------------------------------
 BYTE   PATT
  POIN2 Label_01410864
//  #06 //044   ----------------------------------------
 BYTE   PATT
  POIN2 Label_01410869
//  #06 //045   ----------------------------------------
 BYTE   PATT
  POIN2 Label_01410870
//  #06 //046   ----------------------------------------
 BYTE   PATT
  POIN2 Label_01410877
//  #06 //047   ----------------------------------------
 BYTE   PATT
  POIN2 Label_014108A1
//  #06 //048   ----------------------------------------
 BYTE   PATT
  POIN2 Label_014108A8
//  #06 //049   ----------------------------------------
 BYTE   PATT
  POIN2 Label_014108AF
//  #06 //050   ----------------------------------------
 BYTE   W72
 BYTE   TIE  Cn3  v064
 BYTE   W23
 BYTE   EOT
 BYTE   Gs2
 BYTE   W01
//  #06 //051   ----------------------------------------
 BYTE   TIE  Fn3
 BYTE   W92
 BYTE   W03
 BYTE   EOT
 BYTE   Cn3
 BYTE   W01
//  #06 //052   ----------------------------------------
 BYTE   PATT
  POIN2 Label_014107E7
//  #06 //053   ----------------------------------------
 BYTE   PATT
  POIN2 Label_014107AC
//  #06 //054   ----------------------------------------
 BYTE   EOT
 BYTE   Ds3
 BYTE   W01
//  #06 //055   ----------------------------------------
 BYTE   PATT
  POIN2 Label_014107F4
//  #06 //056   ----------------------------------------
 BYTE   W96
//  #06 //057   ----------------------------------------
 BYTE   PATT
  POIN2 Label_014107C2
//  #06 //058   ----------------------------------------
 BYTE   EOT
 BYTE   Gn3
 BYTE   W01
 BYTE   N44  Ds3  v064
 BYTE   W48
//  #06 //059   ----------------------------------------
 BYTE   PATT
  POIN2 Label_01410809
//  #06 //060   ----------------------------------------
 BYTE   EOT
 BYTE   Fn3
 BYTE   W01
//  #06 //061   ----------------------------------------
 BYTE   PATT
  POIN2 Label_01410812
//  #06 //062   ----------------------------------------
 BYTE   EOT
 BYTE   Cn4
 BYTE   W01
 BYTE   N44  Ds3  v064
 BYTE   W48
//  #06 //063   ----------------------------------------
 BYTE   PATT
  POIN2 Label_0141081E
//  #06 //064   ----------------------------------------
 BYTE   PATT
  POIN2 Label_014107C2
//  #06 //065   ----------------------------------------
 BYTE   EOT
 BYTE   Gs3
 BYTE   W01
 BYTE   N44  Gn3  v064
 BYTE   W48
//  #06 //066   ----------------------------------------
 BYTE   PATT
  POIN2 Label_01410831
//  #06 //067   ----------------------------------------
 BYTE   PATT
  POIN2 Label_014107AC
//  #06 //068   ----------------------------------------
 BYTE   EOT
 BYTE   Cn3  v072
 BYTE   W01
//  #06 //069   ----------------------------------------
 BYTE   PATT
  POIN2 Label_0141083F
//  #06 //070   ----------------------------------------
 BYTE   PATT
  POIN2 Label_01410846
//  #06 //071   ----------------------------------------
 BYTE   PATT
  POIN2 Label_01410831
//  #06 //072   ----------------------------------------
 BYTE   W23
 BYTE   EOT
 BYTE   Cs3  v072
 BYTE   W60
 BYTE   W01
 BYTE   TIE  Fn3  v064
 BYTE   W12
//  #06 //073   ----------------------------------------
 BYTE   PATT
  POIN2 Label_014107AC
//  #06 //074   ----------------------------------------
 BYTE   EOT
 BYTE   Fn3
 BYTE   W01
//  #06 //075   ----------------------------------------
 BYTE   PATT
  POIN2 Label_01410864
//  #06 //076   ----------------------------------------
 BYTE   PATT
  POIN2 Label_01410869
//  #06 //077   ----------------------------------------
 BYTE   PATT
  POIN2 Label_01410870
//  #06 //078   ----------------------------------------
 BYTE   PATT
  POIN2 Label_01410877
//  #06 //079   ----------------------------------------
 BYTE   PATT
  POIN2 Label_0141087C
//  #06 //080   ----------------------------------------
 BYTE   PATT
  POIN2 Label_01410869
//  #06 //081   ----------------------------------------
 BYTE   PATT
  POIN2 Label_014107B9
//  #06 //082   ----------------------------------------
 BYTE   PATT
  POIN2 Label_01410864
//  #06 //083   ----------------------------------------
 BYTE   PATT
  POIN2 Label_01410869
//  #06 //084   ----------------------------------------
 BYTE   PATT
  POIN2 Label_01410870
//  #06 //085   ----------------------------------------
 BYTE   PATT
  POIN2 Label_01410877
//  #06 //086   ----------------------------------------
 BYTE   PATT
  POIN2 Label_014108A1
//  #06 //087   ----------------------------------------
 BYTE   PATT
  POIN2 Label_014108A8
//  #06 //088   ----------------------------------------
 BYTE   PATT
  POIN2 Label_014108AF
//  #06 //089   ----------------------------------------
 BYTE   PATT
  POIN2 Label_014107AC
//  #06 //090   ----------------------------------------
 BYTE   EOT
 BYTE   Gs2
 BYTE   W01
Label_014109B4:
 BYTE   N92  As2  v064
 BYTE   W96
 BYTE   PEND 
//  #06 //091   ----------------------------------------
 BYTE   Cn3
 BYTE   W96
//  #06 //092   ----------------------------------------
 BYTE   Bn2
 BYTE   W96
//  #06 //093   ----------------------------------------
 BYTE   En3
 BYTE   W96
//  #06 //094   ----------------------------------------
 BYTE   PATT
  POIN2 Label_014109B4
//  #06 //095   ----------------------------------------
 BYTE   N92  An2  v064
 BYTE   W96
//  #06 //096   ----------------------------------------
 BYTE   W96
//  #06 //097   ----------------------------------------
 BYTE   W96
//  #06 //098   ----------------------------------------
 BYTE   W96
//  #06 //099   ----------------------------------------
 BYTE   W96
//  #06 //100   ----------------------------------------
 BYTE   W96
//  #06 //101   ----------------------------------------
 BYTE   W96
//  #06 //102   ----------------------------------------
 BYTE   W24
 BYTE   N23  Cn4
 BYTE   W24
 BYTE   N44  As3
 BYTE   W48
//  #06 //103   ----------------------------------------
 BYTE   Gs3
 BYTE   W48
 BYTE   Gn3
 BYTE   W48
//  #06 //104   ----------------------------------------
 BYTE   N92  Gs3
 BYTE   W96
//  #06 //105   ----------------------------------------
 BYTE   W84
 BYTE   TIE  Fn3
 BYTE   W12
//  #06 //106   ----------------------------------------
 BYTE   PATT
  POIN2 Label_014107AC
//  #06 //107   ----------------------------------------
 BYTE   EOT
 BYTE   Fn3
 BYTE   W01
//  #06 //108   ----------------------------------------
 BYTE   PATT
  POIN2 Label_01410864
//  #06 //109   ----------------------------------------
 BYTE   PATT
  POIN2 Label_01410869
//  #06 //110   ----------------------------------------
 BYTE   PATT
  POIN2 Label_01410870
//  #06 //111   ----------------------------------------
 BYTE   PATT
  POIN2 Label_01410877
//  #06 //112   ----------------------------------------
 BYTE   PATT
  POIN2 Label_0141087C
//  #06 //113   ----------------------------------------
 BYTE   PATT
  POIN2 Label_01410869
//  #06 //114   ----------------------------------------
 BYTE   PATT
  POIN2 Label_014107B9
//  #06 //115   ----------------------------------------
 BYTE   PATT
  POIN2 Label_01410864
//  #06 //116   ----------------------------------------
 BYTE   PATT
  POIN2 Label_01410869
//  #06 //117   ----------------------------------------
 BYTE   PATT
  POIN2 Label_01410870
//  #06 //118   ----------------------------------------
 BYTE   PATT
  POIN2 Label_01410877
//  #06 //119   ----------------------------------------
 BYTE   PATT
  POIN2 Label_0141087C
//  #06 //120   ----------------------------------------
 BYTE   PATT
  POIN2 Label_01410869
//  #06 //121   ----------------------------------------
 BYTE   PATT
  POIN2 Label_014107B9
//  #06 //122   ----------------------------------------
 BYTE   PATT
  POIN2 Label_01410864
//  #06 //123   ----------------------------------------
 BYTE   PATT
  POIN2 Label_01410869
//  #06 //124   ----------------------------------------
 BYTE   PATT
  POIN2 Label_01410870
//  #06 //125   ----------------------------------------
 BYTE   PATT
  POIN2 Label_01410877
//  #06 //126   ----------------------------------------
 BYTE   PATT
  POIN2 Label_014108A1
//  #06 //127   ----------------------------------------
 BYTE   PATT
  POIN2 Label_014108A8
//  #06 //128   ----------------------------------------
 BYTE   PATT
  POIN2 Label_014108AF
//  #06 //129   ----------------------------------------
 BYTE   PATT
  POIN2 Label_014107AC
//  #06 //130   ----------------------------------------
 BYTE   EOT
 BYTE   Gs2
 BYTE   W01
 BYTE   W96
//  #06 //131   ----------------------------------------
 BYTE   W96
//  #06 //132   ----------------------------------------
 BYTE   GoTo
  POIN2 Label_014107A2
//  #06 //133   ----------------------------------------
 BYTE   W23
 BYTE   FINE

//**************** Track 7 (Midi-Chn.6) ****************//

OurLight_007:
//  #07 //000   ----------------------------------------
 BYTE   KEYSH   OurLight_key+0
Label_01410A76:
 BYTE   VOICE   124
 BYTE   VOL   40*OurLight_mvl/mxv
 BYTE   PAN   c_v+0
 BYTE   W96
//  #07 //001   ----------------------------------------
 BYTE   W96
//  #07 //002   ----------------------------------------
 BYTE   W96
//  #07 //003   ----------------------------------------
 BYTE   W96
//  #07 //004   ----------------------------------------
 BYTE   W96
//  #07 //005   ----------------------------------------
 BYTE   W96
//  #07 //006   ----------------------------------------
 BYTE   W96
//  #07 //007   ----------------------------------------
 BYTE   W96
//  #07 //008   ----------------------------------------
 BYTE   W96
//  #07 //009   ----------------------------------------
 BYTE   W96
//  #07 //010   ----------------------------------------
 BYTE   W96
//  #07 //011   ----------------------------------------
 BYTE   W96
//  #07 //012   ----------------------------------------
 BYTE   W96
//  #07 //013   ----------------------------------------
 BYTE   W96
//  #07 //014   ----------------------------------------
 BYTE   W96
//  #07 //015   ----------------------------------------
 BYTE   W96
//  #07 //016   ----------------------------------------
 BYTE   W96
//  #07 //017   ----------------------------------------
 BYTE   W96
//  #07 //018   ----------------------------------------
 BYTE   W96
//  #07 //019   ----------------------------------------
 BYTE   W96
//  #07 //020   ----------------------------------------
 BYTE   W96
//  #07 //021   ----------------------------------------
 BYTE   W96
//  #07 //022   ----------------------------------------
 BYTE   W96
//  #07 //023   ----------------------------------------
 BYTE   W96
//  #07 //024   ----------------------------------------
 BYTE   W84
 BYTE   N11  Cn1  v127
 BYTE   N11  Cs2
 BYTE   W12
//  #07 //025   ----------------------------------------
Label_01410A9B:
 BYTE   N23  As1  v096
 BYTE   W12
 BYTE   N11  Cn1
 BYTE   W12
 BYTE   Dn1
 BYTE   N11  As1
 BYTE   W12
 BYTE   N11
 BYTE   W12
 BYTE   Cn1
 BYTE   N23  As1
 BYTE   W12
 BYTE   N11  Cn1
 BYTE   W12
 BYTE   Dn1
 BYTE   N11  As1
 BYTE   W12
 BYTE   N11
 BYTE   W12
 BYTE   PEND 
//  #07 //026   ----------------------------------------
Label_01410AB6:
 BYTE   N23  Cn1  v096
 BYTE   N23  Cs2
 BYTE   W24
 BYTE   N11  Dn1
 BYTE   N11  As1
 BYTE   W12
 BYTE   N11
 BYTE   W12
 BYTE   Cn1
 BYTE   N23  As1
 BYTE   W12
 BYTE   N11  Cn1
 BYTE   W12
 BYTE   Dn1
 BYTE   N11  As1
 BYTE   W12
 BYTE   N11
 BYTE   W12
 BYTE   PEND 
//  #07 //027   ----------------------------------------
Label_01410AD1:
 BYTE   N23  Cn1  v096
 BYTE   N23  As1
 BYTE   W24
 BYTE   N11  Dn1
 BYTE   N11  As1
 BYTE   W12
 BYTE   N11
 BYTE   W12
 BYTE   Cn1
 BYTE   N23  As1
 BYTE   W12
 BYTE   N11  Cn1
 BYTE   W12
 BYTE   Dn1
 BYTE   N11  As1
 BYTE   W12
 BYTE   N11
 BYTE   W12
 BYTE   PEND 
//  #07 //028   ----------------------------------------
 BYTE   PATT
  POIN2 Label_01410AD1
//  #07 //029   ----------------------------------------
 BYTE   PATT
  POIN2 Label_01410AB6
//  #07 //030   ----------------------------------------
 BYTE   PATT
  POIN2 Label_01410AD1
//  #07 //031   ----------------------------------------
Label_01410AFB:
 BYTE   N23  Cn1  v096
 BYTE   N23  As1
 BYTE   W24
 BYTE   N11  Dn1
 BYTE   N11  As1
 BYTE   W12
 BYTE   N11
 BYTE   W12
 BYTE   Cn1
 BYTE   N23  As1
 BYTE   W12
 BYTE   N11  Cn1
 BYTE   W12
 BYTE   Dn1
 BYTE   N11  As1
 BYTE   W12
 BYTE   Cs2  v127
 BYTE   W12
 BYTE   PEND 
//  #07 //032   ----------------------------------------
Label_01410B17:
 BYTE   N11  Cn1  v096
 BYTE   N23  As1
 BYTE   W12
 BYTE   N05  Cn1
 BYTE   W06
 BYTE   N05
 BYTE   W06
 BYTE   N11  Dn1
 BYTE   N11  As1
 BYTE   W12
 BYTE   N11
 BYTE   W12
 BYTE   Cn1
 BYTE   N23  As1
 BYTE   W12
 BYTE   N11  Cn1
 BYTE   W12
 BYTE   Dn1
 BYTE   N11  As1
 BYTE   W12
 BYTE   N11
 BYTE   W12
 BYTE   PEND 
//  #07 //033   ----------------------------------------
 BYTE   PATT
  POIN2 Label_01410AB6
//  #07 //034   ----------------------------------------
 BYTE   PATT
  POIN2 Label_01410AD1
//  #07 //035   ----------------------------------------
 BYTE   PATT
  POIN2 Label_01410AD1
//  #07 //036   ----------------------------------------
 BYTE   PATT
  POIN2 Label_01410AB6
//  #07 //037   ----------------------------------------
Label_01410B4B:
 BYTE   N23  Cn1  v096
 BYTE   N23  Cs2
 BYTE   W24
 BYTE   Dn1
 BYTE   W24
 BYTE   N11  Cn1
 BYTE   W12
 BYTE   N11
 BYTE   W12
 BYTE   N23  Dn1
 BYTE   W24
 BYTE   PEND 
//  #07 //038   ----------------------------------------
Label_01410B5C:
 BYTE   N11  Cn1  v096
 BYTE   W12
 BYTE   N11
 BYTE   W12
 BYTE   N23  Dn1
 BYTE   W24
 BYTE   N11  Cn1
 BYTE   W12
 BYTE   N11
 BYTE   W12
 BYTE   N23  Dn1
 BYTE   W24
 BYTE   PEND 
//  #07 //039   ----------------------------------------
 BYTE   PATT
  POIN2 Label_01410B4B
//  #07 //040   ----------------------------------------
 BYTE   N23  Cn1  v096
 BYTE   W24
 BYTE   Dn1
 BYTE   W24
 BYTE   N11  Cn1
 BYTE   W12
 BYTE   N11
 BYTE   W12
 BYTE   N05  Dn2
 BYTE   W06
 BYTE   Cn2
 BYTE   W06
 BYTE   N11  An1
 BYTE   W12
//  #07 //041   ----------------------------------------
 BYTE   PATT
  POIN2 Label_01410AB6
//  #07 //042   ----------------------------------------
 BYTE   PATT
  POIN2 Label_01410AB6
//  #07 //043   ----------------------------------------
Label_01410B90:
 BYTE   N23  Cn1  v096
 BYTE   N11  As1
 BYTE   W12
 BYTE   N11
 BYTE   W12
 BYTE   N23  Dn1
 BYTE   N23  As1
 BYTE   W24
 BYTE   N11  Cn1
 BYTE   N23  As1
 BYTE   W12
 BYTE   N11  Cn1
 BYTE   W12
 BYTE   Dn1
 BYTE   N11  As1
 BYTE   W12
 BYTE   N11
 BYTE   W12
 BYTE   PEND 
//  #07 //044   ----------------------------------------
 BYTE   PATT
  POIN2 Label_01410AD1
//  #07 //045   ----------------------------------------
 BYTE   PATT
  POIN2 Label_01410AB6
//  #07 //046   ----------------------------------------
 BYTE   PATT
  POIN2 Label_01410AD1
//  #07 //047   ----------------------------------------
 BYTE   PATT
  POIN2 Label_01410AD1
//  #07 //048   ----------------------------------------
 BYTE   N23  Cn1  v096
 BYTE   N11  Cs2
 BYTE   W12
 BYTE   Dn1
 BYTE   W12
 BYTE   N05
 BYTE   W06
 BYTE   N05
 BYTE   W06
 BYTE   N01
 BYTE   W01
 BYTE   N01
 BYTE   W02
 BYTE   N01
 BYTE   W01
 BYTE   N01
 BYTE   W02
 BYTE   N01
 BYTE   W01
 BYTE   N01
 BYTE   W02
 BYTE   N01
 BYTE   W01
 BYTE   N01
 BYTE   W02
 BYTE   N11  Cn1
 BYTE   N11  Dn1
 BYTE   W12
 BYTE   Cn1
 BYTE   N01  Dn1
 BYTE   W01
 BYTE   N01
 BYTE   W02
 BYTE   N01
 BYTE   W01
 BYTE   N01
 BYTE   W02
 BYTE   N01
 BYTE   W01
 BYTE   N01
 BYTE   W02
 BYTE   N01
 BYTE   W01
 BYTE   N01
 BYTE   W02
 BYTE   N05
 BYTE   W06
 BYTE   N05
 BYTE   W06
 BYTE   N01
 BYTE   W01
 BYTE   N01
 BYTE   W02
 BYTE   N01
 BYTE   W01
 BYTE   N01
 BYTE   W02
 BYTE   N01
 BYTE   W01
 BYTE   N01
 BYTE   W02
 BYTE   N01
 BYTE   W01
 BYTE   N01
 BYTE   W02
//  #07 //049   ----------------------------------------
 BYTE   N23  Cn1
 BYTE   N11  Dn1
 BYTE   W03
 BYTE   W03
 BYTE   W03
 BYTE   W03
 BYTE   Dn1  v092
 BYTE   W03
 BYTE   W03
 BYTE   W03
 BYTE   W03
 BYTE   N05  Dn1  v088
 BYTE   W03
 BYTE   W03
 BYTE   N05
 BYTE   W03
 BYTE   W03
 BYTE   N01  Dn1  v084
 BYTE   W01
 BYTE   N01
 BYTE   W02
 BYTE   N01
 BYTE   W01
 BYTE   N01
 BYTE   W02
 BYTE   N01
 BYTE   W01
 BYTE   N01
 BYTE   W02
 BYTE   N01
 BYTE   W01
 BYTE   N01
 BYTE   W02
 BYTE   N11  Cn1  v080
 BYTE   N11  Dn1
 BYTE   W03
 BYTE   W03
 BYTE   W03
 BYTE   W03
 BYTE   Cn1  v076
 BYTE   N01  Dn1
 BYTE   W01
 BYTE   N01
 BYTE   W02
 BYTE   N01
 BYTE   W01
 BYTE   N01
 BYTE   W02
 BYTE   N01
 BYTE   W01
 BYTE   N01
 BYTE   W02
 BYTE   N01
 BYTE   W01
 BYTE   N01
 BYTE   W02
 BYTE   N05  Dn1  v072
 BYTE   W03
 BYTE   W03
 BYTE   N05
 BYTE   W03
 BYTE   W03
 BYTE   N11  Dn1  v068
 BYTE   W03
 BYTE   W03
 BYTE   W03
 BYTE   W03
//  #07 //050   ----------------------------------------
Label_01410C5A:
 BYTE   N23  Cn1  v096
 BYTE   N11  Fs1
 BYTE   W12
 BYTE   Fs1  v064
 BYTE   W12
 BYTE   Dn1
 BYTE   N11  Fs1
 BYTE   W12
 BYTE   N11
 BYTE   W12
 BYTE   Cn1  v096
 BYTE   N11  Fs1
 BYTE   W12
 BYTE   Cn1  v064
 BYTE   N11  Fs1
 BYTE   W12
 BYTE   Dn1
 BYTE   N11  Fs1
 BYTE   W12
 BYTE   N11
 BYTE   W12
 BYTE   PEND 
//  #07 //051   ----------------------------------------
 BYTE   N23  Cn1  v096
 BYTE   N11  Fs1
 BYTE   W12
 BYTE   Fs1  v064
 BYTE   W12
 BYTE   Dn1
 BYTE   N11  Fs1
 BYTE   W12
 BYTE   N11
 BYTE   W12
 BYTE   Cn1  v096
 BYTE   N11  Fs1
 BYTE   W12
 BYTE   Cn1  v064
 BYTE   N11  Fs1
 BYTE   W12
 BYTE   Dn1
 BYTE   N11  Fs1
 BYTE   W12
 BYTE   N11
 BYTE   W12
//  #07 //052   ----------------------------------------
Label_01410C99:
 BYTE   N23  Cn1  v096
 BYTE   N11  Fs1
 BYTE   W12
 BYTE   Fs1  v064
 BYTE   W12
 BYTE   Dn1
 BYTE   N11  Fs1
 BYTE   W12
 BYTE   N11
 BYTE   W12
 BYTE   Cn1  v096
 BYTE   N11  Fs1
 BYTE   W12
 BYTE   Cn1  v064
 BYTE   N11  Fs1
 BYTE   W12
 BYTE   Dn1
 BYTE   N11  Fs1
 BYTE   W12
 BYTE   N11
 BYTE   W12
 BYTE   PEND 
//  #07 //053   ----------------------------------------
 BYTE   PATT
  POIN2 Label_01410C5A
//  #07 //054   ----------------------------------------
 BYTE   PATT
  POIN2 Label_01410C5A
//  #07 //055   ----------------------------------------
 BYTE   N23  Cn1  v096
 BYTE   N11  Fs1
 BYTE   W12
 BYTE   Fs1  v064
 BYTE   W12
 BYTE   Dn1
 BYTE   N11  Fs1
 BYTE   W12
 BYTE   N11
 BYTE   W12
 BYTE   Cn1  v096
 BYTE   N11  Fs1
 BYTE   W12
 BYTE   Cn1  v064
 BYTE   N11  Fs1
 BYTE   W12
 BYTE   Dn1
 BYTE   N11  Fs1
 BYTE   W12
 BYTE   N11
 BYTE   W12
//  #07 //056   ----------------------------------------
Label_01410CE2:
 BYTE   N23  Cn1  v096
 BYTE   N11  Fs1
 BYTE   W12
 BYTE   Fs1  v064
 BYTE   W12
 BYTE   Dn1
 BYTE   N11  Fs1
 BYTE   W12
 BYTE   N11
 BYTE   W12
 BYTE   Cn1  v096
 BYTE   N11  Fs1
 BYTE   W12
 BYTE   Cn1  v064
 BYTE   N11  Fs1
 BYTE   W12
 BYTE   Dn1
 BYTE   N11  Fs1
 BYTE   W12
 BYTE   N11
 BYTE   W12
 BYTE   PEND 
//  #07 //057   ----------------------------------------
 BYTE   PATT
  POIN2 Label_01410C5A
//  #07 //058   ----------------------------------------
 BYTE   PATT
  POIN2 Label_01410C99
//  #07 //059   ----------------------------------------
Label_01410D0C:
 BYTE   N23  Cn1  v096
 BYTE   N11  Fs1
 BYTE   W12
 BYTE   Fs1  v064
 BYTE   W12
 BYTE   Dn1
 BYTE   N11  Fs1
 BYTE   W12
 BYTE   N11
 BYTE   W12
 BYTE   Cn1  v096
 BYTE   N11  Fs1
 BYTE   W12
 BYTE   Cn1  v064
 BYTE   N11  Fs1
 BYTE   W12
 BYTE   Dn1
 BYTE   N11  Fs1
 BYTE   W12
 BYTE   N11
 BYTE   W12
 BYTE   PEND 
//  #07 //060   ----------------------------------------
 BYTE   PATT
  POIN2 Label_01410CE2
//  #07 //061   ----------------------------------------
 BYTE   PATT
  POIN2 Label_01410C5A
//  #07 //062   ----------------------------------------
 BYTE   PATT
  POIN2 Label_01410C99
//  #07 //063   ----------------------------------------
 BYTE   PATT
  POIN2 Label_01410D0C
//  #07 //064   ----------------------------------------
 BYTE   N23  Cn1  v096
 BYTE   N11  Fs1
 BYTE   W12
 BYTE   Fs1  v064
 BYTE   W12
 BYTE   Dn1
 BYTE   N11  Fs1
 BYTE   W12
 BYTE   N11
 BYTE   W12
 BYTE   Cn1  v096
 BYTE   N11  Fs1
 BYTE   W12
 BYTE   Cn1  v064
 BYTE   N11  Fs1
 BYTE   W12
 BYTE   Dn1
 BYTE   N11  Fs1
 BYTE   W12
 BYTE   N01  Dn1
 BYTE   W01
 BYTE   N01
 BYTE   W02
 BYTE   N01
 BYTE   W01
 BYTE   N01
 BYTE   W02
 BYTE   N01
 BYTE   W01
 BYTE   N01
 BYTE   W02
 BYTE   N01
 BYTE   W01
 BYTE   N01
 BYTE   W02
//  #07 //065   ----------------------------------------
 BYTE   N23  Cn1
 BYTE   N23  As1
 BYTE   W84
 BYTE   N11  Cn1  v127
 BYTE   N11  Cs2
 BYTE   W12
//  #07 //066   ----------------------------------------
 BYTE   PATT
  POIN2 Label_01410A9B
//  #07 //067   ----------------------------------------
 BYTE   PATT
  POIN2 Label_01410AB6
//  #07 //068   ----------------------------------------
 BYTE   PATT
  POIN2 Label_01410AD1
//  #07 //069   ----------------------------------------
 BYTE   PATT
  POIN2 Label_01410AD1
//  #07 //070   ----------------------------------------
 BYTE   PATT
  POIN2 Label_01410AB6
//  #07 //071   ----------------------------------------
 BYTE   PATT
  POIN2 Label_01410AD1
//  #07 //072   ----------------------------------------
 BYTE   PATT
  POIN2 Label_01410AFB
//  #07 //073   ----------------------------------------
 BYTE   PATT
  POIN2 Label_01410B17
//  #07 //074   ----------------------------------------
 BYTE   PATT
  POIN2 Label_01410AB6
//  #07 //075   ----------------------------------------
 BYTE   PATT
  POIN2 Label_01410AD1
//  #07 //076   ----------------------------------------
 BYTE   PATT
  POIN2 Label_01410AD1
//  #07 //077   ----------------------------------------
 BYTE   PATT
  POIN2 Label_01410AB6
//  #07 //078   ----------------------------------------
 BYTE   PATT
  POIN2 Label_01410B4B
//  #07 //079   ----------------------------------------
 BYTE   PATT
  POIN2 Label_01410B5C
//  #07 //080   ----------------------------------------
 BYTE   PATT
  POIN2 Label_01410B4B
//  #07 //081   ----------------------------------------
 BYTE   N23  Cn1  v096
 BYTE   W24
 BYTE   Dn1
 BYTE   W24
 BYTE   N11  Cn1
 BYTE   W12
 BYTE   N11
 BYTE   W12
 BYTE   N23  Dn1
 BYTE   N23  As1
 BYTE   W24
//  #07 //082   ----------------------------------------
Label_01410DD4:
 BYTE   N23  Cn1  v096
 BYTE   N11  Cs2
 BYTE   W12
 BYTE   As1
 BYTE   W12
 BYTE   N23  Dn1
 BYTE   N23  As1
 BYTE   W24
 BYTE   N11  Cn1
 BYTE   N23  As1
 BYTE   W12
 BYTE   N11  Cn1
 BYTE   W12
 BYTE   Dn1
 BYTE   N11  As1
 BYTE   W12
 BYTE   N11
 BYTE   W12
 BYTE   PEND 
//  #07 //083   ----------------------------------------
 BYTE   PATT
  POIN2 Label_01410B90
//  #07 //084   ----------------------------------------
 BYTE   PATT
  POIN2 Label_01410B90
//  #07 //085   ----------------------------------------
 BYTE   PATT
  POIN2 Label_01410B90
//  #07 //086   ----------------------------------------
 BYTE   PATT
  POIN2 Label_01410DD4
//  #07 //087   ----------------------------------------
 BYTE   PATT
  POIN2 Label_01410B90
//  #07 //088   ----------------------------------------
 BYTE   N23  Cn1  v096
 BYTE   N23  Cs2
 BYTE   W24
 BYTE   Dn1
 BYTE   N23  Fs1
 BYTE   W24
 BYTE   N11  Cn1
 BYTE   N23  Fs1
 BYTE   W12
 BYTE   N11  Cn1
 BYTE   W12
 BYTE   N23  Dn1
 BYTE   N23  Fs1
 BYTE   W12
 BYTE   N11  Cn1
 BYTE   W12
//  #07 //089   ----------------------------------------
 BYTE   N23
 BYTE   N23  Fs1
 BYTE   W24
 BYTE   N23
 BYTE   W12
 BYTE   N11  Cn1
 BYTE   W12
 BYTE   N23
 BYTE   N23  Fs1
 BYTE   W24
 BYTE   As1
 BYTE   W12
 BYTE   N11  Cn1
 BYTE   W12
//  #07 //090   ----------------------------------------
Label_01410E35:
 BYTE   N23  Cn1  v064
 BYTE   N23  Fs1
 BYTE   W24
 BYTE   Cs1
 BYTE   N23  Fs1
 BYTE   W24
 BYTE   N23
 BYTE   W24
 BYTE   Cs1
 BYTE   N23  Fs1
 BYTE   W12
 BYTE   N11  Cn1
 BYTE   W12
 BYTE   PEND 
//  #07 //091   ----------------------------------------
 BYTE   PATT
  POIN2 Label_01410E35
//  #07 //092   ----------------------------------------
 BYTE   N23  Cn1  v064
 BYTE   N23  Fs1
 BYTE   W24
 BYTE   Cs1
 BYTE   N23  Fs1
 BYTE   W24
 BYTE   N23
 BYTE   W24
 BYTE   Cs1
 BYTE   N23  Fs1
 BYTE   W12
 BYTE   N11  Cn1
 BYTE   W12
//  #07 //093   ----------------------------------------
 BYTE   PATT
  POIN2 Label_01410E35
//  #07 //094   ----------------------------------------
 BYTE   PATT
  POIN2 Label_01410E35
//  #07 //095   ----------------------------------------
 BYTE   PATT
  POIN2 Label_01410E35
//  #07 //096   ----------------------------------------
 BYTE   PATT
  POIN2 Label_01410E35
//  #07 //097   ----------------------------------------
 BYTE   N44  As1  v064
 BYTE   W84
 BYTE   N11  Cn1  v127
 BYTE   N11  Cs2
 BYTE   W12
//  #07 //098   ----------------------------------------
 BYTE   PATT
  POIN2 Label_01410A9B
//  #07 //099   ----------------------------------------
 BYTE   PATT
  POIN2 Label_01410AB6
//  #07 //100   ----------------------------------------
 BYTE   PATT
  POIN2 Label_01410AD1
//  #07 //101   ----------------------------------------
 BYTE   PATT
  POIN2 Label_01410AD1
//  #07 //102   ----------------------------------------
 BYTE   PATT
  POIN2 Label_01410AB6
//  #07 //103   ----------------------------------------
 BYTE   PATT
  POIN2 Label_01410AD1
//  #07 //104   ----------------------------------------
 BYTE   PATT
  POIN2 Label_01410AFB
//  #07 //105   ----------------------------------------
 BYTE   PATT
  POIN2 Label_01410B17
//  #07 //106   ----------------------------------------
 BYTE   PATT
  POIN2 Label_01410AB6
//  #07 //107   ----------------------------------------
 BYTE   PATT
  POIN2 Label_01410AD1
//  #07 //108   ----------------------------------------
 BYTE   PATT
  POIN2 Label_01410AD1
//  #07 //109   ----------------------------------------
 BYTE   PATT
  POIN2 Label_01410AB6
//  #07 //110   ----------------------------------------
 BYTE   PATT
  POIN2 Label_01410AD1
//  #07 //111   ----------------------------------------
 BYTE   N23  Cn1  v096
 BYTE   N23  As1
 BYTE   W24
 BYTE   N11  Dn1
 BYTE   N11  As1
 BYTE   W12
 BYTE   N11
 BYTE   W12
 BYTE   Cn1
 BYTE   N05  As1
 BYTE   N05  Dn2
 BYTE   W06
 BYTE   Bn1
 BYTE   W06
 BYTE   N11  Cn1
 BYTE   W06
 BYTE   N05  An1
 BYTE   W06
 BYTE   N11  Dn1
 BYTE   N11  As1
 BYTE   W12
 BYTE   Cs2  v127
 BYTE   W12
//  #07 //112   ----------------------------------------
 BYTE   Cn1  v096
 BYTE   N11  Fn2
 BYTE   W12
 BYTE   N05  Cn1
 BYTE   N11  Fn2
 BYTE   W06
 BYTE   N05  Cn1
 BYTE   W06
 BYTE   N11  Dn1
 BYTE   N11  Fn2
 BYTE   W12
 BYTE   N11
 BYTE   W12
 BYTE   Cn1
 BYTE   N11  Fn2
 BYTE   W12
 BYTE   Cn1
 BYTE   N11  Fn2
 BYTE   W12
 BYTE   Dn1
 BYTE   N11  Fn2
 BYTE   W12
 BYTE   N11
 BYTE   W12
//  #07 //113   ----------------------------------------
Label_01410F05:
 BYTE   N23  Cn1  v096
 BYTE   N11  Cs2
 BYTE   W12
 BYTE   Fn2
 BYTE   W12
 BYTE   Dn1
 BYTE   N11  Fn2
 BYTE   W12
 BYTE   N11
 BYTE   W12
 BYTE   Cn1
 BYTE   N11  Fn2
 BYTE   W12
 BYTE   Cn1
 BYTE   N11  Fn2
 BYTE   W12
 BYTE   Dn1
 BYTE   N11  Fn2
 BYTE   W12
 BYTE   N11
 BYTE   W12
 BYTE   PEND 
//  #07 //114   ----------------------------------------
Label_01410F22:
 BYTE   N23  Cn1  v096
 BYTE   N11  Fn2
 BYTE   W12
 BYTE   N11
 BYTE   W12
 BYTE   Dn1
 BYTE   N11  Fn2
 BYTE   W12
 BYTE   N11
 BYTE   W12
 BYTE   Cn1
 BYTE   N11  Fn2
 BYTE   W12
 BYTE   Cn1
 BYTE   N11  Fn2
 BYTE   W12
 BYTE   Dn1
 BYTE   N11  Fn2
 BYTE   W12
 BYTE   N11
 BYTE   W12
 BYTE   PEND 
//  #07 //115   ----------------------------------------
 BYTE   PATT
  POIN2 Label_01410F22
//  #07 //116   ----------------------------------------
 BYTE   PATT
  POIN2 Label_01410F05
//  #07 //117   ----------------------------------------
 BYTE   PATT
  POIN2 Label_01410B4B
//  #07 //118   ----------------------------------------
 BYTE   N11  Cn1  v096
 BYTE   W06
 BYTE   W06
 BYTE   N11
 BYTE   W06
 BYTE   W06
 BYTE   N23  Dn1  v092
 BYTE   W06
 BYTE   W06
 BYTE   W06
 BYTE   W06
 BYTE   N11  Cn1  v088
 BYTE   W06
 BYTE   W06
 BYTE   N11
 BYTE   W06
 BYTE   W06
 BYTE   N23  Dn1  v084
 BYTE   W06
 BYTE   W06
 BYTE   W06
 BYTE   W06
//  #07 //119   ----------------------------------------
 BYTE   Cn1  v080
 BYTE   N11  Cs2
 BYTE   W12
 BYTE   Dn1
 BYTE   W12
 BYTE   N05
 BYTE   W06
 BYTE   N05
 BYTE   W06
 BYTE   N01
 BYTE   W01
 BYTE   N01
 BYTE   W02
 BYTE   N01
 BYTE   W01
 BYTE   N01
 BYTE   W02
 BYTE   N01
 BYTE   W01
 BYTE   N01
 BYTE   W02
 BYTE   N01
 BYTE   W01
 BYTE   N01
 BYTE   W02
 BYTE   N11  Cn1
 BYTE   N11  Dn1
 BYTE   W12
 BYTE   Cn1
 BYTE   N01  Dn1
 BYTE   W01
 BYTE   N01
 BYTE   W02
 BYTE   N01
 BYTE   W01
 BYTE   N01
 BYTE   W02
 BYTE   N01
 BYTE   W01
 BYTE   N01
 BYTE   W02
 BYTE   N01
 BYTE   W01
 BYTE   N01
 BYTE   W02
 BYTE   N05
 BYTE   W06
 BYTE   N05
 BYTE   W06
 BYTE   N11  Cn1
 BYTE   N11  Dn1
 BYTE   W12
//  #07 //120   ----------------------------------------
 BYTE   N23  Cn1
 BYTE   N11  Dn1
 BYTE   W12
 BYTE   N01
 BYTE   W01
 BYTE   N01
 BYTE   W02
 BYTE   N01
 BYTE   W01
 BYTE   N01
 BYTE   W02
 BYTE   N01
 BYTE   W01
 BYTE   N01
 BYTE   W02
 BYTE   N01
 BYTE   W01
 BYTE   N01
 BYTE   W02
 BYTE   N05
 BYTE   W06
 BYTE   N05
 BYTE   W06
 BYTE   N01
 BYTE   W01
 BYTE   N01
 BYTE   W02
 BYTE   N01
 BYTE   W01
 BYTE   N01
 BYTE   W02
 BYTE   N01
 BYTE   W01
 BYTE   N01
 BYTE   W02
 BYTE   N01
 BYTE   W01
 BYTE   N01
 BYTE   W02
 BYTE   N11  Cn1
 BYTE   N11  Dn1
 BYTE   W12
 BYTE   Cn1
 BYTE   N01  Dn1
 BYTE   W01
 BYTE   N01
 BYTE   W02
 BYTE   N01
 BYTE   W01
 BYTE   N01
 BYTE   W02
 BYTE   N01
 BYTE   W01
 BYTE   N01
 BYTE   W02
 BYTE   N01
 BYTE   W01
 BYTE   N01
 BYTE   W02
 BYTE   N05
 BYTE   W06
 BYTE   N05
 BYTE   W06
 BYTE   N11  Cn1
 BYTE   N11  Dn1
 BYTE   W12
//  #07 //121   ----------------------------------------
 BYTE   N23  Cn1
 BYTE   N11  Dn1
 BYTE   N11  Ds2
 BYTE   W12
 BYTE   N01  Dn1
 BYTE   W01
 BYTE   N01
 BYTE   W02
 BYTE   N01
 BYTE   W01
 BYTE   N01
 BYTE   W02
 BYTE   N01
 BYTE   W01
 BYTE   N01
 BYTE   W02
 BYTE   N01
 BYTE   W01
 BYTE   N01
 BYTE   W02
 BYTE   N05
 BYTE   W06
 BYTE   N05
 BYTE   W06
 BYTE   N01
 BYTE   W01
 BYTE   N01
 BYTE   W02
 BYTE   N01
 BYTE   W01
 BYTE   N01
 BYTE   W02
 BYTE   N01
 BYTE   W01
 BYTE   N01
 BYTE   W02
 BYTE   N01
 BYTE   W01
 BYTE   N01
 BYTE   W02
 BYTE   N11  Cn1
 BYTE   N11  Dn1
 BYTE   W12
 BYTE   Cn1
 BYTE   N01  Dn1
 BYTE   W01
 BYTE   N01
 BYTE   W02
 BYTE   N01
 BYTE   W01
 BYTE   N01
 BYTE   W02
 BYTE   N01
 BYTE   W01
 BYTE   N01
 BYTE   W02
 BYTE   N01
 BYTE   W01
 BYTE   N01
 BYTE   W02
 BYTE   N05
 BYTE   W06
 BYTE   N05
 BYTE   W06
 BYTE   N11  Cn1
 BYTE   N11  Dn1
 BYTE   W12
//  #07 //122   ----------------------------------------
 BYTE   N23  Cn1
 BYTE   N11  Dn1
 BYTE   W12
 BYTE   N01
 BYTE   W01
 BYTE   N01
 BYTE   W02
 BYTE   N01
 BYTE   W01
 BYTE   N01
 BYTE   W02
 BYTE   N01
 BYTE   W01
 BYTE   N01
 BYTE   W02
 BYTE   N01
 BYTE   W01
 BYTE   N01
 BYTE   W02
 BYTE   N05
 BYTE   W06
 BYTE   N05
 BYTE   W06
 BYTE   N01
 BYTE   W01
 BYTE   N01
 BYTE   W02
 BYTE   N01
 BYTE   W01
 BYTE   N01
 BYTE   W02
 BYTE   N01
 BYTE   W01
 BYTE   N01
 BYTE   W02
 BYTE   N01
 BYTE   W01
 BYTE   N01
 BYTE   W02
 BYTE   N11  Cn1
 BYTE   N11  Dn1
 BYTE   W12
 BYTE   Cn1
 BYTE   N01  Dn1
 BYTE   W01
 BYTE   N01
 BYTE   W02
 BYTE   N01
 BYTE   W01
 BYTE   N01
 BYTE   W02
 BYTE   N01
 BYTE   W01
 BYTE   N01
 BYTE   W02
 BYTE   N01
 BYTE   W01
 BYTE   N01
 BYTE   W02
 BYTE   N05
 BYTE   W06
 BYTE   N05
 BYTE   W06
 BYTE   N11  Cn1
 BYTE   N11  Dn1
 BYTE   W12
//  #07 //123   ----------------------------------------
 BYTE   GoTo
  POIN2 Label_01410A76
//  #07 //124   ----------------------------------------
 BYTE   N23  Cn1  v080
 BYTE   N23  Dn1
 BYTE   N23  Cs2
 BYTE   W23
 BYTE   FINE

//******************************************************//
	ALIGN 4

OurLight:
	BYTE	7	// NumTrks
	BYTE	0	// NumBlks
	BYTE	OurLight_pri	// Priority
	BYTE	OurLight_rev	// Reverb.
    
	POIN2	OurLight_grp
    
	POIN2	OurLight_001
	POIN2	OurLight_002
	POIN2	OurLight_003
	POIN2	OurLight_004
	POIN2	OurLight_005
	POIN2	OurLight_006
	POIN2	OurLight_007

	
