//Event file generated from Sappy .s format.
	#include "MPlayDef.event"

	#define	PirateMan_grp  voicegroup000
	#define	PirateMan_pri  0
	#define	PirateMan_rev  0
	#define	PirateMan_mvl  127
	#define	PirateMan_key  0
	#define	PirateMan_tbs  1
	#define	PirateMan_exg  0
	#define	PirateMan_cmp  1

	// .rodata
	//	PirateMan
	ALIGN 4


//**************** Track 1 (Midi-Chn.0) ****************//

PirateMan_001:
//  #01 //000   ----------------------------------------
 BYTE   KEYSH   PirateMan_key+0
 BYTE   TEMPO   140*PirateMan_tbs/2
 BYTE   VOICE   41
 BYTE   VOL   45*PirateMan_mvl/mxv
 BYTE   W48
Label_010042D9:
 BYTE   W96
//  #01 //001   ----------------------------------------
 BYTE   W96
//  #01 //002   ----------------------------------------
 BYTE   W96
//  #01 //003   ----------------------------------------
Label_010042DC:
 BYTE   W72
 BYTE   N12  Ds4  v100
 BYTE   W12
 BYTE   Fn4
 BYTE   W12
 BYTE   PEND 
//  #01 //004   ----------------------------------------
Label_010042E4:
 BYTE   N36  Gn4  v100
 BYTE   W36
 BYTE   N12  Cn4
 BYTE   W12
 BYTE   TIE
 BYTE   W48
 BYTE   PEND 
//  #01 //005   ----------------------------------------
 BYTE   W72
 BYTE   EOT
 BYTE   N12  Dn4
 BYTE   W12
 BYTE   Ds4
 BYTE   W12
//  #01 //006   ----------------------------------------
Label_010042F5:
 BYTE   N36  Fn4  v100
 BYTE   W36
 BYTE   N12  As3
 BYTE   W12
 BYTE   TIE
 BYTE   W48
 BYTE   PEND 
//  #01 //007   ----------------------------------------
 BYTE   W72
 BYTE   EOT
 BYTE   N12  Dn4
 BYTE   W12
 BYTE   Ds4
 BYTE   W12
//  #01 //008   ----------------------------------------
 BYTE   PATT
  POIN2 Label_010042F5
//  #01 //009   ----------------------------------------
 BYTE   W60
 BYTE   N36  Fn4  v100
 BYTE   W12
 BYTE   EOT
 BYTE   As3
 BYTE   W24
//  #01 //010   ----------------------------------------
 BYTE   N96  Fn4
 BYTE   W96
//  #01 //011   ----------------------------------------
Label_01004316:
 BYTE   N72  Ds4  v100
 BYTE   W72
 BYTE   N12
 BYTE   W12
 BYTE   Fn4
 BYTE   W12
 BYTE   PEND 
//  #01 //012   ----------------------------------------
 BYTE   PATT
  POIN2 Label_010042E4
//  #01 //013   ----------------------------------------
 BYTE   W72
 BYTE   EOT
 BYTE   Cn4
 BYTE   N12  Dn4  v100
 BYTE   W12
 BYTE   Ds4
 BYTE   W12
//  #01 //014   ----------------------------------------
 BYTE   PATT
  POIN2 Label_010042F5
//  #01 //015   ----------------------------------------
 BYTE   W72
 BYTE   EOT
 BYTE   As3
 BYTE   N12  Dn4  v100
 BYTE   W12
 BYTE   Ds4
 BYTE   W12
//  #01 //016   ----------------------------------------
Label_0100433B:
 BYTE   N36  Fn4  v100
 BYTE   W36
 BYTE   N12  As3
 BYTE   W12
 BYTE   N96
 BYTE   W48
 BYTE   PEND 
//  #01 //017   ----------------------------------------
 BYTE   W48
 BYTE   N48  Dn4
 BYTE   W48
//  #01 //018   ----------------------------------------
 BYTE   TIE  Cn4
 BYTE   W96
//  #01 //019   ----------------------------------------
Label_0100434C:
 BYTE   W92
 BYTE   W03
 BYTE   VOICE   41
 BYTE   W01
 BYTE   PEND 
//  #01 //020   ----------------------------------------
 BYTE   EOT
 BYTE   Cn4
Label_01004354:
 BYTE   N24  Cn4  v100
 BYTE   W24
 BYTE   N12  Dn4
 BYTE   W12
 BYTE   N72  Ds4
 BYTE   W60
 BYTE   PEND 
//  #01 //021   ----------------------------------------
Label_0100435F:
 BYTE   W12
 BYTE   N24  Cn4  v100
 BYTE   W24
 BYTE   N12  Dn4
 BYTE   W12
 BYTE   N18  Ds4
 BYTE   W18
 BYTE   Dn4
 BYTE   W18
 BYTE   N36  Cn4
 BYTE   W12
 BYTE   PEND 
//  #01 //022   ----------------------------------------
Label_01004370:
 BYTE   W24
 BYTE   N12  Dn4  v100
 BYTE   W12
 BYTE   TIE  As3
 BYTE   W60
 BYTE   PEND 
//  #01 //023   ----------------------------------------
 BYTE   W48
 BYTE   EOT
 BYTE   W12
 BYTE   N24  Gn3
 BYTE   W24
 BYTE   N12  As3
 BYTE   W12
//  #01 //024   ----------------------------------------
Label_01004382:
 BYTE   N24  As3  v100
 BYTE   W24
 BYTE   N12  Gs3
 BYTE   W12
 BYTE   N72
 BYTE   W60
 BYTE   PEND 
//  #01 //025   ----------------------------------------
Label_0100438C:
 BYTE   W12
 BYTE   N24  Cn4  v100
 BYTE   W24
 BYTE   N12  Dn4
 BYTE   W12
 BYTE   N18  Ds4
 BYTE   W18
 BYTE   Dn4
 BYTE   W18
 BYTE   N12  Cn4
 BYTE   W12
 BYTE   PEND 
//  #01 //026   ----------------------------------------
Label_0100439D:
 BYTE   N36  Cn4  v100
 BYTE   W36
 BYTE   N60  As3
 BYTE   W60
 BYTE   PEND 
//  #01 //027   ----------------------------------------
Label_010043A5:
 BYTE   N24  Dn4  v100
 BYTE   W24
 BYTE   Fn4
 BYTE   W24
 BYTE   Ds4
 BYTE   W24
 BYTE   Dn4
 BYTE   W24
 BYTE   PEND 
//  #01 //028   ----------------------------------------
 BYTE   PATT
  POIN2 Label_01004354
//  #01 //029   ----------------------------------------
 BYTE   PATT
  POIN2 Label_0100435F
//  #01 //030   ----------------------------------------
 BYTE   PATT
  POIN2 Label_01004370
//  #01 //031   ----------------------------------------
 BYTE   W60
 BYTE   EOT
 BYTE   As3
 BYTE   N12  Gn3  v100
 BYTE   W12
 BYTE   Gs3
 BYTE   W12
 BYTE   As3
 BYTE   W12
//  #01 //032   ----------------------------------------
 BYTE   PATT
  POIN2 Label_01004382
//  #01 //033   ----------------------------------------
 BYTE   PATT
  POIN2 Label_0100438C
//  #01 //034   ----------------------------------------
 BYTE   N84  Dn4  v100
 BYTE   W96
//  #01 //035   ----------------------------------------
Label_010043D8:
 BYTE   N48  Gs4  v100
 BYTE   W48
 BYTE   Gn4
 BYTE   W48
 BYTE   PEND 
//  #01 //036   ----------------------------------------
 BYTE   GoTo
  POIN2 Label_010042D9
//  #01 //037   ----------------------------------------
 BYTE   W10
 BYTE   VOICE   41
 BYTE   W84
 BYTE   W02
//  #01 //038   ----------------------------------------
 BYTE   W96
//  #01 //039   ----------------------------------------
 BYTE   W96
//  #01 //040   ----------------------------------------
 BYTE   PATT
  POIN2 Label_010042DC
//  #01 //041   ----------------------------------------
 BYTE   PATT
  POIN2 Label_010042E4
//  #01 //042   ----------------------------------------
 BYTE   W72
 BYTE   EOT
 BYTE   Cn4
 BYTE   N12  Dn4  v100
 BYTE   W12
 BYTE   Ds4
 BYTE   W12
//  #01 //043   ----------------------------------------
 BYTE   PATT
  POIN2 Label_010042F5
//  #01 //044   ----------------------------------------
 BYTE   W72
 BYTE   EOT
 BYTE   As3
 BYTE   N12  Dn4  v100
 BYTE   W12
 BYTE   Ds4
 BYTE   W12
//  #01 //045   ----------------------------------------
 BYTE   PATT
  POIN2 Label_010042F5
//  #01 //046   ----------------------------------------
 BYTE   W60
 BYTE   N36  Fn4  v100
 BYTE   W12
 BYTE   EOT
 BYTE   As3
 BYTE   W24
//  #01 //047   ----------------------------------------
 BYTE   N96  Fn4
 BYTE   W96
//  #01 //048   ----------------------------------------
 BYTE   PATT
  POIN2 Label_01004316
//  #01 //049   ----------------------------------------
 BYTE   PATT
  POIN2 Label_010042E4
//  #01 //050   ----------------------------------------
 BYTE   W72
 BYTE   EOT
 BYTE   Cn4
 BYTE   N12  Dn4  v100
 BYTE   W12
 BYTE   Ds4
 BYTE   W12
//  #01 //051   ----------------------------------------
 BYTE   PATT
  POIN2 Label_010042F5
//  #01 //052   ----------------------------------------
 BYTE   W72
 BYTE   EOT
 BYTE   As3
 BYTE   N12  Dn4  v100
 BYTE   W12
 BYTE   Ds4
 BYTE   W12
//  #01 //053   ----------------------------------------
 BYTE   PATT
  POIN2 Label_0100433B
//  #01 //054   ----------------------------------------
 BYTE   W48
 BYTE   N48  Dn4  v100
 BYTE   W48
//  #01 //055   ----------------------------------------
 BYTE   TIE  Cn4
 BYTE   W96
//  #01 //056   ----------------------------------------
 BYTE   PATT
  POIN2 Label_0100434C
//  #01 //057   ----------------------------------------
 BYTE   EOT
 BYTE   Cn4
//  #01 //058   ----------------------------------------
 BYTE   PATT
  POIN2 Label_01004354
//  #01 //059   ----------------------------------------
 BYTE   PATT
  POIN2 Label_0100435F
//  #01 //060   ----------------------------------------
 BYTE   PATT
  POIN2 Label_01004370
//  #01 //061   ----------------------------------------
 BYTE   W48
 BYTE   EOT
 BYTE   As3
 BYTE   W12
 BYTE   N24  Gn3  v100
 BYTE   W24
 BYTE   N12  As3
 BYTE   W12
//  #01 //062   ----------------------------------------
 BYTE   PATT
  POIN2 Label_01004382
//  #01 //063   ----------------------------------------
 BYTE   PATT
  POIN2 Label_0100438C
//  #01 //064   ----------------------------------------
 BYTE   PATT
  POIN2 Label_0100439D
//  #01 //065   ----------------------------------------
 BYTE   PATT
  POIN2 Label_010043A5
//  #01 //066   ----------------------------------------
 BYTE   PATT
  POIN2 Label_01004354
//  #01 //067   ----------------------------------------
 BYTE   PATT
  POIN2 Label_0100435F
//  #01 //068   ----------------------------------------
 BYTE   PATT
  POIN2 Label_01004370
//  #01 //069   ----------------------------------------
 BYTE   W60
 BYTE   EOT
 BYTE   As3
 BYTE   N12  Gn3  v100
 BYTE   W12
 BYTE   Gs3
 BYTE   W12
 BYTE   As3
 BYTE   W12
//  #01 //070   ----------------------------------------
 BYTE   PATT
  POIN2 Label_01004382
//  #01 //071   ----------------------------------------
 BYTE   PATT
  POIN2 Label_0100438C
//  #01 //072   ----------------------------------------
 BYTE   N84  Dn4  v100
 BYTE   W96
//  #01 //073   ----------------------------------------
 BYTE   PATT
  POIN2 Label_010043D8
//  #01 //074   ----------------------------------------
 BYTE   W10
 BYTE   VOICE   41
 BYTE   FINE

//**************** Track 2 (Midi-Chn.1) ****************//

PirateMan_002:
//  #02 //000   ----------------------------------------
 BYTE   KEYSH   PirateMan_key+0
 BYTE   VOICE   85
 BYTE   VOL   37*PirateMan_mvl/mxv
 BYTE   PAN   c_v-64
 BYTE   W48
Label_01285C01:
 BYTE   W96
//  #02 //001   ----------------------------------------
 BYTE   W96
//  #02 //002   ----------------------------------------
 BYTE   W96
//  #02 //003   ----------------------------------------
 BYTE   W96
//  #02 //004   ----------------------------------------
 BYTE   W96
//  #02 //005   ----------------------------------------
 BYTE   W96
//  #02 //006   ----------------------------------------
 BYTE   W96
//  #02 //007   ----------------------------------------
 BYTE   W96
//  #02 //008   ----------------------------------------
 BYTE   W96
//  #02 //009   ----------------------------------------
 BYTE   W96
//  #02 //010   ----------------------------------------
 BYTE   W96
//  #02 //011   ----------------------------------------
 BYTE   W96
//  #02 //012   ----------------------------------------
 BYTE   W96
//  #02 //013   ----------------------------------------
 BYTE   W96
//  #02 //014   ----------------------------------------
 BYTE   W96
//  #02 //015   ----------------------------------------
 BYTE   W96
//  #02 //016   ----------------------------------------
 BYTE   W96
//  #02 //017   ----------------------------------------
 BYTE   W96
//  #02 //018   ----------------------------------------
 BYTE   W96
//  #02 //019   ----------------------------------------
 BYTE   W96
//  #02 //020   ----------------------------------------
 BYTE   N96  Gn4  v100
 BYTE   W96
//  #02 //021   ----------------------------------------
 BYTE   W96
//  #02 //022   ----------------------------------------
 BYTE   Fn4
 BYTE   W96
//  #02 //023   ----------------------------------------
 BYTE   W96
//  #02 //024   ----------------------------------------
 BYTE   Ds4
 BYTE   W96
//  #02 //025   ----------------------------------------
 BYTE   W96
//  #02 //026   ----------------------------------------
 BYTE   Dn4
 BYTE   W96
//  #02 //027   ----------------------------------------
 BYTE   W48
 BYTE   N48  Bn3
 BYTE   W48
//  #02 //028   ----------------------------------------
 BYTE   N96  Gn4
 BYTE   W96
//  #02 //029   ----------------------------------------
 BYTE   W96
//  #02 //030   ----------------------------------------
 BYTE   Fn4
 BYTE   W96
//  #02 //031   ----------------------------------------
 BYTE   W96
//  #02 //032   ----------------------------------------
 BYTE   Ds4
 BYTE   W96
//  #02 //033   ----------------------------------------
 BYTE   W96
//  #02 //034   ----------------------------------------
 BYTE   Bn3
 BYTE   W96
//  #02 //035   ----------------------------------------
 BYTE   W48
 BYTE   N48  Dn4
 BYTE   W48
//  #02 //036   ----------------------------------------
 BYTE   GoTo
  POIN2 Label_01285C01
//  #02 //037   ----------------------------------------
 BYTE   W96
//  #02 //038   ----------------------------------------
 BYTE   W96
//  #02 //039   ----------------------------------------
 BYTE   W96
//  #02 //040   ----------------------------------------
 BYTE   W96
//  #02 //041   ----------------------------------------
 BYTE   W96
//  #02 //042   ----------------------------------------
 BYTE   W96
//  #02 //043   ----------------------------------------
 BYTE   W96
//  #02 //044   ----------------------------------------
 BYTE   W96
//  #02 //045   ----------------------------------------
 BYTE   W96
//  #02 //046   ----------------------------------------
 BYTE   W96
//  #02 //047   ----------------------------------------
 BYTE   W96
//  #02 //048   ----------------------------------------
 BYTE   W96
//  #02 //049   ----------------------------------------
 BYTE   W96
//  #02 //050   ----------------------------------------
 BYTE   W96
//  #02 //051   ----------------------------------------
 BYTE   W96
//  #02 //052   ----------------------------------------
 BYTE   W96
//  #02 //053   ----------------------------------------
 BYTE   W96
//  #02 //054   ----------------------------------------
 BYTE   W96
//  #02 //055   ----------------------------------------
 BYTE   W96
//  #02 //056   ----------------------------------------
 BYTE   W96
//  #02 //057   ----------------------------------------
 BYTE   N96  Gn4  v100
 BYTE   W96
//  #02 //058   ----------------------------------------
 BYTE   W96
//  #02 //059   ----------------------------------------
 BYTE   Fn4
 BYTE   W96
//  #02 //060   ----------------------------------------
 BYTE   W96
//  #02 //061   ----------------------------------------
 BYTE   Ds4
 BYTE   W96
//  #02 //062   ----------------------------------------
 BYTE   W96
//  #02 //063   ----------------------------------------
 BYTE   Dn4
 BYTE   W96
//  #02 //064   ----------------------------------------
 BYTE   W48
 BYTE   N48  Bn3
 BYTE   W48
//  #02 //065   ----------------------------------------
 BYTE   N96  Gn4
 BYTE   W96
//  #02 //066   ----------------------------------------
 BYTE   W96
//  #02 //067   ----------------------------------------
 BYTE   Fn4
 BYTE   W96
//  #02 //068   ----------------------------------------
 BYTE   W96
//  #02 //069   ----------------------------------------
 BYTE   Ds4
 BYTE   W96
//  #02 //070   ----------------------------------------
 BYTE   W96
//  #02 //071   ----------------------------------------
 BYTE   Bn3
 BYTE   W96
//  #02 //072   ----------------------------------------
 BYTE   W48
 BYTE   N48  Dn4
 BYTE   W48
//  #02 //073   ----------------------------------------
 BYTE   W10
 BYTE   FINE

//**************** Track 3 (Midi-Chn.2) ****************//

PirateMan_003:
//  #03 //000   ----------------------------------------
 BYTE   KEYSH   PirateMan_key+0
 BYTE   VOICE   85
 BYTE   VOL   37*PirateMan_mvl/mxv
 BYTE   PAN   c_v+63
 BYTE   W48
Label_0128593D:
 BYTE   W96
//  #03 //001   ----------------------------------------
 BYTE   W96
//  #03 //002   ----------------------------------------
 BYTE   W96
//  #03 //003   ----------------------------------------
 BYTE   W96
//  #03 //004   ----------------------------------------
 BYTE   W96
//  #03 //005   ----------------------------------------
 BYTE   W96
//  #03 //006   ----------------------------------------
 BYTE   W96
//  #03 //007   ----------------------------------------
 BYTE   W96
//  #03 //008   ----------------------------------------
 BYTE   W96
//  #03 //009   ----------------------------------------
 BYTE   W96
//  #03 //010   ----------------------------------------
 BYTE   W96
//  #03 //011   ----------------------------------------
 BYTE   W96
//  #03 //012   ----------------------------------------
 BYTE   W96
//  #03 //013   ----------------------------------------
 BYTE   W96
//  #03 //014   ----------------------------------------
 BYTE   W96
//  #03 //015   ----------------------------------------
 BYTE   W96
//  #03 //016   ----------------------------------------
 BYTE   W96
//  #03 //017   ----------------------------------------
 BYTE   W96
//  #03 //018   ----------------------------------------
 BYTE   W96
//  #03 //019   ----------------------------------------
 BYTE   W96
//  #03 //020   ----------------------------------------
 BYTE   W96
//  #03 //021   ----------------------------------------
 BYTE   N96  Ds4  v100
 BYTE   W96
//  #03 //022   ----------------------------------------
 BYTE   W96
//  #03 //023   ----------------------------------------
 BYTE   Dn4
 BYTE   W96
//  #03 //024   ----------------------------------------
 BYTE   W96
//  #03 //025   ----------------------------------------
 BYTE   Cn4
 BYTE   W96
//  #03 //026   ----------------------------------------
 BYTE   W96
//  #03 //027   ----------------------------------------
 BYTE   N48
 BYTE   W96
//  #03 //028   ----------------------------------------
 BYTE   W96
//  #03 //029   ----------------------------------------
 BYTE   N96  Ds4
 BYTE   W96
//  #03 //030   ----------------------------------------
 BYTE   W96
//  #03 //031   ----------------------------------------
 BYTE   Dn4
 BYTE   W96
//  #03 //032   ----------------------------------------
 BYTE   W96
//  #03 //033   ----------------------------------------
 BYTE   Cn4
 BYTE   W96
//  #03 //034   ----------------------------------------
 BYTE   W96
//  #03 //035   ----------------------------------------
 BYTE   N48  Fn4
 BYTE   W96
//  #03 //036   ----------------------------------------
 BYTE   GoTo
  POIN2 Label_0128593D
//  #03 //037   ----------------------------------------
 BYTE   W96
//  #03 //038   ----------------------------------------
 BYTE   W96
//  #03 //039   ----------------------------------------
 BYTE   W96
//  #03 //040   ----------------------------------------
 BYTE   W96
//  #03 //041   ----------------------------------------
 BYTE   W96
//  #03 //042   ----------------------------------------
 BYTE   W96
//  #03 //043   ----------------------------------------
 BYTE   W96
//  #03 //044   ----------------------------------------
 BYTE   W96
//  #03 //045   ----------------------------------------
 BYTE   W96
//  #03 //046   ----------------------------------------
 BYTE   W96
//  #03 //047   ----------------------------------------
 BYTE   W96
//  #03 //048   ----------------------------------------
 BYTE   W96
//  #03 //049   ----------------------------------------
 BYTE   W96
//  #03 //050   ----------------------------------------
 BYTE   W96
//  #03 //051   ----------------------------------------
 BYTE   W96
//  #03 //052   ----------------------------------------
 BYTE   W96
//  #03 //053   ----------------------------------------
 BYTE   W96
//  #03 //054   ----------------------------------------
 BYTE   W96
//  #03 //055   ----------------------------------------
 BYTE   W96
//  #03 //056   ----------------------------------------
 BYTE   W96
//  #03 //057   ----------------------------------------
 BYTE   W96
//  #03 //058   ----------------------------------------
 BYTE   N96  Ds4  v100
 BYTE   W96
//  #03 //059   ----------------------------------------
 BYTE   W96
//  #03 //060   ----------------------------------------
 BYTE   Dn4
 BYTE   W96
//  #03 //061   ----------------------------------------
 BYTE   W96
//  #03 //062   ----------------------------------------
 BYTE   Cn4
 BYTE   W96
//  #03 //063   ----------------------------------------
 BYTE   W96
//  #03 //064   ----------------------------------------
 BYTE   N48
 BYTE   W96
//  #03 //065   ----------------------------------------
 BYTE   W96
//  #03 //066   ----------------------------------------
 BYTE   N96  Ds4
 BYTE   W96
//  #03 //067   ----------------------------------------
 BYTE   W96
//  #03 //068   ----------------------------------------
 BYTE   Dn4
 BYTE   W96
//  #03 //069   ----------------------------------------
 BYTE   W96
//  #03 //070   ----------------------------------------
 BYTE   Cn4
 BYTE   W96
//  #03 //071   ----------------------------------------
 BYTE   W96
//  #03 //072   ----------------------------------------
 BYTE   N48  Fn4
 BYTE   W96
//  #03 //073   ----------------------------------------
 BYTE   W10
 BYTE   FINE

//**************** Track 4 (Midi-Chn.3) ****************//

PirateMan_004:
//  #04 //000   ----------------------------------------
 BYTE   KEYSH   PirateMan_key+0
 BYTE   VOICE   18
 BYTE   VOL   45*PirateMan_mvl/mxv
 BYTE   W48
Label_010044C7:
 BYTE   N06  Cn1  v112
 BYTE   W06
 BYTE   Fn1
 BYTE   W06
 BYTE   Gn1
 BYTE   W06
 BYTE   Gs1
 BYTE   W06
 BYTE   Cn2
 BYTE   W06
 BYTE   Fn2
 BYTE   W06
 BYTE   Gn2
 BYTE   W06
 BYTE   As2
 BYTE   W06
//  #04 //001   ----------------------------------------
 BYTE   Cn3
 BYTE   W06
 BYTE   Fn3
 BYTE   W06
 BYTE   Gn3
 BYTE   W06
 BYTE   As3
 BYTE   W06
 BYTE   Cn4
 BYTE   W06
 BYTE   Fn4
 BYTE   W06
 BYTE   Gn4
 BYTE   W06
 BYTE   As4
 BYTE   W06
 BYTE   PEND 
Label_010044EA:
 BYTE   N06  Cn5  v112
 BYTE   W06
 BYTE   As4
 BYTE   W06
 BYTE   Gn4
 BYTE   W06
 BYTE   Fn4
 BYTE   W06
 BYTE   Cn4
 BYTE   W06
 BYTE   As3
 BYTE   W06
 BYTE   Gn3
 BYTE   W06
 BYTE   Fn3
 BYTE   W06
//  #04 //002   ----------------------------------------
 BYTE   Cn3
 BYTE   W06
 BYTE   As2
 BYTE   W06
 BYTE   Gn2
 BYTE   W06
 BYTE   Fn2
 BYTE   W06
 BYTE   Cn2
 BYTE   W06
 BYTE   Gs1
 BYTE   W06
 BYTE   Gn1
 BYTE   W06
 BYTE   Fn1
 BYTE   W06
 BYTE   PEND 
//  #04 //003   ----------------------------------------
 BYTE   PATT
  POIN2 Label_010044C7
//  #04 //004   ----------------------------------------
 BYTE   PATT
  POIN2 Label_010044EA
//  #04 //005   ----------------------------------------
 BYTE   PATT
  POIN2 Label_010044C7
//  #04 //006   ----------------------------------------
 BYTE   PATT
  POIN2 Label_010044EA
//  #04 //007   ----------------------------------------
 BYTE   PATT
  POIN2 Label_010044C7
//  #04 //008   ----------------------------------------
 BYTE   PATT
  POIN2 Label_010044EA
//  #04 //009   ----------------------------------------
Label_0100452B:
 BYTE   N06  Gs0  v112
 BYTE   W06
 BYTE   Dn1
 BYTE   W06
 BYTE   Fn1
 BYTE   W06
 BYTE   Gn1
 BYTE   W06
 BYTE   Gs1
 BYTE   W06
 BYTE   Dn2
 BYTE   W06
 BYTE   Fn2
 BYTE   W06
 BYTE   Gn2
 BYTE   W06
 BYTE   As2
 BYTE   W06
 BYTE   Dn3
 BYTE   W06
 BYTE   Fn3
 BYTE   W06
 BYTE   Gn3
 BYTE   W06
 BYTE   As3
 BYTE   W06
 BYTE   Dn4
 BYTE   W06
 BYTE   Fn4
 BYTE   W06
 BYTE   Gn4
 BYTE   W06
 BYTE   PEND 
//  #04 //010   ----------------------------------------
Label_0100454E:
 BYTE   N06  As4  v112
 BYTE   W06
 BYTE   Gn4
 BYTE   W06
 BYTE   Fn4
 BYTE   W06
 BYTE   Dn4
 BYTE   W06
 BYTE   As3
 BYTE   W06
 BYTE   Gn3
 BYTE   W06
 BYTE   Fn3
 BYTE   W06
 BYTE   Dn3
 BYTE   W06
 BYTE   As2
 BYTE   W06
 BYTE   Gn2
 BYTE   W06
 BYTE   Fn2
 BYTE   W06
 BYTE   Dn2
 BYTE   W06
 BYTE   Gs1
 BYTE   W06
 BYTE   Gn1
 BYTE   W06
 BYTE   Fn1
 BYTE   W06
 BYTE   Dn1
 BYTE   W06
 BYTE   PEND 
//  #04 //011   ----------------------------------------
 BYTE   PATT
  POIN2 Label_010044C7
//  #04 //012   ----------------------------------------
 BYTE   PATT
  POIN2 Label_010044EA
//  #04 //013   ----------------------------------------
 BYTE   PATT
  POIN2 Label_010044C7
//  #04 //014   ----------------------------------------
 BYTE   PATT
  POIN2 Label_010044EA
//  #04 //015   ----------------------------------------
Label_01004585:
 BYTE   N06  Cn1  v112
 BYTE   W06
 BYTE   Fn1
 BYTE   W06
 BYTE   Gn1
 BYTE   W06
 BYTE   Gs1
 BYTE   W06
 BYTE   Cn2
 BYTE   W06
 BYTE   Fn2
 BYTE   W06
 BYTE   Gn2
 BYTE   W06
 BYTE   As2
 BYTE   W06
 BYTE   Cn3
 BYTE   W06
 BYTE   Fn3
 BYTE   W06
 BYTE   Gn3
 BYTE   W06
 BYTE   N05  As3
 BYTE   W06
 BYTE   Cn4
 BYTE   W06
 BYTE   Fn4
 BYTE   W06
 BYTE   N06  Gn4
 BYTE   W06
 BYTE   As4
 BYTE   W06
 BYTE   PEND 
//  #04 //016   ----------------------------------------
 BYTE   PATT
  POIN2 Label_010044EA
//  #04 //017   ----------------------------------------
 BYTE   PATT
  POIN2 Label_0100452B
//  #04 //018   ----------------------------------------
 BYTE   PATT
  POIN2 Label_0100454E
//  #04 //019   ----------------------------------------
 BYTE   PATT
  POIN2 Label_010044C7
//  #04 //020   ----------------------------------------
 BYTE   PATT
  POIN2 Label_010044EA
//  #04 //021   ----------------------------------------
 BYTE   W96
//  #04 //022   ----------------------------------------
 BYTE   W96
//  #04 //023   ----------------------------------------
 BYTE   W96
//  #04 //024   ----------------------------------------
 BYTE   W96
//  #04 //025   ----------------------------------------
 BYTE   W96
//  #04 //026   ----------------------------------------
 BYTE   W96
//  #04 //027   ----------------------------------------
 BYTE   W96
//  #04 //028   ----------------------------------------
 BYTE   W96
//  #04 //029   ----------------------------------------
 BYTE   W96
//  #04 //030   ----------------------------------------
 BYTE   W96
//  #04 //031   ----------------------------------------
 BYTE   W96
//  #04 //032   ----------------------------------------
 BYTE   W96
//  #04 //033   ----------------------------------------
 BYTE   W96
//  #04 //034   ----------------------------------------
 BYTE   W96
//  #04 //035   ----------------------------------------
 BYTE   W96
//  #04 //036   ----------------------------------------
 BYTE   W96
//  #04 //037   ----------------------------------------
 BYTE   GoTo
  POIN2 Label_010044C7
//  #04 //038   ----------------------------------------
 BYTE   PATT
  POIN2 Label_010044C7
//  #04 //039   ----------------------------------------
 BYTE   PATT
  POIN2 Label_010044EA
//  #04 //040   ----------------------------------------
 BYTE   PATT
  POIN2 Label_010044C7
//  #04 //041   ----------------------------------------
 BYTE   PATT
  POIN2 Label_010044EA
//  #04 //042   ----------------------------------------
 BYTE   PATT
  POIN2 Label_010044C7
//  #04 //043   ----------------------------------------
 BYTE   PATT
  POIN2 Label_010044EA
//  #04 //044   ----------------------------------------
 BYTE   PATT
  POIN2 Label_010044C7
//  #04 //045   ----------------------------------------
 BYTE   PATT
  POIN2 Label_010044EA
//  #04 //046   ----------------------------------------
 BYTE   PATT
  POIN2 Label_0100452B
//  #04 //047   ----------------------------------------
 BYTE   PATT
  POIN2 Label_0100454E
//  #04 //048   ----------------------------------------
 BYTE   PATT
  POIN2 Label_010044C7
//  #04 //049   ----------------------------------------
 BYTE   PATT
  POIN2 Label_010044EA
//  #04 //050   ----------------------------------------
 BYTE   PATT
  POIN2 Label_010044C7
//  #04 //051   ----------------------------------------
 BYTE   PATT
  POIN2 Label_010044EA
//  #04 //052   ----------------------------------------
 BYTE   PATT
  POIN2 Label_01004585
//  #04 //053   ----------------------------------------
 BYTE   PATT
  POIN2 Label_010044EA
//  #04 //054   ----------------------------------------
 BYTE   PATT
  POIN2 Label_0100452B
//  #04 //055   ----------------------------------------
 BYTE   PATT
  POIN2 Label_0100454E
//  #04 //056   ----------------------------------------
 BYTE   PATT
  POIN2 Label_010044C7
//  #04 //057   ----------------------------------------
 BYTE   PATT
  POIN2 Label_010044EA
//  #04 //058   ----------------------------------------
 BYTE   W96
//  #04 //059   ----------------------------------------
 BYTE   W96
//  #04 //060   ----------------------------------------
 BYTE   W96
//  #04 //061   ----------------------------------------
 BYTE   W96
//  #04 //062   ----------------------------------------
 BYTE   W96
//  #04 //063   ----------------------------------------
 BYTE   W96
//  #04 //064   ----------------------------------------
 BYTE   W96
//  #04 //065   ----------------------------------------
 BYTE   W96
//  #04 //066   ----------------------------------------
 BYTE   W96
//  #04 //067   ----------------------------------------
 BYTE   W96
//  #04 //068   ----------------------------------------
 BYTE   W96
//  #04 //069   ----------------------------------------
 BYTE   W96
//  #04 //070   ----------------------------------------
 BYTE   W96
//  #04 //071   ----------------------------------------
 BYTE   W96
//  #04 //072   ----------------------------------------
 BYTE   W96
//  #04 //073   ----------------------------------------
 BYTE   W96
//  #04 //074   ----------------------------------------
 BYTE   W10
 BYTE   FINE

//**************** Track 5 (Midi-Chn.4) ****************//

PirateMan_005:
//  #05 //000   ----------------------------------------
 BYTE   KEYSH   PirateMan_key+0
 BYTE   VOICE   34
 BYTE   VOL   35*PirateMan_mvl/mxv
 BYTE   W48
Label_01004667:
 BYTE   N12  Gs0  v100
 BYTE   W12
 BYTE   N12
 BYTE   W12
 BYTE   N12
 BYTE   W12
 BYTE   N12
 BYTE   W12
//  #05 //001   ----------------------------------------
 BYTE   N12
 BYTE   W12
 BYTE   N12
 BYTE   W12
 BYTE   N12
 BYTE   W12
 BYTE   N12
 BYTE   W12
 BYTE   PEND 
//  #05 //002   ----------------------------------------
 BYTE   PATT
  POIN2 Label_01004667
//  #05 //003   ----------------------------------------
Label_0100467F:
 BYTE   N12  As0  v100
 BYTE   W12
 BYTE   N12
 BYTE   W12
 BYTE   N12
 BYTE   W12
 BYTE   N12
 BYTE   W12
 BYTE   N12
 BYTE   W12
 BYTE   N12
 BYTE   W12
 BYTE   N12
 BYTE   W12
 BYTE   N12
 BYTE   W12
 BYTE   PEND 
//  #05 //004   ----------------------------------------
 BYTE   PATT
  POIN2 Label_0100467F
//  #05 //005   ----------------------------------------
 BYTE   PATT
  POIN2 Label_01004667
//  #05 //006   ----------------------------------------
 BYTE   PATT
  POIN2 Label_01004667
//  #05 //007   ----------------------------------------
 BYTE   PATT
  POIN2 Label_0100467F
//  #05 //008   ----------------------------------------
 BYTE   PATT
  POIN2 Label_0100467F
//  #05 //009   ----------------------------------------
Label_010046AB:
 BYTE   N12  Gn0  v100
 BYTE   W12
 BYTE   N12
 BYTE   W12
 BYTE   N12
 BYTE   W12
 BYTE   N12
 BYTE   W12
 BYTE   N12
 BYTE   W12
 BYTE   N12
 BYTE   W12
 BYTE   N12
 BYTE   W12
 BYTE   N12
 BYTE   W12
 BYTE   PEND 
//  #05 //010   ----------------------------------------
 BYTE   PATT
  POIN2 Label_010046AB
//  #05 //011   ----------------------------------------
Label_010046C3:
 BYTE   N12  Cn1  v100
 BYTE   W12
 BYTE   N12
 BYTE   W12
 BYTE   N12
 BYTE   W12
 BYTE   N12
 BYTE   W12
 BYTE   N12
 BYTE   W12
 BYTE   N12
 BYTE   W12
 BYTE   N12
 BYTE   W12
 BYTE   N12
 BYTE   W12
 BYTE   PEND 
//  #05 //012   ----------------------------------------
Label_010046D6:
 BYTE   N12  Cn1  v100
 BYTE   W12
 BYTE   N12
 BYTE   W12
 BYTE   N12
 BYTE   W12
 BYTE   N12
 BYTE   W12
 BYTE   N12
 BYTE   W12
 BYTE   N12
 BYTE   W12
 BYTE   As0
 BYTE   W12
 BYTE   N12
 BYTE   W12
 BYTE   PEND 
//  #05 //013   ----------------------------------------
 BYTE   PATT
  POIN2 Label_01004667
//  #05 //014   ----------------------------------------
 BYTE   PATT
  POIN2 Label_01004667
//  #05 //015   ----------------------------------------
 BYTE   PATT
  POIN2 Label_0100467F
//  #05 //016   ----------------------------------------
 BYTE   PATT
  POIN2 Label_0100467F
//  #05 //017   ----------------------------------------
 BYTE   PATT
  POIN2 Label_01004667
//  #05 //018   ----------------------------------------
 BYTE   PATT
  POIN2 Label_01004667
//  #05 //019   ----------------------------------------
 BYTE   PATT
  POIN2 Label_0100467F
//  #05 //020   ----------------------------------------
 BYTE   PATT
  POIN2 Label_0100467F
//  #05 //021   ----------------------------------------
 BYTE   PATT
  POIN2 Label_01004667
//  #05 //022   ----------------------------------------
 BYTE   PATT
  POIN2 Label_01004667
//  #05 //023   ----------------------------------------
 BYTE   PATT
  POIN2 Label_010046AB
//  #05 //024   ----------------------------------------
 BYTE   PATT
  POIN2 Label_010046AB
//  #05 //025   ----------------------------------------
Label_01004725:
 BYTE   N12  Fn0  v100
 BYTE   W12
 BYTE   N12
 BYTE   W12
 BYTE   N12
 BYTE   W12
 BYTE   N12
 BYTE   W12
 BYTE   N12
 BYTE   W12
 BYTE   N12
 BYTE   W12
 BYTE   N12
 BYTE   W12
 BYTE   N12
 BYTE   W12
 BYTE   PEND 
//  #05 //026   ----------------------------------------
 BYTE   PATT
  POIN2 Label_0100467F
//  #05 //027   ----------------------------------------
 BYTE   PATT
  POIN2 Label_0100467F
//  #05 //028   ----------------------------------------
Label_01004742:
 BYTE   N12  Cs0  v100
 BYTE   W12
 BYTE   N12
 BYTE   W12
 BYTE   N12
 BYTE   W12
 BYTE   N12
 BYTE   W12
 BYTE   Gn0
 BYTE   W12
 BYTE   N12
 BYTE   W12
 BYTE   N12
 BYTE   W12
 BYTE   N12
 BYTE   W12
 BYTE   PEND 
//  #05 //029   ----------------------------------------
 BYTE   PATT
  POIN2 Label_01004667
//  #05 //030   ----------------------------------------
 BYTE   PATT
  POIN2 Label_01004667
//  #05 //031   ----------------------------------------
 BYTE   PATT
  POIN2 Label_010046AB
//  #05 //032   ----------------------------------------
 BYTE   PATT
  POIN2 Label_010046AB
//  #05 //033   ----------------------------------------
 BYTE   PATT
  POIN2 Label_01004725
//  #05 //034   ----------------------------------------
Label_0100476E:
 BYTE   N12  Cs1  v100
 BYTE   W12
 BYTE   N12
 BYTE   W12
 BYTE   N12
 BYTE   W12
 BYTE   N12
 BYTE   W12
 BYTE   N12
 BYTE   W12
 BYTE   N12
 BYTE   W12
 BYTE   N12
 BYTE   W12
 BYTE   N12
 BYTE   W12
 BYTE   PEND 
//  #05 //035   ----------------------------------------
Label_01004781:
 BYTE   N12  Gn1  v100
 BYTE   W12
 BYTE   N12
 BYTE   W12
 BYTE   N12
 BYTE   W12
 BYTE   N12
 BYTE   W12
 BYTE   N12
 BYTE   W12
 BYTE   N12
 BYTE   W12
 BYTE   N12
 BYTE   W12
 BYTE   N12
 BYTE   W12
 BYTE   PEND 
//  #05 //036   ----------------------------------------
 BYTE   PATT
  POIN2 Label_01004781
//  #05 //037   ----------------------------------------
 BYTE   GoTo
  POIN2 Label_01004667
//  #05 //038   ----------------------------------------
 BYTE   PATT
  POIN2 Label_01004667
//  #05 //039   ----------------------------------------
 BYTE   PATT
  POIN2 Label_01004667
//  #05 //040   ----------------------------------------
 BYTE   PATT
  POIN2 Label_0100467F
//  #05 //041   ----------------------------------------
 BYTE   PATT
  POIN2 Label_0100467F
//  #05 //042   ----------------------------------------
 BYTE   PATT
  POIN2 Label_01004667
//  #05 //043   ----------------------------------------
 BYTE   PATT
  POIN2 Label_01004667
//  #05 //044   ----------------------------------------
 BYTE   PATT
  POIN2 Label_0100467F
//  #05 //045   ----------------------------------------
 BYTE   PATT
  POIN2 Label_0100467F
//  #05 //046   ----------------------------------------
 BYTE   PATT
  POIN2 Label_010046AB
//  #05 //047   ----------------------------------------
 BYTE   PATT
  POIN2 Label_010046AB
//  #05 //048   ----------------------------------------
 BYTE   PATT
  POIN2 Label_010046C3
//  #05 //049   ----------------------------------------
 BYTE   PATT
  POIN2 Label_010046D6
//  #05 //050   ----------------------------------------
 BYTE   PATT
  POIN2 Label_01004667
//  #05 //051   ----------------------------------------
 BYTE   PATT
  POIN2 Label_01004667
//  #05 //052   ----------------------------------------
 BYTE   PATT
  POIN2 Label_0100467F
//  #05 //053   ----------------------------------------
 BYTE   PATT
  POIN2 Label_0100467F
//  #05 //054   ----------------------------------------
 BYTE   PATT
  POIN2 Label_01004667
//  #05 //055   ----------------------------------------
 BYTE   PATT
  POIN2 Label_01004667
//  #05 //056   ----------------------------------------
 BYTE   PATT
  POIN2 Label_0100467F
//  #05 //057   ----------------------------------------
 BYTE   PATT
  POIN2 Label_0100467F
//  #05 //058   ----------------------------------------
 BYTE   PATT
  POIN2 Label_01004667
//  #05 //059   ----------------------------------------
 BYTE   PATT
  POIN2 Label_01004667
//  #05 //060   ----------------------------------------
 BYTE   PATT
  POIN2 Label_010046AB
//  #05 //061   ----------------------------------------
 BYTE   PATT
  POIN2 Label_010046AB
//  #05 //062   ----------------------------------------
 BYTE   PATT
  POIN2 Label_01004725
//  #05 //063   ----------------------------------------
 BYTE   PATT
  POIN2 Label_0100467F
//  #05 //064   ----------------------------------------
 BYTE   PATT
  POIN2 Label_0100467F
//  #05 //065   ----------------------------------------
 BYTE   PATT
  POIN2 Label_01004742
//  #05 //066   ----------------------------------------
 BYTE   PATT
  POIN2 Label_01004667
//  #05 //067   ----------------------------------------
 BYTE   PATT
  POIN2 Label_01004667
//  #05 //068   ----------------------------------------
 BYTE   PATT
  POIN2 Label_010046AB
//  #05 //069   ----------------------------------------
 BYTE   PATT
  POIN2 Label_010046AB
//  #05 //070   ----------------------------------------
 BYTE   PATT
  POIN2 Label_01004725
//  #05 //071   ----------------------------------------
 BYTE   PATT
  POIN2 Label_0100476E
//  #05 //072   ----------------------------------------
 BYTE   PATT
  POIN2 Label_01004781
//  #05 //073   ----------------------------------------
 BYTE   PATT
  POIN2 Label_01004781
//  #05 //074   ----------------------------------------
 BYTE   W10
 BYTE   FINE

//**************** Track 6 (Midi-Chn.5) ****************//

PirateMan_006:
//  #06 //000   ----------------------------------------
 BYTE   KEYSH   PirateMan_key+0
 BYTE   VOICE   4
 BYTE   VOL   39*PirateMan_mvl/mxv
 BYTE   W48
Label_0100486F:
 BYTE   W96
//  #06 //001   ----------------------------------------
 BYTE   W96
//  #06 //002   ----------------------------------------
 BYTE   W96
//  #06 //003   ----------------------------------------
Label_01004872:
 BYTE   W84
 BYTE   N04  Gn3  v100
 BYTE   W04
 BYTE   Ds3
 BYTE   W04
 BYTE   Cn3
 BYTE   W04
 BYTE   PEND 
//  #06 //004   ----------------------------------------
 BYTE   N96  Gn2
 BYTE   N96  Ds3
 BYTE   W96
//  #06 //005   ----------------------------------------
Label_01004881:
 BYTE   N60  Cn3  v100
 BYTE   N60  Ds3
 BYTE   W60
 BYTE   N36
 BYTE   N36  Gn3
 BYTE   W36
 BYTE   PEND 
//  #06 //006   ----------------------------------------
 BYTE   N96  Dn3
 BYTE   N96  Fn3
 BYTE   W96
//  #06 //007   ----------------------------------------
Label_01004891:
 BYTE   N60  As2  v100
 BYTE   N60  Dn3
 BYTE   W60
 BYTE   N36
 BYTE   N36  Fn3
 BYTE   W36
 BYTE   PEND 
//  #06 //008   ----------------------------------------
 BYTE   N96  Dn3
 BYTE   N96  Fn3
 BYTE   W96
//  #06 //009   ----------------------------------------
 BYTE   PATT
  POIN2 Label_01004891
//  #06 //010   ----------------------------------------
Label_010048A6:
 BYTE   N60  Cn3  v100
 BYTE   N60  Fn3
 BYTE   W60
 BYTE   N36  Cn3
 BYTE   N36  Fn3
 BYTE   W36
 BYTE   PEND 
//  #06 //011   ----------------------------------------
Label_010048B2:
 BYTE   N72  Cn3  v100
 BYTE   N72  Ds3
 BYTE   W72
 BYTE   N36  Dn3
 BYTE   N36  Fn3
 BYTE   W24
 BYTE   PEND 
//  #06 //012   ----------------------------------------
 BYTE   N96  Ds3
 BYTE   N96  Gn3
 BYTE   W96
//  #06 //013   ----------------------------------------
 BYTE   PATT
  POIN2 Label_01004881
//  #06 //014   ----------------------------------------
 BYTE   N96  Dn3  v100
 BYTE   N96  Fn3
 BYTE   W96
//  #06 //015   ----------------------------------------
 BYTE   PATT
  POIN2 Label_01004891
//  #06 //016   ----------------------------------------
 BYTE   N96  Dn3  v100
 BYTE   N96  Fn3
 BYTE   W96
//  #06 //017   ----------------------------------------
 BYTE   PATT
  POIN2 Label_01004891
//  #06 //018   ----------------------------------------
 BYTE   N96  Cn3  v100
 BYTE   N96  Fn3
 BYTE   W96
//  #06 //019   ----------------------------------------
Label_010048E4:
 BYTE   N60  Cn3  v100
 BYTE   N60  Ds3
 BYTE   W60
 BYTE   N36  As2
 BYTE   N36  Dn3
 BYTE   W36
 BYTE   PEND 
//  #06 //020   ----------------------------------------
 BYTE   N96  Cn3
 BYTE   N96  Ds3
 BYTE   W96
//  #06 //021   ----------------------------------------
Label_010048F5:
 BYTE   N48  Gn2  v100
 BYTE   N48  Cn3
 BYTE   W48
 BYTE   Gn2
 BYTE   N48  Ds3
 BYTE   W48
 BYTE   PEND 
//  #06 //022   ----------------------------------------
 BYTE   N96  Dn3
 BYTE   N96  Fn3
 BYTE   W96
//  #06 //023   ----------------------------------------
Label_01004905:
 BYTE   N60  As2  v100
 BYTE   N60  Fn3
 BYTE   W60
 BYTE   N24  Dn3
 BYTE   N24  Fn3
 BYTE   W36
 BYTE   PEND 
//  #06 //024   ----------------------------------------
 BYTE   N96  Gn2
 BYTE   N96  Cn3
 BYTE   W96
//  #06 //025   ----------------------------------------
Label_01004916:
 BYTE   N48  As2  v100
 BYTE   N48  Fn3
 BYTE   W48
 BYTE   Dn3
 BYTE   N48  Fn3
 BYTE   W48
 BYTE   PEND 
//  #06 //026   ----------------------------------------
Label_01004921:
 BYTE   N48  Cn3  v100
 BYTE   N48  Gs3
 BYTE   W48
 BYTE   Ds3
 BYTE   N48  Gs3
 BYTE   W48
 BYTE   PEND 
//  #06 //027   ----------------------------------------
Label_0100492C:
 BYTE   N48  Cn3  v100
 BYTE   N48  Fn3
 BYTE   W48
 BYTE   Dn3
 BYTE   N48  Fn3
 BYTE   W48
 BYTE   PEND 
//  #06 //028   ----------------------------------------
Label_01004937:
 BYTE   N60  Fn3  v100
 BYTE   N60  Gs3
 BYTE   W84
 BYTE   N04  Cn3
 BYTE   W04
 BYTE   Gs3
 BYTE   W04
 BYTE   Fn3
 BYTE   W04
 BYTE   PEND 
//  #06 //029   ----------------------------------------
Label_01004945:
 BYTE   N60  Cs3  v100
 BYTE   N60  Fn3
 BYTE   W60
 BYTE   N36  Cs3
 BYTE   N36  Fn3
 BYTE   W36
 BYTE   PEND 
//  #06 //030   ----------------------------------------
Label_01004951:
 BYTE   N24  Cn3  v100
 BYTE   N24  Gs3
 BYTE   W36
 BYTE   Dn3
 BYTE   N24  Fn3
 BYTE   W24
 BYTE   N28  Dn3
 BYTE   N28  Fn3
 BYTE   W28
 BYTE   N04  En3
 BYTE   W04
 BYTE   Ds3
 BYTE   W04
 BYTE   PEND 
//  #06 //031   ----------------------------------------
Label_01004966:
 BYTE   N96  As2  v100
 BYTE   N60  Dn3
 BYTE   W60
 BYTE   N36
 BYTE   N36  Fn3
 BYTE   W36
 BYTE   PEND 
//  #06 //032   ----------------------------------------
Label_01004971:
 BYTE   N36  Gn2  v100
 BYTE   N36  Cn3
 BYTE   W36
 BYTE   N36
 BYTE   N36  Ds3
 BYTE   W36
 BYTE   N24  Gs2
 BYTE   N24  Cn3
 BYTE   W24
 BYTE   PEND 
//  #06 //033   ----------------------------------------
Label_01004981:
 BYTE   N48  Cn3  v100
 BYTE   N48  Fn3
 BYTE   W48
 BYTE   N18  Cn3
 BYTE   N18  Fn3
 BYTE   W18
 BYTE   Gs2
 BYTE   N18  Dn3
 BYTE   W18
 BYTE   N12  Cn3
 BYTE   N12  Ds3
 BYTE   W12
 BYTE   PEND 
//  #06 //034   ----------------------------------------
Label_01004996:
 BYTE   N24  Dn3  v100
 BYTE   N24  Fn3
 BYTE   W48
 BYTE   N18
 BYTE   W18
 BYTE   Dn3
 BYTE   W18
 BYTE   N12  Cn3
 BYTE   W12
 BYTE   PEND 
//  #06 //035   ----------------------------------------
Label_010049A4:
 BYTE   N48  Dn3  v100
 BYTE   N48  Fn3
 BYTE   W48
 BYTE   Bn2
 BYTE   N48  Dn3
 BYTE   W48
 BYTE   PEND 
//  #06 //036   ----------------------------------------
 BYTE   GoTo
  POIN2 Label_0100486F
//  #06 //037   ----------------------------------------
 BYTE   W96
//  #06 //038   ----------------------------------------
 BYTE   W96
//  #06 //039   ----------------------------------------
 BYTE   W96
//  #06 //040   ----------------------------------------
 BYTE   PATT
  POIN2 Label_01004872
//  #06 //041   ----------------------------------------
 BYTE   N96  Gn2  v100
 BYTE   N96  Ds3
 BYTE   W96
//  #06 //042   ----------------------------------------
 BYTE   PATT
  POIN2 Label_01004881
//  #06 //043   ----------------------------------------
 BYTE   N96  Dn3  v100
 BYTE   N96  Fn3
 BYTE   W96
//  #06 //044   ----------------------------------------
 BYTE   PATT
  POIN2 Label_01004891
//  #06 //045   ----------------------------------------
 BYTE   N96  Dn3  v100
 BYTE   N96  Fn3
 BYTE   W96
//  #06 //046   ----------------------------------------
 BYTE   PATT
  POIN2 Label_01004891
//  #06 //047   ----------------------------------------
 BYTE   PATT
  POIN2 Label_010048A6
//  #06 //048   ----------------------------------------
 BYTE   PATT
  POIN2 Label_010048B2
//  #06 //049   ----------------------------------------
 BYTE   N96  Ds3  v100
 BYTE   N96  Gn3
 BYTE   W96
//  #06 //050   ----------------------------------------
 BYTE   PATT
  POIN2 Label_01004881
//  #06 //051   ----------------------------------------
 BYTE   N96  Dn3  v100
 BYTE   N96  Fn3
 BYTE   W96
//  #06 //052   ----------------------------------------
 BYTE   PATT
  POIN2 Label_01004891
//  #06 //053   ----------------------------------------
 BYTE   N96  Dn3  v100
 BYTE   N96  Fn3
 BYTE   W96
//  #06 //054   ----------------------------------------
 BYTE   PATT
  POIN2 Label_01004891
//  #06 //055   ----------------------------------------
 BYTE   N96  Cn3  v100
 BYTE   N96  Fn3
 BYTE   W96
//  #06 //056   ----------------------------------------
 BYTE   PATT
  POIN2 Label_010048E4
//  #06 //057   ----------------------------------------
 BYTE   N96  Cn3  v100
 BYTE   N96  Ds3
 BYTE   W96
//  #06 //058   ----------------------------------------
 BYTE   PATT
  POIN2 Label_010048F5
//  #06 //059   ----------------------------------------
 BYTE   N96  Dn3  v100
 BYTE   N96  Fn3
 BYTE   W96
//  #06 //060   ----------------------------------------
 BYTE   PATT
  POIN2 Label_01004905
//  #06 //061   ----------------------------------------
 BYTE   N96  Gn2  v100
 BYTE   N96  Cn3
 BYTE   W96
//  #06 //062   ----------------------------------------
 BYTE   PATT
  POIN2 Label_01004916
//  #06 //063   ----------------------------------------
 BYTE   PATT
  POIN2 Label_01004921
//  #06 //064   ----------------------------------------
 BYTE   PATT
  POIN2 Label_0100492C
//  #06 //065   ----------------------------------------
 BYTE   PATT
  POIN2 Label_01004937
//  #06 //066   ----------------------------------------
 BYTE   PATT
  POIN2 Label_01004945
//  #06 //067   ----------------------------------------
 BYTE   PATT
  POIN2 Label_01004951
//  #06 //068   ----------------------------------------
 BYTE   PATT
  POIN2 Label_01004966
//  #06 //069   ----------------------------------------
 BYTE   PATT
  POIN2 Label_01004971
//  #06 //070   ----------------------------------------
 BYTE   PATT
  POIN2 Label_01004981
//  #06 //071   ----------------------------------------
 BYTE   PATT
  POIN2 Label_01004996
//  #06 //072   ----------------------------------------
 BYTE   PATT
  POIN2 Label_010049A4
//  #06 //073   ----------------------------------------
 BYTE   W10
 BYTE   FINE

//**************** Track 7 (Midi-Chn.6) ****************//

PirateMan_007:
//  #07 //000   ----------------------------------------
 BYTE   KEYSH   PirateMan_key+0
 BYTE   VOICE   124
 BYTE   VOL   37*PirateMan_mvl/mxv
 BYTE   N06  En1  v100
 BYTE   W06
 BYTE   N06
 BYTE   W06
 BYTE   N07
 BYTE   W06
 BYTE   Bn1
 BYTE   W12
 BYTE   N06
 BYTE   W06
 BYTE   N06
 BYTE   W06
 BYTE   N06
 BYTE   W06
Label_01004A92:
 BYTE   N14  Cn1  v100
 BYTE   W24
 BYTE   N16  En1  v092
 BYTE   W18
 BYTE   N08  Cn1
 BYTE   W12
//  #07 //001   ----------------------------------------
 BYTE   N06
 BYTE   W06
 BYTE   N04
 BYTE   W12
 BYTE   En1
 BYTE   W24
Label_01004AA3:
 BYTE   N14  Cn1  v092
 BYTE   W24
 BYTE   N16  En1
 BYTE   W18
 BYTE   N08  Cn1
 BYTE   W12
//  #07 //002   ----------------------------------------
 BYTE   N06
 BYTE   W06
 BYTE   N04
 BYTE   W12
 BYTE   En1
 BYTE   W24
 BYTE   PEND 
//  #07 //003   ----------------------------------------
 BYTE   PATT
  POIN2 Label_01004AA3
//  #07 //004   ----------------------------------------
Label_01004AB9:
 BYTE   N12  En1  v092
 BYTE   W06
 BYTE   N08  Cn1
 BYTE   W06
 BYTE   N02  En1
 BYTE   W12
 BYTE   N04
 BYTE   W12
 BYTE   N12  Cn1
 BYTE   W12
 BYTE   N04
 BYTE   W06
 BYTE   N04
 BYTE   W06
 BYTE   N04
 BYTE   W06
 BYTE   En1
 BYTE   W06
 BYTE   N04
 BYTE   W06
 BYTE   N04
 BYTE   W06
 BYTE   N08  Bn1
 BYTE   W12
 BYTE   PEND 
//  #07 //005   ----------------------------------------
 BYTE   PATT
  POIN2 Label_01004AA3
//  #07 //006   ----------------------------------------
 BYTE   PATT
  POIN2 Label_01004AA3
//  #07 //007   ----------------------------------------
 BYTE   PATT
  POIN2 Label_01004AA3
//  #07 //008   ----------------------------------------
 BYTE   PATT
  POIN2 Label_01004AB9
//  #07 //009   ----------------------------------------
 BYTE   PATT
  POIN2 Label_01004AA3
//  #07 //010   ----------------------------------------
 BYTE   PATT
  POIN2 Label_01004AA3
//  #07 //011   ----------------------------------------
 BYTE   PATT
  POIN2 Label_01004AA3
//  #07 //012   ----------------------------------------
 BYTE   PATT
  POIN2 Label_01004AB9
//  #07 //013   ----------------------------------------
 BYTE   PATT
  POIN2 Label_01004AA3
//  #07 //014   ----------------------------------------
 BYTE   PATT
  POIN2 Label_01004AA3
//  #07 //015   ----------------------------------------
 BYTE   PATT
  POIN2 Label_01004AA3
//  #07 //016   ----------------------------------------
 BYTE   PATT
  POIN2 Label_01004AA3
//  #07 //017   ----------------------------------------
Label_01004B14:
 BYTE   N12  En1  v092
 BYTE   W06
 BYTE   N08  Cn1
 BYTE   W06
 BYTE   N02  En1
 BYTE   W12
 BYTE   N04
 BYTE   W18
 BYTE   N08  Cn1
 BYTE   W12
 BYTE   N06
 BYTE   W06
 BYTE   N04
 BYTE   W12
 BYTE   En1
 BYTE   W24
 BYTE   PEND 
//  #07 //018   ----------------------------------------
 BYTE   PATT
  POIN2 Label_01004AB9
//  #07 //019   ----------------------------------------
 BYTE   PATT
  POIN2 Label_01004AA3
//  #07 //020   ----------------------------------------
Label_01004B34:
 BYTE   N14  Cn1  v092
 BYTE   W24
 BYTE   N16  En1
 BYTE   W18
 BYTE   N08  Cn1
 BYTE   W12
 BYTE   N06
 BYTE   W06
 BYTE   N04
 BYTE   W12
 BYTE   En1
 BYTE   W06
 BYTE   N04
 BYTE   W06
 BYTE   N04
 BYTE   W06
 BYTE   N04
 BYTE   W06
 BYTE   PEND 
//  #07 //021   ----------------------------------------
 BYTE   PATT
  POIN2 Label_01004AA3
//  #07 //022   ----------------------------------------
Label_01004B50:
 BYTE   N12  En1  v092
 BYTE   W12
 BYTE   N02
 BYTE   W12
 BYTE   N04
 BYTE   W18
 BYTE   N08  Cn1
 BYTE   W12
 BYTE   N06
 BYTE   W06
 BYTE   N04
 BYTE   W12
 BYTE   En1
 BYTE   W24
 BYTE   PEND 
//  #07 //023   ----------------------------------------
Label_01004B62:
 BYTE   N14  Cn1  v092
 BYTE   W24
 BYTE   N16  En1
 BYTE   W18
 BYTE   N08  Cn1
 BYTE   W12
 BYTE   N06
 BYTE   W06
 BYTE   N04
 BYTE   W12
 BYTE   En1
 BYTE   W18
 BYTE   N04
 BYTE   W06
 BYTE   PEND 
//  #07 //024   ----------------------------------------
 BYTE   PATT
  POIN2 Label_01004B62
//  #07 //025   ----------------------------------------
 BYTE   PATT
  POIN2 Label_01004B62
//  #07 //026   ----------------------------------------
 BYTE   PATT
  POIN2 Label_01004AA3
//  #07 //027   ----------------------------------------
 BYTE   PATT
  POIN2 Label_01004AA3
//  #07 //028   ----------------------------------------
 BYTE   PATT
  POIN2 Label_01004AB9
//  #07 //029   ----------------------------------------
 BYTE   PATT
  POIN2 Label_01004AA3
//  #07 //030   ----------------------------------------
 BYTE   PATT
  POIN2 Label_01004B50
//  #07 //031   ----------------------------------------
 BYTE   PATT
  POIN2 Label_01004B62
//  #07 //032   ----------------------------------------
 BYTE   PATT
  POIN2 Label_01004B62
//  #07 //033   ----------------------------------------
 BYTE   PATT
  POIN2 Label_01004B62
//  #07 //034   ----------------------------------------
 BYTE   PATT
  POIN2 Label_01004AA3
//  #07 //035   ----------------------------------------
 BYTE   PATT
  POIN2 Label_01004AA3
//  #07 //036   ----------------------------------------
Label_01004BB1:
 BYTE   N12  En1  v092
 BYTE   W06
 BYTE   N08  Cn1
 BYTE   W06
 BYTE   N02  En1
 BYTE   W12
 BYTE   N04
 BYTE   W12
 BYTE   N12  Cn1
 BYTE   W12
 BYTE   N04
 BYTE   W06
 BYTE   N04
 BYTE   W06
 BYTE   N04
 BYTE   W06
 BYTE   En1
 BYTE   W06
 BYTE   N04
 BYTE   W06
 BYTE   N04
 BYTE   W06
 BYTE   N08  Gn1
 BYTE   W12
 BYTE   PEND 
//  #07 //037   ----------------------------------------
 BYTE   GoTo
  POIN2 Label_01004A92
//  #07 //038   ----------------------------------------
 BYTE   PATT
  POIN2 Label_01004AA3
//  #07 //039   ----------------------------------------
 BYTE   PATT
  POIN2 Label_01004AA3
//  #07 //040   ----------------------------------------
 BYTE   PATT
  POIN2 Label_01004AA3
//  #07 //041   ----------------------------------------
 BYTE   PATT
  POIN2 Label_01004AB9
//  #07 //042   ----------------------------------------
 BYTE   PATT
  POIN2 Label_01004AA3
//  #07 //043   ----------------------------------------
 BYTE   PATT
  POIN2 Label_01004AA3
//  #07 //044   ----------------------------------------
 BYTE   PATT
  POIN2 Label_01004AA3
//  #07 //045   ----------------------------------------
 BYTE   PATT
  POIN2 Label_01004AB9
//  #07 //046   ----------------------------------------
 BYTE   PATT
  POIN2 Label_01004AA3
//  #07 //047   ----------------------------------------
 BYTE   PATT
  POIN2 Label_01004AA3
//  #07 //048   ----------------------------------------
 BYTE   PATT
  POIN2 Label_01004AA3
//  #07 //049   ----------------------------------------
 BYTE   PATT
  POIN2 Label_01004AB9
//  #07 //050   ----------------------------------------
 BYTE   PATT
  POIN2 Label_01004AA3
//  #07 //051   ----------------------------------------
 BYTE   PATT
  POIN2 Label_01004AA3
//  #07 //052   ----------------------------------------
 BYTE   PATT
  POIN2 Label_01004AA3
//  #07 //053   ----------------------------------------
 BYTE   PATT
  POIN2 Label_01004AA3
//  #07 //054   ----------------------------------------
 BYTE   PATT
  POIN2 Label_01004B14
//  #07 //055   ----------------------------------------
 BYTE   PATT
  POIN2 Label_01004AB9
//  #07 //056   ----------------------------------------
 BYTE   PATT
  POIN2 Label_01004AA3
//  #07 //057   ----------------------------------------
 BYTE   PATT
  POIN2 Label_01004B34
//  #07 //058   ----------------------------------------
 BYTE   PATT
  POIN2 Label_01004AA3
//  #07 //059   ----------------------------------------
 BYTE   PATT
  POIN2 Label_01004B50
//  #07 //060   ----------------------------------------
 BYTE   PATT
  POIN2 Label_01004B62
//  #07 //061   ----------------------------------------
 BYTE   PATT
  POIN2 Label_01004B62
//  #07 //062   ----------------------------------------
 BYTE   PATT
  POIN2 Label_01004B62
//  #07 //063   ----------------------------------------
 BYTE   PATT
  POIN2 Label_01004AA3
//  #07 //064   ----------------------------------------
 BYTE   PATT
  POIN2 Label_01004AA3
//  #07 //065   ----------------------------------------
 BYTE   PATT
  POIN2 Label_01004AB9
//  #07 //066   ----------------------------------------
 BYTE   PATT
  POIN2 Label_01004AA3
//  #07 //067   ----------------------------------------
 BYTE   PATT
  POIN2 Label_01004B50
//  #07 //068   ----------------------------------------
 BYTE   PATT
  POIN2 Label_01004B62
//  #07 //069   ----------------------------------------
 BYTE   PATT
  POIN2 Label_01004B62
//  #07 //070   ----------------------------------------
 BYTE   PATT
  POIN2 Label_01004B62
//  #07 //071   ----------------------------------------
 BYTE   PATT
  POIN2 Label_01004AA3
//  #07 //072   ----------------------------------------
 BYTE   PATT
  POIN2 Label_01004AA3
//  #07 //073   ----------------------------------------
 BYTE   PATT
  POIN2 Label_01004BB1
//  #07 //074   ----------------------------------------
 BYTE   W10
 BYTE   FINE

//**************** Track 8 (Midi-Chn.7) ****************//

PirateMan_008:
//  #08 //000   ----------------------------------------
 BYTE   KEYSH   PirateMan_key+0
 BYTE   VOICE   124
 BYTE   VOL   37*PirateMan_mvl/mxv
 BYTE   W48
Label_01004CA3:
 BYTE   N16  An2  v100
 BYTE   W24
 BYTE   N08  Fs1
 BYTE   W12
 BYTE   N04
 BYTE   W12
//  #08 //001   ----------------------------------------
 BYTE   N04
 BYTE   W12
 BYTE   N04
 BYTE   W12
 BYTE   N04
 BYTE   W12
 BYTE   N04
 BYTE   W12
 BYTE   PEND 
Label_01004CB5:
 BYTE   N04  Fs1  v100
 BYTE   W12
 BYTE   N08
 BYTE   W12
 BYTE   N04
 BYTE   W12
 BYTE   N04
 BYTE   W12
//  #08 //002   ----------------------------------------
 BYTE   N04
 BYTE   W12
 BYTE   N04
 BYTE   W12
 BYTE   N04
 BYTE   W12
 BYTE   N04
 BYTE   W12
 BYTE   PEND 
//  #08 //003   ----------------------------------------
 BYTE   PATT
  POIN2 Label_01004CB5
//  #08 //004   ----------------------------------------
 BYTE   PATT
  POIN2 Label_01004CB5
//  #08 //005   ----------------------------------------
 BYTE   PATT
  POIN2 Label_01004CA3
//  #08 //006   ----------------------------------------
 BYTE   PATT
  POIN2 Label_01004CB5
//  #08 //007   ----------------------------------------
 BYTE   PATT
  POIN2 Label_01004CB5
//  #08 //008   ----------------------------------------
 BYTE   PATT
  POIN2 Label_01004CB5
//  #08 //009   ----------------------------------------
 BYTE   PATT
  POIN2 Label_01004CA3
//  #08 //010   ----------------------------------------
 BYTE   PATT
  POIN2 Label_01004CB5
//  #08 //011   ----------------------------------------
 BYTE   PATT
  POIN2 Label_01004CB5
//  #08 //012   ----------------------------------------
 BYTE   PATT
  POIN2 Label_01004CB5
//  #08 //013   ----------------------------------------
 BYTE   PATT
  POIN2 Label_01004CA3
//  #08 //014   ----------------------------------------
 BYTE   PATT
  POIN2 Label_01004CB5
//  #08 //015   ----------------------------------------
 BYTE   PATT
  POIN2 Label_01004CB5
//  #08 //016   ----------------------------------------
 BYTE   PATT
  POIN2 Label_01004CB5
//  #08 //017   ----------------------------------------
 BYTE   PATT
  POIN2 Label_01004CA3
//  #08 //018   ----------------------------------------
 BYTE   PATT
  POIN2 Label_01004CB5
//  #08 //019   ----------------------------------------
 BYTE   PATT
  POIN2 Label_01004CB5
//  #08 //020   ----------------------------------------
 BYTE   PATT
  POIN2 Label_01004CB5
//  #08 //021   ----------------------------------------
 BYTE   PATT
  POIN2 Label_01004CA3
//  #08 //022   ----------------------------------------
 BYTE   PATT
  POIN2 Label_01004CB5
//  #08 //023   ----------------------------------------
 BYTE   PATT
  POIN2 Label_01004CB5
//  #08 //024   ----------------------------------------
 BYTE   PATT
  POIN2 Label_01004CB5
//  #08 //025   ----------------------------------------
 BYTE   PATT
  POIN2 Label_01004CB5
//  #08 //026   ----------------------------------------
 BYTE   PATT
  POIN2 Label_01004CB5
//  #08 //027   ----------------------------------------
 BYTE   PATT
  POIN2 Label_01004CB5
//  #08 //028   ----------------------------------------
 BYTE   PATT
  POIN2 Label_01004CB5
//  #08 //029   ----------------------------------------
 BYTE   PATT
  POIN2 Label_01004CA3
//  #08 //030   ----------------------------------------
 BYTE   PATT
  POIN2 Label_01004CB5
//  #08 //031   ----------------------------------------
 BYTE   PATT
  POIN2 Label_01004CB5
//  #08 //032   ----------------------------------------
 BYTE   PATT
  POIN2 Label_01004CB5
//  #08 //033   ----------------------------------------
 BYTE   PATT
  POIN2 Label_01004CB5
//  #08 //034   ----------------------------------------
 BYTE   PATT
  POIN2 Label_01004CB5
//  #08 //035   ----------------------------------------
 BYTE   PATT
  POIN2 Label_01004CB5
//  #08 //036   ----------------------------------------
 BYTE   PATT
  POIN2 Label_01004CB5
//  #08 //037   ----------------------------------------
 BYTE   GoTo
  POIN2 Label_01004CA3
//  #08 //038   ----------------------------------------
 BYTE   PATT
  POIN2 Label_01004CA3
//  #08 //039   ----------------------------------------
 BYTE   PATT
  POIN2 Label_01004CB5
//  #08 //040   ----------------------------------------
 BYTE   PATT
  POIN2 Label_01004CB5
//  #08 //041   ----------------------------------------
 BYTE   PATT
  POIN2 Label_01004CB5
//  #08 //042   ----------------------------------------
 BYTE   PATT
  POIN2 Label_01004CA3
//  #08 //043   ----------------------------------------
 BYTE   PATT
  POIN2 Label_01004CB5
//  #08 //044   ----------------------------------------
 BYTE   PATT
  POIN2 Label_01004CB5
//  #08 //045   ----------------------------------------
 BYTE   PATT
  POIN2 Label_01004CB5
//  #08 //046   ----------------------------------------
 BYTE   PATT
  POIN2 Label_01004CA3
//  #08 //047   ----------------------------------------
 BYTE   PATT
  POIN2 Label_01004CB5
//  #08 //048   ----------------------------------------
 BYTE   PATT
  POIN2 Label_01004CB5
//  #08 //049   ----------------------------------------
 BYTE   PATT
  POIN2 Label_01004CB5
//  #08 //050   ----------------------------------------
 BYTE   PATT
  POIN2 Label_01004CA3
//  #08 //051   ----------------------------------------
 BYTE   PATT
  POIN2 Label_01004CB5
//  #08 //052   ----------------------------------------
 BYTE   PATT
  POIN2 Label_01004CB5
//  #08 //053   ----------------------------------------
 BYTE   PATT
  POIN2 Label_01004CB5
//  #08 //054   ----------------------------------------
 BYTE   PATT
  POIN2 Label_01004CA3
//  #08 //055   ----------------------------------------
 BYTE   PATT
  POIN2 Label_01004CB5
//  #08 //056   ----------------------------------------
 BYTE   PATT
  POIN2 Label_01004CB5
//  #08 //057   ----------------------------------------
 BYTE   PATT
  POIN2 Label_01004CB5
//  #08 //058   ----------------------------------------
 BYTE   PATT
  POIN2 Label_01004CA3
//  #08 //059   ----------------------------------------
 BYTE   PATT
  POIN2 Label_01004CB5
//  #08 //060   ----------------------------------------
 BYTE   PATT
  POIN2 Label_01004CB5
//  #08 //061   ----------------------------------------
 BYTE   PATT
  POIN2 Label_01004CB5
//  #08 //062   ----------------------------------------
 BYTE   PATT
  POIN2 Label_01004CB5
//  #08 //063   ----------------------------------------
 BYTE   PATT
  POIN2 Label_01004CB5
//  #08 //064   ----------------------------------------
 BYTE   PATT
  POIN2 Label_01004CB5
//  #08 //065   ----------------------------------------
 BYTE   PATT
  POIN2 Label_01004CB5
//  #08 //066   ----------------------------------------
 BYTE   PATT
  POIN2 Label_01004CA3
//  #08 //067   ----------------------------------------
 BYTE   PATT
  POIN2 Label_01004CB5
//  #08 //068   ----------------------------------------
 BYTE   PATT
  POIN2 Label_01004CB5
//  #08 //069   ----------------------------------------
 BYTE   PATT
  POIN2 Label_01004CB5
//  #08 //070   ----------------------------------------
 BYTE   PATT
  POIN2 Label_01004CB5
//  #08 //071   ----------------------------------------
 BYTE   PATT
  POIN2 Label_01004CB5
//  #08 //072   ----------------------------------------
 BYTE   PATT
  POIN2 Label_01004CB5
//  #08 //073   ----------------------------------------
 BYTE   PATT
  POIN2 Label_01004CB5
//  #08 //074   ----------------------------------------
 BYTE   W10
 BYTE   FINE

//******************************************************//
	ALIGN 4

PirateMan:
	BYTE	8	// NumTrks
	BYTE	0	// NumBlks
	BYTE	PirateMan_pri	// Priority
	BYTE	PirateMan_rev	// Reverb.
    
	POIN2	PirateMan_grp
    
	POIN2	PirateMan_001
	POIN2	PirateMan_002
	POIN2	PirateMan_003
	POIN2	PirateMan_004
	POIN2	PirateMan_005
	POIN2	PirateMan_006
	POIN2	PirateMan_007
	POIN2	PirateMan_008

	
