	.include "MPlayDef.s"

	.equ	song04_grp, voicegroup000
	.equ	song04_pri, 0
	.equ	song04_rev, 0
	.equ	song04_mvl, 127
	.equ	song04_key, 0
	.equ	song04_tbs, 1
	.equ	song04_exg, 0
	.equ	song04_cmp, 1

	.section .rodata
	.global	song04
	.align	2


@**************** Track 1 (Midi-Chn.0) ****************@

song04_001:
@  #01 @000   ----------------------------------------
 .byte   VOL , 50*song04_mvl/mxv
 .byte   KEYSH , song04_key+0
Label_01964F40:
 .byte   TEMPO , 140*song04_tbs/2
 .byte   VOICE , 38
 .byte   N06 ,An1 ,v127
 .byte   W12
 .byte   N06
 .byte   W12
 .byte   Cn2
 .byte   W12
 .byte   N06
 .byte   W12
 .byte   An1
 .byte   W12
 .byte   N06
 .byte   W12
 .byte   Gn1
 .byte   W12
 .byte   N06
 .byte   W12
@  #01 @001   ----------------------------------------
Label_01964F56:
 .byte   N06 ,An1 ,v127
 .byte   W12
 .byte   N06
 .byte   W12
 .byte   N06
 .byte   W12
 .byte   N06
 .byte   W12
 .byte   N06
 .byte   W48
 .byte   PEND 
@  #01 @002   ----------------------------------------
 .byte   N06
 .byte   W12
 .byte   N06
 .byte   W12
 .byte   Cn2
 .byte   W12
 .byte   N06
 .byte   W12
 .byte   An1
 .byte   W12
 .byte   N06
 .byte   W12
 .byte   Gn1
 .byte   W12
 .byte   N06
 .byte   W12
@  #01 @003   ----------------------------------------
 .byte   PATT
  .word Label_01964F56
@  #01 @004   ----------------------------------------
 .byte   N06 ,En1 ,v127
 .byte   W12
 .byte   N06
 .byte   W12
 .byte   Gn1
 .byte   W12
 .byte   N06
 .byte   W12
 .byte   En1
 .byte   W12
 .byte   N06
 .byte   W12
 .byte   Dn1
 .byte   W12
 .byte   N06
 .byte   W12
@  #01 @005   ----------------------------------------
 .byte   En1
 .byte   W12
 .byte   N06
 .byte   W12
 .byte   N06
 .byte   W12
 .byte   N06
 .byte   W12
 .byte   N06
 .byte   W48
@  #01 @006   ----------------------------------------
 .byte   N06
 .byte   W12
 .byte   N06
 .byte   W12
 .byte   Gn1
 .byte   W12
 .byte   N06
 .byte   W12
 .byte   En1
 .byte   W12
 .byte   N06
 .byte   W12
 .byte   N12 ,Dn1
 .byte   W24
@  #01 @007   ----------------------------------------
 .byte   N06 ,En2
 .byte   W12
 .byte   N06
 .byte   W12
 .byte   N06
 .byte   W12
 .byte   N06
 .byte   W12
 .byte   N06
 .byte   W48
@  #01 @008   ----------------------------------------
 .byte   W96
@  #01 @009   ----------------------------------------
 .byte   W96
@  #01 @010   ----------------------------------------
 .byte   W96
@  #01 @011   ----------------------------------------
 .byte   W96
@  #01 @012   ----------------------------------------
 .byte   W96
@  #01 @013   ----------------------------------------
 .byte   W96
@  #01 @014   ----------------------------------------
 .byte   W96
@  #01 @015   ----------------------------------------
 .byte   W96
@  #01 @016   ----------------------------------------
Label_01964FB6:
 .byte   N06 ,An1 ,v127
 .byte   W12
 .byte   N06
 .byte   W12
 .byte   N06
 .byte   W12
 .byte   N06
 .byte   W12
 .byte   Cn2
 .byte   W12
 .byte   N06
 .byte   W12
 .byte   N06
 .byte   W12
 .byte   N06
 .byte   W12
 .byte   PEND 
@  #01 @017   ----------------------------------------
 .byte   PATT
  .word Label_01964FB6
@  #01 @018   ----------------------------------------
 .byte   PATT
  .word Label_01964FB6
@  #01 @019   ----------------------------------------
 .byte   N06 ,An1 ,v127
 .byte   W12
 .byte   N06
 .byte   W12
 .byte   N06
 .byte   W12
 .byte   N06
 .byte   W12
 .byte   En2
 .byte   W24
 .byte   N06
 .byte   W24
@  #01 @020   ----------------------------------------
Label_01964FE1:
 .byte   N06 ,En1 ,v127
 .byte   W12
 .byte   N06
 .byte   W12
 .byte   N06
 .byte   W12
 .byte   N06
 .byte   W12
 .byte   Bn1
 .byte   W12
 .byte   N06
 .byte   W12
 .byte   N06
 .byte   W12
 .byte   N06
 .byte   W12
 .byte   PEND 
@  #01 @021   ----------------------------------------
 .byte   PATT
  .word Label_01964FE1
@  #01 @022   ----------------------------------------
 .byte   PATT
  .word Label_01964FE1
@  #01 @023   ----------------------------------------
 .byte   N06 ,En1 ,v127
 .byte   W12
 .byte   N06
 .byte   W12
 .byte   N06
 .byte   W12
 .byte   N06
 .byte   W12
 .byte   Bn1
 .byte   W24
 .byte   N06
 .byte   W24
@  #01 @024   ----------------------------------------
 .byte   W96
@  #01 @025   ----------------------------------------
 .byte   W96
@  #01 @026   ----------------------------------------
 .byte   W96
@  #01 @027   ----------------------------------------
 .byte   W96
@  #01 @028   ----------------------------------------
 .byte   W96
@  #01 @029   ----------------------------------------
 .byte   W96
@  #01 @030   ----------------------------------------
 .byte   W96
@  #01 @031   ----------------------------------------
 .byte   W96
@  #01 @032   ----------------------------------------
 .byte   GOTO
  .word Label_01964F40
@  #01 @033   ----------------------------------------
 .byte   W06
 .byte   FINE

@**************** Track 2 (Midi-Chn.1) ****************@

song04_002:
@  #02 @000   ----------------------------------------
 .byte   VOL , 50*song04_mvl/mxv
 .byte   KEYSH , song04_key+0
Label_01965204:
 .byte   VOICE , 30
 .byte   W96
@  #02 @001   ----------------------------------------
 .byte   W96
@  #02 @002   ----------------------------------------
 .byte   W96
@  #02 @003   ----------------------------------------
 .byte   W96
@  #02 @004   ----------------------------------------
 .byte   W96
@  #02 @005   ----------------------------------------
 .byte   W96
@  #02 @006   ----------------------------------------
 .byte   W96
@  #02 @007   ----------------------------------------
 .byte   W96
@  #02 @008   ----------------------------------------
Label_0196520E:
 .byte   N12 ,An1 ,v127
 .byte   W12
 .byte   N12
 .byte   W12
 .byte   Cn2
 .byte   W12
 .byte   N12
 .byte   W12
 .byte   An1
 .byte   W12
 .byte   N12
 .byte   W12
 .byte   Gn1
 .byte   W12
 .byte   N12
 .byte   W12
 .byte   PEND 
@  #02 @009   ----------------------------------------
Label_01965221:
 .byte   N12 ,An1 ,v127
 .byte   W12
 .byte   N12
 .byte   W12
 .byte   N12
 .byte   W12
 .byte   N12
 .byte   W12
 .byte   N12
 .byte   W48
 .byte   PEND 
@  #02 @010   ----------------------------------------
 .byte   PATT
  .word Label_0196520E
@  #02 @011   ----------------------------------------
 .byte   PATT
  .word Label_01965221
@  #02 @012   ----------------------------------------
 .byte   N12 ,En1 ,v127
 .byte   W12
 .byte   N12
 .byte   W12
 .byte   Gn1
 .byte   W12
 .byte   N12
 .byte   W12
 .byte   En1
 .byte   W12
 .byte   N12
 .byte   W12
 .byte   Dn1
 .byte   W12
 .byte   N12
 .byte   W12
@  #02 @013   ----------------------------------------
 .byte   En1
 .byte   W12
 .byte   N12
 .byte   W12
 .byte   N12
 .byte   W12
 .byte   N12
 .byte   W12
 .byte   N12
 .byte   W48
@  #02 @014   ----------------------------------------
 .byte   N12
 .byte   W12
 .byte   N12
 .byte   W12
 .byte   Gn1
 .byte   W12
 .byte   N12
 .byte   W12
 .byte   En1
 .byte   W12
 .byte   N12
 .byte   W12
 .byte   N24 ,Dn1
 .byte   W24
@  #02 @015   ----------------------------------------
 .byte   N12 ,En2
 .byte   W12
 .byte   N12
 .byte   W12
 .byte   N12
 .byte   W12
 .byte   N12
 .byte   W12
 .byte   N12
 .byte   W48
@  #02 @016   ----------------------------------------
 .byte   W96
@  #02 @017   ----------------------------------------
 .byte   W96
@  #02 @018   ----------------------------------------
 .byte   W96
@  #02 @019   ----------------------------------------
 .byte   W96
@  #02 @020   ----------------------------------------
 .byte   W96
@  #02 @021   ----------------------------------------
 .byte   W96
@  #02 @022   ----------------------------------------
 .byte   W96
@  #02 @023   ----------------------------------------
 .byte   W96
@  #02 @024   ----------------------------------------
 .byte   W96
@  #02 @025   ----------------------------------------
 .byte   W96
@  #02 @026   ----------------------------------------
 .byte   W96
@  #02 @027   ----------------------------------------
 .byte   W96
@  #02 @028   ----------------------------------------
 .byte   W96
@  #02 @029   ----------------------------------------
 .byte   W96
@  #02 @030   ----------------------------------------
 .byte   W96
@  #02 @031   ----------------------------------------
 .byte   W96
@  #02 @032   ----------------------------------------
 .byte   GOTO
  .word Label_01965204
@  #02 @033   ----------------------------------------
 .byte   W06
 .byte   FINE

@**************** Track 3 (Midi-Chn.2) ****************@

song04_003:
@  #03 @000   ----------------------------------------
 .byte   VOL , 50*song04_mvl/mxv
 .byte   KEYSH , song04_key+0
Label_019653AC:
 .byte   VOICE , 4
 .byte   W96
@  #03 @001   ----------------------------------------
 .byte   W96
@  #03 @002   ----------------------------------------
 .byte   W96
@  #03 @003   ----------------------------------------
 .byte   W96
@  #03 @004   ----------------------------------------
 .byte   W96
@  #03 @005   ----------------------------------------
 .byte   W96
@  #03 @006   ----------------------------------------
 .byte   W96
@  #03 @007   ----------------------------------------
 .byte   W96
@  #03 @008   ----------------------------------------
 .byte   W96
@  #03 @009   ----------------------------------------
 .byte   W96
@  #03 @010   ----------------------------------------
 .byte   W96
@  #03 @011   ----------------------------------------
 .byte   W96
@  #03 @012   ----------------------------------------
 .byte   W96
@  #03 @013   ----------------------------------------
 .byte   W96
@  #03 @014   ----------------------------------------
 .byte   W96
@  #03 @015   ----------------------------------------
 .byte   W96
@  #03 @016   ----------------------------------------
Label_019653BE:
 .byte   N24 ,An3 ,v127
 .byte   W24
 .byte   N12 ,En3
 .byte   W12
 .byte   N24 ,Gn3
 .byte   W60
 .byte   PEND 
@  #03 @017   ----------------------------------------
 .byte   PATT
  .word Label_019653BE
@  #03 @018   ----------------------------------------
 .byte   PATT
  .word Label_019653BE
@  #03 @019   ----------------------------------------
 .byte   PATT
  .word Label_019653BE
@  #03 @020   ----------------------------------------
Label_019653D8:
 .byte   N24 ,Fs3 ,v127
 .byte   W24
 .byte   N12 ,Dn3
 .byte   W12
 .byte   N24 ,En3
 .byte   W60
 .byte   PEND 
@  #03 @021   ----------------------------------------
 .byte   Fs3
 .byte   W24
 .byte   N12 ,Dn3
 .byte   W12
 .byte   N24 ,En3
 .byte   W48
 .byte   N12 ,Gn3
 .byte   W12
@  #03 @022   ----------------------------------------
 .byte   PATT
  .word Label_019653D8
@  #03 @023   ----------------------------------------
 .byte   PATT
  .word Label_019653D8
@  #03 @024   ----------------------------------------
 .byte   W96
@  #03 @025   ----------------------------------------
 .byte   W96
@  #03 @026   ----------------------------------------
 .byte   W96
@  #03 @027   ----------------------------------------
 .byte   W96
@  #03 @028   ----------------------------------------
 .byte   W96
@  #03 @029   ----------------------------------------
 .byte   W96
@  #03 @030   ----------------------------------------
 .byte   W96
@  #03 @031   ----------------------------------------
 .byte   W96
@  #03 @032   ----------------------------------------
 .byte   GOTO
  .word Label_019653AC
@  #03 @033   ----------------------------------------
 .byte   W06
 .byte   FINE

@**************** Track 4 (Midi-Chn.3) ****************@

song04_004:
@  #04 @000   ----------------------------------------
 .byte   VOL , 50*song04_mvl/mxv
 .byte   KEYSH , song04_key+0
Label_0196540C:
 .byte   VOICE , 18
 .byte   W96
@  #04 @001   ----------------------------------------
 .byte   W96
@  #04 @002   ----------------------------------------
 .byte   W96
@  #04 @003   ----------------------------------------
 .byte   W96
@  #04 @004   ----------------------------------------
 .byte   W96
@  #04 @005   ----------------------------------------
 .byte   W96
@  #04 @006   ----------------------------------------
 .byte   W96
@  #04 @007   ----------------------------------------
 .byte   W96
@  #04 @008   ----------------------------------------
 .byte   W96
@  #04 @009   ----------------------------------------
 .byte   W96
@  #04 @010   ----------------------------------------
 .byte   W96
@  #04 @011   ----------------------------------------
 .byte   W96
@  #04 @012   ----------------------------------------
 .byte   W96
@  #04 @013   ----------------------------------------
 .byte   W96
@  #04 @014   ----------------------------------------
 .byte   W96
@  #04 @015   ----------------------------------------
 .byte   W96
@  #04 @016   ----------------------------------------
 .byte   W96
@  #04 @017   ----------------------------------------
 .byte   W96
@  #04 @018   ----------------------------------------
 .byte   W96
@  #04 @019   ----------------------------------------
 .byte   W96
@  #04 @020   ----------------------------------------
 .byte   W96
@  #04 @021   ----------------------------------------
 .byte   W96
@  #04 @022   ----------------------------------------
 .byte   W96
@  #04 @023   ----------------------------------------
 .byte   W96
@  #04 @024   ----------------------------------------
Label_01965426:
 .byte   N24 ,An4 ,v127
 .byte   W24
 .byte   N12 ,En4
 .byte   W12
 .byte   N24 ,Gn4
 .byte   W60
 .byte   PEND 
@  #04 @025   ----------------------------------------
 .byte   PATT
  .word Label_01965426
@  #04 @026   ----------------------------------------
 .byte   PATT
  .word Label_01965426
@  #04 @027   ----------------------------------------
 .byte   PATT
  .word Label_01965426
@  #04 @028   ----------------------------------------
 .byte   N24 ,Fs4 ,v127
 .byte   W24
 .byte   N12 ,Dn4
 .byte   W12
 .byte   N24 ,En4
 .byte   W60
@  #04 @029   ----------------------------------------
 .byte   Fs4
 .byte   W24
 .byte   N12 ,Dn4
 .byte   W12
 .byte   N24 ,En4
 .byte   W48
 .byte   N12 ,Gn4
 .byte   W12
@  #04 @030   ----------------------------------------
 .byte   N24 ,Fs4
 .byte   W24
 .byte   N12 ,Dn4
 .byte   W12
 .byte   N24 ,En4
 .byte   W48
 .byte   N12 ,Fs4
 .byte   W12
@  #04 @031   ----------------------------------------
 .byte   N06 ,En5
 .byte   W12
 .byte   N06
 .byte   W12
 .byte   N06
 .byte   W12
 .byte   N06
 .byte   W12
 .byte   N24
 .byte   W48
@  #04 @032   ----------------------------------------
 .byte   GOTO
  .word Label_0196540C
@  #04 @033   ----------------------------------------
 .byte   W06
 .byte   FINE

@**************** Track 5 (Midi-Chn.4) ****************@

song04_005:
@  #05 @000   ----------------------------------------
 .byte   VOL , 50*song04_mvl/mxv
 .byte   KEYSH , song04_key+0
Label_01965478:
 .byte   VOICE , 38
 .byte   W96
@  #05 @001   ----------------------------------------
 .byte   W96
@  #05 @002   ----------------------------------------
 .byte   W96
@  #05 @003   ----------------------------------------
 .byte   W96
@  #05 @004   ----------------------------------------
 .byte   W96
@  #05 @005   ----------------------------------------
 .byte   W96
@  #05 @006   ----------------------------------------
 .byte   W96
@  #05 @007   ----------------------------------------
 .byte   W96
@  #05 @008   ----------------------------------------
 .byte   W96
@  #05 @009   ----------------------------------------
 .byte   W96
@  #05 @010   ----------------------------------------
 .byte   W96
@  #05 @011   ----------------------------------------
 .byte   W96
@  #05 @012   ----------------------------------------
 .byte   W96
@  #05 @013   ----------------------------------------
 .byte   W96
@  #05 @014   ----------------------------------------
 .byte   W96
@  #05 @015   ----------------------------------------
 .byte   W96
@  #05 @016   ----------------------------------------
 .byte   W96
@  #05 @017   ----------------------------------------
 .byte   W96
@  #05 @018   ----------------------------------------
 .byte   W96
@  #05 @019   ----------------------------------------
 .byte   W96
@  #05 @020   ----------------------------------------
 .byte   W96
@  #05 @021   ----------------------------------------
 .byte   W96
@  #05 @022   ----------------------------------------
 .byte   W96
@  #05 @023   ----------------------------------------
 .byte   W96
@  #05 @024   ----------------------------------------
Label_01965492:
 .byte   N06 ,An0 ,v127
 .byte   W12
 .byte   N06
 .byte   W12
 .byte   N06
 .byte   W12
 .byte   N06
 .byte   W12
 .byte   Cn1
 .byte   W12
 .byte   N06
 .byte   W12
 .byte   N06
 .byte   W12
 .byte   N06
 .byte   W12
 .byte   PEND 
@  #05 @025   ----------------------------------------
 .byte   PATT
  .word Label_01965492
@  #05 @026   ----------------------------------------
 .byte   PATT
  .word Label_01965492
@  #05 @027   ----------------------------------------
 .byte   N06 ,An0 ,v127
 .byte   W12
 .byte   N06
 .byte   W12
 .byte   N06
 .byte   W12
 .byte   N06
 .byte   W12
 .byte   Cn1
 .byte   W24
 .byte   N06
 .byte   W24
@  #05 @028   ----------------------------------------
Label_019654BD:
 .byte   N06 ,En0 ,v127
 .byte   W12
 .byte   N06
 .byte   W12
 .byte   N06
 .byte   W12
 .byte   N06
 .byte   W12
 .byte   Bn0
 .byte   W12
 .byte   N06
 .byte   W12
 .byte   N06
 .byte   W12
 .byte   N06
 .byte   W12
 .byte   PEND 
@  #05 @029   ----------------------------------------
 .byte   PATT
  .word Label_019654BD
@  #05 @030   ----------------------------------------
 .byte   PATT
  .word Label_019654BD
@  #05 @031   ----------------------------------------
 .byte   N06 ,En1 ,v127
 .byte   W12
 .byte   N06
 .byte   W12
 .byte   N06
 .byte   W12
 .byte   N06
 .byte   W12
 .byte   N06
 .byte   W48
@  #05 @032   ----------------------------------------
 .byte   GOTO
  .word Label_01965478
@  #05 @033   ----------------------------------------
 .byte   W06
 .byte   FINE

@**************** Track 6 (Midi-Chn.5) ****************@

song04_006:
@  #06 @000   ----------------------------------------
 .byte   VOL , 50*song04_mvl/mxv
 .byte   KEYSH , song04_key+0
Label_010051F4:
 .byte   VOICE , 124
 .byte   N06 ,Fs1 ,v127
 .byte   W24
 .byte   N06
 .byte   W24
 .byte   N06
 .byte   W24
 .byte   N06
 .byte   W24
@  #06 @001   ----------------------------------------
Label_01005200:
 .byte   N06 ,Fs1 ,v127
 .byte   W24
 .byte   N06
 .byte   W24
 .byte   N06
 .byte   W24
 .byte   N06
 .byte   W24
 .byte   PEND 
@  #06 @002   ----------------------------------------
 .byte   PATT
  .word Label_01005200
@  #06 @003   ----------------------------------------
 .byte   PATT
  .word Label_01005200
@  #06 @004   ----------------------------------------
 .byte   PATT
  .word Label_01005200
@  #06 @005   ----------------------------------------
 .byte   PATT
  .word Label_01005200
@  #06 @006   ----------------------------------------
 .byte   PATT
  .word Label_01005200
@  #06 @007   ----------------------------------------
 .byte   N06 ,Fs1 ,v127
 .byte   W24
 .byte   N06
 .byte   W24
 .byte   N06
 .byte   W24
 .byte   Cn1
 .byte   N06 ,En2
 .byte   W24
@  #06 @008   ----------------------------------------
Label_01005230:
 .byte   N24 ,Cn1 ,v127
 .byte   N06 ,Fs1
 .byte   N06 ,Ds2
 .byte   W24
 .byte   Fs1
 .byte   N06 ,Ds2
 .byte   W24
 .byte   N24 ,Cn1
 .byte   N06 ,Fs1
 .byte   N06 ,Ds2
 .byte   W24
 .byte   Fs1
 .byte   N06 ,Ds2
 .byte   W24
 .byte   PEND 
@  #06 @009   ----------------------------------------
 .byte   PATT
  .word Label_01005230
@  #06 @010   ----------------------------------------
 .byte   PATT
  .word Label_01005230
@  #06 @011   ----------------------------------------
 .byte   PATT
  .word Label_01005230
@  #06 @012   ----------------------------------------
 .byte   PATT
  .word Label_01005230
@  #06 @013   ----------------------------------------
 .byte   PATT
  .word Label_01005230
@  #06 @014   ----------------------------------------
 .byte   N24 ,Cn1 ,v127
 .byte   N06 ,Fs1
 .byte   N06 ,Ds2
 .byte   W24
 .byte   N24 ,Cn1
 .byte   N06 ,Fs1
 .byte   N06 ,Ds2
 .byte   W24
 .byte   N24 ,Cn1
 .byte   N06 ,Fs1
 .byte   N06 ,Ds2
 .byte   W24
 .byte   N24 ,Cn1
 .byte   N06 ,Fs1
 .byte   N06 ,Ds2
 .byte   W24
@  #06 @015   ----------------------------------------
 .byte   N12 ,Cn1
 .byte   N06 ,Fs1
 .byte   N06 ,Ds2
 .byte   W12
 .byte   N12 ,Cn1
 .byte   W12
 .byte   N12
 .byte   N06 ,Fs1
 .byte   N06 ,Ds2
 .byte   W12
 .byte   N12 ,Cn1
 .byte   W12
 .byte   N12
 .byte   N06 ,Fs1
 .byte   N06 ,Ds2
 .byte   W24
 .byte   Cn1
 .byte   N06 ,En2
 .byte   W24
@  #06 @016   ----------------------------------------
Label_0100529B:
 .byte   N06 ,Cn1 ,v127
 .byte   N06 ,Fs1
 .byte   W12
 .byte   Cn1
 .byte   W12
 .byte   N06
 .byte   N06 ,Fs1
 .byte   W12
 .byte   Cn1
 .byte   N06 ,Gs1
 .byte   W12
 .byte   N12 ,Cn1
 .byte   N06 ,Fs1
 .byte   W24
 .byte   Dn1
 .byte   N06 ,Fs1
 .byte   W12
 .byte   Gs1
 .byte   W12
 .byte   PEND 
@  #06 @017   ----------------------------------------
Label_010052B7:
 .byte   N06 ,Cn1 ,v127
 .byte   N06 ,Fs1
 .byte   W12
 .byte   Cn1
 .byte   W12
 .byte   N06
 .byte   N06 ,Fs1
 .byte   W12
 .byte   Cn1
 .byte   N06 ,Gs1
 .byte   W12
 .byte   Cn1
 .byte   N06 ,Fs1
 .byte   W12
 .byte   Cn1
 .byte   W06
 .byte   N30
 .byte   W06
 .byte   N06 ,Ds1
 .byte   N06 ,Fs1
 .byte   W12
 .byte   Gs1
 .byte   W12
 .byte   PEND 
@  #06 @018   ----------------------------------------
 .byte   PATT
  .word Label_0100529B
@  #06 @019   ----------------------------------------
Label_010052DC:
 .byte   N06 ,Cn1 ,v127
 .byte   N06 ,Fs1
 .byte   W06
 .byte   Cn1
 .byte   W06
 .byte   N06
 .byte   W12
 .byte   N06
 .byte   N06 ,Fs1
 .byte   W12
 .byte   Cn1
 .byte   N06 ,Gs1
 .byte   W12
 .byte   Cn1
 .byte   N06 ,Fs1
 .byte   W06
 .byte   Cn1
 .byte   W06
 .byte   N06
 .byte   W06
 .byte   N30
 .byte   W06
 .byte   N06 ,Ds1
 .byte   N06 ,Fs1
 .byte   W12
 .byte   Gs1
 .byte   W12
 .byte   PEND 
@  #06 @020   ----------------------------------------
 .byte   PATT
  .word Label_0100529B
@  #06 @021   ----------------------------------------
 .byte   PATT
  .word Label_010052B7
@  #06 @022   ----------------------------------------
 .byte   PATT
  .word Label_0100529B
@  #06 @023   ----------------------------------------
 .byte   PATT
  .word Label_010052DC
@  #06 @024   ----------------------------------------
Label_01005314:
 .byte   N06 ,Cn1 ,v127
 .byte   N06 ,Fs1
 .byte   W12
 .byte   Cn1
 .byte   W12
 .byte   N06
 .byte   N06 ,En1
 .byte   N06 ,Fs1
 .byte   W12
 .byte   Cn1
 .byte   N06 ,En1
 .byte   N06 ,Gs1
 .byte   W12
 .byte   N12 ,Cn1
 .byte   N06 ,Fs1
 .byte   W24
 .byte   En1
 .byte   N06 ,Fs1
 .byte   W12
 .byte   Gs1
 .byte   W12
 .byte   PEND 
@  #06 @025   ----------------------------------------
Label_01005334:
 .byte   N06 ,Cn1 ,v127
 .byte   N06 ,Fs1
 .byte   W12
 .byte   Cn1
 .byte   W12
 .byte   N06
 .byte   N06 ,En1
 .byte   N06 ,Fs1
 .byte   W12
 .byte   Cn1
 .byte   N06 ,En1
 .byte   N06 ,Gs1
 .byte   W12
 .byte   Cn1
 .byte   N06 ,Fs1
 .byte   W12
 .byte   Cn1
 .byte   W06
 .byte   N06
 .byte   W06
 .byte   En1
 .byte   N06 ,Fs1
 .byte   W12
 .byte   Gs1
 .byte   W12
 .byte   PEND 
@  #06 @026   ----------------------------------------
 .byte   Cn1
 .byte   N06 ,Fs1
 .byte   W12
 .byte   Cn1
 .byte   W06
 .byte   En1
 .byte   W06
 .byte   Cn1
 .byte   N06 ,En1
 .byte   N06 ,Fs1
 .byte   W12
 .byte   Cn1
 .byte   N06 ,En1
 .byte   N06 ,Gs1
 .byte   W12
 .byte   N12 ,Cn1
 .byte   N06 ,Fs1
 .byte   W24
 .byte   En1
 .byte   N06 ,Fs1
 .byte   W12
 .byte   Gs1
 .byte   W12
@  #06 @027   ----------------------------------------
 .byte   Cn1
 .byte   N06 ,Fs1
 .byte   W06
 .byte   Cn1
 .byte   W06
 .byte   N06
 .byte   W12
 .byte   N06
 .byte   N06 ,En1
 .byte   N06 ,Fs1
 .byte   W12
 .byte   Cn1
 .byte   N06 ,En1
 .byte   N06 ,Gs1
 .byte   W12
 .byte   Cn1
 .byte   N06 ,Fs1
 .byte   W06
 .byte   Cn1
 .byte   W06
 .byte   N06
 .byte   W06
 .byte   N06
 .byte   W06
 .byte   En1
 .byte   N06 ,Fs1
 .byte   W12
 .byte   Gs1
 .byte   W12
@  #06 @028   ----------------------------------------
 .byte   PATT
  .word Label_01005314
@  #06 @029   ----------------------------------------
 .byte   PATT
  .word Label_01005334
@  #06 @030   ----------------------------------------
 .byte   N06 ,Cn1 ,v127
 .byte   N06 ,Fs1
 .byte   W12
 .byte   Cn1
 .byte   N06 ,En1
 .byte   W12
 .byte   Cn1
 .byte   N06 ,En1
 .byte   N06 ,Fs1
 .byte   W12
 .byte   Cn1
 .byte   N06 ,En1
 .byte   N06 ,Gs1
 .byte   W12
 .byte   N12 ,Cn1
 .byte   N06 ,Fs1
 .byte   W24
 .byte   Cn1
 .byte   N06 ,En1
 .byte   N06 ,Fs1
 .byte   W06
 .byte   Cn1
 .byte   W06
 .byte   N06
 .byte   N06 ,Gs1
 .byte   W12
@  #06 @031   ----------------------------------------
 .byte   Cn1
 .byte   N06 ,En1
 .byte   N06 ,Fs1
 .byte   W12
 .byte   Cn1
 .byte   N06 ,En1
 .byte   W12
 .byte   Cn1
 .byte   N06 ,En1
 .byte   N06 ,Fs1
 .byte   W12
 .byte   Cn1
 .byte   N06 ,En1
 .byte   N06 ,Gs1
 .byte   W12
 .byte   Cn1
 .byte   N54 ,Cs2
 .byte   W48
@  #06 @032   ----------------------------------------
 .byte   GOTO
  .word Label_010051F4
@  #06 @033   ----------------------------------------
 .byte   W06
 .byte   FINE

@******************************************************@
	.align	2

song04:
	.byte	6	@ NumTrks
	.byte	0	@ NumBlks
	.byte	song04_pri	@ Priority
	.byte	song04_rev	@ Reverb.
    
	.word	song04_grp
    
	.word	song04_001
	.word	song04_002
	.word	song04_003
	.word	song04_004
	.word	song04_005
	.word	song04_006

	.end
