//Event file generated from Sappy .s format.
	#include "MPlayDef.event"

	#define	RefreshingToilets_grp  voicegroup000
	#define	RefreshingToilets_pri  0
	#define	RefreshingToilets_rev  0
	#define	RefreshingToilets_mvl  127
	#define	RefreshingToilets_key  0
	#define	RefreshingToilets_tbs  1
	#define	RefreshingToilets_exg  0
	#define	RefreshingToilets_cmp  1

	// .rodata
	//	RefreshingToilets
	ALIGN 4


//**************** Track 1 (Midi-Chn.0) ****************//

RefreshingToilets_001:
//  #01 //000   ----------------------------------------
 BYTE   KEYSH   RefreshingToilets_key+0
 BYTE   TEMPO   120*RefreshingToilets_tbs/2
 BYTE   VOICE   49
 BYTE   VOL   24*RefreshingToilets_mvl/mxv
 BYTE   PAN   c_v-44
 BYTE   W24
 BYTE   TEMPO   132*RefreshingToilets_tbs/2
 BYTE   TIE  En3  v112
 BYTE   W72
//  #01 //001   ----------------------------------------
 BYTE   W96
//  #01 //002   ----------------------------------------
 BYTE   W23
 BYTE   EOT
 BYTE   W01
 BYTE   TIE  Fs3
 BYTE   W72
//  #01 //003   ----------------------------------------
 BYTE   W96
//  #01 //004   ----------------------------------------
 BYTE   W23
 BYTE   EOT
 BYTE   W01
 BYTE   TIE  Gs3
 BYTE   W72
//  #01 //005   ----------------------------------------
 BYTE   W96
//  #01 //006   ----------------------------------------
 BYTE   W23
 BYTE   EOT
 BYTE   W01
 BYTE   TIE  Fs3
 BYTE   W72
//  #01 //007   ----------------------------------------
 BYTE   W96
//  #01 //008   ----------------------------------------
 BYTE   W23
 BYTE   EOT
 BYTE   W01
Label_019652E6:
 BYTE   N44  Dn4  v112
 BYTE   W48
 BYTE   N23  Cs4
 BYTE   W24
//  #01 //009   ----------------------------------------
 BYTE   Dn4
 BYTE   W24
 BYTE   N44  Cs4
 BYTE   W48
 BYTE   Bn3
 BYTE   W24
//  #01 //010   ----------------------------------------
 BYTE   W24
 BYTE   N68  Cs4
 BYTE   W72
//  #01 //011   ----------------------------------------
 BYTE   N23  En4
 BYTE   W24
 BYTE   N44  Gs4
 BYTE   W48
 BYTE   TIE  An4
 BYTE   W24
//  #01 //012   ----------------------------------------
 BYTE   W92
 BYTE   W03
 BYTE   EOT
 BYTE   W01
//  #01 //013   ----------------------------------------
Label_01965305:
 BYTE   N23  An4  v112
 BYTE   W24
 BYTE   Gs4
 BYTE   W24
 BYTE   Fs4
 BYTE   W24
 BYTE   En4
 BYTE   W24
 BYTE   PEND 
//  #01 //014   ----------------------------------------
Label_01965310:
 BYTE   N23  Dn4  v112
 BYTE   W24
 BYTE   TIE  Cs4
 BYTE   W72
 BYTE   PEND 
//  #01 //015   ----------------------------------------
 BYTE   W96
//  #01 //016   ----------------------------------------
 BYTE   W23
 BYTE   EOT
 BYTE   W01
 BYTE   N44  Fn4
 BYTE   W48
 BYTE   N23  En4
 BYTE   W24
//  #01 //017   ----------------------------------------
 BYTE   Fn4
 BYTE   W24
 BYTE   N44  En4
 BYTE   W48
 BYTE   Dn4
 BYTE   W24
//  #01 //018   ----------------------------------------
 BYTE   W24
 BYTE   N68  Gn4
 BYTE   W72
//  #01 //019   ----------------------------------------
 BYTE   N23  Bn3
 BYTE   W24
 BYTE   N44
 BYTE   W48
 BYTE   An3
 BYTE   W24
//  #01 //020   ----------------------------------------
 BYTE   W24
 BYTE   N68  An4
 BYTE   W72
//  #01 //021   ----------------------------------------
 BYTE   PATT
  POIN2 Label_01965305
//  #01 //022   ----------------------------------------
 BYTE   PATT
  POIN2 Label_01965310
//  #01 //023   ----------------------------------------
 BYTE   W96
//  #01 //024   ----------------------------------------
 BYTE   W23
 BYTE   EOT
 BYTE   Cs4
 BYTE   W01
 BYTE   TIE  An3  v112
 BYTE   W72
//  #01 //025   ----------------------------------------
 BYTE   W96
//  #01 //026   ----------------------------------------
 BYTE   W23
 BYTE   EOT
 BYTE   W01
 BYTE   TIE  Gs3
 BYTE   W72
//  #01 //027   ----------------------------------------
 BYTE   W96
//  #01 //028   ----------------------------------------
 BYTE   W23
 BYTE   EOT
 BYTE   W01
 BYTE   TIE  Fs3
 BYTE   W72
//  #01 //029   ----------------------------------------
 BYTE   W96
//  #01 //030   ----------------------------------------
 BYTE   W23
 BYTE   EOT
 BYTE   W01
 BYTE   GoTo
  POIN2 Label_019652E6
 BYTE   FINE

//**************** Track 2 (Midi-Chn.1) ****************//

RefreshingToilets_002:
//  #02 //000   ----------------------------------------
 BYTE   KEYSH   RefreshingToilets_key+0
 BYTE   VOICE   49
 BYTE   VOL   24*RefreshingToilets_mvl/mxv
 BYTE   PAN   c_v+46
 BYTE   W24
 BYTE   TIE  An1  v112
 BYTE   W72
//  #02 //001   ----------------------------------------
 BYTE   W96
//  #02 //002   ----------------------------------------
 BYTE   W23
 BYTE   EOT
 BYTE   W01
 BYTE   TIE  Dn2
 BYTE   W72
//  #02 //003   ----------------------------------------
 BYTE   W96
//  #02 //004   ----------------------------------------
 BYTE   W23
 BYTE   EOT
 BYTE   W01
 BYTE   TIE  An1
 BYTE   W72
//  #02 //005   ----------------------------------------
 BYTE   W96
//  #02 //006   ----------------------------------------
 BYTE   W23
 BYTE   EOT
 BYTE   W01
 BYTE   TIE  Dn2
 BYTE   W72
//  #02 //007   ----------------------------------------
 BYTE   W96
//  #02 //008   ----------------------------------------
 BYTE   W23
 BYTE   EOT
 BYTE   W01
Label_0196581A:
 BYTE   N92  Bn1  v127
 BYTE   W72
//  #02 //009   ----------------------------------------
 BYTE   W24
 BYTE   En2
 BYTE   W72
//  #02 //010   ----------------------------------------
 BYTE   W24
 BYTE   An1
 BYTE   W72
//  #02 //011   ----------------------------------------
 BYTE   W24
 BYTE   Dn2
 BYTE   W72
//  #02 //012   ----------------------------------------
 BYTE   W24
 BYTE   Bn1
 BYTE   W72
//  #02 //013   ----------------------------------------
 BYTE   W24
 BYTE   En2
 BYTE   W72
//  #02 //014   ----------------------------------------
Label_0196582D:
 BYTE   W24
 BYTE   TIE  An1  v127
 BYTE   W72
 BYTE   PEND 
//  #02 //015   ----------------------------------------
 BYTE   W96
//  #02 //016   ----------------------------------------
 BYTE   W23
 BYTE   EOT
 BYTE   W01
 BYTE   N92  Dn2
 BYTE   W72
//  #02 //017   ----------------------------------------
 BYTE   W24
 BYTE   Gn1
 BYTE   W72
//  #02 //018   ----------------------------------------
 BYTE   W24
 BYTE   Cn2
 BYTE   W72
//  #02 //019   ----------------------------------------
 BYTE   W24
 BYTE   Fn2
 BYTE   W72
//  #02 //020   ----------------------------------------
 BYTE   W24
 BYTE   Bn1
 BYTE   W72
//  #02 //021   ----------------------------------------
 BYTE   W24
 BYTE   En2
 BYTE   W72
//  #02 //022   ----------------------------------------
 BYTE   PATT
  POIN2 Label_0196582D
//  #02 //023   ----------------------------------------
 BYTE   W96
//  #02 //024   ----------------------------------------
 BYTE   W23
 BYTE   EOT
 BYTE   An1
 BYTE   W01
 BYTE   TIE  Dn2  v112
 BYTE   W72
//  #02 //025   ----------------------------------------
 BYTE   W96
//  #02 //026   ----------------------------------------
 BYTE   W23
 BYTE   EOT
 BYTE   W01
 BYTE   TIE  An1
 BYTE   W72
//  #02 //027   ----------------------------------------
 BYTE   W96
//  #02 //028   ----------------------------------------
 BYTE   W23
 BYTE   EOT
 BYTE   W01
 BYTE   TIE  Dn2
 BYTE   W72
//  #02 //029   ----------------------------------------
 BYTE   W96
//  #02 //030   ----------------------------------------
 BYTE   W23
 BYTE   EOT
 BYTE   W01
 BYTE   GoTo
  POIN2 Label_0196581A
 BYTE   FINE

//**************** Track 3 (Midi-Chn.2) ****************//

RefreshingToilets_003:
//  #03 //000   ----------------------------------------
 BYTE   KEYSH   RefreshingToilets_key+0
 BYTE   VOICE   36
 BYTE   VOL   40*RefreshingToilets_mvl/mxv
 BYTE   PAN   c_v+10
 BYTE   BEND   c_v+0
 BYTE   W24
 BYTE   N08  Gs2  v127
 BYTE   W12
 BYTE   N01  Gs2  v092
 BYTE   W06
 BYTE   N04  Gs2  v127
 BYTE   W12
 BYTE   N05  Gs2  v116
 BYTE   W06
 BYTE   N07  Fs2  v124
 BYTE   W12
 BYTE   N06  Gs2
 BYTE   W24
//  #03 //001   ----------------------------------------
Label_0100541A:
 BYTE   W12
 BYTE   N11  En2  v127
 BYTE   W06
 BYTE   BEND   c_v+63
 BYTE   W05
 BYTE   BEND   c_v+0
 BYTE   W01
 BYTE   N08  Gs2
 BYTE   W12
 BYTE   N01  Gs2  v092
 BYTE   W06
 BYTE   N04  Gs2  v127
 BYTE   W12
 BYTE   N05  Gs2  v116
 BYTE   W06
 BYTE   N07  Fs2  v124
 BYTE   W12
 BYTE   N06  Gs2
 BYTE   W24
 BYTE   PEND 
//  #03 //002   ----------------------------------------
Label_0100543C:
 BYTE   W12
 BYTE   N05  Gs2  v127
 BYTE   W06
 BYTE   N01  Gs2  v096
 BYTE   W06
 BYTE   N08  An2  v127
 BYTE   W12
 BYTE   N01  An2  v092
 BYTE   W06
 BYTE   N04  An2  v127
 BYTE   W12
 BYTE   N05  An2  v116
 BYTE   W06
 BYTE   N07  Fs2  v124
 BYTE   W12
 BYTE   N06  An2
 BYTE   W24
 BYTE   PEND 
//  #03 //003   ----------------------------------------
Label_0100545D:
 BYTE   W12
 BYTE   N11  Fs2  v127
 BYTE   W06
 BYTE   BEND   c_v+63
 BYTE   W05
 BYTE   BEND   c_v+0
 BYTE   W01
 BYTE   N08  An2
 BYTE   W12
 BYTE   N01  An2  v092
 BYTE   W06
 BYTE   N04  An2  v127
 BYTE   W12
 BYTE   N05  An2  v116
 BYTE   W06
 BYTE   N07  Fs2  v124
 BYTE   W12
 BYTE   N06  An2
 BYTE   W24
 BYTE   PEND 
//  #03 //004   ----------------------------------------
Label_0100547F:
 BYTE   W12
 BYTE   N05  Fs2  v127
 BYTE   W06
 BYTE   N01  En2  v096
 BYTE   W06
 BYTE   N08  Gs2  v127
 BYTE   W12
 BYTE   N01  Gs2  v092
 BYTE   W06
 BYTE   N04  Gs2  v127
 BYTE   W12
 BYTE   N05  Gs2  v116
 BYTE   W06
 BYTE   N07  Fs2  v124
 BYTE   W12
 BYTE   N06  Gs2
 BYTE   W24
 BYTE   PEND 
//  #03 //005   ----------------------------------------
 BYTE   PATT
  POIN2 Label_0100541A
//  #03 //006   ----------------------------------------
 BYTE   PATT
  POIN2 Label_0100543C
//  #03 //007   ----------------------------------------
 BYTE   PATT
  POIN2 Label_0100545D
//  #03 //008   ----------------------------------------
Label_010054AF:
 BYTE   W12
 BYTE   N05  Fs2  v127
 BYTE   W06
 BYTE   N01  En2  v096
 BYTE   W06
 BYTE   PEND 
Label_010054B9:
 BYTE   N08  An2  v127
 BYTE   W12
 BYTE   N01  An2  v092
 BYTE   W06
 BYTE   N04  An2  v127
 BYTE   W12
 BYTE   N05  An2  v116
 BYTE   W06
 BYTE   N07  Fs2  v124
 BYTE   W12
 BYTE   N06  An2
 BYTE   W24
//  #03 //009   ----------------------------------------
Label_010054D0:
 BYTE   W12
 BYTE   N11  Fs2  v127
 BYTE   W06
 BYTE   BEND   c_v+63
 BYTE   W05
 BYTE   BEND   c_v+0
 BYTE   W01
 BYTE   N08  Gs2
 BYTE   W12
 BYTE   N01  Gs2  v092
 BYTE   W06
 BYTE   N04  Gs2  v127
 BYTE   W12
 BYTE   N05  Gs2  v116
 BYTE   W06
 BYTE   N07  Fs2  v124
 BYTE   W12
 BYTE   N06  Gs2
 BYTE   W24
 BYTE   PEND 
//  #03 //010   ----------------------------------------
Label_010054F2:
 BYTE   W12
 BYTE   N05  Gs2  v127
 BYTE   W06
 BYTE   N01  Gs2  v096
 BYTE   W06
 BYTE   N08  Gs2  v127
 BYTE   W12
 BYTE   N01  Gs2  v092
 BYTE   W06
 BYTE   N04  Gs2  v127
 BYTE   W12
 BYTE   N05  Gs2  v116
 BYTE   W06
 BYTE   N07  Fs2  v124
 BYTE   W12
 BYTE   N06  Gs2
 BYTE   W24
 BYTE   PEND 
//  #03 //011   ----------------------------------------
 BYTE   W12
 BYTE   N11  En2  v127
 BYTE   W06
 BYTE   BEND   c_v+63
 BYTE   W05
 BYTE   BEND   c_v+0
 BYTE   W01
 BYTE   N08  An2
 BYTE   W12
 BYTE   N01  An2  v092
 BYTE   W06
 BYTE   N04  An2  v127
 BYTE   W12
 BYTE   N05  An2  v116
 BYTE   W06
 BYTE   N07  Fs2  v124
 BYTE   W12
 BYTE   N06  An2
 BYTE   W24
//  #03 //012   ----------------------------------------
 BYTE   W12
 BYTE   N05  An2  v127
 BYTE   W06
 BYTE   N01  An2  v096
 BYTE   W06
 BYTE   N08  An2  v127
 BYTE   W12
 BYTE   N01  An2  v092
 BYTE   W06
 BYTE   N04  An2  v127
 BYTE   W12
 BYTE   N05  An2  v116
 BYTE   W06
 BYTE   N07  Fs2  v124
 BYTE   W12
 BYTE   N06  An2
 BYTE   W24
//  #03 //013   ----------------------------------------
 BYTE   PATT
  POIN2 Label_010054D0
//  #03 //014   ----------------------------------------
 BYTE   PATT
  POIN2 Label_010054F2
//  #03 //015   ----------------------------------------
 BYTE   PATT
  POIN2 Label_0100541A
//  #03 //016   ----------------------------------------
 BYTE   W12
 BYTE   N05  Gs2  v127
 BYTE   W06
 BYTE   N01  Gs2  v096
 BYTE   W06
 BYTE   N08  Cn3  v127
 BYTE   W12
 BYTE   N01  Cn3  v092
 BYTE   W06
 BYTE   N04  Cn3  v127
 BYTE   W12
 BYTE   N05  Cn3  v116
 BYTE   W06
 BYTE   N07  Bn2  v124
 BYTE   W12
 BYTE   N06  Cn3
 BYTE   W24
//  #03 //017   ----------------------------------------
 BYTE   W12
 BYTE   N11  An2  v127
 BYTE   W06
 BYTE   BEND   c_v+63
 BYTE   W05
 BYTE   BEND   c_v+0
 BYTE   W01
 BYTE   N08  Bn2
 BYTE   W12
 BYTE   N01  Bn2  v092
 BYTE   W06
 BYTE   N04  Bn2  v127
 BYTE   W12
 BYTE   N05  Bn2  v116
 BYTE   W06
 BYTE   N07  An2  v124
 BYTE   W12
 BYTE   N06  Bn2
 BYTE   W24
//  #03 //018   ----------------------------------------
 BYTE   W12
 BYTE   N05  Bn2  v127
 BYTE   W06
 BYTE   N01  Bn2  v096
 BYTE   W06
 BYTE   N08  Bn2  v127
 BYTE   W12
 BYTE   N01  Bn2  v092
 BYTE   W06
 BYTE   N04  Bn2  v127
 BYTE   W12
 BYTE   N05  Bn2  v116
 BYTE   W06
 BYTE   N07  An2  v124
 BYTE   W12
 BYTE   N06  Bn2
 BYTE   W24
//  #03 //019   ----------------------------------------
 BYTE   W12
 BYTE   N11  Gn2  v127
 BYTE   W06
 BYTE   BEND   c_v+63
 BYTE   W05
 BYTE   BEND   c_v+0
 BYTE   W01
 BYTE   N08  Cn3
 BYTE   W12
 BYTE   N01  Cn3  v092
 BYTE   W06
 BYTE   N04  Cn3  v127
 BYTE   W12
 BYTE   N05  Cn3  v116
 BYTE   W06
 BYTE   N07  An2  v124
 BYTE   W12
 BYTE   N06  Cn3
 BYTE   W24
//  #03 //020   ----------------------------------------
 BYTE   W12
 BYTE   N05  Cn3  v127
 BYTE   W06
 BYTE   N01  Cn3  v096
 BYTE   W06
 BYTE   N08  An2  v127
 BYTE   W12
 BYTE   N01  An2  v092
 BYTE   W06
 BYTE   N04  An2  v127
 BYTE   W12
 BYTE   N05  An2  v116
 BYTE   W06
 BYTE   N07  Fs2  v124
 BYTE   W12
 BYTE   N06  An2
 BYTE   W24
//  #03 //021   ----------------------------------------
 BYTE   PATT
  POIN2 Label_010054D0
//  #03 //022   ----------------------------------------
 BYTE   PATT
  POIN2 Label_010054F2
//  #03 //023   ----------------------------------------
 BYTE   PATT
  POIN2 Label_0100541A
//  #03 //024   ----------------------------------------
 BYTE   PATT
  POIN2 Label_0100543C
//  #03 //025   ----------------------------------------
 BYTE   PATT
  POIN2 Label_0100545D
//  #03 //026   ----------------------------------------
 BYTE   PATT
  POIN2 Label_0100547F
//  #03 //027   ----------------------------------------
 BYTE   PATT
  POIN2 Label_0100541A
//  #03 //028   ----------------------------------------
 BYTE   PATT
  POIN2 Label_0100543C
//  #03 //029   ----------------------------------------
 BYTE   PATT
  POIN2 Label_0100545D
//  #03 //030   ----------------------------------------
 BYTE   PATT
  POIN2 Label_010054AF
//  #03 //031   ----------------------------------------
 BYTE   GoTo
  POIN2 Label_010054B9
 BYTE   FINE

//**************** Track 4 (Midi-Chn.3) ****************//

RefreshingToilets_004:
//  #04 //000   ----------------------------------------
 BYTE   KEYSH   RefreshingToilets_key+0
 BYTE   VOICE   49
 BYTE   VOL   21*RefreshingToilets_mvl/mxv
 BYTE   PAN   c_v-14
 BYTE   W24
 BYTE   TIE  Cs3  v112
 BYTE   W72
//  #04 //001   ----------------------------------------
 BYTE   W96
//  #04 //002   ----------------------------------------
 BYTE   W96
//  #04 //003   ----------------------------------------
 BYTE   W96
//  #04 //004   ----------------------------------------
 BYTE   W23
 BYTE   EOT
 BYTE   W01
 BYTE   TIE  En3
 BYTE   W72
//  #04 //005   ----------------------------------------
 BYTE   W96
//  #04 //006   ----------------------------------------
 BYTE   W23
 BYTE   EOT
 BYTE   W01
 BYTE   TIE  Cs3
 BYTE   W72
//  #04 //007   ----------------------------------------
 BYTE   W96
//  #04 //008   ----------------------------------------
 BYTE   W23
 BYTE   EOT
 BYTE   W01
Label_019655A1:
 BYTE   N92  Fs3  v112
 BYTE   W72
//  #04 //009   ----------------------------------------
 BYTE   W24
 BYTE   Dn3
 BYTE   W72
//  #04 //010   ----------------------------------------
 BYTE   W24
 BYTE   En3
 BYTE   W72
//  #04 //011   ----------------------------------------
Label_019655AB:
 BYTE   W24
 BYTE   TIE  Fs3  v112
 BYTE   W72
 BYTE   PEND 
//  #04 //012   ----------------------------------------
 BYTE   W96
//  #04 //013   ----------------------------------------
 BYTE   W23
 BYTE   EOT
 BYTE   W01
 BYTE   N44  Bn3
 BYTE   W48
 BYTE   Gs3
 BYTE   W24
//  #04 //014   ----------------------------------------
 BYTE   W24
 BYTE   TIE  En3
 BYTE   W72
//  #04 //015   ----------------------------------------
 BYTE   W96
//  #04 //016   ----------------------------------------
 BYTE   W23
 BYTE   EOT
 BYTE   W01
 BYTE   N92  An3
 BYTE   W72
//  #04 //017   ----------------------------------------
 BYTE   W24
 BYTE   Fn3
 BYTE   W72
//  #04 //018   ----------------------------------------
 BYTE   W24
 BYTE   En3
 BYTE   W72
//  #04 //019   ----------------------------------------
 BYTE   W96
//  #04 //020   ----------------------------------------
 BYTE   PATT
  POIN2 Label_019655AB
//  #04 //021   ----------------------------------------
 BYTE   W24
 BYTE   N44  Bn3  v112
 BYTE   W48
 BYTE   Gs3
 BYTE   W24
//  #04 //022   ----------------------------------------
 BYTE   W23
 BYTE   EOT
 BYTE   Fs3
 BYTE   W01
 BYTE   TIE  En3
 BYTE   W72
//  #04 //023   ----------------------------------------
 BYTE   W96
//  #04 //024   ----------------------------------------
 BYTE   W23
 BYTE   EOT
 BYTE   W01
 BYTE   TIE  Fs3
 BYTE   W72
//  #04 //025   ----------------------------------------
 BYTE   W96
//  #04 //026   ----------------------------------------
 BYTE   W23
 BYTE   EOT
 BYTE   W01
 BYTE   TIE  En3
 BYTE   W72
//  #04 //027   ----------------------------------------
 BYTE   W96
//  #04 //028   ----------------------------------------
 BYTE   W23
 BYTE   EOT
 BYTE   W01
 BYTE   TIE  Cs3
 BYTE   W72
//  #04 //029   ----------------------------------------
 BYTE   W96
//  #04 //030   ----------------------------------------
 BYTE   W23
 BYTE   EOT
 BYTE   W01
 BYTE   GoTo
  POIN2 Label_019655A1
 BYTE   FINE

//**************** Track 5 (Midi-Chn.4) ****************//

RefreshingToilets_005:
//  #05 //000   ----------------------------------------
 BYTE   KEYSH   RefreshingToilets_key+0
 BYTE   VOICE   49
 BYTE   VOL   20*RefreshingToilets_mvl/mxv
 BYTE   PAN   c_v+16
 BYTE   W24
 BYTE   TIE  Gs2  v112
 BYTE   W72
//  #05 //001   ----------------------------------------
 BYTE   W96
//  #05 //002   ----------------------------------------
 BYTE   W23
 BYTE   EOT
 BYTE   W01
 BYTE   TIE  An2
 BYTE   W72
//  #05 //003   ----------------------------------------
 BYTE   W96
//  #05 //004   ----------------------------------------
 BYTE   W23
 BYTE   EOT
 BYTE   W01
 BYTE   TIE  Cs3
 BYTE   W72
//  #05 //005   ----------------------------------------
 BYTE   W96
//  #05 //006   ----------------------------------------
 BYTE   W23
 BYTE   EOT
 BYTE   W01
 BYTE   TIE  An2
 BYTE   W72
//  #05 //007   ----------------------------------------
 BYTE   W96
//  #05 //008   ----------------------------------------
 BYTE   W23
 BYTE   EOT
 BYTE   W01
Label_0100520E:
 BYTE   N92  An2  v112
 BYTE   W72
//  #05 //009   ----------------------------------------
 BYTE   W24
 BYTE   TIE  Gs2
 BYTE   W72
//  #05 //010   ----------------------------------------
 BYTE   W96
//  #05 //011   ----------------------------------------
 BYTE   W23
 BYTE   EOT
 BYTE   W01
 BYTE   N92  Cs3
 BYTE   W72
//  #05 //012   ----------------------------------------
Label_0100521D:
 BYTE   W24
 BYTE   TIE  Dn3  v112
 BYTE   W72
 BYTE   PEND 
//  #05 //013   ----------------------------------------
 BYTE   W96
//  #05 //014   ----------------------------------------
 BYTE   W23
 BYTE   EOT
 BYTE   W01
 BYTE   TIE  Gs2
 BYTE   W72
//  #05 //015   ----------------------------------------
 BYTE   W96
//  #05 //016   ----------------------------------------
 BYTE   W23
 BYTE   EOT
 BYTE   W01
 BYTE   N92  Cn3
 BYTE   W72
//  #05 //017   ----------------------------------------
 BYTE   W24
 BYTE   TIE  Bn2
 BYTE   W72
//  #05 //018   ----------------------------------------
 BYTE   W96
//  #05 //019   ----------------------------------------
 BYTE   W23
 BYTE   EOT
 BYTE   W01
 BYTE   N92  Cn3
 BYTE   W72
//  #05 //020   ----------------------------------------
 BYTE   PATT
  POIN2 Label_0100521D
//  #05 //021   ----------------------------------------
 BYTE   W96
//  #05 //022   ----------------------------------------
 BYTE   W23
 BYTE   EOT
 BYTE   Dn3
 BYTE   W01
 BYTE   TIE  Gs2  v112
 BYTE   W72
//  #05 //023   ----------------------------------------
 BYTE   W96
//  #05 //024   ----------------------------------------
 BYTE   W23
 BYTE   EOT
 BYTE   W01
 BYTE   TIE  Cs3
 BYTE   W72
//  #05 //025   ----------------------------------------
 BYTE   W96
//  #05 //026   ----------------------------------------
 BYTE   W23
 BYTE   EOT
 BYTE   W01
 BYTE   TIE  Gs2
 BYTE   W72
//  #05 //027   ----------------------------------------
 BYTE   W96
//  #05 //028   ----------------------------------------
 BYTE   W23
 BYTE   EOT
 BYTE   W01
 BYTE   TIE  Cs3
 BYTE   W72
//  #05 //029   ----------------------------------------
 BYTE   W96
//  #05 //030   ----------------------------------------
 BYTE   W23
 BYTE   EOT
 BYTE   W01
 BYTE   GoTo
  POIN2 Label_0100520E
 BYTE   FINE

//**************** Track 6 (Midi-Chn.5) ****************//

RefreshingToilets_006:
//  #06 //000   ----------------------------------------
 BYTE   KEYSH   RefreshingToilets_key+0
 BYTE   VOICE   124
 BYTE   VOL   25*RefreshingToilets_mvl/mxv
 BYTE   PAN   c_v+0
 BYTE   W36
 BYTE   N03  En3  v100
 BYTE   W06
 BYTE   N04  En3  v084
 BYTE   W06
 BYTE   Gs1  v092
 BYTE   W12
 BYTE   N03  Dn3  v100
 BYTE   W24
 BYTE   En3  v092
 BYTE   W06
 BYTE   En3  v080
 BYTE   W06
//  #06 //001   ----------------------------------------
 BYTE   Gs1  v088
 BYTE   W12
 BYTE   Dn3  v100
 BYTE   W24
 BYTE   En3
 BYTE   W06
 BYTE   N04  En3  v084
 BYTE   W06
 BYTE   N03  Gs1  v092
 BYTE   W12
 BYTE   Dn3  v100
 BYTE   W24
 BYTE   En3  v092
 BYTE   W06
 BYTE   En3  v080
 BYTE   W06
//  #06 //002   ----------------------------------------
 BYTE   N04  Gs1  v092
 BYTE   W12
 BYTE   N03  Dn3  v100
 BYTE   W24
 BYTE   En3
 BYTE   W06
 BYTE   N04  En3  v084
 BYTE   W06
 BYTE   Gs1  v100
 BYTE   W12
 BYTE   N03  Dn3
 BYTE   W24
 BYTE   En3  v092
 BYTE   W06
 BYTE   En3  v080
 BYTE   W06
//  #06 //003   ----------------------------------------
 BYTE   N04  Gs1  v112
 BYTE   W12
 BYTE   N03  Dn3  v100
 BYTE   W24
 BYTE   En3
 BYTE   W06
 BYTE   N04  En3  v084
 BYTE   W06
 BYTE   Gs1  v112
 BYTE   W12
 BYTE   N03  Dn3  v100
 BYTE   W24
 BYTE   En3  v092
 BYTE   W06
 BYTE   En3  v080
 BYTE   W06
//  #06 //004   ----------------------------------------
 BYTE   N04  Gs1  v108
 BYTE   W12
 BYTE   N03  Dn3  v100
 BYTE   W12
 BYTE   N05  Dn5  v124
 BYTE   W12
 BYTE   N03  En3  v100
 BYTE   W06
 BYTE   N04  En3  v084
 BYTE   W06
 BYTE   N03  Gs1  v096
 BYTE   N03  Dn5  v120
 BYTE   W12
 BYTE   Dn3  v100
 BYTE   W12
 BYTE   N02  Dn5  v116
 BYTE   W12
 BYTE   N03  En3  v092
 BYTE   W06
 BYTE   En3  v080
 BYTE   W06
//  #06 //005   ----------------------------------------
Label_010056E5:
 BYTE   N02  Gs1  v104
 BYTE   N03  Dn5  v120
 BYTE   W12
 BYTE   Dn3  v100
 BYTE   W12
 BYTE   N05  Dn5  v124
 BYTE   W12
 BYTE   N03  En3  v100
 BYTE   W06
 BYTE   N04  En3  v084
 BYTE   W06
 BYTE   N03  Gs1  v096
 BYTE   N03  Dn5  v120
 BYTE   W12
 BYTE   Dn3  v100
 BYTE   W12
 BYTE   N02  Dn5  v116
 BYTE   W12
 BYTE   N03  En3  v092
 BYTE   W06
 BYTE   En3  v080
 BYTE   W06
 BYTE   PEND 
//  #06 //006   ----------------------------------------
 BYTE   PATT
  POIN2 Label_010056E5
//  #06 //007   ----------------------------------------
 BYTE   N02  Gs1  v104
 BYTE   N03  Dn5  v120
 BYTE   W12
 BYTE   Dn3  v100
 BYTE   W12
 BYTE   N05  Dn5  v124
 BYTE   W12
 BYTE   N03  En3  v100
 BYTE   W06
 BYTE   N04  En3  v084
 BYTE   W06
 BYTE   N03  Gs1  v096
 BYTE   N03  Dn3  v127
 BYTE   N03  Dn5  v120
 BYTE   W04
 BYTE   Dn3  v092
 BYTE   W04
 BYTE   N03
 BYTE   W04
 BYTE   Dn3  v100
 BYTE   W04
 BYTE   Dn3  v092
 BYTE   W04
 BYTE   N03
 BYTE   W04
 BYTE   N05  Gn1  v127
 BYTE   W06
 BYTE   N03  Cn1  v124
 BYTE   W04
 BYTE   Cn1  v108
 BYTE   W04
 BYTE   N03
 BYTE   W04
 BYTE   N05  Cn2  v112
 BYTE   N03  En3  v092
 BYTE   W06
//  #06 //008   ----------------------------------------
 BYTE   N05  Cn2  v127
 BYTE   W06
 BYTE   An1
 BYTE   W06
 BYTE   N11  Gn1
 BYTE   N03  Dn3  v100
 BYTE   W12
Label_01005763:
 BYTE   N44  En2  v127
 BYTE   N05  Dn5
 BYTE   W18
 BYTE   N05
 BYTE   W06
 BYTE   Cs6
 BYTE   W12
 BYTE   Dn5
 BYTE   N03  An7  v092
 BYTE   W12
 BYTE   N05  Dn5  v127
 BYTE   N04  An7  v100
 BYTE   W12
 BYTE   N03  An7  v088
 BYTE   W12
//  #06 //009   ----------------------------------------
 BYTE   N05  Cs6  v127
 BYTE   W12
 BYTE   N03  An7  v088
 BYTE   W12
 BYTE   N05  Dn5  v127
 BYTE   N04  An7  v108
 BYTE   W12
 BYTE   N03  An7  v088
 BYTE   W06
 BYTE   N05  Dn5  v124
 BYTE   W06
 BYTE   Cs6  v127
 BYTE   W12
 BYTE   Dn5
 BYTE   N03  An7  v088
 BYTE   W12
 BYTE   N05  Dn5  v127
 BYTE   N04  An7  v104
 BYTE   W12
 BYTE   An7  v088
 BYTE   W12
//  #06 //010   ----------------------------------------
Label_010057A6:
 BYTE   N05  Cs6  v127
 BYTE   W12
 BYTE   N04  An7  v100
 BYTE   W12
 BYTE   N05  Dn5  v127
 BYTE   N04  An7  v108
 BYTE   W12
 BYTE   N03  An7  v088
 BYTE   W06
 BYTE   N05  Dn5  v127
 BYTE   W06
 BYTE   Cs6
 BYTE   W12
 BYTE   Dn5
 BYTE   N03  An7  v088
 BYTE   W12
 BYTE   N05  Dn5  v127
 BYTE   N04  An7  v104
 BYTE   W12
 BYTE   An7  v088
 BYTE   W12
 BYTE   PEND 
//  #06 //011   ----------------------------------------
Label_010057CF:
 BYTE   N05  Cs6  v127
 BYTE   W12
 BYTE   N04  An7  v100
 BYTE   W12
 BYTE   N05  Dn5  v127
 BYTE   N04  An7  v108
 BYTE   W12
 BYTE   N03  An7  v088
 BYTE   W06
 BYTE   N05  Dn5  v124
 BYTE   W06
 BYTE   Cs6  v127
 BYTE   W12
 BYTE   Dn5
 BYTE   N03  An7  v088
 BYTE   W12
 BYTE   N05  Dn5  v127
 BYTE   N04  An7  v104
 BYTE   W12
 BYTE   An7  v088
 BYTE   W12
 BYTE   PEND 
//  #06 //012   ----------------------------------------
 BYTE   PATT
  POIN2 Label_010057A6
//  #06 //013   ----------------------------------------
 BYTE   PATT
  POIN2 Label_010057CF
//  #06 //014   ----------------------------------------
 BYTE   PATT
  POIN2 Label_010057A6
//  #06 //015   ----------------------------------------
 BYTE   PATT
  POIN2 Label_010057CF
//  #06 //016   ----------------------------------------
 BYTE   N05  Cs6  v127
 BYTE   W06
 BYTE   Bn1
 BYTE   W06
 BYTE   N11  An1
 BYTE   W12
 BYTE   N32  Gn2
 BYTE   N05  Dn5
 BYTE   W18
 BYTE   N05
 BYTE   W06
 BYTE   Cs6
 BYTE   W12
 BYTE   Dn5
 BYTE   N03  An7  v088
 BYTE   W12
 BYTE   N05  Dn5  v127
 BYTE   N04  An7  v104
 BYTE   W12
 BYTE   An7  v088
 BYTE   W12
//  #06 //017   ----------------------------------------
 BYTE   PATT
  POIN2 Label_010057CF
//  #06 //018   ----------------------------------------
 BYTE   PATT
  POIN2 Label_010057A6
//  #06 //019   ----------------------------------------
 BYTE   PATT
  POIN2 Label_010057CF
//  #06 //020   ----------------------------------------
 BYTE   PATT
  POIN2 Label_010057A6
//  #06 //021   ----------------------------------------
 BYTE   PATT
  POIN2 Label_010057CF
//  #06 //022   ----------------------------------------
 BYTE   PATT
  POIN2 Label_010057A6
//  #06 //023   ----------------------------------------
 BYTE   PATT
  POIN2 Label_010057CF
//  #06 //024   ----------------------------------------
 BYTE   PATT
  POIN2 Label_010057A6
//  #06 //025   ----------------------------------------
 BYTE   PATT
  POIN2 Label_010057CF
//  #06 //026   ----------------------------------------
 BYTE   PATT
  POIN2 Label_010057A6
//  #06 //027   ----------------------------------------
 BYTE   PATT
  POIN2 Label_010057CF
//  #06 //028   ----------------------------------------
 BYTE   PATT
  POIN2 Label_010057A6
//  #06 //029   ----------------------------------------
 BYTE   N05  Cs6  v127
 BYTE   W12
 BYTE   N04  An7  v100
 BYTE   W12
 BYTE   N05  Dn5  v127
 BYTE   N04  An7  v108
 BYTE   W12
 BYTE   N03  An7  v088
 BYTE   W06
 BYTE   N05  Dn5  v124
 BYTE   W06
 BYTE   Cs6  v127
 BYTE   W12
 BYTE   Dn5
 BYTE   N03  An7  v088
 BYTE   W12
 BYTE   N05  Gn1  v127
 BYTE   W06
 BYTE   N03  Cn1  v124
 BYTE   W04
 BYTE   Cn1  v108
 BYTE   W04
 BYTE   N03
 BYTE   W04
 BYTE   N05  Cn2  v112
 BYTE   W06
//  #06 //030   ----------------------------------------
 BYTE   Cn2  v127
 BYTE   W06
 BYTE   An1
 BYTE   W06
 BYTE   N11  Gn1
 BYTE   W12
 BYTE   GoTo
  POIN2 Label_01005763
 BYTE   FINE

//**************** Track 7 (Midi-Chn.6) ****************//

RefreshingToilets_007:
//  #07 //000   ----------------------------------------
 BYTE   KEYSH   RefreshingToilets_key+0
 BYTE   VOICE   4
 BYTE   VOL   19*RefreshingToilets_mvl/mxv
 BYTE   PAN   c_v-64
 BYTE   W96
//  #07 //001   ----------------------------------------
 BYTE   W96
//  #07 //002   ----------------------------------------
 BYTE   W96
//  #07 //003   ----------------------------------------
 BYTE   W96
//  #07 //004   ----------------------------------------
 BYTE   W96
//  #07 //005   ----------------------------------------
 BYTE   W96
//  #07 //006   ----------------------------------------
 BYTE   W96
//  #07 //007   ----------------------------------------
 BYTE   W96
//  #07 //008   ----------------------------------------
 BYTE   W24
Label_0100527D:
 BYTE   W72
//  #07 //009   ----------------------------------------
 BYTE   W96
//  #07 //010   ----------------------------------------
 BYTE   W96
//  #07 //011   ----------------------------------------
 BYTE   W96
//  #07 //012   ----------------------------------------
 BYTE   W96
//  #07 //013   ----------------------------------------
 BYTE   W96
//  #07 //014   ----------------------------------------
 BYTE   W96
//  #07 //015   ----------------------------------------
Label_01005284:
 BYTE   W24
 BYTE   N03  An2  v127
 BYTE   W04
 BYTE   Cs3
 BYTE   W04
 BYTE   En3
 BYTE   W04
 BYTE   Gs3
 BYTE   W04
 BYTE   An3
 BYTE   W04
 BYTE   Cs4
 BYTE   W04
 BYTE   En4
 BYTE   W04
 BYTE   Gs4
 BYTE   W04
 BYTE   An4
 BYTE   W04
 BYTE   Cs5
 BYTE   W04
 BYTE   En5
 BYTE   W04
 BYTE   Gs5
 BYTE   W04
 BYTE   An5
 BYTE   W04
 BYTE   Gs5
 BYTE   W04
 BYTE   En5
 BYTE   W04
 BYTE   Cs5
 BYTE   W04
 BYTE   An4
 BYTE   W04
 BYTE   Gs4
 BYTE   W04
 BYTE   PEND 
//  #07 //016   ----------------------------------------
Label_010052AC:
 BYTE   N03  En4  v127
 BYTE   W04
 BYTE   Cs4
 BYTE   W04
 BYTE   An3
 BYTE   W04
 BYTE   Gs3
 BYTE   W04
 BYTE   En3
 BYTE   W04
 BYTE   Cs3
 BYTE   W76
 BYTE   PEND 
//  #07 //017   ----------------------------------------
 BYTE   W96
//  #07 //018   ----------------------------------------
 BYTE   W96
//  #07 //019   ----------------------------------------
 BYTE   W96
//  #07 //020   ----------------------------------------
 BYTE   W96
//  #07 //021   ----------------------------------------
 BYTE   W96
//  #07 //022   ----------------------------------------
 BYTE   W96
//  #07 //023   ----------------------------------------
 BYTE   PATT
  POIN2 Label_01005284
//  #07 //024   ----------------------------------------
 BYTE   PATT
  POIN2 Label_010052AC
//  #07 //025   ----------------------------------------
Label_010052CB:
 BYTE   W24
 BYTE   N03  Dn2  v127
 BYTE   W04
 BYTE   Fs2
 BYTE   W04
 BYTE   An2
 BYTE   W04
 BYTE   Cs3
 BYTE   W04
 BYTE   Dn3
 BYTE   W04
 BYTE   Fs3
 BYTE   W04
 BYTE   An3
 BYTE   W04
 BYTE   Cs4
 BYTE   W04
 BYTE   Dn4
 BYTE   W04
 BYTE   Fs4
 BYTE   W04
 BYTE   An4
 BYTE   W04
 BYTE   Cs5
 BYTE   W04
 BYTE   Dn5
 BYTE   W04
 BYTE   Cs5
 BYTE   W04
 BYTE   An4
 BYTE   W04
 BYTE   Fs4
 BYTE   W04
 BYTE   Dn4
 BYTE   W04
 BYTE   Cs4
 BYTE   W04
 BYTE   PEND 
//  #07 //026   ----------------------------------------
 BYTE   An3
 BYTE   W04
 BYTE   Fs3
 BYTE   W04
 BYTE   Dn3
 BYTE   W04
 BYTE   Cs3
 BYTE   W04
 BYTE   An2
 BYTE   W04
 BYTE   Fs2
 BYTE   W76
//  #07 //027   ----------------------------------------
 BYTE   PATT
  POIN2 Label_01005284
//  #07 //028   ----------------------------------------
 BYTE   PATT
  POIN2 Label_010052AC
//  #07 //029   ----------------------------------------
 BYTE   PATT
  POIN2 Label_010052CB
//  #07 //030   ----------------------------------------
 BYTE   N03  An3  v127
 BYTE   W04
 BYTE   Fs3
 BYTE   W04
 BYTE   Dn3
 BYTE   W04
 BYTE   Cs3
 BYTE   W04
 BYTE   An2
 BYTE   W04
 BYTE   Fs2
 BYTE   W04
 BYTE   GoTo
  POIN2 Label_0100527D
 BYTE   FINE

//**************** Track 8 (Midi-Chn.7) ****************//

RefreshingToilets_008:
//  #08 //000   ----------------------------------------
 BYTE   KEYSH   RefreshingToilets_key+0
 BYTE   VOICE   4
 BYTE   VOL   19*RefreshingToilets_mvl/mxv
 BYTE   PAN   c_v+63
 BYTE   W96
//  #08 //001   ----------------------------------------
 BYTE   W96
//  #08 //002   ----------------------------------------
 BYTE   W96
//  #08 //003   ----------------------------------------
 BYTE   W96
//  #08 //004   ----------------------------------------
 BYTE   W96
//  #08 //005   ----------------------------------------
 BYTE   W96
//  #08 //006   ----------------------------------------
 BYTE   W96
//  #08 //007   ----------------------------------------
 BYTE   W96
//  #08 //008   ----------------------------------------
 BYTE   W24
Label_01005335:
 BYTE   W72
//  #08 //009   ----------------------------------------
 BYTE   W96
//  #08 //010   ----------------------------------------
 BYTE   W96
//  #08 //011   ----------------------------------------
 BYTE   W96
//  #08 //012   ----------------------------------------
 BYTE   W96
//  #08 //013   ----------------------------------------
 BYTE   W96
//  #08 //014   ----------------------------------------
 BYTE   W96
//  #08 //015   ----------------------------------------
Label_0100533C:
 BYTE   W28
 BYTE   N03  An2  v127
 BYTE   W04
 BYTE   Cs3
 BYTE   W04
 BYTE   En3
 BYTE   W04
 BYTE   Gs3
 BYTE   W04
 BYTE   An3
 BYTE   W04
 BYTE   Cs4
 BYTE   W04
 BYTE   En4
 BYTE   W04
 BYTE   Gs4
 BYTE   W04
 BYTE   An4
 BYTE   W04
 BYTE   Cs5
 BYTE   W04
 BYTE   En5
 BYTE   W04
 BYTE   Gs5
 BYTE   W04
 BYTE   An5
 BYTE   W04
 BYTE   Gs5
 BYTE   W04
 BYTE   En5
 BYTE   W04
 BYTE   Cs5
 BYTE   W04
 BYTE   An4
 BYTE   W04
 BYTE   PEND 
//  #08 //016   ----------------------------------------
Label_01005362:
 BYTE   N03  Gs4  v127
 BYTE   W04
 BYTE   En4
 BYTE   W04
 BYTE   Cs4
 BYTE   W04
 BYTE   An3
 BYTE   W04
 BYTE   Gs3
 BYTE   W04
 BYTE   En3
 BYTE   W76
 BYTE   PEND 
//  #08 //017   ----------------------------------------
 BYTE   W96
//  #08 //018   ----------------------------------------
 BYTE   W96
//  #08 //019   ----------------------------------------
 BYTE   W96
//  #08 //020   ----------------------------------------
 BYTE   W96
//  #08 //021   ----------------------------------------
 BYTE   W96
//  #08 //022   ----------------------------------------
 BYTE   W96
//  #08 //023   ----------------------------------------
 BYTE   PATT
  POIN2 Label_0100533C
//  #08 //024   ----------------------------------------
 BYTE   PATT
  POIN2 Label_01005362
//  #08 //025   ----------------------------------------
Label_01005381:
 BYTE   W28
 BYTE   N03  Dn2  v127
 BYTE   W04
 BYTE   Fs2
 BYTE   W04
 BYTE   An2
 BYTE   W04
 BYTE   Cs3
 BYTE   W04
 BYTE   Dn3
 BYTE   W04
 BYTE   Fs3
 BYTE   W04
 BYTE   An3
 BYTE   W04
 BYTE   Cs4
 BYTE   W04
 BYTE   Dn4
 BYTE   W04
 BYTE   Fs4
 BYTE   W04
 BYTE   An4
 BYTE   W04
 BYTE   Cs5
 BYTE   W04
 BYTE   Dn5
 BYTE   W04
 BYTE   Cs5
 BYTE   W04
 BYTE   An4
 BYTE   W04
 BYTE   Fs4
 BYTE   W04
 BYTE   Dn4
 BYTE   W04
 BYTE   PEND 
//  #08 //026   ----------------------------------------
 BYTE   Cs4
 BYTE   W04
 BYTE   An3
 BYTE   W04
 BYTE   Fs3
 BYTE   W04
 BYTE   Dn3
 BYTE   W04
 BYTE   Cs3
 BYTE   W04
 BYTE   An2
 BYTE   W76
//  #08 //027   ----------------------------------------
 BYTE   PATT
  POIN2 Label_0100533C
//  #08 //028   ----------------------------------------
 BYTE   PATT
  POIN2 Label_01005362
//  #08 //029   ----------------------------------------
 BYTE   PATT
  POIN2 Label_01005381
//  #08 //030   ----------------------------------------
 BYTE   N03  Cs4  v127
 BYTE   W04
 BYTE   An3
 BYTE   W04
 BYTE   Fs3
 BYTE   W04
 BYTE   Dn3
 BYTE   W04
 BYTE   Cs3
 BYTE   W04
 BYTE   An2
 BYTE   W04
 BYTE   GoTo
  POIN2 Label_01005335
 BYTE   FINE

//**************** Track 9 (Midi-Chn.8) ****************//

RefreshingToilets_009:
//  #09 //000   ----------------------------------------
 BYTE   KEYSH   RefreshingToilets_key+0
 BYTE   VOICE   74
 BYTE   VOL   22*RefreshingToilets_mvl/mxv
 BYTE   PAN   c_v+63
 BYTE   W96
//  #09 //001   ----------------------------------------
 BYTE   W96
//  #09 //002   ----------------------------------------
 BYTE   W96
//  #09 //003   ----------------------------------------
 BYTE   W96
//  #09 //004   ----------------------------------------
 BYTE   W96
//  #09 //005   ----------------------------------------
 BYTE   W96
//  #09 //006   ----------------------------------------
 BYTE   W96
//  #09 //007   ----------------------------------------
 BYTE   W96
//  #09 //008   ----------------------------------------
 BYTE   W24
Label_010058C9:
 BYTE   N44  Dn4  v127
 BYTE   W48
 BYTE   N23  Cs4
 BYTE   W24
//  #09 //009   ----------------------------------------
 BYTE   Dn4
 BYTE   W24
 BYTE   N44  Cs4
 BYTE   W48
 BYTE   Bn3
 BYTE   W24
//  #09 //010   ----------------------------------------
 BYTE   W24
 BYTE   N68  Cs4
 BYTE   W72
//  #09 //011   ----------------------------------------
 BYTE   N23  En4
 BYTE   W24
 BYTE   N44  Gs4
 BYTE   W48
 BYTE   TIE  An4
 BYTE   W24
//  #09 //012   ----------------------------------------
 BYTE   W92
 BYTE   W03
 BYTE   EOT
 BYTE   W01
//  #09 //013   ----------------------------------------
Label_010058E8:
 BYTE   N23  An4  v127
 BYTE   W24
 BYTE   Gs4
 BYTE   W24
 BYTE   Fs4
 BYTE   W24
 BYTE   En4
 BYTE   W24
 BYTE   PEND 
//  #09 //014   ----------------------------------------
Label_010058F3:
 BYTE   N23  Dn4  v127
 BYTE   W24
 BYTE   TIE  Cs4
 BYTE   W72
 BYTE   PEND 
//  #09 //015   ----------------------------------------
 BYTE   W96
//  #09 //016   ----------------------------------------
 BYTE   W23
 BYTE   EOT
 BYTE   W01
 BYTE   N44  Fn4
 BYTE   W48
 BYTE   N23  En4
 BYTE   W24
//  #09 //017   ----------------------------------------
 BYTE   Fn4
 BYTE   W24
 BYTE   N44  En4
 BYTE   W48
 BYTE   Dn4
 BYTE   W24
//  #09 //018   ----------------------------------------
 BYTE   W24
 BYTE   N68  Gn4
 BYTE   W72
//  #09 //019   ----------------------------------------
 BYTE   N23  Bn3
 BYTE   W24
 BYTE   N44
 BYTE   W48
 BYTE   An3
 BYTE   W24
//  #09 //020   ----------------------------------------
 BYTE   W24
 BYTE   N68  An4
 BYTE   W72
//  #09 //021   ----------------------------------------
 BYTE   PATT
  POIN2 Label_010058E8
//  #09 //022   ----------------------------------------
 BYTE   PATT
  POIN2 Label_010058F3
//  #09 //023   ----------------------------------------
 BYTE   W96
//  #09 //024   ----------------------------------------
 BYTE   W23
 BYTE   EOT
 BYTE   Cs4
 BYTE   W01
 BYTE   TIE  An3  v127
 BYTE   W72
//  #09 //025   ----------------------------------------
 BYTE   W96
//  #09 //026   ----------------------------------------
 BYTE   W23
 BYTE   EOT
 BYTE   W01
 BYTE   TIE  Gs3
 BYTE   W72
//  #09 //027   ----------------------------------------
 BYTE   W96
//  #09 //028   ----------------------------------------
 BYTE   W23
 BYTE   EOT
 BYTE   W01
 BYTE   TIE  Fs3
 BYTE   W72
//  #09 //029   ----------------------------------------
 BYTE   W96
//  #09 //030   ----------------------------------------
 BYTE   W23
 BYTE   EOT
 BYTE   W01
 BYTE   GoTo
  POIN2 Label_010058C9
 BYTE   FINE

//******************************************************//
	ALIGN 4

RefreshingToilets:
	BYTE	9	// NumTrks
	BYTE	0	// NumBlks
	BYTE	RefreshingToilets_pri	// Priority
	BYTE	RefreshingToilets_rev	// Reverb.
    
	POIN2	RefreshingToilets_grp
    
	POIN2	RefreshingToilets_001
	POIN2	RefreshingToilets_002
	POIN2	RefreshingToilets_003
	POIN2	RefreshingToilets_004
	POIN2	RefreshingToilets_005
	POIN2	RefreshingToilets_006
	POIN2	RefreshingToilets_007
	POIN2	RefreshingToilets_008
	POIN2	RefreshingToilets_009

	
