//Event file generated from Sappy .s format.
	#include "MPlayDef.event"

	#define	RightRoad_grp  voicegroup000
	#define	RightRoad_pri  0
	#define	RightRoad_rev  0
	#define	RightRoad_mvl  127
	#define	RightRoad_key  0
	#define	RightRoad_tbs  1
	#define	RightRoad_exg  0
	#define	RightRoad_cmp  1

	// .rodata
	//	RightRoad
	ALIGN 4


//**************** Track 1 (Midi-Chn.0) ****************//

RightRoad_001:
//  #01 //000   ----------------------------------------
 BYTE   KEYSH   RightRoad_key+0
Label_0176E082:
 BYTE   TEMPO   106*RightRoad_tbs/2
 BYTE   VOICE   73
 BYTE   VOL   38*RightRoad_mvl/mxv
 BYTE   PAN   c_v+0
 BYTE   BEND   c_v+0
 BYTE   W96
//  #01 //001   ----------------------------------------
 BYTE   W96
//  #01 //002   ----------------------------------------
 BYTE   W48
 BYTE   TEMPO   104*RightRoad_tbs/2
 BYTE   W30
 BYTE   TEMPO   100*RightRoad_tbs/2
 BYTE   W18
//  #01 //003   ----------------------------------------
 BYTE   W06
 BYTE   TEMPO   104*RightRoad_tbs/2
 BYTE   W24
 BYTE   TEMPO   106*RightRoad_tbs/2
 BYTE   W66
//  #01 //004   ----------------------------------------
 BYTE   W96
//  #01 //005   ----------------------------------------
 BYTE   W48
 BYTE   TEMPO   104*RightRoad_tbs/2
 BYTE   W24
 BYTE   TEMPO   96*RightRoad_tbs/2
 BYTE   W24
//  #01 //006   ----------------------------------------
 BYTE   W06
 BYTE   TEMPO   102*RightRoad_tbs/2
 BYTE   W06
 BYTE   TEMPO   102*RightRoad_tbs/2
 BYTE   W06
 BYTE   TEMPO   104*RightRoad_tbs/2
 BYTE   W06
 BYTE   TEMPO   106*RightRoad_tbs/2
 BYTE   W72
//  #01 //007   ----------------------------------------
 BYTE   W96
//  #01 //008   ----------------------------------------
 BYTE   W36
 BYTE   TEMPO   102*RightRoad_tbs/2
 BYTE   W36
 BYTE   TEMPO   102*RightRoad_tbs/2
 BYTE   W24
//  #01 //009   ----------------------------------------
 BYTE   TEMPO   104*RightRoad_tbs/2
 BYTE   W96
//  #01 //010   ----------------------------------------
 BYTE   W96
//  #01 //011   ----------------------------------------
 BYTE   W42
 BYTE   TEMPO   102*RightRoad_tbs/2
 BYTE   W30
 BYTE   TEMPO   96*RightRoad_tbs/2
 BYTE   W24
//  #01 //012   ----------------------------------------
 BYTE   TEMPO   104*RightRoad_tbs/2
 BYTE   W96
//  #01 //013   ----------------------------------------
 BYTE   W96
//  #01 //014   ----------------------------------------
 BYTE   W48
 BYTE   TEMPO   102*RightRoad_tbs/2
 BYTE   W30
 BYTE   TEMPO   96*RightRoad_tbs/2
 BYTE   W18
//  #01 //015   ----------------------------------------
 BYTE   TEMPO   104*RightRoad_tbs/2
 BYTE   W96
//  #01 //016   ----------------------------------------
 BYTE   TEMPO   100*RightRoad_tbs/2
 BYTE   W24
 BYTE   TEMPO   90*RightRoad_tbs/2
 BYTE   W24
 BYTE   N68  Gn1  v080
 BYTE   W06
 BYTE   TEMPO   106*RightRoad_tbs/2
 BYTE   W06
 BYTE   N23  Dn2  v092
 BYTE   W12
 BYTE   N44  Gn2
 BYTE   W12
 BYTE   N32  An2
 BYTE   W01
 BYTE   Dn3
 BYTE   W11
//  #01 //017   ----------------------------------------
Label_0176E0EB:
 BYTE   W24
 BYTE   N68  An1  v060
 BYTE   W01
 BYTE   N44  An2  v072
 BYTE   N44  Fn3  v084
 BYTE   W01
 BYTE   Cn3  v072
 BYTE   W44
 BYTE   W03
 BYTE   N21  Gn2  v060
 BYTE   N21  En3  v084
 BYTE   W01
 BYTE   Cn3  v060
 BYTE   W22
 BYTE   PEND 
//  #01 //018   ----------------------------------------
 BYTE   N68  As1  v076
 BYTE   W01
 BYTE   Fn2  v072
 BYTE   N68  Dn3  v084
 BYTE   W01
 BYTE   As2  v072
 BYTE   W68
 BYTE   W02
 BYTE   Cn2  v064
 BYTE   W01
 BYTE   Fn2  v044
 BYTE   N68  Dn3  v056
 BYTE   W01
 BYTE   Gn2  v044
 BYTE   W16
 BYTE   TEMPO   102*RightRoad_tbs/2
 BYTE   W06
//  #01 //019   ----------------------------------------
 BYTE   W12
 BYTE   TEMPO   96*RightRoad_tbs/2
 BYTE   W36
 BYTE   TEMPO   106*RightRoad_tbs/2
 BYTE   Gn1  v080
 BYTE   W12
 BYTE   N23  Dn2  v092
 BYTE   W12
 BYTE   N44  Gn2
 BYTE   W12
 BYTE   N32  An2
 BYTE   W01
 BYTE   Dn3
 BYTE   W11
//  #01 //020   ----------------------------------------
 BYTE   PATT
  POIN2 Label_0176E0EB
//  #01 //021   ----------------------------------------
 BYTE   N68  As1  v076
 BYTE   W01
 BYTE   Fn2  v072
 BYTE   N68  Dn3  v084
 BYTE   W01
 BYTE   As2  v072
 BYTE   W68
 BYTE   W02
 BYTE   Cn2  v064
 BYTE   W01
 BYTE   Fn2  v072
 BYTE   N68  Dn3  v084
 BYTE   W01
 BYTE   Gn2  v072
 BYTE   W22
//  #01 //022   ----------------------------------------
 BYTE   W48
 BYTE   Gn1  v080
 BYTE   W12
 BYTE   N23  Dn2  v092
 BYTE   W12
 BYTE   N44  Gn2
 BYTE   W12
 BYTE   N32  An2
 BYTE   W01
 BYTE   Dn3
 BYTE   W11
//  #01 //023   ----------------------------------------
 BYTE   W24
 BYTE   N68  An1  v060
 BYTE   W01
 BYTE   An2  v072
 BYTE   N68  Fn3  v084
 BYTE   W01
 BYTE   N44  Cn3  v072
 BYTE   W48
 BYTE   N21  Cn3  v060
 BYTE   W22
//  #01 //024   ----------------------------------------
 BYTE   N68  As1  v076
 BYTE   W01
 BYTE   Fn2  v072
 BYTE   N68  Dn3  v084
 BYTE   W01
 BYTE   As2  v072
 BYTE   W68
 BYTE   W02
 BYTE   Cn2
 BYTE   W01
 BYTE   N32  Fn2
 BYTE   N56  Dn3  v084
 BYTE   W01
 BYTE   N44  Gn2  v072
 BYTE   W22
//  #01 //025   ----------------------------------------
 BYTE   TEMPO   100*RightRoad_tbs/2
 BYTE   W12
 BYTE   N36  Fn2
 BYTE   W12
 BYTE   TEMPO   102*RightRoad_tbs/2
 BYTE   N24  Gn2
 BYTE   W12
 BYTE   N12  Dn3  v064
 BYTE   W12
 BYTE   TEMPO   106*RightRoad_tbs/2
 BYTE   N68  Ds2  v076
 BYTE   W01
 BYTE   N32  As2  v072
 BYTE   N56  Gn3  v084
 BYTE   W01
 BYTE   N44  Cn3  v072
 BYTE   W32
 BYTE   W02
 BYTE   N36  As2  v080
 BYTE   W12
//  #01 //026   ----------------------------------------
 BYTE   N24  Cn3
 BYTE   W12
 BYTE   N12  Gn3  v084
 BYTE   W12
 BYTE   N68  Dn2  v076
 BYTE   W01
 BYTE   N21  An2  v072
 BYTE   N68  Fn3  v084
 BYTE   W01
 BYTE   N44  Cn3  v072
 BYTE   W22
 BYTE   N48  An2  v080
 BYTE   W24
 BYTE   N24  Cn3
 BYTE   W24
//  #01 //027   ----------------------------------------
 BYTE   N68  Cn2  v076
 BYTE   W01
 BYTE   N21  Fn2  v072
 BYTE   N68  Dn3  v084
 BYTE   W01
 BYTE   N56  As2  v072
 BYTE   W22
 BYTE   N48  Fn2  v084
 BYTE   W36
 BYTE   N11  As2  v072
 BYTE   W12
 BYTE   N68  Dn2  v076
 BYTE   W01
 BYTE   N09  En2  v064
 BYTE   N32  Cn3  v084
 BYTE   W01
 BYTE   N21  Gn2  v072
 BYTE   W10
 BYTE   N60  En2
 BYTE   W12
//  #01 //028   ----------------------------------------
 BYTE   N48  Gn2  v084
 BYTE   W12
 BYTE   N36  Cn3
 BYTE   W36
 BYTE   N68  Ds2  v076
 BYTE   W01
 BYTE   N21  As2  v072
 BYTE   N68  Gn3  v084
 BYTE   W01
 BYTE   N44  Cn3  v072
 BYTE   W22
 BYTE   N48  As2  v080
 BYTE   W24
//  #01 //029   ----------------------------------------
 BYTE   N24  Cn3
 BYTE   W24
 BYTE   N68  Fn2  v076
 BYTE   W01
 BYTE   N21  An2  v072
 BYTE   N68  Fn3  v084
 BYTE   W01
 BYTE   N44  Cn3  v072
 BYTE   W22
 BYTE   N48  An2  v080
 BYTE   W24
 BYTE   N24  Cn3
 BYTE   W24
//  #01 //030   ----------------------------------------
 BYTE   N68  Gn1  v088
 BYTE   W12
 BYTE   N23  Dn2  v092
 BYTE   W12
 BYTE   N44  Gn2
 BYTE   W12
 BYTE   N32  An2
 BYTE   W01
 BYTE   Dn3
 BYTE   W32
 BYTE   W03
 BYTE   N68  An1  v068
 BYTE   W01
 BYTE   N44  An2  v072
 BYTE   N44  Fn3  v084
 BYTE   W01
 BYTE   Cn3  v072
 BYTE   W22
//  #01 //031   ----------------------------------------
 BYTE   W24
 BYTE   W01
 BYTE   N21  Gn2  v060
 BYTE   N21  En3
 BYTE   W01
 BYTE   Cn3
 BYTE   W22
 BYTE   N68  As1  v068
 BYTE   W01
 BYTE   Fn2  v072
 BYTE   N68  Dn3  v084
 BYTE   W01
 BYTE   As2  v072
 BYTE   W44
 BYTE   W02
//  #01 //032   ----------------------------------------
 BYTE   W24
 BYTE   TIE  Cn2  v064
 BYTE   W02
 BYTE   Fn2
 BYTE   W01
 BYTE   Gn2
 BYTE   W01
 BYTE   Dn3  v060
 BYTE   W44
 BYTE   TEMPO   104*RightRoad_tbs/2
 BYTE   W24
//  #01 //033   ----------------------------------------
 BYTE   W54
 BYTE   TEMPO   96*RightRoad_tbs/2
 BYTE   W12
 BYTE   EOT
 BYTE   Gn2
 BYTE   W05
 BYTE   Cn2
 BYTE   W01
 BYTE   Fn2  v062
 BYTE   N32  Gn2  v072
 BYTE   N32  As2  v076
 BYTE   N12  Dn4  v064
 BYTE   W01
 BYTE   N32  Dn2  v056
 BYTE   N32  Ds2  v060
 BYTE   W05
 BYTE   TEMPO   104*RightRoad_tbs/2
 BYTE   W06
 BYTE   N07  Gn3  v068
 BYTE   W12
//  #01 //034   ----------------------------------------
 BYTE   N11  Gn3  v080
 BYTE   W12
 BYTE   N32  Ds2  v060
 BYTE   N11  Dn4  v068
 BYTE   W01
 BYTE   N32  Fn2  v064
 BYTE   N32  An2  v072
 BYTE   N32  Cn3
 BYTE   W11
 BYTE   N07  Gn3  v068
 BYTE   W11
 BYTE   N10
 BYTE   W12
 BYTE   N23  Cn2  v048
 BYTE   N24  Dn2  v052
 BYTE   N24  An2  v076
 BYTE   N12  Dn4  v064
 BYTE   W01
 BYTE   N23  Fn2  v060
 BYTE   W11
 BYTE   N13  Gn3  v056
 BYTE   W13
 BYTE   N80  Dn2  v052
 BYTE   N80  Ds2
 BYTE   W01
 BYTE   Gn2  v056
 BYTE   N80  As2  v072
 BYTE   N11  Dn4  v060
 BYTE   W11
 BYTE   N10  Gn3
 BYTE   W12
//  #01 //035   ----------------------------------------
 BYTE   Dn4  v068
 BYTE   W11
 BYTE   N09  Gn3
 BYTE   W13
 BYTE   N11  Dn4  v076
 BYTE   W13
 BYTE   N07  Gn3  v084
 BYTE   W11
 BYTE   N10  Gn3  v072
 BYTE   W11
 BYTE   N36  Ds2  v052
 BYTE   W01
 BYTE   N32  Fn2  v056
 BYTE   N32  Cn3  v068
 BYTE   N10  Dn4  v076
 BYTE   W01
 BYTE   N32  An2  v072
 BYTE   W10
 BYTE   N07  Gn3  v084
 BYTE   W12
 BYTE   N11  Gn3  v076
 BYTE   W11
 BYTE   N12  Dn4  v072
 BYTE   W01
 BYTE   N22  Dn2  v044
 BYTE   N23  Fn2  v056
 BYTE   N24  An2  v072
 BYTE   W01
//  #01 //036   ----------------------------------------
 BYTE   TEMPO   102*RightRoad_tbs/2
 BYTE   N22  Cn2  v052
 BYTE   W11
 BYTE   N11  Gn3  v064
 BYTE   W12
 BYTE   N44  Ds2  v056
 BYTE   N44  Gn2  v072
 BYTE   W01
 BYTE   Dn2  v064
 BYTE   N44  As2  v068
 BYTE   N10  Dn4
 BYTE   W11
 BYTE   N13  Gn3  v064
 BYTE   W13
 BYTE   TEMPO   96*RightRoad_tbs/2
 BYTE   W01
 BYTE   N11  Dn4  v080
 BYTE   W11
 BYTE   Gn4
 BYTE   W12
 BYTE   TEMPO   104*RightRoad_tbs/2
 BYTE   N32  Cn3  v072
 BYTE   N32  Ds3  v076
 BYTE   W01
 BYTE   Gn2  v056
 BYTE   N32  Gs2  v060
 BYTE   W01
 BYTE   N11  Gn4  v072
 BYTE   W12
 BYTE   N06  Cn4  v080
 BYTE   W10
//  #01 //037   ----------------------------------------
 BYTE   N11
 BYTE   W12
 BYTE   N32  Gs2  v060
 BYTE   N10  Gn4  v076
 BYTE   W01
 BYTE   N32  As2  v064
 BYTE   N32  Dn3  v072
 BYTE   N32  Fn3
 BYTE   W10
 BYTE   N07  Cn4
 BYTE   W12
 BYTE   N11  Cn4  v076
 BYTE   W11
 BYTE   N12  Gn4  v060
 BYTE   W01
 BYTE   N23  Fn2  v048
 BYTE   N24  Gn2  v052
 BYTE   N24  Dn3  v076
 BYTE   W01
 BYTE   N23  As2  v060
 BYTE   W11
 BYTE   N13  Cn4  v080
 BYTE   W13
 BYTE   N80  Gn2  v052
 BYTE   N80  Gs2
 BYTE   W01
 BYTE   Cn3  v056
 BYTE   N80  Ds3  v072
 BYTE   N09  Gn4  v080
 BYTE   W10
 BYTE   N12  Cn4  v072
 BYTE   W12
 BYTE   N10  Gn4  v080
 BYTE   W01
//  #01 //038   ----------------------------------------
 BYTE   W10
 BYTE   N12  Cn4  v060
 BYTE   W13
 BYTE   Gn4  v072
 BYTE   W12
 BYTE   N07  Cn4  v060
 BYTE   W12
 BYTE   N12  Cn4  v072
 BYTE   W12
 BYTE   N36  Gs2  v052
 BYTE   W01
 BYTE   N32  As2  v056
 BYTE   N32  Fn3  v068
 BYTE   N11  Gn4  v072
 BYTE   W01
 BYTE   N32  Dn3
 BYTE   W10
 BYTE   N07  Cn4  v076
 BYTE   W12
 BYTE   N11  Cn4  v080
 BYTE   W12
 BYTE   N22  Gn2  v056
 BYTE   N23  As2  v076
 BYTE   N24  Dn3
 BYTE   N11  Gn4  v068
 BYTE   W01
//  #01 //039   ----------------------------------------
 BYTE   N22  Fn2  v060
 BYTE   W06
 BYTE   TEMPO   100*RightRoad_tbs/2
 BYTE   W05
 BYTE   N12  Cn4  v068
 BYTE   W12
 BYTE   N44  Gs2  v056
 BYTE   N44  Cn3  v072
 BYTE   W01
 BYTE   Gn2  v064
 BYTE   N44  Ds3  v068
 BYTE   N11  Gn4  v076
 BYTE   W12
 BYTE   N09  Cn4
 BYTE   W12
 BYTE   TEMPO   86*RightRoad_tbs/2
 BYTE   N12  Gn4  v084
 BYTE   W13
 BYTE   N11  Cn4  v092
 BYTE   W11
 BYTE   TEMPO   106*RightRoad_tbs/2
 BYTE   N68  Gn1
 BYTE   TIE  Gn4  v076
 BYTE   W12
 BYTE   N23  Dn2  v092
 BYTE   W12
//  #01 //040   ----------------------------------------
 BYTE   N44  Gn2
 BYTE   W12
 BYTE   N32  An2
 BYTE   W01
 BYTE   Dn3
 BYTE   W32
 BYTE   W03
 BYTE   N68  An1  v068
 BYTE   W01
 BYTE   N44  An2  v072
 BYTE   N44  Fn3  v084
 BYTE   W01
 BYTE   Cn3  v072
 BYTE   W36
 BYTE   W03
 BYTE   EOT
 BYTE   Gn4
 BYTE   W07
//  #01 //041   ----------------------------------------
 BYTE   W01
 BYTE   N21  Gn2  v060
 BYTE   N21  En3  v084
 BYTE   W01
 BYTE   Cn3  v060
 BYTE   W22
 BYTE   N68  As1  v088
 BYTE   W01
 BYTE   Fn2  v072
 BYTE   N68  Dn3  v084
 BYTE   W01
 BYTE   As2  v072
 BYTE   W68
 BYTE   W02
//  #01 //042   ----------------------------------------
 BYTE   N04  Cn2  v056
 BYTE   W02
 BYTE   N02  Fn2  v052
 BYTE   W01
 BYTE   N01  Gn2
 BYTE   W92
 BYTE   W01
//  #01 //043   ----------------------------------------
 BYTE   GoTo
  POIN2 Label_0176E082
 BYTE   FINE

//**************** Track 2 (Midi-Chn.1) ****************//

RightRoad_002:
//  #02 //000   ----------------------------------------
 BYTE   KEYSH   RightRoad_key+0
Label_0176E44A:
 BYTE   VOICE   41
 BYTE   VOL   29*RightRoad_mvl/mxv
 BYTE   PAN   c_v+0
 BYTE   BEND   c_v+0
 BYTE   N92  GnM1  v112
 BYTE   N68  An2
 BYTE   N68  Dn3
 BYTE   W03
 BYTE   W03
 BYTE   W03
 BYTE   W03
 BYTE   W03
 BYTE   W03
 BYTE   W03
 BYTE   W03
 BYTE   W03
 BYTE   W03
 BYTE   W03
 BYTE   W03
 BYTE   W03
 BYTE   W03
 BYTE   W03
 BYTE   W03
 BYTE   W03
 BYTE   W03
 BYTE   W03
 BYTE   W03
 BYTE   W03
 BYTE   W03
 BYTE   W06
 BYTE   Cn3
 BYTE   N44  Fn3
 BYTE   W04
 BYTE   W05
 BYTE   W06
 BYTE   W05
 BYTE   W04
//  #02 //001   ----------------------------------------
 BYTE   N23  AnM1
 BYTE   W01
 BYTE   W05
 BYTE   W06
 BYTE   W05
 BYTE   W01
 BYTE   W02
 BYTE   W01
 BYTE   W02
 BYTE   W01
 BYTE   TIE  GnM1
 BYTE   N23  En3
 BYTE   W02
 BYTE   W01
 BYTE   W02
 BYTE   W01
 BYTE   W02
 BYTE   W01
 BYTE   W02
 BYTE   W01
 BYTE   W02
 BYTE   W01
 BYTE   W02
 BYTE   W01
 BYTE   W02
 BYTE   W04
 BYTE   TIE  An2
 BYTE   TIE  Dn3
 BYTE   W15
 BYTE   W10
 BYTE   W10
 BYTE   W10
 BYTE   W03
//  #02 //002   ----------------------------------------
 BYTE   W06
 BYTE   W10
 BYTE   W03
 BYTE   W03
 BYTE   W03
 BYTE   W03
 BYTE   W03
 BYTE   W03
 BYTE   W03
 BYTE   W03
 BYTE   W03
 BYTE   W03
 BYTE   W03
 BYTE   W03
 BYTE   W03
 BYTE   W03
 BYTE   W03
 BYTE   W03
 BYTE   W03
 BYTE   W03
 BYTE   W03
 BYTE   W03
 BYTE   W03
 BYTE   W03
 BYTE   W03
 BYTE   W03
 BYTE   W03
 BYTE   W03
 BYTE   W01
 BYTE   EOT
 BYTE   GnM1  v057
 BYTE   Dn3
 BYTE   W01
//  #02 //003   ----------------------------------------
 BYTE   N92  GnM1
 BYTE   N68  An2
 BYTE   N68  Dn3
 BYTE   W01
 BYTE   W03
 BYTE   W03
 BYTE   W03
 BYTE   W03
 BYTE   W03
 BYTE   W03
 BYTE   W03
 BYTE   W03
 BYTE   W03
 BYTE   W03
 BYTE   W03
 BYTE   W03
 BYTE   W03
 BYTE   W03
 BYTE   W03
 BYTE   W03
 BYTE   W03
 BYTE   W03
 BYTE   W03
 BYTE   W03
 BYTE   W03
 BYTE   W03
 BYTE   W03
 BYTE   W02
 BYTE   Cn3
 BYTE   N44  Fn3
 BYTE   W01
 BYTE   W02
 BYTE   W07
 BYTE   W06
 BYTE   W06
 BYTE   W02
//  #02 //004   ----------------------------------------
 BYTE   N23  AnM1
 BYTE   W05
 BYTE   W06
 BYTE   W09
 BYTE   W04
 BYTE   TIE  GnM1
 BYTE   N23  En3
 BYTE   W01
 BYTE   W04
 BYTE   W04
 BYTE   W05
 BYTE   W04
 BYTE   W05
 BYTE   W01
 BYTE   TIE  An2
 BYTE   TIE  Dn3
 BYTE   W03
 BYTE   W03
 BYTE   W03
 BYTE   W03
 BYTE   W03
 BYTE   W03
 BYTE   W03
 BYTE   W03
 BYTE   W03
 BYTE   W03
 BYTE   W03
 BYTE   W03
 BYTE   W03
 BYTE   W03
 BYTE   W03
 BYTE   W03
//  #02 //005   ----------------------------------------
 BYTE   W03
 BYTE   W03
 BYTE   W03
 BYTE   W03
 BYTE   W03
 BYTE   W03
 BYTE   W03
 BYTE   W03
 BYTE   W03
 BYTE   W03
 BYTE   W03
 BYTE   W03
 BYTE   W03
 BYTE   W03
 BYTE   W03
 BYTE   W03
 BYTE   W03
 BYTE   W03
 BYTE   W03
 BYTE   W03
 BYTE   W03
 BYTE   W03
 BYTE   W03
 BYTE   W03
 BYTE   W03
 BYTE   W03
 BYTE   W03
 BYTE   W03
 BYTE   W03
 BYTE   W03
 BYTE   W03
 BYTE   W01
 BYTE   W01
 BYTE   EOT
 BYTE   GnM1  v057
 BYTE   Dn3
 BYTE   W01
//  #02 //006   ----------------------------------------
 BYTE   N92  GnM1
 BYTE   N68  An2
 BYTE   N68  Dn3
 BYTE   W01
 BYTE   W01
 BYTE   W02
 BYTE   W01
 BYTE   W02
 BYTE   W01
 BYTE   W02
 BYTE   W01
 BYTE   W02
 BYTE   W01
 BYTE   W02
 BYTE   W01
 BYTE   W02
 BYTE   W01
 BYTE   W02
 BYTE   W01
 BYTE   W02
 BYTE   W01
 BYTE   W02
 BYTE   W01
 BYTE   W02
 BYTE   W01
 BYTE   W02
 BYTE   W01
 BYTE   W02
 BYTE   W01
 BYTE   W02
 BYTE   W01
 BYTE   W02
 BYTE   W01
 BYTE   W02
 BYTE   W01
 BYTE   W02
 BYTE   W01
 BYTE   W02
 BYTE   W01
 BYTE   W02
 BYTE   W01
 BYTE   W02
 BYTE   W01
 BYTE   W02
 BYTE   W01
 BYTE   W02
 BYTE   W01
 BYTE   W02
 BYTE   W01
 BYTE   W02
 BYTE   W01
 BYTE   W01
 BYTE   Cn3
 BYTE   N44  Fn3
 BYTE   W01
 BYTE   W01
 BYTE   W06
 BYTE   W06
 BYTE   W06
 BYTE   W04
//  #02 //007   ----------------------------------------
 BYTE   N23  AnM1
 BYTE   W02
 BYTE   W06
 BYTE   W06
 BYTE   W06
 BYTE   W04
 BYTE   TIE  GnM1
 BYTE   N23  En3
 BYTE   W03
 BYTE   W01
 BYTE   W02
 BYTE   W01
 BYTE   W02
 BYTE   W01
 BYTE   W02
 BYTE   W01
 BYTE   W02
 BYTE   W01
 BYTE   W02
 BYTE   W01
 BYTE   W02
 BYTE   W01
 BYTE   W02
 BYTE   TIE  An2
 BYTE   TIE  Dn3
 BYTE   W01
 BYTE   W02
 BYTE   W09
 BYTE   W09
 BYTE   W09
 BYTE   W09
 BYTE   W09
//  #02 //008   ----------------------------------------
 BYTE   W01
 BYTE   W09
 BYTE   W09
 BYTE   W09
 BYTE   W01
 BYTE   W02
 BYTE   W01
 BYTE   W02
 BYTE   W01
 BYTE   W02
 BYTE   W01
 BYTE   W02
 BYTE   W01
 BYTE   W02
 BYTE   W01
 BYTE   W02
 BYTE   W01
 BYTE   W02
 BYTE   W01
 BYTE   W02
 BYTE   W01
 BYTE   W02
 BYTE   W01
 BYTE   W02
 BYTE   W01
 BYTE   W02
 BYTE   W01
 BYTE   W02
 BYTE   W01
 BYTE   W02
 BYTE   W01
 BYTE   W02
 BYTE   W01
 BYTE   W02
 BYTE   W01
 BYTE   W02
 BYTE   W01
 BYTE   W02
 BYTE   W01
 BYTE   W02
 BYTE   W01
 BYTE   W02
 BYTE   W01
 BYTE   W02
 BYTE   W01
 BYTE   W02
 BYTE   W01
 BYTE   W02
 BYTE   W01
 BYTE   EOT
 BYTE   GnM1  v057
 BYTE   Dn3
 BYTE   W01
//  #02 //009   ----------------------------------------
 BYTE   N92  GnM1
 BYTE   N68  An2
 BYTE   N68  Dn3
 BYTE   W01
 BYTE   W01
 BYTE   W02
 BYTE   W01
 BYTE   W02
 BYTE   W01
 BYTE   W02
 BYTE   W01
 BYTE   W02
 BYTE   W01
 BYTE   W02
 BYTE   W01
 BYTE   W02
 BYTE   W01
 BYTE   W02
 BYTE   W01
 BYTE   W02
 BYTE   W01
 BYTE   W02
 BYTE   W01
 BYTE   W02
 BYTE   W01
 BYTE   W02
 BYTE   W01
 BYTE   W02
 BYTE   W01
 BYTE   W02
 BYTE   W01
 BYTE   W02
 BYTE   W01
 BYTE   W02
 BYTE   W01
 BYTE   W02
 BYTE   W01
 BYTE   W02
 BYTE   W01
 BYTE   W02
 BYTE   W01
 BYTE   W02
 BYTE   W01
 BYTE   W02
 BYTE   W01
 BYTE   W02
 BYTE   W01
 BYTE   W02
 BYTE   W01
 BYTE   W02
 BYTE   W02
 BYTE   Cn3
 BYTE   N44  Fn3
 BYTE   W08
 BYTE   W05
 BYTE   W04
 BYTE   W05
 BYTE   W02
//  #02 //010   ----------------------------------------
 BYTE   N23  AnM1
 BYTE   W03
 BYTE   W05
 BYTE   W05
 BYTE   W05
 BYTE   W05
 BYTE   W01
 BYTE   TIE  GnM1
 BYTE   N23  En3
 BYTE   W01
 BYTE   W01
 BYTE   W02
 BYTE   W01
 BYTE   W02
 BYTE   W01
 BYTE   W02
 BYTE   W01
 BYTE   W02
 BYTE   W01
 BYTE   W02
 BYTE   W01
 BYTE   W02
 BYTE   W01
 BYTE   W02
 BYTE   W02
 BYTE   TIE  An2
 BYTE   TIE  Dn3
 BYTE   W14
 BYTE   W08
 BYTE   W08
 BYTE   W08
 BYTE   W08
 BYTE   W02
//  #02 //011   ----------------------------------------
 BYTE   W06
 BYTE   W08
 BYTE   W08
 BYTE   W03
 BYTE   W03
 BYTE   W03
 BYTE   W03
 BYTE   W03
 BYTE   W03
 BYTE   W03
 BYTE   W03
 BYTE   W03
 BYTE   W03
 BYTE   W03
 BYTE   W03
 BYTE   W03
 BYTE   W03
 BYTE   W03
 BYTE   W03
 BYTE   W03
 BYTE   W03
 BYTE   W03
 BYTE   W03
 BYTE   W03
 BYTE   W03
 BYTE   W03
 BYTE   W02
 BYTE   W02
 BYTE   EOT
 BYTE   GnM1  v057
 BYTE   Dn3
 BYTE   W01
//  #02 //012   ----------------------------------------
 BYTE   N68  AsM1
 BYTE   TIE  Cn3
 BYTE   N68  Gn3
 BYTE   W03
 BYTE   W03
 BYTE   W03
 BYTE   W03
 BYTE   W03
 BYTE   W03
 BYTE   W03
 BYTE   W03
 BYTE   W03
 BYTE   W03
 BYTE   W03
 BYTE   W03
 BYTE   W03
 BYTE   W03
 BYTE   W03
 BYTE   W03
 BYTE   W03
 BYTE   W03
 BYTE   W09
 BYTE   W04
 BYTE   W04
 BYTE   W01
 BYTE   N44  AnM1
 BYTE   N44  Fn3
 BYTE   W04
 BYTE   W04
 BYTE   W04
 BYTE   W05
 BYTE   W04
 BYTE   W03
//  #02 //013   ----------------------------------------
 BYTE   W01
 BYTE   W05
 BYTE   W04
 BYTE   W05
 BYTE   W04
 BYTE   W04
 BYTE   EOT
 BYTE   Cn3
 BYTE   W01
 BYTE   N92  FnM1
 BYTE   N23  AnM1
 BYTE   N23  Cn3
 BYTE   W24
 BYTE   N68  As2
 BYTE   N68  Dn3
 BYTE   W07
 BYTE   W03
 BYTE   W03
 BYTE   W03
 BYTE   W03
 BYTE   W03
 BYTE   W03
 BYTE   W03
 BYTE   W03
 BYTE   W03
 BYTE   W01
 BYTE   W03
 BYTE   W03
 BYTE   W03
 BYTE   W03
 BYTE   W01
//  #02 //014   ----------------------------------------
 BYTE   W02
 BYTE   W03
 BYTE   W03
 BYTE   W03
 BYTE   W03
 BYTE   W03
 BYTE   W03
 BYTE   W03
 BYTE   W01
 BYTE   EnM1
 BYTE   TIE  Gn2
 BYTE   N68  Cn3
 BYTE   W02
 BYTE   W03
 BYTE   W03
 BYTE   W03
 BYTE   W03
 BYTE   W03
 BYTE   W03
 BYTE   W03
 BYTE   W03
 BYTE   W03
 BYTE   W03
 BYTE   W03
 BYTE   W03
 BYTE   W03
 BYTE   W03
 BYTE   W03
 BYTE   W03
 BYTE   W03
 BYTE   W03
 BYTE   W03
 BYTE   W03
 BYTE   W02
 BYTE   W02
 BYTE   W01
 BYTE   W02
 BYTE   W01
 BYTE   W02
//  #02 //015   ----------------------------------------
 BYTE   FnM1
 BYTE   N68  As2
 BYTE   W01
 BYTE   W02
 BYTE   W01
 BYTE   W02
 BYTE   W01
 BYTE   W02
 BYTE   W01
 BYTE   W02
 BYTE   W01
 BYTE   W02
 BYTE   W01
 BYTE   W02
 BYTE   W01
 BYTE   W02
 BYTE   W01
 BYTE   W02
 BYTE   W01
 BYTE   W03
 BYTE   W03
 BYTE   W03
 BYTE   W03
 BYTE   W03
 BYTE   W03
 BYTE   W03
 BYTE   W03
 BYTE   W03
 BYTE   W03
 BYTE   W03
 BYTE   W03
 BYTE   W02
 BYTE   W08
 BYTE   EOT
 BYTE   Gn2
 BYTE   W01
 BYTE   N68  GnM1
 BYTE   N68  An2
 BYTE   N68  Cn3
 BYTE   W03
 BYTE   W06
 BYTE   W06
 BYTE   W06
 BYTE   W03
//  #02 //016   ----------------------------------------
 BYTE   W03
 BYTE   W05
 BYTE   W06
 BYTE   W06
 BYTE   W06
 BYTE   W03
 BYTE   W03
 BYTE   W03
 BYTE   W03
 BYTE   W03
 BYTE   W03
 BYTE   W03
 BYTE   W03
 BYTE   W03
 BYTE   W03
 BYTE   W03
 BYTE   W03
 BYTE   W02
 BYTE   W02
 BYTE   W01
 BYTE   W02
 BYTE   W01
 BYTE   W02
 BYTE   W01
 BYTE   W02
 BYTE   W21
//  #02 //017   ----------------------------------------
 BYTE   W96
//  #02 //018   ----------------------------------------
 BYTE   W72
 BYTE   W02
 BYTE   W22
//  #02 //019   ----------------------------------------
 BYTE   W15
 BYTE   W01
 BYTE   W01
 BYTE   W01
 BYTE   W01
 BYTE   W01
 BYTE   W01
 BYTE   W01
 BYTE   W01
 BYTE   W01
 BYTE   W01
 BYTE   W01
 BYTE   W01
 BYTE   W01
 BYTE   W01
 BYTE   W01
 BYTE   W01
 BYTE   W01
 BYTE   W01
 BYTE   W01
 BYTE   W01
 BYTE   W01
 BYTE   W01
 BYTE   W01
 BYTE   W01
 BYTE   W01
 BYTE   W01
 BYTE   W01
 BYTE   W06
 BYTE   N11  Gn2  v120
 BYTE   W12
 BYTE   Cn3
 BYTE   W12
 BYTE   Dn3
 BYTE   W12
 BYTE   N32  Gn3
 BYTE   W02
 BYTE   W02
 BYTE   W01
 BYTE   W02
 BYTE   W01
 BYTE   W02
 BYTE   W01
 BYTE   W01
//  #02 //020   ----------------------------------------
 BYTE   W01
 BYTE   W01
 BYTE   W02
 BYTE   W02
 BYTE   W01
 BYTE   W02
 BYTE   W01
 BYTE   W02
 BYTE   W01
 BYTE   W02
 BYTE   W01
 BYTE   W02
 BYTE   W01
 BYTE   W02
 BYTE   W01
 BYTE   W01
 BYTE   W01
 BYTE   Fn3
 BYTE   W01
 BYTE   W01
 BYTE   W02
 BYTE   W01
 BYTE   W02
 BYTE   W01
 BYTE   W02
 BYTE   W01
 BYTE   W02
 BYTE   W01
 BYTE   W01
 BYTE   W03
 BYTE   W03
 BYTE   W03
 BYTE   W03
 BYTE   W03
 BYTE   W03
 BYTE   W03
 BYTE   N23  Cn3
 BYTE   W04
 BYTE   W03
 BYTE   W04
 BYTE   W03
 BYTE   W04
 BYTE   W04
 BYTE   W02
 BYTE   N11  En3
 BYTE   W01
 BYTE   W04
 BYTE   W03
 BYTE   W04
//  #02 //021   ----------------------------------------
 BYTE   TIE  Dn3
 BYTE   W03
 BYTE   W02
 BYTE   W01
 BYTE   W02
 BYTE   W01
 BYTE   W02
 BYTE   W01
 BYTE   W02
 BYTE   W01
 BYTE   W01
 BYTE   W03
 BYTE   W03
 BYTE   W03
 BYTE   W03
 BYTE   W03
 BYTE   W03
 BYTE   W03
 BYTE   W03
 BYTE   W03
 BYTE   W03
 BYTE   W03
 BYTE   W03
 BYTE   W03
 BYTE   W03
 BYTE   W03
 BYTE   W03
 BYTE   W03
 BYTE   W03
 BYTE   W03
 BYTE   W03
 BYTE   W03
 BYTE   W03
 BYTE   W03
 BYTE   W03
 BYTE   W03
 BYTE   W03
 BYTE   W02
//  #02 //022   ----------------------------------------
 BYTE   W01
 BYTE   W02
 BYTE   W01
 BYTE   W02
 BYTE   W01
 BYTE   W02
 BYTE   W01
 BYTE   W02
 BYTE   W01
 BYTE   W02
 BYTE   W01
 BYTE   W02
 BYTE   W01
 BYTE   W02
 BYTE   W01
 BYTE   W02
 BYTE   W01
 BYTE   W02
 BYTE   W01
 BYTE   W02
 BYTE   W01
 BYTE   W02
 BYTE   W01
 BYTE   W02
 BYTE   W01
 BYTE   W02
 BYTE   W01
 BYTE   W01
 BYTE   EOT
 BYTE   W01
 BYTE   W01
 BYTE   W01
 BYTE   W01
 BYTE   W01
 BYTE   W01
 BYTE   W01
 BYTE   N11  Gn2
 BYTE   W01
 BYTE   W11
 BYTE   Cn3
 BYTE   W12
 BYTE   Dn3
 BYTE   W12
 BYTE   N32  Gn3
 BYTE   W01
 BYTE   W02
 BYTE   W01
 BYTE   W02
 BYTE   W01
 BYTE   W02
 BYTE   W01
 BYTE   W02
//  #02 //023   ----------------------------------------
 BYTE   W01
 BYTE   W02
 BYTE   W01
 BYTE   W01
 BYTE   W02
 BYTE   W01
 BYTE   W02
 BYTE   W01
 BYTE   W02
 BYTE   W01
 BYTE   W02
 BYTE   W01
 BYTE   W02
 BYTE   W01
 BYTE   W02
 BYTE   W01
 BYTE   W01
 BYTE   Fn3
 BYTE   W03
 BYTE   W03
 BYTE   W03
 BYTE   W03
 BYTE   W03
 BYTE   W03
 BYTE   W02
 BYTE   W02
 BYTE   W01
 BYTE   W02
 BYTE   W01
 BYTE   W02
 BYTE   W01
 BYTE   W02
 BYTE   W01
 BYTE   W02
 BYTE   W01
 BYTE   W01
 BYTE   N11  An3
 BYTE   W12
 BYTE   Fn3
 BYTE   W02
 BYTE   W08
 BYTE   W02
 BYTE   An3
 BYTE   W05
 BYTE   W07
//  #02 //024   ----------------------------------------
 BYTE   TIE  Gn3
 BYTE   W01
 BYTE   W01
 BYTE   W02
 BYTE   W01
 BYTE   W02
 BYTE   W01
 BYTE   W02
 BYTE   W01
 BYTE   W02
 BYTE   W01
 BYTE   W02
 BYTE   W01
 BYTE   W02
 BYTE   W01
 BYTE   W02
 BYTE   W01
 BYTE   W03
 BYTE   W03
 BYTE   W03
 BYTE   W03
 BYTE   W03
 BYTE   W03
 BYTE   W03
 BYTE   W03
 BYTE   W03
 BYTE   W03
 BYTE   W03
 BYTE   W03
 BYTE   W03
 BYTE   W03
 BYTE   W03
 BYTE   W03
 BYTE   W03
 BYTE   W03
 BYTE   W03
 BYTE   W03
 BYTE   W03
 BYTE   W03
 BYTE   W03
 BYTE   W03
 BYTE   W01
//  #02 //025   ----------------------------------------
 BYTE   W02
 BYTE   W02
 BYTE   W01
 BYTE   W01
 BYTE   W02
 BYTE   W01
 BYTE   W02
 BYTE   W01
 BYTE   W02
 BYTE   W01
 BYTE   W02
 BYTE   W01
 BYTE   W02
 BYTE   W01
 BYTE   W02
 BYTE   W01
 BYTE   W02
 BYTE   W01
 BYTE   W02
 BYTE   W01
 BYTE   W02
 BYTE   W01
 BYTE   W02
 BYTE   W01
 BYTE   W02
 BYTE   W01
 BYTE   W02
 BYTE   EOT
 BYTE   W01
 BYTE   W05
 BYTE   W01
 BYTE   N11  GnM1  v108
 BYTE   N11  Gn3  v092
 BYTE   W02
 BYTE   W01
 BYTE   W02
 BYTE   W01
 BYTE   W02
 BYTE   W01
 BYTE   W02
 BYTE   W01
 BYTE   Cn0  v108
 BYTE   N11  Cn4  v092
 BYTE   W02
 BYTE   W01
 BYTE   W09
 BYTE   Dn0  v108
 BYTE   N11  Dn4  v092
 BYTE   W12
 BYTE   N32  Gn0  v108
 BYTE   N32  Gn4  v092
 BYTE   W02
 BYTE   W03
 BYTE   W03
 BYTE   W03
 BYTE   W01
//  #02 //026   ----------------------------------------
 BYTE   W02
 BYTE   W03
 BYTE   W03
 BYTE   W03
 BYTE   W03
 BYTE   W03
 BYTE   W03
 BYTE   W03
 BYTE   W01
 BYTE   Fn0  v108
 BYTE   N32  Fn4  v092
 BYTE   W02
 BYTE   W02
 BYTE   W03
 BYTE   W03
 BYTE   W03
 BYTE   W03
 BYTE   W03
 BYTE   W03
 BYTE   W03
 BYTE   W03
 BYTE   W03
 BYTE   W03
 BYTE   W01
 BYTE   W01
 BYTE   N23  Cn0  v108
 BYTE   N23  Cn4  v092
 BYTE   W02
 BYTE   W01
 BYTE   W02
 BYTE   W01
 BYTE   W02
 BYTE   W01
 BYTE   W02
 BYTE   W01
 BYTE   W02
 BYTE   W01
 BYTE   W02
 BYTE   W01
 BYTE   W02
 BYTE   W01
 BYTE   W02
 BYTE   W01
 BYTE   N11  En0  v108
 BYTE   N11  En4  v092
 BYTE   W02
 BYTE   W01
 BYTE   W02
 BYTE   W01
 BYTE   W02
 BYTE   W01
 BYTE   W02
 BYTE   W01
//  #02 //027   ----------------------------------------
 BYTE   TIE  Dn0  v108
 BYTE   TIE  Dn4  v092
 BYTE   W01
 BYTE   W01
 BYTE   W02
 BYTE   W01
 BYTE   W02
 BYTE   W01
 BYTE   W02
 BYTE   W01
 BYTE   W02
 BYTE   W01
 BYTE   W02
 BYTE   W01
 BYTE   W02
 BYTE   W01
 BYTE   W02
 BYTE   W01
 BYTE   W02
 BYTE   W01
 BYTE   W03
 BYTE   W03
 BYTE   W03
 BYTE   W03
 BYTE   W03
 BYTE   W03
 BYTE   W03
 BYTE   W01
 BYTE   W03
 BYTE   W03
 BYTE   W03
 BYTE   W03
 BYTE   W03
 BYTE   W03
 BYTE   W03
 BYTE   W02
 BYTE   W03
 BYTE   W03
 BYTE   W03
 BYTE   W03
 BYTE   W03
 BYTE   W03
 BYTE   W03
 BYTE   W03
 BYTE   W01
//  #02 //028   ----------------------------------------
 BYTE   W02
 BYTE   W03
 BYTE   W03
 BYTE   W02
 BYTE   W01
 BYTE   W02
 BYTE   W01
 BYTE   W02
 BYTE   W01
 BYTE   W02
 BYTE   W01
 BYTE   W02
 BYTE   W01
 BYTE   W02
 BYTE   W01
 BYTE   W02
 BYTE   W01
 BYTE   W02
 BYTE   W01
 BYTE   W02
 BYTE   W01
 BYTE   W02
 BYTE   W01
 BYTE   W02
 BYTE   W01
 BYTE   EOT
 BYTE   Dn0  v074
 BYTE   W01
 BYTE   W04
 BYTE   W01
 BYTE   W01
 BYTE   N11  GnM1  v108
 BYTE   N11  Gn3  v092
 BYTE   W01
 BYTE   W01
 BYTE   W01
 BYTE   W01
 BYTE   W01
 BYTE   W01
 BYTE   W01
 BYTE   W01
 BYTE   W01
 BYTE   W01
 BYTE   W01
 BYTE   W01
 BYTE   Cn0  v108
 BYTE   N11  Cn4  v092
 BYTE   W12
 BYTE   Dn0  v108
 BYTE   N11  Dn4  v092
 BYTE   W02
 BYTE   W10
 BYTE   N32  Gn0  v108
 BYTE   N32  Gn4  v092
 BYTE   W05
 BYTE   W02
 BYTE   W01
 BYTE   W02
 BYTE   W01
 BYTE   W01
//  #02 //029   ----------------------------------------
 BYTE   W01
 BYTE   W01
 BYTE   W02
 BYTE   W01
 BYTE   W02
 BYTE   W01
 BYTE   W02
 BYTE   W01
 BYTE   W02
 BYTE   W01
 BYTE   W02
 BYTE   W01
 BYTE   W02
 BYTE   W01
 BYTE   W02
 BYTE   W01
 BYTE   W01
 BYTE   Fn0  v108
 BYTE   N32  Fn4  v092
 BYTE   W02
 BYTE   W03
 BYTE   W03
 BYTE   W03
 BYTE   W03
 BYTE   W03
 BYTE   W03
 BYTE   W03
 BYTE   W03
 BYTE   W03
 BYTE   W03
 BYTE   W03
 BYTE   W01
 BYTE   N11  An0  v108
 BYTE   N11  An4  v092
 BYTE   W02
 BYTE   W03
 BYTE   W07
 BYTE   Fn0  v108
 BYTE   N11  Fn4  v092
 BYTE   W12
 BYTE   An0  v108
 BYTE   N11  An4  v092
 BYTE   W12
//  #02 //030   ----------------------------------------
 BYTE   TIE  Gn0  v108
 BYTE   TIE  Gn4  v092
 BYTE   W03
 BYTE   W03
 BYTE   W03
 BYTE   W03
 BYTE   W03
 BYTE   W03
 BYTE   W03
 BYTE   W03
 BYTE   W03
 BYTE   W03
 BYTE   W02
 BYTE   W08
 BYTE   W04
 BYTE   W04
 BYTE   W03
 BYTE   W04
 BYTE   W04
 BYTE   W04
 BYTE   W03
 BYTE   W04
 BYTE   W04
 BYTE   W04
 BYTE   W04
 BYTE   W03
 BYTE   W04
 BYTE   W04
 BYTE   W03
//  #02 //031   ----------------------------------------
 BYTE   W01
 BYTE   W04
 BYTE   W03
 BYTE   W04
 BYTE   W04
 BYTE   W04
 BYTE   W03
 BYTE   W04
 BYTE   W04
 BYTE   W04
 BYTE   W04
 BYTE   W03
 BYTE   W04
 BYTE   W04
 BYTE   W04
 BYTE   W03
 BYTE   W04
 BYTE   W04
 BYTE   W04
 BYTE   W04
 BYTE   W08
 BYTE   W04
 BYTE   W04
 BYTE   W04
 BYTE   W03
//  #02 //032   ----------------------------------------
 BYTE   W04
 BYTE   W04
 BYTE   W04
 BYTE   W04
 BYTE   W04
 BYTE   W04
 BYTE   W04
 BYTE   W04
 BYTE   W04
 BYTE   W04
 BYTE   W04
 BYTE   W04
 BYTE   W04
 BYTE   W04
 BYTE   W04
 BYTE   W04
 BYTE   W04
 BYTE   W04
 BYTE   W04
 BYTE   W04
 BYTE   W04
 BYTE   W03
 BYTE   W03
 BYTE   W03
 BYTE   W03
//  #02 //033   ----------------------------------------
 BYTE   W03
 BYTE   W03
 BYTE   W03
 BYTE   W03
 BYTE   W03
 BYTE   W03
 BYTE   W03
 BYTE   W03
 BYTE   W03
 BYTE   W03
 BYTE   W03
 BYTE   W03
 BYTE   W03
 BYTE   W03
 BYTE   W03
 BYTE   W03
 BYTE   W03
 BYTE   W03
 BYTE   W01
 BYTE   W10
 BYTE   EOT
 BYTE   Gn0  v079
 BYTE   W30
 BYTE   W01
//  #02 //034   ----------------------------------------
 BYTE   W96
//  #02 //035   ----------------------------------------
 BYTE   W96
//  #02 //036   ----------------------------------------
 BYTE   W96
//  #02 //037   ----------------------------------------
 BYTE   W96
//  #02 //038   ----------------------------------------
 BYTE   W96
//  #02 //039   ----------------------------------------
 BYTE   W72
 BYTE   TIE  Gn2  v108
 BYTE   W06
 BYTE   W03
 BYTE   W03
 BYTE   W03
 BYTE   W03
 BYTE   W03
 BYTE   W03
//  #02 //040   ----------------------------------------
 BYTE   W03
 BYTE   W03
 BYTE   W03
 BYTE   W03
 BYTE   W03
 BYTE   W03
 BYTE   W03
 BYTE   W03
 BYTE   W03
 BYTE   W03
 BYTE   W03
 BYTE   W03
 BYTE   W03
 BYTE   W03
 BYTE   W03
 BYTE   W03
 BYTE   W03
 BYTE   W03
 BYTE   W03
 BYTE   W03
 BYTE   W03
 BYTE   W03
 BYTE   W03
 BYTE   W03
 BYTE   W03
 BYTE   W03
 BYTE   W03
 BYTE   W03
 BYTE   W03
 BYTE   W03
 BYTE   W03
 BYTE   W03
//  #02 //041   ----------------------------------------
 BYTE   W03
 BYTE   W03
 BYTE   W03
 BYTE   W03
 BYTE   W03
 BYTE   W03
 BYTE   W03
 BYTE   W03
 BYTE   W02
 BYTE   W11
 BYTE   W06
 BYTE   W06
 BYTE   W05
 BYTE   W06
 BYTE   W06
 BYTE   W05
 BYTE   W06
 BYTE   W06
 BYTE   W05
 BYTE   W06
 BYTE   W02
//  #02 //042   ----------------------------------------
 BYTE   W04
 BYTE   W05
 BYTE   W06
 BYTE   W05
 BYTE   W06
 BYTE   W06
 BYTE   W05
 BYTE   W06
 BYTE   W06
 BYTE   W05
 BYTE   W06
 BYTE   W03
 BYTE   W03
 BYTE   W03
 BYTE   W03
 BYTE   W03
 BYTE   W03
 BYTE   W03
 BYTE   W03
 BYTE   W03
 BYTE   W03
 BYTE   W03
 BYTE   EOT
 BYTE   W03
//  #02 //043   ----------------------------------------
 BYTE   GoTo
  POIN2 Label_0176E44A
 BYTE   FINE

//**************** Track 3 (Midi-Chn.2) ****************//

RightRoad_003:
//  #03 //000   ----------------------------------------
 BYTE   KEYSH   RightRoad_key+0
Label_0176EA3A:
 BYTE   VOICE   52
 BYTE   VOL   41*RightRoad_mvl/mxv
 BYTE   PAN   c_v+0
 BYTE   BEND   c_v+0
 BYTE   N68  Gn0  v116
 BYTE   N68  Gn1  v080
 BYTE   W03
 BYTE   W03
 BYTE   W03
 BYTE   W03
 BYTE   W03
 BYTE   W03
 BYTE   W03
 BYTE   W03
 BYTE   W03
 BYTE   W03
 BYTE   W03
 BYTE   W03
 BYTE   W03
 BYTE   W03
 BYTE   W03
 BYTE   W03
 BYTE   W03
 BYTE   W03
 BYTE   W03
 BYTE   W03
 BYTE   W03
 BYTE   W01
 BYTE   W02
 BYTE   W01
 BYTE   W02
 BYTE   W01
 BYTE   W01
 BYTE   W01
 BYTE   An0  v116
 BYTE   N68  An1  v080
 BYTE   W02
 BYTE   W01
 BYTE   W02
 BYTE   W01
 BYTE   W02
 BYTE   W06
 BYTE   W03
 BYTE   W03
 BYTE   W03
 BYTE   W01
//  #03 //001   ----------------------------------------
 BYTE   W02
 BYTE   W03
 BYTE   W03
 BYTE   W03
 BYTE   W04
 BYTE   W03
 BYTE   W03
 BYTE   W03
 BYTE   W03
 BYTE   W03
 BYTE   W03
 BYTE   W03
 BYTE   W03
 BYTE   W03
 BYTE   W02
 BYTE   W01
 BYTE   W02
 BYTE   W01
 BYTE   As0  v116
 BYTE   N68  As1  v080
 BYTE   W01
 BYTE   W02
 BYTE   W01
 BYTE   W02
 BYTE   W01
 BYTE   W01
 BYTE   W08
 BYTE   W05
 BYTE   W04
 BYTE   W04
 BYTE   W04
 BYTE   W04
 BYTE   W05
 BYTE   W04
 BYTE   W02
//  #03 //002   ----------------------------------------
 BYTE   W02
 BYTE   W04
 BYTE   W05
 BYTE   W04
 BYTE   W04
 BYTE   W02
 BYTE   W01
 BYTE   W02
 BYTE   Cn1  v116
 BYTE   N68  Cn2  v080
 BYTE   W01
 BYTE   W01
 BYTE   W02
 BYTE   W01
 BYTE   W02
 BYTE   W09
 BYTE   W05
 BYTE   W04
 BYTE   W05
 BYTE   W01
 BYTE   W02
 BYTE   W01
 BYTE   W02
 BYTE   W01
 BYTE   W02
 BYTE   W01
 BYTE   W02
 BYTE   W01
 BYTE   W02
 BYTE   W01
 BYTE   W02
 BYTE   W01
 BYTE   W02
 BYTE   W01
 BYTE   W02
 BYTE   W01
 BYTE   W02
 BYTE   W01
 BYTE   W02
 BYTE   W01
 BYTE   W02
 BYTE   W01
 BYTE   W02
 BYTE   W01
 BYTE   W02
 BYTE   W01
 BYTE   W02
//  #03 //003   ----------------------------------------
 BYTE   Gn0  v116
 BYTE   N68  Gn1  v080
 BYTE   W01
 BYTE   W01
 BYTE   W02
 BYTE   W01
 BYTE   W03
 BYTE   W03
 BYTE   W03
 BYTE   W03
 BYTE   W03
 BYTE   W03
 BYTE   W03
 BYTE   W03
 BYTE   W03
 BYTE   W03
 BYTE   W03
 BYTE   W03
 BYTE   W03
 BYTE   W03
 BYTE   W03
 BYTE   W03
 BYTE   W03
 BYTE   W03
 BYTE   W03
 BYTE   W03
 BYTE   W02
 BYTE   W02
 BYTE   W01
 BYTE   W02
 BYTE   An0  v116
 BYTE   N68  An1  v080
 BYTE   W01
 BYTE   W02
 BYTE   W01
 BYTE   W01
 BYTE   W02
 BYTE   W01
 BYTE   W01
 BYTE   W03
 BYTE   W03
 BYTE   W03
 BYTE   W03
 BYTE   W03
//  #03 //004   ----------------------------------------
 BYTE   W03
 BYTE   W03
 BYTE   W03
 BYTE   W03
 BYTE   W03
 BYTE   W03
 BYTE   W03
 BYTE   W03
 BYTE   W03
 BYTE   W03
 BYTE   W03
 BYTE   W03
 BYTE   W03
 BYTE   W03
 BYTE   W03
 BYTE   W01
 BYTE   W01
 BYTE   W01
 BYTE   As0  v116
 BYTE   N68  As1  v080
 BYTE   W01
 BYTE   W02
 BYTE   W01
 BYTE   W02
 BYTE   W01
 BYTE   W03
 BYTE   W04
 BYTE   W03
 BYTE   W03
 BYTE   W04
 BYTE   W03
 BYTE   W04
 BYTE   W03
 BYTE   W03
 BYTE   W04
 BYTE   W03
 BYTE   W04
//  #03 //005   ----------------------------------------
 BYTE   W03
 BYTE   W03
 BYTE   W04
 BYTE   W03
 BYTE   W04
 BYTE   W03
 BYTE   W02
 BYTE   W01
 BYTE   W01
 BYTE   Cn1  v116
 BYTE   N68  Cn2  v080
 BYTE   W02
 BYTE   W01
 BYTE   W02
 BYTE   W01
 BYTE   W06
 BYTE   W03
 BYTE   W03
 BYTE   W03
 BYTE   W03
 BYTE   W04
 BYTE   W03
 BYTE   W03
 BYTE   W03
 BYTE   W03
 BYTE   W03
 BYTE   W03
 BYTE   W03
 BYTE   W03
 BYTE   W03
 BYTE   W03
 BYTE   W03
 BYTE   W03
 BYTE   W03
 BYTE   W01
 BYTE   W01
 BYTE   W01
 BYTE   W01
 BYTE   W01
//  #03 //006   ----------------------------------------
 BYTE   Gn0  v116
 BYTE   N68  Gn1  v080
 BYTE   W01
 BYTE   W01
 BYTE   W02
 BYTE   W01
 BYTE   W03
 BYTE   W03
 BYTE   W03
 BYTE   W03
 BYTE   W03
 BYTE   W03
 BYTE   W03
 BYTE   W03
 BYTE   W03
 BYTE   W03
 BYTE   W03
 BYTE   W03
 BYTE   W03
 BYTE   W03
 BYTE   W03
 BYTE   W03
 BYTE   W03
 BYTE   W03
 BYTE   W03
 BYTE   W03
 BYTE   W03
 BYTE   W01
 BYTE   W02
 BYTE   W01
 BYTE   An0  v116
 BYTE   N68  An1  v080
 BYTE   W01
 BYTE   W01
 BYTE   W02
 BYTE   W01
 BYTE   W07
 BYTE   W04
 BYTE   W04
 BYTE   W04
//  #03 //007   ----------------------------------------
 BYTE   W03
 BYTE   W04
 BYTE   W04
 BYTE   W03
 BYTE   W04
 BYTE   W04
 BYTE   W04
 BYTE   W03
 BYTE   W04
 BYTE   W04
 BYTE   W03
 BYTE   W04
 BYTE   W02
 BYTE   W01
 BYTE   W01
 BYTE   As0  v116
 BYTE   N68  As1  v080
 BYTE   W01
 BYTE   W02
 BYTE   W01
 BYTE   W13
 BYTE   W06
 BYTE   W07
 BYTE   W06
 BYTE   W06
 BYTE   W06
//  #03 //008   ----------------------------------------
 BYTE   W01
 BYTE   W06
 BYTE   W07
 BYTE   W06
 BYTE   W02
 BYTE   W01
 BYTE   W01
 BYTE   Cn1  v116
 BYTE   N68  Cn2  v080
 BYTE   W01
 BYTE   W01
 BYTE   W02
 BYTE   W01
 BYTE   W05
 BYTE   W05
 BYTE   W05
 BYTE   W06
 BYTE   W05
 BYTE   W05
 BYTE   W03
 BYTE   W03
 BYTE   W03
 BYTE   W03
 BYTE   W03
 BYTE   W03
 BYTE   W03
 BYTE   W03
 BYTE   W03
 BYTE   W03
 BYTE   W03
 BYTE   W01
 BYTE   W01
 BYTE   W01
//  #03 //009   ----------------------------------------
 BYTE   Gn0  v116
 BYTE   N68  Gn1  v080
 BYTE   W01
 BYTE   W02
 BYTE   W01
 BYTE   W03
 BYTE   W03
 BYTE   W03
 BYTE   W03
 BYTE   W03
 BYTE   W03
 BYTE   W03
 BYTE   W03
 BYTE   W03
 BYTE   W03
 BYTE   W03
 BYTE   W03
 BYTE   W03
 BYTE   W03
 BYTE   W03
 BYTE   W03
 BYTE   W03
 BYTE   W03
 BYTE   W03
 BYTE   W03
 BYTE   W03
 BYTE   W02
 BYTE   W01
 BYTE   W01
 BYTE   W01
 BYTE   An0  v116
 BYTE   N68  An1  v080
 BYTE   W01
 BYTE   W01
 BYTE   W01
 BYTE   W01
 BYTE   W01
 BYTE   W02
 BYTE   W03
 BYTE   W03
 BYTE   W03
 BYTE   W03
 BYTE   W03
 BYTE   W02
//  #03 //010   ----------------------------------------
 BYTE   W01
 BYTE   W03
 BYTE   W03
 BYTE   W03
 BYTE   W03
 BYTE   W03
 BYTE   W03
 BYTE   W03
 BYTE   W03
 BYTE   W03
 BYTE   W03
 BYTE   W03
 BYTE   W03
 BYTE   W03
 BYTE   W03
 BYTE   W01
 BYTE   W01
 BYTE   W01
 BYTE   W01
 BYTE   W01
 BYTE   As0  v116
 BYTE   N68  As1  v080
 BYTE   W01
 BYTE   W01
 BYTE   W02
 BYTE   W01
 BYTE   W06
 BYTE   W04
 BYTE   W03
 BYTE   W03
 BYTE   W03
 BYTE   W04
 BYTE   W03
 BYTE   W03
 BYTE   W03
 BYTE   W03
 BYTE   W04
 BYTE   W03
 BYTE   W01
//  #03 //011   ----------------------------------------
 BYTE   W02
 BYTE   W03
 BYTE   W04
 BYTE   W03
 BYTE   W03
 BYTE   W01
 BYTE   W02
 BYTE   W01
 BYTE   W01
 BYTE   W01
 BYTE   W02
 BYTE   W01
 BYTE   Cn1  v116
 BYTE   N68  Cn2  v080
 BYTE   W01
 BYTE   W01
 BYTE   W02
 BYTE   W01
 BYTE   W03
 BYTE   W03
 BYTE   W03
 BYTE   W03
 BYTE   W03
 BYTE   W03
 BYTE   W03
 BYTE   W02
 BYTE   W03
 BYTE   W03
 BYTE   W03
 BYTE   W03
 BYTE   W03
 BYTE   W03
 BYTE   W03
 BYTE   W03
 BYTE   W03
 BYTE   W03
 BYTE   W03
 BYTE   W03
 BYTE   W02
 BYTE   W02
 BYTE   W01
 BYTE   W02
 BYTE   W01
//  #03 //012   ----------------------------------------
 BYTE   Ds0  v116
 BYTE   N68  Ds1  v080
 BYTE   W01
 BYTE   W01
 BYTE   W02
 BYTE   W01
 BYTE   W01
 BYTE   W03
 BYTE   W03
 BYTE   W03
 BYTE   W03
 BYTE   W03
 BYTE   W03
 BYTE   W03
 BYTE   W03
 BYTE   W03
 BYTE   W03
 BYTE   W03
 BYTE   W03
 BYTE   W03
 BYTE   W03
 BYTE   W03
 BYTE   W03
 BYTE   W03
 BYTE   W03
 BYTE   W01
 BYTE   W06
 BYTE   W01
 BYTE   W01
 BYTE   W01
 BYTE   W01
 BYTE   W01
 BYTE   Dn0  v116
 BYTE   N68  Dn1  v080
 BYTE   W02
 BYTE   W01
 BYTE   W02
 BYTE   W01
 BYTE   W02
 BYTE   W08
 BYTE   W04
 BYTE   W04
//  #03 //013   ----------------------------------------
 BYTE   W04
 BYTE   W04
 BYTE   W04
 BYTE   W04
 BYTE   W04
 BYTE   W04
 BYTE   W04
 BYTE   W04
 BYTE   W04
 BYTE   W03
 BYTE   W04
 BYTE   W01
 BYTE   W01
 BYTE   W01
 BYTE   W01
 BYTE   W01
 BYTE   Cn0  v116
 BYTE   N68  Cn1  v080
 BYTE   W01
 BYTE   W02
 BYTE   W01
 BYTE   W01
 BYTE   W09
 BYTE   W05
 BYTE   W05
 BYTE   W05
 BYTE   W04
 BYTE   W05
 BYTE   W05
 BYTE   W04
 BYTE   W01
//  #03 //014   ----------------------------------------
 BYTE   W04
 BYTE   W05
 BYTE   W05
 BYTE   W04
 BYTE   W02
 BYTE   W01
 BYTE   W02
 BYTE   W01
 BYTE   Dn0  v116
 BYTE   N68  Dn1  v080
 BYTE   W02
 BYTE   W01
 BYTE   W02
 BYTE   W01
 BYTE   W03
 BYTE   W04
 BYTE   W03
 BYTE   W04
 BYTE   W04
 BYTE   W03
 BYTE   W04
 BYTE   W03
 BYTE   W04
 BYTE   W04
 BYTE   W03
 BYTE   W04
 BYTE   W03
 BYTE   W04
 BYTE   W04
 BYTE   W03
 BYTE   W02
 BYTE   W01
 BYTE   W01
 BYTE   W02
 BYTE   W01
 BYTE   W02
//  #03 //015   ----------------------------------------
 BYTE   Ds0  v116
 BYTE   N68  Ds1  v080
 BYTE   W02
 BYTE   W01
 BYTE   W02
 BYTE   W01
 BYTE   W02
 BYTE   W01
 BYTE   W02
 BYTE   W03
 BYTE   W03
 BYTE   W03
 BYTE   W03
 BYTE   W03
 BYTE   W03
 BYTE   W03
 BYTE   W03
 BYTE   W03
 BYTE   W03
 BYTE   W03
 BYTE   W03
 BYTE   W03
 BYTE   W03
 BYTE   W03
 BYTE   W03
 BYTE   W03
 BYTE   W02
 BYTE   W02
 BYTE   W01
 BYTE   W02
 BYTE   W01
 BYTE   W01
 BYTE   W01
 BYTE   Fn0  v116
 BYTE   N68  Fn1  v080
 BYTE   W01
 BYTE   W01
 BYTE   W02
 BYTE   W01
 BYTE   W01
 BYTE   W03
 BYTE   W03
 BYTE   W03
 BYTE   W03
 BYTE   W03
 BYTE   W03
//  #03 //016   ----------------------------------------
 BYTE   W03
 BYTE   W03
 BYTE   W03
 BYTE   W03
 BYTE   W03
 BYTE   W03
 BYTE   W03
 BYTE   W03
 BYTE   W03
 BYTE   W03
 BYTE   W03
 BYTE   W03
 BYTE   W03
 BYTE   W01
 BYTE   W03
 BYTE   W02
 BYTE   W01
 BYTE   W02
 BYTE   TIE  GnM1  v127
 BYTE   TIE  Gn0  v096
 BYTE   W01
 BYTE   W02
 BYTE   W01
 BYTE   W02
 BYTE   W01
 BYTE   W02
 BYTE   W03
 BYTE   W03
 BYTE   W03
 BYTE   W01
 BYTE   W07
 BYTE   W03
 BYTE   W04
 BYTE   W04
 BYTE   W03
 BYTE   W04
 BYTE   W04
//  #03 //017   ----------------------------------------
 BYTE   W03
 BYTE   W04
 BYTE   W03
 BYTE   W04
 BYTE   W04
 BYTE   W03
 BYTE   W04
 BYTE   W03
 BYTE   W04
 BYTE   W04
 BYTE   W03
 BYTE   W04
 BYTE   W03
 BYTE   W04
 BYTE   W13
 BYTE   W06
 BYTE   W07
 BYTE   W06
 BYTE   W07
 BYTE   W06
 BYTE   W01
//  #03 //018   ----------------------------------------
 BYTE   W05
 BYTE   W07
 BYTE   W06
 BYTE   W07
 BYTE   W06
 BYTE   W06
 BYTE   W07
 BYTE   W06
 BYTE   W07
 BYTE   W06
 BYTE   W07
 BYTE   W03
 BYTE   W03
 BYTE   W03
 BYTE   W03
 BYTE   W03
 BYTE   W03
 BYTE   W03
 BYTE   W03
 BYTE   W02
//  #03 //019   ----------------------------------------
 BYTE   W01
 BYTE   W03
 BYTE   W03
 BYTE   W03
 BYTE   W03
 BYTE   W03
 BYTE   W03
 BYTE   W03
 BYTE   W03
 BYTE   W01
 BYTE   W03
 BYTE   W03
 BYTE   W03
 BYTE   W03
 BYTE   W03
 BYTE   W02
 BYTE   W01
 BYTE   W02
 BYTE   W01
 BYTE   EOT
 BYTE   GnM1  v031
 BYTE   W01
 BYTE   N68  GnM1  v124
 BYTE   N68  Gn0  v092
 BYTE   W01
 BYTE   W02
 BYTE   W01
 BYTE   W01
 BYTE   W03
 BYTE   W03
 BYTE   W03
 BYTE   W03
 BYTE   W03
 BYTE   W03
 BYTE   W03
 BYTE   W03
 BYTE   W03
 BYTE   W03
 BYTE   W03
 BYTE   W03
 BYTE   W03
 BYTE   W03
 BYTE   W01
//  #03 //020   ----------------------------------------
 BYTE   W02
 BYTE   W03
 BYTE   W03
 BYTE   W03
 BYTE   W03
 BYTE   W03
 BYTE   W01
 BYTE   W02
 BYTE   W01
 BYTE   W02
 BYTE   W01
 BYTE   AnM1  v124
 BYTE   N68  An0  v092
 BYTE   W02
 BYTE   W01
 BYTE   W02
 BYTE   W01
 BYTE   W02
 BYTE   W09
 BYTE   W04
 BYTE   W04
 BYTE   W04
 BYTE   W04
 BYTE   W04
 BYTE   W04
 BYTE   W04
 BYTE   W04
 BYTE   W04
 BYTE   W04
 BYTE   W04
 BYTE   W05
 BYTE   W01
 BYTE   W02
 BYTE   W01
 BYTE   W01
 BYTE   W01
//  #03 //021   ----------------------------------------
 BYTE   AsM1  v124
 BYTE   N68  As0  v092
 BYTE   W02
 BYTE   W01
 BYTE   W02
 BYTE   W01
 BYTE   W12
 BYTE   W06
 BYTE   W06
 BYTE   W07
 BYTE   W06
 BYTE   W06
 BYTE   W06
 BYTE   W06
 BYTE   W06
 BYTE   W02
 BYTE   W01
 BYTE   W02
 BYTE   Cn0  v124
 BYTE   N68  Cn1  v092
 BYTE   W01
 BYTE   W02
 BYTE   W01
 BYTE   W02
 BYTE   W01
 BYTE   W01
 BYTE   W11
 BYTE   W05
//  #03 //022   ----------------------------------------
 BYTE   W01
 BYTE   W05
 BYTE   W06
 BYTE   W01
 BYTE   W02
 BYTE   W01
 BYTE   W02
 BYTE   W01
 BYTE   W02
 BYTE   W01
 BYTE   W02
 BYTE   W01
 BYTE   W02
 BYTE   W01
 BYTE   W02
 BYTE   W01
 BYTE   W02
 BYTE   W01
 BYTE   W02
 BYTE   W01
 BYTE   W02
 BYTE   W01
 BYTE   W02
 BYTE   W01
 BYTE   W01
 BYTE   W01
 BYTE   W02
 BYTE   W01
 BYTE   GnM1  v124
 BYTE   N68  Gn0  v092
 BYTE   W01
 BYTE   W02
 BYTE   W01
 BYTE   W02
 BYTE   W01
 BYTE   W02
 BYTE   W03
 BYTE   W03
 BYTE   W03
 BYTE   W03
 BYTE   W03
 BYTE   W03
 BYTE   W03
 BYTE   W03
 BYTE   W03
 BYTE   W03
 BYTE   W03
 BYTE   W03
 BYTE   W03
//  #03 //023   ----------------------------------------
 BYTE   W03
 BYTE   W03
 BYTE   W03
 BYTE   W03
 BYTE   W03
 BYTE   W03
 BYTE   W01
 BYTE   W02
 BYTE   W01
 BYTE   W02
 BYTE   AnM1  v124
 BYTE   N68  An0  v092
 BYTE   W01
 BYTE   W02
 BYTE   W01
 BYTE   W02
 BYTE   W01
 BYTE   W01
 BYTE   W03
 BYTE   W03
 BYTE   W03
 BYTE   W03
 BYTE   W03
 BYTE   W03
 BYTE   W03
 BYTE   W03
 BYTE   W03
 BYTE   W03
 BYTE   W03
 BYTE   W03
 BYTE   W03
 BYTE   W03
 BYTE   W03
 BYTE   W03
 BYTE   W03
 BYTE   W03
 BYTE   W03
 BYTE   W01
 BYTE   W02
 BYTE   W01
 BYTE   W02
 BYTE   W01
//  #03 //024   ----------------------------------------
 BYTE   AsM1  v124
 BYTE   N68  As0  v092
 BYTE   W02
 BYTE   W01
 BYTE   W02
 BYTE   W01
 BYTE   W02
 BYTE   W01
 BYTE   W01
 BYTE   W03
 BYTE   W04
 BYTE   W03
 BYTE   W03
 BYTE   W04
 BYTE   W03
 BYTE   W04
 BYTE   W03
 BYTE   W03
 BYTE   W04
 BYTE   W03
 BYTE   W03
 BYTE   W04
 BYTE   W03
 BYTE   W04
 BYTE   W03
 BYTE   W01
 BYTE   W02
 BYTE   W01
 BYTE   W02
 BYTE   W01
 BYTE   W01
 BYTE   Cn0  v124
 BYTE   N68  Cn1  v092
 BYTE   W01
 BYTE   W02
 BYTE   W01
 BYTE   W02
 BYTE   W01
 BYTE   W03
 BYTE   W03
 BYTE   W03
 BYTE   W03
 BYTE   W03
 BYTE   W02
//  #03 //025   ----------------------------------------
 BYTE   W01
 BYTE   W03
 BYTE   W03
 BYTE   W03
 BYTE   W03
 BYTE   W03
 BYTE   W03
 BYTE   W03
 BYTE   W03
 BYTE   W03
 BYTE   W03
 BYTE   W03
 BYTE   W03
 BYTE   W03
 BYTE   W02
 BYTE   W01
 BYTE   W02
 BYTE   W01
 BYTE   W02
 BYTE   Ds0  v124
 BYTE   N68  Ds1  v092
 BYTE   W02
 BYTE   W01
 BYTE   W02
 BYTE   W01
 BYTE   W03
 BYTE   W03
 BYTE   W03
 BYTE   W03
 BYTE   W03
 BYTE   W03
 BYTE   W03
 BYTE   W03
 BYTE   W03
 BYTE   W03
 BYTE   W03
 BYTE   W03
 BYTE   W03
 BYTE   W03
//  #03 //026   ----------------------------------------
 BYTE   W03
 BYTE   W03
 BYTE   W03
 BYTE   W03
 BYTE   W03
 BYTE   W03
 BYTE   W01
 BYTE   W02
 BYTE   W01
 BYTE   W02
 BYTE   Dn0  v124
 BYTE   N68  Dn1  v092
 BYTE   W01
 BYTE   W01
 BYTE   W02
 BYTE   W01
 BYTE   W02
 BYTE   W02
 BYTE   W01
 BYTE   W02
 BYTE   W01
 BYTE   W07
 BYTE   W04
 BYTE   W03
 BYTE   W04
 BYTE   W03
 BYTE   W04
 BYTE   W03
 BYTE   W04
 BYTE   W03
 BYTE   W04
 BYTE   W03
 BYTE   W04
 BYTE   W03
 BYTE   W04
 BYTE   W01
 BYTE   W02
 BYTE   W01
 BYTE   W01
 BYTE   W01
//  #03 //027   ----------------------------------------
 BYTE   Cn0  v124
 BYTE   N68  Cn1  v092
 BYTE   W01
 BYTE   W01
 BYTE   W02
 BYTE   W01
 BYTE   W02
 BYTE   W01
 BYTE   W04
 BYTE   W05
 BYTE   W05
 BYTE   W05
 BYTE   W05
 BYTE   W04
 BYTE   W05
 BYTE   W05
 BYTE   W05
 BYTE   W05
 BYTE   W04
 BYTE   W05
 BYTE   W02
 BYTE   W01
 BYTE   W02
 BYTE   W01
 BYTE   W01
 BYTE   Dn0  v124
 BYTE   N68  Dn1  v092
 BYTE   W01
 BYTE   W01
 BYTE   W02
 BYTE   W01
 BYTE   W01
 BYTE   W01
 BYTE   W02
 BYTE   W01
 BYTE   W08
 BYTE   W04
 BYTE   W02
//  #03 //028   ----------------------------------------
 BYTE   W02
 BYTE   W04
 BYTE   W04
 BYTE   W04
 BYTE   W04
 BYTE   W04
 BYTE   W04
 BYTE   W04
 BYTE   W03
 BYTE   W04
 BYTE   W04
 BYTE   W02
 BYTE   W01
 BYTE   W02
 BYTE   W01
 BYTE   W01
 BYTE   Ds0  v124
 BYTE   N68  Ds1  v092
 BYTE   W01
 BYTE   W01
 BYTE   W02
 BYTE   W01
 BYTE   W03
 BYTE   W03
 BYTE   W03
 BYTE   W03
 BYTE   W03
 BYTE   W03
 BYTE   W03
 BYTE   W03
 BYTE   W03
 BYTE   W03
 BYTE   W03
 BYTE   W03
 BYTE   W03
 BYTE   W03
 BYTE   W01
//  #03 //029   ----------------------------------------
 BYTE   W02
 BYTE   W03
 BYTE   W03
 BYTE   W03
 BYTE   W03
 BYTE   W03
 BYTE   W02
 BYTE   W02
 BYTE   W01
 BYTE   W02
 BYTE   Fn0  v124
 BYTE   N68  Fn1  v092
 BYTE   W01
 BYTE   W02
 BYTE   W01
 BYTE   W02
 BYTE   W01
 BYTE   W02
 BYTE   W01
 BYTE   W03
 BYTE   W03
 BYTE   W03
 BYTE   W03
 BYTE   W03
 BYTE   W03
 BYTE   W03
 BYTE   W03
 BYTE   W03
 BYTE   W03
 BYTE   W03
 BYTE   W03
 BYTE   W03
 BYTE   W03
 BYTE   W03
 BYTE   W03
 BYTE   W03
 BYTE   W03
 BYTE   W03
 BYTE   W01
 BYTE   W01
 BYTE   W01
 BYTE   W01
 BYTE   W01
//  #03 //030   ----------------------------------------
 BYTE   TIE  GnM1  v127
 BYTE   TIE  Gn0  v096
 BYTE   W02
 BYTE   W01
 BYTE   W02
 BYTE   W03
 BYTE   W03
 BYTE   W02
 BYTE   W07
 BYTE   W08
 BYTE   W07
 BYTE   W07
 BYTE   W07
 BYTE   W07
 BYTE   W08
 BYTE   W07
 BYTE   W07
 BYTE   W07
 BYTE   W07
 BYTE   W04
//  #03 //031   ----------------------------------------
 BYTE   W04
 BYTE   W07
 BYTE   W07
 BYTE   W03
 BYTE   W03
 BYTE   W03
 BYTE   W03
 BYTE   W03
 BYTE   W03
 BYTE   W03
 BYTE   W03
 BYTE   W03
 BYTE   W03
 BYTE   W03
 BYTE   W03
 BYTE   W03
 BYTE   W03
 BYTE   W03
 BYTE   W03
 BYTE   W03
 BYTE   W03
 BYTE   W03
 BYTE   W03
 BYTE   W03
 BYTE   W03
 BYTE   W03
 BYTE   W03
 BYTE   W03
 BYTE   W03
//  #03 //032   ----------------------------------------
 BYTE   W03
 BYTE   W03
 BYTE   W03
 BYTE   W03
 BYTE   W03
 BYTE   W03
 BYTE   W03
 BYTE   W03
 BYTE   W03
 BYTE   W03
 BYTE   W03
 BYTE   W03
 BYTE   W03
 BYTE   W03
 BYTE   W03
 BYTE   W03
 BYTE   W03
 BYTE   W03
 BYTE   W03
 BYTE   W03
 BYTE   W03
 BYTE   W03
 BYTE   W03
 BYTE   W03
 BYTE   W03
 BYTE   W03
 BYTE   W03
 BYTE   W03
 BYTE   W03
 BYTE   W03
 BYTE   W03
 BYTE   W03
//  #03 //033   ----------------------------------------
 BYTE   W03
 BYTE   W03
 BYTE   W03
 BYTE   W03
 BYTE   W03
 BYTE   W03
 BYTE   W03
 BYTE   W03
 BYTE   W03
 BYTE   W03
 BYTE   W03
 BYTE   W03
 BYTE   W03
 BYTE   W03
 BYTE   W03
 BYTE   W03
 BYTE   W03
 BYTE   W03
 BYTE   W03
 BYTE   W03
 BYTE   W03
 BYTE   W02
 BYTE   EOT
 BYTE   GnM1  v031
 BYTE   W01
 BYTE   W03
 BYTE   W03
 BYTE   W03
 BYTE   W03
 BYTE   W03
 BYTE   W03
 BYTE   W12
//  #03 //034   ----------------------------------------
 BYTE   W96
//  #03 //035   ----------------------------------------
 BYTE   W96
//  #03 //036   ----------------------------------------
 BYTE   W96
//  #03 //037   ----------------------------------------
 BYTE   W96
//  #03 //038   ----------------------------------------
 BYTE   W96
//  #03 //039   ----------------------------------------
 BYTE   W72
 BYTE   TIE  GnM1  v127
 BYTE   TIE  Gn0  v096
 BYTE   W06
 BYTE   W03
 BYTE   W03
 BYTE   W03
 BYTE   W03
 BYTE   W03
 BYTE   W03
//  #03 //040   ----------------------------------------
 BYTE   W03
 BYTE   W03
 BYTE   W03
 BYTE   W03
 BYTE   W03
 BYTE   W03
 BYTE   W03
 BYTE   W03
 BYTE   W03
 BYTE   W03
 BYTE   W03
 BYTE   W03
 BYTE   W03
 BYTE   W03
 BYTE   W03
 BYTE   W03
 BYTE   W03
 BYTE   W03
 BYTE   W03
 BYTE   W03
 BYTE   W03
 BYTE   W03
 BYTE   W03
 BYTE   W03
 BYTE   W03
 BYTE   W03
 BYTE   W03
 BYTE   W03
 BYTE   W03
 BYTE   W03
 BYTE   W03
 BYTE   W03
//  #03 //041   ----------------------------------------
 BYTE   W03
 BYTE   W03
 BYTE   W03
 BYTE   W03
 BYTE   W03
 BYTE   W03
 BYTE   W03
 BYTE   W03
 BYTE   W02
 BYTE   W11
 BYTE   W06
 BYTE   W06
 BYTE   W05
 BYTE   W06
 BYTE   W06
 BYTE   W05
 BYTE   W06
 BYTE   W05
 BYTE   W06
 BYTE   W06
 BYTE   W02
//  #03 //042   ----------------------------------------
 BYTE   W03
 BYTE   W06
 BYTE   W06
 BYTE   W05
 BYTE   W06
 BYTE   W06
 BYTE   W05
 BYTE   W06
 BYTE   W06
 BYTE   W05
 BYTE   W06
 BYTE   W03
 BYTE   W03
 BYTE   W03
 BYTE   W03
 BYTE   W03
 BYTE   W03
 BYTE   W03
 BYTE   W03
 BYTE   W03
 BYTE   W03
 BYTE   W03
 BYTE   EOT
 BYTE   GnM1  v031
 BYTE   W03
//  #03 //043   ----------------------------------------
 BYTE   GoTo
  POIN2 Label_0176EA3A
 BYTE   FINE

//**************** Track 4 (Midi-Chn.3) ****************//

RightRoad_004:
//  #04 //000   ----------------------------------------
 BYTE   KEYSH   RightRoad_key+0
Label_0176FE9E:
 BYTE   VOICE   13
 BYTE   VOL   31*RightRoad_mvl/mxv
 BYTE   PAN   c_v+10
 BYTE   BEND   c_v+0
 BYTE   N05  Gn4  v076
 BYTE   W12
 BYTE   Gn5  v084
 BYTE   W12
 BYTE   Gn4  v056
 BYTE   W12
 BYTE   Cn5  v064
 BYTE   W12
 BYTE   Dn5  v052
 BYTE   W12
 BYTE   Gn4  v060
 BYTE   W12
 BYTE   Gn5  v064
 BYTE   W12
 BYTE   Gn4
 BYTE   W12
//  #04 //001   ----------------------------------------
Label_0176FEBE:
 BYTE   N05  Cn5  v064
 BYTE   W12
 BYTE   Dn5  v076
 BYTE   W12
 BYTE   Gn4
 BYTE   W12
 BYTE   Cn5  v052
 BYTE   W12
 BYTE   Gn4  v076
 BYTE   W12
 BYTE   Gn5  v084
 BYTE   W12
 BYTE   Gn4  v056
 BYTE   W12
 BYTE   Cn5  v064
 BYTE   W12
 BYTE   PEND 
//  #04 //002   ----------------------------------------
Label_0176FED7:
 BYTE   N05  Dn5  v052
 BYTE   W12
 BYTE   Gn4  v060
 BYTE   W12
 BYTE   Gn5  v064
 BYTE   W12
 BYTE   Gn4
 BYTE   W12
 BYTE   Cn5
 BYTE   W12
 BYTE   Dn5  v076
 BYTE   W12
 BYTE   Gn4
 BYTE   W12
 BYTE   Cn5  v052
 BYTE   W12
 BYTE   PEND 
//  #04 //003   ----------------------------------------
Label_0176FEEE:
 BYTE   N05  Gn4  v076
 BYTE   W12
 BYTE   Gn5  v084
 BYTE   W12
 BYTE   Gn4  v056
 BYTE   W12
 BYTE   Cn5  v064
 BYTE   W12
 BYTE   Dn5  v052
 BYTE   W12
 BYTE   Gn4  v060
 BYTE   W12
 BYTE   Gn5  v064
 BYTE   W12
 BYTE   Gn4
 BYTE   W12
 BYTE   PEND 
//  #04 //004   ----------------------------------------
 BYTE   PATT
  POIN2 Label_0176FEBE
//  #04 //005   ----------------------------------------
 BYTE   PATT
  POIN2 Label_0176FED7
//  #04 //006   ----------------------------------------
 BYTE   PATT
  POIN2 Label_0176FEEE
//  #04 //007   ----------------------------------------
 BYTE   PATT
  POIN2 Label_0176FEBE
//  #04 //008   ----------------------------------------
 BYTE   PATT
  POIN2 Label_0176FED7
//  #04 //009   ----------------------------------------
 BYTE   PATT
  POIN2 Label_0176FEEE
//  #04 //010   ----------------------------------------
 BYTE   PATT
  POIN2 Label_0176FEBE
//  #04 //011   ----------------------------------------
 BYTE   PATT
  POIN2 Label_0176FED7
//  #04 //012   ----------------------------------------
 BYTE   PATT
  POIN2 Label_0176FEEE
//  #04 //013   ----------------------------------------
 BYTE   PATT
  POIN2 Label_0176FEBE
//  #04 //014   ----------------------------------------
 BYTE   PATT
  POIN2 Label_0176FED7
//  #04 //015   ----------------------------------------
 BYTE   PATT
  POIN2 Label_0176FEEE
//  #04 //016   ----------------------------------------
 BYTE   PATT
  POIN2 Label_0176FEBE
//  #04 //017   ----------------------------------------
 BYTE   PATT
  POIN2 Label_0176FED7
//  #04 //018   ----------------------------------------
 BYTE   PATT
  POIN2 Label_0176FEEE
//  #04 //019   ----------------------------------------
 BYTE   PATT
  POIN2 Label_0176FEBE
//  #04 //020   ----------------------------------------
 BYTE   PATT
  POIN2 Label_0176FED7
//  #04 //021   ----------------------------------------
 BYTE   PATT
  POIN2 Label_0176FEEE
//  #04 //022   ----------------------------------------
 BYTE   PATT
  POIN2 Label_0176FEBE
//  #04 //023   ----------------------------------------
 BYTE   PATT
  POIN2 Label_0176FED7
//  #04 //024   ----------------------------------------
 BYTE   PATT
  POIN2 Label_0176FEEE
//  #04 //025   ----------------------------------------
 BYTE   PATT
  POIN2 Label_0176FEBE
//  #04 //026   ----------------------------------------
 BYTE   PATT
  POIN2 Label_0176FED7
//  #04 //027   ----------------------------------------
 BYTE   PATT
  POIN2 Label_0176FEEE
//  #04 //028   ----------------------------------------
 BYTE   PATT
  POIN2 Label_0176FEBE
//  #04 //029   ----------------------------------------
 BYTE   PATT
  POIN2 Label_0176FED7
//  #04 //030   ----------------------------------------
 BYTE   PATT
  POIN2 Label_0176FEEE
//  #04 //031   ----------------------------------------
 BYTE   PATT
  POIN2 Label_0176FEBE
//  #04 //032   ----------------------------------------
 BYTE   PATT
  POIN2 Label_0176FED7
//  #04 //033   ----------------------------------------
 BYTE   PATT
  POIN2 Label_0176FEEE
//  #04 //034   ----------------------------------------
 BYTE   PATT
  POIN2 Label_0176FEBE
//  #04 //035   ----------------------------------------
 BYTE   PATT
  POIN2 Label_0176FED7
//  #04 //036   ----------------------------------------
 BYTE   PATT
  POIN2 Label_0176FEEE
//  #04 //037   ----------------------------------------
 BYTE   PATT
  POIN2 Label_0176FEBE
//  #04 //038   ----------------------------------------
 BYTE   PATT
  POIN2 Label_0176FED7
//  #04 //039   ----------------------------------------
 BYTE   PATT
  POIN2 Label_0176FEEE
//  #04 //040   ----------------------------------------
 BYTE   PATT
  POIN2 Label_0176FEBE
//  #04 //041   ----------------------------------------
 BYTE   PATT
  POIN2 Label_0176FED7
//  #04 //042   ----------------------------------------
 BYTE   PATT
  POIN2 Label_0176FEEE
//  #04 //043   ----------------------------------------
 BYTE   GoTo
  POIN2 Label_0176FE9E
 BYTE   FINE

//**************** Track 5 (Midi-Chn.4) ****************//

RightRoad_005:
//  #05 //000   ----------------------------------------
 BYTE   KEYSH   RightRoad_key+0
Label_0176D9F2:
 BYTE   VOICE   13
 BYTE   VOL   22*RightRoad_mvl/mxv
 BYTE   PAN   c_v-31
 BYTE   BEND   c_v+0
 BYTE   W06
 BYTE   N05  Gn4  v076
 BYTE   W12
 BYTE   Gn5  v084
 BYTE   W12
 BYTE   Gn4  v056
 BYTE   W12
 BYTE   Cn5  v064
 BYTE   W12
 BYTE   Dn5  v052
 BYTE   W12
 BYTE   Gn4  v060
 BYTE   W12
 BYTE   Gn5  v064
 BYTE   W12
 BYTE   Gn4
 BYTE   W06
//  #05 //001   ----------------------------------------
Label_0176DA13:
 BYTE   W06
 BYTE   N05  Cn5  v064
 BYTE   W12
 BYTE   Dn5  v076
 BYTE   W12
 BYTE   Gn4
 BYTE   W12
 BYTE   Cn5  v052
 BYTE   W12
 BYTE   Gn4  v076
 BYTE   W12
 BYTE   Gn5  v084
 BYTE   W12
 BYTE   Gn4  v056
 BYTE   W12
 BYTE   Cn5  v064
 BYTE   W06
 BYTE   PEND 
//  #05 //002   ----------------------------------------
Label_0176DA2D:
 BYTE   W06
 BYTE   N05  Dn5  v052
 BYTE   W12
 BYTE   Gn4  v060
 BYTE   W12
 BYTE   Gn5  v064
 BYTE   W12
 BYTE   Gn4
 BYTE   W12
 BYTE   Cn5
 BYTE   W12
 BYTE   Dn5  v076
 BYTE   W12
 BYTE   Gn4
 BYTE   W12
 BYTE   Cn5  v052
 BYTE   W06
 BYTE   PEND 
//  #05 //003   ----------------------------------------
Label_0176DA45:
 BYTE   W06
 BYTE   N05  Gn4  v076
 BYTE   W12
 BYTE   Gn5  v084
 BYTE   W12
 BYTE   Gn4  v056
 BYTE   W12
 BYTE   Cn5  v064
 BYTE   W12
 BYTE   Dn5  v052
 BYTE   W12
 BYTE   Gn4  v060
 BYTE   W12
 BYTE   Gn5  v064
 BYTE   W12
 BYTE   Gn4
 BYTE   W06
 BYTE   PEND 
//  #05 //004   ----------------------------------------
 BYTE   PATT
  POIN2 Label_0176DA13
//  #05 //005   ----------------------------------------
 BYTE   PATT
  POIN2 Label_0176DA2D
//  #05 //006   ----------------------------------------
 BYTE   PATT
  POIN2 Label_0176DA45
//  #05 //007   ----------------------------------------
 BYTE   PATT
  POIN2 Label_0176DA13
//  #05 //008   ----------------------------------------
 BYTE   PATT
  POIN2 Label_0176DA2D
//  #05 //009   ----------------------------------------
 BYTE   PATT
  POIN2 Label_0176DA45
//  #05 //010   ----------------------------------------
 BYTE   PATT
  POIN2 Label_0176DA13
//  #05 //011   ----------------------------------------
 BYTE   PATT
  POIN2 Label_0176DA2D
//  #05 //012   ----------------------------------------
 BYTE   PATT
  POIN2 Label_0176DA45
//  #05 //013   ----------------------------------------
 BYTE   PATT
  POIN2 Label_0176DA13
//  #05 //014   ----------------------------------------
 BYTE   PATT
  POIN2 Label_0176DA2D
//  #05 //015   ----------------------------------------
 BYTE   PATT
  POIN2 Label_0176DA45
//  #05 //016   ----------------------------------------
 BYTE   PATT
  POIN2 Label_0176DA13
//  #05 //017   ----------------------------------------
 BYTE   PATT
  POIN2 Label_0176DA2D
//  #05 //018   ----------------------------------------
 BYTE   PATT
  POIN2 Label_0176DA45
//  #05 //019   ----------------------------------------
 BYTE   PATT
  POIN2 Label_0176DA13
//  #05 //020   ----------------------------------------
 BYTE   PATT
  POIN2 Label_0176DA2D
//  #05 //021   ----------------------------------------
 BYTE   PATT
  POIN2 Label_0176DA45
//  #05 //022   ----------------------------------------
 BYTE   PATT
  POIN2 Label_0176DA13
//  #05 //023   ----------------------------------------
 BYTE   PATT
  POIN2 Label_0176DA2D
//  #05 //024   ----------------------------------------
 BYTE   PATT
  POIN2 Label_0176DA45
//  #05 //025   ----------------------------------------
 BYTE   PATT
  POIN2 Label_0176DA13
//  #05 //026   ----------------------------------------
 BYTE   PATT
  POIN2 Label_0176DA2D
//  #05 //027   ----------------------------------------
 BYTE   PATT
  POIN2 Label_0176DA45
//  #05 //028   ----------------------------------------
 BYTE   PATT
  POIN2 Label_0176DA13
//  #05 //029   ----------------------------------------
 BYTE   PATT
  POIN2 Label_0176DA2D
//  #05 //030   ----------------------------------------
 BYTE   PATT
  POIN2 Label_0176DA45
//  #05 //031   ----------------------------------------
 BYTE   PATT
  POIN2 Label_0176DA13
//  #05 //032   ----------------------------------------
 BYTE   PATT
  POIN2 Label_0176DA2D
//  #05 //033   ----------------------------------------
 BYTE   PATT
  POIN2 Label_0176DA45
//  #05 //034   ----------------------------------------
 BYTE   PATT
  POIN2 Label_0176DA13
//  #05 //035   ----------------------------------------
 BYTE   PATT
  POIN2 Label_0176DA2D
//  #05 //036   ----------------------------------------
 BYTE   PATT
  POIN2 Label_0176DA45
//  #05 //037   ----------------------------------------
 BYTE   PATT
  POIN2 Label_0176DA13
//  #05 //038   ----------------------------------------
 BYTE   PATT
  POIN2 Label_0176DA2D
//  #05 //039   ----------------------------------------
 BYTE   PATT
  POIN2 Label_0176DA45
//  #05 //040   ----------------------------------------
 BYTE   PATT
  POIN2 Label_0176DA13
//  #05 //041   ----------------------------------------
 BYTE   PATT
  POIN2 Label_0176DA2D
//  #05 //042   ----------------------------------------
 BYTE   PATT
  POIN2 Label_0176DA45
//  #05 //043   ----------------------------------------
 BYTE   GoTo
  POIN2 Label_0176D9F2
 BYTE   FINE

//**************** Track 6 (Midi-Chn.5) ****************//

RightRoad_006:
//  #06 //000   ----------------------------------------
 BYTE   KEYSH   RightRoad_key+0
Label_0159433E:
 BYTE   VOICE   73
 BYTE   VOL   38*RightRoad_mvl/mxv
 BYTE   PAN   c_v-12
 BYTE   BEND   c_v+0
 BYTE   W96
//  #06 //001   ----------------------------------------
 BYTE   W96
//  #06 //002   ----------------------------------------
 BYTE   W96
//  #06 //003   ----------------------------------------
 BYTE   W96
//  #06 //004   ----------------------------------------
 BYTE   W96
//  #06 //005   ----------------------------------------
 BYTE   W96
//  #06 //006   ----------------------------------------
Label_0159434C:
 BYTE   N11  Gn3  v100
 BYTE   W02
 BYTE   W01
 BYTE   W02
 BYTE   W01
 BYTE   W02
 BYTE   W01
 BYTE   W03
 BYTE   Cn4  v088
 BYTE   W12
 BYTE   Dn4
 BYTE   W09
 BYTE   W01
 BYTE   W02
 BYTE   N32  Gn4  v104
 BYTE   W01
 BYTE   W01
 BYTE   W01
 BYTE   W01
 BYTE   W01
 BYTE   W01
 BYTE   W01
 BYTE   W07
 BYTE   W07
 BYTE   W07
 BYTE   W01
 BYTE   W02
 BYTE   W01
 BYTE   W02
 BYTE   W01
 BYTE   W01
 BYTE   Fn4  v092
 BYTE   W01
 BYTE   W01
 BYTE   W02
 BYTE   W03
 BYTE   W03
 BYTE   W03
 BYTE   W03
 BYTE   W03
 BYTE   W03
 BYTE   W02
 BYTE   PEND 
//  #06 //007   ----------------------------------------
Label_0159437D:
 BYTE   W01
 BYTE   W03
 BYTE   W03
 BYTE   W03
 BYTE   W02
 BYTE   N23  Cn4  v096
 BYTE   W01
 BYTE   W01
 BYTE   W03
 BYTE   W03
 BYTE   W03
 BYTE   W03
 BYTE   W03
 BYTE   W03
 BYTE   W03
 BYTE   W01
 BYTE   N11  En4  v092
 BYTE   W02
 BYTE   W03
 BYTE   W03
 BYTE   W03
 BYTE   W01
 BYTE   TIE  Dn4
 BYTE   W02
 BYTE   W02
 BYTE   W04
 BYTE   W04
 BYTE   W04
 BYTE   W04
 BYTE   W04
 BYTE   W05
 BYTE   W03
 BYTE   W03
 BYTE   W03
 BYTE   W03
 BYTE   W03
 BYTE   W03
 BYTE   W01
 BYTE   PEND 
//  #06 //008   ----------------------------------------
Label_015943A9:
 BYTE   W02
 BYTE   W03
 BYTE   W03
 BYTE   W03
 BYTE   W03
 BYTE   W03
 BYTE   W03
 BYTE   W03
 BYTE   W03
 BYTE   W01
 BYTE   W02
 BYTE   W01
 BYTE   W02
 BYTE   W01
 BYTE   W02
 BYTE   W01
 BYTE   W02
 BYTE   W01
 BYTE   W02
 BYTE   W01
 BYTE   W02
 BYTE   W01
 BYTE   W02
 BYTE   W01
 BYTE   W02
 BYTE   W01
 BYTE   W02
 BYTE   W01
 BYTE   W02
 BYTE   W01
 BYTE   W02
 BYTE   W01
 BYTE   W02
 BYTE   W01
 BYTE   W02
 BYTE   W01
 BYTE   W06
 BYTE   PEND 
 BYTE   EOT
 BYTE   Dn4
 BYTE   W24
//  #06 //009   ----------------------------------------
Label_015943D2:
 BYTE   N11  Gn3  v100
 BYTE   W02
 BYTE   W01
 BYTE   W02
 BYTE   W01
 BYTE   W02
 BYTE   W01
 BYTE   W03
 BYTE   Cn4  v088
 BYTE   W12
 BYTE   Dn4
 BYTE   W09
 BYTE   W01
 BYTE   W02
 BYTE   N32  Gn4  v104
 BYTE   W01
 BYTE   W01
 BYTE   W01
 BYTE   W01
 BYTE   W01
 BYTE   W01
 BYTE   W01
 BYTE   W07
 BYTE   W07
 BYTE   W07
 BYTE   W01
 BYTE   W02
 BYTE   W01
 BYTE   W02
 BYTE   W01
 BYTE   W01
 BYTE   Fn4  v096
 BYTE   W01
 BYTE   W01
 BYTE   W02
 BYTE   W03
 BYTE   W03
 BYTE   W03
 BYTE   W03
 BYTE   W03
 BYTE   W03
 BYTE   W02
 BYTE   PEND 
//  #06 //010   ----------------------------------------
Label_01594403:
 BYTE   W01
 BYTE   W03
 BYTE   W03
 BYTE   W03
 BYTE   W02
 BYTE   N11  An4  v088
 BYTE   W01
 BYTE   W01
 BYTE   W03
 BYTE   W03
 BYTE   W03
 BYTE   W01
 BYTE   Fn4
 BYTE   W02
 BYTE   W03
 BYTE   W03
 BYTE   W03
 BYTE   W01
 BYTE   An4  v100
 BYTE   W02
 BYTE   W03
 BYTE   W03
 BYTE   W03
 BYTE   W01
 BYTE   TIE  Gn4  v096
 BYTE   W02
 BYTE   W02
 BYTE   W04
 BYTE   W04
 BYTE   W04
 BYTE   W04
 BYTE   W04
 BYTE   W05
 BYTE   W03
 BYTE   W03
 BYTE   W03
 BYTE   W03
 BYTE   W03
 BYTE   W03
 BYTE   W01
 BYTE   PEND 
//  #06 //011   ----------------------------------------
 BYTE   PATT
  POIN2 Label_015943A9
//  #06 //012   ----------------------------------------
 BYTE   EOT
 BYTE   Gn4
 BYTE   W24
//  #06 //013   ----------------------------------------
 BYTE   PATT
  POIN2 Label_0159434C
//  #06 //014   ----------------------------------------
 BYTE   PATT
  POIN2 Label_0159437D
//  #06 //015   ----------------------------------------
 BYTE   PATT
  POIN2 Label_015943A9
//  #06 //016   ----------------------------------------
 BYTE   EOT
 BYTE   Dn4
 BYTE   W24
//  #06 //017   ----------------------------------------
 BYTE   PATT
  POIN2 Label_015943D2
//  #06 //018   ----------------------------------------
 BYTE   PATT
  POIN2 Label_01594403
//  #06 //019   ----------------------------------------
 BYTE   W02
 BYTE   W03
 BYTE   W03
 BYTE   W03
 BYTE   W03
 BYTE   W03
 BYTE   W03
 BYTE   W03
 BYTE   W01
 BYTE   W09
 BYTE   W04
 BYTE   W04
 BYTE   W04
 BYTE   W04
 BYTE   W05
 BYTE   W04
 BYTE   W04
 BYTE   W04
 BYTE   W04
 BYTE   W05
 BYTE   W04
 BYTE   W04
 BYTE   W04
 BYTE   W04
 BYTE   W04
 BYTE   W01
//  #06 //020   ----------------------------------------
 BYTE   W04
 BYTE   W04
 BYTE   W04
 BYTE   W04
 BYTE   W04
 BYTE   W05
 BYTE   W04
 BYTE   W04
 BYTE   W04
 BYTE   W04
 BYTE   W05
 BYTE   W04
 BYTE   W04
 BYTE   W04
 BYTE   W04
 BYTE   W05
 BYTE   W03
 BYTE   W03
 BYTE   W03
 BYTE   W03
 BYTE   W03
 BYTE   W03
 BYTE   W03
 BYTE   W03
 BYTE   W03
 BYTE   W02
//  #06 //021   ----------------------------------------
 BYTE   W01
 BYTE   W03
 BYTE   W03
 BYTE   W03
 BYTE   W03
 BYTE   W03
 BYTE   W03
 BYTE   W03
 BYTE   W03
 BYTE   W01
 BYTE   W03
 BYTE   EOT
 BYTE   Gn4
 BYTE   W66
 BYTE   W01
//  #06 //022   ----------------------------------------
 BYTE   W96
//  #06 //023   ----------------------------------------
 BYTE   W96
//  #06 //024   ----------------------------------------
 BYTE   W96
//  #06 //025   ----------------------------------------
 BYTE   W96
//  #06 //026   ----------------------------------------
 BYTE   W96
//  #06 //027   ----------------------------------------
 BYTE   W96
//  #06 //028   ----------------------------------------
 BYTE   W96
//  #06 //029   ----------------------------------------
 BYTE   W96
//  #06 //030   ----------------------------------------
 BYTE   W96
//  #06 //031   ----------------------------------------
 BYTE   W96
//  #06 //032   ----------------------------------------
 BYTE   W96
//  #06 //033   ----------------------------------------
 BYTE   W96
//  #06 //034   ----------------------------------------
 BYTE   W96
//  #06 //035   ----------------------------------------
 BYTE   W96
//  #06 //036   ----------------------------------------
 BYTE   W96
//  #06 //037   ----------------------------------------
 BYTE   W96
//  #06 //038   ----------------------------------------
 BYTE   W96
//  #06 //039   ----------------------------------------
 BYTE   W96
//  #06 //040   ----------------------------------------
 BYTE   W96
//  #06 //041   ----------------------------------------
 BYTE   W96
//  #06 //042   ----------------------------------------
 BYTE   W96
//  #06 //043   ----------------------------------------
 BYTE   W96
//  #06 //044   ----------------------------------------
 BYTE   W96
//  #06 //045   ----------------------------------------
 BYTE   GoTo
  POIN2 Label_0159433E
 BYTE   FINE

//******************************************************//
	ALIGN 4

RightRoad:
	BYTE	6	// NumTrks
	BYTE	0	// NumBlks
	BYTE	RightRoad_pri	// Priority
	BYTE	RightRoad_rev	// Reverb.
    
	POIN2	RightRoad_grp
    
	POIN2	RightRoad_001
	POIN2	RightRoad_002
	POIN2	RightRoad_003
	POIN2	RightRoad_004
	POIN2	RightRoad_005
	POIN2	RightRoad_006

	
