//Event file generated from Sappy .s format.
	#include "MPlayDef.event"

	#define	RiversInTheDesert_grp  voicegroup000
	#define	RiversInTheDesert_pri  0
	#define	RiversInTheDesert_rev  0
	#define	RiversInTheDesert_mvl  127
	#define	RiversInTheDesert_key  0
	#define	RiversInTheDesert_tbs  1
	#define	RiversInTheDesert_exg  0
	#define	RiversInTheDesert_cmp  1

	// .rodata
	//	RiversInTheDesert
	ALIGN 4


//**************** Track 1 (Midi-Chn.0) ****************//

RiversInTheDesert_001:
//  #01 //000   ----------------------------------------
 BYTE   KEYSH   RiversInTheDesert_key+0
 BYTE   TEMPO   132*RiversInTheDesert_tbs/2
 BYTE   VOICE   106
 BYTE   VOL   48*RiversInTheDesert_mvl/mxv
 BYTE   PAN   c_v+0
 BYTE   PAN   c_v+0
 BYTE   W96
//  #01 //001   ----------------------------------------
 BYTE   W96
//  #01 //002   ----------------------------------------
 BYTE   W96
//  #01 //003   ----------------------------------------
 BYTE   W96
//  #01 //004   ----------------------------------------
 BYTE   W96
//  #01 //005   ----------------------------------------
 BYTE   W96
//  #01 //006   ----------------------------------------
 BYTE   W96
//  #01 //007   ----------------------------------------
 BYTE   W96
//  #01 //008   ----------------------------------------
 BYTE   W96
//  #01 //009   ----------------------------------------
 BYTE   W96
//  #01 //010   ----------------------------------------
 BYTE   W96
//  #01 //011   ----------------------------------------
 BYTE   W96
//  #01 //012   ----------------------------------------
 BYTE   W96
//  #01 //013   ----------------------------------------
 BYTE   W96
//  #01 //014   ----------------------------------------
 BYTE   W96
//  #01 //015   ----------------------------------------
 BYTE   W96
//  #01 //016   ----------------------------------------
 BYTE   W12
 BYTE   N11  Gn2  v080
 BYTE   W12
 BYTE   N11
 BYTE   W12
 BYTE   N11
 BYTE   W12
 BYTE   N11
 BYTE   W12
 BYTE   N11
 BYTE   W24
 BYTE   N11
 BYTE   W12
//  #01 //017   ----------------------------------------
Label_01004FB2:
 BYTE   N11  Gn2  v080
 BYTE   W12
 BYTE   N11
 BYTE   W24
 BYTE   N11
 BYTE   W12
 BYTE   Dn3
 BYTE   W12
 BYTE   As2
 BYTE   W12
 BYTE   Cn3
 BYTE   W12
 BYTE   Gn2
 BYTE   W12
 BYTE   PEND 
//  #01 //018   ----------------------------------------
Label_01004FC3:
 BYTE   W12
 BYTE   N11  Gn2  v080
 BYTE   W12
 BYTE   N11
 BYTE   W12
 BYTE   N05
 BYTE   W06
 BYTE   N05
 BYTE   W06
 BYTE   N11
 BYTE   W12
 BYTE   N11
 BYTE   W24
 BYTE   N23  Dn3
 BYTE   W12
 BYTE   PEND 
//  #01 //019   ----------------------------------------
 BYTE   W12
 BYTE   N80  Fn3
 BYTE   W84
//  #01 //020   ----------------------------------------
Label_01004FDA:
 BYTE   W12
 BYTE   N11  Gn2  v080
 BYTE   W12
 BYTE   N11
 BYTE   W12
 BYTE   N05
 BYTE   W06
 BYTE   N05
 BYTE   W06
 BYTE   N11
 BYTE   W12
 BYTE   N11
 BYTE   W24
 BYTE   N11
 BYTE   W12
 BYTE   PEND 
//  #01 //021   ----------------------------------------
Label_01004FEC:
 BYTE   N11  Dn3  v080
 BYTE   W12
 BYTE   As2
 BYTE   W12
 BYTE   Cn3
 BYTE   W12
 BYTE   N23  Gn2
 BYTE   W24
 BYTE   As2
 BYTE   W24
 BYTE   N44  Gn2
 BYTE   W12
 BYTE   PEND 
//  #01 //022   ----------------------------------------
 BYTE   W36
 BYTE   N56  As2
 BYTE   W60
//  #01 //023   ----------------------------------------
Label_01005001:
 BYTE   W36
 BYTE   N11  Gn3  v080
 BYTE   W12
 BYTE   N17  Cn4
 BYTE   W18
 BYTE   As3
 BYTE   W18
 BYTE   N05  An3
 BYTE   W06
 BYTE   N05
 BYTE   W06
 BYTE   PEND 
//  #01 //024   ----------------------------------------
Label_01005011:
 BYTE   N32  Gn3  v080
 BYTE   W36
 BYTE   N56  As3
 BYTE   W60
 BYTE   PEND 
//  #01 //025   ----------------------------------------
 BYTE   PATT
  POIN2 Label_01005001
//  #01 //026   ----------------------------------------
 BYTE   PATT
  POIN2 Label_01005011
//  #01 //027   ----------------------------------------
 BYTE   PATT
  POIN2 Label_01005001
//  #01 //028   ----------------------------------------
 BYTE   PATT
  POIN2 Label_01005011
//  #01 //029   ----------------------------------------
 BYTE   PATT
  POIN2 Label_01005001
//  #01 //030   ----------------------------------------
 BYTE   PATT
  POIN2 Label_01005011
//  #01 //031   ----------------------------------------
 BYTE   W96
//  #01 //032   ----------------------------------------
Label_01005038:
 BYTE   W12
 BYTE   N11  Gn2  v080
 BYTE   W12
 BYTE   N11
 BYTE   W12
 BYTE   N05
 BYTE   W06
 BYTE   N05
 BYTE   W06
 BYTE   N11
 BYTE   W12
 BYTE   N11
 BYTE   W24
 BYTE   N05
 BYTE   W06
 BYTE   N05
 BYTE   W06
 BYTE   PEND 
//  #01 //033   ----------------------------------------
 BYTE   PATT
  POIN2 Label_01004FB2
//  #01 //034   ----------------------------------------
 BYTE   PATT
  POIN2 Label_01004FC3
//  #01 //035   ----------------------------------------
 BYTE   W12
 BYTE   N80  Fn3  v080
 BYTE   W84
//  #01 //036   ----------------------------------------
 BYTE   PATT
  POIN2 Label_01004FDA
//  #01 //037   ----------------------------------------
 BYTE   PATT
  POIN2 Label_01004FEC
//  #01 //038   ----------------------------------------
 BYTE   W36
 BYTE   N56  As2  v080
 BYTE   W60
//  #01 //039   ----------------------------------------
 BYTE   W96
//  #01 //040   ----------------------------------------
 BYTE   PATT
  POIN2 Label_01005038
//  #01 //041   ----------------------------------------
 BYTE   PATT
  POIN2 Label_01004FB2
//  #01 //042   ----------------------------------------
 BYTE   PATT
  POIN2 Label_01004FDA
//  #01 //043   ----------------------------------------
 BYTE   PATT
  POIN2 Label_01004FEC
//  #01 //044   ----------------------------------------
 BYTE   W36
 BYTE   N56  As2  v080
 BYTE   W60
//  #01 //045   ----------------------------------------
 BYTE   W96
//  #01 //046   ----------------------------------------
 BYTE   W96
//  #01 //047   ----------------------------------------
 BYTE   PATT
  POIN2 Label_01005001
//  #01 //048   ----------------------------------------
 BYTE   PATT
  POIN2 Label_01005011
//  #01 //049   ----------------------------------------
 BYTE   PATT
  POIN2 Label_01005001
//  #01 //050   ----------------------------------------
 BYTE   PATT
  POIN2 Label_01005011
//  #01 //051   ----------------------------------------
Label_0100509A:
 BYTE   W60
 BYTE   N11  Gn3  v080
 BYTE   W12
 BYTE   An3
 BYTE   W12
 BYTE   As3
 BYTE   W12
 BYTE   PEND 
//  #01 //052   ----------------------------------------
Label_010050A4:
 BYTE   W12
 BYTE   N11  As3  v080
 BYTE   W24
 BYTE   N11
 BYTE   W24
 BYTE   N11
 BYTE   W24
 BYTE   Cn4
 BYTE   W12
 BYTE   PEND 
//  #01 //053   ----------------------------------------
Label_010050B0:
 BYTE   W12
 BYTE   N11  Fn3  v080
 BYTE   W24
 BYTE   N11
 BYTE   W24
 BYTE   N11
 BYTE   W24
 BYTE   N56  Gn3
 BYTE   W12
 BYTE   PEND 
//  #01 //054   ----------------------------------------
Label_010050BD:
 BYTE   W60
 BYTE   N11  Fn3  v080
 BYTE   W12
 BYTE   Gn3
 BYTE   W12
 BYTE   N23  An3
 BYTE   W12
 BYTE   PEND 
//  #01 //055   ----------------------------------------
Label_010050C8:
 BYTE   W12
 BYTE   N11  An3  v080
 BYTE   W24
 BYTE   Gn3
 BYTE   W12
 BYTE   N17  Cn4
 BYTE   W18
 BYTE   As3
 BYTE   W18
 BYTE   N05  An3
 BYTE   W06
 BYTE   N05
 BYTE   W06
 BYTE   PEND 
//  #01 //056   ----------------------------------------
 BYTE   PATT
  POIN2 Label_01005011
//  #01 //057   ----------------------------------------
 BYTE   PATT
  POIN2 Label_01005001
//  #01 //058   ----------------------------------------
 BYTE   PATT
  POIN2 Label_01005011
//  #01 //059   ----------------------------------------
 BYTE   PATT
  POIN2 Label_01005001
//  #01 //060   ----------------------------------------
Label_010050EE:
 BYTE   N32  Gn3  v080
 BYTE   W36
 BYTE   As3
 BYTE   W48
 BYTE   N11
 BYTE   W12
 BYTE   PEND 
//  #01 //061   ----------------------------------------
Label_010050F7:
 BYTE   N32  An3  v080
 BYTE   W36
 BYTE   N23  Cn4
 BYTE   W24
 BYTE   As3
 BYTE   W24
 BYTE   N56
 BYTE   W12
 BYTE   PEND 
//  #01 //062   ----------------------------------------
 BYTE   PATT
  POIN2 Label_0100509A
//  #01 //063   ----------------------------------------
Label_01005108:
 BYTE   N11  Cs4  v080
 BYTE   W12
 BYTE   Cn4
 BYTE   W36
 BYTE   N11
 BYTE   W12
 BYTE   As3
 BYTE   W24
 BYTE   N32  Cn4
 BYTE   W12
 BYTE   PEND 
//  #01 //064   ----------------------------------------
 BYTE   W24
 BYTE   N68
 BYTE   W72
//  #01 //065   ----------------------------------------
 BYTE   W96
//  #01 //066   ----------------------------------------
 BYTE   W96
//  #01 //067   ----------------------------------------
 BYTE   W96
//  #01 //068   ----------------------------------------
 BYTE   W96
//  #01 //069   ----------------------------------------
 BYTE   W96
//  #01 //070   ----------------------------------------
 BYTE   W96
//  #01 //071   ----------------------------------------
 BYTE   W96
//  #01 //072   ----------------------------------------
Label_01005120:
 BYTE   W96
//  #01 //073   ----------------------------------------
 BYTE   W96
//  #01 //074   ----------------------------------------
 BYTE   W96
//  #01 //075   ----------------------------------------
 BYTE   W96
//  #01 //076   ----------------------------------------
 BYTE   W96
//  #01 //077   ----------------------------------------
 BYTE   W96
//  #01 //078   ----------------------------------------
 BYTE   W96
//  #01 //079   ----------------------------------------
 BYTE   W96
//  #01 //080   ----------------------------------------
 BYTE   PATT
  POIN2 Label_01005038
//  #01 //081   ----------------------------------------
 BYTE   PATT
  POIN2 Label_01004FB2
//  #01 //082   ----------------------------------------
 BYTE   W12
 BYTE   N11  Gn2  v080
 BYTE   W12
 BYTE   N11
 BYTE   W12
 BYTE   N11
 BYTE   W12
 BYTE   N11
 BYTE   W12
 BYTE   N11
 BYTE   W24
 BYTE   N23  Dn3
 BYTE   W12
//  #01 //083   ----------------------------------------
 BYTE   W12
 BYTE   N80  Fn3
 BYTE   W84
//  #01 //084   ----------------------------------------
 BYTE   PATT
  POIN2 Label_01004FDA
//  #01 //085   ----------------------------------------
 BYTE   PATT
  POIN2 Label_01004FEC
//  #01 //086   ----------------------------------------
 BYTE   W36
 BYTE   N56  As2  v080
 BYTE   W60
//  #01 //087   ----------------------------------------
 BYTE   W96
//  #01 //088   ----------------------------------------
 BYTE   PATT
  POIN2 Label_01005038
//  #01 //089   ----------------------------------------
 BYTE   PATT
  POIN2 Label_01004FB2
//  #01 //090   ----------------------------------------
 BYTE   PATT
  POIN2 Label_01004FDA
//  #01 //091   ----------------------------------------
 BYTE   PATT
  POIN2 Label_01004FEC
//  #01 //092   ----------------------------------------
 BYTE   W36
 BYTE   N56  As2  v080
 BYTE   W60
//  #01 //093   ----------------------------------------
 BYTE   W96
//  #01 //094   ----------------------------------------
 BYTE   W96
//  #01 //095   ----------------------------------------
 BYTE   PATT
  POIN2 Label_01005001
//  #01 //096   ----------------------------------------
 BYTE   PATT
  POIN2 Label_01005011
//  #01 //097   ----------------------------------------
 BYTE   PATT
  POIN2 Label_01005001
//  #01 //098   ----------------------------------------
 BYTE   PATT
  POIN2 Label_01005011
//  #01 //099   ----------------------------------------
 BYTE   PATT
  POIN2 Label_0100509A
//  #01 //100   ----------------------------------------
 BYTE   PATT
  POIN2 Label_010050A4
//  #01 //101   ----------------------------------------
 BYTE   PATT
  POIN2 Label_010050B0
//  #01 //102   ----------------------------------------
 BYTE   PATT
  POIN2 Label_010050BD
//  #01 //103   ----------------------------------------
 BYTE   PATT
  POIN2 Label_010050C8
//  #01 //104   ----------------------------------------
 BYTE   PATT
  POIN2 Label_01005011
//  #01 //105   ----------------------------------------
 BYTE   PATT
  POIN2 Label_01005001
//  #01 //106   ----------------------------------------
 BYTE   PATT
  POIN2 Label_01005011
//  #01 //107   ----------------------------------------
 BYTE   PATT
  POIN2 Label_01005001
//  #01 //108   ----------------------------------------
 BYTE   PATT
  POIN2 Label_010050EE
//  #01 //109   ----------------------------------------
 BYTE   PATT
  POIN2 Label_010050F7
//  #01 //110   ----------------------------------------
 BYTE   PATT
  POIN2 Label_0100509A
//  #01 //111   ----------------------------------------
 BYTE   N11  Cs4  v080
 BYTE   W12
 BYTE   Cn4
 BYTE   W36
 BYTE   N11
 BYTE   W12
 BYTE   As3
 BYTE   W24
 BYTE   N23  Cn4
 BYTE   W12
//  #01 //112   ----------------------------------------
 BYTE   W12
 BYTE   N80
 BYTE   W84
//  #01 //113   ----------------------------------------
 BYTE   W96
//  #01 //114   ----------------------------------------
 BYTE   W96
//  #01 //115   ----------------------------------------
 BYTE   W96
//  #01 //116   ----------------------------------------
 BYTE   W96
//  #01 //117   ----------------------------------------
 BYTE   W96
//  #01 //118   ----------------------------------------
 BYTE   W96
//  #01 //119   ----------------------------------------
Label_010051D7:
 BYTE   W84
 BYTE   N05  Dn3  v080
 BYTE   W06
 BYTE   N05
 BYTE   W06
 BYTE   PEND 
//  #01 //120   ----------------------------------------
 BYTE   N32  Fn3
 BYTE   W36
 BYTE   Gn3
 BYTE   W36
 BYTE   N23  Fn3
 BYTE   W24
//  #01 //121   ----------------------------------------
 BYTE   N32
 BYTE   W36
 BYTE   N44  Ds3
 BYTE   W48
 BYTE   N05  Dn3
 BYTE   W06
 BYTE   Cn3
 BYTE   W06
//  #01 //122   ----------------------------------------
 BYTE   N92  Dn3
 BYTE   W96
//  #01 //123   ----------------------------------------
 BYTE   PATT
  POIN2 Label_010051D7
//  #01 //124   ----------------------------------------
 BYTE   N23  Fn3  v080
 BYTE   W24
 BYTE   Gn3
 BYTE   W24
 BYTE   An3
 BYTE   W24
 BYTE   Dn3
 BYTE   W24
//  #01 //125   ----------------------------------------
 BYTE   N32  As3
 BYTE   W36
 BYTE   N44  An3
 BYTE   W48
 BYTE   N11  Fn3
 BYTE   W12
//  #01 //126   ----------------------------------------
 BYTE   N92
 BYTE   W96
//  #01 //127   ----------------------------------------
 BYTE   W48
 BYTE   N44
 BYTE   W48
//  #01 //128   ----------------------------------------
 BYTE   N32
 BYTE   W36
 BYTE   Ds3
 BYTE   W36
 BYTE   N23  Dn3
 BYTE   W24
//  #01 //129   ----------------------------------------
 BYTE   N44  Cn3
 BYTE   W96
//  #01 //130   ----------------------------------------
 BYTE   N05  As2
 BYTE   W06
 BYTE   Cn3
 BYTE   W06
 BYTE   N32  Dn3
 BYTE   W84
//  #01 //131   ----------------------------------------
 BYTE   N05
 BYTE   W06
 BYTE   Ds3
 BYTE   W06
 BYTE   N32  Fn3
 BYTE   W36
 BYTE   N44
 BYTE   W48
//  #01 //132   ----------------------------------------
 BYTE   N92  Gn3
 BYTE   W96
//  #01 //133   ----------------------------------------
 BYTE   W96
//  #01 //134   ----------------------------------------
 BYTE   N92
 BYTE   W96
//  #01 //135   ----------------------------------------
 BYTE   N32  Cn4
 BYTE   W36
 BYTE   N44  As3
 BYTE   W48
 BYTE   N05  An3
 BYTE   W06
 BYTE   N05
 BYTE   W06
//  #01 //136   ----------------------------------------
 BYTE   PATT
  POIN2 Label_01005011
//  #01 //137   ----------------------------------------
 BYTE   PATT
  POIN2 Label_01005001
//  #01 //138   ----------------------------------------
 BYTE   PATT
  POIN2 Label_01005011
//  #01 //139   ----------------------------------------
 BYTE   PATT
  POIN2 Label_0100509A
//  #01 //140   ----------------------------------------
 BYTE   PATT
  POIN2 Label_010050A4
//  #01 //141   ----------------------------------------
 BYTE   PATT
  POIN2 Label_010050B0
//  #01 //142   ----------------------------------------
 BYTE   PATT
  POIN2 Label_010050BD
//  #01 //143   ----------------------------------------
 BYTE   PATT
  POIN2 Label_010050C8
//  #01 //144   ----------------------------------------
 BYTE   PATT
  POIN2 Label_01005011
//  #01 //145   ----------------------------------------
 BYTE   PATT
  POIN2 Label_01005001
//  #01 //146   ----------------------------------------
 BYTE   PATT
  POIN2 Label_01005011
//  #01 //147   ----------------------------------------
 BYTE   PATT
  POIN2 Label_01005001
//  #01 //148   ----------------------------------------
 BYTE   PATT
  POIN2 Label_010050EE
//  #01 //149   ----------------------------------------
 BYTE   PATT
  POIN2 Label_010050F7
//  #01 //150   ----------------------------------------
 BYTE   PATT
  POIN2 Label_0100509A
//  #01 //151   ----------------------------------------
 BYTE   PATT
  POIN2 Label_01005108
//  #01 //152   ----------------------------------------
 BYTE   W24
 BYTE   N68  Cn4  v080
 BYTE   W72
//  #01 //153   ----------------------------------------
 BYTE   W96
//  #01 //154   ----------------------------------------
 BYTE   W96
//  #01 //155   ----------------------------------------
 BYTE   W96
//  #01 //156   ----------------------------------------
 BYTE   W96
//  #01 //157   ----------------------------------------
 BYTE   W96
//  #01 //158   ----------------------------------------
 BYTE   W96
//  #01 //159   ----------------------------------------
 BYTE   W96
//  #01 //160   ----------------------------------------
 BYTE   GoTo
  POIN2 Label_01005120
//  #01 //161   ----------------------------------------
 BYTE   W96
//  #01 //162   ----------------------------------------
 BYTE   W96
//  #01 //163   ----------------------------------------
 BYTE   W96
//  #01 //164   ----------------------------------------
 BYTE   W96
//  #01 //165   ----------------------------------------
 BYTE   W96
//  #01 //166   ----------------------------------------
 BYTE   W96
//  #01 //167   ----------------------------------------
 BYTE   W96
//  #01 //168   ----------------------------------------
 BYTE   W92
 BYTE   W03
 BYTE   FINE

//**************** Track 2 (Midi-Chn.1) ****************//

RiversInTheDesert_002:
//  #02 //000   ----------------------------------------
 BYTE   KEYSH   RiversInTheDesert_key+0
 BYTE   VOICE   106
 BYTE   VOL   8*RiversInTheDesert_mvl/mxv
 BYTE   PAN   c_v+0
 BYTE   PAN   c_v+0
 BYTE   W96
//  #02 //001   ----------------------------------------
 BYTE   W96
//  #02 //002   ----------------------------------------
 BYTE   W96
//  #02 //003   ----------------------------------------
 BYTE   W96
//  #02 //004   ----------------------------------------
 BYTE   W96
//  #02 //005   ----------------------------------------
 BYTE   W96
//  #02 //006   ----------------------------------------
 BYTE   W96
//  #02 //007   ----------------------------------------
 BYTE   W96
//  #02 //008   ----------------------------------------
 BYTE   W96
//  #02 //009   ----------------------------------------
 BYTE   W96
//  #02 //010   ----------------------------------------
 BYTE   W96
//  #02 //011   ----------------------------------------
 BYTE   W96
//  #02 //012   ----------------------------------------
 BYTE   W96
//  #02 //013   ----------------------------------------
 BYTE   W96
//  #02 //014   ----------------------------------------
 BYTE   W96
//  #02 //015   ----------------------------------------
 BYTE   W96
//  #02 //016   ----------------------------------------
 BYTE   W12
 BYTE   N11  Dn3  v080
 BYTE   W12
 BYTE   N11
 BYTE   W12
 BYTE   N11
 BYTE   W12
 BYTE   N11
 BYTE   W12
 BYTE   N11
 BYTE   W24
 BYTE   N11
 BYTE   W12
//  #02 //017   ----------------------------------------
Label_010052E0:
 BYTE   N11  Dn3  v080
 BYTE   W12
 BYTE   N11
 BYTE   W24
 BYTE   N11
 BYTE   W12
 BYTE   An3
 BYTE   W12
 BYTE   Fn3
 BYTE   W12
 BYTE   Gn3
 BYTE   W12
 BYTE   Dn3
 BYTE   W12
 BYTE   PEND 
//  #02 //018   ----------------------------------------
Label_010052F1:
 BYTE   W12
 BYTE   N11  Dn3  v080
 BYTE   W12
 BYTE   N11
 BYTE   W12
 BYTE   N05
 BYTE   W06
 BYTE   N05
 BYTE   W06
 BYTE   N11
 BYTE   W12
 BYTE   N11
 BYTE   W24
 BYTE   N23  An3
 BYTE   W12
 BYTE   PEND 
//  #02 //019   ----------------------------------------
 BYTE   W12
 BYTE   N80  Cn4
 BYTE   W84
//  #02 //020   ----------------------------------------
Label_01005308:
 BYTE   W12
 BYTE   N11  Dn3  v080
 BYTE   W12
 BYTE   N11
 BYTE   W12
 BYTE   N05
 BYTE   W06
 BYTE   N05
 BYTE   W06
 BYTE   N11
 BYTE   W12
 BYTE   N11
 BYTE   W24
 BYTE   N11
 BYTE   W12
 BYTE   PEND 
//  #02 //021   ----------------------------------------
Label_0100531A:
 BYTE   N11  An3  v080
 BYTE   W12
 BYTE   Fn3
 BYTE   W12
 BYTE   Gn3
 BYTE   W12
 BYTE   N23  Dn3
 BYTE   W24
 BYTE   Fn3
 BYTE   W24
 BYTE   N44  Dn3
 BYTE   W12
 BYTE   PEND 
//  #02 //022   ----------------------------------------
 BYTE   W36
 BYTE   N56  Fn3
 BYTE   W60
//  #02 //023   ----------------------------------------
 BYTE   W96
//  #02 //024   ----------------------------------------
Label_01005330:
 BYTE   N32  As2  v080
 BYTE   W36
 BYTE   N56  Dn3
 BYTE   W60
 BYTE   PEND 
//  #02 //025   ----------------------------------------
 BYTE   W96
//  #02 //026   ----------------------------------------
Label_01005339:
 BYTE   N32  As2  v080
 BYTE   W36
 BYTE   N56  En3
 BYTE   W60
 BYTE   PEND 
//  #02 //027   ----------------------------------------
 BYTE   W96
//  #02 //028   ----------------------------------------
 BYTE   PATT
  POIN2 Label_01005330
//  #02 //029   ----------------------------------------
 BYTE   W96
//  #02 //030   ----------------------------------------
 BYTE   PATT
  POIN2 Label_01005339
//  #02 //031   ----------------------------------------
 BYTE   W96
//  #02 //032   ----------------------------------------
Label_0100534E:
 BYTE   W12
 BYTE   N11  Dn3  v080
 BYTE   W12
 BYTE   N11
 BYTE   W12
 BYTE   N05
 BYTE   W06
 BYTE   N05
 BYTE   W06
 BYTE   N11
 BYTE   W12
 BYTE   N11
 BYTE   W24
 BYTE   N05
 BYTE   W06
 BYTE   N05
 BYTE   W06
 BYTE   PEND 
//  #02 //033   ----------------------------------------
 BYTE   PATT
  POIN2 Label_010052E0
//  #02 //034   ----------------------------------------
 BYTE   PATT
  POIN2 Label_010052F1
//  #02 //035   ----------------------------------------
 BYTE   W12
 BYTE   N80  Cn4  v080
 BYTE   W84
//  #02 //036   ----------------------------------------
 BYTE   PATT
  POIN2 Label_01005308
//  #02 //037   ----------------------------------------
 BYTE   PATT
  POIN2 Label_0100531A
//  #02 //038   ----------------------------------------
 BYTE   W36
 BYTE   N56  Fn3  v080
 BYTE   W60
//  #02 //039   ----------------------------------------
 BYTE   W96
//  #02 //040   ----------------------------------------
 BYTE   W12
 BYTE   N11  Gn2
 BYTE   W12
 BYTE   N11
 BYTE   W12
 BYTE   N05
 BYTE   W06
 BYTE   N05
 BYTE   W06
 BYTE   N11
 BYTE   W12
 BYTE   N11
 BYTE   W24
 BYTE   N05
 BYTE   W06
 BYTE   N05
 BYTE   W06
//  #02 //041   ----------------------------------------
 BYTE   N11
 BYTE   W12
 BYTE   N11
 BYTE   W24
 BYTE   N11
 BYTE   W12
 BYTE   Dn3
 BYTE   W12
 BYTE   As2
 BYTE   W12
 BYTE   Cn3
 BYTE   W12
 BYTE   Gn2
 BYTE   W12
//  #02 //042   ----------------------------------------
 BYTE   W12
 BYTE   N11
 BYTE   W12
 BYTE   N11
 BYTE   W12
 BYTE   N05
 BYTE   W06
 BYTE   N05
 BYTE   W06
 BYTE   N11
 BYTE   W12
 BYTE   N11
 BYTE   W24
 BYTE   N11
 BYTE   W12
//  #02 //043   ----------------------------------------
 BYTE   Dn3
 BYTE   W12
 BYTE   As2
 BYTE   W12
 BYTE   Cn3
 BYTE   W12
 BYTE   N23  Gn2
 BYTE   W24
 BYTE   As2
 BYTE   W24
 BYTE   N44  Gn2
 BYTE   W12
//  #02 //044   ----------------------------------------
 BYTE   W36
 BYTE   N56  As2
 BYTE   W60
//  #02 //045   ----------------------------------------
 BYTE   W96
//  #02 //046   ----------------------------------------
 BYTE   W96
//  #02 //047   ----------------------------------------
 BYTE   W96
//  #02 //048   ----------------------------------------
 BYTE   PATT
  POIN2 Label_01005330
//  #02 //049   ----------------------------------------
 BYTE   W96
//  #02 //050   ----------------------------------------
 BYTE   N32  En3  v080
 BYTE   W36
 BYTE   N56
 BYTE   W60
//  #02 //051   ----------------------------------------
Label_010053D1:
 BYTE   W60
 BYTE   N11  En3  v080
 BYTE   W12
 BYTE   Fn3
 BYTE   W12
 BYTE   Gn3
 BYTE   W12
 BYTE   PEND 
//  #02 //052   ----------------------------------------
Label_010053DB:
 BYTE   W12
 BYTE   N11  Gn3  v080
 BYTE   W24
 BYTE   N11
 BYTE   W24
 BYTE   N11
 BYTE   W24
 BYTE   An3
 BYTE   W12
 BYTE   PEND 
//  #02 //053   ----------------------------------------
Label_010053E7:
 BYTE   W12
 BYTE   N11  Dn3  v080
 BYTE   W24
 BYTE   N11
 BYTE   W24
 BYTE   N11
 BYTE   W24
 BYTE   N56  En3
 BYTE   W12
 BYTE   PEND 
//  #02 //054   ----------------------------------------
Label_010053F4:
 BYTE   W60
 BYTE   N11  Dn3  v080
 BYTE   W12
 BYTE   En3
 BYTE   W12
 BYTE   N23  Fn3
 BYTE   W12
 BYTE   PEND 
//  #02 //055   ----------------------------------------
 BYTE   W12
 BYTE   N11
 BYTE   W84
//  #02 //056   ----------------------------------------
 BYTE   PATT
  POIN2 Label_01005330
//  #02 //057   ----------------------------------------
 BYTE   W96
//  #02 //058   ----------------------------------------
 BYTE   PATT
  POIN2 Label_01005339
//  #02 //059   ----------------------------------------
 BYTE   W96
//  #02 //060   ----------------------------------------
Label_0100540E:
 BYTE   N32  Ds3  v080
 BYTE   W36
 BYTE   N32
 BYTE   W48
 BYTE   N11
 BYTE   W12
 BYTE   PEND 
//  #02 //061   ----------------------------------------
Label_01005417:
 BYTE   N32  Fn3  v080
 BYTE   W36
 BYTE   N23
 BYTE   W24
 BYTE   Dn3
 BYTE   W24
 BYTE   N56  En3
 BYTE   W12
 BYTE   PEND 
//  #02 //062   ----------------------------------------
 BYTE   PATT
  POIN2 Label_010053D1
//  #02 //063   ----------------------------------------
 BYTE   N11  Fn3  v080
 BYTE   W12
 BYTE   N11
 BYTE   W36
 BYTE   N11
 BYTE   W12
 BYTE   Ds3
 BYTE   W24
 BYTE   N32  Dn3
 BYTE   W12
//  #02 //064   ----------------------------------------
 BYTE   W24
 BYTE   N68
 BYTE   W72
//  #02 //065   ----------------------------------------
 BYTE   W96
//  #02 //066   ----------------------------------------
 BYTE   W96
//  #02 //067   ----------------------------------------
 BYTE   W96
//  #02 //068   ----------------------------------------
 BYTE   W96
//  #02 //069   ----------------------------------------
 BYTE   W96
//  #02 //070   ----------------------------------------
 BYTE   W96
//  #02 //071   ----------------------------------------
 BYTE   W96
//  #02 //072   ----------------------------------------
Label_0100543F:
 BYTE   W96
//  #02 //073   ----------------------------------------
 BYTE   W96
//  #02 //074   ----------------------------------------
 BYTE   W96
//  #02 //075   ----------------------------------------
 BYTE   W96
//  #02 //076   ----------------------------------------
 BYTE   W96
//  #02 //077   ----------------------------------------
 BYTE   W96
//  #02 //078   ----------------------------------------
 BYTE   W96
//  #02 //079   ----------------------------------------
 BYTE   W96
//  #02 //080   ----------------------------------------
 BYTE   PATT
  POIN2 Label_0100534E
//  #02 //081   ----------------------------------------
 BYTE   PATT
  POIN2 Label_010052E0
//  #02 //082   ----------------------------------------
 BYTE   W12
 BYTE   N11  Dn3  v080
 BYTE   W12
 BYTE   N11
 BYTE   W12
 BYTE   N11
 BYTE   W12
 BYTE   N11
 BYTE   W12
 BYTE   N11
 BYTE   W24
 BYTE   N23  An3
 BYTE   W12
//  #02 //083   ----------------------------------------
 BYTE   W12
 BYTE   N80  Cn4
 BYTE   W84
//  #02 //084   ----------------------------------------
 BYTE   PATT
  POIN2 Label_01005308
//  #02 //085   ----------------------------------------
 BYTE   PATT
  POIN2 Label_0100531A
//  #02 //086   ----------------------------------------
 BYTE   W36
 BYTE   N56  Fn3  v080
 BYTE   W60
//  #02 //087   ----------------------------------------
 BYTE   W96
//  #02 //088   ----------------------------------------
 BYTE   PATT
  POIN2 Label_0100534E
//  #02 //089   ----------------------------------------
 BYTE   PATT
  POIN2 Label_010052E0
//  #02 //090   ----------------------------------------
 BYTE   PATT
  POIN2 Label_01005308
//  #02 //091   ----------------------------------------
 BYTE   PATT
  POIN2 Label_0100531A
//  #02 //092   ----------------------------------------
 BYTE   W36
 BYTE   N56  Fn3  v080
 BYTE   W60
//  #02 //093   ----------------------------------------
 BYTE   W96
//  #02 //094   ----------------------------------------
 BYTE   W96
//  #02 //095   ----------------------------------------
 BYTE   W96
//  #02 //096   ----------------------------------------
 BYTE   PATT
  POIN2 Label_01005330
//  #02 //097   ----------------------------------------
 BYTE   W96
//  #02 //098   ----------------------------------------
 BYTE   N32  En3  v080
 BYTE   W36
 BYTE   N56
 BYTE   W60
//  #02 //099   ----------------------------------------
 BYTE   PATT
  POIN2 Label_010053D1
//  #02 //100   ----------------------------------------
 BYTE   PATT
  POIN2 Label_010053DB
//  #02 //101   ----------------------------------------
 BYTE   PATT
  POIN2 Label_010053E7
//  #02 //102   ----------------------------------------
 BYTE   PATT
  POIN2 Label_010053F4
//  #02 //103   ----------------------------------------
 BYTE   W12
 BYTE   N11  Fn3  v080
 BYTE   W84
//  #02 //104   ----------------------------------------
 BYTE   PATT
  POIN2 Label_01005330
//  #02 //105   ----------------------------------------
 BYTE   W96
//  #02 //106   ----------------------------------------
 BYTE   PATT
  POIN2 Label_01005339
//  #02 //107   ----------------------------------------
 BYTE   W96
//  #02 //108   ----------------------------------------
 BYTE   PATT
  POIN2 Label_0100540E
//  #02 //109   ----------------------------------------
 BYTE   PATT
  POIN2 Label_01005417
//  #02 //110   ----------------------------------------
 BYTE   PATT
  POIN2 Label_010053D1
//  #02 //111   ----------------------------------------
Label_010054D1:
 BYTE   N11  Fn3  v080
 BYTE   W12
 BYTE   N11
 BYTE   W36
 BYTE   N11
 BYTE   W12
 BYTE   Ds3
 BYTE   W24
 BYTE   N23  Dn3
 BYTE   W12
 BYTE   PEND 
//  #02 //112   ----------------------------------------
 BYTE   W12
 BYTE   N80
 BYTE   W84
//  #02 //113   ----------------------------------------
 BYTE   W96
//  #02 //114   ----------------------------------------
 BYTE   W96
//  #02 //115   ----------------------------------------
 BYTE   W96
//  #02 //116   ----------------------------------------
 BYTE   W96
//  #02 //117   ----------------------------------------
 BYTE   W96
//  #02 //118   ----------------------------------------
 BYTE   W96
//  #02 //119   ----------------------------------------
 BYTE   W96
//  #02 //120   ----------------------------------------
 BYTE   W96
//  #02 //121   ----------------------------------------
 BYTE   W96
//  #02 //122   ----------------------------------------
 BYTE   W96
//  #02 //123   ----------------------------------------
 BYTE   W96
//  #02 //124   ----------------------------------------
 BYTE   W96
//  #02 //125   ----------------------------------------
 BYTE   W96
//  #02 //126   ----------------------------------------
 BYTE   N92  Fn3
 BYTE   W96
//  #02 //127   ----------------------------------------
 BYTE   N44  As3
 BYTE   W96
//  #02 //128   ----------------------------------------
 BYTE   W96
//  #02 //129   ----------------------------------------
 BYTE   W48
 BYTE   Gn3
 BYTE   W48
//  #02 //130   ----------------------------------------
 BYTE   Fn3
 BYTE   W48
 BYTE   As3
 BYTE   W48
//  #02 //131   ----------------------------------------
 BYTE   An3
 BYTE   W48
 BYTE   An2
 BYTE   N44  Dn3
 BYTE   W48
//  #02 //132   ----------------------------------------
 BYTE   N92  As2
 BYTE   N92  Ds3
 BYTE   W96
//  #02 //133   ----------------------------------------
 BYTE   W96
//  #02 //134   ----------------------------------------
 BYTE   Cn3
 BYTE   N92  Ds3
 BYTE   W96
//  #02 //135   ----------------------------------------
 BYTE   W96
//  #02 //136   ----------------------------------------
 BYTE   PATT
  POIN2 Label_01005330
//  #02 //137   ----------------------------------------
 BYTE   W96
//  #02 //138   ----------------------------------------
 BYTE   N32  En3  v080
 BYTE   W36
 BYTE   N56
 BYTE   W60
//  #02 //139   ----------------------------------------
 BYTE   PATT
  POIN2 Label_010053D1
//  #02 //140   ----------------------------------------
 BYTE   PATT
  POIN2 Label_010053DB
//  #02 //141   ----------------------------------------
 BYTE   PATT
  POIN2 Label_010053E7
//  #02 //142   ----------------------------------------
 BYTE   PATT
  POIN2 Label_010053F4
//  #02 //143   ----------------------------------------
 BYTE   W12
 BYTE   N11  Fn3  v080
 BYTE   W84
//  #02 //144   ----------------------------------------
 BYTE   PATT
  POIN2 Label_01005330
//  #02 //145   ----------------------------------------
 BYTE   W96
//  #02 //146   ----------------------------------------
 BYTE   PATT
  POIN2 Label_01005339
//  #02 //147   ----------------------------------------
 BYTE   W96
//  #02 //148   ----------------------------------------
 BYTE   PATT
  POIN2 Label_0100540E
//  #02 //149   ----------------------------------------
 BYTE   PATT
  POIN2 Label_01005417
//  #02 //150   ----------------------------------------
 BYTE   PATT
  POIN2 Label_010053D1
//  #02 //151   ----------------------------------------
 BYTE   PATT
  POIN2 Label_010054D1
//  #02 //152   ----------------------------------------
 BYTE   W12
 BYTE   N80  Dn3  v080
 BYTE   W84
//  #02 //153   ----------------------------------------
 BYTE   W96
//  #02 //154   ----------------------------------------
 BYTE   W96
//  #02 //155   ----------------------------------------
 BYTE   W96
//  #02 //156   ----------------------------------------
 BYTE   W96
//  #02 //157   ----------------------------------------
 BYTE   W96
//  #02 //158   ----------------------------------------
 BYTE   W96
//  #02 //159   ----------------------------------------
 BYTE   W96
//  #02 //160   ----------------------------------------
 BYTE   GoTo
  POIN2 Label_0100543F
//  #02 //161   ----------------------------------------
 BYTE   W96
//  #02 //162   ----------------------------------------
 BYTE   W96
//  #02 //163   ----------------------------------------
 BYTE   W96
//  #02 //164   ----------------------------------------
 BYTE   W96
//  #02 //165   ----------------------------------------
 BYTE   W96
//  #02 //166   ----------------------------------------
 BYTE   W96
//  #02 //167   ----------------------------------------
 BYTE   W96
//  #02 //168   ----------------------------------------
 BYTE   W92
 BYTE   W03
 BYTE   FINE

//**************** Track 3 (Midi-Chn.2) ****************//

RiversInTheDesert_003:
//  #03 //000   ----------------------------------------
 BYTE   KEYSH   RiversInTheDesert_key+0
 BYTE   VOICE   30
 BYTE   VOL   40*RiversInTheDesert_mvl/mxv
 BYTE   PAN   c_v+0
 BYTE   N32  Gn1  v080
 BYTE   N32  Dn2
 BYTE   N32  Gn2
 BYTE   W36
 BYTE   N11  Gn1
 BYTE   N11  Dn2
 BYTE   N11  Gn2
 BYTE   W48
 BYTE   Gn1
 BYTE   N11  Dn2
 BYTE   N11  Gn2
 BYTE   W12
//  #03 //001   ----------------------------------------
Label_0100559D:
 BYTE   N32  Gn1  v080
 BYTE   N32  Dn2
 BYTE   N32  Gn2
 BYTE   W36
 BYTE   N11  Gn1
 BYTE   N11  Dn2
 BYTE   N11  Gn2
 BYTE   W24
 BYTE   N23  As1
 BYTE   N23  Fn2
 BYTE   N23  As2
 BYTE   W24
 BYTE   N05  Gn1
 BYTE   N05  Dn2
 BYTE   N05  Gn2
 BYTE   W12
 BYTE   PEND 
//  #03 //002   ----------------------------------------
Label_010055BB:
 BYTE   N32  Gn1  v080
 BYTE   N32  Dn2
 BYTE   N32  Gn2
 BYTE   W36
 BYTE   N11  Gn1
 BYTE   N11  Dn2
 BYTE   N11  Gn2
 BYTE   W48
 BYTE   Gn1
 BYTE   N11  Dn2
 BYTE   N11  Gn2
 BYTE   W12
 BYTE   PEND 
//  #03 //003   ----------------------------------------
 BYTE   PATT
  POIN2 Label_0100559D
//  #03 //004   ----------------------------------------
 BYTE   PATT
  POIN2 Label_010055BB
//  #03 //005   ----------------------------------------
 BYTE   PATT
  POIN2 Label_0100559D
//  #03 //006   ----------------------------------------
 BYTE   PATT
  POIN2 Label_010055BB
//  #03 //007   ----------------------------------------
 BYTE   PATT
  POIN2 Label_0100559D
//  #03 //008   ----------------------------------------
 BYTE   PATT
  POIN2 Label_010055BB
//  #03 //009   ----------------------------------------
 BYTE   PATT
  POIN2 Label_0100559D
//  #03 //010   ----------------------------------------
 BYTE   PATT
  POIN2 Label_010055BB
//  #03 //011   ----------------------------------------
 BYTE   PATT
  POIN2 Label_0100559D
//  #03 //012   ----------------------------------------
 BYTE   PATT
  POIN2 Label_010055BB
//  #03 //013   ----------------------------------------
 BYTE   PATT
  POIN2 Label_0100559D
//  #03 //014   ----------------------------------------
 BYTE   PATT
  POIN2 Label_010055BB
//  #03 //015   ----------------------------------------
 BYTE   PATT
  POIN2 Label_0100559D
//  #03 //016   ----------------------------------------
 BYTE   W96
//  #03 //017   ----------------------------------------
 BYTE   W96
//  #03 //018   ----------------------------------------
 BYTE   W96
//  #03 //019   ----------------------------------------
 BYTE   W96
//  #03 //020   ----------------------------------------
 BYTE   W96
//  #03 //021   ----------------------------------------
 BYTE   W96
//  #03 //022   ----------------------------------------
 BYTE   W96
//  #03 //023   ----------------------------------------
 BYTE   W96
//  #03 //024   ----------------------------------------
Label_0100561A:
 BYTE   N23  Gn1  v080
 BYTE   N23  Dn2
 BYTE   N23  Gn2
 BYTE   W60
 BYTE   N11  Gn1
 BYTE   N11  Dn2
 BYTE   N11  Gn2
 BYTE   W24
 BYTE   N32  Fn1
 BYTE   N32  Cn2
 BYTE   N32  Fn2
 BYTE   W12
 BYTE   PEND 
//  #03 //025   ----------------------------------------
Label_01005631:
 BYTE   W60
 BYTE   N11  Fn1  v080
 BYTE   N11  Cn2
 BYTE   N11  Fn2
 BYTE   W24
 BYTE   N32  En1
 BYTE   N32  As1
 BYTE   N32  En2
 BYTE   W12
 BYTE   PEND 
//  #03 //026   ----------------------------------------
Label_01005642:
 BYTE   W60
 BYTE   N11  En1  v080
 BYTE   N11  As1
 BYTE   N11  En2
 BYTE   W24
 BYTE   N32  Fn1
 BYTE   N32  Cn2
 BYTE   N32  Fn2
 BYTE   W12
 BYTE   PEND 
//  #03 //027   ----------------------------------------
Label_01005653:
 BYTE   W60
 BYTE   N11  Fn1  v080
 BYTE   N11  Cn2
 BYTE   N11  Fn2
 BYTE   W24
 BYTE   N32  Gn1
 BYTE   N32  Dn2
 BYTE   N32  Gn2
 BYTE   W12
 BYTE   PEND 
//  #03 //028   ----------------------------------------
Label_01005664:
 BYTE   W60
 BYTE   N11  Gn1  v080
 BYTE   N11  Dn2
 BYTE   N11  Gn2
 BYTE   W24
 BYTE   N32  Fn1
 BYTE   N32  Cn2
 BYTE   N32  Fn2
 BYTE   W12
 BYTE   PEND 
//  #03 //029   ----------------------------------------
 BYTE   PATT
  POIN2 Label_01005631
//  #03 //030   ----------------------------------------
 BYTE   PATT
  POIN2 Label_01005642
//  #03 //031   ----------------------------------------
Label_0100567F:
 BYTE   W60
 BYTE   N32  Fn1  v080
 BYTE   N32  Cn2
 BYTE   N32  Fn2
 BYTE   W36
 BYTE   PEND 
//  #03 //032   ----------------------------------------
 BYTE   W96
//  #03 //033   ----------------------------------------
 BYTE   W96
//  #03 //034   ----------------------------------------
 BYTE   W96
//  #03 //035   ----------------------------------------
 BYTE   W96
//  #03 //036   ----------------------------------------
 BYTE   W96
//  #03 //037   ----------------------------------------
 BYTE   W96
//  #03 //038   ----------------------------------------
 BYTE   W96
//  #03 //039   ----------------------------------------
 BYTE   W96
//  #03 //040   ----------------------------------------
 BYTE   W96
//  #03 //041   ----------------------------------------
 BYTE   W96
//  #03 //042   ----------------------------------------
 BYTE   W96
//  #03 //043   ----------------------------------------
 BYTE   W96
//  #03 //044   ----------------------------------------
 BYTE   W96
//  #03 //045   ----------------------------------------
 BYTE   W96
//  #03 //046   ----------------------------------------
 BYTE   W96
//  #03 //047   ----------------------------------------
 BYTE   W96
//  #03 //048   ----------------------------------------
 BYTE   PATT
  POIN2 Label_0100561A
//  #03 //049   ----------------------------------------
 BYTE   PATT
  POIN2 Label_01005631
//  #03 //050   ----------------------------------------
 BYTE   PATT
  POIN2 Label_01005642
//  #03 //051   ----------------------------------------
Label_010056A8:
 BYTE   W60
 BYTE   N11  Fn1  v080
 BYTE   N11  Cn2
 BYTE   N11  Fn2
 BYTE   W24
 BYTE   N32  Gn1
 BYTE   N32  Cn2
 BYTE   N32  Gn2
 BYTE   W12
 BYTE   PEND 
//  #03 //052   ----------------------------------------
Label_010056B9:
 BYTE   W60
 BYTE   N11  Gn1  v080
 BYTE   N11  Cn2
 BYTE   N11  Gn2
 BYTE   W24
 BYTE   N32  An1
 BYTE   N32  Dn2
 BYTE   N32  An2
 BYTE   W12
 BYTE   PEND 
//  #03 //053   ----------------------------------------
Label_010056CA:
 BYTE   W60
 BYTE   N11  An1  v080
 BYTE   N11  Dn2
 BYTE   N11  An2
 BYTE   W24
 BYTE   N32  En1
 BYTE   N32  As1
 BYTE   N32  En2
 BYTE   W12
 BYTE   PEND 
//  #03 //054   ----------------------------------------
 BYTE   PATT
  POIN2 Label_01005642
//  #03 //055   ----------------------------------------
 BYTE   PATT
  POIN2 Label_0100567F
//  #03 //056   ----------------------------------------
 BYTE   PATT
  POIN2 Label_0100561A
//  #03 //057   ----------------------------------------
 BYTE   PATT
  POIN2 Label_01005631
//  #03 //058   ----------------------------------------
 BYTE   PATT
  POIN2 Label_01005642
//  #03 //059   ----------------------------------------
 BYTE   PATT
  POIN2 Label_0100567F
//  #03 //060   ----------------------------------------
Label_010056F9:
 BYTE   N23  Gn1  v080
 BYTE   N23  Cn2
 BYTE   N23  Gn2
 BYTE   W60
 BYTE   N11  Gn1
 BYTE   N11  Cn2
 BYTE   N11  Gn2
 BYTE   W24
 BYTE   N32  An1
 BYTE   N32  Dn2
 BYTE   N32  An2
 BYTE   W12
 BYTE   PEND 
//  #03 //061   ----------------------------------------
 BYTE   PATT
  POIN2 Label_010056CA
//  #03 //062   ----------------------------------------
 BYTE   PATT
  POIN2 Label_01005642
//  #03 //063   ----------------------------------------
 BYTE   PATT
  POIN2 Label_0100567F
//  #03 //064   ----------------------------------------
 BYTE   PATT
  POIN2 Label_0100561A
//  #03 //065   ----------------------------------------
 BYTE   PATT
  POIN2 Label_01005631
//  #03 //066   ----------------------------------------
 BYTE   PATT
  POIN2 Label_01005642
//  #03 //067   ----------------------------------------
 BYTE   PATT
  POIN2 Label_01005653
//  #03 //068   ----------------------------------------
 BYTE   PATT
  POIN2 Label_01005664
//  #03 //069   ----------------------------------------
 BYTE   PATT
  POIN2 Label_01005631
//  #03 //070   ----------------------------------------
 BYTE   PATT
  POIN2 Label_01005642
//  #03 //071   ----------------------------------------
 BYTE   PATT
  POIN2 Label_0100567F
//  #03 //072   ----------------------------------------
Label_01005747:
//  #03 //073   ----------------------------------------
 BYTE   PATT
  POIN2 Label_0100561A
//  #03 //074   ----------------------------------------
 BYTE   PATT
  POIN2 Label_01005631
//  #03 //075   ----------------------------------------
 BYTE   PATT
  POIN2 Label_01005642
//  #03 //076   ----------------------------------------
 BYTE   PATT
  POIN2 Label_01005653
//  #03 //077   ----------------------------------------
 BYTE   PATT
  POIN2 Label_01005664
//  #03 //078   ----------------------------------------
 BYTE   PATT
  POIN2 Label_01005631
//  #03 //079   ----------------------------------------
 BYTE   PATT
  POIN2 Label_01005642
//  #03 //080   ----------------------------------------
 BYTE   PATT
  POIN2 Label_0100567F
//  #03 //081   ----------------------------------------
 BYTE   W96
//  #03 //082   ----------------------------------------
 BYTE   W96
//  #03 //083   ----------------------------------------
 BYTE   W96
//  #03 //084   ----------------------------------------
 BYTE   W96
//  #03 //085   ----------------------------------------
 BYTE   W96
//  #03 //086   ----------------------------------------
 BYTE   W96
//  #03 //087   ----------------------------------------
 BYTE   W96
//  #03 //088   ----------------------------------------
 BYTE   W96
//  #03 //089   ----------------------------------------
 BYTE   W96
//  #03 //090   ----------------------------------------
 BYTE   W96
//  #03 //091   ----------------------------------------
 BYTE   W96
//  #03 //092   ----------------------------------------
 BYTE   W96
//  #03 //093   ----------------------------------------
 BYTE   W96
//  #03 //094   ----------------------------------------
 BYTE   W96
//  #03 //095   ----------------------------------------
 BYTE   W96
//  #03 //096   ----------------------------------------
 BYTE   W96
//  #03 //097   ----------------------------------------
 BYTE   PATT
  POIN2 Label_0100561A
//  #03 //098   ----------------------------------------
 BYTE   PATT
  POIN2 Label_01005631
//  #03 //099   ----------------------------------------
 BYTE   PATT
  POIN2 Label_01005642
//  #03 //100   ----------------------------------------
 BYTE   PATT
  POIN2 Label_010056A8
//  #03 //101   ----------------------------------------
 BYTE   PATT
  POIN2 Label_010056B9
//  #03 //102   ----------------------------------------
 BYTE   PATT
  POIN2 Label_010056CA
//  #03 //103   ----------------------------------------
 BYTE   PATT
  POIN2 Label_01005642
//  #03 //104   ----------------------------------------
 BYTE   PATT
  POIN2 Label_0100567F
//  #03 //105   ----------------------------------------
 BYTE   PATT
  POIN2 Label_0100561A
//  #03 //106   ----------------------------------------
 BYTE   PATT
  POIN2 Label_01005631
//  #03 //107   ----------------------------------------
 BYTE   PATT
  POIN2 Label_01005642
//  #03 //108   ----------------------------------------
 BYTE   PATT
  POIN2 Label_0100567F
//  #03 //109   ----------------------------------------
 BYTE   PATT
  POIN2 Label_010056F9
//  #03 //110   ----------------------------------------
 BYTE   PATT
  POIN2 Label_010056CA
//  #03 //111   ----------------------------------------
 BYTE   PATT
  POIN2 Label_01005642
//  #03 //112   ----------------------------------------
 BYTE   PATT
  POIN2 Label_0100567F
//  #03 //113   ----------------------------------------
 BYTE   PATT
  POIN2 Label_0100561A
//  #03 //114   ----------------------------------------
 BYTE   PATT
  POIN2 Label_01005631
//  #03 //115   ----------------------------------------
 BYTE   PATT
  POIN2 Label_01005642
//  #03 //116   ----------------------------------------
 BYTE   PATT
  POIN2 Label_01005653
//  #03 //117   ----------------------------------------
 BYTE   PATT
  POIN2 Label_01005664
//  #03 //118   ----------------------------------------
 BYTE   PATT
  POIN2 Label_01005631
//  #03 //119   ----------------------------------------
 BYTE   PATT
  POIN2 Label_01005642
//  #03 //120   ----------------------------------------
 BYTE   PATT
  POIN2 Label_0100567F
//  #03 //121   ----------------------------------------
 BYTE   W96
//  #03 //122   ----------------------------------------
 BYTE   W96
//  #03 //123   ----------------------------------------
 BYTE   W96
//  #03 //124   ----------------------------------------
 BYTE   W96
//  #03 //125   ----------------------------------------
 BYTE   W96
//  #03 //126   ----------------------------------------
 BYTE   W96
//  #03 //127   ----------------------------------------
 BYTE   W96
//  #03 //128   ----------------------------------------
 BYTE   W96
//  #03 //129   ----------------------------------------
 BYTE   W96
//  #03 //130   ----------------------------------------
 BYTE   W96
//  #03 //131   ----------------------------------------
 BYTE   W96
//  #03 //132   ----------------------------------------
 BYTE   W96
//  #03 //133   ----------------------------------------
 BYTE   W96
//  #03 //134   ----------------------------------------
 BYTE   W96
//  #03 //135   ----------------------------------------
 BYTE   W96
//  #03 //136   ----------------------------------------
 BYTE   W96
//  #03 //137   ----------------------------------------
 BYTE   PATT
  POIN2 Label_0100561A
//  #03 //138   ----------------------------------------
 BYTE   PATT
  POIN2 Label_01005631
//  #03 //139   ----------------------------------------
 BYTE   PATT
  POIN2 Label_01005642
//  #03 //140   ----------------------------------------
 BYTE   PATT
  POIN2 Label_010056A8
//  #03 //141   ----------------------------------------
 BYTE   PATT
  POIN2 Label_010056B9
//  #03 //142   ----------------------------------------
 BYTE   PATT
  POIN2 Label_010056CA
//  #03 //143   ----------------------------------------
 BYTE   PATT
  POIN2 Label_01005642
//  #03 //144   ----------------------------------------
 BYTE   PATT
  POIN2 Label_0100567F
//  #03 //145   ----------------------------------------
 BYTE   PATT
  POIN2 Label_0100561A
//  #03 //146   ----------------------------------------
 BYTE   PATT
  POIN2 Label_01005631
//  #03 //147   ----------------------------------------
 BYTE   PATT
  POIN2 Label_01005642
//  #03 //148   ----------------------------------------
 BYTE   PATT
  POIN2 Label_0100567F
//  #03 //149   ----------------------------------------
 BYTE   PATT
  POIN2 Label_010056F9
//  #03 //150   ----------------------------------------
 BYTE   PATT
  POIN2 Label_010056CA
//  #03 //151   ----------------------------------------
 BYTE   PATT
  POIN2 Label_01005642
//  #03 //152   ----------------------------------------
 BYTE   PATT
  POIN2 Label_0100567F
//  #03 //153   ----------------------------------------
 BYTE   PATT
  POIN2 Label_0100561A
//  #03 //154   ----------------------------------------
 BYTE   PATT
  POIN2 Label_01005631
//  #03 //155   ----------------------------------------
 BYTE   PATT
  POIN2 Label_01005642
//  #03 //156   ----------------------------------------
 BYTE   PATT
  POIN2 Label_01005653
//  #03 //157   ----------------------------------------
 BYTE   PATT
  POIN2 Label_01005664
//  #03 //158   ----------------------------------------
 BYTE   PATT
  POIN2 Label_01005631
//  #03 //159   ----------------------------------------
 BYTE   PATT
  POIN2 Label_01005642
//  #03 //160   ----------------------------------------
 BYTE   PATT
  POIN2 Label_0100567F
//  #03 //161   ----------------------------------------
 BYTE   GoTo
  POIN2 Label_01005747
//  #03 //162   ----------------------------------------
 BYTE   PATT
  POIN2 Label_0100561A
//  #03 //163   ----------------------------------------
 BYTE   PATT
  POIN2 Label_01005631
//  #03 //164   ----------------------------------------
 BYTE   PATT
  POIN2 Label_01005642
//  #03 //165   ----------------------------------------
 BYTE   PATT
  POIN2 Label_01005653
//  #03 //166   ----------------------------------------
 BYTE   PATT
  POIN2 Label_01005664
//  #03 //167   ----------------------------------------
 BYTE   PATT
  POIN2 Label_01005631
//  #03 //168   ----------------------------------------
 BYTE   PATT
  POIN2 Label_01005642
//  #03 //169   ----------------------------------------
 BYTE   W60
 BYTE   N32  Fn1  v080
 BYTE   N32  Cn2
 BYTE   N32  Fn2
 BYTE   W32
 BYTE   W03
 BYTE   FINE

//**************** Track 4 (Midi-Chn.3) ****************//

RiversInTheDesert_004:
//  #04 //000   ----------------------------------------
 BYTE   KEYSH   RiversInTheDesert_key+0
 BYTE   VOICE   38
 BYTE   VOL   24*RiversInTheDesert_mvl/mxv
 BYTE   PAN   c_v+0
 BYTE   N32  Gn1  v080
 BYTE   W36
 BYTE   N11
 BYTE   W48
 BYTE   N11
 BYTE   W12
//  #04 //001   ----------------------------------------
Label_010058D4:
 BYTE   N32  Gn1  v080
 BYTE   W36
 BYTE   N11
 BYTE   W24
 BYTE   N23  As1
 BYTE   W24
 BYTE   N05  Gn1
 BYTE   W12
 BYTE   PEND 
//  #04 //002   ----------------------------------------
Label_010058E1:
 BYTE   N32  Gn1  v080
 BYTE   W36
 BYTE   N11
 BYTE   W48
 BYTE   N11
 BYTE   W12
 BYTE   PEND 
//  #04 //003   ----------------------------------------
 BYTE   PATT
  POIN2 Label_010058D4
//  #04 //004   ----------------------------------------
 BYTE   PATT
  POIN2 Label_010058E1
//  #04 //005   ----------------------------------------
 BYTE   PATT
  POIN2 Label_010058D4
//  #04 //006   ----------------------------------------
 BYTE   PATT
  POIN2 Label_010058E1
//  #04 //007   ----------------------------------------
 BYTE   PATT
  POIN2 Label_010058D4
//  #04 //008   ----------------------------------------
 BYTE   PATT
  POIN2 Label_010058E1
//  #04 //009   ----------------------------------------
 BYTE   PATT
  POIN2 Label_010058D4
//  #04 //010   ----------------------------------------
 BYTE   PATT
  POIN2 Label_010058E1
//  #04 //011   ----------------------------------------
 BYTE   PATT
  POIN2 Label_010058D4
//  #04 //012   ----------------------------------------
 BYTE   PATT
  POIN2 Label_010058E1
//  #04 //013   ----------------------------------------
 BYTE   PATT
  POIN2 Label_010058D4
//  #04 //014   ----------------------------------------
 BYTE   PATT
  POIN2 Label_010058E1
//  #04 //015   ----------------------------------------
 BYTE   PATT
  POIN2 Label_010058D4
//  #04 //016   ----------------------------------------
 BYTE   PATT
  POIN2 Label_010058E1
//  #04 //017   ----------------------------------------
Label_01005930:
 BYTE   N32  Gn1  v080
 BYTE   W36
 BYTE   N11
 BYTE   W24
 BYTE   N23  As1
 BYTE   W24
 BYTE   N11  Gn1
 BYTE   W12
 BYTE   PEND 
//  #04 //018   ----------------------------------------
Label_0100593D:
 BYTE   N32  Gn1  v080
 BYTE   W36
 BYTE   N11
 BYTE   W60
 BYTE   PEND 
//  #04 //019   ----------------------------------------
 BYTE   PATT
  POIN2 Label_01005930
//  #04 //020   ----------------------------------------
 BYTE   PATT
  POIN2 Label_010058E1
//  #04 //021   ----------------------------------------
 BYTE   PATT
  POIN2 Label_01005930
//  #04 //022   ----------------------------------------
 BYTE   PATT
  POIN2 Label_0100593D
//  #04 //023   ----------------------------------------
 BYTE   PATT
  POIN2 Label_0100593D
//  #04 //024   ----------------------------------------
Label_0100595D:
 BYTE   N23  Gn1  v080
 BYTE   W60
 BYTE   N23
 BYTE   W24
 BYTE   N32  Fn1
 BYTE   W12
 BYTE   PEND 
//  #04 //025   ----------------------------------------
Label_01005967:
 BYTE   W60
 BYTE   N11  Fn1  v080
 BYTE   W24
 BYTE   N32  En1
 BYTE   W12
 BYTE   PEND 
//  #04 //026   ----------------------------------------
Label_01005970:
 BYTE   W60
 BYTE   N11  En1  v080
 BYTE   W24
 BYTE   N32  Fn1
 BYTE   W12
 BYTE   PEND 
//  #04 //027   ----------------------------------------
Label_01005979:
 BYTE   W60
 BYTE   N11  Fn1  v080
 BYTE   W24
 BYTE   N32  Gn1
 BYTE   W12
 BYTE   PEND 
//  #04 //028   ----------------------------------------
Label_01005982:
 BYTE   W60
 BYTE   N23  Gn1  v080
 BYTE   W24
 BYTE   N32  Fn1
 BYTE   W12
 BYTE   PEND 
//  #04 //029   ----------------------------------------
 BYTE   PATT
  POIN2 Label_01005967
//  #04 //030   ----------------------------------------
 BYTE   PATT
  POIN2 Label_01005970
//  #04 //031   ----------------------------------------
 BYTE   W60
 BYTE   N32  Fn1  v080
 BYTE   W36
//  #04 //032   ----------------------------------------
 BYTE   PATT
  POIN2 Label_010058E1
//  #04 //033   ----------------------------------------
 BYTE   PATT
  POIN2 Label_01005930
//  #04 //034   ----------------------------------------
 BYTE   PATT
  POIN2 Label_0100593D
//  #04 //035   ----------------------------------------
 BYTE   PATT
  POIN2 Label_01005930
//  #04 //036   ----------------------------------------
 BYTE   PATT
  POIN2 Label_010058E1
//  #04 //037   ----------------------------------------
 BYTE   PATT
  POIN2 Label_01005930
//  #04 //038   ----------------------------------------
 BYTE   PATT
  POIN2 Label_0100593D
//  #04 //039   ----------------------------------------
Label_010059BD:
 BYTE   N32  Gn1  v080
 BYTE   W36
 BYTE   N11
 BYTE   W24
 BYTE   N23  Fn1
 BYTE   W24
 BYTE   N11  Ds2
 BYTE   W12
 BYTE   PEND 
//  #04 //040   ----------------------------------------
Label_010059CA:
 BYTE   N32  Ds2  v080
 BYTE   W36
 BYTE   N11
 BYTE   W48
 BYTE   N11
 BYTE   W12
 BYTE   PEND 
//  #04 //041   ----------------------------------------
Label_010059D3:
 BYTE   N32  Ds2  v080
 BYTE   W36
 BYTE   N11
 BYTE   W48
 BYTE   Dn1
 BYTE   W12
 BYTE   PEND 
//  #04 //042   ----------------------------------------
Label_010059DC:
 BYTE   N32  Cn2  v080
 BYTE   W36
 BYTE   N11
 BYTE   W60
 BYTE   PEND 
//  #04 //043   ----------------------------------------
Label_010059E3:
 BYTE   N32  Cn2  v080
 BYTE   W36
 BYTE   N11
 BYTE   W24
 BYTE   N23  Dn1
 BYTE   W24
 BYTE   N11  Gn0
 BYTE   W12
 BYTE   PEND 
//  #04 //044   ----------------------------------------
Label_010059F0:
 BYTE   N32  Gn1  v080
 BYTE   W36
 BYTE   N11
 BYTE   W24
 BYTE   N11
 BYTE   W24
 BYTE   N44  Fn1
 BYTE   W12
 BYTE   PEND 
//  #04 //045   ----------------------------------------
Label_010059FC:
 BYTE   W36
 BYTE   N11  Fn1  v080
 BYTE   W24
 BYTE   N32
 BYTE   W36
 BYTE   PEND 
//  #04 //046   ----------------------------------------
 BYTE   PATT
  POIN2 Label_010059F0
//  #04 //047   ----------------------------------------
 BYTE   W36
 BYTE   N11  Fn1  v080
 BYTE   W60
//  #04 //048   ----------------------------------------
 BYTE   PATT
  POIN2 Label_0100595D
//  #04 //049   ----------------------------------------
 BYTE   PATT
  POIN2 Label_01005967
//  #04 //050   ----------------------------------------
 BYTE   PATT
  POIN2 Label_01005970
//  #04 //051   ----------------------------------------
Label_01005A1D:
 BYTE   W60
 BYTE   N11  Fn1  v080
 BYTE   W24
 BYTE   N32  Cn2
 BYTE   W12
 BYTE   PEND 
//  #04 //052   ----------------------------------------
Label_01005A26:
 BYTE   W60
 BYTE   N23  Cn2  v080
 BYTE   W24
 BYTE   N32  Dn2
 BYTE   W12
 BYTE   PEND 
//  #04 //053   ----------------------------------------
Label_01005A2F:
 BYTE   W60
 BYTE   N11  Dn2  v080
 BYTE   W24
 BYTE   N32  En1
 BYTE   W12
 BYTE   PEND 
//  #04 //054   ----------------------------------------
 BYTE   PATT
  POIN2 Label_01005970
//  #04 //055   ----------------------------------------
 BYTE   W60
 BYTE   N32  Fn1  v080
 BYTE   W36
//  #04 //056   ----------------------------------------
 BYTE   PATT
  POIN2 Label_0100595D
//  #04 //057   ----------------------------------------
 BYTE   PATT
  POIN2 Label_01005967
//  #04 //058   ----------------------------------------
 BYTE   PATT
  POIN2 Label_01005970
//  #04 //059   ----------------------------------------
 BYTE   W60
 BYTE   N32  Fn1  v080
 BYTE   W36
//  #04 //060   ----------------------------------------
Label_01005A56:
 BYTE   N23  Cn2  v080
 BYTE   W60
 BYTE   N23
 BYTE   W24
 BYTE   N32  Dn2
 BYTE   W12
 BYTE   PEND 
//  #04 //061   ----------------------------------------
 BYTE   PATT
  POIN2 Label_01005A2F
//  #04 //062   ----------------------------------------
 BYTE   PATT
  POIN2 Label_01005970
//  #04 //063   ----------------------------------------
 BYTE   W60
 BYTE   N32  Fn1  v080
 BYTE   W36
//  #04 //064   ----------------------------------------
 BYTE   PATT
  POIN2 Label_0100595D
//  #04 //065   ----------------------------------------
 BYTE   PATT
  POIN2 Label_01005967
//  #04 //066   ----------------------------------------
 BYTE   PATT
  POIN2 Label_01005970
//  #04 //067   ----------------------------------------
 BYTE   PATT
  POIN2 Label_01005979
//  #04 //068   ----------------------------------------
 BYTE   PATT
  POIN2 Label_01005982
//  #04 //069   ----------------------------------------
 BYTE   PATT
  POIN2 Label_01005967
//  #04 //070   ----------------------------------------
 BYTE   PATT
  POIN2 Label_01005970
//  #04 //071   ----------------------------------------
 BYTE   W60
 BYTE   N32  Fn1  v080
 BYTE   W36
//  #04 //072   ----------------------------------------
Label_01005A97:
//  #04 //073   ----------------------------------------
 BYTE   PATT
  POIN2 Label_0100595D
//  #04 //074   ----------------------------------------
 BYTE   PATT
  POIN2 Label_01005967
//  #04 //075   ----------------------------------------
 BYTE   PATT
  POIN2 Label_01005970
//  #04 //076   ----------------------------------------
 BYTE   PATT
  POIN2 Label_01005979
//  #04 //077   ----------------------------------------
 BYTE   PATT
  POIN2 Label_01005982
//  #04 //078   ----------------------------------------
 BYTE   PATT
  POIN2 Label_01005967
//  #04 //079   ----------------------------------------
 BYTE   PATT
  POIN2 Label_01005970
//  #04 //080   ----------------------------------------
 BYTE   W60
 BYTE   N32  Fn1  v080
 BYTE   W36
//  #04 //081   ----------------------------------------
 BYTE   PATT
  POIN2 Label_010058E1
//  #04 //082   ----------------------------------------
 BYTE   PATT
  POIN2 Label_01005930
//  #04 //083   ----------------------------------------
 BYTE   PATT
  POIN2 Label_0100593D
//  #04 //084   ----------------------------------------
 BYTE   PATT
  POIN2 Label_01005930
//  #04 //085   ----------------------------------------
 BYTE   PATT
  POIN2 Label_010058E1
//  #04 //086   ----------------------------------------
 BYTE   PATT
  POIN2 Label_01005930
//  #04 //087   ----------------------------------------
 BYTE   PATT
  POIN2 Label_0100593D
//  #04 //088   ----------------------------------------
 BYTE   PATT
  POIN2 Label_010059BD
//  #04 //089   ----------------------------------------
 BYTE   PATT
  POIN2 Label_010059CA
//  #04 //090   ----------------------------------------
 BYTE   PATT
  POIN2 Label_010059D3
//  #04 //091   ----------------------------------------
 BYTE   PATT
  POIN2 Label_010059DC
//  #04 //092   ----------------------------------------
 BYTE   PATT
  POIN2 Label_010059E3
//  #04 //093   ----------------------------------------
 BYTE   PATT
  POIN2 Label_010059F0
//  #04 //094   ----------------------------------------
 BYTE   PATT
  POIN2 Label_010059FC
//  #04 //095   ----------------------------------------
 BYTE   PATT
  POIN2 Label_010059F0
//  #04 //096   ----------------------------------------
 BYTE   W36
 BYTE   N11  Fn1  v080
 BYTE   W60
//  #04 //097   ----------------------------------------
 BYTE   PATT
  POIN2 Label_0100595D
//  #04 //098   ----------------------------------------
 BYTE   PATT
  POIN2 Label_01005967
//  #04 //099   ----------------------------------------
 BYTE   PATT
  POIN2 Label_01005970
//  #04 //100   ----------------------------------------
 BYTE   PATT
  POIN2 Label_01005A1D
//  #04 //101   ----------------------------------------
 BYTE   PATT
  POIN2 Label_01005A26
//  #04 //102   ----------------------------------------
 BYTE   PATT
  POIN2 Label_01005A2F
//  #04 //103   ----------------------------------------
 BYTE   PATT
  POIN2 Label_01005970
//  #04 //104   ----------------------------------------
 BYTE   W60
 BYTE   N32  Fn1  v080
 BYTE   W36
//  #04 //105   ----------------------------------------
 BYTE   PATT
  POIN2 Label_0100595D
//  #04 //106   ----------------------------------------
 BYTE   PATT
  POIN2 Label_01005967
//  #04 //107   ----------------------------------------
 BYTE   PATT
  POIN2 Label_01005970
//  #04 //108   ----------------------------------------
 BYTE   W60
 BYTE   N32  Fn1  v080
 BYTE   W36
//  #04 //109   ----------------------------------------
 BYTE   PATT
  POIN2 Label_01005A56
//  #04 //110   ----------------------------------------
 BYTE   PATT
  POIN2 Label_01005A2F
//  #04 //111   ----------------------------------------
 BYTE   PATT
  POIN2 Label_01005970
//  #04 //112   ----------------------------------------
 BYTE   W60
 BYTE   N32  Fn1  v080
 BYTE   W36
//  #04 //113   ----------------------------------------
 BYTE   PATT
  POIN2 Label_0100595D
//  #04 //114   ----------------------------------------
 BYTE   PATT
  POIN2 Label_01005967
//  #04 //115   ----------------------------------------
 BYTE   PATT
  POIN2 Label_01005970
//  #04 //116   ----------------------------------------
 BYTE   PATT
  POIN2 Label_01005979
//  #04 //117   ----------------------------------------
 BYTE   PATT
  POIN2 Label_01005982
//  #04 //118   ----------------------------------------
 BYTE   PATT
  POIN2 Label_01005967
//  #04 //119   ----------------------------------------
 BYTE   PATT
  POIN2 Label_01005970
//  #04 //120   ----------------------------------------
 BYTE   W60
 BYTE   N32  Fn1  v080
 BYTE   W36
//  #04 //121   ----------------------------------------
 BYTE   W96
//  #04 //122   ----------------------------------------
 BYTE   W96
//  #04 //123   ----------------------------------------
 BYTE   W96
//  #04 //124   ----------------------------------------
 BYTE   W96
//  #04 //125   ----------------------------------------
 BYTE   W96
//  #04 //126   ----------------------------------------
 BYTE   W96
//  #04 //127   ----------------------------------------
 BYTE   W96
//  #04 //128   ----------------------------------------
 BYTE   W96
//  #04 //129   ----------------------------------------
 BYTE   W96
//  #04 //130   ----------------------------------------
 BYTE   W96
//  #04 //131   ----------------------------------------
 BYTE   W96
//  #04 //132   ----------------------------------------
 BYTE   W96
//  #04 //133   ----------------------------------------
 BYTE   W96
//  #04 //134   ----------------------------------------
 BYTE   W96
//  #04 //135   ----------------------------------------
 BYTE   W96
//  #04 //136   ----------------------------------------
 BYTE   W96
//  #04 //137   ----------------------------------------
 BYTE   PATT
  POIN2 Label_0100595D
//  #04 //138   ----------------------------------------
 BYTE   PATT
  POIN2 Label_01005967
//  #04 //139   ----------------------------------------
 BYTE   PATT
  POIN2 Label_01005970
//  #04 //140   ----------------------------------------
 BYTE   PATT
  POIN2 Label_01005A1D
//  #04 //141   ----------------------------------------
 BYTE   PATT
  POIN2 Label_01005A26
//  #04 //142   ----------------------------------------
 BYTE   PATT
  POIN2 Label_01005A2F
//  #04 //143   ----------------------------------------
 BYTE   PATT
  POIN2 Label_01005970
//  #04 //144   ----------------------------------------
 BYTE   W60
 BYTE   N32  Fn1  v080
 BYTE   W36
//  #04 //145   ----------------------------------------
 BYTE   PATT
  POIN2 Label_0100595D
//  #04 //146   ----------------------------------------
 BYTE   PATT
  POIN2 Label_01005967
//  #04 //147   ----------------------------------------
 BYTE   PATT
  POIN2 Label_01005970
//  #04 //148   ----------------------------------------
 BYTE   W60
 BYTE   N32  Fn1  v080
 BYTE   W36
//  #04 //149   ----------------------------------------
 BYTE   PATT
  POIN2 Label_01005A56
//  #04 //150   ----------------------------------------
 BYTE   PATT
  POIN2 Label_01005A2F
//  #04 //151   ----------------------------------------
 BYTE   PATT
  POIN2 Label_01005970
//  #04 //152   ----------------------------------------
 BYTE   W60
 BYTE   N32  Fn1  v080
 BYTE   W36
//  #04 //153   ----------------------------------------
 BYTE   PATT
  POIN2 Label_0100595D
//  #04 //154   ----------------------------------------
 BYTE   PATT
  POIN2 Label_01005967
//  #04 //155   ----------------------------------------
 BYTE   PATT
  POIN2 Label_01005970
//  #04 //156   ----------------------------------------
 BYTE   PATT
  POIN2 Label_01005979
//  #04 //157   ----------------------------------------
 BYTE   PATT
  POIN2 Label_01005982
//  #04 //158   ----------------------------------------
 BYTE   PATT
  POIN2 Label_01005967
//  #04 //159   ----------------------------------------
 BYTE   PATT
  POIN2 Label_01005970
//  #04 //160   ----------------------------------------
 BYTE   W60
 BYTE   N32  Fn1  v080
 BYTE   W36
//  #04 //161   ----------------------------------------
 BYTE   GoTo
  POIN2 Label_01005A97
//  #04 //162   ----------------------------------------
 BYTE   PATT
  POIN2 Label_0100595D
//  #04 //163   ----------------------------------------
 BYTE   PATT
  POIN2 Label_01005967
//  #04 //164   ----------------------------------------
 BYTE   PATT
  POIN2 Label_01005970
//  #04 //165   ----------------------------------------
 BYTE   PATT
  POIN2 Label_01005979
//  #04 //166   ----------------------------------------
 BYTE   PATT
  POIN2 Label_01005982
//  #04 //167   ----------------------------------------
 BYTE   PATT
  POIN2 Label_01005967
//  #04 //168   ----------------------------------------
 BYTE   PATT
  POIN2 Label_01005970
//  #04 //169   ----------------------------------------
 BYTE   W60
 BYTE   N32  Fn1  v080
 BYTE   W32
 BYTE   W03
 BYTE   FINE

//**************** Track 5 (Midi-Chn.4) ****************//

RiversInTheDesert_005:
//  #05 //000   ----------------------------------------
 BYTE   KEYSH   RiversInTheDesert_key+0
 BYTE   VOICE   1
 BYTE   VOL   24*RiversInTheDesert_mvl/mxv
 BYTE   PAN   c_v+0
 BYTE   W96
//  #05 //001   ----------------------------------------
 BYTE   W96
//  #05 //002   ----------------------------------------
 BYTE   W96
//  #05 //003   ----------------------------------------
 BYTE   W96
//  #05 //004   ----------------------------------------
 BYTE   W96
//  #05 //005   ----------------------------------------
 BYTE   W96
//  #05 //006   ----------------------------------------
 BYTE   W96
//  #05 //007   ----------------------------------------
 BYTE   W96
//  #05 //008   ----------------------------------------
 BYTE   W96
//  #05 //009   ----------------------------------------
 BYTE   W96
//  #05 //010   ----------------------------------------
 BYTE   W96
//  #05 //011   ----------------------------------------
 BYTE   W96
//  #05 //012   ----------------------------------------
 BYTE   W96
//  #05 //013   ----------------------------------------
 BYTE   W96
//  #05 //014   ----------------------------------------
 BYTE   W96
//  #05 //015   ----------------------------------------
 BYTE   W96
//  #05 //016   ----------------------------------------
Label_01005C68:
 BYTE   N32  Gn1  v052
 BYTE   W36
 BYTE   Gn2
 BYTE   W36
 BYTE   N22  Gn1
 BYTE   W24
 BYTE   PEND 
//  #05 //017   ----------------------------------------
 BYTE   PATT
  POIN2 Label_01005C68
//  #05 //018   ----------------------------------------
 BYTE   PATT
  POIN2 Label_01005C68
//  #05 //019   ----------------------------------------
 BYTE   PATT
  POIN2 Label_01005C68
//  #05 //020   ----------------------------------------
 BYTE   PATT
  POIN2 Label_01005C68
//  #05 //021   ----------------------------------------
 BYTE   PATT
  POIN2 Label_01005C68
//  #05 //022   ----------------------------------------
 BYTE   PATT
  POIN2 Label_01005C68
//  #05 //023   ----------------------------------------
 BYTE   N44  Gn1  v052
 BYTE   W96
//  #05 //024   ----------------------------------------
 BYTE   W96
//  #05 //025   ----------------------------------------
 BYTE   W96
//  #05 //026   ----------------------------------------
 BYTE   W96
//  #05 //027   ----------------------------------------
 BYTE   W96
//  #05 //028   ----------------------------------------
 BYTE   W96
//  #05 //029   ----------------------------------------
 BYTE   W96
//  #05 //030   ----------------------------------------
 BYTE   W96
//  #05 //031   ----------------------------------------
 BYTE   W96
//  #05 //032   ----------------------------------------
 BYTE   PATT
  POIN2 Label_01005C68
//  #05 //033   ----------------------------------------
 BYTE   PATT
  POIN2 Label_01005C68
//  #05 //034   ----------------------------------------
 BYTE   PATT
  POIN2 Label_01005C68
//  #05 //035   ----------------------------------------
 BYTE   PATT
  POIN2 Label_01005C68
//  #05 //036   ----------------------------------------
 BYTE   PATT
  POIN2 Label_01005C68
//  #05 //037   ----------------------------------------
 BYTE   PATT
  POIN2 Label_01005C68
//  #05 //038   ----------------------------------------
 BYTE   PATT
  POIN2 Label_01005C68
//  #05 //039   ----------------------------------------
Label_01005CBF:
 BYTE   N32  Gn1  v052
 BYTE   W36
 BYTE   Gn2
 BYTE   W36
 BYTE   N22  Fn1
 BYTE   W24
 BYTE   PEND 
//  #05 //040   ----------------------------------------
Label_01005CC9:
 BYTE   N32  Ds1  v052
 BYTE   W36
 BYTE   Ds2
 BYTE   W36
 BYTE   N22  Ds1
 BYTE   W24
 BYTE   PEND 
//  #05 //041   ----------------------------------------
Label_01005CD3:
 BYTE   N32  Ds1  v052
 BYTE   W36
 BYTE   Ds2
 BYTE   W36
 BYTE   N22  Dn1
 BYTE   W24
 BYTE   PEND 
//  #05 //042   ----------------------------------------
Label_01005CDD:
 BYTE   N32  Cn1  v052
 BYTE   W36
 BYTE   Cn2
 BYTE   W36
 BYTE   N22  Cn1
 BYTE   W24
 BYTE   PEND 
//  #05 //043   ----------------------------------------
Label_01005CE7:
 BYTE   N32  Cn1  v052
 BYTE   W36
 BYTE   Cn2
 BYTE   W36
 BYTE   N22  Dn1
 BYTE   W24
 BYTE   PEND 
//  #05 //044   ----------------------------------------
 BYTE   PATT
  POIN2 Label_01005C68
//  #05 //045   ----------------------------------------
Label_01005CF6:
 BYTE   N32  Fn1  v052
 BYTE   W36
 BYTE   Fn2
 BYTE   W36
 BYTE   N22  Fn1
 BYTE   W24
 BYTE   PEND 
//  #05 //046   ----------------------------------------
 BYTE   PATT
  POIN2 Label_01005C68
//  #05 //047   ----------------------------------------
 BYTE   N44  Fn1  v052
 BYTE   W96
//  #05 //048   ----------------------------------------
 BYTE   W96
//  #05 //049   ----------------------------------------
 BYTE   W96
//  #05 //050   ----------------------------------------
 BYTE   W96
//  #05 //051   ----------------------------------------
 BYTE   W96
//  #05 //052   ----------------------------------------
 BYTE   W96
//  #05 //053   ----------------------------------------
 BYTE   W96
//  #05 //054   ----------------------------------------
 BYTE   W96
//  #05 //055   ----------------------------------------
 BYTE   W96
//  #05 //056   ----------------------------------------
 BYTE   W96
//  #05 //057   ----------------------------------------
 BYTE   W96
//  #05 //058   ----------------------------------------
 BYTE   W96
//  #05 //059   ----------------------------------------
 BYTE   W96
//  #05 //060   ----------------------------------------
 BYTE   W96
//  #05 //061   ----------------------------------------
 BYTE   W96
//  #05 //062   ----------------------------------------
 BYTE   W96
//  #05 //063   ----------------------------------------
 BYTE   W96
//  #05 //064   ----------------------------------------
 BYTE   W96
//  #05 //065   ----------------------------------------
 BYTE   W96
//  #05 //066   ----------------------------------------
 BYTE   W96
//  #05 //067   ----------------------------------------
 BYTE   W96
//  #05 //068   ----------------------------------------
 BYTE   W96
//  #05 //069   ----------------------------------------
 BYTE   W96
//  #05 //070   ----------------------------------------
 BYTE   W96
//  #05 //071   ----------------------------------------
 BYTE   W96
//  #05 //072   ----------------------------------------
Label_01005D21:
 BYTE   W96
//  #05 //073   ----------------------------------------
 BYTE   W96
//  #05 //074   ----------------------------------------
 BYTE   W96
//  #05 //075   ----------------------------------------
 BYTE   W96
//  #05 //076   ----------------------------------------
 BYTE   W96
//  #05 //077   ----------------------------------------
 BYTE   W96
//  #05 //078   ----------------------------------------
 BYTE   W96
//  #05 //079   ----------------------------------------
 BYTE   W96
//  #05 //080   ----------------------------------------
 BYTE   PATT
  POIN2 Label_01005C68
//  #05 //081   ----------------------------------------
 BYTE   PATT
  POIN2 Label_01005C68
//  #05 //082   ----------------------------------------
 BYTE   PATT
  POIN2 Label_01005C68
//  #05 //083   ----------------------------------------
 BYTE   PATT
  POIN2 Label_01005C68
//  #05 //084   ----------------------------------------
 BYTE   PATT
  POIN2 Label_01005C68
//  #05 //085   ----------------------------------------
 BYTE   PATT
  POIN2 Label_01005C68
//  #05 //086   ----------------------------------------
 BYTE   PATT
  POIN2 Label_01005C68
//  #05 //087   ----------------------------------------
 BYTE   PATT
  POIN2 Label_01005CBF
//  #05 //088   ----------------------------------------
 BYTE   PATT
  POIN2 Label_01005CC9
//  #05 //089   ----------------------------------------
 BYTE   PATT
  POIN2 Label_01005CD3
//  #05 //090   ----------------------------------------
 BYTE   PATT
  POIN2 Label_01005CDD
//  #05 //091   ----------------------------------------
 BYTE   PATT
  POIN2 Label_01005CE7
//  #05 //092   ----------------------------------------
 BYTE   PATT
  POIN2 Label_01005C68
//  #05 //093   ----------------------------------------
 BYTE   PATT
  POIN2 Label_01005CF6
//  #05 //094   ----------------------------------------
 BYTE   PATT
  POIN2 Label_01005C68
//  #05 //095   ----------------------------------------
 BYTE   N44  Fn1  v052
 BYTE   W96
//  #05 //096   ----------------------------------------
 BYTE   W96
//  #05 //097   ----------------------------------------
 BYTE   W96
//  #05 //098   ----------------------------------------
 BYTE   W96
//  #05 //099   ----------------------------------------
 BYTE   W96
//  #05 //100   ----------------------------------------
 BYTE   W96
//  #05 //101   ----------------------------------------
 BYTE   W96
//  #05 //102   ----------------------------------------
 BYTE   W96
//  #05 //103   ----------------------------------------
 BYTE   W96
//  #05 //104   ----------------------------------------
 BYTE   W96
//  #05 //105   ----------------------------------------
 BYTE   W96
//  #05 //106   ----------------------------------------
 BYTE   W96
//  #05 //107   ----------------------------------------
 BYTE   W96
//  #05 //108   ----------------------------------------
 BYTE   W96
//  #05 //109   ----------------------------------------
 BYTE   W96
//  #05 //110   ----------------------------------------
 BYTE   W96
//  #05 //111   ----------------------------------------
 BYTE   W96
//  #05 //112   ----------------------------------------
 BYTE   W96
//  #05 //113   ----------------------------------------
 BYTE   W96
//  #05 //114   ----------------------------------------
 BYTE   W96
//  #05 //115   ----------------------------------------
 BYTE   W96
//  #05 //116   ----------------------------------------
 BYTE   W96
//  #05 //117   ----------------------------------------
 BYTE   W96
//  #05 //118   ----------------------------------------
 BYTE   W96
//  #05 //119   ----------------------------------------
 BYTE   W96
//  #05 //120   ----------------------------------------
Label_01005D90:
 BYTE   N44  An3  v052
 BYTE   W03
 BYTE   Fn4
 BYTE   W44
 BYTE   W01
 BYTE   As3
 BYTE   W03
 BYTE   Gn4
 BYTE   W44
 BYTE   W01
 BYTE   PEND 
//  #05 //121   ----------------------------------------
Label_01005D9D:
 BYTE   N44  Dn4  v052
 BYTE   W03
 BYTE   As4
 BYTE   W44
 BYTE   W01
 BYTE   Cn4
 BYTE   W03
 BYTE   An4
 BYTE   W44
 BYTE   W01
 BYTE   PEND 
//  #05 //122   ----------------------------------------
Label_01005DAA:
 BYTE   N92  An3  v052
 BYTE   W03
 BYTE   Fn4
 BYTE   W92
 BYTE   W01
 BYTE   PEND 
//  #05 //123   ----------------------------------------
 BYTE   W96
//  #05 //124   ----------------------------------------
 BYTE   PATT
  POIN2 Label_01005D90
//  #05 //125   ----------------------------------------
 BYTE   PATT
  POIN2 Label_01005D9D
//  #05 //126   ----------------------------------------
 BYTE   PATT
  POIN2 Label_01005DAA
//  #05 //127   ----------------------------------------
 BYTE   W96
//  #05 //128   ----------------------------------------
 BYTE   N32  As3  v052
 BYTE   W03
 BYTE   Fn4
 BYTE   W32
 BYTE   W01
 BYTE   Ds4
 BYTE   W36
 BYTE   N22  Dn4
 BYTE   W24
//  #05 //129   ----------------------------------------
 BYTE   N44  Cn4
 BYTE   W96
//  #05 //130   ----------------------------------------
 BYTE   N90  Fn3
 BYTE   N90  Dn4
 BYTE   W96
//  #05 //131   ----------------------------------------
 BYTE   W48
 BYTE   N44  An3
 BYTE   N44  Fn4
 BYTE   W48
//  #05 //132   ----------------------------------------
 BYTE   N90  Ds3
 BYTE   N90  As3
 BYTE   N90  Gn4
 BYTE   W96
//  #05 //133   ----------------------------------------
 BYTE   W96
//  #05 //134   ----------------------------------------
 BYTE   W96
//  #05 //135   ----------------------------------------
 BYTE   W96
//  #05 //136   ----------------------------------------
 BYTE   W96
//  #05 //137   ----------------------------------------
 BYTE   W96
//  #05 //138   ----------------------------------------
 BYTE   W96
//  #05 //139   ----------------------------------------
 BYTE   W96
//  #05 //140   ----------------------------------------
 BYTE   W96
//  #05 //141   ----------------------------------------
 BYTE   W96
//  #05 //142   ----------------------------------------
 BYTE   W96
//  #05 //143   ----------------------------------------
 BYTE   W96
//  #05 //144   ----------------------------------------
 BYTE   W96
//  #05 //145   ----------------------------------------
 BYTE   W96
//  #05 //146   ----------------------------------------
 BYTE   W96
//  #05 //147   ----------------------------------------
 BYTE   W96
//  #05 //148   ----------------------------------------
 BYTE   W96
//  #05 //149   ----------------------------------------
 BYTE   W96
//  #05 //150   ----------------------------------------
 BYTE   W96
//  #05 //151   ----------------------------------------
 BYTE   W96
//  #05 //152   ----------------------------------------
 BYTE   W96
//  #05 //153   ----------------------------------------
 BYTE   W96
//  #05 //154   ----------------------------------------
 BYTE   W96
//  #05 //155   ----------------------------------------
 BYTE   W96
//  #05 //156   ----------------------------------------
 BYTE   W96
//  #05 //157   ----------------------------------------
 BYTE   W96
//  #05 //158   ----------------------------------------
 BYTE   W96
//  #05 //159   ----------------------------------------
 BYTE   W96
//  #05 //160   ----------------------------------------
 BYTE   GoTo
  POIN2 Label_01005D21
//  #05 //161   ----------------------------------------
 BYTE   W96
//  #05 //162   ----------------------------------------
 BYTE   W96
//  #05 //163   ----------------------------------------
 BYTE   W96
//  #05 //164   ----------------------------------------
 BYTE   W96
//  #05 //165   ----------------------------------------
 BYTE   W96
//  #05 //166   ----------------------------------------
 BYTE   W96
//  #05 //167   ----------------------------------------
 BYTE   W96
//  #05 //168   ----------------------------------------
 BYTE   W92
 BYTE   W03
 BYTE   FINE

//**************** Track 6 (Midi-Chn.5) ****************//

RiversInTheDesert_006:
//  #06 //000   ----------------------------------------
 BYTE   KEYSH   RiversInTheDesert_key+0
 BYTE   VOICE   104
 BYTE   VOL   24*RiversInTheDesert_mvl/mxv
 BYTE   PAN   c_v+0
 BYTE   W96
//  #06 //001   ----------------------------------------
 BYTE   W96
//  #06 //002   ----------------------------------------
 BYTE   W96
//  #06 //003   ----------------------------------------
 BYTE   W96
//  #06 //004   ----------------------------------------
 BYTE   W96
//  #06 //005   ----------------------------------------
 BYTE   W96
//  #06 //006   ----------------------------------------
 BYTE   W96
//  #06 //007   ----------------------------------------
 BYTE   W96
//  #06 //008   ----------------------------------------
 BYTE   W96
//  #06 //009   ----------------------------------------
 BYTE   W96
//  #06 //010   ----------------------------------------
 BYTE   W96
//  #06 //011   ----------------------------------------
 BYTE   W96
//  #06 //012   ----------------------------------------
 BYTE   W96
//  #06 //013   ----------------------------------------
 BYTE   W96
//  #06 //014   ----------------------------------------
 BYTE   W96
//  #06 //015   ----------------------------------------
 BYTE   W96
//  #06 //016   ----------------------------------------
 BYTE   W96
//  #06 //017   ----------------------------------------
 BYTE   W96
//  #06 //018   ----------------------------------------
 BYTE   W96
//  #06 //019   ----------------------------------------
 BYTE   W96
//  #06 //020   ----------------------------------------
 BYTE   W96
//  #06 //021   ----------------------------------------
 BYTE   W96
//  #06 //022   ----------------------------------------
 BYTE   W96
//  #06 //023   ----------------------------------------
 BYTE   W96
//  #06 //024   ----------------------------------------
Label_01005E40:
 BYTE   N11  Gn4  v080
 BYTE   W60
 BYTE   N05
 BYTE   W24
 BYTE   Fn4
 BYTE   W12
 BYTE   PEND 
//  #06 //025   ----------------------------------------
Label_01005E49:
 BYTE   W60
 BYTE   N05  Fn4  v080
 BYTE   W24
 BYTE   En4
 BYTE   W12
 BYTE   PEND 
//  #06 //026   ----------------------------------------
Label_01005E51:
 BYTE   W60
 BYTE   N05  En4  v080
 BYTE   W24
 BYTE   Fn4
 BYTE   W12
 BYTE   PEND 
//  #06 //027   ----------------------------------------
Label_01005E59:
 BYTE   W60
 BYTE   N05  Fn4  v080
 BYTE   W24
 BYTE   Gn4
 BYTE   W12
 BYTE   PEND 
//  #06 //028   ----------------------------------------
Label_01005E61:
 BYTE   W60
 BYTE   N05  Dn5  v080
 BYTE   W24
 BYTE   Cn5
 BYTE   W12
 BYTE   PEND 
//  #06 //029   ----------------------------------------
 BYTE   PATT
  POIN2 Label_01005E59
//  #06 //030   ----------------------------------------
Label_01005E6E:
 BYTE   W60
 BYTE   N05  Gn4  v080
 BYTE   W24
 BYTE   An4
 BYTE   W12
 BYTE   PEND 
//  #06 //031   ----------------------------------------
 BYTE   W60
 BYTE   N32  Fn4
 BYTE   W36
//  #06 //032   ----------------------------------------
 BYTE   W96
//  #06 //033   ----------------------------------------
 BYTE   W96
//  #06 //034   ----------------------------------------
 BYTE   W96
//  #06 //035   ----------------------------------------
 BYTE   W96
//  #06 //036   ----------------------------------------
 BYTE   W96
//  #06 //037   ----------------------------------------
 BYTE   W96
//  #06 //038   ----------------------------------------
 BYTE   TIE  Gn3  v052
 BYTE   W96
//  #06 //039   ----------------------------------------
 BYTE   W56
 BYTE   W03
 BYTE   EOT
 BYTE   W01
 BYTE   N32  Fn3
 BYTE   W36
//  #06 //040   ----------------------------------------
 BYTE   TIE  Dn4
 BYTE   W96
//  #06 //041   ----------------------------------------
 BYTE   W92
 BYTE   W03
 BYTE   EOT
 BYTE   W01
//  #06 //042   ----------------------------------------
 BYTE   TIE
 BYTE   W96
//  #06 //043   ----------------------------------------
 BYTE   W92
 BYTE   W03
 BYTE   EOT
 BYTE   W01
//  #06 //044   ----------------------------------------
Label_01005E98:
 BYTE   N56  Gn4  v052
 BYTE   W60
 BYTE   N11
 BYTE   W24
 BYTE   N68  Fn4
 BYTE   W12
 BYTE   PEND 
//  #06 //045   ----------------------------------------
 BYTE   W60
 BYTE   N32
 BYTE   W36
//  #06 //046   ----------------------------------------
Label_01005EA5:
 BYTE   N56  Gn4  v052
 BYTE   W60
 BYTE   N11
 BYTE   W24
 BYTE   N56  Fn4
 BYTE   W12
 BYTE   PEND 
//  #06 //047   ----------------------------------------
 BYTE   W96
//  #06 //048   ----------------------------------------
Label_01005EB0:
 BYTE   N11  Gn3  v080
 BYTE   W24
 BYTE   Gn4
 BYTE   W12
 BYTE   Fn4
 BYTE   W12
 BYTE   N05  Gn4
 BYTE   W12
 BYTE   Fn4
 BYTE   W12
 BYTE   Gn4
 BYTE   W12
 BYTE   Gn3
 BYTE   W12
 BYTE   PEND 
//  #06 //049   ----------------------------------------
Label_01005EC2:
 BYTE   W24
 BYTE   N11  Gn4  v080
 BYTE   W12
 BYTE   Fn4
 BYTE   W12
 BYTE   N05  Gn4
 BYTE   W12
 BYTE   Fn4
 BYTE   W12
 BYTE   Gn4
 BYTE   W12
 BYTE   Gn3
 BYTE   W12
 BYTE   PEND 
//  #06 //050   ----------------------------------------
 BYTE   PATT
  POIN2 Label_01005EC2
//  #06 //051   ----------------------------------------
 BYTE   PATT
  POIN2 Label_01005EC2
//  #06 //052   ----------------------------------------
Label_01005EDD:
 BYTE   W24
 BYTE   N11  Gn4  v080
 BYTE   W12
 BYTE   Fn4
 BYTE   W12
 BYTE   Gn4
 BYTE   W12
 BYTE   An4
 BYTE   W12
 BYTE   N05  As4
 BYTE   W12
 BYTE   N56  An4
 BYTE   W12
 BYTE   PEND 
//  #06 //053   ----------------------------------------
Label_01005EEF:
 BYTE   W48
 BYTE   N11  An4  v080
 BYTE   W12
 BYTE   As4
 BYTE   W12
 BYTE   N05  Cn5
 BYTE   W12
 BYTE   N68  As4
 BYTE   W12
 BYTE   PEND 
//  #06 //054   ----------------------------------------
Label_01005EFD:
 BYTE   W60
 BYTE   N11  As4  v080
 BYTE   W12
 BYTE   Cn5
 BYTE   W12
 BYTE   N05  Dn5
 BYTE   W12
 BYTE   PEND 
//  #06 //055   ----------------------------------------
Label_01005F08:
 BYTE   W12
 BYTE   N05  An4  v080
 BYTE   W24
 BYTE   Cn5
 BYTE   W24
 BYTE   N32  As4
 BYTE   W36
 BYTE   PEND 
//  #06 //056   ----------------------------------------
 BYTE   PATT
  POIN2 Label_01005EB0
//  #06 //057   ----------------------------------------
 BYTE   PATT
  POIN2 Label_01005EC2
//  #06 //058   ----------------------------------------
 BYTE   PATT
  POIN2 Label_01005EC2
//  #06 //059   ----------------------------------------
 BYTE   PATT
  POIN2 Label_01005EC2
//  #06 //060   ----------------------------------------
Label_01005F27:
 BYTE   W24
 BYTE   N11  Gn4  v080
 BYTE   W12
 BYTE   Fn4
 BYTE   W12
 BYTE   Gn4
 BYTE   W12
 BYTE   An4
 BYTE   W12
 BYTE   As4
 BYTE   W24
 BYTE   PEND 
//  #06 //061   ----------------------------------------
Label_01005F35:
 BYTE   N32  An4  v080
 BYTE   W36
 BYTE   N11  Fn4
 BYTE   W24
 BYTE   N11
 BYTE   W24
 BYTE   N56  Gn4
 BYTE   W12
 BYTE   PEND 
//  #06 //062   ----------------------------------------
Label_01005F42:
 BYTE   W60
 BYTE   N11  As4  v080
 BYTE   W12
 BYTE   Cn5
 BYTE   W24
 BYTE   PEND 
//  #06 //063   ----------------------------------------
Label_01005F4A:
 BYTE   N11  Cs5  v080
 BYTE   W12
 BYTE   Cn5
 BYTE   W24
 BYTE   As4
 BYTE   W24
 BYTE   N32  Gn4
 BYTE   W36
 BYTE   PEND 
//  #06 //064   ----------------------------------------
 BYTE   Gn3
 BYTE   W36
 BYTE   N56  Gn4
 BYTE   W60
//  #06 //065   ----------------------------------------
 BYTE   N07  An4
 BYTE   W08
 BYTE   Fn4
 BYTE   W08
 BYTE   Cn4
 BYTE   W08
 BYTE   Cs4
 BYTE   W08
 BYTE   As3
 BYTE   W08
 BYTE   Gn3
 BYTE   W08
 BYTE   Gs3
 BYTE   W08
 BYTE   Fn3
 BYTE   W08
 BYTE   Cn3
 BYTE   W08
 BYTE   N11  Cs3
 BYTE   W12
 BYTE   N44  Dn3
 BYTE   W12
//  #06 //066   ----------------------------------------
 BYTE   W36
 BYTE   Gn3
 BYTE   W48
 BYTE   Fn3
 BYTE   W12
//  #06 //067   ----------------------------------------
 BYTE   W36
 BYTE   N23  Gn3
 BYTE   W24
 BYTE   Cs4
 BYTE   W24
 BYTE   N11  Dn4
 BYTE   W12
//  #06 //068   ----------------------------------------
 BYTE   W24
 BYTE   N68  Gn4
 BYTE   W72
//  #06 //069   ----------------------------------------
 BYTE   N07  An4
 BYTE   W08
 BYTE   Fn4
 BYTE   W08
 BYTE   Cn4
 BYTE   W08
 BYTE   Cs4
 BYTE   W08
 BYTE   As3
 BYTE   W08
 BYTE   Gn3
 BYTE   W08
 BYTE   N11  Dn4
 BYTE   W18
 BYTE   Fn4
 BYTE   W18
 BYTE   N56  En4
 BYTE   W12
//  #06 //070   ----------------------------------------
 BYTE   W48
 BYTE   N11
 BYTE   W12
 BYTE   N11
 BYTE   W24
 BYTE   N56  Fn4
 BYTE   W12
//  #06 //071   ----------------------------------------
 BYTE   W48
 BYTE   N11
 BYTE   W24
 BYTE   N11
 BYTE   W24
//  #06 //072   ----------------------------------------
Label_01005FA8:
//  #06 //073   ----------------------------------------
 BYTE   PATT
  POIN2 Label_01005E40
//  #06 //074   ----------------------------------------
 BYTE   PATT
  POIN2 Label_01005E49
//  #06 //075   ----------------------------------------
 BYTE   PATT
  POIN2 Label_01005E51
//  #06 //076   ----------------------------------------
 BYTE   PATT
  POIN2 Label_01005E59
//  #06 //077   ----------------------------------------
 BYTE   PATT
  POIN2 Label_01005E61
//  #06 //078   ----------------------------------------
 BYTE   PATT
  POIN2 Label_01005E59
//  #06 //079   ----------------------------------------
 BYTE   PATT
  POIN2 Label_01005E6E
//  #06 //080   ----------------------------------------
 BYTE   W60
 BYTE   N32  Fn4  v080
 BYTE   W36
//  #06 //081   ----------------------------------------
 BYTE   W96
//  #06 //082   ----------------------------------------
 BYTE   W96
//  #06 //083   ----------------------------------------
 BYTE   W96
//  #06 //084   ----------------------------------------
 BYTE   W96
//  #06 //085   ----------------------------------------
 BYTE   W96
//  #06 //086   ----------------------------------------
 BYTE   W96
//  #06 //087   ----------------------------------------
 BYTE   TIE  Gn3  v052
 BYTE   W96
//  #06 //088   ----------------------------------------
 BYTE   W56
 BYTE   W03
 BYTE   EOT
 BYTE   W01
 BYTE   N32  Fn3
 BYTE   W36
//  #06 //089   ----------------------------------------
 BYTE   TIE  Dn4
 BYTE   W96
//  #06 //090   ----------------------------------------
 BYTE   W92
 BYTE   W03
 BYTE   EOT
 BYTE   W01
//  #06 //091   ----------------------------------------
 BYTE   TIE
 BYTE   W96
//  #06 //092   ----------------------------------------
 BYTE   W92
 BYTE   W03
 BYTE   EOT
 BYTE   W01
//  #06 //093   ----------------------------------------
 BYTE   PATT
  POIN2 Label_01005E98
//  #06 //094   ----------------------------------------
 BYTE   W60
 BYTE   N32  Fn4  v052
 BYTE   W36
//  #06 //095   ----------------------------------------
 BYTE   PATT
  POIN2 Label_01005EA5
//  #06 //096   ----------------------------------------
 BYTE   W96
//  #06 //097   ----------------------------------------
 BYTE   PATT
  POIN2 Label_01005EB0
//  #06 //098   ----------------------------------------
 BYTE   PATT
  POIN2 Label_01005EC2
//  #06 //099   ----------------------------------------
 BYTE   PATT
  POIN2 Label_01005EC2
//  #06 //100   ----------------------------------------
 BYTE   PATT
  POIN2 Label_01005EC2
//  #06 //101   ----------------------------------------
 BYTE   PATT
  POIN2 Label_01005EDD
//  #06 //102   ----------------------------------------
 BYTE   PATT
  POIN2 Label_01005EEF
//  #06 //103   ----------------------------------------
 BYTE   PATT
  POIN2 Label_01005EFD
//  #06 //104   ----------------------------------------
 BYTE   PATT
  POIN2 Label_01005F08
//  #06 //105   ----------------------------------------
 BYTE   PATT
  POIN2 Label_01005EB0
//  #06 //106   ----------------------------------------
 BYTE   PATT
  POIN2 Label_01005EC2
//  #06 //107   ----------------------------------------
 BYTE   PATT
  POIN2 Label_01005EC2
//  #06 //108   ----------------------------------------
 BYTE   PATT
  POIN2 Label_01005EC2
//  #06 //109   ----------------------------------------
 BYTE   PATT
  POIN2 Label_01005F27
//  #06 //110   ----------------------------------------
 BYTE   PATT
  POIN2 Label_01005F35
//  #06 //111   ----------------------------------------
 BYTE   PATT
  POIN2 Label_01005F42
//  #06 //112   ----------------------------------------
 BYTE   PATT
  POIN2 Label_01005F4A
//  #06 //113   ----------------------------------------
 BYTE   PATT
  POIN2 Label_01005E40
//  #06 //114   ----------------------------------------
 BYTE   PATT
  POIN2 Label_01005E49
//  #06 //115   ----------------------------------------
 BYTE   PATT
  POIN2 Label_01005E51
//  #06 //116   ----------------------------------------
 BYTE   PATT
  POIN2 Label_01005E59
//  #06 //117   ----------------------------------------
 BYTE   PATT
  POIN2 Label_01005E61
//  #06 //118   ----------------------------------------
 BYTE   PATT
  POIN2 Label_01005E59
//  #06 //119   ----------------------------------------
 BYTE   PATT
  POIN2 Label_01005E6E
//  #06 //120   ----------------------------------------
 BYTE   W60
 BYTE   N32  Fn4  v080
 BYTE   W36
//  #06 //121   ----------------------------------------
 BYTE   W96
//  #06 //122   ----------------------------------------
 BYTE   W96
//  #06 //123   ----------------------------------------
 BYTE   W96
//  #06 //124   ----------------------------------------
 BYTE   W96
//  #06 //125   ----------------------------------------
 BYTE   W96
//  #06 //126   ----------------------------------------
 BYTE   W96
//  #06 //127   ----------------------------------------
 BYTE   W96
//  #06 //128   ----------------------------------------
 BYTE   W96
//  #06 //129   ----------------------------------------
 BYTE   W96
//  #06 //130   ----------------------------------------
 BYTE   W96
//  #06 //131   ----------------------------------------
 BYTE   W96
//  #06 //132   ----------------------------------------
 BYTE   W96
//  #06 //133   ----------------------------------------
 BYTE   W96
//  #06 //134   ----------------------------------------
 BYTE   W96
//  #06 //135   ----------------------------------------
 BYTE   W96
//  #06 //136   ----------------------------------------
 BYTE   W96
//  #06 //137   ----------------------------------------
 BYTE   PATT
  POIN2 Label_01005EB0
//  #06 //138   ----------------------------------------
 BYTE   PATT
  POIN2 Label_01005EC2
//  #06 //139   ----------------------------------------
 BYTE   PATT
  POIN2 Label_01005EC2
//  #06 //140   ----------------------------------------
 BYTE   PATT
  POIN2 Label_01005EC2
//  #06 //141   ----------------------------------------
 BYTE   PATT
  POIN2 Label_01005EDD
//  #06 //142   ----------------------------------------
 BYTE   PATT
  POIN2 Label_01005EEF
//  #06 //143   ----------------------------------------
 BYTE   PATT
  POIN2 Label_01005EFD
//  #06 //144   ----------------------------------------
 BYTE   PATT
  POIN2 Label_01005F08
//  #06 //145   ----------------------------------------
 BYTE   PATT
  POIN2 Label_01005EB0
//  #06 //146   ----------------------------------------
 BYTE   PATT
  POIN2 Label_01005EC2
//  #06 //147   ----------------------------------------
 BYTE   PATT
  POIN2 Label_01005EC2
//  #06 //148   ----------------------------------------
 BYTE   PATT
  POIN2 Label_01005EC2
//  #06 //149   ----------------------------------------
 BYTE   PATT
  POIN2 Label_01005F27
//  #06 //150   ----------------------------------------
 BYTE   PATT
  POIN2 Label_01005F35
//  #06 //151   ----------------------------------------
 BYTE   PATT
  POIN2 Label_01005F42
//  #06 //152   ----------------------------------------
 BYTE   PATT
  POIN2 Label_01005F4A
//  #06 //153   ----------------------------------------
 BYTE   PATT
  POIN2 Label_01005E40
//  #06 //154   ----------------------------------------
 BYTE   PATT
  POIN2 Label_01005E49
//  #06 //155   ----------------------------------------
 BYTE   PATT
  POIN2 Label_01005E51
//  #06 //156   ----------------------------------------
 BYTE   PATT
  POIN2 Label_01005E59
//  #06 //157   ----------------------------------------
 BYTE   PATT
  POIN2 Label_01005E61
//  #06 //158   ----------------------------------------
 BYTE   PATT
  POIN2 Label_01005E59
//  #06 //159   ----------------------------------------
 BYTE   PATT
  POIN2 Label_01005E6E
//  #06 //160   ----------------------------------------
 BYTE   W60
 BYTE   N32  Fn4  v080
 BYTE   W36
//  #06 //161   ----------------------------------------
 BYTE   GoTo
  POIN2 Label_01005FA8
//  #06 //162   ----------------------------------------
 BYTE   PATT
  POIN2 Label_01005E40
//  #06 //163   ----------------------------------------
 BYTE   PATT
  POIN2 Label_01005E49
//  #06 //164   ----------------------------------------
 BYTE   PATT
  POIN2 Label_01005E51
//  #06 //165   ----------------------------------------
 BYTE   PATT
  POIN2 Label_01005E59
//  #06 //166   ----------------------------------------
 BYTE   PATT
  POIN2 Label_01005E61
//  #06 //167   ----------------------------------------
 BYTE   PATT
  POIN2 Label_01005E59
//  #06 //168   ----------------------------------------
 BYTE   PATT
  POIN2 Label_01005E6E
//  #06 //169   ----------------------------------------
 BYTE   W60
 BYTE   N32  Fn4  v080
 BYTE   W32
 BYTE   W03
 BYTE   FINE

//**************** Track 7 (Midi-Chn.6) ****************//

RiversInTheDesert_007:
//  #07 //000   ----------------------------------------
 BYTE   KEYSH   RiversInTheDesert_key+0
 BYTE   VOICE   104
 BYTE   VOL   24*RiversInTheDesert_mvl/mxv
 BYTE   PAN   c_v+0
 BYTE   W96
//  #07 //001   ----------------------------------------
 BYTE   W96
//  #07 //002   ----------------------------------------
 BYTE   W96
//  #07 //003   ----------------------------------------
 BYTE   W96
//  #07 //004   ----------------------------------------
 BYTE   W96
//  #07 //005   ----------------------------------------
 BYTE   W96
//  #07 //006   ----------------------------------------
 BYTE   W96
//  #07 //007   ----------------------------------------
 BYTE   W96
//  #07 //008   ----------------------------------------
 BYTE   W96
//  #07 //009   ----------------------------------------
 BYTE   W96
//  #07 //010   ----------------------------------------
 BYTE   W96
//  #07 //011   ----------------------------------------
 BYTE   W96
//  #07 //012   ----------------------------------------
 BYTE   W96
//  #07 //013   ----------------------------------------
 BYTE   W96
//  #07 //014   ----------------------------------------
 BYTE   W96
//  #07 //015   ----------------------------------------
 BYTE   W96
//  #07 //016   ----------------------------------------
 BYTE   W96
//  #07 //017   ----------------------------------------
 BYTE   W96
//  #07 //018   ----------------------------------------
 BYTE   W96
//  #07 //019   ----------------------------------------
 BYTE   W96
//  #07 //020   ----------------------------------------
 BYTE   W96
//  #07 //021   ----------------------------------------
 BYTE   W96
//  #07 //022   ----------------------------------------
 BYTE   W96
//  #07 //023   ----------------------------------------
 BYTE   W96
//  #07 //024   ----------------------------------------
Label_01006160:
 BYTE   N11  As3  v080
 BYTE   W60
 BYTE   N05
 BYTE   W24
 BYTE   An3
 BYTE   W12
 BYTE   PEND 
//  #07 //025   ----------------------------------------
Label_01006169:
 BYTE   W60
 BYTE   N05  An3  v080
 BYTE   W24
 BYTE   Gn3
 BYTE   W12
 BYTE   PEND 
//  #07 //026   ----------------------------------------
Label_01006171:
 BYTE   W60
 BYTE   N05  Gn3  v080
 BYTE   W24
 BYTE   An3
 BYTE   W12
 BYTE   PEND 
//  #07 //027   ----------------------------------------
Label_01006179:
 BYTE   W60
 BYTE   N05  An3  v080
 BYTE   W24
 BYTE   As3
 BYTE   W12
 BYTE   PEND 
//  #07 //028   ----------------------------------------
Label_01006181:
 BYTE   W60
 BYTE   N05  As3  v080
 BYTE   W24
 BYTE   An3
 BYTE   W12
 BYTE   PEND 
//  #07 //029   ----------------------------------------
 BYTE   PATT
  POIN2 Label_01006169
//  #07 //030   ----------------------------------------
 BYTE   PATT
  POIN2 Label_01006171
//  #07 //031   ----------------------------------------
 BYTE   W60
 BYTE   N32  An3  v080
 BYTE   W36
//  #07 //032   ----------------------------------------
 BYTE   W96
//  #07 //033   ----------------------------------------
 BYTE   W96
//  #07 //034   ----------------------------------------
 BYTE   W96
//  #07 //035   ----------------------------------------
 BYTE   W96
//  #07 //036   ----------------------------------------
 BYTE   W96
//  #07 //037   ----------------------------------------
 BYTE   W96
//  #07 //038   ----------------------------------------
 BYTE   TIE  Gn3  v052
 BYTE   W96
//  #07 //039   ----------------------------------------
 BYTE   W56
 BYTE   W03
 BYTE   EOT
 BYTE   W01
 BYTE   N32  Fn3
 BYTE   W36
//  #07 //040   ----------------------------------------
 BYTE   TIE  Ds3
 BYTE   W96
//  #07 //041   ----------------------------------------
 BYTE   W92
 BYTE   W03
 BYTE   EOT
 BYTE   W01
//  #07 //042   ----------------------------------------
 BYTE   TIE  Cn3
 BYTE   W96
//  #07 //043   ----------------------------------------
 BYTE   W92
 BYTE   W03
 BYTE   EOT
 BYTE   W01
//  #07 //044   ----------------------------------------
Label_010061B7:
 BYTE   N56  Gn3  v052
 BYTE   W60
 BYTE   N11
 BYTE   W24
 BYTE   N68  Fn3
 BYTE   W12
 BYTE   PEND 
//  #07 //045   ----------------------------------------
 BYTE   W60
 BYTE   N32
 BYTE   W36
//  #07 //046   ----------------------------------------
Label_010061C4:
 BYTE   N56  Gn3  v052
 BYTE   W60
 BYTE   N11
 BYTE   W24
 BYTE   N56  Fn3
 BYTE   W12
 BYTE   PEND 
//  #07 //047   ----------------------------------------
 BYTE   W96
//  #07 //048   ----------------------------------------
Label_010061CF:
 BYTE   N11  As2  v080
 BYTE   W24
 BYTE   As3
 BYTE   W12
 BYTE   An3
 BYTE   W12
 BYTE   N05  As3
 BYTE   W12
 BYTE   An3
 BYTE   W12
 BYTE   As3
 BYTE   W12
 BYTE   Gn3
 BYTE   W12
 BYTE   PEND 
//  #07 //049   ----------------------------------------
Label_010061E1:
 BYTE   W24
 BYTE   N11  As3  v080
 BYTE   W12
 BYTE   An3
 BYTE   W12
 BYTE   N05  As3
 BYTE   W12
 BYTE   An3
 BYTE   W12
 BYTE   As3
 BYTE   W12
 BYTE   Gn3
 BYTE   W12
 BYTE   PEND 
//  #07 //050   ----------------------------------------
 BYTE   PATT
  POIN2 Label_010061E1
//  #07 //051   ----------------------------------------
 BYTE   PATT
  POIN2 Label_010061E1
//  #07 //052   ----------------------------------------
Label_010061FC:
 BYTE   W24
 BYTE   N11  As3  v080
 BYTE   W12
 BYTE   An3
 BYTE   W12
 BYTE   As3
 BYTE   W12
 BYTE   Cn4
 BYTE   W12
 BYTE   N05  Dn4
 BYTE   W12
 BYTE   N56  Cn4
 BYTE   W12
 BYTE   PEND 
//  #07 //053   ----------------------------------------
Label_0100620E:
 BYTE   W48
 BYTE   N11  Cn4  v080
 BYTE   W12
 BYTE   Dn4
 BYTE   W12
 BYTE   N05  Ds4
 BYTE   W12
 BYTE   N68  En4
 BYTE   W12
 BYTE   PEND 
//  #07 //054   ----------------------------------------
Label_0100621C:
 BYTE   W60
 BYTE   N23  En4  v080
 BYTE   W24
 BYTE   N05  Fn4
 BYTE   W12
 BYTE   PEND 
//  #07 //055   ----------------------------------------
Label_01006225:
 BYTE   W12
 BYTE   N05  Cn4  v080
 BYTE   W24
 BYTE   Ds4
 BYTE   W24
 BYTE   N32  Dn4
 BYTE   W36
 BYTE   PEND 
//  #07 //056   ----------------------------------------
 BYTE   PATT
  POIN2 Label_010061CF
//  #07 //057   ----------------------------------------
 BYTE   PATT
  POIN2 Label_010061E1
//  #07 //058   ----------------------------------------
 BYTE   PATT
  POIN2 Label_010061E1
//  #07 //059   ----------------------------------------
 BYTE   PATT
  POIN2 Label_010061E1
//  #07 //060   ----------------------------------------
Label_01006244:
 BYTE   W24
 BYTE   N11  As3  v080
 BYTE   W12
 BYTE   An3
 BYTE   W12
 BYTE   As3
 BYTE   W12
 BYTE   Cn4
 BYTE   W12
 BYTE   Dn4
 BYTE   W24
 BYTE   PEND 
//  #07 //061   ----------------------------------------
Label_01006252:
 BYTE   N32  Cn4  v080
 BYTE   W36
 BYTE   N11  An3
 BYTE   W24
 BYTE   N11
 BYTE   W24
 BYTE   N56  Gn3
 BYTE   W12
 BYTE   PEND 
//  #07 //062   ----------------------------------------
Label_0100625F:
 BYTE   W60
 BYTE   N11  Gn4  v080
 BYTE   W12
 BYTE   An4
 BYTE   W24
 BYTE   PEND 
//  #07 //063   ----------------------------------------
Label_01006267:
 BYTE   N11  As4  v080
 BYTE   W12
 BYTE   An4
 BYTE   W24
 BYTE   Dn4
 BYTE   W24
 BYTE   N32  As3
 BYTE   W36
 BYTE   PEND 
//  #07 //064   ----------------------------------------
 BYTE   Gn3
 BYTE   W36
 BYTE   N56  Gn4
 BYTE   W60
//  #07 //065   ----------------------------------------
 BYTE   N07  An4
 BYTE   W08
 BYTE   Fn4
 BYTE   W08
 BYTE   Cn4
 BYTE   W08
 BYTE   Cs4
 BYTE   W08
 BYTE   As3
 BYTE   W08
 BYTE   Gn3
 BYTE   W08
 BYTE   Gs3
 BYTE   W08
 BYTE   Fn3
 BYTE   W08
 BYTE   Cn3
 BYTE   W08
 BYTE   N11  Cs3
 BYTE   W12
 BYTE   N44  Dn3
 BYTE   W12
//  #07 //066   ----------------------------------------
 BYTE   W36
 BYTE   Gn3
 BYTE   W48
 BYTE   Fn3
 BYTE   W12
//  #07 //067   ----------------------------------------
 BYTE   W36
 BYTE   N23  Gn3
 BYTE   W24
 BYTE   Cs4
 BYTE   W24
 BYTE   N11  Dn4
 BYTE   W12
//  #07 //068   ----------------------------------------
 BYTE   W24
 BYTE   N68  Gn4
 BYTE   W72
//  #07 //069   ----------------------------------------
 BYTE   N07  An4
 BYTE   W08
 BYTE   Fn4
 BYTE   W08
 BYTE   Cn4
 BYTE   W08
 BYTE   Cs4
 BYTE   W08
 BYTE   As3
 BYTE   W08
 BYTE   Gn3
 BYTE   W08
 BYTE   N11  As3
 BYTE   W18
 BYTE   Dn4
 BYTE   W18
 BYTE   N56  Gn3
 BYTE   W12
//  #07 //070   ----------------------------------------
 BYTE   W48
 BYTE   N11
 BYTE   W12
 BYTE   N11
 BYTE   W24
 BYTE   N56  Fn3
 BYTE   W12
//  #07 //071   ----------------------------------------
 BYTE   W48
 BYTE   N11
 BYTE   W24
 BYTE   N11
 BYTE   W24
//  #07 //072   ----------------------------------------
Label_010062C5:
//  #07 //073   ----------------------------------------
 BYTE   PATT
  POIN2 Label_01006160
//  #07 //074   ----------------------------------------
 BYTE   PATT
  POIN2 Label_01006169
//  #07 //075   ----------------------------------------
 BYTE   PATT
  POIN2 Label_01006171
//  #07 //076   ----------------------------------------
 BYTE   PATT
  POIN2 Label_01006179
//  #07 //077   ----------------------------------------
 BYTE   PATT
  POIN2 Label_01006181
//  #07 //078   ----------------------------------------
 BYTE   PATT
  POIN2 Label_01006169
//  #07 //079   ----------------------------------------
 BYTE   PATT
  POIN2 Label_01006171
//  #07 //080   ----------------------------------------
 BYTE   W60
 BYTE   N32  An3  v080
 BYTE   W36
//  #07 //081   ----------------------------------------
 BYTE   W96
//  #07 //082   ----------------------------------------
 BYTE   W96
//  #07 //083   ----------------------------------------
 BYTE   W96
//  #07 //084   ----------------------------------------
 BYTE   W96
//  #07 //085   ----------------------------------------
 BYTE   W96
//  #07 //086   ----------------------------------------
 BYTE   W96
//  #07 //087   ----------------------------------------
 BYTE   TIE  Gn3  v052
 BYTE   W96
//  #07 //088   ----------------------------------------
 BYTE   W56
 BYTE   W03
 BYTE   EOT
 BYTE   W01
 BYTE   N32  Fn3
 BYTE   W36
//  #07 //089   ----------------------------------------
 BYTE   TIE  Ds3
 BYTE   W96
//  #07 //090   ----------------------------------------
 BYTE   W92
 BYTE   W03
 BYTE   EOT
 BYTE   W01
//  #07 //091   ----------------------------------------
 BYTE   TIE  Cn3
 BYTE   W96
//  #07 //092   ----------------------------------------
 BYTE   W92
 BYTE   W03
 BYTE   EOT
 BYTE   W01
//  #07 //093   ----------------------------------------
 BYTE   PATT
  POIN2 Label_010061B7
//  #07 //094   ----------------------------------------
 BYTE   W60
 BYTE   N32  Fn3  v052
 BYTE   W36
//  #07 //095   ----------------------------------------
 BYTE   PATT
  POIN2 Label_010061C4
//  #07 //096   ----------------------------------------
 BYTE   W96
//  #07 //097   ----------------------------------------
 BYTE   PATT
  POIN2 Label_010061CF
//  #07 //098   ----------------------------------------
 BYTE   PATT
  POIN2 Label_010061E1
//  #07 //099   ----------------------------------------
 BYTE   PATT
  POIN2 Label_010061E1
//  #07 //100   ----------------------------------------
 BYTE   PATT
  POIN2 Label_010061E1
//  #07 //101   ----------------------------------------
 BYTE   PATT
  POIN2 Label_010061FC
//  #07 //102   ----------------------------------------
 BYTE   PATT
  POIN2 Label_0100620E
//  #07 //103   ----------------------------------------
 BYTE   PATT
  POIN2 Label_0100621C
//  #07 //104   ----------------------------------------
 BYTE   PATT
  POIN2 Label_01006225
//  #07 //105   ----------------------------------------
 BYTE   PATT
  POIN2 Label_010061CF
//  #07 //106   ----------------------------------------
 BYTE   PATT
  POIN2 Label_010061E1
//  #07 //107   ----------------------------------------
 BYTE   PATT
  POIN2 Label_010061E1
//  #07 //108   ----------------------------------------
 BYTE   PATT
  POIN2 Label_010061E1
//  #07 //109   ----------------------------------------
 BYTE   PATT
  POIN2 Label_01006244
//  #07 //110   ----------------------------------------
 BYTE   PATT
  POIN2 Label_01006252
//  #07 //111   ----------------------------------------
 BYTE   PATT
  POIN2 Label_0100625F
//  #07 //112   ----------------------------------------
 BYTE   PATT
  POIN2 Label_01006267
//  #07 //113   ----------------------------------------
 BYTE   PATT
  POIN2 Label_01006160
//  #07 //114   ----------------------------------------
 BYTE   PATT
  POIN2 Label_01006169
//  #07 //115   ----------------------------------------
 BYTE   PATT
  POIN2 Label_01006171
//  #07 //116   ----------------------------------------
 BYTE   PATT
  POIN2 Label_01006179
//  #07 //117   ----------------------------------------
 BYTE   PATT
  POIN2 Label_01006181
//  #07 //118   ----------------------------------------
 BYTE   PATT
  POIN2 Label_01006169
//  #07 //119   ----------------------------------------
 BYTE   PATT
  POIN2 Label_01006171
//  #07 //120   ----------------------------------------
 BYTE   W60
 BYTE   N32  An3  v080
 BYTE   W36
//  #07 //121   ----------------------------------------
 BYTE   W96
//  #07 //122   ----------------------------------------
 BYTE   W96
//  #07 //123   ----------------------------------------
 BYTE   W96
//  #07 //124   ----------------------------------------
 BYTE   W96
//  #07 //125   ----------------------------------------
 BYTE   W96
//  #07 //126   ----------------------------------------
 BYTE   W96
//  #07 //127   ----------------------------------------
 BYTE   W96
//  #07 //128   ----------------------------------------
 BYTE   W96
//  #07 //129   ----------------------------------------
 BYTE   W96
//  #07 //130   ----------------------------------------
 BYTE   W96
//  #07 //131   ----------------------------------------
 BYTE   W96
//  #07 //132   ----------------------------------------
 BYTE   W96
//  #07 //133   ----------------------------------------
 BYTE   W96
//  #07 //134   ----------------------------------------
 BYTE   W96
//  #07 //135   ----------------------------------------
 BYTE   W96
//  #07 //136   ----------------------------------------
 BYTE   W96
//  #07 //137   ----------------------------------------
 BYTE   PATT
  POIN2 Label_010061CF
//  #07 //138   ----------------------------------------
 BYTE   PATT
  POIN2 Label_010061E1
//  #07 //139   ----------------------------------------
 BYTE   PATT
  POIN2 Label_010061E1
//  #07 //140   ----------------------------------------
 BYTE   PATT
  POIN2 Label_010061E1
//  #07 //141   ----------------------------------------
 BYTE   PATT
  POIN2 Label_010061FC
//  #07 //142   ----------------------------------------
 BYTE   PATT
  POIN2 Label_0100620E
//  #07 //143   ----------------------------------------
 BYTE   PATT
  POIN2 Label_0100621C
//  #07 //144   ----------------------------------------
 BYTE   PATT
  POIN2 Label_01006225
//  #07 //145   ----------------------------------------
 BYTE   PATT
  POIN2 Label_010061CF
//  #07 //146   ----------------------------------------
 BYTE   PATT
  POIN2 Label_010061E1
//  #07 //147   ----------------------------------------
 BYTE   PATT
  POIN2 Label_010061E1
//  #07 //148   ----------------------------------------
 BYTE   PATT
  POIN2 Label_010061E1
//  #07 //149   ----------------------------------------
 BYTE   PATT
  POIN2 Label_01006244
//  #07 //150   ----------------------------------------
 BYTE   PATT
  POIN2 Label_01006252
//  #07 //151   ----------------------------------------
 BYTE   PATT
  POIN2 Label_0100625F
//  #07 //152   ----------------------------------------
 BYTE   PATT
  POIN2 Label_01006267
//  #07 //153   ----------------------------------------
 BYTE   PATT
  POIN2 Label_01006160
//  #07 //154   ----------------------------------------
 BYTE   PATT
  POIN2 Label_01006169
//  #07 //155   ----------------------------------------
 BYTE   PATT
  POIN2 Label_01006171
//  #07 //156   ----------------------------------------
 BYTE   PATT
  POIN2 Label_01006179
//  #07 //157   ----------------------------------------
 BYTE   PATT
  POIN2 Label_01006181
//  #07 //158   ----------------------------------------
 BYTE   PATT
  POIN2 Label_01006169
//  #07 //159   ----------------------------------------
 BYTE   PATT
  POIN2 Label_01006171
//  #07 //160   ----------------------------------------
 BYTE   W60
 BYTE   N32  An3  v080
 BYTE   W36
//  #07 //161   ----------------------------------------
 BYTE   GoTo
  POIN2 Label_010062C5
//  #07 //162   ----------------------------------------
 BYTE   PATT
  POIN2 Label_01006160
//  #07 //163   ----------------------------------------
 BYTE   PATT
  POIN2 Label_01006169
//  #07 //164   ----------------------------------------
 BYTE   PATT
  POIN2 Label_01006171
//  #07 //165   ----------------------------------------
 BYTE   PATT
  POIN2 Label_01006179
//  #07 //166   ----------------------------------------
 BYTE   PATT
  POIN2 Label_01006181
//  #07 //167   ----------------------------------------
 BYTE   PATT
  POIN2 Label_01006169
//  #07 //168   ----------------------------------------
 BYTE   PATT
  POIN2 Label_01006171
//  #07 //169   ----------------------------------------
 BYTE   W60
 BYTE   N32  An3  v080
 BYTE   W32
 BYTE   W03
 BYTE   FINE

//**************** Track 8 (Midi-Chn.7) ****************//

RiversInTheDesert_008:
//  #08 //000   ----------------------------------------
 BYTE   KEYSH   RiversInTheDesert_key+0
 BYTE   VOICE   104
 BYTE   VOL   24*RiversInTheDesert_mvl/mxv
 BYTE   PAN   c_v+0
 BYTE   W96
//  #08 //001   ----------------------------------------
 BYTE   W96
//  #08 //002   ----------------------------------------
 BYTE   W96
//  #08 //003   ----------------------------------------
 BYTE   W96
//  #08 //004   ----------------------------------------
 BYTE   W96
//  #08 //005   ----------------------------------------
 BYTE   W96
//  #08 //006   ----------------------------------------
 BYTE   W96
//  #08 //007   ----------------------------------------
 BYTE   W96
//  #08 //008   ----------------------------------------
 BYTE   W96
//  #08 //009   ----------------------------------------
 BYTE   W96
//  #08 //010   ----------------------------------------
 BYTE   W96
//  #08 //011   ----------------------------------------
 BYTE   W96
//  #08 //012   ----------------------------------------
 BYTE   W96
//  #08 //013   ----------------------------------------
 BYTE   W96
//  #08 //014   ----------------------------------------
 BYTE   W96
//  #08 //015   ----------------------------------------
 BYTE   W96
//  #08 //016   ----------------------------------------
 BYTE   W96
//  #08 //017   ----------------------------------------
 BYTE   W96
//  #08 //018   ----------------------------------------
 BYTE   W96
//  #08 //019   ----------------------------------------
 BYTE   W96
//  #08 //020   ----------------------------------------
 BYTE   W96
//  #08 //021   ----------------------------------------
 BYTE   W96
//  #08 //022   ----------------------------------------
 BYTE   W96
//  #08 //023   ----------------------------------------
 BYTE   W96
//  #08 //024   ----------------------------------------
Label_0100647C:
 BYTE   N11  Gn3  v080
 BYTE   W60
 BYTE   N05
 BYTE   W24
 BYTE   Fn3
 BYTE   W12
 BYTE   PEND 
//  #08 //025   ----------------------------------------
Label_01006485:
 BYTE   W60
 BYTE   N05  Fn3  v080
 BYTE   W24
 BYTE   En3
 BYTE   W12
 BYTE   PEND 
//  #08 //026   ----------------------------------------
Label_0100648D:
 BYTE   W60
 BYTE   N05  En3  v080
 BYTE   W24
 BYTE   Fn3
 BYTE   W12
 BYTE   PEND 
//  #08 //027   ----------------------------------------
Label_01006495:
 BYTE   W60
 BYTE   N05  Fn3  v080
 BYTE   W24
 BYTE   Gn3
 BYTE   W12
 BYTE   PEND 
//  #08 //028   ----------------------------------------
Label_0100649D:
 BYTE   W60
 BYTE   N05  Gn3  v080
 BYTE   W24
 BYTE   Fn3
 BYTE   W12
 BYTE   PEND 
//  #08 //029   ----------------------------------------
 BYTE   PATT
  POIN2 Label_01006485
//  #08 //030   ----------------------------------------
 BYTE   PATT
  POIN2 Label_0100648D
//  #08 //031   ----------------------------------------
 BYTE   W60
 BYTE   N32  Fn3  v080
 BYTE   W36
//  #08 //032   ----------------------------------------
 BYTE   W96
//  #08 //033   ----------------------------------------
 BYTE   W96
//  #08 //034   ----------------------------------------
 BYTE   W96
//  #08 //035   ----------------------------------------
 BYTE   W96
//  #08 //036   ----------------------------------------
 BYTE   W96
//  #08 //037   ----------------------------------------
 BYTE   W96
//  #08 //038   ----------------------------------------
 BYTE   TIE  As2  v052
 BYTE   W96
//  #08 //039   ----------------------------------------
 BYTE   W56
 BYTE   W03
 BYTE   EOT
 BYTE   W01
 BYTE   N32  An2
 BYTE   W36
//  #08 //040   ----------------------------------------
 BYTE   TIE  Gn2
 BYTE   W96
//  #08 //041   ----------------------------------------
 BYTE   W92
 BYTE   W03
 BYTE   EOT
 BYTE   W01
//  #08 //042   ----------------------------------------
 BYTE   TIE
 BYTE   W96
//  #08 //043   ----------------------------------------
 BYTE   W92
 BYTE   W03
 BYTE   EOT
 BYTE   W01
//  #08 //044   ----------------------------------------
Label_010064D2:
 BYTE   N56  As2  v052
 BYTE   W60
 BYTE   N11
 BYTE   W24
 BYTE   N68  An2
 BYTE   W12
 BYTE   PEND 
//  #08 //045   ----------------------------------------
 BYTE   W60
 BYTE   N32
 BYTE   W36
//  #08 //046   ----------------------------------------
Label_010064DF:
 BYTE   N56  As2  v052
 BYTE   W60
 BYTE   N11
 BYTE   W24
 BYTE   N56  An2
 BYTE   W12
 BYTE   PEND 
//  #08 //047   ----------------------------------------
 BYTE   W96
//  #08 //048   ----------------------------------------
Label_010064EA:
 BYTE   N11  Gn2  v080
 BYTE   W24
 BYTE   Gn3
 BYTE   W12
 BYTE   Fn3
 BYTE   W12
 BYTE   N05  Gn3
 BYTE   W12
 BYTE   Fn3
 BYTE   W12
 BYTE   Gn3
 BYTE   W12
 BYTE   Gn2
 BYTE   W12
 BYTE   PEND 
//  #08 //049   ----------------------------------------
Label_010064FC:
 BYTE   W24
 BYTE   N11  Gn3  v080
 BYTE   W12
 BYTE   Fn3
 BYTE   W12
 BYTE   N05  Gn3
 BYTE   W12
 BYTE   Fn3
 BYTE   W12
 BYTE   Gn3
 BYTE   W12
 BYTE   Gn2
 BYTE   W12
 BYTE   PEND 
//  #08 //050   ----------------------------------------
 BYTE   PATT
  POIN2 Label_010064FC
//  #08 //051   ----------------------------------------
 BYTE   PATT
  POIN2 Label_010064FC
//  #08 //052   ----------------------------------------
Label_01006517:
 BYTE   W24
 BYTE   N11  Gn3  v080
 BYTE   W12
 BYTE   Fn3
 BYTE   W12
 BYTE   Gn3
 BYTE   W12
 BYTE   An3
 BYTE   W12
 BYTE   N05  As3
 BYTE   W12
 BYTE   N56  An3
 BYTE   W12
 BYTE   PEND 
//  #08 //053   ----------------------------------------
Label_01006529:
 BYTE   W48
 BYTE   N11  An3  v080
 BYTE   W12
 BYTE   As3
 BYTE   W12
 BYTE   N05  Cn4
 BYTE   W12
 BYTE   N68  As3
 BYTE   W12
 BYTE   PEND 
//  #08 //054   ----------------------------------------
Label_01006537:
 BYTE   W60
 BYTE   N11  As3  v080
 BYTE   W12
 BYTE   Cn4
 BYTE   W12
 BYTE   N05  Dn4
 BYTE   W12
 BYTE   PEND 
//  #08 //055   ----------------------------------------
Label_01006542:
 BYTE   W12
 BYTE   N05  An3  v080
 BYTE   W24
 BYTE   Cn4
 BYTE   W24
 BYTE   N32  As3
 BYTE   W36
 BYTE   PEND 
//  #08 //056   ----------------------------------------
 BYTE   PATT
  POIN2 Label_010064EA
//  #08 //057   ----------------------------------------
 BYTE   PATT
  POIN2 Label_010064FC
//  #08 //058   ----------------------------------------
 BYTE   PATT
  POIN2 Label_010064FC
//  #08 //059   ----------------------------------------
 BYTE   PATT
  POIN2 Label_010064FC
//  #08 //060   ----------------------------------------
Label_01006561:
 BYTE   W24
 BYTE   N11  Gn3  v080
 BYTE   W12
 BYTE   Fn3
 BYTE   W12
 BYTE   Gn3
 BYTE   W12
 BYTE   An3
 BYTE   W12
 BYTE   As3
 BYTE   W24
 BYTE   PEND 
//  #08 //061   ----------------------------------------
Label_0100656F:
 BYTE   N32  An3  v080
 BYTE   W36
 BYTE   N11  Fn3
 BYTE   W24
 BYTE   N11
 BYTE   W24
 BYTE   N56  Gn3
 BYTE   W12
 BYTE   PEND 
//  #08 //062   ----------------------------------------
Label_0100657C:
 BYTE   W60
 BYTE   N11  As3  v080
 BYTE   W12
 BYTE   Cn4
 BYTE   W24
 BYTE   PEND 
//  #08 //063   ----------------------------------------
Label_01006584:
 BYTE   N11  Cs4  v080
 BYTE   W12
 BYTE   Cn4
 BYTE   W24
 BYTE   As3
 BYTE   W24
 BYTE   N32  Gn3
 BYTE   W36
 BYTE   PEND 
//  #08 //064   ----------------------------------------
 BYTE   Gn2
 BYTE   W36
 BYTE   N56  Gn3
 BYTE   W60
//  #08 //065   ----------------------------------------
 BYTE   N07  An3
 BYTE   W08
 BYTE   Fn3
 BYTE   W08
 BYTE   Cn3
 BYTE   W08
 BYTE   Cs3
 BYTE   W08
 BYTE   As2
 BYTE   W08
 BYTE   Gn2
 BYTE   W08
 BYTE   Gs2
 BYTE   W08
 BYTE   Fn2
 BYTE   W08
 BYTE   Cn2
 BYTE   W08
 BYTE   N11  Cs2
 BYTE   W12
 BYTE   N44  Dn2
 BYTE   W12
//  #08 //066   ----------------------------------------
 BYTE   W36
 BYTE   Dn3
 BYTE   W48
 BYTE   Cn3
 BYTE   W12
//  #08 //067   ----------------------------------------
 BYTE   W36
 BYTE   N23  As2
 BYTE   W24
 BYTE   An2
 BYTE   W24
 BYTE   N11  Dn3
 BYTE   W12
//  #08 //068   ----------------------------------------
 BYTE   W24
 BYTE   N68
 BYTE   W72
//  #08 //069   ----------------------------------------
 BYTE   N07  As2
 BYTE   W08
 BYTE   Cn3
 BYTE   W08
 BYTE   Cs3
 BYTE   W08
 BYTE   Fn3
 BYTE   W08
 BYTE   Cs3
 BYTE   W08
 BYTE   Fn3
 BYTE   W08
 BYTE   N11  Dn3
 BYTE   W18
 BYTE   Fn3
 BYTE   W18
 BYTE   N56  En3
 BYTE   W12
//  #08 //070   ----------------------------------------
 BYTE   W48
 BYTE   N11
 BYTE   W12
 BYTE   N11
 BYTE   W24
 BYTE   N56  Fn3
 BYTE   W12
//  #08 //071   ----------------------------------------
 BYTE   W48
 BYTE   N11
 BYTE   W24
 BYTE   N11
 BYTE   W24
//  #08 //072   ----------------------------------------
Label_010065E1:
//  #08 //073   ----------------------------------------
 BYTE   PATT
  POIN2 Label_0100647C
//  #08 //074   ----------------------------------------
 BYTE   PATT
  POIN2 Label_01006485
//  #08 //075   ----------------------------------------
 BYTE   PATT
  POIN2 Label_0100648D
//  #08 //076   ----------------------------------------
 BYTE   PATT
  POIN2 Label_01006495
//  #08 //077   ----------------------------------------
 BYTE   PATT
  POIN2 Label_0100649D
//  #08 //078   ----------------------------------------
 BYTE   PATT
  POIN2 Label_01006485
//  #08 //079   ----------------------------------------
 BYTE   PATT
  POIN2 Label_0100648D
//  #08 //080   ----------------------------------------
 BYTE   W60
 BYTE   N32  Fn3  v080
 BYTE   W36
//  #08 //081   ----------------------------------------
 BYTE   W96
//  #08 //082   ----------------------------------------
 BYTE   W96
//  #08 //083   ----------------------------------------
 BYTE   W96
//  #08 //084   ----------------------------------------
 BYTE   W96
//  #08 //085   ----------------------------------------
 BYTE   W96
//  #08 //086   ----------------------------------------
 BYTE   W96
//  #08 //087   ----------------------------------------
 BYTE   TIE  As2  v052
 BYTE   W96
//  #08 //088   ----------------------------------------
 BYTE   W56
 BYTE   W03
 BYTE   EOT
 BYTE   W01
 BYTE   N32  An2
 BYTE   W36
//  #08 //089   ----------------------------------------
 BYTE   TIE  Gn2
 BYTE   W96
//  #08 //090   ----------------------------------------
 BYTE   W92
 BYTE   W03
 BYTE   EOT
 BYTE   W01
//  #08 //091   ----------------------------------------
 BYTE   TIE
 BYTE   W96
//  #08 //092   ----------------------------------------
 BYTE   W92
 BYTE   W03
 BYTE   EOT
 BYTE   W01
//  #08 //093   ----------------------------------------
 BYTE   PATT
  POIN2 Label_010064D2
//  #08 //094   ----------------------------------------
 BYTE   W60
 BYTE   N32  An2  v052
 BYTE   W36
//  #08 //095   ----------------------------------------
 BYTE   PATT
  POIN2 Label_010064DF
//  #08 //096   ----------------------------------------
 BYTE   W96
//  #08 //097   ----------------------------------------
 BYTE   PATT
  POIN2 Label_010064EA
//  #08 //098   ----------------------------------------
 BYTE   PATT
  POIN2 Label_010064FC
//  #08 //099   ----------------------------------------
 BYTE   PATT
  POIN2 Label_010064FC
//  #08 //100   ----------------------------------------
 BYTE   PATT
  POIN2 Label_010064FC
//  #08 //101   ----------------------------------------
 BYTE   PATT
  POIN2 Label_01006517
//  #08 //102   ----------------------------------------
 BYTE   PATT
  POIN2 Label_01006529
//  #08 //103   ----------------------------------------
 BYTE   PATT
  POIN2 Label_01006537
//  #08 //104   ----------------------------------------
 BYTE   PATT
  POIN2 Label_01006542
//  #08 //105   ----------------------------------------
 BYTE   PATT
  POIN2 Label_010064EA
//  #08 //106   ----------------------------------------
 BYTE   PATT
  POIN2 Label_010064FC
//  #08 //107   ----------------------------------------
 BYTE   PATT
  POIN2 Label_010064FC
//  #08 //108   ----------------------------------------
 BYTE   PATT
  POIN2 Label_010064FC
//  #08 //109   ----------------------------------------
 BYTE   PATT
  POIN2 Label_01006561
//  #08 //110   ----------------------------------------
 BYTE   PATT
  POIN2 Label_0100656F
//  #08 //111   ----------------------------------------
 BYTE   PATT
  POIN2 Label_0100657C
//  #08 //112   ----------------------------------------
 BYTE   PATT
  POIN2 Label_01006584
//  #08 //113   ----------------------------------------
 BYTE   PATT
  POIN2 Label_0100647C
//  #08 //114   ----------------------------------------
 BYTE   PATT
  POIN2 Label_01006485
//  #08 //115   ----------------------------------------
 BYTE   PATT
  POIN2 Label_0100648D
//  #08 //116   ----------------------------------------
 BYTE   PATT
  POIN2 Label_01006495
//  #08 //117   ----------------------------------------
 BYTE   PATT
  POIN2 Label_0100649D
//  #08 //118   ----------------------------------------
 BYTE   PATT
  POIN2 Label_01006485
//  #08 //119   ----------------------------------------
 BYTE   PATT
  POIN2 Label_0100648D
//  #08 //120   ----------------------------------------
 BYTE   W60
 BYTE   N32  Fn3  v080
 BYTE   W36
//  #08 //121   ----------------------------------------
 BYTE   W96
//  #08 //122   ----------------------------------------
 BYTE   W96
//  #08 //123   ----------------------------------------
 BYTE   W96
//  #08 //124   ----------------------------------------
 BYTE   W96
//  #08 //125   ----------------------------------------
 BYTE   W96
//  #08 //126   ----------------------------------------
 BYTE   W96
//  #08 //127   ----------------------------------------
 BYTE   W96
//  #08 //128   ----------------------------------------
 BYTE   W96
//  #08 //129   ----------------------------------------
 BYTE   W96
//  #08 //130   ----------------------------------------
 BYTE   W96
//  #08 //131   ----------------------------------------
 BYTE   W96
//  #08 //132   ----------------------------------------
 BYTE   W96
//  #08 //133   ----------------------------------------
 BYTE   W96
//  #08 //134   ----------------------------------------
 BYTE   W96
//  #08 //135   ----------------------------------------
 BYTE   W96
//  #08 //136   ----------------------------------------
 BYTE   W96
//  #08 //137   ----------------------------------------
 BYTE   PATT
  POIN2 Label_010064EA
//  #08 //138   ----------------------------------------
 BYTE   PATT
  POIN2 Label_010064FC
//  #08 //139   ----------------------------------------
 BYTE   PATT
  POIN2 Label_010064FC
//  #08 //140   ----------------------------------------
 BYTE   PATT
  POIN2 Label_010064FC
//  #08 //141   ----------------------------------------
 BYTE   PATT
  POIN2 Label_01006517
//  #08 //142   ----------------------------------------
 BYTE   PATT
  POIN2 Label_01006529
//  #08 //143   ----------------------------------------
 BYTE   PATT
  POIN2 Label_01006537
//  #08 //144   ----------------------------------------
 BYTE   PATT
  POIN2 Label_01006542
//  #08 //145   ----------------------------------------
 BYTE   PATT
  POIN2 Label_010064EA
//  #08 //146   ----------------------------------------
 BYTE   PATT
  POIN2 Label_010064FC
//  #08 //147   ----------------------------------------
 BYTE   PATT
  POIN2 Label_010064FC
//  #08 //148   ----------------------------------------
 BYTE   PATT
  POIN2 Label_010064FC
//  #08 //149   ----------------------------------------
 BYTE   PATT
  POIN2 Label_01006561
//  #08 //150   ----------------------------------------
 BYTE   PATT
  POIN2 Label_0100656F
//  #08 //151   ----------------------------------------
 BYTE   PATT
  POIN2 Label_0100657C
//  #08 //152   ----------------------------------------
 BYTE   PATT
  POIN2 Label_01006584
//  #08 //153   ----------------------------------------
 BYTE   PATT
  POIN2 Label_0100647C
//  #08 //154   ----------------------------------------
 BYTE   PATT
  POIN2 Label_01006485
//  #08 //155   ----------------------------------------
 BYTE   PATT
  POIN2 Label_0100648D
//  #08 //156   ----------------------------------------
 BYTE   PATT
  POIN2 Label_01006495
//  #08 //157   ----------------------------------------
 BYTE   PATT
  POIN2 Label_0100649D
//  #08 //158   ----------------------------------------
 BYTE   PATT
  POIN2 Label_01006485
//  #08 //159   ----------------------------------------
 BYTE   PATT
  POIN2 Label_0100648D
//  #08 //160   ----------------------------------------
 BYTE   W60
 BYTE   N32  Fn3  v080
 BYTE   W36
//  #08 //161   ----------------------------------------
 BYTE   GoTo
  POIN2 Label_010065E1
//  #08 //162   ----------------------------------------
 BYTE   PATT
  POIN2 Label_0100647C
//  #08 //163   ----------------------------------------
 BYTE   PATT
  POIN2 Label_01006485
//  #08 //164   ----------------------------------------
 BYTE   PATT
  POIN2 Label_0100648D
//  #08 //165   ----------------------------------------
 BYTE   PATT
  POIN2 Label_01006495
//  #08 //166   ----------------------------------------
 BYTE   PATT
  POIN2 Label_0100649D
//  #08 //167   ----------------------------------------
 BYTE   PATT
  POIN2 Label_01006485
//  #08 //168   ----------------------------------------
 BYTE   PATT
  POIN2 Label_0100648D
//  #08 //169   ----------------------------------------
 BYTE   W60
 BYTE   N32  Fn3  v080
 BYTE   W32
 BYTE   W03
 BYTE   FINE

//**************** Track 9 (Midi-Chn.8) ****************//

RiversInTheDesert_009:
//  #09 //000   ----------------------------------------
 BYTE   KEYSH   RiversInTheDesert_key+0
 BYTE   VOICE   104
 BYTE   VOL   18*RiversInTheDesert_mvl/mxv
 BYTE   PAN   c_v+0
 BYTE   W96
//  #09 //001   ----------------------------------------
 BYTE   W96
//  #09 //002   ----------------------------------------
 BYTE   W96
//  #09 //003   ----------------------------------------
 BYTE   W96
//  #09 //004   ----------------------------------------
 BYTE   W96
//  #09 //005   ----------------------------------------
 BYTE   W96
//  #09 //006   ----------------------------------------
 BYTE   W96
//  #09 //007   ----------------------------------------
 BYTE   W96
//  #09 //008   ----------------------------------------
 BYTE   W96
//  #09 //009   ----------------------------------------
 BYTE   W96
//  #09 //010   ----------------------------------------
 BYTE   W96
//  #09 //011   ----------------------------------------
 BYTE   W96
//  #09 //012   ----------------------------------------
 BYTE   W96
//  #09 //013   ----------------------------------------
 BYTE   W96
//  #09 //014   ----------------------------------------
 BYTE   W96
//  #09 //015   ----------------------------------------
 BYTE   W96
//  #09 //016   ----------------------------------------
 BYTE   W96
//  #09 //017   ----------------------------------------
 BYTE   W96
//  #09 //018   ----------------------------------------
 BYTE   W96
//  #09 //019   ----------------------------------------
 BYTE   W96
//  #09 //020   ----------------------------------------
 BYTE   W96
//  #09 //021   ----------------------------------------
 BYTE   W96
//  #09 //022   ----------------------------------------
 BYTE   W96
//  #09 //023   ----------------------------------------
 BYTE   W96
//  #09 //024   ----------------------------------------
Label_01006798:
 BYTE   N23  Gn1  v080
 BYTE   W24
 BYTE   N05  Gn2
 BYTE   W12
 BYTE   Gn1
 BYTE   W12
 BYTE   N05
 BYTE   W12
 BYTE   N23
 BYTE   W24
 BYTE   N32  Fn1
 BYTE   W12
 BYTE   PEND 
//  #09 //025   ----------------------------------------
Label_010067A9:
 BYTE   W24
 BYTE   N05  Fn2  v080
 BYTE   W12
 BYTE   Fn1
 BYTE   W12
 BYTE   N05
 BYTE   W12
 BYTE   N23
 BYTE   W24
 BYTE   N32  En1
 BYTE   W12
 BYTE   PEND 
//  #09 //026   ----------------------------------------
Label_010067B8:
 BYTE   W24
 BYTE   N05  En2  v080
 BYTE   W12
 BYTE   En1
 BYTE   W12
 BYTE   N05
 BYTE   W12
 BYTE   N23
 BYTE   W24
 BYTE   N32  Fn1
 BYTE   W12
 BYTE   PEND 
//  #09 //027   ----------------------------------------
Label_010067C7:
 BYTE   W24
 BYTE   N05  Fn2  v080
 BYTE   W12
 BYTE   Fn1
 BYTE   W12
 BYTE   N05
 BYTE   W12
 BYTE   N23
 BYTE   W24
 BYTE   N32  Gn1
 BYTE   W12
 BYTE   PEND 
//  #09 //028   ----------------------------------------
Label_010067D6:
 BYTE   W24
 BYTE   N05  Gn2  v080
 BYTE   W12
 BYTE   Gn1
 BYTE   W12
 BYTE   N05
 BYTE   W12
 BYTE   N23
 BYTE   W24
 BYTE   N32  Fn1
 BYTE   W12
 BYTE   PEND 
//  #09 //029   ----------------------------------------
 BYTE   PATT
  POIN2 Label_010067A9
//  #09 //030   ----------------------------------------
 BYTE   PATT
  POIN2 Label_010067B8
//  #09 //031   ----------------------------------------
Label_010067EF:
 BYTE   W24
 BYTE   N05  Fn2  v080
 BYTE   W12
 BYTE   Fn1
 BYTE   W12
 BYTE   N05
 BYTE   W12
 BYTE   N32
 BYTE   W36
 BYTE   PEND 
//  #09 //032   ----------------------------------------
 BYTE   W96
//  #09 //033   ----------------------------------------
 BYTE   W96
//  #09 //034   ----------------------------------------
 BYTE   W96
//  #09 //035   ----------------------------------------
 BYTE   W96
//  #09 //036   ----------------------------------------
 BYTE   W96
//  #09 //037   ----------------------------------------
 BYTE   W96
//  #09 //038   ----------------------------------------
 BYTE   TIE  Gn1  v052
 BYTE   W96
//  #09 //039   ----------------------------------------
 BYTE   W56
 BYTE   W03
 BYTE   EOT
 BYTE   W01
 BYTE   N32  Fn1
 BYTE   W36
//  #09 //040   ----------------------------------------
 BYTE   TIE  Ds1
 BYTE   W96
//  #09 //041   ----------------------------------------
 BYTE   W92
 BYTE   W03
 BYTE   EOT
 BYTE   W01
//  #09 //042   ----------------------------------------
 BYTE   TIE  Cn1
 BYTE   W96
//  #09 //043   ----------------------------------------
 BYTE   W56
 BYTE   W03
 BYTE   EOT
 BYTE   W01
 BYTE   N32  Dn1
 BYTE   W36
//  #09 //044   ----------------------------------------
Label_0100681D:
 BYTE   N56  Gn1  v052
 BYTE   W60
 BYTE   N11
 BYTE   W24
 BYTE   N68  Fn1
 BYTE   W12
 BYTE   PEND 
//  #09 //045   ----------------------------------------
 BYTE   W60
 BYTE   N32
 BYTE   W36
//  #09 //046   ----------------------------------------
Label_0100682A:
 BYTE   N56  Gn1  v052
 BYTE   W60
 BYTE   N11
 BYTE   W24
 BYTE   N56  Fn1
 BYTE   W12
 BYTE   PEND 
//  #09 //047   ----------------------------------------
 BYTE   W96
//  #09 //048   ----------------------------------------
 BYTE   PATT
  POIN2 Label_01006798
//  #09 //049   ----------------------------------------
 BYTE   PATT
  POIN2 Label_010067A9
//  #09 //050   ----------------------------------------
 BYTE   PATT
  POIN2 Label_010067B8
//  #09 //051   ----------------------------------------
Label_01006844:
 BYTE   W24
 BYTE   N05  Fn2  v080
 BYTE   W12
 BYTE   Fn1
 BYTE   W12
 BYTE   N05
 BYTE   W12
 BYTE   N23
 BYTE   W24
 BYTE   N32  Cn1
 BYTE   W12
 BYTE   PEND 
//  #09 //052   ----------------------------------------
Label_01006853:
 BYTE   W24
 BYTE   N05  Cn2  v080
 BYTE   W12
 BYTE   Cn1
 BYTE   W12
 BYTE   N05
 BYTE   W12
 BYTE   N23
 BYTE   W24
 BYTE   N32  Dn1
 BYTE   W12
 BYTE   PEND 
//  #09 //053   ----------------------------------------
Label_01006862:
 BYTE   W24
 BYTE   N05  Dn2  v080
 BYTE   W12
 BYTE   Dn1
 BYTE   W12
 BYTE   N05
 BYTE   W12
 BYTE   N23
 BYTE   W24
 BYTE   N32  En1
 BYTE   W12
 BYTE   PEND 
//  #09 //054   ----------------------------------------
 BYTE   PATT
  POIN2 Label_010067B8
//  #09 //055   ----------------------------------------
 BYTE   PATT
  POIN2 Label_010067EF
//  #09 //056   ----------------------------------------
 BYTE   PATT
  POIN2 Label_01006798
//  #09 //057   ----------------------------------------
 BYTE   PATT
  POIN2 Label_010067A9
//  #09 //058   ----------------------------------------
 BYTE   PATT
  POIN2 Label_010067B8
//  #09 //059   ----------------------------------------
 BYTE   PATT
  POIN2 Label_010067EF
//  #09 //060   ----------------------------------------
Label_0100688F:
 BYTE   N23  Cn1  v080
 BYTE   W24
 BYTE   N05  Cn2
 BYTE   W12
 BYTE   Cn1
 BYTE   W12
 BYTE   N05
 BYTE   W12
 BYTE   N23
 BYTE   W24
 BYTE   N32  Dn1
 BYTE   W12
 BYTE   PEND 
//  #09 //061   ----------------------------------------
 BYTE   PATT
  POIN2 Label_01006862
//  #09 //062   ----------------------------------------
 BYTE   PATT
  POIN2 Label_010067B8
//  #09 //063   ----------------------------------------
 BYTE   PATT
  POIN2 Label_010067EF
//  #09 //064   ----------------------------------------
 BYTE   PATT
  POIN2 Label_01006798
//  #09 //065   ----------------------------------------
 BYTE   PATT
  POIN2 Label_010067A9
//  #09 //066   ----------------------------------------
 BYTE   PATT
  POIN2 Label_010067B8
//  #09 //067   ----------------------------------------
 BYTE   PATT
  POIN2 Label_010067C7
//  #09 //068   ----------------------------------------
 BYTE   PATT
  POIN2 Label_010067D6
//  #09 //069   ----------------------------------------
 BYTE   PATT
  POIN2 Label_010067A9
//  #09 //070   ----------------------------------------
 BYTE   PATT
  POIN2 Label_010067B8
//  #09 //071   ----------------------------------------
 BYTE   PATT
  POIN2 Label_010067EF
//  #09 //072   ----------------------------------------
Label_010068D7:
//  #09 //073   ----------------------------------------
 BYTE   PATT
  POIN2 Label_01006798
//  #09 //074   ----------------------------------------
 BYTE   PATT
  POIN2 Label_010067A9
//  #09 //075   ----------------------------------------
 BYTE   PATT
  POIN2 Label_010067B8
//  #09 //076   ----------------------------------------
 BYTE   PATT
  POIN2 Label_010067C7
//  #09 //077   ----------------------------------------
 BYTE   PATT
  POIN2 Label_010067D6
//  #09 //078   ----------------------------------------
 BYTE   PATT
  POIN2 Label_010067A9
//  #09 //079   ----------------------------------------
 BYTE   PATT
  POIN2 Label_010067B8
//  #09 //080   ----------------------------------------
 BYTE   PATT
  POIN2 Label_010067EF
//  #09 //081   ----------------------------------------
 BYTE   W96
//  #09 //082   ----------------------------------------
 BYTE   W96
//  #09 //083   ----------------------------------------
 BYTE   W96
//  #09 //084   ----------------------------------------
 BYTE   W96
//  #09 //085   ----------------------------------------
 BYTE   W96
//  #09 //086   ----------------------------------------
 BYTE   W96
//  #09 //087   ----------------------------------------
 BYTE   TIE  Gn1  v052
 BYTE   W96
//  #09 //088   ----------------------------------------
 BYTE   W56
 BYTE   W03
 BYTE   EOT
 BYTE   W01
 BYTE   N32  Fn1
 BYTE   W36
//  #09 //089   ----------------------------------------
 BYTE   TIE  Ds1
 BYTE   W96
//  #09 //090   ----------------------------------------
 BYTE   W92
 BYTE   W03
 BYTE   EOT
 BYTE   W01
//  #09 //091   ----------------------------------------
 BYTE   TIE  Cn1
 BYTE   W96
//  #09 //092   ----------------------------------------
 BYTE   W56
 BYTE   W03
 BYTE   EOT
 BYTE   W01
 BYTE   N32  Dn1
 BYTE   W36
//  #09 //093   ----------------------------------------
 BYTE   PATT
  POIN2 Label_0100681D
//  #09 //094   ----------------------------------------
 BYTE   W60
 BYTE   N32  Fn1  v052
 BYTE   W36
//  #09 //095   ----------------------------------------
 BYTE   PATT
  POIN2 Label_0100682A
//  #09 //096   ----------------------------------------
 BYTE   W96
//  #09 //097   ----------------------------------------
 BYTE   PATT
  POIN2 Label_01006798
//  #09 //098   ----------------------------------------
 BYTE   PATT
  POIN2 Label_010067A9
//  #09 //099   ----------------------------------------
 BYTE   PATT
  POIN2 Label_010067B8
//  #09 //100   ----------------------------------------
 BYTE   PATT
  POIN2 Label_01006844
//  #09 //101   ----------------------------------------
 BYTE   PATT
  POIN2 Label_01006853
//  #09 //102   ----------------------------------------
 BYTE   PATT
  POIN2 Label_01006862
//  #09 //103   ----------------------------------------
 BYTE   PATT
  POIN2 Label_010067B8
//  #09 //104   ----------------------------------------
 BYTE   PATT
  POIN2 Label_010067EF
//  #09 //105   ----------------------------------------
 BYTE   PATT
  POIN2 Label_01006798
//  #09 //106   ----------------------------------------
 BYTE   PATT
  POIN2 Label_010067A9
//  #09 //107   ----------------------------------------
 BYTE   PATT
  POIN2 Label_010067B8
//  #09 //108   ----------------------------------------
 BYTE   PATT
  POIN2 Label_010067EF
//  #09 //109   ----------------------------------------
 BYTE   PATT
  POIN2 Label_0100688F
//  #09 //110   ----------------------------------------
 BYTE   PATT
  POIN2 Label_01006862
//  #09 //111   ----------------------------------------
 BYTE   PATT
  POIN2 Label_010067B8
//  #09 //112   ----------------------------------------
 BYTE   PATT
  POIN2 Label_010067EF
//  #09 //113   ----------------------------------------
 BYTE   PATT
  POIN2 Label_01006798
//  #09 //114   ----------------------------------------
 BYTE   PATT
  POIN2 Label_010067A9
//  #09 //115   ----------------------------------------
 BYTE   PATT
  POIN2 Label_010067B8
//  #09 //116   ----------------------------------------
 BYTE   PATT
  POIN2 Label_010067C7
//  #09 //117   ----------------------------------------
 BYTE   PATT
  POIN2 Label_010067D6
//  #09 //118   ----------------------------------------
 BYTE   PATT
  POIN2 Label_010067A9
//  #09 //119   ----------------------------------------
 BYTE   PATT
  POIN2 Label_010067B8
//  #09 //120   ----------------------------------------
 BYTE   PATT
  POIN2 Label_010067EF
//  #09 //121   ----------------------------------------
 BYTE   TIE  Ds1  v052
 BYTE   W96
//  #09 //122   ----------------------------------------
 BYTE   W92
 BYTE   W03
 BYTE   EOT
 BYTE   W01
//  #09 //123   ----------------------------------------
 BYTE   TIE  Gn1
 BYTE   W96
//  #09 //124   ----------------------------------------
 BYTE   W92
 BYTE   W03
 BYTE   EOT
 BYTE   W01
//  #09 //125   ----------------------------------------
 BYTE   TIE  Ds1
 BYTE   W96
//  #09 //126   ----------------------------------------
 BYTE   W92
 BYTE   W03
 BYTE   EOT
 BYTE   W01
//  #09 //127   ----------------------------------------
 BYTE   TIE  As1
 BYTE   W96
//  #09 //128   ----------------------------------------
 BYTE   W92
 BYTE   W03
 BYTE   EOT
 BYTE   W01
//  #09 //129   ----------------------------------------
 BYTE   TIE  Cn2
 BYTE   W96
//  #09 //130   ----------------------------------------
 BYTE   W92
 BYTE   W03
 BYTE   EOT
 BYTE   W01
//  #09 //131   ----------------------------------------
 BYTE   TIE  Dn2
 BYTE   W96
//  #09 //132   ----------------------------------------
 BYTE   W92
 BYTE   W03
 BYTE   EOT
 BYTE   W01
//  #09 //133   ----------------------------------------
 BYTE   TIE  Ds2
 BYTE   W96
//  #09 //134   ----------------------------------------
 BYTE   W92
 BYTE   W03
 BYTE   EOT
 BYTE   W01
//  #09 //135   ----------------------------------------
 BYTE   N92  Fn1
 BYTE   W96
//  #09 //136   ----------------------------------------
 BYTE   W96
//  #09 //137   ----------------------------------------
 BYTE   PATT
  POIN2 Label_01006798
//  #09 //138   ----------------------------------------
 BYTE   PATT
  POIN2 Label_010067A9
//  #09 //139   ----------------------------------------
 BYTE   PATT
  POIN2 Label_010067B8
//  #09 //140   ----------------------------------------
 BYTE   PATT
  POIN2 Label_01006844
//  #09 //141   ----------------------------------------
 BYTE   PATT
  POIN2 Label_01006853
//  #09 //142   ----------------------------------------
 BYTE   PATT
  POIN2 Label_01006862
//  #09 //143   ----------------------------------------
 BYTE   PATT
  POIN2 Label_010067B8
//  #09 //144   ----------------------------------------
 BYTE   PATT
  POIN2 Label_010067EF
//  #09 //145   ----------------------------------------
 BYTE   PATT
  POIN2 Label_01006798
//  #09 //146   ----------------------------------------
 BYTE   PATT
  POIN2 Label_010067A9
//  #09 //147   ----------------------------------------
 BYTE   PATT
  POIN2 Label_010067B8
//  #09 //148   ----------------------------------------
 BYTE   PATT
  POIN2 Label_01006844
//  #09 //149   ----------------------------------------
 BYTE   PATT
  POIN2 Label_01006853
//  #09 //150   ----------------------------------------
 BYTE   PATT
  POIN2 Label_01006862
//  #09 //151   ----------------------------------------
 BYTE   PATT
  POIN2 Label_010067B8
//  #09 //152   ----------------------------------------
 BYTE   PATT
  POIN2 Label_010067EF
//  #09 //153   ----------------------------------------
 BYTE   PATT
  POIN2 Label_01006798
//  #09 //154   ----------------------------------------
 BYTE   PATT
  POIN2 Label_010067A9
//  #09 //155   ----------------------------------------
 BYTE   PATT
  POIN2 Label_010067B8
//  #09 //156   ----------------------------------------
 BYTE   PATT
  POIN2 Label_010067C7
//  #09 //157   ----------------------------------------
 BYTE   PATT
  POIN2 Label_010067D6
//  #09 //158   ----------------------------------------
 BYTE   PATT
  POIN2 Label_010067A9
//  #09 //159   ----------------------------------------
 BYTE   PATT
  POIN2 Label_010067B8
//  #09 //160   ----------------------------------------
 BYTE   PATT
  POIN2 Label_010067EF
//  #09 //161   ----------------------------------------
 BYTE   GoTo
  POIN2 Label_010068D7
//  #09 //162   ----------------------------------------
 BYTE   PATT
  POIN2 Label_01006798
//  #09 //163   ----------------------------------------
 BYTE   PATT
  POIN2 Label_010067A9
//  #09 //164   ----------------------------------------
 BYTE   PATT
  POIN2 Label_010067B8
//  #09 //165   ----------------------------------------
 BYTE   PATT
  POIN2 Label_010067C7
//  #09 //166   ----------------------------------------
 BYTE   PATT
  POIN2 Label_010067D6
//  #09 //167   ----------------------------------------
 BYTE   PATT
  POIN2 Label_010067A9
//  #09 //168   ----------------------------------------
 BYTE   PATT
  POIN2 Label_010067B8
//  #09 //169   ----------------------------------------
 BYTE   W24
 BYTE   N05  Fn2  v080
 BYTE   W12
 BYTE   Fn1
 BYTE   W12
 BYTE   N05
 BYTE   W12
 BYTE   N32
 BYTE   W32
 BYTE   W03
 BYTE   FINE

//**************** Track 10 (Midi-Chn.9) ****************//

RiversInTheDesert_010:
//  #10 //000   ----------------------------------------
 BYTE   KEYSH   RiversInTheDesert_key+0
 BYTE   VOICE   124
 BYTE   VOL   36*RiversInTheDesert_mvl/mxv
 BYTE   PAN   c_v+0
 BYTE   W96
//  #10 //001   ----------------------------------------
 BYTE   W96
//  #10 //002   ----------------------------------------
 BYTE   W96
//  #10 //003   ----------------------------------------
 BYTE   W96
//  #10 //004   ----------------------------------------
 BYTE   W96
//  #10 //005   ----------------------------------------
 BYTE   W96
//  #10 //006   ----------------------------------------
 BYTE   W96
//  #10 //007   ----------------------------------------
 BYTE   W96
//  #10 //008   ----------------------------------------
Label_01006AAC:
 BYTE   N11  Cn1  v052
 BYTE   N11  Fs1
 BYTE   W12
 BYTE   N11
 BYTE   W12
 BYTE   Cn1
 BYTE   N11  Fs1
 BYTE   W12
 BYTE   N11
 BYTE   W12
 BYTE   Cn1
 BYTE   N11  Fs1
 BYTE   W12
 BYTE   N11
 BYTE   W12
 BYTE   Cn1
 BYTE   N11  Fs1
 BYTE   W12
 BYTE   N11
 BYTE   W12
 BYTE   PEND 
//  #10 //009   ----------------------------------------
 BYTE   PATT
  POIN2 Label_01006AAC
//  #10 //010   ----------------------------------------
 BYTE   PATT
  POIN2 Label_01006AAC
//  #10 //011   ----------------------------------------
 BYTE   PATT
  POIN2 Label_01006AAC
//  #10 //012   ----------------------------------------
 BYTE   PATT
  POIN2 Label_01006AAC
//  #10 //013   ----------------------------------------
 BYTE   PATT
  POIN2 Label_01006AAC
//  #10 //014   ----------------------------------------
 BYTE   PATT
  POIN2 Label_01006AAC
//  #10 //015   ----------------------------------------
 BYTE   PATT
  POIN2 Label_01006AAC
//  #10 //016   ----------------------------------------
 BYTE   PATT
  POIN2 Label_01006AAC
//  #10 //017   ----------------------------------------
 BYTE   PATT
  POIN2 Label_01006AAC
//  #10 //018   ----------------------------------------
 BYTE   PATT
  POIN2 Label_01006AAC
//  #10 //019   ----------------------------------------
 BYTE   PATT
  POIN2 Label_01006AAC
//  #10 //020   ----------------------------------------
 BYTE   PATT
  POIN2 Label_01006AAC
//  #10 //021   ----------------------------------------
 BYTE   PATT
  POIN2 Label_01006AAC
//  #10 //022   ----------------------------------------
 BYTE   PATT
  POIN2 Label_01006AAC
//  #10 //023   ----------------------------------------
 BYTE   PATT
  POIN2 Label_01006AAC
//  #10 //024   ----------------------------------------
Label_01006B12:
 BYTE   N11  Cn1  v096
 BYTE   N11  Fs1
 BYTE   N11  Cs2
 BYTE   W12
 BYTE   Fs1
 BYTE   W12
 BYTE   Dn1
 BYTE   N11  Fs1
 BYTE   W12
 BYTE   N11
 BYTE   W12
 BYTE   Cn1
 BYTE   N11  Fs1
 BYTE   W12
 BYTE   N11
 BYTE   W12
 BYTE   Dn1
 BYTE   N11  Fs1
 BYTE   W12
 BYTE   N05
 BYTE   W06
 BYTE   N05
 BYTE   W06
 BYTE   PEND 
//  #10 //025   ----------------------------------------
Label_01006B31:
 BYTE   N11  Cn1  v096
 BYTE   N11  Fs1
 BYTE   W12
 BYTE   N11
 BYTE   W12
 BYTE   Dn1
 BYTE   N11  Fs1
 BYTE   W12
 BYTE   N11
 BYTE   W12
 BYTE   Cn1
 BYTE   N11  Fs1
 BYTE   W12
 BYTE   N11
 BYTE   W12
 BYTE   Dn1
 BYTE   N11  Fs1
 BYTE   W12
 BYTE   N05
 BYTE   W06
 BYTE   N05
 BYTE   W06
 BYTE   PEND 
//  #10 //026   ----------------------------------------
 BYTE   PATT
  POIN2 Label_01006B31
//  #10 //027   ----------------------------------------
 BYTE   PATT
  POIN2 Label_01006B31
//  #10 //028   ----------------------------------------
 BYTE   PATT
  POIN2 Label_01006B31
//  #10 //029   ----------------------------------------
 BYTE   PATT
  POIN2 Label_01006B31
//  #10 //030   ----------------------------------------
 BYTE   PATT
  POIN2 Label_01006B31
//  #10 //031   ----------------------------------------
 BYTE   PATT
  POIN2 Label_01006B31
//  #10 //032   ----------------------------------------
 BYTE   PATT
  POIN2 Label_01006AAC
//  #10 //033   ----------------------------------------
 BYTE   PATT
  POIN2 Label_01006AAC
//  #10 //034   ----------------------------------------
 BYTE   PATT
  POIN2 Label_01006AAC
//  #10 //035   ----------------------------------------
 BYTE   PATT
  POIN2 Label_01006AAC
//  #10 //036   ----------------------------------------
 BYTE   PATT
  POIN2 Label_01006AAC
//  #10 //037   ----------------------------------------
 BYTE   PATT
  POIN2 Label_01006AAC
//  #10 //038   ----------------------------------------
 BYTE   PATT
  POIN2 Label_01006AAC
//  #10 //039   ----------------------------------------
 BYTE   PATT
  POIN2 Label_01006AAC
//  #10 //040   ----------------------------------------
 BYTE   PATT
  POIN2 Label_01006AAC
//  #10 //041   ----------------------------------------
 BYTE   PATT
  POIN2 Label_01006AAC
//  #10 //042   ----------------------------------------
 BYTE   PATT
  POIN2 Label_01006AAC
//  #10 //043   ----------------------------------------
 BYTE   PATT
  POIN2 Label_01006AAC
//  #10 //044   ----------------------------------------
 BYTE   PATT
  POIN2 Label_01006AAC
//  #10 //045   ----------------------------------------
 BYTE   PATT
  POIN2 Label_01006AAC
//  #10 //046   ----------------------------------------
 BYTE   PATT
  POIN2 Label_01006AAC
//  #10 //047   ----------------------------------------
 BYTE   PATT
  POIN2 Label_01006AAC
//  #10 //048   ----------------------------------------
 BYTE   PATT
  POIN2 Label_01006B12
//  #10 //049   ----------------------------------------
 BYTE   PATT
  POIN2 Label_01006B31
//  #10 //050   ----------------------------------------
 BYTE   PATT
  POIN2 Label_01006B31
//  #10 //051   ----------------------------------------
 BYTE   PATT
  POIN2 Label_01006B31
//  #10 //052   ----------------------------------------
 BYTE   PATT
  POIN2 Label_01006B31
//  #10 //053   ----------------------------------------
 BYTE   PATT
  POIN2 Label_01006B31
//  #10 //054   ----------------------------------------
 BYTE   PATT
  POIN2 Label_01006B31
//  #10 //055   ----------------------------------------
 BYTE   PATT
  POIN2 Label_01006B31
//  #10 //056   ----------------------------------------
 BYTE   PATT
  POIN2 Label_01006B12
//  #10 //057   ----------------------------------------
 BYTE   PATT
  POIN2 Label_01006B31
//  #10 //058   ----------------------------------------
 BYTE   PATT
  POIN2 Label_01006B31
//  #10 //059   ----------------------------------------
 BYTE   PATT
  POIN2 Label_01006B31
//  #10 //060   ----------------------------------------
 BYTE   PATT
  POIN2 Label_01006B31
//  #10 //061   ----------------------------------------
 BYTE   PATT
  POIN2 Label_01006B31
//  #10 //062   ----------------------------------------
 BYTE   PATT
  POIN2 Label_01006B31
//  #10 //063   ----------------------------------------
 BYTE   PATT
  POIN2 Label_01006B31
//  #10 //064   ----------------------------------------
 BYTE   PATT
  POIN2 Label_01006B12
//  #10 //065   ----------------------------------------
 BYTE   PATT
  POIN2 Label_01006B31
//  #10 //066   ----------------------------------------
 BYTE   PATT
  POIN2 Label_01006B31
//  #10 //067   ----------------------------------------
 BYTE   PATT
  POIN2 Label_01006B31
//  #10 //068   ----------------------------------------
 BYTE   PATT
  POIN2 Label_01006B31
//  #10 //069   ----------------------------------------
 BYTE   PATT
  POIN2 Label_01006B31
//  #10 //070   ----------------------------------------
 BYTE   PATT
  POIN2 Label_01006B31
//  #10 //071   ----------------------------------------
 BYTE   PATT
  POIN2 Label_01006B31
//  #10 //072   ----------------------------------------
Label_01006C34:
//  #10 //073   ----------------------------------------
 BYTE   PATT
  POIN2 Label_01006B12
//  #10 //074   ----------------------------------------
 BYTE   PATT
  POIN2 Label_01006B31
//  #10 //075   ----------------------------------------
 BYTE   PATT
  POIN2 Label_01006B31
//  #10 //076   ----------------------------------------
 BYTE   PATT
  POIN2 Label_01006B31
//  #10 //077   ----------------------------------------
 BYTE   PATT
  POIN2 Label_01006B31
//  #10 //078   ----------------------------------------
 BYTE   PATT
  POIN2 Label_01006B31
//  #10 //079   ----------------------------------------
 BYTE   PATT
  POIN2 Label_01006B31
//  #10 //080   ----------------------------------------
 BYTE   PATT
  POIN2 Label_01006B31
//  #10 //081   ----------------------------------------
 BYTE   PATT
  POIN2 Label_01006AAC
//  #10 //082   ----------------------------------------
 BYTE   PATT
  POIN2 Label_01006AAC
//  #10 //083   ----------------------------------------
 BYTE   PATT
  POIN2 Label_01006AAC
//  #10 //084   ----------------------------------------
 BYTE   PATT
  POIN2 Label_01006AAC
//  #10 //085   ----------------------------------------
 BYTE   PATT
  POIN2 Label_01006AAC
//  #10 //086   ----------------------------------------
 BYTE   PATT
  POIN2 Label_01006AAC
//  #10 //087   ----------------------------------------
 BYTE   PATT
  POIN2 Label_01006AAC
//  #10 //088   ----------------------------------------
 BYTE   PATT
  POIN2 Label_01006AAC
//  #10 //089   ----------------------------------------
 BYTE   PATT
  POIN2 Label_01006AAC
//  #10 //090   ----------------------------------------
 BYTE   PATT
  POIN2 Label_01006AAC
//  #10 //091   ----------------------------------------
 BYTE   PATT
  POIN2 Label_01006AAC
//  #10 //092   ----------------------------------------
 BYTE   PATT
  POIN2 Label_01006AAC
//  #10 //093   ----------------------------------------
 BYTE   PATT
  POIN2 Label_01006AAC
//  #10 //094   ----------------------------------------
 BYTE   PATT
  POIN2 Label_01006AAC
//  #10 //095   ----------------------------------------
 BYTE   PATT
  POIN2 Label_01006AAC
//  #10 //096   ----------------------------------------
 BYTE   PATT
  POIN2 Label_01006AAC
//  #10 //097   ----------------------------------------
 BYTE   PATT
  POIN2 Label_01006B12
//  #10 //098   ----------------------------------------
 BYTE   PATT
  POIN2 Label_01006B31
//  #10 //099   ----------------------------------------
 BYTE   PATT
  POIN2 Label_01006B31
//  #10 //100   ----------------------------------------
 BYTE   PATT
  POIN2 Label_01006B31
//  #10 //101   ----------------------------------------
 BYTE   PATT
  POIN2 Label_01006B31
//  #10 //102   ----------------------------------------
 BYTE   PATT
  POIN2 Label_01006B31
//  #10 //103   ----------------------------------------
 BYTE   PATT
  POIN2 Label_01006B31
//  #10 //104   ----------------------------------------
 BYTE   PATT
  POIN2 Label_01006B31
//  #10 //105   ----------------------------------------
 BYTE   PATT
  POIN2 Label_01006B12
//  #10 //106   ----------------------------------------
 BYTE   PATT
  POIN2 Label_01006B31
//  #10 //107   ----------------------------------------
 BYTE   PATT
  POIN2 Label_01006B31
//  #10 //108   ----------------------------------------
 BYTE   PATT
  POIN2 Label_01006B31
//  #10 //109   ----------------------------------------
 BYTE   PATT
  POIN2 Label_01006B31
//  #10 //110   ----------------------------------------
 BYTE   PATT
  POIN2 Label_01006B31
//  #10 //111   ----------------------------------------
 BYTE   PATT
  POIN2 Label_01006B31
//  #10 //112   ----------------------------------------
 BYTE   PATT
  POIN2 Label_01006B31
//  #10 //113   ----------------------------------------
 BYTE   PATT
  POIN2 Label_01006B12
//  #10 //114   ----------------------------------------
 BYTE   PATT
  POIN2 Label_01006B31
//  #10 //115   ----------------------------------------
 BYTE   PATT
  POIN2 Label_01006B31
//  #10 //116   ----------------------------------------
 BYTE   PATT
  POIN2 Label_01006B31
//  #10 //117   ----------------------------------------
 BYTE   PATT
  POIN2 Label_01006B31
//  #10 //118   ----------------------------------------
 BYTE   PATT
  POIN2 Label_01006B31
//  #10 //119   ----------------------------------------
 BYTE   PATT
  POIN2 Label_01006B31
//  #10 //120   ----------------------------------------
 BYTE   PATT
  POIN2 Label_01006B31
//  #10 //121   ----------------------------------------
Label_01006D24:
 BYTE   N23  Cn1  v096
 BYTE   N23  Fs1
 BYTE   W24
 BYTE   N23
 BYTE   W24
 BYTE   Dn1
 BYTE   N23  Fs1
 BYTE   W24
 BYTE   N23
 BYTE   W24
 BYTE   PEND 
//  #10 //122   ----------------------------------------
Label_01006D33:
 BYTE   N23  Cn1  v096
 BYTE   N23  Fs1
 BYTE   W24
 BYTE   N23
 BYTE   W24
 BYTE   Dn1
 BYTE   N23  Fs1
 BYTE   W24
 BYTE   N11  As1
 BYTE   W12
 BYTE   Cn1
 BYTE   W12
 BYTE   PEND 
//  #10 //123   ----------------------------------------
 BYTE   PATT
  POIN2 Label_01006D24
//  #10 //124   ----------------------------------------
 BYTE   PATT
  POIN2 Label_01006D33
//  #10 //125   ----------------------------------------
 BYTE   PATT
  POIN2 Label_01006D24
//  #10 //126   ----------------------------------------
 BYTE   PATT
  POIN2 Label_01006D33
//  #10 //127   ----------------------------------------
 BYTE   PATT
  POIN2 Label_01006D24
//  #10 //128   ----------------------------------------
 BYTE   PATT
  POIN2 Label_01006D33
//  #10 //129   ----------------------------------------
 BYTE   PATT
  POIN2 Label_01006D24
//  #10 //130   ----------------------------------------
 BYTE   PATT
  POIN2 Label_01006D33
//  #10 //131   ----------------------------------------
 BYTE   PATT
  POIN2 Label_01006D24
//  #10 //132   ----------------------------------------
 BYTE   PATT
  POIN2 Label_01006D33
//  #10 //133   ----------------------------------------
 BYTE   PATT
  POIN2 Label_01006D24
//  #10 //134   ----------------------------------------
 BYTE   PATT
  POIN2 Label_01006D33
//  #10 //135   ----------------------------------------
 BYTE   PATT
  POIN2 Label_01006D24
//  #10 //136   ----------------------------------------
 BYTE   N23  Cn1  v096
 BYTE   N23  Fs1
 BYTE   W48
 BYTE   N11  Cn1
 BYTE   N11  Dn1
 BYTE   W12
 BYTE   Cn1
 BYTE   N11  Dn1
 BYTE   W12
 BYTE   N23  Cn1
 BYTE   N23  Dn1
 BYTE   W24
//  #10 //137   ----------------------------------------
 BYTE   PATT
  POIN2 Label_01006B12
//  #10 //138   ----------------------------------------
 BYTE   PATT
  POIN2 Label_01006B31
//  #10 //139   ----------------------------------------
 BYTE   PATT
  POIN2 Label_01006B31
//  #10 //140   ----------------------------------------
 BYTE   PATT
  POIN2 Label_01006B31
//  #10 //141   ----------------------------------------
 BYTE   PATT
  POIN2 Label_01006B31
//  #10 //142   ----------------------------------------
 BYTE   PATT
  POIN2 Label_01006B31
//  #10 //143   ----------------------------------------
 BYTE   PATT
  POIN2 Label_01006B31
//  #10 //144   ----------------------------------------
 BYTE   PATT
  POIN2 Label_01006B31
//  #10 //145   ----------------------------------------
 BYTE   PATT
  POIN2 Label_01006B12
//  #10 //146   ----------------------------------------
 BYTE   PATT
  POIN2 Label_01006B31
//  #10 //147   ----------------------------------------
 BYTE   PATT
  POIN2 Label_01006B31
//  #10 //148   ----------------------------------------
 BYTE   PATT
  POIN2 Label_01006B31
//  #10 //149   ----------------------------------------
 BYTE   PATT
  POIN2 Label_01006B31
//  #10 //150   ----------------------------------------
 BYTE   PATT
  POIN2 Label_01006B31
//  #10 //151   ----------------------------------------
 BYTE   PATT
  POIN2 Label_01006B31
//  #10 //152   ----------------------------------------
 BYTE   PATT
  POIN2 Label_01006B31
//  #10 //153   ----------------------------------------
 BYTE   PATT
  POIN2 Label_01006B12
//  #10 //154   ----------------------------------------
 BYTE   PATT
  POIN2 Label_01006B31
//  #10 //155   ----------------------------------------
 BYTE   PATT
  POIN2 Label_01006B31
//  #10 //156   ----------------------------------------
 BYTE   PATT
  POIN2 Label_01006B31
//  #10 //157   ----------------------------------------
 BYTE   PATT
  POIN2 Label_01006B31
//  #10 //158   ----------------------------------------
 BYTE   PATT
  POIN2 Label_01006B31
//  #10 //159   ----------------------------------------
 BYTE   PATT
  POIN2 Label_01006B31
//  #10 //160   ----------------------------------------
 BYTE   PATT
  POIN2 Label_01006B31
//  #10 //161   ----------------------------------------
 BYTE   GoTo
  POIN2 Label_01006C34
//  #10 //162   ----------------------------------------
 BYTE   PATT
  POIN2 Label_01006B12
//  #10 //163   ----------------------------------------
 BYTE   PATT
  POIN2 Label_01006B31
//  #10 //164   ----------------------------------------
 BYTE   PATT
  POIN2 Label_01006B31
//  #10 //165   ----------------------------------------
 BYTE   PATT
  POIN2 Label_01006B31
//  #10 //166   ----------------------------------------
 BYTE   PATT
  POIN2 Label_01006B31
//  #10 //167   ----------------------------------------
 BYTE   PATT
  POIN2 Label_01006B31
//  #10 //168   ----------------------------------------
 BYTE   PATT
  POIN2 Label_01006B31
//  #10 //169   ----------------------------------------
 BYTE   N11  Cn1  v096
 BYTE   N11  Fs1
 BYTE   W12
 BYTE   N11
 BYTE   W12
 BYTE   Dn1
 BYTE   N11  Fs1
 BYTE   W12
 BYTE   N11
 BYTE   W12
 BYTE   Cn1
 BYTE   N11  Fs1
 BYTE   W12
 BYTE   N11
 BYTE   W12
 BYTE   Dn1
 BYTE   N11  Fs1
 BYTE   W12
 BYTE   N05
 BYTE   W06
 BYTE   N05
 BYTE   W05
 BYTE   FINE

//******************************************************//
	ALIGN 4

RiversInTheDesert:
	BYTE	10	// NumTrks
	BYTE	0	// NumBlks
	BYTE	RiversInTheDesert_pri	// Priority
	BYTE	RiversInTheDesert_rev	// Reverb.
    
	POIN2	RiversInTheDesert_grp
    
	POIN2	RiversInTheDesert_001
	POIN2	RiversInTheDesert_002
	POIN2	RiversInTheDesert_003
	POIN2	RiversInTheDesert_004
	POIN2	RiversInTheDesert_005
	POIN2	RiversInTheDesert_006
	POIN2	RiversInTheDesert_007
	POIN2	RiversInTheDesert_008
	POIN2	RiversInTheDesert_009
	POIN2	RiversInTheDesert_010

	
