//Event file generated from Sappy .s format.
	#include "MPlayDef.event"

	#define	Roar_grp  voicegroup000
	#define	Roar_pri  0
	#define	Roar_rev  0
	#define	Roar_mvl  127
	#define	Roar_key  0
	#define	Roar_tbs  1
	#define	Roar_exg  0
	#define	Roar_cmp  1

	// .rodata
	//	Roar
	ALIGN 4


//**************** Track 1 (Midi-Chn.0) ****************//

Roar_001:
// 000   ----------------------------------------
 BYTE   KEYSH   Roar_key+0
 BYTE   TEMPO   100*Roar_tbs/2
 BYTE   VOICE   60
 BYTE   VOL   39*Roar_mvl/mxv
 BYTE   PAN   c_v+23
 BYTE   VOL   39*Roar_mvl/mxv
 BYTE   PAN   c_v+0
 BYTE   N92  Gn1  v064
 BYTE   W96
// 001   ----------------------------------------
Label_0_0114FAE2:
 BYTE   W96
// 002   ----------------------------------------
 BYTE   N92  Gn1  v064
 BYTE   W96
// 003   ----------------------------------------
 BYTE   W96
// 004   ----------------------------------------
 BYTE   N92
 BYTE   W96
// 005   ----------------------------------------
 BYTE   W96
// 006   ----------------------------------------
 BYTE   N92
 BYTE   W96
// 007   ----------------------------------------
 BYTE   W96
// 008   ----------------------------------------
Label_0_0114FAEE:
 BYTE   N92  En1  v096
 BYTE   W24
 BYTE   N23  Cn3  v080
 BYTE   W24
 BYTE   Bn2
 BYTE   W24
 BYTE   Gn2
 BYTE   W24
 BYTE   PEND 
// 009   ----------------------------------------
 BYTE   N92  An2
 BYTE   W96
// 010   ----------------------------------------
 BYTE   PATT
  POIN2 Label_0_0114FAEE
// 011   ----------------------------------------
 BYTE   N44  Ds3  v080
 BYTE   W48
 BYTE   Fs3
 BYTE   W48
// 012   ----------------------------------------
 BYTE   N92  En1  v096
 BYTE   W24
 BYTE   N23  Ds3  v080
 BYTE   W24
 BYTE   En3
 BYTE   W24
 BYTE   Bn2
 BYTE   W24
// 013   ----------------------------------------
 BYTE   N44  Dn3
 BYTE   W48
 BYTE   Cn3
 BYTE   W48
// 014   ----------------------------------------
 BYTE   N92  En1  v096
 BYTE   W24
 BYTE   N23  Ds3  v080
 BYTE   W24
 BYTE   En3
 BYTE   W24
 BYTE   Gn3
 BYTE   W24
// 015   ----------------------------------------
 BYTE   N44  Fs3
 BYTE   W48
 BYTE   Bn3
 BYTE   W48
// 016   ----------------------------------------
 BYTE   As0
 BYTE   W48
 BYTE   TIE  As1  v096
 BYTE   N68  As3  v112
 BYTE   W72
// 017   ----------------------------------------
 BYTE   N23  Fn3
 BYTE   W24
 BYTE   N88  An3
 BYTE   W92
// 018   ----------------------------------------
 BYTE   W03
 BYTE   EOT
 BYTE   As1
 BYTE   W01
 BYTE   TIE  As1  v096
 BYTE   N68  Gs3  v112
 BYTE   W72
 BYTE   N23  Fn3
 BYTE   W24
// 019   ----------------------------------------
 BYTE   N88  Fs3
 BYTE   W92
 BYTE   W03
 BYTE   EOT
 BYTE   As1
 BYTE   W01
// 020   ----------------------------------------
 BYTE   N92  As1  v096
 BYTE   N44  Fn3  v112
 BYTE   W48
 BYTE   As2
 BYTE   W48
// 021   ----------------------------------------
 BYTE   N92  An1  v096
 BYTE   N44  An2  v112
 BYTE   W48
 BYTE   N23  Fs3
 BYTE   W24
 BYTE   Ds3
 BYTE   W24
// 022   ----------------------------------------
 BYTE   N92  As1  v096
 BYTE   N88  Fn3  v112
 BYTE   W90
 BYTE   N05  Gs3
 BYTE   W06
// 023   ----------------------------------------
 BYTE   N92  An1  v096
 BYTE   N92  An3  v112
 BYTE   W96
// 024   ----------------------------------------
 BYTE   W96
// 025   ----------------------------------------
 BYTE   W96
// 026   ----------------------------------------
 BYTE   W96
// 027   ----------------------------------------
 BYTE   W48
 BYTE   Fs3  v064
 BYTE   W48
// 028   ----------------------------------------
 BYTE   TIE  Dn2  v052
 BYTE   W48
 BYTE   Gn3  v064
 BYTE   W48
// 029   ----------------------------------------
 BYTE   W92
 BYTE   W03
 BYTE   EOT
 BYTE   Dn2  v067
 BYTE   W01
// 030   ----------------------------------------
 BYTE   N92  As1  v052
 BYTE   N44  Fs3  v064
 BYTE   W48
 BYTE   N92  Gn3
 BYTE   W48
// 031   ----------------------------------------
 BYTE   As1  v052
 BYTE   W48
 BYTE   N44  Dn3  v064
 BYTE   W48
// 032   ----------------------------------------
 BYTE   N92  Cn2  v052
 BYTE   N44  Gn3  v064
 BYTE   W48
 BYTE   N92  An3
 BYTE   W48
// 033   ----------------------------------------
 BYTE   Cn2  v052
 BYTE   W48
 BYTE   As3  v064
 BYTE   W48
// 034   ----------------------------------------
 BYTE   An1  v052
 BYTE   W48
 BYTE   N68  Cn4  v064
 BYTE   W48
// 035   ----------------------------------------
 BYTE   N92  An1  v052
 BYTE   W24
 BYTE   N23  As3  v064
 BYTE   W24
 BYTE   An3
 BYTE   W24
 BYTE   Fn3
 BYTE   W24
// 036   ----------------------------------------
 BYTE   N44  Bn2
 BYTE   N44  Fs3
 BYTE   W48
 BYTE   Bn2
 BYTE   N44  En3
 BYTE   W48
// 037   ----------------------------------------
 BYTE   N92  Bn2
 BYTE   N44  Dn3
 BYTE   W48
 BYTE   Fs3
 BYTE   W48
// 038   ----------------------------------------
 BYTE   N92  Bn2
 BYTE   N92  Gn3
 BYTE   W96
// 039   ----------------------------------------
 BYTE   N44  Bn2
 BYTE   W48
 BYTE   Gn3
 BYTE   W48
// 040   ----------------------------------------
 BYTE   N92  An2
 BYTE   N23  Fs3
 BYTE   W24
 BYTE   N68  An3
 BYTE   W72
// 041   ----------------------------------------
 BYTE   N92  An2
 BYTE   N92  Cs3
 BYTE   W96
// 042   ----------------------------------------
 BYTE   Gn2
 BYTE   N92  Cs3
 BYTE   W96
// 043   ----------------------------------------
 BYTE   Gn2
 BYTE   N92  Fs3
 BYTE   W96
// 044   ----------------------------------------
 BYTE   W96
// 045   ----------------------------------------
 BYTE   W96
// 046   ----------------------------------------
 BYTE   W96
// 047   ----------------------------------------
 BYTE   W96
// 048   ----------------------------------------
 BYTE   W96
// 049   ----------------------------------------
 BYTE   W96
// 050   ----------------------------------------
 BYTE   W96
// 051   ----------------------------------------
 BYTE   W96
// 052   ----------------------------------------
 BYTE   W96
// 053   ----------------------------------------
 BYTE   N16  Gs1  v076
 BYTE   N92  Bn2  v052
 BYTE   W03
 BYTE   W01
 BYTE   W01
 BYTE   W19
 BYTE   N16  Gs1  v076
 BYTE   W03
 BYTE   W01
 BYTE   W01
 BYTE   W19
 BYTE   N07
 BYTE   W03
 BYTE   W01
 BYTE   W01
 BYTE   W07
 BYTE   N07
 BYTE   W03
 BYTE   W01
 BYTE   W01
 BYTE   W30
 BYTE   W01
// 054   ----------------------------------------
 BYTE   N16
 BYTE   N92  As2  v052
 BYTE   W03
 BYTE   W01
 BYTE   W01
 BYTE   W19
 BYTE   N16  Gs1  v076
 BYTE   W03
 BYTE   W01
 BYTE   W01
 BYTE   W19
 BYTE   N07
 BYTE   W03
 BYTE   W01
 BYTE   W01
 BYTE   W07
 BYTE   N07
 BYTE   W03
 BYTE   W01
 BYTE   W01
 BYTE   W30
 BYTE   W01
// 055   ----------------------------------------
 BYTE   N16
 BYTE   N92  Bn2  v052
 BYTE   N92  Ds3
 BYTE   W03
 BYTE   W01
 BYTE   W01
 BYTE   W19
 BYTE   N16  Gs1  v076
 BYTE   W03
 BYTE   W01
 BYTE   W01
 BYTE   W19
 BYTE   N07
 BYTE   W03
 BYTE   W01
 BYTE   W01
 BYTE   W07
 BYTE   N07
 BYTE   W03
 BYTE   W01
 BYTE   W01
 BYTE   W30
 BYTE   W01
// 056   ----------------------------------------
 BYTE   N16
 BYTE   N92  As2  v052
 BYTE   N92  En3
 BYTE   W03
 BYTE   W01
 BYTE   W01
 BYTE   W19
 BYTE   N16  Gs1  v076
 BYTE   W03
 BYTE   W01
 BYTE   W01
 BYTE   W19
 BYTE   N07
 BYTE   W03
 BYTE   W01
 BYTE   W01
 BYTE   W07
 BYTE   N07
 BYTE   W03
 BYTE   W01
 BYTE   W01
 BYTE   W30
 BYTE   W01
// 057   ----------------------------------------
 BYTE   N16  Cs2
 BYTE   N56  Cs3  v080
 BYTE   W03
 BYTE   W01
 BYTE   W01
 BYTE   W19
 BYTE   N16  Cs2  v076
 BYTE   W03
 BYTE   W01
 BYTE   W01
 BYTE   W19
 BYTE   N07
 BYTE   W03
 BYTE   W01
 BYTE   W01
 BYTE   W07
 BYTE   N07
 BYTE   N11  Ds3  v080
 BYTE   W03
 BYTE   W01
 BYTE   W01
 BYTE   W07
 BYTE   En3
 BYTE   W12
 BYTE   Gs3
 BYTE   W12
// 058   ----------------------------------------
 BYTE   N16  Bn1  v076
 BYTE   TIE  Fs3  v080
 BYTE   W03
 BYTE   W01
 BYTE   W01
 BYTE   W19
 BYTE   N16  Bn1  v076
 BYTE   W03
 BYTE   W01
 BYTE   W01
 BYTE   W19
 BYTE   N07
 BYTE   W03
 BYTE   W01
 BYTE   W01
 BYTE   W07
 BYTE   N07
 BYTE   W03
 BYTE   W01
 BYTE   W01
 BYTE   W30
 BYTE   W01
// 059   ----------------------------------------
 BYTE   N16  Ds2
 BYTE   W03
 BYTE   W01
 BYTE   W01
 BYTE   W19
 BYTE   N16
 BYTE   W03
 BYTE   W01
 BYTE   W01
 BYTE   W18
 BYTE   EOT
 BYTE   Fs3
 BYTE   W01
 BYTE   N07  Ds2
 BYTE   N23  Gs3  v080
 BYTE   W03
 BYTE   W01
 BYTE   W01
 BYTE   W07
 BYTE   N07  Ds2  v076
 BYTE   W03
 BYTE   W01
 BYTE   W01
 BYTE   W07
 BYTE   N23  As3  v080
 BYTE   W24
// 060   ----------------------------------------
 BYTE   N16  As1  v076
 BYTE   N68  Fn3  v080
 BYTE   W03
 BYTE   W01
 BYTE   W01
 BYTE   W19
 BYTE   N16  As1  v076
 BYTE   W03
 BYTE   W01
 BYTE   W01
 BYTE   W19
 BYTE   N07
 BYTE   W03
 BYTE   W01
 BYTE   W01
 BYTE   W07
 BYTE   N07
 BYTE   W03
 BYTE   W01
 BYTE   W01
 BYTE   W07
 BYTE   N23  Gn3  v080
 BYTE   W24
// 061   ----------------------------------------
 BYTE   N16  Fn2  v076
 BYTE   N44  Gs3  v080
 BYTE   W03
 BYTE   W01
 BYTE   W01
 BYTE   W19
 BYTE   N16  Fn2  v076
 BYTE   W03
 BYTE   W01
 BYTE   W01
 BYTE   W19
 BYTE   N07
 BYTE   N23  Gn3  v080
 BYTE   W03
 BYTE   W01
 BYTE   W01
 BYTE   W07
 BYTE   N07  Fn2  v076
 BYTE   W03
 BYTE   W01
 BYTE   W01
 BYTE   W07
 BYTE   N23  Fn3  v080
 BYTE   W24
// 062   ----------------------------------------
 BYTE   N16  Fn2  v076
 BYTE   N44  Fn3  v080
 BYTE   W03
 BYTE   W01
 BYTE   W01
 BYTE   W19
 BYTE   N16  Fn2  v076
 BYTE   W03
 BYTE   W01
 BYTE   W01
 BYTE   W19
 BYTE   N07
 BYTE   N23  Ds3  v080
 BYTE   W03
 BYTE   W01
 BYTE   W01
 BYTE   W07
 BYTE   N07  Fn2  v076
 BYTE   W03
 BYTE   W01
 BYTE   W01
 BYTE   W07
 BYTE   N23  Cs3  v080
 BYTE   W24
// 063   ----------------------------------------
 BYTE   N05  Cn2  v064
 BYTE   N15  Cn3  v080
 BYTE   W12
 BYTE   N05  As1  v064
 BYTE   W04
 BYTE   N15  As2  v080
 BYTE   W08
 BYTE   N05  Gs1  v064
 BYTE   W08
 BYTE   N30  Fn3  v080
 BYTE   W04
 BYTE   N05  Gn1  v064
 BYTE   W12
 BYTE   Gs1
 BYTE   W12
 BYTE   Gn1
 BYTE   W04
 BYTE   N15  Ds3  v080
 BYTE   W08
 BYTE   N05  Fn1  v064
 BYTE   W08
 BYTE   N30  As3  v080
 BYTE   W04
 BYTE   N05  Ds1  v064
 BYTE   W12
// 064   ----------------------------------------
 BYTE   W12
 BYTE   An1
 BYTE   W04
 BYTE   N15  Fn3  v080
 BYTE   W08
 BYTE   N05  Gn1  v064
 BYTE   W08
 BYTE   N15  Cn4  v080
 BYTE   W04
 BYTE   N05  Fn1  v064
 BYTE   W12
 BYTE   Cn2
 BYTE   N15  Cn4  v080
 BYTE   W12
 BYTE   N05  As1  v064
 BYTE   W04
 BYTE   N15  As3  v080
 BYTE   W08
 BYTE   N05  An1  v064
 BYTE   W06
 BYTE   Gn1
 BYTE   W02
 BYTE   N15  Fn4  v080
 BYTE   W04
 BYTE   N05  Fn1  v064
 BYTE   W12
// 065   ----------------------------------------
 BYTE   N92  Fn3  v080
 BYTE   W48
 BYTE   N03  Fs1  v076
 BYTE   W03
 BYTE   W01
 BYTE   W01
 BYTE   W01
 BYTE   N03
 BYTE   W03
 BYTE   W01
 BYTE   W01
 BYTE   W01
 BYTE   N07
 BYTE   W03
 BYTE   W01
 BYTE   W01
 BYTE   W07
 BYTE   N03
 BYTE   W03
 BYTE   W01
 BYTE   W01
 BYTE   W01
 BYTE   N03
 BYTE   W03
 BYTE   W01
 BYTE   W01
 BYTE   W01
 BYTE   N07
 BYTE   W03
 BYTE   W01
 BYTE   W01
 BYTE   W07
// 066   ----------------------------------------
Label_0_0114FDAA:
 BYTE   N92  Ds3  v080
 BYTE   W12
 BYTE   N07  Fs1  v076
 BYTE   W03
 BYTE   W01
 BYTE   W01
 BYTE   W19
 BYTE   N07
 BYTE   W03
 BYTE   W01
 BYTE   W01
 BYTE   W19
 BYTE   N07
 BYTE   W03
 BYTE   W01
 BYTE   W01
 BYTE   W07
 BYTE   N03
 BYTE   W03
 BYTE   W01
 BYTE   W01
 BYTE   W01
 BYTE   N03
 BYTE   W03
 BYTE   W01
 BYTE   W01
 BYTE   W01
 BYTE   N07
 BYTE   W03
 BYTE   W01
 BYTE   W01
 BYTE   W07
 BYTE   PEND 
// 067   ----------------------------------------
 BYTE   N92  Fn3  v080
 BYTE   W12
 BYTE   N07  Fs1  v076
 BYTE   W03
 BYTE   W01
 BYTE   W01
 BYTE   W19
 BYTE   N07
 BYTE   W03
 BYTE   W01
 BYTE   W01
 BYTE   W19
 BYTE   N07
 BYTE   W03
 BYTE   W01
 BYTE   W01
 BYTE   W07
 BYTE   N03
 BYTE   W03
 BYTE   W01
 BYTE   W01
 BYTE   W01
 BYTE   N03
 BYTE   W03
 BYTE   W01
 BYTE   W01
 BYTE   W01
 BYTE   N07
 BYTE   W03
 BYTE   W01
 BYTE   W01
 BYTE   W07
// 068   ----------------------------------------
 BYTE   PATT
  POIN2 Label_0_0114FDAA
// 069   ----------------------------------------
 BYTE   N07  As1  v076
 BYTE   W03
 BYTE   W01
 BYTE   W01
 BYTE   W07
 BYTE   N07
 BYTE   W03
 BYTE   W01
 BYTE   W01
 BYTE   W19
 BYTE   N07
 BYTE   W03
 BYTE   W01
 BYTE   W01
 BYTE   W07
 BYTE   N07
 BYTE   N68  As3  v080
 BYTE   W03
 BYTE   W01
 BYTE   W01
 BYTE   W07
 BYTE   N07  As1  v076
 BYTE   W03
 BYTE   W01
 BYTE   W01
 BYTE   W07
 BYTE   N03
 BYTE   W03
 BYTE   W01
 BYTE   W01
 BYTE   W01
 BYTE   N03
 BYTE   W03
 BYTE   W01
 BYTE   W01
 BYTE   W01
 BYTE   N03
 BYTE   W03
 BYTE   W01
 BYTE   W01
 BYTE   W01
 BYTE   N03
 BYTE   W03
 BYTE   W01
 BYTE   W01
 BYTE   W01
// 070   ----------------------------------------
 BYTE   N07
 BYTE   W03
 BYTE   W01
 BYTE   W01
 BYTE   W07
 BYTE   N07
 BYTE   W03
 BYTE   W01
 BYTE   W01
 BYTE   W07
 BYTE   N02  Fn3  v080
 BYTE   W02
 BYTE   Gs3
 BYTE   W03
 BYTE   As3
 BYTE   W02
 BYTE   N40  Cn4
 BYTE   W05
 BYTE   N07  As1  v076
 BYTE   W03
 BYTE   W01
 BYTE   W01
 BYTE   W07
 BYTE   N07
 BYTE   W03
 BYTE   W01
 BYTE   W01
 BYTE   W07
 BYTE   N07
 BYTE   W03
 BYTE   W01
 BYTE   W01
 BYTE   W07
 BYTE   N03
 BYTE   W03
 BYTE   W01
 BYTE   W01
 BYTE   W01
 BYTE   N03
 BYTE   W03
 BYTE   W01
 BYTE   W01
 BYTE   W01
 BYTE   N03
 BYTE   W03
 BYTE   W01
 BYTE   W01
 BYTE   W01
 BYTE   N03
 BYTE   W03
 BYTE   W01
 BYTE   W01
 BYTE   W01
// 071   ----------------------------------------
 BYTE   N07
 BYTE   W03
 BYTE   W01
 BYTE   W01
 BYTE   W07
 BYTE   N07
 BYTE   W03
 BYTE   W01
 BYTE   W01
 BYTE   W19
 BYTE   N07
 BYTE   W03
 BYTE   W01
 BYTE   W01
 BYTE   W07
 BYTE   N07
 BYTE   N68  Gs3  v080
 BYTE   W03
 BYTE   W01
 BYTE   W01
 BYTE   W07
 BYTE   N07  As1  v076
 BYTE   W03
 BYTE   W01
 BYTE   W01
 BYTE   W07
 BYTE   N03
 BYTE   W03
 BYTE   W01
 BYTE   W01
 BYTE   W01
 BYTE   N03
 BYTE   W03
 BYTE   W01
 BYTE   W01
 BYTE   W01
 BYTE   N03
 BYTE   W03
 BYTE   W01
 BYTE   W01
 BYTE   W01
 BYTE   N03
 BYTE   W03
 BYTE   W01
 BYTE   W01
 BYTE   W01
// 072   ----------------------------------------
 BYTE   N07
 BYTE   W03
 BYTE   W01
 BYTE   W01
 BYTE   W07
 BYTE   N07
 BYTE   W03
 BYTE   W01
 BYTE   W01
 BYTE   W07
 BYTE   N02  Fn3  v080
 BYTE   W02
 BYTE   Fs3
 BYTE   W03
 BYTE   Gs3
 BYTE   W02
 BYTE   N40  As3
 BYTE   W05
 BYTE   N07  As1  v076
 BYTE   W03
 BYTE   W01
 BYTE   W01
 BYTE   W07
 BYTE   N07
 BYTE   W03
 BYTE   W01
 BYTE   W01
 BYTE   W07
 BYTE   N07
 BYTE   W03
 BYTE   W01
 BYTE   W01
 BYTE   W07
 BYTE   N03
 BYTE   W03
 BYTE   W01
 BYTE   W01
 BYTE   W01
 BYTE   N03
 BYTE   W03
 BYTE   W01
 BYTE   W01
 BYTE   W01
 BYTE   N03
 BYTE   W03
 BYTE   W01
 BYTE   W01
 BYTE   W01
 BYTE   N03
 BYTE   W03
 BYTE   W01
 BYTE   W01
 BYTE   W01
// 073   ----------------------------------------
 BYTE   TEMPO   100*Roar_tbs/2
 BYTE   N92  Gn1  v064
 BYTE   W96
// 074   ----------------------------------------
 BYTE   GoTo
  POIN2 Label_0_0114FAE2
// 075   ----------------------------------------
 BYTE   W96
 BYTE   FINE

//**************** Track 2 (Midi-Chn.1) ****************//

Roar_002:
// 000   ----------------------------------------
 BYTE   KEYSH   Roar_key+0
 BYTE   VOICE   73
 BYTE   VOL   39*Roar_mvl/mxv
 BYTE   PAN   c_v-31
 BYTE   VOL   41*Roar_mvl/mxv
 BYTE   PAN   c_v+0
 BYTE   N92  Gn2  v064
 BYTE   W96
// 001   ----------------------------------------
Label_1_0114F7A8:
 BYTE   W96
// 002   ----------------------------------------
 BYTE   N92  Gn2  v064
 BYTE   W96
// 003   ----------------------------------------
 BYTE   W96
// 004   ----------------------------------------
 BYTE   N92
 BYTE   W96
// 005   ----------------------------------------
 BYTE   W96
// 006   ----------------------------------------
 BYTE   N92
 BYTE   W24
 BYTE   N03  Ds4  v036
 BYTE   W01
 BYTE   W01
 BYTE   W01
 BYTE   W01
 BYTE   En4
 BYTE   W01
 BYTE   W01
 BYTE   W01
 BYTE   W01
 BYTE   Fs4  v040
 BYTE   W02
 BYTE   W01
 BYTE   W01
 BYTE   Gs4  v044
 BYTE   W01
 BYTE   W02
 BYTE   W01
 BYTE   As4  v048
 BYTE   W01
 BYTE   W01
 BYTE   W02
 BYTE   Ds5  v052
 BYTE   W04
 BYTE   As4
 BYTE   W04
 BYTE   Gs4
 BYTE   W04
 BYTE   Gn4
 BYTE   W04
 BYTE   Ds4
 BYTE   W04
 BYTE   Dn4
 BYTE   W04
 BYTE   As3
 BYTE   W28
// 007   ----------------------------------------
 BYTE   W96
// 008   ----------------------------------------
 BYTE   N92  En2  v064
 BYTE   W96
// 009   ----------------------------------------
 BYTE   W96
// 010   ----------------------------------------
 BYTE   N92
 BYTE   W96
// 011   ----------------------------------------
 BYTE   W96
// 012   ----------------------------------------
 BYTE   N92
 BYTE   W96
// 013   ----------------------------------------
 BYTE   W96
// 014   ----------------------------------------
 BYTE   N92
 BYTE   W96
// 015   ----------------------------------------
 BYTE   W96
// 016   ----------------------------------------
 BYTE   N44  As1
 BYTE   W48
 BYTE   TIE  As2
 BYTE   W96
// 017   ----------------------------------------
 BYTE   W92
 BYTE   W03
 BYTE   EOT
 BYTE   W01
// 018   ----------------------------------------
 BYTE   TIE
 BYTE   W96
// 019   ----------------------------------------
 BYTE   W92
 BYTE   W03
 BYTE   EOT
 BYTE   W01
// 020   ----------------------------------------
 BYTE   N92
 BYTE   W96
// 021   ----------------------------------------
 BYTE   An2
 BYTE   W84
 BYTE   N03  Ds4  v080
 BYTE   W04
 BYTE   Fn4
 BYTE   W04
 BYTE   Fs4
 BYTE   W04
// 022   ----------------------------------------
 BYTE   N92  As2  v064
 BYTE   N05  As4  v080
 BYTE   W96
// 023   ----------------------------------------
 BYTE   N92  An2  v064
 BYTE   W96
// 024   ----------------------------------------
 BYTE   W96
// 025   ----------------------------------------
 BYTE   W96
// 026   ----------------------------------------
 BYTE   W96
// 027   ----------------------------------------
 BYTE   W96
// 028   ----------------------------------------
 BYTE   TIE  Gn2  v052
 BYTE   W96
// 029   ----------------------------------------
 BYTE   W92
 BYTE   W03
 BYTE   EOT
 BYTE   W01
// 030   ----------------------------------------
 BYTE   N92  Ds2
 BYTE   W96
// 031   ----------------------------------------
 BYTE   N92
 BYTE   W96
// 032   ----------------------------------------
 BYTE   Fn2
 BYTE   W96
// 033   ----------------------------------------
 BYTE   N92
 BYTE   W96
// 034   ----------------------------------------
 BYTE   Dn2
 BYTE   W96
// 035   ----------------------------------------
 BYTE   N92
 BYTE   W96
// 036   ----------------------------------------
 BYTE   N44  Bn2  v064
 BYTE   W48
 BYTE   Cs3
 BYTE   W48
// 037   ----------------------------------------
 BYTE   N92  Dn3
 BYTE   W96
// 038   ----------------------------------------
 BYTE   N68
 BYTE   W72
 BYTE   N23  Cs3
 BYTE   W24
// 039   ----------------------------------------
 BYTE   N44  Dn3
 BYTE   W48
 BYTE   Cs3
 BYTE   W48
// 040   ----------------------------------------
 BYTE   N23  An2
 BYTE   W24
 BYTE   N44  Bn2
 BYTE   W48
 BYTE   N23  Dn3
 BYTE   W24
// 041   ----------------------------------------
 BYTE   N92  Cs3
 BYTE   W96
// 042   ----------------------------------------
 BYTE   N44
 BYTE   W48
 BYTE   TIE  Bn2
 BYTE   W48
// 043   ----------------------------------------
 BYTE   W92
 BYTE   W03
 BYTE   EOT
 BYTE   W01
// 044   ----------------------------------------
Label_1_0114F854:
 BYTE   W24
 BYTE   N11  Gs4  v052
 BYTE   W48
 BYTE   N11
 BYTE   W24
 BYTE   PEND 
// 045   ----------------------------------------
 BYTE   PATT
  POIN2 Label_1_0114F854
// 046   ----------------------------------------
 BYTE   PATT
  POIN2 Label_1_0114F854
// 047   ----------------------------------------
 BYTE   PATT
  POIN2 Label_1_0114F854
// 048   ----------------------------------------
 BYTE   PATT
  POIN2 Label_1_0114F854
// 049   ----------------------------------------
 BYTE   PATT
  POIN2 Label_1_0114F854
// 050   ----------------------------------------
 BYTE   PATT
  POIN2 Label_1_0114F854
// 051   ----------------------------------------
 BYTE   PATT
  POIN2 Label_1_0114F854
// 052   ----------------------------------------
 BYTE   W96
// 053   ----------------------------------------
 BYTE   N92  Gs2  v064
 BYTE   N92  Bn2
 BYTE   W96
// 054   ----------------------------------------
 BYTE   Gs2
 BYTE   N92  As2
 BYTE   W96
// 055   ----------------------------------------
 BYTE   Gs2
 BYTE   N92  Bn2
 BYTE   N92  Ds3
 BYTE   W96
// 056   ----------------------------------------
 BYTE   Gs2
 BYTE   N92  As2
 BYTE   N92  En3
 BYTE   W96
// 057   ----------------------------------------
 BYTE   N56  Cs3  v080
 BYTE   W60
 BYTE   N11  Ds3
 BYTE   W12
 BYTE   En3
 BYTE   W12
 BYTE   Gs3
 BYTE   W12
// 058   ----------------------------------------
 BYTE   N32  Fs3
 BYTE   W36
 BYTE   N11  En3
 BYTE   W12
 BYTE   N23  Ds3
 BYTE   W24
 BYTE   Bn2
 BYTE   W24
// 059   ----------------------------------------
 BYTE   N44  Fs3
 BYTE   W48
 BYTE   N23  Fn3
 BYTE   W24
 BYTE   Ds3
 BYTE   W24
// 060   ----------------------------------------
 BYTE   N92  Cs3
 BYTE   W96
// 061   ----------------------------------------
 BYTE   N44  Fn3
 BYTE   W48
 BYTE   N23  Gn3
 BYTE   W24
 BYTE   Fn3
 BYTE   W24
// 062   ----------------------------------------
 BYTE   N44  Gs3
 BYTE   W48
 BYTE   N23
 BYTE   W24
 BYTE   N23
 BYTE   W24
// 063   ----------------------------------------
 BYTE   N15  Fn3
 BYTE   W16
 BYTE   N15
 BYTE   W16
 BYTE   N15
 BYTE   W16
 BYTE   N44  As3
 BYTE   W48
// 064   ----------------------------------------
 BYTE   N92  Cn4
 BYTE   W96
// 065   ----------------------------------------
 BYTE   W48
 BYTE   N03  As2  v076
 BYTE   W03
 BYTE   W01
 BYTE   W01
 BYTE   W01
 BYTE   N03
 BYTE   W03
 BYTE   W01
 BYTE   W01
 BYTE   W01
 BYTE   N07
 BYTE   W03
 BYTE   W01
 BYTE   W01
 BYTE   W07
 BYTE   N03
 BYTE   W03
 BYTE   W01
 BYTE   W01
 BYTE   W01
 BYTE   N03
 BYTE   W03
 BYTE   W01
 BYTE   W01
 BYTE   W01
 BYTE   N07
 BYTE   W03
 BYTE   W01
 BYTE   W01
 BYTE   W07
// 066   ----------------------------------------
Label_1_0114F8F4:
 BYTE   W12
 BYTE   N07  As2  v076
 BYTE   W03
 BYTE   W01
 BYTE   W01
 BYTE   W19
 BYTE   N07
 BYTE   W03
 BYTE   W01
 BYTE   W01
 BYTE   W19
 BYTE   N07
 BYTE   W03
 BYTE   W01
 BYTE   W01
 BYTE   W07
 BYTE   N03
 BYTE   W03
 BYTE   W01
 BYTE   W01
 BYTE   W01
 BYTE   N03
 BYTE   W03
 BYTE   W01
 BYTE   W01
 BYTE   W01
 BYTE   N07
 BYTE   W03
 BYTE   W01
 BYTE   W01
 BYTE   W07
 BYTE   PEND 
// 067   ----------------------------------------
 BYTE   PATT
  POIN2 Label_1_0114F8F4
// 068   ----------------------------------------
 BYTE   PATT
  POIN2 Label_1_0114F8F4
// 069   ----------------------------------------
 BYTE   W96
// 070   ----------------------------------------
 BYTE   W96
// 071   ----------------------------------------
 BYTE   W96
// 072   ----------------------------------------
 BYTE   W96
// 073   ----------------------------------------
 BYTE   N92  Gn2  v064
 BYTE   W96
// 074   ----------------------------------------
 BYTE   GoTo
  POIN2 Label_1_0114F7A8
// 075   ----------------------------------------
 BYTE   W96
 BYTE   FINE

//**************** Track 3 (Midi-Chn.2) ****************//

Roar_003:
// 000   ----------------------------------------
 BYTE   KEYSH   Roar_key+0
 BYTE   VOICE   58
 BYTE   VOL   41*Roar_mvl/mxv
 BYTE   PAN   c_v+0
 BYTE   VOL   39*Roar_mvl/mxv
 BYTE   PAN   c_v+0
 BYTE   N92  Gn0  v080
 BYTE   W96
// 001   ----------------------------------------
Label_2_0114EDB0:
 BYTE   W96
// 002   ----------------------------------------
 BYTE   N92  Gn0  v080
 BYTE   W96
// 003   ----------------------------------------
 BYTE   W96
// 004   ----------------------------------------
 BYTE   N92
 BYTE   W96
// 005   ----------------------------------------
 BYTE   W96
// 006   ----------------------------------------
 BYTE   N92
 BYTE   W24
 BYTE   N03  Dn3  v052
 BYTE   W02
 BYTE   W01
 BYTE   W01
 BYTE   Ds3
 BYTE   W01
 BYTE   W01
 BYTE   W01
 BYTE   W01
 BYTE   Fn3  v056
 BYTE   W01
 BYTE   W01
 BYTE   W01
 BYTE   W01
 BYTE   Gn3  v060
 BYTE   W01
 BYTE   W01
 BYTE   W01
 BYTE   W01
 BYTE   As3  v064
 BYTE   W02
 BYTE   W01
 BYTE   W01
 BYTE   Cn4
 BYTE   W04
 BYTE   As3
 BYTE   W04
 BYTE   An3
 BYTE   W04
 BYTE   Gn3
 BYTE   W04
 BYTE   Fn3
 BYTE   W04
 BYTE   Dn3
 BYTE   W04
 BYTE   As2
 BYTE   W28
// 007   ----------------------------------------
 BYTE   W96
// 008   ----------------------------------------
 BYTE   N92  En0  v096
 BYTE   W96
// 009   ----------------------------------------
 BYTE   W96
// 010   ----------------------------------------
 BYTE   N92
 BYTE   W96
// 011   ----------------------------------------
 BYTE   W96
// 012   ----------------------------------------
 BYTE   N92
 BYTE   W96
// 013   ----------------------------------------
 BYTE   W96
// 014   ----------------------------------------
 BYTE   N92
 BYTE   W96
// 015   ----------------------------------------
 BYTE   W96
// 016   ----------------------------------------
 BYTE   N44  As0  v080
 BYTE   W48
 BYTE   TIE  As0  v096
 BYTE   W96
// 017   ----------------------------------------
 BYTE   W92
 BYTE   W03
 BYTE   EOT
 BYTE   W01
// 018   ----------------------------------------
 BYTE   TIE
 BYTE   W96
// 019   ----------------------------------------
 BYTE   W92
 BYTE   W03
 BYTE   EOT
 BYTE   W01
// 020   ----------------------------------------
 BYTE   TIE
 BYTE   W96
// 021   ----------------------------------------
 BYTE   W84
 BYTE   N03  Ds3  v080
 BYTE   W04
 BYTE   Fn3
 BYTE   W04
 BYTE   Fs3
 BYTE   W03
 BYTE   EOT
 BYTE   As0
 BYTE   W01
// 022   ----------------------------------------
 BYTE   TIE  As0  v096
 BYTE   N05  As3  v080
 BYTE   W96
// 023   ----------------------------------------
 BYTE   W92
 BYTE   W03
 BYTE   EOT
 BYTE   As0
 BYTE   W01
// 024   ----------------------------------------
 BYTE   TIE  Ds1
 BYTE   W96
// 025   ----------------------------------------
 BYTE   W92
 BYTE   W03
 BYTE   EOT
 BYTE   W01
// 026   ----------------------------------------
 BYTE   N92  As0
 BYTE   W96
// 027   ----------------------------------------
 BYTE   An0
 BYTE   W96
// 028   ----------------------------------------
 BYTE   Gn1  v052
 BYTE   W96
// 029   ----------------------------------------
 BYTE   N92
 BYTE   W96
// 030   ----------------------------------------
 BYTE   As0
 BYTE   W96
// 031   ----------------------------------------
 BYTE   N92
 BYTE   W96
// 032   ----------------------------------------
 BYTE   Cn1
 BYTE   W96
// 033   ----------------------------------------
 BYTE   Fn1
 BYTE   W96
// 034   ----------------------------------------
 BYTE   Dn1
 BYTE   W96
// 035   ----------------------------------------
 BYTE   N92
 BYTE   W96
// 036   ----------------------------------------
 BYTE   TIE  Bn0  v080
 BYTE   W96
// 037   ----------------------------------------
 BYTE   W92
 BYTE   W03
 BYTE   EOT
 BYTE   W01
// 038   ----------------------------------------
 BYTE   TIE
 BYTE   W96
// 039   ----------------------------------------
 BYTE   W92
 BYTE   W03
 BYTE   EOT
 BYTE   W01
// 040   ----------------------------------------
 BYTE   TIE  An0
 BYTE   W96
// 041   ----------------------------------------
 BYTE   W92
 BYTE   W03
 BYTE   EOT
 BYTE   W01
// 042   ----------------------------------------
 BYTE   TIE  Gn0
 BYTE   W96
// 043   ----------------------------------------
 BYTE   W92
 BYTE   W03
 BYTE   EOT
 BYTE   W01
// 044   ----------------------------------------
 BYTE   TIE  Gs0
 BYTE   W96
// 045   ----------------------------------------
 BYTE   W92
 BYTE   W03
 BYTE   EOT
 BYTE   W01
// 046   ----------------------------------------
 BYTE   TIE
 BYTE   W96
// 047   ----------------------------------------
 BYTE   W92
 BYTE   W03
 BYTE   EOT
 BYTE   W01
// 048   ----------------------------------------
 BYTE   N16  Fs0  v096
 BYTE   W03
 BYTE   W01
 BYTE   W01
 BYTE   W19
 BYTE   TIE  Fs0  v080
 BYTE   W72
// 049   ----------------------------------------
 BYTE   W92
 BYTE   W03
 BYTE   EOT
 BYTE   W01
// 050   ----------------------------------------
 BYTE   N16  En0  v096
 BYTE   W03
 BYTE   W01
 BYTE   W01
 BYTE   W19
 BYTE   TIE  En0  v080
 BYTE   W72
// 051   ----------------------------------------
 BYTE   W92
 BYTE   W03
 BYTE   EOT
 BYTE   W01
// 052   ----------------------------------------
 BYTE   W96
// 053   ----------------------------------------
 BYTE   W96
// 054   ----------------------------------------
 BYTE   W96
// 055   ----------------------------------------
 BYTE   W96
// 056   ----------------------------------------
 BYTE   W96
// 057   ----------------------------------------
 BYTE   W96
// 058   ----------------------------------------
 BYTE   W96
// 059   ----------------------------------------
 BYTE   W96
// 060   ----------------------------------------
 BYTE   W96
// 061   ----------------------------------------
 BYTE   W96
// 062   ----------------------------------------
 BYTE   W96
// 063   ----------------------------------------
 BYTE   W96
// 064   ----------------------------------------
 BYTE   W96
// 065   ----------------------------------------
 BYTE   W96
// 066   ----------------------------------------
 BYTE   W96
// 067   ----------------------------------------
 BYTE   W96
// 068   ----------------------------------------
 BYTE   W96
// 069   ----------------------------------------
 BYTE   W96
// 070   ----------------------------------------
 BYTE   W96
// 071   ----------------------------------------
 BYTE   W96
// 072   ----------------------------------------
 BYTE   W96
// 073   ----------------------------------------
 BYTE   N92  Gn0
 BYTE   W96
// 074   ----------------------------------------
 BYTE   GoTo
  POIN2 Label_2_0114EDB0
// 075   ----------------------------------------
 BYTE   W96
 BYTE   FINE

//**************** Track 4 (Midi-Chn.3) ****************//

Roar_004:
// 000   ----------------------------------------
 BYTE   KEYSH   Roar_key+0
 BYTE   VOICE   42
 BYTE   VOL   39*Roar_mvl/mxv
 BYTE   PAN   c_v+0
 BYTE   VOL   39*Roar_mvl/mxv
 BYTE   PAN   c_v+0
 BYTE   W96
// 001   ----------------------------------------
Label_3_01150781:
 BYTE   W96
// 002   ----------------------------------------
 BYTE   W96
// 003   ----------------------------------------
 BYTE   W96
// 004   ----------------------------------------
 BYTE   N05  Dn4  v064
 BYTE   W06
 BYTE   N05
 BYTE   W06
 BYTE   As3
 BYTE   W06
 BYTE   N05
 BYTE   W06
 BYTE   Gn3
 BYTE   W06
 BYTE   N05
 BYTE   W06
 BYTE   Dn4
 BYTE   W06
 BYTE   N05
 BYTE   W06
 BYTE   As3
 BYTE   W06
 BYTE   N05
 BYTE   W06
 BYTE   Gn3
 BYTE   W06
 BYTE   N05
 BYTE   W06
 BYTE   Gn4
 BYTE   W06
 BYTE   N05
 BYTE   W06
 BYTE   As3
 BYTE   W06
 BYTE   N05
 BYTE   W06
// 005   ----------------------------------------
 BYTE   Gn3
 BYTE   W06
 BYTE   N05
 BYTE   W06
 BYTE   Ds4
 BYTE   W06
 BYTE   N05
 BYTE   W06
 BYTE   As3
 BYTE   W06
 BYTE   N05
 BYTE   W06
 BYTE   Gn3
 BYTE   W06
 BYTE   N05
 BYTE   W06
 BYTE   Dn4
 BYTE   W06
 BYTE   N05
 BYTE   W06
 BYTE   As3
 BYTE   W06
 BYTE   N05
 BYTE   W06
 BYTE   Gn3
 BYTE   W06
 BYTE   N05
 BYTE   W06
 BYTE   Cn4
 BYTE   W06
 BYTE   N05
 BYTE   W06
// 006   ----------------------------------------
 BYTE   As3
 BYTE   W06
 BYTE   N05
 BYTE   W06
 BYTE   Gn3
 BYTE   W06
 BYTE   N05
 BYTE   W06
 BYTE   Dn4
 BYTE   W06
 BYTE   N05
 BYTE   W06
 BYTE   As3
 BYTE   W06
 BYTE   N05
 BYTE   W06
 BYTE   Gn3
 BYTE   W06
 BYTE   N05
 BYTE   W06
 BYTE   Dn4
 BYTE   W06
 BYTE   N05
 BYTE   W06
 BYTE   As3
 BYTE   W06
 BYTE   N05
 BYTE   W06
 BYTE   Gn3
 BYTE   W06
 BYTE   N05
 BYTE   W06
// 007   ----------------------------------------
 BYTE   Gn4
 BYTE   W06
 BYTE   N05
 BYTE   W06
 BYTE   As3
 BYTE   W06
 BYTE   N05
 BYTE   W06
 BYTE   Gn3
 BYTE   W06
 BYTE   N05
 BYTE   W06
 BYTE   Ds4
 BYTE   W06
 BYTE   N05
 BYTE   W06
 BYTE   As3
 BYTE   W06
 BYTE   N05
 BYTE   W06
 BYTE   Ds4
 BYTE   W06
 BYTE   N05
 BYTE   W06
 BYTE   Fn4
 BYTE   W06
 BYTE   N05
 BYTE   W06
 BYTE   Gn4
 BYTE   W06
 BYTE   N05
 BYTE   W06
// 008   ----------------------------------------
 BYTE   N92  En3
 BYTE   W96
// 009   ----------------------------------------
 BYTE   W96
// 010   ----------------------------------------
 BYTE   N92
 BYTE   W96
// 011   ----------------------------------------
 BYTE   W96
// 012   ----------------------------------------
 BYTE   N92
 BYTE   W96
// 013   ----------------------------------------
 BYTE   W96
// 014   ----------------------------------------
 BYTE   N92
 BYTE   W96
// 015   ----------------------------------------
 BYTE   W96
// 016   ----------------------------------------
 BYTE   W48
Label_3_01150814:
 BYTE   N05  As3  v064
 BYTE   N05  As4
 BYTE   W06
 BYTE   Cn4
 BYTE   N05  Cn5
 BYTE   W06
 BYTE   Cs4
 BYTE   N05  Cs5
 BYTE   W06
 BYTE   Cn4
 BYTE   N05  Cn5
 BYTE   W06
 BYTE   Cs4
 BYTE   N05  Cs5
 BYTE   W06
 BYTE   Ds4
 BYTE   N05  Ds5
 BYTE   W06
 BYTE   Cn4
 BYTE   N05  Cn5
 BYTE   W06
 BYTE   Cs4
 BYTE   N05  Cs5
 BYTE   W06
// 017   ----------------------------------------
 BYTE   Ds4
 BYTE   N05  Ds5
 BYTE   W06
 BYTE   Fn4
 BYTE   N05  Fn5
 BYTE   W06
 BYTE   Cn4
 BYTE   N05  Cn5
 BYTE   W06
 BYTE   Cs4
 BYTE   N05  Cs5
 BYTE   W06
 BYTE   Fn4
 BYTE   N05  Fn5
 BYTE   W06
 BYTE   Fs4
 BYTE   N05  Fs5
 BYTE   W06
 BYTE   Fn4
 BYTE   N05  Fn5
 BYTE   W12
 BYTE   PEND 
Label_3_01150853:
 BYTE   N05  As3  v064
 BYTE   N05  As4
 BYTE   W06
 BYTE   Cn4
 BYTE   N05  Cn5
 BYTE   W06
 BYTE   Cs4
 BYTE   N05  Cs5
 BYTE   W06
 BYTE   Cn4
 BYTE   N05  Cn5
 BYTE   W06
 BYTE   Cs4
 BYTE   N05  Cs5
 BYTE   W06
 BYTE   Ds4
 BYTE   N05  Ds5
 BYTE   W06
 BYTE   Cs4
 BYTE   N05  Cs5
 BYTE   W06
 BYTE   Ds4
 BYTE   N05  Ds5
 BYTE   W06
// 018   ----------------------------------------
 BYTE   Fn4
 BYTE   N05  Fn5
 BYTE   W06
 BYTE   Fs4
 BYTE   N05  Fs5
 BYTE   W06
 BYTE   Fn4
 BYTE   N05  Fn5
 BYTE   W06
 BYTE   Fs4
 BYTE   N05  Fs5
 BYTE   W06
 BYTE   Gs4
 BYTE   N05  Gs5
 BYTE   W06
 BYTE   Fs4
 BYTE   N05  Fs5
 BYTE   W06
 BYTE   Fn4
 BYTE   N05  Fn5
 BYTE   W06
 BYTE   Ds4
 BYTE   N05  Ds5
 BYTE   W06
 BYTE   PEND 
// 019   ----------------------------------------
 BYTE   PATT
  POIN2 Label_3_01150814
// 020   ----------------------------------------
 BYTE   PATT
  POIN2 Label_3_01150853
// 021   ----------------------------------------
 BYTE   PATT
  POIN2 Label_3_01150814
// 022   ----------------------------------------
 BYTE   PATT
  POIN2 Label_3_01150853
// 023   ----------------------------------------
 BYTE   PATT
  POIN2 Label_3_01150814
// 024   ----------------------------------------
 BYTE   PATT
  POIN2 Label_3_01150853
// 025   ----------------------------------------
 BYTE   N05  As3  v064
 BYTE   W06
 BYTE   Cn4
 BYTE   W06
 BYTE   Cs4
 BYTE   W06
 BYTE   Cn4
 BYTE   W06
 BYTE   Cs4
 BYTE   W06
 BYTE   Ds4
 BYTE   W06
 BYTE   Cn4
 BYTE   W06
 BYTE   Cs4
 BYTE   W06
 BYTE   Ds4
 BYTE   W06
 BYTE   Fn4
 BYTE   W06
 BYTE   Cn4
 BYTE   W06
 BYTE   Cs4
 BYTE   W06
 BYTE   Fn4
 BYTE   W06
 BYTE   Fs4
 BYTE   W06
 BYTE   Fn4
 BYTE   W12
// 026   ----------------------------------------
 BYTE   As3
 BYTE   W06
 BYTE   Cn4
 BYTE   W06
 BYTE   Cs4
 BYTE   W06
 BYTE   Cn4
 BYTE   W06
 BYTE   Cs4
 BYTE   W06
 BYTE   Ds4
 BYTE   W06
 BYTE   Cs4
 BYTE   W06
 BYTE   Ds4
 BYTE   W06
 BYTE   Fn4
 BYTE   W06
 BYTE   Fs4
 BYTE   W06
 BYTE   Fn4
 BYTE   W06
 BYTE   Fs4
 BYTE   W06
 BYTE   Gs4
 BYTE   W06
 BYTE   Fs4
 BYTE   W06
 BYTE   Fn4
 BYTE   W06
 BYTE   Ds4
 BYTE   W06
// 027   ----------------------------------------
 BYTE   As4
 BYTE   W06
 BYTE   Fn4
 BYTE   W06
 BYTE   As3
 BYTE   W06
 BYTE   Fn4
 BYTE   W06
 BYTE   As3
 BYTE   W06
 BYTE   Fn4
 BYTE   W06
 BYTE   As4
 BYTE   W06
 BYTE   Fn4
 BYTE   W06
 BYTE   As3
 BYTE   W06
 BYTE   Fn4
 BYTE   W06
 BYTE   As3
 BYTE   W06
 BYTE   Fn4
 BYTE   W06
 BYTE   As4
 BYTE   W06
 BYTE   Fn4
 BYTE   W06
 BYTE   As3
 BYTE   W06
 BYTE   Fn4
 BYTE   W06
// 028   ----------------------------------------
 BYTE   An4
 BYTE   W06
 BYTE   Fs4
 BYTE   W06
 BYTE   Dn4
 BYTE   W06
 BYTE   Fs4
 BYTE   W06
 BYTE   Dn4
 BYTE   W06
 BYTE   Fs4
 BYTE   W06
 BYTE   An4
 BYTE   W06
 BYTE   Fs4
 BYTE   W06
 BYTE   Dn4
 BYTE   W06
 BYTE   Fs4
 BYTE   W06
 BYTE   Dn4
 BYTE   W06
 BYTE   Fs4
 BYTE   W06
 BYTE   An4
 BYTE   W06
 BYTE   Fs4
 BYTE   W06
 BYTE   Dn4
 BYTE   W06
 BYTE   Fs4
 BYTE   W06
// 029   ----------------------------------------
 BYTE   TIE  Dn4
 BYTE   W96
// 030   ----------------------------------------
 BYTE   W44
 BYTE   W03
 BYTE   EOT
 BYTE   W01
 BYTE   N92  Ds4
 BYTE   W48
// 031   ----------------------------------------
 BYTE   W48
 BYTE   Fn4
 BYTE   W48
// 032   ----------------------------------------
 BYTE   W48
 BYTE   Gn4
 BYTE   W48
// 033   ----------------------------------------
 BYTE   W48
 BYTE   An4
 BYTE   W48
// 034   ----------------------------------------
 BYTE   W48
 BYTE   As4
 BYTE   W48
// 035   ----------------------------------------
 BYTE   W48
 BYTE   Cn5
 BYTE   W48
// 036   ----------------------------------------
 BYTE   W48
 BYTE   N68  Dn5
 BYTE   W48
// 037   ----------------------------------------
 BYTE   W24
 BYTE   N44  Cs5
 BYTE   W48
 BYTE   Bn4
 BYTE   W24
// 038   ----------------------------------------
 BYTE   W24
 BYTE   N92  Cs5
 BYTE   W72
// 039   ----------------------------------------
 BYTE   W24
 BYTE   N44  Bn4
 BYTE   W48
 BYTE   N68  An4
 BYTE   W24
// 040   ----------------------------------------
 BYTE   W48
 BYTE   Cs5
 BYTE   W48
// 041   ----------------------------------------
 BYTE   W24
 BYTE   N44  Bn4
 BYTE   N44  Fs5
 BYTE   W48
 BYTE   N68  An4
 BYTE   N68  Gn5
 BYTE   W24
// 042   ----------------------------------------
 BYTE   W48
 BYTE   N44  Bn4
 BYTE   N44  Fs5
 BYTE   W48
// 043   ----------------------------------------
 BYTE   N92  An4
 BYTE   N92  Fs5
 BYTE   W96
// 044   ----------------------------------------
 BYTE   An4
 BYTE   N92  An5
 BYTE   W96
// 045   ----------------------------------------
Label_3_0115097F:
 BYTE   N44  As4  v080
 BYTE   W48
 BYTE   Gs4
 BYTE   W48
 BYTE   PEND 
// 046   ----------------------------------------
 BYTE   Ds4
 BYTE   W48
 BYTE   Cs4
 BYTE   W48
// 047   ----------------------------------------
 BYTE   Fs4
 BYTE   W48
 BYTE   Ds4
 BYTE   W48
// 048   ----------------------------------------
 BYTE   Cs4
 BYTE   W48
 BYTE   Ds4
 BYTE   W48
// 049   ----------------------------------------
 BYTE   PATT
  POIN2 Label_3_0115097F
// 050   ----------------------------------------
 BYTE   N44  Bn4  v080
 BYTE   W48
 BYTE   As4
 BYTE   W48
// 051   ----------------------------------------
 BYTE   PATT
  POIN2 Label_3_0115097F
// 052   ----------------------------------------
 BYTE   N44  Cs5  v080
 BYTE   W48
 BYTE   Ds5
 BYTE   W48
// 053   ----------------------------------------
 BYTE   N88  Gs5
 BYTE   W90
 BYTE   N05  En5
 BYTE   W06
// 054   ----------------------------------------
 BYTE   Ds5
 BYTE   W06
 BYTE   En5
 BYTE   W06
 BYTE   As4
 BYTE   W06
 BYTE   Gs4
 BYTE   W06
 BYTE   Ds4
 BYTE   W06
 BYTE   Fs4
 BYTE   W06
 BYTE   En4
 BYTE   W06
 BYTE   Cs4
 BYTE   W06
 BYTE   Ds4
 BYTE   W06
 BYTE   En4
 BYTE   W06
 BYTE   Bn3
 BYTE   W06
 BYTE   As3
 BYTE   W06
 BYTE   Fs3
 BYTE   W06
 BYTE   Gs3
 BYTE   W06
 BYTE   Ds3
 BYTE   W06
 BYTE   Cs3
 BYTE   W06
// 055   ----------------------------------------
 BYTE   N05
 BYTE   W06
 BYTE   Ds3
 BYTE   W06
 BYTE   En3
 BYTE   W06
 BYTE   Cs3
 BYTE   W06
 BYTE   Fs3
 BYTE   W06
 BYTE   En3
 BYTE   W06
 BYTE   Ds3
 BYTE   W06
 BYTE   En3
 BYTE   W06
 BYTE   Cs3
 BYTE   W06
 BYTE   Ds3
 BYTE   W06
 BYTE   Bn2
 BYTE   W06
 BYTE   Cs3
 BYTE   W06
 BYTE   As2
 BYTE   W06
 BYTE   Bn2
 BYTE   W06
 BYTE   Gs2
 BYTE   W06
 BYTE   As2
 BYTE   W06
// 056   ----------------------------------------
Label_3_011509EE:
 BYTE   N05  Cs4  v080
 BYTE   W06
 BYTE   Ds4
 BYTE   W06
 BYTE   En4
 BYTE   W06
 BYTE   Cs4
 BYTE   W06
 BYTE   Fs4
 BYTE   W06
 BYTE   En4
 BYTE   W06
 BYTE   Ds4
 BYTE   W06
 BYTE   En4
 BYTE   W06
 BYTE   Cs4
 BYTE   W06
 BYTE   Ds4
 BYTE   W06
 BYTE   Bn3
 BYTE   W06
 BYTE   Cs4
 BYTE   W06
 BYTE   As3
 BYTE   W06
 BYTE   Bn3
 BYTE   W06
 BYTE   Gs3
 BYTE   W06
 BYTE   As3
 BYTE   W06
 BYTE   PEND 
// 057   ----------------------------------------
 BYTE   PATT
  POIN2 Label_3_011509EE
// 058   ----------------------------------------
 BYTE   N56  Cs4  v096
 BYTE   W60
 BYTE   N11  Ds4
 BYTE   W12
 BYTE   En4
 BYTE   W12
 BYTE   Gs4
 BYTE   W12
// 059   ----------------------------------------
 BYTE   TIE  Fs4
 BYTE   W96
// 060   ----------------------------------------
 BYTE   W44
 BYTE   W03
 BYTE   EOT
 BYTE   W01
 BYTE   N23  Gs4
 BYTE   W24
 BYTE   As4
 BYTE   W24
// 061   ----------------------------------------
 BYTE   N68  Fn4
 BYTE   W72
 BYTE   N23  Gn4
 BYTE   W24
// 062   ----------------------------------------
 BYTE   N44  Gs4
 BYTE   W48
 BYTE   N23  Gn4
 BYTE   W24
 BYTE   Fn4
 BYTE   W24
// 063   ----------------------------------------
 BYTE   N44
 BYTE   W48
 BYTE   N23  Ds4
 BYTE   W24
 BYTE   Cs4
 BYTE   W24
// 064   ----------------------------------------
 BYTE   N15  Cn4
 BYTE   W16
 BYTE   As3
 BYTE   W16
 BYTE   N30  Fn4
 BYTE   W32
 BYTE   N15  Ds4
 BYTE   W16
 BYTE   N30  As4
 BYTE   W16
// 065   ----------------------------------------
 BYTE   W16
 BYTE   N15  Fn4
 BYTE   W08
 BYTE   N23  Cn4  v080
 BYTE   W04
 BYTE   W04
 BYTE   N15  Cn5  v096
 BYTE   W01
 BYTE   W04
 BYTE   W05
 BYTE   W04
 BYTE   W02
 BYTE   N23  Fn3  v088
 BYTE   N15  Cn5  v096
 BYTE   W03
 BYTE   W04
 BYTE   W05
 BYTE   W04
 BYTE   As4
 BYTE   W05
 BYTE   W03
 BYTE   N23  Cn4  v092
 BYTE   W01
 BYTE   W05
 BYTE   W02
 BYTE   N84  Fn5  v096
 BYTE   W02
 BYTE   W05
 BYTE   W04
 BYTE   W05
// 066   ----------------------------------------
 BYTE   N23  Cs3
 BYTE   N23  Cs4
 BYTE   W24
 BYTE   Fs3  v064
 BYTE   W48
 BYTE   N11  Ds5  v096
 BYTE   W12
 BYTE   Fn5
 BYTE   W12
// 067   ----------------------------------------
 BYTE   N23  Gs5
 BYTE   W24
 BYTE   N44  Cs5
 BYTE   W48
 BYTE   N23  Cn5
 BYTE   W24
// 068   ----------------------------------------
 BYTE   Cs5
 BYTE   W24
 BYTE   N44  Ds5
 BYTE   W48
 BYTE   N23  Gs4
 BYTE   W24
// 069   ----------------------------------------
 BYTE   N23
 BYTE   W24
 BYTE   Fs4
 BYTE   W24
 BYTE   Fn4
 BYTE   W24
 BYTE   Gs4
 BYTE   W24
// 070   ----------------------------------------
 BYTE   TIE  As4
 BYTE   W96
// 071   ----------------------------------------
 BYTE   W92
 BYTE   W03
 BYTE   EOT
 BYTE   W01
// 072   ----------------------------------------
Label_3_01150AA9:
 BYTE   N05  As4  v096
 BYTE   W06
 BYTE   Cn5
 BYTE   W06
 BYTE   As4
 BYTE   W06
 BYTE   Cn5
 BYTE   W06
 BYTE   Cs5
 BYTE   W06
 BYTE   Cn5
 BYTE   W06
 BYTE   As4
 BYTE   W06
 BYTE   Fn4
 BYTE   W06
 BYTE   As4
 BYTE   W06
 BYTE   Cn5
 BYTE   W06
 BYTE   As4
 BYTE   W06
 BYTE   Cn5
 BYTE   W06
 BYTE   Cs5
 BYTE   W06
 BYTE   Cn5
 BYTE   W06
 BYTE   As4
 BYTE   W06
 BYTE   Fn4
 BYTE   W06
 BYTE   PEND 
// 073   ----------------------------------------
 BYTE   PATT
  POIN2 Label_3_01150AA9
// 074   ----------------------------------------
 BYTE   W96
// 075   ----------------------------------------
 BYTE   GoTo
  POIN2 Label_3_01150781
// 076   ----------------------------------------
 BYTE   W96
 BYTE   FINE

//**************** Track 5 (Midi-Chn.4) ****************//

Roar_005:
// 000   ----------------------------------------
 BYTE   KEYSH   Roar_key+0
 BYTE   VOICE   42
 BYTE   VOL   39*Roar_mvl/mxv
 BYTE   PAN   c_v+0
 BYTE   VOL   50*Roar_mvl/mxv
 BYTE   PAN   c_v+2
 BYTE   VOL   39*Roar_mvl/mxv
 BYTE   PAN   c_v+0
 BYTE   W96
// 001   ----------------------------------------
Label_4_0114F34D:
 BYTE   W96
// 002   ----------------------------------------
 BYTE   W96
// 003   ----------------------------------------
 BYTE   W96
// 004   ----------------------------------------
 BYTE   W96
// 005   ----------------------------------------
 BYTE   W96
// 006   ----------------------------------------
 BYTE   W96
// 007   ----------------------------------------
 BYTE   W96
// 008   ----------------------------------------
 BYTE   W96
// 009   ----------------------------------------
 BYTE   W96
// 010   ----------------------------------------
 BYTE   W96
// 011   ----------------------------------------
 BYTE   W96
// 012   ----------------------------------------
 BYTE   W96
// 013   ----------------------------------------
 BYTE   W96
// 014   ----------------------------------------
 BYTE   W96
// 015   ----------------------------------------
 BYTE   W96
// 016   ----------------------------------------
 BYTE   W48
 BYTE   W96
// 017   ----------------------------------------
 BYTE   W96
// 018   ----------------------------------------
 BYTE   W96
// 019   ----------------------------------------
 BYTE   W96
// 020   ----------------------------------------
 BYTE   W96
// 021   ----------------------------------------
 BYTE   W96
// 022   ----------------------------------------
 BYTE   W96
// 023   ----------------------------------------
 BYTE   W96
// 024   ----------------------------------------
 BYTE   W96
// 025   ----------------------------------------
 BYTE   W96
// 026   ----------------------------------------
 BYTE   W96
// 027   ----------------------------------------
 BYTE   W96
// 028   ----------------------------------------
Label_4_0114F369:
 BYTE   N44  Dn3  v080
 BYTE   W48
 BYTE   N23  Cn3
 BYTE   W24
 BYTE   As2
 BYTE   W24
 BYTE   PEND 
// 029   ----------------------------------------
 BYTE   An2
 BYTE   W24
 BYTE   N44  Gn2
 BYTE   W48
 BYTE   N11  An2
 BYTE   W12
 BYTE   As2
 BYTE   W12
// 030   ----------------------------------------
 BYTE   PATT
  POIN2 Label_4_0114F369
// 031   ----------------------------------------
 BYTE   N44  An2  v080
 BYTE   W48
 BYTE   N23  As2
 BYTE   W24
 BYTE   N44  Fn3
 BYTE   W24
// 032   ----------------------------------------
 BYTE   W24
 BYTE   Cn3
 BYTE   W48
 BYTE   N23  As2
 BYTE   W24
// 033   ----------------------------------------
 BYTE   An2
 BYTE   W24
 BYTE   As2
 BYTE   W24
 BYTE   Cn3
 BYTE   W24
 BYTE   Fn3
 BYTE   W24
// 034   ----------------------------------------
 BYTE   N02
 BYTE   W02
 BYTE   N44  An3
 BYTE   W44
 BYTE   W02
 BYTE   N23  As3
 BYTE   W24
 BYTE   An3
 BYTE   W24
// 035   ----------------------------------------
 BYTE   N44  Fn3
 BYTE   W48
 BYTE   Dn3
 BYTE   W48
// 036   ----------------------------------------
 BYTE   N23
 BYTE   W24
 BYTE   En3
 BYTE   W24
 BYTE   N68  Fs3
 BYTE   W48
// 037   ----------------------------------------
 BYTE   W24
 BYTE   N23  En3
 BYTE   W24
 BYTE   Dn3
 BYTE   W24
 BYTE   Cs3
 BYTE   W24
// 038   ----------------------------------------
 BYTE   N44  Dn3
 BYTE   W48
 BYTE   N68  En3
 BYTE   W48
// 039   ----------------------------------------
 BYTE   W24
 BYTE   N23  Dn3
 BYTE   W24
 BYTE   Cs3
 BYTE   W24
 BYTE   Bn2
 BYTE   W24
// 040   ----------------------------------------
 BYTE   N44  An2
 BYTE   W48
 BYTE   N68  Bn2
 BYTE   W48
// 041   ----------------------------------------
 BYTE   W24
 BYTE   N23  Cs3
 BYTE   W24
 BYTE   Dn3
 BYTE   W24
 BYTE   En3
 BYTE   W24
// 042   ----------------------------------------
 BYTE   N92  An3
 BYTE   W96
// 043   ----------------------------------------
 BYTE   Bn3
 BYTE   W96
// 044   ----------------------------------------
Label_4_0114F3DA:
 BYTE   N44  As3  v080
 BYTE   W48
 BYTE   Bn3
 BYTE   W48
 BYTE   PEND 
// 045   ----------------------------------------
Label_4_0114F3E1:
 BYTE   N44  As3  v080
 BYTE   W48
 BYTE   Gs3
 BYTE   W48
 BYTE   PEND 
// 046   ----------------------------------------
 BYTE   Cs4
 BYTE   W48
 BYTE   Gs3
 BYTE   W48
// 047   ----------------------------------------
 BYTE   PATT
  POIN2 Label_4_0114F3E1
// 048   ----------------------------------------
 BYTE   PATT
  POIN2 Label_4_0114F3DA
// 049   ----------------------------------------
 BYTE   N44  As3  v080
 BYTE   W48
 BYTE   N44
 BYTE   W48
// 050   ----------------------------------------
 BYTE   Fs3
 BYTE   W48
 BYTE   Bn3
 BYTE   W48
// 051   ----------------------------------------
 BYTE   PATT
  POIN2 Label_4_0114F3E1
// 052   ----------------------------------------
 BYTE   W96
// 053   ----------------------------------------
 BYTE   W96
// 054   ----------------------------------------
 BYTE   W96
// 055   ----------------------------------------
 BYTE   W48
 BYTE   N44  Gs3  v096
 BYTE   W48
// 056   ----------------------------------------
 BYTE   As3
 BYTE   W48
 BYTE   N23  Bn3
 BYTE   W24
 BYTE   Cs4
 BYTE   W24
// 057   ----------------------------------------
 BYTE   N92  Cs3
 BYTE   W96
// 058   ----------------------------------------
 BYTE   N44  Bn3
 BYTE   W48
 BYTE   Fs3
 BYTE   W48
// 059   ----------------------------------------
 BYTE   As3
 BYTE   W48
 BYTE   N23  Cn4
 BYTE   W24
 BYTE   Cs4
 BYTE   W24
// 060   ----------------------------------------
 BYTE   N23
 BYTE   W24
 BYTE   Cn4
 BYTE   W24
 BYTE   N44  Cs4
 BYTE   W48
// 061   ----------------------------------------
 BYTE   N92  Cn4
 BYTE   W96
// 062   ----------------------------------------
 BYTE   Cs4
 BYTE   W96
// 063   ----------------------------------------
 BYTE   N15  Fn3
 BYTE   W16
 BYTE   N15
 BYTE   W16
 BYTE   N30
 BYTE   W32
 BYTE   N15  Ds3
 BYTE   W16
 BYTE   N36  As3
 BYTE   W16
// 064   ----------------------------------------
 BYTE   W24
 BYTE   N68  Fn3
 BYTE   W72
// 065   ----------------------------------------
 BYTE   N92  Cn3
 BYTE   N92  Fn3
 BYTE   W96
// 066   ----------------------------------------
 BYTE   Cn3
 BYTE   N92  Ds3
 BYTE   W96
// 067   ----------------------------------------
 BYTE   Cn3
 BYTE   N92  Fn3
 BYTE   W96
// 068   ----------------------------------------
 BYTE   Cn3
 BYTE   N92  Ds3
 BYTE   W96
// 069   ----------------------------------------
Label_4_0114F451:
 BYTE   N05  As2  v096
 BYTE   W06
 BYTE   Cn3
 BYTE   W06
 BYTE   As2
 BYTE   W06
 BYTE   Cn3
 BYTE   W06
 BYTE   Cs3
 BYTE   W06
 BYTE   Cn3
 BYTE   W06
 BYTE   As2
 BYTE   W06
 BYTE   Fn2
 BYTE   W06
 BYTE   As2
 BYTE   W06
 BYTE   Cn3
 BYTE   W06
 BYTE   As2
 BYTE   W06
 BYTE   Cn3
 BYTE   W06
 BYTE   Cs3
 BYTE   W06
 BYTE   Cn3
 BYTE   W06
 BYTE   As2
 BYTE   W06
 BYTE   Fn2
 BYTE   W06
 BYTE   PEND 
// 070   ----------------------------------------
 BYTE   PATT
  POIN2 Label_4_0114F451
// 071   ----------------------------------------
 BYTE   PATT
  POIN2 Label_4_0114F451
// 072   ----------------------------------------
 BYTE   PATT
  POIN2 Label_4_0114F451
// 073   ----------------------------------------
 BYTE   W96
// 074   ----------------------------------------
 BYTE   GoTo
  POIN2 Label_4_0114F34D
// 075   ----------------------------------------
 BYTE   W96
 BYTE   FINE

//**************** Track 6 (Midi-Chn.5) ****************//

Roar_006:
// 000   ----------------------------------------
 BYTE   KEYSH   Roar_key+0
 BYTE   VOICE   45
 BYTE   VOL   39*Roar_mvl/mxv
 BYTE   PAN   c_v+0
 BYTE   VOL   39*Roar_mvl/mxv
 BYTE   PAN   c_v+0
 BYTE   N05  Dn3  v064
 BYTE   W06
 BYTE   N05
 BYTE   W06
 BYTE   As2
 BYTE   W06
 BYTE   N05
 BYTE   W06
 BYTE   Gn2
 BYTE   W06
 BYTE   N05
 BYTE   W06
 BYTE   Dn3
 BYTE   W06
 BYTE   N05
 BYTE   W06
 BYTE   As2
 BYTE   W06
 BYTE   N05
 BYTE   W06
 BYTE   Gn2
 BYTE   W06
 BYTE   N05
 BYTE   W06
 BYTE   Gn3
 BYTE   W06
 BYTE   N05
 BYTE   W06
 BYTE   As2
 BYTE   W06
 BYTE   N05
 BYTE   W06
// 001   ----------------------------------------
Label_5_0114F4BA:
 BYTE   N05  Gn2  v064
 BYTE   W06
 BYTE   N05
 BYTE   W06
 BYTE   Ds3
 BYTE   W06
 BYTE   N05
 BYTE   W06
 BYTE   As2
 BYTE   W06
 BYTE   N05
 BYTE   W06
 BYTE   Gn2
 BYTE   W06
 BYTE   N05
 BYTE   W06
 BYTE   Dn3
 BYTE   W06
 BYTE   N05
 BYTE   W06
 BYTE   As2
 BYTE   W06
 BYTE   N05
 BYTE   W06
 BYTE   Gn2
 BYTE   W06
 BYTE   N05
 BYTE   W06
 BYTE   Cn3
 BYTE   W06
 BYTE   N05
 BYTE   W06
 BYTE   PEND 
// 002   ----------------------------------------
Label_5_0114F4DD:
 BYTE   N05  As2  v064
 BYTE   W06
 BYTE   N05
 BYTE   W06
 BYTE   Gn2
 BYTE   W06
 BYTE   N05
 BYTE   W06
 BYTE   Dn3
 BYTE   W06
 BYTE   N05
 BYTE   W06
 BYTE   As2
 BYTE   W06
 BYTE   N05
 BYTE   W06
 BYTE   Gn2
 BYTE   W06
 BYTE   N05
 BYTE   W06
 BYTE   Dn3
 BYTE   W06
 BYTE   N05
 BYTE   W06
 BYTE   As2
 BYTE   W06
 BYTE   N05
 BYTE   W06
 BYTE   Gn2
 BYTE   W06
 BYTE   N05
 BYTE   W06
 BYTE   PEND 
// 003   ----------------------------------------
Label_5_0114F500:
 BYTE   N05  Gn3  v064
 BYTE   W06
 BYTE   N05
 BYTE   W06
 BYTE   As2
 BYTE   W06
 BYTE   N05
 BYTE   W06
 BYTE   Gn2
 BYTE   W06
 BYTE   N05
 BYTE   W06
 BYTE   Ds3
 BYTE   W06
 BYTE   N05
 BYTE   W06
 BYTE   As2
 BYTE   W06
 BYTE   N05
 BYTE   W06
 BYTE   Ds3
 BYTE   W06
 BYTE   N05
 BYTE   W06
 BYTE   Fn3
 BYTE   W06
 BYTE   N05
 BYTE   W06
 BYTE   Gn3
 BYTE   W06
 BYTE   N05
 BYTE   W06
 BYTE   PEND 
// 004   ----------------------------------------
Label_5_0114F523:
 BYTE   N05  Dn3  v064
 BYTE   W06
 BYTE   N05
 BYTE   W06
 BYTE   As2
 BYTE   W06
 BYTE   N05
 BYTE   W06
 BYTE   Gn2
 BYTE   W06
 BYTE   N05
 BYTE   W06
 BYTE   Dn3
 BYTE   W06
 BYTE   N05
 BYTE   W06
 BYTE   As2
 BYTE   W06
 BYTE   N05
 BYTE   W06
 BYTE   Gn2
 BYTE   W06
 BYTE   N05
 BYTE   W06
 BYTE   Gn3
 BYTE   W06
 BYTE   N05
 BYTE   W06
 BYTE   As2
 BYTE   W06
 BYTE   N05
 BYTE   W06
 BYTE   PEND 
// 005   ----------------------------------------
 BYTE   PATT
  POIN2 Label_5_0114F4BA
// 006   ----------------------------------------
 BYTE   PATT
  POIN2 Label_5_0114F4DD
// 007   ----------------------------------------
 BYTE   PATT
  POIN2 Label_5_0114F500
// 008   ----------------------------------------
Label_5_0114F555:
 BYTE   N11  Bn2  v064
 BYTE   W12
 BYTE   Gn2
 BYTE   W12
 BYTE   En2
 BYTE   W12
 BYTE   Bn2
 BYTE   W12
 BYTE   Gn2
 BYTE   W12
 BYTE   En2
 BYTE   W12
 BYTE   En3
 BYTE   W12
 BYTE   Gn2
 BYTE   W12
 BYTE   PEND 
// 009   ----------------------------------------
Label_5_0114F568:
 BYTE   N11  En2  v064
 BYTE   W12
 BYTE   Cn3
 BYTE   W12
 BYTE   Gn2
 BYTE   W12
 BYTE   En2
 BYTE   W12
 BYTE   Bn2
 BYTE   W12
 BYTE   Gn2
 BYTE   W12
 BYTE   En2
 BYTE   W12
 BYTE   An2
 BYTE   W12
 BYTE   PEND 
// 010   ----------------------------------------
Label_5_0114F57B:
 BYTE   N11  Gn2  v064
 BYTE   W12
 BYTE   En2
 BYTE   W12
 BYTE   Bn2
 BYTE   W12
 BYTE   Gn2
 BYTE   W12
 BYTE   En2
 BYTE   W12
 BYTE   Bn2
 BYTE   W12
 BYTE   Gn2
 BYTE   W12
 BYTE   En2
 BYTE   W12
 BYTE   PEND 
// 011   ----------------------------------------
 BYTE   En3
 BYTE   W12
 BYTE   Gn2
 BYTE   W12
 BYTE   En2
 BYTE   W12
 BYTE   Cn3
 BYTE   W12
 BYTE   Gn2
 BYTE   W12
 BYTE   Cn3
 BYTE   W12
 BYTE   Dn3
 BYTE   W12
 BYTE   En3
 BYTE   W12
// 012   ----------------------------------------
 BYTE   PATT
  POIN2 Label_5_0114F555
// 013   ----------------------------------------
 BYTE   PATT
  POIN2 Label_5_0114F568
// 014   ----------------------------------------
 BYTE   PATT
  POIN2 Label_5_0114F57B
// 015   ----------------------------------------
 BYTE   N11  En3  v064
 BYTE   W12
 BYTE   Gn2
 BYTE   W12
 BYTE   En2
 BYTE   W12
 BYTE   Cn3
 BYTE   W12
 BYTE   Gn2
 BYTE   W12
 BYTE   Cn3
 BYTE   W12
 BYTE   Dn3
 BYTE   W12
 BYTE   En3
 BYTE   W60
// 016   ----------------------------------------
Label_5_0114F5BF:
 BYTE   N11  Fn3  v064
 BYTE   W12
 BYTE   Cs3
 BYTE   W12
 BYTE   As2
 BYTE   W12
 BYTE   Fn3
 BYTE   W12
 BYTE   Cs3
 BYTE   W12
 BYTE   As2
 BYTE   W12
 BYTE   As3
 BYTE   W12
 BYTE   Cs3
 BYTE   W12
 BYTE   PEND 
// 017   ----------------------------------------
Label_5_0114F5D2:
 BYTE   N11  As2  v064
 BYTE   W12
 BYTE   Fs3
 BYTE   W12
 BYTE   Cs3
 BYTE   W12
 BYTE   As2
 BYTE   W12
 BYTE   Fn3
 BYTE   W12
 BYTE   Cs3
 BYTE   W12
 BYTE   As2
 BYTE   W12
 BYTE   Ds3
 BYTE   W12
 BYTE   PEND 
// 018   ----------------------------------------
Label_5_0114F5E5:
 BYTE   N11  Cs3  v064
 BYTE   W12
 BYTE   As2
 BYTE   W12
 BYTE   Fn3
 BYTE   W12
 BYTE   Cs3
 BYTE   W12
 BYTE   As2
 BYTE   W12
 BYTE   Fn3
 BYTE   W12
 BYTE   Cs3
 BYTE   W12
 BYTE   As2
 BYTE   W12
 BYTE   PEND 
// 019   ----------------------------------------
Label_5_0114F5F8:
 BYTE   N11  As3  v064
 BYTE   W12
 BYTE   Cs3
 BYTE   W12
 BYTE   As2
 BYTE   W12
 BYTE   Fs3
 BYTE   W12
 BYTE   Cs3
 BYTE   W12
 BYTE   Fs3
 BYTE   W12
 BYTE   Gs3
 BYTE   W12
 BYTE   As3
 BYTE   W12
 BYTE   PEND 
// 020   ----------------------------------------
 BYTE   PATT
  POIN2 Label_5_0114F5BF
// 021   ----------------------------------------
 BYTE   PATT
  POIN2 Label_5_0114F5D2
// 022   ----------------------------------------
 BYTE   PATT
  POIN2 Label_5_0114F5E5
// 023   ----------------------------------------
 BYTE   PATT
  POIN2 Label_5_0114F5F8
// 024   ----------------------------------------
 BYTE   N92  Cs3  v080
 BYTE   N44  Fn3
 BYTE   W48
 BYTE   Fs3
 BYTE   W48
// 025   ----------------------------------------
 BYTE   Cs3
 BYTE   N92  Ds3
 BYTE   W48
 BYTE   N44  Cn3
 BYTE   W48
// 026   ----------------------------------------
 BYTE   N44
 BYTE   N44  Ds3
 BYTE   W48
 BYTE   Cs3
 BYTE   N44  Fn3
 BYTE   W48
// 027   ----------------------------------------
 BYTE   N23  Dn3
 BYTE   N23  Fs3
 BYTE   W24
 BYTE   Dn3
 BYTE   N23  Gn3
 BYTE   W24
 BYTE   Dn3
 BYTE   N23  An3
 BYTE   W24
 BYTE   Dn3
 BYTE   N23  As3
 BYTE   W24
// 028   ----------------------------------------
 BYTE   W96
// 029   ----------------------------------------
 BYTE   W96
// 030   ----------------------------------------
 BYTE   W96
// 031   ----------------------------------------
 BYTE   W96
// 032   ----------------------------------------
 BYTE   W96
// 033   ----------------------------------------
 BYTE   W96
// 034   ----------------------------------------
 BYTE   W96
// 035   ----------------------------------------
 BYTE   W96
// 036   ----------------------------------------
 BYTE   W96
// 037   ----------------------------------------
 BYTE   W96
// 038   ----------------------------------------
 BYTE   W96
// 039   ----------------------------------------
 BYTE   W96
// 040   ----------------------------------------
 BYTE   W96
// 041   ----------------------------------------
 BYTE   W96
// 042   ----------------------------------------
 BYTE   W96
// 043   ----------------------------------------
 BYTE   W96
// 044   ----------------------------------------
 BYTE   W96
// 045   ----------------------------------------
 BYTE   W96
// 046   ----------------------------------------
 BYTE   W96
// 047   ----------------------------------------
 BYTE   W96
// 048   ----------------------------------------
 BYTE   W96
// 049   ----------------------------------------
 BYTE   W96
// 050   ----------------------------------------
 BYTE   W96
// 051   ----------------------------------------
 BYTE   W96
// 052   ----------------------------------------
 BYTE   W96
// 053   ----------------------------------------
 BYTE   W96
// 054   ----------------------------------------
 BYTE   W96
// 055   ----------------------------------------
 BYTE   W96
// 056   ----------------------------------------
 BYTE   W96
// 057   ----------------------------------------
 BYTE   W96
// 058   ----------------------------------------
 BYTE   W96
// 059   ----------------------------------------
 BYTE   W96
// 060   ----------------------------------------
 BYTE   W96
// 061   ----------------------------------------
 BYTE   W96
// 062   ----------------------------------------
 BYTE   W96
// 063   ----------------------------------------
 BYTE   W96
// 064   ----------------------------------------
 BYTE   W96
// 065   ----------------------------------------
 BYTE   W96
// 066   ----------------------------------------
 BYTE   W96
// 067   ----------------------------------------
 BYTE   W96
// 068   ----------------------------------------
 BYTE   W96
// 069   ----------------------------------------
 BYTE   W96
// 070   ----------------------------------------
 BYTE   W96
// 071   ----------------------------------------
 BYTE   W96
// 072   ----------------------------------------
 BYTE   W96
// 073   ----------------------------------------
 BYTE   PATT
  POIN2 Label_5_0114F523
// 074   ----------------------------------------
 BYTE   GoTo
  POIN2 Label_5_0114F4BA
// 075   ----------------------------------------
 BYTE   PATT
  POIN2 Label_5_0114F4BA
 BYTE   FINE

//**************** Track 7 (Midi-Chn.6) ****************//

Roar_007:
// 000   ----------------------------------------
 BYTE   KEYSH   Roar_key+0
 BYTE   VOICE   45
 BYTE   VOL   44*Roar_mvl/mxv
 BYTE   PAN   c_v+0
 BYTE   VOL   39*Roar_mvl/mxv
 BYTE   PAN   c_v+0
 BYTE   W96
// 001   ----------------------------------------
Label_6_0114FEED:
 BYTE   W96
// 002   ----------------------------------------
 BYTE   W96
// 003   ----------------------------------------
 BYTE   W96
// 004   ----------------------------------------
 BYTE   W96
// 005   ----------------------------------------
 BYTE   W96
// 006   ----------------------------------------
 BYTE   W96
// 007   ----------------------------------------
 BYTE   W96
// 008   ----------------------------------------
 BYTE   W96
// 009   ----------------------------------------
 BYTE   W96
// 010   ----------------------------------------
 BYTE   W96
// 011   ----------------------------------------
 BYTE   W96
// 012   ----------------------------------------
 BYTE   W96
// 013   ----------------------------------------
 BYTE   W96
// 014   ----------------------------------------
 BYTE   W96
// 015   ----------------------------------------
 BYTE   W96
// 016   ----------------------------------------
 BYTE   W48
 BYTE   W96
// 017   ----------------------------------------
 BYTE   W96
// 018   ----------------------------------------
 BYTE   W96
// 019   ----------------------------------------
 BYTE   W96
// 020   ----------------------------------------
 BYTE   W96
// 021   ----------------------------------------
 BYTE   W96
// 022   ----------------------------------------
 BYTE   W96
// 023   ----------------------------------------
 BYTE   W96
// 024   ----------------------------------------
 BYTE   W96
// 025   ----------------------------------------
 BYTE   W96
// 026   ----------------------------------------
 BYTE   W96
// 027   ----------------------------------------
 BYTE   W96
// 028   ----------------------------------------
 BYTE   W96
// 029   ----------------------------------------
 BYTE   W96
// 030   ----------------------------------------
 BYTE   W96
// 031   ----------------------------------------
 BYTE   W96
// 032   ----------------------------------------
 BYTE   W96
// 033   ----------------------------------------
 BYTE   W96
// 034   ----------------------------------------
 BYTE   W96
// 035   ----------------------------------------
 BYTE   W96
// 036   ----------------------------------------
 BYTE   N23  Dn4  v080
 BYTE   W24
 BYTE   En4
 BYTE   W24
 BYTE   N68  Fs4
 BYTE   W48
// 037   ----------------------------------------
 BYTE   W24
 BYTE   N23  En4
 BYTE   W24
 BYTE   Dn4
 BYTE   W24
 BYTE   Cs4
 BYTE   W24
// 038   ----------------------------------------
 BYTE   N44  Dn4
 BYTE   W48
 BYTE   N68  En4
 BYTE   W48
// 039   ----------------------------------------
 BYTE   W24
 BYTE   N23  Dn4
 BYTE   W24
 BYTE   Cs4
 BYTE   W24
 BYTE   Bn3
 BYTE   W24
// 040   ----------------------------------------
 BYTE   N44  An3
 BYTE   W48
 BYTE   N68  Bn3
 BYTE   W48
// 041   ----------------------------------------
 BYTE   W24
 BYTE   N23  Cs4
 BYTE   W24
 BYTE   Dn4
 BYTE   W24
 BYTE   En4
 BYTE   W24
// 042   ----------------------------------------
 BYTE   N92  An4
 BYTE   W96
// 043   ----------------------------------------
 BYTE   Bn4
 BYTE   W96
// 044   ----------------------------------------
Label_6_0114FF43:
 BYTE   N44  Fs3  v052
 BYTE   N44  As3
 BYTE   N44  Cs4
 BYTE   W48
 BYTE   Gs3
 BYTE   N44  Bn3
 BYTE   N44  Ds4
 BYTE   W48
 BYTE   PEND 
// 045   ----------------------------------------
 BYTE   PATT
  POIN2 Label_6_0114FF43
// 046   ----------------------------------------
 BYTE   PATT
  POIN2 Label_6_0114FF43
// 047   ----------------------------------------
 BYTE   PATT
  POIN2 Label_6_0114FF43
// 048   ----------------------------------------
 BYTE   PATT
  POIN2 Label_6_0114FF43
// 049   ----------------------------------------
 BYTE   PATT
  POIN2 Label_6_0114FF43
// 050   ----------------------------------------
 BYTE   PATT
  POIN2 Label_6_0114FF43
// 051   ----------------------------------------
 BYTE   PATT
  POIN2 Label_6_0114FF43
// 052   ----------------------------------------
 BYTE   W96
// 053   ----------------------------------------
 BYTE   W96
// 054   ----------------------------------------
 BYTE   W96
// 055   ----------------------------------------
 BYTE   W96
// 056   ----------------------------------------
 BYTE   W96
// 057   ----------------------------------------
 BYTE   W96
// 058   ----------------------------------------
 BYTE   W96
// 059   ----------------------------------------
 BYTE   W96
// 060   ----------------------------------------
 BYTE   W96
// 061   ----------------------------------------
 BYTE   W96
// 062   ----------------------------------------
 BYTE   W96
// 063   ----------------------------------------
 BYTE   W96
// 064   ----------------------------------------
 BYTE   N92  Fn3  v064
 BYTE   N92  Cn4
 BYTE   N92  Fn4
 BYTE   W96
// 065   ----------------------------------------
Label_6_0114FF89:
 BYTE   N92  Fn3  v064
 BYTE   N92  As3
 BYTE   N92  Cs4
 BYTE   N92  Fn4
 BYTE   W96
 BYTE   PEND 
// 066   ----------------------------------------
Label_6_0114FF94:
 BYTE   N92  Ds3  v064
 BYTE   N92  As3
 BYTE   N92  Cn4
 BYTE   N92  Fn4
 BYTE   W96
 BYTE   PEND 
// 067   ----------------------------------------
 BYTE   PATT
  POIN2 Label_6_0114FF89
// 068   ----------------------------------------
 BYTE   PATT
  POIN2 Label_6_0114FF94
// 069   ----------------------------------------
 BYTE   PATT
  POIN2 Label_6_0114FF89
// 070   ----------------------------------------
Label_6_0114FFAE:
 BYTE   N92  Fs3  v064
 BYTE   N92  As3
 BYTE   N92  Cs4
 BYTE   N92  Fs4
 BYTE   W96
 BYTE   PEND 
// 071   ----------------------------------------
 BYTE   PATT
  POIN2 Label_6_0114FF89
// 072   ----------------------------------------
 BYTE   PATT
  POIN2 Label_6_0114FFAE
// 073   ----------------------------------------
 BYTE   W96
// 074   ----------------------------------------
 BYTE   GoTo
  POIN2 Label_6_0114FEED
// 075   ----------------------------------------
 BYTE   W96
 BYTE   FINE

//**************** Track 8 (Midi-Chn.7) ****************//

Roar_008:
// 000   ----------------------------------------
 BYTE   KEYSH   Roar_key+0
 BYTE   VOICE   123
 BYTE   VOL   39*Roar_mvl/mxv
 BYTE   PAN   c_v+0
 BYTE   VOL   39*Roar_mvl/mxv
 BYTE   PAN   c_v+0
 BYTE   VOL   39*Roar_mvl/mxv
 BYTE   PAN   c_v+0
 BYTE   VOL   39*Roar_mvl/mxv
 BYTE   PAN   c_v+0
 BYTE   N07  Cn1  v076
 BYTE   N23  Dn1  v052
 BYTE   W12
 BYTE   N07  Cn1  v076
 BYTE   W24
 BYTE   N07
 BYTE   N11  Dn1  v052
 BYTE   W12
 BYTE   N07  Cn1  v076
 BYTE   N23  Cs1  v080
 BYTE   W12
 BYTE   N11  Cn1  v052
 BYTE   W12
 BYTE   N05
 BYTE   W06
 BYTE   N05
 BYTE   W06
 BYTE   Cn1  v056
 BYTE   W06
 BYTE   Cn1  v060
 BYTE   W06
// 001   ----------------------------------------
Label_7_01118635:
 BYTE   N07  Cn1  v076
 BYTE   N23  Dn1  v052
 BYTE   W12
 BYTE   N11  Cn1
 BYTE   W12
 BYTE   N11
 BYTE   W12
 BYTE   N11
 BYTE   W12
 BYTE   N07  Cn1  v076
 BYTE   N23  Dn1  v052
 BYTE   W12
 BYTE   N11  Cn1
 BYTE   W12
 BYTE   N05
 BYTE   W06
 BYTE   N05
 BYTE   W06
 BYTE   N03  Cn1  v076
 BYTE   N05  Dn1  v052
 BYTE   W06
 BYTE   N03  Cn1  v076
 BYTE   N05  Dn1  v052
 BYTE   W06
 BYTE   PEND 
// 002   ----------------------------------------
Label_7_01118660:
 BYTE   N07  Cn1  v076
 BYTE   N23  Dn1  v052
 BYTE   W12
 BYTE   N07  Cn1  v076
 BYTE   W24
 BYTE   N07
 BYTE   N11  Dn1  v052
 BYTE   W12
 BYTE   N07  Cn1  v076
 BYTE   N23  Cs1  v080
 BYTE   W12
 BYTE   N11  Cn1  v052
 BYTE   W12
 BYTE   N05
 BYTE   W06
 BYTE   N05
 BYTE   W06
 BYTE   N05
 BYTE   W06
 BYTE   N05
 BYTE   W06
 BYTE   PEND 
// 003   ----------------------------------------
Label_7_01118684:
 BYTE   N07  Cn1  v076
 BYTE   N23  Dn1  v052
 BYTE   W12
 BYTE   N11  Cn1
 BYTE   W12
 BYTE   N11
 BYTE   W12
 BYTE   N11
 BYTE   W12
 BYTE   N07  Cn1  v076
 BYTE   N23  Dn1  v052
 BYTE   W12
 BYTE   N11  Cn1
 BYTE   W12
 BYTE   N16  Cn1  v076
 BYTE   W12
 BYTE   N05  Dn1  v052
 BYTE   W06
 BYTE   N05
 BYTE   W06
 BYTE   PEND 
// 004   ----------------------------------------
 BYTE   PATT
  POIN2 Label_7_01118660
// 005   ----------------------------------------
 BYTE   PATT
  POIN2 Label_7_01118684
// 006   ----------------------------------------
 BYTE   PATT
  POIN2 Label_7_01118660
// 007   ----------------------------------------
 BYTE   N07  Cn1  v076
 BYTE   N23  Dn1  v052
 BYTE   W12
 BYTE   N11  Cn1
 BYTE   W12
 BYTE   N11
 BYTE   W12
 BYTE   N11
 BYTE   W12
 BYTE   N03  Cn1  v076
 BYTE   N05  Dn1  v052
 BYTE   W06
 BYTE   N17  Cn1  v064
 BYTE   N17  Dn1  v052
 BYTE   W18
 BYTE   N07  Cn1  v076
 BYTE   N11  Dn1  v052
 BYTE   W12
 BYTE   N03  Cn1  v076
 BYTE   N05  Dn1  v052
 BYTE   W06
 BYTE   N03  Cn1  v076
 BYTE   N05  Dn1  v052
 BYTE   W06
// 008   ----------------------------------------
 BYTE   PATT
  POIN2 Label_7_01118660
// 009   ----------------------------------------
 BYTE   PATT
  POIN2 Label_7_01118684
// 010   ----------------------------------------
 BYTE   PATT
  POIN2 Label_7_01118660
// 011   ----------------------------------------
 BYTE   PATT
  POIN2 Label_7_01118684
// 012   ----------------------------------------
 BYTE   PATT
  POIN2 Label_7_01118660
// 013   ----------------------------------------
 BYTE   PATT
  POIN2 Label_7_01118684
// 014   ----------------------------------------
 BYTE   N07  Cn1  v076
 BYTE   N23  Dn1  v052
 BYTE   N02  Ds2  v016
 BYTE   W03
 BYTE   N02
 BYTE   W03
 BYTE   N02
 BYTE   W03
 BYTE   N02
 BYTE   W03
 BYTE   N07  Cn1  v076
 BYTE   N02  Ds2  v016
 BYTE   W03
 BYTE   N02
 BYTE   W03
 BYTE   N02
 BYTE   W03
 BYTE   N02
 BYTE   W03
 BYTE   N02
 BYTE   W03
 BYTE   N02
 BYTE   W03
 BYTE   N02
 BYTE   W03
 BYTE   N02
 BYTE   W03
 BYTE   N07  Cn1  v076
 BYTE   N11  Dn1  v052
 BYTE   N02  Ds2  v016
 BYTE   W03
 BYTE   N02
 BYTE   W03
 BYTE   N02
 BYTE   W03
 BYTE   N02
 BYTE   W03
 BYTE   N07  Cn1  v076
 BYTE   N23  Cs1  v080
 BYTE   N02  Ds2  v016
 BYTE   W03
 BYTE   N02
 BYTE   W03
 BYTE   N02
 BYTE   W03
 BYTE   N02
 BYTE   W03
 BYTE   N11  Cn1  v052
 BYTE   N02  Ds2  v016
 BYTE   W03
 BYTE   N02
 BYTE   W03
 BYTE   N02
 BYTE   W03
 BYTE   N02
 BYTE   W03
 BYTE   N05  Cn1  v052
 BYTE   N02  Ds2  v016
 BYTE   W03
 BYTE   N02
 BYTE   W03
 BYTE   N05  Cn1  v052
 BYTE   N02  Ds2  v016
 BYTE   W03
 BYTE   N02
 BYTE   W03
 BYTE   N05  Cn1  v052
 BYTE   N02  Ds2  v016
 BYTE   W03
 BYTE   N02
 BYTE   W03
 BYTE   N05  Cn1  v052
 BYTE   N02  Ds2  v016
 BYTE   W03
 BYTE   N02
 BYTE   W03
// 015   ----------------------------------------
 BYTE   N07  Cn1  v076
 BYTE   N23  Dn1  v052
 BYTE   N02  Ds2  v016
 BYTE   W03
 BYTE   N02
 BYTE   W03
 BYTE   N02
 BYTE   W03
 BYTE   N02
 BYTE   W03
 BYTE   N11  Cn1  v052
 BYTE   N02  Ds2  v016
 BYTE   W03
 BYTE   N02
 BYTE   W03
 BYTE   N02
 BYTE   W03
 BYTE   N02
 BYTE   W03
 BYTE   N11  Cn1  v052
 BYTE   N02  Ds2  v016
 BYTE   W03
 BYTE   N02
 BYTE   W03
 BYTE   N02
 BYTE   W03
 BYTE   N02
 BYTE   W03
 BYTE   N11  Cn1  v052
 BYTE   N02  Ds2  v016
 BYTE   W03
 BYTE   N02
 BYTE   W03
 BYTE   N02
 BYTE   W03
 BYTE   N02
 BYTE   W03
 BYTE   N07  Cn1  v076
 BYTE   N23  Dn1  v052
 BYTE   N02  Ds2  v016
 BYTE   W03
 BYTE   N02
 BYTE   W03
 BYTE   N02
 BYTE   W03
 BYTE   N02
 BYTE   W03
 BYTE   N11  Cn1  v052
 BYTE   N02  Ds2  v016
 BYTE   W03
 BYTE   N02
 BYTE   W03
 BYTE   N02
 BYTE   W03
 BYTE   N02
 BYTE   W03
 BYTE   N16  Cn1  v076
 BYTE   N02  Ds2  v016
 BYTE   W03
 BYTE   N02
 BYTE   W03
 BYTE   N02
 BYTE   W03
 BYTE   N02
 BYTE   W03
 BYTE   N05  Dn1  v052
 BYTE   N02  Ds2  v016
 BYTE   W03
 BYTE   N02
 BYTE   W03
 BYTE   N05  Dn1  v052
 BYTE   N02  Ds2  v016
 BYTE   W03
 BYTE   N02
 BYTE   W03
// 016   ----------------------------------------
 BYTE   N02
 BYTE   W03
 BYTE   N02
 BYTE   W03
 BYTE   N02
 BYTE   W03
 BYTE   N02
 BYTE   W03
 BYTE   N02
 BYTE   W03
 BYTE   N02
 BYTE   W03
 BYTE   N02
 BYTE   W03
 BYTE   N02
 BYTE   W03
 BYTE   N02
 BYTE   W03
 BYTE   N02
 BYTE   W03
 BYTE   N02
 BYTE   W03
 BYTE   N02
 BYTE   W09
 BYTE   N05
 BYTE   W06
Label_7_01118808:
 BYTE   N07  Cn1  v096
 BYTE   N23  Dn1  v052
 BYTE   W12
 BYTE   N07  Cn1  v096
 BYTE   N05  Fn2  v052
 BYTE   W06
 BYTE   N05
 BYTE   W06
 BYTE   N05
 BYTE   W06
 BYTE   N05
 BYTE   W06
 BYTE   N07  Cn1  v096
 BYTE   N11  Dn1  v052
 BYTE   N05  Fn2
 BYTE   W06
 BYTE   N05
 BYTE   W06
// 017   ----------------------------------------
 BYTE   N07  Cn1  v096
 BYTE   N23  Cs1  v080
 BYTE   W12
 BYTE   N11  Cn1  v064
 BYTE   N05  Fn2  v052
 BYTE   W06
 BYTE   N05
 BYTE   W06
 BYTE   Cn1  v064
 BYTE   N05  Fn2  v052
 BYTE   W06
 BYTE   Cn1  v064
 BYTE   N05  Fn2  v052
 BYTE   W06
 BYTE   Cn1  v064
 BYTE   N05  Fn2  v052
 BYTE   W06
 BYTE   Cn1  v064
 BYTE   N05  Fn2  v052
 BYTE   W06
 BYTE   PEND 
Label_7_01118850:
 BYTE   N07  Cn1  v096
 BYTE   N23  Dn1  v052
 BYTE   W12
 BYTE   N11  Cn1  v064
 BYTE   N05  Fn2  v052
 BYTE   W06
 BYTE   N05
 BYTE   W06
 BYTE   N11  Cn1  v064
 BYTE   N05  Fn2  v052
 BYTE   W06
 BYTE   N05
 BYTE   W06
 BYTE   N11  Cn1  v064
 BYTE   N05  Fn2  v052
 BYTE   W06
 BYTE   N05
 BYTE   W06
// 018   ----------------------------------------
 BYTE   N07  Cn1  v096
 BYTE   N23  Dn1  v052
 BYTE   W12
 BYTE   N11  Cn1  v064
 BYTE   N05  Fn2  v052
 BYTE   W06
 BYTE   N05
 BYTE   W06
 BYTE   N16  Cn1  v096
 BYTE   N05  Fn2  v052
 BYTE   W06
 BYTE   N05
 BYTE   W06
 BYTE   Dn1
 BYTE   N05  Fn2
 BYTE   W06
 BYTE   Dn1
 BYTE   N05  Fn2
 BYTE   W06
 BYTE   PEND 
// 019   ----------------------------------------
 BYTE   PATT
  POIN2 Label_7_01118808
// 020   ----------------------------------------
 BYTE   N07  Cn1  v096
 BYTE   N23  Dn1  v052
 BYTE   W12
 BYTE   N11  Cn1  v064
 BYTE   N05  Fn2  v052
 BYTE   W06
 BYTE   N05
 BYTE   W06
 BYTE   N11  Cn1  v064
 BYTE   N05  Fn2  v052
 BYTE   W06
 BYTE   N05
 BYTE   W06
 BYTE   N11  Cn1  v064
 BYTE   N05  Fn2  v052
 BYTE   W06
 BYTE   N05
 BYTE   W06
 BYTE   N07  Cn1  v096
 BYTE   N23  Dn1  v052
 BYTE   W12
 BYTE   N11  Cn1  v064
 BYTE   N05  Fn2  v052
 BYTE   W06
 BYTE   N05
 BYTE   W06
 BYTE   N16  Cn1  v096
 BYTE   N05  Fn2  v052
 BYTE   W06
 BYTE   N05
 BYTE   W06
 BYTE   Dn1
 BYTE   N01  Fn2  v064
 BYTE   W01
 BYTE   N01
 BYTE   W02
 BYTE   N01
 BYTE   W01
 BYTE   N01
 BYTE   W02
 BYTE   N05  Dn1  v052
 BYTE   N01  Fn2  v064
 BYTE   W01
 BYTE   N01
 BYTE   W02
 BYTE   N01
 BYTE   W01
 BYTE   N01
 BYTE   W02
// 021   ----------------------------------------
 BYTE   PATT
  POIN2 Label_7_01118808
// 022   ----------------------------------------
 BYTE   PATT
  POIN2 Label_7_01118850
// 023   ----------------------------------------
 BYTE   PATT
  POIN2 Label_7_01118808
// 024   ----------------------------------------
 BYTE   N07  Cn1  v096
 BYTE   N23  Dn1  v052
 BYTE   W12
 BYTE   N11  Cn1  v064
 BYTE   N05  Fn2  v052
 BYTE   W06
 BYTE   N05
 BYTE   W06
 BYTE   N11  Cn1  v064
 BYTE   N05  Fn2  v052
 BYTE   W06
 BYTE   N05
 BYTE   W06
 BYTE   N11  Cn1  v064
 BYTE   N05  Fn2  v052
 BYTE   W06
 BYTE   N05
 BYTE   W06
 BYTE   N07  Cn1  v096
 BYTE   N23  Dn1  v052
 BYTE   W12
 BYTE   N11  Cn1  v064
 BYTE   N05  Fn2  v052
 BYTE   W06
 BYTE   N05
 BYTE   W06
 BYTE   Cn1  v096
 BYTE   N07  Dn1  v052
 BYTE   N05  Fn2
 BYTE   W06
 BYTE   N05
 BYTE   W02
 BYTE   Cn1  v096
 BYTE   N07  Dn1  v052
 BYTE   W04
 BYTE   N05  Fn2
 BYTE   W04
 BYTE   Cn1  v096
 BYTE   N07  Dn1  v052
 BYTE   W02
 BYTE   N05  Fn2
 BYTE   W06
// 025   ----------------------------------------
 BYTE   W96
// 026   ----------------------------------------
 BYTE   W96
// 027   ----------------------------------------
 BYTE   W96
// 028   ----------------------------------------
 BYTE   W96
// 029   ----------------------------------------
 BYTE   W96
// 030   ----------------------------------------
 BYTE   W96
// 031   ----------------------------------------
 BYTE   W96
// 032   ----------------------------------------
 BYTE   W96
// 033   ----------------------------------------
 BYTE   W96
// 034   ----------------------------------------
 BYTE   W96
// 035   ----------------------------------------
 BYTE   W96
// 036   ----------------------------------------
 BYTE   W96
// 037   ----------------------------------------
Label_7_01118955:
 BYTE   N11  Fs1  v064
 BYTE   W12
 BYTE   Gs1
 BYTE   W12
 BYTE   N05  Fs1
 BYTE   W06
 BYTE   N05
 BYTE   W06
 BYTE   Gs1
 BYTE   W06
 BYTE   N05
 BYTE   W06
 BYTE   N23  Fs1
 BYTE   W24
 BYTE   N11
 BYTE   W12
 BYTE   Gs1
 BYTE   W12
 BYTE   PEND 
// 038   ----------------------------------------
 BYTE   PATT
  POIN2 Label_7_01118955
// 039   ----------------------------------------
 BYTE   PATT
  POIN2 Label_7_01118955
// 040   ----------------------------------------
 BYTE   PATT
  POIN2 Label_7_01118955
// 041   ----------------------------------------
 BYTE   PATT
  POIN2 Label_7_01118955
// 042   ----------------------------------------
 BYTE   PATT
  POIN2 Label_7_01118955
// 043   ----------------------------------------
 BYTE   N11  Fs1  v064
 BYTE   N11  As1
 BYTE   N92  Fn2  v052
 BYTE   W12
 BYTE   N11  Gs1  v064
 BYTE   W12
 BYTE   N05  Fs1
 BYTE   W06
 BYTE   N05
 BYTE   W06
 BYTE   Gs1
 BYTE   W06
 BYTE   N05
 BYTE   W06
 BYTE   N23  Fs1
 BYTE   W24
 BYTE   N11
 BYTE   W12
 BYTE   Gs1
 BYTE   W12
// 044   ----------------------------------------
 BYTE   Fs1
 BYTE   N02  Ds2  v016
 BYTE   W03
 BYTE   N02
 BYTE   W02
 BYTE   W01
 BYTE   N02
 BYTE   W02
 BYTE   W01
 BYTE   N02
 BYTE   W02
 BYTE   W01
 BYTE   N11  Gs1  v064
 BYTE   N02  Ds2  v020
 BYTE   W02
 BYTE   W01
 BYTE   N02
 BYTE   W02
 BYTE   W01
 BYTE   N02
 BYTE   W02
 BYTE   W01
 BYTE   N02
 BYTE   W02
 BYTE   W01
 BYTE   N05  Fs1  v064
 BYTE   N02  Ds2  v024
 BYTE   W02
 BYTE   W01
 BYTE   N02
 BYTE   W02
 BYTE   W01
 BYTE   N05  Fs1  v064
 BYTE   N02  Ds2  v024
 BYTE   W01
 BYTE   W02
 BYTE   N02
 BYTE   W01
 BYTE   W02
 BYTE   N05  Gs1  v064
 BYTE   N02  Ds2  v028
 BYTE   W01
 BYTE   W02
 BYTE   N02
 BYTE   W01
 BYTE   W02
 BYTE   N05  Gs1  v064
 BYTE   N02  Ds2  v028
 BYTE   W01
 BYTE   W02
 BYTE   N02
 BYTE   W01
 BYTE   W02
 BYTE   N23  Fs1  v064
 BYTE   N02  Ds2  v032
 BYTE   W01
 BYTE   W02
 BYTE   N02
 BYTE   W01
 BYTE   W02
 BYTE   N02
 BYTE   W01
 BYTE   W02
 BYTE   N02
 BYTE   W01
 BYTE   W02
 BYTE   Ds2  v036
 BYTE   W03
 BYTE   N02
 BYTE   W03
 BYTE   N02
 BYTE   W03
 BYTE   N02
 BYTE   W03
 BYTE   N11  Fs1  v064
 BYTE   N02  Ds2  v040
 BYTE   W03
 BYTE   N02
 BYTE   W03
 BYTE   N02
 BYTE   W03
 BYTE   N02
 BYTE   W03
 BYTE   N11  Gs1  v064
 BYTE   N02  Ds2  v044
 BYTE   W03
 BYTE   N02
 BYTE   W02
 BYTE   W01
 BYTE   N02
 BYTE   W02
 BYTE   W01
 BYTE   N02
 BYTE   W02
 BYTE   W01
// 045   ----------------------------------------
 BYTE   N23  Cn1  v080
 BYTE   N11  Fs1  v064
 BYTE   W12
 BYTE   Gs1
 BYTE   W12
 BYTE   N05  Fs1
 BYTE   W06
 BYTE   N05
 BYTE   W06
 BYTE   Gs1
 BYTE   W06
 BYTE   N05
 BYTE   W06
 BYTE   N23  Fs1
 BYTE   W24
 BYTE   N23
 BYTE   W24
// 046   ----------------------------------------
 BYTE   N11  Cn1  v080
 BYTE   N11  Fs1  v064
 BYTE   W12
 BYTE   N23  Cn1  v080
 BYTE   N11  Gs1  v064
 BYTE   W12
 BYTE   N05  Fs1
 BYTE   W06
 BYTE   N05
 BYTE   W06
 BYTE   Gs1
 BYTE   W06
 BYTE   N05
 BYTE   W06
 BYTE   N23  As1
 BYTE   W18
 BYTE   N05  Cn1  v080
 BYTE   W06
 BYTE   N11
 BYTE   N23  Fs1  v064
 BYTE   W12
 BYTE   N05  Cn1  v080
 BYTE   W06
 BYTE   N05
 BYTE   W06
// 047   ----------------------------------------
 BYTE   N23
 BYTE   N11  Fs1  v064
 BYTE   W12
 BYTE   Gs1
 BYTE   W12
 BYTE   N23  Cn1  v080
 BYTE   N05  Fs1  v064
 BYTE   W06
 BYTE   N05
 BYTE   W06
 BYTE   Gs1
 BYTE   W06
 BYTE   N05
 BYTE   W06
 BYTE   N23  Fs1
 BYTE   W24
 BYTE   N23
 BYTE   W12
 BYTE   N05  Cn1  v080
 BYTE   W06
 BYTE   N05
 BYTE   W06
// 048   ----------------------------------------
 BYTE   N23
 BYTE   N11  Fs1  v064
 BYTE   W12
 BYTE   Gs1
 BYTE   W12
 BYTE   N05  Fs1
 BYTE   W06
 BYTE   N05
 BYTE   W06
 BYTE   Gs1
 BYTE   W06
 BYTE   N05
 BYTE   W06
 BYTE   N23  As1
 BYTE   W24
 BYTE   N11  Cn1  v080
 BYTE   N23  Fs1  v064
 BYTE   W12
 BYTE   N11  Cn1  v080
 BYTE   W12
// 049   ----------------------------------------
 BYTE   N11
 BYTE   N11  Fs1  v064
 BYTE   W12
 BYTE   N05  Cn1  v080
 BYTE   N11  Gs1  v064
 BYTE   W06
 BYTE   N05  Cn1  v080
 BYTE   W06
 BYTE   N23
 BYTE   N05  Fs1  v064
 BYTE   W06
 BYTE   N05
 BYTE   W06
 BYTE   Gs1
 BYTE   W06
 BYTE   N05
 BYTE   W06
 BYTE   N23  Fs1
 BYTE   W24
 BYTE   N23
 BYTE   W12
 BYTE   N05  Cn1  v080
 BYTE   W06
 BYTE   N05
 BYTE   W06
// 050   ----------------------------------------
 BYTE   N23
 BYTE   N11  Fs1  v064
 BYTE   W12
 BYTE   Gs1
 BYTE   W12
 BYTE   N05  Fs1
 BYTE   W06
 BYTE   N05
 BYTE   W06
 BYTE   Gs1
 BYTE   W06
 BYTE   N05
 BYTE   W06
 BYTE   N23  As1
 BYTE   W12
 BYTE   N11  Cn1  v080
 BYTE   W12
 BYTE   N11
 BYTE   N23  Fs1  v064
 BYTE   W12
 BYTE   N05  Cn1  v080
 BYTE   W06
 BYTE   N05
 BYTE   W06
// 051   ----------------------------------------
 BYTE   N11
 BYTE   N11  Fs1  v064
 BYTE   W12
 BYTE   Cn1  v080
 BYTE   N11  Gs1  v064
 BYTE   W12
 BYTE   N23  Cn1  v080
 BYTE   N05  Fs1  v064
 BYTE   W06
 BYTE   N05
 BYTE   W06
 BYTE   Gs1
 BYTE   W06
 BYTE   N05
 BYTE   W06
 BYTE   N23  Fs1
 BYTE   W24
 BYTE   N11  Cn1  v080
 BYTE   N23  Fs1  v064
 BYTE   W12
 BYTE   N11  Cn1  v080
 BYTE   W12
// 052   ----------------------------------------
 BYTE   N23
 BYTE   N11  Fs1  v064
 BYTE   W12
 BYTE   Gs1
 BYTE   W12
 BYTE   N05  Fs1
 BYTE   W06
 BYTE   N05
 BYTE   W06
 BYTE   Gs1
 BYTE   W06
 BYTE   N05
 BYTE   W06
 BYTE   N23  As1
 BYTE   W12
 BYTE   N05  Cn1  v080
 BYTE   W06
 BYTE   N05
 BYTE   W06
 BYTE   N11
 BYTE   N23  Fs1  v064
 BYTE   W12
 BYTE   N11  Cn1  v080
 BYTE   W12
// 053   ----------------------------------------
 BYTE   W84
 BYTE   N01  Ds2  v052
 BYTE   W01
 BYTE   N01
 BYTE   W02
 BYTE   N01
 BYTE   W01
 BYTE   N01
 BYTE   W02
 BYTE   N01
 BYTE   W01
 BYTE   N01
 BYTE   W02
 BYTE   N01
 BYTE   W01
 BYTE   N01
 BYTE   W02
// 054   ----------------------------------------
Label_7_01118B44:
 BYTE   N11  Cn1  v080
 BYTE   W12
 BYTE   N05  Cn1  v052
 BYTE   W06
 BYTE   N05
 BYTE   W06
 BYTE   N05
 BYTE   W06
 BYTE   N05
 BYTE   W06
 BYTE   N11  Cn1  v080
 BYTE   W12
 BYTE   N05  Cn1  v052
 BYTE   W06
 BYTE   N05
 BYTE   W06
 BYTE   N05
 BYTE   W06
 BYTE   N05
 BYTE   W06
 BYTE   N05
 BYTE   W06
 BYTE   N05
 BYTE   W06
 BYTE   Cn1  v080
 BYTE   W06
 BYTE   N05
 BYTE   W06
 BYTE   PEND 
// 055   ----------------------------------------
 BYTE   PATT
  POIN2 Label_7_01118B44
// 056   ----------------------------------------
 BYTE   PATT
  POIN2 Label_7_01118B44
// 057   ----------------------------------------
 BYTE   PATT
  POIN2 Label_7_01118B44
// 058   ----------------------------------------
Label_7_01118B79:
 BYTE   N07  Cn1  v096
 BYTE   N11  Dn1  v052
 BYTE   W12
 BYTE   N05  Cn1  v064
 BYTE   W06
 BYTE   N05
 BYTE   W06
 BYTE   N05
 BYTE   W06
 BYTE   N05
 BYTE   W06
 BYTE   N07  Cn1  v096
 BYTE   N11  Dn1  v052
 BYTE   W12
 BYTE   N05  Cn1
 BYTE   W06
 BYTE   N05
 BYTE   W06
 BYTE   N05
 BYTE   W06
 BYTE   N05
 BYTE   W06
 BYTE   N07  Cn1  v096
 BYTE   N23  Dn1  v052
 BYTE   W12
 BYTE   N05  Cn1  v064
 BYTE   W06
 BYTE   N05
 BYTE   W06
 BYTE   PEND 
// 059   ----------------------------------------
Label_7_01118BA8:
 BYTE   N07  Cn1  v096
 BYTE   W12
 BYTE   N05  Cn1  v064
 BYTE   N11  Dn1  v052
 BYTE   W06
 BYTE   N05  Cn1  v064
 BYTE   W06
 BYTE   N05
 BYTE   W06
 BYTE   N05
 BYTE   W06
 BYTE   N07  Cn1  v096
 BYTE   W12
 BYTE   N05  Cn1  v064
 BYTE   N23  Dn1  v052
 BYTE   W06
 BYTE   N05  Cn1  v064
 BYTE   W06
 BYTE   N05
 BYTE   W06
 BYTE   N05
 BYTE   W06
 BYTE   N05
 BYTE   N23  Dn1  v052
 BYTE   W06
 BYTE   N05  Cn1  v064
 BYTE   W06
 BYTE   N03  Cn1  v096
 BYTE   W06
 BYTE   N03
 BYTE   W06
 BYTE   PEND 
// 060   ----------------------------------------
 BYTE   PATT
  POIN2 Label_7_01118B79
// 061   ----------------------------------------
 BYTE   PATT
  POIN2 Label_7_01118BA8
// 062   ----------------------------------------
 BYTE   PATT
  POIN2 Label_7_01118B79
// 063   ----------------------------------------
 BYTE   PATT
  POIN2 Label_7_01118BA8
// 064   ----------------------------------------
 BYTE   N11  Cn1  v080
 BYTE   N11  Dn1  v052
 BYTE   W36
 BYTE   Cn1  v080
 BYTE   N11  Dn1  v052
 BYTE   W36
 BYTE   N23  Cn1  v080
 BYTE   N23  Dn1  v052
 BYTE   W24
// 065   ----------------------------------------
 BYTE   W12
 BYTE   N11  Cn1  v080
 BYTE   N11  Dn1  v052
 BYTE   W36
 BYTE   Cn1  v080
 BYTE   N23  Dn1  v052
 BYTE   W12
 BYTE   N05  Cn1  v036
 BYTE   W06
 BYTE   Cn1  v040
 BYTE   W06
 BYTE   Cn1  v048
 BYTE   N23  Dn1  v052
 BYTE   W06
 BYTE   N05  Cn1  v056
 BYTE   W06
 BYTE   Cn1  v064
 BYTE   N01  Ds2  v052
 BYTE   W01
 BYTE   N01
 BYTE   W02
 BYTE   N01
 BYTE   W01
 BYTE   N01
 BYTE   W02
 BYTE   N05  Cn1  v072
 BYTE   N01  Ds2  v052
 BYTE   W01
 BYTE   N01
 BYTE   W02
 BYTE   N01
 BYTE   W01
 BYTE   N01
 BYTE   W02
// 066   ----------------------------------------
 BYTE   W24
 BYTE   N07  Cn1  v096
 BYTE   N23  Dn1  v052
 BYTE   W12
 BYTE   N11  Cn1
 BYTE   W12
 BYTE   N07  Cn1  v096
 BYTE   N23  Dn1  v052
 BYTE   W12
 BYTE   N11  Cn1
 BYTE   W12
 BYTE   N11
 BYTE   W12
 BYTE   N07  Cn1  v096
 BYTE   N11  Dn1  v052
 BYTE   W12
// 067   ----------------------------------------
Label_7_01118C5C:
 BYTE   N11  Cn1  v052
 BYTE   W12
 BYTE   N07  Cn1  v096
 BYTE   N11  Dn1  v052
 BYTE   W12
 BYTE   N07  Cn1  v096
 BYTE   N11  Dn1  v052
 BYTE   W12
 BYTE   Cn1
 BYTE   W12
 BYTE   N07  Cn1  v096
 BYTE   N23  Dn1  v052
 BYTE   W12
 BYTE   N11  Cn1
 BYTE   W12
 BYTE   N07  Cn1  v096
 BYTE   N23  Dn1  v052
 BYTE   W12
 BYTE   N11  Cn1
 BYTE   W12
 BYTE   PEND 
// 068   ----------------------------------------
 BYTE   N23  Dn1
 BYTE   W24
 BYTE   N07  Cn1  v096
 BYTE   N23  Dn1  v052
 BYTE   W12
 BYTE   N11  Cn1
 BYTE   W12
 BYTE   N07  Cn1  v096
 BYTE   N23  Dn1  v052
 BYTE   W12
 BYTE   N11  Cn1
 BYTE   W12
 BYTE   N11
 BYTE   W12
 BYTE   N07  Cn1  v096
 BYTE   N11  Dn1  v052
 BYTE   W12
// 069   ----------------------------------------
 BYTE   PATT
  POIN2 Label_7_01118C5C
// 070   ----------------------------------------
 BYTE   N07  Cn1  v096
 BYTE   N23  Dn1  v052
 BYTE   W12
 BYTE   N07  Cn1  v096
 BYTE   W24
 BYTE   N07
 BYTE   N11  Dn1  v052
 BYTE   W12
 BYTE   N07  Cn1  v096
 BYTE   N23  Cs1  v080
 BYTE   W12
 BYTE   N11  Cn1  v052
 BYTE   W12
 BYTE   N05
 BYTE   W06
 BYTE   N05
 BYTE   W06
 BYTE   N05
 BYTE   W06
 BYTE   N05
 BYTE   W06
// 071   ----------------------------------------
 BYTE   PATT
  POIN2 Label_7_01118684
// 072   ----------------------------------------
 BYTE   PATT
  POIN2 Label_7_01118660
// 073   ----------------------------------------
 BYTE   N07  Cn1  v076
 BYTE   N23  Dn1  v052
 BYTE   W12
 BYTE   N11  Cn1
 BYTE   W12
 BYTE   N11
 BYTE   W12
 BYTE   N05
 BYTE   W06
 BYTE   N05
 BYTE   W06
 BYTE   N10  Cn1  v096
 BYTE   N15  Dn1  v064
 BYTE   W16
 BYTE   N10  Cn1  v096
 BYTE   N15  Dn1  v064
 BYTE   W16
 BYTE   N10  Cn1  v096
 BYTE   N15  Dn1  v064
 BYTE   W16
// 074   ----------------------------------------
 BYTE   N07  Cn1  v076
 BYTE   N23  Dn1  v052
 BYTE   W12
 BYTE   N07  Cn1  v076
 BYTE   W24
 BYTE   N07
 BYTE   N11  Dn1  v052
 BYTE   W12
 BYTE   N07  Cn1  v076
 BYTE   N23  Cs1  v080
 BYTE   W12
 BYTE   N11  Cn1  v052
 BYTE   W12
 BYTE   N05
 BYTE   W06
 BYTE   N05
 BYTE   W06
 BYTE   Cn1  v056
 BYTE   W06
 BYTE   Cn1  v060
 BYTE   W06
// 075   ----------------------------------------
 BYTE   GoTo
  POIN2 Label_7_01118635
// 076   ----------------------------------------
 BYTE   PATT
  POIN2 Label_7_01118635
 BYTE   FINE

//**************** Track 9 (Midi-Chn.8) ****************//

Roar_009:
// 000   ----------------------------------------
 BYTE   KEYSH   Roar_key+0
 BYTE   VOICE   40
 BYTE   VOL   39*Roar_mvl/mxv
 BYTE   PAN   c_v+0
 BYTE   VOL   39*Roar_mvl/mxv
 BYTE   PAN   c_v+0
 BYTE   N11  Dn2  v064
 BYTE   W12
 BYTE   As1
 BYTE   W12
 BYTE   Gn1
 BYTE   W12
 BYTE   Dn2
 BYTE   W12
 BYTE   As1
 BYTE   W12
 BYTE   Gn1
 BYTE   W12
 BYTE   Gn2
 BYTE   W12
 BYTE   As1
 BYTE   W12
// 001   ----------------------------------------
Label_8_01118D5A:
 BYTE   N11  Gn1  v064
 BYTE   W12
 BYTE   Ds2
 BYTE   W12
 BYTE   As1
 BYTE   W12
 BYTE   Gn1
 BYTE   W12
 BYTE   Dn2
 BYTE   W12
 BYTE   As1
 BYTE   W12
 BYTE   Gn1
 BYTE   W12
 BYTE   Cn2
 BYTE   W12
 BYTE   PEND 
// 002   ----------------------------------------
Label_8_01118D6D:
 BYTE   N11  As1  v064
 BYTE   W12
 BYTE   Gn1
 BYTE   W12
 BYTE   Dn2
 BYTE   W12
 BYTE   As1
 BYTE   W12
 BYTE   Gn1
 BYTE   W12
 BYTE   Dn2
 BYTE   W12
 BYTE   As1
 BYTE   W12
 BYTE   Gn1
 BYTE   W12
 BYTE   PEND 
// 003   ----------------------------------------
Label_8_01118D80:
 BYTE   N11  Gn2  v064
 BYTE   W12
 BYTE   As1
 BYTE   W12
 BYTE   Gn1
 BYTE   W12
 BYTE   Ds2
 BYTE   W12
 BYTE   As1
 BYTE   W12
 BYTE   Ds2
 BYTE   W12
 BYTE   Fn2
 BYTE   W12
 BYTE   Gn2
 BYTE   W12
 BYTE   PEND 
// 004   ----------------------------------------
Label_8_01118D93:
 BYTE   N11  Dn2  v064
 BYTE   W12
 BYTE   As1
 BYTE   W12
 BYTE   Gn1
 BYTE   W12
 BYTE   Dn2
 BYTE   W12
 BYTE   As1
 BYTE   W12
 BYTE   Gn1
 BYTE   W12
 BYTE   Gn2
 BYTE   W12
 BYTE   As1
 BYTE   W12
 BYTE   PEND 
// 005   ----------------------------------------
 BYTE   PATT
  POIN2 Label_8_01118D5A
// 006   ----------------------------------------
 BYTE   PATT
  POIN2 Label_8_01118D6D
// 007   ----------------------------------------
 BYTE   PATT
  POIN2 Label_8_01118D80
// 008   ----------------------------------------
Label_8_01118DB5:
 BYTE   N11  Bn1  v064
 BYTE   W12
 BYTE   Gn1
 BYTE   W12
 BYTE   En1
 BYTE   W12
 BYTE   Bn1
 BYTE   W12
 BYTE   Gn1
 BYTE   W12
 BYTE   En1
 BYTE   W12
 BYTE   En2
 BYTE   W12
 BYTE   Gn1
 BYTE   W12
 BYTE   PEND 
// 009   ----------------------------------------
Label_8_01118DC8:
 BYTE   N11  En1  v064
 BYTE   W12
 BYTE   Cn2
 BYTE   W12
 BYTE   Gn1
 BYTE   W12
 BYTE   En1
 BYTE   W12
 BYTE   Bn1
 BYTE   W12
 BYTE   Gn1
 BYTE   W12
 BYTE   En1
 BYTE   W12
 BYTE   An1
 BYTE   W12
 BYTE   PEND 
// 010   ----------------------------------------
Label_8_01118DDB:
 BYTE   N11  Gn1  v064
 BYTE   W12
 BYTE   En1
 BYTE   W12
 BYTE   Bn1
 BYTE   W12
 BYTE   Gn1
 BYTE   W12
 BYTE   En1
 BYTE   W12
 BYTE   Bn1
 BYTE   W12
 BYTE   Gn1
 BYTE   W12
 BYTE   En1
 BYTE   W12
 BYTE   PEND 
// 011   ----------------------------------------
 BYTE   En2
 BYTE   W12
 BYTE   Gn1
 BYTE   W12
 BYTE   En1
 BYTE   W12
 BYTE   Cn2
 BYTE   W12
 BYTE   Gn1
 BYTE   W12
 BYTE   Cn2
 BYTE   W12
 BYTE   Dn2
 BYTE   W12
 BYTE   En2
 BYTE   W12
// 012   ----------------------------------------
 BYTE   PATT
  POIN2 Label_8_01118DB5
// 013   ----------------------------------------
 BYTE   PATT
  POIN2 Label_8_01118DC8
// 014   ----------------------------------------
 BYTE   PATT
  POIN2 Label_8_01118DDB
// 015   ----------------------------------------
 BYTE   N11  En2  v064
 BYTE   W12
 BYTE   Gn1
 BYTE   W12
 BYTE   En1
 BYTE   W12
 BYTE   Cn2
 BYTE   W12
 BYTE   Gn1
 BYTE   W12
 BYTE   Cn2
 BYTE   W12
 BYTE   Dn2
 BYTE   W12
 BYTE   En2
 BYTE   W60
// 016   ----------------------------------------
Label_8_01118E1F:
 BYTE   N11  Fn2  v080
 BYTE   W12
 BYTE   Cs2
 BYTE   W12
 BYTE   As1
 BYTE   W12
 BYTE   Fn2
 BYTE   W12
 BYTE   Cs2
 BYTE   W12
 BYTE   As1
 BYTE   W12
 BYTE   As2
 BYTE   W12
 BYTE   Cs2
 BYTE   W12
 BYTE   PEND 
// 017   ----------------------------------------
Label_8_01118E32:
 BYTE   N11  As1  v080
 BYTE   W12
 BYTE   Fs2
 BYTE   W12
 BYTE   Cs2
 BYTE   W12
 BYTE   As1
 BYTE   W12
 BYTE   Fn2
 BYTE   W12
 BYTE   Cs2
 BYTE   W12
 BYTE   As1
 BYTE   W12
 BYTE   Ds2
 BYTE   W12
 BYTE   PEND 
// 018   ----------------------------------------
Label_8_01118E45:
 BYTE   N11  Cs2  v080
 BYTE   W12
 BYTE   As1
 BYTE   W12
 BYTE   Fn2
 BYTE   W12
 BYTE   Cs2
 BYTE   W12
 BYTE   As1
 BYTE   W12
 BYTE   Fn2
 BYTE   W12
 BYTE   Cs2
 BYTE   W12
 BYTE   As1
 BYTE   W12
 BYTE   PEND 
// 019   ----------------------------------------
Label_8_01118E58:
 BYTE   N11  As2  v080
 BYTE   W12
 BYTE   Cs2
 BYTE   W12
 BYTE   As1
 BYTE   W12
 BYTE   Fs2
 BYTE   W12
 BYTE   Cs2
 BYTE   W12
 BYTE   Fs2
 BYTE   W12
 BYTE   Gs2
 BYTE   W12
 BYTE   As2
 BYTE   W12
 BYTE   PEND 
// 020   ----------------------------------------
 BYTE   PATT
  POIN2 Label_8_01118E1F
// 021   ----------------------------------------
 BYTE   PATT
  POIN2 Label_8_01118E32
// 022   ----------------------------------------
 BYTE   PATT
  POIN2 Label_8_01118E45
// 023   ----------------------------------------
 BYTE   PATT
  POIN2 Label_8_01118E58
// 024   ----------------------------------------
 BYTE   TIE  Ds2  v064
 BYTE   W96
// 025   ----------------------------------------
 BYTE   W92
 BYTE   W03
 BYTE   EOT
 BYTE   W01
// 026   ----------------------------------------
 BYTE   N92  As1
 BYTE   W96
// 027   ----------------------------------------
 BYTE   An1
 BYTE   W96
// 028   ----------------------------------------
 BYTE   W96
// 029   ----------------------------------------
 BYTE   W96
// 030   ----------------------------------------
 BYTE   W96
// 031   ----------------------------------------
 BYTE   W96
// 032   ----------------------------------------
 BYTE   W96
// 033   ----------------------------------------
 BYTE   W96
// 034   ----------------------------------------
 BYTE   W96
// 035   ----------------------------------------
 BYTE   W96
// 036   ----------------------------------------
Label_8_01118E94:
 BYTE   N03  Bn1  v064
 BYTE   W12
 BYTE   N03
 BYTE   W12
 BYTE   N03
 BYTE   W12
 BYTE   N03
 BYTE   W12
 BYTE   N03
 BYTE   W12
 BYTE   N03
 BYTE   W12
 BYTE   N03
 BYTE   W12
 BYTE   N03
 BYTE   W12
 BYTE   PEND 
// 037   ----------------------------------------
 BYTE   PATT
  POIN2 Label_8_01118E94
// 038   ----------------------------------------
 BYTE   PATT
  POIN2 Label_8_01118E94
// 039   ----------------------------------------
 BYTE   PATT
  POIN2 Label_8_01118E94
// 040   ----------------------------------------
Label_8_01118EB6:
 BYTE   N03  An1  v064
 BYTE   W12
 BYTE   N03
 BYTE   W12
 BYTE   N03
 BYTE   W12
 BYTE   N03
 BYTE   W12
 BYTE   N03
 BYTE   W12
 BYTE   N03
 BYTE   W12
 BYTE   N03
 BYTE   W12
 BYTE   N03
 BYTE   W12
 BYTE   PEND 
// 041   ----------------------------------------
 BYTE   PATT
  POIN2 Label_8_01118EB6
// 042   ----------------------------------------
Label_8_01118ECE:
 BYTE   N03  Gn1  v064
 BYTE   W12
 BYTE   N03
 BYTE   W12
 BYTE   N03
 BYTE   W12
 BYTE   N03
 BYTE   W12
 BYTE   N03
 BYTE   W12
 BYTE   N03
 BYTE   W12
 BYTE   N03
 BYTE   W12
 BYTE   N03
 BYTE   W12
 BYTE   PEND 
// 043   ----------------------------------------
 BYTE   PATT
  POIN2 Label_8_01118ECE
// 044   ----------------------------------------
 BYTE   W96
// 045   ----------------------------------------
 BYTE   W96
// 046   ----------------------------------------
 BYTE   W96
// 047   ----------------------------------------
 BYTE   W96
// 048   ----------------------------------------
 BYTE   W96
// 049   ----------------------------------------
 BYTE   W96
// 050   ----------------------------------------
 BYTE   W96
// 051   ----------------------------------------
 BYTE   W96
// 052   ----------------------------------------
 BYTE   W96
// 053   ----------------------------------------
Label_8_01118EEF:
 BYTE   N05  Cs2  v064
 BYTE   W06
 BYTE   Ds2
 BYTE   W06
 BYTE   En2
 BYTE   W06
 BYTE   Cs2
 BYTE   W06
 BYTE   Fs2
 BYTE   W06
 BYTE   En2
 BYTE   W06
 BYTE   Ds2
 BYTE   W06
 BYTE   En2
 BYTE   W06
 BYTE   Cs2
 BYTE   W06
 BYTE   Ds2
 BYTE   W06
 BYTE   Bn1
 BYTE   W06
 BYTE   Cs2
 BYTE   W06
 BYTE   As1
 BYTE   W06
 BYTE   Bn1
 BYTE   W06
 BYTE   Gs1
 BYTE   W06
 BYTE   As1
 BYTE   W06
 BYTE   PEND 
// 054   ----------------------------------------
 BYTE   PATT
  POIN2 Label_8_01118EEF
// 055   ----------------------------------------
 BYTE   PATT
  POIN2 Label_8_01118EEF
// 056   ----------------------------------------
 BYTE   PATT
  POIN2 Label_8_01118EEF
// 057   ----------------------------------------
 BYTE   N03  Cs3  v076
 BYTE   W03
 BYTE   W01
 BYTE   W01
 BYTE   W01
 BYTE   Gs2
 BYTE   W03
 BYTE   W01
 BYTE   W01
 BYTE   W01
 BYTE   Cs2
 BYTE   W03
 BYTE   W01
 BYTE   W01
 BYTE   W01
 BYTE   Gs2
 BYTE   W03
 BYTE   W01
 BYTE   W01
 BYTE   W01
 BYTE   Cs3
 BYTE   W03
 BYTE   W01
 BYTE   W01
 BYTE   W01
 BYTE   Gs2
 BYTE   W03
 BYTE   W01
 BYTE   W01
 BYTE   W01
 BYTE   Cs2
 BYTE   W03
 BYTE   W01
 BYTE   W01
 BYTE   W01
 BYTE   Gs2
 BYTE   W03
 BYTE   W01
 BYTE   W01
 BYTE   W01
 BYTE   Cs3
 BYTE   W03
 BYTE   W01
 BYTE   W01
 BYTE   W01
 BYTE   Gs2
 BYTE   W03
 BYTE   W01
 BYTE   W01
 BYTE   W01
 BYTE   Cs2
 BYTE   W03
 BYTE   W01
 BYTE   W01
 BYTE   W01
 BYTE   Gs2
 BYTE   W03
 BYTE   W01
 BYTE   W01
 BYTE   W01
 BYTE   Cs3
 BYTE   W03
 BYTE   W01
 BYTE   W01
 BYTE   W01
 BYTE   Gs2
 BYTE   W03
 BYTE   W01
 BYTE   W01
 BYTE   W01
 BYTE   Cs2
 BYTE   W03
 BYTE   W01
 BYTE   W01
 BYTE   W01
 BYTE   Gs2
 BYTE   W03
 BYTE   W01
 BYTE   W01
 BYTE   W01
// 058   ----------------------------------------
 BYTE   Bn2
 BYTE   W03
 BYTE   W01
 BYTE   W01
 BYTE   W01
 BYTE   Fs2
 BYTE   W03
 BYTE   W01
 BYTE   W01
 BYTE   W01
 BYTE   Bn1
 BYTE   W03
 BYTE   W01
 BYTE   W01
 BYTE   W01
 BYTE   Fs2
 BYTE   W03
 BYTE   W01
 BYTE   W01
 BYTE   W01
 BYTE   Bn2
 BYTE   W03
 BYTE   W01
 BYTE   W01
 BYTE   W01
 BYTE   Fs2
 BYTE   W03
 BYTE   W01
 BYTE   W01
 BYTE   W01
 BYTE   Bn1
 BYTE   W03
 BYTE   W01
 BYTE   W01
 BYTE   W01
 BYTE   Fs2
 BYTE   W03
 BYTE   W01
 BYTE   W01
 BYTE   W01
 BYTE   Bn2
 BYTE   W03
 BYTE   W01
 BYTE   W01
 BYTE   W01
 BYTE   Fs2
 BYTE   W03
 BYTE   W01
 BYTE   W01
 BYTE   W01
 BYTE   Bn1
 BYTE   W03
 BYTE   W01
 BYTE   W01
 BYTE   W01
 BYTE   Fs2
 BYTE   W03
 BYTE   W01
 BYTE   W01
 BYTE   W01
 BYTE   Bn2
 BYTE   W03
 BYTE   W01
 BYTE   W01
 BYTE   W01
 BYTE   Fs2
 BYTE   W03
 BYTE   W01
 BYTE   W01
 BYTE   W01
 BYTE   Bn1
 BYTE   W03
 BYTE   W01
 BYTE   W01
 BYTE   W01
 BYTE   Fs2
 BYTE   W03
 BYTE   W01
 BYTE   W01
 BYTE   W01
// 059   ----------------------------------------
Label_8_01118FC3:
 BYTE   N03  As2  v076
 BYTE   W03
 BYTE   W01
 BYTE   W01
 BYTE   W01
 BYTE   Fn2
 BYTE   W03
 BYTE   W01
 BYTE   W01
 BYTE   W01
 BYTE   As1
 BYTE   W03
 BYTE   W01
 BYTE   W01
 BYTE   W01
 BYTE   Fn2
 BYTE   W03
 BYTE   W01
 BYTE   W01
 BYTE   W01
 BYTE   As2
 BYTE   W03
 BYTE   W01
 BYTE   W01
 BYTE   W01
 BYTE   Fn2
 BYTE   W03
 BYTE   W01
 BYTE   W01
 BYTE   W01
 BYTE   As1
 BYTE   W03
 BYTE   W01
 BYTE   W01
 BYTE   W01
 BYTE   Fn2
 BYTE   W03
 BYTE   W01
 BYTE   W01
 BYTE   W01
 BYTE   As2
 BYTE   W03
 BYTE   W01
 BYTE   W01
 BYTE   W01
 BYTE   Fn2
 BYTE   W03
 BYTE   W01
 BYTE   W01
 BYTE   W01
 BYTE   As1
 BYTE   W03
 BYTE   W01
 BYTE   W01
 BYTE   W01
 BYTE   Fn2
 BYTE   W03
 BYTE   W01
 BYTE   W01
 BYTE   W01
 BYTE   As2
 BYTE   W03
 BYTE   W01
 BYTE   W01
 BYTE   W01
 BYTE   Fn2
 BYTE   W03
 BYTE   W01
 BYTE   W01
 BYTE   W01
 BYTE   As1
 BYTE   W03
 BYTE   W01
 BYTE   W01
 BYTE   W01
 BYTE   Fn2
 BYTE   W03
 BYTE   W01
 BYTE   W01
 BYTE   W01
 BYTE   PEND 
// 060   ----------------------------------------
 BYTE   PATT
  POIN2 Label_8_01118FC3
// 061   ----------------------------------------
 BYTE   N03  Fn2  v076
 BYTE   W03
 BYTE   W01
 BYTE   W01
 BYTE   W01
 BYTE   Gs2
 BYTE   W03
 BYTE   W01
 BYTE   W01
 BYTE   W01
 BYTE   Cn3
 BYTE   W03
 BYTE   W01
 BYTE   W01
 BYTE   W01
 BYTE   Gs2
 BYTE   W03
 BYTE   W01
 BYTE   W01
 BYTE   W01
 BYTE   Fn2
 BYTE   W03
 BYTE   W01
 BYTE   W01
 BYTE   W01
 BYTE   Gs2
 BYTE   W03
 BYTE   W01
 BYTE   W01
 BYTE   W01
 BYTE   Cn3
 BYTE   W03
 BYTE   W01
 BYTE   W01
 BYTE   W01
 BYTE   Gs2
 BYTE   W03
 BYTE   W01
 BYTE   W01
 BYTE   W01
 BYTE   Fn2
 BYTE   W03
 BYTE   W01
 BYTE   W01
 BYTE   W01
 BYTE   Gs2
 BYTE   W03
 BYTE   W01
 BYTE   W01
 BYTE   W01
 BYTE   Cn3
 BYTE   W03
 BYTE   W01
 BYTE   W01
 BYTE   W01
 BYTE   Gs2
 BYTE   W03
 BYTE   W01
 BYTE   W01
 BYTE   W01
 BYTE   Fn2
 BYTE   W03
 BYTE   W01
 BYTE   W01
 BYTE   W01
 BYTE   Gs2
 BYTE   W03
 BYTE   W01
 BYTE   W01
 BYTE   W01
 BYTE   Cn3
 BYTE   W03
 BYTE   W01
 BYTE   W01
 BYTE   W01
 BYTE   Gs2
 BYTE   W03
 BYTE   W01
 BYTE   W01
 BYTE   W01
// 062   ----------------------------------------
 BYTE   Fn2
 BYTE   W03
 BYTE   W01
 BYTE   W01
 BYTE   W01
 BYTE   Gs2
 BYTE   W03
 BYTE   W01
 BYTE   W01
 BYTE   W01
 BYTE   Cs3
 BYTE   W03
 BYTE   W01
 BYTE   W01
 BYTE   W01
 BYTE   Gs2
 BYTE   W03
 BYTE   W01
 BYTE   W01
 BYTE   W01
 BYTE   Fn2
 BYTE   W03
 BYTE   W01
 BYTE   W01
 BYTE   W01
 BYTE   Gs2
 BYTE   W03
 BYTE   W01
 BYTE   W01
 BYTE   W01
 BYTE   Cs3
 BYTE   W03
 BYTE   W01
 BYTE   W01
 BYTE   W01
 BYTE   Gs2
 BYTE   W03
 BYTE   W01
 BYTE   W01
 BYTE   W01
 BYTE   Fn2
 BYTE   W03
 BYTE   W01
 BYTE   W01
 BYTE   W01
 BYTE   Gs2
 BYTE   W03
 BYTE   W01
 BYTE   W01
 BYTE   W01
 BYTE   Cs3
 BYTE   W03
 BYTE   W01
 BYTE   W01
 BYTE   W01
 BYTE   Gs2
 BYTE   W03
 BYTE   W01
 BYTE   W01
 BYTE   W01
 BYTE   Fn2
 BYTE   W03
 BYTE   W01
 BYTE   W01
 BYTE   W01
 BYTE   Gs2
 BYTE   W03
 BYTE   W01
 BYTE   W01
 BYTE   W01
 BYTE   Cs3
 BYTE   W03
 BYTE   W01
 BYTE   W01
 BYTE   W01
 BYTE   Gs2
 BYTE   W03
 BYTE   W01
 BYTE   W01
 BYTE   W01
// 063   ----------------------------------------
 BYTE   N07  Cn2
 BYTE   W03
 BYTE   W01
 BYTE   W01
 BYTE   W07
 BYTE   As1
 BYTE   W03
 BYTE   W01
 BYTE   W01
 BYTE   W07
 BYTE   Gs1
 BYTE   W03
 BYTE   W01
 BYTE   W01
 BYTE   W07
 BYTE   Gn1
 BYTE   W03
 BYTE   W01
 BYTE   W01
 BYTE   W07
 BYTE   Gs1
 BYTE   W03
 BYTE   W01
 BYTE   W01
 BYTE   W07
 BYTE   Gn1
 BYTE   W03
 BYTE   W01
 BYTE   W01
 BYTE   W07
 BYTE   Fn1
 BYTE   W03
 BYTE   W01
 BYTE   W01
 BYTE   W07
 BYTE   Ds1
 BYTE   W03
 BYTE   W01
 BYTE   W01
 BYTE   W07
// 064   ----------------------------------------
 BYTE   W12
 BYTE   An1
 BYTE   W03
 BYTE   W01
 BYTE   W01
 BYTE   W07
 BYTE   Gn1
 BYTE   W03
 BYTE   W01
 BYTE   W01
 BYTE   W07
 BYTE   Fn1
 BYTE   W03
 BYTE   W01
 BYTE   W01
 BYTE   W07
 BYTE   Cn2
 BYTE   W03
 BYTE   W01
 BYTE   W01
 BYTE   W07
 BYTE   As1
 BYTE   W03
 BYTE   W01
 BYTE   W01
 BYTE   W07
 BYTE   N03  An1
 BYTE   W03
 BYTE   W01
 BYTE   W01
 BYTE   W01
 BYTE   Gn1
 BYTE   W03
 BYTE   W01
 BYTE   W01
 BYTE   W01
 BYTE   N07  Fn1
 BYTE   W03
 BYTE   W01
 BYTE   W01
 BYTE   W07
// 065   ----------------------------------------
 BYTE   W24
 BYTE   TIE  Fs1  v064
 BYTE   W72
// 066   ----------------------------------------
 BYTE   W92
 BYTE   W03
 BYTE   EOT
 BYTE   W01
// 067   ----------------------------------------
 BYTE   TIE
 BYTE   W96
// 068   ----------------------------------------
 BYTE   W92
 BYTE   W03
 BYTE   EOT
 BYTE   W01
// 069   ----------------------------------------
Label_8_01119120:
 BYTE   N07  As1  v076
 BYTE   W03
 BYTE   W01
 BYTE   W01
 BYTE   W07
 BYTE   N07
 BYTE   W03
 BYTE   W01
 BYTE   W01
 BYTE   W19
 BYTE   N07
 BYTE   W03
 BYTE   W01
 BYTE   W01
 BYTE   W07
 BYTE   N07
 BYTE   W03
 BYTE   W01
 BYTE   W01
 BYTE   W07
 BYTE   N07
 BYTE   W03
 BYTE   W01
 BYTE   W01
 BYTE   W07
 BYTE   N03
 BYTE   W03
 BYTE   W01
 BYTE   W01
 BYTE   W01
 BYTE   N03
 BYTE   W03
 BYTE   W01
 BYTE   W01
 BYTE   W01
 BYTE   N03
 BYTE   W03
 BYTE   W01
 BYTE   W01
 BYTE   W01
 BYTE   N03
 BYTE   W03
 BYTE   W01
 BYTE   W01
 BYTE   W01
 BYTE   PEND 
// 070   ----------------------------------------
 BYTE   PATT
  POIN2 Label_8_01119120
// 071   ----------------------------------------
 BYTE   PATT
  POIN2 Label_8_01119120
// 072   ----------------------------------------
 BYTE   PATT
  POIN2 Label_8_01119120
// 073   ----------------------------------------
 BYTE   PATT
  POIN2 Label_8_01118D93
// 074   ----------------------------------------
 BYTE   GoTo
  POIN2 Label_8_01118D5A
// 075   ----------------------------------------
 BYTE   PATT
  POIN2 Label_8_01118D5A
 BYTE   FINE

//**************** Track 10 (Midi-Chn.9) ****************//

Roar_010:
// 000   ----------------------------------------
 BYTE   KEYSH   Roar_key+0
 BYTE   VOICE   45
 BYTE   VOL   39*Roar_mvl/mxv
 BYTE   PAN   c_v+0
 BYTE   VOL   39*Roar_mvl/mxv
 BYTE   PAN   c_v+0
 BYTE   W96
// 001   ----------------------------------------
Label_9_0114EEB1:
 BYTE   W96
// 002   ----------------------------------------
 BYTE   W96
// 003   ----------------------------------------
 BYTE   W96
// 004   ----------------------------------------
 BYTE   W96
// 005   ----------------------------------------
 BYTE   W96
// 006   ----------------------------------------
 BYTE   W96
// 007   ----------------------------------------
 BYTE   W96
// 008   ----------------------------------------
 BYTE   W96
// 009   ----------------------------------------
 BYTE   W96
// 010   ----------------------------------------
 BYTE   W96
// 011   ----------------------------------------
 BYTE   W96
// 012   ----------------------------------------
 BYTE   W96
// 013   ----------------------------------------
 BYTE   W96
// 014   ----------------------------------------
 BYTE   W96
// 015   ----------------------------------------
 BYTE   W96
// 016   ----------------------------------------
 BYTE   W48
 BYTE   W96
// 017   ----------------------------------------
 BYTE   W96
// 018   ----------------------------------------
 BYTE   W96
// 019   ----------------------------------------
 BYTE   W96
// 020   ----------------------------------------
 BYTE   W96
// 021   ----------------------------------------
 BYTE   W96
// 022   ----------------------------------------
 BYTE   W96
// 023   ----------------------------------------
 BYTE   W96
// 024   ----------------------------------------
 BYTE   W96
// 025   ----------------------------------------
 BYTE   W96
// 026   ----------------------------------------
 BYTE   W96
// 027   ----------------------------------------
 BYTE   W96
// 028   ----------------------------------------
 BYTE   W96
// 029   ----------------------------------------
 BYTE   W96
// 030   ----------------------------------------
 BYTE   W96
// 031   ----------------------------------------
 BYTE   W96
// 032   ----------------------------------------
 BYTE   W96
// 033   ----------------------------------------
 BYTE   W96
// 034   ----------------------------------------
 BYTE   W96
// 035   ----------------------------------------
 BYTE   W96
// 036   ----------------------------------------
 BYTE   W96
// 037   ----------------------------------------
 BYTE   W96
// 038   ----------------------------------------
 BYTE   W96
// 039   ----------------------------------------
 BYTE   W96
// 040   ----------------------------------------
 BYTE   W96
// 041   ----------------------------------------
 BYTE   W96
// 042   ----------------------------------------
 BYTE   W96
// 043   ----------------------------------------
 BYTE   W96
// 044   ----------------------------------------
 BYTE   W96
// 045   ----------------------------------------
 BYTE   W96
// 046   ----------------------------------------
 BYTE   W96
// 047   ----------------------------------------
 BYTE   W96
// 048   ----------------------------------------
 BYTE   W96
// 049   ----------------------------------------
 BYTE   W96
// 050   ----------------------------------------
 BYTE   W96
// 051   ----------------------------------------
 BYTE   W96
// 052   ----------------------------------------
 BYTE   N32  Gs1  v080
 BYTE   W36
 BYTE   N05  Fn1
 BYTE   W06
 BYTE   Ds1
 BYTE   W06
 BYTE   Cs1
 BYTE   W06
 BYTE   Cn1
 BYTE   W06
 BYTE   Bn0
 BYTE   W06
 BYTE   As0
 BYTE   W06
 BYTE   An0
 BYTE   W06
 BYTE   Gs0
 BYTE   W06
 BYTE   Gn0
 BYTE   W06
 BYTE   Fs0  v052
 BYTE   W06
// 053   ----------------------------------------
 BYTE   W96
// 054   ----------------------------------------
 BYTE   W96
// 055   ----------------------------------------
 BYTE   W96
// 056   ----------------------------------------
 BYTE   W96
// 057   ----------------------------------------
 BYTE   W96
// 058   ----------------------------------------
 BYTE   W96
// 059   ----------------------------------------
 BYTE   W96
// 060   ----------------------------------------
 BYTE   W96
// 061   ----------------------------------------
 BYTE   W96
// 062   ----------------------------------------
 BYTE   W96
// 063   ----------------------------------------
 BYTE   W96
// 064   ----------------------------------------
 BYTE   W96
// 065   ----------------------------------------
 BYTE   W96
// 066   ----------------------------------------
 BYTE   W96
// 067   ----------------------------------------
 BYTE   W96
// 068   ----------------------------------------
 BYTE   W96
// 069   ----------------------------------------
 BYTE   W96
// 070   ----------------------------------------
 BYTE   W96
// 071   ----------------------------------------
 BYTE   W96
// 072   ----------------------------------------
 BYTE   W96
// 073   ----------------------------------------
 BYTE   W96
// 074   ----------------------------------------
 BYTE   GoTo
  POIN2 Label_9_0114EEB1
// 075   ----------------------------------------
 BYTE   W96
 BYTE   FINE

//**************** Track 11 (Midi-Chn.10) ****************//

Roar_011:
// 000   ----------------------------------------
 BYTE   KEYSH   Roar_key+0
 BYTE   VOICE   45
 BYTE   VOL   39*Roar_mvl/mxv
 BYTE   PAN   c_v+0
 BYTE   VOL   39*Roar_mvl/mxv
 BYTE   PAN   c_v+0
 BYTE   W96
// 001   ----------------------------------------
Label_10_0114FFD9:
 BYTE   W96
// 002   ----------------------------------------
 BYTE   W96
// 003   ----------------------------------------
 BYTE   W96
// 004   ----------------------------------------
 BYTE   W96
// 005   ----------------------------------------
 BYTE   W96
// 006   ----------------------------------------
 BYTE   W96
// 007   ----------------------------------------
 BYTE   W96
// 008   ----------------------------------------
 BYTE   W96
// 009   ----------------------------------------
 BYTE   W96
// 010   ----------------------------------------
 BYTE   W96
// 011   ----------------------------------------
 BYTE   W96
// 012   ----------------------------------------
 BYTE   W96
// 013   ----------------------------------------
 BYTE   W96
// 014   ----------------------------------------
 BYTE   W96
// 015   ----------------------------------------
 BYTE   W96
// 016   ----------------------------------------
 BYTE   W48
 BYTE   W96
// 017   ----------------------------------------
 BYTE   W96
// 018   ----------------------------------------
 BYTE   W96
// 019   ----------------------------------------
 BYTE   W96
// 020   ----------------------------------------
 BYTE   W96
// 021   ----------------------------------------
 BYTE   W96
// 022   ----------------------------------------
 BYTE   W96
// 023   ----------------------------------------
 BYTE   W96
// 024   ----------------------------------------
 BYTE   W96
// 025   ----------------------------------------
 BYTE   W96
// 026   ----------------------------------------
 BYTE   W96
// 027   ----------------------------------------
 BYTE   W96
// 028   ----------------------------------------
 BYTE   W96
// 029   ----------------------------------------
 BYTE   W96
// 030   ----------------------------------------
 BYTE   W96
// 031   ----------------------------------------
 BYTE   W96
// 032   ----------------------------------------
 BYTE   W96
// 033   ----------------------------------------
 BYTE   W96
// 034   ----------------------------------------
 BYTE   W96
// 035   ----------------------------------------
 BYTE   W96
// 036   ----------------------------------------
 BYTE   W96
// 037   ----------------------------------------
 BYTE   W96
// 038   ----------------------------------------
 BYTE   W96
// 039   ----------------------------------------
 BYTE   W96
// 040   ----------------------------------------
 BYTE   W96
// 041   ----------------------------------------
 BYTE   W96
// 042   ----------------------------------------
 BYTE   W96
// 043   ----------------------------------------
 BYTE   W96
// 044   ----------------------------------------
 BYTE   W96
// 045   ----------------------------------------
 BYTE   W96
// 046   ----------------------------------------
 BYTE   W96
// 047   ----------------------------------------
 BYTE   W96
// 048   ----------------------------------------
 BYTE   W96
// 049   ----------------------------------------
 BYTE   W96
// 050   ----------------------------------------
 BYTE   W96
// 051   ----------------------------------------
 BYTE   W96
// 052   ----------------------------------------
 BYTE   W96
// 053   ----------------------------------------
Label_10_0115000E:
 BYTE   N16  Gs0  v060
 BYTE   W03
 BYTE   W01
 BYTE   W01
 BYTE   W19
 BYTE   N16
 BYTE   W03
 BYTE   W01
 BYTE   W01
 BYTE   W19
 BYTE   N07
 BYTE   W03
 BYTE   W01
 BYTE   W01
 BYTE   W07
 BYTE   N07
 BYTE   W03
 BYTE   W01
 BYTE   W01
 BYTE   W30
 BYTE   W01
 BYTE   PEND 
// 054   ----------------------------------------
 BYTE   PATT
  POIN2 Label_10_0115000E
// 055   ----------------------------------------
 BYTE   PATT
  POIN2 Label_10_0115000E
// 056   ----------------------------------------
 BYTE   PATT
  POIN2 Label_10_0115000E
// 057   ----------------------------------------
 BYTE   N16  Cs1  v060
 BYTE   W03
 BYTE   W01
 BYTE   W01
 BYTE   W19
 BYTE   N16
 BYTE   W03
 BYTE   W01
 BYTE   W01
 BYTE   W19
 BYTE   N07
 BYTE   W03
 BYTE   W01
 BYTE   W01
 BYTE   W07
 BYTE   N07
 BYTE   W03
 BYTE   W01
 BYTE   W01
 BYTE   W30
 BYTE   W01
// 058   ----------------------------------------
 BYTE   N16  Bn0
 BYTE   W03
 BYTE   W01
 BYTE   W01
 BYTE   W19
 BYTE   N16
 BYTE   W03
 BYTE   W01
 BYTE   W01
 BYTE   W19
 BYTE   N07
 BYTE   W03
 BYTE   W01
 BYTE   W01
 BYTE   W07
 BYTE   N07
 BYTE   W03
 BYTE   W01
 BYTE   W01
 BYTE   W30
 BYTE   W01
// 059   ----------------------------------------
 BYTE   N16  Ds1
 BYTE   W03
 BYTE   W01
 BYTE   W01
 BYTE   W19
 BYTE   N16
 BYTE   W03
 BYTE   W01
 BYTE   W01
 BYTE   W19
 BYTE   N07
 BYTE   W03
 BYTE   W01
 BYTE   W01
 BYTE   W07
 BYTE   N07
 BYTE   W03
 BYTE   W01
 BYTE   W01
 BYTE   W30
 BYTE   W01
// 060   ----------------------------------------
 BYTE   N16  As0
 BYTE   W03
 BYTE   W01
 BYTE   W01
 BYTE   W19
 BYTE   N16
 BYTE   W03
 BYTE   W01
 BYTE   W01
 BYTE   W19
 BYTE   N07
 BYTE   W03
 BYTE   W01
 BYTE   W01
 BYTE   W07
 BYTE   N07
 BYTE   W03
 BYTE   W01
 BYTE   W01
 BYTE   W30
 BYTE   W01
// 061   ----------------------------------------
Label_10_0115008E:
 BYTE   N16  Fn1  v060
 BYTE   W03
 BYTE   W01
 BYTE   W01
 BYTE   W19
 BYTE   N16
 BYTE   W03
 BYTE   W01
 BYTE   W01
 BYTE   W19
 BYTE   N07
 BYTE   W03
 BYTE   W01
 BYTE   W01
 BYTE   W07
 BYTE   N07
 BYTE   W03
 BYTE   W01
 BYTE   W01
 BYTE   W30
 BYTE   W01
 BYTE   PEND 
// 062   ----------------------------------------
 BYTE   PATT
  POIN2 Label_10_0115008E
// 063   ----------------------------------------
 BYTE   N05  Cn1  v052
 BYTE   W12
 BYTE   As0
 BYTE   W12
 BYTE   Gs0
 BYTE   W12
 BYTE   Gn0
 BYTE   W12
 BYTE   Gs0
 BYTE   W12
 BYTE   Gn0
 BYTE   W12
 BYTE   Fn0
 BYTE   W12
 BYTE   Ds0
 BYTE   W12
// 064   ----------------------------------------
 BYTE   W12
 BYTE   An0
 BYTE   W12
 BYTE   Gn0
 BYTE   W12
 BYTE   Fn0
 BYTE   W12
 BYTE   Cn1
 BYTE   W12
 BYTE   As0
 BYTE   W12
 BYTE   An0
 BYTE   W06
 BYTE   Gn0
 BYTE   W06
 BYTE   Fn0
 BYTE   W12
// 065   ----------------------------------------
 BYTE   W24
 BYTE   TIE  Fs0
 BYTE   W72
// 066   ----------------------------------------
 BYTE   W92
 BYTE   W03
 BYTE   EOT
 BYTE   W01
// 067   ----------------------------------------
 BYTE   TIE
 BYTE   W96
// 068   ----------------------------------------
 BYTE   W92
 BYTE   W03
 BYTE   EOT
 BYTE   W01
// 069   ----------------------------------------
Label_10_011500DC:
 BYTE   N07  As0  v060
 BYTE   W03
 BYTE   W01
 BYTE   W01
 BYTE   W07
 BYTE   N07
 BYTE   W03
 BYTE   W01
 BYTE   W01
 BYTE   W19
 BYTE   N07
 BYTE   W03
 BYTE   W01
 BYTE   W01
 BYTE   W07
 BYTE   N07
 BYTE   W03
 BYTE   W01
 BYTE   W01
 BYTE   W07
 BYTE   N07
 BYTE   W03
 BYTE   W01
 BYTE   W01
 BYTE   W07
 BYTE   N03
 BYTE   W03
 BYTE   W01
 BYTE   W01
 BYTE   W01
 BYTE   N03
 BYTE   W03
 BYTE   W01
 BYTE   W01
 BYTE   W01
 BYTE   N03
 BYTE   W03
 BYTE   W01
 BYTE   W01
 BYTE   W01
 BYTE   N03
 BYTE   W03
 BYTE   W01
 BYTE   W01
 BYTE   W01
 BYTE   PEND 
// 070   ----------------------------------------
 BYTE   PATT
  POIN2 Label_10_011500DC
// 071   ----------------------------------------
 BYTE   PATT
  POIN2 Label_10_011500DC
// 072   ----------------------------------------
 BYTE   PATT
  POIN2 Label_10_011500DC
// 073   ----------------------------------------
 BYTE   W96
// 074   ----------------------------------------
 BYTE   GoTo
  POIN2 Label_10_0114FFD9
// 075   ----------------------------------------
 BYTE   W96
 BYTE   FINE

//**************** Track 12 (Midi-Chn.11) ****************//

Roar_012:
// 000   ----------------------------------------
 BYTE   KEYSH   Roar_key+0
 BYTE   VOICE   40
 BYTE   VOL   39*Roar_mvl/mxv
 BYTE   PAN   c_v+0
 BYTE   VOL   39*Roar_mvl/mxv
 BYTE   PAN   c_v+0
 BYTE   N11  Dn1  v064
 BYTE   W12
 BYTE   As0
 BYTE   W12
 BYTE   Gn0
 BYTE   W12
 BYTE   Dn1
 BYTE   W12
 BYTE   As0
 BYTE   W12
 BYTE   Gn0
 BYTE   W12
 BYTE   Gn1
 BYTE   W12
 BYTE   As0
 BYTE   W12
// 001   ----------------------------------------
Label_11_011191A2:
 BYTE   N11  Gn0  v064
 BYTE   W12
 BYTE   Ds1
 BYTE   W12
 BYTE   As0
 BYTE   W12
 BYTE   Gn0
 BYTE   W12
 BYTE   Dn1
 BYTE   W12
 BYTE   As0
 BYTE   W12
 BYTE   Gn0
 BYTE   W12
 BYTE   Cn1
 BYTE   W12
 BYTE   PEND 
// 002   ----------------------------------------
Label_11_011191B5:
 BYTE   N11  As0  v064
 BYTE   W12
 BYTE   Gn0
 BYTE   W12
 BYTE   Dn1
 BYTE   W12
 BYTE   As0
 BYTE   W12
 BYTE   Gn0
 BYTE   W12
 BYTE   Dn1
 BYTE   W12
 BYTE   As0
 BYTE   W12
 BYTE   Gn0
 BYTE   W12
 BYTE   PEND 
// 003   ----------------------------------------
Label_11_011191C8:
 BYTE   N11  Gn1  v064
 BYTE   W12
 BYTE   As0
 BYTE   W12
 BYTE   Gn0
 BYTE   W12
 BYTE   Ds1
 BYTE   W12
 BYTE   As0
 BYTE   W12
 BYTE   Ds1
 BYTE   W12
 BYTE   Fn1
 BYTE   W12
 BYTE   Gn1
 BYTE   W12
 BYTE   PEND 
// 004   ----------------------------------------
Label_11_011191DB:
 BYTE   N11  Dn1  v064
 BYTE   W12
 BYTE   As0
 BYTE   W12
 BYTE   Gn0
 BYTE   W12
 BYTE   Dn1
 BYTE   W12
 BYTE   As0
 BYTE   W12
 BYTE   Gn0
 BYTE   W12
 BYTE   Gn1
 BYTE   W12
 BYTE   As0
 BYTE   W12
 BYTE   PEND 
// 005   ----------------------------------------
 BYTE   PATT
  POIN2 Label_11_011191A2
// 006   ----------------------------------------
 BYTE   PATT
  POIN2 Label_11_011191B5
// 007   ----------------------------------------
 BYTE   PATT
  POIN2 Label_11_011191C8
// 008   ----------------------------------------
Label_11_011191FD:
 BYTE   N11  Bn0  v064
 BYTE   W12
 BYTE   Gn0
 BYTE   W12
 BYTE   En0
 BYTE   W12
 BYTE   Bn0
 BYTE   W12
 BYTE   Gn0
 BYTE   W12
 BYTE   En0
 BYTE   W12
 BYTE   En1
 BYTE   W12
 BYTE   Gn0
 BYTE   W12
 BYTE   PEND 
// 009   ----------------------------------------
Label_11_01119210:
 BYTE   N11  En0  v064
 BYTE   W12
 BYTE   Cn1
 BYTE   W12
 BYTE   Gn0
 BYTE   W12
 BYTE   En0
 BYTE   W12
 BYTE   Bn0
 BYTE   W12
 BYTE   Gn0
 BYTE   W12
 BYTE   En0
 BYTE   W12
 BYTE   An0
 BYTE   W12
 BYTE   PEND 
// 010   ----------------------------------------
Label_11_01119223:
 BYTE   N11  Gn0  v064
 BYTE   W12
 BYTE   En0
 BYTE   W12
 BYTE   Bn0
 BYTE   W12
 BYTE   Gn0
 BYTE   W12
 BYTE   En0
 BYTE   W12
 BYTE   Bn0
 BYTE   W12
 BYTE   Gn0
 BYTE   W12
 BYTE   En0
 BYTE   W12
 BYTE   PEND 
// 011   ----------------------------------------
 BYTE   En1
 BYTE   W12
 BYTE   Gn0
 BYTE   W12
 BYTE   En0
 BYTE   W12
 BYTE   Cn1
 BYTE   W12
 BYTE   Gn0
 BYTE   W12
 BYTE   Cn1
 BYTE   W12
 BYTE   Dn1
 BYTE   W12
 BYTE   En1
 BYTE   W12
// 012   ----------------------------------------
 BYTE   PATT
  POIN2 Label_11_011191FD
// 013   ----------------------------------------
 BYTE   PATT
  POIN2 Label_11_01119210
// 014   ----------------------------------------
 BYTE   PATT
  POIN2 Label_11_01119223
// 015   ----------------------------------------
 BYTE   N11  En1  v064
 BYTE   W12
 BYTE   Gn0
 BYTE   W12
 BYTE   En0
 BYTE   W12
 BYTE   Cn1
 BYTE   W12
 BYTE   Gn0
 BYTE   W12
 BYTE   Cn1
 BYTE   W12
 BYTE   Dn1
 BYTE   W12
 BYTE   En1
 BYTE   W60
// 016   ----------------------------------------
Label_11_01119267:
 BYTE   N11  Fn1  v080
 BYTE   W12
 BYTE   Cs1
 BYTE   W12
 BYTE   As0
 BYTE   W12
 BYTE   Fn1
 BYTE   W12
 BYTE   Cs1
 BYTE   W12
 BYTE   As0
 BYTE   W12
 BYTE   As1
 BYTE   W12
 BYTE   Cs1
 BYTE   W12
 BYTE   PEND 
// 017   ----------------------------------------
Label_11_0111927A:
 BYTE   N11  As0  v080
 BYTE   W12
 BYTE   Fs1
 BYTE   W12
 BYTE   Cs1
 BYTE   W12
 BYTE   As0
 BYTE   W12
 BYTE   Fn1
 BYTE   W12
 BYTE   Cs1
 BYTE   W12
 BYTE   As0
 BYTE   W12
 BYTE   Ds1
 BYTE   W12
 BYTE   PEND 
// 018   ----------------------------------------
Label_11_0111928D:
 BYTE   N11  Cs1  v080
 BYTE   W12
 BYTE   As0
 BYTE   W12
 BYTE   Fn1
 BYTE   W12
 BYTE   Cs1
 BYTE   W12
 BYTE   As0
 BYTE   W12
 BYTE   Fn1
 BYTE   W12
 BYTE   Cs1
 BYTE   W12
 BYTE   As0
 BYTE   W12
 BYTE   PEND 
// 019   ----------------------------------------
Label_11_011192A0:
 BYTE   N11  As1  v080
 BYTE   W12
 BYTE   Cs1
 BYTE   W12
 BYTE   As0
 BYTE   W12
 BYTE   Fs1
 BYTE   W12
 BYTE   Cs1
 BYTE   W12
 BYTE   Fs1
 BYTE   W12
 BYTE   Gs1
 BYTE   W12
 BYTE   As1
 BYTE   W12
 BYTE   PEND 
// 020   ----------------------------------------
 BYTE   PATT
  POIN2 Label_11_01119267
// 021   ----------------------------------------
 BYTE   PATT
  POIN2 Label_11_0111927A
// 022   ----------------------------------------
 BYTE   PATT
  POIN2 Label_11_0111928D
// 023   ----------------------------------------
 BYTE   PATT
  POIN2 Label_11_011192A0
// 024   ----------------------------------------
 BYTE   TIE  Ds1  v064
 BYTE   W96
// 025   ----------------------------------------
 BYTE   W92
 BYTE   W03
 BYTE   EOT
 BYTE   W01
// 026   ----------------------------------------
 BYTE   N92  As0
 BYTE   W96
// 027   ----------------------------------------
 BYTE   An0
 BYTE   W96
// 028   ----------------------------------------
 BYTE   N23  Gn1
 BYTE   W24
 BYTE   Dn1
 BYTE   W24
 BYTE   N68  Gn1
 BYTE   W48
// 029   ----------------------------------------
 BYTE   W24
 BYTE   N44  Dn1
 BYTE   W48
 BYTE   N23  Gn1
 BYTE   W24
// 030   ----------------------------------------
 BYTE   Ds1
 BYTE   W24
 BYTE   As0
 BYTE   W24
 BYTE   N92  Ds1
 BYTE   W48
// 031   ----------------------------------------
 BYTE   W48
 BYTE   N23  As0
 BYTE   W24
 BYTE   Ds1
 BYTE   W24
// 032   ----------------------------------------
 BYTE   Fn1
 BYTE   W24
 BYTE   Cn1
 BYTE   W24
 BYTE   N92  Fn1
 BYTE   W48
// 033   ----------------------------------------
 BYTE   W48
 BYTE   N44
 BYTE   W48
// 034   ----------------------------------------
 BYTE   N23  Dn1
 BYTE   W24
 BYTE   An1
 BYTE   W24
 BYTE   N92  Dn1
 BYTE   W48
// 035   ----------------------------------------
 BYTE   W48
 BYTE   N44  An1
 BYTE   W48
// 036   ----------------------------------------
Label_11_01119306:
 BYTE   N03  Bn0  v080
 BYTE   W12
 BYTE   N03
 BYTE   W12
 BYTE   N03
 BYTE   W12
 BYTE   N03
 BYTE   W12
 BYTE   N03
 BYTE   W12
 BYTE   N03
 BYTE   W12
 BYTE   N03
 BYTE   W12
 BYTE   N03
 BYTE   W12
 BYTE   PEND 
// 037   ----------------------------------------
 BYTE   PATT
  POIN2 Label_11_01119306
// 038   ----------------------------------------
 BYTE   PATT
  POIN2 Label_11_01119306
// 039   ----------------------------------------
 BYTE   PATT
  POIN2 Label_11_01119306
// 040   ----------------------------------------
Label_11_01119328:
 BYTE   N03  An0  v080
 BYTE   W12
 BYTE   N03
 BYTE   W12
 BYTE   N03
 BYTE   W12
 BYTE   N03
 BYTE   W12
 BYTE   N03
 BYTE   W12
 BYTE   N03
 BYTE   W12
 BYTE   N03
 BYTE   W12
 BYTE   N03
 BYTE   W12
 BYTE   PEND 
// 041   ----------------------------------------
 BYTE   PATT
  POIN2 Label_11_01119328
// 042   ----------------------------------------
Label_11_01119340:
 BYTE   N03  Gn0  v080
 BYTE   W12
 BYTE   N03
 BYTE   W12
 BYTE   N03
 BYTE   W12
 BYTE   N03
 BYTE   W12
 BYTE   N03
 BYTE   W12
 BYTE   N03
 BYTE   W12
 BYTE   N03
 BYTE   W12
 BYTE   N03
 BYTE   W12
 BYTE   PEND 
// 043   ----------------------------------------
 BYTE   PATT
  POIN2 Label_11_01119340
// 044   ----------------------------------------
 BYTE   TIE  Gs1  v080
 BYTE   W96
// 045   ----------------------------------------
 BYTE   W92
 BYTE   W03
 BYTE   EOT
 BYTE   W01
// 046   ----------------------------------------
 BYTE   TIE
 BYTE   W96
// 047   ----------------------------------------
 BYTE   W92
 BYTE   W03
 BYTE   EOT
 BYTE   W01
// 048   ----------------------------------------
 BYTE   TIE  Fs1
 BYTE   W96
// 049   ----------------------------------------
 BYTE   W92
 BYTE   W03
 BYTE   EOT
 BYTE   W01
// 050   ----------------------------------------
 BYTE   TIE  En1
 BYTE   W96
// 051   ----------------------------------------
 BYTE   W92
 BYTE   W03
 BYTE   EOT
 BYTE   W01
// 052   ----------------------------------------
 BYTE   N32  Gs1
 BYTE   W36
 BYTE   N05  Fn1
 BYTE   W06
 BYTE   Ds1
 BYTE   W06
 BYTE   Cs1
 BYTE   W06
 BYTE   Cn1
 BYTE   W06
 BYTE   Bn0
 BYTE   W06
 BYTE   As0
 BYTE   W06
 BYTE   An0
 BYTE   W06
 BYTE   Gs0
 BYTE   W06
 BYTE   Gn0
 BYTE   W06
 BYTE   Fs0  v052
 BYTE   W06
// 053   ----------------------------------------
 BYTE   N92  Gs1
 BYTE   W96
// 054   ----------------------------------------
 BYTE   N92
 BYTE   W96
// 055   ----------------------------------------
 BYTE   N92
 BYTE   W96
// 056   ----------------------------------------
 BYTE   N92
 BYTE   W96
// 057   ----------------------------------------
 BYTE   Cs2
 BYTE   N56  Cs4
 BYTE   W06
 BYTE   W03
 BYTE   W03
 BYTE   W03
 BYTE   W03
 BYTE   W03
 BYTE   W03
 BYTE   W03
 BYTE   W03
 BYTE   W03
 BYTE   W03
 BYTE   W03
 BYTE   W03
 BYTE   W03
 BYTE   W03
 BYTE   W03
 BYTE   W03
 BYTE   W03
 BYTE   W03
 BYTE   N11  Ds4  v068
 BYTE   W01
 BYTE   W03
 BYTE   W03
 BYTE   W03
 BYTE   W02
 BYTE   En4  v072
 BYTE   W01
 BYTE   W03
 BYTE   W03
 BYTE   W03
 BYTE   W02
 BYTE   Gs4  v076
 BYTE   W01
 BYTE   W03
 BYTE   W03
 BYTE   W03
 BYTE   W02
// 058   ----------------------------------------
 BYTE   N92  Bn1  v052
 BYTE   TIE  Fs4  v080
 BYTE   W96
// 059   ----------------------------------------
 BYTE   N92  Ds2  v052
 BYTE   W44
 BYTE   W03
 BYTE   EOT
 BYTE   Fs4
 BYTE   W01
 BYTE   N23  Gs4  v080
 BYTE   W24
 BYTE   As4
 BYTE   W24
// 060   ----------------------------------------
 BYTE   N92  As1  v052
 BYTE   N68  Fn4  v080
 BYTE   W72
 BYTE   N23  Gn4
 BYTE   W24
// 061   ----------------------------------------
 BYTE   N92  Fn1  v052
 BYTE   N44  Gs4  v080
 BYTE   W48
 BYTE   N23  Gn4
 BYTE   W24
 BYTE   Fn4
 BYTE   W24
// 062   ----------------------------------------
 BYTE   N92  Fn1  v052
 BYTE   N44  Fn4  v080
 BYTE   W48
 BYTE   N23  Ds4
 BYTE   W24
 BYTE   Cs4
 BYTE   W24
// 063   ----------------------------------------
 BYTE   N07  Cn1  v060
 BYTE   N15  Cn4  v080
 BYTE   W03
 BYTE   W01
 BYTE   W01
 BYTE   W07
 BYTE   N07  As0  v060
 BYTE   W03
 BYTE   W01
 BYTE   N15  As3  v080
 BYTE   W01
 BYTE   W07
 BYTE   N07  Gs0  v060
 BYTE   W03
 BYTE   W01
 BYTE   W01
 BYTE   W03
 BYTE   N30  Fn4  v080
 BYTE   W04
 BYTE   N07  Gn0  v060
 BYTE   W03
 BYTE   W01
 BYTE   W01
 BYTE   W07
 BYTE   Gs0
 BYTE   W03
 BYTE   W01
 BYTE   W01
 BYTE   W07
 BYTE   Gn0
 BYTE   W03
 BYTE   W01
 BYTE   N15  Ds4  v080
 BYTE   W01
 BYTE   W07
 BYTE   N07  Fn0  v060
 BYTE   W03
 BYTE   W01
 BYTE   W01
 BYTE   W03
 BYTE   N30  As4  v080
 BYTE   W04
 BYTE   N07  Ds0  v060
 BYTE   W03
 BYTE   W01
 BYTE   W01
 BYTE   W07
// 064   ----------------------------------------
 BYTE   W12
 BYTE   An0
 BYTE   W03
 BYTE   W01
 BYTE   N15  Fn4  v080
 BYTE   W01
 BYTE   W07
 BYTE   N07  Gn0  v060
 BYTE   W03
 BYTE   W01
 BYTE   W01
 BYTE   W03
 BYTE   N15  Cn5  v080
 BYTE   W04
 BYTE   N07  Fn0  v060
 BYTE   W03
 BYTE   W01
 BYTE   W01
 BYTE   W07
 BYTE   Cn1
 BYTE   N15  Cn5  v080
 BYTE   W03
 BYTE   W01
 BYTE   W01
 BYTE   W07
 BYTE   N07  As0  v060
 BYTE   W03
 BYTE   W01
 BYTE   N15  As4  v080
 BYTE   W01
 BYTE   W07
 BYTE   N03  An0  v060
 BYTE   W03
 BYTE   W01
 BYTE   W01
 BYTE   W01
 BYTE   Gn0
 BYTE   W02
 BYTE   N84  Fn5  v080
 BYTE   W01
 BYTE   W01
 BYTE   W01
 BYTE   W01
 BYTE   N07  Fn0  v060
 BYTE   W03
 BYTE   W01
 BYTE   W01
 BYTE   W07
// 065   ----------------------------------------
 BYTE   W24
 BYTE   TIE  Fs0  v052
 BYTE   W48
 BYTE   N11  Ds5  v080
 BYTE   W12
 BYTE   Fn5
 BYTE   W12
// 066   ----------------------------------------
 BYTE   N23  Gs5
 BYTE   W24
 BYTE   N44  Cs5
 BYTE   W48
 BYTE   N23  Cn5
 BYTE   W23
 BYTE   EOT
 BYTE   Fs0
 BYTE   W01
// 067   ----------------------------------------
 BYTE   TIE  Fs0  v052
 BYTE   N23  Cs5  v080
 BYTE   W24
 BYTE   N44  Ds5
 BYTE   W48
 BYTE   N23  Gs4
 BYTE   W24
// 068   ----------------------------------------
 BYTE   N23
 BYTE   W24
 BYTE   Fs4
 BYTE   W24
 BYTE   Fn4
 BYTE   W24
 BYTE   Gs4
 BYTE   W23
 BYTE   EOT
 BYTE   Fs0
 BYTE   W01
// 069   ----------------------------------------
 BYTE   N07  As0  v060
 BYTE   TIE  As4  v080
 BYTE   W03
 BYTE   W01
 BYTE   W01
 BYTE   W07
 BYTE   N07  As0  v060
 BYTE   W03
 BYTE   W01
 BYTE   W01
 BYTE   W19
 BYTE   N07
 BYTE   W03
 BYTE   W01
 BYTE   W01
 BYTE   W07
 BYTE   N07
 BYTE   W03
 BYTE   W01
 BYTE   W01
 BYTE   W07
 BYTE   N07
 BYTE   W03
 BYTE   W01
 BYTE   W01
 BYTE   W07
 BYTE   N03
 BYTE   W03
 BYTE   W01
 BYTE   W01
 BYTE   W01
 BYTE   N03
 BYTE   W03
 BYTE   W01
 BYTE   W01
 BYTE   W01
 BYTE   N03
 BYTE   W03
 BYTE   W01
 BYTE   W01
 BYTE   W01
 BYTE   N03
 BYTE   W03
 BYTE   W01
 BYTE   W01
 BYTE   W01
// 070   ----------------------------------------
 BYTE   N07
 BYTE   W03
 BYTE   W01
 BYTE   W01
 BYTE   W07
 BYTE   N07
 BYTE   W03
 BYTE   W01
 BYTE   W01
 BYTE   W19
 BYTE   N07
 BYTE   W03
 BYTE   W01
 BYTE   W01
 BYTE   W07
 BYTE   N07
 BYTE   W03
 BYTE   W01
 BYTE   W01
 BYTE   W07
 BYTE   N07
 BYTE   W03
 BYTE   W01
 BYTE   W01
 BYTE   W07
 BYTE   N03
 BYTE   W03
 BYTE   W01
 BYTE   W01
 BYTE   W01
 BYTE   N03
 BYTE   W03
 BYTE   W01
 BYTE   W01
 BYTE   W01
 BYTE   N03
 BYTE   W03
 BYTE   W01
 BYTE   W01
 BYTE   W01
 BYTE   N03
 BYTE   W03
 BYTE   W01
 BYTE   W01
 BYTE   EOT
 BYTE   As4
 BYTE   W01
// 071   ----------------------------------------
 BYTE   N07  As0
 BYTE   W03
 BYTE   W01
 BYTE   W01
 BYTE   W07
 BYTE   N07
 BYTE   W03
 BYTE   W01
 BYTE   W01
 BYTE   W19
 BYTE   N07
 BYTE   W03
 BYTE   W01
 BYTE   W01
 BYTE   W07
 BYTE   N07
 BYTE   W03
 BYTE   W01
 BYTE   W01
 BYTE   W07
 BYTE   N07
 BYTE   W03
 BYTE   W01
 BYTE   W01
 BYTE   W07
 BYTE   N03
 BYTE   W03
 BYTE   W01
 BYTE   W01
 BYTE   W01
 BYTE   N03
 BYTE   W03
 BYTE   W01
 BYTE   W01
 BYTE   W01
 BYTE   N03
 BYTE   W03
 BYTE   W01
 BYTE   W01
 BYTE   W01
 BYTE   N03
 BYTE   W03
 BYTE   W01
 BYTE   W01
 BYTE   W01
// 072   ----------------------------------------
 BYTE   N07  As1
 BYTE   W03
 BYTE   W01
 BYTE   W01
 BYTE   W07
 BYTE   N07
 BYTE   W03
 BYTE   W01
 BYTE   W01
 BYTE   W19
 BYTE   N07
 BYTE   W03
 BYTE   W01
 BYTE   W01
 BYTE   W07
 BYTE   N07
 BYTE   W03
 BYTE   W01
 BYTE   W01
 BYTE   W07
 BYTE   N07
 BYTE   W03
 BYTE   W01
 BYTE   W01
 BYTE   W07
 BYTE   N03
 BYTE   W03
 BYTE   W01
 BYTE   W01
 BYTE   W01
 BYTE   N03
 BYTE   W03
 BYTE   W01
 BYTE   W01
 BYTE   W01
 BYTE   N03
 BYTE   W03
 BYTE   W01
 BYTE   W01
 BYTE   W01
 BYTE   N03
 BYTE   W03
 BYTE   W01
 BYTE   W01
 BYTE   W01
// 073   ----------------------------------------
 BYTE   PATT
  POIN2 Label_11_011191DB
// 074   ----------------------------------------
 BYTE   GoTo
  POIN2 Label_11_011191A2
// 075   ----------------------------------------
 BYTE   PATT
  POIN2 Label_11_011191A2
 BYTE   FINE

//******************************************************//
	ALIGN 4

Roar:
	BYTE	12	// NumTrks
	BYTE	0	// NumBlks
	BYTE	Roar_pri	// Priority
	BYTE	Roar_rev	// Reverb.
    
	POIN2	Roar_grp
    
	POIN2	Roar_001
	POIN2	Roar_002
	POIN2	Roar_003
	POIN2	Roar_004
	POIN2	Roar_005
	POIN2	Roar_006
	POIN2	Roar_007
	POIN2	Roar_008
	POIN2	Roar_009
	POIN2	Roar_010
	POIN2	Roar_011
	POIN2	Roar_012

	
