	.include "MPlayDef.s"

	.equ	feb20211231090125_grp, voicegroup000
	.equ	feb20211231090125_pri, 0
	.equ	feb20211231090125_rev, 0
	.equ	feb20211231090125_mvl, 50
	.equ	feb20211231090125_key, 0
	.equ	feb20211231090125_tbs, 1
	.equ	feb20211231090125_exg, 0
	.equ	feb20211231090125_cmp, 1

	.section .rodata
	.global	feb20211231090125
	.align	2

@**************** Track 1 (Midi-Chn.1) ****************@

feb20211231090125_1:
	.byte	KEYSH , feb20211231090125_key+0
@ 000   ----------------------------------------
	.byte	TEMPO , 139*feb20211231090125_tbs/2
	.byte		VOICE , 83
	.byte		VOL   , 80*feb20211231090125_mvl/mxv
	.byte		PAN   , c_v+0
	.byte	W96
@ 001   ----------------------------------------
	.byte	W96
@ 002   ----------------------------------------
	.byte	W96
@ 003   ----------------------------------------
	.byte	W96
@ 004   ----------------------------------------
	.byte	W96
@ 005   ----------------------------------------
	.byte	W96
@ 006   ----------------------------------------
	.byte	W96
@ 007   ----------------------------------------
	.byte	W96
@ 008   ----------------------------------------
	.byte	W96
@ 009   ----------------------------------------
	.byte	W96
@ 010   ----------------------------------------
	.byte	W96
@ 011   ----------------------------------------
feb20211231090125_1_011:
	.byte	W84
	.byte		N05   , Cn4 , v080
	.byte		N05   , Ds4 
	.byte	W06
	.byte		        Dn4 
	.byte		N05   , Fn4 
	.byte	W06
	.byte	PEND
@ 012   ----------------------------------------
feb20211231090125_1_012:
	.byte		N02   , Fn4 , v080
	.byte	W03
	.byte		N88   , Ds4 
	.byte		N88   , Gn4 
	.byte	W92
	.byte	W01
	.byte	PEND
@ 013   ----------------------------------------
feb20211231090125_1_013:
	.byte		N02   , Cn5 , v080
	.byte	W03
	.byte		N76   , As4 
	.byte		N76   , Dn5 
	.byte	W80
	.byte	W01
	.byte		N05   , Cn5 
	.byte		N05   , Ds5 
	.byte	W06
	.byte		        As4 
	.byte		N05   , Dn5 
	.byte	W06
	.byte	PEND
@ 014   ----------------------------------------
feb20211231090125_1_014:
	.byte		N02   , Fn4 , v080
	.byte	W03
	.byte		N76   , Ds4 
	.byte		N76   , Gn4 
	.byte	W80
	.byte	W01
	.byte		N05   , Dn4 
	.byte		N05   , Fn4 
	.byte	W06
	.byte		        Ds4 
	.byte		N05   , Gn4 
	.byte	W06
	.byte	PEND
@ 015   ----------------------------------------
feb20211231090125_1_015:
	.byte		N02   , Gs4 , v080
	.byte	W03
	.byte		N76   , Gn4 
	.byte		N76   , As4 
	.byte	W80
	.byte	W01
	.byte		N05   , Fn4 
	.byte		N05   , Gs4 
	.byte	W06
	.byte		        Ds4 
	.byte		N05   , Gn4 
	.byte	W06
	.byte	PEND
@ 016   ----------------------------------------
feb20211231090125_1_016:
	.byte		N02   , Gn4 , v080
	.byte	W03
	.byte		N30   , Fn4 
	.byte		N30   , Gs4 
	.byte	W32
	.byte	W01
	.byte		N32   , Gn4 
	.byte		N32   , As4 
	.byte	W36
	.byte		N22   , Gs4 
	.byte		N22   , Cn5 
	.byte	W24
	.byte	PEND
@ 017   ----------------------------------------
feb20211231090125_1_017:
	.byte		N32   , Cn5 , v080
	.byte		N32   , Ds5 
	.byte	W36
	.byte		        Gn4 
	.byte		N32   , Cn5 
	.byte	W36
	.byte		N22   
	.byte		N22   , Ds5 
	.byte	W24
	.byte	PEND
@ 018   ----------------------------------------
feb20211231090125_1_018:
	.byte		N02   , Gn5 , v080
	.byte	W03
	.byte		N30   , Dn5 
	.byte		N30   , Fs5 
	.byte	W32
	.byte	W01
	.byte		N32   , Cn5 
	.byte		N32   , Ds5 
	.byte	W36
	.byte		N22   , Fs4 
	.byte		N22   , Dn5 
	.byte	W24
	.byte	PEND
@ 019   ----------------------------------------
feb20211231090125_1_019:
	.byte		N32   , Gn4 , v080
	.byte		N32   , Cn5 
	.byte	W36
	.byte		N05   , Bn4 
	.byte	W06
	.byte		        Cn5 
	.byte	W06
	.byte		N44   , Gn4 
	.byte		N02   , Cn5 
	.byte	W03
	.byte		N42   , Dn5 
	.byte	W44
	.byte	W01
	.byte	PEND
feb20211231090125_1_B1:
@ 020   ----------------------------------------
	.byte	W96
@ 021   ----------------------------------------
	.byte	W96
@ 022   ----------------------------------------
	.byte	W96
@ 023   ----------------------------------------
	.byte	W96
@ 024   ----------------------------------------
	.byte	W96
@ 025   ----------------------------------------
	.byte	W96
@ 026   ----------------------------------------
	.byte	W96
@ 027   ----------------------------------------
feb20211231090125_1_027:
	.byte	W84
	.byte		N05   , Cn5 , v080
	.byte	W06
	.byte		        Dn5 
	.byte	W06
	.byte	PEND
@ 028   ----------------------------------------
feb20211231090125_1_028:
	.byte		N32   , Ds5 , v080
	.byte	W36
	.byte		        Cn5 
	.byte	W36
	.byte		N22   , Gn5 
	.byte	W24
	.byte	PEND
@ 029   ----------------------------------------
feb20211231090125_1_029:
	.byte		N32   , Fn5 , v080
	.byte	W36
	.byte		        Dn5 
	.byte	W36
	.byte		N22   , Cn5 
	.byte	W24
	.byte	PEND
@ 030   ----------------------------------------
feb20211231090125_1_030:
	.byte		N32   , As4 , v080
	.byte	W36
	.byte		        Gn4 
	.byte	W36
	.byte		N22   , Dn5 
	.byte	W24
	.byte	PEND
@ 031   ----------------------------------------
feb20211231090125_1_031:
	.byte		N32   , Dn5 , v080
	.byte	W36
	.byte		N44   , Cn5 
	.byte	W48
	.byte		N05   
	.byte	W06
	.byte		        Dn5 
	.byte	W06
	.byte	PEND
@ 032   ----------------------------------------
	.byte	PATT
	 .word	feb20211231090125_1_028
@ 033   ----------------------------------------
feb20211231090125_1_033:
	.byte		N32   , Fn5 , v080
	.byte	W36
	.byte		        Ds5 
	.byte	W36
	.byte		N22   , Dn5 
	.byte	W24
	.byte	PEND
@ 034   ----------------------------------------
feb20211231090125_1_034:
	.byte		N03   , As4 , v080
	.byte	W03
	.byte		TIE   , Cn5 
	.byte	W92
	.byte	W01
	.byte	PEND
@ 035   ----------------------------------------
	.byte	W60
	.byte	W03
	.byte		EOT   
	.byte	W32
	.byte	W01
@ 036   ----------------------------------------
	.byte	W96
@ 037   ----------------------------------------
	.byte	W96
@ 038   ----------------------------------------
	.byte	W96
@ 039   ----------------------------------------
	.byte	W96
@ 040   ----------------------------------------
	.byte	W96
@ 041   ----------------------------------------
	.byte	W96
@ 042   ----------------------------------------
	.byte	W96
@ 043   ----------------------------------------
	.byte	W96
@ 044   ----------------------------------------
	.byte	W96
@ 045   ----------------------------------------
	.byte	W96
@ 046   ----------------------------------------
	.byte	W96
@ 047   ----------------------------------------
	.byte	PATT
	 .word	feb20211231090125_1_011
@ 048   ----------------------------------------
	.byte	PATT
	 .word	feb20211231090125_1_012
@ 049   ----------------------------------------
	.byte	PATT
	 .word	feb20211231090125_1_013
@ 050   ----------------------------------------
	.byte	PATT
	 .word	feb20211231090125_1_014
@ 051   ----------------------------------------
	.byte	PATT
	 .word	feb20211231090125_1_015
@ 052   ----------------------------------------
	.byte	PATT
	 .word	feb20211231090125_1_016
@ 053   ----------------------------------------
	.byte	PATT
	 .word	feb20211231090125_1_017
@ 054   ----------------------------------------
	.byte	PATT
	 .word	feb20211231090125_1_018
@ 055   ----------------------------------------
	.byte	PATT
	 .word	feb20211231090125_1_019
	.byte	GOTO
	 .word	feb20211231090125_1_B1
feb20211231090125_1_B2:
@ 056   ----------------------------------------
	.byte	W96
@ 057   ----------------------------------------
	.byte	W96
@ 058   ----------------------------------------
	.byte	W96
@ 059   ----------------------------------------
	.byte	W96
@ 060   ----------------------------------------
	.byte	W96
@ 061   ----------------------------------------
	.byte	W96
@ 062   ----------------------------------------
	.byte	W96
@ 063   ----------------------------------------
	.byte	PATT
	 .word	feb20211231090125_1_027
@ 064   ----------------------------------------
	.byte	PATT
	 .word	feb20211231090125_1_028
@ 065   ----------------------------------------
	.byte	PATT
	 .word	feb20211231090125_1_029
@ 066   ----------------------------------------
	.byte	PATT
	 .word	feb20211231090125_1_030
@ 067   ----------------------------------------
	.byte	PATT
	 .word	feb20211231090125_1_031
@ 068   ----------------------------------------
	.byte	PATT
	 .word	feb20211231090125_1_028
@ 069   ----------------------------------------
	.byte	PATT
	 .word	feb20211231090125_1_033
@ 070   ----------------------------------------
	.byte	PATT
	 .word	feb20211231090125_1_034
@ 071   ----------------------------------------
	.byte	W60
	.byte	W03
	.byte		EOT   , Cn5 
	.byte	W32
	.byte	W01
@ 072   ----------------------------------------
	.byte	W96
@ 073   ----------------------------------------
	.byte	W96
@ 074   ----------------------------------------
	.byte	W96
@ 075   ----------------------------------------
	.byte	W92
	.byte	W03
	.byte	FINE

@**************** Track 2 (Midi-Chn.2) ****************@

feb20211231090125_2:
	.byte	KEYSH , feb20211231090125_key+0
@ 000   ----------------------------------------
	.byte		VOICE , 21
	.byte		VOL   , 95*feb20211231090125_mvl/mxv
	.byte		PAN   , c_v+0
	.byte	W96
@ 001   ----------------------------------------
	.byte	W96
@ 002   ----------------------------------------
	.byte	W96
@ 003   ----------------------------------------
feb20211231090125_2_003:
	.byte	W84
	.byte		N05   , Ds3 , v080
	.byte	W06
	.byte		        Fn3 
	.byte	W06
	.byte	PEND
@ 004   ----------------------------------------
	.byte		N92   , Gn3 
	.byte	W96
@ 005   ----------------------------------------
feb20211231090125_2_005:
	.byte		N03   , Cn4 , v080
	.byte	W03
	.byte		N80   , Dn4 
	.byte	W80
	.byte	W01
	.byte		N05   , Ds4 
	.byte	W06
	.byte		        Dn4 
	.byte	W06
	.byte	PEND
@ 006   ----------------------------------------
feb20211231090125_2_006:
	.byte		N80   , Gn3 , v080
	.byte	W84
	.byte		N05   , Fn3 
	.byte	W06
	.byte		        Gn3 
	.byte	W06
	.byte	PEND
@ 007   ----------------------------------------
feb20211231090125_2_007:
	.byte		N80   , As3 , v080
	.byte	W84
	.byte		N05   , Gs3 
	.byte	W06
	.byte		        Gn3 
	.byte	W06
	.byte	PEND
@ 008   ----------------------------------------
feb20211231090125_2_008:
	.byte		N32   , Gs3 , v080
	.byte	W36
	.byte		        As3 
	.byte	W36
	.byte		N23   , Cn4 
	.byte	W24
	.byte	PEND
@ 009   ----------------------------------------
feb20211231090125_2_009:
	.byte		N03   , Dn4 , v080
	.byte	W03
	.byte		N32   , Ds4 
	.byte	W32
	.byte	W01
	.byte		        Cn4 
	.byte	W36
	.byte		N23   , Ds4 
	.byte	W24
	.byte	PEND
@ 010   ----------------------------------------
feb20211231090125_2_010:
	.byte		N03   , Fn4 , v080
	.byte	W03
	.byte		N32   , Fs4 
	.byte	W32
	.byte	W01
	.byte		        Ds4 
	.byte	W36
	.byte		N23   , Dn4 
	.byte	W24
	.byte	PEND
@ 011   ----------------------------------------
feb20211231090125_2_011:
	.byte		N32   , Cn4 , v080
	.byte	W36
	.byte		N56   , Bn3 
	.byte	W60
	.byte	PEND
@ 012   ----------------------------------------
	.byte	W96
@ 013   ----------------------------------------
	.byte	W96
@ 014   ----------------------------------------
	.byte	W96
@ 015   ----------------------------------------
	.byte	W96
@ 016   ----------------------------------------
	.byte	W96
@ 017   ----------------------------------------
	.byte	W96
@ 018   ----------------------------------------
	.byte	W96
@ 019   ----------------------------------------
feb20211231090125_2_019:
	.byte	W84
	.byte		N05   , Cn4 , v080
	.byte	W06
	.byte		        Dn4 
	.byte	W06
	.byte	PEND
feb20211231090125_2_B1:
@ 020   ----------------------------------------
feb20211231090125_2_020:
	.byte		N32   , Ds4 , v080
	.byte	W36
	.byte		        Cn4 
	.byte	W36
	.byte		N03   , Fn4 
	.byte	W03
	.byte		N20   , Gn4 
	.byte	W21
	.byte	PEND
@ 021   ----------------------------------------
feb20211231090125_2_021:
	.byte		N32   , Fn4 , v080
	.byte	W36
	.byte		N03   , Cn4 
	.byte	W03
	.byte		N32   , Dn4 
	.byte	W32
	.byte	W01
	.byte		N23   , Cn4 
	.byte	W24
	.byte	PEND
@ 022   ----------------------------------------
feb20211231090125_2_022:
	.byte		N32   , As3 , v080
	.byte	W36
	.byte		        Gn3 
	.byte	W36
	.byte		N03   , Cn4 
	.byte	W03
	.byte		N20   , Dn4 
	.byte	W21
	.byte	PEND
@ 023   ----------------------------------------
feb20211231090125_2_023:
	.byte		N32   , Dn4 , v080
	.byte	W36
	.byte		N44   , Cn4 
	.byte	W48
	.byte		N05   , Gs3 
	.byte	W06
	.byte		        Gn3 
	.byte	W06
	.byte	PEND
@ 024   ----------------------------------------
	.byte	PATT
	 .word	feb20211231090125_2_008
@ 025   ----------------------------------------
feb20211231090125_2_025:
	.byte		N03   , Gs3 , v080
	.byte	W03
	.byte		N32   , As3 
	.byte	W32
	.byte	W01
	.byte		        Gs3 
	.byte	W36
	.byte		N23   , As3 
	.byte	W24
	.byte	PEND
@ 026   ----------------------------------------
feb20211231090125_2_026:
	.byte		N32   , Gn3 , v080
	.byte	W36
	.byte		        Ds3 
	.byte	W36
	.byte		N23   , Fn3 
	.byte	W24
	.byte	PEND
@ 027   ----------------------------------------
feb20211231090125_2_027:
	.byte		N80   , Gn3 , v080
	.byte	W84
	.byte		N05   , Cn4 
	.byte	W06
	.byte		        Dn4 
	.byte	W06
	.byte	PEND
@ 028   ----------------------------------------
	.byte	PATT
	 .word	feb20211231090125_2_020
@ 029   ----------------------------------------
	.byte	PATT
	 .word	feb20211231090125_2_021
@ 030   ----------------------------------------
	.byte	PATT
	 .word	feb20211231090125_2_022
@ 031   ----------------------------------------
feb20211231090125_2_031:
	.byte		N32   , Dn4 , v080
	.byte	W36
	.byte		N44   , Cn4 
	.byte	W48
	.byte		N05   
	.byte	W06
	.byte		        Dn4 
	.byte	W06
	.byte	PEND
@ 032   ----------------------------------------
	.byte	PATT
	 .word	feb20211231090125_2_020
@ 033   ----------------------------------------
feb20211231090125_2_033:
	.byte		N32   , Fn4 , v080
	.byte	W36
	.byte		        Ds4 
	.byte	W36
	.byte		N23   , Dn4 
	.byte	W24
	.byte	PEND
@ 034   ----------------------------------------
	.byte		TIE   , Cn4 
	.byte	W96
@ 035   ----------------------------------------
	.byte	W68
	.byte	W03
	.byte		EOT   
	.byte	W01
	.byte		N23   , As3 
	.byte	W24
@ 036   ----------------------------------------
	.byte		TIE   , Cn4 
	.byte	W96
@ 037   ----------------------------------------
	.byte	W68
	.byte	W03
	.byte		EOT   
	.byte	W01
	.byte		N23   , Gn4 
	.byte	W24
@ 038   ----------------------------------------
feb20211231090125_2_038:
	.byte		N03   , As4 , v080
	.byte	W03
	.byte		N92   , Cn5 
	.byte	W92
	.byte	W01
	.byte	PEND
@ 039   ----------------------------------------
	.byte	PATT
	 .word	feb20211231090125_2_003
@ 040   ----------------------------------------
	.byte		N92   , Gn3 , v080
	.byte	W96
@ 041   ----------------------------------------
	.byte	PATT
	 .word	feb20211231090125_2_005
@ 042   ----------------------------------------
	.byte	PATT
	 .word	feb20211231090125_2_006
@ 043   ----------------------------------------
	.byte	PATT
	 .word	feb20211231090125_2_007
@ 044   ----------------------------------------
	.byte	PATT
	 .word	feb20211231090125_2_008
@ 045   ----------------------------------------
	.byte	PATT
	 .word	feb20211231090125_2_009
@ 046   ----------------------------------------
	.byte	PATT
	 .word	feb20211231090125_2_010
@ 047   ----------------------------------------
	.byte	PATT
	 .word	feb20211231090125_2_011
@ 048   ----------------------------------------
	.byte	W96
@ 049   ----------------------------------------
	.byte	W96
@ 050   ----------------------------------------
	.byte	W96
@ 051   ----------------------------------------
	.byte	W96
@ 052   ----------------------------------------
	.byte	W96
@ 053   ----------------------------------------
	.byte	W96
@ 054   ----------------------------------------
	.byte	W96
@ 055   ----------------------------------------
	.byte	PATT
	 .word	feb20211231090125_2_019
	.byte	GOTO
	 .word	feb20211231090125_2_B1
feb20211231090125_2_B2:
@ 056   ----------------------------------------
	.byte	PATT
	 .word	feb20211231090125_2_020
@ 057   ----------------------------------------
	.byte	PATT
	 .word	feb20211231090125_2_021
@ 058   ----------------------------------------
	.byte	PATT
	 .word	feb20211231090125_2_022
@ 059   ----------------------------------------
	.byte	PATT
	 .word	feb20211231090125_2_023
@ 060   ----------------------------------------
	.byte	PATT
	 .word	feb20211231090125_2_008
@ 061   ----------------------------------------
	.byte	PATT
	 .word	feb20211231090125_2_025
@ 062   ----------------------------------------
	.byte	PATT
	 .word	feb20211231090125_2_026
@ 063   ----------------------------------------
	.byte	PATT
	 .word	feb20211231090125_2_027
@ 064   ----------------------------------------
	.byte	PATT
	 .word	feb20211231090125_2_020
@ 065   ----------------------------------------
	.byte	PATT
	 .word	feb20211231090125_2_021
@ 066   ----------------------------------------
	.byte	PATT
	 .word	feb20211231090125_2_022
@ 067   ----------------------------------------
	.byte	PATT
	 .word	feb20211231090125_2_031
@ 068   ----------------------------------------
	.byte	PATT
	 .word	feb20211231090125_2_020
@ 069   ----------------------------------------
	.byte	PATT
	 .word	feb20211231090125_2_033
@ 070   ----------------------------------------
	.byte		TIE   , Cn4 , v080
	.byte	W96
@ 071   ----------------------------------------
	.byte	W68
	.byte	W03
	.byte		EOT   
	.byte	W01
	.byte		N23   , As3 
	.byte	W24
@ 072   ----------------------------------------
	.byte		TIE   , Cn4 
	.byte	W96
@ 073   ----------------------------------------
	.byte	W68
	.byte	W03
	.byte		EOT   
	.byte	W01
	.byte		N23   , Gn4 
	.byte	W24
@ 074   ----------------------------------------
	.byte	PATT
	 .word	feb20211231090125_2_038
@ 075   ----------------------------------------
	.byte	W84
	.byte		N05   , Ds3 , v080
	.byte	W06
	.byte		        Fn3 
	.byte	W05
	.byte	FINE

@**************** Track 3 (Midi-Chn.4) ****************@

feb20211231090125_3:
	.byte	KEYSH , feb20211231090125_key+0
@ 000   ----------------------------------------
	.byte		VOICE , 48
	.byte		VOL   , 60*feb20211231090125_mvl/mxv
	.byte		PAN   , c_v+0
	.byte		N90   , Ds3 , v080
	.byte		N90   , Gn3 
	.byte		N90   , Ds4 
	.byte	W96
@ 001   ----------------------------------------
	.byte		        Dn3 
	.byte		N90   , Gn3 
	.byte		N90   , Dn4 
	.byte	W96
@ 002   ----------------------------------------
	.byte		        Cn3 
	.byte		N90   , Gn3 
	.byte		N90   , Cn4 
	.byte	W96
@ 003   ----------------------------------------
	.byte		        As2 
	.byte		N90   , As3 
	.byte		N90   , Dn4 
	.byte	W96
@ 004   ----------------------------------------
	.byte		        Gn3 , v064
	.byte		N90   , Ds4 
	.byte	W96
@ 005   ----------------------------------------
	.byte		        Gn3 
	.byte		N90   , Dn4 
	.byte	W96
@ 006   ----------------------------------------
	.byte		        Gn3 
	.byte		N90   , Cn4 
	.byte	W96
@ 007   ----------------------------------------
	.byte		        Fn3 
	.byte		N90   , As3 
	.byte	W96
@ 008   ----------------------------------------
	.byte		        Fn3 
	.byte		N90   , Gs3 
	.byte	W96
@ 009   ----------------------------------------
	.byte		        Cn3 
	.byte		N90   , Gn3 
	.byte	W96
@ 010   ----------------------------------------
	.byte		        Cn3 
	.byte		N90   , Fs3 
	.byte	W96
@ 011   ----------------------------------------
	.byte		        Dn3 
	.byte		N90   , Gn3 
	.byte	W96
@ 012   ----------------------------------------
	.byte		N90   
	.byte		N90   , Ds4 
	.byte	W96
@ 013   ----------------------------------------
	.byte		        Gn3 
	.byte		N90   , Dn4 
	.byte	W96
@ 014   ----------------------------------------
	.byte		        Gn3 
	.byte		N90   , Cn4 
	.byte	W96
@ 015   ----------------------------------------
	.byte		        Fn3 
	.byte		N90   , As3 
	.byte	W96
@ 016   ----------------------------------------
	.byte		        Fn3 
	.byte		N90   , Gs3 
	.byte	W96
@ 017   ----------------------------------------
	.byte		        Cn3 
	.byte		N90   , Gn3 
	.byte	W96
@ 018   ----------------------------------------
	.byte		        Cn3 
	.byte		N90   , Fs3 
	.byte	W96
@ 019   ----------------------------------------
	.byte		        Dn3 
	.byte		N90   , Gn3 
	.byte	W96
feb20211231090125_3_B1:
@ 020   ----------------------------------------
	.byte		N90   , Fn3 , v064
	.byte		N90   , Gs3 
	.byte	W96
@ 021   ----------------------------------------
	.byte		        Fn3 
	.byte		N90   , As3 
	.byte	W96
@ 022   ----------------------------------------
	.byte		        Ds3 
	.byte		N90   , Gn3 
	.byte	W96
@ 023   ----------------------------------------
	.byte		        Ds3 
	.byte		N90   , Gs3 
	.byte	W96
@ 024   ----------------------------------------
	.byte		        Fn3 
	.byte		N90   , Gs3 
	.byte	W96
@ 025   ----------------------------------------
	.byte		        Fn3 
	.byte		N90   , As3 
	.byte	W96
@ 026   ----------------------------------------
	.byte		        Ds3 
	.byte		N90   , Gn3 
	.byte	W96
@ 027   ----------------------------------------
	.byte		        Dn3 
	.byte		N90   , Gn3 
	.byte	W96
@ 028   ----------------------------------------
	.byte		        Fn3 
	.byte		N90   , Gs3 
	.byte	W96
@ 029   ----------------------------------------
	.byte		        Fn3 
	.byte		N90   , As3 
	.byte	W96
@ 030   ----------------------------------------
	.byte		        Ds3 
	.byte		N90   , Gn3 
	.byte	W96
@ 031   ----------------------------------------
	.byte		        Ds3 
	.byte		N90   , Gs3 
	.byte	W96
@ 032   ----------------------------------------
	.byte		        Fn3 
	.byte		N90   , Gs3 
	.byte	W96
@ 033   ----------------------------------------
	.byte		        Fn3 
	.byte		N90   , As3 
	.byte	W96
@ 034   ----------------------------------------
	.byte		        Gn3 
	.byte		N90   , Cn4 
	.byte	W96
@ 035   ----------------------------------------
	.byte		        Fn3 
	.byte		N90   , Dn4 
	.byte	W96
@ 036   ----------------------------------------
	.byte		        Gn3 , v080
	.byte		N90   , Ds4 
	.byte	W96
@ 037   ----------------------------------------
	.byte		        Gn3 
	.byte		N90   , Dn4 
	.byte	W96
@ 038   ----------------------------------------
	.byte		        Gn3 
	.byte		N90   , Cn4 
	.byte	W96
@ 039   ----------------------------------------
	.byte		        As3 
	.byte		N90   , Dn4 
	.byte	W96
@ 040   ----------------------------------------
	.byte		        Gn3 , v064
	.byte		N90   , Ds4 
	.byte	W96
@ 041   ----------------------------------------
	.byte		        Gn3 
	.byte		N90   , Dn4 
	.byte	W96
@ 042   ----------------------------------------
	.byte		        Gn3 
	.byte		N90   , Cn4 
	.byte	W96
@ 043   ----------------------------------------
	.byte		        Fn3 
	.byte		N90   , As3 
	.byte	W96
@ 044   ----------------------------------------
	.byte		        Fn3 
	.byte		N90   , Gs3 
	.byte	W96
@ 045   ----------------------------------------
	.byte		        Cn3 
	.byte		N90   , Gn3 
	.byte	W96
@ 046   ----------------------------------------
	.byte		        Cn3 
	.byte		N90   , Fs3 
	.byte	W96
@ 047   ----------------------------------------
	.byte		        Dn3 
	.byte		N90   , Gn3 
	.byte	W96
@ 048   ----------------------------------------
	.byte		N90   
	.byte		N90   , Ds4 
	.byte	W96
@ 049   ----------------------------------------
	.byte		        Gn3 
	.byte		N90   , Dn4 
	.byte	W96
@ 050   ----------------------------------------
	.byte		        Gn3 
	.byte		N90   , Cn4 
	.byte	W96
@ 051   ----------------------------------------
	.byte		        Fn3 
	.byte		N90   , As3 
	.byte	W96
@ 052   ----------------------------------------
	.byte		        Fn3 
	.byte		N90   , Gs3 
	.byte	W96
@ 053   ----------------------------------------
	.byte		        Cn3 
	.byte		N90   , Gn3 
	.byte	W96
@ 054   ----------------------------------------
	.byte		        Cn3 
	.byte		N90   , Fs3 
	.byte	W96
@ 055   ----------------------------------------
	.byte		        Dn3 
	.byte		N90   , Gn3 
	.byte	W96
	.byte	GOTO
	 .word	feb20211231090125_3_B1
feb20211231090125_3_B2:
@ 056   ----------------------------------------
	.byte		N90   , Fn3 , v064
	.byte		N90   , Gs3 
	.byte	W96
@ 057   ----------------------------------------
	.byte		        Fn3 
	.byte		N90   , As3 
	.byte	W96
@ 058   ----------------------------------------
	.byte		        Ds3 
	.byte		N90   , Gn3 
	.byte	W96
@ 059   ----------------------------------------
	.byte		        Ds3 
	.byte		N90   , Gs3 
	.byte	W96
@ 060   ----------------------------------------
	.byte		        Fn3 
	.byte		N90   , Gs3 
	.byte	W96
@ 061   ----------------------------------------
	.byte		        Fn3 
	.byte		N90   , As3 
	.byte	W96
@ 062   ----------------------------------------
	.byte		        Ds3 
	.byte		N90   , Gn3 
	.byte	W96
@ 063   ----------------------------------------
	.byte		        Dn3 
	.byte		N90   , Gn3 
	.byte	W96
@ 064   ----------------------------------------
	.byte		        Fn3 
	.byte		N90   , Gs3 
	.byte	W96
@ 065   ----------------------------------------
	.byte		        Fn3 
	.byte		N90   , As3 
	.byte	W96
@ 066   ----------------------------------------
	.byte		        Ds3 
	.byte		N90   , Gn3 
	.byte	W96
@ 067   ----------------------------------------
	.byte		        Ds3 
	.byte		N90   , Gs3 
	.byte	W96
@ 068   ----------------------------------------
	.byte		        Fn3 
	.byte		N90   , Gs3 
	.byte	W96
@ 069   ----------------------------------------
	.byte		        Fn3 
	.byte		N90   , As3 
	.byte	W96
@ 070   ----------------------------------------
	.byte		        Gn3 
	.byte		N90   , Cn4 
	.byte	W96
@ 071   ----------------------------------------
	.byte		        Fn3 
	.byte		N90   , Dn4 
	.byte	W96
@ 072   ----------------------------------------
	.byte		        Gn3 , v080
	.byte		N90   , Ds4 
	.byte	W96
@ 073   ----------------------------------------
	.byte		        Gn3 
	.byte		N90   , Dn4 
	.byte	W96
@ 074   ----------------------------------------
	.byte		        Gn3 
	.byte		N90   , Cn4 
	.byte	W96
@ 075   ----------------------------------------
	.byte		        As3 
	.byte		N90   , Dn4 
	.byte	W92
	.byte	W03
	.byte	FINE

@**************** Track 4 (Midi-Chn.5) ****************@

feb20211231090125_4:
	.byte	KEYSH , feb20211231090125_key+0
@ 000   ----------------------------------------
	.byte		VOICE , 48
	.byte		VOL   , 65*feb20211231090125_mvl/mxv
	.byte		PAN   , c_v+0
	.byte	W96
@ 001   ----------------------------------------
	.byte	W96
@ 002   ----------------------------------------
	.byte	W96
@ 003   ----------------------------------------
	.byte	W96
@ 004   ----------------------------------------
feb20211231090125_4_004:
	.byte		N32   , Ds2 , v080
	.byte	W36
	.byte		        Fn2 
	.byte	W36
	.byte		N22   , Gn2 
	.byte	W24
	.byte	PEND
@ 005   ----------------------------------------
feb20211231090125_4_005:
	.byte		N11   , Dn3 , v080
	.byte	W12
	.byte		N05   
	.byte	W06
	.byte		        Cn3 
	.byte	W06
	.byte		N68   , Gn2 
	.byte	W72
	.byte	PEND
@ 006   ----------------------------------------
feb20211231090125_4_006:
	.byte		N32   , Cn3 , v080
	.byte	W36
	.byte		        Dn3 
	.byte	W36
	.byte		N22   , Ds3 
	.byte	W24
	.byte	PEND
@ 007   ----------------------------------------
	.byte		N90   , As2 
	.byte	W96
@ 008   ----------------------------------------
feb20211231090125_4_008:
	.byte		N32   , Gs2 , v080
	.byte	W36
	.byte		        As2 
	.byte	W36
	.byte		N22   , Cn3 
	.byte	W24
	.byte	PEND
@ 009   ----------------------------------------
feb20211231090125_4_009:
	.byte		N32   , Ds3 , v080
	.byte	W36
	.byte		        Cn3 
	.byte	W36
	.byte		N22   , Ds3 
	.byte	W24
	.byte	PEND
@ 010   ----------------------------------------
feb20211231090125_4_010:
	.byte		N32   , Fs3 , v080
	.byte	W36
	.byte		        Ds3 
	.byte	W36
	.byte		N22   , Dn3 
	.byte	W24
	.byte	PEND
@ 011   ----------------------------------------
feb20211231090125_4_011:
	.byte		N32   , Cn3 , v080
	.byte	W36
	.byte		N56   , Bn2 
	.byte	W60
	.byte	PEND
@ 012   ----------------------------------------
	.byte	PATT
	 .word	feb20211231090125_4_004
@ 013   ----------------------------------------
	.byte	PATT
	 .word	feb20211231090125_4_005
@ 014   ----------------------------------------
	.byte	PATT
	 .word	feb20211231090125_4_006
@ 015   ----------------------------------------
	.byte		N90   , As2 , v080
	.byte	W96
@ 016   ----------------------------------------
	.byte	PATT
	 .word	feb20211231090125_4_008
@ 017   ----------------------------------------
	.byte	PATT
	 .word	feb20211231090125_4_009
@ 018   ----------------------------------------
	.byte	PATT
	 .word	feb20211231090125_4_010
@ 019   ----------------------------------------
	.byte	PATT
	 .word	feb20211231090125_4_011
feb20211231090125_4_B1:
@ 020   ----------------------------------------
feb20211231090125_4_020:
	.byte		N68   , Fn2 , v080
	.byte	W72
	.byte		N22   , Ds3 
	.byte	W24
	.byte	PEND
@ 021   ----------------------------------------
feb20211231090125_4_021:
	.byte		N32   , Dn3 , v080
	.byte	W36
	.byte		        As2 
	.byte	W36
	.byte		N22   , Gs2 
	.byte	W24
	.byte	PEND
@ 022   ----------------------------------------
feb20211231090125_4_022:
	.byte		N32   , Gn2 , v080
	.byte	W36
	.byte		        As2 
	.byte	W36
	.byte		N22   , Ds3 
	.byte	W24
	.byte	PEND
@ 023   ----------------------------------------
feb20211231090125_4_023:
	.byte		N32   , Fn3 , v080
	.byte	W36
	.byte		        Ds3 
	.byte	W36
	.byte		N22   , Dn3 
	.byte	W24
	.byte	PEND
@ 024   ----------------------------------------
	.byte	PATT
	 .word	feb20211231090125_4_020
@ 025   ----------------------------------------
	.byte	PATT
	 .word	feb20211231090125_4_021
@ 026   ----------------------------------------
	.byte	PATT
	 .word	feb20211231090125_4_022
@ 027   ----------------------------------------
feb20211231090125_4_027:
	.byte		N32   , Dn3 , v080
	.byte	W36
	.byte		        Cn3 
	.byte	W36
	.byte		N22   , Bn2 
	.byte	W24
	.byte	PEND
@ 028   ----------------------------------------
	.byte	PATT
	 .word	feb20211231090125_4_020
@ 029   ----------------------------------------
	.byte	PATT
	 .word	feb20211231090125_4_021
@ 030   ----------------------------------------
	.byte	PATT
	 .word	feb20211231090125_4_022
@ 031   ----------------------------------------
	.byte	PATT
	 .word	feb20211231090125_4_023
@ 032   ----------------------------------------
feb20211231090125_4_032:
	.byte		N32   , Cn3 , v080
	.byte	W36
	.byte		        Gn2 
	.byte	W36
	.byte		N22   , Ds3 
	.byte	W24
	.byte	PEND
@ 033   ----------------------------------------
feb20211231090125_4_033:
	.byte		N32   , Dn3 , v080
	.byte	W36
	.byte		        Cn3 
	.byte	W36
	.byte		N22   , As2 
	.byte	W24
	.byte	PEND
@ 034   ----------------------------------------
	.byte	PATT
	 .word	feb20211231090125_4_032
@ 035   ----------------------------------------
	.byte	PATT
	 .word	feb20211231090125_4_033
@ 036   ----------------------------------------
feb20211231090125_4_036:
	.byte		N68   , Cn3 , v080
	.byte	W72
	.byte		N22   , Ds3 
	.byte	W24
	.byte	PEND
@ 037   ----------------------------------------
	.byte	PATT
	 .word	feb20211231090125_4_033
@ 038   ----------------------------------------
feb20211231090125_4_038:
	.byte		N68   , Cn3 , v080
	.byte	W72
	.byte		N22   , Gn3 
	.byte	W24
	.byte	PEND
@ 039   ----------------------------------------
	.byte	PATT
	 .word	feb20211231090125_4_023
@ 040   ----------------------------------------
	.byte	PATT
	 .word	feb20211231090125_4_004
@ 041   ----------------------------------------
	.byte	PATT
	 .word	feb20211231090125_4_005
@ 042   ----------------------------------------
	.byte	PATT
	 .word	feb20211231090125_4_006
@ 043   ----------------------------------------
	.byte		N90   , As2 , v080
	.byte	W96
@ 044   ----------------------------------------
	.byte	PATT
	 .word	feb20211231090125_4_008
@ 045   ----------------------------------------
	.byte	PATT
	 .word	feb20211231090125_4_009
@ 046   ----------------------------------------
	.byte	PATT
	 .word	feb20211231090125_4_010
@ 047   ----------------------------------------
	.byte	PATT
	 .word	feb20211231090125_4_011
@ 048   ----------------------------------------
	.byte	PATT
	 .word	feb20211231090125_4_004
@ 049   ----------------------------------------
	.byte	PATT
	 .word	feb20211231090125_4_005
@ 050   ----------------------------------------
	.byte	PATT
	 .word	feb20211231090125_4_006
@ 051   ----------------------------------------
	.byte		N90   , As2 , v080
	.byte	W96
@ 052   ----------------------------------------
	.byte	PATT
	 .word	feb20211231090125_4_008
@ 053   ----------------------------------------
	.byte	PATT
	 .word	feb20211231090125_4_009
@ 054   ----------------------------------------
	.byte	PATT
	 .word	feb20211231090125_4_010
@ 055   ----------------------------------------
	.byte	PATT
	 .word	feb20211231090125_4_011
	.byte	GOTO
	 .word	feb20211231090125_4_B1
feb20211231090125_4_B2:
@ 056   ----------------------------------------
	.byte	PATT
	 .word	feb20211231090125_4_020
@ 057   ----------------------------------------
	.byte	PATT
	 .word	feb20211231090125_4_021
@ 058   ----------------------------------------
	.byte	PATT
	 .word	feb20211231090125_4_022
@ 059   ----------------------------------------
	.byte	PATT
	 .word	feb20211231090125_4_023
@ 060   ----------------------------------------
	.byte	PATT
	 .word	feb20211231090125_4_020
@ 061   ----------------------------------------
	.byte	PATT
	 .word	feb20211231090125_4_021
@ 062   ----------------------------------------
	.byte	PATT
	 .word	feb20211231090125_4_022
@ 063   ----------------------------------------
	.byte	PATT
	 .word	feb20211231090125_4_027
@ 064   ----------------------------------------
	.byte	PATT
	 .word	feb20211231090125_4_020
@ 065   ----------------------------------------
	.byte	PATT
	 .word	feb20211231090125_4_021
@ 066   ----------------------------------------
	.byte	PATT
	 .word	feb20211231090125_4_022
@ 067   ----------------------------------------
	.byte	PATT
	 .word	feb20211231090125_4_023
@ 068   ----------------------------------------
	.byte	PATT
	 .word	feb20211231090125_4_032
@ 069   ----------------------------------------
	.byte	PATT
	 .word	feb20211231090125_4_033
@ 070   ----------------------------------------
	.byte	PATT
	 .word	feb20211231090125_4_032
@ 071   ----------------------------------------
	.byte	PATT
	 .word	feb20211231090125_4_033
@ 072   ----------------------------------------
	.byte	PATT
	 .word	feb20211231090125_4_036
@ 073   ----------------------------------------
	.byte	PATT
	 .word	feb20211231090125_4_033
@ 074   ----------------------------------------
	.byte	PATT
	 .word	feb20211231090125_4_038
@ 075   ----------------------------------------
	.byte		N32   , Fn3 , v080
	.byte	W36
	.byte		        Ds3 
	.byte	W36
	.byte		N22   , Dn3 
	.byte	W23
	.byte	FINE

@**************** Track 5 (Midi-Chn.6) ****************@

feb20211231090125_5:
	.byte	KEYSH , feb20211231090125_key+0
@ 000   ----------------------------------------
	.byte		VOICE , 24
	.byte		VOL   , 65*feb20211231090125_mvl/mxv
	.byte		PAN   , c_v+0
	.byte		N11   , Gn2 , v080
	.byte		N11   , Cn3 
	.byte		N11   , Ds3 
	.byte	W12
	.byte		N05   , Gn2 
	.byte		N05   , Cn3 
	.byte		N05   , Ds3 
	.byte	W06
	.byte		        Gn2 
	.byte		N05   , Cn3 
	.byte		N05   , Ds3 
	.byte	W06
	.byte		N11   , Gn2 
	.byte		N11   , Cn3 
	.byte		N11   , Ds3 
	.byte	W12
	.byte		N23   , Gn2 
	.byte		N23   , Cn3 
	.byte		N23   , Ds3 
	.byte	W24
	.byte		N11   , Gn2 
	.byte		N11   , Cn3 
	.byte		N11   , Ds3 
	.byte	W12
	.byte		        Gn2 
	.byte		N11   , Cn3 
	.byte		N11   , Ds3 
	.byte	W12
	.byte		        Gn2 
	.byte		N11   , Cn3 
	.byte		N11   , Ds3 
	.byte	W12
@ 001   ----------------------------------------
feb20211231090125_5_001:
	.byte		N11   , Fn2 , v080
	.byte		N11   , As2 
	.byte		N11   , Dn3 
	.byte	W12
	.byte		N05   , Fn2 
	.byte		N05   , As2 
	.byte		N05   , Dn3 
	.byte	W06
	.byte		        Fn2 
	.byte		N05   , As2 
	.byte		N05   , Dn3 
	.byte	W06
	.byte		N11   , Fn2 
	.byte		N11   , As2 
	.byte		N11   , Dn3 
	.byte	W12
	.byte		N23   , Fn2 
	.byte		N23   , As2 
	.byte		N23   , Dn3 
	.byte	W24
	.byte		N11   , Fn2 
	.byte		N11   , As2 
	.byte		N11   , Dn3 
	.byte	W12
	.byte		        Fn2 
	.byte		N11   , As2 
	.byte		N11   , Dn3 
	.byte	W12
	.byte		        Fn2 
	.byte		N11   , As2 
	.byte		N11   , Dn3 
	.byte	W12
	.byte	PEND
@ 002   ----------------------------------------
feb20211231090125_5_002:
	.byte		N11   , Gs2 , v080
	.byte		N11   , Cn3 
	.byte		N11   , Ds3 
	.byte	W12
	.byte		N05   , Gs2 
	.byte		N05   , Cn3 
	.byte		N05   , Ds3 
	.byte	W06
	.byte		        Gs2 
	.byte		N05   , Cn3 
	.byte		N05   , Ds3 
	.byte	W06
	.byte		N11   , Gs2 
	.byte		N11   , Cn3 
	.byte		N11   , Ds3 
	.byte	W12
	.byte		N23   , Gs2 
	.byte		N23   , Cn3 
	.byte		N23   , Ds3 
	.byte	W24
	.byte		N11   , Gs2 
	.byte		N11   , Cn3 
	.byte		N11   , Ds3 
	.byte	W12
	.byte		        Gs2 
	.byte		N11   , Cn3 
	.byte		N11   , Ds3 
	.byte	W12
	.byte		        Gs2 
	.byte		N11   , Cn3 
	.byte		N11   , Ds3 
	.byte	W12
	.byte	PEND
@ 003   ----------------------------------------
feb20211231090125_5_003:
	.byte		N11   , As2 , v080
	.byte		N11   , Dn3 
	.byte		N11   , Fn3 
	.byte	W12
	.byte		N05   , As2 
	.byte		N05   , Dn3 
	.byte		N05   , Fn3 
	.byte	W06
	.byte		        As2 
	.byte		N05   , Dn3 
	.byte		N05   , Fn3 
	.byte	W06
	.byte		N11   , As2 
	.byte		N11   , Dn3 
	.byte		N11   , Fn3 
	.byte	W12
	.byte		N23   , As2 
	.byte		N23   , Dn3 
	.byte		N23   , Fn3 
	.byte	W24
	.byte		N11   , As2 
	.byte		N11   , Dn3 
	.byte		N11   , Fn3 
	.byte	W12
	.byte		        As2 
	.byte		N11   , Dn3 
	.byte		N11   , Fn3 
	.byte	W12
	.byte		        As2 
	.byte		N11   , Dn3 
	.byte		N11   , Fn3 
	.byte	W12
	.byte	PEND
@ 004   ----------------------------------------
feb20211231090125_5_004:
	.byte		N11   , Gn2 , v080
	.byte		N11   , Cn3 
	.byte		N11   , Ds3 
	.byte	W12
	.byte		N05   , Gn2 
	.byte		N05   , Cn3 
	.byte		N05   , Ds3 
	.byte	W06
	.byte		        Gn2 
	.byte		N05   , Cn3 
	.byte		N05   , Ds3 
	.byte	W06
	.byte		N11   , Gn2 
	.byte		N11   , Cn3 
	.byte		N11   , Ds3 
	.byte	W12
	.byte		N23   , Gn2 
	.byte		N23   , Cn3 
	.byte		N23   , Ds3 
	.byte	W24
	.byte		N11   , Gn2 
	.byte		N11   , Cn3 
	.byte		N11   , Ds3 
	.byte	W12
	.byte		        Gn2 
	.byte		N11   , Cn3 
	.byte		N11   , Ds3 
	.byte	W12
	.byte		        Gn2 
	.byte		N11   , Cn3 
	.byte		N11   , Ds3 
	.byte	W12
	.byte	PEND
@ 005   ----------------------------------------
feb20211231090125_5_005:
	.byte		N11   , Gn2 , v080
	.byte		N11   , As2 
	.byte		N11   , Dn3 
	.byte	W12
	.byte		N05   , Gn2 
	.byte		N05   , As2 
	.byte		N05   , Dn3 
	.byte	W06
	.byte		        Gn2 
	.byte		N05   , As2 
	.byte		N05   , Dn3 
	.byte	W06
	.byte		N11   , Gn2 
	.byte		N11   , As2 
	.byte		N11   , Dn3 
	.byte	W12
	.byte		N23   , Gn2 
	.byte		N23   , As2 
	.byte		N23   , Dn3 
	.byte	W24
	.byte		N11   , Gn2 
	.byte		N11   , As2 
	.byte		N11   , Dn3 
	.byte	W12
	.byte		        Gn2 
	.byte		N11   , As2 
	.byte		N11   , Dn3 
	.byte	W12
	.byte		        Gn2 
	.byte		N11   , As2 
	.byte		N11   , Dn3 
	.byte	W12
	.byte	PEND
@ 006   ----------------------------------------
	.byte	PATT
	 .word	feb20211231090125_5_002
@ 007   ----------------------------------------
feb20211231090125_5_007:
	.byte		N11   , Gn2 , v080
	.byte		N11   , As2 
	.byte		N11   , Ds3 
	.byte	W12
	.byte		N05   , Gn2 
	.byte		N05   , As2 
	.byte		N05   , Ds3 
	.byte	W06
	.byte		        Gn2 
	.byte		N05   , As2 
	.byte		N05   , Ds3 
	.byte	W06
	.byte		N11   , Gn2 
	.byte		N11   , As2 
	.byte		N11   , Ds3 
	.byte	W12
	.byte		N23   , Gn2 
	.byte		N23   , As2 
	.byte		N23   , Ds3 
	.byte	W24
	.byte		N11   , Gn2 
	.byte		N11   , As2 
	.byte		N11   , Ds3 
	.byte	W12
	.byte		        Gn2 
	.byte		N11   , As2 
	.byte		N11   , Ds3 
	.byte	W12
	.byte		        Gn2 
	.byte		N11   , As2 
	.byte		N11   , Ds3 
	.byte	W12
	.byte	PEND
@ 008   ----------------------------------------
feb20211231090125_5_008:
	.byte		N11   , Gs2 , v080
	.byte		N11   , Cn3 
	.byte		N11   , Fn3 
	.byte	W12
	.byte		N05   , Gs2 
	.byte		N05   , Cn3 
	.byte		N05   , Fn3 
	.byte	W06
	.byte		        Gs2 
	.byte		N05   , Cn3 
	.byte		N05   , Fn3 
	.byte	W06
	.byte		N11   , Gs2 
	.byte		N11   , Cn3 
	.byte		N11   , Fn3 
	.byte	W12
	.byte		N23   , Gs2 
	.byte		N23   , Cn3 
	.byte		N23   , Fn3 
	.byte	W24
	.byte		N11   , Gs2 
	.byte		N11   , Cn3 
	.byte		N11   , Fn3 
	.byte	W12
	.byte		        Gs2 
	.byte		N11   , Cn3 
	.byte		N11   , Fn3 
	.byte	W12
	.byte		        Gs2 
	.byte		N11   , Cn3 
	.byte		N11   , Fn3 
	.byte	W12
	.byte	PEND
@ 009   ----------------------------------------
	.byte	PATT
	 .word	feb20211231090125_5_004
@ 010   ----------------------------------------
feb20211231090125_5_010:
	.byte		N11   , An2 , v080
	.byte		N11   , Dn3 
	.byte		N11   , Fs3 
	.byte	W12
	.byte		N05   , An2 
	.byte		N05   , Dn3 
	.byte		N05   , Fs3 
	.byte	W06
	.byte		        An2 
	.byte		N05   , Dn3 
	.byte		N05   , Fs3 
	.byte	W06
	.byte		N11   , An2 
	.byte		N11   , Dn3 
	.byte		N11   , Fs3 
	.byte	W12
	.byte		N23   , An2 
	.byte		N23   , Dn3 
	.byte		N23   , Fs3 
	.byte	W24
	.byte		N11   , An2 
	.byte		N11   , Dn3 
	.byte		N11   , Fs3 
	.byte	W12
	.byte		        An2 
	.byte		N11   , Dn3 
	.byte		N11   , Fs3 
	.byte	W12
	.byte		        An2 
	.byte		N11   , Dn3 
	.byte		N11   , Fs3 
	.byte	W12
	.byte	PEND
@ 011   ----------------------------------------
feb20211231090125_5_011:
	.byte		N11   , Gn2 , v080
	.byte		N11   , Cn3 
	.byte		N11   , Dn3 
	.byte	W12
	.byte		N05   , Gn2 
	.byte		N05   , Cn3 
	.byte		N05   , Dn3 
	.byte	W06
	.byte		        Gn2 
	.byte		N05   , Cn3 
	.byte		N05   , Dn3 
	.byte	W06
	.byte		N11   , Gn2 
	.byte		N11   , Cn3 
	.byte		N11   , Dn3 
	.byte	W12
	.byte		N23   , Gn2 
	.byte		N23   , Bn2 
	.byte		N23   , Dn3 
	.byte	W24
	.byte		N11   , Gn2 
	.byte		N11   , Bn2 
	.byte		N11   , Dn3 
	.byte	W12
	.byte		        Gn2 
	.byte		N11   , Bn2 
	.byte		N11   , Dn3 
	.byte	W12
	.byte		        Gn2 
	.byte		N11   , Bn2 
	.byte		N11   , Dn3 
	.byte	W12
	.byte	PEND
@ 012   ----------------------------------------
	.byte	PATT
	 .word	feb20211231090125_5_004
@ 013   ----------------------------------------
	.byte	PATT
	 .word	feb20211231090125_5_005
@ 014   ----------------------------------------
	.byte	PATT
	 .word	feb20211231090125_5_002
@ 015   ----------------------------------------
	.byte	PATT
	 .word	feb20211231090125_5_007
@ 016   ----------------------------------------
	.byte	PATT
	 .word	feb20211231090125_5_008
@ 017   ----------------------------------------
	.byte	PATT
	 .word	feb20211231090125_5_004
@ 018   ----------------------------------------
	.byte	PATT
	 .word	feb20211231090125_5_010
@ 019   ----------------------------------------
	.byte	PATT
	 .word	feb20211231090125_5_011
feb20211231090125_5_B1:
@ 020   ----------------------------------------
	.byte	PATT
	 .word	feb20211231090125_5_008
@ 021   ----------------------------------------
	.byte	PATT
	 .word	feb20211231090125_5_003
@ 022   ----------------------------------------
	.byte	PATT
	 .word	feb20211231090125_5_007
@ 023   ----------------------------------------
	.byte	PATT
	 .word	feb20211231090125_5_002
@ 024   ----------------------------------------
	.byte	PATT
	 .word	feb20211231090125_5_008
@ 025   ----------------------------------------
	.byte	PATT
	 .word	feb20211231090125_5_003
@ 026   ----------------------------------------
	.byte	PATT
	 .word	feb20211231090125_5_007
@ 027   ----------------------------------------
feb20211231090125_5_027:
	.byte		N11   , Gn2 , v080
	.byte		N11   , Cn3 
	.byte		N11   , Dn3 
	.byte	W12
	.byte		N05   , Gn2 
	.byte		N05   , Cn3 
	.byte		N05   , Dn3 
	.byte	W06
	.byte		        Gn2 
	.byte		N05   , Cn3 
	.byte		N05   , Dn3 
	.byte	W06
	.byte		N11   , Gn2 
	.byte		N11   , Cn3 
	.byte		N11   , Dn3 
	.byte	W12
	.byte		N23   , Gn2 
	.byte		N23   , Cn3 
	.byte		N23   , Dn3 
	.byte	W24
	.byte		N11   , Gn2 
	.byte		N11   , Cn3 
	.byte		N11   , Dn3 
	.byte	W12
	.byte		        Gn2 
	.byte		N11   , Bn2 
	.byte		N11   , Dn3 
	.byte	W12
	.byte		        Gn2 
	.byte		N11   , Bn2 
	.byte		N11   , Dn3 
	.byte	W12
	.byte	PEND
@ 028   ----------------------------------------
	.byte	PATT
	 .word	feb20211231090125_5_008
@ 029   ----------------------------------------
	.byte	PATT
	 .word	feb20211231090125_5_003
@ 030   ----------------------------------------
	.byte	PATT
	 .word	feb20211231090125_5_007
@ 031   ----------------------------------------
	.byte	PATT
	 .word	feb20211231090125_5_002
@ 032   ----------------------------------------
	.byte	PATT
	 .word	feb20211231090125_5_002
@ 033   ----------------------------------------
	.byte	PATT
	 .word	feb20211231090125_5_003
@ 034   ----------------------------------------
feb20211231090125_5_034:
	.byte		N11   , Cn3 , v080
	.byte		N11   , Ds3 
	.byte		N11   , Gn3 
	.byte	W12
	.byte		N05   , Cn3 
	.byte		N05   , Ds3 
	.byte		N05   , Gn3 
	.byte	W06
	.byte		        Cn3 
	.byte		N05   , Ds3 
	.byte		N05   , Gn3 
	.byte	W06
	.byte		N11   , Cn3 
	.byte		N11   , Ds3 
	.byte		N11   , Gn3 
	.byte	W12
	.byte		N23   , Cn3 
	.byte		N23   , Ds3 
	.byte		N23   , Gn3 
	.byte	W24
	.byte		N11   , Cn3 
	.byte		N11   , Ds3 
	.byte		N11   , Gn3 
	.byte	W12
	.byte		        Cn3 
	.byte		N11   , Ds3 
	.byte		N11   , Gn3 
	.byte	W12
	.byte		        Cn3 
	.byte		N11   , Ds3 
	.byte		N11   , Gn3 
	.byte	W12
	.byte	PEND
@ 035   ----------------------------------------
feb20211231090125_5_035:
	.byte		N11   , As2 , v080
	.byte		N11   , Dn3 
	.byte		N11   , Gn3 
	.byte	W12
	.byte		N05   , As2 
	.byte		N05   , Dn3 
	.byte		N05   , Gn3 
	.byte	W06
	.byte		        As2 
	.byte		N05   , Dn3 
	.byte		N05   , Gn3 
	.byte	W06
	.byte		N11   , As2 
	.byte		N11   , Dn3 
	.byte		N11   , Gn3 
	.byte	W12
	.byte		N23   , As2 
	.byte		N23   , Dn3 
	.byte		N23   , Gn3 
	.byte	W24
	.byte		N11   , As2 
	.byte		N11   , Dn3 
	.byte		N11   , Gn3 
	.byte	W12
	.byte		        As2 
	.byte		N11   , Dn3 
	.byte		N11   , Gn3 
	.byte	W12
	.byte		        As2 
	.byte		N11   , Dn3 
	.byte		N11   , Gn3 
	.byte	W12
	.byte	PEND
@ 036   ----------------------------------------
	.byte	PATT
	 .word	feb20211231090125_5_004
@ 037   ----------------------------------------
	.byte	PATT
	 .word	feb20211231090125_5_001
@ 038   ----------------------------------------
	.byte	PATT
	 .word	feb20211231090125_5_002
@ 039   ----------------------------------------
	.byte	PATT
	 .word	feb20211231090125_5_003
@ 040   ----------------------------------------
	.byte	PATT
	 .word	feb20211231090125_5_004
@ 041   ----------------------------------------
	.byte	PATT
	 .word	feb20211231090125_5_005
@ 042   ----------------------------------------
	.byte	PATT
	 .word	feb20211231090125_5_002
@ 043   ----------------------------------------
	.byte	PATT
	 .word	feb20211231090125_5_007
@ 044   ----------------------------------------
	.byte	PATT
	 .word	feb20211231090125_5_008
@ 045   ----------------------------------------
	.byte	PATT
	 .word	feb20211231090125_5_004
@ 046   ----------------------------------------
	.byte	PATT
	 .word	feb20211231090125_5_010
@ 047   ----------------------------------------
	.byte	PATT
	 .word	feb20211231090125_5_011
@ 048   ----------------------------------------
	.byte	PATT
	 .word	feb20211231090125_5_004
@ 049   ----------------------------------------
	.byte	PATT
	 .word	feb20211231090125_5_005
@ 050   ----------------------------------------
	.byte	PATT
	 .word	feb20211231090125_5_002
@ 051   ----------------------------------------
	.byte	PATT
	 .word	feb20211231090125_5_007
@ 052   ----------------------------------------
	.byte	PATT
	 .word	feb20211231090125_5_008
@ 053   ----------------------------------------
	.byte	PATT
	 .word	feb20211231090125_5_004
@ 054   ----------------------------------------
	.byte	PATT
	 .word	feb20211231090125_5_010
@ 055   ----------------------------------------
	.byte	PATT
	 .word	feb20211231090125_5_011
	.byte	GOTO
	 .word	feb20211231090125_5_B1
feb20211231090125_5_B2:
@ 056   ----------------------------------------
	.byte	PATT
	 .word	feb20211231090125_5_008
@ 057   ----------------------------------------
	.byte	PATT
	 .word	feb20211231090125_5_003
@ 058   ----------------------------------------
	.byte	PATT
	 .word	feb20211231090125_5_007
@ 059   ----------------------------------------
	.byte	PATT
	 .word	feb20211231090125_5_002
@ 060   ----------------------------------------
	.byte	PATT
	 .word	feb20211231090125_5_008
@ 061   ----------------------------------------
	.byte	PATT
	 .word	feb20211231090125_5_003
@ 062   ----------------------------------------
	.byte	PATT
	 .word	feb20211231090125_5_007
@ 063   ----------------------------------------
	.byte	PATT
	 .word	feb20211231090125_5_027
@ 064   ----------------------------------------
	.byte	PATT
	 .word	feb20211231090125_5_008
@ 065   ----------------------------------------
	.byte	PATT
	 .word	feb20211231090125_5_003
@ 066   ----------------------------------------
	.byte	PATT
	 .word	feb20211231090125_5_007
@ 067   ----------------------------------------
	.byte	PATT
	 .word	feb20211231090125_5_002
@ 068   ----------------------------------------
	.byte	PATT
	 .word	feb20211231090125_5_002
@ 069   ----------------------------------------
	.byte	PATT
	 .word	feb20211231090125_5_003
@ 070   ----------------------------------------
	.byte	PATT
	 .word	feb20211231090125_5_034
@ 071   ----------------------------------------
	.byte	PATT
	 .word	feb20211231090125_5_035
@ 072   ----------------------------------------
	.byte	PATT
	 .word	feb20211231090125_5_004
@ 073   ----------------------------------------
	.byte	PATT
	 .word	feb20211231090125_5_001
@ 074   ----------------------------------------
	.byte	PATT
	 .word	feb20211231090125_5_002
@ 075   ----------------------------------------
	.byte		N11   , As2 , v080
	.byte		N11   , Dn3 
	.byte		N11   , Fn3 
	.byte	W12
	.byte		N05   , As2 
	.byte		N05   , Dn3 
	.byte		N05   , Fn3 
	.byte	W06
	.byte		        As2 
	.byte		N05   , Dn3 
	.byte		N05   , Fn3 
	.byte	W06
	.byte		N11   , As2 
	.byte		N11   , Dn3 
	.byte		N11   , Fn3 
	.byte	W12
	.byte		N23   , As2 
	.byte		N23   , Dn3 
	.byte		N23   , Fn3 
	.byte	W24
	.byte		N11   , As2 
	.byte		N11   , Dn3 
	.byte		N11   , Fn3 
	.byte	W12
	.byte		        As2 
	.byte		N11   , Dn3 
	.byte		N11   , Fn3 
	.byte	W12
	.byte		        As2 
	.byte		N11   , Dn3 
	.byte		N11   , Fn3 
	.byte	W11
	.byte	FINE

@**************** Track 6 (Midi-Chn.9) ****************@

feb20211231090125_6:
	.byte	KEYSH , feb20211231090125_key+0
@ 000   ----------------------------------------
	.byte		VOICE , 32
	.byte		VOL   , 70*feb20211231090125_mvl/mxv
	.byte		PAN   , c_v+0
	.byte		N80   , Cn1 , v080
	.byte	W84
	.byte		N05   , Gn1 
	.byte	W12
@ 001   ----------------------------------------
feb20211231090125_6_001:
	.byte		N80   , Cn2 , v080
	.byte	W84
	.byte		N11   , Gn1 
	.byte	W12
	.byte	PEND
@ 002   ----------------------------------------
	.byte		N92   , Cn1 
	.byte	W96
@ 003   ----------------------------------------
feb20211231090125_6_003:
	.byte		N23   , Cn1 , v080
	.byte	W24
	.byte		N05   , Gn1 
	.byte	W12
	.byte		N23   , Cn2 
	.byte	W24
	.byte		        Gn1 
	.byte	W24
	.byte		N11   , Cn1 
	.byte	W12
	.byte	PEND
@ 004   ----------------------------------------
feb20211231090125_6_004:
	.byte		N32   , Cn1 , v080
	.byte	W36
	.byte		N23   , Gn1 
	.byte	W24
	.byte		N11   , Ds1 
	.byte	W12
	.byte		        Fn1 
	.byte	W12
	.byte		        Gn1 
	.byte	W12
	.byte	PEND
@ 005   ----------------------------------------
feb20211231090125_6_005:
	.byte		N32   , As0 , v080
	.byte	W36
	.byte		N23   , Fn1 
	.byte	W24
	.byte		N11   , As0 
	.byte	W12
	.byte		        Cn1 
	.byte	W12
	.byte		        Dn1 
	.byte	W12
	.byte	PEND
@ 006   ----------------------------------------
feb20211231090125_6_006:
	.byte		N32   , Gs0 , v080
	.byte	W36
	.byte		N23   , Ds1 
	.byte	W24
	.byte		N11   , Gs0 
	.byte	W12
	.byte		        As0 
	.byte	W12
	.byte		        Cn1 
	.byte	W12
	.byte	PEND
@ 007   ----------------------------------------
feb20211231090125_6_007:
	.byte		N32   , Gn0 , v080
	.byte	W36
	.byte		N23   , Ds1 
	.byte	W24
	.byte		N11   , As1 
	.byte	W12
	.byte		        Gn1 
	.byte	W12
	.byte		        As1 
	.byte	W12
	.byte	PEND
@ 008   ----------------------------------------
feb20211231090125_6_008:
	.byte		N32   , Fn0 , v080
	.byte	W36
	.byte		N23   , Cn1 
	.byte	W24
	.byte		N11   , As0 
	.byte	W12
	.byte		N05   , Cn1 
	.byte	W12
	.byte		N11   , Dn1 
	.byte	W12
	.byte	PEND
@ 009   ----------------------------------------
feb20211231090125_6_009:
	.byte		N32   , Ds1 , v080
	.byte	W36
	.byte		N23   , Cn2 
	.byte	W24
	.byte		N11   , Ds1 
	.byte	W12
	.byte		        Fn1 
	.byte	W12
	.byte		        Gn1 
	.byte	W12
	.byte	PEND
@ 010   ----------------------------------------
feb20211231090125_6_010:
	.byte		N32   , Dn1 , v080
	.byte	W36
	.byte		N23   , An1 
	.byte	W24
	.byte		N11   , Dn1 
	.byte	W12
	.byte		        En1 
	.byte	W12
	.byte		        Fs1 
	.byte	W12
	.byte	PEND
@ 011   ----------------------------------------
feb20211231090125_6_011:
	.byte		N32   , Gn0 , v080
	.byte	W36
	.byte		N23   , Dn1 
	.byte	W24
	.byte		N11   , Gn0 
	.byte	W12
	.byte		        Dn1 
	.byte	W12
	.byte		        Bn0 
	.byte	W12
	.byte	PEND
@ 012   ----------------------------------------
	.byte	PATT
	 .word	feb20211231090125_6_004
@ 013   ----------------------------------------
	.byte	PATT
	 .word	feb20211231090125_6_005
@ 014   ----------------------------------------
	.byte	PATT
	 .word	feb20211231090125_6_006
@ 015   ----------------------------------------
	.byte	PATT
	 .word	feb20211231090125_6_007
@ 016   ----------------------------------------
	.byte	PATT
	 .word	feb20211231090125_6_008
@ 017   ----------------------------------------
	.byte	PATT
	 .word	feb20211231090125_6_009
@ 018   ----------------------------------------
	.byte	PATT
	 .word	feb20211231090125_6_010
@ 019   ----------------------------------------
	.byte	PATT
	 .word	feb20211231090125_6_011
feb20211231090125_6_B1:
@ 020   ----------------------------------------
feb20211231090125_6_020:
	.byte		N32   , Fn0 , v080
	.byte	W36
	.byte		N23   , Cn1 
	.byte	W24
	.byte		N11   , Fn0 
	.byte	W12
	.byte		        Gs0 
	.byte	W12
	.byte		        Cn1 
	.byte	W12
	.byte	PEND
@ 021   ----------------------------------------
feb20211231090125_6_021:
	.byte		N23   , As0 , v080
	.byte	W24
	.byte		N05   , Dn1 
	.byte	W12
	.byte		N23   , Fn1 
	.byte	W24
	.byte		N11   , As0 
	.byte	W12
	.byte		        Dn1 
	.byte	W12
	.byte		        Fn1 
	.byte	W12
	.byte	PEND
@ 022   ----------------------------------------
feb20211231090125_6_022:
	.byte		N32   , Ds0 , v080
	.byte	W36
	.byte		N23   , As0 
	.byte	W24
	.byte		N11   , Ds0 
	.byte	W12
	.byte		        Gn0 
	.byte	W12
	.byte		        As0 
	.byte	W12
	.byte	PEND
@ 023   ----------------------------------------
feb20211231090125_6_023:
	.byte		N23   , Gs0 , v080
	.byte	W36
	.byte		N23   
	.byte	W24
	.byte		        Gn0 
	.byte	W24
	.byte		N11   , Gs0 
	.byte	W12
	.byte	PEND
@ 024   ----------------------------------------
	.byte	PATT
	 .word	feb20211231090125_6_020
@ 025   ----------------------------------------
feb20211231090125_6_025:
	.byte		N32   , As0 , v080
	.byte	W36
	.byte		N23   , Fn1 
	.byte	W24
	.byte		N11   , As0 
	.byte	W12
	.byte		        Dn1 
	.byte	W12
	.byte		        As0 
	.byte	W12
	.byte	PEND
@ 026   ----------------------------------------
feb20211231090125_6_026:
	.byte		N32   , Ds0 , v080
	.byte	W36
	.byte		        As0 
	.byte	W36
	.byte		N23   , Ds0 
	.byte	W24
	.byte	PEND
@ 027   ----------------------------------------
feb20211231090125_6_027:
	.byte		N23   , Gn0 , v080
	.byte	W36
	.byte		N23   
	.byte	W24
	.byte		        Dn1 
	.byte	W24
	.byte		N11   , Gn0 
	.byte	W12
	.byte	PEND
@ 028   ----------------------------------------
	.byte	PATT
	 .word	feb20211231090125_6_020
@ 029   ----------------------------------------
	.byte	PATT
	 .word	feb20211231090125_6_021
@ 030   ----------------------------------------
	.byte	PATT
	 .word	feb20211231090125_6_022
@ 031   ----------------------------------------
	.byte	PATT
	 .word	feb20211231090125_6_023
@ 032   ----------------------------------------
	.byte	PATT
	 .word	feb20211231090125_6_020
@ 033   ----------------------------------------
feb20211231090125_6_033:
	.byte		N32   , Gn0 , v080
	.byte	W36
	.byte		N23   , Dn1 
	.byte	W24
	.byte		N11   , Gn0 
	.byte	W12
	.byte		        As0 
	.byte	W12
	.byte		        Dn1 
	.byte	W12
	.byte	PEND
@ 034   ----------------------------------------
feb20211231090125_6_034:
	.byte		N32   , Gs0 , v080
	.byte	W36
	.byte		N23   , Ds1 
	.byte	W24
	.byte		N11   , Gs0 
	.byte	W12
	.byte		        Cn1 
	.byte	W12
	.byte		        Ds1 
	.byte	W12
	.byte	PEND
@ 035   ----------------------------------------
feb20211231090125_6_035:
	.byte		N23   , As0 , v080
	.byte	W36
	.byte		        As1 
	.byte	W24
	.byte		N11   , Fn1 
	.byte	W12
	.byte		N23   , As0 
	.byte	W24
	.byte	PEND
@ 036   ----------------------------------------
feb20211231090125_6_036:
	.byte		N80   , Cn1 , v080
	.byte	W84
	.byte		N05   , Gn1 
	.byte	W12
	.byte	PEND
@ 037   ----------------------------------------
	.byte	PATT
	 .word	feb20211231090125_6_001
@ 038   ----------------------------------------
	.byte		N92   , Cn1 , v080
	.byte	W96
@ 039   ----------------------------------------
	.byte	PATT
	 .word	feb20211231090125_6_003
@ 040   ----------------------------------------
	.byte	PATT
	 .word	feb20211231090125_6_004
@ 041   ----------------------------------------
	.byte	PATT
	 .word	feb20211231090125_6_005
@ 042   ----------------------------------------
	.byte	PATT
	 .word	feb20211231090125_6_006
@ 043   ----------------------------------------
	.byte	PATT
	 .word	feb20211231090125_6_007
@ 044   ----------------------------------------
	.byte	PATT
	 .word	feb20211231090125_6_008
@ 045   ----------------------------------------
	.byte	PATT
	 .word	feb20211231090125_6_009
@ 046   ----------------------------------------
	.byte	PATT
	 .word	feb20211231090125_6_010
@ 047   ----------------------------------------
	.byte	PATT
	 .word	feb20211231090125_6_011
@ 048   ----------------------------------------
	.byte	PATT
	 .word	feb20211231090125_6_004
@ 049   ----------------------------------------
	.byte	PATT
	 .word	feb20211231090125_6_005
@ 050   ----------------------------------------
	.byte	PATT
	 .word	feb20211231090125_6_006
@ 051   ----------------------------------------
	.byte	PATT
	 .word	feb20211231090125_6_007
@ 052   ----------------------------------------
	.byte	PATT
	 .word	feb20211231090125_6_008
@ 053   ----------------------------------------
	.byte	PATT
	 .word	feb20211231090125_6_009
@ 054   ----------------------------------------
	.byte	PATT
	 .word	feb20211231090125_6_010
@ 055   ----------------------------------------
	.byte	PATT
	 .word	feb20211231090125_6_011
	.byte	GOTO
	 .word	feb20211231090125_6_B1
feb20211231090125_6_B2:
@ 056   ----------------------------------------
	.byte	PATT
	 .word	feb20211231090125_6_020
@ 057   ----------------------------------------
	.byte	PATT
	 .word	feb20211231090125_6_021
@ 058   ----------------------------------------
	.byte	PATT
	 .word	feb20211231090125_6_022
@ 059   ----------------------------------------
	.byte	PATT
	 .word	feb20211231090125_6_023
@ 060   ----------------------------------------
	.byte	PATT
	 .word	feb20211231090125_6_020
@ 061   ----------------------------------------
	.byte	PATT
	 .word	feb20211231090125_6_025
@ 062   ----------------------------------------
	.byte	PATT
	 .word	feb20211231090125_6_026
@ 063   ----------------------------------------
	.byte	PATT
	 .word	feb20211231090125_6_027
@ 064   ----------------------------------------
	.byte	PATT
	 .word	feb20211231090125_6_020
@ 065   ----------------------------------------
	.byte	PATT
	 .word	feb20211231090125_6_021
@ 066   ----------------------------------------
	.byte	PATT
	 .word	feb20211231090125_6_022
@ 067   ----------------------------------------
	.byte	PATT
	 .word	feb20211231090125_6_023
@ 068   ----------------------------------------
	.byte	PATT
	 .word	feb20211231090125_6_020
@ 069   ----------------------------------------
	.byte	PATT
	 .word	feb20211231090125_6_033
@ 070   ----------------------------------------
	.byte	PATT
	 .word	feb20211231090125_6_034
@ 071   ----------------------------------------
	.byte	PATT
	 .word	feb20211231090125_6_035
@ 072   ----------------------------------------
	.byte	PATT
	 .word	feb20211231090125_6_036
@ 073   ----------------------------------------
	.byte	PATT
	 .word	feb20211231090125_6_001
@ 074   ----------------------------------------
	.byte		N92   , Cn1 , v080
	.byte	W96
@ 075   ----------------------------------------
	.byte		N23   
	.byte	W24
	.byte		N05   , Gn1 
	.byte	W12
	.byte		N23   , Cn2 
	.byte	W24
	.byte		        Gn1 
	.byte	W24
	.byte		N11   , Cn1 
	.byte	W11
	.byte	FINE

@**************** Track 7 (Midi-Chn.10) ****************@

feb20211231090125_7:
	.byte	KEYSH , feb20211231090125_key+0
@ 000   ----------------------------------------
	.byte		VOICE , 0
	.byte		VOL   , 50*feb20211231090125_mvl/mxv
	.byte		PAN   , c_v-41
	.byte		VOL   , 70*feb20211231090125_mvl/mxv
	.byte		PAN   , c_v+0
	.byte		VOL   , 55*feb20211231090125_mvl/mxv
	.byte		PAN   , c_v+0
	.byte		N23   , Bn0 , v080
	.byte		N23   , Ds1 
	.byte	W24
	.byte		        Cs1 
	.byte	W12
	.byte		N11   , Bn0 
	.byte		N11   , Ds1 
	.byte	W24
	.byte		        Bn0 
	.byte		N11   , Ds1 
	.byte	W12
	.byte		N23   , Cs1 
	.byte	W12
	.byte		N11   , Bn0 
	.byte		N11   , Ds1 
	.byte	W12
@ 001   ----------------------------------------
feb20211231090125_7_001:
	.byte		N23   , Bn0 , v080
	.byte		N23   , Ds1 
	.byte	W24
	.byte		        Cs1 
	.byte	W12
	.byte		N11   , Bn0 
	.byte		N11   , Ds1 
	.byte	W24
	.byte		        Bn0 
	.byte		N11   , Ds1 
	.byte	W12
	.byte		N23   , Cs1 
	.byte	W12
	.byte		N11   , Bn0 
	.byte		N11   , Ds1 
	.byte	W12
	.byte	PEND
@ 002   ----------------------------------------
feb20211231090125_7_002:
	.byte		N17   , Bn0 , v080
	.byte		N23   , Ds1 
	.byte	W18
	.byte		N05   , Bn0 
	.byte	W06
	.byte		N23   , Cs1 
	.byte	W12
	.byte		N11   , Bn0 
	.byte		N11   , Ds1 
	.byte	W24
	.byte		        Bn0 
	.byte		N11   , Ds1 
	.byte	W12
	.byte		N23   , Cs1 
	.byte	W12
	.byte		N11   , Bn0 
	.byte		N11   , Ds1 
	.byte	W12
	.byte	PEND
@ 003   ----------------------------------------
feb20211231090125_7_003:
	.byte		N17   , Bn0 , v080
	.byte		N23   , Ds1 
	.byte	W18
	.byte		N05   , Bn0 
	.byte	W06
	.byte		N23   , Cs1 
	.byte	W12
	.byte		N11   , Bn0 
	.byte		N11   , Ds1 
	.byte	W24
	.byte		        Bn0 
	.byte		N11   , Ds1 
	.byte	W12
	.byte		N23   , Cs1 
	.byte		N02   , Gn2 
	.byte	W03
	.byte		N02   
	.byte	W03
	.byte		N02   
	.byte	W03
	.byte		N02   
	.byte	W03
	.byte		N11   , Bn0 
	.byte		N11   , Ds1 
	.byte		N02   , Gn2 
	.byte	W03
	.byte		N02   
	.byte	W03
	.byte		N02   
	.byte	W03
	.byte		N02   
	.byte	W03
	.byte	PEND
@ 004   ----------------------------------------
feb20211231090125_7_004:
	.byte		N23   , Bn0 , v080
	.byte		N23   , Fn2 
	.byte		N23   , Gn2 , v120
	.byte	W03
	.byte	W01
	.byte	W01
	.byte	W19
	.byte		        Cs1 , v080
	.byte	W12
	.byte		N11   , Bn0 
	.byte	W24
	.byte		N11   
	.byte	W12
	.byte		N23   , Cs1 
	.byte	W12
	.byte		N11   , Bn0 
	.byte	W12
	.byte	PEND
@ 005   ----------------------------------------
feb20211231090125_7_005:
	.byte		N23   , Bn0 , v080
	.byte	W24
	.byte		        Cs1 
	.byte	W12
	.byte		N11   , Bn0 
	.byte	W24
	.byte		N11   
	.byte	W12
	.byte		N23   , Cs1 
	.byte	W12
	.byte		N11   , Bn0 
	.byte	W12
	.byte	PEND
@ 006   ----------------------------------------
	.byte	PATT
	 .word	feb20211231090125_7_005
@ 007   ----------------------------------------
	.byte	PATT
	 .word	feb20211231090125_7_005
@ 008   ----------------------------------------
	.byte	PATT
	 .word	feb20211231090125_7_005
@ 009   ----------------------------------------
	.byte	PATT
	 .word	feb20211231090125_7_005
@ 010   ----------------------------------------
	.byte	PATT
	 .word	feb20211231090125_7_005
@ 011   ----------------------------------------
feb20211231090125_7_011:
	.byte		N23   , Bn0 , v080
	.byte	W24
	.byte		        Cs1 
	.byte	W12
	.byte		N11   , Bn0 
	.byte	W24
	.byte		N11   
	.byte	W12
	.byte		N05   , Cs1 
	.byte	W06
	.byte		N05   
	.byte	W06
	.byte		N11   , Bn0 
	.byte	W12
	.byte	PEND
@ 012   ----------------------------------------
	.byte	PATT
	 .word	feb20211231090125_7_004
@ 013   ----------------------------------------
	.byte	PATT
	 .word	feb20211231090125_7_005
@ 014   ----------------------------------------
	.byte	PATT
	 .word	feb20211231090125_7_005
@ 015   ----------------------------------------
	.byte	PATT
	 .word	feb20211231090125_7_005
@ 016   ----------------------------------------
	.byte	PATT
	 .word	feb20211231090125_7_005
@ 017   ----------------------------------------
	.byte	PATT
	 .word	feb20211231090125_7_005
@ 018   ----------------------------------------
	.byte	PATT
	 .word	feb20211231090125_7_005
@ 019   ----------------------------------------
feb20211231090125_7_019:
	.byte		N23   , Bn0 , v080
	.byte	W24
	.byte		        Cs1 
	.byte	W12
	.byte		N11   , Bn0 
	.byte	W24
	.byte		N11   
	.byte	W12
	.byte		N05   , Cs1 
	.byte		N02   , Gn2 
	.byte	W03
	.byte		N02   
	.byte	W03
	.byte		N05   , Cs1 
	.byte		N02   , Gn2 
	.byte	W03
	.byte		N02   
	.byte	W03
	.byte		N11   , Bn0 
	.byte		N02   , Gn2 
	.byte	W03
	.byte		N02   
	.byte	W03
	.byte		N02   
	.byte	W03
	.byte		N02   
	.byte	W03
	.byte	PEND
feb20211231090125_7_B1:
@ 020   ----------------------------------------
	.byte	PATT
	 .word	feb20211231090125_7_004
@ 021   ----------------------------------------
	.byte	PATT
	 .word	feb20211231090125_7_005
@ 022   ----------------------------------------
	.byte	PATT
	 .word	feb20211231090125_7_005
@ 023   ----------------------------------------
	.byte	PATT
	 .word	feb20211231090125_7_005
@ 024   ----------------------------------------
	.byte	PATT
	 .word	feb20211231090125_7_005
@ 025   ----------------------------------------
	.byte	PATT
	 .word	feb20211231090125_7_005
@ 026   ----------------------------------------
	.byte	PATT
	 .word	feb20211231090125_7_005
@ 027   ----------------------------------------
feb20211231090125_7_027:
	.byte		N23   , Bn0 , v080
	.byte	W24
	.byte		        Cs1 
	.byte	W12
	.byte		N11   , Bn0 
	.byte	W18
	.byte		N05   , Cs1 
	.byte	W06
	.byte		N11   , Bn0 
	.byte	W12
	.byte		        Cs1 
	.byte	W12
	.byte		        Bn0 
	.byte	W12
	.byte	PEND
@ 028   ----------------------------------------
	.byte	PATT
	 .word	feb20211231090125_7_004
@ 029   ----------------------------------------
	.byte	PATT
	 .word	feb20211231090125_7_005
@ 030   ----------------------------------------
	.byte	PATT
	 .word	feb20211231090125_7_005
@ 031   ----------------------------------------
	.byte	PATT
	 .word	feb20211231090125_7_005
@ 032   ----------------------------------------
	.byte	PATT
	 .word	feb20211231090125_7_004
@ 033   ----------------------------------------
	.byte	PATT
	 .word	feb20211231090125_7_005
@ 034   ----------------------------------------
	.byte	PATT
	 .word	feb20211231090125_7_005
@ 035   ----------------------------------------
	.byte	PATT
	 .word	feb20211231090125_7_005
@ 036   ----------------------------------------
	.byte	PATT
	 .word	feb20211231090125_7_001
@ 037   ----------------------------------------
	.byte	PATT
	 .word	feb20211231090125_7_001
@ 038   ----------------------------------------
	.byte	PATT
	 .word	feb20211231090125_7_002
@ 039   ----------------------------------------
	.byte	PATT
	 .word	feb20211231090125_7_003
@ 040   ----------------------------------------
	.byte	PATT
	 .word	feb20211231090125_7_004
@ 041   ----------------------------------------
	.byte	PATT
	 .word	feb20211231090125_7_005
@ 042   ----------------------------------------
	.byte	PATT
	 .word	feb20211231090125_7_005
@ 043   ----------------------------------------
	.byte	PATT
	 .word	feb20211231090125_7_005
@ 044   ----------------------------------------
	.byte	PATT
	 .word	feb20211231090125_7_005
@ 045   ----------------------------------------
	.byte	PATT
	 .word	feb20211231090125_7_005
@ 046   ----------------------------------------
	.byte	PATT
	 .word	feb20211231090125_7_005
@ 047   ----------------------------------------
	.byte	PATT
	 .word	feb20211231090125_7_011
@ 048   ----------------------------------------
	.byte	PATT
	 .word	feb20211231090125_7_004
@ 049   ----------------------------------------
	.byte	PATT
	 .word	feb20211231090125_7_005
@ 050   ----------------------------------------
	.byte	PATT
	 .word	feb20211231090125_7_005
@ 051   ----------------------------------------
	.byte	PATT
	 .word	feb20211231090125_7_005
@ 052   ----------------------------------------
	.byte	PATT
	 .word	feb20211231090125_7_005
@ 053   ----------------------------------------
	.byte	PATT
	 .word	feb20211231090125_7_005
@ 054   ----------------------------------------
	.byte	PATT
	 .word	feb20211231090125_7_005
@ 055   ----------------------------------------
	.byte	PATT
	 .word	feb20211231090125_7_019
	.byte	GOTO
	 .word	feb20211231090125_7_B1
feb20211231090125_7_B2:
@ 056   ----------------------------------------
	.byte	PATT
	 .word	feb20211231090125_7_004
@ 057   ----------------------------------------
	.byte	PATT
	 .word	feb20211231090125_7_005
@ 058   ----------------------------------------
	.byte	PATT
	 .word	feb20211231090125_7_005
@ 059   ----------------------------------------
	.byte	PATT
	 .word	feb20211231090125_7_005
@ 060   ----------------------------------------
	.byte	PATT
	 .word	feb20211231090125_7_005
@ 061   ----------------------------------------
	.byte	PATT
	 .word	feb20211231090125_7_005
@ 062   ----------------------------------------
	.byte	PATT
	 .word	feb20211231090125_7_005
@ 063   ----------------------------------------
	.byte	PATT
	 .word	feb20211231090125_7_027
@ 064   ----------------------------------------
	.byte	PATT
	 .word	feb20211231090125_7_004
@ 065   ----------------------------------------
	.byte	PATT
	 .word	feb20211231090125_7_005
@ 066   ----------------------------------------
	.byte	PATT
	 .word	feb20211231090125_7_005
@ 067   ----------------------------------------
	.byte	PATT
	 .word	feb20211231090125_7_005
@ 068   ----------------------------------------
	.byte	PATT
	 .word	feb20211231090125_7_004
@ 069   ----------------------------------------
	.byte	PATT
	 .word	feb20211231090125_7_005
@ 070   ----------------------------------------
	.byte	PATT
	 .word	feb20211231090125_7_005
@ 071   ----------------------------------------
	.byte	PATT
	 .word	feb20211231090125_7_005
@ 072   ----------------------------------------
	.byte	PATT
	 .word	feb20211231090125_7_001
@ 073   ----------------------------------------
	.byte	PATT
	 .word	feb20211231090125_7_001
@ 074   ----------------------------------------
	.byte	PATT
	 .word	feb20211231090125_7_002
@ 075   ----------------------------------------
	.byte		N17   , Bn0 , v080
	.byte		N23   , Ds1 
	.byte	W18
	.byte		N05   , Bn0 
	.byte	W06
	.byte		N23   , Cs1 
	.byte	W12
	.byte		N11   , Bn0 
	.byte		N11   , Ds1 
	.byte	W24
	.byte		        Bn0 
	.byte		N11   , Ds1 
	.byte	W12
	.byte		N23   , Cs1 
	.byte		N02   , Gn2 
	.byte	W03
	.byte		N02   
	.byte	W03
	.byte		N02   
	.byte	W03
	.byte		N02   
	.byte	W03
	.byte		N11   , Bn0 
	.byte		N11   , Ds1 
	.byte		N02   , Gn2 
	.byte	W03
	.byte		N02   
	.byte	W03
	.byte		N02   
	.byte	W03
	.byte		N02   
	.byte	W02
	.byte	FINE

@******************************************************@
	.align	2

feb20211231090125:
	.byte	7	@ NumTrks
	.byte	0	@ NumBlks
	.byte	feb20211231090125_pri	@ Priority
	.byte	feb20211231090125_rev	@ Reverb.

	.word	feb20211231090125_grp

	.word	feb20211231090125_1
	.word	feb20211231090125_2
	.word	feb20211231090125_3
	.word	feb20211231090125_4
	.word	feb20211231090125_5
	.word	feb20211231090125_6
	.word	feb20211231090125_7

	.end
