	.include "MPlayDef.s"

	.equ	song04_grp, voicegroup000
	.equ	song04_pri, 0
	.equ	song04_rev, 0
	.equ	song04_mvl, 127
	.equ	song04_key, 0
	.equ	song04_tbs, 1
	.equ	song04_exg, 0
	.equ	song04_cmp, 1

	.section .rodata
	.global	song04
	.align	2


@**************** Track 1 (Midi-Chn.0) ****************@

song04_001:
@  #01 @000   ----------------------------------------
 .byte   KEYSH , song04_key+0
 .byte   TEMPO , 156*song04_tbs/2
 .byte   VOICE , 49
 .byte   VOL , 40*song04_mvl/mxv
 .byte   PAN , c_v+0
 .byte   N11 ,Fn1 ,v080
 .byte   W12
 .byte   N05
 .byte   W96
@  #01 @001   ----------------------------------------
 .byte   W36
Label_0142C9D5:
 .byte   N11 ,Fn1 ,v080
 .byte   W12
 .byte   N05
 .byte   W96
@  #01 @002   ----------------------------------------
 .byte   W36
 .byte   PEND 
@  #01 @003   ----------------------------------------
 .byte   PATT
  .word Label_0142C9D5
@  #01 @004   ----------------------------------------
Label_0142C9E2:
 .byte   N68 ,Cs1 ,v080
 .byte   W72
 .byte   Ds1
 .byte   W72
 .byte   PEND 
@  #01 @005   ----------------------------------------
 .byte   PATT
  .word Label_0142C9D5
@  #01 @006   ----------------------------------------
 .byte   PATT
  .word Label_0142C9D5
@  #01 @007   ----------------------------------------
 .byte   PATT
  .word Label_0142C9D5
@  #01 @008   ----------------------------------------
 .byte   PATT
  .word Label_0142C9E2
@  #01 @009   ----------------------------------------
Label_0142C9FD:
 .byte   W96
@  #01 @010   ----------------------------------------
 .byte   W12
 .byte   N23 ,Fn1 ,v052
 .byte   W24
 .byte   N11 ,Gn1
 .byte   W12
 .byte   PEND 
Label_0142CA07:
 .byte   N68 ,Gs1 ,v052
 .byte   W96
@  #01 @011   ----------------------------------------
 .byte   W12
 .byte   N32
 .byte   W36
 .byte   PEND 
Label_0142CA0F:
 .byte   N68 ,Ds2 ,v052
 .byte   W72
@  #01 @012   ----------------------------------------
 .byte   N32 ,Dn2
 .byte   W36
 .byte   As1
 .byte   W36
 .byte   PEND 
Label_0142CA19:
 .byte   N92 ,Cn2 ,v052
 .byte   W96
@  #01 @013   ----------------------------------------
 .byte   W48
 .byte   PEND 
Label_0142CA1F:
 .byte   N68 ,Cn3 ,v064
 .byte   W72
@  #01 @014   ----------------------------------------
 .byte   As2
 .byte   W72
 .byte   PEND 
Label_0142CA26:
 .byte   N68 ,Gs2 ,v064
 .byte   W72
@  #01 @015   ----------------------------------------
 .byte   Cs3
 .byte   W72
 .byte   PEND 
Label_0142CA2D:
 .byte   N68 ,Ds3 ,v064
 .byte   W72
@  #01 @016   ----------------------------------------
 .byte   N32 ,As2
 .byte   W36
 .byte   As1
 .byte   W36
 .byte   PEND 
Label_0142CA37:
 .byte   N68 ,Gn2 ,v064
 .byte   W96
@  #01 @017   ----------------------------------------
 .byte   W48
 .byte   PEND 
Label_0142CA3D:
 .byte   N11 ,Fn1 ,v064
 .byte   W12
 .byte   N05
 .byte   W96
@  #01 @018   ----------------------------------------
 .byte   W36
 .byte   PEND 
@  #01 @019   ----------------------------------------
 .byte   PATT
  .word Label_0142CA3D
@  #01 @020   ----------------------------------------
 .byte   PATT
  .word Label_0142CA3D
@  #01 @021   ----------------------------------------
Label_0142CA4F:
 .byte   N68 ,Cs1 ,v064
 .byte   W72
 .byte   Ds1
 .byte   W72
 .byte   PEND 
@  #01 @022   ----------------------------------------
Label_0142CA56:
 .byte   N11 ,Fn1 ,v064
 .byte   W12
 .byte   N56
 .byte   W60
 .byte   N68 ,Ds1
 .byte   W72
 .byte   PEND 
@  #01 @023   ----------------------------------------
 .byte   PATT
  .word Label_0142CA56
@  #01 @024   ----------------------------------------
 .byte   PATT
  .word Label_0142CA56
@  #01 @025   ----------------------------------------
 .byte   PATT
  .word Label_0142CA4F
@  #01 @026   ----------------------------------------
 .byte   W96
@  #01 @027   ----------------------------------------
 .byte   W48
 .byte   W96
@  #01 @028   ----------------------------------------
 .byte   W48
 .byte   W96
@  #01 @029   ----------------------------------------
 .byte   W48
 .byte   W96
@  #01 @030   ----------------------------------------
 .byte   W48
Label_0142CA77:
 .byte   N68 ,Cn3 ,v064
 .byte   W72
@  #01 @031   ----------------------------------------
 .byte   As2
 .byte   W72
 .byte   PEND 
@  #01 @032   ----------------------------------------
 .byte   PATT
  .word Label_0142CA26
@  #01 @033   ----------------------------------------
 .byte   PATT
  .word Label_0142CA2D
@  #01 @034   ----------------------------------------
 .byte   PATT
  .word Label_0142CA37
@  #01 @035   ----------------------------------------
Label_0142CA8D:
 .byte   TEMPO , 164*song04_tbs/2
 .byte   W96
@  #01 @036   ----------------------------------------
 .byte   W48
 .byte   PEND 
 .byte   W96
@  #01 @037   ----------------------------------------
 .byte   W48
 .byte   W96
@  #01 @038   ----------------------------------------
 .byte   W48
 .byte   W96
@  #01 @039   ----------------------------------------
 .byte   W48
 .byte   W96
@  #01 @040   ----------------------------------------
 .byte   W48
 .byte   W96
@  #01 @041   ----------------------------------------
 .byte   W48
 .byte   W96
@  #01 @042   ----------------------------------------
 .byte   W48
 .byte   W96
@  #01 @043   ----------------------------------------
 .byte   W48
 .byte   W96
@  #01 @044   ----------------------------------------
 .byte   W48
Label_0142CAA2:
 .byte   N32 ,Cs2 ,v120
 .byte   W01
 .byte   W01
 .byte   W01
 .byte   W01
 .byte   W01
 .byte   W30
 .byte   W01
 .byte   En2
 .byte   W01
 .byte   W01
 .byte   W01
 .byte   W01
 .byte   W01
 .byte   W30
@  #01 @045   ----------------------------------------
 .byte   W01
 .byte   Cs2
 .byte   W01
 .byte   W01
 .byte   W01
 .byte   W01
 .byte   W01
 .byte   W30
 .byte   W01
 .byte   En2
 .byte   N22 ,Cs4 ,v112
 .byte   W01
 .byte   W01
 .byte   W01
 .byte   W01
 .byte   W01
 .byte   W19
 .byte   N11 ,Ds4
 .byte   W12
 .byte   PEND 
Label_0142CACA:
 .byte   N32 ,An1 ,v120
 .byte   W01
 .byte   W01
 .byte   W01
 .byte   W01
 .byte   W01
 .byte   W30
@  #01 @046   ----------------------------------------
 .byte   W01
 .byte   En2
 .byte   W01
 .byte   W01
 .byte   W01
 .byte   W01
 .byte   W01
 .byte   W30
 .byte   W01
 .byte   An1
 .byte   W01
 .byte   W01
 .byte   W01
 .byte   W01
 .byte   W01
 .byte   W30
 .byte   W01
 .byte   En2
 .byte   N32 ,En4 ,v112
 .byte   W01
 .byte   W01
 .byte   W01
 .byte   W01
 .byte   W01
 .byte   W30
@  #01 @047   ----------------------------------------
 .byte   W01
 .byte   PEND 
Label_0142CAF0:
 .byte   N32 ,Bn1 ,v120
 .byte   W01
 .byte   W01
 .byte   W01
 .byte   W01
 .byte   W01
 .byte   W30
 .byte   W01
 .byte   Fs2
 .byte   W01
 .byte   W01
 .byte   W01
 .byte   W01
 .byte   W01
 .byte   W30
 .byte   W01
 .byte   Bn1
 .byte   W01
 .byte   W01
 .byte   W01
 .byte   W01
 .byte   W01
 .byte   W30
@  #01 @048   ----------------------------------------
 .byte   W01
 .byte   Fs2
 .byte   N32 ,An4 ,v112
 .byte   W01
 .byte   W01
 .byte   W01
 .byte   W01
 .byte   W01
 .byte   W30
 .byte   W01
 .byte   PEND 
Label_0142CB16:
 .byte   N32 ,En1 ,v120
 .byte   N68 ,Gs4 ,v112
 .byte   W01
 .byte   W01
 .byte   W01
 .byte   W01
 .byte   W01
 .byte   W30
 .byte   W01
 .byte   N32 ,En1 ,v120
 .byte   N32 ,Gs2
 .byte   W01
 .byte   W01
 .byte   W01
 .byte   W01
 .byte   W01
 .byte   W30
@  #01 @049   ----------------------------------------
 .byte   W01
 .byte   Ds1
 .byte   N68 ,Fs4 ,v112
 .byte   W01
 .byte   W01
 .byte   W01
 .byte   W01
 .byte   W01
 .byte   W30
 .byte   W01
 .byte   N32 ,Ds1 ,v120
 .byte   N32 ,Fs2
 .byte   W01
 .byte   W01
 .byte   W01
 .byte   W01
 .byte   W01
 .byte   W30
 .byte   W01
 .byte   PEND 
@  #01 @050   ----------------------------------------
 .byte   PATT
  .word Label_0142CAA2
@  #01 @051   ----------------------------------------
Label_0142CB4C:
 .byte   N32 ,An1 ,v120
 .byte   W01
 .byte   W01
 .byte   W01
 .byte   W01
 .byte   W01
 .byte   W30
 .byte   W01
 .byte   En2
 .byte   W01
 .byte   W01
 .byte   W01
 .byte   W01
 .byte   W01
 .byte   W30
 .byte   W01
 .byte   An1
 .byte   W01
 .byte   W01
 .byte   W01
 .byte   W01
 .byte   W01
 .byte   W30
@  #01 @052   ----------------------------------------
 .byte   W01
 .byte   En2
 .byte   N11 ,En4 ,v112
 .byte   W01
 .byte   W01
 .byte   W01
 .byte   W01
 .byte   W01
 .byte   W07
 .byte   Fs4
 .byte   W12
 .byte   En4
 .byte   W12
 .byte   PEND 
Label_0142CB75:
 .byte   N32 ,Bn1 ,v120
 .byte   W01
 .byte   W01
 .byte   W01
 .byte   W01
 .byte   W01
 .byte   W30
 .byte   W01
 .byte   Fs2
 .byte   W01
 .byte   W01
 .byte   W01
 .byte   W01
 .byte   W01
 .byte   W30
@  #01 @053   ----------------------------------------
 .byte   W01
 .byte   Bn1
 .byte   W01
 .byte   W01
 .byte   W01
 .byte   W01
 .byte   W01
 .byte   W30
 .byte   W01
 .byte   Fs2
 .byte   N32 ,Bn3 ,v112
 .byte   W01
 .byte   W01
 .byte   W01
 .byte   W01
 .byte   W01
 .byte   W30
 .byte   W01
 .byte   PEND 
Label_0142CB9B:
 .byte   N68 ,Gs3 ,v112
 .byte   W72
@  #01 @054   ----------------------------------------
 .byte   Fs3
 .byte   W72
 .byte   PEND 
 .byte   W96
@  #01 @055   ----------------------------------------
 .byte   W48
 .byte   W96
@  #01 @056   ----------------------------------------
 .byte   W48
Label_0142CBA6:
 .byte   W96
@  #01 @057   ----------------------------------------
 .byte   W48
 .byte   PEND 
 .byte   W96
@  #01 @058   ----------------------------------------
 .byte   W48
 .byte   W96
@  #01 @059   ----------------------------------------
 .byte   W48
 .byte   W96
@  #01 @060   ----------------------------------------
 .byte   W48
 .byte   W96
@  #01 @061   ----------------------------------------
 .byte   W48
 .byte   W96
@  #01 @062   ----------------------------------------
 .byte   W48
 .byte   TEMPO , 156*song04_tbs/2
 .byte   N11 ,Fn1 ,v080
 .byte   W12
 .byte   N05
 .byte   W96
@  #01 @063   ----------------------------------------
 .byte   W36
 .byte   GOTO
  .word Label_0142C9D5
@  #01 @064   ----------------------------------------
 .byte   PATT
  .word Label_0142C9D5
@  #01 @065   ----------------------------------------
 .byte   PATT
  .word Label_0142C9D5
@  #01 @066   ----------------------------------------
 .byte   PATT
  .word Label_0142C9E2
@  #01 @067   ----------------------------------------
 .byte   PATT
  .word Label_0142C9D5
@  #01 @068   ----------------------------------------
 .byte   PATT
  .word Label_0142C9D5
@  #01 @069   ----------------------------------------
 .byte   PATT
  .word Label_0142C9D5
@  #01 @070   ----------------------------------------
 .byte   PATT
  .word Label_0142C9E2
@  #01 @071   ----------------------------------------
 .byte   PATT
  .word Label_0142C9FD
@  #01 @072   ----------------------------------------
 .byte   PATT
  .word Label_0142CA07
@  #01 @073   ----------------------------------------
 .byte   PATT
  .word Label_0142CA0F
@  #01 @074   ----------------------------------------
 .byte   PATT
  .word Label_0142CA19
@  #01 @075   ----------------------------------------
 .byte   PATT
  .word Label_0142CA1F
@  #01 @076   ----------------------------------------
 .byte   PATT
  .word Label_0142CA26
@  #01 @077   ----------------------------------------
 .byte   PATT
  .word Label_0142CA2D
@  #01 @078   ----------------------------------------
 .byte   PATT
  .word Label_0142CA37
@  #01 @079   ----------------------------------------
 .byte   PATT
  .word Label_0142CA3D
@  #01 @080   ----------------------------------------
 .byte   PATT
  .word Label_0142CA3D
@  #01 @081   ----------------------------------------
 .byte   PATT
  .word Label_0142CA3D
@  #01 @082   ----------------------------------------
 .byte   PATT
  .word Label_0142CA4F
@  #01 @083   ----------------------------------------
 .byte   PATT
  .word Label_0142CA56
@  #01 @084   ----------------------------------------
 .byte   PATT
  .word Label_0142CA56
@  #01 @085   ----------------------------------------
 .byte   PATT
  .word Label_0142CA56
@  #01 @086   ----------------------------------------
 .byte   PATT
  .word Label_0142CA4F
@  #01 @087   ----------------------------------------
 .byte   W96
@  #01 @088   ----------------------------------------
 .byte   W48
 .byte   W96
@  #01 @089   ----------------------------------------
 .byte   W48
 .byte   W96
@  #01 @090   ----------------------------------------
 .byte   W48
 .byte   W96
@  #01 @091   ----------------------------------------
 .byte   W48
@  #01 @092   ----------------------------------------
 .byte   PATT
  .word Label_0142CA77
@  #01 @093   ----------------------------------------
 .byte   PATT
  .word Label_0142CA26
@  #01 @094   ----------------------------------------
 .byte   PATT
  .word Label_0142CA2D
@  #01 @095   ----------------------------------------
 .byte   PATT
  .word Label_0142CA37
@  #01 @096   ----------------------------------------
 .byte   PATT
  .word Label_0142CA8D
@  #01 @097   ----------------------------------------
 .byte   W96
@  #01 @098   ----------------------------------------
 .byte   W48
 .byte   W96
@  #01 @099   ----------------------------------------
 .byte   W48
 .byte   W96
@  #01 @100   ----------------------------------------
 .byte   W48
 .byte   W96
@  #01 @101   ----------------------------------------
 .byte   W48
 .byte   W96
@  #01 @102   ----------------------------------------
 .byte   W48
 .byte   W96
@  #01 @103   ----------------------------------------
 .byte   W48
 .byte   W96
@  #01 @104   ----------------------------------------
 .byte   W48
 .byte   W96
@  #01 @105   ----------------------------------------
 .byte   W48
@  #01 @106   ----------------------------------------
 .byte   PATT
  .word Label_0142CAA2
@  #01 @107   ----------------------------------------
 .byte   PATT
  .word Label_0142CACA
@  #01 @108   ----------------------------------------
 .byte   PATT
  .word Label_0142CAF0
@  #01 @109   ----------------------------------------
 .byte   PATT
  .word Label_0142CB16
@  #01 @110   ----------------------------------------
 .byte   PATT
  .word Label_0142CAA2
@  #01 @111   ----------------------------------------
 .byte   PATT
  .word Label_0142CB4C
@  #01 @112   ----------------------------------------
 .byte   PATT
  .word Label_0142CB75
@  #01 @113   ----------------------------------------
 .byte   PATT
  .word Label_0142CB9B
@  #01 @114   ----------------------------------------
 .byte   W96
@  #01 @115   ----------------------------------------
 .byte   W48
 .byte   W96
@  #01 @116   ----------------------------------------
 .byte   W48
@  #01 @117   ----------------------------------------
 .byte   PATT
  .word Label_0142CBA6
@  #01 @118   ----------------------------------------
 .byte   W96
@  #01 @119   ----------------------------------------
 .byte   W48
 .byte   W96
@  #01 @120   ----------------------------------------
 .byte   W48
 .byte   W96
@  #01 @121   ----------------------------------------
 .byte   W48
 .byte   W96
@  #01 @122   ----------------------------------------
 .byte   W48
 .byte   W96
@  #01 @123   ----------------------------------------
 .byte   W44
 .byte   W03
 .byte   FINE

@**************** Track 2 (Midi-Chn.1) ****************@

song04_002:
@  #02 @000   ----------------------------------------
 .byte   KEYSH , song04_key+0
 .byte   VOICE , 45
 .byte   VOL , 40*song04_mvl/mxv
 .byte   PAN , c_v+0
 .byte   W96
@  #02 @001   ----------------------------------------
 .byte   W48
Label_0142CCBE:
 .byte   W96
@  #02 @002   ----------------------------------------
 .byte   W48
 .byte   W96
@  #02 @003   ----------------------------------------
 .byte   W48
 .byte   W96
@  #02 @004   ----------------------------------------
 .byte   W48
 .byte   W96
@  #02 @005   ----------------------------------------
 .byte   W48
 .byte   W96
@  #02 @006   ----------------------------------------
 .byte   W48
 .byte   W96
@  #02 @007   ----------------------------------------
 .byte   W48
 .byte   W96
@  #02 @008   ----------------------------------------
 .byte   W48
 .byte   W96
@  #02 @009   ----------------------------------------
 .byte   W48
 .byte   W96
@  #02 @010   ----------------------------------------
 .byte   W48
 .byte   W96
@  #02 @011   ----------------------------------------
 .byte   W48
 .byte   W96
@  #02 @012   ----------------------------------------
 .byte   W48
 .byte   W96
@  #02 @013   ----------------------------------------
 .byte   W48
 .byte   W96
@  #02 @014   ----------------------------------------
 .byte   W48
 .byte   W96
@  #02 @015   ----------------------------------------
 .byte   W48
 .byte   W96
@  #02 @016   ----------------------------------------
 .byte   W48
Label_0142CCDC:
 .byte   N07 ,Fn3 ,v064
 .byte   W96
@  #02 @017   ----------------------------------------
 .byte   W12
 .byte   As2
 .byte   W12
 .byte   Cn3
 .byte   W12
 .byte   Cs3
 .byte   W12
 .byte   PEND 
Label_0142CCE8:
 .byte   N11 ,Gs2 ,v064
 .byte   W36
 .byte   N07 ,Cn3
 .byte   W12
@  #02 @018   ----------------------------------------
 .byte   As2
 .byte   W12
 .byte   Cn3
 .byte   W12
 .byte   Cs3
 .byte   W12
 .byte   Cn3
 .byte   W12
 .byte   Fn3
 .byte   W12
 .byte   Ds3
 .byte   W12
 .byte   Cn3
 .byte   W12
 .byte   Gn2
 .byte   W12
 .byte   PEND 
@  #02 @019   ----------------------------------------
Label_0142CD00:
 .byte   N07 ,Gs2 ,v064
 .byte   W36
 .byte   Cn3
 .byte   W12
 .byte   As2
 .byte   W12
 .byte   Cn3
 .byte   W12
 .byte   Cs3
 .byte   W12
 .byte   Cn3
 .byte   W12
@  #02 @020   ----------------------------------------
 .byte   Cs3
 .byte   W12
 .byte   As2
 .byte   W12
 .byte   Cn3
 .byte   W12
 .byte   Cs3
 .byte   W12
 .byte   PEND 
Label_0142CD17:
 .byte   N07 ,Gs2 ,v064
 .byte   W36
 .byte   Fn3
 .byte   W12
@  #02 @021   ----------------------------------------
 .byte   Ds3
 .byte   W12
 .byte   Fn3
 .byte   W12
 .byte   Gs3
 .byte   W12
 .byte   Gn3
 .byte   W12
 .byte   Cs4
 .byte   W12
 .byte   Cn4
 .byte   W12
 .byte   Gn3
 .byte   W12
 .byte   Ds3
 .byte   W12
 .byte   PEND 
@  #02 @022   ----------------------------------------
Label_0142CD2E:
 .byte   N07 ,Gs2 ,v064
 .byte   W36
 .byte   Cn3
 .byte   W12
 .byte   As2
 .byte   W12
 .byte   Cn3
 .byte   W12
 .byte   Cs3
 .byte   W12
 .byte   Cn3
 .byte   W12
@  #02 @023   ----------------------------------------
 .byte   Cs3
 .byte   W12
 .byte   N07
 .byte   W12
 .byte   Cn3
 .byte   W12
 .byte   Cs3
 .byte   W12
 .byte   PEND 
Label_0142CD45:
 .byte   N07 ,Gs2 ,v064
 .byte   W36
 .byte   Cn3
 .byte   W12
@  #02 @024   ----------------------------------------
 .byte   As2
 .byte   W12
 .byte   Cn3
 .byte   W12
 .byte   Cs3
 .byte   W12
 .byte   Cn3
 .byte   W12
 .byte   Fn3
 .byte   W12
 .byte   Ds3
 .byte   W12
 .byte   Cn3
 .byte   W12
 .byte   Gn2
 .byte   W12
 .byte   PEND 
@  #02 @025   ----------------------------------------
 .byte   PATT
  .word Label_0142CD00
@  #02 @026   ----------------------------------------
Label_0142CD61:
 .byte   N07 ,Fn2 ,v064
 .byte   W36
 .byte   N07
 .byte   W12
 .byte   Ds2
 .byte   W12
 .byte   Fn2
 .byte   W12
 .byte   Gs2
 .byte   W12
 .byte   Gn2
 .byte   W12
@  #02 @027   ----------------------------------------
 .byte   Cs3
 .byte   W12
 .byte   Cn3
 .byte   W12
 .byte   Gn2
 .byte   W12
 .byte   Ds2
 .byte   W12
 .byte   PEND 
Label_0142CD78:
 .byte   W12
 .byte   N07 ,Gs3 ,v052
 .byte   W12
 .byte   N07
 .byte   W12
 .byte   N07
 .byte   W12
@  #02 @028   ----------------------------------------
 .byte   N07
 .byte   W12
 .byte   N07
 .byte   W24
 .byte   Gn3
 .byte   W12
 .byte   N07
 .byte   W12
 .byte   N07
 .byte   W12
 .byte   N07
 .byte   W12
 .byte   N07
 .byte   W12
 .byte   PEND 
@  #02 @029   ----------------------------------------
Label_0142CD90:
 .byte   W12
 .byte   N07 ,Gs3 ,v052
 .byte   W12
 .byte   N07
 .byte   W12
 .byte   N07
 .byte   W12
 .byte   N07
 .byte   W12
 .byte   N07
 .byte   W24
 .byte   Cs4
 .byte   W12
@  #02 @030   ----------------------------------------
 .byte   N07
 .byte   W12
 .byte   N07
 .byte   W12
 .byte   N07
 .byte   W12
 .byte   N07
 .byte   W12
 .byte   PEND 
Label_0142CDA8:
 .byte   W12
 .byte   N07 ,Ds4 ,v052
 .byte   W12
 .byte   N07
 .byte   W12
 .byte   N07
 .byte   W12
@  #02 @031   ----------------------------------------
 .byte   N07
 .byte   W12
 .byte   N07
 .byte   W12
 .byte   Dn4
 .byte   W12
 .byte   N07
 .byte   W12
 .byte   N07
 .byte   W12
 .byte   As3
 .byte   W12
 .byte   N07
 .byte   W12
 .byte   N07
 .byte   W12
 .byte   PEND 
@  #02 @032   ----------------------------------------
Label_0142CDC2:
 .byte   N07 ,Gn3 ,v052
 .byte   W12
 .byte   N07
 .byte   W12
 .byte   N07
 .byte   W12
 .byte   N07
 .byte   W12
 .byte   N07
 .byte   W12
 .byte   N07
 .byte   W84
 .byte   PEND 
@  #02 @033   ----------------------------------------
Label_0142CDD1:
 .byte   W12
 .byte   N07 ,Gs2 ,v052
 .byte   W12
 .byte   N07
 .byte   W12
 .byte   N07
 .byte   W12
 .byte   N07
 .byte   W12
 .byte   N07
 .byte   W24
 .byte   Fn3
 .byte   W12
@  #02 @034   ----------------------------------------
 .byte   N07
 .byte   W12
 .byte   N07
 .byte   W12
 .byte   N07
 .byte   W12
 .byte   N07
 .byte   W12
 .byte   PEND 
@  #02 @035   ----------------------------------------
 .byte   PATT
  .word Label_0142CD90
@  #02 @036   ----------------------------------------
 .byte   PATT
  .word Label_0142CDA8
@  #02 @037   ----------------------------------------
 .byte   W96
@  #02 @038   ----------------------------------------
 .byte   W48
 .byte   W96
@  #02 @039   ----------------------------------------
 .byte   W48
 .byte   W96
@  #02 @040   ----------------------------------------
 .byte   W48
 .byte   W96
@  #02 @041   ----------------------------------------
 .byte   W48
 .byte   W96
@  #02 @042   ----------------------------------------
 .byte   W48
 .byte   W96
@  #02 @043   ----------------------------------------
 .byte   W48
 .byte   W96
@  #02 @044   ----------------------------------------
 .byte   W48
 .byte   W96
@  #02 @045   ----------------------------------------
 .byte   W48
 .byte   W96
@  #02 @046   ----------------------------------------
 .byte   W48
 .byte   W96
@  #02 @047   ----------------------------------------
 .byte   W48
 .byte   W96
@  #02 @048   ----------------------------------------
 .byte   W48
 .byte   W96
@  #02 @049   ----------------------------------------
 .byte   W48
 .byte   W96
@  #02 @050   ----------------------------------------
 .byte   W48
 .byte   W96
@  #02 @051   ----------------------------------------
 .byte   W48
 .byte   W96
@  #02 @052   ----------------------------------------
 .byte   W48
 .byte   W96
@  #02 @053   ----------------------------------------
 .byte   W48
 .byte   W96
@  #02 @054   ----------------------------------------
 .byte   W48
 .byte   W96
@  #02 @055   ----------------------------------------
 .byte   W48
 .byte   W96
@  #02 @056   ----------------------------------------
 .byte   W48
 .byte   W96
@  #02 @057   ----------------------------------------
 .byte   W48
 .byte   W96
@  #02 @058   ----------------------------------------
 .byte   W48
 .byte   W96
@  #02 @059   ----------------------------------------
 .byte   W48
 .byte   W96
@  #02 @060   ----------------------------------------
 .byte   W48
 .byte   W96
@  #02 @061   ----------------------------------------
 .byte   W48
 .byte   W96
@  #02 @062   ----------------------------------------
 .byte   W48
 .byte   W96
@  #02 @063   ----------------------------------------
 .byte   W48
 .byte   W96
@  #02 @064   ----------------------------------------
 .byte   W48
 .byte   GOTO
  .word Label_0142CCBE
@  #02 @065   ----------------------------------------
 .byte   W96
@  #02 @066   ----------------------------------------
 .byte   W48
 .byte   W96
@  #02 @067   ----------------------------------------
 .byte   W48
 .byte   W96
@  #02 @068   ----------------------------------------
 .byte   W48
 .byte   W96
@  #02 @069   ----------------------------------------
 .byte   W48
 .byte   W96
@  #02 @070   ----------------------------------------
 .byte   W48
 .byte   W96
@  #02 @071   ----------------------------------------
 .byte   W48
 .byte   W96
@  #02 @072   ----------------------------------------
 .byte   W48
 .byte   W96
@  #02 @073   ----------------------------------------
 .byte   W48
 .byte   W96
@  #02 @074   ----------------------------------------
 .byte   W48
 .byte   W96
@  #02 @075   ----------------------------------------
 .byte   W48
 .byte   W96
@  #02 @076   ----------------------------------------
 .byte   W48
 .byte   W96
@  #02 @077   ----------------------------------------
 .byte   W48
 .byte   W96
@  #02 @078   ----------------------------------------
 .byte   W48
 .byte   W96
@  #02 @079   ----------------------------------------
 .byte   W48
 .byte   W96
@  #02 @080   ----------------------------------------
 .byte   W48
@  #02 @081   ----------------------------------------
 .byte   PATT
  .word Label_0142CCDC
@  #02 @082   ----------------------------------------
 .byte   PATT
  .word Label_0142CCE8
@  #02 @083   ----------------------------------------
 .byte   PATT
  .word Label_0142CD00
@  #02 @084   ----------------------------------------
 .byte   PATT
  .word Label_0142CD17
@  #02 @085   ----------------------------------------
 .byte   PATT
  .word Label_0142CD2E
@  #02 @086   ----------------------------------------
 .byte   PATT
  .word Label_0142CD45
@  #02 @087   ----------------------------------------
 .byte   PATT
  .word Label_0142CD00
@  #02 @088   ----------------------------------------
 .byte   PATT
  .word Label_0142CD61
@  #02 @089   ----------------------------------------
 .byte   PATT
  .word Label_0142CD78
@  #02 @090   ----------------------------------------
 .byte   PATT
  .word Label_0142CD90
@  #02 @091   ----------------------------------------
 .byte   PATT
  .word Label_0142CDA8
@  #02 @092   ----------------------------------------
 .byte   PATT
  .word Label_0142CDC2
@  #02 @093   ----------------------------------------
 .byte   PATT
  .word Label_0142CDD1
@  #02 @094   ----------------------------------------
 .byte   PATT
  .word Label_0142CD90
@  #02 @095   ----------------------------------------
 .byte   PATT
  .word Label_0142CDA8
@  #02 @096   ----------------------------------------
 .byte   W96
@  #02 @097   ----------------------------------------
 .byte   W48
 .byte   W96
@  #02 @098   ----------------------------------------
 .byte   W48
 .byte   W96
@  #02 @099   ----------------------------------------
 .byte   W48
 .byte   W96
@  #02 @100   ----------------------------------------
 .byte   W48
 .byte   W96
@  #02 @101   ----------------------------------------
 .byte   W48
 .byte   W96
@  #02 @102   ----------------------------------------
 .byte   W48
 .byte   W96
@  #02 @103   ----------------------------------------
 .byte   W48
 .byte   W96
@  #02 @104   ----------------------------------------
 .byte   W48
 .byte   W96
@  #02 @105   ----------------------------------------
 .byte   W48
 .byte   W96
@  #02 @106   ----------------------------------------
 .byte   W48
 .byte   W96
@  #02 @107   ----------------------------------------
 .byte   W48
 .byte   W96
@  #02 @108   ----------------------------------------
 .byte   W48
 .byte   W96
@  #02 @109   ----------------------------------------
 .byte   W48
 .byte   W96
@  #02 @110   ----------------------------------------
 .byte   W48
 .byte   W96
@  #02 @111   ----------------------------------------
 .byte   W48
 .byte   W96
@  #02 @112   ----------------------------------------
 .byte   W48
 .byte   W96
@  #02 @113   ----------------------------------------
 .byte   W48
 .byte   W96
@  #02 @114   ----------------------------------------
 .byte   W48
 .byte   W96
@  #02 @115   ----------------------------------------
 .byte   W48
 .byte   W96
@  #02 @116   ----------------------------------------
 .byte   W48
 .byte   W96
@  #02 @117   ----------------------------------------
 .byte   W48
 .byte   W96
@  #02 @118   ----------------------------------------
 .byte   W48
 .byte   W96
@  #02 @119   ----------------------------------------
 .byte   W48
 .byte   W96
@  #02 @120   ----------------------------------------
 .byte   W48
 .byte   W96
@  #02 @121   ----------------------------------------
 .byte   W48
 .byte   W96
@  #02 @122   ----------------------------------------
 .byte   W44
 .byte   W03
 .byte   FINE

@**************** Track 3 (Midi-Chn.2) ****************@

song04_003:
@  #03 @000   ----------------------------------------
 .byte   KEYSH , song04_key+0
 .byte   VOICE , 45
 .byte   VOL , 40*song04_mvl/mxv
 .byte   PAN , c_v+0
 .byte   W96
@  #03 @001   ----------------------------------------
 .byte   W48
Label_0158DAC6:
 .byte   W96
@  #03 @002   ----------------------------------------
 .byte   W48
 .byte   W96
@  #03 @003   ----------------------------------------
 .byte   W48
 .byte   W96
@  #03 @004   ----------------------------------------
 .byte   W48
 .byte   W96
@  #03 @005   ----------------------------------------
 .byte   W48
 .byte   W96
@  #03 @006   ----------------------------------------
 .byte   W48
 .byte   W96
@  #03 @007   ----------------------------------------
 .byte   W48
 .byte   W96
@  #03 @008   ----------------------------------------
 .byte   W48
 .byte   W96
@  #03 @009   ----------------------------------------
 .byte   W48
 .byte   W96
@  #03 @010   ----------------------------------------
 .byte   W48
 .byte   W96
@  #03 @011   ----------------------------------------
 .byte   W48
 .byte   N11 ,Gn3 ,v096
 .byte   W12
 .byte   N03
 .byte   W04
 .byte   N03
 .byte   W04
 .byte   N03
 .byte   W16
 .byte   N07 ,Gs3
 .byte   W12
@  #03 @012   ----------------------------------------
 .byte   As3
 .byte   W12
 .byte   Gn3
 .byte   W12
 .byte   N11 ,Cn4
 .byte   W12
 .byte   N03
 .byte   W04
 .byte   N03
 .byte   W04
 .byte   N03
 .byte   W16
 .byte   N07
 .byte   W12
 .byte   N07
 .byte   W12
 .byte   N07
 .byte   W12
@  #03 @013   ----------------------------------------
 .byte   W96
@  #03 @014   ----------------------------------------
 .byte   W48
 .byte   W96
@  #03 @015   ----------------------------------------
 .byte   W48
 .byte   W96
@  #03 @016   ----------------------------------------
 .byte   W48
Label_0158DB00:
 .byte   N11 ,Gn3 ,v096
 .byte   W12
 .byte   N03
 .byte   W04
 .byte   N03
 .byte   W04
 .byte   N03
 .byte   W16
 .byte   N07 ,Gs3
 .byte   W12
@  #03 @017   ----------------------------------------
 .byte   As3
 .byte   W12
 .byte   Gn3
 .byte   W12
 .byte   N11 ,Cn4
 .byte   W12
 .byte   N03
 .byte   W04
 .byte   N03
 .byte   W04
 .byte   N03
 .byte   W16
 .byte   N07
 .byte   W12
 .byte   N07
 .byte   W12
 .byte   N07
 .byte   W12
 .byte   PEND 
@  #03 @018   ----------------------------------------
 .byte   W96
@  #03 @019   ----------------------------------------
 .byte   W48
 .byte   W96
@  #03 @020   ----------------------------------------
 .byte   W48
 .byte   W96
@  #03 @021   ----------------------------------------
 .byte   W48
 .byte   W96
@  #03 @022   ----------------------------------------
 .byte   W48
 .byte   W96
@  #03 @023   ----------------------------------------
 .byte   W48
 .byte   W96
@  #03 @024   ----------------------------------------
 .byte   W48
 .byte   W96
@  #03 @025   ----------------------------------------
 .byte   W48
 .byte   W96
@  #03 @026   ----------------------------------------
 .byte   W48
 .byte   W96
@  #03 @027   ----------------------------------------
 .byte   W48
 .byte   W96
@  #03 @028   ----------------------------------------
 .byte   W48
 .byte   W96
@  #03 @029   ----------------------------------------
 .byte   W48
@  #03 @030   ----------------------------------------
 .byte   PATT
  .word Label_0158DB00
@  #03 @031   ----------------------------------------
 .byte   W96
@  #03 @032   ----------------------------------------
 .byte   W48
 .byte   W96
@  #03 @033   ----------------------------------------
 .byte   W48
 .byte   W96
@  #03 @034   ----------------------------------------
 .byte   W48
@  #03 @035   ----------------------------------------
 .byte   PATT
  .word Label_0158DB00
@  #03 @036   ----------------------------------------
 .byte   W96
@  #03 @037   ----------------------------------------
 .byte   W48
 .byte   W96
@  #03 @038   ----------------------------------------
 .byte   W48
 .byte   W96
@  #03 @039   ----------------------------------------
 .byte   W48
 .byte   W96
@  #03 @040   ----------------------------------------
 .byte   W48
 .byte   W96
@  #03 @041   ----------------------------------------
 .byte   W48
 .byte   W96
@  #03 @042   ----------------------------------------
 .byte   W48
 .byte   W96
@  #03 @043   ----------------------------------------
 .byte   W48
 .byte   W96
@  #03 @044   ----------------------------------------
 .byte   W48
 .byte   W96
@  #03 @045   ----------------------------------------
 .byte   W48
 .byte   W96
@  #03 @046   ----------------------------------------
 .byte   W48
 .byte   W96
@  #03 @047   ----------------------------------------
 .byte   W48
 .byte   W96
@  #03 @048   ----------------------------------------
 .byte   W48
 .byte   W96
@  #03 @049   ----------------------------------------
 .byte   W48
 .byte   W96
@  #03 @050   ----------------------------------------
 .byte   W48
 .byte   W96
@  #03 @051   ----------------------------------------
 .byte   W48
 .byte   W96
@  #03 @052   ----------------------------------------
 .byte   W48
 .byte   W96
@  #03 @053   ----------------------------------------
 .byte   W48
 .byte   W96
@  #03 @054   ----------------------------------------
 .byte   W48
 .byte   W96
@  #03 @055   ----------------------------------------
 .byte   W48
 .byte   W96
@  #03 @056   ----------------------------------------
 .byte   W48
 .byte   W96
@  #03 @057   ----------------------------------------
 .byte   W48
 .byte   W96
@  #03 @058   ----------------------------------------
 .byte   W48
 .byte   W96
@  #03 @059   ----------------------------------------
 .byte   W48
 .byte   W96
@  #03 @060   ----------------------------------------
 .byte   W48
 .byte   W96
@  #03 @061   ----------------------------------------
 .byte   W48
 .byte   W96
@  #03 @062   ----------------------------------------
 .byte   W48
 .byte   GOTO
  .word Label_0158DAC6
@  #03 @063   ----------------------------------------
 .byte   W96
@  #03 @064   ----------------------------------------
 .byte   W48
 .byte   W96
@  #03 @065   ----------------------------------------
 .byte   W48
 .byte   W96
@  #03 @066   ----------------------------------------
 .byte   W48
 .byte   W96
@  #03 @067   ----------------------------------------
 .byte   W48
 .byte   W96
@  #03 @068   ----------------------------------------
 .byte   W48
 .byte   W96
@  #03 @069   ----------------------------------------
 .byte   W48
 .byte   W96
@  #03 @070   ----------------------------------------
 .byte   W48
 .byte   W96
@  #03 @071   ----------------------------------------
 .byte   W48
 .byte   W96
@  #03 @072   ----------------------------------------
 .byte   W48
 .byte   W96
@  #03 @073   ----------------------------------------
 .byte   W48
@  #03 @074   ----------------------------------------
 .byte   PATT
  .word Label_0158DB00
@  #03 @075   ----------------------------------------
 .byte   W96
@  #03 @076   ----------------------------------------
 .byte   W48
 .byte   W96
@  #03 @077   ----------------------------------------
 .byte   W48
 .byte   W96
@  #03 @078   ----------------------------------------
 .byte   W48
@  #03 @079   ----------------------------------------
 .byte   PATT
  .word Label_0158DB00
@  #03 @080   ----------------------------------------
 .byte   W96
@  #03 @081   ----------------------------------------
 .byte   W48
 .byte   W96
@  #03 @082   ----------------------------------------
 .byte   W48
 .byte   W96
@  #03 @083   ----------------------------------------
 .byte   W48
 .byte   W96
@  #03 @084   ----------------------------------------
 .byte   W48
 .byte   W96
@  #03 @085   ----------------------------------------
 .byte   W48
 .byte   W96
@  #03 @086   ----------------------------------------
 .byte   W48
 .byte   W96
@  #03 @087   ----------------------------------------
 .byte   W48
 .byte   W96
@  #03 @088   ----------------------------------------
 .byte   W48
 .byte   W96
@  #03 @089   ----------------------------------------
 .byte   W48
 .byte   W96
@  #03 @090   ----------------------------------------
 .byte   W48
 .byte   W96
@  #03 @091   ----------------------------------------
 .byte   W48
@  #03 @092   ----------------------------------------
 .byte   PATT
  .word Label_0158DB00
@  #03 @093   ----------------------------------------
 .byte   W96
@  #03 @094   ----------------------------------------
 .byte   W48
 .byte   W96
@  #03 @095   ----------------------------------------
 .byte   W48
 .byte   W96
@  #03 @096   ----------------------------------------
 .byte   W48
@  #03 @097   ----------------------------------------
 .byte   PATT
  .word Label_0158DB00
@  #03 @098   ----------------------------------------
 .byte   W96
@  #03 @099   ----------------------------------------
 .byte   W48
 .byte   W96
@  #03 @100   ----------------------------------------
 .byte   W48
 .byte   W96
@  #03 @101   ----------------------------------------
 .byte   W48
 .byte   W96
@  #03 @102   ----------------------------------------
 .byte   W48
 .byte   W96
@  #03 @103   ----------------------------------------
 .byte   W48
 .byte   W96
@  #03 @104   ----------------------------------------
 .byte   W48
 .byte   W96
@  #03 @105   ----------------------------------------
 .byte   W48
 .byte   W96
@  #03 @106   ----------------------------------------
 .byte   W48
 .byte   W96
@  #03 @107   ----------------------------------------
 .byte   W48
 .byte   W96
@  #03 @108   ----------------------------------------
 .byte   W48
 .byte   W96
@  #03 @109   ----------------------------------------
 .byte   W48
 .byte   W96
@  #03 @110   ----------------------------------------
 .byte   W48
 .byte   W96
@  #03 @111   ----------------------------------------
 .byte   W48
 .byte   W96
@  #03 @112   ----------------------------------------
 .byte   W48
 .byte   W96
@  #03 @113   ----------------------------------------
 .byte   W48
 .byte   W96
@  #03 @114   ----------------------------------------
 .byte   W48
 .byte   W96
@  #03 @115   ----------------------------------------
 .byte   W48
 .byte   W96
@  #03 @116   ----------------------------------------
 .byte   W48
 .byte   W96
@  #03 @117   ----------------------------------------
 .byte   W48
 .byte   W96
@  #03 @118   ----------------------------------------
 .byte   W48
 .byte   W96
@  #03 @119   ----------------------------------------
 .byte   W48
 .byte   W96
@  #03 @120   ----------------------------------------
 .byte   W48
 .byte   W96
@  #03 @121   ----------------------------------------
 .byte   W48
 .byte   W96
@  #03 @122   ----------------------------------------
 .byte   W48
 .byte   W96
@  #03 @123   ----------------------------------------
 .byte   W44
 .byte   W03
 .byte   FINE

@**************** Track 4 (Midi-Chn.3) ****************@

song04_004:
@  #04 @000   ----------------------------------------
 .byte   KEYSH , song04_key+0
 .byte   VOICE , 49
 .byte   VOL , 40*song04_mvl/mxv
 .byte   PAN , c_v+0
 .byte   N11 ,Fn0 ,v080
 .byte   W12
 .byte   N05
 .byte   W96
@  #04 @001   ----------------------------------------
 .byte   W36
Label_0142CEEF:
 .byte   N11 ,Fn0 ,v080
 .byte   W12
 .byte   N05
 .byte   W96
@  #04 @002   ----------------------------------------
 .byte   W36
 .byte   PEND 
@  #04 @003   ----------------------------------------
 .byte   PATT
  .word Label_0142CEEF
@  #04 @004   ----------------------------------------
Label_0142CEFC:
 .byte   N68 ,Cs0 ,v080
 .byte   W72
 .byte   Ds0
 .byte   W72
 .byte   PEND 
@  #04 @005   ----------------------------------------
 .byte   PATT
  .word Label_0142CEEF
@  #04 @006   ----------------------------------------
 .byte   PATT
  .word Label_0142CEEF
@  #04 @007   ----------------------------------------
 .byte   PATT
  .word Label_0142CEEF
@  #04 @008   ----------------------------------------
 .byte   PATT
  .word Label_0142CEFC
@  #04 @009   ----------------------------------------
Label_0142CF17:
 .byte   W96
@  #04 @010   ----------------------------------------
 .byte   W12
 .byte   N23 ,Fn0 ,v080
 .byte   W24
 .byte   N11 ,Gn0
 .byte   W12
 .byte   PEND 
Label_0142CF21:
 .byte   N68 ,Gs0 ,v080
 .byte   W96
@  #04 @011   ----------------------------------------
 .byte   W12
 .byte   N32
 .byte   W36
 .byte   PEND 
Label_0142CF29:
 .byte   N68 ,Ds1 ,v080
 .byte   W72
@  #04 @012   ----------------------------------------
 .byte   N32 ,Dn1
 .byte   W36
 .byte   As0
 .byte   W36
 .byte   PEND 
Label_0142CF33:
 .byte   N92 ,Cn1 ,v080
 .byte   W96
@  #04 @013   ----------------------------------------
 .byte   W12
 .byte   N11 ,En1
 .byte   W12
 .byte   Fn1
 .byte   W12
 .byte   Gn1
 .byte   W12
 .byte   PEND 
@  #04 @014   ----------------------------------------
 .byte   PATT
  .word Label_0142CF17
@  #04 @015   ----------------------------------------
 .byte   PATT
  .word Label_0142CF21
@  #04 @016   ----------------------------------------
 .byte   PATT
  .word Label_0142CF29
@  #04 @017   ----------------------------------------
 .byte   PATT
  .word Label_0142CF33
@  #04 @018   ----------------------------------------
 .byte   PATT
  .word Label_0142CEEF
@  #04 @019   ----------------------------------------
 .byte   PATT
  .word Label_0142CEEF
@  #04 @020   ----------------------------------------
 .byte   PATT
  .word Label_0142CEEF
@  #04 @021   ----------------------------------------
 .byte   PATT
  .word Label_0142CEFC
@  #04 @022   ----------------------------------------
Label_0142CF68:
 .byte   N11 ,Fn0 ,v064
 .byte   W12
 .byte   N56
 .byte   W60
 .byte   N68 ,Ds0
 .byte   W72
 .byte   PEND 
@  #04 @023   ----------------------------------------
Label_0142CF72:
 .byte   N11 ,Fn0 ,v064
 .byte   W12
 .byte   N56
 .byte   W60
 .byte   N23 ,Ds0
 .byte   W24
@  #04 @024   ----------------------------------------
 .byte   As0
 .byte   W24
 .byte   Ds0
 .byte   W24
 .byte   PEND 
Label_0142CF80:
 .byte   N11 ,Fn0 ,v064
 .byte   W12
 .byte   N56
 .byte   W60
@  #04 @025   ----------------------------------------
 .byte   N68 ,Ds0
 .byte   W72
 .byte   PEND 
Label_0142CF8A:
 .byte   N68 ,Cs0 ,v064
 .byte   W72
@  #04 @026   ----------------------------------------
 .byte   N23 ,Ds0
 .byte   W24
 .byte   As0
 .byte   W24
 .byte   Ds0
 .byte   W24
 .byte   PEND 
Label_0142CF96:
 .byte   W96
@  #04 @027   ----------------------------------------
 .byte   W12
 .byte   N23 ,Fn0 ,v080
 .byte   W24
 .byte   N11 ,Gn0
 .byte   W12
 .byte   PEND 
@  #04 @028   ----------------------------------------
 .byte   PATT
  .word Label_0142CF21
@  #04 @029   ----------------------------------------
 .byte   PATT
  .word Label_0142CF29
@  #04 @030   ----------------------------------------
 .byte   PATT
  .word Label_0142CF33
@  #04 @031   ----------------------------------------
 .byte   PATT
  .word Label_0142CF17
@  #04 @032   ----------------------------------------
 .byte   PATT
  .word Label_0142CF21
@  #04 @033   ----------------------------------------
 .byte   PATT
  .word Label_0142CF29
@  #04 @034   ----------------------------------------
 .byte   PATT
  .word Label_0142CF33
@  #04 @035   ----------------------------------------
Label_0142CFC3:
 .byte   W96
@  #04 @036   ----------------------------------------
 .byte   W48
 .byte   PEND 
 .byte   W96
@  #04 @037   ----------------------------------------
 .byte   W48
 .byte   W96
@  #04 @038   ----------------------------------------
 .byte   W48
 .byte   W96
@  #04 @039   ----------------------------------------
 .byte   W48
 .byte   W96
@  #04 @040   ----------------------------------------
 .byte   W48
 .byte   W96
@  #04 @041   ----------------------------------------
 .byte   W48
 .byte   W96
@  #04 @042   ----------------------------------------
 .byte   W48
 .byte   W96
@  #04 @043   ----------------------------------------
 .byte   W48
 .byte   W96
@  #04 @044   ----------------------------------------
 .byte   W48
Label_0142CFD6:
 .byte   N32 ,Cs1 ,v120
 .byte   W01
 .byte   W01
 .byte   W01
 .byte   W01
 .byte   W01
 .byte   W30
 .byte   W01
 .byte   N32
 .byte   W01
 .byte   W01
 .byte   W01
 .byte   W01
 .byte   W01
 .byte   W30
@  #04 @045   ----------------------------------------
 .byte   W01
 .byte   N32
 .byte   W01
 .byte   W01
 .byte   W01
 .byte   W01
 .byte   W01
 .byte   W30
 .byte   W01
 .byte   N32
 .byte   N32 ,En1
 .byte   W01
 .byte   W01
 .byte   W01
 .byte   W01
 .byte   W01
 .byte   W30
 .byte   W01
 .byte   PEND 
Label_0142CFFB:
 .byte   N32 ,An0 ,v120
 .byte   W01
 .byte   W01
 .byte   W01
 .byte   W01
 .byte   W01
 .byte   W30
@  #04 @046   ----------------------------------------
 .byte   W01
 .byte   N32
 .byte   N32 ,En1
 .byte   W01
 .byte   W01
 .byte   W01
 .byte   W01
 .byte   W01
 .byte   W30
 .byte   W01
 .byte   An0
 .byte   W01
 .byte   W01
 .byte   W01
 .byte   W01
 .byte   W01
 .byte   W30
 .byte   W01
 .byte   N32
 .byte   N32 ,En1
 .byte   W01
 .byte   W01
 .byte   W01
 .byte   W01
 .byte   W01
 .byte   W30
@  #04 @047   ----------------------------------------
 .byte   W01
 .byte   PEND 
Label_0142D022:
 .byte   N32 ,Bn0 ,v120
 .byte   W01
 .byte   W01
 .byte   W01
 .byte   W01
 .byte   W01
 .byte   W30
 .byte   W01
 .byte   N32
 .byte   N32 ,Fs1
 .byte   W01
 .byte   W01
 .byte   W01
 .byte   W01
 .byte   W01
 .byte   W30
 .byte   W01
 .byte   Bn0
 .byte   W01
 .byte   W01
 .byte   W01
 .byte   W01
 .byte   W01
 .byte   W30
@  #04 @048   ----------------------------------------
 .byte   W01
 .byte   N32
 .byte   N32 ,Fs1
 .byte   W01
 .byte   W01
 .byte   W01
 .byte   W01
 .byte   W01
 .byte   W30
 .byte   W01
 .byte   PEND 
Label_0142D049:
 .byte   N32 ,En0 ,v120
 .byte   W01
 .byte   W01
 .byte   W01
 .byte   W01
 .byte   W01
 .byte   W30
 .byte   W01
 .byte   N32
 .byte   N32 ,Gs0
 .byte   W01
 .byte   W01
 .byte   W01
 .byte   W01
 .byte   W01
 .byte   W30
@  #04 @049   ----------------------------------------
 .byte   W01
 .byte   Ds0
 .byte   W01
 .byte   W01
 .byte   W01
 .byte   W01
 .byte   W01
 .byte   W30
 .byte   W01
 .byte   N32
 .byte   N32 ,Fs0
 .byte   W01
 .byte   W01
 .byte   W01
 .byte   W01
 .byte   W01
 .byte   W30
 .byte   W01
 .byte   PEND 
@  #04 @050   ----------------------------------------
 .byte   PATT
  .word Label_0142CFD6
@  #04 @051   ----------------------------------------
 .byte   PATT
  .word Label_0142CFFB
@  #04 @052   ----------------------------------------
 .byte   PATT
  .word Label_0142D022
@  #04 @053   ----------------------------------------
 .byte   W96
@  #04 @054   ----------------------------------------
 .byte   W48
 .byte   W96
@  #04 @055   ----------------------------------------
 .byte   W48
Label_0142D083:
 .byte   W72
@  #04 @056   ----------------------------------------
 .byte   N32 ,Cs1 ,v080
 .byte   W36
 .byte   Cn1
 .byte   W36
 .byte   PEND 
 .byte   W96
@  #04 @057   ----------------------------------------
 .byte   W48
Label_0142D08D:
 .byte   N68 ,Fn0 ,v080
 .byte   W72
@  #04 @058   ----------------------------------------
 .byte   N32 ,As0
 .byte   W36
 .byte   Cn1
 .byte   W36
 .byte   PEND 
 .byte   W96
@  #04 @059   ----------------------------------------
 .byte   W48
Label_0142D099:
 .byte   N32 ,Gs0 ,v080
 .byte   W36
 .byte   Cn1
 .byte   W36
@  #04 @060   ----------------------------------------
 .byte   Bn0
 .byte   W36
 .byte   Cn1
 .byte   W36
 .byte   PEND 
 .byte   W96
@  #04 @061   ----------------------------------------
 .byte   W48
 .byte   W96
@  #04 @062   ----------------------------------------
 .byte   W48
@  #04 @063   ----------------------------------------
 .byte   PATT
  .word Label_0142CEEF
@  #04 @064   ----------------------------------------
 .byte   GOTO
  .word Label_0142CEEF
@  #04 @065   ----------------------------------------
 .byte   PATT
  .word Label_0142CEEF
@  #04 @066   ----------------------------------------
 .byte   PATT
  .word Label_0142CEEF
@  #04 @067   ----------------------------------------
 .byte   PATT
  .word Label_0142CEFC
@  #04 @068   ----------------------------------------
 .byte   PATT
  .word Label_0142CEEF
@  #04 @069   ----------------------------------------
 .byte   PATT
  .word Label_0142CEEF
@  #04 @070   ----------------------------------------
 .byte   PATT
  .word Label_0142CEEF
@  #04 @071   ----------------------------------------
 .byte   PATT
  .word Label_0142CEFC
@  #04 @072   ----------------------------------------
 .byte   PATT
  .word Label_0142CF17
@  #04 @073   ----------------------------------------
 .byte   PATT
  .word Label_0142CF21
@  #04 @074   ----------------------------------------
 .byte   PATT
  .word Label_0142CF29
@  #04 @075   ----------------------------------------
 .byte   PATT
  .word Label_0142CF33
@  #04 @076   ----------------------------------------
 .byte   PATT
  .word Label_0142CF17
@  #04 @077   ----------------------------------------
 .byte   PATT
  .word Label_0142CF21
@  #04 @078   ----------------------------------------
 .byte   PATT
  .word Label_0142CF29
@  #04 @079   ----------------------------------------
 .byte   PATT
  .word Label_0142CF33
@  #04 @080   ----------------------------------------
 .byte   PATT
  .word Label_0142CEEF
@  #04 @081   ----------------------------------------
 .byte   PATT
  .word Label_0142CEEF
@  #04 @082   ----------------------------------------
 .byte   PATT
  .word Label_0142CEEF
@  #04 @083   ----------------------------------------
 .byte   PATT
  .word Label_0142CEFC
@  #04 @084   ----------------------------------------
 .byte   PATT
  .word Label_0142CF68
@  #04 @085   ----------------------------------------
 .byte   PATT
  .word Label_0142CF72
@  #04 @086   ----------------------------------------
 .byte   PATT
  .word Label_0142CF80
@  #04 @087   ----------------------------------------
 .byte   PATT
  .word Label_0142CF8A
@  #04 @088   ----------------------------------------
 .byte   PATT
  .word Label_0142CF96
@  #04 @089   ----------------------------------------
 .byte   PATT
  .word Label_0142CF21
@  #04 @090   ----------------------------------------
 .byte   PATT
  .word Label_0142CF29
@  #04 @091   ----------------------------------------
 .byte   PATT
  .word Label_0142CF33
@  #04 @092   ----------------------------------------
 .byte   PATT
  .word Label_0142CF17
@  #04 @093   ----------------------------------------
 .byte   PATT
  .word Label_0142CF21
@  #04 @094   ----------------------------------------
 .byte   PATT
  .word Label_0142CF29
@  #04 @095   ----------------------------------------
 .byte   PATT
  .word Label_0142CF33
@  #04 @096   ----------------------------------------
 .byte   PATT
  .word Label_0142CFC3
@  #04 @097   ----------------------------------------
 .byte   W96
@  #04 @098   ----------------------------------------
 .byte   W48
 .byte   W96
@  #04 @099   ----------------------------------------
 .byte   W48
 .byte   W96
@  #04 @100   ----------------------------------------
 .byte   W48
 .byte   W96
@  #04 @101   ----------------------------------------
 .byte   W48
 .byte   W96
@  #04 @102   ----------------------------------------
 .byte   W48
 .byte   W96
@  #04 @103   ----------------------------------------
 .byte   W48
 .byte   W96
@  #04 @104   ----------------------------------------
 .byte   W48
 .byte   W96
@  #04 @105   ----------------------------------------
 .byte   W48
@  #04 @106   ----------------------------------------
 .byte   PATT
  .word Label_0142CFD6
@  #04 @107   ----------------------------------------
 .byte   PATT
  .word Label_0142CFFB
@  #04 @108   ----------------------------------------
 .byte   PATT
  .word Label_0142D022
@  #04 @109   ----------------------------------------
 .byte   PATT
  .word Label_0142D049
@  #04 @110   ----------------------------------------
 .byte   PATT
  .word Label_0142CFD6
@  #04 @111   ----------------------------------------
 .byte   PATT
  .word Label_0142CFFB
@  #04 @112   ----------------------------------------
 .byte   PATT
  .word Label_0142D022
@  #04 @113   ----------------------------------------
 .byte   W96
@  #04 @114   ----------------------------------------
 .byte   W48
 .byte   W96
@  #04 @115   ----------------------------------------
 .byte   W48
@  #04 @116   ----------------------------------------
 .byte   PATT
  .word Label_0142D083
@  #04 @117   ----------------------------------------
 .byte   W96
@  #04 @118   ----------------------------------------
 .byte   W48
@  #04 @119   ----------------------------------------
 .byte   PATT
  .word Label_0142D08D
@  #04 @120   ----------------------------------------
 .byte   W96
@  #04 @121   ----------------------------------------
 .byte   W48
@  #04 @122   ----------------------------------------
 .byte   PATT
  .word Label_0142D099
@  #04 @123   ----------------------------------------
 .byte   W96
@  #04 @124   ----------------------------------------
 .byte   W48
 .byte   W96
@  #04 @125   ----------------------------------------
 .byte   W44
 .byte   W03
 .byte   FINE

@**************** Track 5 (Midi-Chn.4) ****************@

song04_005:
@  #05 @000   ----------------------------------------
 .byte   KEYSH , song04_key+0
 .byte   VOICE , 45
 .byte   VOL , 40*song04_mvl/mxv
 .byte   PAN , c_v+0
 .byte   W96
@  #05 @001   ----------------------------------------
 .byte   W48
Label_0142D1BE:
 .byte   W96
@  #05 @002   ----------------------------------------
 .byte   W48
 .byte   W96
@  #05 @003   ----------------------------------------
 .byte   W48
 .byte   W96
@  #05 @004   ----------------------------------------
 .byte   W48
 .byte   W96
@  #05 @005   ----------------------------------------
 .byte   W48
 .byte   W96
@  #05 @006   ----------------------------------------
 .byte   W48
 .byte   W96
@  #05 @007   ----------------------------------------
 .byte   W48
 .byte   W96
@  #05 @008   ----------------------------------------
 .byte   W48
 .byte   W96
@  #05 @009   ----------------------------------------
 .byte   W48
 .byte   W96
@  #05 @010   ----------------------------------------
 .byte   W48
 .byte   W96
@  #05 @011   ----------------------------------------
 .byte   W48
 .byte   W96
@  #05 @012   ----------------------------------------
 .byte   W48
 .byte   W96
@  #05 @013   ----------------------------------------
 .byte   W48
 .byte   W96
@  #05 @014   ----------------------------------------
 .byte   W48
 .byte   W96
@  #05 @015   ----------------------------------------
 .byte   W48
 .byte   W96
@  #05 @016   ----------------------------------------
 .byte   W48
 .byte   W96
@  #05 @017   ----------------------------------------
 .byte   W48
 .byte   W96
@  #05 @018   ----------------------------------------
 .byte   W48
 .byte   W96
@  #05 @019   ----------------------------------------
 .byte   W48
 .byte   W96
@  #05 @020   ----------------------------------------
 .byte   W48
Label_0142D1E4:
 .byte   N07 ,Fn3 ,v080
 .byte   W96
@  #05 @021   ----------------------------------------
 .byte   W12
 .byte   Ds3
 .byte   W12
 .byte   Cn3
 .byte   W12
 .byte   Ds3
 .byte   W12
 .byte   PEND 
Label_0142D1F0:
 .byte   N07 ,Fn3 ,v080
 .byte   W96
@  #05 @022   ----------------------------------------
 .byte   Gs3
 .byte   W12
 .byte   Gn3
 .byte   W12
 .byte   Ds3
 .byte   W12
 .byte   As2
 .byte   W12
 .byte   PEND 
Label_0142D1FD:
 .byte   N07 ,Fn3 ,v080
 .byte   W96
@  #05 @023   ----------------------------------------
 .byte   W12
 .byte   N07
 .byte   W12
 .byte   Gn3
 .byte   W12
 .byte   Gs3
 .byte   W12
 .byte   PEND 
Label_0142D209:
 .byte   W36
 .byte   N07 ,Fn3 ,v080
 .byte   W12
@  #05 @024   ----------------------------------------
 .byte   Ds3
 .byte   W12
 .byte   Fn3
 .byte   W12
 .byte   Gs3
 .byte   W12
 .byte   Gn3
 .byte   W12
 .byte   Cs4
 .byte   W12
 .byte   Cn4
 .byte   W12
 .byte   Gn3
 .byte   W12
 .byte   Ds3
 .byte   W12
 .byte   PEND 
@  #05 @025   ----------------------------------------
Label_0142D21F:
 .byte   W12
 .byte   N07 ,Cn4 ,v064
 .byte   W12
 .byte   N07
 .byte   W12
 .byte   N07
 .byte   W12
 .byte   N07
 .byte   W12
 .byte   N07
 .byte   W24
 .byte   As3
 .byte   W12
@  #05 @026   ----------------------------------------
 .byte   N07
 .byte   W12
 .byte   N07
 .byte   W12
 .byte   N07
 .byte   W12
 .byte   N07
 .byte   W12
 .byte   PEND 
Label_0142D237:
 .byte   W12
 .byte   N07 ,Cn4 ,v064
 .byte   W12
 .byte   N07
 .byte   W12
 .byte   N07
 .byte   W12
@  #05 @027   ----------------------------------------
 .byte   N07
 .byte   W12
 .byte   N07
 .byte   W24
 .byte   Fn4
 .byte   W12
 .byte   N07
 .byte   W12
 .byte   N07
 .byte   W12
 .byte   N07
 .byte   W12
 .byte   N07
 .byte   W12
 .byte   PEND 
@  #05 @028   ----------------------------------------
Label_0142D24F:
 .byte   W12
 .byte   N07 ,Gn4 ,v064
 .byte   W12
 .byte   N07
 .byte   W12
 .byte   N07
 .byte   W12
 .byte   N07
 .byte   W12
 .byte   N07
 .byte   W12
 .byte   Fn4
 .byte   W12
 .byte   N07
 .byte   W12
@  #05 @029   ----------------------------------------
 .byte   N07
 .byte   W12
 .byte   Dn4
 .byte   W12
 .byte   N07
 .byte   W12
 .byte   N07
 .byte   W12
 .byte   PEND 
Label_0142D269:
 .byte   N07 ,Cn4 ,v064
 .byte   W12
 .byte   N07
 .byte   W12
 .byte   N07
 .byte   W12
 .byte   N07
 .byte   W12
@  #05 @030   ----------------------------------------
 .byte   N07
 .byte   W12
 .byte   N07
 .byte   W84
 .byte   PEND 
@  #05 @031   ----------------------------------------
Label_0142D278:
 .byte   W12
 .byte   N07 ,Fn3 ,v064
 .byte   W12
 .byte   N07
 .byte   W12
 .byte   N07
 .byte   W12
 .byte   N07
 .byte   W12
 .byte   N07
 .byte   W24
 .byte   As3
 .byte   W12
@  #05 @032   ----------------------------------------
 .byte   N07
 .byte   W12
 .byte   N07
 .byte   W12
 .byte   N07
 .byte   W12
 .byte   N07
 .byte   W12
 .byte   PEND 
@  #05 @033   ----------------------------------------
 .byte   PATT
  .word Label_0142D237
@  #05 @034   ----------------------------------------
 .byte   PATT
  .word Label_0142D24F
@  #05 @035   ----------------------------------------
 .byte   W96
@  #05 @036   ----------------------------------------
 .byte   W48
 .byte   W96
@  #05 @037   ----------------------------------------
 .byte   W48
 .byte   W96
@  #05 @038   ----------------------------------------
 .byte   W48
 .byte   W96
@  #05 @039   ----------------------------------------
 .byte   W48
 .byte   W96
@  #05 @040   ----------------------------------------
 .byte   W48
 .byte   W96
@  #05 @041   ----------------------------------------
 .byte   W48
 .byte   W96
@  #05 @042   ----------------------------------------
 .byte   W48
 .byte   W96
@  #05 @043   ----------------------------------------
 .byte   W48
 .byte   W96
@  #05 @044   ----------------------------------------
 .byte   W48
 .byte   W96
@  #05 @045   ----------------------------------------
 .byte   W48
Label_0142D2AE:
 .byte   W96
@  #05 @046   ----------------------------------------
 .byte   W12
 .byte   N23 ,Cs4 ,v064
 .byte   W24
 .byte   N11 ,Bn3
 .byte   W12
 .byte   PEND 
Label_0142D2B8:
 .byte   W96
@  #05 @047   ----------------------------------------
 .byte   W12
 .byte   N32 ,Cs4 ,v064
 .byte   W36
 .byte   PEND 
Label_0142D2BF:
 .byte   W96
@  #05 @048   ----------------------------------------
 .byte   W12
 .byte   N32 ,Ds4 ,v064
 .byte   W36
 .byte   PEND 
Label_0142D2C6:
 .byte   N68 ,En4 ,v064
 .byte   W72
@  #05 @049   ----------------------------------------
 .byte   Ds4
 .byte   W72
 .byte   PEND 
Label_0142D2CD:
 .byte   W96
@  #05 @050   ----------------------------------------
 .byte   W12
 .byte   N23 ,En4 ,v064
 .byte   W24
 .byte   N11 ,Ds4
 .byte   W12
 .byte   PEND 
Label_0142D2D7:
 .byte   W96
@  #05 @051   ----------------------------------------
 .byte   W12
 .byte   N11 ,Cs4 ,v064
 .byte   W12
 .byte   Ds4
 .byte   W12
 .byte   Cs4
 .byte   W12
 .byte   PEND 
Label_0142D2E2:
 .byte   W96
@  #05 @052   ----------------------------------------
 .byte   W12
 .byte   N32 ,Fs3 ,v064
 .byte   W36
 .byte   PEND 
Label_0142D2E9:
 .byte   N68 ,Gs2 ,v064
 .byte   W72
@  #05 @053   ----------------------------------------
 .byte   Fs2
 .byte   W72
 .byte   PEND 
 .byte   W96
@  #05 @054   ----------------------------------------
 .byte   W48
 .byte   W96
@  #05 @055   ----------------------------------------
 .byte   W48
 .byte   W96
@  #05 @056   ----------------------------------------
 .byte   W48
 .byte   W96
@  #05 @057   ----------------------------------------
 .byte   W48
 .byte   W96
@  #05 @058   ----------------------------------------
 .byte   W48
 .byte   W96
@  #05 @059   ----------------------------------------
 .byte   W48
 .byte   W96
@  #05 @060   ----------------------------------------
 .byte   W48
 .byte   W96
@  #05 @061   ----------------------------------------
 .byte   W48
 .byte   W96
@  #05 @062   ----------------------------------------
 .byte   W48
 .byte   GOTO
  .word Label_0142D1BE
@  #05 @063   ----------------------------------------
 .byte   W96
@  #05 @064   ----------------------------------------
 .byte   W48
 .byte   W96
@  #05 @065   ----------------------------------------
 .byte   W48
 .byte   W96
@  #05 @066   ----------------------------------------
 .byte   W48
 .byte   W96
@  #05 @067   ----------------------------------------
 .byte   W48
 .byte   W96
@  #05 @068   ----------------------------------------
 .byte   W48
 .byte   W96
@  #05 @069   ----------------------------------------
 .byte   W48
 .byte   W96
@  #05 @070   ----------------------------------------
 .byte   W48
 .byte   W96
@  #05 @071   ----------------------------------------
 .byte   W48
 .byte   W96
@  #05 @072   ----------------------------------------
 .byte   W48
 .byte   W96
@  #05 @073   ----------------------------------------
 .byte   W48
 .byte   W96
@  #05 @074   ----------------------------------------
 .byte   W48
 .byte   W96
@  #05 @075   ----------------------------------------
 .byte   W48
 .byte   W96
@  #05 @076   ----------------------------------------
 .byte   W48
 .byte   W96
@  #05 @077   ----------------------------------------
 .byte   W48
 .byte   W96
@  #05 @078   ----------------------------------------
 .byte   W48
 .byte   W96
@  #05 @079   ----------------------------------------
 .byte   W48
 .byte   W96
@  #05 @080   ----------------------------------------
 .byte   W48
 .byte   W96
@  #05 @081   ----------------------------------------
 .byte   W48
 .byte   W96
@  #05 @082   ----------------------------------------
 .byte   W48
@  #05 @083   ----------------------------------------
 .byte   PATT
  .word Label_0142D1E4
@  #05 @084   ----------------------------------------
 .byte   PATT
  .word Label_0142D1F0
@  #05 @085   ----------------------------------------
 .byte   PATT
  .word Label_0142D1FD
@  #05 @086   ----------------------------------------
 .byte   PATT
  .word Label_0142D209
@  #05 @087   ----------------------------------------
 .byte   PATT
  .word Label_0142D21F
@  #05 @088   ----------------------------------------
 .byte   PATT
  .word Label_0142D237
@  #05 @089   ----------------------------------------
 .byte   PATT
  .word Label_0142D24F
@  #05 @090   ----------------------------------------
 .byte   PATT
  .word Label_0142D269
@  #05 @091   ----------------------------------------
 .byte   PATT
  .word Label_0142D278
@  #05 @092   ----------------------------------------
 .byte   PATT
  .word Label_0142D237
@  #05 @093   ----------------------------------------
 .byte   PATT
  .word Label_0142D24F
@  #05 @094   ----------------------------------------
 .byte   W96
@  #05 @095   ----------------------------------------
 .byte   W48
 .byte   W96
@  #05 @096   ----------------------------------------
 .byte   W48
 .byte   W96
@  #05 @097   ----------------------------------------
 .byte   W48
 .byte   W96
@  #05 @098   ----------------------------------------
 .byte   W48
 .byte   W96
@  #05 @099   ----------------------------------------
 .byte   W48
 .byte   W96
@  #05 @100   ----------------------------------------
 .byte   W48
 .byte   W96
@  #05 @101   ----------------------------------------
 .byte   W48
 .byte   W96
@  #05 @102   ----------------------------------------
 .byte   W48
 .byte   W96
@  #05 @103   ----------------------------------------
 .byte   W48
 .byte   W96
@  #05 @104   ----------------------------------------
 .byte   W48
@  #05 @105   ----------------------------------------
 .byte   PATT
  .word Label_0142D2AE
@  #05 @106   ----------------------------------------
 .byte   PATT
  .word Label_0142D2B8
@  #05 @107   ----------------------------------------
 .byte   PATT
  .word Label_0142D2BF
@  #05 @108   ----------------------------------------
 .byte   PATT
  .word Label_0142D2C6
@  #05 @109   ----------------------------------------
 .byte   PATT
  .word Label_0142D2CD
@  #05 @110   ----------------------------------------
 .byte   PATT
  .word Label_0142D2D7
@  #05 @111   ----------------------------------------
 .byte   PATT
  .word Label_0142D2E2
@  #05 @112   ----------------------------------------
 .byte   PATT
  .word Label_0142D2E9
@  #05 @113   ----------------------------------------
 .byte   W96
@  #05 @114   ----------------------------------------
 .byte   W48
 .byte   W96
@  #05 @115   ----------------------------------------
 .byte   W48
 .byte   W96
@  #05 @116   ----------------------------------------
 .byte   W48
 .byte   W96
@  #05 @117   ----------------------------------------
 .byte   W48
 .byte   W96
@  #05 @118   ----------------------------------------
 .byte   W48
 .byte   W96
@  #05 @119   ----------------------------------------
 .byte   W48
 .byte   W96
@  #05 @120   ----------------------------------------
 .byte   W48
 .byte   W96
@  #05 @121   ----------------------------------------
 .byte   W44
 .byte   W03
 .byte   FINE

@**************** Track 6 (Midi-Chn.5) ****************@

song04_006:
@  #06 @000   ----------------------------------------
 .byte   KEYSH , song04_key+0
 .byte   VOICE , 45
 .byte   VOL , 40*song04_mvl/mxv
 .byte   PAN , c_v+0
 .byte   W96
@  #06 @001   ----------------------------------------
 .byte   W48
Label_0142D3CE:
 .byte   W96
@  #06 @002   ----------------------------------------
 .byte   W48
 .byte   W96
@  #06 @003   ----------------------------------------
 .byte   W48
 .byte   W96
@  #06 @004   ----------------------------------------
 .byte   W48
 .byte   W96
@  #06 @005   ----------------------------------------
 .byte   W48
 .byte   W96
@  #06 @006   ----------------------------------------
 .byte   W48
 .byte   W96
@  #06 @007   ----------------------------------------
 .byte   W48
 .byte   W96
@  #06 @008   ----------------------------------------
 .byte   W48
 .byte   W96
@  #06 @009   ----------------------------------------
 .byte   W12
 .byte   N23 ,Fn1 ,v096
 .byte   W24
 .byte   N11 ,Gn1
 .byte   W12
Label_0142D3E5:
 .byte   N68 ,Gs1 ,v096
 .byte   W96
@  #06 @010   ----------------------------------------
 .byte   W12
 .byte   N32
 .byte   W36
 .byte   PEND 
Label_0142D3ED:
 .byte   N68 ,Ds2 ,v096
 .byte   W72
@  #06 @011   ----------------------------------------
 .byte   N32 ,Dn2
 .byte   W36
 .byte   As1
 .byte   W36
 .byte   PEND 
Label_0142D3F7:
 .byte   N92 ,Cn2 ,v096
 .byte   W96
@  #06 @012   ----------------------------------------
 .byte   W48
 .byte   PEND 
 .byte   W96
@  #06 @013   ----------------------------------------
 .byte   W48
 .byte   W96
@  #06 @014   ----------------------------------------
 .byte   W48
 .byte   W96
@  #06 @015   ----------------------------------------
 .byte   W48
 .byte   W96
@  #06 @016   ----------------------------------------
 .byte   W48
 .byte   W96
@  #06 @017   ----------------------------------------
 .byte   W48
 .byte   W96
@  #06 @018   ----------------------------------------
 .byte   W48
 .byte   W96
@  #06 @019   ----------------------------------------
 .byte   W48
 .byte   W96
@  #06 @020   ----------------------------------------
 .byte   W48
 .byte   W96
@  #06 @021   ----------------------------------------
 .byte   W48
 .byte   W96
@  #06 @022   ----------------------------------------
 .byte   W48
 .byte   W96
@  #06 @023   ----------------------------------------
 .byte   W48
 .byte   W96
@  #06 @024   ----------------------------------------
 .byte   W48
Label_0142D415:
 .byte   W96
@  #06 @025   ----------------------------------------
 .byte   W12
 .byte   N23 ,Fn1 ,v096
 .byte   W24
 .byte   N11 ,Gn1
 .byte   W12
 .byte   PEND 
@  #06 @026   ----------------------------------------
 .byte   PATT
  .word Label_0142D3E5
@  #06 @027   ----------------------------------------
 .byte   PATT
  .word Label_0142D3ED
@  #06 @028   ----------------------------------------
 .byte   PATT
  .word Label_0142D3F7
@  #06 @029   ----------------------------------------
 .byte   W96
@  #06 @030   ----------------------------------------
 .byte   W48
 .byte   W96
@  #06 @031   ----------------------------------------
 .byte   W48
 .byte   W96
@  #06 @032   ----------------------------------------
 .byte   W48
 .byte   W96
@  #06 @033   ----------------------------------------
 .byte   W48
 .byte   W96
@  #06 @034   ----------------------------------------
 .byte   W48
 .byte   W96
@  #06 @035   ----------------------------------------
 .byte   W48
 .byte   W96
@  #06 @036   ----------------------------------------
 .byte   W48
 .byte   W96
@  #06 @037   ----------------------------------------
 .byte   W48
 .byte   W96
@  #06 @038   ----------------------------------------
 .byte   W48
 .byte   W96
@  #06 @039   ----------------------------------------
 .byte   W48
 .byte   W96
@  #06 @040   ----------------------------------------
 .byte   W48
 .byte   W96
@  #06 @041   ----------------------------------------
 .byte   W48
 .byte   W96
@  #06 @042   ----------------------------------------
 .byte   W48
 .byte   W96
@  #06 @043   ----------------------------------------
 .byte   W48
 .byte   W96
@  #06 @044   ----------------------------------------
 .byte   W48
 .byte   W96
@  #06 @045   ----------------------------------------
 .byte   W48
 .byte   W96
@  #06 @046   ----------------------------------------
 .byte   W48
 .byte   W96
@  #06 @047   ----------------------------------------
 .byte   W48
 .byte   W96
@  #06 @048   ----------------------------------------
 .byte   W48
 .byte   W96
@  #06 @049   ----------------------------------------
 .byte   W48
 .byte   W96
@  #06 @050   ----------------------------------------
 .byte   W48
 .byte   W96
@  #06 @051   ----------------------------------------
 .byte   W48
 .byte   W96
@  #06 @052   ----------------------------------------
 .byte   W48
 .byte   W96
@  #06 @053   ----------------------------------------
 .byte   W48
 .byte   W96
@  #06 @054   ----------------------------------------
 .byte   W48
 .byte   W96
@  #06 @055   ----------------------------------------
 .byte   W48
 .byte   W96
@  #06 @056   ----------------------------------------
 .byte   W48
 .byte   W96
@  #06 @057   ----------------------------------------
 .byte   W48
 .byte   W96
@  #06 @058   ----------------------------------------
 .byte   W48
 .byte   W96
@  #06 @059   ----------------------------------------
 .byte   W48
 .byte   GOTO
  .word Label_0142D3CE
@  #06 @060   ----------------------------------------
 .byte   W96
@  #06 @061   ----------------------------------------
 .byte   W48
 .byte   W96
@  #06 @062   ----------------------------------------
 .byte   W48
 .byte   W96
@  #06 @063   ----------------------------------------
 .byte   W48
 .byte   W96
@  #06 @064   ----------------------------------------
 .byte   W48
 .byte   W96
@  #06 @065   ----------------------------------------
 .byte   W48
 .byte   W96
@  #06 @066   ----------------------------------------
 .byte   W48
 .byte   W96
@  #06 @067   ----------------------------------------
 .byte   W48
@  #06 @068   ----------------------------------------
 .byte   PATT
  .word Label_0142D415
@  #06 @069   ----------------------------------------
 .byte   PATT
  .word Label_0142D3E5
@  #06 @070   ----------------------------------------
 .byte   PATT
  .word Label_0142D3ED
@  #06 @071   ----------------------------------------
 .byte   PATT
  .word Label_0142D3F7
@  #06 @072   ----------------------------------------
 .byte   W96
@  #06 @073   ----------------------------------------
 .byte   W48
 .byte   W96
@  #06 @074   ----------------------------------------
 .byte   W48
 .byte   W96
@  #06 @075   ----------------------------------------
 .byte   W48
 .byte   W96
@  #06 @076   ----------------------------------------
 .byte   W48
 .byte   W96
@  #06 @077   ----------------------------------------
 .byte   W48
 .byte   W96
@  #06 @078   ----------------------------------------
 .byte   W48
 .byte   W96
@  #06 @079   ----------------------------------------
 .byte   W48
 .byte   W96
@  #06 @080   ----------------------------------------
 .byte   W48
 .byte   W96
@  #06 @081   ----------------------------------------
 .byte   W48
 .byte   W96
@  #06 @082   ----------------------------------------
 .byte   W48
 .byte   W96
@  #06 @083   ----------------------------------------
 .byte   W48
 .byte   W96
@  #06 @084   ----------------------------------------
 .byte   W48
@  #06 @085   ----------------------------------------
 .byte   PATT
  .word Label_0142D415
@  #06 @086   ----------------------------------------
 .byte   PATT
  .word Label_0142D3E5
@  #06 @087   ----------------------------------------
 .byte   PATT
  .word Label_0142D3ED
@  #06 @088   ----------------------------------------
 .byte   PATT
  .word Label_0142D3F7
@  #06 @089   ----------------------------------------
 .byte   W96
@  #06 @090   ----------------------------------------
 .byte   W48
 .byte   W96
@  #06 @091   ----------------------------------------
 .byte   W48
 .byte   W96
@  #06 @092   ----------------------------------------
 .byte   W48
 .byte   W96
@  #06 @093   ----------------------------------------
 .byte   W48
 .byte   W96
@  #06 @094   ----------------------------------------
 .byte   W48
 .byte   W96
@  #06 @095   ----------------------------------------
 .byte   W48
 .byte   W96
@  #06 @096   ----------------------------------------
 .byte   W48
 .byte   W96
@  #06 @097   ----------------------------------------
 .byte   W48
 .byte   W96
@  #06 @098   ----------------------------------------
 .byte   W48
 .byte   W96
@  #06 @099   ----------------------------------------
 .byte   W48
 .byte   W96
@  #06 @100   ----------------------------------------
 .byte   W48
 .byte   W96
@  #06 @101   ----------------------------------------
 .byte   W48
 .byte   W96
@  #06 @102   ----------------------------------------
 .byte   W48
 .byte   W96
@  #06 @103   ----------------------------------------
 .byte   W48
 .byte   W96
@  #06 @104   ----------------------------------------
 .byte   W48
 .byte   W96
@  #06 @105   ----------------------------------------
 .byte   W48
 .byte   W96
@  #06 @106   ----------------------------------------
 .byte   W48
 .byte   W96
@  #06 @107   ----------------------------------------
 .byte   W48
 .byte   W96
@  #06 @108   ----------------------------------------
 .byte   W48
 .byte   W96
@  #06 @109   ----------------------------------------
 .byte   W48
 .byte   W96
@  #06 @110   ----------------------------------------
 .byte   W48
 .byte   W96
@  #06 @111   ----------------------------------------
 .byte   W48
 .byte   W96
@  #06 @112   ----------------------------------------
 .byte   W48
 .byte   W96
@  #06 @113   ----------------------------------------
 .byte   W48
 .byte   W96
@  #06 @114   ----------------------------------------
 .byte   W48
 .byte   W96
@  #06 @115   ----------------------------------------
 .byte   W48
 .byte   W96
@  #06 @116   ----------------------------------------
 .byte   W48
 .byte   W96
@  #06 @117   ----------------------------------------
 .byte   W48
 .byte   W96
@  #06 @118   ----------------------------------------
 .byte   W44
 .byte   W03
 .byte   FINE

@**************** Track 7 (Midi-Chn.6) ****************@

song04_007:
@  #07 @000   ----------------------------------------
 .byte   KEYSH , song04_key+0
 .byte   VOICE , 59
 .byte   VOL , 40*song04_mvl/mxv
 .byte   PAN , c_v+0
 .byte   N11 ,Fn1 ,v080
 .byte   W12
 .byte   N05
 .byte   W96
@  #07 @001   ----------------------------------------
 .byte   W36
Label_0142D51B:
 .byte   N11 ,Fn1 ,v080
 .byte   W12
 .byte   N05
 .byte   W96
@  #07 @002   ----------------------------------------
 .byte   W36
 .byte   PEND 
@  #07 @003   ----------------------------------------
 .byte   PATT
  .word Label_0142D51B
@  #07 @004   ----------------------------------------
Label_0142D528:
 .byte   N68 ,Cs1 ,v080
 .byte   W72
 .byte   Ds1
 .byte   W72
 .byte   PEND 
@  #07 @005   ----------------------------------------
 .byte   PATT
  .word Label_0142D51B
@  #07 @006   ----------------------------------------
 .byte   PATT
  .word Label_0142D51B
@  #07 @007   ----------------------------------------
 .byte   PATT
  .word Label_0142D51B
@  #07 @008   ----------------------------------------
 .byte   PATT
  .word Label_0142D528
@  #07 @009   ----------------------------------------
 .byte   W96
@  #07 @010   ----------------------------------------
 .byte   W48
 .byte   W96
@  #07 @011   ----------------------------------------
 .byte   W48
 .byte   W96
@  #07 @012   ----------------------------------------
 .byte   W48
Label_0142D549:
 .byte   W96
@  #07 @013   ----------------------------------------
 .byte   W12
 .byte   N11 ,En1 ,v080
 .byte   W12
 .byte   Fn1
 .byte   W12
 .byte   Gn1
 .byte   W12
 .byte   PEND 
 .byte   W96
@  #07 @014   ----------------------------------------
 .byte   W48
 .byte   W96
@  #07 @015   ----------------------------------------
 .byte   W48
 .byte   W96
@  #07 @016   ----------------------------------------
 .byte   W48
@  #07 @017   ----------------------------------------
 .byte   PATT
  .word Label_0142D549
@  #07 @018   ----------------------------------------
 .byte   PATT
  .word Label_0142D51B
@  #07 @019   ----------------------------------------
 .byte   PATT
  .word Label_0142D51B
@  #07 @020   ----------------------------------------
 .byte   PATT
  .word Label_0142D51B
@  #07 @021   ----------------------------------------
 .byte   PATT
  .word Label_0142D528
@  #07 @022   ----------------------------------------
Label_0142D573:
 .byte   N11 ,Fn1 ,v064
 .byte   W12
 .byte   N56
 .byte   W60
 .byte   N68 ,Ds1
 .byte   W72
 .byte   PEND 
@  #07 @023   ----------------------------------------
Label_0142D57D:
 .byte   N11 ,Fn1 ,v064
 .byte   W12
 .byte   N56
 .byte   W60
 .byte   N23 ,Ds1
 .byte   W24
@  #07 @024   ----------------------------------------
 .byte   As1
 .byte   W24
 .byte   Ds1
 .byte   W24
 .byte   PEND 
Label_0142D58B:
 .byte   N11 ,Fn1 ,v064
 .byte   W12
 .byte   N56
 .byte   W60
@  #07 @025   ----------------------------------------
 .byte   N68 ,Ds1
 .byte   W72
 .byte   PEND 
Label_0142D595:
 .byte   N68 ,Cs1 ,v064
 .byte   W72
@  #07 @026   ----------------------------------------
 .byte   N23 ,Ds1
 .byte   W24
 .byte   As1
 .byte   W24
 .byte   Ds1
 .byte   W24
 .byte   PEND 
 .byte   W96
@  #07 @027   ----------------------------------------
 .byte   W48
 .byte   W96
@  #07 @028   ----------------------------------------
 .byte   W48
 .byte   W96
@  #07 @029   ----------------------------------------
 .byte   W48
Label_0142D5A7:
 .byte   W96
@  #07 @030   ----------------------------------------
 .byte   W12
 .byte   N11 ,En1 ,v064
 .byte   W12
 .byte   Fn1
 .byte   W12
 .byte   Gn1
 .byte   W12
 .byte   PEND 
 .byte   W96
@  #07 @031   ----------------------------------------
 .byte   W48
 .byte   W96
@  #07 @032   ----------------------------------------
 .byte   W48
 .byte   W96
@  #07 @033   ----------------------------------------
 .byte   W48
@  #07 @034   ----------------------------------------
 .byte   PATT
  .word Label_0142D5A7
@  #07 @035   ----------------------------------------
 .byte   W96
@  #07 @036   ----------------------------------------
 .byte   W48
 .byte   W96
@  #07 @037   ----------------------------------------
 .byte   W48
 .byte   W96
@  #07 @038   ----------------------------------------
 .byte   W48
 .byte   W96
@  #07 @039   ----------------------------------------
 .byte   W48
 .byte   W96
@  #07 @040   ----------------------------------------
 .byte   W48
 .byte   W96
@  #07 @041   ----------------------------------------
 .byte   W48
 .byte   W96
@  #07 @042   ----------------------------------------
 .byte   W48
 .byte   W96
@  #07 @043   ----------------------------------------
 .byte   W48
 .byte   W96
@  #07 @044   ----------------------------------------
 .byte   W48
 .byte   W96
@  #07 @045   ----------------------------------------
 .byte   W48
 .byte   W96
@  #07 @046   ----------------------------------------
 .byte   W48
 .byte   W96
@  #07 @047   ----------------------------------------
 .byte   W48
 .byte   W96
@  #07 @048   ----------------------------------------
 .byte   W48
 .byte   W96
@  #07 @049   ----------------------------------------
 .byte   W48
 .byte   W96
@  #07 @050   ----------------------------------------
 .byte   W48
 .byte   W96
@  #07 @051   ----------------------------------------
 .byte   W48
 .byte   W96
@  #07 @052   ----------------------------------------
 .byte   W48
 .byte   W96
@  #07 @053   ----------------------------------------
 .byte   W48
Label_0142D5E1:
 .byte   W72
@  #07 @054   ----------------------------------------
 .byte   N32 ,Cs1 ,v064
 .byte   W36
 .byte   Cn1
 .byte   W36
 .byte   PEND 
 .byte   W96
@  #07 @055   ----------------------------------------
 .byte   W48
 .byte   W96
@  #07 @056   ----------------------------------------
 .byte   W48
 .byte   W96
@  #07 @057   ----------------------------------------
 .byte   W48
 .byte   W96
@  #07 @058   ----------------------------------------
 .byte   W48
 .byte   W96
@  #07 @059   ----------------------------------------
 .byte   W48
 .byte   W96
@  #07 @060   ----------------------------------------
 .byte   W48
 .byte   N11 ,Fn1 ,v080
 .byte   W12
 .byte   N05
 .byte   W96
@  #07 @061   ----------------------------------------
 .byte   W36
 .byte   GOTO
  .word Label_0142D51B
@  #07 @062   ----------------------------------------
 .byte   PATT
  .word Label_0142D51B
@  #07 @063   ----------------------------------------
 .byte   PATT
  .word Label_0142D51B
@  #07 @064   ----------------------------------------
 .byte   PATT
  .word Label_0142D528
@  #07 @065   ----------------------------------------
 .byte   PATT
  .word Label_0142D51B
@  #07 @066   ----------------------------------------
 .byte   PATT
  .word Label_0142D51B
@  #07 @067   ----------------------------------------
 .byte   PATT
  .word Label_0142D51B
@  #07 @068   ----------------------------------------
 .byte   PATT
  .word Label_0142D528
@  #07 @069   ----------------------------------------
 .byte   W96
@  #07 @070   ----------------------------------------
 .byte   W48
 .byte   W96
@  #07 @071   ----------------------------------------
 .byte   W48
 .byte   W96
@  #07 @072   ----------------------------------------
 .byte   W48
@  #07 @073   ----------------------------------------
 .byte   PATT
  .word Label_0142D549
@  #07 @074   ----------------------------------------
 .byte   W96
@  #07 @075   ----------------------------------------
 .byte   W48
 .byte   W96
@  #07 @076   ----------------------------------------
 .byte   W48
 .byte   W96
@  #07 @077   ----------------------------------------
 .byte   W48
@  #07 @078   ----------------------------------------
 .byte   PATT
  .word Label_0142D549
@  #07 @079   ----------------------------------------
 .byte   PATT
  .word Label_0142D51B
@  #07 @080   ----------------------------------------
 .byte   PATT
  .word Label_0142D51B
@  #07 @081   ----------------------------------------
 .byte   PATT
  .word Label_0142D51B
@  #07 @082   ----------------------------------------
 .byte   PATT
  .word Label_0142D528
@  #07 @083   ----------------------------------------
 .byte   PATT
  .word Label_0142D573
@  #07 @084   ----------------------------------------
 .byte   PATT
  .word Label_0142D57D
@  #07 @085   ----------------------------------------
 .byte   PATT
  .word Label_0142D58B
@  #07 @086   ----------------------------------------
 .byte   PATT
  .word Label_0142D595
@  #07 @087   ----------------------------------------
 .byte   W96
@  #07 @088   ----------------------------------------
 .byte   W48
 .byte   W96
@  #07 @089   ----------------------------------------
 .byte   W48
 .byte   W96
@  #07 @090   ----------------------------------------
 .byte   W48
@  #07 @091   ----------------------------------------
 .byte   PATT
  .word Label_0142D5A7
@  #07 @092   ----------------------------------------
 .byte   W96
@  #07 @093   ----------------------------------------
 .byte   W48
 .byte   W96
@  #07 @094   ----------------------------------------
 .byte   W48
 .byte   W96
@  #07 @095   ----------------------------------------
 .byte   W48
@  #07 @096   ----------------------------------------
 .byte   PATT
  .word Label_0142D5A7
@  #07 @097   ----------------------------------------
 .byte   W96
@  #07 @098   ----------------------------------------
 .byte   W48
 .byte   W96
@  #07 @099   ----------------------------------------
 .byte   W48
 .byte   W96
@  #07 @100   ----------------------------------------
 .byte   W48
 .byte   W96
@  #07 @101   ----------------------------------------
 .byte   W48
 .byte   W96
@  #07 @102   ----------------------------------------
 .byte   W48
 .byte   W96
@  #07 @103   ----------------------------------------
 .byte   W48
 .byte   W96
@  #07 @104   ----------------------------------------
 .byte   W48
 .byte   W96
@  #07 @105   ----------------------------------------
 .byte   W48
 .byte   W96
@  #07 @106   ----------------------------------------
 .byte   W48
 .byte   W96
@  #07 @107   ----------------------------------------
 .byte   W48
 .byte   W96
@  #07 @108   ----------------------------------------
 .byte   W48
 .byte   W96
@  #07 @109   ----------------------------------------
 .byte   W48
 .byte   W96
@  #07 @110   ----------------------------------------
 .byte   W48
 .byte   W96
@  #07 @111   ----------------------------------------
 .byte   W48
 .byte   W96
@  #07 @112   ----------------------------------------
 .byte   W48
 .byte   W96
@  #07 @113   ----------------------------------------
 .byte   W48
 .byte   W96
@  #07 @114   ----------------------------------------
 .byte   W48
 .byte   W96
@  #07 @115   ----------------------------------------
 .byte   W48
@  #07 @116   ----------------------------------------
 .byte   PATT
  .word Label_0142D5E1
@  #07 @117   ----------------------------------------
 .byte   W96
@  #07 @118   ----------------------------------------
 .byte   W48
 .byte   W96
@  #07 @119   ----------------------------------------
 .byte   W48
 .byte   W96
@  #07 @120   ----------------------------------------
 .byte   W48
 .byte   W96
@  #07 @121   ----------------------------------------
 .byte   W48
 .byte   W96
@  #07 @122   ----------------------------------------
 .byte   W48
 .byte   W96
@  #07 @123   ----------------------------------------
 .byte   W44
 .byte   W03
 .byte   FINE

@**************** Track 8 (Midi-Chn.7) ****************@

song04_008:
@  #08 @000   ----------------------------------------
 .byte   KEYSH , song04_key+0
 .byte   VOICE , 63
 .byte   VOL , 40*song04_mvl/mxv
 .byte   PAN , c_v+0
 .byte   N23 ,Gs2 ,v064
 .byte   N23 ,Fn3
 .byte   W96
@  #08 @001   ----------------------------------------
 .byte   W48
Label_0142D6CF:
 .byte   N23 ,Gs2 ,v064
 .byte   N23 ,Fn3
 .byte   W96
@  #08 @002   ----------------------------------------
 .byte   W48
 .byte   PEND 
@  #08 @003   ----------------------------------------
 .byte   PATT
  .word Label_0142D6CF
@  #08 @004   ----------------------------------------
Label_0142D6DC:
 .byte   N23 ,Gs2 ,v064
 .byte   N23 ,Cs3
 .byte   N23 ,Fn3
 .byte   W96
@  #08 @005   ----------------------------------------
 .byte   W12
 .byte   N32 ,Cn3 ,v112
 .byte   W36
 .byte   PEND 
Label_0142D6EA:
 .byte   N92 ,Fn3 ,v112
 .byte   W96
@  #08 @006   ----------------------------------------
 .byte   N23
 .byte   W24
 .byte   Gn3
 .byte   W24
 .byte   PEND 
Label_0142D6F3:
 .byte   N23 ,Gs3 ,v112
 .byte   W24
 .byte   N11 ,Fn3
 .byte   W12
 .byte   N44 ,Cn3
 .byte   W84
@  #08 @007   ----------------------------------------
 .byte   N23
 .byte   W24
 .byte   PEND 
Label_0142D700:
 .byte   N23 ,As3 ,v112
 .byte   W24
 .byte   N11 ,Gn3
 .byte   W12
 .byte   N44 ,Ds3
 .byte   W72
@  #08 @008   ----------------------------------------
 .byte   N32 ,As2
 .byte   W36
 .byte   PEND 
Label_0142D70E:
 .byte   N68 ,Fn3 ,v112
 .byte   W72
@  #08 @009   ----------------------------------------
 .byte   Gn3
 .byte   W72
 .byte   PEND 
 .byte   W96
@  #08 @010   ----------------------------------------
 .byte   W48
 .byte   W96
@  #08 @011   ----------------------------------------
 .byte   W48
 .byte   W96
@  #08 @012   ----------------------------------------
 .byte   W48
 .byte   W96
@  #08 @013   ----------------------------------------
 .byte   W48
Label_0142D71D:
 .byte   N68 ,Gs2 ,v080
 .byte   W72
@  #08 @014   ----------------------------------------
 .byte   As2
 .byte   W72
 .byte   PEND 
Label_0142D724:
 .byte   N32 ,Cn3 ,v080
 .byte   W36
@  #08 @015   ----------------------------------------
 .byte   Gs2
 .byte   W36
 .byte   N68 ,Fn3
 .byte   W72
 .byte   PEND 
@  #08 @016   ----------------------------------------
Label_0142D72E:
 .byte   N68 ,Gn3 ,v080
 .byte   W72
 .byte   N32 ,Fn3
 .byte   W36
@  #08 @017   ----------------------------------------
 .byte   Dn3
 .byte   W36
 .byte   PEND 
Label_0142D738:
 .byte   N68 ,Cn3 ,v080
 .byte   W96
@  #08 @018   ----------------------------------------
 .byte   W48
 .byte   PEND 
@  #08 @019   ----------------------------------------
 .byte   PATT
  .word Label_0142D6CF
@  #08 @020   ----------------------------------------
 .byte   PATT
  .word Label_0142D6CF
@  #08 @021   ----------------------------------------
 .byte   PATT
  .word Label_0142D6CF
@  #08 @022   ----------------------------------------
Label_0142D74D:
 .byte   N23 ,Gs2 ,v064
 .byte   N23 ,Cs3
 .byte   W96
@  #08 @023   ----------------------------------------
 .byte   W12
 .byte   N32 ,Cn3 ,v112
 .byte   W36
 .byte   PEND 
Label_0142D759:
 .byte   N92 ,Fn3 ,v112
 .byte   N23 ,Gs2 ,v064
 .byte   N23 ,Fn3
 .byte   W96
@  #08 @024   ----------------------------------------
 .byte   Fn3 ,v112
 .byte   W24
 .byte   Gn3
 .byte   W24
 .byte   PEND 
Label_0142D768:
 .byte   N23 ,Gs3 ,v112
 .byte   N23 ,Gs2 ,v064
 .byte   N23 ,Fn3
 .byte   W24
 .byte   N11 ,Fn3 ,v112
 .byte   W12
 .byte   N44 ,Cn3
 .byte   W84
@  #08 @025   ----------------------------------------
 .byte   N23
 .byte   W24
 .byte   PEND 
Label_0142D77B:
 .byte   N23 ,As3 ,v112
 .byte   N23 ,Gs2 ,v064
 .byte   N23 ,Fn3
 .byte   W24
 .byte   N11 ,Gn3 ,v112
 .byte   W12
 .byte   N44 ,Ds3
 .byte   W72
@  #08 @026   ----------------------------------------
 .byte   N32 ,As2
 .byte   W36
 .byte   PEND 
Label_0142D78F:
 .byte   N68 ,Fn3 ,v112
 .byte   N23 ,Gs2 ,v064
 .byte   N23 ,Fn3
 .byte   W72
@  #08 @027   ----------------------------------------
 .byte   N68 ,Gn3 ,v112
 .byte   W72
 .byte   PEND 
 .byte   W96
@  #08 @028   ----------------------------------------
 .byte   W48
 .byte   W96
@  #08 @029   ----------------------------------------
 .byte   W48
 .byte   W96
@  #08 @030   ----------------------------------------
 .byte   W48
 .byte   W96
@  #08 @031   ----------------------------------------
 .byte   W48
@  #08 @032   ----------------------------------------
 .byte   PATT
  .word Label_0142D71D
@  #08 @033   ----------------------------------------
 .byte   PATT
  .word Label_0142D724
@  #08 @034   ----------------------------------------
 .byte   PATT
  .word Label_0142D72E
@  #08 @035   ----------------------------------------
 .byte   PATT
  .word Label_0142D738
@  #08 @036   ----------------------------------------
 .byte   W96
@  #08 @037   ----------------------------------------
 .byte   W48
 .byte   W96
@  #08 @038   ----------------------------------------
 .byte   W48
 .byte   W96
@  #08 @039   ----------------------------------------
 .byte   W48
 .byte   W96
@  #08 @040   ----------------------------------------
 .byte   W48
 .byte   W96
@  #08 @041   ----------------------------------------
 .byte   W48
 .byte   W96
@  #08 @042   ----------------------------------------
 .byte   W48
 .byte   W96
@  #08 @043   ----------------------------------------
 .byte   W48
 .byte   W96
@  #08 @044   ----------------------------------------
 .byte   W48
 .byte   W96
@  #08 @045   ----------------------------------------
 .byte   W48
Label_0142D7CB:
 .byte   W12
 .byte   N11 ,Gs2 ,v080
 .byte   W12
 .byte   Cs3
 .byte   W12
 .byte   En3
 .byte   W12
@  #08 @046   ----------------------------------------
 .byte   Gs2
 .byte   W12
 .byte   En3
 .byte   W12
 .byte   N32 ,Gs3
 .byte   W36
 .byte   Fs3
 .byte   W36
 .byte   PEND 
@  #08 @047   ----------------------------------------
 .byte   W96
@  #08 @048   ----------------------------------------
 .byte   W48
Label_0142D7E0:
 .byte   N68 ,Fs3 ,v080
 .byte   W72
@  #08 @049   ----------------------------------------
 .byte   N32 ,Bn3
 .byte   W36
 .byte   An3
 .byte   W36
 .byte   PEND 
Label_0142D7EA:
 .byte   N68 ,Gs3 ,v080
 .byte   W72
@  #08 @050   ----------------------------------------
 .byte   Fs3
 .byte   W72
 .byte   PEND 
Label_0142D7F1:
 .byte   W12
 .byte   N11 ,Gs2 ,v080
 .byte   W12
@  #08 @051   ----------------------------------------
 .byte   Cs3
 .byte   W12
 .byte   En3
 .byte   W12
 .byte   Gs2
 .byte   W12
 .byte   Cs3
 .byte   W12
 .byte   N68 ,Gs3
 .byte   W72
 .byte   PEND 
@  #08 @052   ----------------------------------------
Label_0142D802:
 .byte   W12
 .byte   N11 ,An2 ,v080
 .byte   W12
 .byte   Cs3
 .byte   W12
 .byte   En3
 .byte   W12
 .byte   An2
 .byte   W12
 .byte   Cs3
 .byte   W12
 .byte   N68 ,An3
 .byte   W72
 .byte   PEND 
@  #08 @053   ----------------------------------------
Label_0142D813:
 .byte   W12
 .byte   N11 ,Bn2 ,v080
 .byte   W12
 .byte   Ds3
 .byte   W12
 .byte   Fs3
 .byte   W12
 .byte   Ds3
 .byte   W12
 .byte   Bn2
 .byte   W12
 .byte   N68 ,Fs3
 .byte   W72
 .byte   PEND 
@  #08 @054   ----------------------------------------
 .byte   W96
@  #08 @055   ----------------------------------------
 .byte   W48
 .byte   W96
@  #08 @056   ----------------------------------------
 .byte   W48
 .byte   W96
@  #08 @057   ----------------------------------------
 .byte   W48
 .byte   W96
@  #08 @058   ----------------------------------------
 .byte   W48
 .byte   W96
@  #08 @059   ----------------------------------------
 .byte   W48
 .byte   W96
@  #08 @060   ----------------------------------------
 .byte   W48
 .byte   W96
@  #08 @061   ----------------------------------------
 .byte   W48
 .byte   W96
@  #08 @062   ----------------------------------------
 .byte   W48
 .byte   W96
@  #08 @063   ----------------------------------------
 .byte   W48
@  #08 @064   ----------------------------------------
 .byte   PATT
  .word Label_0142D6CF
@  #08 @065   ----------------------------------------
 .byte   GOTO
  .word Label_0142D6CF
@  #08 @066   ----------------------------------------
 .byte   PATT
  .word Label_0142D6CF
@  #08 @067   ----------------------------------------
 .byte   PATT
  .word Label_0142D6CF
@  #08 @068   ----------------------------------------
 .byte   PATT
  .word Label_0142D6DC
@  #08 @069   ----------------------------------------
 .byte   PATT
  .word Label_0142D6EA
@  #08 @070   ----------------------------------------
 .byte   PATT
  .word Label_0142D6F3
@  #08 @071   ----------------------------------------
 .byte   PATT
  .word Label_0142D700
@  #08 @072   ----------------------------------------
 .byte   PATT
  .word Label_0142D70E
@  #08 @073   ----------------------------------------
 .byte   W96
@  #08 @074   ----------------------------------------
 .byte   W48
 .byte   W96
@  #08 @075   ----------------------------------------
 .byte   W48
 .byte   W96
@  #08 @076   ----------------------------------------
 .byte   W48
 .byte   W96
@  #08 @077   ----------------------------------------
 .byte   W48
@  #08 @078   ----------------------------------------
 .byte   PATT
  .word Label_0142D71D
@  #08 @079   ----------------------------------------
 .byte   PATT
  .word Label_0142D724
@  #08 @080   ----------------------------------------
 .byte   PATT
  .word Label_0142D72E
@  #08 @081   ----------------------------------------
 .byte   PATT
  .word Label_0142D738
@  #08 @082   ----------------------------------------
 .byte   PATT
  .word Label_0142D6CF
@  #08 @083   ----------------------------------------
 .byte   PATT
  .word Label_0142D6CF
@  #08 @084   ----------------------------------------
 .byte   PATT
  .word Label_0142D6CF
@  #08 @085   ----------------------------------------
 .byte   PATT
  .word Label_0142D74D
@  #08 @086   ----------------------------------------
 .byte   PATT
  .word Label_0142D759
@  #08 @087   ----------------------------------------
 .byte   PATT
  .word Label_0142D768
@  #08 @088   ----------------------------------------
 .byte   PATT
  .word Label_0142D77B
@  #08 @089   ----------------------------------------
 .byte   PATT
  .word Label_0142D78F
@  #08 @090   ----------------------------------------
 .byte   W96
@  #08 @091   ----------------------------------------
 .byte   W48
 .byte   W96
@  #08 @092   ----------------------------------------
 .byte   W48
 .byte   W96
@  #08 @093   ----------------------------------------
 .byte   W48
 .byte   W96
@  #08 @094   ----------------------------------------
 .byte   W48
@  #08 @095   ----------------------------------------
 .byte   PATT
  .word Label_0142D71D
@  #08 @096   ----------------------------------------
 .byte   PATT
  .word Label_0142D724
@  #08 @097   ----------------------------------------
 .byte   PATT
  .word Label_0142D72E
@  #08 @098   ----------------------------------------
 .byte   PATT
  .word Label_0142D738
@  #08 @099   ----------------------------------------
 .byte   W96
@  #08 @100   ----------------------------------------
 .byte   W48
 .byte   W96
@  #08 @101   ----------------------------------------
 .byte   W48
 .byte   W96
@  #08 @102   ----------------------------------------
 .byte   W48
 .byte   W96
@  #08 @103   ----------------------------------------
 .byte   W48
 .byte   W96
@  #08 @104   ----------------------------------------
 .byte   W48
 .byte   W96
@  #08 @105   ----------------------------------------
 .byte   W48
 .byte   W96
@  #08 @106   ----------------------------------------
 .byte   W48
 .byte   W96
@  #08 @107   ----------------------------------------
 .byte   W48
 .byte   W96
@  #08 @108   ----------------------------------------
 .byte   W48
@  #08 @109   ----------------------------------------
 .byte   PATT
  .word Label_0142D7CB
@  #08 @110   ----------------------------------------
 .byte   W96
@  #08 @111   ----------------------------------------
 .byte   W48
@  #08 @112   ----------------------------------------
 .byte   PATT
  .word Label_0142D7E0
@  #08 @113   ----------------------------------------
 .byte   PATT
  .word Label_0142D7EA
@  #08 @114   ----------------------------------------
 .byte   PATT
  .word Label_0142D7F1
@  #08 @115   ----------------------------------------
 .byte   PATT
  .word Label_0142D802
@  #08 @116   ----------------------------------------
 .byte   PATT
  .word Label_0142D813
@  #08 @117   ----------------------------------------
 .byte   W96
@  #08 @118   ----------------------------------------
 .byte   W48
 .byte   W96
@  #08 @119   ----------------------------------------
 .byte   W48
 .byte   W96
@  #08 @120   ----------------------------------------
 .byte   W48
 .byte   W96
@  #08 @121   ----------------------------------------
 .byte   W48
 .byte   W96
@  #08 @122   ----------------------------------------
 .byte   W48
 .byte   W96
@  #08 @123   ----------------------------------------
 .byte   W48
 .byte   W96
@  #08 @124   ----------------------------------------
 .byte   W48
 .byte   W96
@  #08 @125   ----------------------------------------
 .byte   W48
 .byte   W96
@  #08 @126   ----------------------------------------
 .byte   W44
 .byte   W03
 .byte   FINE

@**************** Track 9 (Midi-Chn.8) ****************@

song04_009:
@  #09 @000   ----------------------------------------
 .byte   KEYSH , song04_key+0
 .byte   VOICE , 112
 .byte   VOL , 40*song04_mvl/mxv
 .byte   PAN , c_v+0
 .byte   W96
@  #09 @001   ----------------------------------------
 .byte   W48
Label_0142D926:
 .byte   W96
@  #09 @002   ----------------------------------------
 .byte   W48
 .byte   W96
@  #09 @003   ----------------------------------------
 .byte   W48
 .byte   W96
@  #09 @004   ----------------------------------------
 .byte   W48
 .byte   W96
@  #09 @005   ----------------------------------------
 .byte   W48
 .byte   W96
@  #09 @006   ----------------------------------------
 .byte   W48
 .byte   W96
@  #09 @007   ----------------------------------------
 .byte   W48
 .byte   W96
@  #09 @008   ----------------------------------------
 .byte   W48
 .byte   W96
@  #09 @009   ----------------------------------------
 .byte   W48
 .byte   W96
@  #09 @010   ----------------------------------------
 .byte   W48
 .byte   W96
@  #09 @011   ----------------------------------------
 .byte   W48
 .byte   W96
@  #09 @012   ----------------------------------------
 .byte   W48
 .byte   W96
@  #09 @013   ----------------------------------------
 .byte   W48
 .byte   W96
@  #09 @014   ----------------------------------------
 .byte   W48
 .byte   W96
@  #09 @015   ----------------------------------------
 .byte   W48
 .byte   W96
@  #09 @016   ----------------------------------------
 .byte   W48
Label_0142D944:
 .byte   N32 ,Gs2 ,v052
 .byte   N32 ,Fn3
 .byte   W96
@  #09 @017   ----------------------------------------
 .byte   W48
 .byte   PEND 
@  #09 @018   ----------------------------------------
 .byte   PATT
  .word Label_0142D944
@  #09 @019   ----------------------------------------
 .byte   PATT
  .word Label_0142D944
@  #09 @020   ----------------------------------------
Label_0142D956:
 .byte   N32 ,Gs2 ,v064
 .byte   N32 ,Cs3
 .byte   W72
 .byte   Gs2
 .byte   N32 ,Ds3
 .byte   W72
 .byte   PEND 
@  #09 @021   ----------------------------------------
Label_0142D961:
 .byte   N32 ,Gs2 ,v064
 .byte   N32 ,Fn3
 .byte   W96
@  #09 @022   ----------------------------------------
 .byte   W48
 .byte   PEND 
@  #09 @023   ----------------------------------------
 .byte   PATT
  .word Label_0142D961
@  #09 @024   ----------------------------------------
 .byte   PATT
  .word Label_0142D961
@  #09 @025   ----------------------------------------
 .byte   PATT
  .word Label_0142D956
@  #09 @026   ----------------------------------------
 .byte   W96
@  #09 @027   ----------------------------------------
 .byte   W48
 .byte   W96
@  #09 @028   ----------------------------------------
 .byte   W48
 .byte   W96
@  #09 @029   ----------------------------------------
 .byte   W48
 .byte   W96
@  #09 @030   ----------------------------------------
 .byte   W48
 .byte   W96
@  #09 @031   ----------------------------------------
 .byte   W48
 .byte   W96
@  #09 @032   ----------------------------------------
 .byte   W48
 .byte   W96
@  #09 @033   ----------------------------------------
 .byte   W48
 .byte   W96
@  #09 @034   ----------------------------------------
 .byte   W48
 .byte   W96
@  #09 @035   ----------------------------------------
 .byte   W48
 .byte   W96
@  #09 @036   ----------------------------------------
 .byte   W48
 .byte   W96
@  #09 @037   ----------------------------------------
 .byte   W48
 .byte   W96
@  #09 @038   ----------------------------------------
 .byte   W48
 .byte   W96
@  #09 @039   ----------------------------------------
 .byte   W48
 .byte   W96
@  #09 @040   ----------------------------------------
 .byte   W48
 .byte   W96
@  #09 @041   ----------------------------------------
 .byte   W48
 .byte   W96
@  #09 @042   ----------------------------------------
 .byte   W48
 .byte   W96
@  #09 @043   ----------------------------------------
 .byte   W48
 .byte   W96
@  #09 @044   ----------------------------------------
 .byte   W48
 .byte   W96
@  #09 @045   ----------------------------------------
 .byte   W48
 .byte   W96
@  #09 @046   ----------------------------------------
 .byte   W48
 .byte   W96
@  #09 @047   ----------------------------------------
 .byte   W48
 .byte   W96
@  #09 @048   ----------------------------------------
 .byte   W48
 .byte   W96
@  #09 @049   ----------------------------------------
 .byte   W48
 .byte   W96
@  #09 @050   ----------------------------------------
 .byte   W48
 .byte   W96
@  #09 @051   ----------------------------------------
 .byte   W48
 .byte   W96
@  #09 @052   ----------------------------------------
 .byte   W48
 .byte   W96
@  #09 @053   ----------------------------------------
 .byte   W48
 .byte   W96
@  #09 @054   ----------------------------------------
 .byte   W48
 .byte   W96
@  #09 @055   ----------------------------------------
 .byte   W48
 .byte   W96
@  #09 @056   ----------------------------------------
 .byte   W48
 .byte   W96
@  #09 @057   ----------------------------------------
 .byte   W48
 .byte   W96
@  #09 @058   ----------------------------------------
 .byte   W48
 .byte   W96
@  #09 @059   ----------------------------------------
 .byte   W48
 .byte   W96
@  #09 @060   ----------------------------------------
 .byte   W48
 .byte   GOTO
  .word Label_0142D926
@  #09 @061   ----------------------------------------
 .byte   W96
@  #09 @062   ----------------------------------------
 .byte   W48
 .byte   W96
@  #09 @063   ----------------------------------------
 .byte   W48
 .byte   W96
@  #09 @064   ----------------------------------------
 .byte   W48
 .byte   W96
@  #09 @065   ----------------------------------------
 .byte   W48
 .byte   W96
@  #09 @066   ----------------------------------------
 .byte   W48
 .byte   W96
@  #09 @067   ----------------------------------------
 .byte   W48
 .byte   W96
@  #09 @068   ----------------------------------------
 .byte   W48
 .byte   W96
@  #09 @069   ----------------------------------------
 .byte   W48
 .byte   W96
@  #09 @070   ----------------------------------------
 .byte   W48
 .byte   W96
@  #09 @071   ----------------------------------------
 .byte   W48
 .byte   W96
@  #09 @072   ----------------------------------------
 .byte   W48
 .byte   W96
@  #09 @073   ----------------------------------------
 .byte   W48
 .byte   W96
@  #09 @074   ----------------------------------------
 .byte   W48
 .byte   W96
@  #09 @075   ----------------------------------------
 .byte   W48
 .byte   W96
@  #09 @076   ----------------------------------------
 .byte   W48
@  #09 @077   ----------------------------------------
 .byte   PATT
  .word Label_0142D944
@  #09 @078   ----------------------------------------
 .byte   PATT
  .word Label_0142D944
@  #09 @079   ----------------------------------------
 .byte   PATT
  .word Label_0142D944
@  #09 @080   ----------------------------------------
 .byte   PATT
  .word Label_0142D956
@  #09 @081   ----------------------------------------
 .byte   PATT
  .word Label_0142D961
@  #09 @082   ----------------------------------------
 .byte   PATT
  .word Label_0142D961
@  #09 @083   ----------------------------------------
 .byte   PATT
  .word Label_0142D961
@  #09 @084   ----------------------------------------
 .byte   PATT
  .word Label_0142D956
@  #09 @085   ----------------------------------------
 .byte   W96
@  #09 @086   ----------------------------------------
 .byte   W48
 .byte   W96
@  #09 @087   ----------------------------------------
 .byte   W48
 .byte   W96
@  #09 @088   ----------------------------------------
 .byte   W48
 .byte   W96
@  #09 @089   ----------------------------------------
 .byte   W48
 .byte   W96
@  #09 @090   ----------------------------------------
 .byte   W48
 .byte   W96
@  #09 @091   ----------------------------------------
 .byte   W48
 .byte   W96
@  #09 @092   ----------------------------------------
 .byte   W48
 .byte   W96
@  #09 @093   ----------------------------------------
 .byte   W48
 .byte   W96
@  #09 @094   ----------------------------------------
 .byte   W48
 .byte   W96
@  #09 @095   ----------------------------------------
 .byte   W48
 .byte   W96
@  #09 @096   ----------------------------------------
 .byte   W48
 .byte   W96
@  #09 @097   ----------------------------------------
 .byte   W48
 .byte   W96
@  #09 @098   ----------------------------------------
 .byte   W48
 .byte   W96
@  #09 @099   ----------------------------------------
 .byte   W48
 .byte   W96
@  #09 @100   ----------------------------------------
 .byte   W48
 .byte   W96
@  #09 @101   ----------------------------------------
 .byte   W48
 .byte   W96
@  #09 @102   ----------------------------------------
 .byte   W48
 .byte   W96
@  #09 @103   ----------------------------------------
 .byte   W48
 .byte   W96
@  #09 @104   ----------------------------------------
 .byte   W48
 .byte   W96
@  #09 @105   ----------------------------------------
 .byte   W48
 .byte   W96
@  #09 @106   ----------------------------------------
 .byte   W48
 .byte   W96
@  #09 @107   ----------------------------------------
 .byte   W48
 .byte   W96
@  #09 @108   ----------------------------------------
 .byte   W48
 .byte   W96
@  #09 @109   ----------------------------------------
 .byte   W48
 .byte   W96
@  #09 @110   ----------------------------------------
 .byte   W48
 .byte   W96
@  #09 @111   ----------------------------------------
 .byte   W48
 .byte   W96
@  #09 @112   ----------------------------------------
 .byte   W48
 .byte   W96
@  #09 @113   ----------------------------------------
 .byte   W48
 .byte   W96
@  #09 @114   ----------------------------------------
 .byte   W48
 .byte   W96
@  #09 @115   ----------------------------------------
 .byte   W48
 .byte   W96
@  #09 @116   ----------------------------------------
 .byte   W48
 .byte   W96
@  #09 @117   ----------------------------------------
 .byte   W48
 .byte   W96
@  #09 @118   ----------------------------------------
 .byte   W44
 .byte   W03
 .byte   FINE

@**************** Track 10 (Midi-Chn.9) ****************@

song04_010:
@  #10 @000   ----------------------------------------
 .byte   KEYSH , song04_key+0
 .byte   VOICE , 49
 .byte   VOL , 40*song04_mvl/mxv
 .byte   PAN , c_v+0
 .byte   N07 ,Fn3 ,v112
 .byte   W96
@  #10 @001   ----------------------------------------
 .byte   W12
 .byte   N07
 .byte   W12
 .byte   Gn3
 .byte   W12
 .byte   Gs3
 .byte   W12
Label_0142DA6F:
 .byte   N07 ,Fn3 ,v112
 .byte   W96
@  #10 @002   ----------------------------------------
 .byte   Gs3
 .byte   W12
 .byte   Gn3
 .byte   W12
 .byte   Ds3
 .byte   W12
 .byte   As2
 .byte   W12
 .byte   PEND 
Label_0142DA7C:
 .byte   N07 ,Fn3 ,v112
 .byte   W96
@  #10 @003   ----------------------------------------
 .byte   W12
 .byte   N07
 .byte   W12
 .byte   Gn3
 .byte   W12
 .byte   Gs3
 .byte   W12
 .byte   PEND 
Label_0142DA88:
 .byte   N07 ,Fn3 ,v112
 .byte   W36
 .byte   N07
 .byte   W12
@  #10 @004   ----------------------------------------
 .byte   Ds3
 .byte   W12
 .byte   Fn3
 .byte   W12
 .byte   Gs3
 .byte   W12
 .byte   Gn3
 .byte   W12
 .byte   Cs4
 .byte   W12
 .byte   Cn4
 .byte   W12
 .byte   Gn3
 .byte   W12
 .byte   Ds3
 .byte   W12
 .byte   PEND 
@  #10 @005   ----------------------------------------
Label_0142DA9F:
 .byte   N07 ,Fn3 ,v096
 .byte   W96
@  #10 @006   ----------------------------------------
 .byte   W12
 .byte   Ds3
 .byte   W12
 .byte   Cn3
 .byte   W12
 .byte   Ds3
 .byte   W12
 .byte   PEND 
Label_0142DAAB:
 .byte   N07 ,Fn3 ,v096
 .byte   W96
@  #10 @007   ----------------------------------------
 .byte   Gs3
 .byte   W12
 .byte   Gn3
 .byte   W12
 .byte   Ds3
 .byte   W12
 .byte   As2
 .byte   W12
 .byte   PEND 
Label_0142DAB8:
 .byte   N07 ,Fn3 ,v096
 .byte   W96
@  #10 @008   ----------------------------------------
 .byte   W12
 .byte   N07
 .byte   W12
 .byte   Gn3
 .byte   W12
 .byte   Gs3
 .byte   W12
 .byte   PEND 
Label_0142DAC4:
 .byte   N07 ,Fn3 ,v096
 .byte   W36
 .byte   N07
 .byte   W12
@  #10 @009   ----------------------------------------
 .byte   Ds3
 .byte   W12
 .byte   Fn3
 .byte   W12
 .byte   Gs3
 .byte   W12
 .byte   Gn3
 .byte   W12
 .byte   Cs4
 .byte   W12
 .byte   Cn4
 .byte   W12
 .byte   Gn3
 .byte   W12
 .byte   Ds3
 .byte   W12
 .byte   PEND 
@  #10 @010   ----------------------------------------
Label_0142DADB:
 .byte   N68 ,Cn4 ,v064
 .byte   W72
 .byte   As3
 .byte   W72
 .byte   PEND 
@  #10 @011   ----------------------------------------
Label_0142DAE2:
 .byte   N68 ,Cn4 ,v064
 .byte   W72
 .byte   Fn4
 .byte   W72
 .byte   PEND 
@  #10 @012   ----------------------------------------
Label_0142DAE9:
 .byte   N68 ,Gn4 ,v064
 .byte   W72
 .byte   N32 ,Fn4
 .byte   W36
@  #10 @013   ----------------------------------------
 .byte   Dn4
 .byte   W36
 .byte   PEND 
Label_0142DAF3:
 .byte   N68 ,Cn4 ,v064
 .byte   W96
@  #10 @014   ----------------------------------------
 .byte   W12
 .byte   N11 ,En3
 .byte   W12
 .byte   Fn3
 .byte   W12
 .byte   Gn3
 .byte   W12
 .byte   PEND 
Label_0142DB00:
 .byte   W96
@  #10 @015   ----------------------------------------
 .byte   W12
 .byte   N23 ,Fn3 ,v112
 .byte   W24
 .byte   N11 ,Gn3
 .byte   W12
 .byte   PEND 
Label_0142DB0A:
 .byte   N68 ,Gs3 ,v112
 .byte   W96
@  #10 @016   ----------------------------------------
 .byte   W12
 .byte   N11
 .byte   W12
 .byte   As3
 .byte   W12
 .byte   Gs3
 .byte   W12
 .byte   PEND 
Label_0142DB16:
 .byte   N68 ,Ds4 ,v112
 .byte   W72
@  #10 @017   ----------------------------------------
 .byte   N32 ,Dn4
 .byte   W36
 .byte   As3
 .byte   W36
 .byte   PEND 
Label_0142DB20:
 .byte   N68 ,Cn4 ,v112
 .byte   W96
@  #10 @018   ----------------------------------------
 .byte   W12
 .byte   N07 ,En3
 .byte   W12
 .byte   Fn3
 .byte   W12
 .byte   Gn3
 .byte   W12
 .byte   PEND 
@  #10 @019   ----------------------------------------
 .byte   PATT
  .word Label_0142DA7C
@  #10 @020   ----------------------------------------
 .byte   PATT
  .word Label_0142DA6F
@  #10 @021   ----------------------------------------
 .byte   PATT
  .word Label_0142DA7C
@  #10 @022   ----------------------------------------
 .byte   PATT
  .word Label_0142DA88
@  #10 @023   ----------------------------------------
Label_0142DB41:
 .byte   W96
@  #10 @024   ----------------------------------------
 .byte   W48
 .byte   PEND 
 .byte   W96
@  #10 @025   ----------------------------------------
 .byte   W48
 .byte   W96
@  #10 @026   ----------------------------------------
 .byte   W48
Label_0142DB48:
 .byte   N68 ,Fn5 ,v052
 .byte   W72
@  #10 @027   ----------------------------------------
 .byte   Ds5
 .byte   W72
 .byte   PEND 
@  #10 @028   ----------------------------------------
 .byte   PATT
  .word Label_0142DADB
@  #10 @029   ----------------------------------------
 .byte   PATT
  .word Label_0142DAE2
@  #10 @030   ----------------------------------------
 .byte   PATT
  .word Label_0142DAE9
@  #10 @031   ----------------------------------------
 .byte   PATT
  .word Label_0142DAF3
@  #10 @032   ----------------------------------------
 .byte   PATT
  .word Label_0142DB00
@  #10 @033   ----------------------------------------
 .byte   PATT
  .word Label_0142DB0A
@  #10 @034   ----------------------------------------
 .byte   PATT
  .word Label_0142DB16
@  #10 @035   ----------------------------------------
 .byte   PATT
  .word Label_0142DB20
@  #10 @036   ----------------------------------------
 .byte   W96
@  #10 @037   ----------------------------------------
 .byte   W48
Label_0142DB79:
 .byte   N68 ,Cn3 ,v112
 .byte   W96
@  #10 @038   ----------------------------------------
 .byte   N11
 .byte   W12
 .byte   N23 ,Gn3
 .byte   W24
 .byte   N11 ,Cn3
 .byte   W12
 .byte   PEND 
Label_0142DB86:
 .byte   N68 ,Gs3 ,v112
 .byte   W96
@  #10 @039   ----------------------------------------
 .byte   N11
 .byte   W12
 .byte   N23 ,Gn3
 .byte   W24
 .byte   N11 ,Ds3
 .byte   W12
 .byte   PEND 
Label_0142DB93:
 .byte   N68 ,Cn3 ,v112
 .byte   W96
@  #10 @040   ----------------------------------------
 .byte   W12
 .byte   N32 ,Cn4
 .byte   W36
 .byte   PEND 
Label_0142DB9C:
 .byte   N68 ,Cs4 ,v112
 .byte   W84
@  #10 @041   ----------------------------------------
 .byte   N11 ,Gs3
 .byte   W12
 .byte   N08 ,Cs4
 .byte   W09
 .byte   N17 ,Ds4
 .byte   W18
 .byte   N08 ,Cs4
 .byte   W09
 .byte   N11 ,Ds4
 .byte   W12
 .byte   PEND 
Label_0142DBB0:
 .byte   N32 ,En4 ,v112
 .byte   W54
@  #10 @042   ----------------------------------------
 .byte   N17 ,Cs4
 .byte   W18
 .byte   N32 ,Gs4
 .byte   W54
 .byte   N17 ,En4
 .byte   W18
 .byte   PEND 
Label_0142DBBE:
 .byte   N68 ,Bn4 ,v112
 .byte   W96
@  #10 @043   ----------------------------------------
 .byte   N11
 .byte   W12
 .byte   N23 ,An4
 .byte   W24
 .byte   N11 ,Gs4
 .byte   W12
 .byte   PEND 
 .byte   W96
@  #10 @044   ----------------------------------------
 .byte   W48
 .byte   W96
@  #10 @045   ----------------------------------------
 .byte   W48
 .byte   W96
@  #10 @046   ----------------------------------------
 .byte   W48
 .byte   W96
@  #10 @047   ----------------------------------------
 .byte   W48
 .byte   W96
@  #10 @048   ----------------------------------------
 .byte   W48
 .byte   W96
@  #10 @049   ----------------------------------------
 .byte   W48
Label_0142DBD7:
 .byte   W12
 .byte   N11 ,Gs2 ,v064
 .byte   W12
 .byte   Cs3
 .byte   W12
 .byte   En3
 .byte   W12
@  #10 @050   ----------------------------------------
 .byte   Gs2
 .byte   W12
 .byte   Cs3
 .byte   W12
 .byte   N68 ,Gs3
 .byte   W72
 .byte   PEND 
@  #10 @051   ----------------------------------------
Label_0142DBE8:
 .byte   W12
 .byte   N11 ,An2 ,v064
 .byte   W12
 .byte   Cs3
 .byte   W12
 .byte   En3
 .byte   W12
 .byte   An2
 .byte   W12
 .byte   Cs3
 .byte   W12
 .byte   N68 ,An3
 .byte   W72
 .byte   PEND 
@  #10 @052   ----------------------------------------
Label_0142DBF9:
 .byte   W12
 .byte   N11 ,Bn2 ,v064
 .byte   W12
 .byte   Ds3
 .byte   W12
 .byte   Fs3
 .byte   W12
 .byte   Ds3
 .byte   W12
 .byte   Bn2
 .byte   W12
 .byte   N68 ,Fs3
 .byte   W72
 .byte   PEND 
@  #10 @053   ----------------------------------------
 .byte   W96
@  #10 @054   ----------------------------------------
 .byte   W48
 .byte   W96
@  #10 @055   ----------------------------------------
 .byte   W48
 .byte   W96
@  #10 @056   ----------------------------------------
 .byte   W48
 .byte   W96
@  #10 @057   ----------------------------------------
 .byte   W48
 .byte   W96
@  #10 @058   ----------------------------------------
 .byte   W48
 .byte   W96
@  #10 @059   ----------------------------------------
 .byte   W48
 .byte   W96
@  #10 @060   ----------------------------------------
 .byte   W48
 .byte   W96
@  #10 @061   ----------------------------------------
 .byte   W48
 .byte   W96
@  #10 @062   ----------------------------------------
 .byte   W48
 .byte   N07 ,Fn3 ,v112
 .byte   W96
@  #10 @063   ----------------------------------------
 .byte   W12
 .byte   N07
 .byte   W12
 .byte   Gn3
 .byte   W12
 .byte   Gs3
 .byte   W12
 .byte   GOTO
  .word Label_0142DA6F
@  #10 @064   ----------------------------------------
 .byte   PATT
  .word Label_0142DA6F
@  #10 @065   ----------------------------------------
 .byte   PATT
  .word Label_0142DA7C
@  #10 @066   ----------------------------------------
 .byte   PATT
  .word Label_0142DA88
@  #10 @067   ----------------------------------------
 .byte   PATT
  .word Label_0142DA9F
@  #10 @068   ----------------------------------------
 .byte   PATT
  .word Label_0142DAAB
@  #10 @069   ----------------------------------------
 .byte   PATT
  .word Label_0142DAB8
@  #10 @070   ----------------------------------------
 .byte   PATT
  .word Label_0142DAC4
@  #10 @071   ----------------------------------------
 .byte   PATT
  .word Label_0142DADB
@  #10 @072   ----------------------------------------
 .byte   PATT
  .word Label_0142DAE2
@  #10 @073   ----------------------------------------
 .byte   PATT
  .word Label_0142DAE9
@  #10 @074   ----------------------------------------
 .byte   PATT
  .word Label_0142DAF3
@  #10 @075   ----------------------------------------
 .byte   PATT
  .word Label_0142DB00
@  #10 @076   ----------------------------------------
 .byte   PATT
  .word Label_0142DB0A
@  #10 @077   ----------------------------------------
 .byte   PATT
  .word Label_0142DB16
@  #10 @078   ----------------------------------------
 .byte   PATT
  .word Label_0142DB20
@  #10 @079   ----------------------------------------
 .byte   PATT
  .word Label_0142DA7C
@  #10 @080   ----------------------------------------
 .byte   PATT
  .word Label_0142DA6F
@  #10 @081   ----------------------------------------
 .byte   PATT
  .word Label_0142DA7C
@  #10 @082   ----------------------------------------
 .byte   PATT
  .word Label_0142DA88
@  #10 @083   ----------------------------------------
 .byte   PATT
  .word Label_0142DB41
@  #10 @084   ----------------------------------------
 .byte   W96
@  #10 @085   ----------------------------------------
 .byte   W48
 .byte   W96
@  #10 @086   ----------------------------------------
 .byte   W48
@  #10 @087   ----------------------------------------
 .byte   PATT
  .word Label_0142DB48
@  #10 @088   ----------------------------------------
 .byte   PATT
  .word Label_0142DADB
@  #10 @089   ----------------------------------------
 .byte   PATT
  .word Label_0142DAE2
@  #10 @090   ----------------------------------------
 .byte   PATT
  .word Label_0142DAE9
@  #10 @091   ----------------------------------------
 .byte   PATT
  .word Label_0142DAF3
@  #10 @092   ----------------------------------------
 .byte   PATT
  .word Label_0142DB00
@  #10 @093   ----------------------------------------
 .byte   PATT
  .word Label_0142DB0A
@  #10 @094   ----------------------------------------
 .byte   PATT
  .word Label_0142DB16
@  #10 @095   ----------------------------------------
 .byte   PATT
  .word Label_0142DB20
@  #10 @096   ----------------------------------------
 .byte   W96
@  #10 @097   ----------------------------------------
 .byte   W48
@  #10 @098   ----------------------------------------
 .byte   PATT
  .word Label_0142DB79
@  #10 @099   ----------------------------------------
 .byte   PATT
  .word Label_0142DB86
@  #10 @100   ----------------------------------------
 .byte   PATT
  .word Label_0142DB93
@  #10 @101   ----------------------------------------
 .byte   PATT
  .word Label_0142DB9C
@  #10 @102   ----------------------------------------
 .byte   PATT
  .word Label_0142DBB0
@  #10 @103   ----------------------------------------
 .byte   PATT
  .word Label_0142DBBE
@  #10 @104   ----------------------------------------
 .byte   W96
@  #10 @105   ----------------------------------------
 .byte   W48
 .byte   W96
@  #10 @106   ----------------------------------------
 .byte   W48
 .byte   W96
@  #10 @107   ----------------------------------------
 .byte   W48
 .byte   W96
@  #10 @108   ----------------------------------------
 .byte   W48
 .byte   W96
@  #10 @109   ----------------------------------------
 .byte   W48
 .byte   W96
@  #10 @110   ----------------------------------------
 .byte   W48
@  #10 @111   ----------------------------------------
 .byte   PATT
  .word Label_0142DBD7
@  #10 @112   ----------------------------------------
 .byte   PATT
  .word Label_0142DBE8
@  #10 @113   ----------------------------------------
 .byte   PATT
  .word Label_0142DBF9
@  #10 @114   ----------------------------------------
 .byte   W96
@  #10 @115   ----------------------------------------
 .byte   W48
 .byte   W96
@  #10 @116   ----------------------------------------
 .byte   W48
 .byte   W96
@  #10 @117   ----------------------------------------
 .byte   W48
 .byte   W96
@  #10 @118   ----------------------------------------
 .byte   W48
 .byte   W96
@  #10 @119   ----------------------------------------
 .byte   W48
 .byte   W96
@  #10 @120   ----------------------------------------
 .byte   W48
 .byte   W96
@  #10 @121   ----------------------------------------
 .byte   W48
 .byte   W96
@  #10 @122   ----------------------------------------
 .byte   W48
 .byte   W96
@  #10 @123   ----------------------------------------
 .byte   W44
 .byte   W03
 .byte   FINE

@**************** Track 11 (Midi-Chn.10) ****************@

song04_011:
@  #11 @000   ----------------------------------------
 .byte   KEYSH , song04_key+0
 .byte   VOICE , 49
 .byte   VOL , 40*song04_mvl/mxv
 .byte   PAN , c_v+0
 .byte   N07 ,Gs2 ,v096
 .byte   W36
 .byte   Cn3
 .byte   W12
 .byte   As2
 .byte   W12
 .byte   Cn3
 .byte   W12
 .byte   Cs3
 .byte   W12
 .byte   Cn3
 .byte   W12
@  #11 @001   ----------------------------------------
 .byte   Cs3
 .byte   W12
 .byte   N07
 .byte   W12
 .byte   Cn3
 .byte   W12
 .byte   Cs3
 .byte   W12
Label_0142DD3E:
 .byte   W36
 .byte   N07 ,Cn3 ,v096
 .byte   W12
@  #11 @002   ----------------------------------------
 .byte   As2
 .byte   W12
 .byte   Cn3
 .byte   W12
 .byte   Cs3
 .byte   W12
 .byte   Cn3
 .byte   W12
 .byte   Fn3
 .byte   W12
 .byte   Ds3
 .byte   W12
 .byte   Cn3
 .byte   W12
 .byte   Gn2
 .byte   W12
 .byte   PEND 
@  #11 @003   ----------------------------------------
Label_0142DD54:
 .byte   N07 ,Gs2 ,v096
 .byte   W36
 .byte   Cn3
 .byte   W12
 .byte   As2
 .byte   W12
 .byte   Cn3
 .byte   W12
 .byte   Cs3
 .byte   W12
 .byte   Cn3
 .byte   W12
@  #11 @004   ----------------------------------------
 .byte   Cs3
 .byte   W12
 .byte   As2
 .byte   W12
 .byte   Cn3
 .byte   W12
 .byte   Cs3
 .byte   W12
 .byte   PEND 
Label_0142DD6B:
 .byte   N07 ,Gs2 ,v096
 .byte   W36
 .byte   Fn2
 .byte   W12
@  #11 @005   ----------------------------------------
 .byte   Ds2
 .byte   W12
 .byte   Fn2
 .byte   W12
 .byte   Gs2
 .byte   W12
 .byte   Gn2
 .byte   W12
 .byte   Cs3
 .byte   W12
 .byte   Cn3
 .byte   W12
 .byte   Gn2
 .byte   W12
 .byte   Ds2
 .byte   W12
 .byte   PEND 
@  #11 @006   ----------------------------------------
Label_0142DD82:
 .byte   N07 ,Gs2 ,v080
 .byte   W36
 .byte   Cn3
 .byte   W12
 .byte   As2
 .byte   W12
 .byte   Cn3
 .byte   W12
 .byte   Cs3
 .byte   W12
 .byte   Cn3
 .byte   W12
@  #11 @007   ----------------------------------------
 .byte   Cs3
 .byte   W12
 .byte   Cn3
 .byte   W12
 .byte   Gs2
 .byte   W12
 .byte   Cn3
 .byte   W12
 .byte   PEND 
Label_0142DD99:
 .byte   N07 ,Gs2 ,v080
 .byte   W36
 .byte   Cn3
 .byte   W12
@  #11 @008   ----------------------------------------
 .byte   As2
 .byte   W12
 .byte   Cn3
 .byte   W12
 .byte   Cs3
 .byte   W12
 .byte   Cn3
 .byte   W12
 .byte   Fn3
 .byte   W12
 .byte   Ds3
 .byte   W12
 .byte   Cn3
 .byte   W12
 .byte   Gn2
 .byte   W12
 .byte   PEND 
@  #11 @009   ----------------------------------------
Label_0142DDB0:
 .byte   N07 ,Gs2 ,v080
 .byte   W36
 .byte   Cn3
 .byte   W12
 .byte   As2
 .byte   W12
 .byte   Cn3
 .byte   W12
 .byte   Cs3
 .byte   W12
 .byte   Cn3
 .byte   W12
@  #11 @010   ----------------------------------------
 .byte   Cs3
 .byte   W12
 .byte   As2
 .byte   W12
 .byte   Cn3
 .byte   W12
 .byte   Cs3
 .byte   W12
 .byte   PEND 
Label_0142DDC7:
 .byte   N07 ,Gs2 ,v080
 .byte   W36
 .byte   Fn2
 .byte   W12
@  #11 @011   ----------------------------------------
 .byte   Ds2
 .byte   W12
 .byte   Fn2
 .byte   W12
 .byte   Gs2
 .byte   W12
 .byte   Gn2
 .byte   W12
 .byte   Cs3
 .byte   W12
 .byte   Cn3
 .byte   W12
 .byte   Gn2
 .byte   W12
 .byte   Ds2
 .byte   W12
 .byte   PEND 
@  #11 @012   ----------------------------------------
Label_0142DDDE:
 .byte   N68 ,Gs3 ,v064
 .byte   W72
 .byte   Gn3
 .byte   W72
 .byte   PEND 
@  #11 @013   ----------------------------------------
Label_0142DDE5:
 .byte   N68 ,Gs3 ,v064
 .byte   W72
 .byte   Cs4
 .byte   W72
 .byte   PEND 
@  #11 @014   ----------------------------------------
Label_0142DDEC:
 .byte   N68 ,Ds4 ,v064
 .byte   W72
 .byte   N32 ,Dn4
 .byte   W36
@  #11 @015   ----------------------------------------
 .byte   As3
 .byte   W36
 .byte   PEND 
Label_0142DDF6:
 .byte   N68 ,Gn3 ,v064
 .byte   W96
@  #11 @016   ----------------------------------------
 .byte   W48
 .byte   PEND 
Label_0142DDFC:
 .byte   N68 ,Gs2 ,v080
 .byte   W72
@  #11 @017   ----------------------------------------
 .byte   As2
 .byte   W72
 .byte   PEND 
Label_0142DE03:
 .byte   N32 ,Cn3 ,v080
 .byte   W36
@  #11 @018   ----------------------------------------
 .byte   Gs2
 .byte   W36
 .byte   N68 ,Fn3
 .byte   W72
 .byte   PEND 
@  #11 @019   ----------------------------------------
Label_0142DE0D:
 .byte   N68 ,Gn3 ,v080
 .byte   W72
 .byte   N32 ,Fn3
 .byte   W36
@  #11 @020   ----------------------------------------
 .byte   Dn3
 .byte   W36
 .byte   PEND 
Label_0142DE17:
 .byte   N68 ,Cn3 ,v080
 .byte   W96
@  #11 @021   ----------------------------------------
 .byte   W48
 .byte   PEND 
Label_0142DE1D:
 .byte   N07 ,Gs2 ,v096
 .byte   W36
 .byte   Cn3
 .byte   W12
@  #11 @022   ----------------------------------------
 .byte   As2
 .byte   W12
 .byte   Cn3
 .byte   W12
 .byte   Cs3
 .byte   W12
 .byte   Cn3
 .byte   W12
 .byte   Cs3
 .byte   W12
 .byte   N07
 .byte   W12
 .byte   Cn3
 .byte   W12
 .byte   Cs3
 .byte   W12
 .byte   PEND 
@  #11 @023   ----------------------------------------
 .byte   PATT
  .word Label_0142DD3E
@  #11 @024   ----------------------------------------
 .byte   PATT
  .word Label_0142DD54
@  #11 @025   ----------------------------------------
 .byte   PATT
  .word Label_0142DD6B
@  #11 @026   ----------------------------------------
Label_0142DE43:
 .byte   W96
@  #11 @027   ----------------------------------------
 .byte   W48
 .byte   PEND 
 .byte   W96
@  #11 @028   ----------------------------------------
 .byte   W48
 .byte   W96
@  #11 @029   ----------------------------------------
 .byte   W48
Label_0142DE4A:
 .byte   N68 ,Cn5 ,v036
 .byte   W72
@  #11 @030   ----------------------------------------
 .byte   As4
 .byte   W72
 .byte   PEND 
@  #11 @031   ----------------------------------------
 .byte   PATT
  .word Label_0142DDDE
@  #11 @032   ----------------------------------------
 .byte   PATT
  .word Label_0142DDE5
@  #11 @033   ----------------------------------------
 .byte   PATT
  .word Label_0142DDEC
@  #11 @034   ----------------------------------------
 .byte   PATT
  .word Label_0142DDF6
@  #11 @035   ----------------------------------------
 .byte   PATT
  .word Label_0142DDFC
@  #11 @036   ----------------------------------------
 .byte   PATT
  .word Label_0142DE03
@  #11 @037   ----------------------------------------
 .byte   PATT
  .word Label_0142DE0D
@  #11 @038   ----------------------------------------
 .byte   PATT
  .word Label_0142DE17
@  #11 @039   ----------------------------------------
 .byte   W96
@  #11 @040   ----------------------------------------
 .byte   W48
 .byte   W96
@  #11 @041   ----------------------------------------
 .byte   W48
 .byte   W96
@  #11 @042   ----------------------------------------
 .byte   W48
Label_0142DE7F:
 .byte   N68 ,Cn3 ,v080
 .byte   W72
@  #11 @043   ----------------------------------------
 .byte   Gn3
 .byte   W72
 .byte   PEND 
 .byte   W96
@  #11 @044   ----------------------------------------
 .byte   W48
 .byte   W96
@  #11 @045   ----------------------------------------
 .byte   W48
 .byte   W96
@  #11 @046   ----------------------------------------
 .byte   W48
Label_0142DE8C:
 .byte   N11 ,Ds3 ,v080
 .byte   W12
 .byte   Gs2
 .byte   W12
 .byte   Cn3
 .byte   W12
 .byte   Ds3
 .byte   W12
@  #11 @047   ----------------------------------------
 .byte   Gs2
 .byte   W12
 .byte   Cn3
 .byte   W12
 .byte   Ds3
 .byte   W12
 .byte   Gs2
 .byte   W12
 .byte   Cn3
 .byte   W12
 .byte   Ds3
 .byte   W12
 .byte   Gs2
 .byte   W12
 .byte   Cn3
 .byte   W12
 .byte   PEND 
@  #11 @048   ----------------------------------------
Label_0142DEA7:
 .byte   N11 ,Ds3 ,v080
 .byte   W12
 .byte   Gs2
 .byte   W12
 .byte   Cn3
 .byte   W12
 .byte   Ds3
 .byte   W12
 .byte   Gs2
 .byte   W12
 .byte   Cn3
 .byte   W12
 .byte   Gs3
 .byte   W12
 .byte   Cn3
 .byte   W12
@  #11 @049   ----------------------------------------
 .byte   Ds3
 .byte   W12
 .byte   Gs3
 .byte   W12
 .byte   Ds3
 .byte   W12
 .byte   Gs3
 .byte   W12
 .byte   PEND 
Label_0142DEC2:
 .byte   N11 ,Cs3 ,v080
 .byte   W12
 .byte   Gs2
 .byte   W12
 .byte   Cs3
 .byte   W12
 .byte   En3
 .byte   W12
@  #11 @050   ----------------------------------------
 .byte   Gs2
 .byte   W12
 .byte   En3
 .byte   W12
 .byte   Gs3
 .byte   W12
 .byte   Gs2
 .byte   W12
 .byte   Cs3
 .byte   W12
 .byte   En3
 .byte   W12
 .byte   Cs3
 .byte   W12
 .byte   En3
 .byte   W12
 .byte   PEND 
@  #11 @051   ----------------------------------------
Label_0142DEDD:
 .byte   N11 ,En3 ,v080
 .byte   W12
 .byte   Gs2
 .byte   W12
 .byte   Cs3
 .byte   W12
 .byte   En3
 .byte   W12
 .byte   Cs3
 .byte   W12
 .byte   En3
 .byte   W24
 .byte   Gs2
 .byte   W12
@  #11 @052   ----------------------------------------
 .byte   Cs3
 .byte   W12
 .byte   En3
 .byte   W12
 .byte   Cs3
 .byte   W12
 .byte   An2
 .byte   W12
 .byte   PEND 
Label_0142DEF6:
 .byte   N11 ,Bn2 ,v080
 .byte   W12
 .byte   N11
 .byte   W12
 .byte   Ds3
 .byte   W12
 .byte   Fs3
 .byte   W12
@  #11 @053   ----------------------------------------
 .byte   Ds3
 .byte   W12
 .byte   Bn2
 .byte   W24
 .byte   N11
 .byte   W12
 .byte   Ds3
 .byte   W12
 .byte   Fs3
 .byte   W12
 .byte   Ds3
 .byte   W12
 .byte   Bn2
 .byte   W12
 .byte   PEND 
@  #11 @054   ----------------------------------------
Label_0142DF0F:
 .byte   N11 ,Bn2 ,v080
 .byte   W12
 .byte   N11
 .byte   W12
 .byte   En3
 .byte   W12
 .byte   Gs3
 .byte   W12
 .byte   En3
 .byte   W12
 .byte   Bn2
 .byte   W24
 .byte   N11
 .byte   W12
@  #11 @055   ----------------------------------------
 .byte   Ds3
 .byte   W12
 .byte   Fs3
 .byte   W12
 .byte   Ds3
 .byte   W12
 .byte   Bn2
 .byte   W12
 .byte   PEND 
Label_0142DF28:
 .byte   N11 ,Cs3 ,v080
 .byte   W12
 .byte   Gs2
 .byte   W12
 .byte   Cs3
 .byte   W12
 .byte   En3
 .byte   W12
@  #11 @056   ----------------------------------------
 .byte   Cs3
 .byte   W12
 .byte   Gs2
 .byte   W24
 .byte   N11
 .byte   W12
 .byte   Cs3
 .byte   W12
 .byte   En3
 .byte   W12
 .byte   Cs3
 .byte   W12
 .byte   Gs2
 .byte   W12
 .byte   PEND 
@  #11 @057   ----------------------------------------
Label_0142DF41:
 .byte   N11 ,An2 ,v080
 .byte   W12
 .byte   N11
 .byte   W12
 .byte   Cs3
 .byte   W12
 .byte   En3
 .byte   W12
 .byte   Cs3
 .byte   W12
 .byte   An2
 .byte   W24
 .byte   N11
 .byte   W12
@  #11 @058   ----------------------------------------
 .byte   Cs3
 .byte   W12
 .byte   En3
 .byte   W12
 .byte   Cs3
 .byte   W12
 .byte   An2
 .byte   W12
 .byte   PEND 
@  #11 @059   ----------------------------------------
 .byte   PATT
  .word Label_0142DEF6
@  #11 @060   ----------------------------------------
 .byte   W96
@  #11 @061   ----------------------------------------
 .byte   W48
Label_0142DF61:
 .byte   N11 ,Fn3 ,v080
 .byte   W12
 .byte   Gs2
 .byte   W12
 .byte   Cn3
 .byte   W12
 .byte   Fn3
 .byte   W12
@  #11 @062   ----------------------------------------
 .byte   Gs2
 .byte   W12
 .byte   Cn3
 .byte   W12
 .byte   Fn3
 .byte   W12
 .byte   Gs2
 .byte   W12
 .byte   Cn3
 .byte   W12
 .byte   Fn3
 .byte   W12
 .byte   Gs2
 .byte   W12
 .byte   Cn3
 .byte   W12
 .byte   PEND 
@  #11 @063   ----------------------------------------
 .byte   PATT
  .word Label_0142DF61
@  #11 @064   ----------------------------------------
 .byte   PATT
  .word Label_0142DF61
@  #11 @065   ----------------------------------------
 .byte   PATT
  .word Label_0142DF61
@  #11 @066   ----------------------------------------
 .byte   PATT
  .word Label_0142DF61
@  #11 @067   ----------------------------------------
Label_0142DF90:
 .byte   N11 ,Fn3 ,v080
 .byte   W12
 .byte   Gs2
 .byte   W12
 .byte   Cn3
 .byte   W12
 .byte   Fn3
 .byte   W12
 .byte   Gs2
 .byte   W12
 .byte   Cn3
 .byte   W12
 .byte   Gs3
 .byte   W12
 .byte   Fn3
 .byte   W12
@  #11 @068   ----------------------------------------
 .byte   Cn3
 .byte   W12
 .byte   Fn3
 .byte   W12
 .byte   Gs2
 .byte   W12
 .byte   Cn3
 .byte   W12
 .byte   PEND 
@  #11 @069   ----------------------------------------
 .byte   PATT
  .word Label_0142DF61
@  #11 @070   ----------------------------------------
 .byte   PATT
  .word Label_0142DF61
@  #11 @071   ----------------------------------------
 .byte   PATT
  .word Label_0142DE1D
@  #11 @072   ----------------------------------------
 .byte   GOTO
  .word Label_0142DD3E
@  #11 @073   ----------------------------------------
 .byte   PATT
  .word Label_0142DD3E
@  #11 @074   ----------------------------------------
 .byte   PATT
  .word Label_0142DD54
@  #11 @075   ----------------------------------------
 .byte   PATT
  .word Label_0142DD6B
@  #11 @076   ----------------------------------------
 .byte   PATT
  .word Label_0142DD82
@  #11 @077   ----------------------------------------
 .byte   PATT
  .word Label_0142DD99
@  #11 @078   ----------------------------------------
 .byte   PATT
  .word Label_0142DDB0
@  #11 @079   ----------------------------------------
 .byte   PATT
  .word Label_0142DDC7
@  #11 @080   ----------------------------------------
 .byte   PATT
  .word Label_0142DDDE
@  #11 @081   ----------------------------------------
 .byte   PATT
  .word Label_0142DDE5
@  #11 @082   ----------------------------------------
 .byte   PATT
  .word Label_0142DDEC
@  #11 @083   ----------------------------------------
 .byte   PATT
  .word Label_0142DDF6
@  #11 @084   ----------------------------------------
 .byte   PATT
  .word Label_0142DDFC
@  #11 @085   ----------------------------------------
 .byte   PATT
  .word Label_0142DE03
@  #11 @086   ----------------------------------------
 .byte   PATT
  .word Label_0142DE0D
@  #11 @087   ----------------------------------------
 .byte   PATT
  .word Label_0142DE17
@  #11 @088   ----------------------------------------
 .byte   PATT
  .word Label_0142DE1D
@  #11 @089   ----------------------------------------
 .byte   PATT
  .word Label_0142DD3E
@  #11 @090   ----------------------------------------
 .byte   PATT
  .word Label_0142DD54
@  #11 @091   ----------------------------------------
 .byte   PATT
  .word Label_0142DD6B
@  #11 @092   ----------------------------------------
 .byte   PATT
  .word Label_0142DE43
@  #11 @093   ----------------------------------------
 .byte   W96
@  #11 @094   ----------------------------------------
 .byte   W48
 .byte   W96
@  #11 @095   ----------------------------------------
 .byte   W48
@  #11 @096   ----------------------------------------
 .byte   PATT
  .word Label_0142DE4A
@  #11 @097   ----------------------------------------
 .byte   PATT
  .word Label_0142DDDE
@  #11 @098   ----------------------------------------
 .byte   PATT
  .word Label_0142DDE5
@  #11 @099   ----------------------------------------
 .byte   PATT
  .word Label_0142DDEC
@  #11 @100   ----------------------------------------
 .byte   PATT
  .word Label_0142DDF6
@  #11 @101   ----------------------------------------
 .byte   PATT
  .word Label_0142DDFC
@  #11 @102   ----------------------------------------
 .byte   PATT
  .word Label_0142DE03
@  #11 @103   ----------------------------------------
 .byte   PATT
  .word Label_0142DE0D
@  #11 @104   ----------------------------------------
 .byte   PATT
  .word Label_0142DE17
@  #11 @105   ----------------------------------------
 .byte   W96
@  #11 @106   ----------------------------------------
 .byte   W48
 .byte   W96
@  #11 @107   ----------------------------------------
 .byte   W48
 .byte   W96
@  #11 @108   ----------------------------------------
 .byte   W48
@  #11 @109   ----------------------------------------
 .byte   PATT
  .word Label_0142DE7F
@  #11 @110   ----------------------------------------
 .byte   W96
@  #11 @111   ----------------------------------------
 .byte   W48
 .byte   W96
@  #11 @112   ----------------------------------------
 .byte   W48
 .byte   W96
@  #11 @113   ----------------------------------------
 .byte   W48
@  #11 @114   ----------------------------------------
 .byte   PATT
  .word Label_0142DE8C
@  #11 @115   ----------------------------------------
 .byte   PATT
  .word Label_0142DEA7
@  #11 @116   ----------------------------------------
 .byte   PATT
  .word Label_0142DEC2
@  #11 @117   ----------------------------------------
 .byte   PATT
  .word Label_0142DEDD
@  #11 @118   ----------------------------------------
 .byte   PATT
  .word Label_0142DEF6
@  #11 @119   ----------------------------------------
 .byte   PATT
  .word Label_0142DF0F
@  #11 @120   ----------------------------------------
 .byte   PATT
  .word Label_0142DF28
@  #11 @121   ----------------------------------------
 .byte   PATT
  .word Label_0142DF41
@  #11 @122   ----------------------------------------
 .byte   PATT
  .word Label_0142DEF6
@  #11 @123   ----------------------------------------
 .byte   W96
@  #11 @124   ----------------------------------------
 .byte   W48
@  #11 @125   ----------------------------------------
 .byte   PATT
  .word Label_0142DF61
@  #11 @126   ----------------------------------------
 .byte   PATT
  .word Label_0142DF61
@  #11 @127   ----------------------------------------
 .byte   PATT
  .word Label_0142DF61
@  #11 @128   ----------------------------------------
 .byte   PATT
  .word Label_0142DF61
@  #11 @129   ----------------------------------------
 .byte   PATT
  .word Label_0142DF61
@  #11 @130   ----------------------------------------
 .byte   PATT
  .word Label_0142DF90
@  #11 @131   ----------------------------------------
 .byte   PATT
  .word Label_0142DF61
@  #11 @132   ----------------------------------------
 .byte   N11 ,Fn3 ,v080
 .byte   W12
 .byte   Gs2
 .byte   W12
 .byte   Cn3
 .byte   W12
 .byte   Fn3
 .byte   W12
 .byte   Gs2
 .byte   W12
 .byte   Cn3
 .byte   W12
 .byte   Fn3
 .byte   W12
 .byte   Gs2
 .byte   W12
@  #11 @133   ----------------------------------------
 .byte   Cn3
 .byte   W12
 .byte   Fn3
 .byte   W12
 .byte   Gs2
 .byte   W12
 .byte   Cn3
 .byte   W11
 .byte   FINE

@**************** Track 12 (Midi-Chn.11) ****************@

song04_012:
@  #12 @000   ----------------------------------------
 .byte   KEYSH , song04_key+0
 .byte   VOICE , 124
 .byte   VOL , 40*song04_mvl/mxv
 .byte   PAN , c_v-4
 .byte   PAN , c_v+0
 .byte   N11 ,Fn1 ,v080
 .byte   W12
 .byte   N05
 .byte   W96
@  #12 @001   ----------------------------------------
 .byte   W36
Label_0142E0F5:
 .byte   N11 ,Fn1 ,v080
 .byte   W12
 .byte   N05
 .byte   W96
@  #12 @002   ----------------------------------------
 .byte   W36
 .byte   PEND 
@  #12 @003   ----------------------------------------
 .byte   PATT
  .word Label_0142E0F5
@  #12 @004   ----------------------------------------
Label_0142E102:
 .byte   N68 ,Cn1 ,v080
 .byte   W72
 .byte   N68
 .byte   W72
 .byte   PEND 
@  #12 @005   ----------------------------------------
 .byte   PATT
  .word Label_0142E0F5
@  #12 @006   ----------------------------------------
 .byte   PATT
  .word Label_0142E0F5
@  #12 @007   ----------------------------------------
 .byte   PATT
  .word Label_0142E0F5
@  #12 @008   ----------------------------------------
 .byte   PATT
  .word Label_0142E102
@  #12 @009   ----------------------------------------
Label_0142E11D:
 .byte   N32 ,An2 ,v052
 .byte   W72
 .byte   N32
 .byte   W72
 .byte   PEND 
@  #12 @010   ----------------------------------------
 .byte   PATT
  .word Label_0142E11D
@  #12 @011   ----------------------------------------
 .byte   PATT
  .word Label_0142E11D
@  #12 @012   ----------------------------------------
Label_0142E12E:
 .byte   N11 ,Cn1 ,v080
 .byte   N32 ,An2 ,v052
 .byte   W12
 .byte   N03 ,Cn1 ,v080
 .byte   W04
 .byte   N03
 .byte   W04
 .byte   N03
 .byte   W16
 .byte   N32
 .byte   W36
 .byte   N11
 .byte   N32 ,An2 ,v052
 .byte   W12
 .byte   N03 ,Cn1 ,v080
 .byte   W04
 .byte   N03
 .byte   W04
 .byte   N03
 .byte   W16
@  #12 @013   ----------------------------------------
 .byte   N11
 .byte   W12
 .byte   N11
 .byte   W12
 .byte   N11
 .byte   W12
 .byte   PEND 
@  #12 @014   ----------------------------------------
 .byte   PATT
  .word Label_0142E11D
@  #12 @015   ----------------------------------------
 .byte   PATT
  .word Label_0142E11D
@  #12 @016   ----------------------------------------
 .byte   PATT
  .word Label_0142E11D
@  #12 @017   ----------------------------------------
 .byte   PATT
  .word Label_0142E12E
@  #12 @018   ----------------------------------------
 .byte   PATT
  .word Label_0142E0F5
@  #12 @019   ----------------------------------------
 .byte   PATT
  .word Label_0142E0F5
@  #12 @020   ----------------------------------------
 .byte   PATT
  .word Label_0142E0F5
@  #12 @021   ----------------------------------------
 .byte   PATT
  .word Label_0142E102
@  #12 @022   ----------------------------------------
Label_0142E17B:
 .byte   N11 ,Fn1 ,v080
 .byte   W12
 .byte   N56
 .byte   W60
 .byte   N68 ,Cn1
 .byte   W72
 .byte   PEND 
@  #12 @023   ----------------------------------------
Label_0142E185:
 .byte   N11 ,Fn1 ,v080
 .byte   W12
 .byte   N56
 .byte   W60
 .byte   N23 ,Cn1
 .byte   W24
@  #12 @024   ----------------------------------------
 .byte   N23
 .byte   W24
 .byte   N23
 .byte   W24
 .byte   PEND 
@  #12 @025   ----------------------------------------
 .byte   PATT
  .word Label_0142E17B
@  #12 @026   ----------------------------------------
 .byte   PATT
  .word Label_0142E185
@  #12 @027   ----------------------------------------
Label_0142E19D:
 .byte   N32 ,An2 ,v052
 .byte   W36
 .byte   N32
 .byte   W36
 .byte   N32
 .byte   W36
@  #12 @028   ----------------------------------------
 .byte   N32
 .byte   W36
 .byte   PEND 
@  #12 @029   ----------------------------------------
 .byte   PATT
  .word Label_0142E19D
@  #12 @030   ----------------------------------------
 .byte   PATT
  .word Label_0142E19D
@  #12 @031   ----------------------------------------
Label_0142E1B2:
 .byte   N11 ,Cn1 ,v080
 .byte   N32 ,An2 ,v052
 .byte   W12
 .byte   N03 ,Cn1 ,v080
 .byte   W04
 .byte   N03
 .byte   W04
 .byte   N03
 .byte   W16
 .byte   N32
 .byte   N32 ,An2 ,v052
 .byte   W36
 .byte   N11 ,Cn1 ,v080
 .byte   N32 ,An2 ,v052
 .byte   W12
 .byte   N03 ,Cn1 ,v080
 .byte   W04
 .byte   N03
 .byte   W04
 .byte   N03
 .byte   W16
@  #12 @032   ----------------------------------------
 .byte   N11
 .byte   N32 ,An2 ,v052
 .byte   W12
 .byte   N11 ,Cn1 ,v080
 .byte   W12
 .byte   N11
 .byte   W12
 .byte   PEND 
@  #12 @033   ----------------------------------------
 .byte   PATT
  .word Label_0142E19D
@  #12 @034   ----------------------------------------
 .byte   PATT
  .word Label_0142E19D
@  #12 @035   ----------------------------------------
 .byte   PATT
  .word Label_0142E19D
@  #12 @036   ----------------------------------------
 .byte   PATT
  .word Label_0142E1B2
@  #12 @037   ----------------------------------------
 .byte   W96
@  #12 @038   ----------------------------------------
 .byte   W48
 .byte   W96
@  #12 @039   ----------------------------------------
 .byte   W48
 .byte   W96
@  #12 @040   ----------------------------------------
 .byte   W48
 .byte   W96
@  #12 @041   ----------------------------------------
 .byte   W48
 .byte   W96
@  #12 @042   ----------------------------------------
 .byte   W48
 .byte   W96
@  #12 @043   ----------------------------------------
 .byte   W48
 .byte   W96
@  #12 @044   ----------------------------------------
 .byte   W48
 .byte   W96
@  #12 @045   ----------------------------------------
 .byte   W48
 .byte   W96
@  #12 @046   ----------------------------------------
 .byte   W48
Label_0142E207:
 .byte   N32 ,Cn1 ,v064
 .byte   N11 ,An2 ,v096
 .byte   W12
 .byte   An2 ,v064
 .byte   W12
 .byte   N11
 .byte   W12
 .byte   N32 ,Cn1
 .byte   N11 ,An2 ,v096
 .byte   W12
@  #12 @047   ----------------------------------------
 .byte   An2 ,v064
 .byte   W12
 .byte   N11
 .byte   W12
 .byte   N32 ,Cn1
 .byte   N11 ,An2 ,v096
 .byte   W12
 .byte   An2 ,v064
 .byte   W12
 .byte   N11
 .byte   W12
 .byte   N32 ,Cn1
 .byte   N11 ,An2 ,v096
 .byte   W12
 .byte   An2 ,v064
 .byte   W12
 .byte   N11
 .byte   W12
 .byte   PEND 
@  #12 @048   ----------------------------------------
 .byte   PATT
  .word Label_0142E207
@  #12 @049   ----------------------------------------
 .byte   PATT
  .word Label_0142E207
@  #12 @050   ----------------------------------------
 .byte   PATT
  .word Label_0142E207
@  #12 @051   ----------------------------------------
 .byte   PATT
  .word Label_0142E207
@  #12 @052   ----------------------------------------
 .byte   PATT
  .word Label_0142E207
@  #12 @053   ----------------------------------------
 .byte   PATT
  .word Label_0142E207
@  #12 @054   ----------------------------------------
Label_0142E253:
 .byte   N32 ,An2 ,v064
 .byte   W96
@  #12 @055   ----------------------------------------
 .byte   W48
 .byte   PEND 
 .byte   W96
@  #12 @056   ----------------------------------------
 .byte   W48
 .byte   W96
@  #12 @057   ----------------------------------------
 .byte   W48
 .byte   W96
@  #12 @058   ----------------------------------------
 .byte   W48
 .byte   W96
@  #12 @059   ----------------------------------------
 .byte   W48
 .byte   W96
@  #12 @060   ----------------------------------------
 .byte   W48
 .byte   W96
@  #12 @061   ----------------------------------------
 .byte   W48
 .byte   W96
@  #12 @062   ----------------------------------------
 .byte   W48
 .byte   W96
@  #12 @063   ----------------------------------------
 .byte   W48
@  #12 @064   ----------------------------------------
 .byte   PATT
  .word Label_0142E0F5
@  #12 @065   ----------------------------------------
 .byte   GOTO
  .word Label_0142E0F5
@  #12 @066   ----------------------------------------
 .byte   PATT
  .word Label_0142E0F5
@  #12 @067   ----------------------------------------
 .byte   PATT
  .word Label_0142E0F5
@  #12 @068   ----------------------------------------
 .byte   PATT
  .word Label_0142E102
@  #12 @069   ----------------------------------------
 .byte   PATT
  .word Label_0142E0F5
@  #12 @070   ----------------------------------------
 .byte   PATT
  .word Label_0142E0F5
@  #12 @071   ----------------------------------------
 .byte   PATT
  .word Label_0142E0F5
@  #12 @072   ----------------------------------------
 .byte   PATT
  .word Label_0142E102
@  #12 @073   ----------------------------------------
 .byte   PATT
  .word Label_0142E11D
@  #12 @074   ----------------------------------------
 .byte   PATT
  .word Label_0142E11D
@  #12 @075   ----------------------------------------
 .byte   PATT
  .word Label_0142E11D
@  #12 @076   ----------------------------------------
 .byte   PATT
  .word Label_0142E12E
@  #12 @077   ----------------------------------------
 .byte   PATT
  .word Label_0142E11D
@  #12 @078   ----------------------------------------
 .byte   PATT
  .word Label_0142E11D
@  #12 @079   ----------------------------------------
 .byte   PATT
  .word Label_0142E11D
@  #12 @080   ----------------------------------------
 .byte   PATT
  .word Label_0142E12E
@  #12 @081   ----------------------------------------
 .byte   PATT
  .word Label_0142E0F5
@  #12 @082   ----------------------------------------
 .byte   PATT
  .word Label_0142E0F5
@  #12 @083   ----------------------------------------
 .byte   PATT
  .word Label_0142E0F5
@  #12 @084   ----------------------------------------
 .byte   PATT
  .word Label_0142E102
@  #12 @085   ----------------------------------------
 .byte   PATT
  .word Label_0142E17B
@  #12 @086   ----------------------------------------
 .byte   PATT
  .word Label_0142E185
@  #12 @087   ----------------------------------------
 .byte   PATT
  .word Label_0142E17B
@  #12 @088   ----------------------------------------
 .byte   PATT
  .word Label_0142E185
@  #12 @089   ----------------------------------------
 .byte   PATT
  .word Label_0142E19D
@  #12 @090   ----------------------------------------
 .byte   PATT
  .word Label_0142E19D
@  #12 @091   ----------------------------------------
 .byte   PATT
  .word Label_0142E19D
@  #12 @092   ----------------------------------------
 .byte   PATT
  .word Label_0142E1B2
@  #12 @093   ----------------------------------------
 .byte   PATT
  .word Label_0142E19D
@  #12 @094   ----------------------------------------
 .byte   PATT
  .word Label_0142E19D
@  #12 @095   ----------------------------------------
 .byte   PATT
  .word Label_0142E19D
@  #12 @096   ----------------------------------------
 .byte   PATT
  .word Label_0142E1B2
@  #12 @097   ----------------------------------------
 .byte   W96
@  #12 @098   ----------------------------------------
 .byte   W48
 .byte   W96
@  #12 @099   ----------------------------------------
 .byte   W48
 .byte   W96
@  #12 @100   ----------------------------------------
 .byte   W48
 .byte   W96
@  #12 @101   ----------------------------------------
 .byte   W48
 .byte   W96
@  #12 @102   ----------------------------------------
 .byte   W48
 .byte   W96
@  #12 @103   ----------------------------------------
 .byte   W48
 .byte   W96
@  #12 @104   ----------------------------------------
 .byte   W48
 .byte   W96
@  #12 @105   ----------------------------------------
 .byte   W48
 .byte   W96
@  #12 @106   ----------------------------------------
 .byte   W48
@  #12 @107   ----------------------------------------
 .byte   PATT
  .word Label_0142E207
@  #12 @108   ----------------------------------------
 .byte   PATT
  .word Label_0142E207
@  #12 @109   ----------------------------------------
 .byte   PATT
  .word Label_0142E207
@  #12 @110   ----------------------------------------
 .byte   PATT
  .word Label_0142E207
@  #12 @111   ----------------------------------------
 .byte   PATT
  .word Label_0142E207
@  #12 @112   ----------------------------------------
 .byte   PATT
  .word Label_0142E207
@  #12 @113   ----------------------------------------
 .byte   PATT
  .word Label_0142E207
@  #12 @114   ----------------------------------------
 .byte   PATT
  .word Label_0142E253
@  #12 @115   ----------------------------------------
 .byte   W96
@  #12 @116   ----------------------------------------
 .byte   W48
 .byte   W96
@  #12 @117   ----------------------------------------
 .byte   W48
 .byte   W96
@  #12 @118   ----------------------------------------
 .byte   W48
 .byte   W96
@  #12 @119   ----------------------------------------
 .byte   W48
 .byte   W96
@  #12 @120   ----------------------------------------
 .byte   W48
 .byte   W96
@  #12 @121   ----------------------------------------
 .byte   W48
 .byte   W96
@  #12 @122   ----------------------------------------
 .byte   W48
 .byte   W96
@  #12 @123   ----------------------------------------
 .byte   W44
 .byte   W03
 .byte   FINE

@******************************************************@
	.align	2

song04:
	.byte	12	@ NumTrks
	.byte	0	@ NumBlks
	.byte	song04_pri	@ Priority
	.byte	song04_rev	@ Reverb.
    
	.word	song04_grp
    
	.word	song04_001
	.word	song04_002
	.word	song04_003
	.word	song04_004
	.word	song04_005
	.word	song04_006
	.word	song04_007
	.word	song04_008
	.word	song04_009
	.word	song04_010
	.word	song04_011
	.word	song04_012

	.end
