//Event file generated from Sappy .s format.
	#include "MPlayDef.event"

	#define	RunaAttack_grp  voicegroup000
	#define	RunaAttack_pri  0
	#define	RunaAttack_rev  0
	#define	RunaAttack_mvl  127
	#define	RunaAttack_key  0
	#define	RunaAttack_tbs  1
	#define	RunaAttack_exg  0
	#define	RunaAttack_cmp  1

	// .rodata
	//	RunaAttack
	ALIGN 4


//**************** Track 1 (Midi-Chn.0) ****************//

RunaAttack_001:
//  #01 //000   ----------------------------------------
 BYTE   KEYSH   RunaAttack_key+0
Label_017C3E2E:
 BYTE   TEMPO   160*RunaAttack_tbs/2
 BYTE   VOICE   104
 BYTE   VOL   31*RunaAttack_mvl/mxv
 BYTE   PAN   c_v+0
 BYTE   En3  v064
 BYTE   PAN   c_v+0
 BYTE   BEND   c_v+0
 BYTE   N17  Dn3  v100
 BYTE   W18
 BYTE   Fn3
 BYTE   W18
 BYTE   N11  An3
 BYTE   W12
 BYTE   Fn3
 BYTE   W12
 BYTE   Dn3
 BYTE   W12
 BYTE   N17  Cn3
 BYTE   W18
 BYTE   Dn3
 BYTE   W06
//  #01 //001   ----------------------------------------
 BYTE   W12
 BYTE   N11  En3
 BYTE   W12
 BYTE   N17  Dn3
 BYTE   W18
 BYTE   Fn3
 BYTE   W18
 BYTE   N11  An3
 BYTE   W12
 BYTE   Fn3
 BYTE   W12
 BYTE   Dn3
 BYTE   W12
//  #01 //002   ----------------------------------------
 BYTE   N17  An3
 BYTE   W18
 BYTE   Bn3
 BYTE   W18
 BYTE   N11  Cn4
 BYTE   W12
 BYTE   N17  Dn3
 BYTE   W18
 BYTE   Fn3
 BYTE   W18
 BYTE   N11  An3
 BYTE   W12
//  #01 //003   ----------------------------------------
 BYTE   Fn3
 BYTE   W12
 BYTE   Dn3
 BYTE   W12
 BYTE   Cn3
 BYTE   W12
 BYTE   An2
 BYTE   W12
 BYTE   Dn3
 BYTE   W12
 BYTE   Cn3
 BYTE   W12
 BYTE   N17  Dn3
 BYTE   W18
 BYTE   Fn3
 BYTE   W06
//  #01 //004   ----------------------------------------
 BYTE   W12
 BYTE   N11  An3
 BYTE   W12
 BYTE   Dn4
 BYTE   W12
 BYTE   Cn4
 BYTE   W12
 BYTE   N08  An3
 BYTE   W09
 BYTE   Fn3
 BYTE   W09
 BYTE   Cn3
 BYTE   W09
 BYTE   Gn2
 BYTE   W09
 BYTE   N05  Cn3
 BYTE   W06
 BYTE   En3
 BYTE   W06
//  #01 //005   ----------------------------------------
 BYTE   N11  Dn3
 BYTE   W12
 BYTE   Cn3
 BYTE   W12
 BYTE   Fn3
 BYTE   W12
 BYTE   En3
 BYTE   W12
 BYTE   N05  An3
 BYTE   W06
 BYTE   Dn4
 BYTE   W06
 BYTE   Cn4
 BYTE   W06
 BYTE   An3
 BYTE   W06
 BYTE   Gn3
 BYTE   W06
 BYTE   Fn3
 BYTE   W06
 BYTE   Dn3
 BYTE   W06
 BYTE   Cn3
 BYTE   W06
//  #01 //006   ----------------------------------------
 BYTE   An2
 BYTE   W06
 BYTE   Cn3
 BYTE   W06
 BYTE   An3
 BYTE   W06
 BYTE   Fn3
 BYTE   W06
 BYTE   N23  Dn3
 BYTE   W24
 BYTE   Cn3
 BYTE   W24
 BYTE   Fn3
 BYTE   W24
//  #01 //007   ----------------------------------------
 BYTE   En3
 BYTE   W24
 BYTE   Cn3
 BYTE   W24
 BYTE   N11  An2
 BYTE   W12
 BYTE   Gn2
 BYTE   W12
 BYTE   Cn3
 BYTE   W12
 BYTE   An2
 BYTE   W12
//  #01 //008   ----------------------------------------
 BYTE   N05  Fn3
 BYTE   W06
 BYTE   En3
 BYTE   W06
 BYTE   Fn3
 BYTE   W06
 BYTE   En3
 BYTE   W06
 BYTE   Dn3
 BYTE   W06
 BYTE   Cn3
 BYTE   W06
 BYTE   Dn3
 BYTE   W06
 BYTE   An2
 BYTE   W06
 BYTE   N11  Cn3
 BYTE   W12
 BYTE   N05  En3
 BYTE   W06
 BYTE   Fn3
 BYTE   W06
 BYTE   N17  Dn3
 BYTE   W18
 BYTE   N05  Cn3
 BYTE   W06
//  #01 //009   ----------------------------------------
 BYTE   N17  Fn3
 BYTE   W18
 BYTE   N05  En3
 BYTE   W06
 BYTE   An3
 BYTE   W06
 BYTE   Cn4
 BYTE   W06
 BYTE   Dn4
 BYTE   W06
 BYTE   Cn4
 BYTE   W06
 BYTE   An3
 BYTE   W06
 BYTE   Gn3
 BYTE   W06
 BYTE   Fn3
 BYTE   W06
 BYTE   En3
 BYTE   W06
 BYTE   N11  An3
 BYTE   W12
 BYTE   Gn3
 BYTE   W12
//  #01 //010   ----------------------------------------
 BYTE   N17  Dn3
 BYTE   W18
 BYTE   N05  Cn3
 BYTE   W06
 BYTE   N17  Fn3
 BYTE   W18
 BYTE   N05  En3
 BYTE   W06
 BYTE   An3
 BYTE   W06
 BYTE   Cn4
 BYTE   W06
 BYTE   An3
 BYTE   W06
 BYTE   Gn3
 BYTE   W06
 BYTE   An3
 BYTE   W06
 BYTE   Gn3
 BYTE   W06
 BYTE   Fn3
 BYTE   W06
 BYTE   Gn3
 BYTE   W06
//  #01 //011   ----------------------------------------
 BYTE   N68  Dn4
 BYTE   W72
 BYTE   Dn3
 BYTE   W24
//  #01 //012   ----------------------------------------
 BYTE   W48
 BYTE   Dn4
 BYTE   W48
//  #01 //013   ----------------------------------------
 BYTE   W24
 BYTE   N44  Cn4
 BYTE   W48
 BYTE   N11
 BYTE   W12
 BYTE   An3
 BYTE   W12
//  #01 //014   ----------------------------------------
 BYTE   Gn3
 BYTE   W12
 BYTE   Fn3
 BYTE   W12
 BYTE   N08  En3
 BYTE   W09
 BYTE   Fn3
 BYTE   W09
 BYTE   N05  Gn3
 BYTE   W06
 BYTE   N11  Fn3
 BYTE   W12
 BYTE   En3
 BYTE   W12
 BYTE   N08  Cn3
 BYTE   W09
 BYTE   Dn3
 BYTE   W09
 BYTE   N05  En3
 BYTE   W06
//  #01 //015   ----------------------------------------
 BYTE   GoTo
  POIN2 Label_017C3E2E
//  #01 //016   ----------------------------------------
 BYTE   PAN   c_v+0
 BYTE   En3  v064
 BYTE   BEND   c_v+0
 BYTE   FINE

//**************** Track 2 (Midi-Chn.1) ****************//

RunaAttack_002:
//  #02 //000   ----------------------------------------
 BYTE   KEYSH   RunaAttack_key+0
Label_017C3AEE:
 BYTE   VOICE   100
 BYTE   VOL   31*RunaAttack_mvl/mxv
 BYTE   PAN   c_v+0
 BYTE   En3  v064
 BYTE   PAN   c_v+0
 BYTE   BEND   c_v+0
 BYTE   N17  Dn4  v100
 BYTE   W18
 BYTE   Fn4
 BYTE   W18
 BYTE   N11  An4
 BYTE   W12
 BYTE   Fn4
 BYTE   W12
 BYTE   Dn4
 BYTE   W12
 BYTE   N17  Cn4
 BYTE   W18
 BYTE   Dn4
 BYTE   W06
//  #02 //001   ----------------------------------------
 BYTE   W12
 BYTE   N11  En4
 BYTE   W12
 BYTE   N17  Dn4
 BYTE   W18
 BYTE   Fn4
 BYTE   W18
 BYTE   N11  An4
 BYTE   W12
 BYTE   Fn4
 BYTE   W12
 BYTE   Dn4
 BYTE   W12
//  #02 //002   ----------------------------------------
 BYTE   N17  An4
 BYTE   W18
 BYTE   Bn4
 BYTE   W18
 BYTE   N11  Cn5
 BYTE   W12
 BYTE   N17  Dn4
 BYTE   W18
 BYTE   Fn4
 BYTE   W18
 BYTE   N11  An4
 BYTE   W12
//  #02 //003   ----------------------------------------
 BYTE   Fn4
 BYTE   W12
 BYTE   Dn4
 BYTE   W12
 BYTE   Cn4
 BYTE   W12
 BYTE   An3
 BYTE   W12
 BYTE   Dn4
 BYTE   W12
 BYTE   Cn4
 BYTE   W12
 BYTE   N17  Dn4
 BYTE   W18
 BYTE   Fn4
 BYTE   W06
//  #02 //004   ----------------------------------------
 BYTE   W12
 BYTE   N11  An4
 BYTE   W12
 BYTE   Dn5
 BYTE   W12
 BYTE   Cn5
 BYTE   W12
 BYTE   N08  An4
 BYTE   W09
 BYTE   Fn4
 BYTE   W09
 BYTE   Cn4
 BYTE   W09
 BYTE   Gn3
 BYTE   W09
 BYTE   N05  Cn4
 BYTE   W06
 BYTE   En4
 BYTE   W06
//  #02 //005   ----------------------------------------
 BYTE   N11  Dn4
 BYTE   W12
 BYTE   Cn4
 BYTE   W12
 BYTE   Fn4
 BYTE   W12
 BYTE   En4
 BYTE   W12
 BYTE   N05  An4
 BYTE   W06
 BYTE   Dn5
 BYTE   W06
 BYTE   Cn5
 BYTE   W06
 BYTE   An4
 BYTE   W06
 BYTE   Gn4
 BYTE   W06
 BYTE   Fn4
 BYTE   W06
 BYTE   Dn4
 BYTE   W06
 BYTE   Cn4
 BYTE   W06
//  #02 //006   ----------------------------------------
 BYTE   An3
 BYTE   W06
 BYTE   Cn4
 BYTE   W06
 BYTE   An4
 BYTE   W06
 BYTE   Fn4
 BYTE   W06
 BYTE   N23  Dn4
 BYTE   W24
 BYTE   Cn4
 BYTE   W24
 BYTE   Fn4
 BYTE   W24
//  #02 //007   ----------------------------------------
 BYTE   En4
 BYTE   W24
 BYTE   Cn4
 BYTE   W24
 BYTE   N11  An3
 BYTE   W12
 BYTE   Gn3
 BYTE   W12
 BYTE   Cn4
 BYTE   W12
 BYTE   An3
 BYTE   W12
//  #02 //008   ----------------------------------------
 BYTE   N05  Fn4
 BYTE   W06
 BYTE   En4
 BYTE   W06
 BYTE   Fn4
 BYTE   W06
 BYTE   En4
 BYTE   W06
 BYTE   Dn4
 BYTE   W06
 BYTE   Cn4
 BYTE   W06
 BYTE   Dn4
 BYTE   W06
 BYTE   An3
 BYTE   W06
 BYTE   N11  Cn4
 BYTE   W12
 BYTE   N05  En4
 BYTE   W06
 BYTE   Fn4
 BYTE   W06
 BYTE   N17  Dn4
 BYTE   W18
 BYTE   N05  Cn4
 BYTE   W06
//  #02 //009   ----------------------------------------
 BYTE   N17  Fn4
 BYTE   W18
 BYTE   N05  En4
 BYTE   W06
 BYTE   An4
 BYTE   W06
 BYTE   Cn5
 BYTE   W06
 BYTE   Dn5
 BYTE   W06
 BYTE   Cn5
 BYTE   W06
 BYTE   An4
 BYTE   W06
 BYTE   Gn4
 BYTE   W06
 BYTE   Fn4
 BYTE   W06
 BYTE   En4
 BYTE   W06
 BYTE   N11  An4
 BYTE   W12
 BYTE   Gn4
 BYTE   W12
//  #02 //010   ----------------------------------------
 BYTE   N17  Dn4
 BYTE   W18
 BYTE   N05  Cn4
 BYTE   W06
 BYTE   N17  Fn4
 BYTE   W18
 BYTE   N05  En4
 BYTE   W06
 BYTE   An4
 BYTE   W06
 BYTE   Cn5
 BYTE   W06
 BYTE   An4
 BYTE   W06
 BYTE   Gn4
 BYTE   W06
 BYTE   An4
 BYTE   W06
 BYTE   Gn4
 BYTE   W06
 BYTE   Fn4
 BYTE   W06
 BYTE   Gn4
 BYTE   W06
//  #02 //011   ----------------------------------------
 BYTE   N68  Dn5
 BYTE   W72
 BYTE   Dn4
 BYTE   W24
//  #02 //012   ----------------------------------------
 BYTE   W48
 BYTE   Dn5
 BYTE   W48
//  #02 //013   ----------------------------------------
 BYTE   W24
 BYTE   N44  Cn5
 BYTE   W48
 BYTE   N11
 BYTE   W12
 BYTE   An4
 BYTE   W12
//  #02 //014   ----------------------------------------
 BYTE   Gn4
 BYTE   W12
 BYTE   Fn4
 BYTE   W12
 BYTE   N08  En4
 BYTE   W09
 BYTE   Fn4
 BYTE   W09
 BYTE   N05  Gn4
 BYTE   W06
 BYTE   N11  Fn4
 BYTE   W12
 BYTE   En4
 BYTE   W12
 BYTE   N08  Cn4
 BYTE   W09
 BYTE   Dn4
 BYTE   W09
 BYTE   N05  En4
 BYTE   W06
//  #02 //015   ----------------------------------------
 BYTE   GoTo
  POIN2 Label_017C3AEE
//  #02 //016   ----------------------------------------
 BYTE   PAN   c_v+0
 BYTE   En3  v064
 BYTE   BEND   c_v+0
 BYTE   FINE

//**************** Track 3 (Midi-Chn.2) ****************//

RunaAttack_003:
//  #03 //000   ----------------------------------------
 BYTE   KEYSH   RunaAttack_key+0
Label_017C415E:
 BYTE   VOICE   36
 BYTE   VOL   61*RunaAttack_mvl/mxv
 BYTE   PAN   c_v+0
 BYTE   En3  v064
 BYTE   PAN   c_v+0
 BYTE   BEND   c_v+0
 BYTE   N23  Dn2  v100
 BYTE   W24
 BYTE   N23
 BYTE   W24
 BYTE   N23
 BYTE   W24
 BYTE   Cn2
 BYTE   W24
//  #03 //001   ----------------------------------------
 BYTE   N23
 BYTE   W24
 BYTE   Dn2
 BYTE   W24
 BYTE   N23
 BYTE   W24
 BYTE   N23
 BYTE   W24
//  #03 //002   ----------------------------------------
 BYTE   Fn2
 BYTE   W24
 BYTE   En2
 BYTE   W24
 BYTE   Dn2
 BYTE   W24
 BYTE   N23
 BYTE   W24
//  #03 //003   ----------------------------------------
 BYTE   N23
 BYTE   W24
 BYTE   Cn2
 BYTE   W24
 BYTE   Fn2
 BYTE   W24
 BYTE   Dn2
 BYTE   W24
//  #03 //004   ----------------------------------------
 BYTE   N23
 BYTE   W24
 BYTE   N23
 BYTE   W24
 BYTE   Fn2
 BYTE   W24
 BYTE   An2
 BYTE   W24
//  #03 //005   ----------------------------------------
 BYTE   N11  Dn2
 BYTE   W36
 BYTE   N11
 BYTE   W12
 BYTE   N11
 BYTE   W36
 BYTE   N11
 BYTE   W12
//  #03 //006   ----------------------------------------
 BYTE   W12
 BYTE   N11
 BYTE   W12
 BYTE   N23
 BYTE   W24
 BYTE   N23
 BYTE   W48
//  #03 //007   ----------------------------------------
 BYTE   N23
 BYTE   W24
 BYTE   N23
 BYTE   W24
 BYTE   Cn2
 BYTE   W24
 BYTE   N23
 BYTE   W24
//  #03 //008   ----------------------------------------
 BYTE   W24
 BYTE   N23
 BYTE   W24
 BYTE   N23
 BYTE   W24
 BYTE   As1
 BYTE   W24
//  #03 //009   ----------------------------------------
 BYTE   N23
 BYTE   W48
 BYTE   N23
 BYTE   W24
 BYTE   N23
 BYTE   W24
//  #03 //010   ----------------------------------------
 BYTE   Cn2
 BYTE   W24
 BYTE   Dn2
 BYTE   W24
 BYTE   En2
 BYTE   W24
 BYTE   Fn2
 BYTE   W24
//  #03 //011   ----------------------------------------
 BYTE   TIE  Dn2
 BYTE   W96
//  #03 //012   ----------------------------------------
 BYTE   W96
//  #03 //013   ----------------------------------------
 BYTE   W23
 BYTE   EOT
 BYTE   W01
 BYTE   N44  Cn2
 BYTE   W48
 BYTE   N68
 BYTE   W24
//  #03 //014   ----------------------------------------
 BYTE   W48
 BYTE   N23  An1
 BYTE   W24
 BYTE   Cn2
 BYTE   W24
//  #03 //015   ----------------------------------------
 BYTE   GoTo
  POIN2 Label_017C415E
//  #03 //016   ----------------------------------------
 BYTE   PAN   c_v+0
 BYTE   En3  v064
 BYTE   BEND   c_v+0
 BYTE   FINE

//**************** Track 4 (Midi-Chn.3) ****************//

RunaAttack_004:
//  #04 //000   ----------------------------------------
 BYTE   KEYSH   RunaAttack_key+0
Label_01606E52:
 BYTE   VOICE   81
 BYTE   VOL   23*RunaAttack_mvl/mxv
 BYTE   PAN   c_v+0
 BYTE   En3  v064
 BYTE   PAN   c_v+0
 BYTE   BEND   c_v+0
 BYTE   N68  Dn3  v100
 BYTE   N68  Fn3
 BYTE   N68  An3
 BYTE   W72
 BYTE   N44  Cn3
 BYTE   N44  En3
 BYTE   N44  Gn3
 BYTE   W24
//  #04 //001   ----------------------------------------
 BYTE   W24
 BYTE   N68  Dn3
 BYTE   N68  Fn3
 BYTE   N68  An3
 BYTE   W72
//  #04 //002   ----------------------------------------
 BYTE   N44  Fn3
 BYTE   N44  An3
 BYTE   N44  Cn4
 BYTE   W48
 BYTE   N68  Dn3
 BYTE   N68  Fn3
 BYTE   N68  An3
 BYTE   W48
//  #04 //003   ----------------------------------------
 BYTE   W24
 BYTE   N44  Cn3
 BYTE   N44  En3
 BYTE   N44  Gn3
 BYTE   W48
 BYTE   N68  Dn3
 BYTE   N68  Fn3
 BYTE   N68  An3
 BYTE   W24
//  #04 //004   ----------------------------------------
 BYTE   W48
 BYTE   N23  Fn3
 BYTE   N23  An3
 BYTE   N23  Cn4
 BYTE   W24
 BYTE   Cn3
 BYTE   N23  En3
 BYTE   N23  Gn3
 BYTE   W24
//  #04 //005   ----------------------------------------
 BYTE   N11  Fn3
 BYTE   N11  An3
 BYTE   N11  Dn4
 BYTE   W36
 BYTE   Fn3
 BYTE   N11  An3
 BYTE   N11  Dn4
 BYTE   W12
 BYTE   Fn3
 BYTE   N11  An3
 BYTE   N11  Dn4
 BYTE   W36
 BYTE   Fn3
 BYTE   N11  An3
 BYTE   N11  Dn4
 BYTE   W12
//  #04 //006   ----------------------------------------
 BYTE   W12
 BYTE   Fn3
 BYTE   N11  An3
 BYTE   N11  Dn4
 BYTE   W12
 BYTE   N44  Fn3
 BYTE   N44  An3
 BYTE   N44  Dn4
 BYTE   W72
//  #04 //007   ----------------------------------------
 BYTE   Dn3
 BYTE   N44  Fn3
 BYTE   N44  An3
 BYTE   W48
 BYTE   Cn3
 BYTE   N44  En3
 BYTE   N44  Gn3
 BYTE   W48
//  #04 //008   ----------------------------------------
 BYTE   W24
 BYTE   En3
 BYTE   N44  Gn3
 BYTE   N44  Cn4
 BYTE   W48
 BYTE   As2
 BYTE   N44  Dn3
 BYTE   N44  Fn3
 BYTE   W24
//  #04 //009   ----------------------------------------
 BYTE   W48
 BYTE   Dn3
 BYTE   N44  Fn3
 BYTE   N44  As3
 BYTE   W48
//  #04 //010   ----------------------------------------
 BYTE   Fn3
 BYTE   N44  An3
 BYTE   N44  Dn4
 BYTE   W48
 BYTE   En3
 BYTE   N44  Gn3
 BYTE   N44  Cn4
 BYTE   W48
//  #04 //011   ----------------------------------------
 BYTE   N68  Dn3
 BYTE   N68  Fn3
 BYTE   N68  An3
 BYTE   W96
//  #04 //012   ----------------------------------------
 BYTE   W96
//  #04 //013   ----------------------------------------
 BYTE   W96
//  #04 //014   ----------------------------------------
 BYTE   W96
//  #04 //015   ----------------------------------------
 BYTE   GoTo
  POIN2 Label_01606E52
//  #04 //016   ----------------------------------------
 BYTE   PAN   c_v+0
 BYTE   En3  v064
 BYTE   BEND   c_v+0
 BYTE   FINE

//**************** Track 5 (Midi-Chn.4) ****************//

RunaAttack_005:
//  #05 //000   ----------------------------------------
 BYTE   KEYSH   RunaAttack_key+0
Label_01606F1A:
 BYTE   VOICE   121
 BYTE   VOL   46*RunaAttack_mvl/mxv
 BYTE   PAN   c_v+0
 BYTE   En3  v064
 BYTE   PAN   c_v+0
 BYTE   BEND   c_v+0
 BYTE   N23  Cn1  v100
 BYTE   N05  Fs1
 BYTE   W06
 BYTE   N05
 BYTE   W06
 BYTE   N05
 BYTE   W06
 BYTE   N05
 BYTE   W06
 BYTE   N11  Cn1
 BYTE   N23  Dn1
 BYTE   N05  Fs1
 BYTE   W06
 BYTE   N05
 BYTE   W06
 BYTE   N11  Cn1
 BYTE   N05  Fs1
 BYTE   W06
 BYTE   N05
 BYTE   W06
 BYTE   N23  Cn1
 BYTE   N05  Fs1
 BYTE   W06
 BYTE   N05
 BYTE   W06
 BYTE   N05
 BYTE   W06
 BYTE   N05
 BYTE   W06
 BYTE   N23  Cn1
 BYTE   N23  Dn1
 BYTE   N05  Fs1
 BYTE   W06
 BYTE   N05
 BYTE   W06
 BYTE   N05
 BYTE   W06
 BYTE   N05
 BYTE   W06
//  #05 //001   ----------------------------------------
 BYTE   N11  Cn1
 BYTE   N05  Fs1
 BYTE   W06
 BYTE   N05
 BYTE   W06
 BYTE   N11  Cn1
 BYTE   N11  Ds1
 BYTE   N05  Fs1
 BYTE   W06
 BYTE   N05
 BYTE   W06
 BYTE   N23  Cn1
 BYTE   N05  Fs1
 BYTE   W06
 BYTE   N05
 BYTE   W06
 BYTE   N05
 BYTE   W06
 BYTE   N05
 BYTE   W06
 BYTE   N11  Cn1
 BYTE   N23  Dn1
 BYTE   N05  Fs1
 BYTE   W06
 BYTE   N05
 BYTE   W06
 BYTE   N11  Cn1
 BYTE   N05  Fs1
 BYTE   W06
 BYTE   N05
 BYTE   W06
 BYTE   N23  Cn1
 BYTE   N05  Fs1
 BYTE   W06
 BYTE   N05
 BYTE   W06
 BYTE   N05
 BYTE   W06
 BYTE   N05
 BYTE   W06
//  #05 //002   ----------------------------------------
 BYTE   N23  Cn1
 BYTE   N23  Dn1
 BYTE   N05  Fs1
 BYTE   W06
 BYTE   N05
 BYTE   W06
 BYTE   N05
 BYTE   W06
 BYTE   N05
 BYTE   W06
 BYTE   N11  Cn1
 BYTE   N11  Ds1
 BYTE   N05  Fs1
 BYTE   W06
 BYTE   N05
 BYTE   W06
 BYTE   N11  Cn1
 BYTE   N11  Dn1
 BYTE   N05  Fs1
 BYTE   W06
 BYTE   N05
 BYTE   W06
 BYTE   N23  Cn1
 BYTE   N05  Fs1
 BYTE   W06
 BYTE   N05
 BYTE   W06
 BYTE   N05
 BYTE   W06
 BYTE   N05
 BYTE   W06
 BYTE   N11  Cn1
 BYTE   N23  Dn1
 BYTE   N05  Fs1
 BYTE   W06
 BYTE   N05
 BYTE   W06
 BYTE   N11  Cn1
 BYTE   N05  Fs1
 BYTE   W06
 BYTE   N05
 BYTE   W06
//  #05 //003   ----------------------------------------
 BYTE   N23  Cn1
 BYTE   N05  Fs1
 BYTE   W06
 BYTE   N05
 BYTE   W06
 BYTE   N05
 BYTE   W06
 BYTE   N05
 BYTE   W06
 BYTE   N23  Cn1
 BYTE   N23  Dn1
 BYTE   N05  Fs1
 BYTE   W06
 BYTE   N05
 BYTE   W06
 BYTE   N05
 BYTE   W06
 BYTE   N05
 BYTE   W06
 BYTE   N11  Cn1
 BYTE   N05  Fs1
 BYTE   W06
 BYTE   N05
 BYTE   W06
 BYTE   N11  Cn1
 BYTE   N11  Ds1
 BYTE   N05  Fs1
 BYTE   W06
 BYTE   N05
 BYTE   W06
 BYTE   N23  Cn1
 BYTE   N05  Fs1
 BYTE   W06
 BYTE   N05
 BYTE   W06
 BYTE   N05
 BYTE   W06
 BYTE   N05
 BYTE   W06
//  #05 //004   ----------------------------------------
 BYTE   N11  Cn1
 BYTE   N23  Dn1
 BYTE   N05  Fs1
 BYTE   W06
 BYTE   N05
 BYTE   W06
 BYTE   N11  Cn1
 BYTE   N05  Fs1
 BYTE   W06
 BYTE   N05
 BYTE   W06
 BYTE   N23  Cn1
 BYTE   N23  Dn1
 BYTE   N05  Fs1
 BYTE   W06
 BYTE   N05
 BYTE   W06
 BYTE   N05
 BYTE   W06
 BYTE   N05
 BYTE   W06
 BYTE   N23  Cn1
 BYTE   N23  Dn1
 BYTE   N05  Fs1
 BYTE   W06
 BYTE   N05
 BYTE   W06
 BYTE   N05
 BYTE   W06
 BYTE   N05
 BYTE   W06
 BYTE   N11  Cn1
 BYTE   N05  Fs1
 BYTE   W06
 BYTE   N05
 BYTE   W06
 BYTE   N11  Cn1
 BYTE   N11  Ds1
 BYTE   N05  Fs1
 BYTE   W06
 BYTE   N05
 BYTE   W06
//  #05 //005   ----------------------------------------
 BYTE   N11  Cn1
 BYTE   N11  Dn1
 BYTE   TIE  Cs2
 BYTE   W12
 BYTE   N11  Cn1
 BYTE   N11  Dn1
 BYTE   W12
 BYTE   N23  Cn1
 BYTE   N05  Dn1
 BYTE   W06
 BYTE   N05
 BYTE   W06
 BYTE   N11
 BYTE   W12
 BYTE   Cn1
 BYTE   N05  Dn1
 BYTE   W06
 BYTE   N05
 BYTE   W06
 BYTE   N11  Cn1
 BYTE   N11  Dn1
 BYTE   W12
 BYTE   Cn1
 BYTE   N11  Ds1
 BYTE   W12
 BYTE   Cn1
 BYTE   N11  Dn1
 BYTE   W12
//  #05 //006   ----------------------------------------
 BYTE   N23  Cn1
 BYTE   N05  Dn1
 BYTE   W06
 BYTE   N05
 BYTE   W06
 BYTE   N11
 BYTE   W11
 BYTE   EOT
 BYTE   Cs2
 BYTE   W01
 BYTE   N23  Cn1
 BYTE   N05  Fs1
 BYTE   W06
 BYTE   N05
 BYTE   W06
 BYTE   N05
 BYTE   W06
 BYTE   N05
 BYTE   W06
 BYTE   N11  Cn1
 BYTE   N23  Dn1
 BYTE   N05  Fs1
 BYTE   W06
 BYTE   N05
 BYTE   W06
 BYTE   N11  Cn1
 BYTE   N05  Fs1
 BYTE   W06
 BYTE   N05
 BYTE   W06
 BYTE   N23  Cn1
 BYTE   N05  Fs1
 BYTE   W06
 BYTE   N05
 BYTE   W06
 BYTE   N05
 BYTE   W06
 BYTE   N05
 BYTE   W06
//  #05 //007   ----------------------------------------
 BYTE   N23  Cn1
 BYTE   N23  Dn1
 BYTE   N05  Fs1
 BYTE   W06
 BYTE   N05
 BYTE   W06
 BYTE   N05
 BYTE   W06
 BYTE   N05
 BYTE   W06
 BYTE   N11  Cn1
 BYTE   N05  Fs1
 BYTE   W06
 BYTE   N05
 BYTE   W06
 BYTE   N11  Cn1
 BYTE   N11  Ds1
 BYTE   N05  Fs1
 BYTE   W06
 BYTE   N05
 BYTE   W06
 BYTE   N23  Cn1
 BYTE   N05  Fs1
 BYTE   W06
 BYTE   N05
 BYTE   W06
 BYTE   N05
 BYTE   W06
 BYTE   N05
 BYTE   W06
 BYTE   N11  Cn1
 BYTE   N23  Dn1
 BYTE   N05  Fs1
 BYTE   W06
 BYTE   N05
 BYTE   W06
 BYTE   N11  Cn1
 BYTE   N05  Fs1
 BYTE   W06
 BYTE   N05
 BYTE   W06
//  #05 //008   ----------------------------------------
 BYTE   N23  Cn1
 BYTE   N05  Fs1
 BYTE   W06
 BYTE   N05
 BYTE   W06
 BYTE   N05
 BYTE   W06
 BYTE   N05
 BYTE   W06
 BYTE   N23  Cn1
 BYTE   N23  Dn1
 BYTE   N05  Fs1
 BYTE   W06
 BYTE   N05
 BYTE   W06
 BYTE   N05
 BYTE   W06
 BYTE   N05
 BYTE   W06
 BYTE   N11  Cn1
 BYTE   N11  Ds1
 BYTE   N05  Fs1
 BYTE   W06
 BYTE   N05
 BYTE   W06
 BYTE   N11  Cn1
 BYTE   N11  Dn1
 BYTE   N05  Fs1
 BYTE   W06
 BYTE   N05
 BYTE   W06
 BYTE   N23  Cn1
 BYTE   N05  Fs1
 BYTE   W06
 BYTE   N05
 BYTE   W06
 BYTE   N05
 BYTE   W06
 BYTE   N05
 BYTE   W06
//  #05 //009   ----------------------------------------
Label_016070FD:
 BYTE   N11  Cn1  v100
 BYTE   N23  Dn1
 BYTE   N05  Fs1
 BYTE   W06
 BYTE   N05
 BYTE   W06
 BYTE   N11  Cn1
 BYTE   N05  Fs1
 BYTE   W06
 BYTE   N05
 BYTE   W06
 BYTE   N23  Cn1
 BYTE   N05  Fs1
 BYTE   W06
 BYTE   N05
 BYTE   W06
 BYTE   N05
 BYTE   W06
 BYTE   N05
 BYTE   W06
 BYTE   N23  Cn1
 BYTE   N23  Dn1
 BYTE   N05  Fs1
 BYTE   W06
 BYTE   N05
 BYTE   W06
 BYTE   N05
 BYTE   W06
 BYTE   N05
 BYTE   W06
 BYTE   N11  Cn1
 BYTE   N05  Fs1
 BYTE   W06
 BYTE   N05
 BYTE   W06
 BYTE   N11  Cn1
 BYTE   N11  Ds1
 BYTE   N05  Fs1
 BYTE   W06
 BYTE   N05
 BYTE   W06
 BYTE   PEND 
//  #05 //010   ----------------------------------------
 BYTE   N23  Cn1
 BYTE   N05  Fs1
 BYTE   W06
 BYTE   N05
 BYTE   W06
 BYTE   N05
 BYTE   W06
 BYTE   N05
 BYTE   W06
 BYTE   N11  Cn1
 BYTE   N23  Dn1
 BYTE   N05  Fs1
 BYTE   W06
 BYTE   N05
 BYTE   W06
 BYTE   N11  Cn1
 BYTE   N05  Fs1
 BYTE   W06
 BYTE   N05
 BYTE   W06
 BYTE   N23  Cn1
 BYTE   N23  Dn1
 BYTE   N05  Fs1
 BYTE   W06
 BYTE   N05
 BYTE   W06
 BYTE   N05
 BYTE   W06
 BYTE   N05
 BYTE   W06
 BYTE   N23  Cn1
 BYTE   N23  Dn1
 BYTE   N05  Fs1
 BYTE   W06
 BYTE   N05
 BYTE   W06
 BYTE   N05
 BYTE   TIE  Fn2
 BYTE   W06
 BYTE   N05  Fs1
 BYTE   W06
//  #05 //011   ----------------------------------------
 BYTE   W96
//  #05 //012   ----------------------------------------
 BYTE   W96
//  #05 //013   ----------------------------------------
 BYTE   W23
 BYTE   EOT
 BYTE   Fn2
 BYTE   W01
 BYTE   N23  Cn1
 BYTE   N23  Dn1
 BYTE   W24
 BYTE   N11  Cn1
 BYTE   N23  Ds1
 BYTE   W12
 BYTE   N11  Cn1
 BYTE   W12
 BYTE   N23
 BYTE   N05  Fs1
 BYTE   W06
 BYTE   N05
 BYTE   W06
 BYTE   N05
 BYTE   W06
 BYTE   N05
 BYTE   W06
//  #05 //014   ----------------------------------------
 BYTE   PATT
  POIN2 Label_016070FD
//  #05 //015   ----------------------------------------
 BYTE   GoTo
  POIN2 Label_01606F1A
//  #05 //016   ----------------------------------------
 BYTE   PAN   c_v+0
 BYTE   En3  v064
 BYTE   BEND   c_v+0
 BYTE   FINE

//******************************************************//
	ALIGN 4

RunaAttack:
	BYTE	5	// NumTrks
	BYTE	0	// NumBlks
	BYTE	RunaAttack_pri	// Priority
	BYTE	RunaAttack_rev	// Reverb.
    
	POIN2	RunaAttack_grp
    
	POIN2	RunaAttack_001
	POIN2	RunaAttack_002
	POIN2	RunaAttack_003
	POIN2	RunaAttack_004
	POIN2	RunaAttack_005

	
