	.include "MPlayDef.s"

	.equ	song04_grp, voicegroup000
	.equ	song04_pri, 0
	.equ	song04_rev, 0
	.equ	song04_mvl, 127
	.equ	song04_key, 0
	.equ	song04_tbs, 1
	.equ	song04_exg, 0
	.equ	song04_cmp, 1

	.section .rodata
	.global	song04
	.align	2


@**************** Track 1 (Midi-Chn.0) ****************@

song04_001:
@  #01 @000   ----------------------------------------
 .byte   KEYSH , song04_key+0
 .byte   TEMPO , 122*song04_tbs/2
 .byte   VOICE , 46
 .byte   VOL , 30*song04_mvl/mxv
 .byte   PAN , c_v-8
 .byte   N02 ,Bn2 ,v127
 .byte   W03
 .byte   Dn3
 .byte   W03
 .byte   Gn3
 .byte   W03
 .byte   Bn3
 .byte   W03
 .byte   N68 ,Gn2
 .byte   N68 ,Gn3
 .byte   N68 ,Bn3
 .byte   N68 ,An4
 .byte   N11 ,Dn5
 .byte   W12
 .byte   N23
 .byte   W24
Label_01488981:
 .byte   N11 ,Cs5 ,v127
 .byte   W12
 .byte   N23
 .byte   W12
 .byte   PEND 
Label_01488988:
 .byte   W12
 .byte   N11 ,Gn3 ,v127
 .byte   N11 ,Dn5
 .byte   W12
 .byte   PEND 
@  #01 @001   ----------------------------------------
Label_01488990:
 .byte   N56 ,Gn2 ,v127
 .byte   N23 ,Dn5
 .byte   W24
 .byte   PEND 
Label_01488997:
 .byte   N03 ,Gn4 ,v127
 .byte   W04
 .byte   Bn4
 .byte   W04
 .byte   Dn5
 .byte   W04
 .byte   N68 ,Fs5
 .byte   W12
 .byte   PEND 
 .byte   W12
 .byte   N11 ,Gn2
 .byte   W12
Label_014889A7:
 .byte   N11 ,Gn3 ,v127
 .byte   W12
 .byte   Dn4
 .byte   W12
 .byte   PEND 
@  #01 @002   ----------------------------------------
Label_014889AE:
 .byte   N11 ,An4 ,v127
 .byte   W12
 .byte   N68 ,Gn2
 .byte   N68 ,Gn3
 .byte   N68 ,Bn3
 .byte   N68 ,An4
 .byte   N11 ,Dn5
 .byte   W12
 .byte   PEND 
 .byte   N23
 .byte   W24
@  #01 @003   ----------------------------------------
 .byte   PATT
  .word Label_01488981
@  #01 @004   ----------------------------------------
 .byte   PATT
  .word Label_01488988
@  #01 @005   ----------------------------------------
Label_014889CA:
 .byte   N56 ,Gn2 ,v127
 .byte   N23 ,An4
 .byte   W24
 .byte   PEND 
Label_014889D1:
 .byte   N03 ,Gn3 ,v127
 .byte   W04
 .byte   Bn3
 .byte   W04
 .byte   Dn4
 .byte   W04
 .byte   N68 ,An4
 .byte   W12
 .byte   PEND 
Label_014889DD:
 .byte   W12
 .byte   N05 ,Gn4 ,v127
 .byte   W06
 .byte   Fs4
 .byte   W06
 .byte   PEND 
Label_014889E5:
 .byte   N05 ,Dn4 ,v127
 .byte   W06
 .byte   Bn3
 .byte   W06
 .byte   Gn3
 .byte   W06
 .byte   Fs3
 .byte   W06
 .byte   PEND 
@  #01 @006   ----------------------------------------
Label_014889F0:
 .byte   N05 ,Dn3 ,v127
 .byte   W06
 .byte   Bn2
 .byte   W06
 .byte   N68 ,Gn2
 .byte   N68 ,Gn3
 .byte   N68 ,Bn3
 .byte   N68 ,An4
 .byte   N11 ,Dn5
 .byte   W12
 .byte   PEND 
 .byte   N23
 .byte   W24
@  #01 @007   ----------------------------------------
 .byte   PATT
  .word Label_01488981
@  #01 @008   ----------------------------------------
 .byte   PATT
  .word Label_01488988
@  #01 @009   ----------------------------------------
 .byte   PATT
  .word Label_01488990
@  #01 @010   ----------------------------------------
 .byte   PATT
  .word Label_01488997
@  #01 @011   ----------------------------------------
 .byte   W12
 .byte   N11 ,Gn2 ,v127
 .byte   W12
@  #01 @012   ----------------------------------------
 .byte   PATT
  .word Label_014889A7
@  #01 @013   ----------------------------------------
 .byte   PATT
  .word Label_014889AE
@  #01 @014   ----------------------------------------
 .byte   N23 ,Dn5 ,v127
 .byte   W24
@  #01 @015   ----------------------------------------
 .byte   PATT
  .word Label_01488981
@  #01 @016   ----------------------------------------
 .byte   PATT
  .word Label_01488988
@  #01 @017   ----------------------------------------
 .byte   PATT
  .word Label_014889CA
@  #01 @018   ----------------------------------------
 .byte   PATT
  .word Label_014889D1
@  #01 @019   ----------------------------------------
 .byte   PATT
  .word Label_014889DD
@  #01 @020   ----------------------------------------
 .byte   PATT
  .word Label_014889E5
@  #01 @021   ----------------------------------------
 .byte   PATT
  .word Label_014889F0
@  #01 @022   ----------------------------------------
 .byte   N23 ,Dn5 ,v127
 .byte   W24
@  #01 @023   ----------------------------------------
 .byte   PATT
  .word Label_01488981
@  #01 @024   ----------------------------------------
 .byte   PATT
  .word Label_01488988
@  #01 @025   ----------------------------------------
 .byte   PATT
  .word Label_01488990
@  #01 @026   ----------------------------------------
 .byte   PATT
  .word Label_01488997
@  #01 @027   ----------------------------------------
 .byte   W12
 .byte   N11 ,Gn2 ,v127
 .byte   W12
@  #01 @028   ----------------------------------------
 .byte   PATT
  .word Label_014889A7
@  #01 @029   ----------------------------------------
 .byte   PATT
  .word Label_014889AE
@  #01 @030   ----------------------------------------
 .byte   N23 ,Dn5 ,v127
 .byte   W24
@  #01 @031   ----------------------------------------
 .byte   PATT
  .word Label_01488981
@  #01 @032   ----------------------------------------
 .byte   PATT
  .word Label_01488988
@  #01 @033   ----------------------------------------
 .byte   PATT
  .word Label_014889CA
@  #01 @034   ----------------------------------------
 .byte   PATT
  .word Label_014889D1
@  #01 @035   ----------------------------------------
 .byte   PATT
  .word Label_014889DD
@  #01 @036   ----------------------------------------
 .byte   PATT
  .word Label_014889E5
@  #01 @037   ----------------------------------------
 .byte   PATT
  .word Label_014889F0
@  #01 @038   ----------------------------------------
 .byte   N23 ,Dn5 ,v127
 .byte   W24
@  #01 @039   ----------------------------------------
 .byte   PATT
  .word Label_01488981
@  #01 @040   ----------------------------------------
 .byte   PATT
  .word Label_01488988
@  #01 @041   ----------------------------------------
 .byte   PATT
  .word Label_01488990
@  #01 @042   ----------------------------------------
 .byte   PATT
  .word Label_01488997
@  #01 @043   ----------------------------------------
 .byte   W12
 .byte   N11 ,Gn2 ,v127
 .byte   W12
@  #01 @044   ----------------------------------------
 .byte   PATT
  .word Label_014889A7
@  #01 @045   ----------------------------------------
 .byte   PATT
  .word Label_014889AE
@  #01 @046   ----------------------------------------
 .byte   N23 ,Dn5 ,v127
 .byte   W24
@  #01 @047   ----------------------------------------
 .byte   PATT
  .word Label_01488981
@  #01 @048   ----------------------------------------
 .byte   PATT
  .word Label_01488988
@  #01 @049   ----------------------------------------
 .byte   PATT
  .word Label_014889CA
@  #01 @050   ----------------------------------------
 .byte   PATT
  .word Label_014889D1
@  #01 @051   ----------------------------------------
 .byte   PATT
  .word Label_014889DD
@  #01 @052   ----------------------------------------
 .byte   PATT
  .word Label_014889E5
@  #01 @053   ----------------------------------------
Label_01488AE5:
 .byte   N05 ,Dn3 ,v127
 .byte   W06
 .byte   Bn2
 .byte   W06
 .byte   N11 ,Gn1 ,v092
 .byte   W12
 .byte   PEND 
Label_01488AF0:
 .byte   N11 ,Gn2 ,v092
 .byte   W12
 .byte   Bn3
 .byte   W12
 .byte   PEND 
Label_01488AF7:
 .byte   N11 ,Dn4 ,v092
 .byte   W12
 .byte   Gn4
 .byte   W12
 .byte   PEND 
Label_01488AFE:
 .byte   N11 ,Fs4 ,v092
 .byte   W12
 .byte   Gn4
 .byte   W12
 .byte   PEND 
@  #01 @054   ----------------------------------------
Label_01488B05:
 .byte   N11 ,Dn4 ,v092
 .byte   W12
 .byte   Gn1
 .byte   W12
 .byte   PEND 
Label_01488B0C:
 .byte   N11 ,Gn2 ,v092
 .byte   W12
 .byte   Gn3
 .byte   W12
 .byte   PEND 
Label_01488B13:
 .byte   N11 ,Bn3 ,v092
 .byte   W12
 .byte   Dn4
 .byte   W12
 .byte   PEND 
Label_01488B1A:
 .byte   N11 ,Cs4 ,v092
 .byte   W12
 .byte   Dn4
 .byte   W12
 .byte   PEND 
@  #01 @055   ----------------------------------------
Label_01488B21:
 .byte   N11 ,An3 ,v092
 .byte   W12
 .byte   Gn2
 .byte   W12
 .byte   PEND 
Label_01488B28:
 .byte   N11 ,Gn3 ,v092
 .byte   W12
 .byte   Bn3
 .byte   W12
 .byte   PEND 
Label_01488B2F:
 .byte   N11 ,Gn4 ,v092
 .byte   W12
 .byte   Fs4
 .byte   W12
 .byte   PEND 
Label_01488B36:
 .byte   N11 ,An4 ,v092
 .byte   W12
 .byte   Gn4
 .byte   W12
 .byte   PEND 
@  #01 @056   ----------------------------------------
Label_01488B3D:
 .byte   N11 ,Dn4 ,v092
 .byte   W12
 .byte   En2
 .byte   W12
 .byte   PEND 
 .byte   En3
 .byte   W12
 .byte   Gn3
 .byte   W12
Label_01488B48:
 .byte   N11 ,En4 ,v092
 .byte   W12
 .byte   Dn4
 .byte   W12
 .byte   PEND 
Label_01488B4F:
 .byte   N11 ,En4 ,v092
 .byte   W12
 .byte   Cs4
 .byte   W12
 .byte   PEND 
@  #01 @057   ----------------------------------------
Label_01488B56:
 .byte   N11 ,An3 ,v092
 .byte   W12
 .byte   Fn2
 .byte   W12
 .byte   PEND 
 .byte   En3
 .byte   W12
 .byte   An3
 .byte   W12
Label_01488B61:
 .byte   N11 ,Cn4 ,v092
 .byte   W12
 .byte   Bn3
 .byte   W12
 .byte   PEND 
Label_01488B68:
 .byte   N11 ,Cn4 ,v092
 .byte   W12
 .byte   An3
 .byte   W12
 .byte   PEND 
@  #01 @058   ----------------------------------------
 .byte   En3
 .byte   W12
 .byte   Fs2
 .byte   W12
 .byte   En3
 .byte   W12
 .byte   An3
 .byte   W12
@  #01 @059   ----------------------------------------
 .byte   PATT
  .word Label_01488B61
@  #01 @060   ----------------------------------------
 .byte   PATT
  .word Label_01488B61
@  #01 @061   ----------------------------------------
 .byte   PATT
  .word Label_01488B21
@  #01 @062   ----------------------------------------
 .byte   N11 ,En3 ,v092
 .byte   W12
 .byte   An3
 .byte   W12
Label_01488B8C:
 .byte   N11 ,Dn4 ,v092
 .byte   W12
 .byte   Cn4
 .byte   W12
 .byte   PEND 
@  #01 @063   ----------------------------------------
 .byte   PATT
  .word Label_01488B8C
@  #01 @064   ----------------------------------------
Label_01488B98:
 .byte   N11 ,Bn3 ,v092
 .byte   W12
 .byte   Fs2
 .byte   W12
 .byte   PEND 
 .byte   En3
 .byte   W12
 .byte   An3
 .byte   W12
@  #01 @065   ----------------------------------------
 .byte   PATT
  .word Label_01488B48
@  #01 @066   ----------------------------------------
 .byte   PATT
  .word Label_01488B61
@  #01 @067   ----------------------------------------
Label_01488BAD:
 .byte   N11 ,Fs3 ,v092
 .byte   W12
 .byte   Fn2
 .byte   W12
 .byte   PEND 
 .byte   En3
 .byte   W12
 .byte   An3
 .byte   W12
@  #01 @068   ----------------------------------------
 .byte   PATT
  .word Label_01488B61
@  #01 @069   ----------------------------------------
 .byte   PATT
  .word Label_01488B68
@  #01 @070   ----------------------------------------
 .byte   N11 ,En3 ,v092
 .byte   W12
 .byte   Fs2
 .byte   W12
 .byte   En3
 .byte   W12
 .byte   An3
 .byte   W12
@  #01 @071   ----------------------------------------
 .byte   PATT
  .word Label_01488B61
@  #01 @072   ----------------------------------------
 .byte   PATT
  .word Label_01488B61
@  #01 @073   ----------------------------------------
 .byte   PATT
  .word Label_01488B21
@  #01 @074   ----------------------------------------
 .byte   N11 ,En3 ,v092
 .byte   W12
 .byte   An3
 .byte   W12
@  #01 @075   ----------------------------------------
 .byte   PATT
  .word Label_01488B8C
@  #01 @076   ----------------------------------------
 .byte   PATT
  .word Label_01488B8C
@  #01 @077   ----------------------------------------
 .byte   PATT
  .word Label_01488B98
@  #01 @078   ----------------------------------------
 .byte   N11 ,En3 ,v092
 .byte   W12
 .byte   An3
 .byte   W12
@  #01 @079   ----------------------------------------
 .byte   PATT
  .word Label_01488B48
@  #01 @080   ----------------------------------------
 .byte   PATT
  .word Label_01488B61
@  #01 @081   ----------------------------------------
Label_01488C00:
 .byte   N11 ,Fs3 ,v092
 .byte   W12
 .byte   N32
 .byte   W12
 .byte   PEND 
 .byte   W12
Label_01488C08:
 .byte   W12
 .byte   W12
 .byte   N32 ,Gn3 ,v092
 .byte   W12
 .byte   W24
@  #01 @082   ----------------------------------------
 .byte   W24
 .byte   W24
 .byte   W24
 .byte   W24
@  #01 @083   ----------------------------------------
 .byte   W24
 .byte   W24
 .byte   W24
 .byte   W24
@  #01 @084   ----------------------------------------
 .byte   W24
 .byte   W24
 .byte   W24
 .byte   W24
@  #01 @085   ----------------------------------------
 .byte   W24
 .byte   W24
 .byte   W24
 .byte   W24
@  #01 @086   ----------------------------------------
 .byte   W24
 .byte   W24
 .byte   W24
 .byte   W24
@  #01 @087   ----------------------------------------
 .byte   W24
 .byte   W24
 .byte   W24
 .byte   W24
@  #01 @088   ----------------------------------------
 .byte   W24
 .byte   W24
 .byte   W24
 .byte   W24
@  #01 @089   ----------------------------------------
 .byte   W24
 .byte   W24
 .byte   W24
 .byte   W24
@  #01 @090   ----------------------------------------
 .byte   W24
 .byte   W24
 .byte   W24
 .byte   W24
@  #01 @091   ----------------------------------------
 .byte   W24
 .byte   W24
 .byte   W24
 .byte   W24
@  #01 @092   ----------------------------------------
 .byte   W24
 .byte   W24
 .byte   W24
 .byte   W24
@  #01 @093   ----------------------------------------
 .byte   W24
 .byte   W24
 .byte   W24
 .byte   W24
@  #01 @094   ----------------------------------------
 .byte   W24
 .byte   W24
 .byte   W24
 .byte   W24
@  #01 @095   ----------------------------------------
 .byte   W24
 .byte   W24
 .byte   W24
 .byte   W24
@  #01 @096   ----------------------------------------
 .byte   W24
 .byte   W24
 .byte   W24
 .byte   W24
@  #01 @097   ----------------------------------------
 .byte   W24
 .byte   W24
 .byte   W24
 .byte   W24
@  #01 @098   ----------------------------------------
 .byte   W24
 .byte   W24
 .byte   W24
 .byte   W24
@  #01 @099   ----------------------------------------
 .byte   W12
 .byte   N68 ,Gn2 ,v127
 .byte   N68 ,Gn3
 .byte   N68 ,Bn3
 .byte   N68 ,An4
 .byte   N11 ,Dn5
 .byte   W12
 .byte   N23
 .byte   W24
@  #01 @100   ----------------------------------------
 .byte   PATT
  .word Label_01488981
@  #01 @101   ----------------------------------------
 .byte   PATT
  .word Label_01488988
@  #01 @102   ----------------------------------------
 .byte   PATT
  .word Label_01488990
@  #01 @103   ----------------------------------------
 .byte   PATT
  .word Label_01488997
@  #01 @104   ----------------------------------------
 .byte   W12
 .byte   N11 ,Gn2 ,v127
 .byte   W12
@  #01 @105   ----------------------------------------
 .byte   PATT
  .word Label_014889A7
@  #01 @106   ----------------------------------------
 .byte   PATT
  .word Label_014889AE
@  #01 @107   ----------------------------------------
 .byte   N23 ,Dn5 ,v127
 .byte   W24
@  #01 @108   ----------------------------------------
 .byte   PATT
  .word Label_01488981
@  #01 @109   ----------------------------------------
 .byte   PATT
  .word Label_01488988
@  #01 @110   ----------------------------------------
 .byte   PATT
  .word Label_014889CA
@  #01 @111   ----------------------------------------
 .byte   PATT
  .word Label_014889D1
@  #01 @112   ----------------------------------------
 .byte   PATT
  .word Label_014889DD
@  #01 @113   ----------------------------------------
 .byte   PATT
  .word Label_014889E5
@  #01 @114   ----------------------------------------
 .byte   PATT
  .word Label_014889F0
@  #01 @115   ----------------------------------------
 .byte   N23 ,Dn5 ,v127
 .byte   W24
@  #01 @116   ----------------------------------------
 .byte   PATT
  .word Label_01488981
@  #01 @117   ----------------------------------------
 .byte   PATT
  .word Label_01488988
@  #01 @118   ----------------------------------------
 .byte   PATT
  .word Label_01488990
@  #01 @119   ----------------------------------------
 .byte   PATT
  .word Label_01488997
@  #01 @120   ----------------------------------------
 .byte   W12
 .byte   N11 ,Gn2 ,v127
 .byte   W12
@  #01 @121   ----------------------------------------
 .byte   PATT
  .word Label_014889A7
@  #01 @122   ----------------------------------------
 .byte   PATT
  .word Label_014889AE
@  #01 @123   ----------------------------------------
 .byte   N23 ,Dn5 ,v127
 .byte   W24
@  #01 @124   ----------------------------------------
 .byte   PATT
  .word Label_01488981
@  #01 @125   ----------------------------------------
 .byte   PATT
  .word Label_01488988
@  #01 @126   ----------------------------------------
 .byte   PATT
  .word Label_014889CA
@  #01 @127   ----------------------------------------
 .byte   PATT
  .word Label_014889D1
@  #01 @128   ----------------------------------------
 .byte   PATT
  .word Label_014889DD
@  #01 @129   ----------------------------------------
 .byte   PATT
  .word Label_014889E5
@  #01 @130   ----------------------------------------
 .byte   PATT
  .word Label_014889F0
@  #01 @131   ----------------------------------------
 .byte   N23 ,Dn5 ,v127
 .byte   W24
@  #01 @132   ----------------------------------------
 .byte   PATT
  .word Label_01488981
@  #01 @133   ----------------------------------------
 .byte   PATT
  .word Label_01488988
@  #01 @134   ----------------------------------------
 .byte   PATT
  .word Label_01488990
@  #01 @135   ----------------------------------------
 .byte   PATT
  .word Label_01488997
@  #01 @136   ----------------------------------------
 .byte   W12
 .byte   N11 ,Gn2 ,v127
 .byte   W12
@  #01 @137   ----------------------------------------
 .byte   PATT
  .word Label_014889A7
@  #01 @138   ----------------------------------------
 .byte   PATT
  .word Label_014889AE
@  #01 @139   ----------------------------------------
 .byte   N23 ,Dn5 ,v127
 .byte   W24
@  #01 @140   ----------------------------------------
 .byte   PATT
  .word Label_01488981
@  #01 @141   ----------------------------------------
 .byte   PATT
  .word Label_01488988
@  #01 @142   ----------------------------------------
 .byte   PATT
  .word Label_014889CA
@  #01 @143   ----------------------------------------
 .byte   PATT
  .word Label_014889D1
@  #01 @144   ----------------------------------------
 .byte   PATT
  .word Label_014889DD
@  #01 @145   ----------------------------------------
 .byte   PATT
  .word Label_014889E5
@  #01 @146   ----------------------------------------
 .byte   PATT
  .word Label_014889F0
@  #01 @147   ----------------------------------------
 .byte   N23 ,Dn5 ,v127
 .byte   W24
@  #01 @148   ----------------------------------------
 .byte   PATT
  .word Label_01488981
@  #01 @149   ----------------------------------------
 .byte   PATT
  .word Label_01488988
@  #01 @150   ----------------------------------------
 .byte   PATT
  .word Label_01488990
@  #01 @151   ----------------------------------------
 .byte   PATT
  .word Label_01488997
@  #01 @152   ----------------------------------------
 .byte   W12
 .byte   N11 ,Gn2 ,v127
 .byte   W12
@  #01 @153   ----------------------------------------
 .byte   PATT
  .word Label_014889A7
@  #01 @154   ----------------------------------------
 .byte   PATT
  .word Label_014889AE
@  #01 @155   ----------------------------------------
 .byte   N23 ,Dn5 ,v127
 .byte   W24
@  #01 @156   ----------------------------------------
 .byte   PATT
  .word Label_01488981
@  #01 @157   ----------------------------------------
 .byte   PATT
  .word Label_01488988
@  #01 @158   ----------------------------------------
 .byte   PATT
  .word Label_014889CA
@  #01 @159   ----------------------------------------
 .byte   PATT
  .word Label_014889D1
@  #01 @160   ----------------------------------------
 .byte   PATT
  .word Label_014889DD
@  #01 @161   ----------------------------------------
 .byte   PATT
  .word Label_014889E5
@  #01 @162   ----------------------------------------
 .byte   PATT
  .word Label_01488AE5
@  #01 @163   ----------------------------------------
 .byte   PATT
  .word Label_01488AF0
@  #01 @164   ----------------------------------------
 .byte   PATT
  .word Label_01488AF7
@  #01 @165   ----------------------------------------
 .byte   PATT
  .word Label_01488AFE
@  #01 @166   ----------------------------------------
 .byte   PATT
  .word Label_01488B05
@  #01 @167   ----------------------------------------
 .byte   PATT
  .word Label_01488B0C
@  #01 @168   ----------------------------------------
 .byte   PATT
  .word Label_01488B13
@  #01 @169   ----------------------------------------
 .byte   PATT
  .word Label_01488B1A
@  #01 @170   ----------------------------------------
 .byte   PATT
  .word Label_01488B21
@  #01 @171   ----------------------------------------
 .byte   PATT
  .word Label_01488B28
@  #01 @172   ----------------------------------------
 .byte   PATT
  .word Label_01488B2F
@  #01 @173   ----------------------------------------
 .byte   PATT
  .word Label_01488B36
@  #01 @174   ----------------------------------------
 .byte   PATT
  .word Label_01488B3D
@  #01 @175   ----------------------------------------
 .byte   N11 ,En3 ,v092
 .byte   W12
 .byte   Gn3
 .byte   W12
@  #01 @176   ----------------------------------------
 .byte   PATT
  .word Label_01488B48
@  #01 @177   ----------------------------------------
 .byte   PATT
  .word Label_01488B4F
@  #01 @178   ----------------------------------------
 .byte   PATT
  .word Label_01488B56
@  #01 @179   ----------------------------------------
 .byte   N11 ,En3 ,v092
 .byte   W12
 .byte   An3
 .byte   W12
@  #01 @180   ----------------------------------------
 .byte   PATT
  .word Label_01488B61
@  #01 @181   ----------------------------------------
 .byte   PATT
  .word Label_01488B68
@  #01 @182   ----------------------------------------
 .byte   N11 ,En3 ,v092
 .byte   W12
 .byte   Fs2
 .byte   W12
 .byte   En3
 .byte   W12
 .byte   An3
 .byte   W12
@  #01 @183   ----------------------------------------
 .byte   PATT
  .word Label_01488B61
@  #01 @184   ----------------------------------------
 .byte   PATT
  .word Label_01488B61
@  #01 @185   ----------------------------------------
 .byte   PATT
  .word Label_01488B21
@  #01 @186   ----------------------------------------
 .byte   N11 ,En3 ,v092
 .byte   W12
 .byte   An3
 .byte   W12
@  #01 @187   ----------------------------------------
 .byte   PATT
  .word Label_01488B8C
@  #01 @188   ----------------------------------------
 .byte   PATT
  .word Label_01488B8C
@  #01 @189   ----------------------------------------
 .byte   PATT
  .word Label_01488B98
@  #01 @190   ----------------------------------------
 .byte   N11 ,En3 ,v092
 .byte   W12
 .byte   An3
 .byte   W12
@  #01 @191   ----------------------------------------
 .byte   PATT
  .word Label_01488B48
@  #01 @192   ----------------------------------------
 .byte   PATT
  .word Label_01488B61
@  #01 @193   ----------------------------------------
 .byte   PATT
  .word Label_01488BAD
@  #01 @194   ----------------------------------------
 .byte   N11 ,En3 ,v092
 .byte   W12
 .byte   An3
 .byte   W12
@  #01 @195   ----------------------------------------
 .byte   PATT
  .word Label_01488B61
@  #01 @196   ----------------------------------------
 .byte   PATT
  .word Label_01488B68
@  #01 @197   ----------------------------------------
 .byte   N11 ,En3 ,v092
 .byte   W12
 .byte   Fs2
 .byte   W12
 .byte   En3
 .byte   W12
 .byte   An3
 .byte   W12
@  #01 @198   ----------------------------------------
 .byte   PATT
  .word Label_01488B61
@  #01 @199   ----------------------------------------
 .byte   PATT
  .word Label_01488B61
@  #01 @200   ----------------------------------------
 .byte   PATT
  .word Label_01488B21
@  #01 @201   ----------------------------------------
 .byte   N11 ,En3 ,v092
 .byte   W12
 .byte   An3
 .byte   W12
@  #01 @202   ----------------------------------------
 .byte   PATT
  .word Label_01488B8C
@  #01 @203   ----------------------------------------
 .byte   PATT
  .word Label_01488B8C
@  #01 @204   ----------------------------------------
 .byte   PATT
  .word Label_01488B98
@  #01 @205   ----------------------------------------
 .byte   N11 ,En3 ,v092
 .byte   W12
 .byte   An3
 .byte   W12
@  #01 @206   ----------------------------------------
 .byte   PATT
  .word Label_01488B48
@  #01 @207   ----------------------------------------
 .byte   PATT
  .word Label_01488B61
@  #01 @208   ----------------------------------------
 .byte   PATT
  .word Label_01488C00
@  #01 @209   ----------------------------------------
 .byte   W12
 .byte   GOTO
  .word Label_01488C08
@  #01 @210   ----------------------------------------
 .byte   W12
 .byte   W12
 .byte   N32 ,Gn3 ,v092
 .byte   W12
 .byte   W24
 .byte   W24
 .byte   W24
@  #01 @211   ----------------------------------------
 .byte   W24
 .byte   W24
 .byte   W24
 .byte   W24
@  #01 @212   ----------------------------------------
 .byte   W24
 .byte   W24
 .byte   W24
 .byte   W24
@  #01 @213   ----------------------------------------
 .byte   W24
 .byte   W24
 .byte   W24
 .byte   W24
@  #01 @214   ----------------------------------------
 .byte   W24
 .byte   W24
 .byte   W24
 .byte   W24
@  #01 @215   ----------------------------------------
 .byte   W24
 .byte   W24
 .byte   W24
 .byte   W24
@  #01 @216   ----------------------------------------
 .byte   W24
 .byte   W24
 .byte   W24
 .byte   W24
@  #01 @217   ----------------------------------------
 .byte   W24
 .byte   W24
 .byte   W24
 .byte   W24
@  #01 @218   ----------------------------------------
 .byte   W24
 .byte   W24
 .byte   W24
 .byte   W24
@  #01 @219   ----------------------------------------
 .byte   W24
 .byte   W24
 .byte   W24
 .byte   W24
@  #01 @220   ----------------------------------------
 .byte   W24
 .byte   W24
 .byte   W24
 .byte   W24
@  #01 @221   ----------------------------------------
 .byte   W24
 .byte   W24
 .byte   W24
 .byte   W24
@  #01 @222   ----------------------------------------
 .byte   W24
 .byte   W24
 .byte   W24
 .byte   W24
@  #01 @223   ----------------------------------------
 .byte   W24
 .byte   W24
 .byte   W24
 .byte   W24
@  #01 @224   ----------------------------------------
 .byte   W24
 .byte   W24
 .byte   W24
 .byte   W24
@  #01 @225   ----------------------------------------
 .byte   W24
 .byte   W24
 .byte   W24
 .byte   W24
@  #01 @226   ----------------------------------------
 .byte   W24
 .byte   W24
 .byte   W24
 .byte   W24
@  #01 @227   ----------------------------------------
 .byte   W24
 .byte   W24
 .byte   W12
 .byte   FINE

@**************** Track 2 (Midi-Chn.1) ****************@

song04_002:
@  #02 @000   ----------------------------------------
 .byte   KEYSH , song04_key+0
 .byte   VOICE , 23
 .byte   VOL , 30*song04_mvl/mxv
 .byte   PAN , c_v-64
 .byte   W24
 .byte   W24
 .byte   W24
 .byte   W24
@  #02 @001   ----------------------------------------
 .byte   W24
 .byte   W24
 .byte   W24
 .byte   W24
@  #02 @002   ----------------------------------------
 .byte   W24
 .byte   W24
 .byte   W24
 .byte   W24
@  #02 @003   ----------------------------------------
 .byte   W24
 .byte   W24
 .byte   W24
 .byte   W24
@  #02 @004   ----------------------------------------
Label_014869B8:
 .byte   W12
 .byte   PAN , c_v+5
 .byte   TIE ,Gn3 ,v092
 .byte   W12
 .byte   PEND 
 .byte   W24
Label_014869C1:
 .byte   W12
 .byte   TIE ,Fs3 ,v096
 .byte   W12
 .byte   PEND 
 .byte   W24
@  #02 @005   ----------------------------------------
 .byte   W12
 .byte   N92 ,Dn3 ,v108
 .byte   W12
 .byte   W24
 .byte   W12
 .byte   N44 ,Bn2
 .byte   W12
 .byte   W24
@  #02 @006   ----------------------------------------
 .byte   W11
 .byte   EOT
 .byte   Fs3 ,v067
 .byte   W01
 .byte   TIE ,Gn3 ,v092
 .byte   W12
 .byte   W24
Label_014869DD:
 .byte   W12
 .byte   TIE ,An3 ,v096
 .byte   W12
 .byte   PEND 
 .byte   W24
@  #02 @007   ----------------------------------------
 .byte   W12
 .byte   N92 ,Fs3 ,v108
 .byte   W12
 .byte   W24
 .byte   W12
 .byte   N44 ,Dn3
 .byte   W12
 .byte   W24
@  #02 @008   ----------------------------------------
 .byte   W11
 .byte   EOT
 .byte   Gn3 ,v069
 .byte   W13
 .byte   W24
 .byte   W24
 .byte   W24
@  #02 @009   ----------------------------------------
 .byte   W24
 .byte   W24
 .byte   W24
 .byte   W24
@  #02 @010   ----------------------------------------
 .byte   W24
 .byte   W24
 .byte   W24
 .byte   W24
@  #02 @011   ----------------------------------------
 .byte   W24
 .byte   W24
 .byte   W24
 .byte   W24
@  #02 @012   ----------------------------------------
 .byte   W24
 .byte   W24
 .byte   W24
 .byte   W24
@  #02 @013   ----------------------------------------
 .byte   W24
 .byte   W24
 .byte   W24
 .byte   W24
@  #02 @014   ----------------------------------------
 .byte   W24
 .byte   W24
 .byte   W24
 .byte   W24
@  #02 @015   ----------------------------------------
 .byte   W24
 .byte   W24
 .byte   W24
 .byte   W24
@  #02 @016   ----------------------------------------
 .byte   W24
 .byte   W24
 .byte   W24
 .byte   W24
@  #02 @017   ----------------------------------------
 .byte   W24
 .byte   W24
 .byte   W24
 .byte   W24
@  #02 @018   ----------------------------------------
 .byte   W24
 .byte   W24
 .byte   W24
 .byte   W24
@  #02 @019   ----------------------------------------
 .byte   W24
 .byte   W24
 .byte   W24
 .byte   W24
@  #02 @020   ----------------------------------------
 .byte   W24
 .byte   W24
 .byte   W24
 .byte   W24
@  #02 @021   ----------------------------------------
 .byte   W24
 .byte   W24
 .byte   W24
 .byte   W24
@  #02 @022   ----------------------------------------
 .byte   W24
 .byte   W24
 .byte   W24
 .byte   W24
@  #02 @023   ----------------------------------------
 .byte   W24
 .byte   W24
 .byte   W24
 .byte   W24
@  #02 @024   ----------------------------------------
 .byte   W24
 .byte   W24
 .byte   W24
 .byte   W24
@  #02 @025   ----------------------------------------
 .byte   W24
 .byte   W24
 .byte   W24
 .byte   W24
@  #02 @026   ----------------------------------------
 .byte   W24
 .byte   W24
 .byte   W24
 .byte   W24
@  #02 @027   ----------------------------------------
 .byte   W24
 .byte   W24
 .byte   W24
 .byte   W24
@  #02 @028   ----------------------------------------
 .byte   W24
 .byte   W12
Label_01486A45:
 .byte   W12
 .byte   W24
 .byte   W24
@  #02 @029   ----------------------------------------
 .byte   W24
 .byte   W24
 .byte   W24
 .byte   W24
@  #02 @030   ----------------------------------------
 .byte   W24
 .byte   W24
 .byte   W24
 .byte   W24
@  #02 @031   ----------------------------------------
 .byte   W24
 .byte   W24
 .byte   W24
 .byte   W24
@  #02 @032   ----------------------------------------
 .byte   W24
 .byte   W24
 .byte   W24
 .byte   W24
@  #02 @033   ----------------------------------------
 .byte   W24
 .byte   W24
 .byte   W24
 .byte   W24
@  #02 @034   ----------------------------------------
 .byte   W24
 .byte   W24
 .byte   W24
 .byte   W24
@  #02 @035   ----------------------------------------
 .byte   W24
 .byte   W24
 .byte   W24
 .byte   W24
@  #02 @036   ----------------------------------------
 .byte   W24
 .byte   W24
 .byte   W24
 .byte   W24
@  #02 @037   ----------------------------------------
 .byte   W24
 .byte   W24
 .byte   W24
 .byte   W24
@  #02 @038   ----------------------------------------
 .byte   W24
 .byte   W24
 .byte   W24
 .byte   W24
@  #02 @039   ----------------------------------------
 .byte   W24
 .byte   W24
 .byte   W24
 .byte   W24
@  #02 @040   ----------------------------------------
 .byte   W24
 .byte   W24
 .byte   W24
 .byte   W24
@  #02 @041   ----------------------------------------
 .byte   W24
 .byte   W24
 .byte   W24
 .byte   W24
@  #02 @042   ----------------------------------------
 .byte   W24
 .byte   W24
 .byte   W24
 .byte   W24
@  #02 @043   ----------------------------------------
 .byte   W24
 .byte   W24
 .byte   W24
 .byte   W24
@  #02 @044   ----------------------------------------
 .byte   W24
 .byte   W24
 .byte   W24
 .byte   W24
@  #02 @045   ----------------------------------------
 .byte   W24
 .byte   W24
 .byte   W24
 .byte   W24
@  #02 @046   ----------------------------------------
 .byte   W24
 .byte   W24
 .byte   W24
 .byte   W24
@  #02 @047   ----------------------------------------
 .byte   W24
 .byte   W24
 .byte   W24
 .byte   W24
@  #02 @048   ----------------------------------------
 .byte   W24
 .byte   W24
 .byte   W24
 .byte   W24
@  #02 @049   ----------------------------------------
 .byte   W24
 .byte   W24
 .byte   W24
 .byte   W24
@  #02 @050   ----------------------------------------
 .byte   PATT
  .word Label_014869B8
@  #02 @051   ----------------------------------------
 .byte   W24
@  #02 @052   ----------------------------------------
 .byte   PATT
  .word Label_014869C1
@  #02 @053   ----------------------------------------
 .byte   W24
 .byte   W12
 .byte   N92 ,Dn3 ,v108
 .byte   W12
 .byte   W24
 .byte   W12
 .byte   N44 ,Bn2
 .byte   W12
@  #02 @054   ----------------------------------------
 .byte   W24
 .byte   W11
 .byte   EOT
 .byte   Fs3 ,v067
 .byte   W01
 .byte   TIE ,Gn3 ,v092
 .byte   W12
 .byte   W24
@  #02 @055   ----------------------------------------
 .byte   PATT
  .word Label_014869DD
@  #02 @056   ----------------------------------------
 .byte   W24
 .byte   W12
 .byte   N92 ,Fs3 ,v108
 .byte   W12
 .byte   W24
 .byte   W12
 .byte   N44 ,Dn3
 .byte   W12
@  #02 @057   ----------------------------------------
 .byte   W24
 .byte   W11
 .byte   EOT
 .byte   Gn3 ,v069
 .byte   W13
 .byte   W24
 .byte   W24
@  #02 @058   ----------------------------------------
 .byte   W24
 .byte   W24
 .byte   W24
 .byte   W24
@  #02 @059   ----------------------------------------
 .byte   W24
 .byte   W24
 .byte   W24
 .byte   W24
@  #02 @060   ----------------------------------------
 .byte   W24
 .byte   W24
 .byte   W24
 .byte   W24
@  #02 @061   ----------------------------------------
 .byte   W24
 .byte   W24
 .byte   W24
 .byte   W24
@  #02 @062   ----------------------------------------
 .byte   W24
 .byte   W24
 .byte   W24
 .byte   W24
@  #02 @063   ----------------------------------------
 .byte   W24
 .byte   W24
 .byte   W24
 .byte   W24
@  #02 @064   ----------------------------------------
 .byte   W24
 .byte   W24
 .byte   W24
 .byte   W24
@  #02 @065   ----------------------------------------
 .byte   W24
 .byte   W24
 .byte   W24
 .byte   W24
@  #02 @066   ----------------------------------------
 .byte   W24
 .byte   W24
 .byte   W24
 .byte   W24
@  #02 @067   ----------------------------------------
 .byte   W24
 .byte   W24
 .byte   W24
 .byte   W24
@  #02 @068   ----------------------------------------
 .byte   W24
 .byte   W24
 .byte   W24
 .byte   W24
@  #02 @069   ----------------------------------------
 .byte   W24
 .byte   W24
 .byte   W24
 .byte   W24
@  #02 @070   ----------------------------------------
 .byte   W24
 .byte   W24
 .byte   W24
 .byte   W24
@  #02 @071   ----------------------------------------
 .byte   W24
 .byte   W24
 .byte   W24
 .byte   W24
@  #02 @072   ----------------------------------------
 .byte   W24
 .byte   W24
 .byte   W24
 .byte   W24
@  #02 @073   ----------------------------------------
 .byte   W24
 .byte   W24
 .byte   W24
 .byte   W24
@  #02 @074   ----------------------------------------
 .byte   W24
 .byte   W24
 .byte   W24
 .byte   W24
@  #02 @075   ----------------------------------------
 .byte   W24
 .byte   W24
 .byte   W24
 .byte   W24
@  #02 @076   ----------------------------------------
 .byte   W24
 .byte   W24
 .byte   W24
 .byte   W24
@  #02 @077   ----------------------------------------
 .byte   W24
 .byte   W24
 .byte   W12
 .byte   GOTO
  .word Label_01486A45
@  #02 @078   ----------------------------------------
 .byte   W12
 .byte   W24
 .byte   W24
 .byte   W24
 .byte   W24
@  #02 @079   ----------------------------------------
 .byte   W24
 .byte   W24
 .byte   W24
 .byte   W24
@  #02 @080   ----------------------------------------
 .byte   W24
 .byte   W24
 .byte   W24
 .byte   W24
@  #02 @081   ----------------------------------------
 .byte   W24
 .byte   W24
 .byte   W24
 .byte   W24
@  #02 @082   ----------------------------------------
 .byte   W24
 .byte   W24
 .byte   W24
 .byte   W24
@  #02 @083   ----------------------------------------
 .byte   W24
 .byte   W24
 .byte   W24
 .byte   W24
@  #02 @084   ----------------------------------------
 .byte   W24
 .byte   W24
 .byte   W24
 .byte   W24
@  #02 @085   ----------------------------------------
 .byte   W24
 .byte   W24
 .byte   W24
 .byte   W24
@  #02 @086   ----------------------------------------
 .byte   W24
 .byte   W24
 .byte   W24
 .byte   W24
@  #02 @087   ----------------------------------------
 .byte   W24
 .byte   W24
 .byte   W24
 .byte   W24
@  #02 @088   ----------------------------------------
 .byte   W24
 .byte   W24
 .byte   W24
 .byte   W24
@  #02 @089   ----------------------------------------
 .byte   W24
 .byte   W24
 .byte   W24
 .byte   W24
@  #02 @090   ----------------------------------------
 .byte   W24
 .byte   W24
 .byte   W24
 .byte   W24
@  #02 @091   ----------------------------------------
 .byte   W24
 .byte   W24
 .byte   W24
 .byte   W24
@  #02 @092   ----------------------------------------
 .byte   W24
 .byte   W24
 .byte   W24
 .byte   W24
@  #02 @093   ----------------------------------------
 .byte   W24
 .byte   W24
 .byte   W24
 .byte   W24
@  #02 @094   ----------------------------------------
 .byte   W24
 .byte   W24
 .byte   W24
 .byte   W24
@  #02 @095   ----------------------------------------
 .byte   W24
 .byte   W24
 .byte   W12
 .byte   FINE

@**************** Track 3 (Midi-Chn.2) ****************@

song04_003:
@  #03 @000   ----------------------------------------
 .byte   KEYSH , song04_key+0
 .byte   VOICE , 68
 .byte   PAN , c_v-64
 .byte   W12
 .byte   VOL , 49*song04_mvl/mxv
 .byte   PAN , c_v+20
 .byte   N80 ,Gn2 ,v100
 .byte   W12
 .byte   W24
 .byte   W24
 .byte   W24
@  #03 @001   ----------------------------------------
Label_014873D6:
 .byte   N03 ,Gn2 ,v124
 .byte   W04
 .byte   Bn2
 .byte   W04
 .byte   Dn3 ,v127
 .byte   W04
 .byte   N23 ,Cs3 ,v116
 .byte   W12
 .byte   PEND 
 .byte   W12
 .byte   N56 ,An2 ,v112
 .byte   W12
 .byte   W24
 .byte   W24
@  #03 @002   ----------------------------------------
Label_014873EB:
 .byte   N05 ,An2 ,v104
 .byte   W06
 .byte   As2
 .byte   W06
 .byte   TIE ,Bn2 ,v120
 .byte   W12
 .byte   PEND 
 .byte   W24
 .byte   W24
 .byte   W24
@  #03 @003   ----------------------------------------
 .byte   W24
 .byte   W24
 .byte   W11
 .byte   EOT
 .byte   W13
Label_014873FE:
 .byte   N11 ,Bn2 ,v120
 .byte   W12
 .byte   Dn3 ,v124
 .byte   W12
 .byte   PEND 
@  #03 @004   ----------------------------------------
Label_01487406:
 .byte   N11 ,An3 ,v127
 .byte   W12
 .byte   An3 ,v120
 .byte   W12
 .byte   PEND 
Label_0148740E:
 .byte   N11 ,Bn3 ,v127
 .byte   W12
 .byte   N23 ,Gn3 ,v120
 .byte   W12
 .byte   PEND 
 .byte   W12
 .byte   N68 ,Fs3
 .byte   W12
 .byte   W24
@  #03 @005   ----------------------------------------
 .byte   W24
 .byte   W12
 .byte   Dn3
 .byte   W12
 .byte   W24
 .byte   W24
@  #03 @006   ----------------------------------------
 .byte   W12
 .byte   N44 ,Cs3
 .byte   W12
 .byte   W24
 .byte   W12
 .byte   N56 ,Dn3
 .byte   W12
 .byte   W24
@  #03 @007   ----------------------------------------
 .byte   W24
 .byte   W12
 .byte   N68 ,An3
 .byte   W12
 .byte   W24
 .byte   W24
@  #03 @008   ----------------------------------------
 .byte   W24
 .byte   W24
 .byte   W24
 .byte   W24
@  #03 @009   ----------------------------------------
 .byte   W24
 .byte   W24
 .byte   W24
 .byte   W24
@  #03 @010   ----------------------------------------
 .byte   W24
 .byte   W24
 .byte   W24
 .byte   W24
@  #03 @011   ----------------------------------------
 .byte   W24
 .byte   W24
 .byte   W24
 .byte   W24
@  #03 @012   ----------------------------------------
 .byte   W24
 .byte   W24
 .byte   W24
 .byte   W24
@  #03 @013   ----------------------------------------
 .byte   W24
 .byte   W24
 .byte   W24
 .byte   W24
@  #03 @014   ----------------------------------------
 .byte   W24
 .byte   W24
 .byte   W24
 .byte   W24
@  #03 @015   ----------------------------------------
 .byte   W24
 .byte   W24
 .byte   W24
 .byte   W24
@  #03 @016   ----------------------------------------
 .byte   W24
 .byte   W24
 .byte   W24
 .byte   W24
@  #03 @017   ----------------------------------------
 .byte   W24
 .byte   W24
 .byte   W24
 .byte   W24
@  #03 @018   ----------------------------------------
 .byte   W24
 .byte   W24
 .byte   W24
 .byte   W24
@  #03 @019   ----------------------------------------
 .byte   W24
 .byte   W24
 .byte   W24
 .byte   W24
@  #03 @020   ----------------------------------------
 .byte   W24
 .byte   W24
 .byte   W24
 .byte   W24
@  #03 @021   ----------------------------------------
 .byte   W24
 .byte   W24
 .byte   W24
 .byte   W24
@  #03 @022   ----------------------------------------
 .byte   W24
 .byte   W24
 .byte   W24
 .byte   W24
@  #03 @023   ----------------------------------------
 .byte   W24
 .byte   W24
 .byte   W24
 .byte   W24
@  #03 @024   ----------------------------------------
 .byte   W24
 .byte   W24
 .byte   W24
 .byte   W24
@  #03 @025   ----------------------------------------
 .byte   W24
 .byte   W24
 .byte   W24
 .byte   W24
@  #03 @026   ----------------------------------------
 .byte   W24
 .byte   W24
 .byte   W24
 .byte   W24
@  #03 @027   ----------------------------------------
 .byte   W24
 .byte   W24
 .byte   W24
 .byte   W24
@  #03 @028   ----------------------------------------
 .byte   W24
 .byte   W12
Label_01487485:
 .byte   W12
 .byte   W24
 .byte   W24
@  #03 @029   ----------------------------------------
 .byte   W24
 .byte   W24
 .byte   W24
 .byte   W24
@  #03 @030   ----------------------------------------
 .byte   W24
 .byte   W24
 .byte   W24
 .byte   W24
@  #03 @031   ----------------------------------------
 .byte   W24
 .byte   W24
 .byte   W24
 .byte   W24
@  #03 @032   ----------------------------------------
 .byte   W24
 .byte   W24
 .byte   W24
 .byte   W24
@  #03 @033   ----------------------------------------
 .byte   W24
 .byte   W24
 .byte   W24
 .byte   W24
@  #03 @034   ----------------------------------------
 .byte   W24
 .byte   W24
 .byte   W24
 .byte   W24
@  #03 @035   ----------------------------------------
 .byte   W24
 .byte   W24
 .byte   W24
 .byte   W24
@  #03 @036   ----------------------------------------
 .byte   W24
 .byte   W24
 .byte   W24
 .byte   W24
@  #03 @037   ----------------------------------------
 .byte   W24
 .byte   W24
 .byte   W24
 .byte   W24
@  #03 @038   ----------------------------------------
 .byte   W24
 .byte   W24
 .byte   W24
 .byte   W24
@  #03 @039   ----------------------------------------
 .byte   W24
 .byte   W24
 .byte   W24
 .byte   W24
@  #03 @040   ----------------------------------------
 .byte   W24
 .byte   W24
 .byte   W24
 .byte   W24
@  #03 @041   ----------------------------------------
 .byte   W24
 .byte   W24
 .byte   W24
 .byte   W24
@  #03 @042   ----------------------------------------
 .byte   W24
 .byte   W24
 .byte   W24
 .byte   W24
@  #03 @043   ----------------------------------------
 .byte   W24
 .byte   W24
 .byte   W24
 .byte   W24
@  #03 @044   ----------------------------------------
 .byte   W24
 .byte   W24
 .byte   W24
 .byte   W24
@  #03 @045   ----------------------------------------
 .byte   W24
 .byte   W24
 .byte   W24
 .byte   W24
@  #03 @046   ----------------------------------------
 .byte   W12
 .byte   VOL , 49*song04_mvl/mxv
 .byte   PAN , c_v+20
 .byte   N80 ,Gn2 ,v100
 .byte   W12
 .byte   W24
 .byte   W24
 .byte   W24
@  #03 @047   ----------------------------------------
 .byte   PATT
  .word Label_014873D6
@  #03 @048   ----------------------------------------
 .byte   W12
 .byte   N56 ,An2 ,v112
 .byte   W12
 .byte   W24
 .byte   W24
@  #03 @049   ----------------------------------------
 .byte   PATT
  .word Label_014873EB
@  #03 @050   ----------------------------------------
 .byte   W24
 .byte   W24
 .byte   W24
 .byte   W24
@  #03 @051   ----------------------------------------
 .byte   W24
 .byte   W11
 .byte   EOT
 .byte   Bn2
 .byte   W13
@  #03 @052   ----------------------------------------
 .byte   PATT
  .word Label_014873FE
@  #03 @053   ----------------------------------------
 .byte   PATT
  .word Label_01487406
@  #03 @054   ----------------------------------------
 .byte   PATT
  .word Label_0148740E
@  #03 @055   ----------------------------------------
 .byte   W12
 .byte   N68 ,Fs3 ,v120
 .byte   W12
 .byte   W24
 .byte   W24
 .byte   W12
 .byte   Dn3
 .byte   W12
@  #03 @056   ----------------------------------------
 .byte   W24
 .byte   W24
 .byte   W12
 .byte   N44 ,Cs3
 .byte   W12
 .byte   W24
@  #03 @057   ----------------------------------------
 .byte   W12
 .byte   N56 ,Dn3
 .byte   W12
 .byte   W24
 .byte   W24
 .byte   W12
 .byte   N68 ,An3
 .byte   W12
@  #03 @058   ----------------------------------------
 .byte   W24
 .byte   W24
 .byte   W24
 .byte   W24
@  #03 @059   ----------------------------------------
 .byte   W24
 .byte   W24
 .byte   W24
 .byte   W24
@  #03 @060   ----------------------------------------
 .byte   W24
 .byte   W24
 .byte   W24
 .byte   W24
@  #03 @061   ----------------------------------------
 .byte   W24
 .byte   W24
 .byte   W24
 .byte   W24
@  #03 @062   ----------------------------------------
 .byte   W24
 .byte   W24
 .byte   W24
 .byte   W24
@  #03 @063   ----------------------------------------
 .byte   W24
 .byte   W24
 .byte   W24
 .byte   W24
@  #03 @064   ----------------------------------------
 .byte   W24
 .byte   W24
 .byte   W24
 .byte   W24
@  #03 @065   ----------------------------------------
 .byte   W24
 .byte   W24
 .byte   W24
 .byte   W24
@  #03 @066   ----------------------------------------
 .byte   W24
 .byte   W24
 .byte   W24
 .byte   W24
@  #03 @067   ----------------------------------------
 .byte   W24
 .byte   W24
 .byte   W24
 .byte   W24
@  #03 @068   ----------------------------------------
 .byte   W24
 .byte   W24
 .byte   W24
 .byte   W24
@  #03 @069   ----------------------------------------
 .byte   W24
 .byte   W24
 .byte   W24
 .byte   W24
@  #03 @070   ----------------------------------------
 .byte   W24
 .byte   W24
 .byte   W24
 .byte   W24
@  #03 @071   ----------------------------------------
 .byte   W24
 .byte   W24
 .byte   W24
 .byte   W24
@  #03 @072   ----------------------------------------
 .byte   W24
 .byte   W24
 .byte   W24
 .byte   W24
@  #03 @073   ----------------------------------------
 .byte   W24
 .byte   W24
 .byte   W24
 .byte   W24
@  #03 @074   ----------------------------------------
 .byte   W24
 .byte   W24
 .byte   W24
 .byte   W24
@  #03 @075   ----------------------------------------
 .byte   W24
 .byte   W24
 .byte   W24
 .byte   W24
@  #03 @076   ----------------------------------------
 .byte   W24
 .byte   W24
 .byte   W24
 .byte   W24
@  #03 @077   ----------------------------------------
 .byte   W24
 .byte   W24
 .byte   W24
 .byte   W24
@  #03 @078   ----------------------------------------
 .byte   W24
 .byte   W24
 .byte   W24
 .byte   W12
 .byte   GOTO
  .word Label_01487485
@  #03 @079   ----------------------------------------
 .byte   W12
 .byte   W24
 .byte   W24
 .byte   W24
 .byte   W24
@  #03 @080   ----------------------------------------
 .byte   W24
 .byte   W24
 .byte   W24
 .byte   W24
@  #03 @081   ----------------------------------------
 .byte   W24
 .byte   W24
 .byte   W24
 .byte   W24
@  #03 @082   ----------------------------------------
 .byte   W24
 .byte   W24
 .byte   W24
 .byte   W24
@  #03 @083   ----------------------------------------
 .byte   W24
 .byte   W24
 .byte   W24
 .byte   W24
@  #03 @084   ----------------------------------------
 .byte   W24
 .byte   W24
 .byte   W24
 .byte   W24
@  #03 @085   ----------------------------------------
 .byte   W24
 .byte   W24
 .byte   W24
 .byte   W24
@  #03 @086   ----------------------------------------
 .byte   W24
 .byte   W24
 .byte   W24
 .byte   W24
@  #03 @087   ----------------------------------------
 .byte   W24
 .byte   W24
 .byte   W24
 .byte   W24
@  #03 @088   ----------------------------------------
 .byte   W24
 .byte   W24
 .byte   W24
 .byte   W24
@  #03 @089   ----------------------------------------
 .byte   W24
 .byte   W24
 .byte   W24
 .byte   W24
@  #03 @090   ----------------------------------------
 .byte   W24
 .byte   W24
 .byte   W24
 .byte   W24
@  #03 @091   ----------------------------------------
 .byte   W24
 .byte   W24
 .byte   W24
 .byte   W24
@  #03 @092   ----------------------------------------
 .byte   W24
 .byte   W24
 .byte   W24
 .byte   W24
@  #03 @093   ----------------------------------------
 .byte   W24
 .byte   W24
 .byte   W24
 .byte   W24
@  #03 @094   ----------------------------------------
 .byte   W24
 .byte   W24
 .byte   W24
 .byte   W24
@  #03 @095   ----------------------------------------
 .byte   W24
 .byte   W24
 .byte   W24
 .byte   W24
@  #03 @096   ----------------------------------------
 .byte   W24
 .byte   W24
 .byte   W12
 .byte   FINE

@**************** Track 4 (Midi-Chn.3) ****************@

song04_004:
@  #04 @000   ----------------------------------------
 .byte   KEYSH , song04_key+0
 .byte   VOICE , 38
 .byte   PAN , c_v-64
 .byte   W24
 .byte   W24
 .byte   W24
 .byte   W24
@  #04 @001   ----------------------------------------
 .byte   W24
 .byte   W24
 .byte   W24
 .byte   W24
@  #04 @002   ----------------------------------------
 .byte   W24
 .byte   W24
 .byte   W24
 .byte   W24
@  #04 @003   ----------------------------------------
 .byte   W24
 .byte   W24
 .byte   W24
 .byte   W24
@  #04 @004   ----------------------------------------
 .byte   W24
 .byte   W24
 .byte   W24
 .byte   W24
@  #04 @005   ----------------------------------------
 .byte   W24
 .byte   W24
 .byte   W24
 .byte   W24
@  #04 @006   ----------------------------------------
 .byte   W24
 .byte   W24
 .byte   W24
 .byte   W24
@  #04 @007   ----------------------------------------
 .byte   W24
 .byte   W24
 .byte   W24
 .byte   W24
@  #04 @008   ----------------------------------------
Label_014884DA:
 .byte   W12
 .byte   VOL , 49*song04_mvl/mxv
 .byte   PAN , c_v+15
 .byte   N11 ,Gn0 ,v127
 .byte   W12
 .byte   PEND 
 .byte   N11
 .byte   W24
 .byte   N11
 .byte   W24
 .byte   N11
 .byte   W24
@  #04 @009   ----------------------------------------
Label_014884EA:
 .byte   N11 ,Gn0 ,v127
 .byte   W12
 .byte   An0
 .byte   W12
 .byte   PEND 
 .byte   N11
 .byte   W24
 .byte   Fs0
 .byte   W24
 .byte   N11
 .byte   W24
@  #04 @010   ----------------------------------------
Label_014884F7:
 .byte   N11 ,Fs0 ,v127
 .byte   W12
 .byte   Gn0
 .byte   W12
 .byte   PEND 
 .byte   N11
 .byte   W24
 .byte   En0
 .byte   W24
Label_01488502:
 .byte   N11 ,En0 ,v127
 .byte   W12
 .byte   N11
 .byte   W12
 .byte   PEND 
@  #04 @011   ----------------------------------------
Label_01488509:
 .byte   N11 ,En0 ,v127
 .byte   W12
 .byte   Cn0
 .byte   W12
 .byte   PEND 
 .byte   N11
 .byte   W24
 .byte   N11
 .byte   W24
 .byte   Dn0
 .byte   W24
@  #04 @012   ----------------------------------------
Label_01488516:
 .byte   N11 ,Dn0 ,v127
 .byte   W12
 .byte   Gn0
 .byte   W12
 .byte   PEND 
 .byte   N11
 .byte   W24
 .byte   N11
 .byte   W24
 .byte   N11
 .byte   W24
@  #04 @013   ----------------------------------------
 .byte   PATT
  .word Label_014884EA
@  #04 @014   ----------------------------------------
 .byte   N11 ,An0 ,v127
 .byte   W24
 .byte   Fs0
 .byte   W24
 .byte   N11
 .byte   W24
@  #04 @015   ----------------------------------------
 .byte   PATT
  .word Label_014884F7
@  #04 @016   ----------------------------------------
 .byte   N11 ,Gn0 ,v127
 .byte   W24
 .byte   En0
 .byte   W24
@  #04 @017   ----------------------------------------
 .byte   PATT
  .word Label_01488502
@  #04 @018   ----------------------------------------
 .byte   PATT
  .word Label_01488509
@  #04 @019   ----------------------------------------
 .byte   N11 ,Cn0 ,v127
 .byte   W24
 .byte   N11
 .byte   W24
 .byte   Dn0
 .byte   W24
Label_0148854D:
 .byte   N11 ,Dn0 ,v127
 .byte   W12
 .byte   N44 ,Gn0 ,v104
 .byte   W12
 .byte   PEND 
@  #04 @020   ----------------------------------------
 .byte   W24
 .byte   W24
 .byte   W24
Label_01488559:
 .byte   N05 ,Gn0 ,v104
 .byte   W12
 .byte   N44 ,Gn0 ,v108
 .byte   W12
 .byte   PEND 
@  #04 @021   ----------------------------------------
 .byte   W24
 .byte   W24
 .byte   W24
Label_01488565:
 .byte   N05 ,Dn0 ,v108
 .byte   W12
 .byte   N44
 .byte   W12
 .byte   PEND 
@  #04 @022   ----------------------------------------
 .byte   W24
 .byte   W24
 .byte   W24
Label_0148856F:
 .byte   N05 ,Dn0 ,v108
 .byte   W12
 .byte   N64 ,En0
 .byte   W12
 .byte   PEND 
@  #04 @023   ----------------------------------------
 .byte   W24
 .byte   W24
 .byte   W24
Label_0148857A:
 .byte   N05 ,En0 ,v108
 .byte   W12
 .byte   N44 ,Fn0 ,v124
 .byte   W12
 .byte   PEND 
@  #04 @024   ----------------------------------------
 .byte   W24
 .byte   W24
 .byte   W24
Label_01488586:
 .byte   N11 ,Fn0 ,v120
 .byte   W12
 .byte   N05 ,Fs0 ,v112
 .byte   W12
 .byte   PEND 
@  #04 @025   ----------------------------------------
 .byte   N44
 .byte   W24
 .byte   W24
 .byte   W24
Label_01488593:
 .byte   N11 ,Fs0 ,v112
 .byte   W12
 .byte   N44 ,Gn0
 .byte   W12
 .byte   PEND 
@  #04 @026   ----------------------------------------
 .byte   W24
 .byte   W24
 .byte   W24
Label_0148859E:
 .byte   N05 ,Gn0 ,v104
 .byte   W12
 .byte   N11 ,Fn0 ,v112
 .byte   W12
 .byte   PEND 
@  #04 @027   ----------------------------------------
 .byte   W12
 .byte   N11
 .byte   W12
 .byte   W12
 .byte   Fn0 ,v116
 .byte   W12
 .byte   W12
 .byte   Fn0 ,v112
 .byte   W12
 .byte   W12
 .byte   N05 ,Fn0 ,v108
 .byte   W12
@  #04 @028   ----------------------------------------
Label_014885B7:
 .byte   N11 ,Fn0 ,v108
 .byte   W12
 .byte   N05 ,An0
 .byte   W12
 .byte   PEND 
Label_014885BF:
 .byte   N11 ,An0 ,v108
 .byte   W12
 .byte   N05 ,Gn0
 .byte   W12
 .byte   PEND 
Label_014885C7:
 .byte   N11 ,Gn0 ,v108
 .byte   W12
 .byte   N05 ,Fn0
 .byte   W12
 .byte   PEND 
Label_014885CF:
 .byte   N11 ,Fn0 ,v108
 .byte   W12
 .byte   N05 ,Fs0
 .byte   W12
 .byte   PEND 
@  #04 @029   ----------------------------------------
Label_014885D7:
 .byte   N11 ,Fs0 ,v108
 .byte   W12
 .byte   N05 ,Cn1
 .byte   W12
 .byte   PEND 
Label_014885DF:
 .byte   N11 ,Cn1 ,v108
 .byte   W12
 .byte   N05 ,An0
 .byte   W12
 .byte   PEND 
Label_014885E7:
 .byte   N11 ,An0 ,v108
 .byte   W12
 .byte   N05 ,Fs0
 .byte   W12
 .byte   PEND 
Label_014885EF:
 .byte   N11 ,Fs0 ,v108
 .byte   W12
 .byte   N05 ,Gn0
 .byte   W12
 .byte   PEND 
@  #04 @030   ----------------------------------------
Label_014885F7:
 .byte   N11 ,Gn0 ,v108
 .byte   W12
 .byte   N05 ,En1
 .byte   W12
 .byte   PEND 
Label_014885FF:
 .byte   N11 ,En1 ,v108
 .byte   W12
 .byte   N05 ,Cn1
 .byte   W12
 .byte   PEND 
Label_01488607:
 .byte   N11 ,Cn1 ,v108
 .byte   W12
 .byte   N05 ,Gn0
 .byte   W12
 .byte   PEND 
Label_0148860F:
 .byte   N11 ,Gn0 ,v108
 .byte   W12
 .byte   N23 ,Fs0 ,v100
 .byte   W12
 .byte   PEND 
@  #04 @031   ----------------------------------------
 .byte   W12
 .byte   En0 ,v124
 .byte   W12
 .byte   W12
 .byte   Cn0 ,v116
 .byte   W12
 .byte   W12
 .byte   AnM1 ,v124
 .byte   W12
 .byte   W12
 .byte   N56 ,Gn0 ,v127
 .byte   W12
@  #04 @032   ----------------------------------------
 .byte   W12
Label_0148862A:
 .byte   W12
 .byte   W24
 .byte   W24
 .byte   W24
@  #04 @033   ----------------------------------------
 .byte   W24
 .byte   W24
 .byte   W24
 .byte   W24
@  #04 @034   ----------------------------------------
 .byte   W24
 .byte   W24
 .byte   W24
 .byte   W24
@  #04 @035   ----------------------------------------
 .byte   W24
 .byte   W24
 .byte   W24
 .byte   W24
@  #04 @036   ----------------------------------------
 .byte   W24
 .byte   W24
 .byte   W24
 .byte   W24
@  #04 @037   ----------------------------------------
 .byte   W24
 .byte   W24
 .byte   W24
 .byte   W24
@  #04 @038   ----------------------------------------
 .byte   W24
 .byte   W24
 .byte   W24
 .byte   W24
@  #04 @039   ----------------------------------------
 .byte   W24
 .byte   W24
 .byte   W24
 .byte   W12
 .byte   N05 ,Ds0 ,v127
 .byte   W12
@  #04 @040   ----------------------------------------
 .byte   N23
 .byte   W24
Label_01488650:
 .byte   N05 ,Fs0 ,v127
 .byte   W12
 .byte   N23 ,Ds0
 .byte   W12
 .byte   PEND 
 .byte   W12
 .byte   N05
 .byte   W12
 .byte   N23
 .byte   W24
@  #04 @041   ----------------------------------------
 .byte   PATT
  .word Label_01488650
@  #04 @042   ----------------------------------------
 .byte   W24
Label_01488663:
 .byte   N11 ,Ds0 ,v127
 .byte   W12
 .byte   Fn0
 .byte   W12
 .byte   PEND 
Label_0148866A:
 .byte   N11 ,Fs0 ,v127
 .byte   W12
 .byte   N05 ,Ds0
 .byte   W12
 .byte   PEND 
 .byte   N23
 .byte   W24
@  #04 @043   ----------------------------------------
 .byte   PATT
  .word Label_01488650
@  #04 @044   ----------------------------------------
 .byte   W12
 .byte   N05 ,Ds0 ,v127
 .byte   W12
Label_0148867E:
 .byte   N11 ,Ds0 ,v127
 .byte   W12
 .byte   Gs0
 .byte   W12
 .byte   PEND 
Label_01488685:
 .byte   N11 ,Gs0 ,v127
 .byte   W12
 .byte   As0
 .byte   W12
 .byte   PEND 
Label_0148868C:
 .byte   N11 ,Gn0 ,v127
 .byte   W12
 .byte   Ds0
 .byte   W12
 .byte   PEND 
@  #04 @045   ----------------------------------------
Label_01488693:
 .byte   N11 ,Fn0 ,v127
 .byte   W12
 .byte   Gn0
 .byte   W12
 .byte   PEND 
Label_0148869A:
 .byte   N11 ,Gs0 ,v127
 .byte   W12
 .byte   N05 ,Cn0
 .byte   W12
 .byte   PEND 
 .byte   N23
 .byte   W24
Label_014886A4:
 .byte   N05 ,Fs0 ,v127
 .byte   W12
 .byte   N23 ,Cn0
 .byte   W12
 .byte   PEND 
@  #04 @046   ----------------------------------------
 .byte   W12
 .byte   N05
 .byte   W12
Label_014886AF:
 .byte   N11 ,Cn0 ,v127
 .byte   W12
 .byte   N05 ,An0
 .byte   W12
 .byte   PEND 
 .byte   N23
 .byte   W24
Label_014886B9:
 .byte   N05 ,Fs0 ,v127
 .byte   W12
 .byte   N23 ,An0
 .byte   W12
 .byte   PEND 
@  #04 @047   ----------------------------------------
 .byte   W12
 .byte   N05
 .byte   W12
Label_014886C4:
 .byte   N11 ,An0 ,v127
 .byte   W12
 .byte   N05 ,Gn0
 .byte   W12
 .byte   PEND 
 .byte   N23
 .byte   W24
Label_014886CE:
 .byte   N05 ,Fs0 ,v127
 .byte   W12
 .byte   N23 ,Gn0
 .byte   W12
 .byte   PEND 
@  #04 @048   ----------------------------------------
 .byte   W12
 .byte   N05
 .byte   W12
Label_014886D9:
 .byte   N11 ,Gn0 ,v127
 .byte   W12
 .byte   N05
 .byte   W12
 .byte   PEND 
 .byte   N23
 .byte   W24
@  #04 @049   ----------------------------------------
 .byte   PATT
  .word Label_014886CE
@  #04 @050   ----------------------------------------
 .byte   W12
 .byte   N05 ,Gn0 ,v127
 .byte   W12
@  #04 @051   ----------------------------------------
 .byte   PATT
  .word Label_014886D9
@  #04 @052   ----------------------------------------
 .byte   N23 ,Gn0 ,v127
 .byte   W24
@  #04 @053   ----------------------------------------
 .byte   PATT
  .word Label_014886CE
@  #04 @054   ----------------------------------------
 .byte   W12
 .byte   N05 ,Gn0 ,v127
 .byte   W12
@  #04 @055   ----------------------------------------
 .byte   PATT
  .word Label_014886D9
@  #04 @056   ----------------------------------------
 .byte   N23 ,Gn0 ,v127
 .byte   W24
@  #04 @057   ----------------------------------------
 .byte   PATT
  .word Label_014886CE
@  #04 @058   ----------------------------------------
 .byte   W12
 .byte   N05 ,Gn0 ,v127
 .byte   W12
 .byte   N11
 .byte   W24
 .byte   W24
 .byte   W24
@  #04 @059   ----------------------------------------
 .byte   W24
 .byte   W24
 .byte   W24
 .byte   W24
@  #04 @060   ----------------------------------------
 .byte   W24
 .byte   W24
 .byte   W24
 .byte   W24
@  #04 @061   ----------------------------------------
 .byte   W24
 .byte   W24
 .byte   W24
 .byte   W24
@  #04 @062   ----------------------------------------
 .byte   W24
 .byte   W24
 .byte   W24
 .byte   W24
@  #04 @063   ----------------------------------------
 .byte   W24
 .byte   W24
 .byte   W24
 .byte   W24
@  #04 @064   ----------------------------------------
 .byte   W24
 .byte   W24
 .byte   W24
 .byte   W24
@  #04 @065   ----------------------------------------
 .byte   W24
 .byte   W24
 .byte   W24
 .byte   W24
@  #04 @066   ----------------------------------------
 .byte   W24
@  #04 @067   ----------------------------------------
 .byte   PATT
  .word Label_014884DA
@  #04 @068   ----------------------------------------
 .byte   N11 ,Gn0 ,v127
 .byte   W24
 .byte   N11
 .byte   W24
 .byte   N11
 .byte   W24
@  #04 @069   ----------------------------------------
 .byte   PATT
  .word Label_014884EA
@  #04 @070   ----------------------------------------
 .byte   N11 ,An0 ,v127
 .byte   W24
 .byte   Fs0
 .byte   W24
 .byte   N11
 .byte   W24
@  #04 @071   ----------------------------------------
 .byte   PATT
  .word Label_014884F7
@  #04 @072   ----------------------------------------
 .byte   N11 ,Gn0 ,v127
 .byte   W24
 .byte   En0
 .byte   W24
@  #04 @073   ----------------------------------------
 .byte   PATT
  .word Label_01488502
@  #04 @074   ----------------------------------------
 .byte   PATT
  .word Label_01488509
@  #04 @075   ----------------------------------------
 .byte   N11 ,Cn0 ,v127
 .byte   W24
 .byte   N11
 .byte   W24
 .byte   Dn0
 .byte   W24
@  #04 @076   ----------------------------------------
 .byte   PATT
  .word Label_01488516
@  #04 @077   ----------------------------------------
 .byte   N11 ,Gn0 ,v127
 .byte   W24
 .byte   N11
 .byte   W24
 .byte   N11
 .byte   W24
@  #04 @078   ----------------------------------------
 .byte   PATT
  .word Label_014884EA
@  #04 @079   ----------------------------------------
 .byte   N11 ,An0 ,v127
 .byte   W24
 .byte   Fs0
 .byte   W24
 .byte   N11
 .byte   W24
@  #04 @080   ----------------------------------------
 .byte   PATT
  .word Label_014884F7
@  #04 @081   ----------------------------------------
 .byte   N11 ,Gn0 ,v127
 .byte   W24
 .byte   En0
 .byte   W24
@  #04 @082   ----------------------------------------
 .byte   PATT
  .word Label_01488502
@  #04 @083   ----------------------------------------
 .byte   PATT
  .word Label_01488509
@  #04 @084   ----------------------------------------
 .byte   N11 ,Cn0 ,v127
 .byte   W24
 .byte   N11
 .byte   W24
 .byte   Dn0
 .byte   W24
@  #04 @085   ----------------------------------------
 .byte   PATT
  .word Label_0148854D
@  #04 @086   ----------------------------------------
 .byte   W24
 .byte   W24
 .byte   W24
@  #04 @087   ----------------------------------------
 .byte   PATT
  .word Label_01488559
@  #04 @088   ----------------------------------------
 .byte   W24
 .byte   W24
 .byte   W24
@  #04 @089   ----------------------------------------
 .byte   PATT
  .word Label_01488565
@  #04 @090   ----------------------------------------
 .byte   W24
 .byte   W24
 .byte   W24
@  #04 @091   ----------------------------------------
 .byte   PATT
  .word Label_0148856F
@  #04 @092   ----------------------------------------
 .byte   W24
 .byte   W24
 .byte   W24
@  #04 @093   ----------------------------------------
 .byte   PATT
  .word Label_0148857A
@  #04 @094   ----------------------------------------
 .byte   W24
 .byte   W24
 .byte   W24
@  #04 @095   ----------------------------------------
 .byte   PATT
  .word Label_01488586
@  #04 @096   ----------------------------------------
 .byte   N44 ,Fs0 ,v112
 .byte   W24
 .byte   W24
 .byte   W24
@  #04 @097   ----------------------------------------
 .byte   PATT
  .word Label_01488593
@  #04 @098   ----------------------------------------
 .byte   W24
 .byte   W24
 .byte   W24
@  #04 @099   ----------------------------------------
 .byte   PATT
  .word Label_0148859E
@  #04 @100   ----------------------------------------
 .byte   W12
 .byte   N11 ,Fn0 ,v112
 .byte   W12
 .byte   W12
 .byte   Fn0 ,v116
 .byte   W12
 .byte   W12
 .byte   Fn0 ,v112
 .byte   W12
 .byte   W12
 .byte   N05 ,Fn0 ,v108
 .byte   W12
@  #04 @101   ----------------------------------------
 .byte   PATT
  .word Label_014885B7
@  #04 @102   ----------------------------------------
 .byte   PATT
  .word Label_014885BF
@  #04 @103   ----------------------------------------
 .byte   PATT
  .word Label_014885C7
@  #04 @104   ----------------------------------------
 .byte   PATT
  .word Label_014885CF
@  #04 @105   ----------------------------------------
 .byte   PATT
  .word Label_014885D7
@  #04 @106   ----------------------------------------
 .byte   PATT
  .word Label_014885DF
@  #04 @107   ----------------------------------------
 .byte   PATT
  .word Label_014885E7
@  #04 @108   ----------------------------------------
 .byte   PATT
  .word Label_014885EF
@  #04 @109   ----------------------------------------
 .byte   PATT
  .word Label_014885F7
@  #04 @110   ----------------------------------------
 .byte   PATT
  .word Label_014885FF
@  #04 @111   ----------------------------------------
 .byte   PATT
  .word Label_01488607
@  #04 @112   ----------------------------------------
 .byte   PATT
  .word Label_0148860F
@  #04 @113   ----------------------------------------
 .byte   W12
 .byte   N23 ,En0 ,v124
 .byte   W12
 .byte   W12
 .byte   Cn0 ,v116
 .byte   W12
 .byte   W12
 .byte   AnM1 ,v124
 .byte   W12
 .byte   W12
 .byte   N56 ,Gn0 ,v127
 .byte   W12
@  #04 @114   ----------------------------------------
 .byte   W12
 .byte   GOTO
  .word Label_0148862A
@  #04 @115   ----------------------------------------
 .byte   W12
 .byte   W24
 .byte   W24
 .byte   W24
 .byte   W24
@  #04 @116   ----------------------------------------
 .byte   W24
 .byte   W24
 .byte   W24
 .byte   W24
@  #04 @117   ----------------------------------------
 .byte   W24
 .byte   W24
 .byte   W24
 .byte   W24
@  #04 @118   ----------------------------------------
 .byte   W24
 .byte   W24
 .byte   W24
 .byte   W24
@  #04 @119   ----------------------------------------
 .byte   W24
 .byte   W24
 .byte   W24
 .byte   W24
@  #04 @120   ----------------------------------------
 .byte   W24
 .byte   W24
 .byte   W24
 .byte   W24
@  #04 @121   ----------------------------------------
 .byte   W24
 .byte   W24
 .byte   W24
 .byte   W24
@  #04 @122   ----------------------------------------
 .byte   W24
 .byte   W24
 .byte   W12
 .byte   N05 ,Ds0 ,v127
 .byte   W12
 .byte   N23
 .byte   W24
@  #04 @123   ----------------------------------------
 .byte   PATT
  .word Label_01488650
@  #04 @124   ----------------------------------------
 .byte   W12
 .byte   N05 ,Ds0 ,v127
 .byte   W12
 .byte   N23
 .byte   W24
@  #04 @125   ----------------------------------------
 .byte   PATT
  .word Label_01488650
@  #04 @126   ----------------------------------------
 .byte   W24
@  #04 @127   ----------------------------------------
 .byte   PATT
  .word Label_01488663
@  #04 @128   ----------------------------------------
 .byte   PATT
  .word Label_0148866A
@  #04 @129   ----------------------------------------
 .byte   N23 ,Ds0 ,v127
 .byte   W24
@  #04 @130   ----------------------------------------
 .byte   PATT
  .word Label_01488650
@  #04 @131   ----------------------------------------
 .byte   W12
 .byte   N05 ,Ds0 ,v127
 .byte   W12
@  #04 @132   ----------------------------------------
 .byte   PATT
  .word Label_0148867E
@  #04 @133   ----------------------------------------
 .byte   PATT
  .word Label_01488685
@  #04 @134   ----------------------------------------
 .byte   PATT
  .word Label_0148868C
@  #04 @135   ----------------------------------------
 .byte   PATT
  .word Label_01488693
@  #04 @136   ----------------------------------------
 .byte   PATT
  .word Label_0148869A
@  #04 @137   ----------------------------------------
 .byte   N23 ,Cn0 ,v127
 .byte   W24
@  #04 @138   ----------------------------------------
 .byte   PATT
  .word Label_014886A4
@  #04 @139   ----------------------------------------
 .byte   W12
 .byte   N05 ,Cn0 ,v127
 .byte   W12
@  #04 @140   ----------------------------------------
 .byte   PATT
  .word Label_014886AF
@  #04 @141   ----------------------------------------
 .byte   N23 ,An0 ,v127
 .byte   W24
@  #04 @142   ----------------------------------------
 .byte   PATT
  .word Label_014886B9
@  #04 @143   ----------------------------------------
 .byte   W12
 .byte   N05 ,An0 ,v127
 .byte   W12
@  #04 @144   ----------------------------------------
 .byte   PATT
  .word Label_014886C4
@  #04 @145   ----------------------------------------
 .byte   N23 ,Gn0 ,v127
 .byte   W24
@  #04 @146   ----------------------------------------
 .byte   PATT
  .word Label_014886CE
@  #04 @147   ----------------------------------------
 .byte   W12
 .byte   N05 ,Gn0 ,v127
 .byte   W12
@  #04 @148   ----------------------------------------
 .byte   PATT
  .word Label_014886D9
@  #04 @149   ----------------------------------------
 .byte   N23 ,Gn0 ,v127
 .byte   W24
@  #04 @150   ----------------------------------------
 .byte   PATT
  .word Label_014886CE
@  #04 @151   ----------------------------------------
 .byte   W12
 .byte   N05 ,Gn0 ,v127
 .byte   W12
@  #04 @152   ----------------------------------------
 .byte   PATT
  .word Label_014886D9
@  #04 @153   ----------------------------------------
 .byte   N23 ,Gn0 ,v127
 .byte   W24
@  #04 @154   ----------------------------------------
 .byte   PATT
  .word Label_014886CE
@  #04 @155   ----------------------------------------
 .byte   W12
 .byte   N05 ,Gn0 ,v127
 .byte   W12
@  #04 @156   ----------------------------------------
 .byte   PATT
  .word Label_014886D9
@  #04 @157   ----------------------------------------
 .byte   N23 ,Gn0 ,v127
 .byte   W24
@  #04 @158   ----------------------------------------
 .byte   PATT
  .word Label_014886CE
@  #04 @159   ----------------------------------------
 .byte   W12
 .byte   N05 ,Gn0 ,v127
 .byte   W12
 .byte   N11
 .byte   W12
 .byte   FINE

@**************** Track 5 (Midi-Chn.4) ****************@

song04_005:
@  #05 @000   ----------------------------------------
 .byte   KEYSH , song04_key+0
 .byte   VOICE , 48
 .byte   PAN , c_v+38
 .byte   VOL , 0*song04_mvl/mxv
 .byte   W24
 .byte   W24
 .byte   W24
 .byte   W24
@  #05 @001   ----------------------------------------
 .byte   W24
 .byte   W24
 .byte   W24
 .byte   W24
@  #05 @002   ----------------------------------------
 .byte   W24
 .byte   W24
 .byte   W24
 .byte   W24
@  #05 @003   ----------------------------------------
 .byte   W24
 .byte   W24
 .byte   W24
 .byte   W24
@  #05 @004   ----------------------------------------
 .byte   W24
 .byte   W24
 .byte   W24
 .byte   W24
@  #05 @005   ----------------------------------------
 .byte   W24
 .byte   W24
 .byte   W24
 .byte   W24
@  #05 @006   ----------------------------------------
 .byte   W24
 .byte   W24
 .byte   W24
 .byte   W24
@  #05 @007   ----------------------------------------
 .byte   W24
 .byte   W24
 .byte   W24
 .byte   W24
@  #05 @008   ----------------------------------------
Label_01488F18:
 .byte   W12
 .byte   VOL , 49*song04_mvl/mxv
 .byte   N44 ,Fs3 ,v076
 .byte   N44 ,Dn4
 .byte   W12
 .byte   PEND 
 .byte   W24
Label_01488F23:
 .byte   W12
 .byte   N11 ,En3 ,v088
 .byte   N11 ,Cs4 ,v092
 .byte   W12
 .byte   PEND 
Label_01488F2C:
 .byte   N11 ,Dn3 ,v076
 .byte   N11 ,Bn3
 .byte   W12
 .byte   N68 ,Bn2 ,v068
 .byte   TIE ,An3 ,v064
 .byte   W12
 .byte   PEND 
@  #05 @009   ----------------------------------------
 .byte   W24
 .byte   W24
 .byte   W12
 .byte   N44 ,An2 ,v068
 .byte   W12
 .byte   W24
@  #05 @010   ----------------------------------------
 .byte   W11
 .byte   EOT
 .byte   An3
 .byte   W01
 .byte   N23 ,Fs3 ,v076
 .byte   N23 ,Dn4 ,v072
 .byte   W12
 .byte   W12
 .byte   N11 ,En3 ,v076
 .byte   N11 ,Cs4
 .byte   W12
Label_01488F54:
 .byte   N11 ,Dn3 ,v072
 .byte   N11 ,Bn3 ,v084
 .byte   W12
 .byte   N92 ,Bn2 ,v068
 .byte   N23 ,Fs3
 .byte   W12
 .byte   PEND 
 .byte   W12
 .byte   N44 ,Dn3
 .byte   W12
@  #05 @011   ----------------------------------------
 .byte   W24
 .byte   W12
 .byte   N23 ,Bn3
 .byte   W12
Label_01488F6B:
 .byte   W12
 .byte   N44 ,An2 ,v080
 .byte   N23 ,An3 ,v068
 .byte   W12
 .byte   PEND 
 .byte   W12
 .byte   Gn3
 .byte   W12
@  #05 @012   ----------------------------------------
Label_01488F77:
 .byte   W12
 .byte   N44 ,Fs3 ,v076
 .byte   N44 ,Dn4
 .byte   W12
 .byte   PEND 
 .byte   W24
@  #05 @013   ----------------------------------------
 .byte   PATT
  .word Label_01488F23
@  #05 @014   ----------------------------------------
 .byte   PATT
  .word Label_01488F2C
@  #05 @015   ----------------------------------------
 .byte   W24
 .byte   W24
 .byte   W12
 .byte   N44 ,An2 ,v068
 .byte   W12
 .byte   W24
@  #05 @016   ----------------------------------------
 .byte   W11
 .byte   EOT
 .byte   An3
 .byte   W01
 .byte   N23 ,Fs3 ,v076
 .byte   N23 ,Dn4 ,v072
 .byte   W12
 .byte   W12
 .byte   N11 ,En3 ,v076
 .byte   N11 ,Cs4
 .byte   W12
@  #05 @017   ----------------------------------------
 .byte   PATT
  .word Label_01488F54
@  #05 @018   ----------------------------------------
 .byte   W12
 .byte   N44 ,Dn3 ,v068
 .byte   W12
 .byte   W24
 .byte   W12
 .byte   N23 ,Bn3
 .byte   W12
@  #05 @019   ----------------------------------------
 .byte   PATT
  .word Label_01488F6B
@  #05 @020   ----------------------------------------
 .byte   W12
 .byte   N23 ,Gn3 ,v068
 .byte   W12
 .byte   W24
 .byte   W24
 .byte   W24
@  #05 @021   ----------------------------------------
 .byte   W24
 .byte   W24
 .byte   W24
 .byte   W24
@  #05 @022   ----------------------------------------
 .byte   W24
 .byte   W24
 .byte   W24
 .byte   W24
@  #05 @023   ----------------------------------------
 .byte   W24
 .byte   W24
 .byte   W24
 .byte   W24
@  #05 @024   ----------------------------------------
 .byte   W24
 .byte   W24
 .byte   W24
 .byte   W24
@  #05 @025   ----------------------------------------
 .byte   W24
 .byte   W24
 .byte   W24
 .byte   W24
@  #05 @026   ----------------------------------------
 .byte   W24
 .byte   W24
 .byte   W24
 .byte   W24
@  #05 @027   ----------------------------------------
 .byte   W24
 .byte   W24
 .byte   W24
 .byte   W24
@  #05 @028   ----------------------------------------
 .byte   W24
 .byte   W24
 .byte   W24
 .byte   W24
@  #05 @029   ----------------------------------------
 .byte   W24
 .byte   W24
 .byte   W24
 .byte   W24
@  #05 @030   ----------------------------------------
 .byte   W24
 .byte   W24
 .byte   W24
 .byte   W24
@  #05 @031   ----------------------------------------
 .byte   W24
 .byte   W24
 .byte   W24
 .byte   W24
@  #05 @032   ----------------------------------------
 .byte   W24
Label_01488FED:
 .byte   W12
 .byte   N32 ,Gn3 ,v092
 .byte   N32 ,Bn3
 .byte   W12
 .byte   PEND 
 .byte   W12
Label_01488FF6:
 .byte   W12
Label_01488FF7:
 .byte   N11 ,En3 ,v092
 .byte   N11 ,Cn4
 .byte   W12
 .byte   N56 ,Dn3
 .byte   N56 ,Bn3
 .byte   W12
 .byte   PEND 
@  #05 @033   ----------------------------------------
 .byte   W24
 .byte   W24
Label_01489005:
 .byte   N11 ,Dn3 ,v092
 .byte   N11 ,Fs3
 .byte   W12
 .byte   En3
 .byte   N11 ,Gn3
 .byte   W12
 .byte   PEND 
Label_01489010:
 .byte   N11 ,Fs3 ,v092
 .byte   N11 ,An3
 .byte   W12
 .byte   Gn3
 .byte   N11 ,Bn3
 .byte   W12
 .byte   PEND 
@  #05 @034   ----------------------------------------
Label_0148901B:
 .byte   N11 ,An3 ,v092
 .byte   N11 ,Cn4
 .byte   W12
 .byte   Bn3
 .byte   N11 ,Dn4
 .byte   W12
 .byte   PEND 
Label_01489026:
 .byte   N11 ,Cn4 ,v092
 .byte   N11 ,En4
 .byte   W12
 .byte   N44 ,Dn4
 .byte   N44 ,Bn4
 .byte   W12
 .byte   PEND 
 .byte   W24
Label_01489033:
 .byte   W12
 .byte   N44 ,Cn4 ,v092
 .byte   N11 ,An4
 .byte   W12
 .byte   PEND 
@  #05 @035   ----------------------------------------
Label_0148903B:
 .byte   N11 ,Gn4 ,v092
 .byte   W12
 .byte   N92 ,Fs4
 .byte   W12
 .byte   PEND 
 .byte   W12
 .byte   N11 ,An3
 .byte   W12
Label_01489047:
 .byte   N11 ,Gn3 ,v092
 .byte   W12
 .byte   N23 ,Fs3
 .byte   W12
 .byte   PEND 
 .byte   W12
 .byte   An3
 .byte   W12
@  #05 @036   ----------------------------------------
Label_01489052:
 .byte   W12
 .byte   N11 ,Gn3 ,v092
 .byte   N11 ,Dn4
 .byte   W12
 .byte   PEND 
Label_0148905A:
 .byte   N11 ,Dn3 ,v092
 .byte   N11 ,Bn3
 .byte   W12
 .byte   N32 ,Gn3
 .byte   N32 ,Bn3
 .byte   W12
 .byte   PEND 
 .byte   W24
@  #05 @037   ----------------------------------------
 .byte   PATT
  .word Label_01488FF7
@  #05 @038   ----------------------------------------
 .byte   W24
 .byte   W24
Label_0148906E:
 .byte   N11 ,Dn3 ,v072
 .byte   N11 ,Fs3
 .byte   W12
 .byte   En3 ,v084
 .byte   N11 ,Gn3
 .byte   W12
 .byte   PEND 
Label_0148907A:
 .byte   N11 ,Fs3 ,v092
 .byte   N11 ,An3 ,v088
 .byte   W12
 .byte   Gn3 ,v072
 .byte   N11 ,Bn3
 .byte   W12
 .byte   PEND 
@  #05 @039   ----------------------------------------
Label_01489087:
 .byte   N11 ,An3 ,v080
 .byte   N11 ,Cn4
 .byte   W12
 .byte   Bn3
 .byte   N11 ,Dn4 ,v072
 .byte   W12
 .byte   PEND 
Label_01489093:
 .byte   N11 ,Cn4 ,v084
 .byte   N11 ,En4 ,v080
 .byte   W12
 .byte   N44 ,Dn4 ,v072
 .byte   N44 ,Bn4
 .byte   W12
 .byte   PEND 
 .byte   W24
Label_014890A2:
 .byte   W12
 .byte   N44 ,Cn4 ,v096
 .byte   N11 ,An4 ,v080
 .byte   W12
 .byte   PEND 
@  #05 @040   ----------------------------------------
Label_014890AB:
 .byte   N11 ,Gn4 ,v084
 .byte   W12
 .byte   N68 ,Fs4 ,v076
 .byte   W12
 .byte   PEND 
 .byte   W12
 .byte   N11 ,An3 ,v088
 .byte   W12
Label_014890B9:
 .byte   N11 ,Gn3 ,v084
 .byte   W12
 .byte   N23 ,En3
 .byte   W12
 .byte   PEND 
Label_014890C1:
 .byte   W12
 .byte   N32 ,Cs3 ,v092
 .byte   N11 ,Fs4 ,v088
 .byte   W12
 .byte   PEND 
@  #05 @041   ----------------------------------------
Label_014890CA:
 .byte   N11 ,Fn4 ,v100
 .byte   W12
 .byte   N23 ,Cs4 ,v096
 .byte   W12
 .byte   PEND 
Label_014890D3:
 .byte   N11 ,Gs3 ,v092
 .byte   W12
 .byte   N92 ,Ds3 ,v072
 .byte   N11 ,Fs4
 .byte   N11 ,Fs5
 .byte   W12
 .byte   PEND 
Label_014890E0:
 .byte   N11 ,Fn4 ,v072
 .byte   N11 ,Fn5 ,v076
 .byte   W12
 .byte   TIE ,Cs4 ,v072
 .byte   TIE ,Cs5
 .byte   W12
 .byte   PEND 
 .byte   W24
@  #05 @042   ----------------------------------------
 .byte   W24
 .byte   W12
 .byte   N23 ,Ds3 ,v080
 .byte   W12
 .byte   W12
 .byte   Fn3
 .byte   W12
 .byte   W12
 .byte   As2 ,v088
 .byte   W12
@  #05 @043   ----------------------------------------
 .byte   W12
 .byte   Gs3 ,v084
 .byte   W12
 .byte   W11
 .byte   EOT
 .byte   Cs4 ,v085
 .byte   W01
 .byte   N23 ,Ds3 ,v076
 .byte   N23 ,Fs3 ,v080
 .byte   N11 ,Fs4 ,v072
 .byte   N11 ,Fs5
 .byte   W12
Label_01489111:
 .byte   N11 ,Fn4 ,v072
 .byte   N11 ,Fn5 ,v076
 .byte   W12
 .byte   N68 ,Fs2 ,v072
 .byte   N68 ,Gs3
 .byte   N68 ,Cs4
 .byte   N68 ,Cs5
 .byte   W12
 .byte   PEND 
 .byte   W24
@  #05 @044   ----------------------------------------
 .byte   W24
Label_01489125:
 .byte   W12
 .byte   N92 ,Gs2 ,v076
 .byte   N11 ,Gn3 ,v080
 .byte   N92 ,Cn4 ,v072
 .byte   N92 ,Cn5
 .byte   W12
 .byte   PEND 
Label_01489133:
 .byte   N11 ,As3 ,v080
 .byte   W12
 .byte   Ds3 ,v084
 .byte   W12
 .byte   PEND 
Label_0148913B:
 .byte   N11 ,Gn3 ,v088
 .byte   W12
 .byte   Cn3 ,v084
 .byte   W12
 .byte   PEND 
@  #05 @045   ----------------------------------------
Label_01489143:
 .byte   N11 ,Fn3 ,v088
 .byte   W12
 .byte   Dn3 ,v096
 .byte   W12
 .byte   PEND 
Label_0148914B:
 .byte   N11 ,As2 ,v100
 .byte   W12
 .byte   N92 ,Cn3 ,v072
 .byte   N92 ,Fs3
 .byte   N92 ,An3
 .byte   N23 ,Bn4 ,v100
 .byte   W12
 .byte   PEND 
 .byte   W12
 .byte   N11 ,An4 ,v088
 .byte   W12
Label_01489160:
 .byte   N11 ,Gn4 ,v088
 .byte   W12
 .byte   N23 ,Fs4
 .byte   W12
 .byte   PEND 
@  #05 @046   ----------------------------------------
 .byte   W12
 .byte   Dn4
 .byte   W12
Label_0148916B:
 .byte   W12
 .byte   N92 ,An2 ,v076
 .byte   N92 ,En3
 .byte   N44 ,Dn4 ,v072
 .byte   N23 ,Gn4 ,v092
 .byte   W12
 .byte   PEND 
 .byte   W12
 .byte   N11 ,Fs4 ,v088
 .byte   W12
Label_0148917E:
 .byte   N11 ,En4 ,v100
 .byte   W12
 .byte   N23 ,An3 ,v092
 .byte   N23 ,Dn4
 .byte   W12
 .byte   PEND 
@  #05 @047   ----------------------------------------
Label_01489189:
 .byte   W12
 .byte   N23 ,Dn3 ,v084
 .byte   N23 ,An3
 .byte   W12
 .byte   PEND 
Label_01489191:
 .byte   W12
 .byte   TIE ,Gn2 ,v096
 .byte   N32 ,Dn3 ,v100
 .byte   TIE ,Bn3 ,v096
 .byte   W12
 .byte   PEND 
 .byte   W24
 .byte   N32 ,Cs3 ,v092
 .byte   W24
@  #05 @048   ----------------------------------------
 .byte   W12
 .byte   N44 ,Dn3 ,v100
 .byte   W12
 .byte   W24
 .byte   W12
 .byte   N68 ,Fs3
 .byte   W12
 .byte   W24
@  #05 @049   ----------------------------------------
 .byte   W24
 .byte   W11
 .byte   EOT
 .byte   Gn2 ,v071
 .byte   W01
 .byte   TIE ,Gn2 ,v096
 .byte   N32 ,Dn3 ,v100
 .byte   TIE ,Bn3 ,v096
 .byte   W12
 .byte   W24
 .byte   N32 ,Cs3 ,v092
 .byte   W24
@  #05 @050   ----------------------------------------
 .byte   W12
 .byte   N44 ,Dn3 ,v100
 .byte   W12
 .byte   W24
 .byte   W12
 .byte   N68 ,An3
 .byte   W12
 .byte   W24
@  #05 @051   ----------------------------------------
 .byte   W24
 .byte   W11
 .byte   EOT
 .byte   Gn2 ,v071
 .byte   W13
 .byte   W24
 .byte   W24
@  #05 @052   ----------------------------------------
 .byte   W24
 .byte   W24
 .byte   W24
 .byte   W24
@  #05 @053   ----------------------------------------
 .byte   W24
 .byte   W24
 .byte   W24
 .byte   W24
@  #05 @054   ----------------------------------------
 .byte   W24
 .byte   W24
 .byte   W24
 .byte   W24
@  #05 @055   ----------------------------------------
 .byte   W24
 .byte   W24
 .byte   W24
 .byte   W24
@  #05 @056   ----------------------------------------
 .byte   W24
 .byte   W24
 .byte   W24
 .byte   W24
@  #05 @057   ----------------------------------------
 .byte   W24
 .byte   W24
 .byte   W24
 .byte   W24
@  #05 @058   ----------------------------------------
 .byte   W24
 .byte   W24
 .byte   W24
 .byte   W24
@  #05 @059   ----------------------------------------
 .byte   W24
@  #05 @060   ----------------------------------------
 .byte   PATT
  .word Label_01488F18
@  #05 @061   ----------------------------------------
 .byte   W24
@  #05 @062   ----------------------------------------
 .byte   PATT
  .word Label_01488F23
@  #05 @063   ----------------------------------------
 .byte   PATT
  .word Label_01488F2C
@  #05 @064   ----------------------------------------
 .byte   W24
 .byte   W24
 .byte   W12
 .byte   N44 ,An2 ,v068
 .byte   W12
 .byte   W24
@  #05 @065   ----------------------------------------
 .byte   W11
 .byte   EOT
 .byte   An3
 .byte   W01
 .byte   N23 ,Fs3 ,v076
 .byte   N23 ,Dn4 ,v072
 .byte   W12
 .byte   W12
 .byte   N11 ,En3 ,v076
 .byte   N11 ,Cs4
 .byte   W12
@  #05 @066   ----------------------------------------
 .byte   PATT
  .word Label_01488F54
@  #05 @067   ----------------------------------------
 .byte   W12
 .byte   N44 ,Dn3 ,v068
 .byte   W12
 .byte   W24
 .byte   W12
 .byte   N23 ,Bn3
 .byte   W12
@  #05 @068   ----------------------------------------
 .byte   PATT
  .word Label_01488F6B
@  #05 @069   ----------------------------------------
 .byte   W12
 .byte   N23 ,Gn3 ,v068
 .byte   W12
@  #05 @070   ----------------------------------------
 .byte   PATT
  .word Label_01488F77
@  #05 @071   ----------------------------------------
 .byte   W24
@  #05 @072   ----------------------------------------
 .byte   PATT
  .word Label_01488F23
@  #05 @073   ----------------------------------------
 .byte   PATT
  .word Label_01488F2C
@  #05 @074   ----------------------------------------
 .byte   W24
 .byte   W24
 .byte   W12
 .byte   N44 ,An2 ,v068
 .byte   W12
 .byte   W24
@  #05 @075   ----------------------------------------
 .byte   W11
 .byte   EOT
 .byte   An3
 .byte   W01
 .byte   N23 ,Fs3 ,v076
 .byte   N23 ,Dn4 ,v072
 .byte   W12
 .byte   W12
 .byte   N11 ,En3 ,v076
 .byte   N11 ,Cs4
 .byte   W12
@  #05 @076   ----------------------------------------
 .byte   PATT
  .word Label_01488F54
@  #05 @077   ----------------------------------------
 .byte   W12
 .byte   N44 ,Dn3 ,v068
 .byte   W12
 .byte   W24
 .byte   W12
 .byte   N23 ,Bn3
 .byte   W12
@  #05 @078   ----------------------------------------
 .byte   PATT
  .word Label_01488F6B
@  #05 @079   ----------------------------------------
 .byte   W12
 .byte   N23 ,Gn3 ,v068
 .byte   W12
 .byte   W24
 .byte   W24
 .byte   W24
@  #05 @080   ----------------------------------------
 .byte   W24
 .byte   W24
 .byte   W24
 .byte   W24
@  #05 @081   ----------------------------------------
 .byte   W24
 .byte   W24
 .byte   W24
 .byte   W24
@  #05 @082   ----------------------------------------
 .byte   W24
 .byte   W24
 .byte   W24
 .byte   W24
@  #05 @083   ----------------------------------------
 .byte   W24
 .byte   W24
 .byte   W24
 .byte   W24
@  #05 @084   ----------------------------------------
 .byte   W24
 .byte   W24
 .byte   W24
 .byte   W24
@  #05 @085   ----------------------------------------
 .byte   W24
 .byte   W24
 .byte   W24
 .byte   W24
@  #05 @086   ----------------------------------------
 .byte   W24
 .byte   W24
 .byte   W24
 .byte   W24
@  #05 @087   ----------------------------------------
 .byte   W24
 .byte   W24
 .byte   W24
 .byte   W24
@  #05 @088   ----------------------------------------
 .byte   W24
 .byte   W24
 .byte   W24
 .byte   W24
@  #05 @089   ----------------------------------------
 .byte   W24
 .byte   W24
 .byte   W24
 .byte   W24
@  #05 @090   ----------------------------------------
 .byte   W24
 .byte   W24
 .byte   W24
 .byte   W24
@  #05 @091   ----------------------------------------
 .byte   W24
@  #05 @092   ----------------------------------------
 .byte   PATT
  .word Label_01488FED
@  #05 @093   ----------------------------------------
 .byte   W12
 .byte   GOTO
  .word Label_01488FF6
@  #05 @094   ----------------------------------------
 .byte   W12
@  #05 @095   ----------------------------------------
 .byte   PATT
  .word Label_01488FF7
@  #05 @096   ----------------------------------------
 .byte   W24
 .byte   W24
@  #05 @097   ----------------------------------------
 .byte   PATT
  .word Label_01489005
@  #05 @098   ----------------------------------------
 .byte   PATT
  .word Label_01489010
@  #05 @099   ----------------------------------------
 .byte   PATT
  .word Label_0148901B
@  #05 @100   ----------------------------------------
 .byte   PATT
  .word Label_01489026
@  #05 @101   ----------------------------------------
 .byte   W24
@  #05 @102   ----------------------------------------
 .byte   PATT
  .word Label_01489033
@  #05 @103   ----------------------------------------
 .byte   PATT
  .word Label_0148903B
@  #05 @104   ----------------------------------------
 .byte   W12
 .byte   N11 ,An3 ,v092
 .byte   W12
@  #05 @105   ----------------------------------------
 .byte   PATT
  .word Label_01489047
@  #05 @106   ----------------------------------------
 .byte   W12
 .byte   N23 ,An3 ,v092
 .byte   W12
@  #05 @107   ----------------------------------------
 .byte   PATT
  .word Label_01489052
@  #05 @108   ----------------------------------------
 .byte   PATT
  .word Label_0148905A
@  #05 @109   ----------------------------------------
 .byte   W24
@  #05 @110   ----------------------------------------
 .byte   PATT
  .word Label_01488FF7
@  #05 @111   ----------------------------------------
 .byte   W24
 .byte   W24
@  #05 @112   ----------------------------------------
 .byte   PATT
  .word Label_0148906E
@  #05 @113   ----------------------------------------
 .byte   PATT
  .word Label_0148907A
@  #05 @114   ----------------------------------------
 .byte   PATT
  .word Label_01489087
@  #05 @115   ----------------------------------------
 .byte   PATT
  .word Label_01489093
@  #05 @116   ----------------------------------------
 .byte   W24
@  #05 @117   ----------------------------------------
 .byte   PATT
  .word Label_014890A2
@  #05 @118   ----------------------------------------
 .byte   PATT
  .word Label_014890AB
@  #05 @119   ----------------------------------------
 .byte   W12
 .byte   N11 ,An3 ,v088
 .byte   W12
@  #05 @120   ----------------------------------------
 .byte   PATT
  .word Label_014890B9
@  #05 @121   ----------------------------------------
 .byte   PATT
  .word Label_014890C1
@  #05 @122   ----------------------------------------
 .byte   PATT
  .word Label_014890CA
@  #05 @123   ----------------------------------------
 .byte   PATT
  .word Label_014890D3
@  #05 @124   ----------------------------------------
 .byte   PATT
  .word Label_014890E0
@  #05 @125   ----------------------------------------
 .byte   W24
 .byte   W24
 .byte   W12
 .byte   N23 ,Ds3 ,v080
 .byte   W12
 .byte   W12
 .byte   Fn3
 .byte   W12
@  #05 @126   ----------------------------------------
 .byte   W12
 .byte   As2 ,v088
 .byte   W12
 .byte   W12
 .byte   Gs3 ,v084
 .byte   W12
 .byte   W11
 .byte   EOT
 .byte   Cs4 ,v085
 .byte   W01
 .byte   N23 ,Ds3 ,v076
 .byte   N23 ,Fs3 ,v080
 .byte   N11 ,Fs4 ,v072
 .byte   N11 ,Fs5
 .byte   W12
@  #05 @127   ----------------------------------------
 .byte   PATT
  .word Label_01489111
@  #05 @128   ----------------------------------------
 .byte   W24
 .byte   W24
@  #05 @129   ----------------------------------------
 .byte   PATT
  .word Label_01489125
@  #05 @130   ----------------------------------------
 .byte   PATT
  .word Label_01489133
@  #05 @131   ----------------------------------------
 .byte   PATT
  .word Label_0148913B
@  #05 @132   ----------------------------------------
 .byte   PATT
  .word Label_01489143
@  #05 @133   ----------------------------------------
 .byte   PATT
  .word Label_0148914B
@  #05 @134   ----------------------------------------
 .byte   W12
 .byte   N11 ,An4 ,v088
 .byte   W12
@  #05 @135   ----------------------------------------
 .byte   PATT
  .word Label_01489160
@  #05 @136   ----------------------------------------
 .byte   W12
 .byte   N23 ,Dn4 ,v088
 .byte   W12
@  #05 @137   ----------------------------------------
 .byte   PATT
  .word Label_0148916B
@  #05 @138   ----------------------------------------
 .byte   W12
 .byte   N11 ,Fs4 ,v088
 .byte   W12
@  #05 @139   ----------------------------------------
 .byte   PATT
  .word Label_0148917E
@  #05 @140   ----------------------------------------
 .byte   PATT
  .word Label_01489189
@  #05 @141   ----------------------------------------
 .byte   PATT
  .word Label_01489191
@  #05 @142   ----------------------------------------
 .byte   W24
 .byte   N32 ,Cs3 ,v092
 .byte   W24
 .byte   W12
 .byte   N44 ,Dn3 ,v100
 .byte   W12
 .byte   W24
@  #05 @143   ----------------------------------------
 .byte   W12
 .byte   N68 ,Fs3
 .byte   W12
 .byte   W24
 .byte   W24
 .byte   W11
 .byte   EOT
 .byte   Gn2 ,v071
 .byte   W01
 .byte   TIE ,Gn2 ,v096
 .byte   N32 ,Dn3 ,v100
 .byte   TIE ,Bn3 ,v096
 .byte   W12
@  #05 @144   ----------------------------------------
 .byte   W24
 .byte   N32 ,Cs3 ,v092
 .byte   W24
 .byte   W12
 .byte   N44 ,Dn3 ,v100
 .byte   W12
 .byte   W24
@  #05 @145   ----------------------------------------
 .byte   W12
 .byte   N68 ,An3
 .byte   W12
 .byte   W24
 .byte   W24
 .byte   W11
 .byte   EOT
 .byte   Gn2 ,v071
 .byte   W01
 .byte   FINE

@**************** Track 6 (Midi-Chn.5) ****************@

song04_006:
@  #06 @000   ----------------------------------------
 .byte   KEYSH , song04_key+0
 .byte   VOICE , 48
 .byte   PAN , c_v-33
 .byte   VOL , 0*song04_mvl/mxv
 .byte   W24
 .byte   W24
 .byte   W24
 .byte   W24
@  #06 @001   ----------------------------------------
 .byte   W24
 .byte   W24
 .byte   W24
 .byte   W24
@  #06 @002   ----------------------------------------
 .byte   W24
 .byte   W24
 .byte   W24
 .byte   W24
@  #06 @003   ----------------------------------------
 .byte   W24
 .byte   W24
 .byte   W24
 .byte   W24
@  #06 @004   ----------------------------------------
 .byte   W24
 .byte   W24
 .byte   W24
 .byte   W24
@  #06 @005   ----------------------------------------
 .byte   W24
 .byte   W24
 .byte   W24
 .byte   W24
@  #06 @006   ----------------------------------------
 .byte   W24
 .byte   W24
 .byte   W24
 .byte   W24
@  #06 @007   ----------------------------------------
 .byte   W24
 .byte   W24
 .byte   W24
 .byte   W24
@  #06 @008   ----------------------------------------
Label_01489414:
 .byte   W12
 .byte   VOL , 49*song04_mvl/mxv
 .byte   N44 ,Fs3 ,v112
 .byte   N44 ,Dn4 ,v116
 .byte   W12
 .byte   PEND 
 .byte   W24
Label_01489420:
 .byte   W12
 .byte   N11 ,En3 ,v124
 .byte   N11 ,Cs4 ,v127
 .byte   W12
 .byte   PEND 
Label_01489429:
 .byte   N11 ,Dn3 ,v112
 .byte   N11 ,Bn3
 .byte   W12
 .byte   N68 ,Bn2 ,v108
 .byte   TIE ,An3 ,v104
 .byte   W12
 .byte   PEND 
@  #06 @009   ----------------------------------------
 .byte   W24
 .byte   W24
 .byte   W12
 .byte   N44 ,An2 ,v108
 .byte   W12
 .byte   W24
@  #06 @010   ----------------------------------------
 .byte   W11
 .byte   EOT
 .byte   An3
 .byte   W01
 .byte   N23 ,Fs3 ,v116
 .byte   N23 ,Dn4 ,v112
 .byte   W12
 .byte   W12
 .byte   N11 ,En3 ,v116
 .byte   N11 ,Cs4
 .byte   W12
Label_01489451:
 .byte   N11 ,Dn3 ,v112
 .byte   N11 ,Bn3 ,v120
 .byte   W12
 .byte   N92 ,Bn2 ,v108
 .byte   N23 ,Fs3
 .byte   W12
 .byte   PEND 
 .byte   W12
 .byte   N44 ,Dn3
 .byte   W12
@  #06 @011   ----------------------------------------
 .byte   W24
 .byte   W12
 .byte   N23 ,Bn3
 .byte   W12
Label_01489468:
 .byte   W12
 .byte   N44 ,An2 ,v116
 .byte   N23 ,An3 ,v108
 .byte   W12
 .byte   PEND 
 .byte   W12
 .byte   Gn3
 .byte   W12
@  #06 @012   ----------------------------------------
Label_01489474:
 .byte   W12
 .byte   N44 ,Fs3 ,v112
 .byte   N44 ,Dn4 ,v116
 .byte   W12
 .byte   PEND 
 .byte   W24
@  #06 @013   ----------------------------------------
 .byte   PATT
  .word Label_01489420
@  #06 @014   ----------------------------------------
 .byte   PATT
  .word Label_01489429
@  #06 @015   ----------------------------------------
 .byte   W24
 .byte   W24
 .byte   W12
 .byte   N44 ,An2 ,v108
 .byte   W12
 .byte   W24
@  #06 @016   ----------------------------------------
 .byte   W11
 .byte   EOT
 .byte   An3
 .byte   W01
 .byte   N23 ,Fs3 ,v116
 .byte   N23 ,Dn4 ,v112
 .byte   W12
 .byte   W12
 .byte   N11 ,En3 ,v116
 .byte   N11 ,Cs4
 .byte   W12
@  #06 @017   ----------------------------------------
 .byte   PATT
  .word Label_01489451
@  #06 @018   ----------------------------------------
 .byte   W12
 .byte   N44 ,Dn3 ,v108
 .byte   W12
 .byte   W24
 .byte   W12
 .byte   N23 ,Bn3
 .byte   W12
@  #06 @019   ----------------------------------------
 .byte   PATT
  .word Label_01489468
@  #06 @020   ----------------------------------------
 .byte   W12
 .byte   N23 ,Gn3 ,v108
 .byte   W12
 .byte   W24
 .byte   W24
 .byte   W24
@  #06 @021   ----------------------------------------
 .byte   W24
 .byte   W24
 .byte   W24
 .byte   W24
@  #06 @022   ----------------------------------------
 .byte   W24
 .byte   W24
 .byte   W24
 .byte   W24
@  #06 @023   ----------------------------------------
 .byte   W24
 .byte   W24
 .byte   W24
 .byte   W24
@  #06 @024   ----------------------------------------
 .byte   W24
 .byte   W24
 .byte   W24
 .byte   W24
@  #06 @025   ----------------------------------------
 .byte   W24
 .byte   W24
 .byte   W24
 .byte   W24
@  #06 @026   ----------------------------------------
 .byte   W24
 .byte   W24
 .byte   W24
 .byte   W24
@  #06 @027   ----------------------------------------
 .byte   W24
 .byte   W24
 .byte   W24
 .byte   W24
@  #06 @028   ----------------------------------------
 .byte   W24
 .byte   W24
 .byte   W24
 .byte   W24
@  #06 @029   ----------------------------------------
 .byte   W24
 .byte   W24
 .byte   W24
 .byte   W24
@  #06 @030   ----------------------------------------
 .byte   W24
 .byte   W24
 .byte   W24
 .byte   W24
@  #06 @031   ----------------------------------------
 .byte   W24
 .byte   W24
 .byte   W24
 .byte   W24
@  #06 @032   ----------------------------------------
 .byte   W24
Label_014894EB:
 .byte   W12
 .byte   N32 ,Gn2 ,v092
 .byte   N32 ,Bn2
 .byte   W12
 .byte   PEND 
 .byte   W12
Label_014894F4:
 .byte   W12
Label_014894F5:
 .byte   N11 ,En2 ,v092
 .byte   N11 ,Cn3
 .byte   W12
 .byte   N56 ,Dn2
 .byte   N56 ,Bn2
 .byte   W12
 .byte   PEND 
@  #06 @033   ----------------------------------------
 .byte   W24
 .byte   W24
Label_01489503:
 .byte   N11 ,Dn2 ,v092
 .byte   N11 ,Fs2
 .byte   W12
 .byte   En2
 .byte   N11 ,Gn2
 .byte   W12
 .byte   PEND 
Label_0148950E:
 .byte   N11 ,Fs2 ,v092
 .byte   N11 ,An2
 .byte   W12
 .byte   Gn2
 .byte   N11 ,Bn2
 .byte   W12
 .byte   PEND 
@  #06 @034   ----------------------------------------
Label_01489519:
 .byte   N11 ,An2 ,v092
 .byte   N11 ,Cn3
 .byte   W12
 .byte   Bn2
 .byte   N11 ,Dn3
 .byte   W12
 .byte   PEND 
Label_01489524:
 .byte   N11 ,Cn3 ,v092
 .byte   N11 ,En3
 .byte   W12
 .byte   N44 ,Dn3
 .byte   N44 ,Bn3
 .byte   W12
 .byte   PEND 
 .byte   W24
Label_01489531:
 .byte   W12
 .byte   N44 ,Cn3 ,v092
 .byte   N11 ,An3
 .byte   W12
 .byte   PEND 
@  #06 @035   ----------------------------------------
Label_01489539:
 .byte   N11 ,Gn3 ,v092
 .byte   W12
 .byte   N92 ,Fs3
 .byte   W12
 .byte   PEND 
 .byte   W12
 .byte   N11 ,An2
 .byte   W12
Label_01489545:
 .byte   N11 ,Gn2 ,v092
 .byte   W12
 .byte   N23 ,Fs2
 .byte   W12
 .byte   PEND 
 .byte   W12
 .byte   An2
 .byte   W12
@  #06 @036   ----------------------------------------
Label_01489550:
 .byte   W12
 .byte   N11 ,Gn2 ,v092
 .byte   N11 ,Dn3
 .byte   W12
 .byte   PEND 
Label_01489558:
 .byte   N11 ,Dn2 ,v092
 .byte   N11 ,Bn2
 .byte   W12
 .byte   N32 ,Gn2
 .byte   N32 ,Bn2
 .byte   W12
 .byte   PEND 
 .byte   W24
@  #06 @037   ----------------------------------------
 .byte   PATT
  .word Label_014894F5
@  #06 @038   ----------------------------------------
 .byte   W24
 .byte   W24
Label_0148956C:
 .byte   N11 ,Dn2 ,v072
 .byte   N11 ,Fs2
 .byte   W12
 .byte   En2 ,v084
 .byte   N11 ,Gn2
 .byte   W12
 .byte   PEND 
Label_01489578:
 .byte   N11 ,Fs2 ,v092
 .byte   N11 ,An2 ,v088
 .byte   W12
 .byte   Gn2 ,v072
 .byte   N11 ,Bn2
 .byte   W12
 .byte   PEND 
@  #06 @039   ----------------------------------------
Label_01489585:
 .byte   N11 ,An2 ,v080
 .byte   N11 ,Cn3
 .byte   W12
 .byte   Bn2
 .byte   N11 ,Dn3 ,v072
 .byte   W12
 .byte   PEND 
Label_01489591:
 .byte   N11 ,Cn3 ,v084
 .byte   N11 ,En3 ,v080
 .byte   W12
 .byte   N44 ,Dn3 ,v072
 .byte   N44 ,Bn3
 .byte   W12
 .byte   PEND 
 .byte   W24
Label_014895A0:
 .byte   W12
 .byte   N44 ,Cn3 ,v096
 .byte   N11 ,An3 ,v080
 .byte   W12
 .byte   PEND 
@  #06 @040   ----------------------------------------
Label_014895A9:
 .byte   N11 ,Gn3 ,v084
 .byte   W12
 .byte   N68 ,Fs3 ,v076
 .byte   W12
 .byte   PEND 
 .byte   W12
 .byte   N11 ,An2 ,v088
 .byte   W12
Label_014895B7:
 .byte   N11 ,Gn2 ,v084
 .byte   W12
 .byte   N23 ,En2
 .byte   W12
 .byte   PEND 
Label_014895BF:
 .byte   W12
 .byte   N32 ,Cs2 ,v092
 .byte   N11 ,Fs3 ,v088
 .byte   W12
 .byte   PEND 
@  #06 @041   ----------------------------------------
Label_014895C8:
 .byte   N11 ,Fn3 ,v100
 .byte   W12
 .byte   N23 ,Cs3 ,v096
 .byte   W12
 .byte   PEND 
Label_014895D1:
 .byte   N11 ,Gs2 ,v092
 .byte   W12
 .byte   N92 ,Ds2 ,v072
 .byte   N11 ,Fs3
 .byte   N11 ,Fs4
 .byte   W12
 .byte   PEND 
Label_014895DE:
 .byte   N11 ,Fn3 ,v072
 .byte   N11 ,Fn4 ,v076
 .byte   W12
 .byte   TIE ,Cs3 ,v072
 .byte   TIE ,Cs4
 .byte   W12
 .byte   PEND 
 .byte   W24
@  #06 @042   ----------------------------------------
 .byte   W24
 .byte   W12
 .byte   N23 ,Ds2 ,v080
 .byte   W12
 .byte   W12
 .byte   Fn2
 .byte   W12
 .byte   W12
 .byte   As1 ,v088
 .byte   W12
@  #06 @043   ----------------------------------------
 .byte   W12
 .byte   Gs2 ,v084
 .byte   W12
 .byte   W11
 .byte   EOT
 .byte   Cs3 ,v073
 .byte   W01
 .byte   N23 ,Ds2 ,v076
 .byte   N23 ,Fs2 ,v080
 .byte   N11 ,Fs3 ,v072
 .byte   N11 ,Fs4
 .byte   W12
Label_0148960F:
 .byte   N11 ,Fn3 ,v072
 .byte   N11 ,Fn4 ,v076
 .byte   W12
 .byte   N68 ,Fs1 ,v072
 .byte   N68 ,Gs2
 .byte   N68 ,Cs3
 .byte   N68 ,Cs4
 .byte   W12
 .byte   PEND 
 .byte   W24
@  #06 @044   ----------------------------------------
 .byte   W24
Label_01489623:
 .byte   W12
 .byte   N92 ,Gs1 ,v076
 .byte   N11 ,Gn2 ,v080
 .byte   N92 ,Cn3 ,v072
 .byte   N92 ,Cn4
 .byte   W12
 .byte   PEND 
Label_01489631:
 .byte   N11 ,As2 ,v080
 .byte   W12
 .byte   Ds2 ,v084
 .byte   W12
 .byte   PEND 
Label_01489639:
 .byte   N11 ,Gn2 ,v088
 .byte   W12
 .byte   Cn2 ,v084
 .byte   W12
 .byte   PEND 
@  #06 @045   ----------------------------------------
Label_01489641:
 .byte   N11 ,Fn2 ,v088
 .byte   W12
 .byte   Dn2 ,v096
 .byte   W12
 .byte   PEND 
Label_01489649:
 .byte   N11 ,As1 ,v100
 .byte   W12
 .byte   N92 ,Cn2 ,v072
 .byte   N92 ,Fs2
 .byte   N92 ,An2
 .byte   N23 ,Bn3 ,v100
 .byte   W12
 .byte   PEND 
 .byte   W12
 .byte   N11 ,An3 ,v088
 .byte   W12
Label_0148965E:
 .byte   N11 ,Gn3 ,v088
 .byte   W12
 .byte   N23 ,Fs3
 .byte   W12
 .byte   PEND 
@  #06 @046   ----------------------------------------
 .byte   W12
 .byte   Dn3
 .byte   W12
Label_01489669:
 .byte   W12
 .byte   N92 ,An1 ,v076
 .byte   N92 ,En2
 .byte   N44 ,Dn3 ,v072
 .byte   N23 ,Gn3 ,v092
 .byte   W12
 .byte   PEND 
 .byte   W12
 .byte   N11 ,Fs3 ,v088
 .byte   W12
Label_0148967C:
 .byte   N11 ,En3 ,v100
 .byte   W12
 .byte   N23 ,An2 ,v092
 .byte   N23 ,Dn3
 .byte   W12
 .byte   PEND 
@  #06 @047   ----------------------------------------
Label_01489687:
 .byte   W12
 .byte   N23 ,Dn2 ,v084
 .byte   N23 ,An2
 .byte   W12
 .byte   PEND 
Label_0148968F:
 .byte   W12
 .byte   TIE ,Gn1 ,v096
 .byte   N32 ,Dn2 ,v127
 .byte   TIE ,Bn2 ,v096
 .byte   W12
 .byte   PEND 
 .byte   W24
 .byte   N32 ,Cs2 ,v116
 .byte   W24
@  #06 @048   ----------------------------------------
 .byte   W12
 .byte   N44 ,Dn2 ,v127
 .byte   W12
 .byte   W24
 .byte   W12
 .byte   N68 ,Fs2
 .byte   W12
 .byte   W24
@  #06 @049   ----------------------------------------
 .byte   W24
 .byte   W11
 .byte   EOT
 .byte   Gn1 ,v059
 .byte   W01
 .byte   TIE ,Gn1 ,v096
 .byte   N32 ,Dn2 ,v127
 .byte   TIE ,Bn2 ,v096
 .byte   W12
 .byte   W24
 .byte   N32 ,Cs2 ,v116
 .byte   W24
@  #06 @050   ----------------------------------------
 .byte   W12
 .byte   N44 ,Dn2 ,v127
 .byte   W12
 .byte   W24
 .byte   W12
 .byte   N68 ,An2
 .byte   W12
 .byte   W24
@  #06 @051   ----------------------------------------
 .byte   W24
 .byte   W11
 .byte   EOT
 .byte   Gn1 ,v059
 .byte   W13
 .byte   W24
 .byte   W24
@  #06 @052   ----------------------------------------
 .byte   W24
 .byte   W24
 .byte   W24
 .byte   W24
@  #06 @053   ----------------------------------------
 .byte   W24
 .byte   W24
 .byte   W24
 .byte   W24
@  #06 @054   ----------------------------------------
 .byte   W24
 .byte   W24
 .byte   W24
 .byte   W24
@  #06 @055   ----------------------------------------
 .byte   W24
 .byte   W24
 .byte   W24
 .byte   W24
@  #06 @056   ----------------------------------------
 .byte   W24
 .byte   W24
 .byte   W24
 .byte   W24
@  #06 @057   ----------------------------------------
 .byte   W24
 .byte   W24
 .byte   W24
 .byte   W24
@  #06 @058   ----------------------------------------
 .byte   W24
 .byte   W24
 .byte   W24
 .byte   W24
@  #06 @059   ----------------------------------------
 .byte   W24
@  #06 @060   ----------------------------------------
 .byte   PATT
  .word Label_01489414
@  #06 @061   ----------------------------------------
 .byte   W24
@  #06 @062   ----------------------------------------
 .byte   PATT
  .word Label_01489420
@  #06 @063   ----------------------------------------
 .byte   PATT
  .word Label_01489429
@  #06 @064   ----------------------------------------
 .byte   W24
 .byte   W24
 .byte   W12
 .byte   N44 ,An2 ,v108
 .byte   W12
 .byte   W24
@  #06 @065   ----------------------------------------
 .byte   W11
 .byte   EOT
 .byte   An3
 .byte   W01
 .byte   N23 ,Fs3 ,v116
 .byte   N23 ,Dn4 ,v112
 .byte   W12
 .byte   W12
 .byte   N11 ,En3 ,v116
 .byte   N11 ,Cs4
 .byte   W12
@  #06 @066   ----------------------------------------
 .byte   PATT
  .word Label_01489451
@  #06 @067   ----------------------------------------
 .byte   W12
 .byte   N44 ,Dn3 ,v108
 .byte   W12
 .byte   W24
 .byte   W12
 .byte   N23 ,Bn3
 .byte   W12
@  #06 @068   ----------------------------------------
 .byte   PATT
  .word Label_01489468
@  #06 @069   ----------------------------------------
 .byte   W12
 .byte   N23 ,Gn3 ,v108
 .byte   W12
@  #06 @070   ----------------------------------------
 .byte   PATT
  .word Label_01489474
@  #06 @071   ----------------------------------------
 .byte   W24
@  #06 @072   ----------------------------------------
 .byte   PATT
  .word Label_01489420
@  #06 @073   ----------------------------------------
 .byte   PATT
  .word Label_01489429
@  #06 @074   ----------------------------------------
 .byte   W24
 .byte   W24
 .byte   W12
 .byte   N44 ,An2 ,v108
 .byte   W12
 .byte   W24
@  #06 @075   ----------------------------------------
 .byte   W11
 .byte   EOT
 .byte   An3
 .byte   W01
 .byte   N23 ,Fs3 ,v116
 .byte   N23 ,Dn4 ,v112
 .byte   W12
 .byte   W12
 .byte   N11 ,En3 ,v116
 .byte   N11 ,Cs4
 .byte   W12
@  #06 @076   ----------------------------------------
 .byte   PATT
  .word Label_01489451
@  #06 @077   ----------------------------------------
 .byte   W12
 .byte   N44 ,Dn3 ,v108
 .byte   W12
 .byte   W24
 .byte   W12
 .byte   N23 ,Bn3
 .byte   W12
@  #06 @078   ----------------------------------------
 .byte   PATT
  .word Label_01489468
@  #06 @079   ----------------------------------------
 .byte   W12
 .byte   N23 ,Gn3 ,v108
 .byte   W12
 .byte   W24
 .byte   W24
 .byte   W24
@  #06 @080   ----------------------------------------
 .byte   W24
 .byte   W24
 .byte   W24
 .byte   W24
@  #06 @081   ----------------------------------------
 .byte   W24
 .byte   W24
 .byte   W24
 .byte   W24
@  #06 @082   ----------------------------------------
 .byte   W24
 .byte   W24
 .byte   W24
 .byte   W24
@  #06 @083   ----------------------------------------
 .byte   W24
 .byte   W24
 .byte   W24
 .byte   W24
@  #06 @084   ----------------------------------------
 .byte   W24
 .byte   W24
 .byte   W24
 .byte   W24
@  #06 @085   ----------------------------------------
 .byte   W24
 .byte   W24
 .byte   W24
 .byte   W24
@  #06 @086   ----------------------------------------
 .byte   W24
 .byte   W24
 .byte   W24
 .byte   W24
@  #06 @087   ----------------------------------------
 .byte   W24
 .byte   W24
 .byte   W24
 .byte   W24
@  #06 @088   ----------------------------------------
 .byte   W24
 .byte   W24
 .byte   W24
 .byte   W24
@  #06 @089   ----------------------------------------
 .byte   W24
 .byte   W24
 .byte   W24
 .byte   W24
@  #06 @090   ----------------------------------------
 .byte   W24
 .byte   W24
 .byte   W24
 .byte   W24
@  #06 @091   ----------------------------------------
 .byte   W24
@  #06 @092   ----------------------------------------
 .byte   PATT
  .word Label_014894EB
@  #06 @093   ----------------------------------------
 .byte   W12
 .byte   GOTO
  .word Label_014894F4
@  #06 @094   ----------------------------------------
 .byte   W12
@  #06 @095   ----------------------------------------
 .byte   PATT
  .word Label_014894F5
@  #06 @096   ----------------------------------------
 .byte   W24
 .byte   W24
@  #06 @097   ----------------------------------------
 .byte   PATT
  .word Label_01489503
@  #06 @098   ----------------------------------------
 .byte   PATT
  .word Label_0148950E
@  #06 @099   ----------------------------------------
 .byte   PATT
  .word Label_01489519
@  #06 @100   ----------------------------------------
 .byte   PATT
  .word Label_01489524
@  #06 @101   ----------------------------------------
 .byte   W24
@  #06 @102   ----------------------------------------
 .byte   PATT
  .word Label_01489531
@  #06 @103   ----------------------------------------
 .byte   PATT
  .word Label_01489539
@  #06 @104   ----------------------------------------
 .byte   W12
 .byte   N11 ,An2 ,v092
 .byte   W12
@  #06 @105   ----------------------------------------
 .byte   PATT
  .word Label_01489545
@  #06 @106   ----------------------------------------
 .byte   W12
 .byte   N23 ,An2 ,v092
 .byte   W12
@  #06 @107   ----------------------------------------
 .byte   PATT
  .word Label_01489550
@  #06 @108   ----------------------------------------
 .byte   PATT
  .word Label_01489558
@  #06 @109   ----------------------------------------
 .byte   W24
@  #06 @110   ----------------------------------------
 .byte   PATT
  .word Label_014894F5
@  #06 @111   ----------------------------------------
 .byte   W24
 .byte   W24
@  #06 @112   ----------------------------------------
 .byte   PATT
  .word Label_0148956C
@  #06 @113   ----------------------------------------
 .byte   PATT
  .word Label_01489578
@  #06 @114   ----------------------------------------
 .byte   PATT
  .word Label_01489585
@  #06 @115   ----------------------------------------
 .byte   PATT
  .word Label_01489591
@  #06 @116   ----------------------------------------
 .byte   W24
@  #06 @117   ----------------------------------------
 .byte   PATT
  .word Label_014895A0
@  #06 @118   ----------------------------------------
 .byte   PATT
  .word Label_014895A9
@  #06 @119   ----------------------------------------
 .byte   W12
 .byte   N11 ,An2 ,v088
 .byte   W12
@  #06 @120   ----------------------------------------
 .byte   PATT
  .word Label_014895B7
@  #06 @121   ----------------------------------------
 .byte   PATT
  .word Label_014895BF
@  #06 @122   ----------------------------------------
 .byte   PATT
  .word Label_014895C8
@  #06 @123   ----------------------------------------
 .byte   PATT
  .word Label_014895D1
@  #06 @124   ----------------------------------------
 .byte   PATT
  .word Label_014895DE
@  #06 @125   ----------------------------------------
 .byte   W24
 .byte   W24
 .byte   W12
 .byte   N23 ,Ds2 ,v080
 .byte   W12
 .byte   W12
 .byte   Fn2
 .byte   W12
@  #06 @126   ----------------------------------------
 .byte   W12
 .byte   As1 ,v088
 .byte   W12
 .byte   W12
 .byte   Gs2 ,v084
 .byte   W12
 .byte   W11
 .byte   EOT
 .byte   Cs3 ,v073
 .byte   W01
 .byte   N23 ,Ds2 ,v076
 .byte   N23 ,Fs2 ,v080
 .byte   N11 ,Fs3 ,v072
 .byte   N11 ,Fs4
 .byte   W12
@  #06 @127   ----------------------------------------
 .byte   PATT
  .word Label_0148960F
@  #06 @128   ----------------------------------------
 .byte   W24
 .byte   W24
@  #06 @129   ----------------------------------------
 .byte   PATT
  .word Label_01489623
@  #06 @130   ----------------------------------------
 .byte   PATT
  .word Label_01489631
@  #06 @131   ----------------------------------------
 .byte   PATT
  .word Label_01489639
@  #06 @132   ----------------------------------------
 .byte   PATT
  .word Label_01489641
@  #06 @133   ----------------------------------------
 .byte   PATT
  .word Label_01489649
@  #06 @134   ----------------------------------------
 .byte   W12
 .byte   N11 ,An3 ,v088
 .byte   W12
@  #06 @135   ----------------------------------------
 .byte   PATT
  .word Label_0148965E
@  #06 @136   ----------------------------------------
 .byte   W12
 .byte   N23 ,Dn3 ,v088
 .byte   W12
@  #06 @137   ----------------------------------------
 .byte   PATT
  .word Label_01489669
@  #06 @138   ----------------------------------------
 .byte   W12
 .byte   N11 ,Fs3 ,v088
 .byte   W12
@  #06 @139   ----------------------------------------
 .byte   PATT
  .word Label_0148967C
@  #06 @140   ----------------------------------------
 .byte   PATT
  .word Label_01489687
@  #06 @141   ----------------------------------------
 .byte   PATT
  .word Label_0148968F
@  #06 @142   ----------------------------------------
 .byte   W24
 .byte   N32 ,Cs2 ,v116
 .byte   W24
 .byte   W12
 .byte   N44 ,Dn2 ,v127
 .byte   W12
 .byte   W24
@  #06 @143   ----------------------------------------
 .byte   W12
 .byte   N68 ,Fs2
 .byte   W12
 .byte   W24
 .byte   W24
 .byte   W11
 .byte   EOT
 .byte   Gn1 ,v059
 .byte   W01
 .byte   TIE ,Gn1 ,v096
 .byte   N32 ,Dn2 ,v127
 .byte   TIE ,Bn2 ,v096
 .byte   W12
@  #06 @144   ----------------------------------------
 .byte   W24
 .byte   N32 ,Cs2 ,v116
 .byte   W24
 .byte   W12
 .byte   N44 ,Dn2 ,v127
 .byte   W12
 .byte   W24
@  #06 @145   ----------------------------------------
 .byte   W12
 .byte   N68 ,An2
 .byte   W12
 .byte   W24
 .byte   W24
 .byte   W11
 .byte   EOT
 .byte   Gn1 ,v059
 .byte   W01
 .byte   FINE

@**************** Track 7 (Midi-Chn.6) ****************@

song04_007:
@  #07 @000   ----------------------------------------
 .byte   KEYSH , song04_key+0
 .byte   VOICE , 72
 .byte   VOL , 30*song04_mvl/mxv
 .byte   PAN , c_v-64
 .byte   W24
 .byte   W24
 .byte   W24
 .byte   W24
@  #07 @001   ----------------------------------------
 .byte   W24
 .byte   W24
 .byte   W24
 .byte   W24
@  #07 @002   ----------------------------------------
 .byte   W24
 .byte   W24
 .byte   W24
 .byte   W24
@  #07 @003   ----------------------------------------
 .byte   W24
 .byte   W24
 .byte   W24
 .byte   W24
@  #07 @004   ----------------------------------------
 .byte   W24
 .byte   W24
 .byte   W24
 .byte   W24
@  #07 @005   ----------------------------------------
 .byte   W24
 .byte   W24
 .byte   W24
 .byte   W24
@  #07 @006   ----------------------------------------
 .byte   W24
 .byte   W24
 .byte   W24
 .byte   W24
@  #07 @007   ----------------------------------------
 .byte   W24
 .byte   W24
 .byte   W24
 .byte   W24
@  #07 @008   ----------------------------------------
 .byte   W24
 .byte   W24
 .byte   W24
 .byte   W24
@  #07 @009   ----------------------------------------
 .byte   W12
 .byte   PAN , c_v+20
 .byte   W12
 .byte   W24
 .byte   W24
 .byte   W24
@  #07 @010   ----------------------------------------
 .byte   W24
 .byte   W24
 .byte   W24
 .byte   W24
@  #07 @011   ----------------------------------------
 .byte   W24
 .byte   W24
 .byte   W24
 .byte   W24
@  #07 @012   ----------------------------------------
 .byte   W24
 .byte   W24
 .byte   W24
 .byte   W24
@  #07 @013   ----------------------------------------
 .byte   W24
 .byte   W24
 .byte   W24
 .byte   W24
@  #07 @014   ----------------------------------------
 .byte   W06
 .byte   PAN , c_v+0
 .byte   W18
 .byte   W24
 .byte   W24
 .byte   W24
@  #07 @015   ----------------------------------------
 .byte   W24
 .byte   W24
 .byte   W24
 .byte   W24
@  #07 @016   ----------------------------------------
 .byte   W24
 .byte   W24
 .byte   W24
 .byte   W24
@  #07 @017   ----------------------------------------
 .byte   W24
 .byte   W24
 .byte   W24
 .byte   W24
@  #07 @018   ----------------------------------------
 .byte   W24
 .byte   W24
 .byte   W24
 .byte   W24
@  #07 @019   ----------------------------------------
 .byte   W24
 .byte   W24
 .byte   W24
 .byte   W24
@  #07 @020   ----------------------------------------
 .byte   W24
 .byte   W24
 .byte   W24
 .byte   W24
@  #07 @021   ----------------------------------------
 .byte   W24
 .byte   W24
 .byte   W24
 .byte   W24
@  #07 @022   ----------------------------------------
 .byte   W24
 .byte   W24
 .byte   W24
 .byte   W24
@  #07 @023   ----------------------------------------
 .byte   W24
 .byte   W24
 .byte   W24
 .byte   W24
@  #07 @024   ----------------------------------------
 .byte   W24
 .byte   W24
 .byte   W24
 .byte   W24
@  #07 @025   ----------------------------------------
 .byte   W24
 .byte   W24
 .byte   W24
 .byte   W24
@  #07 @026   ----------------------------------------
 .byte   W24
 .byte   W24
 .byte   W24
 .byte   W24
@  #07 @027   ----------------------------------------
 .byte   W24
 .byte   W24
 .byte   W24
 .byte   W24
@  #07 @028   ----------------------------------------
 .byte   W24
 .byte   W12
Label_01489966:
 .byte   W12
 .byte   W24
 .byte   W24
@  #07 @029   ----------------------------------------
 .byte   W24
 .byte   W24
 .byte   W24
 .byte   W24
@  #07 @030   ----------------------------------------
 .byte   W24
 .byte   W24
 .byte   W24
 .byte   W24
@  #07 @031   ----------------------------------------
 .byte   W24
 .byte   W24
 .byte   W24
 .byte   W24
@  #07 @032   ----------------------------------------
 .byte   W12
 .byte   N92 ,Cn3 ,v127
 .byte   W12
Label_0148997A:
 .byte   N11 ,Gn3 ,v127
 .byte   W12
 .byte   Cn4
 .byte   W12
 .byte   PEND 
Label_01489981:
 .byte   N11 ,Dn4 ,v127
 .byte   W12
 .byte   Gn4
 .byte   W12
 .byte   PEND 
Label_01489988:
 .byte   N11 ,Dn5 ,v127
 .byte   W12
 .byte   Cn5
 .byte   W12
 .byte   PEND 
@  #07 @033   ----------------------------------------
Label_0148998F:
 .byte   N11 ,En5 ,v127
 .byte   W12
 .byte   N92 ,Cn4
 .byte   N23 ,En4
 .byte   N92 ,Dn5
 .byte   W12
 .byte   PEND 
 .byte   W12
 .byte   N23 ,Fs4
 .byte   W12
 .byte   W12
 .byte   An4
 .byte   W12
 .byte   W12
 .byte   Bn4
 .byte   W12
@  #07 @034   ----------------------------------------
Label_014899A5:
 .byte   W12
 .byte   N44 ,En3 ,v127
 .byte   N44 ,An3
 .byte   N11 ,Fs4
 .byte   W12
 .byte   PEND 
Label_014899AF:
 .byte   N11 ,An4 ,v127
 .byte   W12
 .byte   Gn4
 .byte   W12
 .byte   PEND 
Label_014899B6:
 .byte   N11 ,Fs4 ,v127
 .byte   W12
 .byte   N44 ,Dn3
 .byte   N44 ,Fs3
 .byte   N44 ,Dn4
 .byte   W12
 .byte   PEND 
 .byte   W12
 .byte   N23 ,En4
 .byte   W12
@  #07 @035   ----------------------------------------
Label_014899C6:
 .byte   W12
 .byte   N44 ,Gn2 ,v127
 .byte   N44 ,Gn3
 .byte   N23 ,Bn3
 .byte   N23 ,Fs4
 .byte   W12
 .byte   PEND 
Label_014899D2:
 .byte   W12
 .byte   N23 ,Dn4 ,v127
 .byte   N23 ,An4
 .byte   W12
 .byte   PEND 
Label_014899DA:
 .byte   W12
 .byte   N11 ,An2 ,v127
 .byte   N11 ,An4
 .byte   W12
 .byte   PEND 
Label_014899E2:
 .byte   N11 ,Bn2 ,v127
 .byte   N11 ,Gs4
 .byte   W12
 .byte   Cs3
 .byte   N23 ,Fn4
 .byte   W12
 .byte   PEND 
@  #07 @036   ----------------------------------------
Label_014899ED:
 .byte   N11 ,Cs2 ,v127
 .byte   N11 ,Cs3
 .byte   W12
 .byte   TIE ,Ds3
 .byte   N92 ,Fs4
 .byte   W12
 .byte   PEND 
 .byte   W24
 .byte   W24
 .byte   W24
@  #07 @037   ----------------------------------------
 .byte   W12
 .byte   N11 ,Ds5
 .byte   W12
Label_01489A00:
 .byte   N11 ,Cs5 ,v127
 .byte   W12
 .byte   Cn5
 .byte   W12
 .byte   PEND 
Label_01489A07:
 .byte   N11 ,Gs4 ,v127
 .byte   W12
 .byte   As4
 .byte   W12
 .byte   PEND 
Label_01489A0E:
 .byte   N11 ,Fs4 ,v127
 .byte   W12
 .byte   Fn4
 .byte   W12
 .byte   PEND 
@  #07 @038   ----------------------------------------
Label_01489A15:
 .byte   N11 ,Cs4 ,v127
 .byte   W12
 .byte   N23 ,Cn4
 .byte   W12
 .byte   PEND 
 .byte   W12
 .byte   N44 ,Gs4
 .byte   W12
 .byte   W24
 .byte   W12
 .byte   N11 ,As4
 .byte   W12
@  #07 @039   ----------------------------------------
Label_01489A26:
 .byte   N05 ,Gs4 ,v116
 .byte   W06
 .byte   As4 ,v100
 .byte   W05
 .byte   PEND 
 .byte   EOT
 .byte   Ds3
 .byte   W01
 .byte   N23 ,Gs2 ,v127
 .byte   N23 ,Cn5 ,v116
 .byte   W12
Label_01489A38:
 .byte   W12
 .byte   N23 ,Cn3 ,v127
 .byte   N23 ,Gs4
 .byte   W12
 .byte   PEND 
Label_01489A40:
 .byte   W12
 .byte   N23 ,Ds3 ,v127
 .byte   N23 ,Ds4
 .byte   W12
 .byte   PEND 
Label_01489A48:
 .byte   W12
 .byte   N23 ,Gs3 ,v127
 .byte   N23 ,Cn4
 .byte   W12
 .byte   PEND 
@  #07 @040   ----------------------------------------
 .byte   W12
 .byte   N92 ,Cn2
 .byte   W12
Label_01489A54:
 .byte   N11 ,Fs2 ,v127
 .byte   W12
 .byte   An2
 .byte   W12
 .byte   PEND 
Label_01489A5B:
 .byte   N11 ,Dn3 ,v127
 .byte   W12
 .byte   N11
 .byte   W12
 .byte   PEND 
Label_01489A62:
 .byte   N11 ,Fs3 ,v127
 .byte   W12
 .byte   An3
 .byte   W12
 .byte   PEND 
@  #07 @041   ----------------------------------------
Label_01489A69:
 .byte   N11 ,Dn4 ,v127
 .byte   W12
 .byte   N92 ,Cn2
 .byte   W12
 .byte   PEND 
Label_01489A71:
 .byte   N11 ,En2 ,v127
 .byte   W12
 .byte   An2
 .byte   W12
 .byte   PEND 
Label_01489A78:
 .byte   N11 ,Cn3 ,v127
 .byte   W12
 .byte   N11
 .byte   W12
 .byte   PEND 
 .byte   En3
 .byte   W12
 .byte   An3
 .byte   W12
@  #07 @042   ----------------------------------------
Label_01489A83:
 .byte   N11 ,En4 ,v127
 .byte   W12
 .byte   TIE ,Gn2
 .byte   N05 ,Dn3
 .byte   N05 ,Dn4
 .byte   W12
 .byte   PEND 
 .byte   N23 ,Dn3
 .byte   N23 ,Dn4
 .byte   W24
Label_01489A94:
 .byte   N05 ,Cs3 ,v127
 .byte   N05 ,Cs4
 .byte   W12
 .byte   N23 ,Cs3
 .byte   N23 ,Cs4
 .byte   W12
 .byte   PEND 
Label_01489AA0:
 .byte   W12
 .byte   N05 ,Dn3 ,v127
 .byte   N05 ,Dn4
 .byte   W12
 .byte   PEND 
@  #07 @043   ----------------------------------------
 .byte   N32 ,Dn3
 .byte   N32 ,Dn4
 .byte   W24
Label_01489AAD:
 .byte   W12
 .byte   N23 ,Fs3 ,v127
 .byte   N23 ,Fs4
 .byte   W12
 .byte   PEND 
 .byte   W12
 .byte   En3
 .byte   N23 ,En4
 .byte   W12
Label_01489ABA:
 .byte   W12
 .byte   N23 ,Bn2 ,v127
 .byte   N23 ,Bn3
 .byte   W12
 .byte   PEND 
@  #07 @044   ----------------------------------------
 .byte   W11
 .byte   EOT
 .byte   Gn2
 .byte   W01
 .byte   TIE
 .byte   N05 ,Dn3
 .byte   N05 ,Dn4
 .byte   W12
 .byte   N23 ,Dn3
 .byte   N23 ,Dn4
 .byte   W24
@  #07 @045   ----------------------------------------
 .byte   PATT
  .word Label_01489A94
@  #07 @046   ----------------------------------------
 .byte   PATT
  .word Label_01489AA0
@  #07 @047   ----------------------------------------
 .byte   N32 ,Dn3 ,v127
 .byte   N32 ,Dn4
 .byte   W24
@  #07 @048   ----------------------------------------
 .byte   PATT
  .word Label_01489AAD
@  #07 @049   ----------------------------------------
 .byte   W12
 .byte   N23 ,En3 ,v127
 .byte   N23 ,En4
 .byte   W12
@  #07 @050   ----------------------------------------
 .byte   PATT
  .word Label_01489ABA
@  #07 @051   ----------------------------------------
 .byte   W11
 .byte   EOT
 .byte   Gn2
 .byte   W13
 .byte   W24
 .byte   W24
 .byte   W24
@  #07 @052   ----------------------------------------
 .byte   W24
 .byte   W24
 .byte   W24
 .byte   W24
@  #07 @053   ----------------------------------------
 .byte   W24
 .byte   W24
 .byte   W24
 .byte   W24
@  #07 @054   ----------------------------------------
 .byte   W24
 .byte   W24
 .byte   W24
 .byte   W24
@  #07 @055   ----------------------------------------
 .byte   W24
 .byte   W24
 .byte   W24
 .byte   W24
@  #07 @056   ----------------------------------------
 .byte   W24
 .byte   W24
 .byte   W24
 .byte   W24
@  #07 @057   ----------------------------------------
 .byte   W24
 .byte   W24
 .byte   W24
 .byte   W24
@  #07 @058   ----------------------------------------
 .byte   W24
 .byte   W24
 .byte   W24
 .byte   W24
@  #07 @059   ----------------------------------------
 .byte   W24
 .byte   W24
 .byte   W24
 .byte   W24
@  #07 @060   ----------------------------------------
 .byte   W12
 .byte   PAN , c_v+20
 .byte   W12
 .byte   W24
 .byte   W24
 .byte   W24
@  #07 @061   ----------------------------------------
 .byte   W24
 .byte   W24
 .byte   W24
 .byte   W24
@  #07 @062   ----------------------------------------
 .byte   W24
 .byte   W24
 .byte   W24
 .byte   W24
@  #07 @063   ----------------------------------------
 .byte   W24
 .byte   W24
 .byte   W24
 .byte   W24
@  #07 @064   ----------------------------------------
 .byte   W24
 .byte   W24
 .byte   W24
 .byte   W24
@  #07 @065   ----------------------------------------
 .byte   W06
 .byte   PAN , c_v+0
 .byte   W18
 .byte   W24
 .byte   W24
 .byte   W24
@  #07 @066   ----------------------------------------
 .byte   W24
 .byte   W24
 .byte   W24
 .byte   W24
@  #07 @067   ----------------------------------------
 .byte   W24
 .byte   W24
 .byte   W24
 .byte   W24
@  #07 @068   ----------------------------------------
 .byte   W24
 .byte   W24
 .byte   W24
 .byte   W24
@  #07 @069   ----------------------------------------
 .byte   W24
 .byte   W24
 .byte   W24
 .byte   W24
@  #07 @070   ----------------------------------------
 .byte   W24
 .byte   W24
 .byte   W24
 .byte   W24
@  #07 @071   ----------------------------------------
 .byte   W24
 .byte   W24
 .byte   W24
 .byte   W24
@  #07 @072   ----------------------------------------
 .byte   W24
 .byte   W24
 .byte   W24
 .byte   W24
@  #07 @073   ----------------------------------------
 .byte   W24
 .byte   W24
 .byte   W24
 .byte   W24
@  #07 @074   ----------------------------------------
 .byte   W24
 .byte   W24
 .byte   W24
 .byte   W24
@  #07 @075   ----------------------------------------
 .byte   W24
 .byte   W24
 .byte   W24
 .byte   W24
@  #07 @076   ----------------------------------------
 .byte   W24
 .byte   W24
 .byte   W24
 .byte   W24
@  #07 @077   ----------------------------------------
 .byte   W24
 .byte   W24
 .byte   W24
 .byte   W24
@  #07 @078   ----------------------------------------
 .byte   W24
 .byte   W24
 .byte   W24
 .byte   W24
@  #07 @079   ----------------------------------------
 .byte   W24
 .byte   W12
 .byte   GOTO
  .word Label_01489966
@  #07 @080   ----------------------------------------
 .byte   W12
 .byte   W24
 .byte   W24
 .byte   W24
 .byte   W24
@  #07 @081   ----------------------------------------
 .byte   W24
 .byte   W24
 .byte   W24
 .byte   W24
@  #07 @082   ----------------------------------------
 .byte   W24
 .byte   W24
 .byte   W24
 .byte   W24
@  #07 @083   ----------------------------------------
 .byte   W24
 .byte   W24
 .byte   W12
 .byte   N92 ,Cn3 ,v127
 .byte   W12
@  #07 @084   ----------------------------------------
 .byte   PATT
  .word Label_0148997A
@  #07 @085   ----------------------------------------
 .byte   PATT
  .word Label_01489981
@  #07 @086   ----------------------------------------
 .byte   PATT
  .word Label_01489988
@  #07 @087   ----------------------------------------
 .byte   PATT
  .word Label_0148998F
@  #07 @088   ----------------------------------------
 .byte   W12
 .byte   N23 ,Fs4 ,v127
 .byte   W12
 .byte   W12
 .byte   An4
 .byte   W12
 .byte   W12
 .byte   Bn4
 .byte   W12
@  #07 @089   ----------------------------------------
 .byte   PATT
  .word Label_014899A5
@  #07 @090   ----------------------------------------
 .byte   PATT
  .word Label_014899AF
@  #07 @091   ----------------------------------------
 .byte   PATT
  .word Label_014899B6
@  #07 @092   ----------------------------------------
 .byte   W12
 .byte   N23 ,En4 ,v127
 .byte   W12
@  #07 @093   ----------------------------------------
 .byte   PATT
  .word Label_014899C6
@  #07 @094   ----------------------------------------
 .byte   PATT
  .word Label_014899D2
@  #07 @095   ----------------------------------------
 .byte   PATT
  .word Label_014899DA
@  #07 @096   ----------------------------------------
 .byte   PATT
  .word Label_014899E2
@  #07 @097   ----------------------------------------
 .byte   PATT
  .word Label_014899ED
@  #07 @098   ----------------------------------------
 .byte   W24
 .byte   W24
 .byte   W24
 .byte   W12
 .byte   N11 ,Ds5 ,v127
 .byte   W12
@  #07 @099   ----------------------------------------
 .byte   PATT
  .word Label_01489A00
@  #07 @100   ----------------------------------------
 .byte   PATT
  .word Label_01489A07
@  #07 @101   ----------------------------------------
 .byte   PATT
  .word Label_01489A0E
@  #07 @102   ----------------------------------------
 .byte   PATT
  .word Label_01489A15
@  #07 @103   ----------------------------------------
 .byte   W12
 .byte   N44 ,Gs4 ,v127
 .byte   W12
 .byte   W24
 .byte   W12
 .byte   N11 ,As4
 .byte   W12
@  #07 @104   ----------------------------------------
 .byte   PATT
  .word Label_01489A26
@  #07 @105   ----------------------------------------
 .byte   EOT
 .byte   Ds3
 .byte   W01
 .byte   N23 ,Gs2 ,v127
 .byte   N23 ,Cn5 ,v116
 .byte   W12
@  #07 @106   ----------------------------------------
 .byte   PATT
  .word Label_01489A38
@  #07 @107   ----------------------------------------
 .byte   PATT
  .word Label_01489A40
@  #07 @108   ----------------------------------------
 .byte   PATT
  .word Label_01489A48
@  #07 @109   ----------------------------------------
 .byte   W12
 .byte   N92 ,Cn2 ,v127
 .byte   W12
@  #07 @110   ----------------------------------------
 .byte   PATT
  .word Label_01489A54
@  #07 @111   ----------------------------------------
 .byte   PATT
  .word Label_01489A5B
@  #07 @112   ----------------------------------------
 .byte   PATT
  .word Label_01489A62
@  #07 @113   ----------------------------------------
 .byte   PATT
  .word Label_01489A69
@  #07 @114   ----------------------------------------
 .byte   PATT
  .word Label_01489A71
@  #07 @115   ----------------------------------------
 .byte   PATT
  .word Label_01489A78
@  #07 @116   ----------------------------------------
 .byte   N11 ,En3 ,v127
 .byte   W12
 .byte   An3
 .byte   W12
@  #07 @117   ----------------------------------------
 .byte   PATT
  .word Label_01489A83
@  #07 @118   ----------------------------------------
 .byte   N23 ,Dn3 ,v127
 .byte   N23 ,Dn4
 .byte   W24
@  #07 @119   ----------------------------------------
 .byte   PATT
  .word Label_01489A94
@  #07 @120   ----------------------------------------
 .byte   PATT
  .word Label_01489AA0
@  #07 @121   ----------------------------------------
 .byte   N32 ,Dn3 ,v127
 .byte   N32 ,Dn4
 .byte   W24
@  #07 @122   ----------------------------------------
 .byte   PATT
  .word Label_01489AAD
@  #07 @123   ----------------------------------------
 .byte   W12
 .byte   N23 ,En3 ,v127
 .byte   N23 ,En4
 .byte   W12
@  #07 @124   ----------------------------------------
 .byte   PATT
  .word Label_01489ABA
@  #07 @125   ----------------------------------------
 .byte   W11
 .byte   EOT
 .byte   Gn2
 .byte   W01
 .byte   TIE ,Gn2 ,v127
 .byte   N05 ,Dn3
 .byte   N05 ,Dn4
 .byte   W12
 .byte   N23 ,Dn3
 .byte   N23 ,Dn4
 .byte   W24
@  #07 @126   ----------------------------------------
 .byte   PATT
  .word Label_01489A94
@  #07 @127   ----------------------------------------
 .byte   PATT
  .word Label_01489AA0
@  #07 @128   ----------------------------------------
 .byte   N32 ,Dn3 ,v127
 .byte   N32 ,Dn4
 .byte   W24
@  #07 @129   ----------------------------------------
 .byte   PATT
  .word Label_01489AAD
@  #07 @130   ----------------------------------------
 .byte   W12
 .byte   N23 ,En3 ,v127
 .byte   N23 ,En4
 .byte   W12
@  #07 @131   ----------------------------------------
 .byte   PATT
  .word Label_01489ABA
@  #07 @132   ----------------------------------------
 .byte   W11
 .byte   EOT
 .byte   Gn2
 .byte   W01
 .byte   FINE

@**************** Track 8 (Midi-Chn.7) ****************@

song04_008:
@  #08 @000   ----------------------------------------
 .byte   KEYSH , song04_key+0
 .byte   VOICE , 10
 .byte   VOL , 36*song04_mvl/mxv
 .byte   PAN , c_v-64
 .byte   W12
 .byte   PAN , c_v-29
 .byte   N06 ,Gn3 ,v127
 .byte   W12
 .byte   W24
 .byte   W12
 .byte   Gn3 ,v096
 .byte   W12
 .byte   W24
@  #08 @001   ----------------------------------------
 .byte   W12
 .byte   Gn3 ,v076
 .byte   W12
 .byte   W24
 .byte   W12
 .byte   Dn3 ,v127
 .byte   W12
 .byte   W12
 .byte   Dn4
 .byte   W12
@  #08 @002   ----------------------------------------
 .byte   W12
 .byte   Gn3
 .byte   W12
 .byte   W24
 .byte   W12
 .byte   Gn3 ,v096
 .byte   W12
 .byte   W12
 .byte   Gn3 ,v076
 .byte   W12
@  #08 @003   ----------------------------------------
 .byte   W12
 .byte   Gn3 ,v064
 .byte   W12
 .byte   W12
 .byte   Gn3 ,v052
 .byte   W12
 .byte   W12
 .byte   Dn3 ,v127
 .byte   W12
 .byte   W12
 .byte   Dn4
 .byte   W12
@  #08 @004   ----------------------------------------
 .byte   W12
 .byte   Gn3
 .byte   W12
 .byte   W24
 .byte   W12
 .byte   Gn3 ,v096
 .byte   W12
 .byte   W12
 .byte   Gn3 ,v076
 .byte   W12
@  #08 @005   ----------------------------------------
 .byte   W12
 .byte   Gn3 ,v064
 .byte   W12
 .byte   W12
 .byte   Gn3 ,v052
 .byte   W12
 .byte   W12
 .byte   Dn3 ,v127
 .byte   W12
 .byte   W12
 .byte   Dn4
 .byte   W12
@  #08 @006   ----------------------------------------
 .byte   W12
 .byte   Gn3
 .byte   W12
 .byte   W24
 .byte   W12
 .byte   Gn3 ,v096
 .byte   W12
 .byte   W12
 .byte   Gn3 ,v076
 .byte   W12
@  #08 @007   ----------------------------------------
 .byte   W12
 .byte   Gn3 ,v064
 .byte   W12
 .byte   W12
 .byte   Gn3 ,v052
 .byte   W12
 .byte   W12
 .byte   Dn3 ,v127
 .byte   W12
 .byte   W12
 .byte   Dn4
 .byte   W12
@  #08 @008   ----------------------------------------
 .byte   W12
 .byte   Gn3
 .byte   W12
 .byte   W24
 .byte   W12
 .byte   Gn3 ,v096
 .byte   W12
 .byte   W12
 .byte   Gn3 ,v076
 .byte   W12
@  #08 @009   ----------------------------------------
 .byte   W12
 .byte   Gn3 ,v064
 .byte   W12
 .byte   W12
 .byte   Gn3 ,v052
 .byte   W12
 .byte   W12
 .byte   Dn3 ,v127
 .byte   W12
 .byte   W12
 .byte   Dn4
 .byte   W12
@  #08 @010   ----------------------------------------
 .byte   W12
 .byte   Gn3
 .byte   W12
 .byte   W24
 .byte   W12
 .byte   Gn3 ,v096
 .byte   W12
 .byte   W12
 .byte   Gn3 ,v076
 .byte   W12
@  #08 @011   ----------------------------------------
 .byte   W12
 .byte   Gn3 ,v064
 .byte   W12
 .byte   W12
 .byte   Gn3 ,v052
 .byte   W12
 .byte   W12
 .byte   Dn3 ,v127
 .byte   W12
 .byte   W12
 .byte   Dn4
 .byte   W12
@  #08 @012   ----------------------------------------
 .byte   W12
 .byte   Gn3
 .byte   W12
 .byte   W24
 .byte   W12
 .byte   Gn3 ,v096
 .byte   W12
 .byte   W12
 .byte   Gn3 ,v076
 .byte   W12
@  #08 @013   ----------------------------------------
 .byte   W12
 .byte   Gn3 ,v064
 .byte   W12
 .byte   W12
 .byte   Gn3 ,v052
 .byte   W12
 .byte   W12
 .byte   Dn3 ,v127
 .byte   W12
 .byte   W12
 .byte   Dn4
 .byte   W12
@  #08 @014   ----------------------------------------
 .byte   W12
 .byte   Gn3
 .byte   W12
 .byte   W24
 .byte   W12
 .byte   Gn3 ,v096
 .byte   W12
 .byte   W12
 .byte   Gn3 ,v076
 .byte   W12
@  #08 @015   ----------------------------------------
 .byte   W12
 .byte   Gn3 ,v064
 .byte   W12
 .byte   W12
 .byte   Gn3 ,v052
 .byte   W12
 .byte   W12
 .byte   Dn3 ,v127
 .byte   W12
 .byte   W12
 .byte   Dn4
 .byte   W12
@  #08 @016   ----------------------------------------
 .byte   W12
 .byte   Gn3
 .byte   W12
 .byte   W24
 .byte   W12
 .byte   Gn3 ,v096
 .byte   W12
 .byte   W12
 .byte   Gn3 ,v080
 .byte   W12
@  #08 @017   ----------------------------------------
 .byte   W12
 .byte   Gn3 ,v064
 .byte   W12
 .byte   W12
 .byte   Gn3 ,v052
 .byte   W12
Label_01489DA5:
 .byte   W12
 .byte   N06 ,Dn3 ,v127
 .byte   N06 ,Gn3 ,v044
 .byte   W12
 .byte   PEND 
Label_01489DAE:
 .byte   W12
 .byte   N06 ,Gn3 ,v032
 .byte   N06 ,Dn4 ,v127
 .byte   W12
 .byte   PEND 
@  #08 @018   ----------------------------------------
 .byte   W12
 .byte   Gn3 ,v004
 .byte   W12
 .byte   W24
 .byte   W24
 .byte   W24
@  #08 @019   ----------------------------------------
 .byte   W24
 .byte   W24
 .byte   W24
 .byte   W24
@  #08 @020   ----------------------------------------
 .byte   W24
 .byte   W24
 .byte   W24
 .byte   W24
@  #08 @021   ----------------------------------------
 .byte   W24
 .byte   W24
 .byte   W24
 .byte   W24
@  #08 @022   ----------------------------------------
 .byte   W24
 .byte   W24
 .byte   W24
 .byte   W24
@  #08 @023   ----------------------------------------
 .byte   W24
 .byte   W24
 .byte   W24
 .byte   W24
@  #08 @024   ----------------------------------------
 .byte   W24
 .byte   W24
 .byte   W24
 .byte   W24
@  #08 @025   ----------------------------------------
 .byte   W24
 .byte   W24
 .byte   W24
 .byte   W24
@  #08 @026   ----------------------------------------
 .byte   W24
 .byte   W24
 .byte   W24
 .byte   W24
@  #08 @027   ----------------------------------------
 .byte   W24
 .byte   W24
 .byte   W24
Label_01489DE1:
 .byte   W06
 .byte   PAN , c_v-43
 .byte   W01
 .byte   PAN , c_v-42
 .byte   W01
 .byte   PAN , c_v-40
 .byte   W01
 .byte   PAN , c_v-39
 .byte   W01
 .byte   PAN , c_v-37
 .byte   W01
 .byte   PAN , c_v-36
 .byte   W01
 .byte   PAN , c_v-34
 .byte   W01
 .byte   PAN , c_v-33
 .byte   W01
 .byte   PAN , c_v-31
 .byte   W01
 .byte   PAN , c_v-30
 .byte   W01
 .byte   PAN , c_v-28
 .byte   W01
 .byte   PAN , c_v-27
 .byte   W01
 .byte   PAN , c_v-25
 .byte   W01
 .byte   PAN , c_v-24
 .byte   W01
 .byte   PAN , c_v-22
 .byte   W01
 .byte   PAN , c_v-21
 .byte   W01
 .byte   PAN , c_v-19
 .byte   W01
 .byte   PAN , c_v-18
 .byte   W01
 .byte   PEND 
@  #08 @028   ----------------------------------------
Label_01489E08:
 .byte   PAN , c_v-16
 .byte   W01
 .byte   PAN , c_v-15
 .byte   W01
 .byte   PAN , c_v-13
 .byte   W01
 .byte   PAN , c_v-12
 .byte   W01
 .byte   PAN , c_v-10
 .byte   W01
 .byte   PAN , c_v-9
 .byte   W01
 .byte   PAN , c_v-7
 .byte   W01
 .byte   PAN , c_v-6
 .byte   W01
 .byte   PAN , c_v-4
 .byte   W04
 .byte   N06 ,Gn3 ,v127
 .byte   W12
 .byte   PEND 
 .byte   W12
Label_01489E21:
 .byte   W12
 .byte   W24
 .byte   W24
@  #08 @029   ----------------------------------------
 .byte   W24
 .byte   W24
 .byte   W24
 .byte   W24
@  #08 @030   ----------------------------------------
 .byte   W12
 .byte   N06 ,Gn3 ,v127
 .byte   W12
 .byte   W24
 .byte   W12
 .byte   Dn3
 .byte   W12
 .byte   W24
@  #08 @031   ----------------------------------------
 .byte   W24
 .byte   W24
 .byte   W24
 .byte   W24
@  #08 @032   ----------------------------------------
 .byte   W12
 .byte   Gn3
 .byte   W12
 .byte   W24
 .byte   W12
 .byte   Dn3
 .byte   W12
 .byte   W24
@  #08 @033   ----------------------------------------
 .byte   W24
 .byte   W24
 .byte   W24
 .byte   W24
@  #08 @034   ----------------------------------------
 .byte   W24
 .byte   W24
 .byte   W24
 .byte   W24
@  #08 @035   ----------------------------------------
 .byte   W24
 .byte   W24
 .byte   W24
 .byte   W24
@  #08 @036   ----------------------------------------
 .byte   W24
 .byte   W24
 .byte   W24
 .byte   W24
@  #08 @037   ----------------------------------------
 .byte   W24
 .byte   W24
 .byte   W24
 .byte   W24
@  #08 @038   ----------------------------------------
 .byte   W24
 .byte   W24
 .byte   W24
 .byte   W24
@  #08 @039   ----------------------------------------
 .byte   W24
 .byte   W24
 .byte   W24
 .byte   W24
@  #08 @040   ----------------------------------------
 .byte   W24
 .byte   W24
 .byte   W24
 .byte   W24
@  #08 @041   ----------------------------------------
 .byte   W24
 .byte   W24
Label_01489E60:
 .byte   PAN , c_v-4
 .byte   W02
 .byte   PAN , c_v-5
 .byte   W01
 .byte   PAN , c_v-6
 .byte   W01
 .byte   PAN , c_v-7
 .byte   W01
 .byte   PAN , c_v-8
 .byte   W01
 .byte   PAN , c_v-9
 .byte   W02
 .byte   PAN , c_v-10
 .byte   W01
 .byte   PAN , c_v-11
 .byte   W01
 .byte   PAN , c_v-12
 .byte   W01
 .byte   PAN , c_v-13
 .byte   W01
 .byte   PAN , c_v-14
 .byte   W01
 .byte   PAN , c_v-15
 .byte   W01
 .byte   PAN , c_v-16
 .byte   W02
 .byte   PAN , c_v-17
 .byte   W01
 .byte   PAN , c_v-18
 .byte   W01
 .byte   PAN , c_v-19
 .byte   W01
 .byte   PAN , c_v-20
 .byte   W01
 .byte   PAN , c_v-21
 .byte   W01
 .byte   PAN , c_v-22
 .byte   W02
 .byte   PAN , c_v-23
 .byte   W01
 .byte   PEND 
Label_01489E8A:
 .byte   PAN , c_v-24
 .byte   W01
 .byte   PAN , c_v-25
 .byte   W01
 .byte   PAN , c_v-26
 .byte   W01
 .byte   PAN , c_v-27
 .byte   W01
 .byte   PAN , c_v-28
 .byte   W01
 .byte   PAN , c_v-29
 .byte   W02
 .byte   PAN , c_v-30
 .byte   W01
 .byte   PAN , c_v-31
 .byte   W01
 .byte   PAN , c_v-32
 .byte   W01
 .byte   PAN , c_v-33
 .byte   W01
 .byte   PAN , c_v-34
 .byte   W01
 .byte   PAN , c_v-35
 .byte   W01
 .byte   PAN , c_v-36
 .byte   W02
 .byte   PAN , c_v-37
 .byte   W01
 .byte   PAN , c_v-38
 .byte   W01
 .byte   PAN , c_v-39
 .byte   W01
 .byte   PAN , c_v-40
 .byte   W01
 .byte   PAN , c_v-41
 .byte   W01
 .byte   PAN , c_v-42
 .byte   W01
 .byte   PAN , c_v-43
 .byte   W03
 .byte   PEND 
@  #08 @042   ----------------------------------------
 .byte   W24
 .byte   W24
 .byte   W24
 .byte   W24
@  #08 @043   ----------------------------------------
 .byte   W24
 .byte   W24
 .byte   W24
Label_01489EBB:
 .byte   N06 ,Dn3 ,v127
 .byte   W12
 .byte   Gn3
 .byte   W12
 .byte   PEND 
@  #08 @044   ----------------------------------------
Label_01489EC2:
 .byte   N06 ,Dn4 ,v127
 .byte   W12
 .byte   Gn3
 .byte   W12
 .byte   PEND 
 .byte   W24
 .byte   W24
 .byte   W24
@  #08 @045   ----------------------------------------
 .byte   W24
 .byte   W24
 .byte   W24
 .byte   W24
@  #08 @046   ----------------------------------------
 .byte   W12
 .byte   PAN , c_v-29
 .byte   N06
 .byte   W12
 .byte   W24
 .byte   W12
 .byte   Gn3 ,v096
 .byte   W12
 .byte   W24
@  #08 @047   ----------------------------------------
 .byte   W12
 .byte   Gn3 ,v076
 .byte   W12
 .byte   W24
 .byte   W12
 .byte   Dn3 ,v127
 .byte   W12
 .byte   W12
 .byte   Dn4
 .byte   W12
@  #08 @048   ----------------------------------------
 .byte   W12
 .byte   Gn3
 .byte   W12
 .byte   W24
 .byte   W12
 .byte   Gn3 ,v096
 .byte   W12
 .byte   W12
 .byte   Gn3 ,v076
 .byte   W12
@  #08 @049   ----------------------------------------
 .byte   W12
 .byte   Gn3 ,v064
 .byte   W12
 .byte   W12
 .byte   Gn3 ,v052
 .byte   W12
 .byte   W12
 .byte   Dn3 ,v127
 .byte   W12
 .byte   W12
 .byte   Dn4
 .byte   W12
@  #08 @050   ----------------------------------------
 .byte   W12
 .byte   Gn3
 .byte   W12
 .byte   W24
 .byte   W12
 .byte   Gn3 ,v096
 .byte   W12
 .byte   W12
 .byte   Gn3 ,v076
 .byte   W12
@  #08 @051   ----------------------------------------
 .byte   W12
 .byte   Gn3 ,v064
 .byte   W12
 .byte   W12
 .byte   Gn3 ,v052
 .byte   W12
 .byte   W12
 .byte   Dn3 ,v127
 .byte   W12
 .byte   W12
 .byte   Dn4
 .byte   W12
@  #08 @052   ----------------------------------------
 .byte   W12
 .byte   Gn3
 .byte   W12
 .byte   W24
 .byte   W12
 .byte   Gn3 ,v096
 .byte   W12
 .byte   W12
 .byte   Gn3 ,v076
 .byte   W12
@  #08 @053   ----------------------------------------
 .byte   W12
 .byte   Gn3 ,v064
 .byte   W12
 .byte   W12
 .byte   Gn3 ,v052
 .byte   W12
 .byte   W12
 .byte   Dn3 ,v127
 .byte   W12
 .byte   W12
 .byte   Dn4
 .byte   W12
@  #08 @054   ----------------------------------------
 .byte   W12
 .byte   Gn3
 .byte   W12
 .byte   W24
 .byte   W12
 .byte   Gn3 ,v096
 .byte   W12
 .byte   W12
 .byte   Gn3 ,v076
 .byte   W12
@  #08 @055   ----------------------------------------
 .byte   W12
 .byte   Gn3 ,v064
 .byte   W12
 .byte   W12
 .byte   Gn3 ,v052
 .byte   W12
 .byte   W12
 .byte   Dn3 ,v127
 .byte   W12
 .byte   W12
 .byte   Dn4
 .byte   W12
@  #08 @056   ----------------------------------------
 .byte   W12
 .byte   Gn3
 .byte   W12
 .byte   W24
 .byte   W12
 .byte   Gn3 ,v096
 .byte   W12
 .byte   W12
 .byte   Gn3 ,v076
 .byte   W12
@  #08 @057   ----------------------------------------
 .byte   W12
 .byte   Gn3 ,v064
 .byte   W12
 .byte   W12
 .byte   Gn3 ,v052
 .byte   W12
 .byte   W12
 .byte   Dn3 ,v127
 .byte   W12
 .byte   W12
 .byte   Dn4
 .byte   W12
@  #08 @058   ----------------------------------------
 .byte   W12
 .byte   Gn3
 .byte   W12
 .byte   W24
 .byte   W12
 .byte   Gn3 ,v096
 .byte   W12
 .byte   W12
 .byte   Gn3 ,v076
 .byte   W12
@  #08 @059   ----------------------------------------
 .byte   W12
 .byte   Gn3 ,v064
 .byte   W12
 .byte   W12
 .byte   Gn3 ,v052
 .byte   W12
 .byte   W12
 .byte   Dn3 ,v127
 .byte   W12
 .byte   W12
 .byte   Dn4
 .byte   W12
@  #08 @060   ----------------------------------------
 .byte   W12
 .byte   Gn3
 .byte   W12
 .byte   W24
 .byte   W12
 .byte   Gn3 ,v096
 .byte   W12
 .byte   W12
 .byte   Gn3 ,v076
 .byte   W12
@  #08 @061   ----------------------------------------
 .byte   W12
 .byte   Gn3 ,v064
 .byte   W12
 .byte   W12
 .byte   Gn3 ,v052
 .byte   W12
 .byte   W12
 .byte   Dn3 ,v127
 .byte   W12
 .byte   W12
 .byte   Dn4
 .byte   W12
@  #08 @062   ----------------------------------------
 .byte   W12
 .byte   Gn3
 .byte   W12
 .byte   W24
 .byte   W12
 .byte   Gn3 ,v096
 .byte   W12
 .byte   W12
 .byte   Gn3 ,v080
 .byte   W12
@  #08 @063   ----------------------------------------
 .byte   W12
 .byte   Gn3 ,v064
 .byte   W12
 .byte   W12
 .byte   Gn3 ,v052
 .byte   W12
@  #08 @064   ----------------------------------------
 .byte   PATT
  .word Label_01489DA5
@  #08 @065   ----------------------------------------
 .byte   PATT
  .word Label_01489DAE
@  #08 @066   ----------------------------------------
 .byte   W12
 .byte   N06 ,Gn3 ,v004
 .byte   W12
 .byte   W24
 .byte   W24
 .byte   W24
@  #08 @067   ----------------------------------------
 .byte   W24
 .byte   W24
 .byte   W24
 .byte   W24
@  #08 @068   ----------------------------------------
 .byte   W24
 .byte   W24
 .byte   W24
 .byte   W24
@  #08 @069   ----------------------------------------
 .byte   W24
 .byte   W24
 .byte   W24
 .byte   W24
@  #08 @070   ----------------------------------------
 .byte   W24
 .byte   W24
 .byte   W24
 .byte   W24
@  #08 @071   ----------------------------------------
 .byte   W24
 .byte   W24
 .byte   W24
 .byte   W24
@  #08 @072   ----------------------------------------
 .byte   W24
 .byte   W24
 .byte   W24
 .byte   W24
@  #08 @073   ----------------------------------------
 .byte   W24
 .byte   W24
 .byte   W24
 .byte   W24
@  #08 @074   ----------------------------------------
 .byte   W24
 .byte   W24
 .byte   W24
 .byte   W24
@  #08 @075   ----------------------------------------
 .byte   W24
 .byte   W24
 .byte   W24
@  #08 @076   ----------------------------------------
 .byte   PATT
  .word Label_01489DE1
@  #08 @077   ----------------------------------------
 .byte   PATT
  .word Label_01489E08
@  #08 @078   ----------------------------------------
 .byte   W12
 .byte   GOTO
  .word Label_01489E21
@  #08 @079   ----------------------------------------
 .byte   W12
 .byte   W24
 .byte   W24
 .byte   W24
 .byte   W24
@  #08 @080   ----------------------------------------
 .byte   W24
 .byte   W24
 .byte   W12
 .byte   N06 ,Gn3 ,v127
 .byte   W12
 .byte   W24
@  #08 @081   ----------------------------------------
 .byte   W12
 .byte   Dn3
 .byte   W12
 .byte   W24
 .byte   W24
 .byte   W24
@  #08 @082   ----------------------------------------
 .byte   W24
 .byte   W24
 .byte   W12
 .byte   Gn3
 .byte   W12
 .byte   W24
@  #08 @083   ----------------------------------------
 .byte   W12
 .byte   Dn3
 .byte   W12
 .byte   W24
 .byte   W24
 .byte   W24
@  #08 @084   ----------------------------------------
 .byte   W24
 .byte   W24
 .byte   W24
 .byte   W24
@  #08 @085   ----------------------------------------
 .byte   W24
 .byte   W24
 .byte   W24
 .byte   W24
@  #08 @086   ----------------------------------------
 .byte   W24
 .byte   W24
 .byte   W24
 .byte   W24
@  #08 @087   ----------------------------------------
 .byte   W24
 .byte   W24
 .byte   W24
 .byte   W24
@  #08 @088   ----------------------------------------
 .byte   W24
 .byte   W24
 .byte   W24
 .byte   W24
@  #08 @089   ----------------------------------------
 .byte   W24
 .byte   W24
 .byte   W24
 .byte   W24
@  #08 @090   ----------------------------------------
 .byte   W24
 .byte   W24
 .byte   W24
 .byte   W24
@  #08 @091   ----------------------------------------
 .byte   W24
 .byte   W24
 .byte   W24
 .byte   W24
@  #08 @092   ----------------------------------------
 .byte   PATT
  .word Label_01489E60
@  #08 @093   ----------------------------------------
 .byte   PATT
  .word Label_01489E8A
@  #08 @094   ----------------------------------------
 .byte   W24
 .byte   W24
 .byte   W24
 .byte   W24
@  #08 @095   ----------------------------------------
 .byte   W24
 .byte   W24
 .byte   W24
@  #08 @096   ----------------------------------------
 .byte   PATT
  .word Label_01489EBB
@  #08 @097   ----------------------------------------
 .byte   PATT
  .word Label_01489EC2
@  #08 @098   ----------------------------------------
 .byte   W24
 .byte   W24
 .byte   W24
 .byte   W24
@  #08 @099   ----------------------------------------
 .byte   W24
 .byte   W24
 .byte   W24
 .byte   W12
 .byte   FINE

@**************** Track 9 (Midi-Chn.8) ****************@

song04_009:
@  #09 @000   ----------------------------------------
 .byte   KEYSH , song04_key+0
 .byte   VOICE , 48
 .byte   VOL , 39*song04_mvl/mxv
 .byte   PAN , c_v-64
 .byte   W24
 .byte   W24
 .byte   W24
 .byte   W24
@  #09 @001   ----------------------------------------
 .byte   W24
 .byte   W24
 .byte   W24
 .byte   W24
@  #09 @002   ----------------------------------------
 .byte   W24
 .byte   W24
 .byte   W24
 .byte   W24
@  #09 @003   ----------------------------------------
 .byte   W24
 .byte   W24
 .byte   W24
 .byte   W24
@  #09 @004   ----------------------------------------
 .byte   W24
 .byte   W24
 .byte   W24
 .byte   W24
@  #09 @005   ----------------------------------------
 .byte   W24
 .byte   W24
 .byte   W24
 .byte   W24
@  #09 @006   ----------------------------------------
 .byte   W24
 .byte   W24
 .byte   W24
 .byte   W24
@  #09 @007   ----------------------------------------
 .byte   W24
 .byte   W24
 .byte   W24
 .byte   W24
@  #09 @008   ----------------------------------------
 .byte   W24
 .byte   W24
 .byte   W24
 .byte   W24
@  #09 @009   ----------------------------------------
 .byte   W24
 .byte   W24
 .byte   W24
 .byte   W24
@  #09 @010   ----------------------------------------
 .byte   W24
 .byte   W24
 .byte   W24
 .byte   W24
@  #09 @011   ----------------------------------------
 .byte   W24
 .byte   W24
 .byte   W24
 .byte   W24
@  #09 @012   ----------------------------------------
 .byte   W24
 .byte   W24
 .byte   W24
 .byte   W24
@  #09 @013   ----------------------------------------
 .byte   W24
 .byte   W24
 .byte   W24
 .byte   W24
@  #09 @014   ----------------------------------------
 .byte   W24
 .byte   W24
 .byte   W24
 .byte   W24
@  #09 @015   ----------------------------------------
 .byte   W12
 .byte   PAN , c_v-6
 .byte   W12
 .byte   W24
 .byte   W24
 .byte   W24
@  #09 @016   ----------------------------------------
Label_0148A0BA:
 .byte   W12
 .byte   N92 ,Gn2 ,v127
 .byte   N23 ,Gn3
 .byte   W12
 .byte   PEND 
Label_0148A0C2:
 .byte   W12
 .byte   N23 ,Bn2 ,v127
 .byte   N23 ,Bn3
 .byte   W12
 .byte   PEND 
Label_0148A0CA:
 .byte   W12
 .byte   N23 ,Gn3 ,v127
 .byte   N23 ,Gn4
 .byte   W12
 .byte   PEND 
Label_0148A0D2:
 .byte   W12
 .byte   N23 ,An3 ,v127
 .byte   N23 ,An4
 .byte   W12
 .byte   PEND 
@  #09 @017   ----------------------------------------
Label_0148A0DA:
 .byte   W12
 .byte   N92 ,An2 ,v127
 .byte   N44 ,Fs3
 .byte   N44 ,Fs4
 .byte   W12
 .byte   PEND 
 .byte   W24
@  #09 @018   ----------------------------------------
 .byte   PATT
  .word Label_0148A0CA
@  #09 @019   ----------------------------------------
Label_0148A0EA:
 .byte   W12
 .byte   N68 ,Cs3 ,v127
 .byte   N68 ,Cs4
 .byte   W12
 .byte   PEND 
 .byte   W12
 .byte   Gn2
 .byte   W12
 .byte   W24
Label_0148A0F6:
 .byte   W12
 .byte   N92 ,Dn3 ,v127
 .byte   N92 ,Dn4
 .byte   W12
 .byte   PEND 
@  #09 @020   ----------------------------------------
 .byte   W12
 .byte   N23 ,Fs2
 .byte   W12
 .byte   W12
 .byte   N92 ,En2
 .byte   W12
 .byte   W24
 .byte   W24
@  #09 @021   ----------------------------------------
 .byte   W24
Label_0148A109:
 .byte   W12
 .byte   N92 ,Fn2 ,v127
 .byte   N44 ,Bn2
 .byte   N44 ,Bn3
 .byte   W12
 .byte   PEND 
 .byte   W24
Label_0148A114:
 .byte   W12
 .byte   N11 ,Cn3 ,v127
 .byte   N11 ,Cn4
 .byte   W12
 .byte   PEND 
@  #09 @022   ----------------------------------------
Label_0148A11C:
 .byte   N11 ,Bn2 ,v127
 .byte   N11 ,Bn3
 .byte   W12
 .byte   N23 ,An2
 .byte   N23 ,An3
 .byte   W12
 .byte   PEND 
Label_0148A128:
 .byte   W12
 .byte   N92 ,Fs2 ,v127
 .byte   N44 ,An2
 .byte   N44 ,An3
 .byte   W12
 .byte   PEND 
 .byte   W24
Label_0148A133:
 .byte   W12
 .byte   N11 ,Bn2 ,v127
 .byte   N11 ,Bn3
 .byte   W12
 .byte   PEND 
@  #09 @023   ----------------------------------------
Label_0148A13B:
 .byte   N11 ,An2 ,v127
 .byte   N11 ,An3
 .byte   W12
 .byte   N23 ,En2
 .byte   N23 ,En3
 .byte   W12
 .byte   PEND 
Label_0148A147:
 .byte   W12
 .byte   N23 ,Bn1 ,v127
 .byte   N92 ,Gn2
 .byte   N23 ,Bn2
 .byte   W12
 .byte   PEND 
Label_0148A151:
 .byte   W12
 .byte   N23 ,En2 ,v127
 .byte   N23 ,En3
 .byte   W12
 .byte   PEND 
Label_0148A159:
 .byte   W12
 .byte   N23 ,Dn2 ,v127
 .byte   N23 ,Dn3
 .byte   W12
 .byte   PEND 
@  #09 @024   ----------------------------------------
 .byte   PATT
  .word Label_0148A0C2
@  #09 @025   ----------------------------------------
Label_0148A166:
 .byte   W12
 .byte   N92 ,Fs2 ,v127
 .byte   N05 ,An2
 .byte   N05 ,An3
 .byte   W06
 .byte   An2
 .byte   N05 ,An3
 .byte   W06
 .byte   PEND 
Label_0148A174:
 .byte   N05 ,Dn3 ,v127
 .byte   N05 ,Dn4
 .byte   W06
 .byte   Dn3
 .byte   N05 ,Dn4
 .byte   W06
 .byte   Bn2
 .byte   N05 ,Bn3
 .byte   W06
 .byte   Bn2
 .byte   N05 ,Bn3
 .byte   W06
 .byte   PEND 
Label_0148A187:
 .byte   N05 ,Fs3 ,v127
 .byte   N05 ,Fs4
 .byte   W06
 .byte   Fs3
 .byte   N05 ,Fs4
 .byte   W06
 .byte   Dn3
 .byte   N05 ,Dn4
 .byte   W06
 .byte   Dn3
 .byte   N05 ,Dn4
 .byte   W06
 .byte   PEND 
Label_0148A19A:
 .byte   N05 ,An3 ,v127
 .byte   N05 ,An4
 .byte   W06
 .byte   An3
 .byte   N05 ,An4
 .byte   W06
 .byte   Fs3
 .byte   N05 ,Fs4
 .byte   W06
 .byte   Fs3
 .byte   N05 ,Fs4
 .byte   W06
 .byte   PEND 
@  #09 @026   ----------------------------------------
Label_0148A1AD:
 .byte   N05 ,Dn4 ,v127
 .byte   N05 ,Dn5
 .byte   W06
 .byte   Dn4
 .byte   N05 ,Dn5
 .byte   W06
 .byte   N92 ,Fn2
 .byte   N68 ,Dn4
 .byte   N68 ,Dn5
 .byte   W12
 .byte   PEND 
 .byte   W24
 .byte   W24
Label_0148A1C1:
 .byte   W12
 .byte   N11 ,Cn4 ,v124
 .byte   N11 ,Cn5 ,v127
 .byte   W12
 .byte   PEND 
@  #09 @027   ----------------------------------------
Label_0148A1CA:
 .byte   N11 ,Bn3 ,v127
 .byte   N11 ,Bn4 ,v120
 .byte   W12
 .byte   N92 ,Fs2 ,v127
 .byte   N11 ,Cn4
 .byte   N11 ,Cn5
 .byte   W12
 .byte   PEND 
Label_0148A1DA:
 .byte   N11 ,Bn3 ,v127
 .byte   N11 ,Bn4
 .byte   W12
 .byte   N56 ,Gn3
 .byte   N56 ,Gn4 ,v124
 .byte   W12
 .byte   PEND 
 .byte   W24
 .byte   W24
@  #09 @028   ----------------------------------------
Label_0148A1E9:
 .byte   W12
 .byte   N92 ,Gn2 ,v127
 .byte   N44 ,Dn3 ,v124
 .byte   N44 ,Dn4 ,v120
 .byte   W12
 .byte   PEND 
 .byte   W24
Label_0148A1F6:
 .byte   W12
 .byte   N44 ,An3 ,v120
 .byte   N44 ,An4 ,v124
 .byte   W12
 .byte   PEND 
 .byte   W24
@  #09 @029   ----------------------------------------
Label_0148A200:
 .byte   W12
 .byte   N92 ,Fs2 ,v127
 .byte   N80 ,Gn3 ,v120
 .byte   N80 ,Gn4 ,v124
 .byte   W12
 .byte   PEND 
 .byte   W24
 .byte   W24
 .byte   W24
@  #09 @030   ----------------------------------------
Label_0148A20F:
 .byte   N05 ,Fs3 ,v096
 .byte   N05 ,Fs4 ,v092
 .byte   W12
 .byte   N44 ,Fs3 ,v120
 .byte   N44 ,Fs4 ,v124
 .byte   W12
 .byte   PEND 
 .byte   W12
Label_0148A21F:
 .byte   W12
Label_0148A220:
 .byte   W12
 .byte   N96 ,Gn3 ,v096
 .byte   N96 ,Gn4
 .byte   W12
 .byte   PEND 
 .byte   W24
@  #09 @031   ----------------------------------------
 .byte   W24
 .byte   W24
 .byte   W24
 .byte   W24
@  #09 @032   ----------------------------------------
 .byte   W24
 .byte   W24
 .byte   W24
 .byte   W24
@  #09 @033   ----------------------------------------
 .byte   W24
 .byte   W24
 .byte   W24
 .byte   W24
@  #09 @034   ----------------------------------------
 .byte   W24
 .byte   W24
 .byte   W24
 .byte   W24
@  #09 @035   ----------------------------------------
 .byte   W24
 .byte   W24
 .byte   W24
 .byte   W24
@  #09 @036   ----------------------------------------
 .byte   W24
 .byte   W24
 .byte   W24
 .byte   W24
@  #09 @037   ----------------------------------------
 .byte   W24
 .byte   W24
 .byte   W24
 .byte   W24
@  #09 @038   ----------------------------------------
 .byte   W24
 .byte   W24
 .byte   W24
 .byte   W24
@  #09 @039   ----------------------------------------
 .byte   W24
 .byte   W24
 .byte   W24
 .byte   W24
@  #09 @040   ----------------------------------------
 .byte   W24
 .byte   W24
 .byte   W24
 .byte   W24
@  #09 @041   ----------------------------------------
 .byte   W24
 .byte   W24
 .byte   W24
 .byte   W24
@  #09 @042   ----------------------------------------
 .byte   W24
 .byte   W24
 .byte   W24
 .byte   W24
@  #09 @043   ----------------------------------------
 .byte   W24
 .byte   W24
 .byte   W24
 .byte   W24
@  #09 @044   ----------------------------------------
 .byte   W24
 .byte   W24
 .byte   W24
 .byte   W24
@  #09 @045   ----------------------------------------
 .byte   W24
 .byte   W24
 .byte   W24
 .byte   W24
@  #09 @046   ----------------------------------------
 .byte   W24
 .byte   W24
 .byte   W24
 .byte   W24
@  #09 @047   ----------------------------------------
 .byte   W24
 .byte   W24
 .byte   W24
 .byte   W24
@  #09 @048   ----------------------------------------
 .byte   W24
 .byte   W24
 .byte   W24
 .byte   W24
@  #09 @049   ----------------------------------------
 .byte   W24
 .byte   W24
 .byte   W24
 .byte   W24
@  #09 @050   ----------------------------------------
 .byte   W24
 .byte   W24
 .byte   W24
 .byte   W24
@  #09 @051   ----------------------------------------
 .byte   W24
 .byte   W24
 .byte   W24
 .byte   W24
@  #09 @052   ----------------------------------------
 .byte   W24
 .byte   W24
 .byte   W24
 .byte   W24
@  #09 @053   ----------------------------------------
 .byte   W24
 .byte   W24
 .byte   W24
 .byte   W24
@  #09 @054   ----------------------------------------
 .byte   W24
 .byte   W24
 .byte   W24
 .byte   W24
@  #09 @055   ----------------------------------------
 .byte   W24
 .byte   W24
 .byte   W24
 .byte   W24
@  #09 @056   ----------------------------------------
 .byte   W24
 .byte   W24
 .byte   W24
 .byte   W24
@  #09 @057   ----------------------------------------
 .byte   W24
 .byte   W24
 .byte   W24
 .byte   W24
@  #09 @058   ----------------------------------------
 .byte   W24
 .byte   W24
 .byte   W24
 .byte   W24
@  #09 @059   ----------------------------------------
 .byte   W24
 .byte   W24
 .byte   W24
 .byte   W24
@  #09 @060   ----------------------------------------
 .byte   W24
 .byte   W24
 .byte   W24
 .byte   W24
@  #09 @061   ----------------------------------------
 .byte   W24
 .byte   W24
 .byte   W24
 .byte   W24
@  #09 @062   ----------------------------------------
 .byte   W24
 .byte   W24
 .byte   W24
 .byte   W24
@  #09 @063   ----------------------------------------
 .byte   W12
 .byte   PAN , c_v-6
 .byte   W12
 .byte   W24
 .byte   W24
 .byte   W24
@  #09 @064   ----------------------------------------
 .byte   PATT
  .word Label_0148A0BA
@  #09 @065   ----------------------------------------
 .byte   PATT
  .word Label_0148A0C2
@  #09 @066   ----------------------------------------
 .byte   PATT
  .word Label_0148A0CA
@  #09 @067   ----------------------------------------
 .byte   PATT
  .word Label_0148A0D2
@  #09 @068   ----------------------------------------
 .byte   PATT
  .word Label_0148A0DA
@  #09 @069   ----------------------------------------
 .byte   W24
@  #09 @070   ----------------------------------------
 .byte   PATT
  .word Label_0148A0CA
@  #09 @071   ----------------------------------------
 .byte   PATT
  .word Label_0148A0EA
@  #09 @072   ----------------------------------------
 .byte   W12
 .byte   N68 ,Gn2 ,v127
 .byte   W12
 .byte   W24
@  #09 @073   ----------------------------------------
 .byte   PATT
  .word Label_0148A0F6
@  #09 @074   ----------------------------------------
 .byte   W12
 .byte   N23 ,Fs2 ,v127
 .byte   W12
 .byte   W12
 .byte   N92 ,En2
 .byte   W12
 .byte   W24
 .byte   W24
@  #09 @075   ----------------------------------------
 .byte   W24
@  #09 @076   ----------------------------------------
 .byte   PATT
  .word Label_0148A109
@  #09 @077   ----------------------------------------
 .byte   W24
@  #09 @078   ----------------------------------------
 .byte   PATT
  .word Label_0148A114
@  #09 @079   ----------------------------------------
 .byte   PATT
  .word Label_0148A11C
@  #09 @080   ----------------------------------------
 .byte   PATT
  .word Label_0148A128
@  #09 @081   ----------------------------------------
 .byte   W24
@  #09 @082   ----------------------------------------
 .byte   PATT
  .word Label_0148A133
@  #09 @083   ----------------------------------------
 .byte   PATT
  .word Label_0148A13B
@  #09 @084   ----------------------------------------
 .byte   PATT
  .word Label_0148A147
@  #09 @085   ----------------------------------------
 .byte   PATT
  .word Label_0148A151
@  #09 @086   ----------------------------------------
 .byte   PATT
  .word Label_0148A159
@  #09 @087   ----------------------------------------
 .byte   PATT
  .word Label_0148A0C2
@  #09 @088   ----------------------------------------
 .byte   PATT
  .word Label_0148A166
@  #09 @089   ----------------------------------------
 .byte   PATT
  .word Label_0148A174
@  #09 @090   ----------------------------------------
 .byte   PATT
  .word Label_0148A187
@  #09 @091   ----------------------------------------
 .byte   PATT
  .word Label_0148A19A
@  #09 @092   ----------------------------------------
 .byte   PATT
  .word Label_0148A1AD
@  #09 @093   ----------------------------------------
 .byte   W24
 .byte   W24
@  #09 @094   ----------------------------------------
 .byte   PATT
  .word Label_0148A1C1
@  #09 @095   ----------------------------------------
 .byte   PATT
  .word Label_0148A1CA
@  #09 @096   ----------------------------------------
 .byte   PATT
  .word Label_0148A1DA
@  #09 @097   ----------------------------------------
 .byte   W24
 .byte   W24
@  #09 @098   ----------------------------------------
 .byte   PATT
  .word Label_0148A1E9
@  #09 @099   ----------------------------------------
 .byte   W24
@  #09 @100   ----------------------------------------
 .byte   PATT
  .word Label_0148A1F6
@  #09 @101   ----------------------------------------
 .byte   W24
@  #09 @102   ----------------------------------------
 .byte   PATT
  .word Label_0148A200
@  #09 @103   ----------------------------------------
 .byte   W24
 .byte   W24
 .byte   W24
@  #09 @104   ----------------------------------------
 .byte   PATT
  .word Label_0148A20F
@  #09 @105   ----------------------------------------
 .byte   W12
 .byte   GOTO
  .word Label_0148A21F
@  #09 @106   ----------------------------------------
 .byte   W12
@  #09 @107   ----------------------------------------
 .byte   PATT
  .word Label_0148A220
@  #09 @108   ----------------------------------------
 .byte   W24
 .byte   W24
 .byte   W24
 .byte   W24
@  #09 @109   ----------------------------------------
 .byte   W24
 .byte   W24
 .byte   W24
 .byte   W24
@  #09 @110   ----------------------------------------
 .byte   W24
 .byte   W24
 .byte   W24
 .byte   W24
@  #09 @111   ----------------------------------------
 .byte   W24
 .byte   W24
 .byte   W24
 .byte   W24
@  #09 @112   ----------------------------------------
 .byte   W24
 .byte   W24
 .byte   W24
 .byte   W24
@  #09 @113   ----------------------------------------
 .byte   W24
 .byte   W24
 .byte   W24
 .byte   W24
@  #09 @114   ----------------------------------------
 .byte   W24
 .byte   W24
 .byte   W24
 .byte   W24
@  #09 @115   ----------------------------------------
 .byte   W24
 .byte   W24
 .byte   W24
 .byte   W24
@  #09 @116   ----------------------------------------
 .byte   W24
 .byte   W24
 .byte   W24
 .byte   W24
@  #09 @117   ----------------------------------------
 .byte   W24
 .byte   W24
 .byte   W24
 .byte   W24
@  #09 @118   ----------------------------------------
 .byte   W24
 .byte   W24
 .byte   W24
 .byte   W24
@  #09 @119   ----------------------------------------
 .byte   W24
 .byte   W24
 .byte   W24
 .byte   W24
@  #09 @120   ----------------------------------------
 .byte   W24
 .byte   W24
 .byte   W24
 .byte   W24
@  #09 @121   ----------------------------------------
 .byte   W24
 .byte   W24
 .byte   W24
 .byte   W24
@  #09 @122   ----------------------------------------
 .byte   W24
 .byte   W24
 .byte   W24
 .byte   W24
@  #09 @123   ----------------------------------------
 .byte   W24
 .byte   W24
 .byte   W24
 .byte   W24
@  #09 @124   ----------------------------------------
 .byte   W24
 .byte   W24
 .byte   W24
 .byte   W24
@  #09 @125   ----------------------------------------
 .byte   W24
 .byte   W12
 .byte   FINE

@**************** Track 10 (Midi-Chn.9) ****************@

song04_010:
@  #10 @000   ----------------------------------------
 .byte   KEYSH , song04_key+0
 .byte   VOICE , 13
 .byte   VOL , 19*song04_mvl/mxv
 .byte   W24
 .byte   W24
 .byte   W24
 .byte   W24
@  #10 @001   ----------------------------------------
 .byte   W24
 .byte   W24
 .byte   W24
 .byte   W24
@  #10 @002   ----------------------------------------
 .byte   W24
 .byte   W24
 .byte   W24
 .byte   W24
@  #10 @003   ----------------------------------------
 .byte   W24
 .byte   W24
 .byte   W24
 .byte   W24
@  #10 @004   ----------------------------------------
 .byte   W24
 .byte   W24
 .byte   W24
 .byte   W24
@  #10 @005   ----------------------------------------
 .byte   W24
 .byte   W24
 .byte   W24
 .byte   W24
@  #10 @006   ----------------------------------------
 .byte   W24
 .byte   W24
 .byte   W24
 .byte   W24
@  #10 @007   ----------------------------------------
 .byte   W24
 .byte   W24
 .byte   W24
 .byte   W24
@  #10 @008   ----------------------------------------
 .byte   W24
 .byte   W24
 .byte   W24
 .byte   W24
@  #10 @009   ----------------------------------------
 .byte   W24
 .byte   W24
 .byte   W24
 .byte   W24
@  #10 @010   ----------------------------------------
 .byte   W24
 .byte   W24
 .byte   W24
 .byte   W24
@  #10 @011   ----------------------------------------
 .byte   W24
 .byte   W24
 .byte   W24
 .byte   W24
@  #10 @012   ----------------------------------------
 .byte   W24
 .byte   W24
 .byte   W24
 .byte   W24
@  #10 @013   ----------------------------------------
 .byte   W24
 .byte   W24
 .byte   W24
 .byte   W24
@  #10 @014   ----------------------------------------
 .byte   W24
 .byte   W24
 .byte   W24
 .byte   W24
@  #10 @015   ----------------------------------------
 .byte   W24
 .byte   W24
 .byte   W24
 .byte   W24
@  #10 @016   ----------------------------------------
 .byte   W12
 .byte   N06 ,Gn3 ,v127
 .byte   W12
 .byte   W12
 .byte   Bn3
 .byte   W12
 .byte   W12
 .byte   Fs4
 .byte   W12
 .byte   W12
 .byte   Gn4
 .byte   W12
@  #10 @017   ----------------------------------------
 .byte   W12
 .byte   Cs4
 .byte   W12
 .byte   W12
 .byte   En4
 .byte   W12
 .byte   W12
 .byte   Fs4
 .byte   W12
 .byte   W12
 .byte   An4
 .byte   W12
@  #10 @018   ----------------------------------------
 .byte   W12
 .byte   Dn4
 .byte   W12
 .byte   W12
 .byte   Gn4
 .byte   W12
 .byte   W12
 .byte   Bn4
 .byte   W12
 .byte   W12
 .byte   Dn5
 .byte   W12
@  #10 @019   ----------------------------------------
 .byte   W12
 .byte   Bn4
 .byte   W12
 .byte   W12
 .byte   Gn4
 .byte   W12
 .byte   W12
 .byte   En4
 .byte   W12
 .byte   W12
 .byte   Bn3
 .byte   W12
@  #10 @020   ----------------------------------------
 .byte   W12
 .byte   Cn5
 .byte   W12
 .byte   W12
 .byte   Bn4
 .byte   W12
 .byte   W12
 .byte   Fn4
 .byte   W12
 .byte   W12
 .byte   Cn4
 .byte   W12
@  #10 @021   ----------------------------------------
 .byte   W12
 .byte   Cn5
 .byte   W12
 .byte   W12
 .byte   Bn4
 .byte   W12
 .byte   W12
 .byte   Fs4
 .byte   W12
 .byte   W12
 .byte   Cn4
 .byte   W12
@  #10 @022   ----------------------------------------
 .byte   W12
 .byte   Cn5
 .byte   W12
 .byte   W12
 .byte   Bn4
 .byte   W12
 .byte   W12
 .byte   Gn4
 .byte   W12
 .byte   W12
 .byte   Dn4
 .byte   W12
@  #10 @023   ----------------------------------------
 .byte   W12
 .byte   Cn5
 .byte   W12
 .byte   W12
 .byte   Bn4
 .byte   W12
 .byte   W12
 .byte   Fs4
 .byte   W12
 .byte   W12
 .byte   Dn4
 .byte   W12
@  #10 @024   ----------------------------------------
 .byte   W12
 .byte   Cn5
 .byte   W12
 .byte   W12
 .byte   Bn4
 .byte   W12
 .byte   W12
 .byte   An4
 .byte   W12
 .byte   W12
 .byte   En4
 .byte   W12
@  #10 @025   ----------------------------------------
 .byte   W12
 .byte   Cn5
 .byte   W12
 .byte   W12
 .byte   Bn4
 .byte   W12
 .byte   W12
 .byte   An4
 .byte   W12
 .byte   W12
 .byte   Fs4
 .byte   W12
@  #10 @026   ----------------------------------------
 .byte   W12
 .byte   Cn5
 .byte   W12
 .byte   W12
 .byte   Bn4
 .byte   W12
 .byte   W12
 .byte   An4
 .byte   W12
 .byte   W12
 .byte   Gn4
 .byte   W12
@  #10 @027   ----------------------------------------
 .byte   W12
 .byte   Cn5
 .byte   W12
 .byte   W12
 .byte   Bn4
 .byte   W12
 .byte   W12
 .byte   An4
 .byte   W12
 .byte   W12
 .byte   Fs4
 .byte   W12
@  #10 @028   ----------------------------------------
 .byte   W24
 .byte   W12
Label_014871EA:
 .byte   W12
 .byte   W24
 .byte   W24
@  #10 @029   ----------------------------------------
 .byte   W24
 .byte   W24
 .byte   W24
 .byte   W24
@  #10 @030   ----------------------------------------
 .byte   W24
 .byte   W24
 .byte   W24
 .byte   W24
@  #10 @031   ----------------------------------------
 .byte   W24
 .byte   W24
 .byte   W24
 .byte   W24
@  #10 @032   ----------------------------------------
 .byte   W24
 .byte   W24
 .byte   W24
 .byte   W24
@  #10 @033   ----------------------------------------
 .byte   W24
 .byte   W24
 .byte   W24
 .byte   W24
@  #10 @034   ----------------------------------------
 .byte   W24
 .byte   W24
 .byte   W24
 .byte   W24
@  #10 @035   ----------------------------------------
 .byte   W24
 .byte   W24
 .byte   W24
 .byte   W24
@  #10 @036   ----------------------------------------
 .byte   W24
 .byte   W24
 .byte   W24
 .byte   W24
@  #10 @037   ----------------------------------------
 .byte   W24
 .byte   W24
 .byte   W24
 .byte   W24
@  #10 @038   ----------------------------------------
 .byte   W24
 .byte   W24
 .byte   W24
 .byte   W24
@  #10 @039   ----------------------------------------
 .byte   W24
 .byte   W24
 .byte   W24
 .byte   W24
@  #10 @040   ----------------------------------------
 .byte   W24
 .byte   W24
 .byte   W24
 .byte   W24
@  #10 @041   ----------------------------------------
 .byte   W24
 .byte   W24
 .byte   W24
 .byte   W24
@  #10 @042   ----------------------------------------
 .byte   W24
 .byte   W24
 .byte   W24
 .byte   W24
@  #10 @043   ----------------------------------------
 .byte   W24
 .byte   W24
 .byte   W24
 .byte   W24
@  #10 @044   ----------------------------------------
 .byte   W24
 .byte   W24
 .byte   W24
 .byte   W24
@  #10 @045   ----------------------------------------
 .byte   W24
 .byte   W24
 .byte   W24
 .byte   W24
@  #10 @046   ----------------------------------------
 .byte   W24
 .byte   W24
 .byte   W24
 .byte   W24
@  #10 @047   ----------------------------------------
 .byte   W24
 .byte   W24
 .byte   W24
 .byte   W24
@  #10 @048   ----------------------------------------
 .byte   W24
 .byte   W24
 .byte   W24
 .byte   W24
@  #10 @049   ----------------------------------------
 .byte   W24
 .byte   W24
 .byte   W24
 .byte   W24
@  #10 @050   ----------------------------------------
 .byte   W24
 .byte   W24
 .byte   W24
 .byte   W24
@  #10 @051   ----------------------------------------
 .byte   W24
 .byte   W24
 .byte   W24
 .byte   W24
@  #10 @052   ----------------------------------------
 .byte   W24
 .byte   W24
 .byte   W24
 .byte   W24
@  #10 @053   ----------------------------------------
 .byte   W24
 .byte   W24
 .byte   W24
 .byte   W24
@  #10 @054   ----------------------------------------
 .byte   W24
 .byte   W24
 .byte   W24
 .byte   W24
@  #10 @055   ----------------------------------------
 .byte   W24
 .byte   W24
 .byte   W24
 .byte   W24
@  #10 @056   ----------------------------------------
 .byte   W24
 .byte   W24
 .byte   W24
 .byte   W24
@  #10 @057   ----------------------------------------
 .byte   W24
 .byte   W24
 .byte   W24
 .byte   W24
@  #10 @058   ----------------------------------------
 .byte   W24
 .byte   W24
 .byte   W24
 .byte   W24
@  #10 @059   ----------------------------------------
 .byte   W24
 .byte   W24
 .byte   W24
 .byte   W24
@  #10 @060   ----------------------------------------
 .byte   W24
 .byte   W24
 .byte   W24
 .byte   W24
@  #10 @061   ----------------------------------------
 .byte   W24
 .byte   W24
 .byte   W24
 .byte   W24
@  #10 @062   ----------------------------------------
 .byte   W12
 .byte   N06 ,Gn3 ,v127
 .byte   W12
 .byte   W12
 .byte   Bn3
 .byte   W12
 .byte   W12
 .byte   Fs4
 .byte   W12
 .byte   W12
 .byte   Gn4
 .byte   W12
@  #10 @063   ----------------------------------------
 .byte   W12
 .byte   Cs4
 .byte   W12
 .byte   W12
 .byte   En4
 .byte   W12
 .byte   W12
 .byte   Fs4
 .byte   W12
 .byte   W12
 .byte   An4
 .byte   W12
@  #10 @064   ----------------------------------------
 .byte   W12
 .byte   Dn4
 .byte   W12
 .byte   W12
 .byte   Gn4
 .byte   W12
 .byte   W12
 .byte   Bn4
 .byte   W12
 .byte   W12
 .byte   Dn5
 .byte   W12
@  #10 @065   ----------------------------------------
 .byte   W12
 .byte   Bn4
 .byte   W12
 .byte   W12
 .byte   Gn4
 .byte   W12
 .byte   W12
 .byte   En4
 .byte   W12
 .byte   W12
 .byte   Bn3
 .byte   W12
@  #10 @066   ----------------------------------------
 .byte   W12
 .byte   Cn5
 .byte   W12
 .byte   W12
 .byte   Bn4
 .byte   W12
 .byte   W12
 .byte   Fn4
 .byte   W12
 .byte   W12
 .byte   Cn4
 .byte   W12
@  #10 @067   ----------------------------------------
 .byte   W12
 .byte   Cn5
 .byte   W12
 .byte   W12
 .byte   Bn4
 .byte   W12
 .byte   W12
 .byte   Fs4
 .byte   W12
 .byte   W12
 .byte   Cn4
 .byte   W12
@  #10 @068   ----------------------------------------
 .byte   W12
 .byte   Cn5
 .byte   W12
 .byte   W12
 .byte   Bn4
 .byte   W12
 .byte   W12
 .byte   Gn4
 .byte   W12
 .byte   W12
 .byte   Dn4
 .byte   W12
@  #10 @069   ----------------------------------------
 .byte   W12
 .byte   Cn5
 .byte   W12
 .byte   W12
 .byte   Bn4
 .byte   W12
 .byte   W12
 .byte   Fs4
 .byte   W12
 .byte   W12
 .byte   Dn4
 .byte   W12
@  #10 @070   ----------------------------------------
 .byte   W12
 .byte   Cn5
 .byte   W12
 .byte   W12
 .byte   Bn4
 .byte   W12
 .byte   W12
 .byte   An4
 .byte   W12
 .byte   W12
 .byte   En4
 .byte   W12
@  #10 @071   ----------------------------------------
 .byte   W12
 .byte   Cn5
 .byte   W12
 .byte   W12
 .byte   Bn4
 .byte   W12
 .byte   W12
 .byte   An4
 .byte   W12
 .byte   W12
 .byte   Fs4
 .byte   W12
@  #10 @072   ----------------------------------------
 .byte   W12
 .byte   Cn5
 .byte   W12
 .byte   W12
 .byte   Bn4
 .byte   W12
 .byte   W12
 .byte   An4
 .byte   W12
 .byte   W12
 .byte   Gn4
 .byte   W12
@  #10 @073   ----------------------------------------
 .byte   W12
 .byte   Cn5
 .byte   W12
 .byte   W12
 .byte   Bn4
 .byte   W12
 .byte   W12
 .byte   An4
 .byte   W12
 .byte   W12
 .byte   Fs4
 .byte   W12
@  #10 @074   ----------------------------------------
 .byte   W24
 .byte   W12
 .byte   GOTO
  .word Label_014871EA
@  #10 @075   ----------------------------------------
 .byte   W12
 .byte   W24
 .byte   W24
 .byte   W24
 .byte   W24
@  #10 @076   ----------------------------------------
 .byte   W24
 .byte   W24
 .byte   W24
 .byte   W24
@  #10 @077   ----------------------------------------
 .byte   W24
 .byte   W24
 .byte   W24
 .byte   W24
@  #10 @078   ----------------------------------------
 .byte   W24
 .byte   W24
 .byte   W24
 .byte   W24
@  #10 @079   ----------------------------------------
 .byte   W24
 .byte   W24
 .byte   W24
 .byte   W24
@  #10 @080   ----------------------------------------
 .byte   W24
 .byte   W24
 .byte   W24
 .byte   W24
@  #10 @081   ----------------------------------------
 .byte   W24
 .byte   W24
 .byte   W24
 .byte   W24
@  #10 @082   ----------------------------------------
 .byte   W24
 .byte   W24
 .byte   W24
 .byte   W24
@  #10 @083   ----------------------------------------
 .byte   W24
 .byte   W24
 .byte   W24
 .byte   W24
@  #10 @084   ----------------------------------------
 .byte   W24
 .byte   W24
 .byte   W24
 .byte   W24
@  #10 @085   ----------------------------------------
 .byte   W24
 .byte   W24
 .byte   W24
 .byte   W24
@  #10 @086   ----------------------------------------
 .byte   W24
 .byte   W24
 .byte   W24
 .byte   W24
@  #10 @087   ----------------------------------------
 .byte   W24
 .byte   W24
 .byte   W24
 .byte   W24
@  #10 @088   ----------------------------------------
 .byte   W24
 .byte   W24
 .byte   W24
 .byte   W24
@  #10 @089   ----------------------------------------
 .byte   W24
 .byte   W24
 .byte   W24
 .byte   W24
@  #10 @090   ----------------------------------------
 .byte   W24
 .byte   W24
 .byte   W24
 .byte   W24
@  #10 @091   ----------------------------------------
 .byte   W24
 .byte   W24
 .byte   W24
 .byte   W24
@  #10 @092   ----------------------------------------
 .byte   W24
 .byte   W24
 .byte   W12
 .byte   FINE

@**************** Track 11 (Midi-Chn.10) ****************@

song04_011:
@  #11 @000   ----------------------------------------
 .byte   KEYSH , song04_key+0
 .byte   VOICE , 124
 .byte   VOL , 49*song04_mvl/mxv
 .byte   W24
 .byte   W12
 .byte   N06 ,Bn4 ,v096
 .byte   W12
 .byte   W24
 .byte   W12
 .byte   Bn4 ,v044
 .byte   W12
@  #11 @001   ----------------------------------------
 .byte   W24
 .byte   W12
 .byte   Bn4 ,v064
 .byte   W12
 .byte   W24
 .byte   W12
 .byte   Bn4 ,v044
 .byte   W12
@  #11 @002   ----------------------------------------
 .byte   W24
 .byte   W12
 .byte   Bn4 ,v096
 .byte   W12
 .byte   W24
 .byte   W12
 .byte   Bn4 ,v044
 .byte   W12
@  #11 @003   ----------------------------------------
 .byte   W24
 .byte   W12
 .byte   Bn4 ,v064
 .byte   W12
 .byte   W24
 .byte   W12
 .byte   Bn4 ,v044
 .byte   W12
@  #11 @004   ----------------------------------------
 .byte   W12
 .byte   En1 ,v064
 .byte   W12
Label_0148A3FB:
 .byte   N06 ,Fs1 ,v064
 .byte   W12
 .byte   Cn1
 .byte   N06 ,Dn1
 .byte   N06 ,Bn4 ,v100
 .byte   W12
 .byte   PEND 
Label_0148A407:
 .byte   N06 ,Fs1 ,v064
 .byte   W06
 .byte   Cn1
 .byte   N06 ,Dn1
 .byte   W12
 .byte   Cn1
 .byte   N06 ,Dn1
 .byte   W06
 .byte   PEND 
Label_0148A414:
 .byte   N06 ,Fs1 ,v064
 .byte   W12
 .byte   Cn1
 .byte   N06 ,Dn1
 .byte   N06 ,Bn4 ,v044
 .byte   W12
 .byte   PEND 
@  #11 @005   ----------------------------------------
Label_0148A420:
 .byte   N06 ,Fs1 ,v064
 .byte   W12
 .byte   En1
 .byte   W12
 .byte   PEND 
Label_0148A427:
 .byte   N06 ,Fs1 ,v064
 .byte   W12
 .byte   Cn1
 .byte   N06 ,Dn1
 .byte   N06 ,Bn4
 .byte   W12
 .byte   PEND 
@  #11 @006   ----------------------------------------
 .byte   PATT
  .word Label_0148A407
@  #11 @007   ----------------------------------------
 .byte   PATT
  .word Label_0148A414
@  #11 @008   ----------------------------------------
 .byte   PATT
  .word Label_0148A420
@  #11 @009   ----------------------------------------
 .byte   PATT
  .word Label_0148A3FB
@  #11 @010   ----------------------------------------
 .byte   PATT
  .word Label_0148A407
@  #11 @011   ----------------------------------------
 .byte   PATT
  .word Label_0148A414
@  #11 @012   ----------------------------------------
Label_0148A450:
 .byte   N06 ,Fs1 ,v064
 .byte   W12
 .byte   En1
 .byte   W06
 .byte   N03 ,En1 ,v020
 .byte   W03
 .byte   N03
 .byte   W03
 .byte   PEND 
Label_0148A45D:
 .byte   N03 ,En1 ,v024
 .byte   N06 ,Fs1 ,v064
 .byte   W03
 .byte   N03 ,En1 ,v024
 .byte   W03
 .byte   N03
 .byte   W03
 .byte   N03
 .byte   W03
 .byte   N06 ,Cn1 ,v064
 .byte   N06 ,Dn1
 .byte   N03 ,En1 ,v032
 .byte   N06 ,Bn4 ,v064
 .byte   W03
 .byte   N03 ,En1 ,v032
 .byte   W03
 .byte   N03
 .byte   W03
 .byte   N03
 .byte   W03
 .byte   PEND 
Label_0148A481:
 .byte   N03 ,En1 ,v040
 .byte   N06 ,Fs1 ,v064
 .byte   W03
 .byte   N03 ,En1 ,v040
 .byte   W03
 .byte   N06 ,Cn1 ,v064
 .byte   N06 ,Dn1
 .byte   N03 ,En1 ,v040
 .byte   W03
 .byte   N03
 .byte   W03
 .byte   En1 ,v044
 .byte   W03
 .byte   N03
 .byte   W03
 .byte   N06 ,Cn1 ,v064
 .byte   N06 ,Dn1
 .byte   N03 ,En1 ,v044
 .byte   W03
 .byte   N03
 .byte   W03
 .byte   PEND 
Label_0148A4A8:
 .byte   N03 ,En1 ,v052
 .byte   N06 ,Fs1 ,v064
 .byte   W03
 .byte   N03 ,En1 ,v052
 .byte   W03
 .byte   N03
 .byte   W03
 .byte   N03
 .byte   W03
 .byte   N06 ,Cn1 ,v064
 .byte   N06 ,Dn1
 .byte   N03 ,En1 ,v060
 .byte   N06 ,Bn4 ,v044
 .byte   W03
 .byte   N03 ,En1 ,v060
 .byte   W03
 .byte   N03
 .byte   W03
 .byte   N03
 .byte   W03
 .byte   PEND 
@  #11 @013   ----------------------------------------
Label_0148A4CC:
 .byte   N03 ,En1 ,v064
 .byte   N06 ,Fs1
 .byte   W03
 .byte   N03 ,En1
 .byte   W03
 .byte   N03
 .byte   W03
 .byte   N03
 .byte   W03
 .byte   N06 ,Cn1
 .byte   N03 ,An2 ,v127
 .byte   N06 ,Fn4
 .byte   W12
 .byte   PEND 
Label_0148A4E2:
 .byte   N06 ,Dn1 ,v064
 .byte   N06 ,Fs1
 .byte   W12
 .byte   Dn1
 .byte   N06 ,Bn4 ,v096
 .byte   W12
 .byte   PEND 
 .byte   Dn1 ,v064
 .byte   N06 ,Fs1
 .byte   W24
Label_0148A4F3:
 .byte   N06 ,Dn1 ,v064
 .byte   N06 ,Fs1
 .byte   W12
 .byte   Dn1
 .byte   N06 ,Bn4
 .byte   W12
 .byte   PEND 
@  #11 @014   ----------------------------------------
Label_0148A4FE:
 .byte   N06 ,Dn1 ,v064
 .byte   N03 ,Fs1
 .byte   W03
 .byte   N03
 .byte   W03
 .byte   N03
 .byte   W06
 .byte   N06 ,Cn1
 .byte   W12
 .byte   PEND 
@  #11 @015   ----------------------------------------
 .byte   PATT
  .word Label_0148A4E2
@  #11 @016   ----------------------------------------
 .byte   N06 ,Dn1 ,v064
 .byte   N06 ,Fs1
 .byte   W24
@  #11 @017   ----------------------------------------
 .byte   PATT
  .word Label_0148A4F3
@  #11 @018   ----------------------------------------
Label_0148A51C:
 .byte   N06 ,Dn1 ,v064
 .byte   N06 ,Fs1
 .byte   W12
 .byte   Cn1
 .byte   W12
 .byte   PEND 
@  #11 @019   ----------------------------------------
 .byte   PATT
  .word Label_0148A4E2
@  #11 @020   ----------------------------------------
 .byte   N06 ,Dn1 ,v064
 .byte   N06 ,Fs1
 .byte   W24
@  #11 @021   ----------------------------------------
 .byte   PATT
  .word Label_0148A4F3
@  #11 @022   ----------------------------------------
 .byte   PATT
  .word Label_0148A4FE
@  #11 @023   ----------------------------------------
 .byte   PATT
  .word Label_0148A4E2
@  #11 @024   ----------------------------------------
 .byte   N06 ,Dn1 ,v064
 .byte   N06 ,Fs1
 .byte   W24
@  #11 @025   ----------------------------------------
 .byte   PATT
  .word Label_0148A4F3
@  #11 @026   ----------------------------------------
Label_0148A54A:
 .byte   N06 ,Dn1 ,v064
 .byte   N06 ,Fs1
 .byte   W12
 .byte   Cn1
 .byte   N06 ,Fn4 ,v127
 .byte   W12
 .byte   PEND 
@  #11 @027   ----------------------------------------
 .byte   PATT
  .word Label_0148A4E2
@  #11 @028   ----------------------------------------
 .byte   N06 ,Dn1 ,v064
 .byte   N06 ,Fs1
 .byte   W24
@  #11 @029   ----------------------------------------
 .byte   PATT
  .word Label_0148A4F3
@  #11 @030   ----------------------------------------
 .byte   PATT
  .word Label_0148A4FE
@  #11 @031   ----------------------------------------
 .byte   PATT
  .word Label_0148A4E2
@  #11 @032   ----------------------------------------
 .byte   N06 ,Dn1 ,v064
 .byte   N06 ,Fs1
 .byte   W24
@  #11 @033   ----------------------------------------
 .byte   PATT
  .word Label_0148A4F3
@  #11 @034   ----------------------------------------
 .byte   PATT
  .word Label_0148A51C
@  #11 @035   ----------------------------------------
 .byte   PATT
  .word Label_0148A4E2
@  #11 @036   ----------------------------------------
 .byte   N06 ,Dn1 ,v064
 .byte   N06 ,Fs1
 .byte   W24
@  #11 @037   ----------------------------------------
 .byte   PATT
  .word Label_0148A4F3
@  #11 @038   ----------------------------------------
Label_0148A590:
 .byte   N06 ,Dn1 ,v064
 .byte   N03 ,Fs1
 .byte   W03
 .byte   N03
 .byte   W03
 .byte   N03
 .byte   W06
 .byte   N06 ,Cn1
 .byte   N03 ,En1 ,v020
 .byte   W03
 .byte   N03
 .byte   W03
 .byte   N03
 .byte   W03
 .byte   N03
 .byte   W03
 .byte   PEND 
Label_0148A5A7:
 .byte   N06 ,Dn1 ,v064
 .byte   N03 ,En1 ,v028
 .byte   N06 ,Fs1 ,v064
 .byte   W03
 .byte   N03 ,En1 ,v028
 .byte   W03
 .byte   N03
 .byte   W03
 .byte   N03
 .byte   W03
 .byte   N06 ,Dn1 ,v064
 .byte   N03 ,En1 ,v032
 .byte   N06 ,Bn4 ,v096
 .byte   W03
 .byte   N03 ,En1 ,v032
 .byte   W03
 .byte   N03
 .byte   W03
 .byte   N03
 .byte   W03
 .byte   PEND 
Label_0148A5CC:
 .byte   N06 ,Dn1 ,v064
 .byte   N03 ,En1 ,v040
 .byte   N06 ,Fs1 ,v064
 .byte   W03
 .byte   N03 ,En1 ,v040
 .byte   W03
 .byte   N03
 .byte   W03
 .byte   N03
 .byte   W03
 .byte   En1 ,v044
 .byte   W03
 .byte   N03
 .byte   W03
 .byte   N03
 .byte   W03
 .byte   N03
 .byte   W03
 .byte   PEND 
Label_0148A5E8:
 .byte   N06 ,Dn1 ,v064
 .byte   N03 ,En1 ,v052
 .byte   N06 ,Fs1 ,v064
 .byte   W03
 .byte   N03 ,En1 ,v052
 .byte   W03
 .byte   N03
 .byte   W03
 .byte   N03
 .byte   W03
 .byte   N06 ,Dn1 ,v064
 .byte   N03 ,En1 ,v060
 .byte   N06 ,Bn4 ,v064
 .byte   W03
 .byte   N03 ,En1 ,v060
 .byte   W03
 .byte   N03
 .byte   W03
 .byte   N03
 .byte   W03
 .byte   PEND 
@  #11 @039   ----------------------------------------
Label_0148A60D:
 .byte   N06 ,Dn1 ,v064
 .byte   N03 ,En1
 .byte   N06 ,Fs1
 .byte   W03
 .byte   N03 ,En1
 .byte   W03
 .byte   N03
 .byte   W03
 .byte   N03
 .byte   W03
 .byte   N06 ,Cn1
 .byte   N06 ,An2 ,v127
 .byte   W12
 .byte   PEND 
@  #11 @040   ----------------------------------------
 .byte   PATT
  .word Label_0148A4E2
@  #11 @041   ----------------------------------------
 .byte   N06 ,Dn1 ,v064
 .byte   N06 ,Fs1
 .byte   W24
@  #11 @042   ----------------------------------------
 .byte   PATT
  .word Label_0148A4F3
@  #11 @043   ----------------------------------------
 .byte   PATT
  .word Label_0148A51C
@  #11 @044   ----------------------------------------
 .byte   PATT
  .word Label_0148A4E2
@  #11 @045   ----------------------------------------
 .byte   N06 ,Dn1 ,v064
 .byte   N06 ,Fs1
 .byte   W24
@  #11 @046   ----------------------------------------
 .byte   PATT
  .word Label_0148A4F3
@  #11 @047   ----------------------------------------
 .byte   PATT
  .word Label_0148A51C
@  #11 @048   ----------------------------------------
 .byte   PATT
  .word Label_0148A4E2
@  #11 @049   ----------------------------------------
 .byte   N06 ,Dn1 ,v064
 .byte   N06 ,Fs1
 .byte   W24
@  #11 @050   ----------------------------------------
 .byte   PATT
  .word Label_0148A4F3
@  #11 @051   ----------------------------------------
 .byte   PATT
  .word Label_0148A51C
@  #11 @052   ----------------------------------------
 .byte   PATT
  .word Label_0148A4E2
@  #11 @053   ----------------------------------------
 .byte   N06 ,Dn1 ,v064
 .byte   N06 ,Fs1
 .byte   W24
@  #11 @054   ----------------------------------------
 .byte   PATT
  .word Label_0148A4F3
@  #11 @055   ----------------------------------------
 .byte   PATT
  .word Label_0148A51C
@  #11 @056   ----------------------------------------
 .byte   PATT
  .word Label_0148A4E2
@  #11 @057   ----------------------------------------
 .byte   N06 ,Dn1 ,v064
 .byte   N06 ,Fs1
 .byte   W24
@  #11 @058   ----------------------------------------
 .byte   PATT
  .word Label_0148A4F3
@  #11 @059   ----------------------------------------
 .byte   PATT
  .word Label_0148A51C
@  #11 @060   ----------------------------------------
 .byte   PATT
  .word Label_0148A4E2
@  #11 @061   ----------------------------------------
 .byte   N06 ,Dn1 ,v064
 .byte   N06 ,Fs1
 .byte   W24
@  #11 @062   ----------------------------------------
 .byte   PATT
  .word Label_0148A4F3
@  #11 @063   ----------------------------------------
 .byte   PATT
  .word Label_0148A51C
@  #11 @064   ----------------------------------------
 .byte   PATT
  .word Label_0148A4E2
@  #11 @065   ----------------------------------------
 .byte   N06 ,Dn1 ,v064
 .byte   N06 ,Fs1
 .byte   W24
@  #11 @066   ----------------------------------------
 .byte   PATT
  .word Label_0148A4F3
@  #11 @067   ----------------------------------------
 .byte   PATT
  .word Label_0148A51C
@  #11 @068   ----------------------------------------
 .byte   PATT
  .word Label_0148A4E2
@  #11 @069   ----------------------------------------
 .byte   N06 ,Dn1 ,v064
 .byte   N06 ,Fs1
 .byte   W24
@  #11 @070   ----------------------------------------
 .byte   PATT
  .word Label_0148A4F3
@  #11 @071   ----------------------------------------
 .byte   PATT
  .word Label_0148A51C
@  #11 @072   ----------------------------------------
 .byte   PATT
  .word Label_0148A4E2
@  #11 @073   ----------------------------------------
 .byte   N06 ,Dn1 ,v064
 .byte   N06 ,Fs1
 .byte   W24
@  #11 @074   ----------------------------------------
 .byte   PATT
  .word Label_0148A4F3
@  #11 @075   ----------------------------------------
 .byte   PATT
  .word Label_0148A51C
@  #11 @076   ----------------------------------------
 .byte   PATT
  .word Label_0148A4E2
@  #11 @077   ----------------------------------------
 .byte   N06 ,Dn1 ,v064
 .byte   N06 ,Fs1
 .byte   W24
@  #11 @078   ----------------------------------------
 .byte   PATT
  .word Label_0148A4F3
@  #11 @079   ----------------------------------------
 .byte   PATT
  .word Label_0148A51C
@  #11 @080   ----------------------------------------
 .byte   PATT
  .word Label_0148A4E2
@  #11 @081   ----------------------------------------
 .byte   N06 ,Dn1 ,v064
 .byte   N06 ,Fs1
 .byte   W24
@  #11 @082   ----------------------------------------
 .byte   PATT
  .word Label_0148A4F3
@  #11 @083   ----------------------------------------
 .byte   PATT
  .word Label_0148A51C
@  #11 @084   ----------------------------------------
 .byte   PATT
  .word Label_0148A4E2
@  #11 @085   ----------------------------------------
 .byte   N06 ,Dn1 ,v064
 .byte   N06 ,Fs1
 .byte   W24
@  #11 @086   ----------------------------------------
 .byte   PATT
  .word Label_0148A4F3
@  #11 @087   ----------------------------------------
 .byte   N06 ,Dn1 ,v064
 .byte   N06 ,Fs1
 .byte   W24
 .byte   W12
Label_0148A721:
 .byte   W12
 .byte   W24
 .byte   W24
@  #11 @088   ----------------------------------------
 .byte   W24
 .byte   W24
 .byte   W24
 .byte   W24
@  #11 @089   ----------------------------------------
 .byte   W24
 .byte   W24
 .byte   W24
 .byte   W24
@  #11 @090   ----------------------------------------
 .byte   W24
 .byte   W24
 .byte   W24
 .byte   W24
@  #11 @091   ----------------------------------------
 .byte   W12
 .byte   N06 ,En1 ,v064
 .byte   W12
@  #11 @092   ----------------------------------------
 .byte   PATT
  .word Label_0148A420
@  #11 @093   ----------------------------------------
 .byte   PATT
  .word Label_0148A420
@  #11 @094   ----------------------------------------
 .byte   PATT
  .word Label_0148A420
@  #11 @095   ----------------------------------------
 .byte   PATT
  .word Label_0148A420
@  #11 @096   ----------------------------------------
 .byte   PATT
  .word Label_0148A420
@  #11 @097   ----------------------------------------
 .byte   PATT
  .word Label_0148A420
@  #11 @098   ----------------------------------------
 .byte   PATT
  .word Label_0148A420
@  #11 @099   ----------------------------------------
 .byte   PATT
  .word Label_0148A420
@  #11 @100   ----------------------------------------
 .byte   PATT
  .word Label_0148A420
@  #11 @101   ----------------------------------------
Label_0148A762:
 .byte   N06 ,Fs1 ,v064
 .byte   W12
 .byte   N03 ,Dn1 ,v032
 .byte   N06 ,En1 ,v064
 .byte   W03
 .byte   N03 ,Dn1 ,v032
 .byte   W03
 .byte   N03
 .byte   W03
 .byte   N03
 .byte   W03
 .byte   PEND 
Label_0148A776:
 .byte   N03 ,Dn1 ,v032
 .byte   N06 ,Fs1 ,v064
 .byte   W03
 .byte   N03 ,Dn1 ,v032
 .byte   W03
 .byte   N03
 .byte   W03
 .byte   N03
 .byte   W03
 .byte   Dn1 ,v040
 .byte   N06 ,En1 ,v064
 .byte   W03
 .byte   N03 ,Dn1 ,v040
 .byte   W03
 .byte   N03
 .byte   W03
 .byte   N03
 .byte   W03
 .byte   PEND 
Label_0148A794:
 .byte   N03 ,Dn1 ,v040
 .byte   N06 ,Fs1 ,v064
 .byte   W03
 .byte   N03 ,Dn1 ,v040
 .byte   W03
 .byte   N03
 .byte   W03
 .byte   N03
 .byte   W03
 .byte   Dn1 ,v044
 .byte   N06 ,En1 ,v064
 .byte   W03
 .byte   N03 ,Dn1 ,v044
 .byte   W03
 .byte   N03
 .byte   W03
 .byte   N03
 .byte   W03
 .byte   PEND 
Label_0148A7B2:
 .byte   N03 ,Dn1 ,v044
 .byte   N06 ,Fs1 ,v064
 .byte   W03
 .byte   N03 ,Dn1 ,v044
 .byte   W03
 .byte   N03
 .byte   W03
 .byte   N03
 .byte   W03
 .byte   Dn1 ,v052
 .byte   N06 ,En1 ,v064
 .byte   W03
 .byte   N03 ,Dn1 ,v052
 .byte   W03
 .byte   N03
 .byte   W03
 .byte   N03
 .byte   W03
 .byte   PEND 
@  #11 @102   ----------------------------------------
Label_0148A7D0:
 .byte   N03 ,Dn1 ,v052
 .byte   N06 ,Fs1 ,v064
 .byte   W03
 .byte   N03 ,Dn1 ,v052
 .byte   W03
 .byte   N03
 .byte   W03
 .byte   N03
 .byte   W03
 .byte   Dn1 ,v060
 .byte   N06 ,En1 ,v064
 .byte   W03
 .byte   N03 ,Dn1 ,v060
 .byte   W03
 .byte   N03
 .byte   W03
 .byte   N03
 .byte   W03
 .byte   PEND 
Label_0148A7EE:
 .byte   N03 ,Dn1 ,v060
 .byte   N06 ,Fs1 ,v064
 .byte   W03
 .byte   N03 ,Dn1 ,v060
 .byte   W03
 .byte   N03
 .byte   W03
 .byte   N03
 .byte   W03
 .byte   Dn1 ,v064
 .byte   N06 ,En1
 .byte   W03
 .byte   N03 ,Dn1
 .byte   W03
 .byte   N03
 .byte   W03
 .byte   N03
 .byte   W03
 .byte   PEND 
Label_0148A80A:
 .byte   N03 ,Dn1 ,v064
 .byte   N06 ,Fs1
 .byte   W03
 .byte   N03 ,Dn1
 .byte   W03
 .byte   N03
 .byte   W03
 .byte   N03
 .byte   W03
 .byte   N06 ,En1
 .byte   N06 ,An2 ,v127
 .byte   W12
 .byte   PEND 
@  #11 @103   ----------------------------------------
 .byte   PATT
  .word Label_0148A420
@  #11 @104   ----------------------------------------
Label_0148A823:
 .byte   N06 ,Fs1 ,v064
 .byte   W06
 .byte   Cs4 ,v127
 .byte   W06
 .byte   En1 ,v064
 .byte   W12
 .byte   PEND 
@  #11 @105   ----------------------------------------
 .byte   PATT
  .word Label_0148A420
@  #11 @106   ----------------------------------------
 .byte   PATT
  .word Label_0148A420
@  #11 @107   ----------------------------------------
 .byte   PATT
  .word Label_0148A420
@  #11 @108   ----------------------------------------
 .byte   PATT
  .word Label_0148A823
@  #11 @109   ----------------------------------------
 .byte   PATT
  .word Label_0148A420
@  #11 @110   ----------------------------------------
 .byte   PATT
  .word Label_0148A420
@  #11 @111   ----------------------------------------
 .byte   PATT
  .word Label_0148A420
@  #11 @112   ----------------------------------------
 .byte   PATT
  .word Label_0148A823
@  #11 @113   ----------------------------------------
 .byte   PATT
  .word Label_0148A420
@  #11 @114   ----------------------------------------
 .byte   PATT
  .word Label_0148A420
@  #11 @115   ----------------------------------------
 .byte   PATT
  .word Label_0148A420
@  #11 @116   ----------------------------------------
 .byte   PATT
  .word Label_0148A823
@  #11 @117   ----------------------------------------
 .byte   PATT
  .word Label_0148A420
@  #11 @118   ----------------------------------------
 .byte   PATT
  .word Label_0148A420
@  #11 @119   ----------------------------------------
 .byte   PATT
  .word Label_0148A420
@  #11 @120   ----------------------------------------
 .byte   PATT
  .word Label_0148A823
@  #11 @121   ----------------------------------------
 .byte   PATT
  .word Label_0148A420
@  #11 @122   ----------------------------------------
 .byte   PATT
  .word Label_0148A420
@  #11 @123   ----------------------------------------
 .byte   PATT
  .word Label_0148A420
@  #11 @124   ----------------------------------------
 .byte   PATT
  .word Label_0148A823
@  #11 @125   ----------------------------------------
 .byte   PATT
  .word Label_0148A420
@  #11 @126   ----------------------------------------
 .byte   PATT
  .word Label_0148A420
@  #11 @127   ----------------------------------------
 .byte   PATT
  .word Label_0148A420
@  #11 @128   ----------------------------------------
 .byte   PATT
  .word Label_0148A823
@  #11 @129   ----------------------------------------
 .byte   PATT
  .word Label_0148A420
@  #11 @130   ----------------------------------------
 .byte   PATT
  .word Label_0148A420
@  #11 @131   ----------------------------------------
 .byte   PATT
  .word Label_0148A420
@  #11 @132   ----------------------------------------
 .byte   PATT
  .word Label_0148A823
@  #11 @133   ----------------------------------------
 .byte   PATT
  .word Label_0148A420
@  #11 @134   ----------------------------------------
 .byte   PATT
  .word Label_0148A420
@  #11 @135   ----------------------------------------
 .byte   PATT
  .word Label_0148A420
@  #11 @136   ----------------------------------------
 .byte   PATT
  .word Label_0148A823
@  #11 @137   ----------------------------------------
 .byte   PATT
  .word Label_0148A420
@  #11 @138   ----------------------------------------
 .byte   PATT
  .word Label_0148A420
@  #11 @139   ----------------------------------------
 .byte   PATT
  .word Label_0148A420
@  #11 @140   ----------------------------------------
 .byte   PATT
  .word Label_0148A823
@  #11 @141   ----------------------------------------
 .byte   PATT
  .word Label_0148A420
@  #11 @142   ----------------------------------------
 .byte   N06 ,Fs1 ,v064
 .byte   W24
 .byte   W12
 .byte   Bn4 ,v096
 .byte   W12
 .byte   W24
 .byte   W12
 .byte   Bn4 ,v044
 .byte   W12
@  #11 @143   ----------------------------------------
 .byte   W24
 .byte   W12
 .byte   Bn4 ,v064
 .byte   W12
 .byte   W24
 .byte   W12
 .byte   Bn4 ,v044
 .byte   W12
@  #11 @144   ----------------------------------------
 .byte   W24
 .byte   W12
 .byte   Bn4 ,v096
 .byte   W12
 .byte   W24
 .byte   W12
 .byte   Bn4 ,v044
 .byte   W12
@  #11 @145   ----------------------------------------
 .byte   W24
 .byte   W12
 .byte   Bn4 ,v064
 .byte   W12
 .byte   W24
 .byte   W12
 .byte   Bn4 ,v044
 .byte   W12
@  #11 @146   ----------------------------------------
 .byte   W12
 .byte   En1 ,v064
 .byte   W12
@  #11 @147   ----------------------------------------
 .byte   PATT
  .word Label_0148A3FB
@  #11 @148   ----------------------------------------
 .byte   PATT
  .word Label_0148A407
@  #11 @149   ----------------------------------------
 .byte   PATT
  .word Label_0148A414
@  #11 @150   ----------------------------------------
 .byte   PATT
  .word Label_0148A420
@  #11 @151   ----------------------------------------
 .byte   PATT
  .word Label_0148A427
@  #11 @152   ----------------------------------------
 .byte   PATT
  .word Label_0148A407
@  #11 @153   ----------------------------------------
 .byte   PATT
  .word Label_0148A414
@  #11 @154   ----------------------------------------
 .byte   PATT
  .word Label_0148A420
@  #11 @155   ----------------------------------------
 .byte   PATT
  .word Label_0148A3FB
@  #11 @156   ----------------------------------------
 .byte   PATT
  .word Label_0148A407
@  #11 @157   ----------------------------------------
 .byte   PATT
  .word Label_0148A414
@  #11 @158   ----------------------------------------
 .byte   PATT
  .word Label_0148A450
@  #11 @159   ----------------------------------------
 .byte   PATT
  .word Label_0148A45D
@  #11 @160   ----------------------------------------
 .byte   PATT
  .word Label_0148A481
@  #11 @161   ----------------------------------------
 .byte   PATT
  .word Label_0148A4A8
@  #11 @162   ----------------------------------------
 .byte   PATT
  .word Label_0148A4CC
@  #11 @163   ----------------------------------------
 .byte   PATT
  .word Label_0148A4E2
@  #11 @164   ----------------------------------------
 .byte   N06 ,Dn1 ,v064
 .byte   N06 ,Fs1
 .byte   W24
@  #11 @165   ----------------------------------------
 .byte   PATT
  .word Label_0148A4F3
@  #11 @166   ----------------------------------------
 .byte   PATT
  .word Label_0148A4FE
@  #11 @167   ----------------------------------------
 .byte   PATT
  .word Label_0148A4E2
@  #11 @168   ----------------------------------------
 .byte   N06 ,Dn1 ,v064
 .byte   N06 ,Fs1
 .byte   W24
@  #11 @169   ----------------------------------------
 .byte   PATT
  .word Label_0148A4F3
@  #11 @170   ----------------------------------------
 .byte   PATT
  .word Label_0148A51C
@  #11 @171   ----------------------------------------
 .byte   PATT
  .word Label_0148A4E2
@  #11 @172   ----------------------------------------
 .byte   N06 ,Dn1 ,v064
 .byte   N06 ,Fs1
 .byte   W24
@  #11 @173   ----------------------------------------
 .byte   PATT
  .word Label_0148A4F3
@  #11 @174   ----------------------------------------
 .byte   PATT
  .word Label_0148A4FE
@  #11 @175   ----------------------------------------
 .byte   PATT
  .word Label_0148A4E2
@  #11 @176   ----------------------------------------
 .byte   N06 ,Dn1 ,v064
 .byte   N06 ,Fs1
 .byte   W24
@  #11 @177   ----------------------------------------
 .byte   PATT
  .word Label_0148A4F3
@  #11 @178   ----------------------------------------
 .byte   PATT
  .word Label_0148A54A
@  #11 @179   ----------------------------------------
 .byte   PATT
  .word Label_0148A4E2
@  #11 @180   ----------------------------------------
 .byte   N06 ,Dn1 ,v064
 .byte   N06 ,Fs1
 .byte   W24
@  #11 @181   ----------------------------------------
 .byte   PATT
  .word Label_0148A4F3
@  #11 @182   ----------------------------------------
 .byte   PATT
  .word Label_0148A4FE
@  #11 @183   ----------------------------------------
 .byte   PATT
  .word Label_0148A4E2
@  #11 @184   ----------------------------------------
 .byte   N06 ,Dn1 ,v064
 .byte   N06 ,Fs1
 .byte   W24
@  #11 @185   ----------------------------------------
 .byte   PATT
  .word Label_0148A4F3
@  #11 @186   ----------------------------------------
 .byte   PATT
  .word Label_0148A51C
@  #11 @187   ----------------------------------------
 .byte   PATT
  .word Label_0148A4E2
@  #11 @188   ----------------------------------------
 .byte   N06 ,Dn1 ,v064
 .byte   N06 ,Fs1
 .byte   W24
@  #11 @189   ----------------------------------------
 .byte   PATT
  .word Label_0148A4F3
@  #11 @190   ----------------------------------------
 .byte   PATT
  .word Label_0148A590
@  #11 @191   ----------------------------------------
 .byte   PATT
  .word Label_0148A5A7
@  #11 @192   ----------------------------------------
 .byte   PATT
  .word Label_0148A5CC
@  #11 @193   ----------------------------------------
 .byte   PATT
  .word Label_0148A5E8
@  #11 @194   ----------------------------------------
 .byte   PATT
  .word Label_0148A60D
@  #11 @195   ----------------------------------------
 .byte   PATT
  .word Label_0148A4E2
@  #11 @196   ----------------------------------------
 .byte   N06 ,Dn1 ,v064
 .byte   N06 ,Fs1
 .byte   W24
@  #11 @197   ----------------------------------------
 .byte   PATT
  .word Label_0148A4F3
@  #11 @198   ----------------------------------------
 .byte   PATT
  .word Label_0148A51C
@  #11 @199   ----------------------------------------
 .byte   PATT
  .word Label_0148A4E2
@  #11 @200   ----------------------------------------
 .byte   N06 ,Dn1 ,v064
 .byte   N06 ,Fs1
 .byte   W24
@  #11 @201   ----------------------------------------
 .byte   PATT
  .word Label_0148A4F3
@  #11 @202   ----------------------------------------
 .byte   PATT
  .word Label_0148A51C
@  #11 @203   ----------------------------------------
 .byte   PATT
  .word Label_0148A4E2
@  #11 @204   ----------------------------------------
 .byte   N06 ,Dn1 ,v064
 .byte   N06 ,Fs1
 .byte   W24
@  #11 @205   ----------------------------------------
 .byte   PATT
  .word Label_0148A4F3
@  #11 @206   ----------------------------------------
 .byte   PATT
  .word Label_0148A51C
@  #11 @207   ----------------------------------------
 .byte   PATT
  .word Label_0148A4E2
@  #11 @208   ----------------------------------------
 .byte   N06 ,Dn1 ,v064
 .byte   N06 ,Fs1
 .byte   W24
@  #11 @209   ----------------------------------------
 .byte   PATT
  .word Label_0148A4F3
@  #11 @210   ----------------------------------------
 .byte   PATT
  .word Label_0148A51C
@  #11 @211   ----------------------------------------
 .byte   PATT
  .word Label_0148A4E2
@  #11 @212   ----------------------------------------
 .byte   N06 ,Dn1 ,v064
 .byte   N06 ,Fs1
 .byte   W24
@  #11 @213   ----------------------------------------
 .byte   PATT
  .word Label_0148A4F3
@  #11 @214   ----------------------------------------
 .byte   PATT
  .word Label_0148A51C
@  #11 @215   ----------------------------------------
 .byte   PATT
  .word Label_0148A4E2
@  #11 @216   ----------------------------------------
 .byte   N06 ,Dn1 ,v064
 .byte   N06 ,Fs1
 .byte   W24
@  #11 @217   ----------------------------------------
 .byte   PATT
  .word Label_0148A4F3
@  #11 @218   ----------------------------------------
 .byte   PATT
  .word Label_0148A51C
@  #11 @219   ----------------------------------------
 .byte   PATT
  .word Label_0148A4E2
@  #11 @220   ----------------------------------------
 .byte   N06 ,Dn1 ,v064
 .byte   N06 ,Fs1
 .byte   W24
@  #11 @221   ----------------------------------------
 .byte   PATT
  .word Label_0148A4F3
@  #11 @222   ----------------------------------------
 .byte   PATT
  .word Label_0148A51C
@  #11 @223   ----------------------------------------
 .byte   PATT
  .word Label_0148A4E2
@  #11 @224   ----------------------------------------
 .byte   N06 ,Dn1 ,v064
 .byte   N06 ,Fs1
 .byte   W24
@  #11 @225   ----------------------------------------
 .byte   PATT
  .word Label_0148A4F3
@  #11 @226   ----------------------------------------
 .byte   PATT
  .word Label_0148A51C
@  #11 @227   ----------------------------------------
 .byte   PATT
  .word Label_0148A4E2
@  #11 @228   ----------------------------------------
 .byte   N06 ,Dn1 ,v064
 .byte   N06 ,Fs1
 .byte   W24
@  #11 @229   ----------------------------------------
 .byte   PATT
  .word Label_0148A4F3
@  #11 @230   ----------------------------------------
 .byte   PATT
  .word Label_0148A51C
@  #11 @231   ----------------------------------------
 .byte   PATT
  .word Label_0148A4E2
@  #11 @232   ----------------------------------------
 .byte   N06 ,Dn1 ,v064
 .byte   N06 ,Fs1
 .byte   W24
@  #11 @233   ----------------------------------------
 .byte   PATT
  .word Label_0148A4F3
@  #11 @234   ----------------------------------------
 .byte   PATT
  .word Label_0148A51C
@  #11 @235   ----------------------------------------
 .byte   PATT
  .word Label_0148A4E2
@  #11 @236   ----------------------------------------
 .byte   N06 ,Dn1 ,v064
 .byte   N06 ,Fs1
 .byte   W24
@  #11 @237   ----------------------------------------
 .byte   PATT
  .word Label_0148A4F3
@  #11 @238   ----------------------------------------
 .byte   PATT
  .word Label_0148A51C
@  #11 @239   ----------------------------------------
 .byte   PATT
  .word Label_0148A4E2
@  #11 @240   ----------------------------------------
 .byte   N06 ,Dn1 ,v064
 .byte   N06 ,Fs1
 .byte   W24
@  #11 @241   ----------------------------------------
 .byte   PATT
  .word Label_0148A4F3
@  #11 @242   ----------------------------------------
 .byte   N06 ,Dn1 ,v064
 .byte   N06 ,Fs1
 .byte   W24
 .byte   W12
 .byte   GOTO
  .word Label_0148A721
@  #11 @243   ----------------------------------------
 .byte   W12
 .byte   W24
 .byte   W24
 .byte   W24
 .byte   W24
@  #11 @244   ----------------------------------------
 .byte   W24
 .byte   W24
 .byte   W24
 .byte   W24
@  #11 @245   ----------------------------------------
 .byte   W24
 .byte   W24
 .byte   W24
 .byte   W24
@  #11 @246   ----------------------------------------
 .byte   W24
 .byte   W24
 .byte   W12
 .byte   N06 ,En1 ,v064
 .byte   W12
@  #11 @247   ----------------------------------------
 .byte   PATT
  .word Label_0148A420
@  #11 @248   ----------------------------------------
 .byte   PATT
  .word Label_0148A420
@  #11 @249   ----------------------------------------
 .byte   PATT
  .word Label_0148A420
@  #11 @250   ----------------------------------------
 .byte   PATT
  .word Label_0148A420
@  #11 @251   ----------------------------------------
 .byte   PATT
  .word Label_0148A420
@  #11 @252   ----------------------------------------
 .byte   PATT
  .word Label_0148A420
@  #11 @253   ----------------------------------------
 .byte   PATT
  .word Label_0148A420
@  #11 @254   ----------------------------------------
 .byte   PATT
  .word Label_0148A420
@  #11 @255   ----------------------------------------
 .byte   PATT
  .word Label_0148A420
@  #11 @256   ----------------------------------------
 .byte   PATT
  .word Label_0148A762
@  #11 @257   ----------------------------------------
 .byte   PATT
  .word Label_0148A776
@  #11 @258   ----------------------------------------
 .byte   PATT
  .word Label_0148A794
@  #11 @259   ----------------------------------------
 .byte   PATT
  .word Label_0148A7B2
@  #11 @260   ----------------------------------------
 .byte   PATT
  .word Label_0148A7D0
@  #11 @261   ----------------------------------------
 .byte   PATT
  .word Label_0148A7EE
@  #11 @262   ----------------------------------------
 .byte   PATT
  .word Label_0148A80A
@  #11 @263   ----------------------------------------
 .byte   PATT
  .word Label_0148A420
@  #11 @264   ----------------------------------------
 .byte   PATT
  .word Label_0148A823
@  #11 @265   ----------------------------------------
 .byte   PATT
  .word Label_0148A420
@  #11 @266   ----------------------------------------
 .byte   PATT
  .word Label_0148A420
@  #11 @267   ----------------------------------------
 .byte   PATT
  .word Label_0148A420
@  #11 @268   ----------------------------------------
 .byte   PATT
  .word Label_0148A823
@  #11 @269   ----------------------------------------
 .byte   PATT
  .word Label_0148A420
@  #11 @270   ----------------------------------------
 .byte   PATT
  .word Label_0148A420
@  #11 @271   ----------------------------------------
 .byte   PATT
  .word Label_0148A420
@  #11 @272   ----------------------------------------
 .byte   PATT
  .word Label_0148A823
@  #11 @273   ----------------------------------------
 .byte   PATT
  .word Label_0148A420
@  #11 @274   ----------------------------------------
 .byte   PATT
  .word Label_0148A420
@  #11 @275   ----------------------------------------
 .byte   PATT
  .word Label_0148A420
@  #11 @276   ----------------------------------------
 .byte   PATT
  .word Label_0148A823
@  #11 @277   ----------------------------------------
 .byte   PATT
  .word Label_0148A420
@  #11 @278   ----------------------------------------
 .byte   PATT
  .word Label_0148A420
@  #11 @279   ----------------------------------------
 .byte   PATT
  .word Label_0148A420
@  #11 @280   ----------------------------------------
 .byte   PATT
  .word Label_0148A823
@  #11 @281   ----------------------------------------
 .byte   PATT
  .word Label_0148A420
@  #11 @282   ----------------------------------------
 .byte   PATT
  .word Label_0148A420
@  #11 @283   ----------------------------------------
 .byte   PATT
  .word Label_0148A420
@  #11 @284   ----------------------------------------
 .byte   PATT
  .word Label_0148A823
@  #11 @285   ----------------------------------------
 .byte   PATT
  .word Label_0148A420
@  #11 @286   ----------------------------------------
 .byte   PATT
  .word Label_0148A420
@  #11 @287   ----------------------------------------
 .byte   PATT
  .word Label_0148A420
@  #11 @288   ----------------------------------------
 .byte   PATT
  .word Label_0148A823
@  #11 @289   ----------------------------------------
 .byte   PATT
  .word Label_0148A420
@  #11 @290   ----------------------------------------
 .byte   PATT
  .word Label_0148A420
@  #11 @291   ----------------------------------------
 .byte   PATT
  .word Label_0148A420
@  #11 @292   ----------------------------------------
 .byte   PATT
  .word Label_0148A823
@  #11 @293   ----------------------------------------
 .byte   PATT
  .word Label_0148A420
@  #11 @294   ----------------------------------------
 .byte   PATT
  .word Label_0148A420
@  #11 @295   ----------------------------------------
 .byte   PATT
  .word Label_0148A420
@  #11 @296   ----------------------------------------
 .byte   PATT
  .word Label_0148A823
@  #11 @297   ----------------------------------------
 .byte   PATT
  .word Label_0148A420
@  #11 @298   ----------------------------------------
 .byte   PATT
  .word Label_0148A420
@  #11 @299   ----------------------------------------
 .byte   PATT
  .word Label_0148A420
@  #11 @300   ----------------------------------------
 .byte   PATT
  .word Label_0148A823
@  #11 @301   ----------------------------------------
 .byte   PATT
  .word Label_0148A420
@  #11 @302   ----------------------------------------
 .byte   N06 ,Fs1 ,v064
 .byte   W12
 .byte   FINE

@******************************************************@
	.align	2

song04:
	.byte	11	@ NumTrks
	.byte	0	@ NumBlks
	.byte	song04_pri	@ Priority
	.byte	song04_rev	@ Reverb.
    
	.word	song04_grp
    
	.word	song04_001
	.word	song04_002
	.word	song04_003
	.word	song04_004
	.word	song04_005
	.word	song04_006
	.word	song04_007
	.word	song04_008
	.word	song04_009
	.word	song04_010
	.word	song04_011

	.end
