//Event file generated from Sappy .s format.
	#include "MPlayDef.event"

	#define	SearchingForFriends_grp  voicegroup000
	#define	SearchingForFriends_pri  0
	#define	SearchingForFriends_rev  0
	#define	SearchingForFriends_mvl  127
	#define	SearchingForFriends_key  0
	#define	SearchingForFriends_tbs  1
	#define	SearchingForFriends_exg  0
	#define	SearchingForFriends_cmp  1

	// .rodata
	//	SearchingForFriends
	ALIGN 4


//**************** Track 1 (Midi-Chn.0) ****************//

SearchingForFriends_001:
//  #01 //000   ----------------------------------------
 BYTE   KEYSH   SearchingForFriends_key+0
 BYTE   TEMPO   124*SearchingForFriends_tbs/2
 BYTE   VOICE   75
 BYTE   LFOS 44
 BYTE   VOL   53*SearchingForFriends_mvl/mxv
 BYTE   PAN   c_v+32
 BYTE   VOL   37*SearchingForFriends_mvl/mxv
 BYTE   BEND   c_v+0
 BYTE   W96
//  #01 //001   ----------------------------------------
 BYTE   W96
//  #01 //002   ----------------------------------------
 BYTE   W96
//  #01 //003   ----------------------------------------
 BYTE   W96
//  #01 //004   ----------------------------------------
Label_0100B1A0:
 BYTE   N48  An4  v104
 BYTE   W48
 BYTE   Cn5
 BYTE   W48
 BYTE   PEND 
//  #01 //005   ----------------------------------------
Label_0100B1A7:
 BYTE   N24  Bn4  v104
 BYTE   W24
 BYTE   An4
 BYTE   W24
 BYTE   Gn4
 BYTE   W24
 BYTE   N12  Cn4
 BYTE   W12
 BYTE   Dn4
 BYTE   W12
 BYTE   PEND 
//  #01 //006   ----------------------------------------
Label_0100B1B5:
 BYTE   N36  En4  v104
 BYTE   W36
 BYTE   N12
 BYTE   W12
 BYTE   N24  Dn4
 BYTE   W24
 BYTE   N12  Cn4
 BYTE   W12
 BYTE   Dn4
 BYTE   W12
 BYTE   PEND 
//  #01 //007   ----------------------------------------
Label_0100B1C4:
 BYTE   N48  En4  v104
 BYTE   W48
 BYTE   N48
 BYTE   W48
 BYTE   PEND 
//  #01 //008   ----------------------------------------
 BYTE   PATT
  POIN2 Label_0100B1A0
//  #01 //009   ----------------------------------------
Label_0100B1D0:
 BYTE   N24  Dn5  v104
 BYTE   W24
 BYTE   Cn5
 BYTE   W24
 BYTE   Bn4
 BYTE   W24
 BYTE   Gn4
 BYTE   W24
 BYTE   PEND 
//  #01 //010   ----------------------------------------
Label_0100B1DB:
 BYTE   N24  An4  v104
 BYTE   W24
 BYTE   Cn5
 BYTE   W24
 BYTE   Bn4
 BYTE   W24
 BYTE   Gs4
 BYTE   W24
 BYTE   PEND 
//  #01 //011   ----------------------------------------
 BYTE   N72  An4
 BYTE   W96
//  #01 //012   ----------------------------------------
 BYTE   PATT
  POIN2 Label_0100B1A0
//  #01 //013   ----------------------------------------
 BYTE   PATT
  POIN2 Label_0100B1A7
//  #01 //014   ----------------------------------------
 BYTE   PATT
  POIN2 Label_0100B1B5
//  #01 //015   ----------------------------------------
 BYTE   PATT
  POIN2 Label_0100B1C4
//  #01 //016   ----------------------------------------
 BYTE   PATT
  POIN2 Label_0100B1A0
//  #01 //017   ----------------------------------------
 BYTE   PATT
  POIN2 Label_0100B1D0
//  #01 //018   ----------------------------------------
 BYTE   PATT
  POIN2 Label_0100B1DB
//  #01 //019   ----------------------------------------
 BYTE   TIE  An4  v104
 BYTE   W96
//  #01 //020   ----------------------------------------
 BYTE   W72
 BYTE   EOT
 BYTE   W24
//  #01 //021   ----------------------------------------
 BYTE   W96
//  #01 //022   ----------------------------------------
 BYTE   W96
//  #01 //023   ----------------------------------------
 BYTE   W96
//  #01 //024   ----------------------------------------
 BYTE   W96
//  #01 //025   ----------------------------------------
 BYTE   W24
 BYTE   N24  Dn5  v052
 BYTE   N24  Fn5  v072
 BYTE   W24
 BYTE   Fn5  v052
 BYTE   N24  An5  v072
 BYTE   W24
 BYTE   Dn5  v052
 BYTE   N24  Fn5  v072
 BYTE   W24
//  #01 //026   ----------------------------------------
 BYTE   En5  v052
 BYTE   N24  Gn5  v072
 BYTE   W24
 BYTE   Dn5  v052
 BYTE   N24  Fn5  v072
 BYTE   W24
 BYTE   Cn5  v052
 BYTE   N24  En5  v072
 BYTE   W24
 BYTE   Dn5  v052
 BYTE   N24  Fn5  v072
 BYTE   W24
//  #01 //027   ----------------------------------------
 BYTE   N96  En5  v052
 BYTE   N96  Gn5  v072
 BYTE   W96
//  #01 //028   ----------------------------------------
 BYTE   W96
//  #01 //029   ----------------------------------------
 BYTE   W96
//  #01 //030   ----------------------------------------
 BYTE   W96
//  #01 //031   ----------------------------------------
 BYTE   W96
//  #01 //032   ----------------------------------------
 BYTE   W96
//  #01 //033   ----------------------------------------
 BYTE   N60  Cn5  v064
 BYTE   N60  En5  v088
 BYTE   W60
 BYTE   N12  Cn5  v064
 BYTE   N12  En5  v088
 BYTE   W12
 BYTE   Bn4  v064
 BYTE   N12  Dn5  v088
 BYTE   W12
 BYTE   An4  v064
 BYTE   N12  Cn5  v088
 BYTE   W12
//  #01 //034   ----------------------------------------
 BYTE   N96  Fn4  v064
 BYTE   N96  An4  v088
 BYTE   W96
//  #01 //035   ----------------------------------------
 BYTE   W24
 BYTE   N24  Ds4  v064
 BYTE   N24  Gn4  v088
 BYTE   W24
 BYTE   Fn4  v064
 BYTE   N24  An4  v088
 BYTE   W24
 BYTE   Gn4  v064
 BYTE   N24  As4  v088
 BYTE   W24
//  #01 //036   ----------------------------------------
 BYTE   Cn5  v064
 BYTE   N24  Ds5  v088
 BYTE   W24
 BYTE   As4  v064
 BYTE   N24  Dn5  v088
 BYTE   W24
 BYTE   An4  v064
 BYTE   N24  Cn5  v088
 BYTE   W24
 BYTE   Gn4  v064
 BYTE   N24  As4  v088
 BYTE   W24
//  #01 //037   ----------------------------------------
 BYTE   TIE  Fs4  v064
 BYTE   TIE  An4  v088
 BYTE   W96
//  #01 //038   ----------------------------------------
 BYTE   W96
//  #01 //039   ----------------------------------------
 BYTE   EOT
 BYTE   Fs4  v081
 BYTE   W96
//  #01 //040   ----------------------------------------
 BYTE   W96
//  #01 //041   ----------------------------------------
 BYTE   GoTo
  POIN2 Label_0100B1A0
//  #01 //042   ----------------------------------------
 BYTE   PATT
  POIN2 Label_0100B1A0
 BYTE   FINE

//**************** Track 2 (Midi-Chn.1) ****************//

SearchingForFriends_002:
//  #02 //000   ----------------------------------------
 BYTE   KEYSH   SearchingForFriends_key+0
 BYTE   VOICE   52
 BYTE   LFOS 44
 BYTE   VOL   53*SearchingForFriends_mvl/mxv
 BYTE   PAN   c_v+32
 BYTE   VOL   32*SearchingForFriends_mvl/mxv
 BYTE   BEND   c_v+0
 BYTE   N96  Cs3  v028
 BYTE   N96  An3  v068
 BYTE   W96
//  #02 //001   ----------------------------------------
 BYTE   Ds3  v036
 BYTE   N96  Bn3  v080
 BYTE   W96
//  #02 //002   ----------------------------------------
 BYTE   En3  v036
 BYTE   N96  Cn4  v080
 BYTE   W96
//  #02 //003   ----------------------------------------
 BYTE   Fs3  v036
 BYTE   N96  Dn4  v080
 BYTE   W96
//  #02 //004   ----------------------------------------
Label_0100B08B:
 BYTE   W96
//  #02 //005   ----------------------------------------
 BYTE   W96
//  #02 //006   ----------------------------------------
 BYTE   W96
//  #02 //007   ----------------------------------------
 BYTE   W96
//  #02 //008   ----------------------------------------
 BYTE   W96
//  #02 //009   ----------------------------------------
 BYTE   W96
//  #02 //010   ----------------------------------------
 BYTE   W96
//  #02 //011   ----------------------------------------
 BYTE   W96
//  #02 //012   ----------------------------------------
 BYTE   W96
//  #02 //013   ----------------------------------------
 BYTE   W96
//  #02 //014   ----------------------------------------
 BYTE   W96
//  #02 //015   ----------------------------------------
 BYTE   W96
//  #02 //016   ----------------------------------------
 BYTE   W96
//  #02 //017   ----------------------------------------
 BYTE   W96
//  #02 //018   ----------------------------------------
 BYTE   W96
//  #02 //019   ----------------------------------------
 BYTE   W96
//  #02 //020   ----------------------------------------
 BYTE   W96
//  #02 //021   ----------------------------------------
Label_0100B09C:
 BYTE   W24
 BYTE   N24  Fn3  v064
 BYTE   N24  An3  v100
 BYTE   W24
 BYTE   An3  v064
 BYTE   N24  Cn4  v100
 BYTE   W24
 BYTE   Fn3  v064
 BYTE   N24  An3  v100
 BYTE   W24
 BYTE   PEND 
//  #02 //022   ----------------------------------------
Label_0100B0B1:
 BYTE   N24  Gn3  v064
 BYTE   N24  Bn3  v100
 BYTE   W24
 BYTE   Fn3  v064
 BYTE   N24  An3  v100
 BYTE   W24
 BYTE   En3  v064
 BYTE   N24  Gn3  v100
 BYTE   W24
 BYTE   Fn3  v064
 BYTE   N24  An3  v100
 BYTE   W24
 BYTE   PEND 
//  #02 //023   ----------------------------------------
Label_0100B0CB:
 BYTE   N72  Gn3  v064
 BYTE   N72  Bn3  v100
 BYTE   W72
 BYTE   N24  Bn3  v064
 BYTE   N24  Dn4  v100
 BYTE   W24
 BYTE   PEND 
//  #02 //024   ----------------------------------------
 BYTE   N96  An3  v064
 BYTE   N96  Cn4  v100
 BYTE   W96
//  #02 //025   ----------------------------------------
 BYTE   W96
//  #02 //026   ----------------------------------------
 BYTE   W96
//  #02 //027   ----------------------------------------
 BYTE   W96
//  #02 //028   ----------------------------------------
 BYTE   W96
//  #02 //029   ----------------------------------------
 BYTE   PATT
  POIN2 Label_0100B09C
//  #02 //030   ----------------------------------------
 BYTE   PATT
  POIN2 Label_0100B0B1
//  #02 //031   ----------------------------------------
 BYTE   PATT
  POIN2 Label_0100B0CB
//  #02 //032   ----------------------------------------
 BYTE   N96  An3  v064
 BYTE   N96  Cs4  v100
 BYTE   W96
//  #02 //033   ----------------------------------------
 BYTE   W96
//  #02 //034   ----------------------------------------
 BYTE   W96
//  #02 //035   ----------------------------------------
 BYTE   W96
//  #02 //036   ----------------------------------------
 BYTE   W96
//  #02 //037   ----------------------------------------
 BYTE   W96
//  #02 //038   ----------------------------------------
 BYTE   W96
//  #02 //039   ----------------------------------------
 BYTE   W96
//  #02 //040   ----------------------------------------
 BYTE   W96
//  #02 //041   ----------------------------------------
 BYTE   GoTo
  POIN2 Label_0100B08B
//  #02 //042   ----------------------------------------
 BYTE   W96
 BYTE   FINE

//**************** Track 3 (Midi-Chn.2) ****************//

SearchingForFriends_003:
//  #03 //000   ----------------------------------------
 BYTE   KEYSH   SearchingForFriends_key+0
 BYTE   VOICE   18
 BYTE   LFOS 44
 BYTE   VOL   53*SearchingForFriends_mvl/mxv
 BYTE   PAN   c_v+63
 BYTE   VOL   14*SearchingForFriends_mvl/mxv
 BYTE   BEND   c_v+0
 BYTE   W96
//  #03 //001   ----------------------------------------
 BYTE   W96
//  #03 //002   ----------------------------------------
 BYTE   W96
//  #03 //003   ----------------------------------------
 BYTE   W96
//  #03 //004   ----------------------------------------
Label_0100A7AE:
 BYTE   N06  An2  v060
 BYTE   W06
 BYTE   En3  v020
 BYTE   W06
 BYTE   An2  v036
 BYTE   W06
 BYTE   N12  An3  v060
 BYTE   W12
 BYTE   An3  v092
 BYTE   W18
 BYTE   N06  An2  v028
 BYTE   W06
 BYTE   An3  v060
 BYTE   W06
 BYTE   An2  v020
 BYTE   W06
 BYTE   En3  v036
 BYTE   W06
 BYTE   N12  An3  v092
 BYTE   W24
 BYTE   PEND 
//  #03 //005   ----------------------------------------
 BYTE   PATT
  POIN2 Label_0100A7AE
//  #03 //006   ----------------------------------------
 BYTE   PATT
  POIN2 Label_0100A7AE
//  #03 //007   ----------------------------------------
 BYTE   PATT
  POIN2 Label_0100A7AE
//  #03 //008   ----------------------------------------
 BYTE   PATT
  POIN2 Label_0100A7AE
//  #03 //009   ----------------------------------------
 BYTE   PATT
  POIN2 Label_0100A7AE
//  #03 //010   ----------------------------------------
 BYTE   PATT
  POIN2 Label_0100A7AE
//  #03 //011   ----------------------------------------
 BYTE   PATT
  POIN2 Label_0100A7AE
//  #03 //012   ----------------------------------------
 BYTE   PATT
  POIN2 Label_0100A7AE
//  #03 //013   ----------------------------------------
 BYTE   PATT
  POIN2 Label_0100A7AE
//  #03 //014   ----------------------------------------
 BYTE   PATT
  POIN2 Label_0100A7AE
//  #03 //015   ----------------------------------------
 BYTE   PATT
  POIN2 Label_0100A7AE
//  #03 //016   ----------------------------------------
 BYTE   PATT
  POIN2 Label_0100A7AE
//  #03 //017   ----------------------------------------
 BYTE   PATT
  POIN2 Label_0100A7AE
//  #03 //018   ----------------------------------------
 BYTE   PATT
  POIN2 Label_0100A7AE
//  #03 //019   ----------------------------------------
 BYTE   PATT
  POIN2 Label_0100A7AE
//  #03 //020   ----------------------------------------
 BYTE   PATT
  POIN2 Label_0100A7AE
//  #03 //021   ----------------------------------------
 BYTE   W96
//  #03 //022   ----------------------------------------
 BYTE   W96
//  #03 //023   ----------------------------------------
 BYTE   W96
//  #03 //024   ----------------------------------------
 BYTE   W96
//  #03 //025   ----------------------------------------
 BYTE   W96
//  #03 //026   ----------------------------------------
 BYTE   W96
//  #03 //027   ----------------------------------------
 BYTE   W96
//  #03 //028   ----------------------------------------
 BYTE   W96
//  #03 //029   ----------------------------------------
 BYTE   W96
//  #03 //030   ----------------------------------------
 BYTE   W96
//  #03 //031   ----------------------------------------
 BYTE   W96
//  #03 //032   ----------------------------------------
 BYTE   W96
//  #03 //033   ----------------------------------------
 BYTE   W96
//  #03 //034   ----------------------------------------
 BYTE   W96
//  #03 //035   ----------------------------------------
 BYTE   W96
//  #03 //036   ----------------------------------------
 BYTE   W96
//  #03 //037   ----------------------------------------
 BYTE   W96
//  #03 //038   ----------------------------------------
 BYTE   W96
//  #03 //039   ----------------------------------------
 BYTE   W96
//  #03 //040   ----------------------------------------
 BYTE   W96
//  #03 //041   ----------------------------------------
 BYTE   GoTo
  POIN2 Label_0100A7AE
//  #03 //042   ----------------------------------------
 BYTE   PATT
  POIN2 Label_0100A7AE
 BYTE   FINE

//**************** Track 4 (Midi-Chn.3) ****************//

SearchingForFriends_004:
//  #04 //000   ----------------------------------------
 BYTE   KEYSH   SearchingForFriends_key+0
 BYTE   VOICE   40
 BYTE   LFOS 44
 BYTE   VOL   53*SearchingForFriends_mvl/mxv
 BYTE   PAN   c_v+0
 BYTE   VOL   20*SearchingForFriends_mvl/mxv
 BYTE   BEND   c_v+0
 BYTE   N96  En3  v080
 BYTE   N96  An3  v116
 BYTE   W96
//  #04 //001   ----------------------------------------
 BYTE   Fs3  v080
 BYTE   N96  Bn3  v116
 BYTE   W96
//  #04 //002   ----------------------------------------
 BYTE   Gn3  v080
 BYTE   N96  Cn4  v116
 BYTE   W96
//  #04 //003   ----------------------------------------
 BYTE   An3  v080
 BYTE   N96  Dn4  v116
 BYTE   W96
//  #04 //004   ----------------------------------------
Label_0100B547:
 BYTE   N96  Cn3  v080
 BYTE   TIE  An3
 BYTE   TIE  En4
 BYTE   W96
 BYTE   PEND 
//  #04 //005   ----------------------------------------
 BYTE   N96  Bn2
 BYTE   W72
 BYTE   EOT
 BYTE   An3  v076
 BYTE   N24  Gn3
 BYTE   N24  Dn4
 BYTE   W24
//  #04 //006   ----------------------------------------
Label_0100B55B:
 BYTE   N96  An2  v080
 BYTE   N48  En3
 BYTE   N96  Cn4
 BYTE   W48
 BYTE   N48  Fn3
 BYTE   W48
 BYTE   PEND 
//  #04 //007   ----------------------------------------
Label_0100B567:
 BYTE   N96  Bn2  v080
 BYTE   N48  Fs3
 BYTE   N96  Dn4
 BYTE   W48
 BYTE   N48  Gs3
 BYTE   W48
 BYTE   PEND 
//  #04 //008   ----------------------------------------
 BYTE   PATT
  POIN2 Label_0100B547
//  #04 //009   ----------------------------------------
 BYTE   N96  Bn2  v080
 BYTE   W48
 BYTE   EOT
 BYTE   An3  v076
 BYTE   N48  Gn3
 BYTE   N48  Dn4
 BYTE   W48
//  #04 //010   ----------------------------------------
Label_0100B584:
 BYTE   N48  An2  v080
 BYTE   N48  Fs3
 BYTE   N48  Cn4
 BYTE   W48
 BYTE   Gs2
 BYTE   N48  En3
 BYTE   N48  Dn4
 BYTE   W48
 BYTE   PEND 
//  #04 //011   ----------------------------------------
 BYTE   N96  An2
 BYTE   N96  En3
 BYTE   N96  Cn4
 BYTE   W96
//  #04 //012   ----------------------------------------
 BYTE   PATT
  POIN2 Label_0100B547
//  #04 //013   ----------------------------------------
 BYTE   N96  Bn2  v080
 BYTE   W72
 BYTE   EOT
 BYTE   An3  v076
 BYTE   N24  Gn3
 BYTE   N24  Dn4
 BYTE   W24
//  #04 //014   ----------------------------------------
 BYTE   PATT
  POIN2 Label_0100B55B
//  #04 //015   ----------------------------------------
 BYTE   PATT
  POIN2 Label_0100B567
//  #04 //016   ----------------------------------------
 BYTE   PATT
  POIN2 Label_0100B547
//  #04 //017   ----------------------------------------
 BYTE   N96  Bn2  v080
 BYTE   W48
 BYTE   EOT
 BYTE   An3  v076
 BYTE   N48  Gn3
 BYTE   N48  Dn4
 BYTE   W48
//  #04 //018   ----------------------------------------
 BYTE   PATT
  POIN2 Label_0100B584
//  #04 //019   ----------------------------------------
 BYTE   TIE  An2  v080
 BYTE   TIE  En3
 BYTE   N96  Dn4
 BYTE   W96
//  #04 //020   ----------------------------------------
 BYTE   Cs4
 BYTE   W96
//  #04 //021   ----------------------------------------
 BYTE   EOT
 BYTE   An2  v064
Label_0100B5D8:
 BYTE   N96  An3  v080
 BYTE   N96  Cn4
 BYTE   N96  En4
 BYTE   W96
 BYTE   PEND 
//  #04 //022   ----------------------------------------
Label_0100B5E1:
 BYTE   N96  Gn3  v080
 BYTE   N96  Bn3
 BYTE   N96  Dn4
 BYTE   W96
 BYTE   PEND 
//  #04 //023   ----------------------------------------
 BYTE   PATT
  POIN2 Label_0100B5E1
//  #04 //024   ----------------------------------------
 BYTE   N96  En3  v080
 BYTE   N96  An3
 BYTE   N96  Cn4
 BYTE   W96
//  #04 //025   ----------------------------------------
Label_0100B5F7:
 BYTE   N96  Fn3  v080
 BYTE   N96  An3
 BYTE   N96  Cn4
 BYTE   W96
 BYTE   PEND 
//  #04 //026   ----------------------------------------
 BYTE   Fn3
 BYTE   N96  Gn3
 BYTE   N48  Cn4
 BYTE   W48
 BYTE   Bn3
 BYTE   W48
//  #04 //027   ----------------------------------------
 BYTE   N96  En3
 BYTE   N96  Gn3
 BYTE   N96  Bn3
 BYTE   W96
//  #04 //028   ----------------------------------------
 BYTE   En3
 BYTE   N96  An3
 BYTE   N96  Cn4
 BYTE   W96
//  #04 //029   ----------------------------------------
 BYTE   PATT
  POIN2 Label_0100B5D8
//  #04 //030   ----------------------------------------
 BYTE   PATT
  POIN2 Label_0100B5E1
//  #04 //031   ----------------------------------------
 BYTE   PATT
  POIN2 Label_0100B5E1
//  #04 //032   ----------------------------------------
 BYTE   N96  En3  v080
 BYTE   N96  An3
 BYTE   N96  Cs4
 BYTE   W96
//  #04 //033   ----------------------------------------
 BYTE   PATT
  POIN2 Label_0100B5F7
//  #04 //034   ----------------------------------------
 BYTE   N96  Fn3  v080
 BYTE   N96  As3
 BYTE   N96  Dn4
 BYTE   W96
//  #04 //035   ----------------------------------------
 BYTE   Gn3
 BYTE   N96  As3
 BYTE   N96  Ds4
 BYTE   W96
//  #04 //036   ----------------------------------------
 BYTE   Ds3
 BYTE   N96  As3
 BYTE   N96  Ds4
 BYTE   W96
//  #04 //037   ----------------------------------------
 BYTE   TIE  Dn3
 BYTE   TIE  Fs3
 BYTE   TIE  Dn4
 BYTE   W96
//  #04 //038   ----------------------------------------
 BYTE   W96
//  #04 //039   ----------------------------------------
 BYTE   EOT
 BYTE   Dn3  v066
 BYTE   Dn4
 BYTE   TIE  Dn3
 BYTE   TIE  Gs3
 BYTE   TIE  Dn4
 BYTE   W96
//  #04 //040   ----------------------------------------
 BYTE   W96
//  #04 //041   ----------------------------------------
 BYTE   EOT
 BYTE   Dn3  v068
 BYTE   Dn4
 BYTE   GoTo
  POIN2 Label_0100B547
//  #04 //042   ----------------------------------------
 BYTE   N96  Cn3  v080
 BYTE   N96  An3
 BYTE   N96  En4
 BYTE   W96
 BYTE   FINE

//**************** Track 5 (Midi-Chn.4) ****************//

SearchingForFriends_005:
//  #05 //000   ----------------------------------------
 BYTE   KEYSH   SearchingForFriends_key+0
 BYTE   VOICE   38
 BYTE   LFOS 44
 BYTE   VOL   53*SearchingForFriends_mvl/mxv
 BYTE   PAN   c_v+32
 BYTE   VOL   30*SearchingForFriends_mvl/mxv
 BYTE   BEND   c_v+0
 BYTE   N84  An1  v127
 BYTE   W84
 BYTE   N06  En1
 BYTE   W06
 BYTE   Fn1
 BYTE   W06
//  #05 //001   ----------------------------------------
 BYTE   N96  An1
 BYTE   W96
//  #05 //002   ----------------------------------------
 BYTE   N84
 BYTE   W84
 BYTE   N06  Dn1
 BYTE   W06
 BYTE   En1
 BYTE   W06
//  #05 //003   ----------------------------------------
 BYTE   N72  An0
 BYTE   W72
 BYTE   BEND   c_v+63
 BYTE   N24  Dn1
 BYTE   W01
 BYTE   BEND   c_v+58
 BYTE   W01
 BYTE   BEND   c_v+53
 BYTE   W01
 BYTE   BEND   c_v+48
 BYTE   W01
 BYTE   BEND   c_v+42
 BYTE   W01
 BYTE   BEND   c_v+37
 BYTE   W01
 BYTE   BEND   c_v+32
 BYTE   W01
 BYTE   BEND   c_v+26
 BYTE   W01
 BYTE   BEND   c_v+21
 BYTE   W01
 BYTE   BEND   c_v+16
 BYTE   W01
 BYTE   BEND   c_v+10
 BYTE   W01
 BYTE   BEND   c_v+5
 BYTE   W01
 BYTE   BEND   c_v+0
 BYTE   W01
 BYTE   BEND   c_v-6
 BYTE   W01
 BYTE   BEND   c_v-11
 BYTE   W01
 BYTE   BEND   c_v-16
 BYTE   W01
 BYTE   BEND   c_v-22
 BYTE   W01
 BYTE   BEND   c_v-27
 BYTE   W01
 BYTE   BEND   c_v-32
 BYTE   W01
 BYTE   BEND   c_v-38
 BYTE   W01
 BYTE   BEND   c_v-43
 BYTE   W01
 BYTE   BEND   c_v-48
 BYTE   W01
 BYTE   BEND   c_v-54
 BYTE   W01
 BYTE   BEND   c_v-59
 BYTE   W01
//  #05 //004   ----------------------------------------
Label_01004FE4:
 BYTE   BEND   c_v+0
 BYTE   N36  An1  v127
 BYTE   W36
 BYTE   N12  Gn1
 BYTE   W12
 BYTE   N36  Fn1
 BYTE   W36
 BYTE   N06  Cn1
 BYTE   W06
 BYTE   Dn1
 BYTE   W06
 BYTE   PEND 
//  #05 //005   ----------------------------------------
Label_01004FF6:
 BYTE   N24  En1  v127
 BYTE   W24
 BYTE   BEND   c_v+63
 BYTE   N24  Cn1
 BYTE   W12
 BYTE   BEND   c_v+63
 BYTE   W01
 BYTE   BEND   c_v+53
 BYTE   W01
 BYTE   BEND   c_v+42
 BYTE   W01
 BYTE   BEND   c_v+32
 BYTE   W01
 BYTE   BEND   c_v+21
 BYTE   W01
 BYTE   BEND   c_v+10
 BYTE   W01
 BYTE   BEND   c_v+0
 BYTE   W06
 BYTE   N48
 BYTE   W48
 BYTE   PEND 
//  #05 //006   ----------------------------------------
Label_01005011:
 BYTE   N36  Fn1  v127
 BYTE   W36
 BYTE   N12
 BYTE   W12
 BYTE   N18  Dn1
 BYTE   W18
 BYTE   Dn2
 BYTE   W18
 BYTE   N12  Ds1
 BYTE   W12
 BYTE   PEND 
//  #05 //007   ----------------------------------------
Label_01005020:
 BYTE   N66  En1  v127
 BYTE   W66
 BYTE   N18  Fs1
 BYTE   W18
 BYTE   N12  Gs1
 BYTE   W12
 BYTE   PEND 
//  #05 //008   ----------------------------------------
Label_0100502B:
 BYTE   N36  An1  v127
 BYTE   W36
 BYTE   N12  Gn1
 BYTE   W12
 BYTE   N36  Fn1
 BYTE   W36
 BYTE   N06  En1
 BYTE   W06
 BYTE   Fn1
 BYTE   W06
 BYTE   PEND 
//  #05 //009   ----------------------------------------
Label_0100503B:
 BYTE   N24  Gn1  v127
 BYTE   W24
 BYTE   BEND   c_v-32
 BYTE   N24  Ds1
 BYTE   W09
 BYTE   BEND   c_v-32
 BYTE   W01
 BYTE   BEND   c_v-27
 BYTE   W01
 BYTE   BEND   c_v-22
 BYTE   W01
 BYTE   BEND   c_v-16
 BYTE   W01
 BYTE   BEND   c_v-11
 BYTE   W01
 BYTE   BEND   c_v-6
 BYTE   W01
 BYTE   BEND   c_v+0
 BYTE   W09
 BYTE   N18  En1
 BYTE   W18
 BYTE   En2
 BYTE   W18
 BYTE   N12  Ds2
 BYTE   W12
 BYTE   PEND 
//  #05 //010   ----------------------------------------
Label_0100505C:
 BYTE   N24  Dn2  v127
 BYTE   W24
 BYTE   BEND   c_v-32
 BYTE   N24  Ds1
 BYTE   W09
 BYTE   BEND   c_v-32
 BYTE   W01
 BYTE   BEND   c_v-27
 BYTE   W01
 BYTE   BEND   c_v-22
 BYTE   W01
 BYTE   BEND   c_v-16
 BYTE   W01
 BYTE   BEND   c_v-11
 BYTE   W01
 BYTE   BEND   c_v-6
 BYTE   W01
 BYTE   BEND   c_v+0
 BYTE   W09
 BYTE   N18  En1
 BYTE   W18
 BYTE   Bn1
 BYTE   W18
 BYTE   N12  Gs1
 BYTE   W12
 BYTE   PEND 
//  #05 //011   ----------------------------------------
 BYTE   N72  An1
 BYTE   W72
 BYTE   BEND   c_v+63
 BYTE   N24  Dn2
 BYTE   W01
 BYTE   BEND   c_v+58
 BYTE   W01
 BYTE   BEND   c_v+53
 BYTE   W01
 BYTE   BEND   c_v+48
 BYTE   W01
 BYTE   BEND   c_v+42
 BYTE   W01
 BYTE   BEND   c_v+37
 BYTE   W01
 BYTE   BEND   c_v+32
 BYTE   W01
 BYTE   BEND   c_v+26
 BYTE   W01
 BYTE   BEND   c_v+21
 BYTE   W01
 BYTE   BEND   c_v+16
 BYTE   W01
 BYTE   BEND   c_v+10
 BYTE   W01
 BYTE   BEND   c_v+5
 BYTE   W01
 BYTE   BEND   c_v+0
 BYTE   W01
 BYTE   BEND   c_v-6
 BYTE   W01
 BYTE   BEND   c_v-11
 BYTE   W01
 BYTE   BEND   c_v-16
 BYTE   W01
 BYTE   BEND   c_v-22
 BYTE   W01
 BYTE   BEND   c_v-27
 BYTE   W01
 BYTE   BEND   c_v-32
 BYTE   W01
 BYTE   BEND   c_v-38
 BYTE   W01
 BYTE   BEND   c_v-43
 BYTE   W01
 BYTE   BEND   c_v-48
 BYTE   W01
 BYTE   BEND   c_v-54
 BYTE   W01
 BYTE   BEND   c_v-59
 BYTE   W01
//  #05 //012   ----------------------------------------
 BYTE   PATT
  POIN2 Label_01004FE4
//  #05 //013   ----------------------------------------
 BYTE   PATT
  POIN2 Label_01004FF6
//  #05 //014   ----------------------------------------
 BYTE   PATT
  POIN2 Label_01005011
//  #05 //015   ----------------------------------------
 BYTE   PATT
  POIN2 Label_01005020
//  #05 //016   ----------------------------------------
 BYTE   PATT
  POIN2 Label_0100502B
//  #05 //017   ----------------------------------------
 BYTE   PATT
  POIN2 Label_0100503B
//  #05 //018   ----------------------------------------
 BYTE   PATT
  POIN2 Label_0100505C
//  #05 //019   ----------------------------------------
 BYTE   N72  An1  v127
 BYTE   W72
 BYTE   N24  En1
 BYTE   W24
//  #05 //020   ----------------------------------------
 BYTE   N96  An0
 BYTE   W96
//  #05 //021   ----------------------------------------
Label_010050E1:
 BYTE   N12  Fn1  v127
 BYTE   W12
 BYTE   N12
 BYTE   W24
 BYTE   Cn2
 BYTE   W24
 BYTE   N24  Fn2
 BYTE   W24
 BYTE   N12  Cn2
 BYTE   W12
 BYTE   PEND 
//  #05 //022   ----------------------------------------
Label_010050F0:
 BYTE   N12  Fn1  v127
 BYTE   W12
 BYTE   N12
 BYTE   W36
 BYTE   N12
 BYTE   W12
 BYTE   N12
 BYTE   W36
 BYTE   PEND 
//  #05 //023   ----------------------------------------
Label_010050FB:
 BYTE   N12  En1  v127
 BYTE   W12
 BYTE   N12
 BYTE   W24
 BYTE   Bn1
 BYTE   W24
 BYTE   N24  En2
 BYTE   W24
 BYTE   N12  Bn1
 BYTE   W12
 BYTE   PEND 
//  #05 //024   ----------------------------------------
Label_0100510A:
 BYTE   N12  An1  v127
 BYTE   W12
 BYTE   N12
 BYTE   W48
 BYTE   En2
 BYTE   W12
 BYTE   An1
 BYTE   W12
 BYTE   En1
 BYTE   W12
 BYTE   PEND 
//  #05 //025   ----------------------------------------
Label_01005117:
 BYTE   N12  Dn1  v127
 BYTE   W12
 BYTE   N12
 BYTE   W24
 BYTE   An1
 BYTE   W24
 BYTE   N24  Dn2
 BYTE   W24
 BYTE   N12  An1
 BYTE   W12
 BYTE   PEND 
//  #05 //026   ----------------------------------------
 BYTE   Gn1
 BYTE   W12
 BYTE   N12
 BYTE   W36
 BYTE   N12
 BYTE   W12
 BYTE   N12
 BYTE   W36
//  #05 //027   ----------------------------------------
 BYTE   Cn2
 BYTE   W12
 BYTE   N12
 BYTE   W24
 BYTE   Gn1
 BYTE   W24
 BYTE   N24  Cn2
 BYTE   W24
 BYTE   N12  Gn1
 BYTE   W12
//  #05 //028   ----------------------------------------
 BYTE   An1
 BYTE   W12
 BYTE   N12
 BYTE   W36
 BYTE   Gn1
 BYTE   W12
 BYTE   N12
 BYTE   W36
//  #05 //029   ----------------------------------------
 BYTE   PATT
  POIN2 Label_010050E1
//  #05 //030   ----------------------------------------
 BYTE   PATT
  POIN2 Label_010050F0
//  #05 //031   ----------------------------------------
 BYTE   PATT
  POIN2 Label_010050FB
//  #05 //032   ----------------------------------------
 BYTE   PATT
  POIN2 Label_0100510A
//  #05 //033   ----------------------------------------
 BYTE   PATT
  POIN2 Label_01005117
//  #05 //034   ----------------------------------------
 BYTE   N12  As1  v127
 BYTE   W12
 BYTE   N12
 BYTE   W36
 BYTE   N12
 BYTE   W12
 BYTE   N12
 BYTE   W36
//  #05 //035   ----------------------------------------
 BYTE   Ds1
 BYTE   W12
 BYTE   N12
 BYTE   W24
 BYTE   As1
 BYTE   W24
 BYTE   N24  Ds2
 BYTE   W24
 BYTE   N12  Dn2
 BYTE   W12
//  #05 //036   ----------------------------------------
 BYTE   Cn2
 BYTE   W12
 BYTE   N12
 BYTE   W36
 BYTE   Gn1
 BYTE   W12
 BYTE   N12
 BYTE   W36
//  #05 //037   ----------------------------------------
 BYTE   PATT
  POIN2 Label_010050FB
//  #05 //038   ----------------------------------------
 BYTE   N12  En1  v127
 BYTE   W12
 BYTE   N12
 BYTE   W36
 BYTE   N12
 BYTE   W12
 BYTE   N12
 BYTE   W36
//  #05 //039   ----------------------------------------
 BYTE   PATT
  POIN2 Label_010050FB
//  #05 //040   ----------------------------------------
 BYTE   BEND   c_v-64
 BYTE   N24  En1  v127
 BYTE   W09
 BYTE   BEND   c_v-64
 BYTE   W01
 BYTE   BEND   c_v-54
 BYTE   W01
 BYTE   BEND   c_v-43
 BYTE   W01
 BYTE   BEND   c_v-32
 BYTE   W01
 BYTE   BEND   c_v-22
 BYTE   W01
 BYTE   BEND   c_v-11
 BYTE   W01
 BYTE   BEND   c_v+0
 BYTE   W09
 BYTE   N12  En2
 BYTE   W12
 BYTE   BEND   c_v-32
 BYTE   N36  Fs1
 BYTE   W21
 BYTE   BEND   c_v-32
 BYTE   W01
 BYTE   BEND   c_v-27
 BYTE   W01
 BYTE   BEND   c_v-22
 BYTE   W01
 BYTE   BEND   c_v-16
 BYTE   W01
 BYTE   BEND   c_v-11
 BYTE   W01
 BYTE   BEND   c_v-6
 BYTE   W01
 BYTE   BEND   c_v+0
 BYTE   W09
 BYTE   N12  En2
 BYTE   W12
 BYTE   Gs1
 BYTE   W12
//  #05 //041   ----------------------------------------
 BYTE   GoTo
  POIN2 Label_01004FE4
//  #05 //042   ----------------------------------------
 BYTE   N36  An1  v127
 BYTE   W36
 BYTE   N12  Gn1
 BYTE   W12
 BYTE   N36  Fn1
 BYTE   W36
 BYTE   N06  Cn1
 BYTE   W06
 BYTE   Dn1
 BYTE   W06
//  #05 //043   ----------------------------------------
 BYTE   BEND   c_v+0
 BYTE   FINE

//**************** Track 6 (Midi-Chn.5) ****************//

SearchingForFriends_006:
//  #06 //000   ----------------------------------------
 BYTE   KEYSH   SearchingForFriends_key+0
 BYTE   VOICE   124
 BYTE   LFOS 44
 BYTE   VOL   53*SearchingForFriends_mvl/mxv
 BYTE   PAN   c_v+0
 BYTE   VOL   12*SearchingForFriends_mvl/mxv
 BYTE   N12  As1  v028
 BYTE   W12
 BYTE   N06  Gs1  v016
 BYTE   W06
 BYTE   N06
 BYTE   W06
 BYTE   N12  As1  v028
 BYTE   W12
 BYTE   N06  Gs1  v016
 BYTE   W06
 BYTE   N06
 BYTE   W06
 BYTE   N12  As1  v032
 BYTE   W12
 BYTE   N06  Gs1  v016
 BYTE   W06
 BYTE   N06
 BYTE   W06
 BYTE   N12  As1  v036
 BYTE   W12
 BYTE   N06  Gs1  v020
 BYTE   W06
 BYTE   N06
 BYTE   W06
//  #06 //001   ----------------------------------------
 BYTE   N12  As1  v036
 BYTE   W12
 BYTE   N06  Gs1  v020
 BYTE   W06
 BYTE   N06
 BYTE   W06
 BYTE   N12  As1  v040
 BYTE   W12
 BYTE   N06  Gs1  v024
 BYTE   W06
 BYTE   N06
 BYTE   W06
 BYTE   N12  As1  v044
 BYTE   W12
 BYTE   N06  Gs1  v024
 BYTE   W06
 BYTE   N06
 BYTE   W06
 BYTE   N12  As1  v048
 BYTE   W12
 BYTE   N06  Gs1  v024
 BYTE   W06
 BYTE   N06
 BYTE   W06
//  #06 //002   ----------------------------------------
 BYTE   N12  As1  v052
 BYTE   W12
 BYTE   N06  Gs1  v028
 BYTE   W06
 BYTE   N06
 BYTE   W06
 BYTE   N12  As1  v056
 BYTE   W12
 BYTE   N06  Gs1  v028
 BYTE   W06
 BYTE   N06
 BYTE   W06
 BYTE   N12  As1  v056
 BYTE   W12
 BYTE   N06  Gs1  v032
 BYTE   W06
 BYTE   N06
 BYTE   W06
 BYTE   N12  As1  v060
 BYTE   W12
 BYTE   N06  Gs1  v032
 BYTE   W06
 BYTE   N06
 BYTE   W06
//  #06 //003   ----------------------------------------
 BYTE   N12  As1  v064
 BYTE   W12
 BYTE   N06  Gs1  v036
 BYTE   W06
 BYTE   N06
 BYTE   W06
 BYTE   N12  As1  v068
 BYTE   W12
 BYTE   N06  Gs1  v036
 BYTE   W06
 BYTE   N06
 BYTE   W06
 BYTE   N12  As1  v072
 BYTE   W12
 BYTE   N06  Gs1  v040
 BYTE   W06
 BYTE   N06
 BYTE   W06
 BYTE   N03
 BYTE   W03
 BYTE   N03
 BYTE   W03
 BYTE   N06  As1  v076
 BYTE   W06
 BYTE   N12  As1  v080
 BYTE   W12
//  #06 //004   ----------------------------------------
Label_0100B386:
 BYTE   N06  Gs1  v044
 BYTE   N12  As1  v104
 BYTE   W12
 BYTE   N06  Gs1  v016
 BYTE   W06
 BYTE   N06
 BYTE   W06
 BYTE   Gs1  v044
 BYTE   N12  As1  v080
 BYTE   W12
 BYTE   N06  Gs1  v016
 BYTE   W06
 BYTE   N06
 BYTE   W06
 BYTE   N04  Gs1  v044
 BYTE   W04
 BYTE   Gs1  v028
 BYTE   W04
 BYTE   Gs1  v016
 BYTE   W04
 BYTE   N06  Gs1  v044
 BYTE   W06
 BYTE   Gs1  v016
 BYTE   W06
 BYTE   Gs1  v044
 BYTE   N12  As1  v127
 BYTE   W12
 BYTE   N06  Gs1  v044
 BYTE   W06
 BYTE   N06
 BYTE   W06
 BYTE   PEND 
//  #06 //005   ----------------------------------------
 BYTE   PATT
  POIN2 Label_0100B386
//  #06 //006   ----------------------------------------
 BYTE   PATT
  POIN2 Label_0100B386
//  #06 //007   ----------------------------------------
 BYTE   PATT
  POIN2 Label_0100B386
//  #06 //008   ----------------------------------------
 BYTE   PATT
  POIN2 Label_0100B386
//  #06 //009   ----------------------------------------
 BYTE   PATT
  POIN2 Label_0100B386
//  #06 //010   ----------------------------------------
 BYTE   PATT
  POIN2 Label_0100B386
//  #06 //011   ----------------------------------------
 BYTE   PATT
  POIN2 Label_0100B386
//  #06 //012   ----------------------------------------
 BYTE   PATT
  POIN2 Label_0100B386
//  #06 //013   ----------------------------------------
 BYTE   PATT
  POIN2 Label_0100B386
//  #06 //014   ----------------------------------------
 BYTE   PATT
  POIN2 Label_0100B386
//  #06 //015   ----------------------------------------
 BYTE   PATT
  POIN2 Label_0100B386
//  #06 //016   ----------------------------------------
 BYTE   PATT
  POIN2 Label_0100B386
//  #06 //017   ----------------------------------------
 BYTE   PATT
  POIN2 Label_0100B386
//  #06 //018   ----------------------------------------
 BYTE   PATT
  POIN2 Label_0100B386
//  #06 //019   ----------------------------------------
 BYTE   PATT
  POIN2 Label_0100B386
//  #06 //020   ----------------------------------------
 BYTE   PATT
  POIN2 Label_0100B386
//  #06 //021   ----------------------------------------
Label_0100B40D:
 BYTE   N06  Gs1  v060
 BYTE   N12  As1  v104
 BYTE   W12
 BYTE   N06  Gs1  v028
 BYTE   W06
 BYTE   N06
 BYTE   W06
 BYTE   Gs1  v060
 BYTE   N12  As1  v080
 BYTE   W12
 BYTE   N06  Gs1  v028
 BYTE   W06
 BYTE   N06
 BYTE   W06
 BYTE   N04  Gs1  v060
 BYTE   W04
 BYTE   Gs1  v044
 BYTE   W04
 BYTE   Gs1  v028
 BYTE   W04
 BYTE   N06  Gs1  v060
 BYTE   W06
 BYTE   Gs1  v028
 BYTE   W06
 BYTE   Gs1  v060
 BYTE   N12  As1  v127
 BYTE   W12
 BYTE   N06  Gs1  v060
 BYTE   W06
 BYTE   N06
 BYTE   W06
 BYTE   PEND 
//  #06 //022   ----------------------------------------
 BYTE   PATT
  POIN2 Label_0100B40D
//  #06 //023   ----------------------------------------
 BYTE   PATT
  POIN2 Label_0100B40D
//  #06 //024   ----------------------------------------
 BYTE   PATT
  POIN2 Label_0100B40D
//  #06 //025   ----------------------------------------
 BYTE   PATT
  POIN2 Label_0100B40D
//  #06 //026   ----------------------------------------
 BYTE   PATT
  POIN2 Label_0100B40D
//  #06 //027   ----------------------------------------
 BYTE   PATT
  POIN2 Label_0100B40D
//  #06 //028   ----------------------------------------
 BYTE   PATT
  POIN2 Label_0100B40D
//  #06 //029   ----------------------------------------
 BYTE   PATT
  POIN2 Label_0100B40D
//  #06 //030   ----------------------------------------
 BYTE   PATT
  POIN2 Label_0100B40D
//  #06 //031   ----------------------------------------
 BYTE   PATT
  POIN2 Label_0100B40D
//  #06 //032   ----------------------------------------
 BYTE   PATT
  POIN2 Label_0100B40D
//  #06 //033   ----------------------------------------
 BYTE   PATT
  POIN2 Label_0100B40D
//  #06 //034   ----------------------------------------
 BYTE   PATT
  POIN2 Label_0100B40D
//  #06 //035   ----------------------------------------
 BYTE   PATT
  POIN2 Label_0100B40D
//  #06 //036   ----------------------------------------
 BYTE   PATT
  POIN2 Label_0100B40D
//  #06 //037   ----------------------------------------
 BYTE   PATT
  POIN2 Label_0100B40D
//  #06 //038   ----------------------------------------
 BYTE   PATT
  POIN2 Label_0100B40D
//  #06 //039   ----------------------------------------
 BYTE   PATT
  POIN2 Label_0100B40D
//  #06 //040   ----------------------------------------
 BYTE   PATT
  POIN2 Label_0100B40D
//  #06 //041   ----------------------------------------
 BYTE   GoTo
  POIN2 Label_0100B386
//  #06 //042   ----------------------------------------
 BYTE   PATT
  POIN2 Label_0100B386
 BYTE   FINE

//******************************************************//
	ALIGN 4

SearchingForFriends:
	BYTE	6	// NumTrks
	BYTE	0	// NumBlks
	BYTE	SearchingForFriends_pri	// Priority
	BYTE	SearchingForFriends_rev	// Reverb.
    
	POIN2	SearchingForFriends_grp
    
	POIN2	SearchingForFriends_001
	POIN2	SearchingForFriends_002
	POIN2	SearchingForFriends_003
	POIN2	SearchingForFriends_004
	POIN2	SearchingForFriends_005
	POIN2	SearchingForFriends_006

	
