//Event file generated from Sappy .s format.
	#include "MPlayDef.event"

	#define	SearchingTheEnemy_grp  voicegroup000
	#define	SearchingTheEnemy_pri  0
	#define	SearchingTheEnemy_rev  0
	#define	SearchingTheEnemy_mvl  127
	#define	SearchingTheEnemy_key  0
	#define	SearchingTheEnemy_tbs  1
	#define	SearchingTheEnemy_exg  0
	#define	SearchingTheEnemy_cmp  1

	// .rodata
	//	SearchingTheEnemy
	ALIGN 4


//**************** Track 1 (Midi-Chn.0) ****************//

SearchingTheEnemy_001:
//  #01 //000   ----------------------------------------
 BYTE   KEYSH   SearchingTheEnemy_key+0
Label_FAA5C6:
 BYTE   TEMPO   110*SearchingTheEnemy_tbs/2
 BYTE   VOICE   56
 BYTE   VOL   51*SearchingTheEnemy_mvl/mxv
 BYTE   N24  An2  v100
 BYTE   W42
 BYTE   N06
 BYTE   W06
 BYTE   TIE  Bn2
 BYTE   W48
//  #01 //001   ----------------------------------------
 BYTE   W72
 BYTE   EOT
 BYTE   W24
//  #01 //002   ----------------------------------------
Label_FAA5D8:
 BYTE   N24  An2  v100
 BYTE   W42
 BYTE   N06  Bn2  v104
 BYTE   W06
 BYTE   N60  Cn3  v100
 BYTE   W48
 BYTE   PEND 
//  #01 //003   ----------------------------------------
Label_FAA5E5:
 BYTE   W24
 BYTE   N18  Gn3  v100
 BYTE   W24
 BYTE   Fs3
 BYTE   W24
 BYTE   Dn3
 BYTE   W24
 BYTE   PEND 
//  #01 //004   ----------------------------------------
 BYTE   N96  En3
 BYTE   W96
//  #01 //005   ----------------------------------------
 BYTE   N72  An2
 BYTE   W96
//  #01 //006   ----------------------------------------
Label_FAA5F5:
 BYTE   N24  An2  v100
 BYTE   W42
 BYTE   N06
 BYTE   W06
 BYTE   TIE  Bn2
 BYTE   W48
 BYTE   PEND 
//  #01 //007   ----------------------------------------
 BYTE   W72
 BYTE   EOT
 BYTE   W24
//  #01 //008   ----------------------------------------
 BYTE   PATT
  POIN2 Label_FAA5D8
//  #01 //009   ----------------------------------------
Label_FAA607:
 BYTE   W24
 BYTE   N18  Bn2  v100
 BYTE   W24
 BYTE   Cn3
 BYTE   W24
 BYTE   Dn3
 BYTE   W24
 BYTE   PEND 
//  #01 //010   ----------------------------------------
Label_FAA611:
 BYTE   N36  Dn3  v100
 BYTE   W36
 BYTE   N12  Cn3
 BYTE   W12
 BYTE   N72
 BYTE   W48
 BYTE   PEND 
//  #01 //011   ----------------------------------------
Label_FAA61B:
 BYTE   W48
 BYTE   N18  En3  v100
 BYTE   W24
 BYTE   Gn3
 BYTE   W24
 BYTE   PEND 
//  #01 //012   ----------------------------------------
Label_FAA623:
 BYTE   N36  Fs3  v100
 BYTE   W48
 BYTE   Dn3
 BYTE   W48
 BYTE   PEND 
//  #01 //013   ----------------------------------------
 BYTE   N72  En3
 BYTE   W96
//  #01 //014   ----------------------------------------
 BYTE   W96
//  #01 //015   ----------------------------------------
 BYTE   W96
//  #01 //016   ----------------------------------------
 BYTE   W96
//  #01 //017   ----------------------------------------
 BYTE   W96
//  #01 //018   ----------------------------------------
 BYTE   W96
//  #01 //019   ----------------------------------------
 BYTE   W96
//  #01 //020   ----------------------------------------
Label_FAA633:
 BYTE   W84
 BYTE   N06  En2  v100
 BYTE   W06
 BYTE   An2
 BYTE   W06
 BYTE   PEND 
//  #01 //021   ----------------------------------------
 BYTE   N72  Bn2
 BYTE   W96
//  #01 //022   ----------------------------------------
 BYTE   GoTo
  POIN2 Label_FAA5C6
//  #01 //023   ----------------------------------------
 BYTE   VOL   51*SearchingTheEnemy_mvl/mxv
 BYTE   N24  An2  v100
 BYTE   W42
 BYTE   N06
 BYTE   W06
 BYTE   TIE  Bn2
 BYTE   W48
//  #01 //024   ----------------------------------------
 BYTE   W72
 BYTE   EOT
 BYTE   W24
//  #01 //025   ----------------------------------------
 BYTE   PATT
  POIN2 Label_FAA5D8
//  #01 //026   ----------------------------------------
 BYTE   PATT
  POIN2 Label_FAA5E5
//  #01 //027   ----------------------------------------
 BYTE   N96  En3  v100
 BYTE   W96
//  #01 //028   ----------------------------------------
 BYTE   N72  An2
 BYTE   W96
//  #01 //029   ----------------------------------------
 BYTE   PATT
  POIN2 Label_FAA5F5
//  #01 //030   ----------------------------------------
 BYTE   W72
 BYTE   EOT
 BYTE   Bn2
 BYTE   W24
//  #01 //031   ----------------------------------------
 BYTE   PATT
  POIN2 Label_FAA5D8
//  #01 //032   ----------------------------------------
 BYTE   PATT
  POIN2 Label_FAA607
//  #01 //033   ----------------------------------------
 BYTE   PATT
  POIN2 Label_FAA611
//  #01 //034   ----------------------------------------
 BYTE   PATT
  POIN2 Label_FAA61B
//  #01 //035   ----------------------------------------
 BYTE   PATT
  POIN2 Label_FAA623
//  #01 //036   ----------------------------------------
 BYTE   N72  En3  v100
 BYTE   W96
//  #01 //037   ----------------------------------------
 BYTE   W96
//  #01 //038   ----------------------------------------
 BYTE   W96
//  #01 //039   ----------------------------------------
 BYTE   W96
//  #01 //040   ----------------------------------------
 BYTE   W96
//  #01 //041   ----------------------------------------
 BYTE   W96
//  #01 //042   ----------------------------------------
 BYTE   W96
//  #01 //043   ----------------------------------------
 BYTE   PATT
  POIN2 Label_FAA633
//  #01 //044   ----------------------------------------
 BYTE   N72  Bn2  v100
 BYTE   W90
 BYTE   TEMPO   110*SearchingTheEnemy_tbs/2
 BYTE   VOICE   56
 BYTE   VOL   51*SearchingTheEnemy_mvl/mxv
 BYTE   FINE

//**************** Track 2 (Midi-Chn.1) ****************//

SearchingTheEnemy_002:
//  #02 //000   ----------------------------------------
 BYTE   KEYSH   SearchingTheEnemy_key+0
Label_FAA456:
 BYTE   VOICE   56
 BYTE   VOL   51*SearchingTheEnemy_mvl/mxv
 BYTE   N24  En2  v100
 BYTE   W42
 BYTE   N06
 BYTE   W06
 BYTE   TIE  Fs2
 BYTE   W48
//  #02 //001   ----------------------------------------
 BYTE   W72
 BYTE   EOT
 BYTE   W24
//  #02 //002   ----------------------------------------
Label_FAA466:
 BYTE   N24  En2  v100
 BYTE   W42
 BYTE   N06  Fs2
 BYTE   W06
 BYTE   N60  Gn2
 BYTE   W48
 BYTE   PEND 
//  #02 //003   ----------------------------------------
 BYTE   W96
//  #02 //004   ----------------------------------------
 BYTE   N96  An2
 BYTE   W96
//  #02 //005   ----------------------------------------
 BYTE   N72  En2
 BYTE   W96
//  #02 //006   ----------------------------------------
Label_FAA478:
 BYTE   N24  En2  v100
 BYTE   W42
 BYTE   N06
 BYTE   W06
 BYTE   TIE  Fs2
 BYTE   W48
 BYTE   PEND 
//  #02 //007   ----------------------------------------
 BYTE   W72
 BYTE   EOT
 BYTE   W24
//  #02 //008   ----------------------------------------
 BYTE   PATT
  POIN2 Label_FAA466
//  #02 //009   ----------------------------------------
Label_FAA48A:
 BYTE   W24
 BYTE   N18  Fs2  v100
 BYTE   W24
 BYTE   Gn2
 BYTE   W24
 BYTE   An2
 BYTE   W24
 BYTE   PEND 
//  #02 //010   ----------------------------------------
Label_FAA494:
 BYTE   N36  An2  v100
 BYTE   W36
 BYTE   N12  Gn2
 BYTE   W12
 BYTE   N72
 BYTE   W48
 BYTE   PEND 
//  #02 //011   ----------------------------------------
 BYTE   W96
//  #02 //012   ----------------------------------------
 BYTE   W96
//  #02 //013   ----------------------------------------
 BYTE   W96
//  #02 //014   ----------------------------------------
 BYTE   W96
//  #02 //015   ----------------------------------------
 BYTE   W96
//  #02 //016   ----------------------------------------
 BYTE   W96
//  #02 //017   ----------------------------------------
 BYTE   W96
//  #02 //018   ----------------------------------------
 BYTE   W96
//  #02 //019   ----------------------------------------
 BYTE   W96
//  #02 //020   ----------------------------------------
 BYTE   W96
//  #02 //021   ----------------------------------------
 BYTE   En2
 BYTE   W96
//  #02 //022   ----------------------------------------
 BYTE   GoTo
  POIN2 Label_FAA456
//  #02 //023   ----------------------------------------
 BYTE   VOL   51*SearchingTheEnemy_mvl/mxv
 BYTE   N24  En2  v100
 BYTE   W42
 BYTE   N06
 BYTE   W06
 BYTE   TIE  Fs2
 BYTE   W48
//  #02 //024   ----------------------------------------
 BYTE   W72
 BYTE   EOT
 BYTE   W24
//  #02 //025   ----------------------------------------
 BYTE   PATT
  POIN2 Label_FAA466
//  #02 //026   ----------------------------------------
 BYTE   W96
//  #02 //027   ----------------------------------------
 BYTE   N96  An2  v100
 BYTE   W96
//  #02 //028   ----------------------------------------
 BYTE   N72  En2
 BYTE   W96
//  #02 //029   ----------------------------------------
 BYTE   PATT
  POIN2 Label_FAA478
//  #02 //030   ----------------------------------------
 BYTE   W72
 BYTE   EOT
 BYTE   Fs2
 BYTE   W24
//  #02 //031   ----------------------------------------
 BYTE   PATT
  POIN2 Label_FAA466
//  #02 //032   ----------------------------------------
 BYTE   PATT
  POIN2 Label_FAA48A
//  #02 //033   ----------------------------------------
 BYTE   PATT
  POIN2 Label_FAA494
//  #02 //034   ----------------------------------------
 BYTE   W96
//  #02 //035   ----------------------------------------
 BYTE   W96
//  #02 //036   ----------------------------------------
 BYTE   W96
//  #02 //037   ----------------------------------------
 BYTE   W96
//  #02 //038   ----------------------------------------
 BYTE   W96
//  #02 //039   ----------------------------------------
 BYTE   W96
//  #02 //040   ----------------------------------------
 BYTE   W96
//  #02 //041   ----------------------------------------
 BYTE   W96
//  #02 //042   ----------------------------------------
 BYTE   W96
//  #02 //043   ----------------------------------------
 BYTE   W96
//  #02 //044   ----------------------------------------
 BYTE   N72  En2  v100
 BYTE   W90
 BYTE   VOICE   56
 BYTE   VOL   51*SearchingTheEnemy_mvl/mxv
 BYTE   FINE

//**************** Track 3 (Midi-Chn.2) ****************//

SearchingTheEnemy_003:
//  #03 //000   ----------------------------------------
 BYTE   KEYSH   SearchingTheEnemy_key+0
Label_FAA52A:
 BYTE   VOICE   57
 BYTE   VOL   47*SearchingTheEnemy_mvl/mxv
 BYTE   W96
//  #03 //001   ----------------------------------------
 BYTE   W96
//  #03 //002   ----------------------------------------
 BYTE   W96
//  #03 //003   ----------------------------------------
 BYTE   W96
//  #03 //004   ----------------------------------------
 BYTE   W96
//  #03 //005   ----------------------------------------
 BYTE   W96
//  #03 //006   ----------------------------------------
 BYTE   W96
//  #03 //007   ----------------------------------------
 BYTE   W96
//  #03 //008   ----------------------------------------
 BYTE   W96
//  #03 //009   ----------------------------------------
 BYTE   W96
//  #03 //010   ----------------------------------------
 BYTE   W96
//  #03 //011   ----------------------------------------
 BYTE   W96
//  #03 //012   ----------------------------------------
 BYTE   W96
//  #03 //013   ----------------------------------------
Label_FAA53B:
 BYTE   W84
 BYTE   N06  En3  v100
 BYTE   W06
 BYTE   Fn3
 BYTE   W06
 BYTE   PEND 
//  #03 //014   ----------------------------------------
Label_FAA543:
 BYTE   N36  Gn3  v100
 BYTE   W36
 BYTE   N12  Cn3
 BYTE   W12
 BYTE   N24
 BYTE   W24
 BYTE   An3
 BYTE   W24
 BYTE   PEND 
//  #03 //015   ----------------------------------------
Label_FAA54F:
 BYTE   N36  Gn3  v100
 BYTE   W36
 BYTE   N12  Fn3
 BYTE   W12
 BYTE   N24
 BYTE   W24
 BYTE   En3
 BYTE   W24
 BYTE   PEND 
//  #03 //016   ----------------------------------------
Label_FAA55B:
 BYTE   N36  Gn3  v100
 BYTE   W36
 BYTE   Cn3
 BYTE   W36
 BYTE   N24  Dn3
 BYTE   W24
 BYTE   PEND 
//  #03 //017   ----------------------------------------
Label_FAA565:
 BYTE   N36  En3  v100
 BYTE   W36
 BYTE   Dn3
 BYTE   W36
 BYTE   N24  Gn3
 BYTE   W24
 BYTE   PEND 
//  #03 //018   ----------------------------------------
 BYTE   TIE  En4
 BYTE   W96
//  #03 //019   ----------------------------------------
 BYTE   W72
 BYTE   EOT
 BYTE   W12
 BYTE   N06
 BYTE   W06
 BYTE   An4
 BYTE   W06
//  #03 //020   ----------------------------------------
 BYTE   TIE  Bn4
 BYTE   W96
//  #03 //021   ----------------------------------------
 BYTE   W72
 BYTE   EOT
 BYTE   W24
//  #03 //022   ----------------------------------------
 BYTE   GoTo
  POIN2 Label_FAA52A
//  #03 //023   ----------------------------------------
 BYTE   W96
//  #03 //024   ----------------------------------------
 BYTE   W96
//  #03 //025   ----------------------------------------
 BYTE   W96
//  #03 //026   ----------------------------------------
 BYTE   W96
//  #03 //027   ----------------------------------------
 BYTE   W96
//  #03 //028   ----------------------------------------
 BYTE   W96
//  #03 //029   ----------------------------------------
 BYTE   W96
//  #03 //030   ----------------------------------------
 BYTE   W96
//  #03 //031   ----------------------------------------
 BYTE   W96
//  #03 //032   ----------------------------------------
 BYTE   W96
//  #03 //033   ----------------------------------------
 BYTE   W96
//  #03 //034   ----------------------------------------
 BYTE   W96
//  #03 //035   ----------------------------------------
 BYTE   W96
//  #03 //036   ----------------------------------------
 BYTE   PATT
  POIN2 Label_FAA53B
//  #03 //037   ----------------------------------------
 BYTE   PATT
  POIN2 Label_FAA543
//  #03 //038   ----------------------------------------
 BYTE   PATT
  POIN2 Label_FAA54F
//  #03 //039   ----------------------------------------
 BYTE   PATT
  POIN2 Label_FAA55B
//  #03 //040   ----------------------------------------
 BYTE   PATT
  POIN2 Label_FAA565
//  #03 //041   ----------------------------------------
 BYTE   TIE  En4  v100
 BYTE   W96
//  #03 //042   ----------------------------------------
 BYTE   W72
 BYTE   EOT
 BYTE   W12
 BYTE   N06
 BYTE   W06
 BYTE   An4
 BYTE   W06
//  #03 //043   ----------------------------------------
 BYTE   TIE  Bn4
 BYTE   W96
//  #03 //044   ----------------------------------------
 BYTE   W72
 BYTE   EOT
 BYTE   W18
 BYTE   VOICE   57
 BYTE   VOL   47*SearchingTheEnemy_mvl/mxv
 BYTE   FINE

//**************** Track 4 (Midi-Chn.3) ****************//

SearchingTheEnemy_004:
//  #04 //000   ----------------------------------------
 BYTE   KEYSH   SearchingTheEnemy_key+0
Label_FAA962:
 BYTE   VOICE   57
 BYTE   VOL   47*SearchingTheEnemy_mvl/mxv
 BYTE   W84
 BYTE   N06  En2  v100
 BYTE   W06
 BYTE   An2
 BYTE   W06
//  #04 //001   ----------------------------------------
 BYTE   N72  Bn2
 BYTE   W96
//  #04 //002   ----------------------------------------
Label_FAA970:
 BYTE   W84
 BYTE   N06  An2  v100
 BYTE   W06
 BYTE   Bn2
 BYTE   W06
 BYTE   PEND 
//  #04 //003   ----------------------------------------
Label_FAA978:
 BYTE   N12  Cn3  v100
 BYTE   W24
 BYTE   Gn3
 BYTE   W24
 BYTE   Fs3
 BYTE   W24
 BYTE   Dn3
 BYTE   W24
 BYTE   PEND 
//  #04 //004   ----------------------------------------
 BYTE   N96  En3
 BYTE   W96
//  #04 //005   ----------------------------------------
 BYTE   W96
//  #04 //006   ----------------------------------------
Label_FAA987:
 BYTE   W84
 BYTE   N06  En2  v100
 BYTE   W06
 BYTE   An2
 BYTE   W06
 BYTE   PEND 
//  #04 //007   ----------------------------------------
 BYTE   N72  Bn2
 BYTE   W96
//  #04 //008   ----------------------------------------
Label_FAA992:
 BYTE   W84
 BYTE   N06  Cn3  v100
 BYTE   W06
 BYTE   Dn3
 BYTE   W06
 BYTE   PEND 
//  #04 //009   ----------------------------------------
 BYTE   N36  En3
 BYTE   W48
 BYTE   Gn3
 BYTE   W48
//  #04 //010   ----------------------------------------
Label_FAA99F:
 BYTE   N36  Fs3  v100
 BYTE   W48
 BYTE   Dn3
 BYTE   W48
 BYTE   PEND 
//  #04 //011   ----------------------------------------
 BYTE   N96  En3
 BYTE   W96
//  #04 //012   ----------------------------------------
 BYTE   W96
//  #04 //013   ----------------------------------------
Label_FAA9AA:
 BYTE   W48
 BYTE   N06  An1  v100
 BYTE   W06
 BYTE   Bn1
 BYTE   W06
 BYTE   Cn2
 BYTE   W06
 BYTE   Dn2
 BYTE   W06
 BYTE   En2
 BYTE   W06
 BYTE   Fs2
 BYTE   W06
 BYTE   Gn2
 BYTE   W06
 BYTE   An2
 BYTE   W06
 BYTE   PEND 
//  #04 //014   ----------------------------------------
Label_FAA9BE:
 BYTE   N48  Bn2  v100
 BYTE   W48
 BYTE   An2
 BYTE   W48
 BYTE   PEND 
//  #04 //015   ----------------------------------------
Label_FAA9C5:
 BYTE   N48  En2  v100
 BYTE   W48
 BYTE   An2
 BYTE   W48
 BYTE   PEND 
//  #04 //016   ----------------------------------------
 BYTE   PATT
  POIN2 Label_FAA9BE
//  #04 //017   ----------------------------------------
Label_FAA9D1:
 BYTE   N48  Cn3  v100
 BYTE   W48
 BYTE   Bn2
 BYTE   W48
 BYTE   PEND 
//  #04 //018   ----------------------------------------
 BYTE   TIE  An3
 BYTE   W96
//  #04 //019   ----------------------------------------
 BYTE   W72
 BYTE   EOT
 BYTE   W24
//  #04 //020   ----------------------------------------
 BYTE   TIE  En4
 BYTE   W96
//  #04 //021   ----------------------------------------
 BYTE   W72
 BYTE   EOT
 BYTE   W24
//  #04 //022   ----------------------------------------
 BYTE   GoTo
  POIN2 Label_FAA962
//  #04 //023   ----------------------------------------
 BYTE   PATT
  POIN2 Label_FAA987
//  #04 //024   ----------------------------------------
 BYTE   N72  Bn2  v100
 BYTE   W96
//  #04 //025   ----------------------------------------
 BYTE   PATT
  POIN2 Label_FAA970
//  #04 //026   ----------------------------------------
 BYTE   PATT
  POIN2 Label_FAA978
//  #04 //027   ----------------------------------------
 BYTE   N96  En3  v100
 BYTE   W96
//  #04 //028   ----------------------------------------
 BYTE   W96
//  #04 //029   ----------------------------------------
 BYTE   PATT
  POIN2 Label_FAA987
//  #04 //030   ----------------------------------------
 BYTE   N72  Bn2  v100
 BYTE   W96
//  #04 //031   ----------------------------------------
 BYTE   PATT
  POIN2 Label_FAA992
//  #04 //032   ----------------------------------------
 BYTE   N36  En3  v100
 BYTE   W48
 BYTE   Gn3
 BYTE   W48
//  #04 //033   ----------------------------------------
 BYTE   PATT
  POIN2 Label_FAA99F
//  #04 //034   ----------------------------------------
 BYTE   N96  En3  v100
 BYTE   W96
//  #04 //035   ----------------------------------------
 BYTE   W96
//  #04 //036   ----------------------------------------
 BYTE   PATT
  POIN2 Label_FAA9AA
//  #04 //037   ----------------------------------------
 BYTE   PATT
  POIN2 Label_FAA9BE
//  #04 //038   ----------------------------------------
 BYTE   PATT
  POIN2 Label_FAA9C5
//  #04 //039   ----------------------------------------
 BYTE   PATT
  POIN2 Label_FAA9BE
//  #04 //040   ----------------------------------------
 BYTE   PATT
  POIN2 Label_FAA9D1
//  #04 //041   ----------------------------------------
 BYTE   TIE  An3  v100
 BYTE   W96
//  #04 //042   ----------------------------------------
 BYTE   W72
 BYTE   EOT
 BYTE   W24
//  #04 //043   ----------------------------------------
 BYTE   TIE  En4
 BYTE   W96
//  #04 //044   ----------------------------------------
 BYTE   W72
 BYTE   EOT
 BYTE   W18
 BYTE   VOICE   57
 BYTE   VOL   47*SearchingTheEnemy_mvl/mxv
 BYTE   FINE

//**************** Track 5 (Midi-Chn.4) ****************//

SearchingTheEnemy_005:
//  #05 //000   ----------------------------------------
 BYTE   KEYSH   SearchingTheEnemy_key+0
Label_FAACB6:
 BYTE   VOICE   57
 BYTE   VOL   47*SearchingTheEnemy_mvl/mxv
 BYTE   W96
//  #05 //001   ----------------------------------------
 BYTE   N72  En2  v100
 BYTE   W96
//  #05 //002   ----------------------------------------
 BYTE   W96
//  #05 //003   ----------------------------------------
Label_FAACC0:
 BYTE   N12  An2  v100
 BYTE   W24
 BYTE   En3
 BYTE   W24
 BYTE   Dn3
 BYTE   W24
 BYTE   An2
 BYTE   W24
 BYTE   PEND 
//  #05 //004   ----------------------------------------
 BYTE   N96
 BYTE   W96
//  #05 //005   ----------------------------------------
 BYTE   W96
//  #05 //006   ----------------------------------------
 BYTE   W96
//  #05 //007   ----------------------------------------
 BYTE   N72  En2
 BYTE   W96
//  #05 //008   ----------------------------------------
 BYTE   W96
//  #05 //009   ----------------------------------------
Label_FAACD3:
 BYTE   N36  An2  v100
 BYTE   W48
 BYTE   En3
 BYTE   W48
 BYTE   PEND 
//  #05 //010   ----------------------------------------
Label_FAACDA:
 BYTE   N36  Dn3  v100
 BYTE   W48
 BYTE   An2
 BYTE   W48
 BYTE   PEND 
//  #05 //011   ----------------------------------------
 BYTE   N96  Cn3
 BYTE   W96
//  #05 //012   ----------------------------------------
 BYTE   W96
//  #05 //013   ----------------------------------------
 BYTE   W96
//  #05 //014   ----------------------------------------
 BYTE   W96
//  #05 //015   ----------------------------------------
 BYTE   W96
//  #05 //016   ----------------------------------------
 BYTE   W96
//  #05 //017   ----------------------------------------
 BYTE   W96
//  #05 //018   ----------------------------------------
 BYTE   W96
//  #05 //019   ----------------------------------------
 BYTE   W96
//  #05 //020   ----------------------------------------
 BYTE   W96
//  #05 //021   ----------------------------------------
 BYTE   W96
//  #05 //022   ----------------------------------------
 BYTE   GoTo
  POIN2 Label_FAACB6
//  #05 //023   ----------------------------------------
 BYTE   W96
//  #05 //024   ----------------------------------------
 BYTE   N72  En2  v100
 BYTE   W96
//  #05 //025   ----------------------------------------
 BYTE   W96
//  #05 //026   ----------------------------------------
 BYTE   PATT
  POIN2 Label_FAACC0
//  #05 //027   ----------------------------------------
 BYTE   N96  An2  v100
 BYTE   W96
//  #05 //028   ----------------------------------------
 BYTE   W96
//  #05 //029   ----------------------------------------
 BYTE   W96
//  #05 //030   ----------------------------------------
 BYTE   N72  En2
 BYTE   W96
//  #05 //031   ----------------------------------------
 BYTE   W96
//  #05 //032   ----------------------------------------
 BYTE   PATT
  POIN2 Label_FAACD3
//  #05 //033   ----------------------------------------
 BYTE   PATT
  POIN2 Label_FAACDA
//  #05 //034   ----------------------------------------
 BYTE   N96  Cn3  v100
 BYTE   W96
//  #05 //035   ----------------------------------------
 BYTE   W96
//  #05 //036   ----------------------------------------
 BYTE   W96
//  #05 //037   ----------------------------------------
 BYTE   W96
//  #05 //038   ----------------------------------------
 BYTE   W96
//  #05 //039   ----------------------------------------
 BYTE   W96
//  #05 //040   ----------------------------------------
 BYTE   W96
//  #05 //041   ----------------------------------------
 BYTE   W96
//  #05 //042   ----------------------------------------
 BYTE   W96
//  #05 //043   ----------------------------------------
 BYTE   W96
//  #05 //044   ----------------------------------------
 BYTE   W90
 BYTE   VOICE   57
 BYTE   VOL   47*SearchingTheEnemy_mvl/mxv
 BYTE   FINE

//**************** Track 6 (Midi-Chn.5) ****************//

SearchingTheEnemy_006:
//  #06 //000   ----------------------------------------
 BYTE   KEYSH   SearchingTheEnemy_key+0
Label_FAA742:
 BYTE   VOICE   34
 BYTE   VOL   46*SearchingTheEnemy_mvl/mxv
 BYTE   N12  An0  v127
 BYTE   W12
 BYTE   An0  v100
 BYTE   W12
 BYTE   N12
 BYTE   W12
 BYTE   An0  v127
 BYTE   W12
 BYTE   An0  v100
 BYTE   W12
 BYTE   N12
 BYTE   W12
 BYTE   An0  v127
 BYTE   W12
 BYTE   An0  v100
 BYTE   W12
//  #06 //001   ----------------------------------------
Label_FAA75D:
 BYTE   N12  An0  v127
 BYTE   W12
 BYTE   An0  v100
 BYTE   W12
 BYTE   N12
 BYTE   W12
 BYTE   An0  v127
 BYTE   W12
 BYTE   An0  v100
 BYTE   W12
 BYTE   N12
 BYTE   W12
 BYTE   An0  v127
 BYTE   W12
 BYTE   An0  v100
 BYTE   W12
 BYTE   PEND 
//  #06 //002   ----------------------------------------
 BYTE   PATT
  POIN2 Label_FAA75D
//  #06 //003   ----------------------------------------
 BYTE   PATT
  POIN2 Label_FAA75D
//  #06 //004   ----------------------------------------
 BYTE   PATT
  POIN2 Label_FAA75D
//  #06 //005   ----------------------------------------
 BYTE   PATT
  POIN2 Label_FAA75D
//  #06 //006   ----------------------------------------
 BYTE   PATT
  POIN2 Label_FAA75D
//  #06 //007   ----------------------------------------
 BYTE   PATT
  POIN2 Label_FAA75D
//  #06 //008   ----------------------------------------
 BYTE   PATT
  POIN2 Label_FAA75D
//  #06 //009   ----------------------------------------
 BYTE   PATT
  POIN2 Label_FAA75D
//  #06 //010   ----------------------------------------
 BYTE   PATT
  POIN2 Label_FAA75D
//  #06 //011   ----------------------------------------
 BYTE   PATT
  POIN2 Label_FAA75D
//  #06 //012   ----------------------------------------
 BYTE   PATT
  POIN2 Label_FAA75D
//  #06 //013   ----------------------------------------
 BYTE   PATT
  POIN2 Label_FAA75D
//  #06 //014   ----------------------------------------
Label_FAA7B1:
 BYTE   N12  Fn0  v127
 BYTE   W12
 BYTE   Fn0  v100
 BYTE   W12
 BYTE   N12
 BYTE   W12
 BYTE   Fn0  v127
 BYTE   W12
 BYTE   Fn0  v100
 BYTE   W12
 BYTE   N12
 BYTE   W12
 BYTE   Fn0  v127
 BYTE   W12
 BYTE   Fn0  v100
 BYTE   W12
 BYTE   PEND 
//  #06 //015   ----------------------------------------
 BYTE   PATT
  POIN2 Label_FAA7B1
//  #06 //016   ----------------------------------------
Label_FAA7CE:
 BYTE   N12  Dn0  v127
 BYTE   W12
 BYTE   Dn0  v100
 BYTE   W12
 BYTE   N12
 BYTE   W12
 BYTE   Dn0  v127
 BYTE   W12
 BYTE   Dn0  v100
 BYTE   W12
 BYTE   N12
 BYTE   W12
 BYTE   Dn0  v127
 BYTE   W12
 BYTE   Dn0  v100
 BYTE   W12
 BYTE   PEND 
//  #06 //017   ----------------------------------------
Label_FAA7E6:
 BYTE   N12  Gn0  v127
 BYTE   W12
 BYTE   Gn0  v100
 BYTE   W12
 BYTE   N12
 BYTE   W12
 BYTE   Gn0  v127
 BYTE   W12
 BYTE   Gn0  v100
 BYTE   W12
 BYTE   N12
 BYTE   W12
 BYTE   Gn0  v127
 BYTE   W12
 BYTE   Gn0  v100
 BYTE   W12
 BYTE   PEND 
//  #06 //018   ----------------------------------------
 BYTE   PATT
  POIN2 Label_FAA75D
//  #06 //019   ----------------------------------------
 BYTE   PATT
  POIN2 Label_FAA75D
//  #06 //020   ----------------------------------------
 BYTE   PATT
  POIN2 Label_FAA75D
//  #06 //021   ----------------------------------------
 BYTE   PATT
  POIN2 Label_FAA75D
//  #06 //022   ----------------------------------------
 BYTE   GoTo
  POIN2 Label_FAA742
//  #06 //023   ----------------------------------------
 BYTE   PATT
  POIN2 Label_FAA75D
//  #06 //024   ----------------------------------------
 BYTE   PATT
  POIN2 Label_FAA75D
//  #06 //025   ----------------------------------------
 BYTE   PATT
  POIN2 Label_FAA75D
//  #06 //026   ----------------------------------------
 BYTE   PATT
  POIN2 Label_FAA75D
//  #06 //027   ----------------------------------------
 BYTE   PATT
  POIN2 Label_FAA75D
//  #06 //028   ----------------------------------------
 BYTE   PATT
  POIN2 Label_FAA75D
//  #06 //029   ----------------------------------------
 BYTE   PATT
  POIN2 Label_FAA75D
//  #06 //030   ----------------------------------------
 BYTE   PATT
  POIN2 Label_FAA75D
//  #06 //031   ----------------------------------------
 BYTE   PATT
  POIN2 Label_FAA75D
//  #06 //032   ----------------------------------------
 BYTE   PATT
  POIN2 Label_FAA75D
//  #06 //033   ----------------------------------------
 BYTE   PATT
  POIN2 Label_FAA75D
//  #06 //034   ----------------------------------------
 BYTE   PATT
  POIN2 Label_FAA75D
//  #06 //035   ----------------------------------------
 BYTE   PATT
  POIN2 Label_FAA75D
//  #06 //036   ----------------------------------------
 BYTE   PATT
  POIN2 Label_FAA75D
//  #06 //037   ----------------------------------------
 BYTE   PATT
  POIN2 Label_FAA7B1
//  #06 //038   ----------------------------------------
 BYTE   PATT
  POIN2 Label_FAA7B1
//  #06 //039   ----------------------------------------
 BYTE   PATT
  POIN2 Label_FAA7CE
//  #06 //040   ----------------------------------------
 BYTE   PATT
  POIN2 Label_FAA7E6
//  #06 //041   ----------------------------------------
 BYTE   PATT
  POIN2 Label_FAA75D
//  #06 //042   ----------------------------------------
 BYTE   PATT
  POIN2 Label_FAA75D
//  #06 //043   ----------------------------------------
 BYTE   PATT
  POIN2 Label_FAA75D
//  #06 //044   ----------------------------------------
 BYTE   N12  An0  v127
 BYTE   W12
 BYTE   An0  v100
 BYTE   W12
 BYTE   N12
 BYTE   W12
 BYTE   An0  v127
 BYTE   W12
 BYTE   An0  v100
 BYTE   W12
 BYTE   N12
 BYTE   W12
 BYTE   An0  v127
 BYTE   W18
 BYTE   VOICE   34
 BYTE   VOL   46*SearchingTheEnemy_mvl/mxv
 BYTE   FINE

//**************** Track 7 (Midi-Chn.6) ****************//

SearchingTheEnemy_007:
//  #07 //000   ----------------------------------------
 BYTE   KEYSH   SearchingTheEnemy_key+0
Label_FAAB42:
 BYTE   VOICE   71
 BYTE   VOL   43*SearchingTheEnemy_mvl/mxv
 BYTE   W96
//  #07 //001   ----------------------------------------
 BYTE   W96
//  #07 //002   ----------------------------------------
 BYTE   W96
//  #07 //003   ----------------------------------------
 BYTE   W96
//  #07 //004   ----------------------------------------
 BYTE   W96
//  #07 //005   ----------------------------------------
 BYTE   W96
//  #07 //006   ----------------------------------------
 BYTE   W96
//  #07 //007   ----------------------------------------
 BYTE   W96
//  #07 //008   ----------------------------------------
 BYTE   W96
//  #07 //009   ----------------------------------------
 BYTE   W96
//  #07 //010   ----------------------------------------
 BYTE   W96
//  #07 //011   ----------------------------------------
 BYTE   W96
//  #07 //012   ----------------------------------------
 BYTE   W96
//  #07 //013   ----------------------------------------
Label_FAAB53:
 BYTE   W48
 BYTE   N06  An1  v100
 BYTE   W06
 BYTE   Bn1
 BYTE   W06
 BYTE   Cn2
 BYTE   W06
 BYTE   Dn2
 BYTE   W06
 BYTE   En2
 BYTE   W06
 BYTE   Fs2
 BYTE   W06
 BYTE   Gn2
 BYTE   W06
 BYTE   An2
 BYTE   W06
 BYTE   PEND 
//  #07 //014   ----------------------------------------
 BYTE   W96
//  #07 //015   ----------------------------------------
 BYTE   W96
//  #07 //016   ----------------------------------------
 BYTE   W96
//  #07 //017   ----------------------------------------
 BYTE   W96
//  #07 //018   ----------------------------------------
 BYTE   W96
//  #07 //019   ----------------------------------------
 BYTE   N84
 BYTE   N84  En3
 BYTE   W96
//  #07 //020   ----------------------------------------
 BYTE   W96
//  #07 //021   ----------------------------------------
 BYTE   W96
//  #07 //022   ----------------------------------------
 BYTE   GoTo
  POIN2 Label_FAAB42
//  #07 //023   ----------------------------------------
 BYTE   W96
//  #07 //024   ----------------------------------------
 BYTE   W96
//  #07 //025   ----------------------------------------
 BYTE   W96
//  #07 //026   ----------------------------------------
 BYTE   W96
//  #07 //027   ----------------------------------------
 BYTE   W96
//  #07 //028   ----------------------------------------
 BYTE   W96
//  #07 //029   ----------------------------------------
 BYTE   W96
//  #07 //030   ----------------------------------------
 BYTE   W96
//  #07 //031   ----------------------------------------
 BYTE   W96
//  #07 //032   ----------------------------------------
 BYTE   W96
//  #07 //033   ----------------------------------------
 BYTE   W96
//  #07 //034   ----------------------------------------
 BYTE   W96
//  #07 //035   ----------------------------------------
 BYTE   W96
//  #07 //036   ----------------------------------------
 BYTE   PATT
  POIN2 Label_FAAB53
//  #07 //037   ----------------------------------------
 BYTE   W96
//  #07 //038   ----------------------------------------
 BYTE   W96
//  #07 //039   ----------------------------------------
 BYTE   W96
//  #07 //040   ----------------------------------------
 BYTE   W96
//  #07 //041   ----------------------------------------
 BYTE   W96
//  #07 //042   ----------------------------------------
 BYTE   N84  An2  v100
 BYTE   N84  En3
 BYTE   W96
//  #07 //043   ----------------------------------------
 BYTE   W96
//  #07 //044   ----------------------------------------
 BYTE   W90
 BYTE   VOICE   71
 BYTE   VOL   43*SearchingTheEnemy_mvl/mxv
 BYTE   FINE

//**************** Track 8 (Midi-Chn.7) ****************//

SearchingTheEnemy_008:
//  #08 //000   ----------------------------------------
 BYTE   KEYSH   SearchingTheEnemy_key+0
Label_FAAACE:
 BYTE   VOICE   56
 BYTE   VOL   40*SearchingTheEnemy_mvl/mxv
 BYTE   PAN   c_v-33
 BYTE   W96
//  #08 //001   ----------------------------------------
 BYTE   W96
//  #08 //002   ----------------------------------------
 BYTE   W96
//  #08 //003   ----------------------------------------
Label_FAAAD7:
 BYTE   W24
 BYTE   W03
 BYTE   N18  Gn3  v100
 BYTE   W24
 BYTE   Fs3
 BYTE   W24
 BYTE   Dn3
 BYTE   W21
 BYTE   PEND 
//  #08 //004   ----------------------------------------
 BYTE   W96
//  #08 //005   ----------------------------------------
 BYTE   W96
//  #08 //006   ----------------------------------------
 BYTE   W96
//  #08 //007   ----------------------------------------
 BYTE   W96
//  #08 //008   ----------------------------------------
 BYTE   W96
//  #08 //009   ----------------------------------------
 BYTE   W96
//  #08 //010   ----------------------------------------
 BYTE   W96
//  #08 //011   ----------------------------------------
Label_FAAAE9:
 BYTE   W48
 BYTE   W03
 BYTE   N18  En3  v100
 BYTE   W24
 BYTE   Gn3
 BYTE   W21
 BYTE   PEND 
//  #08 //012   ----------------------------------------
Label_FAAAF2:
 BYTE   W03
 BYTE   N36  Fs3  v100
 BYTE   W48
 BYTE   Dn3
 BYTE   W44
 BYTE   W01
 BYTE   PEND 
//  #08 //013   ----------------------------------------
Label_FAAAFB:
 BYTE   W03
 BYTE   N72  En3  v100
 BYTE   W92
 BYTE   W01
 BYTE   PEND 
//  #08 //014   ----------------------------------------
 BYTE   W96
//  #08 //015   ----------------------------------------
 BYTE   W96
//  #08 //016   ----------------------------------------
 BYTE   W96
//  #08 //017   ----------------------------------------
 BYTE   W96
//  #08 //018   ----------------------------------------
 BYTE   W96
//  #08 //019   ----------------------------------------
 BYTE   W96
//  #08 //020   ----------------------------------------
 BYTE   W96
//  #08 //021   ----------------------------------------
 BYTE   W96
//  #08 //022   ----------------------------------------
 BYTE   GoTo
  POIN2 Label_FAAACE
//  #08 //023   ----------------------------------------
 BYTE   VOL   40*SearchingTheEnemy_mvl/mxv
 BYTE   PAN   c_v-33
 BYTE   W96
//  #08 //024   ----------------------------------------
 BYTE   W96
//  #08 //025   ----------------------------------------
 BYTE   W96
//  #08 //026   ----------------------------------------
 BYTE   PATT
  POIN2 Label_FAAAD7
//  #08 //027   ----------------------------------------
 BYTE   W96
//  #08 //028   ----------------------------------------
 BYTE   W96
//  #08 //029   ----------------------------------------
 BYTE   W96
//  #08 //030   ----------------------------------------
 BYTE   W96
//  #08 //031   ----------------------------------------
 BYTE   W96
//  #08 //032   ----------------------------------------
 BYTE   W96
//  #08 //033   ----------------------------------------
 BYTE   W96
//  #08 //034   ----------------------------------------
 BYTE   PATT
  POIN2 Label_FAAAE9
//  #08 //035   ----------------------------------------
 BYTE   PATT
  POIN2 Label_FAAAF2
//  #08 //036   ----------------------------------------
 BYTE   PATT
  POIN2 Label_FAAAFB
//  #08 //037   ----------------------------------------
 BYTE   W96
//  #08 //038   ----------------------------------------
 BYTE   W96
//  #08 //039   ----------------------------------------
 BYTE   W96
//  #08 //040   ----------------------------------------
 BYTE   W96
//  #08 //041   ----------------------------------------
 BYTE   W96
//  #08 //042   ----------------------------------------
 BYTE   W96
//  #08 //043   ----------------------------------------
 BYTE   W96
//  #08 //044   ----------------------------------------
 BYTE   W90
 BYTE   VOICE   56
 BYTE   VOL   40*SearchingTheEnemy_mvl/mxv
 BYTE   PAN   c_v-33
 BYTE   FINE

//**************** Track 9 (Midi-Chn.8) ****************//

SearchingTheEnemy_009:
//  #09 //000   ----------------------------------------
 BYTE   KEYSH   SearchingTheEnemy_key+0
Label_01005142:
 BYTE   VOICE   58
 BYTE   VOL   39*SearchingTheEnemy_mvl/mxv
 BYTE   N12  An0  v100
 BYTE   W36
 BYTE   N12
 BYTE   W36
 BYTE   N12
 BYTE   W24
//  #09 //001   ----------------------------------------
Label_0100514E:
 BYTE   N12  An0  v100
 BYTE   W36
 BYTE   N12
 BYTE   W36
 BYTE   N12
 BYTE   W24
 BYTE   PEND 
//  #09 //002   ----------------------------------------
 BYTE   PATT
  POIN2 Label_0100514E
//  #09 //003   ----------------------------------------
 BYTE   PATT
  POIN2 Label_0100514E
//  #09 //004   ----------------------------------------
 BYTE   PATT
  POIN2 Label_0100514E
//  #09 //005   ----------------------------------------
 BYTE   PATT
  POIN2 Label_0100514E
//  #09 //006   ----------------------------------------
 BYTE   PATT
  POIN2 Label_0100514E
//  #09 //007   ----------------------------------------
 BYTE   PATT
  POIN2 Label_0100514E
//  #09 //008   ----------------------------------------
 BYTE   PATT
  POIN2 Label_0100514E
//  #09 //009   ----------------------------------------
 BYTE   PATT
  POIN2 Label_0100514E
//  #09 //010   ----------------------------------------
 BYTE   PATT
  POIN2 Label_0100514E
//  #09 //011   ----------------------------------------
 BYTE   PATT
  POIN2 Label_0100514E
//  #09 //012   ----------------------------------------
 BYTE   PATT
  POIN2 Label_0100514E
//  #09 //013   ----------------------------------------
 BYTE   PATT
  POIN2 Label_0100514E
//  #09 //014   ----------------------------------------
Label_01005193:
 BYTE   N12  Fn0  v100
 BYTE   W36
 BYTE   N12
 BYTE   W36
 BYTE   N12
 BYTE   W24
 BYTE   PEND 
//  #09 //015   ----------------------------------------
 BYTE   PATT
  POIN2 Label_01005193
//  #09 //016   ----------------------------------------
Label_010051A1:
 BYTE   N12  Dn0  v100
 BYTE   W36
 BYTE   N12
 BYTE   W36
 BYTE   N12
 BYTE   W24
 BYTE   PEND 
//  #09 //017   ----------------------------------------
Label_010051AA:
 BYTE   N12  Gn0  v100
 BYTE   W36
 BYTE   N12
 BYTE   W36
 BYTE   N12
 BYTE   W24
 BYTE   PEND 
//  #09 //018   ----------------------------------------
 BYTE   PATT
  POIN2 Label_0100514E
//  #09 //019   ----------------------------------------
 BYTE   PATT
  POIN2 Label_0100514E
//  #09 //020   ----------------------------------------
 BYTE   PATT
  POIN2 Label_0100514E
//  #09 //021   ----------------------------------------
 BYTE   PATT
  POIN2 Label_0100514E
//  #09 //022   ----------------------------------------
 BYTE   GoTo
  POIN2 Label_01005142
//  #09 //023   ----------------------------------------
 BYTE   PATT
  POIN2 Label_0100514E
//  #09 //024   ----------------------------------------
 BYTE   PATT
  POIN2 Label_0100514E
//  #09 //025   ----------------------------------------
 BYTE   PATT
  POIN2 Label_0100514E
//  #09 //026   ----------------------------------------
 BYTE   PATT
  POIN2 Label_0100514E
//  #09 //027   ----------------------------------------
 BYTE   PATT
  POIN2 Label_0100514E
//  #09 //028   ----------------------------------------
 BYTE   PATT
  POIN2 Label_0100514E
//  #09 //029   ----------------------------------------
 BYTE   PATT
  POIN2 Label_0100514E
//  #09 //030   ----------------------------------------
 BYTE   PATT
  POIN2 Label_0100514E
//  #09 //031   ----------------------------------------
 BYTE   PATT
  POIN2 Label_0100514E
//  #09 //032   ----------------------------------------
 BYTE   PATT
  POIN2 Label_0100514E
//  #09 //033   ----------------------------------------
 BYTE   PATT
  POIN2 Label_0100514E
//  #09 //034   ----------------------------------------
 BYTE   PATT
  POIN2 Label_0100514E
//  #09 //035   ----------------------------------------
 BYTE   PATT
  POIN2 Label_0100514E
//  #09 //036   ----------------------------------------
 BYTE   PATT
  POIN2 Label_0100514E
//  #09 //037   ----------------------------------------
 BYTE   PATT
  POIN2 Label_01005193
//  #09 //038   ----------------------------------------
 BYTE   PATT
  POIN2 Label_01005193
//  #09 //039   ----------------------------------------
 BYTE   PATT
  POIN2 Label_010051A1
//  #09 //040   ----------------------------------------
 BYTE   PATT
  POIN2 Label_010051AA
//  #09 //041   ----------------------------------------
 BYTE   PATT
  POIN2 Label_0100514E
//  #09 //042   ----------------------------------------
 BYTE   PATT
  POIN2 Label_0100514E
//  #09 //043   ----------------------------------------
 BYTE   PATT
  POIN2 Label_0100514E
//  #09 //044   ----------------------------------------
 BYTE   N12  An0  v100
 BYTE   W36
 BYTE   N12
 BYTE   W36
 BYTE   N12
 BYTE   W18
 BYTE   VOICE   58
 BYTE   VOL   39*SearchingTheEnemy_mvl/mxv
 BYTE   FINE

//**************** Track 10 (Midi-Chn.9) ****************//

SearchingTheEnemy_010:
//  #10 //000   ----------------------------------------
 BYTE   KEYSH   SearchingTheEnemy_key+0
Label_01005256:
 BYTE   VOICE   124
 BYTE   VOL   34*SearchingTheEnemy_mvl/mxv
 BYTE   N06  Dn1  v100
 BYTE   N06  En1
 BYTE   W36
 BYTE   Dn1
 BYTE   N06  En1
 BYTE   W48
 BYTE   Dn1
 BYTE   N06  En1
 BYTE   W06
 BYTE   Dn1
 BYTE   N06  En1
 BYTE   W06
//  #10 //001   ----------------------------------------
Label_0100526C:
 BYTE   N06  Dn1  v100
 BYTE   N06  En1
 BYTE   W24
 BYTE   Dn1
 BYTE   N06  En1
 BYTE   W72
 BYTE   PEND 
//  #10 //002   ----------------------------------------
Label_01005277:
 BYTE   N06  Dn1  v100
 BYTE   N06  En1
 BYTE   W36
 BYTE   Dn1
 BYTE   N06  En1
 BYTE   W48
 BYTE   Dn1
 BYTE   N06  En1
 BYTE   W06
 BYTE   Dn1
 BYTE   N06  En1
 BYTE   W06
 BYTE   PEND 
//  #10 //003   ----------------------------------------
 BYTE   PATT
  POIN2 Label_0100526C
//  #10 //004   ----------------------------------------
 BYTE   PATT
  POIN2 Label_01005277
//  #10 //005   ----------------------------------------
 BYTE   PATT
  POIN2 Label_0100526C
//  #10 //006   ----------------------------------------
 BYTE   PATT
  POIN2 Label_01005277
//  #10 //007   ----------------------------------------
 BYTE   PATT
  POIN2 Label_0100526C
//  #10 //008   ----------------------------------------
 BYTE   PATT
  POIN2 Label_01005277
//  #10 //009   ----------------------------------------
 BYTE   PATT
  POIN2 Label_0100526C
//  #10 //010   ----------------------------------------
 BYTE   PATT
  POIN2 Label_01005277
//  #10 //011   ----------------------------------------
 BYTE   PATT
  POIN2 Label_0100526C
//  #10 //012   ----------------------------------------
 BYTE   PATT
  POIN2 Label_01005277
//  #10 //013   ----------------------------------------
 BYTE   PATT
  POIN2 Label_0100526C
//  #10 //014   ----------------------------------------
 BYTE   W96
//  #10 //015   ----------------------------------------
 BYTE   W96
//  #10 //016   ----------------------------------------
 BYTE   W96
//  #10 //017   ----------------------------------------
 BYTE   W96
//  #10 //018   ----------------------------------------
 BYTE   W96
//  #10 //019   ----------------------------------------
 BYTE   W96
//  #10 //020   ----------------------------------------
 BYTE   PATT
  POIN2 Label_01005277
//  #10 //021   ----------------------------------------
 BYTE   PATT
  POIN2 Label_0100526C
//  #10 //022   ----------------------------------------
 BYTE   GoTo
  POIN2 Label_01005256
//  #10 //023   ----------------------------------------
 BYTE   PATT
  POIN2 Label_01005277
//  #10 //024   ----------------------------------------
 BYTE   PATT
  POIN2 Label_0100526C
//  #10 //025   ----------------------------------------
 BYTE   PATT
  POIN2 Label_01005277
//  #10 //026   ----------------------------------------
 BYTE   PATT
  POIN2 Label_0100526C
//  #10 //027   ----------------------------------------
 BYTE   PATT
  POIN2 Label_01005277
//  #10 //028   ----------------------------------------
 BYTE   PATT
  POIN2 Label_0100526C
//  #10 //029   ----------------------------------------
 BYTE   PATT
  POIN2 Label_01005277
//  #10 //030   ----------------------------------------
 BYTE   PATT
  POIN2 Label_0100526C
//  #10 //031   ----------------------------------------
 BYTE   PATT
  POIN2 Label_01005277
//  #10 //032   ----------------------------------------
 BYTE   PATT
  POIN2 Label_0100526C
//  #10 //033   ----------------------------------------
 BYTE   PATT
  POIN2 Label_01005277
//  #10 //034   ----------------------------------------
 BYTE   PATT
  POIN2 Label_0100526C
//  #10 //035   ----------------------------------------
 BYTE   PATT
  POIN2 Label_01005277
//  #10 //036   ----------------------------------------
 BYTE   PATT
  POIN2 Label_0100526C
//  #10 //037   ----------------------------------------
 BYTE   W96
//  #10 //038   ----------------------------------------
 BYTE   W96
//  #10 //039   ----------------------------------------
 BYTE   W96
//  #10 //040   ----------------------------------------
 BYTE   W96
//  #10 //041   ----------------------------------------
 BYTE   W96
//  #10 //042   ----------------------------------------
 BYTE   W96
//  #10 //043   ----------------------------------------
 BYTE   PATT
  POIN2 Label_01005277
//  #10 //044   ----------------------------------------
 BYTE   N06  Dn1  v100
 BYTE   N06  En1
 BYTE   W24
 BYTE   Dn1
 BYTE   N06  En1
 BYTE   W66
 BYTE   VOICE   124
 BYTE   VOL   34*SearchingTheEnemy_mvl/mxv
 BYTE   FINE

//**************** Track 11 (Midi-Chn.10) ****************//

SearchingTheEnemy_011:
//  #11 //000   ----------------------------------------
 BYTE   KEYSH   SearchingTheEnemy_key+0
Label_01005466:
 BYTE   VOICE   47
 BYTE   VOL   34*SearchingTheEnemy_mvl/mxv
 BYTE   N12  An2  v100
 BYTE   W96
//  #11 //001   ----------------------------------------
Label_0100546E:
 BYTE   W84
 BYTE   N06  An2  v100
 BYTE   W06
 BYTE   En2
 BYTE   W06
 BYTE   PEND 
//  #11 //002   ----------------------------------------
 BYTE   N12  An2
 BYTE   W96
//  #11 //003   ----------------------------------------
Label_01005479:
 BYTE   W84
 BYTE   N06  An2  v100
 BYTE   W06
 BYTE   Fn2
 BYTE   W06
 BYTE   PEND 
//  #11 //004   ----------------------------------------
 BYTE   N12  An2
 BYTE   W96
//  #11 //005   ----------------------------------------
 BYTE   PATT
  POIN2 Label_01005479
//  #11 //006   ----------------------------------------
 BYTE   N12  An2  v100
 BYTE   W96
//  #11 //007   ----------------------------------------
 BYTE   PATT
  POIN2 Label_01005479
//  #11 //008   ----------------------------------------
 BYTE   N12  An2  v100
 BYTE   W96
//  #11 //009   ----------------------------------------
 BYTE   PATT
  POIN2 Label_01005479
//  #11 //010   ----------------------------------------
 BYTE   N12  An2  v100
 BYTE   W96
//  #11 //011   ----------------------------------------
 BYTE   PATT
  POIN2 Label_01005479
//  #11 //012   ----------------------------------------
 BYTE   N12  An2  v100
 BYTE   W96
//  #11 //013   ----------------------------------------
 BYTE   PATT
  POIN2 Label_01005479
//  #11 //014   ----------------------------------------
Label_010054AD:
 BYTE   N12  An2  v100
 BYTE   W12
 BYTE   N24  Fn2
 BYTE   W24
 BYTE   N24
 BYTE   W24
 BYTE   N24
 BYTE   W24
 BYTE   N12
 BYTE   W12
 BYTE   PEND 
//  #11 //015   ----------------------------------------
Label_010054BB:
 BYTE   N12  An2  v100
 BYTE   W12
 BYTE   N24  Fn2
 BYTE   W24
 BYTE   N24
 BYTE   W24
 BYTE   N24
 BYTE   W24
 BYTE   N06  An2
 BYTE   W06
 BYTE   Fn2
 BYTE   W06
 BYTE   PEND 
//  #11 //016   ----------------------------------------
 BYTE   PATT
  POIN2 Label_010054AD
//  #11 //017   ----------------------------------------
 BYTE   PATT
  POIN2 Label_010054BB
//  #11 //018   ----------------------------------------
Label_010054D6:
 BYTE   N12  An2  v100
 BYTE   W12
 BYTE   N24  Fn2
 BYTE   W24
 BYTE   N24
 BYTE   W48
 BYTE   N06
 BYTE   W06
 BYTE   An2
 BYTE   W06
 BYTE   PEND 
//  #11 //019   ----------------------------------------
 BYTE   PATT
  POIN2 Label_010054BB
//  #11 //020   ----------------------------------------
 BYTE   PATT
  POIN2 Label_010054AD
//  #11 //021   ----------------------------------------
 BYTE   PATT
  POIN2 Label_010054BB
//  #11 //022   ----------------------------------------
 BYTE   GoTo
  POIN2 Label_01005466
//  #11 //023   ----------------------------------------
 BYTE   N12  An2  v100
 BYTE   W96
//  #11 //024   ----------------------------------------
 BYTE   PATT
  POIN2 Label_0100546E
//  #11 //025   ----------------------------------------
 BYTE   N12  An2  v100
 BYTE   W96
//  #11 //026   ----------------------------------------
 BYTE   PATT
  POIN2 Label_01005479
//  #11 //027   ----------------------------------------
 BYTE   N12  An2  v100
 BYTE   W96
//  #11 //028   ----------------------------------------
 BYTE   PATT
  POIN2 Label_01005479
//  #11 //029   ----------------------------------------
 BYTE   N12  An2  v100
 BYTE   W96
//  #11 //030   ----------------------------------------
 BYTE   PATT
  POIN2 Label_01005479
//  #11 //031   ----------------------------------------
 BYTE   N12  An2  v100
 BYTE   W96
//  #11 //032   ----------------------------------------
 BYTE   PATT
  POIN2 Label_01005479
//  #11 //033   ----------------------------------------
 BYTE   N12  An2  v100
 BYTE   W96
//  #11 //034   ----------------------------------------
 BYTE   PATT
  POIN2 Label_01005479
//  #11 //035   ----------------------------------------
 BYTE   N12  An2  v100
 BYTE   W96
//  #11 //036   ----------------------------------------
 BYTE   PATT
  POIN2 Label_01005479
//  #11 //037   ----------------------------------------
 BYTE   PATT
  POIN2 Label_010054AD
//  #11 //038   ----------------------------------------
 BYTE   PATT
  POIN2 Label_010054BB
//  #11 //039   ----------------------------------------
 BYTE   PATT
  POIN2 Label_010054AD
//  #11 //040   ----------------------------------------
 BYTE   PATT
  POIN2 Label_010054BB
//  #11 //041   ----------------------------------------
 BYTE   PATT
  POIN2 Label_010054D6
//  #11 //042   ----------------------------------------
 BYTE   PATT
  POIN2 Label_010054BB
//  #11 //043   ----------------------------------------
 BYTE   PATT
  POIN2 Label_010054AD
//  #11 //044   ----------------------------------------
 BYTE   N12  An2  v100
 BYTE   W12
 BYTE   N24  Fn2
 BYTE   W24
 BYTE   N24
 BYTE   W24
 BYTE   N24
 BYTE   W24
 BYTE   N06  An2
 BYTE   W06
 BYTE   VOICE   47
 BYTE   VOL   34*SearchingTheEnemy_mvl/mxv
 BYTE   FINE

//**************** Track 12 (Midi-Chn.11) ****************//

SearchingTheEnemy_012:
//  #12 //000   ----------------------------------------
 BYTE   KEYSH   SearchingTheEnemy_key+0
Label_0100534A:
 BYTE   VOICE   47
 BYTE   VOL   41*SearchingTheEnemy_mvl/mxv
 BYTE   N12  An1  v100
 BYTE   W96
//  #12 //001   ----------------------------------------
Label_01005352:
 BYTE   W84
 BYTE   N06  An1  v100
 BYTE   W06
 BYTE   En1
 BYTE   W06
 BYTE   PEND 
//  #12 //002   ----------------------------------------
 BYTE   N12  An1
 BYTE   W96
//  #12 //003   ----------------------------------------
Label_0100535D:
 BYTE   W84
 BYTE   N06  An1  v100
 BYTE   W06
 BYTE   Fn1
 BYTE   W06
 BYTE   PEND 
//  #12 //004   ----------------------------------------
 BYTE   N12  An1
 BYTE   W96
//  #12 //005   ----------------------------------------
 BYTE   PATT
  POIN2 Label_0100535D
//  #12 //006   ----------------------------------------
 BYTE   N12  An1  v100
 BYTE   W96
//  #12 //007   ----------------------------------------
 BYTE   PATT
  POIN2 Label_0100535D
//  #12 //008   ----------------------------------------
 BYTE   N12  An1  v100
 BYTE   W96
//  #12 //009   ----------------------------------------
 BYTE   PATT
  POIN2 Label_0100535D
//  #12 //010   ----------------------------------------
 BYTE   N12  An1  v100
 BYTE   W96
//  #12 //011   ----------------------------------------
 BYTE   PATT
  POIN2 Label_0100535D
//  #12 //012   ----------------------------------------
 BYTE   N12  An1  v100
 BYTE   W96
//  #12 //013   ----------------------------------------
 BYTE   PATT
  POIN2 Label_0100535D
//  #12 //014   ----------------------------------------
Label_01005391:
 BYTE   N12  An1  v100
 BYTE   W12
 BYTE   N24  Fn1
 BYTE   W24
 BYTE   N24
 BYTE   W24
 BYTE   N24
 BYTE   W24
 BYTE   N12
 BYTE   W12
 BYTE   PEND 
//  #12 //015   ----------------------------------------
Label_0100539F:
 BYTE   N12  An1  v100
 BYTE   W12
 BYTE   N24  Fn1
 BYTE   W24
 BYTE   N24
 BYTE   W24
 BYTE   N24
 BYTE   W24
 BYTE   N06  An1
 BYTE   W06
 BYTE   Fn1
 BYTE   W06
 BYTE   PEND 
//  #12 //016   ----------------------------------------
 BYTE   PATT
  POIN2 Label_01005391
//  #12 //017   ----------------------------------------
 BYTE   PATT
  POIN2 Label_0100539F
//  #12 //018   ----------------------------------------
Label_010053BA:
 BYTE   N12  An1  v100
 BYTE   W12
 BYTE   N24  Fn1
 BYTE   W24
 BYTE   N24
 BYTE   W48
 BYTE   N06
 BYTE   W06
 BYTE   An1
 BYTE   W06
 BYTE   PEND 
//  #12 //019   ----------------------------------------
 BYTE   PATT
  POIN2 Label_0100539F
//  #12 //020   ----------------------------------------
 BYTE   PATT
  POIN2 Label_01005391
//  #12 //021   ----------------------------------------
 BYTE   PATT
  POIN2 Label_0100539F
//  #12 //022   ----------------------------------------
 BYTE   GoTo
  POIN2 Label_0100534A
//  #12 //023   ----------------------------------------
 BYTE   N12  An1  v100
 BYTE   W96
//  #12 //024   ----------------------------------------
 BYTE   PATT
  POIN2 Label_01005352
//  #12 //025   ----------------------------------------
 BYTE   N12  An1  v100
 BYTE   W96
//  #12 //026   ----------------------------------------
 BYTE   PATT
  POIN2 Label_0100535D
//  #12 //027   ----------------------------------------
 BYTE   N12  An1  v100
 BYTE   W96
//  #12 //028   ----------------------------------------
 BYTE   PATT
  POIN2 Label_0100535D
//  #12 //029   ----------------------------------------
 BYTE   N12  An1  v100
 BYTE   W96
//  #12 //030   ----------------------------------------
 BYTE   PATT
  POIN2 Label_0100535D
//  #12 //031   ----------------------------------------
 BYTE   N12  An1  v100
 BYTE   W96
//  #12 //032   ----------------------------------------
 BYTE   PATT
  POIN2 Label_0100535D
//  #12 //033   ----------------------------------------
 BYTE   N12  An1  v100
 BYTE   W96
//  #12 //034   ----------------------------------------
 BYTE   PATT
  POIN2 Label_0100535D
//  #12 //035   ----------------------------------------
 BYTE   N12  An1  v100
 BYTE   W96
//  #12 //036   ----------------------------------------
 BYTE   PATT
  POIN2 Label_0100535D
//  #12 //037   ----------------------------------------
 BYTE   PATT
  POIN2 Label_01005391
//  #12 //038   ----------------------------------------
 BYTE   PATT
  POIN2 Label_0100539F
//  #12 //039   ----------------------------------------
 BYTE   PATT
  POIN2 Label_01005391
//  #12 //040   ----------------------------------------
 BYTE   PATT
  POIN2 Label_0100539F
//  #12 //041   ----------------------------------------
 BYTE   PATT
  POIN2 Label_010053BA
//  #12 //042   ----------------------------------------
 BYTE   PATT
  POIN2 Label_0100539F
//  #12 //043   ----------------------------------------
 BYTE   PATT
  POIN2 Label_01005391
//  #12 //044   ----------------------------------------
 BYTE   N12  An1  v100
 BYTE   W12
 BYTE   N24  Fn1
 BYTE   W24
 BYTE   N24
 BYTE   W24
 BYTE   N24
 BYTE   W24
 BYTE   N06  An1
 BYTE   W06
 BYTE   VOICE   47
 BYTE   VOL   41*SearchingTheEnemy_mvl/mxv
 BYTE   FINE

//******************************************************//
	ALIGN 4

SearchingTheEnemy:
	BYTE	12	// NumTrks
	BYTE	0	// NumBlks
	BYTE	SearchingTheEnemy_pri	// Priority
	BYTE	SearchingTheEnemy_rev	// Reverb.
    
	POIN2	SearchingTheEnemy_grp
    
	POIN2	SearchingTheEnemy_001
	POIN2	SearchingTheEnemy_002
	POIN2	SearchingTheEnemy_003
	POIN2	SearchingTheEnemy_004
	POIN2	SearchingTheEnemy_005
	POIN2	SearchingTheEnemy_006
	POIN2	SearchingTheEnemy_007
	POIN2	SearchingTheEnemy_008
	POIN2	SearchingTheEnemy_009
	POIN2	SearchingTheEnemy_010
	POIN2	SearchingTheEnemy_011
	POIN2	SearchingTheEnemy_012

	
