//Event file generated from Sappy .s format.
	#include "MPlayDef.event"

	#define	Shackled_grp  voicegroup000
	#define	Shackled_pri  0
	#define	Shackled_rev  0
	#define	Shackled_mvl  127
	#define	Shackled_key  0
	#define	Shackled_tbs  1
	#define	Shackled_exg  0
	#define	Shackled_cmp  1

	// .rodata
	//	Shackled
	ALIGN 4


//**************** Track 1 (Midi-Chn.0) ****************//

Shackled_001:
//  #01 //000   ----------------------------------------
 BYTE   KEYSH   Shackled_key+0
Label_01A29F0E:
 BYTE   TEMPO   156*Shackled_tbs/2
 BYTE   VOICE   4
 BYTE   VOL   47*Shackled_mvl/mxv
 BYTE   PAN   c_v-1
 BYTE   VOL   47*Shackled_mvl/mxv
 BYTE   PAN   c_v+0
 BYTE   VOL   60*Shackled_mvl/mxv
 BYTE   PAN   c_v+0
 BYTE   W96
//  #01 //001   ----------------------------------------
 BYTE   W96
//  #01 //002   ----------------------------------------
 BYTE   W96
//  #01 //003   ----------------------------------------
 BYTE   W96
//  #01 //004   ----------------------------------------
Label_01A29F22:
 BYTE   TIE  As3  v016
 BYTE   TIE  Dn4
 BYTE   TIE  Fn4
 BYTE   W04
 BYTE   W05
 BYTE   W04
 BYTE   W05
 BYTE   W04
 BYTE   W05
 BYTE   W04
 BYTE   W05
 BYTE   W04
 BYTE   W05
 BYTE   W04
 BYTE   W05
 BYTE   W04
 BYTE   W05
 BYTE   W04
 BYTE   W05
 BYTE   W04
 BYTE   W05
 BYTE   W04
 BYTE   W05
 BYTE   W04
 BYTE   W02
 BYTE   PEND 
//  #01 //005   ----------------------------------------
Label_01A29F40:
 BYTE   W03
 BYTE   W04
 BYTE   W05
 BYTE   W04
 BYTE   W05
 BYTE   W04
 BYTE   W05
 BYTE   W04
 BYTE   W05
 BYTE   W04
 BYTE   W05
 BYTE   W04
 BYTE   W05
 BYTE   W04
 BYTE   W05
 BYTE   W04
 BYTE   W05
 BYTE   W04
 BYTE   W05
 BYTE   W04
 BYTE   W05
 BYTE   W03
 BYTE   PEND 
//  #01 //006   ----------------------------------------
Label_01A29F57:
 BYTE   W01
 BYTE   W05
 BYTE   W04
 BYTE   W05
 BYTE   W04
 BYTE   W05
 BYTE   W04
 BYTE   W05
 BYTE   W04
 BYTE   W05
 BYTE   W04
 BYTE   W05
 BYTE   W04
 BYTE   W05
 BYTE   W04
 BYTE   W05
 BYTE   W04
 BYTE   W05
 BYTE   W04
 BYTE   W05
 BYTE   W04
 BYTE   W05
 BYTE   PEND 
//  #01 //007   ----------------------------------------
 BYTE   W92
 BYTE   W03
 BYTE   EOT
 BYTE   As3  v074
 BYTE   Fn4
 BYTE   W01
//  #01 //008   ----------------------------------------
 BYTE   TIE  Dn4  v096
 BYTE   W96
//  #01 //009   ----------------------------------------
 BYTE   W23
 BYTE   EOT
 BYTE   W01
 BYTE   N23
 BYTE   W24
 BYTE   Fn4
 BYTE   W24
 BYTE   As3
 BYTE   W24
//  #01 //010   ----------------------------------------
Label_01A29F82:
 BYTE   N44  An3  v096
 BYTE   W48
 BYTE   Fn3
 BYTE   W48
 BYTE   PEND 
//  #01 //011   ----------------------------------------
 BYTE   N68  Gn3
 BYTE   W72
 BYTE   N23  Fn3
 BYTE   W24
//  #01 //012   ----------------------------------------
 BYTE   TIE  Dn4
 BYTE   W96
//  #01 //013   ----------------------------------------
 BYTE   W23
 BYTE   EOT
 BYTE   W01
 BYTE   N44  Fn4
 BYTE   W48
 BYTE   N23  Gn4
 BYTE   W24
//  #01 //014   ----------------------------------------
 BYTE   N44  En4
 BYTE   W48
 BYTE   Cn4
 BYTE   W48
//  #01 //015   ----------------------------------------
 BYTE   N32  As3
 BYTE   W36
 BYTE   N05  An3
 BYTE   W06
 BYTE   As3
 BYTE   W06
 BYTE   N44  Cn4
 BYTE   W48
//  #01 //016   ----------------------------------------
 BYTE   TIE  Dn4
 BYTE   W96
//  #01 //017   ----------------------------------------
 BYTE   W23
 BYTE   EOT
 BYTE   W01
 BYTE   N23
 BYTE   W24
 BYTE   Fn4
 BYTE   W24
 BYTE   As3
 BYTE   W24
//  #01 //018   ----------------------------------------
 BYTE   PATT
  POIN2 Label_01A29F82
//  #01 //019   ----------------------------------------
 BYTE   N68  Gn3  v096
 BYTE   W72
 BYTE   N11  Dn4
 BYTE   W12
 BYTE   Ds4
 BYTE   W12
//  #01 //020   ----------------------------------------
 BYTE   N32  Fn4
 BYTE   W36
 BYTE   N23  As3
 BYTE   W24
 BYTE   N11  Dn4
 BYTE   W12
 BYTE   N44  Cn4
 BYTE   W24
//  #01 //021   ----------------------------------------
 BYTE   W24
 BYTE   N23  Fn4
 BYTE   W24
 BYTE   An4
 BYTE   W24
 BYTE   As4
 BYTE   W24
//  #01 //022   ----------------------------------------
 BYTE   N32  An4
 BYTE   W36
 BYTE   TIE  Gn4
 BYTE   W60
//  #01 //023   ----------------------------------------
 BYTE   W92
 BYTE   W03
 BYTE   EOT
 BYTE   W01
//  #01 //024   ----------------------------------------
 BYTE   W96
//  #01 //025   ----------------------------------------
 BYTE   W96
//  #01 //026   ----------------------------------------
 BYTE   W96
//  #01 //027   ----------------------------------------
 BYTE   W96
//  #01 //028   ----------------------------------------
 BYTE   PATT
  POIN2 Label_01A29F22
//  #01 //029   ----------------------------------------
 BYTE   PATT
  POIN2 Label_01A29F40
//  #01 //030   ----------------------------------------
 BYTE   PATT
  POIN2 Label_01A29F57
//  #01 //031   ----------------------------------------
 BYTE   W72
 BYTE   N05  An3  v096
 BYTE   N05  An4
 BYTE   W06
 BYTE   EOT
 BYTE   As3
 BYTE   N05
 BYTE   N05  As4
 BYTE   W06
 BYTE   Cn4
 BYTE   N05  Cn5
 BYTE   W06
 BYTE   EOT
 BYTE   Dn4
 BYTE   N05
 BYTE   N05  Dn5
 BYTE   W05
 BYTE   EOT
 BYTE   Fn4
 BYTE   W01
//  #01 //032   ----------------------------------------
 BYTE   N32  As3  v064
 BYTE   N32  Dn4
 BYTE   N32  Fn4  v096
 BYTE   N32  Fn5
 BYTE   W36
 BYTE   An3  v064
 BYTE   N32  Cn4
 BYTE   N32  Ds4  v096
 BYTE   N32  Ds5
 BYTE   W36
 BYTE   N11  Gn3  v064
 BYTE   N11  As3
 BYTE   N11  Dn4  v096
 BYTE   N11  Dn5
 BYTE   W12
 BYTE   N56  Fn3  v064
 BYTE   N56  An3
 BYTE   N32  Cn4  v096
 BYTE   N32  Cn5
 BYTE   W12
//  #01 //033   ----------------------------------------
 BYTE   W24
 BYTE   N22  Dn4
 BYTE   N22  Dn5
 BYTE   W24
 BYTE   N44  Dn3  v064
 BYTE   N44  Fn3
 BYTE   N22  As3  v096
 BYTE   N22  As4
 BYTE   W24
 BYTE   An3
 BYTE   N22  An4
 BYTE   W24
//  #01 //034   ----------------------------------------
 BYTE   N32  Fn3  v064
 BYTE   N11  An3  v096
 BYTE   N11  An4
 BYTE   W12
 BYTE   As3
 BYTE   N11  As4
 BYTE   W12
 BYTE   Cn4
 BYTE   N11  Cn5
 BYTE   W12
 BYTE   N32  Gn3  v064
 BYTE   N32  As3
 BYTE   N36  Dn4  v096
 BYTE   TIE  Dn5
 BYTE   W36
 BYTE   N11  Gn3  v064
 BYTE   N11  Dn4
 BYTE   W12
 BYTE   N32  Cn4
 BYTE   N32  Fn4
 BYTE   W12
//  #01 //035   ----------------------------------------
 BYTE   W24
 BYTE   N18  Dn4
 BYTE   N32  Gn4
 BYTE   W18
 BYTE   EOT
 BYTE   Dn5
 BYTE   W18
 BYTE   N18  As3
 BYTE   N30  Dn4
 BYTE   W12
 BYTE   N05  An3  v096
 BYTE   N05  An4
 BYTE   W06
 BYTE   As3
 BYTE   N05  As4
 BYTE   W06
 BYTE   Cn4
 BYTE   N05  Cn5
 BYTE   W06
 BYTE   Dn4
 BYTE   N05  Dn5
 BYTE   W06
//  #01 //036   ----------------------------------------
 BYTE   N32  Gn3  v064
 BYTE   N32  As3
 BYTE   N32  Fn4  v096
 BYTE   N32  Fn5
 BYTE   W36
 BYTE   An3  v064
 BYTE   N32  Cn4
 BYTE   N32  Ds4  v096
 BYTE   N32  Ds5
 BYTE   W36
 BYTE   N11  As3  v064
 BYTE   N11  Dn4  v096
 BYTE   N11  Dn5
 BYTE   W12
 BYTE   N56  An3  v064
 BYTE   N32  Cn4  v096
 BYTE   N32  Cn5
 BYTE   W12
//  #01 //037   ----------------------------------------
 BYTE   W24
 BYTE   N22  An4
 BYTE   N22  An5
 BYTE   W24
 BYTE   N44  Dn3  v064
 BYTE   N44  An3
 BYTE   N22  As4  v096
 BYTE   N22  As5
 BYTE   W24
 BYTE   Cn5
 BYTE   N22  Cn6
 BYTE   W24
//  #01 //038   ----------------------------------------
 BYTE   N32  Fn3  v064
 BYTE   N32  An3
 BYTE   N32  An4  v096
 BYTE   N32  An5
 BYTE   W36
 BYTE   Gn3  v064
 BYTE   N32  As3
 BYTE   TIE  Gn4  v096
 BYTE   TIE  Gn5
 BYTE   W36
 BYTE   N23  Gn3  v064
 BYTE   N23  Cn4
 BYTE   W24
//  #01 //039   ----------------------------------------
 BYTE   N72  An3
 BYTE   N23  Ds4
 BYTE   W24
 BYTE   Dn4
 BYTE   W18
 BYTE   EOT
 BYTE   Gn4  v091
 BYTE   W06
 BYTE   N23  Ds4
 BYTE   W24
 BYTE   N05  An3  v096
 BYTE   N23  Fn4  v064
 BYTE   N05  An4  v096
 BYTE   W06
 BYTE   As3
 BYTE   N05  As4
 BYTE   W06
 BYTE   Cn4
 BYTE   N05  Cn5
 BYTE   W06
 BYTE   Dn4
 BYTE   N05  Dn5
 BYTE   W06
//  #01 //040   ----------------------------------------
 BYTE   N92  As3  v064
 BYTE   N32  Fn4  v096
 BYTE   N32  Fn5
 BYTE   W36
 BYTE   Ds4
 BYTE   N32  Ds5
 BYTE   W36
 BYTE   N11  Dn4
 BYTE   N11  Dn5
 BYTE   W12
 BYTE   N32  Cn4
 BYTE   N32  Cn5
 BYTE   W12
//  #01 //041   ----------------------------------------
 BYTE   N23  An3  v064
 BYTE   W24
 BYTE   N22  As3  v096
 BYTE   N23  Gn4  v064
 BYTE   N22  As4  v096
 BYTE   W24
 BYTE   An3
 BYTE   N22  An4
 BYTE   W24
 BYTE   N23  Gn3  v064
 BYTE   N22  As3  v096
 BYTE   N22  As4
 BYTE   W24
//  #01 //042   ----------------------------------------
 BYTE   N32  Dn3  v064
 BYTE   N32  Cn4  v096
 BYTE   N32  Cn5
 BYTE   W36
 BYTE   Fs3  v064
 BYTE   N32  Fn4  v096
 BYTE   N32  As4  v064
 BYTE   N32  Fn5  v096
 BYTE   W36
 BYTE   N11  An3
 BYTE   N11  An4
 BYTE   N11  Cn5  v064
 BYTE   W12
 BYTE   N56  As3  v096
 BYTE   N56  As4
 BYTE   N56  Dn5  v064
 BYTE   W12
//  #01 //043   ----------------------------------------
 BYTE   W48
 BYTE   N36  Dn4
 BYTE   N44  Fn5
 BYTE   W24
 BYTE   N11  Ds3  v096
 BYTE   N11  Ds4
 BYTE   W12
 BYTE   Dn3
 BYTE   N11  Dn4
 BYTE   W12
//  #01 //044   ----------------------------------------
 BYTE   N32  Ds3
 BYTE   N24  Ds4
 BYTE   N36  As4  v064
 BYTE   N23  Ds5
 BYTE   W24
 BYTE   N10  Ds4
 BYTE   W12
 BYTE   N12  As3  v096
 BYTE   N11  As4
 BYTE   W12
 BYTE   N23  As3  v064
 BYTE   N23  Gn4
 BYTE   W24
 BYTE   N11  Gn3
 BYTE   N11  Ds4
 BYTE   W12
 BYTE   N56  Fs3
 BYTE   N36  Dn4
 BYTE   W12
//  #01 //045   ----------------------------------------
 BYTE   W24
 BYTE   N22  Dn4  v096
 BYTE   N22  Dn5
 BYTE   W24
 BYTE   N44  Dn3  v064
 BYTE   N22  Cn4  v096
 BYTE   N44  Fs4  v064
 BYTE   N22  Cn5  v096
 BYTE   W24
 BYTE   As3
 BYTE   N22  As4
 BYTE   W24
//  #01 //046   ----------------------------------------
 BYTE   TIE  Ds3  v064
 BYTE   N22  An3  v096
 BYTE   N44  Fs4  v064
 BYTE   N22  An4  v096
 BYTE   W24
 BYTE   N11  As3
 BYTE   N11  As4
 BYTE   W12
 BYTE   N78  Gn3
 BYTE   N12  Gn4
 BYTE   W12
 BYTE   N44  Gn4  v064
 BYTE   W48
//  #01 //047   ----------------------------------------
 BYTE   An4
 BYTE   W48
 BYTE   As4
 BYTE   W44
 BYTE   W03
 BYTE   EOT
 BYTE   Ds3
 BYTE   W01
//  #01 //048   ----------------------------------------
 BYTE   N11  As1  v096
 BYTE   N11  Dn3
 BYTE   N05  Fn3  v127
 BYTE   N11  Gn3  v096
 BYTE   N11  As3
 BYTE   N05  Dn4
 BYTE   W03
 BYTE   W01
 BYTE   W01
 BYTE   W07
 BYTE   Fn3
 BYTE   N05  Dn4
 BYTE   W12
 BYTE   Fn3
 BYTE   N05  Dn4
 BYTE   W12
 BYTE   N11  Cs2
 BYTE   N11  Fn3
 BYTE   N05  An3  v127
 BYTE   N11  As3  v096
 BYTE   N11  Dn4
 BYTE   N05  Fn4
 BYTE   W03
 BYTE   W01
 BYTE   W01
 BYTE   W07
 BYTE   An3
 BYTE   N05  Fn4
 BYTE   W12
 BYTE   An3
 BYTE   N05  Fn4
 BYTE   W12
 BYTE   N11  Dn2
 BYTE   N11  En3
 BYTE   N05  An3
 BYTE   N11  Cn4
 BYTE   N05  En4
 BYTE   W03
 BYTE   W01
 BYTE   W01
 BYTE   W07
 BYTE   An3
 BYTE   N05  En4
 BYTE   W12
//  #01 //049   ----------------------------------------
 BYTE   An3
 BYTE   N05  En4
 BYTE   W12
 BYTE   N11  Gn1
 BYTE   N11  An2
 BYTE   N11  Dn3
 BYTE   N05  Fn3
 BYTE   N05  An3
 BYTE   W03
 BYTE   W01
 BYTE   W01
 BYTE   W07
 BYTE   Fn3
 BYTE   N05  An3
 BYTE   W12
 BYTE   Fn3
 BYTE   N05  An3
 BYTE   W12
 BYTE   N22  Cn2
 BYTE   N23  En3
 BYTE   N05  An3  v127
 BYTE   N05  Cn4
 BYTE   W03
 BYTE   W01
 BYTE   N19  Gs3  v096
 BYTE   W01
 BYTE   W03
 BYTE   N03  Cn4
 BYTE   W04
 BYTE   N05  An3
 BYTE   N05  Cn4
 BYTE   W12
 BYTE   Gn3  v127
 BYTE   N05  As3  v096
 BYTE   W03
 BYTE   W01
 BYTE   W01
 BYTE   W07
 BYTE   Gn3
 BYTE   N05  As3
 BYTE   W12
//  #01 //050   ----------------------------------------
 BYTE   N11  Gn1
 BYTE   N05  Gn3
 BYTE   N05  Cn4
 BYTE   W03
 BYTE   W01
 BYTE   W01
 BYTE   W07
 BYTE   Gn3
 BYTE   N05  Cn4
 BYTE   W12
 BYTE   Gn3
 BYTE   N05  Cn4
 BYTE   W12
 BYTE   N11  Cn2
 BYTE   N11  Dn4
 BYTE   N05  Ds4  v127
 BYTE   N05  Gn4  v096
 BYTE   W03
 BYTE   W01
 BYTE   W01
 BYTE   W07
 BYTE   Ds4
 BYTE   N05  Gn4
 BYTE   W12
 BYTE   Ds4
 BYTE   N05  Gn4
 BYTE   W12
 BYTE   N11  Ds2
 BYTE   N22  Dn3
 BYTE   N22  Gn3
 BYTE   N05  Dn4  v127
 BYTE   N05  Gn4
 BYTE   W03
 BYTE   W01
 BYTE   W01
 BYTE   W07
 BYTE   Dn4  v096
 BYTE   N05  Gn4
 BYTE   W12
//  #01 //051   ----------------------------------------
 BYTE   Dn4
 BYTE   N05  Gn4
 BYTE   W12
 BYTE   N11  Ds2
 BYTE   N05  Dn4  v127
 BYTE   N05  Fn4  v096
 BYTE   W03
 BYTE   W01
 BYTE   W01
 BYTE   W07
 BYTE   Dn4
 BYTE   N05  Fn4
 BYTE   W12
 BYTE   Dn4
 BYTE   N05  Fn4
 BYTE   W12
 BYTE   N22  Dn2
 BYTE   N23  Cn3
 BYTE   N05  Cn4  v127
 BYTE   N05  Fn4
 BYTE   W03
 BYTE   W01
 BYTE   N19  Fn3  v096
 BYTE   W01
 BYTE   W03
 BYTE   N15  As3
 BYTE   W04
 BYTE   N05  Cn4
 BYTE   N05  Fn4
 BYTE   W12
 BYTE   N11  Ds3
 BYTE   N05  Cn4  v127
 BYTE   N05  Ds4  v096
 BYTE   W03
 BYTE   W01
 BYTE   W01
 BYTE   W07
 BYTE   Cn4
 BYTE   N05  Ds4
 BYTE   W12
//  #01 //052   ----------------------------------------
 BYTE   N11  Ds2
 BYTE   N11  Dn3
 BYTE   N11  Gn3
 BYTE   N05  As3  v127
 BYTE   N05  Dn4  v096
 BYTE   W03
 BYTE   W01
 BYTE   W01
 BYTE   W07
 BYTE   As3
 BYTE   N05  Dn4
 BYTE   W12
 BYTE   As3
 BYTE   N05  Dn4
 BYTE   W12
 BYTE   N11  Fn2
 BYTE   N11  An3
 BYTE   N11  Dn4
 BYTE   N05  Ds4  v127
 BYTE   N05  An4  v096
 BYTE   W03
 BYTE   W01
 BYTE   W01
 BYTE   W07
 BYTE   Ds4
 BYTE   N05  An4
 BYTE   W12
 BYTE   Ds4
 BYTE   N05  An4
 BYTE   W12
 BYTE   N11  Gn2
 BYTE   N22  As3
 BYTE   N05  Dn4
 BYTE   N05  As4
 BYTE   W03
 BYTE   W01
 BYTE   W01
 BYTE   W07
 BYTE   Dn4
 BYTE   N05  As4
 BYTE   W12
//  #01 //053   ----------------------------------------
 BYTE   Dn4
 BYTE   N05  As4
 BYTE   W12
 BYTE   N11  Gn1
 BYTE   N11  Gn3
 BYTE   N05  Dn4  v127
 BYTE   N05  Gn4  v096
 BYTE   W03
 BYTE   W01
 BYTE   W01
 BYTE   W07
 BYTE   Dn4
 BYTE   N05  Gn4
 BYTE   W12
 BYTE   Dn4
 BYTE   N05  Gn4
 BYTE   W12
 BYTE   N22  Bn1
 BYTE   N22  Gn3
 BYTE   N05  Ds4
 BYTE   N05  Gn4  v127
 BYTE   W03
 BYTE   W01
 BYTE   W01
 BYTE   W07
 BYTE   Ds4  v096
 BYTE   N05  Gn4
 BYTE   W12
 BYTE   Dn4
 BYTE   N05  Dn5
 BYTE   W03
 BYTE   W01
 BYTE   W01
 BYTE   W07
 BYTE   Dn4
 BYTE   N05  Dn5
 BYTE   W12
//  #01 //054   ----------------------------------------
 BYTE   N11  As1
 BYTE   N11  Dn4
 BYTE   N05  Ds4  v127
 BYTE   N05  Dn5  v096
 BYTE   W03
 BYTE   W01
 BYTE   W01
 BYTE   W07
 BYTE   Ds4
 BYTE   N05  Dn5
 BYTE   W12
 BYTE   Ds4
 BYTE   N05  Dn5
 BYTE   W12
 BYTE   N11  As1
 BYTE   N05  As3  v127
 BYTE   N11  Cn4  v096
 BYTE   N05  Cn5
 BYTE   W03
 BYTE   W01
 BYTE   W01
 BYTE   W07
 BYTE   As3
 BYTE   N05  Cn5
 BYTE   W12
 BYTE   As3
 BYTE   N05  Cn5
 BYTE   W12
 BYTE   N11  As1
 BYTE   N22  Gn3
 BYTE   N05  As3  v127
 BYTE   N05  Gn4  v096
 BYTE   W03
 BYTE   W01
 BYTE   W01
 BYTE   W07
 BYTE   As3
 BYTE   N05  Gn4
 BYTE   W12
//  #01 //055   ----------------------------------------
 BYTE   Gn4  v127
 BYTE   N05  As4
 BYTE   N05  Dn5  v096
 BYTE   W03
 BYTE   W01
 BYTE   W01
 BYTE   W01
 BYTE   An4
 BYTE   W06
 BYTE   N11  An1
 BYTE   N05  Gn4
 BYTE   N05  As4
 BYTE   N05  Dn5
 BYTE   W06
 BYTE   Dn4
 BYTE   W06
 BYTE   An3
 BYTE   N05  Gn4
 BYTE   N05  As4
 BYTE   N05  Dn5
 BYTE   W06
 BYTE   Gn3
 BYTE   W06
 BYTE   N11  An1
 BYTE   N05  Dn3
 BYTE   N05  Gn4
 BYTE   N05  As4
 BYTE   N05  Dn5
 BYTE   W06
 BYTE   An2
 BYTE   W06
 BYTE   N11  Gn1
 BYTE   N05  Fs4  v127
 BYTE   N05  An4
 BYTE   N05  Cn5  v096
 BYTE   W03
 BYTE   W01
 BYTE   W01
 BYTE   W01
 BYTE   An4
 BYTE   W06
 BYTE   N11  An1
 BYTE   N05  Fs4
 BYTE   N05  Gn4
 BYTE   N05  An4
 BYTE   N05  Cn5
 BYTE   W06
 BYTE   Dn4
 BYTE   W06
 BYTE   N11  Gn1
 BYTE   N05  An3
 BYTE   N05  Fs4
 BYTE   N05  An4
 BYTE   N05  Cn5
 BYTE   W06
 BYTE   Gn3
 BYTE   W06
 BYTE   N11  Cn1
 BYTE   N05  Dn3
 BYTE   N05  Fs4
 BYTE   N05  An4
 BYTE   N05  Cn5
 BYTE   W06
 BYTE   Gn2
 BYTE   W06
//  #01 //056   ----------------------------------------
 BYTE   W24
 BYTE   N44  An3
 BYTE   N44  Ds4
 BYTE   N44  An4
 BYTE   W48
 BYTE   N11  As3
 BYTE   N11  As4
 BYTE   W12
 BYTE   N32  Fn3
 BYTE   N32  As3
 BYTE   N32  Fn4
 BYTE   W12
//  #01 //057   ----------------------------------------
 BYTE   W24
 BYTE   N23  Ds3
 BYTE   N23  Ds4
 BYTE   W24
 BYTE   Dn3
 BYTE   N23  Dn4
 BYTE   W24
 BYTE   Cn3
 BYTE   N23  Cn4
 BYTE   W24
//  #01 //058   ----------------------------------------
 BYTE   N32  Cn3
 BYTE   N32  Gn3
 BYTE   N32  Cn4
 BYTE   W36
 BYTE   As2
 BYTE   N32  As3
 BYTE   W36
 BYTE   N11  Cn3
 BYTE   N11  Gn3
 BYTE   N11  Cn4
 BYTE   W12
 BYTE   TIE  Dn3
 BYTE   TIE  Gn3
 BYTE   TIE  Dn4
 BYTE   W12
//  #01 //059   ----------------------------------------
 BYTE   W92
 BYTE   W03
 BYTE   EOT
 BYTE   Dn3  v067
 BYTE   Dn4
 BYTE   W01
//  #01 //060   ----------------------------------------
 BYTE   W24
 BYTE   N44  An3
 BYTE   N44  Ds4
 BYTE   N44  An4
 BYTE   W48
 BYTE   N11  As3
 BYTE   N11  As4
 BYTE   W12
 BYTE   N32  Fn3
 BYTE   N32  As3
 BYTE   N32  Fn4
 BYTE   W12
//  #01 //061   ----------------------------------------
 BYTE   W24
 BYTE   N23  Ds3
 BYTE   N23  Ds4
 BYTE   W24
 BYTE   Dn3
 BYTE   N23  Dn4
 BYTE   W24
 BYTE   Cn4
 BYTE   N23  Cn5
 BYTE   W24
//  #01 //062   ----------------------------------------
 BYTE   N32  Cn4
 BYTE   N32  Gn4
 BYTE   N32  Cn5
 BYTE   W36
 BYTE   As3
 BYTE   N32  As4
 BYTE   W36
 BYTE   N23  Cn4
 BYTE   N23  Cn5
 BYTE   W24
//  #01 //063   ----------------------------------------
 BYTE   Dn4
 BYTE   N23  Dn5
 BYTE   W24
 BYTE   Ds4
 BYTE   N23  Ds5
 BYTE   W24
 BYTE   Dn4
 BYTE   N23  Dn5
 BYTE   W24
 BYTE   Cn4
 BYTE   N23  Cn5
 BYTE   W24
//  #01 //064   ----------------------------------------
 BYTE   W12
 BYTE   N02  Fn4
 BYTE   W03
 BYTE   Gn4
 BYTE   W03
 BYTE   Gs4
 BYTE   W03
 BYTE   As4
 BYTE   W03
 BYTE   N44  Cn4
 BYTE   N44  Fs4
 BYTE   N44  Cn5
 BYTE   W48
 BYTE   N11  Cs4
 BYTE   N11  Cs5
 BYTE   W12
 BYTE   N32  Gs4
 BYTE   N32  Cs5
 BYTE   N32  Gs5
 BYTE   W12
//  #01 //065   ----------------------------------------
 BYTE   W24
 BYTE   N23  Fs4
 BYTE   N23  Fs5
 BYTE   W24
 BYTE   Fn4
 BYTE   N23  Fn5
 BYTE   W24
 BYTE   Ds4
 BYTE   N23  Ds5
 BYTE   W24
//  #01 //066   ----------------------------------------
 BYTE   N32  Ds4
 BYTE   N32  As4
 BYTE   N32  Ds5
 BYTE   W36
 BYTE   Cs4
 BYTE   N32  Cs5
 BYTE   W36
 BYTE   N11  Ds4
 BYTE   N11  Ds5
 BYTE   W12
 BYTE   N56  Fn4
 BYTE   N56  Fn5
 BYTE   W12
//  #01 //067   ----------------------------------------
 BYTE   W48
 BYTE   N23  Ds4
 BYTE   N23  Ds5
 BYTE   W24
 BYTE   Cs4
 BYTE   N23  Cs5
 BYTE   W24
//  #01 //068   ----------------------------------------
Label_01A2A4C3:
 BYTE   N32  Cs4  v096
 BYTE   N32  Cs5
 BYTE   W36
 BYTE   Gs4
 BYTE   N32  Gs5
 BYTE   W36
 BYTE   Cs4
 BYTE   N32  Cs5
 BYTE   W24
 BYTE   PEND 
//  #01 //069   ----------------------------------------
 BYTE   W12
 BYTE   Gs4
 BYTE   N32  Gs5
 BYTE   W36
 BYTE   N23  Cs4
 BYTE   N23  Cs5
 BYTE   W24
 BYTE   Cn4
 BYTE   N23  Cn5
 BYTE   W24
//  #01 //070   ----------------------------------------
 BYTE   N32  Cn4
 BYTE   N32  Ds4
 BYTE   N32  Cn5
 BYTE   W36
 BYTE   N80  As3
 BYTE   N80  Cs4
 BYTE   N80  As4
 BYTE   W60
//  #01 //071   ----------------------------------------
 BYTE   W48
 BYTE   N23  Cn4
 BYTE   N23  Cn5
 BYTE   W24
 BYTE   Cs4
 BYTE   N23  Cs5
 BYTE   W24
//  #01 //072   ----------------------------------------
 BYTE   PATT
  POIN2 Label_01A2A4C3
//  #01 //073   ----------------------------------------
 BYTE   W12
 BYTE   N32  Gs4  v096
 BYTE   N32  Gs5
 BYTE   W36
 BYTE   N23  Fs4
 BYTE   N23  Fs5
 BYTE   W24
 BYTE   Fn4
 BYTE   N23  Fn5
 BYTE   W24
//  #01 //074   ----------------------------------------
 BYTE   N32  Ds4
 BYTE   N32  Ds5
 BYTE   W36
 BYTE   TIE  Fn4
 BYTE   TIE  As4
 BYTE   TIE  Fn5
 BYTE   W60
//  #01 //075   ----------------------------------------
 BYTE   W92
 BYTE   W03
 BYTE   EOT
 BYTE   Fn4  v082
 BYTE   Fn5
 BYTE   W01
//  #01 //076   ----------------------------------------
 BYTE   W12
 BYTE   N11  As3
 BYTE   W12
 BYTE   Cn4
 BYTE   W12
 BYTE   As3
 BYTE   W12
 BYTE   Fn4
 BYTE   W12
 BYTE   As3
 BYTE   W12
 BYTE   Cn4
 BYTE   W12
 BYTE   Fn3
 BYTE   W12
//  #01 //077   ----------------------------------------
 BYTE   As3
 BYTE   W12
 BYTE   Cn4
 BYTE   W12
 BYTE   As3
 BYTE   W12
 BYTE   Fn4
 BYTE   W12
 BYTE   As3
 BYTE   W12
 BYTE   Cn4
 BYTE   W12
 BYTE   Cs4
 BYTE   W12
 BYTE   Ds4
 BYTE   W12
//  #01 //078   ----------------------------------------
 BYTE   Gs4
 BYTE   W12
 BYTE   Cs4
 BYTE   W12
 BYTE   Cn4
 BYTE   W12
 BYTE   Gs4
 BYTE   W12
 BYTE   Cs4
 BYTE   W12
 BYTE   Cn4
 BYTE   W12
 BYTE   Gs4
 BYTE   W12
 BYTE   Cs4
 BYTE   W12
//  #01 //079   ----------------------------------------
 BYTE   Cn4
 BYTE   W12
 BYTE   Gs4
 BYTE   W12
 BYTE   Cs4
 BYTE   W12
 BYTE   Cn4
 BYTE   W12
 BYTE   Gs4
 BYTE   W12
 BYTE   Cs4
 BYTE   W12
 BYTE   Cn4
 BYTE   W12
 BYTE   Gs4
 BYTE   W12
//  #01 //080   ----------------------------------------
 BYTE   Cs4
 BYTE   W12
 BYTE   Cn4
 BYTE   W12
 BYTE   Gs4
 BYTE   W12
 BYTE   Cs4
 BYTE   W12
 BYTE   Cn4
 BYTE   W12
 BYTE   Gs4
 BYTE   W12
 BYTE   Cs4
 BYTE   W12
 BYTE   Cn4
 BYTE   W12
//  #01 //081   ----------------------------------------
 BYTE   Gs4
 BYTE   W12
 BYTE   Cs4
 BYTE   W12
 BYTE   Cn4
 BYTE   W12
 BYTE   Gs4
 BYTE   W12
 BYTE   Cs4
 BYTE   W12
 BYTE   Cn4
 BYTE   W36
//  #01 //082   ----------------------------------------
 BYTE   W96
//  #01 //083   ----------------------------------------
 BYTE   W96
//  #01 //084   ----------------------------------------
 BYTE   W96
//  #01 //085   ----------------------------------------
 BYTE   W84
 BYTE   W03
 BYTE   N02  Fn4  v052
 BYTE   W03
 BYTE   Gs4
 BYTE   W03
 BYTE   As4
 BYTE   W03
//  #01 //086   ----------------------------------------
 BYTE   N11  Cn5
 BYTE   W12
 BYTE   N22  Cs5
 BYTE   W24
 BYTE   Cn5
 BYTE   W24
 BYTE   Fn4
 BYTE   W24
 BYTE   N44  Ds4
 BYTE   W12
//  #01 //087   ----------------------------------------
 BYTE   W36
 BYTE   N22  Gs4
 BYTE   W24
 BYTE   Cs4
 BYTE   W24
 BYTE   Cn4
 BYTE   W12
//  #01 //088   ----------------------------------------
 BYTE   W96
//  #01 //089   ----------------------------------------
 BYTE   W96
//  #01 //090   ----------------------------------------
Label_01A2A5A0:
 BYTE   N05  Gs1  v080
 BYTE   N05  Cs2
 BYTE   W06
 BYTE   Cs1
 BYTE   N05  Gs1
 BYTE   W12
 BYTE   N05
 BYTE   N05  Cs2
 BYTE   W06
 BYTE   Cs1
 BYTE   N05  Gs1
 BYTE   W12
 BYTE   N05
 BYTE   N05  Cs2
 BYTE   W06
 BYTE   Cs1
 BYTE   N05  Gs1
 BYTE   W12
 BYTE   N05
 BYTE   N05  Cs2
 BYTE   W06
 BYTE   Cs1
 BYTE   N05  Gs1
 BYTE   W24
 BYTE   N05
 BYTE   N05  Cs2
 BYTE   W06
 BYTE   Cs1
 BYTE   N05  Gs1
 BYTE   W06
 BYTE   PEND 
//  #01 //091   ----------------------------------------
 BYTE   N05
 BYTE   N05  Cs2
 BYTE   W06
 BYTE   Cs1
 BYTE   N05  Gs1
 BYTE   W12
 BYTE   N05
 BYTE   N05  Cs2
 BYTE   W06
 BYTE   Cs1
 BYTE   N05  Gs1
 BYTE   W12
 BYTE   N05
 BYTE   N05  Cs2
 BYTE   W06
 BYTE   Cs1
 BYTE   N05  Gs1
 BYTE   W12
 BYTE   N05
 BYTE   N05  Cs2
 BYTE   W06
 BYTE   Cs1
 BYTE   N05  Gs1
 BYTE   W36
//  #01 //092   ----------------------------------------
 BYTE   N05
 BYTE   N05  Cs2
 BYTE   W06
 BYTE   Cs1
 BYTE   N05  Gs1
 BYTE   W12
 BYTE   N05
 BYTE   N05  Cs2
 BYTE   W06
 BYTE   Cs1
 BYTE   N05  Gs1
 BYTE   W12
 BYTE   N05
 BYTE   N05  Cs2
 BYTE   W06
 BYTE   Cs1
 BYTE   N05  Gs1
 BYTE   W12
 BYTE   N05
 BYTE   N05  Cs2
 BYTE   W06
 BYTE   Cs1
 BYTE   N05  Gs1
 BYTE   W12
 BYTE   N11  Bn3
 BYTE   W12
 BYTE   N05  Gs4
 BYTE   W06
 BYTE   Bn4
 BYTE   W06
//  #01 //093   ----------------------------------------
 BYTE   Gs1
 BYTE   N05  Cs2
 BYTE   N05  Gs2
 BYTE   N05  Ds5
 BYTE   W06
 BYTE   Cs1
 BYTE   N05  Gs1
 BYTE   N05  En5
 BYTE   W06
 BYTE   Ds5
 BYTE   W06
 BYTE   Bn4
 BYTE   W06
 BYTE   N11  Gs4
 BYTE   W12
 BYTE   N05  Gs1
 BYTE   N05  Cs2
 BYTE   N05  Gs2
 BYTE   N05  Bn4
 BYTE   W06
 BYTE   Cs1
 BYTE   N05  Gs1
 BYTE   N05  Cs5
 BYTE   W06
 BYTE   Bn4
 BYTE   W06
 BYTE   Gs4
 BYTE   W06
 BYTE   N11  Gn4
 BYTE   W12
 BYTE   N05  Gs1
 BYTE   N05  Cs2
 BYTE   N05  Gs2
 BYTE   N05  Gn4
 BYTE   W06
 BYTE   Cs1
 BYTE   N05  Gs1
 BYTE   N05  Fs4
 BYTE   W06
 BYTE   En4
 BYTE   W06
 BYTE   Cs4
 BYTE   W06
//  #01 //094   ----------------------------------------
 BYTE   PATT
  POIN2 Label_01A2A5A0
//  #01 //095   ----------------------------------------
 BYTE   N05  Gs1  v080
 BYTE   N05  Cs2
 BYTE   W06
 BYTE   Cs1
 BYTE   N05  Gs1
 BYTE   W12
 BYTE   N05
 BYTE   N05  Cs2
 BYTE   W06
 BYTE   Cs1
 BYTE   N05  Gs1
 BYTE   W12
 BYTE   N05
 BYTE   N05  Cs2
 BYTE   W06
 BYTE   Cs1
 BYTE   N05  Gs1
 BYTE   W12
 BYTE   N05
 BYTE   N05  Cs2
 BYTE   W06
 BYTE   Cs1
 BYTE   N05  Gs1
 BYTE   W12
 BYTE   En4
 BYTE   W06
 BYTE   Fs4
 BYTE   W06
 BYTE   Gs4
 BYTE   W06
 BYTE   Bn4
 BYTE   W06
//  #01 //096   ----------------------------------------
 BYTE   Gs1
 BYTE   N05  Cs2
 BYTE   N05  Gs2
 BYTE   N11  Cs5
 BYTE   W06
 BYTE   N05  Cs1
 BYTE   N05  Gs1
 BYTE   W06
 BYTE   N11  Cs5
 BYTE   W12
 BYTE   N11
 BYTE   W12
 BYTE   N05  Gs1
 BYTE   N05  Cs2
 BYTE   N05  Gs2
 BYTE   N11  Cs5
 BYTE   W06
 BYTE   N05  Cs1
 BYTE   N05  Gs1
 BYTE   W06
 BYTE   N11  Cs5
 BYTE   W12
 BYTE   N11
 BYTE   W12
 BYTE   N05
 BYTE   W06
 BYTE   Ds5
 BYTE   W06
 BYTE   En5
 BYTE   W06
 BYTE   Fs5
 BYTE   W06
//  #01 //097   ----------------------------------------
 BYTE   Gs1
 BYTE   N05  Cs2
 BYTE   N05  Gs2
 BYTE   N05  Bn5
 BYTE   W06
 BYTE   Cs1
 BYTE   N05  Gs1
 BYTE   N05  Gs5
 BYTE   W06
 BYTE   Fs5
 BYTE   W06
 BYTE   En5
 BYTE   W06
 BYTE   N11  Bn4
 BYTE   W12
 BYTE   N05  Gs1
 BYTE   N05  Cs2
 BYTE   N05  Gs2
 BYTE   N05  Fs5
 BYTE   W06
 BYTE   Cs1
 BYTE   N05  Gs1
 BYTE   N05  En5
 BYTE   W06
 BYTE   Cs5
 BYTE   W06
 BYTE   Bn4
 BYTE   W06
 BYTE   Cs5
 BYTE   W06
 BYTE   Gs4
 BYTE   W06
 BYTE   Gn4
 BYTE   W06
 BYTE   Fs4
 BYTE   W06
 BYTE   En4
 BYTE   W06
 BYTE   Ds4
 BYTE   W06
//  #01 //098   ----------------------------------------
 BYTE   N32  Ds2  v052
 BYTE   N32  Dn3
 BYTE   N32  An3
 BYTE   W36
 BYTE   Fn2
 BYTE   N32  Gn3
 BYTE   W36
 BYTE   Fn2
 BYTE   N32  Dn3
 BYTE   W24
//  #01 //099   ----------------------------------------
 BYTE   W12
 BYTE   N68  Dn2
 BYTE   N32  Cn3
 BYTE   W36
 BYTE   N22  Dn3
 BYTE   W24
 BYTE   Fn3
 BYTE   W24
//  #01 //100   ----------------------------------------
 BYTE   N32  Cn2
 BYTE   N32  Dn3
 BYTE   W36
 BYTE   Dn2
 BYTE   N32  Dn3
 BYTE   N32  Fn3
 BYTE   W36
 BYTE   Fn2
 BYTE   N32  As2
 BYTE   N32  Dn3
 BYTE   W24
//  #01 //101   ----------------------------------------
 BYTE   W12
 BYTE   En2
 BYTE   N32  Cn3
 BYTE   W36
 BYTE   N11  Dn3
 BYTE   W24
 BYTE   N32  Ds2
 BYTE   N32  Dn3
 BYTE   N32  Gn3
 BYTE   N32  Dn4
 BYTE   W24
//  #01 //102   ----------------------------------------
 BYTE   W12
 BYTE   N68  Dn2
 BYTE   N32  Fs3
 BYTE   N32  Cn4
 BYTE   W36
 BYTE   Gn3
 BYTE   N32  As3
 BYTE   W36
 BYTE   Fn3
 BYTE   N32  An3
 BYTE   W12
//  #01 //103   ----------------------------------------
 BYTE   W24
 BYTE   N22  Cn2
 BYTE   N22  Gn3
 BYTE   N22  As3
 BYTE   W24
 BYTE   N32  Cn2
 BYTE   N32  Dn3
 BYTE   N32  Cn4
 BYTE   W36
 BYTE   Dn2
 BYTE   N32  Fn3
 BYTE   N32  Dn4
 BYTE   W12
//  #01 //104   ----------------------------------------
 BYTE   W24
 BYTE   N44  Gn2
 BYTE   N44  Bn2
 BYTE   N44  Bn3
 BYTE   W72
//  #01 //105   ----------------------------------------
 BYTE   N32  Ds1  v080
 BYTE   N32  Ds2
 BYTE   N17  Dn3
 BYTE   N17  An3
 BYTE   W36
 BYTE   N32  Fn1
 BYTE   N32  Fn2
 BYTE   N17  Gn3
 BYTE   W36
 BYTE   N32  Fn1
 BYTE   N32  Fn2
 BYTE   N17  Dn3
 BYTE   W24
//  #01 //106   ----------------------------------------
 BYTE   W12
 BYTE   N68  Dn1
 BYTE   N68  Dn2
 BYTE   N17  Cn3
 BYTE   W36
 BYTE   N11  Dn3
 BYTE   W24
 BYTE   Fn3
 BYTE   W24
//  #01 //107   ----------------------------------------
 BYTE   N32  Cn1
 BYTE   N32  Cn2
 BYTE   N17  Dn3
 BYTE   W36
 BYTE   N32  Dn1
 BYTE   N32  Dn2
 BYTE   N17  Dn3
 BYTE   N17  Fn3
 BYTE   W36
 BYTE   N32  Fn1
 BYTE   N32  Fn2
 BYTE   N23  As2
 BYTE   N23  Dn3
 BYTE   W24
//  #01 //108   ----------------------------------------
 BYTE   W12
 BYTE   N32  En1
 BYTE   N32  En2
 BYTE   N17  Cn3
 BYTE   W36
 BYTE   N11  Dn3
 BYTE   W24
 BYTE   N32  Ds2
 BYTE   N32  Dn3
 BYTE   N23  Gn3
 BYTE   N23  Dn4
 BYTE   W24
//  #01 //109   ----------------------------------------
 BYTE   W12
 BYTE   N68  Dn2
 BYTE   N68  Cn3
 BYTE   N17  Fs3
 BYTE   N17  Cn4
 BYTE   W36
 BYTE   Gn3
 BYTE   N17  As3
 BYTE   W36
 BYTE   N32  Cn2
 BYTE   N28  Fn3
 BYTE   N28  An3
 BYTE   W12
//  #01 //110   ----------------------------------------
 BYTE   W24
 BYTE   N22  Cn1
 BYTE   N22  Cn2
 BYTE   N11  Gn3
 BYTE   N11  As3
 BYTE   W24
 BYTE   N32  Cn1
 BYTE   N32  Cn2
 BYTE   N17  Dn3
 BYTE   N17  Cn4
 BYTE   W36
 BYTE   N32  Dn1
 BYTE   N32  Dn2
 BYTE   N28  Fn3
 BYTE   N28  Dn4
 BYTE   W12
//  #01 //111   ----------------------------------------
 BYTE   W24
 BYTE   N44  Gn1
 BYTE   N44  Gn2
 BYTE   N23  Bn2
 BYTE   N23  Bn3
 BYTE   W72
//  #01 //112   ----------------------------------------
 BYTE   GoTo
  POIN2 Label_01A29F0E
//  #01 //113   ----------------------------------------
 BYTE   N05  An3  v080
 BYTE   N05  Dn4
 BYTE   W36
 BYTE   Cn4
 BYTE   N05  Fn4
 BYTE   W48
 BYTE   Gn3
 BYTE   N05  Cn4
 BYTE   W12
//  #01 //114   ----------------------------------------
 BYTE   W12
 BYTE   An3
 BYTE   N05  Dn4
 BYTE   W60
 BYTE   Gn3
 BYTE   N05  As3
 BYTE   W12
 BYTE   An3
 BYTE   N05  Cn4
 BYTE   W12
 BYTE   FINE

//**************** Track 2 (Midi-Chn.1) ****************//

Shackled_002:
//  #02 //000   ----------------------------------------
 BYTE   KEYSH   Shackled_key+0
Label_01887DD2:
 BYTE   VOICE   24
 BYTE   VOL   47*Shackled_mvl/mxv
 BYTE   PAN   c_v-1
 BYTE   VOL   47*Shackled_mvl/mxv
 BYTE   PAN   c_v+0
 BYTE   VOL   47*Shackled_mvl/mxv
 BYTE   PAN   c_v+0
 BYTE   N05  As2  v052
 BYTE   W06
 BYTE   N05
 BYTE   W06
 BYTE   Gn2
 BYTE   W12
 BYTE   An2
 BYTE   W12
 BYTE   Gn2
 BYTE   W12
 BYTE   As2
 BYTE   W06
 BYTE   N05
 BYTE   W06
 BYTE   Gn2
 BYTE   W12
 BYTE   An2
 BYTE   W12
 BYTE   Gn2
 BYTE   W12
//  #02 //001   ----------------------------------------
Label_01887DF6:
 BYTE   N05  As2  v052
 BYTE   W06
 BYTE   N05
 BYTE   W06
 BYTE   Gn2
 BYTE   W12
 BYTE   An2
 BYTE   W12
 BYTE   Gn2
 BYTE   W12
 BYTE   As2
 BYTE   W06
 BYTE   N05
 BYTE   W06
 BYTE   Gn2
 BYTE   W12
 BYTE   Cn3
 BYTE   W12
 BYTE   Gn2
 BYTE   W12
 BYTE   PEND 
//  #02 //002   ----------------------------------------
 BYTE   As2
 BYTE   W06
 BYTE   N05
 BYTE   W06
 BYTE   Gn2
 BYTE   W12
 BYTE   An2
 BYTE   W12
 BYTE   Gn2
 BYTE   W12
 BYTE   As2
 BYTE   W06
 BYTE   N05
 BYTE   W06
 BYTE   Gn2
 BYTE   W12
 BYTE   An2
 BYTE   W12
 BYTE   Gn2
 BYTE   W12
//  #02 //003   ----------------------------------------
 BYTE   PATT
  POIN2 Label_01887DF6
//  #02 //004   ----------------------------------------
 BYTE   N05  As2  v052
 BYTE   N05  Fn3
 BYTE   W06
 BYTE   As2
 BYTE   W06
 BYTE   Gn2
 BYTE   W04
 BYTE   W08
 BYTE   An2
 BYTE   W08
 BYTE   W04
 BYTE   Gn2  v056
 BYTE   W04
 BYTE   W08
 BYTE   As2
 BYTE   W06
 BYTE   N05
 BYTE   W03
 BYTE   W03
 BYTE   Gn2
 BYTE   W05
 BYTE   W07
 BYTE   An2  v060
 BYTE   W01
 BYTE   W08
 BYTE   W03
 BYTE   Gn2
 BYTE   W05
 BYTE   W07
//  #02 //005   ----------------------------------------
 BYTE   As2
 BYTE   W01
 BYTE   W05
 BYTE   As2  v064
 BYTE   W03
 BYTE   W03
 BYTE   Gn2
 BYTE   W06
 BYTE   W06
 BYTE   An2
 BYTE   W02
 BYTE   W08
 BYTE   W02
 BYTE   Gn2  v068
 BYTE   W06
 BYTE   W06
 BYTE   As2
 BYTE   W02
 BYTE   W04
 BYTE   N05
 BYTE   W04
 BYTE   W02
 BYTE   Gn2
 BYTE   W07
 BYTE   W05
 BYTE   Cn3  v072
 BYTE   W03
 BYTE   W08
 BYTE   W01
 BYTE   Gn2
 BYTE   W07
 BYTE   W05
//  #02 //006   ----------------------------------------
 BYTE   As2
 BYTE   N05  Fn3
 BYTE   W03
 BYTE   W03
 BYTE   As2  v076
 BYTE   W05
 BYTE   W01
 BYTE   Gn2
 BYTE   W07
 BYTE   W05
 BYTE   An2
 BYTE   W04
 BYTE   W08
 BYTE   Gn2
 BYTE   W08
 BYTE   W04
 BYTE   As2  v080
 BYTE   W04
 BYTE   W02
 BYTE   N05
 BYTE   W06
 BYTE   Gn2
 BYTE   W08
 BYTE   W04
 BYTE   An2  v084
 BYTE   N05  Fn3
 BYTE   W04
 BYTE   W08
 BYTE   Gn2
 BYTE   W01
 BYTE   W08
 BYTE   W03
//  #02 //007   ----------------------------------------
 BYTE   As2
 BYTE   W05
 BYTE   W01
 BYTE   N05
 BYTE   W06
 BYTE   Gn2  v088
 BYTE   W01
 BYTE   W08
 BYTE   W03
 BYTE   An2
 BYTE   W05
 BYTE   W07
 BYTE   Gn2
 BYTE   W02
 BYTE   W08
 BYTE   W02
 BYTE   As2  v092
 BYTE   N05  Fn3
 BYTE   W06
 BYTE   As2
 BYTE   W06
 BYTE   Gn2
 BYTE   W02
 BYTE   W08
 BYTE   W02
 BYTE   Cn3  v096
 BYTE   W06
 BYTE   W06
 BYTE   Gn2
 BYTE   W02
 BYTE   W09
 BYTE   W01
//  #02 //008   ----------------------------------------
Label_01887EB4:
 BYTE   N05  As2  v096
 BYTE   W06
 BYTE   N05
 BYTE   W06
 BYTE   Gn2
 BYTE   W12
 BYTE   An2
 BYTE   W12
 BYTE   Gn2
 BYTE   W12
 BYTE   As2
 BYTE   W06
 BYTE   N05
 BYTE   W06
 BYTE   Gn2
 BYTE   W12
 BYTE   Cn3
 BYTE   W12
 BYTE   Gn2
 BYTE   W12
 BYTE   PEND 
//  #02 //009   ----------------------------------------
 BYTE   PATT
  POIN2 Label_01887EB4
//  #02 //010   ----------------------------------------
Label_01887ED0:
 BYTE   N05  An2  v096
 BYTE   W06
 BYTE   N05
 BYTE   W06
 BYTE   Fn2
 BYTE   W12
 BYTE   An2
 BYTE   W12
 BYTE   Fn2
 BYTE   W12
 BYTE   An2
 BYTE   W06
 BYTE   N05
 BYTE   W06
 BYTE   Fn2
 BYTE   W12
 BYTE   As2
 BYTE   W12
 BYTE   Fn2
 BYTE   W12
 BYTE   PEND 
//  #02 //011   ----------------------------------------
Label_01887EE7:
 BYTE   N05  An2  v096
 BYTE   W06
 BYTE   N05
 BYTE   W06
 BYTE   Fn2
 BYTE   W12
 BYTE   An2
 BYTE   W12
 BYTE   Fn2
 BYTE   W12
 BYTE   An2
 BYTE   W06
 BYTE   N05
 BYTE   W06
 BYTE   Fn2
 BYTE   W12
 BYTE   As2
 BYTE   W12
 BYTE   An2
 BYTE   W12
 BYTE   PEND 
//  #02 //012   ----------------------------------------
 BYTE   PATT
  POIN2 Label_01887EB4
//  #02 //013   ----------------------------------------
 BYTE   PATT
  POIN2 Label_01887EB4
//  #02 //014   ----------------------------------------
 BYTE   PATT
  POIN2 Label_01887EB4
//  #02 //015   ----------------------------------------
 BYTE   PATT
  POIN2 Label_01887EB4
//  #02 //016   ----------------------------------------
 BYTE   PATT
  POIN2 Label_01887EB4
//  #02 //017   ----------------------------------------
 BYTE   PATT
  POIN2 Label_01887EB4
//  #02 //018   ----------------------------------------
 BYTE   PATT
  POIN2 Label_01887ED0
//  #02 //019   ----------------------------------------
 BYTE   PATT
  POIN2 Label_01887EE7
//  #02 //020   ----------------------------------------
 BYTE   PATT
  POIN2 Label_01887EB4
//  #02 //021   ----------------------------------------
 BYTE   PATT
  POIN2 Label_01887EB4
//  #02 //022   ----------------------------------------
 BYTE   PATT
  POIN2 Label_01887EB4
//  #02 //023   ----------------------------------------
 BYTE   PATT
  POIN2 Label_01887EB4
//  #02 //024   ----------------------------------------
Label_01887F3A:
 BYTE   N05  As2  v096
 BYTE   W06
 BYTE   N05
 BYTE   W06
 BYTE   Gn2
 BYTE   W12
 BYTE   An2
 BYTE   W12
 BYTE   Gn2
 BYTE   W12
 BYTE   As2
 BYTE   W06
 BYTE   N05
 BYTE   W06
 BYTE   Gn2
 BYTE   W12
 BYTE   An2
 BYTE   W12
 BYTE   Gn2
 BYTE   W12
 BYTE   PEND 
//  #02 //025   ----------------------------------------
 BYTE   PATT
  POIN2 Label_01887EB4
//  #02 //026   ----------------------------------------
 BYTE   PATT
  POIN2 Label_01887F3A
//  #02 //027   ----------------------------------------
 BYTE   PATT
  POIN2 Label_01887EB4
//  #02 //028   ----------------------------------------
 BYTE   N05  As2  v096
 BYTE   N05  Fn3
 BYTE   W06
 BYTE   As2
 BYTE   W06
 BYTE   Gn2
 BYTE   W12
 BYTE   An2
 BYTE   W12
 BYTE   Gn2
 BYTE   W12
 BYTE   As2
 BYTE   W06
 BYTE   N05
 BYTE   W06
 BYTE   Gn2
 BYTE   W12
 BYTE   An2
 BYTE   W12
 BYTE   Gn2
 BYTE   W12
//  #02 //029   ----------------------------------------
 BYTE   PATT
  POIN2 Label_01887EB4
//  #02 //030   ----------------------------------------
 BYTE   N05  As2  v096
 BYTE   N05  Fn3
 BYTE   W06
 BYTE   As2
 BYTE   W06
 BYTE   Gn2
 BYTE   W12
 BYTE   An2
 BYTE   W12
 BYTE   Gn2
 BYTE   W12
 BYTE   As2
 BYTE   W06
 BYTE   N05
 BYTE   W06
 BYTE   Gn2
 BYTE   W12
 BYTE   An2
 BYTE   N05  Fn3
 BYTE   W12
 BYTE   Gn2
 BYTE   W12
//  #02 //031   ----------------------------------------
 BYTE   As2
 BYTE   W06
 BYTE   N05
 BYTE   W06
 BYTE   Gn2
 BYTE   W12
 BYTE   An2
 BYTE   W12
 BYTE   Gn2
 BYTE   W12
 BYTE   As2
 BYTE   N05  Fn3
 BYTE   W06
 BYTE   As2
 BYTE   W06
 BYTE   Gn2
 BYTE   W12
 BYTE   An2
 BYTE   N05  Fn3
 BYTE   W12
 BYTE   Gn2
 BYTE   W12
//  #02 //032   ----------------------------------------
 BYTE   W96
//  #02 //033   ----------------------------------------
 BYTE   W96
//  #02 //034   ----------------------------------------
 BYTE   W96
//  #02 //035   ----------------------------------------
 BYTE   W96
//  #02 //036   ----------------------------------------
 BYTE   W96
//  #02 //037   ----------------------------------------
 BYTE   W96
//  #02 //038   ----------------------------------------
 BYTE   W96
//  #02 //039   ----------------------------------------
 BYTE   W96
//  #02 //040   ----------------------------------------
 BYTE   W96
//  #02 //041   ----------------------------------------
 BYTE   W96
//  #02 //042   ----------------------------------------
 BYTE   W96
//  #02 //043   ----------------------------------------
 BYTE   W96
//  #02 //044   ----------------------------------------
 BYTE   W96
//  #02 //045   ----------------------------------------
 BYTE   W96
//  #02 //046   ----------------------------------------
 BYTE   W96
//  #02 //047   ----------------------------------------
 BYTE   W96
//  #02 //048   ----------------------------------------
 BYTE   W96
//  #02 //049   ----------------------------------------
 BYTE   W96
//  #02 //050   ----------------------------------------
 BYTE   W96
//  #02 //051   ----------------------------------------
 BYTE   W96
//  #02 //052   ----------------------------------------
 BYTE   W96
//  #02 //053   ----------------------------------------
 BYTE   W96
//  #02 //054   ----------------------------------------
 BYTE   W96
//  #02 //055   ----------------------------------------
 BYTE   W96
//  #02 //056   ----------------------------------------
 BYTE   W96
//  #02 //057   ----------------------------------------
 BYTE   W96
//  #02 //058   ----------------------------------------
 BYTE   W96
//  #02 //059   ----------------------------------------
 BYTE   W96
//  #02 //060   ----------------------------------------
 BYTE   W96
//  #02 //061   ----------------------------------------
 BYTE   W96
//  #02 //062   ----------------------------------------
 BYTE   W96
//  #02 //063   ----------------------------------------
 BYTE   W96
//  #02 //064   ----------------------------------------
 BYTE   W96
//  #02 //065   ----------------------------------------
 BYTE   W96
//  #02 //066   ----------------------------------------
 BYTE   W96
//  #02 //067   ----------------------------------------
 BYTE   W96
//  #02 //068   ----------------------------------------
 BYTE   W96
//  #02 //069   ----------------------------------------
 BYTE   W96
//  #02 //070   ----------------------------------------
 BYTE   W96
//  #02 //071   ----------------------------------------
 BYTE   W96
//  #02 //072   ----------------------------------------
 BYTE   W96
//  #02 //073   ----------------------------------------
 BYTE   W96
//  #02 //074   ----------------------------------------
 BYTE   W96
//  #02 //075   ----------------------------------------
 BYTE   W96
//  #02 //076   ----------------------------------------
 BYTE   W96
//  #02 //077   ----------------------------------------
 BYTE   W96
//  #02 //078   ----------------------------------------
 BYTE   W96
//  #02 //079   ----------------------------------------
 BYTE   W96
//  #02 //080   ----------------------------------------
 BYTE   W96
//  #02 //081   ----------------------------------------
 BYTE   W96
//  #02 //082   ----------------------------------------
Label_01887FE1:
 BYTE   N11  Cn3  v080
 BYTE   W12
 BYTE   Cs3
 BYTE   W12
 BYTE   Fn3
 BYTE   W12
 BYTE   N23  Gs3
 BYTE   W24
 BYTE   Gn3
 BYTE   W24
 BYTE   As3
 BYTE   W12
 BYTE   PEND 
//  #02 //083   ----------------------------------------
Label_01887FF1:
 BYTE   W12
 BYTE   N11  Cn3  v080
 BYTE   W12
 BYTE   Cs3
 BYTE   W12
 BYTE   N23  Gs3
 BYTE   W24
 BYTE   Cn3
 BYTE   N23  Cn4
 BYTE   W24
 BYTE   N11  Cs3
 BYTE   W12
 BYTE   PEND 
//  #02 //084   ----------------------------------------
Label_01888003:
 BYTE   N11  Cn3  v080
 BYTE   W12
 BYTE   Cs3
 BYTE   W12
 BYTE   Fn3
 BYTE   W12
 BYTE   N23  Gs3
 BYTE   W24
 BYTE   Gn3
 BYTE   W24
 BYTE   N23
 BYTE   W12
 BYTE   PEND 
//  #02 //085   ----------------------------------------
Label_01888013:
 BYTE   W12
 BYTE   N23  Ds3  v080
 BYTE   W24
 BYTE   Gs3
 BYTE   W24
 BYTE   N11  Gn3
 BYTE   W12
 BYTE   Ds3
 BYTE   W24
 BYTE   PEND 
//  #02 //086   ----------------------------------------
 BYTE   PATT
  POIN2 Label_01887FE1
//  #02 //087   ----------------------------------------
 BYTE   PATT
  POIN2 Label_01887FF1
//  #02 //088   ----------------------------------------
 BYTE   PATT
  POIN2 Label_01888003
//  #02 //089   ----------------------------------------
 BYTE   PATT
  POIN2 Label_01888013
//  #02 //090   ----------------------------------------
 BYTE   W96
//  #02 //091   ----------------------------------------
 BYTE   W96
//  #02 //092   ----------------------------------------
 BYTE   W96
//  #02 //093   ----------------------------------------
 BYTE   W96
//  #02 //094   ----------------------------------------
 BYTE   W96
//  #02 //095   ----------------------------------------
 BYTE   W96
//  #02 //096   ----------------------------------------
 BYTE   W96
//  #02 //097   ----------------------------------------
 BYTE   W96
//  #02 //098   ----------------------------------------
 BYTE   N32  Ds2  v052
 BYTE   N32  Dn3
 BYTE   N32  An3
 BYTE   W36
 BYTE   Fn2
 BYTE   N32  Gn3
 BYTE   W36
 BYTE   Fn2
 BYTE   N32  Dn3
 BYTE   W24
//  #02 //099   ----------------------------------------
 BYTE   W12
 BYTE   N68  Dn2
 BYTE   N32  Cn3
 BYTE   W36
 BYTE   N23  Dn3
 BYTE   W24
 BYTE   Fn3
 BYTE   W24
//  #02 //100   ----------------------------------------
 BYTE   N32  Cn2
 BYTE   N32  Dn3
 BYTE   W36
 BYTE   Dn2
 BYTE   N32  Dn3
 BYTE   N32  Fn3
 BYTE   W36
 BYTE   Fn2
 BYTE   N32  As2
 BYTE   N32  Dn3
 BYTE   W24
//  #02 //101   ----------------------------------------
 BYTE   W12
 BYTE   En2
 BYTE   N32  Cn3
 BYTE   W36
 BYTE   N11  Dn3
 BYTE   W24
 BYTE   N32  Ds2
 BYTE   N32  Dn3
 BYTE   N32  Gn3
 BYTE   N32  Dn4
 BYTE   W24
//  #02 //102   ----------------------------------------
 BYTE   W12
 BYTE   N68  Dn2
 BYTE   N32  Fs3
 BYTE   N32  Cn4
 BYTE   W36
 BYTE   Gn3
 BYTE   N32  As3
 BYTE   W36
 BYTE   Fn3
 BYTE   N32  An3
 BYTE   W12
//  #02 //103   ----------------------------------------
 BYTE   W24
 BYTE   N23  Cn2
 BYTE   N23  Gn3
 BYTE   N23  As3
 BYTE   W24
 BYTE   N32  Cn2
 BYTE   N32  Dn3
 BYTE   N32  Cn4
 BYTE   W36
 BYTE   Dn2
 BYTE   N32  Fn3
 BYTE   N32  Dn4
 BYTE   W12
//  #02 //104   ----------------------------------------
 BYTE   W24
 BYTE   N44  Gn2
 BYTE   N44  Bn2
 BYTE   N44  Bn3
 BYTE   W72
//  #02 //105   ----------------------------------------
 BYTE   N32  Ds1  v080
 BYTE   N32  Ds2
 BYTE   N32  Dn3
 BYTE   N32  An3
 BYTE   W36
 BYTE   Fn1
 BYTE   N32  Fn2
 BYTE   N32  Gn3
 BYTE   W36
 BYTE   Fn1
 BYTE   N32  Fn2
 BYTE   N32  Dn3
 BYTE   W24
//  #02 //106   ----------------------------------------
 BYTE   W12
 BYTE   N68  Dn1
 BYTE   N68  Dn2
 BYTE   N32  Cn3
 BYTE   W36
 BYTE   N23  Dn3
 BYTE   W24
 BYTE   Fn3
 BYTE   W24
//  #02 //107   ----------------------------------------
 BYTE   N32  Cn1
 BYTE   N32  Cn2
 BYTE   N32  Dn3
 BYTE   W36
 BYTE   Dn1
 BYTE   N32  Dn2
 BYTE   N32  Dn3
 BYTE   N32  Fn3
 BYTE   W36
 BYTE   Fn1
 BYTE   N32  Fn2
 BYTE   N32  As2
 BYTE   N32  Dn3
 BYTE   W24
//  #02 //108   ----------------------------------------
 BYTE   W12
 BYTE   En1
 BYTE   N32  En2
 BYTE   N32  Cn3
 BYTE   W36
 BYTE   N23  Dn3
 BYTE   W24
 BYTE   N32  Ds2
 BYTE   N32  Dn3
 BYTE   N32  Gn3
 BYTE   N32  Dn4
 BYTE   W24
//  #02 //109   ----------------------------------------
 BYTE   W12
 BYTE   N68  Dn2
 BYTE   N68  Cn3
 BYTE   N32  Fs3
 BYTE   N32  Cn4
 BYTE   W36
 BYTE   Gn3
 BYTE   N32  As3
 BYTE   W36
 BYTE   Cn2
 BYTE   N32  Fn3
 BYTE   N32  An3
 BYTE   W12
//  #02 //110   ----------------------------------------
 BYTE   W24
 BYTE   N23  Cn1
 BYTE   N23  Cn2
 BYTE   N23  Gn3
 BYTE   N23  As3
 BYTE   W24
 BYTE   N32  Cn1
 BYTE   N32  Cn2
 BYTE   N32  Dn3
 BYTE   N32  Cn4
 BYTE   W36
 BYTE   Dn1
 BYTE   N32  Dn2
 BYTE   N32  Fn3
 BYTE   N32  Dn4
 BYTE   W12
//  #02 //111   ----------------------------------------
 BYTE   W24
 BYTE   N44  Gn1
 BYTE   N44  Gn2
 BYTE   N44  Bn2
 BYTE   N44  Bn3
 BYTE   W72
//  #02 //112   ----------------------------------------
 BYTE   GoTo
  POIN2 Label_01887DD2
//  #02 //113   ----------------------------------------
 BYTE   W96
//  #02 //114   ----------------------------------------
 BYTE   W96
 BYTE   FINE

//**************** Track 3 (Midi-Chn.2) ****************//

Shackled_003:
//  #03 //000   ----------------------------------------
 BYTE   KEYSH   Shackled_key+0
Label_01886902:
 BYTE   VOICE   56
 BYTE   VOL   47*Shackled_mvl/mxv
 BYTE   PAN   c_v+0
 BYTE   VOL   47*Shackled_mvl/mxv
 BYTE   PAN   c_v+0
 BYTE   W96
//  #03 //001   ----------------------------------------
 BYTE   W96
//  #03 //002   ----------------------------------------
 BYTE   W96
//  #03 //003   ----------------------------------------
 BYTE   W96
//  #03 //004   ----------------------------------------
 BYTE   W96
//  #03 //005   ----------------------------------------
 BYTE   W96
//  #03 //006   ----------------------------------------
 BYTE   W96
//  #03 //007   ----------------------------------------
 BYTE   W96
//  #03 //008   ----------------------------------------
 BYTE   TIE  Dn4  v096
 BYTE   W96
//  #03 //009   ----------------------------------------
 BYTE   W23
 BYTE   EOT
 BYTE   W01
 BYTE   N23
 BYTE   W24
 BYTE   Fn4
 BYTE   W24
 BYTE   As3
 BYTE   W24
//  #03 //010   ----------------------------------------
 BYTE   N44  An3
 BYTE   W48
 BYTE   Fn3
 BYTE   W48
//  #03 //011   ----------------------------------------
 BYTE   N68  Gn3
 BYTE   W72
 BYTE   N23  Fn3
 BYTE   W24
//  #03 //012   ----------------------------------------
 BYTE   TIE  Dn4
 BYTE   W96
//  #03 //013   ----------------------------------------
 BYTE   W23
 BYTE   EOT
 BYTE   W01
 BYTE   N44  Fn4
 BYTE   W48
 BYTE   N23  Gn4
 BYTE   W24
//  #03 //014   ----------------------------------------
 BYTE   N44  En4
 BYTE   W48
 BYTE   Cn4
 BYTE   W48
//  #03 //015   ----------------------------------------
 BYTE   N32  As3
 BYTE   W36
 BYTE   N05  An3
 BYTE   W06
 BYTE   As3
 BYTE   W06
 BYTE   N44  Cn4
 BYTE   W48
//  #03 //016   ----------------------------------------
 BYTE   TIE  Dn4
 BYTE   N05  As4
 BYTE   W06
 BYTE   An4
 BYTE   W06
 BYTE   As4
 BYTE   W24
 BYTE   N05
 BYTE   W06
 BYTE   An4
 BYTE   W06
 BYTE   As4
 BYTE   W24
 BYTE   N05
 BYTE   W12
 BYTE   Gn4
 BYTE   W12
//  #03 //017   ----------------------------------------
 BYTE   As4
 BYTE   W06
 BYTE   An4
 BYTE   W06
 BYTE   As4
 BYTE   W11
 BYTE   EOT
 BYTE   Dn4
 BYTE   W01
 BYTE   N23
 BYTE   W12
 BYTE   N05  As4
 BYTE   W06
 BYTE   An4
 BYTE   W06
 BYTE   N23  Fn4
 BYTE   N05  As4
 BYTE   W24
 BYTE   N23  As3
 BYTE   N05  As4
 BYTE   W12
 BYTE   Fn4
 BYTE   W12
//  #03 //018   ----------------------------------------
 BYTE   N44  An3
 BYTE   N05  An4
 BYTE   W06
 BYTE   Gn4
 BYTE   W06
 BYTE   An4
 BYTE   W24
 BYTE   N05
 BYTE   W06
 BYTE   Gn4
 BYTE   W06
 BYTE   N44  Fn3
 BYTE   N05  An4
 BYTE   W24
 BYTE   N05
 BYTE   W12
 BYTE   Fn4
 BYTE   W12
//  #03 //019   ----------------------------------------
 BYTE   N68  Gn3
 BYTE   N05  Gn4
 BYTE   W06
 BYTE   Fn4
 BYTE   W06
 BYTE   Gn4
 BYTE   W24
 BYTE   N05
 BYTE   W06
 BYTE   Fn4
 BYTE   W06
 BYTE   Gn4
 BYTE   W24
 BYTE   N11  Dn4
 BYTE   N05  Gn4
 BYTE   W12
 BYTE   N11  Ds4
 BYTE   N05  An4
 BYTE   W12
//  #03 //020   ----------------------------------------
 BYTE   N32  Fn4
 BYTE   N05  As4
 BYTE   W06
 BYTE   An4
 BYTE   W06
 BYTE   As4
 BYTE   W24
 BYTE   N23  As3
 BYTE   N05  As4
 BYTE   W06
 BYTE   An4
 BYTE   W06
 BYTE   As4
 BYTE   W12
 BYTE   N11  Dn4
 BYTE   W12
 BYTE   N44  Cn4
 BYTE   N05  As4
 BYTE   W12
 BYTE   Cn5
 BYTE   W12
//  #03 //021   ----------------------------------------
 BYTE   N05
 BYTE   W12
 BYTE   Gn4
 BYTE   W12
 BYTE   N23  Fn4
 BYTE   N05  Cn5
 BYTE   W12
 BYTE   Gn4
 BYTE   W12
 BYTE   N23  An4
 BYTE   N05  Cn5
 BYTE   W12
 BYTE   Gn4
 BYTE   W12
 BYTE   N23  As4
 BYTE   N05  Cn5
 BYTE   W12
 BYTE   Gn4
 BYTE   W12
//  #03 //022   ----------------------------------------
 BYTE   N32  An4
 BYTE   N05  Cn5  v112
 BYTE   W12
 BYTE   Gn4
 BYTE   W12
 BYTE   Cn5
 BYTE   W12
 BYTE   Gn4  v096
 BYTE   W12
 BYTE   Dn5  v112
 BYTE   W12
 BYTE   Cn5
 BYTE   W12
 BYTE   Gn4
 BYTE   W12
 BYTE   Cn5
 BYTE   W12
//  #03 //023   ----------------------------------------
 BYTE   Dn5
 BYTE   W12
 BYTE   Gn4
 BYTE   W12
 BYTE   Cn5
 BYTE   W12
 BYTE   Dn5
 BYTE   W12
 BYTE   Gn5
 BYTE   W12
 BYTE   Dn5
 BYTE   W12
 BYTE   Cn5
 BYTE   W12
 BYTE   Gn4
 BYTE   W12
//  #03 //024   ----------------------------------------
 BYTE   W96
//  #03 //025   ----------------------------------------
 BYTE   W96
//  #03 //026   ----------------------------------------
 BYTE   W96
//  #03 //027   ----------------------------------------
 BYTE   W96
//  #03 //028   ----------------------------------------
 BYTE   As3
 BYTE   N05  Fn4
 BYTE   W06
 BYTE   As3
 BYTE   W06
 BYTE   Gn3
 BYTE   W12
 BYTE   An3
 BYTE   W12
 BYTE   Gn3
 BYTE   W12
 BYTE   As3
 BYTE   W06
 BYTE   N05
 BYTE   W06
 BYTE   Gn3
 BYTE   W12
 BYTE   An3
 BYTE   W12
 BYTE   Gn3
 BYTE   W12
//  #03 //029   ----------------------------------------
 BYTE   As3
 BYTE   W06
 BYTE   N05
 BYTE   W06
 BYTE   Gn3
 BYTE   W12
 BYTE   An3
 BYTE   W12
 BYTE   Gn3
 BYTE   W12
 BYTE   As3
 BYTE   W06
 BYTE   N05
 BYTE   W06
 BYTE   Gn3
 BYTE   W12
 BYTE   Cn4
 BYTE   W12
 BYTE   Gn3
 BYTE   W12
//  #03 //030   ----------------------------------------
 BYTE   As3  v127
 BYTE   N05  Fn4
 BYTE   W03
 BYTE   W01
 BYTE   W01
 BYTE   W01
 BYTE   As3  v112
 BYTE   W06
 BYTE   Gn3
 BYTE   W12
 BYTE   An3
 BYTE   W12
 BYTE   Gn3
 BYTE   W12
 BYTE   As3
 BYTE   W06
 BYTE   N05
 BYTE   W06
 BYTE   Gn3
 BYTE   W12
 BYTE   An3  v127
 BYTE   N05  Fn4
 BYTE   W03
 BYTE   W01
 BYTE   W01
 BYTE   W07
 BYTE   Gn3  v112
 BYTE   W12
//  #03 //031   ----------------------------------------
 BYTE   As3
 BYTE   W06
 BYTE   N05
 BYTE   W06
 BYTE   Gn3
 BYTE   W12
 BYTE   An3
 BYTE   W12
 BYTE   Gn3
 BYTE   W12
 BYTE   As3  v127
 BYTE   N05  Fn4
 BYTE   W03
 BYTE   W01
 BYTE   W01
 BYTE   W01
 BYTE   As3  v112
 BYTE   W06
 BYTE   Gn3  v096
 BYTE   W12
 BYTE   An3
 BYTE   N05  Fn4
 BYTE   W12
 BYTE   Gn3
 BYTE   W12
//  #03 //032   ----------------------------------------
 BYTE   W96
//  #03 //033   ----------------------------------------
 BYTE   W96
//  #03 //034   ----------------------------------------
 BYTE   W96
//  #03 //035   ----------------------------------------
 BYTE   W96
//  #03 //036   ----------------------------------------
 BYTE   W96
//  #03 //037   ----------------------------------------
 BYTE   W96
//  #03 //038   ----------------------------------------
 BYTE   W96
//  #03 //039   ----------------------------------------
 BYTE   W96
//  #03 //040   ----------------------------------------
 BYTE   W96
//  #03 //041   ----------------------------------------
 BYTE   W96
//  #03 //042   ----------------------------------------
 BYTE   W96
//  #03 //043   ----------------------------------------
 BYTE   W96
//  #03 //044   ----------------------------------------
 BYTE   W96
//  #03 //045   ----------------------------------------
 BYTE   W96
//  #03 //046   ----------------------------------------
 BYTE   W96
//  #03 //047   ----------------------------------------
 BYTE   W96
//  #03 //048   ----------------------------------------
 BYTE   W96
//  #03 //049   ----------------------------------------
 BYTE   W96
//  #03 //050   ----------------------------------------
 BYTE   W96
//  #03 //051   ----------------------------------------
 BYTE   W96
//  #03 //052   ----------------------------------------
 BYTE   W96
//  #03 //053   ----------------------------------------
 BYTE   W96
//  #03 //054   ----------------------------------------
 BYTE   W96
//  #03 //055   ----------------------------------------
 BYTE   W96
//  #03 //056   ----------------------------------------
Label_01886A87:
 BYTE   W24
 BYTE   N44  An4  v096
 BYTE   W48
 BYTE   N11  As4
 BYTE   W12
 BYTE   N32  Fn4
 BYTE   W12
 BYTE   PEND 
//  #03 //057   ----------------------------------------
 BYTE   W24
 BYTE   N23  Ds4
 BYTE   W24
 BYTE   Dn4
 BYTE   W24
 BYTE   Cn4
 BYTE   W24
//  #03 //058   ----------------------------------------
 BYTE   N32  An3
 BYTE   N32  Cn4
 BYTE   W36
 BYTE   Gn3
 BYTE   N32  As3
 BYTE   W36
 BYTE   N11  An3
 BYTE   N11  Cn4
 BYTE   W12
 BYTE   TIE  As3
 BYTE   TIE  Dn4
 BYTE   W12
//  #03 //059   ----------------------------------------
 BYTE   W92
 BYTE   W03
 BYTE   EOT
 BYTE   As3  v074
 BYTE   W01
//  #03 //060   ----------------------------------------
 BYTE   PATT
  POIN2 Label_01886A87
//  #03 //061   ----------------------------------------
 BYTE   W24
 BYTE   N23  Ds4  v096
 BYTE   W24
 BYTE   Dn4
 BYTE   W24
 BYTE   Cn5
 BYTE   W24
//  #03 //062   ----------------------------------------
 BYTE   N32
 BYTE   W36
 BYTE   As4
 BYTE   W36
 BYTE   N23  Cn5
 BYTE   W24
//  #03 //063   ----------------------------------------
 BYTE   Dn5
 BYTE   W24
 BYTE   Ds5
 BYTE   W24
 BYTE   Dn5
 BYTE   W24
 BYTE   Cn5
 BYTE   W24
//  #03 //064   ----------------------------------------
 BYTE   W24
 BYTE   N44
 BYTE   W48
 BYTE   N11  Cs5
 BYTE   W12
 BYTE   N32  Gs4
 BYTE   W12
//  #03 //065   ----------------------------------------
 BYTE   W24
 BYTE   N23  Fs4
 BYTE   W24
 BYTE   Fn4
 BYTE   W24
 BYTE   Ds4
 BYTE   W24
//  #03 //066   ----------------------------------------
 BYTE   N32
 BYTE   W36
 BYTE   Cs4
 BYTE   W36
 BYTE   N11  Ds4
 BYTE   W12
 BYTE   N56  Fn4
 BYTE   W12
//  #03 //067   ----------------------------------------
 BYTE   W48
 BYTE   N23  Ds4
 BYTE   W24
 BYTE   Cs4
 BYTE   W24
//  #03 //068   ----------------------------------------
Label_01886AF2:
 BYTE   N32  Cs4  v096
 BYTE   W36
 BYTE   Gs4
 BYTE   W36
 BYTE   Cs4
 BYTE   W24
 BYTE   PEND 
//  #03 //069   ----------------------------------------
 BYTE   W12
 BYTE   Gs4
 BYTE   W36
 BYTE   N23  Cs4
 BYTE   W24
 BYTE   Cn4
 BYTE   W24
//  #03 //070   ----------------------------------------
 BYTE   N32
 BYTE   W36
 BYTE   N80  As3
 BYTE   W60
//  #03 //071   ----------------------------------------
 BYTE   W48
 BYTE   N23  Cn4
 BYTE   W24
 BYTE   Cs4
 BYTE   W24
//  #03 //072   ----------------------------------------
 BYTE   PATT
  POIN2 Label_01886AF2
//  #03 //073   ----------------------------------------
 BYTE   W12
 BYTE   N32  Gs4  v096
 BYTE   W36
 BYTE   N23  Fs4
 BYTE   W24
 BYTE   Fn4
 BYTE   W24
//  #03 //074   ----------------------------------------
 BYTE   N32  Ds4
 BYTE   W36
 BYTE   TIE  Fn4
 BYTE   W60
//  #03 //075   ----------------------------------------
 BYTE   W92
 BYTE   W03
 BYTE   EOT
 BYTE   W01
//  #03 //076   ----------------------------------------
 BYTE   W96
//  #03 //077   ----------------------------------------
 BYTE   W96
//  #03 //078   ----------------------------------------
 BYTE   W96
//  #03 //079   ----------------------------------------
 BYTE   W96
//  #03 //080   ----------------------------------------
 BYTE   W96
//  #03 //081   ----------------------------------------
 BYTE   W96
//  #03 //082   ----------------------------------------
 BYTE   W96
//  #03 //083   ----------------------------------------
 BYTE   W96
//  #03 //084   ----------------------------------------
 BYTE   W96
//  #03 //085   ----------------------------------------
 BYTE   W96
//  #03 //086   ----------------------------------------
 BYTE   W96
//  #03 //087   ----------------------------------------
 BYTE   W96
//  #03 //088   ----------------------------------------
 BYTE   W96
//  #03 //089   ----------------------------------------
 BYTE   W96
//  #03 //090   ----------------------------------------
 BYTE   W96
//  #03 //091   ----------------------------------------
 BYTE   W96
//  #03 //092   ----------------------------------------
 BYTE   W96
//  #03 //093   ----------------------------------------
 BYTE   W96
//  #03 //094   ----------------------------------------
 BYTE   W96
//  #03 //095   ----------------------------------------
 BYTE   W96
//  #03 //096   ----------------------------------------
 BYTE   W96
//  #03 //097   ----------------------------------------
 BYTE   W96
//  #03 //098   ----------------------------------------
 BYTE   W96
//  #03 //099   ----------------------------------------
 BYTE   W96
//  #03 //100   ----------------------------------------
 BYTE   W96
//  #03 //101   ----------------------------------------
 BYTE   W96
//  #03 //102   ----------------------------------------
 BYTE   W96
//  #03 //103   ----------------------------------------
 BYTE   W96
//  #03 //104   ----------------------------------------
 BYTE   W96
//  #03 //105   ----------------------------------------
 BYTE   W96
//  #03 //106   ----------------------------------------
 BYTE   W96
//  #03 //107   ----------------------------------------
 BYTE   W96
//  #03 //108   ----------------------------------------
 BYTE   W96
//  #03 //109   ----------------------------------------
 BYTE   W96
//  #03 //110   ----------------------------------------
 BYTE   W96
//  #03 //111   ----------------------------------------
 BYTE   W96
//  #03 //112   ----------------------------------------
 BYTE   GoTo
  POIN2 Label_01886902
//  #03 //113   ----------------------------------------
 BYTE   N05  Fn3  v096
 BYTE   N05  An3  v052
 BYTE   N05  Dn4
 BYTE   W12
 BYTE   Fn3  v096
 BYTE   W12
 BYTE   N05
 BYTE   W12
 BYTE   N05
 BYTE   N05  Cn4  v052
 BYTE   N05  Fn4
 BYTE   W12
 BYTE   Fn3  v096
 BYTE   W12
 BYTE   N05
 BYTE   W12
 BYTE   N05
 BYTE   W12
 BYTE   N05
 BYTE   N05  Gn3  v052
 BYTE   N05  Cn4
 BYTE   W12
//  #03 //114   ----------------------------------------
 BYTE   Fn3  v096
 BYTE   W12
 BYTE   N05
 BYTE   N05  An3  v052
 BYTE   N05  Dn4
 BYTE   W12
 BYTE   Fn3  v096
 BYTE   W12
 BYTE   N05
 BYTE   W12
 BYTE   N05
 BYTE   W12
 BYTE   N05
 BYTE   W12
 BYTE   N05
 BYTE   N05  Gn3  v052
 BYTE   N05  As3
 BYTE   W12
 BYTE   Fn3  v096
 BYTE   N05  An3  v052
 BYTE   N05  Cn4
 BYTE   W12
 BYTE   FINE

//**************** Track 4 (Midi-Chn.3) ****************//

Shackled_004:
//  #04 //000   ----------------------------------------
 BYTE   KEYSH   Shackled_key+0
Label_015B0346:
 BYTE   VOICE   56
 BYTE   VOL   47*Shackled_mvl/mxv
 BYTE   PAN   c_v+0
 BYTE   VOL   47*Shackled_mvl/mxv
 BYTE   PAN   c_v+0
 BYTE   W96
//  #04 //001   ----------------------------------------
 BYTE   W96
//  #04 //002   ----------------------------------------
 BYTE   W96
//  #04 //003   ----------------------------------------
 BYTE   W96
//  #04 //004   ----------------------------------------
 BYTE   W96
//  #04 //005   ----------------------------------------
 BYTE   W96
//  #04 //006   ----------------------------------------
 BYTE   W96
//  #04 //007   ----------------------------------------
 BYTE   W96
//  #04 //008   ----------------------------------------
 BYTE   TIE  Dn3  v080
 BYTE   W96
//  #04 //009   ----------------------------------------
 BYTE   W23
 BYTE   EOT
 BYTE   W01
 BYTE   N23
 BYTE   W24
 BYTE   Fn3
 BYTE   W24
 BYTE   As2
 BYTE   W24
//  #04 //010   ----------------------------------------
Label_015B0365:
 BYTE   N44  An2  v080
 BYTE   W48
 BYTE   Fn2
 BYTE   W48
 BYTE   PEND 
//  #04 //011   ----------------------------------------
 BYTE   N68  Gn2
 BYTE   W72
 BYTE   N23  Fn2
 BYTE   W24
//  #04 //012   ----------------------------------------
 BYTE   TIE  Dn3
 BYTE   W96
//  #04 //013   ----------------------------------------
 BYTE   W23
 BYTE   EOT
 BYTE   W01
 BYTE   N44  Fn3
 BYTE   W48
 BYTE   N23  Gn3
 BYTE   W24
//  #04 //014   ----------------------------------------
 BYTE   N44  En3
 BYTE   W48
 BYTE   Cn3
 BYTE   W48
//  #04 //015   ----------------------------------------
 BYTE   N32  As2
 BYTE   W36
 BYTE   N05  An2
 BYTE   W06
 BYTE   As2
 BYTE   W06
 BYTE   N44  Cn3
 BYTE   W48
//  #04 //016   ----------------------------------------
 BYTE   TIE  Dn3
 BYTE   W96
//  #04 //017   ----------------------------------------
 BYTE   W23
 BYTE   EOT
 BYTE   W01
 BYTE   N23
 BYTE   W24
 BYTE   Fn3
 BYTE   W24
 BYTE   As2
 BYTE   W24
//  #04 //018   ----------------------------------------
 BYTE   PATT
  POIN2 Label_015B0365
//  #04 //019   ----------------------------------------
 BYTE   N68  Gn2  v080
 BYTE   W72
 BYTE   N11  Dn3
 BYTE   W12
 BYTE   Ds3
 BYTE   W12
//  #04 //020   ----------------------------------------
 BYTE   N32  Fn3
 BYTE   W36
 BYTE   N23  As2
 BYTE   W24
 BYTE   N11  Dn3
 BYTE   W12
 BYTE   N44  Cn3
 BYTE   W24
//  #04 //021   ----------------------------------------
 BYTE   W24
 BYTE   N23  Fn3
 BYTE   W24
 BYTE   An3
 BYTE   W24
 BYTE   As3
 BYTE   W24
//  #04 //022   ----------------------------------------
 BYTE   N32  An3
 BYTE   W36
 BYTE   TIE  Gn3
 BYTE   W60
//  #04 //023   ----------------------------------------
 BYTE   W92
 BYTE   W03
 BYTE   EOT
 BYTE   W01
//  #04 //024   ----------------------------------------
 BYTE   W96
//  #04 //025   ----------------------------------------
 BYTE   W96
//  #04 //026   ----------------------------------------
 BYTE   W96
//  #04 //027   ----------------------------------------
 BYTE   W96
//  #04 //028   ----------------------------------------
 BYTE   W96
//  #04 //029   ----------------------------------------
 BYTE   W96
//  #04 //030   ----------------------------------------
 BYTE   W96
//  #04 //031   ----------------------------------------
 BYTE   W96
//  #04 //032   ----------------------------------------
 BYTE   W96
//  #04 //033   ----------------------------------------
 BYTE   W96
//  #04 //034   ----------------------------------------
 BYTE   W96
//  #04 //035   ----------------------------------------
 BYTE   W96
//  #04 //036   ----------------------------------------
 BYTE   W96
//  #04 //037   ----------------------------------------
 BYTE   W96
//  #04 //038   ----------------------------------------
 BYTE   W96
//  #04 //039   ----------------------------------------
 BYTE   W96
//  #04 //040   ----------------------------------------
 BYTE   W96
//  #04 //041   ----------------------------------------
 BYTE   W96
//  #04 //042   ----------------------------------------
 BYTE   W96
//  #04 //043   ----------------------------------------
 BYTE   W96
//  #04 //044   ----------------------------------------
 BYTE   W96
//  #04 //045   ----------------------------------------
 BYTE   W96
//  #04 //046   ----------------------------------------
 BYTE   W96
//  #04 //047   ----------------------------------------
 BYTE   W96
//  #04 //048   ----------------------------------------
 BYTE   W96
//  #04 //049   ----------------------------------------
 BYTE   W96
//  #04 //050   ----------------------------------------
 BYTE   W96
//  #04 //051   ----------------------------------------
 BYTE   W96
//  #04 //052   ----------------------------------------
 BYTE   W96
//  #04 //053   ----------------------------------------
 BYTE   W96
//  #04 //054   ----------------------------------------
 BYTE   W96
//  #04 //055   ----------------------------------------
 BYTE   W96
//  #04 //056   ----------------------------------------
Label_015B03E6:
 BYTE   W24
 BYTE   N44  An3  v096
 BYTE   W48
 BYTE   N11  As3
 BYTE   W12
 BYTE   N32  Fn3
 BYTE   W12
 BYTE   PEND 
//  #04 //057   ----------------------------------------
 BYTE   W24
 BYTE   N23  Ds3
 BYTE   W24
 BYTE   Dn3
 BYTE   W24
 BYTE   Cn3
 BYTE   W24
//  #04 //058   ----------------------------------------
 BYTE   N32  An2
 BYTE   N32  Cn3
 BYTE   W36
 BYTE   Gn2
 BYTE   N32  As2
 BYTE   W36
 BYTE   N11  An2
 BYTE   N11  Cn3
 BYTE   W12
 BYTE   TIE  As2
 BYTE   TIE  Dn3
 BYTE   W12
//  #04 //059   ----------------------------------------
 BYTE   W92
 BYTE   W03
 BYTE   EOT
 BYTE   As2  v062
 BYTE   W01
//  #04 //060   ----------------------------------------
 BYTE   PATT
  POIN2 Label_015B03E6
//  #04 //061   ----------------------------------------
 BYTE   W24
 BYTE   N23  Ds3  v096
 BYTE   W24
 BYTE   Dn3
 BYTE   W24
 BYTE   Cn4
 BYTE   W24
//  #04 //062   ----------------------------------------
 BYTE   N32
 BYTE   W36
 BYTE   As3
 BYTE   W36
 BYTE   N23  Cn4
 BYTE   W24
//  #04 //063   ----------------------------------------
 BYTE   Dn4
 BYTE   W24
 BYTE   Ds4
 BYTE   W24
 BYTE   Dn4
 BYTE   W24
 BYTE   Cn4
 BYTE   W24
//  #04 //064   ----------------------------------------
 BYTE   W24
 BYTE   N44
 BYTE   W48
 BYTE   N11  Cs4
 BYTE   W12
 BYTE   N32  Gs3
 BYTE   W12
//  #04 //065   ----------------------------------------
 BYTE   W24
 BYTE   N23  Fs3
 BYTE   W24
 BYTE   Fn3
 BYTE   W24
 BYTE   Ds3
 BYTE   W24
//  #04 //066   ----------------------------------------
 BYTE   N32
 BYTE   W36
 BYTE   Cs3
 BYTE   W36
 BYTE   N11  Ds3
 BYTE   W12
 BYTE   N56  Fn3
 BYTE   W12
//  #04 //067   ----------------------------------------
 BYTE   W48
 BYTE   N23  Ds3
 BYTE   W24
 BYTE   Cs3
 BYTE   W24
//  #04 //068   ----------------------------------------
Label_015B0451:
 BYTE   N32  Cs3  v096
 BYTE   W36
 BYTE   Gs3
 BYTE   W36
 BYTE   Cs3
 BYTE   W24
 BYTE   PEND 
//  #04 //069   ----------------------------------------
 BYTE   W12
 BYTE   Gs3
 BYTE   W36
 BYTE   N23  Cs3
 BYTE   W24
 BYTE   Cn3
 BYTE   W24
//  #04 //070   ----------------------------------------
 BYTE   N32
 BYTE   W36
 BYTE   N80  As2
 BYTE   W60
//  #04 //071   ----------------------------------------
 BYTE   W48
 BYTE   N23  Cn3
 BYTE   W24
 BYTE   Cs3
 BYTE   W24
//  #04 //072   ----------------------------------------
 BYTE   PATT
  POIN2 Label_015B0451
//  #04 //073   ----------------------------------------
 BYTE   W12
 BYTE   N32  Gs3  v096
 BYTE   W36
 BYTE   N23  Fs3
 BYTE   W24
 BYTE   Fn3
 BYTE   W24
//  #04 //074   ----------------------------------------
 BYTE   N32  Ds3
 BYTE   W36
 BYTE   TIE  Fn3
 BYTE   W60
//  #04 //075   ----------------------------------------
 BYTE   W92
 BYTE   W03
 BYTE   EOT
 BYTE   W01
//  #04 //076   ----------------------------------------
 BYTE   W96
//  #04 //077   ----------------------------------------
 BYTE   W96
//  #04 //078   ----------------------------------------
 BYTE   W96
//  #04 //079   ----------------------------------------
 BYTE   W96
//  #04 //080   ----------------------------------------
 BYTE   W96
//  #04 //081   ----------------------------------------
 BYTE   W96
//  #04 //082   ----------------------------------------
 BYTE   W96
//  #04 //083   ----------------------------------------
 BYTE   W96
//  #04 //084   ----------------------------------------
 BYTE   W96
//  #04 //085   ----------------------------------------
 BYTE   W96
//  #04 //086   ----------------------------------------
 BYTE   W96
//  #04 //087   ----------------------------------------
 BYTE   W96
//  #04 //088   ----------------------------------------
 BYTE   W96
//  #04 //089   ----------------------------------------
 BYTE   W96
//  #04 //090   ----------------------------------------
 BYTE   W96
//  #04 //091   ----------------------------------------
 BYTE   W96
//  #04 //092   ----------------------------------------
 BYTE   W96
//  #04 //093   ----------------------------------------
 BYTE   W96
//  #04 //094   ----------------------------------------
 BYTE   W96
//  #04 //095   ----------------------------------------
 BYTE   W96
//  #04 //096   ----------------------------------------
 BYTE   W96
//  #04 //097   ----------------------------------------
 BYTE   W96
//  #04 //098   ----------------------------------------
 BYTE   W96
//  #04 //099   ----------------------------------------
 BYTE   W96
//  #04 //100   ----------------------------------------
 BYTE   W96
//  #04 //101   ----------------------------------------
 BYTE   W96
//  #04 //102   ----------------------------------------
 BYTE   W96
//  #04 //103   ----------------------------------------
 BYTE   W96
//  #04 //104   ----------------------------------------
 BYTE   W96
//  #04 //105   ----------------------------------------
 BYTE   W96
//  #04 //106   ----------------------------------------
 BYTE   W96
//  #04 //107   ----------------------------------------
 BYTE   W96
//  #04 //108   ----------------------------------------
 BYTE   W96
//  #04 //109   ----------------------------------------
 BYTE   W96
//  #04 //110   ----------------------------------------
 BYTE   W96
//  #04 //111   ----------------------------------------
 BYTE   W96
//  #04 //112   ----------------------------------------
 BYTE   GoTo
  POIN2 Label_015B0346
//  #04 //113   ----------------------------------------
 BYTE   W96
//  #04 //114   ----------------------------------------
 BYTE   W96
 BYTE   FINE

//**************** Track 5 (Midi-Chn.4) ****************//

Shackled_005:
//  #05 //000   ----------------------------------------
 BYTE   KEYSH   Shackled_key+0
Label_01886BB6:
 BYTE   VOICE   40
 BYTE   VOL   47*Shackled_mvl/mxv
 BYTE   PAN   c_v+0
 BYTE   VOL   47*Shackled_mvl/mxv
 BYTE   PAN   c_v+0
 BYTE   N05  As2  v080
 BYTE   W06
 BYTE   N05
 BYTE   W06
 BYTE   Gn2
 BYTE   W12
 BYTE   An2
 BYTE   W12
 BYTE   Gn2
 BYTE   W12
 BYTE   As2
 BYTE   W06
 BYTE   N05
 BYTE   W06
 BYTE   Gn2
 BYTE   W12
 BYTE   An2
 BYTE   W12
 BYTE   Gn2
 BYTE   W12
//  #05 //001   ----------------------------------------
Label_01886BD6:
 BYTE   N05  As2  v080
 BYTE   W06
 BYTE   N05
 BYTE   W06
 BYTE   Gn2
 BYTE   W12
 BYTE   An2
 BYTE   W12
 BYTE   Gn2
 BYTE   W12
 BYTE   As2
 BYTE   W06
 BYTE   N05
 BYTE   W06
 BYTE   Gn2
 BYTE   W12
 BYTE   Cn3
 BYTE   W12
 BYTE   Gn2
 BYTE   W12
 BYTE   PEND 
//  #05 //002   ----------------------------------------
 BYTE   As2
 BYTE   W06
 BYTE   N05
 BYTE   W06
 BYTE   Gn2
 BYTE   W12
 BYTE   An2
 BYTE   W12
 BYTE   Gn2
 BYTE   W12
 BYTE   As2
 BYTE   W06
 BYTE   N05
 BYTE   W06
 BYTE   Gn2
 BYTE   W12
 BYTE   An2
 BYTE   W12
 BYTE   Gn2
 BYTE   W12
//  #05 //003   ----------------------------------------
 BYTE   PATT
  POIN2 Label_01886BD6
//  #05 //004   ----------------------------------------
 BYTE   N05  As2  v080
 BYTE   N05  Fn3
 BYTE   W06
 BYTE   As2
 BYTE   W06
 BYTE   Gn2
 BYTE   W12
 BYTE   An2  v084
 BYTE   W12
 BYTE   Gn2
 BYTE   W12
 BYTE   As2
 BYTE   W06
 BYTE   N05
 BYTE   W06
 BYTE   Gn2
 BYTE   W12
 BYTE   An2
 BYTE   W12
 BYTE   Gn2
 BYTE   W12
//  #05 //005   ----------------------------------------
 BYTE   As2
 BYTE   W06
 BYTE   N05
 BYTE   W06
 BYTE   Gn2
 BYTE   W12
 BYTE   An2  v088
 BYTE   W12
 BYTE   Gn2
 BYTE   W12
 BYTE   As2
 BYTE   W06
 BYTE   N05
 BYTE   W06
 BYTE   Gn2
 BYTE   W12
 BYTE   Cn3
 BYTE   W12
 BYTE   Gn2
 BYTE   W12
//  #05 //006   ----------------------------------------
 BYTE   As2
 BYTE   N05  Fn3
 BYTE   W06
 BYTE   As2
 BYTE   W06
 BYTE   Gn2
 BYTE   W12
 BYTE   An2  v092
 BYTE   W12
 BYTE   Gn2
 BYTE   W12
 BYTE   As2
 BYTE   W06
 BYTE   N05
 BYTE   W06
 BYTE   Gn2
 BYTE   W12
 BYTE   An2
 BYTE   N05  Fn3
 BYTE   W12
 BYTE   Gn2
 BYTE   W12
//  #05 //007   ----------------------------------------
 BYTE   As2
 BYTE   W06
 BYTE   N05
 BYTE   W06
 BYTE   Gn2
 BYTE   W12
 BYTE   An2  v096
 BYTE   W12
 BYTE   Gn2
 BYTE   W12
 BYTE   As2
 BYTE   N05  Fn3
 BYTE   W06
 BYTE   As2
 BYTE   W06
 BYTE   Gn2
 BYTE   W12
 BYTE   Cn3
 BYTE   W12
 BYTE   Gn2
 BYTE   W12
//  #05 //008   ----------------------------------------
Label_01886C64:
 BYTE   N05  As2  v096
 BYTE   W06
 BYTE   N05
 BYTE   W06
 BYTE   Gn2
 BYTE   W12
 BYTE   An2
 BYTE   W12
 BYTE   Gn2
 BYTE   W12
 BYTE   As2
 BYTE   W06
 BYTE   N05
 BYTE   W06
 BYTE   Gn2
 BYTE   W12
 BYTE   Cn3
 BYTE   W12
 BYTE   Gn2
 BYTE   W12
 BYTE   PEND 
//  #05 //009   ----------------------------------------
 BYTE   PATT
  POIN2 Label_01886C64
//  #05 //010   ----------------------------------------
Label_01886C80:
 BYTE   N05  An2  v096
 BYTE   W06
 BYTE   N05
 BYTE   W06
 BYTE   Fn2
 BYTE   W12
 BYTE   An2
 BYTE   W12
 BYTE   Fn2
 BYTE   W12
 BYTE   An2
 BYTE   W06
 BYTE   N05
 BYTE   W06
 BYTE   Fn2
 BYTE   W12
 BYTE   As2
 BYTE   W12
 BYTE   Fn2
 BYTE   W12
 BYTE   PEND 
//  #05 //011   ----------------------------------------
Label_01886C97:
 BYTE   N05  An2  v096
 BYTE   W06
 BYTE   N05
 BYTE   W06
 BYTE   Fn2
 BYTE   W12
 BYTE   An2
 BYTE   W12
 BYTE   Fn2
 BYTE   W12
 BYTE   An2
 BYTE   W06
 BYTE   N05
 BYTE   W06
 BYTE   Fn2
 BYTE   W12
 BYTE   As2
 BYTE   W12
 BYTE   An2
 BYTE   W12
 BYTE   PEND 
//  #05 //012   ----------------------------------------
 BYTE   PATT
  POIN2 Label_01886C64
//  #05 //013   ----------------------------------------
 BYTE   PATT
  POIN2 Label_01886C64
//  #05 //014   ----------------------------------------
 BYTE   PATT
  POIN2 Label_01886C64
//  #05 //015   ----------------------------------------
 BYTE   PATT
  POIN2 Label_01886C64
//  #05 //016   ----------------------------------------
 BYTE   PATT
  POIN2 Label_01886C64
//  #05 //017   ----------------------------------------
 BYTE   PATT
  POIN2 Label_01886C64
//  #05 //018   ----------------------------------------
 BYTE   PATT
  POIN2 Label_01886C80
//  #05 //019   ----------------------------------------
 BYTE   PATT
  POIN2 Label_01886C97
//  #05 //020   ----------------------------------------
 BYTE   PATT
  POIN2 Label_01886C64
//  #05 //021   ----------------------------------------
 BYTE   PATT
  POIN2 Label_01886C64
//  #05 //022   ----------------------------------------
 BYTE   PATT
  POIN2 Label_01886C64
//  #05 //023   ----------------------------------------
 BYTE   PATT
  POIN2 Label_01886C64
//  #05 //024   ----------------------------------------
Label_01886CEA:
 BYTE   N05  As2  v096
 BYTE   W06
 BYTE   N05
 BYTE   W06
 BYTE   Gn2
 BYTE   W12
 BYTE   An2
 BYTE   W12
 BYTE   Gn2
 BYTE   W12
 BYTE   As2
 BYTE   W06
 BYTE   N05
 BYTE   W06
 BYTE   Gn2
 BYTE   W12
 BYTE   An2
 BYTE   W12
 BYTE   Gn2
 BYTE   W12
 BYTE   PEND 
//  #05 //025   ----------------------------------------
 BYTE   PATT
  POIN2 Label_01886C64
//  #05 //026   ----------------------------------------
 BYTE   PATT
  POIN2 Label_01886CEA
//  #05 //027   ----------------------------------------
 BYTE   PATT
  POIN2 Label_01886C64
//  #05 //028   ----------------------------------------
 BYTE   N05  As2  v096
 BYTE   N05  Fn3
 BYTE   W06
 BYTE   As2
 BYTE   W06
 BYTE   Gn2
 BYTE   W12
 BYTE   An2
 BYTE   W12
 BYTE   Gn2
 BYTE   W12
 BYTE   As2
 BYTE   W06
 BYTE   N05
 BYTE   W06
 BYTE   Gn2
 BYTE   W12
 BYTE   An2
 BYTE   W12
 BYTE   Gn2
 BYTE   W12
//  #05 //029   ----------------------------------------
 BYTE   PATT
  POIN2 Label_01886C64
//  #05 //030   ----------------------------------------
 BYTE   N05  As2  v096
 BYTE   N05  Fn3
 BYTE   W06
 BYTE   As2
 BYTE   W06
 BYTE   Gn2
 BYTE   W12
 BYTE   An2
 BYTE   W12
 BYTE   Gn2
 BYTE   W12
 BYTE   As2
 BYTE   W06
 BYTE   N05
 BYTE   W06
 BYTE   Gn2
 BYTE   W12
 BYTE   An2
 BYTE   N05  Fn3
 BYTE   W12
 BYTE   Gn2
 BYTE   W12
//  #05 //031   ----------------------------------------
 BYTE   As2
 BYTE   W06
 BYTE   N05
 BYTE   W06
 BYTE   Gn2
 BYTE   W12
 BYTE   An2
 BYTE   W12
 BYTE   Gn2
 BYTE   W12
 BYTE   As2
 BYTE   N05  Fn3
 BYTE   W06
 BYTE   As2
 BYTE   W06
 BYTE   Gn2
 BYTE   W12
 BYTE   An2
 BYTE   N05  Fn3
 BYTE   W12
 BYTE   Gn2
 BYTE   W12
//  #05 //032   ----------------------------------------
 BYTE   W96
//  #05 //033   ----------------------------------------
 BYTE   W96
//  #05 //034   ----------------------------------------
 BYTE   W96
//  #05 //035   ----------------------------------------
 BYTE   W96
//  #05 //036   ----------------------------------------
 BYTE   W96
//  #05 //037   ----------------------------------------
 BYTE   W96
//  #05 //038   ----------------------------------------
 BYTE   W96
//  #05 //039   ----------------------------------------
 BYTE   W96
//  #05 //040   ----------------------------------------
 BYTE   W96
//  #05 //041   ----------------------------------------
 BYTE   W96
//  #05 //042   ----------------------------------------
 BYTE   W96
//  #05 //043   ----------------------------------------
 BYTE   W96
//  #05 //044   ----------------------------------------
 BYTE   W96
//  #05 //045   ----------------------------------------
 BYTE   W96
//  #05 //046   ----------------------------------------
 BYTE   W96
//  #05 //047   ----------------------------------------
 BYTE   W96
//  #05 //048   ----------------------------------------
 BYTE   W96
//  #05 //049   ----------------------------------------
 BYTE   W96
//  #05 //050   ----------------------------------------
 BYTE   W96
//  #05 //051   ----------------------------------------
 BYTE   W96
//  #05 //052   ----------------------------------------
 BYTE   W96
//  #05 //053   ----------------------------------------
 BYTE   W96
//  #05 //054   ----------------------------------------
 BYTE   W96
//  #05 //055   ----------------------------------------
 BYTE   W96
//  #05 //056   ----------------------------------------
Label_01886D77:
 BYTE   W24
 BYTE   N44  An2  v096
 BYTE   N44  Ds3
 BYTE   N44  An3
 BYTE   W48
 BYTE   N11  As2
 BYTE   N11  As3
 BYTE   W12
 BYTE   N32  Fn2
 BYTE   N32  As2
 BYTE   N32  Fn3
 BYTE   W12
 BYTE   PEND 
//  #05 //057   ----------------------------------------
 BYTE   W24
 BYTE   N23  Ds2
 BYTE   N23  Ds3
 BYTE   W24
 BYTE   Dn2
 BYTE   N23  Dn3
 BYTE   W24
 BYTE   Cn2
 BYTE   N23  Cn3
 BYTE   W24
//  #05 //058   ----------------------------------------
 BYTE   N32  Cn2
 BYTE   N32  Gn2
 BYTE   N32  Cn3
 BYTE   W36
 BYTE   As1
 BYTE   N32  As2
 BYTE   W36
 BYTE   N11  Cn2
 BYTE   N11  Gn2
 BYTE   N11  Cn3
 BYTE   W12
 BYTE   TIE  Dn2
 BYTE   TIE  Gn2
 BYTE   TIE  Dn3
 BYTE   W12
//  #05 //059   ----------------------------------------
 BYTE   W92
 BYTE   W03
 BYTE   EOT
 BYTE   Dn2  v055
 BYTE   Dn3
 BYTE   W01
//  #05 //060   ----------------------------------------
 BYTE   PATT
  POIN2 Label_01886D77
//  #05 //061   ----------------------------------------
 BYTE   W24
 BYTE   N23  Ds2  v096
 BYTE   N23  Ds3
 BYTE   W24
 BYTE   Dn2
 BYTE   N23  Dn3
 BYTE   W24
 BYTE   Cn3
 BYTE   N23  Cn4
 BYTE   W24
//  #05 //062   ----------------------------------------
 BYTE   N32  Cn3
 BYTE   N32  Gn3
 BYTE   N32  Cn4
 BYTE   W36
 BYTE   As2
 BYTE   N32  As3
 BYTE   W36
 BYTE   N23  Cn3
 BYTE   N23  Cn4
 BYTE   W24
//  #05 //063   ----------------------------------------
 BYTE   Dn3
 BYTE   N23  Dn4
 BYTE   W24
 BYTE   Ds3
 BYTE   N23  Ds4
 BYTE   W24
 BYTE   Dn3
 BYTE   N23  Dn4
 BYTE   W24
 BYTE   Cn3
 BYTE   N23  Cn4
 BYTE   W24
//  #05 //064   ----------------------------------------
 BYTE   W12
 BYTE   N02  Fn3
 BYTE   W03
 BYTE   Gn3
 BYTE   W03
 BYTE   Gs3
 BYTE   W03
 BYTE   As3
 BYTE   W03
 BYTE   N44  Cn3
 BYTE   N44  Fs3
 BYTE   N44  Cn4
 BYTE   W48
 BYTE   N11  Cs3
 BYTE   N11  Cs4
 BYTE   W12
 BYTE   N32  Gs3
 BYTE   N32  Cs4
 BYTE   N32  Gs4
 BYTE   W12
//  #05 //065   ----------------------------------------
 BYTE   W24
 BYTE   N23  Fs3
 BYTE   N23  Fs4
 BYTE   W24
 BYTE   Fn3
 BYTE   N23  Fn4
 BYTE   W24
 BYTE   Ds3
 BYTE   N23  Ds4
 BYTE   W24
//  #05 //066   ----------------------------------------
 BYTE   N32  Ds3
 BYTE   N32  As3
 BYTE   N32  Ds4
 BYTE   W36
 BYTE   Cs3
 BYTE   N32  Cs4
 BYTE   W36
 BYTE   N11  Ds3
 BYTE   N11  Ds4
 BYTE   W12
 BYTE   N56  Fn3
 BYTE   N56  Fn4
 BYTE   W12
//  #05 //067   ----------------------------------------
 BYTE   W48
 BYTE   N23  Ds3
 BYTE   N23  Ds4
 BYTE   W24
 BYTE   Cs3
 BYTE   N23  Cs4
 BYTE   W24
//  #05 //068   ----------------------------------------
Label_01886E39:
 BYTE   N32  Cs3  v096
 BYTE   N32  Cs4
 BYTE   W36
 BYTE   Gs3
 BYTE   N32  Gs4
 BYTE   W36
 BYTE   Cs3
 BYTE   N32  Cs4
 BYTE   W24
 BYTE   PEND 
//  #05 //069   ----------------------------------------
 BYTE   W12
 BYTE   Gs3
 BYTE   N32  Gs4
 BYTE   W36
 BYTE   N23  Cs3
 BYTE   N23  Cs4
 BYTE   W24
 BYTE   Cn3
 BYTE   N23  Cn4
 BYTE   W24
//  #05 //070   ----------------------------------------
 BYTE   N32  Cn3
 BYTE   N32  Ds3
 BYTE   N32  Cn4
 BYTE   W36
 BYTE   N80  As2
 BYTE   N80  Cs3
 BYTE   N80  As3
 BYTE   W60
//  #05 //071   ----------------------------------------
 BYTE   W48
 BYTE   N23  Cn3
 BYTE   N23  Cn4
 BYTE   W24
 BYTE   Cs3
 BYTE   N23  Cs4
 BYTE   W24
//  #05 //072   ----------------------------------------
 BYTE   PATT
  POIN2 Label_01886E39
//  #05 //073   ----------------------------------------
 BYTE   W12
 BYTE   N32  Gs3  v096
 BYTE   N32  Gs4
 BYTE   W36
 BYTE   N23  Fs3
 BYTE   N23  Fs4
 BYTE   W24
 BYTE   Fn3
 BYTE   N23  Fn4
 BYTE   W24
//  #05 //074   ----------------------------------------
 BYTE   N32  Ds3
 BYTE   N32  Ds4
 BYTE   W36
 BYTE   TIE  Fn3
 BYTE   TIE  As3
 BYTE   TIE  Fn4
 BYTE   W60
//  #05 //075   ----------------------------------------
 BYTE   W92
 BYTE   W03
 BYTE   EOT
 BYTE   Fn3  v070
 BYTE   Fn4
 BYTE   W01
//  #05 //076   ----------------------------------------
 BYTE   W96
//  #05 //077   ----------------------------------------
 BYTE   W96
//  #05 //078   ----------------------------------------
 BYTE   W96
//  #05 //079   ----------------------------------------
 BYTE   W96
//  #05 //080   ----------------------------------------
 BYTE   W96
//  #05 //081   ----------------------------------------
 BYTE   W96
//  #05 //082   ----------------------------------------
 BYTE   W96
//  #05 //083   ----------------------------------------
 BYTE   W96
//  #05 //084   ----------------------------------------
 BYTE   W96
//  #05 //085   ----------------------------------------
 BYTE   W96
//  #05 //086   ----------------------------------------
 BYTE   W96
//  #05 //087   ----------------------------------------
 BYTE   W96
//  #05 //088   ----------------------------------------
 BYTE   W96
//  #05 //089   ----------------------------------------
 BYTE   W96
//  #05 //090   ----------------------------------------
 BYTE   W96
//  #05 //091   ----------------------------------------
 BYTE   W96
//  #05 //092   ----------------------------------------
 BYTE   W96
//  #05 //093   ----------------------------------------
 BYTE   W96
//  #05 //094   ----------------------------------------
 BYTE   W96
//  #05 //095   ----------------------------------------
 BYTE   W96
//  #05 //096   ----------------------------------------
 BYTE   W96
//  #05 //097   ----------------------------------------
 BYTE   W96
//  #05 //098   ----------------------------------------
 BYTE   W96
//  #05 //099   ----------------------------------------
 BYTE   W96
//  #05 //100   ----------------------------------------
 BYTE   W96
//  #05 //101   ----------------------------------------
 BYTE   W96
//  #05 //102   ----------------------------------------
 BYTE   W96
//  #05 //103   ----------------------------------------
 BYTE   W96
//  #05 //104   ----------------------------------------
 BYTE   W96
//  #05 //105   ----------------------------------------
 BYTE   W96
//  #05 //106   ----------------------------------------
 BYTE   W96
//  #05 //107   ----------------------------------------
 BYTE   W96
//  #05 //108   ----------------------------------------
 BYTE   W96
//  #05 //109   ----------------------------------------
 BYTE   W96
//  #05 //110   ----------------------------------------
 BYTE   W96
//  #05 //111   ----------------------------------------
 BYTE   W96
//  #05 //112   ----------------------------------------
 BYTE   GoTo
  POIN2 Label_01886BB6
//  #05 //113   ----------------------------------------
 BYTE   PATT
  POIN2 Label_01886CEA
//  #05 //114   ----------------------------------------
 BYTE   PATT
  POIN2 Label_01886C64
 BYTE   FINE

//**************** Track 6 (Midi-Chn.5) ****************//

Shackled_006:
//  #06 //000   ----------------------------------------
 BYTE   KEYSH   Shackled_key+0
Label_015B0056:
 BYTE   VOICE   45
 BYTE   VOL   47*Shackled_mvl/mxv
 BYTE   PAN   c_v+0
 BYTE   VOL   47*Shackled_mvl/mxv
 BYTE   PAN   c_v+0
 BYTE   W96
//  #06 //001   ----------------------------------------
 BYTE   W96
//  #06 //002   ----------------------------------------
 BYTE   W96
//  #06 //003   ----------------------------------------
 BYTE   W96
//  #06 //004   ----------------------------------------
 BYTE   W96
//  #06 //005   ----------------------------------------
 BYTE   W96
//  #06 //006   ----------------------------------------
 BYTE   W96
//  #06 //007   ----------------------------------------
 BYTE   W96
//  #06 //008   ----------------------------------------
 BYTE   N92  As2  v080
 BYTE   W96
//  #06 //009   ----------------------------------------
 BYTE   Dn3
 BYTE   W96
//  #06 //010   ----------------------------------------
 BYTE   N44  Cn3
 BYTE   W48
 BYTE   An2
 BYTE   W48
//  #06 //011   ----------------------------------------
 BYTE   N92  As2
 BYTE   W96
//  #06 //012   ----------------------------------------
 BYTE   N92
 BYTE   W96
//  #06 //013   ----------------------------------------
 BYTE   N32  Fn2
 BYTE   W36
 BYTE   As2
 BYTE   W36
 BYTE   N11  Cn3
 BYTE   W12
 BYTE   As2
 BYTE   W12
//  #06 //014   ----------------------------------------
 BYTE   N44  Cn3
 BYTE   W48
 BYTE   N23  As2
 BYTE   W24
 BYTE   An2
 BYTE   W24
//  #06 //015   ----------------------------------------
 BYTE   N44  Gn2
 BYTE   W48
 BYTE   An2
 BYTE   W48
//  #06 //016   ----------------------------------------
 BYTE   N32  Gn3
 BYTE   W36
 BYTE   N23  Dn3
 BYTE   W24
 BYTE   N11
 BYTE   W12
 BYTE   Gn3
 BYTE   W12
 BYTE   An3
 BYTE   W12
//  #06 //017   ----------------------------------------
 BYTE   N44  As3
 BYTE   W48
 BYTE   Fn3
 BYTE   W48
//  #06 //018   ----------------------------------------
 BYTE   N44
 BYTE   W48
 BYTE   Cn3
 BYTE   W48
//  #06 //019   ----------------------------------------
 BYTE   N23  Fn3
 BYTE   W24
 BYTE   Ds3
 BYTE   W24
 BYTE   Dn3
 BYTE   W24
 BYTE   N11  As2
 BYTE   W12
 BYTE   Cn3
 BYTE   W12
//  #06 //020   ----------------------------------------
 BYTE   N68  As3
 BYTE   W72
 BYTE   TIE  An3
 BYTE   W24
//  #06 //021   ----------------------------------------
 BYTE   W92
 BYTE   W03
 BYTE   EOT
 BYTE   W01
//  #06 //022   ----------------------------------------
 BYTE   N92  Dn3
 BYTE   W96
//  #06 //023   ----------------------------------------
 BYTE   W96
//  #06 //024   ----------------------------------------
 BYTE   W96
//  #06 //025   ----------------------------------------
 BYTE   W96
//  #06 //026   ----------------------------------------
 BYTE   W96
//  #06 //027   ----------------------------------------
 BYTE   W96
//  #06 //028   ----------------------------------------
 BYTE   W96
//  #06 //029   ----------------------------------------
 BYTE   W96
//  #06 //030   ----------------------------------------
 BYTE   W96
//  #06 //031   ----------------------------------------
 BYTE   W96
//  #06 //032   ----------------------------------------
 BYTE   W96
//  #06 //033   ----------------------------------------
 BYTE   W96
//  #06 //034   ----------------------------------------
 BYTE   W96
//  #06 //035   ----------------------------------------
 BYTE   W96
//  #06 //036   ----------------------------------------
 BYTE   W96
//  #06 //037   ----------------------------------------
 BYTE   W96
//  #06 //038   ----------------------------------------
 BYTE   W96
//  #06 //039   ----------------------------------------
 BYTE   W96
//  #06 //040   ----------------------------------------
 BYTE   W96
//  #06 //041   ----------------------------------------
 BYTE   W96
//  #06 //042   ----------------------------------------
 BYTE   W96
//  #06 //043   ----------------------------------------
 BYTE   W96
//  #06 //044   ----------------------------------------
 BYTE   W96
//  #06 //045   ----------------------------------------
 BYTE   W96
//  #06 //046   ----------------------------------------
 BYTE   W96
//  #06 //047   ----------------------------------------
 BYTE   W96
//  #06 //048   ----------------------------------------
 BYTE   W96
//  #06 //049   ----------------------------------------
 BYTE   W96
//  #06 //050   ----------------------------------------
 BYTE   W96
//  #06 //051   ----------------------------------------
 BYTE   W96
//  #06 //052   ----------------------------------------
 BYTE   W96
//  #06 //053   ----------------------------------------
 BYTE   W96
//  #06 //054   ----------------------------------------
 BYTE   W96
//  #06 //055   ----------------------------------------
 BYTE   W96
//  #06 //056   ----------------------------------------
 BYTE   W24
 BYTE   N68  Gn3
 BYTE   W72
//  #06 //057   ----------------------------------------
 BYTE   An3
 BYTE   W72
 BYTE   N11  As3
 BYTE   W12
 BYTE   An3
 BYTE   W12
//  #06 //058   ----------------------------------------
 BYTE   N32  Fn3
 BYTE   W36
 BYTE   N11  Ds3
 BYTE   W12
 BYTE   N32  Dn3
 BYTE   W36
 BYTE   N11  Cn3
 BYTE   W12
//  #06 //059   ----------------------------------------
 BYTE   TIE  As2
 BYTE   W96
//  #06 //060   ----------------------------------------
 BYTE   W92
 BYTE   W03
 BYTE   EOT
 BYTE   W01
//  #06 //061   ----------------------------------------
 BYTE   W24
 BYTE   N44  An3
 BYTE   W48
 BYTE   N23  Fn3
 BYTE   W24
//  #06 //062   ----------------------------------------
 BYTE   N32
 BYTE   W36
 BYTE   N11  Ds3
 BYTE   W12
 BYTE   N32  Dn3
 BYTE   W36
 BYTE   N11  Cn4
 BYTE   W12
//  #06 //063   ----------------------------------------
 BYTE   N44
 BYTE   W48
 BYTE   As3
 BYTE   W48
//  #06 //064   ----------------------------------------
 BYTE   W96
//  #06 //065   ----------------------------------------
 BYTE   W24
 BYTE   Cn4
 BYTE   W48
 BYTE   N11  Cs4
 BYTE   W12
 BYTE   N32  Gs3
 BYTE   W12
//  #06 //066   ----------------------------------------
 BYTE   W24
 BYTE   N23  Fs3
 BYTE   W24
 BYTE   Fn3
 BYTE   W24
 BYTE   Ds3
 BYTE   W24
//  #06 //067   ----------------------------------------
 BYTE   N44
 BYTE   W48
 BYTE   Cs3
 BYTE   W48
//  #06 //068   ----------------------------------------
Label_015B0128:
 BYTE   N32  Cs3  v080
 BYTE   W36
 BYTE   Gs3
 BYTE   W36
 BYTE   Cs3
 BYTE   W24
 BYTE   PEND 
//  #06 //069   ----------------------------------------
 BYTE   W12
 BYTE   Gs3
 BYTE   W36
 BYTE   N23  Cs3
 BYTE   N23  Fn3
 BYTE   W24
 BYTE   Cn3
 BYTE   N23  Ds3
 BYTE   W24
//  #06 //070   ----------------------------------------
 BYTE   N32  Cn3
 BYTE   N32  Ds3
 BYTE   W36
 BYTE   N80  As2
 BYTE   N80  Cs3
 BYTE   W60
//  #06 //071   ----------------------------------------
 BYTE   W48
 BYTE   N23  Cn3
 BYTE   W24
 BYTE   Cs3
 BYTE   W24
//  #06 //072   ----------------------------------------
 BYTE   PATT
  POIN2 Label_015B0128
//  #06 //073   ----------------------------------------
 BYTE   W12
 BYTE   N32  Gs3  v080
 BYTE   W36
 BYTE   N23  Fs3
 BYTE   W24
 BYTE   Fn3
 BYTE   W24
//  #06 //074   ----------------------------------------
 BYTE   N32  Ds3
 BYTE   W36
 BYTE   TIE  Fn3
 BYTE   W60
//  #06 //075   ----------------------------------------
 BYTE   W92
 BYTE   W03
 BYTE   EOT
 BYTE   W01
//  #06 //076   ----------------------------------------
 BYTE   W96
//  #06 //077   ----------------------------------------
 BYTE   W96
//  #06 //078   ----------------------------------------
 BYTE   W96
//  #06 //079   ----------------------------------------
 BYTE   W96
//  #06 //080   ----------------------------------------
 BYTE   W96
//  #06 //081   ----------------------------------------
 BYTE   W96
//  #06 //082   ----------------------------------------
 BYTE   W96
//  #06 //083   ----------------------------------------
 BYTE   W96
//  #06 //084   ----------------------------------------
 BYTE   W96
//  #06 //085   ----------------------------------------
 BYTE   W96
//  #06 //086   ----------------------------------------
 BYTE   W96
//  #06 //087   ----------------------------------------
 BYTE   W96
//  #06 //088   ----------------------------------------
 BYTE   W96
//  #06 //089   ----------------------------------------
 BYTE   W96
//  #06 //090   ----------------------------------------
 BYTE   W96
//  #06 //091   ----------------------------------------
 BYTE   W96
//  #06 //092   ----------------------------------------
 BYTE   W96
//  #06 //093   ----------------------------------------
 BYTE   W96
//  #06 //094   ----------------------------------------
 BYTE   W96
//  #06 //095   ----------------------------------------
 BYTE   W96
//  #06 //096   ----------------------------------------
 BYTE   W96
//  #06 //097   ----------------------------------------
 BYTE   W96
//  #06 //098   ----------------------------------------
 BYTE   W96
//  #06 //099   ----------------------------------------
 BYTE   W96
//  #06 //100   ----------------------------------------
 BYTE   W96
//  #06 //101   ----------------------------------------
 BYTE   W96
//  #06 //102   ----------------------------------------
 BYTE   W96
//  #06 //103   ----------------------------------------
 BYTE   W96
//  #06 //104   ----------------------------------------
 BYTE   W96
//  #06 //105   ----------------------------------------
 BYTE   W96
//  #06 //106   ----------------------------------------
 BYTE   W96
//  #06 //107   ----------------------------------------
 BYTE   W96
//  #06 //108   ----------------------------------------
 BYTE   W96
//  #06 //109   ----------------------------------------
 BYTE   W96
//  #06 //110   ----------------------------------------
 BYTE   W96
//  #06 //111   ----------------------------------------
 BYTE   W96
//  #06 //112   ----------------------------------------
 BYTE   GoTo
  POIN2 Label_015B0056
//  #06 //113   ----------------------------------------
 BYTE   W96
//  #06 //114   ----------------------------------------
 BYTE   W96
 BYTE   FINE

//**************** Track 7 (Midi-Chn.6) ****************//

Shackled_007:
//  #07 //000   ----------------------------------------
 BYTE   KEYSH   Shackled_key+0
Label_01886386:
 BYTE   VOICE   45
 BYTE   VOL   47*Shackled_mvl/mxv
 BYTE   PAN   c_v+0
 BYTE   VOL   47*Shackled_mvl/mxv
 BYTE   PAN   c_v+0
 BYTE   W96
//  #07 //001   ----------------------------------------
 BYTE   W96
//  #07 //002   ----------------------------------------
 BYTE   W96
//  #07 //003   ----------------------------------------
 BYTE   W96
//  #07 //004   ----------------------------------------
 BYTE   W96
//  #07 //005   ----------------------------------------
 BYTE   W96
//  #07 //006   ----------------------------------------
 BYTE   W96
//  #07 //007   ----------------------------------------
 BYTE   W96
//  #07 //008   ----------------------------------------
Label_01886398:
 BYTE   N11  Gn1  v096
 BYTE   W36
 BYTE   N11
 BYTE   W36
 BYTE   N11
 BYTE   W24
 BYTE   PEND 
//  #07 //009   ----------------------------------------
Label_018863A1:
 BYTE   N11  As1  v096
 BYTE   W36
 BYTE   N11
 BYTE   W36
 BYTE   N11
 BYTE   W24
 BYTE   PEND 
//  #07 //010   ----------------------------------------
Label_018863AA:
 BYTE   N11  Fn1  v096
 BYTE   W36
 BYTE   N11
 BYTE   W36
 BYTE   N11
 BYTE   W24
 BYTE   PEND 
//  #07 //011   ----------------------------------------
Label_018863B3:
 BYTE   N11  Ds1  v096
 BYTE   W36
 BYTE   N11
 BYTE   W36
 BYTE   N11
 BYTE   W24
 BYTE   PEND 
//  #07 //012   ----------------------------------------
 BYTE   PATT
  POIN2 Label_01886398
//  #07 //013   ----------------------------------------
 BYTE   PATT
  POIN2 Label_018863A1
//  #07 //014   ----------------------------------------
 BYTE   N11  Cn2  v096
 BYTE   W36
 BYTE   N11
 BYTE   W36
 BYTE   N11
 BYTE   W24
//  #07 //015   ----------------------------------------
 BYTE   Ds2
 BYTE   W36
 BYTE   N11
 BYTE   W36
 BYTE   N11
 BYTE   W24
//  #07 //016   ----------------------------------------
 BYTE   PATT
  POIN2 Label_01886398
//  #07 //017   ----------------------------------------
 BYTE   PATT
  POIN2 Label_018863A1
//  #07 //018   ----------------------------------------
 BYTE   PATT
  POIN2 Label_018863AA
//  #07 //019   ----------------------------------------
 BYTE   PATT
  POIN2 Label_018863B3
//  #07 //020   ----------------------------------------
 BYTE   N11  Cn1  v096
 BYTE   W36
 BYTE   N11
 BYTE   W36
 BYTE   N23  Dn1
 BYTE   W24
//  #07 //021   ----------------------------------------
 BYTE   W36
 BYTE   N11
 BYTE   W36
 BYTE   N11
 BYTE   W24
//  #07 //022   ----------------------------------------
 BYTE   PATT
  POIN2 Label_018863B3
//  #07 //023   ----------------------------------------
 BYTE   W12
 BYTE   N11  Ds1  v096
 BYTE   W36
 BYTE   N11
 BYTE   W24
 BYTE   N23  Fn1
 BYTE   W24
//  #07 //024   ----------------------------------------
 BYTE   W96
//  #07 //025   ----------------------------------------
 BYTE   W96
//  #07 //026   ----------------------------------------
 BYTE   W96
//  #07 //027   ----------------------------------------
 BYTE   W96
//  #07 //028   ----------------------------------------
 BYTE   W96
//  #07 //029   ----------------------------------------
 BYTE   W96
//  #07 //030   ----------------------------------------
 BYTE   W96
//  #07 //031   ----------------------------------------
 BYTE   W96
//  #07 //032   ----------------------------------------
 BYTE   W96
//  #07 //033   ----------------------------------------
 BYTE   W96
//  #07 //034   ----------------------------------------
 BYTE   W96
//  #07 //035   ----------------------------------------
 BYTE   W96
//  #07 //036   ----------------------------------------
 BYTE   W96
//  #07 //037   ----------------------------------------
 BYTE   W96
//  #07 //038   ----------------------------------------
 BYTE   W96
//  #07 //039   ----------------------------------------
 BYTE   W96
//  #07 //040   ----------------------------------------
 BYTE   W96
//  #07 //041   ----------------------------------------
 BYTE   W96
//  #07 //042   ----------------------------------------
 BYTE   W96
//  #07 //043   ----------------------------------------
 BYTE   W96
//  #07 //044   ----------------------------------------
 BYTE   W96
//  #07 //045   ----------------------------------------
 BYTE   W96
//  #07 //046   ----------------------------------------
 BYTE   W96
//  #07 //047   ----------------------------------------
 BYTE   W96
//  #07 //048   ----------------------------------------
 BYTE   W96
//  #07 //049   ----------------------------------------
 BYTE   W96
//  #07 //050   ----------------------------------------
 BYTE   W96
//  #07 //051   ----------------------------------------
 BYTE   W96
//  #07 //052   ----------------------------------------
 BYTE   W96
//  #07 //053   ----------------------------------------
 BYTE   W96
//  #07 //054   ----------------------------------------
 BYTE   W96
//  #07 //055   ----------------------------------------
 BYTE   W96
//  #07 //056   ----------------------------------------
Label_01886425:
 BYTE   W24
 BYTE   N11  Ds1  v080
 BYTE   N11  Ds2
 BYTE   W36
 BYTE   N05  Ds1
 BYTE   N05  Ds2
 BYTE   W24
 BYTE   Ds1
 BYTE   N05  Ds2
 BYTE   W12
 BYTE   PEND 
//  #07 //057   ----------------------------------------
 BYTE   N11  Ds1
 BYTE   N11  Ds2
 BYTE   W24
 BYTE   N05  Ds1
 BYTE   N05  Ds2
 BYTE   W12
 BYTE   Ds1
 BYTE   N05  Ds2
 BYTE   W24
 BYTE   Ds1
 BYTE   N05  Ds2
 BYTE   W12
 BYTE   N11  Fn1
 BYTE   N11  Fn2
 BYTE   W24
//  #07 //058   ----------------------------------------
 BYTE   W24
 BYTE   Gn1
 BYTE   N11  Gn2
 BYTE   W36
 BYTE   N05  Gn1
 BYTE   N05  Gn2
 BYTE   W24
 BYTE   Gn1
 BYTE   N05  Gn2
 BYTE   W12
//  #07 //059   ----------------------------------------
 BYTE   N11  Gn1
 BYTE   N11  Gn2
 BYTE   W24
 BYTE   N05  Gn1
 BYTE   N05  Gn2
 BYTE   W12
 BYTE   Gn1
 BYTE   N05  Gn2
 BYTE   W24
 BYTE   Gn1
 BYTE   N05  Gn2
 BYTE   W12
 BYTE   N11  Dn1
 BYTE   N11  Dn2
 BYTE   W24
//  #07 //060   ----------------------------------------
 BYTE   PATT
  POIN2 Label_01886425
//  #07 //061   ----------------------------------------
 BYTE   N11  Ds1  v080
 BYTE   N11  Ds2
 BYTE   W24
 BYTE   N05  Ds1
 BYTE   N05  Ds2
 BYTE   W12
 BYTE   Ds1
 BYTE   N05  Ds2
 BYTE   W24
 BYTE   Ds1
 BYTE   N05  Ds2
 BYTE   W12
 BYTE   Fn1
 BYTE   N05  Fn2
 BYTE   W24
//  #07 //062   ----------------------------------------
 BYTE   N11  Gn1
 BYTE   N11  Gn2
 BYTE   W36
 BYTE   N05  Gn1
 BYTE   N05  Gn2
 BYTE   W12
 BYTE   Gn1
 BYTE   N05  Gn2
 BYTE   W24
 BYTE   N11  Gn1
 BYTE   N11  Gn2
 BYTE   W24
//  #07 //063   ----------------------------------------
 BYTE   Fn1
 BYTE   N11  Fn2
 BYTE   W24
 BYTE   Fn1
 BYTE   N11  Fn2
 BYTE   W24
 BYTE   En1
 BYTE   N11  En2
 BYTE   W24
 BYTE   En1
 BYTE   N11  En2
 BYTE   W24
//  #07 //064   ----------------------------------------
 BYTE   W24
 BYTE   Fs1
 BYTE   N11  Fs2
 BYTE   W36
 BYTE   N05  Fs1
 BYTE   N05  Fs2
 BYTE   W24
 BYTE   Fs1
 BYTE   N05  Fs2
 BYTE   W12
//  #07 //065   ----------------------------------------
 BYTE   N11  Fs1
 BYTE   N11  Fs2
 BYTE   W24
 BYTE   Fs1
 BYTE   N11  Fs2
 BYTE   W24
 BYTE   Fs1
 BYTE   N11  Fs2
 BYTE   W24
 BYTE   N23  Gs1
 BYTE   N23  Gs2
 BYTE   W24
//  #07 //066   ----------------------------------------
 BYTE   N11  As1
 BYTE   N11  As2
 BYTE   W24
 BYTE   As1
 BYTE   N11  As2
 BYTE   W24
 BYTE   As1
 BYTE   N11  As2
 BYTE   W24
 BYTE   As1
 BYTE   N11  As2
 BYTE   W24
//  #07 //067   ----------------------------------------
 BYTE   Cn2
 BYTE   N11  Cn3
 BYTE   W24
 BYTE   Cn2
 BYTE   N11  Cn3
 BYTE   W24
 BYTE   Cs2
 BYTE   N11  Cs3
 BYTE   W24
 BYTE   Cs2
 BYTE   N11  Cs3
 BYTE   W24
//  #07 //068   ----------------------------------------
 BYTE   PATT
  POIN2 Label_01886425
//  #07 //069   ----------------------------------------
 BYTE   N11  Fn1  v080
 BYTE   N11  Fn2
 BYTE   W36
 BYTE   Fn1
 BYTE   N11  Fn2
 BYTE   W24
 BYTE   N05  Fn1
 BYTE   N05  Fn2
 BYTE   W12
 BYTE   N11  Gs1
 BYTE   N11  Gs2
 BYTE   W24
//  #07 //070   ----------------------------------------
 BYTE   As1
 BYTE   N11  As2
 BYTE   W36
 BYTE   N05  As1
 BYTE   N05  As2
 BYTE   W12
 BYTE   As1
 BYTE   N05  As2
 BYTE   W24
 BYTE   N11  As1
 BYTE   N11  As2
 BYTE   W24
//  #07 //071   ----------------------------------------
 BYTE   W12
 BYTE   N05  As1
 BYTE   N05  As2
 BYTE   W12
 BYTE   As1
 BYTE   N05  As2
 BYTE   W24
 BYTE   N11  Gs1
 BYTE   N11  Gs2
 BYTE   W24
 BYTE   Gs1
 BYTE   N11  Gs2
 BYTE   W24
//  #07 //072   ----------------------------------------
 BYTE   Fs1
 BYTE   N11  Fs2
 BYTE   W36
 BYTE   Ds1
 BYTE   N11  Ds2
 BYTE   W36
 BYTE   Fn1
 BYTE   N11  Fn2
 BYTE   W24
//  #07 //073   ----------------------------------------
 BYTE   W12
 BYTE   Fn1
 BYTE   N11  Fn2
 BYTE   W36
 BYTE   Fn1
 BYTE   N11  Fn2
 BYTE   W24
 BYTE   Fn1
 BYTE   N11  Fn2
 BYTE   W24
//  #07 //074   ----------------------------------------
Label_01886549:
 BYTE   N44  Fs1  v080
 BYTE   W84
 BYTE   N11
 BYTE   W12
 BYTE   PEND 
//  #07 //075   ----------------------------------------
 BYTE   W96
//  #07 //076   ----------------------------------------
 BYTE   PATT
  POIN2 Label_01886549
//  #07 //077   ----------------------------------------
 BYTE   W96
//  #07 //078   ----------------------------------------
 BYTE   PATT
  POIN2 Label_01886549
//  #07 //079   ----------------------------------------
 BYTE   W96
//  #07 //080   ----------------------------------------
 BYTE   PATT
  POIN2 Label_01886549
//  #07 //081   ----------------------------------------
 BYTE   W96
//  #07 //082   ----------------------------------------
 BYTE   W96
//  #07 //083   ----------------------------------------
 BYTE   W96
//  #07 //084   ----------------------------------------
 BYTE   W96
//  #07 //085   ----------------------------------------
 BYTE   W96
//  #07 //086   ----------------------------------------
 BYTE   W96
//  #07 //087   ----------------------------------------
 BYTE   W96
//  #07 //088   ----------------------------------------
 BYTE   W96
//  #07 //089   ----------------------------------------
 BYTE   W96
//  #07 //090   ----------------------------------------
 BYTE   W96
//  #07 //091   ----------------------------------------
 BYTE   W96
//  #07 //092   ----------------------------------------
 BYTE   W96
//  #07 //093   ----------------------------------------
 BYTE   W96
//  #07 //094   ----------------------------------------
 BYTE   W96
//  #07 //095   ----------------------------------------
 BYTE   W96
//  #07 //096   ----------------------------------------
 BYTE   W96
//  #07 //097   ----------------------------------------
 BYTE   W96
//  #07 //098   ----------------------------------------
 BYTE   W96
//  #07 //099   ----------------------------------------
 BYTE   W96
//  #07 //100   ----------------------------------------
 BYTE   W96
//  #07 //101   ----------------------------------------
 BYTE   W96
//  #07 //102   ----------------------------------------
 BYTE   W96
//  #07 //103   ----------------------------------------
 BYTE   W96
//  #07 //104   ----------------------------------------
 BYTE   W96
//  #07 //105   ----------------------------------------
 BYTE   W96
//  #07 //106   ----------------------------------------
 BYTE   W96
//  #07 //107   ----------------------------------------
 BYTE   W96
//  #07 //108   ----------------------------------------
 BYTE   W96
//  #07 //109   ----------------------------------------
 BYTE   W96
//  #07 //110   ----------------------------------------
 BYTE   W96
//  #07 //111   ----------------------------------------
 BYTE   W96
//  #07 //112   ----------------------------------------
 BYTE   GoTo
  POIN2 Label_01886386
//  #07 //113   ----------------------------------------
 BYTE   W96
//  #07 //114   ----------------------------------------
 BYTE   W96
 BYTE   FINE

//**************** Track 8 (Midi-Chn.7) ****************//

Shackled_008:
//  #08 //000   ----------------------------------------
 BYTE   KEYSH   Shackled_key+0
Label_01A2A7FE:
 BYTE   VOICE   121
 BYTE   VOL   47*Shackled_mvl/mxv
 BYTE   PAN   c_v-4
 BYTE   VOL   47*Shackled_mvl/mxv
 BYTE   PAN   c_v+0
 BYTE   VOL   47*Shackled_mvl/mxv
 BYTE   PAN   c_v+0
 BYTE   VOL   47*Shackled_mvl/mxv
 BYTE   PAN   c_v+0
 BYTE   VOL   56*Shackled_mvl/mxv
 BYTE   PAN   c_v+0
 BYTE   VOL   47*Shackled_mvl/mxv
 BYTE   PAN   c_v+0
 BYTE   N05  Gs1  v016
 BYTE   W06
 BYTE   N05
 BYTE   W06
 BYTE   N05
 BYTE   W06
 BYTE   N05
 BYTE   W06
 BYTE   N05
 BYTE   W06
 BYTE   N05
 BYTE   W06
 BYTE   N05
 BYTE   W06
 BYTE   N05
 BYTE   W06
 BYTE   N05
 BYTE   W06
 BYTE   N05
 BYTE   W06
 BYTE   N05
 BYTE   W06
 BYTE   N05
 BYTE   W06
 BYTE   N05
 BYTE   W06
 BYTE   N05
 BYTE   W06
 BYTE   N05
 BYTE   W06
 BYTE   N05
 BYTE   W06
//  #08 //001   ----------------------------------------
Label_01A2A83A:
 BYTE   N05  Gs1  v016
 BYTE   W06
 BYTE   N05
 BYTE   W06
 BYTE   N05
 BYTE   W06
 BYTE   N05
 BYTE   W06
 BYTE   N05
 BYTE   W06
 BYTE   N05
 BYTE   W06
 BYTE   N05
 BYTE   W06
 BYTE   N05
 BYTE   W06
 BYTE   N05
 BYTE   W06
 BYTE   N05
 BYTE   W06
 BYTE   N05
 BYTE   W06
 BYTE   N05
 BYTE   W06
 BYTE   N05
 BYTE   W06
 BYTE   N05
 BYTE   W06
 BYTE   N05
 BYTE   W06
 BYTE   N05
 BYTE   W06
 BYTE   PEND 
//  #08 //002   ----------------------------------------
 BYTE   PATT
  POIN2 Label_01A2A83A
//  #08 //003   ----------------------------------------
 BYTE   PATT
  POIN2 Label_01A2A83A
//  #08 //004   ----------------------------------------
 BYTE   N23  Cn1  v080
 BYTE   N05  Gs1
 BYTE   W06
 BYTE   Gs1  v036
 BYTE   W06
 BYTE   N05
 BYTE   W06
 BYTE   N05
 BYTE   W06
 BYTE   N05
 BYTE   W06
 BYTE   N05
 BYTE   W06
 BYTE   N05
 BYTE   W06
 BYTE   N05
 BYTE   W06
 BYTE   N05
 BYTE   W06
 BYTE   N05
 BYTE   W06
 BYTE   N17  Cn1  v064
 BYTE   W06
 BYTE   N05  Gs1  v036
 BYTE   W06
 BYTE   N05
 BYTE   W06
 BYTE   N05
 BYTE   W06
 BYTE   N05
 BYTE   W06
 BYTE   N05
 BYTE   W06
//  #08 //005   ----------------------------------------
Label_01A2A890:
 BYTE   N23  Cn1  v064
 BYTE   N05  Gs1
 BYTE   W06
 BYTE   Gs1  v036
 BYTE   W06
 BYTE   N05
 BYTE   W06
 BYTE   N05
 BYTE   W06
 BYTE   N05
 BYTE   W06
 BYTE   N05
 BYTE   W06
 BYTE   N05
 BYTE   W06
 BYTE   N17  Cn1  v064
 BYTE   W06
 BYTE   N05  Gs1  v036
 BYTE   W06
 BYTE   N05
 BYTE   W06
 BYTE   N17  Cn1  v064
 BYTE   W06
 BYTE   N05  Gs1  v036
 BYTE   W06
 BYTE   N05
 BYTE   W06
 BYTE   N05
 BYTE   W06
 BYTE   N05
 BYTE   W06
 BYTE   N05
 BYTE   W06
 BYTE   PEND 
//  #08 //006   ----------------------------------------
 BYTE   N23  Cn1  v064
 BYTE   N05  Gs1
 BYTE   W06
 BYTE   Gs1  v036
 BYTE   W06
 BYTE   N05
 BYTE   W06
 BYTE   N05
 BYTE   W06
 BYTE   N05
 BYTE   W06
 BYTE   N05
 BYTE   W06
 BYTE   N05
 BYTE   W06
 BYTE   N05
 BYTE   W06
 BYTE   N05
 BYTE   W06
 BYTE   N05
 BYTE   W06
 BYTE   N17  Cn1  v064
 BYTE   W06
 BYTE   N05  Gs1  v036
 BYTE   W06
 BYTE   N05
 BYTE   W06
 BYTE   N05
 BYTE   W06
 BYTE   N05
 BYTE   W06
 BYTE   N05
 BYTE   W06
//  #08 //007   ----------------------------------------
 BYTE   PATT
  POIN2 Label_01A2A890
//  #08 //008   ----------------------------------------
Label_01A2A8EC:
 BYTE   N32  Cn1  v096
 BYTE   N32  Fn1
 BYTE   N05  Gs1  v016
 BYTE   W06
 BYTE   N05
 BYTE   W06
 BYTE   N05
 BYTE   W06
 BYTE   N05
 BYTE   W06
 BYTE   N05
 BYTE   W06
 BYTE   N05
 BYTE   W06
 BYTE   N11  Cn1  v096
 BYTE   N11  Fn1
 BYTE   N05  Gs1  v016
 BYTE   W06
 BYTE   N05
 BYTE   W06
 BYTE   N32  Cs1  v096
 BYTE   N44  Ds1
 BYTE   N05  Gs1  v016
 BYTE   W06
 BYTE   N05
 BYTE   W06
 BYTE   N05
 BYTE   W06
 BYTE   N05
 BYTE   W06
 BYTE   N05
 BYTE   W06
 BYTE   N05
 BYTE   W06
 BYTE   N32  Cn1  v096
 BYTE   N32  Fn1
 BYTE   N05  Gs1  v016
 BYTE   W06
 BYTE   N05
 BYTE   W06
 BYTE   PEND 
//  #08 //009   ----------------------------------------
Label_01A2A929:
 BYTE   N05  Gs1  v016
 BYTE   W06
 BYTE   N05
 BYTE   W06
 BYTE   N05
 BYTE   W06
 BYTE   N05
 BYTE   W06
 BYTE   N32  Cn1  v096
 BYTE   N32  Fn1
 BYTE   N05  Gs1  v016
 BYTE   W06
 BYTE   N05
 BYTE   W06
 BYTE   N05
 BYTE   W06
 BYTE   N05
 BYTE   W06
 BYTE   N05
 BYTE   W06
 BYTE   N05
 BYTE   W06
 BYTE   N32  Cs1  v096
 BYTE   N32  Ds1
 BYTE   N05  Gs1  v016
 BYTE   W06
 BYTE   N05
 BYTE   W06
 BYTE   N05
 BYTE   W06
 BYTE   N05
 BYTE   W06
 BYTE   N05
 BYTE   W06
 BYTE   N05
 BYTE   W06
 BYTE   PEND 
//  #08 //010   ----------------------------------------
 BYTE   PATT
  POIN2 Label_01A2A8EC
//  #08 //011   ----------------------------------------
 BYTE   PATT
  POIN2 Label_01A2A929
//  #08 //012   ----------------------------------------
 BYTE   PATT
  POIN2 Label_01A2A8EC
//  #08 //013   ----------------------------------------
 BYTE   PATT
  POIN2 Label_01A2A929
//  #08 //014   ----------------------------------------
 BYTE   PATT
  POIN2 Label_01A2A8EC
//  #08 //015   ----------------------------------------
 BYTE   PATT
  POIN2 Label_01A2A929
//  #08 //016   ----------------------------------------
 BYTE   PATT
  POIN2 Label_01A2A8EC
//  #08 //017   ----------------------------------------
 BYTE   PATT
  POIN2 Label_01A2A929
//  #08 //018   ----------------------------------------
 BYTE   PATT
  POIN2 Label_01A2A8EC
//  #08 //019   ----------------------------------------
 BYTE   PATT
  POIN2 Label_01A2A929
//  #08 //020   ----------------------------------------
 BYTE   PATT
  POIN2 Label_01A2A8EC
//  #08 //021   ----------------------------------------
 BYTE   PATT
  POIN2 Label_01A2A929
//  #08 //022   ----------------------------------------
 BYTE   PATT
  POIN2 Label_01A2A8EC
//  #08 //023   ----------------------------------------
 BYTE   PATT
  POIN2 Label_01A2A929
//  #08 //024   ----------------------------------------
 BYTE   N32  Cn1  v080
 BYTE   N32  Fn1
 BYTE   N05  Gs1  v016
 BYTE   W06
 BYTE   N05
 BYTE   W06
 BYTE   N05
 BYTE   W06
 BYTE   N05
 BYTE   W06
 BYTE   Gs1  v020
 BYTE   W06
 BYTE   N05
 BYTE   W06
 BYTE   N11  Cn1  v080
 BYTE   N11  Fn1
 BYTE   N05  Gs1  v020
 BYTE   W06
 BYTE   N05
 BYTE   W06
 BYTE   N32  Cs1  v080
 BYTE   N44  Ds1
 BYTE   N05  Gs1  v020
 BYTE   W06
 BYTE   N05
 BYTE   W06
 BYTE   N05
 BYTE   W06
 BYTE   N05
 BYTE   W06
 BYTE   N05
 BYTE   W06
 BYTE   N05
 BYTE   W06
 BYTE   N32  Cn1  v080
 BYTE   N32  Fn1
 BYTE   N05  Gs1  v020
 BYTE   W06
 BYTE   N05
 BYTE   W06
//  #08 //025   ----------------------------------------
 BYTE   N05
 BYTE   W06
 BYTE   N05
 BYTE   W06
 BYTE   N05
 BYTE   W06
 BYTE   N05
 BYTE   W06
 BYTE   N32  Cn1  v080
 BYTE   N32  Fn1
 BYTE   N05  Gs1  v024
 BYTE   W06
 BYTE   N05
 BYTE   W06
 BYTE   N05
 BYTE   W06
 BYTE   N05
 BYTE   W06
 BYTE   N05
 BYTE   W06
 BYTE   N05
 BYTE   W06
 BYTE   N32  Cs1  v080
 BYTE   N32  Ds1
 BYTE   N05  Gs1  v024
 BYTE   W06
 BYTE   N05
 BYTE   W06
 BYTE   N05
 BYTE   W06
 BYTE   N05
 BYTE   W06
 BYTE   N05
 BYTE   W06
 BYTE   N05
 BYTE   W06
//  #08 //026   ----------------------------------------
 BYTE   N32  Cn1  v080
 BYTE   N32  Fn1
 BYTE   N05  Gs1  v024
 BYTE   W06
 BYTE   N05
 BYTE   W06
 BYTE   N05
 BYTE   W06
 BYTE   Gs1  v028
 BYTE   W06
 BYTE   N05
 BYTE   W06
 BYTE   N05
 BYTE   W06
 BYTE   N11  Cn1  v080
 BYTE   N11  Fn1
 BYTE   N05  Gs1  v028
 BYTE   W06
 BYTE   N05
 BYTE   W06
 BYTE   N32  Cs1  v080
 BYTE   N44  Ds1
 BYTE   N05  Gs1  v028
 BYTE   W06
 BYTE   N05
 BYTE   W06
 BYTE   N05
 BYTE   W06
 BYTE   N05
 BYTE   W06
 BYTE   N05
 BYTE   W06
 BYTE   N05
 BYTE   W06
 BYTE   N32  Cn1  v080
 BYTE   N32  Fn1
 BYTE   N05  Gs1  v028
 BYTE   W06
 BYTE   N05
 BYTE   W06
//  #08 //027   ----------------------------------------
 BYTE   N05
 BYTE   W06
 BYTE   N05
 BYTE   W06
 BYTE   N05
 BYTE   W06
 BYTE   Gs1  v032
 BYTE   W06
 BYTE   N32  Cn1  v080
 BYTE   N32  Fn1
 BYTE   N05  Gs1  v032
 BYTE   W06
 BYTE   N05
 BYTE   W06
 BYTE   N05
 BYTE   W06
 BYTE   N05
 BYTE   W06
 BYTE   N05
 BYTE   W06
 BYTE   N05
 BYTE   W06
 BYTE   N32  Cs1  v080
 BYTE   N32  Ds1
 BYTE   N05  Gs1  v032
 BYTE   W06
 BYTE   N05
 BYTE   W06
 BYTE   N05
 BYTE   W06
 BYTE   N05
 BYTE   W06
 BYTE   N05
 BYTE   W06
 BYTE   N05
 BYTE   W06
//  #08 //028   ----------------------------------------
 BYTE   N32  Cn1  v080
 BYTE   N32  Fn1
 BYTE   N05  Gs1  v032
 BYTE   W06
 BYTE   N05
 BYTE   W06
 BYTE   Gs1  v036
 BYTE   W06
 BYTE   N05
 BYTE   W06
 BYTE   N05
 BYTE   W06
 BYTE   N05
 BYTE   W06
 BYTE   N11  Cn1  v080
 BYTE   N11  Fn1
 BYTE   N05  Gs1  v036
 BYTE   W06
 BYTE   N05
 BYTE   W06
 BYTE   N32  Cs1  v080
 BYTE   N44  Ds1
 BYTE   N05  Gs1  v036
 BYTE   W06
 BYTE   N05
 BYTE   W06
 BYTE   N05
 BYTE   W06
 BYTE   N05
 BYTE   W06
 BYTE   N05
 BYTE   W06
 BYTE   N05
 BYTE   W06
 BYTE   N32  Cn1  v080
 BYTE   N32  Fn1
 BYTE   N05  Gs1  v036
 BYTE   W06
 BYTE   N05
 BYTE   W06
//  #08 //029   ----------------------------------------
 BYTE   N05
 BYTE   W06
 BYTE   Gs1  v040
 BYTE   W06
 BYTE   N05
 BYTE   W06
 BYTE   N05
 BYTE   W06
 BYTE   N32  Cn1  v080
 BYTE   N32  Fn1
 BYTE   N05  Gs1  v040
 BYTE   W06
 BYTE   N05
 BYTE   W06
 BYTE   N05
 BYTE   W06
 BYTE   N05
 BYTE   W06
 BYTE   N05
 BYTE   W06
 BYTE   N05
 BYTE   W06
 BYTE   N32  Cs1  v080
 BYTE   N32  Ds1
 BYTE   N05  Gs1  v040
 BYTE   W06
 BYTE   N05
 BYTE   W06
 BYTE   N05
 BYTE   W06
 BYTE   N05
 BYTE   W06
 BYTE   N05
 BYTE   W06
 BYTE   N05
 BYTE   W06
//  #08 //030   ----------------------------------------
 BYTE   N32  Cn1  v080
 BYTE   N32  Fn1
 BYTE   N05  Gs1  v040
 BYTE   W06
 BYTE   Gs1  v044
 BYTE   W06
 BYTE   N05
 BYTE   W06
 BYTE   N05
 BYTE   W06
 BYTE   N05
 BYTE   W06
 BYTE   N05
 BYTE   W06
 BYTE   N11  Cn1  v080
 BYTE   N11  Fn1
 BYTE   N05  Gs1  v044
 BYTE   W06
 BYTE   N05
 BYTE   W06
 BYTE   N32  Cs1  v080
 BYTE   N44  Ds1
 BYTE   N05  Gs1  v044
 BYTE   W06
 BYTE   N05
 BYTE   W06
 BYTE   N05
 BYTE   W06
 BYTE   N05
 BYTE   W06
 BYTE   N05
 BYTE   W06
 BYTE   N05
 BYTE   W06
 BYTE   N32  Cn1  v080
 BYTE   N32  Fn1
 BYTE   N05  Gs1  v044
 BYTE   W06
 BYTE   N05
 BYTE   W06
//  #08 //031   ----------------------------------------
 BYTE   Gs1  v048
 BYTE   W06
 BYTE   N05
 BYTE   W06
 BYTE   N05
 BYTE   W06
 BYTE   N05
 BYTE   W06
 BYTE   N32  Cn1  v080
 BYTE   N32  Fn1
 BYTE   N05  Gs1  v048
 BYTE   W06
 BYTE   N05
 BYTE   W06
 BYTE   N05
 BYTE   W06
 BYTE   N05
 BYTE   W06
 BYTE   N05
 BYTE   N44  An2  v112
 BYTE   W06
 BYTE   N05  Gs1  v048
 BYTE   W06
 BYTE   N32  Cs1  v080
 BYTE   N32  Ds1
 BYTE   N05  Gs1  v048
 BYTE   W06
 BYTE   N05
 BYTE   W06
 BYTE   N05
 BYTE   W06
 BYTE   N05
 BYTE   W06
 BYTE   N05
 BYTE   W06
 BYTE   Gs1  v052
 BYTE   W06
//  #08 //032   ----------------------------------------
Label_01A2AB55:
 BYTE   N32  Cn1  v080
 BYTE   N32  Cn1
 BYTE   W36
 BYTE   N05  Cn1
 BYTE   W06
 BYTE   N05
 BYTE   W06
 BYTE   N32  Cn1
 BYTE   N44  Dn1
 BYTE   W36
 BYTE   N32  Cn1
 BYTE   W12
 BYTE   PEND 
//  #08 //033   ----------------------------------------
Label_01A2AB69:
 BYTE   W24
 BYTE   N11  Cn1  v080
 BYTE   W12
 BYTE   N11
 BYTE   W12
 BYTE   N11
 BYTE   W12
 BYTE   N32  Cn1
 BYTE   N32  Dn1
 BYTE   W36
 BYTE   PEND 
//  #08 //034   ----------------------------------------
 BYTE   PATT
  POIN2 Label_01A2AB55
//  #08 //035   ----------------------------------------
 BYTE   PATT
  POIN2 Label_01A2AB69
//  #08 //036   ----------------------------------------
 BYTE   PATT
  POIN2 Label_01A2AB55
//  #08 //037   ----------------------------------------
 BYTE   PATT
  POIN2 Label_01A2AB69
//  #08 //038   ----------------------------------------
 BYTE   PATT
  POIN2 Label_01A2AB55
//  #08 //039   ----------------------------------------
 BYTE   PATT
  POIN2 Label_01A2AB69
//  #08 //040   ----------------------------------------
 BYTE   PATT
  POIN2 Label_01A2AB55
//  #08 //041   ----------------------------------------
 BYTE   PATT
  POIN2 Label_01A2AB69
//  #08 //042   ----------------------------------------
 BYTE   PATT
  POIN2 Label_01A2AB55
//  #08 //043   ----------------------------------------
 BYTE   PATT
  POIN2 Label_01A2AB69
//  #08 //044   ----------------------------------------
 BYTE   PATT
  POIN2 Label_01A2AB55
//  #08 //045   ----------------------------------------
 BYTE   PATT
  POIN2 Label_01A2AB69
//  #08 //046   ----------------------------------------
 BYTE   N32  Cn1  v080
 BYTE   N32  Cn1
 BYTE   W36
 BYTE   N05  Cn1
 BYTE   W06
 BYTE   N05
 BYTE   W06
 BYTE   N32  Cn1
 BYTE   N44  En1  v052
 BYTE   W36
 BYTE   N32  Cn1  v080
 BYTE   W12
//  #08 //047   ----------------------------------------
 BYTE   W24
 BYTE   N11
 BYTE   W12
 BYTE   N11
 BYTE   W12
 BYTE   N11
 BYTE   N44  An2  v112
 BYTE   W12
 BYTE   N23  Cn1  v080
 BYTE   N23  En1  v052
 BYTE   W24
 BYTE   N11  Cn1  v080
 BYTE   N11  En1  v052
 BYTE   W12
//  #08 //048   ----------------------------------------
Label_01A2ABE1:
 BYTE   N23  Cn1  v052
 BYTE   N05  Gs1  v004
 BYTE   W06
 BYTE   N05
 BYTE   W06
 BYTE   N05
 BYTE   W06
 BYTE   N05
 BYTE   W06
 BYTE   N23  Dn1  v052
 BYTE   N05  Gs1  v004
 BYTE   W06
 BYTE   N05
 BYTE   W06
 BYTE   N05
 BYTE   W06
 BYTE   N17  Cn1  v052
 BYTE   N05  Gs1  v004
 BYTE   W06
 BYTE   N05
 BYTE   W06
 BYTE   N05
 BYTE   W06
 BYTE   N11  Cn1  v052
 BYTE   N05  Gs1  v004
 BYTE   W06
 BYTE   N05
 BYTE   W06
 BYTE   N23  Dn1  v052
 BYTE   N05  Gs1  v004
 BYTE   W06
 BYTE   N05
 BYTE   W06
 BYTE   N05
 BYTE   W06
 BYTE   N05
 BYTE   W06
 BYTE   PEND 
//  #08 //049   ----------------------------------------
 BYTE   PATT
  POIN2 Label_01A2ABE1
//  #08 //050   ----------------------------------------
 BYTE   N23  Cn1  v052
 BYTE   N05  Gs1  v004
 BYTE   W06
 BYTE   N05
 BYTE   W06
 BYTE   N05
 BYTE   W06
 BYTE   N05
 BYTE   W06
 BYTE   N23  Dn1  v052
 BYTE   N05  Gs1  v004
 BYTE   W06
 BYTE   N05
 BYTE   W06
 BYTE   N05
 BYTE   W06
 BYTE   N17  Cn1  v052
 BYTE   N05  Gs1  v004
 BYTE   W06
 BYTE   Gs1  v008
 BYTE   W01
 BYTE   W05
 BYTE   N05
 BYTE   W06
 BYTE   N11  Cn1  v056
 BYTE   N05  Gs1  v008
 BYTE   W01
 BYTE   W05
 BYTE   N05
 BYTE   W06
 BYTE   N23  Dn1  v056
 BYTE   N05  Gs1  v008
 BYTE   W01
 BYTE   W05
 BYTE   N05
 BYTE   W06
 BYTE   N05
 BYTE   W01
 BYTE   W05
 BYTE   N05
 BYTE   W06
//  #08 //051   ----------------------------------------
 BYTE   N23  Cn1  v056
 BYTE   N05  Gs1  v012
 BYTE   W02
 BYTE   W04
 BYTE   N05
 BYTE   W06
 BYTE   N05
 BYTE   W02
 BYTE   W04
 BYTE   N05
 BYTE   W06
 BYTE   N23  Dn1  v060
 BYTE   N05  Gs1  v012
 BYTE   W02
 BYTE   W04
 BYTE   N05
 BYTE   W06
 BYTE   N05
 BYTE   W02
 BYTE   W04
 BYTE   N17  Cn1  v060
 BYTE   N05  Gs1  v012
 BYTE   W06
 BYTE   Gs1  v016
 BYTE   W03
 BYTE   W03
 BYTE   N05
 BYTE   W06
 BYTE   N11  Cn1  v064
 BYTE   N05  Gs1  v016
 BYTE   W03
 BYTE   W03
 BYTE   N05
 BYTE   W06
 BYTE   N23  Dn1  v064
 BYTE   N05  Gs1  v016
 BYTE   W03
 BYTE   W03
 BYTE   N05
 BYTE   W06
 BYTE   N05
 BYTE   W03
 BYTE   W03
 BYTE   N05
 BYTE   W06
//  #08 //052   ----------------------------------------
 BYTE   N23  Cn1  v064
 BYTE   N05  Gs1  v020
 BYTE   W04
 BYTE   W02
 BYTE   N05
 BYTE   W06
 BYTE   N05
 BYTE   W04
 BYTE   W02
 BYTE   N05
 BYTE   W06
 BYTE   N23  Dn1  v068
 BYTE   N05  Gs1  v020
 BYTE   W04
 BYTE   W02
 BYTE   N05
 BYTE   W06
 BYTE   N05
 BYTE   W04
 BYTE   W02
 BYTE   N17  Cn1  v068
 BYTE   N05  Gs1  v020
 BYTE   W06
 BYTE   Gs1  v024
 BYTE   W05
 BYTE   W01
 BYTE   N05
 BYTE   W06
 BYTE   N11  Cn1  v072
 BYTE   N05  Gs1  v024
 BYTE   W05
 BYTE   W01
 BYTE   N05
 BYTE   W06
 BYTE   N23  Dn1  v072
 BYTE   N05  Gs1  v024
 BYTE   W05
 BYTE   W01
 BYTE   N05
 BYTE   W06
 BYTE   N05
 BYTE   W05
 BYTE   W01
 BYTE   N05
 BYTE   W06
//  #08 //053   ----------------------------------------
 BYTE   N23  Cn1  v072
 BYTE   N05  Gs1  v028
 BYTE   W06
 BYTE   N05
 BYTE   W06
 BYTE   N05
 BYTE   W06
 BYTE   N05
 BYTE   W06
 BYTE   N23  Dn1  v076
 BYTE   N05  Gs1  v028
 BYTE   W06
 BYTE   N05
 BYTE   W06
 BYTE   N05
 BYTE   W06
 BYTE   N17  Cn1  v076
 BYTE   N05  Gs1  v028
 BYTE   W06
 BYTE   Gs1  v032
 BYTE   W06
 BYTE   N05
 BYTE   W01
 BYTE   W05
 BYTE   N11  Cn1  v080
 BYTE   N05  Gs1  v032
 BYTE   W06
 BYTE   N05
 BYTE   W01
 BYTE   W05
 BYTE   N23  Dn1  v080
 BYTE   N05  Gs1  v032
 BYTE   W06
 BYTE   N05
 BYTE   W01
 BYTE   W05
 BYTE   N05
 BYTE   W06
 BYTE   N05
 BYTE   W01
 BYTE   W05
//  #08 //054   ----------------------------------------
 BYTE   N23  Cn1  v080
 BYTE   N05  Gs1  v036
 BYTE   W06
 BYTE   N05
 BYTE   W02
 BYTE   W04
 BYTE   N05
 BYTE   W06
 BYTE   N05
 BYTE   W02
 BYTE   W04
 BYTE   N23  Dn1  v084
 BYTE   N05  Gs1  v036
 BYTE   W06
 BYTE   N05
 BYTE   W02
 BYTE   W04
 BYTE   N05
 BYTE   W06
 BYTE   N17  Cn1  v084
 BYTE   N05  Gs1  v036
 BYTE   W02
 BYTE   W04
 BYTE   Gs1  v040
 BYTE   W06
 BYTE   N05
 BYTE   W03
 BYTE   W03
 BYTE   N11  Cn1  v088
 BYTE   N05  Gs1  v040
 BYTE   W06
 BYTE   N05
 BYTE   W03
 BYTE   W03
 BYTE   N23  Dn1  v088
 BYTE   N05  Gs1  v040
 BYTE   W06
 BYTE   N05
 BYTE   W03
 BYTE   W03
 BYTE   N05
 BYTE   W06
 BYTE   N05
 BYTE   W03
 BYTE   W03
//  #08 //055   ----------------------------------------
 BYTE   N23  Cn1  v088
 BYTE   N05  Gs1  v044
 BYTE   W06
 BYTE   N05
 BYTE   W04
 BYTE   W02
 BYTE   N05
 BYTE   W06
 BYTE   N05
 BYTE   W04
 BYTE   W02
 BYTE   N23  Dn1  v092
 BYTE   N05  Gs1  v044
 BYTE   W06
 BYTE   N05
 BYTE   W04
 BYTE   W02
 BYTE   N05
 BYTE   W06
 BYTE   N17  Cn1  v092
 BYTE   N05  Gs1  v044
 BYTE   W04
 BYTE   W02
 BYTE   Gs1  v048
 BYTE   N68  An2  v112
 BYTE   W06
 BYTE   N05  Gs1  v048
 BYTE   W05
 BYTE   W01
 BYTE   N11  Cn1  v096
 BYTE   N05  Gs1  v048
 BYTE   W06
 BYTE   N05
 BYTE   W05
 BYTE   W01
 BYTE   N23  Dn1  v096
 BYTE   N05  Gs1  v048
 BYTE   W06
 BYTE   N05
 BYTE   W05
 BYTE   W01
 BYTE   N05
 BYTE   W06
 BYTE   N05
 BYTE   W05
 BYTE   W01
//  #08 //056   ----------------------------------------
 BYTE   W24
 BYTE   N23  Cn1  v080
 BYTE   N23  Dn1  v096
 BYTE   N11  Gs1  v036
 BYTE   N68  An2  v096
 BYTE   W12
 BYTE   N11  Gs1  v036
 BYTE   W12
 BYTE   Cn1  v080
 BYTE   N32  Cn1  v096
 BYTE   N44  Ds1
 BYTE   N11  Gs1  v036
 BYTE   W12
 BYTE   N11
 BYTE   W12
 BYTE   N23  Dn1  v096
 BYTE   N11  Gs1  v036
 BYTE   W12
 BYTE   N32  Cn1  v080
 BYTE   N11  Gs1  v036
 BYTE   W12
//  #08 //057   ----------------------------------------
Label_01A2ADD6:
 BYTE   N11  Gs1  v036
 BYTE   W12
 BYTE   N11
 BYTE   W12
 BYTE   Cn1  v080
 BYTE   N23  Dn1  v096
 BYTE   N11  Gs1  v036
 BYTE   W12
 BYTE   Cn1  v096
 BYTE   N11  Gs1  v036
 BYTE   W12
 BYTE   Cn1  v096
 BYTE   N11  Gs1  v036
 BYTE   W12
 BYTE   N32  Cn1  v096
 BYTE   N32  Ds1
 BYTE   N11  Gs1  v036
 BYTE   W12
 BYTE   N23  Dn1  v096
 BYTE   N11  Gs1  v036
 BYTE   W12
 BYTE   N05
 BYTE   W06
 BYTE   N05
 BYTE   W06
 BYTE   PEND 
//  #08 //058   ----------------------------------------
Label_01A2AE06:
 BYTE   N32  Cn1  v080
 BYTE   N32  Cn1  v096
 BYTE   N11  Gs1  v036
 BYTE   W12
 BYTE   N11
 BYTE   W12
 BYTE   N23  Dn1  v096
 BYTE   N11  Gs1  v036
 BYTE   W12
 BYTE   N05  Cn1  v080
 BYTE   N11  Gs1  v036
 BYTE   W06
 BYTE   N05  Cn1  v096
 BYTE   W06
 BYTE   N32  Cn1
 BYTE   N44  Ds1
 BYTE   N11  Gs1  v036
 BYTE   W12
 BYTE   N11
 BYTE   W12
 BYTE   N23  Dn1  v096
 BYTE   N11  Gs1  v036
 BYTE   W12
 BYTE   N32  Cn1  v080
 BYTE   N11  Gs1  v036
 BYTE   W12
 BYTE   PEND 
//  #08 //059   ----------------------------------------
 BYTE   PATT
  POIN2 Label_01A2ADD6
//  #08 //060   ----------------------------------------
 BYTE   W24
 BYTE   N23  Dn1  v096
 BYTE   N11  Gs1  v036
 BYTE   N68  An2  v096
 BYTE   W12
 BYTE   N23  Cn1  v080
 BYTE   N11  Gs1  v036
 BYTE   W12
 BYTE   N32  Cn1  v096
 BYTE   N44  Ds1
 BYTE   N11  Gs1  v036
 BYTE   W12
 BYTE   N11
 BYTE   W12
 BYTE   N23  Dn1  v096
 BYTE   N11  Gs1  v036
 BYTE   W12
 BYTE   N32  Cn1  v080
 BYTE   N11  Gs1  v036
 BYTE   W12
//  #08 //061   ----------------------------------------
 BYTE   PATT
  POIN2 Label_01A2ADD6
//  #08 //062   ----------------------------------------
 BYTE   PATT
  POIN2 Label_01A2AE06
//  #08 //063   ----------------------------------------
 BYTE   PATT
  POIN2 Label_01A2ADD6
//  #08 //064   ----------------------------------------
 BYTE   W24
 BYTE   N23  Cn1  v080
 BYTE   N23  Cs1  v096
 BYTE   N11  Gs1  v036
 BYTE   N68  An2  v096
 BYTE   W12
 BYTE   N11  Gs1  v036
 BYTE   W12
 BYTE   Cn1  v080
 BYTE   N32  Cn1  v096
 BYTE   N44  Ds1
 BYTE   N11  Gs1  v036
 BYTE   W12
 BYTE   N11
 BYTE   W12
 BYTE   N23  Cs1  v096
 BYTE   N11  Gs1  v036
 BYTE   W12
 BYTE   N32  Cn1  v080
 BYTE   N11  Gs1  v036
 BYTE   W12
//  #08 //065   ----------------------------------------
 BYTE   PATT
  POIN2 Label_01A2ADD6
//  #08 //066   ----------------------------------------
 BYTE   PATT
  POIN2 Label_01A2AE06
//  #08 //067   ----------------------------------------
 BYTE   PATT
  POIN2 Label_01A2ADD6
//  #08 //068   ----------------------------------------
 BYTE   PATT
  POIN2 Label_01A2AE06
//  #08 //069   ----------------------------------------
 BYTE   PATT
  POIN2 Label_01A2ADD6
//  #08 //070   ----------------------------------------
 BYTE   PATT
  POIN2 Label_01A2AE06
//  #08 //071   ----------------------------------------
 BYTE   PATT
  POIN2 Label_01A2ADD6
//  #08 //072   ----------------------------------------
 BYTE   N23  Cn1  v080
 BYTE   W96
//  #08 //073   ----------------------------------------
 BYTE   W96
//  #08 //074   ----------------------------------------
Label_01A2AED1:
 BYTE   N32  Cn1  v096
 BYTE   W36
 BYTE   N05
 BYTE   W06
 BYTE   N05
 BYTE   W06
 BYTE   N11
 BYTE   N44  En1
 BYTE   W12
 BYTE   N23  Cn1
 BYTE   W24
 BYTE   N32
 BYTE   W12
 BYTE   PEND 
//  #08 //075   ----------------------------------------
Label_01A2AEE3:
 BYTE   W24
 BYTE   N11  Cn1  v096
 BYTE   W12
 BYTE   N11
 BYTE   W12
 BYTE   N11
 BYTE   W12
 BYTE   N32
 BYTE   N32  En1
 BYTE   W36
 BYTE   PEND 
//  #08 //076   ----------------------------------------
 BYTE   PATT
  POIN2 Label_01A2AED1
//  #08 //077   ----------------------------------------
 BYTE   PATT
  POIN2 Label_01A2AEE3
//  #08 //078   ----------------------------------------
 BYTE   PATT
  POIN2 Label_01A2AED1
//  #08 //079   ----------------------------------------
 BYTE   PATT
  POIN2 Label_01A2AEE3
//  #08 //080   ----------------------------------------
 BYTE   PATT
  POIN2 Label_01A2AED1
//  #08 //081   ----------------------------------------
 BYTE   W24
 BYTE   N11  Cn1  v096
 BYTE   W12
 BYTE   N11
 BYTE   W12
 BYTE   N11
 BYTE   W24
 BYTE   N23  An2  v112
 BYTE   W24
//  #08 //082   ----------------------------------------
Label_01A2AF17:
 BYTE   N32  Cn1  v112
 BYTE   N32  Cn1  v080
 BYTE   N05  Gs1  v052
 BYTE   W06
 BYTE   Gs1  v016
 BYTE   W06
 BYTE   Gs1  v052
 BYTE   W06
 BYTE   Gs1  v016
 BYTE   W06
 BYTE   Gs1  v052
 BYTE   W06
 BYTE   Gs1  v016
 BYTE   W06
 BYTE   Cn1  v112
 BYTE   N05  Gs1  v052
 BYTE   W06
 BYTE   Cn1  v080
 BYTE   N05  Gs1  v016
 BYTE   W06
 BYTE   N32  Cn1  v080
 BYTE   N44  Dn1  v052
 BYTE   N44  Ds1  v080
 BYTE   N05  Gs1  v052
 BYTE   W06
 BYTE   Gs1  v016
 BYTE   W06
 BYTE   Gs1  v052
 BYTE   W06
 BYTE   Gs1  v016
 BYTE   W06
 BYTE   Gs1  v052
 BYTE   W06
 BYTE   Gs1  v016
 BYTE   W06
 BYTE   N32  Cn1  v112
 BYTE   N05  Gs1  v052
 BYTE   W06
 BYTE   Gs1  v016
 BYTE   W06
 BYTE   PEND 
//  #08 //083   ----------------------------------------
Label_01A2AF63:
 BYTE   N05  Gs1  v052
 BYTE   W06
 BYTE   Gs1  v016
 BYTE   W06
 BYTE   Gs1  v052
 BYTE   W06
 BYTE   Gs1  v016
 BYTE   W06
 BYTE   N11  Cn1  v112
 BYTE   N05  Gs1  v052
 BYTE   W06
 BYTE   Gs1  v016
 BYTE   W06
 BYTE   N11  Cn1  v080
 BYTE   N05  Gs1  v052
 BYTE   W06
 BYTE   Gs1  v016
 BYTE   W06
 BYTE   N11  Cn1  v080
 BYTE   N05  Gs1  v052
 BYTE   W06
 BYTE   Gs1  v016
 BYTE   W06
 BYTE   N32  Cn1  v080
 BYTE   N32  Dn1  v052
 BYTE   N32  Ds1  v080
 BYTE   N05  Gs1  v052
 BYTE   W06
 BYTE   Gs1  v016
 BYTE   W06
 BYTE   Gs1  v052
 BYTE   W06
 BYTE   Gs1  v016
 BYTE   W06
 BYTE   Gs1  v052
 BYTE   W06
 BYTE   Gs1  v016
 BYTE   W06
 BYTE   PEND 
//  #08 //084   ----------------------------------------
 BYTE   PATT
  POIN2 Label_01A2AF17
//  #08 //085   ----------------------------------------
 BYTE   PATT
  POIN2 Label_01A2AF63
//  #08 //086   ----------------------------------------
 BYTE   PATT
  POIN2 Label_01A2AF17
//  #08 //087   ----------------------------------------
 BYTE   PATT
  POIN2 Label_01A2AF63
//  #08 //088   ----------------------------------------
 BYTE   PATT
  POIN2 Label_01A2AF17
//  #08 //089   ----------------------------------------
 BYTE   PATT
  POIN2 Label_01A2AF63
//  #08 //090   ----------------------------------------
 BYTE   PATT
  POIN2 Label_01A2AF17
//  #08 //091   ----------------------------------------
 BYTE   PATT
  POIN2 Label_01A2AF63
//  #08 //092   ----------------------------------------
 BYTE   PATT
  POIN2 Label_01A2AF17
//  #08 //093   ----------------------------------------
 BYTE   PATT
  POIN2 Label_01A2AF63
//  #08 //094   ----------------------------------------
 BYTE   PATT
  POIN2 Label_01A2AF17
//  #08 //095   ----------------------------------------
 BYTE   PATT
  POIN2 Label_01A2AF63
//  #08 //096   ----------------------------------------
 BYTE   PATT
  POIN2 Label_01A2AF17
//  #08 //097   ----------------------------------------
 BYTE   N05  Gs1  v052
 BYTE   W06
 BYTE   Gs1  v016
 BYTE   W06
 BYTE   Gs1  v052
 BYTE   W06
 BYTE   Gs1  v016
 BYTE   W06
 BYTE   N11  Cn1  v112
 BYTE   N05  Gs1  v052
 BYTE   W06
 BYTE   Gs1  v016
 BYTE   W06
 BYTE   N11  Cn1  v080
 BYTE   N05  Gs1  v052
 BYTE   W06
 BYTE   Gs1  v016
 BYTE   W06
 BYTE   N11  Cn1  v080
 BYTE   N05  Gs1  v052
 BYTE   N44  An2  v112
 BYTE   W06
 BYTE   N05  Gs1  v016
 BYTE   W06
 BYTE   N32  Cn1  v080
 BYTE   N32  Dn1  v052
 BYTE   N32  Ds1  v080
 BYTE   N05  Gs1  v052
 BYTE   W06
 BYTE   Gs1  v016
 BYTE   W06
 BYTE   Gs1  v052
 BYTE   W06
 BYTE   Gs1  v016
 BYTE   W06
 BYTE   Gs1  v052
 BYTE   W06
 BYTE   Gs1  v016
 BYTE   W06
//  #08 //098   ----------------------------------------
Label_01A2B037:
 BYTE   N23  Cn1  v052
 BYTE   W24
 BYTE   En1
 BYTE   W12
 BYTE   N11  Cn1
 BYTE   W12
 BYTE   N11
 BYTE   W12
 BYTE   N23  En1
 BYTE   W24
 BYTE   Cn1
 BYTE   W12
 BYTE   PEND 
//  #08 //099   ----------------------------------------
 BYTE   W12
 BYTE   N11
 BYTE   W12
 BYTE   N23  En1
 BYTE   W24
 BYTE   N11  Cn1
 BYTE   W12
 BYTE   N11
 BYTE   W12
 BYTE   N23  En1
 BYTE   W24
//  #08 //100   ----------------------------------------
 BYTE   PATT
  POIN2 Label_01A2B037
//  #08 //101   ----------------------------------------
 BYTE   W12
 BYTE   N11  Cn1  v052
 BYTE   W12
 BYTE   N23  En1
 BYTE   W24
 BYTE   N11  Cn1
 BYTE   N05  En1
 BYTE   W06
 BYTE   N05
 BYTE   W06
 BYTE   N11  Cn1
 BYTE   N11  En1
 BYTE   W12
 BYTE   N23  Cn1
 BYTE   W24
//  #08 //102   ----------------------------------------
 BYTE   En1
 BYTE   W12
 BYTE   N11  Cn1
 BYTE   W12
 BYTE   N11
 BYTE   W12
 BYTE   N23  En1
 BYTE   W24
 BYTE   Cn1
 BYTE   W24
 BYTE   N11
 BYTE   W12
//  #08 //103   ----------------------------------------
 BYTE   N23  En1
 BYTE   W24
 BYTE   N11  Cn1
 BYTE   W12
 BYTE   N03  Dn1
 BYTE   W04
 BYTE   N03
 BYTE   W04
 BYTE   N03
 BYTE   W04
 BYTE   N23  Cn1
 BYTE   W24
 BYTE   En1
 BYTE   W12
 BYTE   N11  Cn1
 BYTE   W12
//  #08 //104   ----------------------------------------
 BYTE   N11
 BYTE   W12
 BYTE   N23  En1
 BYTE   W24
 BYTE   Cn1
 BYTE   W24
 BYTE   N11
 BYTE   W12
 BYTE   N23
 BYTE   N05  En1
 BYTE   W06
 BYTE   N01
 BYTE   W02
 BYTE   N01
 BYTE   W02
 BYTE   N01
 BYTE   W02
 BYTE   N05
 BYTE   W06
 BYTE   N05
 BYTE   W06
//  #08 //105   ----------------------------------------
Label_01A2B0AC:
 BYTE   N32  Cn1  v112
 BYTE   N23  Cn1  v080
 BYTE   W24
 BYTE   En1
 BYTE   W12
 BYTE   N05  Cn1  v112
 BYTE   N11  Cn1  v080
 BYTE   W06
 BYTE   N05  Cn1
 BYTE   W06
 BYTE   N11  Cn1
 BYTE   N44  Ds1
 BYTE   W12
 BYTE   N23  En1
 BYTE   W24
 BYTE   N32  Cn1  v112
 BYTE   N23  Cn1  v080
 BYTE   W12
 BYTE   PEND 
//  #08 //106   ----------------------------------------
 BYTE   W12
 BYTE   N11
 BYTE   W12
 BYTE   Cn1  v112
 BYTE   N23  En1  v080
 BYTE   W12
 BYTE   N11  Cn1
 BYTE   W12
 BYTE   N11
 BYTE   N11  Cn1
 BYTE   W12
 BYTE   N11
 BYTE   N32  Ds1
 BYTE   W12
 BYTE   N23  En1
 BYTE   W24
//  #08 //107   ----------------------------------------
 BYTE   PATT
  POIN2 Label_01A2B0AC
//  #08 //108   ----------------------------------------
 BYTE   W12
 BYTE   N11  Cn1  v080
 BYTE   W12
 BYTE   Cn1  v112
 BYTE   N23  En1  v080
 BYTE   W12
 BYTE   N11  Cn1
 BYTE   W12
 BYTE   N11
 BYTE   N05  Cn1
 BYTE   N05  En1
 BYTE   W06
 BYTE   Cn1
 BYTE   N05  En1
 BYTE   W06
 BYTE   N11  Cn1
 BYTE   N11  Ds1
 BYTE   N11  En1
 BYTE   W12
 BYTE   N32  Cn1  v112
 BYTE   N23  Cn1  v080
 BYTE   W24
//  #08 //109   ----------------------------------------
 BYTE   En1
 BYTE   W12
 BYTE   N05  Cn1  v112
 BYTE   N11  Cn1  v080
 BYTE   W06
 BYTE   N05  Cn1
 BYTE   W06
 BYTE   N11  Cn1
 BYTE   N44  Ds1
 BYTE   W12
 BYTE   N23  En1
 BYTE   W24
 BYTE   N32  Cn1  v112
 BYTE   N23  Cn1  v080
 BYTE   W24
 BYTE   N11
 BYTE   W12
//  #08 //110   ----------------------------------------
 BYTE   Cn1  v112
 BYTE   N23  En1  v080
 BYTE   W12
 BYTE   N11  Cn1
 BYTE   W12
 BYTE   N11
 BYTE   N11  Cn1
 BYTE   W12
 BYTE   N11
 BYTE   N03  Dn1
 BYTE   N11  Ds1
 BYTE   W04
 BYTE   N03  Dn1
 BYTE   W04
 BYTE   N03
 BYTE   W04
 BYTE   N32  Cn1  v112
 BYTE   N23  Cn1  v080
 BYTE   W24
 BYTE   En1
 BYTE   W12
 BYTE   N05  Cn1  v112
 BYTE   N11  Cn1  v080
 BYTE   W06
 BYTE   N05  Cn1
 BYTE   W06
//  #08 //111   ----------------------------------------
 BYTE   N11  Cn1
 BYTE   N44  Ds1
 BYTE   W12
 BYTE   N23  En1
 BYTE   W24
 BYTE   N32  Cn1  v112
 BYTE   N23  Cn1  v080
 BYTE   W24
 BYTE   N11
 BYTE   W12
 BYTE   Cn1  v112
 BYTE   N23  Cn1  v080
 BYTE   N05  En1
 BYTE   W06
 BYTE   N01
 BYTE   W02
 BYTE   N01
 BYTE   W02
 BYTE   N01
 BYTE   W02
 BYTE   N11  Cn1
 BYTE   N05  En1
 BYTE   W06
 BYTE   N05
 BYTE   W06
//  #08 //112   ----------------------------------------
 BYTE   GoTo
  POIN2 Label_01A2A7FE
//  #08 //113   ----------------------------------------
Label_01A2B184:
 BYTE   N32  Cn1  v112
 BYTE   N23  Cn1  v080
 BYTE   N11  Fs1  v016
 BYTE   W12
 BYTE   N11
 BYTE   W12
 BYTE   N23  Dn1  v080
 BYTE   N11  Fs1  v016
 BYTE   W12
 BYTE   N32  Cn1  v112
 BYTE   N23  Cn1  v080
 BYTE   N11  Fs1  v016
 BYTE   W12
 BYTE   N11
 BYTE   W12
 BYTE   Cn1  v080
 BYTE   N11  Fs1  v016
 BYTE   W12
 BYTE   N23  Cn1  v112
 BYTE   N23  Dn1  v080
 BYTE   N11  Fs1  v016
 BYTE   W12
 BYTE   N05
 BYTE   W06
 BYTE   N05
 BYTE   W06
 BYTE   PEND 
//  #08 //114   ----------------------------------------
 BYTE   PATT
  POIN2 Label_01A2B184
 BYTE   FINE

//**************** Track 9 (Midi-Chn.8) ****************//

Shackled_009:
//  #09 //000   ----------------------------------------
 BYTE   KEYSH   Shackled_key+0
Label_0188663E:
 BYTE   VOICE   48
 BYTE   VOL   47*Shackled_mvl/mxv
 BYTE   PAN   c_v+0
 BYTE   VOL   47*Shackled_mvl/mxv
 BYTE   PAN   c_v+0
 BYTE   W96
//  #09 //001   ----------------------------------------
 BYTE   W96
//  #09 //002   ----------------------------------------
 BYTE   W96
//  #09 //003   ----------------------------------------
 BYTE   W96
//  #09 //004   ----------------------------------------
 BYTE   W96
//  #09 //005   ----------------------------------------
 BYTE   W96
//  #09 //006   ----------------------------------------
 BYTE   W96
//  #09 //007   ----------------------------------------
 BYTE   W96
//  #09 //008   ----------------------------------------
 BYTE   N92  As2  v080
 BYTE   W96
//  #09 //009   ----------------------------------------
 BYTE   Dn3
 BYTE   W96
//  #09 //010   ----------------------------------------
 BYTE   N44  Cn3
 BYTE   W48
 BYTE   An2
 BYTE   W48
//  #09 //011   ----------------------------------------
 BYTE   N92  As2
 BYTE   W96
//  #09 //012   ----------------------------------------
 BYTE   N92
 BYTE   W96
//  #09 //013   ----------------------------------------
 BYTE   N32  Fn2
 BYTE   W36
 BYTE   As2
 BYTE   W36
 BYTE   N11  Cn3
 BYTE   W12
 BYTE   As2
 BYTE   W12
//  #09 //014   ----------------------------------------
 BYTE   N44  Cn3
 BYTE   W48
 BYTE   N23  As2
 BYTE   W24
 BYTE   An2
 BYTE   W24
//  #09 //015   ----------------------------------------
 BYTE   N44  Gn2
 BYTE   W48
 BYTE   An2
 BYTE   W48
//  #09 //016   ----------------------------------------
 BYTE   N32  Gn3
 BYTE   W36
 BYTE   N23  Dn3
 BYTE   W24
 BYTE   N11
 BYTE   W12
 BYTE   Gn3
 BYTE   W12
 BYTE   An3
 BYTE   W12
//  #09 //017   ----------------------------------------
 BYTE   N44  As3
 BYTE   W48
 BYTE   Fn3
 BYTE   W48
//  #09 //018   ----------------------------------------
 BYTE   N44
 BYTE   W48
 BYTE   Cn3
 BYTE   W48
//  #09 //019   ----------------------------------------
 BYTE   N23  Fn3
 BYTE   W24
 BYTE   Ds3
 BYTE   W24
 BYTE   Dn3
 BYTE   W24
 BYTE   N11  As2
 BYTE   W12
 BYTE   Cn3
 BYTE   W12
//  #09 //020   ----------------------------------------
 BYTE   N68  As3
 BYTE   W72
 BYTE   TIE  An3
 BYTE   W24
//  #09 //021   ----------------------------------------
 BYTE   W92
 BYTE   W03
 BYTE   EOT
 BYTE   W01
//  #09 //022   ----------------------------------------
 BYTE   N92  Dn3
 BYTE   W96
//  #09 //023   ----------------------------------------
 BYTE   W96
//  #09 //024   ----------------------------------------
 BYTE   TIE  Gn1
 BYTE   W96
//  #09 //025   ----------------------------------------
 BYTE   W92
 BYTE   W03
 BYTE   EOT
 BYTE   W01
//  #09 //026   ----------------------------------------
Label_018866AD:
 BYTE   N32  As1  v080
 BYTE   W36
 BYTE   TIE  Gn1
 BYTE   W60
 BYTE   PEND 
//  #09 //027   ----------------------------------------
 BYTE   W92
 BYTE   W03
 BYTE   EOT
 BYTE   W01
//  #09 //028   ----------------------------------------
 BYTE   PATT
  POIN2 Label_018866AD
//  #09 //029   ----------------------------------------
 BYTE   W92
 BYTE   W03
 BYTE   EOT
 BYTE   Gn1
 BYTE   W01
//  #09 //030   ----------------------------------------
 BYTE   PATT
  POIN2 Label_018866AD
//  #09 //031   ----------------------------------------
 BYTE   W92
 BYTE   W03
 BYTE   EOT
 BYTE   Gn1
 BYTE   W01
//  #09 //032   ----------------------------------------
 BYTE   W96
//  #09 //033   ----------------------------------------
 BYTE   W96
//  #09 //034   ----------------------------------------
 BYTE   W96
//  #09 //035   ----------------------------------------
 BYTE   W96
//  #09 //036   ----------------------------------------
 BYTE   W96
//  #09 //037   ----------------------------------------
 BYTE   W96
//  #09 //038   ----------------------------------------
 BYTE   W96
//  #09 //039   ----------------------------------------
 BYTE   W96
//  #09 //040   ----------------------------------------
 BYTE   W96
//  #09 //041   ----------------------------------------
 BYTE   W96
//  #09 //042   ----------------------------------------
 BYTE   W96
//  #09 //043   ----------------------------------------
 BYTE   W96
//  #09 //044   ----------------------------------------
 BYTE   W96
//  #09 //045   ----------------------------------------
 BYTE   W96
//  #09 //046   ----------------------------------------
 BYTE   W96
//  #09 //047   ----------------------------------------
 BYTE   W96
//  #09 //048   ----------------------------------------
 BYTE   W96
//  #09 //049   ----------------------------------------
 BYTE   W96
//  #09 //050   ----------------------------------------
 BYTE   W96
//  #09 //051   ----------------------------------------
 BYTE   W96
//  #09 //052   ----------------------------------------
 BYTE   W96
//  #09 //053   ----------------------------------------
 BYTE   W96
//  #09 //054   ----------------------------------------
 BYTE   W96
//  #09 //055   ----------------------------------------
 BYTE   W96
//  #09 //056   ----------------------------------------
 BYTE   W96
//  #09 //057   ----------------------------------------
 BYTE   W96
//  #09 //058   ----------------------------------------
 BYTE   W96
//  #09 //059   ----------------------------------------
 BYTE   W96
//  #09 //060   ----------------------------------------
 BYTE   W96
//  #09 //061   ----------------------------------------
 BYTE   W96
//  #09 //062   ----------------------------------------
 BYTE   W96
//  #09 //063   ----------------------------------------
 BYTE   W96
//  #09 //064   ----------------------------------------
 BYTE   W96
//  #09 //065   ----------------------------------------
 BYTE   W96
//  #09 //066   ----------------------------------------
 BYTE   W96
//  #09 //067   ----------------------------------------
 BYTE   W96
//  #09 //068   ----------------------------------------
 BYTE   W96
//  #09 //069   ----------------------------------------
 BYTE   W96
//  #09 //070   ----------------------------------------
 BYTE   W96
//  #09 //071   ----------------------------------------
 BYTE   W96
//  #09 //072   ----------------------------------------
 BYTE   N32  Cs4  v112
 BYTE   W36
 BYTE   Gs4
 BYTE   W36
 BYTE   Cs4
 BYTE   W24
//  #09 //073   ----------------------------------------
 BYTE   W12
 BYTE   Gs4
 BYTE   W36
 BYTE   N23  Fs4
 BYTE   W24
 BYTE   Fn4
 BYTE   W24
//  #09 //074   ----------------------------------------
 BYTE   N32  Ds4
 BYTE   W36
 BYTE   TIE  Fn4
 BYTE   W60
//  #09 //075   ----------------------------------------
 BYTE   W92
 BYTE   W03
 BYTE   EOT
 BYTE   W01
//  #09 //076   ----------------------------------------
 BYTE   W96
//  #09 //077   ----------------------------------------
 BYTE   W96
//  #09 //078   ----------------------------------------
 BYTE   W96
//  #09 //079   ----------------------------------------
 BYTE   W96
//  #09 //080   ----------------------------------------
 BYTE   W96
//  #09 //081   ----------------------------------------
 BYTE   W96
//  #09 //082   ----------------------------------------
 BYTE   W96
//  #09 //083   ----------------------------------------
 BYTE   W96
//  #09 //084   ----------------------------------------
 BYTE   W96
//  #09 //085   ----------------------------------------
 BYTE   W96
//  #09 //086   ----------------------------------------
 BYTE   W96
//  #09 //087   ----------------------------------------
 BYTE   W96
//  #09 //088   ----------------------------------------
 BYTE   W96
//  #09 //089   ----------------------------------------
 BYTE   W96
//  #09 //090   ----------------------------------------
 BYTE   W96
//  #09 //091   ----------------------------------------
 BYTE   W96
//  #09 //092   ----------------------------------------
 BYTE   W96
//  #09 //093   ----------------------------------------
 BYTE   W96
//  #09 //094   ----------------------------------------
 BYTE   W96
//  #09 //095   ----------------------------------------
 BYTE   W96
//  #09 //096   ----------------------------------------
 BYTE   W96
//  #09 //097   ----------------------------------------
 BYTE   W96
//  #09 //098   ----------------------------------------
 BYTE   W96
//  #09 //099   ----------------------------------------
 BYTE   W96
//  #09 //100   ----------------------------------------
 BYTE   W96
//  #09 //101   ----------------------------------------
 BYTE   W96
//  #09 //102   ----------------------------------------
 BYTE   W96
//  #09 //103   ----------------------------------------
 BYTE   W96
//  #09 //104   ----------------------------------------
 BYTE   W96
//  #09 //105   ----------------------------------------
 BYTE   W96
//  #09 //106   ----------------------------------------
 BYTE   W96
//  #09 //107   ----------------------------------------
 BYTE   W96
//  #09 //108   ----------------------------------------
 BYTE   W96
//  #09 //109   ----------------------------------------
 BYTE   W96
//  #09 //110   ----------------------------------------
 BYTE   W96
//  #09 //111   ----------------------------------------
 BYTE   W96
//  #09 //112   ----------------------------------------
 BYTE   GoTo
  POIN2 Label_0188663E
//  #09 //113   ----------------------------------------
Label_01886738:
 BYTE   N05  Gn2  v127
 BYTE   W03
 BYTE   W01
 BYTE   W01
 BYTE   W07
 BYTE   Gn2  v096
 BYTE   W12
 BYTE   N05
 BYTE   W12
 BYTE   Gn2  v127
 BYTE   W03
 BYTE   W01
 BYTE   W01
 BYTE   W07
 BYTE   Gn2  v096
 BYTE   W12
 BYTE   N05
 BYTE   W12
 BYTE   Gn2  v127
 BYTE   W03
 BYTE   W01
 BYTE   W01
 BYTE   W07
 BYTE   Gn2  v096
 BYTE   W12
 BYTE   PEND 
//  #09 //114   ----------------------------------------
 BYTE   PATT
  POIN2 Label_01886738
 BYTE   FINE

//**************** Track 10 (Midi-Chn.9) ****************//

Shackled_010:
//  #10 //000   ----------------------------------------
 BYTE   KEYSH   Shackled_key+0
Label_015B057E:
 BYTE   VOICE   45
 BYTE   VOL   47*Shackled_mvl/mxv
 BYTE   PAN   c_v+0
 BYTE   VOL   47*Shackled_mvl/mxv
 BYTE   PAN   c_v+0
 BYTE   W96
//  #10 //001   ----------------------------------------
 BYTE   W96
//  #10 //002   ----------------------------------------
 BYTE   W96
//  #10 //003   ----------------------------------------
 BYTE   W96
//  #10 //004   ----------------------------------------
 BYTE   W96
//  #10 //005   ----------------------------------------
 BYTE   W96
//  #10 //006   ----------------------------------------
 BYTE   W96
//  #10 //007   ----------------------------------------
 BYTE   W96
//  #10 //008   ----------------------------------------
 BYTE   W96
//  #10 //009   ----------------------------------------
 BYTE   W96
//  #10 //010   ----------------------------------------
 BYTE   W96
//  #10 //011   ----------------------------------------
 BYTE   W96
//  #10 //012   ----------------------------------------
 BYTE   W96
//  #10 //013   ----------------------------------------
 BYTE   W96
//  #10 //014   ----------------------------------------
 BYTE   W96
//  #10 //015   ----------------------------------------
 BYTE   W96
//  #10 //016   ----------------------------------------
 BYTE   W96
//  #10 //017   ----------------------------------------
 BYTE   W96
//  #10 //018   ----------------------------------------
 BYTE   W96
//  #10 //019   ----------------------------------------
 BYTE   W96
//  #10 //020   ----------------------------------------
 BYTE   W96
//  #10 //021   ----------------------------------------
 BYTE   W96
//  #10 //022   ----------------------------------------
 BYTE   W96
//  #10 //023   ----------------------------------------
 BYTE   W96
//  #10 //024   ----------------------------------------
 BYTE   W96
//  #10 //025   ----------------------------------------
 BYTE   W96
//  #10 //026   ----------------------------------------
 BYTE   W96
//  #10 //027   ----------------------------------------
 BYTE   W96
//  #10 //028   ----------------------------------------
 BYTE   W96
//  #10 //029   ----------------------------------------
 BYTE   W96
//  #10 //030   ----------------------------------------
 BYTE   W96
//  #10 //031   ----------------------------------------
 BYTE   W96
//  #10 //032   ----------------------------------------
 BYTE   W96
//  #10 //033   ----------------------------------------
 BYTE   W96
//  #10 //034   ----------------------------------------
 BYTE   W96
//  #10 //035   ----------------------------------------
 BYTE   W96
//  #10 //036   ----------------------------------------
 BYTE   W96
//  #10 //037   ----------------------------------------
 BYTE   W96
//  #10 //038   ----------------------------------------
 BYTE   W96
//  #10 //039   ----------------------------------------
 BYTE   W96
//  #10 //040   ----------------------------------------
 BYTE   W96
//  #10 //041   ----------------------------------------
 BYTE   W96
//  #10 //042   ----------------------------------------
 BYTE   W96
//  #10 //043   ----------------------------------------
 BYTE   W96
//  #10 //044   ----------------------------------------
 BYTE   W96
//  #10 //045   ----------------------------------------
 BYTE   W96
//  #10 //046   ----------------------------------------
 BYTE   W96
//  #10 //047   ----------------------------------------
 BYTE   W96
//  #10 //048   ----------------------------------------
 BYTE   W96
//  #10 //049   ----------------------------------------
 BYTE   W96
//  #10 //050   ----------------------------------------
 BYTE   W96
//  #10 //051   ----------------------------------------
 BYTE   W96
//  #10 //052   ----------------------------------------
 BYTE   W96
//  #10 //053   ----------------------------------------
 BYTE   W96
//  #10 //054   ----------------------------------------
 BYTE   W96
//  #10 //055   ----------------------------------------
 BYTE   W96
//  #10 //056   ----------------------------------------
 BYTE   W96
//  #10 //057   ----------------------------------------
 BYTE   W96
//  #10 //058   ----------------------------------------
 BYTE   W96
//  #10 //059   ----------------------------------------
 BYTE   W96
//  #10 //060   ----------------------------------------
 BYTE   W96
//  #10 //061   ----------------------------------------
 BYTE   W96
//  #10 //062   ----------------------------------------
 BYTE   W96
//  #10 //063   ----------------------------------------
 BYTE   W96
//  #10 //064   ----------------------------------------
 BYTE   W96
//  #10 //065   ----------------------------------------
 BYTE   W96
//  #10 //066   ----------------------------------------
 BYTE   W96
//  #10 //067   ----------------------------------------
 BYTE   W96
//  #10 //068   ----------------------------------------
 BYTE   W96
//  #10 //069   ----------------------------------------
 BYTE   W96
//  #10 //070   ----------------------------------------
 BYTE   W96
//  #10 //071   ----------------------------------------
 BYTE   W96
//  #10 //072   ----------------------------------------
 BYTE   W96
//  #10 //073   ----------------------------------------
 BYTE   W96
//  #10 //074   ----------------------------------------
 BYTE   W96
//  #10 //075   ----------------------------------------
 BYTE   W96
//  #10 //076   ----------------------------------------
 BYTE   W96
//  #10 //077   ----------------------------------------
 BYTE   W96
//  #10 //078   ----------------------------------------
 BYTE   W96
//  #10 //079   ----------------------------------------
 BYTE   W96
//  #10 //080   ----------------------------------------
 BYTE   W96
//  #10 //081   ----------------------------------------
 BYTE   W96
//  #10 //082   ----------------------------------------
 BYTE   W96
//  #10 //083   ----------------------------------------
 BYTE   W96
//  #10 //084   ----------------------------------------
 BYTE   W96
//  #10 //085   ----------------------------------------
 BYTE   W96
//  #10 //086   ----------------------------------------
 BYTE   W96
//  #10 //087   ----------------------------------------
 BYTE   W96
//  #10 //088   ----------------------------------------
 BYTE   W96
//  #10 //089   ----------------------------------------
 BYTE   W96
//  #10 //090   ----------------------------------------
Label_015B05E2:
 BYTE   N32  Gs3  v064
 BYTE   W36
 BYTE   N11  Fs3
 BYTE   W12
 BYTE   Gs3
 BYTE   W12
 BYTE   An3
 BYTE   W12
 BYTE   N23  Bn3
 BYTE   W24
 BYTE   PEND 
//  #10 //091   ----------------------------------------
Label_015B05F1:
 BYTE   W24
 BYTE   N23  Cs4  v064
 BYTE   W24
 BYTE   N11  Bn3
 BYTE   W12
 BYTE   Cs4
 BYTE   W12
 BYTE   N23  Ds4
 BYTE   W24
 BYTE   PEND 
//  #10 //092   ----------------------------------------
Label_015B05FF:
 BYTE   W24
 BYTE   N23  En4  v064
 BYTE   W24
 BYTE   N11  Ds4
 BYTE   W12
 BYTE   Cs4
 BYTE   W12
 BYTE   N23  Bn3
 BYTE   W24
 BYTE   PEND 
//  #10 //093   ----------------------------------------
 BYTE   W96
//  #10 //094   ----------------------------------------
 BYTE   PATT
  POIN2 Label_015B05E2
//  #10 //095   ----------------------------------------
 BYTE   PATT
  POIN2 Label_015B05F1
//  #10 //096   ----------------------------------------
 BYTE   PATT
  POIN2 Label_015B05FF
//  #10 //097   ----------------------------------------
 BYTE   W96
//  #10 //098   ----------------------------------------
 BYTE   W96
//  #10 //099   ----------------------------------------
 BYTE   W96
//  #10 //100   ----------------------------------------
 BYTE   W96
//  #10 //101   ----------------------------------------
 BYTE   W96
//  #10 //102   ----------------------------------------
 BYTE   W96
//  #10 //103   ----------------------------------------
 BYTE   W96
//  #10 //104   ----------------------------------------
 BYTE   W96
//  #10 //105   ----------------------------------------
 BYTE   W96
//  #10 //106   ----------------------------------------
 BYTE   W96
//  #10 //107   ----------------------------------------
 BYTE   W96
//  #10 //108   ----------------------------------------
 BYTE   W96
//  #10 //109   ----------------------------------------
 BYTE   W96
//  #10 //110   ----------------------------------------
 BYTE   W96
//  #10 //111   ----------------------------------------
 BYTE   W96
//  #10 //112   ----------------------------------------
 BYTE   GoTo
  POIN2 Label_015B057E
//  #10 //113   ----------------------------------------
 BYTE   W96
//  #10 //114   ----------------------------------------
 BYTE   W96
 BYTE   FINE

//**************** Track 11 (Midi-Chn.10) ****************//

Shackled_011:
//  #11 //000   ----------------------------------------
 BYTE   KEYSH   Shackled_key+0
Label_015B0652:
 BYTE   VOICE   46
 BYTE   VOL   47*Shackled_mvl/mxv
 BYTE   PAN   c_v+0
 BYTE   VOL   47*Shackled_mvl/mxv
 BYTE   PAN   c_v+0
 BYTE   W96
//  #11 //001   ----------------------------------------
 BYTE   W96
//  #11 //002   ----------------------------------------
 BYTE   W96
//  #11 //003   ----------------------------------------
 BYTE   W96
//  #11 //004   ----------------------------------------
 BYTE   W96
//  #11 //005   ----------------------------------------
 BYTE   W96
//  #11 //006   ----------------------------------------
 BYTE   W96
//  #11 //007   ----------------------------------------
 BYTE   W48
 BYTE   N01  Gn2  v036
 BYTE   N01  Gs2
 BYTE   W01
 BYTE   An2
 BYTE   W02
 BYTE   As2
 BYTE   N01  Bn2
 BYTE   W01
 BYTE   Cn3
 BYTE   W02
 BYTE   Cs3
 BYTE   N01  Dn3
 BYTE   W01
 BYTE   Ds3
 BYTE   W02
 BYTE   En3
 BYTE   N01  Fn3
 BYTE   W01
 BYTE   Fs3
 BYTE   W02
 BYTE   Gn3
 BYTE   N01  Gs3
 BYTE   W01
 BYTE   An3
 BYTE   W02
 BYTE   As3
 BYTE   N01  Bn3
 BYTE   W01
 BYTE   Cn4
 BYTE   W02
 BYTE   Cs4
 BYTE   N01  Dn4
 BYTE   W01
 BYTE   Ds4
 BYTE   W02
 BYTE   En4
 BYTE   N01  Fn4
 BYTE   W01
 BYTE   Fs4
 BYTE   W02
 BYTE   N23  Gn4
 BYTE   W24
//  #11 //008   ----------------------------------------
 BYTE   W96
//  #11 //009   ----------------------------------------
 BYTE   W96
//  #11 //010   ----------------------------------------
 BYTE   W96
//  #11 //011   ----------------------------------------
 BYTE   W96
//  #11 //012   ----------------------------------------
 BYTE   W96
//  #11 //013   ----------------------------------------
 BYTE   W96
//  #11 //014   ----------------------------------------
 BYTE   W96
//  #11 //015   ----------------------------------------
 BYTE   W48
 BYTE   N01  As4  v080
 BYTE   W01
 BYTE   An4
 BYTE   W01
 BYTE   Gs4
 BYTE   W01
 BYTE   Gn4
 BYTE   W02
 BYTE   Fs4
 BYTE   W01
 BYTE   Fn4
 BYTE   W01
 BYTE   En4
 BYTE   W02
 BYTE   Ds4
 BYTE   W01
 BYTE   Dn4
 BYTE   W01
 BYTE   Cs4
 BYTE   W01
 BYTE   Cn4
 BYTE   W02
 BYTE   Bn3
 BYTE   W01
 BYTE   As3
 BYTE   W01
 BYTE   An3
 BYTE   W02
 BYTE   Gs3
 BYTE   W01
 BYTE   Gn3
 BYTE   W01
 BYTE   Fs3
 BYTE   W02
 BYTE   Fn3
 BYTE   W01
 BYTE   En3
 BYTE   W01
 BYTE   Ds3
 BYTE   W01
 BYTE   Dn3
 BYTE   W02
 BYTE   Cs3
 BYTE   W01
 BYTE   Cn3
 BYTE   W01
 BYTE   Bn2
 BYTE   W02
 BYTE   As2
 BYTE   W01
 BYTE   An2
 BYTE   W01
 BYTE   N02  Gs2
 BYTE   W03
 BYTE   N11  Gn2
 BYTE   W12
//  #11 //016   ----------------------------------------
 BYTE   W96
//  #11 //017   ----------------------------------------
 BYTE   W96
//  #11 //018   ----------------------------------------
 BYTE   W96
//  #11 //019   ----------------------------------------
 BYTE   W96
//  #11 //020   ----------------------------------------
 BYTE   W96
//  #11 //021   ----------------------------------------
 BYTE   W96
//  #11 //022   ----------------------------------------
 BYTE   W96
//  #11 //023   ----------------------------------------
 BYTE   W96
//  #11 //024   ----------------------------------------
 BYTE   W96
//  #11 //025   ----------------------------------------
 BYTE   W96
//  #11 //026   ----------------------------------------
 BYTE   W96
//  #11 //027   ----------------------------------------
 BYTE   W96
//  #11 //028   ----------------------------------------
 BYTE   W96
//  #11 //029   ----------------------------------------
 BYTE   W96
//  #11 //030   ----------------------------------------
 BYTE   W96
//  #11 //031   ----------------------------------------
 BYTE   W96
//  #11 //032   ----------------------------------------
 BYTE   W96
//  #11 //033   ----------------------------------------
 BYTE   W96
//  #11 //034   ----------------------------------------
 BYTE   W96
//  #11 //035   ----------------------------------------
 BYTE   W96
//  #11 //036   ----------------------------------------
 BYTE   W96
//  #11 //037   ----------------------------------------
 BYTE   W96
//  #11 //038   ----------------------------------------
 BYTE   W96
//  #11 //039   ----------------------------------------
 BYTE   W96
//  #11 //040   ----------------------------------------
 BYTE   W96
//  #11 //041   ----------------------------------------
 BYTE   W96
//  #11 //042   ----------------------------------------
 BYTE   W96
//  #11 //043   ----------------------------------------
 BYTE   W96
//  #11 //044   ----------------------------------------
 BYTE   W96
//  #11 //045   ----------------------------------------
 BYTE   W96
//  #11 //046   ----------------------------------------
 BYTE   W96
//  #11 //047   ----------------------------------------
 BYTE   W96
//  #11 //048   ----------------------------------------
 BYTE   W96
//  #11 //049   ----------------------------------------
 BYTE   W96
//  #11 //050   ----------------------------------------
 BYTE   W96
//  #11 //051   ----------------------------------------
 BYTE   W96
//  #11 //052   ----------------------------------------
 BYTE   W96
//  #11 //053   ----------------------------------------
 BYTE   W96
//  #11 //054   ----------------------------------------
 BYTE   W96
//  #11 //055   ----------------------------------------
 BYTE   W96
//  #11 //056   ----------------------------------------
 BYTE   W96
//  #11 //057   ----------------------------------------
 BYTE   W96
//  #11 //058   ----------------------------------------
 BYTE   W96
//  #11 //059   ----------------------------------------
 BYTE   W96
//  #11 //060   ----------------------------------------
 BYTE   W96
//  #11 //061   ----------------------------------------
 BYTE   W96
//  #11 //062   ----------------------------------------
 BYTE   W96
//  #11 //063   ----------------------------------------
 BYTE   W96
//  #11 //064   ----------------------------------------
 BYTE   W96
//  #11 //065   ----------------------------------------
 BYTE   W96
//  #11 //066   ----------------------------------------
 BYTE   W96
//  #11 //067   ----------------------------------------
 BYTE   W96
//  #11 //068   ----------------------------------------
 BYTE   W96
//  #11 //069   ----------------------------------------
 BYTE   W96
//  #11 //070   ----------------------------------------
 BYTE   W96
//  #11 //071   ----------------------------------------
 BYTE   W96
//  #11 //072   ----------------------------------------
 BYTE   W96
//  #11 //073   ----------------------------------------
 BYTE   W96
//  #11 //074   ----------------------------------------
 BYTE   W96
//  #11 //075   ----------------------------------------
 BYTE   W96
//  #11 //076   ----------------------------------------
 BYTE   W96
//  #11 //077   ----------------------------------------
 BYTE   W96
//  #11 //078   ----------------------------------------
 BYTE   W96
//  #11 //079   ----------------------------------------
 BYTE   W96
//  #11 //080   ----------------------------------------
 BYTE   W96
//  #11 //081   ----------------------------------------
 BYTE   W96
//  #11 //082   ----------------------------------------
 BYTE   W96
//  #11 //083   ----------------------------------------
 BYTE   W96
//  #11 //084   ----------------------------------------
 BYTE   W96
//  #11 //085   ----------------------------------------
 BYTE   W96
//  #11 //086   ----------------------------------------
 BYTE   W96
//  #11 //087   ----------------------------------------
 BYTE   W96
//  #11 //088   ----------------------------------------
 BYTE   W96
//  #11 //089   ----------------------------------------
 BYTE   W96
//  #11 //090   ----------------------------------------
 BYTE   W96
//  #11 //091   ----------------------------------------
 BYTE   W96
//  #11 //092   ----------------------------------------
 BYTE   W96
//  #11 //093   ----------------------------------------
 BYTE   W96
//  #11 //094   ----------------------------------------
 BYTE   W96
//  #11 //095   ----------------------------------------
 BYTE   W96
//  #11 //096   ----------------------------------------
 BYTE   W96
//  #11 //097   ----------------------------------------
 BYTE   W96
//  #11 //098   ----------------------------------------
 BYTE   W96
//  #11 //099   ----------------------------------------
 BYTE   W96
//  #11 //100   ----------------------------------------
 BYTE   W96
//  #11 //101   ----------------------------------------
 BYTE   W96
//  #11 //102   ----------------------------------------
 BYTE   W96
//  #11 //103   ----------------------------------------
 BYTE   W96
//  #11 //104   ----------------------------------------
 BYTE   W96
//  #11 //105   ----------------------------------------
 BYTE   W96
//  #11 //106   ----------------------------------------
 BYTE   W96
//  #11 //107   ----------------------------------------
 BYTE   W96
//  #11 //108   ----------------------------------------
 BYTE   W96
//  #11 //109   ----------------------------------------
 BYTE   W96
//  #11 //110   ----------------------------------------
 BYTE   W96
//  #11 //111   ----------------------------------------
 BYTE   W96
//  #11 //112   ----------------------------------------
 BYTE   GoTo
  POIN2 Label_015B0652
//  #11 //113   ----------------------------------------
 BYTE   W96
//  #11 //114   ----------------------------------------
 BYTE   W96
 BYTE   FINE

//**************** Track 12 (Midi-Chn.11) ****************//

Shackled_012:
//  #12 //000   ----------------------------------------
 BYTE   KEYSH   Shackled_key+0
Label_018870C2:
 BYTE   VOICE   40
 BYTE   VOL   56*Shackled_mvl/mxv
 BYTE   PAN   c_v+0
 BYTE   VOL   47*Shackled_mvl/mxv
 BYTE   PAN   c_v+0
 BYTE   N11  Gn1  v080
 BYTE   W36
 BYTE   N11
 BYTE   W36
 BYTE   N11
 BYTE   W24
//  #12 //001   ----------------------------------------
Label_018870D4:
 BYTE   W12
 BYTE   N11  Gn1  v080
 BYTE   W36
 BYTE   N11
 BYTE   W24
 BYTE   N11
 BYTE   W24
 BYTE   PEND 
//  #12 //002   ----------------------------------------
 BYTE   As1
 BYTE   W36
 BYTE   Gn1
 BYTE   W36
 BYTE   N11
 BYTE   W24
//  #12 //003   ----------------------------------------
 BYTE   PATT
  POIN2 Label_018870D4
//  #12 //004   ----------------------------------------
 BYTE   N11  Gn1  v080
 BYTE   W06
 BYTE   W30
 BYTE   Gn1  v084
 BYTE   W17
 BYTE   W19
 BYTE   N11
 BYTE   W04
 BYTE   W20
//  #12 //005   ----------------------------------------
 BYTE   W04
 BYTE   W08
 BYTE   N11
 BYTE   W16
 BYTE   W20
 BYTE   Gn1  v088
 BYTE   W03
 BYTE   W21
 BYTE   N11
 BYTE   W03
 BYTE   W21
//  #12 //006   ----------------------------------------
 BYTE   As1
 BYTE   W02
 BYTE   W24
 BYTE   W10
 BYTE   Gn1  v092
 BYTE   W14
 BYTE   W22
 BYTE   N11
 BYTE   W01
 BYTE   W23
//  #12 //007   ----------------------------------------
 BYTE   W01
 BYTE   W11
 BYTE   N11
 BYTE   W12
 BYTE   W24
 BYTE   Gn1  v096
 BYTE   W24
 BYTE   N11
 BYTE   W23
 BYTE   W01
//  #12 //008   ----------------------------------------
Label_01887117:
 BYTE   N11  Gn1  v096
 BYTE   W36
 BYTE   N11
 BYTE   W36
 BYTE   N11
 BYTE   W24
 BYTE   PEND 
//  #12 //009   ----------------------------------------
Label_01887120:
 BYTE   N11  As1  v096
 BYTE   W36
 BYTE   N11
 BYTE   W36
 BYTE   N11
 BYTE   W24
 BYTE   PEND 
//  #12 //010   ----------------------------------------
Label_01887129:
 BYTE   N11  Fn1  v096
 BYTE   W36
 BYTE   N11
 BYTE   W36
 BYTE   N11
 BYTE   W24
 BYTE   PEND 
//  #12 //011   ----------------------------------------
Label_01887132:
 BYTE   N11  Ds1  v096
 BYTE   W36
 BYTE   N11
 BYTE   W36
 BYTE   N11
 BYTE   W24
 BYTE   PEND 
//  #12 //012   ----------------------------------------
 BYTE   PATT
  POIN2 Label_01887117
//  #12 //013   ----------------------------------------
 BYTE   PATT
  POIN2 Label_01887120
//  #12 //014   ----------------------------------------
 BYTE   N11  Cn2  v096
 BYTE   W36
 BYTE   N11
 BYTE   W36
 BYTE   N11
 BYTE   W24
//  #12 //015   ----------------------------------------
 BYTE   Ds2
 BYTE   W36
 BYTE   N11
 BYTE   W36
 BYTE   N11
 BYTE   W24
//  #12 //016   ----------------------------------------
 BYTE   PATT
  POIN2 Label_01887117
//  #12 //017   ----------------------------------------
 BYTE   PATT
  POIN2 Label_01887120
//  #12 //018   ----------------------------------------
 BYTE   PATT
  POIN2 Label_01887129
//  #12 //019   ----------------------------------------
 BYTE   PATT
  POIN2 Label_01887132
//  #12 //020   ----------------------------------------
 BYTE   N11  Cn1  v096
 BYTE   W36
 BYTE   N11
 BYTE   W36
 BYTE   N23  Dn1
 BYTE   W24
//  #12 //021   ----------------------------------------
 BYTE   W36
 BYTE   N11
 BYTE   W36
 BYTE   N11
 BYTE   W24
//  #12 //022   ----------------------------------------
 BYTE   PATT
  POIN2 Label_01887132
//  #12 //023   ----------------------------------------
 BYTE   W12
 BYTE   N11  Ds1  v096
 BYTE   W36
 BYTE   N11
 BYTE   W24
 BYTE   N23  Fn1
 BYTE   W24
//  #12 //024   ----------------------------------------
Label_01887184:
 BYTE   N11  Gn1  v096
 BYTE   W36
 BYTE   N11
 BYTE   W24
 BYTE   N11
 BYTE   W12
 BYTE   N11
 BYTE   W24
 BYTE   PEND 
//  #12 //025   ----------------------------------------
Label_0188718F:
 BYTE   W12
 BYTE   N11  Gn1  v096
 BYTE   W24
 BYTE   N11
 BYTE   W12
 BYTE   N11
 BYTE   W24
 BYTE   N11
 BYTE   W24
 BYTE   PEND 
//  #12 //026   ----------------------------------------
Label_0188719B:
 BYTE   N11  As1  v096
 BYTE   W36
 BYTE   Gn1
 BYTE   W24
 BYTE   N11
 BYTE   W12
 BYTE   N11
 BYTE   W24
 BYTE   PEND 
//  #12 //027   ----------------------------------------
 BYTE   PATT
  POIN2 Label_0188718F
//  #12 //028   ----------------------------------------
 BYTE   PATT
  POIN2 Label_01887184
//  #12 //029   ----------------------------------------
 BYTE   PATT
  POIN2 Label_0188718F
//  #12 //030   ----------------------------------------
 BYTE   PATT
  POIN2 Label_0188719B
//  #12 //031   ----------------------------------------
 BYTE   PATT
  POIN2 Label_0188718F
//  #12 //032   ----------------------------------------
 BYTE   N80  Ds1  v080
 BYTE   W84
 BYTE   TIE  Fn1
 BYTE   W12
//  #12 //033   ----------------------------------------
 BYTE   W92
 BYTE   W03
 BYTE   EOT
 BYTE   W01
//  #12 //034   ----------------------------------------
 BYTE   N80  Gn1
 BYTE   W84
 BYTE   TIE  Dn1
 BYTE   W12
//  #12 //035   ----------------------------------------
 BYTE   W92
 BYTE   W03
 BYTE   EOT
 BYTE   W01
//  #12 //036   ----------------------------------------
 BYTE   N80  Cn1
 BYTE   W84
 BYTE   N56  Dn1
 BYTE   W12
//  #12 //037   ----------------------------------------
 BYTE   W48
 BYTE   N44  Fs1
 BYTE   W48
//  #12 //038   ----------------------------------------
 BYTE   N80  Gn1
 BYTE   W84
 BYTE   N56  Fn1
 BYTE   W12
//  #12 //039   ----------------------------------------
 BYTE   W48
 BYTE   N44  En1
 BYTE   W48
//  #12 //040   ----------------------------------------
 BYTE   N80  Ds1
 BYTE   W84
 BYTE   TIE
 BYTE   W12
//  #12 //041   ----------------------------------------
 BYTE   W92
 BYTE   W03
 BYTE   EOT
 BYTE   W01
//  #12 //042   ----------------------------------------
 BYTE   N80  Dn1
 BYTE   W84
 BYTE   TIE  Gn1
 BYTE   W12
//  #12 //043   ----------------------------------------
 BYTE   W92
 BYTE   W03
 BYTE   EOT
 BYTE   W01
//  #12 //044   ----------------------------------------
 BYTE   N80  Cn1
 BYTE   W84
 BYTE   TIE  Dn1
 BYTE   W12
//  #12 //045   ----------------------------------------
 BYTE   W92
 BYTE   W03
 BYTE   EOT
 BYTE   W01
//  #12 //046   ----------------------------------------
 BYTE   TIE  Ds1
 BYTE   W96
//  #12 //047   ----------------------------------------
 BYTE   W92
 BYTE   W03
 BYTE   EOT
 BYTE   W01
//  #12 //048   ----------------------------------------
 BYTE   N11  As1
 BYTE   W36
 BYTE   Cs2
 BYTE   W36
 BYTE   Dn2
 BYTE   W24
//  #12 //049   ----------------------------------------
 BYTE   W12
 BYTE   Gn1
 BYTE   W36
 BYTE   N23  Cn2
 BYTE   W48
//  #12 //050   ----------------------------------------
 BYTE   N11  Gn1
 BYTE   W36
 BYTE   Cn2
 BYTE   W36
 BYTE   Ds2
 BYTE   W24
//  #12 //051   ----------------------------------------
 BYTE   W12
 BYTE   N11
 BYTE   W36
 BYTE   N23  Dn2
 BYTE   W48
//  #12 //052   ----------------------------------------
 BYTE   N11  Ds2
 BYTE   W36
 BYTE   Fn2
 BYTE   W36
 BYTE   Gn2
 BYTE   W24
//  #12 //053   ----------------------------------------
 BYTE   W12
 BYTE   Gn1
 BYTE   W36
 BYTE   N23  Bn1
 BYTE   W48
//  #12 //054   ----------------------------------------
 BYTE   N11  As1
 BYTE   W36
 BYTE   N11
 BYTE   W36
 BYTE   N11
 BYTE   W24
//  #12 //055   ----------------------------------------
 BYTE   W12
 BYTE   An1
 BYTE   W24
 BYTE   N11
 BYTE   W12
 BYTE   Gn1
 BYTE   W12
 BYTE   An1
 BYTE   W12
 BYTE   Gn1
 BYTE   W12
 BYTE   Cn1
 BYTE   W12
//  #12 //056   ----------------------------------------
Label_01887247:
 BYTE   W24
 BYTE   N11  Ds1  v080
 BYTE   N11  Ds2
 BYTE   W36
 BYTE   N05  Ds1
 BYTE   N05  Ds2
 BYTE   W24
 BYTE   Ds1
 BYTE   N05  Ds2
 BYTE   W12
 BYTE   PEND 
//  #12 //057   ----------------------------------------
 BYTE   N11  Ds1
 BYTE   N11  Ds2
 BYTE   W24
 BYTE   N05  Ds1
 BYTE   N05  Ds2
 BYTE   W12
 BYTE   Ds1
 BYTE   N05  Ds2
 BYTE   W24
 BYTE   Ds1
 BYTE   N05  Ds2
 BYTE   W12
 BYTE   N11  Fn1
 BYTE   N11  Fn2
 BYTE   W24
//  #12 //058   ----------------------------------------
 BYTE   W24
 BYTE   Gn1
 BYTE   N11  Gn2
 BYTE   W36
 BYTE   N05  Gn1
 BYTE   N05  Gn2
 BYTE   W24
 BYTE   Gn1
 BYTE   N05  Gn2
 BYTE   W12
//  #12 //059   ----------------------------------------
 BYTE   N11  Gn1
 BYTE   N11  Gn2
 BYTE   W24
 BYTE   N05  Gn1
 BYTE   N05  Gn2
 BYTE   W12
 BYTE   Gn1
 BYTE   N05  Gn2
 BYTE   W24
 BYTE   Gn1
 BYTE   N05  Gn2
 BYTE   W12
 BYTE   N11  Dn1
 BYTE   N11  Dn2
 BYTE   W24
//  #12 //060   ----------------------------------------
 BYTE   PATT
  POIN2 Label_01887247
//  #12 //061   ----------------------------------------
 BYTE   N11  Ds1  v080
 BYTE   N11  Ds2
 BYTE   W24
 BYTE   N05  Ds1
 BYTE   N05  Ds2
 BYTE   W12
 BYTE   Ds1
 BYTE   N05  Ds2
 BYTE   W24
 BYTE   Ds1
 BYTE   N05  Ds2
 BYTE   W12
 BYTE   Fn1
 BYTE   N05  Fn2
 BYTE   W24
//  #12 //062   ----------------------------------------
 BYTE   N11  Gn1
 BYTE   N11  Gn2
 BYTE   W36
 BYTE   N05  Gn1
 BYTE   N05  Gn2
 BYTE   W12
 BYTE   Gn1
 BYTE   N05  Gn2
 BYTE   W24
 BYTE   N11  Gn1
 BYTE   N11  Gn2
 BYTE   W24
//  #12 //063   ----------------------------------------
 BYTE   Fn1
 BYTE   N11  Fn2
 BYTE   W24
 BYTE   Fn1
 BYTE   N11  Fn2
 BYTE   W24
 BYTE   En1
 BYTE   N11  En2
 BYTE   W24
 BYTE   En1
 BYTE   N11  En2
 BYTE   W24
//  #12 //064   ----------------------------------------
 BYTE   W24
 BYTE   Fs1
 BYTE   N11  Fs2
 BYTE   W36
 BYTE   N05  Fs1
 BYTE   N05  Fs2
 BYTE   W24
 BYTE   Fs1
 BYTE   N05  Fs2
 BYTE   W12
//  #12 //065   ----------------------------------------
 BYTE   N11  Fs1
 BYTE   N11  Fs2
 BYTE   W24
 BYTE   Fs1
 BYTE   N11  Fs2
 BYTE   W24
 BYTE   Fs1
 BYTE   N11  Fs2
 BYTE   W24
 BYTE   N23  Gs1
 BYTE   N23  Gs2
 BYTE   W24
//  #12 //066   ----------------------------------------
 BYTE   N11  As1
 BYTE   N11  As2
 BYTE   W24
 BYTE   As1
 BYTE   N11  As2
 BYTE   W24
 BYTE   As1
 BYTE   N11  As2
 BYTE   W24
 BYTE   As1
 BYTE   N11  As2
 BYTE   W24
//  #12 //067   ----------------------------------------
 BYTE   Cn2
 BYTE   N11  Cn3
 BYTE   W24
 BYTE   Cn2
 BYTE   N11  Cn3
 BYTE   W24
 BYTE   Cs2
 BYTE   N11  Cs3
 BYTE   W24
 BYTE   Cs2
 BYTE   N11  Cs3
 BYTE   W24
//  #12 //068   ----------------------------------------
 BYTE   PATT
  POIN2 Label_01887247
//  #12 //069   ----------------------------------------
 BYTE   N11  Fn1  v080
 BYTE   N11  Fn2
 BYTE   W36
 BYTE   Fn1
 BYTE   N11  Fn2
 BYTE   W24
 BYTE   N05  Fn1
 BYTE   N05  Fn2
 BYTE   W12
 BYTE   N11  Gs1
 BYTE   N11  Gs2
 BYTE   W24
//  #12 //070   ----------------------------------------
 BYTE   As1
 BYTE   N11  As2
 BYTE   W36
 BYTE   N05  As1
 BYTE   N05  As2
 BYTE   W12
 BYTE   As1
 BYTE   N05  As2
 BYTE   W24
 BYTE   N11  As1
 BYTE   N11  As2
 BYTE   W24
//  #12 //071   ----------------------------------------
 BYTE   W12
 BYTE   N05  As1
 BYTE   N05  As2
 BYTE   W12
 BYTE   As1
 BYTE   N05  As2
 BYTE   W24
 BYTE   N11  Gs1
 BYTE   N11  Gs2
 BYTE   W24
 BYTE   Gs1
 BYTE   N11  Gs2
 BYTE   W24
//  #12 //072   ----------------------------------------
 BYTE   Fs1
 BYTE   N11  Fs2
 BYTE   W36
 BYTE   Ds1
 BYTE   N11  Ds2
 BYTE   W36
 BYTE   Fn1
 BYTE   N11  Fn2
 BYTE   W24
//  #12 //073   ----------------------------------------
 BYTE   W12
 BYTE   Fn1
 BYTE   N11  Fn2
 BYTE   W36
 BYTE   Fn1
 BYTE   N11  Fn2
 BYTE   W24
 BYTE   Fn1
 BYTE   N11  Fn2
 BYTE   W24
//  #12 //074   ----------------------------------------
Label_0188736B:
 BYTE   N44  Fs1  v080
 BYTE   W84
 BYTE   N11
 BYTE   W12
 BYTE   PEND 
//  #12 //075   ----------------------------------------
 BYTE   W96
//  #12 //076   ----------------------------------------
 BYTE   PATT
  POIN2 Label_0188736B
//  #12 //077   ----------------------------------------
 BYTE   W96
//  #12 //078   ----------------------------------------
 BYTE   PATT
  POIN2 Label_0188736B
//  #12 //079   ----------------------------------------
 BYTE   W96
//  #12 //080   ----------------------------------------
 BYTE   PATT
  POIN2 Label_0188736B
//  #12 //081   ----------------------------------------
 BYTE   W96
//  #12 //082   ----------------------------------------
Label_01887385:
 BYTE   N44  As0  v080
 BYTE   W48
 BYTE   N32  Cs1
 BYTE   W36
 BYTE   TIE  Ds1
 BYTE   W12
 BYTE   PEND 
//  #12 //083   ----------------------------------------
 BYTE   W92
 BYTE   W03
 BYTE   EOT
 BYTE   W01
//  #12 //084   ----------------------------------------
Label_01887394:
 BYTE   N44  As0  v080
 BYTE   W48
 BYTE   N32  Cs1
 BYTE   W36
 BYTE   Ds1
 BYTE   W12
 BYTE   PEND 
//  #12 //085   ----------------------------------------
Label_0188739E:
 BYTE   W24
 BYTE   N11  Cs1  v080
 BYTE   W12
 BYTE   N44  Ds1
 BYTE   W60
 BYTE   PEND 
//  #12 //086   ----------------------------------------
 BYTE   PATT
  POIN2 Label_01887385
//  #12 //087   ----------------------------------------
 BYTE   W92
 BYTE   W03
 BYTE   EOT
 BYTE   Ds1
 BYTE   W01
//  #12 //088   ----------------------------------------
 BYTE   PATT
  POIN2 Label_01887394
//  #12 //089   ----------------------------------------
 BYTE   PATT
  POIN2 Label_0188739E
//  #12 //090   ----------------------------------------
 BYTE   W96
//  #12 //091   ----------------------------------------
 BYTE   W96
//  #12 //092   ----------------------------------------
 BYTE   W96
//  #12 //093   ----------------------------------------
 BYTE   W96
//  #12 //094   ----------------------------------------
 BYTE   W96
//  #12 //095   ----------------------------------------
 BYTE   W96
//  #12 //096   ----------------------------------------
 BYTE   W96
//  #12 //097   ----------------------------------------
 BYTE   W96
//  #12 //098   ----------------------------------------
 BYTE   W96
//  #12 //099   ----------------------------------------
 BYTE   W96
//  #12 //100   ----------------------------------------
 BYTE   W96
//  #12 //101   ----------------------------------------
 BYTE   W96
//  #12 //102   ----------------------------------------
 BYTE   W96
//  #12 //103   ----------------------------------------
 BYTE   W96
//  #12 //104   ----------------------------------------
 BYTE   W96
//  #12 //105   ----------------------------------------
 BYTE   N17  Ds1  v080
 BYTE   N17  Ds2
 BYTE   W36
 BYTE   Fn1
 BYTE   N17  Fn2
 BYTE   W36
 BYTE   N23  Fn1
 BYTE   N23  Fn2
 BYTE   W24
//  #12 //106   ----------------------------------------
 BYTE   W12
 BYTE   N32  Dn1
 BYTE   N32  Dn2
 BYTE   W84
//  #12 //107   ----------------------------------------
 BYTE   N17  Cn1
 BYTE   N17  Cn2
 BYTE   W36
 BYTE   Dn1
 BYTE   N17  Dn2
 BYTE   W36
 BYTE   N23  Fn1
 BYTE   N23  Fn2
 BYTE   W24
//  #12 //108   ----------------------------------------
 BYTE   W12
 BYTE   N17  En1
 BYTE   N17  En2
 BYTE   W60
 BYTE   N23  Ds2
 BYTE   N23  Dn3
 BYTE   W24
//  #12 //109   ----------------------------------------
 BYTE   W12
 BYTE   N32  Dn2
 BYTE   N32  Cn3
 BYTE   W72
 BYTE   N28  Cn2
 BYTE   W12
//  #12 //110   ----------------------------------------
 BYTE   W24
 BYTE   N11  Cn1
 BYTE   N11  Cn2
 BYTE   W24
 BYTE   N17  Cn1
 BYTE   N17  Cn2
 BYTE   W36
 BYTE   N28  Dn1
 BYTE   N28  Dn2
 BYTE   W12
//  #12 //111   ----------------------------------------
 BYTE   W24
 BYTE   N23  Gn1
 BYTE   N23  Gn2
 BYTE   W72
//  #12 //112   ----------------------------------------
 BYTE   GoTo
  POIN2 Label_018870C2
//  #12 //113   ----------------------------------------
Label_0188741C:
 BYTE   N05  Gn1  v127
 BYTE   W03
 BYTE   W01
 BYTE   W01
 BYTE   W07
 BYTE   Gn1  v096
 BYTE   W12
 BYTE   N05
 BYTE   W12
 BYTE   Gn1  v127
 BYTE   W03
 BYTE   W01
 BYTE   W01
 BYTE   W07
 BYTE   Gn1  v096
 BYTE   W12
 BYTE   N05
 BYTE   W12
 BYTE   Gn1  v127
 BYTE   W03
 BYTE   W01
 BYTE   W01
 BYTE   W07
 BYTE   Gn1  v096
 BYTE   W12
 BYTE   PEND 
//  #12 //114   ----------------------------------------
 BYTE   PATT
  POIN2 Label_0188741C
 BYTE   FINE

//**************** Track 13 (Midi-Chn.12) ****************//

Shackled_013:
//  #13 //000   ----------------------------------------
 BYTE   KEYSH   Shackled_key+0
Label_01886762:
 BYTE   VOICE   46
 BYTE   VOL   47*Shackled_mvl/mxv
 BYTE   PAN   c_v+0
 BYTE   VOL   56*Shackled_mvl/mxv
 BYTE   PAN   c_v+0
 BYTE   W96
//  #13 //001   ----------------------------------------
 BYTE   W96
//  #13 //002   ----------------------------------------
 BYTE   W96
//  #13 //003   ----------------------------------------
 BYTE   W96
//  #13 //004   ----------------------------------------
 BYTE   W96
//  #13 //005   ----------------------------------------
 BYTE   W96
//  #13 //006   ----------------------------------------
 BYTE   W96
//  #13 //007   ----------------------------------------
 BYTE   W96
//  #13 //008   ----------------------------------------
 BYTE   W96
//  #13 //009   ----------------------------------------
 BYTE   W96
//  #13 //010   ----------------------------------------
 BYTE   W96
//  #13 //011   ----------------------------------------
 BYTE   W96
//  #13 //012   ----------------------------------------
 BYTE   W96
//  #13 //013   ----------------------------------------
 BYTE   W96
//  #13 //014   ----------------------------------------
 BYTE   W96
//  #13 //015   ----------------------------------------
 BYTE   W96
//  #13 //016   ----------------------------------------
 BYTE   W96
//  #13 //017   ----------------------------------------
 BYTE   W96
//  #13 //018   ----------------------------------------
 BYTE   W96
//  #13 //019   ----------------------------------------
 BYTE   W96
//  #13 //020   ----------------------------------------
 BYTE   W96
//  #13 //021   ----------------------------------------
 BYTE   W96
//  #13 //022   ----------------------------------------
 BYTE   W96
//  #13 //023   ----------------------------------------
 BYTE   W96
//  #13 //024   ----------------------------------------
 BYTE   W96
//  #13 //025   ----------------------------------------
 BYTE   W96
//  #13 //026   ----------------------------------------
 BYTE   W96
//  #13 //027   ----------------------------------------
 BYTE   W96
//  #13 //028   ----------------------------------------
 BYTE   W96
//  #13 //029   ----------------------------------------
 BYTE   W96
//  #13 //030   ----------------------------------------
 BYTE   W96
//  #13 //031   ----------------------------------------
 BYTE   W96
//  #13 //032   ----------------------------------------
 BYTE   W96
//  #13 //033   ----------------------------------------
 BYTE   W96
//  #13 //034   ----------------------------------------
 BYTE   W96
//  #13 //035   ----------------------------------------
 BYTE   W96
//  #13 //036   ----------------------------------------
 BYTE   W96
//  #13 //037   ----------------------------------------
 BYTE   W96
//  #13 //038   ----------------------------------------
 BYTE   W96
//  #13 //039   ----------------------------------------
 BYTE   W96
//  #13 //040   ----------------------------------------
 BYTE   W96
//  #13 //041   ----------------------------------------
 BYTE   W96
//  #13 //042   ----------------------------------------
 BYTE   W96
//  #13 //043   ----------------------------------------
 BYTE   W96
//  #13 //044   ----------------------------------------
 BYTE   W96
//  #13 //045   ----------------------------------------
 BYTE   W96
//  #13 //046   ----------------------------------------
 BYTE   W96
//  #13 //047   ----------------------------------------
 BYTE   W48
 BYTE   N05  Gn4  v080
 BYTE   W12
 BYTE   N05
 BYTE   W12
 BYTE   N02
 BYTE   W06
 BYTE   N02
 BYTE   W06
 BYTE   N02
 BYTE   W12
//  #13 //048   ----------------------------------------
 BYTE   W96
//  #13 //049   ----------------------------------------
 BYTE   W96
//  #13 //050   ----------------------------------------
 BYTE   W96
//  #13 //051   ----------------------------------------
 BYTE   W96
//  #13 //052   ----------------------------------------
 BYTE   W96
//  #13 //053   ----------------------------------------
 BYTE   W96
//  #13 //054   ----------------------------------------
 BYTE   W96
//  #13 //055   ----------------------------------------
 BYTE   W96
//  #13 //056   ----------------------------------------
 BYTE   W96
//  #13 //057   ----------------------------------------
 BYTE   W96
//  #13 //058   ----------------------------------------
 BYTE   W96
//  #13 //059   ----------------------------------------
 BYTE   W96
//  #13 //060   ----------------------------------------
 BYTE   W96
//  #13 //061   ----------------------------------------
 BYTE   W96
//  #13 //062   ----------------------------------------
 BYTE   W96
//  #13 //063   ----------------------------------------
 BYTE   W96
//  #13 //064   ----------------------------------------
 BYTE   W96
//  #13 //065   ----------------------------------------
 BYTE   W96
//  #13 //066   ----------------------------------------
 BYTE   W96
//  #13 //067   ----------------------------------------
 BYTE   W96
//  #13 //068   ----------------------------------------
 BYTE   W96
//  #13 //069   ----------------------------------------
 BYTE   W96
//  #13 //070   ----------------------------------------
 BYTE   W96
//  #13 //071   ----------------------------------------
 BYTE   W96
//  #13 //072   ----------------------------------------
 BYTE   W96
//  #13 //073   ----------------------------------------
 BYTE   W96
//  #13 //074   ----------------------------------------
 BYTE   W96
//  #13 //075   ----------------------------------------
 BYTE   TIE  Fn4  v064
 BYTE   W96
//  #13 //076   ----------------------------------------
 BYTE   W01
 BYTE   EOT
 BYTE   W01
 BYTE   N01
 BYTE   W02
 BYTE   N01
 BYTE   W02
 BYTE   N01
 BYTE   W02
 BYTE   N01
 BYTE   W02
 BYTE   N01
 BYTE   W02
 BYTE   N01
 BYTE   W02
 BYTE   N01
 BYTE   W02
 BYTE   N01
 BYTE   W02
 BYTE   N01
 BYTE   W02
 BYTE   N01
 BYTE   W02
 BYTE   N01
 BYTE   W02
 BYTE   N01
 BYTE   W02
 BYTE   N01
 BYTE   W02
 BYTE   N01
 BYTE   W02
 BYTE   N01
 BYTE   W02
 BYTE   N01
 BYTE   W02
 BYTE   N01
 BYTE   W02
 BYTE   N01
 BYTE   W02
 BYTE   N01
 BYTE   W02
 BYTE   N01
 BYTE   W02
 BYTE   N01
 BYTE   W02
 BYTE   N01
 BYTE   W02
 BYTE   N01
 BYTE   W02
 BYTE   N05
 BYTE   W06
 BYTE   N05
 BYTE   W06
 BYTE   N05
 BYTE   W06
 BYTE   N05
 BYTE   W06
 BYTE   N02
 BYTE   W06
 BYTE   N02
 BYTE   W06
 BYTE   N02
 BYTE   W06
 BYTE   N02
 BYTE   W06
//  #13 //077   ----------------------------------------
 BYTE   N05
 BYTE   W12
 BYTE   N11
 BYTE   W24
 BYTE   N11
 BYTE   W24
 BYTE   N11
 BYTE   W24
 BYTE   N17
 BYTE   W12
//  #13 //078   ----------------------------------------
 BYTE   W12
 BYTE   N11
 BYTE   W24
 BYTE   N11
 BYTE   W24
 BYTE   N11
 BYTE   W24
 BYTE   N17
 BYTE   W12
//  #13 //079   ----------------------------------------
 BYTE   W12
 BYTE   N11
 BYTE   W24
 BYTE   N02
 BYTE   W06
 BYTE   N02
 BYTE   W06
 BYTE   N02
 BYTE   W06
 BYTE   N02
 BYTE   W06
 BYTE   N11
 BYTE   W24
 BYTE   N02
 BYTE   W06
 BYTE   N02
 BYTE   W06
//  #13 //080   ----------------------------------------
 BYTE   N05
 BYTE   W12
 BYTE   N02
 BYTE   W06
 BYTE   N02
 BYTE   W06
 BYTE   N05
 BYTE   W12
 BYTE   N05
 BYTE   W12
 BYTE   N11
 BYTE   W24
 BYTE   N05
 BYTE   W12
 BYTE   N05
 BYTE   W12
//  #13 //081   ----------------------------------------
 BYTE   N01
 BYTE   W02
 BYTE   N01
 BYTE   W02
 BYTE   N01
 BYTE   W02
 BYTE   N01
 BYTE   W02
 BYTE   N01
 BYTE   W02
 BYTE   N01
 BYTE   W02
 BYTE   N01
 BYTE   W02
 BYTE   N01
 BYTE   W02
 BYTE   N01
 BYTE   W02
 BYTE   N01
 BYTE   W02
 BYTE   N01
 BYTE   W02
 BYTE   N01
 BYTE   W02
 BYTE   N01
 BYTE   W02
 BYTE   N01
 BYTE   W02
 BYTE   N01
 BYTE   W02
 BYTE   N01
 BYTE   W02
 BYTE   N01
 BYTE   W02
 BYTE   N01
 BYTE   W02
 BYTE   N01
 BYTE   W02
 BYTE   N01
 BYTE   W02
 BYTE   N01
 BYTE   W02
 BYTE   N01
 BYTE   W02
 BYTE   N01
 BYTE   W02
 BYTE   N01
 BYTE   W02
 BYTE   N01
 BYTE   W02
 BYTE   N01
 BYTE   W02
 BYTE   N01
 BYTE   W02
 BYTE   N01
 BYTE   W02
 BYTE   N01
 BYTE   W02
 BYTE   N01
 BYTE   W02
 BYTE   N01
 BYTE   W02
 BYTE   N01
 BYTE   W02
 BYTE   N01
 BYTE   W02
 BYTE   N01
 BYTE   W02
 BYTE   N01
 BYTE   W02
 BYTE   N01
 BYTE   W02
 BYTE   N02
 BYTE   W06
 BYTE   N02
 BYTE   W06
 BYTE   N02
 BYTE   W06
 BYTE   N02
 BYTE   W06
//  #13 //082   ----------------------------------------
 BYTE   W96
//  #13 //083   ----------------------------------------
 BYTE   W96
//  #13 //084   ----------------------------------------
 BYTE   W96
//  #13 //085   ----------------------------------------
 BYTE   W96
//  #13 //086   ----------------------------------------
 BYTE   W96
//  #13 //087   ----------------------------------------
 BYTE   W96
//  #13 //088   ----------------------------------------
 BYTE   W96
//  #13 //089   ----------------------------------------
 BYTE   W96
//  #13 //090   ----------------------------------------
 BYTE   W96
//  #13 //091   ----------------------------------------
 BYTE   W96
//  #13 //092   ----------------------------------------
 BYTE   W96
//  #13 //093   ----------------------------------------
 BYTE   W96
//  #13 //094   ----------------------------------------
 BYTE   W96
//  #13 //095   ----------------------------------------
 BYTE   W96
//  #13 //096   ----------------------------------------
 BYTE   W96
//  #13 //097   ----------------------------------------
 BYTE   W96
//  #13 //098   ----------------------------------------
 BYTE   W96
//  #13 //099   ----------------------------------------
 BYTE   W96
//  #13 //100   ----------------------------------------
 BYTE   W96
//  #13 //101   ----------------------------------------
 BYTE   W96
//  #13 //102   ----------------------------------------
 BYTE   W96
//  #13 //103   ----------------------------------------
 BYTE   W96
//  #13 //104   ----------------------------------------
 BYTE   W96
//  #13 //105   ----------------------------------------
 BYTE   W96
//  #13 //106   ----------------------------------------
 BYTE   W96
//  #13 //107   ----------------------------------------
 BYTE   W96
//  #13 //108   ----------------------------------------
 BYTE   W96
//  #13 //109   ----------------------------------------
 BYTE   W96
//  #13 //110   ----------------------------------------
 BYTE   W96
//  #13 //111   ----------------------------------------
 BYTE   W96
//  #13 //112   ----------------------------------------
 BYTE   GoTo
  POIN2 Label_01886762
//  #13 //113   ----------------------------------------
 BYTE   W96
//  #13 //114   ----------------------------------------
 BYTE   W96
 BYTE   FINE

//******************************************************//
	ALIGN 4

Shackled:
	BYTE	13	// NumTrks
	BYTE	0	// NumBlks
	BYTE	Shackled_pri	// Priority
	BYTE	Shackled_rev	// Reverb.
    
	POIN2	Shackled_grp
    
	POIN2	Shackled_001
	POIN2	Shackled_002
	POIN2	Shackled_003
	POIN2	Shackled_004
	POIN2	Shackled_005
	POIN2	Shackled_006
	POIN2	Shackled_007
	POIN2	Shackled_008
	POIN2	Shackled_009
	POIN2	Shackled_010
	POIN2	Shackled_011
	POIN2	Shackled_012
	POIN2	Shackled_013

	
