//Event file generated from Sappy .s format.
	#include "MPlayDef.event"

	#define	ShadowOfTheLowland_grp  voicegroup000
	#define	ShadowOfTheLowland_pri  0
	#define	ShadowOfTheLowland_rev  0
	#define	ShadowOfTheLowland_mvl  127
	#define	ShadowOfTheLowland_key  0
	#define	ShadowOfTheLowland_tbs  1
	#define	ShadowOfTheLowland_exg  0
	#define	ShadowOfTheLowland_cmp  1

	// .rodata
	//	ShadowOfTheLowland
	ALIGN 4


//**************** Track 1 (Midi-Chn.0) ****************//

ShadowOfTheLowland_001:
//  #01 //000   ----------------------------------------
 BYTE   KEYSH   ShadowOfTheLowland_key+0
Label_013F76E6:
 BYTE   TEMPO   102*ShadowOfTheLowland_tbs/2
 BYTE   VOICE   52
 BYTE   VOL   29*ShadowOfTheLowland_mvl/mxv
 BYTE   PAN   c_v+0
 BYTE   W48
 BYTE   N44  Dn4  v064
 BYTE   W48
//  #01 //001   ----------------------------------------
Label_013F76F3:
 BYTE   N68  Cn4  v064
 BYTE   W96
 BYTE   PEND 
//  #01 //002   ----------------------------------------
 BYTE   W48
 BYTE   N44  Dn4
 BYTE   W48
//  #01 //003   ----------------------------------------
 BYTE   PATT
  POIN2 Label_013F76F3
//  #01 //004   ----------------------------------------
Label_013F7701:
 BYTE   W48
 BYTE   N44  Dn4  v052
 BYTE   W48
 BYTE   PEND 
//  #01 //005   ----------------------------------------
Label_013F7707:
 BYTE   N68  Cn4  v052
 BYTE   W96
 BYTE   PEND 
//  #01 //006   ----------------------------------------
 BYTE   PATT
  POIN2 Label_013F7701
//  #01 //007   ----------------------------------------
 BYTE   PATT
  POIN2 Label_013F7707
//  #01 //008   ----------------------------------------
 BYTE   PATT
  POIN2 Label_013F7701
//  #01 //009   ----------------------------------------
 BYTE   PATT
  POIN2 Label_013F7707
//  #01 //010   ----------------------------------------
 BYTE   W48
 BYTE   N92  Dn4  v052
 BYTE   W48
//  #01 //011   ----------------------------------------
 BYTE   W48
 BYTE   N44  Cn4
 BYTE   W48
//  #01 //012   ----------------------------------------
 BYTE   W48
 BYTE   N32  Dn4
 BYTE   W36
 BYTE   N11  Cn4
 BYTE   W12
//  #01 //013   ----------------------------------------
 BYTE   N44  Dn4
 BYTE   W48
 BYTE   N15
 BYTE   W16
 BYTE   Cn4
 BYTE   W16
 BYTE   As3
 BYTE   W16
//  #01 //014   ----------------------------------------
 BYTE   W96
//  #01 //015   ----------------------------------------
 BYTE   W96
//  #01 //016   ----------------------------------------
 BYTE   W48
 BYTE   TIE  Dn4
 BYTE   W48
//  #01 //017   ----------------------------------------
 BYTE   W96
//  #01 //018   ----------------------------------------
 BYTE   W96
//  #01 //019   ----------------------------------------
Label_013F7741:
 BYTE   W68
 BYTE   W03
 BYTE   PEND 
 BYTE   EOT
 BYTE   Dn4
 BYTE   W24
 BYTE   W01
//  #01 //020   ----------------------------------------
 BYTE   PATT
  POIN2 Label_013F7701
//  #01 //021   ----------------------------------------
 BYTE   N44  Cn4  v052
 BYTE   W48
 BYTE   An3
 BYTE   W48
//  #01 //022   ----------------------------------------
 BYTE   TIE  Gn3
 BYTE   W96
//  #01 //023   ----------------------------------------
 BYTE   W44
 BYTE   W03
 BYTE   EOT
 BYTE   W01
 BYTE   N44
 BYTE   W48
//  #01 //024   ----------------------------------------
 BYTE   W48
 BYTE   TIE
 BYTE   W48
//  #01 //025   ----------------------------------------
 BYTE   PATT
  POIN2 Label_013F7741
//  #01 //026   ----------------------------------------
 BYTE   EOT
 BYTE   Gn3
 BYTE   W24
 BYTE   W01
//  #01 //027   ----------------------------------------
 BYTE   PATT
  POIN2 Label_013F7701
//  #01 //028   ----------------------------------------
 BYTE   N44  Cn4  v052
 BYTE   W48
 BYTE   Ds4
 BYTE   W48
//  #01 //029   ----------------------------------------
 BYTE   TIE  As3  v064
 BYTE   W96
//  #01 //030   ----------------------------------------
 BYTE   W92
 BYTE   W03
 BYTE   EOT
 BYTE   W01
//  #01 //031   ----------------------------------------
 BYTE   N92  An3
 BYTE   W96
//  #01 //032   ----------------------------------------
 BYTE   N68  Fn3
 BYTE   W72
 BYTE   N23  An3
 BYTE   W24
//  #01 //033   ----------------------------------------
 BYTE   N44  Gn3
 BYTE   W48
 BYTE   Dn4
 BYTE   W48
//  #01 //034   ----------------------------------------
 BYTE   Fn4
 BYTE   W48
 BYTE   Ds4
 BYTE   W48
//  #01 //035   ----------------------------------------
 BYTE   Cn4
 BYTE   W48
 BYTE   N23  An3
 BYTE   W24
 BYTE   Cn4
 BYTE   W24
//  #01 //036   ----------------------------------------
 BYTE   N44  Ds4
 BYTE   W48
 BYTE   Dn4
 BYTE   W48
//  #01 //037   ----------------------------------------
 BYTE   Dn4  v080
 BYTE   W48
 BYTE   N32
 BYTE   W36
 BYTE   N11
 BYTE   W12
//  #01 //038   ----------------------------------------
 BYTE   N15
 BYTE   W16
 BYTE   Cn4
 BYTE   W16
 BYTE   Dn4
 BYTE   W16
 BYTE   N44  Gn3
 BYTE   W48
//  #01 //039   ----------------------------------------
 BYTE   N23  An3
 BYTE   W24
 BYTE   N32  As3
 BYTE   W36
 BYTE   N23  An3
 BYTE   W24
 BYTE   N11  Gn3
 BYTE   W12
//  #01 //040   ----------------------------------------
 BYTE   N32  Fn3
 BYTE   W36
 BYTE   N11
 BYTE   W12
 BYTE   N44  Dn3
 BYTE   W48
//  #01 //041   ----------------------------------------
 BYTE   N92  Gn3  v064
 BYTE   W96
//  #01 //042   ----------------------------------------
 BYTE   N44  Ds3
 BYTE   W48
 BYTE   Fn3
 BYTE   W48
//  #01 //043   ----------------------------------------
 BYTE   Gn3
 BYTE   W48
 BYTE   Gs3
 BYTE   W48
//  #01 //044   ----------------------------------------
 BYTE   N68  Gn3  v052
 BYTE   W72
 BYTE   N23  Ds3
 BYTE   W24
//  #01 //045   ----------------------------------------
 BYTE   N44  Fn3
 BYTE   W48
 BYTE   Gn3
 BYTE   W48
//  #01 //046   ----------------------------------------
 BYTE   Fn3
 BYTE   W48
 BYTE   TIE  Cn4
 BYTE   W48
//  #01 //047   ----------------------------------------
 BYTE   W96
//  #01 //048   ----------------------------------------
 BYTE   W96
//  #01 //049   ----------------------------------------
 BYTE   W92
 BYTE   W03
 BYTE   EOT
 BYTE   W01
//  #01 //050   ----------------------------------------
 BYTE   N92  As3
 BYTE   W96
//  #01 //051   ----------------------------------------
 BYTE   N44  Gn3
 BYTE   W48
 BYTE   Gs3
 BYTE   W48
//  #01 //052   ----------------------------------------
 BYTE   W96
//  #01 //053   ----------------------------------------
 BYTE   N60  Ds4  v080
 BYTE   W48
 BYTE   W16
 BYTE   N15  Dn4
 BYTE   W16
 BYTE   Cn4
 BYTE   W16
//  #01 //054   ----------------------------------------
 BYTE   N44
 BYTE   W48
 BYTE   As3
 BYTE   W48
//  #01 //055   ----------------------------------------
 BYTE   N11
 BYTE   W12
 BYTE   Gn3
 BYTE   W12
 BYTE   N11
 BYTE   W12
 BYTE   TIE
 BYTE   W12
 BYTE   W48
//  #01 //056   ----------------------------------------
 BYTE   W92
 BYTE   W03
 BYTE   EOT
 BYTE   W01
//  #01 //057   ----------------------------------------
 BYTE   N11
 BYTE   W12
 BYTE   N23  As3
 BYTE   W24
 BYTE   N11
 BYTE   W36
 BYTE   TIE
 BYTE   W24
//  #01 //058   ----------------------------------------
 BYTE   W96
//  #01 //059   ----------------------------------------
 BYTE   W03
 BYTE   W03
 BYTE   W03
 BYTE   W03
 BYTE   W03
 BYTE   W03
 BYTE   W03
 BYTE   W03
 BYTE   W03
 BYTE   W03
 BYTE   W03
 BYTE   W03
 BYTE   W03
 BYTE   W03
 BYTE   W03
 BYTE   W03
 BYTE   W03
 BYTE   W03
 BYTE   W03
 BYTE   W03
 BYTE   W03
 BYTE   W03
 BYTE   W03
 BYTE   W03
 BYTE   W03
 BYTE   W03
 BYTE   W03
 BYTE   W03
 BYTE   W03
 BYTE   W03
 BYTE   W03
 BYTE   W02
 BYTE   EOT
 BYTE   W01
//  #01 //060   ----------------------------------------
 BYTE   W96
//  #01 //061   ----------------------------------------
 BYTE   GoTo
  POIN2 Label_013F76E6
//  #01 //062   ----------------------------------------
 BYTE   PATT
  POIN2 Label_013F7701
//  #01 //063   ----------------------------------------
 BYTE   PATT
  POIN2 Label_013F7707
//  #01 //064   ----------------------------------------
 BYTE   PATT
  POIN2 Label_013F7701
//  #01 //065   ----------------------------------------
 BYTE   N68  Cn4  v052
 BYTE   W72
 BYTE   W24
//  #01 //066   ----------------------------------------
 BYTE   TEMPO   44*ShadowOfTheLowland_tbs/2
 BYTE   N92  Dn4  v036
 BYTE   W92
 BYTE   W03
 BYTE   TEMPO   102*ShadowOfTheLowland_tbs/2
 BYTE   FINE

//**************** Track 2 (Midi-Chn.1) ****************//

ShadowOfTheLowland_002:
//  #02 //000   ----------------------------------------
 BYTE   KEYSH   ShadowOfTheLowland_key+0
Label_013F7986:
 BYTE   VOICE   52
 BYTE   VOL   29*ShadowOfTheLowland_mvl/mxv
 BYTE   PAN   c_v+0
 BYTE   N92  Dn3  v064
 BYTE   N44  An3
 BYTE   W48
 BYTE   Gn3
 BYTE   W48
//  #02 //001   ----------------------------------------
Label_013F7994:
 BYTE   N68  Ds3  v064
 BYTE   N68  An3
 BYTE   W96
 BYTE   PEND 
//  #02 //002   ----------------------------------------
 BYTE   N92  Dn3
 BYTE   N44  An3
 BYTE   W48
 BYTE   Gn3
 BYTE   W48
//  #02 //003   ----------------------------------------
 BYTE   PATT
  POIN2 Label_013F7994
//  #02 //004   ----------------------------------------
Label_013F79A7:
 BYTE   N92  Dn3  v052
 BYTE   N44  An3
 BYTE   W48
 BYTE   Gn3
 BYTE   W48
 BYTE   PEND 
//  #02 //005   ----------------------------------------
Label_013F79B0:
 BYTE   N68  Ds3  v052
 BYTE   N68  An3
 BYTE   W96
 BYTE   PEND 
//  #02 //006   ----------------------------------------
 BYTE   PATT
  POIN2 Label_013F79A7
//  #02 //007   ----------------------------------------
 BYTE   PATT
  POIN2 Label_013F79B0
//  #02 //008   ----------------------------------------
 BYTE   PATT
  POIN2 Label_013F79A7
//  #02 //009   ----------------------------------------
 BYTE   PATT
  POIN2 Label_013F79B0
//  #02 //010   ----------------------------------------
 BYTE   N92  Dn3  v052
 BYTE   N44  An3
 BYTE   W48
 BYTE   N92  Gn3
 BYTE   W48
//  #02 //011   ----------------------------------------
 BYTE   N68  Ds3
 BYTE   W48
 BYTE   N44  Fs3
 BYTE   W48
//  #02 //012   ----------------------------------------
 BYTE   TIE  Dn3
 BYTE   TIE  Gn3
 BYTE   W96
//  #02 //013   ----------------------------------------
 BYTE   W96
//  #02 //014   ----------------------------------------
 BYTE   W96
//  #02 //015   ----------------------------------------
Label_013F79E1:
 BYTE   W68
 BYTE   W03
 BYTE   PEND 
 BYTE   EOT
 BYTE   Dn3  v067
 BYTE   W24
 BYTE   W01
//  #02 //016   ----------------------------------------
Label_013F79E9:
 BYTE   TIE  Ds3  v052
 BYTE   TIE  Gn3
 BYTE   W96
 BYTE   PEND 
//  #02 //017   ----------------------------------------
 BYTE   W96
//  #02 //018   ----------------------------------------
 BYTE   W96
//  #02 //019   ----------------------------------------
 BYTE   PATT
  POIN2 Label_013F79E1
//  #02 //020   ----------------------------------------
 BYTE   EOT
 BYTE   Ds3  v067
 BYTE   W24
 BYTE   W01
//  #02 //021   ----------------------------------------
 BYTE   PATT
  POIN2 Label_013F79E9
//  #02 //022   ----------------------------------------
 BYTE   W96
//  #02 //023   ----------------------------------------
 BYTE   W96
//  #02 //024   ----------------------------------------
 BYTE   W44
 BYTE   W03
 BYTE   EOT
 BYTE   Ds3  v067
 BYTE   W01
 BYTE   N44  Cn3  v052
 BYTE   W48
//  #02 //025   ----------------------------------------
 BYTE   W48
 BYTE   TIE  Gn3
 BYTE   W48
//  #02 //026   ----------------------------------------
 BYTE   PATT
  POIN2 Label_013F79E1
//  #02 //027   ----------------------------------------
 BYTE   EOT
 BYTE   Gn3
 BYTE   W24
 BYTE   W01
 BYTE   W48
 BYTE   N44  Dn3  v052
 BYTE   TIE  An3
 BYTE   W48
//  #02 //028   ----------------------------------------
 BYTE   N44  Ds3
 BYTE   W48
 BYTE   Fs3
 BYTE   W44
 BYTE   W03
 BYTE   EOT
 BYTE   An3
 BYTE   W01
//  #02 //029   ----------------------------------------
Label_013F7A2A:
 BYTE   TIE  Gn3  v064
 BYTE   W96
 BYTE   PEND 
//  #02 //030   ----------------------------------------
Label_013F7A2F:
 BYTE   W92
 BYTE   W03
 BYTE   PEND 
 BYTE   EOT
 BYTE   Gn3
 BYTE   W01
//  #02 //031   ----------------------------------------
 BYTE   N92  Fs3  v064
 BYTE   W96
//  #02 //032   ----------------------------------------
 BYTE   N68  Fn3
 BYTE   W72
 BYTE   N23
 BYTE   W24
//  #02 //033   ----------------------------------------
 BYTE   PATT
  POIN2 Label_013F7A2A
//  #02 //034   ----------------------------------------
 BYTE   W96
//  #02 //035   ----------------------------------------
 BYTE   PATT
  POIN2 Label_013F7A2F
//  #02 //036   ----------------------------------------
 BYTE   EOT
 BYTE   Gn3
 BYTE   W01
 BYTE   N92  Fn3  v064
 BYTE   W96
//  #02 //037   ----------------------------------------
 BYTE   N44  An3  v080
 BYTE   W48
 BYTE   Gn3
 BYTE   W48
//  #02 //038   ----------------------------------------
 BYTE   N92  Fn3
 BYTE   W96
//  #02 //039   ----------------------------------------
 BYTE   En3  v064
 BYTE   TIE  Gn3
 BYTE   W96
//  #02 //040   ----------------------------------------
 BYTE   N92  Fn3
 BYTE   W92
 BYTE   W03
 BYTE   EOT
 BYTE   Gn3
 BYTE   W01
//  #02 //041   ----------------------------------------
 BYTE   TIE  Ds3
 BYTE   W96
//  #02 //042   ----------------------------------------
 BYTE   W96
//  #02 //043   ----------------------------------------
 BYTE   PATT
  POIN2 Label_013F7A2F
//  #02 //044   ----------------------------------------
 BYTE   EOT
 BYTE   Ds3
 BYTE   W01
 BYTE   N23  Dn3  v052
 BYTE   W24
 BYTE   Ds3
 BYTE   W24
 BYTE   Dn3
 BYTE   W24
 BYTE   Ds3
 BYTE   W24
//  #02 //045   ----------------------------------------
Label_013F7A7B:
 BYTE   N23  Dn3  v052
 BYTE   W24
 BYTE   Ds3
 BYTE   W24
 BYTE   Dn3
 BYTE   W24
 BYTE   Ds3
 BYTE   W24
 BYTE   PEND 
//  #02 //046   ----------------------------------------
 BYTE   TIE
 BYTE   N92  Fn3
 BYTE   W96
//  #02 //047   ----------------------------------------
 BYTE   N44  Gn3
 BYTE   W48
 BYTE   Fn3
 BYTE   W44
 BYTE   W03
 BYTE   EOT
 BYTE   Ds3
 BYTE   W01
//  #02 //048   ----------------------------------------
 BYTE   PATT
  POIN2 Label_013F7A7B
//  #02 //049   ----------------------------------------
 BYTE   PATT
  POIN2 Label_013F7A7B
//  #02 //050   ----------------------------------------
 BYTE   N92  Ds3  v052
 BYTE   W96
//  #02 //051   ----------------------------------------
 BYTE   N44  Cn3
 BYTE   W48
 BYTE   Cs3
 BYTE   W48
//  #02 //052   ----------------------------------------
 BYTE   W96
//  #02 //053   ----------------------------------------
 BYTE   W96
//  #02 //054   ----------------------------------------
 BYTE   W48
 BYTE   N11  Fn3
 BYTE   W12
 BYTE   Dn3
 BYTE   W12
 BYTE   N11
 BYTE   W12
 BYTE   TIE
 BYTE   W12
//  #02 //055   ----------------------------------------
 BYTE   W96
//  #02 //056   ----------------------------------------
 BYTE   W92
 BYTE   W03
 BYTE   EOT
 BYTE   W01
//  #02 //057   ----------------------------------------
 BYTE   N11  Fn3
 BYTE   W12
 BYTE   N23
 BYTE   W24
 BYTE   N11
 BYTE   W36
 BYTE   TIE
 BYTE   W24
//  #02 //058   ----------------------------------------
 BYTE   W96
//  #02 //059   ----------------------------------------
 BYTE   W01
 BYTE   W02
 BYTE   W01
 BYTE   W02
 BYTE   W01
 BYTE   W02
 BYTE   W01
 BYTE   W02
 BYTE   W01
 BYTE   W02
 BYTE   W01
 BYTE   W02
 BYTE   W01
 BYTE   W02
 BYTE   W01
 BYTE   W02
 BYTE   W01
 BYTE   W02
 BYTE   W02
 BYTE   W01
 BYTE   W02
 BYTE   W01
 BYTE   W02
 BYTE   W01
 BYTE   W02
 BYTE   W01
 BYTE   W02
 BYTE   W01
 BYTE   W02
 BYTE   W01
 BYTE   W02
 BYTE   W01
 BYTE   W02
 BYTE   W01
 BYTE   W02
 BYTE   W01
 BYTE   W02
 BYTE   W01
 BYTE   W02
 BYTE   W02
 BYTE   W01
 BYTE   W02
 BYTE   W01
 BYTE   W02
 BYTE   W01
 BYTE   W02
 BYTE   W01
 BYTE   W02
 BYTE   W01
 BYTE   W02
 BYTE   W01
 BYTE   W02
 BYTE   W01
 BYTE   W02
 BYTE   W01
 BYTE   W02
 BYTE   W01
 BYTE   W02
 BYTE   W01
 BYTE   W02
 BYTE   W02
 BYTE   W01
 BYTE   W01
 BYTE   EOT
 BYTE   W01
//  #02 //060   ----------------------------------------
 BYTE   W96
//  #02 //061   ----------------------------------------
 BYTE   GoTo
  POIN2 Label_013F7986
//  #02 //062   ----------------------------------------
 BYTE   PATT
  POIN2 Label_013F79A7
//  #02 //063   ----------------------------------------
 BYTE   PATT
  POIN2 Label_013F79B0
//  #02 //064   ----------------------------------------
 BYTE   N92  Dn3  v052
 BYTE   N44  An3
 BYTE   W48
 BYTE   Gn3
 BYTE   W48
//  #02 //065   ----------------------------------------
 BYTE   N68  Ds3
 BYTE   N68  An3
 BYTE   W72
 BYTE   W24
//  #02 //066   ----------------------------------------
 BYTE   N92  Cn3  v036
 BYTE   N92  Gn3
 BYTE   W92
 BYTE   W03
 BYTE   FINE

//**************** Track 3 (Midi-Chn.2) ****************//

ShadowOfTheLowland_003:
//  #03 //000   ----------------------------------------
 BYTE   KEYSH   ShadowOfTheLowland_key+0
Label_013F7B2A:
 BYTE   VOICE   52
 BYTE   VOL   29*ShadowOfTheLowland_mvl/mxv
 BYTE   PAN   c_v+0
 BYTE   W96
//  #03 //001   ----------------------------------------
 BYTE   W96
//  #03 //002   ----------------------------------------
 BYTE   W96
//  #03 //003   ----------------------------------------
 BYTE   W96
//  #03 //004   ----------------------------------------
 BYTE   W96
//  #03 //005   ----------------------------------------
 BYTE   W96
//  #03 //006   ----------------------------------------
 BYTE   W96
//  #03 //007   ----------------------------------------
 BYTE   W48
 BYTE   N23  An2  v052
 BYTE   W24
 BYTE   Cn3
 BYTE   W24
//  #03 //008   ----------------------------------------
Label_013F7B3E:
 BYTE   TIE  An2  v052
 BYTE   W96
 BYTE   PEND 
//  #03 //009   ----------------------------------------
Label_013F7B43:
 BYTE   W44
 BYTE   W03
 BYTE   PEND 
 BYTE   EOT
 BYTE   An2
 BYTE   W01
 BYTE   N44  Gn2  v052
 BYTE   W48
//  #03 //010   ----------------------------------------
 BYTE   PATT
  POIN2 Label_013F7B3E
//  #03 //011   ----------------------------------------
Label_013F7B52:
 BYTE   W92
 BYTE   W03
 BYTE   PEND 
 BYTE   EOT
 BYTE   An2
 BYTE   W01
//  #03 //012   ----------------------------------------
Label_013F7B58:
 BYTE   TIE  Gn2  v052
 BYTE   W96
 BYTE   PEND 
//  #03 //013   ----------------------------------------
 BYTE   PATT
  POIN2 Label_013F7B52
//  #03 //014   ----------------------------------------
 BYTE   EOT
 BYTE   Gn2
 BYTE   W01
 BYTE   W24
 BYTE   N23  Dn3  v052
 BYTE   W24
 BYTE   Cn3
 BYTE   W24
 BYTE   N11  As2
 BYTE   W12
 BYTE   N56  An2
 BYTE   W12
//  #03 //015   ----------------------------------------
 BYTE   W48
 BYTE   N23  Gn2
 BYTE   W48
//  #03 //016   ----------------------------------------
 BYTE   PATT
  POIN2 Label_013F7B58
//  #03 //017   ----------------------------------------
 BYTE   W96
//  #03 //018   ----------------------------------------
 BYTE   PATT
  POIN2 Label_013F7B43
//  #03 //019   ----------------------------------------
 BYTE   EOT
 BYTE   Gn2
 BYTE   W01
 BYTE   N15  Gn2  v064
 BYTE   W16
 BYTE   An2
 BYTE   W16
 BYTE   As2
 BYTE   W16
 BYTE   N11  Dn3
 BYTE   W12
 BYTE   Cn3
 BYTE   W12
 BYTE   N44  Dn3
 BYTE   W72
//  #03 //020   ----------------------------------------
 BYTE   Cn3  v052
 BYTE   W48
 BYTE   Bn2
 BYTE   W48
//  #03 //021   ----------------------------------------
 BYTE   As2
 BYTE   W48
 BYTE   An2
 BYTE   W48
//  #03 //022   ----------------------------------------
 BYTE   As2
 BYTE   W48
 BYTE   Bn2
 BYTE   W48
//  #03 //023   ----------------------------------------
 BYTE   Cn3
 BYTE   W96
//  #03 //024   ----------------------------------------
 BYTE   W48
 BYTE   TIE  An2
 BYTE   W48
//  #03 //025   ----------------------------------------
 BYTE   W68
 BYTE   W03
 BYTE   EOT
 BYTE   W24
 BYTE   W01
//  #03 //026   ----------------------------------------
 BYTE   W96
//  #03 //027   ----------------------------------------
 BYTE   W96
//  #03 //028   ----------------------------------------
 BYTE   TIE  As2  v064
 BYTE   W96
//  #03 //029   ----------------------------------------
 BYTE   W23
 BYTE   EOT
 BYTE   W01
 BYTE   N23  Dn3
 BYTE   W24
 BYTE   TIE  Cn3
 BYTE   W48
//  #03 //030   ----------------------------------------
 BYTE   W92
 BYTE   W03
 BYTE   EOT
 BYTE   W01
//  #03 //031   ----------------------------------------
 BYTE   N68  As2
 BYTE   W96
//  #03 //032   ----------------------------------------
 BYTE   N44
 BYTE   W48
 BYTE   Bn2
 BYTE   W48
//  #03 //033   ----------------------------------------
 BYTE   TIE  Cn3
 BYTE   W96
//  #03 //034   ----------------------------------------
 BYTE   W68
 BYTE   W03
 BYTE   EOT
 BYTE   W01
 BYTE   N23  Fn2
 BYTE   W24
//  #03 //035   ----------------------------------------
 BYTE   N44  An2
 BYTE   W48
 BYTE   Gn2
 BYTE   W48
//  #03 //036   ----------------------------------------
 BYTE   W96
//  #03 //037   ----------------------------------------
 BYTE   W48
 BYTE   N23  Dn3  v080
 BYTE   W24
 BYTE   N11  Cn3
 BYTE   W12
 BYTE   Dn3
 BYTE   W12
//  #03 //038   ----------------------------------------
 BYTE   TIE
 BYTE   W96
//  #03 //039   ----------------------------------------
 BYTE   W92
 BYTE   W03
 BYTE   EOT
 BYTE   W01
//  #03 //040   ----------------------------------------
 BYTE   N92  Cn3  v064
 BYTE   W96
//  #03 //041   ----------------------------------------
 BYTE   N44  As2
 BYTE   W48
 BYTE   N23  Cn3
 BYTE   W24
 BYTE   Cs3
 BYTE   W24
//  #03 //042   ----------------------------------------
 BYTE   Cn3
 BYTE   W24
 BYTE   Cs3
 BYTE   W24
 BYTE   Cn3
 BYTE   W24
 BYTE   Cs3
 BYTE   W24
//  #03 //043   ----------------------------------------
 BYTE   PATT
  POIN2 Label_013F7B58
//  #03 //044   ----------------------------------------
 BYTE   PATT
  POIN2 Label_013F7B52
//  #03 //045   ----------------------------------------
 BYTE   EOT
 BYTE   Gn2
 BYTE   W01
 BYTE   N23  Cn3  v052
 BYTE   W24
 BYTE   Cs3
 BYTE   W24
 BYTE   Cn3
 BYTE   W24
 BYTE   Cs3
 BYTE   W24
//  #03 //046   ----------------------------------------
 BYTE   Cn3
 BYTE   W24
 BYTE   Cs3
 BYTE   W24
 BYTE   Cn3
 BYTE   W24
 BYTE   Cs3
 BYTE   W24
//  #03 //047   ----------------------------------------
 BYTE   PATT
  POIN2 Label_013F7B58
//  #03 //048   ----------------------------------------
 BYTE   PATT
  POIN2 Label_013F7B52
//  #03 //049   ----------------------------------------
 BYTE   EOT
 BYTE   Gn2
 BYTE   W01
 BYTE   N44  As2  v052
 BYTE   W48
 BYTE   Gs2
 BYTE   W48
//  #03 //050   ----------------------------------------
 BYTE   Gn2
 BYTE   W48
 BYTE   Fn2
 BYTE   W48
//  #03 //051   ----------------------------------------
 BYTE   W96
//  #03 //052   ----------------------------------------
 BYTE   W96
//  #03 //053   ----------------------------------------
 BYTE   W96
//  #03 //054   ----------------------------------------
 BYTE   TIE  As2
 BYTE   W96
//  #03 //055   ----------------------------------------
 BYTE   W96
//  #03 //056   ----------------------------------------
 BYTE   PATT
  POIN2 Label_013F7B52
//  #03 //057   ----------------------------------------
 BYTE   EOT
 BYTE   As2
 BYTE   W01
 BYTE   N11  Gn2  v096
 BYTE   W12
 BYTE   An2
 BYTE   W12
 BYTE   N11
 BYTE   W12
 BYTE   TIE
 BYTE   W60
//  #03 //058   ----------------------------------------
 BYTE   W92
 BYTE   W03
 BYTE   EOT
 BYTE   W01
//  #03 //059   ----------------------------------------
 BYTE   W96
//  #03 //060   ----------------------------------------
 BYTE   GoTo
  POIN2 Label_013F7B2A
//  #03 //061   ----------------------------------------
 BYTE   W96
//  #03 //062   ----------------------------------------
 BYTE   W96
//  #03 //063   ----------------------------------------
 BYTE   W96
//  #03 //064   ----------------------------------------
 BYTE   W96
//  #03 //065   ----------------------------------------
 BYTE   N92  An2  v036
 BYTE   W92
 BYTE   W03
 BYTE   FINE

//**************** Track 4 (Midi-Chn.3) ****************//

ShadowOfTheLowland_004:
//  #04 //000   ----------------------------------------
 BYTE   KEYSH   ShadowOfTheLowland_key+0
Label_013F785A:
 BYTE   VOICE   52
 BYTE   VOL   29*ShadowOfTheLowland_mvl/mxv
 BYTE   PAN   c_v+0
 BYTE   W96
//  #04 //001   ----------------------------------------
 BYTE   W96
//  #04 //002   ----------------------------------------
 BYTE   W96
//  #04 //003   ----------------------------------------
 BYTE   W96
//  #04 //004   ----------------------------------------
 BYTE   W96
//  #04 //005   ----------------------------------------
 BYTE   W96
//  #04 //006   ----------------------------------------
 BYTE   W96
//  #04 //007   ----------------------------------------
 BYTE   W96
//  #04 //008   ----------------------------------------
 BYTE   W96
//  #04 //009   ----------------------------------------
 BYTE   W96
//  #04 //010   ----------------------------------------
 BYTE   W96
//  #04 //011   ----------------------------------------
 BYTE   W96
//  #04 //012   ----------------------------------------
Label_013F786C:
 BYTE   TIE  Dn2  v052
 BYTE   W96
 BYTE   PEND 
//  #04 //013   ----------------------------------------
 BYTE   W96
//  #04 //014   ----------------------------------------
 BYTE   W96
//  #04 //015   ----------------------------------------
Label_013F7873:
 BYTE   W68
 BYTE   W03
 BYTE   PEND 
 BYTE   EOT
 BYTE   Dn2
 BYTE   W24
 BYTE   W01
//  #04 //016   ----------------------------------------
 BYTE   PATT
  POIN2 Label_013F786C
//  #04 //017   ----------------------------------------
 BYTE   W96
//  #04 //018   ----------------------------------------
 BYTE   W96
//  #04 //019   ----------------------------------------
 BYTE   PATT
  POIN2 Label_013F7873
//  #04 //020   ----------------------------------------
 BYTE   EOT
 BYTE   Dn2
 BYTE   W24
 BYTE   W01
 BYTE   TIE  Gn1  v052
 BYTE   W96
//  #04 //021   ----------------------------------------
 BYTE   W96
//  #04 //022   ----------------------------------------
 BYTE   W96
//  #04 //023   ----------------------------------------
 BYTE   W44
 BYTE   W03
 BYTE   EOT
 BYTE   W01
 BYTE   N44  Ds2
 BYTE   W48
//  #04 //024   ----------------------------------------
 BYTE   N92  Dn2
 BYTE   W96
//  #04 //025   ----------------------------------------
 BYTE   N68  Ds2
 BYTE   W96
//  #04 //026   ----------------------------------------
 BYTE   N92  Dn2
 BYTE   W96
//  #04 //027   ----------------------------------------
 BYTE   Ds2
 BYTE   W96
//  #04 //028   ----------------------------------------
Label_013F78A2:
 BYTE   N92  Fn2  v052
 BYTE   W96
 BYTE   PEND 
//  #04 //029   ----------------------------------------
 BYTE   Gn2
 BYTE   W96
//  #04 //030   ----------------------------------------
 BYTE   Fs2
 BYTE   W96
//  #04 //031   ----------------------------------------
 BYTE   N68  Fn2
 BYTE   W96
//  #04 //032   ----------------------------------------
 BYTE   TIE  Ds1
 BYTE   W96
//  #04 //033   ----------------------------------------
Label_013F78B1:
 BYTE   W92
 BYTE   W03
 BYTE   PEND 
 BYTE   EOT
 BYTE   Ds1
 BYTE   W01
//  #04 //034   ----------------------------------------
 BYTE   N92  Fn1  v052
 BYTE   W96
//  #04 //035   ----------------------------------------
 BYTE   As1
 BYTE   W96
//  #04 //036   ----------------------------------------
 BYTE   W96
//  #04 //037   ----------------------------------------
 BYTE   W96
//  #04 //038   ----------------------------------------
 BYTE   W96
//  #04 //039   ----------------------------------------
 BYTE   W96
//  #04 //040   ----------------------------------------
 BYTE   W48
 BYTE   As2  v064
 BYTE   W48
//  #04 //041   ----------------------------------------
 BYTE   W48
 BYTE   N44  Gs2
 BYTE   W48
//  #04 //042   ----------------------------------------
 BYTE   Gn2
 BYTE   W48
 BYTE   Fn2
 BYTE   W48
//  #04 //043   ----------------------------------------
Label_013F78CD:
 BYTE   TIE  Gn2  v052
 BYTE   W96
 BYTE   PEND 
//  #04 //044   ----------------------------------------
 BYTE   PATT
  POIN2 Label_013F78B1
//  #04 //045   ----------------------------------------
 BYTE   EOT
 BYTE   Gn2
 BYTE   W01
//  #04 //046   ----------------------------------------
 BYTE   PATT
  POIN2 Label_013F78A2
//  #04 //047   ----------------------------------------
Label_013F78DF:
 BYTE   N44  Gn2  v052
 BYTE   W48
 BYTE   Fn2
 BYTE   W48
 BYTE   PEND 
//  #04 //048   ----------------------------------------
 BYTE   PATT
  POIN2 Label_013F78CD
//  #04 //049   ----------------------------------------
 BYTE   PATT
  POIN2 Label_013F78B1
//  #04 //050   ----------------------------------------
 BYTE   EOT
 BYTE   Gn2
 BYTE   W01
 BYTE   N44  As2  v052
 BYTE   W48
 BYTE   Gs2
 BYTE   W48
//  #04 //051   ----------------------------------------
 BYTE   PATT
  POIN2 Label_013F78DF
//  #04 //052   ----------------------------------------
 BYTE   W96
//  #04 //053   ----------------------------------------
 BYTE   W96
//  #04 //054   ----------------------------------------
 BYTE   N60  Ds2  v052
 BYTE   W48
 BYTE   W16
 BYTE   N15  Dn2
 BYTE   W16
 BYTE   Cn2
 BYTE   W16
//  #04 //055   ----------------------------------------
 BYTE   N44  As1
 BYTE   W96
//  #04 //056   ----------------------------------------
 BYTE   W48
 BYTE   TIE  Cn2  v080
 BYTE   W48
//  #04 //057   ----------------------------------------
 BYTE   W96
//  #04 //058   ----------------------------------------
 BYTE   W96
//  #04 //059   ----------------------------------------
 BYTE   W03
 BYTE   W03
 BYTE   W03
 BYTE   W03
 BYTE   W03
 BYTE   W03
 BYTE   W03
 BYTE   W03
 BYTE   W03
 BYTE   W03
 BYTE   W03
 BYTE   W03
 BYTE   W03
 BYTE   W03
 BYTE   W03
 BYTE   W03
 BYTE   W03
 BYTE   W03
 BYTE   W03
 BYTE   W03
 BYTE   W03
 BYTE   W03
 BYTE   W03
 BYTE   W03
 BYTE   W03
 BYTE   W03
 BYTE   W03
 BYTE   W03
 BYTE   W03
 BYTE   W03
 BYTE   W03
 BYTE   W02
 BYTE   EOT
 BYTE   W01
//  #04 //060   ----------------------------------------
 BYTE   W96
//  #04 //061   ----------------------------------------
 BYTE   GoTo
  POIN2 Label_013F785A
//  #04 //062   ----------------------------------------
 BYTE   W96
//  #04 //063   ----------------------------------------
 BYTE   W96
//  #04 //064   ----------------------------------------
 BYTE   W96
//  #04 //065   ----------------------------------------
 BYTE   W96
//  #04 //066   ----------------------------------------
 BYTE   N92  Dn2  v036
 BYTE   W92
 BYTE   W03
 BYTE   FINE

//**************** Track 5 (Midi-Chn.4) ****************//

ShadowOfTheLowland_005:
//  #05 //000   ----------------------------------------
 BYTE   KEYSH   ShadowOfTheLowland_key+0
Label_013F83C6:
 BYTE   VOICE   46
 BYTE   VOL   29*ShadowOfTheLowland_mvl/mxv
 BYTE   PAN   c_v+0
 BYTE   W96
//  #05 //001   ----------------------------------------
 BYTE   W96
//  #05 //002   ----------------------------------------
 BYTE   W96
//  #05 //003   ----------------------------------------
 BYTE   W96
//  #05 //004   ----------------------------------------
Label_013F83D0:
 BYTE   N11  Dn3  v064
 BYTE   W12
 BYTE   An3
 BYTE   W12
 BYTE   Dn4
 BYTE   W12
 BYTE   An3
 BYTE   W12
 BYTE   N44  Cn4
 BYTE   W48
 BYTE   PEND 
//  #05 //005   ----------------------------------------
Label_013F83DE:
 BYTE   N11  Ds3  v064
 BYTE   W12
 BYTE   An3
 BYTE   W12
 BYTE   Dn4
 BYTE   W12
 BYTE   An3
 BYTE   W12
 BYTE   N44  Cn4
 BYTE   W48
 BYTE   PEND 
//  #05 //006   ----------------------------------------
 BYTE   PATT
  POIN2 Label_013F83D0
//  #05 //007   ----------------------------------------
 BYTE   PATT
  POIN2 Label_013F83DE
//  #05 //008   ----------------------------------------
 BYTE   PATT
  POIN2 Label_013F83D0
//  #05 //009   ----------------------------------------
 BYTE   PATT
  POIN2 Label_013F83DE
//  #05 //010   ----------------------------------------
 BYTE   PATT
  POIN2 Label_013F83D0
//  #05 //011   ----------------------------------------
 BYTE   PATT
  POIN2 Label_013F83DE
//  #05 //012   ----------------------------------------
Label_013F840A:
 BYTE   N11  Gn2  v064
 BYTE   W12
 BYTE   Dn3
 BYTE   W12
 BYTE   As3
 BYTE   W12
 BYTE   Dn3
 BYTE   W12
 BYTE   An3
 BYTE   W12
 BYTE   Dn3
 BYTE   W36
 BYTE   PEND 
//  #05 //013   ----------------------------------------
Label_013F8419:
 BYTE   N11  Gn2  v064
 BYTE   W12
 BYTE   Dn3
 BYTE   W12
 BYTE   As3
 BYTE   W12
 BYTE   Dn3
 BYTE   W12
 BYTE   N44  An3
 BYTE   W48
 BYTE   PEND 
//  #05 //014   ----------------------------------------
 BYTE   PATT
  POIN2 Label_013F840A
//  #05 //015   ----------------------------------------
 BYTE   PATT
  POIN2 Label_013F8419
//  #05 //016   ----------------------------------------
Label_013F8431:
 BYTE   N11  Gn2  v064
 BYTE   W12
 BYTE   Ds3
 BYTE   W12
 BYTE   As3
 BYTE   W12
 BYTE   Ds3
 BYTE   W12
 BYTE   An3
 BYTE   W12
 BYTE   Dn3
 BYTE   W36
 BYTE   PEND 
//  #05 //017   ----------------------------------------
Label_013F8440:
 BYTE   N11  Gn2  v064
 BYTE   W12
 BYTE   Ds3
 BYTE   W12
 BYTE   As3
 BYTE   W12
 BYTE   Ds3
 BYTE   W12
 BYTE   N44  An3
 BYTE   W48
 BYTE   PEND 
//  #05 //018   ----------------------------------------
 BYTE   PATT
  POIN2 Label_013F8431
//  #05 //019   ----------------------------------------
 BYTE   PATT
  POIN2 Label_013F8440
//  #05 //020   ----------------------------------------
 BYTE   PATT
  POIN2 Label_013F8431
//  #05 //021   ----------------------------------------
 BYTE   PATT
  POIN2 Label_013F8440
//  #05 //022   ----------------------------------------
 BYTE   PATT
  POIN2 Label_013F8431
//  #05 //023   ----------------------------------------
 BYTE   N11  Gn2  v064
 BYTE   W12
 BYTE   Ds3
 BYTE   W12
 BYTE   Cn4
 BYTE   W12
 BYTE   Ds3
 BYTE   W12
 BYTE   N44  Gn3
 BYTE   W48
//  #05 //024   ----------------------------------------
 BYTE   PATT
  POIN2 Label_013F83D0
//  #05 //025   ----------------------------------------
 BYTE   PATT
  POIN2 Label_013F83DE
//  #05 //026   ----------------------------------------
 BYTE   PATT
  POIN2 Label_013F83D0
//  #05 //027   ----------------------------------------
 BYTE   PATT
  POIN2 Label_013F83DE
//  #05 //028   ----------------------------------------
 BYTE   N11  Dn4  v064
 BYTE   W12
 BYTE   As3
 BYTE   W12
 BYTE   Gn3
 BYTE   W12
 BYTE   Fn3
 BYTE   W12
 BYTE   Dn4
 BYTE   W12
 BYTE   As3
 BYTE   W12
 BYTE   Gn3
 BYTE   W12
 BYTE   Fn3
 BYTE   W12
//  #05 //029   ----------------------------------------
 BYTE   Ds4
 BYTE   W12
 BYTE   Cn4
 BYTE   W12
 BYTE   As3
 BYTE   W12
 BYTE   Gn3
 BYTE   W12
 BYTE   Ds4
 BYTE   W12
 BYTE   Cn4
 BYTE   W12
 BYTE   As3
 BYTE   W12
 BYTE   Gn3
 BYTE   W12
//  #05 //030   ----------------------------------------
 BYTE   Ds4
 BYTE   W12
 BYTE   Cn4
 BYTE   W12
 BYTE   An3
 BYTE   W12
 BYTE   Fs3
 BYTE   W12
 BYTE   Ds4
 BYTE   W12
 BYTE   Cn4
 BYTE   W12
 BYTE   An3
 BYTE   W12
 BYTE   Fs3
 BYTE   W12
//  #05 //031   ----------------------------------------
 BYTE   Dn4
 BYTE   W12
 BYTE   As3
 BYTE   W12
 BYTE   Fn3
 BYTE   W12
 BYTE   Dn3
 BYTE   W12
 BYTE   Fn3
 BYTE   W12
 BYTE   As3
 BYTE   W12
 BYTE   An3
 BYTE   W12
 BYTE   Fn3
 BYTE   W12
//  #05 //032   ----------------------------------------
 BYTE   Dn4
 BYTE   W12
 BYTE   An3
 BYTE   W12
 BYTE   Gn3
 BYTE   W12
 BYTE   Fn3
 BYTE   W12
 BYTE   Dn4
 BYTE   W12
 BYTE   An3
 BYTE   W12
 BYTE   Gn3
 BYTE   W12
 BYTE   Fn3
 BYTE   W12
//  #05 //033   ----------------------------------------
 BYTE   Ds4
 BYTE   W12
 BYTE   Cn4
 BYTE   W12
 BYTE   Gn3
 BYTE   W12
 BYTE   Ds3
 BYTE   W12
 BYTE   Ds4
 BYTE   W12
 BYTE   Cn4
 BYTE   W12
 BYTE   Gn3
 BYTE   W12
 BYTE   Ds3
 BYTE   W12
//  #05 //034   ----------------------------------------
 BYTE   Cn4
 BYTE   W12
 BYTE   As3
 BYTE   W12
 BYTE   Fn3
 BYTE   W12
 BYTE   Dn3
 BYTE   W12
 BYTE   Cn4
 BYTE   W12
 BYTE   As3
 BYTE   W12
 BYTE   Fn3
 BYTE   W12
 BYTE   Dn3
 BYTE   W12
//  #05 //035   ----------------------------------------
 BYTE   Dn4
 BYTE   W12
 BYTE   As3
 BYTE   W12
 BYTE   Fn3
 BYTE   W12
 BYTE   Dn3
 BYTE   W12
 BYTE   Fn3
 BYTE   W12
 BYTE   N11
 BYTE   W12
 BYTE   N23  As4
 BYTE   W24
//  #05 //036   ----------------------------------------
 BYTE   W96
//  #05 //037   ----------------------------------------
 BYTE   W96
//  #05 //038   ----------------------------------------
 BYTE   W96
//  #05 //039   ----------------------------------------
 BYTE   W96
//  #05 //040   ----------------------------------------
 BYTE   W96
//  #05 //041   ----------------------------------------
Label_013F850E:
 BYTE   N11  Cs3  v064
 BYTE   W12
 BYTE   Gs3
 BYTE   W12
 BYTE   Ds4
 BYTE   W12
 BYTE   Gs3
 BYTE   W12
 BYTE   Cs4
 BYTE   W12
 BYTE   Gs3
 BYTE   W12
 BYTE   Cn4
 BYTE   W12
 BYTE   Gs3
 BYTE   W12
 BYTE   PEND 
//  #05 //042   ----------------------------------------
 BYTE   PATT
  POIN2 Label_013F850E
//  #05 //043   ----------------------------------------
Label_013F8526:
 BYTE   N11  Dn3  v064
 BYTE   W12
 BYTE   Gn3
 BYTE   W12
 BYTE   Dn4
 BYTE   W12
 BYTE   Gn3
 BYTE   W12
 BYTE   Cn4
 BYTE   W12
 BYTE   Gn3
 BYTE   W12
 BYTE   Gs3
 BYTE   W12
 BYTE   Gn3
 BYTE   W12
 BYTE   PEND 
//  #05 //044   ----------------------------------------
 BYTE   PATT
  POIN2 Label_013F8526
//  #05 //045   ----------------------------------------
 BYTE   PATT
  POIN2 Label_013F850E
//  #05 //046   ----------------------------------------
 BYTE   PATT
  POIN2 Label_013F850E
//  #05 //047   ----------------------------------------
 BYTE   PATT
  POIN2 Label_013F8526
//  #05 //048   ----------------------------------------
 BYTE   PATT
  POIN2 Label_013F8526
//  #05 //049   ----------------------------------------
 BYTE   PATT
  POIN2 Label_013F850E
//  #05 //050   ----------------------------------------
 BYTE   PATT
  POIN2 Label_013F850E
//  #05 //051   ----------------------------------------
Label_013F855C:
 BYTE   N11  Gs2  v064
 BYTE   W12
 BYTE   Ds3
 BYTE   W12
 BYTE   N68  As3
 BYTE   W72
 BYTE   PEND 
//  #05 //052   ----------------------------------------
 BYTE   PATT
  POIN2 Label_013F855C
//  #05 //053   ----------------------------------------
Label_013F856B:
 BYTE   N11  As2  v064
 BYTE   W12
 BYTE   Fn3
 BYTE   W12
 BYTE   As3
 BYTE   W12
 BYTE   Fn3
 BYTE   W12
 BYTE   N44  As3
 BYTE   W48
 BYTE   PEND 
//  #05 //054   ----------------------------------------
 BYTE   PATT
  POIN2 Label_013F856B
//  #05 //055   ----------------------------------------
 BYTE   N92  As3  v064
 BYTE   W96
//  #05 //056   ----------------------------------------
 BYTE   W96
//  #05 //057   ----------------------------------------
 BYTE   W96
//  #05 //058   ----------------------------------------
 BYTE   W96
//  #05 //059   ----------------------------------------
 BYTE   W96
//  #05 //060   ----------------------------------------
 BYTE   GoTo
  POIN2 Label_013F83C6
//  #05 //061   ----------------------------------------
 BYTE   W96
//  #05 //062   ----------------------------------------
 BYTE   W96
//  #05 //063   ----------------------------------------
 BYTE   W96
//  #05 //064   ----------------------------------------
 BYTE   W96
//  #05 //065   ----------------------------------------
 BYTE   W92
 BYTE   W03
 BYTE   FINE

//**************** Track 6 (Midi-Chn.5) ****************//

ShadowOfTheLowland_006:
//  #06 //000   ----------------------------------------
 BYTE   KEYSH   ShadowOfTheLowland_key+0
Label_013F8596:
 BYTE   VOICE   49
 BYTE   VOL   32*ShadowOfTheLowland_mvl/mxv
 BYTE   PAN   c_v+0
 BYTE   W96
//  #06 //001   ----------------------------------------
 BYTE   W96
//  #06 //002   ----------------------------------------
 BYTE   W96
//  #06 //003   ----------------------------------------
 BYTE   W96
//  #06 //004   ----------------------------------------
Label_013F85A0:
 BYTE   N44  Dn2  v080
 BYTE   W48
 BYTE   Cn2
 BYTE   W48
 BYTE   PEND 
//  #06 //005   ----------------------------------------
Label_013F85A7:
 BYTE   N44  Dn2  v080
 BYTE   W48
 BYTE   Fn2
 BYTE   W48
 BYTE   PEND 
//  #06 //006   ----------------------------------------
 BYTE   Gn2
 BYTE   W48
 BYTE   An2
 BYTE   W48
//  #06 //007   ----------------------------------------
 BYTE   N23  Gn2
 BYTE   W24
 BYTE   An2
 BYTE   W24
 BYTE   Fn2
 BYTE   W24
 BYTE   En2
 BYTE   W24
//  #06 //008   ----------------------------------------
 BYTE   PATT
  POIN2 Label_013F85A0
//  #06 //009   ----------------------------------------
 BYTE   PATT
  POIN2 Label_013F85A7
//  #06 //010   ----------------------------------------
 BYTE   N68  Fn2  v080
 BYTE   W96
//  #06 //011   ----------------------------------------
 BYTE   N44  Ds2
 BYTE   W48
 BYTE   N23  Cn2
 BYTE   W24
 BYTE   An2
 BYTE   W24
//  #06 //012   ----------------------------------------
 BYTE   N32  As2
 BYTE   W36
 BYTE   N11  Cn3
 BYTE   W12
 BYTE   N44  An2
 BYTE   W48
//  #06 //013   ----------------------------------------
 BYTE   W48
 BYTE   N15  Gn2
 BYTE   W16
 BYTE   An2
 BYTE   W16
 BYTE   As2
 BYTE   W16
//  #06 //014   ----------------------------------------
 BYTE   N23  An2
 BYTE   W24
 BYTE   Gn2
 BYTE   W24
 BYTE   N68
 BYTE   W48
//  #06 //015   ----------------------------------------
 BYTE   W96
//  #06 //016   ----------------------------------------
Label_013F85EA:
 BYTE   N32  As2  v080
 BYTE   W36
 BYTE   N11  Cn3
 BYTE   W12
 BYTE   N32  An2
 BYTE   W36
 BYTE   N11  As2
 BYTE   W12
 BYTE   PEND 
//  #06 //017   ----------------------------------------
 BYTE   N44  Gn2
 BYTE   W48
 BYTE   N15
 BYTE   W16
 BYTE   An2
 BYTE   W16
 BYTE   As2
 BYTE   W16
//  #06 //018   ----------------------------------------
 BYTE   N11  Dn3
 BYTE   W12
 BYTE   Cn3
 BYTE   W12
 BYTE   N56  Dn3
 BYTE   W60
 BYTE   N05  Ds3
 BYTE   W06
 BYTE   Dn3
 BYTE   W06
//  #06 //019   ----------------------------------------
 BYTE   N44  Cn3
 BYTE   W96
//  #06 //020   ----------------------------------------
 BYTE   PATT
  POIN2 Label_013F85EA
//  #06 //021   ----------------------------------------
 BYTE   N44  Gn2  v080
 BYTE   W48
 BYTE   N15
 BYTE   W16
 BYTE   An2
 BYTE   W16
 BYTE   As2
 BYTE   W16
//  #06 //022   ----------------------------------------
 BYTE   N11  An2
 BYTE   W12
 BYTE   Gn2
 BYTE   W12
 BYTE   N92  An2
 BYTE   W72
//  #06 //023   ----------------------------------------
 BYTE   W48
 BYTE   N44  Gn2
 BYTE   W48
//  #06 //024   ----------------------------------------
 BYTE   TIE  An2
 BYTE   W96
//  #06 //025   ----------------------------------------
 BYTE   W68
 BYTE   W03
 BYTE   EOT
 BYTE   W24
 BYTE   W01
//  #06 //026   ----------------------------------------
 BYTE   W96
//  #06 //027   ----------------------------------------
 BYTE   W96
//  #06 //028   ----------------------------------------
 BYTE   N44  Dn3  v096
 BYTE   W48
 BYTE   N32
 BYTE   W36
 BYTE   N11
 BYTE   W12
//  #06 //029   ----------------------------------------
 BYTE   N11
 BYTE   W12
 BYTE   N23  Cn3
 BYTE   W24
 BYTE   N11  Dn3
 BYTE   W12
 BYTE   N44  Gn2
 BYTE   W48
//  #06 //030   ----------------------------------------
 BYTE   N23  An2
 BYTE   W24
 BYTE   N32  As2
 BYTE   W36
 BYTE   N23  An2
 BYTE   W24
 BYTE   N11  Gn2
 BYTE   W12
//  #06 //031   ----------------------------------------
 BYTE   N32  Fn2
 BYTE   W36
 BYTE   N11
 BYTE   W12
 BYTE   N23  Dn2
 BYTE   W48
//  #06 //032   ----------------------------------------
 BYTE   N44  Dn3
 BYTE   W48
 BYTE   N44
 BYTE   W48
//  #06 //033   ----------------------------------------
 BYTE   N11
 BYTE   W12
 BYTE   N23  Cn3
 BYTE   W24
 BYTE   N11  Dn3
 BYTE   W12
 BYTE   N32  Gn2
 BYTE   W36
 BYTE   N11
 BYTE   W12
//  #06 //034   ----------------------------------------
 BYTE   N23  An2
 BYTE   W24
 BYTE   N32  As2
 BYTE   W36
 BYTE   N23  Cn3
 BYTE   W24
 BYTE   N11  Fn2
 BYTE   W12
//  #06 //035   ----------------------------------------
 BYTE   N68  Dn3
 BYTE   W96
//  #06 //036   ----------------------------------------
 BYTE   W96
//  #06 //037   ----------------------------------------
 BYTE   W96
//  #06 //038   ----------------------------------------
 BYTE   W96
//  #06 //039   ----------------------------------------
 BYTE   W96
//  #06 //040   ----------------------------------------
 BYTE   W96
//  #06 //041   ----------------------------------------
 BYTE   W96
//  #06 //042   ----------------------------------------
 BYTE   W96
//  #06 //043   ----------------------------------------
 BYTE   W48
 BYTE   N32  Fn2
 BYTE   W36
 BYTE   N11  Gn2
 BYTE   W12
//  #06 //044   ----------------------------------------
Label_013F868C:
 BYTE   N44  Cn3  v096
 BYTE   W48
 BYTE   As2
 BYTE   W48
 BYTE   PEND 
//  #06 //045   ----------------------------------------
 BYTE   N11  Gn2
 BYTE   W12
 BYTE   Fn2
 BYTE   W12
 BYTE   N11
 BYTE   W12
 BYTE   N80
 BYTE   W60
//  #06 //046   ----------------------------------------
 BYTE   W96
//  #06 //047   ----------------------------------------
 BYTE   W48
 BYTE   N32  Gn2
 BYTE   W36
 BYTE   N11
 BYTE   W12
//  #06 //048   ----------------------------------------
 BYTE   PATT
  POIN2 Label_013F868C
//  #06 //049   ----------------------------------------
 BYTE   N23  Gn2  v096
 BYTE   W24
 BYTE   Fn2
 BYTE   W24
 BYTE   Cn3
 BYTE   W24
 BYTE   N92
 BYTE   W24
//  #06 //050   ----------------------------------------
 BYTE   W96
//  #06 //051   ----------------------------------------
 BYTE   N60  Ds3
 BYTE   W48
 BYTE   W16
 BYTE   N15  Dn3
 BYTE   W16
 BYTE   Cn3
 BYTE   W16
//  #06 //052   ----------------------------------------
 BYTE   PATT
  POIN2 Label_013F868C
//  #06 //053   ----------------------------------------
 BYTE   N11  As2  v096
 BYTE   W12
 BYTE   Gn2
 BYTE   W12
 BYTE   N11
 BYTE   W12
 BYTE   N80
 BYTE   W60
//  #06 //054   ----------------------------------------
 BYTE   W48
 BYTE   N44  As2
 BYTE   W48
//  #06 //055   ----------------------------------------
 BYTE   TIE  Gn2
 BYTE   W96
//  #06 //056   ----------------------------------------
 BYTE   W92
 BYTE   W03
 BYTE   EOT
 BYTE   W01
//  #06 //057   ----------------------------------------
 BYTE   TIE  Dn3
 BYTE   W96
//  #06 //058   ----------------------------------------
 BYTE   W06
 BYTE   W06
 BYTE   W06
 BYTE   W06
 BYTE   W06
 BYTE   W06
 BYTE   W06
 BYTE   W06
 BYTE   W06
 BYTE   W06
 BYTE   W06
 BYTE   W06
 BYTE   W06
 BYTE   W06
 BYTE   W06
 BYTE   W05
 BYTE   EOT
 BYTE   W01
//  #06 //059   ----------------------------------------
 BYTE   W96
//  #06 //060   ----------------------------------------
 BYTE   GoTo
  POIN2 Label_013F8596
//  #06 //061   ----------------------------------------
 BYTE   W96
//  #06 //062   ----------------------------------------
 BYTE   W96
//  #06 //063   ----------------------------------------
 BYTE   W96
//  #06 //064   ----------------------------------------
 BYTE   W96
//  #06 //065   ----------------------------------------
 BYTE   W92
 BYTE   W03
 BYTE   FINE

//******************************************************//
	ALIGN 4

ShadowOfTheLowland:
	BYTE	6	// NumTrks
	BYTE	0	// NumBlks
	BYTE	ShadowOfTheLowland_pri	// Priority
	BYTE	ShadowOfTheLowland_rev	// Reverb.
    
	POIN2	ShadowOfTheLowland_grp
    
	POIN2	ShadowOfTheLowland_001
	POIN2	ShadowOfTheLowland_002
	POIN2	ShadowOfTheLowland_003
	POIN2	ShadowOfTheLowland_004
	POIN2	ShadowOfTheLowland_005
	POIN2	ShadowOfTheLowland_006

	
