//Event file generated from Sappy .s format.
	#include "MPlayDef.event"

	#define	ShinjukuUnderground_grp  voicegroup000
	#define	ShinjukuUnderground_pri  0
	#define	ShinjukuUnderground_rev  0
	#define	ShinjukuUnderground_mvl  127
	#define	ShinjukuUnderground_key  0
	#define	ShinjukuUnderground_tbs  1
	#define	ShinjukuUnderground_exg  0
	#define	ShinjukuUnderground_cmp  1

	// .rodata
	//	ShinjukuUnderground
	ALIGN 4


//**************** Track 1 (Midi-Chn.0) ****************//

ShinjukuUnderground_001:
//  #01 //000   ----------------------------------------
 BYTE   VOL   50*ShinjukuUnderground_mvl/mxv
 BYTE   KEYSH   ShinjukuUnderground_key+0
 BYTE   TEMPO   102*ShinjukuUnderground_tbs/2
 BYTE   VOICE   38
 BYTE   W12
 BYTE   N06  Fn1  v100
 BYTE   W06
 BYTE   An1
 BYTE   W06
Label_01004633:
 BYTE   N06  Gn1  v100
 BYTE   W06
 BYTE   Cn1
 BYTE   W06
 BYTE   Fn1
 BYTE   W06
 BYTE   Dn1
 BYTE   W06
 BYTE   Gn0
 BYTE   W24
 BYTE   N06
 BYTE   W24
//  #01 //001   ----------------------------------------
Label_01004641:
 BYTE   N06  Gn0  v100
 BYTE   W18
 BYTE   N06
 BYTE   W42
 BYTE   N06
 BYTE   W36
 BYTE   PEND 
//  #01 //002   ----------------------------------------
Label_0100464A:
 BYTE   N06  Gn0  v100
 BYTE   W18
 BYTE   N06
 BYTE   W30
 BYTE   N06
 BYTE   W24
 BYTE   N06
 BYTE   W24
 BYTE   PEND 
//  #01 //003   ----------------------------------------
 BYTE   N06
 BYTE   W18
 BYTE   N06
 BYTE   W42
 BYTE   Gn1
 BYTE   W36
//  #01 //004   ----------------------------------------
Label_0100465B:
 BYTE   N06  Gn0  v100
 BYTE   W12
 BYTE   Fn1
 BYTE   W06
 BYTE   An1
 BYTE   W06
 BYTE   Gn1
 BYTE   W06
 BYTE   Cn1
 BYTE   W06
 BYTE   Fn1
 BYTE   W06
 BYTE   Dn1
 BYTE   W06
 BYTE   Gn0
 BYTE   W24
 BYTE   N06
 BYTE   W24
 BYTE   PEND 
//  #01 //005   ----------------------------------------
 BYTE   PATT
  POIN2 Label_01004641
//  #01 //006   ----------------------------------------
 BYTE   PATT
  POIN2 Label_0100464A
//  #01 //007   ----------------------------------------
 BYTE   N06  Gn0  v100
 BYTE   W18
 BYTE   N06
 BYTE   W42
 BYTE   Ds0
 BYTE   W18
 BYTE   N06
 BYTE   W18
//  #01 //008   ----------------------------------------
Label_01004684:
 BYTE   W12
 BYTE   N06  Fn1  v100
 BYTE   W06
 BYTE   An1
 BYTE   W06
 BYTE   Gn1
 BYTE   W06
 BYTE   Cn1
 BYTE   W06
 BYTE   Fn1
 BYTE   W06
 BYTE   Dn1
 BYTE   W06
 BYTE   Gn0
 BYTE   W24
 BYTE   N06
 BYTE   W24
 BYTE   PEND 
//  #01 //009   ----------------------------------------
 BYTE   PATT
  POIN2 Label_01004641
//  #01 //010   ----------------------------------------
 BYTE   PATT
  POIN2 Label_0100464A
//  #01 //011   ----------------------------------------
 BYTE   PATT
  POIN2 Label_01004641
//  #01 //012   ----------------------------------------
 BYTE   PATT
  POIN2 Label_0100465B
//  #01 //013   ----------------------------------------
 BYTE   PATT
  POIN2 Label_01004641
//  #01 //014   ----------------------------------------
 BYTE   PATT
  POIN2 Label_0100464A
//  #01 //015   ----------------------------------------
 BYTE   N06  Gn0  v100
 BYTE   W18
 BYTE   N06
 BYTE   W18
 BYTE   N06
 BYTE   W06
 BYTE   N06
 BYTE   W06
 BYTE   Ds0
 BYTE   W12
 BYTE   N06
 BYTE   W18
 BYTE   N06
 BYTE   W18
//  #01 //016   ----------------------------------------
 BYTE   PATT
  POIN2 Label_01004684
//  #01 //017   ----------------------------------------
 BYTE   PATT
  POIN2 Label_01004641
//  #01 //018   ----------------------------------------
 BYTE   PATT
  POIN2 Label_0100464A
//  #01 //019   ----------------------------------------
 BYTE   PATT
  POIN2 Label_01004641
//  #01 //020   ----------------------------------------
 BYTE   PATT
  POIN2 Label_0100465B
//  #01 //021   ----------------------------------------
 BYTE   PATT
  POIN2 Label_01004641
//  #01 //022   ----------------------------------------
 BYTE   PATT
  POIN2 Label_0100464A
//  #01 //023   ----------------------------------------
 BYTE   N06  Gn0  v100
 BYTE   W18
 BYTE   N06
 BYTE   W18
 BYTE   N06
 BYTE   W24
 BYTE   Ds0
 BYTE   W18
 BYTE   N06
 BYTE   W18
//  #01 //024   ----------------------------------------
 BYTE   PATT
  POIN2 Label_01004684
//  #01 //025   ----------------------------------------
 BYTE   PATT
  POIN2 Label_01004641
//  #01 //026   ----------------------------------------
 BYTE   N06  Gn0  v100
 BYTE   W18
 BYTE   N06
 BYTE   W30
 BYTE   An0
 BYTE   W24
 BYTE   N06
 BYTE   W24
//  #01 //027   ----------------------------------------
 BYTE   N06
 BYTE   W18
 BYTE   N06
 BYTE   W42
 BYTE   N06
 BYTE   W36
//  #01 //028   ----------------------------------------
 BYTE   N06
 BYTE   W12
 BYTE   Fn1
 BYTE   W06
 BYTE   An1
 BYTE   W06
 BYTE   Gn1
 BYTE   W06
 BYTE   Cn1
 BYTE   W06
 BYTE   Fn1
 BYTE   W06
 BYTE   Dn1
 BYTE   W06
 BYTE   As0
 BYTE   W24
 BYTE   N06
 BYTE   W24
//  #01 //029   ----------------------------------------
 BYTE   N06
 BYTE   W18
 BYTE   N06
 BYTE   W42
 BYTE   N06
 BYTE   W36
//  #01 //030   ----------------------------------------
 BYTE   N06
 BYTE   W18
 BYTE   N06
 BYTE   W30
 BYTE   Cn1
 BYTE   W24
 BYTE   N06
 BYTE   W24
//  #01 //031   ----------------------------------------
 BYTE   N06
 BYTE   W18
 BYTE   N06
 BYTE   W42
 BYTE   Ds0
 BYTE   W18
 BYTE   N06
 BYTE   W18
//  #01 //032   ----------------------------------------
 BYTE   PATT
  POIN2 Label_01004684
//  #01 //033   ----------------------------------------
 BYTE   PATT
  POIN2 Label_01004641
//  #01 //034   ----------------------------------------
 BYTE   PATT
  POIN2 Label_0100464A
//  #01 //035   ----------------------------------------
 BYTE   PATT
  POIN2 Label_01004641
//  #01 //036   ----------------------------------------
 BYTE   PATT
  POIN2 Label_0100465B
//  #01 //037   ----------------------------------------
 BYTE   PATT
  POIN2 Label_01004641
//  #01 //038   ----------------------------------------
 BYTE   PATT
  POIN2 Label_0100464A
//  #01 //039   ----------------------------------------
 BYTE   N06  Gn0  v100
 BYTE   W18
 BYTE   N06
 BYTE   W24
 BYTE   N06
 BYTE   W18
 BYTE   Ds0
 BYTE   W18
 BYTE   N06
 BYTE   W18
//  #01 //040   ----------------------------------------
 BYTE   PATT
  POIN2 Label_01004684
//  #01 //041   ----------------------------------------
 BYTE   PATT
  POIN2 Label_01004641
//  #01 //042   ----------------------------------------
 BYTE   PATT
  POIN2 Label_0100464A
//  #01 //043   ----------------------------------------
 BYTE   PATT
  POIN2 Label_01004641
//  #01 //044   ----------------------------------------
 BYTE   PATT
  POIN2 Label_0100465B
//  #01 //045   ----------------------------------------
 BYTE   PATT
  POIN2 Label_01004641
//  #01 //046   ----------------------------------------
 BYTE   PATT
  POIN2 Label_0100464A
//  #01 //047   ----------------------------------------
 BYTE   N06  Gn0  v100
 BYTE   W18
 BYTE   N06
 BYTE   W18
 BYTE   Ds0
 BYTE   W24
 BYTE   N06
 BYTE   W18
 BYTE   N06
 BYTE   W18
//  #01 //048   ----------------------------------------
 BYTE   W12
 BYTE   Fn1
 BYTE   W06
 BYTE   An1
 BYTE   W06
 BYTE   GoTo
  POIN2 Label_01004633
//  #01 //049   ----------------------------------------
 BYTE   N06  Gn1  v100
 BYTE   W06
 BYTE   Cn1
 BYTE   W06
 BYTE   Fn1
 BYTE   W06
 BYTE   Dn1
 BYTE   W06
 BYTE   FINE

//**************** Track 2 (Midi-Chn.1) ****************//

ShinjukuUnderground_002:
//  #02 //000   ----------------------------------------
 BYTE   VOL   50*ShinjukuUnderground_mvl/mxv
 BYTE   KEYSH   ShinjukuUnderground_key+0
 BYTE   VOICE   38
 BYTE   PAN   c_v+40
 BYTE   W12
 BYTE   N06  Fn1  v064
 BYTE   W06
 BYTE   An1
 BYTE   W06
Label_010047FF:
 BYTE   N06  Gn1  v064
 BYTE   W06
 BYTE   Cn1
 BYTE   W06
 BYTE   Fn1
 BYTE   W06
 BYTE   Dn1
 BYTE   W06
 BYTE   Gn0
 BYTE   W24
 BYTE   N06
 BYTE   W24
//  #02 //001   ----------------------------------------
Label_0100480D:
 BYTE   N06  Gn0  v064
 BYTE   W18
 BYTE   N06
 BYTE   W42
 BYTE   N06
 BYTE   W36
 BYTE   PEND 
//  #02 //002   ----------------------------------------
Label_01004816:
 BYTE   N06  Gn0  v064
 BYTE   W18
 BYTE   N06
 BYTE   W30
 BYTE   N06
 BYTE   W24
 BYTE   N06
 BYTE   W24
 BYTE   PEND 
//  #02 //003   ----------------------------------------
 BYTE   N06
 BYTE   W18
 BYTE   N06
 BYTE   W42
 BYTE   Gn1
 BYTE   W36
//  #02 //004   ----------------------------------------
Label_01004827:
 BYTE   N06  Gn0  v064
 BYTE   W12
 BYTE   Fn1
 BYTE   W06
 BYTE   An1
 BYTE   W06
 BYTE   Gn1
 BYTE   W06
 BYTE   Cn1
 BYTE   W06
 BYTE   Fn1
 BYTE   W06
 BYTE   Dn1
 BYTE   W06
 BYTE   Gn0
 BYTE   W24
 BYTE   N06
 BYTE   W24
 BYTE   PEND 
//  #02 //005   ----------------------------------------
 BYTE   PATT
  POIN2 Label_0100480D
//  #02 //006   ----------------------------------------
 BYTE   PATT
  POIN2 Label_01004816
//  #02 //007   ----------------------------------------
 BYTE   N06  Gn0  v064
 BYTE   W18
 BYTE   N06
 BYTE   W42
 BYTE   Ds0
 BYTE   W18
 BYTE   N06
 BYTE   W18
//  #02 //008   ----------------------------------------
 BYTE   W12
 BYTE   Fn1
 BYTE   W06
 BYTE   An1
 BYTE   W06
 BYTE   Gn1
 BYTE   W06
 BYTE   Cn1
 BYTE   W06
 BYTE   Fn1
 BYTE   W06
 BYTE   Dn1
 BYTE   W06
 BYTE   Gn0
 BYTE   W24
 BYTE   N06
 BYTE   W24
//  #02 //009   ----------------------------------------
 BYTE   PATT
  POIN2 Label_0100480D
//  #02 //010   ----------------------------------------
 BYTE   PATT
  POIN2 Label_01004816
//  #02 //011   ----------------------------------------
 BYTE   PATT
  POIN2 Label_0100480D
//  #02 //012   ----------------------------------------
 BYTE   PATT
  POIN2 Label_01004827
//  #02 //013   ----------------------------------------
 BYTE   PATT
  POIN2 Label_0100480D
//  #02 //014   ----------------------------------------
 BYTE   PATT
  POIN2 Label_01004816
//  #02 //015   ----------------------------------------
 BYTE   N06  Gn0  v064
 BYTE   W18
 BYTE   N06
 BYTE   W18
 BYTE   N06
 BYTE   W06
 BYTE   N06
 BYTE   W06
 BYTE   Ds0
 BYTE   W12
 BYTE   N06
 BYTE   W18
 BYTE   N06
 BYTE   W18
//  #02 //016   ----------------------------------------
 BYTE   W12
 BYTE   Fn1
 BYTE   W06
 BYTE   An1
 BYTE   W06
 BYTE   Gn1
 BYTE   W06
 BYTE   Cn1
 BYTE   W06
 BYTE   Fn1
 BYTE   W06
 BYTE   Dn1
 BYTE   W06
 BYTE   Gn0  v060
 BYTE   W24
 BYTE   N06
 BYTE   W24
//  #02 //017   ----------------------------------------
Label_010048A1:
 BYTE   N06  Gn0  v060
 BYTE   W18
 BYTE   N06
 BYTE   W42
 BYTE   N06
 BYTE   W36
 BYTE   PEND 
//  #02 //018   ----------------------------------------
Label_010048AA:
 BYTE   N06  Gn0  v060
 BYTE   W18
 BYTE   N06
 BYTE   W30
 BYTE   N06
 BYTE   W24
 BYTE   N06
 BYTE   W24
 BYTE   PEND 
//  #02 //019   ----------------------------------------
 BYTE   PATT
  POIN2 Label_010048A1
//  #02 //020   ----------------------------------------
Label_010048BA:
 BYTE   N06  Gn0  v060
 BYTE   W12
 BYTE   Fn1
 BYTE   W06
 BYTE   An1
 BYTE   W06
 BYTE   Gn1
 BYTE   W06
 BYTE   Cn1
 BYTE   W06
 BYTE   Fn1
 BYTE   W06
 BYTE   Dn1
 BYTE   W06
 BYTE   Gn0
 BYTE   W24
 BYTE   N06
 BYTE   W24
 BYTE   PEND 
//  #02 //021   ----------------------------------------
 BYTE   PATT
  POIN2 Label_010048A1
//  #02 //022   ----------------------------------------
 BYTE   PATT
  POIN2 Label_010048AA
//  #02 //023   ----------------------------------------
 BYTE   N06  Gn0  v060
 BYTE   W18
 BYTE   N06
 BYTE   W18
 BYTE   N06
 BYTE   W24
 BYTE   Ds0
 BYTE   W18
 BYTE   N06
 BYTE   W18
//  #02 //024   ----------------------------------------
Label_010048E5:
 BYTE   W12
 BYTE   N06  Fn1  v060
 BYTE   W06
 BYTE   An1
 BYTE   W06
 BYTE   Gn1
 BYTE   W06
 BYTE   Cn1
 BYTE   W06
 BYTE   Fn1
 BYTE   W06
 BYTE   Dn1
 BYTE   W06
 BYTE   Gn0
 BYTE   W24
 BYTE   N06
 BYTE   W24
 BYTE   PEND 
//  #02 //025   ----------------------------------------
 BYTE   PATT
  POIN2 Label_010048A1
//  #02 //026   ----------------------------------------
 BYTE   N06  Gn0  v060
 BYTE   W18
 BYTE   N06
 BYTE   W30
 BYTE   An0
 BYTE   W24
 BYTE   N06
 BYTE   W24
//  #02 //027   ----------------------------------------
 BYTE   N06
 BYTE   W18
 BYTE   N06
 BYTE   W42
 BYTE   N06
 BYTE   W36
//  #02 //028   ----------------------------------------
 BYTE   N06
 BYTE   W12
 BYTE   Fn1
 BYTE   W06
 BYTE   An1
 BYTE   W06
 BYTE   Gn1
 BYTE   W06
 BYTE   Cn1
 BYTE   W06
 BYTE   Fn1
 BYTE   W06
 BYTE   Dn1
 BYTE   W06
 BYTE   As0
 BYTE   W24
 BYTE   N06
 BYTE   W24
//  #02 //029   ----------------------------------------
 BYTE   N06
 BYTE   W18
 BYTE   N06
 BYTE   W42
 BYTE   N06
 BYTE   W36
//  #02 //030   ----------------------------------------
 BYTE   N06
 BYTE   W18
 BYTE   N06
 BYTE   W30
 BYTE   Cn1
 BYTE   W24
 BYTE   N06
 BYTE   W24
//  #02 //031   ----------------------------------------
 BYTE   N06
 BYTE   W18
 BYTE   N06
 BYTE   W42
 BYTE   Ds0
 BYTE   W18
 BYTE   N06
 BYTE   W18
//  #02 //032   ----------------------------------------
 BYTE   PATT
  POIN2 Label_010048E5
//  #02 //033   ----------------------------------------
 BYTE   PATT
  POIN2 Label_010048A1
//  #02 //034   ----------------------------------------
 BYTE   PATT
  POIN2 Label_010048AA
//  #02 //035   ----------------------------------------
 BYTE   PATT
  POIN2 Label_010048A1
//  #02 //036   ----------------------------------------
 BYTE   PATT
  POIN2 Label_010048BA
//  #02 //037   ----------------------------------------
 BYTE   PATT
  POIN2 Label_010048A1
//  #02 //038   ----------------------------------------
 BYTE   PATT
  POIN2 Label_010048AA
//  #02 //039   ----------------------------------------
 BYTE   N06  Gn0  v060
 BYTE   W18
 BYTE   N06
 BYTE   W24
 BYTE   N06
 BYTE   W18
 BYTE   Ds0
 BYTE   W18
 BYTE   N06
 BYTE   W18
//  #02 //040   ----------------------------------------
 BYTE   PATT
  POIN2 Label_010048E5
//  #02 //041   ----------------------------------------
 BYTE   PATT
  POIN2 Label_010048A1
//  #02 //042   ----------------------------------------
 BYTE   PATT
  POIN2 Label_010048AA
//  #02 //043   ----------------------------------------
 BYTE   PATT
  POIN2 Label_010048A1
//  #02 //044   ----------------------------------------
 BYTE   PATT
  POIN2 Label_010048BA
//  #02 //045   ----------------------------------------
 BYTE   PATT
  POIN2 Label_010048A1
//  #02 //046   ----------------------------------------
 BYTE   PATT
  POIN2 Label_010048AA
//  #02 //047   ----------------------------------------
 BYTE   N06  Gn0  v060
 BYTE   W18
 BYTE   N06
 BYTE   W18
 BYTE   Ds0
 BYTE   W24
 BYTE   N06
 BYTE   W18
 BYTE   N06
 BYTE   W18
//  #02 //048   ----------------------------------------
 BYTE   W12
 BYTE   Fn1
 BYTE   W06
 BYTE   An1
 BYTE   W06
 BYTE   GoTo
  POIN2 Label_010047FF
//  #02 //049   ----------------------------------------
 BYTE   N06  Gn1  v060
 BYTE   W06
 BYTE   Cn1
 BYTE   W06
 BYTE   Fn1
 BYTE   W06
 BYTE   Dn1
 BYTE   W06
 BYTE   FINE

//**************** Track 3 (Midi-Chn.2) ****************//

ShinjukuUnderground_003:
//  #03 //000   ----------------------------------------
 BYTE   KEYSH   ShinjukuUnderground_key+0
 BYTE   VOICE   100
 BYTE   W24
Label_01004A29:
 BYTE   W24
 BYTE   PAN   c_v-17
 BYTE   VOL   20*ShinjukuUnderground_mvl/mxv
 BYTE   PAN   c_v-17
 BYTE   N06  As2  v100
 BYTE   N06  Dn3
 BYTE   W12
 BYTE   As2
 BYTE   N06  Dn3
 BYTE   W12
 BYTE   As2
 BYTE   N06  Dn3
 BYTE   W12
 BYTE   As2
 BYTE   N06  Dn3
 BYTE   W12
//  #03 //001   ----------------------------------------
Label_01004A42:
 BYTE   N06  As2  v100
 BYTE   N06  Dn3
 BYTE   W12
 BYTE   As2
 BYTE   N06  Dn3
 BYTE   W12
 BYTE   As2
 BYTE   N06  Dn3
 BYTE   W12
 BYTE   As2
 BYTE   N06  Dn3
 BYTE   W12
 BYTE   As2
 BYTE   N06  Dn3
 BYTE   W12
 BYTE   As2
 BYTE   N06  Dn3
 BYTE   W12
 BYTE   As2
 BYTE   N06  Dn3
 BYTE   W12
 BYTE   As2
 BYTE   N06  Dn3
 BYTE   W12
 BYTE   PEND 
//  #03 //002   ----------------------------------------
Label_01004A65:
 BYTE   N06  As2  v100
 BYTE   N06  Dn3
 BYTE   W12
 BYTE   As2
 BYTE   N06  Dn3
 BYTE   W12
 BYTE   As2
 BYTE   N06  Dn3
 BYTE   W12
 BYTE   Gn2
 BYTE   N06  Cn3
 BYTE   W12
 BYTE   Gn2
 BYTE   N06  Cn3
 BYTE   W12
 BYTE   Gn2
 BYTE   N06  Cn3
 BYTE   W12
 BYTE   Gn2
 BYTE   N06  Cn3
 BYTE   W12
 BYTE   Gn2
 BYTE   N06  Cn3
 BYTE   W12
 BYTE   PEND 
//  #03 //003   ----------------------------------------
Label_01004A88:
 BYTE   N06  Gn2  v100
 BYTE   N06  Cn3
 BYTE   W12
 BYTE   Gn2
 BYTE   N06  Cn3
 BYTE   W12
 BYTE   Gn2
 BYTE   N06  Cn3
 BYTE   W12
 BYTE   Gn2
 BYTE   N06  Cn3
 BYTE   W12
 BYTE   Gn2
 BYTE   N06  Cn3
 BYTE   W12
 BYTE   Gn2
 BYTE   N06  Cn3
 BYTE   W12
 BYTE   Gn2
 BYTE   N06  Cn3
 BYTE   W12
 BYTE   Gn2
 BYTE   N06  Cn3
 BYTE   W12
 BYTE   PEND 
//  #03 //004   ----------------------------------------
Label_01004AAB:
 BYTE   N06  Dn3  v100
 BYTE   N06  Fn3
 BYTE   W12
 BYTE   Dn3
 BYTE   N06  Fn3
 BYTE   W12
 BYTE   Dn3
 BYTE   N06  Fn3
 BYTE   W12
 BYTE   As2
 BYTE   N06  Dn3
 BYTE   W12
 BYTE   As2
 BYTE   N06  Dn3
 BYTE   W12
 BYTE   As2
 BYTE   N06  Dn3
 BYTE   W12
 BYTE   As2
 BYTE   N06  Dn3
 BYTE   W12
 BYTE   As2
 BYTE   N06  Dn3
 BYTE   W12
 BYTE   PEND 
//  #03 //005   ----------------------------------------
 BYTE   PATT
  POIN2 Label_01004A42
//  #03 //006   ----------------------------------------
 BYTE   PATT
  POIN2 Label_01004A65
//  #03 //007   ----------------------------------------
Label_01004AD8:
 BYTE   N06  Gn2  v100
 BYTE   N06  Cn3
 BYTE   W12
 BYTE   Gn2
 BYTE   N06  Cn3
 BYTE   W12
 BYTE   Gn2
 BYTE   N06  Cn3
 BYTE   W12
 BYTE   Fn2
 BYTE   N06  As2
 BYTE   W12
 BYTE   Fn2
 BYTE   N06  As2
 BYTE   W12
 BYTE   Fn2
 BYTE   N06  As2
 BYTE   W12
 BYTE   Fn2
 BYTE   N06  As2
 BYTE   W12
 BYTE   Fn2
 BYTE   N06  As2
 BYTE   W12
 BYTE   PEND 
//  #03 //008   ----------------------------------------
Label_01004AFB:
 BYTE   N06  Gn2  v100
 BYTE   N06  Cn3
 BYTE   W12
 BYTE   Gn2
 BYTE   N06  Cn3
 BYTE   W12
 BYTE   Gn2
 BYTE   N06  Cn3
 BYTE   W12
 BYTE   N06
 BYTE   N06  Fn3
 BYTE   W12
 BYTE   As2
 BYTE   N06  Dn3
 BYTE   W12
 BYTE   As2
 BYTE   N06  Dn3
 BYTE   W12
 BYTE   As2
 BYTE   N06  Dn3
 BYTE   W12
 BYTE   As2
 BYTE   N06  Dn3
 BYTE   W12
 BYTE   PEND 
//  #03 //009   ----------------------------------------
 BYTE   PATT
  POIN2 Label_01004A42
//  #03 //010   ----------------------------------------
 BYTE   PATT
  POIN2 Label_01004A65
//  #03 //011   ----------------------------------------
 BYTE   PATT
  POIN2 Label_01004A88
//  #03 //012   ----------------------------------------
 BYTE   PATT
  POIN2 Label_01004AAB
//  #03 //013   ----------------------------------------
 BYTE   PATT
  POIN2 Label_01004A42
//  #03 //014   ----------------------------------------
 BYTE   PATT
  POIN2 Label_01004A65
//  #03 //015   ----------------------------------------
 BYTE   PATT
  POIN2 Label_01004AD8
//  #03 //016   ----------------------------------------
 BYTE   PATT
  POIN2 Label_01004AFB
//  #03 //017   ----------------------------------------
 BYTE   PATT
  POIN2 Label_01004A42
//  #03 //018   ----------------------------------------
 BYTE   PATT
  POIN2 Label_01004A65
//  #03 //019   ----------------------------------------
 BYTE   PATT
  POIN2 Label_01004A88
//  #03 //020   ----------------------------------------
 BYTE   PATT
  POIN2 Label_01004AAB
//  #03 //021   ----------------------------------------
 BYTE   PATT
  POIN2 Label_01004A42
//  #03 //022   ----------------------------------------
 BYTE   PATT
  POIN2 Label_01004A65
//  #03 //023   ----------------------------------------
 BYTE   PATT
  POIN2 Label_01004AD8
//  #03 //024   ----------------------------------------
 BYTE   PATT
  POIN2 Label_01004AFB
//  #03 //025   ----------------------------------------
 BYTE   PATT
  POIN2 Label_01004A42
//  #03 //026   ----------------------------------------
 BYTE   N06  As2  v100
 BYTE   N06  Dn3
 BYTE   W12
 BYTE   As2
 BYTE   N06  Dn3
 BYTE   W12
 BYTE   As2
 BYTE   N06  Dn3
 BYTE   W12
 BYTE   N06
 BYTE   N06  Gn3
 BYTE   W12
 BYTE   Dn3
 BYTE   N06  Gn3
 BYTE   W12
 BYTE   Dn3
 BYTE   N06  Gn3
 BYTE   W12
 BYTE   Dn3
 BYTE   N06  Gn3
 BYTE   W12
 BYTE   Dn3
 BYTE   N06  Gn3
 BYTE   W12
//  #03 //027   ----------------------------------------
 BYTE   Dn3
 BYTE   N06  Gn3
 BYTE   W12
 BYTE   Dn3
 BYTE   N06  Gn3
 BYTE   W12
 BYTE   Dn3
 BYTE   N06  Gn3
 BYTE   W12
 BYTE   An2
 BYTE   N06  Fn3
 BYTE   W12
 BYTE   An2
 BYTE   N06  Fn3
 BYTE   W12
 BYTE   An2
 BYTE   N06  Fn3
 BYTE   W12
 BYTE   An2
 BYTE   N06  Fn3
 BYTE   W12
 BYTE   An2
 BYTE   N06  Fn3
 BYTE   W12
//  #03 //028   ----------------------------------------
 BYTE   An2
 BYTE   N06  Fn3
 BYTE   W12
 BYTE   An2
 BYTE   N06  Fn3
 BYTE   W12
 BYTE   An2
 BYTE   N06  Fn3
 BYTE   W12
 BYTE   Gn2
 BYTE   N06  Fn3
 BYTE   W12
 BYTE   Gn2
 BYTE   N06  Fn3
 BYTE   W12
 BYTE   Gn2
 BYTE   N06  Fn3
 BYTE   W12
 BYTE   Gn2
 BYTE   N06  Fn3
 BYTE   W12
 BYTE   Gn2
 BYTE   N06  Fn3
 BYTE   W12
//  #03 //029   ----------------------------------------
 BYTE   Gn2
 BYTE   N06  Fn3
 BYTE   W12
 BYTE   Gn2
 BYTE   N06  Fn3
 BYTE   W12
 BYTE   Gn2
 BYTE   N06  Fn3
 BYTE   W12
 BYTE   Fn2
 BYTE   N06  Fn3
 BYTE   W12
 BYTE   Fn2
 BYTE   N06  Fn3
 BYTE   W12
 BYTE   Fn2
 BYTE   N06  Fn3
 BYTE   W12
 BYTE   Fn2
 BYTE   N06  Fn3
 BYTE   W12
 BYTE   Gn2
 BYTE   N06  Fn3
 BYTE   W12
//  #03 //030   ----------------------------------------
 BYTE   Gn2
 BYTE   N06  Fn3
 BYTE   W12
 BYTE   Gn2
 BYTE   N06  Fn3
 BYTE   W12
 BYTE   Gn2
 BYTE   N06  Fn3
 BYTE   W12
 BYTE   Gn2
 BYTE   N06  Cn3
 BYTE   W12
 BYTE   Gn2
 BYTE   N06  Cn3
 BYTE   W12
 BYTE   Gn2
 BYTE   N06  Cn3
 BYTE   W12
 BYTE   Gn2
 BYTE   N06  Cn3
 BYTE   W12
 BYTE   Gn2
 BYTE   N06  Cn3
 BYTE   W12
//  #03 //031   ----------------------------------------
 BYTE   PATT
  POIN2 Label_01004AD8
//  #03 //032   ----------------------------------------
 BYTE   N06  Gn2  v100
 BYTE   N06  Cn3
 BYTE   W12
 BYTE   Gn2
 BYTE   N06  Cn3
 BYTE   W12
 BYTE   Gn2
 BYTE   N06  Cn3
 BYTE   W12
 BYTE   N06
 BYTE   N06  Fn3
 BYTE   W60
//  #03 //033   ----------------------------------------
 BYTE   W96
//  #03 //034   ----------------------------------------
 BYTE   W96
//  #03 //035   ----------------------------------------
 BYTE   W96
//  #03 //036   ----------------------------------------
 BYTE   W96
//  #03 //037   ----------------------------------------
 BYTE   W96
//  #03 //038   ----------------------------------------
 BYTE   W96
//  #03 //039   ----------------------------------------
 BYTE   W96
//  #03 //040   ----------------------------------------
 BYTE   W96
//  #03 //041   ----------------------------------------
 BYTE   W96
//  #03 //042   ----------------------------------------
 BYTE   W96
//  #03 //043   ----------------------------------------
 BYTE   W96
//  #03 //044   ----------------------------------------
 BYTE   W96
//  #03 //045   ----------------------------------------
 BYTE   W96
//  #03 //046   ----------------------------------------
 BYTE   W96
//  #03 //047   ----------------------------------------
 BYTE   W96
//  #03 //048   ----------------------------------------
 BYTE   W24
 BYTE   GoTo
  POIN2 Label_01004A29
//  #03 //049   ----------------------------------------
 BYTE   W24
 BYTE   FINE

//**************** Track 4 (Midi-Chn.3) ****************//

ShinjukuUnderground_004:
//  #04 //000   ----------------------------------------
 BYTE   KEYSH   ShinjukuUnderground_key+0
 BYTE   VOICE   100
 BYTE   W24
Label_01005185:
 BYTE   W24
 BYTE   VOL   12*ShinjukuUnderground_mvl/mxv
 BYTE   PAN   c_v+38
 BYTE   VOL   12*ShinjukuUnderground_mvl/mxv
 BYTE   PAN   c_v+38
 BYTE   N06  As2  v096
 BYTE   N06  Dn3  v100
 BYTE   W11
 BYTE   As2  v096
 BYTE   W01
 BYTE   Dn3  v104
 BYTE   W12
 BYTE   As2  v096
 BYTE   N06  Dn3  v100
 BYTE   W11
 BYTE   As2  v096
 BYTE   W01
 BYTE   Dn3
 BYTE   W12
//  #04 //001   ----------------------------------------
 BYTE   As2  v100
 BYTE   N06  Dn3
 BYTE   W11
 BYTE   As2
 BYTE   W01
 BYTE   Dn3  v096
 BYTE   W10
 BYTE   As2
 BYTE   W01
 BYTE   Dn3  v100
 BYTE   W12
 BYTE   As2
 BYTE   W01
 BYTE   Dn3  v096
 BYTE   W11
 BYTE   N06
 BYTE   W01
 BYTE   As2
 BYTE   W11
 BYTE   Dn3  v104
 BYTE   W01
 BYTE   As2  v100
 BYTE   W11
 BYTE   N06
 BYTE   N06  Dn3  v096
 BYTE   W12
 BYTE   Dn3  v100
 BYTE   W01
 BYTE   As2
 BYTE   W12
//  #04 //002   ----------------------------------------
 BYTE   N06
 BYTE   N06  Dn3  v104
 BYTE   W11
 BYTE   As2  v100
 BYTE   W01
 BYTE   Dn3
 BYTE   W12
 BYTE   As2
 BYTE   N06  Dn3  v092
 BYTE   W12
 BYTE   Gn2  v100
 BYTE   W01
 BYTE   Cn3
 BYTE   W10
 BYTE   Gn2  v096
 BYTE   W01
 BYTE   Cn3  v108
 BYTE   W11
 BYTE   Gn2  v100
 BYTE   N06  Cn3  v104
 BYTE   W12
 BYTE   Cn3  v096
 BYTE   W01
 BYTE   Gn2  v100
 BYTE   W11
 BYTE   N06
 BYTE   W01
 BYTE   Cn3
 BYTE   W11
 BYTE   Gn2
 BYTE   N06  Cn3
 BYTE   W01
//  #04 //003   ----------------------------------------
 BYTE   W11
 BYTE   Cn3  v096
 BYTE   W01
 BYTE   Gn2  v100
 BYTE   W11
 BYTE   N06
 BYTE   W01
 BYTE   Cn3  v104
 BYTE   W12
 BYTE   Gn2  v100
 BYTE   N06  Cn3
 BYTE   W12
 BYTE   Gn2
 BYTE   N06  Cn3
 BYTE   W11
 BYTE   N06
 BYTE   W02
 BYTE   Gn2  v104
 BYTE   W10
 BYTE   Gn2  v096
 BYTE   N06  Cn3  v100
 BYTE   W12
 BYTE   Gn2
 BYTE   N06  Cn3
 BYTE   W12
 BYTE   Dn3
 BYTE   W01
//  #04 //004   ----------------------------------------
 BYTE   Fn3
 BYTE   W11
 BYTE   Dn3
 BYTE   N06  Fn3  v096
 BYTE   W12
 BYTE   Fn3  v092
 BYTE   W01
 BYTE   Dn3  v100
 BYTE   W11
 BYTE   As2
 BYTE   N06  Dn3
 BYTE   W11
 BYTE   Dn3  v092
 BYTE   W02
 BYTE   As2  v096
 BYTE   W11
 BYTE   As2  v100
 BYTE   N06  Dn3
 BYTE   W13
 BYTE   As2  v096
 BYTE   N06  Dn3  v100
 BYTE   W11
 BYTE   As2
 BYTE   W01
 BYTE   Dn3
 BYTE   W12
//  #04 //005   ----------------------------------------
 BYTE   As2  v096
 BYTE   N06  Dn3  v100
 BYTE   W11
 BYTE   N06
 BYTE   W01
 BYTE   As2  v104
 BYTE   W11
 BYTE   As2  v096
 BYTE   W02
 BYTE   Dn3
 BYTE   W10
 BYTE   As2
 BYTE   W01
 BYTE   Dn3
 BYTE   W11
 BYTE   Dn3  v100
 BYTE   W01
 BYTE   As2
 BYTE   W11
 BYTE   Dn3  v096
 BYTE   W01
 BYTE   As2  v100
 BYTE   W11
 BYTE   Dn3
 BYTE   W01
 BYTE   As2
 BYTE   W11
 BYTE   Dn3
 BYTE   W01
 BYTE   As2  v096
 BYTE   W12
//  #04 //006   ----------------------------------------
 BYTE   As2  v104
 BYTE   N06  Dn3  v100
 BYTE   W11
 BYTE   As2
 BYTE   N06  Dn3  v096
 BYTE   W13
 BYTE   As2  v104
 BYTE   N06  Dn3  v100
 BYTE   W11
 BYTE   Gn2  v096
 BYTE   W01
 BYTE   Cn3
 BYTE   W11
 BYTE   N06
 BYTE   W01
 BYTE   Gn2  v100
 BYTE   W11
 BYTE   N06
 BYTE   N06  Cn3  v096
 BYTE   W12
 BYTE   Gn2
 BYTE   W01
 BYTE   Cn3  v104
 BYTE   W12
 BYTE   Gn2  v100
 BYTE   N06  Cn3  v096
 BYTE   W11
 BYTE   Gn2  v104
 BYTE   N06  Cn3  v092
 BYTE   W01
//  #04 //007   ----------------------------------------
 BYTE   W12
 BYTE   Gn2  v100
 BYTE   N06  Cn3  v092
 BYTE   W11
 BYTE   Gn2  v104
 BYTE   N06  Cn3  v100
 BYTE   W12
 BYTE   Fn2
 BYTE   W01
 BYTE   As2  v096
 BYTE   W11
 BYTE   Fn2  v100
 BYTE   W01
 BYTE   As2
 BYTE   W12
 BYTE   Fn2
 BYTE   W01
 BYTE   As2
 BYTE   W11
 BYTE   Fn2  v104
 BYTE   N06  As2  v100
 BYTE   W12
 BYTE   Fn2
 BYTE   N06  As2  v104
 BYTE   W11
 BYTE   Gn2  v100
 BYTE   N06  Cn3
 BYTE   W01
//  #04 //008   ----------------------------------------
 BYTE   W11
 BYTE   Gn2
 BYTE   W01
 BYTE   Cn3  v096
 BYTE   W11
 BYTE   Gn2  v092
 BYTE   N06  Cn3  v100
 BYTE   W13
 BYTE   N06
 BYTE   N06  Fn3
 BYTE   W12
 BYTE   As2
 BYTE   N06  Dn3  v096
 BYTE   W11
 BYTE   Dn3  v100
 BYTE   W01
 BYTE   As2
 BYTE   W12
 BYTE   N06
 BYTE   N06  Dn3  v096
 BYTE   W12
 BYTE   As2  v100
 BYTE   N06  Dn3  v096
 BYTE   W11
 BYTE   As2
 BYTE   W01
//  #04 //009   ----------------------------------------
 BYTE   Dn3  v104
 BYTE   W12
 BYTE   As2  v100
 BYTE   N06  Dn3
 BYTE   W11
 BYTE   As2
 BYTE   W01
 BYTE   Dn3  v096
 BYTE   W11
 BYTE   As2
 BYTE   N06  Dn3
 BYTE   W12
 BYTE   As2  v100
 BYTE   N06  Dn3  v096
 BYTE   W12
 BYTE   N06
 BYTE   W01
 BYTE   As2
 BYTE   W11
 BYTE   Dn3
 BYTE   W01
 BYTE   As2  v100
 BYTE   W12
 BYTE   N06
 BYTE   N06  Dn3
 BYTE   W11
 BYTE   As2
 BYTE   N06  Dn3
 BYTE   W01
//  #04 //010   ----------------------------------------
 BYTE   W11
 BYTE   As2
 BYTE   N06  Dn3
 BYTE   W12
 BYTE   As2
 BYTE   N06  Dn3
 BYTE   W12
 BYTE   Gn2
 BYTE   W01
 BYTE   Cn3  v096
 BYTE   W12
 BYTE   Gn2
 BYTE   N06  Cn3  v100
 BYTE   W11
 BYTE   Cn3  v104
 BYTE   W01
 BYTE   Gn2
 BYTE   W11
 BYTE   Gn2  v096
 BYTE   N06  Cn3  v104
 BYTE   W12
 BYTE   Gn2  v100
 BYTE   N06  Cn3
 BYTE   W12
 BYTE   Gn2
 BYTE   N06  Cn3
 BYTE   W01
//  #04 //011   ----------------------------------------
 BYTE   W11
 BYTE   Gn2  v104
 BYTE   W01
 BYTE   Cn3
 BYTE   W12
 BYTE   Gn2  v100
 BYTE   N06  Cn3
 BYTE   W11
 BYTE   Gn2  v096
 BYTE   W01
 BYTE   Cn3  v100
 BYTE   W12
 BYTE   Gn2
 BYTE   N06  Cn3
 BYTE   W11
 BYTE   Cn3  v096
 BYTE   W01
 BYTE   Gn2
 BYTE   W11
 BYTE   Gn2  v100
 BYTE   W01
 BYTE   Cn3
 BYTE   W11
 BYTE   Gn2  v096
 BYTE   W01
 BYTE   Cn3  v100
 BYTE   W11
 BYTE   Dn3
 BYTE   N06  Fn3  v096
 BYTE   W01
//  #04 //012   ----------------------------------------
 BYTE   W11
 BYTE   Dn3
 BYTE   N06  Fn3
 BYTE   W12
 BYTE   Fn3  v100
 BYTE   W01
 BYTE   Dn3
 BYTE   W12
 BYTE   As2  v096
 BYTE   N06  Dn3  v100
 BYTE   W12
 BYTE   As2  v096
 BYTE   N06  Dn3  v100
 BYTE   W11
 BYTE   As2
 BYTE   N06  Dn3
 BYTE   W12
 BYTE   As2  v104
 BYTE   N06  Dn3  v092
 BYTE   W11
 BYTE   Dn3  v096
 BYTE   W02
 BYTE   As2  v100
 BYTE   W11
 BYTE   Dn3  v104
 BYTE   W01
//  #04 //013   ----------------------------------------
 BYTE   As2
 BYTE   W11
 BYTE   N06
 BYTE   N06  Dn3  v096
 BYTE   W11
 BYTE   As2  v100
 BYTE   W01
 BYTE   Dn3
 BYTE   W12
 BYTE   As2  v104
 BYTE   N06  Dn3  v100
 BYTE   W12
 BYTE   As2  v096
 BYTE   N06  Dn3
 BYTE   W12
 BYTE   As2  v104
 BYTE   N06  Dn3  v100
 BYTE   W12
 BYTE   As2
 BYTE   N06  Dn3
 BYTE   W13
 BYTE   As2
 BYTE   N06  Dn3
 BYTE   W12
//  #04 //014   ----------------------------------------
 BYTE   As2
 BYTE   N06  Dn3
 BYTE   W12
 BYTE   As2
 BYTE   N06  Dn3
 BYTE   W11
 BYTE   As2  v096
 BYTE   N06  Dn3  v100
 BYTE   W12
 BYTE   Gn2
 BYTE   W01
 BYTE   Cn3
 BYTE   W11
 BYTE   Gn2
 BYTE   W01
 BYTE   Cn3  v096
 BYTE   W11
 BYTE   N06
 BYTE   W01
 BYTE   Gn2
 BYTE   W11
 BYTE   N06
 BYTE   W01
 BYTE   Cn3  v092
 BYTE   W11
 BYTE   Gn2  v100
 BYTE   W01
 BYTE   Cn3  v096
 BYTE   W11
 BYTE   Gn2
 BYTE   W01
//  #04 //015   ----------------------------------------
 BYTE   Cn3
 BYTE   W11
 BYTE   N06
 BYTE   W01
 BYTE   Gn2  v100
 BYTE   W12
 BYTE   N06
 BYTE   N06  Cn3  v096
 BYTE   W12
 BYTE   Fn2  v100
 BYTE   N06  As2
 BYTE   W12
 BYTE   Fn2  v096
 BYTE   N06  As2
 BYTE   W11
 BYTE   Fn2  v100
 BYTE   W01
 BYTE   As2
 BYTE   W11
 BYTE   As2  v096
 BYTE   W01
 BYTE   Fn2
 BYTE   W12
 BYTE   Fn2  v100
 BYTE   N06  As2  v104
 BYTE   W11
 BYTE   Gn2  v100
 BYTE   N06  Cn3
 BYTE   W01
//  #04 //016   ----------------------------------------
 BYTE   W11
 BYTE   Gn2
 BYTE   N06  Cn3
 BYTE   W11
 BYTE   N06
 BYTE   W01
 BYTE   Gn2  v104
 BYTE   W12
 BYTE   Fn3
 BYTE   W02
 BYTE   Cn3  v100
 BYTE   W10
 BYTE   As2
 BYTE   N06  Dn3  v096
 BYTE   W13
 BYTE   As2  v100
 BYTE   N06  Dn3
 BYTE   W11
 BYTE   As2  v104
 BYTE   W01
 BYTE   Dn3  v096
 BYTE   W11
 BYTE   As2  v100
 BYTE   N06  Dn3  v096
 BYTE   W12
 BYTE   Dn3  v104
 BYTE   W01
//  #04 //017   ----------------------------------------
 BYTE   As2  v100
 BYTE   W11
 BYTE   As2  v096
 BYTE   W01
 BYTE   Dn3
 BYTE   W11
 BYTE   Dn3  v100
 BYTE   W01
 BYTE   As2  v096
 BYTE   W12
 BYTE   N06
 BYTE   N06  Dn3
 BYTE   W11
 BYTE   As2  v104
 BYTE   N06  Dn3  v096
 BYTE   W12
 BYTE   As2  v092
 BYTE   W01
 BYTE   Dn3  v100
 BYTE   W12
 BYTE   As2
 BYTE   N06  Dn3
 BYTE   W11
 BYTE   As2
 BYTE   N06  Dn3  v096
 BYTE   W13
//  #04 //018   ----------------------------------------
 BYTE   As2  v104
 BYTE   W01
 BYTE   Dn3  v100
 BYTE   W10
 BYTE   As2  v104
 BYTE   N06  Dn3  v100
 BYTE   W12
 BYTE   As2
 BYTE   N06  Dn3
 BYTE   W12
 BYTE   Gn2  v096
 BYTE   W01
 BYTE   Cn3
 BYTE   W12
 BYTE   Gn2  v100
 BYTE   N06  Cn3  v096
 BYTE   W11
 BYTE   Gn2  v104
 BYTE   N06  Cn3  v100
 BYTE   W13
 BYTE   Gn2
 BYTE   N06  Cn3
 BYTE   W11
 BYTE   N06
 BYTE   W01
 BYTE   Gn2
 BYTE   W11
 BYTE   Gn2  v104
 BYTE   W01
//  #04 //019   ----------------------------------------
 BYTE   Cn3  v100
 BYTE   W12
 BYTE   Gn2  v096
 BYTE   N06  Cn3  v100
 BYTE   W11
 BYTE   Cn3  v104
 BYTE   W01
 BYTE   Gn2
 BYTE   W11
 BYTE   Cn3  v100
 BYTE   W01
 BYTE   Gn2
 BYTE   W11
 BYTE   Gn2  v096
 BYTE   W01
 BYTE   Cn3  v100
 BYTE   W11
 BYTE   Cn3  v096
 BYTE   W01
 BYTE   Gn2  v100
 BYTE   W12
 BYTE   Gn2  v104
 BYTE   N06  Cn3  v096
 BYTE   W11
 BYTE   Gn2  v100
 BYTE   W01
 BYTE   Cn3
 BYTE   W11
 BYTE   Dn3  v096
 BYTE   N06  Fn3  v100
 BYTE   W01
//  #04 //020   ----------------------------------------
 BYTE   W12
 BYTE   Dn3
 BYTE   N06  Fn3  v096
 BYTE   W11
 BYTE   Dn3
 BYTE   W01
 BYTE   Fn3  v104
 BYTE   W11
 BYTE   As2
 BYTE   W01
 BYTE   Dn3  v096
 BYTE   W10
 BYTE   Dn3  v100
 BYTE   W02
 BYTE   As2
 BYTE   W11
 BYTE   N06
 BYTE   N06  Dn3
 BYTE   W12
 BYTE   N06
 BYTE   W01
 BYTE   As2  v096
 BYTE   W11
 BYTE   As2  v100
 BYTE   W01
 BYTE   Dn3
 BYTE   W11
 BYTE   As2
 BYTE   N06  Dn3
 BYTE   W01
//  #04 //021   ----------------------------------------
 BYTE   W11
 BYTE   As2
 BYTE   W01
 BYTE   Dn3  v104
 BYTE   W11
 BYTE   As2
 BYTE   N06  Dn3  v100
 BYTE   W12
 BYTE   N06
 BYTE   W01
 BYTE   As2
 BYTE   W12
 BYTE   As2  v104
 BYTE   N06  Dn3  v100
 BYTE   W11
 BYTE   As2  v096
 BYTE   W01
 BYTE   Dn3
 BYTE   W11
 BYTE   As2  v104
 BYTE   W01
 BYTE   Dn3
 BYTE   W11
 BYTE   As2  v092
 BYTE   N06  Dn3  v100
 BYTE   W12
 BYTE   As2  v096
 BYTE   W01
//  #04 //022   ----------------------------------------
 BYTE   Dn3  v100
 BYTE   W11
 BYTE   N06
 BYTE   W01
 BYTE   As2
 BYTE   W11
 BYTE   Dn3
 BYTE   W01
 BYTE   As2
 BYTE   W11
 BYTE   Cn3  v104
 BYTE   W01
 BYTE   Gn2  v100
 BYTE   W12
 BYTE   N06
 BYTE   N06  Cn3  v104
 BYTE   W11
 BYTE   Gn2
 BYTE   N06  Cn3
 BYTE   W13
 BYTE   Gn2  v100
 BYTE   N06  Cn3
 BYTE   W11
 BYTE   Gn2  v104
 BYTE   N06  Cn3  v100
 BYTE   W12
 BYTE   Gn2  v096
 BYTE   W01
//  #04 //023   ----------------------------------------
 BYTE   Cn3  v100
 BYTE   W11
 BYTE   Gn2
 BYTE   N06  Cn3
 BYTE   W12
 BYTE   Gn2
 BYTE   N06  Cn3
 BYTE   W12
 BYTE   As2
 BYTE   W01
 BYTE   Fn2
 BYTE   W12
 BYTE   N06
 BYTE   N06  As2
 BYTE   W12
 BYTE   Fn2
 BYTE   N06  As2
 BYTE   W11
 BYTE   Fn2  v104
 BYTE   N06  As2  v100
 BYTE   W12
 BYTE   Fn2
 BYTE   N06  As2  v096
 BYTE   W12
 BYTE   Gn2
 BYTE   W01
//  #04 //024   ----------------------------------------
 BYTE   Cn3  v100
 BYTE   W12
 BYTE   Gn2
 BYTE   N06  Cn3
 BYTE   W10
 BYTE   Cn3  v096
 BYTE   W01
 BYTE   Gn2  v100
 BYTE   W12
 BYTE   Cn3  v096
 BYTE   W01
 BYTE   Fn3
 BYTE   W11
 BYTE   As2  v100
 BYTE   W01
 BYTE   Dn3
 BYTE   W11
 BYTE   N06
 BYTE   W01
 BYTE   As2
 BYTE   W11
 BYTE   Dn3
 BYTE   W01
 BYTE   As2  v096
 BYTE   W10
 BYTE   As2  v100
 BYTE   W02
 BYTE   Dn3
 BYTE   W12
//  #04 //025   ----------------------------------------
 BYTE   As2  v096
 BYTE   N06  Dn3  v100
 BYTE   W11
 BYTE   Dn3  v104
 BYTE   W01
 BYTE   As2  v100
 BYTE   W10
 BYTE   Dn3
 BYTE   W01
 BYTE   As2  v096
 BYTE   W13
 BYTE   As2  v100
 BYTE   N06  Dn3  v096
 BYTE   W11
 BYTE   As2  v100
 BYTE   W01
 BYTE   Dn3
 BYTE   W11
 BYTE   As2
 BYTE   W01
 BYTE   Dn3
 BYTE   W11
 BYTE   As2  v104
 BYTE   W01
 BYTE   Dn3  v100
 BYTE   W11
 BYTE   As2  v096
 BYTE   N06  Dn3  v100
 BYTE   W12
 BYTE   N06
 BYTE   W01
//  #04 //026   ----------------------------------------
 BYTE   As2
 BYTE   W11
 BYTE   N06
 BYTE   N06  Dn3  v104
 BYTE   W12
 BYTE   As2  v100
 BYTE   W01
 BYTE   Dn3  v096
 BYTE   W12
 BYTE   Dn3  v104
 BYTE   N06  Gn3  v100
 BYTE   W11
 BYTE   Dn3  v092
 BYTE   N06  Gn3  v100
 BYTE   W13
 BYTE   Dn3  v104
 BYTE   N06  Gn3  v100
 BYTE   W11
 BYTE   Dn3  v096
 BYTE   W01
 BYTE   Gn3  v100
 BYTE   W11
 BYTE   Dn3
 BYTE   N06  Gn3
 BYTE   W12
 BYTE   Dn3  v104
 BYTE   N06  Gn3  v096
 BYTE   W01
//  #04 //027   ----------------------------------------
 BYTE   W12
 BYTE   Dn3
 BYTE   N06  Gn3  v100
 BYTE   W11
 BYTE   N06
 BYTE   W01
 BYTE   Dn3
 BYTE   W11
 BYTE   An2
 BYTE   W01
 BYTE   Fn3
 BYTE   W11
 BYTE   N06
 BYTE   W01
 BYTE   An2  v096
 BYTE   W12
 BYTE   An2  v100
 BYTE   N06  Fn3
 BYTE   W11
 BYTE   Fn3  v096
 BYTE   W01
 BYTE   An2
 BYTE   W12
 BYTE   N06
 BYTE   N06  Fn3  v100
 BYTE   W12
//  #04 //028   ----------------------------------------
 BYTE   An2
 BYTE   N06  Fn3
 BYTE   W12
 BYTE   An2
 BYTE   N06  Fn3  v092
 BYTE   W12
 BYTE   An2  v100
 BYTE   N06  Fn3  v096
 BYTE   W11
 BYTE   Gn2  v108
 BYTE   N06  Fn3  v096
 BYTE   W12
 BYTE   Gn2
 BYTE   N06  Fn3  v104
 BYTE   W12
 BYTE   Gn2
 BYTE   N06  Fn3  v100
 BYTE   W13
 BYTE   Gn2
 BYTE   N06  Fn3  v104
 BYTE   W11
 BYTE   Fn3  v100
 BYTE   W01
 BYTE   Gn2
 BYTE   W12
//  #04 //029   ----------------------------------------
 BYTE   N06
 BYTE   N06  Fn3  v104
 BYTE   W12
 BYTE   Gn2  v096
 BYTE   N06  Fn3  v100
 BYTE   W11
 BYTE   Gn2  v096
 BYTE   N06  Fn3  v100
 BYTE   W12
 BYTE   Fn2
 BYTE   N06  Fn3  v096
 BYTE   W12
 BYTE   Fn3  v100
 BYTE   W01
 BYTE   Fn2
 BYTE   W12
 BYTE   Fn2  v108
 BYTE   N06  Fn3  v104
 BYTE   W11
 BYTE   Fn2  v100
 BYTE   N06  Fn3  v096
 BYTE   W12
 BYTE   Gn2
 BYTE   W01
 BYTE   Fn3  v104
 BYTE   W12
//  #04 //030   ----------------------------------------
 BYTE   Gn2  v100
 BYTE   N06  Fn3  v096
 BYTE   W11
 BYTE   Gn2  v100
 BYTE   N06  Fn3
 BYTE   W12
 BYTE   Fn3  v096
 BYTE   W01
 BYTE   Gn2
 BYTE   W11
 BYTE   Cn3  v100
 BYTE   W01
 BYTE   Gn2
 BYTE   W12
 BYTE   N06
 BYTE   W01
 BYTE   Cn3  v104
 BYTE   W10
 BYTE   N06
 BYTE   W01
 BYTE   Gn2  v096
 BYTE   W11
 BYTE   Cn3  v100
 BYTE   W01
 BYTE   Gn2
 BYTE   W11
 BYTE   Cn3
 BYTE   W01
 BYTE   Gn2  v096
 BYTE   W11
 BYTE   Cn3  v100
 BYTE   W01
//  #04 //031   ----------------------------------------
 BYTE   Gn2  v104
 BYTE   W12
 BYTE   Gn2  v100
 BYTE   N06  Cn3
 BYTE   W11
 BYTE   N06
 BYTE   W01
 BYTE   Gn2
 BYTE   W12
 BYTE   Fn2  v096
 BYTE   W01
 BYTE   As2
 BYTE   W11
 BYTE   Fn2  v100
 BYTE   N06  As2  v096
 BYTE   W12
 BYTE   As2  v100
 BYTE   W01
 BYTE   Fn2  v096
 BYTE   W10
 BYTE   As2
 BYTE   W01
 BYTE   Fn2  v100
 BYTE   W11
 BYTE   Fn2  v104
 BYTE   W01
 BYTE   As2  v100
 BYTE   W11
 BYTE   Gn2
 BYTE   N06  Cn3
 BYTE   W01
//  #04 //032   ----------------------------------------
 BYTE   W11
 BYTE   Cn3  v096
 BYTE   W01
 BYTE   Gn2  v104
 BYTE   W11
 BYTE   Gn2  v100
 BYTE   W01
 BYTE   Cn3  v108
 BYTE   W11
 BYTE   Cn3  v104
 BYTE   W01
 BYTE   Fn3  v096
 BYTE   W60
//  #04 //033   ----------------------------------------
 BYTE   W96
//  #04 //034   ----------------------------------------
 BYTE   W96
//  #04 //035   ----------------------------------------
 BYTE   W96
//  #04 //036   ----------------------------------------
 BYTE   W96
//  #04 //037   ----------------------------------------
 BYTE   W96
//  #04 //038   ----------------------------------------
 BYTE   W96
//  #04 //039   ----------------------------------------
 BYTE   W96
//  #04 //040   ----------------------------------------
 BYTE   W96
//  #04 //041   ----------------------------------------
 BYTE   W96
//  #04 //042   ----------------------------------------
 BYTE   W96
//  #04 //043   ----------------------------------------
 BYTE   W96
//  #04 //044   ----------------------------------------
 BYTE   W96
//  #04 //045   ----------------------------------------
 BYTE   W96
//  #04 //046   ----------------------------------------
 BYTE   W96
//  #04 //047   ----------------------------------------
 BYTE   W96
//  #04 //048   ----------------------------------------
 BYTE   W24
 BYTE   GoTo
  POIN2 Label_01005185
//  #04 //049   ----------------------------------------
 BYTE   W24
 BYTE   FINE

//**************** Track 5 (Midi-Chn.4) ****************//

ShinjukuUnderground_005:
//  #05 //000   ----------------------------------------
 BYTE   KEYSH   ShinjukuUnderground_key+0
 BYTE   VOICE   4
 BYTE   W24
Label_F515B9:
 BYTE   W72
//  #05 //001   ----------------------------------------
 BYTE   W96
//  #05 //002   ----------------------------------------
 BYTE   W96
//  #05 //003   ----------------------------------------
 BYTE   W96
//  #05 //004   ----------------------------------------
 BYTE   W48
 BYTE   PAN   c_v+25
 BYTE   VOL   35*ShinjukuUnderground_mvl/mxv
 BYTE   PAN   c_v+25
 BYTE   W12
 BYTE   N06  Dn3  v096
 BYTE   W12
 BYTE   Cn3
 BYTE   W24
//  #05 //005   ----------------------------------------
Label_F515CB:
 BYTE   N06  Dn3  v096
 BYTE   W18
 BYTE   Cn3
 BYTE   W42
 BYTE   Dn3
 BYTE   W12
 BYTE   Cn3
 BYTE   W24
 BYTE   PEND 
//  #05 //006   ----------------------------------------
Label_F515D6:
 BYTE   N06  Dn3  v096
 BYTE   W24
 BYTE   Cn3
 BYTE   W36
 BYTE   Dn3
 BYTE   W12
 BYTE   Cn3
 BYTE   W24
 BYTE   PEND 
//  #05 //007   ----------------------------------------
 BYTE   PATT
  POIN2 Label_F515CB
//  #05 //008   ----------------------------------------
Label_F515E6:
 BYTE   N06  Dn3  v096
 BYTE   W48
 BYTE   PAN   c_v+25
 BYTE   VOL   35*ShinjukuUnderground_mvl/mxv
 BYTE   PAN   c_v+25
 BYTE   W12
 BYTE   N06
 BYTE   W12
 BYTE   Cn3
 BYTE   W24
 BYTE   PEND 
//  #05 //009   ----------------------------------------
 BYTE   PATT
  POIN2 Label_F515CB
//  #05 //010   ----------------------------------------
 BYTE   PATT
  POIN2 Label_F515D6
//  #05 //011   ----------------------------------------
 BYTE   PATT
  POIN2 Label_F515CB
//  #05 //012   ----------------------------------------
 BYTE   PATT
  POIN2 Label_F515E6
//  #05 //013   ----------------------------------------
 BYTE   PATT
  POIN2 Label_F515CB
//  #05 //014   ----------------------------------------
 BYTE   PATT
  POIN2 Label_F515D6
//  #05 //015   ----------------------------------------
 BYTE   PATT
  POIN2 Label_F515CB
//  #05 //016   ----------------------------------------
 BYTE   PATT
  POIN2 Label_F515E6
//  #05 //017   ----------------------------------------
 BYTE   PATT
  POIN2 Label_F515CB
//  #05 //018   ----------------------------------------
 BYTE   PATT
  POIN2 Label_F515D6
//  #05 //019   ----------------------------------------
 BYTE   PATT
  POIN2 Label_F515CB
//  #05 //020   ----------------------------------------
 BYTE   PATT
  POIN2 Label_F515E6
//  #05 //021   ----------------------------------------
 BYTE   PATT
  POIN2 Label_F515CB
//  #05 //022   ----------------------------------------
 BYTE   PATT
  POIN2 Label_F515D6
//  #05 //023   ----------------------------------------
 BYTE   PATT
  POIN2 Label_F515CB
//  #05 //024   ----------------------------------------
 BYTE   PATT
  POIN2 Label_F515E6
//  #05 //025   ----------------------------------------
 BYTE   PATT
  POIN2 Label_F515CB
//  #05 //026   ----------------------------------------
 BYTE   PATT
  POIN2 Label_F515D6
//  #05 //027   ----------------------------------------
 BYTE   PATT
  POIN2 Label_F515CB
//  #05 //028   ----------------------------------------
 BYTE   PATT
  POIN2 Label_F515E6
//  #05 //029   ----------------------------------------
 BYTE   PATT
  POIN2 Label_F515CB
//  #05 //030   ----------------------------------------
 BYTE   PATT
  POIN2 Label_F515D6
//  #05 //031   ----------------------------------------
 BYTE   PATT
  POIN2 Label_F515CB
//  #05 //032   ----------------------------------------
 BYTE   PATT
  POIN2 Label_F515E6
//  #05 //033   ----------------------------------------
 BYTE   PATT
  POIN2 Label_F515CB
//  #05 //034   ----------------------------------------
 BYTE   PATT
  POIN2 Label_F515D6
//  #05 //035   ----------------------------------------
 BYTE   PATT
  POIN2 Label_F515CB
//  #05 //036   ----------------------------------------
 BYTE   PATT
  POIN2 Label_F515E6
//  #05 //037   ----------------------------------------
 BYTE   PATT
  POIN2 Label_F515CB
//  #05 //038   ----------------------------------------
 BYTE   PATT
  POIN2 Label_F515D6
//  #05 //039   ----------------------------------------
 BYTE   PATT
  POIN2 Label_F515CB
//  #05 //040   ----------------------------------------
 BYTE   PATT
  POIN2 Label_F515E6
//  #05 //041   ----------------------------------------
 BYTE   PATT
  POIN2 Label_F515CB
//  #05 //042   ----------------------------------------
 BYTE   PATT
  POIN2 Label_F515D6
//  #05 //043   ----------------------------------------
 BYTE   PATT
  POIN2 Label_F515CB
//  #05 //044   ----------------------------------------
 BYTE   PATT
  POIN2 Label_F515E6
//  #05 //045   ----------------------------------------
 BYTE   PATT
  POIN2 Label_F515CB
//  #05 //046   ----------------------------------------
 BYTE   PATT
  POIN2 Label_F515D6
//  #05 //047   ----------------------------------------
 BYTE   PATT
  POIN2 Label_F515CB
//  #05 //048   ----------------------------------------
 BYTE   N06  Dn3  v096
 BYTE   W24
 BYTE   GoTo
  POIN2 Label_F515B9
//  #05 //049   ----------------------------------------
 BYTE   W24
 BYTE   FINE

//**************** Track 6 (Midi-Chn.5) ****************//

ShinjukuUnderground_006:
//  #06 //000   ----------------------------------------
 BYTE   KEYSH   ShinjukuUnderground_key+0
 BYTE   VOICE   4
 BYTE   W24
Label_01004491:
 BYTE   W72
//  #06 //001   ----------------------------------------
 BYTE   W96
//  #06 //002   ----------------------------------------
 BYTE   W96
//  #06 //003   ----------------------------------------
 BYTE   W96
//  #06 //004   ----------------------------------------
 BYTE   W48
 BYTE   PAN   c_v+21
 BYTE   VOL   37*ShinjukuUnderground_mvl/mxv
 BYTE   PAN   c_v+21
 BYTE   W18
 BYTE   N06  Dn3  v064
 BYTE   W12
 BYTE   Cn3
 BYTE   W18
//  #06 //005   ----------------------------------------
Label_010044A3:
 BYTE   W06
 BYTE   N06  Dn3  v064
 BYTE   W18
 BYTE   Cn3
 BYTE   W06
 BYTE   Cn3  v032
 BYTE   W36
 BYTE   Dn3  v064
 BYTE   W12
 BYTE   Cn3
 BYTE   W18
 BYTE   PEND 
//  #06 //006   ----------------------------------------
Label_010044B3:
 BYTE   W06
 BYTE   N06  Dn3  v064
 BYTE   W24
 BYTE   Cn3
 BYTE   W06
 BYTE   Cn3  v028
 BYTE   W30
 BYTE   Dn3  v064
 BYTE   W12
 BYTE   Cn3
 BYTE   W06
 BYTE   Cn3  v028
 BYTE   W12
 BYTE   PEND 
//  #06 //007   ----------------------------------------
Label_010044C6:
 BYTE   W06
 BYTE   N06  Dn3  v064
 BYTE   W18
 BYTE   Cn3
 BYTE   W06
 BYTE   Cn3  v040
 BYTE   W36
 BYTE   Dn3  v064
 BYTE   W12
 BYTE   Cn3
 BYTE   W06
 BYTE   Cn3  v040
 BYTE   W12
 BYTE   PEND 
//  #06 //008   ----------------------------------------
Label_010044D9:
 BYTE   W06
 BYTE   N06  Dn3  v064
 BYTE   W42
 BYTE   PAN   c_v+21
 BYTE   VOL   37*ShinjukuUnderground_mvl/mxv
 BYTE   PAN   c_v+21
 BYTE   W18
 BYTE   N06
 BYTE   W12
 BYTE   Cn3
 BYTE   W18
 BYTE   PEND 
//  #06 //009   ----------------------------------------
 BYTE   PATT
  POIN2 Label_010044A3
//  #06 //010   ----------------------------------------
 BYTE   PATT
  POIN2 Label_010044B3
//  #06 //011   ----------------------------------------
 BYTE   PATT
  POIN2 Label_010044C6
//  #06 //012   ----------------------------------------
 BYTE   PATT
  POIN2 Label_010044D9
//  #06 //013   ----------------------------------------
 BYTE   PATT
  POIN2 Label_010044A3
//  #06 //014   ----------------------------------------
 BYTE   PATT
  POIN2 Label_010044B3
//  #06 //015   ----------------------------------------
 BYTE   PATT
  POIN2 Label_010044C6
//  #06 //016   ----------------------------------------
 BYTE   PATT
  POIN2 Label_010044D9
//  #06 //017   ----------------------------------------
 BYTE   PATT
  POIN2 Label_010044A3
//  #06 //018   ----------------------------------------
 BYTE   PATT
  POIN2 Label_010044B3
//  #06 //019   ----------------------------------------
 BYTE   PATT
  POIN2 Label_010044C6
//  #06 //020   ----------------------------------------
 BYTE   PATT
  POIN2 Label_010044D9
//  #06 //021   ----------------------------------------
 BYTE   PATT
  POIN2 Label_010044A3
//  #06 //022   ----------------------------------------
 BYTE   PATT
  POIN2 Label_010044B3
//  #06 //023   ----------------------------------------
 BYTE   PATT
  POIN2 Label_010044C6
//  #06 //024   ----------------------------------------
 BYTE   PATT
  POIN2 Label_010044D9
//  #06 //025   ----------------------------------------
 BYTE   PATT
  POIN2 Label_010044A3
//  #06 //026   ----------------------------------------
 BYTE   PATT
  POIN2 Label_010044B3
//  #06 //027   ----------------------------------------
 BYTE   PATT
  POIN2 Label_010044C6
//  #06 //028   ----------------------------------------
 BYTE   PATT
  POIN2 Label_010044D9
//  #06 //029   ----------------------------------------
 BYTE   PATT
  POIN2 Label_010044A3
//  #06 //030   ----------------------------------------
 BYTE   PATT
  POIN2 Label_010044B3
//  #06 //031   ----------------------------------------
 BYTE   PATT
  POIN2 Label_010044C6
//  #06 //032   ----------------------------------------
 BYTE   PATT
  POIN2 Label_010044D9
//  #06 //033   ----------------------------------------
 BYTE   PATT
  POIN2 Label_010044A3
//  #06 //034   ----------------------------------------
 BYTE   PATT
  POIN2 Label_010044B3
//  #06 //035   ----------------------------------------
 BYTE   PATT
  POIN2 Label_010044C6
//  #06 //036   ----------------------------------------
 BYTE   PATT
  POIN2 Label_010044D9
//  #06 //037   ----------------------------------------
 BYTE   PATT
  POIN2 Label_010044A3
//  #06 //038   ----------------------------------------
 BYTE   PATT
  POIN2 Label_010044B3
//  #06 //039   ----------------------------------------
 BYTE   PATT
  POIN2 Label_010044C6
//  #06 //040   ----------------------------------------
 BYTE   PATT
  POIN2 Label_010044D9
//  #06 //041   ----------------------------------------
 BYTE   PATT
  POIN2 Label_010044A3
//  #06 //042   ----------------------------------------
 BYTE   PATT
  POIN2 Label_010044B3
//  #06 //043   ----------------------------------------
 BYTE   PATT
  POIN2 Label_010044C6
//  #06 //044   ----------------------------------------
 BYTE   PATT
  POIN2 Label_010044D9
//  #06 //045   ----------------------------------------
 BYTE   PATT
  POIN2 Label_010044A3
//  #06 //046   ----------------------------------------
 BYTE   PATT
  POIN2 Label_010044B3
//  #06 //047   ----------------------------------------
 BYTE   PATT
  POIN2 Label_010044C6
//  #06 //048   ----------------------------------------
 BYTE   W06
 BYTE   N06  Dn3  v064
 BYTE   W18
 BYTE   GoTo
  POIN2 Label_01004491
//  #06 //049   ----------------------------------------
 BYTE   W24
 BYTE   FINE

//**************** Track 7 (Midi-Chn.6) ****************//

ShinjukuUnderground_007:
//  #07 //000   ----------------------------------------
 BYTE   KEYSH   ShinjukuUnderground_key+0
 BYTE   VOICE   52
 BYTE   W24
Label_010050C9:
 BYTE   W72
//  #07 //001   ----------------------------------------
 BYTE   W96
//  #07 //002   ----------------------------------------
 BYTE   W96
//  #07 //003   ----------------------------------------
 BYTE   W96
//  #07 //004   ----------------------------------------
 BYTE   W96
//  #07 //005   ----------------------------------------
 BYTE   W96
//  #07 //006   ----------------------------------------
 BYTE   W96
//  #07 //007   ----------------------------------------
 BYTE   W96
//  #07 //008   ----------------------------------------
 BYTE   W48
 BYTE   PAN   c_v-42
 BYTE   VOL   26*ShinjukuUnderground_mvl/mxv
 BYTE   PAN   c_v-42
 BYTE   TIE  Fn2  v096
 BYTE   TIE  Cn4
 BYTE   W48
//  #07 //009   ----------------------------------------
 BYTE   W96
//  #07 //010   ----------------------------------------
 BYTE   W48
 BYTE   EOT
 BYTE   Fn2  v072
 BYTE   TIE  Gn2
 BYTE   TIE  Dn4
 BYTE   W48
//  #07 //011   ----------------------------------------
 BYTE   W96
//  #07 //012   ----------------------------------------
 BYTE   W48
 BYTE   EOT
 BYTE   Gn2  v074
 BYTE   TIE  Fn2
 BYTE   TIE  Cn4
 BYTE   W48
//  #07 //013   ----------------------------------------
 BYTE   W96
//  #07 //014   ----------------------------------------
 BYTE   W48
 BYTE   EOT
 BYTE   Fn2  v072
 BYTE   N96  En2
 BYTE   N96  Bn3
 BYTE   W48
//  #07 //015   ----------------------------------------
Label_010050FC:
 BYTE   W48
 BYTE   N96  Fn2  v096
 BYTE   N96  Gn3
 BYTE   W48
 BYTE   PEND 
//  #07 //016   ----------------------------------------
Label_01005104:
 BYTE   W48
 BYTE   TIE  Fn2  v096
 BYTE   TIE  Cn4
 BYTE   W48
 BYTE   PEND 
//  #07 //017   ----------------------------------------
 BYTE   W96
//  #07 //018   ----------------------------------------
 BYTE   W48
 BYTE   EOT
 BYTE   Fn2  v072
 BYTE   TIE  Gn2
 BYTE   TIE  Dn4
 BYTE   W48
//  #07 //019   ----------------------------------------
 BYTE   W96
//  #07 //020   ----------------------------------------
 BYTE   W48
 BYTE   EOT
 BYTE   Gn2  v074
 BYTE   TIE  Fn2
 BYTE   TIE  Cn4
 BYTE   W48
//  #07 //021   ----------------------------------------
 BYTE   W96
//  #07 //022   ----------------------------------------
 BYTE   W48
 BYTE   EOT
 BYTE   Fn2  v072
 BYTE   N96  En2
 BYTE   N96  Bn3
 BYTE   W48
//  #07 //023   ----------------------------------------
 BYTE   PATT
  POIN2 Label_010050FC
//  #07 //024   ----------------------------------------
 BYTE   PATT
  POIN2 Label_01005104
//  #07 //025   ----------------------------------------
 BYTE   W96
//  #07 //026   ----------------------------------------
 BYTE   W48
 BYTE   EOT
 BYTE   Fn2  v072
 BYTE   TIE  Gn2  v096
 BYTE   TIE  Dn4
 BYTE   W48
//  #07 //027   ----------------------------------------
 BYTE   W96
//  #07 //028   ----------------------------------------
 BYTE   W48
 BYTE   EOT
 BYTE   Gn2  v074
 BYTE   TIE  Fn2
 BYTE   TIE  Cn4
 BYTE   W48
//  #07 //029   ----------------------------------------
 BYTE   W96
//  #07 //030   ----------------------------------------
 BYTE   W48
 BYTE   EOT
 BYTE   Fn2  v072
 BYTE   N96  En2
 BYTE   N96  Bn3
 BYTE   W48
//  #07 //031   ----------------------------------------
 BYTE   PATT
  POIN2 Label_010050FC
//  #07 //032   ----------------------------------------
 BYTE   W96
//  #07 //033   ----------------------------------------
 BYTE   W96
//  #07 //034   ----------------------------------------
 BYTE   W96
//  #07 //035   ----------------------------------------
 BYTE   W96
//  #07 //036   ----------------------------------------
 BYTE   W96
//  #07 //037   ----------------------------------------
 BYTE   W96
//  #07 //038   ----------------------------------------
 BYTE   W96
//  #07 //039   ----------------------------------------
 BYTE   W96
//  #07 //040   ----------------------------------------
 BYTE   W96
//  #07 //041   ----------------------------------------
 BYTE   W96
//  #07 //042   ----------------------------------------
 BYTE   W96
//  #07 //043   ----------------------------------------
 BYTE   W96
//  #07 //044   ----------------------------------------
 BYTE   W96
//  #07 //045   ----------------------------------------
 BYTE   W96
//  #07 //046   ----------------------------------------
 BYTE   W96
//  #07 //047   ----------------------------------------
 BYTE   W96
//  #07 //048   ----------------------------------------
 BYTE   W24
 BYTE   GoTo
  POIN2 Label_010050C9
//  #07 //049   ----------------------------------------
 BYTE   W24
 BYTE   FINE

//**************** Track 8 (Midi-Chn.7) ****************//

ShinjukuUnderground_008:
//  #08 //000   ----------------------------------------
 BYTE   KEYSH   ShinjukuUnderground_key+0
 BYTE   VOICE   52
 BYTE   W24
Label_F5114D:
 BYTE   W72
//  #08 //001   ----------------------------------------
 BYTE   W96
//  #08 //002   ----------------------------------------
 BYTE   W96
//  #08 //003   ----------------------------------------
 BYTE   W96
//  #08 //004   ----------------------------------------
 BYTE   W96
//  #08 //005   ----------------------------------------
 BYTE   W96
//  #08 //006   ----------------------------------------
 BYTE   W96
//  #08 //007   ----------------------------------------
 BYTE   W96
//  #08 //008   ----------------------------------------
 BYTE   W48
 BYTE   PAN   c_v+49
 BYTE   VOL   19*ShinjukuUnderground_mvl/mxv
 BYTE   PAN   c_v+49
 BYTE   TIE  Fn2  v092
 BYTE   TIE  Cn4  v096
 BYTE   W48
//  #08 //009   ----------------------------------------
 BYTE   W96
//  #08 //010   ----------------------------------------
 BYTE   W44
 BYTE   W02
 BYTE   Gn2
 BYTE   TIE  Dn4  v092
 BYTE   W02
 BYTE   EOT
 BYTE   Fn2  v072
 BYTE   W48
//  #08 //011   ----------------------------------------
 BYTE   W96
//  #08 //012   ----------------------------------------
 BYTE   W44
 BYTE   W02
 BYTE   Gn2  v074
 BYTE   TIE  Cn4  v100
 BYTE   W01
 BYTE   Fn2
 BYTE   W48
 BYTE   W01
//  #08 //013   ----------------------------------------
 BYTE   W96
//  #08 //014   ----------------------------------------
 BYTE   W44
 BYTE   W02
 BYTE   EOT
 BYTE   Cn4
 BYTE   W01
 BYTE   Fn2
 BYTE   N96  En2  v096
 BYTE   N96  Bn3
 BYTE   W48
 BYTE   W01
//  #08 //015   ----------------------------------------
 BYTE   W48
 BYTE   N92  Fn2  v100
 BYTE   N96  Gn3
 BYTE   W48
//  #08 //016   ----------------------------------------
 BYTE   W44
 BYTE   W03
 BYTE   TIE  Fn2  v104
 BYTE   W01
 BYTE   Cn4  v100
 BYTE   W48
//  #08 //017   ----------------------------------------
 BYTE   W96
//  #08 //018   ----------------------------------------
 BYTE   W44
 BYTE   W03
 BYTE   EOT
 BYTE   Fn2
 BYTE   TIE  Dn4  v096
 BYTE   W01
 BYTE   EOT
 BYTE   Cn4
 BYTE   TIE  Gn2
 BYTE   W48
//  #08 //019   ----------------------------------------
 BYTE   W96
//  #08 //020   ----------------------------------------
 BYTE   W44
 BYTE   W01
 BYTE   Fn2  v088
 BYTE   W01
 BYTE   Cn4  v100
 BYTE   W01
 BYTE   EOT
 BYTE   Dn4
 BYTE   W01
 BYTE   Gn2
 BYTE   W48
//  #08 //021   ----------------------------------------
 BYTE   W96
//  #08 //022   ----------------------------------------
 BYTE   W44
 BYTE   W01
 BYTE   Fn2
 BYTE   W01
 BYTE   Cn4
 BYTE   N96  Bn3  v088
 BYTE   W02
 BYTE   En2  v096
 BYTE   W48
//  #08 //023   ----------------------------------------
 BYTE   W44
 BYTE   W03
 BYTE   Fn2
 BYTE   N96  Gn3  v104
 BYTE   W48
 BYTE   W01
//  #08 //024   ----------------------------------------
 BYTE   W44
 BYTE   W02
 BYTE   TIE  Cn4  v100
 BYTE   W04
 BYTE   Fn2
 BYTE   W44
 BYTE   W02
//  #08 //025   ----------------------------------------
 BYTE   W96
//  #08 //026   ----------------------------------------
 BYTE   W44
 BYTE   W02
 BYTE   EOT
 BYTE   Cn4
 BYTE   TIE  Gn2  v096
 BYTE   W03
 BYTE   Dn4  v092
 BYTE   W01
 BYTE   EOT
 BYTE   Fn2
 BYTE   W44
 BYTE   W02
//  #08 //027   ----------------------------------------
 BYTE   W96
//  #08 //028   ----------------------------------------
 BYTE   W44
 BYTE   W02
 BYTE   Gn2
 BYTE   TIE  Fn2  v104
 BYTE   W01
 BYTE   Cn4  v108
 BYTE   W02
 BYTE   EOT
 BYTE   Dn4
 BYTE   W44
 BYTE   W03
//  #08 //029   ----------------------------------------
 BYTE   W96
//  #08 //030   ----------------------------------------
 BYTE   W44
 BYTE   W02
 BYTE   Fn2
 BYTE   W01
 BYTE   Cn4
 BYTE   N96  En2  v096
 BYTE   N96  Bn3  v100
 BYTE   W48
 BYTE   W01
//  #08 //031   ----------------------------------------
 BYTE   W44
 BYTE   W03
 BYTE   Fn2
 BYTE   N96  Gn3  v108
 BYTE   W48
 BYTE   W01
//  #08 //032   ----------------------------------------
 BYTE   W96
//  #08 //033   ----------------------------------------
 BYTE   W96
//  #08 //034   ----------------------------------------
 BYTE   W96
//  #08 //035   ----------------------------------------
 BYTE   W96
//  #08 //036   ----------------------------------------
 BYTE   W96
//  #08 //037   ----------------------------------------
 BYTE   W96
//  #08 //038   ----------------------------------------
 BYTE   W96
//  #08 //039   ----------------------------------------
 BYTE   W96
//  #08 //040   ----------------------------------------
 BYTE   W96
//  #08 //041   ----------------------------------------
 BYTE   W96
//  #08 //042   ----------------------------------------
 BYTE   W96
//  #08 //043   ----------------------------------------
 BYTE   W96
//  #08 //044   ----------------------------------------
 BYTE   W96
//  #08 //045   ----------------------------------------
 BYTE   W96
//  #08 //046   ----------------------------------------
 BYTE   W96
//  #08 //047   ----------------------------------------
 BYTE   W96
//  #08 //048   ----------------------------------------
 BYTE   W24
 BYTE   GoTo
  POIN2 Label_F5114D
//  #08 //049   ----------------------------------------
 BYTE   W24
 BYTE   FINE

//**************** Track 9 (Midi-Chn.8) ****************//

ShinjukuUnderground_009:
//  #09 //000   ----------------------------------------
 BYTE   KEYSH   ShinjukuUnderground_key+0
 BYTE   VOICE   41
 BYTE   W24
Label_F51411:
 BYTE   W72
//  #09 //001   ----------------------------------------
 BYTE   W96
//  #09 //002   ----------------------------------------
 BYTE   W96
//  #09 //003   ----------------------------------------
 BYTE   W96
//  #09 //004   ----------------------------------------
 BYTE   W96
//  #09 //005   ----------------------------------------
 BYTE   W96
//  #09 //006   ----------------------------------------
 BYTE   W96
//  #09 //007   ----------------------------------------
 BYTE   W96
//  #09 //008   ----------------------------------------
 BYTE   W96
//  #09 //009   ----------------------------------------
 BYTE   W96
//  #09 //010   ----------------------------------------
 BYTE   W96
//  #09 //011   ----------------------------------------
 BYTE   W96
//  #09 //012   ----------------------------------------
 BYTE   W96
//  #09 //013   ----------------------------------------
 BYTE   W96
//  #09 //014   ----------------------------------------
 BYTE   W96
//  #09 //015   ----------------------------------------
 BYTE   W96
//  #09 //016   ----------------------------------------
 BYTE   W96
//  #09 //017   ----------------------------------------
 BYTE   W96
//  #09 //018   ----------------------------------------
 BYTE   W96
//  #09 //019   ----------------------------------------
 BYTE   W96
//  #09 //020   ----------------------------------------
 BYTE   W96
//  #09 //021   ----------------------------------------
 BYTE   W96
//  #09 //022   ----------------------------------------
 BYTE   W96
//  #09 //023   ----------------------------------------
 BYTE   W96
//  #09 //024   ----------------------------------------
 BYTE   W96
//  #09 //025   ----------------------------------------
 BYTE   W96
//  #09 //026   ----------------------------------------
 BYTE   W96
//  #09 //027   ----------------------------------------
 BYTE   W96
//  #09 //028   ----------------------------------------
 BYTE   W96
//  #09 //029   ----------------------------------------
 BYTE   W96
//  #09 //030   ----------------------------------------
 BYTE   W96
//  #09 //031   ----------------------------------------
 BYTE   W96
//  #09 //032   ----------------------------------------
 BYTE   W48
 BYTE   VOL   24*ShinjukuUnderground_mvl/mxv
 BYTE   TIE  Fn3  v096
 BYTE   TIE  Cn4
 BYTE   W48
//  #09 //033   ----------------------------------------
 BYTE   W96
//  #09 //034   ----------------------------------------
 BYTE   W48
 BYTE   EOT
 BYTE   Fn3  v072
 BYTE   TIE  Dn3
 BYTE   TIE  An3
 BYTE   W48
//  #09 //035   ----------------------------------------
 BYTE   W96
//  #09 //036   ----------------------------------------
 BYTE   W36
 BYTE   EOT
 BYTE   Dn3  v069
 BYTE   TIE  Fn3
 BYTE   TIE  Cn4
 BYTE   W60
//  #09 //037   ----------------------------------------
 BYTE   W96
//  #09 //038   ----------------------------------------
 BYTE   W48
 BYTE   EOT
 BYTE   Fn3  v072
 BYTE   TIE  Dn3
 BYTE   TIE  An3
 BYTE   W48
//  #09 //039   ----------------------------------------
 BYTE   W96
//  #09 //040   ----------------------------------------
 BYTE   EOT
 BYTE   Dn3  v069
 BYTE   N36  Cn3
 BYTE   N36  Gn3
 BYTE   W36
 BYTE   N06  Fn3
 BYTE   N06  Cn4
 BYTE   W06
 BYTE   Fn3
 BYTE   N06  As3
 BYTE   W06
 BYTE   TIE  Fn3
 BYTE   TIE  Cn4
 BYTE   W48
//  #09 //041   ----------------------------------------
 BYTE   W96
//  #09 //042   ----------------------------------------
 BYTE   W48
 BYTE   EOT
 BYTE   Fn3  v072
 BYTE   TIE  Dn3
 BYTE   TIE  An3
 BYTE   W48
//  #09 //043   ----------------------------------------
 BYTE   W96
//  #09 //044   ----------------------------------------
 BYTE   W36
 BYTE   EOT
 BYTE   Dn3  v069
 BYTE   TIE  Fn3
 BYTE   TIE  Cn4
 BYTE   W60
//  #09 //045   ----------------------------------------
 BYTE   W96
//  #09 //046   ----------------------------------------
 BYTE   W48
 BYTE   EOT
 BYTE   Fn3  v072
 BYTE   TIE  Dn3
 BYTE   TIE  An3
 BYTE   W48
//  #09 //047   ----------------------------------------
 BYTE   W96
//  #09 //048   ----------------------------------------
 BYTE   EOT
 BYTE   Dn3  v069
 BYTE   N48  Cn3
 BYTE   N48  Gn3
 BYTE   W24
 BYTE   VOL   0*ShinjukuUnderground_mvl/mxv
 BYTE   GoTo
  POIN2 Label_F51411
//  #09 //049   ----------------------------------------
 BYTE   W12
 BYTE   VOL   29*ShinjukuUnderground_mvl/mxv
 BYTE   W01
 BYTE   VOL   27*ShinjukuUnderground_mvl/mxv
 BYTE   W01
 BYTE   VOL   25*ShinjukuUnderground_mvl/mxv
 BYTE   W01
 BYTE   VOL   22*ShinjukuUnderground_mvl/mxv
 BYTE   W01
 BYTE   VOL   20*ShinjukuUnderground_mvl/mxv
 BYTE   W01
 BYTE   VOL   17*ShinjukuUnderground_mvl/mxv
 BYTE   W01
 BYTE   VOL   13*ShinjukuUnderground_mvl/mxv
 BYTE   W01
 BYTE   VOL   11*ShinjukuUnderground_mvl/mxv
 BYTE   W01
 BYTE   VOL   9*ShinjukuUnderground_mvl/mxv
 BYTE   W01
 BYTE   VOL   5*ShinjukuUnderground_mvl/mxv
 BYTE   W01
 BYTE   VOL   3*ShinjukuUnderground_mvl/mxv
 BYTE   W01
 BYTE   VOL   0*ShinjukuUnderground_mvl/mxv
 BYTE   W01
 BYTE   FINE

//**************** Track 10 (Midi-Chn.9) ****************//

ShinjukuUnderground_010:
//  #10 //000   ----------------------------------------
 BYTE   VOL   50*ShinjukuUnderground_mvl/mxv
 BYTE   KEYSH   ShinjukuUnderground_key+0
 BYTE   VOICE   121
 BYTE   W12
 BYTE   N03  Cs1  v088
 BYTE   N03  Bn1
 BYTE   W06
 BYTE   Cs1
 BYTE   N03  Bn1
 BYTE   W06
Label_0100572D:
 BYTE   N03  Cs1  v088
 BYTE   N03  An1
 BYTE   W06
 BYTE   Cs1
 BYTE   N03  An1
 BYTE   W06
 BYTE   Cs1
 BYTE   N03  Fn1
 BYTE   W06
 BYTE   Cs1
 BYTE   W06
 BYTE   N10  Cn1  v096
 BYTE   N10  Cs2  v088
 BYTE   W12
 BYTE   N03  Fs1  v064
 BYTE   W12
 BYTE   N06  Dn1  v092
 BYTE   W12
 BYTE   N03  Fs1  v064
 BYTE   W12
//  #10 //001   ----------------------------------------
Label_01005750:
 BYTE   N06  Cn1  v096
 BYTE   W12
 BYTE   N06
 BYTE   N04  Fs1  v056
 BYTE   W06
 BYTE   Fs1  v064
 BYTE   W06
 BYTE   N06  Dn1  v092
 BYTE   N06  Fs1  v060
 BYTE   W12
 BYTE   Cn1  v096
 BYTE   N04  Fs1  v064
 BYTE   W12
 BYTE   N10  Cn1  v096
 BYTE   N06  Fs1  v064
 BYTE   W12
 BYTE   N03  Fs1  v052
 BYTE   W06
 BYTE   Fs1  v064
 BYTE   W06
 BYTE   N06  Dn1  v092
 BYTE   W06
 BYTE   N03  Fs1  v064
 BYTE   W18
 BYTE   PEND 
//  #10 //002   ----------------------------------------
 BYTE   N06  Cn1  v096
 BYTE   N06  Fs1  v064
 BYTE   W12
 BYTE   Cn1  v096
 BYTE   N06  Fs1  v064
 BYTE   W06
 BYTE   Fs1  v052
 BYTE   W06
 BYTE   Dn1  v092
 BYTE   N07  Fs1  v064
 BYTE   W12
 BYTE   N06  Cn1  v096
 BYTE   N04  Fs1  v064
 BYTE   W12
 BYTE   N10  Cn1  v096
 BYTE   W12
 BYTE   N03  Fs1  v064
 BYTE   W12
 BYTE   N06  Dn1  v092
 BYTE   W12
 BYTE   N03  Fs1  v064
 BYTE   W12
//  #10 //003   ----------------------------------------
 BYTE   PATT
  POIN2 Label_01005750
//  #10 //004   ----------------------------------------
 BYTE   N06  Cn1  v096
 BYTE   N06  Fs1  v064
 BYTE   W12
 BYTE   Cn1  v096
 BYTE   N06  Fs1  v064
 BYTE   W06
 BYTE   N04  Cn1  v096
 BYTE   N06  Fs1  v052
 BYTE   W06
 BYTE   Dn1  v092
 BYTE   N07  Fs1  v064
 BYTE   W12
 BYTE   N06  Cn1  v096
 BYTE   N03  Cs1  v088
 BYTE   N04  Fs1  v064
 BYTE   W06
 BYTE   N03  Cs1  v088
 BYTE   W06
 BYTE   N10  Cn1  v096
 BYTE   W12
 BYTE   N03  Fs1  v064
 BYTE   W12
 BYTE   N06  Dn1  v092
 BYTE   W12
 BYTE   N03  Fs1  v064
 BYTE   W12
//  #10 //005   ----------------------------------------
 BYTE   N06  Cn1  v096
 BYTE   W12
 BYTE   N06
 BYTE   N04  Fs1  v056
 BYTE   W06
 BYTE   Fs1  v064
 BYTE   W06
 BYTE   N06  Dn1  v092
 BYTE   N06  Fs1  v060
 BYTE   W12
 BYTE   Cn1  v096
 BYTE   N04  Fs1  v064
 BYTE   W12
 BYTE   N10  Cn1  v096
 BYTE   N06  Fs1  v064
 BYTE   W12
 BYTE   N03  Fs1  v052
 BYTE   W06
 BYTE   Fs1  v064
 BYTE   W06
 BYTE   N06  Dn1  v092
 BYTE   W06
 BYTE   N03  Fs1  v064
 BYTE   W06
 BYTE   N03
 BYTE   W12
//  #10 //006   ----------------------------------------
 BYTE   N06  Cn1  v096
 BYTE   N06  Fs1  v064
 BYTE   W12
 BYTE   Cn1  v096
 BYTE   N06  Fs1  v064
 BYTE   W06
 BYTE   Fs1  v052
 BYTE   W06
 BYTE   Dn1  v092
 BYTE   N07  Fs1  v064
 BYTE   W07
 BYTE   N03  Fs1  v044
 BYTE   W05
 BYTE   N06  Cn1  v096
 BYTE   N04  Fs1  v064
 BYTE   W12
 BYTE   N10  Cn1  v096
 BYTE   N04  Fs1  v052
 BYTE   W12
 BYTE   N03  Fs1  v064
 BYTE   W12
 BYTE   N06  Dn1  v092
 BYTE   W12
 BYTE   N03  Fs1  v064
 BYTE   W12
//  #10 //007   ----------------------------------------
 BYTE   PATT
  POIN2 Label_01005750
//  #10 //008   ----------------------------------------
 BYTE   N06  Cn1  v096
 BYTE   N06  Fs1  v064
 BYTE   W12
 BYTE   Cn1  v096
 BYTE   N06  Fs1  v064
 BYTE   W06
 BYTE   N04  En1  v084
 BYTE   N06  Fs1  v052
 BYTE   W06
 BYTE   En1  v084
 BYTE   N07  Fs1  v064
 BYTE   W06
 BYTE   N03  En1  v084
 BYTE   W06
 BYTE   N04  Fs1  v064
 BYTE   W06
 BYTE   N06  En1  v084
 BYTE   W06
 BYTE   N10  Cn1  v096
 BYTE   W12
 BYTE   N03  Fs1  v064
 BYTE   W12
 BYTE   N06  Dn1  v092
 BYTE   W12
 BYTE   N03  Fs1  v064
 BYTE   W12
//  #10 //009   ----------------------------------------
 BYTE   N06  Cn1  v096
 BYTE   W12
 BYTE   N06
 BYTE   N04  Fs1  v056
 BYTE   W06
 BYTE   Fs1  v064
 BYTE   W06
 BYTE   N06  Dn1  v092
 BYTE   N06  Fs1  v060
 BYTE   W12
 BYTE   Cn1  v096
 BYTE   N04  Fs1  v064
 BYTE   W06
 BYTE   Cn1  v096
 BYTE   N04  Fs1  v040
 BYTE   W06
 BYTE   N10  Cn1  v096
 BYTE   N06  Fs1  v064
 BYTE   W12
 BYTE   N03  Fs1  v052
 BYTE   W06
 BYTE   Fs1  v064
 BYTE   W06
 BYTE   N06  Dn1  v092
 BYTE   W06
 BYTE   N03  Fs1  v064
 BYTE   W06
 BYTE   N03
 BYTE   W12
//  #10 //010   ----------------------------------------
 BYTE   N06  Cn1  v096
 BYTE   N06  Fs1  v064
 BYTE   W12
 BYTE   Cn1  v096
 BYTE   N06  Fs1  v064
 BYTE   W06
 BYTE   Fs1  v052
 BYTE   W06
 BYTE   Dn1  v092
 BYTE   N07  Fs1  v064
 BYTE   W07
 BYTE   N03  Fs1  v044
 BYTE   W05
 BYTE   N06  Cn1  v096
 BYTE   N04  Fs1  v064
 BYTE   W12
 BYTE   N10  Cn1  v096
 BYTE   N04  Fs1  v052
 BYTE   W12
 BYTE   N03  Fs1  v064
 BYTE   W06
 BYTE   Fs1  v052
 BYTE   W06
 BYTE   N06  Dn1  v092
 BYTE   W12
 BYTE   N03  Fs1  v064
 BYTE   W06
 BYTE   N04  Fs1  v044
 BYTE   W06
//  #10 //011   ----------------------------------------
 BYTE   N06  Cn1  v096
 BYTE   W12
 BYTE   N06
 BYTE   N04  Fs1  v056
 BYTE   W06
 BYTE   Fs1  v064
 BYTE   W06
 BYTE   N06  Dn1  v092
 BYTE   N06  Fs1  v060
 BYTE   W12
 BYTE   Cn1  v096
 BYTE   N04  Fs1  v064
 BYTE   W12
 BYTE   N10  Cn1  v096
 BYTE   N06  Fs1  v064
 BYTE   W12
 BYTE   N03  Fs1  v052
 BYTE   W06
 BYTE   Fs1  v064
 BYTE   W06
 BYTE   N06  Dn1  v092
 BYTE   W12
 BYTE   N03  Fs1  v064
 BYTE   W06
 BYTE   Fs1  v044
 BYTE   W06
//  #10 //012   ----------------------------------------
 BYTE   N06  Cn1  v096
 BYTE   N06  Fs1  v064
 BYTE   W12
 BYTE   Cn1  v096
 BYTE   N06  Fs1  v064
 BYTE   W06
 BYTE   N04  Cn1  v096
 BYTE   N06  Fs1  v052
 BYTE   W06
 BYTE   En1  v084
 BYTE   N07  Fs1  v064
 BYTE   W12
 BYTE   N01  En1  v084
 BYTE   N04  Fs1  v064
 BYTE   W06
 BYTE   N06  En1  v084
 BYTE   W06
 BYTE   N10  Cn1  v096
 BYTE   N03  Fs1  v064
 BYTE   W12
 BYTE   N03
 BYTE   W06
 BYTE   N01
 BYTE   W06
 BYTE   N06  Dn1  v092
 BYTE   N03  Fs1  v064
 BYTE   W12
 BYTE   N04
 BYTE   W12
//  #10 //013   ----------------------------------------
Label_01005967:
 BYTE   N06  Cn1  v096
 BYTE   W12
 BYTE   N06
 BYTE   N04  Fs1  v056
 BYTE   W06
 BYTE   Fs1  v064
 BYTE   W06
 BYTE   N06  Dn1  v092
 BYTE   N06  Fs1  v060
 BYTE   W12
 BYTE   Cn1  v096
 BYTE   N04  Fs1  v064
 BYTE   N04  An1  v088
 BYTE   W06
 BYTE   Cn1  v096
 BYTE   N04  Fs1  v040
 BYTE   N03  An1  v024
 BYTE   W06
 BYTE   N10  Cn1  v096
 BYTE   N06  Fs1  v064
 BYTE   W12
 BYTE   N03  Fs1  v052
 BYTE   W06
 BYTE   Fs1  v064
 BYTE   W06
 BYTE   N06  Dn1  v092
 BYTE   W06
 BYTE   N03  Fs1  v064
 BYTE   W06
 BYTE   N03
 BYTE   W12
 BYTE   PEND 
//  #10 //014   ----------------------------------------
Label_010059A5:
 BYTE   N06  Cn1  v096
 BYTE   N06  Fs1  v064
 BYTE   W12
 BYTE   Cn1  v096
 BYTE   N06  Fs1  v064
 BYTE   W06
 BYTE   Fs1  v052
 BYTE   W06
 BYTE   Dn1  v092
 BYTE   N07  Fs1  v064
 BYTE   W07
 BYTE   N03  Fs1  v044
 BYTE   W05
 BYTE   N06  Cn1  v096
 BYTE   N04  Fs1  v064
 BYTE   N04  An1  v088
 BYTE   W06
 BYTE   N03  An1  v024
 BYTE   W06
 BYTE   N10  Cn1  v096
 BYTE   N04  Fs1  v052
 BYTE   W12
 BYTE   N03  Fs1  v064
 BYTE   W06
 BYTE   Fs1  v052
 BYTE   W06
 BYTE   N06  Dn1  v092
 BYTE   W12
 BYTE   N03  Fs1  v064
 BYTE   W06
 BYTE   N04  Fs1  v044
 BYTE   W06
 BYTE   PEND 
//  #10 //015   ----------------------------------------
Label_010059E8:
 BYTE   N06  Cn1  v096
 BYTE   W12
 BYTE   N06
 BYTE   N04  Fs1  v056
 BYTE   W06
 BYTE   Fs1  v064
 BYTE   W06
 BYTE   N06  Dn1  v092
 BYTE   N06  Fs1  v060
 BYTE   W12
 BYTE   Cn1  v096
 BYTE   N04  Fs1  v064
 BYTE   N04  An1  v088
 BYTE   W06
 BYTE   N03  An1  v024
 BYTE   W06
 BYTE   N10  Cn1  v096
 BYTE   N06  Fs1  v064
 BYTE   W12
 BYTE   N03  Fs1  v052
 BYTE   W06
 BYTE   Fs1  v064
 BYTE   W06
 BYTE   N06  Dn1  v092
 BYTE   W12
 BYTE   N03  Fs1  v064
 BYTE   W06
 BYTE   Fs1  v044
 BYTE   W06
 BYTE   PEND 
//  #10 //016   ----------------------------------------
 BYTE   N06  Cn1  v096
 BYTE   N06  Fs1  v064
 BYTE   W12
 BYTE   Cn1  v096
 BYTE   N06  Fs1  v064
 BYTE   W06
 BYTE   Fs1  v052
 BYTE   N04  An1  v088
 BYTE   W06
 BYTE   N06  En1  v084
 BYTE   N07  Fs1  v064
 BYTE   N04  Gn1  v088
 BYTE   W06
 BYTE   N06  Fn1
 BYTE   W06
 BYTE   N01  En1  v084
 BYTE   N04  Fs1  v064
 BYTE   W06
 BYTE   N06  En1  v084
 BYTE   W06
 BYTE   N10  Cn1  v096
 BYTE   W12
 BYTE   N03  Fs1  v064
 BYTE   W12
 BYTE   N06  Dn1  v092
 BYTE   W12
 BYTE   N03  Fs1  v064
 BYTE   W12
//  #10 //017   ----------------------------------------
 BYTE   PATT
  POIN2 Label_01005967
//  #10 //018   ----------------------------------------
 BYTE   PATT
  POIN2 Label_010059A5
//  #10 //019   ----------------------------------------
 BYTE   PATT
  POIN2 Label_010059E8
//  #10 //020   ----------------------------------------
 BYTE   N06  Cn1  v096
 BYTE   N06  Fs1  v064
 BYTE   W12
 BYTE   Cn1  v096
 BYTE   N06  Fs1  v064
 BYTE   W06
 BYTE   N04  Cn1  v096
 BYTE   N06  Fs1  v052
 BYTE   N04  An1  v088
 BYTE   W06
 BYTE   N06  En1  v084
 BYTE   N07  Fs1  v064
 BYTE   W12
 BYTE   N01  En1  v084
 BYTE   N04  Fs1  v064
 BYTE   W06
 BYTE   N06  En1  v084
 BYTE   W06
 BYTE   N10  Cn1  v096
 BYTE   N03  Fs1  v064
 BYTE   W12
 BYTE   N03
 BYTE   W06
 BYTE   N01
 BYTE   W06
 BYTE   N06  Dn1  v092
 BYTE   N03  Fs1  v064
 BYTE   W12
 BYTE   N04
 BYTE   W12
//  #10 //021   ----------------------------------------
 BYTE   PATT
  POIN2 Label_01005967
//  #10 //022   ----------------------------------------
 BYTE   PATT
  POIN2 Label_010059A5
//  #10 //023   ----------------------------------------
 BYTE   PATT
  POIN2 Label_010059E8
//  #10 //024   ----------------------------------------
 BYTE   N06  Cn1  v096
 BYTE   N06  Fs1  v064
 BYTE   W12
 BYTE   Cn1  v096
 BYTE   N06  Fs1  v064
 BYTE   W06
 BYTE   Fs1  v052
 BYTE   N04  An1  v088
 BYTE   W06
 BYTE   N06  En1  v084
 BYTE   N07  Fs1  v064
 BYTE   N04  Gn1  v088
 BYTE   W06
 BYTE   N06  Fn1
 BYTE   W06
 BYTE   N01  En1  v084
 BYTE   N04  Fs1  v064
 BYTE   W06
 BYTE   N06  En1  v084
 BYTE   W06
 BYTE   N10  Cn1  v096
 BYTE   W12
 BYTE   N03  Fs1  v064
 BYTE   W06
 BYTE   N04
 BYTE   W06
 BYTE   N06  Dn1  v092
 BYTE   W12
 BYTE   N03  Fs1  v064
 BYTE   W06
 BYTE   N03
 BYTE   W06
//  #10 //025   ----------------------------------------
 BYTE   PATT
  POIN2 Label_01005967
//  #10 //026   ----------------------------------------
 BYTE   PATT
  POIN2 Label_010059A5
//  #10 //027   ----------------------------------------
 BYTE   PATT
  POIN2 Label_010059E8
//  #10 //028   ----------------------------------------
 BYTE   N06  Cn1  v096
 BYTE   N06  Fs1  v064
 BYTE   W12
 BYTE   Cn1  v096
 BYTE   N06  Fs1  v064
 BYTE   W06
 BYTE   N04  Cn1  v096
 BYTE   N06  Fs1  v052
 BYTE   N04  An1  v088
 BYTE   W06
 BYTE   N06  Dn1  v092
 BYTE   N07  Fs1  v064
 BYTE   W12
 BYTE   N01  Dn1  v092
 BYTE   N04  Fs1  v064
 BYTE   W06
 BYTE   N06  Dn1  v092
 BYTE   W06
 BYTE   N10  Cn1  v096
 BYTE   N03  Fs1  v064
 BYTE   W12
 BYTE   N03
 BYTE   W06
 BYTE   N01
 BYTE   W06
 BYTE   N06  Dn1  v092
 BYTE   N03  Fs1  v064
 BYTE   W12
 BYTE   N04
 BYTE   W12
//  #10 //029   ----------------------------------------
 BYTE   N06  Cn1  v096
 BYTE   N03  Fs1  v064
 BYTE   W06
 BYTE   N03
 BYTE   W06
 BYTE   N06  Cn1  v096
 BYTE   N04  Fs1  v056
 BYTE   W06
 BYTE   Fs1  v064
 BYTE   W06
 BYTE   N06  Dn1  v092
 BYTE   N06  Fs1  v060
 BYTE   W12
 BYTE   Cn1  v096
 BYTE   N04  Fs1  v064
 BYTE   N04  An1  v088
 BYTE   W06
 BYTE   Cn1  v096
 BYTE   N04  Fs1  v040
 BYTE   N03  An1  v024
 BYTE   W06
 BYTE   N10  Cn1  v096
 BYTE   N06  Fs1  v064
 BYTE   W12
 BYTE   N03  Fs1  v052
 BYTE   W06
 BYTE   Fs1  v064
 BYTE   W06
 BYTE   N06  Dn1  v092
 BYTE   W06
 BYTE   N03  Fs1  v064
 BYTE   W06
 BYTE   N03
 BYTE   W12
//  #10 //030   ----------------------------------------
 BYTE   PATT
  POIN2 Label_010059A5
//  #10 //031   ----------------------------------------
 BYTE   PATT
  POIN2 Label_010059E8
//  #10 //032   ----------------------------------------
 BYTE   N06  Cn1  v096
 BYTE   N06  Fs1  v064
 BYTE   W12
 BYTE   Cn1  v096
 BYTE   N06  Fs1  v064
 BYTE   W06
 BYTE   Fs1  v052
 BYTE   N04  An1  v088
 BYTE   W06
 BYTE   N06  En1  v084
 BYTE   N07  Fs1  v064
 BYTE   N04  Gn1  v088
 BYTE   N04  As1
 BYTE   W06
 BYTE   N06  Fn1
 BYTE   W06
 BYTE   N01  En1  v084
 BYTE   N04  Fs1  v064
 BYTE   W06
 BYTE   N06  En1  v084
 BYTE   W06
 BYTE   N12  Fs1  v064
 BYTE   N28  Cs2  v088
 BYTE   W12
 BYTE   N06  Fs1  v064
 BYTE   W06
 BYTE   N04
 BYTE   W06
 BYTE   N04
 BYTE   W12
 BYTE   N04
 BYTE   W06
 BYTE   N03
 BYTE   W06
//  #10 //033   ----------------------------------------
Label_01005BD1:
 BYTE   N03  Fs1  v064
 BYTE   W12
 BYTE   N04
 BYTE   W06
 BYTE   N03
 BYTE   W06
 BYTE   N03
 BYTE   W12
 BYTE   N03
 BYTE   N03  An1  v088
 BYTE   W06
 BYTE   N01  Fs1  v064
 BYTE   W06
 BYTE   N12
 BYTE   W12
 BYTE   N06
 BYTE   W06
 BYTE   N04
 BYTE   W06
 BYTE   N04
 BYTE   W12
 BYTE   N04
 BYTE   W06
 BYTE   N03
 BYTE   W06
 BYTE   PEND 
//  #10 //034   ----------------------------------------
 BYTE   PATT
  POIN2 Label_01005BD1
//  #10 //035   ----------------------------------------
 BYTE   PATT
  POIN2 Label_01005BD1
//  #10 //036   ----------------------------------------
 BYTE   PATT
  POIN2 Label_01005BD1
//  #10 //037   ----------------------------------------
 BYTE   PATT
  POIN2 Label_01005BD1
//  #10 //038   ----------------------------------------
 BYTE   PATT
  POIN2 Label_01005BD1
//  #10 //039   ----------------------------------------
 BYTE   PATT
  POIN2 Label_01005BD1
//  #10 //040   ----------------------------------------
 BYTE   N03  Fs1  v064
 BYTE   W12
 BYTE   N04
 BYTE   W06
 BYTE   N03
 BYTE   W06
 BYTE   N03
 BYTE   W12
 BYTE   N03
 BYTE   N03  An1  v088
 BYTE   W06
 BYTE   N01  Fs1  v064
 BYTE   W06
 BYTE   N12  Cn1  v096
 BYTE   N12  Fs1  v064
 BYTE   N28  Cs2  v088
 BYTE   W12
 BYTE   N06  Fs1  v064
 BYTE   W06
 BYTE   N04
 BYTE   W06
 BYTE   N12  Dn1  v092
 BYTE   N04  Fs1  v064
 BYTE   W12
 BYTE   N04
 BYTE   W06
 BYTE   N03
 BYTE   W06
//  #10 //041   ----------------------------------------
Label_01005C3D:
 BYTE   N06  Cn1  v096
 BYTE   N03  Fs1  v064
 BYTE   W12
 BYTE   N06  Cn1  v096
 BYTE   N04  Fs1  v064
 BYTE   W06
 BYTE   N03
 BYTE   W06
 BYTE   N06  Dn1  v092
 BYTE   N03  Fs1  v064
 BYTE   W12
 BYTE   N03
 BYTE   N03  An1  v088
 BYTE   W06
 BYTE   N01  Fs1  v064
 BYTE   W06
 BYTE   N12  Cn1  v096
 BYTE   N12  Fs1  v064
 BYTE   W12
 BYTE   N06
 BYTE   W06
 BYTE   N04
 BYTE   W06
 BYTE   N12  Dn1  v092
 BYTE   N04  Fs1  v064
 BYTE   W12
 BYTE   N04
 BYTE   W06
 BYTE   N03
 BYTE   W06
 BYTE   PEND 
//  #10 //042   ----------------------------------------
 BYTE   PATT
  POIN2 Label_01005C3D
//  #10 //043   ----------------------------------------
 BYTE   PATT
  POIN2 Label_01005C3D
//  #10 //044   ----------------------------------------
 BYTE   PATT
  POIN2 Label_01005C3D
//  #10 //045   ----------------------------------------
 BYTE   PATT
  POIN2 Label_01005C3D
//  #10 //046   ----------------------------------------
 BYTE   PATT
  POIN2 Label_01005C3D
//  #10 //047   ----------------------------------------
 BYTE   PATT
  POIN2 Label_01005C3D
//  #10 //048   ----------------------------------------
 BYTE   N06  Cn1  v096
 BYTE   N03  Fs1  v064
 BYTE   W24
 BYTE   GoTo
  POIN2 Label_0100572D
//  #10 //049   ----------------------------------------
 BYTE   W12
 BYTE   N06  Dn1  v092
 BYTE   W06
 BYTE   N06
 BYTE   W06
 BYTE   FINE

//******************************************************//
	ALIGN 4

ShinjukuUnderground:
	BYTE	10	// NumTrks
	BYTE	0	// NumBlks
	BYTE	ShinjukuUnderground_pri	// Priority
	BYTE	ShinjukuUnderground_rev	// Reverb.
    
	POIN2	ShinjukuUnderground_grp
    
	POIN2	ShinjukuUnderground_001
	POIN2	ShinjukuUnderground_002
	POIN2	ShinjukuUnderground_003
	POIN2	ShinjukuUnderground_004
	POIN2	ShinjukuUnderground_005
	POIN2	ShinjukuUnderground_006
	POIN2	ShinjukuUnderground_007
	POIN2	ShinjukuUnderground_008
	POIN2	ShinjukuUnderground_009
	POIN2	ShinjukuUnderground_010

	
