	.include "MPlayDef.s"

	.equ	song04_grp, voicegroup000
	.equ	song04_pri, 0
	.equ	song04_rev, 0
	.equ	song04_mvl, 127
	.equ	song04_key, 0
	.equ	song04_tbs, 1
	.equ	song04_exg, 0
	.equ	song04_cmp, 1

	.section .rodata
	.global	song04
	.align	2


@**************** Track 1 (Midi-Chn.0) ****************@

song04_001:
@  #01 @000   ----------------------------------------
 .byte   KEYSH , song04_key+0
 .byte   TEMPO , 86*song04_tbs/2
 .byte   VOICE , 1
 .byte   VOL , 45*song04_mvl/mxv
 .byte   PAN , c_v+0
 .byte   En3 ,v064
 .byte   PAN , c_v+0
 .byte   BEND , c_v+0
 .byte   N92 ,Cn3 ,v100
 .byte   N92 ,Ds3
 .byte   N92 ,Fn3
 .byte   W92
 .byte   W01
 .byte   N03 ,Dn3
 .byte   N03 ,Fn3
 .byte   N03 ,Gn3
 .byte   W03
@  #01 @001   ----------------------------------------
Label_01401B8B:
 .byte   N92 ,Cn3 ,v100
 .byte   N92 ,Ds3
 .byte   N92 ,Fn3
 .byte   W92
 .byte   W01
 .byte   N03 ,Dn3
 .byte   N03 ,Fn3
 .byte   N03 ,Gn3
 .byte   W03
 .byte   PEND 
@  #01 @002   ----------------------------------------
 .byte   PATT
  .word Label_01401B8B
@  #01 @003   ----------------------------------------
Label_01401BA1:
 .byte   N92 ,Cn3 ,v100
 .byte   N92 ,Ds3
 .byte   N92 ,Fn3
 .byte   W92
 .byte   W01
 .byte   N03 ,As2
 .byte   N03 ,Dn3
 .byte   N03 ,Gn3
 .byte   W03
 .byte   PEND 
@  #01 @004   ----------------------------------------
Label_01401BB2:
 .byte   N92 ,As2 ,v100
 .byte   N92 ,Cn3
 .byte   N92 ,Dn3
 .byte   W92
 .byte   W01
 .byte   N03 ,Fn2
 .byte   N03 ,As2
 .byte   N03 ,Ds3
 .byte   W03
 .byte   PEND 
@  #01 @005   ----------------------------------------
 .byte   PATT
  .word Label_01401BB2
@  #01 @006   ----------------------------------------
 .byte   PATT
  .word Label_01401BB2
@  #01 @007   ----------------------------------------
Label_01401BCD:
 .byte   N96 ,As2 ,v100
 .byte   N96 ,Cn3
 .byte   N96 ,Dn3
 .byte   W96
 .byte   PEND 
@  #01 @008   ----------------------------------------
 .byte   PATT
  .word Label_01401B8B
@  #01 @009   ----------------------------------------
 .byte   PATT
  .word Label_01401B8B
@  #01 @010   ----------------------------------------
 .byte   PATT
  .word Label_01401B8B
@  #01 @011   ----------------------------------------
 .byte   PATT
  .word Label_01401BA1
@  #01 @012   ----------------------------------------
 .byte   PATT
  .word Label_01401BB2
@  #01 @013   ----------------------------------------
 .byte   PATT
  .word Label_01401BB2
@  #01 @014   ----------------------------------------
 .byte   PATT
  .word Label_01401BB2
@  #01 @015   ----------------------------------------
 .byte   PATT
  .word Label_01401BCD
@  #01 @016   ----------------------------------------
 .byte   W96
@  #01 @017   ----------------------------------------
 .byte   W96
@  #01 @018   ----------------------------------------
 .byte   W96
@  #01 @019   ----------------------------------------
 .byte   W96
@  #01 @020   ----------------------------------------
 .byte   W96
@  #01 @021   ----------------------------------------
 .byte   W96
@  #01 @022   ----------------------------------------
 .byte   W96
@  #01 @023   ----------------------------------------
 .byte   W96
@  #01 @024   ----------------------------------------
 .byte   W96
@  #01 @025   ----------------------------------------
 .byte   W96
@  #01 @026   ----------------------------------------
 .byte   W96
@  #01 @027   ----------------------------------------
 .byte   W96
@  #01 @028   ----------------------------------------
 .byte   W96
@  #01 @029   ----------------------------------------
 .byte   W96
@  #01 @030   ----------------------------------------
 .byte   W96
@  #01 @031   ----------------------------------------
 .byte   W96
@  #01 @032   ----------------------------------------
 .byte   PATT
  .word Label_01401B8B
@  #01 @033   ----------------------------------------
 .byte   PATT
  .word Label_01401B8B
@  #01 @034   ----------------------------------------
 .byte   PATT
  .word Label_01401B8B
@  #01 @035   ----------------------------------------
 .byte   PATT
  .word Label_01401BA1
@  #01 @036   ----------------------------------------
 .byte   PATT
  .word Label_01401BB2
@  #01 @037   ----------------------------------------
 .byte   PATT
  .word Label_01401BB2
@  #01 @038   ----------------------------------------
 .byte   PATT
  .word Label_01401BB2
@  #01 @039   ----------------------------------------
 .byte   PATT
  .word Label_01401BCD
@  #01 @040   ----------------------------------------
 .byte   PATT
  .word Label_01401B8B
@  #01 @041   ----------------------------------------
 .byte   PATT
  .word Label_01401B8B
@  #01 @042   ----------------------------------------
 .byte   PATT
  .word Label_01401B8B
@  #01 @043   ----------------------------------------
 .byte   PATT
  .word Label_01401BA1
@  #01 @044   ----------------------------------------
 .byte   PATT
  .word Label_01401BB2
@  #01 @045   ----------------------------------------
 .byte   PATT
  .word Label_01401BB2
@  #01 @046   ----------------------------------------
 .byte   PATT
  .word Label_01401BB2
@  #01 @047   ----------------------------------------
 .byte   PATT
  .word Label_01401BCD
@  #01 @048   ----------------------------------------
 .byte   PATT
  .word Label_01401B8B
@  #01 @049   ----------------------------------------
 .byte   PATT
  .word Label_01401B8B
@  #01 @050   ----------------------------------------
 .byte   PATT
  .word Label_01401B8B
@  #01 @051   ----------------------------------------
 .byte   PATT
  .word Label_01401BA1
@  #01 @052   ----------------------------------------
 .byte   GOTO
  .word Label_01401BB2
@  #01 @053   ----------------------------------------
 .byte   PATT
  .word Label_01401BB2
@  #01 @054   ----------------------------------------
 .byte   PATT
  .word Label_01401BB2
@  #01 @055   ----------------------------------------
 .byte   PATT
  .word Label_01401BB2
@  #01 @056   ----------------------------------------
 .byte   PATT
  .word Label_01401BCD
@  #01 @057   ----------------------------------------
 .byte   PATT
  .word Label_01401B8B
@  #01 @058   ----------------------------------------
 .byte   PATT
  .word Label_01401B8B
@  #01 @059   ----------------------------------------
 .byte   PATT
  .word Label_01401B8B
@  #01 @060   ----------------------------------------
 .byte   PATT
  .word Label_01401BA1
@  #01 @061   ----------------------------------------
 .byte   PATT
  .word Label_01401BB2
@  #01 @062   ----------------------------------------
 .byte   PATT
  .word Label_01401BB2
@  #01 @063   ----------------------------------------
 .byte   PATT
  .word Label_01401BB2
@  #01 @064   ----------------------------------------
 .byte   PATT
  .word Label_01401BCD
@  #01 @065   ----------------------------------------
 .byte   W96
@  #01 @066   ----------------------------------------
 .byte   W96
@  #01 @067   ----------------------------------------
 .byte   W96
@  #01 @068   ----------------------------------------
 .byte   W96
@  #01 @069   ----------------------------------------
 .byte   W96
@  #01 @070   ----------------------------------------
 .byte   W96
@  #01 @071   ----------------------------------------
 .byte   W96
@  #01 @072   ----------------------------------------
 .byte   W96
@  #01 @073   ----------------------------------------
 .byte   W96
@  #01 @074   ----------------------------------------
 .byte   W96
@  #01 @075   ----------------------------------------
 .byte   W96
@  #01 @076   ----------------------------------------
 .byte   W96
@  #01 @077   ----------------------------------------
 .byte   W96
@  #01 @078   ----------------------------------------
 .byte   W96
@  #01 @079   ----------------------------------------
 .byte   W96
@  #01 @080   ----------------------------------------
 .byte   W96
@  #01 @081   ----------------------------------------
 .byte   PATT
  .word Label_01401B8B
@  #01 @082   ----------------------------------------
 .byte   PATT
  .word Label_01401B8B
@  #01 @083   ----------------------------------------
 .byte   PATT
  .word Label_01401B8B
@  #01 @084   ----------------------------------------
 .byte   PATT
  .word Label_01401BA1
@  #01 @085   ----------------------------------------
 .byte   PATT
  .word Label_01401BB2
@  #01 @086   ----------------------------------------
 .byte   PATT
  .word Label_01401BB2
@  #01 @087   ----------------------------------------
 .byte   PATT
  .word Label_01401BB2
@  #01 @088   ----------------------------------------
 .byte   PATT
  .word Label_01401BCD
@  #01 @089   ----------------------------------------
 .byte   PATT
  .word Label_01401B8B
@  #01 @090   ----------------------------------------
 .byte   PATT
  .word Label_01401B8B
@  #01 @091   ----------------------------------------
 .byte   PATT
  .word Label_01401B8B
@  #01 @092   ----------------------------------------
 .byte   PATT
  .word Label_01401BA1
@  #01 @093   ----------------------------------------
 .byte   PATT
  .word Label_01401BB2
@  #01 @094   ----------------------------------------
 .byte   PATT
  .word Label_01401BB2
@  #01 @095   ----------------------------------------
 .byte   PATT
  .word Label_01401BB2
@  #01 @096   ----------------------------------------
 .byte   PATT
  .word Label_01401BCD
@  #01 @097   ----------------------------------------
 .byte   VOICE , 1
 .byte   PAN , c_v+0
 .byte   En3 ,v064
 .byte   BEND , c_v+0
 .byte   FINE

@**************** Track 2 (Midi-Chn.1) ****************@

song04_002:
@  #02 @000   ----------------------------------------
 .byte   KEYSH , song04_key+0
 .byte   VOICE , 38
 .byte   PAN , c_v+0
 .byte   VOL , 51*song04_mvl/mxv
 .byte   PAN , c_v+0
 .byte   VOL , 51*song04_mvl/mxv
 .byte   PAN , c_v+0
 .byte   VOL , 51*song04_mvl/mxv
 .byte   PAN , c_v+0
 .byte   VOL , 51*song04_mvl/mxv
 .byte   BEND , c_v+0
 .byte   W96
@  #02 @001   ----------------------------------------
 .byte   W96
@  #02 @002   ----------------------------------------
 .byte   W96
@  #02 @003   ----------------------------------------
 .byte   W96
@  #02 @004   ----------------------------------------
Label_01401532:
 .byte   N12 ,Gn0 ,v100
 .byte   N12 ,Cn1
 .byte   W24
 .byte   Gn0
 .byte   N12 ,Cn1
 .byte   W24
 .byte   N09 ,Gn0
 .byte   N09 ,Cn1
 .byte   W12
 .byte   Gn0
 .byte   N09 ,Cn1
 .byte   W18
 .byte   Gn0
 .byte   N09 ,Cn1
 .byte   W18
 .byte   PEND 
@  #02 @005   ----------------------------------------
Label_0140154A:
 .byte   W24
 .byte   N12 ,Gn0 ,v100
 .byte   N12 ,Cn1
 .byte   W24
 .byte   N09 ,Gn0
 .byte   N09 ,Cn1
 .byte   W12
 .byte   Gn0
 .byte   N09 ,Cn1
 .byte   W18
 .byte   Gn0
 .byte   N09 ,Cn1
 .byte   W18
 .byte   PEND 
@  #02 @006   ----------------------------------------
 .byte   PATT
  .word Label_0140154A
@  #02 @007   ----------------------------------------
 .byte   PATT
  .word Label_0140154A
@  #02 @008   ----------------------------------------
 .byte   PATT
  .word Label_01401532
@  #02 @009   ----------------------------------------
 .byte   PATT
  .word Label_0140154A
@  #02 @010   ----------------------------------------
 .byte   PATT
  .word Label_0140154A
@  #02 @011   ----------------------------------------
 .byte   PATT
  .word Label_0140154A
@  #02 @012   ----------------------------------------
 .byte   PATT
  .word Label_01401532
@  #02 @013   ----------------------------------------
 .byte   PATT
  .word Label_0140154A
@  #02 @014   ----------------------------------------
 .byte   PATT
  .word Label_0140154A
@  #02 @015   ----------------------------------------
 .byte   PATT
  .word Label_0140154A
@  #02 @016   ----------------------------------------
 .byte   PATT
  .word Label_01401532
@  #02 @017   ----------------------------------------
 .byte   PATT
  .word Label_0140154A
@  #02 @018   ----------------------------------------
 .byte   PATT
  .word Label_0140154A
@  #02 @019   ----------------------------------------
 .byte   PATT
  .word Label_0140154A
@  #02 @020   ----------------------------------------
 .byte   PATT
  .word Label_01401532
@  #02 @021   ----------------------------------------
 .byte   PATT
  .word Label_0140154A
@  #02 @022   ----------------------------------------
 .byte   PATT
  .word Label_0140154A
@  #02 @023   ----------------------------------------
 .byte   PATT
  .word Label_0140154A
@  #02 @024   ----------------------------------------
 .byte   W96
@  #02 @025   ----------------------------------------
 .byte   W96
@  #02 @026   ----------------------------------------
 .byte   W96
@  #02 @027   ----------------------------------------
 .byte   W96
@  #02 @028   ----------------------------------------
 .byte   PATT
  .word Label_01401532
@  #02 @029   ----------------------------------------
 .byte   PATT
  .word Label_0140154A
@  #02 @030   ----------------------------------------
 .byte   PATT
  .word Label_0140154A
@  #02 @031   ----------------------------------------
 .byte   PATT
  .word Label_0140154A
@  #02 @032   ----------------------------------------
 .byte   W96
@  #02 @033   ----------------------------------------
 .byte   W96
@  #02 @034   ----------------------------------------
 .byte   W96
@  #02 @035   ----------------------------------------
 .byte   W96
@  #02 @036   ----------------------------------------
 .byte   W96
@  #02 @037   ----------------------------------------
 .byte   W96
@  #02 @038   ----------------------------------------
 .byte   W96
@  #02 @039   ----------------------------------------
 .byte   W96
@  #02 @040   ----------------------------------------
 .byte   N96 ,Gn1 ,v100
 .byte   N96 ,Cn2
 .byte   W96
@  #02 @041   ----------------------------------------
 .byte   Gn1
 .byte   N96 ,Cn2
 .byte   W96
@  #02 @042   ----------------------------------------
 .byte   Gn1
 .byte   N96 ,Cn2
 .byte   W96
@  #02 @043   ----------------------------------------
 .byte   Gn1
 .byte   N96 ,Cn2
 .byte   W96
@  #02 @044   ----------------------------------------
 .byte   Gn1
 .byte   N96 ,Cn2
 .byte   W96
@  #02 @045   ----------------------------------------
 .byte   Gn1
 .byte   N96 ,Cn2
 .byte   W96
@  #02 @046   ----------------------------------------
 .byte   Gn1
 .byte   N96 ,Cn2
 .byte   W96
@  #02 @047   ----------------------------------------
 .byte   Gn1
 .byte   N96 ,Cn2
 .byte   W96
@  #02 @048   ----------------------------------------
 .byte   W96
@  #02 @049   ----------------------------------------
 .byte   W96
@  #02 @050   ----------------------------------------
 .byte   W96
@  #02 @051   ----------------------------------------
 .byte   W96
@  #02 @052   ----------------------------------------
 .byte   GOTO
  .word Label_01401532
@  #02 @053   ----------------------------------------
 .byte   PATT
  .word Label_01401532
@  #02 @054   ----------------------------------------
 .byte   PATT
  .word Label_0140154A
@  #02 @055   ----------------------------------------
 .byte   PATT
  .word Label_0140154A
@  #02 @056   ----------------------------------------
 .byte   PATT
  .word Label_0140154A
@  #02 @057   ----------------------------------------
 .byte   PATT
  .word Label_01401532
@  #02 @058   ----------------------------------------
 .byte   PATT
  .word Label_0140154A
@  #02 @059   ----------------------------------------
 .byte   PATT
  .word Label_0140154A
@  #02 @060   ----------------------------------------
 .byte   PATT
  .word Label_0140154A
@  #02 @061   ----------------------------------------
 .byte   PATT
  .word Label_01401532
@  #02 @062   ----------------------------------------
 .byte   PATT
  .word Label_0140154A
@  #02 @063   ----------------------------------------
 .byte   PATT
  .word Label_0140154A
@  #02 @064   ----------------------------------------
 .byte   PATT
  .word Label_0140154A
@  #02 @065   ----------------------------------------
 .byte   PATT
  .word Label_01401532
@  #02 @066   ----------------------------------------
 .byte   PATT
  .word Label_0140154A
@  #02 @067   ----------------------------------------
 .byte   PATT
  .word Label_0140154A
@  #02 @068   ----------------------------------------
 .byte   PATT
  .word Label_0140154A
@  #02 @069   ----------------------------------------
 .byte   PATT
  .word Label_01401532
@  #02 @070   ----------------------------------------
 .byte   PATT
  .word Label_0140154A
@  #02 @071   ----------------------------------------
 .byte   PATT
  .word Label_0140154A
@  #02 @072   ----------------------------------------
 .byte   PATT
  .word Label_0140154A
@  #02 @073   ----------------------------------------
 .byte   W96
@  #02 @074   ----------------------------------------
 .byte   W96
@  #02 @075   ----------------------------------------
 .byte   W96
@  #02 @076   ----------------------------------------
 .byte   W96
@  #02 @077   ----------------------------------------
 .byte   PATT
  .word Label_01401532
@  #02 @078   ----------------------------------------
 .byte   PATT
  .word Label_0140154A
@  #02 @079   ----------------------------------------
 .byte   PATT
  .word Label_0140154A
@  #02 @080   ----------------------------------------
 .byte   PATT
  .word Label_0140154A
@  #02 @081   ----------------------------------------
 .byte   W96
@  #02 @082   ----------------------------------------
 .byte   W96
@  #02 @083   ----------------------------------------
 .byte   W96
@  #02 @084   ----------------------------------------
 .byte   W96
@  #02 @085   ----------------------------------------
 .byte   W96
@  #02 @086   ----------------------------------------
 .byte   W96
@  #02 @087   ----------------------------------------
 .byte   W96
@  #02 @088   ----------------------------------------
 .byte   W96
@  #02 @089   ----------------------------------------
 .byte   N96 ,Gn1 ,v100
 .byte   N96 ,Cn2
 .byte   W96
@  #02 @090   ----------------------------------------
 .byte   Gn1
 .byte   N96 ,Cn2
 .byte   W96
@  #02 @091   ----------------------------------------
 .byte   Gn1
 .byte   N96 ,Cn2
 .byte   W96
@  #02 @092   ----------------------------------------
 .byte   Gn1
 .byte   N96 ,Cn2
 .byte   W96
@  #02 @093   ----------------------------------------
 .byte   Gn1
 .byte   N96 ,Cn2
 .byte   W96
@  #02 @094   ----------------------------------------
 .byte   Gn1
 .byte   N96 ,Cn2
 .byte   W96
@  #02 @095   ----------------------------------------
 .byte   Gn1
 .byte   N96 ,Cn2
 .byte   W96
@  #02 @096   ----------------------------------------
 .byte   Gn1
 .byte   N96 ,Cn2
 .byte   W96
@  #02 @097   ----------------------------------------
 .byte   PAN , c_v+0
 .byte   VOL , 51*song04_mvl/mxv
 .byte   PAN , c_v+0
 .byte   VOL , 51*song04_mvl/mxv
 .byte   PAN , c_v+0
 .byte   VOL , 51*song04_mvl/mxv
 .byte   BEND , c_v+0
 .byte   FINE

@**************** Track 3 (Midi-Chn.2) ****************@

song04_003:
@  #03 @000   ----------------------------------------
 .byte   KEYSH , song04_key+0
 .byte   VOICE , 52
 .byte   PAN , c_v-24
 .byte   VOL , 43*song04_mvl/mxv
 .byte   PAN , c_v-24
 .byte   VOL , 43*song04_mvl/mxv
 .byte   PAN , c_v-24
 .byte   VOL , 43*song04_mvl/mxv
 .byte   PAN , c_v-24
 .byte   VOL , 43*song04_mvl/mxv
 .byte   BEND , c_v+0
 .byte   W96
@  #03 @001   ----------------------------------------
 .byte   W96
@  #03 @002   ----------------------------------------
 .byte   W96
@  #03 @003   ----------------------------------------
 .byte   W96
@  #03 @004   ----------------------------------------
Label_01402CAE:
 .byte   W96
@  #03 @005   ----------------------------------------
 .byte   W96
@  #03 @006   ----------------------------------------
 .byte   W96
@  #03 @007   ----------------------------------------
 .byte   W96
@  #03 @008   ----------------------------------------
 .byte   W96
@  #03 @009   ----------------------------------------
Label_01402CB3:
 .byte   W24
 .byte   BEND , c_v+0
 .byte   N18 ,Fn3 ,v100
 .byte   W18
 .byte   N54 ,As3
 .byte   W30
 .byte   BEND , c_v-1
 .byte   W01
 .byte   BEND , c_v-1
 .byte   W01
 .byte   BEND , c_v-1
 .byte   W01
 .byte   BEND , c_v-1
 .byte   W01
 .byte   BEND , c_v-2
 .byte   W01
 .byte   BEND , c_v-2
 .byte   W01
 .byte   BEND , c_v-2
 .byte   W01
 .byte   BEND , c_v-2
 .byte   W01
 .byte   BEND , c_v-2
 .byte   W01
 .byte   BEND , c_v-3
 .byte   W01
 .byte   BEND , c_v-3
 .byte   W01
 .byte   BEND , c_v-3
 .byte   W01
 .byte   BEND , c_v-3
 .byte   W01
 .byte   BEND , c_v-4
 .byte   W01
 .byte   BEND , c_v-4
 .byte   W01
 .byte   BEND , c_v-4
 .byte   W01
 .byte   BEND , c_v-4
 .byte   W01
 .byte   BEND , c_v-4
 .byte   W01
 .byte   BEND , c_v-5
 .byte   W01
 .byte   BEND , c_v-5
 .byte   W01
 .byte   BEND , c_v-5
 .byte   W01
 .byte   BEND , c_v-5
 .byte   W01
 .byte   BEND , c_v-6
 .byte   W01
 .byte   BEND , c_v-6
 .byte   W01
 .byte   PEND 
@  #03 @010   ----------------------------------------
 .byte   PATT
  .word Label_01402CB3
@  #03 @011   ----------------------------------------
 .byte   PATT
  .word Label_01402CB3
@  #03 @012   ----------------------------------------
 .byte   PATT
  .word Label_01402CB3
@  #03 @013   ----------------------------------------
 .byte   PATT
  .word Label_01402CB3
@  #03 @014   ----------------------------------------
 .byte   PATT
  .word Label_01402CB3
@  #03 @015   ----------------------------------------
 .byte   PATT
  .word Label_01402CB3
@  #03 @016   ----------------------------------------
Label_01402D0D:
 .byte   BEND , c_v+0
 .byte   N48 ,Dn4 ,v100
 .byte   W48
 .byte   N12 ,Gn3
 .byte   W12
 .byte   As3
 .byte   W12
 .byte   N24 ,Ds4
 .byte   W24
 .byte   PEND 
@  #03 @017   ----------------------------------------
Label_01402D1C:
 .byte   N36 ,Dn4 ,v100
 .byte   W48
 .byte   N12 ,Gn3
 .byte   W12
 .byte   As3
 .byte   W12
 .byte   N24 ,Ds4
 .byte   W24
 .byte   PEND 
@  #03 @018   ----------------------------------------
Label_01402D29:
 .byte   N48 ,Dn4 ,v100
 .byte   W48
 .byte   N12 ,Gn3
 .byte   W12
 .byte   As3
 .byte   W12
 .byte   N24 ,Ds4
 .byte   W24
 .byte   PEND 
@  #03 @019   ----------------------------------------
Label_01402D36:
 .byte   N36 ,Dn4 ,v100
 .byte   W48
 .byte   N12 ,Bn3
 .byte   W12
 .byte   Cn4
 .byte   W12
 .byte   N24 ,Ds4
 .byte   W24
 .byte   PEND 
@  #03 @020   ----------------------------------------
Label_01402D43:
 .byte   N48 ,Dn4 ,v100
 .byte   W48
 .byte   N12 ,Gn3
 .byte   W12
 .byte   As3
 .byte   W12
 .byte   N21 ,Ds4
 .byte   W21
 .byte   N03 ,Fn4
 .byte   W03
 .byte   PEND 
@  #03 @021   ----------------------------------------
Label_01402D53:
 .byte   N48 ,Dn4 ,v100
 .byte   W48
 .byte   N24 ,As3
 .byte   W24
 .byte   Cn4
 .byte   W24
 .byte   PEND 
@  #03 @022   ----------------------------------------
Label_01402D5D:
 .byte   N48 ,Bn3 ,v100
 .byte   W48
 .byte   N12 ,Gn3
 .byte   W12
 .byte   Bn3
 .byte   W12
 .byte   N24 ,Dn4
 .byte   W24
 .byte   PEND 
@  #03 @023   ----------------------------------------
 .byte   N84 ,Bn3
 .byte   W96
@  #03 @024   ----------------------------------------
 .byte   PATT
  .word Label_01402D29
@  #03 @025   ----------------------------------------
 .byte   PATT
  .word Label_01402D1C
@  #03 @026   ----------------------------------------
 .byte   PATT
  .word Label_01402D29
@  #03 @027   ----------------------------------------
Label_01402D7C:
 .byte   N36 ,Dn4 ,v100
 .byte   W48
 .byte   N12 ,Bn3
 .byte   W12
 .byte   Cn4
 .byte   W12
 .byte   N18 ,Fn4
 .byte   W18
 .byte   N06 ,Ds4
 .byte   W06
 .byte   PEND 
@  #03 @028   ----------------------------------------
 .byte   PATT
  .word Label_01402D43
@  #03 @029   ----------------------------------------
 .byte   PATT
  .word Label_01402D53
@  #03 @030   ----------------------------------------
 .byte   PATT
  .word Label_01402D5D
@  #03 @031   ----------------------------------------
 .byte   N84 ,Bn3 ,v100
 .byte   W96
@  #03 @032   ----------------------------------------
 .byte   PATT
  .word Label_01402CB3
@  #03 @033   ----------------------------------------
 .byte   PATT
  .word Label_01402CB3
@  #03 @034   ----------------------------------------
 .byte   PATT
  .word Label_01402CB3
@  #03 @035   ----------------------------------------
 .byte   PATT
  .word Label_01402CB3
@  #03 @036   ----------------------------------------
 .byte   PATT
  .word Label_01402CB3
@  #03 @037   ----------------------------------------
 .byte   PATT
  .word Label_01402CB3
@  #03 @038   ----------------------------------------
 .byte   PATT
  .word Label_01402CB3
@  #03 @039   ----------------------------------------
 .byte   PATT
  .word Label_01402CB3
@  #03 @040   ----------------------------------------
 .byte   PATT
  .word Label_01402CB3
@  #03 @041   ----------------------------------------
 .byte   PATT
  .word Label_01402CB3
@  #03 @042   ----------------------------------------
 .byte   PATT
  .word Label_01402CB3
@  #03 @043   ----------------------------------------
 .byte   PATT
  .word Label_01402CB3
@  #03 @044   ----------------------------------------
 .byte   PATT
  .word Label_01402CB3
@  #03 @045   ----------------------------------------
 .byte   PATT
  .word Label_01402CB3
@  #03 @046   ----------------------------------------
 .byte   PATT
  .word Label_01402CB3
@  #03 @047   ----------------------------------------
 .byte   PATT
  .word Label_01402CB3
@  #03 @048   ----------------------------------------
 .byte   BEND , c_v+0
 .byte   W96
@  #03 @049   ----------------------------------------
 .byte   W96
@  #03 @050   ----------------------------------------
 .byte   W96
@  #03 @051   ----------------------------------------
 .byte   W96
@  #03 @052   ----------------------------------------
 .byte   GOTO
  .word Label_01402CAE
@  #03 @053   ----------------------------------------
 .byte   W96
@  #03 @054   ----------------------------------------
 .byte   W96
@  #03 @055   ----------------------------------------
 .byte   W96
@  #03 @056   ----------------------------------------
 .byte   W96
@  #03 @057   ----------------------------------------
 .byte   W96
@  #03 @058   ----------------------------------------
 .byte   PATT
  .word Label_01402CB3
@  #03 @059   ----------------------------------------
 .byte   PATT
  .word Label_01402CB3
@  #03 @060   ----------------------------------------
 .byte   PATT
  .word Label_01402CB3
@  #03 @061   ----------------------------------------
 .byte   PATT
  .word Label_01402CB3
@  #03 @062   ----------------------------------------
 .byte   PATT
  .word Label_01402CB3
@  #03 @063   ----------------------------------------
 .byte   PATT
  .word Label_01402CB3
@  #03 @064   ----------------------------------------
 .byte   PATT
  .word Label_01402CB3
@  #03 @065   ----------------------------------------
 .byte   PATT
  .word Label_01402D0D
@  #03 @066   ----------------------------------------
 .byte   PATT
  .word Label_01402D1C
@  #03 @067   ----------------------------------------
 .byte   PATT
  .word Label_01402D29
@  #03 @068   ----------------------------------------
 .byte   PATT
  .word Label_01402D36
@  #03 @069   ----------------------------------------
 .byte   PATT
  .word Label_01402D43
@  #03 @070   ----------------------------------------
 .byte   PATT
  .word Label_01402D53
@  #03 @071   ----------------------------------------
 .byte   PATT
  .word Label_01402D5D
@  #03 @072   ----------------------------------------
 .byte   N84 ,Bn3 ,v100
 .byte   W96
@  #03 @073   ----------------------------------------
 .byte   PATT
  .word Label_01402D29
@  #03 @074   ----------------------------------------
 .byte   PATT
  .word Label_01402D1C
@  #03 @075   ----------------------------------------
 .byte   PATT
  .word Label_01402D29
@  #03 @076   ----------------------------------------
 .byte   PATT
  .word Label_01402D7C
@  #03 @077   ----------------------------------------
 .byte   PATT
  .word Label_01402D43
@  #03 @078   ----------------------------------------
 .byte   PATT
  .word Label_01402D53
@  #03 @079   ----------------------------------------
 .byte   PATT
  .word Label_01402D5D
@  #03 @080   ----------------------------------------
 .byte   N84 ,Bn3 ,v100
 .byte   W96
@  #03 @081   ----------------------------------------
 .byte   PATT
  .word Label_01402CB3
@  #03 @082   ----------------------------------------
 .byte   PATT
  .word Label_01402CB3
@  #03 @083   ----------------------------------------
 .byte   PATT
  .word Label_01402CB3
@  #03 @084   ----------------------------------------
 .byte   PATT
  .word Label_01402CB3
@  #03 @085   ----------------------------------------
 .byte   PATT
  .word Label_01402CB3
@  #03 @086   ----------------------------------------
 .byte   PATT
  .word Label_01402CB3
@  #03 @087   ----------------------------------------
 .byte   PATT
  .word Label_01402CB3
@  #03 @088   ----------------------------------------
 .byte   PATT
  .word Label_01402CB3
@  #03 @089   ----------------------------------------
 .byte   PATT
  .word Label_01402CB3
@  #03 @090   ----------------------------------------
 .byte   PATT
  .word Label_01402CB3
@  #03 @091   ----------------------------------------
 .byte   PATT
  .word Label_01402CB3
@  #03 @092   ----------------------------------------
 .byte   PATT
  .word Label_01402CB3
@  #03 @093   ----------------------------------------
 .byte   PATT
  .word Label_01402CB3
@  #03 @094   ----------------------------------------
 .byte   PATT
  .word Label_01402CB3
@  #03 @095   ----------------------------------------
 .byte   PATT
  .word Label_01402CB3
@  #03 @096   ----------------------------------------
 .byte   PATT
  .word Label_01402CB3
@  #03 @097   ----------------------------------------
 .byte   VOICE , 52
 .byte   PAN , c_v-24
 .byte   VOL , 43*song04_mvl/mxv
 .byte   PAN , c_v-24
 .byte   VOL , 43*song04_mvl/mxv
 .byte   PAN , c_v-24
 .byte   VOL , 43*song04_mvl/mxv
 .byte   BEND , c_v-6
 .byte   FINE

@**************** Track 4 (Midi-Chn.3) ****************@

song04_004:
@  #04 @000   ----------------------------------------
 .byte   KEYSH , song04_key+0
 .byte   VOICE , 91
 .byte   PAN , c_v+20
 .byte   VOL , 41*song04_mvl/mxv
 .byte   PAN , c_v+20
 .byte   VOL , 41*song04_mvl/mxv
 .byte   PAN , c_v+20
 .byte   VOL , 41*song04_mvl/mxv
 .byte   PAN , c_v+20
 .byte   VOL , 41*song04_mvl/mxv
 .byte   BEND , c_v+0
 .byte   W96
@  #04 @001   ----------------------------------------
 .byte   W96
@  #04 @002   ----------------------------------------
 .byte   W96
@  #04 @003   ----------------------------------------
 .byte   W96
@  #04 @004   ----------------------------------------
Label_014016E6:
 .byte   W96
@  #04 @005   ----------------------------------------
 .byte   W96
@  #04 @006   ----------------------------------------
 .byte   W96
@  #04 @007   ----------------------------------------
 .byte   W96
@  #04 @008   ----------------------------------------
 .byte   W96
@  #04 @009   ----------------------------------------
Label_014016EB:
 .byte   W24
 .byte   BEND , c_v+0
 .byte   N18 ,Fn3 ,v100
 .byte   W18
 .byte   N54 ,As3
 .byte   W30
 .byte   BEND , c_v-1
 .byte   W01
 .byte   BEND , c_v-1
 .byte   W01
 .byte   BEND , c_v-1
 .byte   W01
 .byte   BEND , c_v-1
 .byte   W01
 .byte   BEND , c_v-2
 .byte   W01
 .byte   BEND , c_v-2
 .byte   W01
 .byte   BEND , c_v-2
 .byte   W01
 .byte   BEND , c_v-2
 .byte   W01
 .byte   BEND , c_v-2
 .byte   W01
 .byte   BEND , c_v-3
 .byte   W01
 .byte   BEND , c_v-3
 .byte   W01
 .byte   BEND , c_v-3
 .byte   W01
 .byte   BEND , c_v-3
 .byte   W01
 .byte   BEND , c_v-4
 .byte   W01
 .byte   BEND , c_v-4
 .byte   W01
 .byte   BEND , c_v-4
 .byte   W01
 .byte   BEND , c_v-4
 .byte   W01
 .byte   BEND , c_v-4
 .byte   W01
 .byte   BEND , c_v-5
 .byte   W01
 .byte   BEND , c_v-5
 .byte   W01
 .byte   BEND , c_v-5
 .byte   W01
 .byte   BEND , c_v-5
 .byte   W01
 .byte   BEND , c_v-6
 .byte   W01
 .byte   BEND , c_v-6
 .byte   W01
 .byte   PEND 
@  #04 @010   ----------------------------------------
 .byte   PATT
  .word Label_014016EB
@  #04 @011   ----------------------------------------
 .byte   PATT
  .word Label_014016EB
@  #04 @012   ----------------------------------------
 .byte   PATT
  .word Label_014016EB
@  #04 @013   ----------------------------------------
 .byte   PATT
  .word Label_014016EB
@  #04 @014   ----------------------------------------
 .byte   PATT
  .word Label_014016EB
@  #04 @015   ----------------------------------------
 .byte   PATT
  .word Label_014016EB
@  #04 @016   ----------------------------------------
Label_01401745:
 .byte   BEND , c_v+0
 .byte   N48 ,Dn4 ,v100
 .byte   W48
 .byte   N12 ,Gn3
 .byte   W12
 .byte   As3
 .byte   W12
 .byte   N24 ,Ds4
 .byte   W24
 .byte   PEND 
@  #04 @017   ----------------------------------------
Label_01401754:
 .byte   N36 ,Dn4 ,v100
 .byte   W48
 .byte   N12 ,Gn3
 .byte   W12
 .byte   As3
 .byte   W12
 .byte   N24 ,Ds4
 .byte   W24
 .byte   PEND 
@  #04 @018   ----------------------------------------
Label_01401761:
 .byte   N48 ,Dn4 ,v100
 .byte   W48
 .byte   N12 ,Gn3
 .byte   W12
 .byte   As3
 .byte   W12
 .byte   N24 ,Ds4
 .byte   W24
 .byte   PEND 
@  #04 @019   ----------------------------------------
Label_0140176E:
 .byte   N36 ,Dn4 ,v100
 .byte   W48
 .byte   N12 ,Bn3
 .byte   W12
 .byte   Cn4
 .byte   W12
 .byte   N24 ,Ds4
 .byte   W24
 .byte   PEND 
@  #04 @020   ----------------------------------------
Label_0140177B:
 .byte   N48 ,Dn4 ,v100
 .byte   W48
 .byte   N12 ,Gn3
 .byte   W12
 .byte   As3
 .byte   W12
 .byte   N21 ,Ds4
 .byte   W21
 .byte   N03 ,Fn4
 .byte   W03
 .byte   PEND 
@  #04 @021   ----------------------------------------
Label_0140178B:
 .byte   N48 ,Dn4 ,v100
 .byte   W48
 .byte   N24 ,As3
 .byte   W24
 .byte   Cn4
 .byte   W24
 .byte   PEND 
@  #04 @022   ----------------------------------------
Label_01401795:
 .byte   N48 ,Bn3 ,v100
 .byte   W48
 .byte   N12 ,Gn3
 .byte   W12
 .byte   Bn3
 .byte   W12
 .byte   N24 ,Dn4
 .byte   W24
 .byte   PEND 
@  #04 @023   ----------------------------------------
 .byte   N84 ,Bn3
 .byte   W96
@  #04 @024   ----------------------------------------
 .byte   PATT
  .word Label_01401761
@  #04 @025   ----------------------------------------
 .byte   PATT
  .word Label_01401754
@  #04 @026   ----------------------------------------
 .byte   PATT
  .word Label_01401761
@  #04 @027   ----------------------------------------
Label_014017B4:
 .byte   N36 ,Dn4 ,v100
 .byte   W48
 .byte   N12 ,Bn3
 .byte   W12
 .byte   Cn4
 .byte   W12
 .byte   N18 ,Fn4
 .byte   W18
 .byte   N06 ,Ds4
 .byte   W06
 .byte   PEND 
@  #04 @028   ----------------------------------------
 .byte   PATT
  .word Label_0140177B
@  #04 @029   ----------------------------------------
 .byte   PATT
  .word Label_0140178B
@  #04 @030   ----------------------------------------
 .byte   PATT
  .word Label_01401795
@  #04 @031   ----------------------------------------
 .byte   N84 ,Bn3 ,v100
 .byte   W96
@  #04 @032   ----------------------------------------
 .byte   PATT
  .word Label_014016EB
@  #04 @033   ----------------------------------------
 .byte   PATT
  .word Label_014016EB
@  #04 @034   ----------------------------------------
 .byte   PATT
  .word Label_014016EB
@  #04 @035   ----------------------------------------
 .byte   PATT
  .word Label_014016EB
@  #04 @036   ----------------------------------------
 .byte   PATT
  .word Label_014016EB
@  #04 @037   ----------------------------------------
 .byte   PATT
  .word Label_014016EB
@  #04 @038   ----------------------------------------
 .byte   PATT
  .word Label_014016EB
@  #04 @039   ----------------------------------------
 .byte   PATT
  .word Label_014016EB
@  #04 @040   ----------------------------------------
 .byte   PATT
  .word Label_014016EB
@  #04 @041   ----------------------------------------
 .byte   PATT
  .word Label_014016EB
@  #04 @042   ----------------------------------------
 .byte   PATT
  .word Label_014016EB
@  #04 @043   ----------------------------------------
 .byte   PATT
  .word Label_014016EB
@  #04 @044   ----------------------------------------
 .byte   PATT
  .word Label_014016EB
@  #04 @045   ----------------------------------------
 .byte   PATT
  .word Label_014016EB
@  #04 @046   ----------------------------------------
 .byte   PATT
  .word Label_014016EB
@  #04 @047   ----------------------------------------
 .byte   PATT
  .word Label_014016EB
@  #04 @048   ----------------------------------------
 .byte   BEND , c_v+0
 .byte   W96
@  #04 @049   ----------------------------------------
 .byte   W96
@  #04 @050   ----------------------------------------
 .byte   W96
@  #04 @051   ----------------------------------------
 .byte   W96
@  #04 @052   ----------------------------------------
 .byte   GOTO
  .word Label_014016E6
@  #04 @053   ----------------------------------------
 .byte   W96
@  #04 @054   ----------------------------------------
 .byte   W96
@  #04 @055   ----------------------------------------
 .byte   W96
@  #04 @056   ----------------------------------------
 .byte   W96
@  #04 @057   ----------------------------------------
 .byte   W96
@  #04 @058   ----------------------------------------
 .byte   PATT
  .word Label_014016EB
@  #04 @059   ----------------------------------------
 .byte   PATT
  .word Label_014016EB
@  #04 @060   ----------------------------------------
 .byte   PATT
  .word Label_014016EB
@  #04 @061   ----------------------------------------
 .byte   PATT
  .word Label_014016EB
@  #04 @062   ----------------------------------------
 .byte   PATT
  .word Label_014016EB
@  #04 @063   ----------------------------------------
 .byte   PATT
  .word Label_014016EB
@  #04 @064   ----------------------------------------
 .byte   PATT
  .word Label_014016EB
@  #04 @065   ----------------------------------------
 .byte   PATT
  .word Label_01401745
@  #04 @066   ----------------------------------------
 .byte   PATT
  .word Label_01401754
@  #04 @067   ----------------------------------------
 .byte   PATT
  .word Label_01401761
@  #04 @068   ----------------------------------------
 .byte   PATT
  .word Label_0140176E
@  #04 @069   ----------------------------------------
 .byte   PATT
  .word Label_0140177B
@  #04 @070   ----------------------------------------
 .byte   PATT
  .word Label_0140178B
@  #04 @071   ----------------------------------------
 .byte   PATT
  .word Label_01401795
@  #04 @072   ----------------------------------------
 .byte   N84 ,Bn3 ,v100
 .byte   W96
@  #04 @073   ----------------------------------------
 .byte   PATT
  .word Label_01401761
@  #04 @074   ----------------------------------------
 .byte   PATT
  .word Label_01401754
@  #04 @075   ----------------------------------------
 .byte   PATT
  .word Label_01401761
@  #04 @076   ----------------------------------------
 .byte   PATT
  .word Label_014017B4
@  #04 @077   ----------------------------------------
 .byte   PATT
  .word Label_0140177B
@  #04 @078   ----------------------------------------
 .byte   PATT
  .word Label_0140178B
@  #04 @079   ----------------------------------------
 .byte   PATT
  .word Label_01401795
@  #04 @080   ----------------------------------------
 .byte   N84 ,Bn3 ,v100
 .byte   W96
@  #04 @081   ----------------------------------------
 .byte   PATT
  .word Label_014016EB
@  #04 @082   ----------------------------------------
 .byte   PATT
  .word Label_014016EB
@  #04 @083   ----------------------------------------
 .byte   PATT
  .word Label_014016EB
@  #04 @084   ----------------------------------------
 .byte   PATT
  .word Label_014016EB
@  #04 @085   ----------------------------------------
 .byte   PATT
  .word Label_014016EB
@  #04 @086   ----------------------------------------
 .byte   PATT
  .word Label_014016EB
@  #04 @087   ----------------------------------------
 .byte   PATT
  .word Label_014016EB
@  #04 @088   ----------------------------------------
 .byte   PATT
  .word Label_014016EB
@  #04 @089   ----------------------------------------
 .byte   PATT
  .word Label_014016EB
@  #04 @090   ----------------------------------------
 .byte   PATT
  .word Label_014016EB
@  #04 @091   ----------------------------------------
 .byte   PATT
  .word Label_014016EB
@  #04 @092   ----------------------------------------
 .byte   PATT
  .word Label_014016EB
@  #04 @093   ----------------------------------------
 .byte   PATT
  .word Label_014016EB
@  #04 @094   ----------------------------------------
 .byte   PATT
  .word Label_014016EB
@  #04 @095   ----------------------------------------
 .byte   PATT
  .word Label_014016EB
@  #04 @096   ----------------------------------------
 .byte   PATT
  .word Label_014016EB
@  #04 @097   ----------------------------------------
 .byte   VOICE , 91
 .byte   PAN , c_v+20
 .byte   VOL , 41*song04_mvl/mxv
 .byte   PAN , c_v+20
 .byte   VOL , 41*song04_mvl/mxv
 .byte   PAN , c_v+20
 .byte   VOL , 41*song04_mvl/mxv
 .byte   BEND , c_v-6
 .byte   FINE

@**************** Track 5 (Midi-Chn.4) ****************@

song04_005:
@  #05 @000   ----------------------------------------
 .byte   KEYSH , song04_key+0
 .byte   VOICE , 106
 .byte   VOL , 20*song04_mvl/mxv
 .byte   PAN , c_v+0
 .byte   En3 ,v064
 .byte   PAN , c_v+0
 .byte   BEND , c_v+0
 .byte   N72 ,Fn4 ,v100
 .byte   W01
 .byte   Ds4
 .byte   W01
 .byte   Cn4
 .byte   W90
 .byte   W01
 .byte   N03 ,As3
 .byte   N03 ,Dn4
 .byte   N03 ,Gn4
 .byte   W03
@  #05 @001   ----------------------------------------
Label_01401359:
 .byte   N72 ,Fn4 ,v100
 .byte   W01
 .byte   Ds4
 .byte   W01
 .byte   Cn4
 .byte   W90
 .byte   W01
 .byte   N03 ,As3
 .byte   N03 ,Dn4
 .byte   N03 ,Gn4
 .byte   W03
 .byte   PEND 
@  #05 @002   ----------------------------------------
 .byte   PATT
  .word Label_01401359
@  #05 @003   ----------------------------------------
 .byte   PATT
  .word Label_01401359
@  #05 @004   ----------------------------------------
Label_01401374:
 .byte   N72 ,Dn4 ,v100
 .byte   W01
 .byte   Cn4
 .byte   W01
 .byte   As3
 .byte   W90
 .byte   W01
 .byte   N03 ,Fn3
 .byte   N03 ,As3
 .byte   N03 ,Ds4
 .byte   W03
 .byte   PEND 
@  #05 @005   ----------------------------------------
 .byte   PATT
  .word Label_01401374
@  #05 @006   ----------------------------------------
 .byte   PATT
  .word Label_01401374
@  #05 @007   ----------------------------------------
Label_0140138F:
 .byte   N72 ,Dn4 ,v100
 .byte   W01
 .byte   Cn4
 .byte   W01
 .byte   As3
 .byte   W92
 .byte   W02
 .byte   PEND 
@  #05 @008   ----------------------------------------
 .byte   PATT
  .word Label_01401359
@  #05 @009   ----------------------------------------
 .byte   PATT
  .word Label_01401359
@  #05 @010   ----------------------------------------
 .byte   PATT
  .word Label_01401359
@  #05 @011   ----------------------------------------
 .byte   PATT
  .word Label_01401359
@  #05 @012   ----------------------------------------
 .byte   PATT
  .word Label_01401374
@  #05 @013   ----------------------------------------
 .byte   PATT
  .word Label_01401374
@  #05 @014   ----------------------------------------
 .byte   PATT
  .word Label_01401374
@  #05 @015   ----------------------------------------
 .byte   PATT
  .word Label_0140138F
@  #05 @016   ----------------------------------------
 .byte   W96
@  #05 @017   ----------------------------------------
 .byte   W96
@  #05 @018   ----------------------------------------
 .byte   W96
@  #05 @019   ----------------------------------------
 .byte   W96
@  #05 @020   ----------------------------------------
 .byte   W96
@  #05 @021   ----------------------------------------
 .byte   W96
@  #05 @022   ----------------------------------------
 .byte   W96
@  #05 @023   ----------------------------------------
 .byte   W96
@  #05 @024   ----------------------------------------
 .byte   W96
@  #05 @025   ----------------------------------------
 .byte   W96
@  #05 @026   ----------------------------------------
 .byte   W96
@  #05 @027   ----------------------------------------
 .byte   W96
@  #05 @028   ----------------------------------------
 .byte   W96
@  #05 @029   ----------------------------------------
 .byte   W96
@  #05 @030   ----------------------------------------
 .byte   W96
@  #05 @031   ----------------------------------------
 .byte   W96
@  #05 @032   ----------------------------------------
 .byte   PATT
  .word Label_01401359
@  #05 @033   ----------------------------------------
 .byte   PATT
  .word Label_01401359
@  #05 @034   ----------------------------------------
 .byte   PATT
  .word Label_01401359
@  #05 @035   ----------------------------------------
 .byte   PATT
  .word Label_01401359
@  #05 @036   ----------------------------------------
 .byte   PATT
  .word Label_01401374
@  #05 @037   ----------------------------------------
 .byte   PATT
  .word Label_01401374
@  #05 @038   ----------------------------------------
 .byte   PATT
  .word Label_01401374
@  #05 @039   ----------------------------------------
 .byte   PATT
  .word Label_0140138F
@  #05 @040   ----------------------------------------
 .byte   PATT
  .word Label_01401359
@  #05 @041   ----------------------------------------
 .byte   PATT
  .word Label_01401359
@  #05 @042   ----------------------------------------
 .byte   PATT
  .word Label_01401359
@  #05 @043   ----------------------------------------
 .byte   PATT
  .word Label_01401359
@  #05 @044   ----------------------------------------
 .byte   PATT
  .word Label_01401374
@  #05 @045   ----------------------------------------
 .byte   PATT
  .word Label_01401374
@  #05 @046   ----------------------------------------
 .byte   PATT
  .word Label_01401374
@  #05 @047   ----------------------------------------
 .byte   PATT
  .word Label_0140138F
@  #05 @048   ----------------------------------------
 .byte   PATT
  .word Label_01401359
@  #05 @049   ----------------------------------------
 .byte   PATT
  .word Label_01401359
@  #05 @050   ----------------------------------------
 .byte   PATT
  .word Label_01401359
@  #05 @051   ----------------------------------------
 .byte   PATT
  .word Label_01401359
@  #05 @052   ----------------------------------------
 .byte   GOTO
  .word Label_01401374
@  #05 @053   ----------------------------------------
 .byte   PATT
  .word Label_01401374
@  #05 @054   ----------------------------------------
 .byte   PATT
  .word Label_01401374
@  #05 @055   ----------------------------------------
 .byte   PATT
  .word Label_01401374
@  #05 @056   ----------------------------------------
 .byte   PATT
  .word Label_0140138F
@  #05 @057   ----------------------------------------
 .byte   PATT
  .word Label_01401359
@  #05 @058   ----------------------------------------
 .byte   PATT
  .word Label_01401359
@  #05 @059   ----------------------------------------
 .byte   PATT
  .word Label_01401359
@  #05 @060   ----------------------------------------
 .byte   PATT
  .word Label_01401359
@  #05 @061   ----------------------------------------
 .byte   PATT
  .word Label_01401374
@  #05 @062   ----------------------------------------
 .byte   PATT
  .word Label_01401374
@  #05 @063   ----------------------------------------
 .byte   PATT
  .word Label_01401374
@  #05 @064   ----------------------------------------
 .byte   PATT
  .word Label_0140138F
@  #05 @065   ----------------------------------------
 .byte   W96
@  #05 @066   ----------------------------------------
 .byte   W96
@  #05 @067   ----------------------------------------
 .byte   W96
@  #05 @068   ----------------------------------------
 .byte   W96
@  #05 @069   ----------------------------------------
 .byte   W96
@  #05 @070   ----------------------------------------
 .byte   W96
@  #05 @071   ----------------------------------------
 .byte   W96
@  #05 @072   ----------------------------------------
 .byte   W96
@  #05 @073   ----------------------------------------
 .byte   W96
@  #05 @074   ----------------------------------------
 .byte   W96
@  #05 @075   ----------------------------------------
 .byte   W96
@  #05 @076   ----------------------------------------
 .byte   W96
@  #05 @077   ----------------------------------------
 .byte   W96
@  #05 @078   ----------------------------------------
 .byte   W96
@  #05 @079   ----------------------------------------
 .byte   W96
@  #05 @080   ----------------------------------------
 .byte   W96
@  #05 @081   ----------------------------------------
 .byte   PATT
  .word Label_01401359
@  #05 @082   ----------------------------------------
 .byte   PATT
  .word Label_01401359
@  #05 @083   ----------------------------------------
 .byte   PATT
  .word Label_01401359
@  #05 @084   ----------------------------------------
 .byte   PATT
  .word Label_01401359
@  #05 @085   ----------------------------------------
 .byte   PATT
  .word Label_01401374
@  #05 @086   ----------------------------------------
 .byte   PATT
  .word Label_01401374
@  #05 @087   ----------------------------------------
 .byte   PATT
  .word Label_01401374
@  #05 @088   ----------------------------------------
 .byte   PATT
  .word Label_0140138F
@  #05 @089   ----------------------------------------
 .byte   PATT
  .word Label_01401359
@  #05 @090   ----------------------------------------
 .byte   PATT
  .word Label_01401359
@  #05 @091   ----------------------------------------
 .byte   PATT
  .word Label_01401359
@  #05 @092   ----------------------------------------
 .byte   PATT
  .word Label_01401359
@  #05 @093   ----------------------------------------
 .byte   PATT
  .word Label_01401374
@  #05 @094   ----------------------------------------
 .byte   PATT
  .word Label_01401374
@  #05 @095   ----------------------------------------
 .byte   PATT
  .word Label_01401374
@  #05 @096   ----------------------------------------
 .byte   PATT
  .word Label_0140138F
@  #05 @097   ----------------------------------------
 .byte   VOICE , 106
 .byte   PAN , c_v+0
 .byte   En3 ,v064
 .byte   BEND , c_v+0
 .byte   FINE

@**************** Track 6 (Midi-Chn.5) ****************@

song04_006:
@  #06 @000   ----------------------------------------
 .byte   KEYSH , song04_key+0
 .byte   VOICE , 42
 .byte   VOL , 10*song04_mvl/mxv
 .byte   PAN , c_v+0
 .byte   En3 ,v064
 .byte   PAN , c_v+0
 .byte   BEND , c_v+0
 .byte   N06 ,Fn1 ,v100
 .byte   N06 ,Cn2
 .byte   W24
 .byte   Fn1
 .byte   N06 ,Cn2
 .byte   W24
 .byte   Fn1
 .byte   N06 ,Cn2
 .byte   W24
 .byte   Fn1
 .byte   N06 ,Cn2
 .byte   W07
 .byte   N04 ,Fn1
 .byte   N04 ,Cn2
 .byte   W04
 .byte   Fn1
 .byte   N04 ,Cn2
 .byte   W13
@  #06 @001   ----------------------------------------
Label_01402A64:
 .byte   N06 ,Fn1 ,v100
 .byte   N06 ,Cn2
 .byte   W24
 .byte   Fn1
 .byte   N06 ,Cn2
 .byte   W24
 .byte   Fn1
 .byte   N06 ,Cn2
 .byte   W24
 .byte   Fn1
 .byte   N06 ,Cn2
 .byte   W07
 .byte   N04 ,Fn1
 .byte   N04 ,Cn2
 .byte   W04
 .byte   Fn1
 .byte   N04 ,Cn2
 .byte   W13
 .byte   PEND 
@  #06 @002   ----------------------------------------
 .byte   PATT
  .word Label_01402A64
@  #06 @003   ----------------------------------------
 .byte   PATT
  .word Label_01402A64
@  #06 @004   ----------------------------------------
Label_01402A8A:
@  #06 @005   ----------------------------------------
 .byte   PATT
  .word Label_01402A64
@  #06 @006   ----------------------------------------
 .byte   PATT
  .word Label_01402A64
@  #06 @007   ----------------------------------------
 .byte   PATT
  .word Label_01402A64
@  #06 @008   ----------------------------------------
 .byte   PATT
  .word Label_01402A64
@  #06 @009   ----------------------------------------
 .byte   PATT
  .word Label_01402A64
@  #06 @010   ----------------------------------------
 .byte   PATT
  .word Label_01402A64
@  #06 @011   ----------------------------------------
 .byte   PATT
  .word Label_01402A64
@  #06 @012   ----------------------------------------
 .byte   PATT
  .word Label_01402A64
@  #06 @013   ----------------------------------------
 .byte   PATT
  .word Label_01402A64
@  #06 @014   ----------------------------------------
 .byte   PATT
  .word Label_01402A64
@  #06 @015   ----------------------------------------
 .byte   PATT
  .word Label_01402A64
@  #06 @016   ----------------------------------------
 .byte   PATT
  .word Label_01402A64
@  #06 @017   ----------------------------------------
 .byte   W96
@  #06 @018   ----------------------------------------
 .byte   W96
@  #06 @019   ----------------------------------------
 .byte   W96
@  #06 @020   ----------------------------------------
 .byte   W96
@  #06 @021   ----------------------------------------
 .byte   W96
@  #06 @022   ----------------------------------------
 .byte   W96
@  #06 @023   ----------------------------------------
 .byte   W96
@  #06 @024   ----------------------------------------
 .byte   W96
@  #06 @025   ----------------------------------------
 .byte   W96
@  #06 @026   ----------------------------------------
 .byte   W96
@  #06 @027   ----------------------------------------
 .byte   W96
@  #06 @028   ----------------------------------------
 .byte   W96
@  #06 @029   ----------------------------------------
 .byte   W96
@  #06 @030   ----------------------------------------
 .byte   W96
@  #06 @031   ----------------------------------------
 .byte   W96
@  #06 @032   ----------------------------------------
 .byte   W96
@  #06 @033   ----------------------------------------
 .byte   W96
@  #06 @034   ----------------------------------------
 .byte   W96
@  #06 @035   ----------------------------------------
 .byte   W96
@  #06 @036   ----------------------------------------
 .byte   W96
@  #06 @037   ----------------------------------------
 .byte   W96
@  #06 @038   ----------------------------------------
 .byte   W96
@  #06 @039   ----------------------------------------
 .byte   W96
@  #06 @040   ----------------------------------------
 .byte   W96
@  #06 @041   ----------------------------------------
 .byte   W96
@  #06 @042   ----------------------------------------
 .byte   W96
@  #06 @043   ----------------------------------------
 .byte   W96
@  #06 @044   ----------------------------------------
 .byte   W96
@  #06 @045   ----------------------------------------
 .byte   W96
@  #06 @046   ----------------------------------------
 .byte   W96
@  #06 @047   ----------------------------------------
 .byte   W96
@  #06 @048   ----------------------------------------
 .byte   W96
@  #06 @049   ----------------------------------------
 .byte   PATT
  .word Label_01402A64
@  #06 @050   ----------------------------------------
 .byte   PATT
  .word Label_01402A64
@  #06 @051   ----------------------------------------
 .byte   PATT
  .word Label_01402A64
@  #06 @052   ----------------------------------------
 .byte   PATT
  .word Label_01402A64
@  #06 @053   ----------------------------------------
 .byte   GOTO
  .word Label_01402A8A
@  #06 @054   ----------------------------------------
 .byte   PATT
  .word Label_01402A64
@  #06 @055   ----------------------------------------
 .byte   PATT
  .word Label_01402A64
@  #06 @056   ----------------------------------------
 .byte   PATT
  .word Label_01402A64
@  #06 @057   ----------------------------------------
 .byte   PATT
  .word Label_01402A64
@  #06 @058   ----------------------------------------
 .byte   PATT
  .word Label_01402A64
@  #06 @059   ----------------------------------------
 .byte   PATT
  .word Label_01402A64
@  #06 @060   ----------------------------------------
 .byte   PATT
  .word Label_01402A64
@  #06 @061   ----------------------------------------
 .byte   PATT
  .word Label_01402A64
@  #06 @062   ----------------------------------------
 .byte   PATT
  .word Label_01402A64
@  #06 @063   ----------------------------------------
 .byte   PATT
  .word Label_01402A64
@  #06 @064   ----------------------------------------
 .byte   PATT
  .word Label_01402A64
@  #06 @065   ----------------------------------------
 .byte   PATT
  .word Label_01402A64
@  #06 @066   ----------------------------------------
 .byte   W96
@  #06 @067   ----------------------------------------
 .byte   W96
@  #06 @068   ----------------------------------------
 .byte   W96
@  #06 @069   ----------------------------------------
 .byte   W96
@  #06 @070   ----------------------------------------
 .byte   W96
@  #06 @071   ----------------------------------------
 .byte   W96
@  #06 @072   ----------------------------------------
 .byte   W96
@  #06 @073   ----------------------------------------
 .byte   W96
@  #06 @074   ----------------------------------------
 .byte   W96
@  #06 @075   ----------------------------------------
 .byte   W96
@  #06 @076   ----------------------------------------
 .byte   W96
@  #06 @077   ----------------------------------------
 .byte   W96
@  #06 @078   ----------------------------------------
 .byte   W96
@  #06 @079   ----------------------------------------
 .byte   W96
@  #06 @080   ----------------------------------------
 .byte   W96
@  #06 @081   ----------------------------------------
 .byte   W96
@  #06 @082   ----------------------------------------
 .byte   W96
@  #06 @083   ----------------------------------------
 .byte   W96
@  #06 @084   ----------------------------------------
 .byte   W96
@  #06 @085   ----------------------------------------
 .byte   W96
@  #06 @086   ----------------------------------------
 .byte   W96
@  #06 @087   ----------------------------------------
 .byte   W96
@  #06 @088   ----------------------------------------
 .byte   W96
@  #06 @089   ----------------------------------------
 .byte   W96
@  #06 @090   ----------------------------------------
 .byte   W96
@  #06 @091   ----------------------------------------
 .byte   W96
@  #06 @092   ----------------------------------------
 .byte   W96
@  #06 @093   ----------------------------------------
 .byte   W96
@  #06 @094   ----------------------------------------
 .byte   W96
@  #06 @095   ----------------------------------------
 .byte   W96
@  #06 @096   ----------------------------------------
 .byte   W96
@  #06 @097   ----------------------------------------
 .byte   W96
@  #06 @098   ----------------------------------------
 .byte   PAN , c_v+0
 .byte   En3 ,v064
 .byte   BEND , c_v+0
 .byte   FINE

@**************** Track 7 (Midi-Chn.6) ****************@

song04_007:
@  #07 @000   ----------------------------------------
 .byte   KEYSH , song04_key+0
 .byte   VOICE , 126
 .byte   PAN , c_v+0
 .byte   VOL , 40*song04_mvl/mxv
 .byte   PAN , c_v+0
 .byte   VOL , 40*song04_mvl/mxv
 .byte   PAN , c_v+0
 .byte   VOL , 40*song04_mvl/mxv
 .byte   PAN , c_v+0
 .byte   VOL , 40*song04_mvl/mxv
 .byte   BEND , c_v+0
 .byte   N84 ,Cn0 ,v100
 .byte   N84 ,Fn0
 .byte   N84 ,An0
 .byte   N84 ,Cn1
 .byte   W96
@  #07 @001   ----------------------------------------
Label_01401D58:
 .byte   N84 ,Cn0 ,v100
 .byte   N84 ,Fn0
 .byte   N84 ,An0
 .byte   N84 ,Cn1
 .byte   W96
 .byte   PEND 
@  #07 @002   ----------------------------------------
 .byte   PATT
  .word Label_01401D58
@  #07 @003   ----------------------------------------
 .byte   PATT
  .word Label_01401D58
@  #07 @004   ----------------------------------------
Label_01401D6D:
@  #07 @005   ----------------------------------------
 .byte   PATT
  .word Label_01401D58
@  #07 @006   ----------------------------------------
 .byte   PATT
  .word Label_01401D58
@  #07 @007   ----------------------------------------
 .byte   PATT
  .word Label_01401D58
@  #07 @008   ----------------------------------------
 .byte   PATT
  .word Label_01401D58
@  #07 @009   ----------------------------------------
 .byte   PATT
  .word Label_01401D58
@  #07 @010   ----------------------------------------
 .byte   PATT
  .word Label_01401D58
@  #07 @011   ----------------------------------------
 .byte   PATT
  .word Label_01401D58
@  #07 @012   ----------------------------------------
 .byte   PATT
  .word Label_01401D58
@  #07 @013   ----------------------------------------
 .byte   PATT
  .word Label_01401D58
@  #07 @014   ----------------------------------------
 .byte   PATT
  .word Label_01401D58
@  #07 @015   ----------------------------------------
 .byte   PATT
  .word Label_01401D58
@  #07 @016   ----------------------------------------
 .byte   PATT
  .word Label_01401D58
@  #07 @017   ----------------------------------------
 .byte   W96
@  #07 @018   ----------------------------------------
 .byte   W96
@  #07 @019   ----------------------------------------
 .byte   W96
@  #07 @020   ----------------------------------------
 .byte   W96
@  #07 @021   ----------------------------------------
 .byte   W96
@  #07 @022   ----------------------------------------
 .byte   W96
@  #07 @023   ----------------------------------------
 .byte   W96
@  #07 @024   ----------------------------------------
 .byte   W96
@  #07 @025   ----------------------------------------
 .byte   W96
@  #07 @026   ----------------------------------------
 .byte   W96
@  #07 @027   ----------------------------------------
 .byte   W96
@  #07 @028   ----------------------------------------
 .byte   W96
@  #07 @029   ----------------------------------------
 .byte   W96
@  #07 @030   ----------------------------------------
 .byte   W96
@  #07 @031   ----------------------------------------
 .byte   W96
@  #07 @032   ----------------------------------------
 .byte   W96
@  #07 @033   ----------------------------------------
 .byte   W96
@  #07 @034   ----------------------------------------
 .byte   W96
@  #07 @035   ----------------------------------------
 .byte   W96
@  #07 @036   ----------------------------------------
 .byte   W96
@  #07 @037   ----------------------------------------
 .byte   W96
@  #07 @038   ----------------------------------------
 .byte   W96
@  #07 @039   ----------------------------------------
 .byte   W96
@  #07 @040   ----------------------------------------
 .byte   W96
@  #07 @041   ----------------------------------------
 .byte   W96
@  #07 @042   ----------------------------------------
 .byte   W96
@  #07 @043   ----------------------------------------
 .byte   W96
@  #07 @044   ----------------------------------------
 .byte   W96
@  #07 @045   ----------------------------------------
 .byte   W96
@  #07 @046   ----------------------------------------
 .byte   W96
@  #07 @047   ----------------------------------------
 .byte   W96
@  #07 @048   ----------------------------------------
 .byte   W96
@  #07 @049   ----------------------------------------
 .byte   PATT
  .word Label_01401D58
@  #07 @050   ----------------------------------------
 .byte   PATT
  .word Label_01401D58
@  #07 @051   ----------------------------------------
 .byte   PATT
  .word Label_01401D58
@  #07 @052   ----------------------------------------
 .byte   PATT
  .word Label_01401D58
@  #07 @053   ----------------------------------------
 .byte   GOTO
  .word Label_01401D6D
@  #07 @054   ----------------------------------------
 .byte   PATT
  .word Label_01401D58
@  #07 @055   ----------------------------------------
 .byte   PATT
  .word Label_01401D58
@  #07 @056   ----------------------------------------
 .byte   PATT
  .word Label_01401D58
@  #07 @057   ----------------------------------------
 .byte   PATT
  .word Label_01401D58
@  #07 @058   ----------------------------------------
 .byte   PATT
  .word Label_01401D58
@  #07 @059   ----------------------------------------
 .byte   PATT
  .word Label_01401D58
@  #07 @060   ----------------------------------------
 .byte   PATT
  .word Label_01401D58
@  #07 @061   ----------------------------------------
 .byte   PATT
  .word Label_01401D58
@  #07 @062   ----------------------------------------
 .byte   PATT
  .word Label_01401D58
@  #07 @063   ----------------------------------------
 .byte   PATT
  .word Label_01401D58
@  #07 @064   ----------------------------------------
 .byte   PATT
  .word Label_01401D58
@  #07 @065   ----------------------------------------
 .byte   PATT
  .word Label_01401D58
@  #07 @066   ----------------------------------------
 .byte   W96
@  #07 @067   ----------------------------------------
 .byte   W96
@  #07 @068   ----------------------------------------
 .byte   W96
@  #07 @069   ----------------------------------------
 .byte   W96
@  #07 @070   ----------------------------------------
 .byte   W96
@  #07 @071   ----------------------------------------
 .byte   W96
@  #07 @072   ----------------------------------------
 .byte   W96
@  #07 @073   ----------------------------------------
 .byte   W96
@  #07 @074   ----------------------------------------
 .byte   W96
@  #07 @075   ----------------------------------------
 .byte   W96
@  #07 @076   ----------------------------------------
 .byte   W96
@  #07 @077   ----------------------------------------
 .byte   W96
@  #07 @078   ----------------------------------------
 .byte   W96
@  #07 @079   ----------------------------------------
 .byte   W96
@  #07 @080   ----------------------------------------
 .byte   W96
@  #07 @081   ----------------------------------------
 .byte   W96
@  #07 @082   ----------------------------------------
 .byte   W96
@  #07 @083   ----------------------------------------
 .byte   W96
@  #07 @084   ----------------------------------------
 .byte   W96
@  #07 @085   ----------------------------------------
 .byte   W96
@  #07 @086   ----------------------------------------
 .byte   W96
@  #07 @087   ----------------------------------------
 .byte   W96
@  #07 @088   ----------------------------------------
 .byte   W96
@  #07 @089   ----------------------------------------
 .byte   W96
@  #07 @090   ----------------------------------------
 .byte   W96
@  #07 @091   ----------------------------------------
 .byte   W96
@  #07 @092   ----------------------------------------
 .byte   W96
@  #07 @093   ----------------------------------------
 .byte   W96
@  #07 @094   ----------------------------------------
 .byte   W96
@  #07 @095   ----------------------------------------
 .byte   W96
@  #07 @096   ----------------------------------------
 .byte   W96
@  #07 @097   ----------------------------------------
 .byte   W96
@  #07 @098   ----------------------------------------
 .byte   VOICE , 126
 .byte   PAN , c_v+0
 .byte   VOL , 40*song04_mvl/mxv
 .byte   PAN , c_v+0
 .byte   VOL , 40*song04_mvl/mxv
 .byte   PAN , c_v+0
 .byte   VOL , 40*song04_mvl/mxv
 .byte   BEND , c_v+0
 .byte   FINE

@**************** Track 8 (Midi-Chn.7) ****************@

song04_008:
@  #08 @000   ----------------------------------------
 .byte   KEYSH , song04_key+0
 .byte   VOICE , 74
 .byte   PAN , c_v+0
 .byte   VOL , 51*song04_mvl/mxv
 .byte   PAN , c_v+0
 .byte   VOL , 51*song04_mvl/mxv
 .byte   PAN , c_v+0
 .byte   VOL , 51*song04_mvl/mxv
 .byte   PAN , c_v+0
 .byte   VOL , 51*song04_mvl/mxv
 .byte   BEND , c_v+0
 .byte   W96
@  #08 @001   ----------------------------------------
 .byte   W96
@  #08 @002   ----------------------------------------
 .byte   W96
@  #08 @003   ----------------------------------------
 .byte   W96
@  #08 @004   ----------------------------------------
Label_01401E7A:
 .byte   W96
@  #08 @005   ----------------------------------------
 .byte   W96
@  #08 @006   ----------------------------------------
 .byte   W96
@  #08 @007   ----------------------------------------
 .byte   W96
@  #08 @008   ----------------------------------------
 .byte   W96
@  #08 @009   ----------------------------------------
 .byte   W96
@  #08 @010   ----------------------------------------
 .byte   W96
@  #08 @011   ----------------------------------------
 .byte   W96
@  #08 @012   ----------------------------------------
 .byte   W96
@  #08 @013   ----------------------------------------
 .byte   W96
@  #08 @014   ----------------------------------------
 .byte   W96
@  #08 @015   ----------------------------------------
 .byte   W96
@  #08 @016   ----------------------------------------
Label_01401E86:
 .byte   BEND , c_v+0
 .byte   N72 ,Dn3 ,v064
 .byte   W36
 .byte   BEND , c_v-1
 .byte   W01
 .byte   BEND , c_v-1
 .byte   W01
 .byte   BEND , c_v-1
 .byte   W01
 .byte   BEND , c_v-2
 .byte   W01
 .byte   BEND , c_v-2
 .byte   W01
 .byte   BEND , c_v-2
 .byte   W01
 .byte   BEND , c_v-3
 .byte   W01
 .byte   BEND , c_v-3
 .byte   W01
 .byte   BEND , c_v-3
 .byte   W01
 .byte   BEND , c_v-3
 .byte   W01
 .byte   BEND , c_v-4
 .byte   W01
 .byte   BEND , c_v-4
 .byte   W01
 .byte   BEND , c_v-4
 .byte   W01
 .byte   BEND , c_v-5
 .byte   W01
 .byte   BEND , c_v-5
 .byte   W01
 .byte   BEND , c_v-5
 .byte   W01
 .byte   BEND , c_v-6
 .byte   W01
 .byte   BEND , c_v-6
 .byte   W01
 .byte   BEND , c_v-6
 .byte   W01
 .byte   BEND , c_v-6
 .byte   W01
 .byte   BEND , c_v-7
 .byte   W01
 .byte   BEND , c_v-7
 .byte   W01
 .byte   BEND , c_v-7
 .byte   W01
 .byte   BEND , c_v-8
 .byte   W01
 .byte   BEND , c_v-8
 .byte   W01
 .byte   BEND , c_v-8
 .byte   W01
 .byte   BEND , c_v-8
 .byte   W01
 .byte   BEND , c_v-9
 .byte   W01
 .byte   BEND , c_v-9
 .byte   W01
 .byte   BEND , c_v-9
 .byte   W01
 .byte   BEND , c_v-10
 .byte   W01
 .byte   BEND , c_v-10
 .byte   W01
 .byte   BEND , c_v-10
 .byte   W01
 .byte   BEND , c_v-11
 .byte   W01
 .byte   BEND , c_v-11
 .byte   W01
 .byte   BEND , c_v-11
 .byte   W24
 .byte   W01
 .byte   PEND 
@  #08 @017   ----------------------------------------
Label_01401ED7:
 .byte   W23
 .byte   BEND , c_v+0
 .byte   W72
 .byte   W01
 .byte   PEND 
@  #08 @018   ----------------------------------------
Label_01401EDD:
 .byte   BEND , c_v+0
 .byte   N72 ,Dn3 ,v100
 .byte   W36
 .byte   BEND , c_v-1
 .byte   W01
 .byte   BEND , c_v-1
 .byte   W01
 .byte   BEND , c_v-1
 .byte   W01
 .byte   BEND , c_v-2
 .byte   W01
 .byte   BEND , c_v-2
 .byte   W01
 .byte   BEND , c_v-2
 .byte   W01
 .byte   BEND , c_v-3
 .byte   W01
 .byte   BEND , c_v-3
 .byte   W01
 .byte   BEND , c_v-3
 .byte   W01
 .byte   BEND , c_v-3
 .byte   W01
 .byte   BEND , c_v-4
 .byte   W01
 .byte   BEND , c_v-4
 .byte   W01
 .byte   BEND , c_v-4
 .byte   W01
 .byte   BEND , c_v-5
 .byte   W01
 .byte   BEND , c_v-5
 .byte   W01
 .byte   BEND , c_v-5
 .byte   W01
 .byte   BEND , c_v-6
 .byte   W01
 .byte   BEND , c_v-6
 .byte   W01
 .byte   BEND , c_v-6
 .byte   W01
 .byte   BEND , c_v-6
 .byte   W01
 .byte   BEND , c_v-7
 .byte   W01
 .byte   BEND , c_v-7
 .byte   W01
 .byte   BEND , c_v-7
 .byte   W01
 .byte   BEND , c_v-8
 .byte   W01
 .byte   BEND , c_v-8
 .byte   W01
 .byte   BEND , c_v-8
 .byte   W01
 .byte   BEND , c_v-8
 .byte   W01
 .byte   BEND , c_v-9
 .byte   W01
 .byte   BEND , c_v-9
 .byte   W01
 .byte   BEND , c_v-9
 .byte   W01
 .byte   BEND , c_v-10
 .byte   W01
 .byte   BEND , c_v-10
 .byte   W01
 .byte   BEND , c_v-10
 .byte   W01
 .byte   BEND , c_v-11
 .byte   W01
 .byte   BEND , c_v-11
 .byte   W01
 .byte   BEND , c_v-11
 .byte   W24
 .byte   W01
 .byte   PEND 
@  #08 @019   ----------------------------------------
 .byte   PATT
  .word Label_01401ED7
@  #08 @020   ----------------------------------------
 .byte   PATT
  .word Label_01401EDD
@  #08 @021   ----------------------------------------
 .byte   PATT
  .word Label_01401ED7
@  #08 @022   ----------------------------------------
 .byte   W96
@  #08 @023   ----------------------------------------
 .byte   W96
@  #08 @024   ----------------------------------------
 .byte   PATT
  .word Label_01401E86
@  #08 @025   ----------------------------------------
 .byte   PATT
  .word Label_01401ED7
@  #08 @026   ----------------------------------------
 .byte   PATT
  .word Label_01401EDD
@  #08 @027   ----------------------------------------
 .byte   PATT
  .word Label_01401ED7
@  #08 @028   ----------------------------------------
 .byte   PATT
  .word Label_01401EDD
@  #08 @029   ----------------------------------------
 .byte   PATT
  .word Label_01401ED7
@  #08 @030   ----------------------------------------
 .byte   W96
@  #08 @031   ----------------------------------------
 .byte   W96
@  #08 @032   ----------------------------------------
 .byte   W96
@  #08 @033   ----------------------------------------
 .byte   W96
@  #08 @034   ----------------------------------------
 .byte   W96
@  #08 @035   ----------------------------------------
Label_01401F62:
 .byte   W48
 .byte   VOL , 51*song04_mvl/mxv
 .byte   W44
 .byte   W03
 .byte   VOL , 34*song04_mvl/mxv
 .byte   W01
 .byte   PEND 
@  #08 @036   ----------------------------------------
Label_01401F6A:
 .byte   VOL , 0*song04_mvl/mxv
 .byte   TIE ,Dn3 ,v100
 .byte   W01
 .byte   VOL , 0*song04_mvl/mxv
 .byte   W01
 .byte   VOL , 1*song04_mvl/mxv
 .byte   W01
 .byte   VOL , 2*song04_mvl/mxv
 .byte   W01
 .byte   VOL , 2*song04_mvl/mxv
 .byte   W01
 .byte   VOL , 3*song04_mvl/mxv
 .byte   W01
 .byte   VOL , 3*song04_mvl/mxv
 .byte   W01
 .byte   VOL , 4*song04_mvl/mxv
 .byte   W01
 .byte   VOL , 4*song04_mvl/mxv
 .byte   W01
 .byte   VOL , 5*song04_mvl/mxv
 .byte   W01
 .byte   VOL , 5*song04_mvl/mxv
 .byte   W01
 .byte   VOL , 6*song04_mvl/mxv
 .byte   W01
 .byte   VOL , 6*song04_mvl/mxv
 .byte   W01
 .byte   VOL , 7*song04_mvl/mxv
 .byte   W01
 .byte   VOL , 8*song04_mvl/mxv
 .byte   W01
 .byte   VOL , 8*song04_mvl/mxv
 .byte   W01
 .byte   VOL , 8*song04_mvl/mxv
 .byte   W01
 .byte   VOL , 9*song04_mvl/mxv
 .byte   W01
 .byte   VOL , 10*song04_mvl/mxv
 .byte   W01
 .byte   VOL , 10*song04_mvl/mxv
 .byte   W01
 .byte   VOL , 11*song04_mvl/mxv
 .byte   W01
 .byte   VOL , 11*song04_mvl/mxv
 .byte   W01
 .byte   VOL , 12*song04_mvl/mxv
 .byte   W01
 .byte   VOL , 12*song04_mvl/mxv
 .byte   W01
 .byte   VOL , 13*song04_mvl/mxv
 .byte   W01
 .byte   VOL , 13*song04_mvl/mxv
 .byte   W01
 .byte   VOL , 14*song04_mvl/mxv
 .byte   W01
 .byte   VOL , 14*song04_mvl/mxv
 .byte   W01
 .byte   VOL , 15*song04_mvl/mxv
 .byte   W01
 .byte   VOL , 16*song04_mvl/mxv
 .byte   W01
 .byte   VOL , 16*song04_mvl/mxv
 .byte   W01
 .byte   VOL , 16*song04_mvl/mxv
 .byte   W01
 .byte   VOL , 17*song04_mvl/mxv
 .byte   W01
 .byte   VOL , 18*song04_mvl/mxv
 .byte   W01
 .byte   VOL , 18*song04_mvl/mxv
 .byte   W01
 .byte   VOL , 19*song04_mvl/mxv
 .byte   W01
 .byte   VOL , 19*song04_mvl/mxv
 .byte   W01
 .byte   VOL , 20*song04_mvl/mxv
 .byte   W01
 .byte   VOL , 20*song04_mvl/mxv
 .byte   W01
 .byte   VOL , 21*song04_mvl/mxv
 .byte   W01
 .byte   VOL , 21*song04_mvl/mxv
 .byte   W01
 .byte   VOL , 22*song04_mvl/mxv
 .byte   W01
 .byte   VOL , 22*song04_mvl/mxv
 .byte   W01
 .byte   VOL , 23*song04_mvl/mxv
 .byte   W01
 .byte   VOL , 24*song04_mvl/mxv
 .byte   W01
 .byte   VOL , 24*song04_mvl/mxv
 .byte   W01
 .byte   VOL , 24*song04_mvl/mxv
 .byte   W01
 .byte   VOL , 25*song04_mvl/mxv
 .byte   W01
 .byte   VOL , 26*song04_mvl/mxv
 .byte   W01
 .byte   VOL , 26*song04_mvl/mxv
 .byte   W01
 .byte   VOL , 27*song04_mvl/mxv
 .byte   W01
 .byte   VOL , 27*song04_mvl/mxv
 .byte   W01
 .byte   VOL , 28*song04_mvl/mxv
 .byte   W01
 .byte   VOL , 28*song04_mvl/mxv
 .byte   W01
 .byte   VOL , 29*song04_mvl/mxv
 .byte   W01
 .byte   VOL , 29*song04_mvl/mxv
 .byte   W01
 .byte   VOL , 30*song04_mvl/mxv
 .byte   W01
 .byte   VOL , 30*song04_mvl/mxv
 .byte   W01
 .byte   VOL , 31*song04_mvl/mxv
 .byte   W01
 .byte   VOL , 32*song04_mvl/mxv
 .byte   W01
 .byte   VOL , 32*song04_mvl/mxv
 .byte   W01
 .byte   VOL , 32*song04_mvl/mxv
 .byte   W01
 .byte   VOL , 33*song04_mvl/mxv
 .byte   W01
 .byte   VOL , 34*song04_mvl/mxv
 .byte   W01
 .byte   VOL , 34*song04_mvl/mxv
 .byte   W01
 .byte   VOL , 35*song04_mvl/mxv
 .byte   W01
 .byte   VOL , 35*song04_mvl/mxv
 .byte   W01
 .byte   VOL , 36*song04_mvl/mxv
 .byte   W01
 .byte   VOL , 36*song04_mvl/mxv
 .byte   W01
 .byte   VOL , 37*song04_mvl/mxv
 .byte   W01
 .byte   VOL , 37*song04_mvl/mxv
 .byte   W01
 .byte   VOL , 38*song04_mvl/mxv
 .byte   W01
 .byte   VOL , 38*song04_mvl/mxv
 .byte   W01
 .byte   VOL , 39*song04_mvl/mxv
 .byte   W01
 .byte   VOL , 40*song04_mvl/mxv
 .byte   W01
 .byte   VOL , 40*song04_mvl/mxv
 .byte   W01
 .byte   VOL , 40*song04_mvl/mxv
 .byte   W01
 .byte   VOL , 41*song04_mvl/mxv
 .byte   W01
 .byte   VOL , 42*song04_mvl/mxv
 .byte   W01
 .byte   VOL , 42*song04_mvl/mxv
 .byte   W01
 .byte   VOL , 43*song04_mvl/mxv
 .byte   W01
 .byte   VOL , 43*song04_mvl/mxv
 .byte   W01
 .byte   VOL , 44*song04_mvl/mxv
 .byte   W01
 .byte   VOL , 44*song04_mvl/mxv
 .byte   W01
 .byte   VOL , 45*song04_mvl/mxv
 .byte   W01
 .byte   VOL , 45*song04_mvl/mxv
 .byte   W01
 .byte   VOL , 46*song04_mvl/mxv
 .byte   W01
 .byte   VOL , 46*song04_mvl/mxv
 .byte   W01
 .byte   VOL , 47*song04_mvl/mxv
 .byte   W01
 .byte   VOL , 48*song04_mvl/mxv
 .byte   W01
 .byte   VOL , 48*song04_mvl/mxv
 .byte   W01
 .byte   VOL , 48*song04_mvl/mxv
 .byte   W01
 .byte   VOL , 49*song04_mvl/mxv
 .byte   W01
 .byte   VOL , 50*song04_mvl/mxv
 .byte   W01
 .byte   VOL , 50*song04_mvl/mxv
 .byte   W01
 .byte   VOL , 51*song04_mvl/mxv
 .byte   W01
 .byte   PEND 
@  #08 @037   ----------------------------------------
Label_01402030:
 .byte   W92
 .byte   W03
 .byte   VOL , 21*song04_mvl/mxv
 .byte   W01
 .byte   PEND 
@  #08 @038   ----------------------------------------
 .byte   EOT
 .byte   Dn3
@  #08 @039   ----------------------------------------
 .byte   PATT
  .word Label_01401F6A
@  #08 @040   ----------------------------------------
Label_0140203D:
 .byte   W92
 .byte   W03
 .byte   VOL , 14*song04_mvl/mxv
 .byte   W01
 .byte   PEND 
@  #08 @041   ----------------------------------------
 .byte   EOT
 .byte   Dn3
@  #08 @042   ----------------------------------------
 .byte   PATT
  .word Label_01401F6A
@  #08 @043   ----------------------------------------
 .byte   W96
@  #08 @044   ----------------------------------------
 .byte   EOT
 .byte   Dn3
Label_0140204D:
 .byte   VOL , 0*song04_mvl/mxv
 .byte   TIE ,Gn2 ,v100
 .byte   TIE ,Dn3
 .byte   W01
 .byte   VOL , 0*song04_mvl/mxv
 .byte   W01
 .byte   VOL , 1*song04_mvl/mxv
 .byte   W01
 .byte   VOL , 2*song04_mvl/mxv
 .byte   W01
 .byte   VOL , 2*song04_mvl/mxv
 .byte   W01
 .byte   VOL , 3*song04_mvl/mxv
 .byte   W01
 .byte   VOL , 3*song04_mvl/mxv
 .byte   W01
 .byte   VOL , 4*song04_mvl/mxv
 .byte   W01
 .byte   VOL , 4*song04_mvl/mxv
 .byte   W01
 .byte   VOL , 5*song04_mvl/mxv
 .byte   W01
 .byte   VOL , 5*song04_mvl/mxv
 .byte   W01
 .byte   VOL , 6*song04_mvl/mxv
 .byte   W01
 .byte   VOL , 6*song04_mvl/mxv
 .byte   W01
 .byte   VOL , 7*song04_mvl/mxv
 .byte   W01
 .byte   VOL , 8*song04_mvl/mxv
 .byte   W01
 .byte   VOL , 8*song04_mvl/mxv
 .byte   W01
 .byte   VOL , 8*song04_mvl/mxv
 .byte   W01
 .byte   VOL , 9*song04_mvl/mxv
 .byte   W01
 .byte   VOL , 10*song04_mvl/mxv
 .byte   W01
 .byte   VOL , 10*song04_mvl/mxv
 .byte   W01
 .byte   VOL , 11*song04_mvl/mxv
 .byte   W01
 .byte   VOL , 11*song04_mvl/mxv
 .byte   W01
 .byte   VOL , 12*song04_mvl/mxv
 .byte   W01
 .byte   VOL , 12*song04_mvl/mxv
 .byte   W01
 .byte   VOL , 13*song04_mvl/mxv
 .byte   W01
 .byte   VOL , 13*song04_mvl/mxv
 .byte   W01
 .byte   VOL , 14*song04_mvl/mxv
 .byte   W01
 .byte   VOL , 14*song04_mvl/mxv
 .byte   W01
 .byte   VOL , 15*song04_mvl/mxv
 .byte   W01
 .byte   VOL , 16*song04_mvl/mxv
 .byte   W01
 .byte   VOL , 16*song04_mvl/mxv
 .byte   W01
 .byte   VOL , 16*song04_mvl/mxv
 .byte   W01
 .byte   VOL , 17*song04_mvl/mxv
 .byte   W01
 .byte   VOL , 18*song04_mvl/mxv
 .byte   W01
 .byte   VOL , 18*song04_mvl/mxv
 .byte   W01
 .byte   VOL , 19*song04_mvl/mxv
 .byte   W01
 .byte   VOL , 19*song04_mvl/mxv
 .byte   W01
 .byte   VOL , 20*song04_mvl/mxv
 .byte   W01
 .byte   VOL , 20*song04_mvl/mxv
 .byte   W01
 .byte   VOL , 21*song04_mvl/mxv
 .byte   W01
 .byte   VOL , 21*song04_mvl/mxv
 .byte   W01
 .byte   VOL , 22*song04_mvl/mxv
 .byte   W01
 .byte   VOL , 22*song04_mvl/mxv
 .byte   W01
 .byte   VOL , 23*song04_mvl/mxv
 .byte   W01
 .byte   VOL , 24*song04_mvl/mxv
 .byte   W01
 .byte   VOL , 24*song04_mvl/mxv
 .byte   W01
 .byte   VOL , 24*song04_mvl/mxv
 .byte   W01
 .byte   VOL , 25*song04_mvl/mxv
 .byte   W01
 .byte   VOL , 26*song04_mvl/mxv
 .byte   W01
 .byte   VOL , 26*song04_mvl/mxv
 .byte   W01
 .byte   VOL , 27*song04_mvl/mxv
 .byte   W01
 .byte   VOL , 27*song04_mvl/mxv
 .byte   W01
 .byte   VOL , 28*song04_mvl/mxv
 .byte   W01
 .byte   VOL , 28*song04_mvl/mxv
 .byte   W01
 .byte   VOL , 29*song04_mvl/mxv
 .byte   W01
 .byte   VOL , 29*song04_mvl/mxv
 .byte   W01
 .byte   VOL , 30*song04_mvl/mxv
 .byte   W01
 .byte   VOL , 30*song04_mvl/mxv
 .byte   W01
 .byte   VOL , 31*song04_mvl/mxv
 .byte   W01
 .byte   VOL , 32*song04_mvl/mxv
 .byte   W01
 .byte   VOL , 32*song04_mvl/mxv
 .byte   W01
 .byte   VOL , 32*song04_mvl/mxv
 .byte   W01
 .byte   VOL , 33*song04_mvl/mxv
 .byte   W01
 .byte   VOL , 34*song04_mvl/mxv
 .byte   W01
 .byte   VOL , 34*song04_mvl/mxv
 .byte   W01
 .byte   VOL , 35*song04_mvl/mxv
 .byte   W01
 .byte   VOL , 35*song04_mvl/mxv
 .byte   W01
 .byte   VOL , 36*song04_mvl/mxv
 .byte   W01
 .byte   VOL , 36*song04_mvl/mxv
 .byte   W01
 .byte   VOL , 37*song04_mvl/mxv
 .byte   W01
 .byte   VOL , 37*song04_mvl/mxv
 .byte   W01
 .byte   VOL , 38*song04_mvl/mxv
 .byte   W01
 .byte   VOL , 38*song04_mvl/mxv
 .byte   W01
 .byte   VOL , 39*song04_mvl/mxv
 .byte   W01
 .byte   VOL , 40*song04_mvl/mxv
 .byte   W01
 .byte   VOL , 40*song04_mvl/mxv
 .byte   W01
 .byte   VOL , 40*song04_mvl/mxv
 .byte   W01
 .byte   VOL , 41*song04_mvl/mxv
 .byte   W01
 .byte   VOL , 42*song04_mvl/mxv
 .byte   W01
 .byte   VOL , 42*song04_mvl/mxv
 .byte   W01
 .byte   VOL , 43*song04_mvl/mxv
 .byte   W01
 .byte   VOL , 43*song04_mvl/mxv
 .byte   W01
 .byte   VOL , 44*song04_mvl/mxv
 .byte   W01
 .byte   VOL , 44*song04_mvl/mxv
 .byte   W01
 .byte   VOL , 45*song04_mvl/mxv
 .byte   W01
 .byte   VOL , 45*song04_mvl/mxv
 .byte   W01
 .byte   VOL , 46*song04_mvl/mxv
 .byte   W01
 .byte   VOL , 46*song04_mvl/mxv
 .byte   W01
 .byte   VOL , 47*song04_mvl/mxv
 .byte   W01
 .byte   VOL , 48*song04_mvl/mxv
 .byte   W01
 .byte   VOL , 48*song04_mvl/mxv
 .byte   W01
 .byte   VOL , 48*song04_mvl/mxv
 .byte   W01
 .byte   VOL , 49*song04_mvl/mxv
 .byte   W01
 .byte   VOL , 50*song04_mvl/mxv
 .byte   W01
 .byte   VOL , 50*song04_mvl/mxv
 .byte   W01
 .byte   VOL , 51*song04_mvl/mxv
 .byte   W01
 .byte   PEND 
@  #08 @045   ----------------------------------------
Label_01402115:
 .byte   W92
 .byte   W03
 .byte   VOL , 36*song04_mvl/mxv
 .byte   W01
 .byte   PEND 
@  #08 @046   ----------------------------------------
 .byte   EOT
 .byte   Gn2 ,v062
@  #08 @047   ----------------------------------------
 .byte   PATT
  .word Label_0140204D
@  #08 @048   ----------------------------------------
Label_01402123:
 .byte   W92
 .byte   W03
 .byte   VOL , 29*song04_mvl/mxv
 .byte   W01
 .byte   PEND 
@  #08 @049   ----------------------------------------
 .byte   EOT
 .byte   Gn2 ,v062
@  #08 @050   ----------------------------------------
 .byte   PATT
  .word Label_0140204D
@  #08 @051   ----------------------------------------
 .byte   W96
@  #08 @052   ----------------------------------------
 .byte   EOT
 .byte   Gn2 ,v062
 .byte   VOL , 51*song04_mvl/mxv
 .byte   BEND , c_v+0
 .byte   W96
@  #08 @053   ----------------------------------------
 .byte   W96
@  #08 @054   ----------------------------------------
 .byte   W96
@  #08 @055   ----------------------------------------
 .byte   W96
@  #08 @056   ----------------------------------------
 .byte   GOTO
  .word Label_01401E7A
@  #08 @057   ----------------------------------------
 .byte   W96
@  #08 @058   ----------------------------------------
 .byte   W96
@  #08 @059   ----------------------------------------
 .byte   W96
@  #08 @060   ----------------------------------------
 .byte   W96
@  #08 @061   ----------------------------------------
 .byte   W96
@  #08 @062   ----------------------------------------
 .byte   W96
@  #08 @063   ----------------------------------------
 .byte   W96
@  #08 @064   ----------------------------------------
 .byte   W96
@  #08 @065   ----------------------------------------
 .byte   W96
@  #08 @066   ----------------------------------------
 .byte   W96
@  #08 @067   ----------------------------------------
 .byte   W96
@  #08 @068   ----------------------------------------
 .byte   W96
@  #08 @069   ----------------------------------------
 .byte   PATT
  .word Label_01401E86
@  #08 @070   ----------------------------------------
 .byte   PATT
  .word Label_01401ED7
@  #08 @071   ----------------------------------------
 .byte   PATT
  .word Label_01401EDD
@  #08 @072   ----------------------------------------
 .byte   PATT
  .word Label_01401ED7
@  #08 @073   ----------------------------------------
 .byte   PATT
  .word Label_01401EDD
@  #08 @074   ----------------------------------------
 .byte   PATT
  .word Label_01401ED7
@  #08 @075   ----------------------------------------
 .byte   W96
@  #08 @076   ----------------------------------------
 .byte   W96
@  #08 @077   ----------------------------------------
 .byte   PATT
  .word Label_01401E86
@  #08 @078   ----------------------------------------
 .byte   PATT
  .word Label_01401ED7
@  #08 @079   ----------------------------------------
 .byte   PATT
  .word Label_01401EDD
@  #08 @080   ----------------------------------------
 .byte   PATT
  .word Label_01401ED7
@  #08 @081   ----------------------------------------
 .byte   PATT
  .word Label_01401EDD
@  #08 @082   ----------------------------------------
 .byte   PATT
  .word Label_01401ED7
@  #08 @083   ----------------------------------------
 .byte   W96
@  #08 @084   ----------------------------------------
 .byte   W96
@  #08 @085   ----------------------------------------
 .byte   W96
@  #08 @086   ----------------------------------------
 .byte   W96
@  #08 @087   ----------------------------------------
 .byte   W96
@  #08 @088   ----------------------------------------
 .byte   PATT
  .word Label_01401F62
@  #08 @089   ----------------------------------------
 .byte   PATT
  .word Label_01401F6A
@  #08 @090   ----------------------------------------
 .byte   PATT
  .word Label_01402030
@  #08 @091   ----------------------------------------
 .byte   EOT
 .byte   Dn3
@  #08 @092   ----------------------------------------
 .byte   PATT
  .word Label_01401F6A
@  #08 @093   ----------------------------------------
 .byte   PATT
  .word Label_0140203D
@  #08 @094   ----------------------------------------
 .byte   EOT
 .byte   Dn3
@  #08 @095   ----------------------------------------
 .byte   PATT
  .word Label_01401F6A
@  #08 @096   ----------------------------------------
 .byte   W96
@  #08 @097   ----------------------------------------
 .byte   EOT
 .byte   Dn3
@  #08 @098   ----------------------------------------
 .byte   PATT
  .word Label_0140204D
@  #08 @099   ----------------------------------------
 .byte   PATT
  .word Label_01402115
@  #08 @100   ----------------------------------------
 .byte   EOT
 .byte   Gn2 ,v062
@  #08 @101   ----------------------------------------
 .byte   PATT
  .word Label_0140204D
@  #08 @102   ----------------------------------------
 .byte   PATT
  .word Label_01402123
@  #08 @103   ----------------------------------------
 .byte   EOT
 .byte   Gn2 ,v062
@  #08 @104   ----------------------------------------
 .byte   PATT
  .word Label_0140204D
@  #08 @105   ----------------------------------------
 .byte   W96
@  #08 @106   ----------------------------------------
 .byte   EOT
 .byte   Gn2 ,v062
 .byte   VOICE , 74
 .byte   PAN , c_v+0
 .byte   VOL , 51*song04_mvl/mxv
 .byte   PAN , c_v+0
 .byte   VOL , 51*song04_mvl/mxv
 .byte   PAN , c_v+0
 .byte   VOL , 51*song04_mvl/mxv
 .byte   BEND , c_v+0
 .byte   FINE

@**************** Track 9 (Midi-Chn.8) ****************@

song04_009:
@  #09 @000   ----------------------------------------
 .byte   KEYSH , song04_key+0
 .byte   VOICE , 38
 .byte   PAN , c_v+0
 .byte   VOL , 51*song04_mvl/mxv
 .byte   PAN , c_v+0
 .byte   VOL , 51*song04_mvl/mxv
 .byte   PAN , c_v+0
 .byte   VOL , 51*song04_mvl/mxv
 .byte   PAN , c_v+0
 .byte   VOL , 51*song04_mvl/mxv
 .byte   BEND , c_v+0
 .byte   W96
@  #09 @001   ----------------------------------------
 .byte   W96
@  #09 @002   ----------------------------------------
 .byte   W96
@  #09 @003   ----------------------------------------
 .byte   W96
@  #09 @004   ----------------------------------------
Label_01402216:
 .byte   W96
@  #09 @005   ----------------------------------------
 .byte   W96
@  #09 @006   ----------------------------------------
 .byte   W96
@  #09 @007   ----------------------------------------
 .byte   W96
@  #09 @008   ----------------------------------------
 .byte   W96
@  #09 @009   ----------------------------------------
 .byte   W96
@  #09 @010   ----------------------------------------
 .byte   W96
@  #09 @011   ----------------------------------------
 .byte   W96
@  #09 @012   ----------------------------------------
 .byte   W96
@  #09 @013   ----------------------------------------
 .byte   W96
@  #09 @014   ----------------------------------------
 .byte   W96
@  #09 @015   ----------------------------------------
 .byte   W96
@  #09 @016   ----------------------------------------
Label_01402222:
 .byte   N08 ,Fn0 ,v100
 .byte   W08
 .byte   N04
 .byte   W04
 .byte   N08
 .byte   W12
 .byte   N09
 .byte   W12
 .byte   N09
 .byte   W12
 .byte   N09
 .byte   W12
 .byte   N09
 .byte   W12
 .byte   N09
 .byte   W20
 .byte   N04
 .byte   W04
 .byte   PEND 
@  #09 @017   ----------------------------------------
Label_01402237:
 .byte   N08 ,Fn0 ,v100
 .byte   W08
 .byte   N04
 .byte   W04
 .byte   N08
 .byte   W12
 .byte   N09
 .byte   W12
 .byte   N09
 .byte   W12
 .byte   N08 ,Gs0
 .byte   W08
 .byte   N12 ,Gn0
 .byte   W12
 .byte   N04 ,Fn0
 .byte   W04
 .byte   N06 ,Gn0
 .byte   W06
 .byte   N09 ,Fn0
 .byte   W18
 .byte   PEND 
@  #09 @018   ----------------------------------------
Label_01402253:
 .byte   N08 ,Cn1 ,v100
 .byte   W08
 .byte   N04
 .byte   W04
 .byte   N08
 .byte   W12
 .byte   N09
 .byte   W12
 .byte   N12 ,Cn2
 .byte   W18
 .byte   N04 ,Cn1
 .byte   W04
 .byte   N14 ,As1
 .byte   W14
 .byte   N08 ,Gs1
 .byte   W08
 .byte   N11 ,Gn1
 .byte   W16
 .byte   PEND 
@  #09 @019   ----------------------------------------
Label_0140226D:
 .byte   N08 ,Cn1 ,v100
 .byte   W08
 .byte   N04
 .byte   W04
 .byte   N08
 .byte   W12
 .byte   N09
 .byte   W12
 .byte   N09
 .byte   W12
 .byte   N09
 .byte   W12
 .byte   N09
 .byte   W12
 .byte   N08
 .byte   W08
 .byte   N08
 .byte   W16
 .byte   PEND 
@  #09 @020   ----------------------------------------
Label_01402282:
 .byte   N08 ,Fn0 ,v100
 .byte   W08
 .byte   N04
 .byte   W04
 .byte   N08
 .byte   W12
 .byte   N06
 .byte   W08
 .byte   N04
 .byte   W04
 .byte   N08
 .byte   W12
 .byte   N06
 .byte   W12
 .byte   N06
 .byte   W08
 .byte   N04 ,Cn0
 .byte   W12
 .byte   N06 ,Fn0
 .byte   W16
 .byte   PEND 
@  #09 @021   ----------------------------------------
Label_0140229B:
 .byte   N08 ,Fn0 ,v100
 .byte   W08
 .byte   N04
 .byte   W04
 .byte   N08
 .byte   W12
 .byte   N08
 .byte   W12
 .byte   N06 ,Gn0
 .byte   W08
 .byte   N08 ,Fn0
 .byte   W12
 .byte   N04 ,Ds0
 .byte   W04
 .byte   N08 ,Fn0
 .byte   W08
 .byte   N12 ,Cn0
 .byte   W28
 .byte   PEND 
@  #09 @022   ----------------------------------------
Label_014022B5:
 .byte   N08 ,Cn0 ,v100
 .byte   W08
 .byte   N04
 .byte   W04
 .byte   N08
 .byte   W12
 .byte   N06 ,As0
 .byte   W06
 .byte   Cn0
 .byte   W18
 .byte   N08
 .byte   W08
 .byte   N04
 .byte   W04
 .byte   N08
 .byte   W12
 .byte   N06 ,As0
 .byte   W06
 .byte   Cn0
 .byte   W06
 .byte   N10 ,Gs0
 .byte   W12
 .byte   PEND 
@  #09 @023   ----------------------------------------
Label_014022D1:
 .byte   N08 ,Cn0 ,v100
 .byte   W08
 .byte   N04
 .byte   W04
 .byte   N08
 .byte   W12
 .byte   N06 ,As0
 .byte   W06
 .byte   Cn0
 .byte   W06
 .byte   N10 ,Gn0
 .byte   W12
 .byte   N06 ,Cn0
 .byte   W12
 .byte   Fn0
 .byte   W12
 .byte   Gn0
 .byte   W08
 .byte   Cn0
 .byte   W16
 .byte   PEND 
@  #09 @024   ----------------------------------------
Label_014022EB:
 .byte   N08 ,Fn0 ,v100
 .byte   W08
 .byte   N04
 .byte   W04
 .byte   N08
 .byte   W12
 .byte   N08
 .byte   W12
 .byte   N08
 .byte   W12
 .byte   N08
 .byte   W12
 .byte   N06
 .byte   W06
 .byte   N10
 .byte   W14
 .byte   N04
 .byte   W04
 .byte   N10
 .byte   W12
 .byte   PEND 
@  #09 @025   ----------------------------------------
Label_01402302:
 .byte   W08
 .byte   N04 ,Fn0 ,v100
 .byte   W04
 .byte   N10
 .byte   W12
 .byte   N10
 .byte   W12
 .byte   N10
 .byte   W12
 .byte   N08
 .byte   W08
 .byte   N04 ,Cn1
 .byte   W04
 .byte   Fn0
 .byte   W06
 .byte   N04
 .byte   W06
 .byte   N08
 .byte   W08
 .byte   N04 ,Gs0
 .byte   W04
 .byte   Gn0
 .byte   W06
 .byte   N04
 .byte   W06
 .byte   PEND 
@  #09 @026   ----------------------------------------
Label_01402320:
 .byte   N08 ,Cn0 ,v100
 .byte   W08
 .byte   N04 ,Cn1
 .byte   W04
 .byte   N08 ,Cn0
 .byte   W12
 .byte   N08
 .byte   W12
 .byte   N08
 .byte   W12
 .byte   N04 ,As0
 .byte   W06
 .byte   Cn0
 .byte   W06
 .byte   Gn0
 .byte   W12
 .byte   N08 ,Cn0
 .byte   W08
 .byte   N04
 .byte   W12
 .byte   Ds0
 .byte   W04
 .byte   PEND 
@  #09 @027   ----------------------------------------
Label_0140233D:
 .byte   W08
 .byte   N04 ,Cn0 ,v100
 .byte   W04
 .byte   N08
 .byte   W12
 .byte   As0
 .byte   W08
 .byte   N04 ,Fn0
 .byte   W04
 .byte   N08 ,Gn0
 .byte   W08
 .byte   N04 ,Cn0
 .byte   W04
 .byte   N08
 .byte   W08
 .byte   N04
 .byte   W04
 .byte   N08
 .byte   W12
 .byte   As0
 .byte   W08
 .byte   N04 ,Fn0
 .byte   W04
 .byte   N08 ,Gn0
 .byte   W12
 .byte   PEND 
@  #09 @028   ----------------------------------------
Label_0140235E:
 .byte   N08 ,Fn0 ,v100
 .byte   W08
 .byte   N04
 .byte   W04
 .byte   N08
 .byte   W12
 .byte   N08
 .byte   W12
 .byte   N08
 .byte   W12
 .byte   N08
 .byte   W12
 .byte   N08
 .byte   W12
 .byte   N08
 .byte   W08
 .byte   N08
 .byte   W12
 .byte   N04
 .byte   W04
 .byte   PEND 
@  #09 @029   ----------------------------------------
Label_01402375:
 .byte   N04 ,Fn0 ,v100
 .byte   W08
 .byte   N04
 .byte   W04
 .byte   N08
 .byte   W12
 .byte   N08
 .byte   W12
 .byte   N08
 .byte   W12
 .byte   Gs0
 .byte   W08
 .byte   N04 ,Gn0
 .byte   W12
 .byte   Fn0
 .byte   W04
 .byte   N08 ,Gn0
 .byte   W08
 .byte   N04 ,Fn0
 .byte   W16
 .byte   PEND 
@  #09 @030   ----------------------------------------
Label_0140238F:
 .byte   N08 ,Cn0 ,v100
 .byte   W08
 .byte   N04
 .byte   W04
 .byte   N08
 .byte   W12
 .byte   N08
 .byte   W12
 .byte   Cn1
 .byte   W20
 .byte   N04 ,Cn0
 .byte   W04
 .byte   N08 ,As0
 .byte   W12
 .byte   Gs0
 .byte   W08
 .byte   N04 ,Gn0
 .byte   W12
 .byte   Cn0
 .byte   W04
 .byte   PEND 
@  #09 @031   ----------------------------------------
Label_014023A9:
 .byte   N08 ,Cn0 ,v100
 .byte   W08
 .byte   N04
 .byte   W04
 .byte   N08
 .byte   W12
 .byte   N08
 .byte   W12
 .byte   N08
 .byte   W08
 .byte   N04
 .byte   W04
 .byte   N08 ,Cn1
 .byte   W24
 .byte   N24 ,Cn0
 .byte   W24
 .byte   PEND 
@  #09 @032   ----------------------------------------
Label_014023BE:
 .byte   N06 ,Cn1 ,v100
 .byte   W06
 .byte   N14
 .byte   W14
 .byte   N12 ,Gs0
 .byte   W12
 .byte   N10 ,Dn1
 .byte   W10
 .byte   N06 ,Bn0
 .byte   W06
 .byte   Gs0
 .byte   W06
 .byte   Bn0
 .byte   W06
 .byte   N08
 .byte   W08
 .byte   N12 ,Dn1
 .byte   W12
 .byte   N16 ,Bn0
 .byte   W16
 .byte   PEND 
@  #09 @033   ----------------------------------------
Label_014023DA:
 .byte   N06 ,Cn1 ,v100
 .byte   W06
 .byte   N12
 .byte   W12
 .byte   Gs0
 .byte   W12
 .byte   Cn1
 .byte   W12
 .byte   Dn1
 .byte   W12
 .byte   N06 ,Cn1
 .byte   W06
 .byte   Ds1
 .byte   W06
 .byte   Cn1
 .byte   W06
 .byte   Dn1
 .byte   W06
 .byte   Cn1
 .byte   W06
 .byte   Ds1
 .byte   W06
 .byte   Fn1
 .byte   W06
 .byte   PEND 
@  #09 @034   ----------------------------------------
 .byte   PATT
  .word Label_014023BE
@  #09 @035   ----------------------------------------
 .byte   PATT
  .word Label_014023DA
@  #09 @036   ----------------------------------------
 .byte   PATT
  .word Label_014023BE
@  #09 @037   ----------------------------------------
 .byte   PATT
  .word Label_014023DA
@  #09 @038   ----------------------------------------
 .byte   PATT
  .word Label_014023BE
@  #09 @039   ----------------------------------------
 .byte   PATT
  .word Label_014023DA
@  #09 @040   ----------------------------------------
 .byte   PATT
  .word Label_014023BE
@  #09 @041   ----------------------------------------
 .byte   PATT
  .word Label_014023DA
@  #09 @042   ----------------------------------------
 .byte   PATT
  .word Label_014023BE
@  #09 @043   ----------------------------------------
 .byte   PATT
  .word Label_014023DA
@  #09 @044   ----------------------------------------
 .byte   PATT
  .word Label_014023BE
@  #09 @045   ----------------------------------------
 .byte   PATT
  .word Label_014023DA
@  #09 @046   ----------------------------------------
 .byte   PATT
  .word Label_014023BE
@  #09 @047   ----------------------------------------
 .byte   PATT
  .word Label_014023DA
@  #09 @048   ----------------------------------------
 .byte   W96
@  #09 @049   ----------------------------------------
 .byte   W96
@  #09 @050   ----------------------------------------
 .byte   W96
@  #09 @051   ----------------------------------------
 .byte   W96
@  #09 @052   ----------------------------------------
 .byte   GOTO
  .word Label_01402216
@  #09 @053   ----------------------------------------
 .byte   W96
@  #09 @054   ----------------------------------------
 .byte   W96
@  #09 @055   ----------------------------------------
 .byte   W96
@  #09 @056   ----------------------------------------
 .byte   W96
@  #09 @057   ----------------------------------------
 .byte   W96
@  #09 @058   ----------------------------------------
 .byte   W96
@  #09 @059   ----------------------------------------
 .byte   W96
@  #09 @060   ----------------------------------------
 .byte   W96
@  #09 @061   ----------------------------------------
 .byte   W96
@  #09 @062   ----------------------------------------
 .byte   W96
@  #09 @063   ----------------------------------------
 .byte   W96
@  #09 @064   ----------------------------------------
 .byte   W96
@  #09 @065   ----------------------------------------
 .byte   PATT
  .word Label_01402222
@  #09 @066   ----------------------------------------
 .byte   PATT
  .word Label_01402237
@  #09 @067   ----------------------------------------
 .byte   PATT
  .word Label_01402253
@  #09 @068   ----------------------------------------
 .byte   PATT
  .word Label_0140226D
@  #09 @069   ----------------------------------------
 .byte   PATT
  .word Label_01402282
@  #09 @070   ----------------------------------------
 .byte   PATT
  .word Label_0140229B
@  #09 @071   ----------------------------------------
 .byte   PATT
  .word Label_014022B5
@  #09 @072   ----------------------------------------
 .byte   PATT
  .word Label_014022D1
@  #09 @073   ----------------------------------------
 .byte   PATT
  .word Label_014022EB
@  #09 @074   ----------------------------------------
 .byte   PATT
  .word Label_01402302
@  #09 @075   ----------------------------------------
 .byte   PATT
  .word Label_01402320
@  #09 @076   ----------------------------------------
 .byte   PATT
  .word Label_0140233D
@  #09 @077   ----------------------------------------
 .byte   PATT
  .word Label_0140235E
@  #09 @078   ----------------------------------------
 .byte   PATT
  .word Label_01402375
@  #09 @079   ----------------------------------------
 .byte   PATT
  .word Label_0140238F
@  #09 @080   ----------------------------------------
 .byte   PATT
  .word Label_014023A9
@  #09 @081   ----------------------------------------
 .byte   PATT
  .word Label_014023BE
@  #09 @082   ----------------------------------------
 .byte   PATT
  .word Label_014023DA
@  #09 @083   ----------------------------------------
 .byte   PATT
  .word Label_014023BE
@  #09 @084   ----------------------------------------
 .byte   PATT
  .word Label_014023DA
@  #09 @085   ----------------------------------------
 .byte   PATT
  .word Label_014023BE
@  #09 @086   ----------------------------------------
 .byte   PATT
  .word Label_014023DA
@  #09 @087   ----------------------------------------
 .byte   PATT
  .word Label_014023BE
@  #09 @088   ----------------------------------------
 .byte   PATT
  .word Label_014023DA
@  #09 @089   ----------------------------------------
 .byte   PATT
  .word Label_014023BE
@  #09 @090   ----------------------------------------
 .byte   PATT
  .word Label_014023DA
@  #09 @091   ----------------------------------------
 .byte   PATT
  .word Label_014023BE
@  #09 @092   ----------------------------------------
 .byte   PATT
  .word Label_014023DA
@  #09 @093   ----------------------------------------
 .byte   PATT
  .word Label_014023BE
@  #09 @094   ----------------------------------------
 .byte   PATT
  .word Label_014023DA
@  #09 @095   ----------------------------------------
 .byte   PATT
  .word Label_014023BE
@  #09 @096   ----------------------------------------
 .byte   PATT
  .word Label_014023DA
@  #09 @097   ----------------------------------------
 .byte   PAN , c_v+0
 .byte   VOL , 51*song04_mvl/mxv
 .byte   PAN , c_v+0
 .byte   VOL , 51*song04_mvl/mxv
 .byte   PAN , c_v+0
 .byte   VOL , 51*song04_mvl/mxv
 .byte   BEND , c_v+0
 .byte   FINE

@**************** Track 10 (Midi-Chn.9) ****************@

song04_010:
@  #10 @000   ----------------------------------------
 .byte   KEYSH , song04_key+0
 .byte   VOICE , 124
 .byte   PAN , c_v+0
 .byte   VOL , 51*song04_mvl/mxv
 .byte   PAN , c_v+0
 .byte   VOL , 51*song04_mvl/mxv
 .byte   PAN , c_v+0
 .byte   VOL , 51*song04_mvl/mxv
 .byte   PAN , c_v+0
 .byte   VOL , 51*song04_mvl/mxv
 .byte   BEND , c_v+0
 .byte   W96
@  #10 @001   ----------------------------------------
 .byte   W96
@  #10 @002   ----------------------------------------
 .byte   W96
@  #10 @003   ----------------------------------------
 .byte   W96
@  #10 @004   ----------------------------------------
Label_014031FA:
 .byte   W96
@  #10 @005   ----------------------------------------
 .byte   W96
@  #10 @006   ----------------------------------------
 .byte   W96
@  #10 @007   ----------------------------------------
 .byte   W96
@  #10 @008   ----------------------------------------
Label_014031FE:
 .byte   N06 ,Cn1 ,v100
 .byte   W12
 .byte   Fs1
 .byte   W12
 .byte   Dn1
 .byte   W12
 .byte   Fs1
 .byte   W12
 .byte   Cn1
 .byte   W12
 .byte   Fs1
 .byte   W12
 .byte   Dn1
 .byte   W12
 .byte   Fs1
 .byte   W12
 .byte   PEND 
@  #10 @009   ----------------------------------------
 .byte   PATT
  .word Label_014031FE
@  #10 @010   ----------------------------------------
 .byte   PATT
  .word Label_014031FE
@  #10 @011   ----------------------------------------
 .byte   PATT
  .word Label_014031FE
@  #10 @012   ----------------------------------------
 .byte   PATT
  .word Label_014031FE
@  #10 @013   ----------------------------------------
 .byte   PATT
  .word Label_014031FE
@  #10 @014   ----------------------------------------
 .byte   PATT
  .word Label_014031FE
@  #10 @015   ----------------------------------------
Label_0140322F:
 .byte   N06 ,Cn1 ,v100
 .byte   W12
 .byte   Fs1
 .byte   W12
 .byte   Dn1
 .byte   W12
 .byte   Fs1
 .byte   W60
 .byte   PEND 
@  #10 @016   ----------------------------------------
Label_0140323A:
 .byte   N06 ,Cn1 ,v100
 .byte   N12 ,En2
 .byte   W12
 .byte   N06 ,Fs1
 .byte   W12
 .byte   Dn1
 .byte   W12
 .byte   Fs1
 .byte   W12
 .byte   Cn1
 .byte   W12
 .byte   Fs1
 .byte   W12
 .byte   Dn1
 .byte   W12
 .byte   Fs1
 .byte   W12
 .byte   PEND 
@  #10 @017   ----------------------------------------
 .byte   PATT
  .word Label_014031FE
@  #10 @018   ----------------------------------------
 .byte   PATT
  .word Label_014031FE
@  #10 @019   ----------------------------------------
 .byte   PATT
  .word Label_014031FE
@  #10 @020   ----------------------------------------
Label_0140325F:
 .byte   N06 ,Cn1 ,v100
 .byte   W12
 .byte   Fs1
 .byte   W12
 .byte   Dn1
 .byte   N06 ,Fs1
 .byte   W08
 .byte   N04
 .byte   W04
 .byte   N06
 .byte   W12
 .byte   Cn1
 .byte   N06 ,Fs1
 .byte   W12
 .byte   N06
 .byte   W12
 .byte   Dn1
 .byte   N04 ,Fs1
 .byte   W04
 .byte   N04
 .byte   W04
 .byte   N04
 .byte   W04
 .byte   N06
 .byte   W08
 .byte   N04
 .byte   W04
 .byte   PEND 
@  #10 @021   ----------------------------------------
Label_01403280:
 .byte   N06 ,Cn1 ,v100
 .byte   N06 ,Fs1
 .byte   W12
 .byte   N06
 .byte   W12
 .byte   Dn1
 .byte   N04 ,Fs1
 .byte   W04
 .byte   N04
 .byte   W04
 .byte   N04
 .byte   W04
 .byte   N06
 .byte   W12
 .byte   Cn1
 .byte   N08 ,Fs1
 .byte   W08
 .byte   N04
 .byte   W04
 .byte   N04
 .byte   W08
 .byte   N04
 .byte   W04
 .byte   N06 ,Dn1
 .byte   N08 ,Fs1
 .byte   W08
 .byte   N04
 .byte   W04
 .byte   N08
 .byte   W12
 .byte   PEND 
@  #10 @022   ----------------------------------------
Label_014032A6:
 .byte   N06 ,Cn1 ,v100
 .byte   W12
 .byte   N08 ,Fs1
 .byte   W12
 .byte   N06 ,Dn1
 .byte   W08
 .byte   N04 ,Fs1
 .byte   W04
 .byte   N08
 .byte   W08
 .byte   N04
 .byte   W04
 .byte   N06 ,Cn1
 .byte   N08 ,Fs1
 .byte   W08
 .byte   N04
 .byte   W04
 .byte   N08
 .byte   W08
 .byte   N04
 .byte   W04
 .byte   N06 ,Dn1
 .byte   N08 ,Fs1
 .byte   W08
 .byte   N04
 .byte   W04
 .byte   N04
 .byte   W04
 .byte   N04
 .byte   W04
 .byte   N04
 .byte   W04
 .byte   PEND 
@  #10 @023   ----------------------------------------
Label_014032D0:
 .byte   N06 ,Cn1 ,v100
 .byte   N08 ,Fs1
 .byte   W12
 .byte   N08
 .byte   W12
 .byte   N06 ,Dn1
 .byte   N08 ,Fs1
 .byte   W12
 .byte   N08
 .byte   W12
 .byte   N06 ,Cn1
 .byte   N04 ,Fs1
 .byte   W04
 .byte   N04
 .byte   W04
 .byte   N04
 .byte   W04
 .byte   N04
 .byte   W04
 .byte   N04
 .byte   W04
 .byte   N04
 .byte   W04
 .byte   N06 ,Dn1
 .byte   N06 ,Fs1
 .byte   W08
 .byte   N04
 .byte   W04
 .byte   N06
 .byte   W12
 .byte   PEND 
@  #10 @024   ----------------------------------------
Label_014032F8:
 .byte   N06 ,Cn1 ,v100
 .byte   N12 ,En2
 .byte   W24
 .byte   N06 ,Dn1
 .byte   N06 ,Fn2
 .byte   W12
 .byte   Ds2
 .byte   W12
 .byte   Cn1
 .byte   N06 ,Bn2
 .byte   W12
 .byte   Ds2
 .byte   W12
 .byte   Dn1
 .byte   N06 ,Bn2
 .byte   W12
 .byte   Ds2
 .byte   W12
 .byte   PEND 
@  #10 @025   ----------------------------------------
Label_01403312:
 .byte   N06 ,Cn1 ,v100
 .byte   N06 ,Bn2
 .byte   W12
 .byte   Ds2
 .byte   W12
 .byte   Dn1
 .byte   N06 ,Bn2
 .byte   W12
 .byte   Ds2
 .byte   W12
 .byte   Cn1
 .byte   N06 ,Bn2
 .byte   W12
 .byte   Ds2
 .byte   W12
 .byte   Dn1
 .byte   N06 ,Bn2
 .byte   W12
 .byte   Ds2
 .byte   W12
 .byte   PEND 
@  #10 @026   ----------------------------------------
 .byte   PATT
  .word Label_01403312
@  #10 @027   ----------------------------------------
 .byte   PATT
  .word Label_01403312
@  #10 @028   ----------------------------------------
 .byte   PATT
  .word Label_014032F8
@  #10 @029   ----------------------------------------
 .byte   PATT
  .word Label_01403312
@  #10 @030   ----------------------------------------
Label_01403341:
 .byte   N06 ,Cn1 ,v100
 .byte   W24
 .byte   Dn1
 .byte   N06 ,Bn2
 .byte   W12
 .byte   Ds2
 .byte   W12
 .byte   Cn1
 .byte   N06 ,Bn2
 .byte   W12
 .byte   Ds2
 .byte   W12
 .byte   Dn1
 .byte   N06 ,Bn2
 .byte   W12
 .byte   Ds2
 .byte   W12
 .byte   PEND 
@  #10 @031   ----------------------------------------
Label_01403358:
 .byte   N06 ,Cn1 ,v100
 .byte   N06 ,Bn2
 .byte   W12
 .byte   Ds2
 .byte   W12
 .byte   Dn1
 .byte   N06 ,Bn2
 .byte   W12
 .byte   Ds2
 .byte   W12
 .byte   N03 ,Cn1
 .byte   N06 ,Bn2
 .byte   W03
 .byte   N03 ,Cn1
 .byte   W44
 .byte   W01
 .byte   PEND 
@  #10 @032   ----------------------------------------
Label_01403370:
 .byte   N06 ,Cn1 ,v100
 .byte   N04 ,Fs1
 .byte   N12 ,En2
 .byte   W04
 .byte   N04 ,Fs1
 .byte   W04
 .byte   N04
 .byte   W06
 .byte   N04
 .byte   W06
 .byte   N04
 .byte   W04
 .byte   N04
 .byte   W12
 .byte   N06 ,Dn1
 .byte   W12
 .byte   N04 ,Fs1
 .byte   W06
 .byte   N04
 .byte   W06
 .byte   N06 ,Dn1
 .byte   N04 ,Fs1
 .byte   W06
 .byte   N04
 .byte   W06
 .byte   N04
 .byte   W04
 .byte   N02
 .byte   W02
 .byte   N02
 .byte   W06
 .byte   N04
 .byte   W06
 .byte   As1
 .byte   W02
 .byte   Cn1
 .byte   W04
 .byte   PEND 
@  #10 @033   ----------------------------------------
Label_0140339F:
 .byte   N06 ,Cn1 ,v100
 .byte   W24
 .byte   N04 ,Fs1
 .byte   W12
 .byte   N06 ,Dn1
 .byte   W12
 .byte   N04 ,Fs1
 .byte   W06
 .byte   N04
 .byte   W06
 .byte   N06 ,Dn1
 .byte   N04 ,Fs1
 .byte   W06
 .byte   N04
 .byte   W06
 .byte   N04
 .byte   W04
 .byte   N02
 .byte   W02
 .byte   N02
 .byte   W06
 .byte   N04
 .byte   W06
 .byte   As1
 .byte   W02
 .byte   Cn1
 .byte   W04
 .byte   PEND 
@  #10 @034   ----------------------------------------
 .byte   PATT
  .word Label_0140339F
@  #10 @035   ----------------------------------------
Label_014033C7:
 .byte   N06 ,Cn1 ,v100
 .byte   W24
 .byte   N04 ,Fs1
 .byte   W12
 .byte   N06 ,Dn1
 .byte   W12
 .byte   N04 ,Fs1
 .byte   W06
 .byte   N04
 .byte   W06
 .byte   N06 ,Dn1
 .byte   N04 ,Fs1
 .byte   W06
 .byte   N04
 .byte   W06
 .byte   N04
 .byte   N04 ,Ds2
 .byte   W04
 .byte   N02 ,Fs1
 .byte   W02
 .byte   N02
 .byte   N04 ,Ds2
 .byte   W06
 .byte   Fs1
 .byte   N04 ,Ds2
 .byte   W06
 .byte   As1
 .byte   N04 ,Ds2
 .byte   W02
 .byte   Cn1
 .byte   W04
 .byte   PEND 
@  #10 @036   ----------------------------------------
Label_014033F3:
 .byte   N06 ,Cn1 ,v100
 .byte   N04 ,Bn2
 .byte   W12
 .byte   Ds2
 .byte   W12
 .byte   Fs1
 .byte   N04 ,Bn2
 .byte   W12
 .byte   N06 ,Dn1
 .byte   N04 ,Ds2
 .byte   W12
 .byte   Fs1
 .byte   N04 ,Bn2
 .byte   W06
 .byte   Fs1
 .byte   W06
 .byte   N06 ,Dn1
 .byte   N04 ,Fs1
 .byte   N04 ,Ds2
 .byte   W06
 .byte   Fs1
 .byte   W06
 .byte   N04
 .byte   N04 ,Bn2
 .byte   W04
 .byte   N02 ,Fs1
 .byte   W02
 .byte   N02
 .byte   W06
 .byte   N04
 .byte   N04 ,Ds2
 .byte   W06
 .byte   As1
 .byte   W02
 .byte   Cn1
 .byte   W04
 .byte   PEND 
@  #10 @037   ----------------------------------------
 .byte   PATT
  .word Label_014033F3
@  #10 @038   ----------------------------------------
 .byte   PATT
  .word Label_014033F3
@  #10 @039   ----------------------------------------
Label_0140342F:
 .byte   N06 ,Cn1 ,v100
 .byte   N04 ,Bn2
 .byte   W12
 .byte   Ds2
 .byte   W12
 .byte   Fs1
 .byte   N04 ,Bn2
 .byte   W12
 .byte   N06 ,Dn1
 .byte   N04 ,Ds2
 .byte   W12
 .byte   Fs1
 .byte   N04 ,Bn2
 .byte   W06
 .byte   Fs1
 .byte   W06
 .byte   N06 ,Dn1
 .byte   N04 ,Fs1
 .byte   N04 ,Ds2
 .byte   W06
 .byte   Fs1
 .byte   W06
 .byte   N02 ,Dn1
 .byte   N04 ,Fs1
 .byte   N04 ,Bn2
 .byte   W02
 .byte   N02 ,Dn1
 .byte   W02
 .byte   Fs1
 .byte   W02
 .byte   N02
 .byte   W06
 .byte   N04
 .byte   N04 ,Ds2
 .byte   W06
 .byte   As1
 .byte   W02
 .byte   Cn1
 .byte   W04
 .byte   PEND 
@  #10 @040   ----------------------------------------
 .byte   PATT
  .word Label_014033F3
@  #10 @041   ----------------------------------------
 .byte   PATT
  .word Label_0140342F
@  #10 @042   ----------------------------------------
Label_01403470:
 .byte   N04 ,Cn1 ,v100
 .byte   N04 ,Cs2
 .byte   W06
 .byte   Cn1
 .byte   W06
 .byte   Ds2
 .byte   W12
 .byte   Dn1
 .byte   N04 ,Bn2
 .byte   W12
 .byte   Ds2
 .byte   W12
 .byte   Cn1
 .byte   N04 ,Bn2
 .byte   W06
 .byte   Cn1
 .byte   W06
 .byte   Ds2
 .byte   W12
 .byte   Dn1
 .byte   N04 ,Bn2
 .byte   W12
 .byte   Ds2
 .byte   W12
 .byte   PEND 
@  #10 @043   ----------------------------------------
Label_0140348F:
 .byte   N04 ,Cn1 ,v100
 .byte   N04 ,Bn2
 .byte   W06
 .byte   Cn1
 .byte   W06
 .byte   Ds2
 .byte   W12
 .byte   Dn1
 .byte   N04 ,Bn2
 .byte   W12
 .byte   Ds2
 .byte   W12
 .byte   Cn1
 .byte   N04 ,Bn2
 .byte   W06
 .byte   Cn1
 .byte   W06
 .byte   Ds2
 .byte   W12
 .byte   Dn1
 .byte   N04 ,Bn2
 .byte   W12
 .byte   Ds2
 .byte   W12
 .byte   PEND 
@  #10 @044   ----------------------------------------
 .byte   PATT
  .word Label_01403470
@  #10 @045   ----------------------------------------
 .byte   PATT
  .word Label_0140348F
@  #10 @046   ----------------------------------------
 .byte   PATT
  .word Label_01403470
@  #10 @047   ----------------------------------------
 .byte   PATT
  .word Label_0140348F
@  #10 @048   ----------------------------------------
 .byte   N12 ,En2 ,v100
 .byte   W96
@  #10 @049   ----------------------------------------
 .byte   W96
@  #10 @050   ----------------------------------------
 .byte   W96
@  #10 @051   ----------------------------------------
 .byte   W96
@  #10 @052   ----------------------------------------
 .byte   GOTO
  .word Label_014031FA
@  #10 @053   ----------------------------------------
 .byte   W96
@  #10 @054   ----------------------------------------
 .byte   W96
@  #10 @055   ----------------------------------------
 .byte   W96
@  #10 @056   ----------------------------------------
 .byte   W96
@  #10 @057   ----------------------------------------
 .byte   PATT
  .word Label_014031FE
@  #10 @058   ----------------------------------------
 .byte   PATT
  .word Label_014031FE
@  #10 @059   ----------------------------------------
 .byte   PATT
  .word Label_014031FE
@  #10 @060   ----------------------------------------
 .byte   PATT
  .word Label_014031FE
@  #10 @061   ----------------------------------------
 .byte   PATT
  .word Label_014031FE
@  #10 @062   ----------------------------------------
 .byte   PATT
  .word Label_014031FE
@  #10 @063   ----------------------------------------
 .byte   PATT
  .word Label_014031FE
@  #10 @064   ----------------------------------------
 .byte   PATT
  .word Label_0140322F
@  #10 @065   ----------------------------------------
 .byte   PATT
  .word Label_0140323A
@  #10 @066   ----------------------------------------
 .byte   PATT
  .word Label_014031FE
@  #10 @067   ----------------------------------------
 .byte   PATT
  .word Label_014031FE
@  #10 @068   ----------------------------------------
 .byte   PATT
  .word Label_014031FE
@  #10 @069   ----------------------------------------
 .byte   PATT
  .word Label_0140325F
@  #10 @070   ----------------------------------------
 .byte   PATT
  .word Label_01403280
@  #10 @071   ----------------------------------------
 .byte   PATT
  .word Label_014032A6
@  #10 @072   ----------------------------------------
 .byte   PATT
  .word Label_014032D0
@  #10 @073   ----------------------------------------
 .byte   PATT
  .word Label_014032F8
@  #10 @074   ----------------------------------------
 .byte   PATT
  .word Label_01403312
@  #10 @075   ----------------------------------------
 .byte   PATT
  .word Label_01403312
@  #10 @076   ----------------------------------------
 .byte   PATT
  .word Label_01403312
@  #10 @077   ----------------------------------------
 .byte   PATT
  .word Label_014032F8
@  #10 @078   ----------------------------------------
 .byte   PATT
  .word Label_01403312
@  #10 @079   ----------------------------------------
 .byte   PATT
  .word Label_01403341
@  #10 @080   ----------------------------------------
 .byte   PATT
  .word Label_01403358
@  #10 @081   ----------------------------------------
 .byte   PATT
  .word Label_01403370
@  #10 @082   ----------------------------------------
 .byte   PATT
  .word Label_0140339F
@  #10 @083   ----------------------------------------
 .byte   PATT
  .word Label_0140339F
@  #10 @084   ----------------------------------------
 .byte   PATT
  .word Label_014033C7
@  #10 @085   ----------------------------------------
 .byte   PATT
  .word Label_014033F3
@  #10 @086   ----------------------------------------
 .byte   PATT
  .word Label_014033F3
@  #10 @087   ----------------------------------------
 .byte   PATT
  .word Label_014033F3
@  #10 @088   ----------------------------------------
 .byte   PATT
  .word Label_0140342F
@  #10 @089   ----------------------------------------
 .byte   PATT
  .word Label_014033F3
@  #10 @090   ----------------------------------------
 .byte   PATT
  .word Label_0140342F
@  #10 @091   ----------------------------------------
 .byte   PATT
  .word Label_01403470
@  #10 @092   ----------------------------------------
 .byte   PATT
  .word Label_0140348F
@  #10 @093   ----------------------------------------
 .byte   PATT
  .word Label_01403470
@  #10 @094   ----------------------------------------
 .byte   PATT
  .word Label_0140348F
@  #10 @095   ----------------------------------------
 .byte   PATT
  .word Label_01403470
@  #10 @096   ----------------------------------------
 .byte   PATT
  .word Label_0140348F
@  #10 @097   ----------------------------------------
 .byte   PAN , c_v+0
 .byte   VOL , 51*song04_mvl/mxv
 .byte   PAN , c_v+0
 .byte   VOL , 51*song04_mvl/mxv
 .byte   PAN , c_v+0
 .byte   VOL , 51*song04_mvl/mxv
 .byte   BEND , c_v+0
 .byte   FINE

@**************** Track 11 (Midi-Chn.10) ****************@

song04_011:
@  #11 @000   ----------------------------------------
 .byte   KEYSH , song04_key+0
 .byte   VOICE , 55
 .byte   PAN , c_v+0
 .byte   VOL , 32*song04_mvl/mxv
 .byte   PAN , c_v+0
 .byte   VOL , 32*song04_mvl/mxv
 .byte   PAN , c_v+0
 .byte   VOL , 32*song04_mvl/mxv
 .byte   PAN , c_v+0
 .byte   VOL , 32*song04_mvl/mxv
 .byte   BEND , c_v+0
 .byte   W96
@  #11 @001   ----------------------------------------
 .byte   W96
@  #11 @002   ----------------------------------------
 .byte   W96
@  #11 @003   ----------------------------------------
 .byte   W96
@  #11 @004   ----------------------------------------
Label_01402902:
 .byte   W96
@  #11 @005   ----------------------------------------
 .byte   W96
@  #11 @006   ----------------------------------------
 .byte   W96
@  #11 @007   ----------------------------------------
 .byte   W96
@  #11 @008   ----------------------------------------
 .byte   W96
@  #11 @009   ----------------------------------------
 .byte   W96
@  #11 @010   ----------------------------------------
 .byte   W96
@  #11 @011   ----------------------------------------
 .byte   W96
@  #11 @012   ----------------------------------------
 .byte   W96
@  #11 @013   ----------------------------------------
 .byte   W96
@  #11 @014   ----------------------------------------
 .byte   W96
@  #11 @015   ----------------------------------------
 .byte   W96
@  #11 @016   ----------------------------------------
Label_0140290E:
 .byte   N48 ,Dn4 ,v100
 .byte   W48
 .byte   N12 ,Gn3
 .byte   W12
 .byte   As3
 .byte   W12
 .byte   N24 ,Ds4
 .byte   W24
 .byte   PEND 
@  #11 @017   ----------------------------------------
Label_0140291B:
 .byte   N36 ,Dn4 ,v100
 .byte   W48
 .byte   N12 ,Gn3
 .byte   W12
 .byte   As3
 .byte   W12
 .byte   N24 ,Ds4
 .byte   W24
 .byte   PEND 
@  #11 @018   ----------------------------------------
 .byte   PATT
  .word Label_0140290E
@  #11 @019   ----------------------------------------
Label_0140292D:
 .byte   N36 ,Dn4 ,v100
 .byte   W48
 .byte   N12 ,Bn3
 .byte   W12
 .byte   Cn4
 .byte   W12
 .byte   N24 ,Ds4
 .byte   W24
 .byte   PEND 
@  #11 @020   ----------------------------------------
Label_0140293A:
 .byte   N48 ,Dn4 ,v100
 .byte   W48
 .byte   N12 ,Gn3
 .byte   W12
 .byte   As3
 .byte   W12
 .byte   N21 ,Ds4
 .byte   W21
 .byte   N03 ,Fn4
 .byte   W03
 .byte   PEND 
@  #11 @021   ----------------------------------------
Label_0140294A:
 .byte   N48 ,Dn4 ,v100
 .byte   W48
 .byte   N24 ,As3
 .byte   W24
 .byte   Cn4
 .byte   W24
 .byte   PEND 
@  #11 @022   ----------------------------------------
Label_01402954:
 .byte   N48 ,Bn3 ,v100
 .byte   W48
 .byte   N12 ,Gn3
 .byte   W12
 .byte   Bn3
 .byte   W12
 .byte   N24 ,Dn4
 .byte   W24
 .byte   PEND 
@  #11 @023   ----------------------------------------
 .byte   N84 ,Bn3
 .byte   W96
@  #11 @024   ----------------------------------------
 .byte   PATT
  .word Label_0140290E
@  #11 @025   ----------------------------------------
 .byte   PATT
  .word Label_0140291B
@  #11 @026   ----------------------------------------
 .byte   PATT
  .word Label_0140290E
@  #11 @027   ----------------------------------------
Label_01402973:
 .byte   N36 ,Dn4 ,v100
 .byte   W48
 .byte   N12 ,Bn3
 .byte   W12
 .byte   Cn4
 .byte   W12
 .byte   N18 ,Fn4
 .byte   W18
 .byte   N06 ,Ds4
 .byte   W06
 .byte   PEND 
@  #11 @028   ----------------------------------------
 .byte   PATT
  .word Label_0140293A
@  #11 @029   ----------------------------------------
 .byte   PATT
  .word Label_0140294A
@  #11 @030   ----------------------------------------
 .byte   PATT
  .word Label_01402954
@  #11 @031   ----------------------------------------
 .byte   N84 ,Bn3 ,v100
 .byte   W96
@  #11 @032   ----------------------------------------
 .byte   W96
@  #11 @033   ----------------------------------------
 .byte   W96
@  #11 @034   ----------------------------------------
 .byte   W96
@  #11 @035   ----------------------------------------
 .byte   W96
@  #11 @036   ----------------------------------------
 .byte   W96
@  #11 @037   ----------------------------------------
 .byte   W96
@  #11 @038   ----------------------------------------
 .byte   W96
@  #11 @039   ----------------------------------------
 .byte   W96
@  #11 @040   ----------------------------------------
 .byte   W96
@  #11 @041   ----------------------------------------
 .byte   W96
@  #11 @042   ----------------------------------------
 .byte   W96
@  #11 @043   ----------------------------------------
 .byte   W96
@  #11 @044   ----------------------------------------
 .byte   W96
@  #11 @045   ----------------------------------------
 .byte   W96
@  #11 @046   ----------------------------------------
 .byte   W96
@  #11 @047   ----------------------------------------
 .byte   W96
@  #11 @048   ----------------------------------------
 .byte   W96
@  #11 @049   ----------------------------------------
 .byte   W96
@  #11 @050   ----------------------------------------
 .byte   W96
@  #11 @051   ----------------------------------------
 .byte   W96
@  #11 @052   ----------------------------------------
 .byte   GOTO
  .word Label_01402902
@  #11 @053   ----------------------------------------
 .byte   W96
@  #11 @054   ----------------------------------------
 .byte   W96
@  #11 @055   ----------------------------------------
 .byte   W96
@  #11 @056   ----------------------------------------
 .byte   W96
@  #11 @057   ----------------------------------------
 .byte   W96
@  #11 @058   ----------------------------------------
 .byte   W96
@  #11 @059   ----------------------------------------
 .byte   W96
@  #11 @060   ----------------------------------------
 .byte   W96
@  #11 @061   ----------------------------------------
 .byte   W96
@  #11 @062   ----------------------------------------
 .byte   W96
@  #11 @063   ----------------------------------------
 .byte   W96
@  #11 @064   ----------------------------------------
 .byte   W96
@  #11 @065   ----------------------------------------
 .byte   PATT
  .word Label_0140290E
@  #11 @066   ----------------------------------------
 .byte   PATT
  .word Label_0140291B
@  #11 @067   ----------------------------------------
 .byte   PATT
  .word Label_0140290E
@  #11 @068   ----------------------------------------
 .byte   PATT
  .word Label_0140292D
@  #11 @069   ----------------------------------------
 .byte   PATT
  .word Label_0140293A
@  #11 @070   ----------------------------------------
 .byte   PATT
  .word Label_0140294A
@  #11 @071   ----------------------------------------
 .byte   PATT
  .word Label_01402954
@  #11 @072   ----------------------------------------
 .byte   N84 ,Bn3 ,v100
 .byte   W96
@  #11 @073   ----------------------------------------
 .byte   PATT
  .word Label_0140290E
@  #11 @074   ----------------------------------------
 .byte   PATT
  .word Label_0140291B
@  #11 @075   ----------------------------------------
 .byte   PATT
  .word Label_0140290E
@  #11 @076   ----------------------------------------
 .byte   PATT
  .word Label_01402973
@  #11 @077   ----------------------------------------
 .byte   PATT
  .word Label_0140293A
@  #11 @078   ----------------------------------------
 .byte   PATT
  .word Label_0140294A
@  #11 @079   ----------------------------------------
 .byte   PATT
  .word Label_01402954
@  #11 @080   ----------------------------------------
 .byte   N84 ,Bn3 ,v100
 .byte   W96
@  #11 @081   ----------------------------------------
 .byte   W96
@  #11 @082   ----------------------------------------
 .byte   W96
@  #11 @083   ----------------------------------------
 .byte   W96
@  #11 @084   ----------------------------------------
 .byte   W96
@  #11 @085   ----------------------------------------
 .byte   W96
@  #11 @086   ----------------------------------------
 .byte   W96
@  #11 @087   ----------------------------------------
 .byte   W96
@  #11 @088   ----------------------------------------
 .byte   W96
@  #11 @089   ----------------------------------------
 .byte   W96
@  #11 @090   ----------------------------------------
 .byte   W96
@  #11 @091   ----------------------------------------
 .byte   W96
@  #11 @092   ----------------------------------------
 .byte   W96
@  #11 @093   ----------------------------------------
 .byte   W96
@  #11 @094   ----------------------------------------
 .byte   W96
@  #11 @095   ----------------------------------------
 .byte   W96
@  #11 @096   ----------------------------------------
 .byte   W96
@  #11 @097   ----------------------------------------
 .byte   VOICE , 55
 .byte   PAN , c_v+0
 .byte   VOL , 32*song04_mvl/mxv
 .byte   PAN , c_v+0
 .byte   VOL , 32*song04_mvl/mxv
 .byte   PAN , c_v+0
 .byte   VOL , 32*song04_mvl/mxv
 .byte   BEND , c_v+0
 .byte   FINE

@**************** Track 12 (Midi-Chn.11) ****************@

song04_012:
@  #12 @000   ----------------------------------------
 .byte   KEYSH , song04_key+0
 .byte   VOICE , 82
 .byte   PAN , c_v+0
 .byte   VOL , 18*song04_mvl/mxv
 .byte   PAN , c_v+0
 .byte   VOL , 18*song04_mvl/mxv
 .byte   PAN , c_v+0
 .byte   VOL , 18*song04_mvl/mxv
 .byte   PAN , c_v+0
 .byte   VOL , 18*song04_mvl/mxv
 .byte   BEND , c_v+0
 .byte   W96
@  #12 @001   ----------------------------------------
 .byte   W96
@  #12 @002   ----------------------------------------
 .byte   W96
@  #12 @003   ----------------------------------------
 .byte   W96
@  #12 @004   ----------------------------------------
Label_01552852:
 .byte   W96
@  #12 @005   ----------------------------------------
 .byte   W96
@  #12 @006   ----------------------------------------
 .byte   W96
@  #12 @007   ----------------------------------------
 .byte   W96
@  #12 @008   ----------------------------------------
 .byte   W96
@  #12 @009   ----------------------------------------
 .byte   W96
@  #12 @010   ----------------------------------------
 .byte   W96
@  #12 @011   ----------------------------------------
 .byte   W96
@  #12 @012   ----------------------------------------
 .byte   W96
@  #12 @013   ----------------------------------------
 .byte   W96
@  #12 @014   ----------------------------------------
 .byte   W96
@  #12 @015   ----------------------------------------
 .byte   W96
@  #12 @016   ----------------------------------------
 .byte   W96
@  #12 @017   ----------------------------------------
 .byte   W96
@  #12 @018   ----------------------------------------
 .byte   W96
@  #12 @019   ----------------------------------------
 .byte   W96
@  #12 @020   ----------------------------------------
 .byte   W96
@  #12 @021   ----------------------------------------
 .byte   W96
@  #12 @022   ----------------------------------------
 .byte   W96
@  #12 @023   ----------------------------------------
 .byte   W96
@  #12 @024   ----------------------------------------
Label_01552866:
 .byte   N04 ,Cn4 ,v100
 .byte   W04
 .byte   Gn4
 .byte   W04
 .byte   Cn4
 .byte   W04
 .byte   N04
 .byte   W04
 .byte   N04
 .byte   W04
 .byte   Gn4
 .byte   W04
 .byte   Cn4
 .byte   W04
 .byte   N04
 .byte   W04
 .byte   Gn4
 .byte   W04
 .byte   Cn4
 .byte   W04
 .byte   N04
 .byte   W04
 .byte   Gn4
 .byte   W04
 .byte   Cn4
 .byte   W04
 .byte   Gn4
 .byte   W04
 .byte   Cn4
 .byte   W04
 .byte   N04
 .byte   W04
 .byte   N04
 .byte   W04
 .byte   Gn4
 .byte   W04
 .byte   Cn4
 .byte   W04
 .byte   Gn4
 .byte   W04
 .byte   Cn4
 .byte   W04
 .byte   Gn4
 .byte   W04
 .byte   Cn4
 .byte   W04
 .byte   N04
 .byte   W04
 .byte   PEND 
@  #12 @025   ----------------------------------------
 .byte   PATT
  .word Label_01552866
@  #12 @026   ----------------------------------------
 .byte   PATT
  .word Label_01552866
@  #12 @027   ----------------------------------------
 .byte   PATT
  .word Label_01552866
@  #12 @028   ----------------------------------------
 .byte   PATT
  .word Label_01552866
@  #12 @029   ----------------------------------------
 .byte   PATT
  .word Label_01552866
@  #12 @030   ----------------------------------------
 .byte   PATT
  .word Label_01552866
@  #12 @031   ----------------------------------------
 .byte   PATT
  .word Label_01552866
@  #12 @032   ----------------------------------------
 .byte   PATT
  .word Label_01552866
@  #12 @033   ----------------------------------------
 .byte   PATT
  .word Label_01552866
@  #12 @034   ----------------------------------------
 .byte   PATT
  .word Label_01552866
@  #12 @035   ----------------------------------------
 .byte   PATT
  .word Label_01552866
@  #12 @036   ----------------------------------------
 .byte   PATT
  .word Label_01552866
@  #12 @037   ----------------------------------------
 .byte   PATT
  .word Label_01552866
@  #12 @038   ----------------------------------------
 .byte   PATT
  .word Label_01552866
@  #12 @039   ----------------------------------------
 .byte   PATT
  .word Label_01552866
@  #12 @040   ----------------------------------------
 .byte   W96
@  #12 @041   ----------------------------------------
 .byte   W96
@  #12 @042   ----------------------------------------
 .byte   W96
@  #12 @043   ----------------------------------------
 .byte   W96
@  #12 @044   ----------------------------------------
 .byte   W96
@  #12 @045   ----------------------------------------
 .byte   W96
@  #12 @046   ----------------------------------------
 .byte   W96
@  #12 @047   ----------------------------------------
 .byte   W96
@  #12 @048   ----------------------------------------
 .byte   W96
@  #12 @049   ----------------------------------------
 .byte   W96
@  #12 @050   ----------------------------------------
 .byte   W96
@  #12 @051   ----------------------------------------
 .byte   W96
@  #12 @052   ----------------------------------------
 .byte   GOTO
  .word Label_01552852
@  #12 @053   ----------------------------------------
 .byte   W96
@  #12 @054   ----------------------------------------
 .byte   W96
@  #12 @055   ----------------------------------------
 .byte   W96
@  #12 @056   ----------------------------------------
 .byte   W96
@  #12 @057   ----------------------------------------
 .byte   W96
@  #12 @058   ----------------------------------------
 .byte   W96
@  #12 @059   ----------------------------------------
 .byte   W96
@  #12 @060   ----------------------------------------
 .byte   W96
@  #12 @061   ----------------------------------------
 .byte   W96
@  #12 @062   ----------------------------------------
 .byte   W96
@  #12 @063   ----------------------------------------
 .byte   W96
@  #12 @064   ----------------------------------------
 .byte   W96
@  #12 @065   ----------------------------------------
 .byte   W96
@  #12 @066   ----------------------------------------
 .byte   W96
@  #12 @067   ----------------------------------------
 .byte   W96
@  #12 @068   ----------------------------------------
 .byte   W96
@  #12 @069   ----------------------------------------
 .byte   W96
@  #12 @070   ----------------------------------------
 .byte   W96
@  #12 @071   ----------------------------------------
 .byte   W96
@  #12 @072   ----------------------------------------
 .byte   W96
@  #12 @073   ----------------------------------------
 .byte   PATT
  .word Label_01552866
@  #12 @074   ----------------------------------------
 .byte   PATT
  .word Label_01552866
@  #12 @075   ----------------------------------------
 .byte   PATT
  .word Label_01552866
@  #12 @076   ----------------------------------------
 .byte   PATT
  .word Label_01552866
@  #12 @077   ----------------------------------------
 .byte   PATT
  .word Label_01552866
@  #12 @078   ----------------------------------------
 .byte   PATT
  .word Label_01552866
@  #12 @079   ----------------------------------------
 .byte   PATT
  .word Label_01552866
@  #12 @080   ----------------------------------------
 .byte   PATT
  .word Label_01552866
@  #12 @081   ----------------------------------------
 .byte   PATT
  .word Label_01552866
@  #12 @082   ----------------------------------------
 .byte   PATT
  .word Label_01552866
@  #12 @083   ----------------------------------------
 .byte   PATT
  .word Label_01552866
@  #12 @084   ----------------------------------------
 .byte   PATT
  .word Label_01552866
@  #12 @085   ----------------------------------------
 .byte   PATT
  .word Label_01552866
@  #12 @086   ----------------------------------------
 .byte   PATT
  .word Label_01552866
@  #12 @087   ----------------------------------------
 .byte   PATT
  .word Label_01552866
@  #12 @088   ----------------------------------------
 .byte   PATT
  .word Label_01552866
@  #12 @089   ----------------------------------------
 .byte   W96
@  #12 @090   ----------------------------------------
 .byte   W96
@  #12 @091   ----------------------------------------
 .byte   W96
@  #12 @092   ----------------------------------------
 .byte   W96
@  #12 @093   ----------------------------------------
 .byte   W96
@  #12 @094   ----------------------------------------
 .byte   W96
@  #12 @095   ----------------------------------------
 .byte   W96
@  #12 @096   ----------------------------------------
 .byte   W96
@  #12 @097   ----------------------------------------
 .byte   VOICE , 82
 .byte   PAN , c_v+0
 .byte   VOL , 18*song04_mvl/mxv
 .byte   PAN , c_v+0
 .byte   VOL , 18*song04_mvl/mxv
 .byte   PAN , c_v+0
 .byte   VOL , 18*song04_mvl/mxv
 .byte   BEND , c_v+0
 .byte   FINE

@**************** Track 13 (Midi-Chn.12) ****************@

song04_013:
@  #13 @000   ----------------------------------------
 .byte   KEYSH , song04_key+0
 .byte   VOICE , 119
 .byte   PAN , c_v+0
 .byte   VOL , 40*song04_mvl/mxv
 .byte   PAN , c_v+0
 .byte   VOL , 40*song04_mvl/mxv
 .byte   PAN , c_v+0
 .byte   VOL , 40*song04_mvl/mxv
 .byte   PAN , c_v+0
 .byte   VOL , 40*song04_mvl/mxv
 .byte   BEND , c_v+0
 .byte   W96
@  #13 @001   ----------------------------------------
 .byte   W96
@  #13 @002   ----------------------------------------
 .byte   W96
@  #13 @003   ----------------------------------------
 .byte   W96
@  #13 @004   ----------------------------------------
Label_015526AA:
 .byte   W96
@  #13 @005   ----------------------------------------
 .byte   W96
@  #13 @006   ----------------------------------------
 .byte   W96
@  #13 @007   ----------------------------------------
 .byte   W96
@  #13 @008   ----------------------------------------
 .byte   W96
@  #13 @009   ----------------------------------------
 .byte   W96
@  #13 @010   ----------------------------------------
 .byte   W96
@  #13 @011   ----------------------------------------
 .byte   W96
@  #13 @012   ----------------------------------------
 .byte   W96
@  #13 @013   ----------------------------------------
 .byte   W96
@  #13 @014   ----------------------------------------
 .byte   W96
@  #13 @015   ----------------------------------------
 .byte   W48
 .byte   N48 ,Cs1 ,v100
 .byte   W48
@  #13 @016   ----------------------------------------
 .byte   W96
@  #13 @017   ----------------------------------------
 .byte   W96
@  #13 @018   ----------------------------------------
 .byte   W96
@  #13 @019   ----------------------------------------
 .byte   W96
@  #13 @020   ----------------------------------------
 .byte   W96
@  #13 @021   ----------------------------------------
 .byte   W96
@  #13 @022   ----------------------------------------
 .byte   W96
@  #13 @023   ----------------------------------------
 .byte   W48
 .byte   N48
 .byte   W48
@  #13 @024   ----------------------------------------
 .byte   W96
@  #13 @025   ----------------------------------------
 .byte   W96
@  #13 @026   ----------------------------------------
 .byte   W96
@  #13 @027   ----------------------------------------
 .byte   W96
@  #13 @028   ----------------------------------------
 .byte   W96
@  #13 @029   ----------------------------------------
 .byte   W96
@  #13 @030   ----------------------------------------
 .byte   W96
@  #13 @031   ----------------------------------------
 .byte   W96
@  #13 @032   ----------------------------------------
 .byte   W96
@  #13 @033   ----------------------------------------
 .byte   W96
@  #13 @034   ----------------------------------------
 .byte   W96
@  #13 @035   ----------------------------------------
 .byte   W96
@  #13 @036   ----------------------------------------
 .byte   W96
@  #13 @037   ----------------------------------------
 .byte   W96
@  #13 @038   ----------------------------------------
 .byte   W96
@  #13 @039   ----------------------------------------
 .byte   W96
@  #13 @040   ----------------------------------------
 .byte   W96
@  #13 @041   ----------------------------------------
 .byte   W96
@  #13 @042   ----------------------------------------
 .byte   W96
@  #13 @043   ----------------------------------------
 .byte   W96
@  #13 @044   ----------------------------------------
 .byte   W96
@  #13 @045   ----------------------------------------
 .byte   W96
@  #13 @046   ----------------------------------------
 .byte   W96
@  #13 @047   ----------------------------------------
 .byte   W96
@  #13 @048   ----------------------------------------
 .byte   W96
@  #13 @049   ----------------------------------------
 .byte   W96
@  #13 @050   ----------------------------------------
 .byte   W96
@  #13 @051   ----------------------------------------
 .byte   W96
@  #13 @052   ----------------------------------------
 .byte   GOTO
  .word Label_015526AA
@  #13 @053   ----------------------------------------
 .byte   W96
@  #13 @054   ----------------------------------------
 .byte   W96
@  #13 @055   ----------------------------------------
 .byte   W96
@  #13 @056   ----------------------------------------
 .byte   W96
@  #13 @057   ----------------------------------------
 .byte   W96
@  #13 @058   ----------------------------------------
 .byte   W96
@  #13 @059   ----------------------------------------
 .byte   W96
@  #13 @060   ----------------------------------------
 .byte   W96
@  #13 @061   ----------------------------------------
 .byte   W96
@  #13 @062   ----------------------------------------
 .byte   W96
@  #13 @063   ----------------------------------------
 .byte   W96
@  #13 @064   ----------------------------------------
 .byte   W48
 .byte   N48 ,Cs1 ,v100
 .byte   W48
@  #13 @065   ----------------------------------------
 .byte   W96
@  #13 @066   ----------------------------------------
 .byte   W96
@  #13 @067   ----------------------------------------
 .byte   W96
@  #13 @068   ----------------------------------------
 .byte   W96
@  #13 @069   ----------------------------------------
 .byte   W96
@  #13 @070   ----------------------------------------
 .byte   W96
@  #13 @071   ----------------------------------------
 .byte   W96
@  #13 @072   ----------------------------------------
 .byte   W48
 .byte   N48
 .byte   W48
@  #13 @073   ----------------------------------------
 .byte   W96
@  #13 @074   ----------------------------------------
 .byte   W96
@  #13 @075   ----------------------------------------
 .byte   W96
@  #13 @076   ----------------------------------------
 .byte   W96
@  #13 @077   ----------------------------------------
 .byte   W96
@  #13 @078   ----------------------------------------
 .byte   W96
@  #13 @079   ----------------------------------------
 .byte   W96
@  #13 @080   ----------------------------------------
 .byte   W96
@  #13 @081   ----------------------------------------
 .byte   W96
@  #13 @082   ----------------------------------------
 .byte   W96
@  #13 @083   ----------------------------------------
 .byte   W96
@  #13 @084   ----------------------------------------
 .byte   W96
@  #13 @085   ----------------------------------------
 .byte   W96
@  #13 @086   ----------------------------------------
 .byte   W96
@  #13 @087   ----------------------------------------
 .byte   W96
@  #13 @088   ----------------------------------------
 .byte   W96
@  #13 @089   ----------------------------------------
 .byte   W96
@  #13 @090   ----------------------------------------
 .byte   W96
@  #13 @091   ----------------------------------------
 .byte   W96
@  #13 @092   ----------------------------------------
 .byte   W96
@  #13 @093   ----------------------------------------
 .byte   W96
@  #13 @094   ----------------------------------------
 .byte   W96
@  #13 @095   ----------------------------------------
 .byte   W96
@  #13 @096   ----------------------------------------
 .byte   W96
@  #13 @097   ----------------------------------------
 .byte   VOICE , 119
 .byte   PAN , c_v+0
 .byte   VOL , 40*song04_mvl/mxv
 .byte   PAN , c_v+0
 .byte   VOL , 40*song04_mvl/mxv
 .byte   PAN , c_v+0
 .byte   VOL , 40*song04_mvl/mxv
 .byte   BEND , c_v+0
 .byte   FINE

@**************** Track 14 (Midi-Chn.13) ****************@

song04_014:
@  #14 @000   ----------------------------------------
 .byte   KEYSH , song04_key+0
 .byte   VOICE , 1
 .byte   PAN , c_v+0
 .byte   VOL , 51*song04_mvl/mxv
 .byte   PAN , c_v+0
 .byte   VOL , 51*song04_mvl/mxv
 .byte   PAN , c_v+0
 .byte   VOL , 51*song04_mvl/mxv
 .byte   PAN , c_v+0
 .byte   VOL , 51*song04_mvl/mxv
 .byte   BEND , c_v+0
 .byte   W96
@  #14 @001   ----------------------------------------
 .byte   W96
@  #14 @002   ----------------------------------------
 .byte   W96
@  #14 @003   ----------------------------------------
 .byte   W96
@  #14 @004   ----------------------------------------
Label_01402BA2:
 .byte   W96
@  #14 @005   ----------------------------------------
 .byte   W96
@  #14 @006   ----------------------------------------
 .byte   W96
@  #14 @007   ----------------------------------------
 .byte   W96
@  #14 @008   ----------------------------------------
 .byte   W96
@  #14 @009   ----------------------------------------
 .byte   W96
@  #14 @010   ----------------------------------------
 .byte   W96
@  #14 @011   ----------------------------------------
 .byte   W96
@  #14 @012   ----------------------------------------
 .byte   W96
@  #14 @013   ----------------------------------------
 .byte   W96
@  #14 @014   ----------------------------------------
 .byte   W96
@  #14 @015   ----------------------------------------
 .byte   W96
@  #14 @016   ----------------------------------------
 .byte   W96
@  #14 @017   ----------------------------------------
 .byte   W96
@  #14 @018   ----------------------------------------
 .byte   W96
@  #14 @019   ----------------------------------------
 .byte   W96
@  #14 @020   ----------------------------------------
 .byte   W96
@  #14 @021   ----------------------------------------
 .byte   W96
@  #14 @022   ----------------------------------------
 .byte   W96
@  #14 @023   ----------------------------------------
 .byte   W96
@  #14 @024   ----------------------------------------
 .byte   W96
@  #14 @025   ----------------------------------------
 .byte   W96
@  #14 @026   ----------------------------------------
 .byte   W96
@  #14 @027   ----------------------------------------
 .byte   W96
@  #14 @028   ----------------------------------------
 .byte   W96
@  #14 @029   ----------------------------------------
 .byte   W96
@  #14 @030   ----------------------------------------
 .byte   W96
@  #14 @031   ----------------------------------------
 .byte   W96
@  #14 @032   ----------------------------------------
Label_01402BBE:
 .byte   N06 ,Cn1 ,v100
 .byte   W06
 .byte   N14
 .byte   W14
 .byte   N12 ,Gs0
 .byte   W12
 .byte   N10 ,Dn1
 .byte   W10
 .byte   N06 ,Bn0
 .byte   W06
 .byte   Gs0
 .byte   W06
 .byte   Bn0
 .byte   W06
 .byte   N08
 .byte   W08
 .byte   N12 ,Dn1
 .byte   W12
 .byte   N16 ,Bn0
 .byte   W16
 .byte   PEND 
@  #14 @033   ----------------------------------------
Label_01402BDA:
 .byte   N06 ,Cn1 ,v100
 .byte   W06
 .byte   N12
 .byte   W12
 .byte   Gs0
 .byte   W12
 .byte   Cn1
 .byte   W12
 .byte   Dn1
 .byte   W12
 .byte   N06 ,Cn1
 .byte   W06
 .byte   Ds1
 .byte   W06
 .byte   Cn1
 .byte   W06
 .byte   Dn1
 .byte   W06
 .byte   Cn1
 .byte   W06
 .byte   Ds1
 .byte   W06
 .byte   Fn1
 .byte   W06
 .byte   PEND 
@  #14 @034   ----------------------------------------
 .byte   PATT
  .word Label_01402BBE
@  #14 @035   ----------------------------------------
 .byte   PATT
  .word Label_01402BDA
@  #14 @036   ----------------------------------------
 .byte   PATT
  .word Label_01402BBE
@  #14 @037   ----------------------------------------
 .byte   PATT
  .word Label_01402BDA
@  #14 @038   ----------------------------------------
 .byte   PATT
  .word Label_01402BBE
@  #14 @039   ----------------------------------------
 .byte   PATT
  .word Label_01402BDA
@  #14 @040   ----------------------------------------
 .byte   W96
@  #14 @041   ----------------------------------------
 .byte   W96
@  #14 @042   ----------------------------------------
 .byte   W96
@  #14 @043   ----------------------------------------
 .byte   W96
@  #14 @044   ----------------------------------------
 .byte   W96
@  #14 @045   ----------------------------------------
 .byte   W96
@  #14 @046   ----------------------------------------
 .byte   W96
@  #14 @047   ----------------------------------------
 .byte   W96
@  #14 @048   ----------------------------------------
 .byte   W96
@  #14 @049   ----------------------------------------
 .byte   W96
@  #14 @050   ----------------------------------------
 .byte   W96
@  #14 @051   ----------------------------------------
 .byte   W96
@  #14 @052   ----------------------------------------
 .byte   GOTO
  .word Label_01402BA2
@  #14 @053   ----------------------------------------
 .byte   W96
@  #14 @054   ----------------------------------------
 .byte   W96
@  #14 @055   ----------------------------------------
 .byte   W96
@  #14 @056   ----------------------------------------
 .byte   W96
@  #14 @057   ----------------------------------------
 .byte   W96
@  #14 @058   ----------------------------------------
 .byte   W96
@  #14 @059   ----------------------------------------
 .byte   W96
@  #14 @060   ----------------------------------------
 .byte   W96
@  #14 @061   ----------------------------------------
 .byte   W96
@  #14 @062   ----------------------------------------
 .byte   W96
@  #14 @063   ----------------------------------------
 .byte   W96
@  #14 @064   ----------------------------------------
 .byte   W96
@  #14 @065   ----------------------------------------
 .byte   W96
@  #14 @066   ----------------------------------------
 .byte   W96
@  #14 @067   ----------------------------------------
 .byte   W96
@  #14 @068   ----------------------------------------
 .byte   W96
@  #14 @069   ----------------------------------------
 .byte   W96
@  #14 @070   ----------------------------------------
 .byte   W96
@  #14 @071   ----------------------------------------
 .byte   W96
@  #14 @072   ----------------------------------------
 .byte   W96
@  #14 @073   ----------------------------------------
 .byte   W96
@  #14 @074   ----------------------------------------
 .byte   W96
@  #14 @075   ----------------------------------------
 .byte   W96
@  #14 @076   ----------------------------------------
 .byte   W96
@  #14 @077   ----------------------------------------
 .byte   W96
@  #14 @078   ----------------------------------------
 .byte   W96
@  #14 @079   ----------------------------------------
 .byte   W96
@  #14 @080   ----------------------------------------
 .byte   W96
@  #14 @081   ----------------------------------------
 .byte   PATT
  .word Label_01402BBE
@  #14 @082   ----------------------------------------
 .byte   PATT
  .word Label_01402BDA
@  #14 @083   ----------------------------------------
 .byte   PATT
  .word Label_01402BBE
@  #14 @084   ----------------------------------------
 .byte   PATT
  .word Label_01402BDA
@  #14 @085   ----------------------------------------
 .byte   PATT
  .word Label_01402BBE
@  #14 @086   ----------------------------------------
 .byte   PATT
  .word Label_01402BDA
@  #14 @087   ----------------------------------------
 .byte   PATT
  .word Label_01402BBE
@  #14 @088   ----------------------------------------
 .byte   PATT
  .word Label_01402BDA
@  #14 @089   ----------------------------------------
 .byte   W96
@  #14 @090   ----------------------------------------
 .byte   W96
@  #14 @091   ----------------------------------------
 .byte   W96
@  #14 @092   ----------------------------------------
 .byte   W96
@  #14 @093   ----------------------------------------
 .byte   W96
@  #14 @094   ----------------------------------------
 .byte   W96
@  #14 @095   ----------------------------------------
 .byte   W96
@  #14 @096   ----------------------------------------
 .byte   W96
@  #14 @097   ----------------------------------------
 .byte   VOICE , 1
 .byte   PAN , c_v+0
 .byte   VOL , 51*song04_mvl/mxv
 .byte   PAN , c_v+0
 .byte   VOL , 51*song04_mvl/mxv
 .byte   PAN , c_v+0
 .byte   VOL , 51*song04_mvl/mxv
 .byte   BEND , c_v+0
 .byte   FINE

@**************** Track 15 (Midi-Chn.14) ****************@

song04_015:
@  #15 @000   ----------------------------------------
 .byte   KEYSH , song04_key+0
 .byte   VOICE , 67
 .byte   PAN , c_v+0
 .byte   VOL , 28*song04_mvl/mxv
 .byte   PAN , c_v+0
 .byte   VOL , 28*song04_mvl/mxv
 .byte   PAN , c_v+0
 .byte   VOL , 28*song04_mvl/mxv
 .byte   PAN , c_v+0
 .byte   VOL , 28*song04_mvl/mxv
 .byte   BEND , c_v+0
 .byte   W96
@  #15 @001   ----------------------------------------
 .byte   W96
@  #15 @002   ----------------------------------------
 .byte   W96
@  #15 @003   ----------------------------------------
 .byte   W96
@  #15 @004   ----------------------------------------
Label_01401936:
 .byte   W96
@  #15 @005   ----------------------------------------
 .byte   W96
@  #15 @006   ----------------------------------------
 .byte   W96
@  #15 @007   ----------------------------------------
 .byte   W96
@  #15 @008   ----------------------------------------
 .byte   W96
@  #15 @009   ----------------------------------------
 .byte   W96
@  #15 @010   ----------------------------------------
 .byte   W96
@  #15 @011   ----------------------------------------
 .byte   W96
@  #15 @012   ----------------------------------------
 .byte   W96
@  #15 @013   ----------------------------------------
 .byte   W96
@  #15 @014   ----------------------------------------
 .byte   W96
@  #15 @015   ----------------------------------------
 .byte   W96
@  #15 @016   ----------------------------------------
 .byte   W96
@  #15 @017   ----------------------------------------
 .byte   W96
@  #15 @018   ----------------------------------------
 .byte   W96
@  #15 @019   ----------------------------------------
 .byte   W96
@  #15 @020   ----------------------------------------
 .byte   W96
@  #15 @021   ----------------------------------------
 .byte   W96
@  #15 @022   ----------------------------------------
 .byte   W96
@  #15 @023   ----------------------------------------
 .byte   W96
@  #15 @024   ----------------------------------------
 .byte   W96
@  #15 @025   ----------------------------------------
 .byte   W96
@  #15 @026   ----------------------------------------
 .byte   W96
@  #15 @027   ----------------------------------------
 .byte   W96
@  #15 @028   ----------------------------------------
 .byte   W96
@  #15 @029   ----------------------------------------
 .byte   W96
@  #15 @030   ----------------------------------------
 .byte   W96
@  #15 @031   ----------------------------------------
 .byte   W96
@  #15 @032   ----------------------------------------
 .byte   W96
@  #15 @033   ----------------------------------------
 .byte   W96
@  #15 @034   ----------------------------------------
 .byte   W96
@  #15 @035   ----------------------------------------
 .byte   W48
 .byte   VOL , 28*song04_mvl/mxv
 .byte   W48
@  #15 @036   ----------------------------------------
Label_01401959:
 .byte   W48
 .byte   VOL , 0*song04_mvl/mxv
 .byte   TIE ,As2 ,v100
 .byte   W01
 .byte   VOL , 0*song04_mvl/mxv
 .byte   W01
 .byte   VOL , 1*song04_mvl/mxv
 .byte   W01
 .byte   VOL , 1*song04_mvl/mxv
 .byte   W01
 .byte   VOL , 2*song04_mvl/mxv
 .byte   W01
 .byte   VOL , 3*song04_mvl/mxv
 .byte   W01
 .byte   VOL , 4*song04_mvl/mxv
 .byte   W01
 .byte   VOL , 5*song04_mvl/mxv
 .byte   W01
 .byte   VOL , 5*song04_mvl/mxv
 .byte   W01
 .byte   VOL , 6*song04_mvl/mxv
 .byte   W01
 .byte   VOL , 7*song04_mvl/mxv
 .byte   W01
 .byte   VOL , 8*song04_mvl/mxv
 .byte   W01
 .byte   VOL , 9*song04_mvl/mxv
 .byte   W01
 .byte   VOL , 9*song04_mvl/mxv
 .byte   W01
 .byte   VOL , 10*song04_mvl/mxv
 .byte   W01
 .byte   VOL , 11*song04_mvl/mxv
 .byte   W01
 .byte   VOL , 12*song04_mvl/mxv
 .byte   W01
 .byte   VOL , 13*song04_mvl/mxv
 .byte   W01
 .byte   VOL , 14*song04_mvl/mxv
 .byte   W01
 .byte   VOL , 15*song04_mvl/mxv
 .byte   W01
 .byte   VOL , 15*song04_mvl/mxv
 .byte   W01
 .byte   VOL , 16*song04_mvl/mxv
 .byte   W01
 .byte   VOL , 17*song04_mvl/mxv
 .byte   W01
 .byte   VOL , 18*song04_mvl/mxv
 .byte   W01
 .byte   VOL , 19*song04_mvl/mxv
 .byte   W01
 .byte   VOL , 19*song04_mvl/mxv
 .byte   W01
 .byte   VOL , 20*song04_mvl/mxv
 .byte   W01
 .byte   VOL , 21*song04_mvl/mxv
 .byte   W01
 .byte   VOL , 22*song04_mvl/mxv
 .byte   W01
 .byte   VOL , 23*song04_mvl/mxv
 .byte   W01
 .byte   VOL , 23*song04_mvl/mxv
 .byte   W01
 .byte   VOL , 24*song04_mvl/mxv
 .byte   W01
 .byte   VOL , 25*song04_mvl/mxv
 .byte   W01
 .byte   VOL , 26*song04_mvl/mxv
 .byte   W01
 .byte   VOL , 27*song04_mvl/mxv
 .byte   W01
 .byte   VOL , 28*song04_mvl/mxv
 .byte   W13
 .byte   PEND 
@  #15 @037   ----------------------------------------
Label_014019A8:
 .byte   W92
 .byte   W03
 .byte   VOL , 11*song04_mvl/mxv
 .byte   W01
 .byte   PEND 
@  #15 @038   ----------------------------------------
 .byte   EOT
 .byte   As2
Label_014019B0:
 .byte   VOL , 0*song04_mvl/mxv
 .byte   W48
 .byte   VOL , 0*song04_mvl/mxv
 .byte   TIE ,As2 ,v100
 .byte   W01
 .byte   VOL , 0*song04_mvl/mxv
 .byte   W01
 .byte   VOL , 1*song04_mvl/mxv
 .byte   W01
 .byte   VOL , 1*song04_mvl/mxv
 .byte   W01
 .byte   VOL , 2*song04_mvl/mxv
 .byte   W01
 .byte   VOL , 3*song04_mvl/mxv
 .byte   W01
 .byte   VOL , 4*song04_mvl/mxv
 .byte   W01
 .byte   VOL , 5*song04_mvl/mxv
 .byte   W01
 .byte   VOL , 5*song04_mvl/mxv
 .byte   W01
 .byte   VOL , 6*song04_mvl/mxv
 .byte   W01
 .byte   VOL , 7*song04_mvl/mxv
 .byte   W01
 .byte   VOL , 8*song04_mvl/mxv
 .byte   W01
 .byte   VOL , 9*song04_mvl/mxv
 .byte   W01
 .byte   VOL , 9*song04_mvl/mxv
 .byte   W01
 .byte   VOL , 10*song04_mvl/mxv
 .byte   W01
 .byte   VOL , 11*song04_mvl/mxv
 .byte   W01
 .byte   VOL , 12*song04_mvl/mxv
 .byte   W01
 .byte   VOL , 13*song04_mvl/mxv
 .byte   W01
 .byte   VOL , 14*song04_mvl/mxv
 .byte   W01
 .byte   VOL , 15*song04_mvl/mxv
 .byte   W01
 .byte   VOL , 15*song04_mvl/mxv
 .byte   W01
 .byte   VOL , 16*song04_mvl/mxv
 .byte   W01
 .byte   VOL , 17*song04_mvl/mxv
 .byte   W01
 .byte   VOL , 18*song04_mvl/mxv
 .byte   W01
 .byte   VOL , 19*song04_mvl/mxv
 .byte   W01
 .byte   VOL , 19*song04_mvl/mxv
 .byte   W01
 .byte   VOL , 20*song04_mvl/mxv
 .byte   W01
 .byte   VOL , 21*song04_mvl/mxv
 .byte   W01
 .byte   VOL , 22*song04_mvl/mxv
 .byte   W01
 .byte   VOL , 23*song04_mvl/mxv
 .byte   W01
 .byte   VOL , 23*song04_mvl/mxv
 .byte   W01
 .byte   VOL , 24*song04_mvl/mxv
 .byte   W01
 .byte   VOL , 25*song04_mvl/mxv
 .byte   W01
 .byte   VOL , 26*song04_mvl/mxv
 .byte   W01
 .byte   VOL , 27*song04_mvl/mxv
 .byte   W01
 .byte   VOL , 28*song04_mvl/mxv
 .byte   W13
 .byte   PEND 
@  #15 @039   ----------------------------------------
Label_01401A00:
 .byte   W92
 .byte   W03
 .byte   VOL , 7*song04_mvl/mxv
 .byte   W01
 .byte   PEND 
@  #15 @040   ----------------------------------------
 .byte   EOT
 .byte   As2
@  #15 @041   ----------------------------------------
 .byte   PATT
  .word Label_014019B0
@  #15 @042   ----------------------------------------
Label_01401A0D:
 .byte   W92
 .byte   W03
 .byte   VOL , 11*song04_mvl/mxv
 .byte   W01
 .byte   PEND 
@  #15 @043   ----------------------------------------
 .byte   EOT
 .byte   As2
Label_01401A15:
 .byte   VOL , 28*song04_mvl/mxv
 .byte   W48
 .byte   VOL , 0*song04_mvl/mxv
 .byte   TIE ,As2 ,v100
 .byte   TIE ,Fn3
 .byte   W01
 .byte   VOL , 0*song04_mvl/mxv
 .byte   W01
 .byte   VOL , 1*song04_mvl/mxv
 .byte   W01
 .byte   VOL , 1*song04_mvl/mxv
 .byte   W01
 .byte   VOL , 2*song04_mvl/mxv
 .byte   W01
 .byte   VOL , 3*song04_mvl/mxv
 .byte   W01
 .byte   VOL , 4*song04_mvl/mxv
 .byte   W01
 .byte   VOL , 5*song04_mvl/mxv
 .byte   W01
 .byte   VOL , 5*song04_mvl/mxv
 .byte   W01
 .byte   VOL , 6*song04_mvl/mxv
 .byte   W01
 .byte   VOL , 7*song04_mvl/mxv
 .byte   W01
 .byte   VOL , 8*song04_mvl/mxv
 .byte   W01
 .byte   VOL , 9*song04_mvl/mxv
 .byte   W01
 .byte   VOL , 9*song04_mvl/mxv
 .byte   W01
 .byte   VOL , 10*song04_mvl/mxv
 .byte   W01
 .byte   VOL , 11*song04_mvl/mxv
 .byte   W01
 .byte   VOL , 12*song04_mvl/mxv
 .byte   W01
 .byte   VOL , 13*song04_mvl/mxv
 .byte   W01
 .byte   VOL , 14*song04_mvl/mxv
 .byte   W01
 .byte   VOL , 15*song04_mvl/mxv
 .byte   W01
 .byte   VOL , 15*song04_mvl/mxv
 .byte   W01
 .byte   VOL , 16*song04_mvl/mxv
 .byte   W01
 .byte   VOL , 17*song04_mvl/mxv
 .byte   W01
 .byte   VOL , 18*song04_mvl/mxv
 .byte   W01
 .byte   VOL , 19*song04_mvl/mxv
 .byte   W01
 .byte   VOL , 19*song04_mvl/mxv
 .byte   W01
 .byte   VOL , 20*song04_mvl/mxv
 .byte   W01
 .byte   VOL , 21*song04_mvl/mxv
 .byte   W01
 .byte   VOL , 22*song04_mvl/mxv
 .byte   W01
 .byte   VOL , 23*song04_mvl/mxv
 .byte   W01
 .byte   VOL , 23*song04_mvl/mxv
 .byte   W01
 .byte   VOL , 24*song04_mvl/mxv
 .byte   W01
 .byte   VOL , 25*song04_mvl/mxv
 .byte   W01
 .byte   VOL , 26*song04_mvl/mxv
 .byte   W01
 .byte   VOL , 27*song04_mvl/mxv
 .byte   W01
 .byte   VOL , 28*song04_mvl/mxv
 .byte   W13
 .byte   PEND 
@  #15 @044   ----------------------------------------
 .byte   W96
@  #15 @045   ----------------------------------------
 .byte   EOT
 .byte   As2 ,v065
Label_01401A6B:
 .byte   VOL , 0*song04_mvl/mxv
 .byte   W48
 .byte   VOL , 0*song04_mvl/mxv
 .byte   TIE ,As2 ,v100
 .byte   TIE ,Fn3
 .byte   W01
 .byte   VOL , 0*song04_mvl/mxv
 .byte   W01
 .byte   VOL , 1*song04_mvl/mxv
 .byte   W01
 .byte   VOL , 1*song04_mvl/mxv
 .byte   W01
 .byte   VOL , 2*song04_mvl/mxv
 .byte   W01
 .byte   VOL , 3*song04_mvl/mxv
 .byte   W01
 .byte   VOL , 4*song04_mvl/mxv
 .byte   W01
 .byte   VOL , 5*song04_mvl/mxv
 .byte   W01
 .byte   VOL , 5*song04_mvl/mxv
 .byte   W01
 .byte   VOL , 6*song04_mvl/mxv
 .byte   W01
 .byte   VOL , 7*song04_mvl/mxv
 .byte   W01
 .byte   VOL , 8*song04_mvl/mxv
 .byte   W01
 .byte   VOL , 9*song04_mvl/mxv
 .byte   W01
 .byte   VOL , 9*song04_mvl/mxv
 .byte   W01
 .byte   VOL , 10*song04_mvl/mxv
 .byte   W01
 .byte   VOL , 11*song04_mvl/mxv
 .byte   W01
 .byte   VOL , 12*song04_mvl/mxv
 .byte   W01
 .byte   VOL , 13*song04_mvl/mxv
 .byte   W01
 .byte   VOL , 14*song04_mvl/mxv
 .byte   W01
 .byte   VOL , 15*song04_mvl/mxv
 .byte   W01
 .byte   VOL , 15*song04_mvl/mxv
 .byte   W01
 .byte   VOL , 16*song04_mvl/mxv
 .byte   W01
 .byte   VOL , 17*song04_mvl/mxv
 .byte   W01
 .byte   VOL , 18*song04_mvl/mxv
 .byte   W01
 .byte   VOL , 19*song04_mvl/mxv
 .byte   W01
 .byte   VOL , 19*song04_mvl/mxv
 .byte   W01
 .byte   VOL , 20*song04_mvl/mxv
 .byte   W01
 .byte   VOL , 21*song04_mvl/mxv
 .byte   W01
 .byte   VOL , 22*song04_mvl/mxv
 .byte   W01
 .byte   VOL , 23*song04_mvl/mxv
 .byte   W01
 .byte   VOL , 23*song04_mvl/mxv
 .byte   W01
 .byte   VOL , 24*song04_mvl/mxv
 .byte   W01
 .byte   VOL , 25*song04_mvl/mxv
 .byte   W01
 .byte   VOL , 26*song04_mvl/mxv
 .byte   W01
 .byte   VOL , 27*song04_mvl/mxv
 .byte   W01
 .byte   VOL , 28*song04_mvl/mxv
 .byte   W13
 .byte   PEND 
@  #15 @046   ----------------------------------------
Label_01401ABD:
 .byte   W92
 .byte   W03
 .byte   VOL , 23*song04_mvl/mxv
 .byte   W01
 .byte   PEND 
@  #15 @047   ----------------------------------------
 .byte   EOT
 .byte   As2 ,v065
@  #15 @048   ----------------------------------------
 .byte   PATT
  .word Label_01401A6B
@  #15 @049   ----------------------------------------
Label_01401ACB:
 .byte   W92
 .byte   W03
 .byte   VOL , 22*song04_mvl/mxv
 .byte   W01
 .byte   PEND 
@  #15 @050   ----------------------------------------
 .byte   EOT
 .byte   As2 ,v065
 .byte   VOL , 28*song04_mvl/mxv
 .byte   W96
@  #15 @051   ----------------------------------------
 .byte   W96
@  #15 @052   ----------------------------------------
 .byte   W96
@  #15 @053   ----------------------------------------
 .byte   W96
@  #15 @054   ----------------------------------------
 .byte   GOTO
  .word Label_01401936
@  #15 @055   ----------------------------------------
 .byte   W96
@  #15 @056   ----------------------------------------
 .byte   W96
@  #15 @057   ----------------------------------------
 .byte   W96
@  #15 @058   ----------------------------------------
 .byte   W96
@  #15 @059   ----------------------------------------
 .byte   W96
@  #15 @060   ----------------------------------------
 .byte   W96
@  #15 @061   ----------------------------------------
 .byte   W96
@  #15 @062   ----------------------------------------
 .byte   W96
@  #15 @063   ----------------------------------------
 .byte   W96
@  #15 @064   ----------------------------------------
 .byte   W96
@  #15 @065   ----------------------------------------
 .byte   W96
@  #15 @066   ----------------------------------------
 .byte   W96
@  #15 @067   ----------------------------------------
 .byte   W96
@  #15 @068   ----------------------------------------
 .byte   W96
@  #15 @069   ----------------------------------------
 .byte   W96
@  #15 @070   ----------------------------------------
 .byte   W96
@  #15 @071   ----------------------------------------
 .byte   W96
@  #15 @072   ----------------------------------------
 .byte   W96
@  #15 @073   ----------------------------------------
 .byte   W96
@  #15 @074   ----------------------------------------
 .byte   W96
@  #15 @075   ----------------------------------------
 .byte   W96
@  #15 @076   ----------------------------------------
 .byte   W96
@  #15 @077   ----------------------------------------
 .byte   W96
@  #15 @078   ----------------------------------------
 .byte   W96
@  #15 @079   ----------------------------------------
 .byte   W96
@  #15 @080   ----------------------------------------
 .byte   W96
@  #15 @081   ----------------------------------------
 .byte   W96
@  #15 @082   ----------------------------------------
 .byte   W96
@  #15 @083   ----------------------------------------
 .byte   W96
@  #15 @084   ----------------------------------------
 .byte   W96
@  #15 @085   ----------------------------------------
 .byte   W96
@  #15 @086   ----------------------------------------
 .byte   W48
 .byte   VOL , 28*song04_mvl/mxv
 .byte   W48
@  #15 @087   ----------------------------------------
 .byte   PATT
  .word Label_01401959
@  #15 @088   ----------------------------------------
 .byte   PATT
  .word Label_014019A8
@  #15 @089   ----------------------------------------
 .byte   EOT
 .byte   As2
@  #15 @090   ----------------------------------------
 .byte   PATT
  .word Label_014019B0
@  #15 @091   ----------------------------------------
 .byte   PATT
  .word Label_01401A00
@  #15 @092   ----------------------------------------
 .byte   EOT
 .byte   As2
@  #15 @093   ----------------------------------------
 .byte   PATT
  .word Label_014019B0
@  #15 @094   ----------------------------------------
 .byte   PATT
  .word Label_01401A0D
@  #15 @095   ----------------------------------------
 .byte   EOT
 .byte   As2
@  #15 @096   ----------------------------------------
 .byte   PATT
  .word Label_01401A15
@  #15 @097   ----------------------------------------
 .byte   W96
@  #15 @098   ----------------------------------------
 .byte   EOT
 .byte   As2 ,v065
@  #15 @099   ----------------------------------------
 .byte   PATT
  .word Label_01401A6B
@  #15 @100   ----------------------------------------
 .byte   PATT
  .word Label_01401ABD
@  #15 @101   ----------------------------------------
 .byte   EOT
 .byte   As2 ,v065
@  #15 @102   ----------------------------------------
 .byte   PATT
  .word Label_01401A6B
@  #15 @103   ----------------------------------------
 .byte   PATT
  .word Label_01401ACB
@  #15 @104   ----------------------------------------
 .byte   EOT
 .byte   As2 ,v065
 .byte   VOICE , 67
 .byte   PAN , c_v+0
 .byte   VOL , 22*song04_mvl/mxv
 .byte   PAN , c_v+0
 .byte   VOL , 22*song04_mvl/mxv
 .byte   PAN , c_v+0
 .byte   VOL , 22*song04_mvl/mxv
 .byte   BEND , c_v+0
 .byte   FINE

@**************** Track 16 (Midi-Chn.15) ****************@

song04_016:
@  #16 @000   ----------------------------------------
 .byte   KEYSH , song04_key+0
 .byte   VOICE , 67
 .byte   PAN , c_v+0
 .byte   VOL , 28*song04_mvl/mxv
 .byte   PAN , c_v+0
 .byte   VOL , 28*song04_mvl/mxv
 .byte   PAN , c_v+0
 .byte   VOL , 28*song04_mvl/mxv
 .byte   PAN , c_v+0
 .byte   VOL , 28*song04_mvl/mxv
 .byte   BEND , c_v+0
 .byte   W01
 .byte   VOL , 28*song04_mvl/mxv
 .byte   W01
 .byte   VOL , 28*song04_mvl/mxv
 .byte   W01
 .byte   VOL , 28*song04_mvl/mxv
 .byte   W01
 .byte   VOL , 28*song04_mvl/mxv
 .byte   W01
 .byte   VOL , 28*song04_mvl/mxv
 .byte   W01
 .byte   VOL , 28*song04_mvl/mxv
 .byte   W01
 .byte   VOL , 28*song04_mvl/mxv
 .byte   W01
 .byte   VOL , 28*song04_mvl/mxv
 .byte   W01
 .byte   VOL , 28*song04_mvl/mxv
 .byte   W01
 .byte   VOL , 28*song04_mvl/mxv
 .byte   W01
 .byte   VOL , 28*song04_mvl/mxv
 .byte   W01
 .byte   VOL , 28*song04_mvl/mxv
 .byte   W01
 .byte   VOL , 28*song04_mvl/mxv
 .byte   W01
 .byte   VOL , 28*song04_mvl/mxv
 .byte   W01
 .byte   VOL , 28*song04_mvl/mxv
 .byte   W01
 .byte   VOL , 28*song04_mvl/mxv
 .byte   W01
 .byte   VOL , 28*song04_mvl/mxv
 .byte   W01
 .byte   VOL , 28*song04_mvl/mxv
 .byte   W01
 .byte   VOL , 28*song04_mvl/mxv
 .byte   W01
 .byte   VOL , 28*song04_mvl/mxv
 .byte   W01
 .byte   VOL , 28*song04_mvl/mxv
 .byte   W01
 .byte   VOL , 28*song04_mvl/mxv
 .byte   W01
 .byte   VOL , 28*song04_mvl/mxv
 .byte   W01
 .byte   VOL , 28*song04_mvl/mxv
 .byte   W01
 .byte   VOL , 28*song04_mvl/mxv
 .byte   W01
 .byte   VOL , 28*song04_mvl/mxv
 .byte   W01
 .byte   VOL , 28*song04_mvl/mxv
 .byte   W01
 .byte   VOL , 28*song04_mvl/mxv
 .byte   W01
 .byte   VOL , 28*song04_mvl/mxv
 .byte   W01
 .byte   VOL , 29*song04_mvl/mxv
 .byte   W01
 .byte   VOL , 29*song04_mvl/mxv
 .byte   W01
 .byte   VOL , 29*song04_mvl/mxv
 .byte   W01
 .byte   VOL , 29*song04_mvl/mxv
 .byte   W01
 .byte   VOL , 29*song04_mvl/mxv
 .byte   W01
 .byte   VOL , 29*song04_mvl/mxv
 .byte   W01
 .byte   VOL , 29*song04_mvl/mxv
 .byte   W01
 .byte   VOL , 29*song04_mvl/mxv
 .byte   W01
 .byte   VOL , 29*song04_mvl/mxv
 .byte   W01
 .byte   VOL , 29*song04_mvl/mxv
 .byte   W01
 .byte   VOL , 29*song04_mvl/mxv
 .byte   W01
 .byte   VOL , 29*song04_mvl/mxv
 .byte   W01
 .byte   VOL , 29*song04_mvl/mxv
 .byte   W01
 .byte   VOL , 29*song04_mvl/mxv
 .byte   W01
 .byte   VOL , 29*song04_mvl/mxv
 .byte   W01
 .byte   VOL , 29*song04_mvl/mxv
 .byte   W01
 .byte   VOL , 29*song04_mvl/mxv
 .byte   W01
 .byte   VOL , 29*song04_mvl/mxv
 .byte   W48
 .byte   W01
@  #16 @001   ----------------------------------------
 .byte   W96
@  #16 @002   ----------------------------------------
 .byte   W96
@  #16 @003   ----------------------------------------
 .byte   W96
@  #16 @004   ----------------------------------------
Label_01402F5E:
 .byte   W96
@  #16 @005   ----------------------------------------
 .byte   W96
@  #16 @006   ----------------------------------------
 .byte   W96
@  #16 @007   ----------------------------------------
 .byte   W96
@  #16 @008   ----------------------------------------
 .byte   W96
@  #16 @009   ----------------------------------------
 .byte   W96
@  #16 @010   ----------------------------------------
 .byte   W96
@  #16 @011   ----------------------------------------
 .byte   W96
@  #16 @012   ----------------------------------------
 .byte   W96
@  #16 @013   ----------------------------------------
 .byte   W96
@  #16 @014   ----------------------------------------
 .byte   W96
@  #16 @015   ----------------------------------------
 .byte   W96
@  #16 @016   ----------------------------------------
 .byte   W96
@  #16 @017   ----------------------------------------
 .byte   W96
@  #16 @018   ----------------------------------------
 .byte   W96
@  #16 @019   ----------------------------------------
 .byte   W96
@  #16 @020   ----------------------------------------
 .byte   W96
@  #16 @021   ----------------------------------------
 .byte   W96
@  #16 @022   ----------------------------------------
 .byte   W96
@  #16 @023   ----------------------------------------
 .byte   W96
@  #16 @024   ----------------------------------------
 .byte   W96
@  #16 @025   ----------------------------------------
 .byte   W96
@  #16 @026   ----------------------------------------
 .byte   W96
@  #16 @027   ----------------------------------------
 .byte   W96
@  #16 @028   ----------------------------------------
 .byte   W96
@  #16 @029   ----------------------------------------
 .byte   W96
@  #16 @030   ----------------------------------------
 .byte   W96
@  #16 @031   ----------------------------------------
 .byte   W96
@  #16 @032   ----------------------------------------
 .byte   W96
@  #16 @033   ----------------------------------------
 .byte   W96
@  #16 @034   ----------------------------------------
 .byte   W96
@  #16 @035   ----------------------------------------
 .byte   W48
 .byte   VOL , 29*song04_mvl/mxv
 .byte   W48
@  #16 @036   ----------------------------------------
Label_01402F81:
 .byte   W92
 .byte   W03
 .byte   VOL , 6*song04_mvl/mxv
 .byte   W01
 .byte   PEND 
@  #16 @037   ----------------------------------------
Label_01402F87:
 .byte   VOL , 0*song04_mvl/mxv
 .byte   N96 ,Ds3 ,v100
 .byte   W01
 .byte   VOL , 2*song04_mvl/mxv
 .byte   W01
 .byte   VOL , 3*song04_mvl/mxv
 .byte   W01
 .byte   VOL , 4*song04_mvl/mxv
 .byte   W01
 .byte   VOL , 5*song04_mvl/mxv
 .byte   W01
 .byte   VOL , 6*song04_mvl/mxv
 .byte   W01
 .byte   VOL , 8*song04_mvl/mxv
 .byte   W01
 .byte   VOL , 9*song04_mvl/mxv
 .byte   W01
 .byte   VOL , 10*song04_mvl/mxv
 .byte   W01
 .byte   VOL , 11*song04_mvl/mxv
 .byte   W01
 .byte   VOL , 13*song04_mvl/mxv
 .byte   W01
 .byte   VOL , 14*song04_mvl/mxv
 .byte   W01
 .byte   VOL , 15*song04_mvl/mxv
 .byte   W01
 .byte   VOL , 16*song04_mvl/mxv
 .byte   W01
 .byte   VOL , 18*song04_mvl/mxv
 .byte   W01
 .byte   VOL , 19*song04_mvl/mxv
 .byte   W01
 .byte   VOL , 20*song04_mvl/mxv
 .byte   W01
 .byte   VOL , 21*song04_mvl/mxv
 .byte   W01
 .byte   VOL , 22*song04_mvl/mxv
 .byte   W01
 .byte   VOL , 24*song04_mvl/mxv
 .byte   W01
 .byte   VOL , 25*song04_mvl/mxv
 .byte   W01
 .byte   VOL , 26*song04_mvl/mxv
 .byte   W01
 .byte   VOL , 27*song04_mvl/mxv
 .byte   W01
 .byte   VOL , 29*song04_mvl/mxv
 .byte   W72
 .byte   W01
 .byte   PEND 
@  #16 @038   ----------------------------------------
Label_01402FBE:
 .byte   W92
 .byte   W03
 .byte   VOL , 0*song04_mvl/mxv
 .byte   W01
 .byte   PEND 
@  #16 @039   ----------------------------------------
 .byte   PATT
  .word Label_01402F87
@  #16 @040   ----------------------------------------
Label_01402FC9:
 .byte   W92
 .byte   W03
 .byte   VOL , 5*song04_mvl/mxv
 .byte   W01
 .byte   PEND 
@  #16 @041   ----------------------------------------
Label_01402FCF:
 .byte   VOL , 0*song04_mvl/mxv
 .byte   N96 ,Ds3 ,v100
 .byte   W01
 .byte   VOL , 2*song04_mvl/mxv
 .byte   W01
 .byte   VOL , 3*song04_mvl/mxv
 .byte   W01
 .byte   VOL , 4*song04_mvl/mxv
 .byte   W01
 .byte   VOL , 5*song04_mvl/mxv
 .byte   W01
 .byte   VOL , 6*song04_mvl/mxv
 .byte   W01
 .byte   VOL , 8*song04_mvl/mxv
 .byte   W01
 .byte   VOL , 9*song04_mvl/mxv
 .byte   W01
 .byte   VOL , 10*song04_mvl/mxv
 .byte   W01
 .byte   VOL , 11*song04_mvl/mxv
 .byte   W01
 .byte   VOL , 13*song04_mvl/mxv
 .byte   W01
 .byte   VOL , 14*song04_mvl/mxv
 .byte   W01
 .byte   VOL , 15*song04_mvl/mxv
 .byte   W01
 .byte   VOL , 16*song04_mvl/mxv
 .byte   W01
 .byte   VOL , 18*song04_mvl/mxv
 .byte   W01
 .byte   VOL , 19*song04_mvl/mxv
 .byte   W01
 .byte   VOL , 20*song04_mvl/mxv
 .byte   W01
 .byte   VOL , 21*song04_mvl/mxv
 .byte   W01
 .byte   VOL , 22*song04_mvl/mxv
 .byte   W01
 .byte   VOL , 24*song04_mvl/mxv
 .byte   W01
 .byte   VOL , 25*song04_mvl/mxv
 .byte   W01
 .byte   VOL , 26*song04_mvl/mxv
 .byte   W01
 .byte   VOL , 27*song04_mvl/mxv
 .byte   W01
 .byte   VOL , 29*song04_mvl/mxv
 .byte   W02
 .byte   VOL , 29*song04_mvl/mxv
 .byte   W03
 .byte   VOL , 29*song04_mvl/mxv
 .byte   W02
 .byte   VOL , 29*song04_mvl/mxv
 .byte   W03
 .byte   VOL , 29*song04_mvl/mxv
 .byte   W03
 .byte   VOL , 29*song04_mvl/mxv
 .byte   W03
 .byte   VOL , 29*song04_mvl/mxv
 .byte   W03
 .byte   VOL , 29*song04_mvl/mxv
 .byte   W02
 .byte   VOL , 29*song04_mvl/mxv
 .byte   W03
 .byte   VOL , 29*song04_mvl/mxv
 .byte   W03
 .byte   VOL , 29*song04_mvl/mxv
 .byte   W03
 .byte   VOL , 29*song04_mvl/mxv
 .byte   W03
 .byte   VOL , 29*song04_mvl/mxv
 .byte   W02
 .byte   VOL , 29*song04_mvl/mxv
 .byte   W03
 .byte   VOL , 29*song04_mvl/mxv
 .byte   W03
 .byte   VOL , 29*song04_mvl/mxv
 .byte   W03
 .byte   VOL , 29*song04_mvl/mxv
 .byte   W03
 .byte   VOL , 29*song04_mvl/mxv
 .byte   W02
 .byte   VOL , 29*song04_mvl/mxv
 .byte   W03
 .byte   VOL , 29*song04_mvl/mxv
 .byte   W03
 .byte   VOL , 29*song04_mvl/mxv
 .byte   W03
 .byte   VOL , 29*song04_mvl/mxv
 .byte   W03
 .byte   VOL , 29*song04_mvl/mxv
 .byte   W02
 .byte   VOL , 29*song04_mvl/mxv
 .byte   W03
 .byte   VOL , 29*song04_mvl/mxv
 .byte   W03
 .byte   VOL , 29*song04_mvl/mxv
 .byte   W03
 .byte   VOL , 29*song04_mvl/mxv
 .byte   W01
 .byte   PEND 
@  #16 @042   ----------------------------------------
Label_01403039:
 .byte   VOL , 29*song04_mvl/mxv
 .byte   W92
 .byte   W03
 .byte   VOL , 14*song04_mvl/mxv
 .byte   W01
 .byte   PEND 
@  #16 @043   ----------------------------------------
Label_01403040:
 .byte   VOL , 0*song04_mvl/mxv
 .byte   N96 ,Ds3 ,v100
 .byte   N96 ,Gn3
 .byte   W01
 .byte   VOL , 2*song04_mvl/mxv
 .byte   W01
 .byte   VOL , 3*song04_mvl/mxv
 .byte   W01
 .byte   VOL , 4*song04_mvl/mxv
 .byte   W01
 .byte   VOL , 5*song04_mvl/mxv
 .byte   W01
 .byte   VOL , 6*song04_mvl/mxv
 .byte   W01
 .byte   VOL , 8*song04_mvl/mxv
 .byte   W01
 .byte   VOL , 9*song04_mvl/mxv
 .byte   W01
 .byte   VOL , 10*song04_mvl/mxv
 .byte   W01
 .byte   VOL , 11*song04_mvl/mxv
 .byte   W01
 .byte   VOL , 13*song04_mvl/mxv
 .byte   W01
 .byte   VOL , 14*song04_mvl/mxv
 .byte   W01
 .byte   VOL , 15*song04_mvl/mxv
 .byte   W01
 .byte   VOL , 16*song04_mvl/mxv
 .byte   W01
 .byte   VOL , 18*song04_mvl/mxv
 .byte   W01
 .byte   VOL , 19*song04_mvl/mxv
 .byte   W01
 .byte   VOL , 20*song04_mvl/mxv
 .byte   W01
 .byte   VOL , 21*song04_mvl/mxv
 .byte   W01
 .byte   VOL , 22*song04_mvl/mxv
 .byte   W01
 .byte   VOL , 24*song04_mvl/mxv
 .byte   W01
 .byte   VOL , 25*song04_mvl/mxv
 .byte   W01
 .byte   VOL , 26*song04_mvl/mxv
 .byte   W01
 .byte   VOL , 27*song04_mvl/mxv
 .byte   W01
 .byte   VOL , 29*song04_mvl/mxv
 .byte   W72
 .byte   W01
 .byte   PEND 
@  #16 @044   ----------------------------------------
 .byte   PATT
  .word Label_01402FBE
@  #16 @045   ----------------------------------------
 .byte   PATT
  .word Label_01403040
@  #16 @046   ----------------------------------------
Label_01403083:
 .byte   W92
 .byte   W03
 .byte   VOL , 13*song04_mvl/mxv
 .byte   W01
 .byte   PEND 
@  #16 @047   ----------------------------------------
Label_01403089:
 .byte   VOL , 0*song04_mvl/mxv
 .byte   N96 ,Ds3 ,v100
 .byte   N96 ,Gn3
 .byte   W01
 .byte   VOL , 2*song04_mvl/mxv
 .byte   W01
 .byte   VOL , 3*song04_mvl/mxv
 .byte   W01
 .byte   VOL , 4*song04_mvl/mxv
 .byte   W01
 .byte   VOL , 5*song04_mvl/mxv
 .byte   W01
 .byte   VOL , 6*song04_mvl/mxv
 .byte   W01
 .byte   VOL , 8*song04_mvl/mxv
 .byte   W01
 .byte   VOL , 9*song04_mvl/mxv
 .byte   W01
 .byte   VOL , 10*song04_mvl/mxv
 .byte   W01
 .byte   VOL , 11*song04_mvl/mxv
 .byte   W01
 .byte   VOL , 13*song04_mvl/mxv
 .byte   W01
 .byte   VOL , 14*song04_mvl/mxv
 .byte   W01
 .byte   VOL , 15*song04_mvl/mxv
 .byte   W01
 .byte   VOL , 16*song04_mvl/mxv
 .byte   W01
 .byte   VOL , 18*song04_mvl/mxv
 .byte   W01
 .byte   VOL , 19*song04_mvl/mxv
 .byte   W01
 .byte   VOL , 20*song04_mvl/mxv
 .byte   W01
 .byte   VOL , 21*song04_mvl/mxv
 .byte   W01
 .byte   VOL , 22*song04_mvl/mxv
 .byte   W01
 .byte   VOL , 24*song04_mvl/mxv
 .byte   W01
 .byte   VOL , 25*song04_mvl/mxv
 .byte   W01
 .byte   VOL , 26*song04_mvl/mxv
 .byte   W01
 .byte   VOL , 27*song04_mvl/mxv
 .byte   W01
 .byte   VOL , 29*song04_mvl/mxv
 .byte   W02
 .byte   VOL , 29*song04_mvl/mxv
 .byte   W03
 .byte   VOL , 29*song04_mvl/mxv
 .byte   W02
 .byte   VOL , 29*song04_mvl/mxv
 .byte   W03
 .byte   VOL , 29*song04_mvl/mxv
 .byte   W03
 .byte   VOL , 29*song04_mvl/mxv
 .byte   W03
 .byte   VOL , 29*song04_mvl/mxv
 .byte   W03
 .byte   VOL , 29*song04_mvl/mxv
 .byte   W02
 .byte   VOL , 29*song04_mvl/mxv
 .byte   W03
 .byte   VOL , 29*song04_mvl/mxv
 .byte   W03
 .byte   VOL , 29*song04_mvl/mxv
 .byte   W03
 .byte   VOL , 29*song04_mvl/mxv
 .byte   W03
 .byte   VOL , 29*song04_mvl/mxv
 .byte   W02
 .byte   VOL , 29*song04_mvl/mxv
 .byte   W03
 .byte   VOL , 29*song04_mvl/mxv
 .byte   W03
 .byte   VOL , 29*song04_mvl/mxv
 .byte   W03
 .byte   VOL , 29*song04_mvl/mxv
 .byte   W03
 .byte   VOL , 29*song04_mvl/mxv
 .byte   W02
 .byte   VOL , 29*song04_mvl/mxv
 .byte   W03
 .byte   VOL , 29*song04_mvl/mxv
 .byte   W03
 .byte   VOL , 29*song04_mvl/mxv
 .byte   W03
 .byte   VOL , 29*song04_mvl/mxv
 .byte   W03
 .byte   VOL , 29*song04_mvl/mxv
 .byte   W02
 .byte   VOL , 29*song04_mvl/mxv
 .byte   W03
 .byte   VOL , 29*song04_mvl/mxv
 .byte   W03
 .byte   VOL , 29*song04_mvl/mxv
 .byte   W03
 .byte   VOL , 29*song04_mvl/mxv
 .byte   W01
 .byte   PEND 
@  #16 @048   ----------------------------------------
 .byte   Dn2
 .byte   W01
 .byte   Dn2
 .byte   W01
 .byte   Dn2
 .byte   W01
 .byte   Dn2
 .byte   W01
 .byte   Dn2
 .byte   W01
 .byte   Dn2
 .byte   W01
 .byte   Dn2
 .byte   W01
 .byte   Dn2
 .byte   W01
 .byte   Dn2
 .byte   W01
 .byte   Dn2
 .byte   W01
 .byte   Dn2
 .byte   W01
 .byte   Dn2
 .byte   W01
 .byte   Dn2
 .byte   W01
 .byte   Dn2
 .byte   W01
 .byte   Dn2
 .byte   W01
 .byte   Dn2
 .byte   W01
 .byte   Dn2
 .byte   W01
 .byte   Dn2
 .byte   W01
 .byte   Dn2
 .byte   W01
 .byte   Dn2
 .byte   W01
 .byte   Dn2
 .byte   W01
 .byte   Dn2
 .byte   W01
 .byte   Dn2
 .byte   W01
 .byte   Dn2
 .byte   W01
 .byte   Dn2
 .byte   W01
 .byte   Dn2
 .byte   W01
 .byte   Dn2
 .byte   W01
 .byte   Dn2
 .byte   W01
 .byte   Dn2
 .byte   W01
 .byte   Dn2
 .byte   W01
 .byte   Ds2
 .byte   W01
 .byte   Ds2
 .byte   W01
 .byte   Ds2
 .byte   W01
 .byte   Ds2
 .byte   W01
 .byte   Ds2
 .byte   W01
 .byte   Ds2
 .byte   W01
 .byte   Ds2
 .byte   W01
 .byte   Ds2
 .byte   W01
 .byte   Ds2
 .byte   W01
 .byte   Ds2
 .byte   W01
 .byte   Ds2
 .byte   W01
 .byte   Ds2
 .byte   W01
 .byte   Ds2
 .byte   W01
 .byte   Ds2
 .byte   W01
 .byte   Ds2
 .byte   W01
 .byte   Ds2
 .byte   W01
 .byte   Ds2
 .byte   W01
 .byte   Ds2
 .byte   W48
 .byte   W01
@  #16 @049   ----------------------------------------
 .byte   W96
@  #16 @050   ----------------------------------------
 .byte   W96
@  #16 @051   ----------------------------------------
 .byte   W96
@  #16 @052   ----------------------------------------
 .byte   GOTO
  .word Label_01402F5E
@  #16 @053   ----------------------------------------
 .byte   W96
@  #16 @054   ----------------------------------------
 .byte   W96
@  #16 @055   ----------------------------------------
 .byte   W96
@  #16 @056   ----------------------------------------
 .byte   W96
@  #16 @057   ----------------------------------------
 .byte   W96
@  #16 @058   ----------------------------------------
 .byte   W96
@  #16 @059   ----------------------------------------
 .byte   W96
@  #16 @060   ----------------------------------------
 .byte   W96
@  #16 @061   ----------------------------------------
 .byte   W96
@  #16 @062   ----------------------------------------
 .byte   W96
@  #16 @063   ----------------------------------------
 .byte   W96
@  #16 @064   ----------------------------------------
 .byte   W96
@  #16 @065   ----------------------------------------
 .byte   W96
@  #16 @066   ----------------------------------------
 .byte   W96
@  #16 @067   ----------------------------------------
 .byte   W96
@  #16 @068   ----------------------------------------
 .byte   W96
@  #16 @069   ----------------------------------------
 .byte   W96
@  #16 @070   ----------------------------------------
 .byte   W96
@  #16 @071   ----------------------------------------
 .byte   W96
@  #16 @072   ----------------------------------------
 .byte   W96
@  #16 @073   ----------------------------------------
 .byte   W96
@  #16 @074   ----------------------------------------
 .byte   W96
@  #16 @075   ----------------------------------------
 .byte   W96
@  #16 @076   ----------------------------------------
 .byte   W96
@  #16 @077   ----------------------------------------
 .byte   W96
@  #16 @078   ----------------------------------------
 .byte   W96
@  #16 @079   ----------------------------------------
 .byte   W96
@  #16 @080   ----------------------------------------
 .byte   W96
@  #16 @081   ----------------------------------------
 .byte   W96
@  #16 @082   ----------------------------------------
 .byte   W96
@  #16 @083   ----------------------------------------
 .byte   W96
@  #16 @084   ----------------------------------------
 .byte   W48
 .byte   VOL , 29*song04_mvl/mxv
 .byte   W48
@  #16 @085   ----------------------------------------
 .byte   PATT
  .word Label_01402F81
@  #16 @086   ----------------------------------------
 .byte   PATT
  .word Label_01402F87
@  #16 @087   ----------------------------------------
 .byte   PATT
  .word Label_01402FBE
@  #16 @088   ----------------------------------------
 .byte   PATT
  .word Label_01402F87
@  #16 @089   ----------------------------------------
 .byte   PATT
  .word Label_01402FC9
@  #16 @090   ----------------------------------------
 .byte   PATT
  .word Label_01402FCF
@  #16 @091   ----------------------------------------
 .byte   PATT
  .word Label_01403039
@  #16 @092   ----------------------------------------
 .byte   PATT
  .word Label_01403040
@  #16 @093   ----------------------------------------
 .byte   PATT
  .word Label_01402FBE
@  #16 @094   ----------------------------------------
 .byte   PATT
  .word Label_01403040
@  #16 @095   ----------------------------------------
 .byte   PATT
  .word Label_01403083
@  #16 @096   ----------------------------------------
 .byte   PATT
  .word Label_01403089
@  #16 @097   ----------------------------------------
 .byte   VOICE , 67
 .byte   PAN , c_v+0
 .byte   VOL , 29*song04_mvl/mxv
 .byte   PAN , c_v+0
 .byte   VOL , 29*song04_mvl/mxv
 .byte   PAN , c_v+0
 .byte   VOL , 29*song04_mvl/mxv
 .byte   BEND , c_v+0
 .byte   FINE

@******************************************************@
	.align	2

song04:
	.byte	16	@ NumTrks
	.byte	0	@ NumBlks
	.byte	song04_pri	@ Priority
	.byte	song04_rev	@ Reverb.
    
	.word	song04_grp
    
	.word	song04_001
	.word	song04_002
	.word	song04_003
	.word	song04_004
	.word	song04_005
	.word	song04_006
	.word	song04_007
	.word	song04_008
	.word	song04_009
	.word	song04_010
	.word	song04_011
	.word	song04_012
	.word	song04_013
	.word	song04_014
	.word	song04_015
	.word	song04_016

	.end
