//Event file generated from Sappy .s format.
	#include "MPlayDef.event"

	#define	SkyTower_grp  voicegroup000
	#define	SkyTower_pri  0
	#define	SkyTower_rev  0
	#define	SkyTower_mvl  127
	#define	SkyTower_key  0
	#define	SkyTower_tbs  1
	#define	SkyTower_exg  0
	#define	SkyTower_cmp  1

	// .rodata
	//	SkyTower
	ALIGN 4


//**************** Track 1 (Midi-Chn.0) ****************//

SkyTower_001:
// 000   ----------------------------------------
 BYTE   VOL   40*SkyTower_mvl/mxv
 BYTE   KEYSH   SkyTower_key+0
 BYTE   TEMPO   116*SkyTower_tbs/2
 BYTE   VOICE   40
 BYTE   W96
// 001   ----------------------------------------
 BYTE   W96
// 002   ----------------------------------------
 BYTE   W96
// 003   ----------------------------------------
 BYTE   W96
// 004   ----------------------------------------
 BYTE   W96
// 005   ----------------------------------------
 BYTE   W96
// 006   ----------------------------------------
 BYTE   N32  Bn3  v100
 BYTE   W40
 BYTE   N04  An3  v088
 BYTE   W03
 BYTE   Bn3  v100
 BYTE   W04
 BYTE   N42  Fs4  v096
 BYTE   W48
 BYTE   W01
// 007   ----------------------------------------
 BYTE   N32  En4  v100
 BYTE   W40
 BYTE   N04  En4  v088
 BYTE   W03
 BYTE   Fs4  v080
 BYTE   W05
 BYTE   N22  En4  v100
 BYTE   W24
 BYTE   Cs4
 BYTE   W24
// 008   ----------------------------------------
 BYTE   N80  An3
 BYTE   W96
// 009   ----------------------------------------
 BYTE   W72
 BYTE   N21  Bn3
 BYTE   W24
// 010   ----------------------------------------
 BYTE   N68  Fs4  v108
 BYTE   W72
 BYTE   N23  En4  v092
 BYTE   W24
// 011   ----------------------------------------
 BYTE   N44  An4  v108
 BYTE   W48
 BYTE   N32  Gs4
 BYTE   W36
 BYTE   N03  Gs4  v096
 BYTE   W03
 BYTE   An4
 BYTE   W03
 BYTE   Gs4
 BYTE   W03
 BYTE   TIE  Fs4  v108
 BYTE   W03
// 012   ----------------------------------------
 BYTE   W92
 BYTE   W03
 BYTE   EOT
 BYTE   W01
// 013   ----------------------------------------
 BYTE   W96
// 014   ----------------------------------------
 BYTE   W96
// 015   ----------------------------------------
 BYTE   W96
// 016   ----------------------------------------
 BYTE   W96
// 017   ----------------------------------------
 BYTE   W96
// 018   ----------------------------------------
 BYTE   W96
// 019   ----------------------------------------
 BYTE   W96
// 020   ----------------------------------------
Label_0_546EA6:
 BYTE   W96
// 021   ----------------------------------------
 BYTE   W96
// 022   ----------------------------------------
 BYTE   W96
// 023   ----------------------------------------
 BYTE   W96
// 024   ----------------------------------------
Label_0_546EAA:
 BYTE   W12
 BYTE   N02  Bn3  v112
 BYTE   W06
 BYTE   Bn3  v060
 BYTE   W06
 BYTE   Fs4  v112
 BYTE   W06
 BYTE   Fs4  v060
 BYTE   W06
 BYTE   En4  v092
 BYTE   W06
 BYTE   En4  v048
 BYTE   W06
 BYTE   Fs4  v112
 BYTE   W06
 BYTE   Fs4  v060
 BYTE   W06
 BYTE   Bn4  v112
 BYTE   W06
 BYTE   Bn4  v060
 BYTE   W18
 BYTE   An4  v112
 BYTE   W06
 BYTE   An4  v060
 BYTE   W06
 BYTE   PEND 
// 025   ----------------------------------------
Label_0_546ED1:
 BYTE   W12
 BYTE   N02  Gs4  v112
 BYTE   W06
 BYTE   Gs4  v060
 BYTE   W18
 BYTE   Fs4  v112
 BYTE   W06
 BYTE   Fs4  v060
 BYTE   W18
 BYTE   En4  v112
 BYTE   W06
 BYTE   En4  v060
 BYTE   W18
 BYTE   Fs4  v112
 BYTE   W06
 BYTE   Fs4  v060
 BYTE   W06
 BYTE   PEND 
// 026   ----------------------------------------
 BYTE   W84
 BYTE   N03  Bn3  v112
 BYTE   W12
// 027   ----------------------------------------
Label_0_546EF1:
 BYTE   N03  Bn3  v060
 BYTE   W12
 BYTE   Fs3  v112
 BYTE   W12
 BYTE   Fs3  v060
 BYTE   W12
 BYTE   An3  v112
 BYTE   W12
 BYTE   An3  v060
 BYTE   W12
 BYTE   En3  v112
 BYTE   W12
 BYTE   En3  v060
 BYTE   W24
 BYTE   PEND 
 BYTE   PATT
  POIN2 Label_0_546EAA
 BYTE   PATT
  POIN2 Label_0_546ED1
// 028   ----------------------------------------
 BYTE   W84
 BYTE   N03  En4  v112
 BYTE   W12
// 029   ----------------------------------------
Label_0_546F17:
 BYTE   N03  En4  v060
 BYTE   W12
 BYTE   Cs4  v112
 BYTE   W12
 BYTE   Cs4  v060
 BYTE   W12
 BYTE   Dn4  v112
 BYTE   W12
 BYTE   Dn4  v060
 BYTE   W12
 BYTE   An3  v112
 BYTE   W12
 BYTE   An3  v060
 BYTE   W24
 BYTE   PEND 
// 030   ----------------------------------------
 BYTE   W96
// 031   ----------------------------------------
 BYTE   W96
// 032   ----------------------------------------
 BYTE   W96
// 033   ----------------------------------------
 BYTE   W96
// 034   ----------------------------------------
 BYTE   W96
// 035   ----------------------------------------
 BYTE   W96
// 036   ----------------------------------------
 BYTE   W96
// 037   ----------------------------------------
 BYTE   W96
// 038   ----------------------------------------
Label_0_546F36:
 BYTE   N03  Bn3  v100
 BYTE   W06
 BYTE   Bn3  v016
 BYTE   W18
 BYTE   N05  Bn3  v100
 BYTE   W06
 BYTE   N03  Bn3  v016
 BYTE   W18
 BYTE   Fs3  v100
 BYTE   W06
 BYTE   Fs3  v016
 BYTE   W06
 BYTE   Bn3  v100
 BYTE   W06
 BYTE   Bn3  v016
 BYTE   W06
 BYTE   Fs3  v100
 BYTE   W06
 BYTE   Fs3  v016
 BYTE   W06
 BYTE   N05  Bn3  v080
 BYTE   W06
 BYTE   N03  Bn3  v016
 BYTE   W06
 BYTE   PEND 
// 039   ----------------------------------------
 BYTE   W12
 BYTE   Fs3  v100
 BYTE   W12
 BYTE   Fs3  v016
 BYTE   W12
 BYTE   N05  Fs4  v080
 BYTE   W06
 BYTE   N03  Fs4  v016
 BYTE   W18
 BYTE   Fs3  v100
 BYTE   W06
 BYTE   Fs3  v016
 BYTE   W06
 BYTE   An3  v100
 BYTE   W06
 BYTE   Fs3  v016
 BYTE   W06
 BYTE   N05  An3  v100
 BYTE   W12
 BYTE   PATT
  POIN2 Label_0_546F36
// 040   ----------------------------------------
 BYTE   W96
 BYTE   PATT
  POIN2 Label_0_546EAA
 BYTE   PATT
  POIN2 Label_0_546ED1
// 041   ----------------------------------------
 BYTE   W84
 BYTE   N03  Bn3  v112
 BYTE   W12
 BYTE   PATT
  POIN2 Label_0_546EF1
 BYTE   PATT
  POIN2 Label_0_546EAA
 BYTE   PATT
  POIN2 Label_0_546ED1
// 042   ----------------------------------------
 BYTE   W84
 BYTE   N03  En4  v112
 BYTE   W12
 BYTE   PATT
  POIN2 Label_0_546F17
// 043   ----------------------------------------
 BYTE   W96
// 044   ----------------------------------------
 BYTE   W96
// 045   ----------------------------------------
 BYTE   W96
// 046   ----------------------------------------
 BYTE   W96
// 047   ----------------------------------------
 BYTE   W96
// 048   ----------------------------------------
 BYTE   W96
// 049   ----------------------------------------
 BYTE   W96
// 050   ----------------------------------------
 BYTE   W72
 BYTE   N15  Cs4  v112
 BYTE   W24
// 051   ----------------------------------------
 BYTE   N76  Fs4  v080
 BYTE   W84
 BYTE   N04  En4  v096
 BYTE   W06
 BYTE   Fs4  v072
 BYTE   W06
// 052   ----------------------------------------
 BYTE   N68  Cs5  v084
 BYTE   W72
 BYTE   N23  En5  v076
 BYTE   W24
// 053   ----------------------------------------
 BYTE   N60  Ds5  v084
 BYTE   W72
 BYTE   N23  Bn4  v088
 BYTE   W24
// 054   ----------------------------------------
 BYTE   N32  Fs5  v112
 BYTE   W36
 BYTE   N04  En5  v096
 BYTE   W04
 BYTE   Fs5  v056
 BYTE   W03
 BYTE   En5  v072
 BYTE   W05
 BYTE   N32  Ds5  v112
 BYTE   W48
// 055   ----------------------------------------
 BYTE   N80  Cs5
 BYTE   W96
// 056   ----------------------------------------
 BYTE   N32  Cs5  v084
 BYTE   W36
 BYTE   Fs5  v080
 BYTE   W36
 BYTE   N23  An5  v084
 BYTE   W24
// 057   ----------------------------------------
 BYTE   N68  Gs5  v092
 BYTE   W72
 BYTE   N23  En5  v080
 BYTE   W24
// 058   ----------------------------------------
 BYTE   N32  Bn5  v112
 BYTE   W36
 BYTE   N04  An5  v096
 BYTE   W04
 BYTE   Bn5
 BYTE   W03
 BYTE   An5  v092
 BYTE   W05
 BYTE   N44  Gs5
 BYTE   W48
// 059   ----------------------------------------
 BYTE   W96
// 060   ----------------------------------------
 BYTE   W72
 BYTE   N22  Cs4  v100
 BYTE   W24
// 061   ----------------------------------------
Label_0_547012:
 BYTE   N32  Fs4  v100
 BYTE   W36
 BYTE   N05  En4  v108
 BYTE   W06
 BYTE   Fs4  v080
 BYTE   W06
 BYTE   N40  Cs5  v100
 BYTE   W48
 BYTE   PEND 
// 062   ----------------------------------------
Label_0_547022:
 BYTE   N32  Bn4  v088
 BYTE   W36
 BYTE   N05  Bn4  v096
 BYTE   W06
 BYTE   Cs5  v092
 BYTE   W06
 BYTE   N22  Bn4  v100
 BYTE   W24
 BYTE   Gs4
 BYTE   W24
 BYTE   PEND 
// 063   ----------------------------------------
 BYTE   N80  Fs4
 BYTE   W96
// 064   ----------------------------------------
 BYTE   W72
 BYTE   N23  Fs4  v096
 BYTE   W24
// 065   ----------------------------------------
Label_0_54703C:
 BYTE   N68  Cs5  v100
 BYTE   W72
 BYTE   N23  Bn4  v092
 BYTE   W24
 BYTE   PEND 
// 066   ----------------------------------------
 BYTE   N44  Fs5  v100
 BYTE   W48
 BYTE   N36  En5
 BYTE   W36
 BYTE   W03
 BYTE   N03  Fs5  v092
 BYTE   W03
 BYTE   En5
 BYTE   W03
 BYTE   TIE  Cs5  v108
 BYTE   W03
// 067   ----------------------------------------
 BYTE   W92
 BYTE   W03
 BYTE   EOT
 BYTE   W01
// 068   ----------------------------------------
 BYTE   W72
 BYTE   N22  Cs4  v100
 BYTE   W24
 BYTE   PATT
  POIN2 Label_0_547012
 BYTE   PATT
  POIN2 Label_0_547022
// 069   ----------------------------------------
 BYTE   N80  Fs4  v100
 BYTE   W96
// 070   ----------------------------------------
 BYTE   W72
 BYTE   N23  Fs4  v096
 BYTE   W24
 BYTE   PATT
  POIN2 Label_0_54703C
// 071   ----------------------------------------
 BYTE   N44  Fs5  v100
 BYTE   W48
 BYTE   N32  En5
 BYTE   W36
 BYTE   N03  En5  v092
 BYTE   W03
 BYTE   Fs5
 BYTE   W03
 BYTE   En5
 BYTE   W03
 BYTE   TIE  Cs5  v108
 BYTE   W03
// 072   ----------------------------------------
 BYTE   W92
 BYTE   W03
 BYTE   EOT
 BYTE   W01
// 073   ----------------------------------------
 BYTE   W72
 BYTE   N16  Cs3  v116
 BYTE   W24
// 074   ----------------------------------------
 BYTE   N32  Fs3
 BYTE   W36
 BYTE   N05  En3
 BYTE   W06
 BYTE   Fs3
 BYTE   W06
 BYTE   N40  Cs4
 BYTE   W48
// 075   ----------------------------------------
 BYTE   N32  Bn3
 BYTE   W36
 BYTE   N05
 BYTE   W06
 BYTE   Cs4
 BYTE   W06
 BYTE   N22  Bn3
 BYTE   W24
 BYTE   Gs3
 BYTE   W24
// 076   ----------------------------------------
 BYTE   N92  Fs3
 BYTE   W96
// 077   ----------------------------------------
 BYTE   W72
 BYTE   N23
 BYTE   W24
// 078   ----------------------------------------
 BYTE   N68  Cs4
 BYTE   W72
 BYTE   N23  Bn3
 BYTE   W24
// 079   ----------------------------------------
 BYTE   N44  Fs4
 BYTE   W48
 BYTE   N32  En4
 BYTE   W36
 BYTE   N05  Fs4  v068
 BYTE   W06
 BYTE   En4  v064
 BYTE   W06
// 080   ----------------------------------------
 BYTE   TIE  Cs4  v112
 BYTE   W96
// 081   ----------------------------------------
 BYTE   W64
 BYTE   EOT
 BYTE   W32
// 082   ----------------------------------------
 BYTE   W96
// 083   ----------------------------------------
 BYTE   W96
// 084   ----------------------------------------
 BYTE   W72
 BYTE   N03  Fs4  v088
 BYTE   W06
 BYTE   Gs4  v072
 BYTE   W06
 BYTE   An4
 BYTE   W06
 BYTE   Bn4  v108
 BYTE   W06
// 085   ----------------------------------------
 BYTE   N68  Cs5  v100
 BYTE   W72
 BYTE   N23  En5  v088
 BYTE   W24
// 086   ----------------------------------------
 BYTE   N60  Ds5  v108
 BYTE   W72
 BYTE   N23  Bn4  v112
 BYTE   W24
// 087   ----------------------------------------
 BYTE   N32  Fs5  v127
 BYTE   W36
 BYTE   N04  En5  v120
 BYTE   W04
 BYTE   Fs5  v080
 BYTE   W03
 BYTE   En5  v100
 BYTE   W05
 BYTE   N32  Ds5  v112
 BYTE   W48
// 088   ----------------------------------------
 BYTE   N80  Cs5
 BYTE   W96
// 089   ----------------------------------------
 BYTE   W96
// 090   ----------------------------------------
 BYTE   W84
 BYTE   N03  Bn3
 BYTE   W12
// 091   ----------------------------------------
 BYTE   Bn3  v060
 BYTE   W12
 BYTE   Gs3  v112
 BYTE   W12
 BYTE   Gs3  v060
 BYTE   W12
 BYTE   An3  v112
 BYTE   W12
 BYTE   An3  v060
 BYTE   W12
 BYTE   En3  v112
 BYTE   W12
 BYTE   En3  v060
 BYTE   W24
// 092   ----------------------------------------
 BYTE   W96
// 093   ----------------------------------------
 BYTE   W96
// 094   ----------------------------------------
 BYTE   W84
 BYTE   En4  v112
 BYTE   W12
 BYTE   PATT
  POIN2 Label_0_546F17
// 095   ----------------------------------------
 BYTE   W96
// 096   ----------------------------------------
 BYTE   W96
// 097   ----------------------------------------
 BYTE   W96
// 098   ----------------------------------------
 BYTE   W96
// 099   ----------------------------------------
 BYTE   GoTo
  POIN2 Label_0_546EA6
 BYTE   FINE

//**************** Track 2 (Midi-Chn.1) ****************//

SkyTower_002:
// 000   ----------------------------------------
 BYTE   KEYSH   SkyTower_key+0
 BYTE   VOICE   48
 BYTE   PAN   c_v+0
 BYTE   VOL   40*SkyTower_mvl/mxv
 BYTE   PAN   c_v+0
 BYTE   VOL   40*SkyTower_mvl/mxv
 BYTE   MOD 0
 BYTE   CnM2
 BYTE   PAN   c_v+0
 BYTE   VOL   40*SkyTower_mvl/mxv
 BYTE   MOD 0
 BYTE   CnM2
 BYTE   VOL   40*SkyTower_mvl/mxv
 BYTE   PAN   c_v+0
 BYTE   MOD 0
 BYTE   CnM2
 BYTE   PAN   c_v+0
 BYTE   VOL   40*SkyTower_mvl/mxv
 BYTE   MOD 0
 BYTE   CnM2
 BYTE   VOL   40*SkyTower_mvl/mxv
 BYTE   PAN   c_v+0
 BYTE   MOD 0
 BYTE   CnM2
 BYTE   BEND   c_v+0
 BYTE   W96
// 001   ----------------------------------------
 BYTE   W96
// 002   ----------------------------------------
 BYTE   W96
// 003   ----------------------------------------
 BYTE   W96
// 004   ----------------------------------------
Label_1_547749:
 BYTE   N44  En4  v060
 BYTE   W48
 BYTE   An4
 BYTE   W48
 BYTE   PEND 
// 005   ----------------------------------------
Label_1_547750:
 BYTE   N44  Gs4  v060
 BYTE   W48
 BYTE   An4
 BYTE   W48
 BYTE   PEND 
// 006   ----------------------------------------
 BYTE   TIE  Fs4
 BYTE   W96
// 007   ----------------------------------------
 BYTE   W92
 BYTE   W03
 BYTE   EOT
 BYTE   W01
 BYTE   PATT
  POIN2 Label_1_547749
 BYTE   PATT
  POIN2 Label_1_547750
// 008   ----------------------------------------
 BYTE   TIE  Fs4  v060
 BYTE   W96
// 009   ----------------------------------------
 BYTE   W96
// 010   ----------------------------------------
 BYTE   W96
// 011   ----------------------------------------
 BYTE   W96
// 012   ----------------------------------------
 BYTE   W96
// 013   ----------------------------------------
 BYTE   W92
 BYTE   W03
 BYTE   EOT
 BYTE   VOL   31*SkyTower_mvl/mxv
 BYTE   W01
// 014   ----------------------------------------
Label_1_547776:
 BYTE   N32  Fs2  v112
 BYTE   W48
 BYTE   N23  Bn2
 BYTE   W36
 BYTE   N92  Fs3  v092
 BYTE   W12
 BYTE   PEND 
// 015   ----------------------------------------
 BYTE   W96
// 016   ----------------------------------------
Label_1_547783:
 BYTE   N32  Bn2  v112
 BYTE   W48
 BYTE   N23  Fs3  v092
 BYTE   W36
 BYTE   N32  Bn3
 BYTE   W12
 BYTE   PEND 
// 017   ----------------------------------------
 BYTE   W36
 BYTE   N44  Cs4
 BYTE   W60
// 018   ----------------------------------------
Label_1_547793:
 BYTE   PATT
  POIN2 Label_1_547776
// 019   ----------------------------------------
 BYTE   W96
 BYTE   PATT
  POIN2 Label_1_547783
// 020   ----------------------------------------
 BYTE   W36
 BYTE   N44  Cs4  v092
 BYTE   W60
// 021   ----------------------------------------
 BYTE   W96
// 022   ----------------------------------------
 BYTE   W96
// 023   ----------------------------------------
 BYTE   W96
// 024   ----------------------------------------
 BYTE   W96
// 025   ----------------------------------------
 BYTE   W96
// 026   ----------------------------------------
 BYTE   W96
// 027   ----------------------------------------
 BYTE   W96
// 028   ----------------------------------------
 BYTE   W96
 BYTE   PATT
  POIN2 Label_1_547776
// 029   ----------------------------------------
 BYTE   W96
 BYTE   PATT
  POIN2 Label_1_547783
// 030   ----------------------------------------
 BYTE   W36
 BYTE   N44  Cs4  v092
 BYTE   W60
 BYTE   PATT
  POIN2 Label_1_547776
// 031   ----------------------------------------
 BYTE   W96
 BYTE   PATT
  POIN2 Label_1_547783
// 032   ----------------------------------------
 BYTE   W36
 BYTE   N44  Cs4  v092
 BYTE   W60
// 033   ----------------------------------------
 BYTE   W96
// 034   ----------------------------------------
 BYTE   W03
 BYTE   MOD 0
 BYTE   Fn4
 BYTE   W92
 BYTE   W01
// 035   ----------------------------------------
 BYTE   W84
 BYTE   N03  Bn3
 BYTE   W06
 BYTE   Bn3  v028
 BYTE   W06
// 036   ----------------------------------------
 BYTE   Bn3  v012
 BYTE   W12
 BYTE   Fs3  v092
 BYTE   W06
 BYTE   Fs3  v028
 BYTE   W06
 BYTE   Fs3  v012
 BYTE   W12
 BYTE   An3  v092
 BYTE   W06
 BYTE   An3  v028
 BYTE   W06
 BYTE   An3  v012
 BYTE   W12
 BYTE   En3  v092
 BYTE   W06
 BYTE   En3  v028
 BYTE   W06
 BYTE   En3  v012
 BYTE   W24
// 037   ----------------------------------------
 BYTE   W96
// 038   ----------------------------------------
 BYTE   W96
// 039   ----------------------------------------
 BYTE   W96
// 040   ----------------------------------------
 BYTE   W96
// 041   ----------------------------------------
 BYTE   W96
// 042   ----------------------------------------
 BYTE   W96
// 043   ----------------------------------------
 BYTE   W96
// 044   ----------------------------------------
 BYTE   W92
 BYTE   W03
 BYTE   MOD 0
 BYTE   CnM2
 BYTE   W01
 BYTE   PATT
  POIN2 Label_1_547776
// 045   ----------------------------------------
 BYTE   W96
 BYTE   PATT
  POIN2 Label_1_547783
// 046   ----------------------------------------
 BYTE   W36
 BYTE   N44  Cs4  v092
 BYTE   W60
 BYTE   PATT
  POIN2 Label_1_547776
// 047   ----------------------------------------
 BYTE   W96
 BYTE   PATT
  POIN2 Label_1_547783
// 048   ----------------------------------------
 BYTE   W36
 BYTE   N44  Cs4  v092
 BYTE   W56
 BYTE   W03
 BYTE   VOL   40*SkyTower_mvl/mxv
 BYTE   W01
// 049   ----------------------------------------
 BYTE   N92  Fs4  v052
 BYTE   W96
// 050   ----------------------------------------
 BYTE   An4
 BYTE   W96
// 051   ----------------------------------------
 BYTE   TIE  Gs4
 BYTE   W96
// 052   ----------------------------------------
 BYTE   W92
 BYTE   W03
 BYTE   EOT
 BYTE   W01
// 053   ----------------------------------------
 BYTE   N92  Fs4
 BYTE   W96
// 054   ----------------------------------------
 BYTE   An4
 BYTE   W96
// 055   ----------------------------------------
 BYTE   TIE  Gs4
 BYTE   W96
// 056   ----------------------------------------
 BYTE   W92
 BYTE   W03
 BYTE   EOT
 BYTE   W01
// 057   ----------------------------------------
 BYTE   W96
// 058   ----------------------------------------
 BYTE   W96
// 059   ----------------------------------------
 BYTE   W96
// 060   ----------------------------------------
 BYTE   W96
// 061   ----------------------------------------
 BYTE   W96
// 062   ----------------------------------------
 BYTE   W96
// 063   ----------------------------------------
 BYTE   W96
// 064   ----------------------------------------
 BYTE   W96
// 065   ----------------------------------------
 BYTE   W96
// 066   ----------------------------------------
 BYTE   W96
// 067   ----------------------------------------
 BYTE   W96
// 068   ----------------------------------------
 BYTE   W96
// 069   ----------------------------------------
 BYTE   W96
// 070   ----------------------------------------
 BYTE   W96
// 071   ----------------------------------------
 BYTE   W96
// 072   ----------------------------------------
 BYTE   W96
// 073   ----------------------------------------
 BYTE   W96
// 074   ----------------------------------------
 BYTE   W96
// 075   ----------------------------------------
 BYTE   W96
// 076   ----------------------------------------
 BYTE   W96
// 077   ----------------------------------------
 BYTE   W96
// 078   ----------------------------------------
 BYTE   W96
// 079   ----------------------------------------
 BYTE   W96
// 080   ----------------------------------------
 BYTE   W96
// 081   ----------------------------------------
 BYTE   W96
// 082   ----------------------------------------
 BYTE   W96
// 083   ----------------------------------------
 BYTE   W96
// 084   ----------------------------------------
 BYTE   W96
// 085   ----------------------------------------
 BYTE   W96
// 086   ----------------------------------------
 BYTE   W96
// 087   ----------------------------------------
 BYTE   W96
// 088   ----------------------------------------
 BYTE   W96
// 089   ----------------------------------------
Label_1_54785F:
 BYTE   N44  Fs3  v092
 BYTE   W60
 BYTE   N05
 BYTE   W06
 BYTE   Fs3  v052
 BYTE   W18
 BYTE   N80  Gs3  v092
 BYTE   W12
 BYTE   PEND 
// 090   ----------------------------------------
 BYTE   W96
// 091   ----------------------------------------
Label_1_54786E:
 BYTE   N44  An3  v092
 BYTE   W60
 BYTE   N05
 BYTE   W06
 BYTE   An3  v052
 BYTE   W18
 BYTE   N80  Bn3  v092
 BYTE   W12
 BYTE   PEND 
// 092   ----------------------------------------
 BYTE   W96
 BYTE   PATT
  POIN2 Label_1_54785F
// 093   ----------------------------------------
 BYTE   W96
 BYTE   PATT
  POIN2 Label_1_54786E
// 094   ----------------------------------------
 BYTE   W92
 BYTE   W03
 BYTE   VOL   31*SkyTower_mvl/mxv
 BYTE   W01
// 095   ----------------------------------------
 BYTE   N32  Fs2  v112
 BYTE   W48
 BYTE   N23  Bn2
 BYTE   W36
 BYTE   N92  Fs3
 BYTE   W12
// 096   ----------------------------------------
 BYTE   W96
// 097   ----------------------------------------
 BYTE   N32  Bn2
 BYTE   W48
 BYTE   N23  Fs3
 BYTE   W36
 BYTE   N32  Bn3
 BYTE   W12
// 098   ----------------------------------------
 BYTE   W36
 BYTE   N44  Cs4
 BYTE   W60
// 099   ----------------------------------------
 BYTE   GoTo
  POIN2 Label_1_547793
// 100   ----------------------------------------
 BYTE   VOICE   48
 BYTE   PAN   c_v+0
 BYTE   VOL   31*SkyTower_mvl/mxv
 BYTE   MOD 0
 BYTE   CnM2
 BYTE   PAN   c_v+0
 BYTE   VOL   31*SkyTower_mvl/mxv
 BYTE   MOD 0
 BYTE   CnM2
 BYTE   PAN   c_v+0
 BYTE   VOL   31*SkyTower_mvl/mxv
 BYTE   MOD 0
 BYTE   CnM2
 BYTE   BEND   c_v+0
 BYTE   FINE

//**************** Track 3 (Midi-Chn.2) ****************//

SkyTower_003:
// 000   ----------------------------------------
 BYTE   KEYSH   SkyTower_key+0
 BYTE   VOICE   48
 BYTE   PAN   c_v-63
 BYTE   VOL   0*SkyTower_mvl/mxv
 BYTE   PAN   c_v-63
 BYTE   MOD 0
 BYTE   CnM2
 BYTE   PAN   c_v-63
 BYTE   MOD 0
 BYTE   CnM2
 BYTE   VOL   0*SkyTower_mvl/mxv
 BYTE   PAN   c_v-63
 BYTE   CsM2
 BYTE   MOD 0
 BYTE   CnM2
 BYTE   VOL   0*SkyTower_mvl/mxv
 BYTE   PAN   c_v-63
 BYTE   BEND   c_v+0
 BYTE   TIE  Fs2  v068
 BYTE   W05
 BYTE   VOL   0*SkyTower_mvl/mxv
 BYTE   W06
 BYTE   CsM2
 BYTE   W07
 BYTE   DnM2
 BYTE   W06
 BYTE   EnM2
 BYTE   W06
 BYTE   FnM2
 BYTE   W06
 BYTE   FsM2
 BYTE   W07
 BYTE   GnM2
 BYTE   W06
 BYTE   AnM2
 BYTE   W06
 BYTE   AsM2
 BYTE   W07
 BYTE   BnM2
 BYTE   W06
 BYTE   CsM1
 BYTE   W06
 BYTE   DnM1
 BYTE   W06
 BYTE   DsM1
 BYTE   W07
 BYTE   FnM1
 BYTE   W06
 BYTE   FsM1
 BYTE   W03
// 001   ----------------------------------------
 BYTE   W03
 BYTE   GnM1
 BYTE   W07
 BYTE   AnM1
 BYTE   W06
 BYTE   AsM1
 BYTE   W06
 BYTE   BnM1
 BYTE   W06
 BYTE   Cs0
 BYTE   W07
 BYTE   Dn0
 BYTE   W06
 BYTE   Ds0
 BYTE   W06
 BYTE   En0
 BYTE   W07
 BYTE   Fs0
 BYTE   W06
 BYTE   Gn0
 BYTE   W06
 BYTE   An0
 BYTE   W06
 BYTE   As0
 BYTE   W07
 BYTE   Bn0
 BYTE   W06
 BYTE   Cs1
 BYTE   W06
 BYTE   Dn1
 BYTE   W05
// 002   ----------------------------------------
 BYTE   W02
 BYTE   En1
 BYTE   W92
 BYTE   W02
// 003   ----------------------------------------
 BYTE   W92
 BYTE   W03
 BYTE   EOT
 BYTE   W01
// 004   ----------------------------------------
Label_2_015DAA77:
 BYTE   N44  Cs4  v052
 BYTE   W48
 BYTE   TIE  En4
 BYTE   W48
 BYTE   PEND 
// 005   ----------------------------------------
 BYTE   W92
 BYTE   W03
 BYTE   EOT
 BYTE   W01
// 006   ----------------------------------------
 BYTE   TIE  Dn4
 BYTE   W96
// 007   ----------------------------------------
 BYTE   W92
 BYTE   W03
 BYTE   EOT
 BYTE   W01
 BYTE   PATT
  POIN2 Label_2_015DAA77
// 008   ----------------------------------------
 BYTE   W92
 BYTE   W03
 BYTE   EOT
 BYTE   En4
 BYTE   W01
// 009   ----------------------------------------
 BYTE   TIE  Dn4  v052
 BYTE   W96
// 010   ----------------------------------------
 BYTE   W92
 BYTE   W03
 BYTE   EOT
 BYTE   W01
// 011   ----------------------------------------
 BYTE   W96
// 012   ----------------------------------------
 BYTE   W96
// 013   ----------------------------------------
 BYTE   W96
// 014   ----------------------------------------
 BYTE   W92
 BYTE   W03
 BYTE   VOL   25*SkyTower_mvl/mxv
 BYTE   PAN   c_v-20
 BYTE   W01
// 015   ----------------------------------------
 BYTE   TIE  Dn2  v112
 BYTE   W96
// 016   ----------------------------------------
 BYTE   W96
// 017   ----------------------------------------
 BYTE   W96
// 018   ----------------------------------------
 BYTE   W32
 BYTE   W03
 BYTE   EOT
 BYTE   W01
 BYTE   N56  Cs2
 BYTE   W60
// 019   ----------------------------------------
Label_2_015DAAB3:
 BYTE   TIE  Dn2  v112
 BYTE   W96
// 020   ----------------------------------------
 BYTE   W96
// 021   ----------------------------------------
 BYTE   W96
// 022   ----------------------------------------
 BYTE   W32
 BYTE   W03
 BYTE   EOT
 BYTE   W01
 BYTE   N56  Cs2
 BYTE   W60
// 023   ----------------------------------------
Label_2_015DAAC0:
 BYTE   N68  Fs2  v112
 BYTE   W84
 BYTE   TIE  Gs2
 BYTE   W12
 BYTE   PEND 
// 024   ----------------------------------------
 BYTE   W92
 BYTE   W03
 BYTE   EOT
 BYTE   W01
// 025   ----------------------------------------
Label_2_015DAACC:
 BYTE   N68  An2  v112
 BYTE   W84
 BYTE   TIE  Gs2
 BYTE   W12
 BYTE   PEND 
// 026   ----------------------------------------
 BYTE   W92
 BYTE   W03
 BYTE   EOT
 BYTE   W01
 BYTE   PATT
  POIN2 Label_2_015DAAC0
// 027   ----------------------------------------
 BYTE   W92
 BYTE   W03
 BYTE   EOT
 BYTE   Gs2
 BYTE   W01
 BYTE   PATT
  POIN2 Label_2_015DAACC
// 028   ----------------------------------------
 BYTE   W92
 BYTE   W03
 BYTE   EOT
 BYTE   Gs2
 BYTE   W01
// 029   ----------------------------------------
 BYTE   TIE  Dn2  v112
 BYTE   W96
// 030   ----------------------------------------
 BYTE   W96
// 031   ----------------------------------------
 BYTE   W96
// 032   ----------------------------------------
 BYTE   W32
 BYTE   W03
 BYTE   EOT
 BYTE   W01
 BYTE   N56  Cs2
 BYTE   W60
// 033   ----------------------------------------
 BYTE   TIE  Dn2
 BYTE   W96
// 034   ----------------------------------------
 BYTE   W96
// 035   ----------------------------------------
 BYTE   W96
// 036   ----------------------------------------
 BYTE   W32
 BYTE   W03
 BYTE   EOT
 BYTE   W01
 BYTE   N56  Cs2
 BYTE   W60
// 037   ----------------------------------------
 BYTE   W96
// 038   ----------------------------------------
 BYTE   W96
// 039   ----------------------------------------
 BYTE   W96
// 040   ----------------------------------------
 BYTE   W96
 BYTE   PATT
  POIN2 Label_2_015DAAC0
// 041   ----------------------------------------
 BYTE   W92
 BYTE   W03
 BYTE   EOT
 BYTE   Gs2
 BYTE   W01
 BYTE   PATT
  POIN2 Label_2_015DAACC
// 042   ----------------------------------------
 BYTE   W92
 BYTE   W03
 BYTE   EOT
 BYTE   Gs2
 BYTE   W01
 BYTE   PATT
  POIN2 Label_2_015DAAC0
// 043   ----------------------------------------
 BYTE   W92
 BYTE   W03
 BYTE   EOT
 BYTE   Gs2
 BYTE   W01
 BYTE   PATT
  POIN2 Label_2_015DAACC
// 044   ----------------------------------------
 BYTE   W92
 BYTE   W03
 BYTE   EOT
 BYTE   Gs2
 BYTE   W01
// 045   ----------------------------------------
 BYTE   TIE  Dn2  v112
 BYTE   W96
// 046   ----------------------------------------
 BYTE   W96
// 047   ----------------------------------------
 BYTE   W96
// 048   ----------------------------------------
 BYTE   W32
 BYTE   W03
 BYTE   EOT
 BYTE   W01
 BYTE   N56  Cs2
 BYTE   W60
// 049   ----------------------------------------
 BYTE   TIE  Dn2
 BYTE   W96
// 050   ----------------------------------------
 BYTE   W96
// 051   ----------------------------------------
 BYTE   W96
// 052   ----------------------------------------
 BYTE   W32
 BYTE   W03
 BYTE   EOT
 BYTE   W01
 BYTE   N32  Cs2
 BYTE   W56
 BYTE   W03
 BYTE   VOL   40*SkyTower_mvl/mxv
 BYTE   W01
// 053   ----------------------------------------
 BYTE   N92  Cs4  v052
 BYTE   W96
// 054   ----------------------------------------
 BYTE   Fs4
 BYTE   W96
// 055   ----------------------------------------
 BYTE   TIE  Ds4
 BYTE   W96
// 056   ----------------------------------------
 BYTE   W92
 BYTE   W03
 BYTE   EOT
 BYTE   W01
// 057   ----------------------------------------
 BYTE   N92  Cs4
 BYTE   W96
// 058   ----------------------------------------
 BYTE   Fs4
 BYTE   W96
// 059   ----------------------------------------
 BYTE   TIE  Ds4
 BYTE   W96
// 060   ----------------------------------------
 BYTE   W92
 BYTE   W03
 BYTE   EOT
 BYTE   VOL   34*SkyTower_mvl/mxv
 BYTE   W01
// 061   ----------------------------------------
Label_2_015DAB69:
 BYTE   N44  Fs2  v100
 BYTE   W48
 BYTE   An2
 BYTE   W48
 BYTE   PEND 
// 062   ----------------------------------------
Label_2_015DAB70:
 BYTE   N44  Gs2  v100
 BYTE   W48
 BYTE   An2
 BYTE   W48
 BYTE   PEND 
// 063   ----------------------------------------
 BYTE   TIE  En2
 BYTE   W96
// 064   ----------------------------------------
 BYTE   W92
 BYTE   W03
 BYTE   EOT
 BYTE   W01
 BYTE   PATT
  POIN2 Label_2_015DAB69
 BYTE   PATT
  POIN2 Label_2_015DAB70
// 065   ----------------------------------------
 BYTE   N92  Gs2  v100
 BYTE   W96
// 066   ----------------------------------------
 BYTE   En2
 BYTE   W96
 BYTE   PATT
  POIN2 Label_2_015DAB69
 BYTE   PATT
  POIN2 Label_2_015DAB70
// 067   ----------------------------------------
 BYTE   TIE  En2  v100
 BYTE   W96
// 068   ----------------------------------------
 BYTE   W92
 BYTE   W03
 BYTE   EOT
 BYTE   W01
 BYTE   PATT
  POIN2 Label_2_015DAB69
 BYTE   PATT
  POIN2 Label_2_015DAB70
// 069   ----------------------------------------
 BYTE   N92  Bn2  v100
 BYTE   W96
// 070   ----------------------------------------
 BYTE   Gs2
 BYTE   W96
 BYTE   PATT
  POIN2 Label_2_015DAB69
 BYTE   PATT
  POIN2 Label_2_015DAB70
// 071   ----------------------------------------
 BYTE   TIE  En2  v100
 BYTE   W96
// 072   ----------------------------------------
 BYTE   W92
 BYTE   W03
 BYTE   EOT
 BYTE   W01
 BYTE   PATT
  POIN2 Label_2_015DAB69
 BYTE   PATT
  POIN2 Label_2_015DAB70
// 073   ----------------------------------------
 BYTE   N92  Bn2  v100
 BYTE   W96
// 074   ----------------------------------------
 BYTE   Gs2
 BYTE   W96
 BYTE   PATT
  POIN2 Label_2_015DAB69
 BYTE   PATT
  POIN2 Label_2_015DAB70
// 075   ----------------------------------------
 BYTE   TIE  En2  v100
 BYTE   W96
// 076   ----------------------------------------
 BYTE   W92
 BYTE   W03
 BYTE   EOT
 BYTE   W01
 BYTE   PATT
  POIN2 Label_2_015DAB69
 BYTE   PATT
  POIN2 Label_2_015DAB70
// 077   ----------------------------------------
 BYTE   N92  Bn2  v100
 BYTE   W96
// 078   ----------------------------------------
 BYTE   Gs2
 BYTE   W96
// 079   ----------------------------------------
Label_2_015DABF4:
 BYTE   N44  Dn2  v100
 BYTE   W60
 BYTE   N08
 BYTE   W24
 BYTE   TIE  En2
 BYTE   W12
 BYTE   PEND 
// 080   ----------------------------------------
 BYTE   W92
 BYTE   W03
 BYTE   EOT
 BYTE   W01
// 081   ----------------------------------------
 BYTE   N44  Fs2
 BYTE   W60
 BYTE   N08
 BYTE   W24
 BYTE   TIE  Gs2
 BYTE   W12
// 082   ----------------------------------------
 BYTE   W92
 BYTE   W03
 BYTE   EOT
 BYTE   W01
 BYTE   PATT
  POIN2 Label_2_015DABF4
// 083   ----------------------------------------
 BYTE   W92
 BYTE   W03
 BYTE   EOT
 BYTE   En2
 BYTE   W01
// 084   ----------------------------------------
 BYTE   N44  Fs2  v100
 BYTE   W60
 BYTE   N08
 BYTE   W24
 BYTE   N80  Gs2
 BYTE   W12
// 085   ----------------------------------------
 BYTE   W92
 BYTE   W03
 BYTE   VOL   25*SkyTower_mvl/mxv
 BYTE   W01
// 086   ----------------------------------------
 BYTE   TIE  Dn2  v112
 BYTE   W96
// 087   ----------------------------------------
 BYTE   W96
// 088   ----------------------------------------
 BYTE   W96
// 089   ----------------------------------------
 BYTE   W32
 BYTE   W03
 BYTE   EOT
 BYTE   W01
 BYTE   N56  Cs2
 BYTE   W60
// 090   ----------------------------------------
 BYTE   GoTo
  POIN2 Label_2_015DAAB3
// 091   ----------------------------------------
 BYTE   VOICE   48
 BYTE   PAN   c_v-20
 BYTE   VOL   25*SkyTower_mvl/mxv
 BYTE   MOD 0
 BYTE   CnM2
 BYTE   PAN   c_v-20
 BYTE   VOL   25*SkyTower_mvl/mxv
 BYTE   MOD 0
 BYTE   CnM2
 BYTE   PAN   c_v-20
 BYTE   VOL   25*SkyTower_mvl/mxv
 BYTE   MOD 0
 BYTE   CnM2
 BYTE   BEND   c_v+0
 BYTE   FINE

//**************** Track 4 (Midi-Chn.3) ****************//

SkyTower_004:
// 000   ----------------------------------------
 BYTE   KEYSH   SkyTower_key+0
 BYTE   VOICE   48
 BYTE   PAN   c_v+63
 BYTE   VOL   0*SkyTower_mvl/mxv
 BYTE   PAN   c_v+63
 BYTE   MOD 0
 BYTE   CnM2
 BYTE   PAN   c_v+63
 BYTE   MOD 0
 BYTE   CnM2
 BYTE   VOL   0*SkyTower_mvl/mxv
 BYTE   MOD 0
 BYTE   CnM2
 BYTE   PAN   c_v+63
 BYTE   Gn8
 BYTE   MOD 0
 BYTE   CnM2
 BYTE   VOL   0*SkyTower_mvl/mxv
 BYTE   MOD 0
 BYTE   CnM2
 BYTE   PAN   c_v+63
 BYTE   BEND   c_v+0
 BYTE   TIE  Bn1  v068
 BYTE   W05
 BYTE   VOL   0*SkyTower_mvl/mxv
 BYTE   W06
 BYTE   CsM2
 BYTE   W07
 BYTE   DnM2
 BYTE   W06
 BYTE   EnM2
 BYTE   W06
 BYTE   FnM2
 BYTE   W06
 BYTE   FsM2
 BYTE   W07
 BYTE   GnM2
 BYTE   W06
 BYTE   AnM2
 BYTE   W06
 BYTE   AsM2
 BYTE   W07
 BYTE   BnM2
 BYTE   W06
 BYTE   CsM1
 BYTE   W06
 BYTE   DnM1
 BYTE   W06
 BYTE   DsM1
 BYTE   W07
 BYTE   FnM1
 BYTE   W06
 BYTE   FsM1
 BYTE   W03
// 001   ----------------------------------------
 BYTE   W03
 BYTE   GnM1
 BYTE   W07
 BYTE   AnM1
 BYTE   W06
 BYTE   AsM1
 BYTE   W06
 BYTE   BnM1
 BYTE   W06
 BYTE   Cs0
 BYTE   W07
 BYTE   Dn0
 BYTE   W06
 BYTE   Ds0
 BYTE   W06
 BYTE   En0
 BYTE   W07
 BYTE   Fs0
 BYTE   W06
 BYTE   Gn0
 BYTE   W06
 BYTE   An0
 BYTE   W06
 BYTE   As0
 BYTE   W07
 BYTE   Bn0
 BYTE   W06
 BYTE   Cs1
 BYTE   W06
 BYTE   Dn1
 BYTE   W05
// 002   ----------------------------------------
 BYTE   W02
 BYTE   En1
 BYTE   W92
 BYTE   W02
// 003   ----------------------------------------
 BYTE   W92
 BYTE   W03
 BYTE   EOT
 BYTE   W01
// 004   ----------------------------------------
Label_3_015D9BD7:
 BYTE   N44  An3  v052
 BYTE   W48
 BYTE   TIE  Cs4
 BYTE   W48
 BYTE   PEND 
// 005   ----------------------------------------
 BYTE   W92
 BYTE   W03
 BYTE   EOT
 BYTE   W01
// 006   ----------------------------------------
 BYTE   TIE  Bn3
 BYTE   W96
// 007   ----------------------------------------
 BYTE   W92
 BYTE   W03
 BYTE   EOT
 BYTE   W01
 BYTE   PATT
  POIN2 Label_3_015D9BD7
// 008   ----------------------------------------
 BYTE   W92
 BYTE   W03
 BYTE   EOT
 BYTE   Cs4
 BYTE   W01
// 009   ----------------------------------------
 BYTE   TIE  Bn3  v052
 BYTE   W96
// 010   ----------------------------------------
 BYTE   W96
// 011   ----------------------------------------
 BYTE   PAN   c_v+0
 BYTE   W96
// 012   ----------------------------------------
 BYTE   W96
// 013   ----------------------------------------
 BYTE   W96
// 014   ----------------------------------------
 BYTE   W92
 BYTE   W03
 BYTE   EOT
 BYTE   VOL   25*SkyTower_mvl/mxv
 BYTE   PAN   c_v+20
 BYTE   W01
// 015   ----------------------------------------
Label_3_015D9C06:
 BYTE   N80  Bn1  v112
 BYTE   W84
 BYTE   TIE  An1
 BYTE   W12
 BYTE   PEND 
// 016   ----------------------------------------
 BYTE   W92
 BYTE   W03
 BYTE   EOT
 BYTE   W01
// 017   ----------------------------------------
Label_3_015D9C12:
 BYTE   N80  Gs1  v112
 BYTE   W84
 BYTE   TIE  An1
 BYTE   W12
 BYTE   PEND 
// 018   ----------------------------------------
 BYTE   W92
 BYTE   W03
 BYTE   EOT
 BYTE   W01
// 019   ----------------------------------------
Label_3_015D9C1E:
 BYTE   PATT
  POIN2 Label_3_015D9C06
// 020   ----------------------------------------
 BYTE   W92
 BYTE   W03
 BYTE   EOT
 BYTE   An1
 BYTE   W01
 BYTE   PATT
  POIN2 Label_3_015D9C12
// 021   ----------------------------------------
 BYTE   W92
 BYTE   W03
 BYTE   EOT
 BYTE   An1
 BYTE   W01
// 022   ----------------------------------------
Label_3_015D9C32:
 BYTE   N68  Dn2  v112
 BYTE   W84
 BYTE   TIE  Bn1
 BYTE   W12
 BYTE   PEND 
// 023   ----------------------------------------
 BYTE   W92
 BYTE   W03
 BYTE   EOT
 BYTE   W01
 BYTE   PATT
  POIN2 Label_3_015D9C32
// 024   ----------------------------------------
 BYTE   W92
 BYTE   W03
 BYTE   EOT
 BYTE   Bn1
 BYTE   W01
 BYTE   PATT
  POIN2 Label_3_015D9C32
// 025   ----------------------------------------
 BYTE   W92
 BYTE   W03
 BYTE   EOT
 BYTE   Bn1
 BYTE   W01
 BYTE   PATT
  POIN2 Label_3_015D9C32
// 026   ----------------------------------------
 BYTE   W92
 BYTE   W03
 BYTE   EOT
 BYTE   Bn1
 BYTE   W01
 BYTE   PATT
  POIN2 Label_3_015D9C06
// 027   ----------------------------------------
 BYTE   W92
 BYTE   W03
 BYTE   EOT
 BYTE   An1
 BYTE   W01
 BYTE   PATT
  POIN2 Label_3_015D9C12
// 028   ----------------------------------------
 BYTE   W92
 BYTE   W03
 BYTE   EOT
 BYTE   An1
 BYTE   W01
 BYTE   PATT
  POIN2 Label_3_015D9C06
// 029   ----------------------------------------
 BYTE   W92
 BYTE   W03
 BYTE   EOT
 BYTE   An1
 BYTE   W01
 BYTE   PATT
  POIN2 Label_3_015D9C12
// 030   ----------------------------------------
 BYTE   W92
 BYTE   W03
 BYTE   EOT
 BYTE   An1
 BYTE   W01
// 031   ----------------------------------------
 BYTE   W96
// 032   ----------------------------------------
 BYTE   W96
// 033   ----------------------------------------
 BYTE   W96
// 034   ----------------------------------------
 BYTE   W96
 BYTE   PATT
  POIN2 Label_3_015D9C32
// 035   ----------------------------------------
 BYTE   W92
 BYTE   W03
 BYTE   EOT
 BYTE   Bn1
 BYTE   W01
 BYTE   PATT
  POIN2 Label_3_015D9C32
// 036   ----------------------------------------
 BYTE   W92
 BYTE   W03
 BYTE   EOT
 BYTE   Bn1
 BYTE   W01
 BYTE   PATT
  POIN2 Label_3_015D9C32
// 037   ----------------------------------------
 BYTE   W92
 BYTE   W03
 BYTE   EOT
 BYTE   Bn1
 BYTE   W01
 BYTE   PATT
  POIN2 Label_3_015D9C32
// 038   ----------------------------------------
 BYTE   W92
 BYTE   W03
 BYTE   EOT
 BYTE   Bn1
 BYTE   W01
 BYTE   PATT
  POIN2 Label_3_015D9C06
// 039   ----------------------------------------
 BYTE   W92
 BYTE   W03
 BYTE   EOT
 BYTE   An1
 BYTE   W01
 BYTE   PATT
  POIN2 Label_3_015D9C12
// 040   ----------------------------------------
 BYTE   W92
 BYTE   W03
 BYTE   EOT
 BYTE   An1
 BYTE   W01
 BYTE   PATT
  POIN2 Label_3_015D9C06
// 041   ----------------------------------------
 BYTE   W92
 BYTE   W03
 BYTE   EOT
 BYTE   An1
 BYTE   W01
// 042   ----------------------------------------
 BYTE   N80  Gs1  v112
 BYTE   W84
 BYTE   An1
 BYTE   W12
// 043   ----------------------------------------
 BYTE   W92
 BYTE   W03
 BYTE   VOL   40*SkyTower_mvl/mxv
 BYTE   W01
// 044   ----------------------------------------
 BYTE   TIE  An3  v052
 BYTE   W96
// 045   ----------------------------------------
 BYTE   W92
 BYTE   W03
 BYTE   EOT
 BYTE   W01
// 046   ----------------------------------------
 BYTE   TIE  Bn3
 BYTE   W96
// 047   ----------------------------------------
 BYTE   W92
 BYTE   W03
 BYTE   EOT
 BYTE   W01
// 048   ----------------------------------------
 BYTE   TIE  An3
 BYTE   W96
// 049   ----------------------------------------
 BYTE   W92
 BYTE   W03
 BYTE   EOT
 BYTE   W01
// 050   ----------------------------------------
 BYTE   TIE  Bn3
 BYTE   W96
// 051   ----------------------------------------
 BYTE   W92
 BYTE   W03
 BYTE   EOT
 BYTE   VOL   34*SkyTower_mvl/mxv
 BYTE   W01
// 052   ----------------------------------------
Label_3_015D9CF8:
 BYTE   N44  Cs2  v100
 BYTE   W48
 BYTE   Fs2
 BYTE   W48
 BYTE   PEND 
// 053   ----------------------------------------
Label_3_015D9CFF:
 BYTE   N44  En2  v100
 BYTE   W48
 BYTE   Fs2
 BYTE   W48
 BYTE   PEND 
// 054   ----------------------------------------
 BYTE   TIE  Cs2
 BYTE   W96
// 055   ----------------------------------------
 BYTE   W92
 BYTE   W03
 BYTE   EOT
 BYTE   W01
 BYTE   PATT
  POIN2 Label_3_015D9CF8
 BYTE   PATT
  POIN2 Label_3_015D9CFF
// 056   ----------------------------------------
 BYTE   N92  En2  v100
 BYTE   W96
// 057   ----------------------------------------
 BYTE   Cs2
 BYTE   W96
 BYTE   PATT
  POIN2 Label_3_015D9CF8
 BYTE   PATT
  POIN2 Label_3_015D9CFF
// 058   ----------------------------------------
 BYTE   TIE  Cs2  v100
 BYTE   W96
// 059   ----------------------------------------
 BYTE   W92
 BYTE   W03
 BYTE   EOT
 BYTE   W01
 BYTE   PATT
  POIN2 Label_3_015D9CF8
 BYTE   PATT
  POIN2 Label_3_015D9CFF
// 060   ----------------------------------------
 BYTE   N92  Gs2  v100
 BYTE   W96
// 061   ----------------------------------------
 BYTE   En2
 BYTE   W96
 BYTE   PATT
  POIN2 Label_3_015D9CF8
 BYTE   PATT
  POIN2 Label_3_015D9CFF
// 062   ----------------------------------------
 BYTE   TIE  Cs2  v100
 BYTE   W96
// 063   ----------------------------------------
 BYTE   W92
 BYTE   W03
 BYTE   EOT
 BYTE   W01
 BYTE   PATT
  POIN2 Label_3_015D9CF8
 BYTE   PATT
  POIN2 Label_3_015D9CFF
// 064   ----------------------------------------
 BYTE   N92  Gs2  v100
 BYTE   W96
// 065   ----------------------------------------
 BYTE   En2
 BYTE   W96
 BYTE   PATT
  POIN2 Label_3_015D9CF8
 BYTE   PATT
  POIN2 Label_3_015D9CFF
// 066   ----------------------------------------
 BYTE   TIE  Cs2  v100
 BYTE   W96
// 067   ----------------------------------------
 BYTE   W92
 BYTE   W03
 BYTE   EOT
 BYTE   W01
 BYTE   PATT
  POIN2 Label_3_015D9CF8
 BYTE   PATT
  POIN2 Label_3_015D9CFF
// 068   ----------------------------------------
 BYTE   N92  Gs2  v100
 BYTE   W96
// 069   ----------------------------------------
 BYTE   En2
 BYTE   W96
// 070   ----------------------------------------
 BYTE   N44  An1
 BYTE   W60
 BYTE   N08
 BYTE   W12
 BYTE   N05  An1  v072
 BYTE   W12
 BYTE   TIE  Bn1  v100
 BYTE   W12
// 071   ----------------------------------------
 BYTE   W92
 BYTE   W03
 BYTE   EOT
 BYTE   W01
// 072   ----------------------------------------
 BYTE   N44  Dn2
 BYTE   W60
 BYTE   N08
 BYTE   W24
 BYTE   TIE  En2
 BYTE   W12
// 073   ----------------------------------------
 BYTE   W92
 BYTE   W03
 BYTE   EOT
 BYTE   W01
// 074   ----------------------------------------
 BYTE   N44  An1
 BYTE   W60
 BYTE   N08
 BYTE   W24
 BYTE   TIE  Bn1
 BYTE   W12
// 075   ----------------------------------------
 BYTE   W92
 BYTE   W03
 BYTE   EOT
 BYTE   W01
// 076   ----------------------------------------
 BYTE   N44  Dn2
 BYTE   W60
 BYTE   N08
 BYTE   W24
 BYTE   N80  En2
 BYTE   W12
// 077   ----------------------------------------
 BYTE   W92
 BYTE   W03
 BYTE   VOL   25*SkyTower_mvl/mxv
 BYTE   W01
 BYTE   PATT
  POIN2 Label_3_015D9C06
// 078   ----------------------------------------
 BYTE   W92
 BYTE   W03
 BYTE   EOT
 BYTE   An1
 BYTE   W01
 BYTE   PATT
  POIN2 Label_3_015D9C12
// 079   ----------------------------------------
 BYTE   W92
 BYTE   W03
 BYTE   EOT
 BYTE   An1
 BYTE   W01
// 080   ----------------------------------------
 BYTE   GoTo
  POIN2 Label_3_015D9C1E
// 081   ----------------------------------------
 BYTE   VOICE   48
 BYTE   PAN   c_v+20
 BYTE   VOL   25*SkyTower_mvl/mxv
 BYTE   MOD 0
 BYTE   CnM2
 BYTE   PAN   c_v+20
 BYTE   VOL   25*SkyTower_mvl/mxv
 BYTE   MOD 0
 BYTE   CnM2
 BYTE   PAN   c_v+20
 BYTE   VOL   25*SkyTower_mvl/mxv
 BYTE   MOD 0
 BYTE   CnM2
 BYTE   BEND   c_v+0
 BYTE   FINE

//**************** Track 5 (Midi-Chn.4) ****************//

SkyTower_005:
// 000   ----------------------------------------
 BYTE   KEYSH   SkyTower_key+0
 BYTE   VOICE   10
 BYTE   PAN   c_v+0
 BYTE   VOL   24*SkyTower_mvl/mxv
 BYTE   PAN   c_v+0
 BYTE   VOL   24*SkyTower_mvl/mxv
 BYTE   PAN   c_v+0
 BYTE   VOL   24*SkyTower_mvl/mxv
 BYTE   PAN   c_v+0
 BYTE   En3
 BYTE   VOL   24*SkyTower_mvl/mxv
 BYTE   PAN   c_v+0
 BYTE   BEND   c_v+0
 BYTE   N04  Bn3  v100
 BYTE   W12
 BYTE   En3  v088
 BYTE   W12
 BYTE   Fs3  v100
 BYTE   W12
 BYTE   Bn2  v068
 BYTE   W12
 BYTE   En3  v100
 BYTE   W12
 BYTE   Fs3  v088
 BYTE   W12
 BYTE   Bn2
 BYTE   W12
 BYTE   Bn3  v100
 BYTE   W12
// 001   ----------------------------------------
Label_4_015D9FA5:
 BYTE   N04  En3  v100
 BYTE   W12
 BYTE   Fs3  v088
 BYTE   W12
 BYTE   Bn2  v100
 BYTE   W12
 BYTE   En3  v088
 BYTE   W12
 BYTE   Fs3  v100
 BYTE   W12
 BYTE   Bn2  v088
 BYTE   W12
 BYTE   En3  v100
 BYTE   W12
 BYTE   An2  v088
 BYTE   W12
 BYTE   PEND 
// 002   ----------------------------------------
Label_4_015D9FBF:
 BYTE   N04  Bn3  v100
 BYTE   W12
 BYTE   En3  v088
 BYTE   W12
 BYTE   Fs3  v100
 BYTE   W12
 BYTE   Bn2  v068
 BYTE   W12
 BYTE   En3  v100
 BYTE   W12
 BYTE   Fs3  v088
 BYTE   W12
 BYTE   Bn2
 BYTE   W12
 BYTE   Bn3  v100
 BYTE   W12
 BYTE   PEND 
 BYTE   PATT
  POIN2 Label_4_015D9FA5
 BYTE   PATT
  POIN2 Label_4_015D9FBF
 BYTE   PATT
  POIN2 Label_4_015D9FA5
 BYTE   PATT
  POIN2 Label_4_015D9FBF
 BYTE   PATT
  POIN2 Label_4_015D9FA5
 BYTE   PATT
  POIN2 Label_4_015D9FBF
// 003   ----------------------------------------
 BYTE   N04  En3  v100
 BYTE   W12
 BYTE   Fs3  v088
 BYTE   W12
 BYTE   Bn2  v100
 BYTE   W12
 BYTE   En3  v088
 BYTE   W12
 BYTE   Fs3  v100
 BYTE   W12
 BYTE   Bn2  v088
 BYTE   W12
 BYTE   En3  v100
 BYTE   W24
 BYTE   PATT
  POIN2 Label_4_015D9FBF
 BYTE   PATT
  POIN2 Label_4_015D9FA5
 BYTE   PATT
  POIN2 Label_4_015D9FBF
 BYTE   PATT
  POIN2 Label_4_015D9FA5
 BYTE   PATT
  POIN2 Label_4_015D9FBF
// 004   ----------------------------------------
 BYTE   N04  En3  v100
 BYTE   W12
 BYTE   Fs3  v088
 BYTE   W12
 BYTE   Bn2  v100
 BYTE   W12
 BYTE   En3  v088
 BYTE   W12
 BYTE   Fs3  v100
 BYTE   W12
 BYTE   Bn2  v088
 BYTE   W12
 BYTE   En3  v100
 BYTE   W12
 BYTE   An2  v088
 BYTE   W11
 BYTE   VOICE   7
 BYTE   VOL   34*SkyTower_mvl/mxv
 BYTE   W01
// 005   ----------------------------------------
Label_4_015DA043:
 BYTE   N32  Fs2  v112
 BYTE   W48
 BYTE   N23  Bn2
 BYTE   W36
 BYTE   N92  Fs3
 BYTE   W12
 BYTE   PEND 
// 006   ----------------------------------------
 BYTE   W96
// 007   ----------------------------------------
Label_4_015DA04F:
 BYTE   N32  Bn2  v112
 BYTE   W48
 BYTE   N23  Fs3
 BYTE   W36
 BYTE   N32  Bn3
 BYTE   W12
 BYTE   PEND 
// 008   ----------------------------------------
 BYTE   W36
 BYTE   N44  Cs4
 BYTE   W60
// 009   ----------------------------------------
Label_4_015DA05E:
 BYTE   PATT
  POIN2 Label_4_015DA043
// 010   ----------------------------------------
 BYTE   W96
 BYTE   PATT
  POIN2 Label_4_015DA04F
// 011   ----------------------------------------
 BYTE   W36
 BYTE   N44  Cs4  v112
 BYTE   W60
// 012   ----------------------------------------
 BYTE   W96
// 013   ----------------------------------------
 BYTE   W96
// 014   ----------------------------------------
 BYTE   W96
// 015   ----------------------------------------
 BYTE   W96
// 016   ----------------------------------------
 BYTE   W96
// 017   ----------------------------------------
 BYTE   W96
// 018   ----------------------------------------
 BYTE   W96
// 019   ----------------------------------------
 BYTE   W96
 BYTE   PATT
  POIN2 Label_4_015DA043
// 020   ----------------------------------------
 BYTE   W96
 BYTE   PATT
  POIN2 Label_4_015DA04F
// 021   ----------------------------------------
 BYTE   W36
 BYTE   N44  Cs4  v112
 BYTE   W60
 BYTE   PATT
  POIN2 Label_4_015DA043
// 022   ----------------------------------------
 BYTE   W96
 BYTE   PATT
  POIN2 Label_4_015DA04F
// 023   ----------------------------------------
 BYTE   W36
 BYTE   N44  Cs4  v112
 BYTE   W60
// 024   ----------------------------------------
 BYTE   W96
// 025   ----------------------------------------
 BYTE   W96
// 026   ----------------------------------------
 BYTE   W96
// 027   ----------------------------------------
 BYTE   W96
// 028   ----------------------------------------
 BYTE   W96
// 029   ----------------------------------------
 BYTE   W96
// 030   ----------------------------------------
 BYTE   W96
// 031   ----------------------------------------
 BYTE   W96
// 032   ----------------------------------------
 BYTE   W96
// 033   ----------------------------------------
 BYTE   W96
// 034   ----------------------------------------
 BYTE   W96
// 035   ----------------------------------------
 BYTE   W96
 BYTE   PATT
  POIN2 Label_4_015DA043
// 036   ----------------------------------------
 BYTE   W96
 BYTE   PATT
  POIN2 Label_4_015DA04F
// 037   ----------------------------------------
 BYTE   W36
 BYTE   N44  Cs4  v112
 BYTE   W60
 BYTE   PATT
  POIN2 Label_4_015DA043
// 038   ----------------------------------------
 BYTE   W96
 BYTE   PATT
  POIN2 Label_4_015DA04F
// 039   ----------------------------------------
 BYTE   W36
 BYTE   N32  Cs4  v112
 BYTE   W60
// 040   ----------------------------------------
 BYTE   W96
// 041   ----------------------------------------
 BYTE   W96
// 042   ----------------------------------------
 BYTE   W96
// 043   ----------------------------------------
 BYTE   W96
// 044   ----------------------------------------
 BYTE   W96
// 045   ----------------------------------------
 BYTE   W96
// 046   ----------------------------------------
 BYTE   W96
// 047   ----------------------------------------
 BYTE   W15
 BYTE   VOICE   4
 BYTE   W01
 BYTE   VOL   31*SkyTower_mvl/mxv
 BYTE   W80
// 048   ----------------------------------------
Label_4_015DA0D0:
 BYTE   N04  Fs4  v100
 BYTE   W12
 BYTE   Bn3  v088
 BYTE   W12
 BYTE   Cs4  v100
 BYTE   W12
 BYTE   Fs3  v068
 BYTE   W12
 BYTE   Bn3  v100
 BYTE   W12
 BYTE   Cs4  v088
 BYTE   W12
 BYTE   Fs3
 BYTE   W12
 BYTE   Fs4  v100
 BYTE   W12
 BYTE   PEND 
// 049   ----------------------------------------
Label_4_015DA0E9:
 BYTE   N04  Bn3  v100
 BYTE   W12
 BYTE   Cs4  v088
 BYTE   W12
 BYTE   Fs3  v100
 BYTE   W12
 BYTE   Bn3  v088
 BYTE   W12
 BYTE   Cs4  v100
 BYTE   W12
 BYTE   Fs3  v088
 BYTE   W12
 BYTE   Bn3  v100
 BYTE   W12
 BYTE   Fs3  v088
 BYTE   W12
 BYTE   PEND 
 BYTE   PATT
  POIN2 Label_4_015DA0D0
 BYTE   PATT
  POIN2 Label_4_015DA0E9
 BYTE   PATT
  POIN2 Label_4_015DA0D0
 BYTE   PATT
  POIN2 Label_4_015DA0E9
 BYTE   PATT
  POIN2 Label_4_015DA0D0
 BYTE   PATT
  POIN2 Label_4_015DA0E9
 BYTE   PATT
  POIN2 Label_4_015DA0D0
 BYTE   PATT
  POIN2 Label_4_015DA0E9
 BYTE   PATT
  POIN2 Label_4_015DA0D0
 BYTE   PATT
  POIN2 Label_4_015DA0E9
 BYTE   PATT
  POIN2 Label_4_015DA0D0
 BYTE   PATT
  POIN2 Label_4_015DA0E9
 BYTE   PATT
  POIN2 Label_4_015DA0D0
 BYTE   PATT
  POIN2 Label_4_015DA0E9
// 050   ----------------------------------------
 BYTE   W96
// 051   ----------------------------------------
 BYTE   W96
// 052   ----------------------------------------
 BYTE   W96
// 053   ----------------------------------------
 BYTE   W96
// 054   ----------------------------------------
 BYTE   W96
// 055   ----------------------------------------
 BYTE   W96
// 056   ----------------------------------------
 BYTE   W96
// 057   ----------------------------------------
 BYTE   VOICE   76
 BYTE   W09
 BYTE   BEND   c_v+0
 BYTE   W84
 BYTE   W03
// 058   ----------------------------------------
 BYTE   W96
// 059   ----------------------------------------
 BYTE   W72
 BYTE   N22  Cs4  v100
 BYTE   W23
 BYTE   BEND   c_v-1
 BYTE   W01
// 060   ----------------------------------------
 BYTE   N32  Fs4
 BYTE   W05
 BYTE   BEND   c_v-1
 BYTE   W01
 BYTE   Ds3
 BYTE   W01
 BYTE   En3
 BYTE   W11
 BYTE   VOL   28*SkyTower_mvl/mxv
 BYTE   W05
 BYTE   Dn0
 BYTE   W03
 BYTE   Cn0
 BYTE   W04
 BYTE   AsM1
 BYTE   W05
 BYTE   Gn0
 BYTE   W01
 BYTE   N05  En4  v108
 BYTE   W06
 BYTE   Fs4  v080
 BYTE   W06
 BYTE   N40  Cs5  v100
 BYTE   W24
 BYTE   VOL   30*SkyTower_mvl/mxv
 BYTE   W03
 BYTE   En0
 BYTE   W02
 BYTE   Ds0
 BYTE   W02
 BYTE   Dn0
 BYTE   W02
 BYTE   Cs0
 BYTE   W02
 BYTE   BnM1
 BYTE   W02
 BYTE   AnM1
 BYTE   W01
 BYTE   GnM1
 BYTE   W01
 BYTE   FsM1
 BYTE   W01
 BYTE   FnM1
 BYTE   W01
 BYTE   DsM1
 BYTE   W06
 BYTE   Gn0
 BYTE   BEND   c_v-1
 BYTE   W01
// 061   ----------------------------------------
 BYTE   N32  Bn4  v088
 BYTE   W05
 BYTE   BEND   c_v-1
 BYTE   W01
 BYTE   Ds3
 BYTE   W01
 BYTE   En3
 BYTE   W28
 BYTE   W01
 BYTE   N05  Bn4  v096
 BYTE   W06
 BYTE   Cs5  v092
 BYTE   W05
 BYTE   BEND   c_v-1
 BYTE   W01
 BYTE   N22  Bn4  v100
 BYTE   W05
 BYTE   BEND   c_v-1
 BYTE   W01
 BYTE   Ds3
 BYTE   W01
 BYTE   En3
 BYTE   W17
 BYTE   N22  Gs4
 BYTE   W24
// 062   ----------------------------------------
 BYTE   N80  Fs4
 BYTE   W42
 BYTE   VOL   29*SkyTower_mvl/mxv
 BYTE   W08
 BYTE   Fn0
 BYTE   W06
 BYTE   En0
 BYTE   W04
 BYTE   Ds0
 BYTE   W02
 BYTE   BEND   c_v-1
 BYTE   W02
 BYTE   VOL   26*SkyTower_mvl/mxv
 BYTE   W02
 BYTE   BEND   c_v-1
 BYTE   W01
 BYTE   VOL   25*SkyTower_mvl/mxv
 BYTE   W01
 BYTE   BEND   c_v-1
 BYTE   W01
 BYTE   VOL   24*SkyTower_mvl/mxv
 BYTE   W01
 BYTE   BEND   c_v-1
 BYTE   W01
 BYTE   VOL   22*SkyTower_mvl/mxv
 BYTE   W01
 BYTE   AnM1
 BYTE   BEND   c_v-1
 BYTE   W02
 BYTE   VOL   19*SkyTower_mvl/mxv
 BYTE   BEND   c_v-1
 BYTE   W02
 BYTE   VOL   17*SkyTower_mvl/mxv
 BYTE   W02
 BYTE   DsM1
 BYTE   W02
 BYTE   CnM1
 BYTE   W02
 BYTE   AnM2
 BYTE   W14
// 063   ----------------------------------------
 BYTE   W96
// 064   ----------------------------------------
 BYTE   W96
// 065   ----------------------------------------
 BYTE   W15
 BYTE   VOICE   4
 BYTE   BEND   c_v+0
 BYTE   W01
 BYTE   VOL   34*SkyTower_mvl/mxv
 BYTE   W80
 BYTE   PATT
  POIN2 Label_4_015DA0D0
 BYTE   PATT
  POIN2 Label_4_015DA0E9
 BYTE   PATT
  POIN2 Label_4_015DA0D0
 BYTE   PATT
  POIN2 Label_4_015DA0E9
 BYTE   PATT
  POIN2 Label_4_015DA0D0
 BYTE   PATT
  POIN2 Label_4_015DA0E9
// 066   ----------------------------------------
 BYTE   N04  Fs4  v100
 BYTE   W12
 BYTE   Bn3  v088
 BYTE   W12
 BYTE   Cs4  v100
 BYTE   W12
 BYTE   Fs3  v068
 BYTE   W12
 BYTE   Bn3  v100
 BYTE   W12
 BYTE   Cs4  v088
 BYTE   W12
 BYTE   Fs3
 BYTE   W24
// 067   ----------------------------------------
 BYTE   W92
 BYTE   W03
 BYTE   VOICE   7
 BYTE   W01
 BYTE   PATT
  POIN2 Label_4_015DA043
// 068   ----------------------------------------
 BYTE   W96
 BYTE   PATT
  POIN2 Label_4_015DA04F
// 069   ----------------------------------------
 BYTE   W36
 BYTE   N44  Cs4  v112
 BYTE   W60
// 070   ----------------------------------------
 BYTE   GoTo
  POIN2 Label_4_015DA05E
// 071   ----------------------------------------
 BYTE   VOICE   7
 BYTE   PAN   c_v+0
 BYTE   VOL   34*SkyTower_mvl/mxv
 BYTE   PAN   c_v+0
 BYTE   VOL   34*SkyTower_mvl/mxv
 BYTE   PAN   c_v+0
 BYTE   VOL   34*SkyTower_mvl/mxv
 BYTE   BEND   c_v+0
 BYTE   FINE

//**************** Track 6 (Midi-Chn.5) ****************//

SkyTower_006:
// 000   ----------------------------------------
 BYTE   KEYSH   SkyTower_key+0
 BYTE   VOICE   52
 BYTE   PAN   c_v+0
 BYTE   VOL   40*SkyTower_mvl/mxv
 BYTE   PAN   c_v+0
 BYTE   VOL   40*SkyTower_mvl/mxv
 BYTE   MOD 0
 BYTE   CnM2
 BYTE   PAN   c_v+0
 BYTE   VOL   40*SkyTower_mvl/mxv
 BYTE   MOD 0
 BYTE   CnM2
 BYTE   VOL   40*SkyTower_mvl/mxv
 BYTE   MOD 0
 BYTE   CnM2
 BYTE   PAN   c_v+0
 BYTE   En3
 BYTE   VOL   40*SkyTower_mvl/mxv
 BYTE   MOD 0
 BYTE   CnM2
 BYTE   VOL   40*SkyTower_mvl/mxv
 BYTE   MOD 0
 BYTE   CnM2
 BYTE   PAN   c_v+0
 BYTE   BEND   c_v+0
 BYTE   W96
// 001   ----------------------------------------
 BYTE   W96
// 002   ----------------------------------------
 BYTE   W96
// 003   ----------------------------------------
 BYTE   W96
// 004   ----------------------------------------
 BYTE   TIE  Bn1  v100
 BYTE   W96
// 005   ----------------------------------------
 BYTE   W96
// 006   ----------------------------------------
 BYTE   W96
// 007   ----------------------------------------
 BYTE   W96
// 008   ----------------------------------------
 BYTE   W96
// 009   ----------------------------------------
 BYTE   W96
// 010   ----------------------------------------
 BYTE   W96
// 011   ----------------------------------------
 BYTE   W96
// 012   ----------------------------------------
 BYTE   W96
// 013   ----------------------------------------
 BYTE   W96
// 014   ----------------------------------------
 BYTE   W96
// 015   ----------------------------------------
 BYTE   W92
 BYTE   W03
 BYTE   EOT
 BYTE   W01
// 016   ----------------------------------------
Label_5_015DAE91:
 BYTE   N09  Bn1  v112
 BYTE   W12
 BYTE   N09
 BYTE   W12
 BYTE   N05  Bn1  v072
 BYTE   W12
 BYTE   N09  Bn1  v112
 BYTE   W12
 BYTE   N05
 BYTE   W12
 BYTE   N05
 BYTE   W06
 BYTE   Bn1  v092
 BYTE   W06
 BYTE   Bn1  v072
 BYTE   W12
 BYTE   N09  An1  v112
 BYTE   W12
 BYTE   PEND 
// 017   ----------------------------------------
Label_5_015DAEAE:
 BYTE   N05  An1  v072
 BYTE   W12
 BYTE   N09  An1  v112
 BYTE   W12
 BYTE   N05  An1  v072
 BYTE   W12
 BYTE   N09  An1  v112
 BYTE   W12
 BYTE   N05  An1  v072
 BYTE   W12
 BYTE   N09  An1  v112
 BYTE   W12
 BYTE   N05
 BYTE   W06
 BYTE   Gs1  v072
 BYTE   W06
 BYTE   N11  An1  v112
 BYTE   W12
 BYTE   PEND 
// 018   ----------------------------------------
Label_5_015DAED0:
 BYTE   N09  Gs1  v112
 BYTE   W12
 BYTE   N09
 BYTE   W12
 BYTE   N05  Gs1  v072
 BYTE   W12
 BYTE   N09  Gs1  v112
 BYTE   W12
 BYTE   N05
 BYTE   W12
 BYTE   N05
 BYTE   W06
 BYTE   Gs1  v092
 BYTE   W06
 BYTE   Gs1  v072
 BYTE   W12
 BYTE   N09  An1  v112
 BYTE   W12
 BYTE   PEND 
// 019   ----------------------------------------
Label_5_015DAEED:
 BYTE   N05  An1  v072
 BYTE   W12
 BYTE   En1  v112
 BYTE   W06
 BYTE   En1  v080
 BYTE   W06
 BYTE   N03  Cs1  v112
 BYTE   W12
 BYTE   N05  An1
 BYTE   W06
 BYTE   An1  v080
 BYTE   W06
 BYTE   N03  En1  v112
 BYTE   W12
 BYTE   N05  Cs2
 BYTE   W06
 BYTE   Cs2  v080
 BYTE   W06
 BYTE   An1  v112
 BYTE   W06
 BYTE   Gs1  v072
 BYTE   W06
 BYTE   N11  An1  v112
 BYTE   W12
 BYTE   PEND 
// 020   ----------------------------------------
Label_5_015DAF16:
 BYTE   PATT
  POIN2 Label_5_015DAE91
 BYTE   PATT
  POIN2 Label_5_015DAEAE
 BYTE   PATT
  POIN2 Label_5_015DAED0
 BYTE   PATT
  POIN2 Label_5_015DAEED
// 021   ----------------------------------------
Label_5_015DAF2A:
 BYTE   N09  Bn1  v112
 BYTE   W12
 BYTE   N09
 BYTE   W12
 BYTE   N05  Bn1  v072
 BYTE   W12
 BYTE   N09  Bn1  v112
 BYTE   W12
 BYTE   N05
 BYTE   W12
 BYTE   N05
 BYTE   W06
 BYTE   Bn1  v092
 BYTE   W06
 BYTE   Bn1  v072
 BYTE   W12
 BYTE   N09  En1  v112
 BYTE   W12
 BYTE   PEND 
// 022   ----------------------------------------
Label_5_015DAF47:
 BYTE   N05  En1  v072
 BYTE   W12
 BYTE   En2  v112
 BYTE   W06
 BYTE   En2  v080
 BYTE   W06
 BYTE   N03  En1  v112
 BYTE   W12
 BYTE   N05  Bn1
 BYTE   W06
 BYTE   Bn1  v080
 BYTE   W06
 BYTE   N03  Bn0  v112
 BYTE   W12
 BYTE   N05  En1
 BYTE   W06
 BYTE   En1  v080
 BYTE   W06
 BYTE   Bn0  v112
 BYTE   W06
 BYTE   Cs1  v072
 BYTE   W06
 BYTE   N11  Dn1  v112
 BYTE   W12
 BYTE   PEND 
// 023   ----------------------------------------
Label_5_015DAF70:
 BYTE   N09  Dn1  v112
 BYTE   W12
 BYTE   Dn2
 BYTE   W12
 BYTE   N05  Dn2  v072
 BYTE   W12
 BYTE   N09  Dn2  v112
 BYTE   W12
 BYTE   N05  Dn1
 BYTE   W12
 BYTE   Dn2
 BYTE   W06
 BYTE   Dn2  v092
 BYTE   W06
 BYTE   Dn1  v072
 BYTE   W12
 BYTE   N09  En1  v112
 BYTE   W12
 BYTE   PEND 
// 024   ----------------------------------------
Label_5_015DAF8E:
 BYTE   N05  En1  v072
 BYTE   W12
 BYTE   Cs1  v112
 BYTE   W06
 BYTE   Cs1  v080
 BYTE   W06
 BYTE   N03  Cs1  v112
 BYTE   W12
 BYTE   N05  En1
 BYTE   W06
 BYTE   En1  v080
 BYTE   W06
 BYTE   N03  En1  v112
 BYTE   W12
 BYTE   N05  Cs2
 BYTE   W06
 BYTE   Cs2  v080
 BYTE   W06
 BYTE   An1  v112
 BYTE   W06
 BYTE   Gs1  v072
 BYTE   W06
 BYTE   N11  An1  v112
 BYTE   W12
 BYTE   PEND 
 BYTE   PATT
  POIN2 Label_5_015DAF2A
 BYTE   PATT
  POIN2 Label_5_015DAF47
// 025   ----------------------------------------
Label_5_015DAFC1:
 BYTE   N09  Dn1  v112
 BYTE   W12
 BYTE   Dn2
 BYTE   W12
 BYTE   N05  Dn2  v072
 BYTE   W12
 BYTE   N09  Dn2  v112
 BYTE   W12
 BYTE   N05  Dn1
 BYTE   W12
 BYTE   Dn2
 BYTE   W06
 BYTE   Dn2  v092
 BYTE   W06
 BYTE   Dn1  v072
 BYTE   W12
 BYTE   N09  En2  v112
 BYTE   W12
 BYTE   PEND 
// 026   ----------------------------------------
Label_5_015DAFDF:
 BYTE   N05  En2  v072
 BYTE   W12
 BYTE   Cs2  v112
 BYTE   W06
 BYTE   Cs2  v080
 BYTE   W06
 BYTE   N03  Cs2  v112
 BYTE   W12
 BYTE   N05  Dn2
 BYTE   W06
 BYTE   Dn2  v080
 BYTE   W06
 BYTE   N03  Dn2  v112
 BYTE   W12
 BYTE   N05  An1
 BYTE   W06
 BYTE   An1  v080
 BYTE   W06
 BYTE   An1  v112
 BYTE   W06
 BYTE   Fs1  v072
 BYTE   W06
 BYTE   N11  An1  v112
 BYTE   W12
 BYTE   PEND 
 BYTE   PATT
  POIN2 Label_5_015DAE91
 BYTE   PATT
  POIN2 Label_5_015DAEAE
 BYTE   PATT
  POIN2 Label_5_015DAED0
 BYTE   PATT
  POIN2 Label_5_015DAEED
 BYTE   PATT
  POIN2 Label_5_015DAE91
 BYTE   PATT
  POIN2 Label_5_015DAEAE
 BYTE   PATT
  POIN2 Label_5_015DAED0
 BYTE   PATT
  POIN2 Label_5_015DAEED
// 027   ----------------------------------------
 BYTE   N11  Bn1  v112
 BYTE   W11
 BYTE   BEND   c_v-2
 BYTE   W02
 BYTE   Dn3
 BYTE   W01
 BYTE   Ds3
 BYTE   W01
 BYTE   En3
 BYTE   W09
 BYTE   N11
 BYTE   W12
 BYTE   N02
 BYTE   W12
 BYTE   Fs1
 BYTE   W12
 BYTE   N11  Bn1
 BYTE   W12
 BYTE   N02  Fs1
 BYTE   W11
 BYTE   BEND   c_v-2
 BYTE   W01
 BYTE   N11  Bn1
 BYTE   W01
 BYTE   BEND   c_v-2
 BYTE   W01
 BYTE   Ds3
 BYTE   W01
 BYTE   En3
 BYTE   W09
// 028   ----------------------------------------
 BYTE   N02
 BYTE   W12
 BYTE   N11  Fs1
 BYTE   W12
 BYTE   N02
 BYTE   W12
 BYTE   N11  Cs2
 BYTE   W12
 BYTE   N02  En1
 BYTE   W12
 BYTE   N11  Fs1
 BYTE   W12
 BYTE   N23  An1
 BYTE   W11
 BYTE   BEND   c_v-2
 BYTE   W02
 BYTE   Dn3
 BYTE   W01
 BYTE   Ds3
 BYTE   W01
 BYTE   En3
 BYTE   W09
// 029   ----------------------------------------
 BYTE   N11  Bn1
 BYTE   W24
 BYTE   N11
 BYTE   W12
 BYTE   N02
 BYTE   W12
 BYTE   Fs1
 BYTE   W11
 BYTE   BEND   c_v-2
 BYTE   W01
 BYTE   N11  Bn1
 BYTE   W01
 BYTE   BEND   c_v-2
 BYTE   W01
 BYTE   Ds3
 BYTE   W01
 BYTE   En3
 BYTE   W09
 BYTE   N02  Fs1
 BYTE   W11
 BYTE   BEND   c_v-2
 BYTE   W01
 BYTE   N11  Bn1
 BYTE   W01
 BYTE   BEND   c_v-2
 BYTE   W01
 BYTE   Ds3
 BYTE   W01
 BYTE   En3
 BYTE   W09
// 030   ----------------------------------------
 BYTE   W32
 BYTE   W03
 BYTE   Dn3
 BYTE   W02
 BYTE   Dn3
 BYTE   W01
 BYTE   Ds3
 BYTE   W01
 BYTE   En3
 BYTE   W20
 BYTE   Dn3
 BYTE   W02
 BYTE   Dn3
 BYTE   W01
 BYTE   Ds3
 BYTE   W01
 BYTE   En3
 BYTE   W32
 BYTE   W01
 BYTE   PATT
  POIN2 Label_5_015DAF2A
 BYTE   PATT
  POIN2 Label_5_015DAF47
 BYTE   PATT
  POIN2 Label_5_015DAF70
 BYTE   PATT
  POIN2 Label_5_015DAF8E
 BYTE   PATT
  POIN2 Label_5_015DAF2A
 BYTE   PATT
  POIN2 Label_5_015DAF47
 BYTE   PATT
  POIN2 Label_5_015DAFC1
 BYTE   PATT
  POIN2 Label_5_015DAFDF
 BYTE   PATT
  POIN2 Label_5_015DAE91
 BYTE   PATT
  POIN2 Label_5_015DAEAE
 BYTE   PATT
  POIN2 Label_5_015DAED0
 BYTE   PATT
  POIN2 Label_5_015DAEED
 BYTE   PATT
  POIN2 Label_5_015DAE91
 BYTE   PATT
  POIN2 Label_5_015DAEAE
 BYTE   PATT
  POIN2 Label_5_015DAED0
// 031   ----------------------------------------
 BYTE   N05  An1  v072
 BYTE   W12
 BYTE   An1  v112
 BYTE   W06
 BYTE   An1  v080
 BYTE   W06
 BYTE   N03  Cs1  v112
 BYTE   W12
 BYTE   N11  An1
 BYTE   W24
 BYTE   N03  Cs1
 BYTE   W12
 BYTE   N23  An1
 BYTE   W24
// 032   ----------------------------------------
 BYTE   TIE  Dn1  v100
 BYTE   W96
// 033   ----------------------------------------
 BYTE   W92
 BYTE   W03
 BYTE   EOT
 BYTE   W01
// 034   ----------------------------------------
 BYTE   TIE  En1
 BYTE   W96
// 035   ----------------------------------------
 BYTE   W92
 BYTE   W03
 BYTE   EOT
 BYTE   W01
// 036   ----------------------------------------
 BYTE   TIE  Dn1
 BYTE   W96
// 037   ----------------------------------------
 BYTE   W92
 BYTE   W03
 BYTE   EOT
 BYTE   W01
// 038   ----------------------------------------
 BYTE   TIE  En1
 BYTE   W96
// 039   ----------------------------------------
 BYTE   W92
 BYTE   W03
 BYTE   EOT
 BYTE   W01
// 040   ----------------------------------------
 BYTE   TIE  Dn1
 BYTE   W96
// 041   ----------------------------------------
 BYTE   W92
 BYTE   W03
 BYTE   EOT
 BYTE   W01
// 042   ----------------------------------------
 BYTE   TIE  En1
 BYTE   W96
// 043   ----------------------------------------
 BYTE   W92
 BYTE   W03
 BYTE   EOT
 BYTE   W01
// 044   ----------------------------------------
 BYTE   TIE  Dn1
 BYTE   W96
// 045   ----------------------------------------
 BYTE   W92
 BYTE   W03
 BYTE   EOT
 BYTE   W01
// 046   ----------------------------------------
 BYTE   TIE  En1
 BYTE   W96
// 047   ----------------------------------------
 BYTE   W92
 BYTE   W03
 BYTE   EOT
 BYTE   W01
// 048   ----------------------------------------
 BYTE   TIE  Dn1
 BYTE   W96
// 049   ----------------------------------------
 BYTE   W92
 BYTE   W03
 BYTE   EOT
 BYTE   W01
// 050   ----------------------------------------
 BYTE   TIE  En1
 BYTE   W96
// 051   ----------------------------------------
 BYTE   W92
 BYTE   W03
 BYTE   EOT
 BYTE   W01
// 052   ----------------------------------------
 BYTE   TIE  Dn1
 BYTE   W96
// 053   ----------------------------------------
 BYTE   W92
 BYTE   W03
 BYTE   EOT
 BYTE   W01
// 054   ----------------------------------------
 BYTE   TIE  En1
 BYTE   W96
// 055   ----------------------------------------
 BYTE   W92
 BYTE   W03
 BYTE   EOT
 BYTE   W01
// 056   ----------------------------------------
 BYTE   TIE  Dn1
 BYTE   W96
// 057   ----------------------------------------
 BYTE   W92
 BYTE   W03
 BYTE   EOT
 BYTE   W01
// 058   ----------------------------------------
 BYTE   TIE  En1
 BYTE   W96
// 059   ----------------------------------------
 BYTE   W92
 BYTE   W03
 BYTE   EOT
 BYTE   W01
// 060   ----------------------------------------
 BYTE   TIE  Dn1
 BYTE   W96
// 061   ----------------------------------------
 BYTE   W92
 BYTE   W03
 BYTE   EOT
 BYTE   W01
// 062   ----------------------------------------
 BYTE   N92  En1
 BYTE   W96
// 063   ----------------------------------------
Label_5_015DB17A:
 BYTE   N44  En1  v100
 BYTE   W48
 BYTE   Cs1
 BYTE   W48
 BYTE   PEND 
// 064   ----------------------------------------
 BYTE   TIE  Dn1
 BYTE   W96
// 065   ----------------------------------------
 BYTE   W92
 BYTE   W03
 BYTE   EOT
 BYTE   W01
// 066   ----------------------------------------
 BYTE   TIE  En1
 BYTE   W96
// 067   ----------------------------------------
 BYTE   W92
 BYTE   W03
 BYTE   EOT
 BYTE   W01
// 068   ----------------------------------------
 BYTE   TIE  Dn1
 BYTE   W96
// 069   ----------------------------------------
 BYTE   W92
 BYTE   W03
 BYTE   EOT
 BYTE   W01
// 070   ----------------------------------------
 BYTE   N92  En1
 BYTE   W96
 BYTE   PATT
  POIN2 Label_5_015DB17A
// 071   ----------------------------------------
Label_5_015DB19E:
 BYTE   N09  Dn1  v100
 BYTE   W12
 BYTE   N05  Dn2
 BYTE   W12
 BYTE   Dn2  v072
 BYTE   W12
 BYTE   Dn2  v100
 BYTE   W12
 BYTE   Dn2  v072
 BYTE   W12
 BYTE   Dn2  v100
 BYTE   W12
 BYTE   Dn2  v072
 BYTE   W12
 BYTE   Dn2  v100
 BYTE   W12
 BYTE   PEND 
// 072   ----------------------------------------
Label_5_015DB1B8:
 BYTE   N05  Dn2  v072
 BYTE   W12
 BYTE   Dn2  v100
 BYTE   W12
 BYTE   Dn2  v072
 BYTE   W12
 BYTE   Dn2  v100
 BYTE   W12
 BYTE   Dn2  v072
 BYTE   W12
 BYTE   Dn2  v100
 BYTE   W12
 BYTE   Dn2  v072
 BYTE   W12
 BYTE   N09  Dn2  v100
 BYTE   W12
 BYTE   PEND 
 BYTE   PATT
  POIN2 Label_5_015DB19E
 BYTE   PATT
  POIN2 Label_5_015DB1B8
 BYTE   PATT
  POIN2 Label_5_015DB19E
 BYTE   PATT
  POIN2 Label_5_015DB1B8
// 073   ----------------------------------------
 BYTE   N05  Dn2  v072
 BYTE   W12
 BYTE   Dn2  v100
 BYTE   W12
 BYTE   Dn2  v072
 BYTE   W12
 BYTE   Dn2  v100
 BYTE   W12
 BYTE   Dn2  v072
 BYTE   W12
 BYTE   Dn2  v100
 BYTE   W12
 BYTE   Dn2  v072
 BYTE   W12
 BYTE   En2  v100
 BYTE   W06
 BYTE   En2  v072
 BYTE   W06
// 074   ----------------------------------------
 BYTE   N03  En2  v100
 BYTE   W12
 BYTE   N05  Cs2
 BYTE   W06
 BYTE   Cs2  v072
 BYTE   W06
 BYTE   N03  Cs2  v100
 BYTE   W12
 BYTE   N05  Dn2
 BYTE   W06
 BYTE   Dn2  v072
 BYTE   W06
 BYTE   N03  Dn2  v100
 BYTE   W12
 BYTE   N05  An1
 BYTE   W06
 BYTE   An1  v072
 BYTE   W06
 BYTE   An1  v100
 BYTE   W06
 BYTE   An1  v072
 BYTE   W06
 BYTE   N11  An1  v100
 BYTE   W12
 BYTE   PATT
  POIN2 Label_5_015DAE91
 BYTE   PATT
  POIN2 Label_5_015DAEAE
 BYTE   PATT
  POIN2 Label_5_015DAED0
 BYTE   PATT
  POIN2 Label_5_015DAEED
// 075   ----------------------------------------
 BYTE   GoTo
  POIN2 Label_5_015DAF16
// 076   ----------------------------------------
 BYTE   PAN   c_v+0
 BYTE   VOL   40*SkyTower_mvl/mxv
 BYTE   MOD 0
 BYTE   CnM2
 BYTE   PAN   c_v+0
 BYTE   VOL   40*SkyTower_mvl/mxv
 BYTE   MOD 0
 BYTE   CnM2
 BYTE   PAN   c_v+0
 BYTE   VOL   40*SkyTower_mvl/mxv
 BYTE   MOD 0
 BYTE   CnM2
 BYTE   BEND   c_v+0
 BYTE   FINE

//**************** Track 7 (Midi-Chn.6) ****************//

SkyTower_007:
// 000   ----------------------------------------
 BYTE   KEYSH   SkyTower_key+0
 BYTE   VOICE   80
 BYTE   PAN   c_v+0
 BYTE   VOL   18*SkyTower_mvl/mxv
 BYTE   PAN   c_v+0
 BYTE   VOL   18*SkyTower_mvl/mxv
 BYTE   MOD 0
 BYTE   CnM2
 BYTE   PAN   c_v+0
 BYTE   VOL   18*SkyTower_mvl/mxv
 BYTE   MOD 0
 BYTE   CnM2
 BYTE   VOL   18*SkyTower_mvl/mxv
 BYTE   PAN   c_v+0
 BYTE   MOD 0
 BYTE   CnM2
 BYTE   PAN   c_v+0
 BYTE   VOL   18*SkyTower_mvl/mxv
 BYTE   MOD 0
 BYTE   CnM2
 BYTE   VOL   18*SkyTower_mvl/mxv
 BYTE   PAN   c_v+0
 BYTE   MOD 0
 BYTE   CnM2
 BYTE   BEND   c_v+0
 BYTE   W96
// 001   ----------------------------------------
 BYTE   W96
// 002   ----------------------------------------
 BYTE   W96
// 003   ----------------------------------------
 BYTE   W96
// 004   ----------------------------------------
Label_6_015DA49C:
 BYTE   N03  Fs4  v100
 BYTE   W12
 BYTE   N11  Bn3
 BYTE   W24
 BYTE   N03  Bn2
 BYTE   W11
 BYTE   PAN   c_v+30
 BYTE   W01
 BYTE   N03  Fs3
 BYTE   W11
 BYTE   PAN   c_v-30
 BYTE   W01
 BYTE   N03  Bn3
 BYTE   W11
 BYTE   PAN   c_v+30
 BYTE   W01
 BYTE   N03  Fs3
 BYTE   W11
 BYTE   PAN   c_v+0
 BYTE   W01
 BYTE   N11  Fs4
 BYTE   W12
 BYTE   PEND 
// 005   ----------------------------------------
Label_6_015DA4BF:
 BYTE   W11
 BYTE   PAN   c_v+30
 BYTE   W01
 BYTE   N03  Fs3  v100
 BYTE   W11
 BYTE   PAN   c_v-30
 BYTE   W01
 BYTE   N03  Bn3
 BYTE   W11
 BYTE   PAN   c_v+0
 BYTE   W01
 BYTE   N11  Fs4
 BYTE   W23
 BYTE   PAN   c_v+30
 BYTE   W01
 BYTE   N03  Fs3
 BYTE   W11
 BYTE   PAN   c_v-30
 BYTE   W01
 BYTE   N03  Bn3
 BYTE   W11
 BYTE   PAN   c_v+0
 BYTE   W01
 BYTE   N11  Fs3
 BYTE   W12
 BYTE   PEND 
 BYTE   PATT
  POIN2 Label_6_015DA49C
 BYTE   PATT
  POIN2 Label_6_015DA4BF
 BYTE   PATT
  POIN2 Label_6_015DA49C
 BYTE   PATT
  POIN2 Label_6_015DA4BF
 BYTE   PATT
  POIN2 Label_6_015DA49C
 BYTE   PATT
  POIN2 Label_6_015DA4BF
 BYTE   PATT
  POIN2 Label_6_015DA49C
 BYTE   PATT
  POIN2 Label_6_015DA4BF
 BYTE   PATT
  POIN2 Label_6_015DA49C
 BYTE   PATT
  POIN2 Label_6_015DA4BF
 BYTE   PATT
  POIN2 Label_6_015DA49C
 BYTE   PATT
  POIN2 Label_6_015DA4BF
 BYTE   PATT
  POIN2 Label_6_015DA49C
 BYTE   PATT
  POIN2 Label_6_015DA4BF
// 006   ----------------------------------------
Label_6_015DA52C:
 BYTE   PATT
  POIN2 Label_6_015DA49C
 BYTE   PATT
  POIN2 Label_6_015DA4BF
 BYTE   PATT
  POIN2 Label_6_015DA49C
 BYTE   PATT
  POIN2 Label_6_015DA4BF
 BYTE   PATT
  POIN2 Label_6_015DA49C
 BYTE   PATT
  POIN2 Label_6_015DA4BF
 BYTE   PATT
  POIN2 Label_6_015DA49C
 BYTE   PATT
  POIN2 Label_6_015DA4BF
 BYTE   PATT
  POIN2 Label_6_015DA49C
 BYTE   PATT
  POIN2 Label_6_015DA4BF
 BYTE   PATT
  POIN2 Label_6_015DA49C
 BYTE   PATT
  POIN2 Label_6_015DA4BF
 BYTE   PATT
  POIN2 Label_6_015DA49C
 BYTE   PATT
  POIN2 Label_6_015DA4BF
 BYTE   PATT
  POIN2 Label_6_015DA49C
 BYTE   PATT
  POIN2 Label_6_015DA4BF
 BYTE   PATT
  POIN2 Label_6_015DA49C
 BYTE   PATT
  POIN2 Label_6_015DA4BF
 BYTE   PATT
  POIN2 Label_6_015DA49C
// 007   ----------------------------------------
Label_6_015DA58B:
 BYTE   W11
 BYTE   PAN   c_v+30
 BYTE   W01
 BYTE   N03  Fs3  v100
 BYTE   W11
 BYTE   PAN   c_v-30
 BYTE   W01
 BYTE   N03  Bn3
 BYTE   W11
 BYTE   PAN   c_v+0
 BYTE   W01
 BYTE   N11  Fs4
 BYTE   W23
 BYTE   PAN   c_v+30
 BYTE   W01
 BYTE   N03  Fs3
 BYTE   W11
 BYTE   PAN   c_v-30
 BYTE   W01
 BYTE   N03  Bn3
 BYTE   W11
 BYTE   PAN   c_v+0
 BYTE   W01
 BYTE   N11  Fs3
 BYTE   W11
 BYTE   PAN   c_v+30
 BYTE   W01
 BYTE   PEND 
// 008   ----------------------------------------
Label_6_015DA5B5:
 BYTE   N03  Fs4  v100
 BYTE   W11
 BYTE   PAN   c_v+0
 BYTE   W01
 BYTE   N11  Bn3
 BYTE   W12
 BYTE   N03  Bn2
 BYTE   W11
 BYTE   PAN   c_v-30
 BYTE   W01
 BYTE   N03  Bn3
 BYTE   W11
 BYTE   PAN   c_v+0
 BYTE   W01
 BYTE   N03  Fs3
 BYTE   W11
 BYTE   PAN   c_v+30
 BYTE   W01
 BYTE   N03  Bn3
 BYTE   W11
 BYTE   PAN   c_v+0
 BYTE   W01
 BYTE   N03  Fs3
 BYTE   W12
 BYTE   N11  Fs4
 BYTE   W12
 BYTE   PEND 
// 009   ----------------------------------------
Label_6_015DA5DE:
 BYTE   N03  Bn2  v100
 BYTE   W11
 BYTE   PAN   c_v-30
 BYTE   W01
 BYTE   N03  Bn3
 BYTE   W11
 BYTE   PAN   c_v+0
 BYTE   W01
 BYTE   N03  Fs3
 BYTE   W12
 BYTE   N11  Bn4
 BYTE   W12
 BYTE   N03  Fs3
 BYTE   W11
 BYTE   PAN   c_v+30
 BYTE   W01
 BYTE   N03  Bn3
 BYTE   W11
 BYTE   PAN   c_v+0
 BYTE   W01
 BYTE   N03  Bn2
 BYTE   W12
 BYTE   N11  Fs3
 BYTE   W11
 BYTE   PAN   c_v+30
 BYTE   W01
 BYTE   PEND 
// 010   ----------------------------------------
 BYTE   N03  Bn2
 BYTE   W11
 BYTE   PAN   c_v+0
 BYTE   W01
 BYTE   N11  Bn3
 BYTE   W12
 BYTE   N03  Fs3
 BYTE   W11
 BYTE   PAN   c_v-30
 BYTE   W01
 BYTE   N03  Bn2
 BYTE   W11
 BYTE   PAN   c_v+0
 BYTE   W01
 BYTE   N03  Fs3
 BYTE   W11
 BYTE   PAN   c_v+30
 BYTE   W01
 BYTE   N03  Bn3
 BYTE   W11
 BYTE   PAN   c_v+0
 BYTE   W01
 BYTE   N03  Fs3
 BYTE   W12
 BYTE   N11  Bn3
 BYTE   W12
// 011   ----------------------------------------
 BYTE   W12
 BYTE   Fs3
 BYTE   W24
 BYTE   An3
 BYTE   W24
 BYTE   En3
 BYTE   W36
 BYTE   PATT
  POIN2 Label_6_015DA49C
 BYTE   PATT
  POIN2 Label_6_015DA4BF
 BYTE   PATT
  POIN2 Label_6_015DA49C
 BYTE   PATT
  POIN2 Label_6_015DA4BF
 BYTE   PATT
  POIN2 Label_6_015DA49C
 BYTE   PATT
  POIN2 Label_6_015DA4BF
 BYTE   PATT
  POIN2 Label_6_015DA49C
 BYTE   PATT
  POIN2 Label_6_015DA4BF
 BYTE   PATT
  POIN2 Label_6_015DA49C
 BYTE   PATT
  POIN2 Label_6_015DA4BF
 BYTE   PATT
  POIN2 Label_6_015DA49C
 BYTE   PATT
  POIN2 Label_6_015DA58B
 BYTE   PATT
  POIN2 Label_6_015DA5B5
 BYTE   PATT
  POIN2 Label_6_015DA5DE
// 012   ----------------------------------------
Label_6_015DA67B:
 BYTE   N03  Bn2  v100
 BYTE   W11
 BYTE   PAN   c_v+0
 BYTE   W01
 BYTE   N11  Bn3
 BYTE   W12
 BYTE   N03  Fs3
 BYTE   W11
 BYTE   PAN   c_v-30
 BYTE   W01
 BYTE   N03  Bn2
 BYTE   W11
 BYTE   PAN   c_v+0
 BYTE   W01
 BYTE   N03  Fs3
 BYTE   W11
 BYTE   PAN   c_v+30
 BYTE   W01
 BYTE   N03  Bn3
 BYTE   W11
 BYTE   PAN   c_v+0
 BYTE   W01
 BYTE   N03  Fs3
 BYTE   W12
 BYTE   N11  Fs4
 BYTE   W12
 BYTE   PEND 
// 013   ----------------------------------------
 BYTE   N03  Fs3
 BYTE   W11
 BYTE   PAN   c_v-30
 BYTE   W01
 BYTE   N11  Fs4
 BYTE   W11
 BYTE   PAN   c_v+0
 BYTE   W01
 BYTE   N03  Fs3
 BYTE   W12
 BYTE   N11  Fs4
 BYTE   W24
 BYTE   N03  Fs3
 BYTE   W11
 BYTE   PAN   c_v+30
 BYTE   W01
 BYTE   N23  Fs4
 BYTE   W11
 BYTE   PAN   c_v+0
 BYTE   W13
// 014   ----------------------------------------
Label_6_015DA6C2:
 BYTE   N03  En4  v100
 BYTE   W12
 BYTE   N11  An3
 BYTE   W23
 BYTE   PAN   c_v-30
 BYTE   W01
 BYTE   N03  En3
 BYTE   W11
 BYTE   PAN   c_v+0
 BYTE   W01
 BYTE   N03  An3
 BYTE   W11
 BYTE   PAN   c_v+30
 BYTE   W01
 BYTE   N03  En4
 BYTE   W11
 BYTE   PAN   c_v+0
 BYTE   W01
 BYTE   N03  En3
 BYTE   W12
 BYTE   N11  An3
 BYTE   W12
 BYTE   PEND 
// 015   ----------------------------------------
Label_6_015DA6E5:
 BYTE   N03  An3  v100
 BYTE   W11
 BYTE   PAN   c_v-30
 BYTE   W01
 BYTE   N03  En4
 BYTE   W11
 BYTE   PAN   c_v+0
 BYTE   W01
 BYTE   N03  An3
 BYTE   W12
 BYTE   N11  An4
 BYTE   W12
 BYTE   N03  An3
 BYTE   W11
 BYTE   PAN   c_v+30
 BYTE   W01
 BYTE   N03  En4
 BYTE   W11
 BYTE   PAN   c_v+0
 BYTE   W01
 BYTE   N03  En3
 BYTE   W12
 BYTE   N11  An3
 BYTE   W11
 BYTE   PAN   c_v+30
 BYTE   W01
 BYTE   PEND 
// 016   ----------------------------------------
Label_6_015DA70E:
 BYTE   N03  Fs4  v100
 BYTE   W11
 BYTE   PAN   c_v+0
 BYTE   W01
 BYTE   N11  Bn3
 BYTE   W23
 BYTE   PAN   c_v-30
 BYTE   W01
 BYTE   N03  Fs3
 BYTE   W11
 BYTE   PAN   c_v+0
 BYTE   W01
 BYTE   N03  Bn3
 BYTE   W11
 BYTE   PAN   c_v+30
 BYTE   W01
 BYTE   N03  Fs4
 BYTE   W11
 BYTE   PAN   c_v+0
 BYTE   W01
 BYTE   N03  Fs3
 BYTE   W12
 BYTE   N11  Bn3
 BYTE   W12
 BYTE   PEND 
// 017   ----------------------------------------
 BYTE   N03
 BYTE   W11
 BYTE   PAN   c_v-30
 BYTE   W01
 BYTE   N03  Fs4
 BYTE   W11
 BYTE   PAN   c_v+0
 BYTE   W01
 BYTE   N03  Bn3
 BYTE   W12
 BYTE   N11  Bn4
 BYTE   W12
 BYTE   N03  Bn3
 BYTE   W11
 BYTE   PAN   c_v+30
 BYTE   W01
 BYTE   N03  Fs4
 BYTE   W11
 BYTE   PAN   c_v+0
 BYTE   W01
 BYTE   N03  Fs3
 BYTE   W12
 BYTE   N11  Bn3
 BYTE   W12
 BYTE   PATT
  POIN2 Label_6_015DA6C2
 BYTE   PATT
  POIN2 Label_6_015DA6E5
 BYTE   PATT
  POIN2 Label_6_015DA70E
// 018   ----------------------------------------
 BYTE   N03  Bn3  v100
 BYTE   W11
 BYTE   PAN   c_v-30
 BYTE   W01
 BYTE   N03  Fs4
 BYTE   W11
 BYTE   PAN   c_v+0
 BYTE   W01
 BYTE   N03  Bn3
 BYTE   W12
 BYTE   N11  Bn4
 BYTE   W12
 BYTE   N03  Bn3
 BYTE   W11
 BYTE   PAN   c_v+30
 BYTE   W01
 BYTE   N03  Fs4
 BYTE   W11
 BYTE   PAN   c_v+0
 BYTE   W01
 BYTE   N03  Fs3
 BYTE   W12
 BYTE   N11  Bn3
 BYTE   W11
 BYTE   PAN   c_v+30
 BYTE   W01
// 019   ----------------------------------------
Label_6_015DA78E:
 BYTE   N03  En4  v100
 BYTE   W11
 BYTE   PAN   c_v+0
 BYTE   W01
 BYTE   N11  An3
 BYTE   W23
 BYTE   PAN   c_v-30
 BYTE   W01
 BYTE   N03  En3
 BYTE   W11
 BYTE   PAN   c_v+0
 BYTE   W01
 BYTE   N03  An3
 BYTE   W11
 BYTE   PAN   c_v+30
 BYTE   W01
 BYTE   N03  En4
 BYTE   W11
 BYTE   PAN   c_v+0
 BYTE   W01
 BYTE   N03  En3
 BYTE   W12
 BYTE   N11  An3
 BYTE   W12
 BYTE   PEND 
 BYTE   PATT
  POIN2 Label_6_015DA6E5
 BYTE   PATT
  POIN2 Label_6_015DA70E
// 020   ----------------------------------------
Label_6_015DA7BE:
 BYTE   N03  Bn3  v100
 BYTE   W11
 BYTE   PAN   c_v-63
 BYTE   W01
 BYTE   N03  Fs4
 BYTE   W11
 BYTE   PAN   c_v+33
 BYTE   W01
 BYTE   N03  Bn3
 BYTE   W12
 BYTE   N11  Bn4
 BYTE   W12
 BYTE   N03  Bn3
 BYTE   W11
 BYTE   PAN   c_v+30
 BYTE   W01
 BYTE   N03  Fs4
 BYTE   W11
 BYTE   PAN   c_v+0
 BYTE   W01
 BYTE   N03  Fs3
 BYTE   W12
 BYTE   N11  Bn3
 BYTE   W11
 BYTE   PAN   c_v+30
 BYTE   W01
 BYTE   PEND 
 BYTE   PATT
  POIN2 Label_6_015DA78E
 BYTE   PATT
  POIN2 Label_6_015DA6E5
 BYTE   PATT
  POIN2 Label_6_015DA70E
 BYTE   PATT
  POIN2 Label_6_015DA7BE
 BYTE   PATT
  POIN2 Label_6_015DA78E
 BYTE   PATT
  POIN2 Label_6_015DA6E5
 BYTE   PATT
  POIN2 Label_6_015DA70E
 BYTE   PATT
  POIN2 Label_6_015DA7BE
 BYTE   PATT
  POIN2 Label_6_015DA78E
 BYTE   PATT
  POIN2 Label_6_015DA6E5
 BYTE   PATT
  POIN2 Label_6_015DA70E
 BYTE   PATT
  POIN2 Label_6_015DA7BE
 BYTE   PATT
  POIN2 Label_6_015DA78E
 BYTE   PATT
  POIN2 Label_6_015DA6E5
 BYTE   PATT
  POIN2 Label_6_015DA70E
 BYTE   PATT
  POIN2 Label_6_015DA7BE
 BYTE   PATT
  POIN2 Label_6_015DA78E
 BYTE   PATT
  POIN2 Label_6_015DA6E5
 BYTE   PATT
  POIN2 Label_6_015DA70E
// 021   ----------------------------------------
 BYTE   N03  Bn3  v100
 BYTE   W11
 BYTE   PAN   c_v-63
 BYTE   W01
 BYTE   N03  Fs4
 BYTE   W11
 BYTE   PAN   c_v+33
 BYTE   W01
 BYTE   N03  Bn3
 BYTE   W12
 BYTE   N11  Bn4
 BYTE   W12
 BYTE   N03  Bn3
 BYTE   W11
 BYTE   PAN   c_v+30
 BYTE   W01
 BYTE   N03  Fs4
 BYTE   W11
 BYTE   PAN   c_v+0
 BYTE   W01
 BYTE   N03  Fs3
 BYTE   W12
 BYTE   N11  Bn3
 BYTE   W12
// 022   ----------------------------------------
Label_6_015DA86B:
 BYTE   W11
 BYTE   PAN   c_v-30
 BYTE   W01
 BYTE   N09  Fs4  v080
 BYTE   W23
 BYTE   PAN   c_v+30
 BYTE   W01
 BYTE   N09
 BYTE   W23
 BYTE   PAN   c_v-30
 BYTE   W01
 BYTE   N09
 BYTE   W23
 BYTE   PAN   c_v+30
 BYTE   W01
 BYTE   N09
 BYTE   W12
 BYTE   PEND 
// 023   ----------------------------------------
Label_6_015DA883:
 BYTE   W11
 BYTE   PAN   c_v-30
 BYTE   W01
 BYTE   N09  Fs4  v080
 BYTE   W23
 BYTE   PAN   c_v+30
 BYTE   W01
 BYTE   N09
 BYTE   W23
 BYTE   PAN   c_v-30
 BYTE   W01
 BYTE   N09
 BYTE   W23
 BYTE   PAN   c_v+30
 BYTE   W01
 BYTE   N09  Cs4
 BYTE   W11
 BYTE   PAN   c_v+0
 BYTE   W01
 BYTE   PEND 
 BYTE   PATT
  POIN2 Label_6_015DA86B
 BYTE   PATT
  POIN2 Label_6_015DA883
 BYTE   PATT
  POIN2 Label_6_015DA86B
 BYTE   PATT
  POIN2 Label_6_015DA883
 BYTE   PATT
  POIN2 Label_6_015DA86B
// 024   ----------------------------------------
 BYTE   W11
 BYTE   PAN   c_v-30
 BYTE   W01
 BYTE   N09  Fs4  v080
 BYTE   W23
 BYTE   PAN   c_v+30
 BYTE   W01
 BYTE   N09
 BYTE   W23
 BYTE   PAN   c_v-30
 BYTE   W01
 BYTE   N09
 BYTE   W23
 BYTE   PAN   c_v+30
 BYTE   W01
 BYTE   N09  Cs4
 BYTE   W12
 BYTE   PATT
  POIN2 Label_6_015DA5B5
 BYTE   PATT
  POIN2 Label_6_015DA5DE
 BYTE   PATT
  POIN2 Label_6_015DA67B
// 025   ----------------------------------------
 BYTE   N03  Bn2  v100
 BYTE   W11
 BYTE   PAN   c_v-30
 BYTE   W01
 BYTE   N03  Bn3
 BYTE   W11
 BYTE   PAN   c_v+0
 BYTE   W01
 BYTE   N03  Fs3
 BYTE   W12
 BYTE   N11  Bn4
 BYTE   W12
 BYTE   N03  Fs3
 BYTE   W12
 BYTE   N11  Bn3
 BYTE   W11
 BYTE   PAN   c_v+30
 BYTE   W01
 BYTE   N03  Fs4
 BYTE   W11
 BYTE   PAN   c_v+0
 BYTE   W01
 BYTE   N11  Fs3
 BYTE   W11
 BYTE   PAN   c_v+30
 BYTE   W01
 BYTE   PATT
  POIN2 Label_6_015DA5B5
 BYTE   PATT
  POIN2 Label_6_015DA5DE
 BYTE   PATT
  POIN2 Label_6_015DA67B
// 026   ----------------------------------------
 BYTE   N03  Bn2  v100
 BYTE   W11
 BYTE   PAN   c_v-30
 BYTE   W01
 BYTE   N03  Bn3
 BYTE   W11
 BYTE   PAN   c_v+0
 BYTE   W01
 BYTE   N03  Fs3
 BYTE   W12
 BYTE   N11  Bn4
 BYTE   W12
 BYTE   N03  Fs3
 BYTE   W12
 BYTE   N11  Bn3
 BYTE   W11
 BYTE   PAN   c_v+30
 BYTE   W01
 BYTE   N03  Fs4
 BYTE   W11
 BYTE   PAN   c_v+0
 BYTE   W01
 BYTE   N11  Fs3
 BYTE   W12
 BYTE   PATT
  POIN2 Label_6_015DA49C
 BYTE   PATT
  POIN2 Label_6_015DA4BF
 BYTE   PATT
  POIN2 Label_6_015DA49C
 BYTE   PATT
  POIN2 Label_6_015DA4BF
// 027   ----------------------------------------
 BYTE   GoTo
  POIN2 Label_6_015DA52C
// 028   ----------------------------------------
 BYTE   PAN   c_v+0
 BYTE   VOL   18*SkyTower_mvl/mxv
 BYTE   MOD 0
 BYTE   CnM2
 BYTE   PAN   c_v+0
 BYTE   VOL   18*SkyTower_mvl/mxv
 BYTE   MOD 0
 BYTE   CnM2
 BYTE   PAN   c_v+0
 BYTE   VOL   18*SkyTower_mvl/mxv
 BYTE   MOD 0
 BYTE   CnM2
 BYTE   BEND   c_v+0
 BYTE   FINE

//**************** Track 8 (Midi-Chn.7) ****************//

SkyTower_008:
// 000   ----------------------------------------
 BYTE   KEYSH   SkyTower_key+0
 BYTE   VOICE   77
 BYTE   PAN   c_v+0
 BYTE   VOL   20*SkyTower_mvl/mxv
 BYTE   PAN   c_v+0
 BYTE   VOL   20*SkyTower_mvl/mxv
 BYTE   MOD 0
 BYTE   CnM2
 BYTE   PAN   c_v+0
 BYTE   VOL   20*SkyTower_mvl/mxv
 BYTE   MOD 0
 BYTE   CnM2
 BYTE   VOL   20*SkyTower_mvl/mxv
 BYTE   PAN   c_v+0
 BYTE   MOD 0
 BYTE   CnM2
 BYTE   PAN   c_v+0
 BYTE   VOL   20*SkyTower_mvl/mxv
 BYTE   MOD 0
 BYTE   CnM2
 BYTE   VOL   20*SkyTower_mvl/mxv
 BYTE   PAN   c_v+0
 BYTE   MOD 0
 BYTE   CnM2
 BYTE   BEND   c_v+0
 BYTE   W96
// 001   ----------------------------------------
 BYTE   W96
// 002   ----------------------------------------
 BYTE   W96
// 003   ----------------------------------------
 BYTE   W96
// 004   ----------------------------------------
 BYTE   W96
// 005   ----------------------------------------
 BYTE   W96
// 006   ----------------------------------------
 BYTE   W96
// 007   ----------------------------------------
 BYTE   W96
// 008   ----------------------------------------
 BYTE   W96
// 009   ----------------------------------------
 BYTE   W96
// 010   ----------------------------------------
 BYTE   W96
// 011   ----------------------------------------
Label_7_015D92E3:
 BYTE   W92
 BYTE   W03
 BYTE   PAN   c_v+40
 BYTE   W01
 BYTE   PEND 
// 012   ----------------------------------------
Label_7_015D92E9:
 BYTE   N01  Bn3  v100
 BYTE   W05
 BYTE   PAN   c_v-40
 BYTE   W01
 BYTE   N01  En3
 BYTE   W05
 BYTE   PAN   c_v+40
 BYTE   W01
 BYTE   N01  Fs3
 BYTE   W05
 BYTE   PAN   c_v-40
 BYTE   W01
 BYTE   N01  Bn3
 BYTE   W05
 BYTE   PAN   c_v+40
 BYTE   W01
 BYTE   N01  En3
 BYTE   W05
 BYTE   PAN   c_v-40
 BYTE   W01
 BYTE   N01  Fs3
 BYTE   W05
 BYTE   PAN   c_v+40
 BYTE   W01
 BYTE   N01  Bn3
 BYTE   W05
 BYTE   PAN   c_v-40
 BYTE   W01
 BYTE   N01  En3
 BYTE   W05
 BYTE   PAN   c_v+40
 BYTE   W01
 BYTE   N01  Fs3
 BYTE   W05
 BYTE   PAN   c_v-40
 BYTE   W01
 BYTE   N01  Bn3
 BYTE   W05
 BYTE   PAN   c_v+40
 BYTE   W01
 BYTE   N01  En3
 BYTE   W05
 BYTE   PAN   c_v-40
 BYTE   W01
 BYTE   N01  Fs3
 BYTE   W05
 BYTE   PAN   c_v+40
 BYTE   W01
 BYTE   N01  Bn3
 BYTE   W05
 BYTE   PAN   c_v-40
 BYTE   W01
 BYTE   N01  En3
 BYTE   W05
 BYTE   PAN   c_v+40
 BYTE   W01
 BYTE   N01  Fs3
 BYTE   W12
 BYTE   PEND 
 BYTE   PATT
  POIN2 Label_7_015D92E9
 BYTE   PATT
  POIN2 Label_7_015D92E9
 BYTE   PATT
  POIN2 Label_7_015D92E9
 BYTE   PATT
  POIN2 Label_7_015D92E9
 BYTE   PATT
  POIN2 Label_7_015D92E9
 BYTE   PATT
  POIN2 Label_7_015D92E9
 BYTE   PATT
  POIN2 Label_7_015D92E9
// 013   ----------------------------------------
Label_7_015D9365:
 BYTE   PATT
  POIN2 Label_7_015D92E9
 BYTE   PATT
  POIN2 Label_7_015D92E9
 BYTE   PATT
  POIN2 Label_7_015D92E9
 BYTE   PATT
  POIN2 Label_7_015D92E9
 BYTE   PATT
  POIN2 Label_7_015D92E9
 BYTE   PATT
  POIN2 Label_7_015D92E9
 BYTE   PATT
  POIN2 Label_7_015D92E9
 BYTE   PATT
  POIN2 Label_7_015D92E9
 BYTE   PATT
  POIN2 Label_7_015D92E9
 BYTE   PATT
  POIN2 Label_7_015D92E9
 BYTE   PATT
  POIN2 Label_7_015D92E9
 BYTE   PATT
  POIN2 Label_7_015D92E9
 BYTE   PATT
  POIN2 Label_7_015D92E9
 BYTE   PATT
  POIN2 Label_7_015D92E9
 BYTE   PATT
  POIN2 Label_7_015D92E9
 BYTE   PATT
  POIN2 Label_7_015D92E9
 BYTE   PATT
  POIN2 Label_7_015D92E9
 BYTE   PATT
  POIN2 Label_7_015D92E9
 BYTE   PATT
  POIN2 Label_7_015D92E9
 BYTE   PATT
  POIN2 Label_7_015D92E9
 BYTE   PATT
  POIN2 Label_7_015D92E9
 BYTE   PATT
  POIN2 Label_7_015D92E9
 BYTE   PATT
  POIN2 Label_7_015D92E9
// 014   ----------------------------------------
 BYTE   W96
 BYTE   PATT
  POIN2 Label_7_015D92E9
 BYTE   PATT
  POIN2 Label_7_015D92E9
 BYTE   PATT
  POIN2 Label_7_015D92E9
 BYTE   PATT
  POIN2 Label_7_015D92E9
 BYTE   PATT
  POIN2 Label_7_015D92E9
 BYTE   PATT
  POIN2 Label_7_015D92E9
 BYTE   PATT
  POIN2 Label_7_015D92E9
 BYTE   PATT
  POIN2 Label_7_015D92E9
 BYTE   PATT
  POIN2 Label_7_015D92E9
 BYTE   PATT
  POIN2 Label_7_015D92E9
 BYTE   PATT
  POIN2 Label_7_015D92E9
 BYTE   PATT
  POIN2 Label_7_015D92E9
 BYTE   PATT
  POIN2 Label_7_015D92E9
 BYTE   PATT
  POIN2 Label_7_015D92E9
 BYTE   PATT
  POIN2 Label_7_015D92E9
// 015   ----------------------------------------
 BYTE   W92
 BYTE   W03
 BYTE   VOL   34*SkyTower_mvl/mxv
 BYTE   PAN   c_v+0
 BYTE   W01
// 016   ----------------------------------------
Label_7_015D942B:
 BYTE   N02  Cs3  v088
 BYTE   W11
 BYTE   PAN   c_v+20
 BYTE   W01
 BYTE   N02  Cs4  v092
 BYTE   W12
 BYTE   Cs4  v052
 BYTE   W11
 BYTE   PAN   c_v-20
 BYTE   W01
 BYTE   N02  Fs4  v092
 BYTE   W12
 BYTE   Fs4  v052
 BYTE   W11
 BYTE   PAN   c_v+20
 BYTE   W01
 BYTE   N02  Cs4  v092
 BYTE   W12
 BYTE   Cs4  v052
 BYTE   W10
 BYTE   PAN   c_v-20
 BYTE   W02
 BYTE   N02  An4  v092
 BYTE   W12
 BYTE   PEND 
// 017   ----------------------------------------
 BYTE   An4  v052
 BYTE   W10
 BYTE   PAN   c_v+20
 BYTE   W02
 BYTE   N02  Fs4  v092
 BYTE   W12
 BYTE   Fs4  v052
 BYTE   W11
 BYTE   PAN   c_v-20
 BYTE   W01
 BYTE   N02  Cs5  v092
 BYTE   W12
 BYTE   Cs5  v052
 BYTE   W11
 BYTE   PAN   c_v+20
 BYTE   W01
 BYTE   N02  An4  v092
 BYTE   W11
 BYTE   PAN   c_v+0
 BYTE   W01
 BYTE   N02  En4
 BYTE   W12
 BYTE   En4  v052
 BYTE   W12
// 018   ----------------------------------------
Label_7_015D947C:
 BYTE   N02  Ds3  v088
 BYTE   W11
 BYTE   PAN   c_v+20
 BYTE   W01
 BYTE   N02  Ds4  v092
 BYTE   W12
 BYTE   Ds4  v052
 BYTE   W11
 BYTE   PAN   c_v-20
 BYTE   W01
 BYTE   N02  Gs4  v092
 BYTE   W12
 BYTE   Gs4  v052
 BYTE   W11
 BYTE   PAN   c_v+20
 BYTE   W01
 BYTE   N02  Ds4  v092
 BYTE   W12
 BYTE   Ds4  v052
 BYTE   W10
 BYTE   PAN   c_v-20
 BYTE   W02
 BYTE   N02  Bn4  v092
 BYTE   W12
 BYTE   PEND 
// 019   ----------------------------------------
 BYTE   Bn4  v052
 BYTE   W10
 BYTE   PAN   c_v+20
 BYTE   W02
 BYTE   N02  Gs4  v092
 BYTE   W12
 BYTE   Gs4  v052
 BYTE   W11
 BYTE   PAN   c_v-20
 BYTE   W01
 BYTE   N02  Ds5  v092
 BYTE   W12
 BYTE   Ds5  v052
 BYTE   W11
 BYTE   PAN   c_v+20
 BYTE   W01
 BYTE   N02  Bn4  v092
 BYTE   W11
 BYTE   PAN   c_v+0
 BYTE   W01
 BYTE   N02  Fs4
 BYTE   W12
 BYTE   Fs4  v052
 BYTE   W12
 BYTE   PATT
  POIN2 Label_7_015D942B
// 020   ----------------------------------------
 BYTE   N02  An4  v052
 BYTE   W10
 BYTE   PAN   c_v+20
 BYTE   W02
 BYTE   N02  Fs4  v092
 BYTE   W12
 BYTE   Fs4  v052
 BYTE   W11
 BYTE   PAN   c_v-20
 BYTE   W01
 BYTE   N02  Cs5  v092
 BYTE   W12
 BYTE   Cs5  v052
 BYTE   W11
 BYTE   PAN   c_v+20
 BYTE   W01
 BYTE   N02  An4  v092
 BYTE   W11
 BYTE   PAN   c_v+0
 BYTE   W01
 BYTE   N02  En5
 BYTE   W12
 BYTE   En5  v052
 BYTE   W12
 BYTE   PATT
  POIN2 Label_7_015D947C
// 021   ----------------------------------------
 BYTE   N02  Bn4  v052
 BYTE   W10
 BYTE   PAN   c_v+20
 BYTE   W02
 BYTE   N02  Gs4  v092
 BYTE   W12
 BYTE   Gs4  v052
 BYTE   W11
 BYTE   PAN   c_v-20
 BYTE   W01
 BYTE   N02  Ds5  v092
 BYTE   W12
 BYTE   Ds5  v052
 BYTE   W11
 BYTE   PAN   c_v+20
 BYTE   W01
 BYTE   N02  Bn4  v092
 BYTE   W11
 BYTE   PAN   c_v+0
 BYTE   W01
 BYTE   N02  Gs4
 BYTE   W23
 BYTE   VOL   20*SkyTower_mvl/mxv
 BYTE   PAN   c_v+40
 BYTE   W01
// 022   ----------------------------------------
Label_7_015D9529:
 BYTE   N01  Fs4  v100
 BYTE   W05
 BYTE   PAN   c_v-40
 BYTE   W01
 BYTE   N01  Bn3
 BYTE   W05
 BYTE   PAN   c_v+40
 BYTE   W01
 BYTE   N01  Cs4
 BYTE   W05
 BYTE   PAN   c_v-40
 BYTE   W01
 BYTE   N01  Fs4
 BYTE   W05
 BYTE   PAN   c_v+40
 BYTE   W01
 BYTE   N01  Bn3
 BYTE   W05
 BYTE   PAN   c_v-40
 BYTE   W01
 BYTE   N01  Cs4
 BYTE   W05
 BYTE   PAN   c_v+40
 BYTE   W01
 BYTE   N01  Fs4
 BYTE   W05
 BYTE   PAN   c_v-40
 BYTE   W01
 BYTE   N01  Bn3
 BYTE   W05
 BYTE   PAN   c_v+40
 BYTE   W01
 BYTE   N01  Cs4
 BYTE   W05
 BYTE   PAN   c_v-40
 BYTE   W01
 BYTE   N01  Fs4
 BYTE   W05
 BYTE   PAN   c_v+40
 BYTE   W01
 BYTE   N01  Bn3
 BYTE   W05
 BYTE   PAN   c_v-40
 BYTE   W01
 BYTE   N01  Cs4
 BYTE   W05
 BYTE   PAN   c_v+40
 BYTE   W01
 BYTE   N01  Fs4
 BYTE   W05
 BYTE   PAN   c_v-40
 BYTE   W01
 BYTE   N01  Bn3
 BYTE   W05
 BYTE   PAN   c_v+40
 BYTE   W01
 BYTE   N01  Cs4
 BYTE   W05
 BYTE   PAN   c_v-40
 BYTE   W01
 BYTE   N01  Fs3
 BYTE   W05
 BYTE   PAN   c_v+40
 BYTE   W01
 BYTE   PEND 
 BYTE   PATT
  POIN2 Label_7_015D9529
 BYTE   PATT
  POIN2 Label_7_015D9529
 BYTE   PATT
  POIN2 Label_7_015D9529
 BYTE   PATT
  POIN2 Label_7_015D9529
 BYTE   PATT
  POIN2 Label_7_015D9529
 BYTE   PATT
  POIN2 Label_7_015D9529
 BYTE   PATT
  POIN2 Label_7_015D9529
 BYTE   PATT
  POIN2 Label_7_015D9529
 BYTE   PATT
  POIN2 Label_7_015D9529
 BYTE   PATT
  POIN2 Label_7_015D9529
 BYTE   PATT
  POIN2 Label_7_015D9529
 BYTE   PATT
  POIN2 Label_7_015D9529
 BYTE   PATT
  POIN2 Label_7_015D9529
 BYTE   PATT
  POIN2 Label_7_015D9529
// 023   ----------------------------------------
 BYTE   N01  Fs4  v100
 BYTE   W05
 BYTE   PAN   c_v-40
 BYTE   W01
 BYTE   N01  Bn3
 BYTE   W05
 BYTE   PAN   c_v+40
 BYTE   W01
 BYTE   N01  Cs4
 BYTE   W05
 BYTE   PAN   c_v-40
 BYTE   W01
 BYTE   N01  Fs4
 BYTE   W05
 BYTE   PAN   c_v+40
 BYTE   W01
 BYTE   N01  Bn3
 BYTE   W05
 BYTE   PAN   c_v-40
 BYTE   W01
 BYTE   N01  Cs4
 BYTE   W05
 BYTE   PAN   c_v+40
 BYTE   W01
 BYTE   N01  Fs4
 BYTE   W05
 BYTE   PAN   c_v-40
 BYTE   W01
 BYTE   N01  Bn3
 BYTE   W05
 BYTE   PAN   c_v+40
 BYTE   W01
 BYTE   N01  Cs4
 BYTE   W05
 BYTE   PAN   c_v-40
 BYTE   W01
 BYTE   N01  Fs4
 BYTE   W05
 BYTE   PAN   c_v+40
 BYTE   W01
 BYTE   N01  Bn3
 BYTE   W05
 BYTE   PAN   c_v-40
 BYTE   W01
 BYTE   N01  Cs4
 BYTE   W05
 BYTE   PAN   c_v+40
 BYTE   W01
 BYTE   N01  Fs4
 BYTE   W05
 BYTE   PAN   c_v-40
 BYTE   W01
 BYTE   N01  Bn3
 BYTE   W05
 BYTE   PAN   c_v+40
 BYTE   W01
 BYTE   N01  Cs4
 BYTE   W05
 BYTE   PAN   c_v-40
 BYTE   W01
 BYTE   N01  Fs3
 BYTE   W05
 BYTE   VOL   34*SkyTower_mvl/mxv
 BYTE   PAN   c_v+0
 BYTE   W01
// 024   ----------------------------------------
Label_7_015D9634:
 BYTE   N02  Cs3  v108
 BYTE   W11
 BYTE   PAN   c_v+20
 BYTE   W01
 BYTE   N02  Cs4  v112
 BYTE   W12
 BYTE   Cs4  v048
 BYTE   W11
 BYTE   PAN   c_v-20
 BYTE   W01
 BYTE   N02  Cs4  v112
 BYTE   W12
 BYTE   Cs4  v048
 BYTE   W11
 BYTE   PAN   c_v+20
 BYTE   W01
 BYTE   N02  Cs4  v112
 BYTE   W12
 BYTE   Cs4  v048
 BYTE   W10
 BYTE   PAN   c_v-20
 BYTE   W02
 BYTE   N02  Cs4  v112
 BYTE   W12
 BYTE   PEND 
// 025   ----------------------------------------
Label_7_015D965E:
 BYTE   N02  Cs4  v048
 BYTE   W10
 BYTE   PAN   c_v+20
 BYTE   W02
 BYTE   N02  Cs4  v112
 BYTE   W12
 BYTE   Cs4  v048
 BYTE   W11
 BYTE   PAN   c_v-20
 BYTE   W01
 BYTE   N02  Cs4  v112
 BYTE   W12
 BYTE   Cs4  v048
 BYTE   W11
 BYTE   PAN   c_v+20
 BYTE   W01
 BYTE   N02  Cs4  v112
 BYTE   W12
 BYTE   Cs4  v048
 BYTE   W11
 BYTE   PAN   c_v-20
 BYTE   W01
 BYTE   N02  Cs4  v112
 BYTE   W11
 BYTE   PAN   c_v+0
 BYTE   W01
 BYTE   PEND 
// 026   ----------------------------------------
Label_7_015D968B:
 BYTE   N02  Fs3  v108
 BYTE   W11
 BYTE   PAN   c_v+20
 BYTE   W01
 BYTE   N02  Cs4  v112
 BYTE   W12
 BYTE   Cs4  v048
 BYTE   W11
 BYTE   PAN   c_v-20
 BYTE   W01
 BYTE   N02  Cs4  v112
 BYTE   W12
 BYTE   Cs4  v048
 BYTE   W11
 BYTE   PAN   c_v+20
 BYTE   W01
 BYTE   N02  Cs4  v112
 BYTE   W12
 BYTE   Cs4  v048
 BYTE   W10
 BYTE   PAN   c_v-20
 BYTE   W02
 BYTE   N02  Cs4  v112
 BYTE   W12
 BYTE   PEND 
 BYTE   PATT
  POIN2 Label_7_015D965E
 BYTE   PATT
  POIN2 Label_7_015D9634
// 027   ----------------------------------------
Label_7_015D96BF:
 BYTE   N02  Cs4  v048
 BYTE   W10
 BYTE   PAN   c_v+20
 BYTE   W02
 BYTE   N02  Cs4  v112
 BYTE   W12
 BYTE   Cs4  v048
 BYTE   W11
 BYTE   PAN   c_v-20
 BYTE   W01
 BYTE   N02  Cs4  v112
 BYTE   W12
 BYTE   Cs4  v048
 BYTE   W11
 BYTE   PAN   c_v+20
 BYTE   W01
 BYTE   N02  Cs4  v112
 BYTE   W11
 BYTE   PAN   c_v+0
 BYTE   W01
 BYTE   N02  Cs4  v048
 BYTE   W12
 BYTE   Cs4  v112
 BYTE   W12
 BYTE   PEND 
 BYTE   PATT
  POIN2 Label_7_015D968B
 BYTE   PATT
  POIN2 Label_7_015D96BF
 BYTE   PATT
  POIN2 Label_7_015D9634
 BYTE   PATT
  POIN2 Label_7_015D965E
 BYTE   PATT
  POIN2 Label_7_015D968B
 BYTE   PATT
  POIN2 Label_7_015D965E
 BYTE   PATT
  POIN2 Label_7_015D9634
 BYTE   PATT
  POIN2 Label_7_015D96BF
 BYTE   PATT
  POIN2 Label_7_015D968B
// 028   ----------------------------------------
 BYTE   N02  Cs4  v048
 BYTE   W10
 BYTE   PAN   c_v+20
 BYTE   W02
 BYTE   N02  Cs4  v112
 BYTE   W12
 BYTE   Cs4  v048
 BYTE   W11
 BYTE   PAN   c_v-20
 BYTE   W01
 BYTE   N02  Cs4  v112
 BYTE   W12
 BYTE   Cs4  v048
 BYTE   W11
 BYTE   PAN   c_v+20
 BYTE   W01
 BYTE   N02  Cs4  v112
 BYTE   W11
 BYTE   PAN   c_v+0
 BYTE   W01
 BYTE   N02  Cs4  v048
 BYTE   W12
 BYTE   Cs4  v112
 BYTE   W11
 BYTE   VOL   20*SkyTower_mvl/mxv
 BYTE   PAN   c_v+40
 BYTE   W01
// 029   ----------------------------------------
Label_7_015D9744:
 BYTE   N01  Bn3  v100
 BYTE   W05
 BYTE   PAN   c_v-40
 BYTE   W01
 BYTE   N01  En3
 BYTE   W05
 BYTE   PAN   c_v+40
 BYTE   W01
 BYTE   N01  Fs3
 BYTE   W05
 BYTE   PAN   c_v-40
 BYTE   W01
 BYTE   N01  Bn3
 BYTE   W05
 BYTE   PAN   c_v+40
 BYTE   W01
 BYTE   N01  En3
 BYTE   W05
 BYTE   PAN   c_v-40
 BYTE   W01
 BYTE   N01  Fs3
 BYTE   W05
 BYTE   PAN   c_v+40
 BYTE   W01
 BYTE   N01  Bn3
 BYTE   W05
 BYTE   PAN   c_v-40
 BYTE   W01
 BYTE   N01  En3
 BYTE   W05
 BYTE   PAN   c_v+40
 BYTE   W01
 BYTE   N01  Fs3
 BYTE   W05
 BYTE   PAN   c_v-40
 BYTE   W01
 BYTE   N01  Bn3
 BYTE   W05
 BYTE   PAN   c_v+40
 BYTE   W01
 BYTE   N01  En3
 BYTE   W05
 BYTE   PAN   c_v-40
 BYTE   W01
 BYTE   N01  Fs3
 BYTE   W05
 BYTE   PAN   c_v+40
 BYTE   W01
 BYTE   N01  Bn3
 BYTE   W05
 BYTE   PAN   c_v-40
 BYTE   W01
 BYTE   N01  En3
 BYTE   W05
 BYTE   PAN   c_v+40
 BYTE   W01
 BYTE   N01  Fs3
 BYTE   W05
 BYTE   PAN   c_v-40
 BYTE   W01
 BYTE   N01  Bn2
 BYTE   W05
 BYTE   PAN   c_v+40
 BYTE   W01
 BYTE   PEND 
 BYTE   PATT
  POIN2 Label_7_015D9744
 BYTE   PATT
  POIN2 Label_7_015D9744
 BYTE   PATT
  POIN2 Label_7_015D9744
 BYTE   PATT
  POIN2 Label_7_015D9744
 BYTE   PATT
  POIN2 Label_7_015D9744
// 030   ----------------------------------------
 BYTE   N01  Bn3  v100
 BYTE   W05
 BYTE   PAN   c_v-40
 BYTE   W01
 BYTE   N01  En3
 BYTE   W05
 BYTE   PAN   c_v+40
 BYTE   W01
 BYTE   N01  Fs3
 BYTE   W05
 BYTE   PAN   c_v-40
 BYTE   W01
 BYTE   N01  Bn3
 BYTE   W05
 BYTE   PAN   c_v+40
 BYTE   W01
 BYTE   N01  En3
 BYTE   W05
 BYTE   PAN   c_v-40
 BYTE   W01
 BYTE   N01  Fs3
 BYTE   W05
 BYTE   PAN   c_v+40
 BYTE   W01
 BYTE   N01  Bn3
 BYTE   W05
 BYTE   PAN   c_v-40
 BYTE   W01
 BYTE   N01  En3
 BYTE   W05
 BYTE   PAN   c_v+40
 BYTE   W01
 BYTE   N01  Fs3
 BYTE   W05
 BYTE   PAN   c_v-40
 BYTE   W01
 BYTE   N01  Bn3
 BYTE   W05
 BYTE   PAN   c_v+40
 BYTE   W01
 BYTE   N01  En3
 BYTE   W05
 BYTE   PAN   c_v-40
 BYTE   W01
 BYTE   N01  Fs3
 BYTE   W05
 BYTE   PAN   c_v+40
 BYTE   W01
 BYTE   N01  Bn3
 BYTE   W05
 BYTE   PAN   c_v-40
 BYTE   W01
 BYTE   N01  En3
 BYTE   W05
 BYTE   PAN   c_v+40
 BYTE   W01
 BYTE   N01  Fs3
 BYTE   W05
 BYTE   PAN   c_v-40
 BYTE   W01
 BYTE   N01  Bn2
 BYTE   W06
 BYTE   PATT
  POIN2 Label_7_015D92E3
 BYTE   PATT
  POIN2 Label_7_015D92E9
 BYTE   PATT
  POIN2 Label_7_015D92E9
 BYTE   PATT
  POIN2 Label_7_015D92E9
 BYTE   PATT
  POIN2 Label_7_015D92E9
// 031   ----------------------------------------
 BYTE   GoTo
  POIN2 Label_7_015D9365
// 032   ----------------------------------------
 BYTE   PAN   c_v+40
 BYTE   VOL   20*SkyTower_mvl/mxv
 BYTE   MOD 0
 BYTE   CnM2
 BYTE   PAN   c_v+40
 BYTE   VOL   20*SkyTower_mvl/mxv
 BYTE   MOD 0
 BYTE   CnM2
 BYTE   PAN   c_v+40
 BYTE   VOL   20*SkyTower_mvl/mxv
 BYTE   MOD 0
 BYTE   CnM2
 BYTE   BEND   c_v+0
 BYTE   FINE

//**************** Track 9 (Midi-Chn.8) ****************//

SkyTower_009:
// 000   ----------------------------------------
 BYTE   KEYSH   SkyTower_key+0
 BYTE   VOICE   77
 BYTE   PAN   c_v+0
 BYTE   VOL   17*SkyTower_mvl/mxv
 BYTE   PAN   c_v+0
 BYTE   VOL   17*SkyTower_mvl/mxv
 BYTE   MOD 0
 BYTE   CnM2
 BYTE   PAN   c_v+0
 BYTE   VOL   17*SkyTower_mvl/mxv
 BYTE   MOD 0
 BYTE   CnM2
 BYTE   VOL   17*SkyTower_mvl/mxv
 BYTE   PAN   c_v+0
 BYTE   MOD 0
 BYTE   CnM2
 BYTE   PAN   c_v+0
 BYTE   VOL   17*SkyTower_mvl/mxv
 BYTE   MOD 0
 BYTE   CnM2
 BYTE   VOL   17*SkyTower_mvl/mxv
 BYTE   PAN   c_v+0
 BYTE   MOD 0
 BYTE   CnM2
 BYTE   BEND   c_v+0
 BYTE   W96
// 001   ----------------------------------------
 BYTE   W96
// 002   ----------------------------------------
 BYTE   W96
// 003   ----------------------------------------
 BYTE   W96
// 004   ----------------------------------------
 BYTE   W96
// 005   ----------------------------------------
 BYTE   W96
// 006   ----------------------------------------
 BYTE   W96
// 007   ----------------------------------------
 BYTE   W96
// 008   ----------------------------------------
 BYTE   W96
// 009   ----------------------------------------
 BYTE   W96
// 010   ----------------------------------------
 BYTE   W96
// 011   ----------------------------------------
 BYTE   W96
// 012   ----------------------------------------
 BYTE   W96
// 013   ----------------------------------------
 BYTE   W96
// 014   ----------------------------------------
 BYTE   W96
// 015   ----------------------------------------
 BYTE   W96
// 016   ----------------------------------------
 BYTE   W96
// 017   ----------------------------------------
 BYTE   W96
// 018   ----------------------------------------
 BYTE   W96
// 019   ----------------------------------------
 BYTE   W96
// 020   ----------------------------------------
Label_8_5473F6:
 BYTE   W96
// 021   ----------------------------------------
 BYTE   W96
// 022   ----------------------------------------
 BYTE   W96
// 023   ----------------------------------------
 BYTE   W96
// 024   ----------------------------------------
 BYTE   W96
// 025   ----------------------------------------
 BYTE   W96
// 026   ----------------------------------------
 BYTE   W96
// 027   ----------------------------------------
 BYTE   W96
// 028   ----------------------------------------
 BYTE   W96
// 029   ----------------------------------------
 BYTE   W96
// 030   ----------------------------------------
 BYTE   W96
// 031   ----------------------------------------
 BYTE   W96
// 032   ----------------------------------------
 BYTE   W96
// 033   ----------------------------------------
 BYTE   W96
// 034   ----------------------------------------
 BYTE   W96
// 035   ----------------------------------------
 BYTE   W96
// 036   ----------------------------------------
 BYTE   W96
// 037   ----------------------------------------
 BYTE   W96
// 038   ----------------------------------------
 BYTE   W96
// 039   ----------------------------------------
 BYTE   W96
// 040   ----------------------------------------
 BYTE   W96
// 041   ----------------------------------------
 BYTE   W96
// 042   ----------------------------------------
 BYTE   W96
// 043   ----------------------------------------
 BYTE   W96
// 044   ----------------------------------------
 BYTE   W96
// 045   ----------------------------------------
 BYTE   W96
// 046   ----------------------------------------
 BYTE   W96
// 047   ----------------------------------------
 BYTE   W96
// 048   ----------------------------------------
 BYTE   W96
// 049   ----------------------------------------
 BYTE   W96
// 050   ----------------------------------------
 BYTE   W96
// 051   ----------------------------------------
 BYTE   W96
// 052   ----------------------------------------
 BYTE   W96
// 053   ----------------------------------------
 BYTE   W96
// 054   ----------------------------------------
 BYTE   W96
// 055   ----------------------------------------
 BYTE   W96
// 056   ----------------------------------------
 BYTE   W96
// 057   ----------------------------------------
 BYTE   W96
// 058   ----------------------------------------
 BYTE   W96
// 059   ----------------------------------------
 BYTE   W96
// 060   ----------------------------------------
 BYTE   W96
// 061   ----------------------------------------
 BYTE   W96
// 062   ----------------------------------------
 BYTE   W96
// 063   ----------------------------------------
 BYTE   W96
// 064   ----------------------------------------
 BYTE   W96
// 065   ----------------------------------------
 BYTE   W96
// 066   ----------------------------------------
 BYTE   W96
// 067   ----------------------------------------
 BYTE   W96
// 068   ----------------------------------------
 BYTE   W96
// 069   ----------------------------------------
 BYTE   W96
// 070   ----------------------------------------
 BYTE   W96
// 071   ----------------------------------------
 BYTE   W96
// 072   ----------------------------------------
 BYTE   W96
// 073   ----------------------------------------
 BYTE   W96
// 074   ----------------------------------------
 BYTE   W96
// 075   ----------------------------------------
 BYTE   W96
// 076   ----------------------------------------
 BYTE   W96
// 077   ----------------------------------------
 BYTE   W96
// 078   ----------------------------------------
 BYTE   W96
// 079   ----------------------------------------
 BYTE   W96
// 080   ----------------------------------------
 BYTE   W96
// 081   ----------------------------------------
 BYTE   W96
// 082   ----------------------------------------
 BYTE   W96
// 083   ----------------------------------------
 BYTE   W96
// 084   ----------------------------------------
 BYTE   TIE  An2  v060
 BYTE   W96
// 085   ----------------------------------------
 BYTE   W92
 BYTE   W03
 BYTE   EOT
 BYTE   W01
// 086   ----------------------------------------
 BYTE   TIE  Bn2
 BYTE   W96
// 087   ----------------------------------------
 BYTE   W92
 BYTE   W03
 BYTE   EOT
 BYTE   W01
// 088   ----------------------------------------
 BYTE   TIE  An2
 BYTE   W96
// 089   ----------------------------------------
 BYTE   W92
 BYTE   W03
 BYTE   EOT
 BYTE   W01
// 090   ----------------------------------------
 BYTE   TIE  Bn2
 BYTE   W96
// 091   ----------------------------------------
 BYTE   W92
 BYTE   W03
 BYTE   EOT
 BYTE   W01
// 092   ----------------------------------------
 BYTE   TIE  An2
 BYTE   W96
// 093   ----------------------------------------
 BYTE   W92
 BYTE   W03
 BYTE   EOT
 BYTE   W01
// 094   ----------------------------------------
 BYTE   TIE  Bn2
 BYTE   W96
// 095   ----------------------------------------
 BYTE   W92
 BYTE   W03
 BYTE   EOT
 BYTE   W01
// 096   ----------------------------------------
 BYTE   TIE  An2
 BYTE   W96
// 097   ----------------------------------------
 BYTE   W92
 BYTE   W03
 BYTE   EOT
 BYTE   W01
// 098   ----------------------------------------
 BYTE   TIE  Bn2
 BYTE   W96
// 099   ----------------------------------------
 BYTE   W92
 BYTE   W03
 BYTE   EOT
 BYTE   W01
// 100   ----------------------------------------
 BYTE   W96
// 101   ----------------------------------------
 BYTE   W96
// 102   ----------------------------------------
 BYTE   W96
// 103   ----------------------------------------
 BYTE   W96
// 104   ----------------------------------------
 BYTE   W96
// 105   ----------------------------------------
 BYTE   W96
// 106   ----------------------------------------
 BYTE   W96
// 107   ----------------------------------------
 BYTE   W96
// 108   ----------------------------------------
 BYTE   W96
// 109   ----------------------------------------
 BYTE   W96
// 110   ----------------------------------------
 BYTE   W96
// 111   ----------------------------------------
 BYTE   W96
// 112   ----------------------------------------
 BYTE   GoTo
  POIN2 Label_8_5473F6
// 113   ----------------------------------------
 BYTE   PAN   c_v+0
 BYTE   VOL   17*SkyTower_mvl/mxv
 BYTE   MOD 0
 BYTE   CnM2
 BYTE   PAN   c_v+0
 BYTE   VOL   17*SkyTower_mvl/mxv
 BYTE   MOD 0
 BYTE   CnM2
 BYTE   PAN   c_v+0
 BYTE   VOL   17*SkyTower_mvl/mxv
 BYTE   MOD 0
 BYTE   CnM2
 BYTE   BEND   c_v+0
 BYTE   FINE

//**************** Track 10 (Midi-Chn.9) ****************//

SkyTower_010:
// 000   ----------------------------------------
 BYTE   KEYSH   SkyTower_key+0
 BYTE   VOICE   127
 BYTE   PAN   c_v+0
 BYTE   VOL   40*SkyTower_mvl/mxv
 BYTE   PAN   c_v+0
 BYTE   VOL   40*SkyTower_mvl/mxv
 BYTE   PAN   c_v+0
 BYTE   VOL   40*SkyTower_mvl/mxv
 BYTE   PAN   c_v+0
 BYTE   En3
 BYTE   VOL   40*SkyTower_mvl/mxv
 BYTE   PAN   c_v+0
 BYTE   BEND   c_v+0
 BYTE   W96
// 001   ----------------------------------------
 BYTE   W96
// 002   ----------------------------------------
 BYTE   W96
// 003   ----------------------------------------
 BYTE   W96
// 004   ----------------------------------------
 BYTE   W96
// 005   ----------------------------------------
 BYTE   W96
// 006   ----------------------------------------
 BYTE   W96
// 007   ----------------------------------------
 BYTE   W96
// 008   ----------------------------------------
 BYTE   W96
// 009   ----------------------------------------
 BYTE   W96
// 010   ----------------------------------------
 BYTE   W96
// 011   ----------------------------------------
 BYTE   W96
// 012   ----------------------------------------
Label_9_5466E3:
 BYTE   N02  Cn1  v120
 BYTE   W24
 BYTE   En1  v096
 BYTE   W12
 BYTE   Cn1  v080
 BYTE   W12
 BYTE   Cn1  v120
 BYTE   W12
 BYTE   Cn1  v080
 BYTE   W12
 BYTE   En1  v096
 BYTE   W12
 BYTE   Cn1  v120
 BYTE   W12
 BYTE   PEND 
// 013   ----------------------------------------
Label_9_5466FA:
 BYTE   W12
 BYTE   N02  Cn1  v120
 BYTE   W12
 BYTE   En1  v096
 BYTE   W12
 BYTE   Cn1  v080
 BYTE   W12
 BYTE   Cn1  v120
 BYTE   W12
 BYTE   Cn1  v080
 BYTE   W12
 BYTE   En1  v096
 BYTE   W12
 BYTE   Cn1  v080
 BYTE   W12
 BYTE   PEND 
 BYTE   PATT
  POIN2 Label_9_5466E3
// 014   ----------------------------------------
 BYTE   W12
 BYTE   N02  Cn1  v120
 BYTE   W12
 BYTE   En1  v096
 BYTE   W12
 BYTE   Cn1  v080
 BYTE   W12
 BYTE   Cn1  v120
 BYTE   W12
 BYTE   Cn1  v080
 BYTE   W12
 BYTE   En1  v096
 BYTE   W12
 BYTE   En1  v080
 BYTE   W12
 BYTE   PATT
  POIN2 Label_9_5466E3
 BYTE   PATT
  POIN2 Label_9_5466FA
 BYTE   PATT
  POIN2 Label_9_5466E3
 BYTE   PATT
  POIN2 Label_9_5466FA
// 015   ----------------------------------------
Label_9_546742:
 BYTE   PATT
  POIN2 Label_9_5466E3
 BYTE   PATT
  POIN2 Label_9_5466FA
 BYTE   PATT
  POIN2 Label_9_5466E3
 BYTE   PATT
  POIN2 Label_9_5466FA
 BYTE   PATT
  POIN2 Label_9_5466E3
 BYTE   PATT
  POIN2 Label_9_5466FA
 BYTE   PATT
  POIN2 Label_9_5466E3
 BYTE   PATT
  POIN2 Label_9_5466FA
 BYTE   PATT
  POIN2 Label_9_5466E3
 BYTE   PATT
  POIN2 Label_9_5466FA
// 016   ----------------------------------------
Label_9_546774:
 BYTE   N02  Cn1  v120
 BYTE   W12
 BYTE   N05  An4  v072
 BYTE   W12
 BYTE   N02  En1  v096
 BYTE   W12
 BYTE   Cn1  v080
 BYTE   W12
 BYTE   Cn1  v120
 BYTE   W12
 BYTE   Cn1  v080
 BYTE   W12
 BYTE   En1  v096
 BYTE   W12
 BYTE   Cn1  v120
 BYTE   W12
 BYTE   PEND 
// 017   ----------------------------------------
Label_9_546790:
 BYTE   N02  Cn1  v120
 BYTE   W24
 BYTE   N02
 BYTE   W24
 BYTE   N02
 BYTE   W24
 BYTE   En1  v096
 BYTE   W06
 BYTE   En1  v032
 BYTE   W06
 BYTE   En1  v096
 BYTE   W12
 BYTE   PEND 
 BYTE   PATT
  POIN2 Label_9_5466E3
 BYTE   PATT
  POIN2 Label_9_5466FA
 BYTE   PATT
  POIN2 Label_9_5466E3
 BYTE   PATT
  POIN2 Label_9_5466FA
 BYTE   PATT
  POIN2 Label_9_5466E3
 BYTE   PATT
  POIN2 Label_9_5466FA
 BYTE   PATT
  POIN2 Label_9_5466E3
 BYTE   PATT
  POIN2 Label_9_5466FA
 BYTE   PATT
  POIN2 Label_9_5466E3
 BYTE   PATT
  POIN2 Label_9_5466FA
 BYTE   PATT
  POIN2 Label_9_5466E3
// 018   ----------------------------------------
 BYTE   W12
 BYTE   N02  En1  v096
 BYTE   W24
 BYTE   N02
 BYTE   W60
 BYTE   PATT
  POIN2 Label_9_5466E3
 BYTE   PATT
  POIN2 Label_9_5466FA
 BYTE   PATT
  POIN2 Label_9_5466E3
 BYTE   PATT
  POIN2 Label_9_5466FA
 BYTE   PATT
  POIN2 Label_9_5466E3
 BYTE   PATT
  POIN2 Label_9_5466FA
 BYTE   PATT
  POIN2 Label_9_546774
 BYTE   PATT
  POIN2 Label_9_546790
 BYTE   PATT
  POIN2 Label_9_5466E3
 BYTE   PATT
  POIN2 Label_9_5466FA
 BYTE   PATT
  POIN2 Label_9_5466E3
 BYTE   PATT
  POIN2 Label_9_5466FA
 BYTE   PATT
  POIN2 Label_9_5466E3
 BYTE   PATT
  POIN2 Label_9_5466FA
 BYTE   PATT
  POIN2 Label_9_5466E3
// 019   ----------------------------------------
 BYTE   W12
 BYTE   N02  En1  v096
 BYTE   W24
 BYTE   N02
 BYTE   W24
 BYTE   N02
 BYTE   W36
// 020   ----------------------------------------
 BYTE   W96
// 021   ----------------------------------------
 BYTE   W96
// 022   ----------------------------------------
 BYTE   W96
// 023   ----------------------------------------
 BYTE   W96
// 024   ----------------------------------------
 BYTE   W96
// 025   ----------------------------------------
 BYTE   W96
// 026   ----------------------------------------
 BYTE   W96
// 027   ----------------------------------------
 BYTE   Cn1  v120
 BYTE   W24
 BYTE   N02
 BYTE   W24
 BYTE   N02
 BYTE   W12
 BYTE   En1  v096
 BYTE   W12
 BYTE   N02
 BYTE   W12
 BYTE   N02
 BYTE   W06
 BYTE   En1  v040
 BYTE   W06
 BYTE   PATT
  POIN2 Label_9_5466E3
 BYTE   PATT
  POIN2 Label_9_5466FA
 BYTE   PATT
  POIN2 Label_9_5466E3
 BYTE   PATT
  POIN2 Label_9_5466FA
 BYTE   PATT
  POIN2 Label_9_5466E3
 BYTE   PATT
  POIN2 Label_9_5466FA
 BYTE   PATT
  POIN2 Label_9_5466E3
 BYTE   PATT
  POIN2 Label_9_5466FA
 BYTE   PATT
  POIN2 Label_9_5466E3
 BYTE   PATT
  POIN2 Label_9_5466FA
 BYTE   PATT
  POIN2 Label_9_5466E3
 BYTE   PATT
  POIN2 Label_9_5466FA
 BYTE   PATT
  POIN2 Label_9_5466E3
 BYTE   PATT
  POIN2 Label_9_5466FA
 BYTE   PATT
  POIN2 Label_9_5466E3
 BYTE   PATT
  POIN2 Label_9_5466FA
// 028   ----------------------------------------
 BYTE   W96
// 029   ----------------------------------------
 BYTE   W96
// 030   ----------------------------------------
 BYTE   W96
// 031   ----------------------------------------
 BYTE   W96
// 032   ----------------------------------------
 BYTE   W96
// 033   ----------------------------------------
 BYTE   W96
// 034   ----------------------------------------
 BYTE   W96
// 035   ----------------------------------------
 BYTE   W96
// 036   ----------------------------------------
 BYTE   W96
// 037   ----------------------------------------
 BYTE   W96
// 038   ----------------------------------------
 BYTE   W96
// 039   ----------------------------------------
 BYTE   W96
// 040   ----------------------------------------
 BYTE   W96
// 041   ----------------------------------------
 BYTE   W96
// 042   ----------------------------------------
 BYTE   W96
// 043   ----------------------------------------
 BYTE   W96
 BYTE   PATT
  POIN2 Label_9_5466E3
 BYTE   PATT
  POIN2 Label_9_5466FA
 BYTE   PATT
  POIN2 Label_9_5466E3
 BYTE   PATT
  POIN2 Label_9_5466FA
 BYTE   PATT
  POIN2 Label_9_5466E3
 BYTE   PATT
  POIN2 Label_9_5466FA
 BYTE   PATT
  POIN2 Label_9_546774
 BYTE   PATT
  POIN2 Label_9_546790
 BYTE   PATT
  POIN2 Label_9_5466E3
 BYTE   PATT
  POIN2 Label_9_5466FA
 BYTE   PATT
  POIN2 Label_9_5466E3
 BYTE   PATT
  POIN2 Label_9_5466FA
// 044   ----------------------------------------
 BYTE   GoTo
  POIN2 Label_9_546742
// 045   ----------------------------------------
 BYTE   PAN   c_v+0
 BYTE   VOL   40*SkyTower_mvl/mxv
 BYTE   PAN   c_v+0
 BYTE   VOL   40*SkyTower_mvl/mxv
 BYTE   PAN   c_v+0
 BYTE   VOL   40*SkyTower_mvl/mxv
 BYTE   BEND   c_v+0
 BYTE   FINE

//**************** Track 11 (Midi-Chn.10) ****************//

SkyTower_011:
// 000   ----------------------------------------
 BYTE   KEYSH   SkyTower_key+0
 BYTE   VOICE   127
 BYTE   PAN   c_v+0
 BYTE   VOL   31*SkyTower_mvl/mxv
 BYTE   PAN   c_v+0
 BYTE   VOL   31*SkyTower_mvl/mxv
 BYTE   PAN   c_v+0
 BYTE   VOL   31*SkyTower_mvl/mxv
 BYTE   PAN   c_v+0
 BYTE   En3
 BYTE   VOL   31*SkyTower_mvl/mxv
 BYTE   PAN   c_v+0
 BYTE   BEND   c_v+0
 BYTE   W96
// 001   ----------------------------------------
 BYTE   W96
// 002   ----------------------------------------
 BYTE   W96
// 003   ----------------------------------------
 BYTE   W96
// 004   ----------------------------------------
 BYTE   W96
// 005   ----------------------------------------
 BYTE   W96
// 006   ----------------------------------------
 BYTE   W96
// 007   ----------------------------------------
 BYTE   W96
// 008   ----------------------------------------
 BYTE   W96
// 009   ----------------------------------------
 BYTE   W96
// 010   ----------------------------------------
 BYTE   W96
// 011   ----------------------------------------
 BYTE   W96
// 012   ----------------------------------------
 BYTE   W96
// 013   ----------------------------------------
 BYTE   W96
// 014   ----------------------------------------
 BYTE   W96
// 015   ----------------------------------------
 BYTE   W96
// 016   ----------------------------------------
Label_10_015DAC79:
 BYTE   W06
 BYTE   N02  Dn3  v100
 BYTE   W06
 BYTE   N05  Fs2  v120
 BYTE   W06
 BYTE   N02  En3  v080
 BYTE   W12
 BYTE   Dn3  v100
 BYTE   W12
 BYTE   Cs3
 BYTE   W12
 BYTE   Dn3
 BYTE   W12
 BYTE   En3  v088
 BYTE   W30
 BYTE   PEND 
// 017   ----------------------------------------
Label_10_015DAC91:
 BYTE   N02  Cs3  v100
 BYTE   W06
 BYTE   Ds3  v088
 BYTE   W12
 BYTE   N02
 BYTE   W12
 BYTE   Cs3  v100
 BYTE   W12
 BYTE   Ds3  v080
 BYTE   W12
 BYTE   Dn3  v100
 BYTE   W12
 BYTE   En3  v080
 BYTE   W30
 BYTE   PEND 
// 018   ----------------------------------------
Label_10_015DACA7:
 BYTE   W06
 BYTE   N02  Dn3  v100
 BYTE   W06
 BYTE   N05  An4  v072
 BYTE   W06
 BYTE   N02  En3  v080
 BYTE   W12
 BYTE   Dn3  v100
 BYTE   W12
 BYTE   Cs3
 BYTE   W12
 BYTE   Dn3
 BYTE   W12
 BYTE   En3  v088
 BYTE   W30
 BYTE   PEND 
// 019   ----------------------------------------
Label_10_015DACBF:
 BYTE   W06
 BYTE   N02  Dn3  v100
 BYTE   W12
 BYTE   Cs3
 BYTE   W12
 BYTE   Ds3  v088
 BYTE   W12
 BYTE   Dn3  v100
 BYTE   W12
 BYTE   N02
 BYTE   W12
 BYTE   Cs3
 BYTE   W30
 BYTE   PEND 
// 020   ----------------------------------------
Label_10_015DACD1:
 BYTE   PATT
  POIN2 Label_10_015DAC79
 BYTE   PATT
  POIN2 Label_10_015DAC91
 BYTE   PATT
  POIN2 Label_10_015DACA7
 BYTE   PATT
  POIN2 Label_10_015DACBF
 BYTE   PATT
  POIN2 Label_10_015DAC79
 BYTE   PATT
  POIN2 Label_10_015DAC91
 BYTE   PATT
  POIN2 Label_10_015DACA7
 BYTE   PATT
  POIN2 Label_10_015DACBF
 BYTE   PATT
  POIN2 Label_10_015DAC79
 BYTE   PATT
  POIN2 Label_10_015DAC91
 BYTE   PATT
  POIN2 Label_10_015DACA7
// 021   ----------------------------------------
 BYTE   W96
 BYTE   PATT
  POIN2 Label_10_015DAC79
 BYTE   PATT
  POIN2 Label_10_015DAC91
 BYTE   PATT
  POIN2 Label_10_015DACA7
 BYTE   PATT
  POIN2 Label_10_015DACBF
 BYTE   PATT
  POIN2 Label_10_015DAC79
 BYTE   PATT
  POIN2 Label_10_015DAC91
 BYTE   PATT
  POIN2 Label_10_015DACA7
 BYTE   PATT
  POIN2 Label_10_015DACBF
// 022   ----------------------------------------
 BYTE   W96
// 023   ----------------------------------------
 BYTE   W96
// 024   ----------------------------------------
 BYTE   W96
// 025   ----------------------------------------
 BYTE   W96
 BYTE   PATT
  POIN2 Label_10_015DAC79
 BYTE   PATT
  POIN2 Label_10_015DAC91
 BYTE   PATT
  POIN2 Label_10_015DACA7
 BYTE   PATT
  POIN2 Label_10_015DACBF
 BYTE   PATT
  POIN2 Label_10_015DAC79
 BYTE   PATT
  POIN2 Label_10_015DAC91
 BYTE   PATT
  POIN2 Label_10_015DACA7
// 026   ----------------------------------------
 BYTE   W96
 BYTE   PATT
  POIN2 Label_10_015DAC79
 BYTE   PATT
  POIN2 Label_10_015DAC91
 BYTE   PATT
  POIN2 Label_10_015DACA7
 BYTE   PATT
  POIN2 Label_10_015DACBF
 BYTE   PATT
  POIN2 Label_10_015DAC79
 BYTE   PATT
  POIN2 Label_10_015DAC91
 BYTE   PATT
  POIN2 Label_10_015DACA7
// 027   ----------------------------------------
 BYTE   W78
 BYTE   N02  Fs2  v008
 BYTE   W03
 BYTE   Fs2  v012
 BYTE   W03
 BYTE   N02
 BYTE   W03
 BYTE   Fs2  v028
 BYTE   W03
 BYTE   Fs2  v044
 BYTE   W03
 BYTE   Fs2  v072
 BYTE   W03
// 028   ----------------------------------------
 BYTE   N05  Fs2  v088
 BYTE   W96
// 029   ----------------------------------------
 BYTE   W96
// 030   ----------------------------------------
 BYTE   W96
// 031   ----------------------------------------
 BYTE   W96
// 032   ----------------------------------------
 BYTE   W96
// 033   ----------------------------------------
 BYTE   W96
// 034   ----------------------------------------
 BYTE   W96
// 035   ----------------------------------------
 BYTE   W06
 BYTE   N02  Gs4  v052
 BYTE   W06
 BYTE   An4  v072
 BYTE   W06
 BYTE   Gs4  v052
 BYTE   W18
 BYTE   An4  v072
 BYTE   W60
 BYTE   PATT
  POIN2 Label_10_015DAC79
 BYTE   PATT
  POIN2 Label_10_015DAC91
 BYTE   PATT
  POIN2 Label_10_015DACA7
 BYTE   PATT
  POIN2 Label_10_015DACBF
 BYTE   PATT
  POIN2 Label_10_015DAC79
 BYTE   PATT
  POIN2 Label_10_015DAC91
 BYTE   PATT
  POIN2 Label_10_015DACA7
 BYTE   PATT
  POIN2 Label_10_015DACBF
 BYTE   PATT
  POIN2 Label_10_015DAC79
 BYTE   PATT
  POIN2 Label_10_015DAC91
 BYTE   PATT
  POIN2 Label_10_015DACA7
 BYTE   PATT
  POIN2 Label_10_015DACBF
 BYTE   PATT
  POIN2 Label_10_015DAC79
 BYTE   PATT
  POIN2 Label_10_015DAC91
 BYTE   PATT
  POIN2 Label_10_015DACA7
 BYTE   PATT
  POIN2 Label_10_015DACBF
// 036   ----------------------------------------
 BYTE   W96
// 037   ----------------------------------------
 BYTE   W96
// 038   ----------------------------------------
 BYTE   W96
// 039   ----------------------------------------
 BYTE   W96
// 040   ----------------------------------------
 BYTE   W96
// 041   ----------------------------------------
 BYTE   W96
// 042   ----------------------------------------
 BYTE   W96
// 043   ----------------------------------------
 BYTE   W96
// 044   ----------------------------------------
 BYTE   W96
// 045   ----------------------------------------
 BYTE   W96
// 046   ----------------------------------------
 BYTE   W96
// 047   ----------------------------------------
 BYTE   W96
// 048   ----------------------------------------
 BYTE   W96
// 049   ----------------------------------------
 BYTE   W96
// 050   ----------------------------------------
 BYTE   W96
// 051   ----------------------------------------
 BYTE   W96
 BYTE   PATT
  POIN2 Label_10_015DAC79
 BYTE   PATT
  POIN2 Label_10_015DAC91
 BYTE   PATT
  POIN2 Label_10_015DACA7
 BYTE   PATT
  POIN2 Label_10_015DACBF
 BYTE   PATT
  POIN2 Label_10_015DAC79
 BYTE   PATT
  POIN2 Label_10_015DAC91
 BYTE   PATT
  POIN2 Label_10_015DACA7
// 052   ----------------------------------------
 BYTE   W96
 BYTE   PATT
  POIN2 Label_10_015DAC79
 BYTE   PATT
  POIN2 Label_10_015DAC91
 BYTE   PATT
  POIN2 Label_10_015DACA7
 BYTE   PATT
  POIN2 Label_10_015DACBF
// 053   ----------------------------------------
 BYTE   GoTo
  POIN2 Label_10_015DACD1
// 054   ----------------------------------------
 BYTE   PAN   c_v+0
 BYTE   VOL   31*SkyTower_mvl/mxv
 BYTE   PAN   c_v+0
 BYTE   VOL   31*SkyTower_mvl/mxv
 BYTE   PAN   c_v+0
 BYTE   VOL   31*SkyTower_mvl/mxv
 BYTE   BEND   c_v+0
 BYTE   FINE

//**************** Track 12 (Midi-Chn.11) ****************//

SkyTower_012:
// 000   ----------------------------------------
 BYTE   KEYSH   SkyTower_key+0
 BYTE   VOICE   127
 BYTE   PAN   c_v+0
 BYTE   VOL   40*SkyTower_mvl/mxv
 BYTE   PAN   c_v+0
 BYTE   VOL   40*SkyTower_mvl/mxv
 BYTE   PAN   c_v+0
 BYTE   VOL   40*SkyTower_mvl/mxv
 BYTE   PAN   c_v+0
 BYTE   En3
 BYTE   VOL   40*SkyTower_mvl/mxv
 BYTE   PAN   c_v+0
 BYTE   BEND   c_v+0
 BYTE   N04  An3  v068
 BYTE   W12
 BYTE   N11  En2  v052
 BYTE   W11
 BYTE   PAN   c_v+40
 BYTE   W01
 BYTE   N02  Ds2
 BYTE   W06
 BYTE   Ds2  v016
 BYTE   W05
 BYTE   PAN   c_v-40
 BYTE   W01
 BYTE   N02  Ds2  v052
 BYTE   W06
 BYTE   Ds2  v016
 BYTE   W05
 BYTE   PAN   c_v+40
 BYTE   W01
 BYTE   N02  Ds2  v052
 BYTE   W06
 BYTE   Ds2  v016
 BYTE   W05
 BYTE   PAN   c_v-40
 BYTE   W01
 BYTE   N02  Ds2  v052
 BYTE   W06
 BYTE   Ds2  v016
 BYTE   W05
 BYTE   PAN   c_v+40
 BYTE   W01
 BYTE   N02  Ds2  v052
 BYTE   W06
 BYTE   Ds2  v016
 BYTE   W05
 BYTE   PAN   c_v-40
 BYTE   W01
 BYTE   N02  Ds2  v052
 BYTE   W06
 BYTE   Ds2  v016
 BYTE   W05
 BYTE   PAN   c_v+40
 BYTE   W01
// 001   ----------------------------------------
 BYTE   N02  Ds2  v052
 BYTE   W06
 BYTE   Ds2  v016
 BYTE   W05
 BYTE   PAN   c_v-40
 BYTE   W01
 BYTE   N02  Ds2  v052
 BYTE   W06
 BYTE   Ds2  v016
 BYTE   W05
 BYTE   PAN   c_v+40
 BYTE   W01
 BYTE   N02  Ds2  v052
 BYTE   W06
 BYTE   Ds2  v016
 BYTE   W05
 BYTE   PAN   c_v-40
 BYTE   W01
 BYTE   N02  Ds2  v052
 BYTE   W06
 BYTE   Ds2  v016
 BYTE   W05
 BYTE   PAN   c_v+40
 BYTE   W01
 BYTE   N02  Ds2  v052
 BYTE   W06
 BYTE   Ds2  v016
 BYTE   W05
 BYTE   PAN   c_v-40
 BYTE   W01
 BYTE   N02  Ds2  v052
 BYTE   W06
 BYTE   Ds2  v016
 BYTE   W05
 BYTE   PAN   c_v+40
 BYTE   W01
 BYTE   N02  Ds2  v052
 BYTE   W06
 BYTE   Ds2  v016
 BYTE   W05
 BYTE   PAN   c_v-40
 BYTE   W01
 BYTE   N02  Ds2  v052
 BYTE   W06
 BYTE   Ds2  v016
 BYTE   W05
 BYTE   PAN   c_v+0
 BYTE   W01
// 002   ----------------------------------------
 BYTE   N04  An3  v068
 BYTE   W12
 BYTE   N11  En2  v052
 BYTE   W11
 BYTE   PAN   c_v+40
 BYTE   W01
 BYTE   N02  Ds2
 BYTE   W06
 BYTE   Ds2  v016
 BYTE   W05
 BYTE   PAN   c_v-40
 BYTE   W01
 BYTE   N02  Ds2  v052
 BYTE   W06
 BYTE   Ds2  v016
 BYTE   W05
 BYTE   PAN   c_v+40
 BYTE   W01
 BYTE   N02  Ds2  v052
 BYTE   W06
 BYTE   Ds2  v016
 BYTE   W05
 BYTE   PAN   c_v-40
 BYTE   W01
 BYTE   N02  Ds2  v052
 BYTE   W06
 BYTE   Ds2  v016
 BYTE   W05
 BYTE   PAN   c_v+40
 BYTE   W01
 BYTE   N02  Ds2  v052
 BYTE   W06
 BYTE   Ds2  v016
 BYTE   W05
 BYTE   PAN   c_v-40
 BYTE   W01
 BYTE   N02  Ds2  v052
 BYTE   W06
 BYTE   Ds2  v016
 BYTE   W05
 BYTE   PAN   c_v+40
 BYTE   W01
// 003   ----------------------------------------
 BYTE   N02  Ds2  v052
 BYTE   W06
 BYTE   Ds2  v016
 BYTE   W05
 BYTE   PAN   c_v-40
 BYTE   W01
 BYTE   N02  Ds2  v052
 BYTE   W06
 BYTE   Ds2  v016
 BYTE   W05
 BYTE   PAN   c_v+40
 BYTE   W01
 BYTE   N02  Ds2  v052
 BYTE   W06
 BYTE   Ds2  v016
 BYTE   W05
 BYTE   PAN   c_v-40
 BYTE   W01
 BYTE   N02  Ds2  v052
 BYTE   W06
 BYTE   Ds2  v016
 BYTE   W05
 BYTE   PAN   c_v+0
 BYTE   W01
 BYTE   N01  Gs1  v052
 BYTE   W03
 BYTE   Gs1  v032
 BYTE   W09
 BYTE   N11  En2  v052
 BYTE   W12
 BYTE   N01  Gs1
 BYTE   W12
 BYTE   N11  En2
 BYTE   W12
// 004   ----------------------------------------
Label_11_015DB4AA:
 BYTE   N04  Gs1  v068
 BYTE   W12
 BYTE   N11  En2  v052
 BYTE   W12
 BYTE   N02  Gs1  v068
 BYTE   W06
 BYTE   Gs1  v028
 BYTE   W06
 BYTE   Ds2  v072
 BYTE   W06
 BYTE   Ds2  v028
 BYTE   W06
 BYTE   Gs1  v068
 BYTE   W06
 BYTE   Gs1  v028
 BYTE   W06
 BYTE   Ds2  v072
 BYTE   W06
 BYTE   Ds2  v028
 BYTE   W06
 BYTE   Gs1  v068
 BYTE   W06
 BYTE   Gs1  v028
 BYTE   W06
 BYTE   N11  En2  v052
 BYTE   W12
 BYTE   PEND 
// 005   ----------------------------------------
Label_11_015DB4D6:
 BYTE   N02  Gs1  v068
 BYTE   W06
 BYTE   Gs1  v028
 BYTE   W06
 BYTE   N11  Ds2  v072
 BYTE   W12
 BYTE   N02  Gs1  v068
 BYTE   W06
 BYTE   Gs1  v028
 BYTE   W06
 BYTE   N11  En2  v052
 BYTE   W12
 BYTE   N02  Gs1  v068
 BYTE   W06
 BYTE   Gs1  v028
 BYTE   W06
 BYTE   Ds2  v072
 BYTE   W06
 BYTE   Ds2  v028
 BYTE   W06
 BYTE   Gs1  v068
 BYTE   W06
 BYTE   Gs1  v028
 BYTE   W06
 BYTE   N11  En2  v052
 BYTE   W12
 BYTE   PEND 
 BYTE   PATT
  POIN2 Label_11_015DB4AA
 BYTE   PATT
  POIN2 Label_11_015DB4D6
 BYTE   PATT
  POIN2 Label_11_015DB4AA
 BYTE   PATT
  POIN2 Label_11_015DB4D6
 BYTE   PATT
  POIN2 Label_11_015DB4AA
 BYTE   PATT
  POIN2 Label_11_015DB4D6
 BYTE   PATT
  POIN2 Label_11_015DB4AA
 BYTE   PATT
  POIN2 Label_11_015DB4D6
 BYTE   PATT
  POIN2 Label_11_015DB4AA
 BYTE   PATT
  POIN2 Label_11_015DB4D6
 BYTE   PATT
  POIN2 Label_11_015DB4AA
 BYTE   PATT
  POIN2 Label_11_015DB4D6
 BYTE   PATT
  POIN2 Label_11_015DB4AA
 BYTE   PATT
  POIN2 Label_11_015DB4D6
// 006   ----------------------------------------
Label_11_015DB54A:
 BYTE   PATT
  POIN2 Label_11_015DB4AA
 BYTE   PATT
  POIN2 Label_11_015DB4D6
 BYTE   PATT
  POIN2 Label_11_015DB4AA
 BYTE   PATT
  POIN2 Label_11_015DB4D6
 BYTE   PATT
  POIN2 Label_11_015DB4AA
 BYTE   PATT
  POIN2 Label_11_015DB4D6
 BYTE   PATT
  POIN2 Label_11_015DB4AA
 BYTE   PATT
  POIN2 Label_11_015DB4D6
 BYTE   PATT
  POIN2 Label_11_015DB4AA
 BYTE   PATT
  POIN2 Label_11_015DB4D6
 BYTE   PATT
  POIN2 Label_11_015DB4AA
 BYTE   PATT
  POIN2 Label_11_015DB4D6
 BYTE   PATT
  POIN2 Label_11_015DB4AA
 BYTE   PATT
  POIN2 Label_11_015DB4D6
 BYTE   PATT
  POIN2 Label_11_015DB4AA
 BYTE   PATT
  POIN2 Label_11_015DB4D6
 BYTE   PATT
  POIN2 Label_11_015DB4AA
 BYTE   PATT
  POIN2 Label_11_015DB4D6
 BYTE   PATT
  POIN2 Label_11_015DB4AA
 BYTE   PATT
  POIN2 Label_11_015DB4D6
 BYTE   PATT
  POIN2 Label_11_015DB4AA
 BYTE   PATT
  POIN2 Label_11_015DB4D6
 BYTE   PATT
  POIN2 Label_11_015DB4AA
// 007   ----------------------------------------
 BYTE   N02  Gs1  v068
 BYTE   W06
 BYTE   Gs1  v028
 BYTE   W06
 BYTE   N11  Ds2  v072
 BYTE   W12
 BYTE   N02  Gs1  v068
 BYTE   W06
 BYTE   Gs1  v028
 BYTE   W06
 BYTE   N11  En2  v052
 BYTE   W12
 BYTE   N02  Gs1  v068
 BYTE   W06
 BYTE   Gs1  v028
 BYTE   W06
 BYTE   Ds2  v072
 BYTE   W06
 BYTE   Ds2  v028
 BYTE   W06
 BYTE   N11  En2  v052
 BYTE   W24
 BYTE   PATT
  POIN2 Label_11_015DB4AA
 BYTE   PATT
  POIN2 Label_11_015DB4D6
 BYTE   PATT
  POIN2 Label_11_015DB4AA
 BYTE   PATT
  POIN2 Label_11_015DB4D6
 BYTE   PATT
  POIN2 Label_11_015DB4AA
 BYTE   PATT
  POIN2 Label_11_015DB4D6
 BYTE   PATT
  POIN2 Label_11_015DB4AA
 BYTE   PATT
  POIN2 Label_11_015DB4D6
 BYTE   PATT
  POIN2 Label_11_015DB4AA
 BYTE   PATT
  POIN2 Label_11_015DB4D6
 BYTE   PATT
  POIN2 Label_11_015DB4AA
 BYTE   PATT
  POIN2 Label_11_015DB4D6
 BYTE   PATT
  POIN2 Label_11_015DB4AA
 BYTE   PATT
  POIN2 Label_11_015DB4D6
 BYTE   PATT
  POIN2 Label_11_015DB4AA
 BYTE   PATT
  POIN2 Label_11_015DB4D6
// 008   ----------------------------------------
Label_11_015DB634:
 BYTE   W24
 BYTE   VOL   12*SkyTower_mvl/mxv
 BYTE   W36
 BYTE   N01  Bn4  v012
 BYTE   W03
 BYTE   N01
 BYTE   W03
 BYTE   N01
 BYTE   W03
 BYTE   Bn4  v016
 BYTE   W03
 BYTE   N01
 BYTE   W03
 BYTE   N01
 BYTE   W03
 BYTE   Bn4  v020
 BYTE   W03
 BYTE   N01
 BYTE   W03
 BYTE   Bn4  v024
 BYTE   W03
 BYTE   N01
 BYTE   W03
 BYTE   N01
 BYTE   W03
 BYTE   Bn4  v028
 BYTE   W03
 BYTE   PEND 
// 009   ----------------------------------------
Label_11_015DB657:
 BYTE   N01  Bn4  v028
 BYTE   W03
 BYTE   Bn4  v032
 BYTE   W03
 BYTE   N01
 BYTE   W03
 BYTE   N01
 BYTE   W03
 BYTE   Bn4  v036
 BYTE   W03
 BYTE   N01
 BYTE   W03
 BYTE   Bn4  v040
 BYTE   W03
 BYTE   Bn4  v044
 BYTE   W03
 BYTE   N01
 BYTE   W03
 BYTE   Bn4  v048
 BYTE   W03
 BYTE   Bn4  v052
 BYTE   W03
 BYTE   Bn4  v056
 BYTE   W03
 BYTE   Bn4  v060
 BYTE   W03
 BYTE   N01
 BYTE   W03
 BYTE   Bn4  v064
 BYTE   W03
 BYTE   Bn4  v076
 BYTE   W03
 BYTE   Bn4  v084
 BYTE   W03
 BYTE   Bn4  v088
 BYTE   W03
 BYTE   Bn4  v096
 BYTE   W03
 BYTE   Bn4  v100
 BYTE   W03
 BYTE   N01
 BYTE   W03
 BYTE   Bn4  v096
 BYTE   W03
 BYTE   Bn4  v092
 BYTE   W03
 BYTE   Bn4  v088
 BYTE   W03
 BYTE   Bn4  v084
 BYTE   W03
 BYTE   Bn4  v080
 BYTE   W03
 BYTE   N01
 BYTE   W03
 BYTE   Bn4  v072
 BYTE   W03
 BYTE   Bn4  v068
 BYTE   W03
 BYTE   Bn4  v064
 BYTE   W03
 BYTE   Bn4  v056
 BYTE   W03
 BYTE   Bn4  v052
 BYTE   W03
 BYTE   PEND 
// 010   ----------------------------------------
Label_11_015DB6B2:
 BYTE   N01  Bn4  v048
 BYTE   W03
 BYTE   Bn4  v044
 BYTE   W03
 BYTE   Bn4  v036
 BYTE   W03
 BYTE   Bn4  v032
 BYTE   W03
 BYTE   Bn4  v028
 BYTE   W03
 BYTE   Bn4  v024
 BYTE   W03
 BYTE   Bn4  v016
 BYTE   W03
 BYTE   Bn4  v012
 BYTE   W03
 BYTE   PAN   c_v+40
 BYTE   N01  Bn4  v008
 BYTE   W36
 BYTE   Bn4  v012
 BYTE   W03
 BYTE   N01
 BYTE   W03
 BYTE   N01
 BYTE   W03
 BYTE   Bn4  v016
 BYTE   W03
 BYTE   N01
 BYTE   W03
 BYTE   N01
 BYTE   W03
 BYTE   Bn4  v020
 BYTE   W03
 BYTE   N01
 BYTE   W03
 BYTE   Bn4  v024
 BYTE   W03
 BYTE   N01
 BYTE   W03
 BYTE   N01
 BYTE   W03
 BYTE   Bn4  v028
 BYTE   W03
 BYTE   PEND 
 BYTE   PATT
  POIN2 Label_11_015DB657
// 011   ----------------------------------------
Label_11_015DB6F4:
 BYTE   N01  Bn4  v048
 BYTE   W03
 BYTE   Bn4  v044
 BYTE   W03
 BYTE   Bn4  v036
 BYTE   W03
 BYTE   Bn4  v032
 BYTE   W03
 BYTE   Bn4  v028
 BYTE   W03
 BYTE   Bn4  v024
 BYTE   W03
 BYTE   Bn4  v016
 BYTE   W03
 BYTE   Bn4  v012
 BYTE   W03
 BYTE   PAN   c_v-40
 BYTE   N01  Bn4  v008
 BYTE   W36
 BYTE   Bn4  v012
 BYTE   W03
 BYTE   N01
 BYTE   W03
 BYTE   N01
 BYTE   W03
 BYTE   Bn4  v016
 BYTE   W03
 BYTE   N01
 BYTE   W03
 BYTE   N01
 BYTE   W03
 BYTE   Bn4  v020
 BYTE   W03
 BYTE   N01
 BYTE   W03
 BYTE   Bn4  v024
 BYTE   W03
 BYTE   N01
 BYTE   W03
 BYTE   N01
 BYTE   W03
 BYTE   Bn4  v028
 BYTE   W03
 BYTE   PEND 
 BYTE   PATT
  POIN2 Label_11_015DB657
// 012   ----------------------------------------
Label_11_015DB736:
 BYTE   N01  Bn4  v048
 BYTE   W03
 BYTE   Bn4  v044
 BYTE   W03
 BYTE   Bn4  v036
 BYTE   W03
 BYTE   Bn4  v032
 BYTE   W03
 BYTE   Bn4  v028
 BYTE   W03
 BYTE   Bn4  v024
 BYTE   W03
 BYTE   Bn4  v016
 BYTE   W03
 BYTE   Bn4  v012
 BYTE   W03
 BYTE   Bn4  v008
 BYTE   W24
 BYTE   PAN   c_v+0
 BYTE   W44
 BYTE   W03
 BYTE   VOL   22*SkyTower_mvl/mxv
 BYTE   W01
 BYTE   PEND 
// 013   ----------------------------------------
Label_11_015DB75A:
 BYTE   N01  Ds4  v092
 BYTE   W03
 BYTE   Cs4  v032
 BYTE   W03
 BYTE   N02  As4
 BYTE   W06
 BYTE   N11  Bn4  v072
 BYTE   W12
 BYTE   N01  Ds4  v092
 BYTE   W03
 BYTE   Cs4  v032
 BYTE   W03
 BYTE   N02  As4
 BYTE   W06
 BYTE   N11  Bn4  v072
 BYTE   W12
 BYTE   N01  Ds4  v092
 BYTE   W03
 BYTE   Cs4  v032
 BYTE   W03
 BYTE   N02  As4
 BYTE   W06
 BYTE   N11  Bn4  v072
 BYTE   W12
 BYTE   As4
 BYTE   W12
 BYTE   N11
 BYTE   W11
 BYTE   VOL   40*SkyTower_mvl/mxv
 BYTE   W01
 BYTE   PEND 
 BYTE   PATT
  POIN2 Label_11_015DB4AA
 BYTE   PATT
  POIN2 Label_11_015DB4D6
 BYTE   PATT
  POIN2 Label_11_015DB4AA
 BYTE   PATT
  POIN2 Label_11_015DB4D6
 BYTE   PATT
  POIN2 Label_11_015DB4AA
 BYTE   PATT
  POIN2 Label_11_015DB4D6
 BYTE   PATT
  POIN2 Label_11_015DB4AA
 BYTE   PATT
  POIN2 Label_11_015DB4D6
 BYTE   PATT
  POIN2 Label_11_015DB4AA
 BYTE   PATT
  POIN2 Label_11_015DB4D6
 BYTE   PATT
  POIN2 Label_11_015DB4AA
 BYTE   PATT
  POIN2 Label_11_015DB4D6
 BYTE   PATT
  POIN2 Label_11_015DB4AA
 BYTE   PATT
  POIN2 Label_11_015DB4D6
 BYTE   PATT
  POIN2 Label_11_015DB4AA
 BYTE   PATT
  POIN2 Label_11_015DB4D6
 BYTE   PATT
  POIN2 Label_11_015DB4AA
 BYTE   PATT
  POIN2 Label_11_015DB4D6
 BYTE   PATT
  POIN2 Label_11_015DB4AA
 BYTE   PATT
  POIN2 Label_11_015DB4D6
 BYTE   PATT
  POIN2 Label_11_015DB4AA
 BYTE   PATT
  POIN2 Label_11_015DB4D6
 BYTE   PATT
  POIN2 Label_11_015DB4AA
 BYTE   PATT
  POIN2 Label_11_015DB4D6
 BYTE   PATT
  POIN2 Label_11_015DB634
 BYTE   PATT
  POIN2 Label_11_015DB657
 BYTE   PATT
  POIN2 Label_11_015DB6B2
 BYTE   PATT
  POIN2 Label_11_015DB657
 BYTE   PATT
  POIN2 Label_11_015DB6F4
 BYTE   PATT
  POIN2 Label_11_015DB657
 BYTE   PATT
  POIN2 Label_11_015DB736
 BYTE   PATT
  POIN2 Label_11_015DB75A
 BYTE   PATT
  POIN2 Label_11_015DB4AA
 BYTE   PATT
  POIN2 Label_11_015DB4D6
 BYTE   PATT
  POIN2 Label_11_015DB4AA
 BYTE   PATT
  POIN2 Label_11_015DB4D6
 BYTE   PATT
  POIN2 Label_11_015DB4AA
 BYTE   PATT
  POIN2 Label_11_015DB4D6
// 014   ----------------------------------------
 BYTE   N04  Gs1  v068
 BYTE   W72
 BYTE   N04
 BYTE   W12
 BYTE   N11  En2  v052
 BYTE   W12
// 015   ----------------------------------------
 BYTE   N02  Gs1  v060
 BYTE   W06
 BYTE   Gs1  v028
 BYTE   W06
 BYTE   N11  En2  v052
 BYTE   W12
 BYTE   N02  Gs1  v060
 BYTE   W06
 BYTE   Gs1  v028
 BYTE   W06
 BYTE   N11  En2  v052
 BYTE   W12
 BYTE   N02  Gs1  v060
 BYTE   W06
 BYTE   Gs1  v028
 BYTE   W06
 BYTE   N11  En2  v052
 BYTE   W12
 BYTE   N04  Gs1  v068
 BYTE   W12
 BYTE   N04
 BYTE   W12
 BYTE   PATT
  POIN2 Label_11_015DB4AA
 BYTE   PATT
  POIN2 Label_11_015DB4D6
 BYTE   PATT
  POIN2 Label_11_015DB4AA
 BYTE   PATT
  POIN2 Label_11_015DB4D6
// 016   ----------------------------------------
 BYTE   GoTo
  POIN2 Label_11_015DB54A
// 017   ----------------------------------------
 BYTE   PAN   c_v+0
 BYTE   VOL   40*SkyTower_mvl/mxv
 BYTE   PAN   c_v+0
 BYTE   VOL   40*SkyTower_mvl/mxv
 BYTE   PAN   c_v+0
 BYTE   VOL   40*SkyTower_mvl/mxv
 BYTE   BEND   c_v+0
 BYTE   FINE

//******************************************************//
	ALIGN 4

SkyTower:
	BYTE	12	// NumTrks
	BYTE	0	// NumBlks
	BYTE	SkyTower_pri	// Priority
	BYTE	SkyTower_rev	// Reverb.
    
	POIN2	SkyTower_grp
    
	POIN2	SkyTower_001
	POIN2	SkyTower_002
	POIN2	SkyTower_003
	POIN2	SkyTower_004
	POIN2	SkyTower_005
	POIN2	SkyTower_006
	POIN2	SkyTower_007
	POIN2	SkyTower_008
	POIN2	SkyTower_009
	POIN2	SkyTower_010
	POIN2	SkyTower_011
	POIN2	SkyTower_012

	
